0, 0, Header, 1, 5, 480
1, 0, Start_track
1, 0, Title_t, "Piano, Piano, Piano\000"
1, 0, Time_signature, 4, 2, 24, 8
1, 0, Key_signature, 0, "major"
1, 0, Tempo, 652174
1, 0, Control_c, 0, 121, 0
1, 0, Program_c, 0, 0
1, 0, Control_c, 0, 7, 100
1, 0, Control_c, 0, 10, 64
1, 0, Control_c, 0, 91, 0
1, 0, Control_c, 0, 93, 0
1, 0, MIDI_port, 0
1, 3840, Note_on_c, 0, 69, 80
1, 4295, Note_on_c, 0, 69, 0
1, 4320, Note_on_c, 0, 72, 80
1, 4547, Note_on_c, 0, 72, 0
1, 4560, Note_on_c, 0, 74, 80
1, 4787, Note_on_c, 0, 74, 0
1, 4800, Note_on_c, 0, 76, 80
1, 5255, Note_on_c, 0, 76, 0
1, 5280, Note_on_c, 0, 74, 80
1, 5507, Note_on_c, 0, 74, 0
1, 5520, Note_on_c, 0, 72, 80
1, 5747, Note_on_c, 0, 72, 0
1, 5760, Note_on_c, 0, 69, 80
1, 6215, Note_on_c, 0, 69, 0
1, 6240, Note_on_c, 0, 72, 80
1, 6467, Note_on_c, 0, 72, 0
1, 6480, Note_on_c, 0, 74, 80
1, 6707, Note_on_c, 0, 74, 0
1, 6720, Note_on_c, 0, 76, 80
1, 7631, Note_on_c, 0, 76, 0
1, 7680, Note_on_c, 0, 81, 80
1, 8135, Note_on_c, 0, 81, 0
1, 8160, Note_on_c, 0, 79, 80
1, 8615, Note_on_c, 0, 79, 0
1, 8640, Note_on_c, 0, 76, 80
1, 9095, Note_on_c, 0, 76, 0
1, 9120, Note_on_c, 0, 74, 80
1, 9347, Note_on_c, 0, 74, 0
1, 9360, Note_on_c, 0, 72, 80
1, 9587, Note_on_c, 0, 72, 0
1, 9600, Note_on_c, 0, 76, 80
1, 10055, Note_on_c, 0, 76, 0
1, 10080, Note_on_c, 0, 74, 80
1, 10307, Note_on_c, 0, 74, 0
1, 10320, Note_on_c, 0, 72, 80
1, 10547, Note_on_c, 0, 72, 0
1, 10560, Note_on_c, 0, 69, 80
1, 11243, Note_on_c, 0, 69, 0
1, 11280, Note_on_c, 0, 64, 80
1, 11507, Note_on_c, 0, 64, 0
1, 11520, Note_on_c, 0, 69, 80
1, 11975, Note_on_c, 0, 69, 0
1, 12000, Note_on_c, 0, 72, 80
1, 12227, Note_on_c, 0, 72, 0
1, 12240, Note_on_c, 0, 74, 80
1, 12467, Note_on_c, 0, 74, 0
1, 12480, Note_on_c, 0, 76, 80
1, 12935, Note_on_c, 0, 76, 0
1, 12960, Note_on_c, 0, 74, 80
1, 13187, Note_on_c, 0, 74, 0
1, 13200, Note_on_c, 0, 72, 80
1, 13427, Note_on_c, 0, 72, 0
1, 13440, Note_on_c, 0, 69, 80
1, 13895, Note_on_c, 0, 69, 0
1, 13920, Note_on_c, 0, 72, 80
1, 14147, Note_on_c, 0, 72, 0
1, 14160, Note_on_c, 0, 74, 80
1, 14387, Note_on_c, 0, 74, 0
1, 14400, Note_on_c, 0, 76, 80
1, 15083, Note_on_c, 0, 76, 0
1, 15300, Note_on_c, 0, 69, 80
1, 15356, Note_on_c, 0, 69, 0
1, 15360, Note_on_c, 0, 81, 80
1, 15815, Note_on_c, 0, 81, 0
1, 15840, Note_on_c, 0, 79, 80
1, 16295, Note_on_c, 0, 79, 0
1, 16320, Note_on_c, 0, 76, 80
1, 16775, Note_on_c, 0, 76, 0
1, 16800, Note_on_c, 0, 74, 80
1, 17027, Note_on_c, 0, 74, 0
1, 17040, Note_on_c, 0, 72, 80
1, 17267, Note_on_c, 0, 72, 0
1, 17280, Note_on_c, 0, 76, 80
1, 17735, Note_on_c, 0, 76, 0
1, 17760, Note_on_c, 0, 74, 80
1, 17987, Note_on_c, 0, 74, 0
1, 18000, Note_on_c, 0, 72, 80
1, 18227, Note_on_c, 0, 72, 0
1, 18240, Note_on_c, 0, 69, 80
1, 18695, Note_on_c, 0, 69, 0
1, 18720, Note_on_c, 0, 81, 80
1, 18720, Note_on_c, 0, 72, 80
1, 18871, Note_on_c, 0, 72, 0
1, 18880, Note_on_c, 0, 79, 80
1, 18959, Note_on_c, 0, 81, 0
1, 19031, Note_on_c, 0, 79, 0
1, 19040, Note_on_c, 0, 76, 80
1, 19191, Note_on_c, 0, 76, 0
1, 19200, Note_on_c, 0, 74, 80
1, 19541, Note_on_c, 0, 74, 0
1, 19560, Note_on_c, 0, 69, 80
1, 19673, Note_on_c, 0, 69, 0
1, 19680, Note_on_c, 0, 69, 80
1, 19793, Note_on_c, 0, 69, 0
1, 19800, Note_on_c, 0, 76, 80
1, 20027, Note_on_c, 0, 76, 0
1, 20040, Note_on_c, 0, 74, 80
1, 20495, Note_on_c, 0, 74, 0
1, 20520, Note_on_c, 0, 72, 80
1, 20633, Note_on_c, 0, 72, 0
1, 20640, Note_on_c, 0, 81, 80
1, 20791, Note_on_c, 0, 81, 0
1, 20800, Note_on_c, 0, 79, 80
1, 20951, Note_on_c, 0, 79, 0
1, 20960, Note_on_c, 0, 76, 80
1, 21111, Note_on_c, 0, 76, 0
1, 21120, Note_on_c, 0, 74, 80
1, 21461, Note_on_c, 0, 74, 0
1, 21480, Note_on_c, 0, 69, 80
1, 21593, Note_on_c, 0, 69, 0
1, 21600, Note_on_c, 0, 69, 80
1, 21713, Note_on_c, 0, 69, 0
1, 21720, Note_on_c, 0, 76, 80
1, 21947, Note_on_c, 0, 76, 0
1, 21960, Note_on_c, 0, 72, 80
1, 22415, Note_on_c, 0, 72, 0
1, 22440, Note_on_c, 0, 72, 80
1, 22553, Note_on_c, 0, 72, 0
1, 22560, Note_on_c, 0, 81, 80
1, 22711, Note_on_c, 0, 81, 0
1, 22720, Note_on_c, 0, 79, 80
1, 22871, Note_on_c, 0, 79, 0
1, 22880, Note_on_c, 0, 76, 80
1, 23031, Note_on_c, 0, 76, 0
1, 23040, Note_on_c, 0, 74, 80
1, 23381, Note_on_c, 0, 74, 0
1, 23400, Note_on_c, 0, 69, 80
1, 23513, Note_on_c, 0, 69, 0
1, 23520, Note_on_c, 0, 69, 80
1, 23633, Note_on_c, 0, 69, 0
1, 23640, Note_on_c, 0, 76, 80
1, 23867, Note_on_c, 0, 76, 0
1, 23880, Note_on_c, 0, 74, 80
1, 24335, Note_on_c, 0, 74, 0
1, 24480, Note_on_c, 0, 76, 80
1, 24707, Note_on_c, 0, 76, 0
1, 24720, Note_on_c, 0, 72, 80
1, 24947, Note_on_c, 0, 72, 0
1, 24960, Note_on_c, 0, 81, 80
1, 25187, Note_on_c, 0, 81, 0
1, 25200, Note_on_c, 0, 79, 80
1, 25313, Note_on_c, 0, 79, 0
1, 25320, Note_on_c, 0, 81, 80
1, 25433, Note_on_c, 0, 81, 0
1, 25440, Note_on_c, 0, 76, 80
1, 25667, Note_on_c, 0, 76, 0
1, 25680, Note_on_c, 0, 76, 80
1, 25907, Note_on_c, 0, 76, 0
1, 25920, Note_on_c, 0, 74, 80
1, 26147, Note_on_c, 0, 74, 0
1, 26160, Note_on_c, 0, 74, 80
1, 26387, Note_on_c, 0, 74, 0
1, 26400, Note_on_c, 0, 69, 80
1, 26400, Note_on_c, 0, 76, 80
1, 26551, Note_on_c, 0, 69, 0
1, 26560, Note_on_c, 0, 79, 80
1, 26639, Note_on_c, 0, 76, 0
1, 26711, Note_on_c, 0, 79, 0
1, 26720, Note_on_c, 0, 76, 80
1, 26871, Note_on_c, 0, 76, 0
1, 26880, Note_on_c, 0, 74, 80
1, 27221, Note_on_c, 0, 74, 0
1, 27240, Note_on_c, 0, 69, 80
1, 27353, Note_on_c, 0, 69, 0
1, 27360, Note_on_c, 0, 69, 80
1, 27473, Note_on_c, 0, 69, 0
1, 27480, Note_on_c, 0, 76, 80
1, 27707, Note_on_c, 0, 76, 0
1, 27720, Note_on_c, 0, 74, 80
1, 28175, Note_on_c, 0, 74, 0
1, 28200, Note_on_c, 0, 72, 80
1, 28313, Note_on_c, 0, 72, 0
1, 28320, Note_on_c, 0, 81, 80
1, 28471, Note_on_c, 0, 81, 0
1, 28480, Note_on_c, 0, 79, 80
1, 28631, Note_on_c, 0, 79, 0
1, 28640, Note_on_c, 0, 76, 80
1, 28791, Note_on_c, 0, 76, 0
1, 28800, Note_on_c, 0, 74, 80
1, 29141, Note_on_c, 0, 74, 0
1, 29160, Note_on_c, 0, 69, 80
1, 29273, Note_on_c, 0, 69, 0
1, 29280, Note_on_c, 0, 69, 80
1, 29393, Note_on_c, 0, 69, 0
1, 29400, Note_on_c, 0, 76, 80
1, 29627, Note_on_c, 0, 76, 0
1, 29640, Note_on_c, 0, 72, 80
1, 29981, Note_on_c, 0, 72, 0
1, 30000, Note_on_c, 0, 69, 80
1, 30113, Note_on_c, 0, 69, 0
1, 30120, Note_on_c, 0, 69, 80
1, 30233, Note_on_c, 0, 69, 0
1, 30240, Note_on_c, 0, 76, 80
1, 30353, Note_on_c, 0, 76, 0
1, 30360, Note_on_c, 0, 76, 80
1, 30473, Note_on_c, 0, 76, 0
1, 30480, Note_on_c, 0, 74, 80
1, 31049, Note_on_c, 0, 74, 0
1, 31080, Note_on_c, 0, 69, 80
1, 31193, Note_on_c, 0, 69, 0
1, 31200, Note_on_c, 0, 76, 80
1, 31313, Note_on_c, 0, 76, 0
1, 31320, Note_on_c, 0, 76, 80
1, 31433, Note_on_c, 0, 76, 0
1, 31440, Note_on_c, 0, 74, 80
1, 32123, Note_on_c, 0, 74, 0
1, 32520, Note_on_c, 0, 69, 80
1, 32633, Note_on_c, 0, 69, 0
1, 32640, Note_on_c, 0, 76, 80
1, 32867, Note_on_c, 0, 76, 0
1, 32880, Note_on_c, 0, 74, 80
1, 33107, Note_on_c, 0, 74, 0
1, 33120, Note_on_c, 0, 72, 80
1, 33347, Note_on_c, 0, 72, 0
1, 33360, Note_on_c, 0, 72, 80
1, 33815, Note_on_c, 0, 72, 0
1, 33840, Note_on_c, 0, 76, 80
1, 34067, Note_on_c, 0, 76, 0
1, 34080, Note_on_c, 0, 72, 80
1, 34535, Note_on_c, 0, 72, 0
1, 34560, Note_on_c, 0, 69, 80
1, 34787, Note_on_c, 0, 69, 0
1, 34800, Note_on_c, 0, 69, 80
1, 34913, Note_on_c, 0, 69, 0
1, 34920, Note_on_c, 0, 69, 80
1, 35033, Note_on_c, 0, 69, 0
1, 35040, Note_on_c, 0, 72, 80
1, 35267, Note_on_c, 0, 72, 0
1, 35280, Note_on_c, 0, 74, 80
1, 35393, Note_on_c, 0, 74, 0
1, 35400, Note_on_c, 0, 74, 80
1, 35513, Note_on_c, 0, 74, 0
1, 35520, Note_on_c, 0, 76, 80
1, 35747, Note_on_c, 0, 76, 0
1, 35760, Note_on_c, 0, 76, 80
1, 35873, Note_on_c, 0, 76, 0
1, 35880, Note_on_c, 0, 76, 80
1, 35993, Note_on_c, 0, 76, 0
1, 36000, Note_on_c, 0, 74, 80
1, 36227, Note_on_c, 0, 74, 0
1, 36240, Note_on_c, 0, 72, 80
1, 36467, Note_on_c, 0, 72, 0
1, 36480, Note_on_c, 0, 69, 80
1, 36707, Note_on_c, 0, 69, 0
1, 36720, Note_on_c, 0, 69, 80
1, 36833, Note_on_c, 0, 69, 0
1, 36840, Note_on_c, 0, 69, 80
1, 36953, Note_on_c, 0, 69, 0
1, 36960, Note_on_c, 0, 72, 80
1, 37187, Note_on_c, 0, 72, 0
1, 37200, Note_on_c, 0, 74, 80
1, 37427, Note_on_c, 0, 74, 0
1, 37440, Note_on_c, 0, 76, 80
1, 38123, Note_on_c, 0, 76, 0
1, 38160, Note_on_c, 0, 72, 80
1, 38273, Note_on_c, 0, 72, 0
1, 38280, Note_on_c, 0, 72, 80
1, 38393, Note_on_c, 0, 72, 0
1, 38400, Note_on_c, 0, 81, 80
1, 38627, Note_on_c, 0, 81, 0
1, 38640, Note_on_c, 0, 81, 80
1, 38867, Note_on_c, 0, 81, 0
1, 38880, Note_on_c, 0, 79, 80
1, 39107, Note_on_c, 0, 79, 0
1, 39120, Note_on_c, 0, 79, 80
1, 39233, Note_on_c, 0, 79, 0
1, 39240, Note_on_c, 0, 79, 80
1, 39353, Note_on_c, 0, 79, 0
1, 39360, Note_on_c, 0, 76, 80
1, 39587, Note_on_c, 0, 76, 0
1, 39600, Note_on_c, 0, 76, 80
1, 39827, Note_on_c, 0, 76, 0
1, 39840, Note_on_c, 0, 74, 80
1, 40067, Note_on_c, 0, 74, 0
1, 40080, Note_on_c, 0, 72, 80
1, 40193, Note_on_c, 0, 72, 0
1, 40200, Note_on_c, 0, 72, 80
1, 40313, Note_on_c, 0, 72, 0
1, 40320, Note_on_c, 0, 76, 80
1, 40547, Note_on_c, 0, 76, 0
1, 40560, Note_on_c, 0, 76, 80
1, 40787, Note_on_c, 0, 76, 0
1, 40800, Note_on_c, 0, 74, 80
1, 41027, Note_on_c, 0, 74, 0
1, 41040, Note_on_c, 0, 72, 80
1, 41267, Note_on_c, 0, 72, 0
1, 41280, Note_on_c, 0, 69, 80
1, 42191, Note_on_c, 0, 69, 0
1, 42240, Note_on_c, 0, 69, 80
1, 42467, Note_on_c, 0, 69, 0
1, 42480, Note_on_c, 0, 69, 80
1, 42593, Note_on_c, 0, 69, 0
1, 42600, Note_on_c, 0, 69, 80
1, 42713, Note_on_c, 0, 69, 0
1, 42720, Note_on_c, 0, 72, 80
1, 42947, Note_on_c, 0, 72, 0
1, 42960, Note_on_c, 0, 74, 80
1, 43187, Note_on_c, 0, 74, 0
1, 43200, Note_on_c, 0, 76, 80
1, 43427, Note_on_c, 0, 76, 0
1, 43440, Note_on_c, 0, 76, 80
1, 43553, Note_on_c, 0, 76, 0
1, 43560, Note_on_c, 0, 76, 80
1, 43673, Note_on_c, 0, 76, 0
1, 43680, Note_on_c, 0, 74, 80
1, 43907, Note_on_c, 0, 74, 0
1, 43920, Note_on_c, 0, 72, 80
1, 44147, Note_on_c, 0, 72, 0
1, 44160, Note_on_c, 0, 69, 80
1, 44387, Note_on_c, 0, 69, 0
1, 44400, Note_on_c, 0, 69, 80
1, 44513, Note_on_c, 0, 69, 0
1, 44520, Note_on_c, 0, 69, 80
1, 44633, Note_on_c, 0, 69, 0
1, 44640, Note_on_c, 0, 72, 80
1, 44867, Note_on_c, 0, 72, 0
1, 44880, Note_on_c, 0, 74, 80
1, 45107, Note_on_c, 0, 74, 0
1, 45120, Note_on_c, 0, 76, 80
1, 45803, Note_on_c, 0, 76, 0
1, 45840, Note_on_c, 0, 72, 80
1, 45953, Note_on_c, 0, 72, 0
1, 45960, Note_on_c, 0, 72, 80
1, 46073, Note_on_c, 0, 72, 0
1, 46080, Note_on_c, 0, 81, 80
1, 46307, Note_on_c, 0, 81, 0
1, 46320, Note_on_c, 0, 81, 80
1, 46547, Note_on_c, 0, 81, 0
1, 46560, Note_on_c, 0, 79, 80
1, 46787, Note_on_c, 0, 79, 0
1, 46800, Note_on_c, 0, 79, 80
1, 46913, Note_on_c, 0, 79, 0
1, 46920, Note_on_c, 0, 79, 80
1, 47033, Note_on_c, 0, 79, 0
1, 47040, Note_on_c, 0, 76, 80
1, 47267, Note_on_c, 0, 76, 0
1, 47280, Note_on_c, 0, 76, 80
1, 47507, Note_on_c, 0, 76, 0
1, 47520, Note_on_c, 0, 74, 80
1, 47747, Note_on_c, 0, 74, 0
1, 47760, Note_on_c, 0, 72, 80
1, 47873, Note_on_c, 0, 72, 0
1, 47880, Note_on_c, 0, 72, 80
1, 47993, Note_on_c, 0, 72, 0
1, 48000, Note_on_c, 0, 76, 80
1, 48227, Note_on_c, 0, 76, 0
1, 48240, Note_on_c, 0, 76, 80
1, 48467, Note_on_c, 0, 76, 0
1, 48480, Note_on_c, 0, 74, 80
1, 48707, Note_on_c, 0, 74, 0
1, 48720, Note_on_c, 0, 72, 80
1, 48947, Note_on_c, 0, 72, 0
1, 48960, Note_on_c, 0, 69, 80
1, 49643, Note_on_c, 0, 69, 0
1, 49680, Note_on_c, 0, 76, 80
1, 49907, Note_on_c, 0, 76, 0
1, 49920, Time_signature, 2, 2, 24, 8
1, 49920, Note_on_c, 0, 76, 80
1, 50147, Note_on_c, 0, 76, 0
1, 50160, Note_on_c, 0, 76, 80
1, 50387, Note_on_c, 0, 76, 0
1, 50400, Note_on_c, 0, 74, 80
1, 50627, Note_on_c, 0, 74, 0
1, 50640, Note_on_c, 0, 72, 80
1, 50867, Note_on_c, 0, 72, 0
1, 50880, Time_signature, 4, 2, 24, 8
1, 50880, Note_on_c, 0, 69, 80
1, 51335, Note_on_c, 0, 69, 0
1, 51360, Note_on_c, 0, 72, 80
1, 51587, Note_on_c, 0, 72, 0
1, 51600, Note_on_c, 0, 74, 80
1, 51827, Note_on_c, 0, 74, 0
1, 51840, Note_on_c, 0, 76, 80
1, 52295, Note_on_c, 0, 76, 0
1, 52320, Note_on_c, 0, 74, 80
1, 52547, Note_on_c, 0, 74, 0
1, 52560, Note_on_c, 0, 72, 80
1, 52787, Note_on_c, 0, 72, 0
1, 52800, Note_on_c, 0, 69, 80
1, 53255, Note_on_c, 0, 69, 0
1, 53280, Note_on_c, 0, 72, 80
1, 53507, Note_on_c, 0, 72, 0
1, 53520, Note_on_c, 0, 74, 80
1, 53747, Note_on_c, 0, 74, 0
1, 53760, Note_on_c, 0, 76, 80
1, 54443, Note_on_c, 0, 76, 0
1, 54660, Note_on_c, 0, 69, 80
1, 54716, Note_on_c, 0, 69, 0
1, 54720, Note_on_c, 0, 81, 80
1, 55175, Note_on_c, 0, 81, 0
1, 55200, Note_on_c, 0, 79, 80
1, 55655, Note_on_c, 0, 79, 0
1, 55680, Note_on_c, 0, 76, 80
1, 56135, Note_on_c, 0, 76, 0
1, 56160, Note_on_c, 0, 74, 80
1, 56387, Note_on_c, 0, 74, 0
1, 56400, Note_on_c, 0, 72, 80
1, 56627, Note_on_c, 0, 72, 0
1, 56640, Note_on_c, 0, 76, 80
1, 57095, Note_on_c, 0, 76, 0
1, 57120, Note_on_c, 0, 74, 80
1, 57347, Note_on_c, 0, 74, 0
1, 57360, Note_on_c, 0, 72, 80
1, 57587, Note_on_c, 0, 72, 0
1, 57600, Note_on_c, 0, 69, 80
1, 58055, Note_on_c, 0, 69, 0
1, 58080, Note_on_c, 0, 81, 80
1, 58231, Note_on_c, 0, 81, 0
1, 58240, Note_on_c, 0, 79, 80
1, 58391, Note_on_c, 0, 79, 0
1, 58400, Note_on_c, 0, 76, 80
1, 58551, Note_on_c, 0, 76, 0
1, 58560, Note_on_c, 0, 74, 80
1, 58901, Note_on_c, 0, 74, 0
1, 58920, Note_on_c, 0, 69, 80
1, 59033, Note_on_c, 0, 69, 0
1, 59040, Note_on_c, 0, 69, 80
1, 59153, Note_on_c, 0, 69, 0
1, 59160, Note_on_c, 0, 76, 80
1, 59387, Note_on_c, 0, 76, 0
1, 59400, Note_on_c, 0, 74, 80
1, 59855, Note_on_c, 0, 74, 0
1, 59880, Note_on_c, 0, 72, 80
1, 59993, Note_on_c, 0, 72, 0
1, 60000, Note_on_c, 0, 81, 80
1, 60151, Note_on_c, 0, 81, 0
1, 60160, Note_on_c, 0, 79, 80
1, 60311, Note_on_c, 0, 79, 0
1, 60320, Note_on_c, 0, 76, 80
1, 60471, Note_on_c, 0, 76, 0
1, 60480, Note_on_c, 0, 74, 80
1, 60821, Note_on_c, 0, 74, 0
1, 60840, Note_on_c, 0, 69, 80
1, 60953, Note_on_c, 0, 69, 0
1, 60960, Note_on_c, 0, 69, 80
1, 61073, Note_on_c, 0, 69, 0
1, 61080, Note_on_c, 0, 76, 80
1, 61307, Note_on_c, 0, 76, 0
1, 61320, Note_on_c, 0, 72, 80
1, 61775, Note_on_c, 0, 72, 0
1, 61800, Note_on_c, 0, 72, 80
1, 61913, Note_on_c, 0, 72, 0
1, 61920, Note_on_c, 0, 81, 80
1, 62071, Note_on_c, 0, 81, 0
1, 62080, Note_on_c, 0, 79, 80
1, 62231, Note_on_c, 0, 79, 0
1, 62240, Note_on_c, 0, 76, 80
1, 62391, Note_on_c, 0, 76, 0
1, 62400, Note_on_c, 0, 74, 80
1, 62741, Note_on_c, 0, 74, 0
1, 62760, Note_on_c, 0, 69, 80
1, 62873, Note_on_c, 0, 69, 0
1, 62880, Note_on_c, 0, 69, 80
1, 62993, Note_on_c, 0, 69, 0
1, 63000, Note_on_c, 0, 76, 80
1, 63227, Note_on_c, 0, 76, 0
1, 63240, Note_on_c, 0, 74, 80
1, 63695, Note_on_c, 0, 74, 0
1, 63840, Note_on_c, 0, 76, 80
1, 64067, Note_on_c, 0, 76, 0
1, 64080, Note_on_c, 0, 72, 80
1, 64307, Note_on_c, 0, 72, 0
1, 64320, Note_on_c, 0, 81, 80
1, 64547, Note_on_c, 0, 81, 0
1, 64560, Note_on_c, 0, 79, 80
1, 64673, Note_on_c, 0, 79, 0
1, 64680, Note_on_c, 0, 81, 80
1, 64793, Note_on_c, 0, 81, 0
1, 64800, Note_on_c, 0, 76, 80
1, 65027, Note_on_c, 0, 76, 0
1, 65040, Note_on_c, 0, 76, 80
1, 65267, Note_on_c, 0, 76, 0
1, 65280, Note_on_c, 0, 74, 80
1, 65507, Note_on_c, 0, 74, 0
1, 65520, Note_on_c, 0, 74, 80
1, 65747, Note_on_c, 0, 74, 0
1, 65760, Note_on_c, 0, 69, 80
1, 65760, Note_on_c, 0, 76, 80
1, 65911, Note_on_c, 0, 69, 0
1, 65920, Note_on_c, 0, 79, 80
1, 65999, Note_on_c, 0, 76, 0
1, 66071, Note_on_c, 0, 79, 0
1, 66080, Note_on_c, 0, 76, 80
1, 66231, Note_on_c, 0, 76, 0
1, 66240, Note_on_c, 0, 74, 80
1, 66581, Note_on_c, 0, 74, 0
1, 66600, Note_on_c, 0, 69, 80
1, 66713, Note_on_c, 0, 69, 0
1, 66720, Note_on_c, 0, 69, 80
1, 66833, Note_on_c, 0, 69, 0
1, 66840, Note_on_c, 0, 76, 80
1, 67067, Note_on_c, 0, 76, 0
1, 67080, Note_on_c, 0, 74, 80
1, 67535, Note_on_c, 0, 74, 0
1, 67560, Note_on_c, 0, 72, 80
1, 67673, Note_on_c, 0, 72, 0
1, 67680, Note_on_c, 0, 81, 80
1, 67831, Note_on_c, 0, 81, 0
1, 67840, Note_on_c, 0, 79, 80
1, 67991, Note_on_c, 0, 79, 0
1, 68000, Note_on_c, 0, 76, 80
1, 68151, Note_on_c, 0, 76, 0
1, 68160, Note_on_c, 0, 74, 80
1, 68387, Note_on_c, 0, 74, 0
1, 68400, Note_on_c, 0, 69, 80
1, 68513, Note_on_c, 0, 69, 0
1, 68520, Note_on_c, 0, 69, 80
1, 68633, Note_on_c, 0, 69, 0
1, 68640, Note_on_c, 0, 74, 80
1, 68753, Note_on_c, 0, 74, 0
1, 68760, Note_on_c, 0, 76, 80
1, 68873, Note_on_c, 0, 76, 0
1, 68880, Note_on_c, 0, 72, 80
1, 69335, Note_on_c, 0, 72, 0
1, 69360, Note_on_c, 0, 69, 80
1, 69473, Note_on_c, 0, 69, 0
1, 69480, Note_on_c, 0, 69, 80
1, 69593, Note_on_c, 0, 69, 0
1, 69600, Note_on_c, 0, 76, 80
1, 69713, Note_on_c, 0, 76, 0
1, 69720, Note_on_c, 0, 76, 80
1, 69833, Note_on_c, 0, 76, 0
1, 69840, Note_on_c, 0, 74, 80
1, 70409, Note_on_c, 0, 74, 0
1, 70440, Note_on_c, 0, 69, 80
1, 70553, Note_on_c, 0, 69, 0
1, 70560, Note_on_c, 0, 76, 80
1, 70673, Note_on_c, 0, 76, 0
1, 70680, Note_on_c, 0, 76, 80
1, 70793, Note_on_c, 0, 76, 0
1, 70800, Note_on_c, 0, 74, 80
1, 71483, Note_on_c, 0, 74, 0
1, 71880, Note_on_c, 0, 69, 80
1, 71993, Note_on_c, 0, 69, 0
1, 72000, Note_on_c, 0, 76, 80
1, 72227, Note_on_c, 0, 76, 0
1, 72240, Note_on_c, 0, 74, 80
1, 72467, Note_on_c, 0, 74, 0
1, 72480, Note_on_c, 0, 72, 80
1, 72707, Note_on_c, 0, 72, 0
1, 72720, Note_on_c, 0, 72, 80
1, 73175, Note_on_c, 0, 72, 0
1, 73200, Note_on_c, 0, 76, 80
1, 73427, Note_on_c, 0, 76, 0
1, 73440, Note_on_c, 0, 72, 80
1, 73895, Note_on_c, 0, 72, 0
1, 73920, Note_on_c, 0, 69, 80
1, 74147, Note_on_c, 0, 69, 0
1, 74160, Note_on_c, 0, 69, 80
1, 74273, Note_on_c, 0, 69, 0
1, 74280, Note_on_c, 0, 69, 80
1, 74393, Note_on_c, 0, 69, 0
1, 74400, Note_on_c, 0, 72, 80
1, 74627, Note_on_c, 0, 72, 0
1, 74640, Note_on_c, 0, 74, 80
1, 74753, Note_on_c, 0, 74, 0
1, 74760, Note_on_c, 0, 74, 80
1, 74873, Note_on_c, 0, 74, 0
1, 74880, Note_on_c, 0, 76, 80
1, 75107, Note_on_c, 0, 76, 0
1, 75120, Note_on_c, 0, 76, 80
1, 75233, Note_on_c, 0, 76, 0
1, 75240, Note_on_c, 0, 76, 80
1, 75353, Note_on_c, 0, 76, 0
1, 75360, Note_on_c, 0, 74, 80
1, 75587, Note_on_c, 0, 74, 0
1, 75600, Note_on_c, 0, 72, 80
1, 75827, Note_on_c, 0, 72, 0
1, 75840, Note_on_c, 0, 69, 80
1, 76067, Note_on_c, 0, 69, 0
1, 76080, Note_on_c, 0, 69, 80
1, 76193, Note_on_c, 0, 69, 0
1, 76200, Note_on_c, 0, 69, 80
1, 76313, Note_on_c, 0, 69, 0
1, 76320, Note_on_c, 0, 72, 80
1, 76547, Note_on_c, 0, 72, 0
1, 76560, Note_on_c, 0, 74, 80
1, 76787, Note_on_c, 0, 74, 0
1, 76800, Note_on_c, 0, 76, 80
1, 77483, Note_on_c, 0, 76, 0
1, 77520, Note_on_c, 0, 72, 80
1, 77633, Note_on_c, 0, 72, 0
1, 77640, Note_on_c, 0, 72, 80
1, 77753, Note_on_c, 0, 72, 0
1, 77760, Note_on_c, 0, 81, 80
1, 77987, Note_on_c, 0, 81, 0
1, 78000, Note_on_c, 0, 81, 80
1, 78227, Note_on_c, 0, 81, 0
1, 78240, Note_on_c, 0, 79, 80
1, 78467, Note_on_c, 0, 79, 0
1, 78480, Note_on_c, 0, 79, 80
1, 78593, Note_on_c, 0, 79, 0
1, 78600, Note_on_c, 0, 79, 80
1, 78713, Note_on_c, 0, 79, 0
1, 78720, Note_on_c, 0, 76, 80
1, 78947, Note_on_c, 0, 76, 0
1, 78960, Note_on_c, 0, 76, 80
1, 79187, Note_on_c, 0, 76, 0
1, 79200, Note_on_c, 0, 74, 80
1, 79427, Note_on_c, 0, 74, 0
1, 79440, Note_on_c, 0, 72, 80
1, 79553, Note_on_c, 0, 72, 0
1, 79560, Note_on_c, 0, 72, 80
1, 79673, Note_on_c, 0, 72, 0
1, 79680, Note_on_c, 0, 76, 80
1, 79907, Note_on_c, 0, 76, 0
1, 79920, Note_on_c, 0, 76, 80
1, 80147, Note_on_c, 0, 76, 0
1, 80160, Note_on_c, 0, 74, 80
1, 80387, Note_on_c, 0, 74, 0
1, 80400, Note_on_c, 0, 72, 80
1, 80627, Note_on_c, 0, 72, 0
1, 80640, Note_on_c, 0, 69, 80
1, 81551, Note_on_c, 0, 69, 0
1, 81600, Note_on_c, 0, 69, 80
1, 81827, Note_on_c, 0, 69, 0
1, 81840, Note_on_c, 0, 69, 80
1, 81953, Note_on_c, 0, 69, 0
1, 81960, Note_on_c, 0, 69, 80
1, 82073, Note_on_c, 0, 69, 0
1, 82080, Note_on_c, 0, 72, 80
1, 82307, Note_on_c, 0, 72, 0
1, 82320, Note_on_c, 0, 74, 80
1, 82547, Note_on_c, 0, 74, 0
1, 82560, Note_on_c, 0, 76, 80
1, 82787, Note_on_c, 0, 76, 0
1, 82800, Note_on_c, 0, 76, 80
1, 82913, Note_on_c, 0, 76, 0
1, 82920, Note_on_c, 0, 76, 80
1, 83033, Note_on_c, 0, 76, 0
1, 83040, Note_on_c, 0, 74, 80
1, 83267, Note_on_c, 0, 74, 0
1, 83280, Note_on_c, 0, 72, 80
1, 83507, Note_on_c, 0, 72, 0
1, 83520, Note_on_c, 0, 69, 80
1, 83747, Note_on_c, 0, 69, 0
1, 83760, Note_on_c, 0, 69, 80
1, 83873, Note_on_c, 0, 69, 0
1, 83880, Note_on_c, 0, 69, 80
1, 83993, Note_on_c, 0, 69, 0
1, 84000, Note_on_c, 0, 72, 80
1, 84227, Note_on_c, 0, 72, 0
1, 84240, Note_on_c, 0, 74, 80
1, 84467, Note_on_c, 0, 74, 0
1, 84480, Note_on_c, 0, 76, 80
1, 85163, Note_on_c, 0, 76, 0
1, 85200, Note_on_c, 0, 72, 80
1, 85313, Note_on_c, 0, 72, 0
1, 85320, Note_on_c, 0, 72, 80
1, 85433, Note_on_c, 0, 72, 0
1, 85440, Note_on_c, 0, 81, 80
1, 85667, Note_on_c, 0, 81, 0
1, 85680, Note_on_c, 0, 81, 80
1, 85907, Note_on_c, 0, 81, 0
1, 85920, Note_on_c, 0, 79, 80
1, 86147, Note_on_c, 0, 79, 0
1, 86160, Note_on_c, 0, 79, 80
1, 86273, Note_on_c, 0, 79, 0
1, 86280, Note_on_c, 0, 79, 80
1, 86393, Note_on_c, 0, 79, 0
1, 86400, Note_on_c, 0, 76, 80
1, 86627, Note_on_c, 0, 76, 0
1, 86640, Note_on_c, 0, 76, 80
1, 86867, Note_on_c, 0, 76, 0
1, 86880, Note_on_c, 0, 74, 80
1, 87107, Note_on_c, 0, 74, 0
1, 87120, Note_on_c, 0, 72, 80
1, 87233, Note_on_c, 0, 72, 0
1, 87240, Note_on_c, 0, 72, 80
1, 87353, Note_on_c, 0, 72, 0
1, 87360, Note_on_c, 0, 76, 80
1, 87587, Note_on_c, 0, 76, 0
1, 87600, Note_on_c, 0, 76, 80
1, 87827, Note_on_c, 0, 76, 0
1, 87840, Note_on_c, 0, 74, 80
1, 88067, Note_on_c, 0, 74, 0
1, 88080, Note_on_c, 0, 72, 80
1, 88307, Note_on_c, 0, 72, 0
1, 88320, Note_on_c, 0, 69, 80
1, 89003, Note_on_c, 0, 69, 0
1, 89040, Note_on_c, 0, 76, 80
1, 89267, Note_on_c, 0, 76, 0
1, 89280, Time_signature, 2, 2, 24, 8
1, 89280, Note_on_c, 0, 76, 80
1, 89507, Note_on_c, 0, 76, 0
1, 89520, Note_on_c, 0, 76, 80
1, 89747, Note_on_c, 0, 76, 0
1, 89760, Note_on_c, 0, 74, 80
1, 89987, Note_on_c, 0, 74, 0
1, 90000, Note_on_c, 0, 72, 80
1, 90227, Note_on_c, 0, 72, 0
1, 90240, Time_signature, 4, 2, 24, 8
1, 90240, Note_on_c, 0, 69, 80
1, 90695, Note_on_c, 0, 69, 0
1, 92160, Tempo, 845070
1, 92160, Note_on_c, 0, 57, 80
1, 92615, Note_on_c, 0, 57, 0
1, 92640, Note_on_c, 0, 60, 80
1, 92867, Note_on_c, 0, 60, 0
1, 92880, Note_on_c, 0, 62, 80
1, 93107, Note_on_c, 0, 62, 0
1, 93120, Note_on_c, 0, 64, 80
1, 93575, Note_on_c, 0, 64, 0
1, 93600, Note_on_c, 0, 62, 80
1, 93827, Note_on_c, 0, 62, 0
1, 93840, Note_on_c, 0, 60, 80
1, 94067, Note_on_c, 0, 60, 0
1, 94080, Note_on_c, 0, 57, 80
1, 94535, Note_on_c, 0, 57, 0
1, 94560, Note_on_c, 0, 60, 80
1, 94787, Note_on_c, 0, 60, 0
1, 94800, Note_on_c, 0, 62, 80
1, 95027, Note_on_c, 0, 62, 0
1, 95040, Note_on_c, 0, 64, 80
1, 95495, Note_on_c, 0, 64, 0
1, 95760, Note_on_c, 0, 60, 80
1, 95873, Note_on_c, 0, 60, 0
1, 95880, Note_on_c, 0, 60, 80
1, 95993, Note_on_c, 0, 60, 0
1, 96000, Note_on_c, 0, 69, 80
1, 96227, Note_on_c, 0, 69, 0
1, 96240, Note_on_c, 0, 69, 80
1, 96467, Note_on_c, 0, 69, 0
1, 96480, Note_on_c, 0, 67, 80
1, 96707, Note_on_c, 0, 67, 0
1, 96720, Note_on_c, 0, 67, 80
1, 96833, Note_on_c, 0, 67, 0
1, 96840, Note_on_c, 0, 67, 80
1, 96953, Note_on_c, 0, 67, 0
1, 96960, Note_on_c, 0, 64, 80
1, 97187, Note_on_c, 0, 64, 0
1, 97200, Note_on_c, 0, 64, 80
1, 97427, Note_on_c, 0, 64, 0
1, 97440, Note_on_c, 0, 62, 80
1, 97667, Note_on_c, 0, 62, 0
1, 97680, Note_on_c, 0, 60, 80
1, 97793, Note_on_c, 0, 60, 0
1, 97800, Note_on_c, 0, 60, 80
1, 97913, Note_on_c, 0, 60, 0
1, 97920, Note_on_c, 0, 64, 80
1, 98147, Note_on_c, 0, 64, 0
1, 98160, Note_on_c, 0, 64, 80
1, 98387, Note_on_c, 0, 64, 0
1, 98400, Note_on_c, 0, 62, 80
1, 98627, Note_on_c, 0, 62, 0
1, 98640, Note_on_c, 0, 60, 80
1, 98867, Note_on_c, 0, 60, 0
1, 98880, Note_on_c, 0, 57, 80
1, 99791, Note_on_c, 0, 57, 0
1, 99840, Note_on_c, 0, 64, 80
1, 100295, Note_on_c, 0, 64, 0
1, 100320, Note_on_c, 0, 62, 80
1, 100547, Note_on_c, 0, 62, 0
1, 100560, Note_on_c, 0, 60, 80
1, 100787, Note_on_c, 0, 60, 0
1, 100800, Note_on_c, 0, 57, 80
1, 100830, Note_on_c, 0, 69, 80
1, 101255, Note_on_c, 0, 57, 0
1, 101256, Note_on_c, 0, 69, 0
1, 101257, End_track
2, 0, Start_track
2, 0, Title_t, "Piano, Piano, Piano\000"
2, 0, Key_signature, 0, "major"
2, 0, MIDI_port, 0
2, 19200, Note_on_c, 0, 57, 80
2, 19200, Note_on_c, 0, 60, 80
2, 20111, Note_on_c, 0, 57, 0
2, 20111, Note_on_c, 0, 60, 0
2, 20160, Note_on_c, 0, 57, 80
2, 20160, Note_on_c, 0, 60, 80
2, 21071, Note_on_c, 0, 57, 0
2, 21071, Note_on_c, 0, 60, 0
2, 21120, Note_on_c, 0, 57, 80
2, 21120, Note_on_c, 0, 60, 80
2, 22031, Note_on_c, 0, 57, 0
2, 22031, Note_on_c, 0, 60, 0
2, 22080, Note_on_c, 0, 55, 80
2, 22080, Note_on_c, 0, 60, 80
2, 22991, Note_on_c, 0, 55, 0
2, 22991, Note_on_c, 0, 60, 0
2, 23040, Note_on_c, 0, 57, 80
2, 23040, Note_on_c, 0, 60, 80
2, 23951, Note_on_c, 0, 57, 0
2, 23951, Note_on_c, 0, 60, 0
2, 24000, Note_on_c, 0, 57, 80
2, 24000, Note_on_c, 0, 60, 80
2, 24911, Note_on_c, 0, 57, 0
2, 24911, Note_on_c, 0, 60, 0
2, 24960, Note_on_c, 0, 55, 80
2, 24960, Note_on_c, 0, 60, 80
2, 25871, Note_on_c, 0, 55, 0
2, 25871, Note_on_c, 0, 60, 0
2, 25920, Note_on_c, 0, 55, 80
2, 25920, Note_on_c, 0, 60, 80
2, 26831, Note_on_c, 0, 55, 0
2, 26831, Note_on_c, 0, 60, 0
2, 26880, Note_on_c, 0, 57, 80
2, 26880, Note_on_c, 0, 60, 80
2, 27335, Note_on_c, 0, 57, 0
2, 27335, Note_on_c, 0, 60, 0
2, 27360, Note_on_c, 0, 57, 80
2, 27360, Note_on_c, 0, 60, 80
2, 27815, Note_on_c, 0, 57, 0
2, 27815, Note_on_c, 0, 60, 0
2, 27840, Note_on_c, 0, 57, 80
2, 27840, Note_on_c, 0, 60, 80
2, 28295, Note_on_c, 0, 57, 0
2, 28295, Note_on_c, 0, 60, 0
2, 28320, Note_on_c, 0, 57, 80
2, 28320, Note_on_c, 0, 60, 80
2, 28775, Note_on_c, 0, 57, 0
2, 28775, Note_on_c, 0, 60, 0
2, 28800, Note_on_c, 0, 57, 80
2, 28800, Note_on_c, 0, 60, 80
2, 29255, Note_on_c, 0, 57, 0
2, 29255, Note_on_c, 0, 60, 0
2, 29280, Note_on_c, 0, 57, 80
2, 29280, Note_on_c, 0, 60, 80
2, 29735, Note_on_c, 0, 57, 0
2, 29735, Note_on_c, 0, 60, 0
2, 29760, Note_on_c, 0, 55, 80
2, 29760, Note_on_c, 0, 60, 80
2, 30215, Note_on_c, 0, 55, 0
2, 30215, Note_on_c, 0, 60, 0
2, 30240, Note_on_c, 0, 55, 80
2, 30240, Note_on_c, 0, 60, 80
2, 30695, Note_on_c, 0, 55, 0
2, 30695, Note_on_c, 0, 60, 0
2, 30720, Note_on_c, 0, 57, 80
2, 30720, Note_on_c, 0, 60, 80
2, 31175, Note_on_c, 0, 57, 0
2, 31175, Note_on_c, 0, 60, 0
2, 31200, Note_on_c, 0, 57, 80
2, 31200, Note_on_c, 0, 60, 80
2, 31655, Note_on_c, 0, 57, 0
2, 31655, Note_on_c, 0, 60, 0
2, 31680, Note_on_c, 0, 55, 80
2, 31680, Note_on_c, 0, 60, 80
2, 32135, Note_on_c, 0, 55, 0
2, 32135, Note_on_c, 0, 60, 0
2, 32160, Note_on_c, 0, 55, 80
2, 32160, Note_on_c, 0, 60, 80
2, 32615, Note_on_c, 0, 55, 0
2, 32615, Note_on_c, 0, 60, 0
2, 32640, Note_on_c, 0, 57, 80
2, 32640, Note_on_c, 0, 60, 80
2, 33095, Note_on_c, 0, 57, 0
2, 33095, Note_on_c, 0, 60, 0
2, 33120, Note_on_c, 0, 57, 80
2, 33120, Note_on_c, 0, 60, 80
2, 33575, Note_on_c, 0, 57, 0
2, 33575, Note_on_c, 0, 60, 0
2, 33600, Note_on_c, 0, 55, 80
2, 33600, Note_on_c, 0, 60, 80
2, 34511, Note_on_c, 0, 55, 0
2, 34511, Note_on_c, 0, 60, 0
2, 42240, Note_on_c, 0, 57, 80
2, 42467, Note_on_c, 0, 57, 0
2, 42480, Note_on_c, 0, 57, 80
2, 42593, Note_on_c, 0, 57, 0
2, 42600, Note_on_c, 0, 57, 80
2, 42713, Note_on_c, 0, 57, 0
2, 42720, Note_on_c, 0, 60, 80
2, 42947, Note_on_c, 0, 60, 0
2, 42960, Note_on_c, 0, 62, 80
2, 43187, Note_on_c, 0, 62, 0
2, 43200, Note_on_c, 0, 64, 80
2, 43427, Note_on_c, 0, 64, 0
2, 43440, Note_on_c, 0, 64, 80
2, 43553, Note_on_c, 0, 64, 0
2, 43560, Note_on_c, 0, 64, 80
2, 43673, Note_on_c, 0, 64, 0
2, 43680, Note_on_c, 0, 62, 80
2, 43907, Note_on_c, 0, 62, 0
2, 43920, Note_on_c, 0, 60, 80
2, 44147, Note_on_c, 0, 60, 0
2, 44160, Note_on_c, 0, 57, 80
2, 44387, Note_on_c, 0, 57, 0
2, 44400, Note_on_c, 0, 57, 80
2, 44513, Note_on_c, 0, 57, 0
2, 44520, Note_on_c, 0, 57, 80
2, 44633, Note_on_c, 0, 57, 0
2, 44640, Note_on_c, 0, 60, 80
2, 44867, Note_on_c, 0, 60, 0
2, 44880, Note_on_c, 0, 62, 80
2, 45107, Note_on_c, 0, 62, 0
2, 45120, Note_on_c, 0, 64, 80
2, 45803, Note_on_c, 0, 64, 0
2, 45840, Note_on_c, 0, 60, 80
2, 45953, Note_on_c, 0, 60, 0
2, 45960, Note_on_c, 0, 60, 80
2, 46073, Note_on_c, 0, 60, 0
2, 46080, Note_on_c, 0, 69, 80
2, 46307, Note_on_c, 0, 69, 0
2, 46320, Note_on_c, 0, 69, 80
2, 46547, Note_on_c, 0, 69, 0
2, 46560, Note_on_c, 0, 67, 80
2, 46787, Note_on_c, 0, 67, 0
2, 46800, Note_on_c, 0, 67, 80
2, 46913, Note_on_c, 0, 67, 0
2, 46920, Note_on_c, 0, 67, 80
2, 47033, Note_on_c, 0, 67, 0
2, 47040, Note_on_c, 0, 64, 80
2, 47267, Note_on_c, 0, 64, 0
2, 47280, Note_on_c, 0, 64, 80
2, 47507, Note_on_c, 0, 64, 0
2, 47520, Note_on_c, 0, 62, 80
2, 47747, Note_on_c, 0, 62, 0
2, 47760, Note_on_c, 0, 60, 80
2, 47873, Note_on_c, 0, 60, 0
2, 47880, Note_on_c, 0, 60, 80
2, 47993, Note_on_c, 0, 60, 0
2, 48000, Note_on_c, 0, 64, 80
2, 48227, Note_on_c, 0, 64, 0
2, 48240, Note_on_c, 0, 64, 80
2, 48467, Note_on_c, 0, 64, 0
2, 48480, Note_on_c, 0, 62, 80
2, 48707, Note_on_c, 0, 62, 0
2, 48720, Note_on_c, 0, 60, 80
2, 48947, Note_on_c, 0, 60, 0
2, 48960, Note_on_c, 0, 57, 80
2, 49643, Note_on_c, 0, 57, 0
2, 49680, Note_on_c, 0, 64, 80
2, 49907, Note_on_c, 0, 64, 0
2, 49920, Note_on_c, 0, 64, 80
2, 50375, Note_on_c, 0, 64, 0
2, 50400, Note_on_c, 0, 62, 80
2, 50855, Note_on_c, 0, 62, 0
2, 50880, Note_on_c, 0, 57, 80
2, 51335, Note_on_c, 0, 57, 0
2, 51360, Note_on_c, 0, 60, 80
2, 51587, Note_on_c, 0, 60, 0
2, 51600, Note_on_c, 0, 62, 80
2, 51827, Note_on_c, 0, 62, 0
2, 51840, Note_on_c, 0, 64, 80
2, 52295, Note_on_c, 0, 64, 0
2, 52320, Note_on_c, 0, 62, 80
2, 52547, Note_on_c, 0, 62, 0
2, 52560, Note_on_c, 0, 60, 80
2, 52787, Note_on_c, 0, 60, 0
2, 52800, Note_on_c, 0, 57, 80
2, 53255, Note_on_c, 0, 57, 0
2, 53280, Note_on_c, 0, 60, 80
2, 53507, Note_on_c, 0, 60, 0
2, 53520, Note_on_c, 0, 62, 80
2, 53747, Note_on_c, 0, 62, 0
2, 53760, Note_on_c, 0, 64, 80
2, 54671, Note_on_c, 0, 64, 0
2, 54720, Note_on_c, 0, 69, 80
2, 55175, Note_on_c, 0, 69, 0
2, 55200, Note_on_c, 0, 67, 80
2, 55655, Note_on_c, 0, 67, 0
2, 55680, Note_on_c, 0, 64, 80
2, 56135, Note_on_c, 0, 64, 0
2, 56160, Note_on_c, 0, 62, 80
2, 56387, Note_on_c, 0, 62, 0
2, 56400, Note_on_c, 0, 60, 80
2, 56627, Note_on_c, 0, 60, 0
2, 56640, Note_on_c, 0, 64, 80
2, 57095, Note_on_c, 0, 64, 0
2, 57120, Note_on_c, 0, 62, 80
2, 57347, Note_on_c, 0, 62, 0
2, 57360, Note_on_c, 0, 60, 80
2, 57587, Note_on_c, 0, 60, 0
2, 57600, Note_on_c, 0, 57, 80
2, 58055, Note_on_c, 0, 57, 0
2, 58560, Note_on_c, 0, 57, 80
2, 58560, Note_on_c, 0, 60, 80
2, 59015, Note_on_c, 0, 57, 0
2, 59015, Note_on_c, 0, 60, 0
2, 59040, Note_on_c, 0, 57, 80
2, 59040, Note_on_c, 0, 60, 80
2, 59495, Note_on_c, 0, 57, 0
2, 59495, Note_on_c, 0, 60, 0
2, 59520, Note_on_c, 0, 57, 80
2, 59520, Note_on_c, 0, 60, 80
2, 59975, Note_on_c, 0, 57, 0
2, 59975, Note_on_c, 0, 60, 0
2, 60000, Note_on_c, 0, 57, 80
2, 60000, Note_on_c, 0, 60, 80
2, 60455, Note_on_c, 0, 57, 0
2, 60455, Note_on_c, 0, 60, 0
2, 60480, Note_on_c, 0, 57, 80
2, 60480, Note_on_c, 0, 60, 80
2, 60935, Note_on_c, 0, 57, 0
2, 60935, Note_on_c, 0, 60, 0
2, 60960, Note_on_c, 0, 57, 80
2, 60960, Note_on_c, 0, 60, 80
2, 61415, Note_on_c, 0, 57, 0
2, 61415, Note_on_c, 0, 60, 0
2, 61440, Note_on_c, 0, 55, 80
2, 61440, Note_on_c, 0, 60, 80
2, 61895, Note_on_c, 0, 55, 0
2, 61895, Note_on_c, 0, 60, 0
2, 61920, Note_on_c, 0, 55, 80
2, 61920, Note_on_c, 0, 60, 80
2, 62375, Note_on_c, 0, 55, 0
2, 62375, Note_on_c, 0, 60, 0
2, 62400, Note_on_c, 0, 57, 80
2, 62400, Note_on_c, 0, 60, 80
2, 62855, Note_on_c, 0, 57, 0
2, 62855, Note_on_c, 0, 60, 0
2, 62880, Note_on_c, 0, 57, 80
2, 62880, Note_on_c, 0, 60, 80
2, 63335, Note_on_c, 0, 57, 0
2, 63335, Note_on_c, 0, 60, 0
2, 63360, Note_on_c, 0, 57, 80
2, 63360, Note_on_c, 0, 60, 80
2, 63815, Note_on_c, 0, 57, 0
2, 63815, Note_on_c, 0, 60, 0
2, 63840, Note_on_c, 0, 57, 80
2, 63840, Note_on_c, 0, 60, 80
2, 64295, Note_on_c, 0, 57, 0
2, 64295, Note_on_c, 0, 60, 0
2, 64320, Note_on_c, 0, 55, 80
2, 64320, Note_on_c, 0, 60, 80
2, 64775, Note_on_c, 0, 55, 0
2, 64775, Note_on_c, 0, 60, 0
2, 64800, Note_on_c, 0, 55, 80
2, 64800, Note_on_c, 0, 60, 80
2, 65255, Note_on_c, 0, 55, 0
2, 65255, Note_on_c, 0, 60, 0
2, 65280, Note_on_c, 0, 55, 80
2, 65280, Note_on_c, 0, 60, 80
2, 65735, Note_on_c, 0, 55, 0
2, 65735, Note_on_c, 0, 60, 0
2, 65760, Note_on_c, 0, 55, 80
2, 65760, Note_on_c, 0, 60, 80
2, 66215, Note_on_c, 0, 55, 0
2, 66215, Note_on_c, 0, 60, 0
2, 66240, Note_on_c, 0, 57, 80
2, 66240, Note_on_c, 0, 60, 80
2, 66695, Note_on_c, 0, 57, 0
2, 66695, Note_on_c, 0, 60, 0
2, 66720, Note_on_c, 0, 57, 80
2, 66720, Note_on_c, 0, 60, 80
2, 67175, Note_on_c, 0, 57, 0
2, 67175, Note_on_c, 0, 60, 0
2, 67200, Note_on_c, 0, 57, 80
2, 67200, Note_on_c, 0, 60, 80
2, 67655, Note_on_c, 0, 57, 0
2, 67655, Note_on_c, 0, 60, 0
2, 67680, Note_on_c, 0, 57, 80
2, 67680, Note_on_c, 0, 60, 80
2, 68135, Note_on_c, 0, 57, 0
2, 68135, Note_on_c, 0, 60, 0
2, 68160, Note_on_c, 0, 57, 80
2, 68160, Note_on_c, 0, 60, 80
2, 68615, Note_on_c, 0, 57, 0
2, 68615, Note_on_c, 0, 60, 0
2, 68640, Note_on_c, 0, 57, 80
2, 68640, Note_on_c, 0, 60, 80
2, 69095, Note_on_c, 0, 57, 0
2, 69095, Note_on_c, 0, 60, 0
2, 69120, Note_on_c, 0, 55, 80
2, 69120, Note_on_c, 0, 60, 80
2, 69575, Note_on_c, 0, 55, 0
2, 69575, Note_on_c, 0, 60, 0
2, 69600, Note_on_c, 0, 55, 80
2, 69600, Note_on_c, 0, 60, 80
2, 70055, Note_on_c, 0, 55, 0
2, 70055, Note_on_c, 0, 60, 0
2, 70080, Note_on_c, 0, 57, 80
2, 70080, Note_on_c, 0, 60, 80
2, 70535, Note_on_c, 0, 57, 0
2, 70535, Note_on_c, 0, 60, 0
2, 70560, Note_on_c, 0, 57, 80
2, 70560, Note_on_c, 0, 60, 80
2, 71015, Note_on_c, 0, 57, 0
2, 71015, Note_on_c, 0, 60, 0
2, 71040, Note_on_c, 0, 55, 80
2, 71040, Note_on_c, 0, 60, 80
2, 71495, Note_on_c, 0, 55, 0
2, 71495, Note_on_c, 0, 60, 0
2, 71520, Note_on_c, 0, 55, 80
2, 71520, Note_on_c, 0, 60, 80
2, 71975, Note_on_c, 0, 55, 0
2, 71975, Note_on_c, 0, 60, 0
2, 72000, Note_on_c, 0, 57, 80
2, 72000, Note_on_c, 0, 60, 80
2, 72455, Note_on_c, 0, 57, 0
2, 72455, Note_on_c, 0, 60, 0
2, 72480, Note_on_c, 0, 57, 80
2, 72480, Note_on_c, 0, 60, 80
2, 72935, Note_on_c, 0, 57, 0
2, 72935, Note_on_c, 0, 60, 0
2, 72960, Note_on_c, 0, 55, 80
2, 72960, Note_on_c, 0, 60, 80
2, 73871, Note_on_c, 0, 55, 0
2, 73871, Note_on_c, 0, 60, 0
2, 73872, End_track
3, 0, Start_track
3, 0, Title_t, "6-str. Electric Bass, Bass\000"
3, 0, Key_signature, 0, "major"
3, 0, Control_c, 2, 121, 0
3, 0, Program_c, 2, 33
3, 0, Control_c, 2, 7, 100
3, 0, Control_c, 2, 10, 64
3, 0, Control_c, 2, 91, 0
3, 0, Control_c, 2, 93, 0
3, 0, MIDI_port, 0
3, 0, Control_c, 3, 121, 0
3, 0, Program_c, 3, 36
3, 0, Control_c, 3, 7, 100
3, 0, Control_c, 3, 10, 64
3, 0, Control_c, 3, 91, 0
3, 0, Control_c, 3, 93, 0
3, 0, MIDI_port, 0
3, 0, Control_c, 4, 121, 0
3, 0, Program_c, 4, 37
3, 0, Control_c, 4, 7, 100
3, 0, Control_c, 4, 10, 64
3, 0, Control_c, 4, 91, 0
3, 0, Control_c, 4, 93, 0
3, 0, MIDI_port, 0
3, 3840, Note_on_c, 2, 57, 80
3, 4799, Note_on_c, 2, 57, 0
3, 4800, Note_on_c, 2, 52, 80
3, 5759, Note_on_c, 2, 52, 0
3, 5760, Note_on_c, 2, 57, 80
3, 6719, Note_on_c, 2, 57, 0
3, 6720, Note_on_c, 2, 60, 80
3, 7679, Note_on_c, 2, 60, 0
3, 7680, Note_on_c, 2, 65, 80
3, 8639, Note_on_c, 2, 65, 0
3, 8640, Note_on_c, 2, 62, 80
3, 9599, Note_on_c, 2, 62, 0
3, 9600, Note_on_c, 2, 53, 80
3, 10559, Note_on_c, 2, 53, 0
3, 10560, Note_on_c, 2, 57, 80
3, 11519, Note_on_c, 2, 57, 0
3, 11520, Note_on_c, 2, 57, 80
3, 12479, Note_on_c, 2, 57, 0
3, 12480, Note_on_c, 2, 52, 80
3, 13439, Note_on_c, 2, 52, 0
3, 13440, Note_on_c, 2, 57, 80
3, 14399, Note_on_c, 2, 57, 0
3, 14400, Note_on_c, 2, 60, 80
3, 15359, Note_on_c, 2, 60, 0
3, 15360, Note_on_c, 2, 65, 80
3, 16319, Note_on_c, 2, 65, 0
3, 16320, Note_on_c, 2, 62, 80
3, 17279, Note_on_c, 2, 62, 0
3, 17280, Note_on_c, 2, 53, 80
3, 18239, Note_on_c, 2, 53, 0
3, 18240, Note_on_c, 2, 57, 80
3, 18719, Note_on_c, 2, 57, 0
3, 18720, Note_on_c, 2, 57, 80
3, 19199, Note_on_c, 2, 57, 0
3, 19200, Note_on_c, 2, 57, 80
3, 19679, Note_on_c, 2, 57, 0
3, 19680, Note_on_c, 2, 57, 80
3, 20159, Note_on_c, 2, 57, 0
3, 20160, Note_on_c, 2, 50, 80
3, 20639, Note_on_c, 2, 50, 0
3, 20640, Note_on_c, 2, 50, 80
3, 21119, Note_on_c, 2, 50, 0
3, 21120, Note_on_c, 2, 53, 80
3, 21599, Note_on_c, 2, 53, 0
3, 21600, Note_on_c, 2, 53, 80
3, 22079, Note_on_c, 2, 53, 0
3, 22080, Note_on_c, 2, 60, 80
3, 22559, Note_on_c, 2, 60, 0
3, 22560, Note_on_c, 2, 60, 80
3, 23039, Note_on_c, 2, 60, 0
3, 23040, Note_on_c, 2, 57, 80
3, 23519, Note_on_c, 2, 57, 0
3, 23520, Note_on_c, 2, 57, 80
3, 23999, Note_on_c, 2, 57, 0
3, 24000, Note_on_c, 2, 53, 80
3, 24479, Note_on_c, 2, 53, 0
3, 24480, Note_on_c, 2, 53, 80
3, 24959, Note_on_c, 2, 53, 0
3, 24960, Note_on_c, 2, 60, 80
3, 25439, Note_on_c, 2, 60, 0
3, 25440, Note_on_c, 2, 60, 80
3, 25919, Note_on_c, 2, 60, 0
3, 25920, Note_on_c, 2, 60, 80
3, 26399, Note_on_c, 2, 60, 0
3, 26400, Note_on_c, 2, 60, 80
3, 26879, Note_on_c, 2, 60, 0
3, 26880, Note_on_c, 2, 57, 80
3, 27359, Note_on_c, 2, 57, 0
3, 27360, Note_on_c, 2, 57, 80
3, 27839, Note_on_c, 2, 57, 0
3, 27840, Note_on_c, 2, 50, 80
3, 28319, Note_on_c, 2, 50, 0
3, 28320, Note_on_c, 2, 50, 80
3, 28799, Note_on_c, 2, 50, 0
3, 28800, Note_on_c, 2, 53, 80
3, 29279, Note_on_c, 2, 53, 0
3, 29280, Note_on_c, 2, 53, 80
3, 29759, Note_on_c, 2, 53, 0
3, 29760, Note_on_c, 2, 60, 80
3, 30239, Note_on_c, 2, 60, 0
3, 30240, Note_on_c, 2, 60, 80
3, 30719, Note_on_c, 2, 60, 0
3, 30720, Note_on_c, 2, 57, 80
3, 31199, Note_on_c, 2, 57, 0
3, 31200, Note_on_c, 2, 57, 80
3, 31679, Note_on_c, 2, 57, 0
3, 31680, Note_on_c, 2, 60, 80
3, 32159, Note_on_c, 2, 60, 0
3, 32160, Note_on_c, 2, 60, 80
3, 32639, Note_on_c, 2, 60, 0
3, 32640, Note_on_c, 2, 53, 80
3, 33119, Note_on_c, 2, 53, 0
3, 33120, Note_on_c, 2, 53, 80
3, 33599, Note_on_c, 2, 53, 0
3, 33600, Note_on_c, 2, 52, 80
3, 34079, Note_on_c, 2, 52, 0
3, 34560, Note_on_c, 2, 57, 80
3, 34919, Note_on_c, 2, 57, 0
3, 34920, Note_on_c, 2, 69, 80
3, 35039, Note_on_c, 2, 69, 0
3, 35040, Note_on_c, 2, 57, 80
3, 35279, Note_on_c, 2, 57, 0
3, 35280, Note_on_c, 2, 69, 80
3, 35519, Note_on_c, 2, 69, 0
3, 35520, Note_on_c, 2, 52, 80
3, 35879, Note_on_c, 2, 52, 0
3, 35880, Note_on_c, 2, 64, 80
3, 35999, Note_on_c, 2, 64, 0
3, 36000, Note_on_c, 2, 52, 80
3, 36239, Note_on_c, 2, 52, 0
3, 36240, Note_on_c, 2, 64, 80
3, 36479, Note_on_c, 2, 64, 0
3, 36480, Note_on_c, 2, 57, 80
3, 36839, Note_on_c, 2, 57, 0
3, 36840, Note_on_c, 2, 69, 80
3, 36959, Note_on_c, 2, 69, 0
3, 36960, Note_on_c, 2, 53, 80
3, 37199, Note_on_c, 2, 53, 0
3, 37200, Note_on_c, 2, 65, 80
3, 37439, Note_on_c, 2, 65, 0
3, 37440, Note_on_c, 2, 48, 80
3, 37799, Note_on_c, 2, 48, 0
3, 37800, Note_on_c, 2, 60, 80
3, 37919, Note_on_c, 2, 60, 0
3, 37920, Note_on_c, 2, 48, 80
3, 38159, Note_on_c, 2, 48, 0
3, 38160, Note_on_c, 2, 60, 80
3, 38399, Note_on_c, 2, 60, 0
3, 38400, Note_on_c, 2, 53, 80
3, 38759, Note_on_c, 2, 53, 0
3, 38760, Note_on_c, 2, 65, 80
3, 38879, Note_on_c, 2, 65, 0
3, 38880, Note_on_c, 2, 53, 80
3, 39119, Note_on_c, 2, 53, 0
3, 39120, Note_on_c, 2, 65, 80
3, 39359, Note_on_c, 2, 65, 0
3, 39360, Note_on_c, 2, 52, 80
3, 39719, Note_on_c, 2, 52, 0
3, 39720, Note_on_c, 2, 64, 80
3, 39839, Note_on_c, 2, 64, 0
3, 39840, Note_on_c, 2, 52, 80
3, 40079, Note_on_c, 2, 52, 0
3, 40080, Note_on_c, 2, 64, 80
3, 40319, Note_on_c, 2, 64, 0
3, 40320, Note_on_c, 2, 53, 80
3, 40679, Note_on_c, 2, 53, 0
3, 40680, Note_on_c, 2, 65, 80
3, 40799, Note_on_c, 2, 65, 0
3, 40800, Note_on_c, 2, 55, 80
3, 41039, Note_on_c, 2, 55, 0
3, 41040, Note_on_c, 2, 67, 80
3, 41279, Note_on_c, 2, 67, 0
3, 41280, Note_on_c, 2, 57, 80
3, 41639, Note_on_c, 2, 57, 0
3, 41640, Note_on_c, 2, 69, 80
3, 41759, Note_on_c, 2, 69, 0
3, 41760, Note_on_c, 2, 57, 80
3, 41999, Note_on_c, 2, 57, 0
3, 42000, Note_on_c, 2, 69, 80
3, 42239, Note_on_c, 2, 69, 0
3, 42240, Note_on_c, 2, 57, 80
3, 42599, Note_on_c, 2, 57, 0
3, 42600, Note_on_c, 2, 69, 80
3, 42719, Note_on_c, 2, 69, 0
3, 42720, Note_on_c, 2, 57, 80
3, 42959, Note_on_c, 2, 57, 0
3, 42960, Note_on_c, 2, 69, 80
3, 43199, Note_on_c, 2, 69, 0
3, 43200, Note_on_c, 2, 52, 80
3, 43559, Note_on_c, 2, 52, 0
3, 43560, Note_on_c, 2, 64, 80
3, 43679, Note_on_c, 2, 64, 0
3, 43680, Note_on_c, 2, 52, 80
3, 43919, Note_on_c, 2, 52, 0
3, 43920, Note_on_c, 2, 64, 80
3, 44159, Note_on_c, 2, 64, 0
3, 44160, Note_on_c, 2, 57, 80
3, 44519, Note_on_c, 2, 57, 0
3, 44520, Note_on_c, 2, 69, 80
3, 44639, Note_on_c, 2, 69, 0
3, 44640, Note_on_c, 2, 53, 80
3, 44879, Note_on_c, 2, 53, 0
3, 44880, Note_on_c, 2, 65, 80
3, 45119, Note_on_c, 2, 65, 0
3, 45120, Note_on_c, 2, 48, 80
3, 45479, Note_on_c, 2, 48, 0
3, 45480, Note_on_c, 2, 60, 80
3, 45599, Note_on_c, 2, 60, 0
3, 45600, Note_on_c, 2, 48, 80
3, 45839, Note_on_c, 2, 48, 0
3, 45840, Note_on_c, 2, 60, 80
3, 46079, Note_on_c, 2, 60, 0
3, 46080, Note_on_c, 2, 53, 80
3, 46439, Note_on_c, 2, 53, 0
3, 46440, Note_on_c, 2, 65, 80
3, 46559, Note_on_c, 2, 65, 0
3, 46560, Note_on_c, 2, 53, 80
3, 46799, Note_on_c, 2, 53, 0
3, 46800, Note_on_c, 2, 65, 80
3, 47039, Note_on_c, 2, 65, 0
3, 47040, Note_on_c, 2, 52, 80
3, 47399, Note_on_c, 2, 52, 0
3, 47400, Note_on_c, 2, 64, 80
3, 47519, Note_on_c, 2, 64, 0
3, 47520, Note_on_c, 2, 52, 80
3, 47759, Note_on_c, 2, 52, 0
3, 47760, Note_on_c, 2, 64, 80
3, 47999, Note_on_c, 2, 64, 0
3, 48000, Note_on_c, 2, 53, 80
3, 48359, Note_on_c, 2, 53, 0
3, 48360, Note_on_c, 2, 65, 80
3, 48479, Note_on_c, 2, 65, 0
3, 48480, Note_on_c, 2, 55, 80
3, 48719, Note_on_c, 2, 55, 0
3, 48720, Note_on_c, 2, 67, 80
3, 48959, Note_on_c, 2, 67, 0
3, 48960, Note_on_c, 2, 57, 80
3, 49919, Note_on_c, 2, 57, 0
3, 49920, Note_on_c, 2, 53, 80
3, 50879, Note_on_c, 2, 53, 0
3, 50880, Note_on_c, 2, 57, 80
3, 51239, Note_on_c, 2, 57, 0
3, 51240, Note_on_c, 2, 69, 80
3, 51359, Note_on_c, 2, 69, 0
3, 51360, Note_on_c, 2, 57, 80
3, 51599, Note_on_c, 2, 57, 0
3, 51600, Note_on_c, 2, 69, 80
3, 51839, Note_on_c, 2, 69, 0
3, 51840, Note_on_c, 2, 52, 80
3, 52199, Note_on_c, 2, 52, 0
3, 52200, Note_on_c, 2, 64, 80
3, 52319, Note_on_c, 2, 64, 0
3, 52320, Note_on_c, 2, 52, 80
3, 52559, Note_on_c, 2, 52, 0
3, 52560, Note_on_c, 2, 64, 80
3, 52799, Note_on_c, 2, 64, 0
3, 52800, Note_on_c, 2, 57, 80
3, 53159, Note_on_c, 2, 57, 0
3, 53160, Note_on_c, 2, 69, 80
3, 53279, Note_on_c, 2, 69, 0
3, 53280, Note_on_c, 2, 53, 80
3, 53519, Note_on_c, 2, 53, 0
3, 53520, Note_on_c, 2, 65, 80
3, 53759, Note_on_c, 2, 65, 0
3, 53760, Note_on_c, 2, 48, 80
3, 54119, Note_on_c, 2, 48, 0
3, 54120, Note_on_c, 2, 60, 80
3, 54239, Note_on_c, 2, 60, 0
3, 54240, Note_on_c, 2, 48, 80
3, 54479, Note_on_c, 2, 48, 0
3, 54480, Note_on_c, 2, 60, 80
3, 54719, Note_on_c, 2, 60, 0
3, 54720, Note_on_c, 2, 53, 80
3, 55079, Note_on_c, 2, 53, 0
3, 55080, Note_on_c, 2, 65, 80
3, 55199, Note_on_c, 2, 65, 0
3, 55200, Note_on_c, 2, 53, 80
3, 55439, Note_on_c, 2, 53, 0
3, 55440, Note_on_c, 2, 65, 80
3, 55679, Note_on_c, 2, 65, 0
3, 55680, Note_on_c, 2, 52, 80
3, 56039, Note_on_c, 2, 52, 0
3, 56040, Note_on_c, 2, 64, 80
3, 56159, Note_on_c, 2, 64, 0
3, 56160, Note_on_c, 2, 52, 80
3, 56399, Note_on_c, 2, 52, 0
3, 56400, Note_on_c, 2, 64, 80
3, 56639, Note_on_c, 2, 64, 0
3, 56640, Note_on_c, 2, 53, 80
3, 57119, Note_on_c, 2, 53, 0
3, 57120, Note_on_c, 2, 55, 80
3, 57599, Note_on_c, 2, 55, 0
3, 57600, Note_on_c, 2, 57, 80
3, 58079, Note_on_c, 2, 57, 0
3, 58080, Note_on_c, 2, 57, 80
3, 58559, Note_on_c, 2, 57, 0
3, 58560, Note_on_c, 2, 57, 80
3, 59039, Note_on_c, 2, 57, 0
3, 59040, Note_on_c, 2, 57, 80
3, 59519, Note_on_c, 2, 57, 0
3, 59520, Note_on_c, 2, 62, 80
3, 59999, Note_on_c, 2, 62, 0
3, 60000, Note_on_c, 2, 62, 80
3, 60479, Note_on_c, 2, 62, 0
3, 60480, Note_on_c, 2, 53, 80
3, 60959, Note_on_c, 2, 53, 0
3, 60960, Note_on_c, 2, 53, 80
3, 61439, Note_on_c, 2, 53, 0
3, 61440, Note_on_c, 2, 60, 80
3, 61919, Note_on_c, 2, 60, 0
3, 61920, Note_on_c, 2, 60, 80
3, 62399, Note_on_c, 2, 60, 0
3, 62400, Note_on_c, 2, 57, 80
3, 62879, Note_on_c, 2, 57, 0
3, 62880, Note_on_c, 2, 57, 80
3, 63359, Note_on_c, 2, 57, 0
3, 63360, Note_on_c, 2, 53, 80
3, 63839, Note_on_c, 2, 53, 0
3, 63840, Note_on_c, 2, 53, 80
3, 64319, Note_on_c, 2, 53, 0
3, 64320, Note_on_c, 2, 60, 80
3, 64799, Note_on_c, 2, 60, 0
3, 64800, Note_on_c, 2, 60, 80
3, 65279, Note_on_c, 2, 60, 0
3, 65280, Note_on_c, 2, 60, 80
3, 65759, Note_on_c, 2, 60, 0
3, 65760, Note_on_c, 2, 60, 80
3, 66239, Note_on_c, 2, 60, 0
3, 66240, Note_on_c, 2, 57, 80
3, 66719, Note_on_c, 2, 57, 0
3, 66720, Note_on_c, 2, 57, 80
3, 67199, Note_on_c, 2, 57, 0
3, 67200, Note_on_c, 2, 50, 80
3, 67679, Note_on_c, 2, 50, 0
3, 67680, Note_on_c, 2, 50, 80
3, 68159, Note_on_c, 2, 50, 0
3, 68160, Note_on_c, 2, 53, 80
3, 68639, Note_on_c, 2, 53, 0
3, 68640, Note_on_c, 2, 53, 80
3, 69119, Note_on_c, 2, 53, 0
3, 69120, Note_on_c, 2, 48, 80
3, 69599, Note_on_c, 2, 48, 0
3, 69600, Note_on_c, 2, 48, 80
3, 70079, Note_on_c, 2, 48, 0
3, 70080, Note_on_c, 2, 57, 80
3, 70559, Note_on_c, 2, 57, 0
3, 70560, Note_on_c, 2, 57, 80
3, 71039, Note_on_c, 2, 57, 0
3, 71040, Note_on_c, 2, 60, 80
3, 71519, Note_on_c, 2, 60, 0
3, 71520, Note_on_c, 2, 60, 80
3, 71999, Note_on_c, 2, 60, 0
3, 72000, Note_on_c, 2, 53, 80
3, 72479, Note_on_c, 2, 53, 0
3, 72480, Note_on_c, 2, 53, 80
3, 72959, Note_on_c, 2, 53, 0
3, 72960, Note_on_c, 2, 52, 80
3, 73439, Note_on_c, 2, 52, 0
3, 73920, Note_on_c, 2, 57, 80
3, 74399, Note_on_c, 2, 57, 0
3, 74400, Note_on_c, 2, 57, 80
3, 74879, Note_on_c, 2, 57, 0
3, 74880, Note_on_c, 2, 52, 80
3, 75359, Note_on_c, 2, 52, 0
3, 75360, Note_on_c, 2, 52, 80
3, 75839, Note_on_c, 2, 52, 0
3, 75840, Note_on_c, 2, 57, 80
3, 76319, Note_on_c, 2, 57, 0
3, 76320, Note_on_c, 2, 53, 80
3, 76799, Note_on_c, 2, 53, 0
3, 76800, Note_on_c, 2, 60, 80
3, 77279, Note_on_c, 2, 60, 0
3, 77280, Note_on_c, 2, 60, 80
3, 77759, Note_on_c, 2, 60, 0
3, 77760, Note_on_c, 2, 53, 80
3, 78239, Note_on_c, 2, 53, 0
3, 78240, Note_on_c, 2, 53, 80
3, 78719, Note_on_c, 2, 53, 0
3, 78720, Note_on_c, 2, 52, 80
3, 79199, Note_on_c, 2, 52, 0
3, 79200, Note_on_c, 2, 52, 80
3, 79679, Note_on_c, 2, 52, 0
3, 79680, Note_on_c, 2, 53, 80
3, 80159, Note_on_c, 2, 53, 0
3, 80160, Note_on_c, 2, 55, 80
3, 80639, Note_on_c, 2, 55, 0
3, 80640, Note_on_c, 2, 57, 80
3, 81119, Note_on_c, 2, 57, 0
3, 81120, Note_on_c, 2, 57, 80
3, 81599, Note_on_c, 2, 57, 0
3, 81600, Note_on_c, 2, 57, 80
3, 82559, Note_on_c, 2, 57, 0
3, 82560, Note_on_c, 2, 64, 80
3, 83519, Note_on_c, 2, 64, 0
3, 83520, Note_on_c, 2, 57, 80
3, 84479, Note_on_c, 2, 57, 0
3, 84480, Note_on_c, 2, 60, 80
3, 85439, Note_on_c, 2, 60, 0
3, 85440, Note_on_c, 2, 53, 80
3, 86399, Note_on_c, 2, 53, 0
3, 86400, Note_on_c, 2, 52, 80
3, 87359, Note_on_c, 2, 52, 0
3, 87360, Note_on_c, 2, 53, 80
3, 88319, Note_on_c, 2, 53, 0
3, 88320, Note_on_c, 2, 57, 80
3, 89279, Note_on_c, 2, 57, 0
3, 89280, Note_on_c, 2, 53, 80
3, 90239, Note_on_c, 2, 53, 0
3, 90240, Note_on_c, 2, 57, 80
3, 92159, Note_on_c, 2, 57, 0
3, 92160, End_track
4, 0, Start_track
4, 0, Title_t, "Bell\000"
4, 0, Key_signature, 0, "major"
4, 0, Control_c, 6, 121, 0
4, 0, Program_c, 6, 14
4, 0, Control_c, 6, 7, 100
4, 0, Control_c, 6, 10, 64
4, 0, Control_c, 6, 91, 0
4, 0, Control_c, 6, 93, 0
4, 0, MIDI_port, 0
4, 1, End_track
5, 0, Start_track
5, 0, Title_t, "Classical Guitar, Lute\000"
5, 0, Key_signature, 0, "major"
5, 0, Control_c, 1, 121, 0
5, 0, Program_c, 1, 24
5, 0, Control_c, 1, 7, 100
5, 0, Control_c, 1, 10, 64
5, 0, Control_c, 1, 91, 0
5, 0, Control_c, 1, 93, 0
5, 0, MIDI_port, 0
5, 0, Note_on_c, 1, 57, 80
5, 0, Control_c, 5, 121, 0
5, 0, Program_c, 5, 28
5, 0, Control_c, 5, 7, 100
5, 0, Control_c, 5, 10, 64
5, 0, Control_c, 5, 91, 0
5, 0, Control_c, 5, 93, 0
5, 0, MIDI_port, 0
5, 360, Note_on_c, 1, 60, 80
5, 360, Note_on_c, 1, 64, 80
5, 479, Note_on_c, 1, 57, 0
5, 479, Note_on_c, 1, 60, 0
5, 479, Note_on_c, 1, 64, 0
5, 480, Note_on_c, 1, 57, 80
5, 720, Note_on_c, 1, 60, 80
5, 720, Note_on_c, 1, 64, 80
5, 959, Note_on_c, 1, 57, 0
5, 959, Note_on_c, 1, 60, 0
5, 959, Note_on_c, 1, 64, 0
5, 960, Note_on_c, 1, 57, 80
5, 1320, Note_on_c, 1, 60, 80
5, 1320, Note_on_c, 1, 64, 80
5, 1439, Note_on_c, 1, 57, 0
5, 1439, Note_on_c, 1, 60, 0
5, 1439, Note_on_c, 1, 64, 0
5, 1440, Note_on_c, 1, 57, 80
5, 1680, Note_on_c, 1, 60, 80
5, 1680, Note_on_c, 1, 64, 80
5, 1919, Note_on_c, 1, 57, 0
5, 1919, Note_on_c, 1, 60, 0
5, 1919, Note_on_c, 1, 64, 0
5, 1920, Note_on_c, 1, 57, 80
5, 2280, Note_on_c, 1, 60, 80
5, 2280, Note_on_c, 1, 64, 80
5, 2399, Note_on_c, 1, 57, 0
5, 2399, Note_on_c, 1, 60, 0
5, 2399, Note_on_c, 1, 64, 0
5, 2400, Note_on_c, 1, 57, 80
5, 2640, Note_on_c, 1, 60, 80
5, 2640, Note_on_c, 1, 64, 80
5, 2879, Note_on_c, 1, 57, 0
5, 2879, Note_on_c, 1, 60, 0
5, 2879, Note_on_c, 1, 64, 0
5, 2880, Note_on_c, 1, 57, 80
5, 3240, Note_on_c, 1, 60, 80
5, 3240, Note_on_c, 1, 64, 80
5, 3359, Note_on_c, 1, 57, 0
5, 3359, Note_on_c, 1, 60, 0
5, 3359, Note_on_c, 1, 64, 0
5, 3360, Note_on_c, 1, 57, 80
5, 3600, Note_on_c, 1, 60, 80
5, 3600, Note_on_c, 1, 64, 80
5, 3839, Note_on_c, 1, 57, 0
5, 3839, Note_on_c, 1, 60, 0
5, 3839, Note_on_c, 1, 64, 0
5, 3840, Note_on_c, 1, 57, 80
5, 4200, Note_on_c, 1, 60, 80
5, 4200, Note_on_c, 1, 64, 80
5, 4319, Note_on_c, 1, 57, 0
5, 4319, Note_on_c, 1, 60, 0
5, 4319, Note_on_c, 1, 64, 0
5, 4320, Note_on_c, 1, 57, 80
5, 4560, Note_on_c, 1, 60, 80
5, 4560, Note_on_c, 1, 64, 80
5, 4799, Note_on_c, 1, 57, 0
5, 4799, Note_on_c, 1, 60, 0
5, 4799, Note_on_c, 1, 64, 0
5, 4800, Note_on_c, 1, 52, 80
5, 5160, Note_on_c, 1, 60, 80
5, 5160, Note_on_c, 1, 64, 80
5, 5279, Note_on_c, 1, 52, 0
5, 5279, Note_on_c, 1, 60, 0
5, 5279, Note_on_c, 1, 64, 0
5, 5280, Note_on_c, 1, 52, 80
5, 5520, Note_on_c, 1, 60, 80
5, 5520, Note_on_c, 1, 64, 80
5, 5759, Note_on_c, 1, 52, 0
5, 5759, Note_on_c, 1, 60, 0
5, 5759, Note_on_c, 1, 64, 0
5, 5760, Note_on_c, 1, 57, 80
5, 6120, Note_on_c, 1, 60, 80
5, 6120, Note_on_c, 1, 64, 80
5, 6239, Note_on_c, 1, 57, 0
5, 6239, Note_on_c, 1, 60, 0
5, 6239, Note_on_c, 1, 64, 0
5, 6240, Note_on_c, 1, 57, 80
5, 6480, Note_on_c, 1, 60, 80
5, 6480, Note_on_c, 1, 64, 80
5, 6719, Note_on_c, 1, 57, 0
5, 6719, Note_on_c, 1, 60, 0
5, 6719, Note_on_c, 1, 64, 0
5, 6720, Note_on_c, 1, 52, 80
5, 7080, Note_on_c, 1, 60, 80
5, 7080, Note_on_c, 1, 64, 80
5, 7199, Note_on_c, 1, 52, 0
5, 7199, Note_on_c, 1, 60, 0
5, 7199, Note_on_c, 1, 64, 0
5, 7200, Note_on_c, 1, 52, 80
5, 7440, Note_on_c, 1, 60, 80
5, 7440, Note_on_c, 1, 64, 80
5, 7679, Note_on_c, 1, 52, 0
5, 7679, Note_on_c, 1, 60, 0
5, 7679, Note_on_c, 1, 64, 0
5, 7680, Note_on_c, 1, 53, 80
5, 8040, Note_on_c, 1, 60, 80
5, 8040, Note_on_c, 1, 64, 80
5, 8159, Note_on_c, 1, 53, 0
5, 8159, Note_on_c, 1, 60, 0
5, 8159, Note_on_c, 1, 64, 0
5, 8160, Note_on_c, 1, 53, 80
5, 8400, Note_on_c, 1, 60, 80
5, 8400, Note_on_c, 1, 64, 80
5, 8639, Note_on_c, 1, 53, 0
5, 8639, Note_on_c, 1, 60, 0
5, 8639, Note_on_c, 1, 64, 0
5, 8640, Note_on_c, 1, 50, 80
5, 9000, Note_on_c, 1, 60, 80
5, 9000, Note_on_c, 1, 64, 80
5, 9119, Note_on_c, 1, 50, 0
5, 9119, Note_on_c, 1, 60, 0
5, 9119, Note_on_c, 1, 64, 0
5, 9120, Note_on_c, 1, 50, 80
5, 9360, Note_on_c, 1, 60, 80
5, 9360, Note_on_c, 1, 64, 80
5, 9599, Note_on_c, 1, 50, 0
5, 9599, Note_on_c, 1, 60, 0
5, 9599, Note_on_c, 1, 64, 0
5, 9600, Note_on_c, 1, 53, 80
5, 9960, Note_on_c, 1, 60, 80
5, 9960, Note_on_c, 1, 64, 80
5, 10079, Note_on_c, 1, 53, 0
5, 10079, Note_on_c, 1, 60, 0
5, 10079, Note_on_c, 1, 64, 0
5, 10080, Note_on_c, 1, 53, 80
5, 10320, Note_on_c, 1, 60, 80
5, 10320, Note_on_c, 1, 64, 80
5, 10559, Note_on_c, 1, 53, 0
5, 10559, Note_on_c, 1, 60, 0
5, 10559, Note_on_c, 1, 64, 0
5, 10560, Note_on_c, 1, 57, 80
5, 10920, Note_on_c, 1, 60, 80
5, 10920, Note_on_c, 1, 64, 80
5, 11039, Note_on_c, 1, 57, 0
5, 11039, Note_on_c, 1, 60, 0
5, 11039, Note_on_c, 1, 64, 0
5, 11040, Note_on_c, 1, 57, 80
5, 11280, Note_on_c, 1, 60, 80
5, 11280, Note_on_c, 1, 64, 80
5, 11519, Note_on_c, 1, 57, 0
5, 11519, Note_on_c, 1, 60, 0
5, 11519, Note_on_c, 1, 64, 0
5, 11520, Note_on_c, 1, 57, 80
5, 11880, Note_on_c, 1, 60, 80
5, 11880, Note_on_c, 1, 64, 80
5, 11999, Note_on_c, 1, 57, 0
5, 11999, Note_on_c, 1, 60, 0
5, 11999, Note_on_c, 1, 64, 0
5, 12000, Note_on_c, 1, 57, 80
5, 12240, Note_on_c, 1, 60, 80
5, 12240, Note_on_c, 1, 64, 80
5, 12479, Note_on_c, 1, 57, 0
5, 12479, Note_on_c, 1, 60, 0
5, 12479, Note_on_c, 1, 64, 0
5, 12480, Note_on_c, 1, 52, 80
5, 12840, Note_on_c, 1, 60, 80
5, 12840, Note_on_c, 1, 64, 80
5, 12959, Note_on_c, 1, 52, 0
5, 12959, Note_on_c, 1, 60, 0
5, 12959, Note_on_c, 1, 64, 0
5, 12960, Note_on_c, 1, 52, 80
5, 13200, Note_on_c, 1, 60, 80
5, 13200, Note_on_c, 1, 64, 80
5, 13439, Note_on_c, 1, 52, 0
5, 13439, Note_on_c, 1, 60, 0
5, 13439, Note_on_c, 1, 64, 0
5, 13440, Note_on_c, 1, 57, 80
5, 13800, Note_on_c, 1, 60, 80
5, 13800, Note_on_c, 1, 64, 80
5, 13919, Note_on_c, 1, 57, 0
5, 13919, Note_on_c, 1, 60, 0
5, 13919, Note_on_c, 1, 64, 0
5, 13920, Note_on_c, 1, 57, 80
5, 14160, Note_on_c, 1, 60, 80
5, 14160, Note_on_c, 1, 64, 80
5, 14399, Note_on_c, 1, 57, 0
5, 14399, Note_on_c, 1, 60, 0
5, 14399, Note_on_c, 1, 64, 0
5, 14400, Note_on_c, 1, 52, 80
5, 14760, Note_on_c, 1, 60, 80
5, 14760, Note_on_c, 1, 64, 80
5, 14879, Note_on_c, 1, 52, 0
5, 14879, Note_on_c, 1, 60, 0
5, 14879, Note_on_c, 1, 64, 0
5, 14880, Note_on_c, 1, 52, 80
5, 15120, Note_on_c, 1, 60, 80
5, 15120, Note_on_c, 1, 64, 80
5, 15359, Note_on_c, 1, 52, 0
5, 15359, Note_on_c, 1, 60, 0
5, 15359, Note_on_c, 1, 64, 0
5, 15360, Note_on_c, 1, 53, 80
5, 15720, Note_on_c, 1, 60, 80
5, 15720, Note_on_c, 1, 64, 80
5, 15839, Note_on_c, 1, 53, 0
5, 15839, Note_on_c, 1, 60, 0
5, 15839, Note_on_c, 1, 64, 0
5, 15840, Note_on_c, 1, 53, 80
5, 16080, Note_on_c, 1, 60, 80
5, 16080, Note_on_c, 1, 64, 80
5, 16319, Note_on_c, 1, 53, 0
5, 16319, Note_on_c, 1, 60, 0
5, 16319, Note_on_c, 1, 64, 0
5, 16320, Note_on_c, 1, 50, 80
5, 16680, Note_on_c, 1, 60, 80
5, 16680, Note_on_c, 1, 64, 80
5, 16799, Note_on_c, 1, 50, 0
5, 16799, Note_on_c, 1, 60, 0
5, 16799, Note_on_c, 1, 64, 0
5, 16800, Note_on_c, 1, 50, 80
5, 17040, Note_on_c, 1, 60, 80
5, 17040, Note_on_c, 1, 64, 80
5, 17279, Note_on_c, 1, 50, 0
5, 17279, Note_on_c, 1, 60, 0
5, 17279, Note_on_c, 1, 64, 0
5, 17280, Note_on_c, 1, 53, 80
5, 17640, Note_on_c, 1, 60, 80
5, 17640, Note_on_c, 1, 64, 80
5, 17759, Note_on_c, 1, 53, 0
5, 17759, Note_on_c, 1, 60, 0
5, 17759, Note_on_c, 1, 64, 0
5, 17760, Note_on_c, 1, 53, 80
5, 18000, Note_on_c, 1, 60, 80
5, 18000, Note_on_c, 1, 64, 80
5, 18239, Note_on_c, 1, 53, 0
5, 18239, Note_on_c, 1, 60, 0
5, 18239, Note_on_c, 1, 64, 0
5, 18240, Note_on_c, 1, 57, 80
5, 18600, Note_on_c, 1, 60, 80
5, 18600, Note_on_c, 1, 64, 80
5, 18719, Note_on_c, 1, 57, 0
5, 18719, Note_on_c, 1, 60, 0
5, 18719, Note_on_c, 1, 64, 0
5, 18720, Note_on_c, 1, 57, 80
5, 18960, Note_on_c, 1, 60, 80
5, 18960, Note_on_c, 1, 64, 80
5, 19199, Note_on_c, 1, 57, 0
5, 19199, Note_on_c, 1, 60, 0
5, 19199, Note_on_c, 1, 64, 0
5, 19200, Note_on_c, 1, 57, 80
5, 19560, Note_on_c, 1, 60, 80
5, 19560, Note_on_c, 1, 64, 80
5, 19679, Note_on_c, 1, 57, 0
5, 19679, Note_on_c, 1, 60, 0
5, 19679, Note_on_c, 1, 64, 0
5, 19680, Note_on_c, 1, 57, 80
5, 19920, Note_on_c, 1, 60, 80
5, 19920, Note_on_c, 1, 64, 80
5, 20159, Note_on_c, 1, 57, 0
5, 20159, Note_on_c, 1, 60, 0
5, 20159, Note_on_c, 1, 64, 0
5, 20160, Note_on_c, 1, 50, 80
5, 20520, Note_on_c, 1, 60, 80
5, 20520, Note_on_c, 1, 64, 80
5, 20639, Note_on_c, 1, 50, 0
5, 20639, Note_on_c, 1, 60, 0
5, 20639, Note_on_c, 1, 64, 0
5, 20640, Note_on_c, 1, 50, 80
5, 20880, Note_on_c, 1, 60, 80
5, 20880, Note_on_c, 1, 64, 80
5, 21119, Note_on_c, 1, 50, 0
5, 21119, Note_on_c, 1, 60, 0
5, 21119, Note_on_c, 1, 64, 0
5, 21120, Note_on_c, 1, 53, 80
5, 21480, Note_on_c, 1, 60, 80
5, 21480, Note_on_c, 1, 64, 80
5, 21599, Note_on_c, 1, 53, 0
5, 21599, Note_on_c, 1, 60, 0
5, 21599, Note_on_c, 1, 64, 0
5, 21600, Note_on_c, 1, 53, 80
5, 21840, Note_on_c, 1, 60, 80
5, 21840, Note_on_c, 1, 64, 80
5, 22079, Note_on_c, 1, 53, 0
5, 22079, Note_on_c, 1, 60, 0
5, 22079, Note_on_c, 1, 64, 0
5, 22080, Note_on_c, 1, 52, 80
5, 22440, Note_on_c, 1, 60, 80
5, 22440, Note_on_c, 1, 64, 80
5, 22559, Note_on_c, 1, 52, 0
5, 22559, Note_on_c, 1, 60, 0
5, 22559, Note_on_c, 1, 64, 0
5, 22560, Note_on_c, 1, 52, 80
5, 22800, Note_on_c, 1, 60, 80
5, 22800, Note_on_c, 1, 64, 80
5, 23039, Note_on_c, 1, 52, 0
5, 23039, Note_on_c, 1, 60, 0
5, 23039, Note_on_c, 1, 64, 0
5, 23040, Note_on_c, 1, 57, 80
5, 23400, Note_on_c, 1, 60, 80
5, 23400, Note_on_c, 1, 64, 80
5, 23519, Note_on_c, 1, 57, 0
5, 23519, Note_on_c, 1, 60, 0
5, 23519, Note_on_c, 1, 64, 0
5, 23520, Note_on_c, 1, 57, 80
5, 23760, Note_on_c, 1, 60, 80
5, 23760, Note_on_c, 1, 64, 80
5, 23999, Note_on_c, 1, 57, 0
5, 23999, Note_on_c, 1, 60, 0
5, 23999, Note_on_c, 1, 64, 0
5, 24000, Note_on_c, 1, 53, 80
5, 24360, Note_on_c, 1, 60, 80
5, 24360, Note_on_c, 1, 64, 80
5, 24479, Note_on_c, 1, 53, 0
5, 24479, Note_on_c, 1, 60, 0
5, 24479, Note_on_c, 1, 64, 0
5, 24480, Note_on_c, 1, 53, 80
5, 24720, Note_on_c, 1, 60, 80
5, 24720, Note_on_c, 1, 64, 80
5, 24959, Note_on_c, 1, 53, 0
5, 24959, Note_on_c, 1, 60, 0
5, 24959, Note_on_c, 1, 64, 0
5, 24960, Note_on_c, 1, 52, 80
5, 25320, Note_on_c, 1, 60, 80
5, 25320, Note_on_c, 1, 64, 80
5, 25439, Note_on_c, 1, 52, 0
5, 25439, Note_on_c, 1, 60, 0
5, 25439, Note_on_c, 1, 64, 0
5, 25440, Note_on_c, 1, 52, 80
5, 25680, Note_on_c, 1, 60, 80
5, 25680, Note_on_c, 1, 64, 80
5, 25919, Note_on_c, 1, 52, 0
5, 25919, Note_on_c, 1, 60, 0
5, 25919, Note_on_c, 1, 64, 0
5, 25920, Note_on_c, 1, 52, 80
5, 26280, Note_on_c, 1, 60, 80
5, 26280, Note_on_c, 1, 64, 80
5, 26399, Note_on_c, 1, 52, 0
5, 26399, Note_on_c, 1, 60, 0
5, 26399, Note_on_c, 1, 64, 0
5, 26400, Note_on_c, 1, 52, 80
5, 26640, Note_on_c, 1, 60, 80
5, 26640, Note_on_c, 1, 64, 80
5, 26879, Note_on_c, 1, 52, 0
5, 26879, Note_on_c, 1, 60, 0
5, 26879, Note_on_c, 1, 64, 0
5, 26880, Note_on_c, 1, 57, 80
5, 27240, Note_on_c, 1, 60, 80
5, 27240, Note_on_c, 1, 64, 80
5, 27359, Note_on_c, 1, 57, 0
5, 27359, Note_on_c, 1, 60, 0
5, 27359, Note_on_c, 1, 64, 0
5, 27360, Note_on_c, 1, 57, 80
5, 27600, Note_on_c, 1, 60, 80
5, 27600, Note_on_c, 1, 64, 80
5, 27839, Note_on_c, 1, 57, 0
5, 27839, Note_on_c, 1, 60, 0
5, 27839, Note_on_c, 1, 64, 0
5, 27840, Note_on_c, 1, 50, 80
5, 28200, Note_on_c, 1, 60, 80
5, 28200, Note_on_c, 1, 64, 80
5, 28319, Note_on_c, 1, 50, 0
5, 28319, Note_on_c, 1, 60, 0
5, 28319, Note_on_c, 1, 64, 0
5, 28320, Note_on_c, 1, 50, 80
5, 28560, Note_on_c, 1, 60, 80
5, 28560, Note_on_c, 1, 64, 80
5, 28799, Note_on_c, 1, 50, 0
5, 28799, Note_on_c, 1, 60, 0
5, 28799, Note_on_c, 1, 64, 0
5, 28800, Note_on_c, 1, 53, 80
5, 29160, Note_on_c, 1, 60, 80
5, 29160, Note_on_c, 1, 64, 80
5, 29279, Note_on_c, 1, 53, 0
5, 29279, Note_on_c, 1, 60, 0
5, 29279, Note_on_c, 1, 64, 0
5, 29280, Note_on_c, 1, 53, 80
5, 29520, Note_on_c, 1, 60, 80
5, 29520, Note_on_c, 1, 64, 80
5, 29759, Note_on_c, 1, 53, 0
5, 29759, Note_on_c, 1, 60, 0
5, 29759, Note_on_c, 1, 64, 0
5, 29760, Note_on_c, 1, 52, 80
5, 30120, Note_on_c, 1, 60, 80
5, 30120, Note_on_c, 1, 64, 80
5, 30239, Note_on_c, 1, 52, 0
5, 30239, Note_on_c, 1, 60, 0
5, 30239, Note_on_c, 1, 64, 0
5, 30240, Note_on_c, 1, 52, 80
5, 30480, Note_on_c, 1, 60, 80
5, 30480, Note_on_c, 1, 64, 80
5, 30719, Note_on_c, 1, 52, 0
5, 30719, Note_on_c, 1, 60, 0
5, 30719, Note_on_c, 1, 64, 0
5, 30720, Note_on_c, 1, 57, 80
5, 31080, Note_on_c, 1, 60, 80
5, 31080, Note_on_c, 1, 64, 80
5, 31199, Note_on_c, 1, 57, 0
5, 31199, Note_on_c, 1, 60, 0
5, 31199, Note_on_c, 1, 64, 0
5, 31200, Note_on_c, 1, 57, 80
5, 31440, Note_on_c, 1, 60, 80
5, 31440, Note_on_c, 1, 64, 80
5, 31679, Note_on_c, 1, 57, 0
5, 31679, Note_on_c, 1, 60, 0
5, 31679, Note_on_c, 1, 64, 0
5, 31680, Note_on_c, 1, 52, 80
5, 32040, Note_on_c, 1, 60, 80
5, 32040, Note_on_c, 1, 64, 80
5, 32159, Note_on_c, 1, 52, 0
5, 32159, Note_on_c, 1, 60, 0
5, 32159, Note_on_c, 1, 64, 0
5, 32160, Note_on_c, 1, 52, 80
5, 32400, Note_on_c, 1, 60, 80
5, 32400, Note_on_c, 1, 64, 80
5, 32639, Note_on_c, 1, 52, 0
5, 32639, Note_on_c, 1, 60, 0
5, 32639, Note_on_c, 1, 64, 0
5, 32640, Note_on_c, 1, 53, 80
5, 33000, Note_on_c, 1, 60, 80
5, 33000, Note_on_c, 1, 64, 80
5, 33119, Note_on_c, 1, 53, 0
5, 33119, Note_on_c, 1, 60, 0
5, 33119, Note_on_c, 1, 64, 0
5, 33120, Note_on_c, 1, 53, 80
5, 33360, Note_on_c, 1, 60, 80
5, 33360, Note_on_c, 1, 64, 80
5, 33599, Note_on_c, 1, 53, 0
5, 33599, Note_on_c, 1, 60, 0
5, 33599, Note_on_c, 1, 64, 0
5, 33600, Note_on_c, 1, 52, 80
5, 33960, Note_on_c, 1, 60, 80
5, 33960, Note_on_c, 1, 64, 80
5, 34079, Note_on_c, 1, 52, 0
5, 34079, Note_on_c, 1, 60, 0
5, 34079, Note_on_c, 1, 64, 0
5, 34080, Note_on_c, 1, 52, 80
5, 34320, Note_on_c, 1, 60, 80
5, 34320, Note_on_c, 1, 64, 80
5, 34559, Note_on_c, 1, 52, 0
5, 34559, Note_on_c, 1, 60, 0
5, 34559, Note_on_c, 1, 64, 0
5, 34560, Note_on_c, 1, 57, 80
5, 34920, Note_on_c, 1, 60, 80
5, 34920, Note_on_c, 1, 64, 80
5, 35039, Note_on_c, 1, 57, 0
5, 35039, Note_on_c, 1, 60, 0
5, 35039, Note_on_c, 1, 64, 0
5, 35040, Note_on_c, 1, 57, 80
5, 35280, Note_on_c, 1, 60, 80
5, 35280, Note_on_c, 1, 64, 80
5, 35519, Note_on_c, 1, 57, 0
5, 35519, Note_on_c, 1, 60, 0
5, 35519, Note_on_c, 1, 64, 0
5, 35520, Note_on_c, 1, 52, 80
5, 35880, Note_on_c, 1, 60, 80
5, 35880, Note_on_c, 1, 64, 80
5, 35999, Note_on_c, 1, 52, 0
5, 35999, Note_on_c, 1, 60, 0
5, 35999, Note_on_c, 1, 64, 0
5, 36000, Note_on_c, 1, 52, 80
5, 36240, Note_on_c, 1, 60, 80
5, 36240, Note_on_c, 1, 64, 80
5, 36479, Note_on_c, 1, 52, 0
5, 36479, Note_on_c, 1, 60, 0
5, 36479, Note_on_c, 1, 64, 0
5, 36480, Note_on_c, 1, 57, 80
5, 36840, Note_on_c, 1, 60, 80
5, 36840, Note_on_c, 1, 64, 80
5, 36959, Note_on_c, 1, 57, 0
5, 36959, Note_on_c, 1, 60, 0
5, 36959, Note_on_c, 1, 64, 0
5, 36960, Note_on_c, 1, 57, 80
5, 37200, Note_on_c, 1, 60, 80
5, 37200, Note_on_c, 1, 64, 80
5, 37439, Note_on_c, 1, 57, 0
5, 37439, Note_on_c, 1, 60, 0
5, 37439, Note_on_c, 1, 64, 0
5, 37440, Note_on_c, 1, 52, 80
5, 37800, Note_on_c, 1, 60, 80
5, 37800, Note_on_c, 1, 64, 80
5, 37919, Note_on_c, 1, 52, 0
5, 37919, Note_on_c, 1, 60, 0
5, 37919, Note_on_c, 1, 64, 0
5, 37920, Note_on_c, 1, 52, 80
5, 38160, Note_on_c, 1, 60, 80
5, 38160, Note_on_c, 1, 64, 80
5, 38399, Note_on_c, 1, 52, 0
5, 38399, Note_on_c, 1, 60, 0
5, 38399, Note_on_c, 1, 64, 0
5, 38400, Note_on_c, 1, 53, 80
5, 38760, Note_on_c, 1, 60, 80
5, 38760, Note_on_c, 1, 64, 80
5, 38879, Note_on_c, 1, 53, 0
5, 38879, Note_on_c, 1, 60, 0
5, 38879, Note_on_c, 1, 64, 0
5, 38880, Note_on_c, 1, 53, 80
5, 39120, Note_on_c, 1, 60, 80
5, 39120, Note_on_c, 1, 64, 80
5, 39359, Note_on_c, 1, 53, 0
5, 39359, Note_on_c, 1, 60, 0
5, 39359, Note_on_c, 1, 64, 0
5, 39360, Note_on_c, 1, 52, 80
5, 39720, Note_on_c, 1, 60, 80
5, 39720, Note_on_c, 1, 64, 80
5, 39839, Note_on_c, 1, 52, 0
5, 39839, Note_on_c, 1, 60, 0
5, 39839, Note_on_c, 1, 64, 0
5, 39840, Note_on_c, 1, 52, 80
5, 40080, Note_on_c, 1, 60, 80
5, 40080, Note_on_c, 1, 64, 80
5, 40319, Note_on_c, 1, 52, 0
5, 40319, Note_on_c, 1, 60, 0
5, 40319, Note_on_c, 1, 64, 0
5, 40320, Note_on_c, 1, 53, 80
5, 40680, Note_on_c, 1, 60, 80
5, 40680, Note_on_c, 1, 64, 80
5, 40799, Note_on_c, 1, 53, 0
5, 40799, Note_on_c, 1, 60, 0
5, 40799, Note_on_c, 1, 64, 0
5, 40800, Note_on_c, 1, 55, 80
5, 41040, Note_on_c, 1, 60, 80
5, 41040, Note_on_c, 1, 64, 80
5, 41279, Note_on_c, 1, 55, 0
5, 41279, Note_on_c, 1, 60, 0
5, 41279, Note_on_c, 1, 64, 0
5, 41280, Note_on_c, 1, 57, 80
5, 41640, Note_on_c, 1, 60, 80
5, 41640, Note_on_c, 1, 64, 80
5, 41759, Note_on_c, 1, 57, 0
5, 41759, Note_on_c, 1, 60, 0
5, 41759, Note_on_c, 1, 64, 0
5, 41760, Note_on_c, 1, 57, 80
5, 42000, Note_on_c, 1, 60, 80
5, 42000, Note_on_c, 1, 64, 80
5, 42239, Note_on_c, 1, 57, 0
5, 42239, Note_on_c, 1, 60, 0
5, 42239, Note_on_c, 1, 64, 0
5, 42240, Note_on_c, 1, 57, 80
5, 42600, Note_on_c, 1, 60, 80
5, 42600, Note_on_c, 1, 64, 80
5, 42719, Note_on_c, 1, 57, 0
5, 42719, Note_on_c, 1, 60, 0
5, 42719, Note_on_c, 1, 64, 0
5, 42720, Note_on_c, 1, 57, 80
5, 42960, Note_on_c, 1, 60, 80
5, 42960, Note_on_c, 1, 64, 80
5, 43199, Note_on_c, 1, 57, 0
5, 43199, Note_on_c, 1, 60, 0
5, 43199, Note_on_c, 1, 64, 0
5, 43200, Note_on_c, 1, 52, 80
5, 43560, Note_on_c, 1, 60, 80
5, 43560, Note_on_c, 1, 64, 80
5, 43679, Note_on_c, 1, 52, 0
5, 43679, Note_on_c, 1, 60, 0
5, 43679, Note_on_c, 1, 64, 0
5, 43680, Note_on_c, 1, 52, 80
5, 43920, Note_on_c, 1, 60, 80
5, 43920, Note_on_c, 1, 64, 80
5, 44159, Note_on_c, 1, 52, 0
5, 44159, Note_on_c, 1, 60, 0
5, 44159, Note_on_c, 1, 64, 0
5, 44160, Note_on_c, 1, 57, 80
5, 44520, Note_on_c, 1, 60, 80
5, 44520, Note_on_c, 1, 64, 80
5, 44639, Note_on_c, 1, 57, 0
5, 44639, Note_on_c, 1, 60, 0
5, 44639, Note_on_c, 1, 64, 0
5, 44640, Note_on_c, 1, 57, 80
5, 44880, Note_on_c, 1, 60, 80
5, 44880, Note_on_c, 1, 64, 80
5, 45119, Note_on_c, 1, 57, 0
5, 45119, Note_on_c, 1, 60, 0
5, 45119, Note_on_c, 1, 64, 0
5, 45120, Note_on_c, 1, 52, 80
5, 45480, Note_on_c, 1, 60, 80
5, 45480, Note_on_c, 1, 64, 80
5, 45599, Note_on_c, 1, 52, 0
5, 45599, Note_on_c, 1, 60, 0
5, 45599, Note_on_c, 1, 64, 0
5, 45600, Note_on_c, 1, 52, 80
5, 45840, Note_on_c, 1, 60, 80
5, 45840, Note_on_c, 1, 64, 80
5, 46079, Note_on_c, 1, 52, 0
5, 46079, Note_on_c, 1, 60, 0
5, 46079, Note_on_c, 1, 64, 0
5, 46080, Note_on_c, 1, 53, 80
5, 46440, Note_on_c, 1, 60, 80
5, 46440, Note_on_c, 1, 64, 80
5, 46559, Note_on_c, 1, 53, 0
5, 46559, Note_on_c, 1, 60, 0
5, 46559, Note_on_c, 1, 64, 0
5, 46560, Note_on_c, 1, 53, 80
5, 46800, Note_on_c, 1, 60, 80
5, 46800, Note_on_c, 1, 64, 80
5, 47039, Note_on_c, 1, 53, 0
5, 47039, Note_on_c, 1, 60, 0
5, 47039, Note_on_c, 1, 64, 0
5, 47040, Note_on_c, 1, 52, 80
5, 47400, Note_on_c, 1, 60, 80
5, 47400, Note_on_c, 1, 64, 80
5, 47519, Note_on_c, 1, 52, 0
5, 47519, Note_on_c, 1, 60, 0
5, 47519, Note_on_c, 1, 64, 0
5, 47520, Note_on_c, 1, 52, 80
5, 47760, Note_on_c, 1, 60, 80
5, 47760, Note_on_c, 1, 64, 80
5, 47999, Note_on_c, 1, 52, 0
5, 47999, Note_on_c, 1, 60, 0
5, 47999, Note_on_c, 1, 64, 0
5, 48000, Note_on_c, 1, 53, 80
5, 48360, Note_on_c, 1, 60, 80
5, 48360, Note_on_c, 1, 64, 80
5, 48479, Note_on_c, 1, 53, 0
5, 48479, Note_on_c, 1, 60, 0
5, 48479, Note_on_c, 1, 64, 0
5, 48480, Note_on_c, 1, 55, 80
5, 48720, Note_on_c, 1, 60, 80
5, 48720, Note_on_c, 1, 64, 80
5, 48959, Note_on_c, 1, 55, 0
5, 48959, Note_on_c, 1, 60, 0
5, 48959, Note_on_c, 1, 64, 0
5, 48960, Note_on_c, 1, 57, 80
5, 49919, Note_on_c, 1, 57, 0
5, 50880, Note_on_c, 1, 57, 80
5, 50999, Note_on_c, 1, 57, 0
5, 51120, Note_on_c, 1, 60, 80
5, 51120, Note_on_c, 1, 64, 80
5, 51239, Note_on_c, 1, 60, 0
5, 51239, Note_on_c, 1, 64, 0
5, 51240, Note_on_c, 1, 60, 80
5, 51240, Note_on_c, 1, 64, 80
5, 51359, Note_on_c, 1, 60, 0
5, 51359, Note_on_c, 1, 64, 0
5, 51360, Note_on_c, 1, 57, 80
5, 51600, Note_on_c, 1, 60, 80
5, 51600, Note_on_c, 1, 64, 80
5, 51839, Note_on_c, 1, 57, 0
5, 51839, Note_on_c, 1, 60, 0
5, 51839, Note_on_c, 1, 64, 0
5, 51840, Note_on_c, 1, 52, 80
5, 51959, Note_on_c, 1, 52, 0
5, 52080, Note_on_c, 1, 60, 80
5, 52080, Note_on_c, 1, 64, 80
5, 52199, Note_on_c, 1, 60, 0
5, 52199, Note_on_c, 1, 64, 0
5, 52200, Note_on_c, 1, 60, 80
5, 52200, Note_on_c, 1, 64, 80
5, 52319, Note_on_c, 1, 60, 0
5, 52319, Note_on_c, 1, 64, 0
5, 52320, Note_on_c, 1, 52, 80
5, 52560, Note_on_c, 1, 60, 80
5, 52560, Note_on_c, 1, 64, 80
5, 52799, Note_on_c, 1, 52, 0
5, 52799, Note_on_c, 1, 60, 0
5, 52799, Note_on_c, 1, 64, 0
5, 52800, Note_on_c, 1, 57, 80
5, 53039, Note_on_c, 1, 57, 0
5, 53040, Note_on_c, 1, 60, 80
5, 53040, Note_on_c, 1, 64, 80
5, 53159, Note_on_c, 1, 60, 0
5, 53159, Note_on_c, 1, 64, 0
5, 53160, Note_on_c, 1, 60, 80
5, 53160, Note_on_c, 1, 64, 80
5, 53279, Note_on_c, 1, 60, 0
5, 53279, Note_on_c, 1, 64, 0
5, 53280, Note_on_c, 1, 57, 80
5, 53520, Note_on_c, 1, 60, 80
5, 53520, Note_on_c, 1, 64, 80
5, 53759, Note_on_c, 1, 57, 0
5, 53759, Note_on_c, 1, 60, 0
5, 53759, Note_on_c, 1, 64, 0
5, 53760, Note_on_c, 1, 52, 80
5, 53879, Note_on_c, 1, 52, 0
5, 54000, Note_on_c, 1, 60, 80
5, 54000, Note_on_c, 1, 64, 80
5, 54119, Note_on_c, 1, 60, 0
5, 54119, Note_on_c, 1, 64, 0
5, 54120, Note_on_c, 1, 60, 80
5, 54120, Note_on_c, 1, 64, 80
5, 54239, Note_on_c, 1, 60, 0
5, 54239, Note_on_c, 1, 64, 0
5, 54240, Note_on_c, 1, 52, 80
5, 54480, Note_on_c, 1, 60, 80
5, 54480, Note_on_c, 1, 64, 80
5, 54719, Note_on_c, 1, 52, 0
5, 54719, Note_on_c, 1, 60, 0
5, 54719, Note_on_c, 1, 64, 0
5, 54720, Note_on_c, 1, 53, 80
5, 54839, Note_on_c, 1, 53, 0
5, 54960, Note_on_c, 1, 60, 80
5, 54960, Note_on_c, 1, 64, 80
5, 55079, Note_on_c, 1, 60, 0
5, 55079, Note_on_c, 1, 64, 0
5, 55080, Note_on_c, 1, 60, 80
5, 55080, Note_on_c, 1, 64, 80
5, 55199, Note_on_c, 1, 60, 0
5, 55199, Note_on_c, 1, 64, 0
5, 55200, Note_on_c, 1, 53, 80
5, 55440, Note_on_c, 1, 60, 80
5, 55440, Note_on_c, 1, 64, 80
5, 55679, Note_on_c, 1, 53, 0
5, 55679, Note_on_c, 1, 60, 0
5, 55679, Note_on_c, 1, 64, 0
5, 55680, Note_on_c, 1, 52, 80
5, 55799, Note_on_c, 1, 52, 0
5, 55920, Note_on_c, 1, 60, 80
5, 55920, Note_on_c, 1, 64, 80
5, 56039, Note_on_c, 1, 60, 0
5, 56039, Note_on_c, 1, 64, 0
5, 56040, Note_on_c, 1, 60, 80
5, 56040, Note_on_c, 1, 64, 80
5, 56159, Note_on_c, 1, 60, 0
5, 56159, Note_on_c, 1, 64, 0
5, 56160, Note_on_c, 1, 52, 80
5, 56400, Note_on_c, 1, 60, 80
5, 56400, Note_on_c, 1, 64, 80
5, 56639, Note_on_c, 1, 52, 0
5, 56639, Note_on_c, 1, 60, 0
5, 56639, Note_on_c, 1, 64, 0
5, 56640, Note_on_c, 1, 53, 80
5, 56759, Note_on_c, 1, 53, 0
5, 56880, Note_on_c, 1, 60, 80
5, 56880, Note_on_c, 1, 64, 80
5, 57119, Note_on_c, 1, 60, 0
5, 57119, Note_on_c, 1, 64, 0
5, 57120, Note_on_c, 1, 55, 80
5, 57360, Note_on_c, 1, 60, 80
5, 57360, Note_on_c, 1, 64, 80
5, 57599, Note_on_c, 1, 55, 0
5, 57599, Note_on_c, 1, 60, 0
5, 57599, Note_on_c, 1, 64, 0
5, 57600, Note_on_c, 1, 57, 80
5, 57719, Note_on_c, 1, 57, 0
5, 57840, Note_on_c, 1, 60, 80
5, 57840, Note_on_c, 1, 64, 80
5, 58079, Note_on_c, 1, 60, 0
5, 58079, Note_on_c, 1, 64, 0
5, 58080, Note_on_c, 1, 57, 80
5, 58320, Note_on_c, 1, 60, 80
5, 58320, Note_on_c, 1, 64, 80
5, 58559, Note_on_c, 1, 57, 0
5, 58559, Note_on_c, 1, 60, 0
5, 58559, Note_on_c, 1, 64, 0
5, 58560, Note_on_c, 1, 57, 80
5, 58920, Note_on_c, 1, 60, 80
5, 58920, Note_on_c, 1, 64, 80
5, 59039, Note_on_c, 1, 57, 0
5, 59039, Note_on_c, 1, 60, 0
5, 59039, Note_on_c, 1, 64, 0
5, 59040, Note_on_c, 1, 57, 80
5, 59280, Note_on_c, 1, 60, 80
5, 59280, Note_on_c, 1, 64, 80
5, 59519, Note_on_c, 1, 57, 0
5, 59519, Note_on_c, 1, 60, 0
5, 59519, Note_on_c, 1, 64, 0
5, 59520, Note_on_c, 1, 50, 80
5, 59880, Note_on_c, 1, 60, 80
5, 59880, Note_on_c, 1, 64, 80
5, 59999, Note_on_c, 1, 50, 0
5, 59999, Note_on_c, 1, 60, 0
5, 59999, Note_on_c, 1, 64, 0
5, 60000, Note_on_c, 1, 50, 80
5, 60240, Note_on_c, 1, 60, 80
5, 60240, Note_on_c, 1, 64, 80
5, 60479, Note_on_c, 1, 50, 0
5, 60479, Note_on_c, 1, 60, 0
5, 60479, Note_on_c, 1, 64, 0
5, 60480, Note_on_c, 1, 53, 80
5, 60840, Note_on_c, 1, 60, 80
5, 60840, Note_on_c, 1, 64, 80
5, 60959, Note_on_c, 1, 53, 0
5, 60959, Note_on_c, 1, 60, 0
5, 60959, Note_on_c, 1, 64, 0
5, 60960, Note_on_c, 1, 53, 80
5, 61200, Note_on_c, 1, 60, 80
5, 61200, Note_on_c, 1, 64, 80
5, 61439, Note_on_c, 1, 53, 0
5, 61439, Note_on_c, 1, 60, 0
5, 61439, Note_on_c, 1, 64, 0
5, 61440, Note_on_c, 1, 52, 80
5, 61800, Note_on_c, 1, 60, 80
5, 61800, Note_on_c, 1, 64, 80
5, 61919, Note_on_c, 1, 52, 0
5, 61919, Note_on_c, 1, 60, 0
5, 61919, Note_on_c, 1, 64, 0
5, 61920, Note_on_c, 1, 52, 80
5, 62160, Note_on_c, 1, 60, 80
5, 62160, Note_on_c, 1, 64, 80
5, 62399, Note_on_c, 1, 52, 0
5, 62399, Note_on_c, 1, 60, 0
5, 62399, Note_on_c, 1, 64, 0
5, 62400, Note_on_c, 1, 57, 80
5, 62759, Note_on_c, 1, 57, 0
5, 62760, Note_on_c, 1, 60, 80
5, 62760, Note_on_c, 1, 64, 80
5, 62879, Note_on_c, 1, 60, 0
5, 62879, Note_on_c, 1, 64, 0
5, 62880, Note_on_c, 1, 57, 80
5, 63120, Note_on_c, 1, 60, 80
5, 63120, Note_on_c, 1, 64, 80
5, 63359, Note_on_c, 1, 57, 0
5, 63359, Note_on_c, 1, 60, 0
5, 63359, Note_on_c, 1, 64, 0
5, 63360, Note_on_c, 1, 53, 80
5, 63719, Note_on_c, 1, 53, 0
5, 63720, Note_on_c, 1, 60, 80
5, 63720, Note_on_c, 1, 64, 80
5, 63839, Note_on_c, 1, 60, 0
5, 63839, Note_on_c, 1, 64, 0
5, 63840, Note_on_c, 1, 53, 80
5, 64080, Note_on_c, 1, 60, 80
5, 64080, Note_on_c, 1, 64, 80
5, 64319, Note_on_c, 1, 53, 0
5, 64319, Note_on_c, 1, 60, 0
5, 64319, Note_on_c, 1, 64, 0
5, 64320, Note_on_c, 1, 48, 80
5, 64559, Note_on_c, 1, 48, 0
5, 64560, Note_on_c, 1, 60, 80
5, 64560, Note_on_c, 1, 64, 80
5, 64679, Note_on_c, 1, 60, 0
5, 64679, Note_on_c, 1, 64, 0
5, 64800, Note_on_c, 1, 48, 80
5, 65040, Note_on_c, 1, 60, 80
5, 65040, Note_on_c, 1, 64, 80
5, 65279, Note_on_c, 1, 48, 0
5, 65279, Note_on_c, 1, 60, 0
5, 65279, Note_on_c, 1, 64, 0
5, 65280, Note_on_c, 1, 48, 80
5, 65519, Note_on_c, 1, 48, 0
5, 65520, Note_on_c, 1, 60, 80
5, 65520, Note_on_c, 1, 64, 80
5, 65759, Note_on_c, 1, 60, 0
5, 65759, Note_on_c, 1, 64, 0
5, 65760, Note_on_c, 1, 48, 80
5, 66000, Note_on_c, 1, 60, 80
5, 66000, Note_on_c, 1, 64, 80
5, 66239, Note_on_c, 1, 48, 0
5, 66239, Note_on_c, 1, 60, 0
5, 66239, Note_on_c, 1, 64, 0
5, 66240, Note_on_c, 1, 57, 80
5, 66600, Note_on_c, 1, 60, 80
5, 66600, Note_on_c, 1, 64, 80
5, 66719, Note_on_c, 1, 57, 0
5, 66719, Note_on_c, 1, 60, 0
5, 66719, Note_on_c, 1, 64, 0
5, 66720, Note_on_c, 1, 57, 80
5, 66960, Note_on_c, 1, 60, 80
5, 66960, Note_on_c, 1, 64, 80
5, 67199, Note_on_c, 1, 57, 0
5, 67199, Note_on_c, 1, 60, 0
5, 67199, Note_on_c, 1, 64, 0
5, 67200, Note_on_c, 1, 50, 80
5, 67560, Note_on_c, 1, 60, 80
5, 67560, Note_on_c, 1, 64, 80
5, 67679, Note_on_c, 1, 50, 0
5, 67679, Note_on_c, 1, 60, 0
5, 67679, Note_on_c, 1, 64, 0
5, 67680, Note_on_c, 1, 50, 80
5, 67920, Note_on_c, 1, 60, 80
5, 67920, Note_on_c, 1, 64, 80
5, 68159, Note_on_c, 1, 50, 0
5, 68159, Note_on_c, 1, 60, 0
5, 68159, Note_on_c, 1, 64, 0
5, 68160, Note_on_c, 1, 53, 80
5, 68520, Note_on_c, 1, 60, 80
5, 68520, Note_on_c, 1, 64, 80
5, 68639, Note_on_c, 1, 53, 0
5, 68639, Note_on_c, 1, 60, 0
5, 68639, Note_on_c, 1, 64, 0
5, 68640, Note_on_c, 1, 53, 80
5, 68880, Note_on_c, 1, 60, 80
5, 68880, Note_on_c, 1, 64, 80
5, 69119, Note_on_c, 1, 53, 0
5, 69119, Note_on_c, 1, 60, 0
5, 69119, Note_on_c, 1, 64, 0
5, 69120, Note_on_c, 1, 52, 80
5, 69480, Note_on_c, 1, 60, 80
5, 69480, Note_on_c, 1, 64, 80
5, 69599, Note_on_c, 1, 52, 0
5, 69599, Note_on_c, 1, 60, 0
5, 69599, Note_on_c, 1, 64, 0
5, 69600, Note_on_c, 1, 52, 80
5, 69840, Note_on_c, 1, 60, 80
5, 69840, Note_on_c, 1, 64, 80
5, 70079, Note_on_c, 1, 52, 0
5, 70079, Note_on_c, 1, 60, 0
5, 70079, Note_on_c, 1, 64, 0
5, 70080, Note_on_c, 1, 57, 80
5, 70440, Note_on_c, 1, 60, 80
5, 70440, Note_on_c, 1, 64, 80
5, 70559, Note_on_c, 1, 57, 0
5, 70559, Note_on_c, 1, 60, 0
5, 70559, Note_on_c, 1, 64, 0
5, 70560, Note_on_c, 1, 57, 80
5, 70800, Note_on_c, 1, 60, 80
5, 70800, Note_on_c, 1, 64, 80
5, 71039, Note_on_c, 1, 57, 0
5, 71039, Note_on_c, 1, 60, 0
5, 71039, Note_on_c, 1, 64, 0
5, 71040, Note_on_c, 1, 52, 80
5, 71400, Note_on_c, 1, 60, 80
5, 71400, Note_on_c, 1, 64, 80
5, 71519, Note_on_c, 1, 52, 0
5, 71519, Note_on_c, 1, 60, 0
5, 71519, Note_on_c, 1, 64, 0
5, 71520, Note_on_c, 1, 52, 80
5, 71760, Note_on_c, 1, 60, 80
5, 71760, Note_on_c, 1, 64, 80
5, 71999, Note_on_c, 1, 52, 0
5, 71999, Note_on_c, 1, 60, 0
5, 71999, Note_on_c, 1, 64, 0
5, 72000, Note_on_c, 1, 53, 80
5, 72360, Note_on_c, 1, 60, 80
5, 72360, Note_on_c, 1, 64, 80
5, 72479, Note_on_c, 1, 53, 0
5, 72479, Note_on_c, 1, 60, 0
5, 72479, Note_on_c, 1, 64, 0
5, 72480, Note_on_c, 1, 53, 80
5, 72720, Note_on_c, 1, 60, 80
5, 72720, Note_on_c, 1, 64, 80
5, 72959, Note_on_c, 1, 53, 0
5, 72959, Note_on_c, 1, 60, 0
5, 72959, Note_on_c, 1, 64, 0
5, 72960, Note_on_c, 1, 52, 80
5, 73439, Note_on_c, 1, 52, 0
5, 73920, Note_on_c, 1, 57, 80
5, 74159, Note_on_c, 1, 57, 0
5, 74160, Note_on_c, 1, 57, 80
5, 74279, Note_on_c, 1, 57, 0
5, 74280, Note_on_c, 1, 57, 80
5, 74399, Note_on_c, 1, 57, 0
5, 74400, Note_on_c, 1, 60, 80
5, 74639, Note_on_c, 1, 60, 0
5, 74640, Note_on_c, 1, 62, 80
5, 74759, Note_on_c, 1, 62, 0
5, 74760, Note_on_c, 1, 62, 80
5, 74879, Note_on_c, 1, 62, 0
5, 74880, Note_on_c, 1, 64, 80
5, 75119, Note_on_c, 1, 64, 0
5, 75120, Note_on_c, 1, 64, 80
5, 75239, Note_on_c, 1, 64, 0
5, 75240, Note_on_c, 1, 64, 80
5, 75359, Note_on_c, 1, 64, 0
5, 75360, Note_on_c, 1, 62, 80
5, 75599, Note_on_c, 1, 62, 0
5, 75600, Note_on_c, 1, 60, 80
5, 75839, Note_on_c, 1, 60, 0
5, 75840, Note_on_c, 1, 57, 80
5, 76079, Note_on_c, 1, 57, 0
5, 76080, Note_on_c, 1, 57, 80
5, 76199, Note_on_c, 1, 57, 0
5, 76200, Note_on_c, 1, 57, 80
5, 76319, Note_on_c, 1, 57, 0
5, 76320, Note_on_c, 1, 60, 80
5, 76559, Note_on_c, 1, 60, 0
5, 76560, Note_on_c, 1, 62, 80
5, 76799, Note_on_c, 1, 62, 0
5, 76800, Note_on_c, 1, 64, 80
5, 77519, Note_on_c, 1, 64, 0
5, 77520, Note_on_c, 1, 60, 80
5, 77639, Note_on_c, 1, 60, 0
5, 77640, Note_on_c, 1, 60, 80
5, 77759, Note_on_c, 1, 60, 0
5, 77760, Note_on_c, 1, 69, 80
5, 77999, Note_on_c, 1, 69, 0
5, 78000, Note_on_c, 1, 69, 80
5, 78239, Note_on_c, 1, 69, 0
5, 78240, Note_on_c, 1, 67, 80
5, 78479, Note_on_c, 1, 67, 0
5, 78480, Note_on_c, 1, 67, 80
5, 78599, Note_on_c, 1, 67, 0
5, 78600, Note_on_c, 1, 67, 80
5, 78719, Note_on_c, 1, 67, 0
5, 78720, Note_on_c, 1, 64, 80
5, 78959, Note_on_c, 1, 64, 0
5, 78960, Note_on_c, 1, 64, 80
5, 79199, Note_on_c, 1, 64, 0
5, 79200, Note_on_c, 1, 62, 80
5, 79439, Note_on_c, 1, 62, 0
5, 79440, Note_on_c, 1, 60, 80
5, 79559, Note_on_c, 1, 60, 0
5, 79560, Note_on_c, 1, 60, 80
5, 79679, Note_on_c, 1, 60, 0
5, 79680, Note_on_c, 1, 64, 80
5, 79919, Note_on_c, 1, 64, 0
5, 79920, Note_on_c, 1, 64, 80
5, 80159, Note_on_c, 1, 64, 0
5, 80160, Note_on_c, 1, 62, 80
5, 80399, Note_on_c, 1, 62, 0
5, 80400, Note_on_c, 1, 60, 80
5, 80639, Note_on_c, 1, 60, 0
5, 80640, Note_on_c, 1, 57, 80
5, 81599, Note_on_c, 1, 57, 0
5, 81600, End_track
0, 0, End_of_file
