0, 0, Header, 1, 3, 480
1, 0, Start_track
1, 0, Title_t, "Piano, Piano\000"
1, 0, Time_signature, 5, 3, 24, 8
1, 0, Key_signature, 0, "major"
1, 0, Tempo, 400000
1, 0, Control_c, 0, 121, 0
1, 0, Program_c, 0, 0
1, 0, Control_c, 0, 7, 100
1, 0, Control_c, 0, 10, 64
1, 0, Control_c, 0, 91, 0
1, 0, Control_c, 0, 93, 0
1, 0, MIDI_port, 0
1, 0, Note_on_c, 0, 69, 80
1, 0, Note_on_c, 0, 76, 80
1, 455, Note_on_c, 0, 69, 0
1, 455, Note_on_c, 0, 76, 0
1, 540, Note_on_c, 0, 74, 80
1, 710, Note_on_c, 0, 74, 0
1, 720, Note_on_c, 0, 72, 80
1, 947, Note_on_c, 0, 72, 0
1, 1020, Note_on_c, 0, 69, 80
1, 1190, Note_on_c, 0, 69, 0
1, 1200, Time_signature, 4, 2, 24, 8
1, 1200, Note_on_c, 0, 64, 80
1, 1200, Note_on_c, 0, 69, 80
1, 1200, Note_on_c, 0, 72, 80
1, 1883, Note_on_c, 0, 64, 0
1, 1883, Note_on_c, 0, 69, 0
1, 1883, Note_on_c, 0, 72, 0
1, 2000, Note_on_c, 0, 76, 80
1, 2379, Note_on_c, 0, 76, 0
1, 2460, Note_on_c, 0, 74, 80
1, 2630, Note_on_c, 0, 74, 0
1, 2640, Note_on_c, 0, 72, 80
1, 2867, Note_on_c, 0, 72, 0
1, 2940, Note_on_c, 0, 69, 80
1, 3110, Note_on_c, 0, 69, 0
1, 3120, Note_on_c, 0, 72, 80
1, 3803, Note_on_c, 0, 72, 0
1, 3920, Note_on_c, 0, 76, 80
1, 4299, Note_on_c, 0, 76, 0
1, 4380, Note_on_c, 0, 74, 80
1, 4550, Note_on_c, 0, 74, 0
1, 4560, Note_on_c, 0, 72, 80
1, 4787, Note_on_c, 0, 72, 0
1, 4860, Note_on_c, 0, 69, 80
1, 5030, Note_on_c, 0, 69, 0
1, 5040, Note_on_c, 0, 72, 80
1, 5495, Note_on_c, 0, 72, 0
1, 5520, Note_on_c, 0, 72, 80
1, 5975, Note_on_c, 0, 72, 0
1, 6000, Note_on_c, 0, 79, 80
1, 6455, Note_on_c, 0, 79, 0
1, 6480, Note_on_c, 0, 76, 80
1, 6935, Note_on_c, 0, 76, 0
1, 7760, Note_on_c, 0, 76, 80
1, 8139, Note_on_c, 0, 76, 0
1, 8220, Note_on_c, 0, 74, 80
1, 8390, Note_on_c, 0, 74, 0
1, 8400, Note_on_c, 0, 72, 80
1, 8627, Note_on_c, 0, 72, 0
1, 8700, Note_on_c, 0, 69, 80
1, 8870, Note_on_c, 0, 69, 0
1, 8880, Note_on_c, 0, 64, 80
1, 8880, Note_on_c, 0, 69, 80
1, 8880, Note_on_c, 0, 72, 80
1, 9563, Note_on_c, 0, 64, 0
1, 9563, Note_on_c, 0, 69, 0
1, 9563, Note_on_c, 0, 72, 0
1, 9680, Note_on_c, 0, 76, 80
1, 10059, Note_on_c, 0, 76, 0
1, 10140, Note_on_c, 0, 74, 80
1, 10310, Note_on_c, 0, 74, 0
1, 10320, Note_on_c, 0, 72, 80
1, 10547, Note_on_c, 0, 72, 0
1, 10620, Note_on_c, 0, 69, 80
1, 10790, Note_on_c, 0, 69, 0
1, 10800, Note_on_c, 0, 72, 80
1, 11483, Note_on_c, 0, 72, 0
1, 11600, Note_on_c, 0, 76, 80
1, 11979, Note_on_c, 0, 76, 0
1, 12060, Note_on_c, 0, 74, 80
1, 12230, Note_on_c, 0, 74, 0
1, 12240, Note_on_c, 0, 72, 80
1, 12467, Note_on_c, 0, 72, 0
1, 12540, Note_on_c, 0, 69, 80
1, 12710, Note_on_c, 0, 69, 0
1, 12720, Note_on_c, 0, 72, 80
1, 13175, Note_on_c, 0, 72, 0
1, 13200, Note_on_c, 0, 72, 80
1, 13655, Note_on_c, 0, 72, 0
1, 13680, Note_on_c, 0, 79, 80
1, 14135, Note_on_c, 0, 79, 0
1, 14160, Note_on_c, 0, 76, 80
1, 14615, Note_on_c, 0, 76, 0
1, 15440, Note_on_c, 0, 76, 80
1, 15819, Note_on_c, 0, 76, 0
1, 15900, Note_on_c, 0, 74, 80
1, 16070, Note_on_c, 0, 74, 0
1, 16080, Note_on_c, 0, 72, 80
1, 16307, Note_on_c, 0, 72, 0
1, 16380, Note_on_c, 0, 69, 80
1, 16550, Note_on_c, 0, 69, 0
1, 16560, Note_on_c, 0, 72, 80
1, 16560, Note_on_c, 0, 76, 80
1, 17243, Note_on_c, 0, 72, 0
1, 17243, Note_on_c, 0, 76, 0
1, 17340, Note_on_c, 0, 67, 80
1, 17510, Note_on_c, 0, 67, 0
1, 17520, Note_on_c, 0, 69, 80
1, 17747, Note_on_c, 0, 69, 0
1, 17820, Note_on_c, 0, 67, 80
1, 17990, Note_on_c, 0, 67, 0
1, 18000, Note_on_c, 0, 69, 80
1, 18227, Note_on_c, 0, 69, 0
1, 18300, Note_on_c, 0, 72, 80
1, 18470, Note_on_c, 0, 72, 0
1, 18480, Note_on_c, 0, 76, 80
1, 18843, Note_on_c, 0, 76, 0
1, 18864, Note_on_c, 0, 76, 80
1, 19227, Note_on_c, 0, 76, 0
1, 19248, Note_on_c, 0, 72, 80
1, 19657, Note_on_c, 0, 72, 0
1, 19740, Note_on_c, 0, 69, 80
1, 19910, Note_on_c, 0, 69, 0
1, 19920, Note_on_c, 0, 67, 80
1, 20375, Note_on_c, 0, 67, 0
1, 20400, Note_on_c, 0, 64, 80
1, 21083, Note_on_c, 0, 64, 0
1, 21180, Note_on_c, 0, 67, 80
1, 21350, Note_on_c, 0, 67, 0
1, 21360, Note_on_c, 0, 69, 80
1, 21587, Note_on_c, 0, 69, 0
1, 21660, Note_on_c, 0, 67, 80
1, 21830, Note_on_c, 0, 67, 0
1, 21840, Note_on_c, 0, 69, 80
1, 22067, Note_on_c, 0, 69, 0
1, 22140, Note_on_c, 0, 72, 80
1, 22310, Note_on_c, 0, 72, 0
1, 22320, Note_on_c, 0, 76, 80
1, 22683, Note_on_c, 0, 76, 0
1, 22704, Note_on_c, 0, 76, 80
1, 23067, Note_on_c, 0, 76, 0
1, 23088, Note_on_c, 0, 72, 80
1, 23497, Note_on_c, 0, 72, 0
1, 24240, Note_on_c, 0, 64, 80
1, 24923, Note_on_c, 0, 64, 0
1, 25020, Note_on_c, 0, 67, 80
1, 25190, Note_on_c, 0, 67, 0
1, 25200, Note_on_c, 0, 69, 80
1, 25427, Note_on_c, 0, 69, 0
1, 25500, Note_on_c, 0, 67, 80
1, 25670, Note_on_c, 0, 67, 0
1, 25680, Note_on_c, 0, 69, 80
1, 25907, Note_on_c, 0, 69, 0
1, 25980, Note_on_c, 0, 72, 80
1, 26150, Note_on_c, 0, 72, 0
1, 26160, Note_on_c, 0, 76, 80
1, 26523, Note_on_c, 0, 76, 0
1, 26544, Note_on_c, 0, 76, 80
1, 26907, Note_on_c, 0, 76, 0
1, 26928, Note_on_c, 0, 72, 80
1, 27337, Note_on_c, 0, 72, 0
1, 27420, Note_on_c, 0, 69, 80
1, 27590, Note_on_c, 0, 69, 0
1, 27600, Note_on_c, 0, 67, 80
1, 28055, Note_on_c, 0, 67, 0
1, 28080, Note_on_c, 0, 64, 80
1, 28763, Note_on_c, 0, 64, 0
1, 28860, Note_on_c, 0, 67, 80
1, 29030, Note_on_c, 0, 67, 0
1, 29040, Note_on_c, 0, 69, 80
1, 29267, Note_on_c, 0, 69, 0
1, 29340, Note_on_c, 0, 67, 80
1, 29510, Note_on_c, 0, 67, 0
1, 29520, Note_on_c, 0, 69, 80
1, 29747, Note_on_c, 0, 69, 0
1, 29820, Note_on_c, 0, 72, 80
1, 29990, Note_on_c, 0, 72, 0
1, 30000, Note_on_c, 0, 76, 80
1, 30363, Note_on_c, 0, 76, 0
1, 30384, Note_on_c, 0, 76, 80
1, 30747, Note_on_c, 0, 76, 0
1, 30768, Note_on_c, 0, 72, 80
1, 31177, Note_on_c, 0, 72, 0
1, 31260, Note_on_c, 0, 74, 80
1, 31430, Note_on_c, 0, 74, 0
1, 31440, Note_on_c, 0, 72, 80
1, 31667, Note_on_c, 0, 72, 0
1, 31740, Note_on_c, 0, 69, 80
1, 31910, Note_on_c, 0, 69, 0
1, 31920, Note_on_c, 0, 64, 80
1, 31920, Note_on_c, 0, 69, 80
1, 31920, Note_on_c, 0, 72, 80
1, 32603, Note_on_c, 0, 64, 0
1, 32603, Note_on_c, 0, 69, 0
1, 32603, Note_on_c, 0, 72, 0
1, 32720, Note_on_c, 0, 76, 80
1, 33099, Note_on_c, 0, 76, 0
1, 33180, Note_on_c, 0, 74, 80
1, 33350, Note_on_c, 0, 74, 0
1, 33360, Note_on_c, 0, 72, 80
1, 33587, Note_on_c, 0, 72, 0
1, 33660, Note_on_c, 0, 69, 80
1, 33830, Note_on_c, 0, 69, 0
1, 33840, Note_on_c, 0, 72, 80
1, 34523, Note_on_c, 0, 72, 0
1, 34640, Note_on_c, 0, 76, 80
1, 35019, Note_on_c, 0, 76, 0
1, 35100, Note_on_c, 0, 74, 80
1, 35270, Note_on_c, 0, 74, 0
1, 35280, Note_on_c, 0, 72, 80
1, 35507, Note_on_c, 0, 72, 0
1, 35580, Note_on_c, 0, 69, 80
1, 35750, Note_on_c, 0, 69, 0
1, 35760, Note_on_c, 0, 72, 80
1, 36215, Note_on_c, 0, 72, 0
1, 36240, Note_on_c, 0, 72, 80
1, 36695, Note_on_c, 0, 72, 0
1, 36720, Note_on_c, 0, 79, 80
1, 37175, Note_on_c, 0, 79, 0
1, 37200, Note_on_c, 0, 76, 80
1, 37655, Note_on_c, 0, 76, 0
1, 38480, Note_on_c, 0, 76, 80
1, 38859, Note_on_c, 0, 76, 0
1, 38940, Note_on_c, 0, 74, 80
1, 39110, Note_on_c, 0, 74, 0
1, 39120, Note_on_c, 0, 72, 80
1, 39347, Note_on_c, 0, 72, 0
1, 39420, Note_on_c, 0, 69, 80
1, 39590, Note_on_c, 0, 69, 0
1, 39600, Note_on_c, 0, 64, 80
1, 39600, Note_on_c, 0, 69, 80
1, 39600, Note_on_c, 0, 72, 80
1, 40283, Note_on_c, 0, 64, 0
1, 40283, Note_on_c, 0, 69, 0
1, 40283, Note_on_c, 0, 72, 0
1, 40400, Note_on_c, 0, 76, 80
1, 40779, Note_on_c, 0, 76, 0
1, 40860, Note_on_c, 0, 74, 80
1, 41030, Note_on_c, 0, 74, 0
1, 41040, Note_on_c, 0, 72, 80
1, 41267, Note_on_c, 0, 72, 0
1, 41340, Note_on_c, 0, 69, 80
1, 41510, Note_on_c, 0, 69, 0
1, 41520, Note_on_c, 0, 72, 80
1, 42203, Note_on_c, 0, 72, 0
1, 42320, Note_on_c, 0, 76, 80
1, 42699, Note_on_c, 0, 76, 0
1, 42780, Note_on_c, 0, 74, 80
1, 42950, Note_on_c, 0, 74, 0
1, 42960, Note_on_c, 0, 72, 80
1, 43187, Note_on_c, 0, 72, 0
1, 43260, Note_on_c, 0, 69, 80
1, 43430, Note_on_c, 0, 69, 0
1, 43440, Note_on_c, 0, 72, 80
1, 43895, Note_on_c, 0, 72, 0
1, 43920, Note_on_c, 0, 72, 80
1, 44375, Note_on_c, 0, 72, 0
1, 44400, Note_on_c, 0, 79, 80
1, 44855, Note_on_c, 0, 79, 0
1, 44880, Note_on_c, 0, 76, 80
1, 45335, Note_on_c, 0, 76, 0
1, 46160, Note_on_c, 0, 76, 80
1, 46539, Note_on_c, 0, 76, 0
1, 46620, Note_on_c, 0, 74, 80
1, 46790, Note_on_c, 0, 74, 0
1, 46800, Note_on_c, 0, 72, 80
1, 47027, Note_on_c, 0, 72, 0
1, 47100, Note_on_c, 0, 69, 80
1, 47270, Note_on_c, 0, 69, 0
1, 47280, Note_on_c, 0, 72, 80
1, 47280, Note_on_c, 0, 76, 80
1, 47963, Note_on_c, 0, 72, 0
1, 47963, Note_on_c, 0, 76, 0
1, 48060, Note_on_c, 0, 67, 80
1, 48230, Note_on_c, 0, 67, 0
1, 48240, Note_on_c, 0, 69, 80
1, 48467, Note_on_c, 0, 69, 0
1, 48540, Note_on_c, 0, 67, 80
1, 48710, Note_on_c, 0, 67, 0
1, 48720, Note_on_c, 0, 69, 80
1, 48947, Note_on_c, 0, 69, 0
1, 49020, Note_on_c, 0, 72, 80
1, 49190, Note_on_c, 0, 72, 0
1, 49200, Note_on_c, 0, 76, 80
1, 49563, Note_on_c, 0, 76, 0
1, 49584, Note_on_c, 0, 76, 80
1, 49947, Note_on_c, 0, 76, 0
1, 49968, Note_on_c, 0, 72, 80
1, 50377, Note_on_c, 0, 72, 0
1, 50460, Note_on_c, 0, 69, 80
1, 50630, Note_on_c, 0, 69, 0
1, 50640, Note_on_c, 0, 67, 80
1, 51095, Note_on_c, 0, 67, 0
1, 51120, Note_on_c, 0, 64, 80
1, 51803, Note_on_c, 0, 64, 0
1, 51900, Note_on_c, 0, 67, 80
1, 52070, Note_on_c, 0, 67, 0
1, 52080, Note_on_c, 0, 69, 80
1, 52307, Note_on_c, 0, 69, 0
1, 52380, Note_on_c, 0, 67, 80
1, 52550, Note_on_c, 0, 67, 0
1, 52560, Note_on_c, 0, 69, 80
1, 52787, Note_on_c, 0, 69, 0
1, 52860, Note_on_c, 0, 72, 80
1, 53030, Note_on_c, 0, 72, 0
1, 53040, Note_on_c, 0, 76, 80
1, 53403, Note_on_c, 0, 76, 0
1, 53424, Note_on_c, 0, 76, 80
1, 53787, Note_on_c, 0, 76, 0
1, 53808, Note_on_c, 0, 72, 80
1, 54217, Note_on_c, 0, 72, 0
1, 54960, Note_on_c, 0, 64, 80
1, 55643, Note_on_c, 0, 64, 0
1, 55740, Note_on_c, 0, 67, 80
1, 55910, Note_on_c, 0, 67, 0
1, 55920, Note_on_c, 0, 69, 80
1, 56147, Note_on_c, 0, 69, 0
1, 56220, Note_on_c, 0, 67, 80
1, 56390, Note_on_c, 0, 67, 0
1, 56400, Note_on_c, 0, 69, 80
1, 56627, Note_on_c, 0, 69, 0
1, 56700, Note_on_c, 0, 72, 80
1, 56870, Note_on_c, 0, 72, 0
1, 56880, Note_on_c, 0, 76, 80
1, 57243, Note_on_c, 0, 76, 0
1, 57264, Note_on_c, 0, 76, 80
1, 57627, Note_on_c, 0, 76, 0
1, 57648, Note_on_c, 0, 72, 80
1, 58057, Note_on_c, 0, 72, 0
1, 58140, Note_on_c, 0, 69, 80
1, 58310, Note_on_c, 0, 69, 0
1, 58320, Note_on_c, 0, 67, 80
1, 58775, Note_on_c, 0, 67, 0
1, 58800, Note_on_c, 0, 76, 80
1, 59580, Note_on_c, 0, 67, 80
1, 59750, Note_on_c, 0, 67, 0
1, 59760, Note_on_c, 0, 69, 80
1, 59987, Note_on_c, 0, 69, 0
1, 60060, Note_on_c, 0, 67, 80
1, 60167, Note_on_c, 0, 76, 0
1, 60230, Note_on_c, 0, 67, 0
1, 60240, Note_on_c, 0, 69, 80
1, 60467, Note_on_c, 0, 69, 0
1, 60540, Note_on_c, 0, 72, 80
1, 60710, Note_on_c, 0, 72, 0
1, 60720, Note_on_c, 0, 76, 80
1, 61083, Note_on_c, 0, 76, 0
1, 61104, Note_on_c, 0, 76, 80
1, 61467, Note_on_c, 0, 76, 0
1, 61488, Note_on_c, 0, 72, 80
1, 61897, Note_on_c, 0, 72, 0
1, 62160, Note_on_c, 0, 69, 80
1, 63071, Note_on_c, 0, 69, 0
1, 63120, Note_on_c, 0, 72, 80
1, 63120, Note_on_c, 0, 79, 80
1, 63575, Note_on_c, 0, 72, 0
1, 63575, Note_on_c, 0, 79, 0
1, 63600, Note_on_c, 0, 72, 80
1, 63600, Note_on_c, 0, 76, 80
1, 64055, Note_on_c, 0, 72, 0
1, 64055, Note_on_c, 0, 76, 0
1, 64080, Note_on_c, 0, 72, 80
1, 64080, Note_on_c, 0, 79, 80
1, 64535, Note_on_c, 0, 72, 0
1, 64535, Note_on_c, 0, 79, 0
1, 64560, Note_on_c, 0, 72, 80
1, 64560, Note_on_c, 0, 76, 80
1, 65015, Note_on_c, 0, 72, 0
1, 65015, Note_on_c, 0, 76, 0
1, 65040, Note_on_c, 0, 72, 80
1, 65040, Note_on_c, 0, 79, 80
1, 65495, Note_on_c, 0, 72, 0
1, 65495, Note_on_c, 0, 79, 0
1, 65520, Note_on_c, 0, 69, 80
1, 65520, Note_on_c, 0, 74, 80
1, 66431, Note_on_c, 0, 69, 0
1, 66431, Note_on_c, 0, 74, 0
1, 66960, Note_on_c, 0, 72, 80
1, 66960, Note_on_c, 0, 79, 80
1, 67415, Note_on_c, 0, 72, 0
1, 67415, Note_on_c, 0, 79, 0
1, 67440, Note_on_c, 0, 72, 80
1, 67440, Note_on_c, 0, 76, 80
1, 67895, Note_on_c, 0, 72, 0
1, 67895, Note_on_c, 0, 76, 0
1, 67920, Note_on_c, 0, 72, 80
1, 67920, Note_on_c, 0, 79, 80
1, 68375, Note_on_c, 0, 72, 0
1, 68375, Note_on_c, 0, 79, 0
1, 68400, Note_on_c, 0, 72, 80
1, 68400, Note_on_c, 0, 76, 80
1, 68855, Note_on_c, 0, 72, 0
1, 68855, Note_on_c, 0, 76, 0
1, 68880, Note_on_c, 0, 72, 80
1, 68880, Note_on_c, 0, 79, 80
1, 69335, Note_on_c, 0, 72, 0
1, 69335, Note_on_c, 0, 79, 0
1, 69360, Note_on_c, 0, 67, 80
1, 69360, Note_on_c, 0, 74, 80
1, 70271, Note_on_c, 0, 67, 0
1, 70271, Note_on_c, 0, 74, 0
1, 70800, Note_on_c, 0, 74, 80
1, 70800, Note_on_c, 0, 79, 80
1, 71255, Note_on_c, 0, 74, 0
1, 71255, Note_on_c, 0, 79, 0
1, 71280, Note_on_c, 0, 74, 80
1, 71280, Note_on_c, 0, 76, 80
1, 71735, Note_on_c, 0, 74, 0
1, 71735, Note_on_c, 0, 76, 0
1, 71760, Note_on_c, 0, 74, 80
1, 71760, Note_on_c, 0, 79, 80
1, 72215, Note_on_c, 0, 74, 0
1, 72215, Note_on_c, 0, 79, 0
1, 72240, Note_on_c, 0, 74, 80
1, 72240, Note_on_c, 0, 76, 80
1, 72695, Note_on_c, 0, 74, 0
1, 72695, Note_on_c, 0, 76, 0
1, 72720, Note_on_c, 0, 74, 80
1, 72720, Note_on_c, 0, 79, 80
1, 73175, Note_on_c, 0, 74, 0
1, 73175, Note_on_c, 0, 79, 0
1, 73200, Note_on_c, 0, 74, 80
1, 74111, Note_on_c, 0, 74, 0
1, 74160, Note_on_c, 0, 69, 80
1, 74160, Note_on_c, 0, 74, 80
1, 74615, Note_on_c, 0, 69, 0
1, 74615, Note_on_c, 0, 74, 0
1, 74640, Note_on_c, 0, 74, 80
1, 75095, Note_on_c, 0, 74, 0
1, 75120, Note_on_c, 0, 74, 80
1, 75575, Note_on_c, 0, 74, 0
1, 75600, Note_on_c, 0, 72, 80
1, 76055, Note_on_c, 0, 72, 0
1, 76080, Note_on_c, 0, 76, 80
1, 76763, Note_on_c, 0, 76, 0
1, 76880, Note_on_c, 0, 72, 80
1, 77487, Note_on_c, 0, 72, 0
1, 77520, Note_on_c, 0, 72, 80
1, 77975, Note_on_c, 0, 72, 0
1, 78480, Note_on_c, 0, 72, 80
1, 78480, Note_on_c, 0, 79, 80
1, 78935, Note_on_c, 0, 72, 0
1, 78935, Note_on_c, 0, 79, 0
1, 78960, Note_on_c, 0, 72, 80
1, 78960, Note_on_c, 0, 76, 80
1, 79415, Note_on_c, 0, 72, 0
1, 79415, Note_on_c, 0, 76, 0
1, 79440, Note_on_c, 0, 72, 80
1, 79440, Note_on_c, 0, 79, 80
1, 79895, Note_on_c, 0, 72, 0
1, 79895, Note_on_c, 0, 79, 0
1, 79920, Note_on_c, 0, 72, 80
1, 79920, Note_on_c, 0, 76, 80
1, 80375, Note_on_c, 0, 72, 0
1, 80375, Note_on_c, 0, 76, 0
1, 80400, Note_on_c, 0, 72, 80
1, 80400, Note_on_c, 0, 79, 80
1, 80855, Note_on_c, 0, 72, 0
1, 80855, Note_on_c, 0, 79, 0
1, 80880, Note_on_c, 0, 69, 80
1, 80880, Note_on_c, 0, 74, 80
1, 81791, Note_on_c, 0, 69, 0
1, 81791, Note_on_c, 0, 74, 0
1, 82320, Note_on_c, 0, 72, 80
1, 82320, Note_on_c, 0, 79, 80
1, 82775, Note_on_c, 0, 72, 0
1, 82775, Note_on_c, 0, 79, 0
1, 82800, Note_on_c, 0, 72, 80
1, 82800, Note_on_c, 0, 76, 80
1, 83255, Note_on_c, 0, 72, 0
1, 83255, Note_on_c, 0, 76, 0
1, 83280, Note_on_c, 0, 72, 80
1, 83280, Note_on_c, 0, 79, 80
1, 83735, Note_on_c, 0, 72, 0
1, 83735, Note_on_c, 0, 79, 0
1, 83760, Note_on_c, 0, 72, 80
1, 83760, Note_on_c, 0, 76, 80
1, 84215, Note_on_c, 0, 72, 0
1, 84215, Note_on_c, 0, 76, 0
1, 84240, Note_on_c, 0, 72, 80
1, 84240, Note_on_c, 0, 79, 80
1, 84695, Note_on_c, 0, 72, 0
1, 84695, Note_on_c, 0, 79, 0
1, 84720, Note_on_c, 0, 67, 80
1, 84720, Note_on_c, 0, 74, 80
1, 85631, Note_on_c, 0, 67, 0
1, 85631, Note_on_c, 0, 74, 0
1, 86160, Note_on_c, 0, 74, 80
1, 86160, Note_on_c, 0, 79, 80
1, 86615, Note_on_c, 0, 74, 0
1, 86615, Note_on_c, 0, 79, 0
1, 86640, Note_on_c, 0, 74, 80
1, 86640, Note_on_c, 0, 76, 80
1, 87095, Note_on_c, 0, 74, 0
1, 87095, Note_on_c, 0, 76, 0
1, 87120, Note_on_c, 0, 74, 80
1, 87120, Note_on_c, 0, 79, 80
1, 87575, Note_on_c, 0, 74, 0
1, 87575, Note_on_c, 0, 79, 0
1, 87600, Note_on_c, 0, 74, 80
1, 87600, Note_on_c, 0, 76, 80
1, 88055, Note_on_c, 0, 74, 0
1, 88055, Note_on_c, 0, 76, 0
1, 88080, Note_on_c, 0, 74, 80
1, 88080, Note_on_c, 0, 79, 80
1, 88535, Note_on_c, 0, 74, 0
1, 88535, Note_on_c, 0, 79, 0
1, 88560, Note_on_c, 0, 74, 80
1, 89471, Note_on_c, 0, 74, 0
1, 89520, Note_on_c, 0, 69, 80
1, 89520, Note_on_c, 0, 74, 80
1, 89975, Note_on_c, 0, 69, 0
1, 89975, Note_on_c, 0, 74, 0
1, 90000, Note_on_c, 0, 74, 80
1, 90455, Note_on_c, 0, 74, 0
1, 90480, Note_on_c, 0, 74, 80
1, 90935, Note_on_c, 0, 74, 0
1, 90960, Note_on_c, 0, 72, 80
1, 91415, Note_on_c, 0, 72, 0
1, 91440, Note_on_c, 0, 76, 80
1, 92123, Note_on_c, 0, 76, 0
1, 92240, Note_on_c, 0, 72, 80
1, 92847, Note_on_c, 0, 72, 0
1, 92880, Note_on_c, 0, 72, 80
1, 93335, Note_on_c, 0, 72, 0
1, 93360, Note_on_c, 0, 64, 80
1, 94043, Note_on_c, 0, 64, 0
1, 94140, Note_on_c, 0, 67, 80
1, 94310, Note_on_c, 0, 67, 0
1, 94320, Note_on_c, 0, 69, 80
1, 94547, Note_on_c, 0, 69, 0
1, 94620, Note_on_c, 0, 67, 80
1, 94790, Note_on_c, 0, 67, 0
1, 94800, Note_on_c, 0, 69, 80
1, 95027, Note_on_c, 0, 69, 0
1, 95100, Note_on_c, 0, 72, 80
1, 95270, Note_on_c, 0, 72, 0
1, 95280, Note_on_c, 0, 76, 80
1, 95643, Note_on_c, 0, 76, 0
1, 95664, Note_on_c, 0, 76, 80
1, 96027, Note_on_c, 0, 76, 0
1, 96048, Note_on_c, 0, 72, 80
1, 96457, Note_on_c, 0, 72, 0
1, 96540, Note_on_c, 0, 69, 80
1, 96710, Note_on_c, 0, 69, 0
1, 96720, Note_on_c, 0, 67, 80
1, 97175, Note_on_c, 0, 67, 0
1, 97200, Note_on_c, 0, 64, 80
1, 97883, Note_on_c, 0, 64, 0
1, 97980, Note_on_c, 0, 67, 80
1, 98150, Note_on_c, 0, 67, 0
1, 98160, Note_on_c, 0, 69, 80
1, 98387, Note_on_c, 0, 69, 0
1, 98460, Note_on_c, 0, 67, 80
1, 98630, Note_on_c, 0, 67, 0
1, 98640, Note_on_c, 0, 69, 80
1, 98867, Note_on_c, 0, 69, 0
1, 98940, Note_on_c, 0, 72, 80
1, 99110, Note_on_c, 0, 72, 0
1, 99120, Note_on_c, 0, 76, 80
1, 99461, Note_on_c, 0, 76, 0
1, 99480, Note_on_c, 0, 76, 80
1, 99821, Note_on_c, 0, 76, 0
1, 99885, Note_on_c, 0, 72, 80
1, 99885, Note_on_c, 0, 60, 80
1, 99898, Note_on_c, 0, 60, 0
1, 100297, Note_on_c, 0, 72, 0
1, 101040, Note_on_c, 0, 64, 80
1, 101723, Note_on_c, 0, 64, 0
1, 101820, Note_on_c, 0, 67, 80
1, 101990, Note_on_c, 0, 67, 0
1, 102000, Note_on_c, 0, 69, 80
1, 102227, Note_on_c, 0, 69, 0
1, 102300, Note_on_c, 0, 67, 80
1, 102470, Note_on_c, 0, 67, 0
1, 102480, Note_on_c, 0, 69, 80
1, 102707, Note_on_c, 0, 69, 0
1, 102780, Note_on_c, 0, 72, 80
1, 102950, Note_on_c, 0, 72, 0
1, 102960, Note_on_c, 0, 76, 80
1, 103323, Note_on_c, 0, 76, 0
1, 103344, Note_on_c, 0, 76, 80
1, 103707, Note_on_c, 0, 76, 0
1, 103728, Note_on_c, 0, 72, 80
1, 104137, Note_on_c, 0, 72, 0
1, 104220, Note_on_c, 0, 69, 80
1, 104390, Note_on_c, 0, 69, 0
1, 104400, Note_on_c, 0, 67, 80
1, 104855, Note_on_c, 0, 67, 0
1, 104880, Note_on_c, 0, 69, 80
1, 104880, Note_on_c, 0, 74, 80
1, 105335, Note_on_c, 0, 69, 0
1, 105335, Note_on_c, 0, 74, 0
1, 105360, Note_on_c, 0, 74, 80
1, 105815, Note_on_c, 0, 74, 0
1, 105840, Note_on_c, 0, 74, 80
1, 106295, Note_on_c, 0, 74, 0
1, 106320, Note_on_c, 0, 72, 80
1, 106775, Note_on_c, 0, 72, 0
1, 106800, Note_on_c, 0, 76, 80
1, 107483, Note_on_c, 0, 76, 0
1, 107565, Note_on_c, 0, 72, 80
1, 107565, Note_on_c, 0, 60, 80
1, 107578, Note_on_c, 0, 60, 0
1, 108205, Note_on_c, 0, 72, 0
1, 108240, Note_on_c, 0, 60, 80
1, 108240, Note_on_c, 0, 72, 80
1, 108695, Note_on_c, 0, 60, 0
1, 108695, Note_on_c, 0, 72, 0
1, 111600, Note_on_c, 0, 79, 80
1, 111827, Note_on_c, 0, 79, 0
1, 111900, Note_on_c, 0, 81, 80
1, 112070, Note_on_c, 0, 81, 0
1, 112080, Note_on_c, 0, 79, 80
1, 112307, Note_on_c, 0, 79, 0
1, 112380, Note_on_c, 0, 74, 80
1, 112550, Note_on_c, 0, 74, 0
1, 112560, Note_on_c, 0, 76, 80
1, 112799, Note_on_c, 0, 76, 0
1, 115440, Note_on_c, 0, 76, 80
1, 116123, Note_on_c, 0, 76, 0
1, 116220, Note_on_c, 0, 72, 80
1, 116390, Note_on_c, 0, 72, 0
1, 116400, Note_on_c, 0, 74, 80
1, 116639, Note_on_c, 0, 74, 0
1, 119280, Note_on_c, 0, 76, 80
1, 120191, Note_on_c, 0, 76, 0
1, 120240, Note_on_c, 0, 72, 80
1, 120240, Note_on_c, 0, 74, 80
1, 120695, Note_on_c, 0, 72, 0
1, 120695, Note_on_c, 0, 74, 0
1, 120720, Note_on_c, 0, 74, 80
1, 121175, Note_on_c, 0, 74, 0
1, 121200, Note_on_c, 0, 74, 80
1, 121655, Note_on_c, 0, 74, 0
1, 121680, Note_on_c, 0, 72, 80
1, 122135, Note_on_c, 0, 72, 0
1, 122160, Note_on_c, 0, 76, 80
1, 122843, Note_on_c, 0, 76, 0
1, 122960, Note_on_c, 0, 72, 80
1, 123567, Note_on_c, 0, 72, 0
1, 123600, Note_on_c, 0, 72, 80
1, 124055, Note_on_c, 0, 72, 0
1, 124080, Note_on_c, 0, 81, 80
1, 124535, Note_on_c, 0, 81, 0
1, 124560, Note_on_c, 0, 79, 80
1, 125015, Note_on_c, 0, 79, 0
1, 125040, Note_on_c, 0, 81, 80
1, 125951, Note_on_c, 0, 81, 0
1, 126000, Note_on_c, 0, 76, 80
1, 126911, Note_on_c, 0, 76, 0
1, 126960, Note_on_c, 0, 74, 80
1, 127415, Note_on_c, 0, 74, 0
1, 127440, Note_on_c, 0, 72, 80
1, 127895, Note_on_c, 0, 72, 0
1, 127920, Note_on_c, 0, 74, 80
1, 128603, Note_on_c, 0, 74, 0
1, 128720, Note_on_c, 0, 76, 80
1, 129327, Note_on_c, 0, 76, 0
1, 129360, Note_on_c, 0, 76, 80
1, 129815, Note_on_c, 0, 76, 0
1, 130320, Note_on_c, 0, 72, 80
1, 130775, Note_on_c, 0, 72, 0
1, 130800, Note_on_c, 0, 72, 80
1, 131255, Note_on_c, 0, 72, 0
1, 131280, Note_on_c, 0, 72, 80
1, 131735, Note_on_c, 0, 72, 0
1, 131760, Note_on_c, 0, 81, 80
1, 132215, Note_on_c, 0, 81, 0
1, 132240, Note_on_c, 0, 79, 80
1, 132695, Note_on_c, 0, 79, 0
1, 132720, Note_on_c, 0, 79, 80
1, 133175, Note_on_c, 0, 79, 0
1, 133200, Note_on_c, 0, 81, 80
1, 133655, Note_on_c, 0, 81, 0
1, 133680, Note_on_c, 0, 76, 80
1, 134135, Note_on_c, 0, 76, 0
1, 134160, Note_on_c, 0, 74, 80
1, 134615, Note_on_c, 0, 74, 0
1, 134640, Note_on_c, 0, 72, 80
1, 135095, Note_on_c, 0, 72, 0
1, 135120, Note_on_c, 0, 74, 80
1, 135575, Note_on_c, 0, 74, 0
1, 135600, Note_on_c, 0, 74, 80
1, 136055, Note_on_c, 0, 74, 0
1, 136080, Note_on_c, 0, 72, 80
1, 136535, Note_on_c, 0, 72, 0
1, 136560, Note_on_c, 0, 72, 80
1, 137015, Note_on_c, 0, 72, 0
1, 137040, Note_on_c, 0, 72, 80
1, 137495, Note_on_c, 0, 72, 0
1, 137520, Note_on_c, 0, 72, 80
1, 137975, Note_on_c, 0, 72, 0
1, 138480, Note_on_c, 0, 72, 80
1, 138935, Note_on_c, 0, 72, 0
1, 138960, Note_on_c, 0, 72, 80
1, 139415, Note_on_c, 0, 72, 0
1, 139440, Note_on_c, 0, 81, 80
1, 139895, Note_on_c, 0, 81, 0
1, 139920, Note_on_c, 0, 79, 80
1, 140375, Note_on_c, 0, 79, 0
1, 140400, Note_on_c, 0, 81, 80
1, 141311, Note_on_c, 0, 81, 0
1, 141360, Note_on_c, 0, 76, 80
1, 142271, Note_on_c, 0, 76, 0
1, 142320, Note_on_c, 0, 74, 80
1, 142775, Note_on_c, 0, 74, 0
1, 142800, Note_on_c, 0, 72, 80
1, 143255, Note_on_c, 0, 72, 0
1, 143280, Note_on_c, 0, 74, 80
1, 143735, Note_on_c, 0, 74, 0
1, 143760, Note_on_c, 0, 76, 80
1, 144671, Note_on_c, 0, 76, 0
1, 144720, Note_on_c, 0, 76, 80
1, 145175, Note_on_c, 0, 76, 0
1, 146160, Note_on_c, 0, 72, 80
1, 146615, Note_on_c, 0, 72, 0
1, 146640, Note_on_c, 0, 72, 80
1, 147095, Note_on_c, 0, 72, 0
1, 147120, Note_on_c, 0, 81, 80
1, 147575, Note_on_c, 0, 81, 0
1, 147600, Note_on_c, 0, 79, 80
1, 148055, Note_on_c, 0, 79, 0
1, 148080, Note_on_c, 0, 81, 80
1, 148535, Note_on_c, 0, 81, 0
1, 148560, Note_on_c, 0, 74, 80
1, 149015, Note_on_c, 0, 74, 0
1, 149040, Note_on_c, 0, 74, 80
1, 149495, Note_on_c, 0, 74, 0
1, 149520, Note_on_c, 0, 74, 80
1, 149975, Note_on_c, 0, 74, 0
1, 150000, Note_on_c, 0, 74, 80
1, 150455, Note_on_c, 0, 74, 0
1, 150480, Note_on_c, 0, 74, 80
1, 150935, Note_on_c, 0, 74, 0
1, 150960, Note_on_c, 0, 74, 80
1, 151643, Note_on_c, 0, 74, 0
1, 151760, Note_on_c, 0, 72, 80
1, 152367, Note_on_c, 0, 72, 0
1, 152400, Note_on_c, 0, 72, 80
1, 152855, Note_on_c, 0, 72, 0
1, 155280, Note_on_c, 0, 67, 80
1, 155735, Note_on_c, 0, 67, 0
1, 155760, Note_on_c, 0, 64, 80
1, 156215, Note_on_c, 0, 64, 0
1, 156240, Note_on_c, 0, 67, 80
1, 156695, Note_on_c, 0, 67, 0
1, 156720, Note_on_c, 0, 64, 80
1, 157175, Note_on_c, 0, 64, 0
1, 157200, Note_on_c, 0, 67, 80
1, 157655, Note_on_c, 0, 67, 0
1, 157680, Note_on_c, 0, 62, 80
1, 158591, Note_on_c, 0, 62, 0
1, 159120, Note_on_c, 0, 67, 80
1, 159575, Note_on_c, 0, 67, 0
1, 159600, Note_on_c, 0, 64, 80
1, 160055, Note_on_c, 0, 64, 0
1, 160080, Note_on_c, 0, 67, 80
1, 160535, Note_on_c, 0, 67, 0
1, 160560, Note_on_c, 0, 64, 80
1, 161015, Note_on_c, 0, 64, 0
1, 161040, Note_on_c, 0, 67, 80
1, 161495, Note_on_c, 0, 67, 0
1, 161520, Note_on_c, 0, 62, 80
1, 162431, Note_on_c, 0, 62, 0
1, 162960, Note_on_c, 0, 67, 80
1, 163415, Note_on_c, 0, 67, 0
1, 163440, Note_on_c, 0, 64, 80
1, 163895, Note_on_c, 0, 64, 0
1, 163920, Note_on_c, 0, 67, 80
1, 164375, Note_on_c, 0, 67, 0
1, 164400, Note_on_c, 0, 64, 80
1, 164855, Note_on_c, 0, 64, 0
1, 164880, Note_on_c, 0, 67, 80
1, 165335, Note_on_c, 0, 67, 0
1, 165360, Note_on_c, 0, 62, 80
1, 166271, Note_on_c, 0, 62, 0
1, 166320, Note_on_c, 0, 62, 80
1, 166775, Note_on_c, 0, 62, 0
1, 166800, Note_on_c, 0, 62, 80
1, 167255, Note_on_c, 0, 62, 0
1, 167280, Note_on_c, 0, 62, 80
1, 167735, Note_on_c, 0, 62, 0
1, 167760, Note_on_c, 0, 60, 80
1, 168215, Note_on_c, 0, 60, 0
1, 168240, Note_on_c, 0, 64, 80
1, 168923, Note_on_c, 0, 64, 0
1, 169040, Note_on_c, 0, 60, 80
1, 169647, Note_on_c, 0, 60, 0
1, 169680, Note_on_c, 0, 60, 80
1, 170135, Note_on_c, 0, 60, 0
1, 170640, Note_on_c, 0, 79, 80
1, 171095, Note_on_c, 0, 79, 0
1, 171120, Note_on_c, 0, 76, 80
1, 171575, Note_on_c, 0, 76, 0
1, 171600, Note_on_c, 0, 79, 80
1, 172055, Note_on_c, 0, 79, 0
1, 172080, Note_on_c, 0, 76, 80
1, 172535, Note_on_c, 0, 76, 0
1, 172560, Note_on_c, 0, 79, 80
1, 173015, Note_on_c, 0, 79, 0
1, 173040, Note_on_c, 0, 74, 80
1, 173951, Note_on_c, 0, 74, 0
1, 174480, Note_on_c, 0, 79, 80
1, 174935, Note_on_c, 0, 79, 0
1, 174960, Note_on_c, 0, 76, 80
1, 175415, Note_on_c, 0, 76, 0
1, 175440, Note_on_c, 0, 79, 80
1, 175895, Note_on_c, 0, 79, 0
1, 175920, Note_on_c, 0, 76, 80
1, 176375, Note_on_c, 0, 76, 0
1, 176400, Note_on_c, 0, 79, 80
1, 176855, Note_on_c, 0, 79, 0
1, 176880, Note_on_c, 0, 74, 80
1, 177791, Note_on_c, 0, 74, 0
1, 178320, Note_on_c, 0, 79, 80
1, 178775, Note_on_c, 0, 79, 0
1, 178800, Note_on_c, 0, 76, 80
1, 179255, Note_on_c, 0, 76, 0
1, 179280, Note_on_c, 0, 79, 80
1, 179735, Note_on_c, 0, 79, 0
1, 179760, Note_on_c, 0, 76, 80
1, 180215, Note_on_c, 0, 76, 0
1, 180240, Note_on_c, 0, 79, 80
1, 180695, Note_on_c, 0, 79, 0
1, 180720, Note_on_c, 0, 74, 80
1, 181631, Note_on_c, 0, 74, 0
1, 181680, Note_on_c, 0, 74, 80
1, 181680, Note_on_c, 0, 79, 80
1, 182135, Note_on_c, 0, 74, 0
1, 182135, Note_on_c, 0, 79, 0
1, 182160, Note_on_c, 0, 74, 80
1, 182160, Note_on_c, 0, 79, 80
1, 182615, Note_on_c, 0, 74, 0
1, 182615, Note_on_c, 0, 79, 0
1, 182640, Note_on_c, 0, 74, 80
1, 182640, Note_on_c, 0, 79, 80
1, 183095, Note_on_c, 0, 74, 0
1, 183095, Note_on_c, 0, 79, 0
1, 183120, Note_on_c, 0, 72, 80
1, 183120, Note_on_c, 0, 79, 80
1, 183575, Note_on_c, 0, 72, 0
1, 183575, Note_on_c, 0, 79, 0
1, 183600, Note_on_c, 0, 76, 80
1, 183600, Note_on_c, 0, 81, 80
1, 184283, Note_on_c, 0, 76, 0
1, 184283, Note_on_c, 0, 81, 0
1, 184400, Note_on_c, 0, 72, 80
1, 184400, Note_on_c, 0, 79, 80
1, 184400, Note_on_c, 0, 84, 80
1, 185007, Note_on_c, 0, 72, 0
1, 185007, Note_on_c, 0, 79, 0
1, 185007, Note_on_c, 0, 84, 0
1, 185040, Note_on_c, 0, 72, 80
1, 185040, Note_on_c, 0, 79, 80
1, 185040, Note_on_c, 0, 84, 80
1, 185495, Note_on_c, 0, 72, 0
1, 185495, Note_on_c, 0, 79, 0
1, 185495, Note_on_c, 0, 84, 0
1, 185520, Note_on_c, 0, 64, 80
1, 186203, Note_on_c, 0, 64, 0
1, 186300, Note_on_c, 0, 67, 80
1, 186470, Note_on_c, 0, 67, 0
1, 186480, Note_on_c, 0, 69, 80
1, 186707, Note_on_c, 0, 69, 0
1, 186780, Note_on_c, 0, 67, 80
1, 186950, Note_on_c, 0, 67, 0
1, 186960, Note_on_c, 0, 69, 80
1, 187187, Note_on_c, 0, 69, 0
1, 187260, Note_on_c, 0, 72, 80
1, 187430, Note_on_c, 0, 72, 0
1, 187440, Note_on_c, 0, 76, 80
1, 187803, Note_on_c, 0, 76, 0
1, 187824, Note_on_c, 0, 76, 80
1, 188187, Note_on_c, 0, 76, 0
1, 188208, Note_on_c, 0, 72, 80
1, 188617, Note_on_c, 0, 72, 0
1, 188700, Note_on_c, 0, 69, 80
1, 188870, Note_on_c, 0, 69, 0
1, 188880, Note_on_c, 0, 67, 80
1, 189335, Note_on_c, 0, 67, 0
1, 189360, Note_on_c, 0, 64, 80
1, 190043, Note_on_c, 0, 64, 0
1, 190140, Note_on_c, 0, 67, 80
1, 190310, Note_on_c, 0, 67, 0
1, 190320, Note_on_c, 0, 69, 80
1, 190547, Note_on_c, 0, 69, 0
1, 190620, Note_on_c, 0, 67, 80
1, 190790, Note_on_c, 0, 67, 0
1, 190800, Note_on_c, 0, 69, 80
1, 191027, Note_on_c, 0, 69, 0
1, 191100, Note_on_c, 0, 72, 80
1, 191270, Note_on_c, 0, 72, 0
1, 191280, Note_on_c, 0, 76, 80
1, 191621, Note_on_c, 0, 76, 0
1, 191640, Note_on_c, 0, 76, 80
1, 191981, Note_on_c, 0, 76, 0
1, 192045, Note_on_c, 0, 72, 80
1, 192045, Note_on_c, 0, 60, 80
1, 192058, Note_on_c, 0, 60, 0
1, 192457, Note_on_c, 0, 72, 0
1, 193200, Note_on_c, 0, 64, 80
1, 193883, Note_on_c, 0, 64, 0
1, 193980, Note_on_c, 0, 67, 80
1, 194150, Note_on_c, 0, 67, 0
1, 194160, Note_on_c, 0, 69, 80
1, 194387, Note_on_c, 0, 69, 0
1, 194460, Note_on_c, 0, 67, 80
1, 194630, Note_on_c, 0, 67, 0
1, 194640, Note_on_c, 0, 69, 80
1, 194867, Note_on_c, 0, 69, 0
1, 194940, Note_on_c, 0, 72, 80
1, 195110, Note_on_c, 0, 72, 0
1, 195120, Note_on_c, 0, 76, 80
1, 195483, Note_on_c, 0, 76, 0
1, 195504, Note_on_c, 0, 76, 80
1, 195867, Note_on_c, 0, 76, 0
1, 195888, Note_on_c, 0, 72, 80
1, 196297, Note_on_c, 0, 72, 0
1, 196380, Note_on_c, 0, 69, 80
1, 196550, Note_on_c, 0, 69, 0
1, 196560, Note_on_c, 0, 67, 80
1, 197015, Note_on_c, 0, 67, 0
1, 197040, Note_on_c, 0, 69, 80
1, 197040, Note_on_c, 0, 74, 80
1, 197495, Note_on_c, 0, 69, 0
1, 197495, Note_on_c, 0, 74, 0
1, 197520, Note_on_c, 0, 74, 80
1, 197975, Note_on_c, 0, 74, 0
1, 198000, Note_on_c, 0, 74, 80
1, 198455, Note_on_c, 0, 74, 0
1, 198480, Note_on_c, 0, 72, 80
1, 198935, Note_on_c, 0, 72, 0
1, 198960, Note_on_c, 0, 64, 80
1, 198960, Note_on_c, 0, 69, 80
1, 199643, Note_on_c, 0, 64, 0
1, 199643, Note_on_c, 0, 69, 0
1, 199760, Note_on_c, 0, 67, 80
1, 199760, Note_on_c, 0, 72, 80
1, 200367, Note_on_c, 0, 67, 0
1, 200367, Note_on_c, 0, 72, 0
1, 200400, Note_on_c, 0, 60, 80
1, 200400, Note_on_c, 0, 67, 80
1, 200400, Note_on_c, 0, 72, 80
1, 200855, Note_on_c, 0, 60, 0
1, 200855, Note_on_c, 0, 67, 0
1, 200855, Note_on_c, 0, 72, 0
1, 200880, Note_on_c, 0, 64, 80
1, 201563, Note_on_c, 0, 64, 0
1, 201660, Note_on_c, 0, 67, 80
1, 201830, Note_on_c, 0, 67, 0
1, 201840, Note_on_c, 0, 69, 80
1, 202067, Note_on_c, 0, 69, 0
1, 202140, Note_on_c, 0, 67, 80
1, 202310, Note_on_c, 0, 67, 0
1, 202320, Note_on_c, 0, 69, 80
1, 202320, Note_on_c, 0, 64, 80
1, 202559, Note_on_c, 0, 69, 0
1, 202620, Note_on_c, 0, 72, 80
1, 202775, Note_on_c, 0, 64, 0
1, 202790, Note_on_c, 0, 72, 0
1, 202800, Note_on_c, 0, 76, 80
1, 203163, Note_on_c, 0, 76, 0
1, 203184, Note_on_c, 0, 76, 80
1, 203547, Note_on_c, 0, 76, 0
1, 203568, Note_on_c, 0, 72, 80
1, 203760, Note_on_c, 0, 67, 80
1, 203977, Note_on_c, 0, 72, 0
1, 204060, Note_on_c, 0, 69, 80
1, 204215, Note_on_c, 0, 67, 0
1, 204230, Note_on_c, 0, 69, 0
1, 204240, Note_on_c, 0, 62, 80
1, 204240, Note_on_c, 0, 67, 80
1, 204695, Note_on_c, 0, 62, 0
1, 204695, Note_on_c, 0, 67, 0
1, 204720, Note_on_c, 0, 64, 80
1, 205403, Note_on_c, 0, 64, 0
1, 205500, Note_on_c, 0, 67, 80
1, 205670, Note_on_c, 0, 67, 0
1, 205680, Note_on_c, 0, 69, 80
1, 205907, Note_on_c, 0, 69, 0
1, 205980, Note_on_c, 0, 67, 80
1, 206150, Note_on_c, 0, 67, 0
1, 206160, Note_on_c, 0, 69, 80
1, 206160, Note_on_c, 0, 64, 80
1, 206399, Note_on_c, 0, 69, 0
1, 206460, Note_on_c, 0, 72, 80
1, 206615, Note_on_c, 0, 64, 0
1, 206630, Note_on_c, 0, 72, 0
1, 206640, Note_on_c, 0, 76, 80
1, 207003, Note_on_c, 0, 76, 0
1, 207024, Note_on_c, 0, 76, 80
1, 207387, Note_on_c, 0, 76, 0
1, 207408, Note_on_c, 0, 72, 80
1, 207600, Note_on_c, 0, 67, 80
1, 207817, Note_on_c, 0, 72, 0
1, 208055, Note_on_c, 0, 67, 0
1, 208080, Note_on_c, 0, 62, 80
1, 208080, Note_on_c, 0, 62, 0
1, 208560, Note_on_c, 0, 64, 80
1, 209243, Note_on_c, 0, 64, 0
1, 209340, Note_on_c, 0, 67, 80
1, 209510, Note_on_c, 0, 67, 0
1, 209520, Note_on_c, 0, 69, 80
1, 209747, Note_on_c, 0, 69, 0
1, 209820, Note_on_c, 0, 67, 80
1, 209990, Note_on_c, 0, 67, 0
1, 210000, Note_on_c, 0, 69, 80
1, 210000, Note_on_c, 0, 64, 80
1, 210239, Note_on_c, 0, 69, 0
1, 210300, Note_on_c, 0, 72, 80
1, 210455, Note_on_c, 0, 64, 0
1, 210470, Note_on_c, 0, 72, 0
1, 210480, Note_on_c, 0, 76, 80
1, 210843, Note_on_c, 0, 76, 0
1, 210864, Note_on_c, 0, 76, 80
1, 211227, Note_on_c, 0, 76, 0
1, 211248, Note_on_c, 0, 72, 80
1, 211440, Note_on_c, 0, 67, 80
1, 211657, Note_on_c, 0, 72, 0
1, 211740, Note_on_c, 0, 69, 80
1, 211895, Note_on_c, 0, 67, 0
1, 211910, Note_on_c, 0, 69, 0
1, 211920, Note_on_c, 0, 62, 80
1, 211920, Note_on_c, 0, 67, 80
1, 212159, Note_on_c, 0, 62, 0
1, 212159, Note_on_c, 0, 67, 0
1, 212400, Note_on_c, 0, 74, 80
1, 212855, Note_on_c, 0, 74, 0
1, 212880, Note_on_c, 0, 74, 80
1, 213335, Note_on_c, 0, 74, 0
1, 213360, Note_on_c, 0, 74, 80
1, 213815, Note_on_c, 0, 74, 0
1, 213840, Note_on_c, 0, 72, 80
1, 214295, Note_on_c, 0, 72, 0
1, 214320, Note_on_c, 0, 76, 80
1, 215003, Note_on_c, 0, 76, 0
1, 215120, Note_on_c, 0, 72, 80
1, 215727, Note_on_c, 0, 72, 0
1, 215760, Note_on_c, 0, 72, 80
1, 216215, Note_on_c, 0, 72, 0
1, 216216, End_track
2, 0, Start_track
2, 0, Title_t, "Piano, Piano\000"
2, 0, Key_signature, 0, "major"
2, 0, MIDI_port, 0
2, 16560, Note_on_c, 0, 52, 80
2, 16560, Note_on_c, 0, 57, 80
2, 16799, Note_on_c, 0, 52, 0
2, 16799, Note_on_c, 0, 57, 0
2, 17040, Note_on_c, 0, 52, 80
2, 17040, Note_on_c, 0, 57, 80
2, 17279, Note_on_c, 0, 52, 0
2, 17279, Note_on_c, 0, 57, 0
2, 17520, Note_on_c, 0, 52, 80
2, 17520, Note_on_c, 0, 57, 80
2, 17759, Note_on_c, 0, 52, 0
2, 17759, Note_on_c, 0, 57, 0
2, 18480, Note_on_c, 0, 52, 80
2, 18480, Note_on_c, 0, 57, 80
2, 18935, Note_on_c, 0, 52, 0
2, 18935, Note_on_c, 0, 57, 0
2, 18960, Note_on_c, 0, 52, 80
2, 18960, Note_on_c, 0, 57, 80
2, 19415, Note_on_c, 0, 52, 0
2, 19415, Note_on_c, 0, 57, 0
2, 19440, Note_on_c, 0, 52, 80
2, 19440, Note_on_c, 0, 57, 80
2, 19895, Note_on_c, 0, 52, 0
2, 19895, Note_on_c, 0, 57, 0
2, 20400, Note_on_c, 0, 48, 80
2, 20400, Note_on_c, 0, 55, 80
2, 20855, Note_on_c, 0, 48, 0
2, 20855, Note_on_c, 0, 55, 0
2, 20880, Note_on_c, 0, 48, 80
2, 20880, Note_on_c, 0, 55, 80
2, 21335, Note_on_c, 0, 48, 0
2, 21335, Note_on_c, 0, 55, 0
2, 21360, Note_on_c, 0, 48, 80
2, 21360, Note_on_c, 0, 55, 80
2, 21815, Note_on_c, 0, 48, 0
2, 21815, Note_on_c, 0, 55, 0
2, 22320, Note_on_c, 0, 48, 80
2, 22320, Note_on_c, 0, 55, 80
2, 22775, Note_on_c, 0, 48, 0
2, 22775, Note_on_c, 0, 55, 0
2, 22800, Note_on_c, 0, 48, 80
2, 22800, Note_on_c, 0, 55, 80
2, 23039, Note_on_c, 0, 48, 0
2, 23039, Note_on_c, 0, 55, 0
2, 23280, Note_on_c, 0, 48, 80
2, 23280, Note_on_c, 0, 55, 80
2, 23519, Note_on_c, 0, 48, 0
2, 23519, Note_on_c, 0, 55, 0
2, 24240, Note_on_c, 0, 50, 80
2, 24240, Note_on_c, 0, 57, 80
2, 24695, Note_on_c, 0, 50, 0
2, 24695, Note_on_c, 0, 57, 0
2, 24720, Note_on_c, 0, 50, 80
2, 24720, Note_on_c, 0, 57, 80
2, 25175, Note_on_c, 0, 50, 0
2, 25175, Note_on_c, 0, 57, 0
2, 25200, Note_on_c, 0, 50, 80
2, 25200, Note_on_c, 0, 57, 80
2, 25655, Note_on_c, 0, 50, 0
2, 25655, Note_on_c, 0, 57, 0
2, 26160, Note_on_c, 0, 50, 80
2, 26160, Note_on_c, 0, 57, 80
2, 26615, Note_on_c, 0, 50, 0
2, 26615, Note_on_c, 0, 57, 0
2, 26640, Note_on_c, 0, 50, 80
2, 26640, Note_on_c, 0, 57, 80
2, 27095, Note_on_c, 0, 50, 0
2, 27095, Note_on_c, 0, 57, 0
2, 27120, Note_on_c, 0, 50, 80
2, 27120, Note_on_c, 0, 57, 80
2, 27575, Note_on_c, 0, 50, 0
2, 27575, Note_on_c, 0, 57, 0
2, 28080, Note_on_c, 0, 48, 80
2, 28080, Note_on_c, 0, 53, 80
2, 28319, Note_on_c, 0, 48, 0
2, 28319, Note_on_c, 0, 53, 0
2, 28560, Note_on_c, 0, 53, 80
2, 28799, Note_on_c, 0, 53, 0
2, 29040, Note_on_c, 0, 60, 80
2, 29040, Note_on_c, 0, 65, 80
2, 29279, Note_on_c, 0, 60, 0
2, 29279, Note_on_c, 0, 65, 0
2, 31920, Note_on_c, 0, 52, 80
2, 31920, Note_on_c, 0, 57, 80
2, 32159, Note_on_c, 0, 52, 0
2, 32159, Note_on_c, 0, 57, 0
2, 32400, Note_on_c, 0, 52, 80
2, 32400, Note_on_c, 0, 57, 80
2, 32639, Note_on_c, 0, 52, 0
2, 32639, Note_on_c, 0, 57, 0
2, 32880, Note_on_c, 0, 52, 80
2, 32880, Note_on_c, 0, 57, 80
2, 33119, Note_on_c, 0, 52, 0
2, 33119, Note_on_c, 0, 57, 0
2, 33840, Note_on_c, 0, 52, 80
2, 33840, Note_on_c, 0, 57, 80
2, 34079, Note_on_c, 0, 52, 0
2, 34079, Note_on_c, 0, 57, 0
2, 34320, Note_on_c, 0, 52, 80
2, 34320, Note_on_c, 0, 57, 80
2, 34559, Note_on_c, 0, 52, 0
2, 34559, Note_on_c, 0, 57, 0
2, 34800, Note_on_c, 0, 52, 80
2, 34800, Note_on_c, 0, 57, 80
2, 35039, Note_on_c, 0, 52, 0
2, 35039, Note_on_c, 0, 57, 0
2, 35760, Note_on_c, 0, 48, 80
2, 35760, Note_on_c, 0, 55, 80
2, 36215, Note_on_c, 0, 48, 0
2, 36215, Note_on_c, 0, 55, 0
2, 36240, Note_on_c, 0, 48, 80
2, 36240, Note_on_c, 0, 55, 80
2, 36479, Note_on_c, 0, 48, 0
2, 36479, Note_on_c, 0, 55, 0
2, 36720, Note_on_c, 0, 48, 80
2, 36720, Note_on_c, 0, 55, 80
2, 36959, Note_on_c, 0, 48, 0
2, 36959, Note_on_c, 0, 55, 0
2, 37680, Note_on_c, 0, 50, 80
2, 37680, Note_on_c, 0, 57, 80
2, 38135, Note_on_c, 0, 50, 0
2, 38135, Note_on_c, 0, 57, 0
2, 38160, Note_on_c, 0, 50, 80
2, 38160, Note_on_c, 0, 57, 80
2, 38615, Note_on_c, 0, 50, 0
2, 38615, Note_on_c, 0, 57, 0
2, 38640, Note_on_c, 0, 50, 80
2, 38640, Note_on_c, 0, 57, 80
2, 39095, Note_on_c, 0, 50, 0
2, 39095, Note_on_c, 0, 57, 0
2, 39600, Note_on_c, 0, 52, 80
2, 39600, Note_on_c, 0, 57, 80
2, 39839, Note_on_c, 0, 52, 0
2, 39839, Note_on_c, 0, 57, 0
2, 40080, Note_on_c, 0, 52, 80
2, 40080, Note_on_c, 0, 57, 80
2, 40319, Note_on_c, 0, 52, 0
2, 40319, Note_on_c, 0, 57, 0
2, 40560, Note_on_c, 0, 52, 80
2, 40560, Note_on_c, 0, 57, 80
2, 40799, Note_on_c, 0, 52, 0
2, 40799, Note_on_c, 0, 57, 0
2, 41520, Note_on_c, 0, 52, 80
2, 41520, Note_on_c, 0, 57, 80
2, 41759, Note_on_c, 0, 52, 0
2, 41759, Note_on_c, 0, 57, 0
2, 42000, Note_on_c, 0, 52, 80
2, 42000, Note_on_c, 0, 57, 80
2, 42239, Note_on_c, 0, 52, 0
2, 42239, Note_on_c, 0, 57, 0
2, 42480, Note_on_c, 0, 52, 80
2, 42480, Note_on_c, 0, 57, 80
2, 42719, Note_on_c, 0, 52, 0
2, 42719, Note_on_c, 0, 57, 0
2, 43440, Note_on_c, 0, 48, 80
2, 43440, Note_on_c, 0, 55, 80
2, 43895, Note_on_c, 0, 48, 0
2, 43895, Note_on_c, 0, 55, 0
2, 43920, Note_on_c, 0, 48, 80
2, 43920, Note_on_c, 0, 55, 80
2, 44159, Note_on_c, 0, 48, 0
2, 44159, Note_on_c, 0, 55, 0
2, 44400, Note_on_c, 0, 48, 80
2, 44400, Note_on_c, 0, 55, 80
2, 44639, Note_on_c, 0, 48, 0
2, 44639, Note_on_c, 0, 55, 0
2, 45360, Note_on_c, 0, 50, 80
2, 45360, Note_on_c, 0, 57, 80
2, 45815, Note_on_c, 0, 50, 0
2, 45815, Note_on_c, 0, 57, 0
2, 45840, Note_on_c, 0, 50, 80
2, 45840, Note_on_c, 0, 57, 80
2, 46295, Note_on_c, 0, 50, 0
2, 46295, Note_on_c, 0, 57, 0
2, 46320, Note_on_c, 0, 50, 80
2, 46320, Note_on_c, 0, 57, 80
2, 46775, Note_on_c, 0, 50, 0
2, 46775, Note_on_c, 0, 57, 0
2, 47280, Note_on_c, 0, 57, 80
2, 47280, Note_on_c, 0, 64, 80
2, 47519, Note_on_c, 0, 57, 0
2, 47519, Note_on_c, 0, 64, 0
2, 47760, Note_on_c, 0, 52, 80
2, 47760, Note_on_c, 0, 57, 80
2, 47987, Note_on_c, 0, 52, 0
2, 47987, Note_on_c, 0, 57, 0
2, 48060, Note_on_c, 0, 55, 80
2, 48230, Note_on_c, 0, 55, 0
2, 48240, Note_on_c, 0, 52, 80
2, 48240, Note_on_c, 0, 57, 80
2, 48467, Note_on_c, 0, 52, 0
2, 48467, Note_on_c, 0, 57, 0
2, 48540, Note_on_c, 0, 55, 80
2, 48710, Note_on_c, 0, 55, 0
2, 48720, Note_on_c, 0, 57, 80
2, 48947, Note_on_c, 0, 57, 0
2, 49020, Note_on_c, 0, 60, 80
2, 49190, Note_on_c, 0, 60, 0
2, 49200, Note_on_c, 0, 52, 80
2, 49200, Note_on_c, 0, 57, 80
2, 49541, Note_on_c, 0, 52, 0
2, 49541, Note_on_c, 0, 57, 0
2, 49560, Note_on_c, 0, 57, 80
2, 49673, Note_on_c, 0, 57, 0
2, 49680, Note_on_c, 0, 52, 80
2, 49680, Note_on_c, 0, 57, 80
2, 49907, Note_on_c, 0, 52, 0
2, 49907, Note_on_c, 0, 57, 0
2, 49980, Note_on_c, 0, 60, 80
2, 50150, Note_on_c, 0, 60, 0
2, 50160, Note_on_c, 0, 52, 80
2, 50160, Note_on_c, 0, 57, 80
2, 50387, Note_on_c, 0, 52, 0
2, 50387, Note_on_c, 0, 57, 0
2, 50460, Note_on_c, 0, 57, 80
2, 50630, Note_on_c, 0, 57, 0
2, 50640, Note_on_c, 0, 55, 80
2, 50879, Note_on_c, 0, 55, 0
2, 51120, Note_on_c, 0, 48, 80
2, 51120, Note_on_c, 0, 52, 80
2, 51120, Note_on_c, 0, 55, 80
2, 51575, Note_on_c, 0, 48, 0
2, 51575, Note_on_c, 0, 52, 0
2, 51575, Note_on_c, 0, 55, 0
2, 51600, Note_on_c, 0, 48, 80
2, 51600, Note_on_c, 0, 55, 80
2, 51827, Note_on_c, 0, 48, 0
2, 51827, Note_on_c, 0, 55, 0
2, 51900, Note_on_c, 0, 55, 80
2, 52070, Note_on_c, 0, 55, 0
2, 52080, Note_on_c, 0, 48, 80
2, 52080, Note_on_c, 0, 55, 80
2, 52080, Note_on_c, 0, 57, 80
2, 52307, Note_on_c, 0, 48, 0
2, 52307, Note_on_c, 0, 55, 0
2, 52307, Note_on_c, 0, 57, 0
2, 52380, Note_on_c, 0, 55, 80
2, 52550, Note_on_c, 0, 55, 0
2, 52560, Note_on_c, 0, 57, 80
2, 52787, Note_on_c, 0, 57, 0
2, 52860, Note_on_c, 0, 60, 80
2, 53030, Note_on_c, 0, 60, 0
2, 53040, Note_on_c, 0, 48, 80
2, 53040, Note_on_c, 0, 55, 80
2, 53040, Note_on_c, 0, 64, 80
2, 53495, Note_on_c, 0, 48, 0
2, 53495, Note_on_c, 0, 55, 0
2, 53495, Note_on_c, 0, 64, 0
2, 53520, Note_on_c, 0, 48, 80
2, 53520, Note_on_c, 0, 55, 80
2, 53520, Note_on_c, 0, 62, 80
2, 53747, Note_on_c, 0, 48, 0
2, 53747, Note_on_c, 0, 55, 0
2, 53747, Note_on_c, 0, 62, 0
2, 53820, Note_on_c, 0, 60, 80
2, 53990, Note_on_c, 0, 60, 0
2, 54000, Note_on_c, 0, 48, 80
2, 54000, Note_on_c, 0, 55, 80
2, 54455, Note_on_c, 0, 48, 0
2, 54455, Note_on_c, 0, 55, 0
2, 54480, Note_on_c, 0, 57, 80
2, 54480, Note_on_c, 0, 62, 80
2, 54935, Note_on_c, 0, 57, 0
2, 54935, Note_on_c, 0, 62, 0
2, 54960, Note_on_c, 0, 50, 80
2, 54960, Note_on_c, 0, 52, 80
2, 54960, Note_on_c, 0, 57, 80
2, 55415, Note_on_c, 0, 50, 0
2, 55415, Note_on_c, 0, 52, 0
2, 55415, Note_on_c, 0, 57, 0
2, 55440, Note_on_c, 0, 50, 80
2, 55440, Note_on_c, 0, 53, 80
2, 55440, Note_on_c, 0, 57, 80
2, 55667, Note_on_c, 0, 50, 0
2, 55667, Note_on_c, 0, 53, 0
2, 55667, Note_on_c, 0, 57, 0
2, 55740, Note_on_c, 0, 55, 80
2, 55910, Note_on_c, 0, 55, 0
2, 55920, Note_on_c, 0, 50, 80
2, 55920, Note_on_c, 0, 57, 80
2, 56147, Note_on_c, 0, 50, 0
2, 56147, Note_on_c, 0, 57, 0
2, 56220, Note_on_c, 0, 55, 80
2, 56390, Note_on_c, 0, 55, 0
2, 56400, Note_on_c, 0, 57, 80
2, 56627, Note_on_c, 0, 57, 0
2, 56700, Note_on_c, 0, 60, 80
2, 56870, Note_on_c, 0, 60, 0
2, 56880, Note_on_c, 0, 50, 80
2, 56880, Note_on_c, 0, 57, 80
2, 56880, Note_on_c, 0, 64, 80
2, 57335, Note_on_c, 0, 50, 0
2, 57335, Note_on_c, 0, 57, 0
2, 57335, Note_on_c, 0, 64, 0
2, 57360, Note_on_c, 0, 50, 80
2, 57360, Note_on_c, 0, 57, 80
2, 57587, Note_on_c, 0, 50, 0
2, 57587, Note_on_c, 0, 57, 0
2, 57660, Note_on_c, 0, 60, 80
2, 57830, Note_on_c, 0, 60, 0
2, 57840, Note_on_c, 0, 50, 80
2, 57840, Note_on_c, 0, 57, 80
2, 58067, Note_on_c, 0, 50, 0
2, 58067, Note_on_c, 0, 57, 0
2, 58140, Note_on_c, 0, 57, 80
2, 58310, Note_on_c, 0, 57, 0
2, 58320, Note_on_c, 0, 55, 80
2, 58775, Note_on_c, 0, 55, 0
2, 58800, Note_on_c, 0, 48, 80
2, 58800, Note_on_c, 0, 53, 80
2, 58800, Note_on_c, 0, 64, 80
2, 59039, Note_on_c, 0, 48, 0
2, 59039, Note_on_c, 0, 53, 0
2, 59039, Note_on_c, 0, 64, 0
2, 59280, Note_on_c, 0, 48, 80
2, 59280, Note_on_c, 0, 53, 80
2, 59507, Note_on_c, 0, 48, 0
2, 59507, Note_on_c, 0, 53, 0
2, 59580, Note_on_c, 0, 55, 80
2, 59750, Note_on_c, 0, 55, 0
2, 59760, Note_on_c, 0, 57, 80
2, 59760, Note_on_c, 0, 60, 80
2, 59760, Note_on_c, 0, 65, 80
2, 59987, Note_on_c, 0, 57, 0
2, 59987, Note_on_c, 0, 60, 0
2, 59987, Note_on_c, 0, 65, 0
2, 60060, Note_on_c, 0, 55, 80
2, 60230, Note_on_c, 0, 55, 0
2, 60240, Note_on_c, 0, 57, 80
2, 60467, Note_on_c, 0, 57, 0
2, 60540, Note_on_c, 0, 60, 80
2, 60710, Note_on_c, 0, 60, 0
2, 60720, Note_on_c, 0, 53, 80
2, 60720, Note_on_c, 0, 64, 80
2, 61061, Note_on_c, 0, 53, 0
2, 61061, Note_on_c, 0, 64, 0
2, 61080, Note_on_c, 0, 64, 80
2, 61421, Note_on_c, 0, 64, 0
2, 61500, Note_on_c, 0, 60, 80
2, 61670, Note_on_c, 0, 60, 0
2, 62640, Note_on_c, 0, 52, 80
2, 62640, Note_on_c, 0, 57, 80
2, 63095, Note_on_c, 0, 52, 0
2, 63095, Note_on_c, 0, 57, 0
2, 63120, Note_on_c, 0, 52, 80
2, 63120, Note_on_c, 0, 57, 80
2, 63120, Note_on_c, 0, 67, 80
2, 63575, Note_on_c, 0, 52, 0
2, 63575, Note_on_c, 0, 57, 0
2, 63575, Note_on_c, 0, 67, 0
2, 63600, Note_on_c, 0, 57, 80
2, 63600, Note_on_c, 0, 64, 80
2, 64055, Note_on_c, 0, 57, 0
2, 64055, Note_on_c, 0, 64, 0
2, 64080, Note_on_c, 0, 67, 80
2, 64307, Note_on_c, 0, 67, 0
2, 64380, Note_on_c, 0, 57, 80
2, 64550, Note_on_c, 0, 57, 0
2, 64560, Note_on_c, 0, 52, 80
2, 64560, Note_on_c, 0, 57, 80
2, 64560, Note_on_c, 0, 64, 80
2, 65015, Note_on_c, 0, 52, 0
2, 65015, Note_on_c, 0, 57, 0
2, 65015, Note_on_c, 0, 64, 0
2, 65040, Note_on_c, 0, 52, 80
2, 65040, Note_on_c, 0, 57, 80
2, 65040, Note_on_c, 0, 67, 80
2, 65495, Note_on_c, 0, 52, 0
2, 65495, Note_on_c, 0, 57, 0
2, 65495, Note_on_c, 0, 67, 0
2, 65520, Note_on_c, 0, 52, 80
2, 65520, Note_on_c, 0, 57, 80
2, 65520, Note_on_c, 0, 62, 80
2, 65975, Note_on_c, 0, 52, 0
2, 65975, Note_on_c, 0, 57, 0
2, 65975, Note_on_c, 0, 62, 0
2, 66300, Note_on_c, 0, 57, 80
2, 66470, Note_on_c, 0, 57, 0
2, 66480, Note_on_c, 0, 55, 80
2, 66480, Note_on_c, 0, 60, 80
2, 66935, Note_on_c, 0, 55, 0
2, 66935, Note_on_c, 0, 60, 0
2, 66960, Note_on_c, 0, 60, 80
2, 66960, Note_on_c, 0, 67, 80
2, 67415, Note_on_c, 0, 60, 0
2, 67415, Note_on_c, 0, 67, 0
2, 67440, Note_on_c, 0, 55, 80
2, 67440, Note_on_c, 0, 60, 80
2, 67440, Note_on_c, 0, 64, 80
2, 67895, Note_on_c, 0, 55, 0
2, 67895, Note_on_c, 0, 60, 0
2, 67895, Note_on_c, 0, 64, 0
2, 67920, Note_on_c, 0, 67, 80
2, 68375, Note_on_c, 0, 67, 0
2, 68400, Note_on_c, 0, 55, 80
2, 68400, Note_on_c, 0, 60, 80
2, 68400, Note_on_c, 0, 64, 80
2, 68855, Note_on_c, 0, 55, 0
2, 68855, Note_on_c, 0, 60, 0
2, 68855, Note_on_c, 0, 64, 0
2, 68880, Note_on_c, 0, 60, 80
2, 68880, Note_on_c, 0, 67, 80
2, 69119, Note_on_c, 0, 60, 0
2, 69119, Note_on_c, 0, 67, 0
2, 69360, Note_on_c, 0, 55, 80
2, 69360, Note_on_c, 0, 60, 80
2, 69360, Note_on_c, 0, 62, 80
2, 69599, Note_on_c, 0, 55, 0
2, 69599, Note_on_c, 0, 60, 0
2, 69599, Note_on_c, 0, 62, 0
2, 70320, Note_on_c, 0, 57, 80
2, 70320, Note_on_c, 0, 62, 80
2, 70775, Note_on_c, 0, 57, 0
2, 70775, Note_on_c, 0, 62, 0
2, 70800, Note_on_c, 0, 57, 80
2, 70800, Note_on_c, 0, 62, 80
2, 70800, Note_on_c, 0, 67, 80
2, 71255, Note_on_c, 0, 57, 0
2, 71255, Note_on_c, 0, 62, 0
2, 71255, Note_on_c, 0, 67, 0
2, 71280, Note_on_c, 0, 57, 80
2, 71280, Note_on_c, 0, 62, 80
2, 71280, Note_on_c, 0, 64, 80
2, 71735, Note_on_c, 0, 57, 0
2, 71735, Note_on_c, 0, 62, 0
2, 71735, Note_on_c, 0, 64, 0
2, 71760, Note_on_c, 0, 67, 80
2, 72215, Note_on_c, 0, 67, 0
2, 72240, Note_on_c, 0, 57, 80
2, 72240, Note_on_c, 0, 62, 80
2, 72240, Note_on_c, 0, 64, 80
2, 72479, Note_on_c, 0, 57, 0
2, 72479, Note_on_c, 0, 62, 0
2, 72479, Note_on_c, 0, 64, 0
2, 72720, Note_on_c, 0, 57, 80
2, 72720, Note_on_c, 0, 62, 80
2, 72720, Note_on_c, 0, 67, 80
2, 72959, Note_on_c, 0, 57, 0
2, 72959, Note_on_c, 0, 62, 0
2, 72959, Note_on_c, 0, 67, 0
2, 73200, Note_on_c, 0, 57, 80
2, 73200, Note_on_c, 0, 62, 80
2, 73439, Note_on_c, 0, 57, 0
2, 73439, Note_on_c, 0, 62, 0
2, 74160, Note_on_c, 0, 53, 80
2, 74160, Note_on_c, 0, 62, 80
2, 74615, Note_on_c, 0, 53, 0
2, 74615, Note_on_c, 0, 62, 0
2, 74640, Note_on_c, 0, 53, 80
2, 74640, Note_on_c, 0, 62, 80
2, 74879, Note_on_c, 0, 53, 0
2, 74879, Note_on_c, 0, 62, 0
2, 75120, Note_on_c, 0, 62, 80
2, 75120, Note_on_c, 0, 65, 80
2, 75359, Note_on_c, 0, 62, 0
2, 75359, Note_on_c, 0, 65, 0
2, 75600, Note_on_c, 0, 53, 80
2, 75600, Note_on_c, 0, 60, 80
2, 75839, Note_on_c, 0, 53, 0
2, 75839, Note_on_c, 0, 60, 0
2, 76080, Note_on_c, 0, 53, 80
2, 76080, Note_on_c, 0, 60, 80
2, 76080, Note_on_c, 0, 64, 80
2, 76535, Note_on_c, 0, 53, 0
2, 76535, Note_on_c, 0, 60, 0
2, 76535, Note_on_c, 0, 64, 0
2, 76560, Note_on_c, 0, 53, 80
2, 76560, Note_on_c, 0, 60, 80
2, 76787, Note_on_c, 0, 53, 0
2, 76787, Note_on_c, 0, 60, 0
2, 76860, Note_on_c, 0, 60, 80
2, 77030, Note_on_c, 0, 60, 0
2, 77040, Note_on_c, 0, 60, 80
2, 77040, Note_on_c, 0, 65, 80
2, 77267, Note_on_c, 0, 60, 0
2, 77267, Note_on_c, 0, 65, 0
2, 77340, Note_on_c, 0, 53, 80
2, 77510, Note_on_c, 0, 53, 0
2, 77520, Note_on_c, 0, 60, 80
2, 77747, Note_on_c, 0, 60, 0
2, 77820, Note_on_c, 0, 65, 80
2, 77990, Note_on_c, 0, 65, 0
2, 78000, Note_on_c, 0, 52, 80
2, 78000, Note_on_c, 0, 57, 80
2, 78455, Note_on_c, 0, 52, 0
2, 78455, Note_on_c, 0, 57, 0
2, 78480, Note_on_c, 0, 52, 80
2, 78480, Note_on_c, 0, 57, 80
2, 78480, Note_on_c, 0, 67, 80
2, 78935, Note_on_c, 0, 52, 0
2, 78935, Note_on_c, 0, 57, 0
2, 78935, Note_on_c, 0, 67, 0
2, 78960, Note_on_c, 0, 57, 80
2, 78960, Note_on_c, 0, 64, 80
2, 79415, Note_on_c, 0, 57, 0
2, 79415, Note_on_c, 0, 64, 0
2, 79440, Note_on_c, 0, 67, 80
2, 79667, Note_on_c, 0, 67, 0
2, 79740, Note_on_c, 0, 57, 80
2, 79910, Note_on_c, 0, 57, 0
2, 79920, Note_on_c, 0, 52, 80
2, 79920, Note_on_c, 0, 57, 80
2, 79920, Note_on_c, 0, 64, 80
2, 80375, Note_on_c, 0, 52, 0
2, 80375, Note_on_c, 0, 57, 0
2, 80375, Note_on_c, 0, 64, 0
2, 80400, Note_on_c, 0, 52, 80
2, 80400, Note_on_c, 0, 57, 80
2, 80400, Note_on_c, 0, 67, 80
2, 80855, Note_on_c, 0, 52, 0
2, 80855, Note_on_c, 0, 57, 0
2, 80855, Note_on_c, 0, 67, 0
2, 80880, Note_on_c, 0, 52, 80
2, 80880, Note_on_c, 0, 57, 80
2, 80880, Note_on_c, 0, 62, 80
2, 81335, Note_on_c, 0, 52, 0
2, 81335, Note_on_c, 0, 57, 0
2, 81335, Note_on_c, 0, 62, 0
2, 81660, Note_on_c, 0, 57, 80
2, 81830, Note_on_c, 0, 57, 0
2, 81840, Note_on_c, 0, 55, 80
2, 81840, Note_on_c, 0, 60, 80
2, 82295, Note_on_c, 0, 55, 0
2, 82295, Note_on_c, 0, 60, 0
2, 82320, Note_on_c, 0, 60, 80
2, 82320, Note_on_c, 0, 67, 80
2, 82775, Note_on_c, 0, 60, 0
2, 82775, Note_on_c, 0, 67, 0
2, 82800, Note_on_c, 0, 55, 80
2, 82800, Note_on_c, 0, 60, 80
2, 82800, Note_on_c, 0, 64, 80
2, 83255, Note_on_c, 0, 55, 0
2, 83255, Note_on_c, 0, 60, 0
2, 83255, Note_on_c, 0, 64, 0
2, 83280, Note_on_c, 0, 67, 80
2, 83735, Note_on_c, 0, 67, 0
2, 83760, Note_on_c, 0, 55, 80
2, 83760, Note_on_c, 0, 60, 80
2, 83760, Note_on_c, 0, 64, 80
2, 84215, Note_on_c, 0, 55, 0
2, 84215, Note_on_c, 0, 60, 0
2, 84215, Note_on_c, 0, 64, 0
2, 84240, Note_on_c, 0, 60, 80
2, 84240, Note_on_c, 0, 67, 80
2, 84479, Note_on_c, 0, 60, 0
2, 84479, Note_on_c, 0, 67, 0
2, 84720, Note_on_c, 0, 55, 80
2, 84720, Note_on_c, 0, 60, 80
2, 84720, Note_on_c, 0, 62, 80
2, 84959, Note_on_c, 0, 55, 0
2, 84959, Note_on_c, 0, 60, 0
2, 84959, Note_on_c, 0, 62, 0
2, 85680, Note_on_c, 0, 57, 80
2, 85680, Note_on_c, 0, 62, 80
2, 86135, Note_on_c, 0, 57, 0
2, 86135, Note_on_c, 0, 62, 0
2, 86160, Note_on_c, 0, 57, 80
2, 86160, Note_on_c, 0, 62, 80
2, 86160, Note_on_c, 0, 67, 80
2, 86615, Note_on_c, 0, 57, 0
2, 86615, Note_on_c, 0, 62, 0
2, 86615, Note_on_c, 0, 67, 0
2, 86640, Note_on_c, 0, 57, 80
2, 86640, Note_on_c, 0, 62, 80
2, 86640, Note_on_c, 0, 64, 80
2, 87095, Note_on_c, 0, 57, 0
2, 87095, Note_on_c, 0, 62, 0
2, 87095, Note_on_c, 0, 64, 0
2, 87120, Note_on_c, 0, 67, 80
2, 87575, Note_on_c, 0, 67, 0
2, 87600, Note_on_c, 0, 57, 80
2, 87600, Note_on_c, 0, 62, 80
2, 87600, Note_on_c, 0, 64, 80
2, 87839, Note_on_c, 0, 57, 0
2, 87839, Note_on_c, 0, 62, 0
2, 87839, Note_on_c, 0, 64, 0
2, 88080, Note_on_c, 0, 57, 80
2, 88080, Note_on_c, 0, 62, 80
2, 88080, Note_on_c, 0, 67, 80
2, 88319, Note_on_c, 0, 57, 0
2, 88319, Note_on_c, 0, 62, 0
2, 88319, Note_on_c, 0, 67, 0
2, 88560, Note_on_c, 0, 57, 80
2, 88560, Note_on_c, 0, 62, 80
2, 88799, Note_on_c, 0, 57, 0
2, 88799, Note_on_c, 0, 62, 0
2, 89520, Note_on_c, 0, 53, 80
2, 89520, Note_on_c, 0, 62, 80
2, 89975, Note_on_c, 0, 53, 0
2, 89975, Note_on_c, 0, 62, 0
2, 90000, Note_on_c, 0, 53, 80
2, 90000, Note_on_c, 0, 62, 80
2, 90239, Note_on_c, 0, 53, 0
2, 90239, Note_on_c, 0, 62, 0
2, 90480, Note_on_c, 0, 62, 80
2, 90480, Note_on_c, 0, 65, 80
2, 90719, Note_on_c, 0, 62, 0
2, 90719, Note_on_c, 0, 65, 0
2, 90960, Note_on_c, 0, 53, 80
2, 90960, Note_on_c, 0, 60, 80
2, 91199, Note_on_c, 0, 53, 0
2, 91199, Note_on_c, 0, 60, 0
2, 91440, Note_on_c, 0, 53, 80
2, 91440, Note_on_c, 0, 60, 80
2, 91440, Note_on_c, 0, 64, 80
2, 91895, Note_on_c, 0, 53, 0
2, 91895, Note_on_c, 0, 60, 0
2, 91895, Note_on_c, 0, 64, 0
2, 91920, Note_on_c, 0, 53, 80
2, 91920, Note_on_c, 0, 60, 80
2, 92147, Note_on_c, 0, 53, 0
2, 92147, Note_on_c, 0, 60, 0
2, 92220, Note_on_c, 0, 60, 80
2, 92390, Note_on_c, 0, 60, 0
2, 92400, Note_on_c, 0, 60, 80
2, 92400, Note_on_c, 0, 65, 80
2, 92627, Note_on_c, 0, 60, 0
2, 92627, Note_on_c, 0, 65, 0
2, 92700, Note_on_c, 0, 53, 80
2, 92870, Note_on_c, 0, 53, 0
2, 92880, Note_on_c, 0, 60, 80
2, 93107, Note_on_c, 0, 60, 0
2, 93180, Note_on_c, 0, 65, 80
2, 93350, Note_on_c, 0, 65, 0
2, 93360, Note_on_c, 0, 52, 80
2, 93360, Note_on_c, 0, 57, 80
2, 93599, Note_on_c, 0, 52, 0
2, 93599, Note_on_c, 0, 57, 0
2, 93840, Note_on_c, 0, 52, 80
2, 93840, Note_on_c, 0, 57, 80
2, 94067, Note_on_c, 0, 52, 0
2, 94067, Note_on_c, 0, 57, 0
2, 94140, Note_on_c, 0, 55, 80
2, 94310, Note_on_c, 0, 55, 0
2, 94320, Note_on_c, 0, 52, 80
2, 94320, Note_on_c, 0, 57, 80
2, 94547, Note_on_c, 0, 52, 0
2, 94547, Note_on_c, 0, 57, 0
2, 94620, Note_on_c, 0, 55, 80
2, 94790, Note_on_c, 0, 55, 0
2, 94800, Note_on_c, 0, 57, 80
2, 95027, Note_on_c, 0, 57, 0
2, 95100, Note_on_c, 0, 60, 80
2, 95270, Note_on_c, 0, 60, 0
2, 95280, Note_on_c, 0, 57, 80
2, 95280, Note_on_c, 0, 64, 80
2, 95735, Note_on_c, 0, 57, 0
2, 95735, Note_on_c, 0, 64, 0
2, 95760, Note_on_c, 0, 52, 80
2, 95760, Note_on_c, 0, 57, 80
2, 95987, Note_on_c, 0, 52, 0
2, 95987, Note_on_c, 0, 57, 0
2, 96060, Note_on_c, 0, 60, 80
2, 96230, Note_on_c, 0, 60, 0
2, 96240, Note_on_c, 0, 52, 80
2, 96240, Note_on_c, 0, 57, 80
2, 96467, Note_on_c, 0, 52, 0
2, 96467, Note_on_c, 0, 57, 0
2, 96540, Note_on_c, 0, 57, 80
2, 96710, Note_on_c, 0, 57, 0
2, 96720, Note_on_c, 0, 55, 80
2, 96959, Note_on_c, 0, 55, 0
2, 97200, Note_on_c, 0, 48, 80
2, 97200, Note_on_c, 0, 52, 80
2, 97200, Note_on_c, 0, 55, 80
2, 97655, Note_on_c, 0, 48, 0
2, 97655, Note_on_c, 0, 52, 0
2, 97655, Note_on_c, 0, 55, 0
2, 97680, Note_on_c, 0, 48, 80
2, 97680, Note_on_c, 0, 55, 80
2, 97907, Note_on_c, 0, 48, 0
2, 97907, Note_on_c, 0, 55, 0
2, 97980, Note_on_c, 0, 55, 80
2, 98150, Note_on_c, 0, 55, 0
2, 98160, Note_on_c, 0, 48, 80
2, 98160, Note_on_c, 0, 55, 80
2, 98160, Note_on_c, 0, 57, 80
2, 98387, Note_on_c, 0, 48, 0
2, 98387, Note_on_c, 0, 55, 0
2, 98387, Note_on_c, 0, 57, 0
2, 98460, Note_on_c, 0, 55, 80
2, 98630, Note_on_c, 0, 55, 0
2, 98640, Note_on_c, 0, 57, 80
2, 98867, Note_on_c, 0, 57, 0
2, 98940, Note_on_c, 0, 60, 80
2, 99110, Note_on_c, 0, 60, 0
2, 99120, Note_on_c, 0, 48, 80
2, 99120, Note_on_c, 0, 55, 80
2, 99120, Note_on_c, 0, 64, 80
2, 99575, Note_on_c, 0, 48, 0
2, 99575, Note_on_c, 0, 55, 0
2, 99575, Note_on_c, 0, 64, 0
2, 99600, Note_on_c, 0, 48, 80
2, 99600, Note_on_c, 0, 55, 80
2, 99839, Note_on_c, 0, 55, 0
2, 99903, Note_on_c, 0, 48, 0
2, 99920, Note_on_c, 0, 60, 80
2, 100080, Note_on_c, 0, 48, 80
2, 100080, Note_on_c, 0, 55, 80
2, 100299, Note_on_c, 0, 60, 0
2, 100319, Note_on_c, 0, 48, 0
2, 100319, Note_on_c, 0, 55, 0
2, 101040, Note_on_c, 0, 50, 80
2, 101040, Note_on_c, 0, 52, 80
2, 101040, Note_on_c, 0, 57, 80
2, 101495, Note_on_c, 0, 50, 0
2, 101495, Note_on_c, 0, 52, 0
2, 101495, Note_on_c, 0, 57, 0
2, 101520, Note_on_c, 0, 50, 80
2, 101520, Note_on_c, 0, 57, 80
2, 101747, Note_on_c, 0, 50, 0
2, 101747, Note_on_c, 0, 57, 0
2, 101820, Note_on_c, 0, 55, 80
2, 101990, Note_on_c, 0, 55, 0
2, 102000, Note_on_c, 0, 50, 80
2, 102000, Note_on_c, 0, 57, 80
2, 102227, Note_on_c, 0, 50, 0
2, 102227, Note_on_c, 0, 57, 0
2, 102300, Note_on_c, 0, 55, 80
2, 102470, Note_on_c, 0, 55, 0
2, 102480, Note_on_c, 0, 57, 80
2, 102707, Note_on_c, 0, 57, 0
2, 102780, Note_on_c, 0, 60, 80
2, 102950, Note_on_c, 0, 60, 0
2, 102960, Note_on_c, 0, 50, 80
2, 102960, Note_on_c, 0, 57, 80
2, 102960, Note_on_c, 0, 64, 80
2, 103415, Note_on_c, 0, 50, 0
2, 103415, Note_on_c, 0, 57, 0
2, 103415, Note_on_c, 0, 64, 0
2, 103440, Note_on_c, 0, 50, 80
2, 103440, Note_on_c, 0, 57, 80
2, 103667, Note_on_c, 0, 50, 0
2, 103667, Note_on_c, 0, 57, 0
2, 103740, Note_on_c, 0, 60, 80
2, 103910, Note_on_c, 0, 60, 0
2, 103920, Note_on_c, 0, 50, 80
2, 103920, Note_on_c, 0, 57, 80
2, 104147, Note_on_c, 0, 50, 0
2, 104147, Note_on_c, 0, 57, 0
2, 104220, Note_on_c, 0, 57, 80
2, 104390, Note_on_c, 0, 57, 0
2, 104400, Note_on_c, 0, 55, 80
2, 104639, Note_on_c, 0, 55, 0
2, 104880, Note_on_c, 0, 57, 80
2, 104880, Note_on_c, 0, 62, 80
2, 105335, Note_on_c, 0, 57, 0
2, 105335, Note_on_c, 0, 62, 0
2, 105360, Note_on_c, 0, 62, 80
2, 105599, Note_on_c, 0, 62, 0
2, 105840, Note_on_c, 0, 60, 80
2, 105840, Note_on_c, 0, 65, 80
2, 106079, Note_on_c, 0, 60, 0
2, 106079, Note_on_c, 0, 65, 0
2, 106320, Note_on_c, 0, 53, 80
2, 106320, Note_on_c, 0, 60, 80
2, 106559, Note_on_c, 0, 53, 0
2, 106559, Note_on_c, 0, 60, 0
2, 106800, Note_on_c, 0, 60, 80
2, 106800, Note_on_c, 0, 64, 80
2, 107255, Note_on_c, 0, 60, 0
2, 107255, Note_on_c, 0, 64, 0
2, 107280, Note_on_c, 0, 53, 80
2, 107583, Note_on_c, 0, 53, 0
2, 107600, Note_on_c, 0, 60, 80
2, 107751, Note_on_c, 0, 60, 0
2, 107760, Note_on_c, 0, 65, 80
2, 107760, Note_on_c, 0, 60, 80
2, 107999, Note_on_c, 0, 65, 0
2, 108060, Note_on_c, 0, 53, 80
2, 108215, Note_on_c, 0, 60, 0
2, 108230, Note_on_c, 0, 53, 0
2, 108540, Note_on_c, 0, 65, 80
2, 108710, Note_on_c, 0, 65, 0
2, 108720, Note_on_c, 0, 57, 80
2, 109175, Note_on_c, 0, 57, 0
2, 109200, Note_on_c, 0, 57, 80
2, 109655, Note_on_c, 0, 57, 0
2, 109680, Note_on_c, 0, 57, 80
2, 110135, Note_on_c, 0, 57, 0
2, 110160, Note_on_c, 0, 57, 80
2, 110615, Note_on_c, 0, 57, 0
2, 110640, Note_on_c, 0, 57, 80
2, 111095, Note_on_c, 0, 57, 0
2, 111120, Note_on_c, 0, 57, 80
2, 111575, Note_on_c, 0, 57, 0
2, 111600, Note_on_c, 0, 59, 80
2, 112055, Note_on_c, 0, 59, 0
2, 112080, Note_on_c, 0, 59, 80
2, 112535, Note_on_c, 0, 59, 0
2, 112560, Note_on_c, 0, 60, 80
2, 113015, Note_on_c, 0, 60, 0
2, 113040, Note_on_c, 0, 60, 80
2, 113495, Note_on_c, 0, 60, 0
2, 113520, Note_on_c, 0, 60, 80
2, 113975, Note_on_c, 0, 60, 0
2, 114000, Note_on_c, 0, 60, 80
2, 114455, Note_on_c, 0, 60, 0
2, 114480, Note_on_c, 0, 60, 80
2, 114935, Note_on_c, 0, 60, 0
2, 114960, Note_on_c, 0, 60, 80
2, 115415, Note_on_c, 0, 60, 0
2, 115440, Note_on_c, 0, 64, 80
2, 115895, Note_on_c, 0, 64, 0
2, 115920, Note_on_c, 0, 64, 80
2, 116375, Note_on_c, 0, 64, 0
2, 116400, Note_on_c, 0, 62, 80
2, 116855, Note_on_c, 0, 62, 0
2, 116880, Note_on_c, 0, 62, 80
2, 117335, Note_on_c, 0, 62, 0
2, 117360, Note_on_c, 0, 62, 80
2, 117815, Note_on_c, 0, 62, 0
2, 117840, Note_on_c, 0, 62, 80
2, 118295, Note_on_c, 0, 62, 0
2, 118320, Note_on_c, 0, 62, 80
2, 118775, Note_on_c, 0, 62, 0
2, 118800, Note_on_c, 0, 62, 80
2, 119255, Note_on_c, 0, 62, 0
2, 119280, Note_on_c, 0, 64, 80
2, 119735, Note_on_c, 0, 64, 0
2, 119760, Note_on_c, 0, 64, 80
2, 120215, Note_on_c, 0, 64, 0
2, 120240, Note_on_c, 0, 65, 80
2, 120695, Note_on_c, 0, 65, 0
2, 120720, Note_on_c, 0, 65, 80
2, 121175, Note_on_c, 0, 65, 0
2, 121200, Note_on_c, 0, 65, 80
2, 121655, Note_on_c, 0, 65, 0
2, 121680, Note_on_c, 0, 65, 80
2, 122135, Note_on_c, 0, 65, 0
2, 122160, Note_on_c, 0, 65, 80
2, 122615, Note_on_c, 0, 65, 0
2, 122640, Note_on_c, 0, 65, 80
2, 123095, Note_on_c, 0, 65, 0
2, 123120, Note_on_c, 0, 60, 80
2, 123120, Note_on_c, 0, 65, 80
2, 123575, Note_on_c, 0, 60, 0
2, 123575, Note_on_c, 0, 65, 0
2, 123600, Note_on_c, 0, 60, 80
2, 123600, Note_on_c, 0, 65, 80
2, 124055, Note_on_c, 0, 60, 0
2, 124055, Note_on_c, 0, 65, 0
2, 124080, Note_on_c, 0, 57, 80
2, 124535, Note_on_c, 0, 57, 0
2, 124560, Note_on_c, 0, 57, 80
2, 125015, Note_on_c, 0, 57, 0
2, 125040, Note_on_c, 0, 57, 80
2, 125495, Note_on_c, 0, 57, 0
2, 125520, Note_on_c, 0, 57, 80
2, 125975, Note_on_c, 0, 57, 0
2, 126000, Note_on_c, 0, 57, 80
2, 126455, Note_on_c, 0, 57, 0
2, 126480, Note_on_c, 0, 57, 80
2, 126935, Note_on_c, 0, 57, 0
2, 126960, Note_on_c, 0, 59, 80
2, 127415, Note_on_c, 0, 59, 0
2, 127440, Note_on_c, 0, 59, 80
2, 127895, Note_on_c, 0, 59, 0
2, 127920, Note_on_c, 0, 60, 80
2, 128375, Note_on_c, 0, 60, 0
2, 128400, Note_on_c, 0, 60, 80
2, 128855, Note_on_c, 0, 60, 0
2, 128880, Note_on_c, 0, 60, 80
2, 129335, Note_on_c, 0, 60, 0
2, 129360, Note_on_c, 0, 60, 80
2, 129815, Note_on_c, 0, 60, 0
2, 129840, Note_on_c, 0, 60, 80
2, 130295, Note_on_c, 0, 60, 0
2, 130320, Note_on_c, 0, 60, 80
2, 130775, Note_on_c, 0, 60, 0
2, 130800, Note_on_c, 0, 64, 80
2, 131255, Note_on_c, 0, 64, 0
2, 131280, Note_on_c, 0, 64, 80
2, 131735, Note_on_c, 0, 64, 0
2, 131760, Note_on_c, 0, 62, 80
2, 132215, Note_on_c, 0, 62, 0
2, 132240, Note_on_c, 0, 62, 80
2, 132695, Note_on_c, 0, 62, 0
2, 132720, Note_on_c, 0, 62, 80
2, 133175, Note_on_c, 0, 62, 0
2, 133200, Note_on_c, 0, 62, 80
2, 133655, Note_on_c, 0, 62, 0
2, 133680, Note_on_c, 0, 62, 80
2, 134135, Note_on_c, 0, 62, 0
2, 134160, Note_on_c, 0, 62, 80
2, 134615, Note_on_c, 0, 62, 0
2, 134640, Note_on_c, 0, 64, 80
2, 135095, Note_on_c, 0, 64, 0
2, 135120, Note_on_c, 0, 64, 80
2, 135575, Note_on_c, 0, 64, 0
2, 135600, Note_on_c, 0, 65, 80
2, 136055, Note_on_c, 0, 65, 0
2, 136080, Note_on_c, 0, 65, 80
2, 136535, Note_on_c, 0, 65, 0
2, 136560, Note_on_c, 0, 65, 80
2, 137015, Note_on_c, 0, 65, 0
2, 137040, Note_on_c, 0, 65, 80
2, 137495, Note_on_c, 0, 65, 0
2, 137520, Note_on_c, 0, 65, 80
2, 137975, Note_on_c, 0, 65, 0
2, 138000, Note_on_c, 0, 65, 80
2, 138455, Note_on_c, 0, 65, 0
2, 138480, Note_on_c, 0, 60, 80
2, 138480, Note_on_c, 0, 65, 80
2, 138935, Note_on_c, 0, 60, 0
2, 138935, Note_on_c, 0, 65, 0
2, 138960, Note_on_c, 0, 60, 80
2, 138960, Note_on_c, 0, 65, 80
2, 139415, Note_on_c, 0, 60, 0
2, 139415, Note_on_c, 0, 65, 0
2, 139440, Note_on_c, 0, 69, 80
2, 139895, Note_on_c, 0, 69, 0
2, 139920, Note_on_c, 0, 67, 80
2, 140375, Note_on_c, 0, 67, 0
2, 140400, Note_on_c, 0, 69, 80
2, 141311, Note_on_c, 0, 69, 0
2, 141360, Note_on_c, 0, 64, 80
2, 142271, Note_on_c, 0, 64, 0
2, 142320, Note_on_c, 0, 62, 80
2, 142775, Note_on_c, 0, 62, 0
2, 142800, Note_on_c, 0, 60, 80
2, 143255, Note_on_c, 0, 60, 0
2, 143280, Note_on_c, 0, 62, 80
2, 143735, Note_on_c, 0, 62, 0
2, 143760, Note_on_c, 0, 64, 80
2, 144671, Note_on_c, 0, 64, 0
2, 144720, Note_on_c, 0, 64, 80
2, 145175, Note_on_c, 0, 64, 0
2, 146160, Note_on_c, 0, 60, 80
2, 146615, Note_on_c, 0, 60, 0
2, 146640, Note_on_c, 0, 60, 80
2, 147095, Note_on_c, 0, 60, 0
2, 147120, Note_on_c, 0, 69, 80
2, 147575, Note_on_c, 0, 69, 0
2, 147600, Note_on_c, 0, 67, 80
2, 148055, Note_on_c, 0, 67, 0
2, 148080, Note_on_c, 0, 69, 80
2, 148535, Note_on_c, 0, 69, 0
2, 148560, Note_on_c, 0, 62, 80
2, 149015, Note_on_c, 0, 62, 0
2, 149040, Note_on_c, 0, 62, 80
2, 149495, Note_on_c, 0, 62, 0
2, 149520, Note_on_c, 0, 62, 80
2, 149975, Note_on_c, 0, 62, 0
2, 150000, Note_on_c, 0, 62, 80
2, 150455, Note_on_c, 0, 62, 0
2, 150480, Note_on_c, 0, 62, 80
2, 150935, Note_on_c, 0, 62, 0
2, 150960, Note_on_c, 0, 62, 80
2, 151643, Note_on_c, 0, 62, 0
2, 151760, Note_on_c, 0, 60, 80
2, 152367, Note_on_c, 0, 60, 0
2, 152400, Note_on_c, 0, 60, 80
2, 152855, Note_on_c, 0, 60, 0
2, 170640, Note_on_c, 0, 67, 80
2, 171095, Note_on_c, 0, 67, 0
2, 171120, Note_on_c, 0, 64, 80
2, 171575, Note_on_c, 0, 64, 0
2, 171600, Note_on_c, 0, 67, 80
2, 172055, Note_on_c, 0, 67, 0
2, 172080, Note_on_c, 0, 64, 80
2, 172535, Note_on_c, 0, 64, 0
2, 172560, Note_on_c, 0, 67, 80
2, 173015, Note_on_c, 0, 67, 0
2, 173040, Note_on_c, 0, 62, 80
2, 173951, Note_on_c, 0, 62, 0
2, 174480, Note_on_c, 0, 67, 80
2, 174935, Note_on_c, 0, 67, 0
2, 174960, Note_on_c, 0, 64, 80
2, 175415, Note_on_c, 0, 64, 0
2, 175440, Note_on_c, 0, 67, 80
2, 175895, Note_on_c, 0, 67, 0
2, 175920, Note_on_c, 0, 64, 80
2, 176375, Note_on_c, 0, 64, 0
2, 176400, Note_on_c, 0, 67, 80
2, 176855, Note_on_c, 0, 67, 0
2, 176880, Note_on_c, 0, 62, 80
2, 177791, Note_on_c, 0, 62, 0
2, 178320, Note_on_c, 0, 67, 80
2, 178775, Note_on_c, 0, 67, 0
2, 178800, Note_on_c, 0, 64, 80
2, 179255, Note_on_c, 0, 64, 0
2, 179280, Note_on_c, 0, 67, 80
2, 179735, Note_on_c, 0, 67, 0
2, 179760, Note_on_c, 0, 64, 80
2, 180215, Note_on_c, 0, 64, 0
2, 180240, Note_on_c, 0, 67, 80
2, 180695, Note_on_c, 0, 67, 0
2, 180720, Note_on_c, 0, 62, 80
2, 181631, Note_on_c, 0, 62, 0
2, 181680, Note_on_c, 0, 67, 80
2, 182135, Note_on_c, 0, 67, 0
2, 182160, Note_on_c, 0, 67, 80
2, 182615, Note_on_c, 0, 67, 0
2, 182640, Note_on_c, 0, 67, 80
2, 183095, Note_on_c, 0, 67, 0
2, 183120, Note_on_c, 0, 67, 80
2, 183575, Note_on_c, 0, 67, 0
2, 183600, Note_on_c, 0, 69, 80
2, 184511, Note_on_c, 0, 69, 0
2, 185520, Note_on_c, 0, 52, 80
2, 185520, Note_on_c, 0, 57, 80
2, 185759, Note_on_c, 0, 52, 0
2, 185759, Note_on_c, 0, 57, 0
2, 186000, Note_on_c, 0, 52, 80
2, 186000, Note_on_c, 0, 57, 80
2, 186227, Note_on_c, 0, 52, 0
2, 186227, Note_on_c, 0, 57, 0
2, 186300, Note_on_c, 0, 55, 80
2, 186470, Note_on_c, 0, 55, 0
2, 186480, Note_on_c, 0, 52, 80
2, 186480, Note_on_c, 0, 57, 80
2, 186707, Note_on_c, 0, 52, 0
2, 186707, Note_on_c, 0, 57, 0
2, 186780, Note_on_c, 0, 55, 80
2, 186950, Note_on_c, 0, 55, 0
2, 186960, Note_on_c, 0, 57, 80
2, 187187, Note_on_c, 0, 57, 0
2, 187260, Note_on_c, 0, 60, 80
2, 187430, Note_on_c, 0, 60, 0
2, 187440, Note_on_c, 0, 57, 80
2, 187440, Note_on_c, 0, 64, 80
2, 187895, Note_on_c, 0, 57, 0
2, 187895, Note_on_c, 0, 64, 0
2, 187920, Note_on_c, 0, 52, 80
2, 187920, Note_on_c, 0, 57, 80
2, 188147, Note_on_c, 0, 52, 0
2, 188147, Note_on_c, 0, 57, 0
2, 188220, Note_on_c, 0, 60, 80
2, 188390, Note_on_c, 0, 60, 0
2, 188400, Note_on_c, 0, 52, 80
2, 188400, Note_on_c, 0, 57, 80
2, 188627, Note_on_c, 0, 52, 0
2, 188627, Note_on_c, 0, 57, 0
2, 188700, Note_on_c, 0, 57, 80
2, 188870, Note_on_c, 0, 57, 0
2, 188880, Note_on_c, 0, 55, 80
2, 189119, Note_on_c, 0, 55, 0
2, 189360, Note_on_c, 0, 48, 80
2, 189360, Note_on_c, 0, 52, 80
2, 189360, Note_on_c, 0, 55, 80
2, 189815, Note_on_c, 0, 48, 0
2, 189815, Note_on_c, 0, 52, 0
2, 189815, Note_on_c, 0, 55, 0
2, 189840, Note_on_c, 0, 48, 80
2, 189840, Note_on_c, 0, 55, 80
2, 190067, Note_on_c, 0, 48, 0
2, 190067, Note_on_c, 0, 55, 0
2, 190140, Note_on_c, 0, 55, 80
2, 190310, Note_on_c, 0, 55, 0
2, 190320, Note_on_c, 0, 48, 80
2, 190320, Note_on_c, 0, 55, 80
2, 190320, Note_on_c, 0, 57, 80
2, 190547, Note_on_c, 0, 48, 0
2, 190547, Note_on_c, 0, 55, 0
2, 190547, Note_on_c, 0, 57, 0
2, 190620, Note_on_c, 0, 55, 80
2, 190790, Note_on_c, 0, 55, 0
2, 190800, Note_on_c, 0, 57, 80
2, 191027, Note_on_c, 0, 57, 0
2, 191100, Note_on_c, 0, 60, 80
2, 191270, Note_on_c, 0, 60, 0
2, 191280, Note_on_c, 0, 48, 80
2, 191280, Note_on_c, 0, 55, 80
2, 191280, Note_on_c, 0, 64, 80
2, 191735, Note_on_c, 0, 48, 0
2, 191735, Note_on_c, 0, 55, 0
2, 191735, Note_on_c, 0, 64, 0
2, 191760, Note_on_c, 0, 48, 80
2, 191760, Note_on_c, 0, 55, 80
2, 191999, Note_on_c, 0, 55, 0
2, 192063, Note_on_c, 0, 48, 0
2, 192080, Note_on_c, 0, 60, 80
2, 192240, Note_on_c, 0, 48, 80
2, 192240, Note_on_c, 0, 55, 80
2, 192459, Note_on_c, 0, 60, 0
2, 192479, Note_on_c, 0, 48, 0
2, 192479, Note_on_c, 0, 55, 0
2, 193200, Note_on_c, 0, 50, 80
2, 193200, Note_on_c, 0, 52, 80
2, 193200, Note_on_c, 0, 57, 80
2, 193655, Note_on_c, 0, 50, 0
2, 193655, Note_on_c, 0, 52, 0
2, 193655, Note_on_c, 0, 57, 0
2, 193680, Note_on_c, 0, 50, 80
2, 193680, Note_on_c, 0, 57, 80
2, 193907, Note_on_c, 0, 50, 0
2, 193907, Note_on_c, 0, 57, 0
2, 193980, Note_on_c, 0, 55, 80
2, 194150, Note_on_c, 0, 55, 0
2, 194160, Note_on_c, 0, 50, 80
2, 194160, Note_on_c, 0, 57, 80
2, 194387, Note_on_c, 0, 50, 0
2, 194387, Note_on_c, 0, 57, 0
2, 194460, Note_on_c, 0, 55, 80
2, 194630, Note_on_c, 0, 55, 0
2, 194640, Note_on_c, 0, 57, 80
2, 194867, Note_on_c, 0, 57, 0
2, 194940, Note_on_c, 0, 60, 80
2, 195110, Note_on_c, 0, 60, 0
2, 195120, Note_on_c, 0, 50, 80
2, 195120, Note_on_c, 0, 57, 80
2, 195120, Note_on_c, 0, 64, 80
2, 195575, Note_on_c, 0, 50, 0
2, 195575, Note_on_c, 0, 57, 0
2, 195575, Note_on_c, 0, 64, 0
2, 195600, Note_on_c, 0, 50, 80
2, 195600, Note_on_c, 0, 57, 80
2, 195827, Note_on_c, 0, 50, 0
2, 195827, Note_on_c, 0, 57, 0
2, 195900, Note_on_c, 0, 60, 80
2, 196070, Note_on_c, 0, 60, 0
2, 196080, Note_on_c, 0, 50, 80
2, 196080, Note_on_c, 0, 57, 80
2, 196307, Note_on_c, 0, 50, 0
2, 196307, Note_on_c, 0, 57, 0
2, 196380, Note_on_c, 0, 57, 80
2, 196550, Note_on_c, 0, 57, 0
2, 196560, Note_on_c, 0, 55, 80
2, 196799, Note_on_c, 0, 55, 0
2, 197040, Note_on_c, 0, 57, 80
2, 197040, Note_on_c, 0, 62, 80
2, 197495, Note_on_c, 0, 57, 0
2, 197495, Note_on_c, 0, 62, 0
2, 197520, Note_on_c, 0, 62, 80
2, 197759, Note_on_c, 0, 62, 0
2, 198000, Note_on_c, 0, 60, 80
2, 198000, Note_on_c, 0, 65, 80
2, 198239, Note_on_c, 0, 60, 0
2, 198239, Note_on_c, 0, 65, 0
2, 198480, Note_on_c, 0, 53, 80
2, 198480, Note_on_c, 0, 60, 80
2, 198719, Note_on_c, 0, 53, 0
2, 198719, Note_on_c, 0, 60, 0
2, 198960, Note_on_c, 0, 57, 80
2, 199187, Note_on_c, 0, 57, 0
2, 199260, Note_on_c, 0, 53, 80
2, 199430, Note_on_c, 0, 53, 0
2, 199440, Note_on_c, 0, 53, 80
2, 199679, Note_on_c, 0, 53, 0
2, 199920, Note_on_c, 0, 60, 80
2, 200147, Note_on_c, 0, 60, 0
2, 200220, Note_on_c, 0, 53, 80
2, 200390, Note_on_c, 0, 53, 0
2, 200700, Note_on_c, 0, 65, 80
2, 200870, Note_on_c, 0, 65, 0
2, 200880, Note_on_c, 0, 52, 80
2, 201563, Note_on_c, 0, 52, 0
2, 201660, Note_on_c, 0, 55, 80
2, 201830, Note_on_c, 0, 55, 0
2, 201840, Note_on_c, 0, 57, 80
2, 202067, Note_on_c, 0, 57, 0
2, 202140, Note_on_c, 0, 55, 80
2, 202310, Note_on_c, 0, 55, 0
2, 202320, Note_on_c, 0, 52, 80
2, 202320, Note_on_c, 0, 57, 80
2, 202547, Note_on_c, 0, 52, 0
2, 202547, Note_on_c, 0, 57, 0
2, 202620, Note_on_c, 0, 48, 80
2, 202790, Note_on_c, 0, 48, 0
2, 202800, Note_on_c, 0, 64, 80
2, 203141, Note_on_c, 0, 64, 0
2, 203160, Note_on_c, 0, 64, 80
2, 203501, Note_on_c, 0, 64, 0
2, 203580, Note_on_c, 0, 60, 80
2, 203750, Note_on_c, 0, 60, 0
2, 203760, Note_on_c, 0, 55, 80
2, 203987, Note_on_c, 0, 55, 0
2, 204060, Note_on_c, 0, 57, 80
2, 204230, Note_on_c, 0, 57, 0
2, 204240, Note_on_c, 0, 50, 80
2, 204240, Note_on_c, 0, 55, 80
2, 204467, Note_on_c, 0, 50, 0
2, 204467, Note_on_c, 0, 55, 0
2, 204540, Note_on_c, 0, 57, 80
2, 204710, Note_on_c, 0, 57, 0
2, 204720, Note_on_c, 0, 48, 80
2, 204720, Note_on_c, 0, 52, 80
2, 205403, Note_on_c, 0, 48, 0
2, 205403, Note_on_c, 0, 52, 0
2, 205500, Note_on_c, 0, 55, 80
2, 205670, Note_on_c, 0, 55, 0
2, 205680, Note_on_c, 0, 57, 80
2, 205907, Note_on_c, 0, 57, 0
2, 205980, Note_on_c, 0, 55, 80
2, 206150, Note_on_c, 0, 55, 0
2, 206160, Note_on_c, 0, 52, 80
2, 206160, Note_on_c, 0, 57, 80
2, 206387, Note_on_c, 0, 52, 0
2, 206387, Note_on_c, 0, 57, 0
2, 206460, Note_on_c, 0, 60, 80
2, 206630, Note_on_c, 0, 60, 0
2, 206640, Note_on_c, 0, 64, 80
2, 206981, Note_on_c, 0, 64, 0
2, 207000, Note_on_c, 0, 64, 80
2, 207341, Note_on_c, 0, 64, 0
2, 207420, Note_on_c, 0, 60, 80
2, 207590, Note_on_c, 0, 60, 0
2, 207600, Note_on_c, 0, 55, 80
2, 207827, Note_on_c, 0, 55, 0
2, 207900, Note_on_c, 0, 48, 80
2, 208070, Note_on_c, 0, 48, 0
2, 208080, Note_on_c, 0, 62, 80
2, 208380, Note_on_c, 0, 60, 80
2, 208535, Note_on_c, 0, 62, 0
2, 208550, Note_on_c, 0, 60, 0
2, 208560, Note_on_c, 0, 52, 80
2, 209243, Note_on_c, 0, 52, 0
2, 209340, Note_on_c, 0, 55, 80
2, 209510, Note_on_c, 0, 55, 0
2, 209520, Note_on_c, 0, 57, 80
2, 209747, Note_on_c, 0, 57, 0
2, 209820, Note_on_c, 0, 55, 80
2, 209990, Note_on_c, 0, 55, 0
2, 210000, Note_on_c, 0, 50, 80
2, 210000, Note_on_c, 0, 57, 80
2, 210227, Note_on_c, 0, 50, 0
2, 210227, Note_on_c, 0, 57, 0
2, 210300, Note_on_c, 0, 60, 80
2, 210470, Note_on_c, 0, 60, 0
2, 210480, Note_on_c, 0, 64, 80
2, 210821, Note_on_c, 0, 64, 0
2, 210840, Note_on_c, 0, 64, 80
2, 211181, Note_on_c, 0, 64, 0
2, 211260, Note_on_c, 0, 60, 80
2, 211430, Note_on_c, 0, 60, 0
2, 211440, Note_on_c, 0, 55, 80
2, 211667, Note_on_c, 0, 55, 0
2, 211740, Note_on_c, 0, 57, 80
2, 211910, Note_on_c, 0, 57, 0
2, 211920, Note_on_c, 0, 50, 80
2, 211920, Note_on_c, 0, 55, 80
2, 212147, Note_on_c, 0, 50, 0
2, 212147, Note_on_c, 0, 55, 0
2, 212220, Note_on_c, 0, 62, 80
2, 212390, Note_on_c, 0, 62, 0
2, 212400, Note_on_c, 0, 62, 80
2, 212400, Note_on_c, 0, 67, 80
2, 212855, Note_on_c, 0, 62, 0
2, 212855, Note_on_c, 0, 67, 0
2, 212880, Note_on_c, 0, 62, 80
2, 212880, Note_on_c, 0, 67, 80
2, 213119, Note_on_c, 0, 62, 0
2, 213119, Note_on_c, 0, 67, 0
2, 213360, Note_on_c, 0, 62, 80
2, 213360, Note_on_c, 0, 67, 80
2, 213815, Note_on_c, 0, 62, 0
2, 213815, Note_on_c, 0, 67, 0
2, 213840, Note_on_c, 0, 62, 80
2, 213840, Note_on_c, 0, 67, 80
2, 214295, Note_on_c, 0, 62, 0
2, 214295, Note_on_c, 0, 67, 0
2, 214320, Note_on_c, 0, 64, 80
2, 214320, Note_on_c, 0, 69, 80
2, 215003, Note_on_c, 0, 64, 0
2, 215003, Note_on_c, 0, 69, 0
2, 215120, Note_on_c, 0, 60, 80
2, 215120, Note_on_c, 0, 64, 80
2, 215120, Note_on_c, 0, 67, 80
2, 215727, Note_on_c, 0, 60, 0
2, 215727, Note_on_c, 0, 64, 0
2, 215727, Note_on_c, 0, 67, 0
2, 215760, Note_on_c, 0, 60, 80
2, 215760, Note_on_c, 0, 64, 80
2, 215760, Note_on_c, 0, 67, 80
2, 216215, Note_on_c, 0, 60, 0
2, 216215, Note_on_c, 0, 64, 0
2, 216215, Note_on_c, 0, 67, 0
2, 216216, End_track
3, 0, Start_track
3, 0, Title_t, "6-str. Electric Bass, Bass\000"
3, 0, Key_signature, 0, "major"
3, 0, Control_c, 1, 121, 0
3, 0, Program_c, 1, 33
3, 0, Control_c, 1, 7, 100
3, 0, Control_c, 1, 10, 64
3, 0, Control_c, 1, 91, 0
3, 0, Control_c, 1, 93, 0
3, 0, MIDI_port, 0
3, 0, Control_c, 2, 121, 0
3, 0, Program_c, 2, 36
3, 0, Control_c, 2, 7, 100
3, 0, Control_c, 2, 10, 64
3, 0, Control_c, 2, 91, 0
3, 0, Control_c, 2, 93, 0
3, 0, MIDI_port, 0
3, 0, Control_c, 3, 121, 0
3, 0, Program_c, 3, 37
3, 0, Control_c, 3, 7, 100
3, 0, Control_c, 3, 10, 64
3, 0, Control_c, 3, 91, 0
3, 0, Control_c, 3, 93, 0
3, 0, MIDI_port, 0
3, 1200, Note_on_c, 1, 57, 80
3, 1679, Note_on_c, 1, 57, 0
3, 1680, Note_on_c, 1, 57, 80
3, 3119, Note_on_c, 1, 57, 0
3, 3120, Note_on_c, 1, 57, 80
3, 3599, Note_on_c, 1, 57, 0
3, 3600, Note_on_c, 1, 57, 80
3, 5039, Note_on_c, 1, 57, 0
3, 5040, Note_on_c, 1, 60, 80
3, 5519, Note_on_c, 1, 60, 0
3, 5520, Note_on_c, 1, 60, 80
3, 6959, Note_on_c, 1, 60, 0
3, 6960, Note_on_c, 1, 62, 80
3, 7439, Note_on_c, 1, 62, 0
3, 7440, Note_on_c, 1, 62, 80
3, 8399, Note_on_c, 1, 62, 0
3, 8880, Note_on_c, 1, 57, 80
3, 9359, Note_on_c, 1, 57, 0
3, 9360, Note_on_c, 1, 57, 80
3, 10799, Note_on_c, 1, 57, 0
3, 10800, Note_on_c, 1, 57, 80
3, 11279, Note_on_c, 1, 57, 0
3, 11280, Note_on_c, 1, 57, 80
3, 12719, Note_on_c, 1, 57, 0
3, 12720, Note_on_c, 1, 60, 80
3, 13199, Note_on_c, 1, 60, 0
3, 13200, Note_on_c, 1, 60, 80
3, 14639, Note_on_c, 1, 60, 0
3, 14640, Note_on_c, 1, 62, 80
3, 15119, Note_on_c, 1, 62, 0
3, 15120, Note_on_c, 1, 62, 80
3, 16079, Note_on_c, 1, 62, 0
3, 16560, Note_on_c, 1, 57, 80
3, 17519, Note_on_c, 1, 57, 0
3, 17520, Note_on_c, 1, 57, 80
3, 18479, Note_on_c, 1, 57, 0
3, 18480, Note_on_c, 1, 57, 80
3, 19439, Note_on_c, 1, 57, 0
3, 19440, Note_on_c, 1, 57, 80
3, 20399, Note_on_c, 1, 57, 0
3, 20400, Note_on_c, 1, 60, 80
3, 21359, Note_on_c, 1, 60, 0
3, 21360, Note_on_c, 1, 60, 80
3, 22319, Note_on_c, 1, 60, 0
3, 22320, Note_on_c, 1, 60, 80
3, 23279, Note_on_c, 1, 60, 0
3, 23280, Note_on_c, 1, 60, 80
3, 24239, Note_on_c, 1, 60, 0
3, 24240, Note_on_c, 1, 62, 80
3, 25199, Note_on_c, 1, 62, 0
3, 25200, Note_on_c, 1, 62, 80
3, 26159, Note_on_c, 1, 62, 0
3, 26160, Note_on_c, 1, 62, 80
3, 27119, Note_on_c, 1, 62, 0
3, 27120, Note_on_c, 1, 62, 80
3, 28079, Note_on_c, 1, 62, 0
3, 28080, Note_on_c, 1, 65, 80
3, 29039, Note_on_c, 1, 65, 0
3, 29040, Note_on_c, 1, 65, 80
3, 29999, Note_on_c, 1, 65, 0
3, 31920, Note_on_c, 1, 57, 80
3, 32239, Note_on_c, 1, 57, 0
3, 32240, Note_on_c, 1, 57, 80
3, 32399, Note_on_c, 1, 57, 0
3, 32400, Note_on_c, 1, 57, 80
3, 32879, Note_on_c, 1, 57, 0
3, 32880, Note_on_c, 1, 57, 80
3, 33839, Note_on_c, 1, 57, 0
3, 33840, Note_on_c, 1, 57, 80
3, 34159, Note_on_c, 1, 57, 0
3, 34160, Note_on_c, 1, 57, 80
3, 34319, Note_on_c, 1, 57, 0
3, 34320, Note_on_c, 1, 57, 80
3, 34799, Note_on_c, 1, 57, 0
3, 34800, Note_on_c, 1, 57, 80
3, 35759, Note_on_c, 1, 57, 0
3, 35760, Note_on_c, 1, 60, 80
3, 36079, Note_on_c, 1, 60, 0
3, 36080, Note_on_c, 1, 60, 80
3, 36239, Note_on_c, 1, 60, 0
3, 36240, Note_on_c, 1, 60, 80
3, 36719, Note_on_c, 1, 60, 0
3, 36720, Note_on_c, 1, 60, 80
3, 37679, Note_on_c, 1, 60, 0
3, 37680, Note_on_c, 1, 62, 80
3, 37999, Note_on_c, 1, 62, 0
3, 38000, Note_on_c, 1, 62, 80
3, 38159, Note_on_c, 1, 62, 0
3, 38160, Note_on_c, 1, 62, 80
3, 38639, Note_on_c, 1, 62, 0
3, 38640, Note_on_c, 1, 62, 80
3, 39599, Note_on_c, 1, 62, 0
3, 39600, Note_on_c, 1, 57, 80
3, 39919, Note_on_c, 1, 57, 0
3, 39920, Note_on_c, 1, 57, 80
3, 40079, Note_on_c, 1, 57, 0
3, 40080, Note_on_c, 1, 57, 80
3, 40559, Note_on_c, 1, 57, 0
3, 40560, Note_on_c, 1, 57, 80
3, 41519, Note_on_c, 1, 57, 0
3, 41520, Note_on_c, 1, 57, 80
3, 41839, Note_on_c, 1, 57, 0
3, 41840, Note_on_c, 1, 57, 80
3, 41999, Note_on_c, 1, 57, 0
3, 42000, Note_on_c, 1, 57, 80
3, 42479, Note_on_c, 1, 57, 0
3, 42480, Note_on_c, 1, 57, 80
3, 43439, Note_on_c, 1, 57, 0
3, 43440, Note_on_c, 1, 60, 80
3, 43759, Note_on_c, 1, 60, 0
3, 43760, Note_on_c, 1, 60, 80
3, 43919, Note_on_c, 1, 60, 0
3, 43920, Note_on_c, 1, 60, 80
3, 44399, Note_on_c, 1, 60, 0
3, 44400, Note_on_c, 1, 60, 80
3, 45359, Note_on_c, 1, 60, 0
3, 45360, Note_on_c, 1, 62, 80
3, 45679, Note_on_c, 1, 62, 0
3, 45680, Note_on_c, 1, 62, 80
3, 45839, Note_on_c, 1, 62, 0
3, 45840, Note_on_c, 1, 62, 80
3, 46319, Note_on_c, 1, 62, 0
3, 46320, Note_on_c, 1, 62, 80
3, 47279, Note_on_c, 1, 62, 0
3, 47280, Note_on_c, 1, 57, 80
3, 47599, Note_on_c, 1, 57, 0
3, 47600, Note_on_c, 1, 57, 80
3, 47759, Note_on_c, 1, 57, 0
3, 47760, Note_on_c, 1, 57, 80
3, 48239, Note_on_c, 1, 57, 0
3, 48240, Note_on_c, 1, 57, 80
3, 49199, Note_on_c, 1, 57, 0
3, 49200, Note_on_c, 1, 57, 80
3, 49519, Note_on_c, 1, 57, 0
3, 49520, Note_on_c, 1, 57, 80
3, 49679, Note_on_c, 1, 57, 0
3, 49680, Note_on_c, 1, 57, 80
3, 50159, Note_on_c, 1, 57, 0
3, 50160, Note_on_c, 1, 57, 80
3, 51119, Note_on_c, 1, 57, 0
3, 51120, Note_on_c, 1, 60, 80
3, 51439, Note_on_c, 1, 60, 0
3, 51440, Note_on_c, 1, 60, 80
3, 51599, Note_on_c, 1, 60, 0
3, 51600, Note_on_c, 1, 60, 80
3, 52079, Note_on_c, 1, 60, 0
3, 52080, Note_on_c, 1, 60, 80
3, 53039, Note_on_c, 1, 60, 0
3, 53040, Note_on_c, 1, 60, 80
3, 53359, Note_on_c, 1, 60, 0
3, 53360, Note_on_c, 1, 60, 80
3, 53519, Note_on_c, 1, 60, 0
3, 53520, Note_on_c, 1, 60, 80
3, 53999, Note_on_c, 1, 60, 0
3, 54000, Note_on_c, 1, 60, 80
3, 54959, Note_on_c, 1, 60, 0
3, 54960, Note_on_c, 1, 62, 80
3, 55279, Note_on_c, 1, 62, 0
3, 55280, Note_on_c, 1, 62, 80
3, 55439, Note_on_c, 1, 62, 0
3, 55440, Note_on_c, 1, 62, 80
3, 55919, Note_on_c, 1, 62, 0
3, 55920, Note_on_c, 1, 62, 80
3, 56879, Note_on_c, 1, 62, 0
3, 56880, Note_on_c, 1, 62, 80
3, 57199, Note_on_c, 1, 62, 0
3, 57200, Note_on_c, 1, 62, 80
3, 57359, Note_on_c, 1, 62, 0
3, 57360, Note_on_c, 1, 62, 80
3, 57839, Note_on_c, 1, 62, 0
3, 57840, Note_on_c, 1, 62, 80
3, 58799, Note_on_c, 1, 62, 0
3, 58800, Note_on_c, 1, 65, 80
3, 59759, Note_on_c, 1, 65, 0
3, 59760, Note_on_c, 1, 65, 80
3, 60719, Note_on_c, 1, 65, 0
3, 60720, Note_on_c, 1, 65, 80
3, 62639, Note_on_c, 1, 65, 0
3, 62640, Note_on_c, 1, 57, 80
3, 62959, Note_on_c, 1, 57, 0
3, 62960, Note_on_c, 1, 57, 80
3, 63119, Note_on_c, 1, 57, 0
3, 63120, Note_on_c, 1, 69, 80
3, 63599, Note_on_c, 1, 69, 0
3, 63600, Note_on_c, 1, 57, 80
3, 64079, Note_on_c, 1, 57, 0
3, 64080, Note_on_c, 1, 69, 80
3, 64399, Note_on_c, 1, 69, 0
3, 64400, Note_on_c, 1, 57, 80
3, 64879, Note_on_c, 1, 57, 0
3, 64880, Note_on_c, 1, 57, 80
3, 65039, Note_on_c, 1, 57, 0
3, 65040, Note_on_c, 1, 69, 80
3, 65519, Note_on_c, 1, 69, 0
3, 65520, Note_on_c, 1, 57, 80
3, 65839, Note_on_c, 1, 57, 0
3, 65840, Note_on_c, 1, 57, 80
3, 66239, Note_on_c, 1, 57, 0
3, 66240, Note_on_c, 1, 69, 80
3, 66479, Note_on_c, 1, 69, 0
3, 66480, Note_on_c, 1, 48, 80
3, 66799, Note_on_c, 1, 48, 0
3, 66800, Note_on_c, 1, 48, 80
3, 66959, Note_on_c, 1, 48, 0
3, 66960, Note_on_c, 1, 60, 80
3, 67439, Note_on_c, 1, 60, 0
3, 67440, Note_on_c, 1, 48, 80
3, 67919, Note_on_c, 1, 48, 0
3, 67920, Note_on_c, 1, 60, 80
3, 68239, Note_on_c, 1, 60, 0
3, 68240, Note_on_c, 1, 48, 80
3, 68399, Note_on_c, 1, 48, 0
3, 68720, Note_on_c, 1, 48, 80
3, 68879, Note_on_c, 1, 48, 0
3, 68880, Note_on_c, 1, 60, 80
3, 69359, Note_on_c, 1, 60, 0
3, 69360, Note_on_c, 1, 48, 80
3, 69679, Note_on_c, 1, 48, 0
3, 69680, Note_on_c, 1, 48, 80
3, 70079, Note_on_c, 1, 48, 0
3, 70080, Note_on_c, 1, 60, 80
3, 70319, Note_on_c, 1, 60, 0
3, 70320, Note_on_c, 1, 50, 80
3, 70639, Note_on_c, 1, 50, 0
3, 70640, Note_on_c, 1, 50, 80
3, 70799, Note_on_c, 1, 50, 0
3, 70800, Note_on_c, 1, 62, 80
3, 71279, Note_on_c, 1, 62, 0
3, 71280, Note_on_c, 1, 50, 80
3, 71759, Note_on_c, 1, 50, 0
3, 71760, Note_on_c, 1, 62, 80
3, 72079, Note_on_c, 1, 62, 0
3, 72080, Note_on_c, 1, 50, 80
3, 72239, Note_on_c, 1, 50, 0
3, 72560, Note_on_c, 1, 50, 80
3, 72719, Note_on_c, 1, 50, 0
3, 72720, Note_on_c, 1, 62, 80
3, 73199, Note_on_c, 1, 62, 0
3, 73200, Note_on_c, 1, 50, 80
3, 73519, Note_on_c, 1, 50, 0
3, 73520, Note_on_c, 1, 50, 80
3, 73919, Note_on_c, 1, 50, 0
3, 73920, Note_on_c, 1, 62, 80
3, 74159, Note_on_c, 1, 62, 0
3, 74160, Note_on_c, 1, 53, 80
3, 74479, Note_on_c, 1, 53, 0
3, 74480, Note_on_c, 1, 53, 80
3, 74639, Note_on_c, 1, 53, 0
3, 74640, Note_on_c, 1, 65, 80
3, 75119, Note_on_c, 1, 65, 0
3, 75120, Note_on_c, 1, 53, 80
3, 75599, Note_on_c, 1, 53, 0
3, 75600, Note_on_c, 1, 65, 80
3, 75919, Note_on_c, 1, 65, 0
3, 75920, Note_on_c, 1, 53, 80
3, 76079, Note_on_c, 1, 53, 0
3, 76400, Note_on_c, 1, 53, 80
3, 76559, Note_on_c, 1, 53, 0
3, 76560, Note_on_c, 1, 65, 80
3, 77039, Note_on_c, 1, 65, 0
3, 77040, Note_on_c, 1, 53, 80
3, 77359, Note_on_c, 1, 53, 0
3, 77360, Note_on_c, 1, 53, 80
3, 77759, Note_on_c, 1, 53, 0
3, 77760, Note_on_c, 1, 65, 80
3, 77999, Note_on_c, 1, 65, 0
3, 78000, Note_on_c, 1, 57, 80
3, 78319, Note_on_c, 1, 57, 0
3, 78320, Note_on_c, 1, 57, 80
3, 78479, Note_on_c, 1, 57, 0
3, 78480, Note_on_c, 1, 69, 80
3, 78959, Note_on_c, 1, 69, 0
3, 78960, Note_on_c, 1, 57, 80
3, 79439, Note_on_c, 1, 57, 0
3, 79440, Note_on_c, 1, 69, 80
3, 79759, Note_on_c, 1, 69, 0
3, 79760, Note_on_c, 1, 57, 80
3, 80239, Note_on_c, 1, 57, 0
3, 80240, Note_on_c, 1, 57, 80
3, 80399, Note_on_c, 1, 57, 0
3, 80400, Note_on_c, 1, 69, 80
3, 80879, Note_on_c, 1, 69, 0
3, 80880, Note_on_c, 1, 57, 80
3, 81199, Note_on_c, 1, 57, 0
3, 81200, Note_on_c, 1, 57, 80
3, 81599, Note_on_c, 1, 57, 0
3, 81600, Note_on_c, 1, 69, 80
3, 81839, Note_on_c, 1, 69, 0
3, 81840, Note_on_c, 1, 48, 80
3, 82159, Note_on_c, 1, 48, 0
3, 82160, Note_on_c, 1, 48, 80
3, 82319, Note_on_c, 1, 48, 0
3, 82320, Note_on_c, 1, 60, 80
3, 82799, Note_on_c, 1, 60, 0
3, 82800, Note_on_c, 1, 48, 80
3, 83279, Note_on_c, 1, 48, 0
3, 83280, Note_on_c, 1, 60, 80
3, 83599, Note_on_c, 1, 60, 0
3, 83600, Note_on_c, 1, 48, 80
3, 83759, Note_on_c, 1, 48, 0
3, 84080, Note_on_c, 1, 48, 80
3, 84239, Note_on_c, 1, 48, 0
3, 84240, Note_on_c, 1, 60, 80
3, 84719, Note_on_c, 1, 60, 0
3, 84720, Note_on_c, 1, 48, 80
3, 85039, Note_on_c, 1, 48, 0
3, 85040, Note_on_c, 1, 48, 80
3, 85439, Note_on_c, 1, 48, 0
3, 85440, Note_on_c, 1, 60, 80
3, 85679, Note_on_c, 1, 60, 0
3, 85680, Note_on_c, 1, 50, 80
3, 85999, Note_on_c, 1, 50, 0
3, 86000, Note_on_c, 1, 50, 80
3, 86159, Note_on_c, 1, 50, 0
3, 86160, Note_on_c, 1, 62, 80
3, 86639, Note_on_c, 1, 62, 0
3, 86640, Note_on_c, 1, 50, 80
3, 87119, Note_on_c, 1, 50, 0
3, 87120, Note_on_c, 1, 62, 80
3, 87439, Note_on_c, 1, 62, 0
3, 87440, Note_on_c, 1, 50, 80
3, 87599, Note_on_c, 1, 50, 0
3, 87920, Note_on_c, 1, 50, 80
3, 88079, Note_on_c, 1, 50, 0
3, 88080, Note_on_c, 1, 62, 80
3, 88559, Note_on_c, 1, 62, 0
3, 88560, Note_on_c, 1, 50, 80
3, 88879, Note_on_c, 1, 50, 0
3, 88880, Note_on_c, 1, 50, 80
3, 89279, Note_on_c, 1, 50, 0
3, 89280, Note_on_c, 1, 62, 80
3, 89519, Note_on_c, 1, 62, 0
3, 89520, Note_on_c, 1, 53, 80
3, 89839, Note_on_c, 1, 53, 0
3, 89840, Note_on_c, 1, 53, 80
3, 89999, Note_on_c, 1, 53, 0
3, 90000, Note_on_c, 1, 65, 80
3, 90479, Note_on_c, 1, 65, 0
3, 90480, Note_on_c, 1, 53, 80
3, 90959, Note_on_c, 1, 53, 0
3, 90960, Note_on_c, 1, 65, 80
3, 91279, Note_on_c, 1, 65, 0
3, 91280, Note_on_c, 1, 53, 80
3, 91439, Note_on_c, 1, 53, 0
3, 91760, Note_on_c, 1, 53, 80
3, 91919, Note_on_c, 1, 53, 0
3, 91920, Note_on_c, 1, 65, 80
3, 92399, Note_on_c, 1, 65, 0
3, 92400, Note_on_c, 1, 53, 80
3, 92719, Note_on_c, 1, 53, 0
3, 92720, Note_on_c, 1, 53, 80
3, 93119, Note_on_c, 1, 53, 0
3, 93120, Note_on_c, 1, 65, 80
3, 93359, Note_on_c, 1, 65, 0
3, 93360, Note_on_c, 1, 57, 80
3, 93679, Note_on_c, 1, 57, 0
3, 93680, Note_on_c, 1, 57, 80
3, 93839, Note_on_c, 1, 57, 0
3, 93840, Note_on_c, 1, 69, 80
3, 94319, Note_on_c, 1, 69, 0
3, 94320, Note_on_c, 1, 57, 80
3, 94799, Note_on_c, 1, 57, 0
3, 94800, Note_on_c, 1, 69, 80
3, 95119, Note_on_c, 1, 69, 0
3, 95120, Note_on_c, 1, 57, 80
3, 95599, Note_on_c, 1, 57, 0
3, 95600, Note_on_c, 1, 57, 80
3, 95759, Note_on_c, 1, 57, 0
3, 95760, Note_on_c, 1, 69, 80
3, 96239, Note_on_c, 1, 69, 0
3, 96240, Note_on_c, 1, 57, 80
3, 96559, Note_on_c, 1, 57, 0
3, 96560, Note_on_c, 1, 57, 80
3, 96959, Note_on_c, 1, 57, 0
3, 96960, Note_on_c, 1, 69, 80
3, 97199, Note_on_c, 1, 69, 0
3, 97200, Note_on_c, 1, 48, 80
3, 97519, Note_on_c, 1, 48, 0
3, 97520, Note_on_c, 1, 48, 80
3, 97679, Note_on_c, 1, 48, 0
3, 97680, Note_on_c, 1, 60, 80
3, 98159, Note_on_c, 1, 60, 0
3, 98160, Note_on_c, 1, 48, 80
3, 98639, Note_on_c, 1, 48, 0
3, 98640, Note_on_c, 1, 60, 80
3, 98959, Note_on_c, 1, 60, 0
3, 98960, Note_on_c, 1, 48, 80
3, 99119, Note_on_c, 1, 48, 0
3, 99440, Note_on_c, 1, 48, 80
3, 99599, Note_on_c, 1, 48, 0
3, 99600, Note_on_c, 1, 60, 80
3, 100079, Note_on_c, 1, 60, 0
3, 100080, Note_on_c, 1, 48, 80
3, 100399, Note_on_c, 1, 48, 0
3, 100400, Note_on_c, 1, 48, 80
3, 100799, Note_on_c, 1, 48, 0
3, 100800, Note_on_c, 1, 60, 80
3, 101039, Note_on_c, 1, 60, 0
3, 101040, Note_on_c, 1, 50, 80
3, 101359, Note_on_c, 1, 50, 0
3, 101360, Note_on_c, 1, 50, 80
3, 101519, Note_on_c, 1, 50, 0
3, 101520, Note_on_c, 1, 62, 80
3, 101999, Note_on_c, 1, 62, 0
3, 102000, Note_on_c, 1, 50, 80
3, 102479, Note_on_c, 1, 50, 0
3, 102480, Note_on_c, 1, 62, 80
3, 102799, Note_on_c, 1, 62, 0
3, 102800, Note_on_c, 1, 50, 80
3, 102959, Note_on_c, 1, 50, 0
3, 103280, Note_on_c, 1, 50, 80
3, 103439, Note_on_c, 1, 50, 0
3, 103440, Note_on_c, 1, 62, 80
3, 103919, Note_on_c, 1, 62, 0
3, 103920, Note_on_c, 1, 50, 80
3, 104239, Note_on_c, 1, 50, 0
3, 104240, Note_on_c, 1, 50, 80
3, 104639, Note_on_c, 1, 50, 0
3, 104640, Note_on_c, 1, 62, 80
3, 104879, Note_on_c, 1, 62, 0
3, 104880, Note_on_c, 1, 53, 80
3, 105199, Note_on_c, 1, 53, 0
3, 105200, Note_on_c, 1, 53, 80
3, 105359, Note_on_c, 1, 53, 0
3, 105360, Note_on_c, 1, 65, 80
3, 105839, Note_on_c, 1, 65, 0
3, 105840, Note_on_c, 1, 53, 80
3, 106319, Note_on_c, 1, 53, 0
3, 106320, Note_on_c, 1, 65, 80
3, 106639, Note_on_c, 1, 65, 0
3, 106640, Note_on_c, 1, 53, 80
3, 106799, Note_on_c, 1, 53, 0
3, 107120, Note_on_c, 1, 53, 80
3, 107279, Note_on_c, 1, 53, 0
3, 107280, Note_on_c, 1, 65, 80
3, 107759, Note_on_c, 1, 65, 0
3, 107760, Note_on_c, 1, 53, 80
3, 108079, Note_on_c, 1, 53, 0
3, 108080, Note_on_c, 1, 53, 80
3, 108479, Note_on_c, 1, 53, 0
3, 108480, Note_on_c, 1, 65, 80
3, 108719, Note_on_c, 1, 65, 0
3, 108720, Note_on_c, 1, 57, 80
3, 110639, Note_on_c, 1, 57, 0
3, 124080, Note_on_c, 1, 57, 80
3, 125999, Note_on_c, 1, 57, 0
3, 127920, Note_on_c, 1, 60, 80
3, 129839, Note_on_c, 1, 60, 0
3, 131760, Note_on_c, 1, 62, 80
3, 133679, Note_on_c, 1, 62, 0
3, 135600, Note_on_c, 1, 65, 80
3, 137519, Note_on_c, 1, 65, 0
3, 137520, Note_on_c, 1, 65, 80
3, 138479, Note_on_c, 1, 65, 0
3, 138480, Note_on_c, 1, 65, 80
3, 139439, Note_on_c, 1, 65, 0
3, 139440, Note_on_c, 1, 57, 80
3, 139919, Note_on_c, 1, 57, 0
3, 139920, Note_on_c, 1, 57, 80
3, 140399, Note_on_c, 1, 57, 0
3, 140400, Note_on_c, 1, 57, 80
3, 140879, Note_on_c, 1, 57, 0
3, 140880, Note_on_c, 1, 57, 80
3, 141359, Note_on_c, 1, 57, 0
3, 141360, Note_on_c, 1, 57, 80
3, 141839, Note_on_c, 1, 57, 0
3, 141840, Note_on_c, 1, 57, 80
3, 142319, Note_on_c, 1, 57, 0
3, 142320, Note_on_c, 1, 59, 80
3, 142799, Note_on_c, 1, 59, 0
3, 142800, Note_on_c, 1, 59, 80
3, 143279, Note_on_c, 1, 59, 0
3, 143280, Note_on_c, 1, 60, 80
3, 143759, Note_on_c, 1, 60, 0
3, 143760, Note_on_c, 1, 60, 80
3, 144239, Note_on_c, 1, 60, 0
3, 144240, Note_on_c, 1, 60, 80
3, 144719, Note_on_c, 1, 60, 0
3, 144720, Note_on_c, 1, 60, 80
3, 145199, Note_on_c, 1, 60, 0
3, 145200, Note_on_c, 1, 60, 80
3, 145679, Note_on_c, 1, 60, 0
3, 145680, Note_on_c, 1, 60, 80
3, 146159, Note_on_c, 1, 60, 0
3, 146160, Note_on_c, 1, 64, 80
3, 146639, Note_on_c, 1, 64, 0
3, 146640, Note_on_c, 1, 64, 80
3, 147119, Note_on_c, 1, 64, 0
3, 147120, Note_on_c, 1, 62, 80
3, 147599, Note_on_c, 1, 62, 0
3, 147600, Note_on_c, 1, 62, 80
3, 148079, Note_on_c, 1, 62, 0
3, 148080, Note_on_c, 1, 62, 80
3, 148559, Note_on_c, 1, 62, 0
3, 148560, Note_on_c, 1, 62, 80
3, 149039, Note_on_c, 1, 62, 0
3, 149040, Note_on_c, 1, 62, 80
3, 149519, Note_on_c, 1, 62, 0
3, 149520, Note_on_c, 1, 62, 80
3, 149999, Note_on_c, 1, 62, 0
3, 150000, Note_on_c, 1, 64, 80
3, 150479, Note_on_c, 1, 64, 0
3, 150480, Note_on_c, 1, 64, 80
3, 150959, Note_on_c, 1, 64, 0
3, 150960, Note_on_c, 1, 65, 80
3, 151439, Note_on_c, 1, 65, 0
3, 151440, Note_on_c, 1, 65, 80
3, 151919, Note_on_c, 1, 65, 0
3, 151920, Note_on_c, 1, 65, 80
3, 152399, Note_on_c, 1, 65, 0
3, 152400, Note_on_c, 1, 65, 80
3, 152879, Note_on_c, 1, 65, 0
3, 152880, Note_on_c, 1, 65, 80
3, 153359, Note_on_c, 1, 65, 0
3, 153360, Note_on_c, 1, 65, 80
3, 153839, Note_on_c, 1, 65, 0
3, 153840, Note_on_c, 1, 65, 80
3, 154319, Note_on_c, 1, 65, 0
3, 154320, Note_on_c, 1, 65, 80
3, 154799, Note_on_c, 1, 65, 0
3, 154800, Note_on_c, 1, 57, 80
3, 155039, Note_on_c, 1, 57, 0
3, 155280, Note_on_c, 1, 57, 80
3, 155519, Note_on_c, 1, 57, 0
3, 157200, Note_on_c, 1, 57, 80
3, 157439, Note_on_c, 1, 57, 0
3, 158000, Note_on_c, 1, 57, 80
3, 158159, Note_on_c, 1, 57, 0
3, 158640, Note_on_c, 1, 60, 80
3, 158879, Note_on_c, 1, 60, 0
3, 159120, Note_on_c, 1, 60, 80
3, 159359, Note_on_c, 1, 60, 0
3, 161040, Note_on_c, 1, 60, 80
3, 161279, Note_on_c, 1, 60, 0
3, 161840, Note_on_c, 1, 60, 80
3, 161999, Note_on_c, 1, 60, 0
3, 162480, Note_on_c, 1, 62, 80
3, 162719, Note_on_c, 1, 62, 0
3, 162960, Note_on_c, 1, 62, 80
3, 163199, Note_on_c, 1, 62, 0
3, 164880, Note_on_c, 1, 62, 80
3, 165119, Note_on_c, 1, 62, 0
3, 165680, Note_on_c, 1, 62, 80
3, 165839, Note_on_c, 1, 62, 0
3, 166320, Note_on_c, 1, 65, 80
3, 166559, Note_on_c, 1, 65, 0
3, 166800, Note_on_c, 1, 65, 80
3, 167039, Note_on_c, 1, 65, 0
3, 168240, Note_on_c, 1, 65, 80
3, 168479, Note_on_c, 1, 65, 0
3, 168720, Note_on_c, 1, 65, 80
3, 168959, Note_on_c, 1, 65, 0
3, 170160, Note_on_c, 1, 57, 80
3, 170399, Note_on_c, 1, 57, 0
3, 170640, Note_on_c, 1, 57, 80
3, 170879, Note_on_c, 1, 57, 0
3, 171120, Note_on_c, 1, 69, 80
3, 171359, Note_on_c, 1, 69, 0
3, 172560, Note_on_c, 1, 57, 80
3, 172799, Note_on_c, 1, 57, 0
3, 173040, Note_on_c, 1, 69, 80
3, 173359, Note_on_c, 1, 69, 0
3, 173360, Note_on_c, 1, 57, 80
3, 173519, Note_on_c, 1, 57, 0
3, 173840, Note_on_c, 1, 57, 80
3, 173999, Note_on_c, 1, 57, 0
3, 174000, Note_on_c, 1, 60, 80
3, 174239, Note_on_c, 1, 60, 0
3, 174480, Note_on_c, 1, 60, 80
3, 174719, Note_on_c, 1, 60, 0
3, 174960, Note_on_c, 1, 72, 80
3, 175199, Note_on_c, 1, 72, 0
3, 176400, Note_on_c, 1, 60, 80
3, 176639, Note_on_c, 1, 60, 0
3, 176880, Note_on_c, 1, 72, 80
3, 177199, Note_on_c, 1, 72, 0
3, 177200, Note_on_c, 1, 60, 80
3, 177359, Note_on_c, 1, 60, 0
3, 177680, Note_on_c, 1, 60, 80
3, 177839, Note_on_c, 1, 60, 0
3, 177840, Note_on_c, 1, 50, 80
3, 178079, Note_on_c, 1, 50, 0
3, 178320, Note_on_c, 1, 50, 80
3, 178559, Note_on_c, 1, 50, 0
3, 178800, Note_on_c, 1, 62, 80
3, 179039, Note_on_c, 1, 62, 0
3, 180240, Note_on_c, 1, 50, 80
3, 180479, Note_on_c, 1, 50, 0
3, 180720, Note_on_c, 1, 62, 80
3, 181039, Note_on_c, 1, 62, 0
3, 181040, Note_on_c, 1, 50, 80
3, 181199, Note_on_c, 1, 50, 0
3, 181520, Note_on_c, 1, 50, 80
3, 181679, Note_on_c, 1, 50, 0
3, 181680, Note_on_c, 1, 53, 80
3, 181919, Note_on_c, 1, 53, 0
3, 182160, Note_on_c, 1, 53, 80
3, 182399, Note_on_c, 1, 53, 0
3, 182640, Note_on_c, 1, 65, 80
3, 182879, Note_on_c, 1, 65, 0
3, 184080, Note_on_c, 1, 53, 80
3, 184319, Note_on_c, 1, 53, 0
3, 184560, Note_on_c, 1, 65, 80
3, 184879, Note_on_c, 1, 65, 0
3, 184880, Note_on_c, 1, 53, 80
3, 185039, Note_on_c, 1, 53, 0
3, 185360, Note_on_c, 1, 53, 80
3, 185519, Note_on_c, 1, 53, 0
3, 185520, Note_on_c, 1, 57, 80
3, 185839, Note_on_c, 1, 57, 0
3, 185840, Note_on_c, 1, 57, 80
3, 185999, Note_on_c, 1, 57, 0
3, 186000, Note_on_c, 1, 69, 80
3, 186479, Note_on_c, 1, 69, 0
3, 186480, Note_on_c, 1, 57, 80
3, 186959, Note_on_c, 1, 57, 0
3, 186960, Note_on_c, 1, 69, 80
3, 187279, Note_on_c, 1, 69, 0
3, 187280, Note_on_c, 1, 57, 80
3, 187759, Note_on_c, 1, 57, 0
3, 187760, Note_on_c, 1, 57, 80
3, 187919, Note_on_c, 1, 57, 0
3, 187920, Note_on_c, 1, 69, 80
3, 188399, Note_on_c, 1, 69, 0
3, 188400, Note_on_c, 1, 57, 80
3, 188719, Note_on_c, 1, 57, 0
3, 188720, Note_on_c, 1, 57, 80
3, 189119, Note_on_c, 1, 57, 0
3, 189120, Note_on_c, 1, 69, 80
3, 189359, Note_on_c, 1, 69, 0
3, 189360, Note_on_c, 1, 48, 80
3, 189679, Note_on_c, 1, 48, 0
3, 189680, Note_on_c, 1, 48, 80
3, 189839, Note_on_c, 1, 48, 0
3, 189840, Note_on_c, 1, 60, 80
3, 190319, Note_on_c, 1, 60, 0
3, 190320, Note_on_c, 1, 48, 80
3, 190799, Note_on_c, 1, 48, 0
3, 190800, Note_on_c, 1, 60, 80
3, 191119, Note_on_c, 1, 60, 0
3, 191120, Note_on_c, 1, 48, 80
3, 191279, Note_on_c, 1, 48, 0
3, 191600, Note_on_c, 1, 48, 80
3, 191759, Note_on_c, 1, 48, 0
3, 191760, Note_on_c, 1, 60, 80
3, 192239, Note_on_c, 1, 60, 0
3, 192240, Note_on_c, 1, 48, 80
3, 192559, Note_on_c, 1, 48, 0
3, 192560, Note_on_c, 1, 48, 80
3, 192959, Note_on_c, 1, 48, 0
3, 192960, Note_on_c, 1, 60, 80
3, 193199, Note_on_c, 1, 60, 0
3, 193200, Note_on_c, 1, 50, 80
3, 193519, Note_on_c, 1, 50, 0
3, 193520, Note_on_c, 1, 50, 80
3, 193679, Note_on_c, 1, 50, 0
3, 193680, Note_on_c, 1, 62, 80
3, 194159, Note_on_c, 1, 62, 0
3, 194160, Note_on_c, 1, 50, 80
3, 194639, Note_on_c, 1, 50, 0
3, 194640, Note_on_c, 1, 62, 80
3, 194959, Note_on_c, 1, 62, 0
3, 194960, Note_on_c, 1, 50, 80
3, 195119, Note_on_c, 1, 50, 0
3, 195440, Note_on_c, 1, 50, 80
3, 195599, Note_on_c, 1, 50, 0
3, 195600, Note_on_c, 1, 62, 80
3, 196079, Note_on_c, 1, 62, 0
3, 196080, Note_on_c, 1, 50, 80
3, 196399, Note_on_c, 1, 50, 0
3, 196400, Note_on_c, 1, 50, 80
3, 196799, Note_on_c, 1, 50, 0
3, 196800, Note_on_c, 1, 62, 80
3, 197039, Note_on_c, 1, 62, 0
3, 197040, Note_on_c, 1, 53, 80
3, 197359, Note_on_c, 1, 53, 0
3, 197360, Note_on_c, 1, 53, 80
3, 197519, Note_on_c, 1, 53, 0
3, 197520, Note_on_c, 1, 65, 80
3, 197999, Note_on_c, 1, 65, 0
3, 198000, Note_on_c, 1, 53, 80
3, 198479, Note_on_c, 1, 53, 0
3, 198480, Note_on_c, 1, 65, 80
3, 198799, Note_on_c, 1, 65, 0
3, 198800, Note_on_c, 1, 53, 80
3, 198959, Note_on_c, 1, 53, 0
3, 199280, Note_on_c, 1, 53, 80
3, 199439, Note_on_c, 1, 53, 0
3, 199440, Note_on_c, 1, 65, 80
3, 199919, Note_on_c, 1, 65, 0
3, 199920, Note_on_c, 1, 53, 80
3, 200239, Note_on_c, 1, 53, 0
3, 200240, Note_on_c, 1, 53, 80
3, 200639, Note_on_c, 1, 53, 0
3, 200640, Note_on_c, 1, 65, 80
3, 200879, Note_on_c, 1, 65, 0
3, 200880, Note_on_c, 1, 57, 80
3, 201199, Note_on_c, 1, 57, 0
3, 201200, Note_on_c, 1, 57, 80
3, 201359, Note_on_c, 1, 57, 0
3, 201360, Note_on_c, 1, 69, 80
3, 201839, Note_on_c, 1, 69, 0
3, 201840, Note_on_c, 1, 57, 80
3, 202319, Note_on_c, 1, 57, 0
3, 202320, Note_on_c, 1, 69, 80
3, 202639, Note_on_c, 1, 69, 0
3, 202640, Note_on_c, 1, 57, 80
3, 203119, Note_on_c, 1, 57, 0
3, 203120, Note_on_c, 1, 57, 80
3, 203279, Note_on_c, 1, 57, 0
3, 203280, Note_on_c, 1, 69, 80
3, 203759, Note_on_c, 1, 69, 0
3, 203760, Note_on_c, 1, 57, 80
3, 204079, Note_on_c, 1, 57, 0
3, 204080, Note_on_c, 1, 57, 80
3, 204479, Note_on_c, 1, 57, 0
3, 204480, Note_on_c, 1, 69, 80
3, 204719, Note_on_c, 1, 69, 0
3, 204720, Note_on_c, 1, 48, 80
3, 205039, Note_on_c, 1, 48, 0
3, 205040, Note_on_c, 1, 48, 80
3, 205199, Note_on_c, 1, 48, 0
3, 205200, Note_on_c, 1, 60, 80
3, 205679, Note_on_c, 1, 60, 0
3, 205680, Note_on_c, 1, 48, 80
3, 206159, Note_on_c, 1, 48, 0
3, 206160, Note_on_c, 1, 60, 80
3, 206479, Note_on_c, 1, 60, 0
3, 206480, Note_on_c, 1, 48, 80
3, 206639, Note_on_c, 1, 48, 0
3, 206960, Note_on_c, 1, 48, 80
3, 207119, Note_on_c, 1, 48, 0
3, 207120, Note_on_c, 1, 60, 80
3, 207599, Note_on_c, 1, 60, 0
3, 207600, Note_on_c, 1, 48, 80
3, 207919, Note_on_c, 1, 48, 0
3, 207920, Note_on_c, 1, 48, 80
3, 208319, Note_on_c, 1, 48, 0
3, 208320, Note_on_c, 1, 60, 80
3, 208559, Note_on_c, 1, 60, 0
3, 208560, Note_on_c, 1, 50, 80
3, 208879, Note_on_c, 1, 50, 0
3, 208880, Note_on_c, 1, 50, 80
3, 209039, Note_on_c, 1, 50, 0
3, 209040, Note_on_c, 1, 62, 80
3, 209519, Note_on_c, 1, 62, 0
3, 209520, Note_on_c, 1, 50, 80
3, 209999, Note_on_c, 1, 50, 0
3, 210000, Note_on_c, 1, 62, 80
3, 210319, Note_on_c, 1, 62, 0
3, 210320, Note_on_c, 1, 50, 80
3, 210479, Note_on_c, 1, 50, 0
3, 210800, Note_on_c, 1, 50, 80
3, 210959, Note_on_c, 1, 50, 0
3, 210960, Note_on_c, 1, 62, 80
3, 211439, Note_on_c, 1, 62, 0
3, 211440, Note_on_c, 1, 50, 80
3, 211759, Note_on_c, 1, 50, 0
3, 211760, Note_on_c, 1, 50, 80
3, 212159, Note_on_c, 1, 50, 0
3, 212160, Note_on_c, 1, 62, 80
3, 212399, Note_on_c, 1, 62, 0
3, 212400, Note_on_c, 1, 53, 80
3, 212719, Note_on_c, 1, 53, 0
3, 212720, Note_on_c, 1, 53, 80
3, 212879, Note_on_c, 1, 53, 0
3, 212880, Note_on_c, 1, 65, 80
3, 213359, Note_on_c, 1, 65, 0
3, 213360, Note_on_c, 1, 53, 80
3, 213839, Note_on_c, 1, 53, 0
3, 213840, Note_on_c, 1, 65, 80
3, 214159, Note_on_c, 1, 65, 0
3, 214160, Note_on_c, 1, 53, 80
3, 214319, Note_on_c, 1, 53, 0
3, 214640, Note_on_c, 1, 53, 80
3, 214799, Note_on_c, 1, 53, 0
3, 214800, Note_on_c, 1, 65, 80
3, 215279, Note_on_c, 1, 65, 0
3, 215280, Note_on_c, 1, 53, 80
3, 215599, Note_on_c, 1, 53, 0
3, 215600, Note_on_c, 1, 53, 80
3, 215999, Note_on_c, 1, 53, 0
3, 216000, Note_on_c, 1, 65, 80
3, 216239, Note_on_c, 1, 65, 0
3, 216240, Note_on_c, 1, 57, 80
3, 216479, Note_on_c, 1, 57, 0
3, 216720, Note_on_c, 1, 57, 80
3, 216959, Note_on_c, 1, 57, 0
3, 218640, Note_on_c, 1, 57, 80
3, 218879, Note_on_c, 1, 57, 0
3, 219440, Note_on_c, 1, 57, 80
3, 219599, Note_on_c, 1, 57, 0
3, 219920, Note_on_c, 1, 57, 80
3, 220079, Note_on_c, 1, 57, 0
3, 220080, Note_on_c, 1, 60, 80
3, 220319, Note_on_c, 1, 60, 0
3, 220560, Note_on_c, 1, 60, 80
3, 220799, Note_on_c, 1, 60, 0
3, 222000, Note_on_c, 1, 62, 80
3, 222239, Note_on_c, 1, 62, 0
3, 222480, Note_on_c, 1, 62, 80
3, 222719, Note_on_c, 1, 62, 0
3, 223440, Note_on_c, 1, 55, 80
3, 223679, Note_on_c, 1, 55, 0
3, 223920, Note_on_c, 1, 57, 80
3, 224159, Note_on_c, 1, 57, 0
3, 224160, End_track
0, 0, End_of_file
