0, 0, Header, 1, 8, 480
1, 0, Start_track
1, 0, Title_t, "Piano\000"
1, 0, Time_signature, 4, 2, 24, 8
1, 0, Key_signature, 0, "major"
1, 0, Tempo, 500000
1, 0, Control_c, 0, 121, 0
1, 0, Program_c, 0, 0
1, 0, Control_c, 0, 7, 100
1, 0, Control_c, 0, 10, 64
1, 0, Control_c, 0, 91, 0
1, 0, Control_c, 0, 93, 0
1, 0, MIDI_port, 0
1, 2, Control_c, 0, 64, 127
1, 7680, Note_on_c, 0, 69, 80
1, 7680, Note_on_c, 0, 72, 80
1, 7907, Note_on_c, 0, 69, 0
1, 7907, Note_on_c, 0, 72, 0
1, 8160, Note_on_c, 0, 72, 80
1, 8387, Note_on_c, 0, 72, 0
1, 8640, Note_on_c, 0, 69, 80
1, 8640, Note_on_c, 0, 72, 80
1, 8867, Note_on_c, 0, 69, 0
1, 8867, Note_on_c, 0, 72, 0
1, 9120, Note_on_c, 0, 72, 80
1, 9347, Note_on_c, 0, 72, 0
1, 9600, Note_on_c, 0, 67, 80
1, 9600, Note_on_c, 0, 71, 80
1, 9827, Note_on_c, 0, 67, 0
1, 9827, Note_on_c, 0, 71, 0
1, 11040, Note_on_c, 0, 67, 80
1, 11495, Note_on_c, 0, 67, 0
1, 11520, Note_on_c, 0, 65, 80
1, 11520, Note_on_c, 0, 72, 80
1, 11975, Note_on_c, 0, 65, 0
1, 11975, Note_on_c, 0, 72, 0
1, 12000, Note_on_c, 0, 72, 80
1, 12455, Note_on_c, 0, 72, 0
1, 12480, Note_on_c, 0, 65, 80
1, 12480, Note_on_c, 0, 72, 80
1, 12935, Note_on_c, 0, 65, 0
1, 12935, Note_on_c, 0, 72, 0
1, 12960, Note_on_c, 0, 72, 80
1, 13415, Note_on_c, 0, 72, 0
1, 13440, Note_on_c, 0, 67, 80
1, 13440, Note_on_c, 0, 71, 80
1, 13895, Note_on_c, 0, 67, 0
1, 13895, Note_on_c, 0, 71, 0
1, 14880, Note_on_c, 0, 67, 80
1, 15107, Note_on_c, 0, 67, 0
1, 15120, Note_on_c, 0, 72, 80
1, 15347, Note_on_c, 0, 72, 0
1, 15360, Note_on_c, 0, 69, 80
1, 15587, Note_on_c, 0, 69, 0
1, 15600, Note_on_c, 0, 64, 80
1, 15600, Note_on_c, 0, 69, 80
1, 15827, Note_on_c, 0, 64, 0
1, 15827, Note_on_c, 0, 69, 0
1, 16800, Note_on_c, 0, 69, 80
1, 17027, Note_on_c, 0, 69, 0
1, 17040, Note_on_c, 0, 72, 80
1, 17153, Note_on_c, 0, 72, 0
1, 17160, Note_on_c, 0, 76, 80
1, 17273, Note_on_c, 0, 76, 0
1, 17280, Note_on_c, 0, 67, 80
1, 17507, Note_on_c, 0, 67, 0
1, 18720, Note_on_c, 0, 67, 80
1, 18947, Note_on_c, 0, 67, 0
1, 18960, Note_on_c, 0, 79, 80
1, 19073, Note_on_c, 0, 79, 0
1, 19080, Note_on_c, 0, 81, 80
1, 19193, Note_on_c, 0, 81, 0
1, 19200, Note_on_c, 0, 65, 80
1, 19427, Note_on_c, 0, 65, 0
1, 20640, Note_on_c, 0, 65, 80
1, 20867, Note_on_c, 0, 65, 0
1, 20880, Note_on_c, 0, 79, 80
1, 20993, Note_on_c, 0, 79, 0
1, 21000, Note_on_c, 0, 76, 80
1, 21113, Note_on_c, 0, 76, 0
1, 21120, Note_on_c, 0, 67, 80
1, 21575, Note_on_c, 0, 67, 0
1, 22560, Note_on_c, 0, 67, 80
1, 22787, Note_on_c, 0, 67, 0
1, 22800, Note_on_c, 0, 72, 80
1, 23027, Note_on_c, 0, 72, 0
1, 23040, Note_on_c, 0, 69, 80
1, 23267, Note_on_c, 0, 69, 0
1, 23280, Note_on_c, 0, 64, 80
1, 23280, Note_on_c, 0, 69, 80
1, 23507, Note_on_c, 0, 64, 0
1, 23507, Note_on_c, 0, 69, 0
1, 24480, Note_on_c, 0, 69, 80
1, 24707, Note_on_c, 0, 69, 0
1, 24720, Note_on_c, 0, 72, 80
1, 24833, Note_on_c, 0, 72, 0
1, 24840, Note_on_c, 0, 76, 80
1, 24953, Note_on_c, 0, 76, 0
1, 24960, Note_on_c, 0, 67, 80
1, 25187, Note_on_c, 0, 67, 0
1, 25200, Note_on_c, 0, 74, 80
1, 25313, Note_on_c, 0, 74, 0
1, 25320, Note_on_c, 0, 76, 80
1, 25433, Note_on_c, 0, 76, 0
1, 26400, Note_on_c, 0, 67, 80
1, 26627, Note_on_c, 0, 67, 0
1, 26640, Note_on_c, 0, 79, 80
1, 26753, Note_on_c, 0, 79, 0
1, 26760, Note_on_c, 0, 81, 80
1, 26873, Note_on_c, 0, 81, 0
1, 26880, Note_on_c, 0, 65, 80
1, 27107, Note_on_c, 0, 65, 0
1, 28320, Note_on_c, 0, 65, 80
1, 28547, Note_on_c, 0, 65, 0
1, 28560, Note_on_c, 0, 79, 80
1, 28673, Note_on_c, 0, 79, 0
1, 28680, Note_on_c, 0, 76, 80
1, 28793, Note_on_c, 0, 76, 0
1, 28800, Note_on_c, 0, 67, 80
1, 29711, Note_on_c, 0, 67, 0
1, 29760, Note_on_c, 0, 74, 80
1, 29987, Note_on_c, 0, 74, 0
1, 30240, Note_on_c, 0, 67, 80
1, 30467, Note_on_c, 0, 67, 0
1, 30480, Note_on_c, 0, 71, 80
1, 30707, Note_on_c, 0, 71, 0
1, 30720, Note_on_c, 0, 69, 80
1, 30947, Note_on_c, 0, 69, 0
1, 30960, Note_on_c, 0, 64, 80
1, 30960, Note_on_c, 0, 72, 80
1, 31187, Note_on_c, 0, 64, 0
1, 31187, Note_on_c, 0, 72, 0
1, 32160, Note_on_c, 0, 69, 80
1, 32387, Note_on_c, 0, 69, 0
1, 32400, Note_on_c, 0, 72, 80
1, 32513, Note_on_c, 0, 72, 0
1, 32520, Note_on_c, 0, 74, 80
1, 32633, Note_on_c, 0, 74, 0
1, 32640, Note_on_c, 0, 67, 80
1, 32867, Note_on_c, 0, 67, 0
1, 34080, Note_on_c, 0, 67, 80
1, 34307, Note_on_c, 0, 67, 0
1, 34320, Note_on_c, 0, 79, 80
1, 34433, Note_on_c, 0, 79, 0
1, 34440, Note_on_c, 0, 81, 80
1, 34553, Note_on_c, 0, 81, 0
1, 34560, Note_on_c, 0, 65, 80
1, 35015, Note_on_c, 0, 65, 0
1, 35760, Note_on_c, 0, 81, 80
1, 35873, Note_on_c, 0, 81, 0
1, 35880, Note_on_c, 0, 76, 80
1, 35993, Note_on_c, 0, 76, 0
1, 36000, Note_on_c, 0, 65, 80
1, 36227, Note_on_c, 0, 65, 0
1, 36240, Note_on_c, 0, 76, 80
1, 36353, Note_on_c, 0, 76, 0
1, 36360, Note_on_c, 0, 77, 80
1, 36473, Note_on_c, 0, 77, 0
1, 36480, Note_on_c, 0, 67, 80
1, 36707, Note_on_c, 0, 67, 0
1, 36720, Note_on_c, 0, 76, 80
1, 36947, Note_on_c, 0, 76, 0
1, 37680, Note_on_c, 0, 74, 80
1, 37793, Note_on_c, 0, 74, 0
1, 37800, Note_on_c, 0, 71, 80
1, 37913, Note_on_c, 0, 71, 0
1, 37920, Note_on_c, 0, 67, 80
1, 38033, Note_on_c, 0, 67, 0
1, 38040, Note_on_c, 0, 71, 80
1, 38153, Note_on_c, 0, 71, 0
1, 38280, Note_on_c, 0, 72, 80
1, 38393, Note_on_c, 0, 72, 0
1, 38400, Note_on_c, 0, 60, 80
1, 38400, Note_on_c, 0, 64, 80
1, 38400, Note_on_c, 0, 69, 80
1, 39311, Note_on_c, 0, 60, 0
1, 39311, Note_on_c, 0, 64, 0
1, 39311, Note_on_c, 0, 69, 0
1, 39360, Note_on_c, 0, 72, 80
1, 39473, Note_on_c, 0, 72, 0
1, 39480, Note_on_c, 0, 72, 80
1, 39593, Note_on_c, 0, 72, 0
1, 39600, Note_on_c, 0, 72, 80
1, 39827, Note_on_c, 0, 72, 0
1, 39840, Note_on_c, 0, 69, 80
1, 39840, Note_on_c, 0, 72, 80
1, 40067, Note_on_c, 0, 69, 0
1, 40067, Note_on_c, 0, 72, 0
1, 40080, Note_on_c, 0, 71, 80
1, 40307, Note_on_c, 0, 71, 0
1, 40320, Note_on_c, 0, 64, 80
1, 40320, Note_on_c, 0, 67, 80
1, 40320, Note_on_c, 0, 72, 80
1, 41231, Note_on_c, 0, 64, 0
1, 41231, Note_on_c, 0, 67, 0
1, 41231, Note_on_c, 0, 72, 0
1, 41280, Note_on_c, 0, 72, 80
1, 41507, Note_on_c, 0, 72, 0
1, 41520, Note_on_c, 0, 72, 80
1, 41747, Note_on_c, 0, 72, 0
1, 41760, Note_on_c, 0, 67, 80
1, 41760, Note_on_c, 0, 72, 80
1, 41987, Note_on_c, 0, 67, 0
1, 41987, Note_on_c, 0, 72, 0
1, 42000, Note_on_c, 0, 71, 80
1, 42227, Note_on_c, 0, 71, 0
1, 42240, Note_on_c, 0, 60, 80
1, 42240, Note_on_c, 0, 65, 80
1, 42240, Note_on_c, 0, 72, 80
1, 42695, Note_on_c, 0, 60, 0
1, 42695, Note_on_c, 0, 65, 0
1, 42695, Note_on_c, 0, 72, 0
1, 43200, Note_on_c, 0, 72, 80
1, 43313, Note_on_c, 0, 72, 0
1, 43320, Note_on_c, 0, 72, 80
1, 43433, Note_on_c, 0, 72, 0
1, 43440, Note_on_c, 0, 72, 80
1, 43667, Note_on_c, 0, 72, 0
1, 43680, Note_on_c, 0, 65, 80
1, 43680, Note_on_c, 0, 72, 80
1, 43907, Note_on_c, 0, 65, 0
1, 43907, Note_on_c, 0, 72, 0
1, 43920, Note_on_c, 0, 72, 80
1, 44033, Note_on_c, 0, 72, 0
1, 44040, Note_on_c, 0, 71, 80
1, 44153, Note_on_c, 0, 71, 0
1, 45360, Note_on_c, 0, 74, 80
1, 45473, Note_on_c, 0, 74, 0
1, 45480, Note_on_c, 0, 71, 80
1, 45593, Note_on_c, 0, 71, 0
1, 45600, Note_on_c, 0, 67, 80
1, 45713, Note_on_c, 0, 67, 0
1, 45720, Note_on_c, 0, 71, 80
1, 45833, Note_on_c, 0, 71, 0
1, 46080, Note_on_c, 0, 60, 80
1, 46080, Note_on_c, 0, 64, 80
1, 46080, Note_on_c, 0, 69, 80
1, 46991, Note_on_c, 0, 60, 0
1, 46991, Note_on_c, 0, 64, 0
1, 46991, Note_on_c, 0, 69, 0
1, 47040, Note_on_c, 0, 72, 80
1, 47153, Note_on_c, 0, 72, 0
1, 47160, Note_on_c, 0, 72, 80
1, 47273, Note_on_c, 0, 72, 0
1, 47280, Note_on_c, 0, 72, 80
1, 47507, Note_on_c, 0, 72, 0
1, 47520, Note_on_c, 0, 69, 80
1, 47520, Note_on_c, 0, 72, 80
1, 47747, Note_on_c, 0, 69, 0
1, 47747, Note_on_c, 0, 72, 0
1, 47760, Note_on_c, 0, 71, 80
1, 47987, Note_on_c, 0, 71, 0
1, 48000, Note_on_c, 0, 64, 80
1, 48000, Note_on_c, 0, 67, 80
1, 48000, Note_on_c, 0, 72, 80
1, 48911, Note_on_c, 0, 64, 0
1, 48911, Note_on_c, 0, 67, 0
1, 48911, Note_on_c, 0, 72, 0
1, 48960, Note_on_c, 0, 72, 80
1, 49187, Note_on_c, 0, 72, 0
1, 49200, Note_on_c, 0, 72, 80
1, 49313, Note_on_c, 0, 72, 0
1, 49320, Note_on_c, 0, 72, 80
1, 49433, Note_on_c, 0, 72, 0
1, 49440, Note_on_c, 0, 67, 80
1, 49440, Note_on_c, 0, 74, 80
1, 49667, Note_on_c, 0, 67, 0
1, 49667, Note_on_c, 0, 74, 0
1, 49680, Note_on_c, 0, 71, 80
1, 49907, Note_on_c, 0, 71, 0
1, 49920, Note_on_c, 0, 60, 80
1, 49920, Note_on_c, 0, 65, 80
1, 49920, Note_on_c, 0, 72, 80
1, 50375, Note_on_c, 0, 60, 0
1, 50375, Note_on_c, 0, 65, 0
1, 50375, Note_on_c, 0, 72, 0
1, 50880, Note_on_c, 0, 72, 80
1, 50993, Note_on_c, 0, 72, 0
1, 51000, Note_on_c, 0, 72, 80
1, 51113, Note_on_c, 0, 72, 0
1, 51120, Note_on_c, 0, 72, 80
1, 51347, Note_on_c, 0, 72, 0
1, 51360, Note_on_c, 0, 65, 80
1, 51360, Note_on_c, 0, 72, 80
1, 51587, Note_on_c, 0, 65, 0
1, 51587, Note_on_c, 0, 72, 0
1, 51600, Note_on_c, 0, 72, 80
1, 51827, Note_on_c, 0, 72, 0
1, 51840, Note_on_c, 0, 64, 80
1, 51840, Note_on_c, 0, 67, 80
1, 51840, Note_on_c, 0, 71, 80
1, 52067, Note_on_c, 0, 64, 0
1, 52067, Note_on_c, 0, 67, 0
1, 52067, Note_on_c, 0, 71, 0
1, 53280, Note_on_c, 0, 67, 80
1, 53393, Note_on_c, 0, 67, 0
1, 53400, Note_on_c, 0, 69, 80
1, 53513, Note_on_c, 0, 69, 0
1, 53520, Note_on_c, 0, 72, 80
1, 53633, Note_on_c, 0, 72, 0
1, 53640, Note_on_c, 0, 71, 80
1, 53753, Note_on_c, 0, 71, 0
1, 53760, Note_on_c, 0, 69, 80
1, 53987, Note_on_c, 0, 69, 0
1, 54000, Note_on_c, 0, 69, 80
1, 54227, Note_on_c, 0, 69, 0
1, 54240, Note_on_c, 0, 69, 80
1, 54467, Note_on_c, 0, 69, 0
1, 54720, Note_on_c, 0, 67, 80
1, 54833, Note_on_c, 0, 67, 0
1, 54840, Note_on_c, 0, 69, 80
1, 54953, Note_on_c, 0, 69, 0
1, 55200, Note_on_c, 0, 69, 80
1, 55427, Note_on_c, 0, 69, 0
1, 55440, Note_on_c, 0, 72, 80
1, 55553, Note_on_c, 0, 72, 0
1, 55560, Note_on_c, 0, 76, 80
1, 55673, Note_on_c, 0, 76, 0
1, 55680, Note_on_c, 0, 67, 80
1, 55907, Note_on_c, 0, 67, 0
1, 55920, Note_on_c, 0, 67, 80
1, 55920, Note_on_c, 0, 74, 80
1, 56033, Note_on_c, 0, 67, 0
1, 56033, Note_on_c, 0, 74, 0
1, 56040, Note_on_c, 0, 76, 80
1, 56153, Note_on_c, 0, 76, 0
1, 56160, Note_on_c, 0, 67, 80
1, 56387, Note_on_c, 0, 67, 0
1, 56640, Note_on_c, 0, 67, 80
1, 56753, Note_on_c, 0, 67, 0
1, 56760, Note_on_c, 0, 69, 80
1, 56873, Note_on_c, 0, 69, 0
1, 57120, Note_on_c, 0, 67, 80
1, 57347, Note_on_c, 0, 67, 0
1, 57360, Note_on_c, 0, 79, 80
1, 57473, Note_on_c, 0, 79, 0
1, 57480, Note_on_c, 0, 81, 80
1, 57593, Note_on_c, 0, 81, 0
1, 57600, Note_on_c, 0, 65, 80
1, 57827, Note_on_c, 0, 65, 0
1, 58080, Note_on_c, 0, 65, 80
1, 58307, Note_on_c, 0, 65, 0
1, 58560, Note_on_c, 0, 65, 80
1, 58673, Note_on_c, 0, 65, 0
1, 58680, Note_on_c, 0, 67, 80
1, 58793, Note_on_c, 0, 67, 0
1, 59040, Note_on_c, 0, 65, 80
1, 59267, Note_on_c, 0, 65, 0
1, 59280, Note_on_c, 0, 79, 80
1, 59393, Note_on_c, 0, 79, 0
1, 59400, Note_on_c, 0, 76, 80
1, 59513, Note_on_c, 0, 76, 0
1, 59520, Note_on_c, 0, 67, 80
1, 59975, Note_on_c, 0, 67, 0
1, 60960, Note_on_c, 0, 67, 80
1, 61415, Note_on_c, 0, 67, 0
1, 61440, Note_on_c, 0, 69, 80
1, 61440, Note_on_c, 0, 72, 80
1, 61667, Note_on_c, 0, 69, 0
1, 61667, Note_on_c, 0, 72, 0
1, 61920, Note_on_c, 0, 72, 80
1, 62147, Note_on_c, 0, 72, 0
1, 62400, Note_on_c, 0, 69, 80
1, 62400, Note_on_c, 0, 72, 80
1, 62627, Note_on_c, 0, 69, 0
1, 62627, Note_on_c, 0, 72, 0
1, 62880, Note_on_c, 0, 72, 80
1, 63107, Note_on_c, 0, 72, 0
1, 63360, Note_on_c, 0, 67, 80
1, 63360, Note_on_c, 0, 71, 80
1, 63587, Note_on_c, 0, 67, 0
1, 63587, Note_on_c, 0, 71, 0
1, 64800, Note_on_c, 0, 67, 80
1, 65255, Note_on_c, 0, 67, 0
1, 65280, Note_on_c, 0, 65, 80
1, 65280, Note_on_c, 0, 72, 80
1, 65735, Note_on_c, 0, 65, 0
1, 65735, Note_on_c, 0, 72, 0
1, 65760, Note_on_c, 0, 72, 80
1, 66215, Note_on_c, 0, 72, 0
1, 66240, Note_on_c, 0, 65, 80
1, 66240, Note_on_c, 0, 72, 80
1, 66695, Note_on_c, 0, 65, 0
1, 66695, Note_on_c, 0, 72, 0
1, 66720, Note_on_c, 0, 72, 80
1, 67175, Note_on_c, 0, 72, 0
1, 67200, Note_on_c, 0, 67, 80
1, 67200, Note_on_c, 0, 71, 80
1, 67655, Note_on_c, 0, 67, 0
1, 67655, Note_on_c, 0, 71, 0
1, 68640, Note_on_c, 0, 67, 80
1, 68867, Note_on_c, 0, 67, 0
1, 69120, Note_on_c, 0, 69, 80
1, 69120, Note_on_c, 0, 72, 80
1, 69347, Note_on_c, 0, 69, 0
1, 69347, Note_on_c, 0, 72, 0
1, 69600, Note_on_c, 0, 72, 80
1, 69827, Note_on_c, 0, 72, 0
1, 70080, Note_on_c, 0, 69, 80
1, 70080, Note_on_c, 0, 72, 80
1, 70307, Note_on_c, 0, 69, 0
1, 70307, Note_on_c, 0, 72, 0
1, 70560, Note_on_c, 0, 72, 80
1, 70787, Note_on_c, 0, 72, 0
1, 71040, Note_on_c, 0, 67, 80
1, 71040, Note_on_c, 0, 71, 80
1, 71267, Note_on_c, 0, 67, 0
1, 71267, Note_on_c, 0, 71, 0
1, 72480, Note_on_c, 0, 67, 80
1, 72707, Note_on_c, 0, 67, 0
1, 72720, Note_on_c, 0, 76, 80
1, 72833, Note_on_c, 0, 76, 0
1, 72840, Note_on_c, 0, 74, 80
1, 72953, Note_on_c, 0, 74, 0
1, 72960, Note_on_c, 0, 65, 80
1, 73187, Note_on_c, 0, 65, 0
1, 73200, Note_on_c, 0, 76, 80
1, 73427, Note_on_c, 0, 76, 0
1, 73440, Note_on_c, 0, 74, 80
1, 73667, Note_on_c, 0, 74, 0
1, 74400, Note_on_c, 0, 65, 80
1, 74855, Note_on_c, 0, 65, 0
1, 74880, Note_on_c, 0, 67, 80
1, 74880, Note_on_c, 0, 76, 80
1, 75107, Note_on_c, 0, 67, 0
1, 75107, Note_on_c, 0, 76, 0
1, 75120, Note_on_c, 0, 74, 80
1, 75347, Note_on_c, 0, 74, 0
1, 75600, Note_on_c, 0, 72, 80
1, 75713, Note_on_c, 0, 72, 0
1, 75720, Note_on_c, 0, 71, 80
1, 75833, Note_on_c, 0, 71, 0
1, 76800, Note_on_c, 0, 72, 80
1, 77027, Note_on_c, 0, 72, 0
1, 77280, Note_on_c, 0, 72, 80
1, 77507, Note_on_c, 0, 72, 0
1, 77760, Note_on_c, 0, 72, 80
1, 77987, Note_on_c, 0, 72, 0
1, 78240, Note_on_c, 0, 72, 80
1, 78467, Note_on_c, 0, 72, 0
1, 78720, Note_on_c, 0, 71, 80
1, 78947, Note_on_c, 0, 71, 0
1, 80160, Note_on_c, 0, 67, 80
1, 80615, Note_on_c, 0, 67, 0
1, 80640, Note_on_c, 0, 72, 80
1, 81095, Note_on_c, 0, 72, 0
1, 81120, Note_on_c, 0, 72, 80
1, 81575, Note_on_c, 0, 72, 0
1, 81600, Note_on_c, 0, 72, 80
1, 82055, Note_on_c, 0, 72, 0
1, 82080, Note_on_c, 0, 72, 80
1, 82535, Note_on_c, 0, 72, 0
1, 82560, Note_on_c, 0, 71, 80
1, 83015, Note_on_c, 0, 71, 0
1, 84480, Note_on_c, 0, 72, 80
1, 84707, Note_on_c, 0, 72, 0
1, 84960, Note_on_c, 0, 72, 80
1, 85187, Note_on_c, 0, 72, 0
1, 85440, Note_on_c, 0, 72, 80
1, 85667, Note_on_c, 0, 72, 0
1, 85920, Note_on_c, 0, 72, 80
1, 86147, Note_on_c, 0, 72, 0
1, 86400, Note_on_c, 0, 71, 80
1, 86627, Note_on_c, 0, 71, 0
1, 87840, Note_on_c, 0, 67, 80
1, 88295, Note_on_c, 0, 67, 0
1, 88320, Note_on_c, 0, 72, 80
1, 88775, Note_on_c, 0, 72, 0
1, 88800, Note_on_c, 0, 72, 80
1, 89255, Note_on_c, 0, 72, 0
1, 89280, Note_on_c, 0, 72, 80
1, 89735, Note_on_c, 0, 72, 0
1, 89760, Note_on_c, 0, 71, 80
1, 90215, Note_on_c, 0, 71, 0
1, 90240, Note_on_c, 0, 71, 80
1, 90695, Note_on_c, 0, 71, 0
1, 94080, Control_c, 0, 64, 0
1, 94081, End_track
2, 0, Start_track
2, 0, Title_t, "Harp\000"
2, 0, Key_signature, 0, "major"
2, 0, Control_c, 1, 121, 0
2, 0, Program_c, 1, 46
2, 0, Control_c, 1, 7, 100
2, 0, Control_c, 1, 10, 64
2, 0, Control_c, 1, 91, 0
2, 0, Control_c, 1, 93, 0
2, 0, MIDI_port, 0
2, 0, Note_on_c, 1, 57, 80
2, 0, Control_c, 1, 2, 80
2, 2, Control_c, 1, 64, 127
2, 239, Note_on_c, 1, 57, 0
2, 240, Note_on_c, 1, 60, 80
2, 240, Control_c, 1, 2, 80
2, 240, Note_on_c, 1, 64, 80
2, 479, Note_on_c, 1, 60, 0
2, 479, Note_on_c, 1, 64, 0
2, 720, Note_on_c, 1, 60, 80
2, 720, Note_on_c, 1, 64, 80
2, 959, Note_on_c, 1, 60, 0
2, 959, Note_on_c, 1, 64, 0
2, 960, Note_on_c, 1, 57, 80
2, 1199, Note_on_c, 1, 57, 0
2, 1200, Note_on_c, 1, 60, 80
2, 1200, Note_on_c, 1, 64, 80
2, 1439, Note_on_c, 1, 60, 0
2, 1439, Note_on_c, 1, 64, 0
2, 1680, Note_on_c, 1, 60, 80
2, 1680, Control_c, 1, 2, 80
2, 1680, Note_on_c, 1, 64, 80
2, 1919, Note_on_c, 1, 60, 0
2, 1919, Note_on_c, 1, 64, 0
2, 1920, Note_on_c, 1, 55, 80
2, 2159, Note_on_c, 1, 55, 0
2, 2160, Note_on_c, 1, 60, 80
2, 2160, Control_c, 1, 2, 80
2, 2160, Note_on_c, 1, 64, 80
2, 2399, Note_on_c, 1, 60, 0
2, 2399, Note_on_c, 1, 64, 0
2, 2640, Note_on_c, 1, 60, 80
2, 2640, Note_on_c, 1, 64, 80
2, 2879, Note_on_c, 1, 60, 0
2, 2879, Note_on_c, 1, 64, 0
2, 2880, Note_on_c, 1, 55, 80
2, 3119, Note_on_c, 1, 55, 0
2, 3120, Note_on_c, 1, 60, 80
2, 3120, Note_on_c, 1, 64, 80
2, 3359, Note_on_c, 1, 60, 0
2, 3359, Note_on_c, 1, 64, 0
2, 3600, Note_on_c, 1, 60, 80
2, 3600, Control_c, 1, 2, 80
2, 3600, Note_on_c, 1, 64, 80
2, 3839, Note_on_c, 1, 60, 0
2, 3839, Note_on_c, 1, 64, 0
2, 3840, Note_on_c, 1, 53, 80
2, 4079, Note_on_c, 1, 53, 0
2, 4080, Note_on_c, 1, 60, 80
2, 4080, Control_c, 1, 2, 80
2, 4080, Note_on_c, 1, 64, 80
2, 4319, Note_on_c, 1, 60, 0
2, 4319, Note_on_c, 1, 64, 0
2, 4560, Note_on_c, 1, 60, 80
2, 4560, Note_on_c, 1, 64, 80
2, 4799, Note_on_c, 1, 60, 0
2, 4799, Note_on_c, 1, 64, 0
2, 4800, Note_on_c, 1, 53, 80
2, 5039, Note_on_c, 1, 53, 0
2, 5040, Note_on_c, 1, 60, 80
2, 5040, Note_on_c, 1, 64, 80
2, 5279, Note_on_c, 1, 60, 0
2, 5279, Note_on_c, 1, 64, 0
2, 5520, Note_on_c, 1, 60, 80
2, 5520, Control_c, 1, 2, 80
2, 5520, Note_on_c, 1, 64, 80
2, 5759, Note_on_c, 1, 60, 0
2, 5759, Note_on_c, 1, 64, 0
2, 5760, Note_on_c, 1, 55, 80
2, 5999, Note_on_c, 1, 55, 0
2, 6000, Note_on_c, 1, 55, 80
2, 6000, Control_c, 1, 2, 80
2, 6000, Note_on_c, 1, 59, 80
2, 6239, Note_on_c, 1, 55, 0
2, 6239, Note_on_c, 1, 59, 0
2, 6480, Note_on_c, 1, 55, 80
2, 6480, Note_on_c, 1, 59, 80
2, 6719, Note_on_c, 1, 55, 0
2, 6719, Note_on_c, 1, 59, 0
2, 6720, Note_on_c, 1, 55, 80
2, 6959, Note_on_c, 1, 55, 0
2, 6960, Note_on_c, 1, 55, 80
2, 6960, Note_on_c, 1, 59, 80
2, 7199, Note_on_c, 1, 55, 0
2, 7199, Note_on_c, 1, 59, 0
2, 7440, Note_on_c, 1, 55, 80
2, 7440, Control_c, 1, 2, 80
2, 7440, Note_on_c, 1, 59, 80
2, 7679, Note_on_c, 1, 55, 0
2, 7679, Note_on_c, 1, 59, 0
2, 7680, Note_on_c, 1, 57, 80
2, 7919, Note_on_c, 1, 57, 0
2, 7920, Note_on_c, 1, 60, 80
2, 7920, Control_c, 1, 2, 80
2, 7920, Note_on_c, 1, 64, 80
2, 8159, Note_on_c, 1, 60, 0
2, 8159, Note_on_c, 1, 64, 0
2, 8400, Note_on_c, 1, 60, 80
2, 8400, Control_c, 1, 2, 80
2, 8400, Note_on_c, 1, 64, 80
2, 8639, Note_on_c, 1, 60, 0
2, 8639, Note_on_c, 1, 64, 0
2, 8640, Note_on_c, 1, 57, 80
2, 8640, Control_c, 1, 2, 80
2, 8879, Note_on_c, 1, 57, 0
2, 8880, Note_on_c, 1, 60, 80
2, 8880, Control_c, 1, 2, 80
2, 8880, Note_on_c, 1, 64, 80
2, 9119, Note_on_c, 1, 60, 0
2, 9119, Note_on_c, 1, 64, 0
2, 9360, Note_on_c, 1, 60, 80
2, 9360, Control_c, 1, 2, 80
2, 9360, Note_on_c, 1, 64, 80
2, 9599, Note_on_c, 1, 60, 0
2, 9599, Note_on_c, 1, 64, 0
2, 9600, Note_on_c, 1, 55, 80
2, 9600, Control_c, 1, 2, 80
2, 9839, Note_on_c, 1, 55, 0
2, 9840, Note_on_c, 1, 60, 80
2, 9840, Control_c, 1, 2, 80
2, 9840, Note_on_c, 1, 64, 80
2, 10079, Note_on_c, 1, 60, 0
2, 10079, Note_on_c, 1, 64, 0
2, 10320, Note_on_c, 1, 60, 80
2, 10320, Control_c, 1, 2, 80
2, 10320, Note_on_c, 1, 64, 80
2, 10559, Note_on_c, 1, 60, 0
2, 10559, Note_on_c, 1, 64, 0
2, 10560, Note_on_c, 1, 55, 80
2, 10560, Control_c, 1, 2, 80
2, 10799, Note_on_c, 1, 55, 0
2, 10800, Note_on_c, 1, 60, 80
2, 10800, Control_c, 1, 2, 80
2, 10800, Note_on_c, 1, 64, 80
2, 11039, Note_on_c, 1, 60, 0
2, 11039, Note_on_c, 1, 64, 0
2, 11280, Note_on_c, 1, 60, 80
2, 11280, Control_c, 1, 2, 80
2, 11280, Note_on_c, 1, 64, 80
2, 11519, Note_on_c, 1, 60, 0
2, 11519, Note_on_c, 1, 64, 0
2, 11520, Note_on_c, 1, 53, 80
2, 11520, Control_c, 1, 2, 80
2, 11759, Note_on_c, 1, 53, 0
2, 11760, Note_on_c, 1, 60, 80
2, 11760, Control_c, 1, 2, 80
2, 11760, Note_on_c, 1, 64, 80
2, 11999, Note_on_c, 1, 60, 0
2, 11999, Note_on_c, 1, 64, 0
2, 12240, Note_on_c, 1, 60, 80
2, 12240, Control_c, 1, 2, 80
2, 12240, Note_on_c, 1, 64, 80
2, 12479, Note_on_c, 1, 60, 0
2, 12479, Note_on_c, 1, 64, 0
2, 12480, Note_on_c, 1, 53, 80
2, 12480, Control_c, 1, 2, 80
2, 12719, Note_on_c, 1, 53, 0
2, 12720, Note_on_c, 1, 60, 80
2, 12720, Control_c, 1, 2, 80
2, 12720, Note_on_c, 1, 64, 80
2, 12959, Note_on_c, 1, 60, 0
2, 12959, Note_on_c, 1, 64, 0
2, 13200, Note_on_c, 1, 60, 80
2, 13200, Control_c, 1, 2, 80
2, 13200, Note_on_c, 1, 64, 80
2, 13439, Note_on_c, 1, 60, 0
2, 13439, Note_on_c, 1, 64, 0
2, 13440, Note_on_c, 1, 55, 80
2, 13440, Control_c, 1, 2, 80
2, 13679, Note_on_c, 1, 55, 0
2, 13680, Note_on_c, 1, 55, 80
2, 13680, Control_c, 1, 2, 80
2, 13680, Note_on_c, 1, 59, 80
2, 13919, Note_on_c, 1, 55, 0
2, 13919, Note_on_c, 1, 59, 0
2, 13920, Note_on_c, 1, 55, 80
2, 13920, Control_c, 1, 2, 80
2, 14159, Note_on_c, 1, 55, 0
2, 14160, Note_on_c, 1, 55, 80
2, 14160, Note_on_c, 1, 59, 80
2, 14399, Note_on_c, 1, 55, 0
2, 14399, Note_on_c, 1, 59, 0
2, 14400, Note_on_c, 1, 55, 80
2, 14400, Control_c, 1, 2, 80
2, 14639, Note_on_c, 1, 55, 0
2, 14640, Note_on_c, 1, 55, 80
2, 14640, Control_c, 1, 2, 80
2, 14640, Note_on_c, 1, 59, 80
2, 14879, Note_on_c, 1, 55, 0
2, 14879, Note_on_c, 1, 59, 0
2, 14880, Note_on_c, 1, 55, 80
2, 14880, Control_c, 1, 2, 80
2, 15119, Note_on_c, 1, 55, 0
2, 15120, Note_on_c, 1, 55, 80
2, 15120, Control_c, 1, 2, 80
2, 15120, Note_on_c, 1, 59, 80
2, 15359, Note_on_c, 1, 55, 0
2, 15359, Note_on_c, 1, 59, 0
2, 15360, Note_on_c, 1, 57, 80
2, 15360, Control_c, 1, 2, 80
2, 15599, Note_on_c, 1, 57, 0
2, 15600, Note_on_c, 1, 60, 80
2, 15600, Control_c, 1, 2, 80
2, 15600, Note_on_c, 1, 64, 80
2, 15839, Note_on_c, 1, 60, 0
2, 15839, Note_on_c, 1, 64, 0
2, 15840, Note_on_c, 1, 57, 80
2, 15840, Control_c, 1, 2, 80
2, 16079, Note_on_c, 1, 57, 0
2, 16080, Note_on_c, 1, 60, 80
2, 16080, Note_on_c, 1, 64, 80
2, 16319, Note_on_c, 1, 60, 0
2, 16319, Note_on_c, 1, 64, 0
2, 16320, Note_on_c, 1, 57, 80
2, 16320, Control_c, 1, 2, 80
2, 16559, Note_on_c, 1, 57, 0
2, 16560, Note_on_c, 1, 60, 80
2, 16560, Control_c, 1, 2, 80
2, 16560, Note_on_c, 1, 64, 80
2, 16799, Note_on_c, 1, 60, 0
2, 16799, Note_on_c, 1, 64, 0
2, 16800, Note_on_c, 1, 57, 80
2, 16800, Control_c, 1, 2, 80
2, 17039, Note_on_c, 1, 57, 0
2, 17040, Note_on_c, 1, 60, 80
2, 17040, Control_c, 1, 2, 80
2, 17040, Note_on_c, 1, 64, 80
2, 17279, Note_on_c, 1, 60, 0
2, 17279, Note_on_c, 1, 64, 0
2, 17280, Note_on_c, 1, 55, 80
2, 17280, Control_c, 1, 2, 80
2, 17519, Note_on_c, 1, 55, 0
2, 17520, Note_on_c, 1, 60, 80
2, 17520, Control_c, 1, 2, 80
2, 17520, Note_on_c, 1, 64, 80
2, 17759, Note_on_c, 1, 60, 0
2, 17759, Note_on_c, 1, 64, 0
2, 17760, Note_on_c, 1, 55, 80
2, 17760, Control_c, 1, 2, 80
2, 17999, Note_on_c, 1, 55, 0
2, 18000, Note_on_c, 1, 60, 80
2, 18000, Note_on_c, 1, 64, 80
2, 18239, Note_on_c, 1, 60, 0
2, 18239, Note_on_c, 1, 64, 0
2, 18240, Note_on_c, 1, 55, 80
2, 18240, Control_c, 1, 2, 80
2, 18479, Note_on_c, 1, 55, 0
2, 18480, Note_on_c, 1, 60, 80
2, 18480, Control_c, 1, 2, 80
2, 18480, Note_on_c, 1, 64, 80
2, 18719, Note_on_c, 1, 60, 0
2, 18719, Note_on_c, 1, 64, 0
2, 18720, Note_on_c, 1, 55, 80
2, 18720, Control_c, 1, 2, 80
2, 18959, Note_on_c, 1, 55, 0
2, 18960, Note_on_c, 1, 60, 80
2, 18960, Control_c, 1, 2, 80
2, 18960, Note_on_c, 1, 64, 80
2, 19199, Note_on_c, 1, 60, 0
2, 19199, Note_on_c, 1, 64, 0
2, 19200, Note_on_c, 1, 53, 80
2, 19200, Control_c, 1, 2, 80
2, 19439, Note_on_c, 1, 53, 0
2, 19440, Note_on_c, 1, 60, 80
2, 19440, Control_c, 1, 2, 80
2, 19440, Note_on_c, 1, 64, 80
2, 19679, Note_on_c, 1, 60, 0
2, 19679, Note_on_c, 1, 64, 0
2, 19680, Note_on_c, 1, 53, 80
2, 19680, Control_c, 1, 2, 80
2, 19919, Note_on_c, 1, 53, 0
2, 19920, Note_on_c, 1, 60, 80
2, 19920, Note_on_c, 1, 64, 80
2, 20159, Note_on_c, 1, 60, 0
2, 20159, Note_on_c, 1, 64, 0
2, 20160, Note_on_c, 1, 53, 80
2, 20160, Control_c, 1, 2, 80
2, 20399, Note_on_c, 1, 53, 0
2, 20400, Note_on_c, 1, 60, 80
2, 20400, Control_c, 1, 2, 80
2, 20400, Note_on_c, 1, 64, 80
2, 20639, Note_on_c, 1, 60, 0
2, 20639, Note_on_c, 1, 64, 0
2, 20640, Note_on_c, 1, 53, 80
2, 20640, Control_c, 1, 2, 80
2, 20879, Note_on_c, 1, 53, 0
2, 20880, Note_on_c, 1, 60, 80
2, 20880, Control_c, 1, 2, 80
2, 20880, Note_on_c, 1, 64, 80
2, 21119, Note_on_c, 1, 60, 0
2, 21119, Note_on_c, 1, 64, 0
2, 21120, Note_on_c, 1, 55, 80
2, 21120, Control_c, 1, 2, 80
2, 21359, Note_on_c, 1, 55, 0
2, 21360, Note_on_c, 1, 55, 80
2, 21360, Control_c, 1, 2, 80
2, 21360, Note_on_c, 1, 59, 80
2, 21599, Note_on_c, 1, 55, 0
2, 21599, Note_on_c, 1, 59, 0
2, 21840, Note_on_c, 1, 55, 80
2, 21840, Control_c, 1, 2, 80
2, 21840, Note_on_c, 1, 59, 80
2, 22079, Note_on_c, 1, 55, 0
2, 22079, Note_on_c, 1, 59, 0
2, 22080, Note_on_c, 1, 55, 80
2, 22080, Control_c, 1, 2, 80
2, 22319, Note_on_c, 1, 55, 0
2, 22320, Note_on_c, 1, 55, 80
2, 22320, Control_c, 1, 2, 80
2, 22320, Note_on_c, 1, 59, 80
2, 22559, Note_on_c, 1, 55, 0
2, 22559, Note_on_c, 1, 59, 0
2, 22800, Note_on_c, 1, 55, 80
2, 22800, Control_c, 1, 2, 80
2, 22800, Note_on_c, 1, 59, 80
2, 23039, Note_on_c, 1, 55, 0
2, 23039, Note_on_c, 1, 59, 0
2, 23040, Note_on_c, 1, 57, 80
2, 23040, Control_c, 1, 2, 80
2, 23279, Note_on_c, 1, 57, 0
2, 23280, Note_on_c, 1, 60, 80
2, 23280, Control_c, 1, 2, 80
2, 23280, Note_on_c, 1, 64, 80
2, 23519, Note_on_c, 1, 60, 0
2, 23519, Note_on_c, 1, 64, 0
2, 23520, Note_on_c, 1, 57, 80
2, 23520, Control_c, 1, 2, 80
2, 23759, Note_on_c, 1, 57, 0
2, 23760, Note_on_c, 1, 60, 80
2, 23760, Note_on_c, 1, 64, 80
2, 23999, Note_on_c, 1, 60, 0
2, 23999, Note_on_c, 1, 64, 0
2, 24000, Note_on_c, 1, 57, 80
2, 24000, Control_c, 1, 2, 80
2, 24239, Note_on_c, 1, 57, 0
2, 24240, Note_on_c, 1, 60, 80
2, 24240, Control_c, 1, 2, 80
2, 24240, Note_on_c, 1, 64, 80
2, 24479, Note_on_c, 1, 60, 0
2, 24479, Note_on_c, 1, 64, 0
2, 24480, Note_on_c, 1, 57, 80
2, 24480, Control_c, 1, 2, 80
2, 24719, Note_on_c, 1, 57, 0
2, 24720, Note_on_c, 1, 60, 80
2, 24720, Control_c, 1, 2, 80
2, 24720, Note_on_c, 1, 64, 80
2, 24959, Note_on_c, 1, 60, 0
2, 24959, Note_on_c, 1, 64, 0
2, 24960, Note_on_c, 1, 55, 80
2, 24960, Control_c, 1, 2, 80
2, 25199, Note_on_c, 1, 55, 0
2, 25200, Note_on_c, 1, 60, 80
2, 25200, Control_c, 1, 2, 80
2, 25200, Note_on_c, 1, 64, 80
2, 25439, Note_on_c, 1, 60, 0
2, 25439, Note_on_c, 1, 64, 0
2, 25440, Note_on_c, 1, 55, 80
2, 25440, Control_c, 1, 2, 80
2, 25679, Note_on_c, 1, 55, 0
2, 25680, Note_on_c, 1, 60, 80
2, 25680, Note_on_c, 1, 64, 80
2, 25919, Note_on_c, 1, 60, 0
2, 25919, Note_on_c, 1, 64, 0
2, 25920, Note_on_c, 1, 55, 80
2, 25920, Control_c, 1, 2, 80
2, 26159, Note_on_c, 1, 55, 0
2, 26160, Note_on_c, 1, 60, 80
2, 26160, Control_c, 1, 2, 80
2, 26160, Note_on_c, 1, 64, 80
2, 26399, Note_on_c, 1, 60, 0
2, 26399, Note_on_c, 1, 64, 0
2, 26400, Note_on_c, 1, 55, 80
2, 26400, Control_c, 1, 2, 80
2, 26639, Note_on_c, 1, 55, 0
2, 26640, Note_on_c, 1, 60, 80
2, 26640, Control_c, 1, 2, 80
2, 26640, Note_on_c, 1, 64, 80
2, 26879, Note_on_c, 1, 60, 0
2, 26879, Note_on_c, 1, 64, 0
2, 26880, Note_on_c, 1, 53, 80
2, 26880, Control_c, 1, 2, 80
2, 27119, Note_on_c, 1, 53, 0
2, 27120, Note_on_c, 1, 60, 80
2, 27120, Control_c, 1, 2, 80
2, 27120, Note_on_c, 1, 64, 80
2, 27359, Note_on_c, 1, 60, 0
2, 27359, Note_on_c, 1, 64, 0
2, 27360, Note_on_c, 1, 53, 80
2, 27360, Control_c, 1, 2, 80
2, 27599, Note_on_c, 1, 53, 0
2, 27600, Note_on_c, 1, 60, 80
2, 27600, Note_on_c, 1, 64, 80
2, 27839, Note_on_c, 1, 60, 0
2, 27839, Note_on_c, 1, 64, 0
2, 27840, Note_on_c, 1, 53, 80
2, 27840, Control_c, 1, 2, 80
2, 28079, Note_on_c, 1, 53, 0
2, 28080, Note_on_c, 1, 60, 80
2, 28080, Control_c, 1, 2, 80
2, 28080, Note_on_c, 1, 64, 80
2, 28319, Note_on_c, 1, 60, 0
2, 28319, Note_on_c, 1, 64, 0
2, 28320, Note_on_c, 1, 53, 80
2, 28320, Control_c, 1, 2, 80
2, 28559, Note_on_c, 1, 53, 0
2, 28560, Note_on_c, 1, 60, 80
2, 28560, Control_c, 1, 2, 80
2, 28560, Note_on_c, 1, 64, 80
2, 28799, Note_on_c, 1, 60, 0
2, 28799, Note_on_c, 1, 64, 0
2, 28800, Note_on_c, 1, 55, 80
2, 28800, Control_c, 1, 2, 80
2, 29039, Note_on_c, 1, 55, 0
2, 29040, Note_on_c, 1, 55, 80
2, 29040, Control_c, 1, 2, 80
2, 29040, Note_on_c, 1, 59, 80
2, 29279, Note_on_c, 1, 55, 0
2, 29279, Note_on_c, 1, 59, 0
2, 29520, Note_on_c, 1, 55, 80
2, 29520, Control_c, 1, 2, 80
2, 29520, Note_on_c, 1, 59, 80
2, 29759, Note_on_c, 1, 55, 0
2, 29759, Note_on_c, 1, 59, 0
2, 29760, Note_on_c, 1, 55, 80
2, 29760, Control_c, 1, 2, 80
2, 29999, Note_on_c, 1, 55, 0
2, 30000, Note_on_c, 1, 55, 80
2, 30000, Control_c, 1, 2, 80
2, 30000, Note_on_c, 1, 59, 80
2, 30239, Note_on_c, 1, 55, 0
2, 30239, Note_on_c, 1, 59, 0
2, 30480, Note_on_c, 1, 55, 80
2, 30480, Control_c, 1, 2, 80
2, 30480, Note_on_c, 1, 59, 80
2, 30719, Note_on_c, 1, 55, 0
2, 30719, Note_on_c, 1, 59, 0
2, 30720, Note_on_c, 1, 57, 80
2, 30720, Control_c, 1, 2, 80
2, 30959, Note_on_c, 1, 57, 0
2, 30960, Note_on_c, 1, 60, 80
2, 30960, Control_c, 1, 2, 80
2, 30960, Note_on_c, 1, 64, 80
2, 31199, Note_on_c, 1, 60, 0
2, 31199, Note_on_c, 1, 64, 0
2, 31200, Note_on_c, 1, 57, 80
2, 31200, Control_c, 1, 2, 80
2, 31439, Note_on_c, 1, 57, 0
2, 31440, Note_on_c, 1, 60, 80
2, 31440, Note_on_c, 1, 64, 80
2, 31679, Note_on_c, 1, 60, 0
2, 31679, Note_on_c, 1, 64, 0
2, 31680, Note_on_c, 1, 57, 80
2, 31680, Control_c, 1, 2, 80
2, 31919, Note_on_c, 1, 57, 0
2, 31920, Note_on_c, 1, 60, 80
2, 31920, Control_c, 1, 2, 80
2, 31920, Note_on_c, 1, 64, 80
2, 32159, Note_on_c, 1, 60, 0
2, 32159, Note_on_c, 1, 64, 0
2, 32160, Note_on_c, 1, 57, 80
2, 32160, Control_c, 1, 2, 80
2, 32399, Note_on_c, 1, 57, 0
2, 32400, Note_on_c, 1, 60, 80
2, 32400, Control_c, 1, 2, 80
2, 32400, Note_on_c, 1, 64, 80
2, 32639, Note_on_c, 1, 60, 0
2, 32639, Note_on_c, 1, 64, 0
2, 32640, Note_on_c, 1, 55, 80
2, 32640, Control_c, 1, 2, 80
2, 32879, Note_on_c, 1, 55, 0
2, 32880, Note_on_c, 1, 60, 80
2, 32880, Control_c, 1, 2, 80
2, 32880, Note_on_c, 1, 64, 80
2, 33119, Note_on_c, 1, 60, 0
2, 33119, Note_on_c, 1, 64, 0
2, 33120, Note_on_c, 1, 55, 80
2, 33120, Control_c, 1, 2, 80
2, 33359, Note_on_c, 1, 55, 0
2, 33360, Note_on_c, 1, 60, 80
2, 33360, Note_on_c, 1, 64, 80
2, 33599, Note_on_c, 1, 60, 0
2, 33599, Note_on_c, 1, 64, 0
2, 33600, Note_on_c, 1, 55, 80
2, 33600, Control_c, 1, 2, 80
2, 33839, Note_on_c, 1, 55, 0
2, 33840, Note_on_c, 1, 60, 80
2, 33840, Control_c, 1, 2, 80
2, 33840, Note_on_c, 1, 64, 80
2, 34079, Note_on_c, 1, 60, 0
2, 34079, Note_on_c, 1, 64, 0
2, 34080, Note_on_c, 1, 55, 80
2, 34080, Control_c, 1, 2, 80
2, 34319, Note_on_c, 1, 55, 0
2, 34320, Note_on_c, 1, 60, 80
2, 34320, Control_c, 1, 2, 80
2, 34320, Note_on_c, 1, 64, 80
2, 34559, Note_on_c, 1, 60, 0
2, 34559, Note_on_c, 1, 64, 0
2, 34560, Note_on_c, 1, 53, 80
2, 34560, Control_c, 1, 2, 80
2, 34799, Note_on_c, 1, 53, 0
2, 34800, Note_on_c, 1, 60, 80
2, 34800, Control_c, 1, 2, 80
2, 34800, Note_on_c, 1, 64, 80
2, 35039, Note_on_c, 1, 60, 0
2, 35039, Note_on_c, 1, 64, 0
2, 35040, Note_on_c, 1, 53, 80
2, 35040, Control_c, 1, 2, 80
2, 35279, Note_on_c, 1, 53, 0
2, 35280, Note_on_c, 1, 60, 80
2, 35280, Note_on_c, 1, 64, 80
2, 35519, Note_on_c, 1, 60, 0
2, 35519, Note_on_c, 1, 64, 0
2, 35520, Note_on_c, 1, 53, 80
2, 35520, Control_c, 1, 2, 80
2, 35759, Note_on_c, 1, 53, 0
2, 35760, Note_on_c, 1, 60, 80
2, 35760, Control_c, 1, 2, 80
2, 35760, Note_on_c, 1, 64, 80
2, 35999, Note_on_c, 1, 60, 0
2, 35999, Note_on_c, 1, 64, 0
2, 36000, Note_on_c, 1, 53, 80
2, 36000, Control_c, 1, 2, 80
2, 36239, Note_on_c, 1, 53, 0
2, 36240, Note_on_c, 1, 60, 80
2, 36240, Control_c, 1, 2, 80
2, 36240, Note_on_c, 1, 64, 80
2, 36479, Note_on_c, 1, 60, 0
2, 36479, Note_on_c, 1, 64, 0
2, 36480, Note_on_c, 1, 55, 80
2, 36480, Control_c, 1, 2, 80
2, 36719, Note_on_c, 1, 55, 0
2, 36720, Note_on_c, 1, 55, 80
2, 36720, Control_c, 1, 2, 80
2, 36720, Note_on_c, 1, 59, 80
2, 36959, Note_on_c, 1, 55, 0
2, 36959, Note_on_c, 1, 59, 0
2, 37200, Note_on_c, 1, 55, 80
2, 37200, Control_c, 1, 2, 80
2, 37200, Note_on_c, 1, 59, 80
2, 37439, Note_on_c, 1, 55, 0
2, 37439, Note_on_c, 1, 59, 0
2, 37440, Note_on_c, 1, 55, 80
2, 37440, Control_c, 1, 2, 80
2, 37679, Note_on_c, 1, 55, 0
2, 37680, Note_on_c, 1, 55, 80
2, 37680, Control_c, 1, 2, 80
2, 37680, Note_on_c, 1, 59, 80
2, 37919, Note_on_c, 1, 55, 0
2, 37919, Note_on_c, 1, 59, 0
2, 38160, Note_on_c, 1, 55, 80
2, 38160, Control_c, 1, 2, 80
2, 38160, Note_on_c, 1, 59, 80
2, 38399, Note_on_c, 1, 55, 0
2, 38399, Note_on_c, 1, 59, 0
2, 38400, Note_on_c, 1, 57, 80
2, 38400, Control_c, 1, 2, 80
2, 38639, Note_on_c, 1, 57, 0
2, 38640, Note_on_c, 1, 60, 80
2, 38640, Control_c, 1, 2, 80
2, 38640, Note_on_c, 1, 64, 80
2, 38879, Note_on_c, 1, 60, 0
2, 38879, Note_on_c, 1, 64, 0
2, 38880, Note_on_c, 1, 57, 80
2, 38880, Control_c, 1, 2, 80
2, 39119, Note_on_c, 1, 57, 0
2, 39120, Note_on_c, 1, 60, 80
2, 39120, Note_on_c, 1, 64, 80
2, 39359, Note_on_c, 1, 60, 0
2, 39359, Note_on_c, 1, 64, 0
2, 39360, Note_on_c, 1, 57, 80
2, 39360, Control_c, 1, 2, 80
2, 39599, Note_on_c, 1, 57, 0
2, 39600, Note_on_c, 1, 60, 80
2, 39600, Control_c, 1, 2, 80
2, 39600, Note_on_c, 1, 64, 80
2, 39839, Note_on_c, 1, 60, 0
2, 39839, Note_on_c, 1, 64, 0
2, 39840, Note_on_c, 1, 57, 80
2, 39840, Control_c, 1, 2, 80
2, 40079, Note_on_c, 1, 57, 0
2, 40080, Note_on_c, 1, 60, 80
2, 40080, Control_c, 1, 2, 80
2, 40080, Note_on_c, 1, 64, 80
2, 40319, Note_on_c, 1, 60, 0
2, 40319, Note_on_c, 1, 64, 0
2, 40320, Note_on_c, 1, 55, 80
2, 40320, Control_c, 1, 2, 80
2, 40559, Note_on_c, 1, 55, 0
2, 40560, Note_on_c, 1, 60, 80
2, 40560, Control_c, 1, 2, 80
2, 40560, Note_on_c, 1, 64, 80
2, 40799, Note_on_c, 1, 60, 0
2, 40799, Note_on_c, 1, 64, 0
2, 40800, Note_on_c, 1, 55, 80
2, 40800, Control_c, 1, 2, 80
2, 41039, Note_on_c, 1, 55, 0
2, 41040, Note_on_c, 1, 60, 80
2, 41040, Note_on_c, 1, 64, 80
2, 41279, Note_on_c, 1, 60, 0
2, 41279, Note_on_c, 1, 64, 0
2, 41280, Note_on_c, 1, 55, 80
2, 41280, Control_c, 1, 2, 80
2, 41519, Note_on_c, 1, 55, 0
2, 41520, Note_on_c, 1, 60, 80
2, 41520, Control_c, 1, 2, 80
2, 41520, Note_on_c, 1, 64, 80
2, 41759, Note_on_c, 1, 60, 0
2, 41759, Note_on_c, 1, 64, 0
2, 41760, Note_on_c, 1, 55, 80
2, 41760, Control_c, 1, 2, 80
2, 41999, Note_on_c, 1, 55, 0
2, 42000, Note_on_c, 1, 60, 80
2, 42000, Control_c, 1, 2, 80
2, 42000, Note_on_c, 1, 64, 80
2, 42239, Note_on_c, 1, 60, 0
2, 42239, Note_on_c, 1, 64, 0
2, 42240, Note_on_c, 1, 53, 80
2, 42240, Control_c, 1, 2, 80
2, 42479, Note_on_c, 1, 53, 0
2, 42480, Note_on_c, 1, 60, 80
2, 42480, Control_c, 1, 2, 80
2, 42480, Note_on_c, 1, 64, 80
2, 42719, Note_on_c, 1, 60, 0
2, 42719, Note_on_c, 1, 64, 0
2, 42720, Note_on_c, 1, 53, 80
2, 42720, Control_c, 1, 2, 80
2, 42959, Note_on_c, 1, 53, 0
2, 42960, Note_on_c, 1, 60, 80
2, 42960, Note_on_c, 1, 64, 80
2, 43199, Note_on_c, 1, 60, 0
2, 43199, Note_on_c, 1, 64, 0
2, 43200, Note_on_c, 1, 53, 80
2, 43200, Control_c, 1, 2, 80
2, 43439, Note_on_c, 1, 53, 0
2, 43440, Note_on_c, 1, 60, 80
2, 43440, Control_c, 1, 2, 80
2, 43440, Note_on_c, 1, 64, 80
2, 43679, Note_on_c, 1, 60, 0
2, 43679, Note_on_c, 1, 64, 0
2, 43680, Note_on_c, 1, 53, 80
2, 43680, Control_c, 1, 2, 80
2, 43919, Note_on_c, 1, 53, 0
2, 43920, Note_on_c, 1, 60, 80
2, 43920, Control_c, 1, 2, 80
2, 43920, Note_on_c, 1, 64, 80
2, 44159, Note_on_c, 1, 60, 0
2, 44159, Note_on_c, 1, 64, 0
2, 44160, Note_on_c, 1, 55, 80
2, 44160, Control_c, 1, 2, 80
2, 44399, Note_on_c, 1, 55, 0
2, 44400, Note_on_c, 1, 55, 80
2, 44400, Control_c, 1, 2, 80
2, 44400, Note_on_c, 1, 59, 80
2, 44639, Note_on_c, 1, 55, 0
2, 44639, Note_on_c, 1, 59, 0
2, 44880, Note_on_c, 1, 55, 80
2, 44880, Control_c, 1, 2, 80
2, 44880, Note_on_c, 1, 59, 80
2, 45119, Note_on_c, 1, 55, 0
2, 45119, Note_on_c, 1, 59, 0
2, 45120, Note_on_c, 1, 55, 80
2, 45120, Control_c, 1, 2, 80
2, 45359, Note_on_c, 1, 55, 0
2, 45360, Note_on_c, 1, 55, 80
2, 45360, Control_c, 1, 2, 80
2, 45360, Note_on_c, 1, 59, 80
2, 45599, Note_on_c, 1, 55, 0
2, 45599, Note_on_c, 1, 59, 0
2, 45840, Note_on_c, 1, 55, 80
2, 45840, Control_c, 1, 2, 80
2, 45840, Note_on_c, 1, 59, 80
2, 46079, Note_on_c, 1, 55, 0
2, 46079, Note_on_c, 1, 59, 0
2, 46080, Note_on_c, 1, 57, 80
2, 46080, Control_c, 1, 2, 80
2, 46319, Note_on_c, 1, 57, 0
2, 46320, Note_on_c, 1, 60, 80
2, 46320, Control_c, 1, 2, 80
2, 46320, Note_on_c, 1, 64, 80
2, 46559, Note_on_c, 1, 60, 0
2, 46559, Note_on_c, 1, 64, 0
2, 46560, Note_on_c, 1, 57, 80
2, 46560, Control_c, 1, 2, 80
2, 46799, Note_on_c, 1, 57, 0
2, 46800, Note_on_c, 1, 60, 80
2, 46800, Control_c, 1, 2, 80
2, 46800, Note_on_c, 1, 64, 80
2, 47039, Note_on_c, 1, 60, 0
2, 47039, Note_on_c, 1, 64, 0
2, 47040, Note_on_c, 1, 57, 80
2, 47040, Control_c, 1, 2, 80
2, 47279, Note_on_c, 1, 57, 0
2, 47280, Note_on_c, 1, 60, 80
2, 47280, Control_c, 1, 2, 80
2, 47280, Note_on_c, 1, 64, 80
2, 47519, Note_on_c, 1, 60, 0
2, 47519, Note_on_c, 1, 64, 0
2, 47520, Note_on_c, 1, 57, 80
2, 47520, Control_c, 1, 2, 80
2, 47759, Note_on_c, 1, 57, 0
2, 47760, Note_on_c, 1, 60, 80
2, 47760, Control_c, 1, 2, 80
2, 47760, Note_on_c, 1, 64, 80
2, 47999, Note_on_c, 1, 60, 0
2, 47999, Note_on_c, 1, 64, 0
2, 48000, Note_on_c, 1, 55, 80
2, 48000, Control_c, 1, 2, 80
2, 48239, Note_on_c, 1, 55, 0
2, 48240, Note_on_c, 1, 60, 80
2, 48240, Control_c, 1, 2, 80
2, 48240, Note_on_c, 1, 64, 80
2, 48479, Note_on_c, 1, 60, 0
2, 48479, Note_on_c, 1, 64, 0
2, 48480, Note_on_c, 1, 55, 80
2, 48480, Control_c, 1, 2, 80
2, 48719, Note_on_c, 1, 55, 0
2, 48720, Note_on_c, 1, 60, 80
2, 48720, Control_c, 1, 2, 80
2, 48720, Note_on_c, 1, 64, 80
2, 48959, Note_on_c, 1, 60, 0
2, 48959, Note_on_c, 1, 64, 0
2, 48960, Note_on_c, 1, 55, 80
2, 48960, Control_c, 1, 2, 80
2, 49199, Note_on_c, 1, 55, 0
2, 49200, Note_on_c, 1, 60, 80
2, 49200, Control_c, 1, 2, 80
2, 49200, Note_on_c, 1, 64, 80
2, 49439, Note_on_c, 1, 60, 0
2, 49439, Note_on_c, 1, 64, 0
2, 49440, Note_on_c, 1, 55, 80
2, 49440, Control_c, 1, 2, 80
2, 49679, Note_on_c, 1, 55, 0
2, 49680, Note_on_c, 1, 60, 80
2, 49680, Control_c, 1, 2, 80
2, 49680, Note_on_c, 1, 64, 80
2, 49919, Note_on_c, 1, 60, 0
2, 49919, Note_on_c, 1, 64, 0
2, 49920, Note_on_c, 1, 53, 80
2, 49920, Control_c, 1, 2, 80
2, 50159, Note_on_c, 1, 53, 0
2, 50160, Note_on_c, 1, 60, 80
2, 50160, Control_c, 1, 2, 80
2, 50160, Note_on_c, 1, 64, 80
2, 50399, Note_on_c, 1, 60, 0
2, 50399, Note_on_c, 1, 64, 0
2, 50400, Note_on_c, 1, 53, 80
2, 50400, Control_c, 1, 2, 80
2, 50639, Note_on_c, 1, 53, 0
2, 50640, Note_on_c, 1, 60, 80
2, 50640, Control_c, 1, 2, 80
2, 50640, Note_on_c, 1, 64, 80
2, 50879, Note_on_c, 1, 60, 0
2, 50879, Note_on_c, 1, 64, 0
2, 50880, Note_on_c, 1, 53, 80
2, 50880, Control_c, 1, 2, 80
2, 51119, Note_on_c, 1, 53, 0
2, 51120, Note_on_c, 1, 60, 80
2, 51120, Control_c, 1, 2, 80
2, 51120, Note_on_c, 1, 64, 80
2, 51359, Note_on_c, 1, 60, 0
2, 51359, Note_on_c, 1, 64, 0
2, 51360, Note_on_c, 1, 53, 80
2, 51360, Control_c, 1, 2, 80
2, 51599, Note_on_c, 1, 53, 0
2, 51600, Note_on_c, 1, 60, 80
2, 51600, Control_c, 1, 2, 80
2, 51600, Note_on_c, 1, 64, 80
2, 51839, Note_on_c, 1, 60, 0
2, 51839, Note_on_c, 1, 64, 0
2, 51840, Note_on_c, 1, 55, 80
2, 51840, Control_c, 1, 2, 80
2, 52079, Note_on_c, 1, 55, 0
2, 52080, Note_on_c, 1, 55, 80
2, 52080, Control_c, 1, 2, 80
2, 52080, Note_on_c, 1, 59, 80
2, 52319, Note_on_c, 1, 55, 0
2, 52319, Note_on_c, 1, 59, 0
2, 52560, Note_on_c, 1, 55, 80
2, 52560, Control_c, 1, 2, 80
2, 52560, Note_on_c, 1, 59, 80
2, 52799, Note_on_c, 1, 55, 0
2, 52799, Note_on_c, 1, 59, 0
2, 52800, Note_on_c, 1, 55, 80
2, 52800, Control_c, 1, 2, 80
2, 53039, Note_on_c, 1, 55, 0
2, 53040, Note_on_c, 1, 55, 80
2, 53040, Control_c, 1, 2, 80
2, 53040, Note_on_c, 1, 59, 80
2, 53279, Note_on_c, 1, 55, 0
2, 53279, Note_on_c, 1, 59, 0
2, 53520, Note_on_c, 1, 55, 80
2, 53520, Control_c, 1, 2, 80
2, 53520, Note_on_c, 1, 59, 80
2, 53759, Note_on_c, 1, 55, 0
2, 53759, Note_on_c, 1, 59, 0
2, 53760, Note_on_c, 1, 57, 80
2, 53760, Control_c, 1, 2, 80
2, 53999, Note_on_c, 1, 57, 0
2, 54000, Note_on_c, 1, 60, 80
2, 54000, Control_c, 1, 2, 80
2, 54000, Note_on_c, 1, 64, 80
2, 54239, Note_on_c, 1, 60, 0
2, 54239, Note_on_c, 1, 64, 0
2, 54240, Note_on_c, 1, 57, 80
2, 54240, Control_c, 1, 2, 80
2, 54479, Note_on_c, 1, 57, 0
2, 54480, Note_on_c, 1, 60, 80
2, 54480, Control_c, 1, 2, 80
2, 54480, Note_on_c, 1, 64, 80
2, 54719, Note_on_c, 1, 60, 0
2, 54719, Note_on_c, 1, 64, 0
2, 54720, Note_on_c, 1, 57, 80
2, 54720, Control_c, 1, 2, 80
2, 54959, Note_on_c, 1, 57, 0
2, 54960, Note_on_c, 1, 60, 80
2, 54960, Control_c, 1, 2, 80
2, 54960, Note_on_c, 1, 64, 80
2, 55199, Note_on_c, 1, 60, 0
2, 55199, Note_on_c, 1, 64, 0
2, 55200, Note_on_c, 1, 57, 80
2, 55200, Control_c, 1, 2, 80
2, 55439, Note_on_c, 1, 57, 0
2, 55440, Note_on_c, 1, 60, 80
2, 55440, Control_c, 1, 2, 80
2, 55440, Note_on_c, 1, 64, 80
2, 55679, Note_on_c, 1, 60, 0
2, 55679, Note_on_c, 1, 64, 0
2, 55680, Note_on_c, 1, 55, 80
2, 55680, Control_c, 1, 2, 80
2, 55919, Note_on_c, 1, 55, 0
2, 55920, Note_on_c, 1, 60, 80
2, 55920, Control_c, 1, 2, 80
2, 55920, Note_on_c, 1, 64, 80
2, 56159, Note_on_c, 1, 60, 0
2, 56159, Note_on_c, 1, 64, 0
2, 56160, Note_on_c, 1, 55, 80
2, 56160, Control_c, 1, 2, 80
2, 56399, Note_on_c, 1, 55, 0
2, 56400, Note_on_c, 1, 60, 80
2, 56400, Control_c, 1, 2, 80
2, 56400, Note_on_c, 1, 64, 80
2, 56639, Note_on_c, 1, 60, 0
2, 56639, Note_on_c, 1, 64, 0
2, 56640, Note_on_c, 1, 55, 80
2, 56640, Control_c, 1, 2, 80
2, 56879, Note_on_c, 1, 55, 0
2, 56880, Note_on_c, 1, 60, 80
2, 56880, Control_c, 1, 2, 80
2, 56880, Note_on_c, 1, 64, 80
2, 57119, Note_on_c, 1, 60, 0
2, 57119, Note_on_c, 1, 64, 0
2, 57120, Note_on_c, 1, 55, 80
2, 57120, Control_c, 1, 2, 80
2, 57359, Note_on_c, 1, 55, 0
2, 57360, Note_on_c, 1, 60, 80
2, 57360, Control_c, 1, 2, 80
2, 57360, Note_on_c, 1, 64, 80
2, 57599, Note_on_c, 1, 60, 0
2, 57599, Note_on_c, 1, 64, 0
2, 57600, Note_on_c, 1, 53, 80
2, 57600, Control_c, 1, 2, 80
2, 57839, Note_on_c, 1, 53, 0
2, 57840, Note_on_c, 1, 60, 80
2, 57840, Control_c, 1, 2, 80
2, 57840, Note_on_c, 1, 64, 80
2, 58079, Note_on_c, 1, 60, 0
2, 58079, Note_on_c, 1, 64, 0
2, 58080, Note_on_c, 1, 53, 80
2, 58080, Control_c, 1, 2, 80
2, 58319, Note_on_c, 1, 53, 0
2, 58320, Note_on_c, 1, 60, 80
2, 58320, Control_c, 1, 2, 80
2, 58320, Note_on_c, 1, 64, 80
2, 58559, Note_on_c, 1, 60, 0
2, 58559, Note_on_c, 1, 64, 0
2, 58560, Note_on_c, 1, 53, 80
2, 58560, Control_c, 1, 2, 80
2, 58799, Note_on_c, 1, 53, 0
2, 58800, Note_on_c, 1, 60, 80
2, 58800, Control_c, 1, 2, 80
2, 58800, Note_on_c, 1, 64, 80
2, 59039, Note_on_c, 1, 60, 0
2, 59039, Note_on_c, 1, 64, 0
2, 59040, Note_on_c, 1, 53, 80
2, 59040, Control_c, 1, 2, 80
2, 59279, Note_on_c, 1, 53, 0
2, 59280, Note_on_c, 1, 60, 80
2, 59280, Control_c, 1, 2, 80
2, 59280, Note_on_c, 1, 64, 80
2, 59519, Note_on_c, 1, 60, 0
2, 59519, Note_on_c, 1, 64, 0
2, 59520, Note_on_c, 1, 55, 80
2, 59520, Control_c, 1, 2, 80
2, 59759, Note_on_c, 1, 55, 0
2, 59760, Note_on_c, 1, 55, 80
2, 59760, Control_c, 1, 2, 80
2, 59760, Note_on_c, 1, 59, 80
2, 59999, Note_on_c, 1, 55, 0
2, 59999, Note_on_c, 1, 59, 0
2, 60240, Note_on_c, 1, 55, 80
2, 60240, Control_c, 1, 2, 80
2, 60240, Note_on_c, 1, 59, 80
2, 60479, Note_on_c, 1, 55, 0
2, 60479, Note_on_c, 1, 59, 0
2, 60480, Note_on_c, 1, 55, 80
2, 60480, Control_c, 1, 2, 80
2, 60719, Note_on_c, 1, 55, 0
2, 60720, Note_on_c, 1, 55, 80
2, 60720, Control_c, 1, 2, 80
2, 60720, Note_on_c, 1, 59, 80
2, 60959, Note_on_c, 1, 55, 0
2, 60959, Note_on_c, 1, 59, 0
2, 61200, Note_on_c, 1, 55, 80
2, 61200, Control_c, 1, 2, 80
2, 61200, Note_on_c, 1, 59, 80
2, 61439, Note_on_c, 1, 55, 0
2, 61439, Note_on_c, 1, 59, 0
2, 61440, Note_on_c, 1, 57, 80
2, 61440, Control_c, 1, 2, 80
2, 61679, Note_on_c, 1, 57, 0
2, 61680, Note_on_c, 1, 60, 80
2, 61680, Control_c, 1, 2, 80
2, 61680, Note_on_c, 1, 64, 80
2, 61919, Note_on_c, 1, 60, 0
2, 61919, Note_on_c, 1, 64, 0
2, 62160, Note_on_c, 1, 60, 80
2, 62160, Control_c, 1, 2, 80
2, 62160, Note_on_c, 1, 64, 80
2, 62399, Note_on_c, 1, 60, 0
2, 62399, Note_on_c, 1, 64, 0
2, 62400, Note_on_c, 1, 57, 80
2, 62400, Control_c, 1, 2, 80
2, 62639, Note_on_c, 1, 57, 0
2, 62640, Note_on_c, 1, 60, 80
2, 62640, Control_c, 1, 2, 80
2, 62640, Note_on_c, 1, 64, 80
2, 62879, Note_on_c, 1, 60, 0
2, 62879, Note_on_c, 1, 64, 0
2, 63120, Note_on_c, 1, 60, 80
2, 63120, Control_c, 1, 2, 80
2, 63120, Note_on_c, 1, 64, 80
2, 63359, Note_on_c, 1, 60, 0
2, 63359, Note_on_c, 1, 64, 0
2, 63360, Note_on_c, 1, 55, 80
2, 63360, Control_c, 1, 2, 80
2, 63599, Note_on_c, 1, 55, 0
2, 63600, Note_on_c, 1, 60, 80
2, 63600, Control_c, 1, 2, 80
2, 63600, Note_on_c, 1, 64, 80
2, 63839, Note_on_c, 1, 60, 0
2, 63839, Note_on_c, 1, 64, 0
2, 64080, Note_on_c, 1, 60, 80
2, 64080, Control_c, 1, 2, 80
2, 64080, Note_on_c, 1, 64, 80
2, 64319, Note_on_c, 1, 60, 0
2, 64319, Note_on_c, 1, 64, 0
2, 64320, Note_on_c, 1, 55, 80
2, 64320, Control_c, 1, 2, 80
2, 64559, Note_on_c, 1, 55, 0
2, 64560, Note_on_c, 1, 60, 80
2, 64560, Control_c, 1, 2, 80
2, 64560, Note_on_c, 1, 64, 80
2, 64799, Note_on_c, 1, 60, 0
2, 64799, Note_on_c, 1, 64, 0
2, 65040, Note_on_c, 1, 60, 80
2, 65040, Control_c, 1, 2, 80
2, 65040, Note_on_c, 1, 64, 80
2, 65279, Note_on_c, 1, 60, 0
2, 65279, Note_on_c, 1, 64, 0
2, 65280, Note_on_c, 1, 53, 80
2, 65280, Control_c, 1, 2, 80
2, 65519, Note_on_c, 1, 53, 0
2, 65520, Note_on_c, 1, 60, 80
2, 65520, Control_c, 1, 2, 80
2, 65520, Note_on_c, 1, 64, 80
2, 65759, Note_on_c, 1, 60, 0
2, 65759, Note_on_c, 1, 64, 0
2, 66000, Note_on_c, 1, 60, 80
2, 66000, Control_c, 1, 2, 80
2, 66000, Note_on_c, 1, 64, 80
2, 66239, Note_on_c, 1, 60, 0
2, 66239, Note_on_c, 1, 64, 0
2, 66240, Note_on_c, 1, 53, 80
2, 66240, Control_c, 1, 2, 80
2, 66479, Note_on_c, 1, 53, 0
2, 66480, Note_on_c, 1, 60, 80
2, 66480, Control_c, 1, 2, 80
2, 66480, Note_on_c, 1, 64, 80
2, 66719, Note_on_c, 1, 60, 0
2, 66719, Note_on_c, 1, 64, 0
2, 66960, Note_on_c, 1, 60, 80
2, 66960, Control_c, 1, 2, 80
2, 66960, Note_on_c, 1, 64, 80
2, 67199, Note_on_c, 1, 60, 0
2, 67199, Note_on_c, 1, 64, 0
2, 67200, Note_on_c, 1, 55, 80
2, 67200, Control_c, 1, 2, 80
2, 67439, Note_on_c, 1, 55, 0
2, 67440, Note_on_c, 1, 55, 80
2, 67440, Control_c, 1, 2, 80
2, 67440, Note_on_c, 1, 59, 80
2, 67679, Note_on_c, 1, 55, 0
2, 67679, Note_on_c, 1, 59, 0
2, 67680, Note_on_c, 1, 55, 80
2, 67680, Control_c, 1, 2, 80
2, 67919, Note_on_c, 1, 55, 0
2, 67920, Note_on_c, 1, 55, 80
2, 67920, Control_c, 1, 2, 80
2, 67920, Note_on_c, 1, 59, 80
2, 68159, Note_on_c, 1, 55, 0
2, 68159, Note_on_c, 1, 59, 0
2, 68160, Note_on_c, 1, 55, 80
2, 68160, Control_c, 1, 2, 80
2, 68399, Note_on_c, 1, 55, 0
2, 68400, Note_on_c, 1, 55, 80
2, 68400, Control_c, 1, 2, 80
2, 68400, Note_on_c, 1, 59, 80
2, 68639, Note_on_c, 1, 55, 0
2, 68639, Note_on_c, 1, 59, 0
2, 68640, Note_on_c, 1, 55, 80
2, 68640, Control_c, 1, 2, 80
2, 68879, Note_on_c, 1, 55, 0
2, 68880, Note_on_c, 1, 55, 80
2, 68880, Control_c, 1, 2, 80
2, 68880, Note_on_c, 1, 59, 80
2, 69119, Note_on_c, 1, 55, 0
2, 69119, Note_on_c, 1, 59, 0
2, 69120, Note_on_c, 1, 57, 80
2, 69120, Control_c, 1, 2, 80
2, 69359, Note_on_c, 1, 57, 0
2, 69360, Note_on_c, 1, 60, 80
2, 69360, Control_c, 1, 2, 80
2, 69360, Note_on_c, 1, 64, 80
2, 69599, Note_on_c, 1, 60, 0
2, 69599, Note_on_c, 1, 64, 0
2, 69840, Note_on_c, 1, 60, 80
2, 69840, Control_c, 1, 2, 80
2, 69840, Note_on_c, 1, 64, 80
2, 70079, Note_on_c, 1, 60, 0
2, 70079, Note_on_c, 1, 64, 0
2, 70080, Note_on_c, 1, 57, 80
2, 70080, Control_c, 1, 2, 80
2, 70319, Note_on_c, 1, 57, 0
2, 70320, Note_on_c, 1, 60, 80
2, 70320, Control_c, 1, 2, 80
2, 70320, Note_on_c, 1, 64, 80
2, 70559, Note_on_c, 1, 60, 0
2, 70559, Note_on_c, 1, 64, 0
2, 70800, Note_on_c, 1, 60, 80
2, 70800, Control_c, 1, 2, 80
2, 70800, Note_on_c, 1, 64, 80
2, 71039, Note_on_c, 1, 60, 0
2, 71039, Note_on_c, 1, 64, 0
2, 71040, Note_on_c, 1, 55, 80
2, 71040, Control_c, 1, 2, 80
2, 71279, Note_on_c, 1, 55, 0
2, 71280, Note_on_c, 1, 60, 80
2, 71280, Control_c, 1, 2, 80
2, 71280, Note_on_c, 1, 64, 80
2, 71519, Note_on_c, 1, 60, 0
2, 71519, Note_on_c, 1, 64, 0
2, 71760, Note_on_c, 1, 60, 80
2, 71760, Control_c, 1, 2, 80
2, 71760, Note_on_c, 1, 64, 80
2, 71999, Note_on_c, 1, 60, 0
2, 71999, Note_on_c, 1, 64, 0
2, 72000, Note_on_c, 1, 55, 80
2, 72000, Control_c, 1, 2, 80
2, 72239, Note_on_c, 1, 55, 0
2, 72240, Note_on_c, 1, 60, 80
2, 72240, Control_c, 1, 2, 80
2, 72240, Note_on_c, 1, 64, 80
2, 72479, Note_on_c, 1, 60, 0
2, 72479, Note_on_c, 1, 64, 0
2, 72720, Note_on_c, 1, 60, 80
2, 72720, Control_c, 1, 2, 80
2, 72720, Note_on_c, 1, 64, 80
2, 72959, Note_on_c, 1, 60, 0
2, 72959, Note_on_c, 1, 64, 0
2, 72960, Note_on_c, 1, 53, 80
2, 72960, Control_c, 1, 2, 80
2, 73199, Note_on_c, 1, 53, 0
2, 73200, Note_on_c, 1, 60, 80
2, 73200, Control_c, 1, 2, 80
2, 73200, Note_on_c, 1, 64, 80
2, 73439, Note_on_c, 1, 60, 0
2, 73439, Note_on_c, 1, 64, 0
2, 73680, Note_on_c, 1, 60, 80
2, 73680, Control_c, 1, 2, 80
2, 73680, Note_on_c, 1, 64, 80
2, 73919, Note_on_c, 1, 60, 0
2, 73919, Note_on_c, 1, 64, 0
2, 73920, Note_on_c, 1, 53, 80
2, 73920, Control_c, 1, 2, 80
2, 74159, Note_on_c, 1, 53, 0
2, 74160, Note_on_c, 1, 60, 80
2, 74160, Control_c, 1, 2, 80
2, 74160, Note_on_c, 1, 64, 80
2, 74399, Note_on_c, 1, 60, 0
2, 74399, Note_on_c, 1, 64, 0
2, 74640, Note_on_c, 1, 60, 80
2, 74640, Control_c, 1, 2, 80
2, 74640, Note_on_c, 1, 64, 80
2, 74879, Note_on_c, 1, 60, 0
2, 74879, Note_on_c, 1, 64, 0
2, 74880, Note_on_c, 1, 55, 80
2, 74880, Control_c, 1, 2, 80
2, 75119, Note_on_c, 1, 55, 0
2, 75120, Note_on_c, 1, 55, 80
2, 75120, Control_c, 1, 2, 80
2, 75120, Note_on_c, 1, 59, 80
2, 75359, Note_on_c, 1, 55, 0
2, 75359, Note_on_c, 1, 59, 0
2, 75360, Note_on_c, 1, 55, 80
2, 75360, Control_c, 1, 2, 80
2, 75599, Note_on_c, 1, 55, 0
2, 75600, Note_on_c, 1, 55, 80
2, 75600, Control_c, 1, 2, 80
2, 75600, Note_on_c, 1, 59, 80
2, 75839, Note_on_c, 1, 55, 0
2, 75839, Note_on_c, 1, 59, 0
2, 75840, Note_on_c, 1, 55, 80
2, 75840, Control_c, 1, 2, 80
2, 76079, Note_on_c, 1, 55, 0
2, 76080, Note_on_c, 1, 55, 80
2, 76080, Control_c, 1, 2, 80
2, 76080, Note_on_c, 1, 59, 80
2, 76319, Note_on_c, 1, 55, 0
2, 76319, Note_on_c, 1, 59, 0
2, 76320, Note_on_c, 1, 55, 80
2, 76320, Control_c, 1, 2, 80
2, 76559, Note_on_c, 1, 55, 0
2, 76560, Note_on_c, 1, 55, 80
2, 76560, Control_c, 1, 2, 80
2, 76560, Note_on_c, 1, 59, 80
2, 76799, Note_on_c, 1, 55, 0
2, 76799, Note_on_c, 1, 59, 0
2, 76800, Note_on_c, 1, 57, 80
2, 76800, Control_c, 1, 2, 80
2, 77039, Note_on_c, 1, 57, 0
2, 77040, Note_on_c, 1, 60, 80
2, 77040, Note_on_c, 1, 64, 80
2, 77279, Note_on_c, 1, 60, 0
2, 77279, Note_on_c, 1, 64, 0
2, 77520, Note_on_c, 1, 60, 80
2, 77520, Note_on_c, 1, 64, 80
2, 77759, Note_on_c, 1, 60, 0
2, 77759, Note_on_c, 1, 64, 0
2, 77760, Note_on_c, 1, 57, 80
2, 77999, Note_on_c, 1, 57, 0
2, 78000, Note_on_c, 1, 60, 80
2, 78000, Note_on_c, 1, 64, 80
2, 78239, Note_on_c, 1, 60, 0
2, 78239, Note_on_c, 1, 64, 0
2, 78480, Note_on_c, 1, 60, 80
2, 78480, Note_on_c, 1, 64, 80
2, 78719, Note_on_c, 1, 60, 0
2, 78719, Note_on_c, 1, 64, 0
2, 78720, Note_on_c, 1, 55, 80
2, 78959, Note_on_c, 1, 55, 0
2, 78960, Note_on_c, 1, 60, 80
2, 78960, Note_on_c, 1, 64, 80
2, 79199, Note_on_c, 1, 60, 0
2, 79199, Note_on_c, 1, 64, 0
2, 79440, Note_on_c, 1, 60, 80
2, 79440, Note_on_c, 1, 64, 80
2, 79679, Note_on_c, 1, 60, 0
2, 79679, Note_on_c, 1, 64, 0
2, 79680, Note_on_c, 1, 55, 80
2, 79919, Note_on_c, 1, 55, 0
2, 79920, Note_on_c, 1, 60, 80
2, 79920, Note_on_c, 1, 64, 80
2, 80159, Note_on_c, 1, 60, 0
2, 80159, Note_on_c, 1, 64, 0
2, 80400, Note_on_c, 1, 60, 80
2, 80400, Note_on_c, 1, 64, 80
2, 80639, Note_on_c, 1, 60, 0
2, 80639, Note_on_c, 1, 64, 0
2, 80640, Note_on_c, 1, 53, 80
2, 80879, Note_on_c, 1, 53, 0
2, 80880, Note_on_c, 1, 60, 80
2, 80880, Note_on_c, 1, 64, 80
2, 81119, Note_on_c, 1, 60, 0
2, 81119, Note_on_c, 1, 64, 0
2, 81360, Note_on_c, 1, 60, 80
2, 81360, Note_on_c, 1, 64, 80
2, 81599, Note_on_c, 1, 60, 0
2, 81599, Note_on_c, 1, 64, 0
2, 81600, Note_on_c, 1, 53, 80
2, 81839, Note_on_c, 1, 53, 0
2, 81840, Note_on_c, 1, 60, 80
2, 81840, Note_on_c, 1, 64, 80
2, 82079, Note_on_c, 1, 60, 0
2, 82079, Note_on_c, 1, 64, 0
2, 82320, Note_on_c, 1, 60, 80
2, 82320, Note_on_c, 1, 64, 80
2, 82559, Note_on_c, 1, 60, 0
2, 82559, Note_on_c, 1, 64, 0
2, 82560, Note_on_c, 1, 55, 80
2, 82799, Note_on_c, 1, 55, 0
2, 82800, Note_on_c, 1, 55, 80
2, 82800, Note_on_c, 1, 59, 80
2, 83039, Note_on_c, 1, 55, 0
2, 83039, Note_on_c, 1, 59, 0
2, 83280, Note_on_c, 1, 55, 80
2, 83280, Note_on_c, 1, 59, 80
2, 83519, Note_on_c, 1, 55, 0
2, 83519, Note_on_c, 1, 59, 0
2, 83520, Note_on_c, 1, 55, 80
2, 83759, Note_on_c, 1, 55, 0
2, 83760, Note_on_c, 1, 55, 80
2, 83760, Note_on_c, 1, 59, 80
2, 83999, Note_on_c, 1, 55, 0
2, 83999, Note_on_c, 1, 59, 0
2, 84240, Note_on_c, 1, 55, 80
2, 84240, Note_on_c, 1, 59, 80
2, 84479, Note_on_c, 1, 55, 0
2, 84479, Note_on_c, 1, 59, 0
2, 84480, Note_on_c, 1, 57, 80
2, 84719, Note_on_c, 1, 57, 0
2, 84720, Note_on_c, 1, 60, 80
2, 84720, Note_on_c, 1, 64, 80
2, 84959, Note_on_c, 1, 60, 0
2, 84959, Note_on_c, 1, 64, 0
2, 85200, Note_on_c, 1, 60, 80
2, 85200, Note_on_c, 1, 64, 80
2, 85439, Note_on_c, 1, 60, 0
2, 85439, Note_on_c, 1, 64, 0
2, 85440, Note_on_c, 1, 57, 80
2, 85679, Note_on_c, 1, 57, 0
2, 85680, Note_on_c, 1, 60, 80
2, 85680, Note_on_c, 1, 64, 80
2, 85919, Note_on_c, 1, 60, 0
2, 85919, Note_on_c, 1, 64, 0
2, 86160, Note_on_c, 1, 60, 80
2, 86160, Note_on_c, 1, 64, 80
2, 86399, Note_on_c, 1, 60, 0
2, 86399, Note_on_c, 1, 64, 0
2, 86400, Note_on_c, 1, 55, 80
2, 86639, Note_on_c, 1, 55, 0
2, 86640, Note_on_c, 1, 60, 80
2, 86640, Note_on_c, 1, 64, 80
2, 86879, Note_on_c, 1, 60, 0
2, 86879, Note_on_c, 1, 64, 0
2, 87120, Note_on_c, 1, 60, 80
2, 87120, Note_on_c, 1, 64, 80
2, 87359, Note_on_c, 1, 60, 0
2, 87359, Note_on_c, 1, 64, 0
2, 87360, Note_on_c, 1, 55, 80
2, 87599, Note_on_c, 1, 55, 0
2, 87600, Note_on_c, 1, 60, 80
2, 87600, Note_on_c, 1, 64, 80
2, 87839, Note_on_c, 1, 60, 0
2, 87839, Note_on_c, 1, 64, 0
2, 88080, Note_on_c, 1, 60, 80
2, 88080, Note_on_c, 1, 64, 80
2, 88319, Note_on_c, 1, 60, 0
2, 88319, Note_on_c, 1, 64, 0
2, 88320, Note_on_c, 1, 53, 80
2, 88559, Note_on_c, 1, 53, 0
2, 88560, Note_on_c, 1, 60, 80
2, 88560, Note_on_c, 1, 64, 80
2, 88799, Note_on_c, 1, 60, 0
2, 88799, Note_on_c, 1, 64, 0
2, 89040, Note_on_c, 1, 60, 80
2, 89040, Note_on_c, 1, 64, 80
2, 89279, Note_on_c, 1, 60, 0
2, 89279, Note_on_c, 1, 64, 0
2, 89280, Note_on_c, 1, 53, 80
2, 89519, Note_on_c, 1, 53, 0
2, 89520, Note_on_c, 1, 60, 80
2, 89520, Note_on_c, 1, 64, 80
2, 89759, Note_on_c, 1, 60, 0
2, 89759, Note_on_c, 1, 64, 0
2, 90000, Note_on_c, 1, 60, 80
2, 90000, Note_on_c, 1, 64, 80
2, 90239, Note_on_c, 1, 60, 0
2, 90239, Note_on_c, 1, 64, 0
2, 90240, Note_on_c, 1, 55, 80
2, 90479, Note_on_c, 1, 55, 0
2, 90480, Note_on_c, 1, 55, 80
2, 90480, Note_on_c, 1, 59, 80
2, 90719, Note_on_c, 1, 55, 0
2, 90719, Note_on_c, 1, 59, 0
2, 90960, Note_on_c, 1, 55, 80
2, 90960, Note_on_c, 1, 59, 80
2, 91199, Note_on_c, 1, 55, 0
2, 91199, Note_on_c, 1, 59, 0
2, 91200, Note_on_c, 1, 55, 80
2, 91439, Note_on_c, 1, 55, 0
2, 91440, Note_on_c, 1, 55, 80
2, 91440, Note_on_c, 1, 59, 80
2, 91679, Note_on_c, 1, 55, 0
2, 91679, Note_on_c, 1, 59, 0
2, 91920, Note_on_c, 1, 55, 80
2, 91920, Note_on_c, 1, 59, 80
2, 92159, Note_on_c, 1, 55, 0
2, 92159, Note_on_c, 1, 59, 0
2, 94080, Control_c, 1, 64, 0
2, 94081, End_track
3, 0, Start_track
3, 0, Title_t, "Bass\000"
3, 0, Key_signature, 0, "major"
3, 0, Control_c, 2, 121, 0
3, 0, Program_c, 2, 33
3, 0, Control_c, 2, 7, 100
3, 0, Control_c, 2, 10, 64
3, 0, Control_c, 2, 91, 0
3, 0, Control_c, 2, 93, 0
3, 0, MIDI_port, 0
3, 0, Note_on_c, 2, 57, 80
3, 0, Control_c, 2, 2, 80
3, 1439, Note_on_c, 2, 57, 0
3, 1440, Note_on_c, 2, 57, 80
3, 1440, Control_c, 2, 2, 80
3, 1919, Note_on_c, 2, 57, 0
3, 1920, Note_on_c, 2, 55, 80
3, 1920, Control_c, 2, 2, 80
3, 3359, Note_on_c, 2, 55, 0
3, 3360, Note_on_c, 2, 55, 80
3, 3360, Control_c, 2, 2, 80
3, 3839, Note_on_c, 2, 55, 0
3, 3840, Note_on_c, 2, 53, 80
3, 3840, Control_c, 2, 2, 80
3, 5279, Note_on_c, 2, 53, 0
3, 5280, Note_on_c, 2, 53, 80
3, 5280, Control_c, 2, 2, 80
3, 5759, Note_on_c, 2, 53, 0
3, 5760, Note_on_c, 2, 55, 80
3, 5760, Control_c, 2, 2, 80
3, 7199, Note_on_c, 2, 55, 0
3, 7200, Note_on_c, 2, 55, 80
3, 7200, Control_c, 2, 2, 80
3, 7679, Note_on_c, 2, 55, 0
3, 7680, Note_on_c, 2, 57, 80
3, 7680, Control_c, 2, 2, 80
3, 9119, Note_on_c, 2, 57, 0
3, 9120, Note_on_c, 2, 57, 80
3, 9120, Control_c, 2, 2, 80
3, 9599, Note_on_c, 2, 57, 0
3, 9600, Note_on_c, 2, 55, 80
3, 9600, Control_c, 2, 2, 80
3, 11039, Note_on_c, 2, 55, 0
3, 11040, Note_on_c, 2, 55, 80
3, 11040, Control_c, 2, 2, 80
3, 11519, Note_on_c, 2, 55, 0
3, 11520, Note_on_c, 2, 53, 80
3, 11520, Control_c, 2, 2, 80
3, 12959, Note_on_c, 2, 53, 0
3, 12960, Note_on_c, 2, 53, 80
3, 12960, Control_c, 2, 2, 80
3, 13439, Note_on_c, 2, 53, 0
3, 13440, Note_on_c, 2, 55, 80
3, 13440, Control_c, 2, 2, 80
3, 14879, Note_on_c, 2, 55, 0
3, 14880, Note_on_c, 2, 55, 80
3, 14880, Control_c, 2, 2, 80
3, 15359, Note_on_c, 2, 55, 0
3, 15360, Note_on_c, 2, 57, 80
3, 15360, Control_c, 2, 2, 80
3, 16799, Note_on_c, 2, 57, 0
3, 16800, Note_on_c, 2, 57, 80
3, 16800, Control_c, 2, 2, 80
3, 17279, Note_on_c, 2, 57, 0
3, 17280, Note_on_c, 2, 55, 80
3, 17280, Control_c, 2, 2, 80
3, 18719, Note_on_c, 2, 55, 0
3, 18720, Note_on_c, 2, 55, 80
3, 18720, Control_c, 2, 2, 80
3, 19199, Note_on_c, 2, 55, 0
3, 19200, Note_on_c, 2, 53, 80
3, 19200, Control_c, 2, 2, 80
3, 20639, Note_on_c, 2, 53, 0
3, 20640, Note_on_c, 2, 53, 80
3, 20640, Control_c, 2, 2, 80
3, 21119, Note_on_c, 2, 53, 0
3, 21120, Note_on_c, 2, 55, 80
3, 21120, Control_c, 2, 2, 80
3, 22559, Note_on_c, 2, 55, 0
3, 22560, Note_on_c, 2, 55, 80
3, 22560, Control_c, 2, 2, 80
3, 23039, Note_on_c, 2, 55, 0
3, 23040, Note_on_c, 2, 57, 80
3, 23040, Control_c, 2, 2, 80
3, 24479, Note_on_c, 2, 57, 0
3, 24480, Note_on_c, 2, 57, 80
3, 24480, Control_c, 2, 2, 80
3, 24959, Note_on_c, 2, 57, 0
3, 24960, Note_on_c, 2, 55, 80
3, 24960, Control_c, 2, 2, 80
3, 26399, Note_on_c, 2, 55, 0
3, 26400, Note_on_c, 2, 55, 80
3, 26400, Control_c, 2, 2, 80
3, 26879, Note_on_c, 2, 55, 0
3, 26880, Note_on_c, 2, 53, 80
3, 26880, Control_c, 2, 2, 80
3, 28319, Note_on_c, 2, 53, 0
3, 28320, Note_on_c, 2, 53, 80
3, 28320, Control_c, 2, 2, 80
3, 28799, Note_on_c, 2, 53, 0
3, 28800, Note_on_c, 2, 55, 80
3, 28800, Control_c, 2, 2, 80
3, 30239, Note_on_c, 2, 55, 0
3, 30240, Note_on_c, 2, 55, 80
3, 30240, Control_c, 2, 2, 80
3, 30719, Note_on_c, 2, 55, 0
3, 30720, Note_on_c, 2, 57, 80
3, 30720, Control_c, 2, 2, 80
3, 32159, Note_on_c, 2, 57, 0
3, 32160, Note_on_c, 2, 57, 80
3, 32160, Control_c, 2, 2, 80
3, 32639, Note_on_c, 2, 57, 0
3, 32640, Note_on_c, 2, 55, 80
3, 32640, Control_c, 2, 2, 80
3, 34079, Note_on_c, 2, 55, 0
3, 34080, Note_on_c, 2, 55, 80
3, 34080, Control_c, 2, 2, 80
3, 34559, Note_on_c, 2, 55, 0
3, 34560, Note_on_c, 2, 53, 80
3, 34560, Control_c, 2, 2, 80
3, 35999, Note_on_c, 2, 53, 0
3, 36000, Note_on_c, 2, 53, 80
3, 36000, Control_c, 2, 2, 80
3, 36479, Note_on_c, 2, 53, 0
3, 36480, Note_on_c, 2, 55, 80
3, 36480, Control_c, 2, 2, 80
3, 37919, Note_on_c, 2, 55, 0
3, 37920, Note_on_c, 2, 55, 80
3, 37920, Control_c, 2, 2, 80
3, 38399, Note_on_c, 2, 55, 0
3, 38400, Note_on_c, 2, 57, 80
3, 38400, Control_c, 2, 2, 80
3, 39839, Note_on_c, 2, 57, 0
3, 39840, Note_on_c, 2, 57, 80
3, 39840, Control_c, 2, 2, 80
3, 40319, Note_on_c, 2, 57, 0
3, 40320, Note_on_c, 2, 55, 80
3, 40320, Control_c, 2, 2, 80
3, 41759, Note_on_c, 2, 55, 0
3, 41760, Note_on_c, 2, 55, 80
3, 41760, Control_c, 2, 2, 80
3, 42239, Note_on_c, 2, 55, 0
3, 42240, Note_on_c, 2, 53, 80
3, 42240, Control_c, 2, 2, 80
3, 43679, Note_on_c, 2, 53, 0
3, 43680, Note_on_c, 2, 53, 80
3, 43680, Control_c, 2, 2, 80
3, 44159, Note_on_c, 2, 53, 0
3, 44160, Note_on_c, 2, 55, 80
3, 44160, Control_c, 2, 2, 80
3, 45599, Note_on_c, 2, 55, 0
3, 45600, Note_on_c, 2, 55, 80
3, 45600, Control_c, 2, 2, 80
3, 46079, Note_on_c, 2, 55, 0
3, 46080, Note_on_c, 2, 57, 80
3, 46080, Control_c, 2, 2, 80
3, 47519, Note_on_c, 2, 57, 0
3, 47520, Note_on_c, 2, 57, 80
3, 47520, Control_c, 2, 2, 80
3, 47999, Note_on_c, 2, 57, 0
3, 48000, Note_on_c, 2, 55, 80
3, 48000, Control_c, 2, 2, 80
3, 49439, Note_on_c, 2, 55, 0
3, 49440, Note_on_c, 2, 55, 80
3, 49440, Control_c, 2, 2, 80
3, 49919, Note_on_c, 2, 55, 0
3, 49920, Note_on_c, 2, 53, 80
3, 49920, Control_c, 2, 2, 80
3, 51359, Note_on_c, 2, 53, 0
3, 51360, Note_on_c, 2, 53, 80
3, 51360, Control_c, 2, 2, 80
3, 51839, Note_on_c, 2, 53, 0
3, 51840, Note_on_c, 2, 55, 80
3, 51840, Control_c, 2, 2, 80
3, 53279, Note_on_c, 2, 55, 0
3, 53280, Note_on_c, 2, 55, 80
3, 53280, Control_c, 2, 2, 80
3, 53759, Note_on_c, 2, 55, 0
3, 53760, Note_on_c, 2, 57, 80
3, 53760, Control_c, 2, 2, 80
3, 55199, Note_on_c, 2, 57, 0
3, 55200, Note_on_c, 2, 57, 80
3, 55200, Control_c, 2, 2, 80
3, 55679, Note_on_c, 2, 57, 0
3, 55680, Note_on_c, 2, 55, 80
3, 55680, Control_c, 2, 2, 80
3, 57119, Note_on_c, 2, 55, 0
3, 57120, Note_on_c, 2, 55, 80
3, 57120, Control_c, 2, 2, 80
3, 57599, Note_on_c, 2, 55, 0
3, 57600, Note_on_c, 2, 53, 80
3, 57600, Control_c, 2, 2, 80
3, 59039, Note_on_c, 2, 53, 0
3, 59040, Note_on_c, 2, 53, 80
3, 59040, Control_c, 2, 2, 80
3, 59519, Note_on_c, 2, 53, 0
3, 59520, Note_on_c, 2, 55, 80
3, 59520, Control_c, 2, 2, 80
3, 60959, Note_on_c, 2, 55, 0
3, 60960, Note_on_c, 2, 55, 80
3, 60960, Control_c, 2, 2, 80
3, 61439, Note_on_c, 2, 55, 0
3, 61440, End_track
4, 0, Start_track
4, 0, Title_t, "Bell\000"
4, 0, Key_signature, 0, "major"
4, 0, Control_c, 4, 121, 0
4, 0, Program_c, 4, 14
4, 0, Control_c, 4, 7, 100
4, 0, Control_c, 4, 10, 64
4, 0, Control_c, 4, 91, 0
4, 0, Control_c, 4, 93, 0
4, 0, MIDI_port, 0
4, 2, Control_c, 4, 64, 127
4, 46200, Note_on_c, 4, 69, 50
4, 46200, Control_c, 4, 2, 80
4, 46319, Note_on_c, 4, 69, 0
4, 46320, Note_on_c, 4, 64, 50
4, 46320, Control_c, 4, 2, 80
4, 46439, Note_on_c, 4, 64, 0
4, 46440, Note_on_c, 4, 72, 50
4, 46440, Control_c, 4, 2, 80
4, 46679, Note_on_c, 4, 72, 0
4, 46680, Note_on_c, 4, 69, 50
4, 46680, Control_c, 4, 2, 80
4, 46799, Note_on_c, 4, 69, 0
4, 46800, Note_on_c, 4, 64, 50
4, 46800, Control_c, 4, 2, 80
4, 46919, Note_on_c, 4, 64, 0
4, 46920, Note_on_c, 4, 76, 50
4, 46920, Control_c, 4, 2, 80
4, 47159, Note_on_c, 4, 76, 0
4, 47160, Note_on_c, 4, 69, 50
4, 47160, Control_c, 4, 2, 80
4, 47279, Note_on_c, 4, 69, 0
4, 47280, Note_on_c, 4, 64, 50
4, 47280, Control_c, 4, 2, 80
4, 47399, Note_on_c, 4, 64, 0
4, 47400, Note_on_c, 4, 72, 50
4, 47400, Control_c, 4, 2, 80
4, 47639, Note_on_c, 4, 72, 0
4, 47640, Note_on_c, 4, 69, 50
4, 47640, Control_c, 4, 2, 80
4, 47759, Note_on_c, 4, 69, 0
4, 47760, Note_on_c, 4, 64, 50
4, 47760, Control_c, 4, 2, 80
4, 47879, Note_on_c, 4, 64, 0
4, 47880, Note_on_c, 4, 69, 50
4, 47880, Control_c, 4, 2, 80
4, 47999, Note_on_c, 4, 69, 0
4, 48000, Note_on_c, 4, 64, 50
4, 48000, Control_c, 4, 2, 80
4, 48119, Note_on_c, 4, 64, 0
4, 48120, Note_on_c, 4, 69, 50
4, 48120, Control_c, 4, 2, 80
4, 48239, Note_on_c, 4, 69, 0
4, 48240, Note_on_c, 4, 64, 50
4, 48240, Control_c, 4, 2, 80
4, 48359, Note_on_c, 4, 64, 0
4, 48360, Note_on_c, 4, 72, 50
4, 48360, Control_c, 4, 2, 80
4, 48599, Note_on_c, 4, 72, 0
4, 48600, Note_on_c, 4, 69, 50
4, 48600, Control_c, 4, 2, 80
4, 48719, Note_on_c, 4, 69, 0
4, 48720, Note_on_c, 4, 64, 50
4, 48720, Control_c, 4, 2, 80
4, 48839, Note_on_c, 4, 64, 0
4, 48840, Note_on_c, 4, 76, 50
4, 48840, Control_c, 4, 2, 80
4, 49079, Note_on_c, 4, 76, 0
4, 49080, Note_on_c, 4, 69, 50
4, 49080, Control_c, 4, 2, 80
4, 49199, Note_on_c, 4, 69, 0
4, 49200, Note_on_c, 4, 64, 50
4, 49200, Control_c, 4, 2, 80
4, 49319, Note_on_c, 4, 64, 0
4, 49320, Note_on_c, 4, 72, 50
4, 49320, Control_c, 4, 2, 80
4, 49559, Note_on_c, 4, 72, 0
4, 49560, Note_on_c, 4, 69, 50
4, 49560, Control_c, 4, 2, 80
4, 49679, Note_on_c, 4, 69, 0
4, 49680, Note_on_c, 4, 64, 50
4, 49680, Control_c, 4, 2, 80
4, 49799, Note_on_c, 4, 64, 0
4, 49800, Note_on_c, 4, 69, 50
4, 49800, Control_c, 4, 2, 80
4, 49919, Note_on_c, 4, 69, 0
4, 49920, Note_on_c, 4, 64, 50
4, 49920, Control_c, 4, 2, 80
4, 50039, Note_on_c, 4, 64, 0
4, 50040, Note_on_c, 4, 69, 50
4, 50040, Control_c, 4, 2, 80
4, 50159, Note_on_c, 4, 69, 0
4, 50160, Note_on_c, 4, 64, 50
4, 50160, Control_c, 4, 2, 80
4, 50279, Note_on_c, 4, 64, 0
4, 50280, Note_on_c, 4, 72, 50
4, 50280, Control_c, 4, 2, 80
4, 50519, Note_on_c, 4, 72, 0
4, 50520, Note_on_c, 4, 69, 50
4, 50520, Control_c, 4, 2, 80
4, 50639, Note_on_c, 4, 69, 0
4, 50640, Note_on_c, 4, 64, 50
4, 50640, Control_c, 4, 2, 80
4, 50759, Note_on_c, 4, 64, 0
4, 50760, Note_on_c, 4, 76, 50
4, 50760, Control_c, 4, 2, 80
4, 50999, Note_on_c, 4, 76, 0
4, 51000, Note_on_c, 4, 69, 50
4, 51000, Control_c, 4, 2, 80
4, 51119, Note_on_c, 4, 69, 0
4, 51120, Note_on_c, 4, 64, 50
4, 51120, Control_c, 4, 2, 80
4, 51239, Note_on_c, 4, 64, 0
4, 51240, Note_on_c, 4, 72, 50
4, 51240, Control_c, 4, 2, 80
4, 51479, Note_on_c, 4, 72, 0
4, 51480, Note_on_c, 4, 69, 50
4, 51480, Control_c, 4, 2, 80
4, 51599, Note_on_c, 4, 69, 0
4, 51600, Note_on_c, 4, 64, 50
4, 51600, Control_c, 4, 2, 80
4, 51719, Note_on_c, 4, 64, 0
4, 51720, Note_on_c, 4, 69, 50
4, 51720, Control_c, 4, 2, 80
4, 51839, Note_on_c, 4, 69, 0
4, 51840, Note_on_c, 4, 64, 50
4, 51840, Control_c, 4, 2, 80
4, 51959, Note_on_c, 4, 64, 0
4, 51960, Note_on_c, 4, 69, 50
4, 51960, Control_c, 4, 2, 80
4, 52079, Note_on_c, 4, 69, 0
4, 52080, Note_on_c, 4, 64, 50
4, 52080, Control_c, 4, 2, 80
4, 52199, Note_on_c, 4, 64, 0
4, 52200, Note_on_c, 4, 72, 50
4, 52200, Control_c, 4, 2, 80
4, 52439, Note_on_c, 4, 72, 0
4, 52440, Note_on_c, 4, 69, 50
4, 52559, Note_on_c, 4, 69, 0
4, 52560, Note_on_c, 4, 64, 50
4, 52560, Control_c, 4, 2, 80
4, 52679, Note_on_c, 4, 64, 0
4, 52680, Note_on_c, 4, 76, 50
4, 52680, Control_c, 4, 2, 80
4, 52919, Note_on_c, 4, 76, 0
4, 52920, Note_on_c, 4, 69, 50
4, 52920, Control_c, 4, 2, 80
4, 53039, Note_on_c, 4, 69, 0
4, 53040, Note_on_c, 4, 64, 50
4, 53040, Control_c, 4, 2, 80
4, 53159, Note_on_c, 4, 64, 0
4, 53160, Note_on_c, 4, 72, 50
4, 53160, Control_c, 4, 2, 80
4, 53399, Note_on_c, 4, 72, 0
4, 53400, Note_on_c, 4, 69, 50
4, 53400, Control_c, 4, 2, 80
4, 53519, Note_on_c, 4, 69, 0
4, 53520, Note_on_c, 4, 64, 50
4, 53520, Control_c, 4, 2, 80
4, 53639, Note_on_c, 4, 64, 0
4, 53640, Note_on_c, 4, 69, 50
4, 53640, Control_c, 4, 2, 80
4, 53759, Note_on_c, 4, 69, 0
4, 53760, Note_on_c, 4, 64, 50
4, 53760, Control_c, 4, 2, 80
4, 53879, Note_on_c, 4, 64, 0
4, 53880, Note_on_c, 4, 69, 50
4, 53880, Control_c, 4, 2, 80
4, 53999, Note_on_c, 4, 69, 0
4, 54000, Note_on_c, 4, 64, 50
4, 54000, Control_c, 4, 2, 80
4, 54119, Note_on_c, 4, 64, 0
4, 54120, Note_on_c, 4, 72, 50
4, 54120, Control_c, 4, 2, 80
4, 54359, Note_on_c, 4, 72, 0
4, 54360, Note_on_c, 4, 69, 50
4, 54360, Control_c, 4, 2, 80
4, 54479, Note_on_c, 4, 69, 0
4, 54480, Note_on_c, 4, 64, 50
4, 54480, Control_c, 4, 2, 80
4, 54599, Note_on_c, 4, 64, 0
4, 54600, Note_on_c, 4, 76, 50
4, 54600, Control_c, 4, 2, 80
4, 54839, Note_on_c, 4, 76, 0
4, 54840, Note_on_c, 4, 69, 50
4, 54840, Control_c, 4, 2, 80
4, 54959, Note_on_c, 4, 69, 0
4, 54960, Note_on_c, 4, 64, 50
4, 54960, Control_c, 4, 2, 80
4, 55079, Note_on_c, 4, 64, 0
4, 55080, Note_on_c, 4, 72, 50
4, 55080, Control_c, 4, 2, 80
4, 55319, Note_on_c, 4, 72, 0
4, 55320, Note_on_c, 4, 69, 50
4, 55320, Control_c, 4, 2, 80
4, 55439, Note_on_c, 4, 69, 0
4, 55440, Note_on_c, 4, 64, 50
4, 55440, Control_c, 4, 2, 80
4, 55559, Note_on_c, 4, 64, 0
4, 55560, Note_on_c, 4, 69, 50
4, 55560, Control_c, 4, 2, 80
4, 55679, Note_on_c, 4, 69, 0
4, 55680, Note_on_c, 4, 64, 50
4, 55680, Control_c, 4, 2, 80
4, 55799, Note_on_c, 4, 64, 0
4, 55800, Note_on_c, 4, 69, 50
4, 55800, Control_c, 4, 2, 80
4, 55919, Note_on_c, 4, 69, 0
4, 55920, Note_on_c, 4, 64, 50
4, 55920, Control_c, 4, 2, 80
4, 56039, Note_on_c, 4, 64, 0
4, 56040, Note_on_c, 4, 72, 50
4, 56040, Control_c, 4, 2, 80
4, 56279, Note_on_c, 4, 72, 0
4, 56280, Note_on_c, 4, 69, 50
4, 56280, Control_c, 4, 2, 80
4, 56399, Note_on_c, 4, 69, 0
4, 56400, Note_on_c, 4, 64, 50
4, 56400, Control_c, 4, 2, 80
4, 56519, Note_on_c, 4, 64, 0
4, 56520, Note_on_c, 4, 76, 50
4, 56520, Control_c, 4, 2, 80
4, 56759, Note_on_c, 4, 76, 0
4, 56760, Note_on_c, 4, 69, 50
4, 56760, Control_c, 4, 2, 80
4, 56879, Note_on_c, 4, 69, 0
4, 56880, Note_on_c, 4, 64, 50
4, 56880, Control_c, 4, 2, 80
4, 56999, Note_on_c, 4, 64, 0
4, 57000, Note_on_c, 4, 72, 50
4, 57000, Control_c, 4, 2, 80
4, 57239, Note_on_c, 4, 72, 0
4, 57240, Note_on_c, 4, 69, 50
4, 57240, Control_c, 4, 2, 80
4, 57359, Note_on_c, 4, 69, 0
4, 57360, Note_on_c, 4, 64, 50
4, 57360, Control_c, 4, 2, 80
4, 57479, Note_on_c, 4, 64, 0
4, 57480, Note_on_c, 4, 69, 50
4, 57480, Control_c, 4, 2, 80
4, 57599, Note_on_c, 4, 69, 0
4, 57600, Note_on_c, 4, 64, 50
4, 57600, Control_c, 4, 2, 80
4, 57719, Note_on_c, 4, 64, 0
4, 57720, Note_on_c, 4, 69, 50
4, 57720, Control_c, 4, 2, 80
4, 57839, Note_on_c, 4, 69, 0
4, 57840, Note_on_c, 4, 64, 50
4, 57840, Control_c, 4, 2, 80
4, 57959, Note_on_c, 4, 64, 0
4, 57960, Note_on_c, 4, 72, 50
4, 57960, Control_c, 4, 2, 80
4, 58199, Note_on_c, 4, 72, 0
4, 58200, Note_on_c, 4, 69, 50
4, 58200, Control_c, 4, 2, 80
4, 58319, Note_on_c, 4, 69, 0
4, 58320, Note_on_c, 4, 64, 50
4, 58320, Control_c, 4, 2, 80
4, 58439, Note_on_c, 4, 64, 0
4, 58440, Note_on_c, 4, 76, 50
4, 58440, Control_c, 4, 2, 80
4, 58679, Note_on_c, 4, 76, 0
4, 58680, Note_on_c, 4, 69, 50
4, 58680, Control_c, 4, 2, 80
4, 58799, Note_on_c, 4, 69, 0
4, 58800, Note_on_c, 4, 64, 50
4, 58800, Control_c, 4, 2, 80
4, 58919, Note_on_c, 4, 64, 0
4, 58920, Note_on_c, 4, 72, 50
4, 58920, Control_c, 4, 2, 80
4, 59159, Note_on_c, 4, 72, 0
4, 59160, Note_on_c, 4, 69, 50
4, 59160, Control_c, 4, 2, 80
4, 59279, Note_on_c, 4, 69, 0
4, 59280, Note_on_c, 4, 64, 50
4, 59280, Control_c, 4, 2, 80
4, 59399, Note_on_c, 4, 64, 0
4, 59400, Note_on_c, 4, 69, 50
4, 59400, Control_c, 4, 2, 80
4, 59519, Note_on_c, 4, 69, 0
4, 59520, Note_on_c, 4, 64, 50
4, 59520, Control_c, 4, 2, 80
4, 59639, Note_on_c, 4, 64, 0
4, 59640, Note_on_c, 4, 69, 50
4, 59640, Control_c, 4, 2, 80
4, 59759, Note_on_c, 4, 69, 0
4, 59760, Note_on_c, 4, 64, 50
4, 59760, Control_c, 4, 2, 80
4, 59879, Note_on_c, 4, 64, 0
4, 59880, Note_on_c, 4, 72, 50
4, 59880, Control_c, 4, 2, 80
4, 60119, Note_on_c, 4, 72, 0
4, 60120, Note_on_c, 4, 69, 50
4, 60239, Note_on_c, 4, 69, 0
4, 60240, Note_on_c, 4, 64, 50
4, 60240, Control_c, 4, 2, 80
4, 60359, Note_on_c, 4, 64, 0
4, 60360, Note_on_c, 4, 76, 50
4, 60360, Control_c, 4, 2, 80
4, 60599, Note_on_c, 4, 76, 0
4, 60600, Note_on_c, 4, 69, 50
4, 60600, Control_c, 4, 2, 80
4, 60719, Note_on_c, 4, 69, 0
4, 60720, Note_on_c, 4, 64, 50
4, 60720, Control_c, 4, 2, 80
4, 60839, Note_on_c, 4, 64, 0
4, 60840, Note_on_c, 4, 72, 50
4, 60840, Control_c, 4, 2, 80
4, 61079, Note_on_c, 4, 72, 0
4, 61080, Note_on_c, 4, 69, 50
4, 61080, Control_c, 4, 2, 80
4, 61199, Note_on_c, 4, 69, 0
4, 61200, Note_on_c, 4, 64, 50
4, 61200, Control_c, 4, 2, 80
4, 61319, Note_on_c, 4, 64, 0
4, 61320, Note_on_c, 4, 69, 50
4, 61320, Control_c, 4, 2, 80
4, 61439, Note_on_c, 4, 69, 0
4, 61680, Note_on_c, 4, 71, 50
4, 61680, Control_c, 4, 2, 80
4, 61919, Note_on_c, 4, 71, 0
4, 61920, Note_on_c, 4, 72, 50
4, 61920, Control_c, 4, 2, 80
4, 62159, Note_on_c, 4, 72, 0
4, 62160, Note_on_c, 4, 71, 50
4, 62160, Control_c, 4, 2, 80
4, 62399, Note_on_c, 4, 71, 0
4, 62400, Note_on_c, 4, 76, 50
4, 62400, Control_c, 4, 2, 80
4, 62639, Note_on_c, 4, 76, 0
4, 62640, Note_on_c, 4, 72, 50
4, 62640, Control_c, 4, 2, 80
4, 62879, Note_on_c, 4, 72, 0
4, 62880, Note_on_c, 4, 71, 50
4, 62880, Control_c, 4, 2, 80
4, 63119, Note_on_c, 4, 71, 0
4, 63120, Note_on_c, 4, 72, 50
4, 63120, Control_c, 4, 2, 80
4, 63359, Note_on_c, 4, 72, 0
4, 63600, Note_on_c, 4, 71, 50
4, 63600, Control_c, 4, 2, 80
4, 63839, Note_on_c, 4, 71, 0
4, 63840, Note_on_c, 4, 72, 50
4, 63840, Control_c, 4, 2, 80
4, 64079, Note_on_c, 4, 72, 0
4, 64080, Note_on_c, 4, 71, 50
4, 64080, Control_c, 4, 2, 80
4, 64319, Note_on_c, 4, 71, 0
4, 64320, Note_on_c, 4, 76, 50
4, 64320, Control_c, 4, 2, 80
4, 64559, Note_on_c, 4, 76, 0
4, 64560, Note_on_c, 4, 72, 50
4, 64560, Control_c, 4, 2, 80
4, 64799, Note_on_c, 4, 72, 0
4, 64800, Note_on_c, 4, 71, 50
4, 64800, Control_c, 4, 2, 80
4, 65039, Note_on_c, 4, 71, 0
4, 65040, Note_on_c, 4, 72, 50
4, 65040, Control_c, 4, 2, 80
4, 65279, Note_on_c, 4, 72, 0
4, 65520, Note_on_c, 4, 71, 50
4, 65520, Control_c, 4, 2, 80
4, 65759, Note_on_c, 4, 71, 0
4, 65760, Note_on_c, 4, 72, 50
4, 65760, Control_c, 4, 2, 80
4, 65999, Note_on_c, 4, 72, 0
4, 66000, Note_on_c, 4, 71, 50
4, 66000, Control_c, 4, 2, 80
4, 66239, Note_on_c, 4, 71, 0
4, 66240, Note_on_c, 4, 76, 50
4, 66240, Control_c, 4, 2, 80
4, 66479, Note_on_c, 4, 76, 0
4, 66480, Note_on_c, 4, 72, 50
4, 66480, Control_c, 4, 2, 80
4, 66719, Note_on_c, 4, 72, 0
4, 66720, Note_on_c, 4, 71, 50
4, 66720, Control_c, 4, 2, 80
4, 66959, Note_on_c, 4, 71, 0
4, 66960, Note_on_c, 4, 72, 50
4, 66960, Control_c, 4, 2, 80
4, 67199, Note_on_c, 4, 72, 0
4, 67440, Note_on_c, 4, 71, 50
4, 67440, Control_c, 4, 2, 80
4, 67679, Note_on_c, 4, 71, 0
4, 67680, Note_on_c, 4, 72, 50
4, 67680, Control_c, 4, 2, 80
4, 67919, Note_on_c, 4, 72, 0
4, 67920, Note_on_c, 4, 71, 50
4, 67920, Control_c, 4, 2, 80
4, 68159, Note_on_c, 4, 71, 0
4, 68160, Note_on_c, 4, 76, 50
4, 68160, Control_c, 4, 2, 80
4, 68399, Note_on_c, 4, 76, 0
4, 68400, Note_on_c, 4, 72, 50
4, 68400, Control_c, 4, 2, 80
4, 68639, Note_on_c, 4, 72, 0
4, 68640, Note_on_c, 4, 71, 50
4, 68640, Control_c, 4, 2, 80
4, 68879, Note_on_c, 4, 71, 0
4, 68880, Note_on_c, 4, 72, 50
4, 68880, Control_c, 4, 2, 80
4, 69119, Note_on_c, 4, 72, 0
4, 69360, Note_on_c, 4, 71, 50
4, 69360, Control_c, 4, 2, 80
4, 69599, Note_on_c, 4, 71, 0
4, 69600, Note_on_c, 4, 72, 50
4, 69600, Control_c, 4, 2, 80
4, 69839, Note_on_c, 4, 72, 0
4, 69840, Note_on_c, 4, 71, 50
4, 69840, Control_c, 4, 2, 80
4, 70079, Note_on_c, 4, 71, 0
4, 70080, Note_on_c, 4, 76, 50
4, 70080, Control_c, 4, 2, 80
4, 70319, Note_on_c, 4, 76, 0
4, 70320, Note_on_c, 4, 72, 50
4, 70320, Control_c, 4, 2, 80
4, 70559, Note_on_c, 4, 72, 0
4, 70560, Note_on_c, 4, 71, 50
4, 70560, Control_c, 4, 2, 80
4, 70799, Note_on_c, 4, 71, 0
4, 70800, Note_on_c, 4, 72, 50
4, 70800, Control_c, 4, 2, 80
4, 71039, Note_on_c, 4, 72, 0
4, 71280, Note_on_c, 4, 71, 50
4, 71280, Control_c, 4, 2, 80
4, 71519, Note_on_c, 4, 71, 0
4, 71520, Note_on_c, 4, 72, 50
4, 71520, Control_c, 4, 2, 80
4, 71759, Note_on_c, 4, 72, 0
4, 71760, Note_on_c, 4, 71, 50
4, 71760, Control_c, 4, 2, 80
4, 71999, Note_on_c, 4, 71, 0
4, 72000, Note_on_c, 4, 76, 50
4, 72000, Control_c, 4, 2, 80
4, 72239, Note_on_c, 4, 76, 0
4, 72240, Note_on_c, 4, 72, 50
4, 72240, Control_c, 4, 2, 80
4, 72479, Note_on_c, 4, 72, 0
4, 72480, Note_on_c, 4, 71, 50
4, 72480, Control_c, 4, 2, 80
4, 72719, Note_on_c, 4, 71, 0
4, 72720, Note_on_c, 4, 72, 50
4, 72720, Control_c, 4, 2, 80
4, 72959, Note_on_c, 4, 72, 0
4, 73200, Note_on_c, 4, 71, 50
4, 73200, Control_c, 4, 2, 80
4, 73439, Note_on_c, 4, 71, 0
4, 73440, Note_on_c, 4, 72, 50
4, 73440, Control_c, 4, 2, 80
4, 73679, Note_on_c, 4, 72, 0
4, 73680, Note_on_c, 4, 71, 50
4, 73680, Control_c, 4, 2, 80
4, 73919, Note_on_c, 4, 71, 0
4, 73920, Note_on_c, 4, 76, 50
4, 73920, Control_c, 4, 2, 80
4, 74159, Note_on_c, 4, 76, 0
4, 74160, Note_on_c, 4, 72, 50
4, 74160, Control_c, 4, 2, 80
4, 74399, Note_on_c, 4, 72, 0
4, 74400, Note_on_c, 4, 71, 50
4, 74400, Control_c, 4, 2, 80
4, 74639, Note_on_c, 4, 71, 0
4, 74640, Note_on_c, 4, 72, 50
4, 74640, Control_c, 4, 2, 80
4, 74879, Note_on_c, 4, 72, 0
4, 75120, Note_on_c, 4, 71, 50
4, 75120, Control_c, 4, 2, 80
4, 75359, Note_on_c, 4, 71, 0
4, 75360, Note_on_c, 4, 74, 50
4, 75360, Control_c, 4, 2, 80
4, 75599, Note_on_c, 4, 74, 0
4, 75600, Note_on_c, 4, 76, 50
4, 75600, Control_c, 4, 2, 80
4, 75839, Note_on_c, 4, 76, 0
4, 75840, Note_on_c, 4, 76, 50
4, 75840, Control_c, 4, 2, 80
4, 76079, Note_on_c, 4, 76, 0
4, 76080, Note_on_c, 4, 72, 50
4, 76080, Control_c, 4, 2, 80
4, 76319, Note_on_c, 4, 72, 0
4, 76320, Note_on_c, 4, 71, 50
4, 76320, Control_c, 4, 2, 80
4, 76559, Note_on_c, 4, 71, 0
4, 76560, Note_on_c, 4, 72, 50
4, 76560, Control_c, 4, 2, 80
4, 76799, Note_on_c, 4, 72, 0
4, 94080, Control_c, 4, 64, 0
4, 94081, End_track
5, 0, Start_track
5, 0, Title_t, "Lute\000"
5, 0, Key_signature, 0, "major"
5, 0, Control_c, 3, 121, 0
5, 0, Program_c, 3, 24
5, 0, Control_c, 3, 7, 100
5, 0, Control_c, 3, 10, 64
5, 0, Control_c, 3, 91, 0
5, 0, Control_c, 3, 93, 0
5, 0, MIDI_port, 0
5, 2, Control_c, 3, 64, 127
5, 7680, Note_on_c, 3, 57, 64
5, 7680, Control_c, 3, 2, 64
5, 7919, Note_on_c, 3, 57, 0
5, 7920, Note_on_c, 3, 60, 64
5, 7920, Control_c, 3, 2, 64
5, 7920, Note_on_c, 3, 64, 64
5, 8159, Note_on_c, 3, 60, 0
5, 8159, Note_on_c, 3, 64, 0
5, 8400, Note_on_c, 3, 60, 64
5, 8400, Control_c, 3, 2, 64
5, 8400, Note_on_c, 3, 64, 64
5, 8639, Note_on_c, 3, 60, 0
5, 8639, Note_on_c, 3, 64, 0
5, 8640, Note_on_c, 3, 57, 64
5, 8640, Control_c, 3, 2, 64
5, 8879, Note_on_c, 3, 57, 0
5, 8880, Note_on_c, 3, 60, 64
5, 8880, Control_c, 3, 2, 64
5, 8880, Note_on_c, 3, 64, 64
5, 9119, Note_on_c, 3, 60, 0
5, 9119, Note_on_c, 3, 64, 0
5, 9360, Note_on_c, 3, 60, 64
5, 9360, Control_c, 3, 2, 64
5, 9360, Note_on_c, 3, 64, 64
5, 9599, Note_on_c, 3, 60, 0
5, 9599, Note_on_c, 3, 64, 0
5, 9600, Note_on_c, 3, 55, 64
5, 9600, Control_c, 3, 2, 64
5, 9839, Note_on_c, 3, 55, 0
5, 9840, Note_on_c, 3, 60, 64
5, 9840, Control_c, 3, 2, 64
5, 9840, Note_on_c, 3, 64, 64
5, 10079, Note_on_c, 3, 60, 0
5, 10079, Note_on_c, 3, 64, 0
5, 10320, Note_on_c, 3, 60, 64
5, 10320, Control_c, 3, 2, 64
5, 10320, Note_on_c, 3, 64, 64
5, 10559, Note_on_c, 3, 60, 0
5, 10559, Note_on_c, 3, 64, 0
5, 10560, Note_on_c, 3, 55, 64
5, 10560, Control_c, 3, 2, 64
5, 10799, Note_on_c, 3, 55, 0
5, 10800, Note_on_c, 3, 60, 64
5, 10800, Control_c, 3, 2, 64
5, 10800, Note_on_c, 3, 64, 64
5, 11039, Note_on_c, 3, 60, 0
5, 11039, Note_on_c, 3, 64, 0
5, 11280, Note_on_c, 3, 60, 64
5, 11280, Control_c, 3, 2, 64
5, 11280, Note_on_c, 3, 64, 64
5, 11519, Note_on_c, 3, 60, 0
5, 11519, Note_on_c, 3, 64, 0
5, 11520, Note_on_c, 3, 53, 64
5, 11520, Control_c, 3, 2, 64
5, 11759, Note_on_c, 3, 53, 0
5, 11760, Note_on_c, 3, 60, 64
5, 11760, Control_c, 3, 2, 64
5, 11760, Note_on_c, 3, 64, 64
5, 11999, Note_on_c, 3, 60, 0
5, 11999, Note_on_c, 3, 64, 0
5, 12240, Note_on_c, 3, 60, 64
5, 12240, Control_c, 3, 2, 64
5, 12240, Note_on_c, 3, 64, 64
5, 12479, Note_on_c, 3, 60, 0
5, 12479, Note_on_c, 3, 64, 0
5, 12480, Note_on_c, 3, 53, 64
5, 12480, Control_c, 3, 2, 64
5, 12719, Note_on_c, 3, 53, 0
5, 12720, Note_on_c, 3, 60, 64
5, 12720, Control_c, 3, 2, 64
5, 12720, Note_on_c, 3, 64, 64
5, 12959, Note_on_c, 3, 60, 0
5, 12959, Note_on_c, 3, 64, 0
5, 13200, Note_on_c, 3, 60, 64
5, 13200, Control_c, 3, 2, 64
5, 13200, Note_on_c, 3, 64, 64
5, 13439, Note_on_c, 3, 60, 0
5, 13439, Note_on_c, 3, 64, 0
5, 13440, Note_on_c, 3, 55, 64
5, 13440, Control_c, 3, 2, 64
5, 13679, Note_on_c, 3, 55, 0
5, 13680, Note_on_c, 3, 55, 64
5, 13680, Control_c, 3, 2, 64
5, 13680, Note_on_c, 3, 59, 64
5, 13919, Note_on_c, 3, 55, 0
5, 13919, Note_on_c, 3, 59, 0
5, 14160, Note_on_c, 3, 55, 64
5, 14160, Control_c, 3, 2, 64
5, 14160, Note_on_c, 3, 59, 64
5, 14399, Note_on_c, 3, 55, 0
5, 14399, Note_on_c, 3, 59, 0
5, 14400, Note_on_c, 3, 55, 64
5, 14400, Control_c, 3, 2, 64
5, 14639, Note_on_c, 3, 55, 0
5, 14640, Note_on_c, 3, 55, 64
5, 14640, Control_c, 3, 2, 64
5, 14640, Note_on_c, 3, 59, 64
5, 14879, Note_on_c, 3, 55, 0
5, 14879, Note_on_c, 3, 59, 0
5, 15120, Note_on_c, 3, 55, 64
5, 15120, Control_c, 3, 2, 64
5, 15120, Note_on_c, 3, 59, 64
5, 15359, Note_on_c, 3, 55, 0
5, 15359, Note_on_c, 3, 59, 0
5, 15360, Note_on_c, 3, 57, 64
5, 15360, Control_c, 3, 2, 64
5, 15599, Note_on_c, 3, 57, 0
5, 15600, Note_on_c, 3, 60, 64
5, 15600, Control_c, 3, 2, 64
5, 15600, Note_on_c, 3, 64, 64
5, 15839, Note_on_c, 3, 60, 0
5, 15839, Note_on_c, 3, 64, 0
5, 16080, Note_on_c, 3, 60, 64
5, 16080, Control_c, 3, 2, 64
5, 16080, Note_on_c, 3, 64, 64
5, 16319, Note_on_c, 3, 60, 0
5, 16319, Note_on_c, 3, 64, 0
5, 16320, Note_on_c, 3, 57, 64
5, 16320, Control_c, 3, 2, 64
5, 16559, Note_on_c, 3, 57, 0
5, 16560, Note_on_c, 3, 60, 64
5, 16560, Control_c, 3, 2, 64
5, 16560, Note_on_c, 3, 64, 64
5, 16799, Note_on_c, 3, 60, 0
5, 16799, Note_on_c, 3, 64, 0
5, 17040, Note_on_c, 3, 60, 64
5, 17040, Control_c, 3, 2, 64
5, 17040, Note_on_c, 3, 64, 64
5, 17279, Note_on_c, 3, 60, 0
5, 17279, Note_on_c, 3, 64, 0
5, 17280, Note_on_c, 3, 55, 64
5, 17280, Control_c, 3, 2, 64
5, 17519, Note_on_c, 3, 55, 0
5, 17520, Note_on_c, 3, 60, 64
5, 17520, Control_c, 3, 2, 64
5, 17520, Note_on_c, 3, 64, 64
5, 17759, Note_on_c, 3, 60, 0
5, 17759, Note_on_c, 3, 64, 0
5, 18000, Note_on_c, 3, 60, 64
5, 18000, Control_c, 3, 2, 64
5, 18000, Note_on_c, 3, 64, 64
5, 18239, Note_on_c, 3, 60, 0
5, 18239, Note_on_c, 3, 64, 0
5, 18240, Note_on_c, 3, 55, 64
5, 18240, Control_c, 3, 2, 64
5, 18479, Note_on_c, 3, 55, 0
5, 18480, Note_on_c, 3, 60, 64
5, 18480, Control_c, 3, 2, 64
5, 18480, Note_on_c, 3, 64, 64
5, 18719, Note_on_c, 3, 60, 0
5, 18719, Note_on_c, 3, 64, 0
5, 18960, Note_on_c, 3, 60, 64
5, 18960, Control_c, 3, 2, 64
5, 18960, Note_on_c, 3, 64, 64
5, 19199, Note_on_c, 3, 60, 0
5, 19199, Note_on_c, 3, 64, 0
5, 19200, Note_on_c, 3, 53, 64
5, 19200, Control_c, 3, 2, 64
5, 19439, Note_on_c, 3, 53, 0
5, 19440, Note_on_c, 3, 60, 64
5, 19440, Control_c, 3, 2, 64
5, 19440, Note_on_c, 3, 64, 64
5, 19679, Note_on_c, 3, 60, 0
5, 19679, Note_on_c, 3, 64, 0
5, 19920, Note_on_c, 3, 60, 64
5, 19920, Control_c, 3, 2, 64
5, 19920, Note_on_c, 3, 64, 64
5, 20159, Note_on_c, 3, 60, 0
5, 20159, Note_on_c, 3, 64, 0
5, 20160, Note_on_c, 3, 53, 64
5, 20160, Control_c, 3, 2, 64
5, 20399, Note_on_c, 3, 53, 0
5, 20400, Note_on_c, 3, 60, 64
5, 20400, Control_c, 3, 2, 64
5, 20400, Note_on_c, 3, 64, 64
5, 20639, Note_on_c, 3, 60, 0
5, 20639, Note_on_c, 3, 64, 0
5, 20880, Note_on_c, 3, 60, 64
5, 20880, Control_c, 3, 2, 64
5, 20880, Note_on_c, 3, 64, 64
5, 21119, Note_on_c, 3, 60, 0
5, 21119, Note_on_c, 3, 64, 0
5, 21120, Note_on_c, 3, 55, 64
5, 21120, Control_c, 3, 2, 64
5, 21359, Note_on_c, 3, 55, 0
5, 21360, Note_on_c, 3, 55, 64
5, 21360, Control_c, 3, 2, 64
5, 21360, Note_on_c, 3, 59, 64
5, 21599, Note_on_c, 3, 55, 0
5, 21599, Note_on_c, 3, 59, 0
5, 21840, Note_on_c, 3, 55, 64
5, 21840, Control_c, 3, 2, 64
5, 21840, Note_on_c, 3, 59, 64
5, 22079, Note_on_c, 3, 55, 0
5, 22079, Note_on_c, 3, 59, 0
5, 22080, Note_on_c, 3, 55, 64
5, 22080, Control_c, 3, 2, 64
5, 22319, Note_on_c, 3, 55, 0
5, 22320, Note_on_c, 3, 55, 64
5, 22320, Control_c, 3, 2, 64
5, 22320, Note_on_c, 3, 59, 64
5, 22559, Note_on_c, 3, 55, 0
5, 22559, Note_on_c, 3, 59, 0
5, 22800, Note_on_c, 3, 55, 64
5, 22800, Control_c, 3, 2, 64
5, 22800, Note_on_c, 3, 59, 64
5, 23039, Note_on_c, 3, 55, 0
5, 23039, Note_on_c, 3, 59, 0
5, 23040, Note_on_c, 3, 57, 64
5, 23040, Control_c, 3, 2, 64
5, 23279, Note_on_c, 3, 57, 0
5, 23280, Note_on_c, 3, 60, 64
5, 23280, Control_c, 3, 2, 64
5, 23280, Note_on_c, 3, 64, 64
5, 23519, Note_on_c, 3, 60, 0
5, 23519, Note_on_c, 3, 64, 0
5, 23760, Note_on_c, 3, 60, 64
5, 23760, Control_c, 3, 2, 64
5, 23760, Note_on_c, 3, 64, 64
5, 23999, Note_on_c, 3, 60, 0
5, 23999, Note_on_c, 3, 64, 0
5, 24000, Note_on_c, 3, 57, 64
5, 24000, Control_c, 3, 2, 64
5, 24239, Note_on_c, 3, 57, 0
5, 24240, Note_on_c, 3, 60, 64
5, 24240, Control_c, 3, 2, 64
5, 24240, Note_on_c, 3, 64, 64
5, 24479, Note_on_c, 3, 60, 0
5, 24479, Note_on_c, 3, 64, 0
5, 24720, Note_on_c, 3, 60, 64
5, 24720, Control_c, 3, 2, 64
5, 24720, Note_on_c, 3, 64, 64
5, 24959, Note_on_c, 3, 60, 0
5, 24959, Note_on_c, 3, 64, 0
5, 24960, Note_on_c, 3, 55, 64
5, 24960, Control_c, 3, 2, 64
5, 25199, Note_on_c, 3, 55, 0
5, 25200, Note_on_c, 3, 60, 64
5, 25200, Control_c, 3, 2, 64
5, 25200, Note_on_c, 3, 64, 64
5, 25439, Note_on_c, 3, 60, 0
5, 25439, Note_on_c, 3, 64, 0
5, 25680, Note_on_c, 3, 60, 64
5, 25680, Control_c, 3, 2, 64
5, 25680, Note_on_c, 3, 64, 64
5, 25919, Note_on_c, 3, 60, 0
5, 25919, Note_on_c, 3, 64, 0
5, 25920, Note_on_c, 3, 55, 64
5, 25920, Control_c, 3, 2, 64
5, 26159, Note_on_c, 3, 55, 0
5, 26160, Note_on_c, 3, 60, 64
5, 26160, Control_c, 3, 2, 64
5, 26160, Note_on_c, 3, 64, 64
5, 26399, Note_on_c, 3, 60, 0
5, 26399, Note_on_c, 3, 64, 0
5, 26640, Note_on_c, 3, 60, 64
5, 26640, Control_c, 3, 2, 64
5, 26640, Note_on_c, 3, 64, 64
5, 26879, Note_on_c, 3, 60, 0
5, 26879, Note_on_c, 3, 64, 0
5, 26880, Note_on_c, 3, 53, 64
5, 26880, Control_c, 3, 2, 64
5, 27119, Note_on_c, 3, 53, 0
5, 27120, Note_on_c, 3, 60, 64
5, 27120, Control_c, 3, 2, 64
5, 27120, Note_on_c, 3, 64, 64
5, 27359, Note_on_c, 3, 60, 0
5, 27359, Note_on_c, 3, 64, 0
5, 27600, Note_on_c, 3, 60, 64
5, 27600, Control_c, 3, 2, 64
5, 27600, Note_on_c, 3, 64, 64
5, 27839, Note_on_c, 3, 60, 0
5, 27839, Note_on_c, 3, 64, 0
5, 27840, Note_on_c, 3, 53, 64
5, 27840, Control_c, 3, 2, 64
5, 28079, Note_on_c, 3, 53, 0
5, 28080, Note_on_c, 3, 60, 64
5, 28080, Control_c, 3, 2, 64
5, 28080, Note_on_c, 3, 64, 64
5, 28319, Note_on_c, 3, 60, 0
5, 28319, Note_on_c, 3, 64, 0
5, 28560, Note_on_c, 3, 60, 64
5, 28560, Control_c, 3, 2, 64
5, 28560, Note_on_c, 3, 64, 64
5, 28799, Note_on_c, 3, 60, 0
5, 28799, Note_on_c, 3, 64, 0
5, 28800, Note_on_c, 3, 55, 64
5, 28800, Control_c, 3, 2, 64
5, 29039, Note_on_c, 3, 55, 0
5, 29040, Note_on_c, 3, 55, 64
5, 29040, Control_c, 3, 2, 64
5, 29040, Note_on_c, 3, 59, 64
5, 29279, Note_on_c, 3, 55, 0
5, 29279, Note_on_c, 3, 59, 0
5, 29520, Note_on_c, 3, 55, 64
5, 29520, Control_c, 3, 2, 64
5, 29520, Note_on_c, 3, 59, 64
5, 29759, Note_on_c, 3, 55, 0
5, 29759, Note_on_c, 3, 59, 0
5, 29760, Note_on_c, 3, 55, 64
5, 29760, Control_c, 3, 2, 64
5, 29999, Note_on_c, 3, 55, 0
5, 30000, Note_on_c, 3, 55, 64
5, 30000, Control_c, 3, 2, 64
5, 30000, Note_on_c, 3, 59, 64
5, 30239, Note_on_c, 3, 55, 0
5, 30239, Note_on_c, 3, 59, 0
5, 30480, Note_on_c, 3, 55, 64
5, 30480, Control_c, 3, 2, 64
5, 30480, Note_on_c, 3, 59, 64
5, 30719, Note_on_c, 3, 55, 0
5, 30719, Note_on_c, 3, 59, 0
5, 30720, Note_on_c, 3, 57, 64
5, 30720, Control_c, 3, 2, 64
5, 30959, Note_on_c, 3, 57, 0
5, 30960, Note_on_c, 3, 60, 64
5, 30960, Control_c, 3, 2, 64
5, 30960, Note_on_c, 3, 64, 64
5, 31199, Note_on_c, 3, 60, 0
5, 31199, Note_on_c, 3, 64, 0
5, 31440, Note_on_c, 3, 60, 64
5, 31440, Control_c, 3, 2, 64
5, 31440, Note_on_c, 3, 64, 64
5, 31679, Note_on_c, 3, 60, 0
5, 31679, Note_on_c, 3, 64, 0
5, 31680, Note_on_c, 3, 57, 64
5, 31680, Control_c, 3, 2, 64
5, 31919, Note_on_c, 3, 57, 0
5, 31920, Note_on_c, 3, 60, 64
5, 31920, Control_c, 3, 2, 64
5, 31920, Note_on_c, 3, 64, 64
5, 32159, Note_on_c, 3, 60, 0
5, 32159, Note_on_c, 3, 64, 0
5, 32400, Note_on_c, 3, 60, 64
5, 32400, Control_c, 3, 2, 64
5, 32400, Note_on_c, 3, 64, 64
5, 32639, Note_on_c, 3, 60, 0
5, 32639, Note_on_c, 3, 64, 0
5, 32640, Note_on_c, 3, 55, 64
5, 32640, Control_c, 3, 2, 64
5, 32879, Note_on_c, 3, 55, 0
5, 32880, Note_on_c, 3, 60, 64
5, 32880, Control_c, 3, 2, 64
5, 32880, Note_on_c, 3, 64, 64
5, 33119, Note_on_c, 3, 60, 0
5, 33119, Note_on_c, 3, 64, 0
5, 33360, Note_on_c, 3, 60, 64
5, 33360, Control_c, 3, 2, 64
5, 33360, Note_on_c, 3, 64, 64
5, 33599, Note_on_c, 3, 60, 0
5, 33599, Note_on_c, 3, 64, 0
5, 33600, Note_on_c, 3, 55, 64
5, 33600, Control_c, 3, 2, 64
5, 33839, Note_on_c, 3, 55, 0
5, 33840, Note_on_c, 3, 60, 64
5, 33840, Control_c, 3, 2, 64
5, 33840, Note_on_c, 3, 64, 64
5, 34079, Note_on_c, 3, 60, 0
5, 34079, Note_on_c, 3, 64, 0
5, 34320, Note_on_c, 3, 60, 64
5, 34320, Control_c, 3, 2, 64
5, 34320, Note_on_c, 3, 64, 64
5, 34559, Note_on_c, 3, 60, 0
5, 34559, Note_on_c, 3, 64, 0
5, 34560, Note_on_c, 3, 53, 64
5, 34560, Control_c, 3, 2, 64
5, 34799, Note_on_c, 3, 53, 0
5, 34800, Note_on_c, 3, 60, 64
5, 34800, Control_c, 3, 2, 64
5, 34800, Note_on_c, 3, 64, 64
5, 35039, Note_on_c, 3, 60, 0
5, 35039, Note_on_c, 3, 64, 0
5, 35280, Note_on_c, 3, 60, 64
5, 35280, Control_c, 3, 2, 64
5, 35280, Note_on_c, 3, 64, 64
5, 35519, Note_on_c, 3, 60, 0
5, 35519, Note_on_c, 3, 64, 0
5, 35520, Note_on_c, 3, 53, 64
5, 35520, Control_c, 3, 2, 64
5, 35759, Note_on_c, 3, 53, 0
5, 35760, Note_on_c, 3, 60, 64
5, 35760, Control_c, 3, 2, 64
5, 35760, Note_on_c, 3, 64, 64
5, 35999, Note_on_c, 3, 60, 0
5, 35999, Note_on_c, 3, 64, 0
5, 36240, Note_on_c, 3, 60, 64
5, 36240, Control_c, 3, 2, 64
5, 36240, Note_on_c, 3, 64, 64
5, 36479, Note_on_c, 3, 60, 0
5, 36479, Note_on_c, 3, 64, 0
5, 36480, Note_on_c, 3, 55, 64
5, 36480, Control_c, 3, 2, 64
5, 36719, Note_on_c, 3, 55, 0
5, 36720, Note_on_c, 3, 55, 64
5, 36720, Control_c, 3, 2, 64
5, 36720, Note_on_c, 3, 59, 64
5, 36959, Note_on_c, 3, 55, 0
5, 36959, Note_on_c, 3, 59, 0
5, 37200, Note_on_c, 3, 55, 64
5, 37200, Control_c, 3, 2, 64
5, 37200, Note_on_c, 3, 59, 64
5, 37439, Note_on_c, 3, 55, 0
5, 37439, Note_on_c, 3, 59, 0
5, 37440, Note_on_c, 3, 55, 64
5, 37440, Control_c, 3, 2, 64
5, 37679, Note_on_c, 3, 55, 0
5, 37680, Note_on_c, 3, 55, 64
5, 37680, Control_c, 3, 2, 64
5, 37680, Note_on_c, 3, 59, 64
5, 37919, Note_on_c, 3, 55, 0
5, 37919, Note_on_c, 3, 59, 0
5, 38160, Note_on_c, 3, 55, 64
5, 38160, Control_c, 3, 2, 64
5, 38160, Note_on_c, 3, 59, 64
5, 38399, Note_on_c, 3, 55, 0
5, 38399, Note_on_c, 3, 59, 0
5, 38400, Note_on_c, 3, 57, 64
5, 38400, Control_c, 3, 2, 64
5, 38639, Note_on_c, 3, 57, 0
5, 38640, Note_on_c, 3, 60, 64
5, 38640, Control_c, 3, 2, 64
5, 38640, Note_on_c, 3, 64, 64
5, 38879, Note_on_c, 3, 60, 0
5, 38879, Note_on_c, 3, 64, 0
5, 39120, Note_on_c, 3, 60, 64
5, 39120, Control_c, 3, 2, 64
5, 39120, Note_on_c, 3, 64, 64
5, 39359, Note_on_c, 3, 60, 0
5, 39359, Note_on_c, 3, 64, 0
5, 39360, Note_on_c, 3, 57, 64
5, 39360, Control_c, 3, 2, 64
5, 39599, Note_on_c, 3, 57, 0
5, 39600, Note_on_c, 3, 60, 64
5, 39600, Control_c, 3, 2, 64
5, 39600, Note_on_c, 3, 64, 64
5, 39839, Note_on_c, 3, 60, 0
5, 39839, Note_on_c, 3, 64, 0
5, 40080, Note_on_c, 3, 60, 64
5, 40080, Control_c, 3, 2, 64
5, 40080, Note_on_c, 3, 64, 64
5, 40319, Note_on_c, 3, 60, 0
5, 40319, Note_on_c, 3, 64, 0
5, 40320, Note_on_c, 3, 55, 64
5, 40320, Control_c, 3, 2, 64
5, 40559, Note_on_c, 3, 55, 0
5, 40560, Note_on_c, 3, 60, 64
5, 40560, Control_c, 3, 2, 64
5, 40560, Note_on_c, 3, 64, 64
5, 40799, Note_on_c, 3, 60, 0
5, 40799, Note_on_c, 3, 64, 0
5, 41040, Note_on_c, 3, 60, 64
5, 41040, Control_c, 3, 2, 64
5, 41040, Note_on_c, 3, 64, 64
5, 41279, Note_on_c, 3, 60, 0
5, 41279, Note_on_c, 3, 64, 0
5, 41280, Note_on_c, 3, 55, 64
5, 41280, Control_c, 3, 2, 64
5, 41519, Note_on_c, 3, 55, 0
5, 41520, Note_on_c, 3, 60, 64
5, 41520, Control_c, 3, 2, 64
5, 41520, Note_on_c, 3, 64, 64
5, 41759, Note_on_c, 3, 60, 0
5, 41759, Note_on_c, 3, 64, 0
5, 42000, Note_on_c, 3, 60, 64
5, 42000, Control_c, 3, 2, 64
5, 42000, Note_on_c, 3, 64, 64
5, 42239, Note_on_c, 3, 60, 0
5, 42239, Note_on_c, 3, 64, 0
5, 42240, Note_on_c, 3, 53, 64
5, 42240, Control_c, 3, 2, 64
5, 42479, Note_on_c, 3, 53, 0
5, 42480, Note_on_c, 3, 60, 64
5, 42480, Control_c, 3, 2, 64
5, 42480, Note_on_c, 3, 64, 64
5, 42719, Note_on_c, 3, 60, 0
5, 42719, Note_on_c, 3, 64, 0
5, 42960, Note_on_c, 3, 60, 64
5, 42960, Control_c, 3, 2, 64
5, 42960, Note_on_c, 3, 64, 64
5, 43199, Note_on_c, 3, 60, 0
5, 43199, Note_on_c, 3, 64, 0
5, 43200, Note_on_c, 3, 53, 64
5, 43200, Control_c, 3, 2, 64
5, 43439, Note_on_c, 3, 53, 0
5, 43440, Note_on_c, 3, 60, 64
5, 43440, Control_c, 3, 2, 64
5, 43440, Note_on_c, 3, 64, 64
5, 43679, Note_on_c, 3, 60, 0
5, 43679, Note_on_c, 3, 64, 0
5, 43920, Note_on_c, 3, 60, 64
5, 43920, Control_c, 3, 2, 64
5, 43920, Note_on_c, 3, 64, 64
5, 44159, Note_on_c, 3, 60, 0
5, 44159, Note_on_c, 3, 64, 0
5, 44160, Note_on_c, 3, 55, 64
5, 44160, Control_c, 3, 2, 64
5, 44399, Note_on_c, 3, 55, 0
5, 44400, Note_on_c, 3, 55, 64
5, 44400, Control_c, 3, 2, 64
5, 44400, Note_on_c, 3, 59, 64
5, 44639, Note_on_c, 3, 55, 0
5, 44639, Note_on_c, 3, 59, 0
5, 44880, Note_on_c, 3, 55, 64
5, 44880, Control_c, 3, 2, 64
5, 44880, Note_on_c, 3, 59, 64
5, 45119, Note_on_c, 3, 55, 0
5, 45119, Note_on_c, 3, 59, 0
5, 45120, Note_on_c, 3, 55, 64
5, 45120, Control_c, 3, 2, 64
5, 45359, Note_on_c, 3, 55, 0
5, 45360, Note_on_c, 3, 55, 64
5, 45360, Control_c, 3, 2, 64
5, 45360, Note_on_c, 3, 59, 64
5, 45599, Note_on_c, 3, 55, 0
5, 45599, Note_on_c, 3, 59, 0
5, 45840, Note_on_c, 3, 55, 64
5, 45840, Control_c, 3, 2, 64
5, 45840, Note_on_c, 3, 59, 64
5, 46079, Note_on_c, 3, 55, 0
5, 46079, Note_on_c, 3, 59, 0
5, 46080, Note_on_c, 3, 57, 64
5, 46080, Control_c, 3, 2, 64
5, 46319, Note_on_c, 3, 57, 0
5, 46320, Note_on_c, 3, 60, 64
5, 46320, Control_c, 3, 2, 64
5, 46320, Note_on_c, 3, 64, 64
5, 46559, Note_on_c, 3, 60, 0
5, 46559, Note_on_c, 3, 64, 0
5, 46800, Note_on_c, 3, 60, 64
5, 46800, Control_c, 3, 2, 64
5, 46800, Note_on_c, 3, 64, 64
5, 47039, Note_on_c, 3, 60, 0
5, 47039, Note_on_c, 3, 64, 0
5, 47040, Note_on_c, 3, 57, 64
5, 47040, Control_c, 3, 2, 64
5, 47279, Note_on_c, 3, 57, 0
5, 47280, Note_on_c, 3, 60, 64
5, 47280, Control_c, 3, 2, 64
5, 47280, Note_on_c, 3, 64, 64
5, 47519, Note_on_c, 3, 60, 0
5, 47519, Note_on_c, 3, 64, 0
5, 47760, Note_on_c, 3, 60, 64
5, 47760, Control_c, 3, 2, 64
5, 47760, Note_on_c, 3, 64, 64
5, 47999, Note_on_c, 3, 60, 0
5, 47999, Note_on_c, 3, 64, 0
5, 48000, Note_on_c, 3, 55, 64
5, 48000, Control_c, 3, 2, 64
5, 48239, Note_on_c, 3, 55, 0
5, 48240, Note_on_c, 3, 60, 64
5, 48240, Control_c, 3, 2, 64
5, 48240, Note_on_c, 3, 64, 64
5, 48479, Note_on_c, 3, 60, 0
5, 48479, Note_on_c, 3, 64, 0
5, 48720, Note_on_c, 3, 60, 64
5, 48720, Control_c, 3, 2, 64
5, 48720, Note_on_c, 3, 64, 64
5, 48959, Note_on_c, 3, 60, 0
5, 48959, Note_on_c, 3, 64, 0
5, 48960, Note_on_c, 3, 55, 64
5, 48960, Control_c, 3, 2, 64
5, 49199, Note_on_c, 3, 55, 0
5, 49200, Note_on_c, 3, 60, 64
5, 49200, Control_c, 3, 2, 64
5, 49200, Note_on_c, 3, 64, 64
5, 49439, Note_on_c, 3, 60, 0
5, 49439, Note_on_c, 3, 64, 0
5, 49680, Note_on_c, 3, 60, 64
5, 49680, Control_c, 3, 2, 64
5, 49680, Note_on_c, 3, 64, 64
5, 49919, Note_on_c, 3, 60, 0
5, 49919, Note_on_c, 3, 64, 0
5, 49920, Note_on_c, 3, 53, 64
5, 49920, Control_c, 3, 2, 64
5, 50159, Note_on_c, 3, 53, 0
5, 50160, Note_on_c, 3, 60, 64
5, 50160, Control_c, 3, 2, 64
5, 50160, Note_on_c, 3, 64, 64
5, 50399, Note_on_c, 3, 60, 0
5, 50399, Note_on_c, 3, 64, 0
5, 50640, Note_on_c, 3, 60, 64
5, 50640, Control_c, 3, 2, 64
5, 50640, Note_on_c, 3, 64, 64
5, 50879, Note_on_c, 3, 60, 0
5, 50879, Note_on_c, 3, 64, 0
5, 50880, Note_on_c, 3, 53, 64
5, 50880, Control_c, 3, 2, 64
5, 51119, Note_on_c, 3, 53, 0
5, 51120, Note_on_c, 3, 60, 64
5, 51120, Control_c, 3, 2, 64
5, 51120, Note_on_c, 3, 64, 64
5, 51359, Note_on_c, 3, 60, 0
5, 51359, Note_on_c, 3, 64, 0
5, 51600, Note_on_c, 3, 60, 64
5, 51600, Control_c, 3, 2, 64
5, 51600, Note_on_c, 3, 64, 64
5, 51839, Note_on_c, 3, 60, 0
5, 51839, Note_on_c, 3, 64, 0
5, 51840, Note_on_c, 3, 55, 64
5, 51840, Control_c, 3, 2, 64
5, 52079, Note_on_c, 3, 55, 0
5, 52080, Note_on_c, 3, 55, 64
5, 52080, Control_c, 3, 2, 64
5, 52080, Note_on_c, 3, 59, 64
5, 52319, Note_on_c, 3, 55, 0
5, 52319, Note_on_c, 3, 59, 0
5, 52560, Note_on_c, 3, 55, 64
5, 52560, Control_c, 3, 2, 64
5, 52560, Note_on_c, 3, 59, 64
5, 52799, Note_on_c, 3, 55, 0
5, 52799, Note_on_c, 3, 59, 0
5, 52800, Note_on_c, 3, 55, 64
5, 52800, Control_c, 3, 2, 64
5, 53039, Note_on_c, 3, 55, 0
5, 53040, Note_on_c, 3, 55, 64
5, 53040, Control_c, 3, 2, 64
5, 53040, Note_on_c, 3, 59, 64
5, 53279, Note_on_c, 3, 55, 0
5, 53279, Note_on_c, 3, 59, 0
5, 53520, Note_on_c, 3, 55, 64
5, 53520, Control_c, 3, 2, 64
5, 53520, Note_on_c, 3, 59, 64
5, 53759, Note_on_c, 3, 55, 0
5, 53759, Note_on_c, 3, 59, 0
5, 53760, Note_on_c, 3, 57, 64
5, 53760, Control_c, 3, 2, 64
5, 53999, Note_on_c, 3, 57, 0
5, 54000, Note_on_c, 3, 60, 64
5, 54000, Control_c, 3, 2, 64
5, 54000, Note_on_c, 3, 64, 64
5, 54239, Note_on_c, 3, 60, 0
5, 54239, Note_on_c, 3, 64, 0
5, 54480, Note_on_c, 3, 60, 64
5, 54480, Control_c, 3, 2, 64
5, 54480, Note_on_c, 3, 64, 64
5, 54719, Note_on_c, 3, 60, 0
5, 54719, Note_on_c, 3, 64, 0
5, 54720, Note_on_c, 3, 57, 64
5, 54720, Control_c, 3, 2, 64
5, 54959, Note_on_c, 3, 57, 0
5, 54960, Note_on_c, 3, 60, 64
5, 54960, Control_c, 3, 2, 64
5, 54960, Note_on_c, 3, 64, 64
5, 55199, Note_on_c, 3, 60, 0
5, 55199, Note_on_c, 3, 64, 0
5, 55440, Note_on_c, 3, 60, 64
5, 55440, Control_c, 3, 2, 64
5, 55440, Note_on_c, 3, 64, 64
5, 55679, Note_on_c, 3, 60, 0
5, 55679, Note_on_c, 3, 64, 0
5, 55680, Note_on_c, 3, 55, 64
5, 55680, Control_c, 3, 2, 64
5, 55919, Note_on_c, 3, 55, 0
5, 55920, Note_on_c, 3, 60, 64
5, 55920, Control_c, 3, 2, 64
5, 55920, Note_on_c, 3, 64, 64
5, 56159, Note_on_c, 3, 60, 0
5, 56159, Note_on_c, 3, 64, 0
5, 56400, Note_on_c, 3, 60, 64
5, 56400, Control_c, 3, 2, 64
5, 56400, Note_on_c, 3, 64, 64
5, 56639, Note_on_c, 3, 60, 0
5, 56639, Note_on_c, 3, 64, 0
5, 56640, Note_on_c, 3, 55, 64
5, 56640, Control_c, 3, 2, 64
5, 56879, Note_on_c, 3, 55, 0
5, 56880, Note_on_c, 3, 60, 64
5, 56880, Control_c, 3, 2, 64
5, 56880, Note_on_c, 3, 64, 64
5, 57119, Note_on_c, 3, 60, 0
5, 57119, Note_on_c, 3, 64, 0
5, 57360, Note_on_c, 3, 60, 64
5, 57360, Control_c, 3, 2, 64
5, 57360, Note_on_c, 3, 64, 64
5, 57599, Note_on_c, 3, 60, 0
5, 57599, Note_on_c, 3, 64, 0
5, 57600, Note_on_c, 3, 53, 64
5, 57600, Control_c, 3, 2, 64
5, 57839, Note_on_c, 3, 53, 0
5, 57840, Note_on_c, 3, 60, 64
5, 57840, Control_c, 3, 2, 64
5, 57840, Note_on_c, 3, 64, 64
5, 58079, Note_on_c, 3, 60, 0
5, 58079, Note_on_c, 3, 64, 0
5, 58320, Note_on_c, 3, 60, 64
5, 58320, Control_c, 3, 2, 64
5, 58320, Note_on_c, 3, 64, 64
5, 58559, Note_on_c, 3, 60, 0
5, 58559, Note_on_c, 3, 64, 0
5, 58560, Note_on_c, 3, 53, 64
5, 58560, Control_c, 3, 2, 64
5, 58799, Note_on_c, 3, 53, 0
5, 58800, Note_on_c, 3, 60, 64
5, 58800, Control_c, 3, 2, 64
5, 58800, Note_on_c, 3, 64, 64
5, 59039, Note_on_c, 3, 60, 0
5, 59039, Note_on_c, 3, 64, 0
5, 59280, Note_on_c, 3, 60, 64
5, 59280, Control_c, 3, 2, 64
5, 59280, Note_on_c, 3, 64, 64
5, 59519, Note_on_c, 3, 60, 0
5, 59519, Note_on_c, 3, 64, 0
5, 59520, Note_on_c, 3, 55, 64
5, 59520, Control_c, 3, 2, 64
5, 59759, Note_on_c, 3, 55, 0
5, 59760, Note_on_c, 3, 55, 64
5, 59760, Control_c, 3, 2, 64
5, 59760, Note_on_c, 3, 59, 64
5, 59999, Note_on_c, 3, 55, 0
5, 59999, Note_on_c, 3, 59, 0
5, 60240, Note_on_c, 3, 55, 64
5, 60240, Control_c, 3, 2, 64
5, 60240, Note_on_c, 3, 59, 64
5, 60479, Note_on_c, 3, 55, 0
5, 60479, Note_on_c, 3, 59, 0
5, 60480, Note_on_c, 3, 55, 64
5, 60480, Control_c, 3, 2, 64
5, 60719, Note_on_c, 3, 55, 0
5, 60720, Note_on_c, 3, 55, 64
5, 60720, Control_c, 3, 2, 64
5, 60720, Note_on_c, 3, 59, 64
5, 60959, Note_on_c, 3, 55, 0
5, 60959, Note_on_c, 3, 59, 0
5, 61200, Note_on_c, 3, 55, 64
5, 61200, Control_c, 3, 2, 64
5, 61200, Note_on_c, 3, 59, 64
5, 61439, Note_on_c, 3, 55, 0
5, 61439, Note_on_c, 3, 59, 0
5, 61440, Note_on_c, 3, 57, 64
5, 61440, Control_c, 3, 2, 64
5, 61679, Note_on_c, 3, 57, 0
5, 61680, Note_on_c, 3, 60, 64
5, 61680, Control_c, 3, 2, 64
5, 61680, Note_on_c, 3, 64, 64
5, 61919, Note_on_c, 3, 60, 0
5, 61919, Note_on_c, 3, 64, 0
5, 62160, Note_on_c, 3, 60, 64
5, 62160, Control_c, 3, 2, 64
5, 62160, Note_on_c, 3, 64, 64
5, 62399, Note_on_c, 3, 60, 0
5, 62399, Note_on_c, 3, 64, 0
5, 62400, Note_on_c, 3, 57, 64
5, 62400, Control_c, 3, 2, 64
5, 62639, Note_on_c, 3, 57, 0
5, 62640, Note_on_c, 3, 60, 64
5, 62640, Control_c, 3, 2, 64
5, 62640, Note_on_c, 3, 64, 64
5, 62879, Note_on_c, 3, 60, 0
5, 62879, Note_on_c, 3, 64, 0
5, 63120, Note_on_c, 3, 60, 64
5, 63120, Control_c, 3, 2, 64
5, 63120, Note_on_c, 3, 64, 64
5, 63359, Note_on_c, 3, 60, 0
5, 63359, Note_on_c, 3, 64, 0
5, 63360, Note_on_c, 3, 55, 64
5, 63360, Control_c, 3, 2, 64
5, 63599, Note_on_c, 3, 55, 0
5, 63600, Note_on_c, 3, 60, 64
5, 63600, Control_c, 3, 2, 64
5, 63600, Note_on_c, 3, 64, 64
5, 63839, Note_on_c, 3, 60, 0
5, 63839, Note_on_c, 3, 64, 0
5, 64080, Note_on_c, 3, 60, 64
5, 64080, Control_c, 3, 2, 64
5, 64080, Note_on_c, 3, 64, 64
5, 64319, Note_on_c, 3, 60, 0
5, 64319, Note_on_c, 3, 64, 0
5, 64320, Note_on_c, 3, 55, 64
5, 64320, Control_c, 3, 2, 64
5, 64559, Note_on_c, 3, 55, 0
5, 64560, Note_on_c, 3, 60, 64
5, 64560, Control_c, 3, 2, 64
5, 64560, Note_on_c, 3, 64, 64
5, 64799, Note_on_c, 3, 60, 0
5, 64799, Note_on_c, 3, 64, 0
5, 65040, Note_on_c, 3, 60, 64
5, 65040, Control_c, 3, 2, 64
5, 65040, Note_on_c, 3, 64, 64
5, 65279, Note_on_c, 3, 60, 0
5, 65279, Note_on_c, 3, 64, 0
5, 65280, Note_on_c, 3, 53, 64
5, 65280, Control_c, 3, 2, 64
5, 65519, Note_on_c, 3, 53, 0
5, 65520, Note_on_c, 3, 60, 64
5, 65520, Control_c, 3, 2, 64
5, 65520, Note_on_c, 3, 64, 64
5, 65759, Note_on_c, 3, 60, 0
5, 65759, Note_on_c, 3, 64, 0
5, 66000, Note_on_c, 3, 60, 64
5, 66000, Control_c, 3, 2, 64
5, 66000, Note_on_c, 3, 64, 64
5, 66239, Note_on_c, 3, 60, 0
5, 66239, Note_on_c, 3, 64, 0
5, 66240, Note_on_c, 3, 53, 64
5, 66240, Control_c, 3, 2, 64
5, 66479, Note_on_c, 3, 53, 0
5, 66480, Note_on_c, 3, 60, 64
5, 66480, Control_c, 3, 2, 64
5, 66480, Note_on_c, 3, 64, 64
5, 66719, Note_on_c, 3, 60, 0
5, 66719, Note_on_c, 3, 64, 0
5, 66960, Note_on_c, 3, 60, 64
5, 66960, Control_c, 3, 2, 64
5, 66960, Note_on_c, 3, 64, 64
5, 67199, Note_on_c, 3, 60, 0
5, 67199, Note_on_c, 3, 64, 0
5, 67200, Note_on_c, 3, 55, 64
5, 67200, Control_c, 3, 2, 64
5, 67439, Note_on_c, 3, 55, 0
5, 67440, Note_on_c, 3, 55, 64
5, 67440, Control_c, 3, 2, 64
5, 67440, Note_on_c, 3, 59, 64
5, 67679, Note_on_c, 3, 55, 0
5, 67679, Note_on_c, 3, 59, 0
5, 67920, Note_on_c, 3, 55, 64
5, 67920, Control_c, 3, 2, 64
5, 67920, Note_on_c, 3, 59, 64
5, 68159, Note_on_c, 3, 55, 0
5, 68159, Note_on_c, 3, 59, 0
5, 68160, Note_on_c, 3, 55, 64
5, 68160, Control_c, 3, 2, 64
5, 68399, Note_on_c, 3, 55, 0
5, 68400, Note_on_c, 3, 55, 64
5, 68400, Control_c, 3, 2, 64
5, 68400, Note_on_c, 3, 59, 64
5, 68639, Note_on_c, 3, 55, 0
5, 68639, Note_on_c, 3, 59, 0
5, 68880, Note_on_c, 3, 55, 64
5, 68880, Control_c, 3, 2, 64
5, 68880, Note_on_c, 3, 59, 64
5, 69119, Note_on_c, 3, 55, 0
5, 69119, Note_on_c, 3, 59, 0
5, 69120, Note_on_c, 3, 57, 64
5, 69120, Control_c, 3, 2, 64
5, 69359, Note_on_c, 3, 57, 0
5, 69360, Note_on_c, 3, 60, 64
5, 69360, Control_c, 3, 2, 64
5, 69360, Note_on_c, 3, 64, 64
5, 69599, Note_on_c, 3, 60, 0
5, 69599, Note_on_c, 3, 64, 0
5, 69840, Note_on_c, 3, 60, 64
5, 69840, Control_c, 3, 2, 64
5, 69840, Note_on_c, 3, 64, 64
5, 70079, Note_on_c, 3, 60, 0
5, 70079, Note_on_c, 3, 64, 0
5, 70080, Note_on_c, 3, 57, 64
5, 70080, Control_c, 3, 2, 64
5, 70319, Note_on_c, 3, 57, 0
5, 70320, Note_on_c, 3, 60, 64
5, 70320, Control_c, 3, 2, 64
5, 70320, Note_on_c, 3, 64, 64
5, 70559, Note_on_c, 3, 60, 0
5, 70559, Note_on_c, 3, 64, 0
5, 70800, Note_on_c, 3, 60, 64
5, 70800, Control_c, 3, 2, 64
5, 70800, Note_on_c, 3, 64, 64
5, 71039, Note_on_c, 3, 60, 0
5, 71039, Note_on_c, 3, 64, 0
5, 71040, Note_on_c, 3, 55, 64
5, 71040, Control_c, 3, 2, 64
5, 71279, Note_on_c, 3, 55, 0
5, 71280, Note_on_c, 3, 60, 64
5, 71280, Control_c, 3, 2, 64
5, 71280, Note_on_c, 3, 64, 64
5, 71519, Note_on_c, 3, 60, 0
5, 71519, Note_on_c, 3, 64, 0
5, 71760, Note_on_c, 3, 60, 64
5, 71760, Control_c, 3, 2, 64
5, 71760, Note_on_c, 3, 64, 64
5, 71999, Note_on_c, 3, 60, 0
5, 71999, Note_on_c, 3, 64, 0
5, 72000, Note_on_c, 3, 55, 64
5, 72000, Control_c, 3, 2, 64
5, 72239, Note_on_c, 3, 55, 0
5, 72240, Note_on_c, 3, 60, 64
5, 72240, Control_c, 3, 2, 64
5, 72240, Note_on_c, 3, 64, 64
5, 72479, Note_on_c, 3, 60, 0
5, 72479, Note_on_c, 3, 64, 0
5, 72720, Note_on_c, 3, 60, 64
5, 72720, Control_c, 3, 2, 64
5, 72720, Note_on_c, 3, 64, 64
5, 72959, Note_on_c, 3, 60, 0
5, 72959, Note_on_c, 3, 64, 0
5, 72960, Note_on_c, 3, 53, 64
5, 72960, Control_c, 3, 2, 64
5, 73199, Note_on_c, 3, 53, 0
5, 73200, Note_on_c, 3, 60, 64
5, 73200, Control_c, 3, 2, 64
5, 73200, Note_on_c, 3, 64, 64
5, 73439, Note_on_c, 3, 60, 0
5, 73439, Note_on_c, 3, 64, 0
5, 73680, Note_on_c, 3, 60, 64
5, 73680, Control_c, 3, 2, 64
5, 73680, Note_on_c, 3, 64, 64
5, 73919, Note_on_c, 3, 60, 0
5, 73919, Note_on_c, 3, 64, 0
5, 73920, Note_on_c, 3, 53, 64
5, 73920, Control_c, 3, 2, 64
5, 74159, Note_on_c, 3, 53, 0
5, 74160, Note_on_c, 3, 60, 64
5, 74160, Control_c, 3, 2, 64
5, 74160, Note_on_c, 3, 64, 64
5, 74399, Note_on_c, 3, 60, 0
5, 74399, Note_on_c, 3, 64, 0
5, 74640, Note_on_c, 3, 60, 64
5, 74640, Control_c, 3, 2, 64
5, 74640, Note_on_c, 3, 64, 64
5, 74879, Note_on_c, 3, 60, 0
5, 74879, Note_on_c, 3, 64, 0
5, 74880, Note_on_c, 3, 55, 64
5, 74880, Control_c, 3, 2, 64
5, 75119, Note_on_c, 3, 55, 0
5, 75120, Note_on_c, 3, 55, 64
5, 75120, Control_c, 3, 2, 64
5, 75120, Note_on_c, 3, 59, 64
5, 75359, Note_on_c, 3, 55, 0
5, 75359, Note_on_c, 3, 59, 0
5, 75600, Note_on_c, 3, 55, 64
5, 75600, Control_c, 3, 2, 64
5, 75600, Note_on_c, 3, 59, 64
5, 75839, Note_on_c, 3, 55, 0
5, 75839, Note_on_c, 3, 59, 0
5, 75840, Note_on_c, 3, 55, 64
5, 75840, Control_c, 3, 2, 64
5, 76079, Note_on_c, 3, 55, 0
5, 76080, Note_on_c, 3, 55, 64
5, 76080, Control_c, 3, 2, 64
5, 76080, Note_on_c, 3, 59, 64
5, 76319, Note_on_c, 3, 55, 0
5, 76319, Note_on_c, 3, 59, 0
5, 76560, Note_on_c, 3, 55, 64
5, 76560, Control_c, 3, 2, 64
5, 76560, Note_on_c, 3, 59, 64
5, 76799, Note_on_c, 3, 55, 0
5, 76799, Note_on_c, 3, 59, 0
5, 94080, Control_c, 3, 64, 0
5, 94081, End_track
6, 0, Start_track
6, 0, Title_t, "Verdarach\000"
6, 0, Key_signature, 0, "major"
6, 0, Control_c, 5, 121, 0
6, 0, Program_c, 5, 58
6, 0, Control_c, 5, 7, 100
6, 0, Control_c, 5, 10, 64
6, 0, Control_c, 5, 91, 0
6, 0, Control_c, 5, 93, 0
6, 0, MIDI_port, 0
6, 0, Note_on_c, 5, 45, 64
6, 0, Control_c, 5, 2, 64
6, 1919, Note_on_c, 5, 45, 0
6, 1920, Note_on_c, 5, 43, 64
6, 1920, Control_c, 5, 2, 64
6, 3839, Note_on_c, 5, 43, 0
6, 3840, Note_on_c, 5, 41, 64
6, 3840, Control_c, 5, 2, 64
6, 5759, Note_on_c, 5, 41, 0
6, 5760, Note_on_c, 5, 43, 64
6, 5760, Control_c, 5, 2, 64
6, 7679, Note_on_c, 5, 43, 0
6, 7680, Note_on_c, 5, 45, 64
6, 7680, Control_c, 5, 2, 64
6, 9599, Note_on_c, 5, 45, 0
6, 9600, Note_on_c, 5, 43, 64
6, 9600, Control_c, 5, 2, 64
6, 11519, Note_on_c, 5, 43, 0
6, 11520, Note_on_c, 5, 41, 64
6, 11520, Control_c, 5, 2, 64
6, 13439, Note_on_c, 5, 41, 0
6, 13440, Note_on_c, 5, 43, 64
6, 13440, Control_c, 5, 2, 64
6, 15359, Note_on_c, 5, 43, 0
6, 15360, Note_on_c, 5, 45, 64
6, 15360, Control_c, 5, 2, 64
6, 17279, Note_on_c, 5, 45, 0
6, 17280, Note_on_c, 5, 43, 64
6, 17280, Control_c, 5, 2, 64
6, 19199, Note_on_c, 5, 43, 0
6, 19200, Note_on_c, 5, 41, 64
6, 19200, Control_c, 5, 2, 64
6, 21119, Note_on_c, 5, 41, 0
6, 21120, Note_on_c, 5, 43, 64
6, 21120, Control_c, 5, 2, 64
6, 23039, Note_on_c, 5, 43, 0
6, 23040, Note_on_c, 5, 45, 64
6, 23040, Control_c, 5, 2, 64
6, 24959, Note_on_c, 5, 45, 0
6, 24960, Note_on_c, 5, 43, 64
6, 24960, Control_c, 5, 2, 64
6, 26879, Note_on_c, 5, 43, 0
6, 26880, Note_on_c, 5, 41, 64
6, 26880, Control_c, 5, 2, 64
6, 28799, Note_on_c, 5, 41, 0
6, 28800, Note_on_c, 5, 43, 64
6, 28800, Control_c, 5, 2, 64
6, 30719, Note_on_c, 5, 43, 0
6, 30720, Note_on_c, 5, 45, 64
6, 30720, Control_c, 5, 2, 64
6, 32639, Note_on_c, 5, 45, 0
6, 32640, Note_on_c, 5, 43, 64
6, 32640, Control_c, 5, 2, 64
6, 34559, Note_on_c, 5, 43, 0
6, 34560, Note_on_c, 5, 41, 64
6, 34560, Control_c, 5, 2, 64
6, 36479, Note_on_c, 5, 41, 0
6, 36480, Note_on_c, 5, 43, 64
6, 36480, Control_c, 5, 2, 64
6, 38399, Note_on_c, 5, 43, 0
6, 38400, Note_on_c, 5, 45, 64
6, 38400, Control_c, 5, 2, 64
6, 40319, Note_on_c, 5, 45, 0
6, 40320, Note_on_c, 5, 43, 64
6, 40320, Control_c, 5, 2, 64
6, 42239, Note_on_c, 5, 43, 0
6, 42240, Note_on_c, 5, 41, 64
6, 42240, Control_c, 5, 2, 64
6, 44159, Note_on_c, 5, 41, 0
6, 44160, Note_on_c, 5, 43, 64
6, 44160, Control_c, 5, 2, 64
6, 46079, Note_on_c, 5, 43, 0
6, 46080, Note_on_c, 5, 45, 64
6, 46080, Control_c, 5, 2, 64
6, 47999, Note_on_c, 5, 45, 0
6, 48000, Note_on_c, 5, 43, 64
6, 48000, Control_c, 5, 2, 64
6, 49919, Note_on_c, 5, 43, 0
6, 49920, Note_on_c, 5, 41, 64
6, 49920, Control_c, 5, 2, 64
6, 51839, Note_on_c, 5, 41, 0
6, 51840, Note_on_c, 5, 43, 64
6, 51840, Control_c, 5, 2, 64
6, 53759, Note_on_c, 5, 43, 0
6, 53760, Note_on_c, 5, 45, 64
6, 53760, Control_c, 5, 2, 64
6, 55679, Note_on_c, 5, 45, 0
6, 55680, Note_on_c, 5, 43, 64
6, 55680, Control_c, 5, 2, 64
6, 57599, Note_on_c, 5, 43, 0
6, 57600, Note_on_c, 5, 41, 64
6, 57600, Control_c, 5, 2, 64
6, 59519, Note_on_c, 5, 41, 0
6, 59520, Note_on_c, 5, 43, 64
6, 59520, Control_c, 5, 2, 64
6, 61439, Note_on_c, 5, 43, 0
6, 61440, End_track
7, 0, Start_track
7, 0, Title_t, "Flute in E\000"
7, 0, Key_signature, -4, "major"
7, 0, Control_c, 6, 121, 0
7, 0, Program_c, 6, 73
7, 0, Control_c, 6, 7, 100
7, 0, Control_c, 6, 10, 64
7, 0, Control_c, 6, 91, 0
7, 0, Control_c, 6, 93, 0
7, 0, MIDI_port, 0
7, 15360, Note_on_c, 6, 69, 49
7, 15360, Control_c, 6, 2, 49
7, 16319, Note_on_c, 6, 69, 0
7, 16800, Note_on_c, 6, 69, 49
7, 16800, Control_c, 6, 2, 49
7, 17279, Note_on_c, 6, 69, 0
7, 17280, Note_on_c, 6, 67, 49
7, 17280, Control_c, 6, 2, 49
7, 18719, Note_on_c, 6, 67, 0
7, 18720, Note_on_c, 6, 67, 49
7, 18720, Control_c, 6, 2, 49
7, 19199, Note_on_c, 6, 67, 0
7, 19200, Note_on_c, 6, 65, 49
7, 19200, Control_c, 6, 2, 49
7, 20639, Note_on_c, 6, 65, 0
7, 20640, Note_on_c, 6, 65, 49
7, 20640, Control_c, 6, 2, 49
7, 21119, Note_on_c, 6, 65, 0
7, 21120, Note_on_c, 6, 67, 49
7, 21120, Control_c, 6, 2, 49
7, 22559, Note_on_c, 6, 67, 0
7, 22560, Note_on_c, 6, 67, 49
7, 22560, Control_c, 6, 2, 49
7, 23039, Note_on_c, 6, 67, 0
7, 23040, Note_on_c, 6, 69, 49
7, 23040, Control_c, 6, 2, 49
7, 23999, Note_on_c, 6, 69, 0
7, 24480, Note_on_c, 6, 69, 49
7, 24480, Control_c, 6, 2, 49
7, 24959, Note_on_c, 6, 69, 0
7, 24960, Note_on_c, 6, 67, 49
7, 24960, Control_c, 6, 2, 49
7, 26399, Note_on_c, 6, 67, 0
7, 26400, Note_on_c, 6, 67, 49
7, 26400, Control_c, 6, 2, 49
7, 26879, Note_on_c, 6, 67, 0
7, 26880, Note_on_c, 6, 65, 49
7, 26880, Control_c, 6, 2, 49
7, 28319, Note_on_c, 6, 65, 0
7, 28320, Note_on_c, 6, 65, 49
7, 28320, Control_c, 6, 2, 49
7, 28799, Note_on_c, 6, 65, 0
7, 28800, Note_on_c, 6, 67, 49
7, 28800, Control_c, 6, 2, 49
7, 30239, Note_on_c, 6, 67, 0
7, 30240, Note_on_c, 6, 67, 49
7, 30240, Control_c, 6, 2, 49
7, 30719, Note_on_c, 6, 67, 0
7, 30720, Note_on_c, 6, 69, 49
7, 30720, Control_c, 6, 2, 49
7, 31679, Note_on_c, 6, 69, 0
7, 32160, Note_on_c, 6, 72, 49
7, 32160, Control_c, 6, 2, 49
7, 32639, Note_on_c, 6, 72, 0
7, 32640, Note_on_c, 6, 67, 49
7, 32640, Control_c, 6, 2, 49
7, 34079, Note_on_c, 6, 67, 0
7, 34080, Note_on_c, 6, 72, 49
7, 34080, Control_c, 6, 2, 49
7, 34559, Note_on_c, 6, 72, 0
7, 34560, Note_on_c, 6, 65, 49
7, 34560, Control_c, 6, 2, 49
7, 35999, Note_on_c, 6, 65, 0
7, 36000, Note_on_c, 6, 64, 49
7, 36000, Control_c, 6, 2, 49
7, 36479, Note_on_c, 6, 64, 0
7, 36480, Note_on_c, 6, 67, 49
7, 36480, Control_c, 6, 2, 49
7, 37919, Note_on_c, 6, 67, 0
7, 37920, Note_on_c, 6, 67, 49
7, 37920, Control_c, 6, 2, 49
7, 38399, Note_on_c, 6, 67, 0
7, 38400, Note_on_c, 6, 69, 49
7, 38400, Control_c, 6, 2, 49
7, 39359, Note_on_c, 6, 69, 0
7, 39840, Note_on_c, 6, 72, 49
7, 39840, Control_c, 6, 2, 49
7, 40319, Note_on_c, 6, 72, 0
7, 40320, Note_on_c, 6, 67, 49
7, 40320, Control_c, 6, 2, 49
7, 41759, Note_on_c, 6, 67, 0
7, 41760, Note_on_c, 6, 72, 49
7, 41760, Control_c, 6, 2, 49
7, 42239, Note_on_c, 6, 72, 0
7, 42240, Note_on_c, 6, 65, 49
7, 42240, Control_c, 6, 2, 49
7, 43679, Note_on_c, 6, 65, 0
7, 43680, Note_on_c, 6, 72, 49
7, 43680, Control_c, 6, 2, 49
7, 44159, Note_on_c, 6, 72, 0
7, 44160, Note_on_c, 6, 67, 49
7, 44160, Control_c, 6, 2, 49
7, 45599, Note_on_c, 6, 67, 0
7, 45600, Note_on_c, 6, 67, 49
7, 45600, Control_c, 6, 2, 49
7, 46079, Note_on_c, 6, 67, 0
7, 46080, Note_on_c, 6, 69, 49
7, 46080, Control_c, 6, 2, 49
7, 47519, Note_on_c, 6, 69, 0
7, 47520, Note_on_c, 6, 69, 49
7, 47520, Control_c, 6, 2, 49
7, 47999, Note_on_c, 6, 69, 0
7, 48000, Note_on_c, 6, 67, 49
7, 48000, Control_c, 6, 2, 49
7, 49439, Note_on_c, 6, 67, 0
7, 49440, Note_on_c, 6, 67, 49
7, 49440, Control_c, 6, 2, 49
7, 49919, Note_on_c, 6, 67, 0
7, 49920, Note_on_c, 6, 65, 49
7, 49920, Control_c, 6, 2, 49
7, 51359, Note_on_c, 6, 65, 0
7, 51360, Note_on_c, 6, 65, 49
7, 51360, Control_c, 6, 2, 49
7, 51839, Note_on_c, 6, 65, 0
7, 51840, Note_on_c, 6, 67, 49
7, 51840, Control_c, 6, 2, 49
7, 53279, Note_on_c, 6, 67, 0
7, 53280, Note_on_c, 6, 67, 49
7, 53280, Control_c, 6, 2, 49
7, 53759, Note_on_c, 6, 67, 0
7, 53760, Note_on_c, 6, 69, 49
7, 53760, Control_c, 6, 2, 49
7, 55199, Note_on_c, 6, 69, 0
7, 55200, Note_on_c, 6, 69, 49
7, 55200, Control_c, 6, 2, 49
7, 55679, Note_on_c, 6, 69, 0
7, 55680, Note_on_c, 6, 67, 49
7, 55680, Control_c, 6, 2, 49
7, 57119, Note_on_c, 6, 67, 0
7, 57120, Note_on_c, 6, 67, 49
7, 57120, Control_c, 6, 2, 49
7, 57599, Note_on_c, 6, 67, 0
7, 57600, Note_on_c, 6, 65, 49
7, 57600, Control_c, 6, 2, 49
7, 59039, Note_on_c, 6, 65, 0
7, 59040, Note_on_c, 6, 65, 49
7, 59040, Control_c, 6, 2, 49
7, 59519, Note_on_c, 6, 65, 0
7, 59520, Note_on_c, 6, 67, 49
7, 59520, Control_c, 6, 2, 49
7, 60959, Note_on_c, 6, 67, 0
7, 60960, Note_on_c, 6, 67, 49
7, 60960, Control_c, 6, 2, 49
7, 61439, Note_on_c, 6, 67, 0
7, 61440, Control_c, 6, 2, 64
7, 61440, Note_on_c, 6, 69, 64
7, 62879, Note_on_c, 6, 69, 0
7, 62880, Note_on_c, 6, 69, 64
7, 62880, Control_c, 6, 2, 64
7, 63359, Note_on_c, 6, 69, 0
7, 63360, Note_on_c, 6, 67, 64
7, 63360, Control_c, 6, 2, 64
7, 64799, Note_on_c, 6, 67, 0
7, 64800, Note_on_c, 6, 67, 64
7, 64800, Control_c, 6, 2, 64
7, 65279, Note_on_c, 6, 67, 0
7, 65280, Note_on_c, 6, 65, 64
7, 65280, Control_c, 6, 2, 64
7, 66719, Note_on_c, 6, 65, 0
7, 66720, Note_on_c, 6, 65, 64
7, 66720, Control_c, 6, 2, 64
7, 67199, Note_on_c, 6, 65, 0
7, 67200, Note_on_c, 6, 67, 64
7, 67200, Control_c, 6, 2, 64
7, 68639, Note_on_c, 6, 67, 0
7, 68640, Note_on_c, 6, 67, 64
7, 68640, Control_c, 6, 2, 64
7, 69119, Note_on_c, 6, 67, 0
7, 69120, End_track
8, 0, Start_track
8, 0, Title_t, "Minstrel\000"
8, 0, Key_signature, 0, "major"
8, 0, Control_c, 7, 121, 0
8, 0, Program_c, 7, 0
8, 0, Control_c, 7, 7, 100
8, 0, Control_c, 7, 10, 64
8, 0, Control_c, 7, 91, 0
8, 0, Control_c, 7, 93, 0
8, 0, MIDI_port, 0
8, 2, Control_c, 7, 64, 127
8, 53760, Note_on_c, 7, 72, 80
8, 53760, Control_c, 7, 2, 80
8, 53787, Note_on_c, 7, 76, 80
8, 53815, Note_on_c, 7, 81, 80
8, 53878, Note_on_c, 7, 76, 0
8, 53878, Note_on_c, 7, 81, 0
8, 53879, Note_on_c, 7, 72, 0
8, 55680, Note_on_c, 7, 71, 80
8, 55680, Control_c, 7, 2, 80
8, 55707, Note_on_c, 7, 76, 80
8, 55735, Note_on_c, 7, 81, 80
8, 55798, Note_on_c, 7, 76, 0
8, 55798, Note_on_c, 7, 81, 0
8, 55799, Note_on_c, 7, 71, 0
8, 57600, Note_on_c, 7, 69, 80
8, 57600, Control_c, 7, 2, 80
8, 57627, Note_on_c, 7, 72, 80
8, 57655, Note_on_c, 7, 81, 80
8, 57718, Note_on_c, 7, 72, 0
8, 57718, Note_on_c, 7, 81, 0
8, 57719, Note_on_c, 7, 69, 0
8, 59520, Note_on_c, 7, 71, 80
8, 59520, Control_c, 7, 2, 80
8, 59562, Note_on_c, 7, 79, 80
8, 59639, Note_on_c, 7, 71, 0
8, 59639, Note_on_c, 7, 79, 0
8, 94080, Control_c, 7, 64, 0
8, 94081, End_track
0, 0, End_of_file
