0, 0, Header, 1, 4, 480
1, 0, Start_track
1, 0, Title_t, "Piano, Piano, left (MIDI)\000"
1, 0, Time_signature, 4, 2, 24, 8
1, 0, Key_signature, 0, "major"
1, 0, Tempo, 857143
1, 0, Control_c, 0, 121, 0
1, 0, Program_c, 0, 0
1, 0, Control_c, 0, 7, 100
1, 0, Control_c, 0, 10, 64
1, 0, Control_c, 0, 91, 0
1, 0, Control_c, 0, 93, 0
1, 0, MIDI_port, 0
1, 0, Note_on_c, 0, 53, 80
1, 911, Note_on_c, 0, 53, 0
1, 960, Note_on_c, 0, 52, 80
1, 1871, Note_on_c, 0, 52, 0
1, 1920, Note_on_c, 0, 57, 80
1, 3743, Note_on_c, 0, 57, 0
1, 3840, Note_on_c, 0, 53, 80
1, 4751, Note_on_c, 0, 53, 0
1, 4800, Note_on_c, 0, 52, 80
1, 5711, Note_on_c, 0, 52, 0
1, 5760, Note_on_c, 0, 57, 80
1, 7583, Note_on_c, 0, 57, 0
1, 7680, Note_on_c, 0, 53, 80
1, 8591, Note_on_c, 0, 53, 0
1, 8640, Note_on_c, 0, 52, 80
1, 9551, Note_on_c, 0, 52, 0
1, 9600, Note_on_c, 0, 57, 80
1, 11423, Note_on_c, 0, 57, 0
1, 11520, Note_on_c, 0, 53, 80
1, 12431, Note_on_c, 0, 53, 0
1, 12480, Note_on_c, 0, 52, 80
1, 13391, Note_on_c, 0, 52, 0
1, 13440, Note_on_c, 0, 57, 80
1, 15263, Note_on_c, 0, 57, 0
1, 15360, Note_on_c, 0, 53, 80
1, 16271, Note_on_c, 0, 53, 0
1, 16320, Note_on_c, 0, 52, 80
1, 17231, Note_on_c, 0, 52, 0
1, 17280, Note_on_c, 0, 57, 80
1, 19103, Note_on_c, 0, 57, 0
1, 19200, Note_on_c, 0, 53, 80
1, 20111, Note_on_c, 0, 53, 0
1, 20160, Note_on_c, 0, 52, 80
1, 21071, Note_on_c, 0, 52, 0
1, 21120, Note_on_c, 0, 57, 80
1, 22943, Note_on_c, 0, 57, 0
1, 23040, Note_on_c, 0, 53, 80
1, 23951, Note_on_c, 0, 53, 0
1, 24000, Note_on_c, 0, 52, 80
1, 24911, Note_on_c, 0, 52, 0
1, 24960, Note_on_c, 0, 57, 80
1, 26783, Note_on_c, 0, 57, 0
1, 26880, Note_on_c, 0, 53, 80
1, 27791, Note_on_c, 0, 53, 0
1, 27840, Note_on_c, 0, 52, 80
1, 28751, Note_on_c, 0, 52, 0
1, 28800, Note_on_c, 0, 57, 80
1, 30623, Note_on_c, 0, 57, 0
1, 30720, Note_on_c, 0, 53, 80
1, 31631, Note_on_c, 0, 53, 0
1, 31680, Note_on_c, 0, 52, 80
1, 32591, Note_on_c, 0, 52, 0
1, 32640, Note_on_c, 0, 57, 80
1, 34463, Note_on_c, 0, 57, 0
1, 34560, Note_on_c, 0, 53, 80
1, 34560, Note_on_c, 0, 57, 80
1, 34560, Note_on_c, 0, 60, 80
1, 35471, Note_on_c, 0, 53, 0
1, 35471, Note_on_c, 0, 57, 0
1, 35471, Note_on_c, 0, 60, 0
1, 35520, Note_on_c, 0, 52, 80
1, 35520, Note_on_c, 0, 55, 80
1, 35520, Note_on_c, 0, 59, 80
1, 36431, Note_on_c, 0, 52, 0
1, 36431, Note_on_c, 0, 55, 0
1, 36431, Note_on_c, 0, 59, 0
1, 36480, Note_on_c, 0, 57, 80
1, 36480, Note_on_c, 0, 60, 80
1, 36480, Note_on_c, 0, 64, 80
1, 38303, Note_on_c, 0, 57, 0
1, 38303, Note_on_c, 0, 60, 0
1, 38303, Note_on_c, 0, 64, 0
1, 38400, Note_on_c, 0, 53, 80
1, 38400, Note_on_c, 0, 57, 80
1, 38400, Note_on_c, 0, 60, 80
1, 39311, Note_on_c, 0, 53, 0
1, 39311, Note_on_c, 0, 57, 0
1, 39311, Note_on_c, 0, 60, 0
1, 39360, Note_on_c, 0, 52, 80
1, 39360, Note_on_c, 0, 55, 80
1, 39360, Note_on_c, 0, 59, 80
1, 40271, Note_on_c, 0, 52, 0
1, 40271, Note_on_c, 0, 55, 0
1, 40271, Note_on_c, 0, 59, 0
1, 40320, Note_on_c, 0, 57, 80
1, 40320, Note_on_c, 0, 60, 80
1, 40320, Note_on_c, 0, 64, 80
1, 42143, Note_on_c, 0, 57, 0
1, 42143, Note_on_c, 0, 60, 0
1, 42143, Note_on_c, 0, 64, 0
1, 42240, Note_on_c, 0, 53, 80
1, 42240, Note_on_c, 0, 57, 80
1, 42240, Note_on_c, 0, 60, 80
1, 43151, Note_on_c, 0, 53, 0
1, 43151, Note_on_c, 0, 57, 0
1, 43151, Note_on_c, 0, 60, 0
1, 43200, Note_on_c, 0, 52, 80
1, 43200, Note_on_c, 0, 55, 80
1, 43200, Note_on_c, 0, 59, 80
1, 44111, Note_on_c, 0, 52, 0
1, 44111, Note_on_c, 0, 55, 0
1, 44111, Note_on_c, 0, 59, 0
1, 44160, Note_on_c, 0, 57, 80
1, 44160, Note_on_c, 0, 60, 80
1, 44160, Note_on_c, 0, 64, 80
1, 45983, Note_on_c, 0, 57, 0
1, 45983, Note_on_c, 0, 60, 0
1, 45983, Note_on_c, 0, 64, 0
1, 46080, Note_on_c, 0, 53, 80
1, 46080, Note_on_c, 0, 57, 80
1, 46080, Note_on_c, 0, 60, 80
1, 46319, Note_on_c, 0, 53, 0
1, 46319, Note_on_c, 0, 57, 0
1, 46319, Note_on_c, 0, 60, 0
1, 47040, Note_on_c, 0, 52, 80
1, 47040, Note_on_c, 0, 55, 80
1, 47040, Note_on_c, 0, 59, 80
1, 47951, Note_on_c, 0, 52, 0
1, 47951, Note_on_c, 0, 55, 0
1, 47951, Note_on_c, 0, 59, 0
1, 48000, Note_on_c, 0, 57, 80
1, 48000, Note_on_c, 0, 60, 80
1, 48000, Note_on_c, 0, 64, 80
1, 49823, Note_on_c, 0, 57, 0
1, 49823, Note_on_c, 0, 60, 0
1, 49823, Note_on_c, 0, 64, 0
1, 49920, Note_on_c, 0, 53, 80
1, 49920, Note_on_c, 0, 57, 80
1, 49920, Note_on_c, 0, 60, 80
1, 50261, Note_on_c, 0, 53, 0
1, 50261, Note_on_c, 0, 57, 0
1, 50261, Note_on_c, 0, 60, 0
1, 50280, Note_on_c, 0, 53, 80
1, 50280, Note_on_c, 0, 57, 80
1, 50280, Note_on_c, 0, 60, 80
1, 50621, Note_on_c, 0, 53, 0
1, 50621, Note_on_c, 0, 57, 0
1, 50621, Note_on_c, 0, 60, 0
1, 50640, Note_on_c, 0, 53, 80
1, 50640, Note_on_c, 0, 57, 80
1, 50640, Note_on_c, 0, 60, 80
1, 50867, Note_on_c, 0, 53, 0
1, 50867, Note_on_c, 0, 57, 0
1, 50867, Note_on_c, 0, 60, 0
1, 50880, Note_on_c, 0, 52, 80
1, 50880, Note_on_c, 0, 55, 80
1, 50880, Note_on_c, 0, 59, 80
1, 51221, Note_on_c, 0, 52, 0
1, 51221, Note_on_c, 0, 55, 0
1, 51221, Note_on_c, 0, 59, 0
1, 51240, Note_on_c, 0, 52, 80
1, 51240, Note_on_c, 0, 55, 80
1, 51240, Note_on_c, 0, 59, 80
1, 51581, Note_on_c, 0, 52, 0
1, 51581, Note_on_c, 0, 55, 0
1, 51581, Note_on_c, 0, 59, 0
1, 51600, Note_on_c, 0, 52, 80
1, 51600, Note_on_c, 0, 55, 80
1, 51600, Note_on_c, 0, 59, 80
1, 51827, Note_on_c, 0, 52, 0
1, 51827, Note_on_c, 0, 55, 0
1, 51827, Note_on_c, 0, 59, 0
1, 51840, Note_on_c, 0, 57, 80
1, 51840, Note_on_c, 0, 60, 80
1, 51840, Note_on_c, 0, 64, 80
1, 52181, Note_on_c, 0, 57, 0
1, 52181, Note_on_c, 0, 60, 0
1, 52181, Note_on_c, 0, 64, 0
1, 52200, Note_on_c, 0, 57, 80
1, 52200, Note_on_c, 0, 60, 80
1, 52200, Note_on_c, 0, 64, 80
1, 52541, Note_on_c, 0, 57, 0
1, 52541, Note_on_c, 0, 60, 0
1, 52541, Note_on_c, 0, 64, 0
1, 52560, Note_on_c, 0, 57, 80
1, 52560, Note_on_c, 0, 60, 80
1, 52560, Note_on_c, 0, 64, 80
1, 52787, Note_on_c, 0, 57, 0
1, 52787, Note_on_c, 0, 60, 0
1, 52787, Note_on_c, 0, 64, 0
1, 52800, Note_on_c, 0, 57, 80
1, 52800, Note_on_c, 0, 60, 80
1, 52800, Note_on_c, 0, 64, 80
1, 53141, Note_on_c, 0, 57, 0
1, 53141, Note_on_c, 0, 60, 0
1, 53141, Note_on_c, 0, 64, 0
1, 53160, Note_on_c, 0, 57, 80
1, 53160, Note_on_c, 0, 60, 80
1, 53160, Note_on_c, 0, 64, 80
1, 53501, Note_on_c, 0, 57, 0
1, 53501, Note_on_c, 0, 60, 0
1, 53501, Note_on_c, 0, 64, 0
1, 53520, Note_on_c, 0, 57, 80
1, 53520, Note_on_c, 0, 60, 80
1, 53520, Note_on_c, 0, 64, 80
1, 53747, Note_on_c, 0, 57, 0
1, 53747, Note_on_c, 0, 60, 0
1, 53747, Note_on_c, 0, 64, 0
1, 53760, Note_on_c, 0, 53, 80
1, 53760, Note_on_c, 0, 57, 80
1, 53760, Note_on_c, 0, 60, 80
1, 54101, Note_on_c, 0, 53, 0
1, 54101, Note_on_c, 0, 57, 0
1, 54101, Note_on_c, 0, 60, 0
1, 54120, Note_on_c, 0, 53, 80
1, 54120, Note_on_c, 0, 57, 80
1, 54120, Note_on_c, 0, 60, 80
1, 54461, Note_on_c, 0, 53, 0
1, 54461, Note_on_c, 0, 57, 0
1, 54461, Note_on_c, 0, 60, 0
1, 54480, Note_on_c, 0, 53, 80
1, 54480, Note_on_c, 0, 57, 80
1, 54480, Note_on_c, 0, 60, 80
1, 54707, Note_on_c, 0, 53, 0
1, 54707, Note_on_c, 0, 57, 0
1, 54707, Note_on_c, 0, 60, 0
1, 54720, Note_on_c, 0, 52, 80
1, 54720, Note_on_c, 0, 55, 80
1, 54720, Note_on_c, 0, 59, 80
1, 55061, Note_on_c, 0, 52, 0
1, 55061, Note_on_c, 0, 55, 0
1, 55061, Note_on_c, 0, 59, 0
1, 55080, Note_on_c, 0, 52, 80
1, 55080, Note_on_c, 0, 55, 80
1, 55080, Note_on_c, 0, 59, 80
1, 55421, Note_on_c, 0, 52, 0
1, 55421, Note_on_c, 0, 55, 0
1, 55421, Note_on_c, 0, 59, 0
1, 55440, Note_on_c, 0, 52, 80
1, 55440, Note_on_c, 0, 55, 80
1, 55440, Note_on_c, 0, 59, 80
1, 55667, Note_on_c, 0, 52, 0
1, 55667, Note_on_c, 0, 55, 0
1, 55667, Note_on_c, 0, 59, 0
1, 55680, Note_on_c, 0, 57, 80
1, 55680, Note_on_c, 0, 60, 80
1, 55680, Note_on_c, 0, 64, 80
1, 56021, Note_on_c, 0, 57, 0
1, 56021, Note_on_c, 0, 60, 0
1, 56021, Note_on_c, 0, 64, 0
1, 56040, Note_on_c, 0, 57, 80
1, 56040, Note_on_c, 0, 60, 80
1, 56040, Note_on_c, 0, 64, 80
1, 56381, Note_on_c, 0, 57, 0
1, 56381, Note_on_c, 0, 60, 0
1, 56381, Note_on_c, 0, 64, 0
1, 56400, Note_on_c, 0, 57, 80
1, 56400, Note_on_c, 0, 60, 80
1, 56400, Note_on_c, 0, 64, 80
1, 56627, Note_on_c, 0, 57, 0
1, 56627, Note_on_c, 0, 60, 0
1, 56627, Note_on_c, 0, 64, 0
1, 56640, Note_on_c, 0, 57, 80
1, 56640, Note_on_c, 0, 60, 80
1, 56640, Note_on_c, 0, 64, 80
1, 56981, Note_on_c, 0, 57, 0
1, 56981, Note_on_c, 0, 60, 0
1, 56981, Note_on_c, 0, 64, 0
1, 57000, Note_on_c, 0, 57, 80
1, 57000, Note_on_c, 0, 60, 80
1, 57000, Note_on_c, 0, 64, 80
1, 57341, Note_on_c, 0, 57, 0
1, 57341, Note_on_c, 0, 60, 0
1, 57341, Note_on_c, 0, 64, 0
1, 57360, Note_on_c, 0, 57, 80
1, 57360, Note_on_c, 0, 60, 80
1, 57360, Note_on_c, 0, 64, 80
1, 57587, Note_on_c, 0, 57, 0
1, 57587, Note_on_c, 0, 60, 0
1, 57587, Note_on_c, 0, 64, 0
1, 57600, Note_on_c, 0, 53, 80
1, 57600, Note_on_c, 0, 57, 80
1, 57600, Note_on_c, 0, 60, 80
1, 58511, Note_on_c, 0, 53, 0
1, 58511, Note_on_c, 0, 57, 0
1, 58511, Note_on_c, 0, 60, 0
1, 58560, Note_on_c, 0, 52, 80
1, 58560, Note_on_c, 0, 55, 80
1, 58560, Note_on_c, 0, 59, 80
1, 59471, Note_on_c, 0, 52, 0
1, 59471, Note_on_c, 0, 55, 0
1, 59471, Note_on_c, 0, 59, 0
1, 59520, Note_on_c, 0, 57, 80
1, 59520, Note_on_c, 0, 60, 80
1, 59520, Note_on_c, 0, 64, 80
1, 60203, Note_on_c, 0, 57, 0
1, 60203, Note_on_c, 0, 60, 0
1, 60203, Note_on_c, 0, 64, 0
1, 60240, Note_on_c, 0, 57, 80
1, 60240, Note_on_c, 0, 60, 80
1, 60240, Note_on_c, 0, 64, 80
1, 60923, Note_on_c, 0, 57, 0
1, 60923, Note_on_c, 0, 60, 0
1, 60923, Note_on_c, 0, 64, 0
1, 60960, Note_on_c, 0, 57, 80
1, 60960, Note_on_c, 0, 60, 80
1, 60960, Note_on_c, 0, 64, 80
1, 61415, Note_on_c, 0, 57, 0
1, 61415, Note_on_c, 0, 60, 0
1, 61415, Note_on_c, 0, 64, 0
1, 61440, Note_on_c, 0, 53, 80
1, 61440, Note_on_c, 0, 57, 80
1, 61440, Note_on_c, 0, 60, 80
1, 62351, Note_on_c, 0, 53, 0
1, 62351, Note_on_c, 0, 57, 0
1, 62351, Note_on_c, 0, 60, 0
1, 62400, Note_on_c, 0, 52, 80
1, 62400, Note_on_c, 0, 55, 80
1, 62400, Note_on_c, 0, 59, 80
1, 63311, Note_on_c, 0, 52, 0
1, 63311, Note_on_c, 0, 55, 0
1, 63311, Note_on_c, 0, 59, 0
1, 63360, Note_on_c, 0, 57, 80
1, 63360, Note_on_c, 0, 60, 80
1, 63360, Note_on_c, 0, 64, 80
1, 64043, Note_on_c, 0, 57, 0
1, 64043, Note_on_c, 0, 60, 0
1, 64043, Note_on_c, 0, 64, 0
1, 64080, Note_on_c, 0, 57, 80
1, 64080, Note_on_c, 0, 60, 80
1, 64080, Note_on_c, 0, 64, 80
1, 64763, Note_on_c, 0, 57, 0
1, 64763, Note_on_c, 0, 60, 0
1, 64763, Note_on_c, 0, 64, 0
1, 64800, Note_on_c, 0, 57, 80
1, 64800, Note_on_c, 0, 60, 80
1, 64800, Note_on_c, 0, 64, 80
1, 65255, Note_on_c, 0, 57, 0
1, 65255, Note_on_c, 0, 60, 0
1, 65255, Note_on_c, 0, 64, 0
1, 65280, Note_on_c, 0, 53, 80
1, 65280, Note_on_c, 0, 57, 80
1, 65280, Note_on_c, 0, 60, 80
1, 66191, Note_on_c, 0, 53, 0
1, 66191, Note_on_c, 0, 57, 0
1, 66191, Note_on_c, 0, 60, 0
1, 66240, Note_on_c, 0, 52, 80
1, 66240, Note_on_c, 0, 55, 80
1, 66240, Note_on_c, 0, 59, 80
1, 67151, Note_on_c, 0, 52, 0
1, 67151, Note_on_c, 0, 55, 0
1, 67151, Note_on_c, 0, 59, 0
1, 67200, Note_on_c, 0, 57, 80
1, 67200, Note_on_c, 0, 60, 80
1, 67200, Note_on_c, 0, 64, 80
1, 67883, Note_on_c, 0, 57, 0
1, 67883, Note_on_c, 0, 60, 0
1, 67883, Note_on_c, 0, 64, 0
1, 67920, Note_on_c, 0, 57, 80
1, 67920, Note_on_c, 0, 60, 80
1, 67920, Note_on_c, 0, 64, 80
1, 68603, Note_on_c, 0, 57, 0
1, 68603, Note_on_c, 0, 60, 0
1, 68603, Note_on_c, 0, 64, 0
1, 68640, Note_on_c, 0, 57, 80
1, 68640, Note_on_c, 0, 60, 80
1, 68640, Note_on_c, 0, 64, 80
1, 69095, Note_on_c, 0, 57, 0
1, 69095, Note_on_c, 0, 60, 0
1, 69095, Note_on_c, 0, 64, 0
1, 69120, Note_on_c, 0, 53, 80
1, 69120, Note_on_c, 0, 57, 80
1, 69120, Note_on_c, 0, 60, 80
1, 70031, Note_on_c, 0, 53, 0
1, 70031, Note_on_c, 0, 57, 0
1, 70031, Note_on_c, 0, 60, 0
1, 70080, Note_on_c, 0, 52, 80
1, 70080, Note_on_c, 0, 55, 80
1, 70080, Note_on_c, 0, 59, 80
1, 70991, Note_on_c, 0, 52, 0
1, 70991, Note_on_c, 0, 55, 0
1, 70991, Note_on_c, 0, 59, 0
1, 71040, Note_on_c, 0, 57, 80
1, 71040, Note_on_c, 0, 60, 80
1, 71040, Note_on_c, 0, 64, 80
1, 71723, Note_on_c, 0, 57, 0
1, 71723, Note_on_c, 0, 60, 0
1, 71723, Note_on_c, 0, 64, 0
1, 71760, Note_on_c, 0, 57, 80
1, 71760, Note_on_c, 0, 60, 80
1, 71760, Note_on_c, 0, 64, 80
1, 72443, Note_on_c, 0, 57, 0
1, 72443, Note_on_c, 0, 60, 0
1, 72443, Note_on_c, 0, 64, 0
1, 72480, Note_on_c, 0, 57, 80
1, 72480, Note_on_c, 0, 60, 80
1, 72480, Note_on_c, 0, 64, 80
1, 72935, Note_on_c, 0, 57, 0
1, 72935, Note_on_c, 0, 60, 0
1, 72935, Note_on_c, 0, 64, 0
1, 72960, Note_on_c, 0, 53, 80
1, 72960, Note_on_c, 0, 57, 80
1, 72960, Note_on_c, 0, 60, 80
1, 73871, Note_on_c, 0, 53, 0
1, 73871, Note_on_c, 0, 57, 0
1, 73871, Note_on_c, 0, 60, 0
1, 73920, Note_on_c, 0, 52, 80
1, 73920, Note_on_c, 0, 55, 80
1, 73920, Note_on_c, 0, 59, 80
1, 74831, Note_on_c, 0, 52, 0
1, 74831, Note_on_c, 0, 55, 0
1, 74831, Note_on_c, 0, 59, 0
1, 74880, Note_on_c, 0, 57, 80
1, 74880, Note_on_c, 0, 60, 80
1, 74880, Note_on_c, 0, 64, 80
1, 75563, Note_on_c, 0, 57, 0
1, 75563, Note_on_c, 0, 60, 0
1, 75563, Note_on_c, 0, 64, 0
1, 75600, Note_on_c, 0, 57, 80
1, 75600, Note_on_c, 0, 60, 80
1, 75600, Note_on_c, 0, 64, 80
1, 76283, Note_on_c, 0, 57, 0
1, 76283, Note_on_c, 0, 60, 0
1, 76283, Note_on_c, 0, 64, 0
1, 76320, Note_on_c, 0, 57, 80
1, 76320, Note_on_c, 0, 60, 80
1, 76320, Note_on_c, 0, 64, 80
1, 76775, Note_on_c, 0, 57, 0
1, 76775, Note_on_c, 0, 60, 0
1, 76775, Note_on_c, 0, 64, 0
1, 76800, Note_on_c, 0, 53, 80
1, 76800, Note_on_c, 0, 57, 80
1, 76800, Note_on_c, 0, 60, 80
1, 77711, Note_on_c, 0, 53, 0
1, 77711, Note_on_c, 0, 57, 0
1, 77711, Note_on_c, 0, 60, 0
1, 77760, Note_on_c, 0, 52, 80
1, 77760, Note_on_c, 0, 55, 80
1, 77760, Note_on_c, 0, 59, 80
1, 78671, Note_on_c, 0, 52, 0
1, 78671, Note_on_c, 0, 55, 0
1, 78671, Note_on_c, 0, 59, 0
1, 78720, Note_on_c, 0, 57, 80
1, 78720, Note_on_c, 0, 60, 80
1, 78720, Note_on_c, 0, 64, 80
1, 79403, Note_on_c, 0, 57, 0
1, 79403, Note_on_c, 0, 60, 0
1, 79403, Note_on_c, 0, 64, 0
1, 79440, Note_on_c, 0, 57, 80
1, 79440, Note_on_c, 0, 60, 80
1, 79440, Note_on_c, 0, 64, 80
1, 80123, Note_on_c, 0, 57, 0
1, 80123, Note_on_c, 0, 60, 0
1, 80123, Note_on_c, 0, 64, 0
1, 80160, Note_on_c, 0, 57, 80
1, 80160, Note_on_c, 0, 60, 80
1, 80160, Note_on_c, 0, 64, 80
1, 80615, Note_on_c, 0, 57, 0
1, 80615, Note_on_c, 0, 60, 0
1, 80615, Note_on_c, 0, 64, 0
1, 80640, Note_on_c, 0, 53, 80
1, 80640, Note_on_c, 0, 57, 80
1, 80640, Note_on_c, 0, 60, 80
1, 81551, Note_on_c, 0, 53, 0
1, 81551, Note_on_c, 0, 57, 0
1, 81551, Note_on_c, 0, 60, 0
1, 81600, Note_on_c, 0, 52, 80
1, 81600, Note_on_c, 0, 55, 80
1, 81600, Note_on_c, 0, 59, 80
1, 82511, Note_on_c, 0, 52, 0
1, 82511, Note_on_c, 0, 55, 0
1, 82511, Note_on_c, 0, 59, 0
1, 82560, Note_on_c, 0, 57, 80
1, 82560, Note_on_c, 0, 60, 80
1, 82560, Note_on_c, 0, 64, 80
1, 83243, Note_on_c, 0, 57, 0
1, 83243, Note_on_c, 0, 60, 0
1, 83243, Note_on_c, 0, 64, 0
1, 83280, Note_on_c, 0, 57, 80
1, 83280, Note_on_c, 0, 60, 80
1, 83280, Note_on_c, 0, 64, 80
1, 83963, Note_on_c, 0, 57, 0
1, 83963, Note_on_c, 0, 60, 0
1, 83963, Note_on_c, 0, 64, 0
1, 84000, Note_on_c, 0, 57, 80
1, 84000, Note_on_c, 0, 60, 80
1, 84000, Note_on_c, 0, 64, 80
1, 84455, Note_on_c, 0, 57, 0
1, 84455, Note_on_c, 0, 60, 0
1, 84455, Note_on_c, 0, 64, 0
1, 84480, Note_on_c, 0, 53, 80
1, 84480, Note_on_c, 0, 57, 80
1, 84480, Note_on_c, 0, 60, 80
1, 85391, Note_on_c, 0, 53, 0
1, 85391, Note_on_c, 0, 57, 0
1, 85391, Note_on_c, 0, 60, 0
1, 85440, Note_on_c, 0, 52, 80
1, 85440, Note_on_c, 0, 55, 80
1, 85440, Note_on_c, 0, 59, 80
1, 86351, Note_on_c, 0, 52, 0
1, 86351, Note_on_c, 0, 55, 0
1, 86351, Note_on_c, 0, 59, 0
1, 86400, Note_on_c, 0, 57, 80
1, 86400, Note_on_c, 0, 60, 80
1, 86400, Note_on_c, 0, 64, 80
1, 87083, Note_on_c, 0, 57, 0
1, 87083, Note_on_c, 0, 60, 0
1, 87083, Note_on_c, 0, 64, 0
1, 87120, Note_on_c, 0, 57, 80
1, 87120, Note_on_c, 0, 60, 80
1, 87120, Note_on_c, 0, 64, 80
1, 87803, Note_on_c, 0, 57, 0
1, 87803, Note_on_c, 0, 60, 0
1, 87803, Note_on_c, 0, 64, 0
1, 87840, Note_on_c, 0, 57, 80
1, 87840, Note_on_c, 0, 60, 80
1, 87840, Note_on_c, 0, 64, 80
1, 88295, Note_on_c, 0, 57, 0
1, 88295, Note_on_c, 0, 60, 0
1, 88295, Note_on_c, 0, 64, 0
1, 88320, Note_on_c, 0, 53, 80
1, 88320, Note_on_c, 0, 57, 80
1, 88320, Note_on_c, 0, 60, 80
1, 89231, Note_on_c, 0, 53, 0
1, 89231, Note_on_c, 0, 57, 0
1, 89231, Note_on_c, 0, 60, 0
1, 89280, Note_on_c, 0, 52, 80
1, 89280, Note_on_c, 0, 55, 80
1, 89280, Note_on_c, 0, 59, 80
1, 90191, Note_on_c, 0, 52, 0
1, 90191, Note_on_c, 0, 55, 0
1, 90191, Note_on_c, 0, 59, 0
1, 90240, Note_on_c, 0, 57, 80
1, 90240, Note_on_c, 0, 60, 80
1, 90240, Note_on_c, 0, 64, 80
1, 92063, Note_on_c, 0, 57, 0
1, 92063, Note_on_c, 0, 60, 0
1, 92063, Note_on_c, 0, 64, 0
1, 92160, Note_on_c, 0, 53, 80
1, 92160, Note_on_c, 0, 57, 80
1, 92160, Note_on_c, 0, 60, 80
1, 93071, Note_on_c, 0, 53, 0
1, 93071, Note_on_c, 0, 57, 0
1, 93071, Note_on_c, 0, 60, 0
1, 93120, Note_on_c, 0, 52, 80
1, 93120, Note_on_c, 0, 55, 80
1, 93120, Note_on_c, 0, 59, 80
1, 94031, Note_on_c, 0, 52, 0
1, 94031, Note_on_c, 0, 55, 0
1, 94031, Note_on_c, 0, 59, 0
1, 94080, Note_on_c, 0, 57, 80
1, 94080, Note_on_c, 0, 60, 80
1, 94080, Note_on_c, 0, 64, 80
1, 95903, Note_on_c, 0, 57, 0
1, 95903, Note_on_c, 0, 60, 0
1, 95903, Note_on_c, 0, 64, 0
1, 96000, Note_on_c, 0, 53, 80
1, 96000, Note_on_c, 0, 57, 80
1, 96000, Note_on_c, 0, 60, 80
1, 96911, Note_on_c, 0, 53, 0
1, 96911, Note_on_c, 0, 57, 0
1, 96911, Note_on_c, 0, 60, 0
1, 96960, Note_on_c, 0, 52, 80
1, 96960, Note_on_c, 0, 55, 80
1, 96960, Note_on_c, 0, 59, 80
1, 97871, Note_on_c, 0, 52, 0
1, 97871, Note_on_c, 0, 55, 0
1, 97871, Note_on_c, 0, 59, 0
1, 97920, Note_on_c, 0, 57, 80
1, 97920, Note_on_c, 0, 60, 80
1, 97920, Note_on_c, 0, 64, 80
1, 99743, Note_on_c, 0, 57, 0
1, 99743, Note_on_c, 0, 60, 0
1, 99743, Note_on_c, 0, 64, 0
1, 99840, Note_on_c, 0, 53, 80
1, 99840, Note_on_c, 0, 57, 80
1, 99840, Note_on_c, 0, 60, 80
1, 100751, Note_on_c, 0, 53, 0
1, 100751, Note_on_c, 0, 57, 0
1, 100751, Note_on_c, 0, 60, 0
1, 100800, Note_on_c, 0, 52, 80
1, 100800, Note_on_c, 0, 55, 80
1, 100800, Note_on_c, 0, 59, 80
1, 101711, Note_on_c, 0, 52, 0
1, 101711, Note_on_c, 0, 55, 0
1, 101711, Note_on_c, 0, 59, 0
1, 101760, Note_on_c, 0, 57, 80
1, 101760, Note_on_c, 0, 60, 80
1, 101760, Note_on_c, 0, 64, 80
1, 102443, Note_on_c, 0, 57, 0
1, 102443, Note_on_c, 0, 60, 0
1, 102443, Note_on_c, 0, 64, 0
1, 102480, Note_on_c, 0, 57, 80
1, 102480, Note_on_c, 0, 60, 80
1, 102480, Note_on_c, 0, 64, 80
1, 103163, Note_on_c, 0, 57, 0
1, 103163, Note_on_c, 0, 60, 0
1, 103163, Note_on_c, 0, 64, 0
1, 103200, Note_on_c, 0, 57, 80
1, 103200, Note_on_c, 0, 60, 80
1, 103200, Note_on_c, 0, 64, 80
1, 103655, Note_on_c, 0, 57, 0
1, 103655, Note_on_c, 0, 60, 0
1, 103655, Note_on_c, 0, 64, 0
1, 103680, Note_on_c, 0, 53, 80
1, 103680, Note_on_c, 0, 57, 80
1, 103680, Note_on_c, 0, 60, 80
1, 104021, Note_on_c, 0, 53, 0
1, 104021, Note_on_c, 0, 57, 0
1, 104021, Note_on_c, 0, 60, 0
1, 104040, Note_on_c, 0, 53, 80
1, 104040, Note_on_c, 0, 57, 80
1, 104040, Note_on_c, 0, 60, 80
1, 104381, Note_on_c, 0, 53, 0
1, 104381, Note_on_c, 0, 57, 0
1, 104381, Note_on_c, 0, 60, 0
1, 104400, Note_on_c, 0, 53, 80
1, 104400, Note_on_c, 0, 57, 80
1, 104400, Note_on_c, 0, 60, 80
1, 104627, Note_on_c, 0, 53, 0
1, 104627, Note_on_c, 0, 57, 0
1, 104627, Note_on_c, 0, 60, 0
1, 104640, Note_on_c, 0, 52, 80
1, 104640, Note_on_c, 0, 55, 80
1, 104640, Note_on_c, 0, 59, 80
1, 104981, Note_on_c, 0, 52, 0
1, 104981, Note_on_c, 0, 55, 0
1, 104981, Note_on_c, 0, 59, 0
1, 105000, Note_on_c, 0, 52, 80
1, 105000, Note_on_c, 0, 55, 80
1, 105000, Note_on_c, 0, 59, 80
1, 105341, Note_on_c, 0, 52, 0
1, 105341, Note_on_c, 0, 55, 0
1, 105341, Note_on_c, 0, 59, 0
1, 105360, Note_on_c, 0, 52, 80
1, 105360, Note_on_c, 0, 55, 80
1, 105360, Note_on_c, 0, 59, 80
1, 105587, Note_on_c, 0, 52, 0
1, 105587, Note_on_c, 0, 55, 0
1, 105587, Note_on_c, 0, 59, 0
1, 105600, Note_on_c, 0, 57, 80
1, 105600, Note_on_c, 0, 60, 80
1, 105600, Note_on_c, 0, 64, 80
1, 105941, Note_on_c, 0, 57, 0
1, 105941, Note_on_c, 0, 60, 0
1, 105941, Note_on_c, 0, 64, 0
1, 105960, Note_on_c, 0, 57, 80
1, 105960, Note_on_c, 0, 60, 80
1, 105960, Note_on_c, 0, 64, 80
1, 106301, Note_on_c, 0, 57, 0
1, 106301, Note_on_c, 0, 60, 0
1, 106301, Note_on_c, 0, 64, 0
1, 106320, Note_on_c, 0, 57, 80
1, 106320, Note_on_c, 0, 60, 80
1, 106320, Note_on_c, 0, 64, 80
1, 106547, Note_on_c, 0, 57, 0
1, 106547, Note_on_c, 0, 60, 0
1, 106547, Note_on_c, 0, 64, 0
1, 106560, Note_on_c, 0, 57, 80
1, 106560, Note_on_c, 0, 60, 80
1, 106560, Note_on_c, 0, 64, 80
1, 106901, Note_on_c, 0, 57, 0
1, 106901, Note_on_c, 0, 60, 0
1, 106901, Note_on_c, 0, 64, 0
1, 106920, Note_on_c, 0, 57, 80
1, 106920, Note_on_c, 0, 60, 80
1, 106920, Note_on_c, 0, 64, 80
1, 107261, Note_on_c, 0, 57, 0
1, 107261, Note_on_c, 0, 60, 0
1, 107261, Note_on_c, 0, 64, 0
1, 107280, Note_on_c, 0, 57, 80
1, 107280, Note_on_c, 0, 60, 80
1, 107280, Note_on_c, 0, 64, 80
1, 107507, Note_on_c, 0, 57, 0
1, 107507, Note_on_c, 0, 60, 0
1, 107507, Note_on_c, 0, 64, 0
1, 107520, Note_on_c, 0, 53, 80
1, 107520, Note_on_c, 0, 57, 80
1, 107520, Note_on_c, 0, 60, 80
1, 107861, Note_on_c, 0, 53, 0
1, 107861, Note_on_c, 0, 57, 0
1, 107861, Note_on_c, 0, 60, 0
1, 107880, Note_on_c, 0, 53, 80
1, 107880, Note_on_c, 0, 57, 80
1, 107880, Note_on_c, 0, 60, 80
1, 108221, Note_on_c, 0, 53, 0
1, 108221, Note_on_c, 0, 57, 0
1, 108221, Note_on_c, 0, 60, 0
1, 108240, Note_on_c, 0, 53, 80
1, 108240, Note_on_c, 0, 57, 80
1, 108240, Note_on_c, 0, 60, 80
1, 108467, Note_on_c, 0, 53, 0
1, 108467, Note_on_c, 0, 57, 0
1, 108467, Note_on_c, 0, 60, 0
1, 108480, Note_on_c, 0, 52, 80
1, 108480, Note_on_c, 0, 55, 80
1, 108480, Note_on_c, 0, 59, 80
1, 108821, Note_on_c, 0, 52, 0
1, 108821, Note_on_c, 0, 55, 0
1, 108821, Note_on_c, 0, 59, 0
1, 108840, Note_on_c, 0, 52, 80
1, 108840, Note_on_c, 0, 55, 80
1, 108840, Note_on_c, 0, 59, 80
1, 109181, Note_on_c, 0, 52, 0
1, 109181, Note_on_c, 0, 55, 0
1, 109181, Note_on_c, 0, 59, 0
1, 109200, Note_on_c, 0, 52, 80
1, 109200, Note_on_c, 0, 55, 80
1, 109200, Note_on_c, 0, 59, 80
1, 109427, Note_on_c, 0, 52, 0
1, 109427, Note_on_c, 0, 55, 0
1, 109427, Note_on_c, 0, 59, 0
1, 109440, Note_on_c, 0, 57, 80
1, 109440, Note_on_c, 0, 60, 80
1, 109440, Note_on_c, 0, 64, 80
1, 109781, Note_on_c, 0, 57, 0
1, 109781, Note_on_c, 0, 60, 0
1, 109781, Note_on_c, 0, 64, 0
1, 109800, Note_on_c, 0, 57, 80
1, 109800, Note_on_c, 0, 60, 80
1, 109800, Note_on_c, 0, 64, 80
1, 110141, Note_on_c, 0, 57, 0
1, 110141, Note_on_c, 0, 60, 0
1, 110141, Note_on_c, 0, 64, 0
1, 110160, Note_on_c, 0, 57, 80
1, 110160, Note_on_c, 0, 60, 80
1, 110160, Note_on_c, 0, 64, 80
1, 110387, Note_on_c, 0, 57, 0
1, 110387, Note_on_c, 0, 60, 0
1, 110387, Note_on_c, 0, 64, 0
1, 110400, Note_on_c, 0, 57, 80
1, 110400, Note_on_c, 0, 60, 80
1, 110400, Note_on_c, 0, 64, 80
1, 110741, Note_on_c, 0, 57, 0
1, 110741, Note_on_c, 0, 60, 0
1, 110741, Note_on_c, 0, 64, 0
1, 110760, Note_on_c, 0, 57, 80
1, 110760, Note_on_c, 0, 60, 80
1, 110760, Note_on_c, 0, 64, 80
1, 111101, Note_on_c, 0, 57, 0
1, 111101, Note_on_c, 0, 60, 0
1, 111101, Note_on_c, 0, 64, 0
1, 111120, Note_on_c, 0, 57, 80
1, 111120, Note_on_c, 0, 60, 80
1, 111120, Note_on_c, 0, 64, 80
1, 111347, Note_on_c, 0, 57, 0
1, 111347, Note_on_c, 0, 60, 0
1, 111347, Note_on_c, 0, 64, 0
1, 111360, Note_on_c, 0, 53, 80
1, 111360, Note_on_c, 0, 57, 80
1, 111360, Note_on_c, 0, 60, 80
1, 111701, Note_on_c, 0, 53, 0
1, 111701, Note_on_c, 0, 57, 0
1, 111701, Note_on_c, 0, 60, 0
1, 111720, Note_on_c, 0, 53, 80
1, 111720, Note_on_c, 0, 57, 80
1, 111720, Note_on_c, 0, 60, 80
1, 112061, Note_on_c, 0, 53, 0
1, 112061, Note_on_c, 0, 57, 0
1, 112061, Note_on_c, 0, 60, 0
1, 112080, Note_on_c, 0, 53, 80
1, 112080, Note_on_c, 0, 57, 80
1, 112080, Note_on_c, 0, 60, 80
1, 112307, Note_on_c, 0, 53, 0
1, 112307, Note_on_c, 0, 57, 0
1, 112307, Note_on_c, 0, 60, 0
1, 112320, Note_on_c, 0, 52, 80
1, 112320, Note_on_c, 0, 55, 80
1, 112320, Note_on_c, 0, 59, 80
1, 112661, Note_on_c, 0, 52, 0
1, 112661, Note_on_c, 0, 55, 0
1, 112661, Note_on_c, 0, 59, 0
1, 112680, Note_on_c, 0, 52, 80
1, 112680, Note_on_c, 0, 55, 80
1, 112680, Note_on_c, 0, 59, 80
1, 113021, Note_on_c, 0, 52, 0
1, 113021, Note_on_c, 0, 55, 0
1, 113021, Note_on_c, 0, 59, 0
1, 113040, Note_on_c, 0, 52, 80
1, 113040, Note_on_c, 0, 55, 80
1, 113040, Note_on_c, 0, 59, 80
1, 113267, Note_on_c, 0, 52, 0
1, 113267, Note_on_c, 0, 55, 0
1, 113267, Note_on_c, 0, 59, 0
1, 113280, Note_on_c, 0, 57, 80
1, 113280, Note_on_c, 0, 60, 80
1, 113280, Note_on_c, 0, 64, 80
1, 113621, Note_on_c, 0, 57, 0
1, 113621, Note_on_c, 0, 60, 0
1, 113621, Note_on_c, 0, 64, 0
1, 113640, Note_on_c, 0, 57, 80
1, 113640, Note_on_c, 0, 60, 80
1, 113640, Note_on_c, 0, 64, 80
1, 113981, Note_on_c, 0, 57, 0
1, 113981, Note_on_c, 0, 60, 0
1, 113981, Note_on_c, 0, 64, 0
1, 114000, Note_on_c, 0, 57, 80
1, 114000, Note_on_c, 0, 60, 80
1, 114000, Note_on_c, 0, 64, 80
1, 114227, Note_on_c, 0, 57, 0
1, 114227, Note_on_c, 0, 60, 0
1, 114227, Note_on_c, 0, 64, 0
1, 114240, Note_on_c, 0, 57, 80
1, 114240, Note_on_c, 0, 60, 80
1, 114240, Note_on_c, 0, 64, 80
1, 114581, Note_on_c, 0, 57, 0
1, 114581, Note_on_c, 0, 60, 0
1, 114581, Note_on_c, 0, 64, 0
1, 114600, Note_on_c, 0, 57, 80
1, 114600, Note_on_c, 0, 60, 80
1, 114600, Note_on_c, 0, 64, 80
1, 114941, Note_on_c, 0, 57, 0
1, 114941, Note_on_c, 0, 60, 0
1, 114941, Note_on_c, 0, 64, 0
1, 114960, Note_on_c, 0, 57, 80
1, 114960, Note_on_c, 0, 60, 80
1, 114960, Note_on_c, 0, 64, 80
1, 115187, Note_on_c, 0, 57, 0
1, 115187, Note_on_c, 0, 60, 0
1, 115187, Note_on_c, 0, 64, 0
1, 115200, Note_on_c, 0, 53, 80
1, 115200, Note_on_c, 0, 57, 80
1, 115200, Note_on_c, 0, 60, 80
1, 115541, Note_on_c, 0, 53, 0
1, 115541, Note_on_c, 0, 57, 0
1, 115541, Note_on_c, 0, 60, 0
1, 115560, Note_on_c, 0, 53, 80
1, 115560, Note_on_c, 0, 57, 80
1, 115560, Note_on_c, 0, 60, 80
1, 115901, Note_on_c, 0, 53, 0
1, 115901, Note_on_c, 0, 57, 0
1, 115901, Note_on_c, 0, 60, 0
1, 115920, Note_on_c, 0, 53, 80
1, 115920, Note_on_c, 0, 57, 80
1, 115920, Note_on_c, 0, 60, 80
1, 116147, Note_on_c, 0, 53, 0
1, 116147, Note_on_c, 0, 57, 0
1, 116147, Note_on_c, 0, 60, 0
1, 116160, Note_on_c, 0, 52, 80
1, 116160, Note_on_c, 0, 55, 80
1, 116160, Note_on_c, 0, 59, 80
1, 116615, Note_on_c, 0, 52, 0
1, 116615, Note_on_c, 0, 55, 0
1, 116615, Note_on_c, 0, 59, 0
1, 116640, Note_on_c, 0, 52, 80
1, 116640, Note_on_c, 0, 55, 80
1, 116640, Note_on_c, 0, 59, 80
1, 117095, Note_on_c, 0, 52, 0
1, 117095, Note_on_c, 0, 55, 0
1, 117095, Note_on_c, 0, 59, 0
1, 117120, Note_on_c, 0, 57, 80
1, 117120, Note_on_c, 0, 60, 80
1, 117120, Note_on_c, 0, 64, 80
1, 117803, Note_on_c, 0, 57, 0
1, 117803, Note_on_c, 0, 60, 0
1, 117803, Note_on_c, 0, 64, 0
1, 117840, Note_on_c, 0, 57, 80
1, 117840, Note_on_c, 0, 60, 80
1, 117840, Note_on_c, 0, 64, 80
1, 118865, Note_on_c, 0, 57, 0
1, 118865, Note_on_c, 0, 60, 0
1, 118865, Note_on_c, 0, 64, 0
1, 119040, Note_on_c, 0, 53, 80
1, 119951, Note_on_c, 0, 53, 0
1, 120000, Note_on_c, 0, 52, 80
1, 120911, Note_on_c, 0, 52, 0
1, 120960, Note_on_c, 0, 57, 80
1, 122783, Note_on_c, 0, 57, 0
1, 122784, End_track
2, 0, Start_track
2, 0, Title_t, "Piano, Piano, right (MIDI)\000"
2, 0, Key_signature, 0, "major"
2, 0, Control_c, 2, 121, 0
2, 0, Program_c, 2, 0
2, 0, Control_c, 2, 7, 100
2, 0, Control_c, 2, 10, 64
2, 0, Control_c, 2, 91, 0
2, 0, Control_c, 2, 93, 0
2, 0, MIDI_port, 0
2, 240, Note_on_c, 2, 69, 80
2, 467, Note_on_c, 2, 69, 0
2, 480, Note_on_c, 2, 72, 80
2, 707, Note_on_c, 2, 72, 0
2, 720, Note_on_c, 2, 69, 80
2, 947, Note_on_c, 2, 69, 0
2, 960, Note_on_c, 2, 77, 80
2, 1187, Note_on_c, 2, 77, 0
2, 1200, Note_on_c, 2, 77, 80
2, 1427, Note_on_c, 2, 77, 0
2, 1440, Note_on_c, 2, 76, 80
2, 1667, Note_on_c, 2, 76, 0
2, 1680, Note_on_c, 2, 72, 80
2, 1907, Note_on_c, 2, 72, 0
2, 2160, Note_on_c, 2, 69, 80
2, 2387, Note_on_c, 2, 69, 0
2, 2400, Note_on_c, 2, 72, 80
2, 2627, Note_on_c, 2, 72, 0
2, 2640, Note_on_c, 2, 69, 80
2, 2867, Note_on_c, 2, 69, 0
2, 2880, Note_on_c, 2, 77, 80
2, 3107, Note_on_c, 2, 77, 0
2, 3120, Note_on_c, 2, 77, 80
2, 3347, Note_on_c, 2, 77, 0
2, 3360, Note_on_c, 2, 76, 80
2, 3587, Note_on_c, 2, 76, 0
2, 3600, Note_on_c, 2, 72, 80
2, 3827, Note_on_c, 2, 72, 0
2, 4080, Note_on_c, 2, 69, 80
2, 4307, Note_on_c, 2, 69, 0
2, 4320, Note_on_c, 2, 69, 80
2, 4547, Note_on_c, 2, 69, 0
2, 4560, Note_on_c, 2, 69, 80
2, 4787, Note_on_c, 2, 69, 0
2, 4800, Note_on_c, 2, 69, 80
2, 4913, Note_on_c, 2, 69, 0
2, 4920, Note_on_c, 2, 71, 80
2, 5033, Note_on_c, 2, 71, 0
2, 5040, Note_on_c, 2, 72, 80
2, 5153, Note_on_c, 2, 72, 0
2, 5160, Note_on_c, 2, 71, 80
2, 5273, Note_on_c, 2, 71, 0
2, 5280, Note_on_c, 2, 69, 80
2, 5735, Note_on_c, 2, 69, 0
2, 5760, Note_on_c, 2, 69, 80
2, 5873, Note_on_c, 2, 69, 0
2, 5880, Note_on_c, 2, 76, 80
2, 6221, Note_on_c, 2, 76, 0
2, 6240, Note_on_c, 2, 69, 80
2, 6353, Note_on_c, 2, 69, 0
2, 6360, Note_on_c, 2, 76, 80
2, 6701, Note_on_c, 2, 76, 0
2, 6720, Note_on_c, 2, 69, 80
2, 6833, Note_on_c, 2, 69, 0
2, 6840, Note_on_c, 2, 76, 80
2, 7181, Note_on_c, 2, 76, 0
2, 7200, Note_on_c, 2, 69, 80
2, 7655, Note_on_c, 2, 69, 0
2, 7920, Note_on_c, 2, 69, 80
2, 8147, Note_on_c, 2, 69, 0
2, 8160, Note_on_c, 2, 69, 80
2, 8387, Note_on_c, 2, 69, 0
2, 8400, Note_on_c, 2, 69, 80
2, 8627, Note_on_c, 2, 69, 0
2, 8640, Note_on_c, 2, 69, 80
2, 8753, Note_on_c, 2, 69, 0
2, 8760, Note_on_c, 2, 71, 80
2, 8873, Note_on_c, 2, 71, 0
2, 8880, Note_on_c, 2, 72, 80
2, 8993, Note_on_c, 2, 72, 0
2, 9000, Note_on_c, 2, 71, 80
2, 9113, Note_on_c, 2, 71, 0
2, 9120, Note_on_c, 2, 69, 80
2, 9575, Note_on_c, 2, 69, 0
2, 9600, Note_on_c, 2, 69, 80
2, 9713, Note_on_c, 2, 69, 0
2, 9720, Note_on_c, 2, 76, 80
2, 10061, Note_on_c, 2, 76, 0
2, 10080, Note_on_c, 2, 69, 80
2, 10193, Note_on_c, 2, 69, 0
2, 10200, Note_on_c, 2, 76, 80
2, 10541, Note_on_c, 2, 76, 0
2, 10560, Note_on_c, 2, 69, 80
2, 10673, Note_on_c, 2, 69, 0
2, 10680, Note_on_c, 2, 76, 80
2, 11021, Note_on_c, 2, 76, 0
2, 11040, Note_on_c, 2, 69, 80
2, 11495, Note_on_c, 2, 69, 0
2, 11760, Note_on_c, 2, 69, 80
2, 11987, Note_on_c, 2, 69, 0
2, 12000, Note_on_c, 2, 69, 80
2, 12227, Note_on_c, 2, 69, 0
2, 12240, Note_on_c, 2, 69, 80
2, 12467, Note_on_c, 2, 69, 0
2, 12480, Note_on_c, 2, 69, 80
2, 12593, Note_on_c, 2, 69, 0
2, 12600, Note_on_c, 2, 71, 80
2, 12713, Note_on_c, 2, 71, 0
2, 12720, Note_on_c, 2, 72, 80
2, 12833, Note_on_c, 2, 72, 0
2, 12840, Note_on_c, 2, 71, 80
2, 12953, Note_on_c, 2, 71, 0
2, 12960, Note_on_c, 2, 69, 80
2, 13415, Note_on_c, 2, 69, 0
2, 13440, Note_on_c, 2, 69, 80
2, 13553, Note_on_c, 2, 69, 0
2, 13560, Note_on_c, 2, 76, 80
2, 13901, Note_on_c, 2, 76, 0
2, 13920, Note_on_c, 2, 69, 80
2, 14375, Note_on_c, 2, 69, 0
2, 14400, Note_on_c, 2, 69, 80
2, 14513, Note_on_c, 2, 69, 0
2, 14520, Note_on_c, 2, 76, 80
2, 14861, Note_on_c, 2, 76, 0
2, 14880, Note_on_c, 2, 69, 80
2, 15335, Note_on_c, 2, 69, 0
2, 15600, Note_on_c, 2, 69, 80
2, 15827, Note_on_c, 2, 69, 0
2, 15840, Note_on_c, 2, 69, 80
2, 16067, Note_on_c, 2, 69, 0
2, 16080, Note_on_c, 2, 69, 80
2, 16307, Note_on_c, 2, 69, 0
2, 16320, Note_on_c, 2, 69, 80
2, 16433, Note_on_c, 2, 69, 0
2, 16440, Note_on_c, 2, 71, 80
2, 16553, Note_on_c, 2, 71, 0
2, 16560, Note_on_c, 2, 72, 80
2, 16673, Note_on_c, 2, 72, 0
2, 16680, Note_on_c, 2, 71, 80
2, 16793, Note_on_c, 2, 71, 0
2, 16800, Note_on_c, 2, 69, 80
2, 17255, Note_on_c, 2, 69, 0
2, 17280, Note_on_c, 2, 69, 80
2, 17393, Note_on_c, 2, 69, 0
2, 17400, Note_on_c, 2, 76, 80
2, 17741, Note_on_c, 2, 76, 0
2, 17760, Note_on_c, 2, 69, 80
2, 17873, Note_on_c, 2, 69, 0
2, 17880, Note_on_c, 2, 76, 80
2, 18221, Note_on_c, 2, 76, 0
2, 18240, Note_on_c, 2, 69, 80
2, 18353, Note_on_c, 2, 69, 0
2, 18360, Note_on_c, 2, 76, 80
2, 18701, Note_on_c, 2, 76, 0
2, 18720, Note_on_c, 2, 69, 80
2, 19175, Note_on_c, 2, 69, 0
2, 19680, Note_on_c, 2, 77, 80
2, 19793, Note_on_c, 2, 77, 0
2, 19800, Note_on_c, 2, 77, 80
2, 20027, Note_on_c, 2, 77, 0
2, 20040, Note_on_c, 2, 76, 80
2, 20381, Note_on_c, 2, 76, 0
2, 20400, Note_on_c, 2, 72, 80
2, 20627, Note_on_c, 2, 72, 0
2, 20640, Note_on_c, 2, 72, 80
2, 20753, Note_on_c, 2, 72, 0
2, 20760, Note_on_c, 2, 72, 80
2, 20987, Note_on_c, 2, 72, 0
2, 21000, Note_on_c, 2, 72, 80
2, 21341, Note_on_c, 2, 72, 0
2, 21360, Note_on_c, 2, 69, 80
2, 21587, Note_on_c, 2, 69, 0
2, 21600, Note_on_c, 2, 69, 80
2, 21713, Note_on_c, 2, 69, 0
2, 21720, Note_on_c, 2, 72, 80
2, 22061, Note_on_c, 2, 72, 0
2, 22080, Note_on_c, 2, 74, 80
2, 22535, Note_on_c, 2, 74, 0
2, 23520, Note_on_c, 2, 77, 80
2, 23633, Note_on_c, 2, 77, 0
2, 23640, Note_on_c, 2, 77, 80
2, 23867, Note_on_c, 2, 77, 0
2, 23880, Note_on_c, 2, 76, 80
2, 24221, Note_on_c, 2, 76, 0
2, 24240, Note_on_c, 2, 72, 80
2, 24467, Note_on_c, 2, 72, 0
2, 24480, Note_on_c, 2, 72, 80
2, 24593, Note_on_c, 2, 72, 0
2, 24600, Note_on_c, 2, 72, 80
2, 24827, Note_on_c, 2, 72, 0
2, 24840, Note_on_c, 2, 72, 80
2, 25181, Note_on_c, 2, 72, 0
2, 25200, Note_on_c, 2, 69, 80
2, 25427, Note_on_c, 2, 69, 0
2, 25440, Note_on_c, 2, 69, 80
2, 25553, Note_on_c, 2, 69, 0
2, 25560, Note_on_c, 2, 72, 80
2, 25901, Note_on_c, 2, 72, 0
2, 25920, Note_on_c, 2, 74, 80
2, 26375, Note_on_c, 2, 74, 0
2, 27360, Note_on_c, 2, 84, 80
2, 27473, Note_on_c, 2, 84, 0
2, 27480, Note_on_c, 2, 84, 80
2, 27707, Note_on_c, 2, 84, 0
2, 27720, Note_on_c, 2, 83, 80
2, 27947, Note_on_c, 2, 83, 0
2, 27960, Note_on_c, 2, 81, 80
2, 28301, Note_on_c, 2, 81, 0
2, 28320, Note_on_c, 2, 76, 80
2, 28433, Note_on_c, 2, 76, 0
2, 28440, Note_on_c, 2, 76, 80
2, 28667, Note_on_c, 2, 76, 0
2, 28680, Note_on_c, 2, 76, 80
2, 28907, Note_on_c, 2, 76, 0
2, 28920, Note_on_c, 2, 74, 80
2, 29261, Note_on_c, 2, 74, 0
2, 29280, Note_on_c, 2, 69, 80
2, 29393, Note_on_c, 2, 69, 0
2, 29400, Note_on_c, 2, 72, 80
2, 29741, Note_on_c, 2, 72, 0
2, 29760, Note_on_c, 2, 74, 80
2, 30215, Note_on_c, 2, 74, 0
2, 31200, Note_on_c, 2, 77, 80
2, 31313, Note_on_c, 2, 77, 0
2, 31320, Note_on_c, 2, 77, 80
2, 31547, Note_on_c, 2, 77, 0
2, 31560, Note_on_c, 2, 76, 80
2, 31901, Note_on_c, 2, 76, 0
2, 31920, Note_on_c, 2, 72, 80
2, 32147, Note_on_c, 2, 72, 0
2, 32160, Note_on_c, 2, 72, 80
2, 32273, Note_on_c, 2, 72, 0
2, 32280, Note_on_c, 2, 72, 80
2, 32507, Note_on_c, 2, 72, 0
2, 32520, Note_on_c, 2, 72, 80
2, 32861, Note_on_c, 2, 72, 0
2, 32880, Note_on_c, 2, 69, 80
2, 33107, Note_on_c, 2, 69, 0
2, 33120, Note_on_c, 2, 72, 80
2, 33301, Note_on_c, 2, 72, 0
2, 33312, Note_on_c, 2, 72, 80
2, 33447, Note_on_c, 2, 72, 0
2, 33456, Note_on_c, 2, 69, 80
2, 33591, Note_on_c, 2, 69, 0
2, 33600, Note_on_c, 2, 72, 80
2, 33779, Note_on_c, 2, 72, 0
2, 34020, Note_on_c, 2, 76, 80
2, 34076, Note_on_c, 2, 76, 0
2, 34080, Note_on_c, 2, 76, 80
2, 34193, Note_on_c, 2, 76, 0
2, 34260, Note_on_c, 2, 76, 80
2, 34316, Note_on_c, 2, 76, 0
2, 34320, Note_on_c, 2, 76, 80
2, 34433, Note_on_c, 2, 76, 0
2, 34500, Note_on_c, 2, 74, 80
2, 34556, Note_on_c, 2, 74, 0
2, 34560, Note_on_c, 2, 76, 80
2, 34741, Note_on_c, 2, 76, 0
2, 34752, Note_on_c, 2, 72, 80
2, 34978, Note_on_c, 2, 72, 0
2, 34992, Note_on_c, 2, 76, 80
2, 35036, Note_on_c, 2, 76, 0
2, 35040, Note_on_c, 2, 76, 80
2, 35153, Note_on_c, 2, 76, 0
2, 35220, Note_on_c, 2, 76, 80
2, 35276, Note_on_c, 2, 76, 0
2, 35280, Note_on_c, 2, 76, 80
2, 35393, Note_on_c, 2, 76, 0
2, 35460, Note_on_c, 2, 74, 80
2, 35516, Note_on_c, 2, 74, 0
2, 35520, Note_on_c, 2, 76, 80
2, 35759, Note_on_c, 2, 76, 0
2, 36000, Note_on_c, 2, 76, 80
2, 36113, Note_on_c, 2, 76, 0
2, 36180, Note_on_c, 2, 76, 80
2, 36236, Note_on_c, 2, 76, 0
2, 36240, Note_on_c, 2, 76, 80
2, 36353, Note_on_c, 2, 76, 0
2, 36420, Note_on_c, 2, 74, 80
2, 36476, Note_on_c, 2, 74, 0
2, 36480, Note_on_c, 2, 76, 80
2, 36661, Note_on_c, 2, 76, 0
2, 36672, Note_on_c, 2, 72, 80
2, 36898, Note_on_c, 2, 72, 0
2, 36912, Note_on_c, 2, 76, 80
2, 36956, Note_on_c, 2, 76, 0
2, 36960, Note_on_c, 2, 79, 80
2, 37073, Note_on_c, 2, 79, 0
2, 37140, Note_on_c, 2, 77, 80
2, 37196, Note_on_c, 2, 77, 0
2, 37200, Note_on_c, 2, 76, 80
2, 37313, Note_on_c, 2, 76, 0
2, 37380, Note_on_c, 2, 74, 80
2, 37436, Note_on_c, 2, 74, 0
2, 37440, Note_on_c, 2, 76, 80
2, 37619, Note_on_c, 2, 76, 0
2, 37860, Note_on_c, 2, 76, 80
2, 37916, Note_on_c, 2, 76, 0
2, 37920, Note_on_c, 2, 76, 80
2, 38033, Note_on_c, 2, 76, 0
2, 38100, Note_on_c, 2, 76, 80
2, 38156, Note_on_c, 2, 76, 0
2, 38160, Note_on_c, 2, 76, 80
2, 38273, Note_on_c, 2, 76, 0
2, 38340, Note_on_c, 2, 74, 80
2, 38396, Note_on_c, 2, 74, 0
2, 38400, Note_on_c, 2, 76, 80
2, 38581, Note_on_c, 2, 76, 0
2, 38592, Note_on_c, 2, 72, 80
2, 38818, Note_on_c, 2, 72, 0
2, 38832, Note_on_c, 2, 76, 80
2, 38876, Note_on_c, 2, 76, 0
2, 38880, Note_on_c, 2, 76, 80
2, 38993, Note_on_c, 2, 76, 0
2, 39060, Note_on_c, 2, 76, 80
2, 39116, Note_on_c, 2, 76, 0
2, 39120, Note_on_c, 2, 76, 80
2, 39233, Note_on_c, 2, 76, 0
2, 39300, Note_on_c, 2, 74, 80
2, 39356, Note_on_c, 2, 74, 0
2, 39360, Note_on_c, 2, 76, 80
2, 39599, Note_on_c, 2, 76, 0
2, 39840, Note_on_c, 2, 76, 80
2, 39953, Note_on_c, 2, 76, 0
2, 40020, Note_on_c, 2, 76, 80
2, 40076, Note_on_c, 2, 76, 0
2, 40080, Note_on_c, 2, 76, 80
2, 40193, Note_on_c, 2, 76, 0
2, 40260, Note_on_c, 2, 74, 80
2, 40316, Note_on_c, 2, 74, 0
2, 40320, Note_on_c, 2, 76, 80
2, 40501, Note_on_c, 2, 76, 0
2, 40512, Note_on_c, 2, 72, 80
2, 40738, Note_on_c, 2, 72, 0
2, 40752, Note_on_c, 2, 76, 80
2, 40796, Note_on_c, 2, 76, 0
2, 40800, Note_on_c, 2, 79, 80
2, 40913, Note_on_c, 2, 79, 0
2, 40980, Note_on_c, 2, 77, 80
2, 41036, Note_on_c, 2, 77, 0
2, 41040, Note_on_c, 2, 76, 80
2, 41153, Note_on_c, 2, 76, 0
2, 41220, Note_on_c, 2, 74, 80
2, 41276, Note_on_c, 2, 74, 0
2, 41280, Note_on_c, 2, 76, 80
2, 41459, Note_on_c, 2, 76, 0
2, 41700, Note_on_c, 2, 76, 80
2, 41756, Note_on_c, 2, 76, 0
2, 41760, Note_on_c, 2, 76, 80
2, 41873, Note_on_c, 2, 76, 0
2, 41940, Note_on_c, 2, 76, 80
2, 41996, Note_on_c, 2, 76, 0
2, 42000, Note_on_c, 2, 76, 80
2, 42113, Note_on_c, 2, 76, 0
2, 42180, Note_on_c, 2, 74, 80
2, 42236, Note_on_c, 2, 74, 0
2, 42240, Note_on_c, 2, 76, 80
2, 42421, Note_on_c, 2, 76, 0
2, 42432, Note_on_c, 2, 72, 80
2, 42658, Note_on_c, 2, 72, 0
2, 42672, Note_on_c, 2, 76, 80
2, 42716, Note_on_c, 2, 76, 0
2, 42720, Note_on_c, 2, 76, 80
2, 42833, Note_on_c, 2, 76, 0
2, 42900, Note_on_c, 2, 76, 80
2, 42956, Note_on_c, 2, 76, 0
2, 42960, Note_on_c, 2, 76, 80
2, 43073, Note_on_c, 2, 76, 0
2, 43140, Note_on_c, 2, 74, 80
2, 43196, Note_on_c, 2, 74, 0
2, 43200, Note_on_c, 2, 76, 80
2, 43439, Note_on_c, 2, 76, 0
2, 43680, Note_on_c, 2, 76, 80
2, 43793, Note_on_c, 2, 76, 0
2, 43860, Note_on_c, 2, 76, 80
2, 43916, Note_on_c, 2, 76, 0
2, 43920, Note_on_c, 2, 76, 80
2, 44033, Note_on_c, 2, 76, 0
2, 44100, Note_on_c, 2, 74, 80
2, 44156, Note_on_c, 2, 74, 0
2, 44160, Note_on_c, 2, 76, 80
2, 44341, Note_on_c, 2, 76, 0
2, 44352, Note_on_c, 2, 72, 80
2, 44578, Note_on_c, 2, 72, 0
2, 44592, Note_on_c, 2, 76, 80
2, 44636, Note_on_c, 2, 76, 0
2, 44640, Note_on_c, 2, 79, 80
2, 44753, Note_on_c, 2, 79, 0
2, 44820, Note_on_c, 2, 77, 80
2, 44876, Note_on_c, 2, 77, 0
2, 44880, Note_on_c, 2, 76, 80
2, 44993, Note_on_c, 2, 76, 0
2, 45060, Note_on_c, 2, 74, 80
2, 45116, Note_on_c, 2, 74, 0
2, 45120, Note_on_c, 2, 76, 80
2, 45299, Note_on_c, 2, 76, 0
2, 45540, Note_on_c, 2, 76, 80
2, 45596, Note_on_c, 2, 76, 0
2, 45600, Note_on_c, 2, 76, 80
2, 45713, Note_on_c, 2, 76, 0
2, 45780, Note_on_c, 2, 76, 80
2, 45836, Note_on_c, 2, 76, 0
2, 45840, Note_on_c, 2, 76, 80
2, 45953, Note_on_c, 2, 76, 0
2, 46020, Note_on_c, 2, 74, 80
2, 46076, Note_on_c, 2, 74, 0
2, 46080, Note_on_c, 2, 76, 80
2, 46261, Note_on_c, 2, 76, 0
2, 46272, Note_on_c, 2, 72, 80
2, 46498, Note_on_c, 2, 72, 0
2, 46512, Note_on_c, 2, 76, 80
2, 46556, Note_on_c, 2, 76, 0
2, 46560, Note_on_c, 2, 76, 80
2, 46673, Note_on_c, 2, 76, 0
2, 46740, Note_on_c, 2, 76, 80
2, 46796, Note_on_c, 2, 76, 0
2, 46800, Note_on_c, 2, 76, 80
2, 46913, Note_on_c, 2, 76, 0
2, 46980, Note_on_c, 2, 74, 80
2, 47036, Note_on_c, 2, 74, 0
2, 47040, Note_on_c, 2, 76, 80
2, 47279, Note_on_c, 2, 76, 0
2, 47520, Note_on_c, 2, 76, 80
2, 47633, Note_on_c, 2, 76, 0
2, 47700, Note_on_c, 2, 76, 80
2, 47756, Note_on_c, 2, 76, 0
2, 47760, Note_on_c, 2, 76, 80
2, 47873, Note_on_c, 2, 76, 0
2, 47940, Note_on_c, 2, 74, 80
2, 47996, Note_on_c, 2, 74, 0
2, 48000, Note_on_c, 2, 76, 80
2, 48181, Note_on_c, 2, 76, 0
2, 48192, Note_on_c, 2, 72, 80
2, 48418, Note_on_c, 2, 72, 0
2, 48432, Note_on_c, 2, 76, 80
2, 48476, Note_on_c, 2, 76, 0
2, 48480, Note_on_c, 2, 79, 80
2, 48593, Note_on_c, 2, 79, 0
2, 48660, Note_on_c, 2, 77, 80
2, 48716, Note_on_c, 2, 77, 0
2, 48720, Note_on_c, 2, 76, 80
2, 48833, Note_on_c, 2, 76, 0
2, 48900, Note_on_c, 2, 74, 80
2, 48956, Note_on_c, 2, 74, 0
2, 48960, Note_on_c, 2, 76, 80
2, 49199, Note_on_c, 2, 76, 0
2, 50160, Note_on_c, 2, 69, 80
2, 50387, Note_on_c, 2, 69, 0
2, 50400, Note_on_c, 2, 72, 80
2, 50627, Note_on_c, 2, 72, 0
2, 50640, Note_on_c, 2, 69, 80
2, 50867, Note_on_c, 2, 69, 0
2, 50880, Note_on_c, 2, 77, 80
2, 51107, Note_on_c, 2, 77, 0
2, 51120, Note_on_c, 2, 77, 80
2, 51347, Note_on_c, 2, 77, 0
2, 51360, Note_on_c, 2, 76, 80
2, 51587, Note_on_c, 2, 76, 0
2, 51600, Note_on_c, 2, 72, 80
2, 51827, Note_on_c, 2, 72, 0
2, 52080, Note_on_c, 2, 69, 80
2, 52307, Note_on_c, 2, 69, 0
2, 52320, Note_on_c, 2, 72, 80
2, 52547, Note_on_c, 2, 72, 0
2, 52560, Note_on_c, 2, 69, 80
2, 52787, Note_on_c, 2, 69, 0
2, 52800, Note_on_c, 2, 77, 80
2, 53027, Note_on_c, 2, 77, 0
2, 53040, Note_on_c, 2, 77, 80
2, 53267, Note_on_c, 2, 77, 0
2, 53280, Note_on_c, 2, 76, 80
2, 53507, Note_on_c, 2, 76, 0
2, 53520, Note_on_c, 2, 72, 80
2, 53747, Note_on_c, 2, 72, 0
2, 54000, Note_on_c, 2, 69, 80
2, 54227, Note_on_c, 2, 69, 0
2, 54240, Note_on_c, 2, 72, 80
2, 54467, Note_on_c, 2, 72, 0
2, 54480, Note_on_c, 2, 69, 80
2, 54707, Note_on_c, 2, 69, 0
2, 54720, Note_on_c, 2, 77, 80
2, 54947, Note_on_c, 2, 77, 0
2, 54960, Note_on_c, 2, 77, 80
2, 55187, Note_on_c, 2, 77, 0
2, 55200, Note_on_c, 2, 76, 80
2, 55427, Note_on_c, 2, 76, 0
2, 55440, Note_on_c, 2, 72, 80
2, 55667, Note_on_c, 2, 72, 0
2, 55920, Note_on_c, 2, 69, 80
2, 56147, Note_on_c, 2, 69, 0
2, 56160, Note_on_c, 2, 72, 80
2, 56387, Note_on_c, 2, 72, 0
2, 56400, Note_on_c, 2, 69, 80
2, 56627, Note_on_c, 2, 69, 0
2, 56640, Note_on_c, 2, 77, 80
2, 56867, Note_on_c, 2, 77, 0
2, 56880, Note_on_c, 2, 77, 80
2, 57107, Note_on_c, 2, 77, 0
2, 57120, Note_on_c, 2, 76, 80
2, 57347, Note_on_c, 2, 76, 0
2, 57360, Note_on_c, 2, 72, 80
2, 57587, Note_on_c, 2, 72, 0
2, 57840, Note_on_c, 2, 69, 80
2, 58067, Note_on_c, 2, 69, 0
2, 58080, Note_on_c, 2, 69, 80
2, 58307, Note_on_c, 2, 69, 0
2, 58320, Note_on_c, 2, 69, 80
2, 58547, Note_on_c, 2, 69, 0
2, 58560, Note_on_c, 2, 69, 80
2, 58673, Note_on_c, 2, 69, 0
2, 58680, Note_on_c, 2, 71, 80
2, 58793, Note_on_c, 2, 71, 0
2, 58800, Note_on_c, 2, 72, 80
2, 58913, Note_on_c, 2, 72, 0
2, 58920, Note_on_c, 2, 71, 80
2, 59033, Note_on_c, 2, 71, 0
2, 59040, Note_on_c, 2, 69, 80
2, 59495, Note_on_c, 2, 69, 0
2, 59520, Note_on_c, 2, 69, 80
2, 59633, Note_on_c, 2, 69, 0
2, 59640, Note_on_c, 2, 76, 80
2, 59981, Note_on_c, 2, 76, 0
2, 60000, Note_on_c, 2, 69, 80
2, 60113, Note_on_c, 2, 69, 0
2, 60120, Note_on_c, 2, 76, 80
2, 60461, Note_on_c, 2, 76, 0
2, 60480, Note_on_c, 2, 69, 80
2, 60593, Note_on_c, 2, 69, 0
2, 60600, Note_on_c, 2, 76, 80
2, 60941, Note_on_c, 2, 76, 0
2, 60960, Note_on_c, 2, 69, 80
2, 61415, Note_on_c, 2, 69, 0
2, 61680, Note_on_c, 2, 69, 80
2, 61907, Note_on_c, 2, 69, 0
2, 61920, Note_on_c, 2, 69, 80
2, 62147, Note_on_c, 2, 69, 0
2, 62160, Note_on_c, 2, 69, 80
2, 62387, Note_on_c, 2, 69, 0
2, 62400, Note_on_c, 2, 69, 80
2, 62513, Note_on_c, 2, 69, 0
2, 62520, Note_on_c, 2, 71, 80
2, 62633, Note_on_c, 2, 71, 0
2, 62640, Note_on_c, 2, 72, 80
2, 62753, Note_on_c, 2, 72, 0
2, 62760, Note_on_c, 2, 71, 80
2, 62873, Note_on_c, 2, 71, 0
2, 62880, Note_on_c, 2, 69, 80
2, 63335, Note_on_c, 2, 69, 0
2, 63360, Note_on_c, 2, 69, 80
2, 63473, Note_on_c, 2, 69, 0
2, 63480, Note_on_c, 2, 76, 80
2, 63821, Note_on_c, 2, 76, 0
2, 63840, Note_on_c, 2, 69, 80
2, 63953, Note_on_c, 2, 69, 0
2, 63960, Note_on_c, 2, 76, 80
2, 64301, Note_on_c, 2, 76, 0
2, 64320, Note_on_c, 2, 69, 80
2, 64433, Note_on_c, 2, 69, 0
2, 64440, Note_on_c, 2, 76, 80
2, 64781, Note_on_c, 2, 76, 0
2, 64800, Note_on_c, 2, 69, 80
2, 65255, Note_on_c, 2, 69, 0
2, 65520, Note_on_c, 2, 69, 80
2, 65747, Note_on_c, 2, 69, 0
2, 65760, Note_on_c, 2, 69, 80
2, 65987, Note_on_c, 2, 69, 0
2, 66000, Note_on_c, 2, 69, 80
2, 66227, Note_on_c, 2, 69, 0
2, 66240, Note_on_c, 2, 69, 80
2, 66353, Note_on_c, 2, 69, 0
2, 66360, Note_on_c, 2, 71, 80
2, 66473, Note_on_c, 2, 71, 0
2, 66480, Note_on_c, 2, 72, 80
2, 66593, Note_on_c, 2, 72, 0
2, 66600, Note_on_c, 2, 71, 80
2, 66713, Note_on_c, 2, 71, 0
2, 66720, Note_on_c, 2, 69, 80
2, 67175, Note_on_c, 2, 69, 0
2, 67200, Note_on_c, 2, 69, 80
2, 67313, Note_on_c, 2, 69, 0
2, 67320, Note_on_c, 2, 76, 80
2, 67661, Note_on_c, 2, 76, 0
2, 67680, Note_on_c, 2, 69, 80
2, 68135, Note_on_c, 2, 69, 0
2, 68160, Note_on_c, 2, 69, 80
2, 68273, Note_on_c, 2, 69, 0
2, 68280, Note_on_c, 2, 76, 80
2, 68621, Note_on_c, 2, 76, 0
2, 68640, Note_on_c, 2, 69, 80
2, 69095, Note_on_c, 2, 69, 0
2, 69360, Note_on_c, 2, 69, 80
2, 69587, Note_on_c, 2, 69, 0
2, 69600, Note_on_c, 2, 69, 80
2, 69827, Note_on_c, 2, 69, 0
2, 69840, Note_on_c, 2, 69, 80
2, 70067, Note_on_c, 2, 69, 0
2, 70080, Note_on_c, 2, 69, 80
2, 70193, Note_on_c, 2, 69, 0
2, 70200, Note_on_c, 2, 71, 80
2, 70313, Note_on_c, 2, 71, 0
2, 70320, Note_on_c, 2, 72, 80
2, 70433, Note_on_c, 2, 72, 0
2, 70440, Note_on_c, 2, 71, 80
2, 70553, Note_on_c, 2, 71, 0
2, 70560, Note_on_c, 2, 69, 80
2, 71015, Note_on_c, 2, 69, 0
2, 71040, Note_on_c, 2, 69, 80
2, 71153, Note_on_c, 2, 69, 0
2, 71160, Note_on_c, 2, 76, 80
2, 71501, Note_on_c, 2, 76, 0
2, 71520, Note_on_c, 2, 69, 80
2, 71633, Note_on_c, 2, 69, 0
2, 71640, Note_on_c, 2, 76, 80
2, 71981, Note_on_c, 2, 76, 0
2, 72000, Note_on_c, 2, 69, 80
2, 72113, Note_on_c, 2, 69, 0
2, 72120, Note_on_c, 2, 76, 80
2, 72461, Note_on_c, 2, 76, 0
2, 72480, Note_on_c, 2, 69, 80
2, 72935, Note_on_c, 2, 69, 0
2, 73440, Note_on_c, 2, 77, 80
2, 73553, Note_on_c, 2, 77, 0
2, 73560, Note_on_c, 2, 77, 80
2, 73787, Note_on_c, 2, 77, 0
2, 73800, Note_on_c, 2, 76, 80
2, 74141, Note_on_c, 2, 76, 0
2, 74160, Note_on_c, 2, 72, 80
2, 74387, Note_on_c, 2, 72, 0
2, 74400, Note_on_c, 2, 72, 80
2, 74513, Note_on_c, 2, 72, 0
2, 74520, Note_on_c, 2, 72, 80
2, 74747, Note_on_c, 2, 72, 0
2, 74760, Note_on_c, 2, 72, 80
2, 75101, Note_on_c, 2, 72, 0
2, 75120, Note_on_c, 2, 69, 80
2, 75347, Note_on_c, 2, 69, 0
2, 75360, Note_on_c, 2, 69, 80
2, 75473, Note_on_c, 2, 69, 0
2, 75480, Note_on_c, 2, 72, 80
2, 75821, Note_on_c, 2, 72, 0
2, 75840, Note_on_c, 2, 74, 80
2, 76295, Note_on_c, 2, 74, 0
2, 77280, Note_on_c, 2, 77, 80
2, 77393, Note_on_c, 2, 77, 0
2, 77400, Note_on_c, 2, 77, 80
2, 77627, Note_on_c, 2, 77, 0
2, 77640, Note_on_c, 2, 76, 80
2, 77981, Note_on_c, 2, 76, 0
2, 78000, Note_on_c, 2, 72, 80
2, 78227, Note_on_c, 2, 72, 0
2, 78240, Note_on_c, 2, 72, 80
2, 78353, Note_on_c, 2, 72, 0
2, 78360, Note_on_c, 2, 72, 80
2, 78587, Note_on_c, 2, 72, 0
2, 78600, Note_on_c, 2, 72, 80
2, 78941, Note_on_c, 2, 72, 0
2, 78960, Note_on_c, 2, 69, 80
2, 79187, Note_on_c, 2, 69, 0
2, 79200, Note_on_c, 2, 69, 80
2, 79313, Note_on_c, 2, 69, 0
2, 79320, Note_on_c, 2, 72, 80
2, 79661, Note_on_c, 2, 72, 0
2, 79680, Note_on_c, 2, 74, 80
2, 80135, Note_on_c, 2, 74, 0
2, 81120, Note_on_c, 2, 84, 80
2, 81233, Note_on_c, 2, 84, 0
2, 81240, Note_on_c, 2, 84, 80
2, 81467, Note_on_c, 2, 84, 0
2, 81480, Note_on_c, 2, 83, 80
2, 81707, Note_on_c, 2, 83, 0
2, 81720, Note_on_c, 2, 81, 80
2, 82061, Note_on_c, 2, 81, 0
2, 82080, Note_on_c, 2, 76, 80
2, 82193, Note_on_c, 2, 76, 0
2, 82200, Note_on_c, 2, 76, 80
2, 82427, Note_on_c, 2, 76, 0
2, 82440, Note_on_c, 2, 76, 80
2, 82667, Note_on_c, 2, 76, 0
2, 82680, Note_on_c, 2, 74, 80
2, 83021, Note_on_c, 2, 74, 0
2, 83040, Note_on_c, 2, 69, 80
2, 83153, Note_on_c, 2, 69, 0
2, 83160, Note_on_c, 2, 72, 80
2, 83501, Note_on_c, 2, 72, 0
2, 83520, Note_on_c, 2, 74, 80
2, 83975, Note_on_c, 2, 74, 0
2, 84960, Note_on_c, 2, 77, 80
2, 85073, Note_on_c, 2, 77, 0
2, 85080, Note_on_c, 2, 77, 80
2, 85307, Note_on_c, 2, 77, 0
2, 85320, Note_on_c, 2, 76, 80
2, 85661, Note_on_c, 2, 76, 0
2, 85680, Note_on_c, 2, 72, 80
2, 85907, Note_on_c, 2, 72, 0
2, 85920, Note_on_c, 2, 72, 80
2, 86033, Note_on_c, 2, 72, 0
2, 86040, Note_on_c, 2, 72, 80
2, 86267, Note_on_c, 2, 72, 0
2, 86280, Note_on_c, 2, 72, 80
2, 86621, Note_on_c, 2, 72, 0
2, 86640, Note_on_c, 2, 69, 80
2, 86867, Note_on_c, 2, 69, 0
2, 86880, Note_on_c, 2, 72, 80
2, 87061, Note_on_c, 2, 72, 0
2, 87072, Note_on_c, 2, 72, 80
2, 87207, Note_on_c, 2, 72, 0
2, 87216, Note_on_c, 2, 69, 80
2, 87351, Note_on_c, 2, 69, 0
2, 87360, Note_on_c, 2, 72, 80
2, 87539, Note_on_c, 2, 72, 0
2, 87780, Note_on_c, 2, 76, 80
2, 87836, Note_on_c, 2, 76, 0
2, 87840, Note_on_c, 2, 76, 80
2, 87953, Note_on_c, 2, 76, 0
2, 88020, Note_on_c, 2, 76, 80
2, 88076, Note_on_c, 2, 76, 0
2, 88080, Note_on_c, 2, 76, 80
2, 88193, Note_on_c, 2, 76, 0
2, 88260, Note_on_c, 2, 74, 80
2, 88316, Note_on_c, 2, 74, 0
2, 88320, Note_on_c, 2, 76, 80
2, 88501, Note_on_c, 2, 76, 0
2, 88512, Note_on_c, 2, 72, 80
2, 88738, Note_on_c, 2, 72, 0
2, 88752, Note_on_c, 2, 76, 80
2, 88796, Note_on_c, 2, 76, 0
2, 88800, Note_on_c, 2, 76, 80
2, 88913, Note_on_c, 2, 76, 0
2, 88980, Note_on_c, 2, 76, 80
2, 89036, Note_on_c, 2, 76, 0
2, 89040, Note_on_c, 2, 76, 80
2, 89153, Note_on_c, 2, 76, 0
2, 89220, Note_on_c, 2, 74, 80
2, 89276, Note_on_c, 2, 74, 0
2, 89280, Note_on_c, 2, 76, 80
2, 89519, Note_on_c, 2, 76, 0
2, 89760, Note_on_c, 2, 76, 80
2, 89873, Note_on_c, 2, 76, 0
2, 89940, Note_on_c, 2, 76, 80
2, 89996, Note_on_c, 2, 76, 0
2, 90000, Note_on_c, 2, 76, 80
2, 90113, Note_on_c, 2, 76, 0
2, 90180, Note_on_c, 2, 74, 80
2, 90236, Note_on_c, 2, 74, 0
2, 90240, Note_on_c, 2, 76, 80
2, 90421, Note_on_c, 2, 76, 0
2, 90432, Note_on_c, 2, 72, 80
2, 90658, Note_on_c, 2, 72, 0
2, 90672, Note_on_c, 2, 76, 80
2, 90716, Note_on_c, 2, 76, 0
2, 90720, Note_on_c, 2, 79, 80
2, 90833, Note_on_c, 2, 79, 0
2, 90900, Note_on_c, 2, 77, 80
2, 90956, Note_on_c, 2, 77, 0
2, 90960, Note_on_c, 2, 76, 80
2, 91073, Note_on_c, 2, 76, 0
2, 91140, Note_on_c, 2, 74, 80
2, 91196, Note_on_c, 2, 74, 0
2, 91200, Note_on_c, 2, 76, 80
2, 91379, Note_on_c, 2, 76, 0
2, 91620, Note_on_c, 2, 76, 80
2, 91676, Note_on_c, 2, 76, 0
2, 91680, Note_on_c, 2, 76, 80
2, 91793, Note_on_c, 2, 76, 0
2, 91860, Note_on_c, 2, 76, 80
2, 91916, Note_on_c, 2, 76, 0
2, 91920, Note_on_c, 2, 76, 80
2, 92033, Note_on_c, 2, 76, 0
2, 92100, Note_on_c, 2, 74, 80
2, 92156, Note_on_c, 2, 74, 0
2, 92160, Note_on_c, 2, 76, 80
2, 92341, Note_on_c, 2, 76, 0
2, 92352, Note_on_c, 2, 72, 80
2, 92578, Note_on_c, 2, 72, 0
2, 92592, Note_on_c, 2, 76, 80
2, 92636, Note_on_c, 2, 76, 0
2, 92640, Note_on_c, 2, 76, 80
2, 92753, Note_on_c, 2, 76, 0
2, 92820, Note_on_c, 2, 76, 80
2, 92876, Note_on_c, 2, 76, 0
2, 92880, Note_on_c, 2, 76, 80
2, 92993, Note_on_c, 2, 76, 0
2, 93060, Note_on_c, 2, 74, 80
2, 93116, Note_on_c, 2, 74, 0
2, 93120, Note_on_c, 2, 76, 80
2, 93359, Note_on_c, 2, 76, 0
2, 93600, Note_on_c, 2, 76, 80
2, 93713, Note_on_c, 2, 76, 0
2, 93780, Note_on_c, 2, 76, 80
2, 93836, Note_on_c, 2, 76, 0
2, 93840, Note_on_c, 2, 76, 80
2, 93953, Note_on_c, 2, 76, 0
2, 94020, Note_on_c, 2, 74, 80
2, 94076, Note_on_c, 2, 74, 0
2, 94080, Note_on_c, 2, 76, 80
2, 94261, Note_on_c, 2, 76, 0
2, 94272, Note_on_c, 2, 72, 80
2, 94498, Note_on_c, 2, 72, 0
2, 94512, Note_on_c, 2, 76, 80
2, 94556, Note_on_c, 2, 76, 0
2, 94560, Note_on_c, 2, 79, 80
2, 94673, Note_on_c, 2, 79, 0
2, 94740, Note_on_c, 2, 77, 80
2, 94796, Note_on_c, 2, 77, 0
2, 94800, Note_on_c, 2, 76, 80
2, 94913, Note_on_c, 2, 76, 0
2, 94980, Note_on_c, 2, 74, 80
2, 95036, Note_on_c, 2, 74, 0
2, 95040, Note_on_c, 2, 76, 80
2, 95219, Note_on_c, 2, 76, 0
2, 95460, Note_on_c, 2, 76, 80
2, 95516, Note_on_c, 2, 76, 0
2, 95520, Note_on_c, 2, 76, 80
2, 95633, Note_on_c, 2, 76, 0
2, 95700, Note_on_c, 2, 76, 80
2, 95756, Note_on_c, 2, 76, 0
2, 95760, Note_on_c, 2, 76, 80
2, 95873, Note_on_c, 2, 76, 0
2, 95940, Note_on_c, 2, 74, 80
2, 95996, Note_on_c, 2, 74, 0
2, 96000, Note_on_c, 2, 76, 80
2, 96181, Note_on_c, 2, 76, 0
2, 96192, Note_on_c, 2, 72, 80
2, 96418, Note_on_c, 2, 72, 0
2, 96432, Note_on_c, 2, 76, 80
2, 96476, Note_on_c, 2, 76, 0
2, 96480, Note_on_c, 2, 76, 80
2, 96593, Note_on_c, 2, 76, 0
2, 96660, Note_on_c, 2, 76, 80
2, 96716, Note_on_c, 2, 76, 0
2, 96720, Note_on_c, 2, 76, 80
2, 96833, Note_on_c, 2, 76, 0
2, 96900, Note_on_c, 2, 74, 80
2, 96956, Note_on_c, 2, 74, 0
2, 96960, Note_on_c, 2, 76, 80
2, 97199, Note_on_c, 2, 76, 0
2, 97440, Note_on_c, 2, 76, 80
2, 97553, Note_on_c, 2, 76, 0
2, 97620, Note_on_c, 2, 76, 80
2, 97676, Note_on_c, 2, 76, 0
2, 97680, Note_on_c, 2, 76, 80
2, 97793, Note_on_c, 2, 76, 0
2, 97860, Note_on_c, 2, 74, 80
2, 97916, Note_on_c, 2, 74, 0
2, 97920, Note_on_c, 2, 76, 80
2, 98101, Note_on_c, 2, 76, 0
2, 98112, Note_on_c, 2, 72, 80
2, 98338, Note_on_c, 2, 72, 0
2, 98352, Note_on_c, 2, 76, 80
2, 98396, Note_on_c, 2, 76, 0
2, 98400, Note_on_c, 2, 79, 80
2, 98513, Note_on_c, 2, 79, 0
2, 98580, Note_on_c, 2, 77, 80
2, 98636, Note_on_c, 2, 77, 0
2, 98640, Note_on_c, 2, 76, 80
2, 98753, Note_on_c, 2, 76, 0
2, 98820, Note_on_c, 2, 74, 80
2, 98876, Note_on_c, 2, 74, 0
2, 98880, Note_on_c, 2, 76, 80
2, 99059, Note_on_c, 2, 76, 0
2, 99300, Note_on_c, 2, 76, 80
2, 99356, Note_on_c, 2, 76, 0
2, 99360, Note_on_c, 2, 76, 80
2, 99473, Note_on_c, 2, 76, 0
2, 99540, Note_on_c, 2, 76, 80
2, 99596, Note_on_c, 2, 76, 0
2, 99600, Note_on_c, 2, 76, 80
2, 99713, Note_on_c, 2, 76, 0
2, 99780, Note_on_c, 2, 74, 80
2, 99836, Note_on_c, 2, 74, 0
2, 99840, Note_on_c, 2, 76, 80
2, 100021, Note_on_c, 2, 76, 0
2, 100032, Note_on_c, 2, 72, 80
2, 100258, Note_on_c, 2, 72, 0
2, 100272, Note_on_c, 2, 76, 80
2, 100316, Note_on_c, 2, 76, 0
2, 100320, Note_on_c, 2, 76, 80
2, 100433, Note_on_c, 2, 76, 0
2, 100500, Note_on_c, 2, 76, 80
2, 100556, Note_on_c, 2, 76, 0
2, 100560, Note_on_c, 2, 76, 80
2, 100673, Note_on_c, 2, 76, 0
2, 100740, Note_on_c, 2, 74, 80
2, 100796, Note_on_c, 2, 74, 0
2, 100800, Note_on_c, 2, 76, 80
2, 101039, Note_on_c, 2, 76, 0
2, 101280, Note_on_c, 2, 76, 80
2, 101393, Note_on_c, 2, 76, 0
2, 101460, Note_on_c, 2, 76, 80
2, 101516, Note_on_c, 2, 76, 0
2, 101520, Note_on_c, 2, 76, 80
2, 101633, Note_on_c, 2, 76, 0
2, 101700, Note_on_c, 2, 74, 80
2, 101756, Note_on_c, 2, 74, 0
2, 101760, Note_on_c, 2, 76, 80
2, 101941, Note_on_c, 2, 76, 0
2, 101952, Note_on_c, 2, 72, 80
2, 102178, Note_on_c, 2, 72, 0
2, 102192, Note_on_c, 2, 76, 80
2, 102236, Note_on_c, 2, 76, 0
2, 102240, Note_on_c, 2, 79, 80
2, 102353, Note_on_c, 2, 79, 0
2, 102420, Note_on_c, 2, 77, 80
2, 102476, Note_on_c, 2, 77, 0
2, 102480, Note_on_c, 2, 76, 80
2, 102593, Note_on_c, 2, 76, 0
2, 102660, Note_on_c, 2, 74, 80
2, 102716, Note_on_c, 2, 74, 0
2, 102720, Note_on_c, 2, 76, 80
2, 102959, Note_on_c, 2, 76, 0
2, 104160, Note_on_c, 2, 77, 80
2, 104273, Note_on_c, 2, 77, 0
2, 104280, Note_on_c, 2, 77, 80
2, 104507, Note_on_c, 2, 77, 0
2, 104520, Note_on_c, 2, 76, 80
2, 104861, Note_on_c, 2, 76, 0
2, 104880, Note_on_c, 2, 72, 80
2, 105107, Note_on_c, 2, 72, 0
2, 105120, Note_on_c, 2, 72, 80
2, 105233, Note_on_c, 2, 72, 0
2, 105240, Note_on_c, 2, 72, 80
2, 105467, Note_on_c, 2, 72, 0
2, 105480, Note_on_c, 2, 72, 80
2, 105821, Note_on_c, 2, 72, 0
2, 105840, Note_on_c, 2, 69, 80
2, 106067, Note_on_c, 2, 69, 0
2, 106080, Note_on_c, 2, 69, 80
2, 106193, Note_on_c, 2, 69, 0
2, 106200, Note_on_c, 2, 72, 80
2, 106541, Note_on_c, 2, 72, 0
2, 106560, Note_on_c, 2, 74, 80
2, 107015, Note_on_c, 2, 74, 0
2, 108000, Note_on_c, 2, 77, 80
2, 108113, Note_on_c, 2, 77, 0
2, 108120, Note_on_c, 2, 77, 80
2, 108347, Note_on_c, 2, 77, 0
2, 108360, Note_on_c, 2, 76, 80
2, 108701, Note_on_c, 2, 76, 0
2, 108720, Note_on_c, 2, 72, 80
2, 108947, Note_on_c, 2, 72, 0
2, 108960, Note_on_c, 2, 72, 80
2, 109073, Note_on_c, 2, 72, 0
2, 109080, Note_on_c, 2, 72, 80
2, 109307, Note_on_c, 2, 72, 0
2, 109320, Note_on_c, 2, 77, 80
2, 109661, Note_on_c, 2, 77, 0
2, 109680, Note_on_c, 2, 76, 80
2, 109907, Note_on_c, 2, 76, 0
2, 109920, Note_on_c, 2, 76, 80
2, 110033, Note_on_c, 2, 76, 0
2, 110040, Note_on_c, 2, 74, 80
2, 110267, Note_on_c, 2, 74, 0
2, 110280, Note_on_c, 2, 76, 80
2, 110849, Note_on_c, 2, 76, 0
2, 111840, Note_on_c, 2, 84, 80
2, 111953, Note_on_c, 2, 84, 0
2, 111960, Note_on_c, 2, 84, 80
2, 112187, Note_on_c, 2, 84, 0
2, 112200, Note_on_c, 2, 83, 80
2, 112427, Note_on_c, 2, 83, 0
2, 112440, Note_on_c, 2, 81, 80
2, 112781, Note_on_c, 2, 81, 0
2, 112800, Note_on_c, 2, 84, 80
2, 112913, Note_on_c, 2, 84, 0
2, 112920, Note_on_c, 2, 84, 80
2, 113147, Note_on_c, 2, 84, 0
2, 113160, Note_on_c, 2, 83, 80
2, 113387, Note_on_c, 2, 83, 0
2, 113400, Note_on_c, 2, 81, 80
2, 113741, Note_on_c, 2, 81, 0
2, 113760, Note_on_c, 2, 81, 80
2, 113873, Note_on_c, 2, 81, 0
2, 113880, Note_on_c, 2, 79, 80
2, 114221, Note_on_c, 2, 79, 0
2, 114240, Note_on_c, 2, 81, 80
2, 114695, Note_on_c, 2, 81, 0
2, 115680, Note_on_c, 2, 77, 80
2, 115793, Note_on_c, 2, 77, 0
2, 115800, Note_on_c, 2, 77, 80
2, 116027, Note_on_c, 2, 77, 0
2, 116040, Note_on_c, 2, 76, 80
2, 116381, Note_on_c, 2, 76, 0
2, 116400, Note_on_c, 2, 72, 80
2, 116627, Note_on_c, 2, 72, 0
2, 116640, Note_on_c, 2, 72, 80
2, 116753, Note_on_c, 2, 72, 0
2, 116760, Note_on_c, 2, 72, 80
2, 116987, Note_on_c, 2, 72, 0
2, 117000, Note_on_c, 2, 72, 80
2, 117341, Note_on_c, 2, 72, 0
2, 117360, Note_on_c, 2, 69, 80
2, 117587, Note_on_c, 2, 69, 0
2, 117600, Note_on_c, 2, 72, 80
2, 117781, Note_on_c, 2, 72, 0
2, 117792, Note_on_c, 2, 72, 80
2, 117927, Note_on_c, 2, 72, 0
2, 117936, Note_on_c, 2, 69, 80
2, 118071, Note_on_c, 2, 69, 0
2, 118080, Note_on_c, 2, 72, 80
2, 118319, Note_on_c, 2, 72, 0
2, 118560, Note_on_c, 2, 72, 80
2, 118741, Note_on_c, 2, 72, 0
2, 118752, Note_on_c, 2, 72, 80
2, 118887, Note_on_c, 2, 72, 0
2, 118896, Note_on_c, 2, 69, 80
2, 119031, Note_on_c, 2, 69, 0
2, 119040, Note_on_c, 2, 72, 80
2, 119267, Note_on_c, 2, 72, 0
2, 119280, Note_on_c, 2, 69, 80
2, 119507, Note_on_c, 2, 69, 0
2, 119520, Note_on_c, 2, 72, 80
2, 119747, Note_on_c, 2, 72, 0
2, 119760, Note_on_c, 2, 69, 80
2, 119987, Note_on_c, 2, 69, 0
2, 120000, Note_on_c, 2, 77, 80
2, 120227, Note_on_c, 2, 77, 0
2, 120240, Note_on_c, 2, 77, 80
2, 120467, Note_on_c, 2, 77, 0
2, 120480, Note_on_c, 2, 76, 80
2, 120707, Note_on_c, 2, 76, 0
2, 120720, Note_on_c, 2, 72, 80
2, 120947, Note_on_c, 2, 72, 0
2, 121200, Note_on_c, 2, 69, 80
2, 121427, Note_on_c, 2, 69, 0
2, 121440, Note_on_c, 2, 72, 80
2, 121667, Note_on_c, 2, 72, 0
2, 121680, Note_on_c, 2, 69, 80
2, 121907, Note_on_c, 2, 69, 0
2, 121920, Note_on_c, 2, 77, 80
2, 122147, Note_on_c, 2, 77, 0
2, 122160, Note_on_c, 2, 77, 80
2, 122387, Note_on_c, 2, 77, 0
2, 122400, Note_on_c, 2, 76, 80
2, 122627, Note_on_c, 2, 76, 0
2, 122640, Note_on_c, 2, 72, 80
2, 122867, Note_on_c, 2, 72, 0
2, 122868, End_track
3, 0, Start_track
3, 0, Title_t, "Electric Bass, Bass\000"
3, 0, Key_signature, 0, "major"
3, 0, Control_c, 4, 121, 0
3, 0, Program_c, 4, 33
3, 0, Control_c, 4, 7, 100
3, 0, Control_c, 4, 10, 64
3, 0, Control_c, 4, 91, 0
3, 0, Control_c, 4, 93, 0
3, 0, MIDI_port, 0
3, 0, Control_c, 1, 121, 0
3, 0, Program_c, 1, 36
3, 0, Control_c, 1, 7, 100
3, 0, Control_c, 1, 10, 64
3, 0, Control_c, 1, 91, 0
3, 0, Control_c, 1, 93, 0
3, 0, MIDI_port, 0
3, 0, Control_c, 5, 121, 0
3, 0, Program_c, 5, 37
3, 0, Control_c, 5, 7, 100
3, 0, Control_c, 5, 10, 64
3, 0, Control_c, 5, 91, 0
3, 0, Control_c, 5, 93, 0
3, 0, MIDI_port, 0
3, 3840, Note_on_c, 4, 53, 80
3, 4799, Note_on_c, 4, 53, 0
3, 4800, Note_on_c, 4, 52, 80
3, 5759, Note_on_c, 4, 52, 0
3, 5760, Note_on_c, 4, 57, 80
3, 7679, Note_on_c, 4, 57, 0
3, 7680, Note_on_c, 4, 53, 80
3, 8639, Note_on_c, 4, 53, 0
3, 8640, Note_on_c, 4, 52, 80
3, 9599, Note_on_c, 4, 52, 0
3, 9600, Note_on_c, 4, 57, 80
3, 11519, Note_on_c, 4, 57, 0
3, 11520, Note_on_c, 4, 53, 80
3, 12479, Note_on_c, 4, 53, 0
3, 12480, Note_on_c, 4, 52, 80
3, 13439, Note_on_c, 4, 52, 0
3, 13440, Note_on_c, 4, 57, 80
3, 15359, Note_on_c, 4, 57, 0
3, 15360, Note_on_c, 4, 53, 80
3, 16319, Note_on_c, 4, 53, 0
3, 16320, Note_on_c, 4, 52, 80
3, 17279, Note_on_c, 4, 52, 0
3, 17280, Note_on_c, 4, 57, 80
3, 19199, Note_on_c, 4, 57, 0
3, 19200, Note_on_c, 4, 53, 80
3, 20159, Note_on_c, 4, 53, 0
3, 20160, Note_on_c, 4, 52, 80
3, 21119, Note_on_c, 4, 52, 0
3, 21120, Note_on_c, 4, 57, 80
3, 23039, Note_on_c, 4, 57, 0
3, 23040, Note_on_c, 4, 53, 80
3, 23999, Note_on_c, 4, 53, 0
3, 24000, Note_on_c, 4, 52, 80
3, 24959, Note_on_c, 4, 52, 0
3, 24960, Note_on_c, 4, 57, 80
3, 26879, Note_on_c, 4, 57, 0
3, 26880, Note_on_c, 4, 53, 80
3, 27839, Note_on_c, 4, 53, 0
3, 27840, Note_on_c, 4, 52, 80
3, 28799, Note_on_c, 4, 52, 0
3, 28800, Note_on_c, 4, 57, 80
3, 30719, Note_on_c, 4, 57, 0
3, 30720, Note_on_c, 4, 53, 80
3, 31679, Note_on_c, 4, 53, 0
3, 31680, Note_on_c, 4, 52, 80
3, 32639, Note_on_c, 4, 52, 0
3, 32640, Note_on_c, 4, 57, 80
3, 34559, Note_on_c, 4, 57, 0
3, 34560, Note_on_c, 4, 65, 80
3, 35519, Note_on_c, 4, 65, 0
3, 35520, Note_on_c, 4, 64, 80
3, 36479, Note_on_c, 4, 64, 0
3, 36480, Note_on_c, 4, 57, 80
3, 38399, Note_on_c, 4, 57, 0
3, 38400, Note_on_c, 4, 65, 80
3, 39359, Note_on_c, 4, 65, 0
3, 39360, Note_on_c, 4, 64, 80
3, 40319, Note_on_c, 4, 64, 0
3, 40320, Note_on_c, 4, 57, 80
3, 42239, Note_on_c, 4, 57, 0
3, 42240, Note_on_c, 4, 65, 80
3, 43199, Note_on_c, 4, 65, 0
3, 43200, Note_on_c, 4, 64, 80
3, 44159, Note_on_c, 4, 64, 0
3, 44160, Note_on_c, 4, 57, 80
3, 46079, Note_on_c, 4, 57, 0
3, 46080, Note_on_c, 4, 65, 80
3, 47039, Note_on_c, 4, 65, 0
3, 47040, Note_on_c, 4, 64, 80
3, 47999, Note_on_c, 4, 64, 0
3, 48000, Note_on_c, 4, 57, 80
3, 49919, Note_on_c, 4, 57, 0
3, 49920, Note_on_c, 4, 53, 80
3, 50279, Note_on_c, 4, 53, 0
3, 50280, Note_on_c, 4, 53, 80
3, 50639, Note_on_c, 4, 53, 0
3, 50640, Note_on_c, 4, 53, 80
3, 50879, Note_on_c, 4, 53, 0
3, 50880, Note_on_c, 4, 52, 80
3, 51239, Note_on_c, 4, 52, 0
3, 51240, Note_on_c, 4, 52, 80
3, 51599, Note_on_c, 4, 52, 0
3, 51600, Note_on_c, 4, 52, 80
3, 51839, Note_on_c, 4, 52, 0
3, 51840, Note_on_c, 4, 57, 80
3, 52199, Note_on_c, 4, 57, 0
3, 52200, Note_on_c, 4, 57, 80
3, 52559, Note_on_c, 4, 57, 0
3, 52560, Note_on_c, 4, 57, 80
3, 52799, Note_on_c, 4, 57, 0
3, 52800, Note_on_c, 4, 57, 80
3, 53159, Note_on_c, 4, 57, 0
3, 53160, Note_on_c, 4, 57, 80
3, 53519, Note_on_c, 4, 57, 0
3, 53520, Note_on_c, 4, 57, 80
3, 53759, Note_on_c, 4, 57, 0
3, 53760, Note_on_c, 4, 53, 80
3, 54119, Note_on_c, 4, 53, 0
3, 54120, Note_on_c, 4, 53, 80
3, 54479, Note_on_c, 4, 53, 0
3, 54480, Note_on_c, 4, 53, 80
3, 54719, Note_on_c, 4, 53, 0
3, 54720, Note_on_c, 4, 52, 80
3, 55079, Note_on_c, 4, 52, 0
3, 55080, Note_on_c, 4, 52, 80
3, 55439, Note_on_c, 4, 52, 0
3, 55440, Note_on_c, 4, 52, 80
3, 55679, Note_on_c, 4, 52, 0
3, 55680, Note_on_c, 4, 57, 80
3, 56039, Note_on_c, 4, 57, 0
3, 56040, Note_on_c, 4, 57, 80
3, 56399, Note_on_c, 4, 57, 0
3, 56400, Note_on_c, 4, 57, 80
3, 56639, Note_on_c, 4, 57, 0
3, 56640, Note_on_c, 4, 57, 80
3, 56999, Note_on_c, 4, 57, 0
3, 57000, Note_on_c, 4, 57, 80
3, 57359, Note_on_c, 4, 57, 0
3, 57360, Note_on_c, 4, 57, 80
3, 57599, Note_on_c, 4, 57, 0
3, 57600, Note_on_c, 4, 65, 80
3, 58559, Note_on_c, 4, 65, 0
3, 58560, Note_on_c, 4, 64, 80
3, 59519, Note_on_c, 4, 64, 0
3, 59520, Note_on_c, 4, 57, 80
3, 60239, Note_on_c, 4, 57, 0
3, 60240, Note_on_c, 4, 57, 80
3, 60959, Note_on_c, 4, 57, 0
3, 60960, Note_on_c, 4, 57, 80
3, 61439, Note_on_c, 4, 57, 0
3, 61440, Note_on_c, 4, 65, 80
3, 62399, Note_on_c, 4, 65, 0
3, 62400, Note_on_c, 4, 64, 80
3, 63359, Note_on_c, 4, 64, 0
3, 63360, Note_on_c, 4, 57, 80
3, 64079, Note_on_c, 4, 57, 0
3, 64080, Note_on_c, 4, 57, 80
3, 64799, Note_on_c, 4, 57, 0
3, 64800, Note_on_c, 4, 57, 80
3, 65279, Note_on_c, 4, 57, 0
3, 65280, Note_on_c, 4, 65, 80
3, 66239, Note_on_c, 4, 65, 0
3, 66240, Note_on_c, 4, 64, 80
3, 67199, Note_on_c, 4, 64, 0
3, 67200, Note_on_c, 4, 57, 80
3, 67919, Note_on_c, 4, 57, 0
3, 67920, Note_on_c, 4, 57, 80
3, 68639, Note_on_c, 4, 57, 0
3, 68640, Note_on_c, 4, 57, 80
3, 69119, Note_on_c, 4, 57, 0
3, 69120, Note_on_c, 4, 65, 80
3, 70079, Note_on_c, 4, 65, 0
3, 70080, Note_on_c, 4, 64, 80
3, 71039, Note_on_c, 4, 64, 0
3, 71040, Note_on_c, 4, 57, 80
3, 71759, Note_on_c, 4, 57, 0
3, 71760, Note_on_c, 4, 57, 80
3, 72479, Note_on_c, 4, 57, 0
3, 72480, Note_on_c, 4, 57, 80
3, 72959, Note_on_c, 4, 57, 0
3, 72960, Note_on_c, 4, 65, 80
3, 73919, Note_on_c, 4, 65, 0
3, 73920, Note_on_c, 4, 64, 80
3, 74879, Note_on_c, 4, 64, 0
3, 74880, Note_on_c, 4, 57, 80
3, 75599, Note_on_c, 4, 57, 0
3, 75600, Note_on_c, 4, 57, 80
3, 76319, Note_on_c, 4, 57, 0
3, 76320, Note_on_c, 4, 57, 80
3, 76799, Note_on_c, 4, 57, 0
3, 76800, Note_on_c, 4, 65, 80
3, 77759, Note_on_c, 4, 65, 0
3, 77760, Note_on_c, 4, 64, 80
3, 78719, Note_on_c, 4, 64, 0
3, 78720, Note_on_c, 4, 57, 80
3, 79439, Note_on_c, 4, 57, 0
3, 79440, Note_on_c, 4, 57, 80
3, 80159, Note_on_c, 4, 57, 0
3, 80160, Note_on_c, 4, 57, 80
3, 80639, Note_on_c, 4, 57, 0
3, 80640, Note_on_c, 4, 65, 80
3, 81599, Note_on_c, 4, 65, 0
3, 81600, Note_on_c, 4, 64, 80
3, 82559, Note_on_c, 4, 64, 0
3, 82560, Note_on_c, 4, 57, 80
3, 83279, Note_on_c, 4, 57, 0
3, 83280, Note_on_c, 4, 57, 80
3, 83999, Note_on_c, 4, 57, 0
3, 84000, Note_on_c, 4, 57, 80
3, 84479, Note_on_c, 4, 57, 0
3, 84480, Note_on_c, 4, 65, 80
3, 85439, Note_on_c, 4, 65, 0
3, 85440, Note_on_c, 4, 64, 80
3, 86399, Note_on_c, 4, 64, 0
3, 86400, Note_on_c, 4, 57, 80
3, 87119, Note_on_c, 4, 57, 0
3, 87120, Note_on_c, 4, 57, 80
3, 87839, Note_on_c, 4, 57, 0
3, 87840, Note_on_c, 4, 57, 80
3, 88319, Note_on_c, 4, 57, 0
3, 88320, Note_on_c, 4, 65, 80
3, 89279, Note_on_c, 4, 65, 0
3, 89280, Note_on_c, 4, 64, 80
3, 90239, Note_on_c, 4, 64, 0
3, 90240, Note_on_c, 4, 57, 80
3, 92159, Note_on_c, 4, 57, 0
3, 92160, Note_on_c, 4, 65, 80
3, 93119, Note_on_c, 4, 65, 0
3, 93120, Note_on_c, 4, 64, 80
3, 94079, Note_on_c, 4, 64, 0
3, 94080, Note_on_c, 4, 57, 80
3, 95999, Note_on_c, 4, 57, 0
3, 96000, Note_on_c, 4, 65, 80
3, 96959, Note_on_c, 4, 65, 0
3, 96960, Note_on_c, 4, 64, 80
3, 97919, Note_on_c, 4, 64, 0
3, 97920, Note_on_c, 4, 57, 80
3, 99839, Note_on_c, 4, 57, 0
3, 99840, Note_on_c, 4, 65, 80
3, 100799, Note_on_c, 4, 65, 0
3, 100800, Note_on_c, 4, 64, 80
3, 101759, Note_on_c, 4, 64, 0
3, 101760, Note_on_c, 4, 57, 80
3, 102479, Note_on_c, 4, 57, 0
3, 102480, Note_on_c, 4, 57, 80
3, 103199, Note_on_c, 4, 57, 0
3, 103200, Note_on_c, 4, 57, 80
3, 103679, Note_on_c, 4, 57, 0
3, 103680, Note_on_c, 4, 53, 80
3, 104039, Note_on_c, 4, 53, 0
3, 104040, Note_on_c, 4, 53, 80
3, 104399, Note_on_c, 4, 53, 0
3, 104400, Note_on_c, 4, 53, 80
3, 104639, Note_on_c, 4, 53, 0
3, 104640, Note_on_c, 4, 52, 80
3, 104999, Note_on_c, 4, 52, 0
3, 105000, Note_on_c, 4, 52, 80
3, 105359, Note_on_c, 4, 52, 0
3, 105360, Note_on_c, 4, 52, 80
3, 105599, Note_on_c, 4, 52, 0
3, 105600, Note_on_c, 4, 57, 80
3, 105959, Note_on_c, 4, 57, 0
3, 105960, Note_on_c, 4, 57, 80
3, 106319, Note_on_c, 4, 57, 0
3, 106320, Note_on_c, 4, 57, 80
3, 106559, Note_on_c, 4, 57, 0
3, 106560, Note_on_c, 4, 57, 80
3, 106919, Note_on_c, 4, 57, 0
3, 106920, Note_on_c, 4, 57, 80
3, 107279, Note_on_c, 4, 57, 0
3, 107280, Note_on_c, 4, 57, 80
3, 107519, Note_on_c, 4, 57, 0
3, 107520, Note_on_c, 4, 53, 80
3, 107879, Note_on_c, 4, 53, 0
3, 107880, Note_on_c, 4, 53, 80
3, 108239, Note_on_c, 4, 53, 0
3, 108240, Note_on_c, 4, 53, 80
3, 108479, Note_on_c, 4, 53, 0
3, 108480, Note_on_c, 4, 52, 80
3, 108839, Note_on_c, 4, 52, 0
3, 108840, Note_on_c, 4, 52, 80
3, 109199, Note_on_c, 4, 52, 0
3, 109200, Note_on_c, 4, 52, 80
3, 109439, Note_on_c, 4, 52, 0
3, 109440, Note_on_c, 4, 57, 80
3, 109799, Note_on_c, 4, 57, 0
3, 109800, Note_on_c, 4, 57, 80
3, 110159, Note_on_c, 4, 57, 0
3, 110160, Note_on_c, 4, 57, 80
3, 110399, Note_on_c, 4, 57, 0
3, 110400, Note_on_c, 4, 57, 80
3, 110759, Note_on_c, 4, 57, 0
3, 110760, Note_on_c, 4, 57, 80
3, 111119, Note_on_c, 4, 57, 0
3, 111120, Note_on_c, 4, 57, 80
3, 111359, Note_on_c, 4, 57, 0
3, 111360, Note_on_c, 4, 53, 80
3, 111719, Note_on_c, 4, 53, 0
3, 111720, Note_on_c, 4, 53, 80
3, 112079, Note_on_c, 4, 53, 0
3, 112080, Note_on_c, 4, 53, 80
3, 112319, Note_on_c, 4, 53, 0
3, 112320, Note_on_c, 4, 52, 80
3, 112679, Note_on_c, 4, 52, 0
3, 112680, Note_on_c, 4, 52, 80
3, 113039, Note_on_c, 4, 52, 0
3, 113040, Note_on_c, 4, 52, 80
3, 113279, Note_on_c, 4, 52, 0
3, 113280, Note_on_c, 4, 57, 80
3, 113639, Note_on_c, 4, 57, 0
3, 113640, Note_on_c, 4, 57, 80
3, 113999, Note_on_c, 4, 57, 0
3, 114000, Note_on_c, 4, 57, 80
3, 114239, Note_on_c, 4, 57, 0
3, 114240, Note_on_c, 4, 57, 80
3, 114599, Note_on_c, 4, 57, 0
3, 114600, Note_on_c, 4, 57, 80
3, 114959, Note_on_c, 4, 57, 0
3, 114960, Note_on_c, 4, 57, 80
3, 115199, Note_on_c, 4, 57, 0
3, 115200, Note_on_c, 4, 53, 80
3, 115559, Note_on_c, 4, 53, 0
3, 115560, Note_on_c, 4, 53, 80
3, 115919, Note_on_c, 4, 53, 0
3, 115920, Note_on_c, 4, 53, 80
3, 116159, Note_on_c, 4, 53, 0
3, 116160, Note_on_c, 4, 52, 80
3, 116639, Note_on_c, 4, 52, 0
3, 116640, Note_on_c, 4, 52, 80
3, 117119, Note_on_c, 4, 52, 0
3, 117120, End_track
4, 0, Start_track
4, 0, Title_t, "Bell, Piano, right #2 (MIDI)\000"
4, 0, Key_signature, 0, "major"
4, 0, Control_c, 3, 121, 0
4, 0, Program_c, 3, 14
4, 0, Control_c, 3, 7, 100
4, 0, Control_c, 3, 10, 64
4, 0, Control_c, 3, 91, 0
4, 0, Control_c, 3, 93, 0
4, 0, MIDI_port, 0
4, 88320, Note_on_c, 3, 77, 80
4, 88320, Control_c, 3, 2, 80
4, 89279, Note_on_c, 3, 77, 0
4, 89280, Note_on_c, 3, 76, 80
4, 90239, Note_on_c, 3, 76, 0
4, 90240, Note_on_c, 3, 69, 80
4, 90719, Note_on_c, 3, 69, 0
4, 92160, Note_on_c, 3, 77, 80
4, 93119, Note_on_c, 3, 77, 0
4, 93120, Note_on_c, 3, 76, 80
4, 94079, Note_on_c, 3, 76, 0
4, 94080, Note_on_c, 3, 69, 80
4, 94559, Note_on_c, 3, 69, 0
4, 99840, Note_on_c, 3, 77, 80
4, 100799, Note_on_c, 3, 77, 0
4, 100800, Note_on_c, 3, 76, 80
4, 101759, Note_on_c, 3, 76, 0
4, 101760, Note_on_c, 3, 69, 80
4, 102239, Note_on_c, 3, 69, 0
4, 103680, Note_on_c, 3, 77, 80
4, 104039, Note_on_c, 3, 77, 0
4, 104040, Note_on_c, 3, 77, 80
4, 104399, Note_on_c, 3, 77, 0
4, 104400, Note_on_c, 3, 77, 80
4, 104639, Note_on_c, 3, 77, 0
4, 104640, Note_on_c, 3, 76, 80
4, 104999, Note_on_c, 3, 76, 0
4, 105000, Note_on_c, 3, 76, 80
4, 105359, Note_on_c, 3, 76, 0
4, 105360, Note_on_c, 3, 76, 80
4, 105599, Note_on_c, 3, 76, 0
4, 105600, Note_on_c, 3, 81, 80
4, 105959, Note_on_c, 3, 81, 0
4, 105960, Note_on_c, 3, 81, 80
4, 106319, Note_on_c, 3, 81, 0
4, 106320, Note_on_c, 3, 81, 80
4, 106559, Note_on_c, 3, 81, 0
4, 106560, Note_on_c, 3, 81, 80
4, 106919, Note_on_c, 3, 81, 0
4, 106920, Note_on_c, 3, 81, 80
4, 107279, Note_on_c, 3, 81, 0
4, 107280, Note_on_c, 3, 81, 80
4, 107519, Note_on_c, 3, 81, 0
4, 107520, Note_on_c, 3, 77, 80
4, 107879, Note_on_c, 3, 77, 0
4, 107880, Note_on_c, 3, 77, 80
4, 108239, Note_on_c, 3, 77, 0
4, 108240, Note_on_c, 3, 77, 80
4, 108479, Note_on_c, 3, 77, 0
4, 108480, Note_on_c, 3, 76, 80
4, 108839, Note_on_c, 3, 76, 0
4, 108840, Note_on_c, 3, 76, 80
4, 109199, Note_on_c, 3, 76, 0
4, 109200, Note_on_c, 3, 76, 80
4, 109439, Note_on_c, 3, 76, 0
4, 109440, Note_on_c, 3, 81, 80
4, 109799, Note_on_c, 3, 81, 0
4, 109800, Note_on_c, 3, 81, 80
4, 110159, Note_on_c, 3, 81, 0
4, 110160, Note_on_c, 3, 81, 80
4, 110399, Note_on_c, 3, 81, 0
4, 110400, Note_on_c, 3, 81, 80
4, 110759, Note_on_c, 3, 81, 0
4, 110760, Note_on_c, 3, 81, 80
4, 111119, Note_on_c, 3, 81, 0
4, 111120, Note_on_c, 3, 81, 80
4, 111359, Note_on_c, 3, 81, 0
4, 111360, Note_on_c, 3, 77, 80
4, 111719, Note_on_c, 3, 77, 0
4, 111720, Note_on_c, 3, 77, 80
4, 112079, Note_on_c, 3, 77, 0
4, 112080, Note_on_c, 3, 77, 80
4, 112319, Note_on_c, 3, 77, 0
4, 112320, Note_on_c, 3, 76, 80
4, 112679, Note_on_c, 3, 76, 0
4, 112680, Note_on_c, 3, 76, 80
4, 113039, Note_on_c, 3, 76, 0
4, 113040, Note_on_c, 3, 76, 80
4, 113279, Note_on_c, 3, 76, 0
4, 113280, Note_on_c, 3, 81, 80
4, 113639, Note_on_c, 3, 81, 0
4, 113640, Note_on_c, 3, 81, 80
4, 113999, Note_on_c, 3, 81, 0
4, 114000, Note_on_c, 3, 81, 80
4, 114239, Note_on_c, 3, 81, 0
4, 114240, Note_on_c, 3, 81, 80
4, 114599, Note_on_c, 3, 81, 0
4, 114600, Note_on_c, 3, 81, 80
4, 114959, Note_on_c, 3, 81, 0
4, 114960, Note_on_c, 3, 81, 80
4, 115199, Note_on_c, 3, 81, 0
4, 115200, Note_on_c, 3, 77, 80
4, 115559, Note_on_c, 3, 77, 0
4, 115560, Note_on_c, 3, 77, 80
4, 115919, Note_on_c, 3, 77, 0
4, 115920, Note_on_c, 3, 77, 80
4, 116159, Note_on_c, 3, 77, 0
4, 116160, Note_on_c, 3, 76, 80
4, 116639, Note_on_c, 3, 76, 0
4, 116640, Note_on_c, 3, 76, 80
4, 117119, Note_on_c, 3, 76, 0
4, 117120, Note_on_c, 3, 81, 80
4, 118079, Note_on_c, 3, 81, 0
4, 118080, End_track
0, 0, End_of_file
