0, 0, Header, 1, 5, 480
1, 0, Start_track
1, 0, Title_t, "Piano, Danso, Winds\000"
1, 0, Time_signature, 4, 2, 24, 8
1, 0, Key_signature, 0, "major"
1, 0, Tempo, 731707
1, 0, Control_c, 1, 121, 0
1, 0, Program_c, 1, 0
1, 0, Control_c, 1, 7, 100
1, 0, Control_c, 1, 10, 64
1, 0, Control_c, 1, 91, 0
1, 0, Control_c, 1, 93, 0
1, 0, MIDI_port, 0
1, 5760, Note_on_c, 1, 76, 80
1, 5987, Note_on_c, 1, 76, 0
1, 6000, Note_on_c, 1, 72, 80
1, 6113, Note_on_c, 1, 72, 0
1, 6120, Note_on_c, 1, 69, 80
1, 6461, Note_on_c, 1, 69, 0
1, 7200, Note_on_c, 1, 79, 80
1, 7427, Note_on_c, 1, 79, 0
1, 7440, Note_on_c, 1, 77, 80
1, 7559, Note_on_c, 1, 77, 0
1, 7680, Note_on_c, 1, 76, 80
1, 7907, Note_on_c, 1, 76, 0
1, 7920, Note_on_c, 1, 72, 80
1, 8033, Note_on_c, 1, 72, 0
1, 8040, Note_on_c, 1, 69, 80
1, 8381, Note_on_c, 1, 69, 0
1, 9360, Note_on_c, 1, 67, 80
1, 9473, Note_on_c, 1, 67, 0
1, 9480, Note_on_c, 1, 69, 80
1, 9821, Note_on_c, 1, 69, 0
1, 9840, Note_on_c, 1, 76, 80
1, 10067, Note_on_c, 1, 76, 0
1, 10320, Note_on_c, 1, 67, 80
1, 10433, Note_on_c, 1, 67, 0
1, 10440, Note_on_c, 1, 69, 80
1, 10895, Note_on_c, 1, 69, 0
1, 11040, Note_on_c, 1, 76, 80
1, 11267, Note_on_c, 1, 76, 0
1, 11280, Note_on_c, 1, 79, 80
1, 11399, Note_on_c, 1, 79, 0
1, 11520, Note_on_c, 1, 79, 80
1, 11747, Note_on_c, 1, 79, 0
1, 11760, Note_on_c, 1, 72, 80
1, 11873, Note_on_c, 1, 72, 0
1, 11880, Note_on_c, 1, 69, 80
1, 12221, Note_on_c, 1, 69, 0
1, 13200, Note_on_c, 1, 67, 80
1, 13319, Note_on_c, 1, 67, 0
1, 13440, Note_on_c, 1, 69, 80
1, 13667, Note_on_c, 1, 69, 0
1, 13680, Note_on_c, 1, 69, 80
1, 13799, Note_on_c, 1, 69, 0
1, 13920, Note_on_c, 1, 79, 80
1, 14147, Note_on_c, 1, 79, 0
1, 14160, Note_on_c, 1, 76, 80
1, 14615, Note_on_c, 1, 76, 0
1, 14880, Note_on_c, 1, 67, 80
1, 15107, Note_on_c, 1, 67, 0
1, 15120, Note_on_c, 1, 67, 80
1, 15239, Note_on_c, 1, 67, 0
1, 15360, Note_on_c, 1, 69, 80
1, 15599, Note_on_c, 1, 69, 0
1, 15840, Note_on_c, 1, 79, 80
1, 16067, Note_on_c, 1, 79, 0
1, 16080, Note_on_c, 1, 76, 80
1, 16535, Note_on_c, 1, 76, 0
1, 17280, Note_on_c, 1, 79, 80
1, 17507, Note_on_c, 1, 79, 0
1, 17520, Note_on_c, 1, 72, 80
1, 17633, Note_on_c, 1, 72, 0
1, 17640, Note_on_c, 1, 69, 80
1, 17981, Note_on_c, 1, 69, 0
1, 18000, Note_on_c, 1, 67, 80
1, 18113, Note_on_c, 1, 67, 0
1, 18120, Note_on_c, 1, 76, 80
1, 18461, Note_on_c, 1, 76, 0
1, 18720, Note_on_c, 1, 76, 80
1, 18947, Note_on_c, 1, 76, 0
1, 18960, Note_on_c, 1, 79, 80
1, 19079, Note_on_c, 1, 79, 0
1, 19200, Note_on_c, 1, 76, 80
1, 19427, Note_on_c, 1, 76, 0
1, 19440, Note_on_c, 1, 72, 80
1, 19553, Note_on_c, 1, 72, 0
1, 19560, Note_on_c, 1, 69, 80
1, 19901, Note_on_c, 1, 69, 0
1, 21120, Key_signature, 0, "major"
1, 21120, Tempo, 740741
1, 21120, Note_on_c, 1, 74, 80
1, 21347, Note_on_c, 1, 74, 0
1, 21360, Note_on_c, 1, 76, 80
1, 21473, Note_on_c, 1, 76, 0
1, 21480, Note_on_c, 1, 77, 80
1, 21707, Note_on_c, 1, 77, 0
1, 21720, Note_on_c, 1, 79, 80
1, 21947, Note_on_c, 1, 79, 0
1, 21960, Note_on_c, 1, 81, 80
1, 22415, Note_on_c, 1, 81, 0
1, 22680, Note_on_c, 1, 79, 80
1, 22793, Note_on_c, 1, 79, 0
1, 22800, Note_on_c, 1, 77, 80
1, 23027, Note_on_c, 1, 77, 0
1, 23040, Note_on_c, 1, 76, 80
1, 23267, Note_on_c, 1, 76, 0
1, 23280, Note_on_c, 1, 79, 80
1, 23393, Note_on_c, 1, 79, 0
1, 23400, Note_on_c, 1, 76, 80
1, 23741, Note_on_c, 1, 76, 0
1, 24960, Key_signature, 0, "major"
1, 24960, Note_on_c, 1, 74, 80
1, 25187, Note_on_c, 1, 74, 0
1, 25200, Note_on_c, 1, 76, 80
1, 25313, Note_on_c, 1, 76, 0
1, 25320, Note_on_c, 1, 77, 80
1, 25547, Note_on_c, 1, 77, 0
1, 25560, Note_on_c, 1, 79, 80
1, 25787, Note_on_c, 1, 79, 0
1, 25800, Note_on_c, 1, 81, 80
1, 26255, Note_on_c, 1, 81, 0
1, 26520, Note_on_c, 1, 79, 80
1, 26633, Note_on_c, 1, 79, 0
1, 26640, Note_on_c, 1, 77, 80
1, 26867, Note_on_c, 1, 77, 0
1, 26880, Key_signature, 0, "major"
1, 26880, Note_on_c, 1, 76, 80
1, 27107, Note_on_c, 1, 76, 0
1, 27120, Note_on_c, 1, 79, 80
1, 27233, Note_on_c, 1, 79, 0
1, 27240, Note_on_c, 1, 76, 80
1, 27467, Note_on_c, 1, 76, 0
1, 27480, Note_on_c, 1, 79, 80
1, 27707, Note_on_c, 1, 79, 0
1, 27720, Note_on_c, 1, 76, 80
1, 28061, Note_on_c, 1, 76, 0
1, 28560, Note_on_c, 1, 74, 80
1, 28673, Note_on_c, 1, 74, 0
1, 28680, Note_on_c, 1, 76, 80
1, 28793, Note_on_c, 1, 76, 0
1, 28800, Key_signature, 0, "major"
1, 28800, Note_on_c, 1, 77, 80
1, 28979, Note_on_c, 1, 77, 0
1, 29160, Note_on_c, 1, 77, 80
1, 29387, Note_on_c, 1, 77, 0
1, 29400, Note_on_c, 1, 76, 80
1, 29519, Note_on_c, 1, 76, 0
1, 29640, Note_on_c, 1, 79, 80
1, 29981, Note_on_c, 1, 79, 0
1, 30120, Note_on_c, 1, 77, 80
1, 30290, Note_on_c, 1, 77, 0
1, 30300, Note_on_c, 1, 76, 80
1, 30470, Note_on_c, 1, 76, 0
1, 30480, Note_on_c, 1, 74, 80
1, 30593, Note_on_c, 1, 74, 0
1, 30600, Note_on_c, 1, 76, 80
1, 30827, Note_on_c, 1, 76, 0
1, 30840, Note_on_c, 1, 72, 80
1, 31019, Note_on_c, 1, 72, 0
1, 32280, Note_on_c, 1, 69, 80
1, 32393, Note_on_c, 1, 69, 0
1, 32400, Note_on_c, 1, 76, 80
1, 32519, Note_on_c, 1, 76, 0
1, 32640, Note_on_c, 1, 74, 80
1, 32819, Note_on_c, 1, 74, 0
1, 33000, Note_on_c, 1, 74, 80
1, 33227, Note_on_c, 1, 74, 0
1, 33240, Note_on_c, 1, 76, 80
1, 33359, Note_on_c, 1, 76, 0
1, 33480, Note_on_c, 1, 74, 80
1, 33821, Note_on_c, 1, 74, 0
1, 34200, Note_on_c, 1, 74, 80
1, 34313, Note_on_c, 1, 74, 0
1, 34320, Note_on_c, 1, 81, 80
1, 34439, Note_on_c, 1, 81, 0
1, 34560, Note_on_c, 1, 79, 80
1, 34673, Note_on_c, 1, 79, 0
1, 34680, Note_on_c, 1, 81, 80
1, 34799, Note_on_c, 1, 81, 0
1, 34920, Note_on_c, 1, 79, 80
1, 35375, Note_on_c, 1, 79, 0
1, 36480, Key_signature, 0, "major"
1, 36480, Note_on_c, 1, 76, 80
1, 36707, Note_on_c, 1, 76, 0
1, 36720, Note_on_c, 1, 72, 80
1, 36833, Note_on_c, 1, 72, 0
1, 36840, Note_on_c, 1, 69, 80
1, 37181, Note_on_c, 1, 69, 0
1, 37920, Note_on_c, 1, 79, 80
1, 38147, Note_on_c, 1, 79, 0
1, 38160, Note_on_c, 1, 77, 80
1, 38387, Note_on_c, 1, 77, 0
1, 38400, Note_on_c, 1, 76, 80
1, 38627, Note_on_c, 1, 76, 0
1, 38640, Note_on_c, 1, 72, 80
1, 38753, Note_on_c, 1, 72, 0
1, 38760, Note_on_c, 1, 69, 80
1, 39101, Note_on_c, 1, 69, 0
1, 40080, Note_on_c, 1, 67, 80
1, 40193, Note_on_c, 1, 67, 0
1, 40200, Note_on_c, 1, 69, 80
1, 40541, Note_on_c, 1, 69, 0
1, 40560, Note_on_c, 1, 76, 80
1, 41015, Note_on_c, 1, 76, 0
1, 41040, Note_on_c, 1, 67, 80
1, 41153, Note_on_c, 1, 67, 0
1, 41160, Note_on_c, 1, 69, 80
1, 41615, Note_on_c, 1, 69, 0
1, 41760, Note_on_c, 1, 76, 80
1, 41987, Note_on_c, 1, 76, 0
1, 42000, Note_on_c, 1, 79, 80
1, 42227, Note_on_c, 1, 79, 0
1, 42240, Note_on_c, 1, 79, 80
1, 42467, Note_on_c, 1, 79, 0
1, 42480, Note_on_c, 1, 72, 80
1, 42593, Note_on_c, 1, 72, 0
1, 42600, Note_on_c, 1, 69, 80
1, 42941, Note_on_c, 1, 69, 0
1, 43680, Note_on_c, 1, 67, 80
1, 43907, Note_on_c, 1, 67, 0
1, 43920, Note_on_c, 1, 67, 80
1, 44147, Note_on_c, 1, 67, 0
1, 44160, Note_on_c, 1, 69, 80
1, 44387, Note_on_c, 1, 69, 0
1, 44400, Note_on_c, 1, 69, 80
1, 44627, Note_on_c, 1, 69, 0
1, 44640, Note_on_c, 1, 79, 80
1, 44867, Note_on_c, 1, 79, 0
1, 44880, Note_on_c, 1, 76, 80
1, 45335, Note_on_c, 1, 76, 0
1, 45840, Note_on_c, 1, 67, 80
1, 46067, Note_on_c, 1, 67, 0
1, 46080, Note_on_c, 1, 69, 80
1, 46307, Note_on_c, 1, 69, 0
1, 46320, Note_on_c, 1, 69, 80
1, 46547, Note_on_c, 1, 69, 0
1, 46560, Note_on_c, 1, 79, 80
1, 46787, Note_on_c, 1, 79, 0
1, 46800, Note_on_c, 1, 76, 80
1, 47255, Note_on_c, 1, 76, 0
1, 48000, Note_on_c, 1, 79, 80
1, 48227, Note_on_c, 1, 79, 0
1, 48240, Note_on_c, 1, 72, 80
1, 48353, Note_on_c, 1, 72, 0
1, 48360, Note_on_c, 1, 69, 80
1, 48701, Note_on_c, 1, 69, 0
1, 48720, Note_on_c, 1, 67, 80
1, 48833, Note_on_c, 1, 67, 0
1, 48840, Note_on_c, 1, 76, 80
1, 49181, Note_on_c, 1, 76, 0
1, 49440, Note_on_c, 1, 76, 80
1, 49667, Note_on_c, 1, 76, 0
1, 49680, Note_on_c, 1, 79, 80
1, 49907, Note_on_c, 1, 79, 0
1, 49920, Note_on_c, 1, 76, 80
1, 50147, Note_on_c, 1, 76, 0
1, 50160, Note_on_c, 1, 72, 80
1, 50273, Note_on_c, 1, 72, 0
1, 50280, Note_on_c, 1, 69, 80
1, 50621, Note_on_c, 1, 69, 0
1, 50880, Note_on_c, 1, 62, 80
1, 51563, Note_on_c, 1, 62, 0
1, 51600, Note_on_c, 1, 64, 80
1, 51827, Note_on_c, 1, 64, 0
1, 51840, Tempo, 769231
1, 51840, Note_on_c, 1, 59, 80
1, 52523, Note_on_c, 1, 59, 0
1, 52560, Note_on_c, 1, 62, 80
1, 52787, Note_on_c, 1, 62, 0
1, 52800, Tempo, 800000
1, 52800, Note_on_c, 1, 57, 80
1, 53483, Note_on_c, 1, 57, 0
1, 53520, Note_on_c, 1, 59, 80
1, 53747, Note_on_c, 1, 59, 0
1, 53760, Tempo, 857143
1, 53760, Note_on_c, 1, 55, 80
1, 54671, Note_on_c, 1, 55, 0
1, 54672, End_track
2, 0, Start_track
2, 0, Title_t, "Classical Guitar, Classical Guitar, Classical Guitar\000"
2, 0, Key_signature, 0, "major"
2, 0, Control_c, 0, 121, 0
2, 0, Program_c, 0, 24
2, 0, Control_c, 0, 7, 89
2, 0, Control_c, 0, 10, 64
2, 0, Control_c, 0, 91, 0
2, 0, Control_c, 0, 93, 0
2, 0, MIDI_port, 0
2, 0, Note_on_c, 0, 59, 80
2, 0, Note_on_c, 0, 64, 80
2, 0, Note_on_c, 0, 67, 80
2, 0, Control_c, 4, 121, 0
2, 0, Program_c, 4, 28
2, 0, Control_c, 4, 7, 100
2, 0, Control_c, 4, 10, 64
2, 0, Control_c, 4, 91, 0
2, 0, Control_c, 4, 93, 0
2, 0, MIDI_port, 0
2, 359, Note_on_c, 0, 59, 0
2, 359, Note_on_c, 0, 64, 0
2, 359, Note_on_c, 0, 67, 0
2, 360, Note_on_c, 0, 59, 80
2, 360, Note_on_c, 0, 67, 80
2, 599, Note_on_c, 0, 59, 0
2, 599, Note_on_c, 0, 67, 0
2, 600, Note_on_c, 0, 64, 80
2, 600, Note_on_c, 0, 67, 80
2, 719, Note_on_c, 0, 64, 0
2, 719, Note_on_c, 0, 67, 0
2, 840, Note_on_c, 0, 59, 80
2, 840, Note_on_c, 0, 67, 80
2, 1079, Note_on_c, 0, 59, 0
2, 1079, Note_on_c, 0, 67, 0
2, 1080, Note_on_c, 0, 64, 80
2, 1080, Note_on_c, 0, 67, 80
2, 1199, Note_on_c, 0, 64, 0
2, 1199, Note_on_c, 0, 67, 0
2, 1320, Note_on_c, 0, 59, 80
2, 1320, Note_on_c, 0, 67, 80
2, 1679, Note_on_c, 0, 59, 0
2, 1679, Note_on_c, 0, 67, 0
2, 1680, Note_on_c, 0, 64, 80
2, 1680, Note_on_c, 0, 67, 80
2, 1799, Note_on_c, 0, 64, 0
2, 1799, Note_on_c, 0, 67, 0
2, 1920, Note_on_c, 0, 59, 80
2, 1920, Note_on_c, 0, 64, 80
2, 1920, Note_on_c, 0, 67, 80
2, 2279, Note_on_c, 0, 59, 0
2, 2279, Note_on_c, 0, 64, 0
2, 2279, Note_on_c, 0, 67, 0
2, 2280, Note_on_c, 0, 59, 80
2, 2280, Note_on_c, 0, 67, 80
2, 2519, Note_on_c, 0, 59, 0
2, 2519, Note_on_c, 0, 67, 0
2, 2520, Note_on_c, 0, 64, 80
2, 2520, Note_on_c, 0, 67, 80
2, 2639, Note_on_c, 0, 64, 0
2, 2639, Note_on_c, 0, 67, 0
2, 2760, Note_on_c, 0, 59, 80
2, 2760, Note_on_c, 0, 67, 80
2, 2999, Note_on_c, 0, 59, 0
2, 2999, Note_on_c, 0, 67, 0
2, 3000, Note_on_c, 0, 64, 80
2, 3000, Note_on_c, 0, 67, 80
2, 3119, Note_on_c, 0, 64, 0
2, 3119, Note_on_c, 0, 67, 0
2, 3240, Note_on_c, 0, 59, 80
2, 3240, Note_on_c, 0, 67, 80
2, 3599, Note_on_c, 0, 59, 0
2, 3599, Note_on_c, 0, 67, 0
2, 3600, Note_on_c, 0, 64, 80
2, 3600, Note_on_c, 0, 67, 80
2, 3719, Note_on_c, 0, 64, 0
2, 3719, Note_on_c, 0, 67, 0
2, 3840, Note_on_c, 0, 59, 80
2, 3840, Note_on_c, 0, 64, 80
2, 3840, Note_on_c, 0, 67, 80
2, 4199, Note_on_c, 0, 59, 0
2, 4199, Note_on_c, 0, 64, 0
2, 4199, Note_on_c, 0, 67, 0
2, 4200, Note_on_c, 0, 59, 80
2, 4200, Note_on_c, 0, 67, 80
2, 4439, Note_on_c, 0, 59, 0
2, 4439, Note_on_c, 0, 67, 0
2, 4440, Note_on_c, 0, 64, 80
2, 4440, Note_on_c, 0, 67, 80
2, 4559, Note_on_c, 0, 64, 0
2, 4559, Note_on_c, 0, 67, 0
2, 4680, Note_on_c, 0, 59, 80
2, 4680, Note_on_c, 0, 67, 80
2, 4919, Note_on_c, 0, 59, 0
2, 4919, Note_on_c, 0, 67, 0
2, 4920, Note_on_c, 0, 64, 80
2, 4920, Note_on_c, 0, 67, 80
2, 5039, Note_on_c, 0, 64, 0
2, 5039, Note_on_c, 0, 67, 0
2, 5160, Note_on_c, 0, 59, 80
2, 5160, Note_on_c, 0, 67, 80
2, 5519, Note_on_c, 0, 59, 0
2, 5519, Note_on_c, 0, 67, 0
2, 5520, Note_on_c, 0, 64, 80
2, 5520, Note_on_c, 0, 67, 80
2, 5639, Note_on_c, 0, 64, 0
2, 5639, Note_on_c, 0, 67, 0
2, 5760, Note_on_c, 0, 59, 80
2, 5760, Note_on_c, 0, 67, 80
2, 6119, Note_on_c, 0, 59, 0
2, 6119, Note_on_c, 0, 67, 0
2, 6120, Note_on_c, 0, 59, 80
2, 6120, Note_on_c, 0, 67, 80
2, 6359, Note_on_c, 0, 59, 0
2, 6359, Note_on_c, 0, 67, 0
2, 6360, Note_on_c, 0, 64, 80
2, 6360, Note_on_c, 0, 67, 80
2, 6479, Note_on_c, 0, 64, 0
2, 6479, Note_on_c, 0, 67, 0
2, 6600, Note_on_c, 0, 59, 80
2, 6600, Note_on_c, 0, 67, 80
2, 6839, Note_on_c, 0, 59, 0
2, 6839, Note_on_c, 0, 67, 0
2, 6840, Note_on_c, 0, 64, 80
2, 6840, Note_on_c, 0, 67, 80
2, 6959, Note_on_c, 0, 64, 0
2, 6959, Note_on_c, 0, 67, 0
2, 7080, Note_on_c, 0, 59, 80
2, 7080, Note_on_c, 0, 67, 80
2, 7439, Note_on_c, 0, 59, 0
2, 7439, Note_on_c, 0, 67, 0
2, 7440, Note_on_c, 0, 64, 80
2, 7440, Note_on_c, 0, 67, 80
2, 7559, Note_on_c, 0, 64, 0
2, 7559, Note_on_c, 0, 67, 0
2, 7680, Note_on_c, 0, 59, 80
2, 7680, Note_on_c, 0, 64, 80
2, 7680, Note_on_c, 0, 67, 80
2, 8039, Note_on_c, 0, 59, 0
2, 8039, Note_on_c, 0, 64, 0
2, 8039, Note_on_c, 0, 67, 0
2, 8040, Note_on_c, 0, 59, 80
2, 8040, Note_on_c, 0, 67, 80
2, 8279, Note_on_c, 0, 59, 0
2, 8279, Note_on_c, 0, 67, 0
2, 8280, Note_on_c, 0, 64, 80
2, 8280, Note_on_c, 0, 67, 80
2, 8399, Note_on_c, 0, 64, 0
2, 8399, Note_on_c, 0, 67, 0
2, 8520, Note_on_c, 0, 59, 80
2, 8520, Note_on_c, 0, 67, 80
2, 8759, Note_on_c, 0, 59, 0
2, 8759, Note_on_c, 0, 67, 0
2, 8760, Note_on_c, 0, 64, 80
2, 8760, Note_on_c, 0, 67, 80
2, 8879, Note_on_c, 0, 64, 0
2, 8879, Note_on_c, 0, 67, 0
2, 9000, Note_on_c, 0, 59, 80
2, 9000, Note_on_c, 0, 67, 80
2, 9359, Note_on_c, 0, 59, 0
2, 9359, Note_on_c, 0, 67, 0
2, 9360, Note_on_c, 0, 64, 80
2, 9360, Note_on_c, 0, 67, 80
2, 9479, Note_on_c, 0, 64, 0
2, 9479, Note_on_c, 0, 67, 0
2, 9600, Note_on_c, 0, 59, 80
2, 9600, Note_on_c, 0, 64, 80
2, 9600, Note_on_c, 0, 67, 80
2, 9959, Note_on_c, 0, 59, 0
2, 9959, Note_on_c, 0, 64, 0
2, 9959, Note_on_c, 0, 67, 0
2, 9960, Note_on_c, 0, 59, 80
2, 9960, Note_on_c, 0, 67, 80
2, 10199, Note_on_c, 0, 59, 0
2, 10199, Note_on_c, 0, 67, 0
2, 10200, Note_on_c, 0, 64, 80
2, 10200, Note_on_c, 0, 67, 80
2, 10319, Note_on_c, 0, 64, 0
2, 10319, Note_on_c, 0, 67, 0
2, 10440, Note_on_c, 0, 59, 80
2, 10440, Note_on_c, 0, 67, 80
2, 10679, Note_on_c, 0, 59, 0
2, 10679, Note_on_c, 0, 67, 0
2, 10680, Note_on_c, 0, 64, 80
2, 10680, Note_on_c, 0, 67, 80
2, 10799, Note_on_c, 0, 64, 0
2, 10799, Note_on_c, 0, 67, 0
2, 10920, Note_on_c, 0, 59, 80
2, 10920, Note_on_c, 0, 67, 80
2, 11279, Note_on_c, 0, 59, 0
2, 11279, Note_on_c, 0, 67, 0
2, 11280, Note_on_c, 0, 64, 80
2, 11280, Note_on_c, 0, 67, 80
2, 11399, Note_on_c, 0, 64, 0
2, 11399, Note_on_c, 0, 67, 0
2, 11520, Note_on_c, 0, 60, 80
2, 11520, Note_on_c, 0, 65, 80
2, 11520, Note_on_c, 0, 69, 80
2, 11879, Note_on_c, 0, 60, 0
2, 11879, Note_on_c, 0, 65, 0
2, 11879, Note_on_c, 0, 69, 0
2, 11880, Note_on_c, 0, 60, 80
2, 11880, Note_on_c, 0, 69, 80
2, 12119, Note_on_c, 0, 60, 0
2, 12119, Note_on_c, 0, 69, 0
2, 12120, Note_on_c, 0, 60, 80
2, 12120, Note_on_c, 0, 65, 80
2, 12120, Note_on_c, 0, 69, 80
2, 12239, Note_on_c, 0, 60, 0
2, 12239, Note_on_c, 0, 65, 0
2, 12239, Note_on_c, 0, 69, 0
2, 12360, Note_on_c, 0, 59, 80
2, 12360, Note_on_c, 0, 62, 80
2, 12360, Note_on_c, 0, 69, 80
2, 12599, Note_on_c, 0, 59, 0
2, 12599, Note_on_c, 0, 62, 0
2, 12599, Note_on_c, 0, 69, 0
2, 12600, Note_on_c, 0, 59, 80
2, 12600, Note_on_c, 0, 65, 80
2, 12600, Note_on_c, 0, 69, 80
2, 12719, Note_on_c, 0, 59, 0
2, 12719, Note_on_c, 0, 65, 0
2, 12719, Note_on_c, 0, 69, 0
2, 12840, Note_on_c, 0, 59, 80
2, 12840, Note_on_c, 0, 62, 80
2, 12840, Note_on_c, 0, 69, 80
2, 13199, Note_on_c, 0, 59, 0
2, 13199, Note_on_c, 0, 62, 0
2, 13199, Note_on_c, 0, 69, 0
2, 13200, Note_on_c, 0, 59, 80
2, 13200, Note_on_c, 0, 65, 80
2, 13200, Note_on_c, 0, 69, 80
2, 13319, Note_on_c, 0, 59, 0
2, 13319, Note_on_c, 0, 65, 0
2, 13319, Note_on_c, 0, 69, 0
2, 13440, Note_on_c, 0, 60, 80
2, 13440, Note_on_c, 0, 65, 80
2, 13440, Note_on_c, 0, 69, 80
2, 13799, Note_on_c, 0, 60, 0
2, 13799, Note_on_c, 0, 65, 0
2, 13799, Note_on_c, 0, 69, 0
2, 13800, Note_on_c, 0, 60, 80
2, 13800, Note_on_c, 0, 69, 80
2, 14039, Note_on_c, 0, 60, 0
2, 14039, Note_on_c, 0, 69, 0
2, 14040, Note_on_c, 0, 60, 80
2, 14040, Note_on_c, 0, 65, 80
2, 14040, Note_on_c, 0, 69, 80
2, 14159, Note_on_c, 0, 60, 0
2, 14159, Note_on_c, 0, 65, 0
2, 14159, Note_on_c, 0, 69, 0
2, 14280, Note_on_c, 0, 59, 80
2, 14280, Note_on_c, 0, 62, 80
2, 14280, Note_on_c, 0, 69, 80
2, 14519, Note_on_c, 0, 59, 0
2, 14519, Note_on_c, 0, 62, 0
2, 14519, Note_on_c, 0, 69, 0
2, 14520, Note_on_c, 0, 59, 80
2, 14520, Note_on_c, 0, 65, 80
2, 14520, Note_on_c, 0, 69, 80
2, 14639, Note_on_c, 0, 59, 0
2, 14639, Note_on_c, 0, 65, 0
2, 14639, Note_on_c, 0, 69, 0
2, 14760, Note_on_c, 0, 59, 80
2, 14760, Note_on_c, 0, 62, 80
2, 14760, Note_on_c, 0, 69, 80
2, 15119, Note_on_c, 0, 59, 0
2, 15119, Note_on_c, 0, 62, 0
2, 15119, Note_on_c, 0, 69, 0
2, 15120, Note_on_c, 0, 59, 80
2, 15120, Note_on_c, 0, 65, 80
2, 15120, Note_on_c, 0, 69, 80
2, 15239, Note_on_c, 0, 59, 0
2, 15239, Note_on_c, 0, 65, 0
2, 15239, Note_on_c, 0, 69, 0
2, 15360, Note_on_c, 0, 60, 80
2, 15360, Note_on_c, 0, 65, 80
2, 15360, Note_on_c, 0, 69, 80
2, 15719, Note_on_c, 0, 60, 0
2, 15719, Note_on_c, 0, 65, 0
2, 15719, Note_on_c, 0, 69, 0
2, 15720, Note_on_c, 0, 60, 80
2, 15720, Note_on_c, 0, 69, 80
2, 15959, Note_on_c, 0, 60, 0
2, 15959, Note_on_c, 0, 69, 0
2, 15960, Note_on_c, 0, 60, 80
2, 15960, Note_on_c, 0, 65, 80
2, 15960, Note_on_c, 0, 69, 80
2, 16079, Note_on_c, 0, 60, 0
2, 16079, Note_on_c, 0, 65, 0
2, 16079, Note_on_c, 0, 69, 0
2, 16200, Note_on_c, 0, 59, 80
2, 16200, Note_on_c, 0, 62, 80
2, 16200, Note_on_c, 0, 69, 80
2, 16439, Note_on_c, 0, 59, 0
2, 16439, Note_on_c, 0, 62, 0
2, 16439, Note_on_c, 0, 69, 0
2, 16440, Note_on_c, 0, 59, 80
2, 16440, Note_on_c, 0, 65, 80
2, 16440, Note_on_c, 0, 69, 80
2, 16559, Note_on_c, 0, 59, 0
2, 16559, Note_on_c, 0, 65, 0
2, 16559, Note_on_c, 0, 69, 0
2, 16680, Note_on_c, 0, 59, 80
2, 16680, Note_on_c, 0, 62, 80
2, 16680, Note_on_c, 0, 69, 80
2, 17039, Note_on_c, 0, 59, 0
2, 17039, Note_on_c, 0, 62, 0
2, 17039, Note_on_c, 0, 69, 0
2, 17040, Note_on_c, 0, 59, 80
2, 17040, Note_on_c, 0, 65, 80
2, 17040, Note_on_c, 0, 69, 80
2, 17159, Note_on_c, 0, 59, 0
2, 17159, Note_on_c, 0, 65, 0
2, 17159, Note_on_c, 0, 69, 0
2, 17280, Note_on_c, 0, 60, 80
2, 17280, Note_on_c, 0, 65, 80
2, 17280, Note_on_c, 0, 69, 80
2, 17639, Note_on_c, 0, 60, 0
2, 17639, Note_on_c, 0, 65, 0
2, 17639, Note_on_c, 0, 69, 0
2, 17640, Note_on_c, 0, 60, 80
2, 17640, Note_on_c, 0, 69, 80
2, 17879, Note_on_c, 0, 60, 0
2, 17879, Note_on_c, 0, 69, 0
2, 17880, Note_on_c, 0, 60, 80
2, 17880, Note_on_c, 0, 65, 80
2, 17880, Note_on_c, 0, 69, 80
2, 17999, Note_on_c, 0, 60, 0
2, 17999, Note_on_c, 0, 65, 0
2, 17999, Note_on_c, 0, 69, 0
2, 18120, Note_on_c, 0, 59, 80
2, 18120, Note_on_c, 0, 62, 80
2, 18120, Note_on_c, 0, 69, 80
2, 18359, Note_on_c, 0, 59, 0
2, 18359, Note_on_c, 0, 62, 0
2, 18359, Note_on_c, 0, 69, 0
2, 18360, Note_on_c, 0, 59, 80
2, 18360, Note_on_c, 0, 65, 80
2, 18360, Note_on_c, 0, 69, 80
2, 18479, Note_on_c, 0, 59, 0
2, 18479, Note_on_c, 0, 65, 0
2, 18479, Note_on_c, 0, 69, 0
2, 18600, Note_on_c, 0, 59, 80
2, 18600, Note_on_c, 0, 62, 80
2, 18600, Note_on_c, 0, 69, 80
2, 18959, Note_on_c, 0, 59, 0
2, 18959, Note_on_c, 0, 62, 0
2, 18959, Note_on_c, 0, 69, 0
2, 18960, Note_on_c, 0, 59, 80
2, 18960, Note_on_c, 0, 65, 80
2, 18960, Note_on_c, 0, 69, 80
2, 19079, Note_on_c, 0, 59, 0
2, 19079, Note_on_c, 0, 65, 0
2, 19079, Note_on_c, 0, 69, 0
2, 19200, Note_on_c, 0, 59, 80
2, 19200, Note_on_c, 0, 64, 80
2, 19200, Note_on_c, 0, 67, 80
2, 19559, Note_on_c, 0, 59, 0
2, 19559, Note_on_c, 0, 64, 0
2, 19559, Note_on_c, 0, 67, 0
2, 19560, Note_on_c, 0, 59, 80
2, 19560, Note_on_c, 0, 67, 80
2, 19799, Note_on_c, 0, 59, 0
2, 19799, Note_on_c, 0, 67, 0
2, 19800, Note_on_c, 0, 64, 80
2, 19800, Note_on_c, 0, 67, 80
2, 19919, Note_on_c, 0, 64, 0
2, 19919, Note_on_c, 0, 67, 0
2, 20040, Note_on_c, 0, 59, 80
2, 20040, Note_on_c, 0, 67, 80
2, 20279, Note_on_c, 0, 59, 0
2, 20279, Note_on_c, 0, 67, 0
2, 20280, Note_on_c, 0, 64, 80
2, 20280, Note_on_c, 0, 67, 80
2, 20399, Note_on_c, 0, 64, 0
2, 20399, Note_on_c, 0, 67, 0
2, 20520, Note_on_c, 0, 59, 80
2, 20520, Note_on_c, 0, 67, 80
2, 20879, Note_on_c, 0, 59, 0
2, 20879, Note_on_c, 0, 67, 0
2, 20880, Note_on_c, 0, 64, 80
2, 20880, Note_on_c, 0, 67, 80
2, 20999, Note_on_c, 0, 64, 0
2, 20999, Note_on_c, 0, 67, 0
2, 21120, Key_signature, 0, "major"
2, 21120, Note_on_c, 0, 57, 80
2, 21120, Note_on_c, 0, 60, 80
2, 21120, Note_on_c, 0, 65, 80
2, 21359, Note_on_c, 0, 57, 0
2, 21359, Note_on_c, 0, 60, 0
2, 21359, Note_on_c, 0, 65, 0
2, 21360, Note_on_c, 0, 57, 80
2, 21360, Note_on_c, 0, 60, 80
2, 21360, Note_on_c, 0, 65, 80
2, 21719, Note_on_c, 0, 57, 0
2, 21719, Note_on_c, 0, 60, 0
2, 21719, Note_on_c, 0, 65, 0
2, 21720, Note_on_c, 0, 57, 80
2, 21720, Note_on_c, 0, 60, 80
2, 21899, Note_on_c, 0, 57, 0
2, 21899, Note_on_c, 0, 60, 0
2, 22200, Note_on_c, 0, 62, 80
2, 22200, Note_on_c, 0, 65, 80
2, 22319, Note_on_c, 0, 62, 0
2, 22319, Note_on_c, 0, 65, 0
2, 22440, Note_on_c, 0, 59, 80
2, 22440, Note_on_c, 0, 62, 80
2, 22440, Note_on_c, 0, 65, 80
2, 22799, Note_on_c, 0, 59, 0
2, 22799, Note_on_c, 0, 62, 0
2, 22799, Note_on_c, 0, 65, 0
2, 22800, Note_on_c, 0, 62, 80
2, 22800, Note_on_c, 0, 65, 80
2, 22919, Note_on_c, 0, 62, 0
2, 22919, Note_on_c, 0, 65, 0
2, 23040, Note_on_c, 0, 55, 80
2, 23040, Note_on_c, 0, 59, 80
2, 23040, Note_on_c, 0, 64, 80
2, 23399, Note_on_c, 0, 55, 0
2, 23399, Note_on_c, 0, 59, 0
2, 23399, Note_on_c, 0, 64, 0
2, 23400, Note_on_c, 0, 55, 80
2, 23400, Note_on_c, 0, 59, 80
2, 23400, Note_on_c, 0, 64, 80
2, 23639, Note_on_c, 0, 55, 0
2, 23639, Note_on_c, 0, 59, 0
2, 23639, Note_on_c, 0, 64, 0
2, 23640, Note_on_c, 0, 59, 80
2, 23640, Note_on_c, 0, 64, 80
2, 23819, Note_on_c, 0, 59, 0
2, 23819, Note_on_c, 0, 64, 0
2, 24120, Note_on_c, 0, 59, 80
2, 24120, Note_on_c, 0, 64, 80
2, 24239, Note_on_c, 0, 59, 0
2, 24239, Note_on_c, 0, 64, 0
2, 24360, Note_on_c, 0, 55, 80
2, 24360, Note_on_c, 0, 59, 80
2, 24360, Note_on_c, 0, 64, 80
2, 24719, Note_on_c, 0, 55, 0
2, 24719, Note_on_c, 0, 59, 0
2, 24719, Note_on_c, 0, 64, 0
2, 24720, Note_on_c, 0, 59, 80
2, 24720, Note_on_c, 0, 64, 80
2, 24839, Note_on_c, 0, 59, 0
2, 24839, Note_on_c, 0, 64, 0
2, 24960, Key_signature, 0, "major"
2, 24960, Note_on_c, 0, 57, 80
2, 24960, Note_on_c, 0, 62, 80
2, 24960, Note_on_c, 0, 65, 80
2, 25319, Note_on_c, 0, 57, 0
2, 25319, Note_on_c, 0, 62, 0
2, 25319, Note_on_c, 0, 65, 0
2, 25320, Note_on_c, 0, 57, 80
2, 25320, Note_on_c, 0, 65, 80
2, 25559, Note_on_c, 0, 57, 0
2, 25559, Note_on_c, 0, 65, 0
2, 25560, Note_on_c, 0, 57, 80
2, 25560, Note_on_c, 0, 62, 80
2, 25739, Note_on_c, 0, 57, 0
2, 25739, Note_on_c, 0, 62, 0
2, 26040, Note_on_c, 0, 62, 80
2, 26040, Note_on_c, 0, 65, 80
2, 26159, Note_on_c, 0, 62, 0
2, 26159, Note_on_c, 0, 65, 0
2, 26280, Note_on_c, 0, 59, 80
2, 26280, Note_on_c, 0, 62, 80
2, 26280, Note_on_c, 0, 65, 80
2, 26639, Note_on_c, 0, 59, 0
2, 26639, Note_on_c, 0, 62, 0
2, 26639, Note_on_c, 0, 65, 0
2, 26640, Note_on_c, 0, 62, 80
2, 26640, Note_on_c, 0, 65, 80
2, 26759, Note_on_c, 0, 62, 0
2, 26759, Note_on_c, 0, 65, 0
2, 26880, Key_signature, 0, "major"
2, 26880, Note_on_c, 0, 55, 80
2, 26880, Note_on_c, 0, 59, 80
2, 26880, Note_on_c, 0, 64, 80
2, 27119, Note_on_c, 0, 55, 0
2, 27119, Note_on_c, 0, 59, 0
2, 27119, Note_on_c, 0, 64, 0
2, 27120, Note_on_c, 0, 55, 80
2, 27120, Note_on_c, 0, 59, 80
2, 27120, Note_on_c, 0, 64, 80
2, 27479, Note_on_c, 0, 55, 0
2, 27479, Note_on_c, 0, 59, 0
2, 27479, Note_on_c, 0, 64, 0
2, 27480, Note_on_c, 0, 59, 80
2, 27480, Note_on_c, 0, 64, 80
2, 27599, Note_on_c, 0, 59, 0
2, 27599, Note_on_c, 0, 64, 0
2, 27720, Note_on_c, 0, 55, 80
2, 27720, Note_on_c, 0, 64, 80
2, 27959, Note_on_c, 0, 55, 0
2, 27959, Note_on_c, 0, 64, 0
2, 27960, Note_on_c, 0, 59, 80
2, 27960, Note_on_c, 0, 64, 80
2, 28079, Note_on_c, 0, 59, 0
2, 28079, Note_on_c, 0, 64, 0
2, 28200, Note_on_c, 0, 55, 80
2, 28200, Note_on_c, 0, 59, 80
2, 28200, Note_on_c, 0, 64, 80
2, 28559, Note_on_c, 0, 55, 0
2, 28559, Note_on_c, 0, 59, 0
2, 28559, Note_on_c, 0, 64, 0
2, 28560, Note_on_c, 0, 59, 80
2, 28560, Note_on_c, 0, 64, 80
2, 28679, Note_on_c, 0, 59, 0
2, 28679, Note_on_c, 0, 64, 0
2, 28800, Key_signature, 0, "major"
2, 28800, Note_on_c, 0, 62, 80
2, 28800, Note_on_c, 0, 65, 80
2, 29279, Note_on_c, 0, 62, 0
2, 29279, Note_on_c, 0, 65, 0
2, 29400, Note_on_c, 0, 62, 80
2, 29400, Note_on_c, 0, 65, 80
2, 29579, Note_on_c, 0, 62, 0
2, 29579, Note_on_c, 0, 65, 0
2, 29880, Note_on_c, 0, 60, 80
2, 29880, Note_on_c, 0, 64, 80
2, 30119, Note_on_c, 0, 60, 0
2, 30119, Note_on_c, 0, 64, 0
2, 30120, Note_on_c, 0, 60, 80
2, 30120, Note_on_c, 0, 64, 80
2, 30479, Note_on_c, 0, 60, 0
2, 30479, Note_on_c, 0, 64, 0
2, 30480, Note_on_c, 0, 59, 80
2, 30480, Note_on_c, 0, 64, 80
2, 30599, Note_on_c, 0, 59, 0
2, 30599, Note_on_c, 0, 64, 0
2, 30720, Note_on_c, 0, 64, 80
2, 30720, Note_on_c, 0, 67, 80
2, 30959, Note_on_c, 0, 64, 0
2, 30959, Note_on_c, 0, 67, 0
2, 30960, Note_on_c, 0, 64, 80
2, 30960, Note_on_c, 0, 67, 80
2, 31319, Note_on_c, 0, 64, 0
2, 31319, Note_on_c, 0, 67, 0
2, 31320, Note_on_c, 0, 67, 80
2, 31439, Note_on_c, 0, 67, 0
2, 31560, Note_on_c, 0, 64, 80
2, 31799, Note_on_c, 0, 64, 0
2, 31800, Note_on_c, 0, 64, 80
2, 31800, Note_on_c, 0, 67, 80
2, 31919, Note_on_c, 0, 64, 0
2, 31919, Note_on_c, 0, 67, 0
2, 32040, Note_on_c, 0, 64, 80
2, 32040, Note_on_c, 0, 67, 80
2, 32399, Note_on_c, 0, 64, 0
2, 32399, Note_on_c, 0, 67, 0
2, 32400, Note_on_c, 0, 67, 80
2, 32519, Note_on_c, 0, 67, 0
2, 32640, Note_on_c, 0, 60, 80
2, 32640, Note_on_c, 0, 64, 80
2, 32879, Note_on_c, 0, 60, 0
2, 32879, Note_on_c, 0, 64, 0
2, 32880, Note_on_c, 0, 60, 80
2, 32880, Note_on_c, 0, 64, 80
2, 33239, Note_on_c, 0, 60, 0
2, 33239, Note_on_c, 0, 64, 0
2, 33240, Note_on_c, 0, 60, 80
2, 33240, Note_on_c, 0, 64, 80
2, 33359, Note_on_c, 0, 60, 0
2, 33359, Note_on_c, 0, 64, 0
2, 33480, Note_on_c, 0, 64, 80
2, 33719, Note_on_c, 0, 64, 0
2, 33720, Note_on_c, 0, 60, 80
2, 33720, Note_on_c, 0, 64, 80
2, 33839, Note_on_c, 0, 60, 0
2, 33839, Note_on_c, 0, 64, 0
2, 33960, Note_on_c, 0, 60, 80
2, 33960, Note_on_c, 0, 64, 80
2, 34319, Note_on_c, 0, 60, 0
2, 34319, Note_on_c, 0, 64, 0
2, 34320, Note_on_c, 0, 60, 80
2, 34320, Note_on_c, 0, 64, 80
2, 34439, Note_on_c, 0, 60, 0
2, 34439, Note_on_c, 0, 64, 0
2, 34560, Note_on_c, 0, 59, 80
2, 34560, Note_on_c, 0, 62, 80
2, 34560, Note_on_c, 0, 64, 80
2, 34799, Note_on_c, 0, 59, 0
2, 34799, Note_on_c, 0, 62, 0
2, 34799, Note_on_c, 0, 64, 0
2, 34800, Note_on_c, 0, 59, 80
2, 34800, Note_on_c, 0, 62, 80
2, 34800, Note_on_c, 0, 64, 80
2, 35159, Note_on_c, 0, 59, 0
2, 35159, Note_on_c, 0, 62, 0
2, 35159, Note_on_c, 0, 64, 0
2, 35160, Note_on_c, 0, 59, 80
2, 35160, Note_on_c, 0, 62, 80
2, 35160, Note_on_c, 0, 64, 80
2, 35279, Note_on_c, 0, 59, 0
2, 35279, Note_on_c, 0, 62, 0
2, 35279, Note_on_c, 0, 64, 0
2, 35400, Note_on_c, 0, 62, 80
2, 35400, Note_on_c, 0, 69, 80
2, 35639, Note_on_c, 0, 62, 0
2, 35639, Note_on_c, 0, 69, 0
2, 35640, Note_on_c, 0, 62, 80
2, 35640, Note_on_c, 0, 69, 80
2, 35759, Note_on_c, 0, 62, 0
2, 35759, Note_on_c, 0, 69, 0
2, 35880, Note_on_c, 0, 62, 80
2, 35880, Note_on_c, 0, 67, 80
2, 36239, Note_on_c, 0, 62, 0
2, 36239, Note_on_c, 0, 67, 0
2, 36240, Note_on_c, 0, 62, 80
2, 36240, Note_on_c, 0, 67, 80
2, 36359, Note_on_c, 0, 62, 0
2, 36359, Note_on_c, 0, 67, 0
2, 36480, Key_signature, 0, "major"
2, 36480, Note_on_c, 0, 59, 80
2, 36480, Note_on_c, 0, 64, 80
2, 36480, Note_on_c, 0, 67, 80
2, 36839, Note_on_c, 0, 59, 0
2, 36839, Note_on_c, 0, 64, 0
2, 36839, Note_on_c, 0, 67, 0
2, 36840, Note_on_c, 0, 59, 80
2, 36840, Note_on_c, 0, 64, 80
2, 36840, Note_on_c, 0, 67, 80
2, 37079, Note_on_c, 0, 59, 0
2, 37079, Note_on_c, 0, 64, 0
2, 37079, Note_on_c, 0, 67, 0
2, 37080, Note_on_c, 0, 64, 80
2, 37080, Note_on_c, 0, 67, 80
2, 37199, Note_on_c, 0, 64, 0
2, 37199, Note_on_c, 0, 67, 0
2, 37320, Note_on_c, 0, 59, 80
2, 37320, Note_on_c, 0, 64, 80
2, 37320, Note_on_c, 0, 67, 80
2, 37559, Note_on_c, 0, 59, 0
2, 37559, Note_on_c, 0, 64, 0
2, 37559, Note_on_c, 0, 67, 0
2, 37560, Note_on_c, 0, 64, 80
2, 37560, Note_on_c, 0, 67, 80
2, 37679, Note_on_c, 0, 64, 0
2, 37679, Note_on_c, 0, 67, 0
2, 37800, Note_on_c, 0, 59, 80
2, 37800, Note_on_c, 0, 64, 80
2, 37800, Note_on_c, 0, 67, 80
2, 38159, Note_on_c, 0, 59, 0
2, 38159, Note_on_c, 0, 64, 0
2, 38159, Note_on_c, 0, 67, 0
2, 38160, Note_on_c, 0, 64, 80
2, 38160, Note_on_c, 0, 67, 80
2, 38279, Note_on_c, 0, 64, 0
2, 38279, Note_on_c, 0, 67, 0
2, 38400, Note_on_c, 0, 59, 80
2, 38400, Note_on_c, 0, 64, 80
2, 38400, Note_on_c, 0, 67, 80
2, 38759, Note_on_c, 0, 59, 0
2, 38759, Note_on_c, 0, 64, 0
2, 38759, Note_on_c, 0, 67, 0
2, 38760, Note_on_c, 0, 59, 80
2, 38760, Note_on_c, 0, 64, 80
2, 38760, Note_on_c, 0, 67, 80
2, 38999, Note_on_c, 0, 59, 0
2, 38999, Note_on_c, 0, 64, 0
2, 38999, Note_on_c, 0, 67, 0
2, 39000, Note_on_c, 0, 64, 80
2, 39000, Note_on_c, 0, 67, 80
2, 39119, Note_on_c, 0, 64, 0
2, 39119, Note_on_c, 0, 67, 0
2, 39240, Note_on_c, 0, 59, 80
2, 39240, Note_on_c, 0, 64, 80
2, 39240, Note_on_c, 0, 67, 80
2, 39479, Note_on_c, 0, 59, 0
2, 39479, Note_on_c, 0, 64, 0
2, 39479, Note_on_c, 0, 67, 0
2, 39480, Note_on_c, 0, 64, 80
2, 39480, Note_on_c, 0, 67, 80
2, 39599, Note_on_c, 0, 64, 0
2, 39599, Note_on_c, 0, 67, 0
2, 39720, Note_on_c, 0, 59, 80
2, 39720, Note_on_c, 0, 64, 80
2, 39720, Note_on_c, 0, 67, 80
2, 40079, Note_on_c, 0, 59, 0
2, 40079, Note_on_c, 0, 64, 0
2, 40079, Note_on_c, 0, 67, 0
2, 40080, Note_on_c, 0, 64, 80
2, 40080, Note_on_c, 0, 67, 80
2, 40199, Note_on_c, 0, 64, 0
2, 40199, Note_on_c, 0, 67, 0
2, 40320, Note_on_c, 0, 59, 80
2, 40320, Note_on_c, 0, 64, 80
2, 40320, Note_on_c, 0, 67, 80
2, 40679, Note_on_c, 0, 59, 0
2, 40679, Note_on_c, 0, 64, 0
2, 40679, Note_on_c, 0, 67, 0
2, 40680, Note_on_c, 0, 59, 80
2, 40680, Note_on_c, 0, 64, 80
2, 40680, Note_on_c, 0, 67, 80
2, 40919, Note_on_c, 0, 59, 0
2, 40919, Note_on_c, 0, 64, 0
2, 40919, Note_on_c, 0, 67, 0
2, 40920, Note_on_c, 0, 64, 80
2, 40920, Note_on_c, 0, 67, 80
2, 41039, Note_on_c, 0, 64, 0
2, 41039, Note_on_c, 0, 67, 0
2, 41160, Note_on_c, 0, 59, 80
2, 41160, Note_on_c, 0, 64, 80
2, 41160, Note_on_c, 0, 67, 80
2, 41399, Note_on_c, 0, 59, 0
2, 41399, Note_on_c, 0, 64, 0
2, 41399, Note_on_c, 0, 67, 0
2, 41400, Note_on_c, 0, 64, 80
2, 41400, Note_on_c, 0, 67, 80
2, 41519, Note_on_c, 0, 64, 0
2, 41519, Note_on_c, 0, 67, 0
2, 41640, Note_on_c, 0, 59, 80
2, 41640, Note_on_c, 0, 64, 80
2, 41640, Note_on_c, 0, 67, 80
2, 41999, Note_on_c, 0, 59, 0
2, 41999, Note_on_c, 0, 64, 0
2, 41999, Note_on_c, 0, 67, 0
2, 42000, Note_on_c, 0, 64, 80
2, 42000, Note_on_c, 0, 67, 80
2, 42119, Note_on_c, 0, 64, 0
2, 42119, Note_on_c, 0, 67, 0
2, 42240, Note_on_c, 0, 60, 80
2, 42240, Note_on_c, 0, 65, 80
2, 42240, Note_on_c, 0, 69, 80
2, 42599, Note_on_c, 0, 60, 0
2, 42599, Note_on_c, 0, 65, 0
2, 42599, Note_on_c, 0, 69, 0
2, 42600, Note_on_c, 0, 60, 80
2, 42600, Note_on_c, 0, 69, 80
2, 42839, Note_on_c, 0, 60, 0
2, 42839, Note_on_c, 0, 69, 0
2, 42840, Note_on_c, 0, 60, 80
2, 42840, Note_on_c, 0, 65, 80
2, 42840, Note_on_c, 0, 69, 80
2, 42959, Note_on_c, 0, 60, 0
2, 42959, Note_on_c, 0, 65, 0
2, 42959, Note_on_c, 0, 69, 0
2, 43080, Note_on_c, 0, 59, 80
2, 43080, Note_on_c, 0, 62, 80
2, 43080, Note_on_c, 0, 69, 80
2, 43319, Note_on_c, 0, 59, 0
2, 43319, Note_on_c, 0, 62, 0
2, 43319, Note_on_c, 0, 69, 0
2, 43320, Note_on_c, 0, 59, 80
2, 43320, Note_on_c, 0, 65, 80
2, 43320, Note_on_c, 0, 69, 80
2, 43439, Note_on_c, 0, 59, 0
2, 43439, Note_on_c, 0, 65, 0
2, 43439, Note_on_c, 0, 69, 0
2, 43560, Note_on_c, 0, 59, 80
2, 43560, Note_on_c, 0, 62, 80
2, 43560, Note_on_c, 0, 69, 80
2, 43919, Note_on_c, 0, 59, 0
2, 43919, Note_on_c, 0, 62, 0
2, 43919, Note_on_c, 0, 69, 0
2, 43920, Note_on_c, 0, 59, 80
2, 43920, Note_on_c, 0, 65, 80
2, 43920, Note_on_c, 0, 69, 80
2, 44039, Note_on_c, 0, 59, 0
2, 44039, Note_on_c, 0, 65, 0
2, 44039, Note_on_c, 0, 69, 0
2, 44160, Note_on_c, 0, 60, 80
2, 44160, Note_on_c, 0, 65, 80
2, 44160, Note_on_c, 0, 69, 80
2, 44519, Note_on_c, 0, 60, 0
2, 44519, Note_on_c, 0, 65, 0
2, 44519, Note_on_c, 0, 69, 0
2, 44520, Note_on_c, 0, 60, 80
2, 44520, Note_on_c, 0, 69, 80
2, 44759, Note_on_c, 0, 60, 0
2, 44759, Note_on_c, 0, 69, 0
2, 44760, Note_on_c, 0, 60, 80
2, 44760, Note_on_c, 0, 65, 80
2, 44760, Note_on_c, 0, 69, 80
2, 44879, Note_on_c, 0, 60, 0
2, 44879, Note_on_c, 0, 65, 0
2, 44879, Note_on_c, 0, 69, 0
2, 45000, Note_on_c, 0, 59, 80
2, 45000, Note_on_c, 0, 62, 80
2, 45000, Note_on_c, 0, 69, 80
2, 45239, Note_on_c, 0, 59, 0
2, 45239, Note_on_c, 0, 62, 0
2, 45239, Note_on_c, 0, 69, 0
2, 45240, Note_on_c, 0, 59, 80
2, 45240, Note_on_c, 0, 65, 80
2, 45240, Note_on_c, 0, 69, 80
2, 45359, Note_on_c, 0, 59, 0
2, 45359, Note_on_c, 0, 65, 0
2, 45359, Note_on_c, 0, 69, 0
2, 45480, Note_on_c, 0, 59, 80
2, 45480, Note_on_c, 0, 62, 80
2, 45480, Note_on_c, 0, 69, 80
2, 45839, Note_on_c, 0, 59, 0
2, 45839, Note_on_c, 0, 62, 0
2, 45839, Note_on_c, 0, 69, 0
2, 45840, Note_on_c, 0, 59, 80
2, 45840, Note_on_c, 0, 65, 80
2, 45840, Note_on_c, 0, 69, 80
2, 45959, Note_on_c, 0, 59, 0
2, 45959, Note_on_c, 0, 65, 0
2, 45959, Note_on_c, 0, 69, 0
2, 46080, Note_on_c, 0, 60, 80
2, 46080, Note_on_c, 0, 65, 80
2, 46080, Note_on_c, 0, 69, 80
2, 46439, Note_on_c, 0, 60, 0
2, 46439, Note_on_c, 0, 65, 0
2, 46439, Note_on_c, 0, 69, 0
2, 46440, Note_on_c, 0, 60, 80
2, 46440, Note_on_c, 0, 69, 80
2, 46679, Note_on_c, 0, 60, 0
2, 46679, Note_on_c, 0, 69, 0
2, 46680, Note_on_c, 0, 60, 80
2, 46680, Note_on_c, 0, 65, 80
2, 46680, Note_on_c, 0, 69, 80
2, 46799, Note_on_c, 0, 60, 0
2, 46799, Note_on_c, 0, 65, 0
2, 46799, Note_on_c, 0, 69, 0
2, 46920, Note_on_c, 0, 59, 80
2, 46920, Note_on_c, 0, 62, 80
2, 46920, Note_on_c, 0, 69, 80
2, 47159, Note_on_c, 0, 59, 0
2, 47159, Note_on_c, 0, 62, 0
2, 47159, Note_on_c, 0, 69, 0
2, 47160, Note_on_c, 0, 59, 80
2, 47160, Note_on_c, 0, 65, 80
2, 47160, Note_on_c, 0, 69, 80
2, 47279, Note_on_c, 0, 59, 0
2, 47279, Note_on_c, 0, 65, 0
2, 47279, Note_on_c, 0, 69, 0
2, 47400, Note_on_c, 0, 59, 80
2, 47400, Note_on_c, 0, 62, 80
2, 47400, Note_on_c, 0, 69, 80
2, 47759, Note_on_c, 0, 59, 0
2, 47759, Note_on_c, 0, 62, 0
2, 47759, Note_on_c, 0, 69, 0
2, 47760, Note_on_c, 0, 59, 80
2, 47760, Note_on_c, 0, 65, 80
2, 47760, Note_on_c, 0, 69, 80
2, 47879, Note_on_c, 0, 59, 0
2, 47879, Note_on_c, 0, 65, 0
2, 47879, Note_on_c, 0, 69, 0
2, 48000, Note_on_c, 0, 60, 80
2, 48000, Note_on_c, 0, 65, 80
2, 48000, Note_on_c, 0, 69, 80
2, 48359, Note_on_c, 0, 60, 0
2, 48359, Note_on_c, 0, 65, 0
2, 48359, Note_on_c, 0, 69, 0
2, 48360, Note_on_c, 0, 60, 80
2, 48360, Note_on_c, 0, 69, 80
2, 48599, Note_on_c, 0, 60, 0
2, 48599, Note_on_c, 0, 69, 0
2, 48600, Note_on_c, 0, 60, 80
2, 48600, Note_on_c, 0, 65, 80
2, 48600, Note_on_c, 0, 69, 80
2, 48719, Note_on_c, 0, 60, 0
2, 48719, Note_on_c, 0, 65, 0
2, 48719, Note_on_c, 0, 69, 0
2, 48840, Note_on_c, 0, 59, 80
2, 48840, Note_on_c, 0, 62, 80
2, 48840, Note_on_c, 0, 69, 80
2, 49079, Note_on_c, 0, 59, 0
2, 49079, Note_on_c, 0, 62, 0
2, 49079, Note_on_c, 0, 69, 0
2, 49080, Note_on_c, 0, 59, 80
2, 49080, Note_on_c, 0, 65, 80
2, 49080, Note_on_c, 0, 69, 80
2, 49199, Note_on_c, 0, 59, 0
2, 49199, Note_on_c, 0, 65, 0
2, 49199, Note_on_c, 0, 69, 0
2, 49320, Note_on_c, 0, 59, 80
2, 49320, Note_on_c, 0, 62, 80
2, 49320, Note_on_c, 0, 69, 80
2, 49679, Note_on_c, 0, 59, 0
2, 49679, Note_on_c, 0, 62, 0
2, 49679, Note_on_c, 0, 69, 0
2, 49680, Note_on_c, 0, 59, 80
2, 49680, Note_on_c, 0, 65, 80
2, 49680, Note_on_c, 0, 69, 80
2, 49799, Note_on_c, 0, 59, 0
2, 49799, Note_on_c, 0, 65, 0
2, 49799, Note_on_c, 0, 69, 0
2, 49920, Note_on_c, 0, 59, 80
2, 49920, Note_on_c, 0, 64, 80
2, 49920, Note_on_c, 0, 67, 80
2, 50279, Note_on_c, 0, 59, 0
2, 50279, Note_on_c, 0, 64, 0
2, 50279, Note_on_c, 0, 67, 0
2, 50280, Note_on_c, 0, 59, 80
2, 50280, Note_on_c, 0, 67, 80
2, 50519, Note_on_c, 0, 59, 0
2, 50519, Note_on_c, 0, 67, 0
2, 50520, Note_on_c, 0, 64, 80
2, 50520, Note_on_c, 0, 67, 80
2, 50639, Note_on_c, 0, 64, 0
2, 50639, Note_on_c, 0, 67, 0
2, 50760, Note_on_c, 0, 59, 80
2, 50760, Note_on_c, 0, 67, 80
2, 50999, Note_on_c, 0, 59, 0
2, 50999, Note_on_c, 0, 67, 0
2, 51000, Note_on_c, 0, 64, 80
2, 51000, Note_on_c, 0, 67, 80
2, 51119, Note_on_c, 0, 64, 0
2, 51119, Note_on_c, 0, 67, 0
2, 51240, Note_on_c, 0, 59, 80
2, 51240, Note_on_c, 0, 67, 80
2, 51599, Note_on_c, 0, 59, 0
2, 51599, Note_on_c, 0, 67, 0
2, 51600, Note_on_c, 0, 64, 80
2, 51600, Note_on_c, 0, 67, 80
2, 51719, Note_on_c, 0, 64, 0
2, 51719, Note_on_c, 0, 67, 0
2, 51840, Note_on_c, 0, 59, 80
2, 51840, Note_on_c, 0, 64, 80
2, 51840, Note_on_c, 0, 67, 80
2, 52199, Note_on_c, 0, 59, 0
2, 52199, Note_on_c, 0, 64, 0
2, 52199, Note_on_c, 0, 67, 0
2, 52200, Note_on_c, 0, 59, 80
2, 52200, Note_on_c, 0, 67, 80
2, 52439, Note_on_c, 0, 59, 0
2, 52439, Note_on_c, 0, 67, 0
2, 52440, Note_on_c, 0, 64, 80
2, 52440, Note_on_c, 0, 67, 80
2, 52559, Note_on_c, 0, 64, 0
2, 52559, Note_on_c, 0, 67, 0
2, 52680, Note_on_c, 0, 59, 80
2, 52680, Note_on_c, 0, 67, 80
2, 52919, Note_on_c, 0, 59, 0
2, 52919, Note_on_c, 0, 67, 0
2, 52920, Note_on_c, 0, 64, 80
2, 52920, Note_on_c, 0, 67, 80
2, 53039, Note_on_c, 0, 64, 0
2, 53039, Note_on_c, 0, 67, 0
2, 53160, Note_on_c, 0, 59, 80
2, 53160, Note_on_c, 0, 67, 80
2, 53519, Note_on_c, 0, 59, 0
2, 53519, Note_on_c, 0, 67, 0
2, 53520, Note_on_c, 0, 64, 80
2, 53520, Note_on_c, 0, 67, 80
2, 53639, Note_on_c, 0, 64, 0
2, 53639, Note_on_c, 0, 67, 0
2, 53760, Note_on_c, 0, 59, 80
2, 53760, Note_on_c, 0, 64, 80
2, 53760, Note_on_c, 0, 67, 80
2, 54239, Note_on_c, 0, 59, 0
2, 54239, Note_on_c, 0, 64, 0
2, 54239, Note_on_c, 0, 67, 0
2, 54240, End_track
3, 0, Start_track
3, 0, Title_t, "6-str. Electric Bass, Bass\000"
3, 0, Key_signature, 0, "major"
3, 0, Control_c, 10, 121, 0
3, 0, Program_c, 10, 33
3, 0, Control_c, 10, 7, 100
3, 0, Control_c, 10, 10, 64
3, 0, Control_c, 10, 91, 0
3, 0, Control_c, 10, 93, 0
3, 0, MIDI_port, 0
3, 0, Control_c, 5, 121, 0
3, 0, Program_c, 5, 36
3, 0, Control_c, 5, 7, 100
3, 0, Control_c, 5, 10, 64
3, 0, Control_c, 5, 91, 0
3, 0, Control_c, 5, 93, 0
3, 0, MIDI_port, 0
3, 0, Control_c, 6, 121, 0
3, 0, Program_c, 6, 37
3, 0, Control_c, 6, 7, 100
3, 0, Control_c, 6, 10, 64
3, 0, Control_c, 6, 91, 0
3, 0, Control_c, 6, 93, 0
3, 0, MIDI_port, 0
3, 5760, Note_on_c, 10, 60, 80
3, 6239, Note_on_c, 10, 60, 0
3, 6240, Note_on_c, 10, 55, 80
3, 6719, Note_on_c, 10, 55, 0
3, 6720, Note_on_c, 10, 60, 80
3, 7199, Note_on_c, 10, 60, 0
3, 7200, Note_on_c, 10, 55, 80
3, 7679, Note_on_c, 10, 55, 0
3, 7680, Note_on_c, 10, 60, 80
3, 8159, Note_on_c, 10, 60, 0
3, 8160, Note_on_c, 10, 55, 80
3, 8639, Note_on_c, 10, 55, 0
3, 8640, Note_on_c, 10, 60, 80
3, 9119, Note_on_c, 10, 60, 0
3, 9120, Note_on_c, 10, 55, 80
3, 9599, Note_on_c, 10, 55, 0
3, 9600, Note_on_c, 10, 60, 80
3, 10079, Note_on_c, 10, 60, 0
3, 10080, Note_on_c, 10, 60, 80
3, 10559, Note_on_c, 10, 60, 0
3, 10560, Note_on_c, 10, 60, 80
3, 11039, Note_on_c, 10, 60, 0
3, 11040, Note_on_c, 10, 60, 80
3, 11519, Note_on_c, 10, 60, 0
3, 11520, Note_on_c, 10, 62, 80
3, 11999, Note_on_c, 10, 62, 0
3, 12000, Note_on_c, 10, 62, 80
3, 12479, Note_on_c, 10, 62, 0
3, 12480, Note_on_c, 10, 55, 80
3, 12959, Note_on_c, 10, 55, 0
3, 12960, Note_on_c, 10, 55, 80
3, 13439, Note_on_c, 10, 55, 0
3, 13440, Note_on_c, 10, 62, 80
3, 13919, Note_on_c, 10, 62, 0
3, 13920, Note_on_c, 10, 62, 80
3, 14399, Note_on_c, 10, 62, 0
3, 14400, Note_on_c, 10, 55, 80
3, 14879, Note_on_c, 10, 55, 0
3, 14880, Note_on_c, 10, 55, 80
3, 15359, Note_on_c, 10, 55, 0
3, 15360, Note_on_c, 10, 62, 80
3, 15839, Note_on_c, 10, 62, 0
3, 15840, Note_on_c, 10, 62, 80
3, 16319, Note_on_c, 10, 62, 0
3, 16320, Note_on_c, 10, 55, 80
3, 16799, Note_on_c, 10, 55, 0
3, 16800, Note_on_c, 10, 55, 80
3, 17279, Note_on_c, 10, 55, 0
3, 17280, Note_on_c, 10, 62, 80
3, 17759, Note_on_c, 10, 62, 0
3, 17760, Note_on_c, 10, 62, 80
3, 18239, Note_on_c, 10, 62, 0
3, 18240, Note_on_c, 10, 55, 80
3, 18719, Note_on_c, 10, 55, 0
3, 18720, Note_on_c, 10, 55, 80
3, 19199, Note_on_c, 10, 55, 0
3, 19200, Note_on_c, 10, 60, 80
3, 19679, Note_on_c, 10, 60, 0
3, 19680, Note_on_c, 10, 55, 80
3, 20159, Note_on_c, 10, 55, 0
3, 20160, Note_on_c, 10, 60, 80
3, 20639, Note_on_c, 10, 60, 0
3, 20640, Note_on_c, 10, 60, 80
3, 21119, Note_on_c, 10, 60, 0
3, 21120, Note_on_c, 10, 50, 80
3, 21599, Note_on_c, 10, 50, 0
3, 21600, Note_on_c, 10, 50, 80
3, 22079, Note_on_c, 10, 50, 0
3, 22080, Note_on_c, 10, 55, 80
3, 22559, Note_on_c, 10, 55, 0
3, 22560, Note_on_c, 10, 55, 80
3, 23039, Note_on_c, 10, 55, 0
3, 23040, Note_on_c, 10, 60, 80
3, 23519, Note_on_c, 10, 60, 0
3, 23520, Note_on_c, 10, 60, 80
3, 23999, Note_on_c, 10, 60, 0
3, 24000, Note_on_c, 10, 55, 80
3, 24479, Note_on_c, 10, 55, 0
3, 24480, Note_on_c, 10, 57, 80
3, 24959, Note_on_c, 10, 57, 0
3, 24960, Key_signature, 0, "major"
3, 24960, Note_on_c, 10, 50, 80
3, 25439, Note_on_c, 10, 50, 0
3, 25440, Note_on_c, 10, 50, 80
3, 25919, Note_on_c, 10, 50, 0
3, 25920, Note_on_c, 10, 55, 80
3, 26399, Note_on_c, 10, 55, 0
3, 26400, Note_on_c, 10, 55, 80
3, 26879, Note_on_c, 10, 55, 0
3, 26880, Key_signature, 0, "major"
3, 26880, Note_on_c, 10, 60, 80
3, 27359, Note_on_c, 10, 60, 0
3, 27360, Note_on_c, 10, 60, 80
3, 27839, Note_on_c, 10, 60, 0
3, 27840, Note_on_c, 10, 60, 80
3, 28319, Note_on_c, 10, 60, 0
3, 28320, Note_on_c, 10, 60, 80
3, 28799, Note_on_c, 10, 60, 0
3, 28800, Key_signature, 0, "major"
3, 28800, Note_on_c, 10, 59, 80
3, 29279, Note_on_c, 10, 59, 0
3, 29280, Note_on_c, 10, 59, 80
3, 29759, Note_on_c, 10, 59, 0
3, 29760, Note_on_c, 10, 64, 80
3, 30239, Note_on_c, 10, 64, 0
3, 30240, Note_on_c, 10, 64, 80
3, 30719, Note_on_c, 10, 64, 0
3, 30720, Note_on_c, 10, 69, 80
3, 31199, Note_on_c, 10, 69, 0
3, 31200, Note_on_c, 10, 64, 80
3, 31679, Note_on_c, 10, 64, 0
3, 31680, Note_on_c, 10, 69, 80
3, 32159, Note_on_c, 10, 69, 0
3, 32160, Note_on_c, 10, 64, 80
3, 32399, Note_on_c, 10, 64, 0
3, 32400, Note_on_c, 10, 64, 80
3, 32639, Note_on_c, 10, 64, 0
3, 32640, Note_on_c, 10, 62, 80
3, 33119, Note_on_c, 10, 62, 0
3, 33120, Note_on_c, 10, 57, 80
3, 33599, Note_on_c, 10, 57, 0
3, 33600, Note_on_c, 10, 64, 80
3, 34079, Note_on_c, 10, 64, 0
3, 34080, Note_on_c, 10, 62, 80
3, 34559, Note_on_c, 10, 62, 0
3, 34560, Note_on_c, 10, 67, 80
3, 35039, Note_on_c, 10, 67, 0
3, 35040, Note_on_c, 10, 67, 80
3, 35519, Note_on_c, 10, 67, 0
3, 35520, Note_on_c, 10, 60, 80
3, 35999, Note_on_c, 10, 60, 0
3, 36000, Note_on_c, 10, 60, 80
3, 36479, Note_on_c, 10, 60, 0
3, 36480, Key_signature, 0, "major"
3, 36480, Note_on_c, 10, 60, 80
3, 36959, Note_on_c, 10, 60, 0
3, 36960, Note_on_c, 10, 55, 80
3, 37439, Note_on_c, 10, 55, 0
3, 37440, Note_on_c, 10, 60, 80
3, 37919, Note_on_c, 10, 60, 0
3, 37920, Note_on_c, 10, 55, 80
3, 38399, Note_on_c, 10, 55, 0
3, 38400, Note_on_c, 10, 60, 80
3, 38879, Note_on_c, 10, 60, 0
3, 38880, Note_on_c, 10, 55, 80
3, 39359, Note_on_c, 10, 55, 0
3, 39360, Note_on_c, 10, 60, 80
3, 39839, Note_on_c, 10, 60, 0
3, 39840, Note_on_c, 10, 55, 80
3, 40319, Note_on_c, 10, 55, 0
3, 40320, Note_on_c, 10, 60, 80
3, 40799, Note_on_c, 10, 60, 0
3, 40800, Note_on_c, 10, 60, 80
3, 41279, Note_on_c, 10, 60, 0
3, 41280, Note_on_c, 10, 60, 80
3, 41759, Note_on_c, 10, 60, 0
3, 41760, Note_on_c, 10, 60, 80
3, 42239, Note_on_c, 10, 60, 0
3, 42240, Note_on_c, 10, 62, 80
3, 42719, Note_on_c, 10, 62, 0
3, 42720, Note_on_c, 10, 62, 80
3, 43199, Note_on_c, 10, 62, 0
3, 43200, Note_on_c, 10, 55, 80
3, 43679, Note_on_c, 10, 55, 0
3, 43680, Note_on_c, 10, 55, 80
3, 44159, Note_on_c, 10, 55, 0
3, 44160, Note_on_c, 10, 62, 80
3, 44639, Note_on_c, 10, 62, 0
3, 44640, Note_on_c, 10, 62, 80
3, 45119, Note_on_c, 10, 62, 0
3, 45120, Note_on_c, 10, 55, 80
3, 45599, Note_on_c, 10, 55, 0
3, 45600, Note_on_c, 10, 55, 80
3, 46079, Note_on_c, 10, 55, 0
3, 46080, Note_on_c, 10, 62, 80
3, 46559, Note_on_c, 10, 62, 0
3, 46560, Note_on_c, 10, 62, 80
3, 47039, Note_on_c, 10, 62, 0
3, 47040, Note_on_c, 10, 55, 80
3, 47519, Note_on_c, 10, 55, 0
3, 47520, Note_on_c, 10, 55, 80
3, 47999, Note_on_c, 10, 55, 0
3, 48000, Note_on_c, 10, 62, 80
3, 48479, Note_on_c, 10, 62, 0
3, 48480, Note_on_c, 10, 62, 80
3, 48959, Note_on_c, 10, 62, 0
3, 48960, Note_on_c, 10, 55, 80
3, 49439, Note_on_c, 10, 55, 0
3, 49440, Note_on_c, 10, 55, 80
3, 49919, Note_on_c, 10, 55, 0
3, 49920, Note_on_c, 10, 60, 80
3, 50399, Note_on_c, 10, 60, 0
3, 50400, Note_on_c, 10, 55, 80
3, 50879, Note_on_c, 10, 55, 0
3, 50880, Note_on_c, 10, 60, 80
3, 51359, Note_on_c, 10, 60, 0
3, 51360, Note_on_c, 10, 55, 80
3, 51839, Note_on_c, 10, 55, 0
3, 51840, Note_on_c, 10, 60, 80
3, 52319, Note_on_c, 10, 60, 0
3, 52320, Note_on_c, 10, 55, 80
3, 52799, Note_on_c, 10, 55, 0
3, 52800, Note_on_c, 10, 60, 80
3, 53279, Note_on_c, 10, 60, 0
3, 53280, Note_on_c, 10, 55, 80
3, 53759, Note_on_c, 10, 55, 0
3, 53760, Note_on_c, 10, 60, 80
3, 54719, Note_on_c, 10, 60, 0
3, 54720, End_track
4, 0, Start_track
4, 0, Title_t, "Chimes, Piano, Piano\000"
4, 0, Key_signature, 0, "major"
4, 0, Control_c, 2, 121, 0
4, 0, Program_c, 2, 14
4, 0, Control_c, 2, 7, 100
4, 0, Control_c, 2, 10, 64
4, 0, Control_c, 2, 91, 0
4, 0, Control_c, 2, 93, 0
4, 0, MIDI_port, 0
4, 13440, Note_on_c, 2, 74, 80
4, 14399, Note_on_c, 2, 74, 0
4, 14400, Note_on_c, 2, 67, 80
4, 15359, Note_on_c, 2, 67, 0
4, 15840, Note_on_c, 2, 74, 80
4, 16319, Note_on_c, 2, 74, 0
4, 16320, Note_on_c, 2, 67, 80
4, 17279, Note_on_c, 2, 67, 0
4, 17280, Note_on_c, 2, 67, 80
4, 18239, Note_on_c, 2, 67, 0
4, 18240, Note_on_c, 2, 67, 80
4, 19199, Note_on_c, 2, 67, 0
4, 19200, Note_on_c, 2, 67, 80
4, 20159, Note_on_c, 2, 67, 0
4, 21120, Key_signature, 0, "major"
4, 22800, Note_on_c, 2, 77, 80
4, 23039, Note_on_c, 2, 77, 0
4, 23040, Note_on_c, 2, 76, 80
4, 23399, Note_on_c, 2, 76, 0
4, 23400, Note_on_c, 2, 79, 80
4, 23759, Note_on_c, 2, 79, 0
4, 24960, Key_signature, 0, "major"
4, 25680, Note_on_c, 2, 76, 80
4, 25919, Note_on_c, 2, 76, 0
4, 25920, Note_on_c, 2, 77, 80
4, 26279, Note_on_c, 2, 77, 0
4, 26280, Note_on_c, 2, 77, 80
4, 26639, Note_on_c, 2, 77, 0
4, 26880, Key_signature, 0, "major"
4, 26880, Note_on_c, 2, 79, 80
4, 27359, Note_on_c, 2, 79, 0
4, 28800, Key_signature, 0, "major"
4, 28800, Note_on_c, 2, 65, 80
4, 29279, Note_on_c, 2, 65, 0
4, 29760, Note_on_c, 2, 64, 80
4, 30239, Note_on_c, 2, 64, 0
4, 30480, Note_on_c, 2, 64, 80
4, 30719, Note_on_c, 2, 64, 0
4, 30720, Note_on_c, 2, 72, 80
4, 31079, Note_on_c, 2, 72, 0
4, 31080, Note_on_c, 2, 71, 80
4, 31439, Note_on_c, 2, 71, 0
4, 32400, Note_on_c, 2, 64, 80
4, 32639, Note_on_c, 2, 64, 0
4, 32640, Note_on_c, 2, 72, 80
4, 33119, Note_on_c, 2, 72, 0
4, 33600, Note_on_c, 2, 72, 80
4, 34079, Note_on_c, 2, 72, 0
4, 34320, Note_on_c, 2, 64, 80
4, 34559, Note_on_c, 2, 64, 0
4, 35520, Note_on_c, 2, 67, 80
4, 35999, Note_on_c, 2, 67, 0
4, 36000, Note_on_c, 2, 65, 80
4, 36239, Note_on_c, 2, 65, 0
4, 36240, Note_on_c, 2, 67, 80
4, 36479, Note_on_c, 2, 67, 0
4, 36480, Key_signature, 0, "major"
4, 36480, Note_on_c, 2, 76, 80
4, 36719, Note_on_c, 2, 76, 0
4, 36720, Note_on_c, 2, 72, 80
4, 36839, Note_on_c, 2, 72, 0
4, 36840, Note_on_c, 2, 69, 80
4, 37199, Note_on_c, 2, 69, 0
4, 37920, Note_on_c, 2, 79, 80
4, 38159, Note_on_c, 2, 79, 0
4, 38160, Note_on_c, 2, 77, 80
4, 38279, Note_on_c, 2, 77, 0
4, 38400, Note_on_c, 2, 76, 80
4, 38639, Note_on_c, 2, 76, 0
4, 38640, Note_on_c, 2, 72, 80
4, 38759, Note_on_c, 2, 72, 0
4, 38760, Note_on_c, 2, 69, 80
4, 39119, Note_on_c, 2, 69, 0
4, 40080, Note_on_c, 2, 67, 80
4, 40199, Note_on_c, 2, 67, 0
4, 40200, Note_on_c, 2, 69, 80
4, 40559, Note_on_c, 2, 69, 0
4, 40560, Note_on_c, 2, 76, 80
4, 40799, Note_on_c, 2, 76, 0
4, 41040, Note_on_c, 2, 67, 80
4, 41159, Note_on_c, 2, 67, 0
4, 41160, Note_on_c, 2, 69, 80
4, 41639, Note_on_c, 2, 69, 0
4, 41760, Note_on_c, 2, 76, 80
4, 41999, Note_on_c, 2, 76, 0
4, 42000, Note_on_c, 2, 79, 80
4, 42119, Note_on_c, 2, 79, 0
4, 42240, Note_on_c, 2, 79, 80
4, 42479, Note_on_c, 2, 79, 0
4, 42480, Note_on_c, 2, 72, 80
4, 42599, Note_on_c, 2, 72, 0
4, 42600, Note_on_c, 2, 69, 80
4, 42959, Note_on_c, 2, 69, 0
4, 43680, Note_on_c, 2, 67, 80
4, 43919, Note_on_c, 2, 67, 0
4, 43920, Note_on_c, 2, 67, 80
4, 44039, Note_on_c, 2, 67, 0
4, 44160, Note_on_c, 2, 69, 80
4, 44399, Note_on_c, 2, 69, 0
4, 44400, Note_on_c, 2, 69, 80
4, 44519, Note_on_c, 2, 69, 0
4, 44640, Note_on_c, 2, 79, 80
4, 44879, Note_on_c, 2, 79, 0
4, 44880, Note_on_c, 2, 76, 80
4, 45359, Note_on_c, 2, 76, 0
4, 45840, Note_on_c, 2, 67, 80
4, 45959, Note_on_c, 2, 67, 0
4, 46080, Note_on_c, 2, 69, 80
4, 46319, Note_on_c, 2, 69, 0
4, 46320, Note_on_c, 2, 69, 80
4, 46439, Note_on_c, 2, 69, 0
4, 46560, Note_on_c, 2, 79, 80
4, 46799, Note_on_c, 2, 79, 0
4, 46800, Note_on_c, 2, 76, 80
4, 47279, Note_on_c, 2, 76, 0
4, 48000, Note_on_c, 2, 79, 80
4, 48239, Note_on_c, 2, 79, 0
4, 48240, Note_on_c, 2, 72, 80
4, 48359, Note_on_c, 2, 72, 0
4, 48360, Note_on_c, 2, 69, 80
4, 48719, Note_on_c, 2, 69, 0
4, 48720, Note_on_c, 2, 67, 80
4, 48839, Note_on_c, 2, 67, 0
4, 48840, Note_on_c, 2, 76, 80
4, 49199, Note_on_c, 2, 76, 0
4, 49440, Note_on_c, 2, 76, 80
4, 49679, Note_on_c, 2, 76, 0
4, 49680, Note_on_c, 2, 79, 80
4, 49919, Note_on_c, 2, 79, 0
4, 49920, Note_on_c, 2, 76, 80
4, 50159, Note_on_c, 2, 76, 0
4, 50160, Note_on_c, 2, 72, 80
4, 50279, Note_on_c, 2, 72, 0
4, 50280, Note_on_c, 2, 69, 80
4, 50639, Note_on_c, 2, 69, 0
4, 50640, End_track
5, 0, Start_track
5, 0, Title_t, "Classical Guitar, Classical Guitar, Classical Guitar\000"
5, 0, Key_signature, 0, "major"
5, 0, Control_c, 3, 121, 0
5, 0, Program_c, 3, 24
5, 0, Control_c, 3, 7, 88
5, 0, Control_c, 3, 10, 64
5, 0, Control_c, 3, 91, 0
5, 0, Control_c, 3, 93, 0
5, 0, MIDI_port, 0
5, 0, Note_on_c, 3, 48, 80
5, 0, Control_c, 7, 121, 0
5, 0, Program_c, 7, 28
5, 0, Control_c, 7, 7, 100
5, 0, Control_c, 7, 10, 64
5, 0, Control_c, 7, 91, 0
5, 0, Control_c, 7, 93, 0
5, 0, MIDI_port, 0
5, 239, Note_on_c, 3, 48, 0
5, 240, Note_on_c, 3, 48, 80
5, 599, Note_on_c, 3, 48, 0
5, 600, Note_on_c, 3, 48, 80
5, 719, Note_on_c, 3, 48, 0
5, 840, Note_on_c, 3, 48, 80
5, 1199, Note_on_c, 3, 48, 0
5, 1320, Note_on_c, 3, 48, 80
5, 1439, Note_on_c, 3, 48, 0
5, 1440, Note_on_c, 3, 48, 80
5, 1679, Note_on_c, 3, 48, 0
5, 1680, Note_on_c, 3, 48, 80
5, 1799, Note_on_c, 3, 48, 0
5, 1920, Note_on_c, 3, 48, 80
5, 2159, Note_on_c, 3, 48, 0
5, 2160, Note_on_c, 3, 48, 80
5, 2519, Note_on_c, 3, 48, 0
5, 2520, Note_on_c, 3, 48, 80
5, 2639, Note_on_c, 3, 48, 0
5, 2760, Note_on_c, 3, 48, 80
5, 3119, Note_on_c, 3, 48, 0
5, 3240, Note_on_c, 3, 48, 80
5, 3359, Note_on_c, 3, 48, 0
5, 3360, Note_on_c, 3, 48, 80
5, 3599, Note_on_c, 3, 48, 0
5, 3600, Note_on_c, 3, 48, 80
5, 3719, Note_on_c, 3, 48, 0
5, 3840, Note_on_c, 3, 48, 80
5, 4079, Note_on_c, 3, 48, 0
5, 4080, Note_on_c, 3, 48, 80
5, 4439, Note_on_c, 3, 48, 0
5, 4440, Note_on_c, 3, 48, 80
5, 4559, Note_on_c, 3, 48, 0
5, 4680, Note_on_c, 3, 48, 80
5, 5039, Note_on_c, 3, 48, 0
5, 5160, Note_on_c, 3, 48, 80
5, 5279, Note_on_c, 3, 48, 0
5, 5280, Note_on_c, 3, 48, 80
5, 5519, Note_on_c, 3, 48, 0
5, 5520, Note_on_c, 3, 48, 80
5, 5639, Note_on_c, 3, 48, 0
5, 5760, Note_on_c, 3, 48, 80
5, 5999, Note_on_c, 3, 48, 0
5, 6000, Note_on_c, 3, 48, 80
5, 6359, Note_on_c, 3, 48, 0
5, 6360, Note_on_c, 3, 48, 80
5, 6479, Note_on_c, 3, 48, 0
5, 6600, Note_on_c, 3, 48, 80
5, 6959, Note_on_c, 3, 48, 0
5, 7080, Note_on_c, 3, 48, 80
5, 7199, Note_on_c, 3, 48, 0
5, 7200, Note_on_c, 3, 48, 80
5, 7439, Note_on_c, 3, 48, 0
5, 7440, Note_on_c, 3, 48, 80
5, 7559, Note_on_c, 3, 48, 0
5, 7680, Note_on_c, 3, 48, 80
5, 7919, Note_on_c, 3, 48, 0
5, 7920, Note_on_c, 3, 48, 80
5, 8279, Note_on_c, 3, 48, 0
5, 8280, Note_on_c, 3, 48, 80
5, 8399, Note_on_c, 3, 48, 0
5, 8520, Note_on_c, 3, 48, 80
5, 8879, Note_on_c, 3, 48, 0
5, 9000, Note_on_c, 3, 48, 80
5, 9119, Note_on_c, 3, 48, 0
5, 9120, Note_on_c, 3, 48, 80
5, 9359, Note_on_c, 3, 48, 0
5, 9360, Note_on_c, 3, 48, 80
5, 9479, Note_on_c, 3, 48, 0
5, 9600, Note_on_c, 3, 48, 80
5, 9839, Note_on_c, 3, 48, 0
5, 9840, Note_on_c, 3, 48, 80
5, 10199, Note_on_c, 3, 48, 0
5, 10200, Note_on_c, 3, 48, 80
5, 10319, Note_on_c, 3, 48, 0
5, 10440, Note_on_c, 3, 48, 80
5, 10799, Note_on_c, 3, 48, 0
5, 10920, Note_on_c, 3, 48, 80
5, 11039, Note_on_c, 3, 48, 0
5, 11040, Note_on_c, 3, 48, 80
5, 11279, Note_on_c, 3, 48, 0
5, 11280, Note_on_c, 3, 48, 80
5, 11399, Note_on_c, 3, 48, 0
5, 11520, Note_on_c, 3, 50, 80
5, 11759, Note_on_c, 3, 50, 0
5, 11760, Note_on_c, 3, 50, 80
5, 12119, Note_on_c, 3, 50, 0
5, 12120, Note_on_c, 3, 50, 80
5, 12239, Note_on_c, 3, 50, 0
5, 12360, Note_on_c, 3, 55, 80
5, 12719, Note_on_c, 3, 55, 0
5, 12840, Note_on_c, 3, 55, 80
5, 12959, Note_on_c, 3, 55, 0
5, 12960, Note_on_c, 3, 55, 80
5, 13199, Note_on_c, 3, 55, 0
5, 13200, Note_on_c, 3, 55, 80
5, 13319, Note_on_c, 3, 55, 0
5, 13440, Note_on_c, 3, 50, 80
5, 13679, Note_on_c, 3, 50, 0
5, 13680, Note_on_c, 3, 50, 80
5, 14039, Note_on_c, 3, 50, 0
5, 14040, Note_on_c, 3, 50, 80
5, 14159, Note_on_c, 3, 50, 0
5, 14280, Note_on_c, 3, 55, 80
5, 14639, Note_on_c, 3, 55, 0
5, 14760, Note_on_c, 3, 55, 80
5, 14879, Note_on_c, 3, 55, 0
5, 14880, Note_on_c, 3, 55, 80
5, 15119, Note_on_c, 3, 55, 0
5, 15120, Note_on_c, 3, 55, 80
5, 15239, Note_on_c, 3, 55, 0
5, 15360, Note_on_c, 3, 50, 80
5, 15599, Note_on_c, 3, 50, 0
5, 15600, Note_on_c, 3, 50, 80
5, 15959, Note_on_c, 3, 50, 0
5, 15960, Note_on_c, 3, 50, 80
5, 16079, Note_on_c, 3, 50, 0
5, 16200, Note_on_c, 3, 55, 80
5, 16559, Note_on_c, 3, 55, 0
5, 16680, Note_on_c, 3, 55, 80
5, 16799, Note_on_c, 3, 55, 0
5, 16800, Note_on_c, 3, 55, 80
5, 17039, Note_on_c, 3, 55, 0
5, 17040, Note_on_c, 3, 55, 80
5, 17159, Note_on_c, 3, 55, 0
5, 17280, Note_on_c, 3, 50, 80
5, 17519, Note_on_c, 3, 50, 0
5, 17520, Note_on_c, 3, 50, 80
5, 17879, Note_on_c, 3, 50, 0
5, 17880, Note_on_c, 3, 50, 80
5, 17999, Note_on_c, 3, 50, 0
5, 18120, Note_on_c, 3, 55, 80
5, 18479, Note_on_c, 3, 55, 0
5, 18600, Note_on_c, 3, 55, 80
5, 18719, Note_on_c, 3, 55, 0
5, 18720, Note_on_c, 3, 55, 80
5, 18959, Note_on_c, 3, 55, 0
5, 18960, Note_on_c, 3, 55, 80
5, 19079, Note_on_c, 3, 55, 0
5, 19200, Note_on_c, 3, 48, 80
5, 19439, Note_on_c, 3, 48, 0
5, 19440, Note_on_c, 3, 48, 80
5, 19799, Note_on_c, 3, 48, 0
5, 19800, Note_on_c, 3, 48, 80
5, 19919, Note_on_c, 3, 48, 0
5, 20040, Note_on_c, 3, 48, 80
5, 20399, Note_on_c, 3, 48, 0
5, 20520, Note_on_c, 3, 48, 80
5, 20639, Note_on_c, 3, 48, 0
5, 20640, Note_on_c, 3, 48, 80
5, 20879, Note_on_c, 3, 48, 0
5, 20880, Note_on_c, 3, 48, 80
5, 20999, Note_on_c, 3, 48, 0
5, 21120, Key_signature, 0, "major"
5, 21120, Note_on_c, 3, 50, 80
5, 21359, Note_on_c, 3, 50, 0
5, 21360, Note_on_c, 3, 50, 80
5, 21719, Note_on_c, 3, 50, 0
5, 21720, Note_on_c, 3, 50, 80
5, 21839, Note_on_c, 3, 50, 0
5, 21960, Note_on_c, 3, 55, 80
5, 22319, Note_on_c, 3, 55, 0
5, 22440, Note_on_c, 3, 55, 80
5, 22559, Note_on_c, 3, 55, 0
5, 22560, Note_on_c, 3, 55, 80
5, 22799, Note_on_c, 3, 55, 0
5, 22800, Note_on_c, 3, 55, 80
5, 22919, Note_on_c, 3, 55, 0
5, 23040, Note_on_c, 3, 48, 80
5, 23279, Note_on_c, 3, 48, 0
5, 23280, Note_on_c, 3, 48, 80
5, 23639, Note_on_c, 3, 48, 0
5, 23640, Note_on_c, 3, 48, 80
5, 23759, Note_on_c, 3, 48, 0
5, 23880, Note_on_c, 3, 48, 80
5, 24239, Note_on_c, 3, 48, 0
5, 24360, Note_on_c, 3, 48, 80
5, 24479, Note_on_c, 3, 48, 0
5, 24480, Note_on_c, 3, 48, 80
5, 24719, Note_on_c, 3, 48, 0
5, 24720, Note_on_c, 3, 48, 80
5, 24839, Note_on_c, 3, 48, 0
5, 24960, Key_signature, 0, "major"
5, 24960, Note_on_c, 3, 50, 80
5, 25199, Note_on_c, 3, 50, 0
5, 25200, Note_on_c, 3, 50, 80
5, 25559, Note_on_c, 3, 50, 0
5, 25560, Note_on_c, 3, 50, 80
5, 25679, Note_on_c, 3, 50, 0
5, 25800, Note_on_c, 3, 55, 80
5, 26159, Note_on_c, 3, 55, 0
5, 26280, Note_on_c, 3, 55, 80
5, 26399, Note_on_c, 3, 55, 0
5, 26400, Note_on_c, 3, 55, 80
5, 26639, Note_on_c, 3, 55, 0
5, 26640, Note_on_c, 3, 55, 80
5, 26759, Note_on_c, 3, 55, 0
5, 26880, Key_signature, 0, "major"
5, 26880, Note_on_c, 3, 48, 80
5, 27119, Note_on_c, 3, 48, 0
5, 27120, Note_on_c, 3, 48, 80
5, 27479, Note_on_c, 3, 48, 0
5, 27480, Note_on_c, 3, 48, 80
5, 27599, Note_on_c, 3, 48, 0
5, 27720, Note_on_c, 3, 48, 80
5, 28079, Note_on_c, 3, 48, 0
5, 28200, Note_on_c, 3, 48, 80
5, 28319, Note_on_c, 3, 48, 0
5, 28320, Note_on_c, 3, 48, 80
5, 28559, Note_on_c, 3, 48, 0
5, 28560, Note_on_c, 3, 48, 80
5, 28679, Note_on_c, 3, 48, 0
5, 28800, Key_signature, 0, "major"
5, 28800, Note_on_c, 3, 59, 80
5, 29039, Note_on_c, 3, 59, 0
5, 29040, Note_on_c, 3, 59, 80
5, 29399, Note_on_c, 3, 59, 0
5, 29400, Note_on_c, 3, 59, 80
5, 29519, Note_on_c, 3, 59, 0
5, 29640, Note_on_c, 3, 52, 80
5, 29999, Note_on_c, 3, 52, 0
5, 30120, Note_on_c, 3, 52, 80
5, 30239, Note_on_c, 3, 52, 0
5, 30240, Note_on_c, 3, 52, 80
5, 30479, Note_on_c, 3, 52, 0
5, 30480, Note_on_c, 3, 52, 80
5, 30599, Note_on_c, 3, 52, 0
5, 30720, Note_on_c, 3, 60, 80
5, 30959, Note_on_c, 3, 60, 0
5, 30960, Note_on_c, 3, 60, 80
5, 31319, Note_on_c, 3, 60, 0
5, 31320, Note_on_c, 3, 60, 80
5, 31439, Note_on_c, 3, 60, 0
5, 31560, Note_on_c, 3, 60, 80
5, 31919, Note_on_c, 3, 60, 0
5, 32040, Note_on_c, 3, 60, 80
5, 32159, Note_on_c, 3, 60, 0
5, 32160, Note_on_c, 3, 60, 80
5, 32399, Note_on_c, 3, 60, 0
5, 32400, Note_on_c, 3, 60, 80
5, 32519, Note_on_c, 3, 60, 0
5, 32640, Note_on_c, 3, 57, 80
5, 32879, Note_on_c, 3, 57, 0
5, 32880, Note_on_c, 3, 57, 80
5, 33239, Note_on_c, 3, 57, 0
5, 33240, Note_on_c, 3, 57, 80
5, 33359, Note_on_c, 3, 57, 0
5, 33480, Note_on_c, 3, 57, 80
5, 33839, Note_on_c, 3, 57, 0
5, 33960, Note_on_c, 3, 57, 80
5, 34079, Note_on_c, 3, 57, 0
5, 34080, Note_on_c, 3, 57, 80
5, 34319, Note_on_c, 3, 57, 0
5, 34320, Note_on_c, 3, 57, 80
5, 34439, Note_on_c, 3, 57, 0
5, 34560, Note_on_c, 3, 55, 80
5, 34799, Note_on_c, 3, 55, 0
5, 34800, Note_on_c, 3, 55, 80
5, 35159, Note_on_c, 3, 55, 0
5, 35160, Note_on_c, 3, 55, 80
5, 35279, Note_on_c, 3, 55, 0
5, 35400, Note_on_c, 3, 53, 80
5, 35759, Note_on_c, 3, 53, 0
5, 35880, Note_on_c, 3, 53, 80
5, 35999, Note_on_c, 3, 53, 0
5, 36000, Note_on_c, 3, 53, 80
5, 36239, Note_on_c, 3, 53, 0
5, 36240, Note_on_c, 3, 53, 80
5, 36359, Note_on_c, 3, 53, 0
5, 36480, Key_signature, 0, "major"
5, 36480, Note_on_c, 3, 48, 80
5, 36719, Note_on_c, 3, 48, 0
5, 36720, Note_on_c, 3, 48, 80
5, 37079, Note_on_c, 3, 48, 0
5, 37080, Note_on_c, 3, 48, 80
5, 37199, Note_on_c, 3, 48, 0
5, 37320, Note_on_c, 3, 48, 80
5, 37679, Note_on_c, 3, 48, 0
5, 37800, Note_on_c, 3, 48, 80
5, 37919, Note_on_c, 3, 48, 0
5, 37920, Note_on_c, 3, 48, 80
5, 38159, Note_on_c, 3, 48, 0
5, 38160, Note_on_c, 3, 48, 80
5, 38279, Note_on_c, 3, 48, 0
5, 38400, Note_on_c, 3, 48, 80
5, 38639, Note_on_c, 3, 48, 0
5, 38640, Note_on_c, 3, 48, 80
5, 38999, Note_on_c, 3, 48, 0
5, 39000, Note_on_c, 3, 48, 80
5, 39119, Note_on_c, 3, 48, 0
5, 39240, Note_on_c, 3, 48, 80
5, 39599, Note_on_c, 3, 48, 0
5, 39720, Note_on_c, 3, 48, 80
5, 39839, Note_on_c, 3, 48, 0
5, 39840, Note_on_c, 3, 48, 80
5, 40079, Note_on_c, 3, 48, 0
5, 40080, Note_on_c, 3, 48, 80
5, 40199, Note_on_c, 3, 48, 0
5, 40320, Note_on_c, 3, 48, 80
5, 40559, Note_on_c, 3, 48, 0
5, 40560, Note_on_c, 3, 48, 80
5, 40919, Note_on_c, 3, 48, 0
5, 40920, Note_on_c, 3, 48, 80
5, 41039, Note_on_c, 3, 48, 0
5, 41160, Note_on_c, 3, 48, 80
5, 41519, Note_on_c, 3, 48, 0
5, 41640, Note_on_c, 3, 48, 80
5, 41759, Note_on_c, 3, 48, 0
5, 41760, Note_on_c, 3, 48, 80
5, 41999, Note_on_c, 3, 48, 0
5, 42000, Note_on_c, 3, 48, 80
5, 42119, Note_on_c, 3, 48, 0
5, 42240, Note_on_c, 3, 50, 80
5, 42479, Note_on_c, 3, 50, 0
5, 42480, Note_on_c, 3, 50, 80
5, 42839, Note_on_c, 3, 50, 0
5, 42840, Note_on_c, 3, 50, 80
5, 42959, Note_on_c, 3, 50, 0
5, 43080, Note_on_c, 3, 55, 80
5, 43439, Note_on_c, 3, 55, 0
5, 43560, Note_on_c, 3, 55, 80
5, 43679, Note_on_c, 3, 55, 0
5, 43680, Note_on_c, 3, 55, 80
5, 43919, Note_on_c, 3, 55, 0
5, 43920, Note_on_c, 3, 55, 80
5, 44039, Note_on_c, 3, 55, 0
5, 44160, Note_on_c, 3, 50, 80
5, 44399, Note_on_c, 3, 50, 0
5, 44400, Note_on_c, 3, 50, 80
5, 44759, Note_on_c, 3, 50, 0
5, 44760, Note_on_c, 3, 50, 80
5, 44879, Note_on_c, 3, 50, 0
5, 45000, Note_on_c, 3, 55, 80
5, 45359, Note_on_c, 3, 55, 0
5, 45480, Note_on_c, 3, 55, 80
5, 45599, Note_on_c, 3, 55, 0
5, 45600, Note_on_c, 3, 55, 80
5, 45839, Note_on_c, 3, 55, 0
5, 45840, Note_on_c, 3, 55, 80
5, 45959, Note_on_c, 3, 55, 0
5, 46080, Note_on_c, 3, 50, 80
5, 46319, Note_on_c, 3, 50, 0
5, 46320, Note_on_c, 3, 50, 80
5, 46679, Note_on_c, 3, 50, 0
5, 46680, Note_on_c, 3, 50, 80
5, 46799, Note_on_c, 3, 50, 0
5, 46920, Note_on_c, 3, 55, 80
5, 47279, Note_on_c, 3, 55, 0
5, 47400, Note_on_c, 3, 55, 80
5, 47519, Note_on_c, 3, 55, 0
5, 47520, Note_on_c, 3, 55, 80
5, 47759, Note_on_c, 3, 55, 0
5, 47760, Note_on_c, 3, 55, 80
5, 47879, Note_on_c, 3, 55, 0
5, 48000, Note_on_c, 3, 50, 80
5, 48239, Note_on_c, 3, 50, 0
5, 48240, Note_on_c, 3, 50, 80
5, 48599, Note_on_c, 3, 50, 0
5, 48600, Note_on_c, 3, 50, 80
5, 48719, Note_on_c, 3, 50, 0
5, 48840, Note_on_c, 3, 55, 80
5, 49199, Note_on_c, 3, 55, 0
5, 49320, Note_on_c, 3, 55, 80
5, 49439, Note_on_c, 3, 55, 0
5, 49440, Note_on_c, 3, 55, 80
5, 49679, Note_on_c, 3, 55, 0
5, 49680, Note_on_c, 3, 55, 80
5, 49799, Note_on_c, 3, 55, 0
5, 49920, Note_on_c, 3, 48, 80
5, 50159, Note_on_c, 3, 48, 0
5, 50160, Note_on_c, 3, 48, 80
5, 50519, Note_on_c, 3, 48, 0
5, 50520, Note_on_c, 3, 48, 80
5, 50639, Note_on_c, 3, 48, 0
5, 50760, Note_on_c, 3, 48, 80
5, 51119, Note_on_c, 3, 48, 0
5, 51240, Note_on_c, 3, 48, 80
5, 51359, Note_on_c, 3, 48, 0
5, 51360, Note_on_c, 3, 48, 80
5, 51599, Note_on_c, 3, 48, 0
5, 51600, Note_on_c, 3, 48, 80
5, 51719, Note_on_c, 3, 48, 0
5, 51840, Note_on_c, 3, 48, 80
5, 52079, Note_on_c, 3, 48, 0
5, 52080, Note_on_c, 3, 48, 80
5, 52439, Note_on_c, 3, 48, 0
5, 52440, Note_on_c, 3, 48, 80
5, 52559, Note_on_c, 3, 48, 0
5, 52680, Note_on_c, 3, 48, 80
5, 53039, Note_on_c, 3, 48, 0
5, 53160, Note_on_c, 3, 48, 80
5, 53279, Note_on_c, 3, 48, 0
5, 53280, Note_on_c, 3, 48, 80
5, 53519, Note_on_c, 3, 48, 0
5, 53520, Note_on_c, 3, 48, 80
5, 53639, Note_on_c, 3, 48, 0
5, 53760, Note_on_c, 3, 48, 80
5, 54239, Note_on_c, 3, 48, 0
5, 54240, End_track
0, 0, End_of_file
