0, 0, Header, 1, 3, 480
1, 0, Start_track
1, 0, Title_t, "Piano, Piano, Piano\000"
1, 0, Time_signature, 4, 2, 24, 8
1, 0, Key_signature, 0, "major"
1, 0, Tempo, 434783
1, 0, Control_c, 0, 121, 0
1, 0, Program_c, 0, 0
1, 0, Control_c, 0, 7, 100
1, 0, Control_c, 0, 10, 64
1, 0, Control_c, 0, 91, 0
1, 0, Control_c, 0, 93, 0
1, 0, MIDI_port, 0
1, 240, Note_on_c, 0, 64, 80
1, 240, Note_on_c, 0, 69, 80
1, 467, Note_on_c, 0, 64, 0
1, 467, Note_on_c, 0, 69, 0
1, 720, Note_on_c, 0, 64, 80
1, 720, Note_on_c, 0, 69, 80
1, 947, Note_on_c, 0, 64, 0
1, 947, Note_on_c, 0, 69, 0
1, 1200, Note_on_c, 0, 64, 80
1, 1200, Note_on_c, 0, 69, 80
1, 1427, Note_on_c, 0, 64, 0
1, 1427, Note_on_c, 0, 69, 0
1, 1560, Note_on_c, 0, 64, 80
1, 1560, Note_on_c, 0, 69, 80
1, 1787, Note_on_c, 0, 64, 0
1, 1787, Note_on_c, 0, 69, 0
1, 1800, Note_on_c, 0, 64, 80
1, 1800, Note_on_c, 0, 69, 80
1, 1913, Note_on_c, 0, 64, 0
1, 1913, Note_on_c, 0, 69, 0
1, 2160, Note_on_c, 0, 64, 80
1, 2160, Note_on_c, 0, 69, 80
1, 2387, Note_on_c, 0, 64, 0
1, 2387, Note_on_c, 0, 69, 0
1, 2640, Note_on_c, 0, 64, 80
1, 2640, Note_on_c, 0, 69, 80
1, 2867, Note_on_c, 0, 64, 0
1, 2867, Note_on_c, 0, 69, 0
1, 3120, Note_on_c, 0, 64, 80
1, 3120, Note_on_c, 0, 69, 80
1, 3347, Note_on_c, 0, 64, 0
1, 3347, Note_on_c, 0, 69, 0
1, 4080, Note_on_c, 0, 64, 80
1, 4080, Note_on_c, 0, 69, 80
1, 4307, Note_on_c, 0, 64, 0
1, 4307, Note_on_c, 0, 69, 0
1, 4560, Note_on_c, 0, 64, 80
1, 4560, Note_on_c, 0, 69, 80
1, 4787, Note_on_c, 0, 64, 0
1, 4787, Note_on_c, 0, 69, 0
1, 5040, Note_on_c, 0, 64, 80
1, 5040, Note_on_c, 0, 69, 80
1, 5267, Note_on_c, 0, 64, 0
1, 5267, Note_on_c, 0, 69, 0
1, 5400, Note_on_c, 0, 64, 80
1, 5400, Note_on_c, 0, 69, 80
1, 5627, Note_on_c, 0, 64, 0
1, 5627, Note_on_c, 0, 69, 0
1, 5640, Note_on_c, 0, 64, 80
1, 5640, Note_on_c, 0, 69, 80
1, 5753, Note_on_c, 0, 64, 0
1, 5753, Note_on_c, 0, 69, 0
1, 6000, Note_on_c, 0, 64, 80
1, 6000, Note_on_c, 0, 69, 80
1, 6227, Note_on_c, 0, 64, 0
1, 6227, Note_on_c, 0, 69, 0
1, 6480, Note_on_c, 0, 64, 80
1, 6480, Note_on_c, 0, 69, 80
1, 6707, Note_on_c, 0, 64, 0
1, 6707, Note_on_c, 0, 69, 0
1, 6960, Note_on_c, 0, 64, 80
1, 6960, Note_on_c, 0, 69, 80
1, 7187, Note_on_c, 0, 64, 0
1, 7187, Note_on_c, 0, 69, 0
1, 7680, Key_signature, 0, "major"
1, 7920, Note_on_c, 0, 64, 80
1, 7920, Note_on_c, 0, 69, 80
1, 8147, Note_on_c, 0, 64, 0
1, 8147, Note_on_c, 0, 69, 0
1, 8400, Note_on_c, 0, 64, 80
1, 8400, Note_on_c, 0, 69, 80
1, 8627, Note_on_c, 0, 64, 0
1, 8627, Note_on_c, 0, 69, 0
1, 8880, Note_on_c, 0, 64, 80
1, 8880, Note_on_c, 0, 69, 80
1, 9107, Note_on_c, 0, 64, 0
1, 9107, Note_on_c, 0, 69, 0
1, 9240, Note_on_c, 0, 64, 80
1, 9240, Note_on_c, 0, 69, 80
1, 9467, Note_on_c, 0, 64, 0
1, 9467, Note_on_c, 0, 69, 0
1, 9480, Note_on_c, 0, 64, 80
1, 9480, Note_on_c, 0, 69, 80
1, 9593, Note_on_c, 0, 64, 0
1, 9593, Note_on_c, 0, 69, 0
1, 9840, Note_on_c, 0, 64, 80
1, 9840, Note_on_c, 0, 69, 80
1, 10067, Note_on_c, 0, 64, 0
1, 10067, Note_on_c, 0, 69, 0
1, 10320, Note_on_c, 0, 64, 80
1, 10320, Note_on_c, 0, 69, 80
1, 10547, Note_on_c, 0, 64, 0
1, 10547, Note_on_c, 0, 69, 0
1, 10800, Note_on_c, 0, 64, 80
1, 10800, Note_on_c, 0, 69, 80
1, 11027, Note_on_c, 0, 64, 0
1, 11027, Note_on_c, 0, 69, 0
1, 11760, Note_on_c, 0, 64, 80
1, 11760, Note_on_c, 0, 69, 80
1, 11987, Note_on_c, 0, 64, 0
1, 11987, Note_on_c, 0, 69, 0
1, 12240, Note_on_c, 0, 64, 80
1, 12240, Note_on_c, 0, 69, 80
1, 12467, Note_on_c, 0, 64, 0
1, 12467, Note_on_c, 0, 69, 0
1, 12720, Note_on_c, 0, 64, 80
1, 12720, Note_on_c, 0, 69, 80
1, 12947, Note_on_c, 0, 64, 0
1, 12947, Note_on_c, 0, 69, 0
1, 13080, Note_on_c, 0, 64, 80
1, 13080, Note_on_c, 0, 69, 80
1, 13307, Note_on_c, 0, 64, 0
1, 13307, Note_on_c, 0, 69, 0
1, 13320, Note_on_c, 0, 64, 80
1, 13320, Note_on_c, 0, 69, 80
1, 13433, Note_on_c, 0, 64, 0
1, 13433, Note_on_c, 0, 69, 0
1, 13680, Note_on_c, 0, 64, 80
1, 13680, Note_on_c, 0, 69, 80
1, 13907, Note_on_c, 0, 64, 0
1, 13907, Note_on_c, 0, 69, 0
1, 14160, Note_on_c, 0, 64, 80
1, 14160, Note_on_c, 0, 69, 80
1, 14387, Note_on_c, 0, 64, 0
1, 14387, Note_on_c, 0, 69, 0
1, 15720, Note_on_c, 0, 64, 80
1, 15720, Note_on_c, 0, 69, 80
1, 15947, Note_on_c, 0, 64, 0
1, 15947, Note_on_c, 0, 69, 0
1, 15960, Note_on_c, 0, 64, 80
1, 15960, Note_on_c, 0, 69, 80
1, 16073, Note_on_c, 0, 64, 0
1, 16073, Note_on_c, 0, 69, 0
1, 16080, Note_on_c, 0, 67, 80
1, 16193, Note_on_c, 0, 67, 0
1, 16200, Note_on_c, 0, 69, 80
1, 16313, Note_on_c, 0, 69, 0
1, 16680, Note_on_c, 0, 64, 80
1, 16680, Note_on_c, 0, 69, 80
1, 16907, Note_on_c, 0, 64, 0
1, 16907, Note_on_c, 0, 69, 0
1, 16920, Note_on_c, 0, 64, 80
1, 16920, Note_on_c, 0, 69, 80
1, 17033, Note_on_c, 0, 64, 0
1, 17033, Note_on_c, 0, 69, 0
1, 17040, Note_on_c, 0, 67, 80
1, 17153, Note_on_c, 0, 67, 0
1, 17160, Note_on_c, 0, 69, 80
1, 17273, Note_on_c, 0, 69, 0
1, 17640, Note_on_c, 0, 64, 80
1, 17640, Note_on_c, 0, 69, 80
1, 17867, Note_on_c, 0, 64, 0
1, 17867, Note_on_c, 0, 69, 0
1, 17880, Note_on_c, 0, 64, 80
1, 17880, Note_on_c, 0, 69, 80
1, 17993, Note_on_c, 0, 64, 0
1, 17993, Note_on_c, 0, 69, 0
1, 18000, Note_on_c, 0, 67, 80
1, 18113, Note_on_c, 0, 67, 0
1, 18120, Note_on_c, 0, 69, 80
1, 18233, Note_on_c, 0, 69, 0
1, 18480, Note_on_c, 0, 69, 80
1, 18593, Note_on_c, 0, 69, 0
1, 18600, Note_on_c, 0, 72, 80
1, 18713, Note_on_c, 0, 72, 0
1, 18960, Note_on_c, 0, 72, 80
1, 19073, Note_on_c, 0, 72, 0
1, 19080, Note_on_c, 0, 74, 80
1, 19193, Note_on_c, 0, 74, 0
1, 19560, Note_on_c, 0, 64, 80
1, 19560, Note_on_c, 0, 69, 80
1, 19787, Note_on_c, 0, 64, 0
1, 19787, Note_on_c, 0, 69, 0
1, 19800, Note_on_c, 0, 64, 80
1, 19800, Note_on_c, 0, 69, 80
1, 19913, Note_on_c, 0, 64, 0
1, 19913, Note_on_c, 0, 69, 0
1, 19920, Note_on_c, 0, 67, 80
1, 20033, Note_on_c, 0, 67, 0
1, 20040, Note_on_c, 0, 69, 80
1, 20153, Note_on_c, 0, 69, 0
1, 20520, Note_on_c, 0, 64, 80
1, 20520, Note_on_c, 0, 69, 80
1, 20747, Note_on_c, 0, 64, 0
1, 20747, Note_on_c, 0, 69, 0
1, 20760, Note_on_c, 0, 64, 80
1, 20760, Note_on_c, 0, 69, 80
1, 20873, Note_on_c, 0, 64, 0
1, 20873, Note_on_c, 0, 69, 0
1, 20880, Note_on_c, 0, 67, 80
1, 20993, Note_on_c, 0, 67, 0
1, 21000, Note_on_c, 0, 69, 80
1, 21113, Note_on_c, 0, 69, 0
1, 21480, Note_on_c, 0, 64, 80
1, 21480, Note_on_c, 0, 69, 80
1, 21707, Note_on_c, 0, 64, 0
1, 21707, Note_on_c, 0, 69, 0
1, 21720, Note_on_c, 0, 64, 80
1, 21720, Note_on_c, 0, 69, 80
1, 21833, Note_on_c, 0, 64, 0
1, 21833, Note_on_c, 0, 69, 0
1, 21840, Note_on_c, 0, 67, 80
1, 21953, Note_on_c, 0, 67, 0
1, 21960, Note_on_c, 0, 69, 80
1, 22073, Note_on_c, 0, 69, 0
1, 22320, Note_on_c, 0, 72, 80
1, 22433, Note_on_c, 0, 72, 0
1, 22440, Note_on_c, 0, 74, 80
1, 22553, Note_on_c, 0, 74, 0
1, 22800, Note_on_c, 0, 69, 80
1, 22913, Note_on_c, 0, 69, 0
1, 22920, Note_on_c, 0, 72, 80
1, 23033, Note_on_c, 0, 72, 0
1, 23400, Note_on_c, 0, 64, 80
1, 23400, Note_on_c, 0, 69, 80
1, 23627, Note_on_c, 0, 64, 0
1, 23627, Note_on_c, 0, 69, 0
1, 23640, Note_on_c, 0, 64, 80
1, 23640, Note_on_c, 0, 69, 80
1, 23753, Note_on_c, 0, 64, 0
1, 23753, Note_on_c, 0, 69, 0
1, 23760, Note_on_c, 0, 67, 80
1, 23873, Note_on_c, 0, 67, 0
1, 23880, Note_on_c, 0, 69, 80
1, 23993, Note_on_c, 0, 69, 0
1, 24360, Note_on_c, 0, 64, 80
1, 24360, Note_on_c, 0, 69, 80
1, 24587, Note_on_c, 0, 64, 0
1, 24587, Note_on_c, 0, 69, 0
1, 24600, Note_on_c, 0, 64, 80
1, 24600, Note_on_c, 0, 69, 80
1, 24713, Note_on_c, 0, 64, 0
1, 24713, Note_on_c, 0, 69, 0
1, 24720, Note_on_c, 0, 67, 80
1, 24833, Note_on_c, 0, 67, 0
1, 24840, Note_on_c, 0, 69, 80
1, 24953, Note_on_c, 0, 69, 0
1, 25320, Note_on_c, 0, 64, 80
1, 25320, Note_on_c, 0, 69, 80
1, 25547, Note_on_c, 0, 64, 0
1, 25547, Note_on_c, 0, 69, 0
1, 25560, Note_on_c, 0, 64, 80
1, 25560, Note_on_c, 0, 69, 80
1, 25673, Note_on_c, 0, 64, 0
1, 25673, Note_on_c, 0, 69, 0
1, 25680, Note_on_c, 0, 67, 80
1, 25793, Note_on_c, 0, 67, 0
1, 25800, Note_on_c, 0, 69, 80
1, 25913, Note_on_c, 0, 69, 0
1, 26160, Note_on_c, 0, 69, 80
1, 26273, Note_on_c, 0, 69, 0
1, 26280, Note_on_c, 0, 72, 80
1, 26393, Note_on_c, 0, 72, 0
1, 26640, Note_on_c, 0, 72, 80
1, 26753, Note_on_c, 0, 72, 0
1, 26760, Note_on_c, 0, 74, 80
1, 26873, Note_on_c, 0, 74, 0
1, 27240, Note_on_c, 0, 64, 80
1, 27240, Note_on_c, 0, 69, 80
1, 27467, Note_on_c, 0, 64, 0
1, 27467, Note_on_c, 0, 69, 0
1, 27480, Note_on_c, 0, 64, 80
1, 27480, Note_on_c, 0, 69, 80
1, 27593, Note_on_c, 0, 64, 0
1, 27593, Note_on_c, 0, 69, 0
1, 27600, Note_on_c, 0, 67, 80
1, 27713, Note_on_c, 0, 67, 0
1, 27720, Note_on_c, 0, 69, 80
1, 27833, Note_on_c, 0, 69, 0
1, 28200, Note_on_c, 0, 64, 80
1, 28200, Note_on_c, 0, 69, 80
1, 28427, Note_on_c, 0, 64, 0
1, 28427, Note_on_c, 0, 69, 0
1, 28440, Note_on_c, 0, 64, 80
1, 28440, Note_on_c, 0, 69, 80
1, 28553, Note_on_c, 0, 64, 0
1, 28553, Note_on_c, 0, 69, 0
1, 28560, Note_on_c, 0, 67, 80
1, 28673, Note_on_c, 0, 67, 0
1, 28680, Note_on_c, 0, 69, 80
1, 28793, Note_on_c, 0, 69, 0
1, 29160, Note_on_c, 0, 64, 80
1, 29160, Note_on_c, 0, 69, 80
1, 29387, Note_on_c, 0, 64, 0
1, 29387, Note_on_c, 0, 69, 0
1, 29400, Note_on_c, 0, 64, 80
1, 29400, Note_on_c, 0, 69, 80
1, 29513, Note_on_c, 0, 64, 0
1, 29513, Note_on_c, 0, 69, 0
1, 29520, Note_on_c, 0, 67, 80
1, 29633, Note_on_c, 0, 67, 0
1, 29640, Note_on_c, 0, 69, 80
1, 29753, Note_on_c, 0, 69, 0
1, 29760, Note_on_c, 0, 74, 80
1, 29873, Note_on_c, 0, 74, 0
1, 29880, Note_on_c, 0, 72, 80
1, 29993, Note_on_c, 0, 72, 0
1, 30000, Note_on_c, 0, 69, 80
1, 30227, Note_on_c, 0, 69, 0
1, 30240, Note_on_c, 0, 74, 80
1, 30353, Note_on_c, 0, 74, 0
1, 30360, Note_on_c, 0, 72, 80
1, 30473, Note_on_c, 0, 72, 0
1, 30480, Note_on_c, 0, 69, 80
1, 30707, Note_on_c, 0, 69, 0
1, 30720, Note_on_c, 0, 69, 80
1, 30947, Note_on_c, 0, 69, 0
1, 30960, Note_on_c, 0, 71, 80
1, 31187, Note_on_c, 0, 71, 0
1, 31200, Note_on_c, 0, 72, 80
1, 31427, Note_on_c, 0, 72, 0
1, 31440, Note_on_c, 0, 74, 80
1, 31667, Note_on_c, 0, 74, 0
1, 31680, Note_on_c, 0, 76, 80
1, 32135, Note_on_c, 0, 76, 0
1, 32160, Note_on_c, 0, 81, 80
1, 32387, Note_on_c, 0, 81, 0
1, 32400, Note_on_c, 0, 79, 80
1, 32627, Note_on_c, 0, 79, 0
1, 32640, Note_on_c, 0, 76, 80
1, 33095, Note_on_c, 0, 76, 0
1, 33120, Note_on_c, 0, 69, 80
1, 33575, Note_on_c, 0, 69, 0
1, 33600, Note_on_c, 0, 76, 80
1, 33827, Note_on_c, 0, 76, 0
1, 33840, Note_on_c, 0, 74, 80
1, 34067, Note_on_c, 0, 74, 0
1, 34080, Note_on_c, 0, 72, 80
1, 34307, Note_on_c, 0, 72, 0
1, 34320, Note_on_c, 0, 71, 80
1, 34547, Note_on_c, 0, 71, 0
1, 34560, Note_on_c, 0, 69, 80
1, 34787, Note_on_c, 0, 69, 0
1, 34800, Note_on_c, 0, 71, 80
1, 35027, Note_on_c, 0, 71, 0
1, 35040, Note_on_c, 0, 72, 80
1, 35267, Note_on_c, 0, 72, 0
1, 35280, Note_on_c, 0, 74, 80
1, 35507, Note_on_c, 0, 74, 0
1, 35520, Note_on_c, 0, 76, 80
1, 35759, Note_on_c, 0, 76, 0
1, 36000, Note_on_c, 0, 74, 80
1, 36227, Note_on_c, 0, 74, 0
1, 36240, Note_on_c, 0, 72, 80
1, 36467, Note_on_c, 0, 72, 0
1, 36480, Note_on_c, 0, 71, 80
1, 36707, Note_on_c, 0, 71, 0
1, 36720, Note_on_c, 0, 69, 80
1, 36947, Note_on_c, 0, 69, 0
1, 36960, Note_on_c, 0, 71, 80
1, 37187, Note_on_c, 0, 71, 0
1, 37200, Note_on_c, 0, 72, 80
1, 37427, Note_on_c, 0, 72, 0
1, 37440, Note_on_c, 0, 71, 80
1, 37667, Note_on_c, 0, 71, 0
1, 37680, Note_on_c, 0, 69, 80
1, 37907, Note_on_c, 0, 69, 0
1, 37920, Note_on_c, 0, 67, 80
1, 38039, Note_on_c, 0, 67, 0
1, 38160, Note_on_c, 0, 71, 80
1, 38387, Note_on_c, 0, 71, 0
1, 38400, Note_on_c, 0, 69, 80
1, 38627, Note_on_c, 0, 69, 0
1, 38640, Note_on_c, 0, 71, 80
1, 38867, Note_on_c, 0, 71, 0
1, 38880, Note_on_c, 0, 72, 80
1, 39107, Note_on_c, 0, 72, 0
1, 39120, Note_on_c, 0, 74, 80
1, 39347, Note_on_c, 0, 74, 0
1, 39360, Note_on_c, 0, 76, 80
1, 39599, Note_on_c, 0, 76, 0
1, 39840, Note_on_c, 0, 81, 80
1, 40067, Note_on_c, 0, 81, 0
1, 40080, Note_on_c, 0, 79, 80
1, 40307, Note_on_c, 0, 79, 0
1, 40320, Note_on_c, 0, 76, 80
1, 40775, Note_on_c, 0, 76, 0
1, 40800, Note_on_c, 0, 69, 80
1, 41255, Note_on_c, 0, 69, 0
1, 41280, Note_on_c, 0, 76, 80
1, 41399, Note_on_c, 0, 76, 0
1, 41520, Note_on_c, 0, 74, 80
1, 41639, Note_on_c, 0, 74, 0
1, 41760, Note_on_c, 0, 72, 80
1, 41879, Note_on_c, 0, 72, 0
1, 42000, Note_on_c, 0, 71, 80
1, 42227, Note_on_c, 0, 71, 0
1, 42240, Note_on_c, 0, 69, 80
1, 42467, Note_on_c, 0, 69, 0
1, 42480, Note_on_c, 0, 71, 80
1, 42707, Note_on_c, 0, 71, 0
1, 42720, Note_on_c, 0, 72, 80
1, 42947, Note_on_c, 0, 72, 0
1, 42960, Note_on_c, 0, 74, 80
1, 43187, Note_on_c, 0, 74, 0
1, 43200, Note_on_c, 0, 76, 80
1, 43439, Note_on_c, 0, 76, 0
1, 43680, Note_on_c, 0, 74, 80
1, 43907, Note_on_c, 0, 74, 0
1, 43920, Note_on_c, 0, 72, 80
1, 44147, Note_on_c, 0, 72, 0
1, 44160, Note_on_c, 0, 71, 80
1, 44399, Note_on_c, 0, 71, 0
1, 44640, Note_on_c, 0, 72, 80
1, 44879, Note_on_c, 0, 72, 0
1, 45120, Note_on_c, 0, 74, 80
1, 45359, Note_on_c, 0, 74, 0
1, 45600, Note_on_c, 0, 76, 80
1, 45839, Note_on_c, 0, 76, 0
1, 46080, Note_on_c, 0, 64, 80
1, 46080, Note_on_c, 0, 69, 80
1, 46307, Note_on_c, 0, 64, 0
1, 46307, Note_on_c, 0, 69, 0
1, 46320, Note_on_c, 0, 67, 80
1, 46320, Note_on_c, 0, 71, 80
1, 46547, Note_on_c, 0, 67, 0
1, 46547, Note_on_c, 0, 71, 0
1, 46560, Note_on_c, 0, 69, 80
1, 46560, Note_on_c, 0, 72, 80
1, 46787, Note_on_c, 0, 69, 0
1, 46787, Note_on_c, 0, 72, 0
1, 46800, Note_on_c, 0, 71, 80
1, 46800, Note_on_c, 0, 74, 80
1, 47027, Note_on_c, 0, 71, 0
1, 47027, Note_on_c, 0, 74, 0
1, 47040, Note_on_c, 0, 72, 80
1, 47040, Note_on_c, 0, 76, 80
1, 47279, Note_on_c, 0, 72, 0
1, 47279, Note_on_c, 0, 76, 0
1, 47520, Note_on_c, 0, 76, 80
1, 47520, Note_on_c, 0, 81, 80
1, 47639, Note_on_c, 0, 76, 0
1, 47639, Note_on_c, 0, 81, 0
1, 47760, Note_on_c, 0, 74, 80
1, 47760, Note_on_c, 0, 79, 80
1, 47987, Note_on_c, 0, 74, 0
1, 47987, Note_on_c, 0, 79, 0
1, 48000, Note_on_c, 0, 72, 80
1, 48000, Note_on_c, 0, 76, 80
1, 48455, Note_on_c, 0, 72, 0
1, 48455, Note_on_c, 0, 76, 0
1, 48480, Note_on_c, 0, 64, 80
1, 48480, Note_on_c, 0, 69, 80
1, 48935, Note_on_c, 0, 64, 0
1, 48935, Note_on_c, 0, 69, 0
1, 48960, Note_on_c, 0, 72, 80
1, 48960, Note_on_c, 0, 76, 80
1, 49187, Note_on_c, 0, 72, 0
1, 49187, Note_on_c, 0, 76, 0
1, 49200, Note_on_c, 0, 71, 80
1, 49200, Note_on_c, 0, 74, 80
1, 49427, Note_on_c, 0, 71, 0
1, 49427, Note_on_c, 0, 74, 0
1, 49440, Note_on_c, 0, 69, 80
1, 49440, Note_on_c, 0, 72, 80
1, 49667, Note_on_c, 0, 69, 0
1, 49667, Note_on_c, 0, 72, 0
1, 49680, Note_on_c, 0, 67, 80
1, 49680, Note_on_c, 0, 71, 80
1, 49907, Note_on_c, 0, 67, 0
1, 49907, Note_on_c, 0, 71, 0
1, 49920, Note_on_c, 0, 60, 80
1, 49920, Note_on_c, 0, 69, 80
1, 50147, Note_on_c, 0, 60, 0
1, 50147, Note_on_c, 0, 69, 0
1, 50160, Note_on_c, 0, 62, 80
1, 50160, Note_on_c, 0, 71, 80
1, 50387, Note_on_c, 0, 62, 0
1, 50387, Note_on_c, 0, 71, 0
1, 50400, Note_on_c, 0, 69, 80
1, 50400, Note_on_c, 0, 72, 80
1, 50627, Note_on_c, 0, 69, 0
1, 50627, Note_on_c, 0, 72, 0
1, 50640, Note_on_c, 0, 71, 80
1, 50640, Note_on_c, 0, 74, 80
1, 50867, Note_on_c, 0, 71, 0
1, 50867, Note_on_c, 0, 74, 0
1, 50880, Note_on_c, 0, 72, 80
1, 50880, Note_on_c, 0, 76, 80
1, 51119, Note_on_c, 0, 72, 0
1, 51119, Note_on_c, 0, 76, 0
1, 51360, Note_on_c, 0, 71, 80
1, 51360, Note_on_c, 0, 74, 80
1, 51587, Note_on_c, 0, 71, 0
1, 51587, Note_on_c, 0, 74, 0
1, 51600, Note_on_c, 0, 69, 80
1, 51600, Note_on_c, 0, 72, 80
1, 51827, Note_on_c, 0, 69, 0
1, 51827, Note_on_c, 0, 72, 0
1, 51840, Note_on_c, 0, 67, 80
1, 51840, Note_on_c, 0, 71, 80
1, 52067, Note_on_c, 0, 67, 0
1, 52067, Note_on_c, 0, 71, 0
1, 52080, Note_on_c, 0, 62, 80
1, 52080, Note_on_c, 0, 69, 80
1, 52199, Note_on_c, 0, 62, 0
1, 52199, Note_on_c, 0, 69, 0
1, 52320, Note_on_c, 0, 64, 80
1, 52320, Note_on_c, 0, 71, 80
1, 52547, Note_on_c, 0, 64, 0
1, 52547, Note_on_c, 0, 71, 0
1, 52560, Note_on_c, 0, 65, 80
1, 52560, Note_on_c, 0, 72, 80
1, 52787, Note_on_c, 0, 65, 0
1, 52787, Note_on_c, 0, 72, 0
1, 52800, Note_on_c, 0, 64, 80
1, 52800, Note_on_c, 0, 71, 80
1, 53027, Note_on_c, 0, 64, 0
1, 53027, Note_on_c, 0, 71, 0
1, 53040, Note_on_c, 0, 62, 80
1, 53040, Note_on_c, 0, 69, 80
1, 53159, Note_on_c, 0, 62, 0
1, 53159, Note_on_c, 0, 69, 0
1, 53280, Note_on_c, 0, 60, 80
1, 53280, Note_on_c, 0, 67, 80
1, 53399, Note_on_c, 0, 60, 0
1, 53399, Note_on_c, 0, 67, 0
1, 53520, Note_on_c, 0, 67, 80
1, 53520, Note_on_c, 0, 71, 80
1, 53747, Note_on_c, 0, 67, 0
1, 53747, Note_on_c, 0, 71, 0
1, 53760, Note_on_c, 0, 64, 80
1, 53760, Note_on_c, 0, 69, 80
1, 53987, Note_on_c, 0, 64, 0
1, 53987, Note_on_c, 0, 69, 0
1, 54000, Note_on_c, 0, 67, 80
1, 54000, Note_on_c, 0, 71, 80
1, 54227, Note_on_c, 0, 67, 0
1, 54227, Note_on_c, 0, 71, 0
1, 54240, Note_on_c, 0, 69, 80
1, 54240, Note_on_c, 0, 72, 80
1, 54467, Note_on_c, 0, 69, 0
1, 54467, Note_on_c, 0, 72, 0
1, 54480, Note_on_c, 0, 71, 80
1, 54480, Note_on_c, 0, 74, 80
1, 54707, Note_on_c, 0, 71, 0
1, 54707, Note_on_c, 0, 74, 0
1, 54720, Note_on_c, 0, 72, 80
1, 54720, Note_on_c, 0, 76, 80
1, 54899, Note_on_c, 0, 72, 0
1, 54899, Note_on_c, 0, 76, 0
1, 55140, Note_on_c, 0, 79, 80
1, 55196, Note_on_c, 0, 79, 0
1, 55200, Note_on_c, 0, 76, 80
1, 55200, Note_on_c, 0, 81, 80
1, 55427, Note_on_c, 0, 76, 0
1, 55427, Note_on_c, 0, 81, 0
1, 55440, Note_on_c, 0, 74, 80
1, 55440, Note_on_c, 0, 79, 80
1, 55667, Note_on_c, 0, 74, 0
1, 55667, Note_on_c, 0, 79, 0
1, 55680, Note_on_c, 0, 72, 80
1, 55680, Note_on_c, 0, 76, 80
1, 55919, Note_on_c, 0, 72, 0
1, 55919, Note_on_c, 0, 76, 0
1, 56160, Note_on_c, 0, 64, 80
1, 56160, Note_on_c, 0, 69, 80
1, 56399, Note_on_c, 0, 64, 0
1, 56399, Note_on_c, 0, 69, 0
1, 56640, Note_on_c, 0, 72, 80
1, 56640, Note_on_c, 0, 76, 80
1, 56867, Note_on_c, 0, 72, 0
1, 56867, Note_on_c, 0, 76, 0
1, 56880, Note_on_c, 0, 71, 80
1, 56880, Note_on_c, 0, 74, 80
1, 56999, Note_on_c, 0, 71, 0
1, 56999, Note_on_c, 0, 74, 0
1, 57120, Note_on_c, 0, 69, 80
1, 57120, Note_on_c, 0, 72, 80
1, 57347, Note_on_c, 0, 69, 0
1, 57347, Note_on_c, 0, 72, 0
1, 57360, Note_on_c, 0, 67, 80
1, 57360, Note_on_c, 0, 71, 80
1, 57479, Note_on_c, 0, 67, 0
1, 57479, Note_on_c, 0, 71, 0
1, 57600, Note_on_c, 0, 60, 80
1, 57600, Note_on_c, 0, 69, 80
1, 57827, Note_on_c, 0, 60, 0
1, 57827, Note_on_c, 0, 69, 0
1, 57840, Note_on_c, 0, 62, 80
1, 57840, Note_on_c, 0, 71, 80
1, 58067, Note_on_c, 0, 62, 0
1, 58067, Note_on_c, 0, 71, 0
1, 58080, Note_on_c, 0, 69, 80
1, 58080, Note_on_c, 0, 72, 80
1, 58307, Note_on_c, 0, 69, 0
1, 58307, Note_on_c, 0, 72, 0
1, 58320, Note_on_c, 0, 71, 80
1, 58320, Note_on_c, 0, 74, 80
1, 58547, Note_on_c, 0, 71, 0
1, 58547, Note_on_c, 0, 74, 0
1, 58560, Note_on_c, 0, 72, 80
1, 58560, Note_on_c, 0, 76, 80
1, 58799, Note_on_c, 0, 72, 0
1, 58799, Note_on_c, 0, 76, 0
1, 59040, Note_on_c, 0, 71, 80
1, 59040, Note_on_c, 0, 74, 80
1, 59267, Note_on_c, 0, 71, 0
1, 59267, Note_on_c, 0, 74, 0
1, 59280, Note_on_c, 0, 69, 80
1, 59280, Note_on_c, 0, 72, 80
1, 59507, Note_on_c, 0, 69, 0
1, 59507, Note_on_c, 0, 72, 0
1, 59520, Note_on_c, 0, 67, 80
1, 59520, Note_on_c, 0, 71, 80
1, 59759, Note_on_c, 0, 67, 0
1, 59759, Note_on_c, 0, 71, 0
1, 60000, Note_on_c, 0, 69, 80
1, 60000, Note_on_c, 0, 72, 80
1, 60239, Note_on_c, 0, 69, 0
1, 60239, Note_on_c, 0, 72, 0
1, 60480, Note_on_c, 0, 69, 80
1, 60480, Note_on_c, 0, 74, 80
1, 60935, Note_on_c, 0, 69, 0
1, 60935, Note_on_c, 0, 74, 0
1, 60960, Note_on_c, 0, 71, 80
1, 60960, Note_on_c, 0, 76, 80
1, 61199, Note_on_c, 0, 71, 0
1, 61199, Note_on_c, 0, 76, 0
1, 61440, Note_on_c, 0, 71, 80
1, 61440, Note_on_c, 0, 79, 80
1, 61667, Note_on_c, 0, 71, 0
1, 61667, Note_on_c, 0, 79, 0
1, 61680, Note_on_c, 0, 72, 80
1, 61680, Note_on_c, 0, 81, 80
1, 61907, Note_on_c, 0, 72, 0
1, 61907, Note_on_c, 0, 81, 0
1, 61920, Note_on_c, 0, 69, 80
1, 61920, Note_on_c, 0, 76, 80
1, 62147, Note_on_c, 0, 69, 0
1, 62147, Note_on_c, 0, 76, 0
1, 62160, Note_on_c, 0, 67, 80
1, 62160, Note_on_c, 0, 74, 80
1, 62387, Note_on_c, 0, 67, 0
1, 62387, Note_on_c, 0, 74, 0
1, 62400, Note_on_c, 0, 69, 80
1, 62400, Note_on_c, 0, 76, 80
1, 62855, Note_on_c, 0, 69, 0
1, 62855, Note_on_c, 0, 76, 0
1, 62880, Note_on_c, 0, 67, 80
1, 62880, Note_on_c, 0, 74, 80
1, 63107, Note_on_c, 0, 67, 0
1, 63107, Note_on_c, 0, 74, 0
1, 63120, Note_on_c, 0, 69, 80
1, 63120, Note_on_c, 0, 76, 80
1, 63347, Note_on_c, 0, 69, 0
1, 63347, Note_on_c, 0, 76, 0
1, 63360, Note_on_c, 0, 71, 80
1, 63360, Note_on_c, 0, 79, 80
1, 63587, Note_on_c, 0, 71, 0
1, 63587, Note_on_c, 0, 79, 0
1, 63600, Note_on_c, 0, 72, 80
1, 63600, Note_on_c, 0, 81, 80
1, 63827, Note_on_c, 0, 72, 0
1, 63827, Note_on_c, 0, 81, 0
1, 63840, Note_on_c, 0, 69, 80
1, 63840, Note_on_c, 0, 76, 80
1, 64067, Note_on_c, 0, 69, 0
1, 64067, Note_on_c, 0, 76, 0
1, 64080, Note_on_c, 0, 67, 80
1, 64080, Note_on_c, 0, 74, 80
1, 64307, Note_on_c, 0, 67, 0
1, 64307, Note_on_c, 0, 74, 0
1, 64320, Note_on_c, 0, 69, 80
1, 64320, Note_on_c, 0, 76, 80
1, 64775, Note_on_c, 0, 69, 0
1, 64775, Note_on_c, 0, 76, 0
1, 64800, Note_on_c, 0, 64, 80
1, 64800, Note_on_c, 0, 74, 80
1, 65027, Note_on_c, 0, 64, 0
1, 65027, Note_on_c, 0, 74, 0
1, 65040, Note_on_c, 0, 67, 80
1, 65040, Note_on_c, 0, 76, 80
1, 65267, Note_on_c, 0, 67, 0
1, 65267, Note_on_c, 0, 76, 0
1, 65280, Note_on_c, 0, 69, 80
1, 65280, Note_on_c, 0, 74, 80
1, 65507, Note_on_c, 0, 69, 0
1, 65507, Note_on_c, 0, 74, 0
1, 65520, Note_on_c, 0, 67, 80
1, 65520, Note_on_c, 0, 72, 80
1, 65747, Note_on_c, 0, 67, 0
1, 65747, Note_on_c, 0, 72, 0
1, 65760, Note_on_c, 0, 64, 80
1, 65760, Note_on_c, 0, 71, 80
1, 65987, Note_on_c, 0, 64, 0
1, 65987, Note_on_c, 0, 71, 0
1, 66000, Note_on_c, 0, 59, 80
1, 66000, Note_on_c, 0, 67, 80
1, 66227, Note_on_c, 0, 59, 0
1, 66227, Note_on_c, 0, 67, 0
1, 66240, Note_on_c, 0, 60, 80
1, 66240, Note_on_c, 0, 69, 80
1, 66695, Note_on_c, 0, 60, 0
1, 66695, Note_on_c, 0, 69, 0
1, 66720, Note_on_c, 0, 59, 80
1, 66720, Note_on_c, 0, 67, 80
1, 66947, Note_on_c, 0, 59, 0
1, 66947, Note_on_c, 0, 67, 0
1, 66960, Note_on_c, 0, 60, 80
1, 66960, Note_on_c, 0, 69, 80
1, 67187, Note_on_c, 0, 60, 0
1, 67187, Note_on_c, 0, 69, 0
1, 67200, Note_on_c, 0, 62, 80
1, 67200, Note_on_c, 0, 71, 80
1, 67427, Note_on_c, 0, 62, 0
1, 67427, Note_on_c, 0, 71, 0
1, 67440, Note_on_c, 0, 64, 80
1, 67440, Note_on_c, 0, 72, 80
1, 67667, Note_on_c, 0, 64, 0
1, 67667, Note_on_c, 0, 72, 0
1, 67680, Note_on_c, 0, 67, 80
1, 67680, Note_on_c, 0, 74, 80
1, 67907, Note_on_c, 0, 67, 0
1, 67907, Note_on_c, 0, 74, 0
1, 67920, Note_on_c, 0, 69, 80
1, 67920, Note_on_c, 0, 76, 80
1, 68147, Note_on_c, 0, 69, 0
1, 68147, Note_on_c, 0, 76, 0
1, 68160, Note_on_c, 0, 64, 80
1, 68160, Note_on_c, 0, 69, 80
1, 68399, Note_on_c, 0, 64, 0
1, 68399, Note_on_c, 0, 69, 0
1, 68640, Note_on_c, 0, 67, 80
1, 68640, Note_on_c, 0, 76, 80
1, 68867, Note_on_c, 0, 67, 0
1, 68867, Note_on_c, 0, 76, 0
1, 68880, Note_on_c, 0, 71, 80
1, 68880, Note_on_c, 0, 79, 80
1, 69107, Note_on_c, 0, 71, 0
1, 69107, Note_on_c, 0, 79, 0
1, 69120, Note_on_c, 0, 71, 80
1, 69120, Note_on_c, 0, 79, 80
1, 69347, Note_on_c, 0, 71, 0
1, 69347, Note_on_c, 0, 79, 0
1, 69360, Note_on_c, 0, 72, 80
1, 69360, Note_on_c, 0, 81, 80
1, 69587, Note_on_c, 0, 72, 0
1, 69587, Note_on_c, 0, 81, 0
1, 69600, Note_on_c, 0, 69, 80
1, 69600, Note_on_c, 0, 76, 80
1, 69827, Note_on_c, 0, 69, 0
1, 69827, Note_on_c, 0, 76, 0
1, 69840, Note_on_c, 0, 67, 80
1, 69840, Note_on_c, 0, 74, 80
1, 70067, Note_on_c, 0, 67, 0
1, 70067, Note_on_c, 0, 74, 0
1, 70080, Note_on_c, 0, 69, 80
1, 70080, Note_on_c, 0, 76, 80
1, 70535, Note_on_c, 0, 69, 0
1, 70535, Note_on_c, 0, 76, 0
1, 70560, Note_on_c, 0, 67, 80
1, 70560, Note_on_c, 0, 74, 80
1, 70787, Note_on_c, 0, 67, 0
1, 70787, Note_on_c, 0, 74, 0
1, 70800, Note_on_c, 0, 69, 80
1, 70800, Note_on_c, 0, 76, 80
1, 71027, Note_on_c, 0, 69, 0
1, 71027, Note_on_c, 0, 76, 0
1, 71040, Note_on_c, 0, 71, 80
1, 71040, Note_on_c, 0, 79, 80
1, 71267, Note_on_c, 0, 71, 0
1, 71267, Note_on_c, 0, 79, 0
1, 71280, Note_on_c, 0, 72, 80
1, 71280, Note_on_c, 0, 81, 80
1, 71507, Note_on_c, 0, 72, 0
1, 71507, Note_on_c, 0, 81, 0
1, 71520, Note_on_c, 0, 69, 80
1, 71520, Note_on_c, 0, 76, 80
1, 71747, Note_on_c, 0, 69, 0
1, 71747, Note_on_c, 0, 76, 0
1, 71760, Note_on_c, 0, 67, 80
1, 71760, Note_on_c, 0, 74, 80
1, 71987, Note_on_c, 0, 67, 0
1, 71987, Note_on_c, 0, 74, 0
1, 72000, Note_on_c, 0, 69, 80
1, 72000, Note_on_c, 0, 76, 80
1, 72455, Note_on_c, 0, 69, 0
1, 72455, Note_on_c, 0, 76, 0
1, 72480, Note_on_c, 0, 64, 80
1, 72480, Note_on_c, 0, 74, 80
1, 72707, Note_on_c, 0, 64, 0
1, 72707, Note_on_c, 0, 74, 0
1, 72720, Note_on_c, 0, 67, 80
1, 72720, Note_on_c, 0, 76, 80
1, 72947, Note_on_c, 0, 67, 0
1, 72947, Note_on_c, 0, 76, 0
1, 72960, Note_on_c, 0, 69, 80
1, 72960, Note_on_c, 0, 74, 80
1, 73187, Note_on_c, 0, 69, 0
1, 73187, Note_on_c, 0, 74, 0
1, 73200, Note_on_c, 0, 67, 80
1, 73200, Note_on_c, 0, 72, 80
1, 73427, Note_on_c, 0, 67, 0
1, 73427, Note_on_c, 0, 72, 0
1, 73440, Note_on_c, 0, 64, 80
1, 73440, Note_on_c, 0, 71, 80
1, 73667, Note_on_c, 0, 64, 0
1, 73667, Note_on_c, 0, 71, 0
1, 73680, Note_on_c, 0, 59, 80
1, 73680, Note_on_c, 0, 67, 80
1, 73907, Note_on_c, 0, 59, 0
1, 73907, Note_on_c, 0, 67, 0
1, 73920, Note_on_c, 0, 60, 80
1, 73920, Note_on_c, 0, 69, 80
1, 74375, Note_on_c, 0, 60, 0
1, 74375, Note_on_c, 0, 69, 0
1, 74400, Note_on_c, 0, 59, 80
1, 74400, Note_on_c, 0, 67, 80
1, 74627, Note_on_c, 0, 59, 0
1, 74627, Note_on_c, 0, 67, 0
1, 74640, Note_on_c, 0, 60, 80
1, 74640, Note_on_c, 0, 69, 80
1, 74867, Note_on_c, 0, 60, 0
1, 74867, Note_on_c, 0, 69, 0
1, 74880, Note_on_c, 0, 62, 80
1, 74880, Note_on_c, 0, 71, 80
1, 75107, Note_on_c, 0, 62, 0
1, 75107, Note_on_c, 0, 71, 0
1, 75120, Note_on_c, 0, 64, 80
1, 75120, Note_on_c, 0, 72, 80
1, 75347, Note_on_c, 0, 64, 0
1, 75347, Note_on_c, 0, 72, 0
1, 75360, Note_on_c, 0, 67, 80
1, 75360, Note_on_c, 0, 74, 80
1, 75587, Note_on_c, 0, 67, 0
1, 75587, Note_on_c, 0, 74, 0
1, 75600, Note_on_c, 0, 69, 80
1, 75600, Note_on_c, 0, 76, 80
1, 75827, Note_on_c, 0, 69, 0
1, 75827, Note_on_c, 0, 76, 0
1, 75840, Note_on_c, 0, 60, 80
1, 75840, Note_on_c, 0, 64, 80
1, 75840, Note_on_c, 0, 69, 80
1, 76079, Note_on_c, 0, 60, 0
1, 76079, Note_on_c, 0, 64, 0
1, 76079, Note_on_c, 0, 69, 0
1, 76320, Note_on_c, 0, 76, 80
1, 76547, Note_on_c, 0, 76, 0
1, 76560, Note_on_c, 0, 79, 80
1, 76787, Note_on_c, 0, 79, 0
1, 76800, Note_on_c, 0, 71, 80
1, 76800, Note_on_c, 0, 79, 80
1, 77027, Note_on_c, 0, 71, 0
1, 77027, Note_on_c, 0, 79, 0
1, 77040, Note_on_c, 0, 81, 80
1, 77267, Note_on_c, 0, 81, 0
1, 77280, Note_on_c, 0, 76, 80
1, 77507, Note_on_c, 0, 76, 0
1, 77520, Note_on_c, 0, 74, 80
1, 77747, Note_on_c, 0, 74, 0
1, 77760, Note_on_c, 0, 76, 80
1, 78215, Note_on_c, 0, 76, 0
1, 78240, Note_on_c, 0, 74, 80
1, 78467, Note_on_c, 0, 74, 0
1, 78480, Note_on_c, 0, 76, 80
1, 78707, Note_on_c, 0, 76, 0
1, 78720, Note_on_c, 0, 79, 80
1, 78947, Note_on_c, 0, 79, 0
1, 78960, Note_on_c, 0, 81, 80
1, 79187, Note_on_c, 0, 81, 0
1, 79200, Note_on_c, 0, 76, 80
1, 79427, Note_on_c, 0, 76, 0
1, 79440, Note_on_c, 0, 74, 80
1, 79667, Note_on_c, 0, 74, 0
1, 79680, Note_on_c, 0, 76, 80
1, 79919, Note_on_c, 0, 76, 0
1, 80160, Note_on_c, 0, 74, 80
1, 80387, Note_on_c, 0, 74, 0
1, 80400, Note_on_c, 0, 76, 80
1, 80627, Note_on_c, 0, 76, 0
1, 80640, Note_on_c, 0, 74, 80
1, 80867, Note_on_c, 0, 74, 0
1, 80880, Note_on_c, 0, 72, 80
1, 81107, Note_on_c, 0, 72, 0
1, 81120, Note_on_c, 0, 71, 80
1, 81347, Note_on_c, 0, 71, 0
1, 81360, Note_on_c, 0, 67, 80
1, 81587, Note_on_c, 0, 67, 0
1, 81600, Note_on_c, 0, 69, 80
1, 81839, Note_on_c, 0, 69, 0
1, 82080, Note_on_c, 0, 67, 80
1, 82307, Note_on_c, 0, 67, 0
1, 82320, Note_on_c, 0, 69, 80
1, 82547, Note_on_c, 0, 69, 0
1, 82560, Note_on_c, 0, 71, 80
1, 82787, Note_on_c, 0, 71, 0
1, 82800, Note_on_c, 0, 72, 80
1, 83027, Note_on_c, 0, 72, 0
1, 83040, Note_on_c, 0, 74, 80
1, 83267, Note_on_c, 0, 74, 0
1, 83280, Note_on_c, 0, 76, 80
1, 83507, Note_on_c, 0, 76, 0
1, 83520, Note_on_c, 0, 64, 80
1, 83520, Note_on_c, 0, 69, 80
1, 83759, Note_on_c, 0, 64, 0
1, 83759, Note_on_c, 0, 69, 0
1, 84000, Note_on_c, 0, 76, 80
1, 84227, Note_on_c, 0, 76, 0
1, 84240, Note_on_c, 0, 79, 80
1, 84467, Note_on_c, 0, 79, 0
1, 84480, Note_on_c, 0, 79, 80
1, 84707, Note_on_c, 0, 79, 0
1, 84720, Note_on_c, 0, 81, 80
1, 84947, Note_on_c, 0, 81, 0
1, 84960, Note_on_c, 0, 76, 80
1, 85187, Note_on_c, 0, 76, 0
1, 85200, Note_on_c, 0, 74, 80
1, 85427, Note_on_c, 0, 74, 0
1, 85440, Note_on_c, 0, 76, 80
1, 85679, Note_on_c, 0, 76, 0
1, 85920, Note_on_c, 0, 74, 80
1, 86147, Note_on_c, 0, 74, 0
1, 86160, Note_on_c, 0, 76, 80
1, 86387, Note_on_c, 0, 76, 0
1, 86400, Note_on_c, 0, 79, 80
1, 86627, Note_on_c, 0, 79, 0
1, 86640, Note_on_c, 0, 81, 80
1, 86867, Note_on_c, 0, 81, 0
1, 86880, Note_on_c, 0, 76, 80
1, 87107, Note_on_c, 0, 76, 0
1, 87120, Note_on_c, 0, 74, 80
1, 87347, Note_on_c, 0, 74, 0
1, 87360, Note_on_c, 0, 76, 80
1, 87599, Note_on_c, 0, 76, 0
1, 87840, Note_on_c, 0, 81, 80
1, 88067, Note_on_c, 0, 81, 0
1, 88080, Note_on_c, 0, 83, 80
1, 88307, Note_on_c, 0, 83, 0
1, 88320, Note_on_c, 0, 76, 80
1, 88320, Note_on_c, 0, 84, 80
1, 88547, Note_on_c, 0, 76, 0
1, 88547, Note_on_c, 0, 84, 0
1, 88560, Note_on_c, 0, 83, 80
1, 88787, Note_on_c, 0, 83, 0
1, 88800, Note_on_c, 0, 81, 80
1, 89027, Note_on_c, 0, 81, 0
1, 89040, Note_on_c, 0, 79, 80
1, 89267, Note_on_c, 0, 79, 0
1, 89280, Note_on_c, 0, 76, 80
1, 89519, Note_on_c, 0, 76, 0
1, 89760, Note_on_c, 0, 74, 80
1, 89987, Note_on_c, 0, 74, 0
1, 90000, Note_on_c, 0, 76, 80
1, 90227, Note_on_c, 0, 76, 0
1, 90240, Note_on_c, 0, 74, 80
1, 90467, Note_on_c, 0, 74, 0
1, 90480, Note_on_c, 0, 72, 80
1, 90707, Note_on_c, 0, 72, 0
1, 90720, Note_on_c, 0, 71, 80
1, 90947, Note_on_c, 0, 71, 0
1, 90960, Note_on_c, 0, 67, 80
1, 91187, Note_on_c, 0, 67, 0
1, 91200, Note_on_c, 0, 64, 80
1, 91200, Note_on_c, 0, 69, 80
1, 91439, Note_on_c, 0, 64, 0
1, 91439, Note_on_c, 0, 69, 0
1, 91680, Note_on_c, 0, 67, 80
1, 91680, Note_on_c, 0, 76, 80
1, 91907, Note_on_c, 0, 67, 0
1, 91907, Note_on_c, 0, 76, 0
1, 91920, Note_on_c, 0, 71, 80
1, 91920, Note_on_c, 0, 79, 80
1, 92147, Note_on_c, 0, 71, 0
1, 92147, Note_on_c, 0, 79, 0
1, 92160, Note_on_c, 0, 69, 80
1, 92160, Note_on_c, 0, 79, 80
1, 92387, Note_on_c, 0, 69, 0
1, 92387, Note_on_c, 0, 79, 0
1, 92400, Note_on_c, 0, 72, 80
1, 92400, Note_on_c, 0, 81, 80
1, 92627, Note_on_c, 0, 72, 0
1, 92627, Note_on_c, 0, 81, 0
1, 92640, Note_on_c, 0, 69, 80
1, 92640, Note_on_c, 0, 76, 80
1, 92867, Note_on_c, 0, 69, 0
1, 92867, Note_on_c, 0, 76, 0
1, 92880, Note_on_c, 0, 67, 80
1, 92880, Note_on_c, 0, 74, 80
1, 93107, Note_on_c, 0, 67, 0
1, 93107, Note_on_c, 0, 74, 0
1, 93120, Note_on_c, 0, 69, 80
1, 93120, Note_on_c, 0, 76, 80
1, 93359, Note_on_c, 0, 69, 0
1, 93359, Note_on_c, 0, 76, 0
1, 93600, Note_on_c, 0, 64, 80
1, 93600, Note_on_c, 0, 74, 80
1, 93827, Note_on_c, 0, 64, 0
1, 93827, Note_on_c, 0, 74, 0
1, 93840, Note_on_c, 0, 67, 80
1, 93840, Note_on_c, 0, 76, 80
1, 94067, Note_on_c, 0, 67, 0
1, 94067, Note_on_c, 0, 76, 0
1, 94080, Note_on_c, 0, 69, 80
1, 94080, Note_on_c, 0, 79, 80
1, 94307, Note_on_c, 0, 69, 0
1, 94307, Note_on_c, 0, 79, 0
1, 94320, Note_on_c, 0, 72, 80
1, 94320, Note_on_c, 0, 81, 80
1, 94547, Note_on_c, 0, 72, 0
1, 94547, Note_on_c, 0, 81, 0
1, 94560, Note_on_c, 0, 69, 80
1, 94560, Note_on_c, 0, 76, 80
1, 94787, Note_on_c, 0, 69, 0
1, 94787, Note_on_c, 0, 76, 0
1, 94800, Note_on_c, 0, 67, 80
1, 94800, Note_on_c, 0, 74, 80
1, 95027, Note_on_c, 0, 67, 0
1, 95027, Note_on_c, 0, 74, 0
1, 95040, Note_on_c, 0, 69, 80
1, 95040, Note_on_c, 0, 76, 80
1, 95279, Note_on_c, 0, 69, 0
1, 95279, Note_on_c, 0, 76, 0
1, 95520, Note_on_c, 0, 67, 80
1, 95520, Note_on_c, 0, 74, 80
1, 95747, Note_on_c, 0, 67, 0
1, 95747, Note_on_c, 0, 74, 0
1, 95760, Note_on_c, 0, 69, 80
1, 95760, Note_on_c, 0, 76, 80
1, 95987, Note_on_c, 0, 69, 0
1, 95987, Note_on_c, 0, 76, 0
1, 96000, Note_on_c, 0, 67, 80
1, 96000, Note_on_c, 0, 74, 80
1, 96227, Note_on_c, 0, 67, 0
1, 96227, Note_on_c, 0, 74, 0
1, 96240, Note_on_c, 0, 64, 80
1, 96240, Note_on_c, 0, 72, 80
1, 96467, Note_on_c, 0, 64, 0
1, 96467, Note_on_c, 0, 72, 0
1, 96480, Note_on_c, 0, 62, 80
1, 96480, Note_on_c, 0, 71, 80
1, 96707, Note_on_c, 0, 62, 0
1, 96707, Note_on_c, 0, 71, 0
1, 96720, Note_on_c, 0, 59, 80
1, 96720, Note_on_c, 0, 67, 80
1, 96947, Note_on_c, 0, 59, 0
1, 96947, Note_on_c, 0, 67, 0
1, 96960, Note_on_c, 0, 69, 80
1, 97199, Note_on_c, 0, 69, 0
1, 97440, Note_on_c, 0, 59, 80
1, 97440, Note_on_c, 0, 67, 80
1, 97667, Note_on_c, 0, 59, 0
1, 97667, Note_on_c, 0, 67, 0
1, 97680, Note_on_c, 0, 60, 80
1, 97680, Note_on_c, 0, 69, 80
1, 97907, Note_on_c, 0, 60, 0
1, 97907, Note_on_c, 0, 69, 0
1, 97920, Note_on_c, 0, 62, 80
1, 97920, Note_on_c, 0, 71, 80
1, 98147, Note_on_c, 0, 62, 0
1, 98147, Note_on_c, 0, 71, 0
1, 98160, Note_on_c, 0, 64, 80
1, 98160, Note_on_c, 0, 72, 80
1, 98387, Note_on_c, 0, 64, 0
1, 98387, Note_on_c, 0, 72, 0
1, 98400, Note_on_c, 0, 67, 80
1, 98400, Note_on_c, 0, 74, 80
1, 98627, Note_on_c, 0, 67, 0
1, 98627, Note_on_c, 0, 74, 0
1, 98640, Note_on_c, 0, 69, 80
1, 98640, Note_on_c, 0, 76, 80
1, 98867, Note_on_c, 0, 69, 0
1, 98867, Note_on_c, 0, 76, 0
1, 98880, Note_on_c, 0, 69, 80
1, 99119, Note_on_c, 0, 69, 0
1, 99360, Note_on_c, 0, 67, 80
1, 99360, Note_on_c, 0, 76, 80
1, 99587, Note_on_c, 0, 67, 0
1, 99587, Note_on_c, 0, 76, 0
1, 99600, Note_on_c, 0, 71, 80
1, 99600, Note_on_c, 0, 79, 80
1, 99827, Note_on_c, 0, 71, 0
1, 99827, Note_on_c, 0, 79, 0
1, 99840, Note_on_c, 0, 69, 80
1, 99840, Note_on_c, 0, 79, 80
1, 100067, Note_on_c, 0, 69, 0
1, 100067, Note_on_c, 0, 79, 0
1, 100080, Note_on_c, 0, 72, 80
1, 100080, Note_on_c, 0, 81, 80
1, 100307, Note_on_c, 0, 72, 0
1, 100307, Note_on_c, 0, 81, 0
1, 100320, Note_on_c, 0, 69, 80
1, 100320, Note_on_c, 0, 76, 80
1, 100547, Note_on_c, 0, 69, 0
1, 100547, Note_on_c, 0, 76, 0
1, 100560, Note_on_c, 0, 67, 80
1, 100560, Note_on_c, 0, 74, 80
1, 100787, Note_on_c, 0, 67, 0
1, 100787, Note_on_c, 0, 74, 0
1, 100800, Note_on_c, 0, 69, 80
1, 100800, Note_on_c, 0, 76, 80
1, 101039, Note_on_c, 0, 69, 0
1, 101039, Note_on_c, 0, 76, 0
1, 101280, Note_on_c, 0, 64, 80
1, 101280, Note_on_c, 0, 74, 80
1, 101507, Note_on_c, 0, 64, 0
1, 101507, Note_on_c, 0, 74, 0
1, 101520, Note_on_c, 0, 67, 80
1, 101520, Note_on_c, 0, 76, 80
1, 101747, Note_on_c, 0, 67, 0
1, 101747, Note_on_c, 0, 76, 0
1, 101760, Note_on_c, 0, 69, 80
1, 101760, Note_on_c, 0, 79, 80
1, 101987, Note_on_c, 0, 69, 0
1, 101987, Note_on_c, 0, 79, 0
1, 102000, Note_on_c, 0, 72, 80
1, 102000, Note_on_c, 0, 81, 80
1, 102227, Note_on_c, 0, 72, 0
1, 102227, Note_on_c, 0, 81, 0
1, 102240, Note_on_c, 0, 69, 80
1, 102240, Note_on_c, 0, 76, 80
1, 102467, Note_on_c, 0, 69, 0
1, 102467, Note_on_c, 0, 76, 0
1, 102480, Note_on_c, 0, 67, 80
1, 102480, Note_on_c, 0, 74, 80
1, 102707, Note_on_c, 0, 67, 0
1, 102707, Note_on_c, 0, 74, 0
1, 102720, Note_on_c, 0, 69, 80
1, 102720, Note_on_c, 0, 76, 80
1, 102959, Note_on_c, 0, 69, 0
1, 102959, Note_on_c, 0, 76, 0
1, 103200, Note_on_c, 0, 74, 80
1, 103427, Note_on_c, 0, 74, 0
1, 103440, Note_on_c, 0, 76, 80
1, 103667, Note_on_c, 0, 76, 0
1, 103680, Note_on_c, 0, 74, 80
1, 103907, Note_on_c, 0, 74, 0
1, 103920, Note_on_c, 0, 64, 80
1, 103920, Note_on_c, 0, 72, 80
1, 104147, Note_on_c, 0, 64, 0
1, 104147, Note_on_c, 0, 72, 0
1, 104160, Note_on_c, 0, 71, 80
1, 104160, Note_on_c, 0, 62, 80
1, 104399, Note_on_c, 0, 71, 0
1, 104400, Note_on_c, 0, 59, 80
1, 104400, Note_on_c, 0, 67, 80
1, 104615, Note_on_c, 0, 62, 0
1, 104627, Note_on_c, 0, 59, 0
1, 104627, Note_on_c, 0, 67, 0
1, 104640, Note_on_c, 0, 69, 80
1, 104879, Note_on_c, 0, 69, 0
1, 105120, Note_on_c, 0, 59, 80
1, 105120, Note_on_c, 0, 67, 80
1, 105347, Note_on_c, 0, 59, 0
1, 105347, Note_on_c, 0, 67, 0
1, 105360, Note_on_c, 0, 60, 80
1, 105360, Note_on_c, 0, 69, 80
1, 105587, Note_on_c, 0, 60, 0
1, 105587, Note_on_c, 0, 69, 0
1, 105600, Note_on_c, 0, 62, 80
1, 105600, Note_on_c, 0, 71, 80
1, 105827, Note_on_c, 0, 62, 0
1, 105827, Note_on_c, 0, 71, 0
1, 105840, Note_on_c, 0, 64, 80
1, 105840, Note_on_c, 0, 72, 80
1, 106067, Note_on_c, 0, 64, 0
1, 106067, Note_on_c, 0, 72, 0
1, 106080, Note_on_c, 0, 67, 80
1, 106080, Note_on_c, 0, 74, 80
1, 106307, Note_on_c, 0, 67, 0
1, 106307, Note_on_c, 0, 74, 0
1, 106320, Note_on_c, 0, 69, 80
1, 106320, Note_on_c, 0, 76, 80
1, 106547, Note_on_c, 0, 69, 0
1, 106547, Note_on_c, 0, 76, 0
1, 106560, Note_on_c, 0, 69, 80
1, 106799, Note_on_c, 0, 69, 0
1, 107040, Note_on_c, 0, 67, 80
1, 107040, Note_on_c, 0, 76, 80
1, 107267, Note_on_c, 0, 67, 0
1, 107267, Note_on_c, 0, 76, 0
1, 107280, Note_on_c, 0, 71, 80
1, 107280, Note_on_c, 0, 79, 80
1, 107507, Note_on_c, 0, 71, 0
1, 107507, Note_on_c, 0, 79, 0
1, 107520, Note_on_c, 0, 69, 80
1, 107520, Note_on_c, 0, 79, 80
1, 107747, Note_on_c, 0, 69, 0
1, 107747, Note_on_c, 0, 79, 0
1, 107760, Note_on_c, 0, 72, 80
1, 107760, Note_on_c, 0, 81, 80
1, 107987, Note_on_c, 0, 72, 0
1, 107987, Note_on_c, 0, 81, 0
1, 108000, Note_on_c, 0, 69, 80
1, 108000, Note_on_c, 0, 76, 80
1, 108227, Note_on_c, 0, 69, 0
1, 108227, Note_on_c, 0, 76, 0
1, 108240, Note_on_c, 0, 67, 80
1, 108240, Note_on_c, 0, 74, 80
1, 108467, Note_on_c, 0, 67, 0
1, 108467, Note_on_c, 0, 74, 0
1, 108480, Note_on_c, 0, 69, 80
1, 108480, Note_on_c, 0, 76, 80
1, 108719, Note_on_c, 0, 69, 0
1, 108719, Note_on_c, 0, 76, 0
1, 108960, Note_on_c, 0, 64, 80
1, 108960, Note_on_c, 0, 74, 80
1, 109187, Note_on_c, 0, 64, 0
1, 109187, Note_on_c, 0, 74, 0
1, 109200, Note_on_c, 0, 67, 80
1, 109200, Note_on_c, 0, 76, 80
1, 109427, Note_on_c, 0, 67, 0
1, 109427, Note_on_c, 0, 76, 0
1, 109440, Note_on_c, 0, 69, 80
1, 109440, Note_on_c, 0, 79, 80
1, 109667, Note_on_c, 0, 69, 0
1, 109667, Note_on_c, 0, 79, 0
1, 109680, Note_on_c, 0, 72, 80
1, 109680, Note_on_c, 0, 81, 80
1, 109907, Note_on_c, 0, 72, 0
1, 109907, Note_on_c, 0, 81, 0
1, 109920, Note_on_c, 0, 69, 80
1, 109920, Note_on_c, 0, 76, 80
1, 110147, Note_on_c, 0, 69, 0
1, 110147, Note_on_c, 0, 76, 0
1, 110160, Note_on_c, 0, 67, 80
1, 110160, Note_on_c, 0, 74, 80
1, 110387, Note_on_c, 0, 67, 0
1, 110387, Note_on_c, 0, 74, 0
1, 110400, Note_on_c, 0, 69, 80
1, 110400, Note_on_c, 0, 76, 80
1, 110639, Note_on_c, 0, 69, 0
1, 110639, Note_on_c, 0, 76, 0
1, 110880, Note_on_c, 0, 67, 80
1, 110880, Note_on_c, 0, 74, 80
1, 111107, Note_on_c, 0, 67, 0
1, 111107, Note_on_c, 0, 74, 0
1, 111120, Note_on_c, 0, 69, 80
1, 111120, Note_on_c, 0, 76, 80
1, 111347, Note_on_c, 0, 69, 0
1, 111347, Note_on_c, 0, 76, 0
1, 111360, Note_on_c, 0, 67, 80
1, 111360, Note_on_c, 0, 74, 80
1, 111587, Note_on_c, 0, 67, 0
1, 111587, Note_on_c, 0, 74, 0
1, 111600, Note_on_c, 0, 64, 80
1, 111600, Note_on_c, 0, 72, 80
1, 111827, Note_on_c, 0, 64, 0
1, 111827, Note_on_c, 0, 72, 0
1, 111840, Note_on_c, 0, 62, 80
1, 111840, Note_on_c, 0, 71, 80
1, 112067, Note_on_c, 0, 62, 0
1, 112067, Note_on_c, 0, 71, 0
1, 112080, Note_on_c, 0, 59, 80
1, 112080, Note_on_c, 0, 67, 80
1, 112307, Note_on_c, 0, 59, 0
1, 112307, Note_on_c, 0, 67, 0
1, 112320, Note_on_c, 0, 69, 80
1, 112559, Note_on_c, 0, 69, 0
1, 112800, Note_on_c, 0, 59, 80
1, 112800, Note_on_c, 0, 67, 80
1, 113027, Note_on_c, 0, 59, 0
1, 113027, Note_on_c, 0, 67, 0
1, 113040, Note_on_c, 0, 60, 80
1, 113040, Note_on_c, 0, 69, 80
1, 113267, Note_on_c, 0, 60, 0
1, 113267, Note_on_c, 0, 69, 0
1, 113280, Note_on_c, 0, 62, 80
1, 113280, Note_on_c, 0, 71, 80
1, 113507, Note_on_c, 0, 62, 0
1, 113507, Note_on_c, 0, 71, 0
1, 113520, Note_on_c, 0, 64, 80
1, 113520, Note_on_c, 0, 72, 80
1, 113747, Note_on_c, 0, 64, 0
1, 113747, Note_on_c, 0, 72, 0
1, 113760, Note_on_c, 0, 67, 80
1, 113760, Note_on_c, 0, 74, 80
1, 113987, Note_on_c, 0, 67, 0
1, 113987, Note_on_c, 0, 74, 0
1, 114000, Note_on_c, 0, 69, 80
1, 114000, Note_on_c, 0, 76, 80
1, 114227, Note_on_c, 0, 69, 0
1, 114227, Note_on_c, 0, 76, 0
1, 114240, Note_on_c, 0, 69, 80
1, 114479, Note_on_c, 0, 69, 0
1, 114720, Note_on_c, 0, 67, 80
1, 114720, Note_on_c, 0, 76, 80
1, 114947, Note_on_c, 0, 67, 0
1, 114947, Note_on_c, 0, 76, 0
1, 114960, Note_on_c, 0, 71, 80
1, 114960, Note_on_c, 0, 79, 80
1, 115187, Note_on_c, 0, 71, 0
1, 115187, Note_on_c, 0, 79, 0
1, 115200, Note_on_c, 0, 69, 80
1, 115200, Note_on_c, 0, 79, 80
1, 115427, Note_on_c, 0, 69, 0
1, 115427, Note_on_c, 0, 79, 0
1, 115440, Note_on_c, 0, 72, 80
1, 115440, Note_on_c, 0, 81, 80
1, 115667, Note_on_c, 0, 72, 0
1, 115667, Note_on_c, 0, 81, 0
1, 115680, Note_on_c, 0, 69, 80
1, 115680, Note_on_c, 0, 76, 80
1, 115907, Note_on_c, 0, 69, 0
1, 115907, Note_on_c, 0, 76, 0
1, 115920, Note_on_c, 0, 67, 80
1, 115920, Note_on_c, 0, 74, 80
1, 116147, Note_on_c, 0, 67, 0
1, 116147, Note_on_c, 0, 74, 0
1, 116160, Note_on_c, 0, 69, 80
1, 116160, Note_on_c, 0, 76, 80
1, 116399, Note_on_c, 0, 69, 0
1, 116399, Note_on_c, 0, 76, 0
1, 116640, Note_on_c, 0, 64, 80
1, 116640, Note_on_c, 0, 74, 80
1, 116867, Note_on_c, 0, 64, 0
1, 116867, Note_on_c, 0, 74, 0
1, 116880, Note_on_c, 0, 67, 80
1, 116880, Note_on_c, 0, 76, 80
1, 117107, Note_on_c, 0, 67, 0
1, 117107, Note_on_c, 0, 76, 0
1, 117120, Note_on_c, 0, 69, 80
1, 117120, Note_on_c, 0, 79, 80
1, 117347, Note_on_c, 0, 69, 0
1, 117347, Note_on_c, 0, 79, 0
1, 117360, Note_on_c, 0, 72, 80
1, 117360, Note_on_c, 0, 81, 80
1, 117587, Note_on_c, 0, 72, 0
1, 117587, Note_on_c, 0, 81, 0
1, 117600, Note_on_c, 0, 69, 80
1, 117600, Note_on_c, 0, 76, 80
1, 117827, Note_on_c, 0, 69, 0
1, 117827, Note_on_c, 0, 76, 0
1, 117840, Note_on_c, 0, 67, 80
1, 117840, Note_on_c, 0, 74, 80
1, 118067, Note_on_c, 0, 67, 0
1, 118067, Note_on_c, 0, 74, 0
1, 118080, Note_on_c, 0, 69, 80
1, 118080, Note_on_c, 0, 76, 80
1, 118319, Note_on_c, 0, 69, 0
1, 118319, Note_on_c, 0, 76, 0
1, 118560, Note_on_c, 0, 72, 80
1, 118560, Note_on_c, 0, 81, 80
1, 118787, Note_on_c, 0, 72, 0
1, 118787, Note_on_c, 0, 81, 0
1, 118800, Note_on_c, 0, 74, 80
1, 118800, Note_on_c, 0, 83, 80
1, 119027, Note_on_c, 0, 74, 0
1, 119027, Note_on_c, 0, 83, 0
1, 119040, Tempo, 461538
1, 119040, Note_on_c, 0, 76, 80
1, 119040, Note_on_c, 0, 84, 80
1, 119267, Note_on_c, 0, 76, 0
1, 119267, Note_on_c, 0, 84, 0
1, 119280, Note_on_c, 0, 74, 80
1, 119280, Note_on_c, 0, 83, 80
1, 119507, Note_on_c, 0, 74, 0
1, 119507, Note_on_c, 0, 83, 0
1, 119520, Tempo, 480000
1, 119520, Note_on_c, 0, 72, 80
1, 119520, Note_on_c, 0, 81, 80
1, 119747, Note_on_c, 0, 72, 0
1, 119747, Note_on_c, 0, 81, 0
1, 119760, Note_on_c, 0, 71, 80
1, 119760, Note_on_c, 0, 79, 80
1, 119987, Note_on_c, 0, 71, 0
1, 119987, Note_on_c, 0, 79, 0
1, 120000, Tempo, 500000
1, 120000, Note_on_c, 0, 69, 80
1, 120000, Note_on_c, 0, 76, 80
1, 120239, Note_on_c, 0, 69, 0
1, 120239, Note_on_c, 0, 76, 0
1, 120480, Tempo, 545455
1, 120480, Note_on_c, 0, 67, 80
1, 120480, Note_on_c, 0, 74, 80
1, 120707, Note_on_c, 0, 67, 0
1, 120707, Note_on_c, 0, 74, 0
1, 120720, Note_on_c, 0, 69, 80
1, 120720, Note_on_c, 0, 76, 80
1, 120947, Note_on_c, 0, 69, 0
1, 120947, Note_on_c, 0, 76, 0
1, 120960, Tempo, 666667
1, 120960, Note_on_c, 0, 67, 80
1, 120960, Note_on_c, 0, 74, 80
1, 121187, Note_on_c, 0, 67, 0
1, 121187, Note_on_c, 0, 74, 0
1, 121200, Note_on_c, 0, 64, 80
1, 121200, Note_on_c, 0, 72, 80
1, 121427, Note_on_c, 0, 64, 0
1, 121427, Note_on_c, 0, 72, 0
1, 121440, Tempo, 857143
1, 121440, Note_on_c, 0, 62, 80
1, 121440, Note_on_c, 0, 71, 80
1, 121667, Note_on_c, 0, 62, 0
1, 121667, Note_on_c, 0, 71, 0
1, 121680, Tempo, 2000000
1, 121680, Note_on_c, 0, 59, 80
1, 121680, Note_on_c, 0, 67, 80
1, 121907, Note_on_c, 0, 59, 0
1, 121907, Note_on_c, 0, 67, 0
1, 121920, Note_on_c, 0, 57, 80
1, 121920, Note_on_c, 0, 60, 80
1, 121950, Note_on_c, 0, 64, 80
1, 121950, Note_on_c, 0, 69, 80
1, 122375, Note_on_c, 0, 57, 0
1, 122375, Note_on_c, 0, 60, 0
1, 122376, Note_on_c, 0, 64, 0
1, 122376, Note_on_c, 0, 69, 0
1, 122377, End_track
2, 0, Start_track
2, 0, Title_t, "Piano, Piano, Piano\000"
2, 0, Key_signature, 0, "major"
2, 0, MIDI_port, 0
2, 0, Note_on_c, 0, 57, 80
2, 455, Note_on_c, 0, 57, 0
2, 480, Note_on_c, 0, 57, 80
2, 935, Note_on_c, 0, 57, 0
2, 960, Note_on_c, 0, 57, 80
2, 1415, Note_on_c, 0, 57, 0
2, 1440, Note_on_c, 0, 57, 80
2, 1667, Note_on_c, 0, 57, 0
2, 1680, Note_on_c, 0, 57, 80
2, 1907, Note_on_c, 0, 57, 0
2, 1920, Note_on_c, 0, 57, 80
2, 2375, Note_on_c, 0, 57, 0
2, 2400, Note_on_c, 0, 57, 80
2, 2855, Note_on_c, 0, 57, 0
2, 2880, Note_on_c, 0, 57, 80
2, 3335, Note_on_c, 0, 57, 0
2, 3360, Note_on_c, 0, 57, 80
2, 3587, Note_on_c, 0, 57, 0
2, 3600, Note_on_c, 0, 57, 80
2, 3827, Note_on_c, 0, 57, 0
2, 3840, Note_on_c, 0, 57, 80
2, 4295, Note_on_c, 0, 57, 0
2, 4320, Note_on_c, 0, 57, 80
2, 4775, Note_on_c, 0, 57, 0
2, 4800, Note_on_c, 0, 57, 80
2, 5255, Note_on_c, 0, 57, 0
2, 5280, Note_on_c, 0, 57, 80
2, 5507, Note_on_c, 0, 57, 0
2, 5520, Note_on_c, 0, 57, 80
2, 5747, Note_on_c, 0, 57, 0
2, 5760, Note_on_c, 0, 57, 80
2, 6215, Note_on_c, 0, 57, 0
2, 6240, Note_on_c, 0, 57, 80
2, 6695, Note_on_c, 0, 57, 0
2, 6720, Note_on_c, 0, 57, 80
2, 7175, Note_on_c, 0, 57, 0
2, 7200, Note_on_c, 0, 57, 80
2, 7427, Note_on_c, 0, 57, 0
2, 7440, Note_on_c, 0, 57, 80
2, 7667, Note_on_c, 0, 57, 0
2, 7680, Key_signature, 0, "major"
2, 7680, Note_on_c, 0, 57, 80
2, 8135, Note_on_c, 0, 57, 0
2, 8160, Note_on_c, 0, 57, 80
2, 8615, Note_on_c, 0, 57, 0
2, 8640, Note_on_c, 0, 57, 80
2, 9095, Note_on_c, 0, 57, 0
2, 9120, Note_on_c, 0, 57, 80
2, 9347, Note_on_c, 0, 57, 0
2, 9360, Note_on_c, 0, 57, 80
2, 9587, Note_on_c, 0, 57, 0
2, 9600, Note_on_c, 0, 57, 80
2, 10055, Note_on_c, 0, 57, 0
2, 10080, Note_on_c, 0, 57, 80
2, 10535, Note_on_c, 0, 57, 0
2, 10560, Note_on_c, 0, 57, 80
2, 11015, Note_on_c, 0, 57, 0
2, 11040, Note_on_c, 0, 57, 80
2, 11267, Note_on_c, 0, 57, 0
2, 11280, Note_on_c, 0, 57, 80
2, 11507, Note_on_c, 0, 57, 0
2, 11520, Note_on_c, 0, 57, 80
2, 11975, Note_on_c, 0, 57, 0
2, 12000, Note_on_c, 0, 57, 80
2, 12455, Note_on_c, 0, 57, 0
2, 12480, Note_on_c, 0, 57, 80
2, 12935, Note_on_c, 0, 57, 0
2, 12960, Note_on_c, 0, 57, 80
2, 13187, Note_on_c, 0, 57, 0
2, 13200, Note_on_c, 0, 57, 80
2, 13427, Note_on_c, 0, 57, 0
2, 13440, Note_on_c, 0, 57, 80
2, 13895, Note_on_c, 0, 57, 0
2, 13920, Note_on_c, 0, 57, 80
2, 14375, Note_on_c, 0, 57, 0
2, 14400, Note_on_c, 0, 57, 80
2, 14855, Note_on_c, 0, 57, 0
2, 15360, Note_on_c, 0, 57, 80
2, 15587, Note_on_c, 0, 57, 0
2, 15600, Note_on_c, 0, 57, 80
2, 15827, Note_on_c, 0, 57, 0
2, 16320, Note_on_c, 0, 57, 80
2, 16547, Note_on_c, 0, 57, 0
2, 16560, Note_on_c, 0, 57, 80
2, 16787, Note_on_c, 0, 57, 0
2, 17280, Note_on_c, 0, 57, 80
2, 17507, Note_on_c, 0, 57, 0
2, 17520, Note_on_c, 0, 57, 80
2, 17747, Note_on_c, 0, 57, 0
2, 18240, Note_on_c, 0, 57, 80
2, 18695, Note_on_c, 0, 57, 0
2, 18720, Note_on_c, 0, 60, 80
2, 19175, Note_on_c, 0, 60, 0
2, 19200, Note_on_c, 0, 57, 80
2, 19427, Note_on_c, 0, 57, 0
2, 19440, Note_on_c, 0, 57, 80
2, 20123, Note_on_c, 0, 57, 0
2, 20160, Note_on_c, 0, 57, 80
2, 20387, Note_on_c, 0, 57, 0
2, 20400, Note_on_c, 0, 57, 80
2, 21083, Note_on_c, 0, 57, 0
2, 21120, Note_on_c, 0, 57, 80
2, 21347, Note_on_c, 0, 57, 0
2, 21360, Note_on_c, 0, 57, 80
2, 21587, Note_on_c, 0, 57, 0
2, 22080, Note_on_c, 0, 62, 80
2, 22535, Note_on_c, 0, 62, 0
2, 22560, Note_on_c, 0, 60, 80
2, 23015, Note_on_c, 0, 60, 0
2, 23040, Note_on_c, 0, 57, 80
2, 23267, Note_on_c, 0, 57, 0
2, 23280, Note_on_c, 0, 57, 80
2, 23507, Note_on_c, 0, 57, 0
2, 24000, Note_on_c, 0, 57, 80
2, 24227, Note_on_c, 0, 57, 0
2, 24240, Note_on_c, 0, 57, 80
2, 24467, Note_on_c, 0, 57, 0
2, 24960, Note_on_c, 0, 57, 80
2, 25187, Note_on_c, 0, 57, 0
2, 25200, Note_on_c, 0, 57, 80
2, 25427, Note_on_c, 0, 57, 0
2, 25920, Note_on_c, 0, 57, 80
2, 26375, Note_on_c, 0, 57, 0
2, 26400, Note_on_c, 0, 60, 80
2, 26855, Note_on_c, 0, 60, 0
2, 26880, Note_on_c, 0, 57, 80
2, 27107, Note_on_c, 0, 57, 0
2, 27120, Note_on_c, 0, 57, 80
2, 27803, Note_on_c, 0, 57, 0
2, 27840, Note_on_c, 0, 57, 80
2, 28067, Note_on_c, 0, 57, 0
2, 28080, Note_on_c, 0, 57, 80
2, 28763, Note_on_c, 0, 57, 0
2, 28800, Note_on_c, 0, 57, 80
2, 29027, Note_on_c, 0, 57, 0
2, 29040, Note_on_c, 0, 57, 80
2, 29267, Note_on_c, 0, 57, 0
2, 29760, Note_on_c, 0, 62, 80
2, 30215, Note_on_c, 0, 62, 0
2, 30240, Note_on_c, 0, 60, 80
2, 30695, Note_on_c, 0, 60, 0
2, 30960, Note_on_c, 0, 52, 80
2, 30960, Note_on_c, 0, 57, 80
2, 30960, Note_on_c, 0, 60, 80
2, 31187, Note_on_c, 0, 52, 0
2, 31187, Note_on_c, 0, 57, 0
2, 31187, Note_on_c, 0, 60, 0
2, 31440, Note_on_c, 0, 52, 80
2, 31440, Note_on_c, 0, 57, 80
2, 31667, Note_on_c, 0, 52, 0
2, 31667, Note_on_c, 0, 57, 0
2, 31920, Note_on_c, 0, 52, 80
2, 31920, Note_on_c, 0, 57, 80
2, 32147, Note_on_c, 0, 52, 0
2, 32147, Note_on_c, 0, 57, 0
2, 32400, Note_on_c, 0, 52, 80
2, 32400, Note_on_c, 0, 57, 80
2, 32627, Note_on_c, 0, 52, 0
2, 32627, Note_on_c, 0, 57, 0
2, 32880, Note_on_c, 0, 52, 80
2, 32880, Note_on_c, 0, 57, 80
2, 33107, Note_on_c, 0, 52, 0
2, 33107, Note_on_c, 0, 57, 0
2, 33360, Note_on_c, 0, 52, 80
2, 33360, Note_on_c, 0, 57, 80
2, 33587, Note_on_c, 0, 52, 0
2, 33587, Note_on_c, 0, 57, 0
2, 33840, Note_on_c, 0, 52, 80
2, 33840, Note_on_c, 0, 57, 80
2, 34067, Note_on_c, 0, 52, 0
2, 34067, Note_on_c, 0, 57, 0
2, 34320, Note_on_c, 0, 52, 80
2, 34320, Note_on_c, 0, 57, 80
2, 34547, Note_on_c, 0, 52, 0
2, 34547, Note_on_c, 0, 57, 0
2, 34800, Note_on_c, 0, 53, 80
2, 34800, Note_on_c, 0, 60, 80
2, 35027, Note_on_c, 0, 53, 0
2, 35027, Note_on_c, 0, 60, 0
2, 35280, Note_on_c, 0, 53, 80
2, 35280, Note_on_c, 0, 60, 80
2, 35507, Note_on_c, 0, 53, 0
2, 35507, Note_on_c, 0, 60, 0
2, 35760, Note_on_c, 0, 53, 80
2, 35760, Note_on_c, 0, 60, 80
2, 35987, Note_on_c, 0, 53, 0
2, 35987, Note_on_c, 0, 60, 0
2, 36240, Note_on_c, 0, 53, 80
2, 36240, Note_on_c, 0, 60, 80
2, 36467, Note_on_c, 0, 53, 0
2, 36467, Note_on_c, 0, 60, 0
2, 36720, Note_on_c, 0, 50, 80
2, 36720, Note_on_c, 0, 55, 80
2, 36947, Note_on_c, 0, 50, 0
2, 36947, Note_on_c, 0, 55, 0
2, 37200, Note_on_c, 0, 50, 80
2, 37200, Note_on_c, 0, 55, 80
2, 37427, Note_on_c, 0, 50, 0
2, 37427, Note_on_c, 0, 55, 0
2, 37680, Note_on_c, 0, 50, 80
2, 37680, Note_on_c, 0, 55, 80
2, 37907, Note_on_c, 0, 50, 0
2, 37907, Note_on_c, 0, 55, 0
2, 38160, Note_on_c, 0, 50, 80
2, 38160, Note_on_c, 0, 55, 80
2, 38387, Note_on_c, 0, 50, 0
2, 38387, Note_on_c, 0, 55, 0
2, 38640, Note_on_c, 0, 52, 80
2, 38640, Note_on_c, 0, 57, 80
2, 38867, Note_on_c, 0, 52, 0
2, 38867, Note_on_c, 0, 57, 0
2, 39120, Note_on_c, 0, 52, 80
2, 39120, Note_on_c, 0, 57, 80
2, 39347, Note_on_c, 0, 52, 0
2, 39347, Note_on_c, 0, 57, 0
2, 39600, Note_on_c, 0, 52, 80
2, 39600, Note_on_c, 0, 57, 80
2, 39827, Note_on_c, 0, 52, 0
2, 39827, Note_on_c, 0, 57, 0
2, 40080, Note_on_c, 0, 52, 80
2, 40080, Note_on_c, 0, 57, 80
2, 40307, Note_on_c, 0, 52, 0
2, 40307, Note_on_c, 0, 57, 0
2, 40560, Note_on_c, 0, 52, 80
2, 40560, Note_on_c, 0, 57, 80
2, 40787, Note_on_c, 0, 52, 0
2, 40787, Note_on_c, 0, 57, 0
2, 41040, Note_on_c, 0, 52, 80
2, 41040, Note_on_c, 0, 57, 80
2, 41267, Note_on_c, 0, 52, 0
2, 41267, Note_on_c, 0, 57, 0
2, 41520, Note_on_c, 0, 52, 80
2, 41520, Note_on_c, 0, 57, 80
2, 41747, Note_on_c, 0, 52, 0
2, 41747, Note_on_c, 0, 57, 0
2, 42000, Note_on_c, 0, 52, 80
2, 42000, Note_on_c, 0, 57, 80
2, 42227, Note_on_c, 0, 52, 0
2, 42227, Note_on_c, 0, 57, 0
2, 42480, Note_on_c, 0, 53, 80
2, 42480, Note_on_c, 0, 60, 80
2, 42707, Note_on_c, 0, 53, 0
2, 42707, Note_on_c, 0, 60, 0
2, 42960, Note_on_c, 0, 53, 80
2, 42960, Note_on_c, 0, 60, 80
2, 43187, Note_on_c, 0, 53, 0
2, 43187, Note_on_c, 0, 60, 0
2, 43440, Note_on_c, 0, 53, 80
2, 43440, Note_on_c, 0, 60, 80
2, 43667, Note_on_c, 0, 53, 0
2, 43667, Note_on_c, 0, 60, 0
2, 43920, Note_on_c, 0, 53, 80
2, 43920, Note_on_c, 0, 60, 80
2, 44147, Note_on_c, 0, 53, 0
2, 44147, Note_on_c, 0, 60, 0
2, 44400, Note_on_c, 0, 50, 80
2, 44400, Note_on_c, 0, 55, 80
2, 44627, Note_on_c, 0, 50, 0
2, 44627, Note_on_c, 0, 55, 0
2, 44880, Note_on_c, 0, 50, 80
2, 44880, Note_on_c, 0, 55, 80
2, 45107, Note_on_c, 0, 50, 0
2, 45107, Note_on_c, 0, 55, 0
2, 45360, Note_on_c, 0, 50, 80
2, 45360, Note_on_c, 0, 55, 80
2, 45587, Note_on_c, 0, 50, 0
2, 45587, Note_on_c, 0, 55, 0
2, 45840, Note_on_c, 0, 50, 80
2, 45840, Note_on_c, 0, 55, 80
2, 46067, Note_on_c, 0, 50, 0
2, 46067, Note_on_c, 0, 55, 0
2, 46080, Note_on_c, 0, 57, 80
2, 46421, Note_on_c, 0, 57, 0
2, 46440, Note_on_c, 0, 64, 80
2, 46667, Note_on_c, 0, 64, 0
2, 46680, Note_on_c, 0, 57, 80
2, 46793, Note_on_c, 0, 57, 0
2, 46800, Note_on_c, 0, 55, 80
2, 46913, Note_on_c, 0, 55, 0
2, 46920, Note_on_c, 0, 57, 80
2, 47033, Note_on_c, 0, 57, 0
2, 47400, Note_on_c, 0, 64, 80
2, 47627, Note_on_c, 0, 64, 0
2, 47640, Note_on_c, 0, 57, 80
2, 47753, Note_on_c, 0, 57, 0
2, 47760, Note_on_c, 0, 55, 80
2, 47873, Note_on_c, 0, 55, 0
2, 47880, Note_on_c, 0, 57, 80
2, 47993, Note_on_c, 0, 57, 0
2, 48000, Note_on_c, 0, 57, 80
2, 48341, Note_on_c, 0, 57, 0
2, 48360, Note_on_c, 0, 64, 80
2, 48473, Note_on_c, 0, 64, 0
2, 48600, Note_on_c, 0, 57, 80
2, 48713, Note_on_c, 0, 57, 0
2, 48720, Note_on_c, 0, 55, 80
2, 48833, Note_on_c, 0, 55, 0
2, 48840, Note_on_c, 0, 57, 80
2, 48953, Note_on_c, 0, 57, 0
2, 49320, Note_on_c, 0, 64, 80
2, 49547, Note_on_c, 0, 64, 0
2, 49560, Note_on_c, 0, 55, 80
2, 49739, Note_on_c, 0, 55, 0
2, 49920, Note_on_c, 0, 53, 80
2, 50261, Note_on_c, 0, 53, 0
2, 50280, Note_on_c, 0, 60, 80
2, 50507, Note_on_c, 0, 60, 0
2, 50520, Note_on_c, 0, 53, 80
2, 50699, Note_on_c, 0, 53, 0
2, 50880, Note_on_c, 0, 53, 80
2, 51221, Note_on_c, 0, 53, 0
2, 51240, Note_on_c, 0, 60, 80
2, 51467, Note_on_c, 0, 60, 0
2, 51480, Note_on_c, 0, 53, 80
2, 51659, Note_on_c, 0, 53, 0
2, 51840, Note_on_c, 0, 55, 80
2, 52181, Note_on_c, 0, 55, 0
2, 52200, Note_on_c, 0, 62, 80
2, 52541, Note_on_c, 0, 62, 0
2, 52800, Note_on_c, 0, 55, 80
2, 53141, Note_on_c, 0, 55, 0
2, 53160, Note_on_c, 0, 62, 80
2, 53501, Note_on_c, 0, 62, 0
2, 53520, Note_on_c, 0, 55, 80
2, 53747, Note_on_c, 0, 55, 0
2, 53760, Note_on_c, 0, 57, 80
2, 54101, Note_on_c, 0, 57, 0
2, 54120, Note_on_c, 0, 64, 80
2, 54347, Note_on_c, 0, 64, 0
2, 54360, Note_on_c, 0, 57, 80
2, 54473, Note_on_c, 0, 57, 0
2, 54480, Note_on_c, 0, 55, 80
2, 54593, Note_on_c, 0, 55, 0
2, 54600, Note_on_c, 0, 57, 80
2, 54713, Note_on_c, 0, 57, 0
2, 55080, Note_on_c, 0, 64, 80
2, 55307, Note_on_c, 0, 64, 0
2, 55320, Note_on_c, 0, 57, 80
2, 55433, Note_on_c, 0, 57, 0
2, 55440, Note_on_c, 0, 55, 80
2, 55553, Note_on_c, 0, 55, 0
2, 55560, Note_on_c, 0, 57, 80
2, 55673, Note_on_c, 0, 57, 0
2, 55680, Note_on_c, 0, 57, 80
2, 56021, Note_on_c, 0, 57, 0
2, 56040, Note_on_c, 0, 64, 80
2, 56153, Note_on_c, 0, 64, 0
2, 56280, Note_on_c, 0, 57, 80
2, 56393, Note_on_c, 0, 57, 0
2, 56400, Note_on_c, 0, 55, 80
2, 56513, Note_on_c, 0, 55, 0
2, 56520, Note_on_c, 0, 57, 80
2, 56633, Note_on_c, 0, 57, 0
2, 57000, Note_on_c, 0, 64, 80
2, 57227, Note_on_c, 0, 64, 0
2, 57240, Note_on_c, 0, 55, 80
2, 57419, Note_on_c, 0, 55, 0
2, 57600, Note_on_c, 0, 53, 80
2, 57941, Note_on_c, 0, 53, 0
2, 57960, Note_on_c, 0, 60, 80
2, 58187, Note_on_c, 0, 60, 0
2, 58200, Note_on_c, 0, 53, 80
2, 58379, Note_on_c, 0, 53, 0
2, 58560, Note_on_c, 0, 53, 80
2, 58901, Note_on_c, 0, 53, 0
2, 58920, Note_on_c, 0, 60, 80
2, 59147, Note_on_c, 0, 60, 0
2, 59160, Note_on_c, 0, 53, 80
2, 59273, Note_on_c, 0, 53, 0
2, 59280, Note_on_c, 0, 48, 80
2, 59280, Note_on_c, 0, 53, 80
2, 59507, Note_on_c, 0, 48, 0
2, 59507, Note_on_c, 0, 53, 0
2, 59760, Note_on_c, 0, 50, 80
2, 59760, Note_on_c, 0, 55, 80
2, 59987, Note_on_c, 0, 50, 0
2, 59987, Note_on_c, 0, 55, 0
2, 60240, Note_on_c, 0, 50, 80
2, 60240, Note_on_c, 0, 55, 80
2, 60467, Note_on_c, 0, 50, 0
2, 60467, Note_on_c, 0, 55, 0
2, 60480, Note_on_c, 0, 55, 80
2, 60935, Note_on_c, 0, 55, 0
2, 60960, Note_on_c, 0, 55, 80
2, 61187, Note_on_c, 0, 55, 0
2, 61200, Note_on_c, 0, 55, 80
2, 61427, Note_on_c, 0, 55, 0
2, 61680, Note_on_c, 0, 48, 80
2, 61793, Note_on_c, 0, 48, 0
2, 61800, Note_on_c, 0, 53, 80
2, 62027, Note_on_c, 0, 53, 0
2, 62040, Note_on_c, 0, 48, 80
2, 62153, Note_on_c, 0, 48, 0
2, 62160, Note_on_c, 0, 53, 80
2, 62387, Note_on_c, 0, 53, 0
2, 62640, Note_on_c, 0, 48, 80
2, 62753, Note_on_c, 0, 48, 0
2, 62760, Note_on_c, 0, 53, 80
2, 62987, Note_on_c, 0, 53, 0
2, 63120, Note_on_c, 0, 53, 80
2, 63239, Note_on_c, 0, 53, 0
2, 63600, Note_on_c, 0, 50, 80
2, 63713, Note_on_c, 0, 50, 0
2, 63720, Note_on_c, 0, 55, 80
2, 63947, Note_on_c, 0, 55, 0
2, 63960, Note_on_c, 0, 50, 80
2, 64073, Note_on_c, 0, 50, 0
2, 64080, Note_on_c, 0, 55, 80
2, 64307, Note_on_c, 0, 55, 0
2, 64560, Note_on_c, 0, 50, 80
2, 64673, Note_on_c, 0, 50, 0
2, 64680, Note_on_c, 0, 55, 80
2, 64907, Note_on_c, 0, 55, 0
2, 64920, Note_on_c, 0, 50, 80
2, 65033, Note_on_c, 0, 50, 0
2, 65040, Note_on_c, 0, 55, 80
2, 65159, Note_on_c, 0, 55, 0
2, 65520, Note_on_c, 0, 52, 80
2, 65633, Note_on_c, 0, 52, 0
2, 65640, Note_on_c, 0, 57, 80
2, 65867, Note_on_c, 0, 57, 0
2, 65880, Note_on_c, 0, 52, 80
2, 65993, Note_on_c, 0, 52, 0
2, 66000, Note_on_c, 0, 57, 80
2, 66227, Note_on_c, 0, 57, 0
2, 66480, Note_on_c, 0, 52, 80
2, 66593, Note_on_c, 0, 52, 0
2, 66600, Note_on_c, 0, 57, 80
2, 66827, Note_on_c, 0, 57, 0
2, 66960, Note_on_c, 0, 57, 80
2, 67079, Note_on_c, 0, 57, 0
2, 67440, Note_on_c, 0, 52, 80
2, 67553, Note_on_c, 0, 52, 0
2, 67560, Note_on_c, 0, 57, 80
2, 67787, Note_on_c, 0, 57, 0
2, 67800, Note_on_c, 0, 52, 80
2, 67913, Note_on_c, 0, 52, 0
2, 67920, Note_on_c, 0, 57, 80
2, 68147, Note_on_c, 0, 57, 0
2, 68400, Note_on_c, 0, 52, 80
2, 68513, Note_on_c, 0, 52, 0
2, 68520, Note_on_c, 0, 57, 80
2, 68633, Note_on_c, 0, 57, 0
2, 68880, Note_on_c, 0, 48, 80
2, 68993, Note_on_c, 0, 48, 0
2, 69000, Note_on_c, 0, 50, 80
2, 69113, Note_on_c, 0, 50, 0
2, 69360, Note_on_c, 0, 48, 80
2, 69473, Note_on_c, 0, 48, 0
2, 69480, Note_on_c, 0, 53, 80
2, 69707, Note_on_c, 0, 53, 0
2, 69720, Note_on_c, 0, 48, 80
2, 69833, Note_on_c, 0, 48, 0
2, 69840, Note_on_c, 0, 53, 80
2, 70067, Note_on_c, 0, 53, 0
2, 70320, Note_on_c, 0, 48, 80
2, 70433, Note_on_c, 0, 48, 0
2, 70440, Note_on_c, 0, 53, 80
2, 70667, Note_on_c, 0, 53, 0
2, 70800, Note_on_c, 0, 53, 80
2, 70919, Note_on_c, 0, 53, 0
2, 71280, Note_on_c, 0, 50, 80
2, 71393, Note_on_c, 0, 50, 0
2, 71400, Note_on_c, 0, 55, 80
2, 71627, Note_on_c, 0, 55, 0
2, 71640, Note_on_c, 0, 50, 80
2, 71753, Note_on_c, 0, 50, 0
2, 71760, Note_on_c, 0, 55, 80
2, 71987, Note_on_c, 0, 55, 0
2, 72240, Note_on_c, 0, 50, 80
2, 72353, Note_on_c, 0, 50, 0
2, 72360, Note_on_c, 0, 55, 80
2, 72587, Note_on_c, 0, 55, 0
2, 72600, Note_on_c, 0, 50, 80
2, 72713, Note_on_c, 0, 50, 0
2, 72720, Note_on_c, 0, 55, 80
2, 72839, Note_on_c, 0, 55, 0
2, 73200, Note_on_c, 0, 52, 80
2, 73313, Note_on_c, 0, 52, 0
2, 73320, Note_on_c, 0, 57, 80
2, 73547, Note_on_c, 0, 57, 0
2, 73560, Note_on_c, 0, 52, 80
2, 73673, Note_on_c, 0, 52, 0
2, 73680, Note_on_c, 0, 57, 80
2, 73907, Note_on_c, 0, 57, 0
2, 74160, Note_on_c, 0, 52, 80
2, 74273, Note_on_c, 0, 52, 0
2, 74280, Note_on_c, 0, 57, 80
2, 74507, Note_on_c, 0, 57, 0
2, 74640, Note_on_c, 0, 57, 80
2, 74759, Note_on_c, 0, 57, 0
2, 75120, Note_on_c, 0, 52, 80
2, 75233, Note_on_c, 0, 52, 0
2, 75240, Note_on_c, 0, 57, 80
2, 75467, Note_on_c, 0, 57, 0
2, 75480, Note_on_c, 0, 52, 80
2, 75593, Note_on_c, 0, 52, 0
2, 75600, Note_on_c, 0, 57, 80
2, 75827, Note_on_c, 0, 57, 0
2, 76080, Note_on_c, 0, 52, 80
2, 76193, Note_on_c, 0, 52, 0
2, 76200, Note_on_c, 0, 57, 80
2, 76313, Note_on_c, 0, 57, 0
2, 76320, Note_on_c, 0, 52, 80
2, 76547, Note_on_c, 0, 52, 0
2, 76560, Note_on_c, 0, 60, 80
2, 76673, Note_on_c, 0, 60, 0
2, 76680, Note_on_c, 0, 52, 80
2, 76793, Note_on_c, 0, 52, 0
2, 76800, Note_on_c, 0, 53, 80
2, 77027, Note_on_c, 0, 53, 0
2, 77040, Note_on_c, 0, 60, 80
2, 77153, Note_on_c, 0, 60, 0
2, 77160, Note_on_c, 0, 65, 80
2, 77273, Note_on_c, 0, 65, 0
2, 77280, Note_on_c, 0, 53, 80
2, 77507, Note_on_c, 0, 53, 0
2, 77520, Note_on_c, 0, 60, 80
2, 77633, Note_on_c, 0, 60, 0
2, 77640, Note_on_c, 0, 65, 80
2, 77753, Note_on_c, 0, 65, 0
2, 77760, Note_on_c, 0, 53, 80
2, 77987, Note_on_c, 0, 53, 0
2, 78000, Note_on_c, 0, 60, 80
2, 78113, Note_on_c, 0, 60, 0
2, 78120, Note_on_c, 0, 65, 80
2, 78233, Note_on_c, 0, 65, 0
2, 78240, Note_on_c, 0, 53, 80
2, 78467, Note_on_c, 0, 53, 0
2, 78480, Note_on_c, 0, 65, 80
2, 78593, Note_on_c, 0, 65, 0
2, 78600, Note_on_c, 0, 53, 80
2, 78713, Note_on_c, 0, 53, 0
2, 78720, Note_on_c, 0, 55, 80
2, 78947, Note_on_c, 0, 55, 0
2, 78960, Note_on_c, 0, 62, 80
2, 79073, Note_on_c, 0, 62, 0
2, 79080, Note_on_c, 0, 67, 80
2, 79193, Note_on_c, 0, 67, 0
2, 79200, Note_on_c, 0, 55, 80
2, 79427, Note_on_c, 0, 55, 0
2, 79440, Note_on_c, 0, 62, 80
2, 79553, Note_on_c, 0, 62, 0
2, 79560, Note_on_c, 0, 67, 80
2, 79673, Note_on_c, 0, 67, 0
2, 79680, Note_on_c, 0, 55, 80
2, 79907, Note_on_c, 0, 55, 0
2, 79920, Note_on_c, 0, 62, 80
2, 80033, Note_on_c, 0, 62, 0
2, 80040, Note_on_c, 0, 67, 80
2, 80153, Note_on_c, 0, 67, 0
2, 80160, Note_on_c, 0, 55, 80
2, 80387, Note_on_c, 0, 55, 0
2, 80400, Note_on_c, 0, 62, 80
2, 80513, Note_on_c, 0, 62, 0
2, 80520, Note_on_c, 0, 55, 80
2, 80633, Note_on_c, 0, 55, 0
2, 80640, Note_on_c, 0, 52, 80
2, 80867, Note_on_c, 0, 52, 0
2, 80880, Note_on_c, 0, 57, 80
2, 80993, Note_on_c, 0, 57, 0
2, 81000, Note_on_c, 0, 64, 80
2, 81113, Note_on_c, 0, 64, 0
2, 81120, Note_on_c, 0, 52, 80
2, 81347, Note_on_c, 0, 52, 0
2, 81360, Note_on_c, 0, 57, 80
2, 81473, Note_on_c, 0, 57, 0
2, 81480, Note_on_c, 0, 64, 80
2, 81593, Note_on_c, 0, 64, 0
2, 81600, Note_on_c, 0, 52, 80
2, 81827, Note_on_c, 0, 52, 0
2, 81840, Note_on_c, 0, 57, 80
2, 81953, Note_on_c, 0, 57, 0
2, 81960, Note_on_c, 0, 64, 80
2, 82073, Note_on_c, 0, 64, 0
2, 82080, Note_on_c, 0, 52, 80
2, 82307, Note_on_c, 0, 52, 0
2, 82320, Note_on_c, 0, 57, 80
2, 82433, Note_on_c, 0, 57, 0
2, 82440, Note_on_c, 0, 52, 80
2, 82553, Note_on_c, 0, 52, 0
2, 82560, Note_on_c, 0, 52, 80
2, 82787, Note_on_c, 0, 52, 0
2, 82800, Note_on_c, 0, 57, 80
2, 82913, Note_on_c, 0, 57, 0
2, 82920, Note_on_c, 0, 64, 80
2, 83033, Note_on_c, 0, 64, 0
2, 83040, Note_on_c, 0, 52, 80
2, 83267, Note_on_c, 0, 52, 0
2, 83280, Note_on_c, 0, 57, 80
2, 83393, Note_on_c, 0, 57, 0
2, 83400, Note_on_c, 0, 64, 80
2, 83513, Note_on_c, 0, 64, 0
2, 83520, Note_on_c, 0, 52, 80
2, 83747, Note_on_c, 0, 52, 0
2, 83760, Note_on_c, 0, 57, 80
2, 83873, Note_on_c, 0, 57, 0
2, 83880, Note_on_c, 0, 64, 80
2, 83993, Note_on_c, 0, 64, 0
2, 84000, Note_on_c, 0, 52, 80
2, 84227, Note_on_c, 0, 52, 0
2, 84240, Note_on_c, 0, 57, 80
2, 84353, Note_on_c, 0, 57, 0
2, 84360, Note_on_c, 0, 52, 80
2, 84473, Note_on_c, 0, 52, 0
2, 84480, Note_on_c, 0, 53, 80
2, 84707, Note_on_c, 0, 53, 0
2, 84720, Note_on_c, 0, 60, 80
2, 84833, Note_on_c, 0, 60, 0
2, 84840, Note_on_c, 0, 65, 80
2, 84953, Note_on_c, 0, 65, 0
2, 84960, Note_on_c, 0, 53, 80
2, 85187, Note_on_c, 0, 53, 0
2, 85200, Note_on_c, 0, 60, 80
2, 85313, Note_on_c, 0, 60, 0
2, 85320, Note_on_c, 0, 65, 80
2, 85433, Note_on_c, 0, 65, 0
2, 85440, Note_on_c, 0, 53, 80
2, 85667, Note_on_c, 0, 53, 0
2, 85680, Note_on_c, 0, 60, 80
2, 85793, Note_on_c, 0, 60, 0
2, 85800, Note_on_c, 0, 65, 80
2, 85913, Note_on_c, 0, 65, 0
2, 85920, Note_on_c, 0, 53, 80
2, 86147, Note_on_c, 0, 53, 0
2, 86160, Note_on_c, 0, 65, 80
2, 86273, Note_on_c, 0, 65, 0
2, 86280, Note_on_c, 0, 53, 80
2, 86393, Note_on_c, 0, 53, 0
2, 86400, Note_on_c, 0, 55, 80
2, 86627, Note_on_c, 0, 55, 0
2, 86640, Note_on_c, 0, 62, 80
2, 86753, Note_on_c, 0, 62, 0
2, 86760, Note_on_c, 0, 67, 80
2, 86873, Note_on_c, 0, 67, 0
2, 86880, Note_on_c, 0, 55, 80
2, 87107, Note_on_c, 0, 55, 0
2, 87120, Note_on_c, 0, 62, 80
2, 87233, Note_on_c, 0, 62, 0
2, 87240, Note_on_c, 0, 67, 80
2, 87353, Note_on_c, 0, 67, 0
2, 87360, Note_on_c, 0, 55, 80
2, 87587, Note_on_c, 0, 55, 0
2, 87600, Note_on_c, 0, 62, 80
2, 87713, Note_on_c, 0, 62, 0
2, 87720, Note_on_c, 0, 67, 80
2, 87833, Note_on_c, 0, 67, 0
2, 87840, Note_on_c, 0, 55, 80
2, 88067, Note_on_c, 0, 55, 0
2, 88080, Note_on_c, 0, 62, 80
2, 88193, Note_on_c, 0, 62, 0
2, 88200, Note_on_c, 0, 55, 80
2, 88313, Note_on_c, 0, 55, 0
2, 88320, Note_on_c, 0, 52, 80
2, 88547, Note_on_c, 0, 52, 0
2, 88560, Note_on_c, 0, 57, 80
2, 88673, Note_on_c, 0, 57, 0
2, 88680, Note_on_c, 0, 64, 80
2, 88793, Note_on_c, 0, 64, 0
2, 88800, Note_on_c, 0, 52, 80
2, 89027, Note_on_c, 0, 52, 0
2, 89040, Note_on_c, 0, 57, 80
2, 89153, Note_on_c, 0, 57, 0
2, 89160, Note_on_c, 0, 64, 80
2, 89273, Note_on_c, 0, 64, 0
2, 89280, Note_on_c, 0, 52, 80
2, 89507, Note_on_c, 0, 52, 0
2, 89520, Note_on_c, 0, 57, 80
2, 89633, Note_on_c, 0, 57, 0
2, 89640, Note_on_c, 0, 64, 80
2, 89753, Note_on_c, 0, 64, 0
2, 89760, Note_on_c, 0, 52, 80
2, 89987, Note_on_c, 0, 52, 0
2, 90000, Note_on_c, 0, 57, 80
2, 90113, Note_on_c, 0, 57, 0
2, 90120, Note_on_c, 0, 52, 80
2, 90233, Note_on_c, 0, 52, 0
2, 90240, Note_on_c, 0, 57, 80
2, 90467, Note_on_c, 0, 57, 0
2, 90480, Note_on_c, 0, 52, 80
2, 90593, Note_on_c, 0, 52, 0
2, 90600, Note_on_c, 0, 57, 80
2, 90713, Note_on_c, 0, 57, 0
2, 90960, Note_on_c, 0, 52, 80
2, 91073, Note_on_c, 0, 52, 0
2, 91080, Note_on_c, 0, 57, 80
2, 91193, Note_on_c, 0, 57, 0
2, 91200, Note_on_c, 0, 57, 80
2, 91351, Note_on_c, 0, 57, 0
2, 91360, Note_on_c, 0, 52, 80
2, 91439, Note_on_c, 0, 52, 0
2, 91520, Note_on_c, 0, 57, 80
2, 91599, Note_on_c, 0, 57, 0
2, 91680, Note_on_c, 0, 55, 80
2, 91831, Note_on_c, 0, 55, 0
2, 91840, Note_on_c, 0, 62, 80
2, 91919, Note_on_c, 0, 62, 0
2, 92000, Note_on_c, 0, 64, 80
2, 92079, Note_on_c, 0, 64, 0
2, 92160, Note_on_c, 0, 48, 80
2, 92160, Note_on_c, 0, 53, 80
2, 93071, Note_on_c, 0, 48, 0
2, 93071, Note_on_c, 0, 53, 0
2, 93120, Note_on_c, 0, 57, 80
2, 93120, Note_on_c, 0, 60, 80
2, 94031, Note_on_c, 0, 57, 0
2, 94031, Note_on_c, 0, 60, 0
2, 94080, Note_on_c, 0, 50, 80
2, 94080, Note_on_c, 0, 55, 80
2, 94991, Note_on_c, 0, 50, 0
2, 94991, Note_on_c, 0, 55, 0
2, 95040, Note_on_c, 0, 57, 80
2, 95040, Note_on_c, 0, 62, 80
2, 95951, Note_on_c, 0, 57, 0
2, 95951, Note_on_c, 0, 62, 0
2, 96000, Note_on_c, 0, 52, 80
2, 96000, Note_on_c, 0, 57, 80
2, 96911, Note_on_c, 0, 52, 0
2, 96911, Note_on_c, 0, 57, 0
2, 96960, Note_on_c, 0, 60, 80
2, 96960, Note_on_c, 0, 64, 80
2, 97680, Note_on_c, 0, 60, 0
2, 97871, Note_on_c, 0, 64, 0
2, 97920, Note_on_c, 0, 52, 80
2, 97920, Note_on_c, 0, 57, 80
2, 98831, Note_on_c, 0, 52, 0
2, 98831, Note_on_c, 0, 57, 0
2, 98880, Note_on_c, 0, 60, 80
2, 98880, Note_on_c, 0, 64, 80
2, 99791, Note_on_c, 0, 60, 0
2, 99791, Note_on_c, 0, 64, 0
2, 99840, Note_on_c, 0, 48, 80
2, 99840, Note_on_c, 0, 53, 80
2, 100751, Note_on_c, 0, 48, 0
2, 100751, Note_on_c, 0, 53, 0
2, 100800, Note_on_c, 0, 57, 80
2, 100800, Note_on_c, 0, 60, 80
2, 101711, Note_on_c, 0, 57, 0
2, 101711, Note_on_c, 0, 60, 0
2, 101760, Note_on_c, 0, 50, 80
2, 101760, Note_on_c, 0, 55, 80
2, 102671, Note_on_c, 0, 50, 0
2, 102671, Note_on_c, 0, 55, 0
2, 102720, Note_on_c, 0, 57, 80
2, 102720, Note_on_c, 0, 62, 80
2, 102959, Note_on_c, 0, 57, 0
2, 102959, Note_on_c, 0, 62, 0
2, 103200, Note_on_c, 0, 62, 80
2, 103427, Note_on_c, 0, 62, 0
2, 103440, Note_on_c, 0, 64, 80
2, 103667, Note_on_c, 0, 64, 0
2, 103680, Note_on_c, 0, 62, 80
2, 103680, Note_on_c, 0, 52, 80
2, 103680, Note_on_c, 0, 57, 80
2, 104135, Note_on_c, 0, 62, 0
2, 104591, Note_on_c, 0, 52, 0
2, 104591, Note_on_c, 0, 57, 0
2, 104640, Note_on_c, 0, 60, 80
2, 104640, Note_on_c, 0, 64, 80
2, 105360, Note_on_c, 0, 60, 0
2, 105551, Note_on_c, 0, 64, 0
2, 105600, Note_on_c, 0, 52, 80
2, 105600, Note_on_c, 0, 57, 80
2, 106511, Note_on_c, 0, 52, 0
2, 106511, Note_on_c, 0, 57, 0
2, 106560, Note_on_c, 0, 60, 80
2, 106560, Note_on_c, 0, 64, 80
2, 107243, Note_on_c, 0, 60, 0
2, 107243, Note_on_c, 0, 64, 0
2, 107280, Note_on_c, 0, 60, 80
2, 107507, Note_on_c, 0, 60, 0
2, 107520, Note_on_c, 0, 48, 80
2, 107520, Note_on_c, 0, 53, 80
2, 107975, Note_on_c, 0, 48, 0
2, 107975, Note_on_c, 0, 53, 0
2, 108000, Note_on_c, 0, 64, 80
2, 108455, Note_on_c, 0, 64, 0
2, 108480, Note_on_c, 0, 57, 80
2, 108480, Note_on_c, 0, 60, 80
2, 108707, Note_on_c, 0, 57, 0
2, 108707, Note_on_c, 0, 60, 0
2, 108720, Note_on_c, 0, 64, 80
2, 108947, Note_on_c, 0, 64, 0
2, 109200, Note_on_c, 0, 57, 80
2, 109427, Note_on_c, 0, 57, 0
2, 109440, Note_on_c, 0, 50, 80
2, 109440, Note_on_c, 0, 55, 80
2, 109895, Note_on_c, 0, 50, 0
2, 109895, Note_on_c, 0, 55, 0
2, 109920, Note_on_c, 0, 64, 80
2, 110375, Note_on_c, 0, 64, 0
2, 110400, Note_on_c, 0, 57, 80
2, 110400, Note_on_c, 0, 62, 80
2, 110627, Note_on_c, 0, 57, 0
2, 110627, Note_on_c, 0, 62, 0
2, 110640, Note_on_c, 0, 64, 80
2, 111095, Note_on_c, 0, 64, 0
2, 111120, Note_on_c, 0, 57, 80
2, 111347, Note_on_c, 0, 57, 0
2, 111360, Note_on_c, 0, 52, 80
2, 111360, Note_on_c, 0, 57, 80
2, 111815, Note_on_c, 0, 52, 0
2, 111815, Note_on_c, 0, 57, 0
2, 111840, Note_on_c, 0, 64, 80
2, 112295, Note_on_c, 0, 64, 0
2, 112320, Note_on_c, 0, 57, 80
2, 112320, Note_on_c, 0, 60, 80
2, 112547, Note_on_c, 0, 57, 0
2, 112547, Note_on_c, 0, 60, 0
2, 112560, Note_on_c, 0, 64, 80
2, 113015, Note_on_c, 0, 64, 0
2, 113040, Note_on_c, 0, 57, 80
2, 113267, Note_on_c, 0, 57, 0
2, 113280, Note_on_c, 0, 57, 80
2, 113735, Note_on_c, 0, 57, 0
2, 113760, Note_on_c, 0, 64, 80
2, 114215, Note_on_c, 0, 64, 0
2, 114240, Note_on_c, 0, 60, 80
2, 114240, Note_on_c, 0, 64, 80
2, 114391, Note_on_c, 0, 60, 0
2, 114391, Note_on_c, 0, 64, 0
2, 114400, Note_on_c, 0, 57, 80
2, 114551, Note_on_c, 0, 57, 0
2, 114560, Note_on_c, 0, 64, 80
2, 114711, Note_on_c, 0, 64, 0
2, 114720, Note_on_c, 0, 62, 80
2, 114871, Note_on_c, 0, 62, 0
2, 114880, Note_on_c, 0, 50, 80
2, 115031, Note_on_c, 0, 50, 0
2, 115040, Note_on_c, 0, 57, 80
2, 115191, Note_on_c, 0, 57, 0
2, 115200, Note_on_c, 0, 48, 80
2, 115200, Note_on_c, 0, 53, 80
2, 115655, Note_on_c, 0, 48, 0
2, 115655, Note_on_c, 0, 53, 0
2, 115680, Note_on_c, 0, 64, 80
2, 116135, Note_on_c, 0, 64, 0
2, 116160, Note_on_c, 0, 57, 80
2, 116160, Note_on_c, 0, 60, 80
2, 116387, Note_on_c, 0, 57, 0
2, 116387, Note_on_c, 0, 60, 0
2, 116400, Note_on_c, 0, 64, 80
2, 116627, Note_on_c, 0, 64, 0
2, 116880, Note_on_c, 0, 57, 80
2, 117107, Note_on_c, 0, 57, 0
2, 117120, Note_on_c, 0, 50, 80
2, 117120, Note_on_c, 0, 55, 80
2, 117575, Note_on_c, 0, 50, 0
2, 117575, Note_on_c, 0, 55, 0
2, 117600, Note_on_c, 0, 64, 80
2, 118055, Note_on_c, 0, 64, 0
2, 118080, Note_on_c, 0, 57, 80
2, 118080, Note_on_c, 0, 62, 80
2, 118307, Note_on_c, 0, 57, 0
2, 118307, Note_on_c, 0, 62, 0
2, 118320, Note_on_c, 0, 64, 80
2, 118775, Note_on_c, 0, 64, 0
2, 118800, Note_on_c, 0, 57, 80
2, 119027, Note_on_c, 0, 57, 0
2, 119040, Note_on_c, 0, 52, 80
2, 119040, Note_on_c, 0, 57, 80
2, 119495, Note_on_c, 0, 52, 0
2, 119495, Note_on_c, 0, 57, 0
2, 119520, Note_on_c, 0, 64, 80
2, 119975, Note_on_c, 0, 64, 0
2, 120000, Note_on_c, 0, 57, 80
2, 120000, Note_on_c, 0, 60, 80
2, 120227, Note_on_c, 0, 57, 0
2, 120227, Note_on_c, 0, 60, 0
2, 120240, Note_on_c, 0, 64, 80
2, 120695, Note_on_c, 0, 64, 0
2, 120720, Note_on_c, 0, 57, 80
2, 120947, Note_on_c, 0, 57, 0
2, 120948, End_track
3, 0, Start_track
3, 0, Title_t, "Electric Bass, Bass\000"
3, 0, Key_signature, 0, "major"
3, 0, Control_c, 2, 121, 0
3, 0, Program_c, 2, 33
3, 0, Control_c, 2, 7, 100
3, 0, Control_c, 2, 10, 64
3, 0, Control_c, 2, 91, 0
3, 0, Control_c, 2, 93, 0
3, 0, MIDI_port, 0
3, 0, Note_on_c, 2, 57, 80
3, 0, Control_c, 1, 121, 0
3, 0, Program_c, 1, 36
3, 0, Control_c, 1, 7, 100
3, 0, Control_c, 1, 10, 64
3, 0, Control_c, 1, 91, 0
3, 0, Control_c, 1, 93, 0
3, 0, MIDI_port, 0
3, 0, Control_c, 3, 121, 0
3, 0, Program_c, 3, 37
3, 0, Control_c, 3, 7, 100
3, 0, Control_c, 3, 10, 64
3, 0, Control_c, 3, 91, 0
3, 0, Control_c, 3, 93, 0
3, 0, MIDI_port, 0
3, 479, Note_on_c, 2, 57, 0
3, 480, Note_on_c, 2, 57, 80
3, 959, Note_on_c, 2, 57, 0
3, 960, Note_on_c, 2, 57, 80
3, 1439, Note_on_c, 2, 57, 0
3, 1440, Note_on_c, 2, 57, 80
3, 1919, Note_on_c, 2, 57, 0
3, 1920, Note_on_c, 2, 57, 80
3, 2399, Note_on_c, 2, 57, 0
3, 2400, Note_on_c, 2, 57, 80
3, 2879, Note_on_c, 2, 57, 0
3, 2880, Note_on_c, 2, 57, 80
3, 3359, Note_on_c, 2, 57, 0
3, 3360, Note_on_c, 2, 57, 80
3, 3839, Note_on_c, 2, 57, 0
3, 3840, Note_on_c, 2, 57, 80
3, 4319, Note_on_c, 2, 57, 0
3, 4320, Note_on_c, 2, 57, 80
3, 4799, Note_on_c, 2, 57, 0
3, 4800, Note_on_c, 2, 57, 80
3, 5279, Note_on_c, 2, 57, 0
3, 5280, Note_on_c, 2, 57, 80
3, 5759, Note_on_c, 2, 57, 0
3, 5760, Note_on_c, 2, 57, 80
3, 6239, Note_on_c, 2, 57, 0
3, 6240, Note_on_c, 2, 57, 80
3, 6719, Note_on_c, 2, 57, 0
3, 6720, Note_on_c, 2, 57, 80
3, 7199, Note_on_c, 2, 57, 0
3, 7200, Note_on_c, 2, 57, 80
3, 7679, Note_on_c, 2, 57, 0
3, 7680, Key_signature, 0, "major"
3, 7680, Note_on_c, 2, 57, 80
3, 8159, Note_on_c, 2, 57, 0
3, 8160, Note_on_c, 2, 57, 80
3, 8639, Note_on_c, 2, 57, 0
3, 8640, Note_on_c, 2, 57, 80
3, 9119, Note_on_c, 2, 57, 0
3, 9120, Note_on_c, 2, 57, 80
3, 9599, Note_on_c, 2, 57, 0
3, 9600, Note_on_c, 2, 57, 80
3, 10079, Note_on_c, 2, 57, 0
3, 10080, Note_on_c, 2, 57, 80
3, 10559, Note_on_c, 2, 57, 0
3, 10560, Note_on_c, 2, 57, 80
3, 11039, Note_on_c, 2, 57, 0
3, 11040, Note_on_c, 2, 57, 80
3, 11519, Note_on_c, 2, 57, 0
3, 11520, Note_on_c, 2, 57, 80
3, 11999, Note_on_c, 2, 57, 0
3, 12000, Note_on_c, 2, 57, 80
3, 12479, Note_on_c, 2, 57, 0
3, 12480, Note_on_c, 2, 57, 80
3, 12959, Note_on_c, 2, 57, 0
3, 12960, Note_on_c, 2, 57, 80
3, 13439, Note_on_c, 2, 57, 0
3, 13440, Note_on_c, 2, 57, 80
3, 13919, Note_on_c, 2, 57, 0
3, 13920, Note_on_c, 2, 57, 80
3, 14399, Note_on_c, 2, 57, 0
3, 14400, Note_on_c, 2, 57, 80
3, 15359, Note_on_c, 2, 57, 0
3, 15360, Note_on_c, 2, 57, 80
3, 15599, Note_on_c, 2, 57, 0
3, 15600, Note_on_c, 2, 57, 80
3, 16319, Note_on_c, 2, 57, 0
3, 16320, Note_on_c, 2, 57, 80
3, 16559, Note_on_c, 2, 57, 0
3, 16560, Note_on_c, 2, 57, 80
3, 17279, Note_on_c, 2, 57, 0
3, 17280, Note_on_c, 2, 57, 80
3, 17519, Note_on_c, 2, 57, 0
3, 17520, Note_on_c, 2, 57, 80
3, 18239, Note_on_c, 2, 57, 0
3, 18240, Note_on_c, 2, 57, 80
3, 18719, Note_on_c, 2, 57, 0
3, 18720, Note_on_c, 2, 60, 80
3, 19199, Note_on_c, 2, 60, 0
3, 19200, Note_on_c, 2, 57, 80
3, 19439, Note_on_c, 2, 57, 0
3, 19440, Note_on_c, 2, 57, 80
3, 20159, Note_on_c, 2, 57, 0
3, 20160, Note_on_c, 2, 57, 80
3, 20399, Note_on_c, 2, 57, 0
3, 20400, Note_on_c, 2, 57, 80
3, 21119, Note_on_c, 2, 57, 0
3, 21120, Note_on_c, 2, 57, 80
3, 21359, Note_on_c, 2, 57, 0
3, 21360, Note_on_c, 2, 57, 80
3, 22079, Note_on_c, 2, 57, 0
3, 22080, Note_on_c, 2, 62, 80
3, 22559, Note_on_c, 2, 62, 0
3, 22560, Note_on_c, 2, 60, 80
3, 23039, Note_on_c, 2, 60, 0
3, 23040, Note_on_c, 2, 57, 80
3, 23279, Note_on_c, 2, 57, 0
3, 23280, Note_on_c, 2, 57, 80
3, 23999, Note_on_c, 2, 57, 0
3, 24000, Note_on_c, 2, 57, 80
3, 24239, Note_on_c, 2, 57, 0
3, 24240, Note_on_c, 2, 57, 80
3, 24959, Note_on_c, 2, 57, 0
3, 24960, Note_on_c, 2, 57, 80
3, 25199, Note_on_c, 2, 57, 0
3, 25200, Note_on_c, 2, 57, 80
3, 25919, Note_on_c, 2, 57, 0
3, 25920, Note_on_c, 2, 57, 80
3, 26399, Note_on_c, 2, 57, 0
3, 26400, Note_on_c, 2, 60, 80
3, 26879, Note_on_c, 2, 60, 0
3, 26880, Note_on_c, 2, 57, 80
3, 27119, Note_on_c, 2, 57, 0
3, 27120, Note_on_c, 2, 57, 80
3, 27839, Note_on_c, 2, 57, 0
3, 27840, Note_on_c, 2, 57, 80
3, 28079, Note_on_c, 2, 57, 0
3, 28080, Note_on_c, 2, 57, 80
3, 28799, Note_on_c, 2, 57, 0
3, 28800, Note_on_c, 2, 57, 80
3, 29039, Note_on_c, 2, 57, 0
3, 29040, Note_on_c, 2, 57, 80
3, 29759, Note_on_c, 2, 57, 0
3, 29760, Note_on_c, 2, 62, 80
3, 30239, Note_on_c, 2, 62, 0
3, 30240, Note_on_c, 2, 60, 80
3, 30719, Note_on_c, 2, 60, 0
3, 30720, Note_on_c, 2, 57, 80
3, 31199, Note_on_c, 2, 57, 0
3, 31200, Note_on_c, 2, 57, 80
3, 31679, Note_on_c, 2, 57, 0
3, 31680, Note_on_c, 2, 57, 80
3, 32159, Note_on_c, 2, 57, 0
3, 32160, Note_on_c, 2, 57, 80
3, 32639, Note_on_c, 2, 57, 0
3, 32640, Note_on_c, 2, 57, 80
3, 33119, Note_on_c, 2, 57, 0
3, 33120, Note_on_c, 2, 57, 80
3, 33599, Note_on_c, 2, 57, 0
3, 33600, Note_on_c, 2, 57, 80
3, 34079, Note_on_c, 2, 57, 0
3, 34080, Note_on_c, 2, 57, 80
3, 34559, Note_on_c, 2, 57, 0
3, 34560, Note_on_c, 2, 53, 80
3, 35039, Note_on_c, 2, 53, 0
3, 35040, Note_on_c, 2, 53, 80
3, 35519, Note_on_c, 2, 53, 0
3, 35520, Note_on_c, 2, 53, 80
3, 35999, Note_on_c, 2, 53, 0
3, 36000, Note_on_c, 2, 53, 80
3, 36479, Note_on_c, 2, 53, 0
3, 36480, Note_on_c, 2, 55, 80
3, 36959, Note_on_c, 2, 55, 0
3, 36960, Note_on_c, 2, 55, 80
3, 37439, Note_on_c, 2, 55, 0
3, 37440, Note_on_c, 2, 55, 80
3, 37919, Note_on_c, 2, 55, 0
3, 37920, Note_on_c, 2, 55, 80
3, 38399, Note_on_c, 2, 55, 0
3, 38400, Note_on_c, 2, 57, 80
3, 38879, Note_on_c, 2, 57, 0
3, 38880, Note_on_c, 2, 57, 80
3, 39359, Note_on_c, 2, 57, 0
3, 39360, Note_on_c, 2, 57, 80
3, 39839, Note_on_c, 2, 57, 0
3, 39840, Note_on_c, 2, 57, 80
3, 40319, Note_on_c, 2, 57, 0
3, 40320, Note_on_c, 2, 57, 80
3, 40799, Note_on_c, 2, 57, 0
3, 40800, Note_on_c, 2, 57, 80
3, 41279, Note_on_c, 2, 57, 0
3, 41280, Note_on_c, 2, 57, 80
3, 41759, Note_on_c, 2, 57, 0
3, 41760, Note_on_c, 2, 57, 80
3, 42239, Note_on_c, 2, 57, 0
3, 42240, Note_on_c, 2, 53, 80
3, 42719, Note_on_c, 2, 53, 0
3, 42720, Note_on_c, 2, 53, 80
3, 43199, Note_on_c, 2, 53, 0
3, 43200, Note_on_c, 2, 53, 80
3, 43679, Note_on_c, 2, 53, 0
3, 43680, Note_on_c, 2, 53, 80
3, 44159, Note_on_c, 2, 53, 0
3, 44160, Note_on_c, 2, 55, 80
3, 44639, Note_on_c, 2, 55, 0
3, 44640, Note_on_c, 2, 55, 80
3, 45119, Note_on_c, 2, 55, 0
3, 45120, Note_on_c, 2, 55, 80
3, 45599, Note_on_c, 2, 55, 0
3, 45600, Note_on_c, 2, 55, 80
3, 46079, Note_on_c, 2, 55, 0
3, 46080, Note_on_c, 2, 57, 80
3, 46559, Note_on_c, 2, 57, 0
3, 46560, Note_on_c, 2, 57, 80
3, 47039, Note_on_c, 2, 57, 0
3, 47040, Note_on_c, 2, 57, 80
3, 47519, Note_on_c, 2, 57, 0
3, 47520, Note_on_c, 2, 57, 80
3, 47999, Note_on_c, 2, 57, 0
3, 48000, Note_on_c, 2, 57, 80
3, 48479, Note_on_c, 2, 57, 0
3, 48480, Note_on_c, 2, 57, 80
3, 48959, Note_on_c, 2, 57, 0
3, 48960, Note_on_c, 2, 57, 80
3, 49439, Note_on_c, 2, 57, 0
3, 49440, Note_on_c, 2, 57, 80
3, 49919, Note_on_c, 2, 57, 0
3, 49920, Note_on_c, 2, 53, 80
3, 50399, Note_on_c, 2, 53, 0
3, 50400, Note_on_c, 2, 53, 80
3, 50879, Note_on_c, 2, 53, 0
3, 50880, Note_on_c, 2, 53, 80
3, 51359, Note_on_c, 2, 53, 0
3, 51360, Note_on_c, 2, 53, 80
3, 51839, Note_on_c, 2, 53, 0
3, 51840, Note_on_c, 2, 55, 80
3, 52319, Note_on_c, 2, 55, 0
3, 52320, Note_on_c, 2, 55, 80
3, 52799, Note_on_c, 2, 55, 0
3, 52800, Note_on_c, 2, 55, 80
3, 53279, Note_on_c, 2, 55, 0
3, 53280, Note_on_c, 2, 55, 80
3, 53759, Note_on_c, 2, 55, 0
3, 53760, Note_on_c, 2, 57, 80
3, 54239, Note_on_c, 2, 57, 0
3, 54240, Note_on_c, 2, 57, 80
3, 54719, Note_on_c, 2, 57, 0
3, 54720, Note_on_c, 2, 57, 80
3, 55199, Note_on_c, 2, 57, 0
3, 55200, Note_on_c, 2, 57, 80
3, 55679, Note_on_c, 2, 57, 0
3, 55680, Note_on_c, 2, 57, 80
3, 56159, Note_on_c, 2, 57, 0
3, 56160, Note_on_c, 2, 57, 80
3, 56639, Note_on_c, 2, 57, 0
3, 56640, Note_on_c, 2, 57, 80
3, 57119, Note_on_c, 2, 57, 0
3, 57120, Note_on_c, 2, 57, 80
3, 57599, Note_on_c, 2, 57, 0
3, 57600, Note_on_c, 2, 53, 80
3, 58079, Note_on_c, 2, 53, 0
3, 58080, Note_on_c, 2, 53, 80
3, 58559, Note_on_c, 2, 53, 0
3, 58560, Note_on_c, 2, 53, 80
3, 59039, Note_on_c, 2, 53, 0
3, 59040, Note_on_c, 2, 53, 80
3, 59519, Note_on_c, 2, 53, 0
3, 59520, Note_on_c, 2, 55, 80
3, 59999, Note_on_c, 2, 55, 0
3, 60000, Note_on_c, 2, 55, 80
3, 60479, Note_on_c, 2, 55, 0
3, 60480, Note_on_c, 2, 55, 80
3, 60959, Note_on_c, 2, 55, 0
3, 60960, Note_on_c, 2, 55, 80
3, 61439, Note_on_c, 2, 55, 0
3, 61440, Note_on_c, 2, 53, 80
3, 61919, Note_on_c, 2, 53, 0
3, 61920, Note_on_c, 2, 53, 80
3, 62399, Note_on_c, 2, 53, 0
3, 62400, Note_on_c, 2, 53, 80
3, 62879, Note_on_c, 2, 53, 0
3, 62880, Note_on_c, 2, 53, 80
3, 63359, Note_on_c, 2, 53, 0
3, 63360, Note_on_c, 2, 55, 80
3, 63839, Note_on_c, 2, 55, 0
3, 63840, Note_on_c, 2, 55, 80
3, 64319, Note_on_c, 2, 55, 0
3, 64320, Note_on_c, 2, 55, 80
3, 64799, Note_on_c, 2, 55, 0
3, 64800, Note_on_c, 2, 55, 80
3, 65279, Note_on_c, 2, 55, 0
3, 65280, Note_on_c, 2, 57, 80
3, 65759, Note_on_c, 2, 57, 0
3, 65760, Note_on_c, 2, 57, 80
3, 66239, Note_on_c, 2, 57, 0
3, 66240, Note_on_c, 2, 57, 80
3, 66719, Note_on_c, 2, 57, 0
3, 66720, Note_on_c, 2, 57, 80
3, 67199, Note_on_c, 2, 57, 0
3, 67200, Note_on_c, 2, 57, 80
3, 67679, Note_on_c, 2, 57, 0
3, 67680, Note_on_c, 2, 57, 80
3, 68159, Note_on_c, 2, 57, 0
3, 68160, Note_on_c, 2, 57, 80
3, 68639, Note_on_c, 2, 57, 0
3, 68640, Note_on_c, 2, 57, 80
3, 69119, Note_on_c, 2, 57, 0
3, 69120, Note_on_c, 2, 53, 80
3, 69599, Note_on_c, 2, 53, 0
3, 69600, Note_on_c, 2, 53, 80
3, 70079, Note_on_c, 2, 53, 0
3, 70080, Note_on_c, 2, 53, 80
3, 70559, Note_on_c, 2, 53, 0
3, 70560, Note_on_c, 2, 53, 80
3, 71039, Note_on_c, 2, 53, 0
3, 71040, Note_on_c, 2, 55, 80
3, 71519, Note_on_c, 2, 55, 0
3, 71520, Note_on_c, 2, 55, 80
3, 71999, Note_on_c, 2, 55, 0
3, 72000, Note_on_c, 2, 55, 80
3, 72479, Note_on_c, 2, 55, 0
3, 72480, Note_on_c, 2, 55, 80
3, 72959, Note_on_c, 2, 55, 0
3, 72960, Note_on_c, 2, 57, 80
3, 73439, Note_on_c, 2, 57, 0
3, 73440, Note_on_c, 2, 57, 80
3, 73919, Note_on_c, 2, 57, 0
3, 73920, Note_on_c, 2, 57, 80
3, 74399, Note_on_c, 2, 57, 0
3, 74400, Note_on_c, 2, 57, 80
3, 74879, Note_on_c, 2, 57, 0
3, 74880, Note_on_c, 2, 57, 80
3, 75359, Note_on_c, 2, 57, 0
3, 75360, Note_on_c, 2, 57, 80
3, 75839, Note_on_c, 2, 57, 0
3, 75840, Note_on_c, 2, 57, 80
3, 76799, Note_on_c, 2, 57, 0
3, 76800, Note_on_c, 2, 53, 80
3, 78719, Note_on_c, 2, 53, 0
3, 78720, Note_on_c, 2, 55, 80
3, 80639, Note_on_c, 2, 55, 0
3, 80640, Note_on_c, 2, 57, 80
3, 82559, Note_on_c, 2, 57, 0
3, 82560, Note_on_c, 2, 57, 80
3, 84479, Note_on_c, 2, 57, 0
3, 84480, Note_on_c, 2, 53, 80
3, 86399, Note_on_c, 2, 53, 0
3, 86400, Note_on_c, 2, 55, 80
3, 88319, Note_on_c, 2, 55, 0
3, 88320, Note_on_c, 2, 57, 80
3, 90239, Note_on_c, 2, 57, 0
3, 90240, Note_on_c, 2, 57, 80
3, 92159, Note_on_c, 2, 57, 0
3, 92160, Note_on_c, 2, 53, 80
3, 94079, Note_on_c, 2, 53, 0
3, 94080, Note_on_c, 2, 55, 80
3, 95999, Note_on_c, 2, 55, 0
3, 96000, Note_on_c, 2, 57, 80
3, 97919, Note_on_c, 2, 57, 0
3, 97920, Note_on_c, 2, 57, 80
3, 99839, Note_on_c, 2, 57, 0
3, 99840, Note_on_c, 2, 53, 80
3, 101759, Note_on_c, 2, 53, 0
3, 101760, Note_on_c, 2, 55, 80
3, 103679, Note_on_c, 2, 55, 0
3, 103680, Note_on_c, 2, 57, 80
3, 105599, Note_on_c, 2, 57, 0
3, 105600, Note_on_c, 2, 57, 80
3, 107519, Note_on_c, 2, 57, 0
3, 107520, Note_on_c, 2, 53, 80
3, 109439, Note_on_c, 2, 53, 0
3, 109440, Note_on_c, 2, 55, 80
3, 111359, Note_on_c, 2, 55, 0
3, 111360, Note_on_c, 2, 57, 80
3, 113279, Note_on_c, 2, 57, 0
3, 113280, Note_on_c, 2, 57, 80
3, 115199, Note_on_c, 2, 57, 0
3, 115200, Note_on_c, 2, 53, 80
3, 117119, Note_on_c, 2, 53, 0
3, 117120, Note_on_c, 2, 55, 80
3, 119039, Note_on_c, 2, 55, 0
3, 119040, Note_on_c, 2, 57, 80
3, 120959, Note_on_c, 2, 57, 0
3, 120960, Note_on_c, 2, 57, 80
3, 122879, Note_on_c, 2, 57, 0
3, 122880, End_track
0, 0, End_of_file
