0, 0, Header, 1, 3, 480
1, 0, Start_track
1, 0, Title_t, "Piano, Piano, Piano\000"
1, 0, Time_signature, 4, 2, 24, 8
1, 0, Key_signature, 0, "major"
1, 0, Tempo, 1000000
1, 0, Control_c, 0, 121, 0
1, 0, Program_c, 0, 0
1, 0, Control_c, 0, 7, 100
1, 0, Control_c, 0, 10, 64
1, 0, Control_c, 0, 91, 0
1, 0, Control_c, 0, 93, 0
1, 0, MIDI_port, 0
1, 3840, Note_on_c, 0, 76, 80
1, 4295, Note_on_c, 0, 76, 0
1, 4320, Note_on_c, 0, 79, 80
1, 4661, Note_on_c, 0, 79, 0
1, 4680, Note_on_c, 0, 76, 80
1, 5021, Note_on_c, 0, 76, 0
1, 5040, Note_on_c, 0, 76, 80
1, 5159, Note_on_c, 0, 76, 0
1, 5160, Note_on_c, 0, 81, 80
1, 5387, Note_on_c, 0, 81, 0
1, 5440, Note_on_c, 0, 76, 80
1, 5743, Note_on_c, 0, 76, 0
1, 5760, Note_on_c, 0, 76, 80
1, 6215, Note_on_c, 0, 76, 0
1, 6240, Note_on_c, 0, 79, 80
1, 6581, Note_on_c, 0, 79, 0
1, 6600, Note_on_c, 0, 74, 80
1, 7017, Note_on_c, 0, 74, 0
1, 7120, Note_on_c, 0, 72, 80
1, 7195, Note_on_c, 0, 72, 0
1, 7200, Note_on_c, 0, 79, 80
1, 7351, Note_on_c, 0, 79, 0
1, 7360, Note_on_c, 0, 76, 80
1, 7435, Note_on_c, 0, 76, 0
1, 7440, Note_on_c, 0, 74, 80
1, 7591, Note_on_c, 0, 74, 0
1, 7600, Note_on_c, 0, 74, 80
1, 7675, Note_on_c, 0, 74, 0
1, 7680, Note_on_c, 0, 74, 80
1, 7831, Note_on_c, 0, 74, 0
1, 7840, Note_on_c, 0, 72, 80
1, 8143, Note_on_c, 0, 72, 0
1, 8160, Note_on_c, 0, 72, 80
1, 8273, Note_on_c, 0, 72, 0
1, 8280, Note_on_c, 0, 74, 80
1, 8507, Note_on_c, 0, 74, 0
1, 8520, Note_on_c, 0, 76, 80
1, 8937, Note_on_c, 0, 76, 0
1, 9040, Note_on_c, 0, 72, 80
1, 9115, Note_on_c, 0, 72, 0
1, 9120, Note_on_c, 0, 79, 80
1, 9271, Note_on_c, 0, 79, 0
1, 9280, Note_on_c, 0, 76, 80
1, 9355, Note_on_c, 0, 76, 0
1, 9360, Note_on_c, 0, 74, 80
1, 9511, Note_on_c, 0, 74, 0
1, 9520, Note_on_c, 0, 74, 80
1, 9595, Note_on_c, 0, 74, 0
1, 9600, Note_on_c, 0, 74, 80
1, 9751, Note_on_c, 0, 74, 0
1, 9760, Note_on_c, 0, 74, 80
1, 10063, Note_on_c, 0, 74, 0
1, 10080, Note_on_c, 0, 79, 80
1, 10193, Note_on_c, 0, 79, 0
1, 10200, Note_on_c, 0, 79, 80
1, 10379, Note_on_c, 0, 79, 0
1, 10560, Note_on_c, 0, 76, 80
1, 11015, Note_on_c, 0, 76, 0
1, 11040, Note_on_c, 0, 74, 80
1, 11191, Note_on_c, 0, 74, 0
1, 11200, Note_on_c, 0, 72, 80
1, 11503, Note_on_c, 0, 72, 0
1, 11520, Note_on_c, 0, 81, 80
1, 11639, Note_on_c, 0, 81, 0
1, 11760, Note_on_c, 0, 79, 80
1, 11873, Note_on_c, 0, 79, 0
1, 11880, Note_on_c, 0, 76, 80
1, 12107, Note_on_c, 0, 76, 0
1, 12120, Note_on_c, 0, 76, 80
1, 12299, Note_on_c, 0, 76, 0
1, 12360, Note_on_c, 0, 81, 80
1, 12587, Note_on_c, 0, 81, 0
1, 12617, Note_on_c, 0, 79, 80
1, 12876, Note_on_c, 0, 79, 0
1, 12891, Note_on_c, 0, 76, 80
1, 13097, Note_on_c, 0, 74, 80
1, 13356, Note_on_c, 0, 74, 0
1, 13371, Note_on_c, 0, 72, 80
1, 13410, Note_on_c, 0, 76, 0
1, 13891, Note_on_c, 0, 72, 0
1, 15040, Note_on_c, 0, 72, 80
1, 15115, Note_on_c, 0, 72, 0
1, 15120, Note_on_c, 0, 72, 80
1, 15347, Note_on_c, 0, 72, 0
1, 15360, Note_on_c, 0, 81, 80
1, 15479, Note_on_c, 0, 81, 0
1, 15600, Note_on_c, 0, 79, 80
1, 15713, Note_on_c, 0, 79, 0
1, 15720, Note_on_c, 0, 76, 80
1, 15947, Note_on_c, 0, 76, 0
1, 15960, Note_on_c, 0, 76, 80
1, 16139, Note_on_c, 0, 76, 0
1, 16200, Note_on_c, 0, 81, 80
1, 16427, Note_on_c, 0, 81, 0
1, 16457, Note_on_c, 0, 79, 80
1, 16716, Note_on_c, 0, 79, 0
1, 16731, Note_on_c, 0, 76, 80
1, 16937, Note_on_c, 0, 79, 80
1, 17196, Note_on_c, 0, 79, 0
1, 17211, Note_on_c, 0, 74, 80
1, 17250, Note_on_c, 0, 76, 0
1, 17427, Note_on_c, 0, 74, 0
1, 17440, Note_on_c, 0, 74, 80
1, 18199, Note_on_c, 0, 74, 0
1, 18960, Note_on_c, 0, 72, 80
1, 19111, Note_on_c, 0, 72, 0
1, 19120, Note_on_c, 0, 74, 80
1, 19195, Note_on_c, 0, 74, 0
1, 19200, Note_on_c, 0, 76, 80
1, 19351, Note_on_c, 0, 76, 0
1, 19360, Note_on_c, 0, 79, 80
1, 19435, Note_on_c, 0, 79, 0
1, 19440, Note_on_c, 0, 76, 80
1, 19591, Note_on_c, 0, 76, 0
1, 19600, Note_on_c, 0, 79, 80
1, 19675, Note_on_c, 0, 79, 0
1, 19680, Note_on_c, 0, 74, 80
1, 19831, Note_on_c, 0, 74, 0
1, 19840, Note_on_c, 0, 74, 80
1, 19915, Note_on_c, 0, 74, 0
1, 19920, Note_on_c, 0, 72, 80
1, 20071, Note_on_c, 0, 72, 0
1, 20080, Note_on_c, 0, 74, 80
1, 20155, Note_on_c, 0, 74, 0
1, 20160, Note_on_c, 0, 76, 80
1, 20311, Note_on_c, 0, 76, 0
1, 20320, Note_on_c, 0, 79, 80
1, 20395, Note_on_c, 0, 79, 0
1, 20400, Note_on_c, 0, 76, 80
1, 20551, Note_on_c, 0, 76, 0
1, 20560, Note_on_c, 0, 79, 80
1, 20635, Note_on_c, 0, 79, 0
1, 20640, Note_on_c, 0, 74, 80
1, 20791, Note_on_c, 0, 74, 0
1, 20800, Note_on_c, 0, 74, 80
1, 20875, Note_on_c, 0, 74, 0
1, 20880, Note_on_c, 0, 76, 80
1, 21031, Note_on_c, 0, 76, 0
1, 21040, Note_on_c, 0, 74, 80
1, 21115, Note_on_c, 0, 74, 0
1, 21120, Note_on_c, 0, 76, 80
1, 21360, Note_on_c, 0, 81, 80
1, 21479, Note_on_c, 0, 81, 0
1, 21480, Note_on_c, 0, 79, 80
1, 21480, Note_on_c, 0, 72, 80
1, 21575, Note_on_c, 0, 76, 0
1, 21707, Note_on_c, 0, 79, 0
1, 21760, Note_on_c, 0, 76, 80
1, 22049, Note_on_c, 0, 72, 0
1, 22063, Note_on_c, 0, 76, 0
1, 22800, Note_on_c, 0, 72, 80
1, 22951, Note_on_c, 0, 72, 0
1, 22960, Note_on_c, 0, 74, 80
1, 23035, Note_on_c, 0, 74, 0
1, 23040, Note_on_c, 0, 76, 80
1, 23191, Note_on_c, 0, 76, 0
1, 23200, Note_on_c, 0, 79, 80
1, 23275, Note_on_c, 0, 79, 0
1, 23280, Note_on_c, 0, 76, 80
1, 23431, Note_on_c, 0, 76, 0
1, 23440, Note_on_c, 0, 79, 80
1, 23515, Note_on_c, 0, 79, 0
1, 23520, Note_on_c, 0, 74, 80
1, 23671, Note_on_c, 0, 74, 0
1, 23680, Note_on_c, 0, 74, 80
1, 23755, Note_on_c, 0, 74, 0
1, 23760, Note_on_c, 0, 72, 80
1, 23911, Note_on_c, 0, 72, 0
1, 23920, Note_on_c, 0, 74, 80
1, 23995, Note_on_c, 0, 74, 0
1, 24000, Note_on_c, 0, 76, 80
1, 24151, Note_on_c, 0, 76, 0
1, 24160, Note_on_c, 0, 79, 80
1, 24235, Note_on_c, 0, 79, 0
1, 24240, Note_on_c, 0, 76, 80
1, 24391, Note_on_c, 0, 76, 0
1, 24400, Note_on_c, 0, 79, 80
1, 24475, Note_on_c, 0, 79, 0
1, 24480, Note_on_c, 0, 74, 80
1, 24631, Note_on_c, 0, 74, 0
1, 24640, Note_on_c, 0, 74, 80
1, 24715, Note_on_c, 0, 74, 0
1, 24720, Note_on_c, 0, 76, 80
1, 24871, Note_on_c, 0, 76, 0
1, 24880, Note_on_c, 0, 74, 80
1, 24955, Note_on_c, 0, 74, 0
1, 24960, Note_on_c, 0, 76, 80
1, 25200, Note_on_c, 0, 81, 80
1, 25319, Note_on_c, 0, 81, 0
1, 25320, Note_on_c, 0, 79, 80
1, 25320, Note_on_c, 0, 72, 80
1, 25415, Note_on_c, 0, 76, 0
1, 25547, Note_on_c, 0, 79, 0
1, 25600, Note_on_c, 0, 76, 80
1, 25675, Note_on_c, 0, 76, 0
1, 25889, Note_on_c, 0, 72, 0
1, 26640, Note_on_c, 0, 76, 80
1, 26791, Note_on_c, 0, 76, 0
1, 26800, Note_on_c, 0, 74, 80
1, 26875, Note_on_c, 0, 74, 0
1, 26880, Note_on_c, 0, 76, 80
1, 27120, Note_on_c, 0, 81, 80
1, 27239, Note_on_c, 0, 81, 0
1, 27240, Note_on_c, 0, 79, 80
1, 27240, Note_on_c, 0, 72, 80
1, 27335, Note_on_c, 0, 76, 0
1, 27467, Note_on_c, 0, 79, 0
1, 27520, Note_on_c, 0, 76, 80
1, 27809, Note_on_c, 0, 72, 0
1, 27823, Note_on_c, 0, 76, 0
1, 28800, Note_on_c, 0, 79, 80
1, 28800, Note_on_c, 0, 72, 80
1, 29040, Note_on_c, 0, 76, 80
1, 29040, Note_on_c, 0, 84, 80
1, 29267, Note_on_c, 0, 84, 0
1, 29280, Note_on_c, 0, 83, 80
1, 29440, Note_on_c, 0, 81, 80
1, 29507, Note_on_c, 0, 83, 0
1, 29520, Note_on_c, 0, 79, 0
1, 29520, Note_on_c, 0, 79, 80
1, 29599, Note_on_c, 0, 81, 0
1, 29711, Note_on_c, 0, 72, 0
1, 29723, Note_on_c, 0, 76, 0
1, 29747, Note_on_c, 0, 79, 0
1, 29760, Note_on_c, 0, 76, 80
1, 29987, Note_on_c, 0, 76, 0
1, 30000, Note_on_c, 0, 79, 80
1, 30227, Note_on_c, 0, 79, 0
1, 30240, Note_on_c, 0, 74, 80
1, 30391, Note_on_c, 0, 74, 0
1, 30400, Note_on_c, 0, 74, 80
1, 30703, Note_on_c, 0, 74, 0
1, 30960, Note_on_c, 0, 84, 80
1, 31187, Note_on_c, 0, 84, 0
1, 31200, Note_on_c, 0, 83, 80
1, 31351, Note_on_c, 0, 83, 0
1, 31360, Note_on_c, 0, 81, 80
1, 31435, Note_on_c, 0, 81, 0
1, 31440, Note_on_c, 0, 79, 80
1, 31667, Note_on_c, 0, 79, 0
1, 31680, Note_on_c, 0, 76, 80
1, 31907, Note_on_c, 0, 76, 0
1, 31920, Note_on_c, 0, 79, 80
1, 32147, Note_on_c, 0, 79, 0
1, 32160, Note_on_c, 0, 74, 80
1, 32311, Note_on_c, 0, 74, 0
1, 32320, Note_on_c, 0, 76, 80
1, 32395, Note_on_c, 0, 76, 0
1, 32400, Note_on_c, 0, 74, 80
1, 32551, Note_on_c, 0, 74, 0
1, 32560, Note_on_c, 0, 76, 80
1, 32635, Note_on_c, 0, 76, 0
1, 32640, Note_on_c, 0, 72, 80
1, 32640, Note_on_c, 0, 79, 80
1, 32880, Note_on_c, 0, 76, 80
1, 32880, Note_on_c, 0, 84, 80
1, 33107, Note_on_c, 0, 76, 0
1, 33107, Note_on_c, 0, 84, 0
1, 33120, Note_on_c, 0, 83, 80
1, 33120, Note_on_c, 0, 76, 80
1, 33239, Note_on_c, 0, 83, 0
1, 33280, Note_on_c, 0, 81, 80
1, 33355, Note_on_c, 0, 81, 0
1, 33360, Note_on_c, 0, 72, 0
1, 33360, Note_on_c, 0, 72, 80
1, 33360, Note_on_c, 0, 79, 0
1, 33360, Note_on_c, 0, 79, 80
1, 33575, Note_on_c, 0, 76, 0
1, 33587, Note_on_c, 0, 72, 0
1, 33587, Note_on_c, 0, 79, 0
1, 33600, Note_on_c, 0, 71, 80
1, 33600, Note_on_c, 0, 76, 80
1, 33827, Note_on_c, 0, 71, 0
1, 33827, Note_on_c, 0, 76, 0
1, 33840, Note_on_c, 0, 79, 80
1, 34067, Note_on_c, 0, 79, 0
1, 34080, Note_on_c, 0, 74, 80
1, 34231, Note_on_c, 0, 74, 0
1, 34240, Note_on_c, 0, 74, 80
1, 34543, Note_on_c, 0, 74, 0
1, 34800, Note_on_c, 0, 84, 80
1, 35027, Note_on_c, 0, 84, 0
1, 35040, Note_on_c, 0, 83, 80
1, 35267, Note_on_c, 0, 83, 0
1, 35280, Note_on_c, 0, 81, 80
1, 35507, Note_on_c, 0, 81, 0
1, 35520, Note_on_c, 0, 79, 80
1, 35747, Note_on_c, 0, 79, 0
1, 35760, Note_on_c, 0, 77, 80
1, 35987, Note_on_c, 0, 77, 0
1, 36000, Note_on_c, 0, 76, 80
1, 36227, Note_on_c, 0, 76, 0
1, 36240, Note_on_c, 0, 74, 80
1, 36467, Note_on_c, 0, 74, 0
1, 36480, Note_on_c, 0, 76, 80
1, 36480, Note_on_c, 0, 67, 80
1, 36480, Note_on_c, 0, 72, 80
1, 36935, Note_on_c, 0, 76, 0
1, 36960, Note_on_c, 0, 79, 80
1, 37301, Note_on_c, 0, 79, 0
1, 37320, Note_on_c, 0, 76, 80
1, 37391, Note_on_c, 0, 67, 0
1, 37391, Note_on_c, 0, 72, 0
1, 37737, Note_on_c, 0, 76, 0
1, 37840, Note_on_c, 0, 76, 80
1, 37915, Note_on_c, 0, 76, 0
1, 37920, Note_on_c, 0, 81, 80
1, 38071, Note_on_c, 0, 81, 0
1, 38080, Note_on_c, 0, 76, 80
1, 38155, Note_on_c, 0, 76, 0
1, 38160, Note_on_c, 0, 76, 80
1, 38387, Note_on_c, 0, 76, 0
1, 38400, Note_on_c, 0, 79, 80
1, 38741, Note_on_c, 0, 79, 0
1, 38760, Note_on_c, 0, 76, 80
1, 39329, Note_on_c, 0, 76, 0
1, 39760, Note_on_c, 0, 76, 80
1, 39835, Note_on_c, 0, 76, 0
1, 39840, Note_on_c, 0, 81, 80
1, 39991, Note_on_c, 0, 81, 0
1, 40000, Note_on_c, 0, 76, 80
1, 40075, Note_on_c, 0, 76, 0
1, 40080, Note_on_c, 0, 76, 80
1, 40307, Note_on_c, 0, 76, 0
1, 40320, Note_on_c, 0, 79, 80
1, 40320, Note_on_c, 0, 72, 80
1, 40661, Note_on_c, 0, 79, 0
1, 40680, Note_on_c, 0, 76, 80
1, 41160, Note_on_c, 0, 74, 80
1, 41231, Note_on_c, 0, 72, 0
1, 41249, Note_on_c, 0, 76, 0
1, 41387, Note_on_c, 0, 74, 0
1, 41440, Note_on_c, 0, 76, 80
1, 41515, Note_on_c, 0, 76, 0
1, 41520, Note_on_c, 0, 74, 80
1, 41671, Note_on_c, 0, 74, 0
1, 41680, Note_on_c, 0, 76, 80
1, 41755, Note_on_c, 0, 76, 0
1, 41760, Note_on_c, 0, 74, 80
1, 41873, Note_on_c, 0, 74, 0
1, 41880, Note_on_c, 0, 74, 80
1, 42107, Note_on_c, 0, 74, 0
1, 42120, Note_on_c, 0, 74, 80
1, 42575, Note_on_c, 0, 74, 0
1, 42600, Note_on_c, 0, 76, 80
1, 42941, Note_on_c, 0, 76, 0
1, 42960, Note_on_c, 0, 74, 80
1, 43643, Note_on_c, 0, 74, 0
1, 43920, Note_on_c, 0, 72, 80
1, 44071, Note_on_c, 0, 72, 0
1, 44080, Note_on_c, 0, 74, 80
1, 44155, Note_on_c, 0, 74, 0
1, 44160, Note_on_c, 0, 76, 80
1, 44160, Note_on_c, 0, 67, 80
1, 44160, Note_on_c, 0, 72, 80
1, 44280, Note_on_c, 0, 79, 80
1, 44393, Note_on_c, 0, 79, 0
1, 44399, Note_on_c, 0, 76, 0
1, 44400, Note_on_c, 0, 76, 80
1, 44551, Note_on_c, 0, 76, 0
1, 44560, Note_on_c, 0, 79, 80
1, 44635, Note_on_c, 0, 79, 0
1, 44640, Note_on_c, 0, 74, 80
1, 44791, Note_on_c, 0, 74, 0
1, 44800, Note_on_c, 0, 74, 80
1, 44875, Note_on_c, 0, 74, 0
1, 44880, Note_on_c, 0, 72, 0
1, 44880, Note_on_c, 0, 72, 80
1, 45040, Note_on_c, 0, 74, 80
1, 45071, Note_on_c, 0, 67, 0
1, 45107, Note_on_c, 0, 72, 0
1, 45115, Note_on_c, 0, 74, 0
1, 45120, Note_on_c, 0, 76, 80
1, 45271, Note_on_c, 0, 76, 0
1, 45280, Note_on_c, 0, 79, 80
1, 45355, Note_on_c, 0, 79, 0
1, 45360, Note_on_c, 0, 76, 80
1, 45511, Note_on_c, 0, 76, 0
1, 45520, Note_on_c, 0, 79, 80
1, 45595, Note_on_c, 0, 79, 0
1, 45600, Note_on_c, 0, 74, 80
1, 45751, Note_on_c, 0, 74, 0
1, 45760, Note_on_c, 0, 74, 80
1, 45835, Note_on_c, 0, 74, 0
1, 45840, Note_on_c, 0, 76, 80
1, 45991, Note_on_c, 0, 76, 0
1, 46000, Note_on_c, 0, 74, 80
1, 46075, Note_on_c, 0, 74, 0
1, 46080, Note_on_c, 0, 76, 80
1, 46320, Note_on_c, 0, 81, 80
1, 46439, Note_on_c, 0, 81, 0
1, 46440, Note_on_c, 0, 79, 80
1, 46440, Note_on_c, 0, 72, 80
1, 46535, Note_on_c, 0, 76, 0
1, 46667, Note_on_c, 0, 79, 0
1, 46720, Note_on_c, 0, 76, 80
1, 47009, Note_on_c, 0, 72, 0
1, 47023, Note_on_c, 0, 76, 0
1, 47760, Note_on_c, 0, 72, 80
1, 47911, Note_on_c, 0, 72, 0
1, 47920, Note_on_c, 0, 74, 80
1, 47995, Note_on_c, 0, 74, 0
1, 48000, Note_on_c, 0, 76, 80
1, 48000, Note_on_c, 0, 67, 80
1, 48000, Note_on_c, 0, 72, 80
1, 48120, Note_on_c, 0, 79, 80
1, 48233, Note_on_c, 0, 79, 0
1, 48239, Note_on_c, 0, 76, 0
1, 48240, Note_on_c, 0, 76, 80
1, 48391, Note_on_c, 0, 76, 0
1, 48400, Note_on_c, 0, 79, 80
1, 48475, Note_on_c, 0, 79, 0
1, 48480, Note_on_c, 0, 74, 80
1, 48631, Note_on_c, 0, 74, 0
1, 48640, Note_on_c, 0, 74, 80
1, 48715, Note_on_c, 0, 74, 0
1, 48720, Note_on_c, 0, 72, 0
1, 48720, Note_on_c, 0, 72, 80
1, 48880, Note_on_c, 0, 74, 80
1, 48911, Note_on_c, 0, 67, 0
1, 48947, Note_on_c, 0, 72, 0
1, 48955, Note_on_c, 0, 74, 0
1, 48960, Note_on_c, 0, 76, 80
1, 49111, Note_on_c, 0, 76, 0
1, 49120, Note_on_c, 0, 79, 80
1, 49195, Note_on_c, 0, 79, 0
1, 49200, Note_on_c, 0, 76, 80
1, 49351, Note_on_c, 0, 76, 0
1, 49360, Note_on_c, 0, 79, 80
1, 49435, Note_on_c, 0, 79, 0
1, 49440, Note_on_c, 0, 74, 80
1, 49591, Note_on_c, 0, 74, 0
1, 49600, Note_on_c, 0, 74, 80
1, 49675, Note_on_c, 0, 74, 0
1, 49680, Note_on_c, 0, 76, 80
1, 49831, Note_on_c, 0, 76, 0
1, 49840, Note_on_c, 0, 74, 80
1, 49915, Note_on_c, 0, 74, 0
1, 49920, Note_on_c, 0, 76, 80
1, 50160, Note_on_c, 0, 81, 80
1, 50279, Note_on_c, 0, 81, 0
1, 50280, Note_on_c, 0, 79, 80
1, 50280, Note_on_c, 0, 74, 80
1, 50375, Note_on_c, 0, 76, 0
1, 50507, Note_on_c, 0, 79, 0
1, 50560, Note_on_c, 0, 76, 80
1, 50635, Note_on_c, 0, 76, 0
1, 50849, Note_on_c, 0, 74, 0
1, 51600, Note_on_c, 0, 76, 80
1, 51751, Note_on_c, 0, 76, 0
1, 51760, Note_on_c, 0, 74, 80
1, 51835, Note_on_c, 0, 74, 0
1, 51840, Note_on_c, 0, 76, 80
1, 52080, Note_on_c, 0, 81, 80
1, 52181, Note_on_c, 0, 76, 0
1, 52193, Note_on_c, 0, 81, 0
1, 52200, Note_on_c, 0, 79, 80
1, 52200, Note_on_c, 0, 72, 80
1, 52427, Note_on_c, 0, 79, 0
1, 52440, Note_on_c, 0, 74, 80
1, 52680, Note_on_c, 0, 79, 80
1, 52769, Note_on_c, 0, 72, 0
1, 52781, Note_on_c, 0, 74, 0
1, 52907, Note_on_c, 0, 79, 0
1, 52960, Note_on_c, 0, 76, 80
1, 53263, Note_on_c, 0, 76, 0
1, 53760, Note_on_c, 0, 64, 80
1, 53790, Note_on_c, 0, 67, 80
1, 53820, Note_on_c, 0, 71, 80
1, 55470, Note_on_c, 0, 67, 0
1, 55472, Note_on_c, 0, 71, 0
1, 55583, Note_on_c, 0, 64, 0
1, 55584, End_track
2, 0, Start_track
2, 0, Title_t, "Classical Guitar, Lute\000"
2, 0, Key_signature, 0, "major"
2, 0, Control_c, 1, 121, 0
2, 0, Program_c, 1, 24
2, 0, Control_c, 1, 7, 100
2, 0, Control_c, 1, 10, 64
2, 0, Control_c, 1, 91, 0
2, 0, Control_c, 1, 93, 0
2, 0, MIDI_port, 0
2, 0, Note_on_c, 1, 52, 80
2, 0, Note_on_c, 1, 55, 80
2, 0, Note_on_c, 1, 60, 80
2, 0, Control_c, 3, 121, 0
2, 0, Program_c, 3, 28
2, 0, Control_c, 3, 7, 100
2, 0, Control_c, 3, 10, 64
2, 0, Control_c, 3, 91, 0
2, 0, Control_c, 3, 93, 0
2, 0, MIDI_port, 0
2, 359, Note_on_c, 1, 52, 0
2, 359, Note_on_c, 1, 55, 0
2, 359, Note_on_c, 1, 60, 0
2, 360, Note_on_c, 1, 55, 80
2, 360, Note_on_c, 1, 60, 80
2, 360, Note_on_c, 1, 64, 80
2, 719, Note_on_c, 1, 55, 0
2, 719, Note_on_c, 1, 60, 0
2, 719, Note_on_c, 1, 64, 0
2, 720, Note_on_c, 1, 52, 80
2, 720, Note_on_c, 1, 55, 80
2, 720, Note_on_c, 1, 60, 80
2, 959, Note_on_c, 1, 52, 0
2, 959, Note_on_c, 1, 55, 0
2, 959, Note_on_c, 1, 60, 0
2, 960, Note_on_c, 1, 52, 80
2, 960, Note_on_c, 1, 55, 80
2, 960, Note_on_c, 1, 59, 80
2, 1319, Note_on_c, 1, 52, 0
2, 1319, Note_on_c, 1, 55, 0
2, 1319, Note_on_c, 1, 59, 0
2, 1320, Note_on_c, 1, 55, 80
2, 1320, Note_on_c, 1, 59, 80
2, 1320, Note_on_c, 1, 64, 80
2, 1679, Note_on_c, 1, 55, 0
2, 1679, Note_on_c, 1, 59, 0
2, 1679, Note_on_c, 1, 64, 0
2, 1680, Note_on_c, 1, 52, 80
2, 1680, Note_on_c, 1, 55, 80
2, 1680, Note_on_c, 1, 59, 80
2, 1919, Note_on_c, 1, 52, 0
2, 1919, Note_on_c, 1, 55, 0
2, 1919, Note_on_c, 1, 59, 0
2, 1920, Note_on_c, 1, 52, 80
2, 1920, Note_on_c, 1, 57, 80
2, 1920, Note_on_c, 1, 60, 80
2, 2279, Note_on_c, 1, 52, 0
2, 2279, Note_on_c, 1, 57, 0
2, 2279, Note_on_c, 1, 60, 0
2, 2280, Note_on_c, 1, 57, 80
2, 2280, Note_on_c, 1, 60, 80
2, 2280, Note_on_c, 1, 64, 80
2, 2639, Note_on_c, 1, 57, 0
2, 2639, Note_on_c, 1, 60, 0
2, 2639, Note_on_c, 1, 64, 0
2, 2640, Note_on_c, 1, 52, 80
2, 2640, Note_on_c, 1, 57, 80
2, 2640, Note_on_c, 1, 60, 80
2, 2879, Note_on_c, 1, 52, 0
2, 2879, Note_on_c, 1, 57, 0
2, 2879, Note_on_c, 1, 60, 0
2, 2880, Note_on_c, 1, 53, 80
2, 2880, Note_on_c, 1, 57, 80
2, 2880, Note_on_c, 1, 60, 80
2, 3239, Note_on_c, 1, 53, 0
2, 3239, Note_on_c, 1, 57, 0
2, 3239, Note_on_c, 1, 60, 0
2, 3240, Note_on_c, 1, 57, 80
2, 3240, Note_on_c, 1, 60, 80
2, 3240, Note_on_c, 1, 64, 80
2, 3599, Note_on_c, 1, 57, 0
2, 3599, Note_on_c, 1, 60, 0
2, 3599, Note_on_c, 1, 64, 0
2, 3600, Note_on_c, 1, 53, 80
2, 3600, Note_on_c, 1, 57, 80
2, 3600, Note_on_c, 1, 60, 80
2, 3839, Note_on_c, 1, 53, 0
2, 3839, Note_on_c, 1, 57, 0
2, 3839, Note_on_c, 1, 60, 0
2, 3840, Note_on_c, 1, 52, 80
2, 3840, Note_on_c, 1, 55, 80
2, 3840, Note_on_c, 1, 60, 80
2, 4199, Note_on_c, 1, 52, 0
2, 4199, Note_on_c, 1, 55, 0
2, 4199, Note_on_c, 1, 60, 0
2, 4200, Note_on_c, 1, 55, 80
2, 4200, Note_on_c, 1, 60, 80
2, 4200, Note_on_c, 1, 64, 80
2, 4559, Note_on_c, 1, 55, 0
2, 4559, Note_on_c, 1, 60, 0
2, 4559, Note_on_c, 1, 64, 0
2, 4560, Note_on_c, 1, 55, 80
2, 4560, Note_on_c, 1, 60, 80
2, 4560, Note_on_c, 1, 64, 80
2, 4799, Note_on_c, 1, 55, 0
2, 4799, Note_on_c, 1, 60, 0
2, 4799, Note_on_c, 1, 64, 0
2, 4800, Note_on_c, 1, 55, 80
2, 4800, Note_on_c, 1, 60, 80
2, 4800, Note_on_c, 1, 64, 80
2, 5159, Note_on_c, 1, 55, 0
2, 5159, Note_on_c, 1, 60, 0
2, 5159, Note_on_c, 1, 64, 0
2, 5160, Note_on_c, 1, 55, 80
2, 5160, Note_on_c, 1, 60, 80
2, 5160, Note_on_c, 1, 64, 80
2, 5519, Note_on_c, 1, 55, 0
2, 5519, Note_on_c, 1, 60, 0
2, 5519, Note_on_c, 1, 64, 0
2, 5520, Note_on_c, 1, 55, 80
2, 5520, Note_on_c, 1, 60, 80
2, 5520, Note_on_c, 1, 64, 80
2, 5759, Note_on_c, 1, 55, 0
2, 5759, Note_on_c, 1, 60, 0
2, 5759, Note_on_c, 1, 64, 0
2, 5760, Note_on_c, 1, 52, 80
2, 5760, Note_on_c, 1, 55, 80
2, 5760, Note_on_c, 1, 59, 80
2, 6119, Note_on_c, 1, 52, 0
2, 6119, Note_on_c, 1, 55, 0
2, 6119, Note_on_c, 1, 59, 0
2, 6120, Note_on_c, 1, 55, 80
2, 6120, Note_on_c, 1, 59, 80
2, 6120, Note_on_c, 1, 64, 80
2, 6479, Note_on_c, 1, 55, 0
2, 6479, Note_on_c, 1, 59, 0
2, 6479, Note_on_c, 1, 64, 0
2, 6480, Note_on_c, 1, 55, 80
2, 6480, Note_on_c, 1, 59, 80
2, 6480, Note_on_c, 1, 64, 80
2, 6719, Note_on_c, 1, 55, 0
2, 6719, Note_on_c, 1, 59, 0
2, 6719, Note_on_c, 1, 64, 0
2, 6720, Note_on_c, 1, 55, 80
2, 6720, Note_on_c, 1, 59, 80
2, 6720, Note_on_c, 1, 64, 80
2, 7079, Note_on_c, 1, 55, 0
2, 7079, Note_on_c, 1, 59, 0
2, 7079, Note_on_c, 1, 64, 0
2, 7080, Note_on_c, 1, 55, 80
2, 7080, Note_on_c, 1, 59, 80
2, 7080, Note_on_c, 1, 64, 80
2, 7439, Note_on_c, 1, 55, 0
2, 7439, Note_on_c, 1, 59, 0
2, 7439, Note_on_c, 1, 64, 0
2, 7440, Note_on_c, 1, 55, 80
2, 7440, Note_on_c, 1, 59, 80
2, 7440, Note_on_c, 1, 64, 80
2, 7679, Note_on_c, 1, 55, 0
2, 7679, Note_on_c, 1, 59, 0
2, 7679, Note_on_c, 1, 64, 0
2, 7680, Note_on_c, 1, 48, 80
2, 7680, Note_on_c, 1, 52, 80
2, 7680, Note_on_c, 1, 57, 80
2, 8039, Note_on_c, 1, 48, 0
2, 8039, Note_on_c, 1, 52, 0
2, 8039, Note_on_c, 1, 57, 0
2, 8040, Note_on_c, 1, 57, 80
2, 8040, Note_on_c, 1, 60, 80
2, 8040, Note_on_c, 1, 64, 80
2, 8399, Note_on_c, 1, 57, 0
2, 8399, Note_on_c, 1, 60, 0
2, 8399, Note_on_c, 1, 64, 0
2, 8400, Note_on_c, 1, 57, 80
2, 8400, Note_on_c, 1, 60, 80
2, 8400, Note_on_c, 1, 64, 80
2, 8639, Note_on_c, 1, 57, 0
2, 8639, Note_on_c, 1, 60, 0
2, 8639, Note_on_c, 1, 64, 0
2, 8640, Note_on_c, 1, 57, 80
2, 8640, Note_on_c, 1, 60, 80
2, 8640, Note_on_c, 1, 64, 80
2, 8999, Note_on_c, 1, 57, 0
2, 8999, Note_on_c, 1, 60, 0
2, 8999, Note_on_c, 1, 64, 0
2, 9000, Note_on_c, 1, 57, 80
2, 9000, Note_on_c, 1, 60, 80
2, 9000, Note_on_c, 1, 64, 80
2, 9359, Note_on_c, 1, 57, 0
2, 9359, Note_on_c, 1, 60, 0
2, 9359, Note_on_c, 1, 64, 0
2, 9360, Note_on_c, 1, 57, 80
2, 9360, Note_on_c, 1, 60, 80
2, 9360, Note_on_c, 1, 64, 80
2, 9599, Note_on_c, 1, 57, 0
2, 9599, Note_on_c, 1, 60, 0
2, 9599, Note_on_c, 1, 64, 0
2, 9600, Note_on_c, 1, 48, 80
2, 9600, Note_on_c, 1, 53, 80
2, 9600, Note_on_c, 1, 57, 80
2, 9959, Note_on_c, 1, 48, 0
2, 9959, Note_on_c, 1, 53, 0
2, 9959, Note_on_c, 1, 57, 0
2, 9960, Note_on_c, 1, 53, 80
2, 9960, Note_on_c, 1, 57, 80
2, 9960, Note_on_c, 1, 60, 80
2, 10319, Note_on_c, 1, 53, 0
2, 10319, Note_on_c, 1, 57, 0
2, 10319, Note_on_c, 1, 60, 0
2, 10320, Note_on_c, 1, 53, 80
2, 10320, Note_on_c, 1, 57, 80
2, 10320, Note_on_c, 1, 60, 80
2, 10559, Note_on_c, 1, 53, 0
2, 10559, Note_on_c, 1, 57, 0
2, 10559, Note_on_c, 1, 60, 0
2, 10560, Note_on_c, 1, 53, 80
2, 10560, Note_on_c, 1, 57, 80
2, 10560, Note_on_c, 1, 60, 80
2, 10919, Note_on_c, 1, 53, 0
2, 10919, Note_on_c, 1, 57, 0
2, 10919, Note_on_c, 1, 60, 0
2, 10920, Note_on_c, 1, 53, 80
2, 10920, Note_on_c, 1, 57, 80
2, 10920, Note_on_c, 1, 60, 80
2, 11279, Note_on_c, 1, 53, 0
2, 11279, Note_on_c, 1, 57, 0
2, 11279, Note_on_c, 1, 60, 0
2, 11280, Note_on_c, 1, 53, 80
2, 11280, Note_on_c, 1, 57, 80
2, 11280, Note_on_c, 1, 60, 80
2, 11519, Note_on_c, 1, 53, 0
2, 11519, Note_on_c, 1, 57, 0
2, 11519, Note_on_c, 1, 60, 0
2, 11520, Note_on_c, 1, 52, 80
2, 11520, Note_on_c, 1, 55, 80
2, 11520, Note_on_c, 1, 60, 80
2, 11879, Note_on_c, 1, 52, 0
2, 11879, Note_on_c, 1, 55, 0
2, 11879, Note_on_c, 1, 60, 0
2, 11880, Note_on_c, 1, 55, 80
2, 11880, Note_on_c, 1, 60, 80
2, 11880, Note_on_c, 1, 64, 80
2, 12239, Note_on_c, 1, 55, 0
2, 12239, Note_on_c, 1, 60, 0
2, 12239, Note_on_c, 1, 64, 0
2, 12240, Note_on_c, 1, 52, 80
2, 12240, Note_on_c, 1, 55, 80
2, 12240, Note_on_c, 1, 60, 80
2, 12479, Note_on_c, 1, 52, 0
2, 12479, Note_on_c, 1, 55, 0
2, 12479, Note_on_c, 1, 60, 0
2, 12480, Note_on_c, 1, 52, 80
2, 12480, Note_on_c, 1, 55, 80
2, 12480, Note_on_c, 1, 59, 80
2, 12839, Note_on_c, 1, 52, 0
2, 12839, Note_on_c, 1, 55, 0
2, 12839, Note_on_c, 1, 59, 0
2, 12840, Note_on_c, 1, 55, 80
2, 12840, Note_on_c, 1, 59, 80
2, 12840, Note_on_c, 1, 64, 80
2, 13199, Note_on_c, 1, 55, 0
2, 13199, Note_on_c, 1, 59, 0
2, 13199, Note_on_c, 1, 64, 0
2, 13200, Note_on_c, 1, 52, 80
2, 13200, Note_on_c, 1, 55, 80
2, 13200, Note_on_c, 1, 59, 80
2, 13439, Note_on_c, 1, 52, 0
2, 13439, Note_on_c, 1, 55, 0
2, 13439, Note_on_c, 1, 59, 0
2, 13440, Note_on_c, 1, 52, 80
2, 13440, Note_on_c, 1, 57, 80
2, 13440, Note_on_c, 1, 60, 80
2, 13799, Note_on_c, 1, 52, 0
2, 13799, Note_on_c, 1, 57, 0
2, 13799, Note_on_c, 1, 60, 0
2, 13800, Note_on_c, 1, 57, 80
2, 13800, Note_on_c, 1, 60, 80
2, 13800, Note_on_c, 1, 64, 80
2, 14159, Note_on_c, 1, 57, 0
2, 14159, Note_on_c, 1, 60, 0
2, 14159, Note_on_c, 1, 64, 0
2, 14160, Note_on_c, 1, 52, 80
2, 14160, Note_on_c, 1, 57, 80
2, 14160, Note_on_c, 1, 60, 80
2, 14399, Note_on_c, 1, 52, 0
2, 14399, Note_on_c, 1, 57, 0
2, 14399, Note_on_c, 1, 60, 0
2, 14400, Note_on_c, 1, 53, 80
2, 14400, Note_on_c, 1, 57, 80
2, 14400, Note_on_c, 1, 60, 80
2, 14759, Note_on_c, 1, 53, 0
2, 14759, Note_on_c, 1, 57, 0
2, 14759, Note_on_c, 1, 60, 0
2, 14760, Note_on_c, 1, 57, 80
2, 14760, Note_on_c, 1, 60, 80
2, 14760, Note_on_c, 1, 64, 80
2, 15119, Note_on_c, 1, 57, 0
2, 15119, Note_on_c, 1, 60, 0
2, 15119, Note_on_c, 1, 64, 0
2, 15120, Note_on_c, 1, 53, 80
2, 15120, Note_on_c, 1, 57, 80
2, 15120, Note_on_c, 1, 60, 80
2, 15359, Note_on_c, 1, 53, 0
2, 15359, Note_on_c, 1, 57, 0
2, 15359, Note_on_c, 1, 60, 0
2, 15360, Note_on_c, 1, 52, 80
2, 15360, Note_on_c, 1, 55, 80
2, 15360, Note_on_c, 1, 60, 80
2, 15719, Note_on_c, 1, 52, 0
2, 15719, Note_on_c, 1, 55, 0
2, 15719, Note_on_c, 1, 60, 0
2, 15720, Note_on_c, 1, 55, 80
2, 15720, Note_on_c, 1, 60, 80
2, 15720, Note_on_c, 1, 64, 80
2, 16079, Note_on_c, 1, 55, 0
2, 16079, Note_on_c, 1, 60, 0
2, 16079, Note_on_c, 1, 64, 0
2, 16080, Note_on_c, 1, 52, 80
2, 16080, Note_on_c, 1, 55, 80
2, 16080, Note_on_c, 1, 60, 80
2, 16319, Note_on_c, 1, 52, 0
2, 16319, Note_on_c, 1, 55, 0
2, 16319, Note_on_c, 1, 60, 0
2, 16320, Note_on_c, 1, 52, 80
2, 16320, Note_on_c, 1, 55, 80
2, 16320, Note_on_c, 1, 59, 80
2, 16679, Note_on_c, 1, 52, 0
2, 16679, Note_on_c, 1, 55, 0
2, 16679, Note_on_c, 1, 59, 0
2, 16680, Note_on_c, 1, 55, 80
2, 16680, Note_on_c, 1, 59, 80
2, 16680, Note_on_c, 1, 64, 80
2, 17039, Note_on_c, 1, 55, 0
2, 17039, Note_on_c, 1, 59, 0
2, 17039, Note_on_c, 1, 64, 0
2, 17040, Note_on_c, 1, 52, 80
2, 17040, Note_on_c, 1, 55, 80
2, 17040, Note_on_c, 1, 59, 80
2, 17279, Note_on_c, 1, 52, 0
2, 17279, Note_on_c, 1, 55, 0
2, 17279, Note_on_c, 1, 59, 0
2, 17280, Note_on_c, 1, 52, 80
2, 17280, Note_on_c, 1, 57, 80
2, 17280, Note_on_c, 1, 60, 80
2, 17639, Note_on_c, 1, 52, 0
2, 17639, Note_on_c, 1, 57, 0
2, 17639, Note_on_c, 1, 60, 0
2, 17640, Note_on_c, 1, 57, 80
2, 17640, Note_on_c, 1, 60, 80
2, 17640, Note_on_c, 1, 64, 80
2, 17999, Note_on_c, 1, 57, 0
2, 17999, Note_on_c, 1, 60, 0
2, 17999, Note_on_c, 1, 64, 0
2, 18000, Note_on_c, 1, 52, 80
2, 18000, Note_on_c, 1, 57, 80
2, 18000, Note_on_c, 1, 60, 80
2, 18239, Note_on_c, 1, 52, 0
2, 18239, Note_on_c, 1, 57, 0
2, 18239, Note_on_c, 1, 60, 0
2, 18240, Note_on_c, 1, 53, 80
2, 18240, Note_on_c, 1, 57, 80
2, 18240, Note_on_c, 1, 60, 80
2, 18599, Note_on_c, 1, 53, 0
2, 18599, Note_on_c, 1, 57, 0
2, 18599, Note_on_c, 1, 60, 0
2, 18600, Note_on_c, 1, 57, 80
2, 18600, Note_on_c, 1, 60, 80
2, 18600, Note_on_c, 1, 64, 80
2, 18959, Note_on_c, 1, 57, 0
2, 18959, Note_on_c, 1, 60, 0
2, 18959, Note_on_c, 1, 64, 0
2, 18960, Note_on_c, 1, 53, 80
2, 18960, Note_on_c, 1, 57, 80
2, 18960, Note_on_c, 1, 60, 80
2, 19199, Note_on_c, 1, 53, 0
2, 19199, Note_on_c, 1, 57, 0
2, 19199, Note_on_c, 1, 60, 0
2, 19200, Note_on_c, 1, 52, 80
2, 19200, Note_on_c, 1, 55, 80
2, 19200, Note_on_c, 1, 60, 80
2, 19559, Note_on_c, 1, 52, 0
2, 19559, Note_on_c, 1, 55, 0
2, 19559, Note_on_c, 1, 60, 0
2, 19560, Note_on_c, 1, 55, 80
2, 19560, Note_on_c, 1, 60, 80
2, 19560, Note_on_c, 1, 64, 80
2, 19919, Note_on_c, 1, 55, 0
2, 19919, Note_on_c, 1, 60, 0
2, 19919, Note_on_c, 1, 64, 0
2, 19920, Note_on_c, 1, 52, 80
2, 19920, Note_on_c, 1, 55, 80
2, 19920, Note_on_c, 1, 60, 80
2, 20159, Note_on_c, 1, 52, 0
2, 20159, Note_on_c, 1, 55, 0
2, 20159, Note_on_c, 1, 60, 0
2, 20160, Note_on_c, 1, 52, 80
2, 20160, Note_on_c, 1, 55, 80
2, 20160, Note_on_c, 1, 59, 80
2, 20519, Note_on_c, 1, 52, 0
2, 20519, Note_on_c, 1, 55, 0
2, 20519, Note_on_c, 1, 59, 0
2, 20520, Note_on_c, 1, 55, 80
2, 20520, Note_on_c, 1, 59, 80
2, 20520, Note_on_c, 1, 64, 80
2, 20879, Note_on_c, 1, 55, 0
2, 20879, Note_on_c, 1, 59, 0
2, 20879, Note_on_c, 1, 64, 0
2, 20880, Note_on_c, 1, 52, 80
2, 20880, Note_on_c, 1, 55, 80
2, 20880, Note_on_c, 1, 59, 80
2, 21119, Note_on_c, 1, 52, 0
2, 21119, Note_on_c, 1, 55, 0
2, 21119, Note_on_c, 1, 59, 0
2, 21120, Note_on_c, 1, 52, 80
2, 21120, Note_on_c, 1, 57, 80
2, 21120, Note_on_c, 1, 60, 80
2, 21479, Note_on_c, 1, 52, 0
2, 21479, Note_on_c, 1, 57, 0
2, 21479, Note_on_c, 1, 60, 0
2, 21480, Note_on_c, 1, 57, 80
2, 21480, Note_on_c, 1, 60, 80
2, 21480, Note_on_c, 1, 64, 80
2, 21839, Note_on_c, 1, 57, 0
2, 21839, Note_on_c, 1, 60, 0
2, 21839, Note_on_c, 1, 64, 0
2, 21840, Note_on_c, 1, 52, 80
2, 21840, Note_on_c, 1, 57, 80
2, 21840, Note_on_c, 1, 60, 80
2, 22079, Note_on_c, 1, 52, 0
2, 22079, Note_on_c, 1, 57, 0
2, 22079, Note_on_c, 1, 60, 0
2, 22080, Note_on_c, 1, 53, 80
2, 22080, Note_on_c, 1, 57, 80
2, 22080, Note_on_c, 1, 60, 80
2, 22439, Note_on_c, 1, 53, 0
2, 22439, Note_on_c, 1, 57, 0
2, 22439, Note_on_c, 1, 60, 0
2, 22440, Note_on_c, 1, 57, 80
2, 22440, Note_on_c, 1, 60, 80
2, 22440, Note_on_c, 1, 64, 80
2, 22799, Note_on_c, 1, 57, 0
2, 22799, Note_on_c, 1, 60, 0
2, 22799, Note_on_c, 1, 64, 0
2, 22800, Note_on_c, 1, 53, 80
2, 22800, Note_on_c, 1, 57, 80
2, 22800, Note_on_c, 1, 60, 80
2, 23039, Note_on_c, 1, 53, 0
2, 23039, Note_on_c, 1, 57, 0
2, 23039, Note_on_c, 1, 60, 0
2, 23040, Note_on_c, 1, 52, 80
2, 23040, Note_on_c, 1, 55, 80
2, 23040, Note_on_c, 1, 60, 80
2, 23399, Note_on_c, 1, 52, 0
2, 23399, Note_on_c, 1, 55, 0
2, 23399, Note_on_c, 1, 60, 0
2, 23400, Note_on_c, 1, 55, 80
2, 23400, Note_on_c, 1, 60, 80
2, 23400, Note_on_c, 1, 64, 80
2, 23759, Note_on_c, 1, 55, 0
2, 23759, Note_on_c, 1, 60, 0
2, 23759, Note_on_c, 1, 64, 0
2, 23760, Note_on_c, 1, 52, 80
2, 23760, Note_on_c, 1, 55, 80
2, 23760, Note_on_c, 1, 60, 80
2, 23999, Note_on_c, 1, 52, 0
2, 23999, Note_on_c, 1, 55, 0
2, 23999, Note_on_c, 1, 60, 0
2, 24000, Note_on_c, 1, 52, 80
2, 24000, Note_on_c, 1, 55, 80
2, 24000, Note_on_c, 1, 59, 80
2, 24359, Note_on_c, 1, 52, 0
2, 24359, Note_on_c, 1, 55, 0
2, 24359, Note_on_c, 1, 59, 0
2, 24360, Note_on_c, 1, 55, 80
2, 24360, Note_on_c, 1, 59, 80
2, 24360, Note_on_c, 1, 64, 80
2, 24719, Note_on_c, 1, 55, 0
2, 24719, Note_on_c, 1, 59, 0
2, 24719, Note_on_c, 1, 64, 0
2, 24720, Note_on_c, 1, 52, 80
2, 24720, Note_on_c, 1, 55, 80
2, 24720, Note_on_c, 1, 59, 80
2, 24959, Note_on_c, 1, 52, 0
2, 24959, Note_on_c, 1, 55, 0
2, 24959, Note_on_c, 1, 59, 0
2, 24960, Note_on_c, 1, 48, 80
2, 24960, Note_on_c, 1, 52, 80
2, 24960, Note_on_c, 1, 57, 80
2, 25319, Note_on_c, 1, 48, 0
2, 25319, Note_on_c, 1, 52, 0
2, 25319, Note_on_c, 1, 57, 0
2, 25320, Note_on_c, 1, 57, 80
2, 25320, Note_on_c, 1, 60, 80
2, 25320, Note_on_c, 1, 64, 80
2, 25679, Note_on_c, 1, 57, 0
2, 25679, Note_on_c, 1, 60, 0
2, 25679, Note_on_c, 1, 64, 0
2, 25680, Note_on_c, 1, 57, 80
2, 25680, Note_on_c, 1, 60, 80
2, 25680, Note_on_c, 1, 64, 80
2, 25919, Note_on_c, 1, 57, 0
2, 25919, Note_on_c, 1, 60, 0
2, 25919, Note_on_c, 1, 64, 0
2, 25920, Note_on_c, 1, 57, 80
2, 25920, Note_on_c, 1, 60, 80
2, 25920, Note_on_c, 1, 64, 80
2, 26279, Note_on_c, 1, 57, 0
2, 26279, Note_on_c, 1, 60, 0
2, 26279, Note_on_c, 1, 64, 0
2, 26280, Note_on_c, 1, 57, 80
2, 26280, Note_on_c, 1, 60, 80
2, 26280, Note_on_c, 1, 64, 80
2, 26639, Note_on_c, 1, 57, 0
2, 26639, Note_on_c, 1, 60, 0
2, 26639, Note_on_c, 1, 64, 0
2, 26640, Note_on_c, 1, 57, 80
2, 26640, Note_on_c, 1, 60, 80
2, 26640, Note_on_c, 1, 64, 80
2, 26879, Note_on_c, 1, 57, 0
2, 26879, Note_on_c, 1, 60, 0
2, 26879, Note_on_c, 1, 64, 0
2, 26880, Note_on_c, 1, 48, 80
2, 26880, Note_on_c, 1, 53, 80
2, 26880, Note_on_c, 1, 57, 80
2, 27239, Note_on_c, 1, 48, 0
2, 27239, Note_on_c, 1, 53, 0
2, 27239, Note_on_c, 1, 57, 0
2, 27240, Note_on_c, 1, 57, 80
2, 27240, Note_on_c, 1, 60, 80
2, 27240, Note_on_c, 1, 64, 80
2, 27599, Note_on_c, 1, 57, 0
2, 27599, Note_on_c, 1, 60, 0
2, 27599, Note_on_c, 1, 64, 0
2, 27600, Note_on_c, 1, 57, 80
2, 27600, Note_on_c, 1, 60, 80
2, 27600, Note_on_c, 1, 64, 80
2, 27839, Note_on_c, 1, 57, 0
2, 27839, Note_on_c, 1, 60, 0
2, 27839, Note_on_c, 1, 64, 0
2, 27840, Note_on_c, 1, 57, 80
2, 27840, Note_on_c, 1, 60, 80
2, 27840, Note_on_c, 1, 64, 80
2, 28199, Note_on_c, 1, 57, 0
2, 28199, Note_on_c, 1, 60, 0
2, 28199, Note_on_c, 1, 64, 0
2, 28200, Note_on_c, 1, 57, 80
2, 28200, Note_on_c, 1, 60, 80
2, 28200, Note_on_c, 1, 64, 80
2, 28559, Note_on_c, 1, 57, 0
2, 28559, Note_on_c, 1, 60, 0
2, 28559, Note_on_c, 1, 64, 0
2, 28560, Note_on_c, 1, 57, 80
2, 28560, Note_on_c, 1, 60, 80
2, 28560, Note_on_c, 1, 64, 80
2, 28799, Note_on_c, 1, 57, 0
2, 28799, Note_on_c, 1, 60, 0
2, 28799, Note_on_c, 1, 64, 0
2, 28800, Note_on_c, 1, 52, 80
2, 28800, Note_on_c, 1, 55, 80
2, 28800, Note_on_c, 1, 60, 80
2, 29159, Note_on_c, 1, 52, 0
2, 29159, Note_on_c, 1, 55, 0
2, 29159, Note_on_c, 1, 60, 0
2, 29160, Note_on_c, 1, 55, 80
2, 29160, Note_on_c, 1, 60, 80
2, 29160, Note_on_c, 1, 64, 80
2, 29519, Note_on_c, 1, 55, 0
2, 29519, Note_on_c, 1, 60, 0
2, 29519, Note_on_c, 1, 64, 0
2, 29520, Note_on_c, 1, 52, 80
2, 29520, Note_on_c, 1, 55, 80
2, 29520, Note_on_c, 1, 60, 80
2, 29759, Note_on_c, 1, 52, 0
2, 29759, Note_on_c, 1, 55, 0
2, 29759, Note_on_c, 1, 60, 0
2, 29760, Note_on_c, 1, 52, 80
2, 29760, Note_on_c, 1, 55, 80
2, 29760, Note_on_c, 1, 59, 80
2, 30119, Note_on_c, 1, 52, 0
2, 30119, Note_on_c, 1, 55, 0
2, 30119, Note_on_c, 1, 59, 0
2, 30120, Note_on_c, 1, 55, 80
2, 30120, Note_on_c, 1, 59, 80
2, 30120, Note_on_c, 1, 64, 80
2, 30479, Note_on_c, 1, 55, 0
2, 30479, Note_on_c, 1, 59, 0
2, 30479, Note_on_c, 1, 64, 0
2, 30480, Note_on_c, 1, 52, 80
2, 30480, Note_on_c, 1, 55, 80
2, 30480, Note_on_c, 1, 59, 80
2, 30719, Note_on_c, 1, 52, 0
2, 30719, Note_on_c, 1, 55, 0
2, 30719, Note_on_c, 1, 59, 0
2, 30720, Note_on_c, 1, 52, 80
2, 30720, Note_on_c, 1, 57, 80
2, 30720, Note_on_c, 1, 60, 80
2, 31079, Note_on_c, 1, 52, 0
2, 31079, Note_on_c, 1, 57, 0
2, 31079, Note_on_c, 1, 60, 0
2, 31080, Note_on_c, 1, 57, 80
2, 31080, Note_on_c, 1, 60, 80
2, 31080, Note_on_c, 1, 64, 80
2, 31439, Note_on_c, 1, 57, 0
2, 31439, Note_on_c, 1, 60, 0
2, 31439, Note_on_c, 1, 64, 0
2, 31440, Note_on_c, 1, 52, 80
2, 31440, Note_on_c, 1, 57, 80
2, 31440, Note_on_c, 1, 60, 80
2, 31679, Note_on_c, 1, 52, 0
2, 31679, Note_on_c, 1, 57, 0
2, 31679, Note_on_c, 1, 60, 0
2, 31680, Note_on_c, 1, 53, 80
2, 31680, Note_on_c, 1, 57, 80
2, 31680, Note_on_c, 1, 60, 80
2, 32039, Note_on_c, 1, 53, 0
2, 32039, Note_on_c, 1, 57, 0
2, 32039, Note_on_c, 1, 60, 0
2, 32040, Note_on_c, 1, 57, 80
2, 32040, Note_on_c, 1, 60, 80
2, 32040, Note_on_c, 1, 64, 80
2, 32399, Note_on_c, 1, 57, 0
2, 32399, Note_on_c, 1, 60, 0
2, 32399, Note_on_c, 1, 64, 0
2, 32400, Note_on_c, 1, 53, 80
2, 32400, Note_on_c, 1, 57, 80
2, 32400, Note_on_c, 1, 60, 80
2, 32639, Note_on_c, 1, 53, 0
2, 32639, Note_on_c, 1, 57, 0
2, 32639, Note_on_c, 1, 60, 0
2, 32640, Note_on_c, 1, 52, 80
2, 32640, Note_on_c, 1, 55, 80
2, 32640, Note_on_c, 1, 60, 80
2, 32999, Note_on_c, 1, 52, 0
2, 32999, Note_on_c, 1, 55, 0
2, 32999, Note_on_c, 1, 60, 0
2, 33000, Note_on_c, 1, 55, 80
2, 33000, Note_on_c, 1, 60, 80
2, 33000, Note_on_c, 1, 64, 80
2, 33359, Note_on_c, 1, 55, 0
2, 33359, Note_on_c, 1, 60, 0
2, 33359, Note_on_c, 1, 64, 0
2, 33360, Note_on_c, 1, 52, 80
2, 33360, Note_on_c, 1, 55, 80
2, 33360, Note_on_c, 1, 60, 80
2, 33599, Note_on_c, 1, 52, 0
2, 33599, Note_on_c, 1, 55, 0
2, 33599, Note_on_c, 1, 60, 0
2, 33600, Note_on_c, 1, 52, 80
2, 33600, Note_on_c, 1, 55, 80
2, 33600, Note_on_c, 1, 59, 80
2, 33959, Note_on_c, 1, 52, 0
2, 33959, Note_on_c, 1, 55, 0
2, 33959, Note_on_c, 1, 59, 0
2, 33960, Note_on_c, 1, 55, 80
2, 33960, Note_on_c, 1, 59, 80
2, 33960, Note_on_c, 1, 64, 80
2, 34319, Note_on_c, 1, 55, 0
2, 34319, Note_on_c, 1, 59, 0
2, 34319, Note_on_c, 1, 64, 0
2, 34320, Note_on_c, 1, 52, 80
2, 34320, Note_on_c, 1, 55, 80
2, 34320, Note_on_c, 1, 59, 80
2, 34559, Note_on_c, 1, 52, 0
2, 34559, Note_on_c, 1, 55, 0
2, 34559, Note_on_c, 1, 59, 0
2, 34560, Note_on_c, 1, 52, 80
2, 34560, Note_on_c, 1, 57, 80
2, 34560, Note_on_c, 1, 60, 80
2, 34919, Note_on_c, 1, 52, 0
2, 34919, Note_on_c, 1, 57, 0
2, 34919, Note_on_c, 1, 60, 0
2, 34920, Note_on_c, 1, 57, 80
2, 34920, Note_on_c, 1, 60, 80
2, 34920, Note_on_c, 1, 64, 80
2, 35279, Note_on_c, 1, 57, 0
2, 35279, Note_on_c, 1, 60, 0
2, 35279, Note_on_c, 1, 64, 0
2, 35280, Note_on_c, 1, 52, 80
2, 35280, Note_on_c, 1, 57, 80
2, 35280, Note_on_c, 1, 60, 80
2, 35519, Note_on_c, 1, 52, 0
2, 35519, Note_on_c, 1, 57, 0
2, 35519, Note_on_c, 1, 60, 0
2, 35520, Note_on_c, 1, 53, 80
2, 35520, Note_on_c, 1, 57, 80
2, 35520, Note_on_c, 1, 60, 80
2, 35879, Note_on_c, 1, 53, 0
2, 35879, Note_on_c, 1, 57, 0
2, 35879, Note_on_c, 1, 60, 0
2, 35880, Note_on_c, 1, 57, 80
2, 35880, Note_on_c, 1, 60, 80
2, 35880, Note_on_c, 1, 64, 80
2, 36239, Note_on_c, 1, 57, 0
2, 36239, Note_on_c, 1, 60, 0
2, 36239, Note_on_c, 1, 64, 0
2, 36240, Note_on_c, 1, 53, 80
2, 36240, Note_on_c, 1, 57, 80
2, 36240, Note_on_c, 1, 60, 80
2, 36479, Note_on_c, 1, 53, 0
2, 36479, Note_on_c, 1, 57, 0
2, 36479, Note_on_c, 1, 60, 0
2, 36480, Note_on_c, 1, 52, 80
2, 36480, Note_on_c, 1, 55, 80
2, 36480, Note_on_c, 1, 60, 80
2, 36839, Note_on_c, 1, 52, 0
2, 36839, Note_on_c, 1, 55, 0
2, 36839, Note_on_c, 1, 60, 0
2, 36840, Note_on_c, 1, 55, 80
2, 36840, Note_on_c, 1, 60, 80
2, 36840, Note_on_c, 1, 64, 80
2, 37199, Note_on_c, 1, 55, 0
2, 37199, Note_on_c, 1, 60, 0
2, 37199, Note_on_c, 1, 64, 0
2, 37200, Note_on_c, 1, 52, 80
2, 37200, Note_on_c, 1, 55, 80
2, 37200, Note_on_c, 1, 60, 80
2, 37439, Note_on_c, 1, 52, 0
2, 37439, Note_on_c, 1, 55, 0
2, 37439, Note_on_c, 1, 60, 0
2, 37440, Note_on_c, 1, 52, 80
2, 37440, Note_on_c, 1, 55, 80
2, 37440, Note_on_c, 1, 59, 80
2, 37799, Note_on_c, 1, 52, 0
2, 37799, Note_on_c, 1, 55, 0
2, 37799, Note_on_c, 1, 59, 0
2, 37800, Note_on_c, 1, 55, 80
2, 37800, Note_on_c, 1, 59, 80
2, 37800, Note_on_c, 1, 64, 80
2, 38159, Note_on_c, 1, 55, 0
2, 38159, Note_on_c, 1, 59, 0
2, 38159, Note_on_c, 1, 64, 0
2, 38160, Note_on_c, 1, 52, 80
2, 38160, Note_on_c, 1, 55, 80
2, 38160, Note_on_c, 1, 59, 80
2, 38399, Note_on_c, 1, 52, 0
2, 38399, Note_on_c, 1, 55, 0
2, 38399, Note_on_c, 1, 59, 0
2, 38400, Note_on_c, 1, 52, 80
2, 38400, Note_on_c, 1, 57, 80
2, 38400, Note_on_c, 1, 60, 80
2, 38759, Note_on_c, 1, 52, 0
2, 38759, Note_on_c, 1, 57, 0
2, 38759, Note_on_c, 1, 60, 0
2, 38760, Note_on_c, 1, 57, 80
2, 38760, Note_on_c, 1, 60, 80
2, 38760, Note_on_c, 1, 64, 80
2, 39119, Note_on_c, 1, 57, 0
2, 39119, Note_on_c, 1, 60, 0
2, 39119, Note_on_c, 1, 64, 0
2, 39120, Note_on_c, 1, 52, 80
2, 39120, Note_on_c, 1, 57, 80
2, 39120, Note_on_c, 1, 60, 80
2, 39359, Note_on_c, 1, 52, 0
2, 39359, Note_on_c, 1, 57, 0
2, 39359, Note_on_c, 1, 60, 0
2, 39360, Note_on_c, 1, 53, 80
2, 39360, Note_on_c, 1, 57, 80
2, 39360, Note_on_c, 1, 60, 80
2, 39719, Note_on_c, 1, 53, 0
2, 39719, Note_on_c, 1, 57, 0
2, 39719, Note_on_c, 1, 60, 0
2, 39720, Note_on_c, 1, 57, 80
2, 39720, Note_on_c, 1, 60, 80
2, 39720, Note_on_c, 1, 64, 80
2, 40079, Note_on_c, 1, 57, 0
2, 40079, Note_on_c, 1, 60, 0
2, 40079, Note_on_c, 1, 64, 0
2, 40080, Note_on_c, 1, 53, 80
2, 40080, Note_on_c, 1, 57, 80
2, 40080, Note_on_c, 1, 60, 80
2, 40319, Note_on_c, 1, 53, 0
2, 40319, Note_on_c, 1, 57, 0
2, 40319, Note_on_c, 1, 60, 0
2, 40320, Note_on_c, 1, 52, 80
2, 40320, Note_on_c, 1, 55, 80
2, 40320, Note_on_c, 1, 60, 80
2, 40679, Note_on_c, 1, 52, 0
2, 40679, Note_on_c, 1, 55, 0
2, 40679, Note_on_c, 1, 60, 0
2, 40680, Note_on_c, 1, 55, 80
2, 40680, Note_on_c, 1, 60, 80
2, 40680, Note_on_c, 1, 64, 80
2, 41039, Note_on_c, 1, 55, 0
2, 41039, Note_on_c, 1, 60, 0
2, 41039, Note_on_c, 1, 64, 0
2, 41040, Note_on_c, 1, 52, 80
2, 41040, Note_on_c, 1, 55, 80
2, 41040, Note_on_c, 1, 60, 80
2, 41279, Note_on_c, 1, 52, 0
2, 41279, Note_on_c, 1, 55, 0
2, 41279, Note_on_c, 1, 60, 0
2, 41280, Note_on_c, 1, 52, 80
2, 41280, Note_on_c, 1, 55, 80
2, 41280, Note_on_c, 1, 59, 80
2, 41639, Note_on_c, 1, 52, 0
2, 41639, Note_on_c, 1, 55, 0
2, 41639, Note_on_c, 1, 59, 0
2, 41640, Note_on_c, 1, 55, 80
2, 41640, Note_on_c, 1, 59, 80
2, 41640, Note_on_c, 1, 64, 80
2, 41999, Note_on_c, 1, 55, 0
2, 41999, Note_on_c, 1, 59, 0
2, 41999, Note_on_c, 1, 64, 0
2, 42000, Note_on_c, 1, 52, 80
2, 42000, Note_on_c, 1, 55, 80
2, 42000, Note_on_c, 1, 59, 80
2, 42239, Note_on_c, 1, 52, 0
2, 42239, Note_on_c, 1, 55, 0
2, 42239, Note_on_c, 1, 59, 0
2, 42240, Note_on_c, 1, 52, 80
2, 42240, Note_on_c, 1, 57, 80
2, 42240, Note_on_c, 1, 60, 80
2, 42599, Note_on_c, 1, 52, 0
2, 42599, Note_on_c, 1, 57, 0
2, 42599, Note_on_c, 1, 60, 0
2, 42600, Note_on_c, 1, 57, 80
2, 42600, Note_on_c, 1, 60, 80
2, 42600, Note_on_c, 1, 64, 80
2, 42959, Note_on_c, 1, 57, 0
2, 42959, Note_on_c, 1, 60, 0
2, 42959, Note_on_c, 1, 64, 0
2, 42960, Note_on_c, 1, 52, 80
2, 42960, Note_on_c, 1, 57, 80
2, 42960, Note_on_c, 1, 60, 80
2, 43199, Note_on_c, 1, 52, 0
2, 43199, Note_on_c, 1, 57, 0
2, 43199, Note_on_c, 1, 60, 0
2, 43200, Note_on_c, 1, 53, 80
2, 43200, Note_on_c, 1, 57, 80
2, 43200, Note_on_c, 1, 60, 80
2, 43559, Note_on_c, 1, 53, 0
2, 43559, Note_on_c, 1, 57, 0
2, 43559, Note_on_c, 1, 60, 0
2, 43560, Note_on_c, 1, 57, 80
2, 43560, Note_on_c, 1, 60, 80
2, 43560, Note_on_c, 1, 64, 80
2, 43919, Note_on_c, 1, 57, 0
2, 43919, Note_on_c, 1, 60, 0
2, 43919, Note_on_c, 1, 64, 0
2, 43920, Note_on_c, 1, 53, 80
2, 43920, Note_on_c, 1, 57, 80
2, 43920, Note_on_c, 1, 60, 80
2, 44159, Note_on_c, 1, 53, 0
2, 44159, Note_on_c, 1, 57, 0
2, 44159, Note_on_c, 1, 60, 0
2, 44160, Note_on_c, 1, 52, 80
2, 44160, Note_on_c, 1, 55, 80
2, 44160, Note_on_c, 1, 60, 80
2, 44519, Note_on_c, 1, 52, 0
2, 44519, Note_on_c, 1, 55, 0
2, 44519, Note_on_c, 1, 60, 0
2, 44520, Note_on_c, 1, 55, 80
2, 44520, Note_on_c, 1, 60, 80
2, 44520, Note_on_c, 1, 64, 80
2, 44879, Note_on_c, 1, 55, 0
2, 44879, Note_on_c, 1, 60, 0
2, 44879, Note_on_c, 1, 64, 0
2, 44880, Note_on_c, 1, 52, 80
2, 44880, Note_on_c, 1, 55, 80
2, 44880, Note_on_c, 1, 60, 80
2, 45119, Note_on_c, 1, 52, 0
2, 45119, Note_on_c, 1, 55, 0
2, 45119, Note_on_c, 1, 60, 0
2, 45120, Note_on_c, 1, 52, 80
2, 45120, Note_on_c, 1, 55, 80
2, 45120, Note_on_c, 1, 59, 80
2, 45479, Note_on_c, 1, 52, 0
2, 45479, Note_on_c, 1, 55, 0
2, 45479, Note_on_c, 1, 59, 0
2, 45480, Note_on_c, 1, 55, 80
2, 45480, Note_on_c, 1, 59, 80
2, 45480, Note_on_c, 1, 64, 80
2, 45839, Note_on_c, 1, 55, 0
2, 45839, Note_on_c, 1, 59, 0
2, 45839, Note_on_c, 1, 64, 0
2, 45840, Note_on_c, 1, 52, 80
2, 45840, Note_on_c, 1, 55, 80
2, 45840, Note_on_c, 1, 59, 80
2, 46079, Note_on_c, 1, 52, 0
2, 46079, Note_on_c, 1, 55, 0
2, 46079, Note_on_c, 1, 59, 0
2, 46080, Note_on_c, 1, 52, 80
2, 46080, Note_on_c, 1, 57, 80
2, 46080, Note_on_c, 1, 60, 80
2, 46439, Note_on_c, 1, 52, 0
2, 46439, Note_on_c, 1, 57, 0
2, 46439, Note_on_c, 1, 60, 0
2, 46440, Note_on_c, 1, 57, 80
2, 46440, Note_on_c, 1, 60, 80
2, 46440, Note_on_c, 1, 64, 80
2, 46799, Note_on_c, 1, 57, 0
2, 46799, Note_on_c, 1, 60, 0
2, 46799, Note_on_c, 1, 64, 0
2, 46800, Note_on_c, 1, 52, 80
2, 46800, Note_on_c, 1, 57, 80
2, 46800, Note_on_c, 1, 60, 80
2, 47039, Note_on_c, 1, 52, 0
2, 47039, Note_on_c, 1, 57, 0
2, 47039, Note_on_c, 1, 60, 0
2, 47040, Note_on_c, 1, 53, 80
2, 47040, Note_on_c, 1, 57, 80
2, 47040, Note_on_c, 1, 60, 80
2, 47399, Note_on_c, 1, 53, 0
2, 47399, Note_on_c, 1, 57, 0
2, 47399, Note_on_c, 1, 60, 0
2, 47400, Note_on_c, 1, 57, 80
2, 47400, Note_on_c, 1, 60, 80
2, 47400, Note_on_c, 1, 64, 80
2, 47759, Note_on_c, 1, 57, 0
2, 47759, Note_on_c, 1, 60, 0
2, 47759, Note_on_c, 1, 64, 0
2, 47760, Note_on_c, 1, 53, 80
2, 47760, Note_on_c, 1, 57, 80
2, 47760, Note_on_c, 1, 60, 80
2, 47999, Note_on_c, 1, 53, 0
2, 47999, Note_on_c, 1, 57, 0
2, 47999, Note_on_c, 1, 60, 0
2, 48000, Note_on_c, 1, 52, 80
2, 48000, Note_on_c, 1, 55, 80
2, 48000, Note_on_c, 1, 60, 80
2, 48359, Note_on_c, 1, 52, 0
2, 48359, Note_on_c, 1, 55, 0
2, 48359, Note_on_c, 1, 60, 0
2, 48360, Note_on_c, 1, 55, 80
2, 48360, Note_on_c, 1, 60, 80
2, 48360, Note_on_c, 1, 64, 80
2, 48719, Note_on_c, 1, 55, 0
2, 48719, Note_on_c, 1, 60, 0
2, 48719, Note_on_c, 1, 64, 0
2, 48720, Note_on_c, 1, 52, 80
2, 48720, Note_on_c, 1, 55, 80
2, 48720, Note_on_c, 1, 60, 80
2, 48959, Note_on_c, 1, 52, 0
2, 48959, Note_on_c, 1, 55, 0
2, 48959, Note_on_c, 1, 60, 0
2, 48960, Note_on_c, 1, 52, 80
2, 48960, Note_on_c, 1, 55, 80
2, 48960, Note_on_c, 1, 59, 80
2, 49319, Note_on_c, 1, 52, 0
2, 49319, Note_on_c, 1, 55, 0
2, 49319, Note_on_c, 1, 59, 0
2, 49320, Note_on_c, 1, 55, 80
2, 49320, Note_on_c, 1, 59, 80
2, 49320, Note_on_c, 1, 64, 80
2, 49679, Note_on_c, 1, 55, 0
2, 49679, Note_on_c, 1, 59, 0
2, 49679, Note_on_c, 1, 64, 0
2, 49680, Note_on_c, 1, 52, 80
2, 49680, Note_on_c, 1, 55, 80
2, 49680, Note_on_c, 1, 59, 80
2, 49919, Note_on_c, 1, 52, 0
2, 49919, Note_on_c, 1, 55, 0
2, 49919, Note_on_c, 1, 59, 0
2, 49920, Note_on_c, 1, 52, 80
2, 49920, Note_on_c, 1, 57, 80
2, 49920, Note_on_c, 1, 60, 80
2, 50279, Note_on_c, 1, 52, 0
2, 50279, Note_on_c, 1, 57, 0
2, 50279, Note_on_c, 1, 60, 0
2, 50280, Note_on_c, 1, 57, 80
2, 50280, Note_on_c, 1, 60, 80
2, 50280, Note_on_c, 1, 64, 80
2, 50639, Note_on_c, 1, 57, 0
2, 50639, Note_on_c, 1, 60, 0
2, 50639, Note_on_c, 1, 64, 0
2, 50640, Note_on_c, 1, 57, 80
2, 50640, Note_on_c, 1, 60, 80
2, 50640, Note_on_c, 1, 64, 80
2, 50879, Note_on_c, 1, 57, 0
2, 50879, Note_on_c, 1, 60, 0
2, 50879, Note_on_c, 1, 64, 0
2, 50880, Note_on_c, 1, 57, 80
2, 50880, Note_on_c, 1, 60, 80
2, 50880, Note_on_c, 1, 64, 80
2, 51239, Note_on_c, 1, 57, 0
2, 51239, Note_on_c, 1, 60, 0
2, 51239, Note_on_c, 1, 64, 0
2, 51240, Note_on_c, 1, 57, 80
2, 51240, Note_on_c, 1, 60, 80
2, 51240, Note_on_c, 1, 64, 80
2, 51599, Note_on_c, 1, 57, 0
2, 51599, Note_on_c, 1, 60, 0
2, 51599, Note_on_c, 1, 64, 0
2, 51600, Note_on_c, 1, 57, 80
2, 51600, Note_on_c, 1, 60, 80
2, 51600, Note_on_c, 1, 64, 80
2, 51839, Note_on_c, 1, 57, 0
2, 51839, Note_on_c, 1, 60, 0
2, 51839, Note_on_c, 1, 64, 0
2, 51840, Note_on_c, 1, 48, 80
2, 51840, Note_on_c, 1, 53, 80
2, 51840, Note_on_c, 1, 57, 80
2, 52199, Note_on_c, 1, 48, 0
2, 52199, Note_on_c, 1, 53, 0
2, 52199, Note_on_c, 1, 57, 0
2, 52200, Note_on_c, 1, 57, 80
2, 52200, Note_on_c, 1, 60, 80
2, 52200, Note_on_c, 1, 64, 80
2, 52559, Note_on_c, 1, 57, 0
2, 52559, Note_on_c, 1, 60, 0
2, 52559, Note_on_c, 1, 64, 0
2, 52560, Note_on_c, 1, 57, 80
2, 52560, Note_on_c, 1, 60, 80
2, 52560, Note_on_c, 1, 64, 80
2, 52799, Note_on_c, 1, 57, 0
2, 52799, Note_on_c, 1, 60, 0
2, 52799, Note_on_c, 1, 64, 0
2, 52800, Note_on_c, 1, 57, 80
2, 52800, Note_on_c, 1, 60, 80
2, 52800, Note_on_c, 1, 64, 80
2, 53159, Note_on_c, 1, 57, 0
2, 53159, Note_on_c, 1, 60, 0
2, 53159, Note_on_c, 1, 64, 0
2, 53160, Note_on_c, 1, 57, 80
2, 53160, Note_on_c, 1, 60, 80
2, 53160, Note_on_c, 1, 64, 80
2, 53519, Note_on_c, 1, 57, 0
2, 53519, Note_on_c, 1, 60, 0
2, 53519, Note_on_c, 1, 64, 0
2, 53520, Note_on_c, 1, 57, 80
2, 53520, Note_on_c, 1, 60, 80
2, 53520, Note_on_c, 1, 64, 80
2, 53759, Note_on_c, 1, 57, 0
2, 53759, Note_on_c, 1, 60, 0
2, 53759, Note_on_c, 1, 64, 0
2, 53760, Note_on_c, 1, 60, 80
2, 53790, Note_on_c, 1, 64, 80
2, 53820, Note_on_c, 1, 67, 80
2, 55679, Note_on_c, 1, 60, 0
2, 55679, Note_on_c, 1, 64, 0
2, 55679, Note_on_c, 1, 67, 0
2, 55680, End_track
3, 0, Start_track
3, 0, Title_t, "Electric Bass, Bass\000"
3, 0, Key_signature, 0, "major"
3, 0, Control_c, 2, 121, 0
3, 0, Program_c, 2, 33
3, 0, Control_c, 2, 7, 100
3, 0, Control_c, 2, 10, 64
3, 0, Control_c, 2, 91, 0
3, 0, Control_c, 2, 93, 0
3, 0, MIDI_port, 0
3, 0, Control_c, 4, 121, 0
3, 0, Program_c, 4, 36
3, 0, Control_c, 4, 7, 100
3, 0, Control_c, 4, 10, 64
3, 0, Control_c, 4, 91, 0
3, 0, Control_c, 4, 93, 0
3, 0, MIDI_port, 0
3, 0, Control_c, 5, 121, 0
3, 0, Program_c, 5, 37
3, 0, Control_c, 5, 7, 100
3, 0, Control_c, 5, 10, 64
3, 0, Control_c, 5, 91, 0
3, 0, Control_c, 5, 93, 0
3, 0, MIDI_port, 0
3, 3840, Note_on_c, 2, 60, 80
3, 5759, Note_on_c, 2, 60, 0
3, 5760, Note_on_c, 2, 59, 80
3, 7679, Note_on_c, 2, 59, 0
3, 7680, Note_on_c, 2, 57, 80
3, 9599, Note_on_c, 2, 57, 0
3, 9600, Note_on_c, 2, 65, 80
3, 11519, Note_on_c, 2, 65, 0
3, 11520, Note_on_c, 2, 60, 80
3, 12479, Note_on_c, 2, 60, 0
3, 12480, Note_on_c, 2, 59, 80
3, 13439, Note_on_c, 2, 59, 0
3, 13440, Note_on_c, 2, 57, 80
3, 14399, Note_on_c, 2, 57, 0
3, 14400, Note_on_c, 2, 53, 80
3, 15359, Note_on_c, 2, 53, 0
3, 15360, Note_on_c, 2, 60, 80
3, 16319, Note_on_c, 2, 60, 0
3, 16320, Note_on_c, 2, 59, 80
3, 17279, Note_on_c, 2, 59, 0
3, 17280, Note_on_c, 2, 57, 80
3, 18239, Note_on_c, 2, 57, 0
3, 18240, Note_on_c, 2, 53, 80
3, 19199, Note_on_c, 2, 53, 0
3, 19200, Note_on_c, 2, 60, 80
3, 19919, Note_on_c, 2, 60, 0
3, 19920, Note_on_c, 2, 60, 80
3, 20159, Note_on_c, 2, 60, 0
3, 20160, Note_on_c, 2, 59, 80
3, 20879, Note_on_c, 2, 59, 0
3, 20880, Note_on_c, 2, 59, 80
3, 21119, Note_on_c, 2, 59, 0
3, 21120, Note_on_c, 2, 57, 80
3, 22079, Note_on_c, 2, 57, 0
3, 22080, Note_on_c, 2, 53, 80
3, 23039, Note_on_c, 2, 53, 0
3, 23040, Note_on_c, 2, 60, 80
3, 23759, Note_on_c, 2, 60, 0
3, 23760, Note_on_c, 2, 60, 80
3, 23999, Note_on_c, 2, 60, 0
3, 24000, Note_on_c, 2, 59, 80
3, 24719, Note_on_c, 2, 59, 0
3, 24720, Note_on_c, 2, 59, 80
3, 24959, Note_on_c, 2, 59, 0
3, 24960, Note_on_c, 2, 57, 80
3, 26879, Note_on_c, 2, 57, 0
3, 26880, Note_on_c, 2, 53, 80
3, 28799, Note_on_c, 2, 53, 0
3, 28800, Note_on_c, 2, 60, 80
3, 29159, Note_on_c, 2, 60, 0
3, 29160, Note_on_c, 2, 60, 80
3, 29519, Note_on_c, 2, 60, 0
3, 29520, Note_on_c, 2, 60, 80
3, 29759, Note_on_c, 2, 60, 0
3, 29760, Note_on_c, 2, 59, 80
3, 30119, Note_on_c, 2, 59, 0
3, 30120, Note_on_c, 2, 59, 80
3, 30479, Note_on_c, 2, 59, 0
3, 30480, Note_on_c, 2, 59, 80
3, 30719, Note_on_c, 2, 59, 0
3, 30720, Note_on_c, 2, 57, 80
3, 31079, Note_on_c, 2, 57, 0
3, 31080, Note_on_c, 2, 57, 80
3, 31439, Note_on_c, 2, 57, 0
3, 31440, Note_on_c, 2, 57, 80
3, 31679, Note_on_c, 2, 57, 0
3, 31680, Note_on_c, 2, 53, 80
3, 32039, Note_on_c, 2, 53, 0
3, 32040, Note_on_c, 2, 53, 80
3, 32399, Note_on_c, 2, 53, 0
3, 32400, Note_on_c, 2, 53, 80
3, 32639, Note_on_c, 2, 53, 0
3, 32640, Note_on_c, 2, 60, 80
3, 32999, Note_on_c, 2, 60, 0
3, 33000, Note_on_c, 2, 60, 80
3, 33359, Note_on_c, 2, 60, 0
3, 33360, Note_on_c, 2, 60, 80
3, 33599, Note_on_c, 2, 60, 0
3, 33600, Note_on_c, 2, 59, 80
3, 33959, Note_on_c, 2, 59, 0
3, 33960, Note_on_c, 2, 59, 80
3, 34319, Note_on_c, 2, 59, 0
3, 34320, Note_on_c, 2, 59, 80
3, 34559, Note_on_c, 2, 59, 0
3, 34560, Note_on_c, 2, 57, 80
3, 34919, Note_on_c, 2, 57, 0
3, 34920, Note_on_c, 2, 57, 80
3, 35279, Note_on_c, 2, 57, 0
3, 35280, Note_on_c, 2, 57, 80
3, 35519, Note_on_c, 2, 57, 0
3, 35520, Note_on_c, 2, 53, 80
3, 35999, Note_on_c, 2, 53, 0
3, 36000, Note_on_c, 2, 53, 80
3, 36479, Note_on_c, 2, 53, 0
3, 36480, Note_on_c, 2, 60, 80
3, 37439, Note_on_c, 2, 60, 0
3, 37440, Note_on_c, 2, 59, 80
3, 38399, Note_on_c, 2, 59, 0
3, 38400, Note_on_c, 2, 57, 80
3, 39359, Note_on_c, 2, 57, 0
3, 39360, Note_on_c, 2, 53, 80
3, 40319, Note_on_c, 2, 53, 0
3, 40320, Note_on_c, 2, 60, 80
3, 41279, Note_on_c, 2, 60, 0
3, 41280, Note_on_c, 2, 59, 80
3, 42239, Note_on_c, 2, 59, 0
3, 42240, Note_on_c, 2, 57, 80
3, 43199, Note_on_c, 2, 57, 0
3, 43200, Note_on_c, 2, 53, 80
3, 44159, Note_on_c, 2, 53, 0
3, 44160, Note_on_c, 2, 60, 80
3, 45119, Note_on_c, 2, 60, 0
3, 45120, Note_on_c, 2, 59, 80
3, 46079, Note_on_c, 2, 59, 0
3, 46080, Note_on_c, 2, 57, 80
3, 47039, Note_on_c, 2, 57, 0
3, 47040, Note_on_c, 2, 53, 80
3, 47999, Note_on_c, 2, 53, 0
3, 48000, Note_on_c, 2, 60, 80
3, 48959, Note_on_c, 2, 60, 0
3, 48960, Note_on_c, 2, 59, 80
3, 49919, Note_on_c, 2, 59, 0
3, 49920, Note_on_c, 2, 57, 80
3, 51839, Note_on_c, 2, 57, 0
3, 51840, Note_on_c, 2, 53, 80
3, 53759, Note_on_c, 2, 53, 0
3, 53760, Note_on_c, 2, 60, 80
3, 54239, Note_on_c, 2, 60, 0
3, 54240, End_track
0, 0, End_of_file
