0, 0, Header, 1, 3, 480
1, 0, Start_track
1, 0, Title_t, "Piano, Piano, Piano\000"
1, 0, Time_signature, 4, 2, 24, 8
1, 0, Key_signature, 0, "major"
1, 0, Tempo, 750000
1, 0, Control_c, 0, 121, 0
1, 0, Program_c, 0, 0
1, 0, Control_c, 0, 7, 100
1, 0, Control_c, 0, 10, 64
1, 0, Control_c, 0, 91, 0
1, 0, Control_c, 0, 93, 0
1, 0, MIDI_port, 0
1, 400, Note_on_c, 0, 67, 80
1, 437, Note_on_c, 0, 67, 0
1, 440, Note_on_c, 0, 71, 80
1, 477, Note_on_c, 0, 71, 0
1, 480, Note_on_c, 0, 74, 80
1, 783, Note_on_c, 0, 74, 0
1, 800, Note_on_c, 0, 72, 80
1, 951, Note_on_c, 0, 72, 0
1, 960, Note_on_c, 0, 71, 80
1, 1415, Note_on_c, 0, 71, 0
1, 1440, Note_on_c, 0, 64, 80
1, 1440, Note_on_c, 0, 67, 80
1, 1440, Note_on_c, 0, 71, 80
1, 1895, Note_on_c, 0, 64, 0
1, 1895, Note_on_c, 0, 67, 0
1, 1895, Note_on_c, 0, 71, 0
1, 1920, Note_on_c, 0, 65, 80
1, 2099, Note_on_c, 0, 65, 0
1, 2320, Note_on_c, 0, 69, 80
1, 2357, Note_on_c, 0, 69, 0
1, 2360, Note_on_c, 0, 72, 80
1, 2397, Note_on_c, 0, 72, 0
1, 2400, Note_on_c, 0, 76, 80
1, 2703, Note_on_c, 0, 76, 0
1, 2720, Note_on_c, 0, 74, 80
1, 2871, Note_on_c, 0, 74, 0
1, 2880, Note_on_c, 0, 72, 80
1, 3183, Note_on_c, 0, 72, 0
1, 3200, Note_on_c, 0, 71, 80
1, 3351, Note_on_c, 0, 71, 0
1, 3360, Note_on_c, 0, 77, 80
1, 3360, Note_on_c, 0, 81, 80
1, 3587, Note_on_c, 0, 77, 0
1, 3587, Note_on_c, 0, 81, 0
1, 3600, Note_on_c, 0, 79, 80
1, 3827, Note_on_c, 0, 79, 0
1, 3840, Note_on_c, 0, 72, 80
1, 4019, Note_on_c, 0, 72, 0
1, 4240, Note_on_c, 0, 67, 80
1, 4277, Note_on_c, 0, 67, 0
1, 4280, Note_on_c, 0, 71, 80
1, 4317, Note_on_c, 0, 71, 0
1, 4320, Note_on_c, 0, 74, 80
1, 4623, Note_on_c, 0, 74, 0
1, 4640, Note_on_c, 0, 72, 80
1, 4791, Note_on_c, 0, 72, 0
1, 4800, Note_on_c, 0, 71, 80
1, 5255, Note_on_c, 0, 71, 0
1, 5280, Note_on_c, 0, 79, 80
1, 5431, Note_on_c, 0, 79, 0
1, 5440, Note_on_c, 0, 76, 80
1, 5591, Note_on_c, 0, 76, 0
1, 5600, Note_on_c, 0, 72, 80
1, 5751, Note_on_c, 0, 72, 0
1, 5760, Note_on_c, 0, 69, 80
1, 6215, Note_on_c, 0, 69, 0
1, 6240, Note_on_c, 0, 67, 80
1, 6419, Note_on_c, 0, 67, 0
1, 6640, Note_on_c, 0, 62, 80
1, 6677, Note_on_c, 0, 62, 0
1, 6680, Note_on_c, 0, 67, 80
1, 6717, Note_on_c, 0, 67, 0
1, 6720, Note_on_c, 0, 72, 80
1, 7023, Note_on_c, 0, 72, 0
1, 7040, Note_on_c, 0, 71, 80
1, 7191, Note_on_c, 0, 71, 0
1, 7200, Note_on_c, 0, 69, 80
1, 7503, Note_on_c, 0, 69, 0
1, 7520, Note_on_c, 0, 71, 80
1, 7671, Note_on_c, 0, 71, 0
1, 7680, Note_on_c, 0, 67, 80
1, 7983, Note_on_c, 0, 67, 0
1, 8000, Note_on_c, 0, 69, 80
1, 8265, Note_on_c, 0, 69, 0
1, 8340, Note_on_c, 0, 72, 80
1, 8396, Note_on_c, 0, 72, 0
1, 8560, Note_on_c, 0, 69, 80
1, 8597, Note_on_c, 0, 69, 0
1, 8600, Note_on_c, 0, 72, 80
1, 8637, Note_on_c, 0, 72, 0
1, 8640, Note_on_c, 0, 79, 80
1, 8943, Note_on_c, 0, 79, 0
1, 8960, Note_on_c, 0, 76, 80
1, 9111, Note_on_c, 0, 76, 0
1, 9120, Note_on_c, 0, 71, 80
1, 9423, Note_on_c, 0, 71, 0
1, 9440, Note_on_c, 0, 72, 80
1, 9591, Note_on_c, 0, 72, 0
1, 9600, Note_on_c, 0, 69, 80
1, 10055, Note_on_c, 0, 69, 0
1, 10240, Note_on_c, 0, 76, 80
1, 10391, Note_on_c, 0, 76, 0
1, 10400, Note_on_c, 0, 72, 80
1, 10551, Note_on_c, 0, 72, 0
1, 10560, Note_on_c, 0, 76, 80
1, 10863, Note_on_c, 0, 76, 0
1, 10880, Note_on_c, 0, 74, 80
1, 11183, Note_on_c, 0, 74, 0
1, 11200, Note_on_c, 0, 72, 80
1, 11503, Note_on_c, 0, 72, 0
1, 11520, Note_on_c, 0, 67, 80
1, 11823, Note_on_c, 0, 67, 0
1, 11840, Note_on_c, 0, 69, 80
1, 12105, Note_on_c, 0, 69, 0
1, 12180, Note_on_c, 0, 72, 80
1, 12236, Note_on_c, 0, 72, 0
1, 12400, Note_on_c, 0, 69, 80
1, 12437, Note_on_c, 0, 69, 0
1, 12440, Note_on_c, 0, 72, 80
1, 12477, Note_on_c, 0, 72, 0
1, 12480, Note_on_c, 0, 79, 80
1, 12783, Note_on_c, 0, 79, 0
1, 12800, Note_on_c, 0, 72, 80
1, 12800, Note_on_c, 0, 76, 80
1, 12951, Note_on_c, 0, 72, 0
1, 12951, Note_on_c, 0, 76, 0
1, 12960, Note_on_c, 0, 71, 80
1, 12960, Note_on_c, 0, 74, 80
1, 13263, Note_on_c, 0, 71, 0
1, 13263, Note_on_c, 0, 74, 0
1, 13280, Note_on_c, 0, 69, 80
1, 13280, Note_on_c, 0, 72, 80
1, 13431, Note_on_c, 0, 69, 0
1, 13431, Note_on_c, 0, 72, 0
1, 13440, Note_on_c, 0, 71, 80
1, 13440, Note_on_c, 0, 74, 80
1, 13895, Note_on_c, 0, 71, 0
1, 13895, Note_on_c, 0, 74, 0
1, 14080, Note_on_c, 0, 76, 80
1, 14231, Note_on_c, 0, 76, 0
1, 14240, Note_on_c, 0, 72, 80
1, 14391, Note_on_c, 0, 72, 0
1, 14400, Note_on_c, 0, 72, 80
1, 14400, Note_on_c, 0, 76, 80
1, 14703, Note_on_c, 0, 72, 0
1, 14703, Note_on_c, 0, 76, 0
1, 14720, Note_on_c, 0, 71, 80
1, 14720, Note_on_c, 0, 74, 80
1, 14871, Note_on_c, 0, 71, 0
1, 14871, Note_on_c, 0, 74, 0
1, 14880, Note_on_c, 0, 69, 80
1, 14880, Note_on_c, 0, 72, 80
1, 15183, Note_on_c, 0, 69, 0
1, 15183, Note_on_c, 0, 72, 0
1, 15200, Note_on_c, 0, 71, 80
1, 15200, Note_on_c, 0, 74, 80
1, 15351, Note_on_c, 0, 71, 0
1, 15351, Note_on_c, 0, 74, 0
1, 15360, Note_on_c, 0, 72, 80
1, 15360, Note_on_c, 0, 76, 80
1, 15663, Note_on_c, 0, 72, 0
1, 15663, Note_on_c, 0, 76, 0
1, 15680, Note_on_c, 0, 72, 80
1, 15831, Note_on_c, 0, 72, 0
1, 15840, Note_on_c, 0, 76, 80
1, 16143, Note_on_c, 0, 76, 0
1, 16160, Note_on_c, 0, 72, 80
1, 16311, Note_on_c, 0, 72, 0
1, 16320, Note_on_c, 0, 79, 80
1, 16623, Note_on_c, 0, 79, 0
1, 16640, Note_on_c, 0, 76, 80
1, 16791, Note_on_c, 0, 76, 0
1, 16960, Note_on_c, 0, 76, 80
1, 17111, Note_on_c, 0, 76, 0
1, 17120, Note_on_c, 0, 72, 80
1, 17271, Note_on_c, 0, 72, 0
1, 17280, Note_on_c, 0, 69, 80
1, 17583, Note_on_c, 0, 69, 0
1, 17600, Note_on_c, 0, 69, 80
1, 17751, Note_on_c, 0, 69, 0
1, 17760, Note_on_c, 0, 72, 80
1, 18063, Note_on_c, 0, 72, 0
1, 18080, Note_on_c, 0, 69, 80
1, 18231, Note_on_c, 0, 69, 0
1, 18240, Note_on_c, 0, 67, 80
1, 18543, Note_on_c, 0, 67, 0
1, 18560, Note_on_c, 0, 69, 80
1, 18711, Note_on_c, 0, 69, 0
1, 18880, Note_on_c, 0, 69, 80
1, 19031, Note_on_c, 0, 69, 0
1, 19040, Note_on_c, 0, 67, 80
1, 19191, Note_on_c, 0, 67, 0
1, 19200, Note_on_c, 0, 64, 80
1, 19379, Note_on_c, 0, 64, 0
1, 19600, Note_on_c, 0, 67, 80
1, 19637, Note_on_c, 0, 67, 0
1, 19640, Note_on_c, 0, 72, 80
1, 19677, Note_on_c, 0, 72, 0
1, 19680, Note_on_c, 0, 79, 80
1, 19983, Note_on_c, 0, 79, 0
1, 20000, Note_on_c, 0, 72, 80
1, 20151, Note_on_c, 0, 72, 0
1, 20160, Note_on_c, 0, 71, 80
1, 20463, Note_on_c, 0, 71, 0
1, 20480, Note_on_c, 0, 72, 80
1, 20631, Note_on_c, 0, 72, 0
1, 20800, Note_on_c, 0, 71, 80
1, 20951, Note_on_c, 0, 71, 0
1, 20960, Note_on_c, 0, 67, 80
1, 21111, Note_on_c, 0, 67, 0
1, 21120, Note_on_c, 0, 69, 80
1, 21575, Note_on_c, 0, 69, 0
1, 21760, Note_on_c, 0, 76, 80
1, 21911, Note_on_c, 0, 76, 0
1, 21920, Note_on_c, 0, 72, 80
1, 22071, Note_on_c, 0, 72, 0
1, 22080, Note_on_c, 0, 72, 80
1, 22080, Note_on_c, 0, 76, 80
1, 22383, Note_on_c, 0, 72, 0
1, 22383, Note_on_c, 0, 76, 0
1, 22400, Note_on_c, 0, 71, 80
1, 22400, Note_on_c, 0, 74, 80
1, 22551, Note_on_c, 0, 71, 0
1, 22551, Note_on_c, 0, 74, 0
1, 22560, Note_on_c, 0, 69, 80
1, 22560, Note_on_c, 0, 72, 80
1, 22863, Note_on_c, 0, 69, 0
1, 22863, Note_on_c, 0, 72, 0
1, 22880, Note_on_c, 0, 71, 80
1, 22880, Note_on_c, 0, 74, 80
1, 23031, Note_on_c, 0, 71, 0
1, 23031, Note_on_c, 0, 74, 0
1, 23040, Note_on_c, 0, 72, 80
1, 23040, Note_on_c, 0, 76, 80
1, 23343, Note_on_c, 0, 72, 0
1, 23343, Note_on_c, 0, 76, 0
1, 23360, Note_on_c, 0, 67, 80
1, 23360, Note_on_c, 0, 72, 80
1, 23663, Note_on_c, 0, 67, 0
1, 23663, Note_on_c, 0, 72, 0
1, 23680, Note_on_c, 0, 64, 80
1, 23680, Note_on_c, 0, 69, 80
1, 23983, Note_on_c, 0, 64, 0
1, 23983, Note_on_c, 0, 69, 0
1, 24000, Note_on_c, 0, 67, 80
1, 24000, Note_on_c, 0, 64, 80
1, 24911, Note_on_c, 0, 64, 0
1, 25367, Note_on_c, 0, 67, 0
1, 25600, Note_on_c, 0, 69, 80
1, 25751, Note_on_c, 0, 69, 0
1, 25760, Note_on_c, 0, 71, 80
1, 25799, Note_on_c, 0, 71, 0
1, 25840, Note_on_c, 0, 65, 80
1, 25879, Note_on_c, 0, 65, 0
1, 25890, Note_on_c, 0, 69, 80
1, 25917, Note_on_c, 0, 69, 0
1, 25920, Note_on_c, 0, 72, 80
1, 26223, Note_on_c, 0, 72, 0
1, 26240, Note_on_c, 0, 74, 80
1, 26391, Note_on_c, 0, 74, 0
1, 26400, Note_on_c, 0, 72, 80
1, 26703, Note_on_c, 0, 72, 0
1, 26720, Note_on_c, 0, 71, 80
1, 26795, Note_on_c, 0, 71, 0
1, 26800, Note_on_c, 0, 67, 80
1, 26837, Note_on_c, 0, 67, 0
1, 26840, Note_on_c, 0, 72, 80
1, 26877, Note_on_c, 0, 72, 0
1, 26880, Note_on_c, 0, 79, 80
1, 27183, Note_on_c, 0, 79, 0
1, 27200, Note_on_c, 0, 76, 80
1, 27503, Note_on_c, 0, 76, 0
1, 27520, Note_on_c, 0, 72, 80
1, 27823, Note_on_c, 0, 72, 0
1, 27840, Note_on_c, 0, 71, 80
1, 29207, Note_on_c, 0, 71, 0
1, 29400, Note_on_c, 0, 69, 80
1, 29579, Note_on_c, 0, 69, 0
1, 29580, Note_on_c, 0, 71, 80
1, 29674, Note_on_c, 0, 71, 0
1, 29680, Note_on_c, 0, 65, 80
1, 29717, Note_on_c, 0, 65, 0
1, 29720, Note_on_c, 0, 69, 80
1, 29757, Note_on_c, 0, 69, 0
1, 29760, Note_on_c, 0, 72, 80
1, 30063, Note_on_c, 0, 72, 0
1, 30080, Note_on_c, 0, 74, 80
1, 30231, Note_on_c, 0, 74, 0
1, 30240, Note_on_c, 0, 72, 80
1, 30543, Note_on_c, 0, 72, 0
1, 30560, Note_on_c, 0, 71, 80
1, 30639, Note_on_c, 0, 71, 0
1, 30690, Note_on_c, 0, 72, 80
1, 30717, Note_on_c, 0, 72, 0
1, 30720, Note_on_c, 0, 79, 80
1, 31023, Note_on_c, 0, 79, 0
1, 31040, Note_on_c, 0, 76, 80
1, 31343, Note_on_c, 0, 76, 0
1, 31360, Note_on_c, 0, 72, 80
1, 31663, Note_on_c, 0, 72, 0
1, 31680, Note_on_c, 0, 71, 80
1, 31983, Note_on_c, 0, 71, 0
1, 32000, Note_on_c, 0, 69, 80
1, 32284, Note_on_c, 0, 69, 0
1, 32320, Note_on_c, 0, 76, 80
1, 32357, Note_on_c, 0, 76, 0
1, 32560, Note_on_c, 0, 69, 80
1, 32597, Note_on_c, 0, 69, 0
1, 32600, Note_on_c, 0, 72, 80
1, 32637, Note_on_c, 0, 72, 0
1, 32640, Note_on_c, 0, 76, 80
1, 32943, Note_on_c, 0, 76, 0
1, 32960, Note_on_c, 0, 72, 80
1, 33263, Note_on_c, 0, 72, 0
1, 33280, Note_on_c, 0, 76, 80
1, 33431, Note_on_c, 0, 76, 0
1, 33440, Note_on_c, 0, 72, 80
1, 33591, Note_on_c, 0, 72, 0
1, 33600, Note_on_c, 0, 74, 80
1, 34283, Note_on_c, 0, 74, 0
1, 34400, Note_on_c, 0, 67, 80
1, 34551, Note_on_c, 0, 67, 0
1, 34560, Note_on_c, 0, 67, 80
1, 34863, Note_on_c, 0, 67, 0
1, 34880, Note_on_c, 0, 69, 80
1, 35164, Note_on_c, 0, 69, 0
1, 35200, Note_on_c, 0, 72, 80
1, 35237, Note_on_c, 0, 72, 0
1, 35440, Note_on_c, 0, 67, 80
1, 35477, Note_on_c, 0, 67, 0
1, 35480, Note_on_c, 0, 72, 80
1, 35517, Note_on_c, 0, 72, 0
1, 35520, Note_on_c, 0, 79, 80
1, 35823, Note_on_c, 0, 79, 0
1, 35840, Note_on_c, 0, 76, 80
1, 36124, Note_on_c, 0, 76, 0
1, 36160, Note_on_c, 0, 72, 80
1, 36197, Note_on_c, 0, 72, 0
1, 36400, Note_on_c, 0, 69, 80
1, 36437, Note_on_c, 0, 69, 0
1, 36440, Note_on_c, 0, 72, 80
1, 36477, Note_on_c, 0, 72, 0
1, 36480, Note_on_c, 0, 76, 80
1, 36783, Note_on_c, 0, 76, 0
1, 36800, Note_on_c, 0, 72, 80
1, 37103, Note_on_c, 0, 72, 0
1, 37120, Note_on_c, 0, 76, 80
1, 37271, Note_on_c, 0, 76, 0
1, 37280, Note_on_c, 0, 72, 80
1, 37431, Note_on_c, 0, 72, 0
1, 37440, Note_on_c, 0, 71, 80
1, 38123, Note_on_c, 0, 71, 0
1, 38240, Note_on_c, 0, 79, 80
1, 38277, Note_on_c, 0, 79, 0
1, 38320, Note_on_c, 0, 67, 80
1, 38357, Note_on_c, 0, 67, 0
1, 38360, Note_on_c, 0, 72, 80
1, 38397, Note_on_c, 0, 72, 0
1, 38400, Note_on_c, 0, 79, 80
1, 38703, Note_on_c, 0, 79, 0
1, 38720, Note_on_c, 0, 76, 80
1, 38871, Note_on_c, 0, 76, 0
1, 38880, Note_on_c, 0, 79, 80
1, 39164, Note_on_c, 0, 79, 0
1, 39200, Note_on_c, 0, 76, 80
1, 39237, Note_on_c, 0, 76, 0
1, 39280, Note_on_c, 0, 72, 80
1, 39317, Note_on_c, 0, 72, 0
1, 39320, Note_on_c, 0, 76, 80
1, 39357, Note_on_c, 0, 76, 0
1, 39360, Note_on_c, 0, 83, 80
1, 39663, Note_on_c, 0, 83, 0
1, 39680, Note_on_c, 0, 81, 80
1, 39831, Note_on_c, 0, 81, 0
1, 40000, Note_on_c, 0, 76, 80
1, 40151, Note_on_c, 0, 76, 0
1, 40160, Note_on_c, 0, 76, 80
1, 40199, Note_on_c, 0, 76, 0
1, 40240, Note_on_c, 0, 69, 80
1, 40279, Note_on_c, 0, 69, 0
1, 40290, Note_on_c, 0, 72, 80
1, 40317, Note_on_c, 0, 72, 0
1, 40320, Note_on_c, 0, 76, 80
1, 40623, Note_on_c, 0, 76, 0
1, 40640, Note_on_c, 0, 72, 80
1, 40791, Note_on_c, 0, 72, 0
1, 40800, Note_on_c, 0, 76, 80
1, 41084, Note_on_c, 0, 76, 0
1, 41120, Note_on_c, 0, 72, 80
1, 41157, Note_on_c, 0, 72, 0
1, 41200, Note_on_c, 0, 62, 80
1, 41237, Note_on_c, 0, 62, 0
1, 41240, Note_on_c, 0, 67, 80
1, 41277, Note_on_c, 0, 67, 0
1, 41280, Note_on_c, 0, 71, 80
1, 41583, Note_on_c, 0, 71, 0
1, 41600, Note_on_c, 0, 72, 80
1, 41751, Note_on_c, 0, 72, 0
1, 41920, Note_on_c, 0, 72, 80
1, 42071, Note_on_c, 0, 72, 0
1, 42080, Note_on_c, 0, 71, 80
1, 42231, Note_on_c, 0, 71, 0
1, 42240, Note_on_c, 0, 67, 80
1, 42419, Note_on_c, 0, 67, 0
1, 42640, Note_on_c, 0, 67, 80
1, 42677, Note_on_c, 0, 67, 0
1, 42680, Note_on_c, 0, 72, 80
1, 42717, Note_on_c, 0, 72, 0
1, 42720, Note_on_c, 0, 79, 80
1, 43023, Note_on_c, 0, 79, 0
1, 43040, Note_on_c, 0, 72, 80
1, 43191, Note_on_c, 0, 72, 0
1, 43200, Note_on_c, 0, 71, 80
1, 43503, Note_on_c, 0, 71, 0
1, 43520, Note_on_c, 0, 72, 80
1, 43671, Note_on_c, 0, 72, 0
1, 43840, Note_on_c, 0, 71, 80
1, 43991, Note_on_c, 0, 71, 0
1, 44000, Note_on_c, 0, 67, 80
1, 44151, Note_on_c, 0, 67, 0
1, 44160, Note_on_c, 0, 69, 80
1, 44615, Note_on_c, 0, 69, 0
1, 44800, Note_on_c, 0, 72, 80
1, 44800, Note_on_c, 0, 76, 80
1, 44951, Note_on_c, 0, 72, 0
1, 44951, Note_on_c, 0, 76, 0
1, 44960, Note_on_c, 0, 69, 80
1, 44960, Note_on_c, 0, 72, 80
1, 45111, Note_on_c, 0, 69, 0
1, 45111, Note_on_c, 0, 72, 0
1, 45120, Note_on_c, 0, 72, 80
1, 45120, Note_on_c, 0, 76, 80
1, 45423, Note_on_c, 0, 72, 0
1, 45423, Note_on_c, 0, 76, 0
1, 45440, Note_on_c, 0, 72, 80
1, 45440, Note_on_c, 0, 79, 80
1, 45743, Note_on_c, 0, 72, 0
1, 45743, Note_on_c, 0, 79, 0
1, 45760, Note_on_c, 0, 76, 80
1, 46063, Note_on_c, 0, 76, 0
1, 46080, Note_on_c, 0, 79, 80
1, 46535, Note_on_c, 0, 79, 0
1, 46560, Note_on_c, 0, 72, 80
1, 46711, Note_on_c, 0, 72, 0
1, 46720, Note_on_c, 0, 74, 80
1, 46871, Note_on_c, 0, 74, 0
1, 46880, Note_on_c, 0, 76, 80
1, 47031, Note_on_c, 0, 76, 0
1, 47040, Note_on_c, 0, 71, 80
1, 47343, Note_on_c, 0, 71, 0
1, 47360, Note_on_c, 0, 72, 80
1, 48423, Note_on_c, 0, 72, 0
1, 48640, Note_on_c, 0, 69, 80
1, 48791, Note_on_c, 0, 69, 0
1, 48800, Note_on_c, 0, 71, 80
1, 48951, Note_on_c, 0, 71, 0
1, 48960, Note_on_c, 0, 72, 80
1, 49263, Note_on_c, 0, 72, 0
1, 49280, Note_on_c, 0, 74, 80
1, 49431, Note_on_c, 0, 74, 0
1, 49440, Note_on_c, 0, 72, 80
1, 49743, Note_on_c, 0, 72, 0
1, 49760, Note_on_c, 0, 71, 80
1, 49911, Note_on_c, 0, 71, 0
1, 49920, Note_on_c, 0, 67, 80
1, 50375, Note_on_c, 0, 67, 0
1, 50400, Note_on_c, 0, 79, 80
1, 50551, Note_on_c, 0, 79, 0
1, 50560, Note_on_c, 0, 76, 80
1, 50711, Note_on_c, 0, 76, 0
1, 50720, Note_on_c, 0, 72, 80
1, 50871, Note_on_c, 0, 72, 0
1, 50880, Note_on_c, 0, 71, 80
1, 51183, Note_on_c, 0, 71, 0
1, 51200, Note_on_c, 0, 69, 80
1, 51807, Note_on_c, 0, 69, 0
1, 52160, Note_on_c, 0, 76, 80
1, 52311, Note_on_c, 0, 76, 0
1, 52320, Note_on_c, 0, 83, 80
1, 52623, Note_on_c, 0, 83, 0
1, 52640, Note_on_c, 0, 81, 80
1, 52791, Note_on_c, 0, 81, 0
1, 52800, Note_on_c, 0, 79, 80
1, 53103, Note_on_c, 0, 79, 0
1, 53120, Note_on_c, 0, 77, 80
1, 53271, Note_on_c, 0, 77, 0
1, 53280, Note_on_c, 0, 74, 80
1, 53583, Note_on_c, 0, 74, 0
1, 53600, Note_on_c, 0, 71, 80
1, 53751, Note_on_c, 0, 71, 0
1, 53760, Note_on_c, 0, 72, 80
1, 53760, Note_on_c, 0, 76, 80
1, 54215, Note_on_c, 0, 72, 0
1, 54215, Note_on_c, 0, 76, 0
1, 54240, Note_on_c, 0, 69, 80
1, 54391, Note_on_c, 0, 69, 0
1, 54400, Note_on_c, 0, 71, 80
1, 54551, Note_on_c, 0, 71, 0
1, 54560, Note_on_c, 0, 72, 80
1, 54711, Note_on_c, 0, 72, 0
1, 54720, Note_on_c, 0, 76, 80
1, 54720, Note_on_c, 0, 79, 80
1, 55023, Note_on_c, 0, 76, 0
1, 55023, Note_on_c, 0, 79, 0
1, 55040, Note_on_c, 0, 81, 80
1, 55343, Note_on_c, 0, 81, 0
1, 55360, Note_on_c, 0, 72, 80
1, 55360, Note_on_c, 0, 76, 80
1, 55663, Note_on_c, 0, 72, 0
1, 55663, Note_on_c, 0, 76, 0
1, 55680, Note_on_c, 0, 74, 80
1, 55680, Note_on_c, 0, 77, 80
1, 56591, Note_on_c, 0, 74, 0
1, 56591, Note_on_c, 0, 77, 0
1, 56640, Note_on_c, 0, 72, 80
1, 56640, Note_on_c, 0, 76, 80
1, 56943, Note_on_c, 0, 72, 0
1, 56943, Note_on_c, 0, 76, 0
1, 56960, Note_on_c, 0, 71, 80
1, 56960, Note_on_c, 0, 74, 80
1, 57263, Note_on_c, 0, 71, 0
1, 57263, Note_on_c, 0, 74, 0
1, 57280, Note_on_c, 0, 67, 80
1, 57280, Note_on_c, 0, 71, 80
1, 57583, Note_on_c, 0, 67, 0
1, 57583, Note_on_c, 0, 71, 0
1, 57600, Note_on_c, 0, 67, 80
1, 57600, Note_on_c, 0, 72, 80
1, 58055, Note_on_c, 0, 67, 0
1, 58055, Note_on_c, 0, 72, 0
1, 58080, Note_on_c, 0, 71, 80
1, 58080, Note_on_c, 0, 74, 80
1, 58535, Note_on_c, 0, 71, 0
1, 58535, Note_on_c, 0, 74, 0
1, 58560, Note_on_c, 0, 72, 80
1, 58560, Note_on_c, 0, 76, 80
1, 59015, Note_on_c, 0, 72, 0
1, 59015, Note_on_c, 0, 76, 0
1, 59040, Note_on_c, 0, 74, 80
1, 59040, Note_on_c, 0, 77, 80
1, 59495, Note_on_c, 0, 74, 0
1, 59495, Note_on_c, 0, 77, 0
1, 59520, Note_on_c, 0, 76, 80
1, 59520, Note_on_c, 0, 79, 80
1, 59975, Note_on_c, 0, 76, 0
1, 59975, Note_on_c, 0, 79, 0
1, 60000, Note_on_c, 0, 74, 80
1, 60000, Note_on_c, 0, 77, 80
1, 60455, Note_on_c, 0, 74, 0
1, 60455, Note_on_c, 0, 77, 0
1, 60480, Note_on_c, 0, 72, 80
1, 60480, Note_on_c, 0, 76, 80
1, 60783, Note_on_c, 0, 72, 0
1, 60783, Note_on_c, 0, 76, 0
1, 60800, Note_on_c, 0, 74, 80
1, 60800, Note_on_c, 0, 77, 80
1, 60951, Note_on_c, 0, 74, 0
1, 60951, Note_on_c, 0, 77, 0
1, 60960, Note_on_c, 0, 71, 80
1, 60960, Note_on_c, 0, 74, 80
1, 61263, Note_on_c, 0, 71, 0
1, 61263, Note_on_c, 0, 74, 0
1, 61280, Note_on_c, 0, 72, 80
1, 61280, Note_on_c, 0, 76, 80
1, 61431, Note_on_c, 0, 72, 0
1, 61431, Note_on_c, 0, 76, 0
1, 61440, Note_on_c, 0, 64, 80
1, 61440, Note_on_c, 0, 67, 80
1, 61743, Note_on_c, 0, 64, 0
1, 61743, Note_on_c, 0, 67, 0
1, 61760, Note_on_c, 0, 69, 80
1, 62063, Note_on_c, 0, 69, 0
1, 62080, Note_on_c, 0, 72, 80
1, 62383, Note_on_c, 0, 72, 0
1, 62400, Note_on_c, 0, 79, 80
1, 63767, Note_on_c, 0, 79, 0
1, 63840, Note_on_c, 0, 74, 80
1, 63840, Note_on_c, 0, 77, 80
1, 63991, Note_on_c, 0, 74, 0
1, 63991, Note_on_c, 0, 77, 0
1, 64000, Note_on_c, 0, 79, 80
1, 64151, Note_on_c, 0, 79, 0
1, 64160, Note_on_c, 0, 72, 80
1, 64160, Note_on_c, 0, 76, 80
1, 64311, Note_on_c, 0, 72, 0
1, 64311, Note_on_c, 0, 76, 0
1, 64320, Note_on_c, 0, 71, 80
1, 64320, Note_on_c, 0, 74, 80
1, 64471, Note_on_c, 0, 71, 0
1, 64471, Note_on_c, 0, 74, 0
1, 64480, Note_on_c, 0, 76, 80
1, 64631, Note_on_c, 0, 76, 0
1, 64640, Note_on_c, 0, 69, 80
1, 64640, Note_on_c, 0, 72, 80
1, 64791, Note_on_c, 0, 69, 0
1, 64791, Note_on_c, 0, 72, 0
1, 64800, Note_on_c, 0, 67, 80
1, 64800, Note_on_c, 0, 71, 80
1, 64951, Note_on_c, 0, 67, 0
1, 64951, Note_on_c, 0, 71, 0
1, 64960, Note_on_c, 0, 72, 80
1, 65111, Note_on_c, 0, 72, 0
1, 65120, Note_on_c, 0, 69, 80
1, 65271, Note_on_c, 0, 69, 0
1, 65280, Note_on_c, 0, 67, 80
1, 65583, Note_on_c, 0, 67, 0
1, 65600, Note_on_c, 0, 69, 80
1, 65903, Note_on_c, 0, 69, 0
1, 65920, Note_on_c, 0, 72, 80
1, 66223, Note_on_c, 0, 72, 0
1, 66240, Note_on_c, 0, 79, 80
1, 67607, Note_on_c, 0, 79, 0
1, 67840, Note_on_c, 0, 69, 80
1, 67991, Note_on_c, 0, 69, 0
1, 68000, Note_on_c, 0, 71, 80
1, 68151, Note_on_c, 0, 71, 0
1, 68160, Note_on_c, 0, 72, 80
1, 68463, Note_on_c, 0, 72, 0
1, 68480, Note_on_c, 0, 74, 80
1, 68631, Note_on_c, 0, 74, 0
1, 68640, Note_on_c, 0, 72, 80
1, 68943, Note_on_c, 0, 72, 0
1, 68960, Note_on_c, 0, 71, 80
1, 69111, Note_on_c, 0, 71, 0
1, 69120, Note_on_c, 0, 67, 80
1, 69423, Note_on_c, 0, 67, 0
1, 69440, Note_on_c, 0, 69, 80
1, 69743, Note_on_c, 0, 69, 0
1, 69760, Note_on_c, 0, 72, 80
1, 70063, Note_on_c, 0, 72, 0
1, 70080, Note_on_c, 0, 79, 80
1, 70383, Note_on_c, 0, 79, 0
1, 70400, Note_on_c, 0, 76, 80
1, 70551, Note_on_c, 0, 76, 0
1, 70560, Note_on_c, 0, 71, 80
1, 70863, Note_on_c, 0, 71, 0
1, 70880, Note_on_c, 0, 72, 80
1, 71031, Note_on_c, 0, 72, 0
1, 71040, Note_on_c, 0, 69, 80
1, 71495, Note_on_c, 0, 69, 0
1, 71680, Note_on_c, 0, 69, 80
1, 71831, Note_on_c, 0, 69, 0
1, 71840, Note_on_c, 0, 71, 80
1, 71991, Note_on_c, 0, 71, 0
1, 72000, Note_on_c, 0, 72, 80
1, 72303, Note_on_c, 0, 72, 0
1, 72320, Note_on_c, 0, 74, 80
1, 72471, Note_on_c, 0, 74, 0
1, 72480, Note_on_c, 0, 72, 80
1, 72783, Note_on_c, 0, 72, 0
1, 72800, Note_on_c, 0, 71, 80
1, 72951, Note_on_c, 0, 71, 0
1, 72960, Note_on_c, 0, 67, 80
1, 72960, Note_on_c, 0, 72, 80
1, 73263, Note_on_c, 0, 67, 0
1, 73263, Note_on_c, 0, 72, 0
1, 73280, Note_on_c, 0, 74, 80
1, 73583, Note_on_c, 0, 74, 0
1, 73600, Note_on_c, 0, 76, 80
1, 73903, Note_on_c, 0, 76, 0
1, 73920, Note_on_c, 0, 79, 80
1, 74831, Note_on_c, 0, 79, 0
1, 74880, Note_on_c, 0, 77, 80
1, 75791, Note_on_c, 0, 77, 0
1, 75840, Note_on_c, 0, 74, 80
1, 76295, Note_on_c, 0, 74, 0
1, 76800, Note_on_c, 0, 72, 80
1, 78167, Note_on_c, 0, 72, 0
1, 78168, End_track
2, 0, Start_track
2, 0, Title_t, "Classical Guitar, Lute\000"
2, 0, Key_signature, 0, "major"
2, 0, Control_c, 1, 121, 0
2, 0, Program_c, 1, 24
2, 0, Control_c, 1, 7, 100
2, 0, Control_c, 1, 10, 64
2, 0, Control_c, 1, 91, 0
2, 0, Control_c, 1, 93, 0
2, 0, MIDI_port, 0
2, 0, Note_on_c, 1, 60, 80
2, 0, Control_c, 3, 121, 0
2, 0, Program_c, 3, 28
2, 0, Control_c, 3, 7, 100
2, 0, Control_c, 3, 10, 64
2, 0, Control_c, 3, 91, 0
2, 0, Control_c, 3, 93, 0
2, 0, MIDI_port, 0
2, 319, Note_on_c, 1, 60, 0
2, 320, Note_on_c, 1, 64, 80
2, 479, Note_on_c, 1, 64, 0
2, 480, Note_on_c, 1, 67, 80
2, 480, Note_on_c, 1, 71, 80
2, 959, Note_on_c, 1, 67, 0
2, 959, Note_on_c, 1, 71, 0
2, 960, Note_on_c, 1, 57, 80
2, 1279, Note_on_c, 1, 57, 0
2, 1280, Note_on_c, 1, 60, 80
2, 1439, Note_on_c, 1, 60, 0
2, 1440, Note_on_c, 1, 64, 80
2, 1440, Note_on_c, 1, 67, 80
2, 1919, Note_on_c, 1, 64, 0
2, 1919, Note_on_c, 1, 67, 0
2, 1920, Note_on_c, 1, 62, 80
2, 2239, Note_on_c, 1, 62, 0
2, 2240, Note_on_c, 1, 65, 80
2, 2399, Note_on_c, 1, 65, 0
2, 2400, Note_on_c, 1, 69, 80
2, 2400, Note_on_c, 1, 72, 80
2, 2879, Note_on_c, 1, 69, 0
2, 2879, Note_on_c, 1, 72, 0
2, 2880, Note_on_c, 1, 55, 80
2, 3199, Note_on_c, 1, 55, 0
2, 3200, Note_on_c, 1, 59, 80
2, 3359, Note_on_c, 1, 59, 0
2, 3360, Note_on_c, 1, 62, 80
2, 3360, Note_on_c, 1, 65, 80
2, 3839, Note_on_c, 1, 62, 0
2, 3839, Note_on_c, 1, 65, 0
2, 3840, Note_on_c, 1, 60, 80
2, 4159, Note_on_c, 1, 60, 0
2, 4160, Note_on_c, 1, 64, 80
2, 4319, Note_on_c, 1, 64, 0
2, 4320, Note_on_c, 1, 67, 80
2, 4320, Note_on_c, 1, 71, 80
2, 4799, Note_on_c, 1, 67, 0
2, 4799, Note_on_c, 1, 71, 0
2, 4800, Note_on_c, 1, 57, 80
2, 5119, Note_on_c, 1, 57, 0
2, 5120, Note_on_c, 1, 60, 80
2, 5279, Note_on_c, 1, 60, 0
2, 5280, Note_on_c, 1, 64, 80
2, 5280, Note_on_c, 1, 67, 80
2, 5759, Note_on_c, 1, 64, 0
2, 5759, Note_on_c, 1, 67, 0
2, 5760, Note_on_c, 1, 62, 80
2, 6079, Note_on_c, 1, 62, 0
2, 6080, Note_on_c, 1, 65, 80
2, 6239, Note_on_c, 1, 65, 0
2, 6240, Note_on_c, 1, 69, 80
2, 6240, Note_on_c, 1, 72, 80
2, 6719, Note_on_c, 1, 69, 0
2, 6719, Note_on_c, 1, 72, 0
2, 6720, Note_on_c, 1, 55, 80
2, 7039, Note_on_c, 1, 55, 0
2, 7040, Note_on_c, 1, 59, 80
2, 7199, Note_on_c, 1, 59, 0
2, 7200, Note_on_c, 1, 62, 80
2, 7200, Note_on_c, 1, 65, 80
2, 7679, Note_on_c, 1, 62, 0
2, 7679, Note_on_c, 1, 65, 0
2, 7680, Note_on_c, 1, 60, 80
2, 7999, Note_on_c, 1, 60, 0
2, 8000, Note_on_c, 1, 64, 80
2, 8000, Note_on_c, 1, 67, 80
2, 8159, Note_on_c, 1, 64, 0
2, 8159, Note_on_c, 1, 67, 0
2, 8160, Note_on_c, 1, 64, 80
2, 8160, Note_on_c, 1, 67, 80
2, 8639, Note_on_c, 1, 64, 0
2, 8639, Note_on_c, 1, 67, 0
2, 8640, Note_on_c, 1, 57, 80
2, 8959, Note_on_c, 1, 57, 0
2, 8960, Note_on_c, 1, 60, 80
2, 8960, Note_on_c, 1, 64, 80
2, 9119, Note_on_c, 1, 60, 0
2, 9119, Note_on_c, 1, 64, 0
2, 9120, Note_on_c, 1, 60, 80
2, 9120, Note_on_c, 1, 64, 80
2, 9599, Note_on_c, 1, 60, 0
2, 9599, Note_on_c, 1, 64, 0
2, 9600, Note_on_c, 1, 53, 80
2, 9919, Note_on_c, 1, 53, 0
2, 9920, Note_on_c, 1, 57, 80
2, 9920, Note_on_c, 1, 60, 80
2, 10079, Note_on_c, 1, 57, 0
2, 10079, Note_on_c, 1, 60, 0
2, 10080, Note_on_c, 1, 57, 80
2, 10080, Note_on_c, 1, 60, 80
2, 10559, Note_on_c, 1, 57, 0
2, 10559, Note_on_c, 1, 60, 0
2, 10560, Note_on_c, 1, 55, 80
2, 10879, Note_on_c, 1, 55, 0
2, 10880, Note_on_c, 1, 59, 80
2, 10880, Note_on_c, 1, 62, 80
2, 11039, Note_on_c, 1, 59, 0
2, 11039, Note_on_c, 1, 62, 0
2, 11040, Note_on_c, 1, 59, 80
2, 11040, Note_on_c, 1, 62, 80
2, 11519, Note_on_c, 1, 59, 0
2, 11519, Note_on_c, 1, 62, 0
2, 11520, Note_on_c, 1, 60, 80
2, 11839, Note_on_c, 1, 60, 0
2, 11840, Note_on_c, 1, 64, 80
2, 11840, Note_on_c, 1, 67, 80
2, 11999, Note_on_c, 1, 64, 0
2, 11999, Note_on_c, 1, 67, 0
2, 12000, Note_on_c, 1, 64, 80
2, 12000, Note_on_c, 1, 67, 80
2, 12479, Note_on_c, 1, 64, 0
2, 12479, Note_on_c, 1, 67, 0
2, 12480, Note_on_c, 1, 57, 80
2, 12799, Note_on_c, 1, 57, 0
2, 12800, Note_on_c, 1, 60, 80
2, 12800, Note_on_c, 1, 64, 80
2, 12959, Note_on_c, 1, 60, 0
2, 12959, Note_on_c, 1, 64, 0
2, 12960, Note_on_c, 1, 60, 80
2, 12960, Note_on_c, 1, 64, 80
2, 13439, Note_on_c, 1, 60, 0
2, 13439, Note_on_c, 1, 64, 0
2, 13440, Note_on_c, 1, 50, 80
2, 13759, Note_on_c, 1, 50, 0
2, 13760, Note_on_c, 1, 57, 80
2, 13760, Note_on_c, 1, 60, 80
2, 13919, Note_on_c, 1, 57, 0
2, 13919, Note_on_c, 1, 60, 0
2, 13920, Note_on_c, 1, 57, 80
2, 13920, Note_on_c, 1, 60, 80
2, 14399, Note_on_c, 1, 57, 0
2, 14399, Note_on_c, 1, 60, 0
2, 14400, Note_on_c, 1, 55, 80
2, 14719, Note_on_c, 1, 55, 0
2, 14720, Note_on_c, 1, 59, 80
2, 14720, Note_on_c, 1, 62, 80
2, 14879, Note_on_c, 1, 59, 0
2, 14879, Note_on_c, 1, 62, 0
2, 14880, Note_on_c, 1, 59, 80
2, 14880, Note_on_c, 1, 62, 80
2, 15359, Note_on_c, 1, 59, 0
2, 15359, Note_on_c, 1, 62, 0
2, 15360, Note_on_c, 1, 60, 80
2, 15679, Note_on_c, 1, 60, 0
2, 15680, Note_on_c, 1, 64, 80
2, 15680, Note_on_c, 1, 67, 80
2, 15839, Note_on_c, 1, 64, 0
2, 15839, Note_on_c, 1, 67, 0
2, 15840, Note_on_c, 1, 64, 80
2, 15840, Note_on_c, 1, 67, 80
2, 16319, Note_on_c, 1, 64, 0
2, 16319, Note_on_c, 1, 67, 0
2, 16320, Note_on_c, 1, 57, 80
2, 16639, Note_on_c, 1, 57, 0
2, 16640, Note_on_c, 1, 60, 80
2, 16640, Note_on_c, 1, 64, 80
2, 16799, Note_on_c, 1, 60, 0
2, 16799, Note_on_c, 1, 64, 0
2, 16800, Note_on_c, 1, 60, 80
2, 16800, Note_on_c, 1, 64, 80
2, 17279, Note_on_c, 1, 60, 0
2, 17279, Note_on_c, 1, 64, 0
2, 17280, Note_on_c, 1, 53, 80
2, 17599, Note_on_c, 1, 53, 0
2, 17600, Note_on_c, 1, 57, 80
2, 17600, Note_on_c, 1, 60, 80
2, 17759, Note_on_c, 1, 57, 0
2, 17759, Note_on_c, 1, 60, 0
2, 17760, Note_on_c, 1, 57, 80
2, 17760, Note_on_c, 1, 60, 80
2, 18239, Note_on_c, 1, 57, 0
2, 18239, Note_on_c, 1, 60, 0
2, 18240, Note_on_c, 1, 55, 80
2, 18559, Note_on_c, 1, 55, 0
2, 18560, Note_on_c, 1, 59, 80
2, 18560, Note_on_c, 1, 62, 80
2, 18719, Note_on_c, 1, 59, 0
2, 18719, Note_on_c, 1, 62, 0
2, 18720, Note_on_c, 1, 59, 80
2, 18720, Note_on_c, 1, 62, 80
2, 19199, Note_on_c, 1, 59, 0
2, 19199, Note_on_c, 1, 62, 0
2, 19200, Note_on_c, 1, 60, 80
2, 19519, Note_on_c, 1, 60, 0
2, 19520, Note_on_c, 1, 64, 80
2, 19520, Note_on_c, 1, 67, 80
2, 19679, Note_on_c, 1, 64, 0
2, 19679, Note_on_c, 1, 67, 0
2, 19680, Note_on_c, 1, 64, 80
2, 19680, Note_on_c, 1, 67, 80
2, 20159, Note_on_c, 1, 64, 0
2, 20159, Note_on_c, 1, 67, 0
2, 20160, Note_on_c, 1, 57, 80
2, 20479, Note_on_c, 1, 57, 0
2, 20480, Note_on_c, 1, 60, 80
2, 20480, Note_on_c, 1, 64, 80
2, 20639, Note_on_c, 1, 60, 0
2, 20639, Note_on_c, 1, 64, 0
2, 20640, Note_on_c, 1, 60, 80
2, 20640, Note_on_c, 1, 64, 80
2, 21119, Note_on_c, 1, 60, 0
2, 21119, Note_on_c, 1, 64, 0
2, 21120, Note_on_c, 1, 50, 80
2, 21439, Note_on_c, 1, 50, 0
2, 21440, Note_on_c, 1, 57, 80
2, 21440, Note_on_c, 1, 62, 80
2, 21599, Note_on_c, 1, 57, 0
2, 21599, Note_on_c, 1, 62, 0
2, 21600, Note_on_c, 1, 57, 80
2, 21600, Note_on_c, 1, 62, 80
2, 22079, Note_on_c, 1, 57, 0
2, 22079, Note_on_c, 1, 62, 0
2, 22080, Note_on_c, 1, 55, 80
2, 22399, Note_on_c, 1, 55, 0
2, 22400, Note_on_c, 1, 59, 80
2, 22400, Note_on_c, 1, 62, 80
2, 22559, Note_on_c, 1, 59, 0
2, 22559, Note_on_c, 1, 62, 0
2, 22560, Note_on_c, 1, 59, 80
2, 22560, Note_on_c, 1, 62, 80
2, 23039, Note_on_c, 1, 59, 0
2, 23039, Note_on_c, 1, 62, 0
2, 23040, Note_on_c, 1, 60, 80
2, 23359, Note_on_c, 1, 60, 0
2, 23360, Note_on_c, 1, 64, 80
2, 23360, Note_on_c, 1, 67, 80
2, 23519, Note_on_c, 1, 64, 0
2, 23519, Note_on_c, 1, 67, 0
2, 23520, Note_on_c, 1, 64, 80
2, 23520, Note_on_c, 1, 67, 80
2, 23999, Note_on_c, 1, 64, 0
2, 23999, Note_on_c, 1, 67, 0
2, 24000, Note_on_c, 1, 57, 80
2, 24319, Note_on_c, 1, 57, 0
2, 24320, Note_on_c, 1, 60, 80
2, 24320, Note_on_c, 1, 64, 80
2, 24479, Note_on_c, 1, 60, 0
2, 24479, Note_on_c, 1, 64, 0
2, 24480, Note_on_c, 1, 60, 80
2, 24480, Note_on_c, 1, 64, 80
2, 24959, Note_on_c, 1, 60, 0
2, 24959, Note_on_c, 1, 64, 0
2, 24960, Note_on_c, 1, 53, 80
2, 25279, Note_on_c, 1, 53, 0
2, 25280, Note_on_c, 1, 57, 80
2, 25280, Note_on_c, 1, 60, 80
2, 25439, Note_on_c, 1, 57, 0
2, 25439, Note_on_c, 1, 60, 0
2, 25440, Note_on_c, 1, 57, 80
2, 25440, Note_on_c, 1, 60, 80
2, 25919, Note_on_c, 1, 57, 0
2, 25919, Note_on_c, 1, 60, 0
2, 25920, Note_on_c, 1, 55, 80
2, 26239, Note_on_c, 1, 55, 0
2, 26240, Note_on_c, 1, 59, 80
2, 26240, Note_on_c, 1, 62, 80
2, 26399, Note_on_c, 1, 59, 0
2, 26399, Note_on_c, 1, 62, 0
2, 26400, Note_on_c, 1, 59, 80
2, 26400, Note_on_c, 1, 62, 80
2, 26879, Note_on_c, 1, 59, 0
2, 26879, Note_on_c, 1, 62, 0
2, 26880, Note_on_c, 1, 60, 80
2, 27199, Note_on_c, 1, 60, 0
2, 27200, Note_on_c, 1, 64, 80
2, 27200, Note_on_c, 1, 67, 80
2, 27359, Note_on_c, 1, 64, 0
2, 27359, Note_on_c, 1, 67, 0
2, 27360, Note_on_c, 1, 64, 80
2, 27360, Note_on_c, 1, 67, 80
2, 27839, Note_on_c, 1, 64, 0
2, 27839, Note_on_c, 1, 67, 0
2, 27840, Note_on_c, 1, 57, 80
2, 28159, Note_on_c, 1, 57, 0
2, 28160, Note_on_c, 1, 60, 80
2, 28160, Note_on_c, 1, 64, 80
2, 28319, Note_on_c, 1, 60, 0
2, 28319, Note_on_c, 1, 64, 0
2, 28320, Note_on_c, 1, 60, 80
2, 28320, Note_on_c, 1, 64, 80
2, 28799, Note_on_c, 1, 60, 0
2, 28799, Note_on_c, 1, 64, 0
2, 28800, Note_on_c, 1, 50, 80
2, 29119, Note_on_c, 1, 50, 0
2, 29120, Note_on_c, 1, 57, 80
2, 29120, Note_on_c, 1, 60, 80
2, 29279, Note_on_c, 1, 57, 0
2, 29279, Note_on_c, 1, 60, 0
2, 29280, Note_on_c, 1, 57, 80
2, 29280, Note_on_c, 1, 60, 80
2, 29759, Note_on_c, 1, 57, 0
2, 29759, Note_on_c, 1, 60, 0
2, 29760, Note_on_c, 1, 55, 80
2, 30079, Note_on_c, 1, 55, 0
2, 30080, Note_on_c, 1, 59, 80
2, 30080, Note_on_c, 1, 62, 80
2, 30239, Note_on_c, 1, 59, 0
2, 30239, Note_on_c, 1, 62, 0
2, 30240, Note_on_c, 1, 59, 80
2, 30240, Note_on_c, 1, 62, 80
2, 30719, Note_on_c, 1, 59, 0
2, 30719, Note_on_c, 1, 62, 0
2, 30720, Note_on_c, 1, 60, 80
2, 31039, Note_on_c, 1, 60, 0
2, 31040, Note_on_c, 1, 64, 80
2, 31040, Note_on_c, 1, 67, 80
2, 31199, Note_on_c, 1, 64, 0
2, 31199, Note_on_c, 1, 67, 0
2, 31200, Note_on_c, 1, 64, 80
2, 31200, Note_on_c, 1, 67, 80
2, 31679, Note_on_c, 1, 64, 0
2, 31679, Note_on_c, 1, 67, 0
2, 31680, Note_on_c, 1, 59, 80
2, 31680, Note_on_c, 1, 64, 80
2, 32639, Note_on_c, 1, 59, 0
2, 32639, Note_on_c, 1, 64, 0
2, 32640, Note_on_c, 1, 57, 80
2, 32959, Note_on_c, 1, 57, 0
2, 32960, Note_on_c, 1, 60, 80
2, 32960, Note_on_c, 1, 64, 80
2, 33119, Note_on_c, 1, 60, 0
2, 33119, Note_on_c, 1, 64, 0
2, 33120, Note_on_c, 1, 60, 80
2, 33120, Note_on_c, 1, 64, 80
2, 33599, Note_on_c, 1, 60, 0
2, 33599, Note_on_c, 1, 64, 0
2, 33600, Note_on_c, 1, 55, 80
2, 33919, Note_on_c, 1, 55, 0
2, 33920, Note_on_c, 1, 59, 80
2, 33920, Note_on_c, 1, 64, 80
2, 34079, Note_on_c, 1, 59, 0
2, 34079, Note_on_c, 1, 64, 0
2, 34080, Note_on_c, 1, 59, 80
2, 34080, Note_on_c, 1, 64, 80
2, 34559, Note_on_c, 1, 59, 0
2, 34559, Note_on_c, 1, 64, 0
2, 34560, Note_on_c, 1, 53, 80
2, 34879, Note_on_c, 1, 53, 0
2, 34880, Note_on_c, 1, 57, 80
2, 34880, Note_on_c, 1, 60, 80
2, 35039, Note_on_c, 1, 57, 0
2, 35039, Note_on_c, 1, 60, 0
2, 35040, Note_on_c, 1, 57, 80
2, 35040, Note_on_c, 1, 60, 80
2, 35519, Note_on_c, 1, 57, 0
2, 35519, Note_on_c, 1, 60, 0
2, 35520, Note_on_c, 1, 52, 80
2, 35520, Note_on_c, 1, 55, 80
2, 35520, Note_on_c, 1, 60, 80
2, 36479, Note_on_c, 1, 52, 0
2, 36479, Note_on_c, 1, 55, 0
2, 36479, Note_on_c, 1, 60, 0
2, 36480, Note_on_c, 1, 50, 80
2, 36799, Note_on_c, 1, 50, 0
2, 36800, Note_on_c, 1, 53, 80
2, 36959, Note_on_c, 1, 53, 0
2, 36960, Note_on_c, 1, 57, 80
2, 36960, Note_on_c, 1, 60, 80
2, 37119, Note_on_c, 1, 57, 0
2, 37119, Note_on_c, 1, 60, 0
2, 37120, Note_on_c, 1, 53, 80
2, 37279, Note_on_c, 1, 53, 0
2, 37280, Note_on_c, 1, 50, 80
2, 37439, Note_on_c, 1, 50, 0
2, 37440, Note_on_c, 1, 55, 80
2, 37759, Note_on_c, 1, 55, 0
2, 37760, Note_on_c, 1, 59, 80
2, 37760, Note_on_c, 1, 62, 80
2, 37919, Note_on_c, 1, 59, 0
2, 37919, Note_on_c, 1, 62, 0
2, 37920, Note_on_c, 1, 59, 80
2, 37920, Note_on_c, 1, 62, 80
2, 38399, Note_on_c, 1, 59, 0
2, 38399, Note_on_c, 1, 62, 0
2, 38400, Note_on_c, 1, 60, 80
2, 38719, Note_on_c, 1, 60, 0
2, 38720, Note_on_c, 1, 64, 80
2, 38720, Note_on_c, 1, 67, 80
2, 38879, Note_on_c, 1, 64, 0
2, 38879, Note_on_c, 1, 67, 0
2, 38880, Note_on_c, 1, 64, 80
2, 38880, Note_on_c, 1, 67, 80
2, 39359, Note_on_c, 1, 64, 0
2, 39359, Note_on_c, 1, 67, 0
2, 39360, Note_on_c, 1, 57, 80
2, 39679, Note_on_c, 1, 57, 0
2, 39680, Note_on_c, 1, 60, 80
2, 39680, Note_on_c, 1, 64, 80
2, 39839, Note_on_c, 1, 60, 0
2, 39839, Note_on_c, 1, 64, 0
2, 39840, Note_on_c, 1, 60, 80
2, 39840, Note_on_c, 1, 64, 80
2, 40319, Note_on_c, 1, 60, 0
2, 40319, Note_on_c, 1, 64, 0
2, 40320, Note_on_c, 1, 53, 80
2, 40639, Note_on_c, 1, 53, 0
2, 40640, Note_on_c, 1, 57, 80
2, 40640, Note_on_c, 1, 60, 80
2, 40799, Note_on_c, 1, 57, 0
2, 40799, Note_on_c, 1, 60, 0
2, 40800, Note_on_c, 1, 57, 80
2, 40800, Note_on_c, 1, 60, 80
2, 41279, Note_on_c, 1, 57, 0
2, 41279, Note_on_c, 1, 60, 0
2, 41280, Note_on_c, 1, 55, 80
2, 41599, Note_on_c, 1, 55, 0
2, 41600, Note_on_c, 1, 59, 80
2, 41600, Note_on_c, 1, 62, 80
2, 41759, Note_on_c, 1, 59, 0
2, 41759, Note_on_c, 1, 62, 0
2, 41760, Note_on_c, 1, 59, 80
2, 41760, Note_on_c, 1, 62, 80
2, 42239, Note_on_c, 1, 59, 0
2, 42239, Note_on_c, 1, 62, 0
2, 42240, Note_on_c, 1, 60, 80
2, 42559, Note_on_c, 1, 60, 0
2, 42560, Note_on_c, 1, 64, 80
2, 42560, Note_on_c, 1, 67, 80
2, 42719, Note_on_c, 1, 64, 0
2, 42719, Note_on_c, 1, 67, 0
2, 42720, Note_on_c, 1, 64, 80
2, 42720, Note_on_c, 1, 67, 80
2, 43199, Note_on_c, 1, 64, 0
2, 43199, Note_on_c, 1, 67, 0
2, 43200, Note_on_c, 1, 57, 80
2, 43519, Note_on_c, 1, 57, 0
2, 43520, Note_on_c, 1, 60, 80
2, 43520, Note_on_c, 1, 64, 80
2, 43679, Note_on_c, 1, 60, 0
2, 43679, Note_on_c, 1, 64, 0
2, 43680, Note_on_c, 1, 60, 80
2, 43680, Note_on_c, 1, 64, 80
2, 44159, Note_on_c, 1, 60, 0
2, 44159, Note_on_c, 1, 64, 0
2, 44160, Note_on_c, 1, 50, 80
2, 44479, Note_on_c, 1, 50, 0
2, 44480, Note_on_c, 1, 57, 80
2, 44480, Note_on_c, 1, 60, 80
2, 44639, Note_on_c, 1, 57, 0
2, 44639, Note_on_c, 1, 60, 0
2, 44640, Note_on_c, 1, 57, 80
2, 44640, Note_on_c, 1, 60, 80
2, 45119, Note_on_c, 1, 57, 0
2, 45119, Note_on_c, 1, 60, 0
2, 45120, Note_on_c, 1, 55, 80
2, 45439, Note_on_c, 1, 55, 0
2, 45440, Note_on_c, 1, 59, 80
2, 45440, Note_on_c, 1, 62, 80
2, 45599, Note_on_c, 1, 59, 0
2, 45599, Note_on_c, 1, 62, 0
2, 45600, Note_on_c, 1, 59, 80
2, 45600, Note_on_c, 1, 62, 80
2, 46079, Note_on_c, 1, 59, 0
2, 46079, Note_on_c, 1, 62, 0
2, 46080, Note_on_c, 1, 60, 80
2, 46399, Note_on_c, 1, 60, 0
2, 46400, Note_on_c, 1, 64, 80
2, 46400, Note_on_c, 1, 67, 80
2, 46559, Note_on_c, 1, 64, 0
2, 46559, Note_on_c, 1, 67, 0
2, 46560, Note_on_c, 1, 64, 80
2, 46560, Note_on_c, 1, 67, 80
2, 47039, Note_on_c, 1, 64, 0
2, 47039, Note_on_c, 1, 67, 0
2, 47040, Note_on_c, 1, 57, 80
2, 47359, Note_on_c, 1, 57, 0
2, 47360, Note_on_c, 1, 60, 80
2, 47360, Note_on_c, 1, 64, 80
2, 47519, Note_on_c, 1, 60, 0
2, 47519, Note_on_c, 1, 64, 0
2, 47520, Note_on_c, 1, 60, 80
2, 47520, Note_on_c, 1, 64, 80
2, 47999, Note_on_c, 1, 60, 0
2, 47999, Note_on_c, 1, 64, 0
2, 48000, Note_on_c, 1, 53, 80
2, 48319, Note_on_c, 1, 53, 0
2, 48320, Note_on_c, 1, 57, 80
2, 48320, Note_on_c, 1, 60, 80
2, 48479, Note_on_c, 1, 57, 0
2, 48479, Note_on_c, 1, 60, 0
2, 48480, Note_on_c, 1, 57, 80
2, 48480, Note_on_c, 1, 60, 80
2, 48959, Note_on_c, 1, 57, 0
2, 48959, Note_on_c, 1, 60, 0
2, 48960, Note_on_c, 1, 55, 80
2, 49279, Note_on_c, 1, 55, 0
2, 49280, Note_on_c, 1, 59, 80
2, 49280, Note_on_c, 1, 62, 80
2, 49439, Note_on_c, 1, 59, 0
2, 49439, Note_on_c, 1, 62, 0
2, 49440, Note_on_c, 1, 59, 80
2, 49440, Note_on_c, 1, 62, 80
2, 49919, Note_on_c, 1, 59, 0
2, 49919, Note_on_c, 1, 62, 0
2, 49920, Note_on_c, 1, 60, 80
2, 50239, Note_on_c, 1, 60, 0
2, 50240, Note_on_c, 1, 64, 80
2, 50240, Note_on_c, 1, 67, 80
2, 50399, Note_on_c, 1, 64, 0
2, 50399, Note_on_c, 1, 67, 0
2, 50400, Note_on_c, 1, 64, 80
2, 50400, Note_on_c, 1, 67, 80
2, 50879, Note_on_c, 1, 64, 0
2, 50879, Note_on_c, 1, 67, 0
2, 50880, Note_on_c, 1, 57, 80
2, 51199, Note_on_c, 1, 57, 0
2, 51200, Note_on_c, 1, 60, 80
2, 51200, Note_on_c, 1, 64, 80
2, 51359, Note_on_c, 1, 60, 0
2, 51359, Note_on_c, 1, 64, 0
2, 51360, Note_on_c, 1, 60, 80
2, 51360, Note_on_c, 1, 64, 80
2, 51839, Note_on_c, 1, 60, 0
2, 51839, Note_on_c, 1, 64, 0
2, 51840, Note_on_c, 1, 50, 80
2, 52159, Note_on_c, 1, 50, 0
2, 52160, Note_on_c, 1, 57, 80
2, 52160, Note_on_c, 1, 60, 80
2, 52319, Note_on_c, 1, 57, 0
2, 52319, Note_on_c, 1, 60, 0
2, 52320, Note_on_c, 1, 57, 80
2, 52320, Note_on_c, 1, 60, 80
2, 52799, Note_on_c, 1, 57, 0
2, 52799, Note_on_c, 1, 60, 0
2, 52800, Note_on_c, 1, 55, 80
2, 53119, Note_on_c, 1, 55, 0
2, 53120, Note_on_c, 1, 59, 80
2, 53120, Note_on_c, 1, 62, 80
2, 53279, Note_on_c, 1, 59, 0
2, 53279, Note_on_c, 1, 62, 0
2, 53280, Note_on_c, 1, 59, 80
2, 53280, Note_on_c, 1, 62, 80
2, 53759, Note_on_c, 1, 59, 0
2, 53759, Note_on_c, 1, 62, 0
2, 53760, Note_on_c, 1, 60, 80
2, 54079, Note_on_c, 1, 60, 0
2, 54080, Note_on_c, 1, 64, 80
2, 54080, Note_on_c, 1, 67, 80
2, 54239, Note_on_c, 1, 64, 0
2, 54239, Note_on_c, 1, 67, 0
2, 54240, Note_on_c, 1, 64, 80
2, 54240, Note_on_c, 1, 67, 80
2, 54719, Note_on_c, 1, 64, 0
2, 54719, Note_on_c, 1, 67, 0
2, 54720, Note_on_c, 1, 57, 80
2, 55039, Note_on_c, 1, 57, 0
2, 55040, Note_on_c, 1, 60, 80
2, 55040, Note_on_c, 1, 64, 80
2, 55199, Note_on_c, 1, 60, 0
2, 55199, Note_on_c, 1, 64, 0
2, 55200, Note_on_c, 1, 60, 80
2, 55200, Note_on_c, 1, 64, 80
2, 55679, Note_on_c, 1, 60, 0
2, 55679, Note_on_c, 1, 64, 0
2, 55680, Note_on_c, 1, 53, 80
2, 55999, Note_on_c, 1, 53, 0
2, 56000, Note_on_c, 1, 57, 80
2, 56000, Note_on_c, 1, 60, 80
2, 56159, Note_on_c, 1, 57, 0
2, 56159, Note_on_c, 1, 60, 0
2, 56160, Note_on_c, 1, 57, 80
2, 56160, Note_on_c, 1, 60, 80
2, 56639, Note_on_c, 1, 57, 0
2, 56639, Note_on_c, 1, 60, 0
2, 56640, Note_on_c, 1, 55, 80
2, 56959, Note_on_c, 1, 55, 0
2, 56960, Note_on_c, 1, 59, 80
2, 56960, Note_on_c, 1, 62, 80
2, 57119, Note_on_c, 1, 59, 0
2, 57119, Note_on_c, 1, 62, 0
2, 57120, Note_on_c, 1, 59, 80
2, 57120, Note_on_c, 1, 62, 80
2, 57359, Note_on_c, 1, 59, 0
2, 57359, Note_on_c, 1, 62, 0
2, 57600, Note_on_c, 1, 60, 80
2, 57919, Note_on_c, 1, 60, 0
2, 57920, Note_on_c, 1, 64, 80
2, 57920, Note_on_c, 1, 67, 80
2, 58079, Note_on_c, 1, 64, 0
2, 58079, Note_on_c, 1, 67, 0
2, 58080, Note_on_c, 1, 64, 80
2, 58080, Note_on_c, 1, 67, 80
2, 58559, Note_on_c, 1, 64, 0
2, 58559, Note_on_c, 1, 67, 0
2, 58560, Note_on_c, 1, 57, 80
2, 58879, Note_on_c, 1, 57, 0
2, 58880, Note_on_c, 1, 60, 80
2, 58880, Note_on_c, 1, 64, 80
2, 59039, Note_on_c, 1, 60, 0
2, 59039, Note_on_c, 1, 64, 0
2, 59040, Note_on_c, 1, 60, 80
2, 59040, Note_on_c, 1, 64, 80
2, 59519, Note_on_c, 1, 60, 0
2, 59519, Note_on_c, 1, 64, 0
2, 59520, Note_on_c, 1, 50, 80
2, 59839, Note_on_c, 1, 50, 0
2, 59840, Note_on_c, 1, 57, 80
2, 59840, Note_on_c, 1, 60, 80
2, 59999, Note_on_c, 1, 57, 0
2, 59999, Note_on_c, 1, 60, 0
2, 60000, Note_on_c, 1, 57, 80
2, 60000, Note_on_c, 1, 60, 80
2, 60479, Note_on_c, 1, 57, 0
2, 60479, Note_on_c, 1, 60, 0
2, 60480, Note_on_c, 1, 55, 80
2, 60799, Note_on_c, 1, 55, 0
2, 60800, Note_on_c, 1, 59, 80
2, 60800, Note_on_c, 1, 62, 80
2, 60959, Note_on_c, 1, 59, 0
2, 60959, Note_on_c, 1, 62, 0
2, 60960, Note_on_c, 1, 59, 80
2, 60960, Note_on_c, 1, 62, 80
2, 61439, Note_on_c, 1, 59, 0
2, 61439, Note_on_c, 1, 62, 0
2, 61440, Note_on_c, 1, 60, 80
2, 61759, Note_on_c, 1, 60, 0
2, 61760, Note_on_c, 1, 64, 80
2, 61760, Note_on_c, 1, 67, 80
2, 61919, Note_on_c, 1, 64, 0
2, 61919, Note_on_c, 1, 67, 0
2, 61920, Note_on_c, 1, 64, 80
2, 61920, Note_on_c, 1, 67, 80
2, 62399, Note_on_c, 1, 64, 0
2, 62399, Note_on_c, 1, 67, 0
2, 62400, Note_on_c, 1, 57, 80
2, 62719, Note_on_c, 1, 57, 0
2, 62720, Note_on_c, 1, 60, 80
2, 62720, Note_on_c, 1, 64, 80
2, 62879, Note_on_c, 1, 60, 0
2, 62879, Note_on_c, 1, 64, 0
2, 62880, Note_on_c, 1, 60, 80
2, 62880, Note_on_c, 1, 64, 80
2, 63359, Note_on_c, 1, 60, 0
2, 63359, Note_on_c, 1, 64, 0
2, 63360, Note_on_c, 1, 53, 80
2, 63679, Note_on_c, 1, 53, 0
2, 63680, Note_on_c, 1, 57, 80
2, 63680, Note_on_c, 1, 60, 80
2, 63839, Note_on_c, 1, 57, 0
2, 63839, Note_on_c, 1, 60, 0
2, 63840, Note_on_c, 1, 57, 80
2, 63840, Note_on_c, 1, 60, 80
2, 64319, Note_on_c, 1, 57, 0
2, 64319, Note_on_c, 1, 60, 0
2, 64320, Note_on_c, 1, 55, 80
2, 64639, Note_on_c, 1, 55, 0
2, 64640, Note_on_c, 1, 59, 80
2, 64640, Note_on_c, 1, 62, 80
2, 64799, Note_on_c, 1, 59, 0
2, 64799, Note_on_c, 1, 62, 0
2, 64800, Note_on_c, 1, 59, 80
2, 64800, Note_on_c, 1, 62, 80
2, 65279, Note_on_c, 1, 59, 0
2, 65279, Note_on_c, 1, 62, 0
2, 65280, Note_on_c, 1, 60, 80
2, 65599, Note_on_c, 1, 60, 0
2, 65600, Note_on_c, 1, 64, 80
2, 65600, Note_on_c, 1, 67, 80
2, 65759, Note_on_c, 1, 64, 0
2, 65759, Note_on_c, 1, 67, 0
2, 65760, Note_on_c, 1, 64, 80
2, 65760, Note_on_c, 1, 67, 80
2, 66239, Note_on_c, 1, 64, 0
2, 66239, Note_on_c, 1, 67, 0
2, 66240, Note_on_c, 1, 57, 80
2, 66559, Note_on_c, 1, 57, 0
2, 66560, Note_on_c, 1, 60, 80
2, 66560, Note_on_c, 1, 64, 80
2, 66719, Note_on_c, 1, 60, 0
2, 66719, Note_on_c, 1, 64, 0
2, 67200, Note_on_c, 1, 50, 80
2, 67519, Note_on_c, 1, 50, 0
2, 67520, Note_on_c, 1, 57, 80
2, 67520, Note_on_c, 1, 60, 80
2, 67679, Note_on_c, 1, 57, 0
2, 67679, Note_on_c, 1, 60, 0
2, 67680, Note_on_c, 1, 57, 80
2, 67680, Note_on_c, 1, 60, 80
2, 68159, Note_on_c, 1, 57, 0
2, 68159, Note_on_c, 1, 60, 0
2, 68160, Note_on_c, 1, 55, 80
2, 68479, Note_on_c, 1, 55, 0
2, 68480, Note_on_c, 1, 59, 80
2, 68480, Note_on_c, 1, 62, 80
2, 68639, Note_on_c, 1, 59, 0
2, 68639, Note_on_c, 1, 62, 0
2, 68640, Note_on_c, 1, 59, 80
2, 68640, Note_on_c, 1, 62, 80
2, 69119, Note_on_c, 1, 59, 0
2, 69119, Note_on_c, 1, 62, 0
2, 69120, Note_on_c, 1, 60, 80
2, 69439, Note_on_c, 1, 60, 0
2, 69440, Note_on_c, 1, 64, 80
2, 69440, Note_on_c, 1, 67, 80
2, 69599, Note_on_c, 1, 64, 0
2, 69599, Note_on_c, 1, 67, 0
2, 69600, Note_on_c, 1, 64, 80
2, 69600, Note_on_c, 1, 67, 80
2, 70079, Note_on_c, 1, 64, 0
2, 70079, Note_on_c, 1, 67, 0
2, 70080, Note_on_c, 1, 57, 80
2, 70399, Note_on_c, 1, 57, 0
2, 70400, Note_on_c, 1, 60, 80
2, 70400, Note_on_c, 1, 64, 80
2, 70559, Note_on_c, 1, 60, 0
2, 70559, Note_on_c, 1, 64, 0
2, 70560, Note_on_c, 1, 60, 80
2, 70560, Note_on_c, 1, 64, 80
2, 71039, Note_on_c, 1, 60, 0
2, 71039, Note_on_c, 1, 64, 0
2, 71040, Note_on_c, 1, 53, 80
2, 71359, Note_on_c, 1, 53, 0
2, 71360, Note_on_c, 1, 57, 80
2, 71360, Note_on_c, 1, 60, 80
2, 71519, Note_on_c, 1, 57, 0
2, 71519, Note_on_c, 1, 60, 0
2, 71520, Note_on_c, 1, 57, 80
2, 71520, Note_on_c, 1, 60, 80
2, 71999, Note_on_c, 1, 57, 0
2, 71999, Note_on_c, 1, 60, 0
2, 72000, Note_on_c, 1, 55, 80
2, 72319, Note_on_c, 1, 55, 0
2, 72320, Note_on_c, 1, 59, 80
2, 72320, Note_on_c, 1, 62, 80
2, 72479, Note_on_c, 1, 59, 0
2, 72479, Note_on_c, 1, 62, 0
2, 72480, Note_on_c, 1, 59, 80
2, 72480, Note_on_c, 1, 62, 80
2, 72959, Note_on_c, 1, 59, 0
2, 72959, Note_on_c, 1, 62, 0
2, 72960, Note_on_c, 1, 60, 80
2, 73279, Note_on_c, 1, 60, 0
2, 73280, Note_on_c, 1, 64, 80
2, 73280, Note_on_c, 1, 67, 80
2, 73439, Note_on_c, 1, 64, 0
2, 73439, Note_on_c, 1, 67, 0
2, 73440, Note_on_c, 1, 64, 80
2, 73440, Note_on_c, 1, 67, 80
2, 73919, Note_on_c, 1, 64, 0
2, 73919, Note_on_c, 1, 67, 0
2, 73920, Note_on_c, 1, 57, 80
2, 74239, Note_on_c, 1, 57, 0
2, 74240, Note_on_c, 1, 60, 80
2, 74240, Note_on_c, 1, 64, 80
2, 74399, Note_on_c, 1, 60, 0
2, 74399, Note_on_c, 1, 64, 0
2, 74400, Note_on_c, 1, 60, 80
2, 74400, Note_on_c, 1, 64, 80
2, 74879, Note_on_c, 1, 60, 0
2, 74879, Note_on_c, 1, 64, 0
2, 74880, Note_on_c, 1, 50, 80
2, 75199, Note_on_c, 1, 50, 0
2, 75200, Note_on_c, 1, 57, 80
2, 75200, Note_on_c, 1, 60, 80
2, 75359, Note_on_c, 1, 57, 0
2, 75359, Note_on_c, 1, 60, 0
2, 75360, Note_on_c, 1, 57, 80
2, 75360, Note_on_c, 1, 60, 80
2, 75839, Note_on_c, 1, 57, 0
2, 75839, Note_on_c, 1, 60, 0
2, 75840, Note_on_c, 1, 55, 80
2, 76159, Note_on_c, 1, 55, 0
2, 76160, Note_on_c, 1, 59, 80
2, 76160, Note_on_c, 1, 62, 80
2, 76319, Note_on_c, 1, 59, 0
2, 76319, Note_on_c, 1, 62, 0
2, 76320, Note_on_c, 1, 59, 80
2, 76320, Note_on_c, 1, 62, 80
2, 76799, Note_on_c, 1, 59, 0
2, 76799, Note_on_c, 1, 62, 0
2, 76800, Note_on_c, 1, 52, 80
2, 76800, Note_on_c, 1, 55, 80
2, 76800, Note_on_c, 1, 60, 80
2, 78239, Note_on_c, 1, 52, 0
2, 78239, Note_on_c, 1, 55, 0
2, 78239, Note_on_c, 1, 60, 0
2, 78240, End_track
3, 0, Start_track
3, 0, Title_t, "Electric Bass, Bass\000"
3, 0, Key_signature, 0, "major"
3, 0, Control_c, 2, 121, 0
3, 0, Program_c, 2, 33
3, 0, Control_c, 2, 7, 100
3, 0, Control_c, 2, 10, 64
3, 0, Control_c, 2, 91, 0
3, 0, Control_c, 2, 93, 0
3, 0, MIDI_port, 0
3, 0, Note_on_c, 2, 60, 80
3, 0, Control_c, 4, 121, 0
3, 0, Program_c, 4, 36
3, 0, Control_c, 4, 7, 100
3, 0, Control_c, 4, 10, 64
3, 0, Control_c, 4, 91, 0
3, 0, Control_c, 4, 93, 0
3, 0, MIDI_port, 0
3, 0, Control_c, 5, 121, 0
3, 0, Program_c, 5, 37
3, 0, Control_c, 5, 7, 100
3, 0, Control_c, 5, 10, 64
3, 0, Control_c, 5, 91, 0
3, 0, Control_c, 5, 93, 0
3, 0, MIDI_port, 0
3, 959, Note_on_c, 2, 60, 0
3, 960, Note_on_c, 2, 57, 80
3, 1919, Note_on_c, 2, 57, 0
3, 1920, Note_on_c, 2, 62, 80
3, 2879, Note_on_c, 2, 62, 0
3, 2880, Note_on_c, 2, 55, 80
3, 3839, Note_on_c, 2, 55, 0
3, 3840, Note_on_c, 2, 60, 80
3, 4799, Note_on_c, 2, 60, 0
3, 4800, Note_on_c, 2, 57, 80
3, 5759, Note_on_c, 2, 57, 0
3, 5760, Note_on_c, 2, 62, 80
3, 6719, Note_on_c, 2, 62, 0
3, 6720, Note_on_c, 2, 55, 80
3, 7679, Note_on_c, 2, 55, 0
3, 7680, Note_on_c, 2, 60, 80
3, 8639, Note_on_c, 2, 60, 0
3, 8640, Note_on_c, 2, 57, 80
3, 9599, Note_on_c, 2, 57, 0
3, 9600, Note_on_c, 2, 53, 80
3, 10559, Note_on_c, 2, 53, 0
3, 10560, Note_on_c, 2, 55, 80
3, 11519, Note_on_c, 2, 55, 0
3, 11520, Note_on_c, 2, 60, 80
3, 12479, Note_on_c, 2, 60, 0
3, 12480, Note_on_c, 2, 57, 80
3, 13439, Note_on_c, 2, 57, 0
3, 13440, Note_on_c, 2, 62, 80
3, 14399, Note_on_c, 2, 62, 0
3, 14400, Note_on_c, 2, 55, 80
3, 15359, Note_on_c, 2, 55, 0
3, 15360, Note_on_c, 2, 60, 80
3, 16319, Note_on_c, 2, 60, 0
3, 16320, Note_on_c, 2, 57, 80
3, 17279, Note_on_c, 2, 57, 0
3, 17280, Note_on_c, 2, 62, 80
3, 18239, Note_on_c, 2, 62, 0
3, 18240, Note_on_c, 2, 55, 80
3, 19199, Note_on_c, 2, 55, 0
3, 19200, Note_on_c, 2, 60, 80
3, 20159, Note_on_c, 2, 60, 0
3, 20160, Note_on_c, 2, 57, 80
3, 21119, Note_on_c, 2, 57, 0
3, 21120, Note_on_c, 2, 62, 80
3, 22079, Note_on_c, 2, 62, 0
3, 22080, Note_on_c, 2, 55, 80
3, 23039, Note_on_c, 2, 55, 0
3, 23040, Note_on_c, 2, 60, 80
3, 23999, Note_on_c, 2, 60, 0
3, 24000, Note_on_c, 2, 57, 80
3, 24959, Note_on_c, 2, 57, 0
3, 24960, Note_on_c, 2, 53, 80
3, 25919, Note_on_c, 2, 53, 0
3, 25920, Note_on_c, 2, 55, 80
3, 26879, Note_on_c, 2, 55, 0
3, 26880, Note_on_c, 2, 60, 80
3, 27839, Note_on_c, 2, 60, 0
3, 27840, Note_on_c, 2, 57, 80
3, 28799, Note_on_c, 2, 57, 0
3, 28800, Note_on_c, 2, 62, 80
3, 29759, Note_on_c, 2, 62, 0
3, 29760, Note_on_c, 2, 55, 80
3, 30719, Note_on_c, 2, 55, 0
3, 30720, Note_on_c, 2, 60, 80
3, 31679, Note_on_c, 2, 60, 0
3, 31680, Note_on_c, 2, 59, 80
3, 32639, Note_on_c, 2, 59, 0
3, 32640, Note_on_c, 2, 57, 80
3, 33599, Note_on_c, 2, 57, 0
3, 33600, Note_on_c, 2, 55, 80
3, 34559, Note_on_c, 2, 55, 0
3, 34560, Note_on_c, 2, 53, 80
3, 35519, Note_on_c, 2, 53, 0
3, 35520, Note_on_c, 2, 52, 80
3, 36479, Note_on_c, 2, 52, 0
3, 36480, Note_on_c, 2, 50, 80
3, 37439, Note_on_c, 2, 50, 0
3, 37440, Note_on_c, 2, 55, 80
3, 38399, Note_on_c, 2, 55, 0
3, 38400, Note_on_c, 2, 60, 80
3, 39359, Note_on_c, 2, 60, 0
3, 39360, Note_on_c, 2, 57, 80
3, 40319, Note_on_c, 2, 57, 0
3, 40320, Note_on_c, 2, 53, 80
3, 41279, Note_on_c, 2, 53, 0
3, 41280, Note_on_c, 2, 55, 80
3, 42239, Note_on_c, 2, 55, 0
3, 42240, Note_on_c, 2, 60, 80
3, 43199, Note_on_c, 2, 60, 0
3, 43200, Note_on_c, 2, 57, 80
3, 44159, Note_on_c, 2, 57, 0
3, 44160, Note_on_c, 2, 62, 80
3, 45119, Note_on_c, 2, 62, 0
3, 45120, Note_on_c, 2, 55, 80
3, 46079, Note_on_c, 2, 55, 0
3, 46080, Note_on_c, 2, 60, 80
3, 47039, Note_on_c, 2, 60, 0
3, 47040, Note_on_c, 2, 57, 80
3, 47999, Note_on_c, 2, 57, 0
3, 48000, Note_on_c, 2, 53, 80
3, 48959, Note_on_c, 2, 53, 0
3, 48960, Note_on_c, 2, 55, 80
3, 49919, Note_on_c, 2, 55, 0
3, 49920, Note_on_c, 2, 60, 80
3, 50879, Note_on_c, 2, 60, 0
3, 50880, Note_on_c, 2, 57, 80
3, 51839, Note_on_c, 2, 57, 0
3, 51840, Note_on_c, 2, 62, 80
3, 52799, Note_on_c, 2, 62, 0
3, 52800, Note_on_c, 2, 55, 80
3, 53759, Note_on_c, 2, 55, 0
3, 53760, Note_on_c, 2, 60, 80
3, 54719, Note_on_c, 2, 60, 0
3, 54720, Note_on_c, 2, 57, 80
3, 55679, Note_on_c, 2, 57, 0
3, 55680, Note_on_c, 2, 53, 80
3, 56639, Note_on_c, 2, 53, 0
3, 56640, Note_on_c, 2, 55, 80
3, 57599, Note_on_c, 2, 55, 0
3, 57600, Note_on_c, 2, 60, 80
3, 58559, Note_on_c, 2, 60, 0
3, 58560, Note_on_c, 2, 57, 80
3, 59519, Note_on_c, 2, 57, 0
3, 59520, Note_on_c, 2, 62, 80
3, 60479, Note_on_c, 2, 62, 0
3, 60480, Note_on_c, 2, 55, 80
3, 61439, Note_on_c, 2, 55, 0
3, 61440, Note_on_c, 2, 60, 80
3, 62399, Note_on_c, 2, 60, 0
3, 62400, Note_on_c, 2, 57, 80
3, 63359, Note_on_c, 2, 57, 0
3, 63360, Note_on_c, 2, 62, 80
3, 64319, Note_on_c, 2, 62, 0
3, 64320, Note_on_c, 2, 55, 80
3, 65279, Note_on_c, 2, 55, 0
3, 65280, Note_on_c, 2, 60, 80
3, 66239, Note_on_c, 2, 60, 0
3, 66240, Note_on_c, 2, 57, 80
3, 67199, Note_on_c, 2, 57, 0
3, 67200, Note_on_c, 2, 62, 80
3, 68159, Note_on_c, 2, 62, 0
3, 68160, Note_on_c, 2, 55, 80
3, 69119, Note_on_c, 2, 55, 0
3, 69120, Note_on_c, 2, 60, 80
3, 70079, Note_on_c, 2, 60, 0
3, 70080, Note_on_c, 2, 57, 80
3, 71039, Note_on_c, 2, 57, 0
3, 71040, Note_on_c, 2, 53, 80
3, 71999, Note_on_c, 2, 53, 0
3, 72000, Note_on_c, 2, 55, 80
3, 72959, Note_on_c, 2, 55, 0
3, 72960, Note_on_c, 2, 60, 80
3, 73919, Note_on_c, 2, 60, 0
3, 73920, Note_on_c, 2, 57, 80
3, 74879, Note_on_c, 2, 57, 0
3, 74880, Note_on_c, 2, 62, 80
3, 75839, Note_on_c, 2, 62, 0
3, 75840, Note_on_c, 2, 55, 80
3, 76799, Note_on_c, 2, 55, 0
3, 76800, Note_on_c, 2, 60, 80
3, 78719, Note_on_c, 2, 60, 0
3, 78720, End_track
0, 0, End_of_file
