0, 0, Header, 1, 3, 480
1, 0, Start_track
1, 0, Title_t, "Piano, Piano, Piano\000"
1, 0, Time_signature, 4, 2, 24, 8
1, 0, Key_signature, 0, "major"
1, 0, Tempo, 600000
1, 0, Control_c, 0, 121, 0
1, 0, Program_c, 0, 0
1, 0, Control_c, 0, 7, 100
1, 0, Control_c, 0, 10, 64
1, 0, Control_c, 0, 91, 0
1, 0, Control_c, 0, 93, 0
1, 0, MIDI_port, 0
1, 3840, Note_on_c, 0, 64, 80
1, 3840, Note_on_c, 0, 71, 80
1, 5663, Note_on_c, 0, 64, 0
1, 5663, Note_on_c, 0, 71, 0
1, 5760, Note_on_c, 0, 64, 80
1, 6215, Note_on_c, 0, 64, 0
1, 6240, Note_on_c, 0, 71, 80
1, 6695, Note_on_c, 0, 71, 0
1, 6720, Note_on_c, 0, 74, 80
1, 6947, Note_on_c, 0, 74, 0
1, 6960, Note_on_c, 0, 62, 80
1, 7187, Note_on_c, 0, 62, 0
1, 7200, Note_on_c, 0, 67, 80
1, 7427, Note_on_c, 0, 67, 0
1, 7440, Note_on_c, 0, 69, 80
1, 7667, Note_on_c, 0, 69, 0
1, 7680, Note_on_c, 0, 62, 80
1, 7680, Note_on_c, 0, 67, 80
1, 7680, Note_on_c, 0, 71, 80
1, 8135, Note_on_c, 0, 62, 0
1, 8135, Note_on_c, 0, 67, 0
1, 8135, Note_on_c, 0, 71, 0
1, 8160, Note_on_c, 0, 71, 80
1, 8387, Note_on_c, 0, 71, 0
1, 8400, Note_on_c, 0, 67, 80
1, 8627, Note_on_c, 0, 67, 0
1, 8640, Note_on_c, 0, 62, 80
1, 8640, Note_on_c, 0, 69, 80
1, 9095, Note_on_c, 0, 62, 0
1, 9095, Note_on_c, 0, 69, 0
1, 9120, Note_on_c, 0, 71, 80
1, 9347, Note_on_c, 0, 71, 0
1, 9360, Note_on_c, 0, 64, 80
1, 9360, Note_on_c, 0, 67, 80
1, 9360, Note_on_c, 0, 60, 80
1, 9815, Note_on_c, 0, 60, 0
1, 10043, Note_on_c, 0, 64, 0
1, 10043, Note_on_c, 0, 67, 0
1, 10560, Note_on_c, 0, 67, 80
1, 10560, Note_on_c, 0, 62, 80
1, 10787, Note_on_c, 0, 67, 0
1, 10800, Note_on_c, 0, 69, 80
1, 11027, Note_on_c, 0, 69, 0
1, 11040, Note_on_c, 0, 71, 80
1, 11267, Note_on_c, 0, 71, 0
1, 11280, Note_on_c, 0, 64, 80
1, 11280, Note_on_c, 0, 67, 80
1, 11280, Note_on_c, 0, 72, 80
1, 11471, Note_on_c, 0, 62, 0
1, 11735, Note_on_c, 0, 64, 0
1, 11735, Note_on_c, 0, 67, 0
1, 11735, Note_on_c, 0, 72, 0
1, 11760, Note_on_c, 0, 72, 80
1, 11987, Note_on_c, 0, 72, 0
1, 12000, Note_on_c, 0, 72, 80
1, 12227, Note_on_c, 0, 72, 0
1, 12240, Note_on_c, 0, 69, 80
1, 12467, Note_on_c, 0, 69, 0
1, 12480, Note_on_c, 0, 62, 80
1, 12480, Note_on_c, 0, 67, 80
1, 12480, Note_on_c, 0, 71, 80
1, 12935, Note_on_c, 0, 62, 0
1, 12935, Note_on_c, 0, 67, 0
1, 12935, Note_on_c, 0, 71, 0
1, 12960, Note_on_c, 0, 72, 80
1, 13187, Note_on_c, 0, 72, 0
1, 13200, Note_on_c, 0, 64, 80
1, 13200, Note_on_c, 0, 69, 80
1, 13200, Note_on_c, 0, 60, 80
1, 13883, Note_on_c, 0, 60, 0
1, 14339, Note_on_c, 0, 64, 0
1, 14339, Note_on_c, 0, 69, 0
1, 14640, Note_on_c, 0, 71, 80
1, 14867, Note_on_c, 0, 71, 0
1, 14880, Note_on_c, 0, 72, 80
1, 15107, Note_on_c, 0, 72, 0
1, 15120, Note_on_c, 0, 67, 80
1, 15120, Note_on_c, 0, 71, 80
1, 15120, Note_on_c, 0, 74, 80
1, 15575, Note_on_c, 0, 67, 0
1, 15575, Note_on_c, 0, 71, 0
1, 15575, Note_on_c, 0, 74, 0
1, 15600, Note_on_c, 0, 74, 80
1, 15827, Note_on_c, 0, 74, 0
1, 15840, Note_on_c, 0, 74, 80
1, 16067, Note_on_c, 0, 74, 0
1, 16080, Note_on_c, 0, 71, 80
1, 16307, Note_on_c, 0, 71, 0
1, 16320, Note_on_c, 0, 74, 80
1, 16320, Note_on_c, 0, 69, 80
1, 16547, Note_on_c, 0, 74, 0
1, 16560, Note_on_c, 0, 76, 80
1, 17015, Note_on_c, 0, 76, 0
1, 17040, Note_on_c, 0, 67, 80
1, 17040, Note_on_c, 0, 71, 80
1, 17040, Note_on_c, 0, 74, 80
1, 17231, Note_on_c, 0, 69, 0
1, 17495, Note_on_c, 0, 67, 0
1, 17495, Note_on_c, 0, 71, 0
1, 17495, Note_on_c, 0, 74, 0
1, 17520, Note_on_c, 0, 71, 80
1, 17975, Note_on_c, 0, 71, 0
1, 18000, Note_on_c, 0, 67, 80
1, 18000, Note_on_c, 0, 62, 80
1, 18455, Note_on_c, 0, 67, 0
1, 18480, Note_on_c, 0, 67, 80
1, 18683, Note_on_c, 0, 62, 0
1, 18707, Note_on_c, 0, 67, 0
1, 18720, Note_on_c, 0, 69, 80
1, 18947, Note_on_c, 0, 69, 0
1, 18960, Note_on_c, 0, 71, 80
1, 19187, Note_on_c, 0, 71, 0
1, 19200, Note_on_c, 0, 71, 80
1, 19200, Note_on_c, 0, 64, 80
1, 19200, Note_on_c, 0, 67, 80
1, 19427, Note_on_c, 0, 71, 0
1, 19440, Note_on_c, 0, 71, 80
1, 19655, Note_on_c, 0, 64, 0
1, 19667, Note_on_c, 0, 71, 0
1, 19680, Note_on_c, 0, 71, 80
1, 19907, Note_on_c, 0, 71, 0
1, 19920, Note_on_c, 0, 71, 80
1, 20111, Note_on_c, 0, 67, 0
1, 20147, Note_on_c, 0, 71, 0
1, 20160, Note_on_c, 0, 64, 80
1, 20190, Note_on_c, 0, 67, 80
1, 20220, Note_on_c, 0, 71, 80
1, 20280, Note_on_c, 0, 74, 80
1, 20388, Note_on_c, 0, 67, 0
1, 20390, Note_on_c, 0, 71, 0
1, 20399, Note_on_c, 0, 64, 0
1, 20459, Note_on_c, 0, 74, 0
1, 20640, Note_on_c, 0, 71, 80
1, 20867, Note_on_c, 0, 71, 0
1, 20880, Note_on_c, 0, 64, 80
1, 20880, Note_on_c, 0, 67, 80
1, 20880, Note_on_c, 0, 69, 80
1, 22019, Note_on_c, 0, 64, 0
1, 22019, Note_on_c, 0, 67, 0
1, 22019, Note_on_c, 0, 69, 0
1, 22320, Note_on_c, 0, 67, 80
1, 22547, Note_on_c, 0, 67, 0
1, 22560, Note_on_c, 0, 67, 80
1, 22800, Note_on_c, 0, 62, 80
1, 22830, Note_on_c, 0, 67, 0
1, 22830, Note_on_c, 0, 67, 80
1, 22880, Note_on_c, 0, 71, 80
1, 22960, Note_on_c, 0, 76, 80
1, 23027, Note_on_c, 0, 62, 0
1, 23263, Note_on_c, 0, 76, 0
1, 23280, Note_on_c, 0, 76, 80
1, 23712, Note_on_c, 0, 67, 0
1, 23760, Note_on_c, 0, 76, 0
1, 23760, Note_on_c, 0, 76, 80
1, 23760, Note_on_c, 0, 67, 80
1, 23760, Note_on_c, 0, 71, 0
1, 23760, Note_on_c, 0, 71, 80
1, 24215, Note_on_c, 0, 76, 0
1, 24240, Note_on_c, 0, 79, 80
1, 24467, Note_on_c, 0, 79, 0
1, 24480, Note_on_c, 0, 76, 80
1, 24671, Note_on_c, 0, 67, 0
1, 24671, Note_on_c, 0, 71, 0
1, 24720, Note_on_c, 0, 69, 80
1, 24750, Note_on_c, 0, 74, 80
1, 24783, Note_on_c, 0, 76, 0
1, 24800, Note_on_c, 0, 81, 80
1, 25175, Note_on_c, 0, 69, 0
1, 25176, Note_on_c, 0, 74, 0
1, 25179, Note_on_c, 0, 81, 0
1, 25200, Note_on_c, 0, 79, 80
1, 25655, Note_on_c, 0, 79, 0
1, 25680, Note_on_c, 0, 64, 80
1, 25710, Note_on_c, 0, 69, 80
1, 25760, Note_on_c, 0, 74, 80
1, 25907, Note_on_c, 0, 64, 0
1, 26136, Note_on_c, 0, 69, 0
1, 26139, Note_on_c, 0, 74, 0
1, 26160, Note_on_c, 0, 74, 80
1, 26387, Note_on_c, 0, 74, 0
1, 26400, Note_on_c, 0, 76, 80
1, 26627, Note_on_c, 0, 76, 0
1, 26640, Note_on_c, 0, 72, 80
1, 26640, Note_on_c, 0, 76, 80
1, 26640, Note_on_c, 0, 79, 80
1, 27095, Note_on_c, 0, 72, 0
1, 27095, Note_on_c, 0, 76, 0
1, 27095, Note_on_c, 0, 79, 0
1, 27120, Note_on_c, 0, 76, 80
1, 27347, Note_on_c, 0, 76, 0
1, 27360, Note_on_c, 0, 74, 80
1, 27587, Note_on_c, 0, 74, 0
1, 27600, Note_on_c, 0, 67, 80
1, 27600, Note_on_c, 0, 72, 80
1, 27600, Note_on_c, 0, 76, 80
1, 28055, Note_on_c, 0, 67, 0
1, 28055, Note_on_c, 0, 72, 0
1, 28055, Note_on_c, 0, 76, 0
1, 28080, Note_on_c, 0, 74, 80
1, 28307, Note_on_c, 0, 74, 0
1, 28320, Note_on_c, 0, 71, 80
1, 28547, Note_on_c, 0, 71, 0
1, 28560, Note_on_c, 0, 67, 80
1, 28560, Note_on_c, 0, 71, 80
1, 28560, Note_on_c, 0, 74, 80
1, 29015, Note_on_c, 0, 67, 0
1, 29015, Note_on_c, 0, 71, 0
1, 29015, Note_on_c, 0, 74, 0
1, 29040, Note_on_c, 0, 71, 80
1, 29495, Note_on_c, 0, 71, 0
1, 29520, Note_on_c, 0, 59, 80
1, 29520, Note_on_c, 0, 64, 80
1, 29550, Note_on_c, 0, 69, 80
1, 30203, Note_on_c, 0, 59, 0
1, 30203, Note_on_c, 0, 64, 0
1, 30204, Note_on_c, 0, 69, 0
1, 30240, Note_on_c, 0, 67, 80
1, 30467, Note_on_c, 0, 67, 0
1, 30480, Note_on_c, 0, 69, 80
1, 30707, Note_on_c, 0, 69, 0
1, 30720, Note_on_c, 0, 62, 80
1, 30720, Note_on_c, 0, 71, 80
1, 30947, Note_on_c, 0, 62, 0
1, 30947, Note_on_c, 0, 71, 0
1, 30960, Note_on_c, 0, 69, 80
1, 30960, Note_on_c, 0, 74, 80
1, 31415, Note_on_c, 0, 69, 0
1, 31415, Note_on_c, 0, 74, 0
1, 31440, Note_on_c, 0, 69, 80
1, 31440, Note_on_c, 0, 76, 80
1, 31895, Note_on_c, 0, 69, 0
1, 31895, Note_on_c, 0, 76, 0
1, 31920, Note_on_c, 0, 79, 80
1, 32147, Note_on_c, 0, 79, 0
1, 32160, Note_on_c, 0, 72, 80
1, 32160, Note_on_c, 0, 76, 80
1, 32160, Note_on_c, 0, 83, 80
1, 33299, Note_on_c, 0, 72, 0
1, 33299, Note_on_c, 0, 76, 0
1, 33299, Note_on_c, 0, 83, 0
1, 33360, Note_on_c, 0, 71, 80
1, 33587, Note_on_c, 0, 71, 0
1, 33600, Note_on_c, 0, 71, 80
1, 33600, Note_on_c, 0, 60, 80
1, 33600, Note_on_c, 0, 64, 80
1, 33600, Note_on_c, 0, 67, 80
1, 33827, Note_on_c, 0, 71, 0
1, 33840, Note_on_c, 0, 71, 80
1, 34055, Note_on_c, 0, 60, 0
1, 34055, Note_on_c, 0, 64, 0
1, 34055, Note_on_c, 0, 67, 0
1, 34067, Note_on_c, 0, 71, 0
1, 34080, Note_on_c, 0, 62, 80
1, 34080, Note_on_c, 0, 71, 80
1, 34307, Note_on_c, 0, 62, 0
1, 34307, Note_on_c, 0, 71, 0
1, 34320, Note_on_c, 0, 64, 80
1, 34320, Note_on_c, 0, 71, 80
1, 34547, Note_on_c, 0, 64, 0
1, 34547, Note_on_c, 0, 71, 0
1, 34800, Note_on_c, 0, 62, 80
1, 34919, Note_on_c, 0, 62, 0
1, 35040, Note_on_c, 0, 67, 80
1, 35159, Note_on_c, 0, 67, 0
1, 35280, Note_on_c, 0, 71, 80
1, 35735, Note_on_c, 0, 71, 0
1, 35760, Note_on_c, 0, 64, 80
1, 35760, Note_on_c, 0, 71, 80
1, 36215, Note_on_c, 0, 64, 0
1, 36215, Note_on_c, 0, 71, 0
1, 36240, Note_on_c, 0, 62, 80
1, 36240, Note_on_c, 0, 71, 80
1, 36695, Note_on_c, 0, 62, 0
1, 36695, Note_on_c, 0, 71, 0
1, 36720, Note_on_c, 0, 67, 80
1, 37175, Note_on_c, 0, 67, 0
1, 37200, Note_on_c, 0, 71, 80
1, 37655, Note_on_c, 0, 71, 0
1, 37680, Note_on_c, 0, 64, 80
1, 37680, Note_on_c, 0, 71, 80
1, 38363, Note_on_c, 0, 64, 0
1, 38363, Note_on_c, 0, 71, 0
1, 38400, Note_on_c, 0, 62, 80
1, 38627, Note_on_c, 0, 62, 0
1, 38640, Note_on_c, 0, 64, 80
1, 38867, Note_on_c, 0, 64, 0
1, 38880, Note_on_c, 0, 67, 80
1, 39107, Note_on_c, 0, 67, 0
1, 39120, Note_on_c, 0, 60, 80
1, 39120, Note_on_c, 0, 64, 80
1, 39120, Note_on_c, 0, 67, 80
1, 39120, Note_on_c, 0, 71, 80
1, 39803, Note_on_c, 0, 60, 0
1, 39803, Note_on_c, 0, 64, 0
1, 39803, Note_on_c, 0, 67, 0
1, 39803, Note_on_c, 0, 71, 0
1, 39840, Note_on_c, 0, 72, 80
1, 40067, Note_on_c, 0, 72, 0
1, 40080, Note_on_c, 0, 67, 80
1, 40080, Note_on_c, 0, 71, 80
1, 40080, Note_on_c, 0, 62, 80
1, 40307, Note_on_c, 0, 62, 0
1, 40535, Note_on_c, 0, 71, 0
1, 40560, Note_on_c, 0, 69, 80
1, 41219, Note_on_c, 0, 67, 0
1, 41243, Note_on_c, 0, 69, 0
1, 41280, Note_on_c, 0, 67, 80
1, 41280, Note_on_c, 0, 71, 80
1, 41735, Note_on_c, 0, 67, 0
1, 41735, Note_on_c, 0, 71, 0
1, 41760, Note_on_c, 0, 69, 80
1, 41760, Note_on_c, 0, 72, 80
1, 42215, Note_on_c, 0, 69, 0
1, 42215, Note_on_c, 0, 72, 0
1, 42240, Note_on_c, 0, 62, 80
1, 42260, Note_on_c, 0, 67, 80
1, 42280, Note_on_c, 0, 71, 80
1, 42320, Note_on_c, 0, 74, 80
1, 42354, Note_on_c, 0, 67, 0
1, 42355, Note_on_c, 0, 71, 0
1, 42357, Note_on_c, 0, 74, 0
1, 42479, Note_on_c, 0, 62, 0
1, 42480, Note_on_c, 0, 71, 80
1, 42480, Note_on_c, 0, 74, 80
1, 42707, Note_on_c, 0, 71, 0
1, 42707, Note_on_c, 0, 74, 0
1, 42720, Note_on_c, 0, 71, 80
1, 42720, Note_on_c, 0, 74, 80
1, 42947, Note_on_c, 0, 71, 0
1, 42947, Note_on_c, 0, 74, 0
1, 42960, Note_on_c, 0, 71, 80
1, 42960, Note_on_c, 0, 74, 80
1, 43187, Note_on_c, 0, 71, 0
1, 43187, Note_on_c, 0, 74, 0
1, 43200, Note_on_c, 0, 71, 80
1, 43200, Note_on_c, 0, 74, 80
1, 43427, Note_on_c, 0, 71, 0
1, 43427, Note_on_c, 0, 74, 0
1, 43440, Note_on_c, 0, 72, 80
1, 43440, Note_on_c, 0, 76, 80
1, 43895, Note_on_c, 0, 72, 0
1, 43895, Note_on_c, 0, 76, 0
1, 43920, Note_on_c, 0, 69, 80
1, 43920, Note_on_c, 0, 74, 80
1, 45059, Note_on_c, 0, 69, 0
1, 45059, Note_on_c, 0, 74, 0
1, 45120, Note_on_c, 0, 69, 80
1, 45120, Note_on_c, 0, 74, 80
1, 45423, Note_on_c, 0, 69, 0
1, 45423, Note_on_c, 0, 74, 0
1, 45440, Note_on_c, 0, 76, 80
1, 45743, Note_on_c, 0, 76, 0
1, 45760, Note_on_c, 0, 74, 80
1, 46063, Note_on_c, 0, 74, 0
1, 46080, Note_on_c, 0, 71, 80
1, 46080, Note_on_c, 0, 74, 80
1, 46080, Note_on_c, 0, 64, 80
1, 46991, Note_on_c, 0, 64, 0
1, 47105, Note_on_c, 0, 71, 0
1, 47105, Note_on_c, 0, 74, 0
1, 47280, Note_on_c, 0, 71, 80
1, 47280, Note_on_c, 0, 74, 80
1, 47507, Note_on_c, 0, 71, 0
1, 47507, Note_on_c, 0, 74, 0
1, 47520, Note_on_c, 0, 72, 80
1, 47520, Note_on_c, 0, 76, 80
1, 47747, Note_on_c, 0, 72, 0
1, 47747, Note_on_c, 0, 76, 0
1, 47760, Note_on_c, 0, 74, 80
1, 47760, Note_on_c, 0, 77, 80
1, 48443, Note_on_c, 0, 74, 0
1, 48443, Note_on_c, 0, 77, 0
1, 48480, Note_on_c, 0, 74, 80
1, 48480, Note_on_c, 0, 77, 80
1, 48935, Note_on_c, 0, 74, 0
1, 48935, Note_on_c, 0, 77, 0
1, 48960, Note_on_c, 0, 72, 80
1, 48960, Note_on_c, 0, 76, 80
1, 49187, Note_on_c, 0, 72, 0
1, 49187, Note_on_c, 0, 76, 0
1, 49200, Note_on_c, 0, 71, 80
1, 49200, Note_on_c, 0, 74, 80
1, 49655, Note_on_c, 0, 71, 0
1, 49655, Note_on_c, 0, 74, 0
1, 49680, Note_on_c, 0, 69, 80
1, 49680, Note_on_c, 0, 72, 80
1, 49680, Note_on_c, 0, 64, 80
1, 50363, Note_on_c, 0, 64, 0
1, 50819, Note_on_c, 0, 69, 0
1, 50819, Note_on_c, 0, 72, 0
1, 51120, Note_on_c, 0, 69, 80
1, 51120, Note_on_c, 0, 72, 80
1, 51347, Note_on_c, 0, 69, 0
1, 51347, Note_on_c, 0, 72, 0
1, 51360, Note_on_c, 0, 71, 80
1, 51360, Note_on_c, 0, 74, 80
1, 51587, Note_on_c, 0, 71, 0
1, 51587, Note_on_c, 0, 74, 0
1, 51600, Note_on_c, 0, 67, 80
1, 51600, Note_on_c, 0, 72, 80
1, 52283, Note_on_c, 0, 67, 0
1, 52283, Note_on_c, 0, 72, 0
1, 52320, Note_on_c, 0, 72, 80
1, 52547, Note_on_c, 0, 72, 0
1, 52560, Note_on_c, 0, 71, 80
1, 52560, Note_on_c, 0, 74, 80
1, 53015, Note_on_c, 0, 71, 0
1, 53015, Note_on_c, 0, 74, 0
1, 53040, Note_on_c, 0, 69, 80
1, 53040, Note_on_c, 0, 72, 80
1, 53495, Note_on_c, 0, 69, 0
1, 53495, Note_on_c, 0, 72, 0
1, 53520, Note_on_c, 0, 67, 80
1, 53520, Note_on_c, 0, 71, 80
1, 53747, Note_on_c, 0, 67, 0
1, 53747, Note_on_c, 0, 71, 0
1, 53760, Key_signature, 0, "major"
1, 56880, Note_on_c, 0, 83, 80
1, 57563, Note_on_c, 0, 83, 0
1, 57600, Note_on_c, 0, 71, 80
1, 57630, Note_on_c, 0, 76, 80
1, 57660, Note_on_c, 0, 79, 80
1, 57720, Note_on_c, 0, 83, 80
1, 57828, Note_on_c, 0, 76, 0
1, 57830, Note_on_c, 0, 79, 0
1, 57839, Note_on_c, 0, 71, 0
1, 57899, Note_on_c, 0, 83, 0
1, 59520, Note_on_c, 0, 64, 80
1, 59975, Note_on_c, 0, 64, 0
1, 60000, Note_on_c, 0, 71, 80
1, 60455, Note_on_c, 0, 71, 0
1, 60480, Note_on_c, 0, 74, 80
1, 60707, Note_on_c, 0, 74, 0
1, 60720, Note_on_c, 0, 62, 80
1, 60947, Note_on_c, 0, 62, 0
1, 60960, Note_on_c, 0, 67, 80
1, 61187, Note_on_c, 0, 67, 0
1, 61200, Note_on_c, 0, 69, 80
1, 61427, Note_on_c, 0, 69, 0
1, 61440, Note_on_c, 0, 62, 80
1, 61440, Note_on_c, 0, 67, 80
1, 61440, Note_on_c, 0, 71, 80
1, 61895, Note_on_c, 0, 62, 0
1, 61895, Note_on_c, 0, 67, 0
1, 61895, Note_on_c, 0, 71, 0
1, 61920, Note_on_c, 0, 71, 80
1, 62147, Note_on_c, 0, 71, 0
1, 62160, Note_on_c, 0, 67, 80
1, 62387, Note_on_c, 0, 67, 0
1, 62400, Note_on_c, 0, 62, 80
1, 62400, Note_on_c, 0, 69, 80
1, 62855, Note_on_c, 0, 62, 0
1, 62855, Note_on_c, 0, 69, 0
1, 62880, Note_on_c, 0, 71, 80
1, 63107, Note_on_c, 0, 71, 0
1, 63120, Note_on_c, 0, 64, 80
1, 63120, Note_on_c, 0, 67, 80
1, 63120, Note_on_c, 0, 60, 80
1, 63575, Note_on_c, 0, 60, 0
1, 63803, Note_on_c, 0, 64, 0
1, 63803, Note_on_c, 0, 67, 0
1, 64320, Note_on_c, 0, 67, 80
1, 64320, Note_on_c, 0, 62, 80
1, 64547, Note_on_c, 0, 67, 0
1, 64560, Note_on_c, 0, 69, 80
1, 64787, Note_on_c, 0, 69, 0
1, 64800, Note_on_c, 0, 71, 80
1, 65027, Note_on_c, 0, 71, 0
1, 65040, Note_on_c, 0, 64, 80
1, 65040, Note_on_c, 0, 67, 80
1, 65040, Note_on_c, 0, 72, 80
1, 65231, Note_on_c, 0, 62, 0
1, 65495, Note_on_c, 0, 64, 0
1, 65495, Note_on_c, 0, 67, 0
1, 65495, Note_on_c, 0, 72, 0
1, 65520, Note_on_c, 0, 72, 80
1, 65747, Note_on_c, 0, 72, 0
1, 65760, Note_on_c, 0, 72, 80
1, 65987, Note_on_c, 0, 72, 0
1, 66000, Note_on_c, 0, 69, 80
1, 66227, Note_on_c, 0, 69, 0
1, 66240, Note_on_c, 0, 62, 80
1, 66240, Note_on_c, 0, 67, 80
1, 66240, Note_on_c, 0, 71, 80
1, 66695, Note_on_c, 0, 62, 0
1, 66695, Note_on_c, 0, 67, 0
1, 66695, Note_on_c, 0, 71, 0
1, 66720, Note_on_c, 0, 72, 80
1, 66947, Note_on_c, 0, 72, 0
1, 66960, Note_on_c, 0, 64, 80
1, 66960, Note_on_c, 0, 69, 80
1, 66960, Note_on_c, 0, 60, 80
1, 67643, Note_on_c, 0, 60, 0
1, 68099, Note_on_c, 0, 64, 0
1, 68099, Note_on_c, 0, 69, 0
1, 68400, Note_on_c, 0, 71, 80
1, 68627, Note_on_c, 0, 71, 0
1, 68640, Note_on_c, 0, 72, 80
1, 68880, Note_on_c, 0, 62, 80
1, 68910, Note_on_c, 0, 67, 80
1, 68943, Note_on_c, 0, 72, 0
1, 68960, Note_on_c, 0, 71, 80
1, 69040, Note_on_c, 0, 74, 80
1, 69107, Note_on_c, 0, 62, 0
1, 69336, Note_on_c, 0, 67, 0
1, 69339, Note_on_c, 0, 71, 0
1, 69343, Note_on_c, 0, 74, 0
1, 69360, Note_on_c, 0, 74, 80
1, 69587, Note_on_c, 0, 74, 0
1, 69600, Note_on_c, 0, 74, 80
1, 69827, Note_on_c, 0, 74, 0
1, 69840, Note_on_c, 0, 71, 80
1, 70067, Note_on_c, 0, 71, 0
1, 70080, Note_on_c, 0, 62, 80
1, 70110, Note_on_c, 0, 69, 80
1, 70125, Note_on_c, 0, 74, 80
1, 70194, Note_on_c, 0, 69, 0
1, 70195, Note_on_c, 0, 74, 0
1, 70319, Note_on_c, 0, 62, 0
1, 70320, Note_on_c, 0, 76, 80
1, 70775, Note_on_c, 0, 76, 0
1, 70800, Note_on_c, 0, 67, 80
1, 70800, Note_on_c, 0, 71, 80
1, 70800, Note_on_c, 0, 74, 80
1, 71255, Note_on_c, 0, 67, 0
1, 71255, Note_on_c, 0, 71, 0
1, 71255, Note_on_c, 0, 74, 0
1, 71280, Note_on_c, 0, 71, 80
1, 71735, Note_on_c, 0, 71, 0
1, 71760, Note_on_c, 0, 67, 80
1, 71760, Note_on_c, 0, 62, 80
1, 72215, Note_on_c, 0, 67, 0
1, 72240, Note_on_c, 0, 67, 80
1, 72443, Note_on_c, 0, 62, 0
1, 72467, Note_on_c, 0, 67, 0
1, 72480, Note_on_c, 0, 69, 80
1, 72707, Note_on_c, 0, 69, 0
1, 72720, Note_on_c, 0, 71, 80
1, 72947, Note_on_c, 0, 71, 0
1, 72960, Note_on_c, 0, 71, 80
1, 72960, Note_on_c, 0, 64, 80
1, 72960, Note_on_c, 0, 67, 80
1, 73187, Note_on_c, 0, 71, 0
1, 73200, Note_on_c, 0, 71, 80
1, 73415, Note_on_c, 0, 64, 0
1, 73427, Note_on_c, 0, 71, 0
1, 73440, Note_on_c, 0, 71, 80
1, 73667, Note_on_c, 0, 71, 0
1, 73680, Note_on_c, 0, 71, 80
1, 73871, Note_on_c, 0, 67, 0
1, 73907, Note_on_c, 0, 71, 0
1, 73920, Note_on_c, 0, 64, 80
1, 73950, Note_on_c, 0, 67, 80
1, 73980, Note_on_c, 0, 71, 80
1, 74040, Note_on_c, 0, 74, 80
1, 74148, Note_on_c, 0, 67, 0
1, 74150, Note_on_c, 0, 71, 0
1, 74159, Note_on_c, 0, 64, 0
1, 74219, Note_on_c, 0, 74, 0
1, 74400, Note_on_c, 0, 71, 80
1, 74627, Note_on_c, 0, 71, 0
1, 74640, Note_on_c, 0, 64, 80
1, 74640, Note_on_c, 0, 67, 80
1, 74640, Note_on_c, 0, 69, 80
1, 75779, Note_on_c, 0, 64, 0
1, 75779, Note_on_c, 0, 67, 0
1, 75779, Note_on_c, 0, 69, 0
1, 76080, Note_on_c, 0, 67, 80
1, 76307, Note_on_c, 0, 67, 0
1, 76320, Note_on_c, 0, 67, 80
1, 76560, Note_on_c, 0, 62, 80
1, 76590, Note_on_c, 0, 67, 0
1, 76590, Note_on_c, 0, 67, 80
1, 76640, Note_on_c, 0, 71, 80
1, 76720, Note_on_c, 0, 76, 80
1, 76787, Note_on_c, 0, 62, 0
1, 77023, Note_on_c, 0, 76, 0
1, 77040, Note_on_c, 0, 76, 80
1, 77472, Note_on_c, 0, 67, 0
1, 77520, Note_on_c, 0, 76, 0
1, 77520, Note_on_c, 0, 76, 80
1, 77520, Note_on_c, 0, 67, 80
1, 77520, Note_on_c, 0, 71, 0
1, 77520, Note_on_c, 0, 71, 80
1, 77975, Note_on_c, 0, 76, 0
1, 78000, Note_on_c, 0, 79, 80
1, 78227, Note_on_c, 0, 79, 0
1, 78240, Note_on_c, 0, 76, 80
1, 78431, Note_on_c, 0, 67, 0
1, 78431, Note_on_c, 0, 71, 0
1, 78480, Note_on_c, 0, 69, 80
1, 78510, Note_on_c, 0, 74, 80
1, 78543, Note_on_c, 0, 76, 0
1, 78560, Note_on_c, 0, 81, 80
1, 78935, Note_on_c, 0, 69, 0
1, 78936, Note_on_c, 0, 74, 0
1, 78939, Note_on_c, 0, 81, 0
1, 78960, Note_on_c, 0, 79, 80
1, 79415, Note_on_c, 0, 79, 0
1, 79440, Note_on_c, 0, 64, 80
1, 79470, Note_on_c, 0, 69, 80
1, 79520, Note_on_c, 0, 74, 80
1, 79667, Note_on_c, 0, 64, 0
1, 79896, Note_on_c, 0, 69, 0
1, 79899, Note_on_c, 0, 74, 0
1, 79920, Note_on_c, 0, 74, 80
1, 80147, Note_on_c, 0, 74, 0
1, 80160, Note_on_c, 0, 76, 80
1, 80387, Note_on_c, 0, 76, 0
1, 80400, Note_on_c, 0, 72, 80
1, 80400, Note_on_c, 0, 76, 80
1, 80400, Note_on_c, 0, 79, 80
1, 80855, Note_on_c, 0, 72, 0
1, 80855, Note_on_c, 0, 76, 0
1, 80855, Note_on_c, 0, 79, 0
1, 80880, Note_on_c, 0, 76, 80
1, 81107, Note_on_c, 0, 76, 0
1, 81120, Note_on_c, 0, 74, 80
1, 81347, Note_on_c, 0, 74, 0
1, 81360, Note_on_c, 0, 67, 80
1, 81360, Note_on_c, 0, 72, 80
1, 81360, Note_on_c, 0, 76, 80
1, 81815, Note_on_c, 0, 67, 0
1, 81815, Note_on_c, 0, 72, 0
1, 81815, Note_on_c, 0, 76, 0
1, 81840, Note_on_c, 0, 74, 80
1, 82067, Note_on_c, 0, 74, 0
1, 82080, Note_on_c, 0, 71, 80
1, 82307, Note_on_c, 0, 71, 0
1, 82320, Note_on_c, 0, 67, 80
1, 82320, Note_on_c, 0, 71, 80
1, 82320, Note_on_c, 0, 74, 80
1, 82775, Note_on_c, 0, 67, 0
1, 82775, Note_on_c, 0, 71, 0
1, 82775, Note_on_c, 0, 74, 0
1, 82800, Note_on_c, 0, 71, 80
1, 83255, Note_on_c, 0, 71, 0
1, 83280, Note_on_c, 0, 59, 80
1, 83280, Note_on_c, 0, 64, 80
1, 83310, Note_on_c, 0, 69, 80
1, 83963, Note_on_c, 0, 59, 0
1, 83963, Note_on_c, 0, 64, 0
1, 83964, Note_on_c, 0, 69, 0
1, 84000, Note_on_c, 0, 67, 80
1, 84227, Note_on_c, 0, 67, 0
1, 84240, Note_on_c, 0, 69, 80
1, 84467, Note_on_c, 0, 69, 0
1, 84480, Note_on_c, 0, 62, 80
1, 84480, Note_on_c, 0, 71, 80
1, 84707, Note_on_c, 0, 62, 0
1, 84707, Note_on_c, 0, 71, 0
1, 84720, Note_on_c, 0, 69, 80
1, 84720, Note_on_c, 0, 74, 80
1, 85175, Note_on_c, 0, 69, 0
1, 85175, Note_on_c, 0, 74, 0
1, 85200, Note_on_c, 0, 69, 80
1, 85200, Note_on_c, 0, 76, 80
1, 85655, Note_on_c, 0, 69, 0
1, 85655, Note_on_c, 0, 76, 0
1, 85680, Note_on_c, 0, 79, 80
1, 85907, Note_on_c, 0, 79, 0
1, 85920, Note_on_c, 0, 72, 80
1, 85920, Note_on_c, 0, 76, 80
1, 85920, Note_on_c, 0, 83, 80
1, 87059, Note_on_c, 0, 72, 0
1, 87059, Note_on_c, 0, 76, 0
1, 87059, Note_on_c, 0, 83, 0
1, 87120, Note_on_c, 0, 71, 80
1, 87347, Note_on_c, 0, 71, 0
1, 87360, Note_on_c, 0, 71, 80
1, 87360, Note_on_c, 0, 60, 80
1, 87360, Note_on_c, 0, 64, 80
1, 87360, Note_on_c, 0, 67, 80
1, 87587, Note_on_c, 0, 71, 0
1, 87600, Note_on_c, 0, 71, 80
1, 87815, Note_on_c, 0, 60, 0
1, 87815, Note_on_c, 0, 64, 0
1, 87815, Note_on_c, 0, 67, 0
1, 87827, Note_on_c, 0, 71, 0
1, 87840, Note_on_c, 0, 62, 80
1, 87840, Note_on_c, 0, 71, 80
1, 88067, Note_on_c, 0, 62, 0
1, 88067, Note_on_c, 0, 71, 0
1, 88080, Note_on_c, 0, 64, 80
1, 88080, Note_on_c, 0, 71, 80
1, 88307, Note_on_c, 0, 64, 0
1, 88307, Note_on_c, 0, 71, 0
1, 88560, Note_on_c, 0, 62, 80
1, 88679, Note_on_c, 0, 62, 0
1, 88800, Note_on_c, 0, 67, 80
1, 88919, Note_on_c, 0, 67, 0
1, 89040, Note_on_c, 0, 71, 80
1, 89495, Note_on_c, 0, 71, 0
1, 89520, Note_on_c, 0, 64, 80
1, 89520, Note_on_c, 0, 71, 80
1, 89975, Note_on_c, 0, 64, 0
1, 89975, Note_on_c, 0, 71, 0
1, 90000, Note_on_c, 0, 62, 80
1, 90000, Note_on_c, 0, 71, 80
1, 90455, Note_on_c, 0, 62, 0
1, 90455, Note_on_c, 0, 71, 0
1, 90480, Note_on_c, 0, 67, 80
1, 90935, Note_on_c, 0, 67, 0
1, 90960, Note_on_c, 0, 71, 80
1, 91415, Note_on_c, 0, 71, 0
1, 91440, Note_on_c, 0, 64, 80
1, 91440, Note_on_c, 0, 71, 80
1, 92123, Note_on_c, 0, 64, 0
1, 92123, Note_on_c, 0, 71, 0
1, 92160, Note_on_c, 0, 62, 80
1, 92387, Note_on_c, 0, 62, 0
1, 92400, Note_on_c, 0, 64, 80
1, 92627, Note_on_c, 0, 64, 0
1, 92640, Note_on_c, 0, 67, 80
1, 92867, Note_on_c, 0, 67, 0
1, 92880, Note_on_c, 0, 60, 80
1, 92880, Note_on_c, 0, 64, 80
1, 92880, Note_on_c, 0, 67, 80
1, 92880, Note_on_c, 0, 71, 80
1, 93563, Note_on_c, 0, 60, 0
1, 93563, Note_on_c, 0, 64, 0
1, 93563, Note_on_c, 0, 67, 0
1, 93563, Note_on_c, 0, 71, 0
1, 93600, Note_on_c, 0, 72, 80
1, 93827, Note_on_c, 0, 72, 0
1, 93840, Note_on_c, 0, 67, 80
1, 93840, Note_on_c, 0, 71, 80
1, 93840, Note_on_c, 0, 62, 80
1, 94067, Note_on_c, 0, 62, 0
1, 94295, Note_on_c, 0, 71, 0
1, 94320, Note_on_c, 0, 69, 80
1, 94979, Note_on_c, 0, 67, 0
1, 95003, Note_on_c, 0, 69, 0
1, 95040, Note_on_c, 0, 67, 80
1, 95040, Note_on_c, 0, 71, 80
1, 95495, Note_on_c, 0, 67, 0
1, 95495, Note_on_c, 0, 71, 0
1, 95520, Note_on_c, 0, 69, 80
1, 95520, Note_on_c, 0, 72, 80
1, 95975, Note_on_c, 0, 69, 0
1, 95975, Note_on_c, 0, 72, 0
1, 96000, Note_on_c, 0, 62, 80
1, 96020, Note_on_c, 0, 67, 80
1, 96040, Note_on_c, 0, 71, 80
1, 96080, Note_on_c, 0, 74, 80
1, 96114, Note_on_c, 0, 67, 0
1, 96115, Note_on_c, 0, 71, 0
1, 96117, Note_on_c, 0, 74, 0
1, 96239, Note_on_c, 0, 62, 0
1, 96240, Note_on_c, 0, 71, 80
1, 96240, Note_on_c, 0, 74, 80
1, 96467, Note_on_c, 0, 71, 0
1, 96467, Note_on_c, 0, 74, 0
1, 96480, Note_on_c, 0, 71, 80
1, 96480, Note_on_c, 0, 74, 80
1, 96707, Note_on_c, 0, 71, 0
1, 96707, Note_on_c, 0, 74, 0
1, 96720, Note_on_c, 0, 71, 80
1, 96720, Note_on_c, 0, 74, 80
1, 96947, Note_on_c, 0, 71, 0
1, 96947, Note_on_c, 0, 74, 0
1, 96960, Note_on_c, 0, 71, 80
1, 96960, Note_on_c, 0, 74, 80
1, 97187, Note_on_c, 0, 71, 0
1, 97187, Note_on_c, 0, 74, 0
1, 97200, Note_on_c, 0, 72, 80
1, 97200, Note_on_c, 0, 76, 80
1, 97655, Note_on_c, 0, 72, 0
1, 97655, Note_on_c, 0, 76, 0
1, 97680, Note_on_c, 0, 69, 80
1, 97680, Note_on_c, 0, 74, 80
1, 98819, Note_on_c, 0, 69, 0
1, 98819, Note_on_c, 0, 74, 0
1, 98880, Note_on_c, 0, 69, 80
1, 98880, Note_on_c, 0, 74, 80
1, 99183, Note_on_c, 0, 69, 0
1, 99183, Note_on_c, 0, 74, 0
1, 99200, Note_on_c, 0, 76, 80
1, 99503, Note_on_c, 0, 76, 0
1, 99520, Note_on_c, 0, 74, 80
1, 99823, Note_on_c, 0, 74, 0
1, 99840, Note_on_c, 0, 71, 80
1, 99840, Note_on_c, 0, 74, 80
1, 99840, Note_on_c, 0, 64, 80
1, 100751, Note_on_c, 0, 64, 0
1, 100865, Note_on_c, 0, 71, 0
1, 100865, Note_on_c, 0, 74, 0
1, 101040, Note_on_c, 0, 71, 80
1, 101040, Note_on_c, 0, 74, 80
1, 101267, Note_on_c, 0, 71, 0
1, 101267, Note_on_c, 0, 74, 0
1, 101280, Note_on_c, 0, 72, 80
1, 101280, Note_on_c, 0, 76, 80
1, 101507, Note_on_c, 0, 72, 0
1, 101507, Note_on_c, 0, 76, 0
1, 101520, Note_on_c, 0, 74, 80
1, 101520, Note_on_c, 0, 77, 80
1, 102203, Note_on_c, 0, 74, 0
1, 102203, Note_on_c, 0, 77, 0
1, 102240, Note_on_c, 0, 74, 80
1, 102240, Note_on_c, 0, 77, 80
1, 102695, Note_on_c, 0, 74, 0
1, 102695, Note_on_c, 0, 77, 0
1, 102720, Note_on_c, 0, 72, 80
1, 102720, Note_on_c, 0, 76, 80
1, 102947, Note_on_c, 0, 72, 0
1, 102947, Note_on_c, 0, 76, 0
1, 102960, Note_on_c, 0, 71, 80
1, 102960, Note_on_c, 0, 74, 80
1, 103415, Note_on_c, 0, 71, 0
1, 103415, Note_on_c, 0, 74, 0
1, 103440, Note_on_c, 0, 69, 80
1, 103440, Note_on_c, 0, 72, 80
1, 103440, Note_on_c, 0, 64, 80
1, 104123, Note_on_c, 0, 64, 0
1, 104579, Note_on_c, 0, 69, 0
1, 104579, Note_on_c, 0, 72, 0
1, 104880, Note_on_c, 0, 69, 80
1, 104880, Note_on_c, 0, 72, 80
1, 105107, Note_on_c, 0, 69, 0
1, 105107, Note_on_c, 0, 72, 0
1, 105120, Note_on_c, 0, 71, 80
1, 105120, Note_on_c, 0, 74, 80
1, 105347, Note_on_c, 0, 71, 0
1, 105347, Note_on_c, 0, 74, 0
1, 105360, Note_on_c, 0, 67, 80
1, 105360, Note_on_c, 0, 72, 80
1, 106043, Note_on_c, 0, 67, 0
1, 106043, Note_on_c, 0, 72, 0
1, 106080, Note_on_c, 0, 72, 80
1, 106307, Note_on_c, 0, 72, 0
1, 106320, Note_on_c, 0, 71, 80
1, 106320, Note_on_c, 0, 74, 80
1, 106775, Note_on_c, 0, 71, 0
1, 106775, Note_on_c, 0, 74, 0
1, 106800, Note_on_c, 0, 69, 80
1, 106800, Note_on_c, 0, 72, 80
1, 107255, Note_on_c, 0, 69, 0
1, 107255, Note_on_c, 0, 72, 0
1, 107280, Note_on_c, 0, 67, 80
1, 107280, Note_on_c, 0, 71, 80
1, 107507, Note_on_c, 0, 67, 0
1, 107507, Note_on_c, 0, 71, 0
1, 108000, Note_on_c, 0, 62, 80
1, 108000, Note_on_c, 0, 71, 80
1, 108227, Note_on_c, 0, 62, 0
1, 108227, Note_on_c, 0, 71, 0
1, 108240, Note_on_c, 0, 67, 80
1, 108467, Note_on_c, 0, 67, 0
1, 108480, Note_on_c, 0, 62, 80
1, 108480, Note_on_c, 0, 69, 80
1, 108935, Note_on_c, 0, 62, 0
1, 108935, Note_on_c, 0, 69, 0
1, 108960, Note_on_c, 0, 67, 80
1, 109187, Note_on_c, 0, 67, 0
1, 109200, Note_on_c, 0, 57, 80
1, 109200, Note_on_c, 0, 60, 80
1, 109200, Note_on_c, 0, 64, 80
1, 110111, Note_on_c, 0, 57, 0
1, 110111, Note_on_c, 0, 60, 0
1, 110111, Note_on_c, 0, 64, 0
1, 110160, Note_on_c, 0, 57, 80
1, 110160, Note_on_c, 0, 60, 80
1, 110160, Note_on_c, 0, 64, 80
1, 111185, Note_on_c, 0, 57, 0
1, 111185, Note_on_c, 0, 60, 0
1, 111185, Note_on_c, 0, 64, 0
1, 111360, Note_on_c, 0, 57, 80
1, 111360, Note_on_c, 0, 60, 80
1, 111360, Note_on_c, 0, 64, 80
1, 112043, Note_on_c, 0, 57, 0
1, 112043, Note_on_c, 0, 60, 0
1, 112043, Note_on_c, 0, 64, 0
1, 112080, Note_on_c, 0, 57, 80
1, 112080, Note_on_c, 0, 60, 80
1, 112080, Note_on_c, 0, 64, 80
1, 112763, Note_on_c, 0, 57, 0
1, 112763, Note_on_c, 0, 60, 0
1, 112763, Note_on_c, 0, 64, 0
1, 112800, Note_on_c, 0, 62, 80
1, 112800, Note_on_c, 0, 71, 80
1, 113027, Note_on_c, 0, 62, 0
1, 113027, Note_on_c, 0, 71, 0
1, 113040, Note_on_c, 0, 64, 80
1, 113040, Note_on_c, 0, 71, 80
1, 113495, Note_on_c, 0, 64, 0
1, 113495, Note_on_c, 0, 71, 0
1, 113520, Note_on_c, 0, 62, 80
1, 113639, Note_on_c, 0, 62, 0
1, 113760, Note_on_c, 0, 67, 80
1, 113879, Note_on_c, 0, 67, 0
1, 114000, Note_on_c, 0, 71, 80
1, 114455, Note_on_c, 0, 71, 0
1, 114480, Note_on_c, 0, 64, 80
1, 114480, Note_on_c, 0, 71, 80
1, 114935, Note_on_c, 0, 64, 0
1, 114935, Note_on_c, 0, 71, 0
1, 114960, Note_on_c, 0, 62, 80
1, 114960, Note_on_c, 0, 71, 80
1, 115415, Note_on_c, 0, 62, 0
1, 115415, Note_on_c, 0, 71, 0
1, 115440, Note_on_c, 0, 67, 80
1, 115895, Note_on_c, 0, 67, 0
1, 115920, Note_on_c, 0, 71, 80
1, 116375, Note_on_c, 0, 71, 0
1, 116400, Note_on_c, 0, 64, 80
1, 116400, Note_on_c, 0, 71, 80
1, 117083, Note_on_c, 0, 64, 0
1, 117083, Note_on_c, 0, 71, 0
1, 117120, Note_on_c, 0, 62, 80
1, 117347, Note_on_c, 0, 62, 0
1, 117360, Note_on_c, 0, 64, 80
1, 117587, Note_on_c, 0, 64, 0
1, 117600, Note_on_c, 0, 67, 80
1, 117827, Note_on_c, 0, 67, 0
1, 117840, Note_on_c, 0, 60, 80
1, 117840, Note_on_c, 0, 64, 80
1, 117840, Note_on_c, 0, 67, 80
1, 117840, Note_on_c, 0, 71, 80
1, 118523, Note_on_c, 0, 60, 0
1, 118523, Note_on_c, 0, 64, 0
1, 118523, Note_on_c, 0, 67, 0
1, 118523, Note_on_c, 0, 71, 0
1, 118560, Note_on_c, 0, 72, 80
1, 118787, Note_on_c, 0, 72, 0
1, 118800, Note_on_c, 0, 62, 80
1, 118800, Note_on_c, 0, 67, 80
1, 118800, Note_on_c, 0, 71, 80
1, 119027, Note_on_c, 0, 62, 0
1, 119027, Note_on_c, 0, 67, 0
1, 119027, Note_on_c, 0, 71, 0
1, 119280, Note_on_c, 0, 69, 80
1, 119963, Note_on_c, 0, 69, 0
1, 120000, Note_on_c, 0, 67, 80
1, 120000, Note_on_c, 0, 71, 80
1, 120455, Note_on_c, 0, 67, 0
1, 120455, Note_on_c, 0, 71, 0
1, 120480, Note_on_c, 0, 69, 80
1, 120480, Note_on_c, 0, 72, 80
1, 120935, Note_on_c, 0, 69, 0
1, 120935, Note_on_c, 0, 72, 0
1, 120960, Note_on_c, 0, 62, 80
1, 120980, Note_on_c, 0, 67, 80
1, 121000, Note_on_c, 0, 71, 80
1, 121040, Note_on_c, 0, 74, 80
1, 121074, Note_on_c, 0, 67, 0
1, 121075, Note_on_c, 0, 71, 0
1, 121077, Note_on_c, 0, 74, 0
1, 121199, Note_on_c, 0, 62, 0
1, 121200, Note_on_c, 0, 71, 80
1, 121200, Note_on_c, 0, 74, 80
1, 121427, Note_on_c, 0, 71, 0
1, 121427, Note_on_c, 0, 74, 0
1, 121440, Note_on_c, 0, 71, 80
1, 121440, Note_on_c, 0, 74, 80
1, 121667, Note_on_c, 0, 71, 0
1, 121667, Note_on_c, 0, 74, 0
1, 121680, Note_on_c, 0, 71, 80
1, 121680, Note_on_c, 0, 74, 80
1, 121907, Note_on_c, 0, 71, 0
1, 121907, Note_on_c, 0, 74, 0
1, 121920, Note_on_c, 0, 71, 80
1, 121920, Note_on_c, 0, 74, 80
1, 122147, Note_on_c, 0, 71, 0
1, 122147, Note_on_c, 0, 74, 0
1, 122160, Note_on_c, 0, 72, 80
1, 122160, Note_on_c, 0, 76, 80
1, 122615, Note_on_c, 0, 72, 0
1, 122615, Note_on_c, 0, 76, 0
1, 122640, Note_on_c, 0, 69, 80
1, 122640, Note_on_c, 0, 74, 80
1, 123779, Note_on_c, 0, 69, 0
1, 123779, Note_on_c, 0, 74, 0
1, 123840, Note_on_c, 0, 69, 80
1, 123840, Note_on_c, 0, 74, 80
1, 124143, Note_on_c, 0, 69, 0
1, 124143, Note_on_c, 0, 74, 0
1, 124160, Note_on_c, 0, 76, 80
1, 124463, Note_on_c, 0, 76, 0
1, 124480, Note_on_c, 0, 74, 80
1, 124783, Note_on_c, 0, 74, 0
1, 124800, Note_on_c, 0, 71, 80
1, 124800, Note_on_c, 0, 74, 80
1, 124800, Note_on_c, 0, 64, 80
1, 125711, Note_on_c, 0, 64, 0
1, 125825, Note_on_c, 0, 71, 0
1, 125825, Note_on_c, 0, 74, 0
1, 126000, Note_on_c, 0, 71, 80
1, 126000, Note_on_c, 0, 74, 80
1, 126227, Note_on_c, 0, 71, 0
1, 126227, Note_on_c, 0, 74, 0
1, 126240, Note_on_c, 0, 72, 80
1, 126240, Note_on_c, 0, 76, 80
1, 126467, Note_on_c, 0, 72, 0
1, 126467, Note_on_c, 0, 76, 0
1, 126480, Note_on_c, 0, 74, 80
1, 126480, Note_on_c, 0, 77, 80
1, 127163, Note_on_c, 0, 74, 0
1, 127163, Note_on_c, 0, 77, 0
1, 127200, Note_on_c, 0, 74, 80
1, 127200, Note_on_c, 0, 77, 80
1, 127655, Note_on_c, 0, 74, 0
1, 127655, Note_on_c, 0, 77, 0
1, 127680, Note_on_c, 0, 72, 80
1, 127680, Note_on_c, 0, 76, 80
1, 127907, Note_on_c, 0, 72, 0
1, 127907, Note_on_c, 0, 76, 0
1, 127920, Note_on_c, 0, 71, 80
1, 127920, Note_on_c, 0, 74, 80
1, 128375, Note_on_c, 0, 71, 0
1, 128375, Note_on_c, 0, 74, 0
1, 128400, Note_on_c, 0, 69, 80
1, 128400, Note_on_c, 0, 72, 80
1, 128400, Note_on_c, 0, 64, 80
1, 129083, Note_on_c, 0, 64, 0
1, 129539, Note_on_c, 0, 69, 0
1, 129539, Note_on_c, 0, 72, 0
1, 129840, Note_on_c, 0, 69, 80
1, 129840, Note_on_c, 0, 72, 80
1, 130067, Note_on_c, 0, 69, 0
1, 130067, Note_on_c, 0, 72, 0
1, 130080, Note_on_c, 0, 71, 80
1, 130080, Note_on_c, 0, 74, 80
1, 130307, Note_on_c, 0, 71, 0
1, 130307, Note_on_c, 0, 74, 0
1, 130320, Note_on_c, 0, 67, 80
1, 130320, Note_on_c, 0, 72, 80
1, 131003, Note_on_c, 0, 67, 0
1, 131003, Note_on_c, 0, 72, 0
1, 131040, Note_on_c, 0, 72, 80
1, 131267, Note_on_c, 0, 72, 0
1, 131280, Note_on_c, 0, 71, 80
1, 131280, Note_on_c, 0, 74, 80
1, 131735, Note_on_c, 0, 71, 0
1, 131735, Note_on_c, 0, 74, 0
1, 131760, Note_on_c, 0, 69, 80
1, 131760, Note_on_c, 0, 72, 80
1, 132215, Note_on_c, 0, 69, 0
1, 132215, Note_on_c, 0, 72, 0
1, 132240, Note_on_c, 0, 67, 80
1, 132240, Note_on_c, 0, 71, 80
1, 132467, Note_on_c, 0, 67, 0
1, 132467, Note_on_c, 0, 71, 0
1, 132960, Note_on_c, 0, 62, 80
1, 132960, Note_on_c, 0, 71, 80
1, 133187, Note_on_c, 0, 62, 0
1, 133187, Note_on_c, 0, 71, 0
1, 133200, Note_on_c, 0, 67, 80
1, 133427, Note_on_c, 0, 67, 0
1, 133440, Note_on_c, 0, 62, 80
1, 133440, Note_on_c, 0, 69, 80
1, 133895, Note_on_c, 0, 62, 0
1, 133895, Note_on_c, 0, 69, 0
1, 133920, Note_on_c, 0, 67, 80
1, 134147, Note_on_c, 0, 67, 0
1, 134160, Note_on_c, 0, 57, 80
1, 134160, Note_on_c, 0, 60, 80
1, 134160, Note_on_c, 0, 64, 80
1, 135071, Note_on_c, 0, 57, 0
1, 135071, Note_on_c, 0, 60, 0
1, 135071, Note_on_c, 0, 64, 0
1, 135120, Note_on_c, 0, 57, 80
1, 135120, Note_on_c, 0, 60, 80
1, 135120, Note_on_c, 0, 64, 80
1, 136145, Note_on_c, 0, 57, 0
1, 136145, Note_on_c, 0, 60, 0
1, 136145, Note_on_c, 0, 64, 0
1, 136320, Note_on_c, 0, 57, 80
1, 136320, Note_on_c, 0, 60, 80
1, 136320, Note_on_c, 0, 64, 80
1, 137003, Note_on_c, 0, 57, 0
1, 137003, Note_on_c, 0, 60, 0
1, 137003, Note_on_c, 0, 64, 0
1, 137040, Note_on_c, 0, 57, 80
1, 137040, Note_on_c, 0, 60, 80
1, 137040, Note_on_c, 0, 64, 80
1, 137723, Note_on_c, 0, 57, 0
1, 137723, Note_on_c, 0, 60, 0
1, 137723, Note_on_c, 0, 64, 0
1, 137760, Note_on_c, 0, 62, 80
1, 137760, Note_on_c, 0, 71, 80
1, 137987, Note_on_c, 0, 62, 0
1, 137987, Note_on_c, 0, 71, 0
1, 138000, Note_on_c, 0, 64, 80
1, 138000, Note_on_c, 0, 71, 80
1, 138455, Note_on_c, 0, 64, 0
1, 138455, Note_on_c, 0, 71, 0
1, 138480, Note_on_c, 0, 62, 80
1, 138707, Note_on_c, 0, 62, 0
1, 138720, Note_on_c, 0, 67, 80
1, 138947, Note_on_c, 0, 67, 0
1, 138960, Note_on_c, 0, 71, 80
1, 139415, Note_on_c, 0, 71, 0
1, 139440, Note_on_c, 0, 64, 80
1, 139440, Note_on_c, 0, 71, 80
1, 139895, Note_on_c, 0, 64, 0
1, 139895, Note_on_c, 0, 71, 0
1, 139920, Note_on_c, 0, 62, 80
1, 139920, Note_on_c, 0, 71, 80
1, 140375, Note_on_c, 0, 62, 0
1, 140375, Note_on_c, 0, 71, 0
1, 140400, Note_on_c, 0, 67, 80
1, 140855, Note_on_c, 0, 67, 0
1, 140880, Note_on_c, 0, 71, 80
1, 141335, Note_on_c, 0, 71, 0
1, 141360, Note_on_c, 0, 64, 80
1, 141360, Note_on_c, 0, 71, 80
1, 142043, Note_on_c, 0, 64, 0
1, 142043, Note_on_c, 0, 71, 0
1, 142080, Note_on_c, 0, 62, 80
1, 142080, Note_on_c, 0, 67, 80
1, 142080, Note_on_c, 0, 71, 80
1, 143903, Note_on_c, 0, 62, 0
1, 143903, Note_on_c, 0, 67, 0
1, 143903, Note_on_c, 0, 71, 0
1, 143904, End_track
2, 0, Start_track
2, 0, Title_t, "Piano, Piano, Piano\000"
2, 0, Key_signature, 0, "major"
2, 0, MIDI_port, 0
2, 0, Note_on_c, 0, 55, 80
2, 227, Note_on_c, 0, 55, 0
2, 240, Note_on_c, 0, 62, 80
2, 467, Note_on_c, 0, 62, 0
2, 480, Note_on_c, 0, 67, 80
2, 707, Note_on_c, 0, 67, 0
2, 720, Note_on_c, 0, 69, 80
2, 1175, Note_on_c, 0, 69, 0
2, 1200, Note_on_c, 0, 67, 80
2, 1200, Note_on_c, 0, 71, 80
2, 1427, Note_on_c, 0, 67, 0
2, 1427, Note_on_c, 0, 71, 0
2, 1680, Note_on_c, 0, 62, 80
2, 1907, Note_on_c, 0, 62, 0
2, 1920, Note_on_c, 0, 55, 80
2, 2147, Note_on_c, 0, 55, 0
2, 2160, Note_on_c, 0, 62, 80
2, 2387, Note_on_c, 0, 62, 0
2, 2400, Note_on_c, 0, 67, 80
2, 2627, Note_on_c, 0, 67, 0
2, 2640, Note_on_c, 0, 69, 80
2, 3095, Note_on_c, 0, 69, 0
2, 3120, Note_on_c, 0, 64, 80
2, 3120, Note_on_c, 0, 71, 80
2, 3575, Note_on_c, 0, 64, 0
2, 3575, Note_on_c, 0, 71, 0
2, 3600, Note_on_c, 0, 64, 80
2, 3827, Note_on_c, 0, 64, 0
2, 3840, Note_on_c, 0, 55, 80
2, 3840, Note_on_c, 0, 48, 80
2, 4523, Note_on_c, 0, 55, 0
2, 4560, Note_on_c, 0, 55, 80
2, 4787, Note_on_c, 0, 55, 0
2, 4800, Note_on_c, 0, 55, 80
2, 5663, Note_on_c, 0, 48, 0
2, 5711, Note_on_c, 0, 55, 0
2, 5760, Note_on_c, 0, 50, 80
2, 5760, Note_on_c, 0, 60, 80
2, 7127, Note_on_c, 0, 50, 0
2, 7127, Note_on_c, 0, 60, 0
2, 7680, Note_on_c, 0, 55, 80
2, 7907, Note_on_c, 0, 55, 0
2, 7920, Note_on_c, 0, 50, 80
2, 8147, Note_on_c, 0, 50, 0
2, 8160, Note_on_c, 0, 59, 80
2, 8387, Note_on_c, 0, 59, 0
2, 8400, Note_on_c, 0, 55, 80
2, 8627, Note_on_c, 0, 55, 0
2, 8640, Note_on_c, 0, 59, 80
2, 8867, Note_on_c, 0, 59, 0
2, 8880, Note_on_c, 0, 55, 80
2, 9107, Note_on_c, 0, 55, 0
2, 9120, Note_on_c, 0, 59, 80
2, 9347, Note_on_c, 0, 59, 0
2, 9360, Note_on_c, 0, 55, 80
2, 9587, Note_on_c, 0, 55, 0
2, 9600, Note_on_c, 0, 57, 80
2, 9827, Note_on_c, 0, 57, 0
2, 9840, Note_on_c, 0, 60, 80
2, 10067, Note_on_c, 0, 60, 0
2, 10080, Note_on_c, 0, 64, 80
2, 10307, Note_on_c, 0, 64, 0
2, 10320, Note_on_c, 0, 60, 80
2, 10547, Note_on_c, 0, 60, 0
2, 10560, Note_on_c, 0, 52, 80
2, 10787, Note_on_c, 0, 52, 0
2, 10800, Note_on_c, 0, 59, 80
2, 11027, Note_on_c, 0, 59, 0
2, 11040, Note_on_c, 0, 55, 80
2, 11267, Note_on_c, 0, 55, 0
2, 11280, Note_on_c, 0, 52, 80
2, 11507, Note_on_c, 0, 52, 0
2, 11520, Note_on_c, 0, 57, 80
2, 11747, Note_on_c, 0, 57, 0
2, 11760, Note_on_c, 0, 52, 80
2, 11987, Note_on_c, 0, 52, 0
2, 12000, Note_on_c, 0, 60, 80
2, 12227, Note_on_c, 0, 60, 0
2, 12240, Note_on_c, 0, 57, 80
2, 12467, Note_on_c, 0, 57, 0
2, 12480, Note_on_c, 0, 59, 80
2, 12707, Note_on_c, 0, 59, 0
2, 12720, Note_on_c, 0, 52, 80
2, 12947, Note_on_c, 0, 52, 0
2, 12960, Note_on_c, 0, 59, 80
2, 13187, Note_on_c, 0, 59, 0
2, 13200, Note_on_c, 0, 52, 80
2, 13427, Note_on_c, 0, 52, 0
2, 13440, Note_on_c, 0, 50, 80
2, 13667, Note_on_c, 0, 50, 0
2, 13680, Note_on_c, 0, 57, 80
2, 13907, Note_on_c, 0, 57, 0
2, 13920, Note_on_c, 0, 60, 80
2, 14160, Note_on_c, 0, 57, 80
2, 14375, Note_on_c, 0, 60, 0
2, 14387, Note_on_c, 0, 57, 0
2, 14400, Note_on_c, 0, 62, 80
2, 14627, Note_on_c, 0, 62, 0
2, 14640, Note_on_c, 0, 57, 80
2, 14867, Note_on_c, 0, 57, 0
2, 14880, Note_on_c, 0, 60, 80
2, 15107, Note_on_c, 0, 60, 0
2, 15120, Note_on_c, 0, 57, 80
2, 15120, Note_on_c, 0, 62, 80
2, 15347, Note_on_c, 0, 57, 0
2, 15347, Note_on_c, 0, 62, 0
2, 15360, Note_on_c, 0, 55, 80
2, 15587, Note_on_c, 0, 55, 0
2, 15600, Note_on_c, 0, 59, 80
2, 15827, Note_on_c, 0, 59, 0
2, 15840, Note_on_c, 0, 62, 80
2, 16067, Note_on_c, 0, 62, 0
2, 16080, Note_on_c, 0, 59, 80
2, 16307, Note_on_c, 0, 59, 0
2, 16320, Note_on_c, 0, 59, 80
2, 16320, Note_on_c, 0, 62, 80
2, 16547, Note_on_c, 0, 59, 0
2, 16547, Note_on_c, 0, 62, 0
2, 16560, Note_on_c, 0, 62, 80
2, 16787, Note_on_c, 0, 62, 0
2, 16800, Note_on_c, 0, 67, 80
2, 17027, Note_on_c, 0, 67, 0
2, 17040, Note_on_c, 0, 62, 80
2, 17267, Note_on_c, 0, 62, 0
2, 17280, Note_on_c, 0, 52, 80
2, 17507, Note_on_c, 0, 52, 0
2, 17520, Note_on_c, 0, 59, 80
2, 17747, Note_on_c, 0, 59, 0
2, 17760, Note_on_c, 0, 62, 80
2, 17987, Note_on_c, 0, 62, 0
2, 18000, Note_on_c, 0, 59, 80
2, 18227, Note_on_c, 0, 59, 0
2, 18240, Note_on_c, 0, 52, 80
2, 18467, Note_on_c, 0, 52, 0
2, 18480, Note_on_c, 0, 59, 80
2, 18707, Note_on_c, 0, 59, 0
2, 18720, Note_on_c, 0, 62, 80
2, 18960, Note_on_c, 0, 59, 80
2, 19175, Note_on_c, 0, 62, 0
2, 19187, Note_on_c, 0, 59, 0
2, 19200, Note_on_c, 0, 57, 80
2, 19427, Note_on_c, 0, 57, 0
2, 19440, Note_on_c, 0, 60, 80
2, 19667, Note_on_c, 0, 60, 0
2, 19680, Note_on_c, 0, 64, 80
2, 19920, Note_on_c, 0, 60, 80
2, 20135, Note_on_c, 0, 64, 0
2, 20147, Note_on_c, 0, 60, 0
2, 20400, Note_on_c, 0, 60, 80
2, 20627, Note_on_c, 0, 60, 0
2, 20640, Note_on_c, 0, 64, 80
2, 20867, Note_on_c, 0, 64, 0
2, 20880, Note_on_c, 0, 60, 80
2, 21107, Note_on_c, 0, 60, 0
2, 21120, Note_on_c, 0, 50, 80
2, 21347, Note_on_c, 0, 50, 0
2, 21360, Note_on_c, 0, 57, 80
2, 21587, Note_on_c, 0, 57, 0
2, 21600, Note_on_c, 0, 62, 80
2, 21827, Note_on_c, 0, 62, 0
2, 21840, Note_on_c, 0, 57, 80
2, 22067, Note_on_c, 0, 57, 0
2, 22320, Note_on_c, 0, 57, 80
2, 22547, Note_on_c, 0, 57, 0
2, 22560, Note_on_c, 0, 62, 80
2, 22787, Note_on_c, 0, 62, 0
2, 22800, Note_on_c, 0, 57, 80
2, 23027, Note_on_c, 0, 57, 0
2, 23040, Note_on_c, 0, 48, 80
2, 23267, Note_on_c, 0, 48, 0
2, 23280, Note_on_c, 0, 55, 80
2, 23507, Note_on_c, 0, 55, 0
2, 23520, Note_on_c, 0, 60, 80
2, 23747, Note_on_c, 0, 60, 0
2, 23760, Note_on_c, 0, 55, 80
2, 23987, Note_on_c, 0, 55, 0
2, 24000, Note_on_c, 0, 64, 80
2, 24227, Note_on_c, 0, 64, 0
2, 24240, Note_on_c, 0, 55, 80
2, 24467, Note_on_c, 0, 55, 0
2, 24480, Note_on_c, 0, 60, 80
2, 24707, Note_on_c, 0, 60, 0
2, 24720, Note_on_c, 0, 55, 80
2, 24947, Note_on_c, 0, 55, 0
2, 24960, Note_on_c, 0, 55, 80
2, 25187, Note_on_c, 0, 55, 0
2, 25200, Note_on_c, 0, 62, 80
2, 25427, Note_on_c, 0, 62, 0
2, 25440, Note_on_c, 0, 67, 80
2, 25667, Note_on_c, 0, 67, 0
2, 25680, Note_on_c, 0, 62, 80
2, 25907, Note_on_c, 0, 62, 0
2, 25920, Note_on_c, 0, 67, 80
2, 26147, Note_on_c, 0, 67, 0
2, 26160, Note_on_c, 0, 62, 80
2, 26387, Note_on_c, 0, 62, 0
2, 26400, Note_on_c, 0, 67, 80
2, 26627, Note_on_c, 0, 67, 0
2, 26640, Note_on_c, 0, 62, 80
2, 26867, Note_on_c, 0, 62, 0
2, 26880, Note_on_c, 0, 57, 80
2, 27107, Note_on_c, 0, 57, 0
2, 27120, Note_on_c, 0, 60, 80
2, 27347, Note_on_c, 0, 60, 0
2, 27360, Note_on_c, 0, 64, 80
2, 27587, Note_on_c, 0, 64, 0
2, 27600, Note_on_c, 0, 60, 80
2, 27827, Note_on_c, 0, 60, 0
2, 27840, Note_on_c, 0, 64, 80
2, 28067, Note_on_c, 0, 64, 0
2, 28080, Note_on_c, 0, 57, 80
2, 28307, Note_on_c, 0, 57, 0
2, 28320, Note_on_c, 0, 60, 80
2, 28547, Note_on_c, 0, 60, 0
2, 28560, Note_on_c, 0, 57, 80
2, 28787, Note_on_c, 0, 57, 0
2, 28800, Note_on_c, 0, 53, 80
2, 29027, Note_on_c, 0, 53, 0
2, 29040, Note_on_c, 0, 60, 80
2, 29267, Note_on_c, 0, 60, 0
2, 29280, Note_on_c, 0, 64, 80
2, 29519, Note_on_c, 0, 64, 0
2, 29760, Note_on_c, 0, 57, 80
2, 29987, Note_on_c, 0, 57, 0
2, 30000, Note_on_c, 0, 53, 80
2, 30227, Note_on_c, 0, 53, 0
2, 30240, Note_on_c, 0, 57, 80
2, 30467, Note_on_c, 0, 57, 0
2, 30480, Note_on_c, 0, 53, 80
2, 30707, Note_on_c, 0, 53, 0
2, 30720, Note_on_c, 0, 59, 80
2, 30959, Note_on_c, 0, 59, 0
2, 31440, Note_on_c, 0, 59, 80
2, 32123, Note_on_c, 0, 59, 0
2, 32640, Note_on_c, 0, 50, 80
2, 33095, Note_on_c, 0, 50, 0
2, 33120, Note_on_c, 0, 50, 80
2, 34487, Note_on_c, 0, 50, 0
2, 34560, Note_on_c, 0, 50, 80
2, 34560, Note_on_c, 0, 55, 80
2, 35015, Note_on_c, 0, 50, 0
2, 35015, Note_on_c, 0, 55, 0
2, 35280, Note_on_c, 0, 62, 80
2, 35507, Note_on_c, 0, 62, 0
2, 35520, Note_on_c, 0, 50, 80
2, 35520, Note_on_c, 0, 55, 80
2, 35975, Note_on_c, 0, 50, 0
2, 35975, Note_on_c, 0, 55, 0
2, 36000, Note_on_c, 0, 50, 80
2, 36455, Note_on_c, 0, 50, 0
2, 36480, Note_on_c, 0, 50, 80
2, 36480, Note_on_c, 0, 55, 80
2, 36935, Note_on_c, 0, 50, 0
2, 36935, Note_on_c, 0, 55, 0
2, 37200, Note_on_c, 0, 62, 80
2, 37427, Note_on_c, 0, 62, 0
2, 37440, Note_on_c, 0, 50, 80
2, 37440, Note_on_c, 0, 55, 80
2, 37895, Note_on_c, 0, 50, 0
2, 37895, Note_on_c, 0, 55, 0
2, 37920, Note_on_c, 0, 50, 80
2, 38147, Note_on_c, 0, 50, 0
2, 38160, Note_on_c, 0, 50, 80
2, 38387, Note_on_c, 0, 50, 0
2, 38400, Note_on_c, 0, 52, 80
2, 38400, Note_on_c, 0, 59, 80
2, 38855, Note_on_c, 0, 52, 0
2, 38855, Note_on_c, 0, 59, 0
2, 39360, Note_on_c, 0, 55, 80
2, 39815, Note_on_c, 0, 55, 0
2, 39840, Note_on_c, 0, 55, 80
2, 40295, Note_on_c, 0, 55, 0
2, 40320, Note_on_c, 0, 48, 80
2, 40547, Note_on_c, 0, 48, 0
2, 40560, Note_on_c, 0, 55, 80
2, 40787, Note_on_c, 0, 55, 0
2, 40800, Note_on_c, 0, 60, 80
2, 41027, Note_on_c, 0, 60, 0
2, 41040, Note_on_c, 0, 55, 80
2, 41267, Note_on_c, 0, 55, 0
2, 41280, Note_on_c, 0, 64, 80
2, 41507, Note_on_c, 0, 64, 0
2, 41520, Note_on_c, 0, 55, 80
2, 41747, Note_on_c, 0, 55, 0
2, 41760, Note_on_c, 0, 60, 80
2, 41987, Note_on_c, 0, 60, 0
2, 42000, Note_on_c, 0, 55, 80
2, 42227, Note_on_c, 0, 55, 0
2, 42240, Note_on_c, 0, 55, 80
2, 42467, Note_on_c, 0, 55, 0
2, 42480, Note_on_c, 0, 62, 80
2, 42707, Note_on_c, 0, 62, 0
2, 42720, Note_on_c, 0, 67, 80
2, 42947, Note_on_c, 0, 67, 0
2, 42960, Note_on_c, 0, 62, 80
2, 43187, Note_on_c, 0, 62, 0
2, 43200, Note_on_c, 0, 55, 80
2, 43427, Note_on_c, 0, 55, 0
2, 43440, Note_on_c, 0, 62, 80
2, 43667, Note_on_c, 0, 62, 0
2, 43680, Note_on_c, 0, 67, 80
2, 43907, Note_on_c, 0, 67, 0
2, 43920, Note_on_c, 0, 62, 80
2, 44147, Note_on_c, 0, 62, 0
2, 44160, Note_on_c, 0, 53, 80
2, 44387, Note_on_c, 0, 53, 0
2, 44400, Note_on_c, 0, 57, 80
2, 44627, Note_on_c, 0, 57, 0
2, 44640, Note_on_c, 0, 60, 80
2, 44867, Note_on_c, 0, 60, 0
2, 44880, Note_on_c, 0, 57, 80
2, 45107, Note_on_c, 0, 57, 0
2, 45120, Note_on_c, 0, 53, 80
2, 45347, Note_on_c, 0, 53, 0
2, 45360, Note_on_c, 0, 57, 80
2, 45587, Note_on_c, 0, 57, 0
2, 45600, Note_on_c, 0, 60, 80
2, 45827, Note_on_c, 0, 60, 0
2, 45840, Note_on_c, 0, 57, 80
2, 46067, Note_on_c, 0, 57, 0
2, 46080, Note_on_c, 0, 52, 80
2, 46307, Note_on_c, 0, 52, 0
2, 46320, Note_on_c, 0, 59, 80
2, 46547, Note_on_c, 0, 59, 0
2, 46560, Note_on_c, 0, 62, 80
2, 46787, Note_on_c, 0, 62, 0
2, 46800, Note_on_c, 0, 59, 80
2, 47027, Note_on_c, 0, 59, 0
2, 47040, Note_on_c, 0, 52, 80
2, 47267, Note_on_c, 0, 52, 0
2, 47280, Note_on_c, 0, 59, 80
2, 47507, Note_on_c, 0, 59, 0
2, 47520, Note_on_c, 0, 62, 80
2, 47747, Note_on_c, 0, 62, 0
2, 47760, Note_on_c, 0, 59, 80
2, 47987, Note_on_c, 0, 59, 0
2, 48000, Note_on_c, 0, 52, 80
2, 48227, Note_on_c, 0, 52, 0
2, 48240, Note_on_c, 0, 59, 80
2, 48467, Note_on_c, 0, 59, 0
2, 48480, Note_on_c, 0, 62, 80
2, 48707, Note_on_c, 0, 62, 0
2, 48720, Note_on_c, 0, 59, 80
2, 48947, Note_on_c, 0, 59, 0
2, 48960, Note_on_c, 0, 52, 80
2, 49187, Note_on_c, 0, 52, 0
2, 49200, Note_on_c, 0, 59, 80
2, 49427, Note_on_c, 0, 59, 0
2, 49440, Note_on_c, 0, 62, 80
2, 49667, Note_on_c, 0, 62, 0
2, 49680, Note_on_c, 0, 59, 80
2, 49907, Note_on_c, 0, 59, 0
2, 49920, Note_on_c, 0, 57, 80
2, 50147, Note_on_c, 0, 57, 0
2, 50160, Note_on_c, 0, 60, 80
2, 50387, Note_on_c, 0, 60, 0
2, 50400, Note_on_c, 0, 64, 80
2, 50640, Note_on_c, 0, 60, 80
2, 50855, Note_on_c, 0, 64, 0
2, 50867, Note_on_c, 0, 60, 0
2, 50880, Note_on_c, 0, 57, 80
2, 51107, Note_on_c, 0, 57, 0
2, 51120, Note_on_c, 0, 60, 80
2, 51347, Note_on_c, 0, 60, 0
2, 51360, Note_on_c, 0, 64, 80
2, 51587, Note_on_c, 0, 64, 0
2, 51600, Note_on_c, 0, 60, 80
2, 51827, Note_on_c, 0, 60, 0
2, 51840, Note_on_c, 0, 48, 80
2, 52067, Note_on_c, 0, 48, 0
2, 52080, Note_on_c, 0, 55, 80
2, 52307, Note_on_c, 0, 55, 0
2, 52320, Note_on_c, 0, 60, 80
2, 52547, Note_on_c, 0, 60, 0
2, 52560, Note_on_c, 0, 55, 80
2, 52787, Note_on_c, 0, 55, 0
2, 52800, Note_on_c, 0, 64, 80
2, 53027, Note_on_c, 0, 64, 0
2, 53040, Note_on_c, 0, 55, 80
2, 53267, Note_on_c, 0, 55, 0
2, 53280, Note_on_c, 0, 60, 80
2, 53507, Note_on_c, 0, 60, 0
2, 53520, Note_on_c, 0, 55, 80
2, 53747, Note_on_c, 0, 55, 0
2, 53760, Key_signature, 0, "major"
2, 53760, Note_on_c, 0, 55, 80
2, 53987, Note_on_c, 0, 55, 0
2, 54000, Note_on_c, 0, 62, 80
2, 54227, Note_on_c, 0, 62, 0
2, 54240, Note_on_c, 0, 67, 80
2, 54467, Note_on_c, 0, 67, 0
2, 54480, Note_on_c, 0, 69, 80
2, 54935, Note_on_c, 0, 69, 0
2, 54960, Note_on_c, 0, 67, 80
2, 54960, Note_on_c, 0, 71, 80
2, 55187, Note_on_c, 0, 67, 0
2, 55187, Note_on_c, 0, 71, 0
2, 55440, Note_on_c, 0, 62, 80
2, 55667, Note_on_c, 0, 62, 0
2, 55680, Note_on_c, 0, 55, 80
2, 55907, Note_on_c, 0, 55, 0
2, 55920, Note_on_c, 0, 62, 80
2, 56147, Note_on_c, 0, 62, 0
2, 56160, Note_on_c, 0, 64, 80
2, 56387, Note_on_c, 0, 64, 0
2, 56400, Note_on_c, 0, 69, 80
2, 56855, Note_on_c, 0, 69, 0
2, 57120, Note_on_c, 0, 62, 80
2, 57575, Note_on_c, 0, 62, 0
2, 57600, Note_on_c, 0, 55, 80
2, 57600, Note_on_c, 0, 48, 80
2, 58320, Note_on_c, 0, 55, 0
2, 58320, Note_on_c, 0, 55, 80
2, 58547, Note_on_c, 0, 55, 0
2, 58560, Note_on_c, 0, 55, 80
2, 59423, Note_on_c, 0, 48, 0
2, 59471, Note_on_c, 0, 55, 0
2, 59520, Note_on_c, 0, 50, 80
2, 59520, Note_on_c, 0, 60, 80
2, 60887, Note_on_c, 0, 50, 0
2, 60887, Note_on_c, 0, 60, 0
2, 61440, Note_on_c, 0, 55, 80
2, 61667, Note_on_c, 0, 55, 0
2, 61680, Note_on_c, 0, 50, 80
2, 61907, Note_on_c, 0, 50, 0
2, 61920, Note_on_c, 0, 59, 80
2, 62147, Note_on_c, 0, 59, 0
2, 62160, Note_on_c, 0, 55, 80
2, 62387, Note_on_c, 0, 55, 0
2, 62400, Note_on_c, 0, 59, 80
2, 62627, Note_on_c, 0, 59, 0
2, 62640, Note_on_c, 0, 55, 80
2, 62867, Note_on_c, 0, 55, 0
2, 62880, Note_on_c, 0, 59, 80
2, 63107, Note_on_c, 0, 59, 0
2, 63120, Note_on_c, 0, 55, 80
2, 63347, Note_on_c, 0, 55, 0
2, 63360, Note_on_c, 0, 57, 80
2, 63587, Note_on_c, 0, 57, 0
2, 63600, Note_on_c, 0, 60, 80
2, 63827, Note_on_c, 0, 60, 0
2, 63840, Note_on_c, 0, 64, 80
2, 64067, Note_on_c, 0, 64, 0
2, 64080, Note_on_c, 0, 60, 80
2, 64307, Note_on_c, 0, 60, 0
2, 64320, Note_on_c, 0, 52, 80
2, 64547, Note_on_c, 0, 52, 0
2, 64560, Note_on_c, 0, 59, 80
2, 64787, Note_on_c, 0, 59, 0
2, 64800, Note_on_c, 0, 55, 80
2, 65027, Note_on_c, 0, 55, 0
2, 65040, Note_on_c, 0, 52, 80
2, 65267, Note_on_c, 0, 52, 0
2, 65280, Note_on_c, 0, 57, 80
2, 65507, Note_on_c, 0, 57, 0
2, 65520, Note_on_c, 0, 52, 80
2, 65747, Note_on_c, 0, 52, 0
2, 65760, Note_on_c, 0, 60, 80
2, 65987, Note_on_c, 0, 60, 0
2, 66000, Note_on_c, 0, 57, 80
2, 66227, Note_on_c, 0, 57, 0
2, 66240, Note_on_c, 0, 59, 80
2, 66467, Note_on_c, 0, 59, 0
2, 66480, Note_on_c, 0, 52, 80
2, 66707, Note_on_c, 0, 52, 0
2, 66720, Note_on_c, 0, 59, 80
2, 66947, Note_on_c, 0, 59, 0
2, 66960, Note_on_c, 0, 52, 80
2, 67187, Note_on_c, 0, 52, 0
2, 67200, Note_on_c, 0, 50, 80
2, 67427, Note_on_c, 0, 50, 0
2, 67440, Note_on_c, 0, 57, 80
2, 67667, Note_on_c, 0, 57, 0
2, 67680, Note_on_c, 0, 60, 80
2, 67920, Note_on_c, 0, 57, 80
2, 68135, Note_on_c, 0, 60, 0
2, 68147, Note_on_c, 0, 57, 0
2, 68160, Note_on_c, 0, 62, 80
2, 68387, Note_on_c, 0, 62, 0
2, 68400, Note_on_c, 0, 57, 80
2, 68627, Note_on_c, 0, 57, 0
2, 68640, Note_on_c, 0, 60, 80
2, 68867, Note_on_c, 0, 60, 0
2, 68880, Note_on_c, 0, 57, 80
2, 69107, Note_on_c, 0, 57, 0
2, 69120, Note_on_c, 0, 55, 80
2, 69347, Note_on_c, 0, 55, 0
2, 69360, Note_on_c, 0, 59, 80
2, 69587, Note_on_c, 0, 59, 0
2, 69600, Note_on_c, 0, 62, 80
2, 69827, Note_on_c, 0, 62, 0
2, 69840, Note_on_c, 0, 59, 80
2, 70067, Note_on_c, 0, 59, 0
2, 70080, Note_on_c, 0, 59, 80
2, 70307, Note_on_c, 0, 59, 0
2, 70320, Note_on_c, 0, 62, 80
2, 70547, Note_on_c, 0, 62, 0
2, 70560, Note_on_c, 0, 67, 80
2, 70787, Note_on_c, 0, 67, 0
2, 70800, Note_on_c, 0, 62, 80
2, 71027, Note_on_c, 0, 62, 0
2, 71040, Note_on_c, 0, 52, 80
2, 71267, Note_on_c, 0, 52, 0
2, 71280, Note_on_c, 0, 59, 80
2, 71507, Note_on_c, 0, 59, 0
2, 71520, Note_on_c, 0, 62, 80
2, 71747, Note_on_c, 0, 62, 0
2, 71760, Note_on_c, 0, 59, 80
2, 71987, Note_on_c, 0, 59, 0
2, 72000, Note_on_c, 0, 52, 80
2, 72227, Note_on_c, 0, 52, 0
2, 72240, Note_on_c, 0, 59, 80
2, 72467, Note_on_c, 0, 59, 0
2, 72480, Note_on_c, 0, 62, 80
2, 72720, Note_on_c, 0, 59, 80
2, 72935, Note_on_c, 0, 62, 0
2, 72947, Note_on_c, 0, 59, 0
2, 72960, Note_on_c, 0, 57, 80
2, 73187, Note_on_c, 0, 57, 0
2, 73200, Note_on_c, 0, 60, 80
2, 73427, Note_on_c, 0, 60, 0
2, 73440, Note_on_c, 0, 64, 80
2, 73680, Note_on_c, 0, 60, 80
2, 73895, Note_on_c, 0, 64, 0
2, 73907, Note_on_c, 0, 60, 0
2, 74160, Note_on_c, 0, 60, 80
2, 74387, Note_on_c, 0, 60, 0
2, 74400, Note_on_c, 0, 64, 80
2, 74627, Note_on_c, 0, 64, 0
2, 74640, Note_on_c, 0, 60, 80
2, 74867, Note_on_c, 0, 60, 0
2, 74880, Note_on_c, 0, 50, 80
2, 75107, Note_on_c, 0, 50, 0
2, 75120, Note_on_c, 0, 57, 80
2, 75347, Note_on_c, 0, 57, 0
2, 75360, Note_on_c, 0, 62, 80
2, 75587, Note_on_c, 0, 62, 0
2, 75600, Note_on_c, 0, 57, 80
2, 75827, Note_on_c, 0, 57, 0
2, 76080, Note_on_c, 0, 57, 80
2, 76307, Note_on_c, 0, 57, 0
2, 76320, Note_on_c, 0, 62, 80
2, 76547, Note_on_c, 0, 62, 0
2, 76560, Note_on_c, 0, 57, 80
2, 76787, Note_on_c, 0, 57, 0
2, 76800, Note_on_c, 0, 48, 80
2, 77027, Note_on_c, 0, 48, 0
2, 77040, Note_on_c, 0, 55, 80
2, 77267, Note_on_c, 0, 55, 0
2, 77280, Note_on_c, 0, 60, 80
2, 77507, Note_on_c, 0, 60, 0
2, 77520, Note_on_c, 0, 55, 80
2, 77747, Note_on_c, 0, 55, 0
2, 77760, Note_on_c, 0, 64, 80
2, 77987, Note_on_c, 0, 64, 0
2, 78000, Note_on_c, 0, 55, 80
2, 78227, Note_on_c, 0, 55, 0
2, 78240, Note_on_c, 0, 60, 80
2, 78467, Note_on_c, 0, 60, 0
2, 78480, Note_on_c, 0, 55, 80
2, 78707, Note_on_c, 0, 55, 0
2, 78720, Note_on_c, 0, 55, 80
2, 78947, Note_on_c, 0, 55, 0
2, 78960, Note_on_c, 0, 62, 80
2, 79187, Note_on_c, 0, 62, 0
2, 79200, Note_on_c, 0, 67, 80
2, 79427, Note_on_c, 0, 67, 0
2, 79440, Note_on_c, 0, 62, 80
2, 79667, Note_on_c, 0, 62, 0
2, 79680, Note_on_c, 0, 67, 80
2, 79907, Note_on_c, 0, 67, 0
2, 79920, Note_on_c, 0, 62, 80
2, 80147, Note_on_c, 0, 62, 0
2, 80160, Note_on_c, 0, 67, 80
2, 80387, Note_on_c, 0, 67, 0
2, 80400, Note_on_c, 0, 62, 80
2, 80627, Note_on_c, 0, 62, 0
2, 80640, Note_on_c, 0, 57, 80
2, 80867, Note_on_c, 0, 57, 0
2, 80880, Note_on_c, 0, 60, 80
2, 81107, Note_on_c, 0, 60, 0
2, 81120, Note_on_c, 0, 64, 80
2, 81347, Note_on_c, 0, 64, 0
2, 81360, Note_on_c, 0, 60, 80
2, 81587, Note_on_c, 0, 60, 0
2, 81600, Note_on_c, 0, 64, 80
2, 81827, Note_on_c, 0, 64, 0
2, 81840, Note_on_c, 0, 57, 80
2, 82067, Note_on_c, 0, 57, 0
2, 82080, Note_on_c, 0, 60, 80
2, 82307, Note_on_c, 0, 60, 0
2, 82320, Note_on_c, 0, 57, 80
2, 82547, Note_on_c, 0, 57, 0
2, 82560, Note_on_c, 0, 53, 80
2, 82787, Note_on_c, 0, 53, 0
2, 82800, Note_on_c, 0, 60, 80
2, 83027, Note_on_c, 0, 60, 0
2, 83040, Note_on_c, 0, 64, 80
2, 83279, Note_on_c, 0, 64, 0
2, 83520, Note_on_c, 0, 57, 80
2, 83747, Note_on_c, 0, 57, 0
2, 83760, Note_on_c, 0, 53, 80
2, 83987, Note_on_c, 0, 53, 0
2, 84000, Note_on_c, 0, 57, 80
2, 84227, Note_on_c, 0, 57, 0
2, 84240, Note_on_c, 0, 53, 80
2, 84467, Note_on_c, 0, 53, 0
2, 84480, Note_on_c, 0, 59, 80
2, 84719, Note_on_c, 0, 59, 0
2, 85200, Note_on_c, 0, 59, 80
2, 85883, Note_on_c, 0, 59, 0
2, 86400, Note_on_c, 0, 50, 80
2, 86855, Note_on_c, 0, 50, 0
2, 86880, Note_on_c, 0, 50, 80
2, 88247, Note_on_c, 0, 50, 0
2, 88320, Note_on_c, 0, 50, 80
2, 88320, Note_on_c, 0, 55, 80
2, 88775, Note_on_c, 0, 50, 0
2, 88775, Note_on_c, 0, 55, 0
2, 89040, Note_on_c, 0, 62, 80
2, 89267, Note_on_c, 0, 62, 0
2, 89280, Note_on_c, 0, 50, 80
2, 89280, Note_on_c, 0, 55, 80
2, 89735, Note_on_c, 0, 50, 0
2, 89735, Note_on_c, 0, 55, 0
2, 89760, Note_on_c, 0, 50, 80
2, 90215, Note_on_c, 0, 50, 0
2, 90240, Note_on_c, 0, 50, 80
2, 90240, Note_on_c, 0, 55, 80
2, 90695, Note_on_c, 0, 50, 0
2, 90695, Note_on_c, 0, 55, 0
2, 90960, Note_on_c, 0, 62, 80
2, 91187, Note_on_c, 0, 62, 0
2, 91200, Note_on_c, 0, 50, 80
2, 91200, Note_on_c, 0, 55, 80
2, 91655, Note_on_c, 0, 50, 0
2, 91655, Note_on_c, 0, 55, 0
2, 91680, Note_on_c, 0, 50, 80
2, 91907, Note_on_c, 0, 50, 0
2, 91920, Note_on_c, 0, 50, 80
2, 92147, Note_on_c, 0, 50, 0
2, 92160, Note_on_c, 0, 52, 80
2, 92160, Note_on_c, 0, 59, 80
2, 92615, Note_on_c, 0, 52, 0
2, 92615, Note_on_c, 0, 59, 0
2, 93120, Note_on_c, 0, 55, 80
2, 93575, Note_on_c, 0, 55, 0
2, 93600, Note_on_c, 0, 55, 80
2, 94055, Note_on_c, 0, 55, 0
2, 94080, Note_on_c, 0, 48, 80
2, 94307, Note_on_c, 0, 48, 0
2, 94320, Note_on_c, 0, 55, 80
2, 94547, Note_on_c, 0, 55, 0
2, 94560, Note_on_c, 0, 60, 80
2, 94787, Note_on_c, 0, 60, 0
2, 94800, Note_on_c, 0, 55, 80
2, 95027, Note_on_c, 0, 55, 0
2, 95040, Note_on_c, 0, 64, 80
2, 95267, Note_on_c, 0, 64, 0
2, 95280, Note_on_c, 0, 55, 80
2, 95507, Note_on_c, 0, 55, 0
2, 95520, Note_on_c, 0, 60, 80
2, 95747, Note_on_c, 0, 60, 0
2, 95760, Note_on_c, 0, 55, 80
2, 95987, Note_on_c, 0, 55, 0
2, 96000, Note_on_c, 0, 55, 80
2, 96227, Note_on_c, 0, 55, 0
2, 96240, Note_on_c, 0, 62, 80
2, 96467, Note_on_c, 0, 62, 0
2, 96480, Note_on_c, 0, 67, 80
2, 96707, Note_on_c, 0, 67, 0
2, 96720, Note_on_c, 0, 62, 80
2, 96947, Note_on_c, 0, 62, 0
2, 96960, Note_on_c, 0, 55, 80
2, 97187, Note_on_c, 0, 55, 0
2, 97200, Note_on_c, 0, 62, 80
2, 97427, Note_on_c, 0, 62, 0
2, 97440, Note_on_c, 0, 67, 80
2, 97667, Note_on_c, 0, 67, 0
2, 97680, Note_on_c, 0, 62, 80
2, 97907, Note_on_c, 0, 62, 0
2, 97920, Note_on_c, 0, 53, 80
2, 98147, Note_on_c, 0, 53, 0
2, 98160, Note_on_c, 0, 57, 80
2, 98387, Note_on_c, 0, 57, 0
2, 98400, Note_on_c, 0, 60, 80
2, 98627, Note_on_c, 0, 60, 0
2, 98640, Note_on_c, 0, 57, 80
2, 98867, Note_on_c, 0, 57, 0
2, 98880, Note_on_c, 0, 53, 80
2, 99107, Note_on_c, 0, 53, 0
2, 99120, Note_on_c, 0, 57, 80
2, 99347, Note_on_c, 0, 57, 0
2, 99360, Note_on_c, 0, 60, 80
2, 99587, Note_on_c, 0, 60, 0
2, 99600, Note_on_c, 0, 57, 80
2, 99827, Note_on_c, 0, 57, 0
2, 99840, Note_on_c, 0, 52, 80
2, 100067, Note_on_c, 0, 52, 0
2, 100080, Note_on_c, 0, 59, 80
2, 100307, Note_on_c, 0, 59, 0
2, 100320, Note_on_c, 0, 62, 80
2, 100547, Note_on_c, 0, 62, 0
2, 100560, Note_on_c, 0, 59, 80
2, 100787, Note_on_c, 0, 59, 0
2, 100800, Note_on_c, 0, 52, 80
2, 101027, Note_on_c, 0, 52, 0
2, 101040, Note_on_c, 0, 59, 80
2, 101267, Note_on_c, 0, 59, 0
2, 101280, Note_on_c, 0, 62, 80
2, 101507, Note_on_c, 0, 62, 0
2, 101520, Note_on_c, 0, 59, 80
2, 101747, Note_on_c, 0, 59, 0
2, 101760, Note_on_c, 0, 52, 80
2, 101987, Note_on_c, 0, 52, 0
2, 102000, Note_on_c, 0, 59, 80
2, 102227, Note_on_c, 0, 59, 0
2, 102240, Note_on_c, 0, 62, 80
2, 102467, Note_on_c, 0, 62, 0
2, 102480, Note_on_c, 0, 59, 80
2, 102707, Note_on_c, 0, 59, 0
2, 102720, Note_on_c, 0, 52, 80
2, 102947, Note_on_c, 0, 52, 0
2, 102960, Note_on_c, 0, 59, 80
2, 103187, Note_on_c, 0, 59, 0
2, 103200, Note_on_c, 0, 62, 80
2, 103427, Note_on_c, 0, 62, 0
2, 103440, Note_on_c, 0, 59, 80
2, 103667, Note_on_c, 0, 59, 0
2, 103680, Note_on_c, 0, 57, 80
2, 103907, Note_on_c, 0, 57, 0
2, 103920, Note_on_c, 0, 60, 80
2, 104147, Note_on_c, 0, 60, 0
2, 104160, Note_on_c, 0, 64, 80
2, 104400, Note_on_c, 0, 60, 80
2, 104615, Note_on_c, 0, 64, 0
2, 104627, Note_on_c, 0, 60, 0
2, 104640, Note_on_c, 0, 57, 80
2, 104867, Note_on_c, 0, 57, 0
2, 104880, Note_on_c, 0, 60, 80
2, 105107, Note_on_c, 0, 60, 0
2, 105120, Note_on_c, 0, 64, 80
2, 105347, Note_on_c, 0, 64, 0
2, 105360, Note_on_c, 0, 60, 80
2, 105587, Note_on_c, 0, 60, 0
2, 105600, Note_on_c, 0, 48, 80
2, 105827, Note_on_c, 0, 48, 0
2, 105840, Note_on_c, 0, 55, 80
2, 106067, Note_on_c, 0, 55, 0
2, 106080, Note_on_c, 0, 60, 80
2, 106307, Note_on_c, 0, 60, 0
2, 106320, Note_on_c, 0, 55, 80
2, 106547, Note_on_c, 0, 55, 0
2, 106560, Note_on_c, 0, 64, 80
2, 106787, Note_on_c, 0, 64, 0
2, 106800, Note_on_c, 0, 55, 80
2, 107027, Note_on_c, 0, 55, 0
2, 107040, Note_on_c, 0, 60, 80
2, 107267, Note_on_c, 0, 60, 0
2, 107280, Note_on_c, 0, 55, 80
2, 107507, Note_on_c, 0, 55, 0
2, 107520, Note_on_c, 0, 55, 80
2, 108431, Note_on_c, 0, 55, 0
2, 108480, Note_on_c, 0, 59, 80
2, 109391, Note_on_c, 0, 59, 0
2, 109440, Note_on_c, 0, 50, 80
2, 110123, Note_on_c, 0, 50, 0
2, 110160, Note_on_c, 0, 50, 80
2, 110615, Note_on_c, 0, 50, 0
2, 110640, Note_on_c, 0, 50, 80
2, 111095, Note_on_c, 0, 50, 0
2, 111120, Note_on_c, 0, 50, 80
2, 111347, Note_on_c, 0, 50, 0
2, 111360, Note_on_c, 0, 50, 80
2, 112043, Note_on_c, 0, 50, 0
2, 112080, Note_on_c, 0, 50, 80
2, 112763, Note_on_c, 0, 50, 0
2, 112800, Note_on_c, 0, 50, 80
2, 113255, Note_on_c, 0, 50, 0
2, 113280, Note_on_c, 0, 50, 80
2, 113280, Note_on_c, 0, 55, 80
2, 113735, Note_on_c, 0, 50, 0
2, 113735, Note_on_c, 0, 55, 0
2, 114000, Note_on_c, 0, 62, 80
2, 114227, Note_on_c, 0, 62, 0
2, 114240, Note_on_c, 0, 50, 80
2, 114240, Note_on_c, 0, 55, 80
2, 114695, Note_on_c, 0, 50, 0
2, 114695, Note_on_c, 0, 55, 0
2, 114720, Note_on_c, 0, 50, 80
2, 115175, Note_on_c, 0, 50, 0
2, 115200, Note_on_c, 0, 50, 80
2, 115200, Note_on_c, 0, 55, 80
2, 115655, Note_on_c, 0, 50, 0
2, 115655, Note_on_c, 0, 55, 0
2, 115920, Note_on_c, 0, 62, 80
2, 116147, Note_on_c, 0, 62, 0
2, 116160, Note_on_c, 0, 50, 80
2, 116160, Note_on_c, 0, 55, 80
2, 116615, Note_on_c, 0, 50, 0
2, 116615, Note_on_c, 0, 55, 0
2, 116640, Note_on_c, 0, 50, 80
2, 116867, Note_on_c, 0, 50, 0
2, 116880, Note_on_c, 0, 50, 80
2, 117107, Note_on_c, 0, 50, 0
2, 117120, Note_on_c, 0, 52, 80
2, 117120, Note_on_c, 0, 59, 80
2, 118031, Note_on_c, 0, 52, 0
2, 118031, Note_on_c, 0, 59, 0
2, 118080, Note_on_c, 0, 55, 80
2, 118535, Note_on_c, 0, 55, 0
2, 118560, Note_on_c, 0, 55, 80
2, 119015, Note_on_c, 0, 55, 0
2, 119040, Note_on_c, 0, 48, 80
2, 119267, Note_on_c, 0, 48, 0
2, 119280, Note_on_c, 0, 55, 80
2, 119507, Note_on_c, 0, 55, 0
2, 119520, Note_on_c, 0, 60, 80
2, 119747, Note_on_c, 0, 60, 0
2, 119760, Note_on_c, 0, 55, 80
2, 119987, Note_on_c, 0, 55, 0
2, 120000, Note_on_c, 0, 64, 80
2, 120227, Note_on_c, 0, 64, 0
2, 120240, Note_on_c, 0, 55, 80
2, 120467, Note_on_c, 0, 55, 0
2, 120480, Note_on_c, 0, 60, 80
2, 120707, Note_on_c, 0, 60, 0
2, 120720, Note_on_c, 0, 55, 80
2, 120947, Note_on_c, 0, 55, 0
2, 120960, Note_on_c, 0, 55, 80
2, 121187, Note_on_c, 0, 55, 0
2, 121200, Note_on_c, 0, 62, 80
2, 121427, Note_on_c, 0, 62, 0
2, 121440, Note_on_c, 0, 67, 80
2, 121667, Note_on_c, 0, 67, 0
2, 121680, Note_on_c, 0, 62, 80
2, 121907, Note_on_c, 0, 62, 0
2, 121920, Note_on_c, 0, 55, 80
2, 122147, Note_on_c, 0, 55, 0
2, 122160, Note_on_c, 0, 62, 80
2, 122387, Note_on_c, 0, 62, 0
2, 122400, Note_on_c, 0, 67, 80
2, 122627, Note_on_c, 0, 67, 0
2, 122640, Note_on_c, 0, 62, 80
2, 122867, Note_on_c, 0, 62, 0
2, 122880, Note_on_c, 0, 53, 80
2, 123107, Note_on_c, 0, 53, 0
2, 123120, Note_on_c, 0, 57, 80
2, 123347, Note_on_c, 0, 57, 0
2, 123360, Note_on_c, 0, 60, 80
2, 123587, Note_on_c, 0, 60, 0
2, 123600, Note_on_c, 0, 57, 80
2, 123827, Note_on_c, 0, 57, 0
2, 123840, Note_on_c, 0, 53, 80
2, 124067, Note_on_c, 0, 53, 0
2, 124080, Note_on_c, 0, 57, 80
2, 124307, Note_on_c, 0, 57, 0
2, 124320, Note_on_c, 0, 60, 80
2, 124547, Note_on_c, 0, 60, 0
2, 124560, Note_on_c, 0, 57, 80
2, 124787, Note_on_c, 0, 57, 0
2, 124800, Note_on_c, 0, 52, 80
2, 125027, Note_on_c, 0, 52, 0
2, 125040, Note_on_c, 0, 59, 80
2, 125267, Note_on_c, 0, 59, 0
2, 125280, Note_on_c, 0, 62, 80
2, 125507, Note_on_c, 0, 62, 0
2, 125520, Note_on_c, 0, 59, 80
2, 125747, Note_on_c, 0, 59, 0
2, 125760, Note_on_c, 0, 52, 80
2, 125987, Note_on_c, 0, 52, 0
2, 126000, Note_on_c, 0, 59, 80
2, 126227, Note_on_c, 0, 59, 0
2, 126240, Note_on_c, 0, 62, 80
2, 126467, Note_on_c, 0, 62, 0
2, 126480, Note_on_c, 0, 59, 80
2, 126707, Note_on_c, 0, 59, 0
2, 126720, Note_on_c, 0, 52, 80
2, 126947, Note_on_c, 0, 52, 0
2, 126960, Note_on_c, 0, 59, 80
2, 127187, Note_on_c, 0, 59, 0
2, 127200, Note_on_c, 0, 62, 80
2, 127427, Note_on_c, 0, 62, 0
2, 127440, Note_on_c, 0, 59, 80
2, 127667, Note_on_c, 0, 59, 0
2, 127680, Note_on_c, 0, 52, 80
2, 127907, Note_on_c, 0, 52, 0
2, 127920, Note_on_c, 0, 59, 80
2, 128147, Note_on_c, 0, 59, 0
2, 128160, Note_on_c, 0, 62, 80
2, 128387, Note_on_c, 0, 62, 0
2, 128400, Note_on_c, 0, 59, 80
2, 128627, Note_on_c, 0, 59, 0
2, 128640, Note_on_c, 0, 57, 80
2, 128867, Note_on_c, 0, 57, 0
2, 128880, Note_on_c, 0, 60, 80
2, 129107, Note_on_c, 0, 60, 0
2, 129120, Note_on_c, 0, 64, 80
2, 129360, Note_on_c, 0, 60, 80
2, 129575, Note_on_c, 0, 64, 0
2, 129587, Note_on_c, 0, 60, 0
2, 129600, Note_on_c, 0, 57, 80
2, 129827, Note_on_c, 0, 57, 0
2, 129840, Note_on_c, 0, 60, 80
2, 130067, Note_on_c, 0, 60, 0
2, 130080, Note_on_c, 0, 64, 80
2, 130307, Note_on_c, 0, 64, 0
2, 130320, Note_on_c, 0, 60, 80
2, 130547, Note_on_c, 0, 60, 0
2, 130560, Note_on_c, 0, 48, 80
2, 130787, Note_on_c, 0, 48, 0
2, 130800, Note_on_c, 0, 55, 80
2, 131027, Note_on_c, 0, 55, 0
2, 131040, Note_on_c, 0, 60, 80
2, 131267, Note_on_c, 0, 60, 0
2, 131280, Note_on_c, 0, 55, 80
2, 131507, Note_on_c, 0, 55, 0
2, 131520, Note_on_c, 0, 64, 80
2, 131747, Note_on_c, 0, 64, 0
2, 131760, Note_on_c, 0, 55, 80
2, 131987, Note_on_c, 0, 55, 0
2, 132000, Note_on_c, 0, 60, 80
2, 132227, Note_on_c, 0, 60, 0
2, 132240, Note_on_c, 0, 55, 80
2, 132467, Note_on_c, 0, 55, 0
2, 132480, Note_on_c, 0, 55, 80
2, 133391, Note_on_c, 0, 55, 0
2, 133440, Note_on_c, 0, 59, 80
2, 134351, Note_on_c, 0, 59, 0
2, 134400, Note_on_c, 0, 50, 80
2, 135083, Note_on_c, 0, 50, 0
2, 135120, Note_on_c, 0, 50, 80
2, 135575, Note_on_c, 0, 50, 0
2, 135600, Note_on_c, 0, 50, 80
2, 136055, Note_on_c, 0, 50, 0
2, 136080, Note_on_c, 0, 50, 80
2, 136307, Note_on_c, 0, 50, 0
2, 136320, Note_on_c, 0, 50, 80
2, 137003, Note_on_c, 0, 50, 0
2, 137040, Note_on_c, 0, 50, 80
2, 137723, Note_on_c, 0, 50, 0
2, 137760, Note_on_c, 0, 50, 80
2, 138215, Note_on_c, 0, 50, 0
2, 138240, Note_on_c, 0, 55, 80
2, 139151, Note_on_c, 0, 55, 0
2, 139200, Note_on_c, 0, 55, 80
2, 139655, Note_on_c, 0, 55, 0
2, 139680, Note_on_c, 0, 50, 80
2, 140135, Note_on_c, 0, 50, 0
2, 140160, Note_on_c, 0, 55, 80
2, 141071, Note_on_c, 0, 55, 0
2, 141120, Note_on_c, 0, 55, 80
2, 141575, Note_on_c, 0, 55, 0
2, 141600, Note_on_c, 0, 50, 80
2, 142055, Note_on_c, 0, 50, 0
2, 142080, Note_on_c, 0, 55, 80
2, 143903, Note_on_c, 0, 55, 0
2, 143904, End_track
3, 0, Start_track
3, 0, Title_t, "6-str. Electric Bass, Bass\000"
3, 0, Key_signature, 0, "major"
3, 0, Control_c, 1, 121, 0
3, 0, Program_c, 1, 33
3, 0, Control_c, 1, 7, 100
3, 0, Control_c, 1, 10, 64
3, 0, Control_c, 1, 91, 0
3, 0, Control_c, 1, 93, 0
3, 0, MIDI_port, 0
3, 0, Control_c, 2, 121, 0
3, 0, Program_c, 2, 36
3, 0, Control_c, 2, 7, 100
3, 0, Control_c, 2, 10, 64
3, 0, Control_c, 2, 91, 0
3, 0, Control_c, 2, 93, 0
3, 0, MIDI_port, 0
3, 0, Control_c, 3, 121, 0
3, 0, Program_c, 3, 37
3, 0, Control_c, 3, 7, 100
3, 0, Control_c, 3, 10, 64
3, 0, Control_c, 3, 91, 0
3, 0, Control_c, 3, 93, 0
3, 0, MIDI_port, 0
3, 7680, Note_on_c, 1, 55, 80
3, 8399, Note_on_c, 1, 55, 0
3, 8400, Note_on_c, 1, 55, 80
3, 8639, Note_on_c, 1, 55, 0
3, 8640, Note_on_c, 1, 59, 80
3, 9599, Note_on_c, 1, 59, 0
3, 9600, Note_on_c, 1, 57, 80
3, 10319, Note_on_c, 1, 57, 0
3, 10320, Note_on_c, 1, 57, 80
3, 10559, Note_on_c, 1, 57, 0
3, 10560, Note_on_c, 1, 52, 80
3, 11519, Note_on_c, 1, 52, 0
3, 11520, Note_on_c, 1, 57, 80
3, 12239, Note_on_c, 1, 57, 0
3, 12240, Note_on_c, 1, 57, 80
3, 12479, Note_on_c, 1, 57, 0
3, 12480, Note_on_c, 1, 59, 80
3, 13439, Note_on_c, 1, 59, 0
3, 13440, Note_on_c, 1, 62, 80
3, 14159, Note_on_c, 1, 62, 0
3, 14160, Note_on_c, 1, 62, 80
3, 14399, Note_on_c, 1, 62, 0
3, 14400, Note_on_c, 1, 50, 80
3, 15359, Note_on_c, 1, 50, 0
3, 15360, Note_on_c, 1, 55, 80
3, 16079, Note_on_c, 1, 55, 0
3, 16080, Note_on_c, 1, 55, 80
3, 16319, Note_on_c, 1, 55, 0
3, 16320, Note_on_c, 1, 59, 80
3, 17279, Note_on_c, 1, 59, 0
3, 17280, Note_on_c, 1, 64, 80
3, 17999, Note_on_c, 1, 64, 0
3, 18000, Note_on_c, 1, 64, 80
3, 18239, Note_on_c, 1, 64, 0
3, 18240, Note_on_c, 1, 52, 80
3, 19199, Note_on_c, 1, 52, 0
3, 19200, Note_on_c, 1, 57, 80
3, 19919, Note_on_c, 1, 57, 0
3, 19920, Note_on_c, 1, 57, 80
3, 20159, Note_on_c, 1, 57, 0
3, 20160, Note_on_c, 1, 57, 80
3, 21119, Note_on_c, 1, 57, 0
3, 21120, Note_on_c, 1, 62, 80
3, 21839, Note_on_c, 1, 62, 0
3, 21840, Note_on_c, 1, 62, 80
3, 22079, Note_on_c, 1, 62, 0
3, 22080, Note_on_c, 1, 62, 80
3, 23039, Note_on_c, 1, 62, 0
3, 23040, Note_on_c, 1, 60, 80
3, 23999, Note_on_c, 1, 60, 0
3, 24000, Note_on_c, 1, 60, 80
3, 24959, Note_on_c, 1, 60, 0
3, 24960, Note_on_c, 1, 59, 80
3, 25919, Note_on_c, 1, 59, 0
3, 25920, Note_on_c, 1, 59, 80
3, 26879, Note_on_c, 1, 59, 0
3, 26880, Note_on_c, 1, 57, 80
3, 27839, Note_on_c, 1, 57, 0
3, 27840, Note_on_c, 1, 69, 80
3, 28319, Note_on_c, 1, 69, 0
3, 28320, Note_on_c, 1, 57, 80
3, 28799, Note_on_c, 1, 57, 0
3, 28800, Note_on_c, 1, 53, 80
3, 29759, Note_on_c, 1, 53, 0
3, 29760, Note_on_c, 1, 65, 80
3, 30239, Note_on_c, 1, 65, 0
3, 30240, Note_on_c, 1, 53, 80
3, 30719, Note_on_c, 1, 53, 0
3, 30720, Note_on_c, 1, 59, 80
3, 31439, Note_on_c, 1, 59, 0
3, 31440, Note_on_c, 1, 59, 80
3, 32159, Note_on_c, 1, 59, 0
3, 32640, Note_on_c, 1, 62, 80
3, 33119, Note_on_c, 1, 62, 0
3, 33120, Note_on_c, 1, 50, 80
3, 34559, Note_on_c, 1, 50, 0
3, 34560, Note_on_c, 1, 55, 80
3, 35519, Note_on_c, 1, 55, 0
3, 35520, Note_on_c, 1, 55, 80
3, 35999, Note_on_c, 1, 55, 0
3, 36000, Note_on_c, 1, 62, 80
3, 36479, Note_on_c, 1, 62, 0
3, 36480, Note_on_c, 1, 55, 80
3, 37439, Note_on_c, 1, 55, 0
3, 37440, Note_on_c, 1, 55, 80
3, 37919, Note_on_c, 1, 55, 0
3, 37920, Note_on_c, 1, 62, 80
3, 38399, Note_on_c, 1, 62, 0
3, 38400, Note_on_c, 1, 60, 80
3, 39359, Note_on_c, 1, 60, 0
3, 39360, Note_on_c, 1, 55, 80
3, 39839, Note_on_c, 1, 55, 0
3, 39840, Note_on_c, 1, 55, 80
3, 40319, Note_on_c, 1, 55, 0
3, 40320, Note_on_c, 1, 60, 80
3, 41039, Note_on_c, 1, 60, 0
3, 41040, Note_on_c, 1, 60, 80
3, 41279, Note_on_c, 1, 60, 0
3, 41280, Note_on_c, 1, 60, 80
3, 42239, Note_on_c, 1, 60, 0
3, 42240, Note_on_c, 1, 55, 80
3, 43199, Note_on_c, 1, 55, 0
3, 43200, Note_on_c, 1, 67, 80
3, 43679, Note_on_c, 1, 67, 0
3, 43680, Note_on_c, 1, 55, 80
3, 44159, Note_on_c, 1, 55, 0
3, 44160, Note_on_c, 1, 53, 80
3, 45119, Note_on_c, 1, 53, 0
3, 45120, Note_on_c, 1, 65, 80
3, 45599, Note_on_c, 1, 65, 0
3, 45600, Note_on_c, 1, 53, 80
3, 46079, Note_on_c, 1, 53, 0
3, 46080, Note_on_c, 1, 52, 80
3, 46799, Note_on_c, 1, 52, 0
3, 46800, Note_on_c, 1, 52, 80
3, 47039, Note_on_c, 1, 52, 0
3, 47040, Note_on_c, 1, 52, 80
3, 47999, Note_on_c, 1, 52, 0
3, 48000, Note_on_c, 1, 52, 80
3, 48719, Note_on_c, 1, 52, 0
3, 48720, Note_on_c, 1, 52, 80
3, 48959, Note_on_c, 1, 52, 0
3, 48960, Note_on_c, 1, 64, 80
3, 49439, Note_on_c, 1, 64, 0
3, 49440, Note_on_c, 1, 52, 80
3, 49919, Note_on_c, 1, 52, 0
3, 49920, Note_on_c, 1, 57, 80
3, 50639, Note_on_c, 1, 57, 0
3, 50640, Note_on_c, 1, 57, 80
3, 50879, Note_on_c, 1, 57, 0
3, 50880, Note_on_c, 1, 57, 80
3, 51839, Note_on_c, 1, 57, 0
3, 51840, Note_on_c, 1, 60, 80
3, 52559, Note_on_c, 1, 60, 0
3, 52560, Note_on_c, 1, 60, 80
3, 52799, Note_on_c, 1, 60, 0
3, 52800, Note_on_c, 1, 60, 80
3, 53279, Note_on_c, 1, 60, 0
3, 53280, Note_on_c, 1, 48, 80
3, 53759, Note_on_c, 1, 48, 0
3, 53760, Key_signature, 0, "major"
3, 53760, Note_on_c, 1, 55, 80
3, 55319, Note_on_c, 1, 55, 0
3, 55440, Note_on_c, 1, 62, 80
3, 55679, Note_on_c, 1, 62, 0
3, 55680, Note_on_c, 1, 55, 80
3, 57119, Note_on_c, 1, 55, 0
3, 57120, Note_on_c, 1, 62, 80
3, 57599, Note_on_c, 1, 62, 0
3, 61440, Note_on_c, 1, 55, 80
3, 62159, Note_on_c, 1, 55, 0
3, 62160, Note_on_c, 1, 55, 80
3, 62399, Note_on_c, 1, 55, 0
3, 62400, Note_on_c, 1, 59, 80
3, 63359, Note_on_c, 1, 59, 0
3, 63360, Note_on_c, 1, 57, 80
3, 64079, Note_on_c, 1, 57, 0
3, 64080, Note_on_c, 1, 57, 80
3, 64319, Note_on_c, 1, 57, 0
3, 64320, Note_on_c, 1, 52, 80
3, 65279, Note_on_c, 1, 52, 0
3, 65280, Note_on_c, 1, 57, 80
3, 65999, Note_on_c, 1, 57, 0
3, 66000, Note_on_c, 1, 57, 80
3, 66239, Note_on_c, 1, 57, 0
3, 66240, Note_on_c, 1, 59, 80
3, 67199, Note_on_c, 1, 59, 0
3, 67200, Note_on_c, 1, 62, 80
3, 67919, Note_on_c, 1, 62, 0
3, 67920, Note_on_c, 1, 62, 80
3, 68159, Note_on_c, 1, 62, 0
3, 68160, Note_on_c, 1, 50, 80
3, 69119, Note_on_c, 1, 50, 0
3, 69120, Note_on_c, 1, 55, 80
3, 69839, Note_on_c, 1, 55, 0
3, 69840, Note_on_c, 1, 55, 80
3, 70079, Note_on_c, 1, 55, 0
3, 70080, Note_on_c, 1, 59, 80
3, 71039, Note_on_c, 1, 59, 0
3, 71040, Note_on_c, 1, 64, 80
3, 71759, Note_on_c, 1, 64, 0
3, 71760, Note_on_c, 1, 64, 80
3, 71999, Note_on_c, 1, 64, 0
3, 72000, Note_on_c, 1, 52, 80
3, 72959, Note_on_c, 1, 52, 0
3, 72960, Note_on_c, 1, 57, 80
3, 73679, Note_on_c, 1, 57, 0
3, 73680, Note_on_c, 1, 57, 80
3, 73919, Note_on_c, 1, 57, 0
3, 73920, Note_on_c, 1, 57, 80
3, 74879, Note_on_c, 1, 57, 0
3, 74880, Note_on_c, 1, 62, 80
3, 75599, Note_on_c, 1, 62, 0
3, 75600, Note_on_c, 1, 62, 80
3, 75839, Note_on_c, 1, 62, 0
3, 75840, Note_on_c, 1, 62, 80
3, 76799, Note_on_c, 1, 62, 0
3, 76800, Note_on_c, 1, 60, 80
3, 77759, Note_on_c, 1, 60, 0
3, 77760, Note_on_c, 1, 60, 80
3, 78719, Note_on_c, 1, 60, 0
3, 78720, Note_on_c, 1, 59, 80
3, 79679, Note_on_c, 1, 59, 0
3, 79680, Note_on_c, 1, 59, 80
3, 80639, Note_on_c, 1, 59, 0
3, 80640, Note_on_c, 1, 57, 80
3, 81599, Note_on_c, 1, 57, 0
3, 81600, Note_on_c, 1, 69, 80
3, 82079, Note_on_c, 1, 69, 0
3, 82080, Note_on_c, 1, 57, 80
3, 82559, Note_on_c, 1, 57, 0
3, 82560, Note_on_c, 1, 53, 80
3, 83519, Note_on_c, 1, 53, 0
3, 83520, Note_on_c, 1, 65, 80
3, 83999, Note_on_c, 1, 65, 0
3, 84000, Note_on_c, 1, 53, 80
3, 84479, Note_on_c, 1, 53, 0
3, 84480, Note_on_c, 1, 59, 80
3, 85199, Note_on_c, 1, 59, 0
3, 85200, Note_on_c, 1, 59, 80
3, 85919, Note_on_c, 1, 59, 0
3, 86400, Note_on_c, 1, 62, 80
3, 86879, Note_on_c, 1, 62, 0
3, 86880, Note_on_c, 1, 50, 80
3, 88319, Note_on_c, 1, 50, 0
3, 88320, Note_on_c, 1, 55, 80
3, 89279, Note_on_c, 1, 55, 0
3, 89280, Note_on_c, 1, 55, 80
3, 89759, Note_on_c, 1, 55, 0
3, 89760, Note_on_c, 1, 62, 80
3, 90239, Note_on_c, 1, 62, 0
3, 90240, Note_on_c, 1, 55, 80
3, 91199, Note_on_c, 1, 55, 0
3, 91200, Note_on_c, 1, 55, 80
3, 91679, Note_on_c, 1, 55, 0
3, 91680, Note_on_c, 1, 62, 80
3, 92159, Note_on_c, 1, 62, 0
3, 92160, Note_on_c, 1, 60, 80
3, 93119, Note_on_c, 1, 60, 0
3, 93120, Note_on_c, 1, 55, 80
3, 93599, Note_on_c, 1, 55, 0
3, 93600, Note_on_c, 1, 55, 80
3, 94079, Note_on_c, 1, 55, 0
3, 94080, Note_on_c, 1, 60, 80
3, 94799, Note_on_c, 1, 60, 0
3, 94800, Note_on_c, 1, 60, 80
3, 95039, Note_on_c, 1, 60, 0
3, 95040, Note_on_c, 1, 60, 80
3, 95999, Note_on_c, 1, 60, 0
3, 96000, Note_on_c, 1, 55, 80
3, 96959, Note_on_c, 1, 55, 0
3, 96960, Note_on_c, 1, 67, 80
3, 97439, Note_on_c, 1, 67, 0
3, 97440, Note_on_c, 1, 55, 80
3, 97919, Note_on_c, 1, 55, 0
3, 97920, Note_on_c, 1, 53, 80
3, 98879, Note_on_c, 1, 53, 0
3, 98880, Note_on_c, 1, 65, 80
3, 99359, Note_on_c, 1, 65, 0
3, 99360, Note_on_c, 1, 53, 80
3, 99839, Note_on_c, 1, 53, 0
3, 99840, Note_on_c, 1, 52, 80
3, 100559, Note_on_c, 1, 52, 0
3, 100560, Note_on_c, 1, 52, 80
3, 100799, Note_on_c, 1, 52, 0
3, 100800, Note_on_c, 1, 52, 80
3, 101759, Note_on_c, 1, 52, 0
3, 101760, Note_on_c, 1, 52, 80
3, 102479, Note_on_c, 1, 52, 0
3, 102480, Note_on_c, 1, 52, 80
3, 102719, Note_on_c, 1, 52, 0
3, 102720, Note_on_c, 1, 64, 80
3, 103199, Note_on_c, 1, 64, 0
3, 103200, Note_on_c, 1, 52, 80
3, 103679, Note_on_c, 1, 52, 0
3, 103680, Note_on_c, 1, 57, 80
3, 104399, Note_on_c, 1, 57, 0
3, 104400, Note_on_c, 1, 57, 80
3, 104639, Note_on_c, 1, 57, 0
3, 104640, Note_on_c, 1, 57, 80
3, 105599, Note_on_c, 1, 57, 0
3, 105600, Note_on_c, 1, 60, 80
3, 106319, Note_on_c, 1, 60, 0
3, 106320, Note_on_c, 1, 60, 80
3, 106559, Note_on_c, 1, 60, 0
3, 106560, Note_on_c, 1, 60, 80
3, 107039, Note_on_c, 1, 60, 0
3, 107040, Note_on_c, 1, 48, 80
3, 107519, Note_on_c, 1, 48, 0
3, 107520, Note_on_c, 1, 55, 80
3, 108479, Note_on_c, 1, 55, 0
3, 108480, Note_on_c, 1, 59, 80
3, 109439, Note_on_c, 1, 59, 0
3, 109440, Note_on_c, 1, 62, 80
3, 110159, Note_on_c, 1, 62, 0
3, 110160, Note_on_c, 1, 62, 80
3, 110639, Note_on_c, 1, 62, 0
3, 110640, Note_on_c, 1, 62, 80
3, 111119, Note_on_c, 1, 62, 0
3, 111120, Note_on_c, 1, 62, 80
3, 111359, Note_on_c, 1, 62, 0
3, 111360, Note_on_c, 1, 62, 80
3, 112079, Note_on_c, 1, 62, 0
3, 112080, Note_on_c, 1, 62, 80
3, 112799, Note_on_c, 1, 62, 0
3, 112800, Note_on_c, 1, 50, 80
3, 113279, Note_on_c, 1, 50, 0
3, 113280, Note_on_c, 1, 55, 80
3, 114239, Note_on_c, 1, 55, 0
3, 114240, Note_on_c, 1, 55, 80
3, 114719, Note_on_c, 1, 55, 0
3, 114720, Note_on_c, 1, 62, 80
3, 115199, Note_on_c, 1, 62, 0
3, 115200, Note_on_c, 1, 55, 80
3, 116159, Note_on_c, 1, 55, 0
3, 116160, Note_on_c, 1, 55, 80
3, 116639, Note_on_c, 1, 55, 0
3, 116640, Note_on_c, 1, 62, 80
3, 117119, Note_on_c, 1, 62, 0
3, 117120, Note_on_c, 1, 60, 80
3, 118079, Note_on_c, 1, 60, 0
3, 118080, Note_on_c, 1, 55, 80
3, 118559, Note_on_c, 1, 55, 0
3, 118560, Note_on_c, 1, 55, 80
3, 119039, Note_on_c, 1, 55, 0
3, 119040, Note_on_c, 1, 60, 80
3, 119759, Note_on_c, 1, 60, 0
3, 119760, Note_on_c, 1, 60, 80
3, 119999, Note_on_c, 1, 60, 0
3, 120000, Note_on_c, 1, 60, 80
3, 120959, Note_on_c, 1, 60, 0
3, 120960, Note_on_c, 1, 55, 80
3, 121919, Note_on_c, 1, 55, 0
3, 121920, Note_on_c, 1, 67, 80
3, 122399, Note_on_c, 1, 67, 0
3, 122400, Note_on_c, 1, 55, 80
3, 122879, Note_on_c, 1, 55, 0
3, 122880, Note_on_c, 1, 53, 80
3, 123839, Note_on_c, 1, 53, 0
3, 123840, Note_on_c, 1, 65, 80
3, 124319, Note_on_c, 1, 65, 0
3, 124320, Note_on_c, 1, 53, 80
3, 124799, Note_on_c, 1, 53, 0
3, 124800, Note_on_c, 1, 52, 80
3, 125519, Note_on_c, 1, 52, 0
3, 125520, Note_on_c, 1, 52, 80
3, 125759, Note_on_c, 1, 52, 0
3, 125760, Note_on_c, 1, 52, 80
3, 126719, Note_on_c, 1, 52, 0
3, 126720, Note_on_c, 1, 52, 80
3, 127439, Note_on_c, 1, 52, 0
3, 127440, Note_on_c, 1, 52, 80
3, 127679, Note_on_c, 1, 52, 0
3, 127680, Note_on_c, 1, 64, 80
3, 128159, Note_on_c, 1, 64, 0
3, 128160, Note_on_c, 1, 52, 80
3, 128639, Note_on_c, 1, 52, 0
3, 128640, Note_on_c, 1, 57, 80
3, 129359, Note_on_c, 1, 57, 0
3, 129360, Note_on_c, 1, 57, 80
3, 129599, Note_on_c, 1, 57, 0
3, 129600, Note_on_c, 1, 57, 80
3, 130559, Note_on_c, 1, 57, 0
3, 130560, Note_on_c, 1, 60, 80
3, 131279, Note_on_c, 1, 60, 0
3, 131280, Note_on_c, 1, 60, 80
3, 131519, Note_on_c, 1, 60, 0
3, 131520, Note_on_c, 1, 60, 80
3, 131999, Note_on_c, 1, 60, 0
3, 132000, Note_on_c, 1, 48, 80
3, 132479, Note_on_c, 1, 48, 0
3, 132480, Note_on_c, 1, 55, 80
3, 133439, Note_on_c, 1, 55, 0
3, 133440, Note_on_c, 1, 59, 80
3, 134399, Note_on_c, 1, 59, 0
3, 134400, Note_on_c, 1, 62, 80
3, 135119, Note_on_c, 1, 62, 0
3, 135120, Note_on_c, 1, 62, 80
3, 135599, Note_on_c, 1, 62, 0
3, 135600, Note_on_c, 1, 62, 80
3, 136079, Note_on_c, 1, 62, 0
3, 136080, Note_on_c, 1, 62, 80
3, 136319, Note_on_c, 1, 62, 0
3, 136320, Note_on_c, 1, 62, 80
3, 137039, Note_on_c, 1, 62, 0
3, 137040, Note_on_c, 1, 62, 80
3, 137759, Note_on_c, 1, 62, 0
3, 137760, Note_on_c, 1, 50, 80
3, 138239, Note_on_c, 1, 50, 0
3, 138240, Note_on_c, 1, 55, 80
3, 139199, Note_on_c, 1, 55, 0
3, 139200, Note_on_c, 1, 55, 80
3, 140159, Note_on_c, 1, 55, 0
3, 140160, Note_on_c, 1, 55, 80
3, 141119, Note_on_c, 1, 55, 0
3, 141120, Note_on_c, 1, 55, 80
3, 142079, Note_on_c, 1, 55, 0
3, 142080, Note_on_c, 1, 55, 80
3, 143999, Note_on_c, 1, 55, 0
3, 144000, End_track
0, 0, End_of_file
