0, 0, Header, 1, 2, 480
1, 0, Start_track
1, 0, Title_t, "Piano, Piano\000"
1, 0, Time_signature, 4, 2, 24, 8
1, 0, Key_signature, 0, "major"
1, 0, Tempo, 600000
1, 0, Control_c, 0, 121, 0
1, 0, Program_c, 0, 0
1, 0, Control_c, 0, 7, 100
1, 0, Control_c, 0, 10, 64
1, 0, Control_c, 0, 91, 0
1, 0, Control_c, 0, 93, 0
1, 0, MIDI_port, 0
1, 240, Note_on_c, 0, 74, 80
1, 467, Note_on_c, 0, 74, 0
1, 480, Tempo, 606061
1, 480, Note_on_c, 0, 74, 80
1, 707, Note_on_c, 0, 74, 0
1, 720, Tempo, 618557
1, 720, Note_on_c, 0, 76, 80
1, 947, Note_on_c, 0, 76, 0
1, 960, Tempo, 631579
1, 960, Note_on_c, 0, 76, 80
1, 1187, Note_on_c, 0, 76, 0
1, 1200, Tempo, 652174
1, 1200, Note_on_c, 0, 77, 80
1, 1427, Note_on_c, 0, 77, 0
1, 1440, Tempo, 674157
1, 1440, Note_on_c, 0, 77, 80
1, 1667, Note_on_c, 0, 77, 0
1, 1680, Tempo, 705882
1, 1680, Note_on_c, 0, 79, 80
1, 1907, Note_on_c, 0, 79, 0
1, 1920, Note_on_c, 0, 72, 80
1, 1980, Note_on_c, 0, 81, 80
1, 2150, Note_on_c, 0, 81, 0
1, 2159, Note_on_c, 0, 72, 0
1, 2160, Tempo, 600000
1, 2160, Note_on_c, 0, 72, 80
1, 2387, Note_on_c, 0, 72, 0
1, 2400, Note_on_c, 0, 72, 80
1, 2627, Note_on_c, 0, 72, 0
1, 2640, Tempo, 606061
1, 2640, Note_on_c, 0, 74, 80
1, 2867, Note_on_c, 0, 74, 0
1, 2880, Tempo, 618557
1, 2880, Note_on_c, 0, 74, 80
1, 3107, Note_on_c, 0, 74, 0
1, 3120, Tempo, 631579
1, 3120, Note_on_c, 0, 76, 80
1, 3347, Note_on_c, 0, 76, 0
1, 3360, Tempo, 652174
1, 3360, Note_on_c, 0, 76, 80
1, 3587, Note_on_c, 0, 76, 0
1, 3600, Tempo, 674157
1, 3600, Note_on_c, 0, 77, 80
1, 3827, Note_on_c, 0, 77, 0
1, 3840, Tempo, 705882
1, 3840, Note_on_c, 0, 72, 80
1, 3900, Note_on_c, 0, 79, 80
1, 4070, Note_on_c, 0, 79, 0
1, 4079, Note_on_c, 0, 72, 0
1, 4080, Tempo, 600000
1, 4080, Note_on_c, 0, 72, 80
1, 4307, Note_on_c, 0, 72, 0
1, 4320, Note_on_c, 0, 72, 80
1, 4547, Note_on_c, 0, 72, 0
1, 4560, Tempo, 606061
1, 4560, Note_on_c, 0, 74, 80
1, 4787, Note_on_c, 0, 74, 0
1, 4800, Tempo, 618557
1, 4800, Note_on_c, 0, 74, 80
1, 5027, Note_on_c, 0, 74, 0
1, 5040, Tempo, 631579
1, 5040, Note_on_c, 0, 76, 80
1, 5267, Note_on_c, 0, 76, 0
1, 5280, Tempo, 652174
1, 5280, Note_on_c, 0, 76, 80
1, 5507, Note_on_c, 0, 76, 0
1, 5520, Tempo, 674157
1, 5520, Note_on_c, 0, 77, 80
1, 5747, Note_on_c, 0, 77, 0
1, 5760, Tempo, 705882
1, 5760, Note_on_c, 0, 71, 80
1, 5820, Note_on_c, 0, 79, 80
1, 5990, Note_on_c, 0, 79, 0
1, 5999, Note_on_c, 0, 71, 0
1, 6000, Tempo, 600000
1, 6000, Note_on_c, 0, 77, 80
1, 6227, Note_on_c, 0, 77, 0
1, 6240, Tempo, 606061
1, 6240, Note_on_c, 0, 77, 80
1, 6467, Note_on_c, 0, 77, 0
1, 6480, Tempo, 612245
1, 6480, Note_on_c, 0, 76, 80
1, 6707, Note_on_c, 0, 76, 0
1, 6720, Tempo, 631579
1, 6720, Note_on_c, 0, 76, 80
1, 6947, Note_on_c, 0, 76, 0
1, 6960, Tempo, 666667
1, 6960, Note_on_c, 0, 74, 80
1, 7187, Note_on_c, 0, 74, 0
1, 7200, Tempo, 705882
1, 7200, Note_on_c, 0, 74, 80
1, 7427, Note_on_c, 0, 74, 0
1, 7440, Tempo, 769231
1, 7440, Note_on_c, 0, 72, 80
1, 7667, Note_on_c, 0, 72, 0
1, 7680, Key_signature, 0, "major"
1, 7680, Tempo, 600000
1, 7920, Note_on_c, 0, 74, 80
1, 8147, Note_on_c, 0, 74, 0
1, 8160, Tempo, 606061
1, 8160, Note_on_c, 0, 74, 80
1, 8387, Note_on_c, 0, 74, 0
1, 8400, Tempo, 618557
1, 8400, Note_on_c, 0, 76, 80
1, 8627, Note_on_c, 0, 76, 0
1, 8640, Tempo, 631579
1, 8640, Note_on_c, 0, 76, 80
1, 8867, Note_on_c, 0, 76, 0
1, 8880, Tempo, 652174
1, 8880, Note_on_c, 0, 77, 80
1, 9107, Note_on_c, 0, 77, 0
1, 9120, Tempo, 674157
1, 9120, Note_on_c, 0, 77, 80
1, 9347, Note_on_c, 0, 77, 0
1, 9360, Tempo, 705882
1, 9360, Note_on_c, 0, 79, 80
1, 9587, Note_on_c, 0, 79, 0
1, 9600, Note_on_c, 0, 72, 80
1, 9660, Note_on_c, 0, 81, 80
1, 9830, Note_on_c, 0, 81, 0
1, 9839, Note_on_c, 0, 72, 0
1, 9840, Tempo, 600000
1, 9840, Note_on_c, 0, 72, 80
1, 10067, Note_on_c, 0, 72, 0
1, 10080, Note_on_c, 0, 72, 80
1, 10307, Note_on_c, 0, 72, 0
1, 10320, Tempo, 606061
1, 10320, Note_on_c, 0, 74, 80
1, 10547, Note_on_c, 0, 74, 0
1, 10560, Tempo, 618557
1, 10560, Note_on_c, 0, 74, 80
1, 10787, Note_on_c, 0, 74, 0
1, 10800, Tempo, 631579
1, 10800, Note_on_c, 0, 76, 80
1, 11027, Note_on_c, 0, 76, 0
1, 11040, Tempo, 652174
1, 11040, Note_on_c, 0, 76, 80
1, 11267, Note_on_c, 0, 76, 0
1, 11280, Tempo, 674157
1, 11280, Note_on_c, 0, 77, 80
1, 11507, Note_on_c, 0, 77, 0
1, 11520, Tempo, 705882
1, 11520, Note_on_c, 0, 72, 80
1, 11580, Note_on_c, 0, 79, 80
1, 11750, Note_on_c, 0, 79, 0
1, 11759, Note_on_c, 0, 72, 0
1, 11760, Tempo, 600000
1, 11760, Note_on_c, 0, 72, 80
1, 11987, Note_on_c, 0, 72, 0
1, 12000, Note_on_c, 0, 72, 80
1, 12227, Note_on_c, 0, 72, 0
1, 12240, Tempo, 606061
1, 12240, Note_on_c, 0, 74, 80
1, 12467, Note_on_c, 0, 74, 0
1, 12480, Tempo, 618557
1, 12480, Note_on_c, 0, 74, 80
1, 12707, Note_on_c, 0, 74, 0
1, 12720, Tempo, 631579
1, 12720, Note_on_c, 0, 76, 80
1, 12947, Note_on_c, 0, 76, 0
1, 12960, Tempo, 652174
1, 12960, Note_on_c, 0, 76, 80
1, 13187, Note_on_c, 0, 76, 0
1, 13200, Tempo, 674157
1, 13200, Note_on_c, 0, 77, 80
1, 13427, Note_on_c, 0, 77, 0
1, 13440, Tempo, 705882
1, 13440, Note_on_c, 0, 71, 80
1, 13500, Note_on_c, 0, 79, 80
1, 13670, Note_on_c, 0, 79, 0
1, 13679, Note_on_c, 0, 71, 0
1, 13680, Tempo, 600000
1, 13680, Note_on_c, 0, 77, 80
1, 13907, Note_on_c, 0, 77, 0
1, 13920, Tempo, 606061
1, 13920, Note_on_c, 0, 77, 80
1, 14147, Note_on_c, 0, 77, 0
1, 14160, Tempo, 612245
1, 14160, Note_on_c, 0, 76, 80
1, 14387, Note_on_c, 0, 76, 0
1, 14400, Tempo, 631579
1, 14400, Note_on_c, 0, 76, 80
1, 14627, Note_on_c, 0, 76, 0
1, 14640, Tempo, 666667
1, 14640, Note_on_c, 0, 74, 80
1, 14867, Note_on_c, 0, 74, 0
1, 14880, Tempo, 705882
1, 14880, Note_on_c, 0, 74, 80
1, 15107, Note_on_c, 0, 74, 0
1, 15120, Tempo, 769231
1, 15120, Note_on_c, 0, 72, 80
1, 15347, Note_on_c, 0, 72, 0
1, 15360, Tempo, 545455
1, 15600, Tempo, 600000
1, 15600, Note_on_c, 0, 81, 80
1, 15827, Note_on_c, 0, 81, 0
1, 15840, Note_on_c, 0, 81, 80
1, 16067, Note_on_c, 0, 81, 0
1, 16080, Tempo, 606061
1, 16080, Note_on_c, 0, 79, 80
1, 16307, Note_on_c, 0, 79, 0
1, 16320, Note_on_c, 0, 79, 80
1, 16547, Note_on_c, 0, 79, 0
1, 16560, Tempo, 612245
1, 16560, Note_on_c, 0, 77, 80
1, 16787, Note_on_c, 0, 77, 0
1, 16800, Tempo, 618557
1, 16800, Note_on_c, 0, 77, 80
1, 17027, Note_on_c, 0, 77, 0
1, 17040, Tempo, 631579
1, 17040, Note_on_c, 0, 76, 80
1, 17267, Note_on_c, 0, 76, 0
1, 17280, Tempo, 638298
1, 17280, Note_on_c, 0, 76, 80
1, 17280, Note_on_c, 0, 69, 80
1, 17520, Tempo, 652174
1, 17735, Note_on_c, 0, 69, 0
1, 17760, Tempo, 674157
1, 18000, Tempo, 689655
1, 18191, Note_on_c, 0, 76, 0
1, 18240, Tempo, 714286
1, 18240, Note_on_c, 0, 72, 80
1, 18479, Note_on_c, 0, 72, 0
1, 18480, Tempo, 740741
1, 18720, Tempo, 769231
1, 18960, Tempo, 810811
1, 19200, Tempo, 600000
1, 19440, Note_on_c, 0, 79, 80
1, 19667, Note_on_c, 0, 79, 0
1, 19680, Note_on_c, 0, 79, 80
1, 19907, Note_on_c, 0, 79, 0
1, 19920, Tempo, 606061
1, 19920, Note_on_c, 0, 77, 80
1, 20147, Note_on_c, 0, 77, 0
1, 20160, Tempo, 612245
1, 20160, Note_on_c, 0, 77, 80
1, 20387, Note_on_c, 0, 77, 0
1, 20400, Tempo, 618557
1, 20400, Note_on_c, 0, 76, 80
1, 20627, Note_on_c, 0, 76, 0
1, 20640, Tempo, 625000
1, 20640, Note_on_c, 0, 76, 80
1, 20867, Note_on_c, 0, 76, 0
1, 20880, Tempo, 638298
1, 20880, Note_on_c, 0, 74, 80
1, 21107, Note_on_c, 0, 74, 0
1, 21120, Tempo, 645161
1, 21120, Note_on_c, 0, 74, 80
1, 21120, Note_on_c, 0, 67, 80
1, 21360, Tempo, 659341
1, 21575, Note_on_c, 0, 67, 0
1, 21600, Tempo, 674157
1, 21840, Tempo, 697674
1, 22031, Note_on_c, 0, 74, 0
1, 22080, Tempo, 722892
1, 22320, Tempo, 750000
1, 22560, Tempo, 779221
1, 22800, Tempo, 810811
1, 23040, Tempo, 600000
1, 23280, Note_on_c, 0, 81, 80
1, 23507, Note_on_c, 0, 81, 0
1, 23520, Tempo, 606061
1, 23520, Note_on_c, 0, 81, 80
1, 23747, Note_on_c, 0, 81, 0
1, 23760, Tempo, 618557
1, 23760, Note_on_c, 0, 79, 80
1, 23987, Note_on_c, 0, 79, 0
1, 24000, Tempo, 631579
1, 24000, Note_on_c, 0, 79, 80
1, 24227, Note_on_c, 0, 79, 0
1, 24240, Tempo, 652174
1, 24240, Note_on_c, 0, 77, 80
1, 24467, Note_on_c, 0, 77, 0
1, 24480, Tempo, 674157
1, 24480, Note_on_c, 0, 77, 80
1, 24707, Note_on_c, 0, 77, 0
1, 24720, Tempo, 705882
1, 24720, Note_on_c, 0, 76, 80
1, 24947, Note_on_c, 0, 76, 0
1, 24960, Note_on_c, 0, 76, 80
1, 25020, Note_on_c, 0, 84, 80
1, 25440, Tempo, 600000
1, 25871, Note_on_c, 0, 76, 0
1, 25920, Tempo, 606061
1, 26400, Tempo, 612245
1, 26444, Note_on_c, 0, 84, 0
1, 26640, Tempo, 618557
1, 26640, Note_on_c, 0, 81, 80
1, 26867, Note_on_c, 0, 81, 0
1, 26880, Note_on_c, 0, 79, 80
1, 27120, Tempo, 625000
1, 27360, Tempo, 631579
1, 27600, Tempo, 638298
1, 27840, Tempo, 645161
1, 28080, Tempo, 659341
1, 28247, Note_on_c, 0, 79, 0
1, 28320, Tempo, 666667
1, 28560, Tempo, 674157
1, 28800, Tempo, 689655
1, 29040, Tempo, 705882
1, 29280, Tempo, 722892
1, 29520, Tempo, 740741
1, 29760, Tempo, 759494
1, 30000, Tempo, 779221
1, 30240, Tempo, 800000
1, 30480, Tempo, 833333
1, 30720, Tempo, 600000
1, 30960, Note_on_c, 0, 74, 80
1, 31187, Note_on_c, 0, 74, 0
1, 31200, Note_on_c, 0, 74, 80
1, 31427, Note_on_c, 0, 74, 0
1, 31440, Tempo, 606061
1, 31440, Note_on_c, 0, 76, 80
1, 31667, Note_on_c, 0, 76, 0
1, 31680, Tempo, 618557
1, 31680, Note_on_c, 0, 76, 80
1, 31907, Note_on_c, 0, 76, 0
1, 31920, Tempo, 631579
1, 31920, Note_on_c, 0, 77, 80
1, 32147, Note_on_c, 0, 77, 0
1, 32160, Tempo, 652174
1, 32160, Note_on_c, 0, 77, 80
1, 32387, Note_on_c, 0, 77, 0
1, 32400, Tempo, 674157
1, 32400, Note_on_c, 0, 79, 80
1, 32627, Note_on_c, 0, 79, 0
1, 32640, Tempo, 600000
1, 32640, Note_on_c, 0, 72, 80
1, 32700, Note_on_c, 0, 81, 80
1, 32870, Note_on_c, 0, 81, 0
1, 32879, Note_on_c, 0, 72, 0
1, 32880, Note_on_c, 0, 72, 80
1, 33107, Note_on_c, 0, 72, 0
1, 33120, Tempo, 606061
1, 33120, Note_on_c, 0, 72, 80
1, 33347, Note_on_c, 0, 72, 0
1, 33360, Tempo, 612245
1, 33360, Note_on_c, 0, 74, 80
1, 33587, Note_on_c, 0, 74, 0
1, 33600, Tempo, 625000
1, 33600, Note_on_c, 0, 74, 80
1, 33827, Note_on_c, 0, 74, 0
1, 33840, Tempo, 638298
1, 33840, Note_on_c, 0, 76, 80
1, 34067, Note_on_c, 0, 76, 0
1, 34080, Tempo, 652174
1, 34080, Note_on_c, 0, 76, 80
1, 34307, Note_on_c, 0, 76, 0
1, 34320, Tempo, 674157
1, 34320, Note_on_c, 0, 77, 80
1, 34547, Note_on_c, 0, 77, 0
1, 34560, Tempo, 600000
1, 34560, Note_on_c, 0, 72, 80
1, 34620, Note_on_c, 0, 79, 80
1, 34790, Note_on_c, 0, 79, 0
1, 34799, Note_on_c, 0, 72, 0
1, 34800, Note_on_c, 0, 72, 80
1, 35027, Note_on_c, 0, 72, 0
1, 35040, Note_on_c, 0, 72, 80
1, 35267, Note_on_c, 0, 72, 0
1, 35280, Tempo, 606061
1, 35280, Note_on_c, 0, 74, 80
1, 35507, Note_on_c, 0, 74, 0
1, 35520, Note_on_c, 0, 74, 80
1, 35747, Note_on_c, 0, 74, 0
1, 35760, Tempo, 612245
1, 35760, Note_on_c, 0, 76, 80
1, 35987, Note_on_c, 0, 76, 0
1, 36000, Tempo, 618557
1, 36000, Note_on_c, 0, 76, 80
1, 36227, Note_on_c, 0, 76, 0
1, 36240, Tempo, 631579
1, 36240, Note_on_c, 0, 77, 80
1, 36467, Note_on_c, 0, 77, 0
1, 36480, Tempo, 638298
1, 36480, Note_on_c, 0, 71, 80
1, 36540, Note_on_c, 0, 79, 80
1, 36710, Note_on_c, 0, 79, 0
1, 36719, Note_on_c, 0, 71, 0
1, 36720, Tempo, 652174
1, 36720, Note_on_c, 0, 77, 80
1, 36947, Note_on_c, 0, 77, 0
1, 36960, Tempo, 666667
1, 36960, Note_on_c, 0, 77, 80
1, 37187, Note_on_c, 0, 77, 0
1, 37200, Tempo, 681818
1, 37200, Note_on_c, 0, 76, 80
1, 37427, Note_on_c, 0, 76, 0
1, 37440, Tempo, 697674
1, 37440, Note_on_c, 0, 76, 80
1, 37667, Note_on_c, 0, 76, 0
1, 37680, Tempo, 714286
1, 37680, Note_on_c, 0, 74, 80
1, 37907, Note_on_c, 0, 74, 0
1, 37920, Tempo, 740741
1, 37920, Note_on_c, 0, 74, 80
1, 38147, Note_on_c, 0, 74, 0
1, 38160, Tempo, 769231
1, 38160, Note_on_c, 0, 72, 80
1, 38387, Note_on_c, 0, 72, 0
1, 38400, Tempo, 600000
1, 38640, Note_on_c, 0, 74, 80
1, 38867, Note_on_c, 0, 74, 0
1, 38880, Tempo, 606061
1, 38880, Note_on_c, 0, 74, 80
1, 39107, Note_on_c, 0, 74, 0
1, 39120, Note_on_c, 0, 76, 80
1, 39347, Note_on_c, 0, 76, 0
1, 39360, Tempo, 612245
1, 39360, Note_on_c, 0, 76, 80
1, 39587, Note_on_c, 0, 76, 0
1, 39600, Tempo, 625000
1, 39600, Note_on_c, 0, 77, 80
1, 39827, Note_on_c, 0, 77, 0
1, 39840, Tempo, 631579
1, 39840, Note_on_c, 0, 77, 80
1, 40067, Note_on_c, 0, 77, 0
1, 40080, Tempo, 645161
1, 40080, Note_on_c, 0, 79, 80
1, 40307, Note_on_c, 0, 79, 0
1, 40320, Tempo, 600000
1, 40320, Note_on_c, 0, 72, 80
1, 40380, Note_on_c, 0, 81, 80
1, 40550, Note_on_c, 0, 81, 0
1, 40559, Note_on_c, 0, 72, 0
1, 40560, Note_on_c, 0, 72, 80
1, 40787, Note_on_c, 0, 72, 0
1, 40800, Tempo, 606061
1, 40800, Note_on_c, 0, 72, 80
1, 41027, Note_on_c, 0, 72, 0
1, 41040, Note_on_c, 0, 74, 80
1, 41267, Note_on_c, 0, 74, 0
1, 41280, Tempo, 618557
1, 41280, Note_on_c, 0, 74, 80
1, 41507, Note_on_c, 0, 74, 0
1, 41520, Tempo, 625000
1, 41520, Note_on_c, 0, 76, 80
1, 41747, Note_on_c, 0, 76, 0
1, 41760, Tempo, 638298
1, 41760, Note_on_c, 0, 76, 80
1, 41987, Note_on_c, 0, 76, 0
1, 42000, Tempo, 659341
1, 42000, Note_on_c, 0, 77, 80
1, 42227, Note_on_c, 0, 77, 0
1, 42240, Tempo, 600000
1, 42240, Note_on_c, 0, 72, 80
1, 42300, Note_on_c, 0, 79, 80
1, 42470, Note_on_c, 0, 79, 0
1, 42479, Note_on_c, 0, 72, 0
1, 42480, Note_on_c, 0, 72, 80
1, 42707, Note_on_c, 0, 72, 0
1, 42720, Note_on_c, 0, 72, 80
1, 42947, Note_on_c, 0, 72, 0
1, 42960, Tempo, 606061
1, 42960, Note_on_c, 0, 74, 80
1, 43187, Note_on_c, 0, 74, 0
1, 43200, Note_on_c, 0, 74, 80
1, 43427, Note_on_c, 0, 74, 0
1, 43440, Tempo, 612245
1, 43440, Note_on_c, 0, 76, 80
1, 43667, Note_on_c, 0, 76, 0
1, 43680, Tempo, 618557
1, 43680, Note_on_c, 0, 76, 80
1, 43907, Note_on_c, 0, 76, 0
1, 43920, Tempo, 625000
1, 43920, Note_on_c, 0, 77, 80
1, 44147, Note_on_c, 0, 77, 0
1, 44160, Tempo, 631579
1, 44160, Note_on_c, 0, 71, 80
1, 44220, Note_on_c, 0, 79, 80
1, 44390, Note_on_c, 0, 79, 0
1, 44399, Note_on_c, 0, 71, 0
1, 44400, Tempo, 638298
1, 44400, Note_on_c, 0, 77, 80
1, 44627, Note_on_c, 0, 77, 0
1, 44640, Tempo, 652174
1, 44640, Note_on_c, 0, 77, 80
1, 44867, Note_on_c, 0, 77, 0
1, 44880, Tempo, 666667
1, 44880, Note_on_c, 0, 76, 80
1, 45107, Note_on_c, 0, 76, 0
1, 45120, Tempo, 681818
1, 45120, Note_on_c, 0, 76, 80
1, 45347, Note_on_c, 0, 76, 0
1, 45360, Tempo, 697674
1, 45360, Note_on_c, 0, 74, 80
1, 45587, Note_on_c, 0, 74, 0
1, 45600, Tempo, 714286
1, 45600, Note_on_c, 0, 74, 80
1, 45827, Note_on_c, 0, 74, 0
1, 45840, Tempo, 740741
1, 45840, Note_on_c, 0, 72, 80
1, 46067, Note_on_c, 0, 72, 0
1, 46080, Tempo, 600000
1, 46320, Note_on_c, 0, 81, 80
1, 46547, Note_on_c, 0, 81, 0
1, 46560, Note_on_c, 0, 81, 80
1, 46787, Note_on_c, 0, 81, 0
1, 46800, Note_on_c, 0, 79, 80
1, 47027, Note_on_c, 0, 79, 0
1, 47040, Tempo, 606061
1, 47040, Note_on_c, 0, 79, 80
1, 47267, Note_on_c, 0, 79, 0
1, 47280, Tempo, 612245
1, 47280, Note_on_c, 0, 77, 80
1, 47507, Note_on_c, 0, 77, 0
1, 47520, Tempo, 618557
1, 47520, Note_on_c, 0, 77, 80
1, 47747, Note_on_c, 0, 77, 0
1, 47760, Tempo, 625000
1, 47760, Note_on_c, 0, 76, 80
1, 47987, Note_on_c, 0, 76, 0
1, 48000, Tempo, 631579
1, 48000, Note_on_c, 0, 76, 80
1, 48000, Note_on_c, 0, 69, 80
1, 48240, Tempo, 645161
1, 48455, Note_on_c, 0, 69, 0
1, 48480, Tempo, 659341
1, 48720, Tempo, 674157
1, 48911, Note_on_c, 0, 76, 0
1, 48960, Tempo, 689655
1, 48960, Note_on_c, 0, 72, 80
1, 49199, Note_on_c, 0, 72, 0
1, 49200, Tempo, 714286
1, 49440, Tempo, 740741
1, 49680, Tempo, 769231
1, 49920, Tempo, 705882
1, 50160, Tempo, 600000
1, 50160, Note_on_c, 0, 79, 80
1, 50387, Note_on_c, 0, 79, 0
1, 50400, Note_on_c, 0, 79, 80
1, 50627, Note_on_c, 0, 79, 0
1, 50640, Note_on_c, 0, 77, 80
1, 50867, Note_on_c, 0, 77, 0
1, 50880, Tempo, 606061
1, 50880, Note_on_c, 0, 77, 80
1, 51107, Note_on_c, 0, 77, 0
1, 51120, Tempo, 612245
1, 51120, Note_on_c, 0, 76, 80
1, 51347, Note_on_c, 0, 76, 0
1, 51360, Tempo, 618557
1, 51360, Note_on_c, 0, 76, 80
1, 51587, Note_on_c, 0, 76, 0
1, 51600, Tempo, 625000
1, 51600, Note_on_c, 0, 74, 80
1, 51827, Note_on_c, 0, 74, 0
1, 51840, Tempo, 631579
1, 51840, Note_on_c, 0, 74, 80
1, 52080, Tempo, 645161
1, 52320, Tempo, 659341
1, 52560, Tempo, 674157
1, 52751, Note_on_c, 0, 74, 0
1, 52800, Tempo, 689655
1, 53040, Tempo, 714286
1, 53280, Tempo, 740741
1, 53520, Tempo, 769231
1, 53760, Tempo, 705882
1, 54000, Tempo, 600000
1, 54000, Note_on_c, 0, 81, 80
1, 54227, Note_on_c, 0, 81, 0
1, 54240, Note_on_c, 0, 81, 80
1, 54467, Note_on_c, 0, 81, 0
1, 54480, Tempo, 606061
1, 54480, Note_on_c, 0, 79, 80
1, 54707, Note_on_c, 0, 79, 0
1, 54720, Tempo, 618557
1, 54720, Note_on_c, 0, 79, 80
1, 54947, Note_on_c, 0, 79, 0
1, 54960, Tempo, 631579
1, 54960, Note_on_c, 0, 77, 80
1, 55187, Note_on_c, 0, 77, 0
1, 55200, Tempo, 652174
1, 55200, Note_on_c, 0, 77, 80
1, 55427, Note_on_c, 0, 77, 0
1, 55440, Tempo, 674157
1, 55440, Note_on_c, 0, 76, 80
1, 55667, Note_on_c, 0, 76, 0
1, 55680, Tempo, 600000
1, 55680, Note_on_c, 0, 76, 80
1, 55736, Note_on_c, 0, 76, 0
1, 55740, Note_on_c, 0, 84, 80
1, 56640, Tempo, 606061
1, 57120, Tempo, 612245
1, 57164, Note_on_c, 0, 84, 0
1, 57360, Tempo, 618557
1, 57360, Note_on_c, 0, 81, 80
1, 57587, Note_on_c, 0, 81, 0
1, 57600, Note_on_c, 0, 79, 80
1, 57840, Tempo, 625000
1, 58080, Tempo, 631579
1, 58320, Tempo, 638298
1, 58560, Tempo, 645161
1, 58800, Tempo, 659341
1, 58967, Note_on_c, 0, 79, 0
1, 59040, Tempo, 666667
1, 59280, Tempo, 674157
1, 59520, Tempo, 689655
1, 59520, Note_on_c, 0, 79, 80
1, 59759, Note_on_c, 0, 79, 0
1, 59760, Tempo, 705882
1, 60000, Tempo, 722892
1, 60240, Tempo, 740741
1, 60480, Tempo, 759494
1, 60720, Tempo, 779221
1, 60960, Tempo, 800000
1, 61200, Tempo, 833333
1, 61440, Tempo, 750000
1, 61440, Note_on_c, 0, 77, 80
1, 61553, Note_on_c, 0, 77, 0
1, 61560, Note_on_c, 0, 74, 80
1, 61673, Note_on_c, 0, 74, 0
1, 61680, Note_on_c, 0, 69, 80
1, 61793, Note_on_c, 0, 69, 0
1, 61800, Tempo, 666667
1, 61800, Note_on_c, 0, 77, 80
1, 61913, Note_on_c, 0, 77, 0
1, 61920, Note_on_c, 0, 74, 80
1, 62033, Note_on_c, 0, 74, 0
1, 62040, Note_on_c, 0, 69, 80
1, 62153, Note_on_c, 0, 69, 0
1, 62160, Tempo, 600000
1, 62160, Note_on_c, 0, 77, 80
1, 62273, Note_on_c, 0, 77, 0
1, 62280, Note_on_c, 0, 74, 80
1, 62393, Note_on_c, 0, 74, 0
1, 62400, Note_on_c, 0, 69, 80
1, 62513, Note_on_c, 0, 69, 0
1, 62520, Note_on_c, 0, 77, 80
1, 62633, Note_on_c, 0, 77, 0
1, 62640, Note_on_c, 0, 74, 80
1, 62753, Note_on_c, 0, 74, 0
1, 62760, Note_on_c, 0, 69, 80
1, 62873, Note_on_c, 0, 69, 0
1, 62880, Note_on_c, 0, 77, 80
1, 62993, Note_on_c, 0, 77, 0
1, 63000, Note_on_c, 0, 74, 80
1, 63113, Note_on_c, 0, 74, 0
1, 63120, Note_on_c, 0, 69, 80
1, 63233, Note_on_c, 0, 69, 0
1, 63240, Note_on_c, 0, 77, 80
1, 63353, Note_on_c, 0, 77, 0
1, 63360, Note_on_c, 0, 76, 80
1, 63473, Note_on_c, 0, 76, 0
1, 63480, Note_on_c, 0, 72, 80
1, 63593, Note_on_c, 0, 72, 0
1, 63600, Note_on_c, 0, 69, 80
1, 63713, Note_on_c, 0, 69, 0
1, 63720, Note_on_c, 0, 76, 80
1, 63833, Note_on_c, 0, 76, 0
1, 63840, Note_on_c, 0, 72, 80
1, 63953, Note_on_c, 0, 72, 0
1, 63960, Note_on_c, 0, 69, 80
1, 64073, Note_on_c, 0, 69, 0
1, 64080, Note_on_c, 0, 76, 80
1, 64193, Note_on_c, 0, 76, 0
1, 64200, Note_on_c, 0, 72, 80
1, 64313, Note_on_c, 0, 72, 0
1, 64320, Note_on_c, 0, 69, 80
1, 64433, Note_on_c, 0, 69, 0
1, 64440, Note_on_c, 0, 76, 80
1, 64553, Note_on_c, 0, 76, 0
1, 64560, Note_on_c, 0, 72, 80
1, 64673, Note_on_c, 0, 72, 0
1, 64680, Note_on_c, 0, 69, 80
1, 64793, Note_on_c, 0, 69, 0
1, 64800, Note_on_c, 0, 76, 80
1, 64913, Note_on_c, 0, 76, 0
1, 64920, Note_on_c, 0, 72, 80
1, 65033, Note_on_c, 0, 72, 0
1, 65040, Note_on_c, 0, 69, 80
1, 65153, Note_on_c, 0, 69, 0
1, 65160, Note_on_c, 0, 76, 80
1, 65273, Note_on_c, 0, 76, 0
1, 65280, Note_on_c, 0, 77, 80
1, 65393, Note_on_c, 0, 77, 0
1, 65400, Note_on_c, 0, 74, 80
1, 65513, Note_on_c, 0, 74, 0
1, 65520, Note_on_c, 0, 69, 80
1, 65633, Note_on_c, 0, 69, 0
1, 65640, Note_on_c, 0, 77, 80
1, 65753, Note_on_c, 0, 77, 0
1, 65760, Note_on_c, 0, 74, 80
1, 65873, Note_on_c, 0, 74, 0
1, 65880, Note_on_c, 0, 69, 80
1, 65993, Note_on_c, 0, 69, 0
1, 66000, Note_on_c, 0, 77, 80
1, 66113, Note_on_c, 0, 77, 0
1, 66120, Note_on_c, 0, 74, 80
1, 66233, Note_on_c, 0, 74, 0
1, 66240, Note_on_c, 0, 69, 80
1, 66353, Note_on_c, 0, 69, 0
1, 66360, Note_on_c, 0, 77, 80
1, 66473, Note_on_c, 0, 77, 0
1, 66480, Note_on_c, 0, 74, 80
1, 66593, Note_on_c, 0, 74, 0
1, 66600, Note_on_c, 0, 69, 80
1, 66713, Note_on_c, 0, 69, 0
1, 66720, Note_on_c, 0, 77, 80
1, 66833, Note_on_c, 0, 77, 0
1, 66840, Note_on_c, 0, 74, 80
1, 66953, Note_on_c, 0, 74, 0
1, 66960, Note_on_c, 0, 69, 80
1, 67073, Note_on_c, 0, 69, 0
1, 67080, Note_on_c, 0, 77, 80
1, 67193, Note_on_c, 0, 77, 0
1, 67200, Note_on_c, 0, 76, 80
1, 67313, Note_on_c, 0, 76, 0
1, 67320, Note_on_c, 0, 72, 80
1, 67433, Note_on_c, 0, 72, 0
1, 67440, Note_on_c, 0, 69, 80
1, 67553, Note_on_c, 0, 69, 0
1, 67560, Note_on_c, 0, 76, 80
1, 67673, Note_on_c, 0, 76, 0
1, 67680, Note_on_c, 0, 72, 80
1, 67793, Note_on_c, 0, 72, 0
1, 67800, Note_on_c, 0, 69, 80
1, 67913, Note_on_c, 0, 69, 0
1, 67920, Note_on_c, 0, 76, 80
1, 68033, Note_on_c, 0, 76, 0
1, 68040, Note_on_c, 0, 72, 80
1, 68153, Note_on_c, 0, 72, 0
1, 68160, Note_on_c, 0, 69, 80
1, 68273, Note_on_c, 0, 69, 0
1, 68280, Note_on_c, 0, 76, 80
1, 68393, Note_on_c, 0, 76, 0
1, 68400, Note_on_c, 0, 72, 80
1, 68513, Note_on_c, 0, 72, 0
1, 68520, Note_on_c, 0, 69, 80
1, 68633, Note_on_c, 0, 69, 0
1, 68640, Note_on_c, 0, 76, 80
1, 68753, Note_on_c, 0, 76, 0
1, 68760, Note_on_c, 0, 72, 80
1, 68873, Note_on_c, 0, 72, 0
1, 68880, Note_on_c, 0, 69, 80
1, 68993, Note_on_c, 0, 69, 0
1, 69000, Note_on_c, 0, 76, 80
1, 69113, Note_on_c, 0, 76, 0
1, 69120, Note_on_c, 0, 74, 80
1, 69233, Note_on_c, 0, 74, 0
1, 69240, Note_on_c, 0, 71, 80
1, 69353, Note_on_c, 0, 71, 0
1, 69360, Note_on_c, 0, 67, 80
1, 69473, Note_on_c, 0, 67, 0
1, 69480, Note_on_c, 0, 74, 80
1, 69593, Note_on_c, 0, 74, 0
1, 69600, Note_on_c, 0, 71, 80
1, 69713, Note_on_c, 0, 71, 0
1, 69720, Note_on_c, 0, 67, 80
1, 69833, Note_on_c, 0, 67, 0
1, 69840, Note_on_c, 0, 74, 80
1, 69953, Note_on_c, 0, 74, 0
1, 69960, Note_on_c, 0, 71, 80
1, 70073, Note_on_c, 0, 71, 0
1, 70080, Note_on_c, 0, 67, 80
1, 70193, Note_on_c, 0, 67, 0
1, 70200, Note_on_c, 0, 74, 80
1, 70313, Note_on_c, 0, 74, 0
1, 70320, Note_on_c, 0, 71, 80
1, 70433, Note_on_c, 0, 71, 0
1, 70440, Note_on_c, 0, 67, 80
1, 70553, Note_on_c, 0, 67, 0
1, 70560, Note_on_c, 0, 74, 80
1, 70673, Note_on_c, 0, 74, 0
1, 70680, Note_on_c, 0, 71, 80
1, 70793, Note_on_c, 0, 71, 0
1, 70800, Note_on_c, 0, 67, 80
1, 70913, Note_on_c, 0, 67, 0
1, 70920, Note_on_c, 0, 74, 80
1, 71033, Note_on_c, 0, 74, 0
1, 71040, Note_on_c, 0, 71, 80
1, 71153, Note_on_c, 0, 71, 0
1, 71160, Note_on_c, 0, 67, 80
1, 71273, Note_on_c, 0, 67, 0
1, 71280, Note_on_c, 0, 74, 80
1, 71393, Note_on_c, 0, 74, 0
1, 71400, Note_on_c, 0, 71, 80
1, 71513, Note_on_c, 0, 71, 0
1, 71520, Note_on_c, 0, 67, 80
1, 71633, Note_on_c, 0, 67, 0
1, 71640, Note_on_c, 0, 74, 80
1, 71753, Note_on_c, 0, 74, 0
1, 71760, Note_on_c, 0, 71, 80
1, 71873, Note_on_c, 0, 71, 0
1, 71880, Note_on_c, 0, 67, 80
1, 71993, Note_on_c, 0, 67, 0
1, 72000, Note_on_c, 0, 74, 80
1, 72113, Note_on_c, 0, 74, 0
1, 72120, Note_on_c, 0, 71, 80
1, 72233, Note_on_c, 0, 71, 0
1, 72240, Note_on_c, 0, 67, 80
1, 72353, Note_on_c, 0, 67, 0
1, 72360, Note_on_c, 0, 74, 80
1, 72473, Note_on_c, 0, 74, 0
1, 72480, Note_on_c, 0, 71, 80
1, 72593, Note_on_c, 0, 71, 0
1, 72600, Note_on_c, 0, 67, 80
1, 72713, Note_on_c, 0, 67, 0
1, 72720, Note_on_c, 0, 71, 80
1, 72833, Note_on_c, 0, 71, 0
1, 72840, Tempo, 857143
1, 72840, Note_on_c, 0, 74, 80
1, 72953, Note_on_c, 0, 74, 0
1, 72960, Tempo, 600000
1, 72960, Note_on_c, 0, 76, 80
1, 73680, Tempo, 606061
1, 73871, Note_on_c, 0, 76, 0
1, 73920, Tempo, 612245
1, 74160, Tempo, 625000
1, 74400, Tempo, 645161
1, 74400, Note_on_c, 0, 76, 80
1, 74627, Note_on_c, 0, 76, 0
1, 74640, Tempo, 545455
1, 74640, Note_on_c, 0, 77, 80
1, 74715, Note_on_c, 0, 77, 0
1, 74720, Note_on_c, 0, 76, 80
1, 74795, Note_on_c, 0, 76, 0
1, 74800, Note_on_c, 0, 74, 80
1, 74875, Note_on_c, 0, 74, 0
1, 74880, Tempo, 600000
1, 74880, Note_on_c, 0, 76, 80
1, 75600, Tempo, 606061
1, 75791, Note_on_c, 0, 76, 0
1, 75840, Tempo, 612245
1, 76080, Tempo, 618557
1, 76320, Tempo, 631579
1, 76560, Tempo, 645161
1, 76560, Note_on_c, 0, 71, 80
1, 76787, Note_on_c, 0, 71, 0
1, 76800, Tempo, 600000
1, 76800, Note_on_c, 0, 76, 80
1, 77255, Note_on_c, 0, 76, 0
1, 77520, Tempo, 606061
1, 77520, Note_on_c, 0, 77, 80
1, 77747, Note_on_c, 0, 77, 0
1, 77760, Tempo, 612245
1, 77760, Note_on_c, 0, 79, 80
1, 77911, Note_on_c, 0, 79, 0
1, 77920, Note_on_c, 0, 77, 80
1, 78000, Tempo, 625000
1, 78071, Note_on_c, 0, 77, 0
1, 78080, Note_on_c, 0, 76, 80
1, 78231, Note_on_c, 0, 76, 0
1, 78240, Tempo, 645161
1, 78240, Note_on_c, 0, 74, 80
1, 78467, Note_on_c, 0, 74, 0
1, 78480, Tempo, 545455
1, 78480, Note_on_c, 0, 76, 80
1, 78593, Note_on_c, 0, 76, 0
1, 78600, Note_on_c, 0, 77, 80
1, 78713, Note_on_c, 0, 77, 0
1, 78720, Tempo, 600000
1, 78720, Note_on_c, 0, 76, 80
1, 79440, Tempo, 606061
1, 79680, Tempo, 612245
1, 79920, Tempo, 625000
1, 80087, Note_on_c, 0, 76, 0
1, 80160, Tempo, 645161
1, 80400, Tempo, 705882
1, 80400, Note_on_c, 0, 76, 80
1, 80627, Note_on_c, 0, 76, 0
1, 80640, Tempo, 600000
1, 80640, Note_on_c, 0, 81, 80
1, 81323, Note_on_c, 0, 81, 0
1, 81360, Note_on_c, 0, 76, 80
1, 81815, Note_on_c, 0, 76, 0
1, 81840, Tempo, 606061
1, 81840, Note_on_c, 0, 76, 80
1, 82067, Note_on_c, 0, 76, 0
1, 82080, Note_on_c, 0, 76, 80
1, 82307, Note_on_c, 0, 76, 0
1, 82320, Tempo, 612245
1, 82320, Note_on_c, 0, 74, 80
1, 82547, Note_on_c, 0, 74, 0
1, 82560, Tempo, 618557
1, 82560, Note_on_c, 0, 76, 80
1, 82800, Tempo, 625000
1, 83040, Tempo, 631579
1, 83280, Tempo, 645161
1, 83471, Note_on_c, 0, 76, 0
1, 83520, Tempo, 652174
1, 83760, Tempo, 666667
1, 84000, Tempo, 689655
1, 84240, Tempo, 750000
1, 84240, Note_on_c, 0, 71, 80
1, 84467, Note_on_c, 0, 71, 0
1, 84480, Tempo, 600000
1, 84480, Note_on_c, 0, 72, 80
1, 85391, Note_on_c, 0, 72, 0
1, 85440, Tempo, 606061
1, 85920, Tempo, 612245
1, 85920, Note_on_c, 0, 74, 80
1, 86071, Note_on_c, 0, 74, 0
1, 86080, Note_on_c, 0, 72, 80
1, 86231, Note_on_c, 0, 72, 0
1, 86240, Tempo, 618557
1, 86240, Note_on_c, 0, 71, 80
1, 86319, Note_on_c, 0, 71, 0
1, 86340, Note_on_c, 0, 72, 80
1, 86396, Note_on_c, 0, 72, 0
1, 86400, Note_on_c, 0, 71, 80
1, 86640, Tempo, 631579
1, 86880, Tempo, 638298
1, 87120, Tempo, 652174
1, 87311, Note_on_c, 0, 71, 0
1, 87360, Tempo, 666667
1, 87600, Tempo, 681818
1, 87840, Tempo, 705882
1, 87840, Note_on_c, 0, 71, 80
1, 88295, Note_on_c, 0, 71, 0
1, 88320, Tempo, 666667
1, 88320, Note_on_c, 0, 71, 80
1, 89040, Note_on_c, 0, 71, 0
1, 89760, Note_on_c, 0, 71, 80
1, 90215, Note_on_c, 0, 71, 0
1, 90240, Note_on_c, 0, 72, 80
1, 90480, Tempo, 674157
1, 91151, Note_on_c, 0, 72, 0
1, 91680, Tempo, 681818
1, 91680, Note_on_c, 0, 72, 80
1, 92135, Note_on_c, 0, 72, 0
1, 92160, Tempo, 689655
1, 92160, Note_on_c, 0, 74, 80
1, 92640, Tempo, 697674
1, 93120, Tempo, 705882
1, 93527, Note_on_c, 0, 74, 0
1, 93600, Tempo, 714286
1, 93600, Note_on_c, 0, 76, 80
1, 93827, Note_on_c, 0, 76, 0
1, 93840, Tempo, 722892
1, 93840, Note_on_c, 0, 74, 80
1, 94067, Note_on_c, 0, 74, 0
1, 94080, Tempo, 731707
1, 94080, Note_on_c, 0, 76, 80
1, 94320, Tempo, 740741
1, 94800, Tempo, 759494
1, 94991, Note_on_c, 0, 76, 0
1, 95040, Tempo, 769231
1, 95280, Tempo, 779221
1, 95520, Tempo, 789474
1, 95760, Tempo, 800000
1, 96000, Tempo, 821918
1, 96240, Tempo, 833333
1, 96480, Tempo, 857143
1, 96720, Tempo, 869565
1, 96960, Tempo, 895522
1, 97200, Tempo, 909091
1, 97440, Tempo, 937500
1, 97680, Tempo, 967742
1, 97920, Tempo, 600000
1, 98640, Tempo, 606061
1, 98880, Tempo, 618557
1, 99120, Tempo, 631579
1, 99360, Tempo, 652174
1, 99600, Tempo, 674157
1, 99601, End_track
2, 0, Start_track
2, 0, Title_t, "Piano, Piano\000"
2, 0, Key_signature, 0, "major"
2, 0, MIDI_port, 0
2, 0, Note_on_c, 0, 50, 80
2, 227, Note_on_c, 0, 50, 0
2, 240, Note_on_c, 0, 57, 80
2, 467, Note_on_c, 0, 57, 0
2, 480, Note_on_c, 0, 62, 80
2, 707, Note_on_c, 0, 62, 0
2, 720, Note_on_c, 0, 65, 80
2, 947, Note_on_c, 0, 65, 0
2, 960, Note_on_c, 0, 69, 80
2, 1187, Note_on_c, 0, 69, 0
2, 1200, Note_on_c, 0, 65, 80
2, 1427, Note_on_c, 0, 65, 0
2, 1440, Note_on_c, 0, 62, 80
2, 1667, Note_on_c, 0, 62, 0
2, 1680, Note_on_c, 0, 57, 80
2, 1907, Note_on_c, 0, 57, 0
2, 1920, Note_on_c, 0, 53, 80
2, 2147, Note_on_c, 0, 53, 0
2, 2160, Note_on_c, 0, 60, 80
2, 2387, Note_on_c, 0, 60, 0
2, 2400, Note_on_c, 0, 65, 80
2, 2627, Note_on_c, 0, 65, 0
2, 2640, Note_on_c, 0, 69, 80
2, 2867, Note_on_c, 0, 69, 0
2, 2880, Note_on_c, 0, 65, 80
2, 3107, Note_on_c, 0, 65, 0
2, 3120, Note_on_c, 0, 69, 80
2, 3347, Note_on_c, 0, 69, 0
2, 3360, Note_on_c, 0, 65, 80
2, 3587, Note_on_c, 0, 65, 0
2, 3600, Note_on_c, 0, 60, 80
2, 3827, Note_on_c, 0, 60, 0
2, 3840, Note_on_c, 0, 48, 80
2, 4067, Note_on_c, 0, 48, 0
2, 4080, Note_on_c, 0, 55, 80
2, 4307, Note_on_c, 0, 55, 0
2, 4320, Note_on_c, 0, 60, 80
2, 4547, Note_on_c, 0, 60, 0
2, 4560, Note_on_c, 0, 64, 80
2, 4787, Note_on_c, 0, 64, 0
2, 4800, Note_on_c, 0, 67, 80
2, 5027, Note_on_c, 0, 67, 0
2, 5040, Note_on_c, 0, 64, 80
2, 5267, Note_on_c, 0, 64, 0
2, 5280, Note_on_c, 0, 60, 80
2, 5507, Note_on_c, 0, 60, 0
2, 5520, Note_on_c, 0, 55, 80
2, 5747, Note_on_c, 0, 55, 0
2, 5760, Note_on_c, 0, 55, 80
2, 5987, Note_on_c, 0, 55, 0
2, 6000, Note_on_c, 0, 62, 80
2, 6227, Note_on_c, 0, 62, 0
2, 6240, Note_on_c, 0, 67, 80
2, 6467, Note_on_c, 0, 67, 0
2, 6480, Note_on_c, 0, 71, 80
2, 6707, Note_on_c, 0, 71, 0
2, 6720, Note_on_c, 0, 67, 80
2, 6947, Note_on_c, 0, 67, 0
2, 6960, Note_on_c, 0, 71, 80
2, 7187, Note_on_c, 0, 71, 0
2, 7200, Note_on_c, 0, 67, 80
2, 7427, Note_on_c, 0, 67, 0
2, 7440, Note_on_c, 0, 62, 80
2, 7667, Note_on_c, 0, 62, 0
2, 7680, Key_signature, 0, "major"
2, 7680, Note_on_c, 0, 50, 80
2, 7907, Note_on_c, 0, 50, 0
2, 7920, Note_on_c, 0, 57, 80
2, 8147, Note_on_c, 0, 57, 0
2, 8160, Note_on_c, 0, 62, 80
2, 8387, Note_on_c, 0, 62, 0
2, 8400, Note_on_c, 0, 65, 80
2, 8627, Note_on_c, 0, 65, 0
2, 8640, Note_on_c, 0, 69, 80
2, 8867, Note_on_c, 0, 69, 0
2, 8880, Note_on_c, 0, 65, 80
2, 9107, Note_on_c, 0, 65, 0
2, 9120, Note_on_c, 0, 62, 80
2, 9347, Note_on_c, 0, 62, 0
2, 9360, Note_on_c, 0, 57, 80
2, 9587, Note_on_c, 0, 57, 0
2, 9600, Note_on_c, 0, 53, 80
2, 9827, Note_on_c, 0, 53, 0
2, 9840, Note_on_c, 0, 60, 80
2, 10067, Note_on_c, 0, 60, 0
2, 10080, Note_on_c, 0, 65, 80
2, 10307, Note_on_c, 0, 65, 0
2, 10320, Note_on_c, 0, 69, 80
2, 10547, Note_on_c, 0, 69, 0
2, 10560, Note_on_c, 0, 65, 80
2, 10787, Note_on_c, 0, 65, 0
2, 10800, Note_on_c, 0, 69, 80
2, 11027, Note_on_c, 0, 69, 0
2, 11040, Note_on_c, 0, 65, 80
2, 11267, Note_on_c, 0, 65, 0
2, 11280, Note_on_c, 0, 60, 80
2, 11507, Note_on_c, 0, 60, 0
2, 11520, Note_on_c, 0, 48, 80
2, 11747, Note_on_c, 0, 48, 0
2, 11760, Note_on_c, 0, 55, 80
2, 11987, Note_on_c, 0, 55, 0
2, 12000, Note_on_c, 0, 60, 80
2, 12227, Note_on_c, 0, 60, 0
2, 12240, Note_on_c, 0, 64, 80
2, 12467, Note_on_c, 0, 64, 0
2, 12480, Note_on_c, 0, 67, 80
2, 12707, Note_on_c, 0, 67, 0
2, 12720, Note_on_c, 0, 64, 80
2, 12947, Note_on_c, 0, 64, 0
2, 12960, Note_on_c, 0, 60, 80
2, 13187, Note_on_c, 0, 60, 0
2, 13200, Note_on_c, 0, 55, 80
2, 13427, Note_on_c, 0, 55, 0
2, 13440, Note_on_c, 0, 55, 80
2, 13667, Note_on_c, 0, 55, 0
2, 13680, Note_on_c, 0, 62, 80
2, 13907, Note_on_c, 0, 62, 0
2, 13920, Note_on_c, 0, 67, 80
2, 14147, Note_on_c, 0, 67, 0
2, 14160, Note_on_c, 0, 71, 80
2, 14387, Note_on_c, 0, 71, 0
2, 14400, Note_on_c, 0, 67, 80
2, 14627, Note_on_c, 0, 67, 0
2, 14640, Note_on_c, 0, 71, 80
2, 14867, Note_on_c, 0, 71, 0
2, 14880, Note_on_c, 0, 67, 80
2, 15107, Note_on_c, 0, 67, 0
2, 15120, Note_on_c, 0, 62, 80
2, 15347, Note_on_c, 0, 62, 0
2, 15360, Note_on_c, 0, 53, 80
2, 15587, Note_on_c, 0, 53, 0
2, 15600, Note_on_c, 0, 60, 80
2, 15827, Note_on_c, 0, 60, 0
2, 15840, Note_on_c, 0, 65, 80
2, 16067, Note_on_c, 0, 65, 0
2, 16080, Note_on_c, 0, 69, 80
2, 16307, Note_on_c, 0, 69, 0
2, 16320, Note_on_c, 0, 72, 80
2, 16547, Note_on_c, 0, 72, 0
2, 16560, Note_on_c, 0, 69, 80
2, 16787, Note_on_c, 0, 69, 0
2, 16800, Note_on_c, 0, 65, 80
2, 17027, Note_on_c, 0, 65, 0
2, 17040, Note_on_c, 0, 60, 80
2, 17267, Note_on_c, 0, 60, 0
2, 17280, Note_on_c, 0, 57, 80
2, 17507, Note_on_c, 0, 57, 0
2, 17520, Note_on_c, 0, 64, 80
2, 17747, Note_on_c, 0, 64, 0
2, 17760, Note_on_c, 0, 69, 80
2, 18000, Note_on_c, 0, 72, 80
2, 18215, Note_on_c, 0, 69, 0
2, 18227, Note_on_c, 0, 72, 0
2, 18240, Note_on_c, 0, 76, 80
2, 18479, Note_on_c, 0, 76, 0
2, 18480, Note_on_c, 0, 72, 80
2, 18720, Note_on_c, 0, 69, 80
2, 18947, Note_on_c, 0, 69, 0
2, 18960, Note_on_c, 0, 64, 80
2, 19163, Note_on_c, 0, 72, 0
2, 19187, Note_on_c, 0, 64, 0
2, 19200, Note_on_c, 0, 52, 80
2, 19427, Note_on_c, 0, 52, 0
2, 19440, Note_on_c, 0, 59, 80
2, 19667, Note_on_c, 0, 59, 0
2, 19680, Note_on_c, 0, 64, 80
2, 19907, Note_on_c, 0, 64, 0
2, 19920, Note_on_c, 0, 67, 80
2, 20147, Note_on_c, 0, 67, 0
2, 20160, Note_on_c, 0, 71, 80
2, 20387, Note_on_c, 0, 71, 0
2, 20400, Note_on_c, 0, 67, 80
2, 20627, Note_on_c, 0, 67, 0
2, 20640, Note_on_c, 0, 64, 80
2, 20867, Note_on_c, 0, 64, 0
2, 20880, Note_on_c, 0, 59, 80
2, 21107, Note_on_c, 0, 59, 0
2, 21120, Note_on_c, 0, 55, 80
2, 21347, Note_on_c, 0, 55, 0
2, 21360, Note_on_c, 0, 62, 80
2, 21587, Note_on_c, 0, 62, 0
2, 21600, Note_on_c, 0, 67, 80
2, 21840, Note_on_c, 0, 71, 80
2, 22067, Note_on_c, 0, 71, 0
2, 22080, Note_on_c, 0, 74, 80
2, 22320, Note_on_c, 0, 71, 80
2, 22511, Note_on_c, 0, 67, 0
2, 22535, Note_on_c, 0, 74, 0
2, 22547, Note_on_c, 0, 71, 0
2, 22560, Note_on_c, 0, 67, 80
2, 22787, Note_on_c, 0, 67, 0
2, 22800, Note_on_c, 0, 62, 80
2, 23027, Note_on_c, 0, 62, 0
2, 23040, Note_on_c, 0, 53, 80
2, 23267, Note_on_c, 0, 53, 0
2, 23280, Note_on_c, 0, 60, 80
2, 23507, Note_on_c, 0, 60, 0
2, 23520, Note_on_c, 0, 65, 80
2, 23747, Note_on_c, 0, 65, 0
2, 23760, Note_on_c, 0, 69, 80
2, 23987, Note_on_c, 0, 69, 0
2, 24000, Note_on_c, 0, 72, 80
2, 24227, Note_on_c, 0, 72, 0
2, 24240, Note_on_c, 0, 69, 80
2, 24467, Note_on_c, 0, 69, 0
2, 24480, Note_on_c, 0, 65, 80
2, 24707, Note_on_c, 0, 65, 0
2, 24720, Note_on_c, 0, 60, 80
2, 24947, Note_on_c, 0, 60, 0
2, 24960, Note_on_c, 0, 57, 80
2, 25187, Note_on_c, 0, 57, 0
2, 25200, Note_on_c, 0, 64, 80
2, 25427, Note_on_c, 0, 64, 0
2, 25440, Note_on_c, 0, 69, 80
2, 25667, Note_on_c, 0, 69, 0
2, 25680, Note_on_c, 0, 72, 80
2, 25907, Note_on_c, 0, 72, 0
2, 25920, Note_on_c, 0, 76, 80
2, 26160, Note_on_c, 0, 72, 80
2, 26387, Note_on_c, 0, 72, 0
2, 26400, Note_on_c, 0, 69, 80
2, 26627, Note_on_c, 0, 69, 0
2, 26640, Note_on_c, 0, 64, 80
2, 26831, Note_on_c, 0, 76, 0
2, 26867, Note_on_c, 0, 64, 0
2, 26880, Note_on_c, 0, 55, 80
2, 27107, Note_on_c, 0, 55, 0
2, 27120, Note_on_c, 0, 62, 80
2, 27347, Note_on_c, 0, 62, 0
2, 27360, Note_on_c, 0, 67, 80
2, 27587, Note_on_c, 0, 67, 0
2, 27600, Note_on_c, 0, 71, 80
2, 27827, Note_on_c, 0, 71, 0
2, 27840, Note_on_c, 0, 74, 80
2, 28067, Note_on_c, 0, 74, 0
2, 28080, Note_on_c, 0, 71, 80
2, 28307, Note_on_c, 0, 71, 0
2, 28320, Note_on_c, 0, 67, 80
2, 28547, Note_on_c, 0, 67, 0
2, 28560, Note_on_c, 0, 62, 80
2, 28787, Note_on_c, 0, 62, 0
2, 28800, Note_on_c, 0, 55, 80
2, 29027, Note_on_c, 0, 55, 0
2, 29040, Note_on_c, 0, 62, 80
2, 29267, Note_on_c, 0, 62, 0
2, 29280, Note_on_c, 0, 67, 80
2, 29507, Note_on_c, 0, 67, 0
2, 29520, Note_on_c, 0, 71, 80
2, 29747, Note_on_c, 0, 71, 0
2, 29760, Note_on_c, 0, 74, 80
2, 29987, Note_on_c, 0, 74, 0
2, 30000, Note_on_c, 0, 71, 80
2, 30227, Note_on_c, 0, 71, 0
2, 30240, Note_on_c, 0, 67, 80
2, 30467, Note_on_c, 0, 67, 0
2, 30480, Note_on_c, 0, 62, 80
2, 30707, Note_on_c, 0, 62, 0
2, 30720, Note_on_c, 0, 50, 80
2, 30947, Note_on_c, 0, 50, 0
2, 30960, Note_on_c, 0, 57, 80
2, 31187, Note_on_c, 0, 57, 0
2, 31200, Note_on_c, 0, 62, 80
2, 31427, Note_on_c, 0, 62, 0
2, 31440, Note_on_c, 0, 65, 80
2, 31667, Note_on_c, 0, 65, 0
2, 31680, Note_on_c, 0, 69, 80
2, 31907, Note_on_c, 0, 69, 0
2, 31920, Note_on_c, 0, 65, 80
2, 32147, Note_on_c, 0, 65, 0
2, 32160, Note_on_c, 0, 62, 80
2, 32387, Note_on_c, 0, 62, 0
2, 32400, Note_on_c, 0, 57, 80
2, 32627, Note_on_c, 0, 57, 0
2, 32640, Note_on_c, 0, 53, 80
2, 32867, Note_on_c, 0, 53, 0
2, 32880, Note_on_c, 0, 60, 80
2, 33107, Note_on_c, 0, 60, 0
2, 33120, Note_on_c, 0, 65, 80
2, 33347, Note_on_c, 0, 65, 0
2, 33360, Note_on_c, 0, 69, 80
2, 33587, Note_on_c, 0, 69, 0
2, 33600, Note_on_c, 0, 65, 80
2, 33827, Note_on_c, 0, 65, 0
2, 33840, Note_on_c, 0, 69, 80
2, 34067, Note_on_c, 0, 69, 0
2, 34080, Note_on_c, 0, 65, 80
2, 34307, Note_on_c, 0, 65, 0
2, 34320, Note_on_c, 0, 60, 80
2, 34547, Note_on_c, 0, 60, 0
2, 34560, Note_on_c, 0, 48, 80
2, 34787, Note_on_c, 0, 48, 0
2, 34800, Note_on_c, 0, 55, 80
2, 35027, Note_on_c, 0, 55, 0
2, 35040, Note_on_c, 0, 60, 80
2, 35267, Note_on_c, 0, 60, 0
2, 35280, Note_on_c, 0, 64, 80
2, 35507, Note_on_c, 0, 64, 0
2, 35520, Note_on_c, 0, 67, 80
2, 35747, Note_on_c, 0, 67, 0
2, 35760, Note_on_c, 0, 64, 80
2, 35987, Note_on_c, 0, 64, 0
2, 36000, Note_on_c, 0, 60, 80
2, 36227, Note_on_c, 0, 60, 0
2, 36240, Note_on_c, 0, 55, 80
2, 36467, Note_on_c, 0, 55, 0
2, 36480, Note_on_c, 0, 55, 80
2, 36707, Note_on_c, 0, 55, 0
2, 36720, Note_on_c, 0, 62, 80
2, 36947, Note_on_c, 0, 62, 0
2, 36960, Note_on_c, 0, 67, 80
2, 37187, Note_on_c, 0, 67, 0
2, 37200, Note_on_c, 0, 71, 80
2, 37427, Note_on_c, 0, 71, 0
2, 37440, Note_on_c, 0, 67, 80
2, 37667, Note_on_c, 0, 67, 0
2, 37680, Note_on_c, 0, 71, 80
2, 37907, Note_on_c, 0, 71, 0
2, 37920, Note_on_c, 0, 67, 80
2, 38147, Note_on_c, 0, 67, 0
2, 38160, Note_on_c, 0, 62, 80
2, 38387, Note_on_c, 0, 62, 0
2, 38400, Note_on_c, 0, 50, 80
2, 38627, Note_on_c, 0, 50, 0
2, 38640, Note_on_c, 0, 57, 80
2, 38867, Note_on_c, 0, 57, 0
2, 38880, Note_on_c, 0, 62, 80
2, 39107, Note_on_c, 0, 62, 0
2, 39120, Note_on_c, 0, 65, 80
2, 39347, Note_on_c, 0, 65, 0
2, 39360, Note_on_c, 0, 69, 80
2, 39587, Note_on_c, 0, 69, 0
2, 39600, Note_on_c, 0, 65, 80
2, 39827, Note_on_c, 0, 65, 0
2, 39840, Note_on_c, 0, 62, 80
2, 40067, Note_on_c, 0, 62, 0
2, 40080, Note_on_c, 0, 57, 80
2, 40307, Note_on_c, 0, 57, 0
2, 40320, Note_on_c, 0, 53, 80
2, 40547, Note_on_c, 0, 53, 0
2, 40560, Note_on_c, 0, 60, 80
2, 40787, Note_on_c, 0, 60, 0
2, 40800, Note_on_c, 0, 65, 80
2, 41027, Note_on_c, 0, 65, 0
2, 41040, Note_on_c, 0, 69, 80
2, 41267, Note_on_c, 0, 69, 0
2, 41280, Note_on_c, 0, 65, 80
2, 41507, Note_on_c, 0, 65, 0
2, 41520, Note_on_c, 0, 69, 80
2, 41747, Note_on_c, 0, 69, 0
2, 41760, Note_on_c, 0, 65, 80
2, 41987, Note_on_c, 0, 65, 0
2, 42000, Note_on_c, 0, 60, 80
2, 42227, Note_on_c, 0, 60, 0
2, 42240, Note_on_c, 0, 48, 80
2, 42467, Note_on_c, 0, 48, 0
2, 42480, Note_on_c, 0, 55, 80
2, 42707, Note_on_c, 0, 55, 0
2, 42720, Note_on_c, 0, 60, 80
2, 42947, Note_on_c, 0, 60, 0
2, 42960, Note_on_c, 0, 64, 80
2, 43187, Note_on_c, 0, 64, 0
2, 43200, Note_on_c, 0, 67, 80
2, 43427, Note_on_c, 0, 67, 0
2, 43440, Note_on_c, 0, 64, 80
2, 43667, Note_on_c, 0, 64, 0
2, 43680, Note_on_c, 0, 60, 80
2, 43907, Note_on_c, 0, 60, 0
2, 43920, Note_on_c, 0, 55, 80
2, 44147, Note_on_c, 0, 55, 0
2, 44160, Note_on_c, 0, 55, 80
2, 44387, Note_on_c, 0, 55, 0
2, 44400, Note_on_c, 0, 62, 80
2, 44627, Note_on_c, 0, 62, 0
2, 44640, Note_on_c, 0, 67, 80
2, 44867, Note_on_c, 0, 67, 0
2, 44880, Note_on_c, 0, 71, 80
2, 45107, Note_on_c, 0, 71, 0
2, 45120, Note_on_c, 0, 67, 80
2, 45347, Note_on_c, 0, 67, 0
2, 45360, Note_on_c, 0, 71, 80
2, 45587, Note_on_c, 0, 71, 0
2, 45600, Note_on_c, 0, 67, 80
2, 45827, Note_on_c, 0, 67, 0
2, 45840, Note_on_c, 0, 62, 80
2, 46067, Note_on_c, 0, 62, 0
2, 46080, Note_on_c, 0, 53, 80
2, 46307, Note_on_c, 0, 53, 0
2, 46320, Note_on_c, 0, 60, 80
2, 46547, Note_on_c, 0, 60, 0
2, 46560, Note_on_c, 0, 65, 80
2, 46787, Note_on_c, 0, 65, 0
2, 46800, Note_on_c, 0, 69, 80
2, 47027, Note_on_c, 0, 69, 0
2, 47040, Note_on_c, 0, 72, 80
2, 47267, Note_on_c, 0, 72, 0
2, 47280, Note_on_c, 0, 69, 80
2, 47507, Note_on_c, 0, 69, 0
2, 47520, Note_on_c, 0, 65, 80
2, 47747, Note_on_c, 0, 65, 0
2, 47760, Note_on_c, 0, 60, 80
2, 47987, Note_on_c, 0, 60, 0
2, 48000, Note_on_c, 0, 57, 80
2, 48227, Note_on_c, 0, 57, 0
2, 48240, Note_on_c, 0, 64, 80
2, 48467, Note_on_c, 0, 64, 0
2, 48480, Note_on_c, 0, 69, 80
2, 48720, Note_on_c, 0, 72, 80
2, 48935, Note_on_c, 0, 69, 0
2, 48947, Note_on_c, 0, 72, 0
2, 48960, Note_on_c, 0, 76, 80
2, 49199, Note_on_c, 0, 76, 0
2, 49200, Note_on_c, 0, 72, 80
2, 49440, Note_on_c, 0, 69, 80
2, 49667, Note_on_c, 0, 69, 0
2, 49680, Note_on_c, 0, 64, 80
2, 49883, Note_on_c, 0, 72, 0
2, 49907, Note_on_c, 0, 64, 0
2, 49920, Note_on_c, 0, 52, 80
2, 50147, Note_on_c, 0, 52, 0
2, 50160, Note_on_c, 0, 59, 80
2, 50387, Note_on_c, 0, 59, 0
2, 50400, Note_on_c, 0, 64, 80
2, 50627, Note_on_c, 0, 64, 0
2, 50640, Note_on_c, 0, 67, 80
2, 50867, Note_on_c, 0, 67, 0
2, 50880, Note_on_c, 0, 71, 80
2, 51107, Note_on_c, 0, 71, 0
2, 51120, Note_on_c, 0, 67, 80
2, 51347, Note_on_c, 0, 67, 0
2, 51360, Note_on_c, 0, 64, 80
2, 51587, Note_on_c, 0, 64, 0
2, 51600, Note_on_c, 0, 59, 80
2, 51827, Note_on_c, 0, 59, 0
2, 51840, Note_on_c, 0, 55, 80
2, 52067, Note_on_c, 0, 55, 0
2, 52080, Note_on_c, 0, 62, 80
2, 52307, Note_on_c, 0, 62, 0
2, 52320, Note_on_c, 0, 67, 80
2, 52547, Note_on_c, 0, 67, 0
2, 52560, Note_on_c, 0, 71, 80
2, 52787, Note_on_c, 0, 71, 0
2, 52800, Note_on_c, 0, 74, 80
2, 53040, Note_on_c, 0, 71, 80
2, 53267, Note_on_c, 0, 71, 0
2, 53280, Note_on_c, 0, 67, 80
2, 53507, Note_on_c, 0, 67, 0
2, 53520, Note_on_c, 0, 62, 80
2, 53711, Note_on_c, 0, 74, 0
2, 53747, Note_on_c, 0, 62, 0
2, 53760, Note_on_c, 0, 53, 80
2, 53987, Note_on_c, 0, 53, 0
2, 54000, Note_on_c, 0, 60, 80
2, 54227, Note_on_c, 0, 60, 0
2, 54240, Note_on_c, 0, 65, 80
2, 54467, Note_on_c, 0, 65, 0
2, 54480, Note_on_c, 0, 69, 80
2, 54707, Note_on_c, 0, 69, 0
2, 54720, Note_on_c, 0, 72, 80
2, 54947, Note_on_c, 0, 72, 0
2, 54960, Note_on_c, 0, 69, 80
2, 55187, Note_on_c, 0, 69, 0
2, 55200, Note_on_c, 0, 65, 80
2, 55427, Note_on_c, 0, 65, 0
2, 55440, Note_on_c, 0, 60, 80
2, 55667, Note_on_c, 0, 60, 0
2, 55680, Note_on_c, 0, 57, 80
2, 55907, Note_on_c, 0, 57, 0
2, 55920, Note_on_c, 0, 64, 80
2, 56147, Note_on_c, 0, 64, 0
2, 56160, Note_on_c, 0, 69, 80
2, 56387, Note_on_c, 0, 69, 0
2, 56400, Note_on_c, 0, 72, 80
2, 56627, Note_on_c, 0, 72, 0
2, 56640, Note_on_c, 0, 76, 80
2, 56867, Note_on_c, 0, 76, 0
2, 56880, Note_on_c, 0, 72, 80
2, 57107, Note_on_c, 0, 72, 0
2, 57120, Note_on_c, 0, 69, 80
2, 57347, Note_on_c, 0, 69, 0
2, 57360, Note_on_c, 0, 64, 80
2, 57587, Note_on_c, 0, 64, 0
2, 57600, Note_on_c, 0, 55, 80
2, 57827, Note_on_c, 0, 55, 0
2, 57840, Note_on_c, 0, 62, 80
2, 58067, Note_on_c, 0, 62, 0
2, 58080, Note_on_c, 0, 67, 80
2, 58307, Note_on_c, 0, 67, 0
2, 58320, Note_on_c, 0, 71, 80
2, 58547, Note_on_c, 0, 71, 0
2, 58560, Note_on_c, 0, 74, 80
2, 58787, Note_on_c, 0, 74, 0
2, 58800, Note_on_c, 0, 71, 80
2, 59027, Note_on_c, 0, 71, 0
2, 59040, Note_on_c, 0, 67, 80
2, 59267, Note_on_c, 0, 67, 0
2, 59280, Note_on_c, 0, 62, 80
2, 59507, Note_on_c, 0, 62, 0
2, 59520, Note_on_c, 0, 55, 80
2, 59747, Note_on_c, 0, 55, 0
2, 59760, Note_on_c, 0, 62, 80
2, 59987, Note_on_c, 0, 62, 0
2, 60000, Note_on_c, 0, 67, 80
2, 60227, Note_on_c, 0, 67, 0
2, 60240, Note_on_c, 0, 71, 80
2, 60467, Note_on_c, 0, 71, 0
2, 60480, Note_on_c, 0, 74, 80
2, 60707, Note_on_c, 0, 74, 0
2, 60720, Note_on_c, 0, 71, 80
2, 60947, Note_on_c, 0, 71, 0
2, 60960, Note_on_c, 0, 67, 80
2, 61187, Note_on_c, 0, 67, 0
2, 61200, Note_on_c, 0, 62, 80
2, 61427, Note_on_c, 0, 62, 0
2, 61440, Note_on_c, 0, 50, 80
2, 61667, Note_on_c, 0, 50, 0
2, 61680, Note_on_c, 0, 57, 80
2, 61907, Note_on_c, 0, 57, 0
2, 61920, Note_on_c, 0, 62, 80
2, 62147, Note_on_c, 0, 62, 0
2, 62160, Note_on_c, 0, 65, 80
2, 62387, Note_on_c, 0, 65, 0
2, 62400, Note_on_c, 0, 62, 80
2, 62627, Note_on_c, 0, 62, 0
2, 62640, Note_on_c, 0, 65, 80
2, 62867, Note_on_c, 0, 65, 0
2, 62880, Note_on_c, 0, 62, 80
2, 63107, Note_on_c, 0, 62, 0
2, 63120, Note_on_c, 0, 57, 80
2, 63347, Note_on_c, 0, 57, 0
2, 63360, Note_on_c, 0, 57, 80
2, 63587, Note_on_c, 0, 57, 0
2, 63600, Note_on_c, 0, 52, 80
2, 63827, Note_on_c, 0, 52, 0
2, 63840, Note_on_c, 0, 57, 80
2, 64067, Note_on_c, 0, 57, 0
2, 64080, Note_on_c, 0, 60, 80
2, 64307, Note_on_c, 0, 60, 0
2, 64320, Note_on_c, 0, 64, 80
2, 64547, Note_on_c, 0, 64, 0
2, 64560, Note_on_c, 0, 60, 80
2, 64787, Note_on_c, 0, 60, 0
2, 64800, Note_on_c, 0, 57, 80
2, 65027, Note_on_c, 0, 57, 0
2, 65040, Note_on_c, 0, 52, 80
2, 65267, Note_on_c, 0, 52, 0
2, 65280, Note_on_c, 0, 50, 80
2, 65507, Note_on_c, 0, 50, 0
2, 65520, Note_on_c, 0, 57, 80
2, 65747, Note_on_c, 0, 57, 0
2, 65760, Note_on_c, 0, 62, 80
2, 65987, Note_on_c, 0, 62, 0
2, 66000, Note_on_c, 0, 65, 80
2, 66227, Note_on_c, 0, 65, 0
2, 66240, Note_on_c, 0, 62, 80
2, 66467, Note_on_c, 0, 62, 0
2, 66480, Note_on_c, 0, 65, 80
2, 66707, Note_on_c, 0, 65, 0
2, 66720, Note_on_c, 0, 62, 80
2, 66947, Note_on_c, 0, 62, 0
2, 66960, Note_on_c, 0, 57, 80
2, 67187, Note_on_c, 0, 57, 0
2, 67200, Note_on_c, 0, 57, 80
2, 67427, Note_on_c, 0, 57, 0
2, 67440, Note_on_c, 0, 52, 80
2, 67667, Note_on_c, 0, 52, 0
2, 67680, Note_on_c, 0, 57, 80
2, 67907, Note_on_c, 0, 57, 0
2, 67920, Note_on_c, 0, 60, 80
2, 68147, Note_on_c, 0, 60, 0
2, 68160, Note_on_c, 0, 64, 80
2, 68387, Note_on_c, 0, 64, 0
2, 68400, Note_on_c, 0, 60, 80
2, 68627, Note_on_c, 0, 60, 0
2, 68640, Note_on_c, 0, 57, 80
2, 68867, Note_on_c, 0, 57, 0
2, 68880, Note_on_c, 0, 52, 80
2, 69107, Note_on_c, 0, 52, 0
2, 69120, Note_on_c, 0, 55, 80
2, 69347, Note_on_c, 0, 55, 0
2, 69360, Note_on_c, 0, 50, 80
2, 69587, Note_on_c, 0, 50, 0
2, 69600, Note_on_c, 0, 55, 80
2, 69827, Note_on_c, 0, 55, 0
2, 69840, Note_on_c, 0, 59, 80
2, 70067, Note_on_c, 0, 59, 0
2, 70080, Note_on_c, 0, 62, 80
2, 70307, Note_on_c, 0, 62, 0
2, 70320, Note_on_c, 0, 59, 80
2, 70547, Note_on_c, 0, 59, 0
2, 70560, Note_on_c, 0, 55, 80
2, 70787, Note_on_c, 0, 55, 0
2, 70800, Note_on_c, 0, 50, 80
2, 71027, Note_on_c, 0, 50, 0
2, 71040, Note_on_c, 0, 52, 80
2, 71267, Note_on_c, 0, 52, 0
2, 71280, Note_on_c, 0, 55, 80
2, 71507, Note_on_c, 0, 55, 0
2, 71520, Note_on_c, 0, 59, 80
2, 71747, Note_on_c, 0, 59, 0
2, 71760, Note_on_c, 0, 62, 80
2, 71987, Note_on_c, 0, 62, 0
2, 72000, Note_on_c, 0, 59, 80
2, 72227, Note_on_c, 0, 59, 0
2, 72240, Note_on_c, 0, 62, 80
2, 72467, Note_on_c, 0, 62, 0
2, 72480, Note_on_c, 0, 59, 80
2, 72707, Note_on_c, 0, 59, 0
2, 72720, Note_on_c, 0, 55, 80
2, 72947, Note_on_c, 0, 55, 0
2, 72960, Note_on_c, 0, 57, 80
2, 73187, Note_on_c, 0, 57, 0
2, 73200, Note_on_c, 0, 64, 80
2, 73427, Note_on_c, 0, 64, 0
2, 73440, Note_on_c, 0, 69, 80
2, 73667, Note_on_c, 0, 69, 0
2, 73680, Note_on_c, 0, 72, 80
2, 73907, Note_on_c, 0, 72, 0
2, 73920, Note_on_c, 0, 76, 80
2, 74160, Note_on_c, 0, 72, 80
2, 74375, Note_on_c, 0, 76, 0
2, 74387, Note_on_c, 0, 72, 0
2, 74400, Note_on_c, 0, 69, 80
2, 74627, Note_on_c, 0, 69, 0
2, 74640, Note_on_c, 0, 64, 80
2, 74867, Note_on_c, 0, 64, 0
2, 74880, Note_on_c, 0, 52, 80
2, 75107, Note_on_c, 0, 52, 0
2, 75120, Note_on_c, 0, 59, 80
2, 75347, Note_on_c, 0, 59, 0
2, 75360, Note_on_c, 0, 64, 80
2, 75587, Note_on_c, 0, 64, 0
2, 75600, Note_on_c, 0, 69, 80
2, 75827, Note_on_c, 0, 69, 0
2, 75840, Note_on_c, 0, 71, 80
2, 76067, Note_on_c, 0, 71, 0
2, 76080, Note_on_c, 0, 69, 80
2, 76307, Note_on_c, 0, 69, 0
2, 76320, Note_on_c, 0, 64, 80
2, 76547, Note_on_c, 0, 64, 0
2, 76560, Note_on_c, 0, 59, 80
2, 76787, Note_on_c, 0, 59, 0
2, 76800, Note_on_c, 0, 57, 80
2, 77027, Note_on_c, 0, 57, 0
2, 77040, Note_on_c, 0, 60, 80
2, 77267, Note_on_c, 0, 60, 0
2, 77280, Note_on_c, 0, 64, 80
2, 77507, Note_on_c, 0, 64, 0
2, 77520, Note_on_c, 0, 69, 80
2, 77747, Note_on_c, 0, 69, 0
2, 77760, Note_on_c, 0, 72, 80
2, 77987, Note_on_c, 0, 72, 0
2, 78000, Note_on_c, 0, 69, 80
2, 78227, Note_on_c, 0, 69, 0
2, 78240, Note_on_c, 0, 64, 80
2, 78467, Note_on_c, 0, 64, 0
2, 78480, Note_on_c, 0, 60, 80
2, 78707, Note_on_c, 0, 60, 0
2, 78720, Note_on_c, 0, 52, 80
2, 78947, Note_on_c, 0, 52, 0
2, 78960, Note_on_c, 0, 59, 80
2, 79187, Note_on_c, 0, 59, 0
2, 79200, Note_on_c, 0, 64, 80
2, 79427, Note_on_c, 0, 64, 0
2, 79440, Note_on_c, 0, 69, 80
2, 79667, Note_on_c, 0, 69, 0
2, 79680, Note_on_c, 0, 71, 80
2, 79907, Note_on_c, 0, 71, 0
2, 79920, Note_on_c, 0, 69, 80
2, 80147, Note_on_c, 0, 69, 0
2, 80160, Note_on_c, 0, 64, 80
2, 80387, Note_on_c, 0, 64, 0
2, 80400, Note_on_c, 0, 59, 80
2, 80627, Note_on_c, 0, 59, 0
2, 80640, Note_on_c, 0, 57, 80
2, 80867, Note_on_c, 0, 57, 0
2, 80880, Note_on_c, 0, 60, 80
2, 81107, Note_on_c, 0, 60, 0
2, 81120, Note_on_c, 0, 64, 80
2, 81347, Note_on_c, 0, 64, 0
2, 81360, Note_on_c, 0, 69, 80
2, 81587, Note_on_c, 0, 69, 0
2, 81600, Note_on_c, 0, 72, 80
2, 81827, Note_on_c, 0, 72, 0
2, 81840, Note_on_c, 0, 69, 80
2, 82067, Note_on_c, 0, 69, 0
2, 82080, Note_on_c, 0, 64, 80
2, 82307, Note_on_c, 0, 64, 0
2, 82320, Note_on_c, 0, 60, 80
2, 82547, Note_on_c, 0, 60, 0
2, 82560, Note_on_c, 0, 52, 80
2, 82787, Note_on_c, 0, 52, 0
2, 82800, Note_on_c, 0, 59, 80
2, 83027, Note_on_c, 0, 59, 0
2, 83040, Note_on_c, 0, 64, 80
2, 83267, Note_on_c, 0, 64, 0
2, 83280, Note_on_c, 0, 69, 80
2, 83507, Note_on_c, 0, 69, 0
2, 83520, Note_on_c, 0, 71, 80
2, 83747, Note_on_c, 0, 71, 0
2, 83760, Note_on_c, 0, 69, 80
2, 83987, Note_on_c, 0, 69, 0
2, 84000, Note_on_c, 0, 64, 80
2, 84227, Note_on_c, 0, 64, 0
2, 84240, Note_on_c, 0, 59, 80
2, 84467, Note_on_c, 0, 59, 0
2, 84480, Note_on_c, 0, 57, 80
2, 84707, Note_on_c, 0, 57, 0
2, 84720, Note_on_c, 0, 60, 80
2, 84947, Note_on_c, 0, 60, 0
2, 84960, Note_on_c, 0, 64, 80
2, 85187, Note_on_c, 0, 64, 0
2, 85200, Note_on_c, 0, 69, 80
2, 85427, Note_on_c, 0, 69, 0
2, 85440, Note_on_c, 0, 72, 80
2, 85680, Note_on_c, 0, 69, 80
2, 85895, Note_on_c, 0, 72, 0
2, 85907, Note_on_c, 0, 69, 0
2, 85920, Note_on_c, 0, 64, 80
2, 86147, Note_on_c, 0, 64, 0
2, 86160, Note_on_c, 0, 60, 80
2, 86387, Note_on_c, 0, 60, 0
2, 86400, Note_on_c, 0, 52, 80
2, 86627, Note_on_c, 0, 52, 0
2, 86640, Note_on_c, 0, 59, 80
2, 86867, Note_on_c, 0, 59, 0
2, 86880, Note_on_c, 0, 64, 80
2, 87107, Note_on_c, 0, 64, 0
2, 87120, Note_on_c, 0, 69, 80
2, 87347, Note_on_c, 0, 69, 0
2, 87360, Note_on_c, 0, 71, 80
2, 87600, Note_on_c, 0, 69, 80
2, 87815, Note_on_c, 0, 71, 0
2, 87827, Note_on_c, 0, 69, 0
2, 87840, Note_on_c, 0, 64, 80
2, 88067, Note_on_c, 0, 64, 0
2, 88080, Note_on_c, 0, 59, 80
2, 88307, Note_on_c, 0, 59, 0
2, 88320, Note_on_c, 0, 55, 80
2, 88547, Note_on_c, 0, 55, 0
2, 88560, Note_on_c, 0, 62, 80
2, 88787, Note_on_c, 0, 62, 0
2, 88800, Note_on_c, 0, 67, 80
2, 89039, Note_on_c, 0, 67, 0
2, 89040, Note_on_c, 0, 71, 80
2, 89280, Note_on_c, 0, 74, 80
2, 89495, Note_on_c, 0, 71, 0
2, 89507, Note_on_c, 0, 74, 0
2, 89520, Note_on_c, 0, 71, 80
2, 89747, Note_on_c, 0, 71, 0
2, 89760, Note_on_c, 0, 67, 80
2, 89987, Note_on_c, 0, 67, 0
2, 90000, Note_on_c, 0, 62, 80
2, 90227, Note_on_c, 0, 62, 0
2, 90240, Note_on_c, 0, 53, 80
2, 90467, Note_on_c, 0, 53, 0
2, 90480, Note_on_c, 0, 60, 80
2, 90707, Note_on_c, 0, 60, 0
2, 90720, Note_on_c, 0, 65, 80
2, 90947, Note_on_c, 0, 65, 0
2, 90960, Note_on_c, 0, 69, 80
2, 91187, Note_on_c, 0, 69, 0
2, 91200, Note_on_c, 0, 72, 80
2, 91440, Note_on_c, 0, 69, 80
2, 91655, Note_on_c, 0, 72, 0
2, 91667, Note_on_c, 0, 69, 0
2, 91680, Note_on_c, 0, 65, 80
2, 91907, Note_on_c, 0, 65, 0
2, 91920, Note_on_c, 0, 60, 80
2, 92147, Note_on_c, 0, 60, 0
2, 92160, Note_on_c, 0, 52, 80
2, 92387, Note_on_c, 0, 52, 0
2, 92400, Note_on_c, 0, 59, 80
2, 92627, Note_on_c, 0, 59, 0
2, 92640, Note_on_c, 0, 64, 80
2, 92867, Note_on_c, 0, 64, 0
2, 92880, Note_on_c, 0, 69, 80
2, 93107, Note_on_c, 0, 69, 0
2, 93120, Note_on_c, 0, 71, 80
2, 93347, Note_on_c, 0, 71, 0
2, 93360, Note_on_c, 0, 69, 80
2, 93587, Note_on_c, 0, 69, 0
2, 93600, Note_on_c, 0, 64, 80
2, 93827, Note_on_c, 0, 64, 0
2, 93840, Note_on_c, 0, 59, 80
2, 94067, Note_on_c, 0, 59, 0
2, 94080, Note_on_c, 0, 57, 80
2, 94307, Note_on_c, 0, 57, 0
2, 94320, Note_on_c, 0, 64, 80
2, 94547, Note_on_c, 0, 64, 0
2, 94560, Note_on_c, 0, 69, 80
2, 94787, Note_on_c, 0, 69, 0
2, 94800, Note_on_c, 0, 72, 80
2, 95027, Note_on_c, 0, 72, 0
2, 95040, Note_on_c, 0, 76, 80
2, 95280, Note_on_c, 0, 72, 80
2, 95507, Note_on_c, 0, 72, 0
2, 95520, Note_on_c, 0, 69, 80
2, 95747, Note_on_c, 0, 69, 0
2, 95760, Note_on_c, 0, 64, 80
2, 95987, Note_on_c, 0, 64, 0
2, 96000, Note_on_c, 0, 57, 80
2, 96227, Note_on_c, 0, 57, 0
2, 96240, Note_on_c, 0, 64, 80
2, 96467, Note_on_c, 0, 64, 0
2, 96480, Note_on_c, 0, 69, 80
2, 96707, Note_on_c, 0, 69, 0
2, 96720, Note_on_c, 0, 72, 80
2, 96863, Note_on_c, 0, 76, 0
2, 96947, Note_on_c, 0, 72, 0
2, 96960, Note_on_c, 0, 76, 80
2, 97200, Note_on_c, 0, 72, 80
2, 97427, Note_on_c, 0, 72, 0
2, 97440, Note_on_c, 0, 69, 80
2, 97667, Note_on_c, 0, 69, 0
2, 97680, Note_on_c, 0, 64, 80
2, 97871, Note_on_c, 0, 76, 0
2, 97907, Note_on_c, 0, 64, 0
2, 97920, Note_on_c, 0, 57, 80
2, 98375, Note_on_c, 0, 57, 0
2, 98376, End_track
0, 0, End_of_file
