0, 0, Header, 1, 5, 480
1, 0, Start_track
1, 0, Title_t, "Voice, Voice\000"
1, 0, Time_signature, 4, 2, 24, 8
1, 0, Key_signature, 0, "major"
1, 0, Tempo, 631579
1, 0, Control_c, 0, 121, 0
1, 0, Program_c, 0, 52
1, 0, Control_c, 0, 7, 127
1, 0, Control_c, 0, 10, 64
1, 0, Control_c, 0, 91, 0
1, 0, Control_c, 0, 93, 0
1, 0, MIDI_port, 0
1, 0, Note_on_c, 0, 59, 80
1, 0, Control_c, 0, 2, 80
1, 0, Note_on_c, 0, 62, 80
1, 0, Note_on_c, 0, 67, 80
1, 2879, Note_on_c, 0, 59, 0
1, 2879, Note_on_c, 0, 62, 0
1, 2879, Note_on_c, 0, 67, 0
1, 3360, Note_on_c, 0, 67, 80
1, 3479, Note_on_c, 0, 67, 0
1, 3480, Note_on_c, 0, 69, 80
1, 3839, Note_on_c, 0, 69, 0
1, 3840, Note_on_c, 0, 64, 80
1, 3840, Note_on_c, 0, 67, 80
1, 6239, Note_on_c, 0, 64, 0
1, 6239, Note_on_c, 0, 67, 0
1, 7200, Note_on_c, 0, 67, 80
1, 7200, Note_on_c, 0, 64, 80
1, 7319, Note_on_c, 0, 67, 0
1, 7320, Note_on_c, 0, 69, 80
1, 7679, Note_on_c, 0, 69, 0
1, 7680, Note_on_c, 0, 60, 80
1, 7680, Note_on_c, 0, 67, 80
1, 8399, Note_on_c, 0, 60, 0
1, 8399, Note_on_c, 0, 67, 0
1, 8400, Note_on_c, 0, 60, 80
1, 8400, Note_on_c, 0, 64, 0
1, 8400, Note_on_c, 0, 64, 80
1, 10079, Note_on_c, 0, 60, 0
1, 10079, Note_on_c, 0, 64, 0
1, 10560, Note_on_c, 0, 60, 80
1, 10560, Note_on_c, 0, 64, 80
1, 11519, Note_on_c, 0, 60, 0
1, 11519, Note_on_c, 0, 64, 0
1, 15120, Note_on_c, 0, 72, 80
1, 15239, Note_on_c, 0, 72, 0
1, 15240, Note_on_c, 0, 74, 80
1, 15359, Note_on_c, 0, 74, 0
1, 15600, Note_on_c, 0, 74, 80
1, 15839, Note_on_c, 0, 74, 0
1, 15840, Note_on_c, 0, 74, 80
1, 16079, Note_on_c, 0, 74, 0
1, 16080, Note_on_c, 0, 71, 80
1, 16319, Note_on_c, 0, 71, 0
1, 16320, Note_on_c, 0, 74, 80
1, 16559, Note_on_c, 0, 74, 0
1, 16560, Note_on_c, 0, 74, 80
1, 16799, Note_on_c, 0, 74, 0
1, 16800, Note_on_c, 0, 71, 80
1, 17039, Note_on_c, 0, 71, 0
1, 17040, Note_on_c, 0, 74, 80
1, 17159, Note_on_c, 0, 74, 0
1, 17160, Note_on_c, 0, 74, 80
1, 17279, Note_on_c, 0, 74, 0
1, 17280, Note_on_c, 0, 74, 80
1, 17639, Note_on_c, 0, 74, 0
1, 17640, Note_on_c, 0, 74, 80
1, 17759, Note_on_c, 0, 74, 0
1, 17880, Note_on_c, 0, 71, 80
1, 18119, Note_on_c, 0, 71, 0
1, 18120, Note_on_c, 0, 74, 80
1, 18479, Note_on_c, 0, 74, 0
1, 18480, Note_on_c, 0, 76, 80
1, 18719, Note_on_c, 0, 76, 0
1, 18720, Note_on_c, 0, 71, 80
1, 18959, Note_on_c, 0, 71, 0
1, 18960, Note_on_c, 0, 71, 80
1, 19199, Note_on_c, 0, 71, 0
1, 19440, Note_on_c, 0, 74, 80
1, 19679, Note_on_c, 0, 74, 0
1, 19680, Note_on_c, 0, 74, 80
1, 19919, Note_on_c, 0, 74, 0
1, 19920, Note_on_c, 0, 71, 80
1, 20159, Note_on_c, 0, 71, 0
1, 20160, Note_on_c, 0, 74, 80
1, 20399, Note_on_c, 0, 74, 0
1, 20400, Note_on_c, 0, 74, 80
1, 20639, Note_on_c, 0, 74, 0
1, 20640, Note_on_c, 0, 71, 80
1, 20879, Note_on_c, 0, 71, 0
1, 20880, Note_on_c, 0, 74, 80
1, 21119, Note_on_c, 0, 74, 0
1, 21120, Note_on_c, 0, 74, 80
1, 21359, Note_on_c, 0, 74, 0
1, 21360, Note_on_c, 0, 72, 80
1, 21479, Note_on_c, 0, 72, 0
1, 21480, Note_on_c, 0, 74, 80
1, 21719, Note_on_c, 0, 74, 0
1, 21720, Note_on_c, 0, 72, 80
1, 21959, Note_on_c, 0, 72, 0
1, 21960, Note_on_c, 0, 74, 80
1, 22199, Note_on_c, 0, 74, 0
1, 22200, Note_on_c, 0, 76, 80
1, 22559, Note_on_c, 0, 76, 0
1, 22560, Note_on_c, 0, 71, 80
1, 22799, Note_on_c, 0, 71, 0
1, 22800, Note_on_c, 0, 71, 80
1, 23039, Note_on_c, 0, 71, 0
1, 23520, Note_on_c, 0, 72, 80
1, 23639, Note_on_c, 0, 72, 0
1, 23640, Note_on_c, 0, 71, 80
1, 23879, Note_on_c, 0, 71, 0
1, 23880, Note_on_c, 0, 72, 80
1, 24119, Note_on_c, 0, 72, 0
1, 24120, Note_on_c, 0, 71, 80
1, 24359, Note_on_c, 0, 71, 0
1, 24360, Note_on_c, 0, 69, 80
1, 24399, Note_on_c, 0, 69, 0
1, 24400, Note_on_c, 0, 71, 80
1, 24959, Note_on_c, 0, 71, 0
1, 25680, Note_on_c, 0, 72, 80
1, 25739, Note_on_c, 0, 72, 0
1, 25740, Note_on_c, 0, 72, 80
1, 25919, Note_on_c, 0, 72, 0
1, 25920, Note_on_c, 0, 72, 80
1, 26039, Note_on_c, 0, 72, 0
1, 26040, Note_on_c, 0, 71, 80
1, 26279, Note_on_c, 0, 71, 0
1, 26280, Note_on_c, 0, 72, 80
1, 26519, Note_on_c, 0, 72, 0
1, 26520, Note_on_c, 0, 71, 80
1, 27119, Note_on_c, 0, 71, 0
1, 27120, Note_on_c, 0, 69, 80
1, 27239, Note_on_c, 0, 69, 0
1, 27240, Note_on_c, 0, 71, 80
1, 28799, Note_on_c, 0, 71, 0
1, 30000, Note_on_c, 0, 74, 80
1, 30719, Note_on_c, 0, 74, 0
1, 30960, Note_on_c, 0, 74, 80
1, 31199, Note_on_c, 0, 74, 0
1, 31200, Note_on_c, 0, 74, 80
1, 31439, Note_on_c, 0, 74, 0
1, 31440, Note_on_c, 0, 71, 80
1, 31679, Note_on_c, 0, 71, 0
1, 31680, Note_on_c, 0, 74, 80
1, 31919, Note_on_c, 0, 74, 0
1, 31920, Note_on_c, 0, 74, 80
1, 32159, Note_on_c, 0, 74, 0
1, 32160, Note_on_c, 0, 71, 80
1, 32399, Note_on_c, 0, 71, 0
1, 32400, Note_on_c, 0, 74, 80
1, 32519, Note_on_c, 0, 74, 0
1, 32520, Note_on_c, 0, 72, 80
1, 32639, Note_on_c, 0, 72, 0
1, 32640, Note_on_c, 0, 74, 80
1, 32879, Note_on_c, 0, 74, 0
1, 32880, Note_on_c, 0, 72, 80
1, 32999, Note_on_c, 0, 72, 0
1, 33000, Note_on_c, 0, 74, 80
1, 33239, Note_on_c, 0, 74, 0
1, 33240, Note_on_c, 0, 74, 80
1, 33479, Note_on_c, 0, 74, 0
1, 33480, Note_on_c, 0, 72, 80
1, 33599, Note_on_c, 0, 72, 0
1, 33600, Note_on_c, 0, 74, 80
1, 33839, Note_on_c, 0, 74, 0
1, 33840, Note_on_c, 0, 76, 80
1, 34079, Note_on_c, 0, 76, 0
1, 34080, Note_on_c, 0, 71, 80
1, 34319, Note_on_c, 0, 71, 0
1, 34320, Note_on_c, 0, 71, 80
1, 34559, Note_on_c, 0, 71, 0
1, 34680, Note_on_c, 0, 71, 80
1, 34799, Note_on_c, 0, 71, 0
1, 34800, Note_on_c, 0, 74, 80
1, 35039, Note_on_c, 0, 74, 0
1, 35040, Note_on_c, 0, 74, 80
1, 35279, Note_on_c, 0, 74, 0
1, 35280, Note_on_c, 0, 71, 80
1, 35519, Note_on_c, 0, 71, 0
1, 35520, Note_on_c, 0, 74, 80
1, 35759, Note_on_c, 0, 74, 0
1, 35760, Note_on_c, 0, 74, 80
1, 35999, Note_on_c, 0, 74, 0
1, 36000, Note_on_c, 0, 71, 80
1, 36239, Note_on_c, 0, 71, 0
1, 36240, Note_on_c, 0, 74, 80
1, 36359, Note_on_c, 0, 74, 0
1, 36360, Note_on_c, 0, 72, 80
1, 36479, Note_on_c, 0, 72, 0
1, 36480, Note_on_c, 0, 74, 80
1, 36719, Note_on_c, 0, 74, 0
1, 36720, Note_on_c, 0, 72, 80
1, 36839, Note_on_c, 0, 72, 0
1, 36840, Note_on_c, 0, 74, 80
1, 37079, Note_on_c, 0, 74, 0
1, 37080, Note_on_c, 0, 71, 80
1, 37319, Note_on_c, 0, 71, 0
1, 37320, Note_on_c, 0, 74, 80
1, 37559, Note_on_c, 0, 74, 0
1, 37560, Note_on_c, 0, 76, 80
1, 37919, Note_on_c, 0, 76, 0
1, 37920, Note_on_c, 0, 71, 80
1, 38159, Note_on_c, 0, 71, 0
1, 38160, Note_on_c, 0, 71, 80
1, 38399, Note_on_c, 0, 71, 0
1, 38760, Note_on_c, 0, 71, 80
1, 38879, Note_on_c, 0, 71, 0
1, 38880, Note_on_c, 0, 72, 80
1, 38999, Note_on_c, 0, 72, 0
1, 39000, Note_on_c, 0, 71, 80
1, 39239, Note_on_c, 0, 71, 0
1, 39240, Note_on_c, 0, 72, 80
1, 39479, Note_on_c, 0, 72, 0
1, 39480, Note_on_c, 0, 71, 80
1, 39719, Note_on_c, 0, 71, 0
1, 39720, Note_on_c, 0, 72, 80
1, 39959, Note_on_c, 0, 72, 0
1, 39960, Note_on_c, 0, 71, 80
1, 40199, Note_on_c, 0, 71, 0
1, 40200, Note_on_c, 0, 74, 80
1, 40439, Note_on_c, 0, 74, 0
1, 40440, Note_on_c, 0, 67, 80
1, 40679, Note_on_c, 0, 67, 0
1, 40680, Note_on_c, 0, 67, 80
1, 40919, Note_on_c, 0, 67, 0
1, 40920, Note_on_c, 0, 67, 80
1, 41159, Note_on_c, 0, 67, 0
1, 41160, Note_on_c, 0, 67, 80
1, 41279, Note_on_c, 0, 67, 0
1, 41280, Note_on_c, 0, 69, 80
1, 41759, Note_on_c, 0, 69, 0
1, 41760, Note_on_c, 0, 69, 80
1, 41879, Note_on_c, 0, 69, 0
1, 41880, Note_on_c, 0, 71, 80
1, 42239, Note_on_c, 0, 71, 0
1, 42240, Note_on_c, 0, 71, 80
1, 43679, Note_on_c, 0, 71, 0
1, 44640, Note_on_c, 0, 67, 80
1, 44879, Note_on_c, 0, 67, 0
1, 44880, Note_on_c, 0, 67, 80
1, 44880, Control_c, 0, 2, 80
1, 45119, Note_on_c, 0, 67, 0
1, 45120, Note_on_c, 0, 67, 80
1, 45120, Control_c, 0, 2, 80
1, 45120, Note_on_c, 0, 71, 80
1, 45359, Note_on_c, 0, 67, 0
1, 45359, Note_on_c, 0, 71, 0
1, 45360, Note_on_c, 0, 69, 80
1, 45360, Control_c, 0, 2, 80
1, 45360, Note_on_c, 0, 72, 80
1, 45599, Note_on_c, 0, 69, 0
1, 45599, Note_on_c, 0, 72, 0
1, 45840, Note_on_c, 0, 74, 80
1, 45840, Control_c, 0, 2, 80
1, 45840, Note_on_c, 0, 71, 80
1, 46079, Note_on_c, 0, 71, 0
1, 46080, Control_c, 0, 2, 80
1, 48000, Control_c, 0, 2, 80
1, 48479, Note_on_c, 0, 74, 0
1, 48720, Note_on_c, 0, 67, 80
1, 48720, Control_c, 0, 2, 80
1, 48959, Note_on_c, 0, 67, 0
1, 48960, Note_on_c, 0, 67, 80
1, 48960, Control_c, 0, 2, 80
1, 48960, Note_on_c, 0, 71, 80
1, 49199, Note_on_c, 0, 67, 0
1, 49199, Note_on_c, 0, 71, 0
1, 49200, Note_on_c, 0, 69, 80
1, 49200, Control_c, 0, 2, 80
1, 49200, Note_on_c, 0, 72, 80
1, 49439, Note_on_c, 0, 69, 0
1, 49439, Note_on_c, 0, 72, 0
1, 49680, Note_on_c, 0, 74, 80
1, 49680, Control_c, 0, 2, 80
1, 49680, Note_on_c, 0, 71, 80
1, 49919, Note_on_c, 0, 71, 0
1, 49920, Control_c, 0, 2, 80
1, 50159, Note_on_c, 0, 74, 0
1, 50160, Note_on_c, 0, 69, 80
1, 50160, Control_c, 0, 2, 80
1, 50160, Note_on_c, 0, 72, 80
1, 50639, Note_on_c, 0, 69, 0
1, 50639, Note_on_c, 0, 72, 0
1, 50640, Note_on_c, 0, 71, 80
1, 50640, Control_c, 0, 2, 80
1, 50640, Note_on_c, 0, 67, 80
1, 50879, Note_on_c, 0, 67, 0
1, 50880, Control_c, 0, 2, 80
1, 51119, Note_on_c, 0, 71, 0
1, 51120, Note_on_c, 0, 69, 80
1, 51120, Control_c, 0, 2, 80
1, 51120, Note_on_c, 0, 72, 80
1, 51599, Note_on_c, 0, 69, 0
1, 51599, Note_on_c, 0, 72, 0
1, 51600, Note_on_c, 0, 71, 80
1, 51600, Control_c, 0, 2, 80
1, 51600, Note_on_c, 0, 67, 80
1, 51839, Note_on_c, 0, 67, 0
1, 51840, Control_c, 0, 2, 80
1, 52319, Note_on_c, 0, 71, 0
1, 52800, Note_on_c, 0, 67, 80
1, 52800, Control_c, 0, 2, 80
1, 52800, Note_on_c, 0, 71, 80
1, 53039, Note_on_c, 0, 67, 0
1, 53039, Note_on_c, 0, 71, 0
1, 53040, Note_on_c, 0, 67, 80
1, 53040, Control_c, 0, 2, 80
1, 53040, Note_on_c, 0, 71, 80
1, 53279, Note_on_c, 0, 67, 0
1, 53279, Note_on_c, 0, 71, 0
1, 53280, Note_on_c, 0, 69, 80
1, 53280, Control_c, 0, 2, 80
1, 53280, Note_on_c, 0, 72, 80
1, 53519, Note_on_c, 0, 69, 0
1, 53519, Note_on_c, 0, 72, 0
1, 53520, Note_on_c, 0, 74, 80
1, 53520, Control_c, 0, 2, 80
1, 53520, Note_on_c, 0, 71, 80
1, 53759, Note_on_c, 0, 71, 0
1, 53760, Control_c, 0, 2, 80
1, 53999, Note_on_c, 0, 74, 0
1, 54000, Note_on_c, 0, 72, 80
1, 54000, Control_c, 0, 2, 80
1, 54000, Note_on_c, 0, 69, 80
1, 54719, Note_on_c, 0, 69, 0
1, 54720, Control_c, 0, 2, 80
1, 55199, Note_on_c, 0, 72, 0
1, 55440, Note_on_c, 0, 76, 80
1, 55440, Control_c, 0, 2, 80
1, 55440, Note_on_c, 0, 72, 80
1, 55679, Note_on_c, 0, 72, 0
1, 55680, Control_c, 0, 2, 80
1, 55919, Note_on_c, 0, 76, 0
1, 55920, Note_on_c, 0, 71, 80
1, 55920, Control_c, 0, 2, 80
1, 55920, Note_on_c, 0, 74, 80
1, 56399, Note_on_c, 0, 71, 0
1, 56399, Note_on_c, 0, 74, 0
1, 56400, Note_on_c, 0, 71, 80
1, 56400, Control_c, 0, 2, 80
1, 56400, Note_on_c, 0, 67, 80
1, 56639, Note_on_c, 0, 67, 0
1, 56640, Control_c, 0, 2, 80
1, 56879, Note_on_c, 0, 71, 0
1, 56880, Note_on_c, 0, 69, 80
1, 56880, Control_c, 0, 2, 80
1, 56880, Note_on_c, 0, 72, 80
1, 57359, Note_on_c, 0, 69, 0
1, 57359, Note_on_c, 0, 72, 0
1, 57360, Note_on_c, 0, 71, 80
1, 57360, Control_c, 0, 2, 80
1, 57360, Note_on_c, 0, 67, 80
1, 57599, Note_on_c, 0, 67, 0
1, 57600, Control_c, 0, 2, 80
1, 59519, Note_on_c, 0, 71, 0
1, 60240, Note_on_c, 0, 67, 80
1, 60240, Control_c, 0, 2, 80
1, 60479, Note_on_c, 0, 67, 0
1, 60480, Note_on_c, 0, 67, 80
1, 60480, Control_c, 0, 2, 80
1, 60480, Note_on_c, 0, 71, 80
1, 60719, Note_on_c, 0, 67, 0
1, 60719, Note_on_c, 0, 71, 0
1, 60720, Note_on_c, 0, 69, 80
1, 60720, Control_c, 0, 2, 80
1, 60720, Note_on_c, 0, 72, 80
1, 61199, Note_on_c, 0, 69, 0
1, 61199, Note_on_c, 0, 72, 0
1, 61200, Note_on_c, 0, 74, 80
1, 61200, Control_c, 0, 2, 80
1, 61200, Note_on_c, 0, 71, 80
1, 61439, Note_on_c, 0, 71, 0
1, 61440, Control_c, 0, 2, 80
1, 63360, Control_c, 0, 2, 80
1, 63839, Note_on_c, 0, 74, 0
1, 64080, Note_on_c, 0, 62, 80
1, 64080, Control_c, 0, 2, 80
1, 64080, Note_on_c, 0, 67, 80
1, 64319, Note_on_c, 0, 62, 0
1, 64319, Note_on_c, 0, 67, 0
1, 64320, Note_on_c, 0, 67, 80
1, 64320, Control_c, 0, 2, 80
1, 64320, Note_on_c, 0, 71, 80
1, 64559, Note_on_c, 0, 67, 0
1, 64559, Note_on_c, 0, 71, 0
1, 64560, Note_on_c, 0, 69, 80
1, 64560, Control_c, 0, 2, 80
1, 64560, Note_on_c, 0, 72, 80
1, 65039, Note_on_c, 0, 69, 0
1, 65039, Note_on_c, 0, 72, 0
1, 65040, Note_on_c, 0, 74, 80
1, 65040, Control_c, 0, 2, 80
1, 65040, Note_on_c, 0, 71, 80
1, 65279, Note_on_c, 0, 71, 0
1, 65280, Control_c, 0, 2, 80
1, 65519, Note_on_c, 0, 74, 0
1, 65520, Note_on_c, 0, 69, 80
1, 65520, Control_c, 0, 2, 80
1, 65520, Note_on_c, 0, 72, 80
1, 65999, Note_on_c, 0, 69, 0
1, 65999, Note_on_c, 0, 72, 0
1, 66000, Note_on_c, 0, 67, 80
1, 66000, Control_c, 0, 2, 80
1, 66000, Note_on_c, 0, 71, 80
1, 66239, Note_on_c, 0, 67, 0
1, 66240, Control_c, 0, 2, 80
1, 66479, Note_on_c, 0, 71, 0
1, 66480, Note_on_c, 0, 67, 80
1, 66480, Control_c, 0, 2, 80
1, 66480, Note_on_c, 0, 71, 80
1, 66719, Note_on_c, 0, 67, 0
1, 66719, Note_on_c, 0, 71, 0
1, 66720, Note_on_c, 0, 69, 80
1, 66720, Control_c, 0, 2, 80
1, 66720, Note_on_c, 0, 72, 80
1, 66959, Note_on_c, 0, 69, 0
1, 66959, Note_on_c, 0, 72, 0
1, 66960, Note_on_c, 0, 67, 80
1, 66960, Control_c, 0, 2, 80
1, 66960, Note_on_c, 0, 71, 80
1, 67199, Note_on_c, 0, 67, 0
1, 67200, Control_c, 0, 2, 80
1, 67679, Note_on_c, 0, 71, 0
1, 67920, Note_on_c, 0, 62, 80
1, 67920, Control_c, 0, 2, 80
1, 67920, Note_on_c, 0, 67, 80
1, 68159, Note_on_c, 0, 62, 0
1, 68159, Note_on_c, 0, 67, 0
1, 68160, Note_on_c, 0, 67, 80
1, 68160, Control_c, 0, 2, 80
1, 68160, Note_on_c, 0, 71, 80
1, 68399, Note_on_c, 0, 67, 0
1, 68399, Note_on_c, 0, 71, 0
1, 68400, Note_on_c, 0, 67, 80
1, 68400, Control_c, 0, 2, 80
1, 68400, Note_on_c, 0, 71, 80
1, 68639, Note_on_c, 0, 67, 0
1, 68639, Note_on_c, 0, 71, 0
1, 68640, Note_on_c, 0, 69, 80
1, 68640, Control_c, 0, 2, 80
1, 68640, Note_on_c, 0, 72, 80
1, 68879, Note_on_c, 0, 69, 0
1, 68879, Note_on_c, 0, 72, 0
1, 68880, Note_on_c, 0, 74, 80
1, 68880, Control_c, 0, 2, 80
1, 68880, Note_on_c, 0, 71, 80
1, 69119, Note_on_c, 0, 71, 0
1, 69120, Control_c, 0, 2, 80
1, 69359, Note_on_c, 0, 74, 0
1, 69360, Note_on_c, 0, 72, 80
1, 69360, Control_c, 0, 2, 80
1, 69360, Note_on_c, 0, 69, 80
1, 70079, Note_on_c, 0, 69, 0
1, 70080, Control_c, 0, 2, 80
1, 70559, Note_on_c, 0, 72, 0
1, 70800, Note_on_c, 0, 76, 80
1, 70800, Control_c, 0, 2, 80
1, 70800, Note_on_c, 0, 72, 80
1, 71039, Note_on_c, 0, 72, 0
1, 71040, Control_c, 0, 2, 80
1, 71279, Note_on_c, 0, 76, 0
1, 71280, Note_on_c, 0, 71, 80
1, 71280, Control_c, 0, 2, 80
1, 71280, Note_on_c, 0, 74, 80
1, 71759, Note_on_c, 0, 71, 0
1, 71759, Note_on_c, 0, 74, 0
1, 71760, Note_on_c, 0, 71, 80
1, 71760, Control_c, 0, 2, 80
1, 71760, Note_on_c, 0, 67, 80
1, 71999, Note_on_c, 0, 67, 0
1, 72000, Control_c, 0, 2, 80
1, 72239, Note_on_c, 0, 71, 0
1, 72240, Note_on_c, 0, 69, 80
1, 72240, Control_c, 0, 2, 80
1, 72240, Note_on_c, 0, 72, 80
1, 72719, Note_on_c, 0, 69, 0
1, 72719, Note_on_c, 0, 72, 0
1, 72720, Note_on_c, 0, 71, 80
1, 72720, Control_c, 0, 2, 80
1, 72720, Note_on_c, 0, 67, 80
1, 72959, Note_on_c, 0, 67, 0
1, 72960, Control_c, 0, 2, 80
1, 74879, Note_on_c, 0, 71, 0
1, 75600, Note_on_c, 0, 69, 80
1, 75600, Control_c, 0, 2, 80
1, 75719, Note_on_c, 0, 69, 0
1, 75720, Note_on_c, 0, 71, 80
1, 76079, Note_on_c, 0, 71, 0
1, 76080, Note_on_c, 0, 69, 80
1, 76199, Note_on_c, 0, 69, 0
1, 76200, Note_on_c, 0, 71, 80
1, 76559, Note_on_c, 0, 71, 0
1, 77040, Note_on_c, 0, 74, 80
1, 77279, Note_on_c, 0, 74, 0
1, 77280, Note_on_c, 0, 74, 80
1, 77519, Note_on_c, 0, 74, 0
1, 77520, Note_on_c, 0, 71, 80
1, 77759, Note_on_c, 0, 71, 0
1, 77760, Note_on_c, 0, 74, 80
1, 77999, Note_on_c, 0, 74, 0
1, 78000, Note_on_c, 0, 74, 80
1, 78239, Note_on_c, 0, 74, 0
1, 78240, Note_on_c, 0, 71, 80
1, 78479, Note_on_c, 0, 71, 0
1, 78480, Note_on_c, 0, 74, 80
1, 78599, Note_on_c, 0, 74, 0
1, 78600, Note_on_c, 0, 72, 80
1, 78719, Note_on_c, 0, 72, 0
1, 78720, Note_on_c, 0, 74, 80
1, 78959, Note_on_c, 0, 74, 0
1, 78960, Note_on_c, 0, 71, 80
1, 79079, Note_on_c, 0, 71, 0
1, 79080, Note_on_c, 0, 74, 80
1, 79319, Note_on_c, 0, 74, 0
1, 79320, Note_on_c, 0, 71, 80
1, 79559, Note_on_c, 0, 71, 0
1, 79560, Note_on_c, 0, 74, 80
1, 79799, Note_on_c, 0, 74, 0
1, 79800, Note_on_c, 0, 76, 80
1, 80159, Note_on_c, 0, 76, 0
1, 80160, Note_on_c, 0, 71, 80
1, 80399, Note_on_c, 0, 71, 0
1, 80400, Note_on_c, 0, 71, 80
1, 80639, Note_on_c, 0, 71, 0
1, 80880, Note_on_c, 0, 74, 80
1, 81119, Note_on_c, 0, 74, 0
1, 81120, Note_on_c, 0, 74, 80
1, 81359, Note_on_c, 0, 74, 0
1, 81360, Note_on_c, 0, 71, 80
1, 81599, Note_on_c, 0, 71, 0
1, 81600, Note_on_c, 0, 74, 80
1, 81839, Note_on_c, 0, 74, 0
1, 81840, Note_on_c, 0, 74, 80
1, 82079, Note_on_c, 0, 74, 0
1, 82080, Note_on_c, 0, 71, 80
1, 82439, Note_on_c, 0, 71, 0
1, 82440, Note_on_c, 0, 71, 80
1, 82559, Note_on_c, 0, 71, 0
1, 82560, Note_on_c, 0, 74, 80
1, 82799, Note_on_c, 0, 74, 0
1, 82800, Note_on_c, 0, 71, 80
1, 82919, Note_on_c, 0, 71, 0
1, 82920, Note_on_c, 0, 74, 80
1, 83159, Note_on_c, 0, 74, 0
1, 83160, Note_on_c, 0, 71, 80
1, 83399, Note_on_c, 0, 71, 0
1, 83400, Note_on_c, 0, 74, 80
1, 83639, Note_on_c, 0, 74, 0
1, 83640, Note_on_c, 0, 76, 80
1, 83999, Note_on_c, 0, 76, 0
1, 84000, Note_on_c, 0, 71, 80
1, 84239, Note_on_c, 0, 71, 0
1, 84240, Note_on_c, 0, 71, 80
1, 84479, Note_on_c, 0, 71, 0
1, 84960, Note_on_c, 0, 72, 80
1, 85079, Note_on_c, 0, 72, 0
1, 85080, Note_on_c, 0, 71, 80
1, 85319, Note_on_c, 0, 71, 0
1, 85320, Note_on_c, 0, 72, 80
1, 85559, Note_on_c, 0, 72, 0
1, 85560, Note_on_c, 0, 71, 80
1, 85799, Note_on_c, 0, 71, 0
1, 85800, Note_on_c, 0, 69, 80
1, 85839, Note_on_c, 0, 69, 0
1, 85840, Note_on_c, 0, 71, 80
1, 86879, Note_on_c, 0, 71, 0
1, 87120, Note_on_c, 0, 71, 80
1, 87239, Note_on_c, 0, 71, 0
1, 87240, Note_on_c, 0, 69, 80
1, 87359, Note_on_c, 0, 69, 0
1, 87360, Note_on_c, 0, 71, 80
1, 87479, Note_on_c, 0, 71, 0
1, 87480, Note_on_c, 0, 69, 80
1, 87719, Note_on_c, 0, 69, 0
1, 87720, Note_on_c, 0, 71, 80
1, 88079, Note_on_c, 0, 71, 0
1, 88080, Note_on_c, 0, 72, 80
1, 88559, Note_on_c, 0, 72, 0
1, 88800, Note_on_c, 0, 71, 80
1, 89039, Note_on_c, 0, 71, 0
1, 89040, Note_on_c, 0, 69, 80
1, 89159, Note_on_c, 0, 69, 0
1, 89160, Note_on_c, 0, 71, 80
1, 90239, Note_on_c, 0, 71, 0
1, 91440, Note_on_c, 0, 71, 80
1, 91919, Note_on_c, 0, 71, 0
1, 91920, Note_on_c, 0, 72, 80
1, 92159, Note_on_c, 0, 72, 0
1, 92160, Note_on_c, 0, 72, 80
1, 92399, Note_on_c, 0, 72, 0
1, 92400, Note_on_c, 0, 71, 80
1, 92639, Note_on_c, 0, 71, 0
1, 92640, Note_on_c, 0, 71, 80
1, 92879, Note_on_c, 0, 71, 0
1, 92880, Note_on_c, 0, 69, 80
1, 93119, Note_on_c, 0, 69, 0
1, 93120, Note_on_c, 0, 69, 80
1, 93359, Note_on_c, 0, 69, 0
1, 93360, Note_on_c, 0, 67, 80
1, 93599, Note_on_c, 0, 67, 0
1, 93600, Note_on_c, 0, 67, 80
1, 93839, Note_on_c, 0, 67, 0
1, 93840, Note_on_c, 0, 65, 80
1, 94079, Note_on_c, 0, 65, 0
1, 94080, Note_on_c, 0, 64, 80
1, 94319, Note_on_c, 0, 64, 0
1, 94320, Note_on_c, 0, 65, 80
1, 94559, Note_on_c, 0, 65, 0
1, 94560, Note_on_c, 0, 67, 80
1, 94799, Note_on_c, 0, 67, 0
1, 94800, Note_on_c, 0, 60, 80
1, 95399, Note_on_c, 0, 60, 0
1, 95760, Note_on_c, 0, 72, 80
1, 95999, Note_on_c, 0, 72, 0
1, 96000, Note_on_c, 0, 72, 80
1, 96239, Note_on_c, 0, 72, 0
1, 96240, Note_on_c, 0, 71, 80
1, 96479, Note_on_c, 0, 71, 0
1, 96480, Note_on_c, 0, 71, 80
1, 96719, Note_on_c, 0, 71, 0
1, 96720, Note_on_c, 0, 69, 80
1, 96959, Note_on_c, 0, 69, 0
1, 96960, Note_on_c, 0, 69, 80
1, 97199, Note_on_c, 0, 69, 0
1, 97200, Note_on_c, 0, 67, 80
1, 97439, Note_on_c, 0, 67, 0
1, 97440, Note_on_c, 0, 67, 80
1, 97679, Note_on_c, 0, 67, 0
1, 97680, Note_on_c, 0, 65, 80
1, 97919, Note_on_c, 0, 65, 0
1, 97920, Note_on_c, 0, 64, 80
1, 98159, Note_on_c, 0, 64, 0
1, 98160, Note_on_c, 0, 65, 80
1, 98399, Note_on_c, 0, 65, 0
1, 98400, Note_on_c, 0, 67, 80
1, 98639, Note_on_c, 0, 67, 0
1, 98640, Note_on_c, 0, 60, 80
1, 99359, Note_on_c, 0, 60, 0
1, 99600, Note_on_c, 0, 67, 80
1, 99959, Note_on_c, 0, 67, 0
1, 99960, Note_on_c, 0, 64, 80
1, 100199, Note_on_c, 0, 64, 0
1, 100200, Note_on_c, 0, 65, 80
1, 100319, Note_on_c, 0, 65, 0
1, 100320, Note_on_c, 0, 67, 80
1, 100439, Note_on_c, 0, 67, 0
1, 100440, Note_on_c, 0, 64, 80
1, 100679, Note_on_c, 0, 64, 0
1, 100680, Note_on_c, 0, 67, 80
1, 100919, Note_on_c, 0, 67, 0
1, 100920, Note_on_c, 0, 64, 80
1, 101159, Note_on_c, 0, 64, 0
1, 101160, Note_on_c, 0, 67, 80
1, 101399, Note_on_c, 0, 67, 0
1, 101400, Note_on_c, 0, 64, 80
1, 101639, Note_on_c, 0, 64, 0
1, 101640, Note_on_c, 0, 67, 80
1, 101879, Note_on_c, 0, 67, 0
1, 101880, Note_on_c, 0, 67, 80
1, 102119, Note_on_c, 0, 67, 0
1, 102120, Note_on_c, 0, 69, 80
1, 102359, Note_on_c, 0, 69, 0
1, 102360, Note_on_c, 0, 72, 80
1, 102599, Note_on_c, 0, 72, 0
1, 102600, Note_on_c, 0, 74, 80
1, 102959, Note_on_c, 0, 74, 0
1, 103080, Note_on_c, 0, 72, 80
1, 103199, Note_on_c, 0, 72, 0
1, 103200, Note_on_c, 0, 77, 80
1, 103319, Note_on_c, 0, 77, 0
1, 103320, Note_on_c, 0, 79, 80
1, 103679, Note_on_c, 0, 79, 0
1, 103680, Note_on_c, 0, 76, 80
1, 104399, Note_on_c, 0, 76, 0
1, 104400, Note_on_c, 0, 74, 80
1, 104519, Note_on_c, 0, 74, 0
1, 104520, Note_on_c, 0, 72, 80
1, 105359, Note_on_c, 0, 72, 0
1, 105360, Note_on_c, 0, 74, 80
1, 105479, Note_on_c, 0, 74, 0
1, 105480, Note_on_c, 0, 76, 80
1, 105599, Note_on_c, 0, 76, 0
1, 106080, Note_on_c, 0, 64, 80
1, 106080, Note_on_c, 0, 67, 80
1, 106319, Note_on_c, 0, 64, 0
1, 106319, Note_on_c, 0, 67, 0
1, 106320, Note_on_c, 0, 64, 80
1, 106320, Note_on_c, 0, 67, 80
1, 106559, Note_on_c, 0, 64, 0
1, 106559, Note_on_c, 0, 67, 0
1, 106560, Note_on_c, 0, 67, 80
1, 106560, Note_on_c, 0, 72, 80
1, 106799, Note_on_c, 0, 67, 0
1, 106799, Note_on_c, 0, 72, 0
1, 106800, Note_on_c, 0, 67, 80
1, 106800, Note_on_c, 0, 74, 80
1, 107039, Note_on_c, 0, 67, 0
1, 107039, Note_on_c, 0, 74, 0
1, 107160, Note_on_c, 0, 64, 80
1, 107199, Note_on_c, 0, 64, 0
1, 107200, Note_on_c, 0, 67, 80
1, 107239, Note_on_c, 0, 67, 0
1, 107240, Note_on_c, 0, 72, 80
1, 107279, Note_on_c, 0, 72, 0
1, 107280, Note_on_c, 0, 76, 80
1, 109919, Note_on_c, 0, 76, 0
1, 110160, Note_on_c, 0, 64, 80
1, 110160, Note_on_c, 0, 67, 80
1, 110399, Note_on_c, 0, 64, 0
1, 110399, Note_on_c, 0, 67, 0
1, 110400, Note_on_c, 0, 67, 80
1, 110400, Note_on_c, 0, 72, 80
1, 110639, Note_on_c, 0, 67, 0
1, 110639, Note_on_c, 0, 72, 0
1, 110640, Note_on_c, 0, 67, 80
1, 110640, Note_on_c, 0, 74, 80
1, 110879, Note_on_c, 0, 67, 0
1, 110879, Note_on_c, 0, 74, 0
1, 111000, Note_on_c, 0, 64, 80
1, 111039, Note_on_c, 0, 64, 0
1, 111040, Note_on_c, 0, 67, 80
1, 111079, Note_on_c, 0, 67, 0
1, 111080, Note_on_c, 0, 72, 80
1, 111119, Note_on_c, 0, 72, 0
1, 111120, Note_on_c, 0, 76, 80
1, 111599, Note_on_c, 0, 76, 0
1, 111600, Note_on_c, 0, 69, 80
1, 111600, Note_on_c, 0, 74, 80
1, 112079, Note_on_c, 0, 69, 0
1, 112079, Note_on_c, 0, 74, 0
1, 112080, Note_on_c, 0, 72, 80
1, 112080, Note_on_c, 0, 69, 80
1, 112319, Note_on_c, 0, 69, 0
1, 112559, Note_on_c, 0, 72, 0
1, 112560, Note_on_c, 0, 69, 80
1, 112560, Note_on_c, 0, 74, 80
1, 113039, Note_on_c, 0, 69, 0
1, 113039, Note_on_c, 0, 74, 0
1, 113040, Note_on_c, 0, 72, 80
1, 113040, Note_on_c, 0, 69, 80
1, 113279, Note_on_c, 0, 69, 0
1, 113759, Note_on_c, 0, 72, 0
1, 114240, Note_on_c, 0, 69, 80
1, 114240, Note_on_c, 0, 72, 80
1, 114479, Note_on_c, 0, 69, 0
1, 114479, Note_on_c, 0, 72, 0
1, 114480, Note_on_c, 0, 69, 80
1, 114480, Note_on_c, 0, 72, 80
1, 114719, Note_on_c, 0, 69, 0
1, 114719, Note_on_c, 0, 72, 0
1, 114720, Note_on_c, 0, 69, 80
1, 114720, Note_on_c, 0, 74, 80
1, 114839, Note_on_c, 0, 69, 0
1, 114839, Note_on_c, 0, 74, 0
1, 114880, Note_on_c, 0, 69, 80
1, 114919, Note_on_c, 0, 69, 0
1, 114920, Note_on_c, 0, 72, 80
1, 114959, Note_on_c, 0, 72, 0
1, 114960, Note_on_c, 0, 76, 80
1, 115439, Note_on_c, 0, 76, 0
1, 115440, Note_on_c, 0, 74, 80
1, 115440, Note_on_c, 0, 69, 80
1, 116159, Note_on_c, 0, 69, 0
1, 116639, Note_on_c, 0, 74, 0
1, 116760, Note_on_c, 0, 65, 80
1, 116799, Note_on_c, 0, 65, 0
1, 116800, Note_on_c, 0, 69, 80
1, 116839, Note_on_c, 0, 69, 0
1, 116840, Note_on_c, 0, 72, 80
1, 116879, Note_on_c, 0, 72, 0
1, 116880, Note_on_c, 0, 77, 80
1, 117359, Note_on_c, 0, 77, 0
1, 117360, Note_on_c, 0, 72, 80
1, 117360, Note_on_c, 0, 76, 80
1, 117839, Note_on_c, 0, 72, 0
1, 117839, Note_on_c, 0, 76, 0
1, 117840, Note_on_c, 0, 72, 80
1, 117840, Note_on_c, 0, 69, 80
1, 118079, Note_on_c, 0, 69, 0
1, 118319, Note_on_c, 0, 72, 0
1, 118320, Note_on_c, 0, 69, 80
1, 118320, Note_on_c, 0, 74, 80
1, 118799, Note_on_c, 0, 69, 0
1, 118799, Note_on_c, 0, 74, 0
1, 118800, Note_on_c, 0, 72, 80
1, 118800, Note_on_c, 0, 69, 80
1, 119039, Note_on_c, 0, 69, 0
1, 120959, Note_on_c, 0, 72, 0
1, 121680, Note_on_c, 0, 64, 80
1, 121680, Note_on_c, 0, 67, 80
1, 121919, Note_on_c, 0, 64, 0
1, 121919, Note_on_c, 0, 67, 0
1, 121920, Note_on_c, 0, 67, 80
1, 121920, Note_on_c, 0, 72, 80
1, 122159, Note_on_c, 0, 67, 0
1, 122159, Note_on_c, 0, 72, 0
1, 122160, Note_on_c, 0, 67, 80
1, 122160, Note_on_c, 0, 74, 80
1, 122399, Note_on_c, 0, 67, 0
1, 122399, Note_on_c, 0, 74, 0
1, 122520, Note_on_c, 0, 64, 80
1, 122559, Note_on_c, 0, 64, 0
1, 122560, Note_on_c, 0, 67, 80
1, 122599, Note_on_c, 0, 67, 0
1, 122600, Note_on_c, 0, 72, 80
1, 122639, Note_on_c, 0, 72, 0
1, 122640, Note_on_c, 0, 76, 80
1, 125279, Note_on_c, 0, 76, 0
1, 125520, Note_on_c, 0, 64, 80
1, 125520, Note_on_c, 0, 67, 80
1, 125759, Note_on_c, 0, 64, 0
1, 125759, Note_on_c, 0, 67, 0
1, 125760, Note_on_c, 0, 67, 80
1, 125760, Note_on_c, 0, 72, 80
1, 125999, Note_on_c, 0, 67, 0
1, 125999, Note_on_c, 0, 72, 0
1, 126000, Note_on_c, 0, 67, 80
1, 126000, Note_on_c, 0, 74, 80
1, 126239, Note_on_c, 0, 67, 0
1, 126239, Note_on_c, 0, 74, 0
1, 126360, Note_on_c, 0, 64, 80
1, 126399, Note_on_c, 0, 64, 0
1, 126400, Note_on_c, 0, 67, 80
1, 126439, Note_on_c, 0, 67, 0
1, 126440, Note_on_c, 0, 72, 80
1, 126479, Note_on_c, 0, 72, 0
1, 126480, Note_on_c, 0, 76, 80
1, 126719, Note_on_c, 0, 76, 0
1, 126720, Note_on_c, 0, 74, 80
1, 126959, Note_on_c, 0, 74, 0
1, 126960, Note_on_c, 0, 69, 80
1, 126960, Note_on_c, 0, 74, 80
1, 127439, Note_on_c, 0, 69, 0
1, 127439, Note_on_c, 0, 74, 0
1, 127440, Note_on_c, 0, 72, 80
1, 127440, Note_on_c, 0, 69, 80
1, 127679, Note_on_c, 0, 69, 0
1, 127919, Note_on_c, 0, 72, 0
1, 127920, Note_on_c, 0, 69, 80
1, 127920, Note_on_c, 0, 72, 80
1, 128159, Note_on_c, 0, 69, 0
1, 128159, Note_on_c, 0, 72, 0
1, 128160, Note_on_c, 0, 69, 80
1, 128160, Note_on_c, 0, 74, 80
1, 128399, Note_on_c, 0, 69, 0
1, 128399, Note_on_c, 0, 74, 0
1, 128400, Note_on_c, 0, 72, 80
1, 128400, Note_on_c, 0, 69, 80
1, 128639, Note_on_c, 0, 69, 0
1, 129119, Note_on_c, 0, 72, 0
1, 129360, Note_on_c, 0, 64, 80
1, 129360, Note_on_c, 0, 67, 80
1, 129599, Note_on_c, 0, 64, 0
1, 129599, Note_on_c, 0, 67, 0
1, 129600, Note_on_c, 0, 69, 80
1, 129600, Note_on_c, 0, 72, 80
1, 129839, Note_on_c, 0, 69, 0
1, 129839, Note_on_c, 0, 72, 0
1, 129840, Note_on_c, 0, 69, 80
1, 129840, Note_on_c, 0, 72, 80
1, 130079, Note_on_c, 0, 69, 0
1, 130079, Note_on_c, 0, 72, 0
1, 130080, Note_on_c, 0, 69, 80
1, 130080, Note_on_c, 0, 74, 80
1, 130319, Note_on_c, 0, 69, 0
1, 130319, Note_on_c, 0, 74, 0
1, 130320, Note_on_c, 0, 72, 80
1, 130320, Note_on_c, 0, 76, 80
1, 130559, Note_on_c, 0, 72, 0
1, 130559, Note_on_c, 0, 76, 0
1, 130560, Note_on_c, 0, 74, 80
1, 130799, Note_on_c, 0, 74, 0
1, 130800, Note_on_c, 0, 74, 80
1, 130800, Note_on_c, 0, 69, 80
1, 131519, Note_on_c, 0, 69, 0
1, 131999, Note_on_c, 0, 74, 0
1, 132120, Note_on_c, 0, 65, 80
1, 132159, Note_on_c, 0, 65, 0
1, 132160, Note_on_c, 0, 69, 80
1, 132199, Note_on_c, 0, 69, 0
1, 132200, Note_on_c, 0, 72, 80
1, 132239, Note_on_c, 0, 72, 0
1, 132240, Note_on_c, 0, 77, 80
1, 132719, Note_on_c, 0, 77, 0
1, 132720, Note_on_c, 0, 69, 80
1, 132720, Note_on_c, 0, 76, 80
1, 133199, Note_on_c, 0, 69, 0
1, 133199, Note_on_c, 0, 76, 0
1, 133200, Note_on_c, 0, 72, 80
1, 133200, Note_on_c, 0, 69, 80
1, 133439, Note_on_c, 0, 69, 0
1, 133679, Note_on_c, 0, 72, 0
1, 133680, Note_on_c, 0, 69, 80
1, 133680, Note_on_c, 0, 74, 80
1, 134159, Note_on_c, 0, 69, 0
1, 134159, Note_on_c, 0, 74, 0
1, 134160, Note_on_c, 0, 72, 80
1, 134160, Note_on_c, 0, 67, 80
1, 134399, Note_on_c, 0, 67, 0
1, 136319, Note_on_c, 0, 72, 0
1, 136800, Note_on_c, 0, 72, 80
1, 137039, Note_on_c, 0, 72, 0
1, 137040, Note_on_c, 0, 74, 80
1, 137519, Note_on_c, 0, 74, 0
1, 137520, Note_on_c, 0, 72, 80
1, 137999, Note_on_c, 0, 72, 0
1, 138000, Note_on_c, 0, 79, 80
1, 140159, Note_on_c, 0, 79, 0
1, 140640, Note_on_c, 0, 72, 80
1, 140879, Note_on_c, 0, 72, 0
1, 140880, Note_on_c, 0, 74, 80
1, 141359, Note_on_c, 0, 74, 0
1, 141360, Note_on_c, 0, 72, 80
1, 141839, Note_on_c, 0, 72, 0
1, 141840, Note_on_c, 0, 79, 80
1, 142799, Note_on_c, 0, 79, 0
1, 142800, Note_on_c, 0, 76, 80
1, 143999, Note_on_c, 0, 76, 0
1, 144960, Note_on_c, 0, 72, 80
1, 145199, Note_on_c, 0, 72, 0
1, 145200, Note_on_c, 0, 72, 80
1, 145439, Note_on_c, 0, 72, 0
1, 145440, Note_on_c, 0, 74, 80
1, 145679, Note_on_c, 0, 74, 0
1, 145680, Note_on_c, 0, 76, 80
1, 146159, Note_on_c, 0, 76, 0
1, 146160, Note_on_c, 0, 74, 80
1, 146879, Note_on_c, 0, 74, 0
1, 147600, Note_on_c, 0, 77, 80
1, 148079, Note_on_c, 0, 77, 0
1, 148080, Note_on_c, 0, 76, 80
1, 148559, Note_on_c, 0, 76, 0
1, 148560, Note_on_c, 0, 72, 80
1, 149039, Note_on_c, 0, 72, 0
1, 149040, Note_on_c, 0, 74, 80
1, 149519, Note_on_c, 0, 74, 0
1, 149520, Note_on_c, 0, 72, 80
1, 151679, Note_on_c, 0, 72, 0
1, 152160, Note_on_c, 0, 67, 80
1, 152399, Note_on_c, 0, 67, 0
1, 152400, Note_on_c, 0, 67, 80
1, 152400, Control_c, 0, 2, 80
1, 152639, Note_on_c, 0, 67, 0
1, 152640, Note_on_c, 0, 72, 80
1, 152640, Control_c, 0, 2, 80
1, 152879, Note_on_c, 0, 72, 0
1, 152880, Note_on_c, 0, 79, 80
1, 152880, Control_c, 0, 2, 80
1, 153359, Note_on_c, 0, 79, 0
1, 153360, Note_on_c, 0, 76, 80
1, 153360, Control_c, 0, 2, 80
1, 153600, Control_c, 0, 2, 80
1, 155520, Control_c, 0, 2, 80
1, 155999, Note_on_c, 0, 76, 0
1, 156240, Note_on_c, 0, 67, 80
1, 156240, Control_c, 0, 2, 80
1, 156479, Note_on_c, 0, 67, 0
1, 156480, Note_on_c, 0, 72, 80
1, 156480, Control_c, 0, 2, 80
1, 156719, Note_on_c, 0, 72, 0
1, 156720, Note_on_c, 0, 74, 80
1, 156720, Control_c, 0, 2, 80
1, 157199, Note_on_c, 0, 74, 0
1, 157200, Note_on_c, 0, 76, 80
1, 157200, Control_c, 0, 2, 80
1, 157440, Control_c, 0, 2, 80
1, 157679, Note_on_c, 0, 76, 0
1, 157680, Note_on_c, 0, 74, 80
1, 157680, Control_c, 0, 2, 80
1, 157919, Note_on_c, 0, 74, 0
1, 157920, Note_on_c, 0, 72, 80
1, 158159, Note_on_c, 0, 72, 0
1, 158160, Note_on_c, 0, 72, 80
1, 158400, Control_c, 0, 2, 80
1, 158639, Note_on_c, 0, 72, 0
1, 158640, Note_on_c, 0, 74, 80
1, 158640, Control_c, 0, 2, 80
1, 159119, Note_on_c, 0, 74, 0
1, 159120, Note_on_c, 0, 72, 80
1, 159839, Note_on_c, 0, 72, 0
1, 160320, Note_on_c, 0, 72, 80
1, 160320, Control_c, 0, 2, 80
1, 160559, Note_on_c, 0, 72, 0
1, 160560, Note_on_c, 0, 72, 80
1, 160560, Control_c, 0, 2, 80
1, 160799, Note_on_c, 0, 72, 0
1, 160800, Note_on_c, 0, 74, 80
1, 160800, Control_c, 0, 2, 80
1, 161039, Note_on_c, 0, 74, 0
1, 161040, Note_on_c, 0, 76, 80
1, 161279, Note_on_c, 0, 76, 0
1, 161280, Note_on_c, 0, 74, 80
1, 161280, Control_c, 0, 2, 80
1, 161519, Note_on_c, 0, 74, 0
1, 161520, Note_on_c, 0, 74, 80
1, 161520, Control_c, 0, 2, 80
1, 162719, Note_on_c, 0, 74, 0
1, 162960, Note_on_c, 0, 77, 80
1, 163439, Note_on_c, 0, 77, 0
1, 163440, Note_on_c, 0, 76, 80
1, 163919, Note_on_c, 0, 76, 0
1, 163920, Note_on_c, 0, 72, 80
1, 163920, Control_c, 0, 2, 80
1, 164160, Control_c, 0, 2, 80
1, 164399, Note_on_c, 0, 72, 0
1, 164400, Note_on_c, 0, 74, 80
1, 164400, Control_c, 0, 2, 80
1, 164879, Note_on_c, 0, 74, 0
1, 164880, Note_on_c, 0, 72, 80
1, 164880, Control_c, 0, 2, 80
1, 165120, Control_c, 0, 2, 80
1, 167039, Note_on_c, 0, 72, 0
1, 167760, Note_on_c, 0, 67, 80
1, 167760, Control_c, 0, 2, 80
1, 167999, Note_on_c, 0, 67, 0
1, 168000, Note_on_c, 0, 72, 80
1, 168000, Control_c, 0, 2, 80
1, 168239, Note_on_c, 0, 72, 0
1, 168240, Note_on_c, 0, 74, 80
1, 168240, Control_c, 0, 2, 80
1, 168719, Note_on_c, 0, 74, 0
1, 168720, Note_on_c, 0, 76, 80
1, 168720, Control_c, 0, 2, 80
1, 168960, Control_c, 0, 2, 80
1, 171359, Note_on_c, 0, 76, 0
1, 171600, Note_on_c, 0, 67, 80
1, 171600, Control_c, 0, 2, 80
1, 171839, Note_on_c, 0, 67, 0
1, 171840, Note_on_c, 0, 72, 80
1, 171840, Control_c, 0, 2, 80
1, 172079, Note_on_c, 0, 72, 0
1, 172080, Note_on_c, 0, 74, 80
1, 172080, Control_c, 0, 2, 80
1, 172559, Note_on_c, 0, 74, 0
1, 172560, Note_on_c, 0, 76, 80
1, 172560, Control_c, 0, 2, 80
1, 172799, Note_on_c, 0, 76, 0
1, 172800, Note_on_c, 0, 74, 80
1, 172800, Control_c, 0, 2, 80
1, 173039, Note_on_c, 0, 74, 0
1, 173040, Note_on_c, 0, 74, 80
1, 173040, Control_c, 0, 2, 80
1, 173519, Note_on_c, 0, 74, 0
1, 173520, Note_on_c, 0, 77, 80
1, 173760, Control_c, 0, 2, 80
1, 173999, Note_on_c, 0, 77, 0
1, 174000, Note_on_c, 0, 76, 80
1, 174000, Control_c, 0, 2, 80
1, 174239, Note_on_c, 0, 76, 0
1, 174240, Note_on_c, 0, 74, 80
1, 174479, Note_on_c, 0, 74, 0
1, 174480, Note_on_c, 0, 72, 80
1, 175199, Note_on_c, 0, 72, 0
1, 175440, Note_on_c, 0, 67, 80
1, 175679, Note_on_c, 0, 67, 0
1, 175680, Note_on_c, 0, 72, 80
1, 175919, Note_on_c, 0, 72, 0
1, 175920, Note_on_c, 0, 72, 80
1, 175920, Control_c, 0, 2, 80
1, 176159, Note_on_c, 0, 72, 0
1, 176160, Note_on_c, 0, 74, 80
1, 176160, Control_c, 0, 2, 80
1, 176399, Note_on_c, 0, 74, 0
1, 176400, Note_on_c, 0, 76, 80
1, 176400, Control_c, 0, 2, 80
1, 176639, Note_on_c, 0, 76, 0
1, 176640, Note_on_c, 0, 74, 80
1, 176640, Control_c, 0, 2, 80
1, 176879, Note_on_c, 0, 74, 0
1, 176880, Note_on_c, 0, 74, 80
1, 176880, Control_c, 0, 2, 80
1, 177600, Control_c, 0, 2, 80
1, 178079, Note_on_c, 0, 74, 0
1, 178320, Note_on_c, 0, 77, 80
1, 178560, Control_c, 0, 2, 80
1, 178799, Note_on_c, 0, 77, 0
1, 178800, Note_on_c, 0, 76, 80
1, 178800, Control_c, 0, 2, 80
1, 179279, Note_on_c, 0, 76, 0
1, 179280, Note_on_c, 0, 72, 80
1, 179280, Control_c, 0, 2, 80
1, 179520, Control_c, 0, 2, 80
1, 179759, Note_on_c, 0, 72, 0
1, 179760, Note_on_c, 0, 74, 80
1, 179760, Control_c, 0, 2, 80
1, 180239, Note_on_c, 0, 74, 0
1, 180240, Note_on_c, 0, 72, 80
1, 180240, Control_c, 0, 2, 80
1, 180480, Control_c, 0, 2, 80
1, 182399, Note_on_c, 0, 72, 0
1, 183120, Note_on_c, 0, 74, 80
1, 183120, Control_c, 0, 2, 80
1, 183239, Note_on_c, 0, 74, 0
1, 183240, Note_on_c, 0, 76, 80
1, 183599, Note_on_c, 0, 76, 0
1, 183600, Note_on_c, 0, 74, 80
1, 183719, Note_on_c, 0, 74, 0
1, 183720, Note_on_c, 0, 76, 80
1, 184079, Note_on_c, 0, 76, 0
1, 184080, End_track
2, 0, Start_track
2, 0, Title_t, "Piano, Piano\000"
2, 0, Key_signature, 0, "major"
2, 0, Control_c, 2, 121, 0
2, 0, Program_c, 2, 0
2, 0, Control_c, 2, 7, 127
2, 0, Control_c, 2, 10, 64
2, 0, Control_c, 2, 91, 0
2, 0, Control_c, 2, 93, 0
2, 0, MIDI_port, 0
2, 480, Note_on_c, 2, 59, 80
2, 480, Note_on_c, 2, 67, 80
2, 707, Note_on_c, 2, 59, 0
2, 707, Note_on_c, 2, 67, 0
2, 720, Note_on_c, 2, 59, 80
2, 720, Note_on_c, 2, 62, 80
2, 947, Note_on_c, 2, 59, 0
2, 947, Note_on_c, 2, 62, 0
2, 1200, Note_on_c, 2, 59, 80
2, 1200, Note_on_c, 2, 62, 80
2, 1427, Note_on_c, 2, 59, 0
2, 1427, Note_on_c, 2, 62, 0
2, 1680, Note_on_c, 2, 60, 80
2, 1907, Note_on_c, 2, 60, 0
2, 1920, Note_on_c, 2, 59, 80
2, 2375, Note_on_c, 2, 59, 0
2, 2400, Note_on_c, 2, 60, 80
2, 2627, Note_on_c, 2, 60, 0
2, 2640, Note_on_c, 2, 59, 80
2, 2640, Note_on_c, 2, 62, 80
2, 2867, Note_on_c, 2, 59, 0
2, 2867, Note_on_c, 2, 62, 0
2, 3120, Note_on_c, 2, 59, 80
2, 3120, Note_on_c, 2, 62, 80
2, 3347, Note_on_c, 2, 59, 0
2, 3347, Note_on_c, 2, 62, 0
2, 3600, Note_on_c, 2, 59, 80
2, 3827, Note_on_c, 2, 59, 0
2, 3840, Note_on_c, 2, 59, 80
2, 4295, Note_on_c, 2, 59, 0
2, 4320, Note_on_c, 2, 59, 80
2, 4320, Note_on_c, 2, 67, 80
2, 4547, Note_on_c, 2, 59, 0
2, 4547, Note_on_c, 2, 67, 0
2, 4560, Note_on_c, 2, 59, 80
2, 4560, Note_on_c, 2, 62, 80
2, 4787, Note_on_c, 2, 59, 0
2, 4787, Note_on_c, 2, 62, 0
2, 5040, Note_on_c, 2, 59, 80
2, 5040, Note_on_c, 2, 62, 80
2, 5267, Note_on_c, 2, 59, 0
2, 5267, Note_on_c, 2, 62, 0
2, 5520, Note_on_c, 2, 60, 80
2, 5747, Note_on_c, 2, 60, 0
2, 5760, Note_on_c, 2, 59, 80
2, 6215, Note_on_c, 2, 59, 0
2, 6240, Note_on_c, 2, 60, 80
2, 6467, Note_on_c, 2, 60, 0
2, 6480, Note_on_c, 2, 59, 80
2, 6480, Note_on_c, 2, 62, 80
2, 6707, Note_on_c, 2, 59, 0
2, 6707, Note_on_c, 2, 62, 0
2, 6960, Note_on_c, 2, 59, 80
2, 6960, Note_on_c, 2, 62, 80
2, 7187, Note_on_c, 2, 59, 0
2, 7187, Note_on_c, 2, 62, 0
2, 7440, Note_on_c, 2, 59, 80
2, 7667, Note_on_c, 2, 59, 0
2, 8160, Note_on_c, 2, 59, 80
2, 8160, Note_on_c, 2, 67, 80
2, 8399, Note_on_c, 2, 59, 0
2, 8399, Note_on_c, 2, 67, 0
2, 8880, Note_on_c, 2, 59, 80
2, 8880, Note_on_c, 2, 62, 80
2, 9107, Note_on_c, 2, 59, 0
2, 9107, Note_on_c, 2, 62, 0
2, 9360, Note_on_c, 2, 60, 80
2, 9587, Note_on_c, 2, 60, 0
2, 9600, Note_on_c, 2, 59, 80
2, 10055, Note_on_c, 2, 59, 0
2, 10080, Note_on_c, 2, 60, 80
2, 10307, Note_on_c, 2, 60, 0
2, 10320, Note_on_c, 2, 59, 80
2, 10320, Note_on_c, 2, 62, 80
2, 10547, Note_on_c, 2, 59, 0
2, 10547, Note_on_c, 2, 62, 0
2, 10800, Note_on_c, 2, 59, 80
2, 10800, Note_on_c, 2, 62, 80
2, 11027, Note_on_c, 2, 59, 0
2, 11027, Note_on_c, 2, 62, 0
2, 11280, Note_on_c, 2, 59, 80
2, 11507, Note_on_c, 2, 59, 0
2, 11520, Note_on_c, 2, 59, 80
2, 11520, Note_on_c, 2, 67, 80
2, 11975, Note_on_c, 2, 59, 0
2, 11975, Note_on_c, 2, 67, 0
2, 12000, Note_on_c, 2, 59, 80
2, 12000, Note_on_c, 2, 67, 80
2, 12227, Note_on_c, 2, 59, 0
2, 12227, Note_on_c, 2, 67, 0
2, 12240, Note_on_c, 2, 59, 80
2, 12240, Note_on_c, 2, 62, 80
2, 12467, Note_on_c, 2, 59, 0
2, 12467, Note_on_c, 2, 62, 0
2, 12720, Note_on_c, 2, 59, 80
2, 12720, Note_on_c, 2, 62, 80
2, 12947, Note_on_c, 2, 59, 0
2, 12947, Note_on_c, 2, 62, 0
2, 13200, Note_on_c, 2, 60, 80
2, 13427, Note_on_c, 2, 60, 0
2, 13440, Note_on_c, 2, 59, 80
2, 13895, Note_on_c, 2, 59, 0
2, 13920, Note_on_c, 2, 60, 80
2, 14147, Note_on_c, 2, 60, 0
2, 14160, Note_on_c, 2, 59, 80
2, 14160, Note_on_c, 2, 62, 80
2, 14387, Note_on_c, 2, 59, 0
2, 14387, Note_on_c, 2, 62, 0
2, 14640, Note_on_c, 2, 59, 80
2, 14640, Note_on_c, 2, 62, 80
2, 14867, Note_on_c, 2, 59, 0
2, 14867, Note_on_c, 2, 62, 0
2, 15120, Note_on_c, 2, 59, 80
2, 15347, Note_on_c, 2, 59, 0
2, 15360, Note_on_c, 2, 59, 80
2, 15360, Note_on_c, 2, 67, 80
2, 15815, Note_on_c, 2, 59, 0
2, 15815, Note_on_c, 2, 67, 0
2, 15840, Note_on_c, 2, 59, 80
2, 15840, Note_on_c, 2, 67, 80
2, 16067, Note_on_c, 2, 59, 0
2, 16067, Note_on_c, 2, 67, 0
2, 16080, Note_on_c, 2, 59, 80
2, 16080, Note_on_c, 2, 62, 80
2, 16307, Note_on_c, 2, 59, 0
2, 16307, Note_on_c, 2, 62, 0
2, 16560, Note_on_c, 2, 59, 80
2, 16560, Note_on_c, 2, 62, 80
2, 16787, Note_on_c, 2, 59, 0
2, 16787, Note_on_c, 2, 62, 0
2, 17040, Note_on_c, 2, 60, 80
2, 17267, Note_on_c, 2, 60, 0
2, 17280, Note_on_c, 2, 59, 80
2, 17735, Note_on_c, 2, 59, 0
2, 17760, Note_on_c, 2, 60, 80
2, 17987, Note_on_c, 2, 60, 0
2, 18000, Note_on_c, 2, 59, 80
2, 18000, Note_on_c, 2, 62, 80
2, 18227, Note_on_c, 2, 59, 0
2, 18227, Note_on_c, 2, 62, 0
2, 18480, Note_on_c, 2, 59, 80
2, 18480, Note_on_c, 2, 62, 80
2, 18707, Note_on_c, 2, 59, 0
2, 18707, Note_on_c, 2, 62, 0
2, 18960, Note_on_c, 2, 59, 80
2, 19187, Note_on_c, 2, 59, 0
2, 19200, Note_on_c, 2, 59, 80
2, 19200, Note_on_c, 2, 67, 80
2, 19655, Note_on_c, 2, 59, 0
2, 19655, Note_on_c, 2, 67, 0
2, 19680, Note_on_c, 2, 59, 80
2, 19680, Note_on_c, 2, 67, 80
2, 19907, Note_on_c, 2, 59, 0
2, 19907, Note_on_c, 2, 67, 0
2, 19920, Note_on_c, 2, 59, 80
2, 19920, Note_on_c, 2, 62, 80
2, 20147, Note_on_c, 2, 59, 0
2, 20147, Note_on_c, 2, 62, 0
2, 20400, Note_on_c, 2, 59, 80
2, 20400, Note_on_c, 2, 62, 80
2, 20627, Note_on_c, 2, 59, 0
2, 20627, Note_on_c, 2, 62, 0
2, 20880, Note_on_c, 2, 60, 80
2, 21107, Note_on_c, 2, 60, 0
2, 21120, Note_on_c, 2, 59, 80
2, 21575, Note_on_c, 2, 59, 0
2, 21600, Note_on_c, 2, 60, 80
2, 21827, Note_on_c, 2, 60, 0
2, 21840, Note_on_c, 2, 59, 80
2, 21840, Note_on_c, 2, 62, 80
2, 22067, Note_on_c, 2, 59, 0
2, 22067, Note_on_c, 2, 62, 0
2, 22320, Note_on_c, 2, 59, 80
2, 22320, Note_on_c, 2, 62, 80
2, 22547, Note_on_c, 2, 59, 0
2, 22547, Note_on_c, 2, 62, 0
2, 22800, Note_on_c, 2, 59, 80
2, 23027, Note_on_c, 2, 59, 0
2, 23040, Note_on_c, 2, 59, 80
2, 23040, Note_on_c, 2, 67, 80
2, 23495, Note_on_c, 2, 59, 0
2, 23495, Note_on_c, 2, 67, 0
2, 23520, Note_on_c, 2, 59, 80
2, 23520, Note_on_c, 2, 67, 80
2, 23747, Note_on_c, 2, 59, 0
2, 23747, Note_on_c, 2, 67, 0
2, 23760, Note_on_c, 2, 59, 80
2, 23760, Note_on_c, 2, 62, 80
2, 23987, Note_on_c, 2, 59, 0
2, 23987, Note_on_c, 2, 62, 0
2, 24240, Note_on_c, 2, 59, 80
2, 24240, Note_on_c, 2, 62, 80
2, 24467, Note_on_c, 2, 59, 0
2, 24467, Note_on_c, 2, 62, 0
2, 24720, Note_on_c, 2, 60, 80
2, 24947, Note_on_c, 2, 60, 0
2, 24960, Note_on_c, 2, 59, 80
2, 25415, Note_on_c, 2, 59, 0
2, 25440, Note_on_c, 2, 60, 80
2, 25667, Note_on_c, 2, 60, 0
2, 25680, Note_on_c, 2, 59, 80
2, 25680, Note_on_c, 2, 62, 80
2, 25907, Note_on_c, 2, 59, 0
2, 25907, Note_on_c, 2, 62, 0
2, 26160, Note_on_c, 2, 59, 80
2, 26160, Note_on_c, 2, 62, 80
2, 26387, Note_on_c, 2, 59, 0
2, 26387, Note_on_c, 2, 62, 0
2, 26640, Note_on_c, 2, 59, 80
2, 26867, Note_on_c, 2, 59, 0
2, 26880, Note_on_c, 2, 59, 80
2, 26880, Note_on_c, 2, 67, 80
2, 27335, Note_on_c, 2, 59, 0
2, 27335, Note_on_c, 2, 67, 0
2, 27360, Note_on_c, 2, 59, 80
2, 27360, Note_on_c, 2, 67, 80
2, 27587, Note_on_c, 2, 59, 0
2, 27587, Note_on_c, 2, 67, 0
2, 27600, Note_on_c, 2, 59, 80
2, 27600, Note_on_c, 2, 62, 80
2, 27827, Note_on_c, 2, 59, 0
2, 27827, Note_on_c, 2, 62, 0
2, 28080, Note_on_c, 2, 59, 80
2, 28080, Note_on_c, 2, 62, 80
2, 28307, Note_on_c, 2, 59, 0
2, 28307, Note_on_c, 2, 62, 0
2, 28560, Note_on_c, 2, 60, 80
2, 28787, Note_on_c, 2, 60, 0
2, 28800, Note_on_c, 2, 59, 80
2, 29255, Note_on_c, 2, 59, 0
2, 29280, Note_on_c, 2, 60, 80
2, 29507, Note_on_c, 2, 60, 0
2, 29520, Note_on_c, 2, 59, 80
2, 29520, Note_on_c, 2, 62, 80
2, 29747, Note_on_c, 2, 59, 0
2, 29747, Note_on_c, 2, 62, 0
2, 30000, Note_on_c, 2, 59, 80
2, 30000, Note_on_c, 2, 62, 80
2, 30227, Note_on_c, 2, 59, 0
2, 30227, Note_on_c, 2, 62, 0
2, 30480, Note_on_c, 2, 59, 80
2, 30707, Note_on_c, 2, 59, 0
2, 30720, Note_on_c, 2, 59, 80
2, 30720, Note_on_c, 2, 67, 80
2, 31175, Note_on_c, 2, 59, 0
2, 31175, Note_on_c, 2, 67, 0
2, 31200, Note_on_c, 2, 59, 80
2, 31200, Note_on_c, 2, 67, 80
2, 31427, Note_on_c, 2, 59, 0
2, 31427, Note_on_c, 2, 67, 0
2, 31440, Note_on_c, 2, 59, 80
2, 31440, Note_on_c, 2, 62, 80
2, 31667, Note_on_c, 2, 59, 0
2, 31667, Note_on_c, 2, 62, 0
2, 31920, Note_on_c, 2, 59, 80
2, 31920, Note_on_c, 2, 62, 80
2, 32147, Note_on_c, 2, 59, 0
2, 32147, Note_on_c, 2, 62, 0
2, 32400, Note_on_c, 2, 60, 80
2, 32627, Note_on_c, 2, 60, 0
2, 32640, Note_on_c, 2, 59, 80
2, 33095, Note_on_c, 2, 59, 0
2, 33120, Note_on_c, 2, 60, 80
2, 33347, Note_on_c, 2, 60, 0
2, 33360, Note_on_c, 2, 59, 80
2, 33360, Note_on_c, 2, 62, 80
2, 33587, Note_on_c, 2, 59, 0
2, 33587, Note_on_c, 2, 62, 0
2, 33840, Note_on_c, 2, 59, 80
2, 33840, Note_on_c, 2, 62, 80
2, 34067, Note_on_c, 2, 59, 0
2, 34067, Note_on_c, 2, 62, 0
2, 34320, Note_on_c, 2, 59, 80
2, 34547, Note_on_c, 2, 59, 0
2, 34560, Note_on_c, 2, 59, 80
2, 34560, Note_on_c, 2, 67, 80
2, 35015, Note_on_c, 2, 59, 0
2, 35015, Note_on_c, 2, 67, 0
2, 35040, Note_on_c, 2, 59, 80
2, 35040, Note_on_c, 2, 67, 80
2, 35267, Note_on_c, 2, 59, 0
2, 35267, Note_on_c, 2, 67, 0
2, 35280, Note_on_c, 2, 59, 80
2, 35280, Note_on_c, 2, 62, 80
2, 35507, Note_on_c, 2, 59, 0
2, 35507, Note_on_c, 2, 62, 0
2, 35760, Note_on_c, 2, 59, 80
2, 35760, Note_on_c, 2, 62, 80
2, 35987, Note_on_c, 2, 59, 0
2, 35987, Note_on_c, 2, 62, 0
2, 36240, Note_on_c, 2, 60, 80
2, 36467, Note_on_c, 2, 60, 0
2, 36480, Note_on_c, 2, 59, 80
2, 36935, Note_on_c, 2, 59, 0
2, 36960, Note_on_c, 2, 60, 80
2, 37187, Note_on_c, 2, 60, 0
2, 37200, Note_on_c, 2, 59, 80
2, 37200, Note_on_c, 2, 62, 80
2, 37427, Note_on_c, 2, 59, 0
2, 37427, Note_on_c, 2, 62, 0
2, 37680, Note_on_c, 2, 59, 80
2, 37680, Note_on_c, 2, 62, 80
2, 37907, Note_on_c, 2, 59, 0
2, 37907, Note_on_c, 2, 62, 0
2, 38160, Note_on_c, 2, 59, 80
2, 38387, Note_on_c, 2, 59, 0
2, 38400, Note_on_c, 2, 59, 80
2, 38400, Note_on_c, 2, 67, 80
2, 38855, Note_on_c, 2, 59, 0
2, 38855, Note_on_c, 2, 67, 0
2, 38880, Note_on_c, 2, 59, 80
2, 38880, Note_on_c, 2, 67, 80
2, 39107, Note_on_c, 2, 59, 0
2, 39107, Note_on_c, 2, 67, 0
2, 39120, Note_on_c, 2, 59, 80
2, 39120, Note_on_c, 2, 62, 80
2, 39347, Note_on_c, 2, 59, 0
2, 39347, Note_on_c, 2, 62, 0
2, 39600, Note_on_c, 2, 59, 80
2, 39600, Note_on_c, 2, 62, 80
2, 39827, Note_on_c, 2, 59, 0
2, 39827, Note_on_c, 2, 62, 0
2, 40080, Note_on_c, 2, 60, 80
2, 40307, Note_on_c, 2, 60, 0
2, 40320, Note_on_c, 2, 59, 80
2, 40775, Note_on_c, 2, 59, 0
2, 40800, Note_on_c, 2, 60, 80
2, 41027, Note_on_c, 2, 60, 0
2, 41040, Note_on_c, 2, 59, 80
2, 41040, Note_on_c, 2, 62, 80
2, 41267, Note_on_c, 2, 59, 0
2, 41267, Note_on_c, 2, 62, 0
2, 41520, Note_on_c, 2, 59, 80
2, 41520, Note_on_c, 2, 62, 80
2, 41747, Note_on_c, 2, 59, 0
2, 41747, Note_on_c, 2, 62, 0
2, 42000, Note_on_c, 2, 59, 80
2, 42227, Note_on_c, 2, 59, 0
2, 42240, Note_on_c, 2, 59, 80
2, 42240, Note_on_c, 2, 67, 80
2, 42695, Note_on_c, 2, 59, 0
2, 42695, Note_on_c, 2, 67, 0
2, 42720, Note_on_c, 2, 59, 80
2, 42720, Note_on_c, 2, 67, 80
2, 42947, Note_on_c, 2, 59, 0
2, 42947, Note_on_c, 2, 67, 0
2, 42960, Note_on_c, 2, 59, 80
2, 42960, Note_on_c, 2, 62, 80
2, 43187, Note_on_c, 2, 59, 0
2, 43187, Note_on_c, 2, 62, 0
2, 43440, Note_on_c, 2, 59, 80
2, 43440, Note_on_c, 2, 62, 80
2, 43667, Note_on_c, 2, 59, 0
2, 43667, Note_on_c, 2, 62, 0
2, 43920, Note_on_c, 2, 60, 80
2, 44147, Note_on_c, 2, 60, 0
2, 44160, Note_on_c, 2, 59, 80
2, 44615, Note_on_c, 2, 59, 0
2, 44640, Note_on_c, 2, 60, 80
2, 44867, Note_on_c, 2, 60, 0
2, 44880, Note_on_c, 2, 59, 80
2, 44880, Note_on_c, 2, 62, 80
2, 45107, Note_on_c, 2, 59, 0
2, 45107, Note_on_c, 2, 62, 0
2, 45360, Note_on_c, 2, 59, 80
2, 45360, Note_on_c, 2, 62, 80
2, 45587, Note_on_c, 2, 59, 0
2, 45587, Note_on_c, 2, 62, 0
2, 45840, Note_on_c, 2, 59, 80
2, 46067, Note_on_c, 2, 59, 0
2, 46080, Note_on_c, 2, 59, 80
2, 46080, Note_on_c, 2, 67, 80
2, 46535, Note_on_c, 2, 59, 0
2, 46535, Note_on_c, 2, 67, 0
2, 46560, Note_on_c, 2, 59, 80
2, 46560, Note_on_c, 2, 67, 80
2, 46787, Note_on_c, 2, 59, 0
2, 46787, Note_on_c, 2, 67, 0
2, 46800, Note_on_c, 2, 59, 80
2, 46800, Note_on_c, 2, 62, 80
2, 47027, Note_on_c, 2, 59, 0
2, 47027, Note_on_c, 2, 62, 0
2, 47280, Note_on_c, 2, 59, 80
2, 47280, Note_on_c, 2, 62, 80
2, 47507, Note_on_c, 2, 59, 0
2, 47507, Note_on_c, 2, 62, 0
2, 47520, Note_on_c, 2, 59, 80
2, 47520, Note_on_c, 2, 67, 80
2, 47747, Note_on_c, 2, 59, 0
2, 47747, Note_on_c, 2, 67, 0
2, 47760, Note_on_c, 2, 60, 80
2, 47987, Note_on_c, 2, 60, 0
2, 48000, Note_on_c, 2, 59, 80
2, 48455, Note_on_c, 2, 59, 0
2, 48480, Note_on_c, 2, 60, 80
2, 48707, Note_on_c, 2, 60, 0
2, 48720, Note_on_c, 2, 59, 80
2, 48720, Note_on_c, 2, 62, 80
2, 48947, Note_on_c, 2, 59, 0
2, 48947, Note_on_c, 2, 62, 0
2, 49200, Note_on_c, 2, 59, 80
2, 49200, Note_on_c, 2, 62, 80
2, 49427, Note_on_c, 2, 59, 0
2, 49427, Note_on_c, 2, 62, 0
2, 49440, Note_on_c, 2, 59, 80
2, 49440, Note_on_c, 2, 67, 80
2, 49667, Note_on_c, 2, 59, 0
2, 49667, Note_on_c, 2, 67, 0
2, 49680, Note_on_c, 2, 59, 80
2, 49907, Note_on_c, 2, 59, 0
2, 49920, Note_on_c, 2, 59, 80
2, 49920, Note_on_c, 2, 67, 80
2, 50375, Note_on_c, 2, 59, 0
2, 50375, Note_on_c, 2, 67, 0
2, 50400, Note_on_c, 2, 59, 80
2, 50400, Note_on_c, 2, 67, 80
2, 50627, Note_on_c, 2, 59, 0
2, 50627, Note_on_c, 2, 67, 0
2, 50640, Note_on_c, 2, 59, 80
2, 50640, Note_on_c, 2, 62, 80
2, 50867, Note_on_c, 2, 59, 0
2, 50867, Note_on_c, 2, 62, 0
2, 51120, Note_on_c, 2, 59, 80
2, 51120, Note_on_c, 2, 62, 80
2, 51347, Note_on_c, 2, 59, 0
2, 51347, Note_on_c, 2, 62, 0
2, 51360, Note_on_c, 2, 59, 80
2, 51360, Note_on_c, 2, 67, 80
2, 51587, Note_on_c, 2, 59, 0
2, 51587, Note_on_c, 2, 67, 0
2, 51600, Note_on_c, 2, 60, 80
2, 51827, Note_on_c, 2, 60, 0
2, 51840, Note_on_c, 2, 59, 80
2, 52295, Note_on_c, 2, 59, 0
2, 52320, Note_on_c, 2, 60, 80
2, 52547, Note_on_c, 2, 60, 0
2, 52560, Note_on_c, 2, 59, 80
2, 52560, Note_on_c, 2, 62, 80
2, 52787, Note_on_c, 2, 59, 0
2, 52787, Note_on_c, 2, 62, 0
2, 53040, Note_on_c, 2, 59, 80
2, 53040, Note_on_c, 2, 62, 80
2, 53267, Note_on_c, 2, 59, 0
2, 53267, Note_on_c, 2, 62, 0
2, 53280, Note_on_c, 2, 59, 80
2, 53280, Note_on_c, 2, 67, 80
2, 53507, Note_on_c, 2, 59, 0
2, 53507, Note_on_c, 2, 67, 0
2, 53520, Note_on_c, 2, 59, 80
2, 53747, Note_on_c, 2, 59, 0
2, 53760, Note_on_c, 2, 59, 80
2, 53760, Note_on_c, 2, 67, 80
2, 54215, Note_on_c, 2, 59, 0
2, 54215, Note_on_c, 2, 67, 0
2, 54240, Note_on_c, 2, 59, 80
2, 54240, Note_on_c, 2, 67, 80
2, 54467, Note_on_c, 2, 59, 0
2, 54467, Note_on_c, 2, 67, 0
2, 54480, Note_on_c, 2, 59, 80
2, 54480, Note_on_c, 2, 62, 80
2, 54707, Note_on_c, 2, 59, 0
2, 54707, Note_on_c, 2, 62, 0
2, 54960, Note_on_c, 2, 59, 80
2, 54960, Note_on_c, 2, 62, 80
2, 55187, Note_on_c, 2, 59, 0
2, 55187, Note_on_c, 2, 62, 0
2, 55200, Note_on_c, 2, 59, 80
2, 55200, Note_on_c, 2, 67, 80
2, 55427, Note_on_c, 2, 59, 0
2, 55427, Note_on_c, 2, 67, 0
2, 55440, Note_on_c, 2, 60, 80
2, 55667, Note_on_c, 2, 60, 0
2, 55680, Note_on_c, 2, 59, 80
2, 56135, Note_on_c, 2, 59, 0
2, 56160, Note_on_c, 2, 60, 80
2, 56387, Note_on_c, 2, 60, 0
2, 56400, Note_on_c, 2, 59, 80
2, 56400, Note_on_c, 2, 62, 80
2, 56627, Note_on_c, 2, 59, 0
2, 56627, Note_on_c, 2, 62, 0
2, 56880, Note_on_c, 2, 59, 80
2, 56880, Note_on_c, 2, 62, 80
2, 57107, Note_on_c, 2, 59, 0
2, 57107, Note_on_c, 2, 62, 0
2, 57120, Note_on_c, 2, 59, 80
2, 57120, Note_on_c, 2, 67, 80
2, 57347, Note_on_c, 2, 59, 0
2, 57347, Note_on_c, 2, 67, 0
2, 57360, Note_on_c, 2, 59, 80
2, 57587, Note_on_c, 2, 59, 0
2, 57600, Note_on_c, 2, 59, 80
2, 57600, Note_on_c, 2, 67, 80
2, 58055, Note_on_c, 2, 59, 0
2, 58055, Note_on_c, 2, 67, 0
2, 58080, Note_on_c, 2, 59, 80
2, 58080, Note_on_c, 2, 67, 80
2, 58307, Note_on_c, 2, 59, 0
2, 58307, Note_on_c, 2, 67, 0
2, 58320, Note_on_c, 2, 59, 80
2, 58320, Note_on_c, 2, 62, 80
2, 58547, Note_on_c, 2, 59, 0
2, 58547, Note_on_c, 2, 62, 0
2, 58800, Note_on_c, 2, 59, 80
2, 58800, Note_on_c, 2, 62, 80
2, 59027, Note_on_c, 2, 59, 0
2, 59027, Note_on_c, 2, 62, 0
2, 59040, Note_on_c, 2, 59, 80
2, 59040, Note_on_c, 2, 67, 80
2, 59267, Note_on_c, 2, 59, 0
2, 59267, Note_on_c, 2, 67, 0
2, 59280, Note_on_c, 2, 60, 80
2, 59507, Note_on_c, 2, 60, 0
2, 59520, Note_on_c, 2, 59, 80
2, 59975, Note_on_c, 2, 59, 0
2, 60000, Note_on_c, 2, 60, 80
2, 60227, Note_on_c, 2, 60, 0
2, 60240, Note_on_c, 2, 59, 80
2, 60240, Note_on_c, 2, 62, 80
2, 60467, Note_on_c, 2, 59, 0
2, 60467, Note_on_c, 2, 62, 0
2, 60720, Note_on_c, 2, 59, 80
2, 60720, Note_on_c, 2, 62, 80
2, 60947, Note_on_c, 2, 59, 0
2, 60947, Note_on_c, 2, 62, 0
2, 60960, Note_on_c, 2, 59, 80
2, 60960, Note_on_c, 2, 67, 80
2, 61187, Note_on_c, 2, 59, 0
2, 61187, Note_on_c, 2, 67, 0
2, 61200, Note_on_c, 2, 59, 80
2, 61427, Note_on_c, 2, 59, 0
2, 61440, Note_on_c, 2, 59, 80
2, 61440, Note_on_c, 2, 67, 80
2, 61895, Note_on_c, 2, 59, 0
2, 61895, Note_on_c, 2, 67, 0
2, 61920, Note_on_c, 2, 59, 80
2, 61920, Note_on_c, 2, 67, 80
2, 62147, Note_on_c, 2, 59, 0
2, 62147, Note_on_c, 2, 67, 0
2, 62160, Note_on_c, 2, 59, 80
2, 62160, Note_on_c, 2, 62, 80
2, 62387, Note_on_c, 2, 59, 0
2, 62387, Note_on_c, 2, 62, 0
2, 62640, Note_on_c, 2, 59, 80
2, 62640, Note_on_c, 2, 62, 80
2, 62867, Note_on_c, 2, 59, 0
2, 62867, Note_on_c, 2, 62, 0
2, 62880, Note_on_c, 2, 59, 80
2, 62880, Note_on_c, 2, 67, 80
2, 63107, Note_on_c, 2, 59, 0
2, 63107, Note_on_c, 2, 67, 0
2, 63120, Note_on_c, 2, 60, 80
2, 63347, Note_on_c, 2, 60, 0
2, 63360, Note_on_c, 2, 59, 80
2, 63815, Note_on_c, 2, 59, 0
2, 63840, Note_on_c, 2, 60, 80
2, 64067, Note_on_c, 2, 60, 0
2, 64080, Note_on_c, 2, 59, 80
2, 64080, Note_on_c, 2, 62, 80
2, 64307, Note_on_c, 2, 59, 0
2, 64307, Note_on_c, 2, 62, 0
2, 64560, Note_on_c, 2, 59, 80
2, 64560, Note_on_c, 2, 62, 80
2, 64787, Note_on_c, 2, 59, 0
2, 64787, Note_on_c, 2, 62, 0
2, 64800, Note_on_c, 2, 59, 80
2, 64800, Note_on_c, 2, 67, 80
2, 65027, Note_on_c, 2, 59, 0
2, 65027, Note_on_c, 2, 67, 0
2, 65040, Note_on_c, 2, 59, 80
2, 65267, Note_on_c, 2, 59, 0
2, 65280, Note_on_c, 2, 59, 80
2, 65280, Note_on_c, 2, 67, 80
2, 65735, Note_on_c, 2, 59, 0
2, 65735, Note_on_c, 2, 67, 0
2, 65760, Note_on_c, 2, 59, 80
2, 65760, Note_on_c, 2, 67, 80
2, 65987, Note_on_c, 2, 59, 0
2, 65987, Note_on_c, 2, 67, 0
2, 66000, Note_on_c, 2, 59, 80
2, 66000, Note_on_c, 2, 62, 80
2, 66227, Note_on_c, 2, 59, 0
2, 66227, Note_on_c, 2, 62, 0
2, 66480, Note_on_c, 2, 59, 80
2, 66480, Note_on_c, 2, 62, 80
2, 66707, Note_on_c, 2, 59, 0
2, 66707, Note_on_c, 2, 62, 0
2, 66720, Note_on_c, 2, 59, 80
2, 66720, Note_on_c, 2, 67, 80
2, 66947, Note_on_c, 2, 59, 0
2, 66947, Note_on_c, 2, 67, 0
2, 66960, Note_on_c, 2, 60, 80
2, 67187, Note_on_c, 2, 60, 0
2, 67200, Note_on_c, 2, 59, 80
2, 67655, Note_on_c, 2, 59, 0
2, 67680, Note_on_c, 2, 60, 80
2, 67907, Note_on_c, 2, 60, 0
2, 67920, Note_on_c, 2, 59, 80
2, 67920, Note_on_c, 2, 62, 80
2, 68147, Note_on_c, 2, 59, 0
2, 68147, Note_on_c, 2, 62, 0
2, 68400, Note_on_c, 2, 59, 80
2, 68400, Note_on_c, 2, 62, 80
2, 68627, Note_on_c, 2, 59, 0
2, 68627, Note_on_c, 2, 62, 0
2, 68640, Note_on_c, 2, 59, 80
2, 68640, Note_on_c, 2, 67, 80
2, 68867, Note_on_c, 2, 59, 0
2, 68867, Note_on_c, 2, 67, 0
2, 68880, Note_on_c, 2, 59, 80
2, 69107, Note_on_c, 2, 59, 0
2, 69120, Note_on_c, 2, 59, 80
2, 69120, Note_on_c, 2, 67, 80
2, 69575, Note_on_c, 2, 59, 0
2, 69575, Note_on_c, 2, 67, 0
2, 69600, Note_on_c, 2, 59, 80
2, 69600, Note_on_c, 2, 67, 80
2, 69827, Note_on_c, 2, 59, 0
2, 69827, Note_on_c, 2, 67, 0
2, 69840, Note_on_c, 2, 59, 80
2, 69840, Note_on_c, 2, 62, 80
2, 70067, Note_on_c, 2, 59, 0
2, 70067, Note_on_c, 2, 62, 0
2, 70320, Note_on_c, 2, 59, 80
2, 70320, Note_on_c, 2, 62, 80
2, 70547, Note_on_c, 2, 59, 0
2, 70547, Note_on_c, 2, 62, 0
2, 70560, Note_on_c, 2, 59, 80
2, 70560, Note_on_c, 2, 67, 80
2, 70787, Note_on_c, 2, 59, 0
2, 70787, Note_on_c, 2, 67, 0
2, 70800, Note_on_c, 2, 60, 80
2, 71027, Note_on_c, 2, 60, 0
2, 71040, Note_on_c, 2, 59, 80
2, 71495, Note_on_c, 2, 59, 0
2, 71520, Note_on_c, 2, 60, 80
2, 71747, Note_on_c, 2, 60, 0
2, 71760, Note_on_c, 2, 59, 80
2, 71760, Note_on_c, 2, 62, 80
2, 71987, Note_on_c, 2, 59, 0
2, 71987, Note_on_c, 2, 62, 0
2, 72240, Note_on_c, 2, 59, 80
2, 72240, Note_on_c, 2, 62, 80
2, 72467, Note_on_c, 2, 59, 0
2, 72467, Note_on_c, 2, 62, 0
2, 72480, Note_on_c, 2, 59, 80
2, 72480, Note_on_c, 2, 67, 80
2, 72707, Note_on_c, 2, 59, 0
2, 72707, Note_on_c, 2, 67, 0
2, 72720, Note_on_c, 2, 59, 80
2, 72947, Note_on_c, 2, 59, 0
2, 72960, Note_on_c, 2, 59, 80
2, 72960, Note_on_c, 2, 67, 80
2, 73415, Note_on_c, 2, 59, 0
2, 73415, Note_on_c, 2, 67, 0
2, 73440, Note_on_c, 2, 59, 80
2, 73440, Note_on_c, 2, 67, 80
2, 73667, Note_on_c, 2, 59, 0
2, 73667, Note_on_c, 2, 67, 0
2, 73680, Note_on_c, 2, 59, 80
2, 73680, Note_on_c, 2, 62, 80
2, 73907, Note_on_c, 2, 59, 0
2, 73907, Note_on_c, 2, 62, 0
2, 74160, Note_on_c, 2, 59, 80
2, 74160, Note_on_c, 2, 62, 80
2, 74387, Note_on_c, 2, 59, 0
2, 74387, Note_on_c, 2, 62, 0
2, 74400, Note_on_c, 2, 59, 80
2, 74400, Note_on_c, 2, 67, 80
2, 74627, Note_on_c, 2, 59, 0
2, 74627, Note_on_c, 2, 67, 0
2, 74640, Note_on_c, 2, 60, 80
2, 74867, Note_on_c, 2, 60, 0
2, 74880, Note_on_c, 2, 59, 80
2, 75335, Note_on_c, 2, 59, 0
2, 75360, Note_on_c, 2, 60, 80
2, 75587, Note_on_c, 2, 60, 0
2, 75600, Note_on_c, 2, 59, 80
2, 75600, Note_on_c, 2, 62, 80
2, 75827, Note_on_c, 2, 59, 0
2, 75827, Note_on_c, 2, 62, 0
2, 76080, Note_on_c, 2, 59, 80
2, 76080, Note_on_c, 2, 62, 80
2, 76307, Note_on_c, 2, 59, 0
2, 76307, Note_on_c, 2, 62, 0
2, 76320, Note_on_c, 2, 59, 80
2, 76320, Note_on_c, 2, 67, 80
2, 76547, Note_on_c, 2, 59, 0
2, 76547, Note_on_c, 2, 67, 0
2, 76560, Note_on_c, 2, 59, 80
2, 76787, Note_on_c, 2, 59, 0
2, 76800, Note_on_c, 2, 59, 80
2, 76800, Note_on_c, 2, 67, 80
2, 77255, Note_on_c, 2, 59, 0
2, 77255, Note_on_c, 2, 67, 0
2, 77280, Note_on_c, 2, 59, 80
2, 77280, Note_on_c, 2, 67, 80
2, 77507, Note_on_c, 2, 59, 0
2, 77507, Note_on_c, 2, 67, 0
2, 77520, Note_on_c, 2, 59, 80
2, 77520, Note_on_c, 2, 62, 80
2, 77747, Note_on_c, 2, 59, 0
2, 77747, Note_on_c, 2, 62, 0
2, 78000, Note_on_c, 2, 59, 80
2, 78000, Note_on_c, 2, 62, 80
2, 78227, Note_on_c, 2, 59, 0
2, 78227, Note_on_c, 2, 62, 0
2, 78480, Note_on_c, 2, 60, 80
2, 78707, Note_on_c, 2, 60, 0
2, 78720, Note_on_c, 2, 59, 80
2, 79175, Note_on_c, 2, 59, 0
2, 79200, Note_on_c, 2, 60, 80
2, 79427, Note_on_c, 2, 60, 0
2, 79440, Note_on_c, 2, 59, 80
2, 79440, Note_on_c, 2, 62, 80
2, 79667, Note_on_c, 2, 59, 0
2, 79667, Note_on_c, 2, 62, 0
2, 79920, Note_on_c, 2, 59, 80
2, 79920, Note_on_c, 2, 62, 80
2, 80147, Note_on_c, 2, 59, 0
2, 80147, Note_on_c, 2, 62, 0
2, 80400, Note_on_c, 2, 59, 80
2, 80627, Note_on_c, 2, 59, 0
2, 80640, Note_on_c, 2, 59, 80
2, 80640, Note_on_c, 2, 67, 80
2, 81095, Note_on_c, 2, 59, 0
2, 81095, Note_on_c, 2, 67, 0
2, 81120, Note_on_c, 2, 59, 80
2, 81120, Note_on_c, 2, 67, 80
2, 81347, Note_on_c, 2, 59, 0
2, 81347, Note_on_c, 2, 67, 0
2, 81360, Note_on_c, 2, 59, 80
2, 81360, Note_on_c, 2, 62, 80
2, 81587, Note_on_c, 2, 59, 0
2, 81587, Note_on_c, 2, 62, 0
2, 81840, Note_on_c, 2, 59, 80
2, 81840, Note_on_c, 2, 62, 80
2, 82067, Note_on_c, 2, 59, 0
2, 82067, Note_on_c, 2, 62, 0
2, 82320, Note_on_c, 2, 60, 80
2, 82547, Note_on_c, 2, 60, 0
2, 82560, Note_on_c, 2, 59, 80
2, 83015, Note_on_c, 2, 59, 0
2, 83040, Note_on_c, 2, 60, 80
2, 83267, Note_on_c, 2, 60, 0
2, 83280, Note_on_c, 2, 59, 80
2, 83280, Note_on_c, 2, 62, 80
2, 83507, Note_on_c, 2, 59, 0
2, 83507, Note_on_c, 2, 62, 0
2, 83760, Note_on_c, 2, 59, 80
2, 83760, Note_on_c, 2, 62, 80
2, 83987, Note_on_c, 2, 59, 0
2, 83987, Note_on_c, 2, 62, 0
2, 84240, Note_on_c, 2, 59, 80
2, 84467, Note_on_c, 2, 59, 0
2, 84480, Note_on_c, 2, 59, 80
2, 84480, Note_on_c, 2, 67, 80
2, 84935, Note_on_c, 2, 59, 0
2, 84935, Note_on_c, 2, 67, 0
2, 84960, Note_on_c, 2, 59, 80
2, 84960, Note_on_c, 2, 67, 80
2, 85187, Note_on_c, 2, 59, 0
2, 85187, Note_on_c, 2, 67, 0
2, 85200, Note_on_c, 2, 59, 80
2, 85200, Note_on_c, 2, 62, 80
2, 85427, Note_on_c, 2, 59, 0
2, 85427, Note_on_c, 2, 62, 0
2, 85680, Note_on_c, 2, 59, 80
2, 85680, Note_on_c, 2, 62, 80
2, 85907, Note_on_c, 2, 59, 0
2, 85907, Note_on_c, 2, 62, 0
2, 86160, Note_on_c, 2, 60, 80
2, 86387, Note_on_c, 2, 60, 0
2, 86400, Note_on_c, 2, 59, 80
2, 86855, Note_on_c, 2, 59, 0
2, 86880, Note_on_c, 2, 60, 80
2, 87107, Note_on_c, 2, 60, 0
2, 87120, Note_on_c, 2, 59, 80
2, 87120, Note_on_c, 2, 62, 80
2, 87347, Note_on_c, 2, 59, 0
2, 87347, Note_on_c, 2, 62, 0
2, 87600, Note_on_c, 2, 59, 80
2, 87600, Note_on_c, 2, 62, 80
2, 87827, Note_on_c, 2, 59, 0
2, 87827, Note_on_c, 2, 62, 0
2, 88080, Note_on_c, 2, 59, 80
2, 88307, Note_on_c, 2, 59, 0
2, 88320, Note_on_c, 2, 59, 80
2, 88320, Note_on_c, 2, 67, 80
2, 88775, Note_on_c, 2, 59, 0
2, 88775, Note_on_c, 2, 67, 0
2, 88800, Note_on_c, 2, 59, 80
2, 88800, Note_on_c, 2, 67, 80
2, 89027, Note_on_c, 2, 59, 0
2, 89027, Note_on_c, 2, 67, 0
2, 89040, Note_on_c, 2, 59, 80
2, 89040, Note_on_c, 2, 62, 80
2, 89267, Note_on_c, 2, 59, 0
2, 89267, Note_on_c, 2, 62, 0
2, 89520, Note_on_c, 2, 59, 80
2, 89520, Note_on_c, 2, 62, 80
2, 89747, Note_on_c, 2, 59, 0
2, 89747, Note_on_c, 2, 62, 0
2, 90000, Note_on_c, 2, 60, 80
2, 90227, Note_on_c, 2, 60, 0
2, 90240, Note_on_c, 2, 59, 80
2, 90695, Note_on_c, 2, 59, 0
2, 90720, Note_on_c, 2, 60, 80
2, 90947, Note_on_c, 2, 60, 0
2, 90960, Note_on_c, 2, 59, 80
2, 90960, Note_on_c, 2, 62, 80
2, 91187, Note_on_c, 2, 59, 0
2, 91187, Note_on_c, 2, 62, 0
2, 91440, Note_on_c, 2, 59, 80
2, 91440, Note_on_c, 2, 62, 80
2, 91667, Note_on_c, 2, 59, 0
2, 91667, Note_on_c, 2, 62, 0
2, 91920, Note_on_c, 2, 59, 80
2, 91920, Note_on_c, 2, 62, 80
2, 92147, Note_on_c, 2, 59, 0
2, 92147, Note_on_c, 2, 62, 0
2, 92160, Note_on_c, 2, 52, 80
2, 92160, Note_on_c, 2, 60, 80
2, 92615, Note_on_c, 2, 52, 0
2, 92615, Note_on_c, 2, 60, 0
2, 92640, Note_on_c, 2, 52, 80
2, 92640, Note_on_c, 2, 60, 80
2, 92867, Note_on_c, 2, 52, 0
2, 92867, Note_on_c, 2, 60, 0
2, 92880, Note_on_c, 2, 52, 80
2, 92880, Note_on_c, 2, 55, 80
2, 93107, Note_on_c, 2, 52, 0
2, 93107, Note_on_c, 2, 55, 0
2, 93360, Note_on_c, 2, 52, 80
2, 93360, Note_on_c, 2, 55, 80
2, 93587, Note_on_c, 2, 52, 0
2, 93587, Note_on_c, 2, 55, 0
2, 93840, Note_on_c, 2, 53, 80
2, 94067, Note_on_c, 2, 53, 0
2, 94080, Note_on_c, 2, 52, 80
2, 94535, Note_on_c, 2, 52, 0
2, 94560, Note_on_c, 2, 53, 80
2, 94787, Note_on_c, 2, 53, 0
2, 94800, Note_on_c, 2, 52, 80
2, 94800, Note_on_c, 2, 55, 80
2, 95027, Note_on_c, 2, 52, 0
2, 95027, Note_on_c, 2, 55, 0
2, 95280, Note_on_c, 2, 52, 80
2, 95280, Note_on_c, 2, 55, 80
2, 95507, Note_on_c, 2, 52, 0
2, 95507, Note_on_c, 2, 55, 0
2, 95760, Note_on_c, 2, 52, 80
2, 95987, Note_on_c, 2, 52, 0
2, 96000, Note_on_c, 2, 52, 80
2, 96000, Note_on_c, 2, 60, 80
2, 96455, Note_on_c, 2, 52, 0
2, 96455, Note_on_c, 2, 60, 0
2, 96480, Note_on_c, 2, 52, 80
2, 96480, Note_on_c, 2, 60, 80
2, 96707, Note_on_c, 2, 52, 0
2, 96707, Note_on_c, 2, 60, 0
2, 96720, Note_on_c, 2, 52, 80
2, 96720, Note_on_c, 2, 55, 80
2, 96947, Note_on_c, 2, 52, 0
2, 96947, Note_on_c, 2, 55, 0
2, 97200, Note_on_c, 2, 52, 80
2, 97200, Note_on_c, 2, 55, 80
2, 97427, Note_on_c, 2, 52, 0
2, 97427, Note_on_c, 2, 55, 0
2, 97680, Note_on_c, 2, 53, 80
2, 97907, Note_on_c, 2, 53, 0
2, 97920, Note_on_c, 2, 52, 80
2, 98375, Note_on_c, 2, 52, 0
2, 98400, Note_on_c, 2, 53, 80
2, 98627, Note_on_c, 2, 53, 0
2, 98640, Note_on_c, 2, 52, 80
2, 98640, Note_on_c, 2, 55, 80
2, 98867, Note_on_c, 2, 52, 0
2, 98867, Note_on_c, 2, 55, 0
2, 99120, Note_on_c, 2, 52, 80
2, 99120, Note_on_c, 2, 55, 80
2, 99347, Note_on_c, 2, 52, 0
2, 99347, Note_on_c, 2, 55, 0
2, 99600, Note_on_c, 2, 52, 80
2, 99827, Note_on_c, 2, 52, 0
2, 99840, Note_on_c, 2, 52, 80
2, 99840, Note_on_c, 2, 60, 80
2, 100295, Note_on_c, 2, 52, 0
2, 100295, Note_on_c, 2, 60, 0
2, 100320, Note_on_c, 2, 52, 80
2, 100320, Note_on_c, 2, 60, 80
2, 100547, Note_on_c, 2, 52, 0
2, 100547, Note_on_c, 2, 60, 0
2, 100560, Note_on_c, 2, 52, 80
2, 100560, Note_on_c, 2, 55, 80
2, 100787, Note_on_c, 2, 52, 0
2, 100787, Note_on_c, 2, 55, 0
2, 101040, Note_on_c, 2, 52, 80
2, 101040, Note_on_c, 2, 55, 80
2, 101267, Note_on_c, 2, 52, 0
2, 101267, Note_on_c, 2, 55, 0
2, 101520, Note_on_c, 2, 53, 80
2, 101747, Note_on_c, 2, 53, 0
2, 101760, Note_on_c, 2, 52, 80
2, 102215, Note_on_c, 2, 52, 0
2, 102240, Note_on_c, 2, 53, 80
2, 102467, Note_on_c, 2, 53, 0
2, 102480, Note_on_c, 2, 52, 80
2, 102480, Note_on_c, 2, 55, 80
2, 102707, Note_on_c, 2, 52, 0
2, 102707, Note_on_c, 2, 55, 0
2, 102960, Note_on_c, 2, 52, 80
2, 102960, Note_on_c, 2, 55, 80
2, 103187, Note_on_c, 2, 52, 0
2, 103187, Note_on_c, 2, 55, 0
2, 103440, Note_on_c, 2, 52, 80
2, 103667, Note_on_c, 2, 52, 0
2, 103680, Note_on_c, 2, 52, 80
2, 103680, Note_on_c, 2, 60, 80
2, 104135, Note_on_c, 2, 52, 0
2, 104135, Note_on_c, 2, 60, 0
2, 104160, Note_on_c, 2, 52, 80
2, 104160, Note_on_c, 2, 60, 80
2, 104387, Note_on_c, 2, 52, 0
2, 104387, Note_on_c, 2, 60, 0
2, 104400, Note_on_c, 2, 52, 80
2, 104400, Note_on_c, 2, 55, 80
2, 104627, Note_on_c, 2, 52, 0
2, 104627, Note_on_c, 2, 55, 0
2, 104880, Note_on_c, 2, 52, 80
2, 104880, Note_on_c, 2, 55, 80
2, 105107, Note_on_c, 2, 52, 0
2, 105107, Note_on_c, 2, 55, 0
2, 105360, Note_on_c, 2, 53, 80
2, 105587, Note_on_c, 2, 53, 0
2, 105600, Note_on_c, 2, 52, 80
2, 106055, Note_on_c, 2, 52, 0
2, 106080, Note_on_c, 2, 53, 80
2, 106307, Note_on_c, 2, 53, 0
2, 106320, Note_on_c, 2, 52, 80
2, 106320, Note_on_c, 2, 55, 80
2, 106547, Note_on_c, 2, 52, 0
2, 106547, Note_on_c, 2, 55, 0
2, 106800, Note_on_c, 2, 52, 80
2, 106800, Note_on_c, 2, 55, 80
2, 107027, Note_on_c, 2, 52, 0
2, 107027, Note_on_c, 2, 55, 0
2, 107280, Note_on_c, 2, 52, 80
2, 107507, Note_on_c, 2, 52, 0
2, 107520, Note_on_c, 2, 52, 80
2, 107520, Note_on_c, 2, 60, 80
2, 107975, Note_on_c, 2, 52, 0
2, 107975, Note_on_c, 2, 60, 0
2, 108000, Note_on_c, 2, 52, 80
2, 108000, Note_on_c, 2, 60, 80
2, 108227, Note_on_c, 2, 52, 0
2, 108227, Note_on_c, 2, 60, 0
2, 108240, Note_on_c, 2, 52, 80
2, 108240, Note_on_c, 2, 55, 80
2, 108467, Note_on_c, 2, 52, 0
2, 108467, Note_on_c, 2, 55, 0
2, 108720, Note_on_c, 2, 52, 80
2, 108720, Note_on_c, 2, 55, 80
2, 108947, Note_on_c, 2, 52, 0
2, 108947, Note_on_c, 2, 55, 0
2, 108960, Note_on_c, 2, 52, 80
2, 108960, Note_on_c, 2, 60, 80
2, 109187, Note_on_c, 2, 52, 0
2, 109187, Note_on_c, 2, 60, 0
2, 109200, Note_on_c, 2, 53, 80
2, 109427, Note_on_c, 2, 53, 0
2, 109440, Note_on_c, 2, 52, 80
2, 109895, Note_on_c, 2, 52, 0
2, 109920, Note_on_c, 2, 53, 80
2, 110147, Note_on_c, 2, 53, 0
2, 110160, Note_on_c, 2, 52, 80
2, 110160, Note_on_c, 2, 55, 80
2, 110387, Note_on_c, 2, 52, 0
2, 110387, Note_on_c, 2, 55, 0
2, 110640, Note_on_c, 2, 52, 80
2, 110640, Note_on_c, 2, 55, 80
2, 110867, Note_on_c, 2, 52, 0
2, 110867, Note_on_c, 2, 55, 0
2, 110880, Note_on_c, 2, 52, 80
2, 110880, Note_on_c, 2, 60, 80
2, 111107, Note_on_c, 2, 52, 0
2, 111107, Note_on_c, 2, 60, 0
2, 111120, Note_on_c, 2, 52, 80
2, 111347, Note_on_c, 2, 52, 0
2, 111360, Note_on_c, 2, 52, 80
2, 111360, Note_on_c, 2, 60, 80
2, 111815, Note_on_c, 2, 52, 0
2, 111815, Note_on_c, 2, 60, 0
2, 111840, Note_on_c, 2, 52, 80
2, 111840, Note_on_c, 2, 60, 80
2, 112067, Note_on_c, 2, 52, 0
2, 112067, Note_on_c, 2, 60, 0
2, 112080, Note_on_c, 2, 52, 80
2, 112080, Note_on_c, 2, 55, 80
2, 112307, Note_on_c, 2, 52, 0
2, 112307, Note_on_c, 2, 55, 0
2, 112560, Note_on_c, 2, 52, 80
2, 112560, Note_on_c, 2, 55, 80
2, 112787, Note_on_c, 2, 52, 0
2, 112787, Note_on_c, 2, 55, 0
2, 112800, Note_on_c, 2, 52, 80
2, 112800, Note_on_c, 2, 60, 80
2, 113027, Note_on_c, 2, 52, 0
2, 113027, Note_on_c, 2, 60, 0
2, 113040, Note_on_c, 2, 53, 80
2, 113267, Note_on_c, 2, 53, 0
2, 113280, Note_on_c, 2, 52, 80
2, 113735, Note_on_c, 2, 52, 0
2, 113760, Note_on_c, 2, 53, 80
2, 113987, Note_on_c, 2, 53, 0
2, 114000, Note_on_c, 2, 52, 80
2, 114000, Note_on_c, 2, 55, 80
2, 114227, Note_on_c, 2, 52, 0
2, 114227, Note_on_c, 2, 55, 0
2, 114480, Note_on_c, 2, 52, 80
2, 114480, Note_on_c, 2, 55, 80
2, 114707, Note_on_c, 2, 52, 0
2, 114707, Note_on_c, 2, 55, 0
2, 114720, Note_on_c, 2, 52, 80
2, 114720, Note_on_c, 2, 60, 80
2, 114947, Note_on_c, 2, 52, 0
2, 114947, Note_on_c, 2, 60, 0
2, 114960, Note_on_c, 2, 52, 80
2, 115187, Note_on_c, 2, 52, 0
2, 115200, Note_on_c, 2, 52, 80
2, 115200, Note_on_c, 2, 60, 80
2, 115655, Note_on_c, 2, 52, 0
2, 115655, Note_on_c, 2, 60, 0
2, 115680, Note_on_c, 2, 52, 80
2, 115680, Note_on_c, 2, 60, 80
2, 115907, Note_on_c, 2, 52, 0
2, 115907, Note_on_c, 2, 60, 0
2, 115920, Note_on_c, 2, 52, 80
2, 115920, Note_on_c, 2, 55, 80
2, 116147, Note_on_c, 2, 52, 0
2, 116147, Note_on_c, 2, 55, 0
2, 116400, Note_on_c, 2, 52, 80
2, 116400, Note_on_c, 2, 55, 80
2, 116627, Note_on_c, 2, 52, 0
2, 116627, Note_on_c, 2, 55, 0
2, 116640, Note_on_c, 2, 52, 80
2, 116640, Note_on_c, 2, 60, 80
2, 116867, Note_on_c, 2, 52, 0
2, 116867, Note_on_c, 2, 60, 0
2, 116880, Note_on_c, 2, 53, 80
2, 117107, Note_on_c, 2, 53, 0
2, 117120, Note_on_c, 2, 52, 80
2, 117575, Note_on_c, 2, 52, 0
2, 117600, Note_on_c, 2, 53, 80
2, 117827, Note_on_c, 2, 53, 0
2, 117840, Note_on_c, 2, 52, 80
2, 117840, Note_on_c, 2, 55, 80
2, 118067, Note_on_c, 2, 52, 0
2, 118067, Note_on_c, 2, 55, 0
2, 118320, Note_on_c, 2, 52, 80
2, 118320, Note_on_c, 2, 55, 80
2, 118547, Note_on_c, 2, 52, 0
2, 118547, Note_on_c, 2, 55, 0
2, 118560, Note_on_c, 2, 52, 80
2, 118560, Note_on_c, 2, 60, 80
2, 118787, Note_on_c, 2, 52, 0
2, 118787, Note_on_c, 2, 60, 0
2, 118800, Note_on_c, 2, 52, 80
2, 119027, Note_on_c, 2, 52, 0
2, 119040, Note_on_c, 2, 52, 80
2, 119040, Note_on_c, 2, 60, 80
2, 119495, Note_on_c, 2, 52, 0
2, 119495, Note_on_c, 2, 60, 0
2, 119520, Note_on_c, 2, 52, 80
2, 119520, Note_on_c, 2, 60, 80
2, 119747, Note_on_c, 2, 52, 0
2, 119747, Note_on_c, 2, 60, 0
2, 119760, Note_on_c, 2, 52, 80
2, 119760, Note_on_c, 2, 55, 80
2, 119987, Note_on_c, 2, 52, 0
2, 119987, Note_on_c, 2, 55, 0
2, 120240, Note_on_c, 2, 52, 80
2, 120240, Note_on_c, 2, 55, 80
2, 120467, Note_on_c, 2, 52, 0
2, 120467, Note_on_c, 2, 55, 0
2, 120480, Note_on_c, 2, 52, 80
2, 120480, Note_on_c, 2, 60, 80
2, 120707, Note_on_c, 2, 52, 0
2, 120707, Note_on_c, 2, 60, 0
2, 120720, Note_on_c, 2, 53, 80
2, 120947, Note_on_c, 2, 53, 0
2, 120960, Note_on_c, 2, 52, 80
2, 121415, Note_on_c, 2, 52, 0
2, 121440, Note_on_c, 2, 53, 80
2, 121667, Note_on_c, 2, 53, 0
2, 121680, Note_on_c, 2, 52, 80
2, 121680, Note_on_c, 2, 55, 80
2, 121907, Note_on_c, 2, 52, 0
2, 121907, Note_on_c, 2, 55, 0
2, 122160, Note_on_c, 2, 52, 80
2, 122160, Note_on_c, 2, 55, 80
2, 122387, Note_on_c, 2, 52, 0
2, 122387, Note_on_c, 2, 55, 0
2, 122400, Note_on_c, 2, 52, 80
2, 122400, Note_on_c, 2, 60, 80
2, 122627, Note_on_c, 2, 52, 0
2, 122627, Note_on_c, 2, 60, 0
2, 122640, Note_on_c, 2, 52, 80
2, 122867, Note_on_c, 2, 52, 0
2, 122880, Note_on_c, 2, 52, 80
2, 122880, Note_on_c, 2, 60, 80
2, 123335, Note_on_c, 2, 52, 0
2, 123335, Note_on_c, 2, 60, 0
2, 123360, Note_on_c, 2, 52, 80
2, 123360, Note_on_c, 2, 60, 80
2, 123587, Note_on_c, 2, 52, 0
2, 123587, Note_on_c, 2, 60, 0
2, 123600, Note_on_c, 2, 52, 80
2, 123600, Note_on_c, 2, 55, 80
2, 123827, Note_on_c, 2, 52, 0
2, 123827, Note_on_c, 2, 55, 0
2, 124080, Note_on_c, 2, 52, 80
2, 124080, Note_on_c, 2, 55, 80
2, 124307, Note_on_c, 2, 52, 0
2, 124307, Note_on_c, 2, 55, 0
2, 124320, Note_on_c, 2, 52, 80
2, 124320, Note_on_c, 2, 60, 80
2, 124547, Note_on_c, 2, 52, 0
2, 124547, Note_on_c, 2, 60, 0
2, 124560, Note_on_c, 2, 53, 80
2, 124787, Note_on_c, 2, 53, 0
2, 124800, Note_on_c, 2, 52, 80
2, 125255, Note_on_c, 2, 52, 0
2, 125280, Note_on_c, 2, 53, 80
2, 125507, Note_on_c, 2, 53, 0
2, 125520, Note_on_c, 2, 52, 80
2, 125520, Note_on_c, 2, 55, 80
2, 125747, Note_on_c, 2, 52, 0
2, 125747, Note_on_c, 2, 55, 0
2, 126000, Note_on_c, 2, 52, 80
2, 126000, Note_on_c, 2, 55, 80
2, 126227, Note_on_c, 2, 52, 0
2, 126227, Note_on_c, 2, 55, 0
2, 126240, Note_on_c, 2, 52, 80
2, 126240, Note_on_c, 2, 60, 80
2, 126467, Note_on_c, 2, 52, 0
2, 126467, Note_on_c, 2, 60, 0
2, 126480, Note_on_c, 2, 52, 80
2, 126707, Note_on_c, 2, 52, 0
2, 126720, Note_on_c, 2, 52, 80
2, 126720, Note_on_c, 2, 60, 80
2, 127175, Note_on_c, 2, 52, 0
2, 127175, Note_on_c, 2, 60, 0
2, 127200, Note_on_c, 2, 52, 80
2, 127200, Note_on_c, 2, 60, 80
2, 127427, Note_on_c, 2, 52, 0
2, 127427, Note_on_c, 2, 60, 0
2, 127440, Note_on_c, 2, 52, 80
2, 127440, Note_on_c, 2, 55, 80
2, 127667, Note_on_c, 2, 52, 0
2, 127667, Note_on_c, 2, 55, 0
2, 127920, Note_on_c, 2, 52, 80
2, 127920, Note_on_c, 2, 55, 80
2, 128147, Note_on_c, 2, 52, 0
2, 128147, Note_on_c, 2, 55, 0
2, 128160, Note_on_c, 2, 52, 80
2, 128160, Note_on_c, 2, 60, 80
2, 128387, Note_on_c, 2, 52, 0
2, 128387, Note_on_c, 2, 60, 0
2, 128400, Note_on_c, 2, 53, 80
2, 128627, Note_on_c, 2, 53, 0
2, 128640, Note_on_c, 2, 52, 80
2, 129095, Note_on_c, 2, 52, 0
2, 129120, Note_on_c, 2, 53, 80
2, 129347, Note_on_c, 2, 53, 0
2, 129360, Note_on_c, 2, 52, 80
2, 129360, Note_on_c, 2, 55, 80
2, 129587, Note_on_c, 2, 52, 0
2, 129587, Note_on_c, 2, 55, 0
2, 129840, Note_on_c, 2, 52, 80
2, 129840, Note_on_c, 2, 55, 80
2, 130067, Note_on_c, 2, 52, 0
2, 130067, Note_on_c, 2, 55, 0
2, 130080, Note_on_c, 2, 52, 80
2, 130080, Note_on_c, 2, 60, 80
2, 130307, Note_on_c, 2, 52, 0
2, 130307, Note_on_c, 2, 60, 0
2, 130320, Note_on_c, 2, 52, 80
2, 130547, Note_on_c, 2, 52, 0
2, 130560, Note_on_c, 2, 52, 80
2, 130560, Note_on_c, 2, 60, 80
2, 131015, Note_on_c, 2, 52, 0
2, 131015, Note_on_c, 2, 60, 0
2, 131040, Note_on_c, 2, 52, 80
2, 131040, Note_on_c, 2, 60, 80
2, 131267, Note_on_c, 2, 52, 0
2, 131267, Note_on_c, 2, 60, 0
2, 131280, Note_on_c, 2, 52, 80
2, 131280, Note_on_c, 2, 55, 80
2, 131507, Note_on_c, 2, 52, 0
2, 131507, Note_on_c, 2, 55, 0
2, 131760, Note_on_c, 2, 52, 80
2, 131760, Note_on_c, 2, 55, 80
2, 131987, Note_on_c, 2, 52, 0
2, 131987, Note_on_c, 2, 55, 0
2, 132000, Note_on_c, 2, 52, 80
2, 132000, Note_on_c, 2, 60, 80
2, 132227, Note_on_c, 2, 52, 0
2, 132227, Note_on_c, 2, 60, 0
2, 132240, Note_on_c, 2, 53, 80
2, 132467, Note_on_c, 2, 53, 0
2, 132480, Note_on_c, 2, 52, 80
2, 132935, Note_on_c, 2, 52, 0
2, 132960, Note_on_c, 2, 53, 80
2, 133187, Note_on_c, 2, 53, 0
2, 133200, Note_on_c, 2, 52, 80
2, 133200, Note_on_c, 2, 55, 80
2, 133427, Note_on_c, 2, 52, 0
2, 133427, Note_on_c, 2, 55, 0
2, 133680, Note_on_c, 2, 52, 80
2, 133680, Note_on_c, 2, 55, 80
2, 133907, Note_on_c, 2, 52, 0
2, 133907, Note_on_c, 2, 55, 0
2, 133920, Note_on_c, 2, 52, 80
2, 133920, Note_on_c, 2, 60, 80
2, 134147, Note_on_c, 2, 52, 0
2, 134147, Note_on_c, 2, 60, 0
2, 134160, Note_on_c, 2, 52, 80
2, 134387, Note_on_c, 2, 52, 0
2, 134400, Note_on_c, 2, 52, 80
2, 134400, Note_on_c, 2, 60, 80
2, 134855, Note_on_c, 2, 52, 0
2, 134855, Note_on_c, 2, 60, 0
2, 134880, Note_on_c, 2, 52, 80
2, 134880, Note_on_c, 2, 60, 80
2, 135107, Note_on_c, 2, 52, 0
2, 135107, Note_on_c, 2, 60, 0
2, 135120, Note_on_c, 2, 52, 80
2, 135120, Note_on_c, 2, 55, 80
2, 135347, Note_on_c, 2, 52, 0
2, 135347, Note_on_c, 2, 55, 0
2, 135600, Note_on_c, 2, 52, 80
2, 135600, Note_on_c, 2, 55, 80
2, 135827, Note_on_c, 2, 52, 0
2, 135827, Note_on_c, 2, 55, 0
2, 135840, Note_on_c, 2, 52, 80
2, 135840, Note_on_c, 2, 60, 80
2, 136067, Note_on_c, 2, 52, 0
2, 136067, Note_on_c, 2, 60, 0
2, 136080, Note_on_c, 2, 53, 80
2, 136307, Note_on_c, 2, 53, 0
2, 136320, Note_on_c, 2, 52, 80
2, 136775, Note_on_c, 2, 52, 0
2, 136800, Note_on_c, 2, 53, 80
2, 137027, Note_on_c, 2, 53, 0
2, 137040, Note_on_c, 2, 52, 80
2, 137040, Note_on_c, 2, 55, 80
2, 137267, Note_on_c, 2, 52, 0
2, 137267, Note_on_c, 2, 55, 0
2, 137520, Note_on_c, 2, 52, 80
2, 137520, Note_on_c, 2, 55, 80
2, 137747, Note_on_c, 2, 52, 0
2, 137747, Note_on_c, 2, 55, 0
2, 137760, Note_on_c, 2, 52, 80
2, 137760, Note_on_c, 2, 60, 80
2, 137987, Note_on_c, 2, 52, 0
2, 137987, Note_on_c, 2, 60, 0
2, 138000, Note_on_c, 2, 52, 80
2, 138227, Note_on_c, 2, 52, 0
2, 138240, Note_on_c, 2, 52, 80
2, 138240, Note_on_c, 2, 60, 80
2, 138695, Note_on_c, 2, 52, 0
2, 138695, Note_on_c, 2, 60, 0
2, 138720, Note_on_c, 2, 52, 80
2, 138720, Note_on_c, 2, 60, 80
2, 138947, Note_on_c, 2, 52, 0
2, 138947, Note_on_c, 2, 60, 0
2, 138960, Note_on_c, 2, 52, 80
2, 138960, Note_on_c, 2, 55, 80
2, 139187, Note_on_c, 2, 52, 0
2, 139187, Note_on_c, 2, 55, 0
2, 139440, Note_on_c, 2, 52, 80
2, 139440, Note_on_c, 2, 55, 80
2, 139667, Note_on_c, 2, 52, 0
2, 139667, Note_on_c, 2, 55, 0
2, 139680, Note_on_c, 2, 52, 80
2, 139680, Note_on_c, 2, 60, 80
2, 139907, Note_on_c, 2, 52, 0
2, 139907, Note_on_c, 2, 60, 0
2, 139920, Note_on_c, 2, 53, 80
2, 140147, Note_on_c, 2, 53, 0
2, 140160, Note_on_c, 2, 52, 80
2, 140615, Note_on_c, 2, 52, 0
2, 140640, Note_on_c, 2, 53, 80
2, 140867, Note_on_c, 2, 53, 0
2, 140880, Note_on_c, 2, 52, 80
2, 140880, Note_on_c, 2, 55, 80
2, 141107, Note_on_c, 2, 52, 0
2, 141107, Note_on_c, 2, 55, 0
2, 141360, Note_on_c, 2, 52, 80
2, 141360, Note_on_c, 2, 55, 80
2, 141587, Note_on_c, 2, 52, 0
2, 141587, Note_on_c, 2, 55, 0
2, 141600, Note_on_c, 2, 52, 80
2, 141600, Note_on_c, 2, 60, 80
2, 141827, Note_on_c, 2, 52, 0
2, 141827, Note_on_c, 2, 60, 0
2, 141840, Note_on_c, 2, 52, 80
2, 142067, Note_on_c, 2, 52, 0
2, 142080, Note_on_c, 2, 52, 80
2, 142080, Note_on_c, 2, 60, 80
2, 142535, Note_on_c, 2, 52, 0
2, 142535, Note_on_c, 2, 60, 0
2, 142560, Note_on_c, 2, 52, 80
2, 142560, Note_on_c, 2, 60, 80
2, 142787, Note_on_c, 2, 52, 0
2, 142787, Note_on_c, 2, 60, 0
2, 142800, Note_on_c, 2, 52, 80
2, 142800, Note_on_c, 2, 55, 80
2, 143027, Note_on_c, 2, 52, 0
2, 143027, Note_on_c, 2, 55, 0
2, 143280, Note_on_c, 2, 52, 80
2, 143280, Note_on_c, 2, 55, 80
2, 143507, Note_on_c, 2, 52, 0
2, 143507, Note_on_c, 2, 55, 0
2, 143520, Note_on_c, 2, 52, 80
2, 143520, Note_on_c, 2, 60, 80
2, 143747, Note_on_c, 2, 52, 0
2, 143747, Note_on_c, 2, 60, 0
2, 143760, Note_on_c, 2, 53, 80
2, 143987, Note_on_c, 2, 53, 0
2, 144000, Note_on_c, 2, 52, 80
2, 144455, Note_on_c, 2, 52, 0
2, 144480, Note_on_c, 2, 53, 80
2, 144707, Note_on_c, 2, 53, 0
2, 144720, Note_on_c, 2, 52, 80
2, 144720, Note_on_c, 2, 55, 80
2, 144947, Note_on_c, 2, 52, 0
2, 144947, Note_on_c, 2, 55, 0
2, 145200, Note_on_c, 2, 52, 80
2, 145200, Note_on_c, 2, 55, 80
2, 145427, Note_on_c, 2, 52, 0
2, 145427, Note_on_c, 2, 55, 0
2, 145440, Note_on_c, 2, 52, 80
2, 145440, Note_on_c, 2, 60, 80
2, 145667, Note_on_c, 2, 52, 0
2, 145667, Note_on_c, 2, 60, 0
2, 145680, Note_on_c, 2, 52, 80
2, 145907, Note_on_c, 2, 52, 0
2, 145920, Note_on_c, 2, 52, 80
2, 145920, Note_on_c, 2, 60, 80
2, 146375, Note_on_c, 2, 52, 0
2, 146375, Note_on_c, 2, 60, 0
2, 146400, Note_on_c, 2, 52, 80
2, 146400, Note_on_c, 2, 60, 80
2, 146627, Note_on_c, 2, 52, 0
2, 146627, Note_on_c, 2, 60, 0
2, 146640, Note_on_c, 2, 52, 80
2, 146640, Note_on_c, 2, 55, 80
2, 146867, Note_on_c, 2, 52, 0
2, 146867, Note_on_c, 2, 55, 0
2, 147120, Note_on_c, 2, 52, 80
2, 147120, Note_on_c, 2, 55, 80
2, 147347, Note_on_c, 2, 52, 0
2, 147347, Note_on_c, 2, 55, 0
2, 147360, Note_on_c, 2, 52, 80
2, 147360, Note_on_c, 2, 60, 80
2, 147587, Note_on_c, 2, 52, 0
2, 147587, Note_on_c, 2, 60, 0
2, 147600, Note_on_c, 2, 53, 80
2, 147827, Note_on_c, 2, 53, 0
2, 147840, Note_on_c, 2, 52, 80
2, 148295, Note_on_c, 2, 52, 0
2, 148320, Note_on_c, 2, 53, 80
2, 148547, Note_on_c, 2, 53, 0
2, 148560, Note_on_c, 2, 52, 80
2, 148560, Note_on_c, 2, 55, 80
2, 148787, Note_on_c, 2, 52, 0
2, 148787, Note_on_c, 2, 55, 0
2, 149040, Note_on_c, 2, 52, 80
2, 149040, Note_on_c, 2, 55, 80
2, 149267, Note_on_c, 2, 52, 0
2, 149267, Note_on_c, 2, 55, 0
2, 149280, Note_on_c, 2, 52, 80
2, 149280, Note_on_c, 2, 60, 80
2, 149507, Note_on_c, 2, 52, 0
2, 149507, Note_on_c, 2, 60, 0
2, 149520, Note_on_c, 2, 52, 80
2, 149747, Note_on_c, 2, 52, 0
2, 149760, Note_on_c, 2, 52, 80
2, 149760, Note_on_c, 2, 60, 80
2, 150215, Note_on_c, 2, 52, 0
2, 150215, Note_on_c, 2, 60, 0
2, 150240, Note_on_c, 2, 52, 80
2, 150240, Note_on_c, 2, 60, 80
2, 150467, Note_on_c, 2, 52, 0
2, 150467, Note_on_c, 2, 60, 0
2, 150480, Note_on_c, 2, 52, 80
2, 150480, Note_on_c, 2, 55, 80
2, 150707, Note_on_c, 2, 52, 0
2, 150707, Note_on_c, 2, 55, 0
2, 150960, Note_on_c, 2, 52, 80
2, 150960, Note_on_c, 2, 55, 80
2, 151187, Note_on_c, 2, 52, 0
2, 151187, Note_on_c, 2, 55, 0
2, 151200, Note_on_c, 2, 52, 80
2, 151200, Note_on_c, 2, 60, 80
2, 151427, Note_on_c, 2, 52, 0
2, 151427, Note_on_c, 2, 60, 0
2, 151440, Note_on_c, 2, 53, 80
2, 151667, Note_on_c, 2, 53, 0
2, 151680, Note_on_c, 2, 52, 80
2, 152135, Note_on_c, 2, 52, 0
2, 152160, Note_on_c, 2, 53, 80
2, 152387, Note_on_c, 2, 53, 0
2, 152400, Note_on_c, 2, 52, 80
2, 152400, Note_on_c, 2, 55, 80
2, 152627, Note_on_c, 2, 52, 0
2, 152627, Note_on_c, 2, 55, 0
2, 152880, Note_on_c, 2, 52, 80
2, 152880, Note_on_c, 2, 55, 80
2, 153107, Note_on_c, 2, 52, 0
2, 153107, Note_on_c, 2, 55, 0
2, 153120, Note_on_c, 2, 52, 80
2, 153120, Note_on_c, 2, 60, 80
2, 153347, Note_on_c, 2, 52, 0
2, 153347, Note_on_c, 2, 60, 0
2, 153360, Note_on_c, 2, 52, 80
2, 153587, Note_on_c, 2, 52, 0
2, 153600, Note_on_c, 2, 52, 80
2, 153600, Note_on_c, 2, 60, 80
2, 154055, Note_on_c, 2, 52, 0
2, 154055, Note_on_c, 2, 60, 0
2, 154080, Note_on_c, 2, 52, 80
2, 154080, Note_on_c, 2, 60, 80
2, 154307, Note_on_c, 2, 52, 0
2, 154307, Note_on_c, 2, 60, 0
2, 154320, Note_on_c, 2, 52, 80
2, 154320, Note_on_c, 2, 55, 80
2, 154547, Note_on_c, 2, 52, 0
2, 154547, Note_on_c, 2, 55, 0
2, 154800, Note_on_c, 2, 52, 80
2, 154800, Note_on_c, 2, 55, 80
2, 155027, Note_on_c, 2, 52, 0
2, 155027, Note_on_c, 2, 55, 0
2, 155280, Note_on_c, 2, 53, 80
2, 155507, Note_on_c, 2, 53, 0
2, 155520, Note_on_c, 2, 52, 80
2, 155975, Note_on_c, 2, 52, 0
2, 156000, Note_on_c, 2, 53, 80
2, 156227, Note_on_c, 2, 53, 0
2, 156240, Note_on_c, 2, 52, 80
2, 156240, Note_on_c, 2, 55, 80
2, 156467, Note_on_c, 2, 52, 0
2, 156467, Note_on_c, 2, 55, 0
2, 156720, Note_on_c, 2, 52, 80
2, 156720, Note_on_c, 2, 55, 80
2, 156947, Note_on_c, 2, 52, 0
2, 156947, Note_on_c, 2, 55, 0
2, 157200, Note_on_c, 2, 52, 80
2, 157427, Note_on_c, 2, 52, 0
2, 157440, Note_on_c, 2, 52, 80
2, 157440, Note_on_c, 2, 60, 80
2, 157895, Note_on_c, 2, 52, 0
2, 157895, Note_on_c, 2, 60, 0
2, 157920, Note_on_c, 2, 52, 80
2, 157920, Note_on_c, 2, 60, 80
2, 158147, Note_on_c, 2, 52, 0
2, 158147, Note_on_c, 2, 60, 0
2, 158160, Note_on_c, 2, 52, 80
2, 158160, Note_on_c, 2, 55, 80
2, 158387, Note_on_c, 2, 52, 0
2, 158387, Note_on_c, 2, 55, 0
2, 158640, Note_on_c, 2, 52, 80
2, 158640, Note_on_c, 2, 55, 80
2, 158867, Note_on_c, 2, 52, 0
2, 158867, Note_on_c, 2, 55, 0
2, 159120, Note_on_c, 2, 53, 80
2, 159347, Note_on_c, 2, 53, 0
2, 159360, Note_on_c, 2, 52, 80
2, 159815, Note_on_c, 2, 52, 0
2, 159840, Note_on_c, 2, 53, 80
2, 160067, Note_on_c, 2, 53, 0
2, 160080, Note_on_c, 2, 52, 80
2, 160080, Note_on_c, 2, 55, 80
2, 160307, Note_on_c, 2, 52, 0
2, 160307, Note_on_c, 2, 55, 0
2, 160560, Note_on_c, 2, 52, 80
2, 160560, Note_on_c, 2, 55, 80
2, 160787, Note_on_c, 2, 52, 0
2, 160787, Note_on_c, 2, 55, 0
2, 161040, Note_on_c, 2, 52, 80
2, 161267, Note_on_c, 2, 52, 0
2, 161280, Note_on_c, 2, 52, 80
2, 161280, Note_on_c, 2, 60, 80
2, 161735, Note_on_c, 2, 52, 0
2, 161735, Note_on_c, 2, 60, 0
2, 161760, Note_on_c, 2, 52, 80
2, 161760, Note_on_c, 2, 60, 80
2, 161987, Note_on_c, 2, 52, 0
2, 161987, Note_on_c, 2, 60, 0
2, 162000, Note_on_c, 2, 52, 80
2, 162000, Note_on_c, 2, 55, 80
2, 162227, Note_on_c, 2, 52, 0
2, 162227, Note_on_c, 2, 55, 0
2, 162480, Note_on_c, 2, 52, 80
2, 162480, Note_on_c, 2, 55, 80
2, 162707, Note_on_c, 2, 52, 0
2, 162707, Note_on_c, 2, 55, 0
2, 162960, Note_on_c, 2, 53, 80
2, 163187, Note_on_c, 2, 53, 0
2, 163200, Note_on_c, 2, 52, 80
2, 163655, Note_on_c, 2, 52, 0
2, 163680, Note_on_c, 2, 53, 80
2, 163907, Note_on_c, 2, 53, 0
2, 163920, Note_on_c, 2, 52, 80
2, 163920, Note_on_c, 2, 55, 80
2, 164147, Note_on_c, 2, 52, 0
2, 164147, Note_on_c, 2, 55, 0
2, 164400, Note_on_c, 2, 52, 80
2, 164400, Note_on_c, 2, 55, 80
2, 164627, Note_on_c, 2, 52, 0
2, 164627, Note_on_c, 2, 55, 0
2, 164880, Note_on_c, 2, 52, 80
2, 165107, Note_on_c, 2, 52, 0
2, 165120, Note_on_c, 2, 52, 80
2, 165120, Note_on_c, 2, 60, 80
2, 165575, Note_on_c, 2, 52, 0
2, 165575, Note_on_c, 2, 60, 0
2, 165600, Note_on_c, 2, 52, 80
2, 165600, Note_on_c, 2, 60, 80
2, 165827, Note_on_c, 2, 52, 0
2, 165827, Note_on_c, 2, 60, 0
2, 165840, Note_on_c, 2, 52, 80
2, 165840, Note_on_c, 2, 55, 80
2, 166067, Note_on_c, 2, 52, 0
2, 166067, Note_on_c, 2, 55, 0
2, 166320, Note_on_c, 2, 52, 80
2, 166320, Note_on_c, 2, 55, 80
2, 166547, Note_on_c, 2, 52, 0
2, 166547, Note_on_c, 2, 55, 0
2, 166800, Note_on_c, 2, 53, 80
2, 167027, Note_on_c, 2, 53, 0
2, 167040, Note_on_c, 2, 52, 80
2, 167495, Note_on_c, 2, 52, 0
2, 167520, Note_on_c, 2, 53, 80
2, 167747, Note_on_c, 2, 53, 0
2, 167760, Note_on_c, 2, 52, 80
2, 167760, Note_on_c, 2, 55, 80
2, 167987, Note_on_c, 2, 52, 0
2, 167987, Note_on_c, 2, 55, 0
2, 168240, Note_on_c, 2, 52, 80
2, 168240, Note_on_c, 2, 55, 80
2, 168467, Note_on_c, 2, 52, 0
2, 168467, Note_on_c, 2, 55, 0
2, 168720, Note_on_c, 2, 52, 80
2, 168947, Note_on_c, 2, 52, 0
2, 168960, Note_on_c, 2, 52, 80
2, 168960, Note_on_c, 2, 60, 80
2, 169415, Note_on_c, 2, 52, 0
2, 169415, Note_on_c, 2, 60, 0
2, 169440, Note_on_c, 2, 52, 80
2, 169440, Note_on_c, 2, 60, 80
2, 169667, Note_on_c, 2, 52, 0
2, 169667, Note_on_c, 2, 60, 0
2, 169680, Note_on_c, 2, 52, 80
2, 169680, Note_on_c, 2, 55, 80
2, 169907, Note_on_c, 2, 52, 0
2, 169907, Note_on_c, 2, 55, 0
2, 170160, Note_on_c, 2, 52, 80
2, 170160, Note_on_c, 2, 55, 80
2, 170387, Note_on_c, 2, 52, 0
2, 170387, Note_on_c, 2, 55, 0
2, 170400, Note_on_c, 2, 52, 80
2, 170627, Note_on_c, 2, 52, 0
2, 170640, Note_on_c, 2, 53, 80
2, 170867, Note_on_c, 2, 53, 0
2, 170880, Note_on_c, 2, 52, 80
2, 171335, Note_on_c, 2, 52, 0
2, 171360, Note_on_c, 2, 53, 80
2, 171587, Note_on_c, 2, 53, 0
2, 171600, Note_on_c, 2, 52, 80
2, 171600, Note_on_c, 2, 55, 80
2, 171827, Note_on_c, 2, 52, 0
2, 171827, Note_on_c, 2, 55, 0
2, 172080, Note_on_c, 2, 52, 80
2, 172080, Note_on_c, 2, 55, 80
2, 172307, Note_on_c, 2, 52, 0
2, 172307, Note_on_c, 2, 55, 0
2, 172560, Note_on_c, 2, 52, 80
2, 172787, Note_on_c, 2, 52, 0
2, 172800, Note_on_c, 2, 52, 80
2, 172800, Note_on_c, 2, 60, 80
2, 173255, Note_on_c, 2, 52, 0
2, 173255, Note_on_c, 2, 60, 0
2, 173280, Note_on_c, 2, 52, 80
2, 173280, Note_on_c, 2, 60, 80
2, 173507, Note_on_c, 2, 52, 0
2, 173507, Note_on_c, 2, 60, 0
2, 173520, Note_on_c, 2, 52, 80
2, 173520, Note_on_c, 2, 55, 80
2, 173747, Note_on_c, 2, 52, 0
2, 173747, Note_on_c, 2, 55, 0
2, 174000, Note_on_c, 2, 52, 80
2, 174000, Note_on_c, 2, 55, 80
2, 174227, Note_on_c, 2, 52, 0
2, 174227, Note_on_c, 2, 55, 0
2, 174240, Note_on_c, 2, 52, 80
2, 174467, Note_on_c, 2, 52, 0
2, 174480, Note_on_c, 2, 53, 80
2, 174707, Note_on_c, 2, 53, 0
2, 174720, Note_on_c, 2, 52, 80
2, 175175, Note_on_c, 2, 52, 0
2, 175200, Note_on_c, 2, 53, 80
2, 175427, Note_on_c, 2, 53, 0
2, 175440, Note_on_c, 2, 52, 80
2, 175440, Note_on_c, 2, 55, 80
2, 175667, Note_on_c, 2, 52, 0
2, 175667, Note_on_c, 2, 55, 0
2, 175920, Note_on_c, 2, 52, 80
2, 175920, Note_on_c, 2, 55, 80
2, 176147, Note_on_c, 2, 52, 0
2, 176147, Note_on_c, 2, 55, 0
2, 176400, Note_on_c, 2, 52, 80
2, 176627, Note_on_c, 2, 52, 0
2, 176640, Note_on_c, 2, 52, 80
2, 176640, Note_on_c, 2, 60, 80
2, 177095, Note_on_c, 2, 52, 0
2, 177095, Note_on_c, 2, 60, 0
2, 177120, Note_on_c, 2, 52, 80
2, 177120, Note_on_c, 2, 60, 80
2, 177347, Note_on_c, 2, 52, 0
2, 177347, Note_on_c, 2, 60, 0
2, 177360, Note_on_c, 2, 52, 80
2, 177360, Note_on_c, 2, 55, 80
2, 177587, Note_on_c, 2, 52, 0
2, 177587, Note_on_c, 2, 55, 0
2, 177840, Note_on_c, 2, 52, 80
2, 177840, Note_on_c, 2, 55, 80
2, 178067, Note_on_c, 2, 52, 0
2, 178067, Note_on_c, 2, 55, 0
2, 178080, Note_on_c, 2, 52, 80
2, 178307, Note_on_c, 2, 52, 0
2, 178320, Note_on_c, 2, 53, 80
2, 178547, Note_on_c, 2, 53, 0
2, 178560, Note_on_c, 2, 52, 80
2, 179015, Note_on_c, 2, 52, 0
2, 179040, Note_on_c, 2, 53, 80
2, 179267, Note_on_c, 2, 53, 0
2, 179280, Note_on_c, 2, 52, 80
2, 179280, Note_on_c, 2, 55, 80
2, 179507, Note_on_c, 2, 52, 0
2, 179507, Note_on_c, 2, 55, 0
2, 179760, Note_on_c, 2, 52, 80
2, 179760, Note_on_c, 2, 55, 80
2, 179987, Note_on_c, 2, 52, 0
2, 179987, Note_on_c, 2, 55, 0
2, 180240, Note_on_c, 2, 52, 80
2, 180467, Note_on_c, 2, 52, 0
2, 180480, Note_on_c, 2, 52, 80
2, 180480, Note_on_c, 2, 60, 80
2, 180935, Note_on_c, 2, 52, 0
2, 180935, Note_on_c, 2, 60, 0
2, 180960, Note_on_c, 2, 52, 80
2, 180960, Note_on_c, 2, 60, 80
2, 181187, Note_on_c, 2, 52, 0
2, 181187, Note_on_c, 2, 60, 0
2, 181200, Note_on_c, 2, 52, 80
2, 181200, Note_on_c, 2, 55, 80
2, 181427, Note_on_c, 2, 52, 0
2, 181427, Note_on_c, 2, 55, 0
2, 181680, Note_on_c, 2, 52, 80
2, 181680, Note_on_c, 2, 55, 80
2, 181907, Note_on_c, 2, 52, 0
2, 181907, Note_on_c, 2, 55, 0
2, 181920, Note_on_c, 2, 52, 80
2, 182147, Note_on_c, 2, 52, 0
2, 182160, Note_on_c, 2, 53, 80
2, 182387, Note_on_c, 2, 53, 0
2, 182400, Note_on_c, 2, 52, 80
2, 182855, Note_on_c, 2, 52, 0
2, 182880, Note_on_c, 2, 53, 80
2, 183107, Note_on_c, 2, 53, 0
2, 183120, Note_on_c, 2, 52, 80
2, 183120, Note_on_c, 2, 55, 80
2, 183347, Note_on_c, 2, 52, 0
2, 183347, Note_on_c, 2, 55, 0
2, 183600, Note_on_c, 2, 52, 80
2, 183600, Note_on_c, 2, 55, 80
2, 183827, Note_on_c, 2, 52, 0
2, 183827, Note_on_c, 2, 55, 0
2, 183828, End_track
3, 0, Start_track
3, 0, Title_t, "Electric Bass, Bass\000"
3, 0, Key_signature, 0, "major"
3, 0, Control_c, 10, 121, 0
3, 0, Program_c, 10, 33
3, 0, Control_c, 10, 7, 100
3, 0, Control_c, 10, 10, 64
3, 0, Control_c, 10, 91, 0
3, 0, Control_c, 10, 93, 0
3, 0, MIDI_port, 0
3, 0, Note_on_c, 10, 55, 80
3, 0, Control_c, 4, 121, 0
3, 0, Program_c, 4, 36
3, 0, Control_c, 4, 7, 100
3, 0, Control_c, 4, 10, 64
3, 0, Control_c, 4, 91, 0
3, 0, Control_c, 4, 93, 0
3, 0, MIDI_port, 0
3, 0, Control_c, 5, 121, 0
3, 0, Program_c, 5, 37
3, 0, Control_c, 5, 7, 100
3, 0, Control_c, 5, 10, 64
3, 0, Control_c, 5, 91, 0
3, 0, Control_c, 5, 93, 0
3, 0, MIDI_port, 0
3, 1919, Note_on_c, 10, 55, 0
3, 1920, Note_on_c, 10, 55, 80
3, 3839, Note_on_c, 10, 55, 0
3, 3840, Note_on_c, 10, 52, 80
3, 5759, Note_on_c, 10, 52, 0
3, 5760, Note_on_c, 10, 52, 80
3, 7679, Note_on_c, 10, 52, 0
3, 7680, Note_on_c, 10, 60, 80
3, 9599, Note_on_c, 10, 60, 0
3, 9600, Note_on_c, 10, 60, 80
3, 11519, Note_on_c, 10, 60, 0
3, 11520, Note_on_c, 10, 55, 80
3, 13439, Note_on_c, 10, 55, 0
3, 13440, Note_on_c, 10, 55, 80
3, 14399, Note_on_c, 10, 55, 0
3, 14400, Note_on_c, 10, 55, 80
3, 14879, Note_on_c, 10, 55, 0
3, 14880, Note_on_c, 10, 55, 80
3, 15359, Note_on_c, 10, 55, 0
3, 15360, Note_on_c, 10, 55, 80
3, 15839, Note_on_c, 10, 55, 0
3, 15840, Note_on_c, 10, 55, 80
3, 16319, Note_on_c, 10, 55, 0
3, 16320, Note_on_c, 10, 55, 80
3, 16799, Note_on_c, 10, 55, 0
3, 16800, Note_on_c, 10, 55, 80
3, 17279, Note_on_c, 10, 55, 0
3, 17280, Note_on_c, 10, 55, 80
3, 17759, Note_on_c, 10, 55, 0
3, 17760, Note_on_c, 10, 55, 80
3, 18239, Note_on_c, 10, 55, 0
3, 18240, Note_on_c, 10, 55, 80
3, 18719, Note_on_c, 10, 55, 0
3, 18720, Note_on_c, 10, 55, 80
3, 19199, Note_on_c, 10, 55, 0
3, 19200, Note_on_c, 10, 52, 80
3, 19679, Note_on_c, 10, 52, 0
3, 19680, Note_on_c, 10, 52, 80
3, 20159, Note_on_c, 10, 52, 0
3, 20160, Note_on_c, 10, 52, 80
3, 20639, Note_on_c, 10, 52, 0
3, 20640, Note_on_c, 10, 52, 80
3, 21119, Note_on_c, 10, 52, 0
3, 21120, Note_on_c, 10, 52, 80
3, 21599, Note_on_c, 10, 52, 0
3, 21600, Note_on_c, 10, 52, 80
3, 22079, Note_on_c, 10, 52, 0
3, 22080, Note_on_c, 10, 52, 80
3, 22559, Note_on_c, 10, 52, 0
3, 22560, Note_on_c, 10, 52, 80
3, 23039, Note_on_c, 10, 52, 0
3, 23040, Note_on_c, 10, 60, 80
3, 23519, Note_on_c, 10, 60, 0
3, 23520, Note_on_c, 10, 60, 80
3, 23999, Note_on_c, 10, 60, 0
3, 24000, Note_on_c, 10, 60, 80
3, 24479, Note_on_c, 10, 60, 0
3, 24480, Note_on_c, 10, 60, 80
3, 24959, Note_on_c, 10, 60, 0
3, 24960, Note_on_c, 10, 60, 80
3, 25919, Note_on_c, 10, 60, 0
3, 25920, Note_on_c, 10, 60, 80
3, 26399, Note_on_c, 10, 60, 0
3, 26400, Note_on_c, 10, 60, 80
3, 26879, Note_on_c, 10, 60, 0
3, 26880, Note_on_c, 10, 55, 80
3, 27839, Note_on_c, 10, 55, 0
3, 27840, Note_on_c, 10, 55, 80
3, 28319, Note_on_c, 10, 55, 0
3, 28320, Note_on_c, 10, 55, 80
3, 28799, Note_on_c, 10, 55, 0
3, 28800, Note_on_c, 10, 55, 80
3, 29759, Note_on_c, 10, 55, 0
3, 29760, Note_on_c, 10, 55, 80
3, 30239, Note_on_c, 10, 55, 0
3, 30240, Note_on_c, 10, 55, 80
3, 30719, Note_on_c, 10, 55, 0
3, 30720, Note_on_c, 10, 55, 80
3, 32159, Note_on_c, 10, 55, 0
3, 32160, Note_on_c, 10, 55, 80
3, 32639, Note_on_c, 10, 55, 0
3, 32640, Note_on_c, 10, 55, 80
3, 33599, Note_on_c, 10, 55, 0
3, 33600, Note_on_c, 10, 55, 80
3, 34079, Note_on_c, 10, 55, 0
3, 34080, Note_on_c, 10, 55, 80
3, 34559, Note_on_c, 10, 55, 0
3, 34560, Note_on_c, 10, 52, 80
3, 35999, Note_on_c, 10, 52, 0
3, 36000, Note_on_c, 10, 52, 80
3, 36479, Note_on_c, 10, 52, 0
3, 36480, Note_on_c, 10, 52, 80
3, 36719, Note_on_c, 10, 52, 0
3, 36720, Note_on_c, 10, 52, 80
3, 37439, Note_on_c, 10, 52, 0
3, 37440, Note_on_c, 10, 52, 80
3, 37919, Note_on_c, 10, 52, 0
3, 37920, Note_on_c, 10, 52, 80
3, 38399, Note_on_c, 10, 52, 0
3, 38400, Note_on_c, 10, 48, 80
3, 38879, Note_on_c, 10, 48, 0
3, 38880, Note_on_c, 10, 48, 80
3, 39359, Note_on_c, 10, 48, 0
3, 39360, Note_on_c, 10, 48, 80
3, 39839, Note_on_c, 10, 48, 0
3, 39840, Note_on_c, 10, 48, 80
3, 40319, Note_on_c, 10, 48, 0
3, 40320, Note_on_c, 10, 48, 80
3, 40559, Note_on_c, 10, 48, 0
3, 40560, Note_on_c, 10, 48, 80
3, 41279, Note_on_c, 10, 48, 0
3, 41280, Note_on_c, 10, 48, 80
3, 41759, Note_on_c, 10, 48, 0
3, 41760, Note_on_c, 10, 48, 80
3, 42239, Note_on_c, 10, 48, 0
3, 42240, Note_on_c, 10, 55, 80
3, 42719, Note_on_c, 10, 55, 0
3, 42720, Note_on_c, 10, 55, 80
3, 43199, Note_on_c, 10, 55, 0
3, 43200, Note_on_c, 10, 55, 80
3, 43679, Note_on_c, 10, 55, 0
3, 43680, Note_on_c, 10, 55, 80
3, 44159, Note_on_c, 10, 55, 0
3, 44160, Note_on_c, 10, 55, 80
3, 44399, Note_on_c, 10, 55, 0
3, 44400, Note_on_c, 10, 55, 80
3, 45119, Note_on_c, 10, 55, 0
3, 45120, Note_on_c, 10, 55, 80
3, 45599, Note_on_c, 10, 55, 0
3, 45600, Note_on_c, 10, 55, 80
3, 46079, Note_on_c, 10, 55, 0
3, 46080, Note_on_c, 10, 55, 80
3, 46559, Note_on_c, 10, 55, 0
3, 46560, Note_on_c, 10, 55, 80
3, 47039, Note_on_c, 10, 55, 0
3, 47040, Note_on_c, 10, 55, 80
3, 47519, Note_on_c, 10, 55, 0
3, 47520, Note_on_c, 10, 55, 80
3, 47999, Note_on_c, 10, 55, 0
3, 48000, Note_on_c, 10, 55, 80
3, 48479, Note_on_c, 10, 55, 0
3, 48480, Note_on_c, 10, 55, 80
3, 48959, Note_on_c, 10, 55, 0
3, 48960, Note_on_c, 10, 55, 80
3, 49439, Note_on_c, 10, 55, 0
3, 49440, Note_on_c, 10, 55, 80
3, 49919, Note_on_c, 10, 55, 0
3, 49920, Note_on_c, 10, 52, 80
3, 50399, Note_on_c, 10, 52, 0
3, 50400, Note_on_c, 10, 52, 80
3, 50879, Note_on_c, 10, 52, 0
3, 50880, Note_on_c, 10, 52, 80
3, 51359, Note_on_c, 10, 52, 0
3, 51360, Note_on_c, 10, 52, 80
3, 51839, Note_on_c, 10, 52, 0
3, 51840, Note_on_c, 10, 52, 80
3, 52319, Note_on_c, 10, 52, 0
3, 52320, Note_on_c, 10, 52, 80
3, 52799, Note_on_c, 10, 52, 0
3, 52800, Note_on_c, 10, 52, 80
3, 53279, Note_on_c, 10, 52, 0
3, 53280, Note_on_c, 10, 52, 80
3, 53759, Note_on_c, 10, 52, 0
3, 53760, Note_on_c, 10, 48, 80
3, 54239, Note_on_c, 10, 48, 0
3, 54240, Note_on_c, 10, 48, 80
3, 54719, Note_on_c, 10, 48, 0
3, 54720, Note_on_c, 10, 48, 80
3, 55199, Note_on_c, 10, 48, 0
3, 55200, Note_on_c, 10, 48, 80
3, 55679, Note_on_c, 10, 48, 0
3, 55680, Note_on_c, 10, 48, 80
3, 56159, Note_on_c, 10, 48, 0
3, 56160, Note_on_c, 10, 48, 80
3, 56639, Note_on_c, 10, 48, 0
3, 56640, Note_on_c, 10, 48, 80
3, 57119, Note_on_c, 10, 48, 0
3, 57120, Note_on_c, 10, 48, 80
3, 57599, Note_on_c, 10, 48, 0
3, 57600, Note_on_c, 10, 55, 80
3, 58079, Note_on_c, 10, 55, 0
3, 58080, Note_on_c, 10, 55, 80
3, 58559, Note_on_c, 10, 55, 0
3, 58560, Note_on_c, 10, 55, 80
3, 59039, Note_on_c, 10, 55, 0
3, 59040, Note_on_c, 10, 55, 80
3, 59519, Note_on_c, 10, 55, 0
3, 59520, Note_on_c, 10, 55, 80
3, 59999, Note_on_c, 10, 55, 0
3, 60000, Note_on_c, 10, 55, 80
3, 60479, Note_on_c, 10, 55, 0
3, 60480, Note_on_c, 10, 55, 80
3, 60959, Note_on_c, 10, 55, 0
3, 60960, Note_on_c, 10, 55, 80
3, 61439, Note_on_c, 10, 55, 0
3, 61440, Note_on_c, 10, 55, 80
3, 61919, Note_on_c, 10, 55, 0
3, 61920, Note_on_c, 10, 55, 80
3, 62399, Note_on_c, 10, 55, 0
3, 62400, Note_on_c, 10, 55, 80
3, 62879, Note_on_c, 10, 55, 0
3, 62880, Note_on_c, 10, 55, 80
3, 63359, Note_on_c, 10, 55, 0
3, 63360, Note_on_c, 10, 55, 80
3, 63839, Note_on_c, 10, 55, 0
3, 63840, Note_on_c, 10, 55, 80
3, 64319, Note_on_c, 10, 55, 0
3, 64320, Note_on_c, 10, 55, 80
3, 64799, Note_on_c, 10, 55, 0
3, 64800, Note_on_c, 10, 55, 80
3, 65279, Note_on_c, 10, 55, 0
3, 65280, Note_on_c, 10, 52, 80
3, 65759, Note_on_c, 10, 52, 0
3, 65760, Note_on_c, 10, 52, 80
3, 66239, Note_on_c, 10, 52, 0
3, 66240, Note_on_c, 10, 52, 80
3, 66719, Note_on_c, 10, 52, 0
3, 66720, Note_on_c, 10, 52, 80
3, 67199, Note_on_c, 10, 52, 0
3, 67200, Note_on_c, 10, 52, 80
3, 67679, Note_on_c, 10, 52, 0
3, 67680, Note_on_c, 10, 52, 80
3, 68159, Note_on_c, 10, 52, 0
3, 68160, Note_on_c, 10, 52, 80
3, 68639, Note_on_c, 10, 52, 0
3, 68640, Note_on_c, 10, 52, 80
3, 69119, Note_on_c, 10, 52, 0
3, 69120, Note_on_c, 10, 60, 80
3, 69599, Note_on_c, 10, 60, 0
3, 69600, Note_on_c, 10, 60, 80
3, 70079, Note_on_c, 10, 60, 0
3, 70080, Note_on_c, 10, 60, 80
3, 70559, Note_on_c, 10, 60, 0
3, 70560, Note_on_c, 10, 60, 80
3, 71039, Note_on_c, 10, 60, 0
3, 71040, Note_on_c, 10, 60, 80
3, 71519, Note_on_c, 10, 60, 0
3, 71520, Note_on_c, 10, 60, 80
3, 71999, Note_on_c, 10, 60, 0
3, 72000, Note_on_c, 10, 60, 80
3, 72479, Note_on_c, 10, 60, 0
3, 72480, Note_on_c, 10, 60, 80
3, 72959, Note_on_c, 10, 60, 0
3, 72960, Note_on_c, 10, 55, 80
3, 73439, Note_on_c, 10, 55, 0
3, 73440, Note_on_c, 10, 55, 80
3, 73919, Note_on_c, 10, 55, 0
3, 73920, Note_on_c, 10, 55, 80
3, 74399, Note_on_c, 10, 55, 0
3, 74400, Note_on_c, 10, 55, 80
3, 74879, Note_on_c, 10, 55, 0
3, 74880, Note_on_c, 10, 55, 80
3, 75359, Note_on_c, 10, 55, 0
3, 75360, Note_on_c, 10, 55, 80
3, 75839, Note_on_c, 10, 55, 0
3, 75840, Note_on_c, 10, 55, 80
3, 76319, Note_on_c, 10, 55, 0
3, 76320, Note_on_c, 10, 55, 80
3, 76799, Note_on_c, 10, 55, 0
3, 76800, Note_on_c, 10, 55, 80
3, 77039, Note_on_c, 10, 55, 0
3, 77040, Note_on_c, 10, 55, 80
3, 77759, Note_on_c, 10, 55, 0
3, 77760, Note_on_c, 10, 55, 80
3, 78239, Note_on_c, 10, 55, 0
3, 78240, Note_on_c, 10, 55, 80
3, 78719, Note_on_c, 10, 55, 0
3, 78720, Note_on_c, 10, 55, 80
3, 79679, Note_on_c, 10, 55, 0
3, 79680, Note_on_c, 10, 55, 80
3, 80159, Note_on_c, 10, 55, 0
3, 80160, Note_on_c, 10, 55, 80
3, 80639, Note_on_c, 10, 55, 0
3, 80640, Note_on_c, 10, 52, 80
3, 80879, Note_on_c, 10, 52, 0
3, 80880, Note_on_c, 10, 52, 80
3, 81599, Note_on_c, 10, 52, 0
3, 81600, Note_on_c, 10, 52, 80
3, 82079, Note_on_c, 10, 52, 0
3, 82080, Note_on_c, 10, 52, 80
3, 82559, Note_on_c, 10, 52, 0
3, 82560, Note_on_c, 10, 52, 80
3, 82799, Note_on_c, 10, 52, 0
3, 82800, Note_on_c, 10, 52, 80
3, 83519, Note_on_c, 10, 52, 0
3, 83520, Note_on_c, 10, 52, 80
3, 83999, Note_on_c, 10, 52, 0
3, 84000, Note_on_c, 10, 52, 80
3, 84479, Note_on_c, 10, 52, 0
3, 84480, Note_on_c, 10, 48, 80
3, 84959, Note_on_c, 10, 48, 0
3, 84960, Note_on_c, 10, 48, 80
3, 85439, Note_on_c, 10, 48, 0
3, 85440, Note_on_c, 10, 48, 80
3, 85919, Note_on_c, 10, 48, 0
3, 85920, Note_on_c, 10, 48, 80
3, 86399, Note_on_c, 10, 48, 0
3, 86400, Note_on_c, 10, 48, 80
3, 86639, Note_on_c, 10, 48, 0
3, 86640, Note_on_c, 10, 48, 80
3, 87359, Note_on_c, 10, 48, 0
3, 87360, Note_on_c, 10, 48, 80
3, 87839, Note_on_c, 10, 48, 0
3, 87840, Note_on_c, 10, 48, 80
3, 88319, Note_on_c, 10, 48, 0
3, 88320, Note_on_c, 10, 55, 80
3, 88559, Note_on_c, 10, 55, 0
3, 88560, Note_on_c, 10, 55, 80
3, 89279, Note_on_c, 10, 55, 0
3, 89280, Note_on_c, 10, 55, 80
3, 89759, Note_on_c, 10, 55, 0
3, 89760, Note_on_c, 10, 55, 80
3, 90239, Note_on_c, 10, 55, 0
3, 90240, Note_on_c, 10, 55, 80
3, 90719, Note_on_c, 10, 55, 0
3, 90720, Note_on_c, 10, 55, 80
3, 91199, Note_on_c, 10, 55, 0
3, 91200, Note_on_c, 10, 55, 80
3, 91679, Note_on_c, 10, 55, 0
3, 91680, Note_on_c, 10, 55, 80
3, 92159, Note_on_c, 10, 55, 0
3, 92160, Note_on_c, 10, 60, 80
3, 93119, Note_on_c, 10, 60, 0
3, 93120, Note_on_c, 10, 60, 80
3, 93599, Note_on_c, 10, 60, 0
3, 93600, Note_on_c, 10, 60, 80
3, 94079, Note_on_c, 10, 60, 0
3, 94080, Note_on_c, 10, 60, 80
3, 94319, Note_on_c, 10, 60, 0
3, 94320, Note_on_c, 10, 60, 80
3, 94799, Note_on_c, 10, 60, 0
3, 94800, Note_on_c, 10, 60, 80
3, 95039, Note_on_c, 10, 60, 0
3, 95040, Note_on_c, 10, 60, 80
3, 95519, Note_on_c, 10, 60, 0
3, 95520, Note_on_c, 10, 60, 80
3, 95999, Note_on_c, 10, 60, 0
3, 96000, Note_on_c, 10, 57, 80
3, 96959, Note_on_c, 10, 57, 0
3, 96960, Note_on_c, 10, 57, 80
3, 97439, Note_on_c, 10, 57, 0
3, 97440, Note_on_c, 10, 57, 80
3, 97919, Note_on_c, 10, 57, 0
3, 97920, Note_on_c, 10, 57, 80
3, 98159, Note_on_c, 10, 57, 0
3, 98160, Note_on_c, 10, 57, 80
3, 98639, Note_on_c, 10, 57, 0
3, 98640, Note_on_c, 10, 57, 80
3, 98879, Note_on_c, 10, 57, 0
3, 98880, Note_on_c, 10, 57, 80
3, 99359, Note_on_c, 10, 57, 0
3, 99360, Note_on_c, 10, 57, 80
3, 99839, Note_on_c, 10, 57, 0
3, 99840, Note_on_c, 10, 53, 80
3, 100319, Note_on_c, 10, 53, 0
3, 100320, Note_on_c, 10, 53, 80
3, 100799, Note_on_c, 10, 53, 0
3, 100800, Note_on_c, 10, 53, 80
3, 101279, Note_on_c, 10, 53, 0
3, 101280, Note_on_c, 10, 53, 80
3, 101759, Note_on_c, 10, 53, 0
3, 101760, Note_on_c, 10, 53, 80
3, 101999, Note_on_c, 10, 53, 0
3, 102000, Note_on_c, 10, 53, 80
3, 102719, Note_on_c, 10, 53, 0
3, 102720, Note_on_c, 10, 53, 80
3, 103199, Note_on_c, 10, 53, 0
3, 103200, Note_on_c, 10, 53, 80
3, 103679, Note_on_c, 10, 53, 0
3, 103680, Note_on_c, 10, 60, 80
3, 103919, Note_on_c, 10, 60, 0
3, 103920, Note_on_c, 10, 60, 80
3, 104639, Note_on_c, 10, 60, 0
3, 104640, Note_on_c, 10, 60, 80
3, 105119, Note_on_c, 10, 60, 0
3, 105120, Note_on_c, 10, 60, 80
3, 105599, Note_on_c, 10, 60, 0
3, 105600, Note_on_c, 10, 60, 80
3, 105839, Note_on_c, 10, 60, 0
3, 105840, Note_on_c, 10, 60, 80
3, 106559, Note_on_c, 10, 60, 0
3, 106560, Note_on_c, 10, 60, 80
3, 107519, Note_on_c, 10, 60, 0
3, 107520, Note_on_c, 10, 60, 80
3, 107999, Note_on_c, 10, 60, 0
3, 108000, Note_on_c, 10, 60, 80
3, 108479, Note_on_c, 10, 60, 0
3, 108480, Note_on_c, 10, 60, 80
3, 108959, Note_on_c, 10, 60, 0
3, 108960, Note_on_c, 10, 60, 80
3, 109439, Note_on_c, 10, 60, 0
3, 109440, Note_on_c, 10, 60, 80
3, 109919, Note_on_c, 10, 60, 0
3, 109920, Note_on_c, 10, 60, 80
3, 110399, Note_on_c, 10, 60, 0
3, 110400, Note_on_c, 10, 60, 80
3, 110879, Note_on_c, 10, 60, 0
3, 110880, Note_on_c, 10, 60, 80
3, 111359, Note_on_c, 10, 60, 0
3, 111360, Note_on_c, 10, 57, 80
3, 111839, Note_on_c, 10, 57, 0
3, 111840, Note_on_c, 10, 57, 80
3, 112319, Note_on_c, 10, 57, 0
3, 112320, Note_on_c, 10, 57, 80
3, 112799, Note_on_c, 10, 57, 0
3, 112800, Note_on_c, 10, 57, 80
3, 113279, Note_on_c, 10, 57, 0
3, 113280, Note_on_c, 10, 57, 80
3, 113759, Note_on_c, 10, 57, 0
3, 113760, Note_on_c, 10, 57, 80
3, 114239, Note_on_c, 10, 57, 0
3, 114240, Note_on_c, 10, 57, 80
3, 114719, Note_on_c, 10, 57, 0
3, 114720, Note_on_c, 10, 57, 80
3, 115199, Note_on_c, 10, 57, 0
3, 115200, Note_on_c, 10, 53, 80
3, 115679, Note_on_c, 10, 53, 0
3, 115680, Note_on_c, 10, 53, 80
3, 116159, Note_on_c, 10, 53, 0
3, 116160, Note_on_c, 10, 53, 80
3, 116639, Note_on_c, 10, 53, 0
3, 116640, Note_on_c, 10, 53, 80
3, 117119, Note_on_c, 10, 53, 0
3, 117120, Note_on_c, 10, 53, 80
3, 117599, Note_on_c, 10, 53, 0
3, 117600, Note_on_c, 10, 53, 80
3, 118079, Note_on_c, 10, 53, 0
3, 118080, Note_on_c, 10, 53, 80
3, 118559, Note_on_c, 10, 53, 0
3, 118560, Note_on_c, 10, 53, 80
3, 119039, Note_on_c, 10, 53, 0
3, 119040, Note_on_c, 10, 48, 80
3, 119519, Note_on_c, 10, 48, 0
3, 119520, Note_on_c, 10, 48, 80
3, 119999, Note_on_c, 10, 48, 0
3, 120000, Note_on_c, 10, 48, 80
3, 120479, Note_on_c, 10, 48, 0
3, 120480, Note_on_c, 10, 48, 80
3, 120959, Note_on_c, 10, 48, 0
3, 120960, Note_on_c, 10, 48, 80
3, 121439, Note_on_c, 10, 48, 0
3, 121440, Note_on_c, 10, 48, 80
3, 121919, Note_on_c, 10, 48, 0
3, 121920, Note_on_c, 10, 48, 80
3, 122399, Note_on_c, 10, 48, 0
3, 122400, Note_on_c, 10, 48, 80
3, 122879, Note_on_c, 10, 48, 0
3, 122880, Note_on_c, 10, 60, 80
3, 123359, Note_on_c, 10, 60, 0
3, 123360, Note_on_c, 10, 60, 80
3, 123839, Note_on_c, 10, 60, 0
3, 123840, Note_on_c, 10, 60, 80
3, 124319, Note_on_c, 10, 60, 0
3, 124320, Note_on_c, 10, 60, 80
3, 124799, Note_on_c, 10, 60, 0
3, 124800, Note_on_c, 10, 60, 80
3, 125279, Note_on_c, 10, 60, 0
3, 125280, Note_on_c, 10, 60, 80
3, 125759, Note_on_c, 10, 60, 0
3, 125760, Note_on_c, 10, 60, 80
3, 126239, Note_on_c, 10, 60, 0
3, 126240, Note_on_c, 10, 60, 80
3, 126719, Note_on_c, 10, 60, 0
3, 126720, Note_on_c, 10, 57, 80
3, 127199, Note_on_c, 10, 57, 0
3, 127200, Note_on_c, 10, 57, 80
3, 127679, Note_on_c, 10, 57, 0
3, 127680, Note_on_c, 10, 57, 80
3, 128159, Note_on_c, 10, 57, 0
3, 128160, Note_on_c, 10, 57, 80
3, 128639, Note_on_c, 10, 57, 0
3, 128640, Note_on_c, 10, 57, 80
3, 129119, Note_on_c, 10, 57, 0
3, 129120, Note_on_c, 10, 57, 80
3, 129599, Note_on_c, 10, 57, 0
3, 129600, Note_on_c, 10, 57, 80
3, 130079, Note_on_c, 10, 57, 0
3, 130080, Note_on_c, 10, 57, 80
3, 130559, Note_on_c, 10, 57, 0
3, 130560, Note_on_c, 10, 53, 80
3, 131039, Note_on_c, 10, 53, 0
3, 131040, Note_on_c, 10, 53, 80
3, 131519, Note_on_c, 10, 53, 0
3, 131520, Note_on_c, 10, 53, 80
3, 131999, Note_on_c, 10, 53, 0
3, 132000, Note_on_c, 10, 53, 80
3, 132479, Note_on_c, 10, 53, 0
3, 132480, Note_on_c, 10, 53, 80
3, 132959, Note_on_c, 10, 53, 0
3, 132960, Note_on_c, 10, 53, 80
3, 133439, Note_on_c, 10, 53, 0
3, 133440, Note_on_c, 10, 53, 80
3, 133919, Note_on_c, 10, 53, 0
3, 133920, Note_on_c, 10, 53, 80
3, 134399, Note_on_c, 10, 53, 0
3, 134400, Note_on_c, 10, 48, 80
3, 134879, Note_on_c, 10, 48, 0
3, 134880, Note_on_c, 10, 48, 80
3, 135359, Note_on_c, 10, 48, 0
3, 135360, Note_on_c, 10, 48, 80
3, 135839, Note_on_c, 10, 48, 0
3, 135840, Note_on_c, 10, 48, 80
3, 136319, Note_on_c, 10, 48, 0
3, 136320, Note_on_c, 10, 48, 80
3, 136799, Note_on_c, 10, 48, 0
3, 136800, Note_on_c, 10, 48, 80
3, 137279, Note_on_c, 10, 48, 0
3, 137280, Note_on_c, 10, 48, 80
3, 137759, Note_on_c, 10, 48, 0
3, 137760, Note_on_c, 10, 48, 80
3, 138239, Note_on_c, 10, 48, 0
3, 138240, Note_on_c, 10, 60, 80
3, 138719, Note_on_c, 10, 60, 0
3, 138720, Note_on_c, 10, 60, 80
3, 139199, Note_on_c, 10, 60, 0
3, 139200, Note_on_c, 10, 60, 80
3, 139679, Note_on_c, 10, 60, 0
3, 139680, Note_on_c, 10, 60, 80
3, 140159, Note_on_c, 10, 60, 0
3, 140160, Note_on_c, 10, 60, 80
3, 140639, Note_on_c, 10, 60, 0
3, 140640, Note_on_c, 10, 60, 80
3, 141119, Note_on_c, 10, 60, 0
3, 141120, Note_on_c, 10, 60, 80
3, 141599, Note_on_c, 10, 60, 0
3, 141600, Note_on_c, 10, 60, 80
3, 142079, Note_on_c, 10, 60, 0
3, 142080, Note_on_c, 10, 57, 80
3, 142559, Note_on_c, 10, 57, 0
3, 142560, Note_on_c, 10, 57, 80
3, 143039, Note_on_c, 10, 57, 0
3, 143040, Note_on_c, 10, 57, 80
3, 143519, Note_on_c, 10, 57, 0
3, 143520, Note_on_c, 10, 57, 80
3, 143999, Note_on_c, 10, 57, 0
3, 144000, Note_on_c, 10, 57, 80
3, 144479, Note_on_c, 10, 57, 0
3, 144480, Note_on_c, 10, 57, 80
3, 144959, Note_on_c, 10, 57, 0
3, 144960, Note_on_c, 10, 57, 80
3, 145439, Note_on_c, 10, 57, 0
3, 145440, Note_on_c, 10, 57, 80
3, 145919, Note_on_c, 10, 57, 0
3, 145920, Note_on_c, 10, 53, 80
3, 146399, Note_on_c, 10, 53, 0
3, 146400, Note_on_c, 10, 53, 80
3, 146879, Note_on_c, 10, 53, 0
3, 146880, Note_on_c, 10, 53, 80
3, 147359, Note_on_c, 10, 53, 0
3, 147360, Note_on_c, 10, 53, 80
3, 147839, Note_on_c, 10, 53, 0
3, 147840, Note_on_c, 10, 53, 80
3, 148319, Note_on_c, 10, 53, 0
3, 148320, Note_on_c, 10, 53, 80
3, 148799, Note_on_c, 10, 53, 0
3, 148800, Note_on_c, 10, 53, 80
3, 149279, Note_on_c, 10, 53, 0
3, 149280, Note_on_c, 10, 53, 80
3, 149759, Note_on_c, 10, 53, 0
3, 149760, Note_on_c, 10, 48, 80
3, 150239, Note_on_c, 10, 48, 0
3, 150240, Note_on_c, 10, 48, 80
3, 150719, Note_on_c, 10, 48, 0
3, 150720, Note_on_c, 10, 48, 80
3, 151199, Note_on_c, 10, 48, 0
3, 151200, Note_on_c, 10, 48, 80
3, 151679, Note_on_c, 10, 48, 0
3, 151680, Note_on_c, 10, 48, 80
3, 152159, Note_on_c, 10, 48, 0
3, 152160, Note_on_c, 10, 48, 80
3, 152639, Note_on_c, 10, 48, 0
3, 152640, Note_on_c, 10, 48, 80
3, 153119, Note_on_c, 10, 48, 0
3, 153120, Note_on_c, 10, 48, 80
3, 153599, Note_on_c, 10, 48, 0
3, 153600, Note_on_c, 10, 60, 80
3, 153839, Note_on_c, 10, 60, 0
3, 153840, Note_on_c, 10, 60, 80
3, 154559, Note_on_c, 10, 60, 0
3, 154560, Note_on_c, 10, 60, 80
3, 155039, Note_on_c, 10, 60, 0
3, 155040, Note_on_c, 10, 60, 80
3, 155519, Note_on_c, 10, 60, 0
3, 155520, Note_on_c, 10, 60, 80
3, 155759, Note_on_c, 10, 60, 0
3, 155760, Note_on_c, 10, 60, 80
3, 156479, Note_on_c, 10, 60, 0
3, 156480, Note_on_c, 10, 60, 80
3, 156959, Note_on_c, 10, 60, 0
3, 156960, Note_on_c, 10, 60, 80
3, 157439, Note_on_c, 10, 60, 0
3, 157440, Note_on_c, 10, 57, 80
3, 157679, Note_on_c, 10, 57, 0
3, 157680, Note_on_c, 10, 57, 80
3, 158399, Note_on_c, 10, 57, 0
3, 158400, Note_on_c, 10, 57, 80
3, 158879, Note_on_c, 10, 57, 0
3, 158880, Note_on_c, 10, 57, 80
3, 159359, Note_on_c, 10, 57, 0
3, 159360, Note_on_c, 10, 57, 80
3, 159599, Note_on_c, 10, 57, 0
3, 159600, Note_on_c, 10, 57, 80
3, 160079, Note_on_c, 10, 57, 0
3, 160080, Note_on_c, 10, 57, 80
3, 160319, Note_on_c, 10, 57, 0
3, 160320, Note_on_c, 10, 57, 80
3, 160799, Note_on_c, 10, 57, 0
3, 160800, Note_on_c, 10, 57, 80
3, 161279, Note_on_c, 10, 57, 0
3, 161280, Note_on_c, 10, 53, 80
3, 161759, Note_on_c, 10, 53, 0
3, 161760, Note_on_c, 10, 53, 80
3, 162239, Note_on_c, 10, 53, 0
3, 162240, Note_on_c, 10, 53, 80
3, 162719, Note_on_c, 10, 53, 0
3, 162720, Note_on_c, 10, 53, 80
3, 163199, Note_on_c, 10, 53, 0
3, 163200, Note_on_c, 10, 53, 80
3, 163439, Note_on_c, 10, 53, 0
3, 163440, Note_on_c, 10, 53, 80
3, 164159, Note_on_c, 10, 53, 0
3, 164160, Note_on_c, 10, 53, 80
3, 165119, Note_on_c, 10, 53, 0
3, 165120, Note_on_c, 10, 60, 80
3, 165359, Note_on_c, 10, 60, 0
3, 165360, Note_on_c, 10, 60, 80
3, 166079, Note_on_c, 10, 60, 0
3, 166080, Note_on_c, 10, 60, 80
3, 166559, Note_on_c, 10, 60, 0
3, 166560, Note_on_c, 10, 60, 80
3, 167039, Note_on_c, 10, 60, 0
3, 167040, Note_on_c, 10, 60, 80
3, 167279, Note_on_c, 10, 60, 0
3, 167280, Note_on_c, 10, 60, 80
3, 167999, Note_on_c, 10, 60, 0
3, 168000, Note_on_c, 10, 60, 80
3, 168479, Note_on_c, 10, 60, 0
3, 168480, Note_on_c, 10, 60, 80
3, 168959, Note_on_c, 10, 60, 0
3, 168960, Note_on_c, 10, 60, 80
3, 169199, Note_on_c, 10, 60, 0
3, 169200, Note_on_c, 10, 60, 80
3, 169919, Note_on_c, 10, 60, 0
3, 169920, Note_on_c, 10, 60, 80
3, 170399, Note_on_c, 10, 60, 0
3, 170400, Note_on_c, 10, 60, 80
3, 170879, Note_on_c, 10, 60, 0
3, 170880, Note_on_c, 10, 60, 80
3, 171119, Note_on_c, 10, 60, 0
3, 171120, Note_on_c, 10, 60, 80
3, 171839, Note_on_c, 10, 60, 0
3, 171840, Note_on_c, 10, 60, 80
3, 172319, Note_on_c, 10, 60, 0
3, 172320, Note_on_c, 10, 60, 80
3, 172799, Note_on_c, 10, 60, 0
3, 172800, Note_on_c, 10, 57, 80
3, 173039, Note_on_c, 10, 57, 0
3, 173040, Note_on_c, 10, 57, 80
3, 173759, Note_on_c, 10, 57, 0
3, 173760, Note_on_c, 10, 57, 80
3, 174239, Note_on_c, 10, 57, 0
3, 174240, Note_on_c, 10, 57, 80
3, 174719, Note_on_c, 10, 57, 0
3, 174720, Note_on_c, 10, 57, 80
3, 174959, Note_on_c, 10, 57, 0
3, 174960, Note_on_c, 10, 57, 80
3, 175439, Note_on_c, 10, 57, 0
3, 175440, Note_on_c, 10, 57, 80
3, 175679, Note_on_c, 10, 57, 0
3, 175680, Note_on_c, 10, 57, 80
3, 176159, Note_on_c, 10, 57, 0
3, 176160, Note_on_c, 10, 57, 80
3, 176639, Note_on_c, 10, 57, 0
3, 176640, Note_on_c, 10, 53, 80
3, 177119, Note_on_c, 10, 53, 0
3, 177120, Note_on_c, 10, 53, 80
3, 177599, Note_on_c, 10, 53, 0
3, 177600, Note_on_c, 10, 53, 80
3, 178079, Note_on_c, 10, 53, 0
3, 178080, Note_on_c, 10, 53, 80
3, 178559, Note_on_c, 10, 53, 0
3, 178560, Note_on_c, 10, 53, 80
3, 178799, Note_on_c, 10, 53, 0
3, 178800, Note_on_c, 10, 53, 80
3, 179519, Note_on_c, 10, 53, 0
3, 179520, Note_on_c, 10, 53, 80
3, 180479, Note_on_c, 10, 53, 0
3, 180480, Note_on_c, 10, 60, 80
3, 180719, Note_on_c, 10, 60, 0
3, 180720, Note_on_c, 10, 60, 80
3, 181439, Note_on_c, 10, 60, 0
3, 181440, Note_on_c, 10, 60, 80
3, 181919, Note_on_c, 10, 60, 0
3, 181920, Note_on_c, 10, 60, 80
3, 182399, Note_on_c, 10, 60, 0
3, 182400, Note_on_c, 10, 60, 80
3, 184319, Note_on_c, 10, 60, 0
3, 184320, End_track
4, 0, Start_track
4, 0, Title_t, "Bell, Bell\000"
4, 0, Key_signature, 0, "major"
4, 0, Control_c, 1, 121, 0
4, 0, Program_c, 1, 14
4, 0, Control_c, 1, 7, 100
4, 0, Control_c, 1, 10, 64
4, 0, Control_c, 1, 91, 0
4, 0, Control_c, 1, 93, 0
4, 0, MIDI_port, 0
4, 44640, Note_on_c, 1, 62, 80
4, 44640, Control_c, 1, 2, 80
4, 44879, Note_on_c, 1, 62, 0
4, 44880, Note_on_c, 1, 62, 80
4, 44880, Control_c, 1, 2, 80
4, 45119, Note_on_c, 1, 62, 0
4, 45120, Note_on_c, 1, 67, 80
4, 45120, Control_c, 1, 2, 80
4, 45359, Note_on_c, 1, 67, 0
4, 45360, Note_on_c, 1, 69, 80
4, 45360, Control_c, 1, 2, 80
4, 45839, Note_on_c, 1, 69, 0
4, 45840, Note_on_c, 1, 71, 80
4, 45840, Control_c, 1, 2, 80
4, 46080, Control_c, 1, 2, 80
4, 48000, Control_c, 1, 2, 80
4, 48479, Note_on_c, 1, 71, 0
4, 48720, Note_on_c, 1, 62, 80
4, 48720, Control_c, 1, 2, 80
4, 48959, Note_on_c, 1, 62, 0
4, 48960, Note_on_c, 1, 67, 80
4, 48960, Control_c, 1, 2, 80
4, 49199, Note_on_c, 1, 67, 0
4, 49200, Note_on_c, 1, 69, 80
4, 49200, Control_c, 1, 2, 80
4, 49679, Note_on_c, 1, 69, 0
4, 49680, Note_on_c, 1, 71, 80
4, 49680, Control_c, 1, 2, 80
4, 49920, Control_c, 1, 2, 80
4, 50159, Note_on_c, 1, 71, 0
4, 50160, Note_on_c, 1, 69, 80
4, 50160, Control_c, 1, 2, 80
4, 50639, Note_on_c, 1, 69, 0
4, 50640, Note_on_c, 1, 67, 80
4, 50640, Control_c, 1, 2, 80
4, 50880, Control_c, 1, 2, 80
4, 51119, Note_on_c, 1, 67, 0
4, 51120, Note_on_c, 1, 69, 80
4, 51120, Control_c, 1, 2, 80
4, 51599, Note_on_c, 1, 69, 0
4, 51600, Note_on_c, 1, 67, 80
4, 51600, Control_c, 1, 2, 80
4, 51840, Control_c, 1, 2, 80
4, 52319, Note_on_c, 1, 67, 0
4, 52800, Note_on_c, 1, 67, 80
4, 52800, Control_c, 1, 2, 80
4, 53039, Note_on_c, 1, 67, 0
4, 53040, Note_on_c, 1, 67, 80
4, 53040, Control_c, 1, 2, 80
4, 53279, Note_on_c, 1, 67, 0
4, 53280, Note_on_c, 1, 69, 80
4, 53280, Control_c, 1, 2, 80
4, 53519, Note_on_c, 1, 69, 0
4, 53520, Note_on_c, 1, 71, 80
4, 53520, Control_c, 1, 2, 80
4, 53760, Control_c, 1, 2, 80
4, 53999, Note_on_c, 1, 71, 0
4, 54000, Note_on_c, 1, 69, 80
4, 54000, Control_c, 1, 2, 80
4, 54720, Control_c, 1, 2, 80
4, 55199, Note_on_c, 1, 69, 0
4, 55440, Note_on_c, 1, 72, 80
4, 55440, Control_c, 1, 2, 80
4, 55680, Control_c, 1, 2, 80
4, 55919, Note_on_c, 1, 72, 0
4, 55920, Note_on_c, 1, 71, 80
4, 55920, Control_c, 1, 2, 80
4, 56399, Note_on_c, 1, 71, 0
4, 56400, Note_on_c, 1, 67, 80
4, 56400, Control_c, 1, 2, 80
4, 56640, Control_c, 1, 2, 80
4, 56879, Note_on_c, 1, 67, 0
4, 56880, Note_on_c, 1, 69, 80
4, 56880, Control_c, 1, 2, 80
4, 57359, Note_on_c, 1, 69, 0
4, 57360, Note_on_c, 1, 67, 80
4, 57360, Control_c, 1, 2, 80
4, 57600, Control_c, 1, 2, 80
4, 59519, Note_on_c, 1, 67, 0
4, 60240, Note_on_c, 1, 74, 80
4, 60240, Control_c, 1, 2, 80
4, 60479, Note_on_c, 1, 74, 0
4, 60480, Note_on_c, 1, 79, 80
4, 60480, Control_c, 1, 2, 80
4, 60719, Note_on_c, 1, 79, 0
4, 60720, Note_on_c, 1, 81, 80
4, 60720, Control_c, 1, 2, 80
4, 61199, Note_on_c, 1, 81, 0
4, 61200, Note_on_c, 1, 83, 80
4, 61200, Control_c, 1, 2, 80
4, 61440, Control_c, 1, 2, 80
4, 63360, Control_c, 1, 2, 80
4, 63839, Note_on_c, 1, 83, 0
4, 64080, Note_on_c, 1, 74, 80
4, 64080, Control_c, 1, 2, 80
4, 64319, Note_on_c, 1, 74, 0
4, 64320, Note_on_c, 1, 79, 80
4, 64320, Control_c, 1, 2, 80
4, 64559, Note_on_c, 1, 79, 0
4, 64560, Note_on_c, 1, 81, 80
4, 64560, Control_c, 1, 2, 80
4, 65039, Note_on_c, 1, 81, 0
4, 65040, Note_on_c, 1, 83, 80
4, 65040, Control_c, 1, 2, 80
4, 65279, Note_on_c, 1, 83, 0
4, 65280, Note_on_c, 1, 81, 80
4, 65280, Control_c, 1, 2, 80
4, 65519, Note_on_c, 1, 81, 0
4, 65520, Note_on_c, 1, 81, 80
4, 65520, Control_c, 1, 2, 80
4, 65999, Note_on_c, 1, 81, 0
4, 66000, Note_on_c, 1, 79, 80
4, 66000, Control_c, 1, 2, 80
4, 66240, Control_c, 1, 2, 80
4, 66479, Note_on_c, 1, 79, 0
4, 66480, Note_on_c, 1, 79, 80
4, 66480, Control_c, 1, 2, 80
4, 66719, Note_on_c, 1, 79, 0
4, 66720, Note_on_c, 1, 81, 80
4, 66720, Control_c, 1, 2, 80
4, 66959, Note_on_c, 1, 81, 0
4, 66960, Note_on_c, 1, 79, 80
4, 66960, Control_c, 1, 2, 80
4, 67200, Control_c, 1, 2, 80
4, 67679, Note_on_c, 1, 79, 0
4, 67920, Note_on_c, 1, 74, 80
4, 67920, Control_c, 1, 2, 80
4, 68159, Note_on_c, 1, 74, 0
4, 68160, Note_on_c, 1, 79, 80
4, 68160, Control_c, 1, 2, 80
4, 68399, Note_on_c, 1, 79, 0
4, 68400, Note_on_c, 1, 79, 80
4, 68400, Control_c, 1, 2, 80
4, 68639, Note_on_c, 1, 79, 0
4, 68640, Note_on_c, 1, 81, 80
4, 68640, Control_c, 1, 2, 80
4, 68879, Note_on_c, 1, 81, 0
4, 68880, Note_on_c, 1, 83, 80
4, 68880, Control_c, 1, 2, 80
4, 69119, Note_on_c, 1, 83, 0
4, 69120, Note_on_c, 1, 81, 80
4, 69120, Control_c, 1, 2, 80
4, 69359, Note_on_c, 1, 81, 0
4, 69360, Note_on_c, 1, 81, 80
4, 69360, Control_c, 1, 2, 80
4, 70080, Control_c, 1, 2, 80
4, 70559, Note_on_c, 1, 81, 0
4, 70800, Note_on_c, 1, 84, 80
4, 70800, Control_c, 1, 2, 80
4, 71040, Control_c, 1, 2, 80
4, 71279, Note_on_c, 1, 84, 0
4, 71280, Note_on_c, 1, 83, 80
4, 71280, Control_c, 1, 2, 80
4, 71759, Note_on_c, 1, 83, 0
4, 71760, Note_on_c, 1, 79, 80
4, 71760, Control_c, 1, 2, 80
4, 72000, Control_c, 1, 2, 80
4, 72239, Note_on_c, 1, 79, 0
4, 72240, Note_on_c, 1, 81, 80
4, 72240, Control_c, 1, 2, 80
4, 72719, Note_on_c, 1, 81, 0
4, 72720, Note_on_c, 1, 79, 80
4, 72720, Control_c, 1, 2, 80
4, 72960, Control_c, 1, 2, 80
4, 74879, Note_on_c, 1, 79, 0
4, 152160, Note_on_c, 1, 72, 80
4, 152160, Control_c, 1, 2, 80
4, 152399, Note_on_c, 1, 72, 0
4, 152400, Note_on_c, 1, 74, 80
4, 152400, Control_c, 1, 2, 80
4, 152640, Control_c, 1, 2, 80
4, 152879, Note_on_c, 1, 74, 0
4, 152880, Note_on_c, 1, 72, 80
4, 152880, Control_c, 1, 2, 80
4, 153359, Note_on_c, 1, 72, 0
4, 153360, Note_on_c, 1, 79, 80
4, 153360, Control_c, 1, 2, 80
4, 153600, Control_c, 1, 2, 80
4, 155519, Note_on_c, 1, 79, 0
4, 156000, Note_on_c, 1, 72, 80
4, 156000, Control_c, 1, 2, 80
4, 156239, Note_on_c, 1, 72, 0
4, 156240, Note_on_c, 1, 74, 80
4, 156240, Control_c, 1, 2, 80
4, 156480, Control_c, 1, 2, 80
4, 156719, Note_on_c, 1, 74, 0
4, 156720, Note_on_c, 1, 72, 80
4, 156720, Control_c, 1, 2, 80
4, 157199, Note_on_c, 1, 72, 0
4, 157200, Note_on_c, 1, 79, 80
4, 157200, Control_c, 1, 2, 80
4, 157440, Control_c, 1, 2, 80
4, 158159, Note_on_c, 1, 79, 0
4, 158160, Note_on_c, 1, 76, 80
4, 158160, Control_c, 1, 2, 80
4, 158400, Control_c, 1, 2, 80
4, 159359, Note_on_c, 1, 76, 0
4, 159840, Note_on_c, 1, 72, 80
4, 159840, Control_c, 1, 2, 80
4, 160079, Note_on_c, 1, 72, 0
4, 160080, Note_on_c, 1, 74, 80
4, 160320, Control_c, 1, 2, 80
4, 160559, Note_on_c, 1, 74, 0
4, 160560, Note_on_c, 1, 72, 80
4, 160560, Control_c, 1, 2, 80
4, 161039, Note_on_c, 1, 72, 0
4, 161040, Note_on_c, 1, 79, 80
4, 161040, Control_c, 1, 2, 80
4, 161280, Control_c, 1, 2, 80
4, 163199, Note_on_c, 1, 79, 0
4, 163680, Note_on_c, 1, 72, 80
4, 163680, Control_c, 1, 2, 80
4, 163919, Note_on_c, 1, 72, 0
4, 163920, Note_on_c, 1, 74, 80
4, 163920, Control_c, 1, 2, 80
4, 164160, Control_c, 1, 2, 80
4, 164399, Note_on_c, 1, 74, 0
4, 164400, Note_on_c, 1, 72, 80
4, 164400, Control_c, 1, 2, 80
4, 164879, Note_on_c, 1, 72, 0
4, 164880, Note_on_c, 1, 79, 80
4, 164880, Control_c, 1, 2, 80
4, 165120, Control_c, 1, 2, 80
4, 165839, Note_on_c, 1, 79, 0
4, 165840, Note_on_c, 1, 76, 80
4, 167039, Note_on_c, 1, 76, 0
4, 167520, Note_on_c, 1, 72, 80
4, 167759, Note_on_c, 1, 72, 0
4, 167760, Note_on_c, 1, 74, 80
4, 167760, Control_c, 1, 2, 80
4, 168000, Control_c, 1, 2, 80
4, 168239, Note_on_c, 1, 74, 0
4, 168240, Note_on_c, 1, 72, 80
4, 168240, Control_c, 1, 2, 80
4, 168719, Note_on_c, 1, 72, 0
4, 168720, Note_on_c, 1, 79, 80
4, 168720, Control_c, 1, 2, 80
4, 168959, Note_on_c, 1, 79, 0
4, 171360, Note_on_c, 1, 72, 80
4, 171360, Control_c, 1, 2, 80
4, 171599, Note_on_c, 1, 72, 0
4, 171600, Note_on_c, 1, 74, 80
4, 171600, Control_c, 1, 2, 80
4, 171840, Control_c, 1, 2, 80
4, 172079, Note_on_c, 1, 74, 0
4, 172080, Note_on_c, 1, 72, 80
4, 172080, Control_c, 1, 2, 80
4, 172559, Note_on_c, 1, 72, 0
4, 172560, Note_on_c, 1, 79, 80
4, 172560, Control_c, 1, 2, 80
4, 172800, Control_c, 1, 2, 80
4, 173519, Note_on_c, 1, 79, 0
4, 173520, Note_on_c, 1, 76, 80
4, 173520, Control_c, 1, 2, 80
4, 173760, Control_c, 1, 2, 80
4, 174719, Note_on_c, 1, 76, 0
4, 175680, Note_on_c, 1, 72, 80
4, 175680, Control_c, 1, 2, 80
4, 175919, Note_on_c, 1, 72, 0
4, 175920, Note_on_c, 1, 72, 80
4, 175920, Control_c, 1, 2, 80
4, 176159, Note_on_c, 1, 72, 0
4, 176160, Note_on_c, 1, 74, 80
4, 176160, Control_c, 1, 2, 80
4, 176399, Note_on_c, 1, 74, 0
4, 176400, Note_on_c, 1, 76, 80
4, 176400, Control_c, 1, 2, 80
4, 176640, Control_c, 1, 2, 80
4, 176879, Note_on_c, 1, 76, 0
4, 176880, Note_on_c, 1, 74, 80
4, 176880, Control_c, 1, 2, 80
4, 177599, Note_on_c, 1, 74, 0
4, 178320, Note_on_c, 1, 77, 80
4, 178320, Control_c, 1, 2, 80
4, 178560, Control_c, 1, 2, 80
4, 178799, Note_on_c, 1, 77, 0
4, 178800, Note_on_c, 1, 76, 80
4, 178800, Control_c, 1, 2, 80
4, 179279, Note_on_c, 1, 76, 0
4, 179280, Note_on_c, 1, 72, 80
4, 179280, Control_c, 1, 2, 80
4, 179520, Control_c, 1, 2, 80
4, 179759, Note_on_c, 1, 72, 0
4, 179760, Note_on_c, 1, 74, 80
4, 179760, Control_c, 1, 2, 80
4, 180239, Note_on_c, 1, 74, 0
4, 180240, Note_on_c, 1, 72, 80
4, 180240, Control_c, 1, 2, 80
4, 180480, Control_c, 1, 2, 80
4, 182399, Note_on_c, 1, 72, 0
4, 182400, End_track
5, 0, Start_track
5, 0, Title_t, "Classical Guitar, Lute\000"
5, 0, Key_signature, 0, "major"
5, 0, Control_c, 3, 121, 0
5, 0, Program_c, 3, 24
5, 0, Control_c, 3, 7, 100
5, 0, Control_c, 3, 10, 64
5, 0, Control_c, 3, 91, 0
5, 0, Control_c, 3, 93, 0
5, 0, MIDI_port, 0
5, 0, Control_c, 6, 121, 0
5, 0, Program_c, 6, 28
5, 0, Control_c, 6, 7, 100
5, 0, Control_c, 6, 10, 64
5, 0, Control_c, 6, 91, 0
5, 0, Control_c, 6, 93, 0
5, 0, MIDI_port, 0
5, 240, Note_on_c, 3, 59, 80
5, 240, Note_on_c, 3, 62, 80
5, 240, Note_on_c, 3, 67, 80
5, 479, Note_on_c, 3, 59, 0
5, 479, Note_on_c, 3, 62, 0
5, 479, Note_on_c, 3, 67, 0
5, 720, Note_on_c, 3, 59, 80
5, 720, Note_on_c, 3, 62, 80
5, 720, Note_on_c, 3, 67, 80
5, 959, Note_on_c, 3, 59, 0
5, 959, Note_on_c, 3, 62, 0
5, 959, Note_on_c, 3, 67, 0
5, 1200, Note_on_c, 3, 59, 80
5, 1200, Note_on_c, 3, 62, 80
5, 1200, Note_on_c, 3, 67, 80
5, 1439, Note_on_c, 3, 59, 0
5, 1439, Note_on_c, 3, 62, 0
5, 1439, Note_on_c, 3, 67, 0
5, 1680, Note_on_c, 3, 59, 80
5, 1680, Note_on_c, 3, 62, 80
5, 1680, Note_on_c, 3, 67, 80
5, 1919, Note_on_c, 3, 59, 0
5, 1919, Note_on_c, 3, 62, 0
5, 1919, Note_on_c, 3, 67, 0
5, 2160, Note_on_c, 3, 59, 80
5, 2160, Note_on_c, 3, 62, 80
5, 2160, Note_on_c, 3, 67, 80
5, 2399, Note_on_c, 3, 59, 0
5, 2399, Note_on_c, 3, 62, 0
5, 2399, Note_on_c, 3, 67, 0
5, 2640, Note_on_c, 3, 59, 80
5, 2640, Note_on_c, 3, 62, 80
5, 2640, Note_on_c, 3, 67, 80
5, 2879, Note_on_c, 3, 59, 0
5, 2879, Note_on_c, 3, 62, 0
5, 2879, Note_on_c, 3, 67, 0
5, 3120, Note_on_c, 3, 59, 80
5, 3120, Note_on_c, 3, 62, 80
5, 3120, Note_on_c, 3, 67, 80
5, 3359, Note_on_c, 3, 59, 0
5, 3359, Note_on_c, 3, 62, 0
5, 3359, Note_on_c, 3, 67, 0
5, 3600, Note_on_c, 3, 59, 80
5, 3600, Note_on_c, 3, 62, 80
5, 3600, Note_on_c, 3, 67, 80
5, 3839, Note_on_c, 3, 59, 0
5, 3839, Note_on_c, 3, 62, 0
5, 3839, Note_on_c, 3, 67, 0
5, 4080, Note_on_c, 3, 59, 80
5, 4080, Note_on_c, 3, 64, 80
5, 4080, Note_on_c, 3, 67, 80
5, 4319, Note_on_c, 3, 59, 0
5, 4319, Note_on_c, 3, 64, 0
5, 4319, Note_on_c, 3, 67, 0
5, 4560, Note_on_c, 3, 59, 80
5, 4560, Note_on_c, 3, 64, 80
5, 4560, Note_on_c, 3, 67, 80
5, 4799, Note_on_c, 3, 59, 0
5, 4799, Note_on_c, 3, 64, 0
5, 4799, Note_on_c, 3, 67, 0
5, 5040, Note_on_c, 3, 59, 80
5, 5040, Note_on_c, 3, 64, 80
5, 5040, Note_on_c, 3, 67, 80
5, 5279, Note_on_c, 3, 59, 0
5, 5279, Note_on_c, 3, 64, 0
5, 5279, Note_on_c, 3, 67, 0
5, 5520, Note_on_c, 3, 59, 80
5, 5520, Note_on_c, 3, 64, 80
5, 5520, Note_on_c, 3, 67, 80
5, 5759, Note_on_c, 3, 59, 0
5, 5759, Note_on_c, 3, 64, 0
5, 5759, Note_on_c, 3, 67, 0
5, 6000, Note_on_c, 3, 59, 80
5, 6000, Note_on_c, 3, 64, 80
5, 6000, Note_on_c, 3, 67, 80
5, 6239, Note_on_c, 3, 59, 0
5, 6239, Note_on_c, 3, 64, 0
5, 6239, Note_on_c, 3, 67, 0
5, 6480, Note_on_c, 3, 59, 80
5, 6480, Note_on_c, 3, 64, 80
5, 6480, Note_on_c, 3, 67, 80
5, 6719, Note_on_c, 3, 59, 0
5, 6719, Note_on_c, 3, 64, 0
5, 6719, Note_on_c, 3, 67, 0
5, 6960, Note_on_c, 3, 59, 80
5, 6960, Note_on_c, 3, 64, 80
5, 6960, Note_on_c, 3, 67, 80
5, 7199, Note_on_c, 3, 59, 0
5, 7199, Note_on_c, 3, 64, 0
5, 7199, Note_on_c, 3, 67, 0
5, 7440, Note_on_c, 3, 59, 80
5, 7440, Note_on_c, 3, 64, 80
5, 7440, Note_on_c, 3, 67, 80
5, 7679, Note_on_c, 3, 59, 0
5, 7679, Note_on_c, 3, 64, 0
5, 7679, Note_on_c, 3, 67, 0
5, 7920, Note_on_c, 3, 60, 80
5, 7920, Note_on_c, 3, 64, 80
5, 7920, Note_on_c, 3, 67, 80
5, 8159, Note_on_c, 3, 60, 0
5, 8159, Note_on_c, 3, 64, 0
5, 8159, Note_on_c, 3, 67, 0
5, 8400, Note_on_c, 3, 60, 80
5, 8400, Note_on_c, 3, 64, 80
5, 8400, Note_on_c, 3, 67, 80
5, 8639, Note_on_c, 3, 60, 0
5, 8639, Note_on_c, 3, 64, 0
5, 8639, Note_on_c, 3, 67, 0
5, 8880, Note_on_c, 3, 60, 80
5, 8880, Note_on_c, 3, 64, 80
5, 8880, Note_on_c, 3, 67, 80
5, 9119, Note_on_c, 3, 60, 0
5, 9119, Note_on_c, 3, 64, 0
5, 9119, Note_on_c, 3, 67, 0
5, 9360, Note_on_c, 3, 60, 80
5, 9360, Note_on_c, 3, 64, 80
5, 9360, Note_on_c, 3, 67, 80
5, 9599, Note_on_c, 3, 60, 0
5, 9599, Note_on_c, 3, 64, 0
5, 9599, Note_on_c, 3, 67, 0
5, 9840, Note_on_c, 3, 60, 80
5, 9840, Note_on_c, 3, 64, 80
5, 9840, Note_on_c, 3, 67, 80
5, 10079, Note_on_c, 3, 60, 0
5, 10079, Note_on_c, 3, 64, 0
5, 10079, Note_on_c, 3, 67, 0
5, 10320, Note_on_c, 3, 60, 80
5, 10320, Note_on_c, 3, 64, 80
5, 10320, Note_on_c, 3, 67, 80
5, 10559, Note_on_c, 3, 60, 0
5, 10559, Note_on_c, 3, 64, 0
5, 10559, Note_on_c, 3, 67, 0
5, 10800, Note_on_c, 3, 60, 80
5, 10800, Note_on_c, 3, 64, 80
5, 10800, Note_on_c, 3, 67, 80
5, 11039, Note_on_c, 3, 60, 0
5, 11039, Note_on_c, 3, 64, 0
5, 11039, Note_on_c, 3, 67, 0
5, 11280, Note_on_c, 3, 60, 80
5, 11280, Note_on_c, 3, 64, 80
5, 11280, Note_on_c, 3, 67, 80
5, 11519, Note_on_c, 3, 60, 0
5, 11519, Note_on_c, 3, 64, 0
5, 11519, Note_on_c, 3, 67, 0
5, 11760, Note_on_c, 3, 59, 80
5, 11760, Note_on_c, 3, 62, 80
5, 11760, Note_on_c, 3, 67, 80
5, 11999, Note_on_c, 3, 59, 0
5, 11999, Note_on_c, 3, 62, 0
5, 11999, Note_on_c, 3, 67, 0
5, 12240, Note_on_c, 3, 59, 80
5, 12240, Note_on_c, 3, 62, 80
5, 12240, Note_on_c, 3, 67, 80
5, 12479, Note_on_c, 3, 59, 0
5, 12479, Note_on_c, 3, 62, 0
5, 12479, Note_on_c, 3, 67, 0
5, 12720, Note_on_c, 3, 59, 80
5, 12720, Note_on_c, 3, 62, 80
5, 12720, Note_on_c, 3, 67, 80
5, 12959, Note_on_c, 3, 59, 0
5, 12959, Note_on_c, 3, 62, 0
5, 12959, Note_on_c, 3, 67, 0
5, 13200, Note_on_c, 3, 59, 80
5, 13200, Note_on_c, 3, 62, 80
5, 13200, Note_on_c, 3, 67, 80
5, 13439, Note_on_c, 3, 59, 0
5, 13439, Note_on_c, 3, 62, 0
5, 13439, Note_on_c, 3, 67, 0
5, 13680, Note_on_c, 3, 59, 80
5, 13680, Note_on_c, 3, 62, 80
5, 13680, Note_on_c, 3, 67, 80
5, 13919, Note_on_c, 3, 59, 0
5, 13919, Note_on_c, 3, 62, 0
5, 13919, Note_on_c, 3, 67, 0
5, 14160, Note_on_c, 3, 59, 80
5, 14160, Note_on_c, 3, 62, 80
5, 14160, Note_on_c, 3, 67, 80
5, 14399, Note_on_c, 3, 59, 0
5, 14399, Note_on_c, 3, 62, 0
5, 14399, Note_on_c, 3, 67, 0
5, 14640, Note_on_c, 3, 59, 80
5, 14640, Note_on_c, 3, 62, 80
5, 14640, Note_on_c, 3, 67, 80
5, 14879, Note_on_c, 3, 59, 0
5, 14879, Note_on_c, 3, 62, 0
5, 14879, Note_on_c, 3, 67, 0
5, 15120, Note_on_c, 3, 59, 80
5, 15120, Note_on_c, 3, 62, 80
5, 15120, Note_on_c, 3, 67, 80
5, 15359, Note_on_c, 3, 59, 0
5, 15359, Note_on_c, 3, 62, 0
5, 15359, Note_on_c, 3, 67, 0
5, 15360, Note_on_c, 3, 55, 80
5, 15600, Note_on_c, 3, 59, 80
5, 15600, Note_on_c, 3, 62, 80
5, 15839, Note_on_c, 3, 55, 0
5, 15839, Note_on_c, 3, 59, 0
5, 15839, Note_on_c, 3, 62, 0
5, 15840, Note_on_c, 3, 55, 80
5, 16080, Note_on_c, 3, 59, 80
5, 16080, Note_on_c, 3, 62, 80
5, 16319, Note_on_c, 3, 55, 0
5, 16319, Note_on_c, 3, 59, 0
5, 16319, Note_on_c, 3, 62, 0
5, 16320, Note_on_c, 3, 55, 80
5, 16560, Note_on_c, 3, 59, 80
5, 16560, Note_on_c, 3, 62, 80
5, 16799, Note_on_c, 3, 55, 0
5, 16799, Note_on_c, 3, 59, 0
5, 16799, Note_on_c, 3, 62, 0
5, 16800, Note_on_c, 3, 55, 80
5, 17040, Note_on_c, 3, 59, 80
5, 17040, Note_on_c, 3, 62, 80
5, 17279, Note_on_c, 3, 55, 0
5, 17279, Note_on_c, 3, 59, 0
5, 17279, Note_on_c, 3, 62, 0
5, 17280, Note_on_c, 3, 55, 80
5, 17520, Note_on_c, 3, 59, 80
5, 17520, Note_on_c, 3, 62, 80
5, 17759, Note_on_c, 3, 55, 0
5, 17759, Note_on_c, 3, 59, 0
5, 17759, Note_on_c, 3, 62, 0
5, 17760, Note_on_c, 3, 55, 80
5, 18000, Note_on_c, 3, 59, 80
5, 18000, Note_on_c, 3, 62, 80
5, 18239, Note_on_c, 3, 55, 0
5, 18239, Note_on_c, 3, 59, 0
5, 18239, Note_on_c, 3, 62, 0
5, 18240, Note_on_c, 3, 55, 80
5, 18480, Note_on_c, 3, 59, 80
5, 18480, Note_on_c, 3, 62, 80
5, 18719, Note_on_c, 3, 55, 0
5, 18719, Note_on_c, 3, 59, 0
5, 18719, Note_on_c, 3, 62, 0
5, 18720, Note_on_c, 3, 55, 80
5, 18960, Note_on_c, 3, 59, 80
5, 18960, Note_on_c, 3, 62, 80
5, 19199, Note_on_c, 3, 55, 0
5, 19199, Note_on_c, 3, 59, 0
5, 19199, Note_on_c, 3, 62, 0
5, 19200, Note_on_c, 3, 52, 80
5, 19440, Note_on_c, 3, 59, 80
5, 19440, Note_on_c, 3, 64, 80
5, 19679, Note_on_c, 3, 52, 0
5, 19679, Note_on_c, 3, 59, 0
5, 19679, Note_on_c, 3, 64, 0
5, 19680, Note_on_c, 3, 52, 80
5, 19920, Note_on_c, 3, 59, 80
5, 19920, Note_on_c, 3, 64, 80
5, 20159, Note_on_c, 3, 52, 0
5, 20159, Note_on_c, 3, 59, 0
5, 20159, Note_on_c, 3, 64, 0
5, 20160, Note_on_c, 3, 52, 80
5, 20400, Note_on_c, 3, 59, 80
5, 20400, Note_on_c, 3, 64, 80
5, 20639, Note_on_c, 3, 52, 0
5, 20639, Note_on_c, 3, 59, 0
5, 20639, Note_on_c, 3, 64, 0
5, 20640, Note_on_c, 3, 52, 80
5, 20880, Note_on_c, 3, 59, 80
5, 20880, Note_on_c, 3, 64, 80
5, 21119, Note_on_c, 3, 52, 0
5, 21119, Note_on_c, 3, 59, 0
5, 21119, Note_on_c, 3, 64, 0
5, 21120, Note_on_c, 3, 52, 80
5, 21360, Note_on_c, 3, 59, 80
5, 21360, Note_on_c, 3, 64, 80
5, 21599, Note_on_c, 3, 52, 0
5, 21599, Note_on_c, 3, 59, 0
5, 21599, Note_on_c, 3, 64, 0
5, 21600, Note_on_c, 3, 52, 80
5, 21840, Note_on_c, 3, 59, 80
5, 21840, Note_on_c, 3, 64, 80
5, 22079, Note_on_c, 3, 52, 0
5, 22079, Note_on_c, 3, 59, 0
5, 22079, Note_on_c, 3, 64, 0
5, 22080, Note_on_c, 3, 52, 80
5, 22320, Note_on_c, 3, 59, 80
5, 22320, Note_on_c, 3, 64, 80
5, 22559, Note_on_c, 3, 52, 0
5, 22559, Note_on_c, 3, 59, 0
5, 22559, Note_on_c, 3, 64, 0
5, 22560, Note_on_c, 3, 52, 80
5, 22800, Note_on_c, 3, 59, 80
5, 22800, Note_on_c, 3, 64, 80
5, 23039, Note_on_c, 3, 52, 0
5, 23039, Note_on_c, 3, 59, 0
5, 23039, Note_on_c, 3, 64, 0
5, 23040, Note_on_c, 3, 48, 80
5, 23280, Note_on_c, 3, 60, 80
5, 23280, Note_on_c, 3, 64, 80
5, 23519, Note_on_c, 3, 48, 0
5, 23519, Note_on_c, 3, 60, 0
5, 23519, Note_on_c, 3, 64, 0
5, 23520, Note_on_c, 3, 48, 80
5, 23760, Note_on_c, 3, 60, 80
5, 23760, Note_on_c, 3, 64, 80
5, 23999, Note_on_c, 3, 48, 0
5, 23999, Note_on_c, 3, 60, 0
5, 23999, Note_on_c, 3, 64, 0
5, 24000, Note_on_c, 3, 48, 80
5, 24240, Note_on_c, 3, 60, 80
5, 24240, Note_on_c, 3, 64, 80
5, 24479, Note_on_c, 3, 48, 0
5, 24479, Note_on_c, 3, 60, 0
5, 24479, Note_on_c, 3, 64, 0
5, 24480, Note_on_c, 3, 48, 80
5, 24720, Note_on_c, 3, 60, 80
5, 24720, Note_on_c, 3, 64, 80
5, 24959, Note_on_c, 3, 48, 0
5, 24959, Note_on_c, 3, 60, 0
5, 24959, Note_on_c, 3, 64, 0
5, 24960, Note_on_c, 3, 48, 80
5, 25200, Note_on_c, 3, 60, 80
5, 25200, Note_on_c, 3, 64, 80
5, 25439, Note_on_c, 3, 48, 0
5, 25439, Note_on_c, 3, 60, 0
5, 25439, Note_on_c, 3, 64, 0
5, 25440, Note_on_c, 3, 48, 80
5, 25680, Note_on_c, 3, 60, 80
5, 25680, Note_on_c, 3, 64, 80
5, 25919, Note_on_c, 3, 48, 0
5, 25919, Note_on_c, 3, 60, 0
5, 25919, Note_on_c, 3, 64, 0
5, 25920, Note_on_c, 3, 48, 80
5, 26160, Note_on_c, 3, 60, 80
5, 26160, Note_on_c, 3, 64, 80
5, 26399, Note_on_c, 3, 48, 0
5, 26399, Note_on_c, 3, 60, 0
5, 26399, Note_on_c, 3, 64, 0
5, 26400, Note_on_c, 3, 48, 80
5, 26640, Note_on_c, 3, 60, 80
5, 26640, Note_on_c, 3, 64, 80
5, 26879, Note_on_c, 3, 48, 0
5, 26879, Note_on_c, 3, 60, 0
5, 26879, Note_on_c, 3, 64, 0
5, 26880, Note_on_c, 3, 55, 80
5, 27120, Note_on_c, 3, 59, 80
5, 27120, Note_on_c, 3, 62, 80
5, 27359, Note_on_c, 3, 55, 0
5, 27359, Note_on_c, 3, 59, 0
5, 27359, Note_on_c, 3, 62, 0
5, 27360, Note_on_c, 3, 55, 80
5, 27600, Note_on_c, 3, 59, 80
5, 27600, Note_on_c, 3, 62, 80
5, 27839, Note_on_c, 3, 55, 0
5, 27839, Note_on_c, 3, 59, 0
5, 27839, Note_on_c, 3, 62, 0
5, 27840, Note_on_c, 3, 55, 80
5, 28080, Note_on_c, 3, 59, 80
5, 28080, Note_on_c, 3, 62, 80
5, 28319, Note_on_c, 3, 55, 0
5, 28319, Note_on_c, 3, 59, 0
5, 28319, Note_on_c, 3, 62, 0
5, 28320, Note_on_c, 3, 55, 80
5, 28560, Note_on_c, 3, 59, 80
5, 28560, Note_on_c, 3, 62, 80
5, 28799, Note_on_c, 3, 55, 0
5, 28799, Note_on_c, 3, 59, 0
5, 28799, Note_on_c, 3, 62, 0
5, 28800, Note_on_c, 3, 55, 80
5, 29040, Note_on_c, 3, 59, 80
5, 29040, Note_on_c, 3, 62, 80
5, 29279, Note_on_c, 3, 55, 0
5, 29279, Note_on_c, 3, 59, 0
5, 29279, Note_on_c, 3, 62, 0
5, 29280, Note_on_c, 3, 55, 80
5, 29520, Note_on_c, 3, 59, 80
5, 29520, Note_on_c, 3, 62, 80
5, 29759, Note_on_c, 3, 55, 0
5, 29759, Note_on_c, 3, 59, 0
5, 29759, Note_on_c, 3, 62, 0
5, 29760, Note_on_c, 3, 55, 80
5, 30000, Note_on_c, 3, 59, 80
5, 30000, Note_on_c, 3, 62, 80
5, 30239, Note_on_c, 3, 55, 0
5, 30239, Note_on_c, 3, 59, 0
5, 30239, Note_on_c, 3, 62, 0
5, 30240, Note_on_c, 3, 55, 80
5, 30480, Note_on_c, 3, 59, 80
5, 30480, Note_on_c, 3, 62, 80
5, 30719, Note_on_c, 3, 55, 0
5, 30719, Note_on_c, 3, 59, 0
5, 30719, Note_on_c, 3, 62, 0
5, 30720, Note_on_c, 3, 55, 80
5, 30960, Note_on_c, 3, 59, 80
5, 30960, Note_on_c, 3, 62, 80
5, 31199, Note_on_c, 3, 55, 0
5, 31199, Note_on_c, 3, 59, 0
5, 31199, Note_on_c, 3, 62, 0
5, 31200, Note_on_c, 3, 55, 80
5, 31440, Note_on_c, 3, 59, 80
5, 31440, Note_on_c, 3, 62, 80
5, 31679, Note_on_c, 3, 55, 0
5, 31679, Note_on_c, 3, 59, 0
5, 31679, Note_on_c, 3, 62, 0
5, 31680, Note_on_c, 3, 55, 80
5, 31920, Note_on_c, 3, 59, 80
5, 31920, Note_on_c, 3, 62, 80
5, 32159, Note_on_c, 3, 55, 0
5, 32159, Note_on_c, 3, 59, 0
5, 32159, Note_on_c, 3, 62, 0
5, 32160, Note_on_c, 3, 55, 80
5, 32400, Note_on_c, 3, 59, 80
5, 32400, Note_on_c, 3, 62, 80
5, 32639, Note_on_c, 3, 55, 0
5, 32639, Note_on_c, 3, 59, 0
5, 32639, Note_on_c, 3, 62, 0
5, 32640, Note_on_c, 3, 55, 80
5, 32880, Note_on_c, 3, 59, 80
5, 32880, Note_on_c, 3, 62, 80
5, 33119, Note_on_c, 3, 55, 0
5, 33119, Note_on_c, 3, 59, 0
5, 33119, Note_on_c, 3, 62, 0
5, 33120, Note_on_c, 3, 55, 80
5, 33360, Note_on_c, 3, 59, 80
5, 33360, Note_on_c, 3, 62, 80
5, 33599, Note_on_c, 3, 55, 0
5, 33599, Note_on_c, 3, 59, 0
5, 33599, Note_on_c, 3, 62, 0
5, 33600, Note_on_c, 3, 55, 80
5, 33840, Note_on_c, 3, 59, 80
5, 33840, Note_on_c, 3, 62, 80
5, 34079, Note_on_c, 3, 55, 0
5, 34079, Note_on_c, 3, 59, 0
5, 34079, Note_on_c, 3, 62, 0
5, 34080, Note_on_c, 3, 55, 80
5, 34320, Note_on_c, 3, 59, 80
5, 34320, Note_on_c, 3, 62, 80
5, 34559, Note_on_c, 3, 55, 0
5, 34559, Note_on_c, 3, 59, 0
5, 34559, Note_on_c, 3, 62, 0
5, 34560, Note_on_c, 3, 52, 80
5, 34800, Note_on_c, 3, 59, 80
5, 34800, Note_on_c, 3, 64, 80
5, 35039, Note_on_c, 3, 52, 0
5, 35039, Note_on_c, 3, 59, 0
5, 35039, Note_on_c, 3, 64, 0
5, 35040, Note_on_c, 3, 52, 80
5, 35280, Note_on_c, 3, 59, 80
5, 35280, Note_on_c, 3, 64, 80
5, 35519, Note_on_c, 3, 52, 0
5, 35519, Note_on_c, 3, 59, 0
5, 35519, Note_on_c, 3, 64, 0
5, 35520, Note_on_c, 3, 52, 80
5, 35760, Note_on_c, 3, 59, 80
5, 35760, Note_on_c, 3, 64, 80
5, 35999, Note_on_c, 3, 52, 0
5, 35999, Note_on_c, 3, 59, 0
5, 35999, Note_on_c, 3, 64, 0
5, 36000, Note_on_c, 3, 52, 80
5, 36240, Note_on_c, 3, 59, 80
5, 36240, Note_on_c, 3, 64, 80
5, 36479, Note_on_c, 3, 52, 0
5, 36479, Note_on_c, 3, 59, 0
5, 36479, Note_on_c, 3, 64, 0
5, 36480, Note_on_c, 3, 52, 80
5, 36720, Note_on_c, 3, 59, 80
5, 36720, Note_on_c, 3, 64, 80
5, 36959, Note_on_c, 3, 52, 0
5, 36959, Note_on_c, 3, 59, 0
5, 36959, Note_on_c, 3, 64, 0
5, 36960, Note_on_c, 3, 52, 80
5, 37200, Note_on_c, 3, 59, 80
5, 37200, Note_on_c, 3, 64, 80
5, 37439, Note_on_c, 3, 52, 0
5, 37439, Note_on_c, 3, 59, 0
5, 37439, Note_on_c, 3, 64, 0
5, 37440, Note_on_c, 3, 52, 80
5, 37680, Note_on_c, 3, 59, 80
5, 37680, Note_on_c, 3, 64, 80
5, 37919, Note_on_c, 3, 52, 0
5, 37919, Note_on_c, 3, 59, 0
5, 37919, Note_on_c, 3, 64, 0
5, 37920, Note_on_c, 3, 52, 80
5, 38160, Note_on_c, 3, 59, 80
5, 38160, Note_on_c, 3, 64, 80
5, 38399, Note_on_c, 3, 52, 0
5, 38399, Note_on_c, 3, 59, 0
5, 38399, Note_on_c, 3, 64, 0
5, 38400, Note_on_c, 3, 48, 80
5, 38640, Note_on_c, 3, 60, 80
5, 38640, Note_on_c, 3, 64, 80
5, 38879, Note_on_c, 3, 48, 0
5, 38879, Note_on_c, 3, 60, 0
5, 38879, Note_on_c, 3, 64, 0
5, 38880, Note_on_c, 3, 48, 80
5, 39120, Note_on_c, 3, 60, 80
5, 39120, Note_on_c, 3, 64, 80
5, 39359, Note_on_c, 3, 48, 0
5, 39359, Note_on_c, 3, 60, 0
5, 39359, Note_on_c, 3, 64, 0
5, 39360, Note_on_c, 3, 48, 80
5, 39600, Note_on_c, 3, 60, 80
5, 39600, Note_on_c, 3, 64, 80
5, 39839, Note_on_c, 3, 48, 0
5, 39839, Note_on_c, 3, 60, 0
5, 39839, Note_on_c, 3, 64, 0
5, 39840, Note_on_c, 3, 48, 80
5, 40080, Note_on_c, 3, 60, 80
5, 40080, Note_on_c, 3, 64, 80
5, 40319, Note_on_c, 3, 48, 0
5, 40319, Note_on_c, 3, 60, 0
5, 40319, Note_on_c, 3, 64, 0
5, 40320, Note_on_c, 3, 48, 80
5, 40560, Note_on_c, 3, 60, 80
5, 40560, Note_on_c, 3, 64, 80
5, 40799, Note_on_c, 3, 48, 0
5, 40799, Note_on_c, 3, 60, 0
5, 40799, Note_on_c, 3, 64, 0
5, 40800, Note_on_c, 3, 48, 80
5, 41040, Note_on_c, 3, 60, 80
5, 41040, Note_on_c, 3, 64, 80
5, 41279, Note_on_c, 3, 48, 0
5, 41279, Note_on_c, 3, 60, 0
5, 41279, Note_on_c, 3, 64, 0
5, 41280, Note_on_c, 3, 48, 80
5, 41520, Note_on_c, 3, 60, 80
5, 41520, Note_on_c, 3, 64, 80
5, 41759, Note_on_c, 3, 48, 0
5, 41759, Note_on_c, 3, 60, 0
5, 41759, Note_on_c, 3, 64, 0
5, 41760, Note_on_c, 3, 48, 80
5, 42000, Note_on_c, 3, 60, 80
5, 42000, Note_on_c, 3, 64, 80
5, 42239, Note_on_c, 3, 48, 0
5, 42239, Note_on_c, 3, 60, 0
5, 42239, Note_on_c, 3, 64, 0
5, 42240, Note_on_c, 3, 55, 80
5, 42480, Note_on_c, 3, 59, 80
5, 42480, Note_on_c, 3, 62, 80
5, 42719, Note_on_c, 3, 55, 0
5, 42719, Note_on_c, 3, 59, 0
5, 42719, Note_on_c, 3, 62, 0
5, 42720, Note_on_c, 3, 55, 80
5, 42960, Note_on_c, 3, 59, 80
5, 42960, Note_on_c, 3, 62, 80
5, 43199, Note_on_c, 3, 55, 0
5, 43199, Note_on_c, 3, 59, 0
5, 43199, Note_on_c, 3, 62, 0
5, 43200, Note_on_c, 3, 55, 80
5, 43440, Note_on_c, 3, 59, 80
5, 43440, Note_on_c, 3, 62, 80
5, 43679, Note_on_c, 3, 55, 0
5, 43679, Note_on_c, 3, 59, 0
5, 43679, Note_on_c, 3, 62, 0
5, 43680, Note_on_c, 3, 55, 80
5, 43920, Note_on_c, 3, 59, 80
5, 43920, Note_on_c, 3, 62, 80
5, 44159, Note_on_c, 3, 55, 0
5, 44159, Note_on_c, 3, 59, 0
5, 44159, Note_on_c, 3, 62, 0
5, 44160, Note_on_c, 3, 55, 80
5, 44400, Note_on_c, 3, 59, 80
5, 44400, Note_on_c, 3, 62, 80
5, 44639, Note_on_c, 3, 55, 0
5, 44639, Note_on_c, 3, 59, 0
5, 44639, Note_on_c, 3, 62, 0
5, 44640, Note_on_c, 3, 55, 80
5, 44880, Note_on_c, 3, 59, 80
5, 44880, Note_on_c, 3, 62, 80
5, 45119, Note_on_c, 3, 55, 0
5, 45119, Note_on_c, 3, 59, 0
5, 45119, Note_on_c, 3, 62, 0
5, 45120, Note_on_c, 3, 55, 80
5, 45360, Note_on_c, 3, 59, 80
5, 45360, Note_on_c, 3, 62, 80
5, 45599, Note_on_c, 3, 55, 0
5, 45599, Note_on_c, 3, 59, 0
5, 45599, Note_on_c, 3, 62, 0
5, 45600, Note_on_c, 3, 55, 80
5, 45840, Note_on_c, 3, 59, 80
5, 45840, Note_on_c, 3, 62, 80
5, 46079, Note_on_c, 3, 55, 0
5, 46079, Note_on_c, 3, 59, 0
5, 46079, Note_on_c, 3, 62, 0
5, 46080, Note_on_c, 3, 55, 80
5, 46320, Note_on_c, 3, 59, 80
5, 46320, Note_on_c, 3, 62, 80
5, 46559, Note_on_c, 3, 55, 0
5, 46559, Note_on_c, 3, 59, 0
5, 46559, Note_on_c, 3, 62, 0
5, 46560, Note_on_c, 3, 55, 80
5, 46800, Note_on_c, 3, 59, 80
5, 46800, Note_on_c, 3, 62, 80
5, 47039, Note_on_c, 3, 55, 0
5, 47039, Note_on_c, 3, 59, 0
5, 47039, Note_on_c, 3, 62, 0
5, 47040, Note_on_c, 3, 55, 80
5, 47280, Note_on_c, 3, 59, 80
5, 47280, Note_on_c, 3, 62, 80
5, 47519, Note_on_c, 3, 55, 0
5, 47519, Note_on_c, 3, 59, 0
5, 47519, Note_on_c, 3, 62, 0
5, 47520, Note_on_c, 3, 55, 80
5, 47760, Note_on_c, 3, 59, 80
5, 47760, Note_on_c, 3, 62, 80
5, 47999, Note_on_c, 3, 55, 0
5, 47999, Note_on_c, 3, 59, 0
5, 47999, Note_on_c, 3, 62, 0
5, 48000, Note_on_c, 3, 55, 80
5, 48240, Note_on_c, 3, 59, 80
5, 48240, Note_on_c, 3, 62, 80
5, 48479, Note_on_c, 3, 55, 0
5, 48479, Note_on_c, 3, 59, 0
5, 48479, Note_on_c, 3, 62, 0
5, 48480, Note_on_c, 3, 55, 80
5, 48720, Note_on_c, 3, 59, 80
5, 48720, Note_on_c, 3, 62, 80
5, 48959, Note_on_c, 3, 55, 0
5, 48959, Note_on_c, 3, 59, 0
5, 48959, Note_on_c, 3, 62, 0
5, 48960, Note_on_c, 3, 55, 80
5, 49200, Note_on_c, 3, 59, 80
5, 49200, Note_on_c, 3, 62, 80
5, 49439, Note_on_c, 3, 55, 0
5, 49439, Note_on_c, 3, 59, 0
5, 49439, Note_on_c, 3, 62, 0
5, 49440, Note_on_c, 3, 55, 80
5, 49680, Note_on_c, 3, 59, 80
5, 49680, Note_on_c, 3, 62, 80
5, 49919, Note_on_c, 3, 55, 0
5, 49919, Note_on_c, 3, 59, 0
5, 49919, Note_on_c, 3, 62, 0
5, 49920, Note_on_c, 3, 52, 80
5, 50160, Note_on_c, 3, 59, 80
5, 50160, Note_on_c, 3, 64, 80
5, 50399, Note_on_c, 3, 52, 0
5, 50399, Note_on_c, 3, 59, 0
5, 50399, Note_on_c, 3, 64, 0
5, 50400, Note_on_c, 3, 52, 80
5, 50640, Note_on_c, 3, 59, 80
5, 50640, Note_on_c, 3, 64, 80
5, 50879, Note_on_c, 3, 52, 0
5, 50879, Note_on_c, 3, 59, 0
5, 50879, Note_on_c, 3, 64, 0
5, 50880, Note_on_c, 3, 52, 80
5, 51120, Note_on_c, 3, 59, 80
5, 51120, Note_on_c, 3, 64, 80
5, 51359, Note_on_c, 3, 52, 0
5, 51359, Note_on_c, 3, 59, 0
5, 51359, Note_on_c, 3, 64, 0
5, 51360, Note_on_c, 3, 52, 80
5, 51600, Note_on_c, 3, 59, 80
5, 51600, Note_on_c, 3, 64, 80
5, 51839, Note_on_c, 3, 52, 0
5, 51839, Note_on_c, 3, 59, 0
5, 51839, Note_on_c, 3, 64, 0
5, 51840, Note_on_c, 3, 52, 80
5, 52080, Note_on_c, 3, 59, 80
5, 52080, Note_on_c, 3, 64, 80
5, 52319, Note_on_c, 3, 52, 0
5, 52319, Note_on_c, 3, 59, 0
5, 52319, Note_on_c, 3, 64, 0
5, 52320, Note_on_c, 3, 52, 80
5, 52560, Note_on_c, 3, 59, 80
5, 52560, Note_on_c, 3, 64, 80
5, 52799, Note_on_c, 3, 52, 0
5, 52799, Note_on_c, 3, 59, 0
5, 52799, Note_on_c, 3, 64, 0
5, 52800, Note_on_c, 3, 52, 80
5, 53040, Note_on_c, 3, 59, 80
5, 53040, Note_on_c, 3, 64, 80
5, 53279, Note_on_c, 3, 52, 0
5, 53279, Note_on_c, 3, 59, 0
5, 53279, Note_on_c, 3, 64, 0
5, 53280, Note_on_c, 3, 52, 80
5, 53520, Note_on_c, 3, 59, 80
5, 53520, Note_on_c, 3, 64, 80
5, 53759, Note_on_c, 3, 52, 0
5, 53759, Note_on_c, 3, 59, 0
5, 53759, Note_on_c, 3, 64, 0
5, 53760, Note_on_c, 3, 48, 80
5, 54000, Note_on_c, 3, 60, 80
5, 54000, Note_on_c, 3, 64, 80
5, 54239, Note_on_c, 3, 48, 0
5, 54239, Note_on_c, 3, 60, 0
5, 54239, Note_on_c, 3, 64, 0
5, 54240, Note_on_c, 3, 48, 80
5, 54480, Note_on_c, 3, 60, 80
5, 54480, Note_on_c, 3, 64, 80
5, 54719, Note_on_c, 3, 48, 0
5, 54719, Note_on_c, 3, 60, 0
5, 54719, Note_on_c, 3, 64, 0
5, 54720, Note_on_c, 3, 48, 80
5, 54960, Note_on_c, 3, 60, 80
5, 54960, Note_on_c, 3, 64, 80
5, 55199, Note_on_c, 3, 48, 0
5, 55199, Note_on_c, 3, 60, 0
5, 55199, Note_on_c, 3, 64, 0
5, 55200, Note_on_c, 3, 48, 80
5, 55440, Note_on_c, 3, 60, 80
5, 55440, Note_on_c, 3, 64, 80
5, 55679, Note_on_c, 3, 48, 0
5, 55679, Note_on_c, 3, 60, 0
5, 55679, Note_on_c, 3, 64, 0
5, 55680, Note_on_c, 3, 48, 80
5, 55920, Note_on_c, 3, 60, 80
5, 55920, Note_on_c, 3, 64, 80
5, 56159, Note_on_c, 3, 48, 0
5, 56159, Note_on_c, 3, 60, 0
5, 56159, Note_on_c, 3, 64, 0
5, 56160, Note_on_c, 3, 48, 80
5, 56400, Note_on_c, 3, 60, 80
5, 56400, Note_on_c, 3, 64, 80
5, 56639, Note_on_c, 3, 48, 0
5, 56639, Note_on_c, 3, 60, 0
5, 56639, Note_on_c, 3, 64, 0
5, 56640, Note_on_c, 3, 48, 80
5, 56880, Note_on_c, 3, 60, 80
5, 56880, Note_on_c, 3, 64, 80
5, 57119, Note_on_c, 3, 48, 0
5, 57119, Note_on_c, 3, 60, 0
5, 57119, Note_on_c, 3, 64, 0
5, 57120, Note_on_c, 3, 48, 80
5, 57360, Note_on_c, 3, 60, 80
5, 57360, Note_on_c, 3, 64, 80
5, 57599, Note_on_c, 3, 48, 0
5, 57599, Note_on_c, 3, 60, 0
5, 57599, Note_on_c, 3, 64, 0
5, 57600, Note_on_c, 3, 55, 80
5, 57840, Note_on_c, 3, 59, 80
5, 57840, Note_on_c, 3, 62, 80
5, 58079, Note_on_c, 3, 55, 0
5, 58079, Note_on_c, 3, 59, 0
5, 58079, Note_on_c, 3, 62, 0
5, 58080, Note_on_c, 3, 55, 80
5, 58320, Note_on_c, 3, 59, 80
5, 58320, Note_on_c, 3, 62, 80
5, 58559, Note_on_c, 3, 55, 0
5, 58559, Note_on_c, 3, 59, 0
5, 58559, Note_on_c, 3, 62, 0
5, 58560, Note_on_c, 3, 55, 80
5, 58800, Note_on_c, 3, 59, 80
5, 58800, Note_on_c, 3, 62, 80
5, 59039, Note_on_c, 3, 55, 0
5, 59039, Note_on_c, 3, 59, 0
5, 59039, Note_on_c, 3, 62, 0
5, 59040, Note_on_c, 3, 55, 80
5, 59280, Note_on_c, 3, 59, 80
5, 59280, Note_on_c, 3, 62, 80
5, 59519, Note_on_c, 3, 55, 0
5, 59519, Note_on_c, 3, 59, 0
5, 59519, Note_on_c, 3, 62, 0
5, 59520, Note_on_c, 3, 55, 80
5, 59760, Note_on_c, 3, 59, 80
5, 59760, Note_on_c, 3, 62, 80
5, 59999, Note_on_c, 3, 55, 0
5, 59999, Note_on_c, 3, 59, 0
5, 59999, Note_on_c, 3, 62, 0
5, 60000, Note_on_c, 3, 55, 80
5, 60240, Note_on_c, 3, 59, 80
5, 60240, Note_on_c, 3, 62, 80
5, 60479, Note_on_c, 3, 55, 0
5, 60479, Note_on_c, 3, 59, 0
5, 60479, Note_on_c, 3, 62, 0
5, 60480, Note_on_c, 3, 55, 80
5, 60720, Note_on_c, 3, 59, 80
5, 60720, Note_on_c, 3, 62, 80
5, 60959, Note_on_c, 3, 55, 0
5, 60959, Note_on_c, 3, 59, 0
5, 60959, Note_on_c, 3, 62, 0
5, 60960, Note_on_c, 3, 55, 80
5, 61200, Note_on_c, 3, 59, 80
5, 61200, Note_on_c, 3, 62, 80
5, 61439, Note_on_c, 3, 55, 0
5, 61439, Note_on_c, 3, 59, 0
5, 61439, Note_on_c, 3, 62, 0
5, 61440, Note_on_c, 3, 55, 80
5, 61680, Note_on_c, 3, 59, 80
5, 61680, Note_on_c, 3, 62, 80
5, 61919, Note_on_c, 3, 55, 0
5, 61919, Note_on_c, 3, 59, 0
5, 61919, Note_on_c, 3, 62, 0
5, 61920, Note_on_c, 3, 55, 80
5, 62160, Note_on_c, 3, 59, 80
5, 62160, Note_on_c, 3, 62, 80
5, 62399, Note_on_c, 3, 55, 0
5, 62399, Note_on_c, 3, 59, 0
5, 62399, Note_on_c, 3, 62, 0
5, 62400, Note_on_c, 3, 55, 80
5, 62640, Note_on_c, 3, 59, 80
5, 62640, Note_on_c, 3, 62, 80
5, 62879, Note_on_c, 3, 55, 0
5, 62879, Note_on_c, 3, 59, 0
5, 62879, Note_on_c, 3, 62, 0
5, 62880, Note_on_c, 3, 55, 80
5, 63120, Note_on_c, 3, 59, 80
5, 63120, Note_on_c, 3, 62, 80
5, 63359, Note_on_c, 3, 55, 0
5, 63359, Note_on_c, 3, 59, 0
5, 63359, Note_on_c, 3, 62, 0
5, 63360, Note_on_c, 3, 55, 80
5, 63600, Note_on_c, 3, 59, 80
5, 63600, Note_on_c, 3, 62, 80
5, 63839, Note_on_c, 3, 55, 0
5, 63839, Note_on_c, 3, 59, 0
5, 63839, Note_on_c, 3, 62, 0
5, 63840, Note_on_c, 3, 55, 80
5, 64080, Note_on_c, 3, 59, 80
5, 64080, Note_on_c, 3, 62, 80
5, 64319, Note_on_c, 3, 55, 0
5, 64319, Note_on_c, 3, 59, 0
5, 64319, Note_on_c, 3, 62, 0
5, 64320, Note_on_c, 3, 55, 80
5, 64560, Note_on_c, 3, 59, 80
5, 64560, Note_on_c, 3, 62, 80
5, 64799, Note_on_c, 3, 55, 0
5, 64799, Note_on_c, 3, 59, 0
5, 64799, Note_on_c, 3, 62, 0
5, 64800, Note_on_c, 3, 55, 80
5, 65040, Note_on_c, 3, 59, 80
5, 65040, Note_on_c, 3, 62, 80
5, 65279, Note_on_c, 3, 55, 0
5, 65279, Note_on_c, 3, 59, 0
5, 65279, Note_on_c, 3, 62, 0
5, 65280, Note_on_c, 3, 52, 80
5, 65520, Note_on_c, 3, 59, 80
5, 65520, Note_on_c, 3, 64, 80
5, 65759, Note_on_c, 3, 52, 0
5, 65759, Note_on_c, 3, 59, 0
5, 65759, Note_on_c, 3, 64, 0
5, 65760, Note_on_c, 3, 52, 80
5, 66000, Note_on_c, 3, 59, 80
5, 66000, Note_on_c, 3, 64, 80
5, 66239, Note_on_c, 3, 52, 0
5, 66239, Note_on_c, 3, 59, 0
5, 66239, Note_on_c, 3, 64, 0
5, 66240, Note_on_c, 3, 52, 80
5, 66480, Note_on_c, 3, 59, 80
5, 66480, Note_on_c, 3, 64, 80
5, 66719, Note_on_c, 3, 52, 0
5, 66719, Note_on_c, 3, 59, 0
5, 66719, Note_on_c, 3, 64, 0
5, 66720, Note_on_c, 3, 52, 80
5, 66960, Note_on_c, 3, 59, 80
5, 66960, Note_on_c, 3, 64, 80
5, 67199, Note_on_c, 3, 52, 0
5, 67199, Note_on_c, 3, 59, 0
5, 67199, Note_on_c, 3, 64, 0
5, 67200, Note_on_c, 3, 52, 80
5, 67440, Note_on_c, 3, 59, 80
5, 67440, Note_on_c, 3, 64, 80
5, 67679, Note_on_c, 3, 52, 0
5, 67679, Note_on_c, 3, 59, 0
5, 67679, Note_on_c, 3, 64, 0
5, 67680, Note_on_c, 3, 52, 80
5, 67920, Note_on_c, 3, 59, 80
5, 67920, Note_on_c, 3, 64, 80
5, 68159, Note_on_c, 3, 52, 0
5, 68159, Note_on_c, 3, 59, 0
5, 68159, Note_on_c, 3, 64, 0
5, 68160, Note_on_c, 3, 52, 80
5, 68400, Note_on_c, 3, 59, 80
5, 68400, Note_on_c, 3, 64, 80
5, 68639, Note_on_c, 3, 52, 0
5, 68639, Note_on_c, 3, 59, 0
5, 68639, Note_on_c, 3, 64, 0
5, 68640, Note_on_c, 3, 52, 80
5, 68880, Note_on_c, 3, 59, 80
5, 68880, Note_on_c, 3, 64, 80
5, 69119, Note_on_c, 3, 52, 0
5, 69119, Note_on_c, 3, 59, 0
5, 69119, Note_on_c, 3, 64, 0
5, 69120, Note_on_c, 3, 48, 80
5, 69360, Note_on_c, 3, 60, 80
5, 69360, Note_on_c, 3, 64, 80
5, 69599, Note_on_c, 3, 48, 0
5, 69599, Note_on_c, 3, 60, 0
5, 69599, Note_on_c, 3, 64, 0
5, 69600, Note_on_c, 3, 48, 80
5, 69840, Note_on_c, 3, 60, 80
5, 69840, Note_on_c, 3, 64, 80
5, 70079, Note_on_c, 3, 48, 0
5, 70079, Note_on_c, 3, 60, 0
5, 70079, Note_on_c, 3, 64, 0
5, 70080, Note_on_c, 3, 48, 80
5, 70320, Note_on_c, 3, 60, 80
5, 70320, Note_on_c, 3, 64, 80
5, 70559, Note_on_c, 3, 48, 0
5, 70559, Note_on_c, 3, 60, 0
5, 70559, Note_on_c, 3, 64, 0
5, 70560, Note_on_c, 3, 48, 80
5, 70800, Note_on_c, 3, 60, 80
5, 70800, Note_on_c, 3, 64, 80
5, 71039, Note_on_c, 3, 48, 0
5, 71039, Note_on_c, 3, 60, 0
5, 71039, Note_on_c, 3, 64, 0
5, 71040, Note_on_c, 3, 48, 80
5, 71280, Note_on_c, 3, 60, 80
5, 71280, Note_on_c, 3, 64, 80
5, 71519, Note_on_c, 3, 48, 0
5, 71519, Note_on_c, 3, 60, 0
5, 71519, Note_on_c, 3, 64, 0
5, 71520, Note_on_c, 3, 48, 80
5, 71760, Note_on_c, 3, 60, 80
5, 71760, Note_on_c, 3, 64, 80
5, 71999, Note_on_c, 3, 48, 0
5, 71999, Note_on_c, 3, 60, 0
5, 71999, Note_on_c, 3, 64, 0
5, 72000, Note_on_c, 3, 48, 80
5, 72240, Note_on_c, 3, 60, 80
5, 72240, Note_on_c, 3, 64, 80
5, 72479, Note_on_c, 3, 48, 0
5, 72479, Note_on_c, 3, 60, 0
5, 72479, Note_on_c, 3, 64, 0
5, 72480, Note_on_c, 3, 48, 80
5, 72720, Note_on_c, 3, 60, 80
5, 72720, Note_on_c, 3, 64, 80
5, 72959, Note_on_c, 3, 48, 0
5, 72959, Note_on_c, 3, 60, 0
5, 72959, Note_on_c, 3, 64, 0
5, 72960, Note_on_c, 3, 55, 80
5, 73200, Note_on_c, 3, 59, 80
5, 73200, Note_on_c, 3, 62, 80
5, 73439, Note_on_c, 3, 55, 0
5, 73439, Note_on_c, 3, 59, 0
5, 73439, Note_on_c, 3, 62, 0
5, 73440, Note_on_c, 3, 55, 80
5, 73680, Note_on_c, 3, 59, 80
5, 73680, Note_on_c, 3, 62, 80
5, 73919, Note_on_c, 3, 55, 0
5, 73919, Note_on_c, 3, 59, 0
5, 73919, Note_on_c, 3, 62, 0
5, 73920, Note_on_c, 3, 55, 80
5, 74160, Note_on_c, 3, 59, 80
5, 74160, Note_on_c, 3, 62, 80
5, 74399, Note_on_c, 3, 55, 0
5, 74399, Note_on_c, 3, 59, 0
5, 74399, Note_on_c, 3, 62, 0
5, 74400, Note_on_c, 3, 55, 80
5, 74640, Note_on_c, 3, 59, 80
5, 74640, Note_on_c, 3, 62, 80
5, 74879, Note_on_c, 3, 55, 0
5, 74879, Note_on_c, 3, 59, 0
5, 74879, Note_on_c, 3, 62, 0
5, 74880, Note_on_c, 3, 55, 80
5, 75120, Note_on_c, 3, 59, 80
5, 75120, Note_on_c, 3, 62, 80
5, 75359, Note_on_c, 3, 55, 0
5, 75359, Note_on_c, 3, 59, 0
5, 75359, Note_on_c, 3, 62, 0
5, 75360, Note_on_c, 3, 55, 80
5, 75600, Note_on_c, 3, 59, 80
5, 75600, Note_on_c, 3, 62, 80
5, 75839, Note_on_c, 3, 55, 0
5, 75839, Note_on_c, 3, 59, 0
5, 75839, Note_on_c, 3, 62, 0
5, 75840, Note_on_c, 3, 55, 80
5, 76080, Note_on_c, 3, 59, 80
5, 76080, Note_on_c, 3, 62, 80
5, 76319, Note_on_c, 3, 55, 0
5, 76319, Note_on_c, 3, 59, 0
5, 76319, Note_on_c, 3, 62, 0
5, 76320, Note_on_c, 3, 55, 80
5, 76560, Note_on_c, 3, 59, 80
5, 76560, Note_on_c, 3, 62, 80
5, 76799, Note_on_c, 3, 55, 0
5, 76799, Note_on_c, 3, 59, 0
5, 76799, Note_on_c, 3, 62, 0
5, 76800, Note_on_c, 3, 55, 80
5, 77040, Note_on_c, 3, 59, 80
5, 77040, Note_on_c, 3, 62, 80
5, 77279, Note_on_c, 3, 55, 0
5, 77279, Note_on_c, 3, 59, 0
5, 77279, Note_on_c, 3, 62, 0
5, 77280, Note_on_c, 3, 55, 80
5, 77520, Note_on_c, 3, 59, 80
5, 77520, Note_on_c, 3, 62, 80
5, 77759, Note_on_c, 3, 55, 0
5, 77759, Note_on_c, 3, 59, 0
5, 77759, Note_on_c, 3, 62, 0
5, 77760, Note_on_c, 3, 55, 80
5, 78000, Note_on_c, 3, 59, 80
5, 78000, Note_on_c, 3, 62, 80
5, 78239, Note_on_c, 3, 55, 0
5, 78239, Note_on_c, 3, 59, 0
5, 78239, Note_on_c, 3, 62, 0
5, 78240, Note_on_c, 3, 55, 80
5, 78480, Note_on_c, 3, 59, 80
5, 78480, Note_on_c, 3, 62, 80
5, 78719, Note_on_c, 3, 55, 0
5, 78719, Note_on_c, 3, 59, 0
5, 78719, Note_on_c, 3, 62, 0
5, 78720, Note_on_c, 3, 55, 80
5, 78960, Note_on_c, 3, 59, 80
5, 78960, Note_on_c, 3, 62, 80
5, 79199, Note_on_c, 3, 55, 0
5, 79199, Note_on_c, 3, 59, 0
5, 79199, Note_on_c, 3, 62, 0
5, 79200, Note_on_c, 3, 55, 80
5, 79440, Note_on_c, 3, 59, 80
5, 79440, Note_on_c, 3, 62, 80
5, 79679, Note_on_c, 3, 55, 0
5, 79679, Note_on_c, 3, 59, 0
5, 79679, Note_on_c, 3, 62, 0
5, 79680, Note_on_c, 3, 55, 80
5, 79920, Note_on_c, 3, 59, 80
5, 79920, Note_on_c, 3, 62, 80
5, 80159, Note_on_c, 3, 55, 0
5, 80159, Note_on_c, 3, 59, 0
5, 80159, Note_on_c, 3, 62, 0
5, 80160, Note_on_c, 3, 55, 80
5, 80400, Note_on_c, 3, 59, 80
5, 80400, Note_on_c, 3, 62, 80
5, 80639, Note_on_c, 3, 55, 0
5, 80639, Note_on_c, 3, 59, 0
5, 80639, Note_on_c, 3, 62, 0
5, 80640, Note_on_c, 3, 52, 80
5, 80880, Note_on_c, 3, 59, 80
5, 80880, Note_on_c, 3, 64, 80
5, 81119, Note_on_c, 3, 52, 0
5, 81119, Note_on_c, 3, 59, 0
5, 81119, Note_on_c, 3, 64, 0
5, 81120, Note_on_c, 3, 52, 80
5, 81360, Note_on_c, 3, 59, 80
5, 81360, Note_on_c, 3, 64, 80
5, 81599, Note_on_c, 3, 52, 0
5, 81599, Note_on_c, 3, 59, 0
5, 81599, Note_on_c, 3, 64, 0
5, 81600, Note_on_c, 3, 52, 80
5, 81840, Note_on_c, 3, 59, 80
5, 81840, Note_on_c, 3, 64, 80
5, 82079, Note_on_c, 3, 52, 0
5, 82079, Note_on_c, 3, 59, 0
5, 82079, Note_on_c, 3, 64, 0
5, 82080, Note_on_c, 3, 52, 80
5, 82320, Note_on_c, 3, 59, 80
5, 82320, Note_on_c, 3, 64, 80
5, 82559, Note_on_c, 3, 52, 0
5, 82559, Note_on_c, 3, 59, 0
5, 82559, Note_on_c, 3, 64, 0
5, 82560, Note_on_c, 3, 52, 80
5, 82800, Note_on_c, 3, 59, 80
5, 82800, Note_on_c, 3, 64, 80
5, 83039, Note_on_c, 3, 52, 0
5, 83039, Note_on_c, 3, 59, 0
5, 83039, Note_on_c, 3, 64, 0
5, 83040, Note_on_c, 3, 52, 80
5, 83280, Note_on_c, 3, 59, 80
5, 83280, Note_on_c, 3, 64, 80
5, 83519, Note_on_c, 3, 52, 0
5, 83519, Note_on_c, 3, 59, 0
5, 83519, Note_on_c, 3, 64, 0
5, 83520, Note_on_c, 3, 52, 80
5, 83760, Note_on_c, 3, 59, 80
5, 83760, Note_on_c, 3, 64, 80
5, 83999, Note_on_c, 3, 52, 0
5, 83999, Note_on_c, 3, 59, 0
5, 83999, Note_on_c, 3, 64, 0
5, 84000, Note_on_c, 3, 52, 80
5, 84240, Note_on_c, 3, 59, 80
5, 84240, Note_on_c, 3, 64, 80
5, 84479, Note_on_c, 3, 52, 0
5, 84479, Note_on_c, 3, 59, 0
5, 84479, Note_on_c, 3, 64, 0
5, 84480, Note_on_c, 3, 48, 80
5, 84720, Note_on_c, 3, 60, 80
5, 84720, Note_on_c, 3, 64, 80
5, 84959, Note_on_c, 3, 48, 0
5, 84959, Note_on_c, 3, 60, 0
5, 84959, Note_on_c, 3, 64, 0
5, 84960, Note_on_c, 3, 48, 80
5, 85200, Note_on_c, 3, 60, 80
5, 85200, Note_on_c, 3, 64, 80
5, 85439, Note_on_c, 3, 48, 0
5, 85439, Note_on_c, 3, 60, 0
5, 85439, Note_on_c, 3, 64, 0
5, 85440, Note_on_c, 3, 48, 80
5, 85680, Note_on_c, 3, 60, 80
5, 85680, Note_on_c, 3, 64, 80
5, 85919, Note_on_c, 3, 48, 0
5, 85919, Note_on_c, 3, 60, 0
5, 85919, Note_on_c, 3, 64, 0
5, 85920, Note_on_c, 3, 48, 80
5, 86160, Note_on_c, 3, 60, 80
5, 86160, Note_on_c, 3, 64, 80
5, 86399, Note_on_c, 3, 48, 0
5, 86399, Note_on_c, 3, 60, 0
5, 86399, Note_on_c, 3, 64, 0
5, 86400, Note_on_c, 3, 48, 80
5, 86640, Note_on_c, 3, 60, 80
5, 86640, Note_on_c, 3, 64, 80
5, 86879, Note_on_c, 3, 48, 0
5, 86879, Note_on_c, 3, 60, 0
5, 86879, Note_on_c, 3, 64, 0
5, 86880, Note_on_c, 3, 48, 80
5, 87120, Note_on_c, 3, 60, 80
5, 87120, Note_on_c, 3, 64, 80
5, 87359, Note_on_c, 3, 48, 0
5, 87359, Note_on_c, 3, 60, 0
5, 87359, Note_on_c, 3, 64, 0
5, 87360, Note_on_c, 3, 48, 80
5, 87600, Note_on_c, 3, 60, 80
5, 87600, Note_on_c, 3, 64, 80
5, 87839, Note_on_c, 3, 48, 0
5, 87839, Note_on_c, 3, 60, 0
5, 87839, Note_on_c, 3, 64, 0
5, 87840, Note_on_c, 3, 48, 80
5, 88080, Note_on_c, 3, 60, 80
5, 88080, Note_on_c, 3, 64, 80
5, 88319, Note_on_c, 3, 48, 0
5, 88319, Note_on_c, 3, 60, 0
5, 88319, Note_on_c, 3, 64, 0
5, 88320, Note_on_c, 3, 55, 80
5, 88560, Note_on_c, 3, 59, 80
5, 88560, Note_on_c, 3, 62, 80
5, 88799, Note_on_c, 3, 55, 0
5, 88799, Note_on_c, 3, 59, 0
5, 88799, Note_on_c, 3, 62, 0
5, 88800, Note_on_c, 3, 55, 80
5, 89040, Note_on_c, 3, 59, 80
5, 89040, Note_on_c, 3, 62, 80
5, 89279, Note_on_c, 3, 55, 0
5, 89279, Note_on_c, 3, 59, 0
5, 89279, Note_on_c, 3, 62, 0
5, 89280, Note_on_c, 3, 55, 80
5, 89520, Note_on_c, 3, 59, 80
5, 89520, Note_on_c, 3, 62, 80
5, 89759, Note_on_c, 3, 55, 0
5, 89759, Note_on_c, 3, 59, 0
5, 89759, Note_on_c, 3, 62, 0
5, 89760, Note_on_c, 3, 55, 80
5, 90000, Note_on_c, 3, 59, 80
5, 90000, Note_on_c, 3, 62, 80
5, 90239, Note_on_c, 3, 55, 0
5, 90239, Note_on_c, 3, 59, 0
5, 90239, Note_on_c, 3, 62, 0
5, 90240, Note_on_c, 3, 55, 80
5, 90480, Note_on_c, 3, 59, 80
5, 90480, Note_on_c, 3, 62, 80
5, 90719, Note_on_c, 3, 55, 0
5, 90719, Note_on_c, 3, 59, 0
5, 90719, Note_on_c, 3, 62, 0
5, 90720, Note_on_c, 3, 55, 80
5, 90960, Note_on_c, 3, 59, 80
5, 90960, Note_on_c, 3, 62, 80
5, 91199, Note_on_c, 3, 55, 0
5, 91199, Note_on_c, 3, 59, 0
5, 91199, Note_on_c, 3, 62, 0
5, 91200, Note_on_c, 3, 55, 80
5, 91440, Note_on_c, 3, 59, 80
5, 91440, Note_on_c, 3, 62, 80
5, 91679, Note_on_c, 3, 55, 0
5, 91679, Note_on_c, 3, 59, 0
5, 91679, Note_on_c, 3, 62, 0
5, 91680, Note_on_c, 3, 55, 80
5, 91920, Note_on_c, 3, 59, 80
5, 91920, Note_on_c, 3, 62, 80
5, 92159, Note_on_c, 3, 55, 0
5, 92159, Note_on_c, 3, 59, 0
5, 92159, Note_on_c, 3, 62, 0
5, 92160, Note_on_c, 3, 55, 80
5, 92400, Note_on_c, 3, 60, 80
5, 92400, Note_on_c, 3, 64, 80
5, 92639, Note_on_c, 3, 55, 0
5, 92639, Note_on_c, 3, 60, 0
5, 92639, Note_on_c, 3, 64, 0
5, 92640, Note_on_c, 3, 55, 80
5, 92880, Note_on_c, 3, 60, 80
5, 92880, Note_on_c, 3, 64, 80
5, 93119, Note_on_c, 3, 55, 0
5, 93119, Note_on_c, 3, 60, 0
5, 93119, Note_on_c, 3, 64, 0
5, 93120, Note_on_c, 3, 55, 80
5, 93360, Note_on_c, 3, 60, 80
5, 93360, Note_on_c, 3, 64, 80
5, 93599, Note_on_c, 3, 55, 0
5, 93599, Note_on_c, 3, 60, 0
5, 93599, Note_on_c, 3, 64, 0
5, 93600, Note_on_c, 3, 55, 80
5, 93840, Note_on_c, 3, 60, 80
5, 93840, Note_on_c, 3, 64, 80
5, 94079, Note_on_c, 3, 55, 0
5, 94079, Note_on_c, 3, 60, 0
5, 94079, Note_on_c, 3, 64, 0
5, 94080, Note_on_c, 3, 55, 80
5, 94320, Note_on_c, 3, 60, 80
5, 94320, Note_on_c, 3, 64, 80
5, 94559, Note_on_c, 3, 55, 0
5, 94559, Note_on_c, 3, 60, 0
5, 94559, Note_on_c, 3, 64, 0
5, 94560, Note_on_c, 3, 55, 80
5, 94800, Note_on_c, 3, 60, 80
5, 94800, Note_on_c, 3, 64, 80
5, 95039, Note_on_c, 3, 55, 0
5, 95039, Note_on_c, 3, 60, 0
5, 95039, Note_on_c, 3, 64, 0
5, 95040, Note_on_c, 3, 55, 80
5, 95280, Note_on_c, 3, 60, 80
5, 95280, Note_on_c, 3, 64, 80
5, 95519, Note_on_c, 3, 55, 0
5, 95519, Note_on_c, 3, 60, 0
5, 95519, Note_on_c, 3, 64, 0
5, 95520, Note_on_c, 3, 55, 80
5, 95760, Note_on_c, 3, 60, 80
5, 95760, Note_on_c, 3, 64, 80
5, 95999, Note_on_c, 3, 55, 0
5, 95999, Note_on_c, 3, 60, 0
5, 95999, Note_on_c, 3, 64, 0
5, 96000, Note_on_c, 3, 52, 80
5, 96240, Note_on_c, 3, 60, 80
5, 96240, Note_on_c, 3, 64, 80
5, 96479, Note_on_c, 3, 52, 0
5, 96479, Note_on_c, 3, 60, 0
5, 96479, Note_on_c, 3, 64, 0
5, 96480, Note_on_c, 3, 52, 80
5, 96720, Note_on_c, 3, 60, 80
5, 96720, Note_on_c, 3, 64, 80
5, 96959, Note_on_c, 3, 52, 0
5, 96959, Note_on_c, 3, 60, 0
5, 96959, Note_on_c, 3, 64, 0
5, 96960, Note_on_c, 3, 52, 80
5, 97200, Note_on_c, 3, 60, 80
5, 97200, Note_on_c, 3, 64, 80
5, 97439, Note_on_c, 3, 52, 0
5, 97439, Note_on_c, 3, 60, 0
5, 97439, Note_on_c, 3, 64, 0
5, 97440, Note_on_c, 3, 52, 80
5, 97680, Note_on_c, 3, 60, 80
5, 97680, Note_on_c, 3, 64, 80
5, 97919, Note_on_c, 3, 52, 0
5, 97919, Note_on_c, 3, 60, 0
5, 97919, Note_on_c, 3, 64, 0
5, 97920, Note_on_c, 3, 52, 80
5, 98160, Note_on_c, 3, 60, 80
5, 98160, Note_on_c, 3, 64, 80
5, 98399, Note_on_c, 3, 52, 0
5, 98399, Note_on_c, 3, 60, 0
5, 98399, Note_on_c, 3, 64, 0
5, 98400, Note_on_c, 3, 52, 80
5, 98640, Note_on_c, 3, 60, 80
5, 98640, Note_on_c, 3, 64, 80
5, 98879, Note_on_c, 3, 52, 0
5, 98879, Note_on_c, 3, 60, 0
5, 98879, Note_on_c, 3, 64, 0
5, 98880, Note_on_c, 3, 52, 80
5, 99120, Note_on_c, 3, 60, 80
5, 99120, Note_on_c, 3, 64, 80
5, 99359, Note_on_c, 3, 52, 0
5, 99359, Note_on_c, 3, 60, 0
5, 99359, Note_on_c, 3, 64, 0
5, 99360, Note_on_c, 3, 52, 80
5, 99600, Note_on_c, 3, 60, 80
5, 99600, Note_on_c, 3, 64, 80
5, 99839, Note_on_c, 3, 52, 0
5, 99839, Note_on_c, 3, 60, 0
5, 99839, Note_on_c, 3, 64, 0
5, 99840, Note_on_c, 3, 53, 80
5, 100080, Note_on_c, 3, 60, 80
5, 100080, Note_on_c, 3, 65, 80
5, 100319, Note_on_c, 3, 53, 0
5, 100319, Note_on_c, 3, 60, 0
5, 100319, Note_on_c, 3, 65, 0
5, 100320, Note_on_c, 3, 53, 80
5, 100560, Note_on_c, 3, 60, 80
5, 100560, Note_on_c, 3, 65, 80
5, 100799, Note_on_c, 3, 53, 0
5, 100799, Note_on_c, 3, 60, 0
5, 100799, Note_on_c, 3, 65, 0
5, 100800, Note_on_c, 3, 53, 80
5, 101040, Note_on_c, 3, 60, 80
5, 101040, Note_on_c, 3, 65, 80
5, 101279, Note_on_c, 3, 53, 0
5, 101279, Note_on_c, 3, 60, 0
5, 101279, Note_on_c, 3, 65, 0
5, 101280, Note_on_c, 3, 53, 80
5, 101520, Note_on_c, 3, 60, 80
5, 101520, Note_on_c, 3, 65, 80
5, 101759, Note_on_c, 3, 53, 0
5, 101759, Note_on_c, 3, 60, 0
5, 101759, Note_on_c, 3, 65, 0
5, 101760, Note_on_c, 3, 53, 80
5, 102000, Note_on_c, 3, 60, 80
5, 102000, Note_on_c, 3, 65, 80
5, 102239, Note_on_c, 3, 53, 0
5, 102239, Note_on_c, 3, 60, 0
5, 102239, Note_on_c, 3, 65, 0
5, 102240, Note_on_c, 3, 53, 80
5, 102480, Note_on_c, 3, 60, 80
5, 102480, Note_on_c, 3, 65, 80
5, 102719, Note_on_c, 3, 53, 0
5, 102719, Note_on_c, 3, 60, 0
5, 102719, Note_on_c, 3, 65, 0
5, 102720, Note_on_c, 3, 53, 80
5, 102960, Note_on_c, 3, 60, 80
5, 102960, Note_on_c, 3, 65, 80
5, 103199, Note_on_c, 3, 53, 0
5, 103199, Note_on_c, 3, 60, 0
5, 103199, Note_on_c, 3, 65, 0
5, 103200, Note_on_c, 3, 53, 80
5, 103440, Note_on_c, 3, 60, 80
5, 103440, Note_on_c, 3, 65, 80
5, 103679, Note_on_c, 3, 53, 0
5, 103679, Note_on_c, 3, 60, 0
5, 103679, Note_on_c, 3, 65, 0
5, 103680, Note_on_c, 3, 48, 80
5, 103920, Note_on_c, 3, 55, 80
5, 103920, Note_on_c, 3, 60, 80
5, 104159, Note_on_c, 3, 48, 0
5, 104159, Note_on_c, 3, 55, 0
5, 104159, Note_on_c, 3, 60, 0
5, 104160, Note_on_c, 3, 48, 80
5, 104400, Note_on_c, 3, 55, 80
5, 104400, Note_on_c, 3, 60, 80
5, 104639, Note_on_c, 3, 48, 0
5, 104639, Note_on_c, 3, 55, 0
5, 104639, Note_on_c, 3, 60, 0
5, 104640, Note_on_c, 3, 48, 80
5, 104880, Note_on_c, 3, 55, 80
5, 104880, Note_on_c, 3, 60, 80
5, 105119, Note_on_c, 3, 48, 0
5, 105119, Note_on_c, 3, 55, 0
5, 105119, Note_on_c, 3, 60, 0
5, 105120, Note_on_c, 3, 48, 80
5, 105360, Note_on_c, 3, 55, 80
5, 105360, Note_on_c, 3, 60, 80
5, 105599, Note_on_c, 3, 48, 0
5, 105599, Note_on_c, 3, 55, 0
5, 105599, Note_on_c, 3, 60, 0
5, 105600, Note_on_c, 3, 48, 80
5, 105840, Note_on_c, 3, 55, 80
5, 105840, Note_on_c, 3, 60, 80
5, 106079, Note_on_c, 3, 48, 0
5, 106079, Note_on_c, 3, 55, 0
5, 106079, Note_on_c, 3, 60, 0
5, 106080, Note_on_c, 3, 48, 80
5, 106320, Note_on_c, 3, 55, 80
5, 106320, Note_on_c, 3, 60, 80
5, 106559, Note_on_c, 3, 48, 0
5, 106559, Note_on_c, 3, 55, 0
5, 106559, Note_on_c, 3, 60, 0
5, 106560, Note_on_c, 3, 48, 80
5, 106800, Note_on_c, 3, 55, 80
5, 106800, Note_on_c, 3, 60, 80
5, 107039, Note_on_c, 3, 48, 0
5, 107039, Note_on_c, 3, 55, 0
5, 107039, Note_on_c, 3, 60, 0
5, 107040, Note_on_c, 3, 48, 80
5, 107280, Note_on_c, 3, 55, 80
5, 107280, Note_on_c, 3, 60, 80
5, 107519, Note_on_c, 3, 48, 0
5, 107519, Note_on_c, 3, 55, 0
5, 107519, Note_on_c, 3, 60, 0
5, 107520, Note_on_c, 3, 48, 80
5, 107760, Note_on_c, 3, 60, 80
5, 107760, Note_on_c, 3, 64, 80
5, 107999, Note_on_c, 3, 48, 0
5, 107999, Note_on_c, 3, 60, 0
5, 107999, Note_on_c, 3, 64, 0
5, 108000, Note_on_c, 3, 48, 80
5, 108240, Note_on_c, 3, 60, 80
5, 108240, Note_on_c, 3, 64, 80
5, 108479, Note_on_c, 3, 48, 0
5, 108479, Note_on_c, 3, 60, 0
5, 108479, Note_on_c, 3, 64, 0
5, 108480, Note_on_c, 3, 48, 80
5, 108720, Note_on_c, 3, 60, 80
5, 108720, Note_on_c, 3, 64, 80
5, 108959, Note_on_c, 3, 48, 0
5, 108959, Note_on_c, 3, 60, 0
5, 108959, Note_on_c, 3, 64, 0
5, 108960, Note_on_c, 3, 48, 80
5, 109200, Note_on_c, 3, 60, 80
5, 109200, Note_on_c, 3, 64, 80
5, 109439, Note_on_c, 3, 48, 0
5, 109439, Note_on_c, 3, 60, 0
5, 109439, Note_on_c, 3, 64, 0
5, 109440, Note_on_c, 3, 48, 80
5, 109680, Note_on_c, 3, 60, 80
5, 109680, Note_on_c, 3, 64, 80
5, 109919, Note_on_c, 3, 48, 0
5, 109919, Note_on_c, 3, 60, 0
5, 109919, Note_on_c, 3, 64, 0
5, 109920, Note_on_c, 3, 48, 80
5, 110160, Note_on_c, 3, 60, 80
5, 110160, Note_on_c, 3, 64, 80
5, 110399, Note_on_c, 3, 48, 0
5, 110399, Note_on_c, 3, 60, 0
5, 110399, Note_on_c, 3, 64, 0
5, 110400, Note_on_c, 3, 48, 80
5, 110640, Note_on_c, 3, 60, 80
5, 110640, Note_on_c, 3, 64, 80
5, 110879, Note_on_c, 3, 48, 0
5, 110879, Note_on_c, 3, 60, 0
5, 110879, Note_on_c, 3, 64, 0
5, 110880, Note_on_c, 3, 48, 80
5, 111120, Note_on_c, 3, 60, 80
5, 111120, Note_on_c, 3, 64, 80
5, 111359, Note_on_c, 3, 48, 0
5, 111359, Note_on_c, 3, 60, 0
5, 111359, Note_on_c, 3, 64, 0
5, 111360, Note_on_c, 3, 57, 80
5, 111600, Note_on_c, 3, 60, 80
5, 111600, Note_on_c, 3, 64, 80
5, 111839, Note_on_c, 3, 57, 0
5, 111839, Note_on_c, 3, 60, 0
5, 111839, Note_on_c, 3, 64, 0
5, 111840, Note_on_c, 3, 57, 80
5, 112080, Note_on_c, 3, 60, 80
5, 112080, Note_on_c, 3, 64, 80
5, 112319, Note_on_c, 3, 57, 0
5, 112319, Note_on_c, 3, 60, 0
5, 112319, Note_on_c, 3, 64, 0
5, 112320, Note_on_c, 3, 57, 80
5, 112560, Note_on_c, 3, 60, 80
5, 112560, Note_on_c, 3, 64, 80
5, 112799, Note_on_c, 3, 57, 0
5, 112799, Note_on_c, 3, 60, 0
5, 112799, Note_on_c, 3, 64, 0
5, 112800, Note_on_c, 3, 57, 80
5, 113040, Note_on_c, 3, 60, 80
5, 113040, Note_on_c, 3, 64, 80
5, 113279, Note_on_c, 3, 57, 0
5, 113279, Note_on_c, 3, 60, 0
5, 113279, Note_on_c, 3, 64, 0
5, 113280, Note_on_c, 3, 57, 80
5, 113520, Note_on_c, 3, 60, 80
5, 113520, Note_on_c, 3, 64, 80
5, 113759, Note_on_c, 3, 57, 0
5, 113759, Note_on_c, 3, 60, 0
5, 113759, Note_on_c, 3, 64, 0
5, 113760, Note_on_c, 3, 57, 80
5, 114000, Note_on_c, 3, 60, 80
5, 114000, Note_on_c, 3, 64, 80
5, 114239, Note_on_c, 3, 57, 0
5, 114239, Note_on_c, 3, 60, 0
5, 114239, Note_on_c, 3, 64, 0
5, 114240, Note_on_c, 3, 57, 80
5, 114480, Note_on_c, 3, 60, 80
5, 114480, Note_on_c, 3, 64, 80
5, 114719, Note_on_c, 3, 57, 0
5, 114719, Note_on_c, 3, 60, 0
5, 114719, Note_on_c, 3, 64, 0
5, 114720, Note_on_c, 3, 57, 80
5, 114960, Note_on_c, 3, 60, 80
5, 114960, Note_on_c, 3, 64, 80
5, 115199, Note_on_c, 3, 57, 0
5, 115199, Note_on_c, 3, 60, 0
5, 115199, Note_on_c, 3, 64, 0
5, 115200, Note_on_c, 3, 53, 80
5, 115440, Note_on_c, 3, 60, 80
5, 115440, Note_on_c, 3, 65, 80
5, 115679, Note_on_c, 3, 53, 0
5, 115679, Note_on_c, 3, 60, 0
5, 115679, Note_on_c, 3, 65, 0
5, 115680, Note_on_c, 3, 53, 80
5, 115920, Note_on_c, 3, 60, 80
5, 115920, Note_on_c, 3, 65, 80
5, 116159, Note_on_c, 3, 53, 0
5, 116159, Note_on_c, 3, 60, 0
5, 116159, Note_on_c, 3, 65, 0
5, 116160, Note_on_c, 3, 53, 80
5, 116400, Note_on_c, 3, 60, 80
5, 116400, Note_on_c, 3, 65, 80
5, 116639, Note_on_c, 3, 53, 0
5, 116639, Note_on_c, 3, 60, 0
5, 116639, Note_on_c, 3, 65, 0
5, 116640, Note_on_c, 3, 53, 80
5, 116880, Note_on_c, 3, 60, 80
5, 116880, Note_on_c, 3, 65, 80
5, 117119, Note_on_c, 3, 53, 0
5, 117119, Note_on_c, 3, 60, 0
5, 117119, Note_on_c, 3, 65, 0
5, 117120, Note_on_c, 3, 53, 80
5, 117360, Note_on_c, 3, 60, 80
5, 117360, Note_on_c, 3, 65, 80
5, 117599, Note_on_c, 3, 53, 0
5, 117599, Note_on_c, 3, 60, 0
5, 117599, Note_on_c, 3, 65, 0
5, 117600, Note_on_c, 3, 53, 80
5, 117840, Note_on_c, 3, 60, 80
5, 117840, Note_on_c, 3, 65, 80
5, 118079, Note_on_c, 3, 53, 0
5, 118079, Note_on_c, 3, 60, 0
5, 118079, Note_on_c, 3, 65, 0
5, 118080, Note_on_c, 3, 53, 80
5, 118320, Note_on_c, 3, 60, 80
5, 118320, Note_on_c, 3, 65, 80
5, 118559, Note_on_c, 3, 53, 0
5, 118559, Note_on_c, 3, 60, 0
5, 118559, Note_on_c, 3, 65, 0
5, 118560, Note_on_c, 3, 53, 80
5, 118800, Note_on_c, 3, 60, 80
5, 118800, Note_on_c, 3, 65, 80
5, 119039, Note_on_c, 3, 53, 0
5, 119039, Note_on_c, 3, 60, 0
5, 119039, Note_on_c, 3, 65, 0
5, 119040, Note_on_c, 3, 48, 80
5, 119280, Note_on_c, 3, 60, 80
5, 119280, Note_on_c, 3, 64, 80
5, 119519, Note_on_c, 3, 48, 0
5, 119519, Note_on_c, 3, 60, 0
5, 119519, Note_on_c, 3, 64, 0
5, 119520, Note_on_c, 3, 48, 80
5, 119760, Note_on_c, 3, 60, 80
5, 119760, Note_on_c, 3, 64, 80
5, 119999, Note_on_c, 3, 48, 0
5, 119999, Note_on_c, 3, 60, 0
5, 119999, Note_on_c, 3, 64, 0
5, 120000, Note_on_c, 3, 48, 80
5, 120240, Note_on_c, 3, 60, 80
5, 120240, Note_on_c, 3, 64, 80
5, 120479, Note_on_c, 3, 48, 0
5, 120479, Note_on_c, 3, 60, 0
5, 120479, Note_on_c, 3, 64, 0
5, 120480, Note_on_c, 3, 48, 80
5, 120720, Note_on_c, 3, 60, 80
5, 120720, Note_on_c, 3, 64, 80
5, 120959, Note_on_c, 3, 48, 0
5, 120959, Note_on_c, 3, 60, 0
5, 120959, Note_on_c, 3, 64, 0
5, 120960, Note_on_c, 3, 48, 80
5, 121200, Note_on_c, 3, 60, 80
5, 121200, Note_on_c, 3, 64, 80
5, 121439, Note_on_c, 3, 48, 0
5, 121439, Note_on_c, 3, 60, 0
5, 121439, Note_on_c, 3, 64, 0
5, 121440, Note_on_c, 3, 48, 80
5, 121680, Note_on_c, 3, 60, 80
5, 121680, Note_on_c, 3, 64, 80
5, 121919, Note_on_c, 3, 48, 0
5, 121919, Note_on_c, 3, 60, 0
5, 121919, Note_on_c, 3, 64, 0
5, 121920, Note_on_c, 3, 48, 80
5, 122160, Note_on_c, 3, 60, 80
5, 122160, Note_on_c, 3, 64, 80
5, 122399, Note_on_c, 3, 48, 0
5, 122399, Note_on_c, 3, 60, 0
5, 122399, Note_on_c, 3, 64, 0
5, 122400, Note_on_c, 3, 48, 80
5, 122640, Note_on_c, 3, 60, 80
5, 122640, Note_on_c, 3, 64, 80
5, 122879, Note_on_c, 3, 48, 0
5, 122879, Note_on_c, 3, 60, 0
5, 122879, Note_on_c, 3, 64, 0
5, 122880, Note_on_c, 3, 48, 80
5, 123120, Note_on_c, 3, 60, 80
5, 123120, Note_on_c, 3, 67, 80
5, 123359, Note_on_c, 3, 48, 0
5, 123359, Note_on_c, 3, 60, 0
5, 123359, Note_on_c, 3, 67, 0
5, 123360, Note_on_c, 3, 48, 80
5, 123600, Note_on_c, 3, 60, 80
5, 123600, Note_on_c, 3, 67, 80
5, 123839, Note_on_c, 3, 48, 0
5, 123839, Note_on_c, 3, 60, 0
5, 123839, Note_on_c, 3, 67, 0
5, 123840, Note_on_c, 3, 48, 80
5, 124080, Note_on_c, 3, 60, 80
5, 124080, Note_on_c, 3, 67, 80
5, 124319, Note_on_c, 3, 48, 0
5, 124319, Note_on_c, 3, 60, 0
5, 124319, Note_on_c, 3, 67, 0
5, 124320, Note_on_c, 3, 48, 80
5, 124560, Note_on_c, 3, 60, 80
5, 124560, Note_on_c, 3, 67, 80
5, 124799, Note_on_c, 3, 48, 0
5, 124799, Note_on_c, 3, 60, 0
5, 124799, Note_on_c, 3, 67, 0
5, 124800, Note_on_c, 3, 48, 80
5, 125040, Note_on_c, 3, 60, 80
5, 125040, Note_on_c, 3, 67, 80
5, 125279, Note_on_c, 3, 48, 0
5, 125279, Note_on_c, 3, 60, 0
5, 125279, Note_on_c, 3, 67, 0
5, 125280, Note_on_c, 3, 48, 80
5, 125520, Note_on_c, 3, 60, 80
5, 125520, Note_on_c, 3, 67, 80
5, 125759, Note_on_c, 3, 48, 0
5, 125759, Note_on_c, 3, 60, 0
5, 125759, Note_on_c, 3, 67, 0
5, 125760, Note_on_c, 3, 48, 80
5, 126000, Note_on_c, 3, 60, 80
5, 126000, Note_on_c, 3, 67, 80
5, 126239, Note_on_c, 3, 48, 0
5, 126239, Note_on_c, 3, 60, 0
5, 126239, Note_on_c, 3, 67, 0
5, 126240, Note_on_c, 3, 48, 80
5, 126480, Note_on_c, 3, 60, 80
5, 126480, Note_on_c, 3, 67, 80
5, 126719, Note_on_c, 3, 48, 0
5, 126719, Note_on_c, 3, 60, 0
5, 126719, Note_on_c, 3, 67, 0
5, 126720, Note_on_c, 3, 57, 80
5, 126960, Note_on_c, 3, 60, 80
5, 126960, Note_on_c, 3, 64, 80
5, 127199, Note_on_c, 3, 57, 0
5, 127199, Note_on_c, 3, 60, 0
5, 127199, Note_on_c, 3, 64, 0
5, 127200, Note_on_c, 3, 57, 80
5, 127440, Note_on_c, 3, 60, 80
5, 127440, Note_on_c, 3, 64, 80
5, 127679, Note_on_c, 3, 57, 0
5, 127679, Note_on_c, 3, 60, 0
5, 127679, Note_on_c, 3, 64, 0
5, 127680, Note_on_c, 3, 57, 80
5, 127920, Note_on_c, 3, 60, 80
5, 127920, Note_on_c, 3, 64, 80
5, 128159, Note_on_c, 3, 57, 0
5, 128159, Note_on_c, 3, 60, 0
5, 128159, Note_on_c, 3, 64, 0
5, 128160, Note_on_c, 3, 57, 80
5, 128400, Note_on_c, 3, 60, 80
5, 128400, Note_on_c, 3, 64, 80
5, 128639, Note_on_c, 3, 57, 0
5, 128639, Note_on_c, 3, 60, 0
5, 128639, Note_on_c, 3, 64, 0
5, 128640, Note_on_c, 3, 57, 80
5, 128880, Note_on_c, 3, 60, 80
5, 128880, Note_on_c, 3, 64, 80
5, 129119, Note_on_c, 3, 57, 0
5, 129119, Note_on_c, 3, 60, 0
5, 129119, Note_on_c, 3, 64, 0
5, 129120, Note_on_c, 3, 57, 80
5, 129360, Note_on_c, 3, 60, 80
5, 129360, Note_on_c, 3, 64, 80
5, 129599, Note_on_c, 3, 57, 0
5, 129599, Note_on_c, 3, 60, 0
5, 129599, Note_on_c, 3, 64, 0
5, 129600, Note_on_c, 3, 57, 80
5, 129840, Note_on_c, 3, 60, 80
5, 129840, Note_on_c, 3, 64, 80
5, 130079, Note_on_c, 3, 57, 0
5, 130079, Note_on_c, 3, 60, 0
5, 130079, Note_on_c, 3, 64, 0
5, 130080, Note_on_c, 3, 57, 80
5, 130320, Note_on_c, 3, 60, 80
5, 130320, Note_on_c, 3, 64, 80
5, 130559, Note_on_c, 3, 57, 0
5, 130559, Note_on_c, 3, 60, 0
5, 130559, Note_on_c, 3, 64, 0
5, 130560, Note_on_c, 3, 53, 80
5, 130800, Note_on_c, 3, 60, 80
5, 130800, Note_on_c, 3, 65, 80
5, 131039, Note_on_c, 3, 53, 0
5, 131039, Note_on_c, 3, 60, 0
5, 131039, Note_on_c, 3, 65, 0
5, 131040, Note_on_c, 3, 53, 80
5, 131280, Note_on_c, 3, 60, 80
5, 131280, Note_on_c, 3, 65, 80
5, 131519, Note_on_c, 3, 53, 0
5, 131519, Note_on_c, 3, 60, 0
5, 131519, Note_on_c, 3, 65, 0
5, 131520, Note_on_c, 3, 53, 80
5, 131760, Note_on_c, 3, 60, 80
5, 131760, Note_on_c, 3, 65, 80
5, 131999, Note_on_c, 3, 53, 0
5, 131999, Note_on_c, 3, 60, 0
5, 131999, Note_on_c, 3, 65, 0
5, 132000, Note_on_c, 3, 53, 80
5, 132240, Note_on_c, 3, 60, 80
5, 132240, Note_on_c, 3, 65, 80
5, 132479, Note_on_c, 3, 53, 0
5, 132479, Note_on_c, 3, 60, 0
5, 132479, Note_on_c, 3, 65, 0
5, 132480, Note_on_c, 3, 53, 80
5, 132720, Note_on_c, 3, 60, 80
5, 132720, Note_on_c, 3, 65, 80
5, 132959, Note_on_c, 3, 53, 0
5, 132959, Note_on_c, 3, 60, 0
5, 132959, Note_on_c, 3, 65, 0
5, 132960, Note_on_c, 3, 53, 80
5, 133200, Note_on_c, 3, 60, 80
5, 133200, Note_on_c, 3, 65, 80
5, 133439, Note_on_c, 3, 53, 0
5, 133439, Note_on_c, 3, 60, 0
5, 133439, Note_on_c, 3, 65, 0
5, 133440, Note_on_c, 3, 53, 80
5, 133680, Note_on_c, 3, 60, 80
5, 133680, Note_on_c, 3, 65, 80
5, 133919, Note_on_c, 3, 53, 0
5, 133919, Note_on_c, 3, 60, 0
5, 133919, Note_on_c, 3, 65, 0
5, 133920, Note_on_c, 3, 53, 80
5, 134160, Note_on_c, 3, 60, 80
5, 134160, Note_on_c, 3, 65, 80
5, 134399, Note_on_c, 3, 53, 0
5, 134399, Note_on_c, 3, 60, 0
5, 134399, Note_on_c, 3, 65, 0
5, 134400, Note_on_c, 3, 48, 80
5, 134640, Note_on_c, 3, 60, 80
5, 134640, Note_on_c, 3, 67, 80
5, 134879, Note_on_c, 3, 48, 0
5, 134879, Note_on_c, 3, 60, 0
5, 134879, Note_on_c, 3, 67, 0
5, 134880, Note_on_c, 3, 48, 80
5, 135120, Note_on_c, 3, 60, 80
5, 135120, Note_on_c, 3, 67, 80
5, 135359, Note_on_c, 3, 48, 0
5, 135359, Note_on_c, 3, 60, 0
5, 135359, Note_on_c, 3, 67, 0
5, 135360, Note_on_c, 3, 48, 80
5, 135600, Note_on_c, 3, 60, 80
5, 135600, Note_on_c, 3, 67, 80
5, 135839, Note_on_c, 3, 48, 0
5, 135839, Note_on_c, 3, 60, 0
5, 135839, Note_on_c, 3, 67, 0
5, 135840, Note_on_c, 3, 48, 80
5, 136080, Note_on_c, 3, 60, 80
5, 136080, Note_on_c, 3, 67, 80
5, 136319, Note_on_c, 3, 48, 0
5, 136319, Note_on_c, 3, 60, 0
5, 136319, Note_on_c, 3, 67, 0
5, 136320, Note_on_c, 3, 48, 80
5, 136560, Note_on_c, 3, 60, 80
5, 136560, Note_on_c, 3, 67, 80
5, 136799, Note_on_c, 3, 48, 0
5, 136799, Note_on_c, 3, 60, 0
5, 136799, Note_on_c, 3, 67, 0
5, 136800, Note_on_c, 3, 48, 80
5, 137040, Note_on_c, 3, 60, 80
5, 137040, Note_on_c, 3, 67, 80
5, 137279, Note_on_c, 3, 48, 0
5, 137279, Note_on_c, 3, 60, 0
5, 137279, Note_on_c, 3, 67, 0
5, 137280, Note_on_c, 3, 48, 80
5, 137520, Note_on_c, 3, 60, 80
5, 137520, Note_on_c, 3, 67, 80
5, 137759, Note_on_c, 3, 48, 0
5, 137759, Note_on_c, 3, 60, 0
5, 137759, Note_on_c, 3, 67, 0
5, 137760, Note_on_c, 3, 48, 80
5, 138000, Note_on_c, 3, 60, 80
5, 138000, Note_on_c, 3, 67, 80
5, 138239, Note_on_c, 3, 48, 0
5, 138239, Note_on_c, 3, 60, 0
5, 138239, Note_on_c, 3, 67, 0
5, 138480, Note_on_c, 3, 64, 80
5, 138480, Note_on_c, 3, 67, 80
5, 138480, Note_on_c, 3, 72, 80
5, 138719, Note_on_c, 3, 64, 0
5, 138719, Note_on_c, 3, 67, 0
5, 138719, Note_on_c, 3, 72, 0
5, 138960, Note_on_c, 3, 64, 80
5, 138960, Note_on_c, 3, 67, 80
5, 138960, Note_on_c, 3, 72, 80
5, 139199, Note_on_c, 3, 64, 0
5, 139199, Note_on_c, 3, 67, 0
5, 139199, Note_on_c, 3, 72, 0
5, 139440, Note_on_c, 3, 64, 80
5, 139440, Note_on_c, 3, 67, 80
5, 139440, Note_on_c, 3, 72, 80
5, 139679, Note_on_c, 3, 64, 0
5, 139679, Note_on_c, 3, 67, 0
5, 139679, Note_on_c, 3, 72, 0
5, 139920, Note_on_c, 3, 64, 80
5, 139920, Note_on_c, 3, 67, 80
5, 139920, Note_on_c, 3, 72, 80
5, 140159, Note_on_c, 3, 64, 0
5, 140159, Note_on_c, 3, 67, 0
5, 140159, Note_on_c, 3, 72, 0
5, 140400, Note_on_c, 3, 64, 80
5, 140400, Note_on_c, 3, 67, 80
5, 140400, Note_on_c, 3, 72, 80
5, 140639, Note_on_c, 3, 64, 0
5, 140639, Note_on_c, 3, 67, 0
5, 140639, Note_on_c, 3, 72, 0
5, 140880, Note_on_c, 3, 64, 80
5, 140880, Note_on_c, 3, 67, 80
5, 140880, Note_on_c, 3, 72, 80
5, 141119, Note_on_c, 3, 64, 0
5, 141119, Note_on_c, 3, 67, 0
5, 141119, Note_on_c, 3, 72, 0
5, 141360, Note_on_c, 3, 64, 80
5, 141360, Note_on_c, 3, 67, 80
5, 141360, Note_on_c, 3, 72, 80
5, 141599, Note_on_c, 3, 64, 0
5, 141599, Note_on_c, 3, 67, 0
5, 141599, Note_on_c, 3, 72, 0
5, 141840, Note_on_c, 3, 64, 80
5, 141840, Note_on_c, 3, 67, 80
5, 141840, Note_on_c, 3, 72, 80
5, 142079, Note_on_c, 3, 64, 0
5, 142079, Note_on_c, 3, 67, 0
5, 142079, Note_on_c, 3, 72, 0
5, 142320, Note_on_c, 3, 64, 80
5, 142320, Note_on_c, 3, 69, 80
5, 142320, Note_on_c, 3, 72, 80
5, 142559, Note_on_c, 3, 64, 0
5, 142559, Note_on_c, 3, 69, 0
5, 142559, Note_on_c, 3, 72, 0
5, 142800, Note_on_c, 3, 64, 80
5, 142800, Note_on_c, 3, 69, 80
5, 142800, Note_on_c, 3, 72, 80
5, 143039, Note_on_c, 3, 64, 0
5, 143039, Note_on_c, 3, 69, 0
5, 143039, Note_on_c, 3, 72, 0
5, 143280, Note_on_c, 3, 64, 80
5, 143280, Note_on_c, 3, 69, 80
5, 143280, Note_on_c, 3, 72, 80
5, 143519, Note_on_c, 3, 64, 0
5, 143519, Note_on_c, 3, 69, 0
5, 143519, Note_on_c, 3, 72, 0
5, 143760, Note_on_c, 3, 64, 80
5, 143760, Note_on_c, 3, 69, 80
5, 143760, Note_on_c, 3, 72, 80
5, 143999, Note_on_c, 3, 64, 0
5, 143999, Note_on_c, 3, 69, 0
5, 143999, Note_on_c, 3, 72, 0
5, 144240, Note_on_c, 3, 64, 80
5, 144240, Note_on_c, 3, 69, 80
5, 144240, Note_on_c, 3, 72, 80
5, 144479, Note_on_c, 3, 64, 0
5, 144479, Note_on_c, 3, 69, 0
5, 144479, Note_on_c, 3, 72, 0
5, 144720, Note_on_c, 3, 64, 80
5, 144720, Note_on_c, 3, 69, 80
5, 144720, Note_on_c, 3, 72, 80
5, 144959, Note_on_c, 3, 64, 0
5, 144959, Note_on_c, 3, 69, 0
5, 144959, Note_on_c, 3, 72, 0
5, 145200, Note_on_c, 3, 64, 80
5, 145200, Note_on_c, 3, 69, 80
5, 145200, Note_on_c, 3, 72, 80
5, 145439, Note_on_c, 3, 64, 0
5, 145439, Note_on_c, 3, 69, 0
5, 145439, Note_on_c, 3, 72, 0
5, 145680, Note_on_c, 3, 64, 80
5, 145680, Note_on_c, 3, 69, 80
5, 145680, Note_on_c, 3, 72, 80
5, 145919, Note_on_c, 3, 64, 0
5, 145919, Note_on_c, 3, 69, 0
5, 145919, Note_on_c, 3, 72, 0
5, 146160, Note_on_c, 3, 65, 80
5, 146160, Note_on_c, 3, 69, 80
5, 146160, Note_on_c, 3, 72, 80
5, 146399, Note_on_c, 3, 65, 0
5, 146399, Note_on_c, 3, 69, 0
5, 146399, Note_on_c, 3, 72, 0
5, 146640, Note_on_c, 3, 65, 80
5, 146640, Note_on_c, 3, 69, 80
5, 146640, Note_on_c, 3, 72, 80
5, 146879, Note_on_c, 3, 65, 0
5, 146879, Note_on_c, 3, 69, 0
5, 146879, Note_on_c, 3, 72, 0
5, 147120, Note_on_c, 3, 65, 80
5, 147120, Note_on_c, 3, 69, 80
5, 147120, Note_on_c, 3, 72, 80
5, 147359, Note_on_c, 3, 65, 0
5, 147359, Note_on_c, 3, 69, 0
5, 147359, Note_on_c, 3, 72, 0
5, 147600, Note_on_c, 3, 65, 80
5, 147600, Note_on_c, 3, 69, 80
5, 147600, Note_on_c, 3, 72, 80
5, 147839, Note_on_c, 3, 65, 0
5, 147839, Note_on_c, 3, 69, 0
5, 147839, Note_on_c, 3, 72, 0
5, 148080, Note_on_c, 3, 65, 80
5, 148080, Note_on_c, 3, 69, 80
5, 148080, Note_on_c, 3, 72, 80
5, 148319, Note_on_c, 3, 65, 0
5, 148319, Note_on_c, 3, 69, 0
5, 148319, Note_on_c, 3, 72, 0
5, 148560, Note_on_c, 3, 65, 80
5, 148560, Note_on_c, 3, 69, 80
5, 148560, Note_on_c, 3, 72, 80
5, 148799, Note_on_c, 3, 65, 0
5, 148799, Note_on_c, 3, 69, 0
5, 148799, Note_on_c, 3, 72, 0
5, 149040, Note_on_c, 3, 65, 80
5, 149040, Note_on_c, 3, 69, 80
5, 149040, Note_on_c, 3, 72, 80
5, 149279, Note_on_c, 3, 65, 0
5, 149279, Note_on_c, 3, 69, 0
5, 149279, Note_on_c, 3, 72, 0
5, 149520, Note_on_c, 3, 65, 80
5, 149520, Note_on_c, 3, 69, 80
5, 149520, Note_on_c, 3, 72, 80
5, 149759, Note_on_c, 3, 65, 0
5, 149759, Note_on_c, 3, 69, 0
5, 149759, Note_on_c, 3, 72, 0
5, 150000, Note_on_c, 3, 64, 80
5, 150000, Note_on_c, 3, 67, 80
5, 150000, Note_on_c, 3, 72, 80
5, 150239, Note_on_c, 3, 64, 0
5, 150239, Note_on_c, 3, 67, 0
5, 150239, Note_on_c, 3, 72, 0
5, 150480, Note_on_c, 3, 64, 80
5, 150480, Note_on_c, 3, 67, 80
5, 150480, Note_on_c, 3, 72, 80
5, 150719, Note_on_c, 3, 64, 0
5, 150719, Note_on_c, 3, 67, 0
5, 150719, Note_on_c, 3, 72, 0
5, 150960, Note_on_c, 3, 64, 80
5, 150960, Note_on_c, 3, 67, 80
5, 150960, Note_on_c, 3, 72, 80
5, 151199, Note_on_c, 3, 64, 0
5, 151199, Note_on_c, 3, 67, 0
5, 151199, Note_on_c, 3, 72, 0
5, 151440, Note_on_c, 3, 64, 80
5, 151440, Note_on_c, 3, 67, 80
5, 151440, Note_on_c, 3, 72, 80
5, 151679, Note_on_c, 3, 64, 0
5, 151679, Note_on_c, 3, 67, 0
5, 151679, Note_on_c, 3, 72, 0
5, 151920, Note_on_c, 3, 64, 80
5, 151920, Note_on_c, 3, 67, 80
5, 151920, Note_on_c, 3, 72, 80
5, 152159, Note_on_c, 3, 64, 0
5, 152159, Note_on_c, 3, 67, 0
5, 152159, Note_on_c, 3, 72, 0
5, 152400, Note_on_c, 3, 64, 80
5, 152400, Note_on_c, 3, 67, 80
5, 152400, Note_on_c, 3, 72, 80
5, 152639, Note_on_c, 3, 64, 0
5, 152639, Note_on_c, 3, 67, 0
5, 152639, Note_on_c, 3, 72, 0
5, 152880, Note_on_c, 3, 64, 80
5, 152880, Note_on_c, 3, 67, 80
5, 152880, Note_on_c, 3, 72, 80
5, 153119, Note_on_c, 3, 64, 0
5, 153119, Note_on_c, 3, 67, 0
5, 153119, Note_on_c, 3, 72, 0
5, 153360, Note_on_c, 3, 64, 80
5, 153360, Note_on_c, 3, 67, 80
5, 153360, Note_on_c, 3, 72, 80
5, 153599, Note_on_c, 3, 64, 0
5, 153599, Note_on_c, 3, 67, 0
5, 153599, Note_on_c, 3, 72, 0
5, 153840, Note_on_c, 3, 64, 80
5, 153840, Note_on_c, 3, 67, 80
5, 153840, Note_on_c, 3, 72, 80
5, 154079, Note_on_c, 3, 64, 0
5, 154079, Note_on_c, 3, 67, 0
5, 154079, Note_on_c, 3, 72, 0
5, 154320, Note_on_c, 3, 64, 80
5, 154320, Note_on_c, 3, 67, 80
5, 154320, Note_on_c, 3, 72, 80
5, 154559, Note_on_c, 3, 64, 0
5, 154559, Note_on_c, 3, 67, 0
5, 154559, Note_on_c, 3, 72, 0
5, 154800, Note_on_c, 3, 64, 80
5, 154800, Note_on_c, 3, 67, 80
5, 154800, Note_on_c, 3, 72, 80
5, 155039, Note_on_c, 3, 64, 0
5, 155039, Note_on_c, 3, 67, 0
5, 155039, Note_on_c, 3, 72, 0
5, 155280, Note_on_c, 3, 64, 80
5, 155280, Note_on_c, 3, 67, 80
5, 155280, Note_on_c, 3, 72, 80
5, 155519, Note_on_c, 3, 64, 0
5, 155519, Note_on_c, 3, 67, 0
5, 155519, Note_on_c, 3, 72, 0
5, 155760, Note_on_c, 3, 64, 80
5, 155760, Note_on_c, 3, 67, 80
5, 155760, Note_on_c, 3, 72, 80
5, 155999, Note_on_c, 3, 64, 0
5, 155999, Note_on_c, 3, 67, 0
5, 155999, Note_on_c, 3, 72, 0
5, 156240, Note_on_c, 3, 64, 80
5, 156240, Note_on_c, 3, 67, 80
5, 156240, Note_on_c, 3, 72, 80
5, 156479, Note_on_c, 3, 64, 0
5, 156479, Note_on_c, 3, 67, 0
5, 156479, Note_on_c, 3, 72, 0
5, 156720, Note_on_c, 3, 64, 80
5, 156720, Note_on_c, 3, 67, 80
5, 156720, Note_on_c, 3, 72, 80
5, 156959, Note_on_c, 3, 64, 0
5, 156959, Note_on_c, 3, 67, 0
5, 156959, Note_on_c, 3, 72, 0
5, 157200, Note_on_c, 3, 64, 80
5, 157200, Note_on_c, 3, 67, 80
5, 157200, Note_on_c, 3, 72, 80
5, 157439, Note_on_c, 3, 64, 0
5, 157439, Note_on_c, 3, 67, 0
5, 157439, Note_on_c, 3, 72, 0
5, 157680, Note_on_c, 3, 64, 80
5, 157680, Note_on_c, 3, 69, 80
5, 157680, Note_on_c, 3, 72, 80
5, 157919, Note_on_c, 3, 64, 0
5, 157919, Note_on_c, 3, 69, 0
5, 157919, Note_on_c, 3, 72, 0
5, 158160, Note_on_c, 3, 64, 80
5, 158160, Note_on_c, 3, 69, 80
5, 158160, Note_on_c, 3, 72, 80
5, 158399, Note_on_c, 3, 64, 0
5, 158399, Note_on_c, 3, 69, 0
5, 158399, Note_on_c, 3, 72, 0
5, 158640, Note_on_c, 3, 64, 80
5, 158640, Note_on_c, 3, 69, 80
5, 158640, Note_on_c, 3, 72, 80
5, 158879, Note_on_c, 3, 64, 0
5, 158879, Note_on_c, 3, 69, 0
5, 158879, Note_on_c, 3, 72, 0
5, 159120, Note_on_c, 3, 64, 80
5, 159120, Note_on_c, 3, 69, 80
5, 159120, Note_on_c, 3, 72, 80
5, 159359, Note_on_c, 3, 64, 0
5, 159359, Note_on_c, 3, 69, 0
5, 159359, Note_on_c, 3, 72, 0
5, 159600, Note_on_c, 3, 64, 80
5, 159600, Note_on_c, 3, 69, 80
5, 159600, Note_on_c, 3, 72, 80
5, 159839, Note_on_c, 3, 64, 0
5, 159839, Note_on_c, 3, 69, 0
5, 159839, Note_on_c, 3, 72, 0
5, 160080, Note_on_c, 3, 64, 80
5, 160080, Note_on_c, 3, 69, 80
5, 160080, Note_on_c, 3, 72, 80
5, 160319, Note_on_c, 3, 64, 0
5, 160319, Note_on_c, 3, 69, 0
5, 160319, Note_on_c, 3, 72, 0
5, 160560, Note_on_c, 3, 64, 80
5, 160560, Note_on_c, 3, 69, 80
5, 160560, Note_on_c, 3, 72, 80
5, 160799, Note_on_c, 3, 64, 0
5, 160799, Note_on_c, 3, 69, 0
5, 160799, Note_on_c, 3, 72, 0
5, 161040, Note_on_c, 3, 64, 80
5, 161040, Note_on_c, 3, 69, 80
5, 161040, Note_on_c, 3, 72, 80
5, 161279, Note_on_c, 3, 64, 0
5, 161279, Note_on_c, 3, 69, 0
5, 161279, Note_on_c, 3, 72, 0
5, 161520, Note_on_c, 3, 65, 80
5, 161520, Note_on_c, 3, 69, 80
5, 161520, Note_on_c, 3, 72, 80
5, 161759, Note_on_c, 3, 65, 0
5, 161759, Note_on_c, 3, 69, 0
5, 161759, Note_on_c, 3, 72, 0
5, 162000, Note_on_c, 3, 65, 80
5, 162000, Note_on_c, 3, 69, 80
5, 162000, Note_on_c, 3, 72, 80
5, 162239, Note_on_c, 3, 65, 0
5, 162239, Note_on_c, 3, 69, 0
5, 162239, Note_on_c, 3, 72, 0
5, 162480, Note_on_c, 3, 65, 80
5, 162480, Note_on_c, 3, 69, 80
5, 162480, Note_on_c, 3, 72, 80
5, 162719, Note_on_c, 3, 65, 0
5, 162719, Note_on_c, 3, 69, 0
5, 162719, Note_on_c, 3, 72, 0
5, 162960, Note_on_c, 3, 65, 80
5, 162960, Note_on_c, 3, 69, 80
5, 162960, Note_on_c, 3, 72, 80
5, 163199, Note_on_c, 3, 65, 0
5, 163199, Note_on_c, 3, 69, 0
5, 163199, Note_on_c, 3, 72, 0
5, 163440, Note_on_c, 3, 65, 80
5, 163440, Note_on_c, 3, 69, 80
5, 163440, Note_on_c, 3, 72, 80
5, 163679, Note_on_c, 3, 65, 0
5, 163679, Note_on_c, 3, 69, 0
5, 163679, Note_on_c, 3, 72, 0
5, 163920, Note_on_c, 3, 65, 80
5, 163920, Note_on_c, 3, 69, 80
5, 163920, Note_on_c, 3, 72, 80
5, 164159, Note_on_c, 3, 65, 0
5, 164159, Note_on_c, 3, 69, 0
5, 164159, Note_on_c, 3, 72, 0
5, 164400, Note_on_c, 3, 65, 80
5, 164400, Note_on_c, 3, 69, 80
5, 164400, Note_on_c, 3, 72, 80
5, 164639, Note_on_c, 3, 65, 0
5, 164639, Note_on_c, 3, 69, 0
5, 164639, Note_on_c, 3, 72, 0
5, 164880, Note_on_c, 3, 65, 80
5, 164880, Note_on_c, 3, 69, 80
5, 164880, Note_on_c, 3, 72, 80
5, 165119, Note_on_c, 3, 65, 0
5, 165119, Note_on_c, 3, 69, 0
5, 165119, Note_on_c, 3, 72, 0
5, 165360, Note_on_c, 3, 64, 80
5, 165360, Note_on_c, 3, 67, 80
5, 165360, Note_on_c, 3, 72, 80
5, 165599, Note_on_c, 3, 64, 0
5, 165599, Note_on_c, 3, 67, 0
5, 165599, Note_on_c, 3, 72, 0
5, 165840, Note_on_c, 3, 64, 80
5, 165840, Note_on_c, 3, 67, 80
5, 165840, Note_on_c, 3, 72, 80
5, 166079, Note_on_c, 3, 64, 0
5, 166079, Note_on_c, 3, 67, 0
5, 166079, Note_on_c, 3, 72, 0
5, 166320, Note_on_c, 3, 64, 80
5, 166320, Note_on_c, 3, 67, 80
5, 166320, Note_on_c, 3, 72, 80
5, 166559, Note_on_c, 3, 64, 0
5, 166559, Note_on_c, 3, 67, 0
5, 166559, Note_on_c, 3, 72, 0
5, 166800, Note_on_c, 3, 64, 80
5, 166800, Note_on_c, 3, 67, 80
5, 166800, Note_on_c, 3, 72, 80
5, 167039, Note_on_c, 3, 64, 0
5, 167039, Note_on_c, 3, 67, 0
5, 167039, Note_on_c, 3, 72, 0
5, 167280, Note_on_c, 3, 64, 80
5, 167280, Note_on_c, 3, 67, 80
5, 167280, Note_on_c, 3, 72, 80
5, 167519, Note_on_c, 3, 64, 0
5, 167519, Note_on_c, 3, 67, 0
5, 167519, Note_on_c, 3, 72, 0
5, 167760, Note_on_c, 3, 64, 80
5, 167760, Note_on_c, 3, 67, 80
5, 167760, Note_on_c, 3, 72, 80
5, 167999, Note_on_c, 3, 64, 0
5, 167999, Note_on_c, 3, 67, 0
5, 167999, Note_on_c, 3, 72, 0
5, 168240, Note_on_c, 3, 64, 80
5, 168240, Note_on_c, 3, 67, 80
5, 168240, Note_on_c, 3, 72, 80
5, 168479, Note_on_c, 3, 64, 0
5, 168479, Note_on_c, 3, 67, 0
5, 168479, Note_on_c, 3, 72, 0
5, 168720, Note_on_c, 3, 64, 80
5, 168720, Note_on_c, 3, 67, 80
5, 168720, Note_on_c, 3, 72, 80
5, 168959, Note_on_c, 3, 64, 0
5, 168959, Note_on_c, 3, 67, 0
5, 168959, Note_on_c, 3, 72, 0
5, 169200, Note_on_c, 3, 64, 80
5, 169200, Note_on_c, 3, 67, 80
5, 169200, Note_on_c, 3, 72, 80
5, 169439, Note_on_c, 3, 64, 0
5, 169439, Note_on_c, 3, 67, 0
5, 169439, Note_on_c, 3, 72, 0
5, 169680, Note_on_c, 3, 64, 80
5, 169680, Note_on_c, 3, 67, 80
5, 169680, Note_on_c, 3, 72, 80
5, 169919, Note_on_c, 3, 64, 0
5, 169919, Note_on_c, 3, 67, 0
5, 169919, Note_on_c, 3, 72, 0
5, 170160, Note_on_c, 3, 64, 80
5, 170160, Note_on_c, 3, 67, 80
5, 170160, Note_on_c, 3, 72, 80
5, 170399, Note_on_c, 3, 64, 0
5, 170399, Note_on_c, 3, 67, 0
5, 170399, Note_on_c, 3, 72, 0
5, 170640, Note_on_c, 3, 64, 80
5, 170640, Note_on_c, 3, 67, 80
5, 170640, Note_on_c, 3, 72, 80
5, 170879, Note_on_c, 3, 64, 0
5, 170879, Note_on_c, 3, 67, 0
5, 170879, Note_on_c, 3, 72, 0
5, 171120, Note_on_c, 3, 64, 80
5, 171120, Note_on_c, 3, 67, 80
5, 171120, Note_on_c, 3, 72, 80
5, 171359, Note_on_c, 3, 64, 0
5, 171359, Note_on_c, 3, 67, 0
5, 171359, Note_on_c, 3, 72, 0
5, 171600, Note_on_c, 3, 64, 80
5, 171600, Note_on_c, 3, 67, 80
5, 171600, Note_on_c, 3, 72, 80
5, 171839, Note_on_c, 3, 64, 0
5, 171839, Note_on_c, 3, 67, 0
5, 171839, Note_on_c, 3, 72, 0
5, 172080, Note_on_c, 3, 64, 80
5, 172080, Note_on_c, 3, 67, 80
5, 172080, Note_on_c, 3, 72, 80
5, 172319, Note_on_c, 3, 64, 0
5, 172319, Note_on_c, 3, 67, 0
5, 172319, Note_on_c, 3, 72, 0
5, 172560, Note_on_c, 3, 64, 80
5, 172560, Note_on_c, 3, 67, 80
5, 172560, Note_on_c, 3, 72, 80
5, 172799, Note_on_c, 3, 64, 0
5, 172799, Note_on_c, 3, 67, 0
5, 172799, Note_on_c, 3, 72, 0
5, 173040, Note_on_c, 3, 64, 80
5, 173040, Note_on_c, 3, 69, 80
5, 173040, Note_on_c, 3, 72, 80
5, 173279, Note_on_c, 3, 64, 0
5, 173279, Note_on_c, 3, 69, 0
5, 173279, Note_on_c, 3, 72, 0
5, 173520, Note_on_c, 3, 64, 80
5, 173520, Note_on_c, 3, 69, 80
5, 173520, Note_on_c, 3, 72, 80
5, 173759, Note_on_c, 3, 64, 0
5, 173759, Note_on_c, 3, 69, 0
5, 173759, Note_on_c, 3, 72, 0
5, 174000, Note_on_c, 3, 64, 80
5, 174000, Note_on_c, 3, 69, 80
5, 174000, Note_on_c, 3, 72, 80
5, 174239, Note_on_c, 3, 64, 0
5, 174239, Note_on_c, 3, 69, 0
5, 174239, Note_on_c, 3, 72, 0
5, 174480, Note_on_c, 3, 64, 80
5, 174480, Note_on_c, 3, 69, 80
5, 174480, Note_on_c, 3, 72, 80
5, 174719, Note_on_c, 3, 64, 0
5, 174719, Note_on_c, 3, 69, 0
5, 174719, Note_on_c, 3, 72, 0
5, 174960, Note_on_c, 3, 64, 80
5, 174960, Note_on_c, 3, 69, 80
5, 174960, Note_on_c, 3, 72, 80
5, 175199, Note_on_c, 3, 64, 0
5, 175199, Note_on_c, 3, 69, 0
5, 175199, Note_on_c, 3, 72, 0
5, 175440, Note_on_c, 3, 64, 80
5, 175440, Note_on_c, 3, 69, 80
5, 175440, Note_on_c, 3, 72, 80
5, 175679, Note_on_c, 3, 64, 0
5, 175679, Note_on_c, 3, 69, 0
5, 175679, Note_on_c, 3, 72, 0
5, 175920, Note_on_c, 3, 64, 80
5, 175920, Note_on_c, 3, 69, 80
5, 175920, Note_on_c, 3, 72, 80
5, 176159, Note_on_c, 3, 64, 0
5, 176159, Note_on_c, 3, 69, 0
5, 176159, Note_on_c, 3, 72, 0
5, 176400, Note_on_c, 3, 64, 80
5, 176400, Note_on_c, 3, 69, 80
5, 176400, Note_on_c, 3, 72, 80
5, 176639, Note_on_c, 3, 64, 0
5, 176639, Note_on_c, 3, 69, 0
5, 176639, Note_on_c, 3, 72, 0
5, 176880, Note_on_c, 3, 65, 80
5, 176880, Note_on_c, 3, 69, 80
5, 176880, Note_on_c, 3, 72, 80
5, 177119, Note_on_c, 3, 65, 0
5, 177119, Note_on_c, 3, 69, 0
5, 177119, Note_on_c, 3, 72, 0
5, 177360, Note_on_c, 3, 65, 80
5, 177360, Note_on_c, 3, 69, 80
5, 177360, Note_on_c, 3, 72, 80
5, 177599, Note_on_c, 3, 65, 0
5, 177599, Note_on_c, 3, 69, 0
5, 177599, Note_on_c, 3, 72, 0
5, 177840, Note_on_c, 3, 65, 80
5, 177840, Note_on_c, 3, 69, 80
5, 177840, Note_on_c, 3, 72, 80
5, 178079, Note_on_c, 3, 65, 0
5, 178079, Note_on_c, 3, 69, 0
5, 178079, Note_on_c, 3, 72, 0
5, 178320, Note_on_c, 3, 65, 80
5, 178320, Note_on_c, 3, 69, 80
5, 178320, Note_on_c, 3, 72, 80
5, 178559, Note_on_c, 3, 65, 0
5, 178559, Note_on_c, 3, 69, 0
5, 178559, Note_on_c, 3, 72, 0
5, 178800, Note_on_c, 3, 65, 80
5, 178800, Note_on_c, 3, 69, 80
5, 178800, Note_on_c, 3, 72, 80
5, 179039, Note_on_c, 3, 65, 0
5, 179039, Note_on_c, 3, 69, 0
5, 179039, Note_on_c, 3, 72, 0
5, 179280, Note_on_c, 3, 65, 80
5, 179280, Note_on_c, 3, 69, 80
5, 179280, Note_on_c, 3, 72, 80
5, 179519, Note_on_c, 3, 65, 0
5, 179519, Note_on_c, 3, 69, 0
5, 179519, Note_on_c, 3, 72, 0
5, 179760, Note_on_c, 3, 65, 80
5, 179760, Note_on_c, 3, 69, 80
5, 179760, Note_on_c, 3, 72, 80
5, 179999, Note_on_c, 3, 65, 0
5, 179999, Note_on_c, 3, 69, 0
5, 179999, Note_on_c, 3, 72, 0
5, 180240, Note_on_c, 3, 65, 80
5, 180240, Note_on_c, 3, 69, 80
5, 180240, Note_on_c, 3, 72, 80
5, 180479, Note_on_c, 3, 65, 0
5, 180479, Note_on_c, 3, 69, 0
5, 180479, Note_on_c, 3, 72, 0
5, 180720, Note_on_c, 3, 64, 80
5, 180720, Note_on_c, 3, 67, 80
5, 180720, Note_on_c, 3, 72, 80
5, 180959, Note_on_c, 3, 64, 0
5, 180959, Note_on_c, 3, 67, 0
5, 180959, Note_on_c, 3, 72, 0
5, 181200, Note_on_c, 3, 64, 80
5, 181200, Note_on_c, 3, 67, 80
5, 181200, Note_on_c, 3, 72, 80
5, 181439, Note_on_c, 3, 64, 0
5, 181439, Note_on_c, 3, 67, 0
5, 181439, Note_on_c, 3, 72, 0
5, 181680, Note_on_c, 3, 64, 80
5, 181680, Note_on_c, 3, 67, 80
5, 181680, Note_on_c, 3, 72, 80
5, 181919, Note_on_c, 3, 64, 0
5, 181919, Note_on_c, 3, 67, 0
5, 181919, Note_on_c, 3, 72, 0
5, 182160, Note_on_c, 3, 64, 80
5, 182160, Note_on_c, 3, 67, 80
5, 182160, Note_on_c, 3, 72, 80
5, 182399, Note_on_c, 3, 64, 0
5, 182399, Note_on_c, 3, 67, 0
5, 182399, Note_on_c, 3, 72, 0
5, 182640, Note_on_c, 3, 64, 80
5, 182640, Note_on_c, 3, 67, 80
5, 182640, Note_on_c, 3, 72, 80
5, 182879, Note_on_c, 3, 64, 0
5, 182879, Note_on_c, 3, 67, 0
5, 182879, Note_on_c, 3, 72, 0
5, 183120, Note_on_c, 3, 64, 80
5, 183120, Note_on_c, 3, 67, 80
5, 183120, Note_on_c, 3, 72, 80
5, 183359, Note_on_c, 3, 64, 0
5, 183359, Note_on_c, 3, 67, 0
5, 183359, Note_on_c, 3, 72, 0
5, 183600, Note_on_c, 3, 64, 80
5, 183600, Note_on_c, 3, 67, 80
5, 183600, Note_on_c, 3, 72, 80
5, 183839, Note_on_c, 3, 64, 0
5, 183839, Note_on_c, 3, 67, 0
5, 183839, Note_on_c, 3, 72, 0
5, 183840, End_track
0, 0, End_of_file
