0, 0, Header, 1, 3, 480
1, 0, Start_track
1, 0, Title_t, "Piano\000"
1, 0, Time_signature, 5, 3, 24, 8
1, 0, Key_signature, 0, "major"
1, 0, Tempo, 400000
1, 0, Control_c, 0, 121, 0
1, 0, Program_c, 0, 0
1, 0, Control_c, 0, 7, 100
1, 0, Control_c, 0, 10, 64
1, 0, Control_c, 0, 91, 0
1, 0, Control_c, 0, 93, 0
1, 0, MIDI_port, 0
1, 2, Control_c, 0, 64, 127
1, 48, Note_on_c, 0, 69, 80
1, 48, Note_on_c, 0, 76, 80
1, 500, Note_on_c, 0, 69, 0
1, 500, Note_on_c, 0, 76, 0
1, 528, Note_on_c, 0, 74, 80
1, 709, Note_on_c, 0, 74, 0
1, 720, Note_on_c, 0, 72, 80
1, 995, Note_on_c, 0, 72, 0
1, 1008, Note_on_c, 0, 69, 80
1, 1189, Note_on_c, 0, 69, 0
1, 1200, Time_signature, 4, 2, 24, 8
1, 1200, Note_on_c, 0, 64, 80
1, 1200, Note_on_c, 0, 69, 80
1, 1200, Note_on_c, 0, 72, 80
1, 1926, Note_on_c, 0, 64, 0
1, 1926, Note_on_c, 0, 69, 0
1, 1926, Note_on_c, 0, 72, 0
1, 1968, Note_on_c, 0, 76, 80
1, 2420, Note_on_c, 0, 76, 0
1, 2448, Note_on_c, 0, 74, 80
1, 2629, Note_on_c, 0, 74, 0
1, 2640, Note_on_c, 0, 72, 80
1, 2915, Note_on_c, 0, 72, 0
1, 2928, Note_on_c, 0, 69, 80
1, 3109, Note_on_c, 0, 69, 0
1, 3120, Note_on_c, 0, 72, 80
1, 3846, Note_on_c, 0, 72, 0
1, 3888, Note_on_c, 0, 76, 80
1, 4340, Note_on_c, 0, 76, 0
1, 4368, Note_on_c, 0, 74, 80
1, 4549, Note_on_c, 0, 74, 0
1, 4560, Note_on_c, 0, 72, 80
1, 4835, Note_on_c, 0, 72, 0
1, 4848, Note_on_c, 0, 69, 80
1, 5029, Note_on_c, 0, 69, 0
1, 5040, Note_on_c, 0, 72, 80
1, 5495, Note_on_c, 0, 72, 0
1, 5520, Note_on_c, 0, 72, 80
1, 5975, Note_on_c, 0, 72, 0
1, 6000, Note_on_c, 0, 79, 80
1, 6455, Note_on_c, 0, 79, 0
1, 6480, Note_on_c, 0, 76, 80
1, 6935, Note_on_c, 0, 76, 0
1, 7728, Note_on_c, 0, 76, 80
1, 8180, Note_on_c, 0, 76, 0
1, 8208, Note_on_c, 0, 74, 80
1, 8389, Note_on_c, 0, 74, 0
1, 8400, Note_on_c, 0, 72, 80
1, 8675, Note_on_c, 0, 72, 0
1, 8688, Note_on_c, 0, 69, 80
1, 8869, Note_on_c, 0, 69, 0
1, 8880, Note_on_c, 0, 64, 80
1, 8880, Note_on_c, 0, 69, 80
1, 8880, Note_on_c, 0, 72, 80
1, 9606, Note_on_c, 0, 64, 0
1, 9606, Note_on_c, 0, 69, 0
1, 9606, Note_on_c, 0, 72, 0
1, 9648, Note_on_c, 0, 76, 80
1, 10100, Note_on_c, 0, 76, 0
1, 10128, Note_on_c, 0, 74, 80
1, 10309, Note_on_c, 0, 74, 0
1, 10320, Note_on_c, 0, 72, 80
1, 10595, Note_on_c, 0, 72, 0
1, 10608, Note_on_c, 0, 69, 80
1, 10789, Note_on_c, 0, 69, 0
1, 10800, Note_on_c, 0, 72, 80
1, 11526, Note_on_c, 0, 72, 0
1, 11568, Note_on_c, 0, 76, 80
1, 12020, Note_on_c, 0, 76, 0
1, 12048, Note_on_c, 0, 74, 80
1, 12229, Note_on_c, 0, 74, 0
1, 12240, Note_on_c, 0, 72, 80
1, 12515, Note_on_c, 0, 72, 0
1, 12528, Note_on_c, 0, 69, 80
1, 12709, Note_on_c, 0, 69, 0
1, 12720, Note_on_c, 0, 72, 80
1, 13175, Note_on_c, 0, 72, 0
1, 13200, Note_on_c, 0, 72, 80
1, 13655, Note_on_c, 0, 72, 0
1, 13680, Note_on_c, 0, 79, 80
1, 14135, Note_on_c, 0, 79, 0
1, 14160, Note_on_c, 0, 76, 80
1, 14615, Note_on_c, 0, 76, 0
1, 15408, Note_on_c, 0, 76, 80
1, 15860, Note_on_c, 0, 76, 0
1, 15888, Note_on_c, 0, 74, 80
1, 16069, Note_on_c, 0, 74, 0
1, 16080, Note_on_c, 0, 72, 80
1, 16355, Note_on_c, 0, 72, 0
1, 16368, Note_on_c, 0, 69, 80
1, 16549, Note_on_c, 0, 69, 0
1, 16560, Note_on_c, 0, 72, 80
1, 16560, Note_on_c, 0, 76, 80
1, 17286, Note_on_c, 0, 72, 0
1, 17286, Note_on_c, 0, 76, 0
1, 17328, Note_on_c, 0, 67, 80
1, 17509, Note_on_c, 0, 67, 0
1, 17520, Note_on_c, 0, 69, 80
1, 17795, Note_on_c, 0, 69, 0
1, 17808, Note_on_c, 0, 67, 80
1, 17989, Note_on_c, 0, 67, 0
1, 18000, Note_on_c, 0, 69, 80
1, 18275, Note_on_c, 0, 69, 0
1, 18288, Note_on_c, 0, 72, 80
1, 18469, Note_on_c, 0, 72, 0
1, 18480, Note_on_c, 0, 76, 80
1, 18821, Note_on_c, 0, 76, 0
1, 18840, Note_on_c, 0, 76, 80
1, 19227, Note_on_c, 0, 76, 0
1, 19248, Note_on_c, 0, 72, 80
1, 19700, Note_on_c, 0, 72, 0
1, 19728, Note_on_c, 0, 69, 80
1, 19909, Note_on_c, 0, 69, 0
1, 19920, Note_on_c, 0, 67, 80
1, 20375, Note_on_c, 0, 67, 0
1, 20400, Note_on_c, 0, 64, 80
1, 21126, Note_on_c, 0, 64, 0
1, 21168, Note_on_c, 0, 67, 80
1, 21349, Note_on_c, 0, 67, 0
1, 21360, Note_on_c, 0, 69, 80
1, 21635, Note_on_c, 0, 69, 0
1, 21648, Note_on_c, 0, 67, 80
1, 21829, Note_on_c, 0, 67, 0
1, 21840, Note_on_c, 0, 69, 80
1, 22115, Note_on_c, 0, 69, 0
1, 22128, Note_on_c, 0, 72, 80
1, 22309, Note_on_c, 0, 72, 0
1, 22320, Note_on_c, 0, 76, 80
1, 22661, Note_on_c, 0, 76, 0
1, 22680, Note_on_c, 0, 76, 80
1, 23067, Note_on_c, 0, 76, 0
1, 23088, Note_on_c, 0, 72, 80
1, 23540, Note_on_c, 0, 72, 0
1, 24240, Note_on_c, 0, 64, 80
1, 24966, Note_on_c, 0, 64, 0
1, 25008, Note_on_c, 0, 67, 80
1, 25189, Note_on_c, 0, 67, 0
1, 25200, Note_on_c, 0, 69, 80
1, 25475, Note_on_c, 0, 69, 0
1, 25488, Note_on_c, 0, 67, 80
1, 25669, Note_on_c, 0, 67, 0
1, 25680, Note_on_c, 0, 69, 80
1, 25955, Note_on_c, 0, 69, 0
1, 25968, Note_on_c, 0, 72, 80
1, 26149, Note_on_c, 0, 72, 0
1, 26160, Note_on_c, 0, 76, 80
1, 26501, Note_on_c, 0, 76, 0
1, 26520, Note_on_c, 0, 76, 80
1, 26907, Note_on_c, 0, 76, 0
1, 26928, Note_on_c, 0, 72, 80
1, 27380, Note_on_c, 0, 72, 0
1, 27408, Note_on_c, 0, 69, 80
1, 27589, Note_on_c, 0, 69, 0
1, 27600, Note_on_c, 0, 67, 80
1, 28055, Note_on_c, 0, 67, 0
1, 28080, Note_on_c, 0, 64, 80
1, 28806, Note_on_c, 0, 64, 0
1, 28848, Note_on_c, 0, 67, 80
1, 29029, Note_on_c, 0, 67, 0
1, 29040, Note_on_c, 0, 69, 80
1, 29315, Note_on_c, 0, 69, 0
1, 29328, Note_on_c, 0, 67, 80
1, 29509, Note_on_c, 0, 67, 0
1, 29520, Note_on_c, 0, 69, 80
1, 29795, Note_on_c, 0, 69, 0
1, 29808, Note_on_c, 0, 72, 80
1, 29989, Note_on_c, 0, 72, 0
1, 30000, Note_on_c, 0, 76, 80
1, 30341, Note_on_c, 0, 76, 0
1, 30360, Note_on_c, 0, 76, 80
1, 30747, Note_on_c, 0, 76, 0
1, 30768, Note_on_c, 0, 72, 80
1, 31220, Note_on_c, 0, 72, 0
1, 31248, Note_on_c, 0, 74, 80
1, 31429, Note_on_c, 0, 74, 0
1, 31440, Note_on_c, 0, 72, 80
1, 31715, Note_on_c, 0, 72, 0
1, 31728, Note_on_c, 0, 69, 80
1, 31909, Note_on_c, 0, 69, 0
1, 31920, Note_on_c, 0, 64, 80
1, 31920, Note_on_c, 0, 69, 80
1, 31920, Note_on_c, 0, 72, 80
1, 32646, Note_on_c, 0, 64, 0
1, 32646, Note_on_c, 0, 69, 0
1, 32646, Note_on_c, 0, 72, 0
1, 32688, Note_on_c, 0, 76, 80
1, 33140, Note_on_c, 0, 76, 0
1, 33168, Note_on_c, 0, 74, 80
1, 33349, Note_on_c, 0, 74, 0
1, 33360, Note_on_c, 0, 72, 80
1, 33635, Note_on_c, 0, 72, 0
1, 33648, Note_on_c, 0, 69, 80
1, 33829, Note_on_c, 0, 69, 0
1, 33840, Note_on_c, 0, 72, 80
1, 34566, Note_on_c, 0, 72, 0
1, 34608, Note_on_c, 0, 76, 80
1, 35060, Note_on_c, 0, 76, 0
1, 35088, Note_on_c, 0, 74, 80
1, 35269, Note_on_c, 0, 74, 0
1, 35280, Note_on_c, 0, 72, 80
1, 35555, Note_on_c, 0, 72, 0
1, 35568, Note_on_c, 0, 69, 80
1, 35749, Note_on_c, 0, 69, 0
1, 35760, Note_on_c, 0, 72, 80
1, 36215, Note_on_c, 0, 72, 0
1, 36240, Note_on_c, 0, 72, 80
1, 36695, Note_on_c, 0, 72, 0
1, 36720, Note_on_c, 0, 79, 80
1, 37175, Note_on_c, 0, 79, 0
1, 37200, Note_on_c, 0, 76, 80
1, 37655, Note_on_c, 0, 76, 0
1, 38448, Note_on_c, 0, 76, 80
1, 38900, Note_on_c, 0, 76, 0
1, 38928, Note_on_c, 0, 74, 80
1, 39109, Note_on_c, 0, 74, 0
1, 39120, Note_on_c, 0, 72, 80
1, 39395, Note_on_c, 0, 72, 0
1, 39408, Note_on_c, 0, 69, 80
1, 39589, Note_on_c, 0, 69, 0
1, 39600, Note_on_c, 0, 64, 80
1, 39600, Note_on_c, 0, 69, 80
1, 39600, Note_on_c, 0, 72, 80
1, 40326, Note_on_c, 0, 64, 0
1, 40326, Note_on_c, 0, 69, 0
1, 40326, Note_on_c, 0, 72, 0
1, 40368, Note_on_c, 0, 76, 80
1, 40820, Note_on_c, 0, 76, 0
1, 40848, Note_on_c, 0, 74, 80
1, 41029, Note_on_c, 0, 74, 0
1, 41040, Note_on_c, 0, 72, 80
1, 41315, Note_on_c, 0, 72, 0
1, 41328, Note_on_c, 0, 69, 80
1, 41509, Note_on_c, 0, 69, 0
1, 41520, Note_on_c, 0, 72, 80
1, 42246, Note_on_c, 0, 72, 0
1, 42288, Note_on_c, 0, 76, 80
1, 42740, Note_on_c, 0, 76, 0
1, 42768, Note_on_c, 0, 74, 80
1, 42949, Note_on_c, 0, 74, 0
1, 42960, Note_on_c, 0, 72, 80
1, 43235, Note_on_c, 0, 72, 0
1, 43248, Note_on_c, 0, 69, 80
1, 43429, Note_on_c, 0, 69, 0
1, 43440, Note_on_c, 0, 72, 80
1, 43895, Note_on_c, 0, 72, 0
1, 43920, Note_on_c, 0, 72, 80
1, 44375, Note_on_c, 0, 72, 0
1, 44400, Note_on_c, 0, 79, 80
1, 44855, Note_on_c, 0, 79, 0
1, 44880, Note_on_c, 0, 76, 80
1, 45335, Note_on_c, 0, 76, 0
1, 46128, Note_on_c, 0, 76, 80
1, 46580, Note_on_c, 0, 76, 0
1, 46608, Note_on_c, 0, 74, 80
1, 46789, Note_on_c, 0, 74, 0
1, 46800, Note_on_c, 0, 72, 80
1, 47075, Note_on_c, 0, 72, 0
1, 47088, Note_on_c, 0, 69, 80
1, 47269, Note_on_c, 0, 69, 0
1, 47280, Note_on_c, 0, 72, 80
1, 47280, Note_on_c, 0, 76, 80
1, 48006, Note_on_c, 0, 72, 0
1, 48006, Note_on_c, 0, 76, 0
1, 48048, Note_on_c, 0, 67, 80
1, 48229, Note_on_c, 0, 67, 0
1, 48240, Note_on_c, 0, 69, 80
1, 48515, Note_on_c, 0, 69, 0
1, 48528, Note_on_c, 0, 67, 80
1, 48709, Note_on_c, 0, 67, 0
1, 48720, Note_on_c, 0, 69, 80
1, 48995, Note_on_c, 0, 69, 0
1, 49008, Note_on_c, 0, 72, 80
1, 49189, Note_on_c, 0, 72, 0
1, 49200, Note_on_c, 0, 76, 80
1, 49541, Note_on_c, 0, 76, 0
1, 49560, Note_on_c, 0, 76, 80
1, 49947, Note_on_c, 0, 76, 0
1, 49968, Note_on_c, 0, 72, 80
1, 50420, Note_on_c, 0, 72, 0
1, 50448, Note_on_c, 0, 69, 80
1, 50629, Note_on_c, 0, 69, 0
1, 50640, Note_on_c, 0, 67, 80
1, 51095, Note_on_c, 0, 67, 0
1, 51120, Note_on_c, 0, 64, 80
1, 51846, Note_on_c, 0, 64, 0
1, 51888, Note_on_c, 0, 67, 80
1, 52069, Note_on_c, 0, 67, 0
1, 52080, Note_on_c, 0, 69, 80
1, 52355, Note_on_c, 0, 69, 0
1, 52368, Note_on_c, 0, 67, 80
1, 52549, Note_on_c, 0, 67, 0
1, 52560, Note_on_c, 0, 69, 80
1, 52835, Note_on_c, 0, 69, 0
1, 52848, Note_on_c, 0, 72, 80
1, 53029, Note_on_c, 0, 72, 0
1, 53040, Note_on_c, 0, 76, 80
1, 53381, Note_on_c, 0, 76, 0
1, 53400, Note_on_c, 0, 76, 80
1, 53787, Note_on_c, 0, 76, 0
1, 53808, Note_on_c, 0, 72, 80
1, 54260, Note_on_c, 0, 72, 0
1, 54960, Note_on_c, 0, 64, 80
1, 55686, Note_on_c, 0, 64, 0
1, 55728, Note_on_c, 0, 67, 80
1, 55909, Note_on_c, 0, 67, 0
1, 55920, Note_on_c, 0, 69, 80
1, 56195, Note_on_c, 0, 69, 0
1, 56208, Note_on_c, 0, 67, 80
1, 56389, Note_on_c, 0, 67, 0
1, 56400, Note_on_c, 0, 69, 80
1, 56675, Note_on_c, 0, 69, 0
1, 56688, Note_on_c, 0, 72, 80
1, 56869, Note_on_c, 0, 72, 0
1, 56880, Note_on_c, 0, 76, 80
1, 57221, Note_on_c, 0, 76, 0
1, 57240, Note_on_c, 0, 76, 80
1, 57627, Note_on_c, 0, 76, 0
1, 57648, Note_on_c, 0, 72, 80
1, 58100, Note_on_c, 0, 72, 0
1, 58128, Note_on_c, 0, 69, 80
1, 58309, Note_on_c, 0, 69, 0
1, 58320, Note_on_c, 0, 67, 80
1, 58775, Note_on_c, 0, 67, 0
1, 58800, Note_on_c, 0, 76, 80
1, 59568, Note_on_c, 0, 67, 80
1, 59749, Note_on_c, 0, 67, 0
1, 59760, Note_on_c, 0, 69, 80
1, 60035, Note_on_c, 0, 69, 0
1, 60048, Note_on_c, 0, 67, 80
1, 60167, Note_on_c, 0, 76, 0
1, 60229, Note_on_c, 0, 67, 0
1, 60240, Note_on_c, 0, 69, 80
1, 60515, Note_on_c, 0, 69, 0
1, 60528, Note_on_c, 0, 72, 80
1, 60709, Note_on_c, 0, 72, 0
1, 60720, Note_on_c, 0, 76, 80
1, 61061, Note_on_c, 0, 76, 0
1, 61080, Note_on_c, 0, 76, 80
1, 61467, Note_on_c, 0, 76, 0
1, 61488, Note_on_c, 0, 72, 80
1, 61940, Note_on_c, 0, 72, 0
1, 62160, Note_on_c, 0, 69, 80
1, 63071, Note_on_c, 0, 69, 0
1, 63120, Note_on_c, 0, 72, 80
1, 63120, Note_on_c, 0, 79, 80
1, 63575, Note_on_c, 0, 72, 0
1, 63575, Note_on_c, 0, 79, 0
1, 63600, Note_on_c, 0, 72, 80
1, 63600, Note_on_c, 0, 76, 80
1, 64055, Note_on_c, 0, 72, 0
1, 64055, Note_on_c, 0, 76, 0
1, 64080, Note_on_c, 0, 72, 80
1, 64080, Note_on_c, 0, 79, 80
1, 64535, Note_on_c, 0, 72, 0
1, 64535, Note_on_c, 0, 79, 0
1, 64560, Note_on_c, 0, 72, 80
1, 64560, Note_on_c, 0, 76, 80
1, 65015, Note_on_c, 0, 72, 0
1, 65015, Note_on_c, 0, 76, 0
1, 65040, Note_on_c, 0, 72, 80
1, 65040, Note_on_c, 0, 79, 80
1, 65495, Note_on_c, 0, 72, 0
1, 65495, Note_on_c, 0, 79, 0
1, 65520, Note_on_c, 0, 69, 80
1, 65520, Note_on_c, 0, 74, 80
1, 66431, Note_on_c, 0, 69, 0
1, 66431, Note_on_c, 0, 74, 0
1, 66960, Note_on_c, 0, 72, 80
1, 66960, Note_on_c, 0, 79, 80
1, 67415, Note_on_c, 0, 72, 0
1, 67415, Note_on_c, 0, 79, 0
1, 67440, Note_on_c, 0, 72, 80
1, 67440, Note_on_c, 0, 76, 80
1, 67895, Note_on_c, 0, 72, 0
1, 67895, Note_on_c, 0, 76, 0
1, 67920, Note_on_c, 0, 72, 80
1, 67920, Note_on_c, 0, 79, 80
1, 68375, Note_on_c, 0, 72, 0
1, 68375, Note_on_c, 0, 79, 0
1, 68400, Note_on_c, 0, 72, 80
1, 68400, Note_on_c, 0, 76, 80
1, 68855, Note_on_c, 0, 72, 0
1, 68855, Note_on_c, 0, 76, 0
1, 68880, Note_on_c, 0, 72, 80
1, 68880, Note_on_c, 0, 79, 80
1, 69335, Note_on_c, 0, 72, 0
1, 69335, Note_on_c, 0, 79, 0
1, 69360, Note_on_c, 0, 67, 80
1, 69360, Note_on_c, 0, 74, 80
1, 70271, Note_on_c, 0, 67, 0
1, 70271, Note_on_c, 0, 74, 0
1, 70800, Note_on_c, 0, 74, 80
1, 70800, Note_on_c, 0, 79, 80
1, 71255, Note_on_c, 0, 74, 0
1, 71255, Note_on_c, 0, 79, 0
1, 71280, Note_on_c, 0, 74, 80
1, 71280, Note_on_c, 0, 76, 80
1, 71735, Note_on_c, 0, 74, 0
1, 71735, Note_on_c, 0, 76, 0
1, 71760, Note_on_c, 0, 74, 80
1, 71760, Note_on_c, 0, 79, 80
1, 72215, Note_on_c, 0, 74, 0
1, 72215, Note_on_c, 0, 79, 0
1, 72240, Note_on_c, 0, 74, 80
1, 72240, Note_on_c, 0, 76, 80
1, 72695, Note_on_c, 0, 74, 0
1, 72695, Note_on_c, 0, 76, 0
1, 72720, Note_on_c, 0, 74, 80
1, 72720, Note_on_c, 0, 79, 80
1, 73175, Note_on_c, 0, 74, 0
1, 73175, Note_on_c, 0, 79, 0
1, 73200, Note_on_c, 0, 74, 80
1, 74111, Note_on_c, 0, 74, 0
1, 74160, Note_on_c, 0, 69, 80
1, 74160, Note_on_c, 0, 74, 80
1, 74615, Note_on_c, 0, 69, 0
1, 74615, Note_on_c, 0, 74, 0
1, 74640, Note_on_c, 0, 74, 80
1, 75095, Note_on_c, 0, 74, 0
1, 75120, Note_on_c, 0, 74, 80
1, 75575, Note_on_c, 0, 74, 0
1, 75600, Note_on_c, 0, 72, 80
1, 76055, Note_on_c, 0, 72, 0
1, 76080, Note_on_c, 0, 76, 80
1, 76806, Note_on_c, 0, 76, 0
1, 76847, Note_on_c, 0, 72, 80
1, 77484, Note_on_c, 0, 72, 0
1, 77520, Note_on_c, 0, 72, 80
1, 77975, Note_on_c, 0, 72, 0
1, 78480, Note_on_c, 0, 72, 80
1, 78480, Note_on_c, 0, 79, 80
1, 78935, Note_on_c, 0, 72, 0
1, 78935, Note_on_c, 0, 79, 0
1, 78960, Note_on_c, 0, 72, 80
1, 78960, Note_on_c, 0, 76, 80
1, 79415, Note_on_c, 0, 72, 0
1, 79415, Note_on_c, 0, 76, 0
1, 79440, Note_on_c, 0, 72, 80
1, 79440, Note_on_c, 0, 79, 80
1, 79895, Note_on_c, 0, 72, 0
1, 79895, Note_on_c, 0, 79, 0
1, 79920, Note_on_c, 0, 72, 80
1, 79920, Note_on_c, 0, 76, 80
1, 80375, Note_on_c, 0, 72, 0
1, 80375, Note_on_c, 0, 76, 0
1, 80400, Note_on_c, 0, 72, 80
1, 80400, Note_on_c, 0, 79, 80
1, 80855, Note_on_c, 0, 72, 0
1, 80855, Note_on_c, 0, 79, 0
1, 80880, Note_on_c, 0, 69, 80
1, 80880, Note_on_c, 0, 74, 80
1, 81791, Note_on_c, 0, 69, 0
1, 81791, Note_on_c, 0, 74, 0
1, 82320, Note_on_c, 0, 72, 80
1, 82320, Note_on_c, 0, 79, 80
1, 82775, Note_on_c, 0, 72, 0
1, 82775, Note_on_c, 0, 79, 0
1, 82800, Note_on_c, 0, 72, 80
1, 82800, Note_on_c, 0, 76, 80
1, 83255, Note_on_c, 0, 72, 0
1, 83255, Note_on_c, 0, 76, 0
1, 83280, Note_on_c, 0, 72, 80
1, 83280, Note_on_c, 0, 79, 80
1, 83735, Note_on_c, 0, 72, 0
1, 83735, Note_on_c, 0, 79, 0
1, 83760, Note_on_c, 0, 72, 80
1, 83760, Note_on_c, 0, 76, 80
1, 84215, Note_on_c, 0, 72, 0
1, 84215, Note_on_c, 0, 76, 0
1, 84240, Note_on_c, 0, 72, 80
1, 84240, Note_on_c, 0, 79, 80
1, 84695, Note_on_c, 0, 72, 0
1, 84695, Note_on_c, 0, 79, 0
1, 84720, Note_on_c, 0, 67, 80
1, 84720, Note_on_c, 0, 74, 80
1, 85631, Note_on_c, 0, 67, 0
1, 85631, Note_on_c, 0, 74, 0
1, 86160, Note_on_c, 0, 74, 80
1, 86160, Note_on_c, 0, 79, 80
1, 86615, Note_on_c, 0, 74, 0
1, 86615, Note_on_c, 0, 79, 0
1, 86640, Note_on_c, 0, 74, 80
1, 86640, Note_on_c, 0, 76, 80
1, 87095, Note_on_c, 0, 74, 0
1, 87095, Note_on_c, 0, 76, 0
1, 87120, Note_on_c, 0, 74, 80
1, 87120, Note_on_c, 0, 79, 80
1, 87575, Note_on_c, 0, 74, 0
1, 87575, Note_on_c, 0, 79, 0
1, 87600, Note_on_c, 0, 74, 80
1, 87600, Note_on_c, 0, 76, 80
1, 88055, Note_on_c, 0, 74, 0
1, 88055, Note_on_c, 0, 76, 0
1, 88080, Note_on_c, 0, 74, 80
1, 88080, Note_on_c, 0, 79, 80
1, 88535, Note_on_c, 0, 74, 0
1, 88535, Note_on_c, 0, 79, 0
1, 88560, Note_on_c, 0, 74, 80
1, 89471, Note_on_c, 0, 74, 0
1, 89520, Note_on_c, 0, 69, 80
1, 89520, Note_on_c, 0, 74, 80
1, 89975, Note_on_c, 0, 69, 0
1, 89975, Note_on_c, 0, 74, 0
1, 90000, Note_on_c, 0, 74, 80
1, 90455, Note_on_c, 0, 74, 0
1, 90480, Note_on_c, 0, 74, 80
1, 90935, Note_on_c, 0, 74, 0
1, 90960, Note_on_c, 0, 72, 80
1, 91415, Note_on_c, 0, 72, 0
1, 91440, Note_on_c, 0, 76, 80
1, 92166, Note_on_c, 0, 76, 0
1, 92207, Note_on_c, 0, 72, 80
1, 92844, Note_on_c, 0, 72, 0
1, 92880, Note_on_c, 0, 72, 80
1, 93335, Note_on_c, 0, 72, 0
1, 93360, Note_on_c, 0, 64, 80
1, 94086, Note_on_c, 0, 64, 0
1, 94128, Note_on_c, 0, 67, 80
1, 94309, Note_on_c, 0, 67, 0
1, 94320, Note_on_c, 0, 69, 80
1, 94595, Note_on_c, 0, 69, 0
1, 94608, Note_on_c, 0, 67, 80
1, 94789, Note_on_c, 0, 67, 0
1, 94800, Note_on_c, 0, 69, 80
1, 95075, Note_on_c, 0, 69, 0
1, 95088, Note_on_c, 0, 72, 80
1, 95269, Note_on_c, 0, 72, 0
1, 95280, Note_on_c, 0, 76, 80
1, 95621, Note_on_c, 0, 76, 0
1, 95640, Note_on_c, 0, 76, 80
1, 96027, Note_on_c, 0, 76, 0
1, 96048, Note_on_c, 0, 72, 80
1, 96500, Note_on_c, 0, 72, 0
1, 96528, Note_on_c, 0, 69, 80
1, 96709, Note_on_c, 0, 69, 0
1, 96720, Note_on_c, 0, 67, 80
1, 97175, Note_on_c, 0, 67, 0
1, 97200, Note_on_c, 0, 64, 80
1, 97926, Note_on_c, 0, 64, 0
1, 97968, Note_on_c, 0, 67, 80
1, 98149, Note_on_c, 0, 67, 0
1, 98160, Note_on_c, 0, 69, 80
1, 98435, Note_on_c, 0, 69, 0
1, 98448, Note_on_c, 0, 67, 80
1, 98629, Note_on_c, 0, 67, 0
1, 98640, Note_on_c, 0, 69, 80
1, 98915, Note_on_c, 0, 69, 0
1, 98928, Note_on_c, 0, 72, 80
1, 99109, Note_on_c, 0, 72, 0
1, 99120, Note_on_c, 0, 76, 80
1, 99461, Note_on_c, 0, 76, 0
1, 99480, Note_on_c, 0, 76, 80
1, 99867, Note_on_c, 0, 76, 0
1, 99888, Note_on_c, 0, 60, 80
1, 99888, Note_on_c, 0, 72, 80
1, 99888, Note_on_c, 0, 60, 0
1, 100340, Note_on_c, 0, 72, 0
1, 101040, Note_on_c, 0, 64, 80
1, 101766, Note_on_c, 0, 64, 0
1, 101808, Note_on_c, 0, 67, 80
1, 101989, Note_on_c, 0, 67, 0
1, 102000, Note_on_c, 0, 69, 80
1, 102275, Note_on_c, 0, 69, 0
1, 102288, Note_on_c, 0, 67, 80
1, 102469, Note_on_c, 0, 67, 0
1, 102480, Note_on_c, 0, 69, 80
1, 102755, Note_on_c, 0, 69, 0
1, 102768, Note_on_c, 0, 72, 80
1, 102949, Note_on_c, 0, 72, 0
1, 102960, Note_on_c, 0, 76, 80
1, 103301, Note_on_c, 0, 76, 0
1, 103320, Note_on_c, 0, 76, 80
1, 103707, Note_on_c, 0, 76, 0
1, 103728, Note_on_c, 0, 72, 80
1, 104180, Note_on_c, 0, 72, 0
1, 104208, Note_on_c, 0, 69, 80
1, 104389, Note_on_c, 0, 69, 0
1, 104400, Note_on_c, 0, 67, 80
1, 104855, Note_on_c, 0, 67, 0
1, 104880, Note_on_c, 0, 69, 80
1, 104880, Note_on_c, 0, 74, 80
1, 105335, Note_on_c, 0, 69, 0
1, 105335, Note_on_c, 0, 74, 0
1, 105360, Note_on_c, 0, 74, 80
1, 105815, Note_on_c, 0, 74, 0
1, 105840, Note_on_c, 0, 74, 80
1, 106295, Note_on_c, 0, 74, 0
1, 106320, Note_on_c, 0, 72, 80
1, 106775, Note_on_c, 0, 72, 0
1, 106800, Note_on_c, 0, 76, 80
1, 107526, Note_on_c, 0, 76, 0
1, 107567, Note_on_c, 0, 60, 80
1, 107567, Note_on_c, 0, 72, 80
1, 107568, Note_on_c, 0, 60, 0
1, 108204, Note_on_c, 0, 72, 0
1, 108240, Note_on_c, 0, 60, 80
1, 108240, Note_on_c, 0, 72, 80
1, 108695, Note_on_c, 0, 60, 0
1, 108695, Note_on_c, 0, 72, 0
1, 111600, Note_on_c, 0, 79, 80
1, 111875, Note_on_c, 0, 79, 0
1, 111888, Note_on_c, 0, 81, 80
1, 112069, Note_on_c, 0, 81, 0
1, 112080, Note_on_c, 0, 79, 80
1, 112355, Note_on_c, 0, 79, 0
1, 112368, Note_on_c, 0, 74, 80
1, 112549, Note_on_c, 0, 74, 0
1, 112560, Note_on_c, 0, 76, 80
1, 112835, Note_on_c, 0, 76, 0
1, 115440, Note_on_c, 0, 76, 80
1, 116166, Note_on_c, 0, 76, 0
1, 116208, Note_on_c, 0, 72, 80
1, 116389, Note_on_c, 0, 72, 0
1, 116400, Note_on_c, 0, 74, 80
1, 116675, Note_on_c, 0, 74, 0
1, 119280, Note_on_c, 0, 76, 80
1, 120191, Note_on_c, 0, 76, 0
1, 120240, Note_on_c, 0, 72, 80
1, 120240, Note_on_c, 0, 74, 80
1, 120695, Note_on_c, 0, 72, 0
1, 120695, Note_on_c, 0, 74, 0
1, 120720, Note_on_c, 0, 74, 80
1, 121175, Note_on_c, 0, 74, 0
1, 121200, Note_on_c, 0, 74, 80
1, 121655, Note_on_c, 0, 74, 0
1, 121680, Note_on_c, 0, 72, 80
1, 122135, Note_on_c, 0, 72, 0
1, 122160, Note_on_c, 0, 76, 80
1, 122886, Note_on_c, 0, 76, 0
1, 122927, Note_on_c, 0, 72, 80
1, 123564, Note_on_c, 0, 72, 0
1, 123600, Note_on_c, 0, 72, 80
1, 124055, Note_on_c, 0, 72, 0
1, 124080, Note_on_c, 0, 81, 80
1, 124535, Note_on_c, 0, 81, 0
1, 124560, Note_on_c, 0, 79, 80
1, 125015, Note_on_c, 0, 79, 0
1, 125040, Note_on_c, 0, 81, 80
1, 125951, Note_on_c, 0, 81, 0
1, 126000, Note_on_c, 0, 76, 80
1, 126911, Note_on_c, 0, 76, 0
1, 126960, Note_on_c, 0, 74, 80
1, 127415, Note_on_c, 0, 74, 0
1, 127440, Note_on_c, 0, 72, 80
1, 127895, Note_on_c, 0, 72, 0
1, 127920, Note_on_c, 0, 74, 80
1, 128646, Note_on_c, 0, 74, 0
1, 128687, Note_on_c, 0, 76, 80
1, 129324, Note_on_c, 0, 76, 0
1, 129360, Note_on_c, 0, 76, 80
1, 129815, Note_on_c, 0, 76, 0
1, 130320, Note_on_c, 0, 72, 80
1, 130775, Note_on_c, 0, 72, 0
1, 130800, Note_on_c, 0, 72, 80
1, 131255, Note_on_c, 0, 72, 0
1, 131280, Note_on_c, 0, 72, 80
1, 131735, Note_on_c, 0, 72, 0
1, 131760, Note_on_c, 0, 81, 80
1, 132215, Note_on_c, 0, 81, 0
1, 132240, Note_on_c, 0, 79, 80
1, 132695, Note_on_c, 0, 79, 0
1, 132720, Note_on_c, 0, 79, 80
1, 133175, Note_on_c, 0, 79, 0
1, 133200, Note_on_c, 0, 81, 80
1, 133655, Note_on_c, 0, 81, 0
1, 133680, Note_on_c, 0, 76, 80
1, 134135, Note_on_c, 0, 76, 0
1, 134160, Note_on_c, 0, 74, 80
1, 134615, Note_on_c, 0, 74, 0
1, 134640, Note_on_c, 0, 72, 80
1, 135095, Note_on_c, 0, 72, 0
1, 135120, Note_on_c, 0, 74, 80
1, 135575, Note_on_c, 0, 74, 0
1, 135600, Note_on_c, 0, 74, 80
1, 136055, Note_on_c, 0, 74, 0
1, 136080, Note_on_c, 0, 72, 80
1, 136535, Note_on_c, 0, 72, 0
1, 136560, Note_on_c, 0, 72, 80
1, 137015, Note_on_c, 0, 72, 0
1, 137040, Note_on_c, 0, 72, 80
1, 137495, Note_on_c, 0, 72, 0
1, 137520, Note_on_c, 0, 72, 80
1, 137975, Note_on_c, 0, 72, 0
1, 138480, Note_on_c, 0, 72, 80
1, 138935, Note_on_c, 0, 72, 0
1, 138960, Note_on_c, 0, 72, 80
1, 139415, Note_on_c, 0, 72, 0
1, 139440, Note_on_c, 0, 81, 80
1, 139895, Note_on_c, 0, 81, 0
1, 139920, Note_on_c, 0, 79, 80
1, 140375, Note_on_c, 0, 79, 0
1, 140400, Note_on_c, 0, 81, 80
1, 141311, Note_on_c, 0, 81, 0
1, 141360, Note_on_c, 0, 76, 80
1, 142271, Note_on_c, 0, 76, 0
1, 142320, Note_on_c, 0, 74, 80
1, 142775, Note_on_c, 0, 74, 0
1, 142800, Note_on_c, 0, 72, 80
1, 143255, Note_on_c, 0, 72, 0
1, 143280, Note_on_c, 0, 74, 80
1, 143735, Note_on_c, 0, 74, 0
1, 143760, Note_on_c, 0, 76, 80
1, 144671, Note_on_c, 0, 76, 0
1, 144720, Note_on_c, 0, 76, 80
1, 145175, Note_on_c, 0, 76, 0
1, 146160, Note_on_c, 0, 72, 80
1, 146615, Note_on_c, 0, 72, 0
1, 146640, Note_on_c, 0, 72, 80
1, 147095, Note_on_c, 0, 72, 0
1, 147120, Note_on_c, 0, 81, 80
1, 147575, Note_on_c, 0, 81, 0
1, 147600, Note_on_c, 0, 79, 80
1, 148055, Note_on_c, 0, 79, 0
1, 148080, Note_on_c, 0, 81, 80
1, 148535, Note_on_c, 0, 81, 0
1, 148560, Note_on_c, 0, 74, 80
1, 149015, Note_on_c, 0, 74, 0
1, 149040, Note_on_c, 0, 74, 80
1, 149495, Note_on_c, 0, 74, 0
1, 149520, Note_on_c, 0, 74, 80
1, 149975, Note_on_c, 0, 74, 0
1, 150000, Note_on_c, 0, 74, 80
1, 150455, Note_on_c, 0, 74, 0
1, 150480, Note_on_c, 0, 74, 80
1, 150935, Note_on_c, 0, 74, 0
1, 150960, Note_on_c, 0, 74, 80
1, 151686, Note_on_c, 0, 74, 0
1, 151727, Note_on_c, 0, 72, 80
1, 152364, Note_on_c, 0, 72, 0
1, 152400, Note_on_c, 0, 72, 80
1, 152855, Note_on_c, 0, 72, 0
1, 155280, Note_on_c, 0, 67, 80
1, 155735, Note_on_c, 0, 67, 0
1, 155760, Note_on_c, 0, 64, 80
1, 156215, Note_on_c, 0, 64, 0
1, 156240, Note_on_c, 0, 67, 80
1, 156695, Note_on_c, 0, 67, 0
1, 156720, Note_on_c, 0, 64, 80
1, 157175, Note_on_c, 0, 64, 0
1, 157200, Note_on_c, 0, 67, 80
1, 157655, Note_on_c, 0, 67, 0
1, 157680, Note_on_c, 0, 62, 80
1, 158591, Note_on_c, 0, 62, 0
1, 159120, Note_on_c, 0, 67, 80
1, 159575, Note_on_c, 0, 67, 0
1, 159600, Note_on_c, 0, 64, 80
1, 160055, Note_on_c, 0, 64, 0
1, 160080, Note_on_c, 0, 67, 80
1, 160535, Note_on_c, 0, 67, 0
1, 160560, Note_on_c, 0, 64, 80
1, 161015, Note_on_c, 0, 64, 0
1, 161040, Note_on_c, 0, 67, 80
1, 161495, Note_on_c, 0, 67, 0
1, 161520, Note_on_c, 0, 62, 80
1, 162431, Note_on_c, 0, 62, 0
1, 162960, Note_on_c, 0, 67, 80
1, 163415, Note_on_c, 0, 67, 0
1, 163440, Note_on_c, 0, 64, 80
1, 163895, Note_on_c, 0, 64, 0
1, 163920, Note_on_c, 0, 67, 80
1, 164375, Note_on_c, 0, 67, 0
1, 164400, Note_on_c, 0, 64, 80
1, 164855, Note_on_c, 0, 64, 0
1, 164880, Note_on_c, 0, 67, 80
1, 165335, Note_on_c, 0, 67, 0
1, 165360, Note_on_c, 0, 62, 80
1, 166271, Note_on_c, 0, 62, 0
1, 166320, Note_on_c, 0, 62, 80
1, 166775, Note_on_c, 0, 62, 0
1, 166800, Note_on_c, 0, 62, 80
1, 167255, Note_on_c, 0, 62, 0
1, 167280, Note_on_c, 0, 62, 80
1, 167735, Note_on_c, 0, 62, 0
1, 167760, Note_on_c, 0, 60, 80
1, 168215, Note_on_c, 0, 60, 0
1, 168240, Note_on_c, 0, 64, 80
1, 168966, Note_on_c, 0, 64, 0
1, 169007, Note_on_c, 0, 60, 80
1, 169644, Note_on_c, 0, 60, 0
1, 169680, Note_on_c, 0, 60, 80
1, 170135, Note_on_c, 0, 60, 0
1, 170640, Note_on_c, 0, 79, 80
1, 171095, Note_on_c, 0, 79, 0
1, 171120, Note_on_c, 0, 76, 80
1, 171575, Note_on_c, 0, 76, 0
1, 171600, Note_on_c, 0, 79, 80
1, 172055, Note_on_c, 0, 79, 0
1, 172080, Note_on_c, 0, 76, 80
1, 172535, Note_on_c, 0, 76, 0
1, 172560, Note_on_c, 0, 79, 80
1, 173015, Note_on_c, 0, 79, 0
1, 173040, Note_on_c, 0, 74, 80
1, 173951, Note_on_c, 0, 74, 0
1, 174480, Note_on_c, 0, 79, 80
1, 174935, Note_on_c, 0, 79, 0
1, 174960, Note_on_c, 0, 76, 80
1, 175415, Note_on_c, 0, 76, 0
1, 175440, Note_on_c, 0, 79, 80
1, 175895, Note_on_c, 0, 79, 0
1, 175920, Note_on_c, 0, 76, 80
1, 176375, Note_on_c, 0, 76, 0
1, 176400, Note_on_c, 0, 79, 80
1, 176855, Note_on_c, 0, 79, 0
1, 176880, Note_on_c, 0, 74, 80
1, 177791, Note_on_c, 0, 74, 0
1, 178320, Note_on_c, 0, 79, 80
1, 178775, Note_on_c, 0, 79, 0
1, 178800, Note_on_c, 0, 76, 80
1, 179255, Note_on_c, 0, 76, 0
1, 179280, Note_on_c, 0, 79, 80
1, 179735, Note_on_c, 0, 79, 0
1, 179760, Note_on_c, 0, 76, 80
1, 180215, Note_on_c, 0, 76, 0
1, 180240, Note_on_c, 0, 79, 80
1, 180695, Note_on_c, 0, 79, 0
1, 180720, Note_on_c, 0, 74, 80
1, 181631, Note_on_c, 0, 74, 0
1, 181680, Note_on_c, 0, 74, 80
1, 181680, Note_on_c, 0, 79, 80
1, 182135, Note_on_c, 0, 74, 0
1, 182135, Note_on_c, 0, 79, 0
1, 182160, Note_on_c, 0, 74, 80
1, 182160, Note_on_c, 0, 79, 80
1, 182615, Note_on_c, 0, 74, 0
1, 182615, Note_on_c, 0, 79, 0
1, 182640, Note_on_c, 0, 74, 80
1, 182640, Note_on_c, 0, 79, 80
1, 183095, Note_on_c, 0, 74, 0
1, 183095, Note_on_c, 0, 79, 0
1, 183120, Note_on_c, 0, 72, 80
1, 183120, Note_on_c, 0, 79, 80
1, 183575, Note_on_c, 0, 72, 0
1, 183575, Note_on_c, 0, 79, 0
1, 183600, Note_on_c, 0, 76, 80
1, 183600, Note_on_c, 0, 81, 80
1, 184326, Note_on_c, 0, 76, 0
1, 184326, Note_on_c, 0, 81, 0
1, 184367, Note_on_c, 0, 72, 80
1, 184367, Note_on_c, 0, 79, 80
1, 184367, Note_on_c, 0, 84, 80
1, 185004, Note_on_c, 0, 72, 0
1, 185004, Note_on_c, 0, 79, 0
1, 185004, Note_on_c, 0, 84, 0
1, 185040, Note_on_c, 0, 72, 80
1, 185040, Note_on_c, 0, 79, 80
1, 185040, Note_on_c, 0, 84, 80
1, 185495, Note_on_c, 0, 72, 0
1, 185495, Note_on_c, 0, 79, 0
1, 185495, Note_on_c, 0, 84, 0
1, 185520, Note_on_c, 0, 64, 80
1, 186246, Note_on_c, 0, 64, 0
1, 186288, Note_on_c, 0, 67, 80
1, 186469, Note_on_c, 0, 67, 0
1, 186480, Note_on_c, 0, 69, 80
1, 186755, Note_on_c, 0, 69, 0
1, 186768, Note_on_c, 0, 67, 80
1, 186949, Note_on_c, 0, 67, 0
1, 186960, Note_on_c, 0, 69, 80
1, 187235, Note_on_c, 0, 69, 0
1, 187248, Note_on_c, 0, 72, 80
1, 187429, Note_on_c, 0, 72, 0
1, 187440, Note_on_c, 0, 76, 80
1, 187781, Note_on_c, 0, 76, 0
1, 187800, Note_on_c, 0, 76, 80
1, 188187, Note_on_c, 0, 76, 0
1, 188208, Note_on_c, 0, 72, 80
1, 188660, Note_on_c, 0, 72, 0
1, 188688, Note_on_c, 0, 69, 80
1, 188869, Note_on_c, 0, 69, 0
1, 188880, Note_on_c, 0, 67, 80
1, 189335, Note_on_c, 0, 67, 0
1, 189360, Note_on_c, 0, 64, 80
1, 190086, Note_on_c, 0, 64, 0
1, 190128, Note_on_c, 0, 67, 80
1, 190309, Note_on_c, 0, 67, 0
1, 190320, Note_on_c, 0, 69, 80
1, 190595, Note_on_c, 0, 69, 0
1, 190608, Note_on_c, 0, 67, 80
1, 190789, Note_on_c, 0, 67, 0
1, 190800, Note_on_c, 0, 69, 80
1, 191075, Note_on_c, 0, 69, 0
1, 191088, Note_on_c, 0, 72, 80
1, 191269, Note_on_c, 0, 72, 0
1, 191280, Note_on_c, 0, 76, 80
1, 191621, Note_on_c, 0, 76, 0
1, 191640, Note_on_c, 0, 76, 80
1, 192027, Note_on_c, 0, 76, 0
1, 192048, Note_on_c, 0, 60, 80
1, 192048, Note_on_c, 0, 72, 80
1, 192048, Note_on_c, 0, 60, 0
1, 192500, Note_on_c, 0, 72, 0
1, 193200, Note_on_c, 0, 64, 80
1, 193926, Note_on_c, 0, 64, 0
1, 193968, Note_on_c, 0, 67, 80
1, 194149, Note_on_c, 0, 67, 0
1, 194160, Note_on_c, 0, 69, 80
1, 194435, Note_on_c, 0, 69, 0
1, 194448, Note_on_c, 0, 67, 80
1, 194629, Note_on_c, 0, 67, 0
1, 194640, Note_on_c, 0, 69, 80
1, 194915, Note_on_c, 0, 69, 0
1, 194928, Note_on_c, 0, 72, 80
1, 195109, Note_on_c, 0, 72, 0
1, 195120, Note_on_c, 0, 76, 80
1, 195461, Note_on_c, 0, 76, 0
1, 195480, Note_on_c, 0, 76, 80
1, 195867, Note_on_c, 0, 76, 0
1, 195888, Note_on_c, 0, 72, 80
1, 196340, Note_on_c, 0, 72, 0
1, 196368, Note_on_c, 0, 69, 80
1, 196549, Note_on_c, 0, 69, 0
1, 196560, Note_on_c, 0, 67, 80
1, 197015, Note_on_c, 0, 67, 0
1, 197040, Note_on_c, 0, 69, 80
1, 197040, Note_on_c, 0, 74, 80
1, 197495, Note_on_c, 0, 69, 0
1, 197495, Note_on_c, 0, 74, 0
1, 197520, Note_on_c, 0, 74, 80
1, 197975, Note_on_c, 0, 74, 0
1, 198000, Note_on_c, 0, 74, 80
1, 198455, Note_on_c, 0, 74, 0
1, 198480, Note_on_c, 0, 72, 80
1, 198935, Note_on_c, 0, 72, 0
1, 198960, Note_on_c, 0, 64, 80
1, 198960, Note_on_c, 0, 69, 80
1, 199686, Note_on_c, 0, 64, 0
1, 199686, Note_on_c, 0, 69, 0
1, 199727, Note_on_c, 0, 67, 80
1, 199727, Note_on_c, 0, 72, 80
1, 200364, Note_on_c, 0, 67, 0
1, 200364, Note_on_c, 0, 72, 0
1, 200400, Note_on_c, 0, 60, 80
1, 200400, Note_on_c, 0, 67, 80
1, 200400, Note_on_c, 0, 72, 80
1, 200855, Note_on_c, 0, 60, 0
1, 200855, Note_on_c, 0, 67, 0
1, 200855, Note_on_c, 0, 72, 0
1, 200880, Note_on_c, 0, 64, 80
1, 201606, Note_on_c, 0, 64, 0
1, 201648, Note_on_c, 0, 67, 80
1, 201829, Note_on_c, 0, 67, 0
1, 201840, Note_on_c, 0, 69, 80
1, 202115, Note_on_c, 0, 69, 0
1, 202128, Note_on_c, 0, 67, 80
1, 202309, Note_on_c, 0, 67, 0
1, 202320, Note_on_c, 0, 69, 80
1, 202320, Note_on_c, 0, 64, 80
1, 202595, Note_on_c, 0, 69, 0
1, 202608, Note_on_c, 0, 72, 80
1, 202775, Note_on_c, 0, 64, 0
1, 202789, Note_on_c, 0, 72, 0
1, 202800, Note_on_c, 0, 76, 80
1, 203141, Note_on_c, 0, 76, 0
1, 203160, Note_on_c, 0, 76, 80
1, 203547, Note_on_c, 0, 76, 0
1, 203568, Note_on_c, 0, 72, 80
1, 203760, Note_on_c, 0, 67, 80
1, 204020, Note_on_c, 0, 72, 0
1, 204048, Note_on_c, 0, 69, 80
1, 204215, Note_on_c, 0, 67, 0
1, 204229, Note_on_c, 0, 69, 0
1, 204240, Note_on_c, 0, 67, 80
1, 204240, Note_on_c, 0, 62, 80
1, 204695, Note_on_c, 0, 67, 0
1, 204695, Note_on_c, 0, 62, 0
1, 204720, Note_on_c, 0, 64, 80
1, 205446, Note_on_c, 0, 64, 0
1, 205488, Note_on_c, 0, 67, 80
1, 205669, Note_on_c, 0, 67, 0
1, 205680, Note_on_c, 0, 69, 80
1, 205955, Note_on_c, 0, 69, 0
1, 205968, Note_on_c, 0, 67, 80
1, 206149, Note_on_c, 0, 67, 0
1, 206160, Note_on_c, 0, 69, 80
1, 206160, Note_on_c, 0, 64, 80
1, 206435, Note_on_c, 0, 69, 0
1, 206448, Note_on_c, 0, 72, 80
1, 206615, Note_on_c, 0, 64, 0
1, 206629, Note_on_c, 0, 72, 0
1, 206640, Note_on_c, 0, 76, 80
1, 206981, Note_on_c, 0, 76, 0
1, 207000, Note_on_c, 0, 76, 80
1, 207387, Note_on_c, 0, 76, 0
1, 207408, Note_on_c, 0, 72, 80
1, 207600, Note_on_c, 0, 67, 80
1, 207860, Note_on_c, 0, 72, 0
1, 208055, Note_on_c, 0, 67, 0
1, 208080, Note_on_c, 0, 62, 80
1, 208080, Note_on_c, 0, 62, 0
1, 208560, Note_on_c, 0, 64, 80
1, 209286, Note_on_c, 0, 64, 0
1, 209328, Note_on_c, 0, 67, 80
1, 209509, Note_on_c, 0, 67, 0
1, 209520, Note_on_c, 0, 69, 80
1, 209795, Note_on_c, 0, 69, 0
1, 209808, Note_on_c, 0, 67, 80
1, 209989, Note_on_c, 0, 67, 0
1, 210000, Note_on_c, 0, 69, 80
1, 210000, Note_on_c, 0, 64, 80
1, 210275, Note_on_c, 0, 69, 0
1, 210288, Note_on_c, 0, 72, 80
1, 210455, Note_on_c, 0, 64, 0
1, 210469, Note_on_c, 0, 72, 0
1, 210480, Note_on_c, 0, 76, 80
1, 210821, Note_on_c, 0, 76, 0
1, 210840, Note_on_c, 0, 76, 80
1, 211227, Note_on_c, 0, 76, 0
1, 211248, Note_on_c, 0, 72, 80
1, 211440, Note_on_c, 0, 67, 80
1, 211700, Note_on_c, 0, 72, 0
1, 211728, Note_on_c, 0, 69, 80
1, 211895, Note_on_c, 0, 67, 0
1, 211909, Note_on_c, 0, 69, 0
1, 211920, Note_on_c, 0, 67, 80
1, 211920, Note_on_c, 0, 62, 80
1, 212208, Note_on_c, 0, 62, 0
1, 212375, Note_on_c, 0, 67, 0
1, 212400, Note_on_c, 0, 74, 80
1, 212855, Note_on_c, 0, 74, 0
1, 212880, Note_on_c, 0, 74, 80
1, 213335, Note_on_c, 0, 74, 0
1, 213360, Note_on_c, 0, 74, 80
1, 213815, Note_on_c, 0, 74, 0
1, 213840, Note_on_c, 0, 72, 80
1, 214295, Note_on_c, 0, 72, 0
1, 214320, Note_on_c, 0, 76, 80
1, 215046, Note_on_c, 0, 76, 0
1, 215087, Note_on_c, 0, 72, 80
1, 215724, Note_on_c, 0, 72, 0
1, 215760, Note_on_c, 0, 72, 80
1, 216215, Note_on_c, 0, 72, 0
1, 216216, End_track
2, 0, Start_track
2, 0, Title_t, "Piano\000"
2, 0, Key_signature, 0, "major"
2, 0, MIDI_port, 0
2, 1, Control_c, 0, 64, 0
2, 16560, Note_on_c, 0, 52, 80
2, 16560, Note_on_c, 0, 57, 80
2, 16835, Note_on_c, 0, 52, 0
2, 16835, Note_on_c, 0, 57, 0
2, 17040, Note_on_c, 0, 52, 80
2, 17040, Note_on_c, 0, 57, 80
2, 17315, Note_on_c, 0, 52, 0
2, 17315, Note_on_c, 0, 57, 0
2, 17520, Note_on_c, 0, 52, 80
2, 17520, Note_on_c, 0, 57, 80
2, 17795, Note_on_c, 0, 52, 0
2, 17795, Note_on_c, 0, 57, 0
2, 18480, Note_on_c, 0, 52, 80
2, 18480, Note_on_c, 0, 57, 80
2, 18935, Note_on_c, 0, 52, 0
2, 18935, Note_on_c, 0, 57, 0
2, 18960, Note_on_c, 0, 52, 80
2, 18960, Note_on_c, 0, 57, 80
2, 19415, Note_on_c, 0, 52, 0
2, 19415, Note_on_c, 0, 57, 0
2, 19440, Note_on_c, 0, 52, 80
2, 19440, Note_on_c, 0, 57, 80
2, 19895, Note_on_c, 0, 52, 0
2, 19895, Note_on_c, 0, 57, 0
2, 20400, Note_on_c, 0, 48, 80
2, 20400, Note_on_c, 0, 55, 80
2, 20855, Note_on_c, 0, 48, 0
2, 20855, Note_on_c, 0, 55, 0
2, 20880, Note_on_c, 0, 48, 80
2, 20880, Note_on_c, 0, 55, 80
2, 21335, Note_on_c, 0, 48, 0
2, 21335, Note_on_c, 0, 55, 0
2, 21360, Note_on_c, 0, 48, 80
2, 21360, Note_on_c, 0, 55, 80
2, 21815, Note_on_c, 0, 48, 0
2, 21815, Note_on_c, 0, 55, 0
2, 22320, Note_on_c, 0, 48, 80
2, 22320, Note_on_c, 0, 55, 80
2, 22775, Note_on_c, 0, 48, 0
2, 22775, Note_on_c, 0, 55, 0
2, 22800, Note_on_c, 0, 48, 80
2, 22800, Note_on_c, 0, 55, 80
2, 23075, Note_on_c, 0, 48, 0
2, 23075, Note_on_c, 0, 55, 0
2, 23280, Note_on_c, 0, 48, 80
2, 23280, Note_on_c, 0, 55, 80
2, 23555, Note_on_c, 0, 48, 0
2, 23555, Note_on_c, 0, 55, 0
2, 24240, Note_on_c, 0, 50, 80
2, 24240, Note_on_c, 0, 57, 80
2, 24695, Note_on_c, 0, 50, 0
2, 24695, Note_on_c, 0, 57, 0
2, 24720, Note_on_c, 0, 50, 80
2, 24720, Note_on_c, 0, 57, 80
2, 25175, Note_on_c, 0, 50, 0
2, 25175, Note_on_c, 0, 57, 0
2, 25200, Note_on_c, 0, 50, 80
2, 25200, Note_on_c, 0, 57, 80
2, 25655, Note_on_c, 0, 50, 0
2, 25655, Note_on_c, 0, 57, 0
2, 26160, Note_on_c, 0, 50, 80
2, 26160, Note_on_c, 0, 57, 80
2, 26615, Note_on_c, 0, 50, 0
2, 26615, Note_on_c, 0, 57, 0
2, 26640, Note_on_c, 0, 50, 80
2, 26640, Note_on_c, 0, 57, 80
2, 27095, Note_on_c, 0, 50, 0
2, 27095, Note_on_c, 0, 57, 0
2, 27120, Note_on_c, 0, 50, 80
2, 27120, Note_on_c, 0, 57, 80
2, 27575, Note_on_c, 0, 50, 0
2, 27575, Note_on_c, 0, 57, 0
2, 28080, Note_on_c, 0, 48, 80
2, 28080, Note_on_c, 0, 53, 80
2, 28355, Note_on_c, 0, 48, 0
2, 28355, Note_on_c, 0, 53, 0
2, 28560, Note_on_c, 0, 53, 80
2, 28835, Note_on_c, 0, 53, 0
2, 29040, Note_on_c, 0, 60, 80
2, 29040, Note_on_c, 0, 65, 80
2, 29315, Note_on_c, 0, 60, 0
2, 29315, Note_on_c, 0, 65, 0
2, 31920, Note_on_c, 0, 52, 80
2, 31920, Note_on_c, 0, 57, 80
2, 32195, Note_on_c, 0, 52, 0
2, 32195, Note_on_c, 0, 57, 0
2, 32400, Note_on_c, 0, 52, 80
2, 32400, Note_on_c, 0, 57, 80
2, 32675, Note_on_c, 0, 52, 0
2, 32675, Note_on_c, 0, 57, 0
2, 32880, Note_on_c, 0, 52, 80
2, 32880, Note_on_c, 0, 57, 80
2, 33155, Note_on_c, 0, 52, 0
2, 33155, Note_on_c, 0, 57, 0
2, 33840, Note_on_c, 0, 52, 80
2, 33840, Note_on_c, 0, 57, 80
2, 34115, Note_on_c, 0, 52, 0
2, 34115, Note_on_c, 0, 57, 0
2, 34320, Note_on_c, 0, 52, 80
2, 34320, Note_on_c, 0, 57, 80
2, 34595, Note_on_c, 0, 52, 0
2, 34595, Note_on_c, 0, 57, 0
2, 34800, Note_on_c, 0, 52, 80
2, 34800, Note_on_c, 0, 57, 80
2, 35075, Note_on_c, 0, 52, 0
2, 35075, Note_on_c, 0, 57, 0
2, 35760, Note_on_c, 0, 48, 80
2, 35760, Note_on_c, 0, 55, 80
2, 36215, Note_on_c, 0, 48, 0
2, 36215, Note_on_c, 0, 55, 0
2, 36240, Note_on_c, 0, 48, 80
2, 36240, Note_on_c, 0, 55, 80
2, 36515, Note_on_c, 0, 48, 0
2, 36515, Note_on_c, 0, 55, 0
2, 36720, Note_on_c, 0, 48, 80
2, 36720, Note_on_c, 0, 55, 80
2, 36995, Note_on_c, 0, 48, 0
2, 36995, Note_on_c, 0, 55, 0
2, 37680, Note_on_c, 0, 50, 80
2, 37680, Note_on_c, 0, 57, 80
2, 38135, Note_on_c, 0, 50, 0
2, 38135, Note_on_c, 0, 57, 0
2, 38160, Note_on_c, 0, 50, 80
2, 38160, Note_on_c, 0, 57, 80
2, 38615, Note_on_c, 0, 50, 0
2, 38615, Note_on_c, 0, 57, 0
2, 38640, Note_on_c, 0, 50, 80
2, 38640, Note_on_c, 0, 57, 80
2, 39095, Note_on_c, 0, 50, 0
2, 39095, Note_on_c, 0, 57, 0
2, 39600, Note_on_c, 0, 52, 80
2, 39600, Note_on_c, 0, 57, 80
2, 39875, Note_on_c, 0, 52, 0
2, 39875, Note_on_c, 0, 57, 0
2, 40080, Note_on_c, 0, 52, 80
2, 40080, Note_on_c, 0, 57, 80
2, 40355, Note_on_c, 0, 52, 0
2, 40355, Note_on_c, 0, 57, 0
2, 40560, Note_on_c, 0, 52, 80
2, 40560, Note_on_c, 0, 57, 80
2, 40835, Note_on_c, 0, 52, 0
2, 40835, Note_on_c, 0, 57, 0
2, 41520, Note_on_c, 0, 52, 80
2, 41520, Note_on_c, 0, 57, 80
2, 41795, Note_on_c, 0, 52, 0
2, 41795, Note_on_c, 0, 57, 0
2, 42000, Note_on_c, 0, 52, 80
2, 42000, Note_on_c, 0, 57, 80
2, 42275, Note_on_c, 0, 52, 0
2, 42275, Note_on_c, 0, 57, 0
2, 42480, Note_on_c, 0, 52, 80
2, 42480, Note_on_c, 0, 57, 80
2, 42755, Note_on_c, 0, 52, 0
2, 42755, Note_on_c, 0, 57, 0
2, 43440, Note_on_c, 0, 48, 80
2, 43440, Note_on_c, 0, 55, 80
2, 43895, Note_on_c, 0, 48, 0
2, 43895, Note_on_c, 0, 55, 0
2, 43920, Note_on_c, 0, 48, 80
2, 43920, Note_on_c, 0, 55, 80
2, 44195, Note_on_c, 0, 48, 0
2, 44195, Note_on_c, 0, 55, 0
2, 44400, Note_on_c, 0, 48, 80
2, 44400, Note_on_c, 0, 55, 80
2, 44675, Note_on_c, 0, 48, 0
2, 44675, Note_on_c, 0, 55, 0
2, 45360, Note_on_c, 0, 50, 80
2, 45360, Note_on_c, 0, 57, 80
2, 45815, Note_on_c, 0, 50, 0
2, 45815, Note_on_c, 0, 57, 0
2, 45840, Note_on_c, 0, 50, 80
2, 45840, Note_on_c, 0, 57, 80
2, 46295, Note_on_c, 0, 50, 0
2, 46295, Note_on_c, 0, 57, 0
2, 46320, Note_on_c, 0, 50, 80
2, 46320, Note_on_c, 0, 57, 80
2, 46775, Note_on_c, 0, 50, 0
2, 46775, Note_on_c, 0, 57, 0
2, 47280, Note_on_c, 0, 57, 80
2, 47280, Note_on_c, 0, 64, 80
2, 47555, Note_on_c, 0, 57, 0
2, 47555, Note_on_c, 0, 64, 0
2, 47760, Note_on_c, 0, 52, 80
2, 47760, Note_on_c, 0, 57, 80
2, 48035, Note_on_c, 0, 52, 0
2, 48035, Note_on_c, 0, 57, 0
2, 48048, Note_on_c, 0, 55, 80
2, 48229, Note_on_c, 0, 55, 0
2, 48240, Note_on_c, 0, 52, 80
2, 48240, Note_on_c, 0, 57, 80
2, 48515, Note_on_c, 0, 52, 0
2, 48515, Note_on_c, 0, 57, 0
2, 48528, Note_on_c, 0, 55, 80
2, 48709, Note_on_c, 0, 55, 0
2, 48720, Note_on_c, 0, 57, 80
2, 48995, Note_on_c, 0, 57, 0
2, 49008, Note_on_c, 0, 60, 80
2, 49189, Note_on_c, 0, 60, 0
2, 49200, Note_on_c, 0, 52, 80
2, 49200, Note_on_c, 0, 57, 80
2, 49541, Note_on_c, 0, 52, 0
2, 49541, Note_on_c, 0, 57, 0
2, 49560, Note_on_c, 0, 57, 80
2, 49673, Note_on_c, 0, 57, 0
2, 49680, Note_on_c, 0, 52, 80
2, 49680, Note_on_c, 0, 57, 80
2, 49955, Note_on_c, 0, 52, 0
2, 49955, Note_on_c, 0, 57, 0
2, 49968, Note_on_c, 0, 60, 80
2, 50149, Note_on_c, 0, 60, 0
2, 50160, Note_on_c, 0, 52, 80
2, 50160, Note_on_c, 0, 57, 80
2, 50435, Note_on_c, 0, 52, 0
2, 50435, Note_on_c, 0, 57, 0
2, 50448, Note_on_c, 0, 57, 80
2, 50629, Note_on_c, 0, 57, 0
2, 50640, Note_on_c, 0, 55, 80
2, 50915, Note_on_c, 0, 55, 0
2, 51120, Note_on_c, 0, 48, 80
2, 51120, Note_on_c, 0, 52, 80
2, 51120, Note_on_c, 0, 55, 80
2, 51575, Note_on_c, 0, 48, 0
2, 51575, Note_on_c, 0, 52, 0
2, 51575, Note_on_c, 0, 55, 0
2, 51600, Note_on_c, 0, 48, 80
2, 51600, Note_on_c, 0, 55, 80
2, 51875, Note_on_c, 0, 48, 0
2, 51875, Note_on_c, 0, 55, 0
2, 51888, Note_on_c, 0, 55, 80
2, 52069, Note_on_c, 0, 55, 0
2, 52080, Note_on_c, 0, 48, 80
2, 52080, Note_on_c, 0, 55, 80
2, 52080, Note_on_c, 0, 57, 80
2, 52355, Note_on_c, 0, 48, 0
2, 52355, Note_on_c, 0, 55, 0
2, 52355, Note_on_c, 0, 57, 0
2, 52368, Note_on_c, 0, 55, 80
2, 52549, Note_on_c, 0, 55, 0
2, 52560, Note_on_c, 0, 57, 80
2, 52835, Note_on_c, 0, 57, 0
2, 52848, Note_on_c, 0, 60, 80
2, 53029, Note_on_c, 0, 60, 0
2, 53040, Note_on_c, 0, 48, 80
2, 53040, Note_on_c, 0, 55, 80
2, 53040, Note_on_c, 0, 64, 80
2, 53495, Note_on_c, 0, 48, 0
2, 53495, Note_on_c, 0, 55, 0
2, 53495, Note_on_c, 0, 64, 0
2, 53520, Note_on_c, 0, 48, 80
2, 53520, Note_on_c, 0, 55, 80
2, 53520, Note_on_c, 0, 62, 80
2, 53795, Note_on_c, 0, 48, 0
2, 53795, Note_on_c, 0, 55, 0
2, 53795, Note_on_c, 0, 62, 0
2, 53808, Note_on_c, 0, 60, 80
2, 53989, Note_on_c, 0, 60, 0
2, 54000, Note_on_c, 0, 48, 80
2, 54000, Note_on_c, 0, 55, 80
2, 54455, Note_on_c, 0, 48, 0
2, 54455, Note_on_c, 0, 55, 0
2, 54480, Note_on_c, 0, 57, 80
2, 54480, Note_on_c, 0, 62, 80
2, 54935, Note_on_c, 0, 57, 0
2, 54935, Note_on_c, 0, 62, 0
2, 54960, Note_on_c, 0, 50, 80
2, 54960, Note_on_c, 0, 52, 80
2, 54960, Note_on_c, 0, 57, 80
2, 55415, Note_on_c, 0, 50, 0
2, 55415, Note_on_c, 0, 52, 0
2, 55415, Note_on_c, 0, 57, 0
2, 55440, Note_on_c, 0, 50, 80
2, 55440, Note_on_c, 0, 53, 80
2, 55440, Note_on_c, 0, 57, 80
2, 55715, Note_on_c, 0, 50, 0
2, 55715, Note_on_c, 0, 53, 0
2, 55715, Note_on_c, 0, 57, 0
2, 55728, Note_on_c, 0, 55, 80
2, 55909, Note_on_c, 0, 55, 0
2, 55920, Note_on_c, 0, 50, 80
2, 55920, Note_on_c, 0, 57, 80
2, 56195, Note_on_c, 0, 50, 0
2, 56195, Note_on_c, 0, 57, 0
2, 56208, Note_on_c, 0, 55, 80
2, 56389, Note_on_c, 0, 55, 0
2, 56400, Note_on_c, 0, 57, 80
2, 56675, Note_on_c, 0, 57, 0
2, 56688, Note_on_c, 0, 60, 80
2, 56869, Note_on_c, 0, 60, 0
2, 56880, Note_on_c, 0, 50, 80
2, 56880, Note_on_c, 0, 57, 80
2, 56880, Note_on_c, 0, 64, 80
2, 57335, Note_on_c, 0, 50, 0
2, 57335, Note_on_c, 0, 57, 0
2, 57335, Note_on_c, 0, 64, 0
2, 57360, Note_on_c, 0, 50, 80
2, 57360, Note_on_c, 0, 57, 80
2, 57635, Note_on_c, 0, 50, 0
2, 57635, Note_on_c, 0, 57, 0
2, 57648, Note_on_c, 0, 60, 80
2, 57829, Note_on_c, 0, 60, 0
2, 57840, Note_on_c, 0, 50, 80
2, 57840, Note_on_c, 0, 57, 80
2, 58115, Note_on_c, 0, 50, 0
2, 58115, Note_on_c, 0, 57, 0
2, 58128, Note_on_c, 0, 57, 80
2, 58309, Note_on_c, 0, 57, 0
2, 58320, Note_on_c, 0, 55, 80
2, 58775, Note_on_c, 0, 55, 0
2, 58800, Note_on_c, 0, 48, 80
2, 58800, Note_on_c, 0, 53, 80
2, 58800, Note_on_c, 0, 64, 80
2, 59075, Note_on_c, 0, 48, 0
2, 59075, Note_on_c, 0, 53, 0
2, 59075, Note_on_c, 0, 64, 0
2, 59280, Note_on_c, 0, 48, 80
2, 59280, Note_on_c, 0, 53, 80
2, 59555, Note_on_c, 0, 48, 0
2, 59555, Note_on_c, 0, 53, 0
2, 59568, Note_on_c, 0, 55, 80
2, 59749, Note_on_c, 0, 55, 0
2, 59760, Note_on_c, 0, 57, 80
2, 59760, Note_on_c, 0, 60, 80
2, 59760, Note_on_c, 0, 65, 80
2, 60035, Note_on_c, 0, 57, 0
2, 60035, Note_on_c, 0, 60, 0
2, 60035, Note_on_c, 0, 65, 0
2, 60048, Note_on_c, 0, 55, 80
2, 60229, Note_on_c, 0, 55, 0
2, 60240, Note_on_c, 0, 57, 80
2, 60515, Note_on_c, 0, 57, 0
2, 60528, Note_on_c, 0, 60, 80
2, 60709, Note_on_c, 0, 60, 0
2, 60720, Note_on_c, 0, 53, 80
2, 60720, Note_on_c, 0, 64, 80
2, 61061, Note_on_c, 0, 53, 0
2, 61061, Note_on_c, 0, 64, 0
2, 61080, Note_on_c, 0, 64, 80
2, 61467, Note_on_c, 0, 64, 0
2, 61488, Note_on_c, 0, 60, 80
2, 61669, Note_on_c, 0, 60, 0
2, 62640, Note_on_c, 0, 52, 80
2, 62640, Note_on_c, 0, 57, 80
2, 63095, Note_on_c, 0, 52, 0
2, 63095, Note_on_c, 0, 57, 0
2, 63120, Note_on_c, 0, 52, 80
2, 63120, Note_on_c, 0, 57, 80
2, 63120, Note_on_c, 0, 67, 80
2, 63575, Note_on_c, 0, 52, 0
2, 63575, Note_on_c, 0, 57, 0
2, 63575, Note_on_c, 0, 67, 0
2, 63600, Note_on_c, 0, 57, 80
2, 63600, Note_on_c, 0, 64, 80
2, 64055, Note_on_c, 0, 57, 0
2, 64055, Note_on_c, 0, 64, 0
2, 64080, Note_on_c, 0, 67, 80
2, 64355, Note_on_c, 0, 67, 0
2, 64368, Note_on_c, 0, 57, 80
2, 64549, Note_on_c, 0, 57, 0
2, 64560, Note_on_c, 0, 52, 80
2, 64560, Note_on_c, 0, 57, 80
2, 64560, Note_on_c, 0, 64, 80
2, 65015, Note_on_c, 0, 52, 0
2, 65015, Note_on_c, 0, 57, 0
2, 65015, Note_on_c, 0, 64, 0
2, 65040, Note_on_c, 0, 52, 80
2, 65040, Note_on_c, 0, 57, 80
2, 65040, Note_on_c, 0, 67, 80
2, 65495, Note_on_c, 0, 52, 0
2, 65495, Note_on_c, 0, 57, 0
2, 65495, Note_on_c, 0, 67, 0
2, 65520, Note_on_c, 0, 52, 80
2, 65520, Note_on_c, 0, 57, 80
2, 65520, Note_on_c, 0, 62, 80
2, 65975, Note_on_c, 0, 52, 0
2, 65975, Note_on_c, 0, 57, 0
2, 65975, Note_on_c, 0, 62, 0
2, 66288, Note_on_c, 0, 57, 80
2, 66469, Note_on_c, 0, 57, 0
2, 66480, Note_on_c, 0, 55, 80
2, 66480, Note_on_c, 0, 60, 80
2, 66935, Note_on_c, 0, 55, 0
2, 66935, Note_on_c, 0, 60, 0
2, 66960, Note_on_c, 0, 60, 80
2, 66960, Note_on_c, 0, 67, 80
2, 67415, Note_on_c, 0, 60, 0
2, 67415, Note_on_c, 0, 67, 0
2, 67440, Note_on_c, 0, 55, 80
2, 67440, Note_on_c, 0, 60, 80
2, 67440, Note_on_c, 0, 64, 80
2, 67895, Note_on_c, 0, 55, 0
2, 67895, Note_on_c, 0, 60, 0
2, 67895, Note_on_c, 0, 64, 0
2, 67920, Note_on_c, 0, 67, 80
2, 68375, Note_on_c, 0, 67, 0
2, 68400, Note_on_c, 0, 55, 80
2, 68400, Note_on_c, 0, 60, 80
2, 68400, Note_on_c, 0, 64, 80
2, 68855, Note_on_c, 0, 55, 0
2, 68855, Note_on_c, 0, 60, 0
2, 68855, Note_on_c, 0, 64, 0
2, 68880, Note_on_c, 0, 60, 80
2, 68880, Note_on_c, 0, 67, 80
2, 69155, Note_on_c, 0, 60, 0
2, 69155, Note_on_c, 0, 67, 0
2, 69360, Note_on_c, 0, 55, 80
2, 69360, Note_on_c, 0, 60, 80
2, 69360, Note_on_c, 0, 62, 80
2, 69635, Note_on_c, 0, 55, 0
2, 69635, Note_on_c, 0, 60, 0
2, 69635, Note_on_c, 0, 62, 0
2, 70320, Note_on_c, 0, 57, 80
2, 70320, Note_on_c, 0, 62, 80
2, 70775, Note_on_c, 0, 57, 0
2, 70775, Note_on_c, 0, 62, 0
2, 70800, Note_on_c, 0, 57, 80
2, 70800, Note_on_c, 0, 62, 80
2, 70800, Note_on_c, 0, 67, 80
2, 71255, Note_on_c, 0, 57, 0
2, 71255, Note_on_c, 0, 62, 0
2, 71255, Note_on_c, 0, 67, 0
2, 71280, Note_on_c, 0, 57, 80
2, 71280, Note_on_c, 0, 62, 80
2, 71280, Note_on_c, 0, 64, 80
2, 71735, Note_on_c, 0, 57, 0
2, 71735, Note_on_c, 0, 62, 0
2, 71735, Note_on_c, 0, 64, 0
2, 71760, Note_on_c, 0, 67, 80
2, 72215, Note_on_c, 0, 67, 0
2, 72240, Note_on_c, 0, 57, 80
2, 72240, Note_on_c, 0, 62, 80
2, 72240, Note_on_c, 0, 64, 80
2, 72515, Note_on_c, 0, 57, 0
2, 72515, Note_on_c, 0, 62, 0
2, 72515, Note_on_c, 0, 64, 0
2, 72720, Note_on_c, 0, 57, 80
2, 72720, Note_on_c, 0, 62, 80
2, 72720, Note_on_c, 0, 67, 80
2, 72995, Note_on_c, 0, 57, 0
2, 72995, Note_on_c, 0, 62, 0
2, 72995, Note_on_c, 0, 67, 0
2, 73200, Note_on_c, 0, 57, 80
2, 73200, Note_on_c, 0, 62, 80
2, 73475, Note_on_c, 0, 57, 0
2, 73475, Note_on_c, 0, 62, 0
2, 74160, Note_on_c, 0, 53, 80
2, 74160, Note_on_c, 0, 62, 80
2, 74615, Note_on_c, 0, 53, 0
2, 74615, Note_on_c, 0, 62, 0
2, 74640, Note_on_c, 0, 53, 80
2, 74640, Note_on_c, 0, 62, 80
2, 74915, Note_on_c, 0, 53, 0
2, 74915, Note_on_c, 0, 62, 0
2, 75120, Note_on_c, 0, 62, 80
2, 75120, Note_on_c, 0, 65, 80
2, 75395, Note_on_c, 0, 62, 0
2, 75395, Note_on_c, 0, 65, 0
2, 75600, Note_on_c, 0, 53, 80
2, 75600, Note_on_c, 0, 60, 80
2, 75875, Note_on_c, 0, 53, 0
2, 75875, Note_on_c, 0, 60, 0
2, 76080, Note_on_c, 0, 53, 80
2, 76080, Note_on_c, 0, 60, 80
2, 76080, Note_on_c, 0, 64, 80
2, 76535, Note_on_c, 0, 53, 0
2, 76535, Note_on_c, 0, 60, 0
2, 76535, Note_on_c, 0, 64, 0
2, 76560, Note_on_c, 0, 53, 80
2, 76560, Note_on_c, 0, 60, 80
2, 76835, Note_on_c, 0, 53, 0
2, 76835, Note_on_c, 0, 60, 0
2, 76848, Note_on_c, 0, 60, 80
2, 77029, Note_on_c, 0, 60, 0
2, 77040, Note_on_c, 0, 60, 80
2, 77040, Note_on_c, 0, 65, 80
2, 77315, Note_on_c, 0, 60, 0
2, 77315, Note_on_c, 0, 65, 0
2, 77328, Note_on_c, 0, 53, 80
2, 77509, Note_on_c, 0, 53, 0
2, 77520, Note_on_c, 0, 60, 80
2, 77795, Note_on_c, 0, 60, 0
2, 77808, Note_on_c, 0, 65, 80
2, 77989, Note_on_c, 0, 65, 0
2, 78000, Note_on_c, 0, 52, 80
2, 78000, Note_on_c, 0, 57, 80
2, 78455, Note_on_c, 0, 52, 0
2, 78455, Note_on_c, 0, 57, 0
2, 78480, Note_on_c, 0, 52, 80
2, 78480, Note_on_c, 0, 57, 80
2, 78480, Note_on_c, 0, 67, 80
2, 78935, Note_on_c, 0, 52, 0
2, 78935, Note_on_c, 0, 57, 0
2, 78935, Note_on_c, 0, 67, 0
2, 78960, Note_on_c, 0, 57, 80
2, 78960, Note_on_c, 0, 64, 80
2, 79415, Note_on_c, 0, 57, 0
2, 79415, Note_on_c, 0, 64, 0
2, 79440, Note_on_c, 0, 67, 80
2, 79715, Note_on_c, 0, 67, 0
2, 79728, Note_on_c, 0, 57, 80
2, 79909, Note_on_c, 0, 57, 0
2, 79920, Note_on_c, 0, 52, 80
2, 79920, Note_on_c, 0, 57, 80
2, 79920, Note_on_c, 0, 64, 80
2, 80375, Note_on_c, 0, 52, 0
2, 80375, Note_on_c, 0, 57, 0
2, 80375, Note_on_c, 0, 64, 0
2, 80400, Note_on_c, 0, 52, 80
2, 80400, Note_on_c, 0, 57, 80
2, 80400, Note_on_c, 0, 67, 80
2, 80855, Note_on_c, 0, 52, 0
2, 80855, Note_on_c, 0, 57, 0
2, 80855, Note_on_c, 0, 67, 0
2, 80880, Note_on_c, 0, 52, 80
2, 80880, Note_on_c, 0, 57, 80
2, 80880, Note_on_c, 0, 62, 80
2, 81335, Note_on_c, 0, 52, 0
2, 81335, Note_on_c, 0, 57, 0
2, 81335, Note_on_c, 0, 62, 0
2, 81648, Note_on_c, 0, 57, 80
2, 81829, Note_on_c, 0, 57, 0
2, 81840, Note_on_c, 0, 55, 80
2, 81840, Note_on_c, 0, 60, 80
2, 82295, Note_on_c, 0, 55, 0
2, 82295, Note_on_c, 0, 60, 0
2, 82320, Note_on_c, 0, 60, 80
2, 82320, Note_on_c, 0, 67, 80
2, 82775, Note_on_c, 0, 60, 0
2, 82775, Note_on_c, 0, 67, 0
2, 82800, Note_on_c, 0, 55, 80
2, 82800, Note_on_c, 0, 60, 80
2, 82800, Note_on_c, 0, 64, 80
2, 83255, Note_on_c, 0, 55, 0
2, 83255, Note_on_c, 0, 60, 0
2, 83255, Note_on_c, 0, 64, 0
2, 83280, Note_on_c, 0, 67, 80
2, 83735, Note_on_c, 0, 67, 0
2, 83760, Note_on_c, 0, 55, 80
2, 83760, Note_on_c, 0, 60, 80
2, 83760, Note_on_c, 0, 64, 80
2, 84215, Note_on_c, 0, 55, 0
2, 84215, Note_on_c, 0, 60, 0
2, 84215, Note_on_c, 0, 64, 0
2, 84240, Note_on_c, 0, 60, 80
2, 84240, Note_on_c, 0, 67, 80
2, 84515, Note_on_c, 0, 60, 0
2, 84515, Note_on_c, 0, 67, 0
2, 84720, Note_on_c, 0, 55, 80
2, 84720, Note_on_c, 0, 60, 80
2, 84720, Note_on_c, 0, 62, 80
2, 84995, Note_on_c, 0, 55, 0
2, 84995, Note_on_c, 0, 60, 0
2, 84995, Note_on_c, 0, 62, 0
2, 85680, Note_on_c, 0, 57, 80
2, 85680, Note_on_c, 0, 62, 80
2, 86135, Note_on_c, 0, 57, 0
2, 86135, Note_on_c, 0, 62, 0
2, 86160, Note_on_c, 0, 57, 80
2, 86160, Note_on_c, 0, 62, 80
2, 86160, Note_on_c, 0, 67, 80
2, 86615, Note_on_c, 0, 57, 0
2, 86615, Note_on_c, 0, 62, 0
2, 86615, Note_on_c, 0, 67, 0
2, 86640, Note_on_c, 0, 57, 80
2, 86640, Note_on_c, 0, 62, 80
2, 86640, Note_on_c, 0, 64, 80
2, 87095, Note_on_c, 0, 57, 0
2, 87095, Note_on_c, 0, 62, 0
2, 87095, Note_on_c, 0, 64, 0
2, 87120, Note_on_c, 0, 67, 80
2, 87575, Note_on_c, 0, 67, 0
2, 87600, Note_on_c, 0, 57, 80
2, 87600, Note_on_c, 0, 62, 80
2, 87600, Note_on_c, 0, 64, 80
2, 87875, Note_on_c, 0, 57, 0
2, 87875, Note_on_c, 0, 62, 0
2, 87875, Note_on_c, 0, 64, 0
2, 88080, Note_on_c, 0, 57, 80
2, 88080, Note_on_c, 0, 62, 80
2, 88080, Note_on_c, 0, 67, 80
2, 88355, Note_on_c, 0, 57, 0
2, 88355, Note_on_c, 0, 62, 0
2, 88355, Note_on_c, 0, 67, 0
2, 88560, Note_on_c, 0, 57, 80
2, 88560, Note_on_c, 0, 62, 80
2, 88835, Note_on_c, 0, 57, 0
2, 88835, Note_on_c, 0, 62, 0
2, 89520, Note_on_c, 0, 53, 80
2, 89520, Note_on_c, 0, 62, 80
2, 89975, Note_on_c, 0, 53, 0
2, 89975, Note_on_c, 0, 62, 0
2, 90000, Note_on_c, 0, 53, 80
2, 90000, Note_on_c, 0, 62, 80
2, 90275, Note_on_c, 0, 53, 0
2, 90275, Note_on_c, 0, 62, 0
2, 90480, Note_on_c, 0, 62, 80
2, 90480, Note_on_c, 0, 65, 80
2, 90755, Note_on_c, 0, 62, 0
2, 90755, Note_on_c, 0, 65, 0
2, 90960, Note_on_c, 0, 53, 80
2, 90960, Note_on_c, 0, 60, 80
2, 91235, Note_on_c, 0, 53, 0
2, 91235, Note_on_c, 0, 60, 0
2, 91440, Note_on_c, 0, 53, 80
2, 91440, Note_on_c, 0, 60, 80
2, 91440, Note_on_c, 0, 64, 80
2, 91895, Note_on_c, 0, 53, 0
2, 91895, Note_on_c, 0, 60, 0
2, 91895, Note_on_c, 0, 64, 0
2, 91920, Note_on_c, 0, 53, 80
2, 91920, Note_on_c, 0, 60, 80
2, 92195, Note_on_c, 0, 53, 0
2, 92195, Note_on_c, 0, 60, 0
2, 92208, Note_on_c, 0, 60, 80
2, 92389, Note_on_c, 0, 60, 0
2, 92400, Note_on_c, 0, 60, 80
2, 92400, Note_on_c, 0, 65, 80
2, 92675, Note_on_c, 0, 60, 0
2, 92675, Note_on_c, 0, 65, 0
2, 92688, Note_on_c, 0, 53, 80
2, 92869, Note_on_c, 0, 53, 0
2, 92880, Note_on_c, 0, 60, 80
2, 93155, Note_on_c, 0, 60, 0
2, 93168, Note_on_c, 0, 65, 80
2, 93349, Note_on_c, 0, 65, 0
2, 93360, Note_on_c, 0, 52, 80
2, 93360, Note_on_c, 0, 57, 80
2, 93635, Note_on_c, 0, 52, 0
2, 93635, Note_on_c, 0, 57, 0
2, 93840, Note_on_c, 0, 52, 80
2, 93840, Note_on_c, 0, 57, 80
2, 94115, Note_on_c, 0, 52, 0
2, 94115, Note_on_c, 0, 57, 0
2, 94128, Note_on_c, 0, 55, 80
2, 94309, Note_on_c, 0, 55, 0
2, 94320, Note_on_c, 0, 52, 80
2, 94320, Note_on_c, 0, 57, 80
2, 94595, Note_on_c, 0, 52, 0
2, 94595, Note_on_c, 0, 57, 0
2, 94608, Note_on_c, 0, 55, 80
2, 94789, Note_on_c, 0, 55, 0
2, 94800, Note_on_c, 0, 57, 80
2, 95075, Note_on_c, 0, 57, 0
2, 95088, Note_on_c, 0, 60, 80
2, 95269, Note_on_c, 0, 60, 0
2, 95280, Note_on_c, 0, 57, 80
2, 95280, Note_on_c, 0, 64, 80
2, 95735, Note_on_c, 0, 57, 0
2, 95735, Note_on_c, 0, 64, 0
2, 95760, Note_on_c, 0, 52, 80
2, 95760, Note_on_c, 0, 57, 80
2, 96035, Note_on_c, 0, 52, 0
2, 96035, Note_on_c, 0, 57, 0
2, 96048, Note_on_c, 0, 60, 80
2, 96229, Note_on_c, 0, 60, 0
2, 96240, Note_on_c, 0, 52, 80
2, 96240, Note_on_c, 0, 57, 80
2, 96515, Note_on_c, 0, 52, 0
2, 96515, Note_on_c, 0, 57, 0
2, 96528, Note_on_c, 0, 57, 80
2, 96709, Note_on_c, 0, 57, 0
2, 96720, Note_on_c, 0, 55, 80
2, 96995, Note_on_c, 0, 55, 0
2, 97200, Note_on_c, 0, 48, 80
2, 97200, Note_on_c, 0, 52, 80
2, 97200, Note_on_c, 0, 55, 80
2, 97655, Note_on_c, 0, 48, 0
2, 97655, Note_on_c, 0, 52, 0
2, 97655, Note_on_c, 0, 55, 0
2, 97680, Note_on_c, 0, 48, 80
2, 97680, Note_on_c, 0, 55, 80
2, 97955, Note_on_c, 0, 48, 0
2, 97955, Note_on_c, 0, 55, 0
2, 97968, Note_on_c, 0, 55, 80
2, 98149, Note_on_c, 0, 55, 0
2, 98160, Note_on_c, 0, 48, 80
2, 98160, Note_on_c, 0, 55, 80
2, 98160, Note_on_c, 0, 57, 80
2, 98435, Note_on_c, 0, 48, 0
2, 98435, Note_on_c, 0, 55, 0
2, 98435, Note_on_c, 0, 57, 0
2, 98448, Note_on_c, 0, 55, 80
2, 98629, Note_on_c, 0, 55, 0
2, 98640, Note_on_c, 0, 57, 80
2, 98915, Note_on_c, 0, 57, 0
2, 98928, Note_on_c, 0, 60, 80
2, 99109, Note_on_c, 0, 60, 0
2, 99120, Note_on_c, 0, 48, 80
2, 99120, Note_on_c, 0, 55, 80
2, 99120, Note_on_c, 0, 64, 80
2, 99575, Note_on_c, 0, 48, 0
2, 99575, Note_on_c, 0, 55, 0
2, 99575, Note_on_c, 0, 64, 0
2, 99600, Note_on_c, 0, 48, 80
2, 99600, Note_on_c, 0, 55, 80
2, 99875, Note_on_c, 0, 48, 0
2, 99875, Note_on_c, 0, 55, 0
2, 99888, Note_on_c, 0, 60, 80
2, 100080, Note_on_c, 0, 48, 80
2, 100080, Note_on_c, 0, 55, 80
2, 100340, Note_on_c, 0, 60, 0
2, 100355, Note_on_c, 0, 48, 0
2, 100355, Note_on_c, 0, 55, 0
2, 101040, Note_on_c, 0, 50, 80
2, 101040, Note_on_c, 0, 52, 80
2, 101040, Note_on_c, 0, 57, 80
2, 101495, Note_on_c, 0, 50, 0
2, 101495, Note_on_c, 0, 52, 0
2, 101495, Note_on_c, 0, 57, 0
2, 101520, Note_on_c, 0, 50, 80
2, 101520, Note_on_c, 0, 57, 80
2, 101795, Note_on_c, 0, 50, 0
2, 101795, Note_on_c, 0, 57, 0
2, 101808, Note_on_c, 0, 55, 80
2, 101989, Note_on_c, 0, 55, 0
2, 102000, Note_on_c, 0, 50, 80
2, 102000, Note_on_c, 0, 57, 80
2, 102275, Note_on_c, 0, 50, 0
2, 102275, Note_on_c, 0, 57, 0
2, 102288, Note_on_c, 0, 55, 80
2, 102469, Note_on_c, 0, 55, 0
2, 102480, Note_on_c, 0, 57, 80
2, 102755, Note_on_c, 0, 57, 0
2, 102768, Note_on_c, 0, 60, 80
2, 102949, Note_on_c, 0, 60, 0
2, 102960, Note_on_c, 0, 50, 80
2, 102960, Note_on_c, 0, 57, 80
2, 102960, Note_on_c, 0, 64, 80
2, 103415, Note_on_c, 0, 50, 0
2, 103415, Note_on_c, 0, 57, 0
2, 103415, Note_on_c, 0, 64, 0
2, 103440, Note_on_c, 0, 50, 80
2, 103440, Note_on_c, 0, 57, 80
2, 103715, Note_on_c, 0, 50, 0
2, 103715, Note_on_c, 0, 57, 0
2, 103728, Note_on_c, 0, 60, 80
2, 103909, Note_on_c, 0, 60, 0
2, 103920, Note_on_c, 0, 50, 80
2, 103920, Note_on_c, 0, 57, 80
2, 104195, Note_on_c, 0, 50, 0
2, 104195, Note_on_c, 0, 57, 0
2, 104208, Note_on_c, 0, 57, 80
2, 104389, Note_on_c, 0, 57, 0
2, 104400, Note_on_c, 0, 55, 80
2, 104675, Note_on_c, 0, 55, 0
2, 104880, Note_on_c, 0, 57, 80
2, 104880, Note_on_c, 0, 62, 80
2, 105335, Note_on_c, 0, 57, 0
2, 105335, Note_on_c, 0, 62, 0
2, 105360, Note_on_c, 0, 62, 80
2, 105635, Note_on_c, 0, 62, 0
2, 105840, Note_on_c, 0, 60, 80
2, 105840, Note_on_c, 0, 65, 80
2, 106115, Note_on_c, 0, 60, 0
2, 106115, Note_on_c, 0, 65, 0
2, 106320, Note_on_c, 0, 53, 80
2, 106320, Note_on_c, 0, 60, 80
2, 106595, Note_on_c, 0, 53, 0
2, 106595, Note_on_c, 0, 60, 0
2, 106800, Note_on_c, 0, 60, 80
2, 106800, Note_on_c, 0, 64, 80
2, 107255, Note_on_c, 0, 60, 0
2, 107255, Note_on_c, 0, 64, 0
2, 107280, Note_on_c, 0, 53, 80
2, 107555, Note_on_c, 0, 53, 0
2, 107568, Note_on_c, 0, 60, 80
2, 107760, Note_on_c, 0, 60, 0
2, 107760, Note_on_c, 0, 60, 80
2, 107760, Note_on_c, 0, 65, 80
2, 108035, Note_on_c, 0, 65, 0
2, 108048, Note_on_c, 0, 53, 80
2, 108204, Note_on_c, 0, 60, 0
2, 108229, Note_on_c, 0, 53, 0
2, 108528, Note_on_c, 0, 65, 80
2, 108709, Note_on_c, 0, 65, 0
2, 108720, Note_on_c, 0, 57, 80
2, 109175, Note_on_c, 0, 57, 0
2, 109200, Note_on_c, 0, 57, 80
2, 109655, Note_on_c, 0, 57, 0
2, 109680, Note_on_c, 0, 57, 80
2, 110135, Note_on_c, 0, 57, 0
2, 110160, Note_on_c, 0, 57, 80
2, 110615, Note_on_c, 0, 57, 0
2, 110640, Note_on_c, 0, 57, 80
2, 111095, Note_on_c, 0, 57, 0
2, 111120, Note_on_c, 0, 57, 80
2, 111575, Note_on_c, 0, 57, 0
2, 111600, Note_on_c, 0, 59, 80
2, 112055, Note_on_c, 0, 59, 0
2, 112080, Note_on_c, 0, 59, 80
2, 112535, Note_on_c, 0, 59, 0
2, 112560, Note_on_c, 0, 60, 80
2, 113015, Note_on_c, 0, 60, 0
2, 113040, Note_on_c, 0, 60, 80
2, 113495, Note_on_c, 0, 60, 0
2, 113520, Note_on_c, 0, 60, 80
2, 113975, Note_on_c, 0, 60, 0
2, 114000, Note_on_c, 0, 60, 80
2, 114455, Note_on_c, 0, 60, 0
2, 114480, Note_on_c, 0, 60, 80
2, 114935, Note_on_c, 0, 60, 0
2, 114960, Note_on_c, 0, 60, 80
2, 115415, Note_on_c, 0, 60, 0
2, 115440, Note_on_c, 0, 64, 80
2, 115895, Note_on_c, 0, 64, 0
2, 115920, Note_on_c, 0, 64, 80
2, 116375, Note_on_c, 0, 64, 0
2, 116400, Note_on_c, 0, 62, 80
2, 116855, Note_on_c, 0, 62, 0
2, 116880, Note_on_c, 0, 62, 80
2, 117335, Note_on_c, 0, 62, 0
2, 117360, Note_on_c, 0, 62, 80
2, 117815, Note_on_c, 0, 62, 0
2, 117840, Note_on_c, 0, 62, 80
2, 118295, Note_on_c, 0, 62, 0
2, 118320, Note_on_c, 0, 62, 80
2, 118775, Note_on_c, 0, 62, 0
2, 118800, Note_on_c, 0, 62, 80
2, 119255, Note_on_c, 0, 62, 0
2, 119280, Note_on_c, 0, 64, 80
2, 119735, Note_on_c, 0, 64, 0
2, 119760, Note_on_c, 0, 64, 80
2, 120215, Note_on_c, 0, 64, 0
2, 120240, Note_on_c, 0, 65, 80
2, 120695, Note_on_c, 0, 65, 0
2, 120720, Note_on_c, 0, 65, 80
2, 121175, Note_on_c, 0, 65, 0
2, 121200, Note_on_c, 0, 65, 80
2, 121655, Note_on_c, 0, 65, 0
2, 121680, Note_on_c, 0, 65, 80
2, 122135, Note_on_c, 0, 65, 0
2, 122160, Note_on_c, 0, 65, 80
2, 122615, Note_on_c, 0, 65, 0
2, 122640, Note_on_c, 0, 65, 80
2, 123095, Note_on_c, 0, 65, 0
2, 123120, Note_on_c, 0, 60, 80
2, 123120, Note_on_c, 0, 65, 80
2, 123575, Note_on_c, 0, 60, 0
2, 123575, Note_on_c, 0, 65, 0
2, 123600, Note_on_c, 0, 60, 80
2, 123600, Note_on_c, 0, 65, 80
2, 124055, Note_on_c, 0, 60, 0
2, 124055, Note_on_c, 0, 65, 0
2, 124080, Note_on_c, 0, 57, 80
2, 124535, Note_on_c, 0, 57, 0
2, 124560, Note_on_c, 0, 57, 80
2, 125015, Note_on_c, 0, 57, 0
2, 125040, Note_on_c, 0, 57, 80
2, 125495, Note_on_c, 0, 57, 0
2, 125520, Note_on_c, 0, 57, 80
2, 125975, Note_on_c, 0, 57, 0
2, 126000, Note_on_c, 0, 57, 80
2, 126455, Note_on_c, 0, 57, 0
2, 126480, Note_on_c, 0, 57, 80
2, 126935, Note_on_c, 0, 57, 0
2, 126960, Note_on_c, 0, 59, 80
2, 127415, Note_on_c, 0, 59, 0
2, 127440, Note_on_c, 0, 59, 80
2, 127895, Note_on_c, 0, 59, 0
2, 127920, Note_on_c, 0, 60, 80
2, 128375, Note_on_c, 0, 60, 0
2, 128400, Note_on_c, 0, 60, 80
2, 128855, Note_on_c, 0, 60, 0
2, 128880, Note_on_c, 0, 60, 80
2, 129335, Note_on_c, 0, 60, 0
2, 129360, Note_on_c, 0, 60, 80
2, 129815, Note_on_c, 0, 60, 0
2, 129840, Note_on_c, 0, 60, 80
2, 130295, Note_on_c, 0, 60, 0
2, 130320, Note_on_c, 0, 60, 80
2, 130775, Note_on_c, 0, 60, 0
2, 130800, Note_on_c, 0, 64, 80
2, 131255, Note_on_c, 0, 64, 0
2, 131280, Note_on_c, 0, 64, 80
2, 131735, Note_on_c, 0, 64, 0
2, 131760, Note_on_c, 0, 62, 80
2, 132215, Note_on_c, 0, 62, 0
2, 132240, Note_on_c, 0, 62, 80
2, 132695, Note_on_c, 0, 62, 0
2, 132720, Note_on_c, 0, 62, 80
2, 133175, Note_on_c, 0, 62, 0
2, 133200, Note_on_c, 0, 62, 80
2, 133655, Note_on_c, 0, 62, 0
2, 133680, Note_on_c, 0, 62, 80
2, 134135, Note_on_c, 0, 62, 0
2, 134160, Note_on_c, 0, 62, 80
2, 134615, Note_on_c, 0, 62, 0
2, 134640, Note_on_c, 0, 64, 80
2, 135095, Note_on_c, 0, 64, 0
2, 135120, Note_on_c, 0, 64, 80
2, 135575, Note_on_c, 0, 64, 0
2, 135600, Note_on_c, 0, 65, 80
2, 136055, Note_on_c, 0, 65, 0
2, 136080, Note_on_c, 0, 65, 80
2, 136535, Note_on_c, 0, 65, 0
2, 136560, Note_on_c, 0, 65, 80
2, 137015, Note_on_c, 0, 65, 0
2, 137040, Note_on_c, 0, 65, 80
2, 137495, Note_on_c, 0, 65, 0
2, 137520, Note_on_c, 0, 65, 80
2, 137975, Note_on_c, 0, 65, 0
2, 138000, Note_on_c, 0, 65, 80
2, 138455, Note_on_c, 0, 65, 0
2, 138480, Note_on_c, 0, 60, 80
2, 138480, Note_on_c, 0, 65, 80
2, 138935, Note_on_c, 0, 60, 0
2, 138935, Note_on_c, 0, 65, 0
2, 138960, Note_on_c, 0, 60, 80
2, 138960, Note_on_c, 0, 65, 80
2, 139415, Note_on_c, 0, 60, 0
2, 139415, Note_on_c, 0, 65, 0
2, 139440, Note_on_c, 0, 69, 80
2, 139895, Note_on_c, 0, 69, 0
2, 139920, Note_on_c, 0, 67, 80
2, 140375, Note_on_c, 0, 67, 0
2, 140400, Note_on_c, 0, 69, 80
2, 141311, Note_on_c, 0, 69, 0
2, 141360, Note_on_c, 0, 64, 80
2, 142271, Note_on_c, 0, 64, 0
2, 142320, Note_on_c, 0, 62, 80
2, 142775, Note_on_c, 0, 62, 0
2, 142800, Note_on_c, 0, 60, 80
2, 143255, Note_on_c, 0, 60, 0
2, 143280, Note_on_c, 0, 62, 80
2, 143735, Note_on_c, 0, 62, 0
2, 143760, Note_on_c, 0, 64, 80
2, 144671, Note_on_c, 0, 64, 0
2, 144720, Note_on_c, 0, 64, 80
2, 145175, Note_on_c, 0, 64, 0
2, 146160, Note_on_c, 0, 60, 80
2, 146615, Note_on_c, 0, 60, 0
2, 146640, Note_on_c, 0, 60, 80
2, 147095, Note_on_c, 0, 60, 0
2, 147120, Note_on_c, 0, 69, 80
2, 147575, Note_on_c, 0, 69, 0
2, 147600, Note_on_c, 0, 67, 80
2, 148055, Note_on_c, 0, 67, 0
2, 148080, Note_on_c, 0, 69, 80
2, 148535, Note_on_c, 0, 69, 0
2, 148560, Note_on_c, 0, 62, 80
2, 149015, Note_on_c, 0, 62, 0
2, 149040, Note_on_c, 0, 62, 80
2, 149495, Note_on_c, 0, 62, 0
2, 149520, Note_on_c, 0, 62, 80
2, 149975, Note_on_c, 0, 62, 0
2, 150000, Note_on_c, 0, 62, 80
2, 150455, Note_on_c, 0, 62, 0
2, 150480, Note_on_c, 0, 62, 80
2, 150935, Note_on_c, 0, 62, 0
2, 150960, Note_on_c, 0, 62, 80
2, 151686, Note_on_c, 0, 62, 0
2, 151727, Note_on_c, 0, 60, 80
2, 152364, Note_on_c, 0, 60, 0
2, 152400, Note_on_c, 0, 60, 80
2, 152855, Note_on_c, 0, 60, 0
2, 170640, Note_on_c, 0, 67, 80
2, 171095, Note_on_c, 0, 67, 0
2, 171120, Note_on_c, 0, 64, 80
2, 171575, Note_on_c, 0, 64, 0
2, 171600, Note_on_c, 0, 67, 80
2, 172055, Note_on_c, 0, 67, 0
2, 172080, Note_on_c, 0, 64, 80
2, 172535, Note_on_c, 0, 64, 0
2, 172560, Note_on_c, 0, 67, 80
2, 173015, Note_on_c, 0, 67, 0
2, 173040, Note_on_c, 0, 62, 80
2, 173951, Note_on_c, 0, 62, 0
2, 174480, Note_on_c, 0, 67, 80
2, 174935, Note_on_c, 0, 67, 0
2, 174960, Note_on_c, 0, 64, 80
2, 175415, Note_on_c, 0, 64, 0
2, 175440, Note_on_c, 0, 67, 80
2, 175895, Note_on_c, 0, 67, 0
2, 175920, Note_on_c, 0, 64, 80
2, 176375, Note_on_c, 0, 64, 0
2, 176400, Note_on_c, 0, 67, 80
2, 176855, Note_on_c, 0, 67, 0
2, 176880, Note_on_c, 0, 62, 80
2, 177791, Note_on_c, 0, 62, 0
2, 178320, Note_on_c, 0, 67, 80
2, 178775, Note_on_c, 0, 67, 0
2, 178800, Note_on_c, 0, 64, 80
2, 179255, Note_on_c, 0, 64, 0
2, 179280, Note_on_c, 0, 67, 80
2, 179735, Note_on_c, 0, 67, 0
2, 179760, Note_on_c, 0, 64, 80
2, 180215, Note_on_c, 0, 64, 0
2, 180240, Note_on_c, 0, 67, 80
2, 180695, Note_on_c, 0, 67, 0
2, 180720, Note_on_c, 0, 62, 80
2, 181631, Note_on_c, 0, 62, 0
2, 181680, Note_on_c, 0, 67, 80
2, 182135, Note_on_c, 0, 67, 0
2, 182160, Note_on_c, 0, 67, 80
2, 182615, Note_on_c, 0, 67, 0
2, 182640, Note_on_c, 0, 67, 80
2, 183095, Note_on_c, 0, 67, 0
2, 183120, Note_on_c, 0, 67, 80
2, 183575, Note_on_c, 0, 67, 0
2, 183600, Note_on_c, 0, 69, 80
2, 184326, Note_on_c, 0, 69, 0
2, 185520, Note_on_c, 0, 52, 80
2, 185520, Note_on_c, 0, 57, 80
2, 185795, Note_on_c, 0, 52, 0
2, 185795, Note_on_c, 0, 57, 0
2, 186000, Note_on_c, 0, 52, 80
2, 186000, Note_on_c, 0, 57, 80
2, 186275, Note_on_c, 0, 52, 0
2, 186275, Note_on_c, 0, 57, 0
2, 186288, Note_on_c, 0, 55, 80
2, 186469, Note_on_c, 0, 55, 0
2, 186480, Note_on_c, 0, 52, 80
2, 186480, Note_on_c, 0, 57, 80
2, 186755, Note_on_c, 0, 52, 0
2, 186755, Note_on_c, 0, 57, 0
2, 186768, Note_on_c, 0, 55, 80
2, 186949, Note_on_c, 0, 55, 0
2, 186960, Note_on_c, 0, 57, 80
2, 187235, Note_on_c, 0, 57, 0
2, 187248, Note_on_c, 0, 60, 80
2, 187429, Note_on_c, 0, 60, 0
2, 187440, Note_on_c, 0, 57, 80
2, 187440, Note_on_c, 0, 64, 80
2, 187895, Note_on_c, 0, 57, 0
2, 187895, Note_on_c, 0, 64, 0
2, 187920, Note_on_c, 0, 52, 80
2, 187920, Note_on_c, 0, 57, 80
2, 188195, Note_on_c, 0, 52, 0
2, 188195, Note_on_c, 0, 57, 0
2, 188208, Note_on_c, 0, 60, 80
2, 188389, Note_on_c, 0, 60, 0
2, 188400, Note_on_c, 0, 52, 80
2, 188400, Note_on_c, 0, 57, 80
2, 188675, Note_on_c, 0, 52, 0
2, 188675, Note_on_c, 0, 57, 0
2, 188688, Note_on_c, 0, 57, 80
2, 188869, Note_on_c, 0, 57, 0
2, 188880, Note_on_c, 0, 55, 80
2, 189155, Note_on_c, 0, 55, 0
2, 189360, Note_on_c, 0, 48, 80
2, 189360, Note_on_c, 0, 52, 80
2, 189360, Note_on_c, 0, 55, 80
2, 189815, Note_on_c, 0, 48, 0
2, 189815, Note_on_c, 0, 52, 0
2, 189815, Note_on_c, 0, 55, 0
2, 189840, Note_on_c, 0, 48, 80
2, 189840, Note_on_c, 0, 55, 80
2, 190115, Note_on_c, 0, 48, 0
2, 190115, Note_on_c, 0, 55, 0
2, 190128, Note_on_c, 0, 55, 80
2, 190309, Note_on_c, 0, 55, 0
2, 190320, Note_on_c, 0, 48, 80
2, 190320, Note_on_c, 0, 55, 80
2, 190320, Note_on_c, 0, 57, 80
2, 190595, Note_on_c, 0, 48, 0
2, 190595, Note_on_c, 0, 55, 0
2, 190595, Note_on_c, 0, 57, 0
2, 190608, Note_on_c, 0, 55, 80
2, 190789, Note_on_c, 0, 55, 0
2, 190800, Note_on_c, 0, 57, 80
2, 191075, Note_on_c, 0, 57, 0
2, 191088, Note_on_c, 0, 60, 80
2, 191269, Note_on_c, 0, 60, 0
2, 191280, Note_on_c, 0, 48, 80
2, 191280, Note_on_c, 0, 55, 80
2, 191280, Note_on_c, 0, 64, 80
2, 191735, Note_on_c, 0, 48, 0
2, 191735, Note_on_c, 0, 55, 0
2, 191735, Note_on_c, 0, 64, 0
2, 191760, Note_on_c, 0, 48, 80
2, 191760, Note_on_c, 0, 55, 80
2, 192035, Note_on_c, 0, 48, 0
2, 192035, Note_on_c, 0, 55, 0
2, 192048, Note_on_c, 0, 60, 80
2, 192240, Note_on_c, 0, 48, 80
2, 192240, Note_on_c, 0, 55, 80
2, 192500, Note_on_c, 0, 60, 0
2, 192515, Note_on_c, 0, 48, 0
2, 192515, Note_on_c, 0, 55, 0
2, 193200, Note_on_c, 0, 50, 80
2, 193200, Note_on_c, 0, 52, 80
2, 193200, Note_on_c, 0, 57, 80
2, 193655, Note_on_c, 0, 50, 0
2, 193655, Note_on_c, 0, 52, 0
2, 193655, Note_on_c, 0, 57, 0
2, 193680, Note_on_c, 0, 50, 80
2, 193680, Note_on_c, 0, 57, 80
2, 193955, Note_on_c, 0, 50, 0
2, 193955, Note_on_c, 0, 57, 0
2, 193968, Note_on_c, 0, 55, 80
2, 194149, Note_on_c, 0, 55, 0
2, 194160, Note_on_c, 0, 50, 80
2, 194160, Note_on_c, 0, 57, 80
2, 194435, Note_on_c, 0, 50, 0
2, 194435, Note_on_c, 0, 57, 0
2, 194448, Note_on_c, 0, 55, 80
2, 194629, Note_on_c, 0, 55, 0
2, 194640, Note_on_c, 0, 57, 80
2, 194915, Note_on_c, 0, 57, 0
2, 194928, Note_on_c, 0, 60, 80
2, 195109, Note_on_c, 0, 60, 0
2, 195120, Note_on_c, 0, 50, 80
2, 195120, Note_on_c, 0, 57, 80
2, 195120, Note_on_c, 0, 64, 80
2, 195575, Note_on_c, 0, 50, 0
2, 195575, Note_on_c, 0, 57, 0
2, 195575, Note_on_c, 0, 64, 0
2, 195600, Note_on_c, 0, 50, 80
2, 195600, Note_on_c, 0, 57, 80
2, 195875, Note_on_c, 0, 50, 0
2, 195875, Note_on_c, 0, 57, 0
2, 195888, Note_on_c, 0, 60, 80
2, 196069, Note_on_c, 0, 60, 0
2, 196080, Note_on_c, 0, 50, 80
2, 196080, Note_on_c, 0, 57, 80
2, 196355, Note_on_c, 0, 50, 0
2, 196355, Note_on_c, 0, 57, 0
2, 196368, Note_on_c, 0, 57, 80
2, 196549, Note_on_c, 0, 57, 0
2, 196560, Note_on_c, 0, 55, 80
2, 196835, Note_on_c, 0, 55, 0
2, 197040, Note_on_c, 0, 57, 80
2, 197040, Note_on_c, 0, 62, 80
2, 197495, Note_on_c, 0, 57, 0
2, 197495, Note_on_c, 0, 62, 0
2, 197520, Note_on_c, 0, 62, 80
2, 197795, Note_on_c, 0, 62, 0
2, 198000, Note_on_c, 0, 60, 80
2, 198000, Note_on_c, 0, 65, 80
2, 198275, Note_on_c, 0, 60, 0
2, 198275, Note_on_c, 0, 65, 0
2, 198480, Note_on_c, 0, 53, 80
2, 198480, Note_on_c, 0, 60, 80
2, 198755, Note_on_c, 0, 53, 0
2, 198755, Note_on_c, 0, 60, 0
2, 198960, Note_on_c, 0, 57, 80
2, 199235, Note_on_c, 0, 57, 0
2, 199248, Note_on_c, 0, 53, 80
2, 199429, Note_on_c, 0, 53, 0
2, 199440, Note_on_c, 0, 53, 80
2, 199715, Note_on_c, 0, 53, 0
2, 199920, Note_on_c, 0, 60, 80
2, 200195, Note_on_c, 0, 60, 0
2, 200208, Note_on_c, 0, 53, 80
2, 200389, Note_on_c, 0, 53, 0
2, 200688, Note_on_c, 0, 65, 80
2, 200869, Note_on_c, 0, 65, 0
2, 200880, Note_on_c, 0, 52, 80
2, 201606, Note_on_c, 0, 52, 0
2, 201648, Note_on_c, 0, 55, 80
2, 201829, Note_on_c, 0, 55, 0
2, 201840, Note_on_c, 0, 57, 80
2, 202115, Note_on_c, 0, 57, 0
2, 202128, Note_on_c, 0, 55, 80
2, 202309, Note_on_c, 0, 55, 0
2, 202320, Note_on_c, 0, 52, 80
2, 202320, Note_on_c, 0, 57, 80
2, 202595, Note_on_c, 0, 52, 0
2, 202595, Note_on_c, 0, 57, 0
2, 202608, Note_on_c, 0, 48, 80
2, 202789, Note_on_c, 0, 48, 0
2, 202800, Note_on_c, 0, 64, 80
2, 203141, Note_on_c, 0, 64, 0
2, 203160, Note_on_c, 0, 64, 80
2, 203547, Note_on_c, 0, 64, 0
2, 203568, Note_on_c, 0, 60, 80
2, 203749, Note_on_c, 0, 60, 0
2, 203760, Note_on_c, 0, 55, 80
2, 204035, Note_on_c, 0, 55, 0
2, 204048, Note_on_c, 0, 57, 80
2, 204229, Note_on_c, 0, 57, 0
2, 204240, Note_on_c, 0, 50, 80
2, 204240, Note_on_c, 0, 55, 80
2, 204515, Note_on_c, 0, 50, 0
2, 204515, Note_on_c, 0, 55, 0
2, 204528, Note_on_c, 0, 57, 80
2, 204709, Note_on_c, 0, 57, 0
2, 204720, Note_on_c, 0, 48, 80
2, 204720, Note_on_c, 0, 52, 80
2, 205446, Note_on_c, 0, 48, 0
2, 205446, Note_on_c, 0, 52, 0
2, 205488, Note_on_c, 0, 55, 80
2, 205669, Note_on_c, 0, 55, 0
2, 205680, Note_on_c, 0, 57, 80
2, 205955, Note_on_c, 0, 57, 0
2, 205968, Note_on_c, 0, 55, 80
2, 206149, Note_on_c, 0, 55, 0
2, 206160, Note_on_c, 0, 52, 80
2, 206160, Note_on_c, 0, 57, 80
2, 206435, Note_on_c, 0, 52, 0
2, 206435, Note_on_c, 0, 57, 0
2, 206448, Note_on_c, 0, 60, 80
2, 206629, Note_on_c, 0, 60, 0
2, 206640, Note_on_c, 0, 64, 80
2, 206981, Note_on_c, 0, 64, 0
2, 207000, Note_on_c, 0, 64, 80
2, 207387, Note_on_c, 0, 64, 0
2, 207408, Note_on_c, 0, 60, 80
2, 207589, Note_on_c, 0, 60, 0
2, 207600, Note_on_c, 0, 55, 80
2, 207875, Note_on_c, 0, 55, 0
2, 207888, Note_on_c, 0, 48, 80
2, 208069, Note_on_c, 0, 48, 0
2, 208080, Note_on_c, 0, 62, 80
2, 208368, Note_on_c, 0, 60, 80
2, 208535, Note_on_c, 0, 62, 0
2, 208549, Note_on_c, 0, 60, 0
2, 208560, Note_on_c, 0, 52, 80
2, 209286, Note_on_c, 0, 52, 0
2, 209328, Note_on_c, 0, 55, 80
2, 209509, Note_on_c, 0, 55, 0
2, 209520, Note_on_c, 0, 57, 80
2, 209795, Note_on_c, 0, 57, 0
2, 209808, Note_on_c, 0, 55, 80
2, 209989, Note_on_c, 0, 55, 0
2, 210000, Note_on_c, 0, 50, 80
2, 210000, Note_on_c, 0, 57, 80
2, 210275, Note_on_c, 0, 50, 0
2, 210275, Note_on_c, 0, 57, 0
2, 210288, Note_on_c, 0, 60, 80
2, 210469, Note_on_c, 0, 60, 0
2, 210480, Note_on_c, 0, 64, 80
2, 210821, Note_on_c, 0, 64, 0
2, 210840, Note_on_c, 0, 64, 80
2, 211227, Note_on_c, 0, 64, 0
2, 211248, Note_on_c, 0, 60, 80
2, 211429, Note_on_c, 0, 60, 0
2, 211440, Note_on_c, 0, 55, 80
2, 211715, Note_on_c, 0, 55, 0
2, 211728, Note_on_c, 0, 57, 80
2, 211909, Note_on_c, 0, 57, 0
2, 211920, Note_on_c, 0, 50, 80
2, 211920, Note_on_c, 0, 55, 80
2, 212195, Note_on_c, 0, 50, 0
2, 212195, Note_on_c, 0, 55, 0
2, 212208, Note_on_c, 0, 62, 80
2, 212389, Note_on_c, 0, 62, 0
2, 212400, Note_on_c, 0, 62, 80
2, 212400, Note_on_c, 0, 67, 80
2, 212855, Note_on_c, 0, 62, 0
2, 212855, Note_on_c, 0, 67, 0
2, 212880, Note_on_c, 0, 62, 80
2, 212880, Note_on_c, 0, 67, 80
2, 213155, Note_on_c, 0, 62, 0
2, 213155, Note_on_c, 0, 67, 0
2, 213360, Note_on_c, 0, 62, 80
2, 213360, Note_on_c, 0, 67, 80
2, 213815, Note_on_c, 0, 62, 0
2, 213815, Note_on_c, 0, 67, 0
2, 213840, Note_on_c, 0, 62, 80
2, 213840, Note_on_c, 0, 67, 80
2, 214295, Note_on_c, 0, 62, 0
2, 214295, Note_on_c, 0, 67, 0
2, 214320, Note_on_c, 0, 64, 80
2, 214320, Note_on_c, 0, 69, 80
2, 215046, Note_on_c, 0, 64, 0
2, 215046, Note_on_c, 0, 69, 0
2, 215087, Note_on_c, 0, 60, 80
2, 215087, Note_on_c, 0, 64, 80
2, 215087, Note_on_c, 0, 67, 80
2, 215724, Note_on_c, 0, 60, 0
2, 215724, Note_on_c, 0, 64, 0
2, 215724, Note_on_c, 0, 67, 0
2, 215760, Note_on_c, 0, 60, 80
2, 215760, Note_on_c, 0, 64, 80
2, 215760, Note_on_c, 0, 67, 80
2, 216215, Note_on_c, 0, 60, 0
2, 216215, Note_on_c, 0, 64, 0
2, 216215, Note_on_c, 0, 67, 0
2, 225840, Control_c, 0, 64, 0
2, 225841, End_track
3, 0, Start_track
3, 0, Title_t, "Bass\000"
3, 0, Key_signature, 0, "major"
3, 0, Control_c, 1, 121, 0
3, 0, Program_c, 1, 33
3, 0, Control_c, 1, 7, 100
3, 0, Control_c, 1, 10, 64
3, 0, Control_c, 1, 91, 0
3, 0, Control_c, 1, 93, 0
3, 0, MIDI_port, 0
3, 1200, Note_on_c, 1, 57, 80
3, 1200, Control_c, 1, 2, 80
3, 1679, Note_on_c, 1, 57, 0
3, 1680, Note_on_c, 1, 57, 80
3, 3119, Note_on_c, 1, 57, 0
3, 3120, Note_on_c, 1, 57, 80
3, 3599, Note_on_c, 1, 57, 0
3, 3600, Note_on_c, 1, 57, 80
3, 5039, Note_on_c, 1, 57, 0
3, 5040, Note_on_c, 1, 60, 80
3, 5519, Note_on_c, 1, 60, 0
3, 5520, Note_on_c, 1, 60, 80
3, 6959, Note_on_c, 1, 60, 0
3, 6960, Note_on_c, 1, 62, 80
3, 7439, Note_on_c, 1, 62, 0
3, 7440, Note_on_c, 1, 62, 80
3, 8399, Note_on_c, 1, 62, 0
3, 8880, Note_on_c, 1, 57, 80
3, 9359, Note_on_c, 1, 57, 0
3, 9360, Note_on_c, 1, 57, 80
3, 10799, Note_on_c, 1, 57, 0
3, 10800, Note_on_c, 1, 57, 80
3, 11279, Note_on_c, 1, 57, 0
3, 11280, Note_on_c, 1, 57, 80
3, 12719, Note_on_c, 1, 57, 0
3, 12720, Note_on_c, 1, 60, 80
3, 13199, Note_on_c, 1, 60, 0
3, 13200, Note_on_c, 1, 60, 80
3, 14639, Note_on_c, 1, 60, 0
3, 14640, Note_on_c, 1, 62, 80
3, 15119, Note_on_c, 1, 62, 0
3, 15120, Note_on_c, 1, 62, 80
3, 16079, Note_on_c, 1, 62, 0
3, 16560, Note_on_c, 1, 57, 80
3, 17519, Note_on_c, 1, 57, 0
3, 17520, Note_on_c, 1, 57, 80
3, 18479, Note_on_c, 1, 57, 0
3, 18480, Note_on_c, 1, 57, 80
3, 19439, Note_on_c, 1, 57, 0
3, 19440, Note_on_c, 1, 57, 80
3, 20399, Note_on_c, 1, 57, 0
3, 20400, Note_on_c, 1, 60, 80
3, 21359, Note_on_c, 1, 60, 0
3, 21360, Note_on_c, 1, 60, 80
3, 22319, Note_on_c, 1, 60, 0
3, 22320, Note_on_c, 1, 60, 80
3, 23279, Note_on_c, 1, 60, 0
3, 23280, Note_on_c, 1, 60, 80
3, 24239, Note_on_c, 1, 60, 0
3, 24240, Note_on_c, 1, 62, 80
3, 25199, Note_on_c, 1, 62, 0
3, 25200, Note_on_c, 1, 62, 80
3, 26159, Note_on_c, 1, 62, 0
3, 26160, Note_on_c, 1, 62, 80
3, 27119, Note_on_c, 1, 62, 0
3, 27120, Note_on_c, 1, 62, 80
3, 28079, Note_on_c, 1, 62, 0
3, 28080, Note_on_c, 1, 65, 80
3, 29039, Note_on_c, 1, 65, 0
3, 29040, Note_on_c, 1, 65, 80
3, 29999, Note_on_c, 1, 65, 0
3, 31920, Note_on_c, 1, 57, 80
3, 32207, Note_on_c, 1, 57, 0
3, 32208, Note_on_c, 1, 57, 80
3, 32399, Note_on_c, 1, 57, 0
3, 32400, Note_on_c, 1, 57, 80
3, 32879, Note_on_c, 1, 57, 0
3, 32880, Note_on_c, 1, 57, 80
3, 33642, Note_on_c, 1, 57, 0
3, 33840, Note_on_c, 1, 57, 80
3, 34127, Note_on_c, 1, 57, 0
3, 34128, Note_on_c, 1, 57, 80
3, 34319, Note_on_c, 1, 57, 0
3, 34320, Note_on_c, 1, 57, 80
3, 34799, Note_on_c, 1, 57, 0
3, 34800, Note_on_c, 1, 57, 80
3, 35759, Note_on_c, 1, 57, 0
3, 35760, Note_on_c, 1, 60, 80
3, 36047, Note_on_c, 1, 60, 0
3, 36048, Note_on_c, 1, 60, 80
3, 36239, Note_on_c, 1, 60, 0
3, 36240, Note_on_c, 1, 60, 80
3, 36719, Note_on_c, 1, 60, 0
3, 36720, Note_on_c, 1, 60, 80
3, 37679, Note_on_c, 1, 60, 0
3, 37680, Note_on_c, 1, 62, 80
3, 37967, Note_on_c, 1, 62, 0
3, 37968, Note_on_c, 1, 62, 80
3, 38159, Note_on_c, 1, 62, 0
3, 38160, Note_on_c, 1, 62, 80
3, 38639, Note_on_c, 1, 62, 0
3, 38640, Note_on_c, 1, 62, 80
3, 39599, Note_on_c, 1, 62, 0
3, 39600, Note_on_c, 1, 57, 80
3, 39887, Note_on_c, 1, 57, 0
3, 39888, Note_on_c, 1, 57, 80
3, 40079, Note_on_c, 1, 57, 0
3, 40080, Note_on_c, 1, 57, 80
3, 40559, Note_on_c, 1, 57, 0
3, 40560, Note_on_c, 1, 57, 80
3, 41322, Note_on_c, 1, 57, 0
3, 41520, Note_on_c, 1, 57, 80
3, 41807, Note_on_c, 1, 57, 0
3, 41808, Note_on_c, 1, 57, 80
3, 41999, Note_on_c, 1, 57, 0
3, 42000, Note_on_c, 1, 57, 80
3, 42479, Note_on_c, 1, 57, 0
3, 42480, Note_on_c, 1, 57, 80
3, 43439, Note_on_c, 1, 57, 0
3, 43440, Note_on_c, 1, 60, 80
3, 43727, Note_on_c, 1, 60, 0
3, 43728, Note_on_c, 1, 60, 80
3, 43919, Note_on_c, 1, 60, 0
3, 43920, Note_on_c, 1, 60, 80
3, 44399, Note_on_c, 1, 60, 0
3, 44400, Note_on_c, 1, 60, 80
3, 45359, Note_on_c, 1, 60, 0
3, 45360, Note_on_c, 1, 62, 80
3, 45647, Note_on_c, 1, 62, 0
3, 45648, Note_on_c, 1, 62, 80
3, 45839, Note_on_c, 1, 62, 0
3, 45840, Note_on_c, 1, 62, 80
3, 46319, Note_on_c, 1, 62, 0
3, 46320, Note_on_c, 1, 62, 80
3, 47279, Note_on_c, 1, 62, 0
3, 47280, Note_on_c, 1, 57, 80
3, 47567, Note_on_c, 1, 57, 0
3, 47568, Note_on_c, 1, 57, 80
3, 47759, Note_on_c, 1, 57, 0
3, 47760, Note_on_c, 1, 57, 80
3, 48239, Note_on_c, 1, 57, 0
3, 48240, Note_on_c, 1, 57, 80
3, 49199, Note_on_c, 1, 57, 0
3, 49200, Note_on_c, 1, 57, 80
3, 49487, Note_on_c, 1, 57, 0
3, 49488, Note_on_c, 1, 57, 80
3, 49679, Note_on_c, 1, 57, 0
3, 49680, Note_on_c, 1, 57, 80
3, 50159, Note_on_c, 1, 57, 0
3, 50160, Note_on_c, 1, 57, 80
3, 51119, Note_on_c, 1, 57, 0
3, 51120, Note_on_c, 1, 60, 80
3, 51407, Note_on_c, 1, 60, 0
3, 51408, Note_on_c, 1, 60, 80
3, 51599, Note_on_c, 1, 60, 0
3, 51600, Note_on_c, 1, 60, 80
3, 52079, Note_on_c, 1, 60, 0
3, 52080, Note_on_c, 1, 60, 80
3, 53039, Note_on_c, 1, 60, 0
3, 53040, Note_on_c, 1, 60, 80
3, 53327, Note_on_c, 1, 60, 0
3, 53328, Note_on_c, 1, 60, 80
3, 53519, Note_on_c, 1, 60, 0
3, 53520, Note_on_c, 1, 60, 80
3, 53999, Note_on_c, 1, 60, 0
3, 54000, Note_on_c, 1, 60, 80
3, 54959, Note_on_c, 1, 60, 0
3, 54960, Note_on_c, 1, 62, 80
3, 55247, Note_on_c, 1, 62, 0
3, 55248, Note_on_c, 1, 62, 80
3, 55439, Note_on_c, 1, 62, 0
3, 55440, Note_on_c, 1, 62, 80
3, 55919, Note_on_c, 1, 62, 0
3, 55920, Note_on_c, 1, 62, 80
3, 56879, Note_on_c, 1, 62, 0
3, 56880, Note_on_c, 1, 62, 80
3, 57167, Note_on_c, 1, 62, 0
3, 57168, Note_on_c, 1, 62, 80
3, 57359, Note_on_c, 1, 62, 0
3, 57360, Note_on_c, 1, 62, 80
3, 57839, Note_on_c, 1, 62, 0
3, 57840, Note_on_c, 1, 62, 80
3, 58799, Note_on_c, 1, 62, 0
3, 58800, Note_on_c, 1, 65, 80
3, 59759, Note_on_c, 1, 65, 0
3, 59760, Note_on_c, 1, 65, 80
3, 60719, Note_on_c, 1, 65, 0
3, 60720, Note_on_c, 1, 65, 80
3, 62639, Note_on_c, 1, 65, 0
3, 62640, Note_on_c, 1, 57, 80
3, 62927, Note_on_c, 1, 57, 0
3, 62928, Note_on_c, 1, 57, 80
3, 63119, Note_on_c, 1, 57, 0
3, 63120, Note_on_c, 1, 69, 80
3, 63599, Note_on_c, 1, 69, 0
3, 63600, Note_on_c, 1, 57, 80
3, 64079, Note_on_c, 1, 57, 0
3, 64080, Note_on_c, 1, 69, 80
3, 64367, Note_on_c, 1, 69, 0
3, 64368, Note_on_c, 1, 57, 80
3, 64847, Note_on_c, 1, 57, 0
3, 64848, Note_on_c, 1, 57, 80
3, 65039, Note_on_c, 1, 57, 0
3, 65040, Note_on_c, 1, 69, 80
3, 65519, Note_on_c, 1, 69, 0
3, 65520, Note_on_c, 1, 57, 80
3, 65807, Note_on_c, 1, 57, 0
3, 65808, Note_on_c, 1, 57, 80
3, 66282, Note_on_c, 1, 57, 0
3, 66288, Note_on_c, 1, 69, 80
3, 66479, Note_on_c, 1, 69, 0
3, 66480, Note_on_c, 1, 48, 80
3, 66767, Note_on_c, 1, 48, 0
3, 66768, Note_on_c, 1, 48, 80
3, 66959, Note_on_c, 1, 48, 0
3, 66960, Note_on_c, 1, 60, 80
3, 67439, Note_on_c, 1, 60, 0
3, 67440, Note_on_c, 1, 48, 80
3, 67919, Note_on_c, 1, 48, 0
3, 67920, Note_on_c, 1, 60, 80
3, 68207, Note_on_c, 1, 60, 0
3, 68208, Note_on_c, 1, 48, 80
3, 68399, Note_on_c, 1, 48, 0
3, 68688, Note_on_c, 1, 48, 80
3, 68879, Note_on_c, 1, 48, 0
3, 68880, Note_on_c, 1, 60, 80
3, 69359, Note_on_c, 1, 60, 0
3, 69360, Note_on_c, 1, 48, 80
3, 69647, Note_on_c, 1, 48, 0
3, 69648, Note_on_c, 1, 48, 80
3, 70122, Note_on_c, 1, 48, 0
3, 70128, Note_on_c, 1, 60, 80
3, 70319, Note_on_c, 1, 60, 0
3, 70320, Note_on_c, 1, 50, 80
3, 70607, Note_on_c, 1, 50, 0
3, 70608, Note_on_c, 1, 50, 80
3, 70799, Note_on_c, 1, 50, 0
3, 70800, Note_on_c, 1, 62, 80
3, 71279, Note_on_c, 1, 62, 0
3, 71280, Note_on_c, 1, 50, 80
3, 71759, Note_on_c, 1, 50, 0
3, 71760, Note_on_c, 1, 62, 80
3, 72047, Note_on_c, 1, 62, 0
3, 72048, Note_on_c, 1, 50, 80
3, 72239, Note_on_c, 1, 50, 0
3, 72528, Note_on_c, 1, 50, 80
3, 72719, Note_on_c, 1, 50, 0
3, 72720, Note_on_c, 1, 62, 80
3, 73199, Note_on_c, 1, 62, 0
3, 73200, Note_on_c, 1, 50, 80
3, 73487, Note_on_c, 1, 50, 0
3, 73488, Note_on_c, 1, 50, 80
3, 73962, Note_on_c, 1, 50, 0
3, 73968, Note_on_c, 1, 62, 80
3, 74159, Note_on_c, 1, 62, 0
3, 74160, Note_on_c, 1, 53, 80
3, 74447, Note_on_c, 1, 53, 0
3, 74448, Note_on_c, 1, 53, 80
3, 74639, Note_on_c, 1, 53, 0
3, 74640, Note_on_c, 1, 65, 80
3, 75119, Note_on_c, 1, 65, 0
3, 75120, Note_on_c, 1, 53, 80
3, 75599, Note_on_c, 1, 53, 0
3, 75600, Note_on_c, 1, 65, 80
3, 75887, Note_on_c, 1, 65, 0
3, 75888, Note_on_c, 1, 53, 80
3, 76079, Note_on_c, 1, 53, 0
3, 76368, Note_on_c, 1, 53, 80
3, 76559, Note_on_c, 1, 53, 0
3, 76560, Note_on_c, 1, 65, 80
3, 77039, Note_on_c, 1, 65, 0
3, 77040, Note_on_c, 1, 53, 80
3, 77327, Note_on_c, 1, 53, 0
3, 77328, Note_on_c, 1, 53, 80
3, 77802, Note_on_c, 1, 53, 0
3, 77808, Note_on_c, 1, 65, 80
3, 77999, Note_on_c, 1, 65, 0
3, 78000, Note_on_c, 1, 57, 80
3, 78287, Note_on_c, 1, 57, 0
3, 78288, Note_on_c, 1, 57, 80
3, 78479, Note_on_c, 1, 57, 0
3, 78480, Note_on_c, 1, 69, 80
3, 78959, Note_on_c, 1, 69, 0
3, 78960, Note_on_c, 1, 57, 80
3, 79439, Note_on_c, 1, 57, 0
3, 79440, Note_on_c, 1, 69, 80
3, 79727, Note_on_c, 1, 69, 0
3, 79728, Note_on_c, 1, 57, 80
3, 80207, Note_on_c, 1, 57, 0
3, 80208, Note_on_c, 1, 57, 80
3, 80399, Note_on_c, 1, 57, 0
3, 80400, Note_on_c, 1, 69, 80
3, 80879, Note_on_c, 1, 69, 0
3, 80880, Note_on_c, 1, 57, 80
3, 81167, Note_on_c, 1, 57, 0
3, 81168, Note_on_c, 1, 57, 80
3, 81642, Note_on_c, 1, 57, 0
3, 81648, Note_on_c, 1, 69, 80
3, 81839, Note_on_c, 1, 69, 0
3, 81840, Note_on_c, 1, 48, 80
3, 82127, Note_on_c, 1, 48, 0
3, 82128, Note_on_c, 1, 48, 80
3, 82319, Note_on_c, 1, 48, 0
3, 82320, Note_on_c, 1, 60, 80
3, 82799, Note_on_c, 1, 60, 0
3, 82800, Note_on_c, 1, 48, 80
3, 83279, Note_on_c, 1, 48, 0
3, 83280, Note_on_c, 1, 60, 80
3, 83567, Note_on_c, 1, 60, 0
3, 83568, Note_on_c, 1, 48, 80
3, 83759, Note_on_c, 1, 48, 0
3, 84048, Note_on_c, 1, 48, 80
3, 84239, Note_on_c, 1, 48, 0
3, 84240, Note_on_c, 1, 60, 80
3, 84719, Note_on_c, 1, 60, 0
3, 84720, Note_on_c, 1, 48, 80
3, 85007, Note_on_c, 1, 48, 0
3, 85008, Note_on_c, 1, 48, 80
3, 85482, Note_on_c, 1, 48, 0
3, 85488, Note_on_c, 1, 60, 80
3, 85679, Note_on_c, 1, 60, 0
3, 85680, Note_on_c, 1, 50, 80
3, 85967, Note_on_c, 1, 50, 0
3, 85968, Note_on_c, 1, 50, 80
3, 86159, Note_on_c, 1, 50, 0
3, 86160, Note_on_c, 1, 62, 80
3, 86639, Note_on_c, 1, 62, 0
3, 86640, Note_on_c, 1, 50, 80
3, 87119, Note_on_c, 1, 50, 0
3, 87120, Note_on_c, 1, 62, 80
3, 87407, Note_on_c, 1, 62, 0
3, 87408, Note_on_c, 1, 50, 80
3, 87599, Note_on_c, 1, 50, 0
3, 87888, Note_on_c, 1, 50, 80
3, 88079, Note_on_c, 1, 50, 0
3, 88080, Note_on_c, 1, 62, 80
3, 88559, Note_on_c, 1, 62, 0
3, 88560, Note_on_c, 1, 50, 80
3, 88847, Note_on_c, 1, 50, 0
3, 88848, Note_on_c, 1, 50, 80
3, 89322, Note_on_c, 1, 50, 0
3, 89328, Note_on_c, 1, 62, 80
3, 89519, Note_on_c, 1, 62, 0
3, 89520, Note_on_c, 1, 53, 80
3, 89807, Note_on_c, 1, 53, 0
3, 89808, Note_on_c, 1, 53, 80
3, 89999, Note_on_c, 1, 53, 0
3, 90000, Note_on_c, 1, 65, 80
3, 90479, Note_on_c, 1, 65, 0
3, 90480, Note_on_c, 1, 53, 80
3, 90959, Note_on_c, 1, 53, 0
3, 90960, Note_on_c, 1, 65, 80
3, 91247, Note_on_c, 1, 65, 0
3, 91248, Note_on_c, 1, 53, 80
3, 91439, Note_on_c, 1, 53, 0
3, 91728, Note_on_c, 1, 53, 80
3, 91919, Note_on_c, 1, 53, 0
3, 91920, Note_on_c, 1, 65, 80
3, 92399, Note_on_c, 1, 65, 0
3, 92400, Note_on_c, 1, 53, 80
3, 92687, Note_on_c, 1, 53, 0
3, 92688, Note_on_c, 1, 53, 80
3, 93162, Note_on_c, 1, 53, 0
3, 93168, Note_on_c, 1, 65, 80
3, 93359, Note_on_c, 1, 65, 0
3, 93360, Note_on_c, 1, 57, 80
3, 93647, Note_on_c, 1, 57, 0
3, 93648, Note_on_c, 1, 57, 80
3, 93839, Note_on_c, 1, 57, 0
3, 93840, Note_on_c, 1, 69, 80
3, 94319, Note_on_c, 1, 69, 0
3, 94320, Note_on_c, 1, 57, 80
3, 94799, Note_on_c, 1, 57, 0
3, 94800, Note_on_c, 1, 69, 80
3, 95087, Note_on_c, 1, 69, 0
3, 95088, Note_on_c, 1, 57, 80
3, 95567, Note_on_c, 1, 57, 0
3, 95568, Note_on_c, 1, 57, 80
3, 95759, Note_on_c, 1, 57, 0
3, 95760, Note_on_c, 1, 69, 80
3, 96239, Note_on_c, 1, 69, 0
3, 96240, Note_on_c, 1, 57, 80
3, 96527, Note_on_c, 1, 57, 0
3, 96528, Note_on_c, 1, 57, 80
3, 97002, Note_on_c, 1, 57, 0
3, 97008, Note_on_c, 1, 69, 80
3, 97199, Note_on_c, 1, 69, 0
3, 97200, Note_on_c, 1, 48, 80
3, 97487, Note_on_c, 1, 48, 0
3, 97488, Note_on_c, 1, 48, 80
3, 97679, Note_on_c, 1, 48, 0
3, 97680, Note_on_c, 1, 60, 80
3, 98159, Note_on_c, 1, 60, 0
3, 98160, Note_on_c, 1, 48, 80
3, 98639, Note_on_c, 1, 48, 0
3, 98640, Note_on_c, 1, 60, 80
3, 98927, Note_on_c, 1, 60, 0
3, 98928, Note_on_c, 1, 48, 80
3, 99119, Note_on_c, 1, 48, 0
3, 99408, Note_on_c, 1, 48, 80
3, 99599, Note_on_c, 1, 48, 0
3, 99600, Note_on_c, 1, 60, 80
3, 100079, Note_on_c, 1, 60, 0
3, 100080, Note_on_c, 1, 48, 80
3, 100367, Note_on_c, 1, 48, 0
3, 100368, Note_on_c, 1, 48, 80
3, 100842, Note_on_c, 1, 48, 0
3, 100848, Note_on_c, 1, 60, 80
3, 101039, Note_on_c, 1, 60, 0
3, 101040, Note_on_c, 1, 50, 80
3, 101327, Note_on_c, 1, 50, 0
3, 101328, Note_on_c, 1, 50, 80
3, 101519, Note_on_c, 1, 50, 0
3, 101520, Note_on_c, 1, 62, 80
3, 101999, Note_on_c, 1, 62, 0
3, 102000, Note_on_c, 1, 50, 80
3, 102479, Note_on_c, 1, 50, 0
3, 102480, Note_on_c, 1, 62, 80
3, 102767, Note_on_c, 1, 62, 0
3, 102768, Note_on_c, 1, 50, 80
3, 102959, Note_on_c, 1, 50, 0
3, 103248, Note_on_c, 1, 50, 80
3, 103439, Note_on_c, 1, 50, 0
3, 103440, Note_on_c, 1, 62, 80
3, 103919, Note_on_c, 1, 62, 0
3, 103920, Note_on_c, 1, 50, 80
3, 104207, Note_on_c, 1, 50, 0
3, 104208, Note_on_c, 1, 50, 80
3, 104682, Note_on_c, 1, 50, 0
3, 104688, Note_on_c, 1, 62, 80
3, 104879, Note_on_c, 1, 62, 0
3, 104880, Note_on_c, 1, 53, 80
3, 105167, Note_on_c, 1, 53, 0
3, 105168, Note_on_c, 1, 53, 80
3, 105359, Note_on_c, 1, 53, 0
3, 105360, Note_on_c, 1, 65, 80
3, 105839, Note_on_c, 1, 65, 0
3, 105840, Note_on_c, 1, 53, 80
3, 106319, Note_on_c, 1, 53, 0
3, 106320, Note_on_c, 1, 65, 80
3, 106607, Note_on_c, 1, 65, 0
3, 106608, Note_on_c, 1, 53, 80
3, 106799, Note_on_c, 1, 53, 0
3, 107088, Note_on_c, 1, 53, 80
3, 107279, Note_on_c, 1, 53, 0
3, 107280, Note_on_c, 1, 65, 80
3, 107759, Note_on_c, 1, 65, 0
3, 107760, Note_on_c, 1, 53, 80
3, 108047, Note_on_c, 1, 53, 0
3, 108048, Note_on_c, 1, 53, 80
3, 108522, Note_on_c, 1, 53, 0
3, 108528, Note_on_c, 1, 65, 80
3, 108719, Note_on_c, 1, 65, 0
3, 108720, Note_on_c, 1, 57, 80
3, 110639, Note_on_c, 1, 57, 0
3, 124080, Note_on_c, 1, 57, 80
3, 125999, Note_on_c, 1, 57, 0
3, 127920, Note_on_c, 1, 60, 80
3, 129839, Note_on_c, 1, 60, 0
3, 131760, Note_on_c, 1, 62, 80
3, 133679, Note_on_c, 1, 62, 0
3, 135600, Note_on_c, 1, 65, 80
3, 137519, Note_on_c, 1, 65, 0
3, 137520, Note_on_c, 1, 65, 80
3, 138479, Note_on_c, 1, 65, 0
3, 138480, Note_on_c, 1, 65, 80
3, 139439, Note_on_c, 1, 65, 0
3, 139440, Note_on_c, 1, 57, 80
3, 139919, Note_on_c, 1, 57, 0
3, 139920, Note_on_c, 1, 57, 80
3, 140399, Note_on_c, 1, 57, 0
3, 140400, Note_on_c, 1, 57, 80
3, 140879, Note_on_c, 1, 57, 0
3, 140880, Note_on_c, 1, 57, 80
3, 141359, Note_on_c, 1, 57, 0
3, 141360, Note_on_c, 1, 57, 80
3, 141839, Note_on_c, 1, 57, 0
3, 141840, Note_on_c, 1, 57, 80
3, 142319, Note_on_c, 1, 57, 0
3, 142320, Note_on_c, 1, 59, 80
3, 142799, Note_on_c, 1, 59, 0
3, 142800, Note_on_c, 1, 59, 80
3, 143279, Note_on_c, 1, 59, 0
3, 143280, Note_on_c, 1, 60, 80
3, 143759, Note_on_c, 1, 60, 0
3, 143760, Note_on_c, 1, 60, 80
3, 144239, Note_on_c, 1, 60, 0
3, 144240, Note_on_c, 1, 60, 80
3, 144719, Note_on_c, 1, 60, 0
3, 144720, Note_on_c, 1, 60, 80
3, 145199, Note_on_c, 1, 60, 0
3, 145200, Note_on_c, 1, 60, 80
3, 145679, Note_on_c, 1, 60, 0
3, 145680, Note_on_c, 1, 60, 80
3, 146159, Note_on_c, 1, 60, 0
3, 146160, Note_on_c, 1, 64, 80
3, 146639, Note_on_c, 1, 64, 0
3, 146640, Note_on_c, 1, 64, 80
3, 147119, Note_on_c, 1, 64, 0
3, 147120, Note_on_c, 1, 62, 80
3, 147599, Note_on_c, 1, 62, 0
3, 147600, Note_on_c, 1, 62, 80
3, 148079, Note_on_c, 1, 62, 0
3, 148080, Note_on_c, 1, 62, 80
3, 148559, Note_on_c, 1, 62, 0
3, 148560, Note_on_c, 1, 62, 80
3, 149039, Note_on_c, 1, 62, 0
3, 149040, Note_on_c, 1, 62, 80
3, 149519, Note_on_c, 1, 62, 0
3, 149520, Note_on_c, 1, 62, 80
3, 149999, Note_on_c, 1, 62, 0
3, 150000, Note_on_c, 1, 64, 80
3, 150479, Note_on_c, 1, 64, 0
3, 150480, Note_on_c, 1, 64, 80
3, 150959, Note_on_c, 1, 64, 0
3, 150960, Note_on_c, 1, 65, 80
3, 151439, Note_on_c, 1, 65, 0
3, 151440, Note_on_c, 1, 65, 80
3, 151919, Note_on_c, 1, 65, 0
3, 151920, Note_on_c, 1, 65, 80
3, 152399, Note_on_c, 1, 65, 0
3, 152400, Note_on_c, 1, 65, 80
3, 152879, Note_on_c, 1, 65, 0
3, 152880, Note_on_c, 1, 65, 80
3, 153359, Note_on_c, 1, 65, 0
3, 153360, Note_on_c, 1, 65, 80
3, 153839, Note_on_c, 1, 65, 0
3, 153840, Note_on_c, 1, 65, 80
3, 154319, Note_on_c, 1, 65, 0
3, 154320, Note_on_c, 1, 65, 80
3, 154799, Note_on_c, 1, 65, 0
3, 154800, Note_on_c, 1, 57, 80
3, 155087, Note_on_c, 1, 57, 0
3, 155280, Note_on_c, 1, 57, 80
3, 155567, Note_on_c, 1, 57, 0
3, 157200, Note_on_c, 1, 57, 80
3, 157487, Note_on_c, 1, 57, 0
3, 157968, Note_on_c, 1, 57, 80
3, 158159, Note_on_c, 1, 57, 0
3, 158640, Note_on_c, 1, 60, 80
3, 158927, Note_on_c, 1, 60, 0
3, 159120, Note_on_c, 1, 60, 80
3, 159407, Note_on_c, 1, 60, 0
3, 161040, Note_on_c, 1, 60, 80
3, 161327, Note_on_c, 1, 60, 0
3, 161808, Note_on_c, 1, 60, 80
3, 161999, Note_on_c, 1, 60, 0
3, 162480, Note_on_c, 1, 62, 80
3, 162767, Note_on_c, 1, 62, 0
3, 162960, Note_on_c, 1, 62, 80
3, 163247, Note_on_c, 1, 62, 0
3, 164880, Note_on_c, 1, 62, 80
3, 165167, Note_on_c, 1, 62, 0
3, 165648, Note_on_c, 1, 62, 80
3, 165839, Note_on_c, 1, 62, 0
3, 166320, Note_on_c, 1, 65, 80
3, 166607, Note_on_c, 1, 65, 0
3, 166800, Note_on_c, 1, 65, 80
3, 167087, Note_on_c, 1, 65, 0
3, 168240, Note_on_c, 1, 65, 80
3, 168527, Note_on_c, 1, 65, 0
3, 168720, Note_on_c, 1, 65, 80
3, 169007, Note_on_c, 1, 65, 0
3, 170160, Note_on_c, 1, 57, 80
3, 170447, Note_on_c, 1, 57, 0
3, 170640, Note_on_c, 1, 57, 80
3, 170927, Note_on_c, 1, 57, 0
3, 171120, Note_on_c, 1, 69, 80
3, 171407, Note_on_c, 1, 69, 0
3, 172560, Note_on_c, 1, 57, 80
3, 172847, Note_on_c, 1, 57, 0
3, 173040, Note_on_c, 1, 69, 80
3, 173327, Note_on_c, 1, 69, 0
3, 173328, Note_on_c, 1, 57, 80
3, 173519, Note_on_c, 1, 57, 0
3, 173808, Note_on_c, 1, 57, 80
3, 173999, Note_on_c, 1, 57, 0
3, 174000, Note_on_c, 1, 60, 80
3, 174287, Note_on_c, 1, 60, 0
3, 174480, Note_on_c, 1, 60, 80
3, 174767, Note_on_c, 1, 60, 0
3, 174960, Note_on_c, 1, 72, 80
3, 175247, Note_on_c, 1, 72, 0
3, 176400, Note_on_c, 1, 60, 80
3, 176687, Note_on_c, 1, 60, 0
3, 176880, Note_on_c, 1, 72, 80
3, 177167, Note_on_c, 1, 72, 0
3, 177168, Note_on_c, 1, 60, 80
3, 177359, Note_on_c, 1, 60, 0
3, 177648, Note_on_c, 1, 60, 80
3, 177839, Note_on_c, 1, 60, 0
3, 177840, Note_on_c, 1, 50, 80
3, 178127, Note_on_c, 1, 50, 0
3, 178320, Note_on_c, 1, 50, 80
3, 178607, Note_on_c, 1, 50, 0
3, 178800, Note_on_c, 1, 62, 80
3, 179087, Note_on_c, 1, 62, 0
3, 180240, Note_on_c, 1, 50, 80
3, 180527, Note_on_c, 1, 50, 0
3, 180720, Note_on_c, 1, 62, 80
3, 181007, Note_on_c, 1, 62, 0
3, 181008, Note_on_c, 1, 50, 80
3, 181199, Note_on_c, 1, 50, 0
3, 181488, Note_on_c, 1, 50, 80
3, 181679, Note_on_c, 1, 50, 0
3, 181680, Note_on_c, 1, 53, 80
3, 181967, Note_on_c, 1, 53, 0
3, 182160, Note_on_c, 1, 53, 80
3, 182447, Note_on_c, 1, 53, 0
3, 182640, Note_on_c, 1, 65, 80
3, 182927, Note_on_c, 1, 65, 0
3, 184080, Note_on_c, 1, 53, 80
3, 184367, Note_on_c, 1, 53, 0
3, 184560, Note_on_c, 1, 65, 80
3, 184847, Note_on_c, 1, 65, 0
3, 184848, Note_on_c, 1, 53, 80
3, 185039, Note_on_c, 1, 53, 0
3, 185328, Note_on_c, 1, 53, 80
3, 185519, Note_on_c, 1, 53, 0
3, 185520, Note_on_c, 1, 57, 80
3, 185807, Note_on_c, 1, 57, 0
3, 185808, Note_on_c, 1, 57, 80
3, 185999, Note_on_c, 1, 57, 0
3, 186000, Note_on_c, 1, 69, 80
3, 186479, Note_on_c, 1, 69, 0
3, 186480, Note_on_c, 1, 57, 80
3, 186959, Note_on_c, 1, 57, 0
3, 186960, Note_on_c, 1, 69, 80
3, 187247, Note_on_c, 1, 69, 0
3, 187248, Note_on_c, 1, 57, 80
3, 187727, Note_on_c, 1, 57, 0
3, 187728, Note_on_c, 1, 57, 80
3, 187919, Note_on_c, 1, 57, 0
3, 187920, Note_on_c, 1, 69, 80
3, 188399, Note_on_c, 1, 69, 0
3, 188400, Note_on_c, 1, 57, 80
3, 188687, Note_on_c, 1, 57, 0
3, 188688, Note_on_c, 1, 57, 80
3, 189162, Note_on_c, 1, 57, 0
3, 189168, Note_on_c, 1, 69, 80
3, 189359, Note_on_c, 1, 69, 0
3, 189360, Note_on_c, 1, 48, 80
3, 189647, Note_on_c, 1, 48, 0
3, 189648, Note_on_c, 1, 48, 80
3, 189839, Note_on_c, 1, 48, 0
3, 189840, Note_on_c, 1, 60, 80
3, 190319, Note_on_c, 1, 60, 0
3, 190320, Note_on_c, 1, 48, 80
3, 190799, Note_on_c, 1, 48, 0
3, 190800, Note_on_c, 1, 60, 80
3, 191087, Note_on_c, 1, 60, 0
3, 191088, Note_on_c, 1, 48, 80
3, 191279, Note_on_c, 1, 48, 0
3, 191568, Note_on_c, 1, 48, 80
3, 191759, Note_on_c, 1, 48, 0
3, 191760, Note_on_c, 1, 60, 80
3, 192239, Note_on_c, 1, 60, 0
3, 192240, Note_on_c, 1, 48, 80
3, 192527, Note_on_c, 1, 48, 0
3, 192528, Note_on_c, 1, 48, 80
3, 193002, Note_on_c, 1, 48, 0
3, 193008, Note_on_c, 1, 60, 80
3, 193199, Note_on_c, 1, 60, 0
3, 193200, Note_on_c, 1, 50, 80
3, 193487, Note_on_c, 1, 50, 0
3, 193488, Note_on_c, 1, 50, 80
3, 193679, Note_on_c, 1, 50, 0
3, 193680, Note_on_c, 1, 62, 80
3, 194159, Note_on_c, 1, 62, 0
3, 194160, Note_on_c, 1, 50, 80
3, 194639, Note_on_c, 1, 50, 0
3, 194640, Note_on_c, 1, 62, 80
3, 194927, Note_on_c, 1, 62, 0
3, 194928, Note_on_c, 1, 50, 80
3, 195119, Note_on_c, 1, 50, 0
3, 195408, Note_on_c, 1, 50, 80
3, 195599, Note_on_c, 1, 50, 0
3, 195600, Note_on_c, 1, 62, 80
3, 196079, Note_on_c, 1, 62, 0
3, 196080, Note_on_c, 1, 50, 80
3, 196367, Note_on_c, 1, 50, 0
3, 196368, Note_on_c, 1, 50, 80
3, 196842, Note_on_c, 1, 50, 0
3, 196848, Note_on_c, 1, 62, 80
3, 197039, Note_on_c, 1, 62, 0
3, 197040, Note_on_c, 1, 53, 80
3, 197327, Note_on_c, 1, 53, 0
3, 197328, Note_on_c, 1, 53, 80
3, 197519, Note_on_c, 1, 53, 0
3, 197520, Note_on_c, 1, 65, 80
3, 197999, Note_on_c, 1, 65, 0
3, 198000, Note_on_c, 1, 53, 80
3, 198479, Note_on_c, 1, 53, 0
3, 198480, Note_on_c, 1, 65, 80
3, 198767, Note_on_c, 1, 65, 0
3, 198768, Note_on_c, 1, 53, 80
3, 198959, Note_on_c, 1, 53, 0
3, 199248, Note_on_c, 1, 53, 80
3, 199439, Note_on_c, 1, 53, 0
3, 199440, Note_on_c, 1, 65, 80
3, 199919, Note_on_c, 1, 65, 0
3, 199920, Note_on_c, 1, 53, 80
3, 200207, Note_on_c, 1, 53, 0
3, 200208, Note_on_c, 1, 53, 80
3, 200682, Note_on_c, 1, 53, 0
3, 200688, Note_on_c, 1, 65, 80
3, 200879, Note_on_c, 1, 65, 0
3, 200880, Note_on_c, 1, 57, 80
3, 201167, Note_on_c, 1, 57, 0
3, 201168, Note_on_c, 1, 57, 80
3, 201359, Note_on_c, 1, 57, 0
3, 201360, Note_on_c, 1, 69, 80
3, 201839, Note_on_c, 1, 69, 0
3, 201840, Note_on_c, 1, 57, 80
3, 202319, Note_on_c, 1, 57, 0
3, 202320, Note_on_c, 1, 69, 80
3, 202607, Note_on_c, 1, 69, 0
3, 202608, Note_on_c, 1, 57, 80
3, 203087, Note_on_c, 1, 57, 0
3, 203088, Note_on_c, 1, 57, 80
3, 203279, Note_on_c, 1, 57, 0
3, 203280, Note_on_c, 1, 69, 80
3, 203759, Note_on_c, 1, 69, 0
3, 203760, Note_on_c, 1, 57, 80
3, 204047, Note_on_c, 1, 57, 0
3, 204048, Note_on_c, 1, 57, 80
3, 204522, Note_on_c, 1, 57, 0
3, 204528, Note_on_c, 1, 69, 80
3, 204719, Note_on_c, 1, 69, 0
3, 204720, Note_on_c, 1, 48, 80
3, 205007, Note_on_c, 1, 48, 0
3, 205008, Note_on_c, 1, 48, 80
3, 205199, Note_on_c, 1, 48, 0
3, 205200, Note_on_c, 1, 60, 80
3, 205679, Note_on_c, 1, 60, 0
3, 205680, Note_on_c, 1, 48, 80
3, 206159, Note_on_c, 1, 48, 0
3, 206160, Note_on_c, 1, 60, 80
3, 206447, Note_on_c, 1, 60, 0
3, 206448, Note_on_c, 1, 48, 80
3, 206639, Note_on_c, 1, 48, 0
3, 206928, Note_on_c, 1, 48, 80
3, 207119, Note_on_c, 1, 48, 0
3, 207120, Note_on_c, 1, 60, 80
3, 207599, Note_on_c, 1, 60, 0
3, 207600, Note_on_c, 1, 48, 80
3, 207887, Note_on_c, 1, 48, 0
3, 207888, Note_on_c, 1, 48, 80
3, 208362, Note_on_c, 1, 48, 0
3, 208368, Note_on_c, 1, 60, 80
3, 208559, Note_on_c, 1, 60, 0
3, 208560, Note_on_c, 1, 50, 80
3, 208847, Note_on_c, 1, 50, 0
3, 208848, Note_on_c, 1, 50, 80
3, 209039, Note_on_c, 1, 50, 0
3, 209040, Note_on_c, 1, 62, 80
3, 209519, Note_on_c, 1, 62, 0
3, 209520, Note_on_c, 1, 50, 80
3, 209999, Note_on_c, 1, 50, 0
3, 210000, Note_on_c, 1, 62, 80
3, 210287, Note_on_c, 1, 62, 0
3, 210288, Note_on_c, 1, 50, 80
3, 210479, Note_on_c, 1, 50, 0
3, 210768, Note_on_c, 1, 50, 80
3, 210959, Note_on_c, 1, 50, 0
3, 210960, Note_on_c, 1, 62, 80
3, 211439, Note_on_c, 1, 62, 0
3, 211440, Note_on_c, 1, 50, 80
3, 211727, Note_on_c, 1, 50, 0
3, 211728, Note_on_c, 1, 50, 80
3, 212202, Note_on_c, 1, 50, 0
3, 212208, Note_on_c, 1, 62, 80
3, 212399, Note_on_c, 1, 62, 0
3, 212400, Note_on_c, 1, 53, 80
3, 212687, Note_on_c, 1, 53, 0
3, 212688, Note_on_c, 1, 53, 80
3, 212879, Note_on_c, 1, 53, 0
3, 212880, Note_on_c, 1, 65, 80
3, 213359, Note_on_c, 1, 65, 0
3, 213360, Note_on_c, 1, 53, 80
3, 213839, Note_on_c, 1, 53, 0
3, 213840, Note_on_c, 1, 65, 80
3, 214127, Note_on_c, 1, 65, 0
3, 214128, Note_on_c, 1, 53, 80
3, 214319, Note_on_c, 1, 53, 0
3, 214608, Note_on_c, 1, 53, 80
3, 214799, Note_on_c, 1, 53, 0
3, 214800, Note_on_c, 1, 65, 80
3, 215279, Note_on_c, 1, 65, 0
3, 215280, Note_on_c, 1, 53, 80
3, 215567, Note_on_c, 1, 53, 0
3, 215568, Note_on_c, 1, 53, 80
3, 216042, Note_on_c, 1, 53, 0
3, 216048, Note_on_c, 1, 65, 80
3, 216239, Note_on_c, 1, 65, 0
3, 216240, Note_on_c, 1, 57, 80
3, 216527, Note_on_c, 1, 57, 0
3, 216720, Note_on_c, 1, 57, 80
3, 217007, Note_on_c, 1, 57, 0
3, 218640, Note_on_c, 1, 57, 80
3, 218927, Note_on_c, 1, 57, 0
3, 219408, Note_on_c, 1, 57, 80
3, 219599, Note_on_c, 1, 57, 0
3, 219888, Note_on_c, 1, 57, 80
3, 220079, Note_on_c, 1, 57, 0
3, 220080, Note_on_c, 1, 60, 80
3, 220367, Note_on_c, 1, 60, 0
3, 220560, Note_on_c, 1, 60, 80
3, 220847, Note_on_c, 1, 60, 0
3, 222000, Note_on_c, 1, 62, 80
3, 222287, Note_on_c, 1, 62, 0
3, 222480, Note_on_c, 1, 62, 80
3, 222767, Note_on_c, 1, 62, 0
3, 223440, Note_on_c, 1, 55, 80
3, 223727, Note_on_c, 1, 55, 0
3, 223920, Note_on_c, 1, 57, 80
3, 224207, Note_on_c, 1, 57, 0
3, 224208, End_track
0, 0, End_of_file
