0, 0, Header, 1, 4, 480
1, 0, Start_track
1, 0, Title_t, "16 Hole C Chromatic Harmonica, Harmonica\000"
1, 0, Time_signature, 3, 2, 24, 8
1, 0, Key_signature, 0, "major"
1, 0, Tempo, 821918
1, 0, Control_c, 3, 121, 0
1, 0, Program_c, 3, 22
1, 0, Control_c, 3, 7, 100
1, 0, Control_c, 3, 10, 64
1, 0, Control_c, 3, 91, 0
1, 0, Control_c, 3, 93, 0
1, 0, MIDI_port, 0
1, 2760, Note_on_c, 3, 55, 80
1, 2760, Control_c, 3, 2, 80
1, 2799, Note_on_c, 3, 55, 0
1, 2800, Note_on_c, 3, 59, 80
1, 2839, Note_on_c, 3, 59, 0
1, 2840, Note_on_c, 3, 64, 80
1, 2879, Note_on_c, 3, 64, 0
1, 2880, Note_on_c, 3, 71, 80
1, 3119, Note_on_c, 3, 71, 0
1, 3120, Note_on_c, 3, 67, 80
1, 3359, Note_on_c, 3, 67, 0
1, 3360, Note_on_c, 3, 67, 80
1, 4079, Note_on_c, 3, 67, 0
1, 4080, Note_on_c, 3, 64, 80
1, 4199, Note_on_c, 3, 64, 0
1, 4200, Note_on_c, 3, 53, 80
1, 4239, Note_on_c, 3, 53, 0
1, 4240, Note_on_c, 3, 57, 80
1, 4279, Note_on_c, 3, 57, 0
1, 4280, Note_on_c, 3, 60, 80
1, 4319, Note_on_c, 3, 60, 0
1, 4320, Note_on_c, 3, 64, 80
1, 4559, Note_on_c, 3, 64, 0
1, 5640, Note_on_c, 3, 55, 80
1, 5679, Note_on_c, 3, 55, 0
1, 5680, Note_on_c, 3, 59, 80
1, 5719, Note_on_c, 3, 59, 0
1, 5720, Note_on_c, 3, 64, 80
1, 5759, Note_on_c, 3, 64, 0
1, 5760, Note_on_c, 3, 71, 80
1, 5999, Note_on_c, 3, 71, 0
1, 6000, Note_on_c, 3, 67, 80
1, 6239, Note_on_c, 3, 67, 0
1, 6240, Note_on_c, 3, 67, 80
1, 6959, Note_on_c, 3, 67, 0
1, 6960, Note_on_c, 3, 64, 80
1, 7079, Note_on_c, 3, 64, 0
1, 7080, Note_on_c, 3, 53, 80
1, 7119, Note_on_c, 3, 53, 0
1, 7120, Note_on_c, 3, 57, 80
1, 7159, Note_on_c, 3, 57, 0
1, 7160, Note_on_c, 3, 60, 80
1, 7199, Note_on_c, 3, 60, 0
1, 7200, Note_on_c, 3, 64, 80
1, 7439, Note_on_c, 3, 64, 0
1, 8520, Note_on_c, 3, 64, 80
1, 8559, Note_on_c, 3, 64, 0
1, 8560, Note_on_c, 3, 69, 80
1, 8599, Note_on_c, 3, 69, 0
1, 8600, Note_on_c, 3, 72, 80
1, 8639, Note_on_c, 3, 72, 0
1, 8640, Note_on_c, 3, 76, 80
1, 8879, Note_on_c, 3, 76, 0
1, 8880, Note_on_c, 3, 72, 80
1, 9119, Note_on_c, 3, 72, 0
1, 9120, Note_on_c, 3, 72, 80
1, 9839, Note_on_c, 3, 72, 0
1, 9840, Note_on_c, 3, 71, 80
1, 9959, Note_on_c, 3, 71, 0
1, 9960, Note_on_c, 3, 62, 80
1, 9999, Note_on_c, 3, 62, 0
1, 10000, Note_on_c, 3, 67, 80
1, 10039, Note_on_c, 3, 67, 0
1, 10040, Note_on_c, 3, 71, 80
1, 10079, Note_on_c, 3, 71, 0
1, 10080, Note_on_c, 3, 74, 80
1, 10319, Note_on_c, 3, 74, 0
1, 10320, Note_on_c, 3, 71, 80
1, 10559, Note_on_c, 3, 71, 0
1, 10560, Note_on_c, 3, 71, 80
1, 11279, Note_on_c, 3, 71, 0
1, 11280, Note_on_c, 3, 69, 80
1, 11399, Note_on_c, 3, 69, 0
1, 11400, Note_on_c, 3, 57, 80
1, 11439, Note_on_c, 3, 57, 0
1, 11440, Note_on_c, 3, 60, 80
1, 11479, Note_on_c, 3, 60, 0
1, 11480, Note_on_c, 3, 65, 80
1, 11519, Note_on_c, 3, 65, 0
1, 11520, Note_on_c, 3, 69, 80
1, 11759, Note_on_c, 3, 69, 0
1, 11760, Note_on_c, 3, 72, 80
1, 11999, Note_on_c, 3, 72, 0
1, 12000, Note_on_c, 3, 69, 80
1, 12179, Note_on_c, 3, 69, 0
1, 12360, Note_on_c, 3, 60, 80
1, 12399, Note_on_c, 3, 60, 0
1, 12400, Note_on_c, 3, 65, 80
1, 12439, Note_on_c, 3, 65, 0
1, 12440, Note_on_c, 3, 69, 80
1, 12479, Note_on_c, 3, 69, 0
1, 12480, Note_on_c, 3, 72, 80
1, 12659, Note_on_c, 3, 72, 0
1, 12840, Note_on_c, 3, 62, 80
1, 12879, Note_on_c, 3, 62, 0
1, 12880, Note_on_c, 3, 67, 80
1, 12919, Note_on_c, 3, 67, 0
1, 12920, Note_on_c, 3, 71, 80
1, 12959, Note_on_c, 3, 71, 0
1, 12960, Note_on_c, 3, 74, 80
1, 13199, Note_on_c, 3, 74, 0
1, 14280, Note_on_c, 3, 55, 80
1, 14319, Note_on_c, 3, 55, 0
1, 14320, Note_on_c, 3, 59, 80
1, 14359, Note_on_c, 3, 59, 0
1, 14360, Note_on_c, 3, 64, 80
1, 14399, Note_on_c, 3, 64, 0
1, 14400, Key_signature, 0, "major"
1, 14400, Note_on_c, 3, 71, 80
1, 14639, Note_on_c, 3, 71, 0
1, 14640, Note_on_c, 3, 67, 80
1, 14879, Note_on_c, 3, 67, 0
1, 14880, Note_on_c, 3, 67, 80
1, 15599, Note_on_c, 3, 67, 0
1, 15600, Note_on_c, 3, 64, 80
1, 15719, Note_on_c, 3, 64, 0
1, 15720, Note_on_c, 3, 53, 80
1, 15759, Note_on_c, 3, 53, 0
1, 15760, Note_on_c, 3, 57, 80
1, 15799, Note_on_c, 3, 57, 0
1, 15800, Note_on_c, 3, 60, 80
1, 15839, Note_on_c, 3, 60, 0
1, 15840, Note_on_c, 3, 64, 80
1, 16079, Note_on_c, 3, 64, 0
1, 17160, Note_on_c, 3, 55, 80
1, 17199, Note_on_c, 3, 55, 0
1, 17200, Note_on_c, 3, 59, 80
1, 17239, Note_on_c, 3, 59, 0
1, 17240, Note_on_c, 3, 64, 80
1, 17279, Note_on_c, 3, 64, 0
1, 17280, Note_on_c, 3, 71, 80
1, 17519, Note_on_c, 3, 71, 0
1, 17520, Note_on_c, 3, 67, 80
1, 17759, Note_on_c, 3, 67, 0
1, 17760, Note_on_c, 3, 67, 80
1, 18479, Note_on_c, 3, 67, 0
1, 18480, Note_on_c, 3, 64, 80
1, 18599, Note_on_c, 3, 64, 0
1, 18600, Note_on_c, 3, 53, 80
1, 18639, Note_on_c, 3, 53, 0
1, 18640, Note_on_c, 3, 57, 80
1, 18679, Note_on_c, 3, 57, 0
1, 18680, Note_on_c, 3, 60, 80
1, 18719, Note_on_c, 3, 60, 0
1, 18720, Note_on_c, 3, 64, 80
1, 18959, Note_on_c, 3, 64, 0
1, 20040, Note_on_c, 3, 64, 80
1, 20079, Note_on_c, 3, 64, 0
1, 20080, Note_on_c, 3, 69, 80
1, 20119, Note_on_c, 3, 69, 0
1, 20120, Note_on_c, 3, 72, 80
1, 20159, Note_on_c, 3, 72, 0
1, 20160, Note_on_c, 3, 76, 80
1, 20399, Note_on_c, 3, 76, 0
1, 20400, Note_on_c, 3, 72, 80
1, 20639, Note_on_c, 3, 72, 0
1, 20640, Note_on_c, 3, 72, 80
1, 21359, Note_on_c, 3, 72, 0
1, 21360, Note_on_c, 3, 71, 80
1, 21479, Note_on_c, 3, 71, 0
1, 21480, Note_on_c, 3, 62, 80
1, 21519, Note_on_c, 3, 62, 0
1, 21520, Note_on_c, 3, 67, 80
1, 21559, Note_on_c, 3, 67, 0
1, 21560, Note_on_c, 3, 71, 80
1, 21599, Note_on_c, 3, 71, 0
1, 21600, Note_on_c, 3, 74, 80
1, 21839, Note_on_c, 3, 74, 0
1, 21840, Note_on_c, 3, 71, 80
1, 22079, Note_on_c, 3, 71, 0
1, 22080, Note_on_c, 3, 71, 80
1, 22799, Note_on_c, 3, 71, 0
1, 22800, Note_on_c, 3, 69, 80
1, 22919, Note_on_c, 3, 69, 0
1, 22920, Note_on_c, 3, 57, 80
1, 22959, Note_on_c, 3, 57, 0
1, 22960, Note_on_c, 3, 60, 80
1, 22999, Note_on_c, 3, 60, 0
1, 23000, Note_on_c, 3, 65, 80
1, 23039, Note_on_c, 3, 65, 0
1, 23040, Note_on_c, 3, 69, 80
1, 23279, Note_on_c, 3, 69, 0
1, 23280, Note_on_c, 3, 72, 80
1, 23519, Note_on_c, 3, 72, 0
1, 23520, Note_on_c, 3, 69, 80
1, 23699, Note_on_c, 3, 69, 0
1, 23880, Note_on_c, 3, 60, 80
1, 23919, Note_on_c, 3, 60, 0
1, 23920, Note_on_c, 3, 65, 80
1, 23959, Note_on_c, 3, 65, 0
1, 23960, Note_on_c, 3, 69, 80
1, 23999, Note_on_c, 3, 69, 0
1, 24000, Note_on_c, 3, 72, 80
1, 24179, Note_on_c, 3, 72, 0
1, 24360, Note_on_c, 3, 62, 80
1, 24399, Note_on_c, 3, 62, 0
1, 24400, Note_on_c, 3, 67, 80
1, 24439, Note_on_c, 3, 67, 0
1, 24440, Note_on_c, 3, 71, 80
1, 24479, Note_on_c, 3, 71, 0
1, 24480, Note_on_c, 3, 74, 80
1, 25919, Note_on_c, 3, 74, 0
1, 25920, Note_on_c, 3, 71, 80
1, 26159, Note_on_c, 3, 71, 0
1, 26160, Note_on_c, 3, 67, 80
1, 26399, Note_on_c, 3, 67, 0
1, 26400, Note_on_c, 3, 67, 80
1, 27119, Note_on_c, 3, 67, 0
1, 27120, Note_on_c, 3, 71, 80
1, 27359, Note_on_c, 3, 71, 0
1, 27360, Note_on_c, 3, 71, 80
1, 28799, Note_on_c, 3, 71, 0
1, 28800, Note_on_c, 3, 71, 80
1, 29039, Note_on_c, 3, 71, 0
1, 29040, Note_on_c, 3, 67, 80
1, 29279, Note_on_c, 3, 67, 0
1, 29280, Note_on_c, 3, 67, 80
1, 29999, Note_on_c, 3, 67, 0
1, 30000, Note_on_c, 3, 71, 80
1, 30239, Note_on_c, 3, 71, 0
1, 30240, Note_on_c, 3, 71, 80
1, 31679, Note_on_c, 3, 71, 0
1, 31680, Note_on_c, 3, 67, 80
1, 31919, Note_on_c, 3, 67, 0
1, 31920, Note_on_c, 3, 64, 80
1, 32159, Note_on_c, 3, 64, 0
1, 32160, Note_on_c, 3, 64, 80
1, 32879, Note_on_c, 3, 64, 0
1, 32880, Note_on_c, 3, 67, 80
1, 33119, Note_on_c, 3, 67, 0
1, 33120, Note_on_c, 3, 67, 80
1, 33359, Note_on_c, 3, 67, 0
1, 33360, Note_on_c, 3, 64, 80
1, 33599, Note_on_c, 3, 64, 0
1, 33600, Note_on_c, 3, 64, 80
1, 34319, Note_on_c, 3, 64, 0
1, 34320, Note_on_c, 3, 65, 80
1, 34559, Note_on_c, 3, 65, 0
1, 34560, Note_on_c, 3, 65, 80
1, 34799, Note_on_c, 3, 65, 0
1, 34800, Note_on_c, 3, 62, 80
1, 35039, Note_on_c, 3, 62, 0
1, 35040, Note_on_c, 3, 62, 80
1, 35519, Note_on_c, 3, 62, 0
1, 35520, Note_on_c, 3, 64, 80
1, 35999, Note_on_c, 3, 64, 0
1, 36000, Note_on_c, 3, 64, 80
1, 36479, Note_on_c, 3, 64, 0
1, 36480, End_track
2, 0, Start_track
2, 0, Title_t, "Piano, Piano\000"
2, 0, Key_signature, 0, "major"
2, 0, Control_c, 1, 121, 0
2, 0, Program_c, 1, 0
2, 0, Control_c, 1, 7, 100
2, 0, Control_c, 1, 10, 64
2, 0, Control_c, 1, 91, 0
2, 0, Control_c, 1, 93, 0
2, 0, MIDI_port, 0
2, 0, Note_on_c, 1, 48, 80
2, 227, Note_on_c, 1, 48, 0
2, 240, Note_on_c, 1, 55, 80
2, 467, Note_on_c, 1, 55, 0
2, 480, Note_on_c, 1, 60, 80
2, 707, Note_on_c, 1, 60, 0
2, 720, Note_on_c, 1, 55, 80
2, 947, Note_on_c, 1, 55, 0
2, 960, Note_on_c, 1, 60, 80
2, 1187, Note_on_c, 1, 60, 0
2, 1200, Note_on_c, 1, 55, 80
2, 1427, Note_on_c, 1, 55, 0
2, 1440, Note_on_c, 1, 48, 80
2, 1667, Note_on_c, 1, 48, 0
2, 1680, Note_on_c, 1, 55, 80
2, 1907, Note_on_c, 1, 55, 0
2, 1920, Note_on_c, 1, 60, 80
2, 2147, Note_on_c, 1, 60, 0
2, 2160, Note_on_c, 1, 55, 80
2, 2387, Note_on_c, 1, 55, 0
2, 2400, Note_on_c, 1, 60, 80
2, 2627, Note_on_c, 1, 60, 0
2, 2640, Note_on_c, 1, 55, 80
2, 2867, Note_on_c, 1, 55, 0
2, 2880, Note_on_c, 1, 48, 80
2, 3107, Note_on_c, 1, 48, 0
2, 3120, Note_on_c, 1, 55, 80
2, 3347, Note_on_c, 1, 55, 0
2, 3360, Note_on_c, 1, 60, 80
2, 3587, Note_on_c, 1, 60, 0
2, 3600, Note_on_c, 1, 55, 80
2, 3827, Note_on_c, 1, 55, 0
2, 3840, Note_on_c, 1, 60, 80
2, 4067, Note_on_c, 1, 60, 0
2, 4080, Note_on_c, 1, 55, 80
2, 4307, Note_on_c, 1, 55, 0
2, 4320, Note_on_c, 1, 48, 80
2, 4471, Note_on_c, 1, 48, 0
2, 4480, Note_on_c, 1, 53, 80
2, 4631, Note_on_c, 1, 53, 0
2, 4640, Note_on_c, 1, 57, 80
2, 4791, Note_on_c, 1, 57, 0
2, 4800, Note_on_c, 1, 60, 80
2, 4951, Note_on_c, 1, 60, 0
2, 4960, Note_on_c, 1, 65, 80
2, 5111, Note_on_c, 1, 65, 0
2, 5120, Note_on_c, 1, 60, 80
2, 5271, Note_on_c, 1, 60, 0
2, 5280, Note_on_c, 1, 57, 80
2, 5431, Note_on_c, 1, 57, 0
2, 5440, Note_on_c, 1, 53, 80
2, 5591, Note_on_c, 1, 53, 0
2, 5600, Note_on_c, 1, 48, 80
2, 5751, Note_on_c, 1, 48, 0
2, 5760, Note_on_c, 1, 48, 80
2, 5987, Note_on_c, 1, 48, 0
2, 6000, Note_on_c, 1, 55, 80
2, 6227, Note_on_c, 1, 55, 0
2, 6240, Note_on_c, 1, 59, 80
2, 6467, Note_on_c, 1, 59, 0
2, 6480, Note_on_c, 1, 55, 80
2, 6707, Note_on_c, 1, 55, 0
2, 6720, Note_on_c, 1, 59, 80
2, 6947, Note_on_c, 1, 59, 0
2, 6960, Note_on_c, 1, 55, 80
2, 7187, Note_on_c, 1, 55, 0
2, 7200, Note_on_c, 1, 48, 80
2, 7351, Note_on_c, 1, 48, 0
2, 7360, Note_on_c, 1, 53, 80
2, 7511, Note_on_c, 1, 53, 0
2, 7520, Note_on_c, 1, 57, 80
2, 7671, Note_on_c, 1, 57, 0
2, 7680, Note_on_c, 1, 60, 80
2, 7831, Note_on_c, 1, 60, 0
2, 7840, Note_on_c, 1, 65, 80
2, 7991, Note_on_c, 1, 65, 0
2, 8000, Note_on_c, 1, 60, 80
2, 8151, Note_on_c, 1, 60, 0
2, 8160, Note_on_c, 1, 57, 80
2, 8311, Note_on_c, 1, 57, 0
2, 8320, Note_on_c, 1, 53, 80
2, 8471, Note_on_c, 1, 53, 0
2, 8480, Note_on_c, 1, 48, 80
2, 8631, Note_on_c, 1, 48, 0
2, 8640, Note_on_c, 1, 52, 80
2, 8867, Note_on_c, 1, 52, 0
2, 8880, Note_on_c, 1, 57, 80
2, 9107, Note_on_c, 1, 57, 0
2, 9120, Note_on_c, 1, 60, 80
2, 9347, Note_on_c, 1, 60, 0
2, 9360, Note_on_c, 1, 57, 80
2, 9587, Note_on_c, 1, 57, 0
2, 9600, Note_on_c, 1, 57, 80
2, 9600, Note_on_c, 1, 60, 80
2, 9827, Note_on_c, 1, 57, 0
2, 9827, Note_on_c, 1, 60, 0
2, 9840, Note_on_c, 1, 57, 80
2, 10067, Note_on_c, 1, 57, 0
2, 10080, Note_on_c, 1, 52, 80
2, 10307, Note_on_c, 1, 52, 0
2, 10320, Note_on_c, 1, 55, 80
2, 10547, Note_on_c, 1, 55, 0
2, 10560, Note_on_c, 1, 52, 80
2, 10787, Note_on_c, 1, 52, 0
2, 10800, Note_on_c, 1, 55, 80
2, 11027, Note_on_c, 1, 55, 0
2, 11040, Note_on_c, 1, 55, 80
2, 11040, Note_on_c, 1, 59, 80
2, 11040, Note_on_c, 1, 62, 80
2, 11267, Note_on_c, 1, 55, 0
2, 11267, Note_on_c, 1, 59, 0
2, 11267, Note_on_c, 1, 62, 0
2, 11280, Note_on_c, 1, 55, 80
2, 11507, Note_on_c, 1, 55, 0
2, 11520, Note_on_c, 1, 50, 80
2, 11747, Note_on_c, 1, 50, 0
2, 11760, Note_on_c, 1, 53, 80
2, 11987, Note_on_c, 1, 53, 0
2, 12000, Note_on_c, 1, 57, 80
2, 12227, Note_on_c, 1, 57, 0
2, 12240, Note_on_c, 1, 53, 80
2, 12467, Note_on_c, 1, 53, 0
2, 12480, Note_on_c, 1, 57, 80
2, 12707, Note_on_c, 1, 57, 0
2, 12720, Note_on_c, 1, 53, 80
2, 12947, Note_on_c, 1, 53, 0
2, 12960, Note_on_c, 1, 48, 80
2, 12960, Note_on_c, 1, 55, 80
2, 12960, Note_on_c, 1, 59, 80
2, 13187, Note_on_c, 1, 48, 0
2, 13187, Note_on_c, 1, 55, 0
2, 13187, Note_on_c, 1, 59, 0
2, 13200, Note_on_c, 1, 55, 80
2, 13427, Note_on_c, 1, 55, 0
2, 13440, Note_on_c, 1, 59, 80
2, 13667, Note_on_c, 1, 59, 0
2, 13680, Note_on_c, 1, 62, 80
2, 14135, Note_on_c, 1, 62, 0
2, 14160, Note_on_c, 1, 55, 80
2, 14387, Note_on_c, 1, 55, 0
2, 14400, Key_signature, 0, "major"
2, 14400, Note_on_c, 1, 48, 80
2, 14627, Note_on_c, 1, 48, 0
2, 14640, Note_on_c, 1, 55, 80
2, 14867, Note_on_c, 1, 55, 0
2, 14880, Note_on_c, 1, 60, 80
2, 15107, Note_on_c, 1, 60, 0
2, 15120, Note_on_c, 1, 55, 80
2, 15347, Note_on_c, 1, 55, 0
2, 15360, Note_on_c, 1, 60, 80
2, 15587, Note_on_c, 1, 60, 0
2, 15600, Note_on_c, 1, 55, 80
2, 15827, Note_on_c, 1, 55, 0
2, 15840, Note_on_c, 1, 48, 80
2, 15991, Note_on_c, 1, 48, 0
2, 16000, Note_on_c, 1, 53, 80
2, 16151, Note_on_c, 1, 53, 0
2, 16160, Note_on_c, 1, 57, 80
2, 16311, Note_on_c, 1, 57, 0
2, 16320, Note_on_c, 1, 60, 80
2, 16471, Note_on_c, 1, 60, 0
2, 16480, Note_on_c, 1, 65, 80
2, 16631, Note_on_c, 1, 65, 0
2, 16640, Note_on_c, 1, 60, 80
2, 16791, Note_on_c, 1, 60, 0
2, 16800, Note_on_c, 1, 57, 80
2, 16951, Note_on_c, 1, 57, 0
2, 16960, Note_on_c, 1, 53, 80
2, 17111, Note_on_c, 1, 53, 0
2, 17120, Note_on_c, 1, 48, 80
2, 17271, Note_on_c, 1, 48, 0
2, 17280, Note_on_c, 1, 48, 80
2, 17507, Note_on_c, 1, 48, 0
2, 17520, Note_on_c, 1, 55, 80
2, 17747, Note_on_c, 1, 55, 0
2, 17760, Note_on_c, 1, 59, 80
2, 17987, Note_on_c, 1, 59, 0
2, 18000, Note_on_c, 1, 55, 80
2, 18227, Note_on_c, 1, 55, 0
2, 18240, Note_on_c, 1, 59, 80
2, 18467, Note_on_c, 1, 59, 0
2, 18480, Note_on_c, 1, 55, 80
2, 18707, Note_on_c, 1, 55, 0
2, 18720, Note_on_c, 1, 48, 80
2, 18871, Note_on_c, 1, 48, 0
2, 18880, Note_on_c, 1, 53, 80
2, 19031, Note_on_c, 1, 53, 0
2, 19040, Note_on_c, 1, 57, 80
2, 19191, Note_on_c, 1, 57, 0
2, 19200, Note_on_c, 1, 60, 80
2, 19351, Note_on_c, 1, 60, 0
2, 19360, Note_on_c, 1, 65, 80
2, 19511, Note_on_c, 1, 65, 0
2, 19520, Note_on_c, 1, 60, 80
2, 19671, Note_on_c, 1, 60, 0
2, 19680, Note_on_c, 1, 57, 80
2, 19831, Note_on_c, 1, 57, 0
2, 19840, Note_on_c, 1, 53, 80
2, 19991, Note_on_c, 1, 53, 0
2, 20000, Note_on_c, 1, 48, 80
2, 20151, Note_on_c, 1, 48, 0
2, 20160, Note_on_c, 1, 52, 80
2, 20387, Note_on_c, 1, 52, 0
2, 20400, Note_on_c, 1, 57, 80
2, 20627, Note_on_c, 1, 57, 0
2, 20640, Note_on_c, 1, 60, 80
2, 20867, Note_on_c, 1, 60, 0
2, 20880, Note_on_c, 1, 57, 80
2, 21107, Note_on_c, 1, 57, 0
2, 21120, Note_on_c, 1, 57, 80
2, 21120, Note_on_c, 1, 60, 80
2, 21347, Note_on_c, 1, 57, 0
2, 21347, Note_on_c, 1, 60, 0
2, 21360, Note_on_c, 1, 57, 80
2, 21587, Note_on_c, 1, 57, 0
2, 21600, Note_on_c, 1, 52, 80
2, 21827, Note_on_c, 1, 52, 0
2, 21840, Note_on_c, 1, 55, 80
2, 22067, Note_on_c, 1, 55, 0
2, 22080, Note_on_c, 1, 52, 80
2, 22307, Note_on_c, 1, 52, 0
2, 22320, Note_on_c, 1, 55, 80
2, 22547, Note_on_c, 1, 55, 0
2, 22560, Note_on_c, 1, 55, 80
2, 22560, Note_on_c, 1, 59, 80
2, 22560, Note_on_c, 1, 62, 80
2, 22787, Note_on_c, 1, 55, 0
2, 22787, Note_on_c, 1, 59, 0
2, 22787, Note_on_c, 1, 62, 0
2, 22800, Note_on_c, 1, 55, 80
2, 23027, Note_on_c, 1, 55, 0
2, 23040, Note_on_c, 1, 50, 80
2, 23267, Note_on_c, 1, 50, 0
2, 23280, Note_on_c, 1, 53, 80
2, 23507, Note_on_c, 1, 53, 0
2, 23520, Note_on_c, 1, 57, 80
2, 23747, Note_on_c, 1, 57, 0
2, 23760, Note_on_c, 1, 53, 80
2, 23987, Note_on_c, 1, 53, 0
2, 24000, Note_on_c, 1, 57, 80
2, 24227, Note_on_c, 1, 57, 0
2, 24240, Note_on_c, 1, 53, 80
2, 24467, Note_on_c, 1, 53, 0
2, 24480, Note_on_c, 1, 55, 80
2, 24480, Note_on_c, 1, 59, 80
2, 24480, Note_on_c, 1, 62, 80
2, 24707, Note_on_c, 1, 55, 0
2, 24707, Note_on_c, 1, 59, 0
2, 24707, Note_on_c, 1, 62, 0
2, 24720, Note_on_c, 1, 55, 80
2, 24947, Note_on_c, 1, 55, 0
2, 24960, Note_on_c, 1, 59, 80
2, 25187, Note_on_c, 1, 59, 0
2, 25200, Note_on_c, 1, 62, 80
2, 25655, Note_on_c, 1, 62, 0
2, 25680, Note_on_c, 1, 55, 80
2, 25907, Note_on_c, 1, 55, 0
2, 25920, Note_on_c, 1, 55, 80
2, 25920, Note_on_c, 1, 59, 80
2, 25920, Note_on_c, 1, 64, 80
2, 27287, Note_on_c, 1, 55, 0
2, 27287, Note_on_c, 1, 59, 0
2, 27287, Note_on_c, 1, 64, 0
2, 27360, Note_on_c, 1, 53, 80
2, 27360, Note_on_c, 1, 57, 80
2, 27360, Note_on_c, 1, 60, 80
2, 28727, Note_on_c, 1, 53, 0
2, 28727, Note_on_c, 1, 57, 0
2, 28727, Note_on_c, 1, 60, 0
2, 28800, Note_on_c, 1, 55, 80
2, 28800, Note_on_c, 1, 59, 80
2, 28800, Note_on_c, 1, 64, 80
2, 30167, Note_on_c, 1, 55, 0
2, 30167, Note_on_c, 1, 59, 0
2, 30167, Note_on_c, 1, 64, 0
2, 30240, Note_on_c, 1, 53, 80
2, 30240, Note_on_c, 1, 57, 80
2, 30240, Note_on_c, 1, 60, 80
2, 31607, Note_on_c, 1, 53, 0
2, 31607, Note_on_c, 1, 57, 0
2, 31607, Note_on_c, 1, 60, 0
2, 31680, Note_on_c, 1, 52, 80
2, 31680, Note_on_c, 1, 55, 80
2, 31680, Note_on_c, 1, 62, 80
2, 32591, Note_on_c, 1, 52, 0
2, 32591, Note_on_c, 1, 55, 0
2, 32591, Note_on_c, 1, 62, 0
2, 32640, Note_on_c, 1, 57, 80
2, 32640, Note_on_c, 1, 60, 80
2, 32640, Note_on_c, 1, 64, 80
2, 33095, Note_on_c, 1, 57, 0
2, 33095, Note_on_c, 1, 60, 0
2, 33095, Note_on_c, 1, 64, 0
2, 33120, Note_on_c, 1, 52, 80
2, 33120, Note_on_c, 1, 55, 80
2, 33120, Note_on_c, 1, 59, 80
2, 33120, Note_on_c, 1, 62, 80
2, 33575, Note_on_c, 1, 52, 0
2, 33575, Note_on_c, 1, 55, 0
2, 33575, Note_on_c, 1, 59, 0
2, 33575, Note_on_c, 1, 62, 0
2, 34080, Note_on_c, 1, 52, 80
2, 34080, Note_on_c, 1, 55, 80
2, 34080, Note_on_c, 1, 59, 80
2, 34535, Note_on_c, 1, 52, 0
2, 34535, Note_on_c, 1, 55, 0
2, 34535, Note_on_c, 1, 59, 0
2, 34560, Note_on_c, 1, 53, 80
2, 34560, Note_on_c, 1, 57, 80
2, 34560, Note_on_c, 1, 60, 80
2, 35927, Note_on_c, 1, 53, 0
2, 35927, Note_on_c, 1, 57, 0
2, 35927, Note_on_c, 1, 60, 0
2, 36000, Note_on_c, 1, 48, 80
2, 36000, Note_on_c, 1, 55, 80
2, 36000, Note_on_c, 1, 60, 80
2, 36455, Note_on_c, 1, 48, 0
2, 36455, Note_on_c, 1, 55, 0
2, 36455, Note_on_c, 1, 60, 0
2, 36456, End_track
3, 0, Start_track
3, 0, Title_t, "Electric Bass, Bass\000"
3, 0, Key_signature, 0, "major"
3, 0, Control_c, 2, 121, 0
3, 0, Program_c, 2, 33
3, 0, Control_c, 2, 7, 100
3, 0, Control_c, 2, 10, 64
3, 0, Control_c, 2, 91, 0
3, 0, Control_c, 2, 93, 0
3, 0, MIDI_port, 0
3, 0, Control_c, 4, 121, 0
3, 0, Program_c, 4, 36
3, 0, Control_c, 4, 7, 100
3, 0, Control_c, 4, 10, 64
3, 0, Control_c, 4, 91, 0
3, 0, Control_c, 4, 93, 0
3, 0, MIDI_port, 0
3, 0, Control_c, 5, 121, 0
3, 0, Program_c, 5, 37
3, 0, Control_c, 5, 7, 100
3, 0, Control_c, 5, 10, 64
3, 0, Control_c, 5, 91, 0
3, 0, Control_c, 5, 93, 0
3, 0, MIDI_port, 0
3, 2880, Note_on_c, 2, 60, 80
3, 4319, Note_on_c, 2, 60, 0
3, 4320, Note_on_c, 2, 53, 80
3, 5759, Note_on_c, 2, 53, 0
3, 5760, Note_on_c, 2, 60, 80
3, 7199, Note_on_c, 2, 60, 0
3, 7200, Note_on_c, 2, 53, 80
3, 8639, Note_on_c, 2, 53, 0
3, 8640, Note_on_c, 2, 57, 80
3, 9599, Note_on_c, 2, 57, 0
3, 9600, Note_on_c, 2, 53, 80
3, 10079, Note_on_c, 2, 53, 0
3, 10080, Note_on_c, 2, 52, 80
3, 11039, Note_on_c, 2, 52, 0
3, 11040, Note_on_c, 2, 52, 80
3, 11519, Note_on_c, 2, 52, 0
3, 11520, Note_on_c, 2, 50, 80
3, 12959, Note_on_c, 2, 50, 0
3, 12960, Note_on_c, 2, 48, 80
3, 14399, Note_on_c, 2, 48, 0
3, 14400, Key_signature, 0, "major"
3, 14400, Note_on_c, 2, 60, 80
3, 15839, Note_on_c, 2, 60, 0
3, 15840, Note_on_c, 2, 53, 80
3, 17279, Note_on_c, 2, 53, 0
3, 17280, Note_on_c, 2, 60, 80
3, 18719, Note_on_c, 2, 60, 0
3, 18720, Note_on_c, 2, 53, 80
3, 20159, Note_on_c, 2, 53, 0
3, 20160, Note_on_c, 2, 57, 80
3, 21119, Note_on_c, 2, 57, 0
3, 21120, Note_on_c, 2, 53, 80
3, 21599, Note_on_c, 2, 53, 0
3, 21600, Note_on_c, 2, 52, 80
3, 22559, Note_on_c, 2, 52, 0
3, 22560, Note_on_c, 2, 52, 80
3, 23039, Note_on_c, 2, 52, 0
3, 23040, Note_on_c, 2, 50, 80
3, 24479, Note_on_c, 2, 50, 0
3, 24480, Note_on_c, 2, 48, 80
3, 25919, Note_on_c, 2, 48, 0
3, 25920, Note_on_c, 2, 60, 80
3, 27359, Note_on_c, 2, 60, 0
3, 27360, Note_on_c, 2, 53, 80
3, 28799, Note_on_c, 2, 53, 0
3, 28800, Note_on_c, 2, 60, 80
3, 30239, Note_on_c, 2, 60, 0
3, 30240, Note_on_c, 2, 53, 80
3, 31679, Note_on_c, 2, 53, 0
3, 31680, Note_on_c, 2, 52, 80
3, 32639, Note_on_c, 2, 52, 0
3, 32640, Note_on_c, 2, 50, 80
3, 33119, Note_on_c, 2, 50, 0
3, 33120, Note_on_c, 2, 57, 80
3, 34079, Note_on_c, 2, 57, 0
3, 34080, Note_on_c, 2, 57, 80
3, 34559, Note_on_c, 2, 57, 0
3, 34560, Note_on_c, 2, 50, 80
3, 35999, Note_on_c, 2, 50, 0
3, 36000, Note_on_c, 2, 60, 80
3, 36479, Note_on_c, 2, 60, 0
3, 36480, End_track
4, 0, Start_track
4, 0, Title_t, "Chimes, Bell\000"
4, 0, Key_signature, 0, "major"
4, 0, Control_c, 0, 121, 0
4, 0, Program_c, 0, 14
4, 0, Control_c, 0, 7, 100
4, 0, Control_c, 0, 10, 64
4, 0, Control_c, 0, 91, 0
4, 0, Control_c, 0, 93, 0
4, 0, MIDI_port, 0
4, 14400, Key_signature, 0, "major"
4, 16320, Note_on_c, 0, 76, 64
4, 16479, Note_on_c, 0, 76, 0
4, 16480, Note_on_c, 0, 72, 64
4, 16639, Note_on_c, 0, 72, 0
4, 16640, Note_on_c, 0, 74, 64
4, 16799, Note_on_c, 0, 74, 0
4, 16800, Note_on_c, 0, 71, 64
4, 16959, Note_on_c, 0, 71, 0
4, 16960, Note_on_c, 0, 72, 64
4, 17119, Note_on_c, 0, 72, 0
4, 17120, Note_on_c, 0, 69, 64
4, 17279, Note_on_c, 0, 69, 0
4, 19200, Note_on_c, 0, 76, 64
4, 19359, Note_on_c, 0, 76, 0
4, 19360, Note_on_c, 0, 72, 64
4, 19519, Note_on_c, 0, 72, 0
4, 19520, Note_on_c, 0, 74, 64
4, 19679, Note_on_c, 0, 74, 0
4, 19680, Note_on_c, 0, 71, 64
4, 19839, Note_on_c, 0, 71, 0
4, 19840, Note_on_c, 0, 72, 64
4, 19999, Note_on_c, 0, 72, 0
4, 20000, Note_on_c, 0, 69, 64
4, 20159, Note_on_c, 0, 69, 0
4, 25920, Note_on_c, 0, 71, 64
4, 26159, Note_on_c, 0, 71, 0
4, 26160, Note_on_c, 0, 67, 64
4, 26399, Note_on_c, 0, 67, 0
4, 26400, Note_on_c, 0, 67, 64
4, 27119, Note_on_c, 0, 67, 0
4, 27120, Note_on_c, 0, 71, 64
4, 27359, Note_on_c, 0, 71, 0
4, 27360, Note_on_c, 0, 71, 64
4, 28799, Note_on_c, 0, 71, 0
4, 28800, Note_on_c, 0, 71, 64
4, 29039, Note_on_c, 0, 71, 0
4, 29040, Note_on_c, 0, 67, 64
4, 29279, Note_on_c, 0, 67, 0
4, 29280, Note_on_c, 0, 67, 64
4, 29999, Note_on_c, 0, 67, 0
4, 30000, Note_on_c, 0, 71, 64
4, 30239, Note_on_c, 0, 71, 0
4, 30240, Note_on_c, 0, 71, 64
4, 31679, Note_on_c, 0, 71, 0
4, 31680, Note_on_c, 0, 67, 64
4, 31919, Note_on_c, 0, 67, 0
4, 31920, Note_on_c, 0, 64, 64
4, 32159, Note_on_c, 0, 64, 0
4, 32160, Note_on_c, 0, 64, 64
4, 32879, Note_on_c, 0, 64, 0
4, 32880, Note_on_c, 0, 67, 64
4, 33119, Note_on_c, 0, 67, 0
4, 33120, Note_on_c, 0, 67, 64
4, 33359, Note_on_c, 0, 67, 0
4, 33360, Note_on_c, 0, 64, 64
4, 33599, Note_on_c, 0, 64, 0
4, 33600, Note_on_c, 0, 64, 64
4, 34319, Note_on_c, 0, 64, 0
4, 34320, Note_on_c, 0, 65, 64
4, 34559, Note_on_c, 0, 65, 0
4, 34560, Note_on_c, 0, 65, 64
4, 34799, Note_on_c, 0, 65, 0
4, 34800, Note_on_c, 0, 62, 64
4, 35039, Note_on_c, 0, 62, 0
4, 35040, Note_on_c, 0, 62, 64
4, 35519, Note_on_c, 0, 62, 0
4, 35520, Note_on_c, 0, 64, 64
4, 35999, Note_on_c, 0, 64, 0
4, 36000, Note_on_c, 0, 60, 64
4, 36479, Note_on_c, 0, 60, 0
4, 36480, End_track
0, 0, End_of_file
