0, 0, Header, 1, 5, 480
1, 0, Start_track
1, 0, Title_t, "Harmonica, Harmonica 1\000"
1, 0, Time_signature, 6, 3, 24, 8
1, 0, Key_signature, 0, "major"
1, 0, Tempo, 769231
1, 0, Control_c, 1, 121, 0
1, 0, Program_c, 1, 0
1, 0, Control_c, 1, 7, 100
1, 0, Control_c, 1, 10, 64
1, 0, Control_c, 1, 91, 0
1, 0, Control_c, 1, 93, 0
1, 0, MIDI_port, 0
1, 2, Control_c, 1, 64, 127
1, 240, Note_on_c, 1, 64, 80
1, 240, Control_c, 1, 2, 80
1, 240, Note_on_c, 1, 67, 80
1, 359, Note_on_c, 1, 64, 0
1, 359, Note_on_c, 1, 67, 0
1, 360, Note_on_c, 1, 69, 80
1, 479, Note_on_c, 1, 69, 0
1, 480, Note_on_c, 1, 64, 80
1, 480, Note_on_c, 1, 67, 80
1, 719, Note_on_c, 1, 64, 0
1, 719, Note_on_c, 1, 67, 0
1, 960, Note_on_c, 1, 76, 80
1, 960, Control_c, 1, 2, 80
1, 1199, Note_on_c, 1, 76, 0
1, 1200, Note_on_c, 1, 74, 80
1, 1200, Control_c, 1, 2, 80
1, 1439, Note_on_c, 1, 74, 0
1, 1680, Note_on_c, 1, 64, 80
1, 1680, Control_c, 1, 2, 80
1, 1680, Note_on_c, 1, 67, 80
1, 1799, Note_on_c, 1, 64, 0
1, 1799, Note_on_c, 1, 67, 0
1, 1800, Note_on_c, 1, 69, 80
1, 1919, Note_on_c, 1, 69, 0
1, 1920, Note_on_c, 1, 64, 80
1, 1920, Note_on_c, 1, 67, 80
1, 2159, Note_on_c, 1, 64, 0
1, 2159, Note_on_c, 1, 67, 0
1, 2400, Note_on_c, 1, 64, 80
1, 2400, Control_c, 1, 2, 80
1, 2639, Note_on_c, 1, 64, 0
1, 2640, Note_on_c, 1, 62, 80
1, 2640, Control_c, 1, 2, 80
1, 2879, Note_on_c, 1, 62, 0
1, 3120, Note_on_c, 1, 64, 80
1, 3120, Control_c, 1, 2, 80
1, 3120, Note_on_c, 1, 67, 80
1, 3239, Note_on_c, 1, 64, 0
1, 3239, Note_on_c, 1, 67, 0
1, 3240, Note_on_c, 1, 69, 80
1, 3359, Note_on_c, 1, 69, 0
1, 3360, Note_on_c, 1, 64, 80
1, 3360, Note_on_c, 1, 67, 80
1, 3599, Note_on_c, 1, 64, 0
1, 3599, Note_on_c, 1, 67, 0
1, 3840, Note_on_c, 1, 76, 80
1, 3840, Control_c, 1, 2, 80
1, 4079, Note_on_c, 1, 76, 0
1, 4080, Note_on_c, 1, 74, 80
1, 4080, Control_c, 1, 2, 80
1, 4319, Note_on_c, 1, 74, 0
1, 4560, Note_on_c, 1, 64, 80
1, 4560, Control_c, 1, 2, 80
1, 4560, Note_on_c, 1, 67, 80
1, 4679, Note_on_c, 1, 64, 0
1, 4679, Note_on_c, 1, 67, 0
1, 4680, Note_on_c, 1, 69, 80
1, 4799, Note_on_c, 1, 69, 0
1, 4800, Note_on_c, 1, 64, 80
1, 4800, Note_on_c, 1, 67, 80
1, 5039, Note_on_c, 1, 64, 0
1, 5039, Note_on_c, 1, 67, 0
1, 5760, Note_on_c, 1, 64, 80
1, 5760, Control_c, 1, 2, 80
1, 6239, Note_on_c, 1, 64, 0
1, 6240, Note_on_c, 1, 67, 80
1, 6240, Control_c, 1, 2, 80
1, 6479, Note_on_c, 1, 67, 0
1, 6480, Note_on_c, 1, 69, 80
1, 6480, Control_c, 1, 2, 80
1, 6959, Note_on_c, 1, 69, 0
1, 6960, Note_on_c, 1, 72, 80
1, 6960, Control_c, 1, 2, 80
1, 7199, Note_on_c, 1, 72, 0
1, 7200, Note_on_c, 1, 71, 80
1, 7200, Control_c, 1, 2, 80
1, 7679, Note_on_c, 1, 71, 0
1, 7680, Note_on_c, 1, 65, 80
1, 7680, Control_c, 1, 2, 80
1, 7919, Note_on_c, 1, 65, 0
1, 7920, Note_on_c, 1, 69, 80
1, 7920, Control_c, 1, 2, 80
1, 8639, Note_on_c, 1, 69, 0
1, 8640, Note_on_c, 1, 71, 80
1, 8640, Control_c, 1, 2, 80
1, 9119, Note_on_c, 1, 71, 0
1, 9120, Note_on_c, 1, 65, 80
1, 9120, Control_c, 1, 2, 80
1, 9359, Note_on_c, 1, 65, 0
1, 9360, Note_on_c, 1, 69, 80
1, 9360, Control_c, 1, 2, 80
1, 9839, Note_on_c, 1, 69, 0
1, 9840, Note_on_c, 1, 72, 80
1, 9840, Control_c, 1, 2, 80
1, 10079, Note_on_c, 1, 72, 0
1, 10080, Note_on_c, 1, 71, 80
1, 10080, Control_c, 1, 2, 80
1, 10559, Note_on_c, 1, 71, 0
1, 10560, Note_on_c, 1, 69, 80
1, 10560, Control_c, 1, 2, 80
1, 10799, Note_on_c, 1, 69, 0
1, 10800, Note_on_c, 1, 69, 80
1, 10800, Control_c, 1, 2, 80
1, 11519, Note_on_c, 1, 69, 0
1, 11520, Note_on_c, 1, 65, 80
1, 11520, Control_c, 1, 2, 80
1, 11999, Note_on_c, 1, 65, 0
1, 12000, Note_on_c, 1, 69, 80
1, 12000, Control_c, 1, 2, 80
1, 12239, Note_on_c, 1, 69, 0
1, 12240, Note_on_c, 1, 71, 80
1, 12240, Control_c, 1, 2, 80
1, 12719, Note_on_c, 1, 71, 0
1, 12720, Note_on_c, 1, 74, 80
1, 12720, Control_c, 1, 2, 80
1, 12959, Note_on_c, 1, 74, 0
1, 12960, Note_on_c, 1, 72, 80
1, 12960, Control_c, 1, 2, 80
1, 13439, Note_on_c, 1, 72, 0
1, 13440, Note_on_c, 1, 69, 80
1, 13440, Control_c, 1, 2, 80
1, 13679, Note_on_c, 1, 69, 0
1, 13680, Note_on_c, 1, 71, 80
1, 13680, Control_c, 1, 2, 80
1, 14399, Note_on_c, 1, 71, 0
1, 14400, Note_on_c, 1, 72, 80
1, 14400, Control_c, 1, 2, 80
1, 14879, Note_on_c, 1, 72, 0
1, 14880, Note_on_c, 1, 69, 80
1, 14880, Control_c, 1, 2, 80
1, 15119, Note_on_c, 1, 69, 0
1, 15120, Note_on_c, 1, 71, 80
1, 15120, Control_c, 1, 2, 80
1, 15599, Note_on_c, 1, 71, 0
1, 15600, Note_on_c, 1, 74, 80
1, 15600, Control_c, 1, 2, 80
1, 15839, Note_on_c, 1, 74, 0
1, 15840, Note_on_c, 1, 72, 80
1, 15840, Control_c, 1, 2, 80
1, 16319, Note_on_c, 1, 72, 0
1, 16320, Note_on_c, 1, 69, 80
1, 16320, Control_c, 1, 2, 80
1, 16559, Note_on_c, 1, 69, 0
1, 16560, Note_on_c, 1, 69, 80
1, 16560, Control_c, 1, 2, 80
1, 17279, Note_on_c, 1, 69, 0
1, 17280, Note_on_c, 1, 64, 80
1, 17280, Control_c, 1, 2, 80
1, 17759, Note_on_c, 1, 64, 0
1, 17760, Note_on_c, 1, 67, 80
1, 17760, Control_c, 1, 2, 80
1, 17999, Note_on_c, 1, 67, 0
1, 18000, Note_on_c, 1, 69, 80
1, 18000, Control_c, 1, 2, 80
1, 18479, Note_on_c, 1, 69, 0
1, 18480, Note_on_c, 1, 72, 80
1, 18480, Control_c, 1, 2, 80
1, 18719, Note_on_c, 1, 72, 0
1, 18720, Note_on_c, 1, 71, 80
1, 18720, Control_c, 1, 2, 80
1, 19199, Note_on_c, 1, 71, 0
1, 19200, Note_on_c, 1, 69, 80
1, 19200, Control_c, 1, 2, 80
1, 19439, Note_on_c, 1, 69, 0
1, 19440, Note_on_c, 1, 69, 80
1, 19440, Control_c, 1, 2, 80
1, 20159, Note_on_c, 1, 69, 0
1, 23040, Note_on_c, 1, 76, 80
1, 23040, Control_c, 1, 2, 80
1, 23519, Note_on_c, 1, 76, 0
1, 23520, Note_on_c, 1, 74, 80
1, 23520, Control_c, 1, 2, 80
1, 23759, Note_on_c, 1, 74, 0
1, 23760, Note_on_c, 1, 77, 80
1, 23760, Control_c, 1, 2, 80
1, 24239, Note_on_c, 1, 77, 0
1, 24240, Note_on_c, 1, 76, 80
1, 24240, Control_c, 1, 2, 80
1, 24479, Note_on_c, 1, 76, 0
1, 24480, Note_on_c, 1, 74, 80
1, 24480, Control_c, 1, 2, 80
1, 24959, Note_on_c, 1, 74, 0
1, 24960, Note_on_c, 1, 72, 80
1, 24960, Control_c, 1, 2, 80
1, 25199, Note_on_c, 1, 72, 0
1, 25200, Note_on_c, 1, 76, 80
1, 25200, Control_c, 1, 2, 80
1, 25679, Note_on_c, 1, 76, 0
1, 25680, Note_on_c, 1, 71, 80
1, 25680, Control_c, 1, 2, 80
1, 25919, Note_on_c, 1, 71, 0
1, 25920, Note_on_c, 1, 69, 80
1, 25920, Control_c, 1, 2, 80
1, 26399, Note_on_c, 1, 69, 0
1, 26400, Note_on_c, 1, 71, 80
1, 26400, Control_c, 1, 2, 80
1, 26639, Note_on_c, 1, 71, 0
1, 26640, Note_on_c, 1, 67, 80
1, 26640, Control_c, 1, 2, 80
1, 27119, Note_on_c, 1, 67, 0
1, 27120, Note_on_c, 1, 74, 80
1, 27120, Control_c, 1, 2, 80
1, 27359, Note_on_c, 1, 74, 0
1, 27360, Note_on_c, 1, 72, 80
1, 27360, Control_c, 1, 2, 80
1, 28079, Note_on_c, 1, 72, 0
1, 28080, Note_on_c, 1, 69, 80
1, 28080, Control_c, 1, 2, 80
1, 28159, Note_on_c, 1, 69, 0
1, 28240, Note_on_c, 1, 69, 80
1, 28240, Control_c, 1, 2, 80
1, 28319, Note_on_c, 1, 69, 0
1, 28320, Note_on_c, 1, 67, 80
1, 28559, Note_on_c, 1, 67, 0
1, 28560, Note_on_c, 1, 65, 80
1, 28560, Control_c, 1, 2, 80
1, 28619, Note_on_c, 1, 65, 0
1, 28720, Note_on_c, 1, 55, 80
1, 28720, Control_c, 1, 2, 80
1, 28759, Note_on_c, 1, 55, 0
1, 28760, Note_on_c, 1, 60, 80
1, 28799, Note_on_c, 1, 60, 0
1, 28800, Note_on_c, 1, 64, 80
1, 29279, Note_on_c, 1, 64, 0
1, 29280, Note_on_c, 1, 67, 80
1, 29280, Control_c, 1, 2, 80
1, 29339, Note_on_c, 1, 67, 0
1, 29440, Note_on_c, 1, 60, 80
1, 29440, Control_c, 1, 2, 80
1, 29479, Note_on_c, 1, 60, 0
1, 29480, Note_on_c, 1, 64, 80
1, 29519, Note_on_c, 1, 64, 0
1, 29520, Note_on_c, 1, 69, 80
1, 29999, Note_on_c, 1, 69, 0
1, 30000, Note_on_c, 1, 72, 80
1, 30000, Control_c, 1, 2, 80
1, 30059, Note_on_c, 1, 72, 0
1, 30160, Note_on_c, 1, 62, 80
1, 30160, Control_c, 1, 2, 80
1, 30199, Note_on_c, 1, 62, 0
1, 30200, Note_on_c, 1, 67, 80
1, 30239, Note_on_c, 1, 67, 0
1, 30240, Note_on_c, 1, 71, 80
1, 30719, Note_on_c, 1, 71, 0
1, 30720, Note_on_c, 1, 65, 80
1, 30720, Control_c, 1, 2, 80
1, 30779, Note_on_c, 1, 65, 0
1, 30880, Note_on_c, 1, 62, 80
1, 30880, Control_c, 1, 2, 80
1, 30919, Note_on_c, 1, 62, 0
1, 30920, Note_on_c, 1, 65, 80
1, 30959, Note_on_c, 1, 65, 0
1, 30960, Note_on_c, 1, 69, 80
1, 31199, Note_on_c, 1, 69, 0
1, 31600, Note_on_c, 1, 62, 80
1, 31600, Control_c, 1, 2, 80
1, 31639, Note_on_c, 1, 62, 0
1, 31640, Note_on_c, 1, 65, 80
1, 31679, Note_on_c, 1, 65, 0
1, 31680, Note_on_c, 1, 71, 80
1, 32159, Note_on_c, 1, 71, 0
1, 32160, Note_on_c, 1, 65, 80
1, 32160, Control_c, 1, 2, 80
1, 32279, Note_on_c, 1, 65, 0
1, 32320, Note_on_c, 1, 62, 80
1, 32320, Control_c, 1, 2, 80
1, 32359, Note_on_c, 1, 62, 0
1, 32360, Note_on_c, 1, 65, 80
1, 32399, Note_on_c, 1, 65, 0
1, 32400, Note_on_c, 1, 69, 80
1, 32879, Note_on_c, 1, 69, 0
1, 32880, Note_on_c, 1, 72, 80
1, 32880, Control_c, 1, 2, 80
1, 32999, Note_on_c, 1, 72, 0
1, 33040, Note_on_c, 1, 64, 80
1, 33040, Control_c, 1, 2, 80
1, 33079, Note_on_c, 1, 64, 0
1, 33080, Note_on_c, 1, 67, 80
1, 33119, Note_on_c, 1, 67, 0
1, 33120, Note_on_c, 1, 71, 80
1, 33599, Note_on_c, 1, 71, 0
1, 33600, Note_on_c, 1, 69, 80
1, 33600, Control_c, 1, 2, 80
1, 33719, Note_on_c, 1, 69, 0
1, 33760, Note_on_c, 1, 60, 80
1, 33760, Control_c, 1, 2, 80
1, 33799, Note_on_c, 1, 60, 0
1, 33800, Note_on_c, 1, 64, 80
1, 33839, Note_on_c, 1, 64, 0
1, 33840, Note_on_c, 1, 69, 80
1, 34079, Note_on_c, 1, 69, 0
1, 34480, Note_on_c, 1, 55, 80
1, 34480, Control_c, 1, 2, 80
1, 34519, Note_on_c, 1, 55, 0
1, 34520, Note_on_c, 1, 60, 80
1, 34559, Note_on_c, 1, 60, 0
1, 34560, Note_on_c, 1, 65, 80
1, 35039, Note_on_c, 1, 65, 0
1, 35040, Note_on_c, 1, 69, 80
1, 35040, Control_c, 1, 2, 80
1, 35159, Note_on_c, 1, 69, 0
1, 35200, Note_on_c, 1, 62, 80
1, 35200, Control_c, 1, 2, 80
1, 35239, Note_on_c, 1, 62, 0
1, 35240, Note_on_c, 1, 67, 80
1, 35279, Note_on_c, 1, 67, 0
1, 35280, Note_on_c, 1, 71, 80
1, 35759, Note_on_c, 1, 71, 0
1, 35760, Note_on_c, 1, 74, 80
1, 35760, Control_c, 1, 2, 80
1, 35819, Note_on_c, 1, 74, 0
1, 35920, Note_on_c, 1, 65, 80
1, 35920, Control_c, 1, 2, 80
1, 35959, Note_on_c, 1, 65, 0
1, 35960, Note_on_c, 1, 69, 80
1, 35999, Note_on_c, 1, 69, 0
1, 36000, Note_on_c, 1, 72, 80
1, 36479, Note_on_c, 1, 72, 0
1, 36480, Note_on_c, 1, 69, 80
1, 36480, Control_c, 1, 2, 80
1, 36599, Note_on_c, 1, 69, 0
1, 36640, Note_on_c, 1, 62, 80
1, 36640, Control_c, 1, 2, 80
1, 36679, Note_on_c, 1, 62, 0
1, 36680, Note_on_c, 1, 67, 80
1, 36719, Note_on_c, 1, 67, 0
1, 36720, Note_on_c, 1, 71, 80
1, 36959, Note_on_c, 1, 71, 0
1, 37360, Note_on_c, 1, 65, 80
1, 37360, Control_c, 1, 2, 80
1, 37399, Note_on_c, 1, 65, 0
1, 37400, Note_on_c, 1, 69, 80
1, 37439, Note_on_c, 1, 69, 0
1, 37440, Note_on_c, 1, 72, 80
1, 37919, Note_on_c, 1, 72, 0
1, 37920, Note_on_c, 1, 69, 80
1, 37920, Control_c, 1, 2, 80
1, 38039, Note_on_c, 1, 69, 0
1, 38080, Note_on_c, 1, 62, 80
1, 38080, Control_c, 1, 2, 80
1, 38119, Note_on_c, 1, 62, 0
1, 38120, Note_on_c, 1, 67, 80
1, 38159, Note_on_c, 1, 67, 0
1, 38160, Note_on_c, 1, 71, 80
1, 38639, Note_on_c, 1, 71, 0
1, 38640, Note_on_c, 1, 74, 80
1, 38640, Control_c, 1, 2, 80
1, 38759, Note_on_c, 1, 74, 0
1, 38800, Note_on_c, 1, 64, 80
1, 38800, Control_c, 1, 2, 80
1, 38839, Note_on_c, 1, 64, 0
1, 38840, Note_on_c, 1, 67, 80
1, 38879, Note_on_c, 1, 67, 0
1, 38880, Note_on_c, 1, 72, 80
1, 39359, Note_on_c, 1, 72, 0
1, 39360, Note_on_c, 1, 69, 80
1, 39360, Control_c, 1, 2, 80
1, 39419, Note_on_c, 1, 69, 0
1, 39520, Note_on_c, 1, 60, 80
1, 39520, Control_c, 1, 2, 80
1, 39559, Note_on_c, 1, 60, 0
1, 39560, Note_on_c, 1, 64, 80
1, 39599, Note_on_c, 1, 64, 0
1, 39600, Note_on_c, 1, 69, 80
1, 39839, Note_on_c, 1, 69, 0
1, 40240, Note_on_c, 1, 55, 80
1, 40240, Control_c, 1, 2, 80
1, 40279, Note_on_c, 1, 55, 0
1, 40280, Note_on_c, 1, 60, 80
1, 40319, Note_on_c, 1, 60, 0
1, 40320, Note_on_c, 1, 64, 80
1, 40799, Note_on_c, 1, 64, 0
1, 40800, Note_on_c, 1, 67, 80
1, 40800, Control_c, 1, 2, 80
1, 40919, Note_on_c, 1, 67, 0
1, 40960, Note_on_c, 1, 60, 80
1, 40960, Control_c, 1, 2, 80
1, 40999, Note_on_c, 1, 60, 0
1, 41000, Note_on_c, 1, 64, 80
1, 41039, Note_on_c, 1, 64, 0
1, 41040, Note_on_c, 1, 69, 80
1, 41519, Note_on_c, 1, 69, 0
1, 41520, Note_on_c, 1, 72, 80
1, 41520, Control_c, 1, 2, 80
1, 41639, Note_on_c, 1, 72, 0
1, 41680, Note_on_c, 1, 64, 80
1, 41680, Control_c, 1, 2, 80
1, 41719, Note_on_c, 1, 64, 0
1, 41720, Note_on_c, 1, 67, 80
1, 41759, Note_on_c, 1, 67, 0
1, 41760, Note_on_c, 1, 71, 80
1, 42239, Note_on_c, 1, 71, 0
1, 42240, Note_on_c, 1, 69, 80
1, 42240, Control_c, 1, 2, 80
1, 42359, Note_on_c, 1, 69, 0
1, 42400, Note_on_c, 1, 60, 80
1, 42400, Control_c, 1, 2, 80
1, 42439, Note_on_c, 1, 60, 0
1, 42440, Note_on_c, 1, 64, 80
1, 42479, Note_on_c, 1, 64, 0
1, 42480, Note_on_c, 1, 69, 80
1, 42719, Note_on_c, 1, 69, 0
1, 43120, Note_on_c, 1, 60, 80
1, 43120, Control_c, 1, 2, 80
1, 43159, Note_on_c, 1, 60, 0
1, 43160, Note_on_c, 1, 64, 80
1, 43199, Note_on_c, 1, 64, 0
1, 43200, Note_on_c, 1, 67, 80
1, 43679, Note_on_c, 1, 67, 0
1, 43680, Note_on_c, 1, 69, 80
1, 43680, Control_c, 1, 2, 80
1, 43799, Note_on_c, 1, 69, 0
1, 43840, Note_on_c, 1, 64, 80
1, 43840, Control_c, 1, 2, 80
1, 43879, Note_on_c, 1, 64, 0
1, 43880, Note_on_c, 1, 67, 80
1, 43919, Note_on_c, 1, 67, 0
1, 43920, Note_on_c, 1, 72, 80
1, 44399, Note_on_c, 1, 72, 0
1, 44400, Note_on_c, 1, 76, 80
1, 44400, Control_c, 1, 2, 80
1, 44519, Note_on_c, 1, 76, 0
1, 44560, Note_on_c, 1, 65, 80
1, 44560, Control_c, 1, 2, 80
1, 44599, Note_on_c, 1, 65, 0
1, 44600, Note_on_c, 1, 69, 80
1, 44639, Note_on_c, 1, 69, 0
1, 44640, Note_on_c, 1, 74, 80
1, 44880, Note_on_c, 1, 76, 80
1, 44880, Control_c, 1, 2, 80
1, 45119, Note_on_c, 1, 74, 0
1, 45120, Note_on_c, 1, 74, 80
1, 45120, Control_c, 1, 2, 80
1, 45179, Note_on_c, 1, 74, 0
1, 45280, Note_on_c, 1, 65, 80
1, 45280, Control_c, 1, 2, 80
1, 45319, Note_on_c, 1, 65, 0
1, 45320, Note_on_c, 1, 69, 80
1, 45359, Note_on_c, 1, 76, 0
1, 45359, Note_on_c, 1, 69, 0
1, 45360, Note_on_c, 1, 74, 80
1, 45599, Note_on_c, 1, 74, 0
1, 46000, Note_on_c, 1, 69, 80
1, 46000, Control_c, 1, 2, 80
1, 46039, Note_on_c, 1, 69, 0
1, 46040, Note_on_c, 1, 72, 80
1, 46079, Note_on_c, 1, 72, 0
1, 46080, Note_on_c, 1, 76, 80
1, 46559, Note_on_c, 1, 76, 0
1, 46560, Note_on_c, 1, 74, 80
1, 46560, Control_c, 1, 2, 80
1, 46679, Note_on_c, 1, 74, 0
1, 46720, Note_on_c, 1, 69, 80
1, 46720, Control_c, 1, 2, 80
1, 46759, Note_on_c, 1, 69, 0
1, 46760, Note_on_c, 1, 72, 80
1, 46799, Note_on_c, 1, 72, 0
1, 46800, Note_on_c, 1, 77, 80
1, 47279, Note_on_c, 1, 77, 0
1, 47280, Note_on_c, 1, 76, 80
1, 47280, Control_c, 1, 2, 80
1, 47399, Note_on_c, 1, 76, 0
1, 47440, Note_on_c, 1, 64, 80
1, 47440, Control_c, 1, 2, 80
1, 47479, Note_on_c, 1, 64, 0
1, 47480, Note_on_c, 1, 67, 80
1, 47519, Note_on_c, 1, 67, 0
1, 47520, Note_on_c, 1, 74, 80
1, 47999, Note_on_c, 1, 74, 0
1, 48000, Note_on_c, 1, 72, 80
1, 48000, Control_c, 1, 2, 80
1, 48119, Note_on_c, 1, 72, 0
1, 48160, Note_on_c, 1, 69, 80
1, 48160, Control_c, 1, 2, 80
1, 48199, Note_on_c, 1, 69, 0
1, 48200, Note_on_c, 1, 72, 80
1, 48239, Note_on_c, 1, 72, 0
1, 48240, Note_on_c, 1, 76, 80
1, 48719, Note_on_c, 1, 76, 0
1, 48720, Note_on_c, 1, 71, 80
1, 48720, Control_c, 1, 2, 80
1, 48839, Note_on_c, 1, 71, 0
1, 48880, Note_on_c, 1, 60, 80
1, 48880, Control_c, 1, 2, 80
1, 48919, Note_on_c, 1, 60, 0
1, 48920, Note_on_c, 1, 65, 80
1, 48959, Note_on_c, 1, 65, 0
1, 48960, Note_on_c, 1, 69, 80
1, 49439, Note_on_c, 1, 69, 0
1, 49440, Note_on_c, 1, 71, 80
1, 49440, Control_c, 1, 2, 80
1, 49559, Note_on_c, 1, 71, 0
1, 49600, Note_on_c, 1, 59, 80
1, 49600, Control_c, 1, 2, 80
1, 49639, Note_on_c, 1, 59, 0
1, 49640, Note_on_c, 1, 62, 80
1, 49679, Note_on_c, 1, 62, 0
1, 49680, Note_on_c, 1, 67, 80
1, 50159, Note_on_c, 1, 67, 0
1, 50160, Note_on_c, 1, 74, 80
1, 50160, Control_c, 1, 2, 80
1, 50279, Note_on_c, 1, 74, 0
1, 50320, Note_on_c, 1, 64, 80
1, 50320, Control_c, 1, 2, 80
1, 50359, Note_on_c, 1, 64, 0
1, 50360, Note_on_c, 1, 67, 80
1, 50399, Note_on_c, 1, 67, 0
1, 50400, Note_on_c, 1, 72, 80
1, 50639, Note_on_c, 1, 72, 0
1, 50640, Note_on_c, 1, 71, 80
1, 50640, Control_c, 1, 2, 80
1, 50879, Note_on_c, 1, 71, 0
1, 50880, Note_on_c, 1, 69, 80
1, 50880, Control_c, 1, 2, 80
1, 50999, Note_on_c, 1, 69, 0
1, 51040, Note_on_c, 1, 65, 80
1, 51040, Control_c, 1, 2, 80
1, 51079, Note_on_c, 1, 65, 0
1, 51080, Note_on_c, 1, 69, 80
1, 51119, Note_on_c, 1, 69, 0
1, 51120, Note_on_c, 1, 74, 80
1, 51359, Note_on_c, 1, 74, 0
1, 51360, Note_on_c, 1, 72, 80
1, 51360, Control_c, 1, 2, 80
1, 51599, Note_on_c, 1, 72, 0
1, 51600, Note_on_c, 1, 71, 80
1, 51600, Control_c, 1, 2, 80
1, 51839, Note_on_c, 1, 71, 0
1, 51840, Note_on_c, 1, 64, 80
1, 51840, Control_c, 1, 2, 80
1, 52319, Note_on_c, 1, 64, 0
1, 52320, Note_on_c, 1, 67, 80
1, 52320, Control_c, 1, 2, 80
1, 52559, Note_on_c, 1, 67, 0
1, 52560, Note_on_c, 1, 69, 80
1, 52560, Control_c, 1, 2, 80
1, 53039, Note_on_c, 1, 69, 0
1, 53040, Note_on_c, 1, 72, 80
1, 53040, Control_c, 1, 2, 80
1, 53279, Note_on_c, 1, 72, 0
1, 53280, Note_on_c, 1, 71, 80
1, 53280, Control_c, 1, 2, 80
1, 53759, Note_on_c, 1, 71, 0
1, 53760, Note_on_c, 1, 69, 80
1, 53760, Control_c, 1, 2, 80
1, 53999, Note_on_c, 1, 69, 0
1, 54000, Note_on_c, 1, 69, 80
1, 54000, Control_c, 1, 2, 80
1, 54719, Note_on_c, 1, 69, 0
1, 54720, Note_on_c, 1, 67, 80
1, 54720, Control_c, 1, 2, 80
1, 55199, Note_on_c, 1, 67, 0
1, 55200, Note_on_c, 1, 69, 80
1, 55200, Control_c, 1, 2, 80
1, 55439, Note_on_c, 1, 69, 0
1, 55440, Note_on_c, 1, 72, 80
1, 55440, Control_c, 1, 2, 80
1, 55919, Note_on_c, 1, 72, 0
1, 55920, Note_on_c, 1, 76, 80
1, 55920, Control_c, 1, 2, 80
1, 56159, Note_on_c, 1, 76, 0
1, 56160, Note_on_c, 1, 74, 80
1, 56160, Control_c, 1, 2, 80
1, 56400, Note_on_c, 1, 76, 80
1, 56400, Control_c, 1, 2, 80
1, 56639, Note_on_c, 1, 74, 0
1, 56640, Note_on_c, 1, 74, 80
1, 56640, Control_c, 1, 2, 80
1, 56879, Note_on_c, 1, 76, 0
1, 56879, Note_on_c, 1, 74, 0
1, 56880, Note_on_c, 1, 74, 80
1, 56880, Control_c, 1, 2, 80
1, 57599, Note_on_c, 1, 74, 0
1, 57600, Note_on_c, 1, 76, 80
1, 57600, Control_c, 1, 2, 80
1, 58079, Note_on_c, 1, 76, 0
1, 58080, Note_on_c, 1, 74, 80
1, 58080, Control_c, 1, 2, 80
1, 58319, Note_on_c, 1, 74, 0
1, 58320, Note_on_c, 1, 77, 80
1, 58320, Control_c, 1, 2, 80
1, 58799, Note_on_c, 1, 77, 0
1, 58800, Note_on_c, 1, 76, 80
1, 58800, Control_c, 1, 2, 80
1, 59039, Note_on_c, 1, 76, 0
1, 59040, Note_on_c, 1, 74, 80
1, 59040, Control_c, 1, 2, 80
1, 59519, Note_on_c, 1, 74, 0
1, 59520, Note_on_c, 1, 72, 80
1, 59520, Control_c, 1, 2, 80
1, 59759, Note_on_c, 1, 72, 0
1, 59760, Note_on_c, 1, 76, 80
1, 59760, Control_c, 1, 2, 80
1, 60239, Note_on_c, 1, 76, 0
1, 60240, Note_on_c, 1, 71, 80
1, 60240, Control_c, 1, 2, 80
1, 60479, Note_on_c, 1, 71, 0
1, 60480, Note_on_c, 1, 69, 80
1, 60480, Control_c, 1, 2, 80
1, 60959, Note_on_c, 1, 69, 0
1, 60960, Note_on_c, 1, 71, 80
1, 60960, Control_c, 1, 2, 80
1, 61199, Note_on_c, 1, 71, 0
1, 61200, Note_on_c, 1, 67, 80
1, 61200, Control_c, 1, 2, 80
1, 61679, Note_on_c, 1, 67, 0
1, 61680, Note_on_c, 1, 74, 80
1, 61680, Control_c, 1, 2, 80
1, 61919, Note_on_c, 1, 74, 0
1, 61920, Note_on_c, 1, 72, 80
1, 61920, Control_c, 1, 2, 80
1, 62639, Note_on_c, 1, 72, 0
1, 63360, Note_on_c, 1, 76, 80
1, 63360, Control_c, 1, 2, 80
1, 63839, Note_on_c, 1, 76, 0
1, 63840, Note_on_c, 1, 74, 80
1, 63840, Control_c, 1, 2, 80
1, 64079, Note_on_c, 1, 74, 0
1, 64080, Note_on_c, 1, 77, 80
1, 64080, Control_c, 1, 2, 80
1, 64559, Note_on_c, 1, 77, 0
1, 64560, Note_on_c, 1, 76, 80
1, 64560, Control_c, 1, 2, 80
1, 64799, Note_on_c, 1, 76, 0
1, 64800, Note_on_c, 1, 74, 80
1, 64800, Control_c, 1, 2, 80
1, 65279, Note_on_c, 1, 74, 0
1, 65280, Note_on_c, 1, 72, 80
1, 65280, Control_c, 1, 2, 80
1, 65519, Note_on_c, 1, 72, 0
1, 65520, Note_on_c, 1, 76, 80
1, 65520, Control_c, 1, 2, 80
1, 65999, Note_on_c, 1, 76, 0
1, 66000, Note_on_c, 1, 71, 80
1, 66000, Control_c, 1, 2, 80
1, 66239, Note_on_c, 1, 71, 0
1, 66240, Note_on_c, 1, 69, 80
1, 66240, Control_c, 1, 2, 80
1, 66719, Note_on_c, 1, 69, 0
1, 66720, Note_on_c, 1, 71, 80
1, 66720, Control_c, 1, 2, 80
1, 66959, Note_on_c, 1, 71, 0
1, 66960, Note_on_c, 1, 67, 80
1, 66960, Control_c, 1, 2, 80
1, 67439, Note_on_c, 1, 67, 0
1, 67440, Note_on_c, 1, 74, 80
1, 67440, Control_c, 1, 2, 80
1, 67679, Note_on_c, 1, 74, 0
1, 67680, Note_on_c, 1, 72, 80
1, 67680, Control_c, 1, 2, 80
1, 68399, Note_on_c, 1, 72, 0
1, 70560, Control_c, 1, 64, 0
1, 70561, End_track
2, 0, Start_track
2, 0, Title_t, "Harmonica, Harmonica 2\000"
2, 0, Key_signature, 0, "major"
2, 0, Control_c, 2, 121, 0
2, 0, Program_c, 2, 22
2, 0, Control_c, 2, 7, 100
2, 0, Control_c, 2, 10, 64
2, 0, Control_c, 2, 91, 0
2, 0, Control_c, 2, 93, 0
2, 0, MIDI_port, 0
2, 2, Control_c, 2, 64, 127
2, 28800, Note_on_c, 2, 48, 80
2, 28800, Control_c, 2, 2, 80
2, 29039, Note_on_c, 2, 48, 0
2, 29040, Note_on_c, 2, 60, 80
2, 29040, Control_c, 2, 2, 80
2, 29040, Note_on_c, 2, 64, 80
2, 29519, Note_on_c, 2, 60, 0
2, 29519, Note_on_c, 2, 64, 0
2, 29520, Note_on_c, 2, 55, 80
2, 29520, Control_c, 2, 2, 80
2, 29759, Note_on_c, 2, 55, 0
2, 29760, Note_on_c, 2, 60, 80
2, 29760, Control_c, 2, 2, 80
2, 29760, Note_on_c, 2, 64, 80
2, 30239, Note_on_c, 2, 60, 0
2, 30239, Note_on_c, 2, 64, 0
2, 30240, Note_on_c, 2, 50, 80
2, 30240, Control_c, 2, 2, 80
2, 30479, Note_on_c, 2, 50, 0
2, 30480, Note_on_c, 2, 62, 80
2, 30480, Control_c, 2, 2, 80
2, 30480, Note_on_c, 2, 65, 80
2, 30959, Note_on_c, 2, 62, 0
2, 30959, Note_on_c, 2, 65, 0
2, 30960, Note_on_c, 2, 55, 80
2, 30960, Control_c, 2, 2, 80
2, 31199, Note_on_c, 2, 55, 0
2, 31200, Note_on_c, 2, 62, 80
2, 31200, Control_c, 2, 2, 80
2, 31200, Note_on_c, 2, 65, 80
2, 31679, Note_on_c, 2, 62, 0
2, 31679, Note_on_c, 2, 65, 0
2, 31680, Note_on_c, 2, 50, 80
2, 31680, Control_c, 2, 2, 80
2, 31919, Note_on_c, 2, 50, 0
2, 31920, Note_on_c, 2, 62, 80
2, 31920, Control_c, 2, 2, 80
2, 31920, Note_on_c, 2, 65, 80
2, 32399, Note_on_c, 2, 62, 0
2, 32399, Note_on_c, 2, 65, 0
2, 32400, Note_on_c, 2, 55, 80
2, 32400, Control_c, 2, 2, 80
2, 32639, Note_on_c, 2, 55, 0
2, 32640, Note_on_c, 2, 62, 80
2, 32640, Control_c, 2, 2, 80
2, 32640, Note_on_c, 2, 65, 80
2, 33119, Note_on_c, 2, 62, 0
2, 33119, Note_on_c, 2, 65, 0
2, 33120, Note_on_c, 2, 48, 80
2, 33120, Control_c, 2, 2, 80
2, 33359, Note_on_c, 2, 48, 0
2, 33360, Note_on_c, 2, 60, 80
2, 33360, Control_c, 2, 2, 80
2, 33360, Note_on_c, 2, 64, 80
2, 33839, Note_on_c, 2, 60, 0
2, 33839, Note_on_c, 2, 64, 0
2, 33840, Note_on_c, 2, 55, 80
2, 33840, Control_c, 2, 2, 80
2, 34079, Note_on_c, 2, 55, 0
2, 34080, Note_on_c, 2, 60, 80
2, 34080, Control_c, 2, 2, 80
2, 34080, Note_on_c, 2, 64, 80
2, 34559, Note_on_c, 2, 60, 0
2, 34559, Note_on_c, 2, 64, 0
2, 34560, Note_on_c, 2, 50, 80
2, 34560, Control_c, 2, 2, 80
2, 34799, Note_on_c, 2, 50, 0
2, 34800, Note_on_c, 2, 62, 80
2, 34800, Control_c, 2, 2, 80
2, 34800, Note_on_c, 2, 65, 80
2, 35279, Note_on_c, 2, 62, 0
2, 35279, Note_on_c, 2, 65, 0
2, 35280, Note_on_c, 2, 55, 80
2, 35280, Control_c, 2, 2, 80
2, 35519, Note_on_c, 2, 55, 0
2, 35520, Note_on_c, 2, 62, 80
2, 35520, Control_c, 2, 2, 80
2, 35520, Note_on_c, 2, 67, 80
2, 35999, Note_on_c, 2, 62, 0
2, 35999, Note_on_c, 2, 67, 0
2, 36000, Note_on_c, 2, 50, 80
2, 36000, Control_c, 2, 2, 80
2, 36239, Note_on_c, 2, 50, 0
2, 36240, Note_on_c, 2, 62, 80
2, 36240, Control_c, 2, 2, 80
2, 36240, Note_on_c, 2, 65, 80
2, 36719, Note_on_c, 2, 62, 0
2, 36719, Note_on_c, 2, 65, 0
2, 36720, Note_on_c, 2, 55, 80
2, 36720, Control_c, 2, 2, 80
2, 36959, Note_on_c, 2, 55, 0
2, 36960, Note_on_c, 2, 62, 80
2, 36960, Control_c, 2, 2, 80
2, 36960, Note_on_c, 2, 67, 80
2, 37439, Note_on_c, 2, 62, 0
2, 37439, Note_on_c, 2, 67, 0
2, 37440, Note_on_c, 2, 50, 80
2, 37440, Control_c, 2, 2, 80
2, 37679, Note_on_c, 2, 50, 0
2, 37680, Note_on_c, 2, 62, 80
2, 37680, Control_c, 2, 2, 80
2, 37680, Note_on_c, 2, 65, 80
2, 38159, Note_on_c, 2, 62, 0
2, 38159, Note_on_c, 2, 65, 0
2, 38160, Note_on_c, 2, 55, 80
2, 38160, Control_c, 2, 2, 80
2, 38399, Note_on_c, 2, 55, 0
2, 38400, Note_on_c, 2, 62, 80
2, 38400, Control_c, 2, 2, 80
2, 38400, Note_on_c, 2, 67, 80
2, 38879, Note_on_c, 2, 62, 0
2, 38879, Note_on_c, 2, 67, 0
2, 38880, Note_on_c, 2, 48, 80
2, 38880, Control_c, 2, 2, 80
2, 39119, Note_on_c, 2, 48, 0
2, 39120, Note_on_c, 2, 64, 80
2, 39120, Control_c, 2, 2, 80
2, 39120, Note_on_c, 2, 67, 80
2, 39599, Note_on_c, 2, 64, 0
2, 39599, Note_on_c, 2, 67, 0
2, 39600, Note_on_c, 2, 55, 80
2, 39600, Control_c, 2, 2, 80
2, 39839, Note_on_c, 2, 55, 0
2, 39840, Note_on_c, 2, 64, 80
2, 39840, Control_c, 2, 2, 80
2, 39840, Note_on_c, 2, 67, 80
2, 40319, Note_on_c, 2, 64, 0
2, 40319, Note_on_c, 2, 67, 0
2, 40320, Note_on_c, 2, 48, 80
2, 40320, Control_c, 2, 2, 80
2, 40559, Note_on_c, 2, 48, 0
2, 40560, Note_on_c, 2, 60, 80
2, 40560, Control_c, 2, 2, 80
2, 40560, Note_on_c, 2, 64, 80
2, 41039, Note_on_c, 2, 60, 0
2, 41039, Note_on_c, 2, 64, 0
2, 41040, Note_on_c, 2, 55, 80
2, 41040, Control_c, 2, 2, 80
2, 41279, Note_on_c, 2, 55, 0
2, 41280, Note_on_c, 2, 60, 80
2, 41280, Control_c, 2, 2, 80
2, 41280, Note_on_c, 2, 64, 80
2, 41759, Note_on_c, 2, 60, 0
2, 41759, Note_on_c, 2, 64, 0
2, 41760, Note_on_c, 2, 48, 80
2, 41760, Control_c, 2, 2, 80
2, 41999, Note_on_c, 2, 48, 0
2, 42000, Note_on_c, 2, 60, 80
2, 42000, Control_c, 2, 2, 80
2, 42000, Note_on_c, 2, 64, 80
2, 42479, Note_on_c, 2, 60, 0
2, 42479, Note_on_c, 2, 64, 0
2, 42480, Note_on_c, 2, 55, 80
2, 42480, Control_c, 2, 2, 80
2, 42719, Note_on_c, 2, 55, 0
2, 42720, Note_on_c, 2, 60, 80
2, 42720, Control_c, 2, 2, 80
2, 42720, Note_on_c, 2, 64, 80
2, 43199, Note_on_c, 2, 60, 0
2, 43199, Note_on_c, 2, 64, 0
2, 43200, Note_on_c, 2, 48, 80
2, 43200, Control_c, 2, 2, 80
2, 43439, Note_on_c, 2, 48, 0
2, 43440, Note_on_c, 2, 60, 80
2, 43440, Control_c, 2, 2, 80
2, 43440, Note_on_c, 2, 64, 80
2, 43919, Note_on_c, 2, 60, 0
2, 43919, Note_on_c, 2, 64, 0
2, 43920, Note_on_c, 2, 55, 80
2, 43920, Control_c, 2, 2, 80
2, 44159, Note_on_c, 2, 55, 0
2, 44160, Note_on_c, 2, 60, 80
2, 44160, Control_c, 2, 2, 80
2, 44160, Note_on_c, 2, 64, 80
2, 44639, Note_on_c, 2, 60, 0
2, 44639, Note_on_c, 2, 64, 0
2, 44640, Note_on_c, 2, 53, 80
2, 44640, Control_c, 2, 2, 80
2, 44879, Note_on_c, 2, 53, 0
2, 44880, Note_on_c, 2, 60, 80
2, 44880, Control_c, 2, 2, 80
2, 44880, Note_on_c, 2, 65, 80
2, 45359, Note_on_c, 2, 60, 0
2, 45359, Note_on_c, 2, 65, 0
2, 45360, Note_on_c, 2, 48, 80
2, 45360, Control_c, 2, 2, 80
2, 45599, Note_on_c, 2, 48, 0
2, 45600, Note_on_c, 2, 60, 80
2, 45600, Control_c, 2, 2, 80
2, 45600, Note_on_c, 2, 65, 80
2, 46079, Note_on_c, 2, 60, 0
2, 46079, Note_on_c, 2, 65, 0
2, 46080, Note_on_c, 2, 53, 80
2, 46080, Control_c, 2, 2, 80
2, 46319, Note_on_c, 2, 53, 0
2, 46320, Note_on_c, 2, 65, 80
2, 46320, Control_c, 2, 2, 80
2, 46320, Note_on_c, 2, 69, 80
2, 46799, Note_on_c, 2, 65, 0
2, 46799, Note_on_c, 2, 69, 0
2, 46800, Note_on_c, 2, 48, 80
2, 46800, Control_c, 2, 2, 80
2, 47039, Note_on_c, 2, 48, 0
2, 47040, Note_on_c, 2, 60, 80
2, 47040, Control_c, 2, 2, 80
2, 47040, Note_on_c, 2, 65, 80
2, 47519, Note_on_c, 2, 60, 0
2, 47519, Note_on_c, 2, 65, 0
2, 47520, Note_on_c, 2, 52, 80
2, 47520, Control_c, 2, 2, 80
2, 47759, Note_on_c, 2, 52, 0
2, 47760, Note_on_c, 2, 64, 80
2, 47760, Control_c, 2, 2, 80
2, 47760, Note_on_c, 2, 67, 80
2, 48239, Note_on_c, 2, 64, 0
2, 48239, Note_on_c, 2, 67, 0
2, 48240, Note_on_c, 2, 57, 80
2, 48240, Control_c, 2, 2, 80
2, 48479, Note_on_c, 2, 57, 0
2, 48480, Note_on_c, 2, 64, 80
2, 48480, Control_c, 2, 2, 80
2, 48480, Note_on_c, 2, 67, 80
2, 48959, Note_on_c, 2, 64, 0
2, 48959, Note_on_c, 2, 67, 0
2, 48960, Note_on_c, 2, 53, 80
2, 48960, Control_c, 2, 2, 80
2, 49199, Note_on_c, 2, 53, 0
2, 49200, Note_on_c, 2, 65, 80
2, 49200, Control_c, 2, 2, 80
2, 49200, Note_on_c, 2, 69, 80
2, 49679, Note_on_c, 2, 65, 0
2, 49679, Note_on_c, 2, 69, 0
2, 49680, Note_on_c, 2, 55, 80
2, 49680, Control_c, 2, 2, 80
2, 49919, Note_on_c, 2, 55, 0
2, 49920, Note_on_c, 2, 65, 80
2, 49920, Control_c, 2, 2, 80
2, 49920, Note_on_c, 2, 69, 80
2, 50399, Note_on_c, 2, 65, 0
2, 50399, Note_on_c, 2, 69, 0
2, 50400, Note_on_c, 2, 48, 80
2, 50400, Control_c, 2, 2, 80
2, 50639, Note_on_c, 2, 48, 0
2, 50640, Note_on_c, 2, 64, 80
2, 50640, Control_c, 2, 2, 80
2, 50640, Note_on_c, 2, 67, 80
2, 50879, Note_on_c, 2, 64, 0
2, 50879, Note_on_c, 2, 67, 0
2, 50880, Note_on_c, 2, 64, 80
2, 50880, Control_c, 2, 2, 80
2, 50880, Note_on_c, 2, 67, 80
2, 51119, Note_on_c, 2, 64, 0
2, 51119, Note_on_c, 2, 67, 0
2, 51120, Note_on_c, 2, 50, 80
2, 51120, Control_c, 2, 2, 80
2, 51359, Note_on_c, 2, 50, 0
2, 51360, Note_on_c, 2, 65, 80
2, 51360, Control_c, 2, 2, 80
2, 51360, Note_on_c, 2, 69, 80
2, 51599, Note_on_c, 2, 65, 0
2, 51599, Note_on_c, 2, 69, 0
2, 51600, Note_on_c, 2, 65, 80
2, 51600, Control_c, 2, 2, 80
2, 51600, Note_on_c, 2, 69, 80
2, 51839, Note_on_c, 2, 65, 0
2, 51839, Note_on_c, 2, 69, 0
2, 51840, Note_on_c, 2, 48, 80
2, 51840, Control_c, 2, 2, 80
2, 52079, Note_on_c, 2, 48, 0
2, 52080, Note_on_c, 2, 60, 80
2, 52080, Control_c, 2, 2, 80
2, 52080, Note_on_c, 2, 64, 80
2, 52559, Note_on_c, 2, 60, 0
2, 52559, Note_on_c, 2, 64, 0
2, 52560, Note_on_c, 2, 55, 80
2, 52560, Control_c, 2, 2, 80
2, 52799, Note_on_c, 2, 55, 0
2, 52800, Note_on_c, 2, 60, 80
2, 52800, Control_c, 2, 2, 80
2, 52800, Note_on_c, 2, 64, 80
2, 53279, Note_on_c, 2, 60, 0
2, 53279, Note_on_c, 2, 64, 0
2, 53280, Note_on_c, 2, 48, 80
2, 53280, Control_c, 2, 2, 80
2, 53519, Note_on_c, 2, 48, 0
2, 53520, Note_on_c, 2, 60, 80
2, 53520, Control_c, 2, 2, 80
2, 53520, Note_on_c, 2, 64, 80
2, 53999, Note_on_c, 2, 60, 0
2, 53999, Note_on_c, 2, 64, 0
2, 54000, Note_on_c, 2, 55, 80
2, 54000, Control_c, 2, 2, 80
2, 54239, Note_on_c, 2, 55, 0
2, 54240, Note_on_c, 2, 60, 80
2, 54240, Control_c, 2, 2, 80
2, 54240, Note_on_c, 2, 64, 80
2, 54719, Note_on_c, 2, 60, 0
2, 54719, Note_on_c, 2, 64, 0
2, 54720, Note_on_c, 2, 48, 80
2, 54720, Control_c, 2, 2, 80
2, 54959, Note_on_c, 2, 48, 0
2, 54960, Note_on_c, 2, 60, 80
2, 54960, Control_c, 2, 2, 80
2, 54960, Note_on_c, 2, 64, 80
2, 55439, Note_on_c, 2, 60, 0
2, 55439, Note_on_c, 2, 64, 0
2, 55440, Note_on_c, 2, 55, 80
2, 55440, Control_c, 2, 2, 80
2, 55679, Note_on_c, 2, 55, 0
2, 55680, Note_on_c, 2, 60, 80
2, 55680, Control_c, 2, 2, 80
2, 55680, Note_on_c, 2, 64, 80
2, 56159, Note_on_c, 2, 60, 0
2, 56159, Note_on_c, 2, 64, 0
2, 56160, Note_on_c, 2, 53, 80
2, 56160, Control_c, 2, 2, 80
2, 56399, Note_on_c, 2, 53, 0
2, 56400, Note_on_c, 2, 60, 80
2, 56400, Control_c, 2, 2, 80
2, 56400, Note_on_c, 2, 65, 80
2, 56879, Note_on_c, 2, 60, 0
2, 56879, Note_on_c, 2, 65, 0
2, 56880, Note_on_c, 2, 48, 80
2, 56880, Control_c, 2, 2, 80
2, 57119, Note_on_c, 2, 48, 0
2, 57120, Note_on_c, 2, 60, 80
2, 57120, Control_c, 2, 2, 80
2, 57120, Note_on_c, 2, 65, 80
2, 57599, Note_on_c, 2, 60, 0
2, 57599, Note_on_c, 2, 65, 0
2, 57600, Note_on_c, 2, 53, 80
2, 57600, Control_c, 2, 2, 80
2, 57839, Note_on_c, 2, 53, 0
2, 57840, Note_on_c, 2, 65, 80
2, 57840, Control_c, 2, 2, 80
2, 57840, Note_on_c, 2, 69, 80
2, 58319, Note_on_c, 2, 65, 0
2, 58319, Note_on_c, 2, 69, 0
2, 58320, Note_on_c, 2, 48, 80
2, 58320, Control_c, 2, 2, 80
2, 58559, Note_on_c, 2, 48, 0
2, 58560, Note_on_c, 2, 60, 80
2, 58560, Control_c, 2, 2, 80
2, 58560, Note_on_c, 2, 65, 80
2, 59039, Note_on_c, 2, 60, 0
2, 59039, Note_on_c, 2, 65, 0
2, 59040, Note_on_c, 2, 52, 80
2, 59040, Control_c, 2, 2, 80
2, 59279, Note_on_c, 2, 52, 0
2, 59280, Note_on_c, 2, 64, 80
2, 59280, Control_c, 2, 2, 80
2, 59280, Note_on_c, 2, 67, 80
2, 59759, Note_on_c, 2, 64, 0
2, 59759, Note_on_c, 2, 67, 0
2, 59760, Note_on_c, 2, 57, 80
2, 59760, Control_c, 2, 2, 80
2, 59999, Note_on_c, 2, 57, 0
2, 60000, Note_on_c, 2, 64, 80
2, 60000, Control_c, 2, 2, 80
2, 60000, Note_on_c, 2, 67, 80
2, 60479, Note_on_c, 2, 64, 0
2, 60479, Note_on_c, 2, 67, 0
2, 60480, Note_on_c, 2, 53, 80
2, 60480, Control_c, 2, 2, 80
2, 60719, Note_on_c, 2, 53, 0
2, 60720, Note_on_c, 2, 65, 80
2, 60720, Control_c, 2, 2, 80
2, 60720, Note_on_c, 2, 69, 80
2, 61199, Note_on_c, 2, 65, 0
2, 61199, Note_on_c, 2, 69, 0
2, 61200, Note_on_c, 2, 55, 80
2, 61200, Control_c, 2, 2, 80
2, 61439, Note_on_c, 2, 55, 0
2, 61440, Note_on_c, 2, 65, 80
2, 61440, Control_c, 2, 2, 80
2, 61440, Note_on_c, 2, 69, 80
2, 61919, Note_on_c, 2, 65, 0
2, 61919, Note_on_c, 2, 69, 0
2, 61920, Note_on_c, 2, 48, 80
2, 61920, Control_c, 2, 2, 80
2, 62159, Note_on_c, 2, 48, 0
2, 62160, Note_on_c, 2, 64, 80
2, 62160, Control_c, 2, 2, 80
2, 62160, Note_on_c, 2, 67, 80
2, 62399, Note_on_c, 2, 64, 0
2, 62399, Note_on_c, 2, 67, 0
2, 62400, Note_on_c, 2, 64, 80
2, 62400, Control_c, 2, 2, 80
2, 62400, Note_on_c, 2, 67, 80
2, 62639, Note_on_c, 2, 64, 0
2, 62639, Note_on_c, 2, 67, 0
2, 62640, Note_on_c, 2, 48, 80
2, 62640, Control_c, 2, 2, 80
2, 62879, Note_on_c, 2, 48, 0
2, 62880, Note_on_c, 2, 64, 80
2, 62880, Control_c, 2, 2, 80
2, 62880, Note_on_c, 2, 67, 80
2, 63119, Note_on_c, 2, 64, 0
2, 63119, Note_on_c, 2, 67, 0
2, 63120, Note_on_c, 2, 64, 80
2, 63120, Control_c, 2, 2, 80
2, 63120, Note_on_c, 2, 67, 80
2, 63359, Note_on_c, 2, 64, 0
2, 63359, Note_on_c, 2, 67, 0
2, 63360, Note_on_c, 2, 53, 80
2, 63360, Control_c, 2, 2, 80
2, 63599, Note_on_c, 2, 53, 0
2, 63600, Note_on_c, 2, 60, 80
2, 63600, Control_c, 2, 2, 80
2, 63600, Note_on_c, 2, 65, 80
2, 64079, Note_on_c, 2, 60, 0
2, 64079, Note_on_c, 2, 65, 0
2, 64080, Note_on_c, 2, 48, 80
2, 64080, Control_c, 2, 2, 80
2, 64319, Note_on_c, 2, 48, 0
2, 64320, Note_on_c, 2, 60, 80
2, 64320, Control_c, 2, 2, 80
2, 64320, Note_on_c, 2, 65, 80
2, 64799, Note_on_c, 2, 60, 0
2, 64799, Note_on_c, 2, 65, 0
2, 64800, Note_on_c, 2, 52, 80
2, 64800, Control_c, 2, 2, 80
2, 65039, Note_on_c, 2, 52, 0
2, 65040, Note_on_c, 2, 64, 80
2, 65040, Control_c, 2, 2, 80
2, 65040, Note_on_c, 2, 67, 80
2, 65519, Note_on_c, 2, 64, 0
2, 65519, Note_on_c, 2, 67, 0
2, 65520, Note_on_c, 2, 57, 80
2, 65520, Control_c, 2, 2, 80
2, 65759, Note_on_c, 2, 57, 0
2, 65760, Note_on_c, 2, 64, 80
2, 65760, Control_c, 2, 2, 80
2, 65760, Note_on_c, 2, 67, 80
2, 66239, Note_on_c, 2, 64, 0
2, 66239, Note_on_c, 2, 67, 0
2, 66240, Note_on_c, 2, 53, 80
2, 66240, Control_c, 2, 2, 80
2, 66479, Note_on_c, 2, 53, 0
2, 66480, Note_on_c, 2, 65, 80
2, 66480, Control_c, 2, 2, 80
2, 66480, Note_on_c, 2, 69, 80
2, 66959, Note_on_c, 2, 65, 0
2, 66959, Note_on_c, 2, 69, 0
2, 66960, Note_on_c, 2, 55, 80
2, 66960, Control_c, 2, 2, 80
2, 67199, Note_on_c, 2, 55, 0
2, 67200, Note_on_c, 2, 65, 80
2, 67200, Control_c, 2, 2, 80
2, 67200, Note_on_c, 2, 69, 80
2, 67679, Note_on_c, 2, 65, 0
2, 67679, Note_on_c, 2, 69, 0
2, 67680, Note_on_c, 2, 48, 80
2, 67680, Control_c, 2, 2, 80
2, 67919, Note_on_c, 2, 48, 0
2, 67920, Note_on_c, 2, 64, 80
2, 67920, Control_c, 2, 2, 80
2, 67920, Note_on_c, 2, 67, 80
2, 68159, Note_on_c, 2, 64, 0
2, 68159, Note_on_c, 2, 67, 0
2, 68160, Note_on_c, 2, 64, 80
2, 68160, Control_c, 2, 2, 80
2, 68160, Note_on_c, 2, 67, 80
2, 68399, Note_on_c, 2, 64, 0
2, 68399, Note_on_c, 2, 67, 0
2, 68400, Note_on_c, 2, 48, 80
2, 68400, Control_c, 2, 2, 80
2, 69120, Control_c, 2, 2, 80
2, 69359, Note_on_c, 2, 48, 0
2, 70560, Control_c, 2, 64, 0
2, 70561, End_track
3, 0, Start_track
3, 0, Title_t, "Harmonica, Harmonica\000"
3, 0, Key_signature, 0, "major"
3, 0, Control_c, 4, 121, 0
3, 0, Program_c, 4, 14
3, 0, Control_c, 4, 7, 100
3, 0, Control_c, 4, 10, 64
3, 0, Control_c, 4, 91, 0
3, 0, Control_c, 4, 93, 0
3, 0, MIDI_port, 0
3, 2, Control_c, 4, 64, 127
3, 20160, Note_on_c, 4, 67, 80
3, 20160, Control_c, 4, 2, 80
3, 20639, Note_on_c, 4, 67, 0
3, 20640, Note_on_c, 4, 69, 80
3, 20640, Control_c, 4, 2, 80
3, 20879, Note_on_c, 4, 69, 0
3, 20880, Note_on_c, 4, 72, 80
3, 20880, Control_c, 4, 2, 80
3, 21359, Note_on_c, 4, 72, 0
3, 21360, Note_on_c, 4, 76, 80
3, 21360, Control_c, 4, 2, 80
3, 21599, Note_on_c, 4, 76, 0
3, 21600, Note_on_c, 4, 74, 80
3, 21600, Control_c, 4, 2, 80
3, 21840, Note_on_c, 4, 76, 80
3, 21840, Control_c, 4, 2, 80
3, 22079, Note_on_c, 4, 74, 0
3, 22080, Note_on_c, 4, 74, 80
3, 22080, Control_c, 4, 2, 80
3, 22319, Note_on_c, 4, 76, 0
3, 22319, Note_on_c, 4, 74, 0
3, 22320, Note_on_c, 4, 74, 80
3, 22320, Control_c, 4, 2, 80
3, 23039, Note_on_c, 4, 74, 0
3, 23040, Note_on_c, 4, 76, 80
3, 23040, Control_c, 4, 2, 80
3, 23519, Note_on_c, 4, 76, 0
3, 23520, Note_on_c, 4, 74, 80
3, 23520, Control_c, 4, 2, 80
3, 23759, Note_on_c, 4, 74, 0
3, 23760, Note_on_c, 4, 77, 80
3, 23760, Control_c, 4, 2, 80
3, 24239, Note_on_c, 4, 77, 0
3, 24240, Note_on_c, 4, 76, 80
3, 24240, Control_c, 4, 2, 80
3, 24479, Note_on_c, 4, 76, 0
3, 24480, Note_on_c, 4, 74, 80
3, 24480, Control_c, 4, 2, 80
3, 24959, Note_on_c, 4, 74, 0
3, 24960, Note_on_c, 4, 72, 80
3, 24960, Control_c, 4, 2, 80
3, 25199, Note_on_c, 4, 72, 0
3, 25200, Note_on_c, 4, 76, 80
3, 25200, Control_c, 4, 2, 80
3, 25679, Note_on_c, 4, 76, 0
3, 25680, Note_on_c, 4, 71, 80
3, 25680, Control_c, 4, 2, 80
3, 25919, Note_on_c, 4, 71, 0
3, 25920, Note_on_c, 4, 69, 80
3, 25920, Control_c, 4, 2, 80
3, 26399, Note_on_c, 4, 69, 0
3, 26400, Note_on_c, 4, 71, 80
3, 26400, Control_c, 4, 2, 80
3, 26639, Note_on_c, 4, 71, 0
3, 26640, Note_on_c, 4, 67, 80
3, 26640, Control_c, 4, 2, 80
3, 27119, Note_on_c, 4, 67, 0
3, 27120, Note_on_c, 4, 74, 80
3, 27120, Control_c, 4, 2, 80
3, 27359, Note_on_c, 4, 74, 0
3, 27360, Note_on_c, 4, 72, 80
3, 27360, Control_c, 4, 2, 80
3, 28079, Note_on_c, 4, 72, 0
3, 51840, Note_on_c, 4, 64, 80
3, 51840, Control_c, 4, 2, 80
3, 52319, Note_on_c, 4, 64, 0
3, 52320, Note_on_c, 4, 67, 80
3, 52320, Control_c, 4, 2, 80
3, 52559, Note_on_c, 4, 67, 0
3, 52560, Note_on_c, 4, 69, 80
3, 52560, Control_c, 4, 2, 80
3, 53039, Note_on_c, 4, 69, 0
3, 53040, Note_on_c, 4, 72, 80
3, 53040, Control_c, 4, 2, 80
3, 53279, Note_on_c, 4, 72, 0
3, 53280, Note_on_c, 4, 71, 80
3, 53280, Control_c, 4, 2, 80
3, 53759, Note_on_c, 4, 71, 0
3, 53760, Note_on_c, 4, 69, 80
3, 53760, Control_c, 4, 2, 80
3, 53999, Note_on_c, 4, 69, 0
3, 54000, Note_on_c, 4, 69, 80
3, 54000, Control_c, 4, 2, 80
3, 54719, Note_on_c, 4, 69, 0
3, 54720, Note_on_c, 4, 67, 80
3, 54720, Control_c, 4, 2, 80
3, 55199, Note_on_c, 4, 67, 0
3, 55200, Note_on_c, 4, 69, 80
3, 55200, Control_c, 4, 2, 80
3, 55439, Note_on_c, 4, 69, 0
3, 55440, Note_on_c, 4, 72, 80
3, 55440, Control_c, 4, 2, 80
3, 55919, Note_on_c, 4, 72, 0
3, 55920, Note_on_c, 4, 76, 80
3, 55920, Control_c, 4, 2, 80
3, 56159, Note_on_c, 4, 76, 0
3, 56160, Note_on_c, 4, 74, 80
3, 56160, Control_c, 4, 2, 80
3, 56399, Note_on_c, 4, 74, 0
3, 56400, Note_on_c, 4, 76, 80
3, 56400, Control_c, 4, 2, 80
3, 56640, Note_on_c, 4, 74, 80
3, 56640, Control_c, 4, 2, 80
3, 56879, Note_on_c, 4, 76, 0
3, 56879, Note_on_c, 4, 74, 0
3, 56880, Note_on_c, 4, 74, 80
3, 56880, Control_c, 4, 2, 80
3, 57599, Note_on_c, 4, 74, 0
3, 57600, Note_on_c, 4, 76, 80
3, 57600, Control_c, 4, 2, 80
3, 58079, Note_on_c, 4, 76, 0
3, 58080, Note_on_c, 4, 74, 80
3, 58080, Control_c, 4, 2, 80
3, 58319, Note_on_c, 4, 74, 0
3, 58320, Note_on_c, 4, 77, 80
3, 58320, Control_c, 4, 2, 80
3, 58799, Note_on_c, 4, 77, 0
3, 58800, Note_on_c, 4, 76, 80
3, 58800, Control_c, 4, 2, 80
3, 59039, Note_on_c, 4, 76, 0
3, 59040, Note_on_c, 4, 74, 80
3, 59040, Control_c, 4, 2, 80
3, 59519, Note_on_c, 4, 74, 0
3, 59520, Note_on_c, 4, 72, 80
3, 59520, Control_c, 4, 2, 80
3, 59759, Note_on_c, 4, 72, 0
3, 59760, Note_on_c, 4, 76, 80
3, 59760, Control_c, 4, 2, 80
3, 60239, Note_on_c, 4, 76, 0
3, 60240, Note_on_c, 4, 71, 80
3, 60240, Control_c, 4, 2, 80
3, 60479, Note_on_c, 4, 71, 0
3, 60480, Note_on_c, 4, 69, 80
3, 60480, Control_c, 4, 2, 80
3, 60959, Note_on_c, 4, 69, 0
3, 60960, Note_on_c, 4, 71, 80
3, 60960, Control_c, 4, 2, 80
3, 61199, Note_on_c, 4, 71, 0
3, 61200, Note_on_c, 4, 67, 80
3, 61200, Control_c, 4, 2, 80
3, 61679, Note_on_c, 4, 67, 0
3, 61680, Note_on_c, 4, 74, 80
3, 61680, Control_c, 4, 2, 80
3, 61919, Note_on_c, 4, 74, 0
3, 61920, Note_on_c, 4, 72, 80
3, 61920, Control_c, 4, 2, 80
3, 62639, Note_on_c, 4, 72, 0
3, 63360, Note_on_c, 4, 76, 80
3, 63360, Control_c, 4, 2, 80
3, 63839, Note_on_c, 4, 76, 0
3, 63840, Note_on_c, 4, 74, 80
3, 63840, Control_c, 4, 2, 80
3, 64079, Note_on_c, 4, 74, 0
3, 64080, Note_on_c, 4, 77, 80
3, 64080, Control_c, 4, 2, 80
3, 64559, Note_on_c, 4, 77, 0
3, 64560, Note_on_c, 4, 76, 80
3, 64560, Control_c, 4, 2, 80
3, 64799, Note_on_c, 4, 76, 0
3, 64800, Note_on_c, 4, 74, 80
3, 64800, Control_c, 4, 2, 80
3, 65279, Note_on_c, 4, 74, 0
3, 65280, Note_on_c, 4, 72, 80
3, 65280, Control_c, 4, 2, 80
3, 65519, Note_on_c, 4, 72, 0
3, 65520, Note_on_c, 4, 76, 80
3, 65520, Control_c, 4, 2, 80
3, 65999, Note_on_c, 4, 76, 0
3, 66000, Note_on_c, 4, 71, 80
3, 66000, Control_c, 4, 2, 80
3, 66239, Note_on_c, 4, 71, 0
3, 66240, Note_on_c, 4, 69, 80
3, 66240, Control_c, 4, 2, 80
3, 66719, Note_on_c, 4, 69, 0
3, 66720, Note_on_c, 4, 71, 80
3, 66720, Control_c, 4, 2, 80
3, 66959, Note_on_c, 4, 71, 0
3, 66960, Note_on_c, 4, 67, 80
3, 66960, Control_c, 4, 2, 80
3, 67439, Note_on_c, 4, 67, 0
3, 67440, Note_on_c, 4, 74, 80
3, 67440, Control_c, 4, 2, 80
3, 67679, Note_on_c, 4, 74, 0
3, 67680, Note_on_c, 4, 72, 80
3, 67680, Control_c, 4, 2, 80
3, 68399, Note_on_c, 4, 72, 0
3, 70560, Control_c, 4, 64, 0
3, 70561, End_track
4, 0, Start_track
4, 0, Title_t, "Bass\000"
4, 0, Key_signature, 0, "major"
4, 0, Control_c, 5, 121, 0
4, 0, Program_c, 5, 33
4, 0, Control_c, 5, 7, 100
4, 0, Control_c, 5, 10, 64
4, 0, Control_c, 5, 91, 0
4, 0, Control_c, 5, 93, 0
4, 0, MIDI_port, 0
4, 0, Note_on_c, 5, 48, 80
4, 0, Control_c, 5, 2, 80
4, 719, Note_on_c, 5, 48, 0
4, 720, Note_on_c, 5, 43, 80
4, 720, Control_c, 5, 2, 80
4, 1439, Note_on_c, 5, 43, 0
4, 1440, Note_on_c, 5, 48, 80
4, 1440, Control_c, 5, 2, 80
4, 2159, Note_on_c, 5, 48, 0
4, 2160, Note_on_c, 5, 43, 80
4, 2160, Control_c, 5, 2, 80
4, 2399, Note_on_c, 5, 43, 0
4, 2400, Note_on_c, 5, 45, 80
4, 2400, Control_c, 5, 2, 80
4, 2639, Note_on_c, 5, 45, 0
4, 2640, Note_on_c, 5, 47, 80
4, 2640, Control_c, 5, 2, 80
4, 2879, Note_on_c, 5, 47, 0
4, 2880, Note_on_c, 5, 48, 80
4, 2880, Control_c, 5, 2, 80
4, 3599, Note_on_c, 5, 48, 0
4, 3600, Note_on_c, 5, 43, 80
4, 3600, Control_c, 5, 2, 80
4, 4319, Note_on_c, 5, 43, 0
4, 4320, Note_on_c, 5, 48, 80
4, 4320, Control_c, 5, 2, 80
4, 5039, Note_on_c, 5, 48, 0
4, 5040, Note_on_c, 5, 43, 80
4, 5040, Control_c, 5, 2, 80
4, 5279, Note_on_c, 5, 43, 0
4, 5280, Note_on_c, 5, 45, 80
4, 5280, Control_c, 5, 2, 80
4, 5519, Note_on_c, 5, 45, 0
4, 5520, Note_on_c, 5, 47, 80
4, 5520, Control_c, 5, 2, 80
4, 5759, Note_on_c, 5, 47, 0
4, 5760, Note_on_c, 5, 48, 80
4, 5760, Control_c, 5, 2, 80
4, 6479, Note_on_c, 5, 48, 0
4, 6480, Note_on_c, 5, 43, 80
4, 6480, Control_c, 5, 2, 80
4, 7199, Note_on_c, 5, 43, 0
4, 7200, Note_on_c, 5, 50, 80
4, 7200, Control_c, 5, 2, 80
4, 7919, Note_on_c, 5, 50, 0
4, 7920, Note_on_c, 5, 43, 80
4, 7920, Control_c, 5, 2, 80
4, 8639, Note_on_c, 5, 43, 0
4, 8640, Note_on_c, 5, 50, 80
4, 8640, Control_c, 5, 2, 80
4, 9359, Note_on_c, 5, 50, 0
4, 9360, Note_on_c, 5, 43, 80
4, 9360, Control_c, 5, 2, 80
4, 10079, Note_on_c, 5, 43, 0
4, 10080, Note_on_c, 5, 48, 80
4, 10080, Control_c, 5, 2, 80
4, 10799, Note_on_c, 5, 48, 0
4, 10800, Note_on_c, 5, 43, 80
4, 10800, Control_c, 5, 2, 80
4, 11039, Note_on_c, 5, 43, 0
4, 11040, Note_on_c, 5, 45, 80
4, 11040, Control_c, 5, 2, 80
4, 11279, Note_on_c, 5, 45, 0
4, 11280, Note_on_c, 5, 47, 80
4, 11280, Control_c, 5, 2, 80
4, 11519, Note_on_c, 5, 47, 0
4, 11520, Note_on_c, 5, 50, 80
4, 11520, Control_c, 5, 2, 80
4, 12239, Note_on_c, 5, 50, 0
4, 12240, Note_on_c, 5, 43, 80
4, 12240, Control_c, 5, 2, 80
4, 12959, Note_on_c, 5, 43, 0
4, 12960, Note_on_c, 5, 50, 80
4, 12960, Control_c, 5, 2, 80
4, 13679, Note_on_c, 5, 50, 0
4, 13680, Note_on_c, 5, 43, 80
4, 13680, Control_c, 5, 2, 80
4, 14399, Note_on_c, 5, 43, 0
4, 14400, Note_on_c, 5, 50, 80
4, 14400, Control_c, 5, 2, 80
4, 15119, Note_on_c, 5, 50, 0
4, 15120, Note_on_c, 5, 43, 80
4, 15120, Control_c, 5, 2, 80
4, 15839, Note_on_c, 5, 43, 0
4, 15840, Note_on_c, 5, 48, 80
4, 15840, Control_c, 5, 2, 80
4, 16559, Note_on_c, 5, 48, 0
4, 16560, Note_on_c, 5, 43, 80
4, 16560, Control_c, 5, 2, 80
4, 16799, Note_on_c, 5, 43, 0
4, 16800, Note_on_c, 5, 45, 80
4, 16800, Control_c, 5, 2, 80
4, 17039, Note_on_c, 5, 45, 0
4, 17040, Note_on_c, 5, 47, 80
4, 17040, Control_c, 5, 2, 80
4, 17279, Note_on_c, 5, 47, 0
4, 17280, Note_on_c, 5, 48, 80
4, 17280, Control_c, 5, 2, 80
4, 17999, Note_on_c, 5, 48, 0
4, 18000, Note_on_c, 5, 43, 80
4, 18000, Control_c, 5, 2, 80
4, 18719, Note_on_c, 5, 43, 0
4, 18720, Note_on_c, 5, 48, 80
4, 18720, Control_c, 5, 2, 80
4, 19439, Note_on_c, 5, 48, 0
4, 19440, Note_on_c, 5, 43, 80
4, 19440, Control_c, 5, 2, 80
4, 19919, Note_on_c, 5, 43, 0
4, 19920, Note_on_c, 5, 52, 80
4, 19920, Control_c, 5, 2, 80
4, 20159, Note_on_c, 5, 52, 0
4, 20160, Note_on_c, 5, 48, 80
4, 20160, Control_c, 5, 2, 80
4, 20879, Note_on_c, 5, 48, 0
4, 20880, Note_on_c, 5, 43, 80
4, 20880, Control_c, 5, 2, 80
4, 21599, Note_on_c, 5, 43, 0
4, 21600, Note_on_c, 5, 53, 80
4, 21600, Control_c, 5, 2, 80
4, 22319, Note_on_c, 5, 53, 0
4, 22320, Note_on_c, 5, 48, 80
4, 22320, Control_c, 5, 2, 80
4, 23039, Note_on_c, 5, 48, 0
4, 23040, Note_on_c, 5, 53, 80
4, 23040, Control_c, 5, 2, 80
4, 23759, Note_on_c, 5, 53, 0
4, 23760, Note_on_c, 5, 48, 80
4, 23760, Control_c, 5, 2, 80
4, 24479, Note_on_c, 5, 48, 0
4, 24480, Note_on_c, 5, 52, 80
4, 24480, Control_c, 5, 2, 80
4, 25199, Note_on_c, 5, 52, 0
4, 25200, Note_on_c, 5, 45, 80
4, 25200, Control_c, 5, 2, 80
4, 25919, Note_on_c, 5, 45, 0
4, 25920, Note_on_c, 5, 41, 80
4, 25920, Control_c, 5, 2, 80
4, 26639, Note_on_c, 5, 41, 0
4, 26640, Note_on_c, 5, 43, 80
4, 26640, Control_c, 5, 2, 80
4, 27359, Note_on_c, 5, 43, 0
4, 27360, Note_on_c, 5, 48, 80
4, 27360, Control_c, 5, 2, 80
4, 28799, Note_on_c, 5, 48, 0
4, 28800, Note_on_c, 5, 48, 80
4, 28800, Control_c, 5, 2, 80
4, 29519, Note_on_c, 5, 48, 0
4, 29520, Note_on_c, 5, 43, 80
4, 29520, Control_c, 5, 2, 80
4, 30239, Note_on_c, 5, 43, 0
4, 30240, Note_on_c, 5, 50, 80
4, 30240, Control_c, 5, 2, 80
4, 30959, Note_on_c, 5, 50, 0
4, 30960, Note_on_c, 5, 43, 80
4, 30960, Control_c, 5, 2, 80
4, 31679, Note_on_c, 5, 43, 0
4, 31680, Note_on_c, 5, 50, 80
4, 31680, Control_c, 5, 2, 80
4, 32399, Note_on_c, 5, 50, 0
4, 32400, Note_on_c, 5, 43, 80
4, 32400, Control_c, 5, 2, 80
4, 33119, Note_on_c, 5, 43, 0
4, 33120, Note_on_c, 5, 48, 80
4, 33120, Control_c, 5, 2, 80
4, 33839, Note_on_c, 5, 48, 0
4, 33840, Note_on_c, 5, 43, 80
4, 33840, Control_c, 5, 2, 80
4, 34079, Note_on_c, 5, 43, 0
4, 34080, Note_on_c, 5, 45, 80
4, 34080, Control_c, 5, 2, 80
4, 34319, Note_on_c, 5, 45, 0
4, 34320, Note_on_c, 5, 47, 80
4, 34320, Control_c, 5, 2, 80
4, 34559, Note_on_c, 5, 47, 0
4, 34560, Note_on_c, 5, 50, 80
4, 34560, Control_c, 5, 2, 80
4, 35279, Note_on_c, 5, 50, 0
4, 35280, Note_on_c, 5, 43, 80
4, 35280, Control_c, 5, 2, 80
4, 35999, Note_on_c, 5, 43, 0
4, 36000, Note_on_c, 5, 50, 80
4, 36000, Control_c, 5, 2, 80
4, 36719, Note_on_c, 5, 50, 0
4, 36720, Note_on_c, 5, 43, 80
4, 36720, Control_c, 5, 2, 80
4, 37439, Note_on_c, 5, 43, 0
4, 37440, Note_on_c, 5, 50, 80
4, 37440, Control_c, 5, 2, 80
4, 38159, Note_on_c, 5, 50, 0
4, 38160, Note_on_c, 5, 43, 80
4, 38160, Control_c, 5, 2, 80
4, 38879, Note_on_c, 5, 43, 0
4, 38880, Note_on_c, 5, 48, 80
4, 38880, Control_c, 5, 2, 80
4, 39599, Note_on_c, 5, 48, 0
4, 39600, Note_on_c, 5, 43, 80
4, 39600, Control_c, 5, 2, 80
4, 39839, Note_on_c, 5, 43, 0
4, 39840, Note_on_c, 5, 45, 80
4, 39840, Control_c, 5, 2, 80
4, 40079, Note_on_c, 5, 45, 0
4, 40080, Note_on_c, 5, 47, 80
4, 40080, Control_c, 5, 2, 80
4, 40319, Note_on_c, 5, 47, 0
4, 40320, Note_on_c, 5, 48, 80
4, 40320, Control_c, 5, 2, 80
4, 41039, Note_on_c, 5, 48, 0
4, 41040, Note_on_c, 5, 43, 80
4, 41040, Control_c, 5, 2, 80
4, 41759, Note_on_c, 5, 43, 0
4, 41760, Note_on_c, 5, 48, 80
4, 41760, Control_c, 5, 2, 80
4, 42479, Note_on_c, 5, 48, 0
4, 42480, Note_on_c, 5, 43, 80
4, 42480, Control_c, 5, 2, 80
4, 42959, Note_on_c, 5, 43, 0
4, 42960, Note_on_c, 5, 52, 80
4, 42960, Control_c, 5, 2, 80
4, 43199, Note_on_c, 5, 52, 0
4, 43200, Note_on_c, 5, 48, 80
4, 43200, Control_c, 5, 2, 80
4, 43919, Note_on_c, 5, 48, 0
4, 43920, Note_on_c, 5, 43, 80
4, 43920, Control_c, 5, 2, 80
4, 44639, Note_on_c, 5, 43, 0
4, 44640, Note_on_c, 5, 53, 80
4, 44640, Control_c, 5, 2, 80
4, 45359, Note_on_c, 5, 53, 0
4, 45360, Note_on_c, 5, 48, 80
4, 45360, Control_c, 5, 2, 80
4, 46079, Note_on_c, 5, 48, 0
4, 46080, Note_on_c, 5, 53, 80
4, 46080, Control_c, 5, 2, 80
4, 46799, Note_on_c, 5, 53, 0
4, 46800, Note_on_c, 5, 48, 80
4, 46800, Control_c, 5, 2, 80
4, 47519, Note_on_c, 5, 48, 0
4, 47520, Note_on_c, 5, 52, 80
4, 47520, Control_c, 5, 2, 80
4, 48239, Note_on_c, 5, 52, 0
4, 48240, Note_on_c, 5, 45, 80
4, 48240, Control_c, 5, 2, 80
4, 48959, Note_on_c, 5, 45, 0
4, 48960, Note_on_c, 5, 41, 80
4, 48960, Control_c, 5, 2, 80
4, 49679, Note_on_c, 5, 41, 0
4, 49680, Note_on_c, 5, 43, 80
4, 49680, Control_c, 5, 2, 80
4, 50399, Note_on_c, 5, 43, 0
4, 50400, Note_on_c, 5, 48, 80
4, 50400, Control_c, 5, 2, 80
4, 51119, Note_on_c, 5, 48, 0
4, 51120, Note_on_c, 5, 50, 80
4, 51120, Control_c, 5, 2, 80
4, 51839, Note_on_c, 5, 50, 0
4, 51840, Note_on_c, 5, 48, 80
4, 51840, Control_c, 5, 2, 80
4, 52559, Note_on_c, 5, 48, 0
4, 52560, Note_on_c, 5, 43, 80
4, 52560, Control_c, 5, 2, 80
4, 53279, Note_on_c, 5, 43, 0
4, 53280, Note_on_c, 5, 48, 80
4, 53280, Control_c, 5, 2, 80
4, 53999, Note_on_c, 5, 48, 0
4, 54000, Note_on_c, 5, 43, 80
4, 54000, Control_c, 5, 2, 80
4, 54479, Note_on_c, 5, 43, 0
4, 54480, Note_on_c, 5, 52, 80
4, 54480, Control_c, 5, 2, 80
4, 54719, Note_on_c, 5, 52, 0
4, 54720, Note_on_c, 5, 48, 80
4, 54720, Control_c, 5, 2, 80
4, 55439, Note_on_c, 5, 48, 0
4, 55440, Note_on_c, 5, 43, 80
4, 55440, Control_c, 5, 2, 80
4, 56159, Note_on_c, 5, 43, 0
4, 56160, Note_on_c, 5, 53, 80
4, 56160, Control_c, 5, 2, 80
4, 56879, Note_on_c, 5, 53, 0
4, 56880, Note_on_c, 5, 48, 80
4, 56880, Control_c, 5, 2, 80
4, 57599, Note_on_c, 5, 48, 0
4, 57600, Note_on_c, 5, 53, 80
4, 57600, Control_c, 5, 2, 80
4, 58319, Note_on_c, 5, 53, 0
4, 58320, Note_on_c, 5, 48, 80
4, 58320, Control_c, 5, 2, 80
4, 59039, Note_on_c, 5, 48, 0
4, 59040, Note_on_c, 5, 52, 80
4, 59040, Control_c, 5, 2, 80
4, 59759, Note_on_c, 5, 52, 0
4, 59760, Note_on_c, 5, 45, 80
4, 59760, Control_c, 5, 2, 80
4, 60479, Note_on_c, 5, 45, 0
4, 60480, Note_on_c, 5, 41, 80
4, 60480, Control_c, 5, 2, 80
4, 61199, Note_on_c, 5, 41, 0
4, 61200, Note_on_c, 5, 43, 80
4, 61200, Control_c, 5, 2, 80
4, 61919, Note_on_c, 5, 43, 0
4, 61920, Note_on_c, 5, 48, 80
4, 61920, Control_c, 5, 2, 80
4, 63359, Note_on_c, 5, 48, 0
4, 63360, Note_on_c, 5, 53, 80
4, 63360, Control_c, 5, 2, 80
4, 64079, Note_on_c, 5, 53, 0
4, 64080, Note_on_c, 5, 48, 80
4, 64080, Control_c, 5, 2, 80
4, 64799, Note_on_c, 5, 48, 0
4, 64800, Note_on_c, 5, 52, 80
4, 64800, Control_c, 5, 2, 80
4, 65519, Note_on_c, 5, 52, 0
4, 65520, Note_on_c, 5, 45, 80
4, 65520, Control_c, 5, 2, 80
4, 66239, Note_on_c, 5, 45, 0
4, 66240, Note_on_c, 5, 41, 80
4, 66240, Control_c, 5, 2, 80
4, 66959, Note_on_c, 5, 41, 0
4, 66960, Note_on_c, 5, 43, 80
4, 66960, Control_c, 5, 2, 80
4, 67679, Note_on_c, 5, 43, 0
4, 67680, Note_on_c, 5, 48, 80
4, 67680, Control_c, 5, 2, 80
4, 68159, Note_on_c, 5, 48, 0
4, 68160, End_track
5, 0, Start_track
5, 0, Title_t, "Piano, Piano\000"
5, 0, Key_signature, 0, "major"
5, 0, Control_c, 0, 121, 0
5, 0, Program_c, 0, 24
5, 0, Control_c, 0, 7, 100
5, 0, Control_c, 0, 10, 64
5, 0, Control_c, 0, 91, 0
5, 0, Control_c, 0, 93, 0
5, 0, MIDI_port, 0
5, 0, Note_on_c, 0, 48, 80
5, 0, Control_c, 0, 2, 80
5, 0, Note_on_c, 0, 60, 80
5, 2, Control_c, 0, 64, 127
5, 479, Note_on_c, 0, 48, 0
5, 479, Note_on_c, 0, 60, 0
5, 480, Note_on_c, 0, 57, 80
5, 480, Control_c, 0, 2, 80
5, 719, Note_on_c, 0, 57, 0
5, 720, Note_on_c, 0, 55, 80
5, 720, Control_c, 0, 2, 80
5, 959, Note_on_c, 0, 55, 0
5, 960, Note_on_c, 0, 64, 80
5, 960, Control_c, 0, 2, 80
5, 1199, Note_on_c, 0, 64, 0
5, 1200, Note_on_c, 0, 59, 80
5, 1200, Control_c, 0, 2, 80
5, 1200, Note_on_c, 0, 62, 80
5, 1439, Note_on_c, 0, 59, 0
5, 1439, Note_on_c, 0, 62, 0
5, 1440, Note_on_c, 0, 48, 80
5, 1440, Control_c, 0, 2, 80
5, 1440, Note_on_c, 0, 60, 80
5, 1919, Note_on_c, 0, 48, 0
5, 1919, Note_on_c, 0, 60, 0
5, 1920, Note_on_c, 0, 57, 80
5, 1920, Control_c, 0, 2, 80
5, 2159, Note_on_c, 0, 57, 0
5, 2160, Note_on_c, 0, 55, 80
5, 2160, Control_c, 0, 2, 80
5, 2399, Note_on_c, 0, 55, 0
5, 2400, Note_on_c, 0, 57, 80
5, 2400, Control_c, 0, 2, 80
5, 2639, Note_on_c, 0, 57, 0
5, 2640, Note_on_c, 0, 59, 80
5, 2640, Control_c, 0, 2, 80
5, 2879, Note_on_c, 0, 59, 0
5, 2880, Note_on_c, 0, 48, 80
5, 2880, Control_c, 0, 2, 80
5, 2880, Note_on_c, 0, 60, 80
5, 3359, Note_on_c, 0, 48, 0
5, 3359, Note_on_c, 0, 60, 0
5, 3360, Note_on_c, 0, 57, 80
5, 3360, Control_c, 0, 2, 80
5, 3599, Note_on_c, 0, 57, 0
5, 3600, Note_on_c, 0, 55, 80
5, 3600, Control_c, 0, 2, 80
5, 3839, Note_on_c, 0, 55, 0
5, 3840, Note_on_c, 0, 64, 80
5, 3840, Control_c, 0, 2, 80
5, 4079, Note_on_c, 0, 64, 0
5, 4080, Note_on_c, 0, 59, 80
5, 4080, Control_c, 0, 2, 80
5, 4080, Note_on_c, 0, 62, 80
5, 4319, Note_on_c, 0, 59, 0
5, 4319, Note_on_c, 0, 62, 0
5, 4320, Note_on_c, 0, 48, 80
5, 4320, Control_c, 0, 2, 80
5, 4320, Note_on_c, 0, 60, 80
5, 4799, Note_on_c, 0, 48, 0
5, 4799, Note_on_c, 0, 60, 0
5, 4800, Note_on_c, 0, 57, 80
5, 4800, Control_c, 0, 2, 80
5, 5039, Note_on_c, 0, 57, 0
5, 5040, Note_on_c, 0, 55, 80
5, 5040, Control_c, 0, 2, 80
5, 5279, Note_on_c, 0, 55, 0
5, 5280, Note_on_c, 0, 57, 80
5, 5280, Control_c, 0, 2, 80
5, 5519, Note_on_c, 0, 57, 0
5, 5520, Note_on_c, 0, 59, 80
5, 5520, Control_c, 0, 2, 80
5, 5759, Note_on_c, 0, 59, 0
5, 5760, Control_c, 0, 2, 64
5, 5760, Note_on_c, 0, 48, 64
5, 5999, Note_on_c, 0, 48, 0
5, 6000, Note_on_c, 0, 64, 64
5, 6000, Note_on_c, 0, 67, 64
5, 6239, Note_on_c, 0, 64, 0
5, 6239, Note_on_c, 0, 67, 0
5, 6240, Note_on_c, 0, 64, 64
5, 6240, Control_c, 0, 2, 64
5, 6240, Note_on_c, 0, 67, 64
5, 6479, Note_on_c, 0, 64, 0
5, 6479, Note_on_c, 0, 67, 0
5, 6480, Note_on_c, 0, 55, 64
5, 6480, Control_c, 0, 2, 64
5, 6719, Note_on_c, 0, 55, 0
5, 6720, Note_on_c, 0, 64, 64
5, 6720, Note_on_c, 0, 67, 64
5, 6959, Note_on_c, 0, 64, 0
5, 6959, Note_on_c, 0, 67, 0
5, 6960, Note_on_c, 0, 64, 64
5, 6960, Control_c, 0, 2, 64
5, 6960, Note_on_c, 0, 67, 64
5, 7199, Note_on_c, 0, 64, 0
5, 7199, Note_on_c, 0, 67, 0
5, 7200, Note_on_c, 0, 50, 64
5, 7200, Control_c, 0, 2, 64
5, 7439, Note_on_c, 0, 50, 0
5, 7440, Note_on_c, 0, 65, 64
5, 7440, Note_on_c, 0, 69, 64
5, 7679, Note_on_c, 0, 65, 0
5, 7679, Note_on_c, 0, 69, 0
5, 7680, Note_on_c, 0, 65, 64
5, 7680, Control_c, 0, 2, 64
5, 7680, Note_on_c, 0, 69, 64
5, 7919, Note_on_c, 0, 65, 0
5, 7919, Note_on_c, 0, 69, 0
5, 7920, Note_on_c, 0, 55, 64
5, 7920, Control_c, 0, 2, 64
5, 8159, Note_on_c, 0, 55, 0
5, 8160, Note_on_c, 0, 65, 64
5, 8160, Note_on_c, 0, 69, 64
5, 8399, Note_on_c, 0, 65, 0
5, 8399, Note_on_c, 0, 69, 0
5, 8400, Note_on_c, 0, 65, 64
5, 8400, Note_on_c, 0, 69, 64
5, 8639, Note_on_c, 0, 65, 0
5, 8639, Note_on_c, 0, 69, 0
5, 8640, Note_on_c, 0, 50, 64
5, 8640, Control_c, 0, 2, 64
5, 8879, Note_on_c, 0, 50, 0
5, 8880, Note_on_c, 0, 65, 64
5, 8880, Note_on_c, 0, 67, 64
5, 9119, Note_on_c, 0, 65, 0
5, 9119, Note_on_c, 0, 67, 0
5, 9120, Note_on_c, 0, 65, 64
5, 9120, Control_c, 0, 2, 64
5, 9120, Note_on_c, 0, 67, 64
5, 9359, Note_on_c, 0, 65, 0
5, 9359, Note_on_c, 0, 67, 0
5, 9360, Note_on_c, 0, 55, 64
5, 9360, Control_c, 0, 2, 64
5, 9599, Note_on_c, 0, 55, 0
5, 9600, Note_on_c, 0, 65, 64
5, 9600, Note_on_c, 0, 67, 64
5, 9839, Note_on_c, 0, 65, 0
5, 9839, Note_on_c, 0, 67, 0
5, 9840, Note_on_c, 0, 65, 64
5, 9840, Control_c, 0, 2, 64
5, 9840, Note_on_c, 0, 67, 64
5, 10079, Note_on_c, 0, 65, 0
5, 10079, Note_on_c, 0, 67, 0
5, 10080, Note_on_c, 0, 48, 64
5, 10080, Control_c, 0, 2, 64
5, 10319, Note_on_c, 0, 48, 0
5, 10320, Note_on_c, 0, 64, 64
5, 10320, Note_on_c, 0, 67, 64
5, 10559, Note_on_c, 0, 64, 0
5, 10559, Note_on_c, 0, 67, 0
5, 10560, Note_on_c, 0, 64, 64
5, 10560, Control_c, 0, 2, 64
5, 10560, Note_on_c, 0, 67, 64
5, 10799, Note_on_c, 0, 64, 0
5, 10799, Note_on_c, 0, 67, 0
5, 10800, Note_on_c, 0, 55, 64
5, 10800, Control_c, 0, 2, 64
5, 11039, Note_on_c, 0, 55, 0
5, 11040, Note_on_c, 0, 64, 64
5, 11040, Control_c, 0, 2, 64
5, 11040, Note_on_c, 0, 67, 64
5, 11279, Note_on_c, 0, 64, 0
5, 11279, Note_on_c, 0, 67, 0
5, 11280, Note_on_c, 0, 64, 64
5, 11280, Control_c, 0, 2, 64
5, 11280, Note_on_c, 0, 67, 64
5, 11519, Note_on_c, 0, 64, 0
5, 11519, Note_on_c, 0, 67, 0
5, 11520, Note_on_c, 0, 50, 64
5, 11520, Control_c, 0, 2, 64
5, 11759, Note_on_c, 0, 50, 0
5, 11760, Note_on_c, 0, 62, 64
5, 11760, Note_on_c, 0, 65, 64
5, 11999, Note_on_c, 0, 62, 0
5, 11999, Note_on_c, 0, 65, 0
5, 12000, Note_on_c, 0, 62, 64
5, 12000, Control_c, 0, 2, 64
5, 12000, Note_on_c, 0, 65, 64
5, 12239, Note_on_c, 0, 62, 0
5, 12239, Note_on_c, 0, 65, 0
5, 12240, Note_on_c, 0, 55, 64
5, 12240, Control_c, 0, 2, 64
5, 12479, Note_on_c, 0, 55, 0
5, 12480, Note_on_c, 0, 62, 64
5, 12480, Note_on_c, 0, 67, 64
5, 12719, Note_on_c, 0, 62, 0
5, 12719, Note_on_c, 0, 67, 0
5, 12720, Note_on_c, 0, 62, 64
5, 12720, Control_c, 0, 2, 64
5, 12720, Note_on_c, 0, 67, 64
5, 12959, Note_on_c, 0, 62, 0
5, 12959, Note_on_c, 0, 67, 0
5, 12960, Note_on_c, 0, 50, 64
5, 12960, Control_c, 0, 2, 64
5, 13199, Note_on_c, 0, 50, 0
5, 13200, Note_on_c, 0, 62, 64
5, 13200, Note_on_c, 0, 65, 64
5, 13439, Note_on_c, 0, 62, 0
5, 13439, Note_on_c, 0, 65, 0
5, 13440, Note_on_c, 0, 62, 64
5, 13440, Control_c, 0, 2, 64
5, 13440, Note_on_c, 0, 65, 64
5, 13679, Note_on_c, 0, 62, 0
5, 13679, Note_on_c, 0, 65, 0
5, 13680, Note_on_c, 0, 55, 64
5, 13680, Control_c, 0, 2, 64
5, 13919, Note_on_c, 0, 55, 0
5, 13920, Note_on_c, 0, 62, 64
5, 13920, Note_on_c, 0, 67, 64
5, 14159, Note_on_c, 0, 62, 0
5, 14159, Note_on_c, 0, 67, 0
5, 14160, Note_on_c, 0, 62, 64
5, 14160, Note_on_c, 0, 67, 64
5, 14399, Note_on_c, 0, 62, 0
5, 14399, Note_on_c, 0, 67, 0
5, 14400, Note_on_c, 0, 50, 64
5, 14400, Control_c, 0, 2, 64
5, 14639, Note_on_c, 0, 50, 0
5, 14640, Note_on_c, 0, 62, 64
5, 14640, Note_on_c, 0, 65, 64
5, 14879, Note_on_c, 0, 62, 0
5, 14879, Note_on_c, 0, 65, 0
5, 14880, Note_on_c, 0, 62, 64
5, 14880, Control_c, 0, 2, 64
5, 14880, Note_on_c, 0, 65, 64
5, 15119, Note_on_c, 0, 62, 0
5, 15119, Note_on_c, 0, 65, 0
5, 15120, Note_on_c, 0, 55, 64
5, 15120, Control_c, 0, 2, 64
5, 15359, Note_on_c, 0, 55, 0
5, 15360, Note_on_c, 0, 62, 64
5, 15360, Note_on_c, 0, 67, 64
5, 15599, Note_on_c, 0, 62, 0
5, 15599, Note_on_c, 0, 67, 0
5, 15600, Note_on_c, 0, 62, 64
5, 15600, Control_c, 0, 2, 64
5, 15600, Note_on_c, 0, 67, 64
5, 15839, Note_on_c, 0, 62, 0
5, 15839, Note_on_c, 0, 67, 0
5, 15840, Note_on_c, 0, 48, 64
5, 15840, Control_c, 0, 2, 64
5, 16079, Note_on_c, 0, 48, 0
5, 16080, Note_on_c, 0, 64, 64
5, 16080, Note_on_c, 0, 67, 64
5, 16319, Note_on_c, 0, 64, 0
5, 16319, Note_on_c, 0, 67, 0
5, 16320, Note_on_c, 0, 64, 64
5, 16320, Control_c, 0, 2, 64
5, 16320, Note_on_c, 0, 67, 64
5, 16559, Note_on_c, 0, 64, 0
5, 16559, Note_on_c, 0, 67, 0
5, 16560, Note_on_c, 0, 55, 64
5, 16560, Control_c, 0, 2, 64
5, 16799, Note_on_c, 0, 55, 0
5, 16800, Note_on_c, 0, 65, 64
5, 16800, Control_c, 0, 2, 64
5, 16800, Note_on_c, 0, 67, 64
5, 17039, Note_on_c, 0, 65, 0
5, 17039, Note_on_c, 0, 67, 0
5, 17040, Note_on_c, 0, 65, 64
5, 17040, Control_c, 0, 2, 64
5, 17040, Note_on_c, 0, 67, 64
5, 17279, Note_on_c, 0, 65, 0
5, 17279, Note_on_c, 0, 67, 0
5, 17280, Note_on_c, 0, 48, 64
5, 17280, Control_c, 0, 2, 64
5, 17519, Note_on_c, 0, 48, 0
5, 17520, Note_on_c, 0, 64, 64
5, 17520, Note_on_c, 0, 67, 64
5, 17759, Note_on_c, 0, 64, 0
5, 17759, Note_on_c, 0, 67, 0
5, 17760, Note_on_c, 0, 64, 64
5, 17760, Control_c, 0, 2, 64
5, 17760, Note_on_c, 0, 67, 64
5, 17919, Note_on_c, 0, 64, 0
5, 17919, Note_on_c, 0, 67, 0
5, 17920, Note_on_c, 0, 60, 64
5, 17999, Note_on_c, 0, 60, 0
5, 18000, Note_on_c, 0, 55, 64
5, 18000, Control_c, 0, 2, 64
5, 18239, Note_on_c, 0, 55, 0
5, 18240, Note_on_c, 0, 64, 64
5, 18240, Note_on_c, 0, 67, 64
5, 18479, Note_on_c, 0, 64, 0
5, 18479, Note_on_c, 0, 67, 0
5, 18480, Note_on_c, 0, 64, 64
5, 18480, Control_c, 0, 2, 64
5, 18480, Note_on_c, 0, 67, 64
5, 18719, Note_on_c, 0, 64, 0
5, 18719, Note_on_c, 0, 67, 0
5, 18720, Note_on_c, 0, 48, 64
5, 18720, Control_c, 0, 2, 64
5, 18959, Note_on_c, 0, 48, 0
5, 18960, Note_on_c, 0, 64, 64
5, 18960, Note_on_c, 0, 67, 64
5, 19199, Note_on_c, 0, 64, 0
5, 19199, Note_on_c, 0, 67, 0
5, 19200, Note_on_c, 0, 64, 64
5, 19200, Control_c, 0, 2, 64
5, 19200, Note_on_c, 0, 67, 64
5, 19439, Note_on_c, 0, 64, 0
5, 19439, Note_on_c, 0, 67, 0
5, 19440, Note_on_c, 0, 55, 64
5, 19440, Control_c, 0, 2, 64
5, 19679, Note_on_c, 0, 55, 0
5, 19680, Note_on_c, 0, 64, 64
5, 19680, Note_on_c, 0, 67, 64
5, 19919, Note_on_c, 0, 64, 0
5, 19919, Note_on_c, 0, 67, 0
5, 19920, Note_on_c, 0, 64, 64
5, 19920, Control_c, 0, 2, 64
5, 19920, Note_on_c, 0, 67, 64
5, 20159, Note_on_c, 0, 64, 0
5, 20159, Note_on_c, 0, 67, 0
5, 20160, Note_on_c, 0, 48, 64
5, 20160, Control_c, 0, 2, 64
5, 20399, Note_on_c, 0, 48, 0
5, 20400, Note_on_c, 0, 64, 64
5, 20400, Note_on_c, 0, 67, 64
5, 20639, Note_on_c, 0, 64, 0
5, 20639, Note_on_c, 0, 67, 0
5, 20640, Note_on_c, 0, 64, 64
5, 20640, Control_c, 0, 2, 64
5, 20640, Note_on_c, 0, 67, 64
5, 20879, Note_on_c, 0, 64, 0
5, 20879, Note_on_c, 0, 67, 0
5, 20880, Note_on_c, 0, 55, 64
5, 20880, Control_c, 0, 2, 64
5, 21119, Note_on_c, 0, 55, 0
5, 21120, Note_on_c, 0, 64, 64
5, 21120, Note_on_c, 0, 67, 64
5, 21359, Note_on_c, 0, 64, 0
5, 21359, Note_on_c, 0, 67, 0
5, 21360, Note_on_c, 0, 64, 64
5, 21360, Control_c, 0, 2, 64
5, 21360, Note_on_c, 0, 67, 64
5, 21599, Note_on_c, 0, 64, 0
5, 21599, Note_on_c, 0, 67, 0
5, 21600, Note_on_c, 0, 53, 64
5, 21600, Control_c, 0, 2, 64
5, 21839, Note_on_c, 0, 53, 0
5, 21840, Note_on_c, 0, 65, 64
5, 21840, Control_c, 0, 2, 64
5, 21840, Note_on_c, 0, 69, 64
5, 22079, Note_on_c, 0, 65, 0
5, 22079, Note_on_c, 0, 69, 0
5, 22080, Note_on_c, 0, 65, 64
5, 22080, Control_c, 0, 2, 64
5, 22080, Note_on_c, 0, 69, 64
5, 22319, Note_on_c, 0, 65, 0
5, 22319, Note_on_c, 0, 69, 0
5, 22320, Note_on_c, 0, 48, 64
5, 22320, Control_c, 0, 2, 64
5, 22559, Note_on_c, 0, 48, 0
5, 22560, Note_on_c, 0, 65, 64
5, 22560, Note_on_c, 0, 69, 64
5, 22799, Note_on_c, 0, 65, 0
5, 22799, Note_on_c, 0, 69, 0
5, 22800, Note_on_c, 0, 65, 64
5, 22800, Note_on_c, 0, 69, 64
5, 23039, Note_on_c, 0, 65, 0
5, 23039, Note_on_c, 0, 69, 0
5, 23040, Note_on_c, 0, 53, 64
5, 23040, Control_c, 0, 2, 64
5, 23279, Note_on_c, 0, 53, 0
5, 23280, Note_on_c, 0, 65, 64
5, 23280, Note_on_c, 0, 69, 64
5, 23519, Note_on_c, 0, 65, 0
5, 23519, Note_on_c, 0, 69, 0
5, 23520, Note_on_c, 0, 65, 64
5, 23520, Control_c, 0, 2, 64
5, 23520, Note_on_c, 0, 69, 64
5, 23759, Note_on_c, 0, 65, 0
5, 23759, Note_on_c, 0, 69, 0
5, 23760, Note_on_c, 0, 48, 64
5, 23760, Control_c, 0, 2, 64
5, 23999, Note_on_c, 0, 48, 0
5, 24000, Note_on_c, 0, 60, 64
5, 24000, Note_on_c, 0, 65, 64
5, 24239, Note_on_c, 0, 60, 0
5, 24239, Note_on_c, 0, 65, 0
5, 24240, Note_on_c, 0, 60, 64
5, 24240, Control_c, 0, 2, 64
5, 24240, Note_on_c, 0, 65, 64
5, 24479, Note_on_c, 0, 60, 0
5, 24479, Note_on_c, 0, 65, 0
5, 24480, Note_on_c, 0, 52, 64
5, 24480, Control_c, 0, 2, 64
5, 24719, Note_on_c, 0, 52, 0
5, 24720, Note_on_c, 0, 64, 64
5, 24720, Note_on_c, 0, 67, 64
5, 24959, Note_on_c, 0, 64, 0
5, 24959, Note_on_c, 0, 67, 0
5, 24960, Note_on_c, 0, 64, 64
5, 24960, Control_c, 0, 2, 64
5, 24960, Note_on_c, 0, 67, 64
5, 25199, Note_on_c, 0, 64, 0
5, 25199, Note_on_c, 0, 67, 0
5, 25200, Note_on_c, 0, 57, 64
5, 25200, Control_c, 0, 2, 64
5, 25439, Note_on_c, 0, 57, 0
5, 25440, Note_on_c, 0, 64, 64
5, 25440, Note_on_c, 0, 67, 64
5, 25679, Note_on_c, 0, 64, 0
5, 25679, Note_on_c, 0, 67, 0
5, 25680, Note_on_c, 0, 64, 64
5, 25680, Control_c, 0, 2, 64
5, 25680, Note_on_c, 0, 67, 64
5, 25919, Note_on_c, 0, 64, 0
5, 25919, Note_on_c, 0, 67, 0
5, 25920, Note_on_c, 0, 53, 64
5, 25920, Control_c, 0, 2, 64
5, 26159, Note_on_c, 0, 53, 0
5, 26160, Note_on_c, 0, 65, 64
5, 26160, Note_on_c, 0, 69, 64
5, 26399, Note_on_c, 0, 65, 0
5, 26399, Note_on_c, 0, 69, 0
5, 26400, Note_on_c, 0, 65, 64
5, 26400, Control_c, 0, 2, 64
5, 26400, Note_on_c, 0, 69, 64
5, 26639, Note_on_c, 0, 65, 0
5, 26639, Note_on_c, 0, 69, 0
5, 26640, Note_on_c, 0, 55, 64
5, 26640, Control_c, 0, 2, 64
5, 26879, Note_on_c, 0, 55, 0
5, 26880, Note_on_c, 0, 65, 64
5, 26880, Note_on_c, 0, 69, 64
5, 27119, Note_on_c, 0, 65, 0
5, 27119, Note_on_c, 0, 69, 0
5, 27120, Note_on_c, 0, 65, 64
5, 27120, Control_c, 0, 2, 64
5, 27120, Note_on_c, 0, 69, 64
5, 27359, Note_on_c, 0, 65, 0
5, 27359, Note_on_c, 0, 69, 0
5, 27360, Note_on_c, 0, 48, 64
5, 27360, Control_c, 0, 2, 64
5, 27599, Note_on_c, 0, 48, 0
5, 27600, Note_on_c, 0, 64, 64
5, 27600, Note_on_c, 0, 67, 64
5, 27839, Note_on_c, 0, 64, 0
5, 27839, Note_on_c, 0, 67, 0
5, 27840, Note_on_c, 0, 64, 64
5, 27840, Note_on_c, 0, 67, 64
5, 28079, Note_on_c, 0, 64, 0
5, 28079, Note_on_c, 0, 67, 0
5, 28080, Note_on_c, 0, 48, 64
5, 28080, Control_c, 0, 2, 64
5, 28319, Note_on_c, 0, 48, 0
5, 28320, Note_on_c, 0, 64, 64
5, 28320, Control_c, 0, 2, 64
5, 28320, Note_on_c, 0, 67, 64
5, 28559, Note_on_c, 0, 64, 0
5, 28559, Note_on_c, 0, 67, 0
5, 28560, Note_on_c, 0, 64, 64
5, 28560, Control_c, 0, 2, 64
5, 28560, Note_on_c, 0, 67, 64
5, 28799, Note_on_c, 0, 64, 0
5, 28799, Note_on_c, 0, 67, 0
5, 28800, Note_on_c, 0, 48, 64
5, 28800, Control_c, 0, 2, 64
5, 28879, Note_on_c, 0, 48, 0
5, 28960, Note_on_c, 0, 60, 64
5, 29039, Note_on_c, 0, 60, 0
5, 29040, Note_on_c, 0, 64, 64
5, 29040, Control_c, 0, 2, 64
5, 29040, Note_on_c, 0, 67, 64
5, 29119, Note_on_c, 0, 64, 0
5, 29119, Note_on_c, 0, 67, 0
5, 29200, Note_on_c, 0, 60, 64
5, 29279, Note_on_c, 0, 60, 0
5, 29280, Note_on_c, 0, 64, 64
5, 29280, Control_c, 0, 2, 64
5, 29280, Note_on_c, 0, 67, 64
5, 29519, Note_on_c, 0, 64, 0
5, 29519, Note_on_c, 0, 67, 0
5, 29520, Note_on_c, 0, 55, 64
5, 29520, Control_c, 0, 2, 64
5, 29599, Note_on_c, 0, 55, 0
5, 29680, Note_on_c, 0, 60, 64
5, 29759, Note_on_c, 0, 60, 0
5, 29760, Note_on_c, 0, 64, 64
5, 29760, Control_c, 0, 2, 64
5, 29760, Note_on_c, 0, 67, 64
5, 29839, Note_on_c, 0, 64, 0
5, 29839, Note_on_c, 0, 67, 0
5, 29920, Note_on_c, 0, 60, 64
5, 29999, Note_on_c, 0, 60, 0
5, 30000, Note_on_c, 0, 64, 64
5, 30000, Control_c, 0, 2, 64
5, 30000, Note_on_c, 0, 67, 64
5, 30239, Note_on_c, 0, 64, 0
5, 30239, Note_on_c, 0, 67, 0
5, 30240, Note_on_c, 0, 50, 64
5, 30240, Control_c, 0, 2, 64
5, 30319, Note_on_c, 0, 50, 0
5, 30400, Note_on_c, 0, 62, 64
5, 30479, Note_on_c, 0, 62, 0
5, 30480, Note_on_c, 0, 65, 64
5, 30480, Control_c, 0, 2, 64
5, 30480, Note_on_c, 0, 69, 64
5, 30559, Note_on_c, 0, 65, 0
5, 30559, Note_on_c, 0, 69, 0
5, 30640, Note_on_c, 0, 62, 64
5, 30719, Note_on_c, 0, 62, 0
5, 30720, Note_on_c, 0, 65, 64
5, 30720, Control_c, 0, 2, 64
5, 30720, Note_on_c, 0, 69, 64
5, 30799, Note_on_c, 0, 65, 0
5, 30799, Note_on_c, 0, 69, 0
5, 30960, Note_on_c, 0, 55, 64
5, 30960, Control_c, 0, 2, 64
5, 31039, Note_on_c, 0, 55, 0
5, 31120, Note_on_c, 0, 62, 64
5, 31199, Note_on_c, 0, 62, 0
5, 31200, Note_on_c, 0, 65, 64
5, 31200, Control_c, 0, 2, 64
5, 31200, Note_on_c, 0, 69, 64
5, 31279, Note_on_c, 0, 65, 0
5, 31279, Note_on_c, 0, 69, 0
5, 31360, Note_on_c, 0, 62, 64
5, 31439, Note_on_c, 0, 62, 0
5, 31440, Note_on_c, 0, 65, 64
5, 31440, Note_on_c, 0, 69, 64
5, 31519, Note_on_c, 0, 65, 0
5, 31519, Note_on_c, 0, 69, 0
5, 31680, Note_on_c, 0, 50, 64
5, 31680, Control_c, 0, 2, 64
5, 31759, Note_on_c, 0, 50, 0
5, 31840, Note_on_c, 0, 62, 64
5, 31919, Note_on_c, 0, 62, 0
5, 31920, Note_on_c, 0, 65, 64
5, 31920, Control_c, 0, 2, 64
5, 31920, Note_on_c, 0, 67, 64
5, 31999, Note_on_c, 0, 65, 0
5, 31999, Note_on_c, 0, 67, 0
5, 32080, Note_on_c, 0, 62, 64
5, 32159, Note_on_c, 0, 62, 0
5, 32160, Note_on_c, 0, 65, 64
5, 32160, Control_c, 0, 2, 64
5, 32160, Note_on_c, 0, 67, 64
5, 32239, Note_on_c, 0, 65, 0
5, 32239, Note_on_c, 0, 67, 0
5, 32400, Note_on_c, 0, 55, 64
5, 32400, Control_c, 0, 2, 64
5, 32479, Note_on_c, 0, 55, 0
5, 32560, Note_on_c, 0, 62, 64
5, 32639, Note_on_c, 0, 62, 0
5, 32640, Note_on_c, 0, 65, 64
5, 32640, Control_c, 0, 2, 64
5, 32640, Note_on_c, 0, 67, 64
5, 32719, Note_on_c, 0, 65, 0
5, 32719, Note_on_c, 0, 67, 0
5, 32800, Note_on_c, 0, 62, 64
5, 32879, Note_on_c, 0, 62, 0
5, 32880, Note_on_c, 0, 65, 64
5, 32880, Control_c, 0, 2, 64
5, 32880, Note_on_c, 0, 67, 64
5, 32959, Note_on_c, 0, 65, 0
5, 32959, Note_on_c, 0, 67, 0
5, 33120, Note_on_c, 0, 48, 64
5, 33120, Control_c, 0, 2, 64
5, 33199, Note_on_c, 0, 48, 0
5, 33280, Note_on_c, 0, 60, 64
5, 33359, Note_on_c, 0, 60, 0
5, 33360, Note_on_c, 0, 64, 64
5, 33360, Control_c, 0, 2, 64
5, 33360, Note_on_c, 0, 67, 64
5, 33439, Note_on_c, 0, 64, 0
5, 33439, Note_on_c, 0, 67, 0
5, 33520, Note_on_c, 0, 60, 64
5, 33599, Note_on_c, 0, 60, 0
5, 33600, Note_on_c, 0, 64, 64
5, 33600, Control_c, 0, 2, 64
5, 33600, Note_on_c, 0, 67, 64
5, 33839, Note_on_c, 0, 64, 0
5, 33839, Note_on_c, 0, 67, 0
5, 33840, Note_on_c, 0, 55, 64
5, 33840, Control_c, 0, 2, 64
5, 33919, Note_on_c, 0, 55, 0
5, 34000, Note_on_c, 0, 60, 64
5, 34079, Note_on_c, 0, 60, 0
5, 34080, Note_on_c, 0, 64, 64
5, 34080, Control_c, 0, 2, 64
5, 34080, Note_on_c, 0, 67, 64
5, 34159, Note_on_c, 0, 64, 0
5, 34159, Note_on_c, 0, 67, 0
5, 34240, Note_on_c, 0, 60, 64
5, 34319, Note_on_c, 0, 60, 0
5, 34320, Note_on_c, 0, 64, 64
5, 34320, Control_c, 0, 2, 64
5, 34320, Note_on_c, 0, 67, 64
5, 34559, Note_on_c, 0, 64, 0
5, 34559, Note_on_c, 0, 67, 0
5, 34560, Note_on_c, 0, 50, 64
5, 34560, Control_c, 0, 2, 64
5, 34639, Note_on_c, 0, 50, 0
5, 34720, Note_on_c, 0, 57, 64
5, 34799, Note_on_c, 0, 57, 0
5, 34800, Note_on_c, 0, 62, 64
5, 34800, Control_c, 0, 2, 64
5, 34800, Note_on_c, 0, 65, 64
5, 34879, Note_on_c, 0, 62, 0
5, 34879, Note_on_c, 0, 65, 0
5, 34960, Note_on_c, 0, 57, 64
5, 35039, Note_on_c, 0, 57, 0
5, 35040, Note_on_c, 0, 62, 64
5, 35040, Control_c, 0, 2, 64
5, 35040, Note_on_c, 0, 65, 64
5, 35279, Note_on_c, 0, 62, 0
5, 35279, Note_on_c, 0, 65, 0
5, 35280, Note_on_c, 0, 55, 64
5, 35280, Control_c, 0, 2, 64
5, 35359, Note_on_c, 0, 55, 0
5, 35440, Note_on_c, 0, 59, 64
5, 35519, Note_on_c, 0, 59, 0
5, 35520, Note_on_c, 0, 62, 64
5, 35520, Control_c, 0, 2, 64
5, 35520, Note_on_c, 0, 67, 64
5, 35599, Note_on_c, 0, 62, 0
5, 35599, Note_on_c, 0, 67, 0
5, 35680, Note_on_c, 0, 59, 64
5, 35759, Note_on_c, 0, 59, 0
5, 35760, Note_on_c, 0, 62, 64
5, 35760, Control_c, 0, 2, 64
5, 35760, Note_on_c, 0, 67, 64
5, 35999, Note_on_c, 0, 62, 0
5, 35999, Note_on_c, 0, 67, 0
5, 36000, Note_on_c, 0, 50, 64
5, 36000, Control_c, 0, 2, 64
5, 36079, Note_on_c, 0, 50, 0
5, 36160, Note_on_c, 0, 57, 64
5, 36239, Note_on_c, 0, 57, 0
5, 36240, Note_on_c, 0, 62, 64
5, 36240, Control_c, 0, 2, 64
5, 36240, Note_on_c, 0, 65, 64
5, 36319, Note_on_c, 0, 62, 0
5, 36319, Note_on_c, 0, 65, 0
5, 36400, Note_on_c, 0, 57, 64
5, 36479, Note_on_c, 0, 57, 0
5, 36480, Note_on_c, 0, 62, 64
5, 36480, Control_c, 0, 2, 64
5, 36480, Note_on_c, 0, 65, 64
5, 36719, Note_on_c, 0, 62, 0
5, 36719, Note_on_c, 0, 65, 0
5, 36720, Note_on_c, 0, 55, 64
5, 36720, Control_c, 0, 2, 64
5, 36799, Note_on_c, 0, 55, 0
5, 36880, Note_on_c, 0, 59, 64
5, 36959, Note_on_c, 0, 59, 0
5, 36960, Note_on_c, 0, 62, 64
5, 36960, Control_c, 0, 2, 64
5, 36960, Note_on_c, 0, 67, 64
5, 37039, Note_on_c, 0, 62, 0
5, 37039, Note_on_c, 0, 67, 0
5, 37120, Note_on_c, 0, 59, 64
5, 37199, Note_on_c, 0, 59, 0
5, 37200, Note_on_c, 0, 62, 64
5, 37200, Note_on_c, 0, 67, 64
5, 37439, Note_on_c, 0, 62, 0
5, 37439, Note_on_c, 0, 67, 0
5, 37440, Note_on_c, 0, 50, 64
5, 37440, Control_c, 0, 2, 64
5, 37519, Note_on_c, 0, 50, 0
5, 37600, Note_on_c, 0, 57, 64
5, 37679, Note_on_c, 0, 57, 0
5, 37680, Note_on_c, 0, 62, 64
5, 37680, Control_c, 0, 2, 64
5, 37680, Note_on_c, 0, 65, 64
5, 37759, Note_on_c, 0, 62, 0
5, 37759, Note_on_c, 0, 65, 0
5, 37840, Note_on_c, 0, 57, 64
5, 37919, Note_on_c, 0, 57, 0
5, 37920, Note_on_c, 0, 62, 64
5, 37920, Control_c, 0, 2, 64
5, 37920, Note_on_c, 0, 65, 64
5, 38159, Note_on_c, 0, 62, 0
5, 38159, Note_on_c, 0, 65, 0
5, 38160, Note_on_c, 0, 55, 64
5, 38160, Control_c, 0, 2, 64
5, 38239, Note_on_c, 0, 55, 0
5, 38320, Note_on_c, 0, 59, 64
5, 38399, Note_on_c, 0, 59, 0
5, 38400, Note_on_c, 0, 62, 64
5, 38400, Control_c, 0, 2, 64
5, 38400, Note_on_c, 0, 67, 64
5, 38479, Note_on_c, 0, 62, 0
5, 38479, Note_on_c, 0, 67, 0
5, 38560, Note_on_c, 0, 59, 64
5, 38639, Note_on_c, 0, 59, 0
5, 38640, Note_on_c, 0, 62, 64
5, 38640, Control_c, 0, 2, 64
5, 38640, Note_on_c, 0, 67, 64
5, 38879, Note_on_c, 0, 62, 0
5, 38879, Note_on_c, 0, 67, 0
5, 38880, Note_on_c, 0, 48, 64
5, 38880, Control_c, 0, 2, 64
5, 38959, Note_on_c, 0, 48, 0
5, 39040, Note_on_c, 0, 60, 64
5, 39119, Note_on_c, 0, 60, 0
5, 39120, Note_on_c, 0, 64, 64
5, 39120, Control_c, 0, 2, 64
5, 39120, Note_on_c, 0, 67, 64
5, 39199, Note_on_c, 0, 64, 0
5, 39199, Note_on_c, 0, 67, 0
5, 39280, Note_on_c, 0, 60, 64
5, 39359, Note_on_c, 0, 60, 0
5, 39360, Note_on_c, 0, 64, 64
5, 39360, Control_c, 0, 2, 64
5, 39360, Note_on_c, 0, 67, 64
5, 39599, Note_on_c, 0, 64, 0
5, 39599, Note_on_c, 0, 67, 0
5, 39600, Note_on_c, 0, 55, 64
5, 39600, Control_c, 0, 2, 64
5, 39679, Note_on_c, 0, 55, 0
5, 39760, Note_on_c, 0, 60, 64
5, 39839, Note_on_c, 0, 60, 0
5, 39840, Note_on_c, 0, 64, 64
5, 39840, Control_c, 0, 2, 64
5, 39840, Note_on_c, 0, 67, 64
5, 39919, Note_on_c, 0, 64, 0
5, 39919, Note_on_c, 0, 67, 0
5, 40000, Note_on_c, 0, 60, 64
5, 40079, Note_on_c, 0, 60, 0
5, 40080, Note_on_c, 0, 64, 64
5, 40080, Control_c, 0, 2, 64
5, 40080, Note_on_c, 0, 67, 64
5, 40319, Note_on_c, 0, 64, 0
5, 40319, Note_on_c, 0, 67, 0
5, 40320, Note_on_c, 0, 48, 64
5, 40320, Control_c, 0, 2, 64
5, 40399, Note_on_c, 0, 48, 0
5, 40480, Note_on_c, 0, 60, 64
5, 40559, Note_on_c, 0, 60, 0
5, 40560, Note_on_c, 0, 64, 64
5, 40560, Control_c, 0, 2, 64
5, 40560, Note_on_c, 0, 67, 64
5, 40639, Note_on_c, 0, 64, 0
5, 40639, Note_on_c, 0, 67, 0
5, 40720, Note_on_c, 0, 60, 64
5, 40799, Note_on_c, 0, 60, 0
5, 40800, Note_on_c, 0, 64, 64
5, 40800, Control_c, 0, 2, 64
5, 40800, Note_on_c, 0, 67, 64
5, 41039, Note_on_c, 0, 64, 0
5, 41039, Note_on_c, 0, 67, 0
5, 41040, Note_on_c, 0, 55, 64
5, 41040, Control_c, 0, 2, 64
5, 41119, Note_on_c, 0, 55, 0
5, 41200, Note_on_c, 0, 60, 64
5, 41279, Note_on_c, 0, 60, 0
5, 41280, Note_on_c, 0, 64, 64
5, 41280, Control_c, 0, 2, 64
5, 41280, Note_on_c, 0, 67, 64
5, 41359, Note_on_c, 0, 64, 0
5, 41359, Note_on_c, 0, 67, 0
5, 41440, Note_on_c, 0, 60, 64
5, 41519, Note_on_c, 0, 60, 0
5, 41520, Note_on_c, 0, 64, 64
5, 41520, Control_c, 0, 2, 64
5, 41520, Note_on_c, 0, 67, 64
5, 41759, Note_on_c, 0, 64, 0
5, 41759, Note_on_c, 0, 67, 0
5, 41760, Note_on_c, 0, 48, 64
5, 41760, Control_c, 0, 2, 64
5, 41839, Note_on_c, 0, 48, 0
5, 41920, Note_on_c, 0, 60, 64
5, 41999, Note_on_c, 0, 60, 0
5, 42000, Note_on_c, 0, 64, 64
5, 42000, Control_c, 0, 2, 64
5, 42000, Note_on_c, 0, 67, 64
5, 42079, Note_on_c, 0, 64, 0
5, 42079, Note_on_c, 0, 67, 0
5, 42160, Note_on_c, 0, 60, 64
5, 42239, Note_on_c, 0, 60, 0
5, 42240, Note_on_c, 0, 64, 64
5, 42240, Control_c, 0, 2, 64
5, 42240, Note_on_c, 0, 67, 64
5, 42479, Note_on_c, 0, 64, 0
5, 42479, Note_on_c, 0, 67, 0
5, 42480, Note_on_c, 0, 55, 64
5, 42480, Control_c, 0, 2, 64
5, 42559, Note_on_c, 0, 55, 0
5, 42640, Note_on_c, 0, 60, 64
5, 42719, Note_on_c, 0, 60, 0
5, 42720, Note_on_c, 0, 64, 64
5, 42720, Control_c, 0, 2, 64
5, 42720, Note_on_c, 0, 67, 64
5, 42799, Note_on_c, 0, 64, 0
5, 42799, Note_on_c, 0, 67, 0
5, 42880, Note_on_c, 0, 60, 64
5, 42959, Note_on_c, 0, 60, 0
5, 42960, Note_on_c, 0, 64, 64
5, 42960, Control_c, 0, 2, 64
5, 42960, Note_on_c, 0, 67, 64
5, 43199, Note_on_c, 0, 64, 0
5, 43199, Note_on_c, 0, 67, 0
5, 43200, Note_on_c, 0, 48, 64
5, 43200, Control_c, 0, 2, 64
5, 43279, Note_on_c, 0, 48, 0
5, 43360, Note_on_c, 0, 60, 64
5, 43439, Note_on_c, 0, 60, 0
5, 43440, Note_on_c, 0, 64, 64
5, 43440, Control_c, 0, 2, 64
5, 43440, Note_on_c, 0, 67, 64
5, 43519, Note_on_c, 0, 64, 0
5, 43519, Note_on_c, 0, 67, 0
5, 43600, Note_on_c, 0, 60, 64
5, 43679, Note_on_c, 0, 60, 0
5, 43680, Note_on_c, 0, 64, 64
5, 43680, Control_c, 0, 2, 64
5, 43680, Note_on_c, 0, 67, 64
5, 43919, Note_on_c, 0, 64, 0
5, 43919, Note_on_c, 0, 67, 0
5, 43920, Note_on_c, 0, 55, 64
5, 43920, Control_c, 0, 2, 64
5, 43999, Note_on_c, 0, 55, 0
5, 44080, Note_on_c, 0, 60, 64
5, 44159, Note_on_c, 0, 60, 0
5, 44160, Note_on_c, 0, 64, 64
5, 44160, Control_c, 0, 2, 64
5, 44160, Note_on_c, 0, 67, 64
5, 44239, Note_on_c, 0, 64, 0
5, 44239, Note_on_c, 0, 67, 0
5, 44320, Note_on_c, 0, 60, 64
5, 44399, Note_on_c, 0, 60, 0
5, 44400, Note_on_c, 0, 64, 64
5, 44400, Control_c, 0, 2, 64
5, 44400, Note_on_c, 0, 67, 64
5, 44639, Note_on_c, 0, 64, 0
5, 44639, Note_on_c, 0, 67, 0
5, 44640, Note_on_c, 0, 53, 64
5, 44640, Control_c, 0, 2, 64
5, 44719, Note_on_c, 0, 53, 0
5, 44800, Note_on_c, 0, 60, 64
5, 44879, Note_on_c, 0, 60, 0
5, 44880, Note_on_c, 0, 65, 64
5, 44880, Control_c, 0, 2, 64
5, 44880, Note_on_c, 0, 69, 64
5, 44959, Note_on_c, 0, 65, 0
5, 44959, Note_on_c, 0, 69, 0
5, 45040, Note_on_c, 0, 60, 64
5, 45119, Note_on_c, 0, 60, 0
5, 45120, Note_on_c, 0, 65, 64
5, 45120, Control_c, 0, 2, 64
5, 45120, Note_on_c, 0, 69, 64
5, 45239, Note_on_c, 0, 65, 0
5, 45239, Note_on_c, 0, 69, 0
5, 45360, Note_on_c, 0, 48, 64
5, 45360, Control_c, 0, 2, 64
5, 45439, Note_on_c, 0, 48, 0
5, 45520, Note_on_c, 0, 60, 64
5, 45599, Note_on_c, 0, 60, 0
5, 45600, Note_on_c, 0, 65, 64
5, 45600, Control_c, 0, 2, 64
5, 45600, Note_on_c, 0, 69, 64
5, 45679, Note_on_c, 0, 65, 0
5, 45679, Note_on_c, 0, 69, 0
5, 45760, Note_on_c, 0, 60, 64
5, 45839, Note_on_c, 0, 60, 0
5, 45840, Note_on_c, 0, 65, 64
5, 45840, Note_on_c, 0, 69, 64
5, 46079, Note_on_c, 0, 65, 0
5, 46079, Note_on_c, 0, 69, 0
5, 46080, Note_on_c, 0, 53, 64
5, 46080, Control_c, 0, 2, 64
5, 46159, Note_on_c, 0, 53, 0
5, 46240, Note_on_c, 0, 60, 64
5, 46319, Note_on_c, 0, 60, 0
5, 46320, Note_on_c, 0, 65, 64
5, 46320, Control_c, 0, 2, 64
5, 46320, Note_on_c, 0, 69, 64
5, 46399, Note_on_c, 0, 65, 0
5, 46399, Note_on_c, 0, 69, 0
5, 46480, Note_on_c, 0, 60, 64
5, 46559, Note_on_c, 0, 60, 0
5, 46560, Note_on_c, 0, 65, 64
5, 46560, Control_c, 0, 2, 64
5, 46560, Note_on_c, 0, 69, 64
5, 46679, Note_on_c, 0, 65, 0
5, 46679, Note_on_c, 0, 69, 0
5, 46800, Note_on_c, 0, 48, 64
5, 46800, Control_c, 0, 2, 64
5, 46879, Note_on_c, 0, 48, 0
5, 46960, Note_on_c, 0, 55, 64
5, 47039, Note_on_c, 0, 55, 0
5, 47040, Note_on_c, 0, 60, 64
5, 47040, Control_c, 0, 2, 64
5, 47040, Note_on_c, 0, 65, 64
5, 47119, Note_on_c, 0, 60, 0
5, 47119, Note_on_c, 0, 65, 0
5, 47200, Note_on_c, 0, 55, 64
5, 47279, Note_on_c, 0, 55, 0
5, 47280, Note_on_c, 0, 60, 64
5, 47280, Control_c, 0, 2, 64
5, 47280, Note_on_c, 0, 65, 64
5, 47519, Note_on_c, 0, 60, 0
5, 47519, Note_on_c, 0, 65, 0
5, 47520, Note_on_c, 0, 52, 64
5, 47520, Control_c, 0, 2, 64
5, 47599, Note_on_c, 0, 52, 0
5, 47680, Note_on_c, 0, 57, 64
5, 47759, Note_on_c, 0, 57, 0
5, 47760, Note_on_c, 0, 64, 64
5, 47760, Control_c, 0, 2, 64
5, 47760, Note_on_c, 0, 67, 64
5, 47839, Note_on_c, 0, 64, 0
5, 47839, Note_on_c, 0, 67, 0
5, 47920, Note_on_c, 0, 57, 64
5, 47999, Note_on_c, 0, 57, 0
5, 48000, Note_on_c, 0, 64, 64
5, 48000, Control_c, 0, 2, 64
5, 48000, Note_on_c, 0, 67, 64
5, 48119, Note_on_c, 0, 64, 0
5, 48119, Note_on_c, 0, 67, 0
5, 48240, Note_on_c, 0, 52, 64
5, 48240, Control_c, 0, 2, 64
5, 48319, Note_on_c, 0, 52, 0
5, 48400, Note_on_c, 0, 60, 64
5, 48479, Note_on_c, 0, 60, 0
5, 48480, Note_on_c, 0, 64, 64
5, 48480, Control_c, 0, 2, 64
5, 48480, Note_on_c, 0, 67, 64
5, 48559, Note_on_c, 0, 64, 0
5, 48559, Note_on_c, 0, 67, 0
5, 48640, Note_on_c, 0, 60, 64
5, 48719, Note_on_c, 0, 60, 0
5, 48720, Note_on_c, 0, 64, 64
5, 48720, Control_c, 0, 2, 64
5, 48720, Note_on_c, 0, 67, 64
5, 48959, Note_on_c, 0, 64, 0
5, 48959, Note_on_c, 0, 67, 0
5, 48960, Note_on_c, 0, 53, 64
5, 48960, Control_c, 0, 2, 64
5, 49039, Note_on_c, 0, 53, 0
5, 49120, Note_on_c, 0, 60, 64
5, 49199, Note_on_c, 0, 60, 0
5, 49200, Note_on_c, 0, 65, 64
5, 49200, Control_c, 0, 2, 64
5, 49200, Note_on_c, 0, 69, 64
5, 49279, Note_on_c, 0, 65, 0
5, 49279, Note_on_c, 0, 69, 0
5, 49360, Note_on_c, 0, 60, 64
5, 49439, Note_on_c, 0, 60, 0
5, 49440, Note_on_c, 0, 65, 64
5, 49440, Control_c, 0, 2, 64
5, 49440, Note_on_c, 0, 69, 64
5, 49559, Note_on_c, 0, 65, 0
5, 49559, Note_on_c, 0, 69, 0
5, 49680, Note_on_c, 0, 55, 64
5, 49680, Control_c, 0, 2, 64
5, 49759, Note_on_c, 0, 55, 0
5, 49840, Note_on_c, 0, 62, 64
5, 49919, Note_on_c, 0, 62, 0
5, 49920, Note_on_c, 0, 65, 64
5, 49920, Control_c, 0, 2, 64
5, 49920, Note_on_c, 0, 69, 64
5, 49999, Note_on_c, 0, 65, 0
5, 49999, Note_on_c, 0, 69, 0
5, 50080, Note_on_c, 0, 62, 64
5, 50159, Note_on_c, 0, 62, 0
5, 50160, Note_on_c, 0, 65, 64
5, 50160, Control_c, 0, 2, 64
5, 50160, Note_on_c, 0, 69, 64
5, 50399, Note_on_c, 0, 65, 0
5, 50399, Note_on_c, 0, 69, 0
5, 50400, Note_on_c, 0, 48, 64
5, 50400, Control_c, 0, 2, 64
5, 50639, Note_on_c, 0, 48, 0
5, 50640, Note_on_c, 0, 64, 64
5, 50640, Control_c, 0, 2, 64
5, 50640, Note_on_c, 0, 67, 64
5, 50879, Note_on_c, 0, 64, 0
5, 50879, Note_on_c, 0, 67, 0
5, 50880, Note_on_c, 0, 64, 64
5, 50880, Control_c, 0, 2, 64
5, 50880, Note_on_c, 0, 67, 64
5, 51119, Note_on_c, 0, 64, 0
5, 51119, Note_on_c, 0, 67, 0
5, 51120, Note_on_c, 0, 50, 64
5, 51120, Control_c, 0, 2, 64
5, 51359, Note_on_c, 0, 50, 0
5, 51360, Note_on_c, 0, 65, 64
5, 51360, Control_c, 0, 2, 64
5, 51360, Note_on_c, 0, 69, 64
5, 51599, Note_on_c, 0, 65, 0
5, 51599, Note_on_c, 0, 69, 0
5, 51600, Note_on_c, 0, 65, 64
5, 51600, Control_c, 0, 2, 64
5, 51600, Note_on_c, 0, 69, 64
5, 51839, Note_on_c, 0, 65, 0
5, 51839, Note_on_c, 0, 69, 0
5, 51840, Note_on_c, 0, 48, 64
5, 51840, Control_c, 0, 2, 64
5, 51919, Note_on_c, 0, 48, 0
5, 52000, Note_on_c, 0, 60, 64
5, 52079, Note_on_c, 0, 60, 0
5, 52080, Note_on_c, 0, 64, 64
5, 52080, Control_c, 0, 2, 64
5, 52080, Note_on_c, 0, 67, 64
5, 52159, Note_on_c, 0, 64, 0
5, 52159, Note_on_c, 0, 67, 0
5, 52240, Note_on_c, 0, 60, 64
5, 52319, Note_on_c, 0, 60, 0
5, 52320, Note_on_c, 0, 64, 64
5, 52320, Control_c, 0, 2, 64
5, 52320, Note_on_c, 0, 67, 64
5, 52559, Note_on_c, 0, 64, 0
5, 52559, Note_on_c, 0, 67, 0
5, 52560, Note_on_c, 0, 55, 64
5, 52560, Control_c, 0, 2, 64
5, 52639, Note_on_c, 0, 55, 0
5, 52720, Note_on_c, 0, 60, 64
5, 52799, Note_on_c, 0, 60, 0
5, 52800, Note_on_c, 0, 64, 64
5, 52800, Control_c, 0, 2, 64
5, 52800, Note_on_c, 0, 67, 64
5, 52879, Note_on_c, 0, 64, 0
5, 52879, Note_on_c, 0, 67, 0
5, 52960, Note_on_c, 0, 60, 64
5, 53039, Note_on_c, 0, 60, 0
5, 53040, Note_on_c, 0, 64, 64
5, 53040, Control_c, 0, 2, 64
5, 53040, Note_on_c, 0, 67, 64
5, 53279, Note_on_c, 0, 64, 0
5, 53279, Note_on_c, 0, 67, 0
5, 53280, Note_on_c, 0, 48, 64
5, 53280, Control_c, 0, 2, 64
5, 53359, Note_on_c, 0, 48, 0
5, 53440, Note_on_c, 0, 60, 64
5, 53519, Note_on_c, 0, 60, 0
5, 53520, Note_on_c, 0, 64, 64
5, 53520, Control_c, 0, 2, 64
5, 53520, Note_on_c, 0, 67, 64
5, 53599, Note_on_c, 0, 64, 0
5, 53599, Note_on_c, 0, 67, 0
5, 53680, Note_on_c, 0, 60, 64
5, 53759, Note_on_c, 0, 60, 0
5, 53760, Note_on_c, 0, 64, 64
5, 53760, Control_c, 0, 2, 64
5, 53760, Note_on_c, 0, 67, 64
5, 53999, Note_on_c, 0, 64, 0
5, 53999, Note_on_c, 0, 67, 0
5, 54000, Note_on_c, 0, 55, 64
5, 54000, Control_c, 0, 2, 64
5, 54079, Note_on_c, 0, 55, 0
5, 54160, Note_on_c, 0, 60, 64
5, 54239, Note_on_c, 0, 60, 0
5, 54240, Note_on_c, 0, 64, 64
5, 54240, Control_c, 0, 2, 64
5, 54240, Note_on_c, 0, 67, 64
5, 54319, Note_on_c, 0, 64, 0
5, 54319, Note_on_c, 0, 67, 0
5, 54400, Note_on_c, 0, 60, 64
5, 54479, Note_on_c, 0, 60, 0
5, 54480, Note_on_c, 0, 64, 64
5, 54480, Control_c, 0, 2, 64
5, 54480, Note_on_c, 0, 67, 64
5, 54719, Note_on_c, 0, 64, 0
5, 54719, Note_on_c, 0, 67, 0
5, 54720, Note_on_c, 0, 48, 64
5, 54720, Control_c, 0, 2, 64
5, 54799, Note_on_c, 0, 48, 0
5, 54880, Note_on_c, 0, 60, 64
5, 54959, Note_on_c, 0, 60, 0
5, 54960, Note_on_c, 0, 64, 64
5, 54960, Control_c, 0, 2, 64
5, 54960, Note_on_c, 0, 67, 64
5, 55039, Note_on_c, 0, 64, 0
5, 55039, Note_on_c, 0, 67, 0
5, 55120, Note_on_c, 0, 60, 64
5, 55199, Note_on_c, 0, 60, 0
5, 55200, Note_on_c, 0, 64, 64
5, 55200, Control_c, 0, 2, 64
5, 55200, Note_on_c, 0, 67, 64
5, 55439, Note_on_c, 0, 64, 0
5, 55439, Note_on_c, 0, 67, 0
5, 55440, Note_on_c, 0, 55, 64
5, 55440, Control_c, 0, 2, 64
5, 55519, Note_on_c, 0, 55, 0
5, 55600, Note_on_c, 0, 60, 64
5, 55679, Note_on_c, 0, 60, 0
5, 55680, Note_on_c, 0, 64, 64
5, 55680, Control_c, 0, 2, 64
5, 55680, Note_on_c, 0, 67, 64
5, 55759, Note_on_c, 0, 64, 0
5, 55759, Note_on_c, 0, 67, 0
5, 55840, Note_on_c, 0, 60, 64
5, 55919, Note_on_c, 0, 60, 0
5, 55920, Note_on_c, 0, 64, 64
5, 55920, Control_c, 0, 2, 64
5, 55920, Note_on_c, 0, 67, 64
5, 56159, Note_on_c, 0, 64, 0
5, 56159, Note_on_c, 0, 67, 0
5, 56160, Note_on_c, 0, 53, 64
5, 56160, Control_c, 0, 2, 64
5, 56239, Note_on_c, 0, 53, 0
5, 56320, Note_on_c, 0, 60, 64
5, 56399, Note_on_c, 0, 60, 0
5, 56400, Note_on_c, 0, 65, 64
5, 56400, Control_c, 0, 2, 64
5, 56400, Note_on_c, 0, 69, 64
5, 56479, Note_on_c, 0, 65, 0
5, 56479, Note_on_c, 0, 69, 0
5, 56560, Note_on_c, 0, 60, 64
5, 56639, Note_on_c, 0, 60, 0
5, 56640, Note_on_c, 0, 65, 64
5, 56640, Control_c, 0, 2, 64
5, 56640, Note_on_c, 0, 69, 64
5, 56759, Note_on_c, 0, 65, 0
5, 56759, Note_on_c, 0, 69, 0
5, 56880, Note_on_c, 0, 48, 64
5, 56880, Control_c, 0, 2, 64
5, 56959, Note_on_c, 0, 48, 0
5, 57040, Note_on_c, 0, 60, 64
5, 57119, Note_on_c, 0, 60, 0
5, 57120, Note_on_c, 0, 65, 64
5, 57120, Control_c, 0, 2, 64
5, 57120, Note_on_c, 0, 69, 64
5, 57199, Note_on_c, 0, 65, 0
5, 57199, Note_on_c, 0, 69, 0
5, 57280, Note_on_c, 0, 60, 64
5, 57359, Note_on_c, 0, 60, 0
5, 57360, Note_on_c, 0, 65, 64
5, 57360, Note_on_c, 0, 69, 64
5, 57599, Note_on_c, 0, 65, 0
5, 57599, Note_on_c, 0, 69, 0
5, 57600, Note_on_c, 0, 53, 64
5, 57600, Control_c, 0, 2, 64
5, 57679, Note_on_c, 0, 53, 0
5, 57760, Note_on_c, 0, 60, 64
5, 57839, Note_on_c, 0, 60, 0
5, 57840, Note_on_c, 0, 65, 64
5, 57840, Control_c, 0, 2, 64
5, 57840, Note_on_c, 0, 69, 64
5, 57919, Note_on_c, 0, 65, 0
5, 57919, Note_on_c, 0, 69, 0
5, 58000, Note_on_c, 0, 60, 64
5, 58079, Note_on_c, 0, 60, 0
5, 58080, Note_on_c, 0, 65, 64
5, 58080, Control_c, 0, 2, 64
5, 58080, Note_on_c, 0, 69, 64
5, 58199, Note_on_c, 0, 65, 0
5, 58199, Note_on_c, 0, 69, 0
5, 58320, Note_on_c, 0, 48, 64
5, 58320, Control_c, 0, 2, 64
5, 58399, Note_on_c, 0, 48, 0
5, 58480, Note_on_c, 0, 55, 64
5, 58559, Note_on_c, 0, 55, 0
5, 58560, Note_on_c, 0, 60, 64
5, 58560, Control_c, 0, 2, 64
5, 58560, Note_on_c, 0, 65, 64
5, 58639, Note_on_c, 0, 60, 0
5, 58639, Note_on_c, 0, 65, 0
5, 58720, Note_on_c, 0, 55, 64
5, 58799, Note_on_c, 0, 55, 0
5, 58800, Note_on_c, 0, 60, 64
5, 58800, Control_c, 0, 2, 64
5, 58800, Note_on_c, 0, 65, 64
5, 59039, Note_on_c, 0, 60, 0
5, 59039, Note_on_c, 0, 65, 0
5, 59040, Note_on_c, 0, 52, 64
5, 59040, Control_c, 0, 2, 64
5, 59119, Note_on_c, 0, 52, 0
5, 59200, Note_on_c, 0, 57, 64
5, 59279, Note_on_c, 0, 57, 0
5, 59280, Note_on_c, 0, 64, 64
5, 59280, Control_c, 0, 2, 64
5, 59280, Note_on_c, 0, 67, 64
5, 59359, Note_on_c, 0, 64, 0
5, 59359, Note_on_c, 0, 67, 0
5, 59440, Note_on_c, 0, 57, 64
5, 59519, Note_on_c, 0, 57, 0
5, 59520, Note_on_c, 0, 64, 64
5, 59520, Control_c, 0, 2, 64
5, 59520, Note_on_c, 0, 67, 64
5, 59639, Note_on_c, 0, 64, 0
5, 59639, Note_on_c, 0, 67, 0
5, 59760, Note_on_c, 0, 52, 64
5, 59760, Control_c, 0, 2, 64
5, 59839, Note_on_c, 0, 52, 0
5, 59920, Note_on_c, 0, 60, 64
5, 59999, Note_on_c, 0, 60, 0
5, 60000, Note_on_c, 0, 64, 64
5, 60000, Control_c, 0, 2, 64
5, 60000, Note_on_c, 0, 67, 64
5, 60079, Note_on_c, 0, 64, 0
5, 60079, Note_on_c, 0, 67, 0
5, 60160, Note_on_c, 0, 60, 64
5, 60239, Note_on_c, 0, 60, 0
5, 60240, Note_on_c, 0, 64, 64
5, 60240, Control_c, 0, 2, 64
5, 60240, Note_on_c, 0, 67, 64
5, 60479, Note_on_c, 0, 64, 0
5, 60479, Note_on_c, 0, 67, 0
5, 60480, Note_on_c, 0, 53, 64
5, 60480, Control_c, 0, 2, 64
5, 60559, Note_on_c, 0, 53, 0
5, 60640, Note_on_c, 0, 60, 64
5, 60719, Note_on_c, 0, 60, 0
5, 60720, Note_on_c, 0, 65, 64
5, 60720, Control_c, 0, 2, 64
5, 60720, Note_on_c, 0, 69, 64
5, 60799, Note_on_c, 0, 65, 0
5, 60799, Note_on_c, 0, 69, 0
5, 60880, Note_on_c, 0, 60, 64
5, 60959, Note_on_c, 0, 60, 0
5, 60960, Note_on_c, 0, 65, 64
5, 60960, Control_c, 0, 2, 64
5, 60960, Note_on_c, 0, 69, 64
5, 61079, Note_on_c, 0, 65, 0
5, 61079, Note_on_c, 0, 69, 0
5, 61200, Note_on_c, 0, 55, 64
5, 61200, Control_c, 0, 2, 64
5, 61279, Note_on_c, 0, 55, 0
5, 61360, Note_on_c, 0, 62, 64
5, 61439, Note_on_c, 0, 62, 0
5, 61440, Note_on_c, 0, 65, 64
5, 61440, Control_c, 0, 2, 64
5, 61440, Note_on_c, 0, 69, 64
5, 61519, Note_on_c, 0, 65, 0
5, 61519, Note_on_c, 0, 69, 0
5, 61600, Note_on_c, 0, 62, 64
5, 61679, Note_on_c, 0, 62, 0
5, 61680, Note_on_c, 0, 65, 64
5, 61680, Control_c, 0, 2, 64
5, 61680, Note_on_c, 0, 69, 64
5, 61919, Note_on_c, 0, 65, 0
5, 61919, Note_on_c, 0, 69, 0
5, 61920, Note_on_c, 0, 48, 64
5, 61920, Control_c, 0, 2, 64
5, 61999, Note_on_c, 0, 48, 0
5, 62080, Note_on_c, 0, 60, 64
5, 62159, Note_on_c, 0, 60, 0
5, 62160, Note_on_c, 0, 64, 64
5, 62160, Control_c, 0, 2, 64
5, 62160, Note_on_c, 0, 67, 64
5, 62239, Note_on_c, 0, 64, 0
5, 62239, Note_on_c, 0, 67, 0
5, 62320, Note_on_c, 0, 60, 64
5, 62399, Note_on_c, 0, 60, 0
5, 62400, Note_on_c, 0, 64, 64
5, 62400, Control_c, 0, 2, 64
5, 62400, Note_on_c, 0, 67, 64
5, 62639, Note_on_c, 0, 64, 0
5, 62639, Note_on_c, 0, 67, 0
5, 62640, Note_on_c, 0, 48, 64
5, 62640, Control_c, 0, 2, 64
5, 62719, Note_on_c, 0, 48, 0
5, 62800, Note_on_c, 0, 60, 64
5, 62879, Note_on_c, 0, 60, 0
5, 62880, Note_on_c, 0, 64, 64
5, 62880, Control_c, 0, 2, 64
5, 62880, Note_on_c, 0, 67, 64
5, 62959, Note_on_c, 0, 64, 0
5, 62959, Note_on_c, 0, 67, 0
5, 63040, Note_on_c, 0, 60, 64
5, 63119, Note_on_c, 0, 60, 0
5, 63120, Note_on_c, 0, 64, 64
5, 63120, Control_c, 0, 2, 64
5, 63120, Note_on_c, 0, 67, 64
5, 63359, Note_on_c, 0, 64, 0
5, 63359, Note_on_c, 0, 67, 0
5, 63360, Note_on_c, 0, 53, 64
5, 63360, Control_c, 0, 2, 64
5, 63439, Note_on_c, 0, 53, 0
5, 63520, Note_on_c, 0, 60, 64
5, 63599, Note_on_c, 0, 60, 0
5, 63600, Note_on_c, 0, 65, 64
5, 63600, Control_c, 0, 2, 64
5, 63600, Note_on_c, 0, 69, 64
5, 63679, Note_on_c, 0, 65, 0
5, 63679, Note_on_c, 0, 69, 0
5, 63760, Note_on_c, 0, 60, 64
5, 63839, Note_on_c, 0, 60, 0
5, 63840, Note_on_c, 0, 65, 64
5, 63840, Control_c, 0, 2, 64
5, 63840, Note_on_c, 0, 69, 64
5, 63959, Note_on_c, 0, 65, 0
5, 63959, Note_on_c, 0, 69, 0
5, 64080, Note_on_c, 0, 48, 64
5, 64080, Control_c, 0, 2, 64
5, 64159, Note_on_c, 0, 48, 0
5, 64240, Note_on_c, 0, 55, 64
5, 64319, Note_on_c, 0, 55, 0
5, 64320, Note_on_c, 0, 60, 64
5, 64320, Control_c, 0, 2, 64
5, 64320, Note_on_c, 0, 65, 64
5, 64399, Note_on_c, 0, 60, 0
5, 64399, Note_on_c, 0, 65, 0
5, 64480, Note_on_c, 0, 55, 64
5, 64559, Note_on_c, 0, 55, 0
5, 64560, Note_on_c, 0, 60, 64
5, 64560, Control_c, 0, 2, 64
5, 64560, Note_on_c, 0, 65, 64
5, 64799, Note_on_c, 0, 60, 0
5, 64799, Note_on_c, 0, 65, 0
5, 64800, Note_on_c, 0, 52, 64
5, 64800, Control_c, 0, 2, 64
5, 64879, Note_on_c, 0, 52, 0
5, 64960, Note_on_c, 0, 57, 64
5, 65039, Note_on_c, 0, 57, 0
5, 65040, Note_on_c, 0, 64, 64
5, 65040, Control_c, 0, 2, 64
5, 65040, Note_on_c, 0, 67, 64
5, 65119, Note_on_c, 0, 64, 0
5, 65119, Note_on_c, 0, 67, 0
5, 65200, Note_on_c, 0, 57, 64
5, 65279, Note_on_c, 0, 57, 0
5, 65280, Note_on_c, 0, 64, 64
5, 65280, Control_c, 0, 2, 64
5, 65280, Note_on_c, 0, 67, 64
5, 65399, Note_on_c, 0, 64, 0
5, 65399, Note_on_c, 0, 67, 0
5, 65520, Note_on_c, 0, 52, 64
5, 65520, Control_c, 0, 2, 64
5, 65599, Note_on_c, 0, 52, 0
5, 65680, Note_on_c, 0, 60, 64
5, 65759, Note_on_c, 0, 60, 0
5, 65760, Note_on_c, 0, 64, 64
5, 65760, Control_c, 0, 2, 64
5, 65760, Note_on_c, 0, 67, 64
5, 65839, Note_on_c, 0, 64, 0
5, 65839, Note_on_c, 0, 67, 0
5, 65920, Note_on_c, 0, 60, 64
5, 65999, Note_on_c, 0, 60, 0
5, 66000, Note_on_c, 0, 64, 64
5, 66000, Control_c, 0, 2, 64
5, 66000, Note_on_c, 0, 67, 64
5, 66239, Note_on_c, 0, 64, 0
5, 66239, Note_on_c, 0, 67, 0
5, 66240, Note_on_c, 0, 53, 64
5, 66240, Control_c, 0, 2, 64
5, 66319, Note_on_c, 0, 53, 0
5, 66400, Note_on_c, 0, 60, 64
5, 66479, Note_on_c, 0, 60, 0
5, 66480, Note_on_c, 0, 65, 64
5, 66480, Control_c, 0, 2, 64
5, 66480, Note_on_c, 0, 69, 64
5, 66559, Note_on_c, 0, 65, 0
5, 66559, Note_on_c, 0, 69, 0
5, 66640, Note_on_c, 0, 60, 64
5, 66719, Note_on_c, 0, 60, 0
5, 66720, Note_on_c, 0, 65, 64
5, 66720, Control_c, 0, 2, 64
5, 66720, Note_on_c, 0, 69, 64
5, 66839, Note_on_c, 0, 65, 0
5, 66839, Note_on_c, 0, 69, 0
5, 66960, Note_on_c, 0, 55, 64
5, 66960, Control_c, 0, 2, 64
5, 67039, Note_on_c, 0, 55, 0
5, 67120, Note_on_c, 0, 62, 64
5, 67199, Note_on_c, 0, 62, 0
5, 67200, Note_on_c, 0, 65, 64
5, 67200, Control_c, 0, 2, 64
5, 67200, Note_on_c, 0, 69, 64
5, 67279, Note_on_c, 0, 65, 0
5, 67279, Note_on_c, 0, 69, 0
5, 67360, Note_on_c, 0, 62, 64
5, 67439, Note_on_c, 0, 62, 0
5, 67440, Note_on_c, 0, 65, 64
5, 67440, Control_c, 0, 2, 64
5, 67440, Note_on_c, 0, 69, 64
5, 67679, Note_on_c, 0, 65, 0
5, 67679, Note_on_c, 0, 69, 0
5, 67680, Note_on_c, 0, 48, 64
5, 67680, Control_c, 0, 2, 64
5, 67919, Note_on_c, 0, 48, 0
5, 67920, Note_on_c, 0, 64, 64
5, 67920, Control_c, 0, 2, 64
5, 67920, Note_on_c, 0, 67, 64
5, 68159, Note_on_c, 0, 64, 0
5, 68159, Note_on_c, 0, 67, 0
5, 68160, Note_on_c, 0, 64, 64
5, 68160, Control_c, 0, 2, 64
5, 68160, Note_on_c, 0, 67, 64
5, 68399, Note_on_c, 0, 64, 0
5, 68399, Note_on_c, 0, 67, 0
5, 68400, Note_on_c, 0, 48, 64
5, 68400, Control_c, 0, 2, 64
5, 69120, Control_c, 0, 2, 64
5, 69359, Note_on_c, 0, 48, 0
5, 70560, Control_c, 0, 64, 0
5, 70561, End_track
0, 0, End_of_file
