0, 0, Header, 1, 4, 480
1, 0, Start_track
1, 0, Title_t, "Piano, Piano\000"
1, 0, Time_signature, 4, 2, 24, 8
1, 0, Key_signature, 0, "major"
1, 0, Tempo, 1000000
1, 0, Control_c, 0, 121, 0
1, 0, Program_c, 0, 0
1, 0, Control_c, 0, 7, 100
1, 0, Control_c, 0, 10, 64
1, 0, Control_c, 0, 91, 0
1, 0, Control_c, 0, 93, 0
1, 0, MIDI_port, 0
1, 0, Note_on_c, 0, 71, 80
1, 0, Note_on_c, 0, 72, 80
1, 0, Note_on_c, 0, 76, 80
1, 911, Note_on_c, 0, 71, 0
1, 911, Note_on_c, 0, 72, 0
1, 911, Note_on_c, 0, 76, 0
1, 960, Note_on_c, 0, 67, 80
1, 960, Note_on_c, 0, 71, 80
1, 960, Note_on_c, 0, 76, 80
1, 1415, Note_on_c, 0, 67, 0
1, 1415, Note_on_c, 0, 71, 0
1, 1415, Note_on_c, 0, 76, 0
1, 1440, Note_on_c, 0, 83, 80
1, 1781, Note_on_c, 0, 83, 0
1, 1890, Note_on_c, 0, 76, 80
1, 1917, Note_on_c, 0, 76, 0
1, 1920, Note_on_c, 0, 81, 80
1, 2375, Note_on_c, 0, 81, 0
1, 2400, Note_on_c, 0, 76, 80
1, 2627, Note_on_c, 0, 76, 0
1, 2640, Note_on_c, 0, 81, 80
1, 2753, Note_on_c, 0, 81, 0
1, 2850, Note_on_c, 0, 74, 80
1, 2877, Note_on_c, 0, 74, 0
1, 2880, Note_on_c, 0, 79, 80
1, 3335, Note_on_c, 0, 79, 0
1, 3360, Note_on_c, 0, 74, 80
1, 3587, Note_on_c, 0, 74, 0
1, 3600, Note_on_c, 0, 71, 80
1, 3713, Note_on_c, 0, 71, 0
1, 3780, Note_on_c, 0, 65, 80
1, 3807, Note_on_c, 0, 65, 0
1, 3810, Note_on_c, 0, 71, 80
1, 3837, Note_on_c, 0, 71, 0
1, 3840, Note_on_c, 0, 72, 80
1, 4295, Note_on_c, 0, 72, 0
1, 4560, Note_on_c, 0, 72, 80
1, 4787, Note_on_c, 0, 72, 0
1, 4800, Note_on_c, 0, 65, 80
1, 4800, Note_on_c, 0, 71, 80
1, 5255, Note_on_c, 0, 65, 0
1, 5255, Note_on_c, 0, 71, 0
1, 5280, Note_on_c, 0, 71, 80
1, 5280, Note_on_c, 0, 76, 80
1, 5507, Note_on_c, 0, 71, 0
1, 5507, Note_on_c, 0, 76, 0
1, 5520, Note_on_c, 0, 74, 80
1, 5639, Note_on_c, 0, 74, 0
1, 5760, Note_on_c, 0, 76, 80
1, 6215, Note_on_c, 0, 76, 0
1, 6240, Note_on_c, 0, 67, 80
1, 6467, Note_on_c, 0, 67, 0
1, 6480, Note_on_c, 0, 71, 80
1, 6707, Note_on_c, 0, 71, 0
1, 6720, Note_on_c, 0, 62, 80
1, 6720, Note_on_c, 0, 65, 80
1, 6720, Note_on_c, 0, 69, 80
1, 6947, Note_on_c, 0, 62, 0
1, 6947, Note_on_c, 0, 65, 0
1, 6947, Note_on_c, 0, 69, 0
1, 6960, Note_on_c, 0, 62, 80
1, 7187, Note_on_c, 0, 62, 0
1, 7200, Note_on_c, 0, 67, 80
1, 7427, Note_on_c, 0, 67, 0
1, 7440, Note_on_c, 0, 65, 80
1, 7559, Note_on_c, 0, 65, 0
1, 7680, Note_on_c, 0, 76, 80
1, 8591, Note_on_c, 0, 76, 0
1, 8640, Note_on_c, 0, 67, 80
1, 8640, Note_on_c, 0, 71, 80
1, 8640, Note_on_c, 0, 76, 80
1, 9095, Note_on_c, 0, 67, 0
1, 9095, Note_on_c, 0, 71, 0
1, 9095, Note_on_c, 0, 76, 0
1, 9120, Note_on_c, 0, 83, 80
1, 9461, Note_on_c, 0, 83, 0
1, 9570, Note_on_c, 0, 76, 80
1, 9597, Note_on_c, 0, 76, 0
1, 9600, Note_on_c, 0, 81, 80
1, 10055, Note_on_c, 0, 81, 0
1, 10080, Note_on_c, 0, 76, 80
1, 10307, Note_on_c, 0, 76, 0
1, 10320, Note_on_c, 0, 81, 80
1, 10433, Note_on_c, 0, 81, 0
1, 10530, Note_on_c, 0, 74, 80
1, 10557, Note_on_c, 0, 74, 0
1, 10560, Note_on_c, 0, 79, 80
1, 11015, Note_on_c, 0, 79, 0
1, 11040, Note_on_c, 0, 74, 80
1, 11267, Note_on_c, 0, 74, 0
1, 11280, Note_on_c, 0, 71, 80
1, 11393, Note_on_c, 0, 71, 0
1, 11460, Note_on_c, 0, 65, 80
1, 11487, Note_on_c, 0, 65, 0
1, 11490, Note_on_c, 0, 71, 80
1, 11517, Note_on_c, 0, 71, 0
1, 11520, Note_on_c, 0, 72, 80
1, 11975, Note_on_c, 0, 72, 0
1, 12240, Note_on_c, 0, 72, 80
1, 12467, Note_on_c, 0, 72, 0
1, 12480, Note_on_c, 0, 65, 80
1, 12480, Note_on_c, 0, 71, 80
1, 12935, Note_on_c, 0, 65, 0
1, 12935, Note_on_c, 0, 71, 0
1, 12960, Note_on_c, 0, 71, 80
1, 12960, Note_on_c, 0, 76, 80
1, 13187, Note_on_c, 0, 71, 0
1, 13187, Note_on_c, 0, 76, 0
1, 13200, Note_on_c, 0, 74, 80
1, 13319, Note_on_c, 0, 74, 0
1, 13440, Note_on_c, 0, 76, 80
1, 13895, Note_on_c, 0, 76, 0
1, 13920, Note_on_c, 0, 67, 80
1, 14147, Note_on_c, 0, 67, 0
1, 14160, Note_on_c, 0, 71, 80
1, 14387, Note_on_c, 0, 71, 0
1, 14400, Note_on_c, 0, 62, 80
1, 14400, Note_on_c, 0, 65, 80
1, 14400, Note_on_c, 0, 69, 80
1, 14627, Note_on_c, 0, 62, 0
1, 14627, Note_on_c, 0, 65, 0
1, 14627, Note_on_c, 0, 69, 0
1, 14640, Note_on_c, 0, 62, 80
1, 14867, Note_on_c, 0, 62, 0
1, 14880, Note_on_c, 0, 67, 80
1, 15107, Note_on_c, 0, 67, 0
1, 15120, Note_on_c, 0, 65, 80
1, 15347, Note_on_c, 0, 65, 0
1, 15360, Note_on_c, 0, 59, 80
1, 15360, Note_on_c, 0, 60, 80
1, 15360, Note_on_c, 0, 64, 80
1, 15815, Note_on_c, 0, 59, 0
1, 15815, Note_on_c, 0, 60, 0
1, 15815, Note_on_c, 0, 64, 0
1, 15840, Note_on_c, 0, 64, 80
1, 15840, Note_on_c, 0, 69, 80
1, 15840, Note_on_c, 0, 72, 80
1, 16295, Note_on_c, 0, 64, 0
1, 16295, Note_on_c, 0, 69, 0
1, 16295, Note_on_c, 0, 72, 0
1, 16320, Note_on_c, 0, 64, 80
1, 16320, Note_on_c, 0, 67, 80
1, 16320, Note_on_c, 0, 71, 80
1, 16775, Note_on_c, 0, 64, 0
1, 16775, Note_on_c, 0, 67, 0
1, 16775, Note_on_c, 0, 71, 0
1, 16800, Note_on_c, 0, 67, 80
1, 16800, Note_on_c, 0, 71, 80
1, 16800, Note_on_c, 0, 76, 80
1, 17255, Note_on_c, 0, 67, 0
1, 17255, Note_on_c, 0, 71, 0
1, 17255, Note_on_c, 0, 76, 0
1, 17280, Note_on_c, 0, 65, 80
1, 17280, Note_on_c, 0, 69, 80
1, 17280, Note_on_c, 0, 76, 80
1, 17735, Note_on_c, 0, 65, 0
1, 17735, Note_on_c, 0, 69, 0
1, 17735, Note_on_c, 0, 76, 0
1, 17760, Note_on_c, 0, 64, 80
1, 17760, Note_on_c, 0, 65, 80
1, 17760, Note_on_c, 0, 69, 80
1, 18215, Note_on_c, 0, 64, 0
1, 18215, Note_on_c, 0, 65, 0
1, 18215, Note_on_c, 0, 69, 0
1, 18240, Note_on_c, 0, 67, 80
1, 18240, Note_on_c, 0, 74, 80
1, 18695, Note_on_c, 0, 67, 0
1, 18695, Note_on_c, 0, 74, 0
1, 18720, Note_on_c, 0, 60, 80
1, 18720, Note_on_c, 0, 62, 80
1, 18720, Note_on_c, 0, 67, 80
1, 19061, Note_on_c, 0, 60, 0
1, 19061, Note_on_c, 0, 62, 0
1, 19061, Note_on_c, 0, 67, 0
1, 19140, Note_on_c, 0, 64, 80
1, 19167, Note_on_c, 0, 64, 0
1, 19170, Note_on_c, 0, 65, 80
1, 19197, Note_on_c, 0, 65, 0
1, 19200, Note_on_c, 0, 72, 80
1, 19883, Note_on_c, 0, 72, 0
1, 19920, Note_on_c, 0, 65, 80
1, 20147, Note_on_c, 0, 65, 0
1, 20160, Note_on_c, 0, 64, 80
1, 20160, Note_on_c, 0, 67, 80
1, 20387, Note_on_c, 0, 64, 0
1, 20387, Note_on_c, 0, 67, 0
1, 20400, Note_on_c, 0, 62, 80
1, 20400, Note_on_c, 0, 65, 80
1, 20627, Note_on_c, 0, 62, 0
1, 20627, Note_on_c, 0, 65, 0
1, 20640, Note_on_c, 0, 60, 80
1, 20640, Note_on_c, 0, 64, 80
1, 20867, Note_on_c, 0, 60, 0
1, 20867, Note_on_c, 0, 64, 0
1, 20880, Note_on_c, 0, 62, 80
1, 20999, Note_on_c, 0, 62, 0
1, 21120, Note_on_c, 0, 64, 80
1, 21120, Note_on_c, 0, 60, 80
1, 21575, Note_on_c, 0, 60, 0
1, 21803, Note_on_c, 0, 64, 0
1, 21840, Note_on_c, 0, 64, 80
1, 22067, Note_on_c, 0, 64, 0
1, 22080, Note_on_c, 0, 62, 80
1, 22080, Note_on_c, 0, 65, 80
1, 22319, Note_on_c, 0, 62, 0
1, 22319, Note_on_c, 0, 65, 0
1, 22560, Note_on_c, 0, 60, 80
1, 22560, Note_on_c, 0, 62, 80
1, 22560, Note_on_c, 0, 67, 80
1, 22787, Note_on_c, 0, 60, 0
1, 22787, Note_on_c, 0, 62, 0
1, 22787, Note_on_c, 0, 67, 0
1, 22800, Note_on_c, 0, 65, 80
1, 23027, Note_on_c, 0, 65, 0
1, 23040, Note_on_c, 0, 60, 80
1, 23040, Note_on_c, 0, 64, 80
1, 23267, Note_on_c, 0, 60, 0
1, 23267, Note_on_c, 0, 64, 0
1, 23280, Note_on_c, 0, 60, 80
1, 23280, Note_on_c, 0, 64, 80
1, 23507, Note_on_c, 0, 60, 0
1, 23507, Note_on_c, 0, 64, 0
1, 23520, Note_on_c, 0, 60, 80
1, 23520, Note_on_c, 0, 64, 80
1, 23747, Note_on_c, 0, 60, 0
1, 23747, Note_on_c, 0, 64, 0
1, 23760, Note_on_c, 0, 60, 80
1, 23760, Note_on_c, 0, 64, 80
1, 23987, Note_on_c, 0, 60, 0
1, 23987, Note_on_c, 0, 64, 0
1, 24000, Note_on_c, 0, 60, 80
1, 24000, Note_on_c, 0, 64, 80
1, 24227, Note_on_c, 0, 60, 0
1, 24227, Note_on_c, 0, 64, 0
1, 24240, Note_on_c, 0, 60, 80
1, 24240, Note_on_c, 0, 64, 80
1, 24467, Note_on_c, 0, 60, 0
1, 24467, Note_on_c, 0, 64, 0
1, 24480, Note_on_c, 0, 60, 80
1, 24480, Note_on_c, 0, 64, 80
1, 24707, Note_on_c, 0, 60, 0
1, 24707, Note_on_c, 0, 64, 0
1, 24720, Note_on_c, 0, 60, 80
1, 24720, Note_on_c, 0, 64, 80
1, 24947, Note_on_c, 0, 60, 0
1, 24947, Note_on_c, 0, 64, 0
1, 24960, Note_on_c, 0, 60, 80
1, 24960, Note_on_c, 0, 64, 80
1, 25187, Note_on_c, 0, 60, 0
1, 25187, Note_on_c, 0, 64, 0
1, 25200, Note_on_c, 0, 60, 80
1, 25200, Note_on_c, 0, 64, 80
1, 25427, Note_on_c, 0, 60, 0
1, 25427, Note_on_c, 0, 64, 0
1, 25440, Note_on_c, 0, 60, 80
1, 25440, Note_on_c, 0, 64, 80
1, 25667, Note_on_c, 0, 60, 0
1, 25667, Note_on_c, 0, 64, 0
1, 25680, Note_on_c, 0, 60, 80
1, 25680, Note_on_c, 0, 64, 80
1, 25907, Note_on_c, 0, 60, 0
1, 25907, Note_on_c, 0, 64, 0
1, 25920, Note_on_c, 0, 60, 80
1, 25920, Note_on_c, 0, 64, 80
1, 26147, Note_on_c, 0, 60, 0
1, 26147, Note_on_c, 0, 64, 0
1, 26160, Note_on_c, 0, 60, 80
1, 26160, Note_on_c, 0, 64, 80
1, 26387, Note_on_c, 0, 60, 0
1, 26387, Note_on_c, 0, 64, 0
1, 26400, Note_on_c, 0, 60, 80
1, 26400, Note_on_c, 0, 64, 80
1, 26627, Note_on_c, 0, 60, 0
1, 26627, Note_on_c, 0, 64, 0
1, 26640, Note_on_c, 0, 60, 80
1, 26640, Note_on_c, 0, 64, 80
1, 26867, Note_on_c, 0, 60, 0
1, 26867, Note_on_c, 0, 64, 0
1, 26880, Note_on_c, 0, 60, 80
1, 26880, Note_on_c, 0, 64, 80
1, 27107, Note_on_c, 0, 60, 0
1, 27107, Note_on_c, 0, 64, 0
1, 27120, Note_on_c, 0, 60, 80
1, 27120, Note_on_c, 0, 64, 80
1, 27347, Note_on_c, 0, 60, 0
1, 27347, Note_on_c, 0, 64, 0
1, 27360, Note_on_c, 0, 60, 80
1, 27360, Note_on_c, 0, 64, 80
1, 27587, Note_on_c, 0, 60, 0
1, 27587, Note_on_c, 0, 64, 0
1, 27600, Note_on_c, 0, 60, 80
1, 27600, Note_on_c, 0, 64, 80
1, 27827, Note_on_c, 0, 60, 0
1, 27827, Note_on_c, 0, 64, 0
1, 27840, Note_on_c, 0, 60, 80
1, 27840, Note_on_c, 0, 64, 80
1, 28067, Note_on_c, 0, 60, 0
1, 28067, Note_on_c, 0, 64, 0
1, 28080, Note_on_c, 0, 60, 80
1, 28080, Note_on_c, 0, 64, 80
1, 28307, Note_on_c, 0, 60, 0
1, 28307, Note_on_c, 0, 64, 0
1, 28320, Note_on_c, 0, 60, 80
1, 28320, Note_on_c, 0, 64, 80
1, 28547, Note_on_c, 0, 60, 0
1, 28547, Note_on_c, 0, 64, 0
1, 28560, Note_on_c, 0, 60, 80
1, 28560, Note_on_c, 0, 64, 80
1, 28787, Note_on_c, 0, 60, 0
1, 28787, Note_on_c, 0, 64, 0
1, 28800, Note_on_c, 0, 60, 80
1, 28800, Note_on_c, 0, 64, 80
1, 29027, Note_on_c, 0, 60, 0
1, 29027, Note_on_c, 0, 64, 0
1, 29040, Note_on_c, 0, 60, 80
1, 29040, Note_on_c, 0, 64, 80
1, 29267, Note_on_c, 0, 60, 0
1, 29267, Note_on_c, 0, 64, 0
1, 29280, Note_on_c, 0, 60, 80
1, 29280, Note_on_c, 0, 64, 80
1, 29507, Note_on_c, 0, 60, 0
1, 29507, Note_on_c, 0, 64, 0
1, 29520, Note_on_c, 0, 60, 80
1, 29520, Note_on_c, 0, 64, 80
1, 29747, Note_on_c, 0, 60, 0
1, 29747, Note_on_c, 0, 64, 0
1, 29760, Note_on_c, 0, 60, 80
1, 29760, Note_on_c, 0, 64, 80
1, 29987, Note_on_c, 0, 60, 0
1, 29987, Note_on_c, 0, 64, 0
1, 30000, Note_on_c, 0, 60, 80
1, 30000, Note_on_c, 0, 64, 80
1, 30227, Note_on_c, 0, 60, 0
1, 30227, Note_on_c, 0, 64, 0
1, 30240, Note_on_c, 0, 60, 80
1, 30240, Note_on_c, 0, 64, 80
1, 30467, Note_on_c, 0, 60, 0
1, 30467, Note_on_c, 0, 64, 0
1, 30480, Note_on_c, 0, 60, 80
1, 30480, Note_on_c, 0, 64, 80
1, 30707, Note_on_c, 0, 60, 0
1, 30707, Note_on_c, 0, 64, 0
1, 30720, Note_on_c, 0, 60, 80
1, 30720, Note_on_c, 0, 64, 80
1, 30947, Note_on_c, 0, 60, 0
1, 30947, Note_on_c, 0, 64, 0
1, 30960, Note_on_c, 0, 60, 80
1, 30960, Note_on_c, 0, 64, 80
1, 31187, Note_on_c, 0, 60, 0
1, 31187, Note_on_c, 0, 64, 0
1, 31200, Note_on_c, 0, 60, 80
1, 31200, Note_on_c, 0, 64, 80
1, 31427, Note_on_c, 0, 60, 0
1, 31427, Note_on_c, 0, 64, 0
1, 31440, Note_on_c, 0, 60, 80
1, 31440, Note_on_c, 0, 64, 80
1, 31667, Note_on_c, 0, 60, 0
1, 31667, Note_on_c, 0, 64, 0
1, 31680, Note_on_c, 0, 60, 80
1, 31680, Note_on_c, 0, 64, 80
1, 31907, Note_on_c, 0, 60, 0
1, 31907, Note_on_c, 0, 64, 0
1, 31920, Note_on_c, 0, 60, 80
1, 31920, Note_on_c, 0, 64, 80
1, 32147, Note_on_c, 0, 60, 0
1, 32147, Note_on_c, 0, 64, 0
1, 32160, Note_on_c, 0, 60, 80
1, 32160, Note_on_c, 0, 64, 80
1, 32387, Note_on_c, 0, 60, 0
1, 32387, Note_on_c, 0, 64, 0
1, 32400, Note_on_c, 0, 60, 80
1, 32400, Note_on_c, 0, 64, 80
1, 32627, Note_on_c, 0, 60, 0
1, 32627, Note_on_c, 0, 64, 0
1, 32640, Note_on_c, 0, 60, 80
1, 32640, Note_on_c, 0, 64, 80
1, 32867, Note_on_c, 0, 60, 0
1, 32867, Note_on_c, 0, 64, 0
1, 32880, Note_on_c, 0, 60, 80
1, 32880, Note_on_c, 0, 64, 80
1, 33107, Note_on_c, 0, 60, 0
1, 33107, Note_on_c, 0, 64, 0
1, 33120, Note_on_c, 0, 60, 80
1, 33120, Note_on_c, 0, 64, 80
1, 33347, Note_on_c, 0, 60, 0
1, 33347, Note_on_c, 0, 64, 0
1, 33360, Note_on_c, 0, 60, 80
1, 33360, Note_on_c, 0, 64, 80
1, 33587, Note_on_c, 0, 60, 0
1, 33587, Note_on_c, 0, 64, 0
1, 33600, Note_on_c, 0, 60, 80
1, 33600, Note_on_c, 0, 64, 80
1, 33827, Note_on_c, 0, 60, 0
1, 33827, Note_on_c, 0, 64, 0
1, 33840, Note_on_c, 0, 60, 80
1, 33840, Note_on_c, 0, 64, 80
1, 34067, Note_on_c, 0, 60, 0
1, 34067, Note_on_c, 0, 64, 0
1, 34080, Note_on_c, 0, 60, 80
1, 34080, Note_on_c, 0, 64, 80
1, 34307, Note_on_c, 0, 60, 0
1, 34307, Note_on_c, 0, 64, 0
1, 34320, Note_on_c, 0, 60, 80
1, 34320, Note_on_c, 0, 64, 80
1, 34547, Note_on_c, 0, 60, 0
1, 34547, Note_on_c, 0, 64, 0
1, 34560, Note_on_c, 0, 60, 80
1, 34560, Note_on_c, 0, 64, 80
1, 34787, Note_on_c, 0, 60, 0
1, 34787, Note_on_c, 0, 64, 0
1, 34800, Note_on_c, 0, 60, 80
1, 34800, Note_on_c, 0, 64, 80
1, 35027, Note_on_c, 0, 60, 0
1, 35027, Note_on_c, 0, 64, 0
1, 35040, Note_on_c, 0, 60, 80
1, 35040, Note_on_c, 0, 64, 80
1, 35267, Note_on_c, 0, 60, 0
1, 35267, Note_on_c, 0, 64, 0
1, 35280, Note_on_c, 0, 60, 80
1, 35280, Note_on_c, 0, 64, 80
1, 35507, Note_on_c, 0, 60, 0
1, 35507, Note_on_c, 0, 64, 0
1, 35520, Note_on_c, 0, 60, 80
1, 35520, Note_on_c, 0, 64, 80
1, 35747, Note_on_c, 0, 60, 0
1, 35747, Note_on_c, 0, 64, 0
1, 35760, Note_on_c, 0, 60, 80
1, 35760, Note_on_c, 0, 64, 80
1, 35987, Note_on_c, 0, 60, 0
1, 35987, Note_on_c, 0, 64, 0
1, 36000, Note_on_c, 0, 60, 80
1, 36000, Note_on_c, 0, 64, 80
1, 36227, Note_on_c, 0, 60, 0
1, 36227, Note_on_c, 0, 64, 0
1, 36240, Note_on_c, 0, 60, 80
1, 36240, Note_on_c, 0, 64, 80
1, 36467, Note_on_c, 0, 60, 0
1, 36467, Note_on_c, 0, 64, 0
1, 36480, Note_on_c, 0, 60, 80
1, 36935, Note_on_c, 0, 60, 0
1, 36960, Note_on_c, 0, 59, 80
1, 37187, Note_on_c, 0, 59, 0
1, 37200, Note_on_c, 0, 64, 80
1, 37427, Note_on_c, 0, 64, 0
1, 37440, Note_on_c, 0, 59, 80
1, 37440, Note_on_c, 0, 62, 80
1, 37440, Note_on_c, 0, 65, 80
1, 37895, Note_on_c, 0, 59, 0
1, 37895, Note_on_c, 0, 62, 0
1, 37895, Note_on_c, 0, 65, 0
1, 37920, Note_on_c, 0, 55, 80
1, 37920, Note_on_c, 0, 59, 80
1, 37920, Note_on_c, 0, 64, 80
1, 38375, Note_on_c, 0, 55, 0
1, 38375, Note_on_c, 0, 59, 0
1, 38375, Note_on_c, 0, 64, 0
1, 38400, Note_on_c, 0, 64, 80
1, 38475, Note_on_c, 0, 64, 0
1, 38480, Note_on_c, 0, 69, 80
1, 38555, Note_on_c, 0, 69, 0
1, 38560, Note_on_c, 0, 71, 80
1, 38635, Note_on_c, 0, 71, 0
1, 38640, Note_on_c, 0, 72, 80
1, 38715, Note_on_c, 0, 72, 0
1, 38720, Note_on_c, 0, 76, 80
1, 38795, Note_on_c, 0, 76, 0
1, 38800, Note_on_c, 0, 81, 80
1, 38875, Note_on_c, 0, 81, 0
1, 38880, Note_on_c, 0, 72, 80
1, 38880, Note_on_c, 0, 76, 80
1, 38880, Note_on_c, 0, 81, 80
1, 39335, Note_on_c, 0, 72, 0
1, 39335, Note_on_c, 0, 76, 0
1, 39335, Note_on_c, 0, 81, 0
1, 39360, Note_on_c, 0, 76, 80
1, 39360, Note_on_c, 0, 79, 80
1, 39360, Note_on_c, 0, 83, 80
1, 39587, Note_on_c, 0, 76, 0
1, 39587, Note_on_c, 0, 79, 0
1, 39587, Note_on_c, 0, 83, 0
1, 39600, Note_on_c, 0, 71, 80
1, 39827, Note_on_c, 0, 71, 0
1, 39840, Note_on_c, 0, 76, 80
1, 40067, Note_on_c, 0, 76, 0
1, 40080, Note_on_c, 0, 83, 80
1, 40307, Note_on_c, 0, 83, 0
1, 40320, Note_on_c, 0, 72, 80
1, 40320, Note_on_c, 0, 77, 80
1, 40320, Note_on_c, 0, 81, 80
1, 40547, Note_on_c, 0, 72, 0
1, 40547, Note_on_c, 0, 77, 0
1, 40547, Note_on_c, 0, 81, 0
1, 40560, Note_on_c, 0, 76, 80
1, 40635, Note_on_c, 0, 76, 0
1, 40640, Note_on_c, 0, 72, 80
1, 40715, Note_on_c, 0, 72, 0
1, 40720, Note_on_c, 0, 69, 80
1, 40795, Note_on_c, 0, 69, 0
1, 40800, Note_on_c, 0, 72, 80
1, 40875, Note_on_c, 0, 72, 0
1, 40880, Note_on_c, 0, 69, 80
1, 40955, Note_on_c, 0, 69, 0
1, 40960, Note_on_c, 0, 64, 80
1, 41035, Note_on_c, 0, 64, 0
1, 41040, Note_on_c, 0, 69, 80
1, 41115, Note_on_c, 0, 69, 0
1, 41120, Note_on_c, 0, 64, 80
1, 41195, Note_on_c, 0, 64, 0
1, 41200, Note_on_c, 0, 60, 80
1, 41275, Note_on_c, 0, 60, 0
1, 41280, Note_on_c, 0, 67, 80
1, 41280, Note_on_c, 0, 74, 80
1, 41507, Note_on_c, 0, 67, 0
1, 41507, Note_on_c, 0, 74, 0
1, 41520, Note_on_c, 0, 67, 80
1, 41520, Note_on_c, 0, 72, 80
1, 41747, Note_on_c, 0, 67, 0
1, 41747, Note_on_c, 0, 72, 0
1, 41760, Note_on_c, 0, 67, 80
1, 41760, Note_on_c, 0, 71, 80
1, 41987, Note_on_c, 0, 67, 0
1, 41987, Note_on_c, 0, 71, 0
1, 42000, Note_on_c, 0, 67, 80
1, 42000, Note_on_c, 0, 72, 80
1, 42227, Note_on_c, 0, 67, 0
1, 42227, Note_on_c, 0, 72, 0
1, 42240, Note_on_c, 0, 65, 80
1, 42467, Note_on_c, 0, 65, 0
1, 42480, Note_on_c, 0, 65, 80
1, 42555, Note_on_c, 0, 65, 0
1, 42560, Note_on_c, 0, 64, 80
1, 42635, Note_on_c, 0, 64, 0
1, 42640, Note_on_c, 0, 65, 80
1, 42715, Note_on_c, 0, 65, 0
1, 42720, Note_on_c, 0, 72, 80
1, 42947, Note_on_c, 0, 72, 0
1, 42960, Note_on_c, 0, 69, 80
1, 42997, Note_on_c, 0, 69, 0
1, 43000, Note_on_c, 0, 71, 80
1, 43037, Note_on_c, 0, 71, 0
1, 43040, Note_on_c, 0, 72, 80
1, 43077, Note_on_c, 0, 72, 0
1, 43080, Note_on_c, 0, 74, 80
1, 43117, Note_on_c, 0, 74, 0
1, 43120, Note_on_c, 0, 76, 80
1, 43157, Note_on_c, 0, 76, 0
1, 43160, Note_on_c, 0, 77, 80
1, 43197, Note_on_c, 0, 77, 0
1, 43200, Note_on_c, 0, 79, 80
1, 43655, Note_on_c, 0, 79, 0
1, 43680, Note_on_c, 0, 71, 80
1, 43680, Note_on_c, 0, 77, 80
1, 44135, Note_on_c, 0, 71, 0
1, 44135, Note_on_c, 0, 77, 0
1, 44160, Note_on_c, 0, 71, 80
1, 44160, Note_on_c, 0, 76, 80
1, 44279, Note_on_c, 0, 71, 0
1, 44279, Note_on_c, 0, 76, 0
1, 44480, Note_on_c, 0, 62, 80
1, 44555, Note_on_c, 0, 62, 0
1, 44560, Note_on_c, 0, 64, 80
1, 44635, Note_on_c, 0, 64, 0
1, 44640, Note_on_c, 0, 67, 80
1, 44715, Note_on_c, 0, 67, 0
1, 44720, Note_on_c, 0, 71, 80
1, 44795, Note_on_c, 0, 71, 0
1, 44800, Note_on_c, 0, 74, 80
1, 44875, Note_on_c, 0, 74, 0
1, 44880, Note_on_c, 0, 76, 80
1, 44955, Note_on_c, 0, 76, 0
1, 44960, Note_on_c, 0, 74, 80
1, 45035, Note_on_c, 0, 74, 0
1, 45040, Note_on_c, 0, 71, 80
1, 45115, Note_on_c, 0, 71, 0
1, 45360, Note_on_c, 0, 60, 80
1, 45360, Note_on_c, 0, 64, 80
1, 45360, Note_on_c, 0, 72, 80
1, 45587, Note_on_c, 0, 60, 0
1, 45587, Note_on_c, 0, 64, 0
1, 45587, Note_on_c, 0, 72, 0
1, 45600, Note_on_c, 0, 64, 80
1, 45600, Note_on_c, 0, 71, 80
1, 45827, Note_on_c, 0, 64, 0
1, 45827, Note_on_c, 0, 71, 0
1, 45840, Note_on_c, 0, 60, 80
1, 45840, Note_on_c, 0, 64, 80
1, 45840, Note_on_c, 0, 72, 80
1, 46067, Note_on_c, 0, 60, 0
1, 46067, Note_on_c, 0, 64, 0
1, 46067, Note_on_c, 0, 72, 0
1, 46080, Note_on_c, 0, 60, 80
1, 46080, Note_on_c, 0, 64, 80
1, 46259, Note_on_c, 0, 60, 0
1, 46259, Note_on_c, 0, 64, 0
1, 46500, Note_on_c, 0, 60, 80
1, 46500, Note_on_c, 0, 64, 80
1, 46500, Note_on_c, 0, 69, 80
1, 46500, Note_on_c, 0, 72, 80
1, 46556, Note_on_c, 0, 60, 0
1, 46556, Note_on_c, 0, 64, 0
1, 46556, Note_on_c, 0, 69, 0
1, 46556, Note_on_c, 0, 72, 0
1, 46560, Note_on_c, 0, 60, 80
1, 46560, Note_on_c, 0, 64, 80
1, 46560, Note_on_c, 0, 69, 80
1, 46560, Note_on_c, 0, 72, 80
1, 46799, Note_on_c, 0, 60, 0
1, 46799, Note_on_c, 0, 64, 0
1, 46799, Note_on_c, 0, 69, 0
1, 46799, Note_on_c, 0, 72, 0
1, 47040, Note_on_c, 0, 64, 80
1, 47040, Note_on_c, 0, 67, 80
1, 47040, Note_on_c, 0, 71, 80
1, 47495, Note_on_c, 0, 64, 0
1, 47495, Note_on_c, 0, 67, 0
1, 47495, Note_on_c, 0, 71, 0
1, 47520, Note_on_c, 0, 67, 80
1, 47520, Note_on_c, 0, 71, 80
1, 47520, Note_on_c, 0, 76, 80
1, 47975, Note_on_c, 0, 67, 0
1, 47975, Note_on_c, 0, 71, 0
1, 47975, Note_on_c, 0, 76, 0
1, 48000, Note_on_c, 0, 60, 80
1, 48000, Note_on_c, 0, 65, 80
1, 48000, Note_on_c, 0, 69, 80
1, 48227, Note_on_c, 0, 60, 0
1, 48227, Note_on_c, 0, 65, 0
1, 48227, Note_on_c, 0, 69, 0
1, 48240, Note_on_c, 0, 55, 80
1, 48315, Note_on_c, 0, 55, 0
1, 48320, Note_on_c, 0, 57, 80
1, 48395, Note_on_c, 0, 57, 0
1, 48400, Note_on_c, 0, 59, 80
1, 48475, Note_on_c, 0, 59, 0
1, 48480, Note_on_c, 0, 60, 80
1, 48536, Note_on_c, 0, 60, 0
1, 48540, Note_on_c, 0, 62, 80
1, 48596, Note_on_c, 0, 62, 0
1, 48600, Note_on_c, 0, 64, 80
1, 48656, Note_on_c, 0, 64, 0
1, 48660, Note_on_c, 0, 65, 80
1, 48716, Note_on_c, 0, 65, 0
1, 48720, Note_on_c, 0, 67, 80
1, 48751, Note_on_c, 0, 67, 0
1, 48754, Note_on_c, 0, 69, 80
1, 48785, Note_on_c, 0, 69, 0
1, 48789, Note_on_c, 0, 71, 80
1, 48820, Note_on_c, 0, 71, 0
1, 48823, Note_on_c, 0, 72, 80
1, 48854, Note_on_c, 0, 72, 0
1, 48857, Note_on_c, 0, 74, 80
1, 48888, Note_on_c, 0, 74, 0
1, 48891, Note_on_c, 0, 76, 80
1, 48922, Note_on_c, 0, 76, 0
1, 48926, Note_on_c, 0, 77, 80
1, 48957, Note_on_c, 0, 77, 0
1, 48960, Note_on_c, 0, 79, 80
1, 49187, Note_on_c, 0, 79, 0
1, 49200, Note_on_c, 0, 60, 80
1, 49200, Note_on_c, 0, 64, 80
1, 49200, Note_on_c, 0, 67, 80
1, 49200, Note_on_c, 0, 72, 80
1, 49427, Note_on_c, 0, 60, 0
1, 49427, Note_on_c, 0, 64, 0
1, 49427, Note_on_c, 0, 67, 0
1, 49427, Note_on_c, 0, 72, 0
1, 49440, Note_on_c, 0, 64, 80
1, 49440, Note_on_c, 0, 67, 80
1, 49440, Note_on_c, 0, 71, 80
1, 49667, Note_on_c, 0, 64, 0
1, 49667, Note_on_c, 0, 67, 0
1, 49667, Note_on_c, 0, 71, 0
1, 49680, Note_on_c, 0, 60, 80
1, 49680, Note_on_c, 0, 64, 80
1, 49680, Note_on_c, 0, 67, 80
1, 49680, Note_on_c, 0, 72, 80
1, 49907, Note_on_c, 0, 60, 0
1, 49907, Note_on_c, 0, 64, 0
1, 49907, Note_on_c, 0, 67, 0
1, 49907, Note_on_c, 0, 72, 0
1, 49920, Note_on_c, 0, 60, 80
1, 49920, Note_on_c, 0, 65, 80
1, 49920, Note_on_c, 0, 69, 80
1, 49920, Note_on_c, 0, 72, 80
1, 50147, Note_on_c, 0, 60, 0
1, 50147, Note_on_c, 0, 65, 0
1, 50147, Note_on_c, 0, 69, 0
1, 50147, Note_on_c, 0, 72, 0
1, 50160, Note_on_c, 0, 60, 80
1, 50235, Note_on_c, 0, 60, 0
1, 50240, Note_on_c, 0, 65, 80
1, 50315, Note_on_c, 0, 65, 0
1, 50320, Note_on_c, 0, 72, 80
1, 50395, Note_on_c, 0, 72, 0
1, 50400, Note_on_c, 0, 72, 80
1, 50464, Note_on_c, 0, 72, 0
1, 50469, Note_on_c, 0, 65, 80
1, 50565, Note_on_c, 0, 65, 0
1, 50571, Note_on_c, 0, 60, 80
1, 50635, Note_on_c, 0, 60, 0
1, 50640, Note_on_c, 0, 60, 80
1, 50704, Note_on_c, 0, 60, 0
1, 50709, Note_on_c, 0, 65, 80
1, 50805, Note_on_c, 0, 65, 0
1, 50811, Note_on_c, 0, 72, 80
1, 50875, Note_on_c, 0, 72, 0
1, 50880, Note_on_c, 0, 64, 80
1, 50880, Note_on_c, 0, 67, 80
1, 50880, Note_on_c, 0, 71, 80
1, 51107, Note_on_c, 0, 64, 0
1, 51107, Note_on_c, 0, 67, 0
1, 51107, Note_on_c, 0, 71, 0
1, 51120, Note_on_c, 0, 59, 80
1, 51176, Note_on_c, 0, 59, 0
1, 51180, Note_on_c, 0, 64, 80
1, 51293, Note_on_c, 0, 64, 0
1, 51300, Note_on_c, 0, 71, 80
1, 51356, Note_on_c, 0, 71, 0
1, 51360, Note_on_c, 0, 71, 80
1, 51416, Note_on_c, 0, 71, 0
1, 51420, Note_on_c, 0, 64, 80
1, 51533, Note_on_c, 0, 64, 0
1, 51540, Note_on_c, 0, 59, 80
1, 51596, Note_on_c, 0, 59, 0
1, 51600, Note_on_c, 0, 59, 80
1, 51656, Note_on_c, 0, 59, 0
1, 51660, Note_on_c, 0, 64, 80
1, 51773, Note_on_c, 0, 64, 0
1, 51780, Note_on_c, 0, 71, 80
1, 51836, Note_on_c, 0, 71, 0
1, 51840, Note_on_c, 0, 60, 80
1, 51840, Note_on_c, 0, 64, 80
1, 51840, Note_on_c, 0, 67, 80
1, 51840, Note_on_c, 0, 71, 80
1, 52067, Note_on_c, 0, 60, 0
1, 52067, Note_on_c, 0, 64, 0
1, 52067, Note_on_c, 0, 67, 0
1, 52067, Note_on_c, 0, 71, 0
1, 52080, Note_on_c, 0, 59, 80
1, 52155, Note_on_c, 0, 59, 0
1, 52160, Note_on_c, 0, 64, 80
1, 52235, Note_on_c, 0, 64, 0
1, 52240, Note_on_c, 0, 71, 80
1, 52315, Note_on_c, 0, 71, 0
1, 52320, Note_on_c, 0, 71, 80
1, 52395, Note_on_c, 0, 71, 0
1, 52400, Note_on_c, 0, 64, 80
1, 52475, Note_on_c, 0, 64, 0
1, 52480, Note_on_c, 0, 59, 80
1, 52555, Note_on_c, 0, 59, 0
1, 52560, Note_on_c, 0, 59, 80
1, 52635, Note_on_c, 0, 59, 0
1, 52640, Note_on_c, 0, 64, 80
1, 52715, Note_on_c, 0, 64, 0
1, 52720, Note_on_c, 0, 71, 80
1, 52795, Note_on_c, 0, 71, 0
1, 52800, Note_on_c, 0, 62, 80
1, 52800, Note_on_c, 0, 65, 80
1, 52800, Note_on_c, 0, 69, 80
1, 53027, Note_on_c, 0, 62, 0
1, 53027, Note_on_c, 0, 65, 0
1, 53027, Note_on_c, 0, 69, 0
1, 53040, Note_on_c, 0, 69, 80
1, 53267, Note_on_c, 0, 69, 0
1, 53280, Note_on_c, 0, 62, 80
1, 53280, Note_on_c, 0, 67, 80
1, 53507, Note_on_c, 0, 62, 0
1, 53507, Note_on_c, 0, 67, 0
1, 53520, Note_on_c, 0, 65, 80
1, 53747, Note_on_c, 0, 65, 0
1, 53760, Note_on_c, 0, 71, 80
1, 53760, Note_on_c, 0, 72, 80
1, 53760, Note_on_c, 0, 76, 80
1, 54671, Note_on_c, 0, 71, 0
1, 54671, Note_on_c, 0, 72, 0
1, 54671, Note_on_c, 0, 76, 0
1, 54720, Note_on_c, 0, 67, 80
1, 54720, Note_on_c, 0, 71, 80
1, 54720, Note_on_c, 0, 76, 80
1, 55175, Note_on_c, 0, 67, 0
1, 55175, Note_on_c, 0, 71, 0
1, 55175, Note_on_c, 0, 76, 0
1, 55200, Note_on_c, 0, 83, 80
1, 55541, Note_on_c, 0, 83, 0
1, 55650, Note_on_c, 0, 76, 80
1, 55677, Note_on_c, 0, 76, 0
1, 55680, Note_on_c, 0, 81, 80
1, 56135, Note_on_c, 0, 81, 0
1, 56160, Note_on_c, 0, 76, 80
1, 56387, Note_on_c, 0, 76, 0
1, 56400, Note_on_c, 0, 81, 80
1, 56513, Note_on_c, 0, 81, 0
1, 56610, Note_on_c, 0, 74, 80
1, 56637, Note_on_c, 0, 74, 0
1, 56640, Note_on_c, 0, 79, 80
1, 57095, Note_on_c, 0, 79, 0
1, 57120, Note_on_c, 0, 74, 80
1, 57347, Note_on_c, 0, 74, 0
1, 57360, Note_on_c, 0, 71, 80
1, 57473, Note_on_c, 0, 71, 0
1, 57540, Note_on_c, 0, 65, 80
1, 57567, Note_on_c, 0, 65, 0
1, 57570, Note_on_c, 0, 71, 80
1, 57597, Note_on_c, 0, 71, 0
1, 57600, Note_on_c, 0, 72, 80
1, 58055, Note_on_c, 0, 72, 0
1, 58320, Note_on_c, 0, 72, 80
1, 58547, Note_on_c, 0, 72, 0
1, 58560, Note_on_c, 0, 65, 80
1, 58560, Note_on_c, 0, 71, 80
1, 59015, Note_on_c, 0, 65, 0
1, 59015, Note_on_c, 0, 71, 0
1, 59040, Note_on_c, 0, 71, 80
1, 59040, Note_on_c, 0, 76, 80
1, 59267, Note_on_c, 0, 71, 0
1, 59267, Note_on_c, 0, 76, 0
1, 59280, Note_on_c, 0, 74, 80
1, 59399, Note_on_c, 0, 74, 0
1, 59520, Note_on_c, 0, 76, 80
1, 59975, Note_on_c, 0, 76, 0
1, 60000, Note_on_c, 0, 67, 80
1, 60227, Note_on_c, 0, 67, 0
1, 60240, Note_on_c, 0, 71, 80
1, 60467, Note_on_c, 0, 71, 0
1, 60480, Note_on_c, 0, 62, 80
1, 60480, Note_on_c, 0, 65, 80
1, 60480, Note_on_c, 0, 69, 80
1, 60707, Note_on_c, 0, 62, 0
1, 60707, Note_on_c, 0, 65, 0
1, 60707, Note_on_c, 0, 69, 0
1, 60720, Note_on_c, 0, 62, 80
1, 60947, Note_on_c, 0, 62, 0
1, 60960, Note_on_c, 0, 67, 80
1, 61187, Note_on_c, 0, 67, 0
1, 61200, Note_on_c, 0, 65, 80
1, 61319, Note_on_c, 0, 65, 0
1, 61440, Note_on_c, 0, 76, 80
1, 62351, Note_on_c, 0, 76, 0
1, 62400, Note_on_c, 0, 67, 80
1, 62400, Note_on_c, 0, 71, 80
1, 62400, Note_on_c, 0, 76, 80
1, 62855, Note_on_c, 0, 67, 0
1, 62855, Note_on_c, 0, 71, 0
1, 62855, Note_on_c, 0, 76, 0
1, 62880, Note_on_c, 0, 83, 80
1, 63221, Note_on_c, 0, 83, 0
1, 63330, Note_on_c, 0, 76, 80
1, 63357, Note_on_c, 0, 76, 0
1, 63360, Note_on_c, 0, 81, 80
1, 63815, Note_on_c, 0, 81, 0
1, 63840, Note_on_c, 0, 76, 80
1, 64067, Note_on_c, 0, 76, 0
1, 64080, Note_on_c, 0, 81, 80
1, 64193, Note_on_c, 0, 81, 0
1, 64290, Note_on_c, 0, 74, 80
1, 64317, Note_on_c, 0, 74, 0
1, 64320, Note_on_c, 0, 79, 80
1, 64775, Note_on_c, 0, 79, 0
1, 64800, Note_on_c, 0, 74, 80
1, 65027, Note_on_c, 0, 74, 0
1, 65040, Note_on_c, 0, 71, 80
1, 65153, Note_on_c, 0, 71, 0
1, 65220, Note_on_c, 0, 65, 80
1, 65247, Note_on_c, 0, 65, 0
1, 65250, Note_on_c, 0, 71, 80
1, 65277, Note_on_c, 0, 71, 0
1, 65280, Note_on_c, 0, 72, 80
1, 65735, Note_on_c, 0, 72, 0
1, 66000, Note_on_c, 0, 72, 80
1, 66227, Note_on_c, 0, 72, 0
1, 66240, Note_on_c, 0, 65, 80
1, 66240, Note_on_c, 0, 71, 80
1, 66695, Note_on_c, 0, 65, 0
1, 66695, Note_on_c, 0, 71, 0
1, 66720, Note_on_c, 0, 71, 80
1, 66720, Note_on_c, 0, 76, 80
1, 66947, Note_on_c, 0, 71, 0
1, 66947, Note_on_c, 0, 76, 0
1, 66960, Note_on_c, 0, 74, 80
1, 67079, Note_on_c, 0, 74, 0
1, 67200, Note_on_c, 0, 76, 80
1, 67655, Note_on_c, 0, 76, 0
1, 67680, Note_on_c, 0, 67, 80
1, 67907, Note_on_c, 0, 67, 0
1, 67920, Note_on_c, 0, 71, 80
1, 68147, Note_on_c, 0, 71, 0
1, 68160, Note_on_c, 0, 62, 80
1, 68160, Note_on_c, 0, 65, 80
1, 68160, Note_on_c, 0, 69, 80
1, 68387, Note_on_c, 0, 62, 0
1, 68387, Note_on_c, 0, 65, 0
1, 68387, Note_on_c, 0, 69, 0
1, 68400, Note_on_c, 0, 62, 80
1, 68627, Note_on_c, 0, 62, 0
1, 68640, Note_on_c, 0, 67, 80
1, 68867, Note_on_c, 0, 67, 0
1, 68880, Note_on_c, 0, 65, 80
1, 69107, Note_on_c, 0, 65, 0
1, 69120, Note_on_c, 0, 59, 80
1, 69120, Note_on_c, 0, 60, 80
1, 69120, Note_on_c, 0, 64, 80
1, 69575, Note_on_c, 0, 59, 0
1, 69575, Note_on_c, 0, 60, 0
1, 69575, Note_on_c, 0, 64, 0
1, 69600, Note_on_c, 0, 64, 80
1, 69600, Note_on_c, 0, 69, 80
1, 69600, Note_on_c, 0, 72, 80
1, 70055, Note_on_c, 0, 64, 0
1, 70055, Note_on_c, 0, 69, 0
1, 70055, Note_on_c, 0, 72, 0
1, 70080, Note_on_c, 0, 64, 80
1, 70080, Note_on_c, 0, 67, 80
1, 70080, Note_on_c, 0, 71, 80
1, 70535, Note_on_c, 0, 64, 0
1, 70535, Note_on_c, 0, 67, 0
1, 70535, Note_on_c, 0, 71, 0
1, 70560, Note_on_c, 0, 67, 80
1, 70560, Note_on_c, 0, 71, 80
1, 70560, Note_on_c, 0, 76, 80
1, 71015, Note_on_c, 0, 67, 0
1, 71015, Note_on_c, 0, 71, 0
1, 71015, Note_on_c, 0, 76, 0
1, 71040, Note_on_c, 0, 65, 80
1, 71040, Note_on_c, 0, 69, 80
1, 71040, Note_on_c, 0, 76, 80
1, 71495, Note_on_c, 0, 65, 0
1, 71495, Note_on_c, 0, 69, 0
1, 71495, Note_on_c, 0, 76, 0
1, 71520, Note_on_c, 0, 64, 80
1, 71520, Note_on_c, 0, 65, 80
1, 71520, Note_on_c, 0, 69, 80
1, 71975, Note_on_c, 0, 64, 0
1, 71975, Note_on_c, 0, 65, 0
1, 71975, Note_on_c, 0, 69, 0
1, 72000, Note_on_c, 0, 67, 80
1, 72000, Note_on_c, 0, 74, 80
1, 72455, Note_on_c, 0, 67, 0
1, 72455, Note_on_c, 0, 74, 0
1, 72480, Note_on_c, 0, 60, 80
1, 72480, Note_on_c, 0, 62, 80
1, 72480, Note_on_c, 0, 67, 80
1, 72821, Note_on_c, 0, 60, 0
1, 72821, Note_on_c, 0, 62, 0
1, 72821, Note_on_c, 0, 67, 0
1, 72900, Note_on_c, 0, 64, 80
1, 72927, Note_on_c, 0, 64, 0
1, 72930, Note_on_c, 0, 65, 80
1, 72957, Note_on_c, 0, 65, 0
1, 72960, Note_on_c, 0, 72, 80
1, 73643, Note_on_c, 0, 72, 0
1, 73680, Note_on_c, 0, 65, 80
1, 73907, Note_on_c, 0, 65, 0
1, 73920, Note_on_c, 0, 64, 80
1, 73920, Note_on_c, 0, 67, 80
1, 74147, Note_on_c, 0, 64, 0
1, 74147, Note_on_c, 0, 67, 0
1, 74160, Note_on_c, 0, 62, 80
1, 74160, Note_on_c, 0, 65, 80
1, 74387, Note_on_c, 0, 62, 0
1, 74387, Note_on_c, 0, 65, 0
1, 74400, Note_on_c, 0, 60, 80
1, 74400, Note_on_c, 0, 64, 80
1, 74627, Note_on_c, 0, 60, 0
1, 74627, Note_on_c, 0, 64, 0
1, 74640, Note_on_c, 0, 62, 80
1, 74759, Note_on_c, 0, 62, 0
1, 74880, Note_on_c, 0, 64, 80
1, 74880, Note_on_c, 0, 60, 80
1, 75335, Note_on_c, 0, 60, 0
1, 75563, Note_on_c, 0, 64, 0
1, 75600, Note_on_c, 0, 64, 80
1, 75827, Note_on_c, 0, 64, 0
1, 75840, Note_on_c, 0, 62, 80
1, 75840, Note_on_c, 0, 65, 80
1, 76079, Note_on_c, 0, 62, 0
1, 76079, Note_on_c, 0, 65, 0
1, 76320, Note_on_c, 0, 60, 80
1, 76320, Note_on_c, 0, 62, 80
1, 76320, Note_on_c, 0, 67, 80
1, 76547, Note_on_c, 0, 60, 0
1, 76547, Note_on_c, 0, 62, 0
1, 76547, Note_on_c, 0, 67, 0
1, 76560, Note_on_c, 0, 65, 80
1, 76787, Note_on_c, 0, 65, 0
1, 76800, Note_on_c, 0, 69, 80
1, 76913, Note_on_c, 0, 69, 0
1, 76920, Note_on_c, 0, 64, 80
1, 77033, Note_on_c, 0, 64, 0
1, 77040, Note_on_c, 0, 69, 80
1, 77153, Note_on_c, 0, 69, 0
1, 77160, Note_on_c, 0, 71, 80
1, 77273, Note_on_c, 0, 71, 0
1, 77280, Note_on_c, 0, 72, 80
1, 77507, Note_on_c, 0, 72, 0
1, 77520, Note_on_c, 0, 69, 80
1, 77633, Note_on_c, 0, 69, 0
1, 77640, Note_on_c, 0, 64, 80
1, 77753, Note_on_c, 0, 64, 0
1, 77760, Note_on_c, 0, 69, 80
1, 77873, Note_on_c, 0, 69, 0
1, 77880, Note_on_c, 0, 71, 80
1, 77993, Note_on_c, 0, 71, 0
1, 78000, Note_on_c, 0, 72, 80
1, 78227, Note_on_c, 0, 72, 0
1, 78240, Note_on_c, 0, 69, 80
1, 78353, Note_on_c, 0, 69, 0
1, 78360, Note_on_c, 0, 64, 80
1, 78473, Note_on_c, 0, 64, 0
1, 78480, Note_on_c, 0, 69, 80
1, 78593, Note_on_c, 0, 69, 0
1, 78600, Note_on_c, 0, 71, 80
1, 78713, Note_on_c, 0, 71, 0
1, 78720, Note_on_c, 0, 69, 80
1, 78833, Note_on_c, 0, 69, 0
1, 78840, Note_on_c, 0, 64, 80
1, 78953, Note_on_c, 0, 64, 0
1, 78960, Note_on_c, 0, 69, 80
1, 79073, Note_on_c, 0, 69, 0
1, 79080, Note_on_c, 0, 71, 80
1, 79193, Note_on_c, 0, 71, 0
1, 79200, Note_on_c, 0, 72, 80
1, 79427, Note_on_c, 0, 72, 0
1, 79440, Note_on_c, 0, 69, 80
1, 79553, Note_on_c, 0, 69, 0
1, 79560, Note_on_c, 0, 64, 80
1, 79673, Note_on_c, 0, 64, 0
1, 79680, Note_on_c, 0, 69, 80
1, 79793, Note_on_c, 0, 69, 0
1, 79800, Note_on_c, 0, 71, 80
1, 79913, Note_on_c, 0, 71, 0
1, 79920, Note_on_c, 0, 72, 80
1, 80147, Note_on_c, 0, 72, 0
1, 80160, Note_on_c, 0, 69, 80
1, 80273, Note_on_c, 0, 69, 0
1, 80280, Note_on_c, 0, 64, 80
1, 80393, Note_on_c, 0, 64, 0
1, 80400, Note_on_c, 0, 71, 80
1, 80513, Note_on_c, 0, 71, 0
1, 80520, Note_on_c, 0, 74, 80
1, 80633, Note_on_c, 0, 74, 0
1, 80640, Note_on_c, 0, 72, 80
1, 80753, Note_on_c, 0, 72, 0
1, 80760, Note_on_c, 0, 71, 80
1, 80873, Note_on_c, 0, 71, 0
1, 80880, Note_on_c, 0, 72, 80
1, 80993, Note_on_c, 0, 72, 0
1, 81000, Note_on_c, 0, 74, 80
1, 81113, Note_on_c, 0, 74, 0
1, 81120, Note_on_c, 0, 76, 80
1, 81347, Note_on_c, 0, 76, 0
1, 81360, Note_on_c, 0, 72, 80
1, 81473, Note_on_c, 0, 72, 0
1, 81480, Note_on_c, 0, 71, 80
1, 81593, Note_on_c, 0, 71, 0
1, 81600, Note_on_c, 0, 72, 80
1, 81713, Note_on_c, 0, 72, 0
1, 81720, Note_on_c, 0, 74, 80
1, 81833, Note_on_c, 0, 74, 0
1, 81840, Note_on_c, 0, 76, 80
1, 82067, Note_on_c, 0, 76, 0
1, 82080, Note_on_c, 0, 72, 80
1, 82193, Note_on_c, 0, 72, 0
1, 82200, Note_on_c, 0, 71, 80
1, 82313, Note_on_c, 0, 71, 0
1, 82320, Note_on_c, 0, 72, 80
1, 82433, Note_on_c, 0, 72, 0
1, 82440, Note_on_c, 0, 74, 80
1, 82553, Note_on_c, 0, 74, 0
1, 82560, Note_on_c, 0, 72, 80
1, 82673, Note_on_c, 0, 72, 0
1, 82680, Note_on_c, 0, 71, 80
1, 82793, Note_on_c, 0, 71, 0
1, 82800, Note_on_c, 0, 72, 80
1, 82913, Note_on_c, 0, 72, 0
1, 82920, Note_on_c, 0, 74, 80
1, 83033, Note_on_c, 0, 74, 0
1, 83040, Note_on_c, 0, 76, 80
1, 83267, Note_on_c, 0, 76, 0
1, 83280, Note_on_c, 0, 72, 80
1, 83393, Note_on_c, 0, 72, 0
1, 83400, Note_on_c, 0, 71, 80
1, 83513, Note_on_c, 0, 71, 0
1, 83520, Note_on_c, 0, 72, 80
1, 83633, Note_on_c, 0, 72, 0
1, 83640, Note_on_c, 0, 74, 80
1, 83753, Note_on_c, 0, 74, 0
1, 83760, Note_on_c, 0, 76, 80
1, 83873, Note_on_c, 0, 76, 0
1, 83880, Note_on_c, 0, 74, 80
1, 83993, Note_on_c, 0, 74, 0
1, 84000, Note_on_c, 0, 72, 80
1, 84113, Note_on_c, 0, 72, 0
1, 84120, Note_on_c, 0, 71, 80
1, 84233, Note_on_c, 0, 71, 0
1, 84240, Note_on_c, 0, 69, 80
1, 84353, Note_on_c, 0, 69, 0
1, 84360, Note_on_c, 0, 67, 80
1, 84473, Note_on_c, 0, 67, 0
1, 84480, Note_on_c, 0, 69, 80
1, 84593, Note_on_c, 0, 69, 0
1, 84600, Note_on_c, 0, 64, 80
1, 84713, Note_on_c, 0, 64, 0
1, 84720, Note_on_c, 0, 69, 80
1, 84833, Note_on_c, 0, 69, 0
1, 84840, Note_on_c, 0, 71, 80
1, 84953, Note_on_c, 0, 71, 0
1, 84960, Note_on_c, 0, 72, 80
1, 85187, Note_on_c, 0, 72, 0
1, 85200, Note_on_c, 0, 69, 80
1, 85313, Note_on_c, 0, 69, 0
1, 85320, Note_on_c, 0, 64, 80
1, 85433, Note_on_c, 0, 64, 0
1, 85440, Note_on_c, 0, 69, 80
1, 85553, Note_on_c, 0, 69, 0
1, 85560, Note_on_c, 0, 71, 80
1, 85673, Note_on_c, 0, 71, 0
1, 85680, Note_on_c, 0, 72, 80
1, 85907, Note_on_c, 0, 72, 0
1, 85920, Note_on_c, 0, 69, 80
1, 86033, Note_on_c, 0, 69, 0
1, 86040, Note_on_c, 0, 64, 80
1, 86153, Note_on_c, 0, 64, 0
1, 86160, Note_on_c, 0, 69, 80
1, 86273, Note_on_c, 0, 69, 0
1, 86280, Note_on_c, 0, 71, 80
1, 86393, Note_on_c, 0, 71, 0
1, 86400, Note_on_c, 0, 69, 80
1, 86513, Note_on_c, 0, 69, 0
1, 86520, Note_on_c, 0, 64, 80
1, 86633, Note_on_c, 0, 64, 0
1, 86640, Note_on_c, 0, 69, 80
1, 86753, Note_on_c, 0, 69, 0
1, 86760, Note_on_c, 0, 71, 80
1, 86873, Note_on_c, 0, 71, 0
1, 86880, Note_on_c, 0, 72, 80
1, 87107, Note_on_c, 0, 72, 0
1, 87120, Note_on_c, 0, 69, 80
1, 87233, Note_on_c, 0, 69, 0
1, 87240, Note_on_c, 0, 64, 80
1, 87353, Note_on_c, 0, 64, 0
1, 87360, Note_on_c, 0, 69, 80
1, 87473, Note_on_c, 0, 69, 0
1, 87480, Note_on_c, 0, 71, 80
1, 87593, Note_on_c, 0, 71, 0
1, 87600, Note_on_c, 0, 72, 80
1, 87827, Note_on_c, 0, 72, 0
1, 87840, Note_on_c, 0, 69, 80
1, 87953, Note_on_c, 0, 69, 0
1, 87960, Note_on_c, 0, 64, 80
1, 88073, Note_on_c, 0, 64, 0
1, 88080, Note_on_c, 0, 71, 80
1, 88193, Note_on_c, 0, 71, 0
1, 88200, Note_on_c, 0, 74, 80
1, 88313, Note_on_c, 0, 74, 0
1, 88320, Note_on_c, 0, 72, 80
1, 88433, Note_on_c, 0, 72, 0
1, 88440, Note_on_c, 0, 71, 80
1, 88553, Note_on_c, 0, 71, 0
1, 88560, Note_on_c, 0, 72, 80
1, 88673, Note_on_c, 0, 72, 0
1, 88680, Note_on_c, 0, 74, 80
1, 88793, Note_on_c, 0, 74, 0
1, 88800, Note_on_c, 0, 76, 80
1, 89027, Note_on_c, 0, 76, 0
1, 89040, Note_on_c, 0, 72, 80
1, 89153, Note_on_c, 0, 72, 0
1, 89160, Note_on_c, 0, 71, 80
1, 89273, Note_on_c, 0, 71, 0
1, 89280, Note_on_c, 0, 72, 80
1, 89393, Note_on_c, 0, 72, 0
1, 89400, Note_on_c, 0, 74, 80
1, 89513, Note_on_c, 0, 74, 0
1, 89520, Note_on_c, 0, 76, 80
1, 89747, Note_on_c, 0, 76, 0
1, 89760, Note_on_c, 0, 72, 80
1, 89873, Note_on_c, 0, 72, 0
1, 89880, Note_on_c, 0, 71, 80
1, 89993, Note_on_c, 0, 71, 0
1, 90000, Note_on_c, 0, 72, 80
1, 90113, Note_on_c, 0, 72, 0
1, 90120, Note_on_c, 0, 74, 80
1, 90233, Note_on_c, 0, 74, 0
1, 90240, Note_on_c, 0, 72, 80
1, 90695, Note_on_c, 0, 72, 0
1, 90720, Note_on_c, 0, 71, 80
1, 90947, Note_on_c, 0, 71, 0
1, 90960, Note_on_c, 0, 76, 80
1, 91187, Note_on_c, 0, 76, 0
1, 91200, Note_on_c, 0, 71, 80
1, 91200, Note_on_c, 0, 74, 80
1, 91200, Note_on_c, 0, 77, 80
1, 91655, Note_on_c, 0, 71, 0
1, 91655, Note_on_c, 0, 74, 0
1, 91655, Note_on_c, 0, 77, 0
1, 91680, Note_on_c, 0, 67, 80
1, 91680, Note_on_c, 0, 71, 80
1, 91680, Note_on_c, 0, 76, 80
1, 92135, Note_on_c, 0, 67, 0
1, 92135, Note_on_c, 0, 71, 0
1, 92135, Note_on_c, 0, 76, 0
1, 92160, Note_on_c, 0, 64, 80
1, 92235, Note_on_c, 0, 64, 0
1, 92240, Note_on_c, 0, 69, 80
1, 92315, Note_on_c, 0, 69, 0
1, 92320, Note_on_c, 0, 71, 80
1, 92395, Note_on_c, 0, 71, 0
1, 92400, Note_on_c, 0, 72, 80
1, 92475, Note_on_c, 0, 72, 0
1, 92480, Note_on_c, 0, 76, 80
1, 92555, Note_on_c, 0, 76, 0
1, 92560, Note_on_c, 0, 81, 80
1, 92635, Note_on_c, 0, 81, 0
1, 92640, Note_on_c, 0, 72, 80
1, 92640, Note_on_c, 0, 76, 80
1, 92640, Note_on_c, 0, 81, 80
1, 93095, Note_on_c, 0, 72, 0
1, 93095, Note_on_c, 0, 76, 0
1, 93095, Note_on_c, 0, 81, 0
1, 93120, Note_on_c, 0, 76, 80
1, 93120, Note_on_c, 0, 79, 80
1, 93120, Note_on_c, 0, 83, 80
1, 93347, Note_on_c, 0, 76, 0
1, 93347, Note_on_c, 0, 79, 0
1, 93347, Note_on_c, 0, 83, 0
1, 93360, Note_on_c, 0, 71, 80
1, 93587, Note_on_c, 0, 71, 0
1, 93600, Note_on_c, 0, 76, 80
1, 93827, Note_on_c, 0, 76, 0
1, 93840, Note_on_c, 0, 83, 80
1, 94067, Note_on_c, 0, 83, 0
1, 94080, Note_on_c, 0, 72, 80
1, 94080, Note_on_c, 0, 77, 80
1, 94080, Note_on_c, 0, 81, 80
1, 94307, Note_on_c, 0, 72, 0
1, 94307, Note_on_c, 0, 77, 0
1, 94307, Note_on_c, 0, 81, 0
1, 94320, Note_on_c, 0, 76, 80
1, 94395, Note_on_c, 0, 76, 0
1, 94400, Note_on_c, 0, 72, 80
1, 94475, Note_on_c, 0, 72, 0
1, 94480, Note_on_c, 0, 69, 80
1, 94555, Note_on_c, 0, 69, 0
1, 94560, Note_on_c, 0, 72, 80
1, 94635, Note_on_c, 0, 72, 0
1, 94640, Note_on_c, 0, 69, 80
1, 94715, Note_on_c, 0, 69, 0
1, 94720, Note_on_c, 0, 64, 80
1, 94795, Note_on_c, 0, 64, 0
1, 94800, Note_on_c, 0, 69, 80
1, 94875, Note_on_c, 0, 69, 0
1, 94880, Note_on_c, 0, 64, 80
1, 94955, Note_on_c, 0, 64, 0
1, 94960, Note_on_c, 0, 60, 80
1, 95035, Note_on_c, 0, 60, 0
1, 95040, Note_on_c, 0, 67, 80
1, 95040, Note_on_c, 0, 74, 80
1, 95267, Note_on_c, 0, 67, 0
1, 95267, Note_on_c, 0, 74, 0
1, 95280, Note_on_c, 0, 67, 80
1, 95280, Note_on_c, 0, 72, 80
1, 95507, Note_on_c, 0, 67, 0
1, 95507, Note_on_c, 0, 72, 0
1, 95520, Note_on_c, 0, 67, 80
1, 95520, Note_on_c, 0, 71, 80
1, 95747, Note_on_c, 0, 67, 0
1, 95747, Note_on_c, 0, 71, 0
1, 95760, Note_on_c, 0, 67, 80
1, 95760, Note_on_c, 0, 72, 80
1, 95987, Note_on_c, 0, 67, 0
1, 95987, Note_on_c, 0, 72, 0
1, 96000, Note_on_c, 0, 65, 80
1, 96227, Note_on_c, 0, 65, 0
1, 96240, Note_on_c, 0, 65, 80
1, 96315, Note_on_c, 0, 65, 0
1, 96320, Note_on_c, 0, 64, 80
1, 96395, Note_on_c, 0, 64, 0
1, 96400, Note_on_c, 0, 65, 80
1, 96475, Note_on_c, 0, 65, 0
1, 96480, Note_on_c, 0, 72, 80
1, 96707, Note_on_c, 0, 72, 0
1, 96720, Note_on_c, 0, 69, 80
1, 96757, Note_on_c, 0, 69, 0
1, 96760, Note_on_c, 0, 71, 80
1, 96797, Note_on_c, 0, 71, 0
1, 96800, Note_on_c, 0, 72, 80
1, 96837, Note_on_c, 0, 72, 0
1, 96840, Note_on_c, 0, 74, 80
1, 96877, Note_on_c, 0, 74, 0
1, 96880, Note_on_c, 0, 76, 80
1, 96917, Note_on_c, 0, 76, 0
1, 96920, Note_on_c, 0, 77, 80
1, 96957, Note_on_c, 0, 77, 0
1, 96960, Note_on_c, 0, 79, 80
1, 97415, Note_on_c, 0, 79, 0
1, 97440, Note_on_c, 0, 71, 80
1, 97440, Note_on_c, 0, 77, 80
1, 97895, Note_on_c, 0, 71, 0
1, 97895, Note_on_c, 0, 77, 0
1, 97920, Note_on_c, 0, 71, 80
1, 97920, Note_on_c, 0, 76, 80
1, 98039, Note_on_c, 0, 71, 0
1, 98039, Note_on_c, 0, 76, 0
1, 98240, Note_on_c, 0, 62, 80
1, 98315, Note_on_c, 0, 62, 0
1, 98320, Note_on_c, 0, 64, 80
1, 98395, Note_on_c, 0, 64, 0
1, 98400, Note_on_c, 0, 67, 80
1, 98475, Note_on_c, 0, 67, 0
1, 98480, Note_on_c, 0, 71, 80
1, 98555, Note_on_c, 0, 71, 0
1, 98560, Note_on_c, 0, 74, 80
1, 98635, Note_on_c, 0, 74, 0
1, 98640, Note_on_c, 0, 76, 80
1, 98715, Note_on_c, 0, 76, 0
1, 98720, Note_on_c, 0, 74, 80
1, 98795, Note_on_c, 0, 74, 0
1, 98800, Note_on_c, 0, 71, 80
1, 98875, Note_on_c, 0, 71, 0
1, 99120, Note_on_c, 0, 60, 80
1, 99120, Note_on_c, 0, 64, 80
1, 99120, Note_on_c, 0, 72, 80
1, 99347, Note_on_c, 0, 60, 0
1, 99347, Note_on_c, 0, 64, 0
1, 99347, Note_on_c, 0, 72, 0
1, 99360, Note_on_c, 0, 64, 80
1, 99360, Note_on_c, 0, 71, 80
1, 99587, Note_on_c, 0, 64, 0
1, 99587, Note_on_c, 0, 71, 0
1, 99600, Note_on_c, 0, 60, 80
1, 99600, Note_on_c, 0, 64, 80
1, 99600, Note_on_c, 0, 72, 80
1, 99827, Note_on_c, 0, 60, 0
1, 99827, Note_on_c, 0, 64, 0
1, 99827, Note_on_c, 0, 72, 0
1, 99840, Note_on_c, 0, 60, 80
1, 99840, Note_on_c, 0, 64, 80
1, 100019, Note_on_c, 0, 60, 0
1, 100019, Note_on_c, 0, 64, 0
1, 100260, Note_on_c, 0, 60, 80
1, 100260, Note_on_c, 0, 64, 80
1, 100260, Note_on_c, 0, 69, 80
1, 100260, Note_on_c, 0, 72, 80
1, 100316, Note_on_c, 0, 60, 0
1, 100316, Note_on_c, 0, 64, 0
1, 100316, Note_on_c, 0, 69, 0
1, 100316, Note_on_c, 0, 72, 0
1, 100320, Note_on_c, 0, 60, 80
1, 100320, Note_on_c, 0, 64, 80
1, 100320, Note_on_c, 0, 69, 80
1, 100320, Note_on_c, 0, 72, 80
1, 100559, Note_on_c, 0, 60, 0
1, 100559, Note_on_c, 0, 64, 0
1, 100559, Note_on_c, 0, 69, 0
1, 100559, Note_on_c, 0, 72, 0
1, 100800, Note_on_c, 0, 64, 80
1, 100800, Note_on_c, 0, 67, 80
1, 100800, Note_on_c, 0, 71, 80
1, 101255, Note_on_c, 0, 64, 0
1, 101255, Note_on_c, 0, 67, 0
1, 101255, Note_on_c, 0, 71, 0
1, 101280, Note_on_c, 0, 67, 80
1, 101280, Note_on_c, 0, 71, 80
1, 101280, Note_on_c, 0, 76, 80
1, 101735, Note_on_c, 0, 67, 0
1, 101735, Note_on_c, 0, 71, 0
1, 101735, Note_on_c, 0, 76, 0
1, 101760, Note_on_c, 0, 60, 80
1, 101760, Note_on_c, 0, 65, 80
1, 101760, Note_on_c, 0, 69, 80
1, 101987, Note_on_c, 0, 60, 0
1, 101987, Note_on_c, 0, 65, 0
1, 101987, Note_on_c, 0, 69, 0
1, 102000, Note_on_c, 0, 55, 80
1, 102075, Note_on_c, 0, 55, 0
1, 102080, Note_on_c, 0, 57, 80
1, 102155, Note_on_c, 0, 57, 0
1, 102160, Note_on_c, 0, 59, 80
1, 102235, Note_on_c, 0, 59, 0
1, 102240, Note_on_c, 0, 60, 80
1, 102296, Note_on_c, 0, 60, 0
1, 102300, Note_on_c, 0, 62, 80
1, 102356, Note_on_c, 0, 62, 0
1, 102360, Note_on_c, 0, 64, 80
1, 102416, Note_on_c, 0, 64, 0
1, 102420, Note_on_c, 0, 65, 80
1, 102476, Note_on_c, 0, 65, 0
1, 102480, Note_on_c, 0, 67, 80
1, 102511, Note_on_c, 0, 67, 0
1, 102514, Note_on_c, 0, 69, 80
1, 102545, Note_on_c, 0, 69, 0
1, 102549, Note_on_c, 0, 71, 80
1, 102580, Note_on_c, 0, 71, 0
1, 102583, Note_on_c, 0, 72, 80
1, 102614, Note_on_c, 0, 72, 0
1, 102617, Note_on_c, 0, 74, 80
1, 102648, Note_on_c, 0, 74, 0
1, 102651, Note_on_c, 0, 76, 80
1, 102682, Note_on_c, 0, 76, 0
1, 102686, Note_on_c, 0, 77, 80
1, 102717, Note_on_c, 0, 77, 0
1, 102720, Note_on_c, 0, 79, 80
1, 102947, Note_on_c, 0, 79, 0
1, 102960, Note_on_c, 0, 60, 80
1, 102960, Note_on_c, 0, 64, 80
1, 102960, Note_on_c, 0, 67, 80
1, 102960, Note_on_c, 0, 72, 80
1, 103187, Note_on_c, 0, 60, 0
1, 103187, Note_on_c, 0, 64, 0
1, 103187, Note_on_c, 0, 67, 0
1, 103187, Note_on_c, 0, 72, 0
1, 103200, Note_on_c, 0, 64, 80
1, 103200, Note_on_c, 0, 67, 80
1, 103200, Note_on_c, 0, 71, 80
1, 103427, Note_on_c, 0, 64, 0
1, 103427, Note_on_c, 0, 67, 0
1, 103427, Note_on_c, 0, 71, 0
1, 103440, Note_on_c, 0, 60, 80
1, 103440, Note_on_c, 0, 64, 80
1, 103440, Note_on_c, 0, 67, 80
1, 103440, Note_on_c, 0, 72, 80
1, 103667, Note_on_c, 0, 60, 0
1, 103667, Note_on_c, 0, 64, 0
1, 103667, Note_on_c, 0, 67, 0
1, 103667, Note_on_c, 0, 72, 0
1, 103680, Note_on_c, 0, 60, 80
1, 103680, Note_on_c, 0, 65, 80
1, 103680, Note_on_c, 0, 69, 80
1, 103680, Note_on_c, 0, 72, 80
1, 103907, Note_on_c, 0, 60, 0
1, 103907, Note_on_c, 0, 65, 0
1, 103907, Note_on_c, 0, 69, 0
1, 103907, Note_on_c, 0, 72, 0
1, 103920, Note_on_c, 0, 60, 80
1, 103995, Note_on_c, 0, 60, 0
1, 104000, Note_on_c, 0, 65, 80
1, 104075, Note_on_c, 0, 65, 0
1, 104080, Note_on_c, 0, 72, 80
1, 104155, Note_on_c, 0, 72, 0
1, 104160, Note_on_c, 0, 72, 80
1, 104224, Note_on_c, 0, 72, 0
1, 104229, Note_on_c, 0, 65, 80
1, 104325, Note_on_c, 0, 65, 0
1, 104331, Note_on_c, 0, 60, 80
1, 104395, Note_on_c, 0, 60, 0
1, 104400, Note_on_c, 0, 60, 80
1, 104464, Note_on_c, 0, 60, 0
1, 104469, Note_on_c, 0, 65, 80
1, 104565, Note_on_c, 0, 65, 0
1, 104571, Note_on_c, 0, 72, 80
1, 104635, Note_on_c, 0, 72, 0
1, 104640, Note_on_c, 0, 64, 80
1, 104640, Note_on_c, 0, 67, 80
1, 104640, Note_on_c, 0, 71, 80
1, 104867, Note_on_c, 0, 64, 0
1, 104867, Note_on_c, 0, 67, 0
1, 104867, Note_on_c, 0, 71, 0
1, 104880, Note_on_c, 0, 59, 80
1, 104936, Note_on_c, 0, 59, 0
1, 104940, Note_on_c, 0, 64, 80
1, 105053, Note_on_c, 0, 64, 0
1, 105060, Note_on_c, 0, 71, 80
1, 105116, Note_on_c, 0, 71, 0
1, 105120, Note_on_c, 0, 71, 80
1, 105176, Note_on_c, 0, 71, 0
1, 105180, Note_on_c, 0, 64, 80
1, 105293, Note_on_c, 0, 64, 0
1, 105300, Note_on_c, 0, 59, 80
1, 105356, Note_on_c, 0, 59, 0
1, 105360, Note_on_c, 0, 59, 80
1, 105416, Note_on_c, 0, 59, 0
1, 105420, Note_on_c, 0, 64, 80
1, 105533, Note_on_c, 0, 64, 0
1, 105540, Note_on_c, 0, 71, 80
1, 105596, Note_on_c, 0, 71, 0
1, 105600, Note_on_c, 0, 60, 80
1, 105600, Note_on_c, 0, 64, 80
1, 105600, Note_on_c, 0, 67, 80
1, 105600, Note_on_c, 0, 71, 80
1, 105827, Note_on_c, 0, 60, 0
1, 105827, Note_on_c, 0, 64, 0
1, 105827, Note_on_c, 0, 67, 0
1, 105827, Note_on_c, 0, 71, 0
1, 105840, Note_on_c, 0, 59, 80
1, 105915, Note_on_c, 0, 59, 0
1, 105920, Note_on_c, 0, 64, 80
1, 105995, Note_on_c, 0, 64, 0
1, 106000, Note_on_c, 0, 71, 80
1, 106075, Note_on_c, 0, 71, 0
1, 106080, Note_on_c, 0, 71, 80
1, 106155, Note_on_c, 0, 71, 0
1, 106160, Note_on_c, 0, 64, 80
1, 106235, Note_on_c, 0, 64, 0
1, 106240, Note_on_c, 0, 59, 80
1, 106315, Note_on_c, 0, 59, 0
1, 106320, Note_on_c, 0, 59, 80
1, 106395, Note_on_c, 0, 59, 0
1, 106400, Note_on_c, 0, 64, 80
1, 106475, Note_on_c, 0, 64, 0
1, 106480, Note_on_c, 0, 71, 80
1, 106555, Note_on_c, 0, 71, 0
1, 106560, Note_on_c, 0, 62, 80
1, 106560, Note_on_c, 0, 65, 80
1, 106560, Note_on_c, 0, 69, 80
1, 106787, Note_on_c, 0, 62, 0
1, 106787, Note_on_c, 0, 65, 0
1, 106787, Note_on_c, 0, 69, 0
1, 106800, Note_on_c, 0, 69, 80
1, 107027, Note_on_c, 0, 69, 0
1, 107040, Note_on_c, 0, 62, 80
1, 107040, Note_on_c, 0, 67, 80
1, 107267, Note_on_c, 0, 62, 0
1, 107267, Note_on_c, 0, 67, 0
1, 107280, Note_on_c, 0, 65, 80
1, 107507, Note_on_c, 0, 65, 0
1, 107520, Note_on_c, 0, 71, 80
1, 107520, Note_on_c, 0, 72, 80
1, 107520, Note_on_c, 0, 76, 80
1, 108431, Note_on_c, 0, 71, 0
1, 108431, Note_on_c, 0, 72, 0
1, 108431, Note_on_c, 0, 76, 0
1, 108480, Note_on_c, 0, 67, 80
1, 108480, Note_on_c, 0, 71, 80
1, 108480, Note_on_c, 0, 76, 80
1, 108935, Note_on_c, 0, 67, 0
1, 108935, Note_on_c, 0, 71, 0
1, 108935, Note_on_c, 0, 76, 0
1, 108960, Note_on_c, 0, 83, 80
1, 109301, Note_on_c, 0, 83, 0
1, 109410, Note_on_c, 0, 76, 80
1, 109437, Note_on_c, 0, 76, 0
1, 109440, Tempo, 1052632
1, 109440, Note_on_c, 0, 81, 80
1, 109895, Note_on_c, 0, 81, 0
1, 109920, Note_on_c, 0, 76, 80
1, 110147, Note_on_c, 0, 76, 0
1, 110160, Note_on_c, 0, 81, 80
1, 110273, Note_on_c, 0, 81, 0
1, 110370, Tempo, 1111111
1, 110370, Note_on_c, 0, 74, 80
1, 110397, Note_on_c, 0, 74, 0
1, 110400, Note_on_c, 0, 79, 80
1, 110855, Note_on_c, 0, 79, 0
1, 110880, Note_on_c, 0, 74, 80
1, 111107, Note_on_c, 0, 74, 0
1, 111120, Note_on_c, 0, 71, 80
1, 111233, Note_on_c, 0, 71, 0
1, 111300, Tempo, 1200000
1, 111300, Note_on_c, 0, 65, 80
1, 111327, Note_on_c, 0, 65, 0
1, 111330, Note_on_c, 0, 71, 80
1, 111357, Note_on_c, 0, 71, 0
1, 111360, Note_on_c, 0, 72, 80
1, 111815, Note_on_c, 0, 72, 0
1, 112080, Note_on_c, 0, 72, 80
1, 112307, Note_on_c, 0, 72, 0
1, 112320, Tempo, 1304348
1, 112320, Note_on_c, 0, 65, 80
1, 112320, Note_on_c, 0, 71, 80
1, 112775, Note_on_c, 0, 65, 0
1, 112775, Note_on_c, 0, 71, 0
1, 112800, Note_on_c, 0, 71, 80
1, 112800, Note_on_c, 0, 76, 80
1, 113027, Note_on_c, 0, 71, 0
1, 113027, Note_on_c, 0, 76, 0
1, 113040, Note_on_c, 0, 74, 80
1, 113159, Note_on_c, 0, 74, 0
1, 113280, Tempo, 1428571
1, 113280, Note_on_c, 0, 76, 80
1, 113520, Tempo, 1666667
1, 114191, Note_on_c, 0, 76, 0
1, 114192, End_track
2, 0, Start_track
2, 0, Title_t, "Piano, Piano\000"
2, 0, Key_signature, 0, "major"
2, 0, MIDI_port, 0
2, 0, Note_on_c, 0, 57, 80
2, 911, Note_on_c, 0, 57, 0
2, 960, Note_on_c, 0, 55, 80
2, 960, Note_on_c, 0, 64, 80
2, 1415, Note_on_c, 0, 55, 0
2, 1415, Note_on_c, 0, 64, 0
2, 1860, Note_on_c, 0, 69, 80
2, 1916, Note_on_c, 0, 69, 0
2, 1920, Note_on_c, 0, 53, 80
2, 2147, Note_on_c, 0, 53, 0
2, 2160, Note_on_c, 0, 60, 80
2, 2387, Note_on_c, 0, 60, 0
2, 2400, Note_on_c, 0, 64, 80
2, 2579, Note_on_c, 0, 64, 0
2, 2820, Note_on_c, 0, 67, 80
2, 2876, Note_on_c, 0, 67, 0
2, 2880, Note_on_c, 0, 52, 80
2, 3107, Note_on_c, 0, 52, 0
2, 3120, Note_on_c, 0, 59, 80
2, 3347, Note_on_c, 0, 59, 0
2, 3360, Note_on_c, 0, 62, 80
2, 3599, Note_on_c, 0, 62, 0
2, 3840, Note_on_c, 0, 50, 80
2, 4067, Note_on_c, 0, 50, 0
2, 4080, Note_on_c, 0, 57, 80
2, 4307, Note_on_c, 0, 57, 0
2, 4320, Note_on_c, 0, 64, 80
2, 4320, Note_on_c, 0, 65, 80
2, 4775, Note_on_c, 0, 64, 0
2, 4775, Note_on_c, 0, 65, 0
2, 4800, Note_on_c, 0, 55, 80
2, 5255, Note_on_c, 0, 55, 0
2, 5280, Note_on_c, 0, 62, 80
2, 5459, Note_on_c, 0, 62, 0
2, 5700, Note_on_c, 0, 67, 80
2, 5727, Note_on_c, 0, 67, 0
2, 5730, Note_on_c, 0, 71, 80
2, 5757, Note_on_c, 0, 71, 0
2, 5760, Note_on_c, 0, 48, 80
2, 5987, Note_on_c, 0, 48, 0
2, 6000, Note_on_c, 0, 55, 80
2, 6227, Note_on_c, 0, 55, 0
2, 6240, Note_on_c, 0, 60, 80
2, 6240, Note_on_c, 0, 64, 80
2, 6695, Note_on_c, 0, 60, 0
2, 6695, Note_on_c, 0, 64, 0
2, 6720, Note_on_c, 0, 53, 80
2, 6720, Note_on_c, 0, 59, 80
2, 7175, Note_on_c, 0, 53, 0
2, 7175, Note_on_c, 0, 59, 0
2, 7200, Note_on_c, 0, 59, 80
2, 7200, Note_on_c, 0, 62, 80
2, 7379, Note_on_c, 0, 59, 0
2, 7379, Note_on_c, 0, 62, 0
2, 7620, Note_on_c, 0, 71, 80
2, 7647, Note_on_c, 0, 71, 0
2, 7650, Note_on_c, 0, 72, 80
2, 7677, Note_on_c, 0, 72, 0
2, 7680, Note_on_c, 0, 57, 80
2, 8591, Note_on_c, 0, 57, 0
2, 8640, Note_on_c, 0, 55, 80
2, 9095, Note_on_c, 0, 55, 0
2, 9540, Note_on_c, 0, 69, 80
2, 9596, Note_on_c, 0, 69, 0
2, 9600, Note_on_c, 0, 53, 80
2, 9827, Note_on_c, 0, 53, 0
2, 9840, Note_on_c, 0, 60, 80
2, 10067, Note_on_c, 0, 60, 0
2, 10080, Note_on_c, 0, 64, 80
2, 10259, Note_on_c, 0, 64, 0
2, 10500, Note_on_c, 0, 67, 80
2, 10556, Note_on_c, 0, 67, 0
2, 10560, Note_on_c, 0, 52, 80
2, 10787, Note_on_c, 0, 52, 0
2, 10800, Note_on_c, 0, 59, 80
2, 11027, Note_on_c, 0, 59, 0
2, 11040, Note_on_c, 0, 62, 80
2, 11279, Note_on_c, 0, 62, 0
2, 11520, Note_on_c, 0, 50, 80
2, 11747, Note_on_c, 0, 50, 0
2, 11760, Note_on_c, 0, 57, 80
2, 11987, Note_on_c, 0, 57, 0
2, 12000, Note_on_c, 0, 64, 80
2, 12000, Note_on_c, 0, 65, 80
2, 12455, Note_on_c, 0, 64, 0
2, 12455, Note_on_c, 0, 65, 0
2, 12480, Note_on_c, 0, 55, 80
2, 12935, Note_on_c, 0, 55, 0
2, 12960, Note_on_c, 0, 62, 80
2, 13139, Note_on_c, 0, 62, 0
2, 13380, Note_on_c, 0, 67, 80
2, 13407, Note_on_c, 0, 67, 0
2, 13410, Note_on_c, 0, 71, 80
2, 13437, Note_on_c, 0, 71, 0
2, 13440, Note_on_c, 0, 48, 80
2, 13667, Note_on_c, 0, 48, 0
2, 13680, Note_on_c, 0, 55, 80
2, 13907, Note_on_c, 0, 55, 0
2, 13920, Note_on_c, 0, 60, 80
2, 13920, Note_on_c, 0, 64, 80
2, 14375, Note_on_c, 0, 60, 0
2, 14375, Note_on_c, 0, 64, 0
2, 14400, Note_on_c, 0, 53, 80
2, 14400, Note_on_c, 0, 59, 80
2, 14855, Note_on_c, 0, 53, 0
2, 14855, Note_on_c, 0, 59, 0
2, 14880, Note_on_c, 0, 59, 80
2, 14880, Note_on_c, 0, 62, 80
2, 15059, Note_on_c, 0, 59, 0
2, 15059, Note_on_c, 0, 62, 0
2, 15300, Note_on_c, 0, 71, 80
2, 15327, Note_on_c, 0, 71, 0
2, 15330, Note_on_c, 0, 72, 80
2, 15357, Note_on_c, 0, 72, 0
2, 15360, Note_on_c, 0, 57, 80
2, 15587, Note_on_c, 0, 57, 0
2, 15600, Note_on_c, 0, 52, 80
2, 15827, Note_on_c, 0, 52, 0
2, 15840, Note_on_c, 0, 57, 80
2, 16079, Note_on_c, 0, 57, 0
2, 16320, Note_on_c, 0, 55, 80
2, 16547, Note_on_c, 0, 55, 0
2, 16560, Note_on_c, 0, 52, 80
2, 16787, Note_on_c, 0, 52, 0
2, 16800, Note_on_c, 0, 55, 80
2, 17255, Note_on_c, 0, 55, 0
2, 17280, Note_on_c, 0, 53, 80
2, 17507, Note_on_c, 0, 53, 0
2, 17520, Note_on_c, 0, 48, 80
2, 17747, Note_on_c, 0, 48, 0
2, 17760, Note_on_c, 0, 53, 80
2, 18215, Note_on_c, 0, 53, 0
2, 18240, Note_on_c, 0, 62, 80
2, 18467, Note_on_c, 0, 62, 0
2, 18480, Note_on_c, 0, 48, 80
2, 18707, Note_on_c, 0, 48, 0
2, 18720, Note_on_c, 0, 52, 80
2, 18947, Note_on_c, 0, 52, 0
2, 18960, Note_on_c, 0, 48, 80
2, 19187, Note_on_c, 0, 48, 0
2, 19200, Note_on_c, 0, 50, 80
2, 19427, Note_on_c, 0, 50, 0
2, 19440, Note_on_c, 0, 57, 80
2, 19667, Note_on_c, 0, 57, 0
2, 19680, Note_on_c, 0, 53, 80
2, 19680, Note_on_c, 0, 57, 80
2, 19680, Note_on_c, 0, 60, 80
2, 20135, Note_on_c, 0, 53, 0
2, 20135, Note_on_c, 0, 57, 0
2, 20135, Note_on_c, 0, 60, 0
2, 20160, Note_on_c, 0, 59, 80
2, 20615, Note_on_c, 0, 59, 0
2, 20640, Note_on_c, 0, 55, 80
2, 20867, Note_on_c, 0, 55, 0
2, 20880, Note_on_c, 0, 59, 80
2, 21107, Note_on_c, 0, 59, 0
2, 21120, Note_on_c, 0, 48, 80
2, 21347, Note_on_c, 0, 48, 0
2, 21360, Note_on_c, 0, 55, 80
2, 21587, Note_on_c, 0, 55, 0
2, 21600, Note_on_c, 0, 60, 80
2, 22055, Note_on_c, 0, 60, 0
2, 22080, Note_on_c, 0, 53, 80
2, 22080, Note_on_c, 0, 59, 80
2, 22307, Note_on_c, 0, 53, 0
2, 22307, Note_on_c, 0, 59, 0
2, 22320, Note_on_c, 0, 57, 80
2, 23003, Note_on_c, 0, 57, 0
2, 23040, Note_on_c, 0, 53, 80
2, 23040, Note_on_c, 0, 57, 80
2, 23267, Note_on_c, 0, 53, 0
2, 23267, Note_on_c, 0, 57, 0
2, 23280, Note_on_c, 0, 57, 80
2, 23507, Note_on_c, 0, 57, 0
2, 23520, Note_on_c, 0, 57, 80
2, 23747, Note_on_c, 0, 57, 0
2, 23760, Note_on_c, 0, 53, 80
2, 23760, Note_on_c, 0, 57, 80
2, 23987, Note_on_c, 0, 53, 0
2, 23987, Note_on_c, 0, 57, 0
2, 24000, Note_on_c, 0, 57, 80
2, 24227, Note_on_c, 0, 57, 0
2, 24240, Note_on_c, 0, 57, 80
2, 24467, Note_on_c, 0, 57, 0
2, 24480, Note_on_c, 0, 57, 80
2, 24707, Note_on_c, 0, 57, 0
2, 24720, Note_on_c, 0, 53, 80
2, 24720, Note_on_c, 0, 57, 80
2, 24947, Note_on_c, 0, 53, 0
2, 24947, Note_on_c, 0, 57, 0
2, 24960, Note_on_c, 0, 53, 80
2, 24960, Note_on_c, 0, 57, 80
2, 25187, Note_on_c, 0, 53, 0
2, 25187, Note_on_c, 0, 57, 0
2, 25200, Note_on_c, 0, 57, 80
2, 25427, Note_on_c, 0, 57, 0
2, 25440, Note_on_c, 0, 57, 80
2, 25667, Note_on_c, 0, 57, 0
2, 25680, Note_on_c, 0, 53, 80
2, 25680, Note_on_c, 0, 57, 80
2, 25907, Note_on_c, 0, 53, 0
2, 25907, Note_on_c, 0, 57, 0
2, 25920, Note_on_c, 0, 57, 80
2, 26147, Note_on_c, 0, 57, 0
2, 26160, Note_on_c, 0, 57, 80
2, 26387, Note_on_c, 0, 57, 0
2, 26400, Note_on_c, 0, 55, 80
2, 26400, Note_on_c, 0, 57, 80
2, 26627, Note_on_c, 0, 55, 0
2, 26627, Note_on_c, 0, 57, 0
2, 26640, Note_on_c, 0, 57, 80
2, 26867, Note_on_c, 0, 57, 0
2, 26880, Note_on_c, 0, 57, 80
2, 27107, Note_on_c, 0, 57, 0
2, 27120, Note_on_c, 0, 57, 80
2, 27347, Note_on_c, 0, 57, 0
2, 27360, Note_on_c, 0, 57, 80
2, 27587, Note_on_c, 0, 57, 0
2, 27600, Note_on_c, 0, 57, 80
2, 27827, Note_on_c, 0, 57, 0
2, 27840, Note_on_c, 0, 57, 80
2, 28067, Note_on_c, 0, 57, 0
2, 28080, Note_on_c, 0, 57, 80
2, 28307, Note_on_c, 0, 57, 0
2, 28320, Note_on_c, 0, 57, 80
2, 28547, Note_on_c, 0, 57, 0
2, 28560, Note_on_c, 0, 57, 80
2, 28787, Note_on_c, 0, 57, 0
2, 28800, Note_on_c, 0, 57, 80
2, 29027, Note_on_c, 0, 57, 0
2, 29040, Note_on_c, 0, 57, 80
2, 29267, Note_on_c, 0, 57, 0
2, 29280, Note_on_c, 0, 57, 80
2, 29507, Note_on_c, 0, 57, 0
2, 29520, Note_on_c, 0, 57, 80
2, 29747, Note_on_c, 0, 57, 0
2, 29760, Note_on_c, 0, 57, 80
2, 29987, Note_on_c, 0, 57, 0
2, 30000, Note_on_c, 0, 57, 80
2, 30227, Note_on_c, 0, 57, 0
2, 30240, Note_on_c, 0, 57, 80
2, 30467, Note_on_c, 0, 57, 0
2, 30480, Note_on_c, 0, 57, 80
2, 30707, Note_on_c, 0, 57, 0
2, 30720, Note_on_c, 0, 53, 80
2, 30720, Note_on_c, 0, 57, 80
2, 30947, Note_on_c, 0, 53, 0
2, 30947, Note_on_c, 0, 57, 0
2, 30960, Note_on_c, 0, 57, 80
2, 31187, Note_on_c, 0, 57, 0
2, 31200, Note_on_c, 0, 57, 80
2, 31427, Note_on_c, 0, 57, 0
2, 31440, Note_on_c, 0, 53, 80
2, 31440, Note_on_c, 0, 57, 80
2, 31667, Note_on_c, 0, 53, 0
2, 31667, Note_on_c, 0, 57, 0
2, 31680, Note_on_c, 0, 57, 80
2, 31907, Note_on_c, 0, 57, 0
2, 31920, Note_on_c, 0, 57, 80
2, 32147, Note_on_c, 0, 57, 0
2, 32160, Note_on_c, 0, 57, 80
2, 32387, Note_on_c, 0, 57, 0
2, 32400, Note_on_c, 0, 53, 80
2, 32400, Note_on_c, 0, 57, 80
2, 32627, Note_on_c, 0, 53, 0
2, 32627, Note_on_c, 0, 57, 0
2, 32640, Note_on_c, 0, 53, 80
2, 32640, Note_on_c, 0, 57, 80
2, 32867, Note_on_c, 0, 53, 0
2, 32867, Note_on_c, 0, 57, 0
2, 32880, Note_on_c, 0, 57, 80
2, 33107, Note_on_c, 0, 57, 0
2, 33120, Note_on_c, 0, 57, 80
2, 33347, Note_on_c, 0, 57, 0
2, 33360, Note_on_c, 0, 53, 80
2, 33360, Note_on_c, 0, 57, 80
2, 33587, Note_on_c, 0, 53, 0
2, 33587, Note_on_c, 0, 57, 0
2, 33600, Note_on_c, 0, 57, 80
2, 33827, Note_on_c, 0, 57, 0
2, 33840, Note_on_c, 0, 57, 80
2, 34067, Note_on_c, 0, 57, 0
2, 34080, Note_on_c, 0, 53, 80
2, 34080, Note_on_c, 0, 57, 80
2, 34307, Note_on_c, 0, 53, 0
2, 34307, Note_on_c, 0, 57, 0
2, 34320, Note_on_c, 0, 57, 80
2, 34547, Note_on_c, 0, 57, 0
2, 34560, Note_on_c, 0, 55, 80
2, 34787, Note_on_c, 0, 55, 0
2, 34800, Note_on_c, 0, 55, 80
2, 35027, Note_on_c, 0, 55, 0
2, 35040, Note_on_c, 0, 55, 80
2, 35267, Note_on_c, 0, 55, 0
2, 35280, Note_on_c, 0, 55, 80
2, 35507, Note_on_c, 0, 55, 0
2, 35520, Note_on_c, 0, 55, 80
2, 35747, Note_on_c, 0, 55, 0
2, 35760, Note_on_c, 0, 55, 80
2, 35987, Note_on_c, 0, 55, 0
2, 36000, Note_on_c, 0, 55, 80
2, 36227, Note_on_c, 0, 55, 0
2, 36240, Note_on_c, 0, 55, 80
2, 36467, Note_on_c, 0, 55, 0
2, 38400, Note_on_c, 0, 57, 80
2, 38627, Note_on_c, 0, 57, 0
2, 38640, Note_on_c, 0, 52, 80
2, 38867, Note_on_c, 0, 52, 0
2, 38880, Note_on_c, 0, 57, 80
2, 39107, Note_on_c, 0, 57, 0
2, 39120, Note_on_c, 0, 52, 80
2, 39347, Note_on_c, 0, 52, 0
2, 39360, Note_on_c, 0, 55, 80
2, 39587, Note_on_c, 0, 55, 0
2, 39600, Note_on_c, 0, 52, 80
2, 39827, Note_on_c, 0, 52, 0
2, 39840, Note_on_c, 0, 59, 80
2, 40067, Note_on_c, 0, 59, 0
2, 40080, Note_on_c, 0, 52, 80
2, 40307, Note_on_c, 0, 52, 0
2, 40320, Note_on_c, 0, 53, 80
2, 40547, Note_on_c, 0, 53, 0
2, 40560, Note_on_c, 0, 48, 80
2, 40787, Note_on_c, 0, 48, 0
2, 40800, Note_on_c, 0, 53, 80
2, 40800, Note_on_c, 0, 57, 80
2, 41027, Note_on_c, 0, 53, 0
2, 41027, Note_on_c, 0, 57, 0
2, 41040, Note_on_c, 0, 48, 80
2, 41267, Note_on_c, 0, 48, 0
2, 41280, Note_on_c, 0, 52, 80
2, 41507, Note_on_c, 0, 52, 0
2, 41520, Note_on_c, 0, 48, 80
2, 41747, Note_on_c, 0, 48, 0
2, 41760, Note_on_c, 0, 52, 80
2, 41760, Note_on_c, 0, 55, 80
2, 41987, Note_on_c, 0, 52, 0
2, 41987, Note_on_c, 0, 55, 0
2, 42000, Note_on_c, 0, 48, 80
2, 42227, Note_on_c, 0, 48, 0
2, 42240, Note_on_c, 0, 50, 80
2, 42467, Note_on_c, 0, 50, 0
2, 42480, Note_on_c, 0, 53, 80
2, 42707, Note_on_c, 0, 53, 0
2, 42720, Note_on_c, 0, 57, 80
2, 42720, Note_on_c, 0, 60, 80
2, 42947, Note_on_c, 0, 57, 0
2, 42947, Note_on_c, 0, 60, 0
2, 42960, Note_on_c, 0, 50, 80
2, 43187, Note_on_c, 0, 50, 0
2, 43200, Note_on_c, 0, 55, 80
2, 43427, Note_on_c, 0, 55, 0
2, 43440, Note_on_c, 0, 50, 80
2, 43667, Note_on_c, 0, 50, 0
2, 43680, Note_on_c, 0, 53, 80
2, 43680, Note_on_c, 0, 59, 80
2, 43907, Note_on_c, 0, 53, 0
2, 43907, Note_on_c, 0, 59, 0
2, 43920, Note_on_c, 0, 53, 80
2, 44147, Note_on_c, 0, 53, 0
2, 44160, Note_on_c, 0, 48, 80
2, 44387, Note_on_c, 0, 48, 0
2, 44400, Note_on_c, 0, 52, 80
2, 44400, Note_on_c, 0, 59, 80
2, 44519, Note_on_c, 0, 52, 0
2, 44519, Note_on_c, 0, 59, 0
2, 44640, Note_on_c, 0, 55, 80
2, 44867, Note_on_c, 0, 55, 0
2, 44880, Note_on_c, 0, 52, 80
2, 45107, Note_on_c, 0, 52, 0
2, 45120, Note_on_c, 0, 59, 80
2, 45575, Note_on_c, 0, 59, 0
2, 45600, Note_on_c, 0, 52, 80
2, 45600, Note_on_c, 0, 59, 80
2, 46055, Note_on_c, 0, 52, 0
2, 46055, Note_on_c, 0, 59, 0
2, 46080, Note_on_c, 0, 57, 80
2, 46307, Note_on_c, 0, 57, 0
2, 46320, Note_on_c, 0, 52, 80
2, 46547, Note_on_c, 0, 52, 0
2, 46560, Note_on_c, 0, 57, 80
2, 46787, Note_on_c, 0, 57, 0
2, 46800, Note_on_c, 0, 52, 80
2, 47027, Note_on_c, 0, 52, 0
2, 47040, Note_on_c, 0, 55, 80
2, 47267, Note_on_c, 0, 55, 0
2, 47280, Note_on_c, 0, 52, 80
2, 47507, Note_on_c, 0, 52, 0
2, 47520, Note_on_c, 0, 59, 80
2, 47747, Note_on_c, 0, 59, 0
2, 47760, Note_on_c, 0, 52, 80
2, 47987, Note_on_c, 0, 52, 0
2, 48000, Note_on_c, 0, 53, 80
2, 48227, Note_on_c, 0, 53, 0
2, 48240, Note_on_c, 0, 48, 80
2, 48467, Note_on_c, 0, 48, 0
2, 48480, Note_on_c, 0, 53, 80
2, 48707, Note_on_c, 0, 53, 0
2, 48720, Note_on_c, 0, 48, 80
2, 48947, Note_on_c, 0, 48, 0
2, 48960, Note_on_c, 0, 52, 80
2, 49187, Note_on_c, 0, 52, 0
2, 49200, Note_on_c, 0, 48, 80
2, 49427, Note_on_c, 0, 48, 0
2, 49440, Note_on_c, 0, 52, 80
2, 49667, Note_on_c, 0, 52, 0
2, 49680, Note_on_c, 0, 48, 80
2, 49907, Note_on_c, 0, 48, 0
2, 49920, Note_on_c, 0, 50, 80
2, 50147, Note_on_c, 0, 50, 0
2, 50160, Note_on_c, 0, 48, 80
2, 50387, Note_on_c, 0, 48, 0
2, 50400, Note_on_c, 0, 53, 80
2, 50627, Note_on_c, 0, 53, 0
2, 50640, Note_on_c, 0, 48, 80
2, 50867, Note_on_c, 0, 48, 0
2, 50880, Note_on_c, 0, 55, 80
2, 51107, Note_on_c, 0, 55, 0
2, 51120, Note_on_c, 0, 50, 80
2, 51347, Note_on_c, 0, 50, 0
2, 51360, Note_on_c, 0, 59, 80
2, 51479, Note_on_c, 0, 59, 0
2, 51600, Note_on_c, 0, 50, 80
2, 51827, Note_on_c, 0, 50, 0
2, 51840, Note_on_c, 0, 48, 80
2, 52067, Note_on_c, 0, 48, 0
2, 52080, Note_on_c, 0, 52, 80
2, 52307, Note_on_c, 0, 52, 0
2, 52320, Note_on_c, 0, 60, 80
2, 52547, Note_on_c, 0, 60, 0
2, 52560, Note_on_c, 0, 52, 80
2, 52787, Note_on_c, 0, 52, 0
2, 52800, Note_on_c, 0, 59, 80
2, 53255, Note_on_c, 0, 59, 0
2, 53280, Note_on_c, 0, 59, 80
2, 53735, Note_on_c, 0, 59, 0
2, 53760, Note_on_c, 0, 57, 80
2, 54671, Note_on_c, 0, 57, 0
2, 54720, Note_on_c, 0, 55, 80
2, 54720, Note_on_c, 0, 64, 80
2, 55175, Note_on_c, 0, 55, 0
2, 55175, Note_on_c, 0, 64, 0
2, 55620, Note_on_c, 0, 69, 80
2, 55676, Note_on_c, 0, 69, 0
2, 55680, Note_on_c, 0, 53, 80
2, 55907, Note_on_c, 0, 53, 0
2, 55920, Note_on_c, 0, 60, 80
2, 56147, Note_on_c, 0, 60, 0
2, 56160, Note_on_c, 0, 64, 80
2, 56339, Note_on_c, 0, 64, 0
2, 56580, Note_on_c, 0, 67, 80
2, 56636, Note_on_c, 0, 67, 0
2, 56640, Note_on_c, 0, 52, 80
2, 56867, Note_on_c, 0, 52, 0
2, 56880, Note_on_c, 0, 59, 80
2, 57107, Note_on_c, 0, 59, 0
2, 57120, Note_on_c, 0, 62, 80
2, 57359, Note_on_c, 0, 62, 0
2, 57600, Note_on_c, 0, 50, 80
2, 57827, Note_on_c, 0, 50, 0
2, 57840, Note_on_c, 0, 57, 80
2, 58067, Note_on_c, 0, 57, 0
2, 58080, Note_on_c, 0, 64, 80
2, 58080, Note_on_c, 0, 65, 80
2, 58535, Note_on_c, 0, 64, 0
2, 58535, Note_on_c, 0, 65, 0
2, 58560, Note_on_c, 0, 55, 80
2, 59015, Note_on_c, 0, 55, 0
2, 59040, Note_on_c, 0, 62, 80
2, 59219, Note_on_c, 0, 62, 0
2, 59460, Note_on_c, 0, 67, 80
2, 59487, Note_on_c, 0, 67, 0
2, 59490, Note_on_c, 0, 71, 80
2, 59517, Note_on_c, 0, 71, 0
2, 59520, Note_on_c, 0, 48, 80
2, 59747, Note_on_c, 0, 48, 0
2, 59760, Note_on_c, 0, 55, 80
2, 59987, Note_on_c, 0, 55, 0
2, 60000, Note_on_c, 0, 60, 80
2, 60000, Note_on_c, 0, 64, 80
2, 60455, Note_on_c, 0, 60, 0
2, 60455, Note_on_c, 0, 64, 0
2, 60480, Note_on_c, 0, 53, 80
2, 60480, Note_on_c, 0, 59, 80
2, 60935, Note_on_c, 0, 53, 0
2, 60935, Note_on_c, 0, 59, 0
2, 60960, Note_on_c, 0, 59, 80
2, 60960, Note_on_c, 0, 62, 80
2, 61139, Note_on_c, 0, 59, 0
2, 61139, Note_on_c, 0, 62, 0
2, 61380, Note_on_c, 0, 71, 80
2, 61407, Note_on_c, 0, 71, 0
2, 61410, Note_on_c, 0, 72, 80
2, 61437, Note_on_c, 0, 72, 0
2, 61440, Note_on_c, 0, 57, 80
2, 62351, Note_on_c, 0, 57, 0
2, 62400, Note_on_c, 0, 55, 80
2, 62855, Note_on_c, 0, 55, 0
2, 63300, Note_on_c, 0, 69, 80
2, 63356, Note_on_c, 0, 69, 0
2, 63360, Note_on_c, 0, 53, 80
2, 63587, Note_on_c, 0, 53, 0
2, 63600, Note_on_c, 0, 60, 80
2, 63827, Note_on_c, 0, 60, 0
2, 63840, Note_on_c, 0, 64, 80
2, 64019, Note_on_c, 0, 64, 0
2, 64260, Note_on_c, 0, 67, 80
2, 64316, Note_on_c, 0, 67, 0
2, 64320, Note_on_c, 0, 52, 80
2, 64547, Note_on_c, 0, 52, 0
2, 64560, Note_on_c, 0, 59, 80
2, 64787, Note_on_c, 0, 59, 0
2, 64800, Note_on_c, 0, 62, 80
2, 65039, Note_on_c, 0, 62, 0
2, 65280, Note_on_c, 0, 50, 80
2, 65507, Note_on_c, 0, 50, 0
2, 65520, Note_on_c, 0, 57, 80
2, 65747, Note_on_c, 0, 57, 0
2, 65760, Note_on_c, 0, 64, 80
2, 65760, Note_on_c, 0, 65, 80
2, 66215, Note_on_c, 0, 64, 0
2, 66215, Note_on_c, 0, 65, 0
2, 66240, Note_on_c, 0, 55, 80
2, 66695, Note_on_c, 0, 55, 0
2, 66720, Note_on_c, 0, 62, 80
2, 66899, Note_on_c, 0, 62, 0
2, 67140, Note_on_c, 0, 67, 80
2, 67167, Note_on_c, 0, 67, 0
2, 67170, Note_on_c, 0, 71, 80
2, 67197, Note_on_c, 0, 71, 0
2, 67200, Note_on_c, 0, 48, 80
2, 67427, Note_on_c, 0, 48, 0
2, 67440, Note_on_c, 0, 55, 80
2, 67667, Note_on_c, 0, 55, 0
2, 67680, Note_on_c, 0, 60, 80
2, 67680, Note_on_c, 0, 64, 80
2, 68135, Note_on_c, 0, 60, 0
2, 68135, Note_on_c, 0, 64, 0
2, 68160, Note_on_c, 0, 53, 80
2, 68160, Note_on_c, 0, 59, 80
2, 68615, Note_on_c, 0, 53, 0
2, 68615, Note_on_c, 0, 59, 0
2, 68640, Note_on_c, 0, 59, 80
2, 68640, Note_on_c, 0, 62, 80
2, 68819, Note_on_c, 0, 59, 0
2, 68819, Note_on_c, 0, 62, 0
2, 69060, Note_on_c, 0, 71, 80
2, 69087, Note_on_c, 0, 71, 0
2, 69090, Note_on_c, 0, 72, 80
2, 69117, Note_on_c, 0, 72, 0
2, 69120, Note_on_c, 0, 57, 80
2, 69347, Note_on_c, 0, 57, 0
2, 69360, Note_on_c, 0, 52, 80
2, 69587, Note_on_c, 0, 52, 0
2, 69600, Note_on_c, 0, 57, 80
2, 69839, Note_on_c, 0, 57, 0
2, 70080, Note_on_c, 0, 55, 80
2, 70307, Note_on_c, 0, 55, 0
2, 70320, Note_on_c, 0, 52, 80
2, 70547, Note_on_c, 0, 52, 0
2, 70560, Note_on_c, 0, 55, 80
2, 71015, Note_on_c, 0, 55, 0
2, 71040, Note_on_c, 0, 53, 80
2, 71267, Note_on_c, 0, 53, 0
2, 71280, Note_on_c, 0, 48, 80
2, 71507, Note_on_c, 0, 48, 0
2, 71520, Note_on_c, 0, 53, 80
2, 71975, Note_on_c, 0, 53, 0
2, 72000, Note_on_c, 0, 62, 80
2, 72227, Note_on_c, 0, 62, 0
2, 72240, Note_on_c, 0, 48, 80
2, 72467, Note_on_c, 0, 48, 0
2, 72480, Note_on_c, 0, 52, 80
2, 72707, Note_on_c, 0, 52, 0
2, 72720, Note_on_c, 0, 48, 80
2, 72947, Note_on_c, 0, 48, 0
2, 72960, Note_on_c, 0, 50, 80
2, 73187, Note_on_c, 0, 50, 0
2, 73200, Note_on_c, 0, 57, 80
2, 73427, Note_on_c, 0, 57, 0
2, 73440, Note_on_c, 0, 53, 80
2, 73440, Note_on_c, 0, 57, 80
2, 73440, Note_on_c, 0, 60, 80
2, 73895, Note_on_c, 0, 53, 0
2, 73895, Note_on_c, 0, 57, 0
2, 73895, Note_on_c, 0, 60, 0
2, 73920, Note_on_c, 0, 59, 80
2, 74375, Note_on_c, 0, 59, 0
2, 74400, Note_on_c, 0, 55, 80
2, 74627, Note_on_c, 0, 55, 0
2, 74640, Note_on_c, 0, 59, 80
2, 74867, Note_on_c, 0, 59, 0
2, 74880, Note_on_c, 0, 48, 80
2, 75107, Note_on_c, 0, 48, 0
2, 75120, Note_on_c, 0, 55, 80
2, 75347, Note_on_c, 0, 55, 0
2, 75360, Note_on_c, 0, 60, 80
2, 75815, Note_on_c, 0, 60, 0
2, 75840, Note_on_c, 0, 53, 80
2, 75840, Note_on_c, 0, 59, 80
2, 76067, Note_on_c, 0, 53, 0
2, 76067, Note_on_c, 0, 59, 0
2, 76080, Note_on_c, 0, 57, 80
2, 76763, Note_on_c, 0, 57, 0
2, 76800, Note_on_c, 0, 53, 80
2, 76800, Note_on_c, 0, 57, 80
2, 77027, Note_on_c, 0, 53, 0
2, 77027, Note_on_c, 0, 57, 0
2, 77040, Note_on_c, 0, 57, 80
2, 77267, Note_on_c, 0, 57, 0
2, 77280, Note_on_c, 0, 57, 80
2, 77507, Note_on_c, 0, 57, 0
2, 77520, Note_on_c, 0, 53, 80
2, 77520, Note_on_c, 0, 57, 80
2, 77747, Note_on_c, 0, 53, 0
2, 77747, Note_on_c, 0, 57, 0
2, 77760, Note_on_c, 0, 57, 80
2, 77987, Note_on_c, 0, 57, 0
2, 78000, Note_on_c, 0, 57, 80
2, 78227, Note_on_c, 0, 57, 0
2, 78240, Note_on_c, 0, 57, 80
2, 78467, Note_on_c, 0, 57, 0
2, 78480, Note_on_c, 0, 53, 80
2, 78480, Note_on_c, 0, 57, 80
2, 78707, Note_on_c, 0, 53, 0
2, 78707, Note_on_c, 0, 57, 0
2, 78720, Note_on_c, 0, 53, 80
2, 78720, Note_on_c, 0, 57, 80
2, 78947, Note_on_c, 0, 53, 0
2, 78947, Note_on_c, 0, 57, 0
2, 78960, Note_on_c, 0, 57, 80
2, 79187, Note_on_c, 0, 57, 0
2, 79200, Note_on_c, 0, 57, 80
2, 79427, Note_on_c, 0, 57, 0
2, 79440, Note_on_c, 0, 53, 80
2, 79440, Note_on_c, 0, 57, 80
2, 79667, Note_on_c, 0, 53, 0
2, 79667, Note_on_c, 0, 57, 0
2, 79680, Note_on_c, 0, 57, 80
2, 79907, Note_on_c, 0, 57, 0
2, 79920, Note_on_c, 0, 57, 80
2, 80147, Note_on_c, 0, 57, 0
2, 80160, Note_on_c, 0, 55, 80
2, 80160, Note_on_c, 0, 57, 80
2, 80387, Note_on_c, 0, 55, 0
2, 80387, Note_on_c, 0, 57, 0
2, 80400, Note_on_c, 0, 57, 80
2, 80627, Note_on_c, 0, 57, 0
2, 80640, Note_on_c, 0, 57, 80
2, 80867, Note_on_c, 0, 57, 0
2, 80880, Note_on_c, 0, 57, 80
2, 81107, Note_on_c, 0, 57, 0
2, 81120, Note_on_c, 0, 57, 80
2, 81347, Note_on_c, 0, 57, 0
2, 81360, Note_on_c, 0, 57, 80
2, 81587, Note_on_c, 0, 57, 0
2, 81600, Note_on_c, 0, 57, 80
2, 81827, Note_on_c, 0, 57, 0
2, 81840, Note_on_c, 0, 57, 80
2, 82067, Note_on_c, 0, 57, 0
2, 82080, Note_on_c, 0, 57, 80
2, 82307, Note_on_c, 0, 57, 0
2, 82320, Note_on_c, 0, 57, 80
2, 82547, Note_on_c, 0, 57, 0
2, 82560, Note_on_c, 0, 57, 80
2, 82787, Note_on_c, 0, 57, 0
2, 82800, Note_on_c, 0, 57, 80
2, 83027, Note_on_c, 0, 57, 0
2, 83040, Note_on_c, 0, 57, 80
2, 83267, Note_on_c, 0, 57, 0
2, 83280, Note_on_c, 0, 57, 80
2, 83507, Note_on_c, 0, 57, 0
2, 83520, Note_on_c, 0, 57, 80
2, 83747, Note_on_c, 0, 57, 0
2, 83760, Note_on_c, 0, 57, 80
2, 83987, Note_on_c, 0, 57, 0
2, 84000, Note_on_c, 0, 57, 80
2, 84227, Note_on_c, 0, 57, 0
2, 84240, Note_on_c, 0, 57, 80
2, 84467, Note_on_c, 0, 57, 0
2, 84480, Note_on_c, 0, 57, 80
2, 84599, Note_on_c, 0, 57, 0
2, 84720, Note_on_c, 0, 57, 80
2, 84833, Note_on_c, 0, 57, 0
2, 84840, Note_on_c, 0, 52, 80
2, 84953, Note_on_c, 0, 52, 0
2, 84960, Note_on_c, 0, 57, 80
2, 85073, Note_on_c, 0, 57, 0
2, 85080, Note_on_c, 0, 59, 80
2, 85193, Note_on_c, 0, 59, 0
2, 85200, Note_on_c, 0, 60, 80
2, 85319, Note_on_c, 0, 60, 0
2, 85440, Note_on_c, 0, 57, 80
2, 85553, Note_on_c, 0, 57, 0
2, 85560, Note_on_c, 0, 52, 80
2, 85673, Note_on_c, 0, 52, 0
2, 85680, Note_on_c, 0, 57, 80
2, 85793, Note_on_c, 0, 57, 0
2, 85800, Note_on_c, 0, 59, 80
2, 85913, Note_on_c, 0, 59, 0
2, 85920, Note_on_c, 0, 60, 80
2, 86159, Note_on_c, 0, 60, 0
2, 86400, Note_on_c, 0, 57, 80
2, 86519, Note_on_c, 0, 57, 0
2, 86640, Note_on_c, 0, 57, 80
2, 86753, Note_on_c, 0, 57, 0
2, 86760, Note_on_c, 0, 52, 80
2, 86873, Note_on_c, 0, 52, 0
2, 86880, Note_on_c, 0, 57, 80
2, 86993, Note_on_c, 0, 57, 0
2, 87000, Note_on_c, 0, 59, 80
2, 87113, Note_on_c, 0, 59, 0
2, 87120, Note_on_c, 0, 60, 80
2, 87239, Note_on_c, 0, 60, 0
2, 87360, Note_on_c, 0, 57, 80
2, 87473, Note_on_c, 0, 57, 0
2, 87480, Note_on_c, 0, 52, 80
2, 87593, Note_on_c, 0, 52, 0
2, 87600, Note_on_c, 0, 57, 80
2, 87713, Note_on_c, 0, 57, 0
2, 87720, Note_on_c, 0, 59, 80
2, 87833, Note_on_c, 0, 59, 0
2, 87840, Note_on_c, 0, 60, 80
2, 88079, Note_on_c, 0, 60, 0
2, 88320, Note_on_c, 0, 60, 80
2, 88439, Note_on_c, 0, 60, 0
2, 88560, Note_on_c, 0, 60, 80
2, 88673, Note_on_c, 0, 60, 0
2, 88680, Note_on_c, 0, 59, 80
2, 88793, Note_on_c, 0, 59, 0
2, 88800, Note_on_c, 0, 60, 80
2, 88913, Note_on_c, 0, 60, 0
2, 88920, Note_on_c, 0, 62, 80
2, 89033, Note_on_c, 0, 62, 0
2, 89040, Note_on_c, 0, 64, 80
2, 89159, Note_on_c, 0, 64, 0
2, 89280, Note_on_c, 0, 60, 80
2, 89393, Note_on_c, 0, 60, 0
2, 89400, Note_on_c, 0, 59, 80
2, 89513, Note_on_c, 0, 59, 0
2, 89520, Note_on_c, 0, 60, 80
2, 89633, Note_on_c, 0, 60, 0
2, 89640, Note_on_c, 0, 62, 80
2, 89753, Note_on_c, 0, 62, 0
2, 89760, Note_on_c, 0, 64, 80
2, 89999, Note_on_c, 0, 64, 0
2, 90240, Note_on_c, 0, 60, 80
2, 90359, Note_on_c, 0, 60, 0
2, 90480, Note_on_c, 0, 60, 80
2, 90593, Note_on_c, 0, 60, 0
2, 90600, Note_on_c, 0, 59, 80
2, 90713, Note_on_c, 0, 59, 0
2, 90720, Note_on_c, 0, 60, 80
2, 90833, Note_on_c, 0, 60, 0
2, 90840, Note_on_c, 0, 62, 80
2, 90953, Note_on_c, 0, 62, 0
2, 90960, Note_on_c, 0, 64, 80
2, 91079, Note_on_c, 0, 64, 0
2, 91200, Note_on_c, 0, 60, 80
2, 91313, Note_on_c, 0, 60, 0
2, 91320, Note_on_c, 0, 59, 80
2, 91433, Note_on_c, 0, 59, 0
2, 91440, Note_on_c, 0, 60, 80
2, 91553, Note_on_c, 0, 60, 0
2, 91560, Note_on_c, 0, 62, 80
2, 91673, Note_on_c, 0, 62, 0
2, 91680, Note_on_c, 0, 64, 80
2, 91793, Note_on_c, 0, 64, 0
2, 91800, Note_on_c, 0, 62, 80
2, 91913, Note_on_c, 0, 62, 0
2, 91920, Note_on_c, 0, 60, 80
2, 92033, Note_on_c, 0, 60, 0
2, 92040, Note_on_c, 0, 59, 80
2, 92153, Note_on_c, 0, 59, 0
2, 92160, Note_on_c, 0, 57, 80
2, 92387, Note_on_c, 0, 57, 0
2, 92400, Note_on_c, 0, 52, 80
2, 92627, Note_on_c, 0, 52, 0
2, 92640, Note_on_c, 0, 57, 80
2, 92867, Note_on_c, 0, 57, 0
2, 92880, Note_on_c, 0, 52, 80
2, 93107, Note_on_c, 0, 52, 0
2, 93120, Note_on_c, 0, 55, 80
2, 93347, Note_on_c, 0, 55, 0
2, 93360, Note_on_c, 0, 52, 80
2, 93587, Note_on_c, 0, 52, 0
2, 93600, Note_on_c, 0, 59, 80
2, 93827, Note_on_c, 0, 59, 0
2, 93840, Note_on_c, 0, 52, 80
2, 94067, Note_on_c, 0, 52, 0
2, 94080, Note_on_c, 0, 53, 80
2, 94307, Note_on_c, 0, 53, 0
2, 94320, Note_on_c, 0, 48, 80
2, 94547, Note_on_c, 0, 48, 0
2, 94560, Note_on_c, 0, 53, 80
2, 94560, Note_on_c, 0, 57, 80
2, 94787, Note_on_c, 0, 53, 0
2, 94787, Note_on_c, 0, 57, 0
2, 94800, Note_on_c, 0, 48, 80
2, 95027, Note_on_c, 0, 48, 0
2, 95040, Note_on_c, 0, 52, 80
2, 95267, Note_on_c, 0, 52, 0
2, 95280, Note_on_c, 0, 48, 80
2, 95507, Note_on_c, 0, 48, 0
2, 95520, Note_on_c, 0, 52, 80
2, 95520, Note_on_c, 0, 55, 80
2, 95747, Note_on_c, 0, 52, 0
2, 95747, Note_on_c, 0, 55, 0
2, 95760, Note_on_c, 0, 48, 80
2, 95987, Note_on_c, 0, 48, 0
2, 96000, Note_on_c, 0, 50, 80
2, 96227, Note_on_c, 0, 50, 0
2, 96240, Note_on_c, 0, 53, 80
2, 96467, Note_on_c, 0, 53, 0
2, 96480, Note_on_c, 0, 57, 80
2, 96480, Note_on_c, 0, 60, 80
2, 96707, Note_on_c, 0, 57, 0
2, 96707, Note_on_c, 0, 60, 0
2, 96720, Note_on_c, 0, 50, 80
2, 96947, Note_on_c, 0, 50, 0
2, 96960, Note_on_c, 0, 55, 80
2, 97187, Note_on_c, 0, 55, 0
2, 97200, Note_on_c, 0, 50, 80
2, 97427, Note_on_c, 0, 50, 0
2, 97440, Note_on_c, 0, 53, 80
2, 97440, Note_on_c, 0, 59, 80
2, 97667, Note_on_c, 0, 53, 0
2, 97667, Note_on_c, 0, 59, 0
2, 97680, Note_on_c, 0, 53, 80
2, 97907, Note_on_c, 0, 53, 0
2, 97920, Note_on_c, 0, 48, 80
2, 98147, Note_on_c, 0, 48, 0
2, 98160, Note_on_c, 0, 52, 80
2, 98160, Note_on_c, 0, 59, 80
2, 98279, Note_on_c, 0, 52, 0
2, 98279, Note_on_c, 0, 59, 0
2, 98400, Note_on_c, 0, 55, 80
2, 98627, Note_on_c, 0, 55, 0
2, 98640, Note_on_c, 0, 52, 80
2, 98867, Note_on_c, 0, 52, 0
2, 98880, Note_on_c, 0, 59, 80
2, 99335, Note_on_c, 0, 59, 0
2, 99360, Note_on_c, 0, 52, 80
2, 99360, Note_on_c, 0, 59, 80
2, 99815, Note_on_c, 0, 52, 0
2, 99815, Note_on_c, 0, 59, 0
2, 99840, Note_on_c, 0, 57, 80
2, 100067, Note_on_c, 0, 57, 0
2, 100080, Note_on_c, 0, 52, 80
2, 100307, Note_on_c, 0, 52, 0
2, 100320, Note_on_c, 0, 57, 80
2, 100547, Note_on_c, 0, 57, 0
2, 100560, Note_on_c, 0, 52, 80
2, 100787, Note_on_c, 0, 52, 0
2, 100800, Note_on_c, 0, 55, 80
2, 101027, Note_on_c, 0, 55, 0
2, 101040, Note_on_c, 0, 52, 80
2, 101267, Note_on_c, 0, 52, 0
2, 101280, Note_on_c, 0, 59, 80
2, 101507, Note_on_c, 0, 59, 0
2, 101520, Note_on_c, 0, 52, 80
2, 101747, Note_on_c, 0, 52, 0
2, 101760, Note_on_c, 0, 53, 80
2, 101987, Note_on_c, 0, 53, 0
2, 102000, Note_on_c, 0, 48, 80
2, 102227, Note_on_c, 0, 48, 0
2, 102240, Note_on_c, 0, 53, 80
2, 102467, Note_on_c, 0, 53, 0
2, 102480, Note_on_c, 0, 48, 80
2, 102707, Note_on_c, 0, 48, 0
2, 102720, Note_on_c, 0, 52, 80
2, 102947, Note_on_c, 0, 52, 0
2, 102960, Note_on_c, 0, 48, 80
2, 103187, Note_on_c, 0, 48, 0
2, 103200, Note_on_c, 0, 52, 80
2, 103427, Note_on_c, 0, 52, 0
2, 103440, Note_on_c, 0, 48, 80
2, 103667, Note_on_c, 0, 48, 0
2, 103680, Note_on_c, 0, 50, 80
2, 103907, Note_on_c, 0, 50, 0
2, 103920, Note_on_c, 0, 48, 80
2, 104147, Note_on_c, 0, 48, 0
2, 104160, Note_on_c, 0, 53, 80
2, 104387, Note_on_c, 0, 53, 0
2, 104400, Note_on_c, 0, 48, 80
2, 104627, Note_on_c, 0, 48, 0
2, 104640, Note_on_c, 0, 55, 80
2, 104867, Note_on_c, 0, 55, 0
2, 104880, Note_on_c, 0, 50, 80
2, 105107, Note_on_c, 0, 50, 0
2, 105120, Note_on_c, 0, 59, 80
2, 105239, Note_on_c, 0, 59, 0
2, 105360, Note_on_c, 0, 50, 80
2, 105587, Note_on_c, 0, 50, 0
2, 105600, Note_on_c, 0, 48, 80
2, 105827, Note_on_c, 0, 48, 0
2, 105840, Note_on_c, 0, 52, 80
2, 106067, Note_on_c, 0, 52, 0
2, 106080, Note_on_c, 0, 60, 80
2, 106307, Note_on_c, 0, 60, 0
2, 106320, Note_on_c, 0, 52, 80
2, 106547, Note_on_c, 0, 52, 0
2, 106560, Note_on_c, 0, 59, 80
2, 107015, Note_on_c, 0, 59, 0
2, 107040, Note_on_c, 0, 59, 80
2, 107495, Note_on_c, 0, 59, 0
2, 107520, Note_on_c, 0, 57, 80
2, 108431, Note_on_c, 0, 57, 0
2, 108480, Note_on_c, 0, 55, 80
2, 108480, Note_on_c, 0, 64, 80
2, 108935, Note_on_c, 0, 55, 0
2, 108935, Note_on_c, 0, 64, 0
2, 109380, Note_on_c, 0, 69, 80
2, 109436, Note_on_c, 0, 69, 0
2, 109440, Note_on_c, 0, 53, 80
2, 109667, Note_on_c, 0, 53, 0
2, 109680, Note_on_c, 0, 60, 80
2, 109907, Note_on_c, 0, 60, 0
2, 109920, Note_on_c, 0, 64, 80
2, 110099, Note_on_c, 0, 64, 0
2, 110340, Note_on_c, 0, 67, 80
2, 110396, Note_on_c, 0, 67, 0
2, 110400, Note_on_c, 0, 52, 80
2, 110627, Note_on_c, 0, 52, 0
2, 110640, Note_on_c, 0, 59, 80
2, 110867, Note_on_c, 0, 59, 0
2, 110880, Note_on_c, 0, 62, 80
2, 111119, Note_on_c, 0, 62, 0
2, 111360, Note_on_c, 0, 50, 80
2, 111587, Note_on_c, 0, 50, 0
2, 111600, Note_on_c, 0, 57, 80
2, 111827, Note_on_c, 0, 57, 0
2, 111840, Note_on_c, 0, 64, 80
2, 111840, Note_on_c, 0, 65, 80
2, 112295, Note_on_c, 0, 64, 0
2, 112295, Note_on_c, 0, 65, 0
2, 112320, Note_on_c, 0, 55, 80
2, 112775, Note_on_c, 0, 55, 0
2, 112800, Note_on_c, 0, 62, 80
2, 112979, Note_on_c, 0, 62, 0
2, 113220, Note_on_c, 0, 67, 80
2, 113247, Note_on_c, 0, 67, 0
2, 113250, Note_on_c, 0, 71, 80
2, 113277, Note_on_c, 0, 71, 0
2, 113280, Note_on_c, 0, 48, 80
2, 113507, Note_on_c, 0, 48, 0
2, 113520, Note_on_c, 0, 55, 80
2, 113747, Note_on_c, 0, 55, 0
2, 113760, Note_on_c, 0, 60, 80
2, 113760, Note_on_c, 0, 64, 80
2, 114215, Note_on_c, 0, 60, 0
2, 114215, Note_on_c, 0, 64, 0
2, 114216, End_track
3, 0, Start_track
3, 0, Title_t, "Electric Bass, Bass\000"
3, 0, Key_signature, 0, "major"
3, 0, Control_c, 1, 121, 0
3, 0, Program_c, 1, 33
3, 0, Control_c, 1, 7, 100
3, 0, Control_c, 1, 10, 64
3, 0, Control_c, 1, 91, 0
3, 0, Control_c, 1, 93, 0
3, 0, MIDI_port, 0
3, 0, Control_c, 3, 121, 0
3, 0, Program_c, 3, 36
3, 0, Control_c, 3, 7, 100
3, 0, Control_c, 3, 10, 64
3, 0, Control_c, 3, 91, 0
3, 0, Control_c, 3, 93, 0
3, 0, MIDI_port, 0
3, 0, Control_c, 4, 121, 0
3, 0, Program_c, 4, 37
3, 0, Control_c, 4, 7, 100
3, 0, Control_c, 4, 10, 64
3, 0, Control_c, 4, 91, 0
3, 0, Control_c, 4, 93, 0
3, 0, MIDI_port, 0
3, 7680, Note_on_c, 1, 57, 80
3, 8639, Note_on_c, 1, 57, 0
3, 8640, Note_on_c, 1, 55, 80
3, 9599, Note_on_c, 1, 55, 0
3, 9600, Note_on_c, 1, 53, 80
3, 10559, Note_on_c, 1, 53, 0
3, 10560, Note_on_c, 1, 52, 80
3, 11519, Note_on_c, 1, 52, 0
3, 11520, Note_on_c, 1, 50, 80
3, 12479, Note_on_c, 1, 50, 0
3, 12480, Note_on_c, 1, 55, 80
3, 13439, Note_on_c, 1, 55, 0
3, 13440, Note_on_c, 1, 60, 80
3, 14399, Note_on_c, 1, 60, 0
3, 14400, Note_on_c, 1, 59, 80
3, 15359, Note_on_c, 1, 59, 0
3, 15360, Note_on_c, 1, 57, 80
3, 16319, Note_on_c, 1, 57, 0
3, 16320, Note_on_c, 1, 55, 80
3, 17279, Note_on_c, 1, 55, 0
3, 17280, Note_on_c, 1, 53, 80
3, 18239, Note_on_c, 1, 53, 0
3, 18240, Note_on_c, 1, 52, 80
3, 19199, Note_on_c, 1, 52, 0
3, 19200, Note_on_c, 1, 50, 80
3, 20159, Note_on_c, 1, 50, 0
3, 20160, Note_on_c, 1, 55, 80
3, 21119, Note_on_c, 1, 55, 0
3, 21120, Note_on_c, 1, 60, 80
3, 22079, Note_on_c, 1, 60, 0
3, 22080, Note_on_c, 1, 59, 80
3, 23039, Note_on_c, 1, 59, 0
3, 23040, Note_on_c, 1, 53, 80
3, 23759, Note_on_c, 1, 53, 0
3, 23760, Note_on_c, 1, 53, 80
3, 24719, Note_on_c, 1, 53, 0
3, 24720, Note_on_c, 1, 53, 80
3, 24959, Note_on_c, 1, 53, 0
3, 24960, Note_on_c, 1, 53, 80
3, 25679, Note_on_c, 1, 53, 0
3, 25680, Note_on_c, 1, 53, 80
3, 26399, Note_on_c, 1, 53, 0
3, 26400, Note_on_c, 1, 55, 80
3, 26879, Note_on_c, 1, 55, 0
3, 26880, Note_on_c, 1, 57, 80
3, 27599, Note_on_c, 1, 57, 0
3, 27600, Note_on_c, 1, 57, 80
3, 28559, Note_on_c, 1, 57, 0
3, 28560, Note_on_c, 1, 64, 80
3, 28799, Note_on_c, 1, 64, 0
3, 28800, Note_on_c, 1, 57, 80
3, 29519, Note_on_c, 1, 57, 0
3, 29520, Note_on_c, 1, 57, 80
3, 30239, Note_on_c, 1, 57, 0
3, 30240, Note_on_c, 1, 55, 80
3, 30719, Note_on_c, 1, 55, 0
3, 30720, Note_on_c, 1, 53, 80
3, 31439, Note_on_c, 1, 53, 0
3, 31440, Note_on_c, 1, 53, 80
3, 32399, Note_on_c, 1, 53, 0
3, 32400, Note_on_c, 1, 53, 80
3, 32639, Note_on_c, 1, 53, 0
3, 32640, Note_on_c, 1, 53, 80
3, 33359, Note_on_c, 1, 53, 0
3, 33360, Note_on_c, 1, 53, 80
3, 34079, Note_on_c, 1, 53, 0
3, 34080, Note_on_c, 1, 53, 80
3, 34559, Note_on_c, 1, 53, 0
3, 34560, Note_on_c, 1, 60, 80
3, 35279, Note_on_c, 1, 60, 0
3, 35280, Note_on_c, 1, 60, 80
3, 36239, Note_on_c, 1, 60, 0
3, 36240, Note_on_c, 1, 60, 80
3, 36479, Note_on_c, 1, 60, 0
3, 36480, Note_on_c, 1, 60, 80
3, 37439, Note_on_c, 1, 60, 0
3, 37440, Note_on_c, 1, 59, 80
3, 38399, Note_on_c, 1, 59, 0
3, 38400, Note_on_c, 1, 57, 80
3, 39359, Note_on_c, 1, 57, 0
3, 39360, Note_on_c, 1, 55, 80
3, 40319, Note_on_c, 1, 55, 0
3, 40320, Note_on_c, 1, 53, 80
3, 41279, Note_on_c, 1, 53, 0
3, 41280, Note_on_c, 1, 52, 80
3, 42239, Note_on_c, 1, 52, 0
3, 42240, Note_on_c, 1, 50, 80
3, 43199, Note_on_c, 1, 50, 0
3, 43200, Note_on_c, 1, 55, 80
3, 44159, Note_on_c, 1, 55, 0
3, 44160, Note_on_c, 1, 60, 80
3, 45119, Note_on_c, 1, 60, 0
3, 45120, Note_on_c, 1, 59, 80
3, 45599, Note_on_c, 1, 59, 0
3, 45600, Note_on_c, 1, 52, 80
3, 46079, Note_on_c, 1, 52, 0
3, 46080, Note_on_c, 1, 57, 80
3, 47039, Note_on_c, 1, 57, 0
3, 47040, Note_on_c, 1, 55, 80
3, 47999, Note_on_c, 1, 55, 0
3, 48000, Note_on_c, 1, 53, 80
3, 48959, Note_on_c, 1, 53, 0
3, 48960, Note_on_c, 1, 52, 80
3, 49919, Note_on_c, 1, 52, 0
3, 49920, Note_on_c, 1, 50, 80
3, 50879, Note_on_c, 1, 50, 0
3, 50880, Note_on_c, 1, 55, 80
3, 51839, Note_on_c, 1, 55, 0
3, 51840, Note_on_c, 1, 60, 80
3, 52799, Note_on_c, 1, 60, 0
3, 52800, Note_on_c, 1, 59, 80
3, 53759, Note_on_c, 1, 59, 0
3, 61440, Note_on_c, 1, 57, 80
3, 62399, Note_on_c, 1, 57, 0
3, 62400, Note_on_c, 1, 55, 80
3, 63359, Note_on_c, 1, 55, 0
3, 63360, Note_on_c, 1, 53, 80
3, 64319, Note_on_c, 1, 53, 0
3, 64320, Note_on_c, 1, 52, 80
3, 65279, Note_on_c, 1, 52, 0
3, 65280, Note_on_c, 1, 50, 80
3, 66239, Note_on_c, 1, 50, 0
3, 66240, Note_on_c, 1, 55, 80
3, 67199, Note_on_c, 1, 55, 0
3, 67200, Note_on_c, 1, 60, 80
3, 68159, Note_on_c, 1, 60, 0
3, 68160, Note_on_c, 1, 59, 80
3, 69119, Note_on_c, 1, 59, 0
3, 69120, Note_on_c, 1, 57, 80
3, 70079, Note_on_c, 1, 57, 0
3, 70080, Note_on_c, 1, 55, 80
3, 71039, Note_on_c, 1, 55, 0
3, 71040, Note_on_c, 1, 53, 80
3, 71999, Note_on_c, 1, 53, 0
3, 72000, Note_on_c, 1, 52, 80
3, 72959, Note_on_c, 1, 52, 0
3, 72960, Note_on_c, 1, 50, 80
3, 73919, Note_on_c, 1, 50, 0
3, 73920, Note_on_c, 1, 55, 80
3, 74879, Note_on_c, 1, 55, 0
3, 74880, Note_on_c, 1, 60, 80
3, 75839, Note_on_c, 1, 60, 0
3, 75840, Note_on_c, 1, 59, 80
3, 76799, Note_on_c, 1, 59, 0
3, 76800, Note_on_c, 1, 53, 80
3, 77519, Note_on_c, 1, 53, 0
3, 77520, Note_on_c, 1, 53, 80
3, 78479, Note_on_c, 1, 53, 0
3, 78480, Note_on_c, 1, 53, 80
3, 78719, Note_on_c, 1, 53, 0
3, 78720, Note_on_c, 1, 53, 80
3, 79439, Note_on_c, 1, 53, 0
3, 79440, Note_on_c, 1, 53, 80
3, 80159, Note_on_c, 1, 53, 0
3, 80160, Note_on_c, 1, 55, 80
3, 80639, Note_on_c, 1, 55, 0
3, 80640, Note_on_c, 1, 57, 80
3, 81359, Note_on_c, 1, 57, 0
3, 81360, Note_on_c, 1, 57, 80
3, 82319, Note_on_c, 1, 57, 0
3, 82320, Note_on_c, 1, 64, 80
3, 82559, Note_on_c, 1, 64, 0
3, 82560, Note_on_c, 1, 57, 80
3, 83279, Note_on_c, 1, 57, 0
3, 83280, Note_on_c, 1, 57, 80
3, 83999, Note_on_c, 1, 57, 0
3, 84000, Note_on_c, 1, 55, 80
3, 84479, Note_on_c, 1, 55, 0
3, 84480, Note_on_c, 1, 53, 80
3, 85199, Note_on_c, 1, 53, 0
3, 85200, Note_on_c, 1, 53, 80
3, 86159, Note_on_c, 1, 53, 0
3, 86160, Note_on_c, 1, 53, 80
3, 86399, Note_on_c, 1, 53, 0
3, 86400, Note_on_c, 1, 53, 80
3, 87119, Note_on_c, 1, 53, 0
3, 87120, Note_on_c, 1, 53, 80
3, 87839, Note_on_c, 1, 53, 0
3, 87840, Note_on_c, 1, 53, 80
3, 88319, Note_on_c, 1, 53, 0
3, 88320, Note_on_c, 1, 60, 80
3, 89039, Note_on_c, 1, 60, 0
3, 89040, Note_on_c, 1, 60, 80
3, 89999, Note_on_c, 1, 60, 0
3, 90000, Note_on_c, 1, 60, 80
3, 90239, Note_on_c, 1, 60, 0
3, 90240, Note_on_c, 1, 60, 80
3, 91199, Note_on_c, 1, 60, 0
3, 91200, Note_on_c, 1, 59, 80
3, 92159, Note_on_c, 1, 59, 0
3, 92160, Note_on_c, 1, 57, 80
3, 93119, Note_on_c, 1, 57, 0
3, 93120, Note_on_c, 1, 55, 80
3, 94079, Note_on_c, 1, 55, 0
3, 94080, Note_on_c, 1, 53, 80
3, 95039, Note_on_c, 1, 53, 0
3, 95040, Note_on_c, 1, 52, 80
3, 95999, Note_on_c, 1, 52, 0
3, 96000, Note_on_c, 1, 50, 80
3, 96959, Note_on_c, 1, 50, 0
3, 96960, Note_on_c, 1, 55, 80
3, 97919, Note_on_c, 1, 55, 0
3, 97920, Note_on_c, 1, 60, 80
3, 98879, Note_on_c, 1, 60, 0
3, 98880, Note_on_c, 1, 59, 80
3, 99359, Note_on_c, 1, 59, 0
3, 99360, Note_on_c, 1, 52, 80
3, 99839, Note_on_c, 1, 52, 0
3, 99840, Note_on_c, 1, 57, 80
3, 100799, Note_on_c, 1, 57, 0
3, 100800, Note_on_c, 1, 55, 80
3, 101759, Note_on_c, 1, 55, 0
3, 101760, Note_on_c, 1, 53, 80
3, 102719, Note_on_c, 1, 53, 0
3, 102720, Note_on_c, 1, 52, 80
3, 103679, Note_on_c, 1, 52, 0
3, 103680, Note_on_c, 1, 50, 80
3, 104639, Note_on_c, 1, 50, 0
3, 104640, Note_on_c, 1, 55, 80
3, 105599, Note_on_c, 1, 55, 0
3, 105600, Note_on_c, 1, 60, 80
3, 106559, Note_on_c, 1, 60, 0
3, 106560, Note_on_c, 1, 59, 80
3, 107519, Note_on_c, 1, 59, 0
3, 107520, End_track
4, 0, Start_track
4, 0, Title_t, "Bell, Bell\000"
4, 0, Key_signature, 0, "major"
4, 0, Control_c, 2, 121, 0
4, 0, Program_c, 2, 14
4, 0, Control_c, 2, 7, 100
4, 0, Control_c, 2, 10, 64
4, 0, Control_c, 2, 91, 0
4, 0, Control_c, 2, 93, 0
4, 0, MIDI_port, 0
4, 6960, Note_on_c, 2, 72, 80
4, 6960, Control_c, 2, 2, 80
4, 7199, Note_on_c, 2, 72, 0
4, 7200, Note_on_c, 2, 71, 80
4, 7439, Note_on_c, 2, 71, 0
4, 7440, Note_on_c, 2, 72, 80
4, 7679, Note_on_c, 2, 72, 0
4, 7680, Note_on_c, 2, 64, 80
4, 8399, Note_on_c, 2, 64, 0
4, 8400, Note_on_c, 2, 71, 80
4, 8639, Note_on_c, 2, 71, 0
4, 8640, Note_on_c, 2, 74, 80
4, 8879, Note_on_c, 2, 74, 0
4, 8880, Note_on_c, 2, 72, 80
4, 9119, Note_on_c, 2, 72, 0
4, 9120, Note_on_c, 2, 71, 80
4, 9359, Note_on_c, 2, 71, 0
4, 9360, Note_on_c, 2, 72, 80
4, 9599, Note_on_c, 2, 72, 0
4, 9600, Note_on_c, 2, 76, 80
4, 10319, Note_on_c, 2, 76, 0
4, 10320, Note_on_c, 2, 69, 80
4, 10559, Note_on_c, 2, 69, 0
4, 10560, Note_on_c, 2, 74, 80
4, 10799, Note_on_c, 2, 74, 0
4, 10800, Note_on_c, 2, 72, 80
4, 11039, Note_on_c, 2, 72, 0
4, 11040, Note_on_c, 2, 71, 80
4, 11279, Note_on_c, 2, 71, 0
4, 11280, Note_on_c, 2, 72, 80
4, 11519, Note_on_c, 2, 72, 0
4, 11520, Note_on_c, 2, 65, 80
4, 12239, Note_on_c, 2, 65, 0
4, 12240, Note_on_c, 2, 72, 80
4, 12479, Note_on_c, 2, 72, 0
4, 12480, Note_on_c, 2, 74, 80
4, 12719, Note_on_c, 2, 74, 0
4, 12720, Note_on_c, 2, 67, 80
4, 12959, Note_on_c, 2, 67, 0
4, 12960, Note_on_c, 2, 79, 80
4, 13199, Note_on_c, 2, 79, 0
4, 13200, Note_on_c, 2, 77, 80
4, 13439, Note_on_c, 2, 77, 0
4, 13440, Note_on_c, 2, 76, 80
4, 14159, Note_on_c, 2, 76, 0
4, 14160, Note_on_c, 2, 74, 80
4, 14399, Note_on_c, 2, 74, 0
4, 14640, Note_on_c, 2, 72, 80
4, 14879, Note_on_c, 2, 72, 0
4, 14880, Note_on_c, 2, 71, 80
4, 15119, Note_on_c, 2, 71, 0
4, 15120, Note_on_c, 2, 72, 80
4, 15359, Note_on_c, 2, 72, 0
4, 15360, Note_on_c, 2, 64, 80
4, 16079, Note_on_c, 2, 64, 0
4, 16080, Note_on_c, 2, 71, 80
4, 16319, Note_on_c, 2, 71, 0
4, 16320, Note_on_c, 2, 74, 80
4, 16559, Note_on_c, 2, 74, 0
4, 16560, Note_on_c, 2, 72, 80
4, 16799, Note_on_c, 2, 72, 0
4, 16800, Note_on_c, 2, 71, 80
4, 17039, Note_on_c, 2, 71, 0
4, 17040, Note_on_c, 2, 72, 80
4, 17279, Note_on_c, 2, 72, 0
4, 17280, Note_on_c, 2, 76, 80
4, 17999, Note_on_c, 2, 76, 0
4, 18000, Note_on_c, 2, 69, 80
4, 18239, Note_on_c, 2, 69, 0
4, 18240, Note_on_c, 2, 74, 80
4, 18479, Note_on_c, 2, 74, 0
4, 18480, Note_on_c, 2, 72, 80
4, 18719, Note_on_c, 2, 72, 0
4, 18720, Note_on_c, 2, 71, 80
4, 18959, Note_on_c, 2, 71, 0
4, 18960, Note_on_c, 2, 72, 80
4, 19199, Note_on_c, 2, 72, 0
4, 19200, Note_on_c, 2, 65, 80
4, 19919, Note_on_c, 2, 65, 0
4, 19920, Note_on_c, 2, 72, 80
4, 20159, Note_on_c, 2, 72, 0
4, 20160, Note_on_c, 2, 79, 80
4, 20399, Note_on_c, 2, 79, 0
4, 20400, Note_on_c, 2, 77, 80
4, 20639, Note_on_c, 2, 77, 0
4, 20640, Note_on_c, 2, 76, 80
4, 20879, Note_on_c, 2, 76, 0
4, 20880, Note_on_c, 2, 74, 80
4, 21119, Note_on_c, 2, 74, 0
4, 21120, Note_on_c, 2, 76, 80
4, 21839, Note_on_c, 2, 76, 0
4, 21840, Note_on_c, 2, 74, 80
4, 22079, Note_on_c, 2, 74, 0
4, 22080, Note_on_c, 2, 72, 80
4, 22319, Note_on_c, 2, 72, 0
4, 22320, Note_on_c, 2, 71, 80
4, 22559, Note_on_c, 2, 71, 0
4, 22560, Note_on_c, 2, 79, 80
4, 22799, Note_on_c, 2, 79, 0
4, 22800, Note_on_c, 2, 77, 80
4, 23039, Note_on_c, 2, 77, 0
4, 23040, Note_on_c, 2, 76, 80
4, 23279, Note_on_c, 2, 76, 0
4, 23280, Note_on_c, 2, 74, 80
4, 23519, Note_on_c, 2, 74, 0
4, 23520, Note_on_c, 2, 69, 80
4, 23759, Note_on_c, 2, 69, 0
4, 23760, Note_on_c, 2, 76, 80
4, 23999, Note_on_c, 2, 76, 0
4, 24000, Note_on_c, 2, 74, 80
4, 24239, Note_on_c, 2, 74, 0
4, 24240, Note_on_c, 2, 69, 80
4, 24479, Note_on_c, 2, 69, 0
4, 24480, Note_on_c, 2, 76, 80
4, 24719, Note_on_c, 2, 76, 0
4, 24720, Note_on_c, 2, 74, 80
4, 24959, Note_on_c, 2, 74, 0
4, 24960, Note_on_c, 2, 69, 80
4, 26399, Note_on_c, 2, 69, 0
4, 26400, Note_on_c, 2, 71, 80
4, 26879, Note_on_c, 2, 71, 0
4, 26880, Note_on_c, 2, 74, 80
4, 27119, Note_on_c, 2, 74, 0
4, 27120, Note_on_c, 2, 72, 80
4, 27359, Note_on_c, 2, 72, 0
4, 27360, Note_on_c, 2, 64, 80
4, 27599, Note_on_c, 2, 64, 0
4, 27600, Note_on_c, 2, 74, 80
4, 27839, Note_on_c, 2, 74, 0
4, 27840, Note_on_c, 2, 72, 80
4, 28079, Note_on_c, 2, 72, 0
4, 28080, Note_on_c, 2, 64, 80
4, 28319, Note_on_c, 2, 64, 0
4, 28320, Note_on_c, 2, 74, 80
4, 28559, Note_on_c, 2, 74, 0
4, 28560, Note_on_c, 2, 72, 80
4, 28799, Note_on_c, 2, 72, 0
4, 28800, Note_on_c, 2, 76, 80
4, 29519, Note_on_c, 2, 76, 0
4, 29520, Note_on_c, 2, 79, 80
4, 29759, Note_on_c, 2, 79, 0
4, 29760, Note_on_c, 2, 77, 80
4, 29999, Note_on_c, 2, 77, 0
4, 30000, Note_on_c, 2, 76, 80
4, 30239, Note_on_c, 2, 76, 0
4, 30240, Note_on_c, 2, 74, 80
4, 30479, Note_on_c, 2, 74, 0
4, 30480, Note_on_c, 2, 72, 80
4, 30719, Note_on_c, 2, 72, 0
4, 30720, Note_on_c, 2, 76, 80
4, 30959, Note_on_c, 2, 76, 0
4, 30960, Note_on_c, 2, 74, 80
4, 31199, Note_on_c, 2, 74, 0
4, 31200, Note_on_c, 2, 69, 80
4, 31439, Note_on_c, 2, 69, 0
4, 31440, Note_on_c, 2, 76, 80
4, 31679, Note_on_c, 2, 76, 0
4, 31680, Note_on_c, 2, 74, 80
4, 31919, Note_on_c, 2, 74, 0
4, 31920, Note_on_c, 2, 69, 80
4, 32159, Note_on_c, 2, 69, 0
4, 32160, Note_on_c, 2, 76, 80
4, 32399, Note_on_c, 2, 76, 0
4, 32400, Note_on_c, 2, 74, 80
4, 32639, Note_on_c, 2, 74, 0
4, 32640, Note_on_c, 2, 69, 80
4, 33599, Note_on_c, 2, 69, 0
4, 34080, Note_on_c, 2, 71, 80
4, 34559, Note_on_c, 2, 71, 0
4, 34560, Note_on_c, 2, 74, 80
4, 34799, Note_on_c, 2, 74, 0
4, 34800, Note_on_c, 2, 72, 80
4, 35039, Note_on_c, 2, 72, 0
4, 35040, Note_on_c, 2, 64, 80
4, 35279, Note_on_c, 2, 64, 0
4, 35280, Note_on_c, 2, 74, 80
4, 35519, Note_on_c, 2, 74, 0
4, 35520, Note_on_c, 2, 72, 80
4, 35759, Note_on_c, 2, 72, 0
4, 35760, Note_on_c, 2, 64, 80
4, 35999, Note_on_c, 2, 64, 0
4, 36000, Note_on_c, 2, 74, 80
4, 36239, Note_on_c, 2, 74, 0
4, 36240, Note_on_c, 2, 72, 80
4, 36479, Note_on_c, 2, 72, 0
4, 36480, Note_on_c, 2, 76, 80
4, 37199, Note_on_c, 2, 76, 0
4, 37200, Note_on_c, 2, 79, 80
4, 37439, Note_on_c, 2, 79, 0
4, 37440, Note_on_c, 2, 77, 80
4, 37679, Note_on_c, 2, 77, 0
4, 37680, Note_on_c, 2, 76, 80
4, 37919, Note_on_c, 2, 76, 0
4, 37920, Note_on_c, 2, 71, 80
4, 38159, Note_on_c, 2, 71, 0
4, 38160, Note_on_c, 2, 72, 80
4, 38399, Note_on_c, 2, 72, 0
4, 60720, Note_on_c, 2, 72, 80
4, 60959, Note_on_c, 2, 72, 0
4, 60960, Note_on_c, 2, 71, 80
4, 61199, Note_on_c, 2, 71, 0
4, 61200, Note_on_c, 2, 72, 80
4, 61439, Note_on_c, 2, 72, 0
4, 61440, Note_on_c, 2, 64, 80
4, 62159, Note_on_c, 2, 64, 0
4, 62160, Note_on_c, 2, 71, 80
4, 62399, Note_on_c, 2, 71, 0
4, 62400, Note_on_c, 2, 74, 80
4, 62639, Note_on_c, 2, 74, 0
4, 62640, Note_on_c, 2, 72, 80
4, 62879, Note_on_c, 2, 72, 0
4, 62880, Note_on_c, 2, 71, 80
4, 63119, Note_on_c, 2, 71, 0
4, 63120, Note_on_c, 2, 72, 80
4, 63359, Note_on_c, 2, 72, 0
4, 63360, Note_on_c, 2, 76, 80
4, 64079, Note_on_c, 2, 76, 0
4, 64080, Note_on_c, 2, 69, 80
4, 64319, Note_on_c, 2, 69, 0
4, 64320, Note_on_c, 2, 74, 80
4, 64559, Note_on_c, 2, 74, 0
4, 64560, Note_on_c, 2, 72, 80
4, 64799, Note_on_c, 2, 72, 0
4, 64800, Note_on_c, 2, 71, 80
4, 65039, Note_on_c, 2, 71, 0
4, 65040, Note_on_c, 2, 72, 80
4, 65279, Note_on_c, 2, 72, 0
4, 65280, Note_on_c, 2, 65, 80
4, 65999, Note_on_c, 2, 65, 0
4, 66000, Note_on_c, 2, 72, 80
4, 66239, Note_on_c, 2, 72, 0
4, 66240, Note_on_c, 2, 74, 80
4, 66479, Note_on_c, 2, 74, 0
4, 66480, Note_on_c, 2, 67, 80
4, 66719, Note_on_c, 2, 67, 0
4, 66720, Note_on_c, 2, 79, 80
4, 66959, Note_on_c, 2, 79, 0
4, 66960, Note_on_c, 2, 77, 80
4, 67199, Note_on_c, 2, 77, 0
4, 67200, Note_on_c, 2, 76, 80
4, 67919, Note_on_c, 2, 76, 0
4, 67920, Note_on_c, 2, 74, 80
4, 68159, Note_on_c, 2, 74, 0
4, 68400, Note_on_c, 2, 72, 80
4, 68639, Note_on_c, 2, 72, 0
4, 68640, Note_on_c, 2, 71, 80
4, 68879, Note_on_c, 2, 71, 0
4, 68880, Note_on_c, 2, 72, 80
4, 69119, Note_on_c, 2, 72, 0
4, 69120, Note_on_c, 2, 64, 80
4, 69839, Note_on_c, 2, 64, 0
4, 69840, Note_on_c, 2, 71, 80
4, 70079, Note_on_c, 2, 71, 0
4, 70080, Note_on_c, 2, 74, 80
4, 70319, Note_on_c, 2, 74, 0
4, 70320, Note_on_c, 2, 72, 80
4, 70559, Note_on_c, 2, 72, 0
4, 70560, Note_on_c, 2, 71, 80
4, 70799, Note_on_c, 2, 71, 0
4, 70800, Note_on_c, 2, 72, 80
4, 71039, Note_on_c, 2, 72, 0
4, 71040, Note_on_c, 2, 76, 80
4, 71759, Note_on_c, 2, 76, 0
4, 71760, Note_on_c, 2, 69, 80
4, 71999, Note_on_c, 2, 69, 0
4, 72000, Note_on_c, 2, 74, 80
4, 72239, Note_on_c, 2, 74, 0
4, 72240, Note_on_c, 2, 72, 80
4, 72479, Note_on_c, 2, 72, 0
4, 72480, Note_on_c, 2, 71, 80
4, 72719, Note_on_c, 2, 71, 0
4, 72720, Note_on_c, 2, 72, 80
4, 72959, Note_on_c, 2, 72, 0
4, 72960, Note_on_c, 2, 65, 80
4, 73679, Note_on_c, 2, 65, 0
4, 73680, Note_on_c, 2, 72, 80
4, 73919, Note_on_c, 2, 72, 0
4, 73920, Note_on_c, 2, 79, 80
4, 74159, Note_on_c, 2, 79, 0
4, 74160, Note_on_c, 2, 77, 80
4, 74399, Note_on_c, 2, 77, 0
4, 74400, Note_on_c, 2, 76, 80
4, 74639, Note_on_c, 2, 76, 0
4, 74640, Note_on_c, 2, 74, 80
4, 74879, Note_on_c, 2, 74, 0
4, 74880, Note_on_c, 2, 76, 80
4, 75599, Note_on_c, 2, 76, 0
4, 75600, Note_on_c, 2, 74, 80
4, 75839, Note_on_c, 2, 74, 0
4, 75840, Note_on_c, 2, 72, 80
4, 76079, Note_on_c, 2, 72, 0
4, 76080, Note_on_c, 2, 71, 80
4, 76319, Note_on_c, 2, 71, 0
4, 76320, Note_on_c, 2, 79, 80
4, 76559, Note_on_c, 2, 79, 0
4, 76560, Note_on_c, 2, 77, 80
4, 76799, Note_on_c, 2, 77, 0
4, 76800, Note_on_c, 2, 76, 80
4, 77039, Note_on_c, 2, 76, 0
4, 77040, Note_on_c, 2, 74, 80
4, 77279, Note_on_c, 2, 74, 0
4, 77280, Note_on_c, 2, 69, 80
4, 77519, Note_on_c, 2, 69, 0
4, 77520, Note_on_c, 2, 76, 80
4, 77759, Note_on_c, 2, 76, 0
4, 77760, Note_on_c, 2, 74, 80
4, 77999, Note_on_c, 2, 74, 0
4, 78000, Note_on_c, 2, 69, 80
4, 78239, Note_on_c, 2, 69, 0
4, 78240, Note_on_c, 2, 76, 80
4, 78479, Note_on_c, 2, 76, 0
4, 78480, Note_on_c, 2, 74, 80
4, 78719, Note_on_c, 2, 74, 0
4, 78720, Note_on_c, 2, 69, 80
4, 80159, Note_on_c, 2, 69, 0
4, 80160, Note_on_c, 2, 71, 80
4, 80639, Note_on_c, 2, 71, 0
4, 80640, Note_on_c, 2, 74, 80
4, 80879, Note_on_c, 2, 74, 0
4, 80880, Note_on_c, 2, 72, 80
4, 81119, Note_on_c, 2, 72, 0
4, 81120, Note_on_c, 2, 64, 80
4, 81359, Note_on_c, 2, 64, 0
4, 81360, Note_on_c, 2, 74, 80
4, 81599, Note_on_c, 2, 74, 0
4, 81600, Note_on_c, 2, 72, 80
4, 81839, Note_on_c, 2, 72, 0
4, 81840, Note_on_c, 2, 64, 80
4, 82079, Note_on_c, 2, 64, 0
4, 82080, Note_on_c, 2, 74, 80
4, 82319, Note_on_c, 2, 74, 0
4, 82320, Note_on_c, 2, 72, 80
4, 82559, Note_on_c, 2, 72, 0
4, 82560, Note_on_c, 2, 76, 80
4, 83279, Note_on_c, 2, 76, 0
4, 83280, Note_on_c, 2, 79, 80
4, 83519, Note_on_c, 2, 79, 0
4, 83520, Note_on_c, 2, 77, 80
4, 83759, Note_on_c, 2, 77, 0
4, 83760, Note_on_c, 2, 76, 80
4, 83999, Note_on_c, 2, 76, 0
4, 84000, Note_on_c, 2, 74, 80
4, 84239, Note_on_c, 2, 74, 0
4, 84240, Note_on_c, 2, 72, 80
4, 84479, Note_on_c, 2, 72, 0
4, 84480, Note_on_c, 2, 76, 80
4, 84719, Note_on_c, 2, 76, 0
4, 84720, Note_on_c, 2, 74, 80
4, 84959, Note_on_c, 2, 74, 0
4, 84960, Note_on_c, 2, 69, 80
4, 85199, Note_on_c, 2, 69, 0
4, 85200, Note_on_c, 2, 76, 80
4, 85439, Note_on_c, 2, 76, 0
4, 85440, Note_on_c, 2, 74, 80
4, 85679, Note_on_c, 2, 74, 0
4, 85680, Note_on_c, 2, 69, 80
4, 85919, Note_on_c, 2, 69, 0
4, 85920, Note_on_c, 2, 76, 80
4, 86159, Note_on_c, 2, 76, 0
4, 86160, Note_on_c, 2, 74, 80
4, 86399, Note_on_c, 2, 74, 0
4, 86400, Note_on_c, 2, 69, 80
4, 87359, Note_on_c, 2, 69, 0
4, 87840, Note_on_c, 2, 71, 80
4, 88319, Note_on_c, 2, 71, 0
4, 88320, Note_on_c, 2, 74, 80
4, 88559, Note_on_c, 2, 74, 0
4, 88560, Note_on_c, 2, 72, 80
4, 88799, Note_on_c, 2, 72, 0
4, 88800, Note_on_c, 2, 64, 80
4, 89039, Note_on_c, 2, 64, 0
4, 89040, Note_on_c, 2, 74, 80
4, 89279, Note_on_c, 2, 74, 0
4, 89280, Note_on_c, 2, 72, 80
4, 89519, Note_on_c, 2, 72, 0
4, 89520, Note_on_c, 2, 64, 80
4, 89759, Note_on_c, 2, 64, 0
4, 89760, Note_on_c, 2, 74, 80
4, 89999, Note_on_c, 2, 74, 0
4, 90000, Note_on_c, 2, 72, 80
4, 90239, Note_on_c, 2, 72, 0
4, 90240, Note_on_c, 2, 76, 80
4, 90959, Note_on_c, 2, 76, 0
4, 90960, Note_on_c, 2, 79, 80
4, 91199, Note_on_c, 2, 79, 0
4, 91200, Note_on_c, 2, 77, 80
4, 91439, Note_on_c, 2, 77, 0
4, 91440, Note_on_c, 2, 76, 80
4, 91679, Note_on_c, 2, 76, 0
4, 91680, Note_on_c, 2, 71, 80
4, 91919, Note_on_c, 2, 71, 0
4, 91920, Note_on_c, 2, 72, 80
4, 92159, Note_on_c, 2, 72, 0
4, 92160, Note_on_c, 2, 64, 80
4, 92879, Note_on_c, 2, 64, 0
4, 92880, Note_on_c, 2, 71, 80
4, 93119, Note_on_c, 2, 71, 0
4, 93120, Note_on_c, 2, 74, 80
4, 93359, Note_on_c, 2, 74, 0
4, 93360, Note_on_c, 2, 72, 80
4, 93599, Note_on_c, 2, 72, 0
4, 93600, Note_on_c, 2, 71, 80
4, 93839, Note_on_c, 2, 71, 0
4, 93840, Note_on_c, 2, 72, 80
4, 94079, Note_on_c, 2, 72, 0
4, 94080, Note_on_c, 2, 76, 80
4, 94799, Note_on_c, 2, 76, 0
4, 94800, Note_on_c, 2, 69, 80
4, 95039, Note_on_c, 2, 69, 0
4, 95040, Note_on_c, 2, 74, 80
4, 95279, Note_on_c, 2, 74, 0
4, 95280, Note_on_c, 2, 72, 80
4, 95519, Note_on_c, 2, 72, 0
4, 95520, Note_on_c, 2, 71, 80
4, 95759, Note_on_c, 2, 71, 0
4, 95760, Note_on_c, 2, 72, 80
4, 95999, Note_on_c, 2, 72, 0
4, 96000, Note_on_c, 2, 65, 80
4, 96719, Note_on_c, 2, 65, 0
4, 96720, Note_on_c, 2, 72, 80
4, 96959, Note_on_c, 2, 72, 0
4, 96960, Note_on_c, 2, 74, 80
4, 97199, Note_on_c, 2, 74, 0
4, 97200, Note_on_c, 2, 67, 80
4, 97439, Note_on_c, 2, 67, 0
4, 97440, Note_on_c, 2, 79, 80
4, 97679, Note_on_c, 2, 79, 0
4, 97680, Note_on_c, 2, 77, 80
4, 97919, Note_on_c, 2, 77, 0
4, 97920, Note_on_c, 2, 76, 80
4, 98639, Note_on_c, 2, 76, 0
4, 98640, Note_on_c, 2, 74, 80
4, 99119, Note_on_c, 2, 74, 0
4, 99120, Note_on_c, 2, 72, 80
4, 99359, Note_on_c, 2, 72, 0
4, 99360, Note_on_c, 2, 71, 80
4, 99599, Note_on_c, 2, 71, 0
4, 99600, Note_on_c, 2, 72, 80
4, 99839, Note_on_c, 2, 72, 0
4, 99840, Note_on_c, 2, 64, 80
4, 100559, Note_on_c, 2, 64, 0
4, 100560, Note_on_c, 2, 71, 80
4, 100799, Note_on_c, 2, 71, 0
4, 100800, Note_on_c, 2, 74, 80
4, 101039, Note_on_c, 2, 74, 0
4, 101040, Note_on_c, 2, 72, 80
4, 101279, Note_on_c, 2, 72, 0
4, 101280, Note_on_c, 2, 71, 80
4, 101519, Note_on_c, 2, 71, 0
4, 101520, Note_on_c, 2, 72, 80
4, 101759, Note_on_c, 2, 72, 0
4, 101760, Note_on_c, 2, 76, 80
4, 102479, Note_on_c, 2, 76, 0
4, 102480, Note_on_c, 2, 69, 80
4, 102719, Note_on_c, 2, 69, 0
4, 102720, Note_on_c, 2, 74, 80
4, 102959, Note_on_c, 2, 74, 0
4, 102960, Note_on_c, 2, 72, 80
4, 103199, Note_on_c, 2, 72, 0
4, 103200, Note_on_c, 2, 71, 80
4, 103439, Note_on_c, 2, 71, 0
4, 103440, Note_on_c, 2, 72, 80
4, 103679, Note_on_c, 2, 72, 0
4, 103680, Note_on_c, 2, 65, 80
4, 104399, Note_on_c, 2, 65, 0
4, 104400, Note_on_c, 2, 72, 80
4, 104639, Note_on_c, 2, 72, 0
4, 104640, Note_on_c, 2, 79, 80
4, 104879, Note_on_c, 2, 79, 0
4, 104880, Note_on_c, 2, 77, 80
4, 105119, Note_on_c, 2, 77, 0
4, 105120, Note_on_c, 2, 76, 80
4, 105359, Note_on_c, 2, 76, 0
4, 105360, Note_on_c, 2, 74, 80
4, 105599, Note_on_c, 2, 74, 0
4, 105600, Note_on_c, 2, 76, 80
4, 106319, Note_on_c, 2, 76, 0
4, 106320, Note_on_c, 2, 74, 80
4, 106559, Note_on_c, 2, 74, 0
4, 106800, Note_on_c, 2, 81, 80
4, 107039, Note_on_c, 2, 81, 0
4, 107040, Note_on_c, 2, 79, 80
4, 107279, Note_on_c, 2, 79, 0
4, 107280, Note_on_c, 2, 77, 80
4, 107519, Note_on_c, 2, 77, 0
4, 107520, End_track
0, 0, End_of_file
