0, 0, Header, 1, 3, 480
1, 0, Start_track
1, 0, Title_t, "Piano, Minstrel\000"
1, 0, Time_signature, 4, 2, 24, 8
1, 0, Key_signature, 0, "major"
1, 0, Tempo, 600000
1, 0, Control_c, 5, 121, 0
1, 0, Program_c, 5, 0
1, 0, Control_c, 5, 7, 100
1, 0, Control_c, 5, 10, 64
1, 0, Control_c, 5, 91, 0
1, 0, Control_c, 5, 93, 0
1, 0, MIDI_port, 0
1, 1680, Note_on_c, 5, 55, 80
1, 1907, Note_on_c, 5, 55, 0
1, 1920, Note_on_c, 5, 67, 80
1, 2375, Note_on_c, 5, 67, 0
1, 2400, Note_on_c, 5, 69, 80
1, 2855, Note_on_c, 5, 69, 0
1, 2880, Note_on_c, 5, 67, 80
1, 3335, Note_on_c, 5, 67, 0
1, 3600, Note_on_c, 5, 55, 80
1, 3827, Note_on_c, 5, 55, 0
1, 3840, Note_on_c, 5, 67, 80
1, 4295, Note_on_c, 5, 67, 0
1, 4320, Note_on_c, 5, 69, 80
1, 4775, Note_on_c, 5, 69, 0
1, 4800, Note_on_c, 5, 67, 80
1, 4913, Note_on_c, 5, 67, 0
1, 4920, Note_on_c, 5, 65, 80
1, 5261, Note_on_c, 5, 65, 0
1, 5280, Note_on_c, 5, 60, 80
1, 5735, Note_on_c, 5, 60, 0
1, 5760, Note_on_c, 5, 65, 80
1, 6215, Note_on_c, 5, 65, 0
1, 6240, Note_on_c, 5, 67, 80
1, 6695, Note_on_c, 5, 67, 0
1, 6720, Note_on_c, 5, 64, 80
1, 7175, Note_on_c, 5, 64, 0
1, 7200, Note_on_c, 5, 60, 80
1, 7655, Note_on_c, 5, 60, 0
1, 7680, Note_on_c, 5, 60, 80
1, 7919, Note_on_c, 5, 60, 0
1, 8160, Note_on_c, 5, 59, 80
1, 8399, Note_on_c, 5, 59, 0
1, 8640, Note_on_c, 5, 57, 80
1, 9095, Note_on_c, 5, 57, 0
1, 9120, Note_on_c, 5, 59, 80
1, 9347, Note_on_c, 5, 59, 0
1, 9360, Note_on_c, 5, 67, 80
1, 9587, Note_on_c, 5, 67, 0
1, 9600, Note_on_c, 5, 67, 80
1, 10055, Note_on_c, 5, 67, 0
1, 10080, Note_on_c, 5, 69, 80
1, 10535, Note_on_c, 5, 69, 0
1, 10560, Note_on_c, 5, 67, 80
1, 11015, Note_on_c, 5, 67, 0
1, 11280, Note_on_c, 5, 55, 80
1, 11507, Note_on_c, 5, 55, 0
1, 11520, Note_on_c, 5, 67, 80
1, 11975, Note_on_c, 5, 67, 0
1, 12000, Note_on_c, 5, 69, 80
1, 12455, Note_on_c, 5, 69, 0
1, 12480, Note_on_c, 5, 67, 80
1, 12593, Note_on_c, 5, 67, 0
1, 12600, Note_on_c, 5, 65, 80
1, 12941, Note_on_c, 5, 65, 0
1, 12960, Note_on_c, 5, 60, 80
1, 13415, Note_on_c, 5, 60, 0
1, 13440, Note_on_c, 5, 65, 80
1, 13895, Note_on_c, 5, 65, 0
1, 13920, Note_on_c, 5, 67, 80
1, 14375, Note_on_c, 5, 67, 0
1, 14400, Note_on_c, 5, 64, 80
1, 14855, Note_on_c, 5, 64, 0
1, 14880, Note_on_c, 5, 60, 80
1, 15335, Note_on_c, 5, 60, 0
1, 15360, Note_on_c, 5, 60, 80
1, 15599, Note_on_c, 5, 60, 0
1, 15840, Note_on_c, 5, 59, 80
1, 16079, Note_on_c, 5, 59, 0
1, 16320, Note_on_c, 5, 57, 80
1, 16775, Note_on_c, 5, 57, 0
1, 16800, Note_on_c, 5, 59, 80
1, 17027, Note_on_c, 5, 59, 0
1, 17040, Note_on_c, 5, 67, 80
1, 17267, Note_on_c, 5, 67, 0
1, 17280, Note_on_c, 5, 79, 96
1, 17735, Note_on_c, 5, 79, 0
1, 17760, Note_on_c, 5, 81, 96
1, 18215, Note_on_c, 5, 81, 0
1, 18240, Note_on_c, 5, 79, 96
1, 18467, Note_on_c, 5, 79, 0
1, 18480, Note_on_c, 5, 69, 80
1, 18593, Note_on_c, 5, 69, 0
1, 18600, Note_on_c, 5, 64, 80
1, 18713, Note_on_c, 5, 64, 0
1, 18720, Note_on_c, 5, 67, 80
1, 18833, Note_on_c, 5, 67, 0
1, 18840, Note_on_c, 5, 69, 80
1, 19181, Note_on_c, 5, 69, 0
1, 19200, Note_on_c, 5, 79, 96
1, 19655, Note_on_c, 5, 79, 0
1, 19680, Note_on_c, 5, 81, 96
1, 20135, Note_on_c, 5, 81, 0
1, 20160, Note_on_c, 5, 79, 96
1, 20615, Note_on_c, 5, 79, 0
1, 21120, Note_on_c, 5, 79, 96
1, 21575, Note_on_c, 5, 79, 0
1, 21600, Note_on_c, 5, 81, 96
1, 22055, Note_on_c, 5, 81, 0
1, 22080, Note_on_c, 5, 79, 96
1, 22535, Note_on_c, 5, 79, 0
1, 22800, Note_on_c, 5, 76, 96
1, 22913, Note_on_c, 5, 76, 0
1, 22920, Note_on_c, 5, 77, 96
1, 23033, Note_on_c, 5, 77, 0
1, 23040, Note_on_c, 5, 79, 96
1, 23153, Note_on_c, 5, 79, 0
1, 23160, Note_on_c, 5, 79, 96
1, 23387, Note_on_c, 5, 79, 0
1, 23400, Note_on_c, 5, 79, 96
1, 23741, Note_on_c, 5, 79, 0
1, 23760, Note_on_c, 5, 76, 96
1, 23873, Note_on_c, 5, 76, 0
1, 23880, Note_on_c, 5, 77, 96
1, 23993, Note_on_c, 5, 77, 0
1, 24000, Note_on_c, 5, 79, 96
1, 24113, Note_on_c, 5, 79, 0
1, 24120, Note_on_c, 5, 79, 96
1, 24347, Note_on_c, 5, 79, 0
1, 24360, Note_on_c, 5, 79, 96
1, 24701, Note_on_c, 5, 79, 0
1, 24960, Note_on_c, 5, 79, 96
1, 25415, Note_on_c, 5, 79, 0
1, 25440, Note_on_c, 5, 81, 96
1, 25895, Note_on_c, 5, 81, 0
1, 25920, Note_on_c, 5, 79, 96
1, 26159, Note_on_c, 5, 79, 0
1, 26880, Note_on_c, 5, 79, 96
1, 27335, Note_on_c, 5, 79, 0
1, 27360, Note_on_c, 5, 81, 96
1, 27815, Note_on_c, 5, 81, 0
1, 27840, Note_on_c, 5, 79, 96
1, 27959, Note_on_c, 5, 79, 0
1, 28080, Note_on_c, 5, 69, 96
1, 28307, Note_on_c, 5, 69, 0
1, 28320, Note_on_c, 5, 72, 96
1, 28547, Note_on_c, 5, 72, 0
1, 28560, Note_on_c, 5, 69, 96
1, 28679, Note_on_c, 5, 69, 0
1, 28800, Note_on_c, 5, 79, 96
1, 29255, Note_on_c, 5, 79, 0
1, 29280, Note_on_c, 5, 81, 96
1, 29735, Note_on_c, 5, 81, 0
1, 29760, Note_on_c, 5, 79, 96
1, 30215, Note_on_c, 5, 79, 0
1, 30480, Note_on_c, 5, 76, 96
1, 30593, Note_on_c, 5, 76, 0
1, 30600, Note_on_c, 5, 77, 96
1, 30713, Note_on_c, 5, 77, 0
1, 30720, Note_on_c, 5, 79, 96
1, 30833, Note_on_c, 5, 79, 0
1, 30840, Note_on_c, 5, 79, 96
1, 31067, Note_on_c, 5, 79, 0
1, 31080, Note_on_c, 5, 79, 96
1, 31421, Note_on_c, 5, 79, 0
1, 31440, Note_on_c, 5, 76, 96
1, 31553, Note_on_c, 5, 76, 0
1, 31560, Note_on_c, 5, 77, 96
1, 31673, Note_on_c, 5, 77, 0
1, 31680, Note_on_c, 5, 79, 96
1, 31793, Note_on_c, 5, 79, 0
1, 31800, Note_on_c, 5, 79, 96
1, 32027, Note_on_c, 5, 79, 0
1, 32040, Note_on_c, 5, 79, 96
1, 32381, Note_on_c, 5, 79, 0
1, 32640, Note_on_c, 5, 72, 80
1, 33095, Note_on_c, 5, 72, 0
1, 33120, Note_on_c, 5, 74, 84
1, 33575, Note_on_c, 5, 74, 0
1, 33600, Note_on_c, 5, 76, 88
1, 33827, Note_on_c, 5, 76, 0
1, 33840, Note_on_c, 5, 77, 90
1, 34295, Note_on_c, 5, 77, 0
1, 34320, Note_on_c, 5, 81, 94
1, 34547, Note_on_c, 5, 81, 0
1, 34560, Note_on_c, 5, 79, 96
1, 35927, Note_on_c, 5, 79, 0
1, 36240, Note_on_c, 5, 84, 96
1, 36353, Note_on_c, 5, 84, 0
1, 36360, Note_on_c, 5, 84, 96
1, 36473, Note_on_c, 5, 84, 0
1, 36480, Note_on_c, 5, 84, 96
1, 36593, Note_on_c, 5, 84, 0
1, 36600, Note_on_c, 5, 83, 96
1, 36827, Note_on_c, 5, 83, 0
1, 36840, Note_on_c, 5, 83, 96
1, 37181, Note_on_c, 5, 83, 0
1, 37200, Note_on_c, 5, 81, 96
1, 37427, Note_on_c, 5, 81, 0
1, 37440, Note_on_c, 5, 81, 96
1, 37553, Note_on_c, 5, 81, 0
1, 37560, Note_on_c, 5, 79, 96
1, 37787, Note_on_c, 5, 79, 0
1, 37800, Note_on_c, 5, 79, 96
1, 38027, Note_on_c, 5, 79, 0
1, 38040, Note_on_c, 5, 81, 96
1, 38153, Note_on_c, 5, 81, 0
1, 38160, Note_on_c, 5, 81, 96
1, 38273, Note_on_c, 5, 81, 0
1, 38280, Note_on_c, 5, 81, 96
1, 38393, Note_on_c, 5, 81, 0
1, 38400, Note_on_c, 5, 81, 96
1, 38627, Note_on_c, 5, 81, 0
1, 38640, Note_on_c, 5, 79, 96
1, 38867, Note_on_c, 5, 79, 0
1, 38880, Note_on_c, 5, 79, 96
1, 39107, Note_on_c, 5, 79, 0
1, 39120, Note_on_c, 5, 77, 96
1, 39347, Note_on_c, 5, 77, 0
1, 39360, Note_on_c, 5, 77, 96
1, 39587, Note_on_c, 5, 77, 0
1, 39600, Note_on_c, 5, 79, 96
1, 39827, Note_on_c, 5, 79, 0
1, 39840, Note_on_c, 5, 79, 96
1, 40295, Note_on_c, 5, 79, 0
1, 40320, Note_on_c, 5, 67, 80
1, 40775, Note_on_c, 5, 67, 0
1, 40800, Note_on_c, 5, 74, 96
1, 41255, Note_on_c, 5, 74, 0
1, 41280, Note_on_c, 5, 76, 96
1, 41507, Note_on_c, 5, 76, 0
1, 41520, Note_on_c, 5, 72, 96
1, 41975, Note_on_c, 5, 72, 0
1, 42000, Note_on_c, 5, 69, 96
1, 42227, Note_on_c, 5, 69, 0
1, 42240, Note_on_c, 5, 67, 96
1, 43151, Note_on_c, 5, 67, 0
1, 44160, Note_on_c, 5, 84, 80
1, 44501, Note_on_c, 5, 84, 0
1, 44520, Note_on_c, 5, 81, 80
1, 44633, Note_on_c, 5, 81, 0
1, 44880, Note_on_c, 5, 79, 80
1, 45107, Note_on_c, 5, 79, 0
1, 45120, Note_on_c, 5, 84, 80
1, 45461, Note_on_c, 5, 84, 0
1, 45480, Note_on_c, 5, 81, 80
1, 45593, Note_on_c, 5, 81, 0
1, 45840, Note_on_c, 5, 79, 80
1, 46067, Note_on_c, 5, 79, 0
1, 46320, Note_on_c, 5, 79, 112
1, 46547, Note_on_c, 5, 79, 0
1, 46560, Note_on_c, 5, 76, 112
1, 46673, Note_on_c, 5, 76, 0
1, 46680, Note_on_c, 5, 72, 112
1, 46907, Note_on_c, 5, 72, 0
1, 46920, Note_on_c, 5, 67, 112
1, 47945, Note_on_c, 5, 67, 0
1, 48000, Note_on_c, 5, 67, 80
1, 48455, Note_on_c, 5, 67, 0
1, 48480, Note_on_c, 5, 79, 80
1, 48935, Note_on_c, 5, 79, 0
1, 48960, Note_on_c, 5, 60, 80
1, 49187, Note_on_c, 5, 60, 0
1, 49200, Note_on_c, 5, 72, 80
1, 49200, Note_on_c, 5, 81, 80
1, 49427, Note_on_c, 5, 72, 0
1, 49427, Note_on_c, 5, 81, 0
1, 49440, Note_on_c, 5, 72, 80
1, 49440, Note_on_c, 5, 79, 80
1, 49553, Note_on_c, 5, 72, 0
1, 49553, Note_on_c, 5, 79, 0
1, 49560, Note_on_c, 5, 72, 80
1, 49560, Note_on_c, 5, 81, 80
1, 49739, Note_on_c, 5, 72, 0
1, 49739, Note_on_c, 5, 81, 0
1, 49920, Note_on_c, 5, 67, 80
1, 50375, Note_on_c, 5, 67, 0
1, 50400, Note_on_c, 5, 79, 80
1, 50855, Note_on_c, 5, 79, 0
1, 50880, Note_on_c, 5, 64, 80
1, 51107, Note_on_c, 5, 64, 0
1, 51120, Note_on_c, 5, 76, 80
1, 51120, Note_on_c, 5, 81, 80
1, 51347, Note_on_c, 5, 76, 0
1, 51347, Note_on_c, 5, 81, 0
1, 51360, Note_on_c, 5, 76, 80
1, 51360, Note_on_c, 5, 79, 80
1, 51473, Note_on_c, 5, 76, 0
1, 51473, Note_on_c, 5, 79, 0
1, 51480, Note_on_c, 5, 76, 80
1, 51480, Note_on_c, 5, 81, 80
1, 51659, Note_on_c, 5, 76, 0
1, 51659, Note_on_c, 5, 81, 0
1, 51840, Note_on_c, 5, 72, 80
1, 51840, Note_on_c, 5, 79, 80
1, 52067, Note_on_c, 5, 72, 0
1, 52067, Note_on_c, 5, 79, 0
1, 52080, Note_on_c, 5, 72, 80
1, 52080, Note_on_c, 5, 77, 80
1, 52307, Note_on_c, 5, 72, 0
1, 52307, Note_on_c, 5, 77, 0
1, 52320, Note_on_c, 5, 72, 80
1, 52320, Note_on_c, 5, 76, 80
1, 52433, Note_on_c, 5, 72, 0
1, 52433, Note_on_c, 5, 76, 0
1, 52440, Note_on_c, 5, 72, 80
1, 52440, Note_on_c, 5, 74, 80
1, 52781, Note_on_c, 5, 72, 0
1, 52781, Note_on_c, 5, 74, 0
1, 52800, Note_on_c, 5, 72, 80
1, 52800, Note_on_c, 5, 79, 80
1, 53027, Note_on_c, 5, 72, 0
1, 53027, Note_on_c, 5, 79, 0
1, 53040, Note_on_c, 5, 72, 80
1, 53040, Note_on_c, 5, 77, 80
1, 53267, Note_on_c, 5, 72, 0
1, 53267, Note_on_c, 5, 77, 0
1, 53280, Note_on_c, 5, 72, 80
1, 53280, Note_on_c, 5, 76, 80
1, 53393, Note_on_c, 5, 72, 0
1, 53393, Note_on_c, 5, 76, 0
1, 53400, Note_on_c, 5, 72, 80
1, 53400, Note_on_c, 5, 74, 80
1, 53741, Note_on_c, 5, 72, 0
1, 53741, Note_on_c, 5, 74, 0
1, 54000, Note_on_c, 5, 79, 80
1, 54227, Note_on_c, 5, 79, 0
1, 54240, Note_on_c, 5, 76, 80
1, 54353, Note_on_c, 5, 76, 0
1, 54360, Note_on_c, 5, 72, 80
1, 54587, Note_on_c, 5, 72, 0
1, 54600, Note_on_c, 5, 69, 80
1, 54713, Note_on_c, 5, 69, 0
1, 54720, Note_on_c, 5, 67, 80
1, 54833, Note_on_c, 5, 67, 0
1, 54840, Note_on_c, 5, 67, 80
1, 54953, Note_on_c, 5, 67, 0
1, 54960, Note_on_c, 5, 69, 80
1, 55073, Note_on_c, 5, 69, 0
1, 55080, Note_on_c, 5, 67, 80
1, 55193, Note_on_c, 5, 67, 0
1, 55200, Note_on_c, 5, 72, 80
1, 55427, Note_on_c, 5, 72, 0
1, 55440, Note_on_c, 5, 67, 80
1, 55667, Note_on_c, 5, 67, 0
1, 55680, Note_on_c, 5, 72, 80
1, 56135, Note_on_c, 5, 72, 0
1, 56160, Note_on_c, 5, 74, 80
1, 56615, Note_on_c, 5, 74, 0
1, 56640, Note_on_c, 5, 76, 80
1, 57095, Note_on_c, 5, 76, 0
1, 57120, Note_on_c, 5, 77, 80
1, 57575, Note_on_c, 5, 77, 0
1, 57600, Note_on_c, 5, 71, 80
1, 57600, Note_on_c, 5, 79, 80
1, 58055, Note_on_c, 5, 71, 0
1, 58055, Note_on_c, 5, 79, 0
1, 58080, Note_on_c, 5, 72, 80
1, 58080, Note_on_c, 5, 81, 80
1, 58535, Note_on_c, 5, 72, 0
1, 58535, Note_on_c, 5, 81, 0
1, 58560, Note_on_c, 5, 74, 80
1, 58560, Note_on_c, 5, 83, 80
1, 59015, Note_on_c, 5, 74, 0
1, 59015, Note_on_c, 5, 83, 0
1, 59040, Note_on_c, 5, 76, 80
1, 59040, Note_on_c, 5, 84, 80
1, 59495, Note_on_c, 5, 76, 0
1, 59495, Note_on_c, 5, 84, 0
1, 59520, Note_on_c, 5, 72, 80
1, 59520, Note_on_c, 5, 81, 80
1, 59975, Note_on_c, 5, 72, 0
1, 59975, Note_on_c, 5, 81, 0
1, 61200, Note_on_c, 5, 72, 80
1, 61200, Note_on_c, 5, 81, 80
1, 61427, Note_on_c, 5, 72, 0
1, 61427, Note_on_c, 5, 81, 0
1, 61440, Note_on_c, 5, 72, 80
1, 61440, Note_on_c, 5, 81, 80
1, 61667, Note_on_c, 5, 72, 0
1, 61667, Note_on_c, 5, 81, 0
1, 61680, Note_on_c, 5, 72, 80
1, 61680, Note_on_c, 5, 79, 80
1, 61907, Note_on_c, 5, 72, 0
1, 61907, Note_on_c, 5, 79, 0
1, 61920, Note_on_c, 5, 72, 80
1, 61920, Note_on_c, 5, 79, 80
1, 62147, Note_on_c, 5, 72, 0
1, 62147, Note_on_c, 5, 79, 0
1, 62160, Note_on_c, 5, 72, 80
1, 62160, Note_on_c, 5, 76, 80
1, 62387, Note_on_c, 5, 72, 0
1, 62387, Note_on_c, 5, 76, 0
1, 62400, Note_on_c, 5, 71, 80
1, 62400, Note_on_c, 5, 77, 80
1, 62627, Note_on_c, 5, 71, 0
1, 62627, Note_on_c, 5, 77, 0
1, 62640, Note_on_c, 5, 79, 80
1, 62867, Note_on_c, 5, 79, 0
1, 62880, Note_on_c, 5, 71, 80
1, 62880, Note_on_c, 5, 79, 80
1, 63119, Note_on_c, 5, 71, 0
1, 63119, Note_on_c, 5, 79, 0
1, 65280, Time_signature, 2, 2, 24, 8
1, 66240, Time_signature, 4, 2, 24, 8
1, 66240, Note_on_c, 5, 67, 80
1, 66240, Note_on_c, 5, 72, 80
1, 66467, Note_on_c, 5, 67, 0
1, 66467, Note_on_c, 5, 72, 0
1, 66480, Note_on_c, 5, 64, 80
1, 66480, Note_on_c, 5, 67, 80
1, 66707, Note_on_c, 5, 64, 0
1, 66707, Note_on_c, 5, 67, 0
1, 66720, Note_on_c, 5, 67, 80
1, 66720, Note_on_c, 5, 69, 80
1, 66947, Note_on_c, 5, 67, 0
1, 66947, Note_on_c, 5, 69, 0
1, 66960, Note_on_c, 5, 67, 80
1, 66960, Note_on_c, 5, 72, 80
1, 67187, Note_on_c, 5, 67, 0
1, 67187, Note_on_c, 5, 72, 0
1, 67200, Note_on_c, 5, 60, 80
1, 67427, Note_on_c, 5, 60, 0
1, 67440, Note_on_c, 5, 64, 80
1, 67667, Note_on_c, 5, 64, 0
1, 67680, Note_on_c, 5, 65, 80
1, 67907, Note_on_c, 5, 65, 0
1, 67920, Note_on_c, 5, 67, 80
1, 68147, Note_on_c, 5, 67, 0
1, 68160, Note_on_c, 5, 67, 80
1, 68160, Note_on_c, 5, 71, 80
1, 68387, Note_on_c, 5, 67, 0
1, 68387, Note_on_c, 5, 71, 0
1, 68400, Note_on_c, 5, 62, 80
1, 68400, Note_on_c, 5, 67, 80
1, 68627, Note_on_c, 5, 62, 0
1, 68627, Note_on_c, 5, 67, 0
1, 68640, Note_on_c, 5, 67, 80
1, 68640, Note_on_c, 5, 69, 80
1, 68867, Note_on_c, 5, 67, 0
1, 68867, Note_on_c, 5, 69, 0
1, 68880, Note_on_c, 5, 62, 80
1, 68880, Note_on_c, 5, 67, 80
1, 68880, Note_on_c, 5, 71, 80
1, 69107, Note_on_c, 5, 62, 0
1, 69107, Note_on_c, 5, 67, 0
1, 69107, Note_on_c, 5, 71, 0
1, 69360, Note_on_c, 5, 67, 80
1, 69587, Note_on_c, 5, 67, 0
1, 69600, Note_on_c, 5, 69, 80
1, 69827, Note_on_c, 5, 69, 0
1, 69840, Note_on_c, 5, 69, 80
1, 69840, Note_on_c, 5, 74, 80
1, 70067, Note_on_c, 5, 69, 0
1, 70067, Note_on_c, 5, 74, 0
1, 70320, Note_on_c, 5, 69, 80
1, 70320, Note_on_c, 5, 76, 80
1, 70547, Note_on_c, 5, 69, 0
1, 70547, Note_on_c, 5, 76, 0
1, 71280, Note_on_c, 5, 65, 80
1, 71280, Note_on_c, 5, 69, 80
1, 71280, Note_on_c, 5, 74, 80
1, 71507, Note_on_c, 5, 65, 0
1, 71507, Note_on_c, 5, 69, 0
1, 71507, Note_on_c, 5, 74, 0
1, 71520, Note_on_c, 5, 69, 80
1, 71520, Note_on_c, 5, 76, 80
1, 71747, Note_on_c, 5, 69, 0
1, 71747, Note_on_c, 5, 76, 0
1, 71760, Note_on_c, 5, 69, 80
1, 71760, Note_on_c, 5, 72, 80
1, 71760, Note_on_c, 5, 77, 80
1, 71987, Note_on_c, 5, 69, 0
1, 71987, Note_on_c, 5, 72, 0
1, 71987, Note_on_c, 5, 77, 0
1, 72000, Note_on_c, 5, 69, 80
1, 72000, Note_on_c, 5, 72, 80
1, 72000, Note_on_c, 5, 77, 80
1, 72239, Note_on_c, 5, 69, 0
1, 72239, Note_on_c, 5, 72, 0
1, 72239, Note_on_c, 5, 77, 0
1, 72480, Note_on_c, 5, 65, 80
1, 72480, Note_on_c, 5, 69, 80
1, 72480, Note_on_c, 5, 72, 80
1, 72480, Note_on_c, 5, 76, 80
1, 72719, Note_on_c, 5, 65, 0
1, 72719, Note_on_c, 5, 69, 0
1, 72719, Note_on_c, 5, 72, 0
1, 72719, Note_on_c, 5, 76, 0
1, 72960, Note_on_c, 5, 65, 80
1, 73199, Note_on_c, 5, 65, 0
1, 73440, Note_on_c, 5, 65, 80
1, 73679, Note_on_c, 5, 65, 0
1, 73920, Note_on_c, 5, 67, 80
1, 73920, Note_on_c, 5, 72, 80
1, 74147, Note_on_c, 5, 67, 0
1, 74147, Note_on_c, 5, 72, 0
1, 74160, Note_on_c, 5, 64, 80
1, 74160, Note_on_c, 5, 67, 80
1, 74387, Note_on_c, 5, 64, 0
1, 74387, Note_on_c, 5, 67, 0
1, 74400, Note_on_c, 5, 67, 80
1, 74400, Note_on_c, 5, 69, 80
1, 74627, Note_on_c, 5, 67, 0
1, 74627, Note_on_c, 5, 69, 0
1, 74640, Note_on_c, 5, 67, 80
1, 74640, Note_on_c, 5, 72, 80
1, 74867, Note_on_c, 5, 67, 0
1, 74867, Note_on_c, 5, 72, 0
1, 74880, Note_on_c, 5, 60, 80
1, 75107, Note_on_c, 5, 60, 0
1, 75120, Note_on_c, 5, 64, 80
1, 75347, Note_on_c, 5, 64, 0
1, 75360, Note_on_c, 5, 65, 80
1, 75587, Note_on_c, 5, 65, 0
1, 75600, Note_on_c, 5, 67, 80
1, 75827, Note_on_c, 5, 67, 0
1, 75840, Note_on_c, 5, 67, 80
1, 75840, Note_on_c, 5, 71, 80
1, 76067, Note_on_c, 5, 67, 0
1, 76067, Note_on_c, 5, 71, 0
1, 76080, Note_on_c, 5, 62, 80
1, 76080, Note_on_c, 5, 67, 80
1, 76307, Note_on_c, 5, 62, 0
1, 76307, Note_on_c, 5, 67, 0
1, 76320, Note_on_c, 5, 67, 80
1, 76320, Note_on_c, 5, 69, 80
1, 76547, Note_on_c, 5, 67, 0
1, 76547, Note_on_c, 5, 69, 0
1, 76560, Note_on_c, 5, 62, 80
1, 76560, Note_on_c, 5, 67, 80
1, 76560, Note_on_c, 5, 71, 80
1, 76787, Note_on_c, 5, 62, 0
1, 76787, Note_on_c, 5, 67, 0
1, 76787, Note_on_c, 5, 71, 0
1, 77040, Note_on_c, 5, 67, 80
1, 77267, Note_on_c, 5, 67, 0
1, 77280, Note_on_c, 5, 69, 80
1, 77507, Note_on_c, 5, 69, 0
1, 77520, Note_on_c, 5, 69, 80
1, 77520, Note_on_c, 5, 74, 80
1, 77747, Note_on_c, 5, 69, 0
1, 77747, Note_on_c, 5, 74, 0
1, 78000, Note_on_c, 5, 69, 80
1, 78000, Note_on_c, 5, 76, 80
1, 78227, Note_on_c, 5, 69, 0
1, 78227, Note_on_c, 5, 76, 0
1, 78960, Note_on_c, 5, 65, 80
1, 78960, Note_on_c, 5, 69, 80
1, 78960, Note_on_c, 5, 74, 80
1, 79187, Note_on_c, 5, 65, 0
1, 79187, Note_on_c, 5, 69, 0
1, 79187, Note_on_c, 5, 74, 0
1, 79200, Note_on_c, 5, 69, 80
1, 79200, Note_on_c, 5, 76, 80
1, 79427, Note_on_c, 5, 69, 0
1, 79427, Note_on_c, 5, 76, 0
1, 79440, Note_on_c, 5, 69, 80
1, 79440, Note_on_c, 5, 72, 80
1, 79440, Note_on_c, 5, 77, 80
1, 79667, Note_on_c, 5, 69, 0
1, 79667, Note_on_c, 5, 72, 0
1, 79667, Note_on_c, 5, 77, 0
1, 79680, Note_on_c, 5, 65, 80
1, 79919, Note_on_c, 5, 65, 0
1, 80160, Note_on_c, 5, 65, 80
1, 80160, Note_on_c, 5, 69, 80
1, 80160, Note_on_c, 5, 72, 80
1, 80160, Note_on_c, 5, 76, 80
1, 80387, Note_on_c, 5, 65, 0
1, 80387, Note_on_c, 5, 69, 0
1, 80387, Note_on_c, 5, 72, 0
1, 80387, Note_on_c, 5, 76, 0
1, 80400, Note_on_c, 5, 67, 80
1, 80400, Note_on_c, 5, 71, 80
1, 80400, Note_on_c, 5, 74, 80
1, 80627, Note_on_c, 5, 67, 0
1, 80627, Note_on_c, 5, 71, 0
1, 80627, Note_on_c, 5, 74, 0
1, 81600, Note_on_c, 5, 67, 96
1, 81713, Note_on_c, 5, 67, 0
1, 81720, Note_on_c, 5, 67, 96
1, 81947, Note_on_c, 5, 67, 0
1, 81960, Note_on_c, 5, 67, 96
1, 82073, Note_on_c, 5, 67, 0
1, 82080, Note_on_c, 5, 67, 96
1, 82307, Note_on_c, 5, 67, 0
1, 82320, Note_on_c, 5, 67, 96
1, 82433, Note_on_c, 5, 67, 0
1, 82440, Note_on_c, 5, 67, 96
1, 82553, Note_on_c, 5, 67, 0
1, 82680, Note_on_c, 5, 67, 96
1, 82793, Note_on_c, 5, 67, 0
1, 82800, Note_on_c, 5, 69, 96
1, 82913, Note_on_c, 5, 69, 0
1, 82920, Note_on_c, 5, 67, 96
1, 83033, Note_on_c, 5, 67, 0
1, 83040, Note_on_c, 5, 69, 96
1, 83153, Note_on_c, 5, 69, 0
1, 83160, Note_on_c, 5, 67, 96
1, 83273, Note_on_c, 5, 67, 0
1, 83280, Note_on_c, 5, 64, 96
1, 83507, Note_on_c, 5, 64, 0
1, 83520, Note_on_c, 5, 67, 96
1, 83633, Note_on_c, 5, 67, 0
1, 83640, Note_on_c, 5, 67, 96
1, 83867, Note_on_c, 5, 67, 0
1, 83880, Note_on_c, 5, 67, 96
1, 83993, Note_on_c, 5, 67, 0
1, 84000, Note_on_c, 5, 67, 96
1, 84227, Note_on_c, 5, 67, 0
1, 84240, Note_on_c, 5, 67, 96
1, 84353, Note_on_c, 5, 67, 0
1, 84360, Note_on_c, 5, 67, 96
1, 84473, Note_on_c, 5, 67, 0
1, 84600, Note_on_c, 5, 67, 96
1, 84713, Note_on_c, 5, 67, 0
1, 84720, Note_on_c, 5, 69, 96
1, 84833, Note_on_c, 5, 69, 0
1, 84840, Note_on_c, 5, 67, 96
1, 84953, Note_on_c, 5, 67, 0
1, 84960, Note_on_c, 5, 69, 96
1, 85073, Note_on_c, 5, 69, 0
1, 85080, Note_on_c, 5, 67, 96
1, 85193, Note_on_c, 5, 67, 0
1, 85200, Note_on_c, 5, 64, 96
1, 85427, Note_on_c, 5, 64, 0
1, 85440, Note_on_c, 5, 74, 96
1, 85895, Note_on_c, 5, 74, 0
1, 85920, Note_on_c, 5, 76, 96
1, 86375, Note_on_c, 5, 76, 0
1, 86400, Note_on_c, 5, 74, 96
1, 86627, Note_on_c, 5, 74, 0
1, 86640, Note_on_c, 5, 64, 80
1, 86753, Note_on_c, 5, 64, 0
1, 86760, Note_on_c, 5, 59, 80
1, 86873, Note_on_c, 5, 59, 0
1, 86880, Note_on_c, 5, 62, 80
1, 86993, Note_on_c, 5, 62, 0
1, 87000, Note_on_c, 5, 64, 80
1, 87341, Note_on_c, 5, 64, 0
1, 87360, Note_on_c, 5, 74, 96
1, 87815, Note_on_c, 5, 74, 0
1, 87840, Note_on_c, 5, 76, 96
1, 88295, Note_on_c, 5, 76, 0
1, 88320, Note_on_c, 5, 74, 96
1, 88775, Note_on_c, 5, 74, 0
1, 89280, Note_on_c, 5, 74, 96
1, 89735, Note_on_c, 5, 74, 0
1, 89760, Note_on_c, 5, 76, 96
1, 90215, Note_on_c, 5, 76, 0
1, 90240, Note_on_c, 5, 74, 96
1, 90695, Note_on_c, 5, 74, 0
1, 90960, Note_on_c, 5, 71, 96
1, 91073, Note_on_c, 5, 71, 0
1, 91080, Note_on_c, 5, 72, 96
1, 91193, Note_on_c, 5, 72, 0
1, 91200, Note_on_c, 5, 74, 96
1, 91313, Note_on_c, 5, 74, 0
1, 91320, Note_on_c, 5, 74, 96
1, 91547, Note_on_c, 5, 74, 0
1, 91560, Note_on_c, 5, 74, 96
1, 91901, Note_on_c, 5, 74, 0
1, 91920, Note_on_c, 5, 71, 96
1, 92033, Note_on_c, 5, 71, 0
1, 92040, Note_on_c, 5, 72, 96
1, 92153, Note_on_c, 5, 72, 0
1, 92160, Note_on_c, 5, 74, 96
1, 92273, Note_on_c, 5, 74, 0
1, 92280, Note_on_c, 5, 74, 96
1, 92507, Note_on_c, 5, 74, 0
1, 92520, Note_on_c, 5, 74, 96
1, 92861, Note_on_c, 5, 74, 0
1, 93120, Note_on_c, 5, 74, 96
1, 93575, Note_on_c, 5, 74, 0
1, 93600, Note_on_c, 5, 76, 96
1, 94055, Note_on_c, 5, 76, 0
1, 94080, Note_on_c, 5, 74, 96
1, 94319, Note_on_c, 5, 74, 0
1, 95040, Note_on_c, 5, 74, 96
1, 95495, Note_on_c, 5, 74, 0
1, 95520, Note_on_c, 5, 76, 96
1, 95975, Note_on_c, 5, 76, 0
1, 96000, Note_on_c, 5, 74, 96
1, 96119, Note_on_c, 5, 74, 0
1, 96240, Note_on_c, 5, 64, 96
1, 96467, Note_on_c, 5, 64, 0
1, 96480, Note_on_c, 5, 67, 96
1, 96707, Note_on_c, 5, 67, 0
1, 96720, Note_on_c, 5, 64, 96
1, 96839, Note_on_c, 5, 64, 0
1, 96960, Note_on_c, 5, 74, 96
1, 97415, Note_on_c, 5, 74, 0
1, 97440, Note_on_c, 5, 76, 96
1, 97895, Note_on_c, 5, 76, 0
1, 97920, Note_on_c, 5, 74, 96
1, 98375, Note_on_c, 5, 74, 0
1, 98640, Note_on_c, 5, 71, 96
1, 98753, Note_on_c, 5, 71, 0
1, 98760, Note_on_c, 5, 72, 96
1, 98873, Note_on_c, 5, 72, 0
1, 98880, Note_on_c, 5, 74, 96
1, 98993, Note_on_c, 5, 74, 0
1, 99000, Note_on_c, 5, 74, 96
1, 99227, Note_on_c, 5, 74, 0
1, 99240, Note_on_c, 5, 74, 96
1, 99581, Note_on_c, 5, 74, 0
1, 99600, Note_on_c, 5, 71, 96
1, 99713, Note_on_c, 5, 71, 0
1, 99720, Note_on_c, 5, 72, 96
1, 99833, Note_on_c, 5, 72, 0
1, 99840, Note_on_c, 5, 74, 96
1, 99953, Note_on_c, 5, 74, 0
1, 99960, Note_on_c, 5, 74, 96
1, 100187, Note_on_c, 5, 74, 0
1, 100200, Note_on_c, 5, 74, 96
1, 100541, Note_on_c, 5, 74, 0
1, 100800, Note_on_c, 5, 67, 80
1, 101255, Note_on_c, 5, 67, 0
1, 101280, Note_on_c, 5, 69, 80
1, 101735, Note_on_c, 5, 69, 0
1, 101760, Note_on_c, 5, 71, 80
1, 101987, Note_on_c, 5, 71, 0
1, 102000, Note_on_c, 5, 72, 80
1, 102455, Note_on_c, 5, 72, 0
1, 102480, Note_on_c, 5, 76, 80
1, 102707, Note_on_c, 5, 76, 0
1, 102720, Note_on_c, 5, 74, 80
1, 104087, Note_on_c, 5, 74, 0
1, 104400, Note_on_c, 5, 79, 80
1, 104513, Note_on_c, 5, 79, 0
1, 104520, Note_on_c, 5, 79, 80
1, 104633, Note_on_c, 5, 79, 0
1, 104640, Note_on_c, 5, 79, 80
1, 104753, Note_on_c, 5, 79, 0
1, 104760, Note_on_c, 5, 79, 80
1, 104987, Note_on_c, 5, 79, 0
1, 105000, Note_on_c, 5, 79, 80
1, 105341, Note_on_c, 5, 79, 0
1, 105360, Note_on_c, 5, 76, 80
1, 105587, Note_on_c, 5, 76, 0
1, 105600, Note_on_c, 5, 76, 80
1, 105713, Note_on_c, 5, 76, 0
1, 105720, Note_on_c, 5, 74, 80
1, 105947, Note_on_c, 5, 74, 0
1, 105960, Note_on_c, 5, 74, 80
1, 106073, Note_on_c, 5, 74, 0
1, 106200, Note_on_c, 5, 76, 80
1, 106313, Note_on_c, 5, 76, 0
1, 106320, Note_on_c, 5, 76, 80
1, 106433, Note_on_c, 5, 76, 0
1, 106440, Note_on_c, 5, 76, 80
1, 106553, Note_on_c, 5, 76, 0
1, 106560, Note_on_c, 5, 76, 80
1, 106787, Note_on_c, 5, 76, 0
1, 106800, Note_on_c, 5, 74, 112
1, 107027, Note_on_c, 5, 74, 0
1, 107040, Note_on_c, 5, 74, 80
1, 107267, Note_on_c, 5, 74, 0
1, 107280, Note_on_c, 5, 72, 80
1, 107507, Note_on_c, 5, 72, 0
1, 107520, Note_on_c, 5, 72, 80
1, 107747, Note_on_c, 5, 72, 0
1, 107760, Note_on_c, 5, 74, 80
1, 107987, Note_on_c, 5, 74, 0
1, 108000, Note_on_c, 5, 74, 80
1, 108239, Note_on_c, 5, 74, 0
1, 108480, Note_on_c, 5, 62, 80
1, 108935, Note_on_c, 5, 62, 0
1, 108960, Note_on_c, 5, 69, 80
1, 109415, Note_on_c, 5, 69, 0
1, 109440, Note_on_c, 5, 71, 80
1, 109667, Note_on_c, 5, 71, 0
1, 109680, Note_on_c, 5, 67, 80
1, 110135, Note_on_c, 5, 67, 0
1, 110160, Note_on_c, 5, 64, 80
1, 110387, Note_on_c, 5, 64, 0
1, 110400, Note_on_c, 5, 62, 80
1, 110855, Note_on_c, 5, 62, 0
1, 112320, Note_on_c, 5, 79, 80
1, 112661, Note_on_c, 5, 79, 0
1, 112680, Note_on_c, 5, 76, 80
1, 113021, Note_on_c, 5, 76, 0
1, 113040, Note_on_c, 5, 74, 80
1, 113267, Note_on_c, 5, 74, 0
1, 113280, Note_on_c, 5, 79, 80
1, 113621, Note_on_c, 5, 79, 0
1, 113640, Note_on_c, 5, 76, 80
1, 113981, Note_on_c, 5, 76, 0
1, 114000, Note_on_c, 5, 74, 80
1, 114227, Note_on_c, 5, 74, 0
1, 114480, Note_on_c, 5, 74, 80
1, 114707, Note_on_c, 5, 74, 0
1, 114720, Note_on_c, 5, 71, 80
1, 114833, Note_on_c, 5, 71, 0
1, 114840, Note_on_c, 5, 67, 80
1, 115019, Note_on_c, 5, 67, 0
1, 116160, Note_on_c, 5, 62, 80
1, 116615, Note_on_c, 5, 62, 0
1, 116640, Note_on_c, 5, 74, 80
1, 117323, Note_on_c, 5, 74, 0
1, 117360, Note_on_c, 5, 67, 80
1, 117360, Note_on_c, 5, 76, 80
1, 117587, Note_on_c, 5, 67, 0
1, 117587, Note_on_c, 5, 76, 0
1, 117600, Note_on_c, 5, 74, 80
1, 117713, Note_on_c, 5, 74, 0
1, 117720, Note_on_c, 5, 76, 80
1, 117899, Note_on_c, 5, 76, 0
1, 118080, Note_on_c, 5, 62, 80
1, 118535, Note_on_c, 5, 62, 0
1, 118560, Note_on_c, 5, 74, 80
1, 119243, Note_on_c, 5, 74, 0
1, 119280, Note_on_c, 5, 67, 80
1, 119280, Note_on_c, 5, 76, 80
1, 119507, Note_on_c, 5, 67, 0
1, 119507, Note_on_c, 5, 76, 0
1, 119520, Note_on_c, 5, 74, 80
1, 119633, Note_on_c, 5, 74, 0
1, 119640, Note_on_c, 5, 76, 80
1, 119819, Note_on_c, 5, 76, 0
1, 120000, Note_on_c, 5, 67, 80
1, 120000, Note_on_c, 5, 74, 80
1, 120227, Note_on_c, 5, 67, 0
1, 120227, Note_on_c, 5, 74, 0
1, 120240, Note_on_c, 5, 72, 80
1, 120467, Note_on_c, 5, 72, 0
1, 120480, Note_on_c, 5, 67, 80
1, 120480, Note_on_c, 5, 71, 80
1, 120593, Note_on_c, 5, 67, 0
1, 120593, Note_on_c, 5, 71, 0
1, 120600, Note_on_c, 5, 67, 80
1, 120600, Note_on_c, 5, 69, 80
1, 120941, Note_on_c, 5, 67, 0
1, 120941, Note_on_c, 5, 69, 0
1, 120960, Note_on_c, 5, 67, 80
1, 120960, Note_on_c, 5, 74, 80
1, 121187, Note_on_c, 5, 67, 0
1, 121187, Note_on_c, 5, 74, 0
1, 121200, Note_on_c, 5, 72, 80
1, 121427, Note_on_c, 5, 72, 0
1, 121440, Note_on_c, 5, 67, 80
1, 121440, Note_on_c, 5, 71, 80
1, 121553, Note_on_c, 5, 67, 0
1, 121553, Note_on_c, 5, 71, 0
1, 121560, Note_on_c, 5, 67, 80
1, 121560, Note_on_c, 5, 69, 80
1, 121901, Note_on_c, 5, 67, 0
1, 121901, Note_on_c, 5, 69, 0
1, 122160, Note_on_c, 5, 74, 80
1, 122387, Note_on_c, 5, 74, 0
1, 122400, Note_on_c, 5, 71, 80
1, 122513, Note_on_c, 5, 71, 0
1, 122520, Note_on_c, 5, 67, 80
1, 122747, Note_on_c, 5, 67, 0
1, 122760, Note_on_c, 5, 64, 80
1, 122873, Note_on_c, 5, 64, 0
1, 122880, Note_on_c, 5, 62, 80
1, 122993, Note_on_c, 5, 62, 0
1, 123000, Note_on_c, 5, 62, 80
1, 123113, Note_on_c, 5, 62, 0
1, 123120, Note_on_c, 5, 64, 80
1, 123233, Note_on_c, 5, 64, 0
1, 123240, Note_on_c, 5, 62, 80
1, 123353, Note_on_c, 5, 62, 0
1, 123360, Note_on_c, 5, 67, 80
1, 123587, Note_on_c, 5, 67, 0
1, 123600, Note_on_c, 5, 62, 80
1, 123827, Note_on_c, 5, 62, 0
1, 123840, Note_on_c, 5, 67, 80
1, 124295, Note_on_c, 5, 67, 0
1, 124320, Note_on_c, 5, 69, 80
1, 124775, Note_on_c, 5, 69, 0
1, 124800, Note_on_c, 5, 71, 80
1, 125255, Note_on_c, 5, 71, 0
1, 125280, Note_on_c, 5, 72, 80
1, 125735, Note_on_c, 5, 72, 0
1, 125760, Note_on_c, 5, 74, 80
1, 126215, Note_on_c, 5, 74, 0
1, 126240, Note_on_c, 5, 67, 80
1, 126240, Note_on_c, 5, 72, 80
1, 126695, Note_on_c, 5, 67, 0
1, 126695, Note_on_c, 5, 72, 0
1, 126720, Note_on_c, 5, 74, 80
1, 127175, Note_on_c, 5, 74, 0
1, 127200, Note_on_c, 5, 71, 80
1, 127200, Note_on_c, 5, 79, 80
1, 127655, Note_on_c, 5, 71, 0
1, 127655, Note_on_c, 5, 79, 0
1, 127680, Note_on_c, 5, 67, 80
1, 127680, Note_on_c, 5, 76, 80
1, 128135, Note_on_c, 5, 67, 0
1, 128135, Note_on_c, 5, 76, 0
1, 129360, Note_on_c, 5, 67, 80
1, 129360, Note_on_c, 5, 76, 80
1, 129587, Note_on_c, 5, 67, 0
1, 129587, Note_on_c, 5, 76, 0
1, 129600, Note_on_c, 5, 76, 80
1, 129827, Note_on_c, 5, 76, 0
1, 129840, Note_on_c, 5, 74, 80
1, 130067, Note_on_c, 5, 74, 0
1, 130080, Note_on_c, 5, 74, 80
1, 130307, Note_on_c, 5, 74, 0
1, 130320, Note_on_c, 5, 71, 80
1, 130547, Note_on_c, 5, 71, 0
1, 130560, Note_on_c, 5, 72, 80
1, 130787, Note_on_c, 5, 72, 0
1, 130800, Note_on_c, 5, 74, 80
1, 131027, Note_on_c, 5, 74, 0
1, 131040, Note_on_c, 5, 74, 80
1, 131279, Note_on_c, 5, 74, 0
1, 131520, Note_on_c, 5, 62, 80
1, 131747, Note_on_c, 5, 62, 0
1, 131760, Note_on_c, 5, 64, 80
1, 131987, Note_on_c, 5, 64, 0
1, 132000, Note_on_c, 5, 62, 80
1, 132227, Note_on_c, 5, 62, 0
1, 132240, Note_on_c, 5, 64, 80
1, 132353, Note_on_c, 5, 64, 0
1, 132360, Note_on_c, 5, 62, 80
1, 132587, Note_on_c, 5, 62, 0
1, 132600, Note_on_c, 5, 62, 80
1, 132713, Note_on_c, 5, 62, 0
1, 132720, Note_on_c, 5, 64, 80
1, 132947, Note_on_c, 5, 64, 0
1, 132960, Note_on_c, 5, 62, 80
1, 133187, Note_on_c, 5, 62, 0
1, 133200, Note_on_c, 5, 64, 80
1, 133427, Note_on_c, 5, 64, 0
1, 133440, Time_signature, 2, 2, 24, 8
1, 133440, Note_on_c, 5, 55, 96
1, 133440, Note_on_c, 5, 59, 96
1, 133440, Note_on_c, 5, 62, 96
1, 133667, Note_on_c, 5, 55, 0
1, 133667, Note_on_c, 5, 59, 0
1, 133667, Note_on_c, 5, 62, 0
1, 133680, Note_on_c, 5, 55, 96
1, 133680, Note_on_c, 5, 59, 96
1, 133680, Note_on_c, 5, 64, 96
1, 133907, Note_on_c, 5, 55, 0
1, 133907, Note_on_c, 5, 59, 0
1, 133907, Note_on_c, 5, 64, 0
1, 133920, Note_on_c, 5, 55, 96
1, 133920, Note_on_c, 5, 59, 96
1, 133920, Note_on_c, 5, 62, 96
1, 134147, Note_on_c, 5, 55, 0
1, 134147, Note_on_c, 5, 59, 0
1, 134147, Note_on_c, 5, 62, 0
1, 134160, Note_on_c, 5, 55, 96
1, 134160, Note_on_c, 5, 59, 96
1, 134160, Note_on_c, 5, 64, 96
1, 134387, Note_on_c, 5, 55, 0
1, 134387, Note_on_c, 5, 59, 0
1, 134387, Note_on_c, 5, 64, 0
1, 134400, Time_signature, 4, 2, 24, 8
1, 134640, Note_on_c, 5, 67, 96
1, 134867, Note_on_c, 5, 67, 0
1, 134880, Note_on_c, 5, 69, 96
1, 135107, Note_on_c, 5, 69, 0
1, 135120, Note_on_c, 5, 72, 96
1, 135347, Note_on_c, 5, 72, 0
1, 136560, Note_on_c, 5, 67, 96
1, 136787, Note_on_c, 5, 67, 0
1, 136800, Note_on_c, 5, 69, 96
1, 137027, Note_on_c, 5, 69, 0
1, 137040, Note_on_c, 5, 71, 96
1, 137267, Note_on_c, 5, 71, 0
1, 138480, Note_on_c, 5, 67, 96
1, 138707, Note_on_c, 5, 67, 0
1, 138720, Note_on_c, 5, 69, 96
1, 138947, Note_on_c, 5, 69, 0
1, 138960, Note_on_c, 5, 74, 96
1, 139187, Note_on_c, 5, 74, 0
1, 140160, Note_on_c, 5, 65, 80
1, 140843, Note_on_c, 5, 65, 0
1, 140880, Note_on_c, 5, 67, 80
1, 141107, Note_on_c, 5, 67, 0
1, 142320, Note_on_c, 5, 67, 96
1, 142547, Note_on_c, 5, 67, 0
1, 142560, Note_on_c, 5, 69, 96
1, 142787, Note_on_c, 5, 69, 0
1, 142800, Note_on_c, 5, 72, 96
1, 143027, Note_on_c, 5, 72, 0
1, 144240, Note_on_c, 5, 67, 96
1, 144467, Note_on_c, 5, 67, 0
1, 144480, Note_on_c, 5, 69, 96
1, 144707, Note_on_c, 5, 69, 0
1, 144720, Note_on_c, 5, 71, 96
1, 144947, Note_on_c, 5, 71, 0
1, 146160, Note_on_c, 5, 67, 96
1, 146387, Note_on_c, 5, 67, 0
1, 146400, Note_on_c, 5, 69, 96
1, 146627, Note_on_c, 5, 69, 0
1, 146640, Note_on_c, 5, 74, 96
1, 146867, Note_on_c, 5, 74, 0
1, 147840, Note_on_c, 5, 65, 96
1, 148523, Note_on_c, 5, 65, 0
1, 148560, Note_on_c, 5, 67, 96
1, 149243, Note_on_c, 5, 67, 0
1, 149760, Note_on_c, 5, 69, 80
1, 149987, Note_on_c, 5, 69, 0
1, 150000, Note_on_c, 5, 67, 96
1, 150227, Note_on_c, 5, 67, 0
1, 150240, Note_on_c, 5, 69, 96
1, 150467, Note_on_c, 5, 69, 0
1, 150480, Note_on_c, 5, 72, 96
1, 150707, Note_on_c, 5, 72, 0
1, 151680, Note_on_c, 5, 71, 80
1, 151907, Note_on_c, 5, 71, 0
1, 151920, Note_on_c, 5, 67, 96
1, 152147, Note_on_c, 5, 67, 0
1, 152160, Note_on_c, 5, 69, 96
1, 152387, Note_on_c, 5, 69, 0
1, 152400, Note_on_c, 5, 71, 96
1, 152627, Note_on_c, 5, 71, 0
1, 153600, Note_on_c, 5, 69, 80
1, 153827, Note_on_c, 5, 69, 0
1, 153840, Note_on_c, 5, 67, 96
1, 154067, Note_on_c, 5, 67, 0
1, 154080, Note_on_c, 5, 69, 96
1, 154307, Note_on_c, 5, 69, 0
1, 154320, Note_on_c, 5, 74, 96
1, 154547, Note_on_c, 5, 74, 0
1, 155520, Note_on_c, 5, 65, 96
1, 156203, Note_on_c, 5, 65, 0
1, 156240, Note_on_c, 5, 67, 96
1, 156923, Note_on_c, 5, 67, 0
1, 157440, Time_signature, 2, 2, 24, 8
1, 157440, Tempo, 1090909
1, 157440, Note_on_c, 5, 67, 96
1, 157440, Note_on_c, 5, 72, 96
1, 157440, Note_on_c, 5, 76, 96
1, 157895, Note_on_c, 5, 67, 0
1, 157895, Note_on_c, 5, 72, 0
1, 157895, Note_on_c, 5, 76, 0
1, 158400, Time_signature, 4, 2, 24, 8
1, 160320, Tempo, 923077
1, 162240, Tempo, 857143
1, 164160, Tempo, 800000
1, 166080, Tempo, 750000
1, 168000, Tempo, 705882
1, 169920, Tempo, 666667
1, 171840, Tempo, 631579
1, 173760, Tempo, 600000
1, 173760, Note_on_c, 5, 64, 80
1, 174215, Note_on_c, 5, 64, 0
1, 174240, Note_on_c, 5, 65, 82
1, 174695, Note_on_c, 5, 65, 0
1, 174720, Note_on_c, 5, 67, 84
1, 175175, Note_on_c, 5, 67, 0
1, 175200, Note_on_c, 5, 69, 86
1, 175655, Note_on_c, 5, 69, 0
1, 175680, Tempo, 571429
1, 175680, Note_on_c, 5, 71, 88
1, 176135, Note_on_c, 5, 71, 0
1, 176160, Note_on_c, 5, 72, 90
1, 176615, Note_on_c, 5, 72, 0
1, 176640, Note_on_c, 5, 74, 92
1, 177095, Note_on_c, 5, 74, 0
1, 177120, Note_on_c, 5, 76, 94
1, 177575, Note_on_c, 5, 76, 0
1, 177600, Tempo, 545455
1, 177600, Note_on_c, 5, 77, 96
1, 178967, Note_on_c, 5, 77, 0
1, 179520, Tempo, 521739
1, 179520, Note_on_c, 5, 76, 96
1, 179633, Note_on_c, 5, 76, 0
1, 179640, Note_on_c, 5, 76, 96
1, 179753, Note_on_c, 5, 76, 0
1, 179760, Note_on_c, 5, 76, 96
1, 179873, Note_on_c, 5, 76, 0
1, 179880, Note_on_c, 5, 76, 96
1, 179993, Note_on_c, 5, 76, 0
1, 180000, Note_on_c, 5, 76, 96
1, 180113, Note_on_c, 5, 76, 0
1, 180120, Note_on_c, 5, 76, 96
1, 180233, Note_on_c, 5, 76, 0
1, 180240, Note_on_c, 5, 76, 96
1, 180353, Note_on_c, 5, 76, 0
1, 180360, Note_on_c, 5, 76, 96
1, 180473, Note_on_c, 5, 76, 0
1, 180480, Note_on_c, 5, 79, 96
1, 180593, Note_on_c, 5, 79, 0
1, 180600, Note_on_c, 5, 79, 96
1, 180713, Note_on_c, 5, 79, 0
1, 180720, Note_on_c, 5, 79, 96
1, 180833, Note_on_c, 5, 79, 0
1, 180840, Note_on_c, 5, 79, 96
1, 180953, Note_on_c, 5, 79, 0
1, 180960, Note_on_c, 5, 79, 96
1, 181073, Note_on_c, 5, 79, 0
1, 181080, Note_on_c, 5, 79, 96
1, 181193, Note_on_c, 5, 79, 0
1, 181200, Note_on_c, 5, 79, 96
1, 181313, Note_on_c, 5, 79, 0
1, 181320, Note_on_c, 5, 79, 96
1, 181433, Note_on_c, 5, 79, 0
1, 181440, Tempo, 500000
1, 181440, Note_on_c, 5, 72, 80
1, 181743, Note_on_c, 5, 72, 0
1, 181760, Note_on_c, 5, 67, 80
1, 181911, Note_on_c, 5, 67, 0
1, 181920, Note_on_c, 5, 69, 80
1, 182223, Note_on_c, 5, 69, 0
1, 182240, Note_on_c, 5, 72, 80
1, 182619, Note_on_c, 5, 72, 0
1, 182640, Note_on_c, 5, 72, 80
1, 183171, Note_on_c, 5, 72, 0
1, 183200, Note_on_c, 5, 72, 80
1, 183351, Note_on_c, 5, 72, 0
1, 183360, Note_on_c, 5, 71, 80
1, 183663, Note_on_c, 5, 71, 0
1, 183680, Note_on_c, 5, 67, 80
1, 183831, Note_on_c, 5, 67, 0
1, 183840, Note_on_c, 5, 69, 80
1, 184143, Note_on_c, 5, 69, 0
1, 184160, Note_on_c, 5, 71, 80
1, 184539, Note_on_c, 5, 71, 0
1, 184560, Note_on_c, 5, 67, 80
1, 184787, Note_on_c, 5, 67, 0
1, 184800, Note_on_c, 5, 69, 80
1, 185103, Note_on_c, 5, 69, 0
1, 185120, Note_on_c, 5, 74, 80
1, 185271, Note_on_c, 5, 74, 0
1, 185600, Note_on_c, 5, 76, 80
1, 185751, Note_on_c, 5, 76, 0
1, 186560, Note_on_c, 5, 67, 80
1, 186711, Note_on_c, 5, 67, 0
1, 186720, Note_on_c, 5, 67, 80
1, 187023, Note_on_c, 5, 67, 0
1, 187040, Note_on_c, 5, 77, 80
1, 187647, Note_on_c, 5, 77, 0
1, 187680, Note_on_c, 5, 76, 80
1, 187983, Note_on_c, 5, 76, 0
1, 188000, Note_on_c, 5, 74, 80
1, 188151, Note_on_c, 5, 74, 0
1, 188960, Note_on_c, 5, 72, 80
1, 189111, Note_on_c, 5, 72, 0
1, 189120, Note_on_c, 5, 72, 80
1, 189423, Note_on_c, 5, 72, 0
1, 189440, Note_on_c, 5, 67, 80
1, 189591, Note_on_c, 5, 67, 0
1, 189600, Note_on_c, 5, 69, 80
1, 189903, Note_on_c, 5, 69, 0
1, 189920, Note_on_c, 5, 72, 80
1, 190299, Note_on_c, 5, 72, 0
1, 190320, Note_on_c, 5, 72, 80
1, 190851, Note_on_c, 5, 72, 0
1, 190880, Note_on_c, 5, 72, 80
1, 191031, Note_on_c, 5, 72, 0
1, 191040, Note_on_c, 5, 71, 80
1, 191343, Note_on_c, 5, 71, 0
1, 191360, Note_on_c, 5, 67, 80
1, 191511, Note_on_c, 5, 67, 0
1, 191520, Note_on_c, 5, 69, 80
1, 191823, Note_on_c, 5, 69, 0
1, 191840, Note_on_c, 5, 71, 80
1, 192219, Note_on_c, 5, 71, 0
1, 192240, Note_on_c, 5, 67, 80
1, 192467, Note_on_c, 5, 67, 0
1, 192480, Note_on_c, 5, 69, 80
1, 192783, Note_on_c, 5, 69, 0
1, 192800, Note_on_c, 5, 74, 80
1, 192951, Note_on_c, 5, 74, 0
1, 193280, Note_on_c, 5, 76, 80
1, 193431, Note_on_c, 5, 76, 0
1, 194240, Note_on_c, 5, 67, 80
1, 194391, Note_on_c, 5, 67, 0
1, 194400, Note_on_c, 5, 67, 80
1, 194703, Note_on_c, 5, 67, 0
1, 194720, Note_on_c, 5, 77, 80
1, 195327, Note_on_c, 5, 77, 0
1, 195360, Note_on_c, 5, 76, 80
1, 195663, Note_on_c, 5, 76, 0
1, 195680, Note_on_c, 5, 74, 80
1, 195831, Note_on_c, 5, 74, 0
1, 196640, Note_on_c, 5, 72, 80
1, 196791, Note_on_c, 5, 72, 0
1, 196800, Note_on_c, 5, 72, 80
1, 197103, Note_on_c, 5, 72, 0
1, 197120, Note_on_c, 5, 67, 80
1, 197271, Note_on_c, 5, 67, 0
1, 197280, Note_on_c, 5, 69, 80
1, 197583, Note_on_c, 5, 69, 0
1, 197600, Note_on_c, 5, 72, 80
1, 197979, Note_on_c, 5, 72, 0
1, 198000, Note_on_c, 5, 72, 80
1, 198531, Note_on_c, 5, 72, 0
1, 198560, Note_on_c, 5, 72, 80
1, 198711, Note_on_c, 5, 72, 0
1, 198720, Note_on_c, 5, 71, 80
1, 199023, Note_on_c, 5, 71, 0
1, 199040, Note_on_c, 5, 67, 80
1, 199191, Note_on_c, 5, 67, 0
1, 199200, Note_on_c, 5, 69, 80
1, 199503, Note_on_c, 5, 69, 0
1, 199520, Note_on_c, 5, 71, 80
1, 199899, Note_on_c, 5, 71, 0
1, 199920, Note_on_c, 5, 67, 80
1, 200147, Note_on_c, 5, 67, 0
1, 200160, Note_on_c, 5, 69, 80
1, 200463, Note_on_c, 5, 69, 0
1, 200480, Note_on_c, 5, 74, 80
1, 200631, Note_on_c, 5, 74, 0
1, 200960, Note_on_c, 5, 76, 80
1, 201111, Note_on_c, 5, 76, 0
1, 201920, Note_on_c, 5, 67, 80
1, 202071, Note_on_c, 5, 67, 0
1, 202080, Note_on_c, 5, 67, 80
1, 202383, Note_on_c, 5, 67, 0
1, 202400, Note_on_c, 5, 77, 80
1, 203007, Note_on_c, 5, 77, 0
1, 203040, Note_on_c, 5, 76, 80
1, 203343, Note_on_c, 5, 76, 0
1, 203360, Note_on_c, 5, 74, 80
1, 203511, Note_on_c, 5, 74, 0
1, 204480, Note_on_c, 5, 64, 80
1, 204480, Note_on_c, 5, 72, 80
1, 204935, Note_on_c, 5, 64, 0
1, 204935, Note_on_c, 5, 72, 0
1, 204936, End_track
2, 0, Start_track
2, 0, Title_t, "Piano, Minstrel\000"
2, 0, Key_signature, 0, "major"
2, 0, Control_c, 1, 121, 0
2, 0, Program_c, 1, 0
2, 0, Control_c, 1, 7, 100
2, 0, Control_c, 1, 10, 64
2, 0, Control_c, 1, 91, 0
2, 0, Control_c, 1, 93, 0
2, 0, MIDI_port, 0
2, 1920, Note_on_c, 1, 60, 80
2, 1920, Note_on_c, 1, 64, 80
2, 2261, Note_on_c, 1, 60, 0
2, 2261, Note_on_c, 1, 64, 0
2, 2280, Note_on_c, 1, 60, 80
2, 2280, Note_on_c, 1, 64, 80
2, 2393, Note_on_c, 1, 60, 0
2, 2393, Note_on_c, 1, 64, 0
2, 2400, Note_on_c, 1, 60, 80
2, 2400, Note_on_c, 1, 64, 80
2, 2855, Note_on_c, 1, 60, 0
2, 2855, Note_on_c, 1, 64, 0
2, 2880, Note_on_c, 1, 55, 80
2, 2880, Note_on_c, 1, 59, 80
2, 3221, Note_on_c, 1, 55, 0
2, 3221, Note_on_c, 1, 59, 0
2, 3240, Note_on_c, 1, 55, 80
2, 3240, Note_on_c, 1, 59, 80
2, 3353, Note_on_c, 1, 55, 0
2, 3353, Note_on_c, 1, 59, 0
2, 3360, Note_on_c, 1, 55, 80
2, 3360, Note_on_c, 1, 59, 80
2, 3815, Note_on_c, 1, 55, 0
2, 3815, Note_on_c, 1, 59, 0
2, 3840, Note_on_c, 1, 60, 80
2, 3840, Note_on_c, 1, 64, 80
2, 4181, Note_on_c, 1, 60, 0
2, 4181, Note_on_c, 1, 64, 0
2, 4200, Note_on_c, 1, 60, 80
2, 4200, Note_on_c, 1, 64, 80
2, 4313, Note_on_c, 1, 60, 0
2, 4313, Note_on_c, 1, 64, 0
2, 4320, Note_on_c, 1, 60, 80
2, 4320, Note_on_c, 1, 64, 80
2, 4775, Note_on_c, 1, 60, 0
2, 4775, Note_on_c, 1, 64, 0
2, 4800, Note_on_c, 1, 57, 80
2, 4800, Note_on_c, 1, 60, 80
2, 5141, Note_on_c, 1, 57, 0
2, 5141, Note_on_c, 1, 60, 0
2, 5160, Note_on_c, 1, 57, 80
2, 5160, Note_on_c, 1, 60, 80
2, 5273, Note_on_c, 1, 57, 0
2, 5273, Note_on_c, 1, 60, 0
2, 5280, Note_on_c, 1, 57, 80
2, 5735, Note_on_c, 1, 57, 0
2, 5760, Note_on_c, 1, 60, 80
2, 6101, Note_on_c, 1, 60, 0
2, 6120, Note_on_c, 1, 60, 80
2, 6120, Note_on_c, 1, 65, 80
2, 6233, Note_on_c, 1, 60, 0
2, 6233, Note_on_c, 1, 65, 0
2, 6240, Note_on_c, 1, 60, 80
2, 6695, Note_on_c, 1, 60, 0
2, 6720, Note_on_c, 1, 55, 80
2, 6720, Note_on_c, 1, 60, 80
2, 7175, Note_on_c, 1, 55, 0
2, 7175, Note_on_c, 1, 60, 0
2, 7200, Note_on_c, 1, 52, 80
2, 7200, Note_on_c, 1, 55, 80
2, 7655, Note_on_c, 1, 52, 0
2, 7655, Note_on_c, 1, 55, 0
2, 7680, Note_on_c, 1, 65, 80
2, 7680, Note_on_c, 1, 67, 80
2, 8135, Note_on_c, 1, 65, 0
2, 8135, Note_on_c, 1, 67, 0
2, 8160, Note_on_c, 1, 65, 80
2, 8160, Note_on_c, 1, 67, 80
2, 8615, Note_on_c, 1, 65, 0
2, 8615, Note_on_c, 1, 67, 0
2, 8640, Note_on_c, 1, 65, 80
2, 8640, Note_on_c, 1, 67, 80
2, 9095, Note_on_c, 1, 65, 0
2, 9095, Note_on_c, 1, 67, 0
2, 9120, Note_on_c, 1, 65, 80
2, 9120, Note_on_c, 1, 67, 80
2, 9575, Note_on_c, 1, 65, 0
2, 9575, Note_on_c, 1, 67, 0
2, 9600, Note_on_c, 1, 60, 80
2, 9600, Note_on_c, 1, 64, 80
2, 9941, Note_on_c, 1, 60, 0
2, 9941, Note_on_c, 1, 64, 0
2, 9960, Note_on_c, 1, 60, 80
2, 9960, Note_on_c, 1, 64, 80
2, 10073, Note_on_c, 1, 60, 0
2, 10073, Note_on_c, 1, 64, 0
2, 10080, Note_on_c, 1, 60, 80
2, 10080, Note_on_c, 1, 64, 80
2, 10535, Note_on_c, 1, 60, 0
2, 10535, Note_on_c, 1, 64, 0
2, 10560, Note_on_c, 1, 55, 80
2, 10560, Note_on_c, 1, 59, 80
2, 10901, Note_on_c, 1, 55, 0
2, 10901, Note_on_c, 1, 59, 0
2, 10920, Note_on_c, 1, 55, 80
2, 10920, Note_on_c, 1, 59, 80
2, 11033, Note_on_c, 1, 55, 0
2, 11033, Note_on_c, 1, 59, 0
2, 11040, Note_on_c, 1, 55, 80
2, 11040, Note_on_c, 1, 59, 80
2, 11495, Note_on_c, 1, 55, 0
2, 11495, Note_on_c, 1, 59, 0
2, 11520, Note_on_c, 1, 60, 80
2, 11520, Note_on_c, 1, 64, 80
2, 11861, Note_on_c, 1, 60, 0
2, 11861, Note_on_c, 1, 64, 0
2, 11880, Note_on_c, 1, 60, 80
2, 11880, Note_on_c, 1, 64, 80
2, 11993, Note_on_c, 1, 60, 0
2, 11993, Note_on_c, 1, 64, 0
2, 12000, Note_on_c, 1, 60, 80
2, 12000, Note_on_c, 1, 64, 80
2, 12455, Note_on_c, 1, 60, 0
2, 12455, Note_on_c, 1, 64, 0
2, 12480, Note_on_c, 1, 57, 80
2, 12480, Note_on_c, 1, 60, 80
2, 12821, Note_on_c, 1, 57, 0
2, 12821, Note_on_c, 1, 60, 0
2, 12840, Note_on_c, 1, 57, 80
2, 12840, Note_on_c, 1, 60, 80
2, 12953, Note_on_c, 1, 57, 0
2, 12953, Note_on_c, 1, 60, 0
2, 12960, Note_on_c, 1, 57, 80
2, 13415, Note_on_c, 1, 57, 0
2, 13440, Note_on_c, 1, 60, 80
2, 13781, Note_on_c, 1, 60, 0
2, 13800, Note_on_c, 1, 60, 80
2, 13800, Note_on_c, 1, 65, 80
2, 13913, Note_on_c, 1, 60, 0
2, 13913, Note_on_c, 1, 65, 0
2, 13920, Note_on_c, 1, 60, 80
2, 14375, Note_on_c, 1, 60, 0
2, 14400, Note_on_c, 1, 55, 80
2, 14400, Note_on_c, 1, 60, 80
2, 14855, Note_on_c, 1, 55, 0
2, 14855, Note_on_c, 1, 60, 0
2, 14880, Note_on_c, 1, 52, 80
2, 14880, Note_on_c, 1, 55, 80
2, 15335, Note_on_c, 1, 52, 0
2, 15335, Note_on_c, 1, 55, 0
2, 15360, Note_on_c, 1, 53, 80
2, 15360, Note_on_c, 1, 55, 80
2, 15815, Note_on_c, 1, 53, 0
2, 15815, Note_on_c, 1, 55, 0
2, 15840, Note_on_c, 1, 53, 80
2, 15840, Note_on_c, 1, 55, 80
2, 16295, Note_on_c, 1, 53, 0
2, 16295, Note_on_c, 1, 55, 0
2, 16320, Note_on_c, 1, 53, 80
2, 16320, Note_on_c, 1, 55, 80
2, 16775, Note_on_c, 1, 53, 0
2, 16775, Note_on_c, 1, 55, 0
2, 16800, Note_on_c, 1, 53, 80
2, 16800, Note_on_c, 1, 55, 80
2, 17255, Note_on_c, 1, 53, 0
2, 17255, Note_on_c, 1, 55, 0
2, 17280, Note_on_c, 1, 60, 80
2, 17280, Note_on_c, 1, 64, 80
2, 17280, Note_on_c, 1, 67, 80
2, 17507, Note_on_c, 1, 60, 0
2, 17507, Note_on_c, 1, 64, 0
2, 17507, Note_on_c, 1, 67, 0
2, 17520, Note_on_c, 1, 64, 80
2, 17520, Note_on_c, 1, 69, 80
2, 17747, Note_on_c, 1, 64, 0
2, 17747, Note_on_c, 1, 69, 0
2, 17760, Note_on_c, 1, 60, 80
2, 17760, Note_on_c, 1, 64, 80
2, 17760, Note_on_c, 1, 67, 80
2, 17987, Note_on_c, 1, 60, 0
2, 17987, Note_on_c, 1, 64, 0
2, 17987, Note_on_c, 1, 67, 0
2, 18000, Note_on_c, 1, 64, 80
2, 18000, Note_on_c, 1, 69, 80
2, 18113, Note_on_c, 1, 64, 0
2, 18113, Note_on_c, 1, 69, 0
2, 18120, Note_on_c, 1, 64, 80
2, 18120, Note_on_c, 1, 67, 80
2, 18347, Note_on_c, 1, 64, 0
2, 18347, Note_on_c, 1, 67, 0
2, 18360, Note_on_c, 1, 64, 80
2, 18360, Note_on_c, 1, 67, 80
2, 18473, Note_on_c, 1, 64, 0
2, 18473, Note_on_c, 1, 67, 0
2, 18480, Note_on_c, 1, 64, 80
2, 18707, Note_on_c, 1, 64, 0
2, 18720, Note_on_c, 1, 60, 80
2, 18720, Note_on_c, 1, 64, 80
2, 18947, Note_on_c, 1, 60, 0
2, 18947, Note_on_c, 1, 64, 0
2, 18960, Note_on_c, 1, 60, 80
2, 18960, Note_on_c, 1, 64, 80
2, 19187, Note_on_c, 1, 60, 0
2, 19187, Note_on_c, 1, 64, 0
2, 19200, Note_on_c, 1, 59, 80
2, 19200, Note_on_c, 1, 64, 80
2, 19200, Note_on_c, 1, 67, 80
2, 19427, Note_on_c, 1, 59, 0
2, 19427, Note_on_c, 1, 64, 0
2, 19427, Note_on_c, 1, 67, 0
2, 19440, Note_on_c, 1, 64, 80
2, 19440, Note_on_c, 1, 69, 80
2, 19667, Note_on_c, 1, 64, 0
2, 19667, Note_on_c, 1, 69, 0
2, 19680, Note_on_c, 1, 59, 80
2, 19680, Note_on_c, 1, 64, 80
2, 19680, Note_on_c, 1, 67, 80
2, 19907, Note_on_c, 1, 59, 0
2, 19907, Note_on_c, 1, 64, 0
2, 19907, Note_on_c, 1, 67, 0
2, 19920, Note_on_c, 1, 64, 80
2, 19920, Note_on_c, 1, 69, 80
2, 20033, Note_on_c, 1, 64, 0
2, 20033, Note_on_c, 1, 69, 0
2, 20040, Note_on_c, 1, 64, 80
2, 20040, Note_on_c, 1, 67, 80
2, 20267, Note_on_c, 1, 64, 0
2, 20267, Note_on_c, 1, 67, 0
2, 20280, Note_on_c, 1, 64, 80
2, 20280, Note_on_c, 1, 67, 80
2, 20393, Note_on_c, 1, 64, 0
2, 20393, Note_on_c, 1, 67, 0
2, 20400, Note_on_c, 1, 64, 80
2, 20400, Note_on_c, 1, 69, 80
2, 20627, Note_on_c, 1, 64, 0
2, 20627, Note_on_c, 1, 69, 0
2, 20640, Note_on_c, 1, 59, 80
2, 20640, Note_on_c, 1, 64, 80
2, 20640, Note_on_c, 1, 67, 80
2, 20867, Note_on_c, 1, 59, 0
2, 20867, Note_on_c, 1, 64, 0
2, 20867, Note_on_c, 1, 67, 0
2, 20880, Note_on_c, 1, 64, 80
2, 20880, Note_on_c, 1, 69, 80
2, 21107, Note_on_c, 1, 64, 0
2, 21107, Note_on_c, 1, 69, 0
2, 21120, Note_on_c, 1, 60, 80
2, 21120, Note_on_c, 1, 65, 80
2, 21120, Note_on_c, 1, 67, 80
2, 21347, Note_on_c, 1, 60, 0
2, 21347, Note_on_c, 1, 65, 0
2, 21347, Note_on_c, 1, 67, 0
2, 21360, Note_on_c, 1, 65, 80
2, 21360, Note_on_c, 1, 69, 80
2, 21587, Note_on_c, 1, 65, 0
2, 21587, Note_on_c, 1, 69, 0
2, 21600, Note_on_c, 1, 60, 80
2, 21600, Note_on_c, 1, 65, 80
2, 21600, Note_on_c, 1, 67, 80
2, 21827, Note_on_c, 1, 60, 0
2, 21827, Note_on_c, 1, 65, 0
2, 21827, Note_on_c, 1, 67, 0
2, 21840, Note_on_c, 1, 65, 80
2, 21840, Note_on_c, 1, 69, 80
2, 21953, Note_on_c, 1, 65, 0
2, 21953, Note_on_c, 1, 69, 0
2, 21960, Note_on_c, 1, 65, 80
2, 21960, Note_on_c, 1, 67, 80
2, 22187, Note_on_c, 1, 65, 0
2, 22187, Note_on_c, 1, 67, 0
2, 22200, Note_on_c, 1, 65, 80
2, 22200, Note_on_c, 1, 67, 80
2, 22313, Note_on_c, 1, 65, 0
2, 22313, Note_on_c, 1, 67, 0
2, 22320, Note_on_c, 1, 65, 80
2, 22320, Note_on_c, 1, 69, 80
2, 22547, Note_on_c, 1, 65, 0
2, 22547, Note_on_c, 1, 69, 0
2, 22560, Note_on_c, 1, 60, 80
2, 22560, Note_on_c, 1, 65, 80
2, 22560, Note_on_c, 1, 67, 80
2, 22787, Note_on_c, 1, 60, 0
2, 22787, Note_on_c, 1, 65, 0
2, 22787, Note_on_c, 1, 67, 0
2, 22800, Note_on_c, 1, 65, 80
2, 22800, Note_on_c, 1, 69, 80
2, 23027, Note_on_c, 1, 65, 0
2, 23027, Note_on_c, 1, 69, 0
2, 23040, Note_on_c, 1, 60, 80
2, 23040, Note_on_c, 1, 64, 80
2, 23040, Note_on_c, 1, 67, 80
2, 23267, Note_on_c, 1, 60, 0
2, 23267, Note_on_c, 1, 64, 0
2, 23267, Note_on_c, 1, 67, 0
2, 23280, Note_on_c, 1, 64, 80
2, 23280, Note_on_c, 1, 69, 80
2, 23507, Note_on_c, 1, 64, 0
2, 23507, Note_on_c, 1, 69, 0
2, 23520, Note_on_c, 1, 60, 80
2, 23520, Note_on_c, 1, 64, 80
2, 23520, Note_on_c, 1, 67, 80
2, 23747, Note_on_c, 1, 60, 0
2, 23747, Note_on_c, 1, 64, 0
2, 23747, Note_on_c, 1, 67, 0
2, 23760, Note_on_c, 1, 64, 80
2, 23760, Note_on_c, 1, 69, 80
2, 23873, Note_on_c, 1, 64, 0
2, 23873, Note_on_c, 1, 69, 0
2, 23880, Note_on_c, 1, 62, 80
2, 23880, Note_on_c, 1, 67, 80
2, 24107, Note_on_c, 1, 62, 0
2, 24107, Note_on_c, 1, 67, 0
2, 24120, Note_on_c, 1, 62, 80
2, 24120, Note_on_c, 1, 67, 80
2, 24233, Note_on_c, 1, 62, 0
2, 24233, Note_on_c, 1, 67, 0
2, 24240, Note_on_c, 1, 62, 80
2, 24240, Note_on_c, 1, 69, 80
2, 24467, Note_on_c, 1, 62, 0
2, 24467, Note_on_c, 1, 69, 0
2, 24480, Note_on_c, 1, 59, 80
2, 24480, Note_on_c, 1, 62, 80
2, 24480, Note_on_c, 1, 67, 80
2, 24707, Note_on_c, 1, 59, 0
2, 24707, Note_on_c, 1, 62, 0
2, 24707, Note_on_c, 1, 67, 0
2, 24720, Note_on_c, 1, 62, 80
2, 24720, Note_on_c, 1, 69, 80
2, 24947, Note_on_c, 1, 62, 0
2, 24947, Note_on_c, 1, 69, 0
2, 24960, Note_on_c, 1, 60, 80
2, 24960, Note_on_c, 1, 64, 80
2, 24960, Note_on_c, 1, 67, 80
2, 25187, Note_on_c, 1, 60, 0
2, 25187, Note_on_c, 1, 64, 0
2, 25187, Note_on_c, 1, 67, 0
2, 25200, Note_on_c, 1, 64, 80
2, 25200, Note_on_c, 1, 69, 80
2, 25427, Note_on_c, 1, 64, 0
2, 25427, Note_on_c, 1, 69, 0
2, 25440, Note_on_c, 1, 60, 80
2, 25440, Note_on_c, 1, 64, 80
2, 25440, Note_on_c, 1, 67, 80
2, 25667, Note_on_c, 1, 60, 0
2, 25667, Note_on_c, 1, 64, 0
2, 25667, Note_on_c, 1, 67, 0
2, 25680, Note_on_c, 1, 64, 80
2, 25680, Note_on_c, 1, 69, 80
2, 25793, Note_on_c, 1, 64, 0
2, 25793, Note_on_c, 1, 69, 0
2, 25800, Note_on_c, 1, 64, 80
2, 25800, Note_on_c, 1, 67, 80
2, 26027, Note_on_c, 1, 64, 0
2, 26027, Note_on_c, 1, 67, 0
2, 26040, Note_on_c, 1, 64, 80
2, 26040, Note_on_c, 1, 67, 80
2, 26153, Note_on_c, 1, 64, 0
2, 26153, Note_on_c, 1, 67, 0
2, 26160, Note_on_c, 1, 64, 80
2, 26160, Note_on_c, 1, 69, 80
2, 26387, Note_on_c, 1, 64, 0
2, 26387, Note_on_c, 1, 69, 0
2, 26400, Note_on_c, 1, 60, 80
2, 26400, Note_on_c, 1, 64, 80
2, 26400, Note_on_c, 1, 67, 80
2, 26627, Note_on_c, 1, 60, 0
2, 26627, Note_on_c, 1, 64, 0
2, 26627, Note_on_c, 1, 67, 0
2, 26640, Note_on_c, 1, 64, 80
2, 26640, Note_on_c, 1, 69, 80
2, 26867, Note_on_c, 1, 64, 0
2, 26867, Note_on_c, 1, 69, 0
2, 26880, Note_on_c, 1, 59, 80
2, 26880, Note_on_c, 1, 64, 80
2, 26880, Note_on_c, 1, 67, 80
2, 27107, Note_on_c, 1, 59, 0
2, 27107, Note_on_c, 1, 64, 0
2, 27107, Note_on_c, 1, 67, 0
2, 27120, Note_on_c, 1, 64, 80
2, 27120, Note_on_c, 1, 69, 80
2, 27347, Note_on_c, 1, 64, 0
2, 27347, Note_on_c, 1, 69, 0
2, 27360, Note_on_c, 1, 59, 80
2, 27360, Note_on_c, 1, 64, 80
2, 27360, Note_on_c, 1, 67, 80
2, 27587, Note_on_c, 1, 59, 0
2, 27587, Note_on_c, 1, 64, 0
2, 27587, Note_on_c, 1, 67, 0
2, 27600, Note_on_c, 1, 64, 80
2, 27600, Note_on_c, 1, 69, 80
2, 27713, Note_on_c, 1, 64, 0
2, 27713, Note_on_c, 1, 69, 0
2, 27720, Note_on_c, 1, 64, 80
2, 27720, Note_on_c, 1, 67, 80
2, 27947, Note_on_c, 1, 64, 0
2, 27947, Note_on_c, 1, 67, 0
2, 27960, Note_on_c, 1, 64, 80
2, 27960, Note_on_c, 1, 67, 80
2, 28073, Note_on_c, 1, 64, 0
2, 28073, Note_on_c, 1, 67, 0
2, 28080, Note_on_c, 1, 64, 80
2, 28307, Note_on_c, 1, 64, 0
2, 28320, Note_on_c, 1, 59, 80
2, 28320, Note_on_c, 1, 64, 80
2, 28320, Note_on_c, 1, 67, 80
2, 28547, Note_on_c, 1, 59, 0
2, 28547, Note_on_c, 1, 64, 0
2, 28547, Note_on_c, 1, 67, 0
2, 28560, Note_on_c, 1, 64, 80
2, 28787, Note_on_c, 1, 64, 0
2, 28800, Note_on_c, 1, 60, 80
2, 28800, Note_on_c, 1, 65, 80
2, 28800, Note_on_c, 1, 67, 80
2, 29027, Note_on_c, 1, 60, 0
2, 29027, Note_on_c, 1, 65, 0
2, 29027, Note_on_c, 1, 67, 0
2, 29040, Note_on_c, 1, 65, 80
2, 29040, Note_on_c, 1, 69, 80
2, 29267, Note_on_c, 1, 65, 0
2, 29267, Note_on_c, 1, 69, 0
2, 29280, Note_on_c, 1, 60, 80
2, 29280, Note_on_c, 1, 65, 80
2, 29280, Note_on_c, 1, 67, 80
2, 29507, Note_on_c, 1, 60, 0
2, 29507, Note_on_c, 1, 65, 0
2, 29507, Note_on_c, 1, 67, 0
2, 29520, Note_on_c, 1, 65, 80
2, 29520, Note_on_c, 1, 69, 80
2, 29633, Note_on_c, 1, 65, 0
2, 29633, Note_on_c, 1, 69, 0
2, 29640, Note_on_c, 1, 65, 80
2, 29640, Note_on_c, 1, 67, 80
2, 29867, Note_on_c, 1, 65, 0
2, 29867, Note_on_c, 1, 67, 0
2, 29880, Note_on_c, 1, 65, 80
2, 29880, Note_on_c, 1, 67, 80
2, 29993, Note_on_c, 1, 65, 0
2, 29993, Note_on_c, 1, 67, 0
2, 30000, Note_on_c, 1, 65, 80
2, 30000, Note_on_c, 1, 69, 80
2, 30227, Note_on_c, 1, 65, 0
2, 30227, Note_on_c, 1, 69, 0
2, 30240, Note_on_c, 1, 60, 80
2, 30240, Note_on_c, 1, 65, 80
2, 30240, Note_on_c, 1, 67, 80
2, 30467, Note_on_c, 1, 60, 0
2, 30467, Note_on_c, 1, 65, 0
2, 30467, Note_on_c, 1, 67, 0
2, 30480, Note_on_c, 1, 65, 80
2, 30480, Note_on_c, 1, 69, 80
2, 30707, Note_on_c, 1, 65, 0
2, 30707, Note_on_c, 1, 69, 0
2, 30720, Note_on_c, 1, 60, 80
2, 30720, Note_on_c, 1, 64, 80
2, 30720, Note_on_c, 1, 67, 80
2, 30947, Note_on_c, 1, 60, 0
2, 30947, Note_on_c, 1, 64, 0
2, 30947, Note_on_c, 1, 67, 0
2, 30960, Note_on_c, 1, 64, 80
2, 30960, Note_on_c, 1, 69, 80
2, 31187, Note_on_c, 1, 64, 0
2, 31187, Note_on_c, 1, 69, 0
2, 31200, Note_on_c, 1, 60, 80
2, 31200, Note_on_c, 1, 64, 80
2, 31200, Note_on_c, 1, 67, 80
2, 31427, Note_on_c, 1, 60, 0
2, 31427, Note_on_c, 1, 64, 0
2, 31427, Note_on_c, 1, 67, 0
2, 31440, Note_on_c, 1, 64, 80
2, 31440, Note_on_c, 1, 69, 80
2, 31553, Note_on_c, 1, 64, 0
2, 31553, Note_on_c, 1, 69, 0
2, 31560, Note_on_c, 1, 62, 80
2, 31560, Note_on_c, 1, 67, 80
2, 31787, Note_on_c, 1, 62, 0
2, 31787, Note_on_c, 1, 67, 0
2, 31800, Note_on_c, 1, 62, 80
2, 31800, Note_on_c, 1, 67, 80
2, 31913, Note_on_c, 1, 62, 0
2, 31913, Note_on_c, 1, 67, 0
2, 31920, Note_on_c, 1, 62, 80
2, 31920, Note_on_c, 1, 69, 80
2, 32147, Note_on_c, 1, 62, 0
2, 32147, Note_on_c, 1, 69, 0
2, 32160, Note_on_c, 1, 59, 80
2, 32160, Note_on_c, 1, 62, 80
2, 32160, Note_on_c, 1, 67, 80
2, 32387, Note_on_c, 1, 59, 0
2, 32387, Note_on_c, 1, 62, 0
2, 32387, Note_on_c, 1, 67, 0
2, 32400, Note_on_c, 1, 62, 80
2, 32400, Note_on_c, 1, 69, 80
2, 32627, Note_on_c, 1, 62, 0
2, 32627, Note_on_c, 1, 69, 0
2, 32640, Note_on_c, 1, 60, 80
2, 32640, Note_on_c, 1, 64, 80
2, 32640, Note_on_c, 1, 67, 80
2, 32867, Note_on_c, 1, 60, 0
2, 32867, Note_on_c, 1, 64, 0
2, 32867, Note_on_c, 1, 67, 0
2, 32880, Note_on_c, 1, 64, 80
2, 32880, Note_on_c, 1, 69, 80
2, 33107, Note_on_c, 1, 64, 0
2, 33107, Note_on_c, 1, 69, 0
2, 33120, Note_on_c, 1, 60, 80
2, 33120, Note_on_c, 1, 64, 80
2, 33120, Note_on_c, 1, 67, 80
2, 33347, Note_on_c, 1, 60, 0
2, 33347, Note_on_c, 1, 64, 0
2, 33347, Note_on_c, 1, 67, 0
2, 33360, Note_on_c, 1, 64, 80
2, 33360, Note_on_c, 1, 69, 80
2, 33473, Note_on_c, 1, 64, 0
2, 33473, Note_on_c, 1, 69, 0
2, 33480, Note_on_c, 1, 64, 80
2, 33480, Note_on_c, 1, 67, 80
2, 33707, Note_on_c, 1, 64, 0
2, 33707, Note_on_c, 1, 67, 0
2, 33720, Note_on_c, 1, 64, 80
2, 33720, Note_on_c, 1, 67, 80
2, 33833, Note_on_c, 1, 64, 0
2, 33833, Note_on_c, 1, 67, 0
2, 33840, Note_on_c, 1, 64, 80
2, 33840, Note_on_c, 1, 69, 80
2, 34067, Note_on_c, 1, 64, 0
2, 34067, Note_on_c, 1, 69, 0
2, 34080, Note_on_c, 1, 60, 80
2, 34080, Note_on_c, 1, 64, 80
2, 34080, Note_on_c, 1, 67, 80
2, 34307, Note_on_c, 1, 60, 0
2, 34307, Note_on_c, 1, 64, 0
2, 34307, Note_on_c, 1, 67, 0
2, 34320, Note_on_c, 1, 64, 80
2, 34320, Note_on_c, 1, 69, 80
2, 34547, Note_on_c, 1, 64, 0
2, 34547, Note_on_c, 1, 69, 0
2, 34560, Note_on_c, 1, 59, 80
2, 34560, Note_on_c, 1, 64, 80
2, 34560, Note_on_c, 1, 67, 80
2, 34787, Note_on_c, 1, 59, 0
2, 34787, Note_on_c, 1, 64, 0
2, 34787, Note_on_c, 1, 67, 0
2, 34800, Note_on_c, 1, 64, 80
2, 34800, Note_on_c, 1, 69, 80
2, 35027, Note_on_c, 1, 64, 0
2, 35027, Note_on_c, 1, 69, 0
2, 35040, Note_on_c, 1, 64, 80
2, 35040, Note_on_c, 1, 67, 80
2, 35267, Note_on_c, 1, 64, 0
2, 35267, Note_on_c, 1, 67, 0
2, 35280, Note_on_c, 1, 59, 80
2, 35280, Note_on_c, 1, 64, 80
2, 35280, Note_on_c, 1, 69, 80
2, 35393, Note_on_c, 1, 59, 0
2, 35393, Note_on_c, 1, 64, 0
2, 35393, Note_on_c, 1, 69, 0
2, 35400, Note_on_c, 1, 64, 80
2, 35400, Note_on_c, 1, 67, 80
2, 35627, Note_on_c, 1, 64, 0
2, 35627, Note_on_c, 1, 67, 0
2, 35640, Note_on_c, 1, 64, 80
2, 35640, Note_on_c, 1, 67, 80
2, 35753, Note_on_c, 1, 64, 0
2, 35753, Note_on_c, 1, 67, 0
2, 35760, Note_on_c, 1, 64, 80
2, 35760, Note_on_c, 1, 69, 80
2, 35987, Note_on_c, 1, 64, 0
2, 35987, Note_on_c, 1, 69, 0
2, 36000, Note_on_c, 1, 59, 80
2, 36000, Note_on_c, 1, 64, 80
2, 36000, Note_on_c, 1, 67, 80
2, 36227, Note_on_c, 1, 59, 0
2, 36227, Note_on_c, 1, 64, 0
2, 36227, Note_on_c, 1, 67, 0
2, 36240, Note_on_c, 1, 64, 80
2, 36240, Note_on_c, 1, 69, 80
2, 36467, Note_on_c, 1, 64, 0
2, 36467, Note_on_c, 1, 69, 0
2, 36480, Note_on_c, 1, 60, 80
2, 36480, Note_on_c, 1, 65, 80
2, 36480, Note_on_c, 1, 67, 80
2, 36707, Note_on_c, 1, 60, 0
2, 36707, Note_on_c, 1, 65, 0
2, 36707, Note_on_c, 1, 67, 0
2, 36720, Note_on_c, 1, 65, 80
2, 36720, Note_on_c, 1, 69, 80
2, 36947, Note_on_c, 1, 65, 0
2, 36947, Note_on_c, 1, 69, 0
2, 36960, Note_on_c, 1, 60, 80
2, 36960, Note_on_c, 1, 65, 80
2, 36960, Note_on_c, 1, 67, 80
2, 37187, Note_on_c, 1, 60, 0
2, 37187, Note_on_c, 1, 65, 0
2, 37187, Note_on_c, 1, 67, 0
2, 37200, Note_on_c, 1, 65, 80
2, 37200, Note_on_c, 1, 69, 80
2, 37313, Note_on_c, 1, 65, 0
2, 37313, Note_on_c, 1, 69, 0
2, 37320, Note_on_c, 1, 65, 80
2, 37320, Note_on_c, 1, 67, 80
2, 37547, Note_on_c, 1, 65, 0
2, 37547, Note_on_c, 1, 67, 0
2, 37560, Note_on_c, 1, 65, 80
2, 37560, Note_on_c, 1, 67, 80
2, 37673, Note_on_c, 1, 65, 0
2, 37673, Note_on_c, 1, 67, 0
2, 37680, Note_on_c, 1, 65, 80
2, 37680, Note_on_c, 1, 69, 80
2, 37907, Note_on_c, 1, 65, 0
2, 37907, Note_on_c, 1, 69, 0
2, 37920, Note_on_c, 1, 60, 80
2, 37920, Note_on_c, 1, 65, 80
2, 37920, Note_on_c, 1, 67, 80
2, 38147, Note_on_c, 1, 60, 0
2, 38147, Note_on_c, 1, 65, 0
2, 38147, Note_on_c, 1, 67, 0
2, 38160, Note_on_c, 1, 65, 80
2, 38160, Note_on_c, 1, 69, 80
2, 38387, Note_on_c, 1, 65, 0
2, 38387, Note_on_c, 1, 69, 0
2, 38400, Note_on_c, 1, 60, 80
2, 38400, Note_on_c, 1, 64, 80
2, 38400, Note_on_c, 1, 67, 80
2, 38627, Note_on_c, 1, 60, 0
2, 38627, Note_on_c, 1, 64, 0
2, 38627, Note_on_c, 1, 67, 0
2, 38640, Note_on_c, 1, 64, 80
2, 38640, Note_on_c, 1, 69, 80
2, 38867, Note_on_c, 1, 64, 0
2, 38867, Note_on_c, 1, 69, 0
2, 38880, Note_on_c, 1, 60, 80
2, 38880, Note_on_c, 1, 64, 80
2, 38880, Note_on_c, 1, 67, 80
2, 39107, Note_on_c, 1, 60, 0
2, 39107, Note_on_c, 1, 64, 0
2, 39107, Note_on_c, 1, 67, 0
2, 39120, Note_on_c, 1, 64, 80
2, 39120, Note_on_c, 1, 69, 80
2, 39233, Note_on_c, 1, 64, 0
2, 39233, Note_on_c, 1, 69, 0
2, 39240, Note_on_c, 1, 62, 80
2, 39240, Note_on_c, 1, 67, 80
2, 39467, Note_on_c, 1, 62, 0
2, 39467, Note_on_c, 1, 67, 0
2, 39480, Note_on_c, 1, 62, 80
2, 39480, Note_on_c, 1, 67, 80
2, 39593, Note_on_c, 1, 62, 0
2, 39593, Note_on_c, 1, 67, 0
2, 39600, Note_on_c, 1, 62, 80
2, 39600, Note_on_c, 1, 69, 80
2, 39827, Note_on_c, 1, 62, 0
2, 39827, Note_on_c, 1, 69, 0
2, 39840, Note_on_c, 1, 59, 80
2, 39840, Note_on_c, 1, 62, 80
2, 39840, Note_on_c, 1, 67, 80
2, 40067, Note_on_c, 1, 59, 0
2, 40067, Note_on_c, 1, 62, 0
2, 40067, Note_on_c, 1, 67, 0
2, 40080, Note_on_c, 1, 62, 80
2, 40080, Note_on_c, 1, 69, 80
2, 40307, Note_on_c, 1, 62, 0
2, 40307, Note_on_c, 1, 69, 0
2, 40320, Note_on_c, 1, 60, 80
2, 40320, Note_on_c, 1, 64, 80
2, 40547, Note_on_c, 1, 60, 0
2, 40547, Note_on_c, 1, 64, 0
2, 40560, Note_on_c, 1, 64, 80
2, 40560, Note_on_c, 1, 69, 80
2, 40787, Note_on_c, 1, 64, 0
2, 40787, Note_on_c, 1, 69, 0
2, 40800, Note_on_c, 1, 60, 80
2, 40800, Note_on_c, 1, 64, 80
2, 40800, Note_on_c, 1, 67, 80
2, 41027, Note_on_c, 1, 60, 0
2, 41027, Note_on_c, 1, 64, 0
2, 41027, Note_on_c, 1, 67, 0
2, 41040, Note_on_c, 1, 64, 80
2, 41040, Note_on_c, 1, 69, 80
2, 41153, Note_on_c, 1, 64, 0
2, 41153, Note_on_c, 1, 69, 0
2, 41160, Note_on_c, 1, 64, 80
2, 41160, Note_on_c, 1, 67, 80
2, 41387, Note_on_c, 1, 64, 0
2, 41387, Note_on_c, 1, 67, 0
2, 41400, Note_on_c, 1, 64, 80
2, 41400, Note_on_c, 1, 67, 80
2, 41513, Note_on_c, 1, 64, 0
2, 41513, Note_on_c, 1, 67, 0
2, 41520, Note_on_c, 1, 64, 80
2, 41520, Note_on_c, 1, 69, 80
2, 41747, Note_on_c, 1, 64, 0
2, 41747, Note_on_c, 1, 69, 0
2, 41760, Note_on_c, 1, 60, 80
2, 41760, Note_on_c, 1, 64, 80
2, 41760, Note_on_c, 1, 67, 80
2, 41987, Note_on_c, 1, 60, 0
2, 41987, Note_on_c, 1, 64, 0
2, 41987, Note_on_c, 1, 67, 0
2, 42000, Note_on_c, 1, 64, 80
2, 42000, Note_on_c, 1, 69, 80
2, 42227, Note_on_c, 1, 64, 0
2, 42227, Note_on_c, 1, 69, 0
2, 42240, Note_on_c, 1, 59, 80
2, 42240, Note_on_c, 1, 64, 80
2, 42467, Note_on_c, 1, 59, 0
2, 42467, Note_on_c, 1, 64, 0
2, 42480, Note_on_c, 1, 64, 80
2, 42480, Note_on_c, 1, 69, 80
2, 42707, Note_on_c, 1, 64, 0
2, 42707, Note_on_c, 1, 69, 0
2, 42720, Note_on_c, 1, 59, 80
2, 42720, Note_on_c, 1, 64, 80
2, 42720, Note_on_c, 1, 67, 80
2, 42947, Note_on_c, 1, 59, 0
2, 42947, Note_on_c, 1, 64, 0
2, 42947, Note_on_c, 1, 67, 0
2, 42960, Note_on_c, 1, 64, 80
2, 42960, Note_on_c, 1, 69, 80
2, 43073, Note_on_c, 1, 64, 0
2, 43073, Note_on_c, 1, 69, 0
2, 43080, Note_on_c, 1, 64, 80
2, 43080, Note_on_c, 1, 67, 80
2, 43307, Note_on_c, 1, 64, 0
2, 43307, Note_on_c, 1, 67, 0
2, 43320, Note_on_c, 1, 64, 80
2, 43320, Note_on_c, 1, 67, 80
2, 43433, Note_on_c, 1, 64, 0
2, 43433, Note_on_c, 1, 67, 0
2, 43440, Note_on_c, 1, 64, 80
2, 43440, Note_on_c, 1, 69, 80
2, 43667, Note_on_c, 1, 64, 0
2, 43667, Note_on_c, 1, 69, 0
2, 43680, Note_on_c, 1, 59, 80
2, 43680, Note_on_c, 1, 64, 80
2, 43680, Note_on_c, 1, 67, 80
2, 43907, Note_on_c, 1, 59, 0
2, 43907, Note_on_c, 1, 64, 0
2, 43907, Note_on_c, 1, 67, 0
2, 43920, Note_on_c, 1, 64, 80
2, 43920, Note_on_c, 1, 69, 80
2, 44147, Note_on_c, 1, 64, 0
2, 44147, Note_on_c, 1, 69, 0
2, 44160, Note_on_c, 1, 60, 80
2, 44160, Note_on_c, 1, 65, 80
2, 44160, Note_on_c, 1, 67, 80
2, 44387, Note_on_c, 1, 60, 0
2, 44387, Note_on_c, 1, 65, 0
2, 44387, Note_on_c, 1, 67, 0
2, 44400, Note_on_c, 1, 65, 80
2, 44400, Note_on_c, 1, 69, 80
2, 44627, Note_on_c, 1, 65, 0
2, 44627, Note_on_c, 1, 69, 0
2, 44640, Note_on_c, 1, 60, 80
2, 44640, Note_on_c, 1, 65, 80
2, 44640, Note_on_c, 1, 67, 80
2, 44867, Note_on_c, 1, 60, 0
2, 44867, Note_on_c, 1, 65, 0
2, 44867, Note_on_c, 1, 67, 0
2, 44880, Note_on_c, 1, 65, 80
2, 44880, Note_on_c, 1, 69, 80
2, 44993, Note_on_c, 1, 65, 0
2, 44993, Note_on_c, 1, 69, 0
2, 45000, Note_on_c, 1, 65, 80
2, 45000, Note_on_c, 1, 67, 80
2, 45227, Note_on_c, 1, 65, 0
2, 45227, Note_on_c, 1, 67, 0
2, 45240, Note_on_c, 1, 65, 80
2, 45240, Note_on_c, 1, 67, 80
2, 45353, Note_on_c, 1, 65, 0
2, 45353, Note_on_c, 1, 67, 0
2, 45360, Note_on_c, 1, 65, 80
2, 45360, Note_on_c, 1, 69, 80
2, 45587, Note_on_c, 1, 65, 0
2, 45587, Note_on_c, 1, 69, 0
2, 45600, Note_on_c, 1, 60, 80
2, 45600, Note_on_c, 1, 65, 80
2, 45600, Note_on_c, 1, 67, 80
2, 45827, Note_on_c, 1, 60, 0
2, 45827, Note_on_c, 1, 65, 0
2, 45827, Note_on_c, 1, 67, 0
2, 45840, Note_on_c, 1, 65, 80
2, 45840, Note_on_c, 1, 69, 80
2, 46067, Note_on_c, 1, 65, 0
2, 46067, Note_on_c, 1, 69, 0
2, 46080, Note_on_c, 1, 60, 80
2, 46080, Note_on_c, 1, 64, 80
2, 46080, Note_on_c, 1, 67, 80
2, 46307, Note_on_c, 1, 60, 0
2, 46307, Note_on_c, 1, 64, 0
2, 46307, Note_on_c, 1, 67, 0
2, 46320, Note_on_c, 1, 64, 80
2, 46320, Note_on_c, 1, 69, 80
2, 46547, Note_on_c, 1, 64, 0
2, 46547, Note_on_c, 1, 69, 0
2, 46560, Note_on_c, 1, 60, 80
2, 46560, Note_on_c, 1, 64, 80
2, 46560, Note_on_c, 1, 67, 80
2, 46787, Note_on_c, 1, 60, 0
2, 46787, Note_on_c, 1, 64, 0
2, 46787, Note_on_c, 1, 67, 0
2, 46800, Note_on_c, 1, 64, 80
2, 46800, Note_on_c, 1, 69, 80
2, 46913, Note_on_c, 1, 64, 0
2, 46913, Note_on_c, 1, 69, 0
2, 46920, Note_on_c, 1, 62, 80
2, 46920, Note_on_c, 1, 67, 80
2, 47147, Note_on_c, 1, 62, 0
2, 47147, Note_on_c, 1, 67, 0
2, 47160, Note_on_c, 1, 62, 80
2, 47160, Note_on_c, 1, 67, 80
2, 47273, Note_on_c, 1, 62, 0
2, 47273, Note_on_c, 1, 67, 0
2, 47280, Note_on_c, 1, 62, 80
2, 47280, Note_on_c, 1, 69, 80
2, 47507, Note_on_c, 1, 62, 0
2, 47507, Note_on_c, 1, 69, 0
2, 47520, Note_on_c, 1, 59, 80
2, 47520, Note_on_c, 1, 62, 80
2, 47520, Note_on_c, 1, 67, 80
2, 47747, Note_on_c, 1, 59, 0
2, 47747, Note_on_c, 1, 62, 0
2, 47747, Note_on_c, 1, 67, 0
2, 47760, Note_on_c, 1, 62, 80
2, 47760, Note_on_c, 1, 69, 80
2, 47987, Note_on_c, 1, 62, 0
2, 47987, Note_on_c, 1, 69, 0
2, 48000, Note_on_c, 1, 60, 80
2, 48000, Note_on_c, 1, 64, 80
2, 48227, Note_on_c, 1, 60, 0
2, 48227, Note_on_c, 1, 64, 0
2, 48240, Note_on_c, 1, 64, 80
2, 48240, Note_on_c, 1, 69, 80
2, 48467, Note_on_c, 1, 64, 0
2, 48467, Note_on_c, 1, 69, 0
2, 48480, Note_on_c, 1, 60, 80
2, 48480, Note_on_c, 1, 64, 80
2, 48480, Note_on_c, 1, 67, 80
2, 48707, Note_on_c, 1, 60, 0
2, 48707, Note_on_c, 1, 64, 0
2, 48707, Note_on_c, 1, 67, 0
2, 48720, Note_on_c, 1, 64, 80
2, 48720, Note_on_c, 1, 69, 80
2, 48833, Note_on_c, 1, 64, 0
2, 48833, Note_on_c, 1, 69, 0
2, 48840, Note_on_c, 1, 64, 80
2, 48840, Note_on_c, 1, 67, 80
2, 49067, Note_on_c, 1, 64, 0
2, 49067, Note_on_c, 1, 67, 0
2, 49080, Note_on_c, 1, 64, 80
2, 49080, Note_on_c, 1, 67, 80
2, 49193, Note_on_c, 1, 64, 0
2, 49193, Note_on_c, 1, 67, 0
2, 49200, Note_on_c, 1, 64, 80
2, 49200, Note_on_c, 1, 69, 80
2, 49427, Note_on_c, 1, 64, 0
2, 49427, Note_on_c, 1, 69, 0
2, 49440, Note_on_c, 1, 60, 80
2, 49440, Note_on_c, 1, 64, 80
2, 49440, Note_on_c, 1, 67, 80
2, 49667, Note_on_c, 1, 60, 0
2, 49667, Note_on_c, 1, 64, 0
2, 49667, Note_on_c, 1, 67, 0
2, 49680, Note_on_c, 1, 64, 80
2, 49680, Note_on_c, 1, 69, 80
2, 49907, Note_on_c, 1, 64, 0
2, 49907, Note_on_c, 1, 69, 0
2, 49920, Note_on_c, 1, 59, 80
2, 49920, Note_on_c, 1, 64, 80
2, 50147, Note_on_c, 1, 59, 0
2, 50147, Note_on_c, 1, 64, 0
2, 50160, Note_on_c, 1, 64, 80
2, 50160, Note_on_c, 1, 69, 80
2, 50387, Note_on_c, 1, 64, 0
2, 50387, Note_on_c, 1, 69, 0
2, 50400, Note_on_c, 1, 59, 80
2, 50400, Note_on_c, 1, 64, 80
2, 50400, Note_on_c, 1, 67, 80
2, 50627, Note_on_c, 1, 59, 0
2, 50627, Note_on_c, 1, 64, 0
2, 50627, Note_on_c, 1, 67, 0
2, 50640, Note_on_c, 1, 64, 80
2, 50640, Note_on_c, 1, 69, 80
2, 50753, Note_on_c, 1, 64, 0
2, 50753, Note_on_c, 1, 69, 0
2, 50760, Note_on_c, 1, 64, 80
2, 50760, Note_on_c, 1, 67, 80
2, 50987, Note_on_c, 1, 64, 0
2, 50987, Note_on_c, 1, 67, 0
2, 51000, Note_on_c, 1, 64, 80
2, 51000, Note_on_c, 1, 67, 80
2, 51113, Note_on_c, 1, 64, 0
2, 51113, Note_on_c, 1, 67, 0
2, 51120, Note_on_c, 1, 64, 80
2, 51120, Note_on_c, 1, 69, 80
2, 51347, Note_on_c, 1, 64, 0
2, 51347, Note_on_c, 1, 69, 0
2, 51360, Note_on_c, 1, 59, 80
2, 51360, Note_on_c, 1, 64, 80
2, 51360, Note_on_c, 1, 67, 80
2, 51587, Note_on_c, 1, 59, 0
2, 51587, Note_on_c, 1, 64, 0
2, 51587, Note_on_c, 1, 67, 0
2, 51600, Note_on_c, 1, 64, 80
2, 51600, Note_on_c, 1, 69, 80
2, 51827, Note_on_c, 1, 64, 0
2, 51827, Note_on_c, 1, 69, 0
2, 51840, Note_on_c, 1, 60, 80
2, 51840, Note_on_c, 1, 67, 80
2, 52067, Note_on_c, 1, 60, 0
2, 52067, Note_on_c, 1, 67, 0
2, 52080, Note_on_c, 1, 65, 80
2, 52080, Note_on_c, 1, 69, 80
2, 52307, Note_on_c, 1, 65, 0
2, 52307, Note_on_c, 1, 69, 0
2, 52320, Note_on_c, 1, 60, 80
2, 52320, Note_on_c, 1, 67, 80
2, 52547, Note_on_c, 1, 60, 0
2, 52547, Note_on_c, 1, 67, 0
2, 52560, Note_on_c, 1, 69, 80
2, 52673, Note_on_c, 1, 69, 0
2, 52680, Note_on_c, 1, 65, 80
2, 52680, Note_on_c, 1, 67, 80
2, 52907, Note_on_c, 1, 65, 0
2, 52907, Note_on_c, 1, 67, 0
2, 52920, Note_on_c, 1, 65, 80
2, 52920, Note_on_c, 1, 67, 80
2, 53033, Note_on_c, 1, 65, 0
2, 53033, Note_on_c, 1, 67, 0
2, 53040, Note_on_c, 1, 69, 80
2, 53267, Note_on_c, 1, 69, 0
2, 53280, Note_on_c, 1, 60, 80
2, 53280, Note_on_c, 1, 65, 80
2, 53280, Note_on_c, 1, 67, 80
2, 53507, Note_on_c, 1, 60, 0
2, 53507, Note_on_c, 1, 65, 0
2, 53507, Note_on_c, 1, 67, 0
2, 53520, Note_on_c, 1, 65, 80
2, 53520, Note_on_c, 1, 69, 80
2, 53747, Note_on_c, 1, 65, 0
2, 53747, Note_on_c, 1, 69, 0
2, 53760, Note_on_c, 1, 60, 80
2, 53760, Note_on_c, 1, 64, 80
2, 53760, Note_on_c, 1, 67, 80
2, 53987, Note_on_c, 1, 60, 0
2, 53987, Note_on_c, 1, 64, 0
2, 53987, Note_on_c, 1, 67, 0
2, 54000, Note_on_c, 1, 64, 80
2, 54000, Note_on_c, 1, 69, 80
2, 54227, Note_on_c, 1, 64, 0
2, 54227, Note_on_c, 1, 69, 0
2, 54240, Note_on_c, 1, 64, 80
2, 54240, Note_on_c, 1, 67, 80
2, 54467, Note_on_c, 1, 64, 0
2, 54467, Note_on_c, 1, 67, 0
2, 54480, Note_on_c, 1, 60, 80
2, 54480, Note_on_c, 1, 64, 80
2, 54593, Note_on_c, 1, 60, 0
2, 54593, Note_on_c, 1, 64, 0
2, 54600, Note_on_c, 1, 62, 80
2, 54827, Note_on_c, 1, 62, 0
2, 54840, Note_on_c, 1, 62, 80
2, 54953, Note_on_c, 1, 62, 0
2, 54960, Note_on_c, 1, 62, 80
2, 55187, Note_on_c, 1, 62, 0
2, 55200, Note_on_c, 1, 59, 80
2, 55200, Note_on_c, 1, 62, 80
2, 55200, Note_on_c, 1, 67, 80
2, 55427, Note_on_c, 1, 59, 0
2, 55427, Note_on_c, 1, 62, 0
2, 55427, Note_on_c, 1, 67, 0
2, 55440, Note_on_c, 1, 62, 80
2, 55667, Note_on_c, 1, 62, 0
2, 55680, Note_on_c, 1, 60, 80
2, 55680, Note_on_c, 1, 64, 80
2, 55680, Note_on_c, 1, 67, 80
2, 55907, Note_on_c, 1, 60, 0
2, 55907, Note_on_c, 1, 64, 0
2, 55907, Note_on_c, 1, 67, 0
2, 55920, Note_on_c, 1, 64, 80
2, 55920, Note_on_c, 1, 69, 80
2, 56147, Note_on_c, 1, 64, 0
2, 56147, Note_on_c, 1, 69, 0
2, 56160, Note_on_c, 1, 60, 80
2, 56160, Note_on_c, 1, 64, 80
2, 56160, Note_on_c, 1, 67, 80
2, 56387, Note_on_c, 1, 60, 0
2, 56387, Note_on_c, 1, 64, 0
2, 56387, Note_on_c, 1, 67, 0
2, 56400, Note_on_c, 1, 64, 80
2, 56400, Note_on_c, 1, 69, 80
2, 56513, Note_on_c, 1, 64, 0
2, 56513, Note_on_c, 1, 69, 0
2, 56520, Note_on_c, 1, 67, 80
2, 56520, Note_on_c, 1, 64, 80
2, 56633, Note_on_c, 1, 67, 0
2, 56640, Note_on_c, 1, 67, 80
2, 56747, Note_on_c, 1, 64, 0
2, 56753, Note_on_c, 1, 67, 0
2, 56760, Note_on_c, 1, 64, 80
2, 56760, Note_on_c, 1, 67, 80
2, 56873, Note_on_c, 1, 64, 0
2, 56873, Note_on_c, 1, 67, 0
2, 56880, Note_on_c, 1, 64, 80
2, 56880, Note_on_c, 1, 69, 80
2, 57107, Note_on_c, 1, 64, 0
2, 57107, Note_on_c, 1, 69, 0
2, 57120, Note_on_c, 1, 60, 80
2, 57120, Note_on_c, 1, 64, 80
2, 57120, Note_on_c, 1, 67, 80
2, 57347, Note_on_c, 1, 60, 0
2, 57347, Note_on_c, 1, 64, 0
2, 57347, Note_on_c, 1, 67, 0
2, 57360, Note_on_c, 1, 64, 80
2, 57360, Note_on_c, 1, 69, 80
2, 57587, Note_on_c, 1, 64, 0
2, 57587, Note_on_c, 1, 69, 0
2, 57600, Note_on_c, 1, 59, 80
2, 57600, Note_on_c, 1, 64, 80
2, 57600, Note_on_c, 1, 67, 80
2, 57827, Note_on_c, 1, 59, 0
2, 57827, Note_on_c, 1, 64, 0
2, 57827, Note_on_c, 1, 67, 0
2, 57840, Note_on_c, 1, 64, 80
2, 57840, Note_on_c, 1, 69, 80
2, 58067, Note_on_c, 1, 64, 0
2, 58067, Note_on_c, 1, 69, 0
2, 58080, Note_on_c, 1, 59, 80
2, 58080, Note_on_c, 1, 64, 80
2, 58080, Note_on_c, 1, 67, 80
2, 58307, Note_on_c, 1, 59, 0
2, 58307, Note_on_c, 1, 64, 0
2, 58307, Note_on_c, 1, 67, 0
2, 58320, Note_on_c, 1, 64, 80
2, 58320, Note_on_c, 1, 69, 80
2, 58433, Note_on_c, 1, 64, 0
2, 58433, Note_on_c, 1, 69, 0
2, 58440, Note_on_c, 1, 64, 80
2, 58440, Note_on_c, 1, 67, 80
2, 58667, Note_on_c, 1, 64, 0
2, 58667, Note_on_c, 1, 67, 0
2, 58680, Note_on_c, 1, 64, 80
2, 58680, Note_on_c, 1, 67, 80
2, 58793, Note_on_c, 1, 64, 0
2, 58793, Note_on_c, 1, 67, 0
2, 58800, Note_on_c, 1, 64, 80
2, 58800, Note_on_c, 1, 69, 80
2, 59027, Note_on_c, 1, 64, 0
2, 59027, Note_on_c, 1, 69, 0
2, 59040, Note_on_c, 1, 59, 80
2, 59040, Note_on_c, 1, 64, 80
2, 59040, Note_on_c, 1, 67, 80
2, 59267, Note_on_c, 1, 59, 0
2, 59267, Note_on_c, 1, 64, 0
2, 59267, Note_on_c, 1, 67, 0
2, 59280, Note_on_c, 1, 64, 80
2, 59280, Note_on_c, 1, 69, 80
2, 59507, Note_on_c, 1, 64, 0
2, 59507, Note_on_c, 1, 69, 0
2, 59520, Note_on_c, 1, 60, 80
2, 59520, Note_on_c, 1, 65, 80
2, 59520, Note_on_c, 1, 67, 80
2, 59747, Note_on_c, 1, 60, 0
2, 59747, Note_on_c, 1, 65, 0
2, 59747, Note_on_c, 1, 67, 0
2, 59760, Note_on_c, 1, 65, 80
2, 59760, Note_on_c, 1, 69, 80
2, 59987, Note_on_c, 1, 65, 0
2, 59987, Note_on_c, 1, 69, 0
2, 60000, Note_on_c, 1, 60, 80
2, 60000, Note_on_c, 1, 65, 80
2, 60000, Note_on_c, 1, 67, 80
2, 60227, Note_on_c, 1, 60, 0
2, 60227, Note_on_c, 1, 65, 0
2, 60227, Note_on_c, 1, 67, 0
2, 60240, Note_on_c, 1, 65, 80
2, 60240, Note_on_c, 1, 69, 80
2, 60353, Note_on_c, 1, 65, 0
2, 60353, Note_on_c, 1, 69, 0
2, 60360, Note_on_c, 1, 65, 80
2, 60360, Note_on_c, 1, 67, 80
2, 60587, Note_on_c, 1, 65, 0
2, 60587, Note_on_c, 1, 67, 0
2, 60600, Note_on_c, 1, 65, 80
2, 60600, Note_on_c, 1, 67, 80
2, 60713, Note_on_c, 1, 65, 0
2, 60713, Note_on_c, 1, 67, 0
2, 60720, Note_on_c, 1, 65, 80
2, 60720, Note_on_c, 1, 69, 80
2, 60947, Note_on_c, 1, 65, 0
2, 60947, Note_on_c, 1, 69, 0
2, 60960, Note_on_c, 1, 60, 80
2, 60960, Note_on_c, 1, 65, 80
2, 60960, Note_on_c, 1, 67, 80
2, 61187, Note_on_c, 1, 60, 0
2, 61187, Note_on_c, 1, 65, 0
2, 61187, Note_on_c, 1, 67, 0
2, 61200, Note_on_c, 1, 65, 80
2, 61200, Note_on_c, 1, 69, 80
2, 61427, Note_on_c, 1, 65, 0
2, 61427, Note_on_c, 1, 69, 0
2, 61440, Note_on_c, 1, 60, 80
2, 61440, Note_on_c, 1, 67, 80
2, 61667, Note_on_c, 1, 60, 0
2, 61667, Note_on_c, 1, 67, 0
2, 61680, Note_on_c, 1, 64, 80
2, 61680, Note_on_c, 1, 69, 80
2, 61907, Note_on_c, 1, 64, 0
2, 61907, Note_on_c, 1, 69, 0
2, 61920, Note_on_c, 1, 60, 80
2, 61920, Note_on_c, 1, 67, 80
2, 62147, Note_on_c, 1, 60, 0
2, 62147, Note_on_c, 1, 67, 0
2, 62160, Note_on_c, 1, 69, 80
2, 62273, Note_on_c, 1, 69, 0
2, 62280, Note_on_c, 1, 62, 80
2, 62280, Note_on_c, 1, 67, 80
2, 62507, Note_on_c, 1, 62, 0
2, 62507, Note_on_c, 1, 67, 0
2, 62520, Note_on_c, 1, 62, 80
2, 62520, Note_on_c, 1, 67, 80
2, 62633, Note_on_c, 1, 62, 0
2, 62633, Note_on_c, 1, 67, 0
2, 62640, Note_on_c, 1, 71, 80
2, 62867, Note_on_c, 1, 71, 0
2, 62880, Note_on_c, 1, 62, 80
2, 62880, Note_on_c, 1, 67, 80
2, 63107, Note_on_c, 1, 62, 0
2, 63107, Note_on_c, 1, 67, 0
2, 63120, Note_on_c, 1, 62, 80
2, 63120, Note_on_c, 1, 69, 80
2, 63347, Note_on_c, 1, 62, 0
2, 63347, Note_on_c, 1, 69, 0
2, 63360, Note_on_c, 1, 62, 96
2, 63587, Note_on_c, 1, 62, 0
2, 63600, Note_on_c, 1, 64, 96
2, 63827, Note_on_c, 1, 64, 0
2, 63840, Note_on_c, 1, 62, 96
2, 64067, Note_on_c, 1, 62, 0
2, 64080, Note_on_c, 1, 64, 96
2, 64193, Note_on_c, 1, 64, 0
2, 64200, Note_on_c, 1, 62, 96
2, 64427, Note_on_c, 1, 62, 0
2, 64440, Note_on_c, 1, 62, 96
2, 64553, Note_on_c, 1, 62, 0
2, 64560, Note_on_c, 1, 64, 96
2, 64787, Note_on_c, 1, 64, 0
2, 64800, Note_on_c, 1, 62, 96
2, 65027, Note_on_c, 1, 62, 0
2, 65040, Note_on_c, 1, 64, 96
2, 65267, Note_on_c, 1, 64, 0
2, 65280, Note_on_c, 1, 55, 96
2, 65280, Note_on_c, 1, 59, 96
2, 65280, Note_on_c, 1, 62, 96
2, 65507, Note_on_c, 1, 55, 0
2, 65507, Note_on_c, 1, 59, 0
2, 65507, Note_on_c, 1, 62, 0
2, 65520, Note_on_c, 1, 55, 96
2, 65520, Note_on_c, 1, 59, 96
2, 65520, Note_on_c, 1, 64, 96
2, 65747, Note_on_c, 1, 55, 0
2, 65747, Note_on_c, 1, 59, 0
2, 65747, Note_on_c, 1, 64, 0
2, 65760, Note_on_c, 1, 55, 96
2, 65760, Note_on_c, 1, 59, 96
2, 65760, Note_on_c, 1, 62, 96
2, 65987, Note_on_c, 1, 55, 0
2, 65987, Note_on_c, 1, 59, 0
2, 65987, Note_on_c, 1, 62, 0
2, 66000, Note_on_c, 1, 55, 96
2, 66000, Note_on_c, 1, 59, 96
2, 66000, Note_on_c, 1, 64, 96
2, 66227, Note_on_c, 1, 55, 0
2, 66227, Note_on_c, 1, 59, 0
2, 66227, Note_on_c, 1, 64, 0
2, 66240, Note_on_c, 1, 55, 80
2, 66240, Note_on_c, 1, 60, 80
2, 66240, Note_on_c, 1, 64, 80
2, 66695, Note_on_c, 1, 55, 0
2, 66695, Note_on_c, 1, 60, 0
2, 66695, Note_on_c, 1, 64, 0
2, 66720, Note_on_c, 1, 55, 80
2, 66720, Note_on_c, 1, 60, 80
2, 66720, Note_on_c, 1, 64, 80
2, 67175, Note_on_c, 1, 55, 0
2, 67175, Note_on_c, 1, 60, 0
2, 67175, Note_on_c, 1, 64, 0
2, 67200, Note_on_c, 1, 55, 80
2, 67655, Note_on_c, 1, 55, 0
2, 67680, Note_on_c, 1, 55, 80
2, 67680, Note_on_c, 1, 60, 80
2, 68135, Note_on_c, 1, 55, 0
2, 68135, Note_on_c, 1, 60, 0
2, 68160, Note_on_c, 1, 55, 80
2, 68160, Note_on_c, 1, 59, 80
2, 68160, Note_on_c, 1, 62, 80
2, 68615, Note_on_c, 1, 55, 0
2, 68615, Note_on_c, 1, 59, 0
2, 68615, Note_on_c, 1, 62, 0
2, 68640, Note_on_c, 1, 55, 80
2, 68640, Note_on_c, 1, 59, 80
2, 68640, Note_on_c, 1, 62, 80
2, 69095, Note_on_c, 1, 55, 0
2, 69095, Note_on_c, 1, 59, 0
2, 69095, Note_on_c, 1, 62, 0
2, 69120, Note_on_c, 1, 55, 80
2, 69120, Note_on_c, 1, 59, 80
2, 69120, Note_on_c, 1, 62, 80
2, 69575, Note_on_c, 1, 55, 0
2, 69575, Note_on_c, 1, 59, 0
2, 69575, Note_on_c, 1, 62, 0
2, 69600, Note_on_c, 1, 55, 80
2, 69600, Note_on_c, 1, 59, 80
2, 69600, Note_on_c, 1, 62, 80
2, 70055, Note_on_c, 1, 55, 0
2, 70055, Note_on_c, 1, 59, 0
2, 70055, Note_on_c, 1, 62, 0
2, 70080, Note_on_c, 1, 53, 80
2, 70080, Note_on_c, 1, 57, 80
2, 70080, Note_on_c, 1, 62, 80
2, 70535, Note_on_c, 1, 53, 0
2, 70535, Note_on_c, 1, 57, 0
2, 70535, Note_on_c, 1, 62, 0
2, 70560, Note_on_c, 1, 53, 80
2, 70560, Note_on_c, 1, 57, 80
2, 70560, Note_on_c, 1, 62, 80
2, 71015, Note_on_c, 1, 53, 0
2, 71015, Note_on_c, 1, 57, 0
2, 71015, Note_on_c, 1, 62, 0
2, 71040, Note_on_c, 1, 53, 80
2, 71040, Note_on_c, 1, 57, 80
2, 71040, Note_on_c, 1, 62, 80
2, 71495, Note_on_c, 1, 53, 0
2, 71495, Note_on_c, 1, 57, 0
2, 71495, Note_on_c, 1, 62, 0
2, 71520, Note_on_c, 1, 53, 80
2, 71520, Note_on_c, 1, 57, 80
2, 71520, Note_on_c, 1, 62, 80
2, 71975, Note_on_c, 1, 53, 0
2, 71975, Note_on_c, 1, 57, 0
2, 71975, Note_on_c, 1, 62, 0
2, 72000, Note_on_c, 1, 53, 80
2, 72000, Note_on_c, 1, 57, 80
2, 72000, Note_on_c, 1, 60, 80
2, 72455, Note_on_c, 1, 53, 0
2, 72455, Note_on_c, 1, 57, 0
2, 72455, Note_on_c, 1, 60, 0
2, 72480, Note_on_c, 1, 53, 80
2, 72480, Note_on_c, 1, 57, 80
2, 72480, Note_on_c, 1, 60, 80
2, 72935, Note_on_c, 1, 53, 0
2, 72935, Note_on_c, 1, 57, 0
2, 72935, Note_on_c, 1, 60, 0
2, 72960, Note_on_c, 1, 55, 80
2, 72960, Note_on_c, 1, 59, 80
2, 72960, Note_on_c, 1, 62, 80
2, 73415, Note_on_c, 1, 55, 0
2, 73415, Note_on_c, 1, 59, 0
2, 73415, Note_on_c, 1, 62, 0
2, 73440, Note_on_c, 1, 55, 80
2, 73440, Note_on_c, 1, 59, 80
2, 73440, Note_on_c, 1, 62, 80
2, 73895, Note_on_c, 1, 55, 0
2, 73895, Note_on_c, 1, 59, 0
2, 73895, Note_on_c, 1, 62, 0
2, 73920, Note_on_c, 1, 55, 80
2, 73920, Note_on_c, 1, 60, 80
2, 73920, Note_on_c, 1, 64, 80
2, 74375, Note_on_c, 1, 55, 0
2, 74375, Note_on_c, 1, 60, 0
2, 74375, Note_on_c, 1, 64, 0
2, 74400, Note_on_c, 1, 55, 80
2, 74400, Note_on_c, 1, 60, 80
2, 74400, Note_on_c, 1, 64, 80
2, 74855, Note_on_c, 1, 55, 0
2, 74855, Note_on_c, 1, 60, 0
2, 74855, Note_on_c, 1, 64, 0
2, 74880, Note_on_c, 1, 55, 80
2, 74880, Note_on_c, 1, 60, 80
2, 74880, Note_on_c, 1, 64, 80
2, 75335, Note_on_c, 1, 55, 0
2, 75335, Note_on_c, 1, 60, 0
2, 75335, Note_on_c, 1, 64, 0
2, 75360, Note_on_c, 1, 55, 80
2, 75360, Note_on_c, 1, 60, 80
2, 75360, Note_on_c, 1, 64, 80
2, 75815, Note_on_c, 1, 55, 0
2, 75815, Note_on_c, 1, 60, 0
2, 75815, Note_on_c, 1, 64, 0
2, 75840, Note_on_c, 1, 55, 80
2, 75840, Note_on_c, 1, 59, 80
2, 75840, Note_on_c, 1, 62, 80
2, 76295, Note_on_c, 1, 55, 0
2, 76295, Note_on_c, 1, 59, 0
2, 76295, Note_on_c, 1, 62, 0
2, 76320, Note_on_c, 1, 55, 80
2, 76320, Note_on_c, 1, 59, 80
2, 76320, Note_on_c, 1, 62, 80
2, 76775, Note_on_c, 1, 55, 0
2, 76775, Note_on_c, 1, 59, 0
2, 76775, Note_on_c, 1, 62, 0
2, 76800, Note_on_c, 1, 55, 80
2, 76800, Note_on_c, 1, 59, 80
2, 76800, Note_on_c, 1, 62, 80
2, 77255, Note_on_c, 1, 55, 0
2, 77255, Note_on_c, 1, 59, 0
2, 77255, Note_on_c, 1, 62, 0
2, 77280, Note_on_c, 1, 55, 80
2, 77280, Note_on_c, 1, 59, 80
2, 77280, Note_on_c, 1, 62, 80
2, 77735, Note_on_c, 1, 55, 0
2, 77735, Note_on_c, 1, 59, 0
2, 77735, Note_on_c, 1, 62, 0
2, 77760, Note_on_c, 1, 53, 80
2, 77760, Note_on_c, 1, 57, 80
2, 77760, Note_on_c, 1, 62, 80
2, 78215, Note_on_c, 1, 53, 0
2, 78215, Note_on_c, 1, 57, 0
2, 78215, Note_on_c, 1, 62, 0
2, 78240, Note_on_c, 1, 53, 80
2, 78240, Note_on_c, 1, 57, 80
2, 78240, Note_on_c, 1, 62, 80
2, 78695, Note_on_c, 1, 53, 0
2, 78695, Note_on_c, 1, 57, 0
2, 78695, Note_on_c, 1, 62, 0
2, 78720, Note_on_c, 1, 53, 80
2, 78720, Note_on_c, 1, 57, 80
2, 78720, Note_on_c, 1, 62, 80
2, 79175, Note_on_c, 1, 53, 0
2, 79175, Note_on_c, 1, 57, 0
2, 79175, Note_on_c, 1, 62, 0
2, 79200, Note_on_c, 1, 53, 80
2, 79200, Note_on_c, 1, 57, 80
2, 79200, Note_on_c, 1, 62, 80
2, 79655, Note_on_c, 1, 53, 0
2, 79655, Note_on_c, 1, 57, 0
2, 79655, Note_on_c, 1, 62, 0
2, 79680, Note_on_c, 1, 53, 80
2, 79680, Note_on_c, 1, 57, 80
2, 79680, Note_on_c, 1, 60, 80
2, 80135, Note_on_c, 1, 53, 0
2, 80135, Note_on_c, 1, 57, 0
2, 80135, Note_on_c, 1, 60, 0
2, 80160, Note_on_c, 1, 53, 80
2, 80160, Note_on_c, 1, 57, 80
2, 80160, Note_on_c, 1, 60, 80
2, 80615, Note_on_c, 1, 53, 0
2, 80615, Note_on_c, 1, 57, 0
2, 80615, Note_on_c, 1, 60, 0
2, 80640, Note_on_c, 1, 55, 80
2, 80640, Note_on_c, 1, 59, 80
2, 80640, Note_on_c, 1, 62, 80
2, 81095, Note_on_c, 1, 55, 0
2, 81095, Note_on_c, 1, 59, 0
2, 81095, Note_on_c, 1, 62, 0
2, 81120, Note_on_c, 1, 55, 80
2, 81120, Note_on_c, 1, 59, 80
2, 81120, Note_on_c, 1, 62, 80
2, 81575, Note_on_c, 1, 55, 0
2, 81575, Note_on_c, 1, 59, 0
2, 81575, Note_on_c, 1, 62, 0
2, 85440, Note_on_c, 1, 55, 80
2, 85440, Note_on_c, 1, 59, 80
2, 85440, Note_on_c, 1, 62, 80
2, 85667, Note_on_c, 1, 55, 0
2, 85667, Note_on_c, 1, 59, 0
2, 85667, Note_on_c, 1, 62, 0
2, 85680, Note_on_c, 1, 59, 80
2, 85680, Note_on_c, 1, 64, 80
2, 85907, Note_on_c, 1, 59, 0
2, 85907, Note_on_c, 1, 64, 0
2, 85920, Note_on_c, 1, 55, 80
2, 85920, Note_on_c, 1, 59, 80
2, 85920, Note_on_c, 1, 62, 80
2, 86147, Note_on_c, 1, 55, 0
2, 86147, Note_on_c, 1, 59, 0
2, 86147, Note_on_c, 1, 62, 0
2, 86160, Note_on_c, 1, 59, 80
2, 86160, Note_on_c, 1, 64, 80
2, 86273, Note_on_c, 1, 59, 0
2, 86273, Note_on_c, 1, 64, 0
2, 86280, Note_on_c, 1, 59, 80
2, 86280, Note_on_c, 1, 62, 80
2, 86507, Note_on_c, 1, 59, 0
2, 86507, Note_on_c, 1, 62, 0
2, 86520, Note_on_c, 1, 59, 80
2, 86520, Note_on_c, 1, 62, 80
2, 86633, Note_on_c, 1, 59, 0
2, 86633, Note_on_c, 1, 62, 0
2, 86640, Note_on_c, 1, 59, 80
2, 86867, Note_on_c, 1, 59, 0
2, 86880, Note_on_c, 1, 55, 80
2, 86880, Note_on_c, 1, 59, 80
2, 87107, Note_on_c, 1, 55, 0
2, 87107, Note_on_c, 1, 59, 0
2, 87120, Note_on_c, 1, 55, 80
2, 87120, Note_on_c, 1, 59, 80
2, 87347, Note_on_c, 1, 55, 0
2, 87347, Note_on_c, 1, 59, 0
2, 87360, Note_on_c, 1, 59, 80
2, 87360, Note_on_c, 1, 62, 80
2, 87587, Note_on_c, 1, 59, 0
2, 87587, Note_on_c, 1, 62, 0
2, 87600, Note_on_c, 1, 59, 80
2, 87600, Note_on_c, 1, 64, 80
2, 87827, Note_on_c, 1, 59, 0
2, 87827, Note_on_c, 1, 64, 0
2, 87840, Note_on_c, 1, 59, 80
2, 87840, Note_on_c, 1, 62, 80
2, 88067, Note_on_c, 1, 59, 0
2, 88067, Note_on_c, 1, 62, 0
2, 88080, Note_on_c, 1, 59, 80
2, 88080, Note_on_c, 1, 64, 80
2, 88193, Note_on_c, 1, 59, 0
2, 88193, Note_on_c, 1, 64, 0
2, 88200, Note_on_c, 1, 59, 80
2, 88200, Note_on_c, 1, 62, 80
2, 88427, Note_on_c, 1, 59, 0
2, 88427, Note_on_c, 1, 62, 0
2, 88440, Note_on_c, 1, 59, 80
2, 88440, Note_on_c, 1, 62, 80
2, 88553, Note_on_c, 1, 59, 0
2, 88553, Note_on_c, 1, 62, 0
2, 88560, Note_on_c, 1, 59, 80
2, 88560, Note_on_c, 1, 64, 80
2, 88787, Note_on_c, 1, 59, 0
2, 88787, Note_on_c, 1, 64, 0
2, 88800, Note_on_c, 1, 59, 80
2, 88800, Note_on_c, 1, 62, 80
2, 89027, Note_on_c, 1, 59, 0
2, 89027, Note_on_c, 1, 62, 0
2, 89040, Note_on_c, 1, 59, 80
2, 89040, Note_on_c, 1, 64, 80
2, 89267, Note_on_c, 1, 59, 0
2, 89267, Note_on_c, 1, 64, 0
2, 89280, Note_on_c, 1, 55, 80
2, 89280, Note_on_c, 1, 60, 80
2, 89280, Note_on_c, 1, 62, 80
2, 89507, Note_on_c, 1, 55, 0
2, 89507, Note_on_c, 1, 60, 0
2, 89507, Note_on_c, 1, 62, 0
2, 89520, Note_on_c, 1, 60, 80
2, 89520, Note_on_c, 1, 64, 80
2, 89747, Note_on_c, 1, 60, 0
2, 89747, Note_on_c, 1, 64, 0
2, 89760, Note_on_c, 1, 55, 80
2, 89760, Note_on_c, 1, 60, 80
2, 89760, Note_on_c, 1, 62, 80
2, 89987, Note_on_c, 1, 55, 0
2, 89987, Note_on_c, 1, 60, 0
2, 89987, Note_on_c, 1, 62, 0
2, 90000, Note_on_c, 1, 60, 80
2, 90000, Note_on_c, 1, 64, 80
2, 90113, Note_on_c, 1, 60, 0
2, 90113, Note_on_c, 1, 64, 0
2, 90120, Note_on_c, 1, 60, 80
2, 90120, Note_on_c, 1, 62, 80
2, 90347, Note_on_c, 1, 60, 0
2, 90347, Note_on_c, 1, 62, 0
2, 90360, Note_on_c, 1, 60, 80
2, 90360, Note_on_c, 1, 62, 80
2, 90473, Note_on_c, 1, 60, 0
2, 90473, Note_on_c, 1, 62, 0
2, 90480, Note_on_c, 1, 60, 80
2, 90480, Note_on_c, 1, 64, 80
2, 90707, Note_on_c, 1, 60, 0
2, 90707, Note_on_c, 1, 64, 0
2, 90720, Note_on_c, 1, 55, 80
2, 90720, Note_on_c, 1, 60, 80
2, 90720, Note_on_c, 1, 62, 80
2, 90947, Note_on_c, 1, 55, 0
2, 90947, Note_on_c, 1, 60, 0
2, 90947, Note_on_c, 1, 62, 0
2, 90960, Note_on_c, 1, 60, 80
2, 90960, Note_on_c, 1, 64, 80
2, 91187, Note_on_c, 1, 60, 0
2, 91187, Note_on_c, 1, 64, 0
2, 91200, Note_on_c, 1, 55, 80
2, 91200, Note_on_c, 1, 59, 80
2, 91200, Note_on_c, 1, 62, 80
2, 91427, Note_on_c, 1, 55, 0
2, 91427, Note_on_c, 1, 59, 0
2, 91427, Note_on_c, 1, 62, 0
2, 91440, Note_on_c, 1, 59, 80
2, 91440, Note_on_c, 1, 64, 80
2, 91667, Note_on_c, 1, 59, 0
2, 91667, Note_on_c, 1, 64, 0
2, 91680, Note_on_c, 1, 55, 80
2, 91680, Note_on_c, 1, 59, 80
2, 91680, Note_on_c, 1, 62, 80
2, 91907, Note_on_c, 1, 55, 0
2, 91907, Note_on_c, 1, 59, 0
2, 91907, Note_on_c, 1, 62, 0
2, 91920, Note_on_c, 1, 59, 80
2, 91920, Note_on_c, 1, 64, 80
2, 92033, Note_on_c, 1, 59, 0
2, 92033, Note_on_c, 1, 64, 0
2, 92040, Note_on_c, 1, 57, 80
2, 92040, Note_on_c, 1, 62, 80
2, 92267, Note_on_c, 1, 57, 0
2, 92267, Note_on_c, 1, 62, 0
2, 92280, Note_on_c, 1, 57, 80
2, 92280, Note_on_c, 1, 62, 80
2, 92393, Note_on_c, 1, 57, 0
2, 92393, Note_on_c, 1, 62, 0
2, 92400, Note_on_c, 1, 57, 80
2, 92400, Note_on_c, 1, 64, 80
2, 92627, Note_on_c, 1, 57, 0
2, 92627, Note_on_c, 1, 64, 0
2, 92640, Note_on_c, 1, 57, 80
2, 92640, Note_on_c, 1, 62, 80
2, 92867, Note_on_c, 1, 57, 0
2, 92867, Note_on_c, 1, 62, 0
2, 92880, Note_on_c, 1, 57, 80
2, 92880, Note_on_c, 1, 64, 80
2, 93107, Note_on_c, 1, 57, 0
2, 93107, Note_on_c, 1, 64, 0
2, 93120, Note_on_c, 1, 55, 80
2, 93120, Note_on_c, 1, 59, 80
2, 93120, Note_on_c, 1, 62, 80
2, 93347, Note_on_c, 1, 55, 0
2, 93347, Note_on_c, 1, 59, 0
2, 93347, Note_on_c, 1, 62, 0
2, 93360, Note_on_c, 1, 59, 80
2, 93360, Note_on_c, 1, 64, 80
2, 93587, Note_on_c, 1, 59, 0
2, 93587, Note_on_c, 1, 64, 0
2, 93600, Note_on_c, 1, 55, 80
2, 93600, Note_on_c, 1, 59, 80
2, 93600, Note_on_c, 1, 62, 80
2, 93827, Note_on_c, 1, 55, 0
2, 93827, Note_on_c, 1, 59, 0
2, 93827, Note_on_c, 1, 62, 0
2, 93840, Note_on_c, 1, 59, 80
2, 93840, Note_on_c, 1, 64, 80
2, 93953, Note_on_c, 1, 59, 0
2, 93953, Note_on_c, 1, 64, 0
2, 93960, Note_on_c, 1, 59, 80
2, 93960, Note_on_c, 1, 62, 80
2, 94187, Note_on_c, 1, 59, 0
2, 94187, Note_on_c, 1, 62, 0
2, 94200, Note_on_c, 1, 59, 80
2, 94200, Note_on_c, 1, 62, 80
2, 94313, Note_on_c, 1, 59, 0
2, 94313, Note_on_c, 1, 62, 0
2, 94320, Note_on_c, 1, 59, 80
2, 94320, Note_on_c, 1, 64, 80
2, 94547, Note_on_c, 1, 59, 0
2, 94547, Note_on_c, 1, 64, 0
2, 94560, Note_on_c, 1, 55, 80
2, 94560, Note_on_c, 1, 59, 80
2, 94560, Note_on_c, 1, 62, 80
2, 94787, Note_on_c, 1, 55, 0
2, 94787, Note_on_c, 1, 59, 0
2, 94787, Note_on_c, 1, 62, 0
2, 94800, Note_on_c, 1, 59, 80
2, 94800, Note_on_c, 1, 64, 80
2, 95027, Note_on_c, 1, 59, 0
2, 95027, Note_on_c, 1, 64, 0
2, 95040, Note_on_c, 1, 59, 80
2, 95040, Note_on_c, 1, 62, 80
2, 95267, Note_on_c, 1, 59, 0
2, 95267, Note_on_c, 1, 62, 0
2, 95280, Note_on_c, 1, 59, 80
2, 95280, Note_on_c, 1, 64, 80
2, 95507, Note_on_c, 1, 59, 0
2, 95507, Note_on_c, 1, 64, 0
2, 95520, Note_on_c, 1, 59, 80
2, 95520, Note_on_c, 1, 62, 80
2, 95747, Note_on_c, 1, 59, 0
2, 95747, Note_on_c, 1, 62, 0
2, 95760, Note_on_c, 1, 59, 80
2, 95760, Note_on_c, 1, 64, 80
2, 95873, Note_on_c, 1, 59, 0
2, 95873, Note_on_c, 1, 64, 0
2, 95880, Note_on_c, 1, 59, 80
2, 95880, Note_on_c, 1, 62, 80
2, 96107, Note_on_c, 1, 59, 0
2, 96107, Note_on_c, 1, 62, 0
2, 96120, Note_on_c, 1, 59, 80
2, 96120, Note_on_c, 1, 62, 80
2, 96233, Note_on_c, 1, 59, 0
2, 96233, Note_on_c, 1, 62, 0
2, 96240, Note_on_c, 1, 59, 80
2, 96467, Note_on_c, 1, 59, 0
2, 96480, Note_on_c, 1, 59, 80
2, 96480, Note_on_c, 1, 62, 80
2, 96707, Note_on_c, 1, 59, 0
2, 96707, Note_on_c, 1, 62, 0
2, 96720, Note_on_c, 1, 59, 80
2, 96947, Note_on_c, 1, 59, 0
2, 96960, Note_on_c, 1, 55, 80
2, 96960, Note_on_c, 1, 60, 80
2, 96960, Note_on_c, 1, 62, 80
2, 97187, Note_on_c, 1, 55, 0
2, 97187, Note_on_c, 1, 60, 0
2, 97187, Note_on_c, 1, 62, 0
2, 97200, Note_on_c, 1, 60, 80
2, 97200, Note_on_c, 1, 64, 80
2, 97427, Note_on_c, 1, 60, 0
2, 97427, Note_on_c, 1, 64, 0
2, 97440, Note_on_c, 1, 55, 80
2, 97440, Note_on_c, 1, 60, 80
2, 97440, Note_on_c, 1, 62, 80
2, 97667, Note_on_c, 1, 55, 0
2, 97667, Note_on_c, 1, 60, 0
2, 97667, Note_on_c, 1, 62, 0
2, 97680, Note_on_c, 1, 60, 80
2, 97680, Note_on_c, 1, 64, 80
2, 97793, Note_on_c, 1, 60, 0
2, 97793, Note_on_c, 1, 64, 0
2, 97800, Note_on_c, 1, 60, 80
2, 97800, Note_on_c, 1, 62, 80
2, 98027, Note_on_c, 1, 60, 0
2, 98027, Note_on_c, 1, 62, 0
2, 98040, Note_on_c, 1, 60, 80
2, 98040, Note_on_c, 1, 62, 80
2, 98153, Note_on_c, 1, 60, 0
2, 98153, Note_on_c, 1, 62, 0
2, 98160, Note_on_c, 1, 60, 80
2, 98160, Note_on_c, 1, 64, 80
2, 98387, Note_on_c, 1, 60, 0
2, 98387, Note_on_c, 1, 64, 0
2, 98400, Note_on_c, 1, 55, 80
2, 98400, Note_on_c, 1, 60, 80
2, 98400, Note_on_c, 1, 62, 80
2, 98627, Note_on_c, 1, 55, 0
2, 98627, Note_on_c, 1, 60, 0
2, 98627, Note_on_c, 1, 62, 0
2, 98640, Note_on_c, 1, 60, 80
2, 98640, Note_on_c, 1, 64, 80
2, 98867, Note_on_c, 1, 60, 0
2, 98867, Note_on_c, 1, 64, 0
2, 98880, Note_on_c, 1, 55, 80
2, 98880, Note_on_c, 1, 59, 80
2, 98880, Note_on_c, 1, 62, 80
2, 99107, Note_on_c, 1, 55, 0
2, 99107, Note_on_c, 1, 59, 0
2, 99107, Note_on_c, 1, 62, 0
2, 99120, Note_on_c, 1, 59, 80
2, 99120, Note_on_c, 1, 64, 80
2, 99347, Note_on_c, 1, 59, 0
2, 99347, Note_on_c, 1, 64, 0
2, 99360, Note_on_c, 1, 55, 80
2, 99360, Note_on_c, 1, 59, 80
2, 99360, Note_on_c, 1, 62, 80
2, 99587, Note_on_c, 1, 55, 0
2, 99587, Note_on_c, 1, 59, 0
2, 99587, Note_on_c, 1, 62, 0
2, 99600, Note_on_c, 1, 59, 80
2, 99600, Note_on_c, 1, 64, 80
2, 99713, Note_on_c, 1, 59, 0
2, 99713, Note_on_c, 1, 64, 0
2, 99720, Note_on_c, 1, 57, 80
2, 99720, Note_on_c, 1, 62, 80
2, 99947, Note_on_c, 1, 57, 0
2, 99947, Note_on_c, 1, 62, 0
2, 99960, Note_on_c, 1, 57, 80
2, 99960, Note_on_c, 1, 62, 80
2, 100073, Note_on_c, 1, 57, 0
2, 100073, Note_on_c, 1, 62, 0
2, 100080, Note_on_c, 1, 57, 80
2, 100080, Note_on_c, 1, 64, 80
2, 100307, Note_on_c, 1, 57, 0
2, 100307, Note_on_c, 1, 64, 0
2, 100320, Note_on_c, 1, 57, 80
2, 100320, Note_on_c, 1, 62, 80
2, 100547, Note_on_c, 1, 57, 0
2, 100547, Note_on_c, 1, 62, 0
2, 100560, Note_on_c, 1, 57, 80
2, 100560, Note_on_c, 1, 64, 80
2, 100787, Note_on_c, 1, 57, 0
2, 100787, Note_on_c, 1, 64, 0
2, 100800, Note_on_c, 1, 55, 80
2, 100800, Note_on_c, 1, 59, 80
2, 100800, Note_on_c, 1, 62, 80
2, 101027, Note_on_c, 1, 55, 0
2, 101027, Note_on_c, 1, 59, 0
2, 101027, Note_on_c, 1, 62, 0
2, 101040, Note_on_c, 1, 59, 80
2, 101040, Note_on_c, 1, 64, 80
2, 101267, Note_on_c, 1, 59, 0
2, 101267, Note_on_c, 1, 64, 0
2, 101280, Note_on_c, 1, 55, 80
2, 101280, Note_on_c, 1, 59, 80
2, 101280, Note_on_c, 1, 62, 80
2, 101507, Note_on_c, 1, 55, 0
2, 101507, Note_on_c, 1, 59, 0
2, 101507, Note_on_c, 1, 62, 0
2, 101520, Note_on_c, 1, 59, 80
2, 101520, Note_on_c, 1, 64, 80
2, 101633, Note_on_c, 1, 59, 0
2, 101633, Note_on_c, 1, 64, 0
2, 101640, Note_on_c, 1, 59, 80
2, 101640, Note_on_c, 1, 62, 80
2, 101867, Note_on_c, 1, 59, 0
2, 101867, Note_on_c, 1, 62, 0
2, 101880, Note_on_c, 1, 59, 80
2, 101880, Note_on_c, 1, 62, 80
2, 101993, Note_on_c, 1, 59, 0
2, 101993, Note_on_c, 1, 62, 0
2, 102000, Note_on_c, 1, 59, 80
2, 102227, Note_on_c, 1, 59, 0
2, 102240, Note_on_c, 1, 55, 80
2, 102240, Note_on_c, 1, 59, 80
2, 102467, Note_on_c, 1, 55, 0
2, 102467, Note_on_c, 1, 59, 0
2, 102480, Note_on_c, 1, 55, 80
2, 102480, Note_on_c, 1, 59, 80
2, 102707, Note_on_c, 1, 55, 0
2, 102707, Note_on_c, 1, 59, 0
2, 102720, Note_on_c, 1, 59, 80
2, 102720, Note_on_c, 1, 62, 80
2, 102947, Note_on_c, 1, 59, 0
2, 102947, Note_on_c, 1, 62, 0
2, 102960, Note_on_c, 1, 59, 80
2, 102960, Note_on_c, 1, 64, 80
2, 103187, Note_on_c, 1, 59, 0
2, 103187, Note_on_c, 1, 64, 0
2, 103200, Note_on_c, 1, 59, 80
2, 103200, Note_on_c, 1, 62, 80
2, 103427, Note_on_c, 1, 59, 0
2, 103427, Note_on_c, 1, 62, 0
2, 103440, Note_on_c, 1, 59, 80
2, 103440, Note_on_c, 1, 64, 80
2, 103553, Note_on_c, 1, 59, 0
2, 103553, Note_on_c, 1, 64, 0
2, 103560, Note_on_c, 1, 59, 80
2, 103560, Note_on_c, 1, 62, 80
2, 103787, Note_on_c, 1, 59, 0
2, 103787, Note_on_c, 1, 62, 0
2, 103800, Note_on_c, 1, 59, 80
2, 103800, Note_on_c, 1, 62, 80
2, 103913, Note_on_c, 1, 59, 0
2, 103913, Note_on_c, 1, 62, 0
2, 103920, Note_on_c, 1, 59, 80
2, 103920, Note_on_c, 1, 64, 80
2, 104147, Note_on_c, 1, 59, 0
2, 104147, Note_on_c, 1, 64, 0
2, 104160, Note_on_c, 1, 59, 80
2, 104160, Note_on_c, 1, 62, 80
2, 104387, Note_on_c, 1, 59, 0
2, 104387, Note_on_c, 1, 62, 0
2, 104400, Note_on_c, 1, 59, 80
2, 104400, Note_on_c, 1, 64, 80
2, 104627, Note_on_c, 1, 59, 0
2, 104627, Note_on_c, 1, 64, 0
2, 104640, Note_on_c, 1, 55, 80
2, 104640, Note_on_c, 1, 60, 80
2, 104640, Note_on_c, 1, 62, 80
2, 104867, Note_on_c, 1, 55, 0
2, 104867, Note_on_c, 1, 60, 0
2, 104867, Note_on_c, 1, 62, 0
2, 104880, Note_on_c, 1, 60, 80
2, 104880, Note_on_c, 1, 64, 80
2, 105107, Note_on_c, 1, 60, 0
2, 105107, Note_on_c, 1, 64, 0
2, 105120, Note_on_c, 1, 55, 80
2, 105120, Note_on_c, 1, 60, 80
2, 105120, Note_on_c, 1, 62, 80
2, 105347, Note_on_c, 1, 55, 0
2, 105347, Note_on_c, 1, 60, 0
2, 105347, Note_on_c, 1, 62, 0
2, 105360, Note_on_c, 1, 60, 80
2, 105360, Note_on_c, 1, 64, 80
2, 105473, Note_on_c, 1, 60, 0
2, 105473, Note_on_c, 1, 64, 0
2, 105480, Note_on_c, 1, 60, 80
2, 105480, Note_on_c, 1, 62, 80
2, 105707, Note_on_c, 1, 60, 0
2, 105707, Note_on_c, 1, 62, 0
2, 105720, Note_on_c, 1, 60, 80
2, 105720, Note_on_c, 1, 62, 80
2, 105833, Note_on_c, 1, 60, 0
2, 105833, Note_on_c, 1, 62, 0
2, 105840, Note_on_c, 1, 60, 80
2, 105840, Note_on_c, 1, 64, 80
2, 106067, Note_on_c, 1, 60, 0
2, 106067, Note_on_c, 1, 64, 0
2, 106080, Note_on_c, 1, 55, 80
2, 106080, Note_on_c, 1, 60, 80
2, 106080, Note_on_c, 1, 62, 80
2, 106307, Note_on_c, 1, 55, 0
2, 106307, Note_on_c, 1, 60, 0
2, 106307, Note_on_c, 1, 62, 0
2, 106320, Note_on_c, 1, 60, 80
2, 106320, Note_on_c, 1, 64, 80
2, 106547, Note_on_c, 1, 60, 0
2, 106547, Note_on_c, 1, 64, 0
2, 106560, Note_on_c, 1, 55, 80
2, 106560, Note_on_c, 1, 59, 80
2, 106560, Note_on_c, 1, 62, 80
2, 106787, Note_on_c, 1, 55, 0
2, 106787, Note_on_c, 1, 59, 0
2, 106787, Note_on_c, 1, 62, 0
2, 106800, Note_on_c, 1, 59, 80
2, 106800, Note_on_c, 1, 64, 80
2, 107027, Note_on_c, 1, 59, 0
2, 107027, Note_on_c, 1, 64, 0
2, 107040, Note_on_c, 1, 55, 80
2, 107040, Note_on_c, 1, 59, 80
2, 107040, Note_on_c, 1, 62, 80
2, 107267, Note_on_c, 1, 55, 0
2, 107267, Note_on_c, 1, 59, 0
2, 107267, Note_on_c, 1, 62, 0
2, 107280, Note_on_c, 1, 59, 80
2, 107280, Note_on_c, 1, 64, 80
2, 107393, Note_on_c, 1, 59, 0
2, 107393, Note_on_c, 1, 64, 0
2, 107400, Note_on_c, 1, 57, 80
2, 107400, Note_on_c, 1, 62, 80
2, 107627, Note_on_c, 1, 57, 0
2, 107627, Note_on_c, 1, 62, 0
2, 107640, Note_on_c, 1, 57, 80
2, 107640, Note_on_c, 1, 62, 80
2, 107753, Note_on_c, 1, 57, 0
2, 107753, Note_on_c, 1, 62, 0
2, 107760, Note_on_c, 1, 57, 80
2, 107760, Note_on_c, 1, 64, 80
2, 107987, Note_on_c, 1, 57, 0
2, 107987, Note_on_c, 1, 64, 0
2, 108000, Note_on_c, 1, 57, 80
2, 108000, Note_on_c, 1, 62, 80
2, 108227, Note_on_c, 1, 57, 0
2, 108227, Note_on_c, 1, 62, 0
2, 108240, Note_on_c, 1, 57, 80
2, 108240, Note_on_c, 1, 64, 80
2, 108467, Note_on_c, 1, 57, 0
2, 108467, Note_on_c, 1, 64, 0
2, 108480, Note_on_c, 1, 55, 80
2, 108480, Note_on_c, 1, 59, 80
2, 108707, Note_on_c, 1, 55, 0
2, 108707, Note_on_c, 1, 59, 0
2, 108720, Note_on_c, 1, 59, 80
2, 108720, Note_on_c, 1, 64, 80
2, 108947, Note_on_c, 1, 59, 0
2, 108947, Note_on_c, 1, 64, 0
2, 108960, Note_on_c, 1, 55, 80
2, 108960, Note_on_c, 1, 59, 80
2, 108960, Note_on_c, 1, 62, 80
2, 109187, Note_on_c, 1, 55, 0
2, 109187, Note_on_c, 1, 59, 0
2, 109187, Note_on_c, 1, 62, 0
2, 109200, Note_on_c, 1, 59, 80
2, 109200, Note_on_c, 1, 64, 80
2, 109313, Note_on_c, 1, 59, 0
2, 109313, Note_on_c, 1, 64, 0
2, 109320, Note_on_c, 1, 59, 80
2, 109320, Note_on_c, 1, 62, 80
2, 109547, Note_on_c, 1, 59, 0
2, 109547, Note_on_c, 1, 62, 0
2, 109560, Note_on_c, 1, 59, 80
2, 109560, Note_on_c, 1, 62, 80
2, 109673, Note_on_c, 1, 59, 0
2, 109673, Note_on_c, 1, 62, 0
2, 109680, Note_on_c, 1, 59, 80
2, 109680, Note_on_c, 1, 64, 80
2, 109907, Note_on_c, 1, 59, 0
2, 109907, Note_on_c, 1, 64, 0
2, 109920, Note_on_c, 1, 55, 80
2, 109920, Note_on_c, 1, 59, 80
2, 109920, Note_on_c, 1, 62, 80
2, 110147, Note_on_c, 1, 55, 0
2, 110147, Note_on_c, 1, 59, 0
2, 110147, Note_on_c, 1, 62, 0
2, 110160, Note_on_c, 1, 55, 80
2, 110160, Note_on_c, 1, 59, 80
2, 110387, Note_on_c, 1, 55, 0
2, 110387, Note_on_c, 1, 59, 0
2, 110400, Note_on_c, 1, 59, 80
2, 110627, Note_on_c, 1, 59, 0
2, 110640, Note_on_c, 1, 59, 80
2, 110640, Note_on_c, 1, 64, 80
2, 110867, Note_on_c, 1, 59, 0
2, 110867, Note_on_c, 1, 64, 0
2, 110880, Note_on_c, 1, 59, 80
2, 110880, Note_on_c, 1, 62, 80
2, 111107, Note_on_c, 1, 59, 0
2, 111107, Note_on_c, 1, 62, 0
2, 111120, Note_on_c, 1, 59, 80
2, 111120, Note_on_c, 1, 64, 80
2, 111233, Note_on_c, 1, 59, 0
2, 111233, Note_on_c, 1, 64, 0
2, 111240, Note_on_c, 1, 59, 80
2, 111240, Note_on_c, 1, 62, 80
2, 111467, Note_on_c, 1, 59, 0
2, 111467, Note_on_c, 1, 62, 0
2, 111480, Note_on_c, 1, 59, 80
2, 111480, Note_on_c, 1, 62, 80
2, 111593, Note_on_c, 1, 59, 0
2, 111593, Note_on_c, 1, 62, 0
2, 111600, Note_on_c, 1, 59, 80
2, 111600, Note_on_c, 1, 64, 80
2, 111827, Note_on_c, 1, 59, 0
2, 111827, Note_on_c, 1, 64, 0
2, 111840, Note_on_c, 1, 59, 80
2, 111840, Note_on_c, 1, 62, 80
2, 112067, Note_on_c, 1, 59, 0
2, 112067, Note_on_c, 1, 62, 0
2, 112080, Note_on_c, 1, 59, 80
2, 112080, Note_on_c, 1, 64, 80
2, 112307, Note_on_c, 1, 59, 0
2, 112307, Note_on_c, 1, 64, 0
2, 112320, Note_on_c, 1, 55, 80
2, 112320, Note_on_c, 1, 60, 80
2, 112320, Note_on_c, 1, 62, 80
2, 112547, Note_on_c, 1, 55, 0
2, 112547, Note_on_c, 1, 60, 0
2, 112547, Note_on_c, 1, 62, 0
2, 112560, Note_on_c, 1, 60, 80
2, 112560, Note_on_c, 1, 64, 80
2, 112787, Note_on_c, 1, 60, 0
2, 112787, Note_on_c, 1, 64, 0
2, 112800, Note_on_c, 1, 55, 80
2, 112800, Note_on_c, 1, 60, 80
2, 112800, Note_on_c, 1, 62, 80
2, 113027, Note_on_c, 1, 55, 0
2, 113027, Note_on_c, 1, 60, 0
2, 113027, Note_on_c, 1, 62, 0
2, 113040, Note_on_c, 1, 60, 80
2, 113040, Note_on_c, 1, 64, 80
2, 113153, Note_on_c, 1, 60, 0
2, 113153, Note_on_c, 1, 64, 0
2, 113160, Note_on_c, 1, 60, 80
2, 113160, Note_on_c, 1, 62, 80
2, 113387, Note_on_c, 1, 60, 0
2, 113387, Note_on_c, 1, 62, 0
2, 113400, Note_on_c, 1, 60, 80
2, 113400, Note_on_c, 1, 62, 80
2, 113513, Note_on_c, 1, 60, 0
2, 113513, Note_on_c, 1, 62, 0
2, 113520, Note_on_c, 1, 60, 80
2, 113520, Note_on_c, 1, 64, 80
2, 113747, Note_on_c, 1, 60, 0
2, 113747, Note_on_c, 1, 64, 0
2, 113760, Note_on_c, 1, 55, 80
2, 113760, Note_on_c, 1, 60, 80
2, 113760, Note_on_c, 1, 62, 80
2, 113987, Note_on_c, 1, 55, 0
2, 113987, Note_on_c, 1, 60, 0
2, 113987, Note_on_c, 1, 62, 0
2, 114000, Note_on_c, 1, 60, 80
2, 114000, Note_on_c, 1, 64, 80
2, 114227, Note_on_c, 1, 60, 0
2, 114227, Note_on_c, 1, 64, 0
2, 114240, Note_on_c, 1, 55, 80
2, 114240, Note_on_c, 1, 59, 80
2, 114240, Note_on_c, 1, 62, 80
2, 114467, Note_on_c, 1, 55, 0
2, 114467, Note_on_c, 1, 59, 0
2, 114467, Note_on_c, 1, 62, 0
2, 114480, Note_on_c, 1, 59, 80
2, 114480, Note_on_c, 1, 64, 80
2, 114707, Note_on_c, 1, 59, 0
2, 114707, Note_on_c, 1, 64, 0
2, 114720, Note_on_c, 1, 55, 80
2, 114720, Note_on_c, 1, 59, 80
2, 114720, Note_on_c, 1, 62, 80
2, 114947, Note_on_c, 1, 55, 0
2, 114947, Note_on_c, 1, 59, 0
2, 114947, Note_on_c, 1, 62, 0
2, 114960, Note_on_c, 1, 59, 80
2, 114960, Note_on_c, 1, 64, 80
2, 115073, Note_on_c, 1, 59, 0
2, 115073, Note_on_c, 1, 64, 0
2, 115080, Note_on_c, 1, 57, 80
2, 115080, Note_on_c, 1, 62, 80
2, 115307, Note_on_c, 1, 57, 0
2, 115307, Note_on_c, 1, 62, 0
2, 115320, Note_on_c, 1, 57, 80
2, 115320, Note_on_c, 1, 62, 80
2, 115433, Note_on_c, 1, 57, 0
2, 115433, Note_on_c, 1, 62, 0
2, 115440, Note_on_c, 1, 57, 80
2, 115440, Note_on_c, 1, 64, 80
2, 115667, Note_on_c, 1, 57, 0
2, 115667, Note_on_c, 1, 64, 0
2, 115680, Note_on_c, 1, 57, 80
2, 115680, Note_on_c, 1, 62, 80
2, 115907, Note_on_c, 1, 57, 0
2, 115907, Note_on_c, 1, 62, 0
2, 115920, Note_on_c, 1, 57, 80
2, 115920, Note_on_c, 1, 64, 80
2, 116147, Note_on_c, 1, 57, 0
2, 116147, Note_on_c, 1, 64, 0
2, 116160, Note_on_c, 1, 55, 80
2, 116160, Note_on_c, 1, 59, 80
2, 116387, Note_on_c, 1, 55, 0
2, 116387, Note_on_c, 1, 59, 0
2, 116400, Note_on_c, 1, 59, 80
2, 116400, Note_on_c, 1, 64, 80
2, 116627, Note_on_c, 1, 59, 0
2, 116627, Note_on_c, 1, 64, 0
2, 116640, Note_on_c, 1, 55, 80
2, 116640, Note_on_c, 1, 59, 80
2, 116640, Note_on_c, 1, 62, 80
2, 116867, Note_on_c, 1, 55, 0
2, 116867, Note_on_c, 1, 59, 0
2, 116867, Note_on_c, 1, 62, 0
2, 116880, Note_on_c, 1, 59, 80
2, 116880, Note_on_c, 1, 64, 80
2, 116993, Note_on_c, 1, 59, 0
2, 116993, Note_on_c, 1, 64, 0
2, 117000, Note_on_c, 1, 59, 80
2, 117000, Note_on_c, 1, 62, 80
2, 117227, Note_on_c, 1, 59, 0
2, 117227, Note_on_c, 1, 62, 0
2, 117240, Note_on_c, 1, 59, 80
2, 117240, Note_on_c, 1, 62, 80
2, 117353, Note_on_c, 1, 59, 0
2, 117353, Note_on_c, 1, 62, 0
2, 117360, Note_on_c, 1, 59, 80
2, 117587, Note_on_c, 1, 59, 0
2, 117600, Note_on_c, 1, 55, 80
2, 117600, Note_on_c, 1, 59, 80
2, 117600, Note_on_c, 1, 62, 80
2, 117827, Note_on_c, 1, 55, 0
2, 117827, Note_on_c, 1, 59, 0
2, 117827, Note_on_c, 1, 62, 0
2, 117840, Note_on_c, 1, 55, 80
2, 117840, Note_on_c, 1, 59, 80
2, 117840, Note_on_c, 1, 64, 80
2, 118067, Note_on_c, 1, 55, 0
2, 118067, Note_on_c, 1, 59, 0
2, 118067, Note_on_c, 1, 64, 0
2, 118080, Note_on_c, 1, 59, 80
2, 118307, Note_on_c, 1, 59, 0
2, 118320, Note_on_c, 1, 59, 80
2, 118320, Note_on_c, 1, 64, 80
2, 118547, Note_on_c, 1, 59, 0
2, 118547, Note_on_c, 1, 64, 0
2, 118560, Note_on_c, 1, 59, 80
2, 118560, Note_on_c, 1, 62, 80
2, 118787, Note_on_c, 1, 59, 0
2, 118787, Note_on_c, 1, 62, 0
2, 118800, Note_on_c, 1, 59, 80
2, 118800, Note_on_c, 1, 64, 80
2, 118913, Note_on_c, 1, 59, 0
2, 118913, Note_on_c, 1, 64, 0
2, 118920, Note_on_c, 1, 59, 80
2, 118920, Note_on_c, 1, 62, 80
2, 119147, Note_on_c, 1, 59, 0
2, 119147, Note_on_c, 1, 62, 0
2, 119160, Note_on_c, 1, 59, 80
2, 119160, Note_on_c, 1, 62, 80
2, 119273, Note_on_c, 1, 59, 0
2, 119273, Note_on_c, 1, 62, 0
2, 119280, Note_on_c, 1, 59, 80
2, 119280, Note_on_c, 1, 64, 80
2, 119507, Note_on_c, 1, 59, 0
2, 119507, Note_on_c, 1, 64, 0
2, 119520, Note_on_c, 1, 59, 80
2, 119520, Note_on_c, 1, 62, 80
2, 119747, Note_on_c, 1, 59, 0
2, 119747, Note_on_c, 1, 62, 0
2, 119760, Note_on_c, 1, 59, 80
2, 119760, Note_on_c, 1, 64, 80
2, 119987, Note_on_c, 1, 59, 0
2, 119987, Note_on_c, 1, 64, 0
2, 120000, Note_on_c, 1, 55, 80
2, 120000, Note_on_c, 1, 60, 80
2, 120000, Note_on_c, 1, 62, 80
2, 120227, Note_on_c, 1, 55, 0
2, 120227, Note_on_c, 1, 60, 0
2, 120227, Note_on_c, 1, 62, 0
2, 120240, Note_on_c, 1, 60, 80
2, 120240, Note_on_c, 1, 64, 80
2, 120467, Note_on_c, 1, 60, 0
2, 120467, Note_on_c, 1, 64, 0
2, 120480, Note_on_c, 1, 55, 80
2, 120480, Note_on_c, 1, 60, 80
2, 120480, Note_on_c, 1, 62, 80
2, 120707, Note_on_c, 1, 55, 0
2, 120707, Note_on_c, 1, 60, 0
2, 120707, Note_on_c, 1, 62, 0
2, 120720, Note_on_c, 1, 60, 80
2, 120720, Note_on_c, 1, 64, 80
2, 120833, Note_on_c, 1, 60, 0
2, 120833, Note_on_c, 1, 64, 0
2, 120840, Note_on_c, 1, 60, 80
2, 120840, Note_on_c, 1, 62, 80
2, 121067, Note_on_c, 1, 60, 0
2, 121067, Note_on_c, 1, 62, 0
2, 121080, Note_on_c, 1, 60, 80
2, 121080, Note_on_c, 1, 62, 80
2, 121193, Note_on_c, 1, 60, 0
2, 121193, Note_on_c, 1, 62, 0
2, 121200, Note_on_c, 1, 60, 80
2, 121200, Note_on_c, 1, 64, 80
2, 121427, Note_on_c, 1, 60, 0
2, 121427, Note_on_c, 1, 64, 0
2, 121440, Note_on_c, 1, 55, 80
2, 121440, Note_on_c, 1, 60, 80
2, 121440, Note_on_c, 1, 62, 80
2, 121667, Note_on_c, 1, 55, 0
2, 121667, Note_on_c, 1, 60, 0
2, 121667, Note_on_c, 1, 62, 0
2, 121680, Note_on_c, 1, 60, 80
2, 121680, Note_on_c, 1, 64, 80
2, 121907, Note_on_c, 1, 60, 0
2, 121907, Note_on_c, 1, 64, 0
2, 121920, Note_on_c, 1, 55, 80
2, 121920, Note_on_c, 1, 59, 80
2, 121920, Note_on_c, 1, 62, 80
2, 122147, Note_on_c, 1, 55, 0
2, 122147, Note_on_c, 1, 59, 0
2, 122147, Note_on_c, 1, 62, 0
2, 122160, Note_on_c, 1, 59, 80
2, 122160, Note_on_c, 1, 64, 80
2, 122387, Note_on_c, 1, 59, 0
2, 122387, Note_on_c, 1, 64, 0
2, 122400, Note_on_c, 1, 55, 80
2, 122400, Note_on_c, 1, 59, 80
2, 122400, Note_on_c, 1, 62, 80
2, 122627, Note_on_c, 1, 55, 0
2, 122627, Note_on_c, 1, 59, 0
2, 122627, Note_on_c, 1, 62, 0
2, 122640, Note_on_c, 1, 59, 80
2, 122640, Note_on_c, 1, 64, 80
2, 122753, Note_on_c, 1, 59, 0
2, 122753, Note_on_c, 1, 64, 0
2, 122760, Note_on_c, 1, 57, 80
2, 122987, Note_on_c, 1, 57, 0
2, 123000, Note_on_c, 1, 57, 80
2, 123113, Note_on_c, 1, 57, 0
2, 123120, Note_on_c, 1, 57, 80
2, 123347, Note_on_c, 1, 57, 0
2, 123360, Note_on_c, 1, 57, 80
2, 123360, Note_on_c, 1, 62, 80
2, 123587, Note_on_c, 1, 57, 0
2, 123587, Note_on_c, 1, 62, 0
2, 123600, Note_on_c, 1, 57, 80
2, 123827, Note_on_c, 1, 57, 0
2, 123840, Note_on_c, 1, 55, 80
2, 123840, Note_on_c, 1, 59, 80
2, 123840, Note_on_c, 1, 62, 80
2, 124067, Note_on_c, 1, 55, 0
2, 124067, Note_on_c, 1, 59, 0
2, 124067, Note_on_c, 1, 62, 0
2, 124080, Note_on_c, 1, 59, 80
2, 124080, Note_on_c, 1, 64, 80
2, 124307, Note_on_c, 1, 59, 0
2, 124307, Note_on_c, 1, 64, 0
2, 124320, Note_on_c, 1, 55, 80
2, 124320, Note_on_c, 1, 59, 80
2, 124320, Note_on_c, 1, 62, 80
2, 124547, Note_on_c, 1, 55, 0
2, 124547, Note_on_c, 1, 59, 0
2, 124547, Note_on_c, 1, 62, 0
2, 124560, Note_on_c, 1, 59, 80
2, 124560, Note_on_c, 1, 64, 80
2, 124673, Note_on_c, 1, 59, 0
2, 124673, Note_on_c, 1, 64, 0
2, 124680, Note_on_c, 1, 59, 80
2, 124680, Note_on_c, 1, 62, 80
2, 124907, Note_on_c, 1, 59, 0
2, 124907, Note_on_c, 1, 62, 0
2, 124920, Note_on_c, 1, 59, 80
2, 124920, Note_on_c, 1, 62, 80
2, 125033, Note_on_c, 1, 59, 0
2, 125033, Note_on_c, 1, 62, 0
2, 125040, Note_on_c, 1, 59, 80
2, 125040, Note_on_c, 1, 64, 80
2, 125267, Note_on_c, 1, 59, 0
2, 125267, Note_on_c, 1, 64, 0
2, 125280, Note_on_c, 1, 55, 80
2, 125280, Note_on_c, 1, 59, 80
2, 125280, Note_on_c, 1, 62, 80
2, 125507, Note_on_c, 1, 55, 0
2, 125507, Note_on_c, 1, 59, 0
2, 125507, Note_on_c, 1, 62, 0
2, 125520, Note_on_c, 1, 59, 80
2, 125520, Note_on_c, 1, 64, 80
2, 125747, Note_on_c, 1, 59, 0
2, 125747, Note_on_c, 1, 64, 0
2, 125760, Note_on_c, 1, 59, 80
2, 125760, Note_on_c, 1, 62, 80
2, 125987, Note_on_c, 1, 59, 0
2, 125987, Note_on_c, 1, 62, 0
2, 126000, Note_on_c, 1, 59, 80
2, 126000, Note_on_c, 1, 64, 80
2, 126227, Note_on_c, 1, 59, 0
2, 126227, Note_on_c, 1, 64, 0
2, 126240, Note_on_c, 1, 59, 80
2, 126240, Note_on_c, 1, 62, 80
2, 126467, Note_on_c, 1, 59, 0
2, 126467, Note_on_c, 1, 62, 0
2, 126480, Note_on_c, 1, 59, 80
2, 126480, Note_on_c, 1, 64, 80
2, 126593, Note_on_c, 1, 59, 0
2, 126593, Note_on_c, 1, 64, 0
2, 126600, Note_on_c, 1, 59, 80
2, 126600, Note_on_c, 1, 62, 80
2, 126827, Note_on_c, 1, 59, 0
2, 126827, Note_on_c, 1, 62, 0
2, 126840, Note_on_c, 1, 59, 80
2, 126840, Note_on_c, 1, 62, 80
2, 126953, Note_on_c, 1, 59, 0
2, 126953, Note_on_c, 1, 62, 0
2, 126960, Note_on_c, 1, 59, 80
2, 126960, Note_on_c, 1, 64, 80
2, 127187, Note_on_c, 1, 59, 0
2, 127187, Note_on_c, 1, 64, 0
2, 127200, Note_on_c, 1, 59, 80
2, 127200, Note_on_c, 1, 62, 80
2, 127427, Note_on_c, 1, 59, 0
2, 127427, Note_on_c, 1, 62, 0
2, 127440, Note_on_c, 1, 59, 80
2, 127440, Note_on_c, 1, 64, 80
2, 127667, Note_on_c, 1, 59, 0
2, 127667, Note_on_c, 1, 64, 0
2, 127680, Note_on_c, 1, 55, 80
2, 127680, Note_on_c, 1, 60, 80
2, 127680, Note_on_c, 1, 62, 80
2, 127907, Note_on_c, 1, 55, 0
2, 127907, Note_on_c, 1, 60, 0
2, 127907, Note_on_c, 1, 62, 0
2, 127920, Note_on_c, 1, 60, 80
2, 127920, Note_on_c, 1, 64, 80
2, 128147, Note_on_c, 1, 60, 0
2, 128147, Note_on_c, 1, 64, 0
2, 128160, Note_on_c, 1, 55, 80
2, 128160, Note_on_c, 1, 60, 80
2, 128160, Note_on_c, 1, 62, 80
2, 128387, Note_on_c, 1, 55, 0
2, 128387, Note_on_c, 1, 60, 0
2, 128387, Note_on_c, 1, 62, 0
2, 128400, Note_on_c, 1, 60, 80
2, 128400, Note_on_c, 1, 64, 80
2, 128513, Note_on_c, 1, 60, 0
2, 128513, Note_on_c, 1, 64, 0
2, 128520, Note_on_c, 1, 60, 80
2, 128520, Note_on_c, 1, 62, 80
2, 128747, Note_on_c, 1, 60, 0
2, 128747, Note_on_c, 1, 62, 0
2, 128760, Note_on_c, 1, 60, 80
2, 128760, Note_on_c, 1, 62, 80
2, 128873, Note_on_c, 1, 60, 0
2, 128873, Note_on_c, 1, 62, 0
2, 128880, Note_on_c, 1, 60, 80
2, 128880, Note_on_c, 1, 64, 80
2, 129107, Note_on_c, 1, 60, 0
2, 129107, Note_on_c, 1, 64, 0
2, 129120, Note_on_c, 1, 55, 80
2, 129120, Note_on_c, 1, 60, 80
2, 129120, Note_on_c, 1, 62, 80
2, 129347, Note_on_c, 1, 55, 0
2, 129347, Note_on_c, 1, 60, 0
2, 129347, Note_on_c, 1, 62, 0
2, 129360, Note_on_c, 1, 60, 80
2, 129360, Note_on_c, 1, 64, 80
2, 129587, Note_on_c, 1, 60, 0
2, 129587, Note_on_c, 1, 64, 0
2, 129600, Note_on_c, 1, 55, 80
2, 129600, Note_on_c, 1, 59, 80
2, 129600, Note_on_c, 1, 62, 80
2, 129827, Note_on_c, 1, 55, 0
2, 129827, Note_on_c, 1, 59, 0
2, 129827, Note_on_c, 1, 62, 0
2, 129840, Note_on_c, 1, 59, 80
2, 129840, Note_on_c, 1, 64, 80
2, 130067, Note_on_c, 1, 59, 0
2, 130067, Note_on_c, 1, 64, 0
2, 130080, Note_on_c, 1, 55, 80
2, 130080, Note_on_c, 1, 59, 80
2, 130080, Note_on_c, 1, 62, 80
2, 130307, Note_on_c, 1, 55, 0
2, 130307, Note_on_c, 1, 59, 0
2, 130307, Note_on_c, 1, 62, 0
2, 130320, Note_on_c, 1, 59, 80
2, 130320, Note_on_c, 1, 64, 80
2, 130433, Note_on_c, 1, 59, 0
2, 130433, Note_on_c, 1, 64, 0
2, 130440, Note_on_c, 1, 57, 80
2, 130440, Note_on_c, 1, 62, 80
2, 130667, Note_on_c, 1, 57, 0
2, 130667, Note_on_c, 1, 62, 0
2, 130680, Note_on_c, 1, 57, 80
2, 130680, Note_on_c, 1, 62, 80
2, 130793, Note_on_c, 1, 57, 0
2, 130793, Note_on_c, 1, 62, 0
2, 130800, Note_on_c, 1, 57, 80
2, 130800, Note_on_c, 1, 64, 80
2, 131027, Note_on_c, 1, 57, 0
2, 131027, Note_on_c, 1, 64, 0
2, 131040, Note_on_c, 1, 57, 80
2, 131040, Note_on_c, 1, 62, 80
2, 131267, Note_on_c, 1, 57, 0
2, 131267, Note_on_c, 1, 62, 0
2, 131280, Note_on_c, 1, 57, 80
2, 131280, Note_on_c, 1, 64, 80
2, 131507, Note_on_c, 1, 57, 0
2, 131507, Note_on_c, 1, 64, 0
2, 134400, Note_on_c, 1, 55, 96
2, 134400, Note_on_c, 1, 60, 96
2, 134400, Note_on_c, 1, 64, 96
2, 134855, Note_on_c, 1, 55, 0
2, 134855, Note_on_c, 1, 60, 0
2, 134855, Note_on_c, 1, 64, 0
2, 134880, Note_on_c, 1, 55, 96
2, 134880, Note_on_c, 1, 60, 96
2, 134880, Note_on_c, 1, 64, 96
2, 135335, Note_on_c, 1, 55, 0
2, 135335, Note_on_c, 1, 60, 0
2, 135335, Note_on_c, 1, 64, 0
2, 135360, Note_on_c, 1, 55, 96
2, 135360, Note_on_c, 1, 60, 96
2, 135360, Note_on_c, 1, 64, 96
2, 135815, Note_on_c, 1, 55, 0
2, 135815, Note_on_c, 1, 60, 0
2, 135815, Note_on_c, 1, 64, 0
2, 135840, Note_on_c, 1, 55, 96
2, 135840, Note_on_c, 1, 60, 96
2, 135840, Note_on_c, 1, 64, 96
2, 136295, Note_on_c, 1, 55, 0
2, 136295, Note_on_c, 1, 60, 0
2, 136295, Note_on_c, 1, 64, 0
2, 136320, Note_on_c, 1, 55, 96
2, 136320, Note_on_c, 1, 59, 96
2, 136320, Note_on_c, 1, 62, 96
2, 136775, Note_on_c, 1, 55, 0
2, 136775, Note_on_c, 1, 59, 0
2, 136775, Note_on_c, 1, 62, 0
2, 136800, Note_on_c, 1, 55, 96
2, 136800, Note_on_c, 1, 59, 96
2, 136800, Note_on_c, 1, 62, 96
2, 137255, Note_on_c, 1, 55, 0
2, 137255, Note_on_c, 1, 59, 0
2, 137255, Note_on_c, 1, 62, 0
2, 137280, Note_on_c, 1, 55, 96
2, 137280, Note_on_c, 1, 59, 96
2, 137280, Note_on_c, 1, 62, 96
2, 137735, Note_on_c, 1, 55, 0
2, 137735, Note_on_c, 1, 59, 0
2, 137735, Note_on_c, 1, 62, 0
2, 137760, Note_on_c, 1, 55, 96
2, 137760, Note_on_c, 1, 59, 96
2, 137760, Note_on_c, 1, 62, 96
2, 138215, Note_on_c, 1, 55, 0
2, 138215, Note_on_c, 1, 59, 0
2, 138215, Note_on_c, 1, 62, 0
2, 138240, Note_on_c, 1, 53, 96
2, 138240, Note_on_c, 1, 57, 96
2, 138240, Note_on_c, 1, 62, 96
2, 138695, Note_on_c, 1, 53, 0
2, 138695, Note_on_c, 1, 57, 0
2, 138695, Note_on_c, 1, 62, 0
2, 138720, Note_on_c, 1, 53, 96
2, 138720, Note_on_c, 1, 57, 96
2, 138720, Note_on_c, 1, 62, 96
2, 139175, Note_on_c, 1, 53, 0
2, 139175, Note_on_c, 1, 57, 0
2, 139175, Note_on_c, 1, 62, 0
2, 139200, Note_on_c, 1, 53, 96
2, 139200, Note_on_c, 1, 57, 96
2, 139200, Note_on_c, 1, 62, 96
2, 139655, Note_on_c, 1, 53, 0
2, 139655, Note_on_c, 1, 57, 0
2, 139655, Note_on_c, 1, 62, 0
2, 139680, Note_on_c, 1, 53, 96
2, 139680, Note_on_c, 1, 57, 96
2, 139680, Note_on_c, 1, 62, 96
2, 140135, Note_on_c, 1, 53, 0
2, 140135, Note_on_c, 1, 57, 0
2, 140135, Note_on_c, 1, 62, 0
2, 140160, Note_on_c, 1, 53, 96
2, 140160, Note_on_c, 1, 57, 96
2, 140160, Note_on_c, 1, 60, 96
2, 140615, Note_on_c, 1, 53, 0
2, 140615, Note_on_c, 1, 57, 0
2, 140615, Note_on_c, 1, 60, 0
2, 140640, Note_on_c, 1, 53, 96
2, 140640, Note_on_c, 1, 57, 96
2, 140640, Note_on_c, 1, 60, 96
2, 141095, Note_on_c, 1, 53, 0
2, 141095, Note_on_c, 1, 57, 0
2, 141095, Note_on_c, 1, 60, 0
2, 141120, Note_on_c, 1, 55, 96
2, 141120, Note_on_c, 1, 59, 96
2, 141120, Note_on_c, 1, 62, 96
2, 141575, Note_on_c, 1, 55, 0
2, 141575, Note_on_c, 1, 59, 0
2, 141575, Note_on_c, 1, 62, 0
2, 141600, Note_on_c, 1, 55, 96
2, 141600, Note_on_c, 1, 59, 96
2, 141600, Note_on_c, 1, 62, 96
2, 142055, Note_on_c, 1, 55, 0
2, 142055, Note_on_c, 1, 59, 0
2, 142055, Note_on_c, 1, 62, 0
2, 142080, Note_on_c, 1, 55, 96
2, 142080, Note_on_c, 1, 60, 96
2, 142080, Note_on_c, 1, 64, 96
2, 142535, Note_on_c, 1, 55, 0
2, 142535, Note_on_c, 1, 60, 0
2, 142535, Note_on_c, 1, 64, 0
2, 142560, Note_on_c, 1, 55, 96
2, 142560, Note_on_c, 1, 60, 96
2, 142560, Note_on_c, 1, 64, 96
2, 143015, Note_on_c, 1, 55, 0
2, 143015, Note_on_c, 1, 60, 0
2, 143015, Note_on_c, 1, 64, 0
2, 143040, Note_on_c, 1, 55, 96
2, 143040, Note_on_c, 1, 60, 96
2, 143040, Note_on_c, 1, 64, 96
2, 143495, Note_on_c, 1, 55, 0
2, 143495, Note_on_c, 1, 60, 0
2, 143495, Note_on_c, 1, 64, 0
2, 143520, Note_on_c, 1, 55, 96
2, 143520, Note_on_c, 1, 60, 96
2, 143520, Note_on_c, 1, 64, 96
2, 143975, Note_on_c, 1, 55, 0
2, 143975, Note_on_c, 1, 60, 0
2, 143975, Note_on_c, 1, 64, 0
2, 144000, Note_on_c, 1, 55, 96
2, 144000, Note_on_c, 1, 59, 96
2, 144000, Note_on_c, 1, 62, 96
2, 144455, Note_on_c, 1, 55, 0
2, 144455, Note_on_c, 1, 59, 0
2, 144455, Note_on_c, 1, 62, 0
2, 144480, Note_on_c, 1, 55, 96
2, 144480, Note_on_c, 1, 59, 96
2, 144480, Note_on_c, 1, 62, 96
2, 144935, Note_on_c, 1, 55, 0
2, 144935, Note_on_c, 1, 59, 0
2, 144935, Note_on_c, 1, 62, 0
2, 144960, Note_on_c, 1, 55, 96
2, 144960, Note_on_c, 1, 59, 96
2, 144960, Note_on_c, 1, 62, 96
2, 145415, Note_on_c, 1, 55, 0
2, 145415, Note_on_c, 1, 59, 0
2, 145415, Note_on_c, 1, 62, 0
2, 145440, Note_on_c, 1, 55, 96
2, 145440, Note_on_c, 1, 59, 96
2, 145440, Note_on_c, 1, 62, 96
2, 145895, Note_on_c, 1, 55, 0
2, 145895, Note_on_c, 1, 59, 0
2, 145895, Note_on_c, 1, 62, 0
2, 145920, Note_on_c, 1, 53, 96
2, 145920, Note_on_c, 1, 57, 96
2, 145920, Note_on_c, 1, 62, 96
2, 146375, Note_on_c, 1, 53, 0
2, 146375, Note_on_c, 1, 57, 0
2, 146375, Note_on_c, 1, 62, 0
2, 146400, Note_on_c, 1, 53, 96
2, 146400, Note_on_c, 1, 57, 96
2, 146400, Note_on_c, 1, 62, 96
2, 146855, Note_on_c, 1, 53, 0
2, 146855, Note_on_c, 1, 57, 0
2, 146855, Note_on_c, 1, 62, 0
2, 146880, Note_on_c, 1, 53, 96
2, 146880, Note_on_c, 1, 57, 96
2, 146880, Note_on_c, 1, 62, 96
2, 147335, Note_on_c, 1, 53, 0
2, 147335, Note_on_c, 1, 57, 0
2, 147335, Note_on_c, 1, 62, 0
2, 147360, Note_on_c, 1, 53, 96
2, 147360, Note_on_c, 1, 57, 96
2, 147360, Note_on_c, 1, 62, 96
2, 147815, Note_on_c, 1, 53, 0
2, 147815, Note_on_c, 1, 57, 0
2, 147815, Note_on_c, 1, 62, 0
2, 147840, Note_on_c, 1, 53, 96
2, 147840, Note_on_c, 1, 57, 96
2, 147840, Note_on_c, 1, 60, 96
2, 148295, Note_on_c, 1, 53, 0
2, 148295, Note_on_c, 1, 57, 0
2, 148295, Note_on_c, 1, 60, 0
2, 148320, Note_on_c, 1, 53, 96
2, 148320, Note_on_c, 1, 57, 96
2, 148320, Note_on_c, 1, 60, 96
2, 148775, Note_on_c, 1, 53, 0
2, 148775, Note_on_c, 1, 57, 0
2, 148775, Note_on_c, 1, 60, 0
2, 148800, Note_on_c, 1, 55, 96
2, 148800, Note_on_c, 1, 59, 96
2, 148800, Note_on_c, 1, 62, 96
2, 149255, Note_on_c, 1, 55, 0
2, 149255, Note_on_c, 1, 59, 0
2, 149255, Note_on_c, 1, 62, 0
2, 149280, Note_on_c, 1, 55, 96
2, 149280, Note_on_c, 1, 59, 96
2, 149280, Note_on_c, 1, 62, 96
2, 149735, Note_on_c, 1, 55, 0
2, 149735, Note_on_c, 1, 59, 0
2, 149735, Note_on_c, 1, 62, 0
2, 149760, Note_on_c, 1, 55, 96
2, 149760, Note_on_c, 1, 60, 96
2, 149760, Note_on_c, 1, 64, 96
2, 150215, Note_on_c, 1, 55, 0
2, 150215, Note_on_c, 1, 60, 0
2, 150215, Note_on_c, 1, 64, 0
2, 150240, Note_on_c, 1, 55, 96
2, 150240, Note_on_c, 1, 60, 96
2, 150240, Note_on_c, 1, 64, 96
2, 150695, Note_on_c, 1, 55, 0
2, 150695, Note_on_c, 1, 60, 0
2, 150695, Note_on_c, 1, 64, 0
2, 150720, Note_on_c, 1, 55, 96
2, 150720, Note_on_c, 1, 60, 96
2, 150720, Note_on_c, 1, 64, 96
2, 151175, Note_on_c, 1, 55, 0
2, 151175, Note_on_c, 1, 60, 0
2, 151175, Note_on_c, 1, 64, 0
2, 151200, Note_on_c, 1, 55, 96
2, 151200, Note_on_c, 1, 60, 96
2, 151200, Note_on_c, 1, 64, 96
2, 151655, Note_on_c, 1, 55, 0
2, 151655, Note_on_c, 1, 60, 0
2, 151655, Note_on_c, 1, 64, 0
2, 151680, Note_on_c, 1, 55, 96
2, 151680, Note_on_c, 1, 59, 96
2, 151680, Note_on_c, 1, 62, 96
2, 152135, Note_on_c, 1, 55, 0
2, 152135, Note_on_c, 1, 59, 0
2, 152135, Note_on_c, 1, 62, 0
2, 152160, Note_on_c, 1, 55, 96
2, 152160, Note_on_c, 1, 59, 96
2, 152160, Note_on_c, 1, 62, 96
2, 152615, Note_on_c, 1, 55, 0
2, 152615, Note_on_c, 1, 59, 0
2, 152615, Note_on_c, 1, 62, 0
2, 152640, Note_on_c, 1, 55, 96
2, 152640, Note_on_c, 1, 59, 96
2, 152640, Note_on_c, 1, 62, 96
2, 153095, Note_on_c, 1, 55, 0
2, 153095, Note_on_c, 1, 59, 0
2, 153095, Note_on_c, 1, 62, 0
2, 153120, Note_on_c, 1, 55, 96
2, 153120, Note_on_c, 1, 59, 96
2, 153120, Note_on_c, 1, 62, 96
2, 153575, Note_on_c, 1, 55, 0
2, 153575, Note_on_c, 1, 59, 0
2, 153575, Note_on_c, 1, 62, 0
2, 153600, Note_on_c, 1, 53, 96
2, 153600, Note_on_c, 1, 57, 96
2, 153600, Note_on_c, 1, 62, 96
2, 154055, Note_on_c, 1, 53, 0
2, 154055, Note_on_c, 1, 57, 0
2, 154055, Note_on_c, 1, 62, 0
2, 154080, Note_on_c, 1, 53, 96
2, 154080, Note_on_c, 1, 57, 96
2, 154080, Note_on_c, 1, 62, 96
2, 154535, Note_on_c, 1, 53, 0
2, 154535, Note_on_c, 1, 57, 0
2, 154535, Note_on_c, 1, 62, 0
2, 154560, Note_on_c, 1, 53, 96
2, 154560, Note_on_c, 1, 57, 96
2, 154560, Note_on_c, 1, 62, 96
2, 155015, Note_on_c, 1, 53, 0
2, 155015, Note_on_c, 1, 57, 0
2, 155015, Note_on_c, 1, 62, 0
2, 155040, Note_on_c, 1, 53, 96
2, 155040, Note_on_c, 1, 57, 96
2, 155040, Note_on_c, 1, 62, 96
2, 155495, Note_on_c, 1, 53, 0
2, 155495, Note_on_c, 1, 57, 0
2, 155495, Note_on_c, 1, 62, 0
2, 155520, Note_on_c, 1, 53, 96
2, 155520, Note_on_c, 1, 57, 96
2, 155520, Note_on_c, 1, 60, 96
2, 155975, Note_on_c, 1, 53, 0
2, 155975, Note_on_c, 1, 57, 0
2, 155975, Note_on_c, 1, 60, 0
2, 156000, Note_on_c, 1, 53, 96
2, 156000, Note_on_c, 1, 57, 96
2, 156000, Note_on_c, 1, 60, 96
2, 156455, Note_on_c, 1, 53, 0
2, 156455, Note_on_c, 1, 57, 0
2, 156455, Note_on_c, 1, 60, 0
2, 156480, Note_on_c, 1, 55, 96
2, 156480, Note_on_c, 1, 59, 96
2, 156480, Note_on_c, 1, 62, 96
2, 156935, Note_on_c, 1, 55, 0
2, 156935, Note_on_c, 1, 59, 0
2, 156935, Note_on_c, 1, 62, 0
2, 156960, Note_on_c, 1, 55, 96
2, 156960, Note_on_c, 1, 59, 96
2, 156960, Note_on_c, 1, 62, 96
2, 157415, Note_on_c, 1, 55, 0
2, 157415, Note_on_c, 1, 59, 0
2, 157415, Note_on_c, 1, 62, 0
2, 158640, Note_on_c, 1, 64, 96
2, 158640, Note_on_c, 1, 67, 96
2, 158640, Note_on_c, 1, 72, 96
2, 158867, Note_on_c, 1, 64, 0
2, 158867, Note_on_c, 1, 67, 0
2, 158867, Note_on_c, 1, 72, 0
2, 159120, Note_on_c, 1, 64, 96
2, 159120, Note_on_c, 1, 67, 96
2, 159120, Note_on_c, 1, 72, 96
2, 159347, Note_on_c, 1, 64, 0
2, 159347, Note_on_c, 1, 67, 0
2, 159347, Note_on_c, 1, 72, 0
2, 159600, Note_on_c, 1, 64, 96
2, 159600, Note_on_c, 1, 67, 96
2, 159600, Note_on_c, 1, 72, 96
2, 159827, Note_on_c, 1, 64, 0
2, 159827, Note_on_c, 1, 67, 0
2, 159827, Note_on_c, 1, 72, 0
2, 160080, Note_on_c, 1, 64, 96
2, 160080, Note_on_c, 1, 67, 96
2, 160080, Note_on_c, 1, 72, 96
2, 160307, Note_on_c, 1, 64, 0
2, 160307, Note_on_c, 1, 67, 0
2, 160307, Note_on_c, 1, 72, 0
2, 160560, Note_on_c, 1, 64, 96
2, 160560, Note_on_c, 1, 67, 96
2, 160560, Note_on_c, 1, 71, 96
2, 160787, Note_on_c, 1, 64, 0
2, 160787, Note_on_c, 1, 67, 0
2, 160787, Note_on_c, 1, 71, 0
2, 161040, Note_on_c, 1, 64, 96
2, 161040, Note_on_c, 1, 67, 96
2, 161040, Note_on_c, 1, 71, 96
2, 161267, Note_on_c, 1, 64, 0
2, 161267, Note_on_c, 1, 67, 0
2, 161267, Note_on_c, 1, 71, 0
2, 161520, Note_on_c, 1, 64, 96
2, 161520, Note_on_c, 1, 67, 96
2, 161520, Note_on_c, 1, 71, 96
2, 161747, Note_on_c, 1, 64, 0
2, 161747, Note_on_c, 1, 67, 0
2, 161747, Note_on_c, 1, 71, 0
2, 162000, Note_on_c, 1, 64, 96
2, 162000, Note_on_c, 1, 67, 96
2, 162000, Note_on_c, 1, 71, 96
2, 162227, Note_on_c, 1, 64, 0
2, 162227, Note_on_c, 1, 67, 0
2, 162227, Note_on_c, 1, 71, 0
2, 162480, Note_on_c, 1, 65, 96
2, 162480, Note_on_c, 1, 69, 96
2, 162480, Note_on_c, 1, 72, 96
2, 162707, Note_on_c, 1, 65, 0
2, 162707, Note_on_c, 1, 69, 0
2, 162707, Note_on_c, 1, 72, 0
2, 162960, Note_on_c, 1, 65, 96
2, 162960, Note_on_c, 1, 69, 96
2, 162960, Note_on_c, 1, 72, 96
2, 163187, Note_on_c, 1, 65, 0
2, 163187, Note_on_c, 1, 69, 0
2, 163187, Note_on_c, 1, 72, 0
2, 163440, Note_on_c, 1, 65, 96
2, 163440, Note_on_c, 1, 69, 96
2, 163440, Note_on_c, 1, 72, 96
2, 163667, Note_on_c, 1, 65, 0
2, 163667, Note_on_c, 1, 69, 0
2, 163667, Note_on_c, 1, 72, 0
2, 163920, Note_on_c, 1, 65, 96
2, 163920, Note_on_c, 1, 69, 96
2, 163920, Note_on_c, 1, 72, 96
2, 164147, Note_on_c, 1, 65, 0
2, 164147, Note_on_c, 1, 69, 0
2, 164147, Note_on_c, 1, 72, 0
2, 164400, Note_on_c, 1, 64, 96
2, 164400, Note_on_c, 1, 67, 96
2, 164400, Note_on_c, 1, 72, 96
2, 164627, Note_on_c, 1, 64, 0
2, 164627, Note_on_c, 1, 67, 0
2, 164627, Note_on_c, 1, 72, 0
2, 164880, Note_on_c, 1, 64, 96
2, 164880, Note_on_c, 1, 67, 96
2, 164880, Note_on_c, 1, 72, 96
2, 165107, Note_on_c, 1, 64, 0
2, 165107, Note_on_c, 1, 67, 0
2, 165107, Note_on_c, 1, 72, 0
2, 165360, Note_on_c, 1, 62, 96
2, 165360, Note_on_c, 1, 67, 96
2, 165360, Note_on_c, 1, 71, 96
2, 165587, Note_on_c, 1, 62, 0
2, 165587, Note_on_c, 1, 67, 0
2, 165587, Note_on_c, 1, 71, 0
2, 165840, Note_on_c, 1, 62, 96
2, 165840, Note_on_c, 1, 67, 96
2, 165840, Note_on_c, 1, 71, 96
2, 166067, Note_on_c, 1, 62, 0
2, 166067, Note_on_c, 1, 67, 0
2, 166067, Note_on_c, 1, 71, 0
2, 166320, Note_on_c, 1, 64, 96
2, 166320, Note_on_c, 1, 67, 96
2, 166320, Note_on_c, 1, 72, 96
2, 166547, Note_on_c, 1, 64, 0
2, 166547, Note_on_c, 1, 67, 0
2, 166547, Note_on_c, 1, 72, 0
2, 166800, Note_on_c, 1, 64, 96
2, 166800, Note_on_c, 1, 67, 96
2, 166800, Note_on_c, 1, 72, 96
2, 167027, Note_on_c, 1, 64, 0
2, 167027, Note_on_c, 1, 67, 0
2, 167027, Note_on_c, 1, 72, 0
2, 167280, Note_on_c, 1, 64, 96
2, 167280, Note_on_c, 1, 67, 96
2, 167280, Note_on_c, 1, 72, 96
2, 167507, Note_on_c, 1, 64, 0
2, 167507, Note_on_c, 1, 67, 0
2, 167507, Note_on_c, 1, 72, 0
2, 167760, Note_on_c, 1, 64, 96
2, 167760, Note_on_c, 1, 67, 96
2, 167760, Note_on_c, 1, 72, 96
2, 167987, Note_on_c, 1, 64, 0
2, 167987, Note_on_c, 1, 67, 0
2, 167987, Note_on_c, 1, 72, 0
2, 168240, Note_on_c, 1, 64, 96
2, 168240, Note_on_c, 1, 67, 96
2, 168240, Note_on_c, 1, 71, 96
2, 168467, Note_on_c, 1, 64, 0
2, 168467, Note_on_c, 1, 67, 0
2, 168467, Note_on_c, 1, 71, 0
2, 168720, Note_on_c, 1, 64, 96
2, 168720, Note_on_c, 1, 67, 96
2, 168720, Note_on_c, 1, 71, 96
2, 168947, Note_on_c, 1, 64, 0
2, 168947, Note_on_c, 1, 67, 0
2, 168947, Note_on_c, 1, 71, 0
2, 169200, Note_on_c, 1, 64, 96
2, 169200, Note_on_c, 1, 67, 96
2, 169200, Note_on_c, 1, 71, 96
2, 169427, Note_on_c, 1, 64, 0
2, 169427, Note_on_c, 1, 67, 0
2, 169427, Note_on_c, 1, 71, 0
2, 169680, Note_on_c, 1, 64, 96
2, 169680, Note_on_c, 1, 67, 96
2, 169680, Note_on_c, 1, 71, 96
2, 169907, Note_on_c, 1, 64, 0
2, 169907, Note_on_c, 1, 67, 0
2, 169907, Note_on_c, 1, 71, 0
2, 170160, Note_on_c, 1, 65, 96
2, 170160, Note_on_c, 1, 69, 96
2, 170160, Note_on_c, 1, 72, 96
2, 170387, Note_on_c, 1, 65, 0
2, 170387, Note_on_c, 1, 69, 0
2, 170387, Note_on_c, 1, 72, 0
2, 170640, Note_on_c, 1, 65, 96
2, 170640, Note_on_c, 1, 69, 96
2, 170640, Note_on_c, 1, 72, 96
2, 170867, Note_on_c, 1, 65, 0
2, 170867, Note_on_c, 1, 69, 0
2, 170867, Note_on_c, 1, 72, 0
2, 171120, Note_on_c, 1, 65, 96
2, 171120, Note_on_c, 1, 69, 96
2, 171120, Note_on_c, 1, 72, 96
2, 171347, Note_on_c, 1, 65, 0
2, 171347, Note_on_c, 1, 69, 0
2, 171347, Note_on_c, 1, 72, 0
2, 171600, Note_on_c, 1, 65, 96
2, 171600, Note_on_c, 1, 69, 96
2, 171600, Note_on_c, 1, 72, 96
2, 171827, Note_on_c, 1, 65, 0
2, 171827, Note_on_c, 1, 69, 0
2, 171827, Note_on_c, 1, 72, 0
2, 172080, Note_on_c, 1, 64, 96
2, 172080, Note_on_c, 1, 67, 96
2, 172080, Note_on_c, 1, 72, 96
2, 172307, Note_on_c, 1, 64, 0
2, 172307, Note_on_c, 1, 67, 0
2, 172307, Note_on_c, 1, 72, 0
2, 172560, Note_on_c, 1, 64, 96
2, 172560, Note_on_c, 1, 67, 96
2, 172560, Note_on_c, 1, 72, 96
2, 172787, Note_on_c, 1, 64, 0
2, 172787, Note_on_c, 1, 67, 0
2, 172787, Note_on_c, 1, 72, 0
2, 173040, Note_on_c, 1, 62, 96
2, 173040, Note_on_c, 1, 67, 96
2, 173040, Note_on_c, 1, 71, 96
2, 173267, Note_on_c, 1, 62, 0
2, 173267, Note_on_c, 1, 67, 0
2, 173267, Note_on_c, 1, 71, 0
2, 173520, Note_on_c, 1, 62, 96
2, 173520, Note_on_c, 1, 67, 96
2, 173520, Note_on_c, 1, 71, 96
2, 173747, Note_on_c, 1, 62, 0
2, 173747, Note_on_c, 1, 67, 0
2, 173747, Note_on_c, 1, 71, 0
2, 174000, Note_on_c, 1, 64, 96
2, 174000, Note_on_c, 1, 67, 96
2, 174000, Note_on_c, 1, 72, 96
2, 174227, Note_on_c, 1, 64, 0
2, 174227, Note_on_c, 1, 67, 0
2, 174227, Note_on_c, 1, 72, 0
2, 174480, Note_on_c, 1, 64, 96
2, 174480, Note_on_c, 1, 67, 96
2, 174480, Note_on_c, 1, 72, 96
2, 174707, Note_on_c, 1, 64, 0
2, 174707, Note_on_c, 1, 67, 0
2, 174707, Note_on_c, 1, 72, 0
2, 174960, Note_on_c, 1, 64, 96
2, 174960, Note_on_c, 1, 67, 96
2, 174960, Note_on_c, 1, 72, 96
2, 175187, Note_on_c, 1, 64, 0
2, 175187, Note_on_c, 1, 67, 0
2, 175187, Note_on_c, 1, 72, 0
2, 175440, Note_on_c, 1, 64, 96
2, 175440, Note_on_c, 1, 67, 96
2, 175440, Note_on_c, 1, 72, 96
2, 175667, Note_on_c, 1, 64, 0
2, 175667, Note_on_c, 1, 67, 0
2, 175667, Note_on_c, 1, 72, 0
2, 175920, Note_on_c, 1, 64, 96
2, 175920, Note_on_c, 1, 67, 96
2, 175920, Note_on_c, 1, 71, 96
2, 176147, Note_on_c, 1, 64, 0
2, 176147, Note_on_c, 1, 67, 0
2, 176147, Note_on_c, 1, 71, 0
2, 176400, Note_on_c, 1, 64, 96
2, 176400, Note_on_c, 1, 67, 96
2, 176400, Note_on_c, 1, 71, 96
2, 176627, Note_on_c, 1, 64, 0
2, 176627, Note_on_c, 1, 67, 0
2, 176627, Note_on_c, 1, 71, 0
2, 176880, Note_on_c, 1, 64, 96
2, 176880, Note_on_c, 1, 67, 96
2, 176880, Note_on_c, 1, 71, 96
2, 177107, Note_on_c, 1, 64, 0
2, 177107, Note_on_c, 1, 67, 0
2, 177107, Note_on_c, 1, 71, 0
2, 177360, Note_on_c, 1, 64, 96
2, 177360, Note_on_c, 1, 67, 96
2, 177360, Note_on_c, 1, 71, 96
2, 177587, Note_on_c, 1, 64, 0
2, 177587, Note_on_c, 1, 67, 0
2, 177587, Note_on_c, 1, 71, 0
2, 177840, Note_on_c, 1, 65, 96
2, 177840, Note_on_c, 1, 69, 96
2, 177840, Note_on_c, 1, 72, 96
2, 178067, Note_on_c, 1, 65, 0
2, 178067, Note_on_c, 1, 69, 0
2, 178067, Note_on_c, 1, 72, 0
2, 178320, Note_on_c, 1, 65, 96
2, 178320, Note_on_c, 1, 69, 96
2, 178320, Note_on_c, 1, 72, 96
2, 178547, Note_on_c, 1, 65, 0
2, 178547, Note_on_c, 1, 69, 0
2, 178547, Note_on_c, 1, 72, 0
2, 178800, Note_on_c, 1, 65, 96
2, 178800, Note_on_c, 1, 69, 96
2, 178800, Note_on_c, 1, 72, 96
2, 179027, Note_on_c, 1, 65, 0
2, 179027, Note_on_c, 1, 69, 0
2, 179027, Note_on_c, 1, 72, 0
2, 179280, Note_on_c, 1, 65, 96
2, 179280, Note_on_c, 1, 69, 96
2, 179280, Note_on_c, 1, 72, 96
2, 179507, Note_on_c, 1, 65, 0
2, 179507, Note_on_c, 1, 69, 0
2, 179507, Note_on_c, 1, 72, 0
2, 179760, Note_on_c, 1, 64, 96
2, 179760, Note_on_c, 1, 67, 96
2, 179760, Note_on_c, 1, 72, 96
2, 179987, Note_on_c, 1, 64, 0
2, 179987, Note_on_c, 1, 67, 0
2, 179987, Note_on_c, 1, 72, 0
2, 180240, Note_on_c, 1, 64, 96
2, 180240, Note_on_c, 1, 67, 96
2, 180240, Note_on_c, 1, 72, 96
2, 180467, Note_on_c, 1, 64, 0
2, 180467, Note_on_c, 1, 67, 0
2, 180467, Note_on_c, 1, 72, 0
2, 180720, Note_on_c, 1, 62, 80
2, 180720, Note_on_c, 1, 67, 96
2, 180720, Note_on_c, 1, 71, 96
2, 180947, Note_on_c, 1, 62, 0
2, 180947, Note_on_c, 1, 67, 0
2, 180947, Note_on_c, 1, 71, 0
2, 181200, Note_on_c, 1, 62, 80
2, 181200, Note_on_c, 1, 67, 96
2, 181200, Note_on_c, 1, 71, 96
2, 181427, Note_on_c, 1, 62, 0
2, 181427, Note_on_c, 1, 67, 0
2, 181427, Note_on_c, 1, 71, 0
2, 181440, Note_on_c, 1, 55, 80
2, 181440, Note_on_c, 1, 60, 80
2, 181440, Note_on_c, 1, 64, 80
2, 181743, Note_on_c, 1, 55, 0
2, 181743, Note_on_c, 1, 60, 0
2, 181743, Note_on_c, 1, 64, 0
2, 181760, Note_on_c, 1, 55, 80
2, 181911, Note_on_c, 1, 55, 0
2, 181920, Note_on_c, 1, 55, 80
2, 181920, Note_on_c, 1, 60, 80
2, 181920, Note_on_c, 1, 64, 80
2, 182223, Note_on_c, 1, 55, 0
2, 182223, Note_on_c, 1, 60, 0
2, 182223, Note_on_c, 1, 64, 0
2, 182240, Note_on_c, 1, 55, 80
2, 182391, Note_on_c, 1, 55, 0
2, 182400, Note_on_c, 1, 55, 80
2, 182400, Note_on_c, 1, 60, 80
2, 182400, Note_on_c, 1, 64, 80
2, 182703, Note_on_c, 1, 55, 0
2, 182703, Note_on_c, 1, 60, 0
2, 182703, Note_on_c, 1, 64, 0
2, 182720, Note_on_c, 1, 55, 80
2, 182871, Note_on_c, 1, 55, 0
2, 182880, Note_on_c, 1, 55, 80
2, 182880, Note_on_c, 1, 60, 80
2, 182880, Note_on_c, 1, 64, 80
2, 183183, Note_on_c, 1, 55, 0
2, 183183, Note_on_c, 1, 60, 0
2, 183183, Note_on_c, 1, 64, 0
2, 183200, Note_on_c, 1, 55, 80
2, 183351, Note_on_c, 1, 55, 0
2, 183360, Note_on_c, 1, 55, 80
2, 183360, Note_on_c, 1, 59, 80
2, 183360, Note_on_c, 1, 62, 80
2, 183663, Note_on_c, 1, 55, 0
2, 183663, Note_on_c, 1, 59, 0
2, 183663, Note_on_c, 1, 62, 0
2, 183680, Note_on_c, 1, 55, 80
2, 183831, Note_on_c, 1, 55, 0
2, 183840, Note_on_c, 1, 55, 80
2, 183840, Note_on_c, 1, 59, 80
2, 183840, Note_on_c, 1, 62, 80
2, 184143, Note_on_c, 1, 55, 0
2, 184143, Note_on_c, 1, 59, 0
2, 184143, Note_on_c, 1, 62, 0
2, 184160, Note_on_c, 1, 55, 80
2, 184311, Note_on_c, 1, 55, 0
2, 184320, Note_on_c, 1, 55, 80
2, 184320, Note_on_c, 1, 59, 80
2, 184320, Note_on_c, 1, 62, 80
2, 184623, Note_on_c, 1, 55, 0
2, 184623, Note_on_c, 1, 59, 0
2, 184623, Note_on_c, 1, 62, 0
2, 184640, Note_on_c, 1, 55, 80
2, 184791, Note_on_c, 1, 55, 0
2, 184800, Note_on_c, 1, 55, 80
2, 184800, Note_on_c, 1, 59, 80
2, 184800, Note_on_c, 1, 62, 80
2, 185103, Note_on_c, 1, 55, 0
2, 185103, Note_on_c, 1, 59, 0
2, 185103, Note_on_c, 1, 62, 0
2, 185120, Note_on_c, 1, 55, 80
2, 185271, Note_on_c, 1, 55, 0
2, 185280, Note_on_c, 1, 53, 80
2, 185280, Note_on_c, 1, 57, 80
2, 185280, Note_on_c, 1, 62, 80
2, 185583, Note_on_c, 1, 53, 0
2, 185583, Note_on_c, 1, 57, 0
2, 185583, Note_on_c, 1, 62, 0
2, 185600, Note_on_c, 1, 53, 80
2, 185751, Note_on_c, 1, 53, 0
2, 185760, Note_on_c, 1, 53, 80
2, 185760, Note_on_c, 1, 57, 80
2, 185760, Note_on_c, 1, 62, 80
2, 186063, Note_on_c, 1, 53, 0
2, 186063, Note_on_c, 1, 57, 0
2, 186063, Note_on_c, 1, 62, 0
2, 186080, Note_on_c, 1, 53, 80
2, 186231, Note_on_c, 1, 53, 0
2, 186240, Note_on_c, 1, 53, 80
2, 186240, Note_on_c, 1, 57, 80
2, 186240, Note_on_c, 1, 62, 80
2, 186543, Note_on_c, 1, 53, 0
2, 186543, Note_on_c, 1, 57, 0
2, 186543, Note_on_c, 1, 62, 0
2, 186560, Note_on_c, 1, 53, 80
2, 186711, Note_on_c, 1, 53, 0
2, 186720, Note_on_c, 1, 53, 80
2, 186720, Note_on_c, 1, 57, 80
2, 186720, Note_on_c, 1, 62, 80
2, 187023, Note_on_c, 1, 53, 0
2, 187023, Note_on_c, 1, 57, 0
2, 187023, Note_on_c, 1, 62, 0
2, 187040, Note_on_c, 1, 53, 80
2, 187191, Note_on_c, 1, 53, 0
2, 187200, Note_on_c, 1, 53, 80
2, 187200, Note_on_c, 1, 57, 80
2, 187200, Note_on_c, 1, 60, 80
2, 187503, Note_on_c, 1, 53, 0
2, 187503, Note_on_c, 1, 57, 0
2, 187503, Note_on_c, 1, 60, 0
2, 187520, Note_on_c, 1, 53, 80
2, 187671, Note_on_c, 1, 53, 0
2, 187680, Note_on_c, 1, 53, 80
2, 187680, Note_on_c, 1, 57, 80
2, 187680, Note_on_c, 1, 60, 80
2, 187983, Note_on_c, 1, 53, 0
2, 187983, Note_on_c, 1, 57, 0
2, 187983, Note_on_c, 1, 60, 0
2, 188000, Note_on_c, 1, 53, 80
2, 188151, Note_on_c, 1, 53, 0
2, 188160, Note_on_c, 1, 55, 80
2, 188160, Note_on_c, 1, 59, 80
2, 188160, Note_on_c, 1, 62, 80
2, 188463, Note_on_c, 1, 55, 0
2, 188463, Note_on_c, 1, 59, 0
2, 188463, Note_on_c, 1, 62, 0
2, 188480, Note_on_c, 1, 55, 80
2, 188631, Note_on_c, 1, 55, 0
2, 188640, Note_on_c, 1, 55, 80
2, 188640, Note_on_c, 1, 59, 80
2, 188640, Note_on_c, 1, 62, 80
2, 188943, Note_on_c, 1, 55, 0
2, 188943, Note_on_c, 1, 59, 0
2, 188943, Note_on_c, 1, 62, 0
2, 188960, Note_on_c, 1, 55, 80
2, 189111, Note_on_c, 1, 55, 0
2, 189120, Note_on_c, 1, 55, 80
2, 189120, Note_on_c, 1, 60, 80
2, 189120, Note_on_c, 1, 64, 80
2, 189575, Note_on_c, 1, 55, 0
2, 189575, Note_on_c, 1, 60, 0
2, 189575, Note_on_c, 1, 64, 0
2, 189600, Note_on_c, 1, 55, 80
2, 189600, Note_on_c, 1, 60, 80
2, 189600, Note_on_c, 1, 64, 80
2, 190055, Note_on_c, 1, 55, 0
2, 190055, Note_on_c, 1, 60, 0
2, 190055, Note_on_c, 1, 64, 0
2, 190080, Note_on_c, 1, 55, 80
2, 190080, Note_on_c, 1, 60, 80
2, 190080, Note_on_c, 1, 64, 80
2, 190535, Note_on_c, 1, 55, 0
2, 190535, Note_on_c, 1, 60, 0
2, 190535, Note_on_c, 1, 64, 0
2, 190560, Note_on_c, 1, 55, 80
2, 190560, Note_on_c, 1, 60, 80
2, 190560, Note_on_c, 1, 64, 80
2, 191015, Note_on_c, 1, 55, 0
2, 191015, Note_on_c, 1, 60, 0
2, 191015, Note_on_c, 1, 64, 0
2, 191040, Note_on_c, 1, 55, 80
2, 191040, Note_on_c, 1, 59, 80
2, 191040, Note_on_c, 1, 62, 80
2, 191495, Note_on_c, 1, 55, 0
2, 191495, Note_on_c, 1, 59, 0
2, 191495, Note_on_c, 1, 62, 0
2, 191520, Note_on_c, 1, 55, 80
2, 191520, Note_on_c, 1, 59, 80
2, 191520, Note_on_c, 1, 62, 80
2, 191975, Note_on_c, 1, 55, 0
2, 191975, Note_on_c, 1, 59, 0
2, 191975, Note_on_c, 1, 62, 0
2, 192000, Note_on_c, 1, 55, 80
2, 192000, Note_on_c, 1, 59, 80
2, 192000, Note_on_c, 1, 62, 80
2, 192455, Note_on_c, 1, 55, 0
2, 192455, Note_on_c, 1, 59, 0
2, 192455, Note_on_c, 1, 62, 0
2, 192480, Note_on_c, 1, 55, 80
2, 192480, Note_on_c, 1, 59, 80
2, 192480, Note_on_c, 1, 62, 80
2, 192935, Note_on_c, 1, 55, 0
2, 192935, Note_on_c, 1, 59, 0
2, 192935, Note_on_c, 1, 62, 0
2, 192960, Note_on_c, 1, 53, 80
2, 192960, Note_on_c, 1, 57, 80
2, 192960, Note_on_c, 1, 62, 80
2, 193415, Note_on_c, 1, 53, 0
2, 193415, Note_on_c, 1, 57, 0
2, 193415, Note_on_c, 1, 62, 0
2, 193440, Note_on_c, 1, 53, 80
2, 193440, Note_on_c, 1, 57, 80
2, 193440, Note_on_c, 1, 62, 80
2, 193895, Note_on_c, 1, 53, 0
2, 193895, Note_on_c, 1, 57, 0
2, 193895, Note_on_c, 1, 62, 0
2, 193920, Note_on_c, 1, 53, 80
2, 193920, Note_on_c, 1, 57, 80
2, 193920, Note_on_c, 1, 62, 80
2, 194375, Note_on_c, 1, 53, 0
2, 194375, Note_on_c, 1, 57, 0
2, 194375, Note_on_c, 1, 62, 0
2, 194400, Note_on_c, 1, 53, 80
2, 194400, Note_on_c, 1, 57, 80
2, 194400, Note_on_c, 1, 62, 80
2, 194855, Note_on_c, 1, 53, 0
2, 194855, Note_on_c, 1, 57, 0
2, 194855, Note_on_c, 1, 62, 0
2, 194880, Note_on_c, 1, 53, 80
2, 194880, Note_on_c, 1, 57, 80
2, 194880, Note_on_c, 1, 60, 80
2, 195335, Note_on_c, 1, 53, 0
2, 195335, Note_on_c, 1, 57, 0
2, 195335, Note_on_c, 1, 60, 0
2, 195360, Note_on_c, 1, 53, 80
2, 195360, Note_on_c, 1, 57, 80
2, 195360, Note_on_c, 1, 60, 80
2, 195815, Note_on_c, 1, 53, 0
2, 195815, Note_on_c, 1, 57, 0
2, 195815, Note_on_c, 1, 60, 0
2, 195840, Note_on_c, 1, 55, 80
2, 195840, Note_on_c, 1, 59, 80
2, 195840, Note_on_c, 1, 62, 80
2, 196295, Note_on_c, 1, 55, 0
2, 196295, Note_on_c, 1, 59, 0
2, 196295, Note_on_c, 1, 62, 0
2, 196320, Note_on_c, 1, 55, 80
2, 196320, Note_on_c, 1, 59, 80
2, 196320, Note_on_c, 1, 62, 80
2, 196775, Note_on_c, 1, 55, 0
2, 196775, Note_on_c, 1, 59, 0
2, 196775, Note_on_c, 1, 62, 0
2, 196800, Note_on_c, 1, 55, 80
2, 196800, Note_on_c, 1, 60, 80
2, 196800, Note_on_c, 1, 64, 80
2, 197711, Note_on_c, 1, 55, 0
2, 197711, Note_on_c, 1, 60, 0
2, 197711, Note_on_c, 1, 64, 0
2, 197760, Note_on_c, 1, 55, 80
2, 197760, Note_on_c, 1, 60, 80
2, 197760, Note_on_c, 1, 64, 80
2, 198671, Note_on_c, 1, 55, 0
2, 198671, Note_on_c, 1, 60, 0
2, 198671, Note_on_c, 1, 64, 0
2, 198720, Note_on_c, 1, 55, 80
2, 198720, Note_on_c, 1, 59, 80
2, 198720, Note_on_c, 1, 62, 80
2, 199631, Note_on_c, 1, 55, 0
2, 199631, Note_on_c, 1, 59, 0
2, 199631, Note_on_c, 1, 62, 0
2, 199680, Note_on_c, 1, 55, 80
2, 199680, Note_on_c, 1, 59, 80
2, 199680, Note_on_c, 1, 62, 80
2, 200591, Note_on_c, 1, 55, 0
2, 200591, Note_on_c, 1, 59, 0
2, 200591, Note_on_c, 1, 62, 0
2, 200640, Note_on_c, 1, 53, 80
2, 200640, Note_on_c, 1, 57, 80
2, 200640, Note_on_c, 1, 62, 80
2, 201551, Note_on_c, 1, 53, 0
2, 201551, Note_on_c, 1, 57, 0
2, 201551, Note_on_c, 1, 62, 0
2, 201600, Note_on_c, 1, 53, 80
2, 201600, Note_on_c, 1, 57, 80
2, 201600, Note_on_c, 1, 62, 80
2, 202511, Note_on_c, 1, 53, 0
2, 202511, Note_on_c, 1, 57, 0
2, 202511, Note_on_c, 1, 62, 0
2, 202560, Note_on_c, 1, 53, 80
2, 202560, Note_on_c, 1, 57, 80
2, 202560, Note_on_c, 1, 60, 80
2, 204383, Note_on_c, 1, 53, 0
2, 204383, Note_on_c, 1, 57, 0
2, 204383, Note_on_c, 1, 60, 0
2, 204480, Note_on_c, 1, 48, 80
2, 204480, Note_on_c, 1, 55, 80
2, 204935, Note_on_c, 1, 48, 0
2, 204935, Note_on_c, 1, 55, 0
2, 204936, End_track
3, 0, Start_track
3, 0, Title_t, "Electric Bass, Bass\000"
3, 0, Key_signature, 0, "major"
3, 0, Control_c, 3, 121, 0
3, 0, Program_c, 3, 33
3, 0, Control_c, 3, 7, 100
3, 0, Control_c, 3, 10, 64
3, 0, Control_c, 3, 91, 0
3, 0, Control_c, 3, 93, 0
3, 0, MIDI_port, 0
3, 0, Note_on_c, 3, 55, 80
3, 0, Control_c, 0, 121, 0
3, 0, Program_c, 0, 36
3, 0, Control_c, 0, 7, 100
3, 0, Control_c, 0, 10, 64
3, 0, Control_c, 0, 91, 0
3, 0, Control_c, 0, 93, 0
3, 0, MIDI_port, 0
3, 0, Control_c, 2, 121, 0
3, 0, Program_c, 2, 37
3, 0, Control_c, 2, 7, 100
3, 0, Control_c, 2, 10, 64
3, 0, Control_c, 2, 91, 0
3, 0, Control_c, 2, 93, 0
3, 0, MIDI_port, 0
3, 359, Note_on_c, 3, 55, 0
3, 360, Note_on_c, 3, 55, 80
3, 479, Note_on_c, 3, 55, 0
3, 480, Note_on_c, 3, 55, 80
3, 959, Note_on_c, 3, 55, 0
3, 960, Note_on_c, 3, 55, 80
3, 1319, Note_on_c, 3, 55, 0
3, 1320, Note_on_c, 3, 55, 80
3, 1439, Note_on_c, 3, 55, 0
3, 1440, Note_on_c, 3, 55, 80
3, 1919, Note_on_c, 3, 55, 0
3, 1920, Note_on_c, 3, 60, 80
3, 2279, Note_on_c, 3, 60, 0
3, 2280, Note_on_c, 3, 60, 80
3, 2399, Note_on_c, 3, 60, 0
3, 2400, Note_on_c, 3, 60, 80
3, 2879, Note_on_c, 3, 60, 0
3, 2880, Note_on_c, 3, 55, 80
3, 3239, Note_on_c, 3, 55, 0
3, 3240, Note_on_c, 3, 55, 80
3, 3359, Note_on_c, 3, 55, 0
3, 3360, Note_on_c, 3, 55, 80
3, 3839, Note_on_c, 3, 55, 0
3, 3840, Note_on_c, 3, 60, 80
3, 4199, Note_on_c, 3, 60, 0
3, 4200, Note_on_c, 3, 60, 80
3, 4319, Note_on_c, 3, 60, 0
3, 4320, Note_on_c, 3, 60, 80
3, 4799, Note_on_c, 3, 60, 0
3, 4800, Note_on_c, 3, 65, 80
3, 5159, Note_on_c, 3, 65, 0
3, 5160, Note_on_c, 3, 65, 80
3, 5279, Note_on_c, 3, 65, 0
3, 5280, Note_on_c, 3, 65, 80
3, 5759, Note_on_c, 3, 65, 0
3, 5760, Note_on_c, 3, 65, 80
3, 6119, Note_on_c, 3, 65, 0
3, 6120, Note_on_c, 3, 65, 80
3, 6239, Note_on_c, 3, 65, 0
3, 6240, Note_on_c, 3, 65, 80
3, 6719, Note_on_c, 3, 65, 0
3, 6720, Note_on_c, 3, 60, 80
3, 7079, Note_on_c, 3, 60, 0
3, 7080, Note_on_c, 3, 60, 80
3, 7199, Note_on_c, 3, 60, 0
3, 7200, Note_on_c, 3, 60, 80
3, 7679, Note_on_c, 3, 60, 0
3, 7680, Note_on_c, 3, 55, 80
3, 8039, Note_on_c, 3, 55, 0
3, 8040, Note_on_c, 3, 55, 80
3, 8159, Note_on_c, 3, 55, 0
3, 8160, Note_on_c, 3, 55, 80
3, 8639, Note_on_c, 3, 55, 0
3, 8640, Note_on_c, 3, 55, 80
3, 8999, Note_on_c, 3, 55, 0
3, 9000, Note_on_c, 3, 55, 80
3, 9119, Note_on_c, 3, 55, 0
3, 9120, Note_on_c, 3, 55, 80
3, 9599, Note_on_c, 3, 55, 0
3, 9600, Note_on_c, 3, 60, 80
3, 9959, Note_on_c, 3, 60, 0
3, 9960, Note_on_c, 3, 60, 80
3, 10079, Note_on_c, 3, 60, 0
3, 10080, Note_on_c, 3, 60, 80
3, 10559, Note_on_c, 3, 60, 0
3, 10560, Note_on_c, 3, 55, 80
3, 10919, Note_on_c, 3, 55, 0
3, 10920, Note_on_c, 3, 55, 80
3, 11039, Note_on_c, 3, 55, 0
3, 11040, Note_on_c, 3, 55, 80
3, 11519, Note_on_c, 3, 55, 0
3, 11520, Note_on_c, 3, 60, 80
3, 11879, Note_on_c, 3, 60, 0
3, 11880, Note_on_c, 3, 60, 80
3, 11999, Note_on_c, 3, 60, 0
3, 12000, Note_on_c, 3, 60, 80
3, 12479, Note_on_c, 3, 60, 0
3, 12480, Note_on_c, 3, 65, 80
3, 12839, Note_on_c, 3, 65, 0
3, 12840, Note_on_c, 3, 65, 80
3, 12959, Note_on_c, 3, 65, 0
3, 12960, Note_on_c, 3, 65, 80
3, 13439, Note_on_c, 3, 65, 0
3, 13440, Note_on_c, 3, 65, 80
3, 13799, Note_on_c, 3, 65, 0
3, 13800, Note_on_c, 3, 65, 80
3, 13919, Note_on_c, 3, 65, 0
3, 13920, Note_on_c, 3, 65, 80
3, 14399, Note_on_c, 3, 65, 0
3, 14400, Note_on_c, 3, 60, 80
3, 14759, Note_on_c, 3, 60, 0
3, 14760, Note_on_c, 3, 60, 80
3, 14879, Note_on_c, 3, 60, 0
3, 14880, Note_on_c, 3, 60, 80
3, 15359, Note_on_c, 3, 60, 0
3, 15360, Note_on_c, 3, 55, 80
3, 15719, Note_on_c, 3, 55, 0
3, 15720, Note_on_c, 3, 55, 80
3, 15839, Note_on_c, 3, 55, 0
3, 15840, Note_on_c, 3, 55, 80
3, 16319, Note_on_c, 3, 55, 0
3, 16320, Note_on_c, 3, 55, 80
3, 16679, Note_on_c, 3, 55, 0
3, 16680, Note_on_c, 3, 55, 80
3, 16799, Note_on_c, 3, 55, 0
3, 16800, Note_on_c, 3, 55, 80
3, 17279, Note_on_c, 3, 55, 0
3, 17280, Note_on_c, 3, 60, 80
3, 17639, Note_on_c, 3, 60, 0
3, 17640, Note_on_c, 3, 60, 80
3, 17759, Note_on_c, 3, 60, 0
3, 17760, Note_on_c, 3, 60, 80
3, 18239, Note_on_c, 3, 60, 0
3, 18240, Note_on_c, 3, 60, 80
3, 18599, Note_on_c, 3, 60, 0
3, 18600, Note_on_c, 3, 60, 80
3, 18719, Note_on_c, 3, 60, 0
3, 18720, Note_on_c, 3, 67, 80
3, 18959, Note_on_c, 3, 67, 0
3, 18960, Note_on_c, 3, 65, 80
3, 19199, Note_on_c, 3, 65, 0
3, 19200, Note_on_c, 3, 64, 80
3, 19559, Note_on_c, 3, 64, 0
3, 19560, Note_on_c, 3, 64, 80
3, 19679, Note_on_c, 3, 64, 0
3, 19680, Note_on_c, 3, 64, 80
3, 20159, Note_on_c, 3, 64, 0
3, 20160, Note_on_c, 3, 64, 80
3, 20519, Note_on_c, 3, 64, 0
3, 20520, Note_on_c, 3, 64, 80
3, 20639, Note_on_c, 3, 64, 0
3, 20640, Note_on_c, 3, 64, 80
3, 20879, Note_on_c, 3, 64, 0
3, 20880, Note_on_c, 3, 67, 80
3, 21119, Note_on_c, 3, 67, 0
3, 21120, Note_on_c, 3, 65, 80
3, 21479, Note_on_c, 3, 65, 0
3, 21480, Note_on_c, 3, 65, 80
3, 21599, Note_on_c, 3, 65, 0
3, 21600, Note_on_c, 3, 65, 80
3, 22079, Note_on_c, 3, 65, 0
3, 22080, Note_on_c, 3, 65, 80
3, 22439, Note_on_c, 3, 65, 0
3, 22440, Note_on_c, 3, 65, 80
3, 22559, Note_on_c, 3, 65, 0
3, 22560, Note_on_c, 3, 65, 80
3, 22799, Note_on_c, 3, 65, 0
3, 22800, Note_on_c, 3, 62, 80
3, 23039, Note_on_c, 3, 62, 0
3, 23040, Note_on_c, 3, 60, 80
3, 23399, Note_on_c, 3, 60, 0
3, 23400, Note_on_c, 3, 60, 80
3, 23519, Note_on_c, 3, 60, 0
3, 23520, Note_on_c, 3, 60, 80
3, 23759, Note_on_c, 3, 60, 0
3, 23760, Note_on_c, 3, 64, 80
3, 23999, Note_on_c, 3, 64, 0
3, 24000, Note_on_c, 3, 67, 80
3, 24359, Note_on_c, 3, 67, 0
3, 24360, Note_on_c, 3, 67, 80
3, 24479, Note_on_c, 3, 67, 0
3, 24480, Note_on_c, 3, 67, 80
3, 24959, Note_on_c, 3, 67, 0
3, 24960, Note_on_c, 3, 60, 80
3, 25319, Note_on_c, 3, 60, 0
3, 25320, Note_on_c, 3, 60, 80
3, 25439, Note_on_c, 3, 60, 0
3, 25440, Note_on_c, 3, 60, 80
3, 25919, Note_on_c, 3, 60, 0
3, 25920, Note_on_c, 3, 60, 80
3, 26279, Note_on_c, 3, 60, 0
3, 26280, Note_on_c, 3, 60, 80
3, 26399, Note_on_c, 3, 60, 0
3, 26400, Note_on_c, 3, 67, 80
3, 26639, Note_on_c, 3, 67, 0
3, 26640, Note_on_c, 3, 65, 80
3, 26879, Note_on_c, 3, 65, 0
3, 26880, Note_on_c, 3, 64, 80
3, 27239, Note_on_c, 3, 64, 0
3, 27240, Note_on_c, 3, 64, 80
3, 27359, Note_on_c, 3, 64, 0
3, 27360, Note_on_c, 3, 64, 80
3, 27839, Note_on_c, 3, 64, 0
3, 27840, Note_on_c, 3, 64, 80
3, 28199, Note_on_c, 3, 64, 0
3, 28200, Note_on_c, 3, 64, 80
3, 28319, Note_on_c, 3, 64, 0
3, 28320, Note_on_c, 3, 64, 80
3, 28559, Note_on_c, 3, 64, 0
3, 28560, Note_on_c, 3, 67, 80
3, 28799, Note_on_c, 3, 67, 0
3, 28800, Note_on_c, 3, 65, 80
3, 29159, Note_on_c, 3, 65, 0
3, 29160, Note_on_c, 3, 65, 80
3, 29279, Note_on_c, 3, 65, 0
3, 29280, Note_on_c, 3, 65, 80
3, 29759, Note_on_c, 3, 65, 0
3, 29760, Note_on_c, 3, 65, 80
3, 30119, Note_on_c, 3, 65, 0
3, 30120, Note_on_c, 3, 65, 80
3, 30239, Note_on_c, 3, 65, 0
3, 30240, Note_on_c, 3, 65, 80
3, 30479, Note_on_c, 3, 65, 0
3, 30480, Note_on_c, 3, 62, 80
3, 30719, Note_on_c, 3, 62, 0
3, 30720, Note_on_c, 3, 60, 80
3, 31079, Note_on_c, 3, 60, 0
3, 31080, Note_on_c, 3, 60, 80
3, 31199, Note_on_c, 3, 60, 0
3, 31200, Note_on_c, 3, 60, 80
3, 31439, Note_on_c, 3, 60, 0
3, 31440, Note_on_c, 3, 64, 80
3, 31679, Note_on_c, 3, 64, 0
3, 31680, Note_on_c, 3, 67, 80
3, 32039, Note_on_c, 3, 67, 0
3, 32040, Note_on_c, 3, 67, 80
3, 32159, Note_on_c, 3, 67, 0
3, 32160, Note_on_c, 3, 67, 80
3, 32639, Note_on_c, 3, 67, 0
3, 32640, Note_on_c, 3, 60, 80
3, 32999, Note_on_c, 3, 60, 0
3, 33000, Note_on_c, 3, 60, 80
3, 33119, Note_on_c, 3, 60, 0
3, 33120, Note_on_c, 3, 60, 80
3, 33599, Note_on_c, 3, 60, 0
3, 33600, Note_on_c, 3, 60, 80
3, 33959, Note_on_c, 3, 60, 0
3, 33960, Note_on_c, 3, 60, 80
3, 34079, Note_on_c, 3, 60, 0
3, 34080, Note_on_c, 3, 67, 80
3, 34319, Note_on_c, 3, 67, 0
3, 34320, Note_on_c, 3, 65, 80
3, 34559, Note_on_c, 3, 65, 0
3, 34560, Note_on_c, 3, 64, 80
3, 34919, Note_on_c, 3, 64, 0
3, 34920, Note_on_c, 3, 64, 80
3, 35039, Note_on_c, 3, 64, 0
3, 35040, Note_on_c, 3, 64, 80
3, 35519, Note_on_c, 3, 64, 0
3, 35520, Note_on_c, 3, 64, 80
3, 35879, Note_on_c, 3, 64, 0
3, 35880, Note_on_c, 3, 64, 80
3, 35999, Note_on_c, 3, 64, 0
3, 36000, Note_on_c, 3, 64, 80
3, 36239, Note_on_c, 3, 64, 0
3, 36240, Note_on_c, 3, 67, 80
3, 36479, Note_on_c, 3, 67, 0
3, 36480, Note_on_c, 3, 65, 80
3, 36839, Note_on_c, 3, 65, 0
3, 36840, Note_on_c, 3, 65, 80
3, 36959, Note_on_c, 3, 65, 0
3, 36960, Note_on_c, 3, 65, 80
3, 37439, Note_on_c, 3, 65, 0
3, 37440, Note_on_c, 3, 65, 80
3, 37799, Note_on_c, 3, 65, 0
3, 37800, Note_on_c, 3, 65, 80
3, 37919, Note_on_c, 3, 65, 0
3, 37920, Note_on_c, 3, 65, 80
3, 38159, Note_on_c, 3, 65, 0
3, 38160, Note_on_c, 3, 62, 80
3, 38399, Note_on_c, 3, 62, 0
3, 38400, Note_on_c, 3, 60, 80
3, 38759, Note_on_c, 3, 60, 0
3, 38760, Note_on_c, 3, 60, 80
3, 38879, Note_on_c, 3, 60, 0
3, 38880, Note_on_c, 3, 60, 80
3, 39119, Note_on_c, 3, 60, 0
3, 39120, Note_on_c, 3, 64, 80
3, 39359, Note_on_c, 3, 64, 0
3, 39360, Note_on_c, 3, 67, 80
3, 39719, Note_on_c, 3, 67, 0
3, 39720, Note_on_c, 3, 67, 80
3, 39839, Note_on_c, 3, 67, 0
3, 39840, Note_on_c, 3, 67, 80
3, 40319, Note_on_c, 3, 67, 0
3, 40320, Note_on_c, 3, 60, 80
3, 40679, Note_on_c, 3, 60, 0
3, 40680, Note_on_c, 3, 60, 80
3, 40799, Note_on_c, 3, 60, 0
3, 40800, Note_on_c, 3, 60, 80
3, 41279, Note_on_c, 3, 60, 0
3, 41280, Note_on_c, 3, 60, 80
3, 41639, Note_on_c, 3, 60, 0
3, 41640, Note_on_c, 3, 60, 80
3, 41759, Note_on_c, 3, 60, 0
3, 41760, Note_on_c, 3, 67, 80
3, 41999, Note_on_c, 3, 67, 0
3, 42000, Note_on_c, 3, 65, 80
3, 42239, Note_on_c, 3, 65, 0
3, 42240, Note_on_c, 3, 64, 80
3, 42599, Note_on_c, 3, 64, 0
3, 42600, Note_on_c, 3, 64, 80
3, 42719, Note_on_c, 3, 64, 0
3, 42720, Note_on_c, 3, 64, 80
3, 43199, Note_on_c, 3, 64, 0
3, 43200, Note_on_c, 3, 64, 80
3, 43559, Note_on_c, 3, 64, 0
3, 43560, Note_on_c, 3, 64, 80
3, 43679, Note_on_c, 3, 64, 0
3, 43680, Note_on_c, 3, 64, 80
3, 43919, Note_on_c, 3, 64, 0
3, 43920, Note_on_c, 3, 67, 80
3, 44159, Note_on_c, 3, 67, 0
3, 44160, Note_on_c, 3, 65, 80
3, 44519, Note_on_c, 3, 65, 0
3, 44520, Note_on_c, 3, 65, 80
3, 44639, Note_on_c, 3, 65, 0
3, 44640, Note_on_c, 3, 65, 80
3, 45119, Note_on_c, 3, 65, 0
3, 45120, Note_on_c, 3, 65, 80
3, 45479, Note_on_c, 3, 65, 0
3, 45480, Note_on_c, 3, 65, 80
3, 45599, Note_on_c, 3, 65, 0
3, 45600, Note_on_c, 3, 65, 80
3, 45839, Note_on_c, 3, 65, 0
3, 45840, Note_on_c, 3, 62, 80
3, 46079, Note_on_c, 3, 62, 0
3, 46080, Note_on_c, 3, 60, 80
3, 46439, Note_on_c, 3, 60, 0
3, 46440, Note_on_c, 3, 60, 80
3, 46559, Note_on_c, 3, 60, 0
3, 46560, Note_on_c, 3, 60, 80
3, 46799, Note_on_c, 3, 60, 0
3, 46800, Note_on_c, 3, 64, 80
3, 47039, Note_on_c, 3, 64, 0
3, 47040, Note_on_c, 3, 67, 80
3, 47399, Note_on_c, 3, 67, 0
3, 47400, Note_on_c, 3, 67, 80
3, 47519, Note_on_c, 3, 67, 0
3, 47520, Note_on_c, 3, 67, 80
3, 47999, Note_on_c, 3, 67, 0
3, 48000, Note_on_c, 3, 60, 80
3, 48359, Note_on_c, 3, 60, 0
3, 48360, Note_on_c, 3, 60, 80
3, 48479, Note_on_c, 3, 60, 0
3, 48480, Note_on_c, 3, 60, 80
3, 48959, Note_on_c, 3, 60, 0
3, 48960, Note_on_c, 3, 60, 80
3, 49319, Note_on_c, 3, 60, 0
3, 49320, Note_on_c, 3, 60, 80
3, 49439, Note_on_c, 3, 60, 0
3, 49440, Note_on_c, 3, 67, 80
3, 49679, Note_on_c, 3, 67, 0
3, 49680, Note_on_c, 3, 65, 80
3, 49919, Note_on_c, 3, 65, 0
3, 49920, Note_on_c, 3, 64, 80
3, 50279, Note_on_c, 3, 64, 0
3, 50280, Note_on_c, 3, 64, 80
3, 50399, Note_on_c, 3, 64, 0
3, 50400, Note_on_c, 3, 64, 80
3, 50879, Note_on_c, 3, 64, 0
3, 50880, Note_on_c, 3, 64, 80
3, 51239, Note_on_c, 3, 64, 0
3, 51240, Note_on_c, 3, 64, 80
3, 51359, Note_on_c, 3, 64, 0
3, 51360, Note_on_c, 3, 64, 80
3, 51599, Note_on_c, 3, 64, 0
3, 51600, Note_on_c, 3, 67, 80
3, 51839, Note_on_c, 3, 67, 0
3, 51840, Note_on_c, 3, 65, 80
3, 52199, Note_on_c, 3, 65, 0
3, 52200, Note_on_c, 3, 65, 80
3, 52319, Note_on_c, 3, 65, 0
3, 52320, Note_on_c, 3, 65, 80
3, 52799, Note_on_c, 3, 65, 0
3, 52800, Note_on_c, 3, 65, 80
3, 53159, Note_on_c, 3, 65, 0
3, 53160, Note_on_c, 3, 65, 80
3, 53279, Note_on_c, 3, 65, 0
3, 53280, Note_on_c, 3, 65, 80
3, 53519, Note_on_c, 3, 65, 0
3, 53520, Note_on_c, 3, 62, 80
3, 53759, Note_on_c, 3, 62, 0
3, 53760, Note_on_c, 3, 60, 80
3, 54119, Note_on_c, 3, 60, 0
3, 54120, Note_on_c, 3, 60, 80
3, 54239, Note_on_c, 3, 60, 0
3, 54240, Note_on_c, 3, 60, 80
3, 54479, Note_on_c, 3, 60, 0
3, 54480, Note_on_c, 3, 64, 80
3, 54719, Note_on_c, 3, 64, 0
3, 54720, Note_on_c, 3, 67, 80
3, 55079, Note_on_c, 3, 67, 0
3, 55080, Note_on_c, 3, 67, 80
3, 55199, Note_on_c, 3, 67, 0
3, 55200, Note_on_c, 3, 67, 80
3, 55679, Note_on_c, 3, 67, 0
3, 55680, Note_on_c, 3, 60, 80
3, 56039, Note_on_c, 3, 60, 0
3, 56040, Note_on_c, 3, 60, 80
3, 56159, Note_on_c, 3, 60, 0
3, 56160, Note_on_c, 3, 60, 80
3, 56639, Note_on_c, 3, 60, 0
3, 56640, Note_on_c, 3, 60, 80
3, 56999, Note_on_c, 3, 60, 0
3, 57000, Note_on_c, 3, 60, 80
3, 57119, Note_on_c, 3, 60, 0
3, 57120, Note_on_c, 3, 67, 80
3, 57359, Note_on_c, 3, 67, 0
3, 57360, Note_on_c, 3, 65, 80
3, 57599, Note_on_c, 3, 65, 0
3, 57600, Note_on_c, 3, 64, 80
3, 57959, Note_on_c, 3, 64, 0
3, 57960, Note_on_c, 3, 64, 80
3, 58079, Note_on_c, 3, 64, 0
3, 58080, Note_on_c, 3, 64, 80
3, 58559, Note_on_c, 3, 64, 0
3, 58560, Note_on_c, 3, 64, 80
3, 58919, Note_on_c, 3, 64, 0
3, 58920, Note_on_c, 3, 64, 80
3, 59039, Note_on_c, 3, 64, 0
3, 59040, Note_on_c, 3, 64, 80
3, 59279, Note_on_c, 3, 64, 0
3, 59280, Note_on_c, 3, 67, 80
3, 59519, Note_on_c, 3, 67, 0
3, 59520, Note_on_c, 3, 65, 80
3, 59879, Note_on_c, 3, 65, 0
3, 59880, Note_on_c, 3, 65, 80
3, 59999, Note_on_c, 3, 65, 0
3, 60000, Note_on_c, 3, 65, 80
3, 60479, Note_on_c, 3, 65, 0
3, 60480, Note_on_c, 3, 65, 80
3, 60839, Note_on_c, 3, 65, 0
3, 60840, Note_on_c, 3, 65, 80
3, 60959, Note_on_c, 3, 65, 0
3, 60960, Note_on_c, 3, 65, 80
3, 61199, Note_on_c, 3, 65, 0
3, 61200, Note_on_c, 3, 62, 80
3, 61439, Note_on_c, 3, 62, 0
3, 61440, Note_on_c, 3, 60, 80
3, 61799, Note_on_c, 3, 60, 0
3, 61800, Note_on_c, 3, 60, 80
3, 61919, Note_on_c, 3, 60, 0
3, 61920, Note_on_c, 3, 60, 80
3, 62159, Note_on_c, 3, 60, 0
3, 62160, Note_on_c, 3, 64, 80
3, 62399, Note_on_c, 3, 64, 0
3, 62400, Note_on_c, 3, 67, 80
3, 62759, Note_on_c, 3, 67, 0
3, 62760, Note_on_c, 3, 67, 80
3, 62879, Note_on_c, 3, 67, 0
3, 62880, Note_on_c, 3, 67, 80
3, 63359, Note_on_c, 3, 67, 0
3, 65280, Note_on_c, 3, 55, 80
3, 65639, Note_on_c, 3, 55, 0
3, 65640, Note_on_c, 3, 55, 80
3, 65759, Note_on_c, 3, 55, 0
3, 65760, Note_on_c, 3, 55, 80
3, 66239, Note_on_c, 3, 55, 0
3, 66240, Note_on_c, 3, 60, 96
3, 66479, Note_on_c, 3, 60, 0
3, 66480, Note_on_c, 3, 57, 96
3, 66719, Note_on_c, 3, 57, 0
3, 66720, Note_on_c, 3, 55, 96
3, 66959, Note_on_c, 3, 55, 0
3, 66960, Note_on_c, 3, 60, 96
3, 67439, Note_on_c, 3, 60, 0
3, 67440, Note_on_c, 3, 57, 96
3, 67679, Note_on_c, 3, 57, 0
3, 67680, Note_on_c, 3, 55, 96
3, 67919, Note_on_c, 3, 55, 0
3, 67920, Note_on_c, 3, 57, 96
3, 68159, Note_on_c, 3, 57, 0
3, 68160, Note_on_c, 3, 67, 96
3, 68399, Note_on_c, 3, 67, 0
3, 68400, Note_on_c, 3, 64, 96
3, 68639, Note_on_c, 3, 64, 0
3, 68640, Note_on_c, 3, 62, 96
3, 68879, Note_on_c, 3, 62, 0
3, 68880, Note_on_c, 3, 67, 96
3, 69359, Note_on_c, 3, 67, 0
3, 69360, Note_on_c, 3, 64, 96
3, 69599, Note_on_c, 3, 64, 0
3, 69600, Note_on_c, 3, 62, 96
3, 69839, Note_on_c, 3, 62, 0
3, 69840, Note_on_c, 3, 64, 96
3, 70079, Note_on_c, 3, 64, 0
3, 70080, Note_on_c, 3, 62, 96
3, 70319, Note_on_c, 3, 62, 0
3, 70320, Note_on_c, 3, 60, 96
3, 70559, Note_on_c, 3, 60, 0
3, 70560, Note_on_c, 3, 57, 96
3, 70799, Note_on_c, 3, 57, 0
3, 70800, Note_on_c, 3, 62, 96
3, 71279, Note_on_c, 3, 62, 0
3, 71280, Note_on_c, 3, 60, 96
3, 71519, Note_on_c, 3, 60, 0
3, 71520, Note_on_c, 3, 57, 96
3, 71759, Note_on_c, 3, 57, 0
3, 71760, Note_on_c, 3, 55, 96
3, 71999, Note_on_c, 3, 55, 0
3, 72000, Note_on_c, 3, 53, 96
3, 72239, Note_on_c, 3, 53, 0
3, 72240, Note_on_c, 3, 60, 96
3, 72479, Note_on_c, 3, 60, 0
3, 72480, Note_on_c, 3, 62, 96
3, 72719, Note_on_c, 3, 62, 0
3, 72720, Note_on_c, 3, 65, 96
3, 72959, Note_on_c, 3, 65, 0
3, 72960, Note_on_c, 3, 67, 96
3, 73199, Note_on_c, 3, 67, 0
3, 73200, Note_on_c, 3, 62, 96
3, 73439, Note_on_c, 3, 62, 0
3, 73440, Note_on_c, 3, 65, 96
3, 73679, Note_on_c, 3, 65, 0
3, 73680, Note_on_c, 3, 67, 96
3, 73919, Note_on_c, 3, 67, 0
3, 73920, Note_on_c, 3, 60, 96
3, 74159, Note_on_c, 3, 60, 0
3, 74160, Note_on_c, 3, 57, 96
3, 74399, Note_on_c, 3, 57, 0
3, 74400, Note_on_c, 3, 55, 96
3, 74639, Note_on_c, 3, 55, 0
3, 74640, Note_on_c, 3, 60, 96
3, 75119, Note_on_c, 3, 60, 0
3, 75120, Note_on_c, 3, 57, 96
3, 75359, Note_on_c, 3, 57, 0
3, 75360, Note_on_c, 3, 55, 96
3, 75599, Note_on_c, 3, 55, 0
3, 75600, Note_on_c, 3, 57, 96
3, 75839, Note_on_c, 3, 57, 0
3, 75840, Note_on_c, 3, 67, 96
3, 76079, Note_on_c, 3, 67, 0
3, 76080, Note_on_c, 3, 64, 96
3, 76319, Note_on_c, 3, 64, 0
3, 76320, Note_on_c, 3, 62, 96
3, 76559, Note_on_c, 3, 62, 0
3, 76560, Note_on_c, 3, 67, 96
3, 77039, Note_on_c, 3, 67, 0
3, 77040, Note_on_c, 3, 64, 96
3, 77279, Note_on_c, 3, 64, 0
3, 77280, Note_on_c, 3, 62, 96
3, 77519, Note_on_c, 3, 62, 0
3, 77520, Note_on_c, 3, 64, 96
3, 77759, Note_on_c, 3, 64, 0
3, 77760, Note_on_c, 3, 62, 96
3, 77999, Note_on_c, 3, 62, 0
3, 78000, Note_on_c, 3, 60, 96
3, 78239, Note_on_c, 3, 60, 0
3, 78240, Note_on_c, 3, 57, 96
3, 78479, Note_on_c, 3, 57, 0
3, 78480, Note_on_c, 3, 62, 96
3, 78959, Note_on_c, 3, 62, 0
3, 78960, Note_on_c, 3, 60, 96
3, 79199, Note_on_c, 3, 60, 0
3, 79200, Note_on_c, 3, 57, 96
3, 79439, Note_on_c, 3, 57, 0
3, 79440, Note_on_c, 3, 55, 96
3, 79679, Note_on_c, 3, 55, 0
3, 79680, Note_on_c, 3, 53, 96
3, 79919, Note_on_c, 3, 53, 0
3, 79920, Note_on_c, 3, 60, 96
3, 80159, Note_on_c, 3, 60, 0
3, 80160, Note_on_c, 3, 62, 96
3, 80399, Note_on_c, 3, 62, 0
3, 80400, Note_on_c, 3, 65, 96
3, 80639, Note_on_c, 3, 65, 0
3, 80640, Note_on_c, 3, 67, 96
3, 80879, Note_on_c, 3, 67, 0
3, 80880, Note_on_c, 3, 62, 96
3, 81119, Note_on_c, 3, 62, 0
3, 81120, Note_on_c, 3, 65, 96
3, 81359, Note_on_c, 3, 65, 0
3, 81360, Note_on_c, 3, 67, 96
3, 81599, Note_on_c, 3, 67, 0
3, 85440, Note_on_c, 3, 55, 80
3, 85799, Note_on_c, 3, 55, 0
3, 85800, Note_on_c, 3, 55, 80
3, 85919, Note_on_c, 3, 55, 0
3, 85920, Note_on_c, 3, 55, 80
3, 86399, Note_on_c, 3, 55, 0
3, 86400, Note_on_c, 3, 55, 80
3, 86759, Note_on_c, 3, 55, 0
3, 86760, Note_on_c, 3, 55, 80
3, 86879, Note_on_c, 3, 55, 0
3, 86880, Note_on_c, 3, 62, 80
3, 87119, Note_on_c, 3, 62, 0
3, 87120, Note_on_c, 3, 60, 80
3, 87359, Note_on_c, 3, 60, 0
3, 87360, Note_on_c, 3, 59, 80
3, 87719, Note_on_c, 3, 59, 0
3, 87720, Note_on_c, 3, 59, 80
3, 87839, Note_on_c, 3, 59, 0
3, 87840, Note_on_c, 3, 59, 80
3, 88319, Note_on_c, 3, 59, 0
3, 88320, Note_on_c, 3, 59, 80
3, 88679, Note_on_c, 3, 59, 0
3, 88680, Note_on_c, 3, 59, 80
3, 88799, Note_on_c, 3, 59, 0
3, 88800, Note_on_c, 3, 59, 80
3, 89039, Note_on_c, 3, 59, 0
3, 89040, Note_on_c, 3, 62, 80
3, 89279, Note_on_c, 3, 62, 0
3, 89280, Note_on_c, 3, 60, 80
3, 89639, Note_on_c, 3, 60, 0
3, 89640, Note_on_c, 3, 60, 80
3, 89759, Note_on_c, 3, 60, 0
3, 89760, Note_on_c, 3, 60, 80
3, 90239, Note_on_c, 3, 60, 0
3, 90240, Note_on_c, 3, 60, 80
3, 90599, Note_on_c, 3, 60, 0
3, 90600, Note_on_c, 3, 60, 80
3, 90719, Note_on_c, 3, 60, 0
3, 90720, Note_on_c, 3, 60, 80
3, 90959, Note_on_c, 3, 60, 0
3, 90960, Note_on_c, 3, 57, 80
3, 91199, Note_on_c, 3, 57, 0
3, 91200, Note_on_c, 3, 55, 80
3, 91559, Note_on_c, 3, 55, 0
3, 91560, Note_on_c, 3, 55, 80
3, 91679, Note_on_c, 3, 55, 0
3, 91680, Note_on_c, 3, 55, 80
3, 91919, Note_on_c, 3, 55, 0
3, 91920, Note_on_c, 3, 59, 80
3, 92159, Note_on_c, 3, 59, 0
3, 92160, Note_on_c, 3, 62, 80
3, 92519, Note_on_c, 3, 62, 0
3, 92520, Note_on_c, 3, 62, 80
3, 92639, Note_on_c, 3, 62, 0
3, 92640, Note_on_c, 3, 62, 80
3, 93119, Note_on_c, 3, 62, 0
3, 93120, Note_on_c, 3, 55, 80
3, 93479, Note_on_c, 3, 55, 0
3, 93480, Note_on_c, 3, 55, 80
3, 93599, Note_on_c, 3, 55, 0
3, 93600, Note_on_c, 3, 55, 80
3, 94079, Note_on_c, 3, 55, 0
3, 94080, Note_on_c, 3, 55, 80
3, 94439, Note_on_c, 3, 55, 0
3, 94440, Note_on_c, 3, 55, 80
3, 94559, Note_on_c, 3, 55, 0
3, 94560, Note_on_c, 3, 62, 80
3, 94799, Note_on_c, 3, 62, 0
3, 94800, Note_on_c, 3, 60, 80
3, 95039, Note_on_c, 3, 60, 0
3, 95040, Note_on_c, 3, 59, 80
3, 95399, Note_on_c, 3, 59, 0
3, 95400, Note_on_c, 3, 59, 80
3, 95519, Note_on_c, 3, 59, 0
3, 95520, Note_on_c, 3, 59, 80
3, 95999, Note_on_c, 3, 59, 0
3, 96000, Note_on_c, 3, 59, 80
3, 96359, Note_on_c, 3, 59, 0
3, 96360, Note_on_c, 3, 59, 80
3, 96479, Note_on_c, 3, 59, 0
3, 96480, Note_on_c, 3, 59, 80
3, 96719, Note_on_c, 3, 59, 0
3, 96720, Note_on_c, 3, 62, 80
3, 96959, Note_on_c, 3, 62, 0
3, 96960, Note_on_c, 3, 60, 80
3, 97319, Note_on_c, 3, 60, 0
3, 97320, Note_on_c, 3, 60, 80
3, 97439, Note_on_c, 3, 60, 0
3, 97440, Note_on_c, 3, 60, 80
3, 97919, Note_on_c, 3, 60, 0
3, 97920, Note_on_c, 3, 60, 80
3, 98279, Note_on_c, 3, 60, 0
3, 98280, Note_on_c, 3, 60, 80
3, 98399, Note_on_c, 3, 60, 0
3, 98400, Note_on_c, 3, 60, 80
3, 98639, Note_on_c, 3, 60, 0
3, 98640, Note_on_c, 3, 57, 80
3, 98879, Note_on_c, 3, 57, 0
3, 98880, Note_on_c, 3, 55, 80
3, 99239, Note_on_c, 3, 55, 0
3, 99240, Note_on_c, 3, 55, 80
3, 99359, Note_on_c, 3, 55, 0
3, 99360, Note_on_c, 3, 55, 80
3, 99599, Note_on_c, 3, 55, 0
3, 99600, Note_on_c, 3, 59, 80
3, 99839, Note_on_c, 3, 59, 0
3, 99840, Note_on_c, 3, 62, 80
3, 100199, Note_on_c, 3, 62, 0
3, 100200, Note_on_c, 3, 62, 80
3, 100319, Note_on_c, 3, 62, 0
3, 100320, Note_on_c, 3, 62, 80
3, 100799, Note_on_c, 3, 62, 0
3, 100800, Note_on_c, 3, 55, 96
3, 101159, Note_on_c, 3, 55, 0
3, 101160, Note_on_c, 3, 55, 96
3, 101279, Note_on_c, 3, 55, 0
3, 101280, Note_on_c, 3, 55, 96
3, 101759, Note_on_c, 3, 55, 0
3, 101760, Note_on_c, 3, 55, 96
3, 102119, Note_on_c, 3, 55, 0
3, 102120, Note_on_c, 3, 55, 96
3, 102239, Note_on_c, 3, 55, 0
3, 102240, Note_on_c, 3, 62, 96
3, 102479, Note_on_c, 3, 62, 0
3, 102480, Note_on_c, 3, 60, 96
3, 102719, Note_on_c, 3, 60, 0
3, 102720, Note_on_c, 3, 59, 96
3, 103079, Note_on_c, 3, 59, 0
3, 103080, Note_on_c, 3, 59, 96
3, 103199, Note_on_c, 3, 59, 0
3, 103200, Note_on_c, 3, 59, 96
3, 103679, Note_on_c, 3, 59, 0
3, 103680, Note_on_c, 3, 59, 96
3, 104039, Note_on_c, 3, 59, 0
3, 104040, Note_on_c, 3, 59, 96
3, 104159, Note_on_c, 3, 59, 0
3, 104160, Note_on_c, 3, 59, 96
3, 104399, Note_on_c, 3, 59, 0
3, 104400, Note_on_c, 3, 62, 96
3, 104639, Note_on_c, 3, 62, 0
3, 104640, Note_on_c, 3, 60, 96
3, 104999, Note_on_c, 3, 60, 0
3, 105000, Note_on_c, 3, 60, 96
3, 105119, Note_on_c, 3, 60, 0
3, 105120, Note_on_c, 3, 60, 96
3, 105599, Note_on_c, 3, 60, 0
3, 105600, Note_on_c, 3, 60, 96
3, 105959, Note_on_c, 3, 60, 0
3, 105960, Note_on_c, 3, 60, 96
3, 106079, Note_on_c, 3, 60, 0
3, 106080, Note_on_c, 3, 60, 96
3, 106319, Note_on_c, 3, 60, 0
3, 106320, Note_on_c, 3, 57, 96
3, 106559, Note_on_c, 3, 57, 0
3, 106560, Note_on_c, 3, 55, 96
3, 106919, Note_on_c, 3, 55, 0
3, 106920, Note_on_c, 3, 55, 96
3, 107039, Note_on_c, 3, 55, 0
3, 107040, Note_on_c, 3, 55, 96
3, 107279, Note_on_c, 3, 55, 0
3, 107280, Note_on_c, 3, 59, 96
3, 107519, Note_on_c, 3, 59, 0
3, 107520, Note_on_c, 3, 62, 96
3, 107879, Note_on_c, 3, 62, 0
3, 107880, Note_on_c, 3, 62, 96
3, 107999, Note_on_c, 3, 62, 0
3, 108000, Note_on_c, 3, 62, 96
3, 108479, Note_on_c, 3, 62, 0
3, 108480, Note_on_c, 3, 55, 80
3, 108839, Note_on_c, 3, 55, 0
3, 108840, Note_on_c, 3, 55, 80
3, 108959, Note_on_c, 3, 55, 0
3, 108960, Note_on_c, 3, 55, 80
3, 109439, Note_on_c, 3, 55, 0
3, 109440, Note_on_c, 3, 55, 80
3, 109799, Note_on_c, 3, 55, 0
3, 109800, Note_on_c, 3, 55, 80
3, 109919, Note_on_c, 3, 55, 0
3, 109920, Note_on_c, 3, 62, 80
3, 110159, Note_on_c, 3, 62, 0
3, 110160, Note_on_c, 3, 60, 80
3, 110399, Note_on_c, 3, 60, 0
3, 110400, Note_on_c, 3, 59, 80
3, 110759, Note_on_c, 3, 59, 0
3, 110760, Note_on_c, 3, 59, 80
3, 110879, Note_on_c, 3, 59, 0
3, 110880, Note_on_c, 3, 59, 80
3, 111359, Note_on_c, 3, 59, 0
3, 111360, Note_on_c, 3, 59, 80
3, 111719, Note_on_c, 3, 59, 0
3, 111720, Note_on_c, 3, 59, 80
3, 111839, Note_on_c, 3, 59, 0
3, 111840, Note_on_c, 3, 59, 80
3, 112079, Note_on_c, 3, 59, 0
3, 112080, Note_on_c, 3, 62, 80
3, 112319, Note_on_c, 3, 62, 0
3, 112320, Note_on_c, 3, 60, 80
3, 112679, Note_on_c, 3, 60, 0
3, 112680, Note_on_c, 3, 60, 80
3, 112799, Note_on_c, 3, 60, 0
3, 112800, Note_on_c, 3, 60, 80
3, 113279, Note_on_c, 3, 60, 0
3, 113280, Note_on_c, 3, 60, 80
3, 113639, Note_on_c, 3, 60, 0
3, 113640, Note_on_c, 3, 60, 80
3, 113759, Note_on_c, 3, 60, 0
3, 113760, Note_on_c, 3, 60, 80
3, 113999, Note_on_c, 3, 60, 0
3, 114000, Note_on_c, 3, 57, 80
3, 114239, Note_on_c, 3, 57, 0
3, 114240, Note_on_c, 3, 55, 80
3, 114599, Note_on_c, 3, 55, 0
3, 114600, Note_on_c, 3, 55, 80
3, 114719, Note_on_c, 3, 55, 0
3, 114720, Note_on_c, 3, 55, 80
3, 114959, Note_on_c, 3, 55, 0
3, 114960, Note_on_c, 3, 59, 80
3, 115199, Note_on_c, 3, 59, 0
3, 115200, Note_on_c, 3, 62, 80
3, 115559, Note_on_c, 3, 62, 0
3, 115560, Note_on_c, 3, 62, 80
3, 115679, Note_on_c, 3, 62, 0
3, 115680, Note_on_c, 3, 62, 80
3, 116159, Note_on_c, 3, 62, 0
3, 116160, Note_on_c, 3, 55, 80
3, 116519, Note_on_c, 3, 55, 0
3, 116520, Note_on_c, 3, 55, 80
3, 116639, Note_on_c, 3, 55, 0
3, 116640, Note_on_c, 3, 55, 80
3, 117119, Note_on_c, 3, 55, 0
3, 117120, Note_on_c, 3, 55, 80
3, 117479, Note_on_c, 3, 55, 0
3, 117480, Note_on_c, 3, 55, 80
3, 117599, Note_on_c, 3, 55, 0
3, 117600, Note_on_c, 3, 62, 80
3, 117839, Note_on_c, 3, 62, 0
3, 117840, Note_on_c, 3, 60, 80
3, 118079, Note_on_c, 3, 60, 0
3, 118080, Note_on_c, 3, 59, 80
3, 118439, Note_on_c, 3, 59, 0
3, 118440, Note_on_c, 3, 59, 80
3, 118559, Note_on_c, 3, 59, 0
3, 118560, Note_on_c, 3, 59, 80
3, 119039, Note_on_c, 3, 59, 0
3, 119040, Note_on_c, 3, 59, 80
3, 119399, Note_on_c, 3, 59, 0
3, 119400, Note_on_c, 3, 59, 80
3, 119519, Note_on_c, 3, 59, 0
3, 119520, Note_on_c, 3, 59, 80
3, 119759, Note_on_c, 3, 59, 0
3, 119760, Note_on_c, 3, 62, 80
3, 119999, Note_on_c, 3, 62, 0
3, 120000, Note_on_c, 3, 60, 80
3, 120359, Note_on_c, 3, 60, 0
3, 120360, Note_on_c, 3, 60, 80
3, 120479, Note_on_c, 3, 60, 0
3, 120480, Note_on_c, 3, 60, 80
3, 120959, Note_on_c, 3, 60, 0
3, 120960, Note_on_c, 3, 60, 80
3, 121319, Note_on_c, 3, 60, 0
3, 121320, Note_on_c, 3, 60, 80
3, 121439, Note_on_c, 3, 60, 0
3, 121440, Note_on_c, 3, 60, 80
3, 121679, Note_on_c, 3, 60, 0
3, 121680, Note_on_c, 3, 57, 80
3, 121919, Note_on_c, 3, 57, 0
3, 121920, Note_on_c, 3, 55, 80
3, 122279, Note_on_c, 3, 55, 0
3, 122280, Note_on_c, 3, 55, 80
3, 122399, Note_on_c, 3, 55, 0
3, 122400, Note_on_c, 3, 55, 80
3, 122639, Note_on_c, 3, 55, 0
3, 122640, Note_on_c, 3, 59, 80
3, 122879, Note_on_c, 3, 59, 0
3, 122880, Note_on_c, 3, 62, 80
3, 123239, Note_on_c, 3, 62, 0
3, 123240, Note_on_c, 3, 62, 80
3, 123359, Note_on_c, 3, 62, 0
3, 123360, Note_on_c, 3, 62, 80
3, 123839, Note_on_c, 3, 62, 0
3, 123840, Note_on_c, 3, 55, 80
3, 124199, Note_on_c, 3, 55, 0
3, 124200, Note_on_c, 3, 55, 80
3, 124319, Note_on_c, 3, 55, 0
3, 124320, Note_on_c, 3, 55, 80
3, 124799, Note_on_c, 3, 55, 0
3, 124800, Note_on_c, 3, 55, 80
3, 125159, Note_on_c, 3, 55, 0
3, 125160, Note_on_c, 3, 55, 80
3, 125279, Note_on_c, 3, 55, 0
3, 125280, Note_on_c, 3, 62, 80
3, 125519, Note_on_c, 3, 62, 0
3, 125520, Note_on_c, 3, 60, 80
3, 125759, Note_on_c, 3, 60, 0
3, 125760, Note_on_c, 3, 59, 80
3, 126119, Note_on_c, 3, 59, 0
3, 126120, Note_on_c, 3, 59, 80
3, 126239, Note_on_c, 3, 59, 0
3, 126240, Note_on_c, 3, 59, 80
3, 126719, Note_on_c, 3, 59, 0
3, 126720, Note_on_c, 3, 59, 80
3, 127079, Note_on_c, 3, 59, 0
3, 127080, Note_on_c, 3, 59, 80
3, 127199, Note_on_c, 3, 59, 0
3, 127200, Note_on_c, 3, 59, 80
3, 127439, Note_on_c, 3, 59, 0
3, 127440, Note_on_c, 3, 62, 80
3, 127679, Note_on_c, 3, 62, 0
3, 127680, Note_on_c, 3, 60, 80
3, 128039, Note_on_c, 3, 60, 0
3, 128040, Note_on_c, 3, 60, 80
3, 128159, Note_on_c, 3, 60, 0
3, 128160, Note_on_c, 3, 60, 80
3, 128639, Note_on_c, 3, 60, 0
3, 128640, Note_on_c, 3, 60, 80
3, 128999, Note_on_c, 3, 60, 0
3, 129000, Note_on_c, 3, 60, 80
3, 129119, Note_on_c, 3, 60, 0
3, 129120, Note_on_c, 3, 60, 80
3, 129359, Note_on_c, 3, 60, 0
3, 129360, Note_on_c, 3, 57, 80
3, 129599, Note_on_c, 3, 57, 0
3, 129600, Note_on_c, 3, 55, 80
3, 129959, Note_on_c, 3, 55, 0
3, 129960, Note_on_c, 3, 55, 80
3, 130079, Note_on_c, 3, 55, 0
3, 130080, Note_on_c, 3, 55, 80
3, 130319, Note_on_c, 3, 55, 0
3, 130320, Note_on_c, 3, 59, 80
3, 130559, Note_on_c, 3, 59, 0
3, 130560, Note_on_c, 3, 62, 80
3, 130919, Note_on_c, 3, 62, 0
3, 130920, Note_on_c, 3, 62, 80
3, 131039, Note_on_c, 3, 62, 0
3, 131040, Note_on_c, 3, 62, 80
3, 131519, Note_on_c, 3, 62, 0
3, 133440, Note_on_c, 3, 55, 96
3, 133799, Note_on_c, 3, 55, 0
3, 133800, Note_on_c, 3, 55, 96
3, 133919, Note_on_c, 3, 55, 0
3, 133920, Note_on_c, 3, 55, 96
3, 134399, Note_on_c, 3, 55, 0
3, 134400, Note_on_c, 3, 60, 96
3, 134639, Note_on_c, 3, 60, 0
3, 134640, Note_on_c, 3, 57, 96
3, 134879, Note_on_c, 3, 57, 0
3, 134880, Note_on_c, 3, 55, 96
3, 135119, Note_on_c, 3, 55, 0
3, 135120, Note_on_c, 3, 60, 96
3, 135599, Note_on_c, 3, 60, 0
3, 135600, Note_on_c, 3, 57, 96
3, 135839, Note_on_c, 3, 57, 0
3, 135840, Note_on_c, 3, 55, 96
3, 136079, Note_on_c, 3, 55, 0
3, 136080, Note_on_c, 3, 57, 96
3, 136319, Note_on_c, 3, 57, 0
3, 136320, Note_on_c, 3, 67, 96
3, 136559, Note_on_c, 3, 67, 0
3, 136560, Note_on_c, 3, 64, 96
3, 136799, Note_on_c, 3, 64, 0
3, 136800, Note_on_c, 3, 62, 96
3, 137039, Note_on_c, 3, 62, 0
3, 137040, Note_on_c, 3, 67, 96
3, 137519, Note_on_c, 3, 67, 0
3, 137520, Note_on_c, 3, 64, 96
3, 137759, Note_on_c, 3, 64, 0
3, 137760, Note_on_c, 3, 62, 96
3, 137999, Note_on_c, 3, 62, 0
3, 138000, Note_on_c, 3, 64, 96
3, 138239, Note_on_c, 3, 64, 0
3, 138240, Note_on_c, 3, 62, 96
3, 138479, Note_on_c, 3, 62, 0
3, 138480, Note_on_c, 3, 60, 96
3, 138719, Note_on_c, 3, 60, 0
3, 138720, Note_on_c, 3, 57, 96
3, 138959, Note_on_c, 3, 57, 0
3, 138960, Note_on_c, 3, 62, 96
3, 139439, Note_on_c, 3, 62, 0
3, 139440, Note_on_c, 3, 60, 96
3, 139679, Note_on_c, 3, 60, 0
3, 139680, Note_on_c, 3, 57, 96
3, 139919, Note_on_c, 3, 57, 0
3, 139920, Note_on_c, 3, 55, 96
3, 140159, Note_on_c, 3, 55, 0
3, 140160, Note_on_c, 3, 53, 96
3, 140399, Note_on_c, 3, 53, 0
3, 140400, Note_on_c, 3, 60, 96
3, 140639, Note_on_c, 3, 60, 0
3, 140640, Note_on_c, 3, 62, 96
3, 140879, Note_on_c, 3, 62, 0
3, 140880, Note_on_c, 3, 65, 96
3, 141119, Note_on_c, 3, 65, 0
3, 141120, Note_on_c, 3, 67, 96
3, 141359, Note_on_c, 3, 67, 0
3, 141360, Note_on_c, 3, 62, 96
3, 141599, Note_on_c, 3, 62, 0
3, 141600, Note_on_c, 3, 64, 96
3, 141839, Note_on_c, 3, 64, 0
3, 141840, Note_on_c, 3, 67, 96
3, 142079, Note_on_c, 3, 67, 0
3, 142080, Note_on_c, 3, 60, 96
3, 142319, Note_on_c, 3, 60, 0
3, 142320, Note_on_c, 3, 57, 96
3, 142559, Note_on_c, 3, 57, 0
3, 142560, Note_on_c, 3, 55, 96
3, 142799, Note_on_c, 3, 55, 0
3, 142800, Note_on_c, 3, 60, 96
3, 143279, Note_on_c, 3, 60, 0
3, 143280, Note_on_c, 3, 57, 96
3, 143519, Note_on_c, 3, 57, 0
3, 143520, Note_on_c, 3, 55, 96
3, 143759, Note_on_c, 3, 55, 0
3, 143760, Note_on_c, 3, 57, 96
3, 143999, Note_on_c, 3, 57, 0
3, 144000, Note_on_c, 3, 67, 96
3, 144239, Note_on_c, 3, 67, 0
3, 144240, Note_on_c, 3, 64, 96
3, 144479, Note_on_c, 3, 64, 0
3, 144480, Note_on_c, 3, 62, 96
3, 144719, Note_on_c, 3, 62, 0
3, 144720, Note_on_c, 3, 67, 96
3, 145199, Note_on_c, 3, 67, 0
3, 145200, Note_on_c, 3, 64, 96
3, 145439, Note_on_c, 3, 64, 0
3, 145440, Note_on_c, 3, 62, 96
3, 145679, Note_on_c, 3, 62, 0
3, 145680, Note_on_c, 3, 64, 96
3, 145919, Note_on_c, 3, 64, 0
3, 145920, Note_on_c, 3, 62, 96
3, 146159, Note_on_c, 3, 62, 0
3, 146160, Note_on_c, 3, 60, 96
3, 146399, Note_on_c, 3, 60, 0
3, 146400, Note_on_c, 3, 57, 96
3, 146639, Note_on_c, 3, 57, 0
3, 146640, Note_on_c, 3, 62, 96
3, 147119, Note_on_c, 3, 62, 0
3, 147120, Note_on_c, 3, 60, 96
3, 147359, Note_on_c, 3, 60, 0
3, 147360, Note_on_c, 3, 57, 96
3, 147599, Note_on_c, 3, 57, 0
3, 147600, Note_on_c, 3, 55, 96
3, 147839, Note_on_c, 3, 55, 0
3, 147840, Note_on_c, 3, 53, 96
3, 148079, Note_on_c, 3, 53, 0
3, 148080, Note_on_c, 3, 60, 96
3, 148319, Note_on_c, 3, 60, 0
3, 148320, Note_on_c, 3, 62, 96
3, 148559, Note_on_c, 3, 62, 0
3, 148560, Note_on_c, 3, 65, 96
3, 148799, Note_on_c, 3, 65, 0
3, 148800, Note_on_c, 3, 67, 96
3, 149039, Note_on_c, 3, 67, 0
3, 149040, Note_on_c, 3, 62, 96
3, 149279, Note_on_c, 3, 62, 0
3, 149280, Note_on_c, 3, 64, 96
3, 149519, Note_on_c, 3, 64, 0
3, 149520, Note_on_c, 3, 67, 96
3, 149759, Note_on_c, 3, 67, 0
3, 149760, Note_on_c, 3, 60, 96
3, 149999, Note_on_c, 3, 60, 0
3, 150000, Note_on_c, 3, 57, 96
3, 150239, Note_on_c, 3, 57, 0
3, 150240, Note_on_c, 3, 55, 96
3, 150479, Note_on_c, 3, 55, 0
3, 150480, Note_on_c, 3, 60, 96
3, 150959, Note_on_c, 3, 60, 0
3, 150960, Note_on_c, 3, 57, 96
3, 151199, Note_on_c, 3, 57, 0
3, 151200, Note_on_c, 3, 55, 96
3, 151439, Note_on_c, 3, 55, 0
3, 151440, Note_on_c, 3, 57, 96
3, 151679, Note_on_c, 3, 57, 0
3, 151680, Note_on_c, 3, 67, 96
3, 151919, Note_on_c, 3, 67, 0
3, 151920, Note_on_c, 3, 64, 96
3, 152159, Note_on_c, 3, 64, 0
3, 152160, Note_on_c, 3, 62, 96
3, 152399, Note_on_c, 3, 62, 0
3, 152400, Note_on_c, 3, 67, 96
3, 152879, Note_on_c, 3, 67, 0
3, 152880, Note_on_c, 3, 64, 96
3, 153119, Note_on_c, 3, 64, 0
3, 153120, Note_on_c, 3, 62, 96
3, 153359, Note_on_c, 3, 62, 0
3, 153360, Note_on_c, 3, 64, 96
3, 153599, Note_on_c, 3, 64, 0
3, 153600, Note_on_c, 3, 62, 96
3, 153839, Note_on_c, 3, 62, 0
3, 153840, Note_on_c, 3, 60, 96
3, 154079, Note_on_c, 3, 60, 0
3, 154080, Note_on_c, 3, 57, 96
3, 154319, Note_on_c, 3, 57, 0
3, 154320, Note_on_c, 3, 62, 96
3, 154799, Note_on_c, 3, 62, 0
3, 154800, Note_on_c, 3, 60, 96
3, 155039, Note_on_c, 3, 60, 0
3, 155040, Note_on_c, 3, 57, 96
3, 155279, Note_on_c, 3, 57, 0
3, 155280, Note_on_c, 3, 55, 96
3, 155519, Note_on_c, 3, 55, 0
3, 155520, Note_on_c, 3, 53, 96
3, 155759, Note_on_c, 3, 53, 0
3, 155760, Note_on_c, 3, 60, 96
3, 155999, Note_on_c, 3, 60, 0
3, 156000, Note_on_c, 3, 62, 96
3, 156239, Note_on_c, 3, 62, 0
3, 156240, Note_on_c, 3, 65, 96
3, 156479, Note_on_c, 3, 65, 0
3, 156480, Note_on_c, 3, 67, 96
3, 156719, Note_on_c, 3, 67, 0
3, 156720, Note_on_c, 3, 62, 96
3, 156959, Note_on_c, 3, 62, 0
3, 156960, Note_on_c, 3, 64, 96
3, 157199, Note_on_c, 3, 64, 0
3, 157200, Note_on_c, 3, 65, 96
3, 157439, Note_on_c, 3, 65, 0
3, 157440, Note_on_c, 3, 60, 96
3, 158399, Note_on_c, 3, 60, 0
3, 158400, Note_on_c, 3, 60, 96
3, 158639, Note_on_c, 3, 60, 0
3, 158640, Note_on_c, 3, 60, 96
3, 158879, Note_on_c, 3, 60, 0
3, 158880, Note_on_c, 3, 60, 96
3, 159119, Note_on_c, 3, 60, 0
3, 159120, Note_on_c, 3, 60, 96
3, 159359, Note_on_c, 3, 60, 0
3, 159360, Note_on_c, 3, 60, 96
3, 159599, Note_on_c, 3, 60, 0
3, 159600, Note_on_c, 3, 60, 96
3, 159839, Note_on_c, 3, 60, 0
3, 159840, Note_on_c, 3, 60, 96
3, 160079, Note_on_c, 3, 60, 0
3, 160080, Note_on_c, 3, 60, 96
3, 160319, Note_on_c, 3, 60, 0
3, 160320, Note_on_c, 3, 64, 96
3, 160559, Note_on_c, 3, 64, 0
3, 160560, Note_on_c, 3, 64, 96
3, 160799, Note_on_c, 3, 64, 0
3, 160800, Note_on_c, 3, 64, 96
3, 161039, Note_on_c, 3, 64, 0
3, 161040, Note_on_c, 3, 64, 96
3, 161279, Note_on_c, 3, 64, 0
3, 161280, Note_on_c, 3, 64, 96
3, 161519, Note_on_c, 3, 64, 0
3, 161520, Note_on_c, 3, 64, 96
3, 161759, Note_on_c, 3, 64, 0
3, 161760, Note_on_c, 3, 64, 96
3, 161999, Note_on_c, 3, 64, 0
3, 162000, Note_on_c, 3, 64, 96
3, 162239, Note_on_c, 3, 64, 0
3, 162240, Note_on_c, 3, 65, 96
3, 162479, Note_on_c, 3, 65, 0
3, 162480, Note_on_c, 3, 65, 96
3, 162719, Note_on_c, 3, 65, 0
3, 162720, Note_on_c, 3, 65, 96
3, 162959, Note_on_c, 3, 65, 0
3, 162960, Note_on_c, 3, 65, 96
3, 163199, Note_on_c, 3, 65, 0
3, 163200, Note_on_c, 3, 65, 96
3, 163439, Note_on_c, 3, 65, 0
3, 163440, Note_on_c, 3, 65, 96
3, 163679, Note_on_c, 3, 65, 0
3, 163680, Note_on_c, 3, 65, 96
3, 163919, Note_on_c, 3, 65, 0
3, 163920, Note_on_c, 3, 65, 96
3, 164159, Note_on_c, 3, 65, 0
3, 164160, Note_on_c, 3, 60, 96
3, 164399, Note_on_c, 3, 60, 0
3, 164400, Note_on_c, 3, 60, 96
3, 164639, Note_on_c, 3, 60, 0
3, 164640, Note_on_c, 3, 60, 96
3, 164879, Note_on_c, 3, 60, 0
3, 164880, Note_on_c, 3, 60, 96
3, 165119, Note_on_c, 3, 60, 0
3, 165120, Note_on_c, 3, 67, 96
3, 165359, Note_on_c, 3, 67, 0
3, 165360, Note_on_c, 3, 67, 96
3, 165599, Note_on_c, 3, 67, 0
3, 165600, Note_on_c, 3, 67, 96
3, 165839, Note_on_c, 3, 67, 0
3, 165840, Note_on_c, 3, 67, 96
3, 166079, Note_on_c, 3, 67, 0
3, 166080, Note_on_c, 3, 60, 96
3, 166319, Note_on_c, 3, 60, 0
3, 166320, Note_on_c, 3, 60, 96
3, 166559, Note_on_c, 3, 60, 0
3, 166560, Note_on_c, 3, 60, 96
3, 166799, Note_on_c, 3, 60, 0
3, 166800, Note_on_c, 3, 60, 96
3, 167039, Note_on_c, 3, 60, 0
3, 167040, Note_on_c, 3, 60, 96
3, 167279, Note_on_c, 3, 60, 0
3, 167280, Note_on_c, 3, 60, 96
3, 167519, Note_on_c, 3, 60, 0
3, 167520, Note_on_c, 3, 60, 96
3, 167759, Note_on_c, 3, 60, 0
3, 167760, Note_on_c, 3, 60, 96
3, 167999, Note_on_c, 3, 60, 0
3, 168000, Note_on_c, 3, 64, 96
3, 168239, Note_on_c, 3, 64, 0
3, 168240, Note_on_c, 3, 64, 96
3, 168479, Note_on_c, 3, 64, 0
3, 168480, Note_on_c, 3, 64, 96
3, 168719, Note_on_c, 3, 64, 0
3, 168720, Note_on_c, 3, 64, 96
3, 168959, Note_on_c, 3, 64, 0
3, 168960, Note_on_c, 3, 64, 96
3, 169199, Note_on_c, 3, 64, 0
3, 169200, Note_on_c, 3, 64, 96
3, 169439, Note_on_c, 3, 64, 0
3, 169440, Note_on_c, 3, 64, 96
3, 169679, Note_on_c, 3, 64, 0
3, 169680, Note_on_c, 3, 64, 96
3, 169919, Note_on_c, 3, 64, 0
3, 169920, Note_on_c, 3, 65, 96
3, 170159, Note_on_c, 3, 65, 0
3, 170160, Note_on_c, 3, 65, 96
3, 170399, Note_on_c, 3, 65, 0
3, 170400, Note_on_c, 3, 65, 96
3, 170639, Note_on_c, 3, 65, 0
3, 170640, Note_on_c, 3, 65, 96
3, 170879, Note_on_c, 3, 65, 0
3, 170880, Note_on_c, 3, 65, 96
3, 171119, Note_on_c, 3, 65, 0
3, 171120, Note_on_c, 3, 65, 96
3, 171359, Note_on_c, 3, 65, 0
3, 171360, Note_on_c, 3, 65, 96
3, 171599, Note_on_c, 3, 65, 0
3, 171600, Note_on_c, 3, 65, 96
3, 171839, Note_on_c, 3, 65, 0
3, 171840, Note_on_c, 3, 60, 96
3, 172079, Note_on_c, 3, 60, 0
3, 172080, Note_on_c, 3, 60, 96
3, 172319, Note_on_c, 3, 60, 0
3, 172320, Note_on_c, 3, 60, 96
3, 172559, Note_on_c, 3, 60, 0
3, 172560, Note_on_c, 3, 60, 96
3, 172799, Note_on_c, 3, 60, 0
3, 172800, Note_on_c, 3, 67, 96
3, 173039, Note_on_c, 3, 67, 0
3, 173040, Note_on_c, 3, 67, 96
3, 173279, Note_on_c, 3, 67, 0
3, 173280, Note_on_c, 3, 67, 96
3, 173519, Note_on_c, 3, 67, 0
3, 173520, Note_on_c, 3, 67, 96
3, 173759, Note_on_c, 3, 67, 0
3, 173760, Note_on_c, 3, 60, 96
3, 173999, Note_on_c, 3, 60, 0
3, 174000, Note_on_c, 3, 60, 96
3, 174239, Note_on_c, 3, 60, 0
3, 174240, Note_on_c, 3, 60, 96
3, 174479, Note_on_c, 3, 60, 0
3, 174480, Note_on_c, 3, 60, 96
3, 174719, Note_on_c, 3, 60, 0
3, 174720, Note_on_c, 3, 60, 96
3, 174959, Note_on_c, 3, 60, 0
3, 174960, Note_on_c, 3, 60, 96
3, 175199, Note_on_c, 3, 60, 0
3, 175200, Note_on_c, 3, 60, 96
3, 175439, Note_on_c, 3, 60, 0
3, 175440, Note_on_c, 3, 60, 96
3, 175679, Note_on_c, 3, 60, 0
3, 175680, Note_on_c, 3, 64, 96
3, 175919, Note_on_c, 3, 64, 0
3, 175920, Note_on_c, 3, 64, 96
3, 176159, Note_on_c, 3, 64, 0
3, 176160, Note_on_c, 3, 64, 96
3, 176399, Note_on_c, 3, 64, 0
3, 176400, Note_on_c, 3, 64, 96
3, 176639, Note_on_c, 3, 64, 0
3, 176640, Note_on_c, 3, 64, 96
3, 176879, Note_on_c, 3, 64, 0
3, 176880, Note_on_c, 3, 64, 96
3, 177119, Note_on_c, 3, 64, 0
3, 177120, Note_on_c, 3, 64, 96
3, 177359, Note_on_c, 3, 64, 0
3, 177360, Note_on_c, 3, 64, 96
3, 177599, Note_on_c, 3, 64, 0
3, 177600, Note_on_c, 3, 65, 96
3, 177839, Note_on_c, 3, 65, 0
3, 177840, Note_on_c, 3, 65, 96
3, 178079, Note_on_c, 3, 65, 0
3, 178080, Note_on_c, 3, 65, 96
3, 178319, Note_on_c, 3, 65, 0
3, 178320, Note_on_c, 3, 65, 96
3, 178559, Note_on_c, 3, 65, 0
3, 178560, Note_on_c, 3, 65, 96
3, 178799, Note_on_c, 3, 65, 0
3, 178800, Note_on_c, 3, 65, 96
3, 179039, Note_on_c, 3, 65, 0
3, 179040, Note_on_c, 3, 65, 96
3, 179279, Note_on_c, 3, 65, 0
3, 179280, Note_on_c, 3, 65, 96
3, 179519, Note_on_c, 3, 65, 0
3, 179520, Note_on_c, 3, 60, 96
3, 179759, Note_on_c, 3, 60, 0
3, 179760, Note_on_c, 3, 60, 96
3, 179999, Note_on_c, 3, 60, 0
3, 180000, Note_on_c, 3, 60, 96
3, 180239, Note_on_c, 3, 60, 0
3, 180240, Note_on_c, 3, 60, 96
3, 180479, Note_on_c, 3, 60, 0
3, 180480, Note_on_c, 3, 67, 96
3, 180719, Note_on_c, 3, 67, 0
3, 180720, Note_on_c, 3, 67, 96
3, 180959, Note_on_c, 3, 67, 0
3, 180960, Note_on_c, 3, 67, 96
3, 181199, Note_on_c, 3, 67, 0
3, 181200, Note_on_c, 3, 67, 96
3, 181439, Note_on_c, 3, 67, 0
3, 181440, Note_on_c, 3, 48, 80
3, 181919, Note_on_c, 3, 48, 0
3, 181920, Note_on_c, 3, 55, 80
3, 182399, Note_on_c, 3, 55, 0
3, 182400, Note_on_c, 3, 60, 80
3, 182719, Note_on_c, 3, 60, 0
3, 182720, Note_on_c, 3, 57, 80
3, 182879, Note_on_c, 3, 57, 0
3, 182880, Note_on_c, 3, 55, 80
3, 183199, Note_on_c, 3, 55, 0
3, 183200, Note_on_c, 3, 57, 80
3, 183359, Note_on_c, 3, 57, 0
3, 183360, Note_on_c, 3, 55, 80
3, 183839, Note_on_c, 3, 55, 0
3, 183840, Note_on_c, 3, 50, 80
3, 184319, Note_on_c, 3, 50, 0
3, 184320, Note_on_c, 3, 55, 80
3, 184799, Note_on_c, 3, 55, 0
3, 184800, Note_on_c, 3, 55, 80
3, 185279, Note_on_c, 3, 55, 0
3, 185280, Note_on_c, 3, 62, 96
3, 185759, Note_on_c, 3, 62, 0
3, 185760, Note_on_c, 3, 57, 96
3, 186079, Note_on_c, 3, 57, 0
3, 186080, Note_on_c, 3, 62, 96
3, 186479, Note_on_c, 3, 62, 0
3, 186480, Note_on_c, 3, 60, 96
3, 186719, Note_on_c, 3, 60, 0
3, 186720, Note_on_c, 3, 57, 96
3, 187039, Note_on_c, 3, 57, 0
3, 187040, Note_on_c, 3, 55, 96
3, 187199, Note_on_c, 3, 55, 0
3, 187200, Note_on_c, 3, 53, 96
3, 187519, Note_on_c, 3, 53, 0
3, 187520, Note_on_c, 3, 60, 96
3, 187679, Note_on_c, 3, 60, 0
3, 187680, Note_on_c, 3, 62, 96
3, 187999, Note_on_c, 3, 62, 0
3, 188000, Note_on_c, 3, 65, 96
3, 188159, Note_on_c, 3, 65, 0
3, 188160, Note_on_c, 3, 67, 96
3, 188479, Note_on_c, 3, 67, 0
3, 188480, Note_on_c, 3, 62, 96
3, 188639, Note_on_c, 3, 62, 0
3, 188640, Note_on_c, 3, 64, 96
3, 188959, Note_on_c, 3, 64, 0
3, 188960, Note_on_c, 3, 65, 96
3, 189119, Note_on_c, 3, 65, 0
3, 189120, Note_on_c, 3, 48, 80
3, 189599, Note_on_c, 3, 48, 0
3, 189600, Note_on_c, 3, 55, 80
3, 190079, Note_on_c, 3, 55, 0
3, 190080, Note_on_c, 3, 60, 80
3, 190399, Note_on_c, 3, 60, 0
3, 190400, Note_on_c, 3, 57, 80
3, 190559, Note_on_c, 3, 57, 0
3, 190560, Note_on_c, 3, 55, 80
3, 190879, Note_on_c, 3, 55, 0
3, 190880, Note_on_c, 3, 57, 80
3, 191039, Note_on_c, 3, 57, 0
3, 191040, Note_on_c, 3, 55, 80
3, 191519, Note_on_c, 3, 55, 0
3, 191520, Note_on_c, 3, 50, 80
3, 191999, Note_on_c, 3, 50, 0
3, 192000, Note_on_c, 3, 55, 80
3, 192479, Note_on_c, 3, 55, 0
3, 192480, Note_on_c, 3, 55, 80
3, 192959, Note_on_c, 3, 55, 0
3, 192960, Note_on_c, 3, 62, 96
3, 193439, Note_on_c, 3, 62, 0
3, 193440, Note_on_c, 3, 57, 96
3, 193759, Note_on_c, 3, 57, 0
3, 193760, Note_on_c, 3, 62, 96
3, 194159, Note_on_c, 3, 62, 0
3, 194160, Note_on_c, 3, 60, 96
3, 194399, Note_on_c, 3, 60, 0
3, 194400, Note_on_c, 3, 57, 96
3, 194879, Note_on_c, 3, 57, 0
3, 194880, Note_on_c, 3, 53, 96
3, 195199, Note_on_c, 3, 53, 0
3, 195200, Note_on_c, 3, 60, 96
3, 195359, Note_on_c, 3, 60, 0
3, 195360, Note_on_c, 3, 62, 96
3, 195839, Note_on_c, 3, 62, 0
3, 195840, Note_on_c, 3, 67, 96
3, 196159, Note_on_c, 3, 67, 0
3, 196160, Note_on_c, 3, 62, 96
3, 196319, Note_on_c, 3, 62, 0
3, 196320, Note_on_c, 3, 64, 96
3, 196799, Note_on_c, 3, 64, 0
3, 196800, Note_on_c, 3, 60, 80
3, 198719, Note_on_c, 3, 60, 0
3, 198720, Note_on_c, 3, 55, 80
3, 200639, Note_on_c, 3, 55, 0
3, 200640, Note_on_c, 3, 50, 80
3, 202559, Note_on_c, 3, 50, 0
3, 202560, Note_on_c, 3, 53, 80
3, 204479, Note_on_c, 3, 53, 0
3, 204480, End_track
0, 0, End_of_file
