0, 0, Header, 1, 6, 480
1, 0, Start_track
1, 0, Title_t, "Piano, Piano\000"
1, 0, Time_signature, 3, 2, 24, 8
1, 0, Key_signature, 0, "major"
1, 0, Tempo, 500000
1, 0, Control_c, 1, 121, 0
1, 0, Program_c, 1, 0
1, 0, Control_c, 1, 7, 100
1, 0, Control_c, 1, 10, 64
1, 0, Control_c, 1, 91, 0
1, 0, Control_c, 1, 93, 0
1, 0, MIDI_port, 0
1, 0, Note_on_c, 1, 65, 80
1, 227, Note_on_c, 1, 65, 0
1, 240, Note_on_c, 1, 59, 80
1, 467, Note_on_c, 1, 59, 0
1, 480, Note_on_c, 1, 65, 80
1, 707, Note_on_c, 1, 65, 0
1, 720, Note_on_c, 1, 59, 80
1, 947, Note_on_c, 1, 59, 0
1, 960, Note_on_c, 1, 65, 80
1, 1187, Note_on_c, 1, 65, 0
1, 1200, Note_on_c, 1, 59, 80
1, 1427, Note_on_c, 1, 59, 0
1, 1440, Note_on_c, 1, 65, 80
1, 1667, Note_on_c, 1, 65, 0
1, 1680, Note_on_c, 1, 59, 80
1, 1907, Note_on_c, 1, 59, 0
1, 1920, Note_on_c, 1, 65, 80
1, 2147, Note_on_c, 1, 65, 0
1, 2160, Note_on_c, 1, 59, 80
1, 2387, Note_on_c, 1, 59, 0
1, 2400, Note_on_c, 1, 65, 80
1, 2627, Note_on_c, 1, 65, 0
1, 2640, Note_on_c, 1, 59, 80
1, 2867, Note_on_c, 1, 59, 0
1, 2880, Note_on_c, 1, 65, 80
1, 3107, Note_on_c, 1, 65, 0
1, 3120, Note_on_c, 1, 59, 80
1, 3347, Note_on_c, 1, 59, 0
1, 3360, Note_on_c, 1, 65, 80
1, 3587, Note_on_c, 1, 65, 0
1, 3600, Note_on_c, 1, 59, 80
1, 3827, Note_on_c, 1, 59, 0
1, 3840, Note_on_c, 1, 65, 80
1, 4067, Note_on_c, 1, 65, 0
1, 4080, Note_on_c, 1, 59, 80
1, 4307, Note_on_c, 1, 59, 0
1, 4320, Note_on_c, 1, 65, 80
1, 4547, Note_on_c, 1, 65, 0
1, 4560, Note_on_c, 1, 59, 80
1, 4787, Note_on_c, 1, 59, 0
1, 4800, Note_on_c, 1, 65, 80
1, 5027, Note_on_c, 1, 65, 0
1, 5040, Note_on_c, 1, 59, 80
1, 5267, Note_on_c, 1, 59, 0
1, 5280, Note_on_c, 1, 65, 80
1, 5507, Note_on_c, 1, 65, 0
1, 5520, Note_on_c, 1, 59, 80
1, 5747, Note_on_c, 1, 59, 0
1, 5760, Note_on_c, 1, 67, 80
1, 5987, Note_on_c, 1, 67, 0
1, 6000, Note_on_c, 1, 60, 80
1, 6227, Note_on_c, 1, 60, 0
1, 6240, Note_on_c, 1, 67, 80
1, 6467, Note_on_c, 1, 67, 0
1, 6480, Note_on_c, 1, 60, 80
1, 6707, Note_on_c, 1, 60, 0
1, 6720, Note_on_c, 1, 67, 80
1, 6947, Note_on_c, 1, 67, 0
1, 6960, Note_on_c, 1, 60, 80
1, 7187, Note_on_c, 1, 60, 0
1, 7200, Note_on_c, 1, 67, 80
1, 7427, Note_on_c, 1, 67, 0
1, 7440, Note_on_c, 1, 60, 80
1, 7667, Note_on_c, 1, 60, 0
1, 7680, Note_on_c, 1, 67, 80
1, 7907, Note_on_c, 1, 67, 0
1, 7920, Note_on_c, 1, 60, 80
1, 8147, Note_on_c, 1, 60, 0
1, 8160, Note_on_c, 1, 67, 80
1, 8387, Note_on_c, 1, 67, 0
1, 8400, Note_on_c, 1, 60, 80
1, 8627, Note_on_c, 1, 60, 0
1, 8640, Note_on_c, 1, 67, 80
1, 8867, Note_on_c, 1, 67, 0
1, 8880, Note_on_c, 1, 60, 80
1, 9107, Note_on_c, 1, 60, 0
1, 9120, Note_on_c, 1, 67, 80
1, 9347, Note_on_c, 1, 67, 0
1, 9360, Note_on_c, 1, 60, 80
1, 9587, Note_on_c, 1, 60, 0
1, 9600, Note_on_c, 1, 67, 80
1, 9827, Note_on_c, 1, 67, 0
1, 9840, Note_on_c, 1, 60, 80
1, 10067, Note_on_c, 1, 60, 0
1, 10080, Note_on_c, 1, 67, 80
1, 10307, Note_on_c, 1, 67, 0
1, 10320, Note_on_c, 1, 60, 80
1, 10547, Note_on_c, 1, 60, 0
1, 10560, Note_on_c, 1, 67, 80
1, 10787, Note_on_c, 1, 67, 0
1, 10800, Note_on_c, 1, 60, 80
1, 11027, Note_on_c, 1, 60, 0
1, 11040, Note_on_c, 1, 67, 80
1, 11267, Note_on_c, 1, 67, 0
1, 11280, Note_on_c, 1, 60, 80
1, 11507, Note_on_c, 1, 60, 0
1, 11520, Note_on_c, 1, 65, 80
1, 11747, Note_on_c, 1, 65, 0
1, 11760, Note_on_c, 1, 59, 80
1, 11987, Note_on_c, 1, 59, 0
1, 12000, Note_on_c, 1, 65, 80
1, 12227, Note_on_c, 1, 65, 0
1, 12240, Note_on_c, 1, 59, 80
1, 12467, Note_on_c, 1, 59, 0
1, 12480, Note_on_c, 1, 65, 80
1, 12707, Note_on_c, 1, 65, 0
1, 12720, Note_on_c, 1, 59, 80
1, 12947, Note_on_c, 1, 59, 0
1, 12960, Note_on_c, 1, 65, 80
1, 13187, Note_on_c, 1, 65, 0
1, 13200, Note_on_c, 1, 59, 80
1, 13427, Note_on_c, 1, 59, 0
1, 13440, Note_on_c, 1, 65, 80
1, 13667, Note_on_c, 1, 65, 0
1, 13680, Note_on_c, 1, 59, 80
1, 13907, Note_on_c, 1, 59, 0
1, 13920, Note_on_c, 1, 65, 80
1, 14147, Note_on_c, 1, 65, 0
1, 14160, Note_on_c, 1, 59, 80
1, 14387, Note_on_c, 1, 59, 0
1, 14400, Note_on_c, 1, 65, 80
1, 14627, Note_on_c, 1, 65, 0
1, 14640, Note_on_c, 1, 59, 80
1, 14867, Note_on_c, 1, 59, 0
1, 14880, Note_on_c, 1, 65, 80
1, 15107, Note_on_c, 1, 65, 0
1, 15120, Note_on_c, 1, 59, 80
1, 15347, Note_on_c, 1, 59, 0
1, 15360, Note_on_c, 1, 65, 80
1, 15587, Note_on_c, 1, 65, 0
1, 15600, Note_on_c, 1, 59, 80
1, 15827, Note_on_c, 1, 59, 0
1, 15840, Note_on_c, 1, 65, 80
1, 16067, Note_on_c, 1, 65, 0
1, 16080, Note_on_c, 1, 59, 80
1, 16307, Note_on_c, 1, 59, 0
1, 16320, Note_on_c, 1, 65, 80
1, 16547, Note_on_c, 1, 65, 0
1, 16560, Note_on_c, 1, 59, 80
1, 16787, Note_on_c, 1, 59, 0
1, 16800, Note_on_c, 1, 65, 80
1, 17027, Note_on_c, 1, 65, 0
1, 17040, Note_on_c, 1, 59, 80
1, 17267, Note_on_c, 1, 59, 0
1, 17280, Note_on_c, 1, 67, 80
1, 17507, Note_on_c, 1, 67, 0
1, 17520, Note_on_c, 1, 60, 80
1, 17747, Note_on_c, 1, 60, 0
1, 17760, Note_on_c, 1, 67, 80
1, 17987, Note_on_c, 1, 67, 0
1, 18000, Note_on_c, 1, 60, 80
1, 18227, Note_on_c, 1, 60, 0
1, 18240, Note_on_c, 1, 67, 80
1, 18467, Note_on_c, 1, 67, 0
1, 18480, Note_on_c, 1, 60, 80
1, 18707, Note_on_c, 1, 60, 0
1, 18720, Note_on_c, 1, 67, 80
1, 18947, Note_on_c, 1, 67, 0
1, 18960, Note_on_c, 1, 60, 80
1, 19187, Note_on_c, 1, 60, 0
1, 19200, Note_on_c, 1, 67, 80
1, 19427, Note_on_c, 1, 67, 0
1, 19440, Note_on_c, 1, 60, 80
1, 19667, Note_on_c, 1, 60, 0
1, 19680, Note_on_c, 1, 67, 80
1, 19907, Note_on_c, 1, 67, 0
1, 19920, Note_on_c, 1, 60, 80
1, 20147, Note_on_c, 1, 60, 0
1, 20160, Note_on_c, 1, 69, 80
1, 20387, Note_on_c, 1, 69, 0
1, 20400, Note_on_c, 1, 62, 80
1, 20627, Note_on_c, 1, 62, 0
1, 20640, Note_on_c, 1, 69, 80
1, 20867, Note_on_c, 1, 69, 0
1, 20880, Note_on_c, 1, 62, 80
1, 21107, Note_on_c, 1, 62, 0
1, 21120, Note_on_c, 1, 69, 80
1, 21347, Note_on_c, 1, 69, 0
1, 21360, Note_on_c, 1, 62, 80
1, 21587, Note_on_c, 1, 62, 0
1, 21600, Note_on_c, 1, 69, 80
1, 21827, Note_on_c, 1, 69, 0
1, 21840, Note_on_c, 1, 62, 80
1, 22067, Note_on_c, 1, 62, 0
1, 22080, Note_on_c, 1, 69, 80
1, 22307, Note_on_c, 1, 69, 0
1, 22320, Note_on_c, 1, 62, 80
1, 22547, Note_on_c, 1, 62, 0
1, 22560, Note_on_c, 1, 69, 80
1, 22787, Note_on_c, 1, 69, 0
1, 22800, Note_on_c, 1, 62, 80
1, 23027, Note_on_c, 1, 62, 0
1, 23040, Note_on_c, 1, 71, 80
1, 23267, Note_on_c, 1, 71, 0
1, 23280, Note_on_c, 1, 64, 80
1, 23507, Note_on_c, 1, 64, 0
1, 23520, Note_on_c, 1, 71, 80
1, 23747, Note_on_c, 1, 71, 0
1, 23760, Note_on_c, 1, 64, 80
1, 23987, Note_on_c, 1, 64, 0
1, 24000, Note_on_c, 1, 71, 80
1, 24227, Note_on_c, 1, 71, 0
1, 24240, Note_on_c, 1, 64, 80
1, 24467, Note_on_c, 1, 64, 0
1, 24480, Note_on_c, 1, 71, 80
1, 24707, Note_on_c, 1, 71, 0
1, 24720, Note_on_c, 1, 64, 80
1, 24947, Note_on_c, 1, 64, 0
1, 24960, Note_on_c, 1, 71, 80
1, 25187, Note_on_c, 1, 71, 0
1, 25200, Note_on_c, 1, 64, 80
1, 25427, Note_on_c, 1, 64, 0
1, 25440, Note_on_c, 1, 72, 80
1, 25667, Note_on_c, 1, 72, 0
1, 25680, Note_on_c, 1, 64, 80
1, 25907, Note_on_c, 1, 64, 0
1, 25920, Note_on_c, 1, 74, 80
1, 26147, Note_on_c, 1, 74, 0
1, 26160, Note_on_c, 1, 64, 80
1, 26387, Note_on_c, 1, 64, 0
1, 26400, Note_on_c, 1, 74, 80
1, 26627, Note_on_c, 1, 74, 0
1, 26640, Note_on_c, 1, 64, 80
1, 26867, Note_on_c, 1, 64, 0
1, 26880, Note_on_c, 1, 74, 80
1, 27107, Note_on_c, 1, 74, 0
1, 27120, Note_on_c, 1, 64, 80
1, 27347, Note_on_c, 1, 64, 0
1, 27360, Note_on_c, 1, 72, 80
1, 27587, Note_on_c, 1, 72, 0
1, 27600, Note_on_c, 1, 64, 80
1, 27827, Note_on_c, 1, 64, 0
1, 27840, Note_on_c, 1, 72, 80
1, 28067, Note_on_c, 1, 72, 0
1, 28080, Note_on_c, 1, 64, 80
1, 28307, Note_on_c, 1, 64, 0
1, 28320, Note_on_c, 1, 72, 80
1, 28547, Note_on_c, 1, 72, 0
1, 28560, Note_on_c, 1, 64, 80
1, 28787, Note_on_c, 1, 64, 0
1, 28800, Note_on_c, 1, 71, 80
1, 29027, Note_on_c, 1, 71, 0
1, 29040, Note_on_c, 1, 64, 80
1, 29267, Note_on_c, 1, 64, 0
1, 29280, Note_on_c, 1, 71, 80
1, 29507, Note_on_c, 1, 71, 0
1, 29520, Note_on_c, 1, 64, 80
1, 29747, Note_on_c, 1, 64, 0
1, 29760, Note_on_c, 1, 71, 80
1, 29987, Note_on_c, 1, 71, 0
1, 30000, Note_on_c, 1, 64, 80
1, 30227, Note_on_c, 1, 64, 0
1, 30240, Note_on_c, 1, 71, 80
1, 30467, Note_on_c, 1, 71, 0
1, 30480, Note_on_c, 1, 64, 80
1, 30707, Note_on_c, 1, 64, 0
1, 30720, Note_on_c, 1, 71, 80
1, 30947, Note_on_c, 1, 71, 0
1, 30960, Note_on_c, 1, 64, 80
1, 31187, Note_on_c, 1, 64, 0
1, 31200, Note_on_c, 1, 72, 80
1, 31427, Note_on_c, 1, 72, 0
1, 31440, Note_on_c, 1, 64, 80
1, 31667, Note_on_c, 1, 64, 0
1, 31680, Note_on_c, 1, 74, 80
1, 31907, Note_on_c, 1, 74, 0
1, 31920, Note_on_c, 1, 64, 80
1, 32147, Note_on_c, 1, 64, 0
1, 32160, Note_on_c, 1, 74, 80
1, 32387, Note_on_c, 1, 74, 0
1, 32400, Note_on_c, 1, 64, 80
1, 32627, Note_on_c, 1, 64, 0
1, 32640, Note_on_c, 1, 74, 80
1, 32867, Note_on_c, 1, 74, 0
1, 32880, Note_on_c, 1, 64, 80
1, 33107, Note_on_c, 1, 64, 0
1, 33120, Note_on_c, 1, 76, 80
1, 33347, Note_on_c, 1, 76, 0
1, 33360, Note_on_c, 1, 64, 80
1, 33587, Note_on_c, 1, 64, 0
1, 33600, Note_on_c, 1, 76, 80
1, 33827, Note_on_c, 1, 76, 0
1, 33840, Note_on_c, 1, 64, 80
1, 34067, Note_on_c, 1, 64, 0
1, 34080, Note_on_c, 1, 76, 80
1, 34307, Note_on_c, 1, 76, 0
1, 34320, Note_on_c, 1, 64, 80
1, 34547, Note_on_c, 1, 64, 0
1, 34560, Note_on_c, 1, 76, 80
1, 34787, Note_on_c, 1, 76, 0
1, 34800, Note_on_c, 1, 64, 80
1, 35027, Note_on_c, 1, 64, 0
1, 35040, Note_on_c, 1, 76, 80
1, 35267, Note_on_c, 1, 76, 0
1, 35280, Note_on_c, 1, 64, 80
1, 35507, Note_on_c, 1, 64, 0
1, 35520, Note_on_c, 1, 76, 80
1, 35747, Note_on_c, 1, 76, 0
1, 35760, Note_on_c, 1, 64, 80
1, 35987, Note_on_c, 1, 64, 0
1, 36000, Note_on_c, 1, 76, 80
1, 36227, Note_on_c, 1, 76, 0
1, 36240, Note_on_c, 1, 64, 80
1, 36467, Note_on_c, 1, 64, 0
1, 36480, Note_on_c, 1, 76, 80
1, 36707, Note_on_c, 1, 76, 0
1, 36720, Note_on_c, 1, 64, 80
1, 36947, Note_on_c, 1, 64, 0
1, 36960, Note_on_c, 1, 76, 80
1, 37187, Note_on_c, 1, 76, 0
1, 37200, Note_on_c, 1, 64, 80
1, 37427, Note_on_c, 1, 64, 0
1, 37440, Note_on_c, 1, 74, 80
1, 37667, Note_on_c, 1, 74, 0
1, 37680, Note_on_c, 1, 64, 80
1, 37907, Note_on_c, 1, 64, 0
1, 37920, Note_on_c, 1, 74, 80
1, 38147, Note_on_c, 1, 74, 0
1, 38160, Note_on_c, 1, 64, 80
1, 38387, Note_on_c, 1, 64, 0
1, 38400, Note_on_c, 1, 74, 80
1, 38627, Note_on_c, 1, 74, 0
1, 38640, Note_on_c, 1, 64, 80
1, 38867, Note_on_c, 1, 64, 0
1, 38880, Note_on_c, 1, 71, 80
1, 39107, Note_on_c, 1, 71, 0
1, 39120, Note_on_c, 1, 64, 80
1, 39347, Note_on_c, 1, 64, 0
1, 39360, Note_on_c, 1, 71, 80
1, 39587, Note_on_c, 1, 71, 0
1, 39600, Note_on_c, 1, 64, 80
1, 39827, Note_on_c, 1, 64, 0
1, 39840, Note_on_c, 1, 71, 80
1, 40067, Note_on_c, 1, 71, 0
1, 40080, Note_on_c, 1, 64, 80
1, 40307, Note_on_c, 1, 64, 0
1, 40320, Note_on_c, 1, 72, 80
1, 40547, Note_on_c, 1, 72, 0
1, 40560, Note_on_c, 1, 64, 80
1, 40787, Note_on_c, 1, 64, 0
1, 40800, Note_on_c, 1, 72, 80
1, 41027, Note_on_c, 1, 72, 0
1, 41040, Note_on_c, 1, 64, 80
1, 41267, Note_on_c, 1, 64, 0
1, 41280, Note_on_c, 1, 72, 80
1, 41507, Note_on_c, 1, 72, 0
1, 41520, Note_on_c, 1, 64, 80
1, 41747, Note_on_c, 1, 64, 0
1, 41760, Note_on_c, 1, 72, 80
1, 41987, Note_on_c, 1, 72, 0
1, 42000, Note_on_c, 1, 64, 80
1, 42227, Note_on_c, 1, 64, 0
1, 42240, Note_on_c, 1, 72, 80
1, 42467, Note_on_c, 1, 72, 0
1, 42480, Note_on_c, 1, 64, 80
1, 42707, Note_on_c, 1, 64, 0
1, 42720, Note_on_c, 1, 72, 80
1, 42947, Note_on_c, 1, 72, 0
1, 42960, Note_on_c, 1, 64, 80
1, 43187, Note_on_c, 1, 64, 0
1, 43200, Note_on_c, 1, 71, 80
1, 43427, Note_on_c, 1, 71, 0
1, 43440, Note_on_c, 1, 64, 80
1, 43667, Note_on_c, 1, 64, 0
1, 43680, Note_on_c, 1, 71, 80
1, 43907, Note_on_c, 1, 71, 0
1, 43920, Note_on_c, 1, 64, 80
1, 44147, Note_on_c, 1, 64, 0
1, 44160, Note_on_c, 1, 71, 80
1, 44387, Note_on_c, 1, 71, 0
1, 44400, Note_on_c, 1, 64, 80
1, 44627, Note_on_c, 1, 64, 0
1, 44640, Note_on_c, 1, 71, 80
1, 44867, Note_on_c, 1, 71, 0
1, 44880, Note_on_c, 1, 64, 80
1, 45107, Note_on_c, 1, 64, 0
1, 45120, Note_on_c, 1, 71, 80
1, 45347, Note_on_c, 1, 71, 0
1, 45360, Note_on_c, 1, 64, 80
1, 45587, Note_on_c, 1, 64, 0
1, 45600, Note_on_c, 1, 71, 80
1, 45827, Note_on_c, 1, 71, 0
1, 45840, Note_on_c, 1, 64, 80
1, 46067, Note_on_c, 1, 64, 0
1, 46080, Note_on_c, 1, 65, 80
1, 46307, Note_on_c, 1, 65, 0
1, 46320, Note_on_c, 1, 59, 80
1, 46547, Note_on_c, 1, 59, 0
1, 46560, Note_on_c, 1, 65, 80
1, 46787, Note_on_c, 1, 65, 0
1, 46800, Note_on_c, 1, 59, 80
1, 47027, Note_on_c, 1, 59, 0
1, 47040, Note_on_c, 1, 65, 80
1, 47267, Note_on_c, 1, 65, 0
1, 47280, Note_on_c, 1, 59, 80
1, 47507, Note_on_c, 1, 59, 0
1, 47520, Note_on_c, 1, 65, 80
1, 47747, Note_on_c, 1, 65, 0
1, 47760, Note_on_c, 1, 59, 80
1, 47987, Note_on_c, 1, 59, 0
1, 48000, Note_on_c, 1, 65, 80
1, 48227, Note_on_c, 1, 65, 0
1, 48240, Note_on_c, 1, 59, 80
1, 48467, Note_on_c, 1, 59, 0
1, 48480, Note_on_c, 1, 65, 80
1, 48707, Note_on_c, 1, 65, 0
1, 48720, Note_on_c, 1, 59, 80
1, 48947, Note_on_c, 1, 59, 0
1, 48960, Note_on_c, 1, 67, 80
1, 49187, Note_on_c, 1, 67, 0
1, 49200, Note_on_c, 1, 60, 80
1, 49427, Note_on_c, 1, 60, 0
1, 49440, Note_on_c, 1, 67, 80
1, 49667, Note_on_c, 1, 67, 0
1, 49680, Note_on_c, 1, 60, 80
1, 49907, Note_on_c, 1, 60, 0
1, 49920, Note_on_c, 1, 67, 80
1, 50147, Note_on_c, 1, 67, 0
1, 50160, Note_on_c, 1, 60, 80
1, 50387, Note_on_c, 1, 60, 0
1, 50400, Note_on_c, 1, 67, 80
1, 50627, Note_on_c, 1, 67, 0
1, 50640, Note_on_c, 1, 60, 80
1, 50867, Note_on_c, 1, 60, 0
1, 50880, Note_on_c, 1, 67, 80
1, 51107, Note_on_c, 1, 67, 0
1, 51120, Note_on_c, 1, 60, 80
1, 51347, Note_on_c, 1, 60, 0
1, 51360, Note_on_c, 1, 67, 80
1, 51587, Note_on_c, 1, 67, 0
1, 51600, Note_on_c, 1, 60, 80
1, 51827, Note_on_c, 1, 60, 0
1, 51840, Note_on_c, 1, 65, 80
1, 52067, Note_on_c, 1, 65, 0
1, 52080, Note_on_c, 1, 59, 80
1, 52307, Note_on_c, 1, 59, 0
1, 52320, Note_on_c, 1, 65, 80
1, 52547, Note_on_c, 1, 65, 0
1, 52560, Note_on_c, 1, 59, 80
1, 52787, Note_on_c, 1, 59, 0
1, 52800, Note_on_c, 1, 65, 80
1, 53027, Note_on_c, 1, 65, 0
1, 53040, Note_on_c, 1, 59, 80
1, 53267, Note_on_c, 1, 59, 0
1, 53280, Note_on_c, 1, 65, 80
1, 53507, Note_on_c, 1, 65, 0
1, 53520, Note_on_c, 1, 59, 80
1, 53747, Note_on_c, 1, 59, 0
1, 53760, Note_on_c, 1, 65, 80
1, 53987, Note_on_c, 1, 65, 0
1, 54000, Note_on_c, 1, 59, 80
1, 54227, Note_on_c, 1, 59, 0
1, 54240, Note_on_c, 1, 65, 80
1, 54467, Note_on_c, 1, 65, 0
1, 54480, Note_on_c, 1, 59, 80
1, 54707, Note_on_c, 1, 59, 0
1, 54720, Note_on_c, 1, 67, 80
1, 54947, Note_on_c, 1, 67, 0
1, 54960, Note_on_c, 1, 60, 80
1, 55187, Note_on_c, 1, 60, 0
1, 55200, Note_on_c, 1, 67, 80
1, 55427, Note_on_c, 1, 67, 0
1, 55440, Note_on_c, 1, 60, 80
1, 55667, Note_on_c, 1, 60, 0
1, 55680, Note_on_c, 1, 67, 80
1, 55907, Note_on_c, 1, 67, 0
1, 55920, Note_on_c, 1, 60, 80
1, 56147, Note_on_c, 1, 60, 0
1, 56160, Note_on_c, 1, 67, 80
1, 56387, Note_on_c, 1, 67, 0
1, 56400, Note_on_c, 1, 60, 80
1, 56627, Note_on_c, 1, 60, 0
1, 56640, Note_on_c, 1, 67, 80
1, 56867, Note_on_c, 1, 67, 0
1, 56880, Note_on_c, 1, 60, 80
1, 57107, Note_on_c, 1, 60, 0
1, 57120, Note_on_c, 1, 67, 80
1, 57347, Note_on_c, 1, 67, 0
1, 57360, Note_on_c, 1, 60, 80
1, 57587, Note_on_c, 1, 60, 0
1, 57600, Note_on_c, 1, 65, 80
1, 57827, Note_on_c, 1, 65, 0
1, 57840, Note_on_c, 1, 59, 80
1, 58067, Note_on_c, 1, 59, 0
1, 58080, Note_on_c, 1, 76, 80
1, 58320, Note_on_c, 1, 59, 80
1, 58535, Note_on_c, 1, 76, 0
1, 58547, Note_on_c, 1, 59, 0
1, 58560, Note_on_c, 1, 74, 80
1, 58800, Note_on_c, 1, 59, 80
1, 59015, Note_on_c, 1, 74, 0
1, 59027, Note_on_c, 1, 59, 0
1, 59040, Note_on_c, 1, 69, 80
1, 59520, Note_on_c, 1, 65, 80
1, 59759, Note_on_c, 1, 65, 0
1, 60000, Note_on_c, 1, 65, 80
1, 60239, Note_on_c, 1, 65, 0
1, 60407, Note_on_c, 1, 69, 0
1, 60480, Note_on_c, 1, 67, 80
1, 60707, Note_on_c, 1, 67, 0
1, 60720, Note_on_c, 1, 60, 80
1, 60947, Note_on_c, 1, 60, 0
1, 60960, Note_on_c, 1, 76, 80
1, 61200, Note_on_c, 1, 60, 80
1, 61415, Note_on_c, 1, 76, 0
1, 61427, Note_on_c, 1, 60, 0
1, 61440, Note_on_c, 1, 74, 80
1, 61895, Note_on_c, 1, 74, 0
1, 62400, Note_on_c, 1, 67, 80
1, 62627, Note_on_c, 1, 67, 0
1, 62640, Note_on_c, 1, 60, 80
1, 62867, Note_on_c, 1, 60, 0
1, 62880, Note_on_c, 1, 77, 80
1, 63107, Note_on_c, 1, 77, 0
1, 63120, Note_on_c, 1, 60, 80
1, 63347, Note_on_c, 1, 60, 0
1, 63360, Note_on_c, 1, 76, 80
1, 63600, Note_on_c, 1, 59, 80
1, 63827, Note_on_c, 1, 59, 0
1, 63840, Note_on_c, 1, 65, 80
1, 64079, Note_on_c, 1, 65, 0
1, 64320, Note_on_c, 1, 65, 80
1, 64559, Note_on_c, 1, 65, 0
1, 64727, Note_on_c, 1, 76, 0
1, 64800, Note_on_c, 1, 65, 80
1, 65027, Note_on_c, 1, 65, 0
1, 65040, Note_on_c, 1, 59, 80
1, 65267, Note_on_c, 1, 59, 0
1, 65280, Note_on_c, 1, 65, 80
1, 65507, Note_on_c, 1, 65, 0
1, 65520, Note_on_c, 1, 59, 80
1, 65747, Note_on_c, 1, 59, 0
1, 65760, Note_on_c, 1, 65, 80
1, 65987, Note_on_c, 1, 65, 0
1, 66000, Note_on_c, 1, 59, 80
1, 66227, Note_on_c, 1, 59, 0
1, 66240, Note_on_c, 1, 74, 80
1, 66480, Note_on_c, 1, 60, 80
1, 66707, Note_on_c, 1, 60, 0
1, 66720, Note_on_c, 1, 67, 80
1, 66959, Note_on_c, 1, 67, 0
1, 67200, Note_on_c, 1, 67, 80
1, 67439, Note_on_c, 1, 67, 0
1, 67607, Note_on_c, 1, 74, 0
1, 67680, Note_on_c, 1, 67, 80
1, 67907, Note_on_c, 1, 67, 0
1, 67920, Note_on_c, 1, 60, 80
1, 68147, Note_on_c, 1, 60, 0
1, 68160, Note_on_c, 1, 67, 80
1, 68387, Note_on_c, 1, 67, 0
1, 68400, Note_on_c, 1, 60, 80
1, 68627, Note_on_c, 1, 60, 0
1, 68640, Note_on_c, 1, 67, 80
1, 68867, Note_on_c, 1, 67, 0
1, 68880, Note_on_c, 1, 60, 80
1, 69107, Note_on_c, 1, 60, 0
1, 69120, Note_on_c, 1, 52, 80
1, 69347, Note_on_c, 1, 52, 0
1, 69360, Note_on_c, 1, 55, 80
1, 69587, Note_on_c, 1, 55, 0
1, 69600, Note_on_c, 1, 59, 80
1, 69827, Note_on_c, 1, 59, 0
1, 69840, Note_on_c, 1, 60, 80
1, 70067, Note_on_c, 1, 60, 0
1, 70080, Note_on_c, 1, 59, 80
1, 70307, Note_on_c, 1, 59, 0
1, 70320, Note_on_c, 1, 55, 80
1, 70547, Note_on_c, 1, 55, 0
1, 70560, Note_on_c, 1, 52, 80
1, 70787, Note_on_c, 1, 52, 0
1, 70800, Note_on_c, 1, 55, 80
1, 71027, Note_on_c, 1, 55, 0
1, 71040, Note_on_c, 1, 59, 80
1, 71267, Note_on_c, 1, 59, 0
1, 71280, Note_on_c, 1, 60, 80
1, 71507, Note_on_c, 1, 60, 0
1, 71520, Note_on_c, 1, 59, 80
1, 71747, Note_on_c, 1, 59, 0
1, 71760, Note_on_c, 1, 55, 80
1, 71987, Note_on_c, 1, 55, 0
1, 72000, Note_on_c, 1, 52, 80
1, 72227, Note_on_c, 1, 52, 0
1, 72240, Note_on_c, 1, 55, 80
1, 72467, Note_on_c, 1, 55, 0
1, 72480, Note_on_c, 1, 59, 80
1, 72707, Note_on_c, 1, 59, 0
1, 72720, Note_on_c, 1, 60, 80
1, 72947, Note_on_c, 1, 60, 0
1, 72960, Note_on_c, 1, 59, 80
1, 73187, Note_on_c, 1, 59, 0
1, 73200, Note_on_c, 1, 55, 80
1, 73427, Note_on_c, 1, 55, 0
1, 73440, Note_on_c, 1, 52, 80
1, 73667, Note_on_c, 1, 52, 0
1, 73680, Note_on_c, 1, 55, 80
1, 73907, Note_on_c, 1, 55, 0
1, 73920, Note_on_c, 1, 59, 80
1, 74147, Note_on_c, 1, 59, 0
1, 74160, Note_on_c, 1, 60, 80
1, 74387, Note_on_c, 1, 60, 0
1, 74400, Note_on_c, 1, 59, 80
1, 74627, Note_on_c, 1, 59, 0
1, 74640, Note_on_c, 1, 55, 80
1, 74867, Note_on_c, 1, 55, 0
1, 74880, Note_on_c, 1, 50, 80
1, 75107, Note_on_c, 1, 50, 0
1, 75120, Note_on_c, 1, 53, 80
1, 75347, Note_on_c, 1, 53, 0
1, 75360, Note_on_c, 1, 57, 80
1, 75587, Note_on_c, 1, 57, 0
1, 75600, Note_on_c, 1, 59, 80
1, 75827, Note_on_c, 1, 59, 0
1, 75840, Note_on_c, 1, 57, 80
1, 76067, Note_on_c, 1, 57, 0
1, 76080, Note_on_c, 1, 53, 80
1, 76307, Note_on_c, 1, 53, 0
1, 76320, Note_on_c, 1, 50, 80
1, 76547, Note_on_c, 1, 50, 0
1, 76560, Note_on_c, 1, 53, 80
1, 76787, Note_on_c, 1, 53, 0
1, 76800, Note_on_c, 1, 57, 80
1, 77027, Note_on_c, 1, 57, 0
1, 77040, Note_on_c, 1, 59, 80
1, 77267, Note_on_c, 1, 59, 0
1, 77280, Note_on_c, 1, 57, 80
1, 77507, Note_on_c, 1, 57, 0
1, 77520, Note_on_c, 1, 53, 80
1, 77747, Note_on_c, 1, 53, 0
1, 77760, Note_on_c, 1, 50, 80
1, 77987, Note_on_c, 1, 50, 0
1, 78000, Note_on_c, 1, 53, 80
1, 78227, Note_on_c, 1, 53, 0
1, 78240, Note_on_c, 1, 57, 80
1, 78467, Note_on_c, 1, 57, 0
1, 78480, Note_on_c, 1, 59, 80
1, 78707, Note_on_c, 1, 59, 0
1, 78720, Note_on_c, 1, 57, 80
1, 78947, Note_on_c, 1, 57, 0
1, 78960, Note_on_c, 1, 53, 80
1, 79187, Note_on_c, 1, 53, 0
1, 79200, Note_on_c, 1, 50, 80
1, 79427, Note_on_c, 1, 50, 0
1, 79440, Note_on_c, 1, 53, 80
1, 79667, Note_on_c, 1, 53, 0
1, 79680, Note_on_c, 1, 57, 80
1, 79907, Note_on_c, 1, 57, 0
1, 79920, Note_on_c, 1, 59, 80
1, 80147, Note_on_c, 1, 59, 0
1, 80160, Note_on_c, 1, 57, 80
1, 80387, Note_on_c, 1, 57, 0
1, 80400, Note_on_c, 1, 53, 80
1, 80627, Note_on_c, 1, 53, 0
1, 80640, Note_on_c, 1, 52, 80
1, 80867, Note_on_c, 1, 52, 0
1, 80880, Note_on_c, 1, 55, 80
1, 81107, Note_on_c, 1, 55, 0
1, 81120, Note_on_c, 1, 59, 80
1, 81347, Note_on_c, 1, 59, 0
1, 81360, Note_on_c, 1, 60, 80
1, 81587, Note_on_c, 1, 60, 0
1, 81600, Note_on_c, 1, 59, 80
1, 81827, Note_on_c, 1, 59, 0
1, 81840, Note_on_c, 1, 55, 80
1, 82067, Note_on_c, 1, 55, 0
1, 82080, Note_on_c, 1, 52, 80
1, 82307, Note_on_c, 1, 52, 0
1, 82320, Note_on_c, 1, 55, 80
1, 82547, Note_on_c, 1, 55, 0
1, 82560, Note_on_c, 1, 59, 80
1, 82787, Note_on_c, 1, 59, 0
1, 82800, Note_on_c, 1, 60, 80
1, 83027, Note_on_c, 1, 60, 0
1, 83040, Note_on_c, 1, 59, 80
1, 83267, Note_on_c, 1, 59, 0
1, 83280, Note_on_c, 1, 55, 80
1, 83507, Note_on_c, 1, 55, 0
1, 83520, Note_on_c, 1, 52, 80
1, 83747, Note_on_c, 1, 52, 0
1, 83760, Note_on_c, 1, 55, 80
1, 83987, Note_on_c, 1, 55, 0
1, 84000, Note_on_c, 1, 59, 80
1, 84227, Note_on_c, 1, 59, 0
1, 84240, Note_on_c, 1, 60, 80
1, 84467, Note_on_c, 1, 60, 0
1, 84480, Note_on_c, 1, 59, 80
1, 84707, Note_on_c, 1, 59, 0
1, 84720, Note_on_c, 1, 55, 80
1, 84947, Note_on_c, 1, 55, 0
1, 84960, Note_on_c, 1, 52, 80
1, 85187, Note_on_c, 1, 52, 0
1, 85200, Note_on_c, 1, 55, 80
1, 85427, Note_on_c, 1, 55, 0
1, 85440, Note_on_c, 1, 59, 80
1, 85667, Note_on_c, 1, 59, 0
1, 85680, Note_on_c, 1, 60, 80
1, 85907, Note_on_c, 1, 60, 0
1, 85920, Note_on_c, 1, 59, 80
1, 86147, Note_on_c, 1, 59, 0
1, 86160, Note_on_c, 1, 55, 80
1, 86387, Note_on_c, 1, 55, 0
1, 86400, Note_on_c, 1, 50, 80
1, 86627, Note_on_c, 1, 50, 0
1, 86640, Note_on_c, 1, 53, 80
1, 86867, Note_on_c, 1, 53, 0
1, 86880, Note_on_c, 1, 57, 80
1, 87107, Note_on_c, 1, 57, 0
1, 87120, Note_on_c, 1, 59, 80
1, 87347, Note_on_c, 1, 59, 0
1, 87360, Note_on_c, 1, 57, 80
1, 87587, Note_on_c, 1, 57, 0
1, 87600, Note_on_c, 1, 53, 80
1, 87827, Note_on_c, 1, 53, 0
1, 87840, Note_on_c, 1, 50, 80
1, 88067, Note_on_c, 1, 50, 0
1, 88080, Note_on_c, 1, 53, 80
1, 88307, Note_on_c, 1, 53, 0
1, 88320, Note_on_c, 1, 57, 80
1, 88547, Note_on_c, 1, 57, 0
1, 88560, Note_on_c, 1, 59, 80
1, 88787, Note_on_c, 1, 59, 0
1, 88800, Note_on_c, 1, 57, 80
1, 89027, Note_on_c, 1, 57, 0
1, 89040, Note_on_c, 1, 53, 80
1, 89267, Note_on_c, 1, 53, 0
1, 89280, Note_on_c, 1, 50, 80
1, 89507, Note_on_c, 1, 50, 0
1, 89520, Note_on_c, 1, 53, 80
1, 89747, Note_on_c, 1, 53, 0
1, 89760, Note_on_c, 1, 57, 80
1, 89987, Note_on_c, 1, 57, 0
1, 90000, Note_on_c, 1, 59, 80
1, 90227, Note_on_c, 1, 59, 0
1, 90240, Note_on_c, 1, 57, 80
1, 90467, Note_on_c, 1, 57, 0
1, 90480, Note_on_c, 1, 53, 80
1, 90707, Note_on_c, 1, 53, 0
1, 90720, Note_on_c, 1, 50, 80
1, 90947, Note_on_c, 1, 50, 0
1, 90960, Note_on_c, 1, 53, 80
1, 91187, Note_on_c, 1, 53, 0
1, 91200, Note_on_c, 1, 57, 80
1, 91427, Note_on_c, 1, 57, 0
1, 91440, Note_on_c, 1, 59, 80
1, 91667, Note_on_c, 1, 59, 0
1, 91680, Note_on_c, 1, 57, 80
1, 91907, Note_on_c, 1, 57, 0
1, 91920, Note_on_c, 1, 53, 80
1, 92147, Note_on_c, 1, 53, 0
1, 92160, Note_on_c, 1, 57, 80
1, 92615, Note_on_c, 1, 57, 0
1, 92616, End_track
2, 0, Start_track
2, 0, Title_t, "Piano, Piano\000"
2, 0, Key_signature, 0, "major"
2, 0, MIDI_port, 0
2, 0, Note_on_c, 1, 60, 80
2, 239, Note_on_c, 1, 60, 0
2, 480, Note_on_c, 1, 60, 80
2, 719, Note_on_c, 1, 60, 0
2, 960, Note_on_c, 1, 60, 80
2, 1199, Note_on_c, 1, 60, 0
2, 1440, Note_on_c, 1, 60, 80
2, 1679, Note_on_c, 1, 60, 0
2, 1920, Note_on_c, 1, 60, 80
2, 2159, Note_on_c, 1, 60, 0
2, 2400, Note_on_c, 1, 60, 80
2, 2639, Note_on_c, 1, 60, 0
2, 2880, Note_on_c, 1, 60, 80
2, 3119, Note_on_c, 1, 60, 0
2, 3360, Note_on_c, 1, 60, 80
2, 3599, Note_on_c, 1, 60, 0
2, 3840, Note_on_c, 1, 60, 80
2, 4079, Note_on_c, 1, 60, 0
2, 4320, Note_on_c, 1, 60, 80
2, 4559, Note_on_c, 1, 60, 0
2, 4800, Note_on_c, 1, 60, 80
2, 5039, Note_on_c, 1, 60, 0
2, 5280, Note_on_c, 1, 60, 80
2, 5519, Note_on_c, 1, 60, 0
2, 5760, Note_on_c, 1, 62, 80
2, 5999, Note_on_c, 1, 62, 0
2, 6240, Note_on_c, 1, 62, 80
2, 6479, Note_on_c, 1, 62, 0
2, 6720, Note_on_c, 1, 62, 80
2, 6959, Note_on_c, 1, 62, 0
2, 7200, Note_on_c, 1, 62, 80
2, 7439, Note_on_c, 1, 62, 0
2, 7680, Note_on_c, 1, 62, 80
2, 7919, Note_on_c, 1, 62, 0
2, 8160, Note_on_c, 1, 62, 80
2, 8399, Note_on_c, 1, 62, 0
2, 8640, Note_on_c, 1, 62, 80
2, 8879, Note_on_c, 1, 62, 0
2, 9120, Note_on_c, 1, 62, 80
2, 9359, Note_on_c, 1, 62, 0
2, 9600, Note_on_c, 1, 62, 80
2, 9839, Note_on_c, 1, 62, 0
2, 10080, Note_on_c, 1, 62, 80
2, 10319, Note_on_c, 1, 62, 0
2, 10560, Note_on_c, 1, 62, 80
2, 10799, Note_on_c, 1, 62, 0
2, 11040, Note_on_c, 1, 62, 80
2, 11279, Note_on_c, 1, 62, 0
2, 11520, Note_on_c, 1, 60, 80
2, 11759, Note_on_c, 1, 60, 0
2, 12000, Note_on_c, 1, 60, 80
2, 12239, Note_on_c, 1, 60, 0
2, 12480, Note_on_c, 1, 60, 80
2, 12719, Note_on_c, 1, 60, 0
2, 12960, Note_on_c, 1, 60, 80
2, 13199, Note_on_c, 1, 60, 0
2, 13440, Note_on_c, 1, 60, 80
2, 13679, Note_on_c, 1, 60, 0
2, 13920, Note_on_c, 1, 60, 80
2, 14159, Note_on_c, 1, 60, 0
2, 14400, Note_on_c, 1, 60, 80
2, 14639, Note_on_c, 1, 60, 0
2, 14880, Note_on_c, 1, 60, 80
2, 15119, Note_on_c, 1, 60, 0
2, 15360, Note_on_c, 1, 60, 80
2, 15599, Note_on_c, 1, 60, 0
2, 15840, Note_on_c, 1, 60, 80
2, 16079, Note_on_c, 1, 60, 0
2, 16320, Note_on_c, 1, 60, 80
2, 16559, Note_on_c, 1, 60, 0
2, 16800, Note_on_c, 1, 60, 80
2, 17039, Note_on_c, 1, 60, 0
2, 17280, Note_on_c, 1, 62, 80
2, 17519, Note_on_c, 1, 62, 0
2, 17760, Note_on_c, 1, 62, 80
2, 17999, Note_on_c, 1, 62, 0
2, 18240, Note_on_c, 1, 62, 80
2, 18479, Note_on_c, 1, 62, 0
2, 18720, Note_on_c, 1, 62, 80
2, 18959, Note_on_c, 1, 62, 0
2, 19200, Note_on_c, 1, 62, 80
2, 19439, Note_on_c, 1, 62, 0
2, 19680, Note_on_c, 1, 62, 80
2, 19919, Note_on_c, 1, 62, 0
2, 20160, Note_on_c, 1, 64, 80
2, 20399, Note_on_c, 1, 64, 0
2, 20640, Note_on_c, 1, 64, 80
2, 20879, Note_on_c, 1, 64, 0
2, 21120, Note_on_c, 1, 64, 80
2, 21359, Note_on_c, 1, 64, 0
2, 21600, Note_on_c, 1, 64, 80
2, 21839, Note_on_c, 1, 64, 0
2, 22080, Note_on_c, 1, 64, 80
2, 22319, Note_on_c, 1, 64, 0
2, 22560, Note_on_c, 1, 64, 80
2, 22799, Note_on_c, 1, 64, 0
2, 23040, Note_on_c, 1, 65, 80
2, 23279, Note_on_c, 1, 65, 0
2, 23520, Note_on_c, 1, 65, 80
2, 23759, Note_on_c, 1, 65, 0
2, 24000, Note_on_c, 1, 65, 80
2, 24239, Note_on_c, 1, 65, 0
2, 24480, Note_on_c, 1, 65, 80
2, 24719, Note_on_c, 1, 65, 0
2, 24960, Note_on_c, 1, 65, 80
2, 25199, Note_on_c, 1, 65, 0
2, 25440, Note_on_c, 1, 65, 80
2, 25679, Note_on_c, 1, 65, 0
2, 25920, Note_on_c, 1, 65, 80
2, 26159, Note_on_c, 1, 65, 0
2, 26400, Note_on_c, 1, 65, 80
2, 26639, Note_on_c, 1, 65, 0
2, 26880, Note_on_c, 1, 65, 80
2, 27119, Note_on_c, 1, 65, 0
2, 27360, Note_on_c, 1, 65, 80
2, 27599, Note_on_c, 1, 65, 0
2, 27840, Note_on_c, 1, 65, 80
2, 28079, Note_on_c, 1, 65, 0
2, 28320, Note_on_c, 1, 65, 80
2, 28559, Note_on_c, 1, 65, 0
2, 28800, Note_on_c, 1, 65, 80
2, 29039, Note_on_c, 1, 65, 0
2, 29280, Note_on_c, 1, 65, 80
2, 29519, Note_on_c, 1, 65, 0
2, 29760, Note_on_c, 1, 65, 80
2, 29999, Note_on_c, 1, 65, 0
2, 30240, Note_on_c, 1, 65, 80
2, 30479, Note_on_c, 1, 65, 0
2, 30720, Note_on_c, 1, 65, 80
2, 30959, Note_on_c, 1, 65, 0
2, 31200, Note_on_c, 1, 65, 80
2, 31439, Note_on_c, 1, 65, 0
2, 31680, Note_on_c, 1, 65, 80
2, 31919, Note_on_c, 1, 65, 0
2, 32160, Note_on_c, 1, 65, 80
2, 32399, Note_on_c, 1, 65, 0
2, 32640, Note_on_c, 1, 65, 80
2, 32879, Note_on_c, 1, 65, 0
2, 33120, Note_on_c, 1, 65, 80
2, 33359, Note_on_c, 1, 65, 0
2, 33600, Note_on_c, 1, 65, 80
2, 33839, Note_on_c, 1, 65, 0
2, 34080, Note_on_c, 1, 65, 80
2, 34319, Note_on_c, 1, 65, 0
2, 34560, Note_on_c, 1, 65, 80
2, 34799, Note_on_c, 1, 65, 0
2, 35040, Note_on_c, 1, 65, 80
2, 35279, Note_on_c, 1, 65, 0
2, 35520, Note_on_c, 1, 65, 80
2, 35759, Note_on_c, 1, 65, 0
2, 36000, Note_on_c, 1, 65, 80
2, 36239, Note_on_c, 1, 65, 0
2, 36480, Note_on_c, 1, 65, 80
2, 36719, Note_on_c, 1, 65, 0
2, 36960, Note_on_c, 1, 65, 80
2, 37199, Note_on_c, 1, 65, 0
2, 37440, Note_on_c, 1, 65, 80
2, 37679, Note_on_c, 1, 65, 0
2, 37920, Note_on_c, 1, 65, 80
2, 38159, Note_on_c, 1, 65, 0
2, 38400, Note_on_c, 1, 65, 80
2, 38639, Note_on_c, 1, 65, 0
2, 38880, Note_on_c, 1, 65, 80
2, 39119, Note_on_c, 1, 65, 0
2, 39360, Note_on_c, 1, 65, 80
2, 39599, Note_on_c, 1, 65, 0
2, 39840, Note_on_c, 1, 65, 80
2, 40079, Note_on_c, 1, 65, 0
2, 40320, Note_on_c, 1, 65, 80
2, 40559, Note_on_c, 1, 65, 0
2, 40800, Note_on_c, 1, 65, 80
2, 41039, Note_on_c, 1, 65, 0
2, 41280, Note_on_c, 1, 65, 80
2, 41519, Note_on_c, 1, 65, 0
2, 41760, Note_on_c, 1, 65, 80
2, 41999, Note_on_c, 1, 65, 0
2, 42240, Note_on_c, 1, 65, 80
2, 42479, Note_on_c, 1, 65, 0
2, 42720, Note_on_c, 1, 65, 80
2, 42959, Note_on_c, 1, 65, 0
2, 43200, Note_on_c, 1, 65, 80
2, 43439, Note_on_c, 1, 65, 0
2, 43680, Note_on_c, 1, 65, 80
2, 43919, Note_on_c, 1, 65, 0
2, 44160, Note_on_c, 1, 65, 80
2, 44399, Note_on_c, 1, 65, 0
2, 44640, Note_on_c, 1, 65, 80
2, 44879, Note_on_c, 1, 65, 0
2, 45120, Note_on_c, 1, 65, 80
2, 45359, Note_on_c, 1, 65, 0
2, 45600, Note_on_c, 1, 65, 80
2, 45839, Note_on_c, 1, 65, 0
2, 46080, Note_on_c, 1, 60, 80
2, 46319, Note_on_c, 1, 60, 0
2, 46560, Note_on_c, 1, 60, 80
2, 46799, Note_on_c, 1, 60, 0
2, 47040, Note_on_c, 1, 60, 80
2, 47279, Note_on_c, 1, 60, 0
2, 47520, Note_on_c, 1, 60, 80
2, 47759, Note_on_c, 1, 60, 0
2, 48000, Note_on_c, 1, 60, 80
2, 48239, Note_on_c, 1, 60, 0
2, 48480, Note_on_c, 1, 60, 80
2, 48719, Note_on_c, 1, 60, 0
2, 48960, Note_on_c, 1, 62, 80
2, 49199, Note_on_c, 1, 62, 0
2, 49440, Note_on_c, 1, 62, 80
2, 49679, Note_on_c, 1, 62, 0
2, 49920, Note_on_c, 1, 62, 80
2, 50159, Note_on_c, 1, 62, 0
2, 50400, Note_on_c, 1, 62, 80
2, 50639, Note_on_c, 1, 62, 0
2, 50880, Note_on_c, 1, 62, 80
2, 51119, Note_on_c, 1, 62, 0
2, 51360, Note_on_c, 1, 62, 80
2, 51599, Note_on_c, 1, 62, 0
2, 51840, Note_on_c, 1, 60, 80
2, 52079, Note_on_c, 1, 60, 0
2, 52320, Note_on_c, 1, 60, 80
2, 52559, Note_on_c, 1, 60, 0
2, 52800, Note_on_c, 1, 60, 80
2, 53039, Note_on_c, 1, 60, 0
2, 53280, Note_on_c, 1, 60, 80
2, 53519, Note_on_c, 1, 60, 0
2, 53760, Note_on_c, 1, 60, 80
2, 53999, Note_on_c, 1, 60, 0
2, 54240, Note_on_c, 1, 60, 80
2, 54479, Note_on_c, 1, 60, 0
2, 54720, Note_on_c, 1, 62, 80
2, 54959, Note_on_c, 1, 62, 0
2, 55200, Note_on_c, 1, 62, 80
2, 55439, Note_on_c, 1, 62, 0
2, 55680, Note_on_c, 1, 62, 80
2, 55919, Note_on_c, 1, 62, 0
2, 56160, Note_on_c, 1, 62, 80
2, 56399, Note_on_c, 1, 62, 0
2, 56640, Note_on_c, 1, 62, 80
2, 56879, Note_on_c, 1, 62, 0
2, 57120, Note_on_c, 1, 62, 80
2, 57359, Note_on_c, 1, 62, 0
2, 57600, Note_on_c, 1, 60, 80
2, 57839, Note_on_c, 1, 60, 0
2, 58080, Note_on_c, 1, 60, 80
2, 58080, Note_on_c, 1, 65, 80
2, 58319, Note_on_c, 1, 60, 0
2, 58319, Note_on_c, 1, 65, 0
2, 58560, Note_on_c, 1, 60, 80
2, 58560, Note_on_c, 1, 65, 80
2, 58799, Note_on_c, 1, 60, 0
2, 58799, Note_on_c, 1, 65, 0
2, 59040, Note_on_c, 1, 60, 80
2, 59267, Note_on_c, 1, 60, 0
2, 59280, Note_on_c, 1, 59, 80
2, 59507, Note_on_c, 1, 59, 0
2, 59520, Note_on_c, 1, 60, 80
2, 59747, Note_on_c, 1, 60, 0
2, 59760, Note_on_c, 1, 59, 80
2, 59987, Note_on_c, 1, 59, 0
2, 60000, Note_on_c, 1, 60, 80
2, 60227, Note_on_c, 1, 60, 0
2, 60240, Note_on_c, 1, 59, 80
2, 60467, Note_on_c, 1, 59, 0
2, 60480, Note_on_c, 1, 62, 80
2, 60719, Note_on_c, 1, 62, 0
2, 60960, Note_on_c, 1, 62, 80
2, 60960, Note_on_c, 1, 67, 80
2, 61199, Note_on_c, 1, 62, 0
2, 61199, Note_on_c, 1, 67, 0
2, 61440, Note_on_c, 1, 67, 80
2, 61667, Note_on_c, 1, 67, 0
2, 61680, Note_on_c, 1, 60, 80
2, 61907, Note_on_c, 1, 60, 0
2, 61920, Note_on_c, 1, 79, 80
2, 62160, Note_on_c, 1, 60, 80
2, 62387, Note_on_c, 1, 60, 0
2, 62400, Note_on_c, 1, 62, 80
2, 62639, Note_on_c, 1, 62, 0
2, 62831, Note_on_c, 1, 79, 0
2, 62880, Note_on_c, 1, 62, 80
2, 62880, Note_on_c, 1, 67, 80
2, 63119, Note_on_c, 1, 62, 0
2, 63119, Note_on_c, 1, 67, 0
2, 63360, Note_on_c, 1, 60, 80
2, 63360, Note_on_c, 1, 65, 80
2, 63599, Note_on_c, 1, 60, 0
2, 63599, Note_on_c, 1, 65, 0
2, 63840, Note_on_c, 1, 60, 80
2, 64067, Note_on_c, 1, 60, 0
2, 64080, Note_on_c, 1, 59, 80
2, 64307, Note_on_c, 1, 59, 0
2, 64320, Note_on_c, 1, 60, 80
2, 64547, Note_on_c, 1, 60, 0
2, 64560, Note_on_c, 1, 59, 80
2, 64787, Note_on_c, 1, 59, 0
2, 64800, Note_on_c, 1, 60, 80
2, 65039, Note_on_c, 1, 60, 0
2, 65280, Note_on_c, 1, 60, 80
2, 65519, Note_on_c, 1, 60, 0
2, 65760, Note_on_c, 1, 60, 80
2, 65999, Note_on_c, 1, 60, 0
2, 66240, Note_on_c, 1, 62, 80
2, 66240, Note_on_c, 1, 67, 80
2, 66479, Note_on_c, 1, 62, 0
2, 66479, Note_on_c, 1, 67, 0
2, 66720, Note_on_c, 1, 62, 80
2, 66947, Note_on_c, 1, 62, 0
2, 66960, Note_on_c, 1, 60, 80
2, 67187, Note_on_c, 1, 60, 0
2, 67200, Note_on_c, 1, 62, 80
2, 67427, Note_on_c, 1, 62, 0
2, 67440, Note_on_c, 1, 60, 80
2, 67667, Note_on_c, 1, 60, 0
2, 67680, Note_on_c, 1, 62, 80
2, 67919, Note_on_c, 1, 62, 0
2, 68160, Note_on_c, 1, 62, 80
2, 68399, Note_on_c, 1, 62, 0
2, 68640, Note_on_c, 1, 62, 80
2, 68879, Note_on_c, 1, 62, 0
2, 92160, Note_on_c, 1, 52, 80
2, 92615, Note_on_c, 1, 52, 0
2, 92616, End_track
3, 0, Start_track
3, 0, Title_t, "Piano, Piano\000"
3, 0, Key_signature, 0, "major"
3, 0, Control_c, 0, 121, 0
3, 0, Program_c, 0, 0
3, 0, Control_c, 0, 7, 100
3, 0, Control_c, 0, 10, 64
3, 0, Control_c, 0, 91, 0
3, 0, Control_c, 0, 93, 0
3, 0, MIDI_port, 0
3, 0, Note_on_c, 0, 57, 80
3, 227, Note_on_c, 0, 57, 0
3, 240, Note_on_c, 0, 52, 80
3, 467, Note_on_c, 0, 52, 0
3, 480, Note_on_c, 0, 57, 80
3, 1391, Note_on_c, 0, 57, 0
3, 1440, Note_on_c, 0, 57, 80
3, 1667, Note_on_c, 0, 57, 0
3, 1680, Note_on_c, 0, 52, 80
3, 1907, Note_on_c, 0, 52, 0
3, 1920, Note_on_c, 0, 57, 80
3, 2831, Note_on_c, 0, 57, 0
3, 2880, Note_on_c, 0, 57, 80
3, 3107, Note_on_c, 0, 57, 0
3, 3120, Note_on_c, 0, 52, 80
3, 3347, Note_on_c, 0, 52, 0
3, 3360, Note_on_c, 0, 57, 80
3, 4271, Note_on_c, 0, 57, 0
3, 4320, Note_on_c, 0, 57, 80
3, 4547, Note_on_c, 0, 57, 0
3, 4560, Note_on_c, 0, 52, 80
3, 4787, Note_on_c, 0, 52, 0
3, 4800, Note_on_c, 0, 57, 80
3, 5711, Note_on_c, 0, 57, 0
3, 5760, Note_on_c, 0, 57, 80
3, 5987, Note_on_c, 0, 57, 0
3, 6000, Note_on_c, 0, 52, 80
3, 6227, Note_on_c, 0, 52, 0
3, 6240, Note_on_c, 0, 57, 80
3, 7151, Note_on_c, 0, 57, 0
3, 7200, Note_on_c, 0, 57, 80
3, 7427, Note_on_c, 0, 57, 0
3, 7440, Note_on_c, 0, 52, 80
3, 7667, Note_on_c, 0, 52, 0
3, 7680, Note_on_c, 0, 57, 80
3, 8591, Note_on_c, 0, 57, 0
3, 8640, Note_on_c, 0, 57, 80
3, 8867, Note_on_c, 0, 57, 0
3, 8880, Note_on_c, 0, 52, 80
3, 9107, Note_on_c, 0, 52, 0
3, 9120, Note_on_c, 0, 57, 80
3, 10031, Note_on_c, 0, 57, 0
3, 10080, Note_on_c, 0, 57, 80
3, 10307, Note_on_c, 0, 57, 0
3, 10320, Note_on_c, 0, 52, 80
3, 10547, Note_on_c, 0, 52, 0
3, 10560, Note_on_c, 0, 57, 80
3, 11471, Note_on_c, 0, 57, 0
3, 11520, Note_on_c, 0, 57, 80
3, 11747, Note_on_c, 0, 57, 0
3, 11760, Note_on_c, 0, 52, 80
3, 11987, Note_on_c, 0, 52, 0
3, 12000, Note_on_c, 0, 57, 80
3, 12911, Note_on_c, 0, 57, 0
3, 12960, Note_on_c, 0, 57, 80
3, 13187, Note_on_c, 0, 57, 0
3, 13200, Note_on_c, 0, 52, 80
3, 13427, Note_on_c, 0, 52, 0
3, 13440, Note_on_c, 0, 57, 80
3, 14351, Note_on_c, 0, 57, 0
3, 14400, Note_on_c, 0, 57, 80
3, 14627, Note_on_c, 0, 57, 0
3, 14640, Note_on_c, 0, 52, 80
3, 14867, Note_on_c, 0, 52, 0
3, 14880, Note_on_c, 0, 57, 80
3, 15791, Note_on_c, 0, 57, 0
3, 15840, Note_on_c, 0, 57, 80
3, 16067, Note_on_c, 0, 57, 0
3, 16080, Note_on_c, 0, 52, 80
3, 16307, Note_on_c, 0, 52, 0
3, 16320, Note_on_c, 0, 57, 80
3, 17231, Note_on_c, 0, 57, 0
3, 17280, Note_on_c, 0, 57, 80
3, 17507, Note_on_c, 0, 57, 0
3, 17520, Note_on_c, 0, 52, 80
3, 17747, Note_on_c, 0, 52, 0
3, 17760, Note_on_c, 0, 57, 80
3, 18671, Note_on_c, 0, 57, 0
3, 18720, Note_on_c, 0, 57, 80
3, 18947, Note_on_c, 0, 57, 0
3, 18960, Note_on_c, 0, 52, 80
3, 19187, Note_on_c, 0, 52, 0
3, 19200, Note_on_c, 0, 57, 80
3, 20111, Note_on_c, 0, 57, 0
3, 20160, Note_on_c, 0, 57, 80
3, 20387, Note_on_c, 0, 57, 0
3, 20400, Note_on_c, 0, 52, 80
3, 20627, Note_on_c, 0, 52, 0
3, 20640, Note_on_c, 0, 57, 80
3, 21551, Note_on_c, 0, 57, 0
3, 21600, Note_on_c, 0, 57, 80
3, 21827, Note_on_c, 0, 57, 0
3, 21840, Note_on_c, 0, 52, 80
3, 22067, Note_on_c, 0, 52, 0
3, 22080, Note_on_c, 0, 57, 80
3, 22991, Note_on_c, 0, 57, 0
3, 23040, Note_on_c, 0, 57, 80
3, 23267, Note_on_c, 0, 57, 0
3, 23280, Note_on_c, 0, 52, 80
3, 23507, Note_on_c, 0, 52, 0
3, 23520, Note_on_c, 0, 57, 80
3, 24431, Note_on_c, 0, 57, 0
3, 24480, Note_on_c, 0, 57, 80
3, 24707, Note_on_c, 0, 57, 0
3, 24720, Note_on_c, 0, 52, 80
3, 24947, Note_on_c, 0, 52, 0
3, 24960, Note_on_c, 0, 57, 80
3, 25871, Note_on_c, 0, 57, 0
3, 25920, Note_on_c, 0, 57, 80
3, 26147, Note_on_c, 0, 57, 0
3, 26160, Note_on_c, 0, 52, 80
3, 26387, Note_on_c, 0, 52, 0
3, 26400, Note_on_c, 0, 57, 80
3, 27311, Note_on_c, 0, 57, 0
3, 27360, Note_on_c, 0, 57, 80
3, 27587, Note_on_c, 0, 57, 0
3, 27600, Note_on_c, 0, 52, 80
3, 27827, Note_on_c, 0, 52, 0
3, 27840, Note_on_c, 0, 57, 80
3, 28751, Note_on_c, 0, 57, 0
3, 28800, Note_on_c, 0, 57, 80
3, 29027, Note_on_c, 0, 57, 0
3, 29040, Note_on_c, 0, 52, 80
3, 29267, Note_on_c, 0, 52, 0
3, 29280, Note_on_c, 0, 57, 80
3, 30191, Note_on_c, 0, 57, 0
3, 30240, Note_on_c, 0, 57, 80
3, 30467, Note_on_c, 0, 57, 0
3, 30480, Note_on_c, 0, 52, 80
3, 30707, Note_on_c, 0, 52, 0
3, 30720, Note_on_c, 0, 57, 80
3, 31631, Note_on_c, 0, 57, 0
3, 31680, Note_on_c, 0, 57, 80
3, 31907, Note_on_c, 0, 57, 0
3, 31920, Note_on_c, 0, 52, 80
3, 32147, Note_on_c, 0, 52, 0
3, 32160, Note_on_c, 0, 57, 80
3, 33071, Note_on_c, 0, 57, 0
3, 33120, Note_on_c, 0, 57, 80
3, 33347, Note_on_c, 0, 57, 0
3, 33360, Note_on_c, 0, 52, 80
3, 33587, Note_on_c, 0, 52, 0
3, 33600, Note_on_c, 0, 57, 80
3, 34511, Note_on_c, 0, 57, 0
3, 34560, Note_on_c, 0, 57, 80
3, 34787, Note_on_c, 0, 57, 0
3, 34800, Note_on_c, 0, 52, 80
3, 35027, Note_on_c, 0, 52, 0
3, 35040, Note_on_c, 0, 57, 80
3, 35951, Note_on_c, 0, 57, 0
3, 36000, Note_on_c, 0, 57, 80
3, 36227, Note_on_c, 0, 57, 0
3, 36240, Note_on_c, 0, 52, 80
3, 36467, Note_on_c, 0, 52, 0
3, 36480, Note_on_c, 0, 57, 80
3, 37391, Note_on_c, 0, 57, 0
3, 37440, Note_on_c, 0, 57, 80
3, 37667, Note_on_c, 0, 57, 0
3, 37680, Note_on_c, 0, 52, 80
3, 37907, Note_on_c, 0, 52, 0
3, 37920, Note_on_c, 0, 57, 80
3, 38831, Note_on_c, 0, 57, 0
3, 38880, Note_on_c, 0, 57, 80
3, 39107, Note_on_c, 0, 57, 0
3, 39120, Note_on_c, 0, 52, 80
3, 39347, Note_on_c, 0, 52, 0
3, 39360, Note_on_c, 0, 57, 80
3, 40271, Note_on_c, 0, 57, 0
3, 40320, Note_on_c, 0, 57, 80
3, 40547, Note_on_c, 0, 57, 0
3, 40560, Note_on_c, 0, 52, 80
3, 40787, Note_on_c, 0, 52, 0
3, 40800, Note_on_c, 0, 57, 80
3, 41711, Note_on_c, 0, 57, 0
3, 41760, Note_on_c, 0, 57, 80
3, 41987, Note_on_c, 0, 57, 0
3, 42000, Note_on_c, 0, 52, 80
3, 42227, Note_on_c, 0, 52, 0
3, 42240, Note_on_c, 0, 57, 80
3, 43151, Note_on_c, 0, 57, 0
3, 43200, Note_on_c, 0, 57, 80
3, 43427, Note_on_c, 0, 57, 0
3, 43440, Note_on_c, 0, 52, 80
3, 43667, Note_on_c, 0, 52, 0
3, 43680, Note_on_c, 0, 57, 80
3, 44591, Note_on_c, 0, 57, 0
3, 44640, Note_on_c, 0, 57, 80
3, 44867, Note_on_c, 0, 57, 0
3, 44880, Note_on_c, 0, 52, 80
3, 45107, Note_on_c, 0, 52, 0
3, 45120, Note_on_c, 0, 57, 80
3, 46031, Note_on_c, 0, 57, 0
3, 46080, Note_on_c, 0, 57, 80
3, 46307, Note_on_c, 0, 57, 0
3, 46320, Note_on_c, 0, 52, 80
3, 46547, Note_on_c, 0, 52, 0
3, 46560, Note_on_c, 0, 57, 80
3, 47471, Note_on_c, 0, 57, 0
3, 47520, Note_on_c, 0, 57, 80
3, 47747, Note_on_c, 0, 57, 0
3, 47760, Note_on_c, 0, 52, 80
3, 47987, Note_on_c, 0, 52, 0
3, 48000, Note_on_c, 0, 57, 80
3, 48911, Note_on_c, 0, 57, 0
3, 48960, Note_on_c, 0, 57, 80
3, 49187, Note_on_c, 0, 57, 0
3, 49200, Note_on_c, 0, 52, 80
3, 49427, Note_on_c, 0, 52, 0
3, 49440, Note_on_c, 0, 57, 80
3, 50351, Note_on_c, 0, 57, 0
3, 50400, Note_on_c, 0, 57, 80
3, 50627, Note_on_c, 0, 57, 0
3, 50640, Note_on_c, 0, 52, 80
3, 50867, Note_on_c, 0, 52, 0
3, 50880, Note_on_c, 0, 57, 80
3, 51791, Note_on_c, 0, 57, 0
3, 51840, Note_on_c, 0, 57, 80
3, 52067, Note_on_c, 0, 57, 0
3, 52080, Note_on_c, 0, 52, 80
3, 52307, Note_on_c, 0, 52, 0
3, 52320, Note_on_c, 0, 57, 80
3, 53231, Note_on_c, 0, 57, 0
3, 53280, Note_on_c, 0, 57, 80
3, 53507, Note_on_c, 0, 57, 0
3, 53520, Note_on_c, 0, 52, 80
3, 53747, Note_on_c, 0, 52, 0
3, 53760, Note_on_c, 0, 57, 80
3, 54671, Note_on_c, 0, 57, 0
3, 54720, Note_on_c, 0, 57, 80
3, 54947, Note_on_c, 0, 57, 0
3, 54960, Note_on_c, 0, 52, 80
3, 55187, Note_on_c, 0, 52, 0
3, 55200, Note_on_c, 0, 57, 80
3, 56111, Note_on_c, 0, 57, 0
3, 56160, Note_on_c, 0, 57, 80
3, 56387, Note_on_c, 0, 57, 0
3, 56400, Note_on_c, 0, 52, 80
3, 56627, Note_on_c, 0, 52, 0
3, 56640, Note_on_c, 0, 57, 80
3, 57551, Note_on_c, 0, 57, 0
3, 57600, Note_on_c, 0, 57, 80
3, 57827, Note_on_c, 0, 57, 0
3, 57840, Note_on_c, 0, 52, 80
3, 58067, Note_on_c, 0, 52, 0
3, 58080, Note_on_c, 0, 57, 80
3, 58991, Note_on_c, 0, 57, 0
3, 59040, Note_on_c, 0, 57, 80
3, 59267, Note_on_c, 0, 57, 0
3, 59280, Note_on_c, 0, 52, 80
3, 59507, Note_on_c, 0, 52, 0
3, 59520, Note_on_c, 0, 57, 80
3, 60431, Note_on_c, 0, 57, 0
3, 60480, Note_on_c, 0, 57, 80
3, 60707, Note_on_c, 0, 57, 0
3, 60720, Note_on_c, 0, 52, 80
3, 60947, Note_on_c, 0, 52, 0
3, 60960, Note_on_c, 0, 57, 80
3, 61415, Note_on_c, 0, 57, 0
3, 61440, Note_on_c, 0, 62, 80
3, 61679, Note_on_c, 0, 62, 0
3, 61920, Note_on_c, 0, 57, 80
3, 61920, Note_on_c, 0, 62, 80
3, 61920, Note_on_c, 0, 67, 80
3, 62147, Note_on_c, 0, 57, 0
3, 62147, Note_on_c, 0, 62, 0
3, 62147, Note_on_c, 0, 67, 0
3, 62160, Note_on_c, 0, 52, 80
3, 62387, Note_on_c, 0, 52, 0
3, 62400, Note_on_c, 0, 57, 80
3, 63311, Note_on_c, 0, 57, 0
3, 63360, Note_on_c, 0, 57, 80
3, 63587, Note_on_c, 0, 57, 0
3, 63600, Note_on_c, 0, 52, 80
3, 63827, Note_on_c, 0, 52, 0
3, 63840, Note_on_c, 0, 57, 80
3, 64751, Note_on_c, 0, 57, 0
3, 64800, Note_on_c, 0, 57, 80
3, 65027, Note_on_c, 0, 57, 0
3, 65040, Note_on_c, 0, 52, 80
3, 65267, Note_on_c, 0, 52, 0
3, 65280, Note_on_c, 0, 57, 80
3, 66191, Note_on_c, 0, 57, 0
3, 66240, Note_on_c, 0, 57, 80
3, 66467, Note_on_c, 0, 57, 0
3, 66480, Note_on_c, 0, 52, 80
3, 66707, Note_on_c, 0, 52, 0
3, 66720, Note_on_c, 0, 57, 80
3, 67631, Note_on_c, 0, 57, 0
3, 67680, Note_on_c, 0, 57, 80
3, 67907, Note_on_c, 0, 57, 0
3, 67920, Note_on_c, 0, 52, 80
3, 68147, Note_on_c, 0, 52, 0
3, 68160, Note_on_c, 0, 57, 80
3, 69071, Note_on_c, 0, 57, 0
3, 69120, Note_on_c, 0, 64, 80
3, 69120, Note_on_c, 0, 71, 80
3, 69575, Note_on_c, 0, 64, 0
3, 69575, Note_on_c, 0, 71, 0
3, 74880, Note_on_c, 0, 62, 80
3, 74880, Note_on_c, 0, 65, 80
3, 74880, Note_on_c, 0, 71, 80
3, 76247, Note_on_c, 0, 62, 0
3, 76247, Note_on_c, 0, 65, 0
3, 76247, Note_on_c, 0, 71, 0
3, 77760, Note_on_c, 0, 62, 80
3, 77820, Note_on_c, 0, 65, 80
3, 79016, Note_on_c, 0, 65, 0
3, 79127, Note_on_c, 0, 62, 0
3, 79200, Note_on_c, 0, 62, 80
3, 79200, Note_on_c, 0, 69, 80
3, 79883, Note_on_c, 0, 62, 0
3, 79883, Note_on_c, 0, 69, 0
3, 79920, Note_on_c, 0, 65, 80
3, 79920, Note_on_c, 0, 69, 80
3, 80603, Note_on_c, 0, 65, 0
3, 80603, Note_on_c, 0, 69, 0
3, 80640, Note_on_c, 0, 64, 80
3, 80700, Note_on_c, 0, 67, 80
3, 80760, Note_on_c, 0, 71, 80
3, 81551, Note_on_c, 0, 64, 0
3, 81554, Note_on_c, 0, 67, 0
3, 81671, Note_on_c, 0, 71, 0
3, 83520, Note_on_c, 0, 64, 80
3, 83520, Note_on_c, 0, 67, 80
3, 83520, Note_on_c, 0, 71, 80
3, 84887, Note_on_c, 0, 64, 0
3, 84887, Note_on_c, 0, 67, 0
3, 84887, Note_on_c, 0, 71, 0
3, 84960, Note_on_c, 0, 64, 80
3, 84960, Note_on_c, 0, 67, 80
3, 86327, Note_on_c, 0, 64, 0
3, 86327, Note_on_c, 0, 67, 0
3, 86400, Note_on_c, 0, 62, 80
3, 86460, Note_on_c, 0, 65, 80
3, 86520, Note_on_c, 0, 71, 80
3, 87656, Note_on_c, 0, 65, 0
3, 87767, Note_on_c, 0, 62, 0
3, 88229, Note_on_c, 0, 71, 0
3, 89280, Note_on_c, 0, 65, 80
3, 89280, Note_on_c, 0, 69, 80
3, 89280, Note_on_c, 0, 72, 80
3, 90647, Note_on_c, 0, 65, 0
3, 90647, Note_on_c, 0, 69, 0
3, 90647, Note_on_c, 0, 72, 0
3, 90720, Note_on_c, 0, 65, 80
3, 90720, Note_on_c, 0, 74, 80
3, 91175, Note_on_c, 0, 65, 0
3, 91175, Note_on_c, 0, 74, 0
3, 91200, Note_on_c, 0, 69, 80
3, 91200, Note_on_c, 0, 76, 80
3, 91655, Note_on_c, 0, 69, 0
3, 91655, Note_on_c, 0, 76, 0
3, 91680, Note_on_c, 0, 69, 80
3, 91680, Note_on_c, 0, 74, 80
3, 91907, Note_on_c, 0, 69, 0
3, 91907, Note_on_c, 0, 74, 0
3, 91920, Note_on_c, 0, 65, 80
3, 91920, Note_on_c, 0, 72, 80
3, 92147, Note_on_c, 0, 65, 0
3, 92147, Note_on_c, 0, 72, 0
3, 92160, Note_on_c, 0, 71, 80
3, 92615, Note_on_c, 0, 71, 0
3, 92616, End_track
4, 0, Start_track
4, 0, Title_t, "Electric Bass, Bass\000"
4, 0, Key_signature, 0, "major"
4, 0, Control_c, 2, 121, 0
4, 0, Program_c, 2, 33
4, 0, Control_c, 2, 7, 100
4, 0, Control_c, 2, 10, 64
4, 0, Control_c, 2, 91, 0
4, 0, Control_c, 2, 93, 0
4, 0, MIDI_port, 0
4, 0, Note_on_c, 2, 57, 80
4, 0, Control_c, 5, 121, 0
4, 0, Program_c, 5, 36
4, 0, Control_c, 5, 7, 100
4, 0, Control_c, 5, 10, 64
4, 0, Control_c, 5, 91, 0
4, 0, Control_c, 5, 93, 0
4, 0, MIDI_port, 0
4, 0, Control_c, 6, 121, 0
4, 0, Program_c, 6, 37
4, 0, Control_c, 6, 7, 100
4, 0, Control_c, 6, 10, 64
4, 0, Control_c, 6, 91, 0
4, 0, Control_c, 6, 93, 0
4, 0, MIDI_port, 0
4, 1439, Note_on_c, 2, 57, 0
4, 1440, Note_on_c, 2, 57, 80
4, 2879, Note_on_c, 2, 57, 0
4, 2880, Note_on_c, 2, 57, 80
4, 4319, Note_on_c, 2, 57, 0
4, 4320, Note_on_c, 2, 57, 80
4, 5759, Note_on_c, 2, 57, 0
4, 5760, Note_on_c, 2, 57, 80
4, 7199, Note_on_c, 2, 57, 0
4, 7200, Note_on_c, 2, 57, 80
4, 8639, Note_on_c, 2, 57, 0
4, 8640, Note_on_c, 2, 57, 80
4, 10079, Note_on_c, 2, 57, 0
4, 10080, Note_on_c, 2, 57, 80
4, 11519, Note_on_c, 2, 57, 0
4, 11520, Note_on_c, 2, 57, 80
4, 12959, Note_on_c, 2, 57, 0
4, 12960, Note_on_c, 2, 57, 80
4, 14399, Note_on_c, 2, 57, 0
4, 14400, Note_on_c, 2, 57, 80
4, 15839, Note_on_c, 2, 57, 0
4, 15840, Note_on_c, 2, 57, 80
4, 17279, Note_on_c, 2, 57, 0
4, 17280, Note_on_c, 2, 57, 80
4, 18719, Note_on_c, 2, 57, 0
4, 18720, Note_on_c, 2, 57, 80
4, 20159, Note_on_c, 2, 57, 0
4, 20160, Note_on_c, 2, 57, 80
4, 21599, Note_on_c, 2, 57, 0
4, 21600, Note_on_c, 2, 57, 80
4, 23039, Note_on_c, 2, 57, 0
4, 23040, Note_on_c, 2, 57, 80
4, 24479, Note_on_c, 2, 57, 0
4, 24480, Note_on_c, 2, 57, 80
4, 25919, Note_on_c, 2, 57, 0
4, 25920, Note_on_c, 2, 57, 80
4, 27359, Note_on_c, 2, 57, 0
4, 27360, Note_on_c, 2, 57, 80
4, 28799, Note_on_c, 2, 57, 0
4, 28800, Note_on_c, 2, 57, 80
4, 30239, Note_on_c, 2, 57, 0
4, 30240, Note_on_c, 2, 57, 80
4, 31679, Note_on_c, 2, 57, 0
4, 31680, Note_on_c, 2, 57, 80
4, 33119, Note_on_c, 2, 57, 0
4, 33120, Note_on_c, 2, 57, 80
4, 34559, Note_on_c, 2, 57, 0
4, 34560, Note_on_c, 2, 57, 80
4, 35999, Note_on_c, 2, 57, 0
4, 36000, Note_on_c, 2, 57, 80
4, 37439, Note_on_c, 2, 57, 0
4, 37440, Note_on_c, 2, 57, 80
4, 38879, Note_on_c, 2, 57, 0
4, 38880, Note_on_c, 2, 57, 80
4, 40319, Note_on_c, 2, 57, 0
4, 40320, Note_on_c, 2, 57, 80
4, 41759, Note_on_c, 2, 57, 0
4, 41760, Note_on_c, 2, 57, 80
4, 43199, Note_on_c, 2, 57, 0
4, 43200, Note_on_c, 2, 57, 80
4, 44639, Note_on_c, 2, 57, 0
4, 44640, Note_on_c, 2, 57, 80
4, 46079, Note_on_c, 2, 57, 0
4, 46080, Note_on_c, 2, 57, 80
4, 47519, Note_on_c, 2, 57, 0
4, 47520, Note_on_c, 2, 57, 80
4, 48959, Note_on_c, 2, 57, 0
4, 48960, Note_on_c, 2, 57, 80
4, 50399, Note_on_c, 2, 57, 0
4, 50400, Note_on_c, 2, 57, 80
4, 51839, Note_on_c, 2, 57, 0
4, 51840, Note_on_c, 2, 57, 80
4, 53279, Note_on_c, 2, 57, 0
4, 53280, Note_on_c, 2, 57, 80
4, 54719, Note_on_c, 2, 57, 0
4, 54720, Note_on_c, 2, 57, 80
4, 56159, Note_on_c, 2, 57, 0
4, 56160, Note_on_c, 2, 57, 80
4, 57599, Note_on_c, 2, 57, 0
4, 57600, Note_on_c, 2, 57, 80
4, 59039, Note_on_c, 2, 57, 0
4, 59040, Note_on_c, 2, 57, 80
4, 60479, Note_on_c, 2, 57, 0
4, 60480, Note_on_c, 2, 57, 80
4, 61919, Note_on_c, 2, 57, 0
4, 61920, Note_on_c, 2, 57, 80
4, 63359, Note_on_c, 2, 57, 0
4, 63360, Note_on_c, 2, 57, 80
4, 64799, Note_on_c, 2, 57, 0
4, 64800, Note_on_c, 2, 57, 80
4, 66239, Note_on_c, 2, 57, 0
4, 66240, Note_on_c, 2, 57, 80
4, 67679, Note_on_c, 2, 57, 0
4, 67680, Note_on_c, 2, 57, 80
4, 69119, Note_on_c, 2, 57, 0
4, 69120, Note_on_c, 2, 64, 80
4, 70559, Note_on_c, 2, 64, 0
4, 70560, Note_on_c, 2, 64, 80
4, 71999, Note_on_c, 2, 64, 0
4, 72000, Note_on_c, 2, 64, 80
4, 73439, Note_on_c, 2, 64, 0
4, 73440, Note_on_c, 2, 64, 80
4, 74879, Note_on_c, 2, 64, 0
4, 74880, Note_on_c, 2, 62, 80
4, 76319, Note_on_c, 2, 62, 0
4, 76320, Note_on_c, 2, 62, 80
4, 77759, Note_on_c, 2, 62, 0
4, 77760, Note_on_c, 2, 62, 80
4, 79199, Note_on_c, 2, 62, 0
4, 79200, Note_on_c, 2, 62, 80
4, 80639, Note_on_c, 2, 62, 0
4, 80640, Note_on_c, 2, 64, 80
4, 82079, Note_on_c, 2, 64, 0
4, 82080, Note_on_c, 2, 64, 80
4, 83519, Note_on_c, 2, 64, 0
4, 83520, Note_on_c, 2, 64, 80
4, 84959, Note_on_c, 2, 64, 0
4, 84960, Note_on_c, 2, 64, 80
4, 86399, Note_on_c, 2, 64, 0
4, 86400, Note_on_c, 2, 62, 80
4, 87839, Note_on_c, 2, 62, 0
4, 87840, Note_on_c, 2, 62, 80
4, 89279, Note_on_c, 2, 62, 0
4, 89280, Note_on_c, 2, 62, 80
4, 90719, Note_on_c, 2, 62, 0
4, 90720, Note_on_c, 2, 62, 80
4, 92159, Note_on_c, 2, 62, 0
4, 92160, Note_on_c, 2, 57, 80
4, 93599, Note_on_c, 2, 57, 0
4, 93600, End_track
5, 0, Start_track
5, 0, Title_t, "Bell, Bell\000"
5, 0, Key_signature, 0, "major"
5, 0, Control_c, 3, 121, 0
5, 0, Program_c, 3, 14
5, 0, Control_c, 3, 7, 100
5, 0, Control_c, 3, 10, 64
5, 0, Control_c, 3, 91, 0
5, 0, Control_c, 3, 93, 0
5, 0, MIDI_port, 0
5, 480, Note_on_c, 3, 76, 80
5, 480, Control_c, 3, 2, 80
5, 959, Note_on_c, 3, 76, 0
5, 960, Note_on_c, 3, 74, 80
5, 1439, Note_on_c, 3, 74, 0
5, 1440, Note_on_c, 3, 69, 80
5, 1919, Note_on_c, 3, 69, 0
5, 3360, Note_on_c, 3, 76, 80
5, 3839, Note_on_c, 3, 76, 0
5, 3840, Note_on_c, 3, 74, 80
5, 4319, Note_on_c, 3, 74, 0
5, 4320, Note_on_c, 3, 79, 80
5, 4559, Note_on_c, 3, 79, 0
5, 5280, Note_on_c, 3, 77, 80
5, 5759, Note_on_c, 3, 77, 0
5, 5760, Note_on_c, 3, 76, 80
5, 7199, Note_on_c, 3, 76, 0
5, 12000, Note_on_c, 3, 76, 80
5, 12479, Note_on_c, 3, 76, 0
5, 12480, Note_on_c, 3, 74, 80
5, 12959, Note_on_c, 3, 74, 0
5, 12960, Note_on_c, 3, 69, 80
5, 14399, Note_on_c, 3, 69, 0
5, 14880, Note_on_c, 3, 76, 80
5, 15119, Note_on_c, 3, 76, 0
5, 15360, Note_on_c, 3, 74, 80
5, 15839, Note_on_c, 3, 74, 0
5, 15840, Note_on_c, 3, 79, 80
5, 16799, Note_on_c, 3, 79, 0
5, 16800, Note_on_c, 3, 77, 80
5, 17279, Note_on_c, 3, 77, 0
5, 17280, Note_on_c, 3, 76, 80
5, 18719, Note_on_c, 3, 76, 0
5, 20160, Note_on_c, 3, 76, 80
5, 21599, Note_on_c, 3, 76, 0
5, 22560, Note_on_c, 3, 69, 80
5, 23039, Note_on_c, 3, 69, 0
5, 23040, Note_on_c, 3, 76, 80
5, 24479, Note_on_c, 3, 76, 0
5, 24480, Note_on_c, 3, 76, 80
5, 24959, Note_on_c, 3, 76, 0
5, 24960, Note_on_c, 3, 77, 80
5, 25439, Note_on_c, 3, 77, 0
5, 25440, Note_on_c, 3, 79, 80
5, 25919, Note_on_c, 3, 79, 0
5, 25920, Note_on_c, 3, 76, 80
5, 27359, Note_on_c, 3, 76, 0
5, 27840, Note_on_c, 3, 74, 80
5, 28319, Note_on_c, 3, 74, 0
5, 28320, Note_on_c, 3, 72, 80
5, 28799, Note_on_c, 3, 72, 0
5, 28800, Note_on_c, 3, 71, 80
5, 30239, Note_on_c, 3, 71, 0
5, 34080, Note_on_c, 3, 69, 80
5, 34559, Note_on_c, 3, 69, 0
5, 34560, Note_on_c, 3, 76, 80
5, 35999, Note_on_c, 3, 76, 0
5, 36000, Note_on_c, 3, 76, 80
5, 36479, Note_on_c, 3, 76, 0
5, 36480, Note_on_c, 3, 77, 80
5, 36959, Note_on_c, 3, 77, 0
5, 36960, Note_on_c, 3, 79, 80
5, 37439, Note_on_c, 3, 79, 0
5, 37440, Note_on_c, 3, 76, 80
5, 38879, Note_on_c, 3, 76, 0
5, 39360, Note_on_c, 3, 77, 80
5, 39839, Note_on_c, 3, 77, 0
5, 39840, Note_on_c, 3, 79, 80
5, 40319, Note_on_c, 3, 79, 0
5, 40320, Note_on_c, 3, 81, 80
5, 41759, Note_on_c, 3, 81, 0
5, 41760, Note_on_c, 3, 81, 80
5, 42239, Note_on_c, 3, 81, 0
5, 42240, Note_on_c, 3, 79, 80
5, 42719, Note_on_c, 3, 79, 0
5, 42720, Note_on_c, 3, 77, 80
5, 43199, Note_on_c, 3, 77, 0
5, 43200, Note_on_c, 3, 76, 80
5, 44639, Note_on_c, 3, 76, 0
5, 46560, Note_on_c, 3, 76, 80
5, 47039, Note_on_c, 3, 76, 0
5, 47040, Note_on_c, 3, 74, 80
5, 47519, Note_on_c, 3, 74, 0
5, 47520, Note_on_c, 3, 69, 80
5, 48959, Note_on_c, 3, 69, 0
5, 49440, Note_on_c, 3, 76, 80
5, 49919, Note_on_c, 3, 76, 0
5, 49920, Note_on_c, 3, 74, 80
5, 50399, Note_on_c, 3, 74, 0
5, 50400, Note_on_c, 3, 79, 80
5, 51359, Note_on_c, 3, 79, 0
5, 51360, Note_on_c, 3, 77, 80
5, 51839, Note_on_c, 3, 77, 0
5, 51840, Note_on_c, 3, 76, 80
5, 53279, Note_on_c, 3, 76, 0
5, 54720, Note_on_c, 3, 76, 80
5, 56159, Note_on_c, 3, 76, 0
5, 58080, Note_on_c, 3, 76, 80
5, 58559, Note_on_c, 3, 76, 0
5, 58560, Note_on_c, 3, 74, 80
5, 59039, Note_on_c, 3, 74, 0
5, 59040, Note_on_c, 3, 69, 80
5, 60479, Note_on_c, 3, 69, 0
5, 60960, Note_on_c, 3, 76, 80
5, 61439, Note_on_c, 3, 76, 0
5, 61440, Note_on_c, 3, 74, 80
5, 61919, Note_on_c, 3, 74, 0
5, 61920, Note_on_c, 3, 79, 80
5, 62879, Note_on_c, 3, 79, 0
5, 62880, Note_on_c, 3, 77, 80
5, 63359, Note_on_c, 3, 77, 0
5, 63360, Note_on_c, 3, 76, 80
5, 64799, Note_on_c, 3, 76, 0
5, 70560, Note_on_c, 3, 71, 80
5, 71999, Note_on_c, 3, 71, 0
5, 72000, Note_on_c, 3, 72, 80
5, 73439, Note_on_c, 3, 72, 0
5, 73440, Note_on_c, 3, 74, 80
5, 74879, Note_on_c, 3, 74, 0
5, 76320, Note_on_c, 3, 71, 80
5, 77759, Note_on_c, 3, 71, 0
5, 77760, Note_on_c, 3, 72, 80
5, 77760, Note_on_c, 3, 77, 80
5, 79199, Note_on_c, 3, 72, 0
5, 79199, Note_on_c, 3, 77, 0
5, 79200, Note_on_c, 3, 74, 80
5, 80639, Note_on_c, 3, 74, 0
5, 80640, Note_on_c, 3, 71, 80
5, 80640, Note_on_c, 3, 76, 80
5, 81119, Note_on_c, 3, 71, 0
5, 81119, Note_on_c, 3, 76, 0
5, 81120, End_track
6, 0, Start_track
6, 0, Title_t, "Classical Guitar, Lute\000"
6, 0, Key_signature, 0, "major"
6, 0, Control_c, 4, 121, 0
6, 0, Program_c, 4, 24
6, 0, Control_c, 4, 7, 100
6, 0, Control_c, 4, 10, 64
6, 0, Control_c, 4, 91, 0
6, 0, Control_c, 4, 93, 0
6, 0, MIDI_port, 0
6, 0, Control_c, 7, 121, 0
6, 0, Program_c, 7, 28
6, 0, Control_c, 7, 7, 100
6, 0, Control_c, 7, 10, 64
6, 0, Control_c, 7, 91, 0
6, 0, Control_c, 7, 93, 0
6, 0, MIDI_port, 0
6, 46080, Note_on_c, 4, 57, 80
6, 46319, Note_on_c, 4, 57, 0
6, 46320, Note_on_c, 4, 59, 80
6, 46559, Note_on_c, 4, 59, 0
6, 46560, Note_on_c, 4, 60, 80
6, 46799, Note_on_c, 4, 60, 0
6, 46800, Note_on_c, 4, 62, 80
6, 47039, Note_on_c, 4, 62, 0
6, 47040, Note_on_c, 4, 60, 80
6, 47279, Note_on_c, 4, 60, 0
6, 47280, Note_on_c, 4, 59, 80
6, 47519, Note_on_c, 4, 59, 0
6, 47520, Note_on_c, 4, 57, 80
6, 47759, Note_on_c, 4, 57, 0
6, 47760, Note_on_c, 4, 59, 80
6, 47999, Note_on_c, 4, 59, 0
6, 48000, Note_on_c, 4, 60, 80
6, 48239, Note_on_c, 4, 60, 0
6, 48240, Note_on_c, 4, 62, 80
6, 48479, Note_on_c, 4, 62, 0
6, 48480, Note_on_c, 4, 60, 80
6, 48719, Note_on_c, 4, 60, 0
6, 48720, Note_on_c, 4, 59, 80
6, 48959, Note_on_c, 4, 59, 0
6, 48960, Note_on_c, 4, 57, 80
6, 49199, Note_on_c, 4, 57, 0
6, 49200, Note_on_c, 4, 59, 80
6, 49439, Note_on_c, 4, 59, 0
6, 49440, Note_on_c, 4, 60, 80
6, 49679, Note_on_c, 4, 60, 0
6, 49680, Note_on_c, 4, 62, 80
6, 49919, Note_on_c, 4, 62, 0
6, 49920, Note_on_c, 4, 60, 80
6, 50159, Note_on_c, 4, 60, 0
6, 50160, Note_on_c, 4, 59, 80
6, 50399, Note_on_c, 4, 59, 0
6, 50400, Note_on_c, 4, 57, 80
6, 50639, Note_on_c, 4, 57, 0
6, 50640, Note_on_c, 4, 59, 80
6, 50879, Note_on_c, 4, 59, 0
6, 50880, Note_on_c, 4, 60, 80
6, 51119, Note_on_c, 4, 60, 0
6, 51120, Note_on_c, 4, 62, 80
6, 51359, Note_on_c, 4, 62, 0
6, 51360, Note_on_c, 4, 60, 80
6, 51599, Note_on_c, 4, 60, 0
6, 51600, Note_on_c, 4, 59, 80
6, 51839, Note_on_c, 4, 59, 0
6, 51840, Note_on_c, 4, 57, 80
6, 52079, Note_on_c, 4, 57, 0
6, 52080, Note_on_c, 4, 59, 80
6, 52319, Note_on_c, 4, 59, 0
6, 52320, Note_on_c, 4, 60, 80
6, 52559, Note_on_c, 4, 60, 0
6, 52560, Note_on_c, 4, 62, 80
6, 52799, Note_on_c, 4, 62, 0
6, 52800, Note_on_c, 4, 60, 80
6, 53039, Note_on_c, 4, 60, 0
6, 53040, Note_on_c, 4, 59, 80
6, 53279, Note_on_c, 4, 59, 0
6, 53280, Note_on_c, 4, 57, 80
6, 53519, Note_on_c, 4, 57, 0
6, 53520, Note_on_c, 4, 59, 80
6, 53759, Note_on_c, 4, 59, 0
6, 53760, Note_on_c, 4, 60, 80
6, 53999, Note_on_c, 4, 60, 0
6, 54000, Note_on_c, 4, 62, 80
6, 54239, Note_on_c, 4, 62, 0
6, 54240, Note_on_c, 4, 60, 80
6, 54479, Note_on_c, 4, 60, 0
6, 54480, Note_on_c, 4, 59, 80
6, 54719, Note_on_c, 4, 59, 0
6, 54720, Note_on_c, 4, 57, 80
6, 54959, Note_on_c, 4, 57, 0
6, 54960, Note_on_c, 4, 59, 80
6, 55199, Note_on_c, 4, 59, 0
6, 55200, Note_on_c, 4, 60, 80
6, 55439, Note_on_c, 4, 60, 0
6, 55440, Note_on_c, 4, 62, 80
6, 55679, Note_on_c, 4, 62, 0
6, 55680, Note_on_c, 4, 60, 80
6, 55919, Note_on_c, 4, 60, 0
6, 55920, Note_on_c, 4, 59, 80
6, 56159, Note_on_c, 4, 59, 0
6, 56160, Note_on_c, 4, 57, 80
6, 56399, Note_on_c, 4, 57, 0
6, 56400, Note_on_c, 4, 59, 80
6, 56639, Note_on_c, 4, 59, 0
6, 56640, Note_on_c, 4, 60, 80
6, 56879, Note_on_c, 4, 60, 0
6, 56880, Note_on_c, 4, 62, 80
6, 57119, Note_on_c, 4, 62, 0
6, 57120, Note_on_c, 4, 60, 80
6, 57359, Note_on_c, 4, 60, 0
6, 57360, Note_on_c, 4, 59, 80
6, 57599, Note_on_c, 4, 59, 0
6, 57600, Note_on_c, 4, 57, 80
6, 57839, Note_on_c, 4, 57, 0
6, 57840, Note_on_c, 4, 59, 80
6, 58079, Note_on_c, 4, 59, 0
6, 58080, Note_on_c, 4, 60, 80
6, 58319, Note_on_c, 4, 60, 0
6, 58320, Note_on_c, 4, 62, 80
6, 58559, Note_on_c, 4, 62, 0
6, 58560, Note_on_c, 4, 60, 80
6, 58799, Note_on_c, 4, 60, 0
6, 58800, Note_on_c, 4, 59, 80
6, 59039, Note_on_c, 4, 59, 0
6, 59040, Note_on_c, 4, 57, 80
6, 59279, Note_on_c, 4, 57, 0
6, 59280, Note_on_c, 4, 59, 80
6, 59519, Note_on_c, 4, 59, 0
6, 59520, Note_on_c, 4, 60, 80
6, 59759, Note_on_c, 4, 60, 0
6, 59760, Note_on_c, 4, 62, 80
6, 59999, Note_on_c, 4, 62, 0
6, 60000, Note_on_c, 4, 60, 80
6, 60239, Note_on_c, 4, 60, 0
6, 60240, Note_on_c, 4, 59, 80
6, 60479, Note_on_c, 4, 59, 0
6, 60480, Note_on_c, 4, 57, 80
6, 60719, Note_on_c, 4, 57, 0
6, 60720, Note_on_c, 4, 59, 80
6, 60959, Note_on_c, 4, 59, 0
6, 60960, Note_on_c, 4, 60, 80
6, 61199, Note_on_c, 4, 60, 0
6, 61200, Note_on_c, 4, 62, 80
6, 61439, Note_on_c, 4, 62, 0
6, 61440, Note_on_c, 4, 60, 80
6, 61679, Note_on_c, 4, 60, 0
6, 61680, Note_on_c, 4, 59, 80
6, 61919, Note_on_c, 4, 59, 0
6, 61920, Note_on_c, 4, 57, 80
6, 62159, Note_on_c, 4, 57, 0
6, 62160, Note_on_c, 4, 59, 80
6, 62399, Note_on_c, 4, 59, 0
6, 62400, Note_on_c, 4, 60, 80
6, 62639, Note_on_c, 4, 60, 0
6, 62640, Note_on_c, 4, 62, 80
6, 62879, Note_on_c, 4, 62, 0
6, 62880, Note_on_c, 4, 60, 80
6, 63119, Note_on_c, 4, 60, 0
6, 63120, Note_on_c, 4, 59, 80
6, 63359, Note_on_c, 4, 59, 0
6, 63360, Note_on_c, 4, 57, 80
6, 63599, Note_on_c, 4, 57, 0
6, 63600, Note_on_c, 4, 59, 80
6, 63839, Note_on_c, 4, 59, 0
6, 63840, Note_on_c, 4, 60, 80
6, 64079, Note_on_c, 4, 60, 0
6, 64080, Note_on_c, 4, 62, 80
6, 64319, Note_on_c, 4, 62, 0
6, 64320, Note_on_c, 4, 60, 80
6, 64559, Note_on_c, 4, 60, 0
6, 64560, Note_on_c, 4, 59, 80
6, 64799, Note_on_c, 4, 59, 0
6, 64800, Note_on_c, 4, 57, 80
6, 65039, Note_on_c, 4, 57, 0
6, 65040, Note_on_c, 4, 59, 80
6, 65279, Note_on_c, 4, 59, 0
6, 65280, Note_on_c, 4, 60, 80
6, 65519, Note_on_c, 4, 60, 0
6, 65520, Note_on_c, 4, 62, 80
6, 65759, Note_on_c, 4, 62, 0
6, 65760, Note_on_c, 4, 60, 80
6, 65999, Note_on_c, 4, 60, 0
6, 66000, Note_on_c, 4, 59, 80
6, 66239, Note_on_c, 4, 59, 0
6, 66240, Note_on_c, 4, 57, 80
6, 66479, Note_on_c, 4, 57, 0
6, 66480, Note_on_c, 4, 59, 80
6, 66719, Note_on_c, 4, 59, 0
6, 66720, Note_on_c, 4, 60, 80
6, 66959, Note_on_c, 4, 60, 0
6, 66960, Note_on_c, 4, 62, 80
6, 67199, Note_on_c, 4, 62, 0
6, 67200, Note_on_c, 4, 60, 80
6, 67439, Note_on_c, 4, 60, 0
6, 67440, Note_on_c, 4, 59, 80
6, 67679, Note_on_c, 4, 59, 0
6, 67680, Note_on_c, 4, 57, 80
6, 67919, Note_on_c, 4, 57, 0
6, 67920, Note_on_c, 4, 59, 80
6, 68159, Note_on_c, 4, 59, 0
6, 68160, Note_on_c, 4, 60, 80
6, 68399, Note_on_c, 4, 60, 0
6, 68400, Note_on_c, 4, 62, 80
6, 68639, Note_on_c, 4, 62, 0
6, 68640, Note_on_c, 4, 60, 80
6, 68879, Note_on_c, 4, 60, 0
6, 68880, Note_on_c, 4, 59, 80
6, 69119, Note_on_c, 4, 59, 0
6, 69120, End_track
0, 0, End_of_file
