0, 0, Header, 1, 5, 480
1, 0, Start_track
1, 0, Title_t, "Violoncello, Violoncello\000"
1, 0, Time_signature, 4, 2, 24, 8
1, 0, Key_signature, 0, "major"
1, 0, Tempo, 1090909
1, 0, Control_c, 3, 121, 0
1, 0, Program_c, 3, 42
1, 0, Control_c, 3, 7, 100
1, 0, Control_c, 3, 10, 64
1, 0, Control_c, 3, 91, 0
1, 0, Control_c, 3, 93, 0
1, 0, MIDI_port, 0
1, 0, Note_on_c, 3, 57, 80
1, 0, Control_c, 3, 2, 80
1, 0, Control_c, 1, 121, 0
1, 0, Program_c, 1, 45
1, 0, Control_c, 1, 7, 100
1, 0, Control_c, 1, 10, 64
1, 0, Control_c, 1, 91, 0
1, 0, Control_c, 1, 93, 0
1, 0, MIDI_port, 0
1, 0, Control_c, 2, 121, 0
1, 0, Program_c, 2, 44
1, 0, Control_c, 2, 7, 100
1, 0, Control_c, 2, 10, 64
1, 0, Control_c, 2, 91, 0
1, 0, Control_c, 2, 93, 0
1, 0, MIDI_port, 0
1, 959, Note_on_c, 3, 57, 0
1, 960, Note_on_c, 3, 55, 80
1, 1919, Note_on_c, 3, 55, 0
1, 1920, Note_on_c, 3, 53, 80
1, 2159, Note_on_c, 3, 53, 0
1, 3760, Note_on_c, 3, 64, 80
1, 3799, Note_on_c, 3, 64, 0
1, 3800, Note_on_c, 3, 69, 80
1, 3839, Note_on_c, 3, 69, 0
1, 3840, Key_signature, 0, "major"
1, 3840, Note_on_c, 3, 72, 80
1, 4079, Note_on_c, 3, 72, 0
1, 4800, Note_on_c, 3, 55, 80
1, 5039, Note_on_c, 3, 55, 0
1, 5760, Note_on_c, 3, 53, 80
1, 5999, Note_on_c, 3, 53, 0
1, 6720, Note_on_c, 3, 64, 80
1, 6959, Note_on_c, 3, 64, 0
1, 7680, Note_on_c, 3, 72, 80
1, 7710, Note_on_c, 3, 76, 80
1, 7740, Note_on_c, 3, 81, 80
1, 8159, Note_on_c, 3, 72, 0
1, 8159, Note_on_c, 3, 76, 0
1, 8159, Note_on_c, 3, 81, 0
1, 8640, Note_on_c, 3, 69, 80
1, 8670, Note_on_c, 3, 72, 80
1, 8700, Note_on_c, 3, 79, 80
1, 9599, Note_on_c, 3, 69, 0
1, 9599, Note_on_c, 3, 72, 0
1, 9599, Note_on_c, 3, 79, 0
1, 9600, Note_on_c, 3, 69, 80
1, 9630, Note_on_c, 3, 72, 80
1, 9660, Note_on_c, 3, 77, 80
1, 10559, Note_on_c, 3, 69, 0
1, 10559, Note_on_c, 3, 72, 0
1, 10559, Note_on_c, 3, 77, 0
1, 11040, Note_on_c, 3, 76, 80
1, 11279, Note_on_c, 3, 76, 0
1, 11280, Note_on_c, 3, 74, 80
1, 11519, Note_on_c, 3, 74, 0
1, 11520, Note_on_c, 3, 72, 80
1, 11520, Note_on_c, 3, 76, 80
1, 12479, Note_on_c, 3, 72, 0
1, 12479, Note_on_c, 3, 76, 0
1, 12480, Note_on_c, 3, 74, 80
1, 12959, Note_on_c, 3, 74, 0
1, 12960, Note_on_c, 3, 71, 80
1, 12960, Note_on_c, 3, 76, 80
1, 13439, Note_on_c, 3, 71, 0
1, 13439, Note_on_c, 3, 76, 0
1, 13440, Note_on_c, 3, 69, 80
1, 14399, Note_on_c, 3, 69, 0
1, 14880, Note_on_c, 3, 71, 80
1, 14999, Note_on_c, 3, 71, 0
1, 15000, Note_on_c, 3, 72, 80
1, 15119, Note_on_c, 3, 72, 0
1, 15120, Note_on_c, 3, 74, 80
1, 15239, Note_on_c, 3, 74, 0
1, 15240, Note_on_c, 3, 76, 80
1, 15359, Note_on_c, 3, 76, 0
1, 15360, Note_on_c, 3, 81, 80
1, 15599, Note_on_c, 3, 81, 0
1, 16320, Note_on_c, 3, 69, 80
1, 16350, Note_on_c, 3, 72, 80
1, 16380, Note_on_c, 3, 79, 80
1, 17279, Note_on_c, 3, 69, 0
1, 17279, Note_on_c, 3, 72, 0
1, 17279, Note_on_c, 3, 79, 0
1, 17280, Note_on_c, 3, 69, 80
1, 17310, Note_on_c, 3, 72, 80
1, 17340, Note_on_c, 3, 77, 80
1, 18239, Note_on_c, 3, 69, 0
1, 18239, Note_on_c, 3, 72, 0
1, 18239, Note_on_c, 3, 77, 0
1, 18720, Note_on_c, 3, 76, 80
1, 18959, Note_on_c, 3, 76, 0
1, 18960, Note_on_c, 3, 74, 80
1, 19199, Note_on_c, 3, 74, 0
1, 19200, Note_on_c, 3, 72, 80
1, 19200, Note_on_c, 3, 76, 80
1, 20159, Note_on_c, 3, 72, 0
1, 20159, Note_on_c, 3, 76, 0
1, 20160, Note_on_c, 3, 74, 80
1, 20639, Note_on_c, 3, 74, 0
1, 20640, Note_on_c, 3, 71, 80
1, 20640, Note_on_c, 3, 76, 80
1, 20879, Note_on_c, 3, 71, 0
1, 20879, Note_on_c, 3, 76, 0
1, 21120, Note_on_c, 3, 76, 80
1, 21120, Note_on_c, 3, 81, 80
1, 22079, Note_on_c, 3, 76, 0
1, 22079, Note_on_c, 3, 81, 0
1, 22560, Note_on_c, 3, 71, 80
1, 22590, Note_on_c, 3, 83, 80
1, 23039, Note_on_c, 3, 71, 0
1, 23039, Note_on_c, 3, 83, 0
1, 23040, Note_on_c, 3, 69, 80
1, 23040, Note_on_c, 3, 71, 80
1, 23159, Note_on_c, 3, 69, 0
1, 23159, Note_on_c, 3, 71, 0
1, 23160, Note_on_c, 3, 72, 80
1, 23279, Note_on_c, 3, 72, 0
1, 23280, Note_on_c, 3, 71, 80
1, 23399, Note_on_c, 3, 71, 0
1, 23400, Note_on_c, 3, 72, 80
1, 23459, Note_on_c, 3, 72, 0
1, 23460, Note_on_c, 3, 69, 80
1, 23519, Note_on_c, 3, 69, 0
1, 23520, Note_on_c, 3, 76, 80
1, 23639, Note_on_c, 3, 76, 0
1, 23640, Note_on_c, 3, 72, 80
1, 23759, Note_on_c, 3, 72, 0
1, 23760, Note_on_c, 3, 71, 80
1, 23879, Note_on_c, 3, 71, 0
1, 23880, Note_on_c, 3, 72, 80
1, 23999, Note_on_c, 3, 72, 0
1, 24000, Note_on_c, 3, 77, 80
1, 24119, Note_on_c, 3, 77, 0
1, 24120, Note_on_c, 3, 72, 80
1, 24239, Note_on_c, 3, 72, 0
1, 24240, Note_on_c, 3, 71, 80
1, 24359, Note_on_c, 3, 71, 0
1, 24360, Note_on_c, 3, 72, 80
1, 24419, Note_on_c, 3, 72, 0
1, 24420, Note_on_c, 3, 67, 80
1, 24479, Note_on_c, 3, 67, 0
1, 24480, Note_on_c, 3, 79, 80
1, 24599, Note_on_c, 3, 79, 0
1, 24600, Note_on_c, 3, 72, 80
1, 24719, Note_on_c, 3, 72, 0
1, 24720, Note_on_c, 3, 71, 80
1, 24839, Note_on_c, 3, 71, 0
1, 24840, Note_on_c, 3, 72, 80
1, 24899, Note_on_c, 3, 72, 0
1, 24900, Note_on_c, 3, 65, 80
1, 24959, Note_on_c, 3, 65, 0
1, 24960, Note_on_c, 3, 76, 80
1, 25079, Note_on_c, 3, 76, 0
1, 25080, Note_on_c, 3, 72, 80
1, 25199, Note_on_c, 3, 72, 0
1, 25200, Note_on_c, 3, 71, 80
1, 25319, Note_on_c, 3, 71, 0
1, 25320, Note_on_c, 3, 72, 80
1, 25439, Note_on_c, 3, 72, 0
1, 25440, Note_on_c, 3, 76, 80
1, 25559, Note_on_c, 3, 76, 0
1, 25560, Note_on_c, 3, 72, 80
1, 25679, Note_on_c, 3, 72, 0
1, 25680, Note_on_c, 3, 71, 80
1, 25799, Note_on_c, 3, 71, 0
1, 25800, Note_on_c, 3, 72, 80
1, 25919, Note_on_c, 3, 72, 0
1, 25920, Note_on_c, 3, 71, 80
1, 25920, Note_on_c, 3, 74, 80
1, 26039, Note_on_c, 3, 71, 0
1, 26039, Note_on_c, 3, 74, 0
1, 26040, Note_on_c, 3, 72, 80
1, 26159, Note_on_c, 3, 72, 0
1, 26160, Note_on_c, 3, 71, 80
1, 26279, Note_on_c, 3, 71, 0
1, 26280, Note_on_c, 3, 72, 80
1, 26399, Note_on_c, 3, 72, 0
1, 26400, Note_on_c, 3, 74, 80
1, 26519, Note_on_c, 3, 74, 0
1, 26520, Note_on_c, 3, 72, 80
1, 26639, Note_on_c, 3, 72, 0
1, 26640, Note_on_c, 3, 71, 80
1, 26759, Note_on_c, 3, 71, 0
1, 26760, Note_on_c, 3, 72, 80
1, 26879, Note_on_c, 3, 72, 0
1, 26880, Note_on_c, 3, 64, 80
1, 26880, Note_on_c, 3, 69, 80
1, 26880, Note_on_c, 3, 71, 80
1, 26999, Note_on_c, 3, 64, 0
1, 26999, Note_on_c, 3, 69, 0
1, 26999, Note_on_c, 3, 71, 0
1, 27000, Note_on_c, 3, 72, 80
1, 27119, Note_on_c, 3, 72, 0
1, 27120, Note_on_c, 3, 71, 80
1, 27239, Note_on_c, 3, 71, 0
1, 27240, Note_on_c, 3, 72, 80
1, 27359, Note_on_c, 3, 72, 0
1, 27360, Note_on_c, 3, 71, 80
1, 27360, Note_on_c, 3, 76, 80
1, 27479, Note_on_c, 3, 71, 0
1, 27479, Note_on_c, 3, 76, 0
1, 27480, Note_on_c, 3, 72, 80
1, 27599, Note_on_c, 3, 72, 0
1, 27600, Note_on_c, 3, 71, 80
1, 27719, Note_on_c, 3, 71, 0
1, 27720, Note_on_c, 3, 72, 80
1, 27839, Note_on_c, 3, 72, 0
1, 27840, Note_on_c, 3, 71, 80
1, 27840, Note_on_c, 3, 77, 80
1, 27959, Note_on_c, 3, 71, 0
1, 27959, Note_on_c, 3, 77, 0
1, 27960, Note_on_c, 3, 72, 80
1, 28079, Note_on_c, 3, 72, 0
1, 28080, Note_on_c, 3, 71, 80
1, 28199, Note_on_c, 3, 71, 0
1, 28200, Note_on_c, 3, 72, 80
1, 28319, Note_on_c, 3, 72, 0
1, 28320, Note_on_c, 3, 71, 80
1, 28320, Note_on_c, 3, 79, 80
1, 28439, Note_on_c, 3, 71, 0
1, 28439, Note_on_c, 3, 79, 0
1, 28440, Note_on_c, 3, 72, 80
1, 28559, Note_on_c, 3, 72, 0
1, 28560, Note_on_c, 3, 71, 80
1, 28679, Note_on_c, 3, 71, 0
1, 28680, Note_on_c, 3, 72, 80
1, 28799, Note_on_c, 3, 72, 0
1, 28800, Note_on_c, 3, 72, 80
1, 28919, Note_on_c, 3, 72, 0
1, 28920, Note_on_c, 3, 69, 80
1, 29039, Note_on_c, 3, 69, 0
1, 29040, Note_on_c, 3, 72, 80
1, 29159, Note_on_c, 3, 72, 0
1, 29160, Note_on_c, 3, 69, 80
1, 29279, Note_on_c, 3, 69, 0
1, 29280, Note_on_c, 3, 72, 80
1, 29399, Note_on_c, 3, 72, 0
1, 29400, Note_on_c, 3, 69, 80
1, 29519, Note_on_c, 3, 69, 0
1, 29520, Note_on_c, 3, 72, 80
1, 29639, Note_on_c, 3, 72, 0
1, 29640, Note_on_c, 3, 69, 80
1, 29759, Note_on_c, 3, 69, 0
1, 29760, Note_on_c, 3, 71, 80
1, 29879, Note_on_c, 3, 71, 0
1, 29880, Note_on_c, 3, 69, 80
1, 29999, Note_on_c, 3, 69, 0
1, 30000, Note_on_c, 3, 71, 80
1, 30119, Note_on_c, 3, 71, 0
1, 30120, Note_on_c, 3, 69, 80
1, 30239, Note_on_c, 3, 69, 0
1, 30240, Note_on_c, 3, 72, 80
1, 30359, Note_on_c, 3, 72, 0
1, 30360, Note_on_c, 3, 69, 80
1, 30479, Note_on_c, 3, 69, 0
1, 30480, Note_on_c, 3, 74, 80
1, 30599, Note_on_c, 3, 74, 0
1, 30600, Note_on_c, 3, 69, 80
1, 30719, Note_on_c, 3, 69, 0
1, 30720, Note_on_c, 3, 69, 80
1, 30720, Note_on_c, 3, 71, 80
1, 30839, Note_on_c, 3, 69, 0
1, 30839, Note_on_c, 3, 71, 0
1, 30840, Note_on_c, 3, 72, 80
1, 30959, Note_on_c, 3, 72, 0
1, 30960, Note_on_c, 3, 71, 80
1, 31079, Note_on_c, 3, 71, 0
1, 31080, Note_on_c, 3, 72, 80
1, 31139, Note_on_c, 3, 72, 0
1, 31140, Note_on_c, 3, 69, 80
1, 31199, Note_on_c, 3, 69, 0
1, 31200, Note_on_c, 3, 76, 80
1, 31319, Note_on_c, 3, 76, 0
1, 31320, Note_on_c, 3, 72, 80
1, 31439, Note_on_c, 3, 72, 0
1, 31440, Note_on_c, 3, 71, 80
1, 31559, Note_on_c, 3, 71, 0
1, 31560, Note_on_c, 3, 72, 80
1, 31679, Note_on_c, 3, 72, 0
1, 31680, Note_on_c, 3, 71, 80
1, 31680, Note_on_c, 3, 77, 80
1, 31799, Note_on_c, 3, 71, 0
1, 31799, Note_on_c, 3, 77, 0
1, 31800, Note_on_c, 3, 72, 80
1, 31919, Note_on_c, 3, 72, 0
1, 31920, Note_on_c, 3, 71, 80
1, 32039, Note_on_c, 3, 71, 0
1, 32040, Note_on_c, 3, 72, 80
1, 32099, Note_on_c, 3, 72, 0
1, 32100, Note_on_c, 3, 67, 80
1, 32159, Note_on_c, 3, 67, 0
1, 32160, Note_on_c, 3, 79, 80
1, 32279, Note_on_c, 3, 79, 0
1, 32280, Note_on_c, 3, 72, 80
1, 32399, Note_on_c, 3, 72, 0
1, 32400, Note_on_c, 3, 71, 80
1, 32519, Note_on_c, 3, 71, 0
1, 32520, Note_on_c, 3, 72, 80
1, 32579, Note_on_c, 3, 72, 0
1, 32580, Note_on_c, 3, 65, 80
1, 32639, Note_on_c, 3, 65, 0
1, 32640, Note_on_c, 3, 76, 80
1, 32759, Note_on_c, 3, 76, 0
1, 32760, Note_on_c, 3, 72, 80
1, 32879, Note_on_c, 3, 72, 0
1, 32880, Note_on_c, 3, 71, 80
1, 32999, Note_on_c, 3, 71, 0
1, 33000, Note_on_c, 3, 72, 80
1, 33119, Note_on_c, 3, 72, 0
1, 33120, Note_on_c, 3, 71, 80
1, 33120, Note_on_c, 3, 76, 80
1, 33239, Note_on_c, 3, 71, 0
1, 33239, Note_on_c, 3, 76, 0
1, 33240, Note_on_c, 3, 72, 80
1, 33359, Note_on_c, 3, 72, 0
1, 33360, Note_on_c, 3, 71, 80
1, 33479, Note_on_c, 3, 71, 0
1, 33480, Note_on_c, 3, 72, 80
1, 33599, Note_on_c, 3, 72, 0
1, 33600, Note_on_c, 3, 71, 80
1, 33600, Note_on_c, 3, 74, 80
1, 33719, Note_on_c, 3, 71, 0
1, 33719, Note_on_c, 3, 74, 0
1, 33720, Note_on_c, 3, 72, 80
1, 33839, Note_on_c, 3, 72, 0
1, 33840, Note_on_c, 3, 71, 80
1, 33959, Note_on_c, 3, 71, 0
1, 33960, Note_on_c, 3, 72, 80
1, 34079, Note_on_c, 3, 72, 0
1, 34080, Note_on_c, 3, 74, 80
1, 34199, Note_on_c, 3, 74, 0
1, 34200, Note_on_c, 3, 72, 80
1, 34319, Note_on_c, 3, 72, 0
1, 34320, Note_on_c, 3, 71, 80
1, 34439, Note_on_c, 3, 71, 0
1, 34440, Note_on_c, 3, 72, 80
1, 34559, Note_on_c, 3, 72, 0
1, 34560, Note_on_c, 3, 64, 80
1, 34560, Note_on_c, 3, 71, 80
1, 34679, Note_on_c, 3, 64, 0
1, 34679, Note_on_c, 3, 71, 0
1, 34680, Note_on_c, 3, 72, 80
1, 34799, Note_on_c, 3, 72, 0
1, 34800, Note_on_c, 3, 71, 80
1, 34919, Note_on_c, 3, 71, 0
1, 34920, Note_on_c, 3, 72, 80
1, 34979, Note_on_c, 3, 72, 0
1, 35040, Note_on_c, 3, 71, 80
1, 35040, Note_on_c, 3, 76, 80
1, 35159, Note_on_c, 3, 71, 0
1, 35159, Note_on_c, 3, 76, 0
1, 35160, Note_on_c, 3, 72, 80
1, 35279, Note_on_c, 3, 72, 0
1, 35280, Note_on_c, 3, 71, 80
1, 35399, Note_on_c, 3, 71, 0
1, 35400, Note_on_c, 3, 72, 80
1, 35519, Note_on_c, 3, 72, 0
1, 35520, Note_on_c, 3, 71, 80
1, 35520, Note_on_c, 3, 77, 80
1, 35639, Note_on_c, 3, 71, 0
1, 35639, Note_on_c, 3, 77, 0
1, 35640, Note_on_c, 3, 72, 80
1, 35759, Note_on_c, 3, 72, 0
1, 35760, Note_on_c, 3, 71, 80
1, 35879, Note_on_c, 3, 71, 0
1, 35880, Note_on_c, 3, 72, 80
1, 35999, Note_on_c, 3, 72, 0
1, 36000, Note_on_c, 3, 71, 80
1, 36000, Note_on_c, 3, 79, 80
1, 36119, Note_on_c, 3, 71, 0
1, 36119, Note_on_c, 3, 79, 0
1, 36120, Note_on_c, 3, 72, 80
1, 36239, Note_on_c, 3, 72, 0
1, 36240, Note_on_c, 3, 71, 80
1, 36359, Note_on_c, 3, 71, 0
1, 36360, Note_on_c, 3, 72, 80
1, 36479, Note_on_c, 3, 72, 0
1, 36480, Note_on_c, 3, 65, 80
1, 36480, Note_on_c, 3, 72, 80
1, 36599, Note_on_c, 3, 65, 0
1, 36599, Note_on_c, 3, 72, 0
1, 36600, Note_on_c, 3, 69, 80
1, 36719, Note_on_c, 3, 69, 0
1, 36720, Note_on_c, 3, 72, 80
1, 36839, Note_on_c, 3, 72, 0
1, 36840, Note_on_c, 3, 69, 80
1, 36959, Note_on_c, 3, 69, 0
1, 36960, Note_on_c, 3, 72, 80
1, 37079, Note_on_c, 3, 72, 0
1, 37080, Note_on_c, 3, 69, 80
1, 37199, Note_on_c, 3, 69, 0
1, 37200, Note_on_c, 3, 72, 80
1, 37319, Note_on_c, 3, 72, 0
1, 37320, Note_on_c, 3, 69, 80
1, 37439, Note_on_c, 3, 69, 0
1, 37440, Note_on_c, 3, 65, 80
1, 37440, Note_on_c, 3, 71, 80
1, 37559, Note_on_c, 3, 65, 0
1, 37559, Note_on_c, 3, 71, 0
1, 37560, Note_on_c, 3, 69, 80
1, 37679, Note_on_c, 3, 69, 0
1, 37680, Note_on_c, 3, 71, 80
1, 37799, Note_on_c, 3, 71, 0
1, 37800, Note_on_c, 3, 69, 80
1, 37919, Note_on_c, 3, 69, 0
1, 37920, Note_on_c, 3, 65, 80
1, 37920, Note_on_c, 3, 72, 80
1, 38039, Note_on_c, 3, 65, 0
1, 38039, Note_on_c, 3, 72, 0
1, 38040, Note_on_c, 3, 69, 80
1, 38159, Note_on_c, 3, 69, 0
1, 38160, Note_on_c, 3, 74, 80
1, 38279, Note_on_c, 3, 74, 0
1, 38280, Note_on_c, 3, 69, 80
1, 38399, Note_on_c, 3, 69, 0
1, 38400, Note_on_c, 3, 81, 80
1, 39359, Note_on_c, 3, 81, 0
1, 39360, Note_on_c, 3, 79, 80
1, 40319, Note_on_c, 3, 79, 0
1, 40320, Note_on_c, 3, 77, 80
1, 41279, Note_on_c, 3, 77, 0
1, 41760, Note_on_c, 3, 76, 80
1, 41999, Note_on_c, 3, 76, 0
1, 42000, Note_on_c, 3, 74, 80
1, 42239, Note_on_c, 3, 74, 0
1, 42240, Note_on_c, 3, 76, 80
1, 43199, Note_on_c, 3, 76, 0
1, 43200, Note_on_c, 3, 74, 80
1, 43679, Note_on_c, 3, 74, 0
1, 43680, Note_on_c, 3, 76, 80
1, 44159, Note_on_c, 3, 76, 0
1, 44160, Tempo, 1132075
1, 44160, Note_on_c, 3, 69, 80
1, 44639, Note_on_c, 3, 69, 0
1, 44640, Tempo, 1176471
1, 44640, Note_on_c, 3, 71, 80
1, 45119, Note_on_c, 3, 71, 0
1, 45120, Tempo, 1224490
1, 45120, Note_on_c, 3, 72, 80
1, 45599, Note_on_c, 3, 72, 0
1, 45600, Tempo, 1276596
1, 45600, Note_on_c, 3, 71, 80
1, 45720, Tempo, 1395349
1, 45840, Tempo, 1538462
1, 45960, Tempo, 2000000
1, 46079, Note_on_c, 3, 71, 0
1, 46080, Note_on_c, 3, 69, 80
1, 46080, Note_on_c, 3, 72, 80
1, 46110, Note_on_c, 3, 76, 80
1, 47999, Note_on_c, 3, 69, 0
1, 47999, Note_on_c, 3, 72, 0
1, 47999, Note_on_c, 3, 76, 0
1, 48000, End_track
2, 0, Start_track
2, 0, Title_t, "Piano, Piano\000"
2, 0, Key_signature, 0, "major"
2, 0, Control_c, 10, 121, 0
2, 0, Program_c, 10, 0
2, 0, Control_c, 10, 7, 100
2, 0, Control_c, 10, 10, 64
2, 0, Control_c, 10, 91, 0
2, 0, Control_c, 10, 93, 0
2, 0, MIDI_port, 0
2, 0, Note_on_c, 10, 69, 80
2, 113, Note_on_c, 10, 69, 0
2, 120, Note_on_c, 10, 64, 80
2, 233, Note_on_c, 10, 64, 0
2, 240, Note_on_c, 10, 60, 80
2, 353, Note_on_c, 10, 60, 0
2, 360, Note_on_c, 10, 64, 80
2, 473, Note_on_c, 10, 64, 0
2, 480, Note_on_c, 10, 69, 80
2, 593, Note_on_c, 10, 69, 0
2, 600, Note_on_c, 10, 64, 80
2, 713, Note_on_c, 10, 64, 0
2, 720, Note_on_c, 10, 60, 80
2, 833, Note_on_c, 10, 60, 0
2, 840, Note_on_c, 10, 64, 80
2, 953, Note_on_c, 10, 64, 0
2, 960, Note_on_c, 10, 67, 80
2, 1073, Note_on_c, 10, 67, 0
2, 1080, Note_on_c, 10, 64, 80
2, 1193, Note_on_c, 10, 64, 0
2, 1200, Note_on_c, 10, 60, 80
2, 1313, Note_on_c, 10, 60, 0
2, 1320, Note_on_c, 10, 64, 80
2, 1433, Note_on_c, 10, 64, 0
2, 1440, Note_on_c, 10, 67, 80
2, 1553, Note_on_c, 10, 67, 0
2, 1560, Note_on_c, 10, 64, 80
2, 1673, Note_on_c, 10, 64, 0
2, 1680, Note_on_c, 10, 60, 80
2, 1793, Note_on_c, 10, 60, 0
2, 1800, Note_on_c, 10, 64, 80
2, 1913, Note_on_c, 10, 64, 0
2, 1920, Note_on_c, 10, 65, 80
2, 2033, Note_on_c, 10, 65, 0
2, 2040, Note_on_c, 10, 64, 80
2, 2153, Note_on_c, 10, 64, 0
2, 2160, Note_on_c, 10, 60, 80
2, 2273, Note_on_c, 10, 60, 0
2, 2280, Note_on_c, 10, 64, 80
2, 2393, Note_on_c, 10, 64, 0
2, 2400, Note_on_c, 10, 65, 80
2, 2513, Note_on_c, 10, 65, 0
2, 2520, Note_on_c, 10, 64, 80
2, 2633, Note_on_c, 10, 64, 0
2, 2640, Note_on_c, 10, 60, 80
2, 2753, Note_on_c, 10, 60, 0
2, 2760, Note_on_c, 10, 64, 80
2, 2873, Note_on_c, 10, 64, 0
2, 2880, Note_on_c, 10, 64, 80
2, 2993, Note_on_c, 10, 64, 0
2, 3000, Note_on_c, 10, 60, 80
2, 3113, Note_on_c, 10, 60, 0
2, 3120, Note_on_c, 10, 57, 80
2, 3233, Note_on_c, 10, 57, 0
2, 3240, Note_on_c, 10, 60, 80
2, 3353, Note_on_c, 10, 60, 0
2, 3360, Note_on_c, 10, 64, 80
2, 3473, Note_on_c, 10, 64, 0
2, 3480, Note_on_c, 10, 60, 80
2, 3593, Note_on_c, 10, 60, 0
2, 3600, Note_on_c, 10, 57, 80
2, 3713, Note_on_c, 10, 57, 0
2, 3720, Note_on_c, 10, 60, 80
2, 3833, Note_on_c, 10, 60, 0
2, 3840, Key_signature, 0, "major"
2, 3840, Note_on_c, 10, 57, 80
2, 3953, Note_on_c, 10, 57, 0
2, 3960, Note_on_c, 10, 64, 80
2, 4073, Note_on_c, 10, 64, 0
2, 4080, Note_on_c, 10, 60, 80
2, 4193, Note_on_c, 10, 60, 0
2, 4200, Note_on_c, 10, 64, 80
2, 4313, Note_on_c, 10, 64, 0
2, 4320, Note_on_c, 10, 69, 80
2, 4433, Note_on_c, 10, 69, 0
2, 4440, Note_on_c, 10, 64, 80
2, 4553, Note_on_c, 10, 64, 0
2, 4560, Note_on_c, 10, 60, 80
2, 4673, Note_on_c, 10, 60, 0
2, 4680, Note_on_c, 10, 64, 80
2, 4793, Note_on_c, 10, 64, 0
2, 4800, Note_on_c, 10, 67, 80
2, 4800, Note_on_c, 10, 72, 80
2, 4913, Note_on_c, 10, 67, 0
2, 4913, Note_on_c, 10, 72, 0
2, 4920, Note_on_c, 10, 64, 80
2, 5033, Note_on_c, 10, 64, 0
2, 5040, Note_on_c, 10, 60, 80
2, 5153, Note_on_c, 10, 60, 0
2, 5160, Note_on_c, 10, 64, 80
2, 5273, Note_on_c, 10, 64, 0
2, 5280, Note_on_c, 10, 67, 80
2, 5393, Note_on_c, 10, 67, 0
2, 5400, Note_on_c, 10, 64, 80
2, 5513, Note_on_c, 10, 64, 0
2, 5520, Note_on_c, 10, 60, 80
2, 5633, Note_on_c, 10, 60, 0
2, 5640, Note_on_c, 10, 64, 80
2, 5753, Note_on_c, 10, 64, 0
2, 5760, Note_on_c, 10, 65, 80
2, 5760, Note_on_c, 10, 72, 80
2, 5873, Note_on_c, 10, 65, 0
2, 5873, Note_on_c, 10, 72, 0
2, 5880, Note_on_c, 10, 64, 80
2, 5993, Note_on_c, 10, 64, 0
2, 6000, Note_on_c, 10, 60, 80
2, 6113, Note_on_c, 10, 60, 0
2, 6120, Note_on_c, 10, 64, 80
2, 6233, Note_on_c, 10, 64, 0
2, 6240, Note_on_c, 10, 65, 80
2, 6353, Note_on_c, 10, 65, 0
2, 6360, Note_on_c, 10, 64, 80
2, 6473, Note_on_c, 10, 64, 0
2, 6480, Note_on_c, 10, 60, 80
2, 6593, Note_on_c, 10, 60, 0
2, 6600, Note_on_c, 10, 64, 80
2, 6713, Note_on_c, 10, 64, 0
2, 6720, Note_on_c, 10, 52, 80
2, 6833, Note_on_c, 10, 52, 0
2, 6840, Note_on_c, 10, 60, 80
2, 6953, Note_on_c, 10, 60, 0
2, 6960, Note_on_c, 10, 57, 80
2, 7073, Note_on_c, 10, 57, 0
2, 7080, Note_on_c, 10, 60, 80
2, 7193, Note_on_c, 10, 60, 0
2, 7200, Note_on_c, 10, 64, 80
2, 7313, Note_on_c, 10, 64, 0
2, 7320, Note_on_c, 10, 60, 80
2, 7433, Note_on_c, 10, 60, 0
2, 7440, Note_on_c, 10, 57, 80
2, 7553, Note_on_c, 10, 57, 0
2, 7560, Note_on_c, 10, 60, 80
2, 7673, Note_on_c, 10, 60, 0
2, 7680, Note_on_c, 10, 69, 80
2, 7793, Note_on_c, 10, 69, 0
2, 7800, Note_on_c, 10, 64, 80
2, 7913, Note_on_c, 10, 64, 0
2, 7920, Note_on_c, 10, 60, 80
2, 8033, Note_on_c, 10, 60, 0
2, 8040, Note_on_c, 10, 64, 80
2, 8153, Note_on_c, 10, 64, 0
2, 8160, Note_on_c, 10, 69, 80
2, 8273, Note_on_c, 10, 69, 0
2, 8280, Note_on_c, 10, 64, 80
2, 8393, Note_on_c, 10, 64, 0
2, 8400, Note_on_c, 10, 60, 80
2, 8513, Note_on_c, 10, 60, 0
2, 8520, Note_on_c, 10, 64, 80
2, 8633, Note_on_c, 10, 64, 0
2, 8640, Note_on_c, 10, 67, 80
2, 8753, Note_on_c, 10, 67, 0
2, 8760, Note_on_c, 10, 64, 80
2, 8873, Note_on_c, 10, 64, 0
2, 8880, Note_on_c, 10, 60, 80
2, 8993, Note_on_c, 10, 60, 0
2, 9000, Note_on_c, 10, 64, 80
2, 9113, Note_on_c, 10, 64, 0
2, 9120, Note_on_c, 10, 67, 80
2, 9233, Note_on_c, 10, 67, 0
2, 9240, Note_on_c, 10, 64, 80
2, 9353, Note_on_c, 10, 64, 0
2, 9360, Note_on_c, 10, 60, 80
2, 9473, Note_on_c, 10, 60, 0
2, 9480, Note_on_c, 10, 64, 80
2, 9593, Note_on_c, 10, 64, 0
2, 9600, Note_on_c, 10, 53, 80
2, 9600, Note_on_c, 10, 65, 80
2, 9713, Note_on_c, 10, 53, 0
2, 9713, Note_on_c, 10, 65, 0
2, 9720, Note_on_c, 10, 64, 80
2, 9833, Note_on_c, 10, 64, 0
2, 9840, Note_on_c, 10, 60, 80
2, 9953, Note_on_c, 10, 60, 0
2, 9960, Note_on_c, 10, 64, 80
2, 10073, Note_on_c, 10, 64, 0
2, 10080, Note_on_c, 10, 65, 80
2, 10193, Note_on_c, 10, 65, 0
2, 10200, Note_on_c, 10, 64, 80
2, 10313, Note_on_c, 10, 64, 0
2, 10320, Note_on_c, 10, 60, 80
2, 10433, Note_on_c, 10, 60, 0
2, 10440, Note_on_c, 10, 64, 80
2, 10553, Note_on_c, 10, 64, 0
2, 10560, Note_on_c, 10, 64, 80
2, 10673, Note_on_c, 10, 64, 0
2, 10680, Note_on_c, 10, 60, 80
2, 10793, Note_on_c, 10, 60, 0
2, 10800, Note_on_c, 10, 57, 80
2, 10913, Note_on_c, 10, 57, 0
2, 10920, Note_on_c, 10, 60, 80
2, 11033, Note_on_c, 10, 60, 0
2, 11040, Note_on_c, 10, 64, 80
2, 11153, Note_on_c, 10, 64, 0
2, 11160, Note_on_c, 10, 60, 80
2, 11273, Note_on_c, 10, 60, 0
2, 11280, Note_on_c, 10, 57, 80
2, 11393, Note_on_c, 10, 57, 0
2, 11400, Note_on_c, 10, 60, 80
2, 11513, Note_on_c, 10, 60, 0
2, 11520, Note_on_c, 10, 69, 80
2, 11633, Note_on_c, 10, 69, 0
2, 11640, Note_on_c, 10, 64, 80
2, 11753, Note_on_c, 10, 64, 0
2, 11760, Note_on_c, 10, 60, 80
2, 11873, Note_on_c, 10, 60, 0
2, 11880, Note_on_c, 10, 64, 80
2, 11993, Note_on_c, 10, 64, 0
2, 12000, Note_on_c, 10, 69, 80
2, 12113, Note_on_c, 10, 69, 0
2, 12120, Note_on_c, 10, 64, 80
2, 12233, Note_on_c, 10, 64, 0
2, 12240, Note_on_c, 10, 60, 80
2, 12353, Note_on_c, 10, 60, 0
2, 12360, Note_on_c, 10, 64, 80
2, 12473, Note_on_c, 10, 64, 0
2, 12480, Note_on_c, 10, 67, 80
2, 12593, Note_on_c, 10, 67, 0
2, 12600, Note_on_c, 10, 64, 80
2, 12713, Note_on_c, 10, 64, 0
2, 12720, Note_on_c, 10, 60, 80
2, 12833, Note_on_c, 10, 60, 0
2, 12840, Note_on_c, 10, 64, 80
2, 12953, Note_on_c, 10, 64, 0
2, 12960, Note_on_c, 10, 67, 80
2, 13073, Note_on_c, 10, 67, 0
2, 13080, Note_on_c, 10, 64, 80
2, 13193, Note_on_c, 10, 64, 0
2, 13200, Note_on_c, 10, 60, 80
2, 13313, Note_on_c, 10, 60, 0
2, 13320, Note_on_c, 10, 64, 80
2, 13433, Note_on_c, 10, 64, 0
2, 13440, Note_on_c, 10, 65, 80
2, 13553, Note_on_c, 10, 65, 0
2, 13560, Note_on_c, 10, 64, 80
2, 13673, Note_on_c, 10, 64, 0
2, 13680, Note_on_c, 10, 60, 80
2, 13793, Note_on_c, 10, 60, 0
2, 13800, Note_on_c, 10, 64, 80
2, 13913, Note_on_c, 10, 64, 0
2, 13920, Note_on_c, 10, 65, 80
2, 14033, Note_on_c, 10, 65, 0
2, 14040, Note_on_c, 10, 64, 80
2, 14153, Note_on_c, 10, 64, 0
2, 14160, Note_on_c, 10, 60, 80
2, 14273, Note_on_c, 10, 60, 0
2, 14280, Note_on_c, 10, 64, 80
2, 14393, Note_on_c, 10, 64, 0
2, 14400, Note_on_c, 10, 64, 80
2, 14513, Note_on_c, 10, 64, 0
2, 14520, Note_on_c, 10, 60, 80
2, 14633, Note_on_c, 10, 60, 0
2, 14640, Note_on_c, 10, 57, 80
2, 14753, Note_on_c, 10, 57, 0
2, 14760, Note_on_c, 10, 60, 80
2, 14873, Note_on_c, 10, 60, 0
2, 14880, Note_on_c, 10, 64, 80
2, 14993, Note_on_c, 10, 64, 0
2, 15000, Note_on_c, 10, 60, 80
2, 15113, Note_on_c, 10, 60, 0
2, 15120, Note_on_c, 10, 57, 80
2, 15233, Note_on_c, 10, 57, 0
2, 15240, Note_on_c, 10, 60, 80
2, 15353, Note_on_c, 10, 60, 0
2, 15360, Note_on_c, 10, 69, 80
2, 15473, Note_on_c, 10, 69, 0
2, 15480, Note_on_c, 10, 64, 80
2, 15593, Note_on_c, 10, 64, 0
2, 15600, Note_on_c, 10, 60, 80
2, 15713, Note_on_c, 10, 60, 0
2, 15720, Note_on_c, 10, 64, 80
2, 15833, Note_on_c, 10, 64, 0
2, 15840, Note_on_c, 10, 69, 80
2, 15953, Note_on_c, 10, 69, 0
2, 15960, Note_on_c, 10, 64, 80
2, 16073, Note_on_c, 10, 64, 0
2, 16080, Note_on_c, 10, 60, 80
2, 16193, Note_on_c, 10, 60, 0
2, 16200, Note_on_c, 10, 64, 80
2, 16313, Note_on_c, 10, 64, 0
2, 16320, Note_on_c, 10, 67, 80
2, 16433, Note_on_c, 10, 67, 0
2, 16440, Note_on_c, 10, 64, 80
2, 16553, Note_on_c, 10, 64, 0
2, 16560, Note_on_c, 10, 60, 80
2, 16673, Note_on_c, 10, 60, 0
2, 16680, Note_on_c, 10, 64, 80
2, 16793, Note_on_c, 10, 64, 0
2, 16800, Note_on_c, 10, 67, 80
2, 16913, Note_on_c, 10, 67, 0
2, 16920, Note_on_c, 10, 64, 80
2, 17033, Note_on_c, 10, 64, 0
2, 17040, Note_on_c, 10, 60, 80
2, 17153, Note_on_c, 10, 60, 0
2, 17160, Note_on_c, 10, 64, 80
2, 17273, Note_on_c, 10, 64, 0
2, 17280, Note_on_c, 10, 65, 80
2, 17393, Note_on_c, 10, 65, 0
2, 17400, Note_on_c, 10, 64, 80
2, 17513, Note_on_c, 10, 64, 0
2, 17520, Note_on_c, 10, 60, 80
2, 17633, Note_on_c, 10, 60, 0
2, 17640, Note_on_c, 10, 64, 80
2, 17753, Note_on_c, 10, 64, 0
2, 17760, Note_on_c, 10, 65, 80
2, 17873, Note_on_c, 10, 65, 0
2, 17880, Note_on_c, 10, 64, 80
2, 17993, Note_on_c, 10, 64, 0
2, 18000, Note_on_c, 10, 60, 80
2, 18113, Note_on_c, 10, 60, 0
2, 18120, Note_on_c, 10, 64, 80
2, 18233, Note_on_c, 10, 64, 0
2, 18240, Note_on_c, 10, 64, 80
2, 18353, Note_on_c, 10, 64, 0
2, 18360, Note_on_c, 10, 60, 80
2, 18473, Note_on_c, 10, 60, 0
2, 18480, Note_on_c, 10, 57, 80
2, 18593, Note_on_c, 10, 57, 0
2, 18600, Note_on_c, 10, 60, 80
2, 18713, Note_on_c, 10, 60, 0
2, 18720, Note_on_c, 10, 64, 80
2, 18833, Note_on_c, 10, 64, 0
2, 18840, Note_on_c, 10, 60, 80
2, 18953, Note_on_c, 10, 60, 0
2, 18960, Note_on_c, 10, 57, 80
2, 19073, Note_on_c, 10, 57, 0
2, 19080, Note_on_c, 10, 60, 80
2, 19193, Note_on_c, 10, 60, 0
2, 19200, Note_on_c, 10, 69, 80
2, 19313, Note_on_c, 10, 69, 0
2, 19320, Note_on_c, 10, 64, 80
2, 19433, Note_on_c, 10, 64, 0
2, 19440, Note_on_c, 10, 60, 80
2, 19553, Note_on_c, 10, 60, 0
2, 19560, Note_on_c, 10, 64, 80
2, 19673, Note_on_c, 10, 64, 0
2, 19680, Note_on_c, 10, 69, 80
2, 19793, Note_on_c, 10, 69, 0
2, 19800, Note_on_c, 10, 64, 80
2, 19913, Note_on_c, 10, 64, 0
2, 19920, Note_on_c, 10, 60, 80
2, 20033, Note_on_c, 10, 60, 0
2, 20040, Note_on_c, 10, 64, 80
2, 20153, Note_on_c, 10, 64, 0
2, 20160, Note_on_c, 10, 67, 80
2, 20273, Note_on_c, 10, 67, 0
2, 20280, Note_on_c, 10, 64, 80
2, 20393, Note_on_c, 10, 64, 0
2, 20400, Note_on_c, 10, 60, 80
2, 20513, Note_on_c, 10, 60, 0
2, 20520, Note_on_c, 10, 64, 80
2, 20633, Note_on_c, 10, 64, 0
2, 20640, Note_on_c, 10, 67, 80
2, 20753, Note_on_c, 10, 67, 0
2, 20760, Note_on_c, 10, 64, 80
2, 20873, Note_on_c, 10, 64, 0
2, 20880, Note_on_c, 10, 60, 80
2, 20993, Note_on_c, 10, 60, 0
2, 21000, Note_on_c, 10, 64, 80
2, 21113, Note_on_c, 10, 64, 0
2, 21120, Note_on_c, 10, 65, 80
2, 21120, Note_on_c, 10, 53, 80
2, 21233, Note_on_c, 10, 65, 0
2, 21240, Note_on_c, 10, 64, 80
2, 21353, Note_on_c, 10, 64, 0
2, 21360, Note_on_c, 10, 60, 80
2, 21473, Note_on_c, 10, 60, 0
2, 21480, Note_on_c, 10, 64, 80
2, 21593, Note_on_c, 10, 64, 0
2, 21600, Note_on_c, 10, 65, 80
2, 21713, Note_on_c, 10, 65, 0
2, 21720, Note_on_c, 10, 64, 80
2, 21833, Note_on_c, 10, 64, 0
2, 21840, Note_on_c, 10, 60, 80
2, 21953, Note_on_c, 10, 60, 0
2, 21960, Note_on_c, 10, 64, 80
2, 22031, Note_on_c, 10, 53, 0
2, 22073, Note_on_c, 10, 64, 0
2, 22080, Note_on_c, 10, 64, 80
2, 22080, Note_on_c, 10, 57, 80
2, 22193, Note_on_c, 10, 64, 0
2, 22200, Note_on_c, 10, 60, 80
2, 22307, Note_on_c, 10, 57, 0
2, 22319, Note_on_c, 10, 60, 0
2, 22320, Note_on_c, 10, 57, 80
2, 22440, Note_on_c, 10, 60, 80
2, 22553, Note_on_c, 10, 60, 0
2, 22560, Note_on_c, 10, 64, 80
2, 22673, Note_on_c, 10, 64, 0
2, 22680, Note_on_c, 10, 60, 80
2, 22775, Note_on_c, 10, 57, 0
2, 22799, Note_on_c, 10, 60, 0
2, 22800, Note_on_c, 10, 57, 80
2, 22920, Note_on_c, 10, 60, 80
2, 23027, Note_on_c, 10, 57, 0
2, 23033, Note_on_c, 10, 60, 0
2, 23040, Note_on_c, 10, 52, 80
2, 23040, Note_on_c, 10, 57, 80
2, 23153, Note_on_c, 10, 52, 0
2, 23153, Note_on_c, 10, 57, 0
2, 23160, Note_on_c, 10, 60, 80
2, 23273, Note_on_c, 10, 60, 0
2, 23280, Note_on_c, 10, 57, 80
2, 23393, Note_on_c, 10, 57, 0
2, 23400, Note_on_c, 10, 60, 80
2, 23513, Note_on_c, 10, 60, 0
2, 23520, Note_on_c, 10, 57, 80
2, 23633, Note_on_c, 10, 57, 0
2, 23640, Note_on_c, 10, 60, 80
2, 23753, Note_on_c, 10, 60, 0
2, 23760, Note_on_c, 10, 57, 80
2, 23873, Note_on_c, 10, 57, 0
2, 23880, Note_on_c, 10, 60, 80
2, 23993, Note_on_c, 10, 60, 0
2, 24000, Note_on_c, 10, 52, 80
2, 24000, Note_on_c, 10, 55, 80
2, 24113, Note_on_c, 10, 52, 0
2, 24113, Note_on_c, 10, 55, 0
2, 24120, Note_on_c, 10, 60, 80
2, 24233, Note_on_c, 10, 60, 0
2, 24240, Note_on_c, 10, 55, 80
2, 24353, Note_on_c, 10, 55, 0
2, 24360, Note_on_c, 10, 60, 80
2, 24473, Note_on_c, 10, 60, 0
2, 24480, Note_on_c, 10, 55, 80
2, 24593, Note_on_c, 10, 55, 0
2, 24600, Note_on_c, 10, 60, 80
2, 24713, Note_on_c, 10, 60, 0
2, 24720, Note_on_c, 10, 55, 80
2, 24833, Note_on_c, 10, 55, 0
2, 24840, Note_on_c, 10, 60, 80
2, 24953, Note_on_c, 10, 60, 0
2, 24960, Note_on_c, 10, 48, 80
2, 24960, Note_on_c, 10, 53, 80
2, 25073, Note_on_c, 10, 48, 0
2, 25073, Note_on_c, 10, 53, 0
2, 25080, Note_on_c, 10, 60, 80
2, 25193, Note_on_c, 10, 60, 0
2, 25200, Note_on_c, 10, 57, 80
2, 25313, Note_on_c, 10, 57, 0
2, 25320, Note_on_c, 10, 60, 80
2, 25433, Note_on_c, 10, 60, 0
2, 25440, Note_on_c, 10, 57, 80
2, 25553, Note_on_c, 10, 57, 0
2, 25560, Note_on_c, 10, 60, 80
2, 25673, Note_on_c, 10, 60, 0
2, 25680, Note_on_c, 10, 57, 80
2, 25793, Note_on_c, 10, 57, 0
2, 25800, Note_on_c, 10, 60, 80
2, 25913, Note_on_c, 10, 60, 0
2, 25920, Note_on_c, 10, 53, 80
2, 25920, Note_on_c, 10, 57, 80
2, 26033, Note_on_c, 10, 53, 0
2, 26033, Note_on_c, 10, 57, 0
2, 26040, Note_on_c, 10, 60, 80
2, 26153, Note_on_c, 10, 60, 0
2, 26160, Note_on_c, 10, 57, 80
2, 26273, Note_on_c, 10, 57, 0
2, 26280, Note_on_c, 10, 60, 80
2, 26393, Note_on_c, 10, 60, 0
2, 26400, Note_on_c, 10, 57, 80
2, 26513, Note_on_c, 10, 57, 0
2, 26520, Note_on_c, 10, 60, 80
2, 26633, Note_on_c, 10, 60, 0
2, 26640, Note_on_c, 10, 57, 80
2, 26753, Note_on_c, 10, 57, 0
2, 26760, Note_on_c, 10, 60, 80
2, 26873, Note_on_c, 10, 60, 0
2, 26880, Note_on_c, 10, 52, 80
2, 26880, Note_on_c, 10, 57, 80
2, 26993, Note_on_c, 10, 52, 0
2, 26993, Note_on_c, 10, 57, 0
2, 27000, Note_on_c, 10, 60, 80
2, 27113, Note_on_c, 10, 60, 0
2, 27120, Note_on_c, 10, 57, 80
2, 27233, Note_on_c, 10, 57, 0
2, 27240, Note_on_c, 10, 60, 80
2, 27353, Note_on_c, 10, 60, 0
2, 27360, Note_on_c, 10, 57, 80
2, 27473, Note_on_c, 10, 57, 0
2, 27480, Note_on_c, 10, 60, 80
2, 27593, Note_on_c, 10, 60, 0
2, 27600, Note_on_c, 10, 57, 80
2, 27713, Note_on_c, 10, 57, 0
2, 27720, Note_on_c, 10, 60, 80
2, 27833, Note_on_c, 10, 60, 0
2, 27840, Note_on_c, 10, 52, 80
2, 27840, Note_on_c, 10, 55, 80
2, 27953, Note_on_c, 10, 52, 0
2, 27953, Note_on_c, 10, 55, 0
2, 27960, Note_on_c, 10, 60, 80
2, 28073, Note_on_c, 10, 60, 0
2, 28080, Note_on_c, 10, 55, 80
2, 28193, Note_on_c, 10, 55, 0
2, 28200, Note_on_c, 10, 60, 80
2, 28313, Note_on_c, 10, 60, 0
2, 28320, Note_on_c, 10, 55, 80
2, 28433, Note_on_c, 10, 55, 0
2, 28440, Note_on_c, 10, 60, 80
2, 28553, Note_on_c, 10, 60, 0
2, 28560, Note_on_c, 10, 55, 80
2, 28673, Note_on_c, 10, 55, 0
2, 28680, Note_on_c, 10, 60, 80
2, 28793, Note_on_c, 10, 60, 0
2, 28800, Note_on_c, 10, 48, 80
2, 28800, Note_on_c, 10, 53, 80
2, 28913, Note_on_c, 10, 48, 0
2, 28913, Note_on_c, 10, 53, 0
2, 28920, Note_on_c, 10, 60, 80
2, 29033, Note_on_c, 10, 60, 0
2, 29040, Note_on_c, 10, 57, 80
2, 29153, Note_on_c, 10, 57, 0
2, 29160, Note_on_c, 10, 60, 80
2, 29273, Note_on_c, 10, 60, 0
2, 29280, Note_on_c, 10, 57, 80
2, 29393, Note_on_c, 10, 57, 0
2, 29400, Note_on_c, 10, 60, 80
2, 29513, Note_on_c, 10, 60, 0
2, 29520, Note_on_c, 10, 57, 80
2, 29633, Note_on_c, 10, 57, 0
2, 29640, Note_on_c, 10, 60, 80
2, 29753, Note_on_c, 10, 60, 0
2, 29760, Note_on_c, 10, 53, 80
2, 29760, Note_on_c, 10, 57, 80
2, 29873, Note_on_c, 10, 53, 0
2, 29873, Note_on_c, 10, 57, 0
2, 29880, Note_on_c, 10, 60, 80
2, 29993, Note_on_c, 10, 60, 0
2, 30000, Note_on_c, 10, 57, 80
2, 30113, Note_on_c, 10, 57, 0
2, 30120, Note_on_c, 10, 60, 80
2, 30233, Note_on_c, 10, 60, 0
2, 30240, Note_on_c, 10, 57, 80
2, 30353, Note_on_c, 10, 57, 0
2, 30360, Note_on_c, 10, 60, 80
2, 30473, Note_on_c, 10, 60, 0
2, 30480, Note_on_c, 10, 57, 80
2, 30593, Note_on_c, 10, 57, 0
2, 30600, Note_on_c, 10, 60, 80
2, 30713, Note_on_c, 10, 60, 0
2, 30720, Note_on_c, 10, 57, 80
2, 30833, Note_on_c, 10, 57, 0
2, 30840, Note_on_c, 10, 60, 80
2, 30953, Note_on_c, 10, 60, 0
2, 30960, Note_on_c, 10, 64, 80
2, 31073, Note_on_c, 10, 64, 0
2, 31080, Note_on_c, 10, 60, 80
2, 31193, Note_on_c, 10, 60, 0
2, 31200, Note_on_c, 10, 57, 80
2, 31313, Note_on_c, 10, 57, 0
2, 31320, Note_on_c, 10, 60, 80
2, 31433, Note_on_c, 10, 60, 0
2, 31440, Note_on_c, 10, 64, 80
2, 31553, Note_on_c, 10, 64, 0
2, 31560, Note_on_c, 10, 60, 80
2, 31673, Note_on_c, 10, 60, 0
2, 31680, Note_on_c, 10, 55, 80
2, 31793, Note_on_c, 10, 55, 0
2, 31800, Note_on_c, 10, 60, 80
2, 31913, Note_on_c, 10, 60, 0
2, 31920, Note_on_c, 10, 64, 80
2, 32033, Note_on_c, 10, 64, 0
2, 32040, Note_on_c, 10, 60, 80
2, 32153, Note_on_c, 10, 60, 0
2, 32160, Note_on_c, 10, 55, 80
2, 32273, Note_on_c, 10, 55, 0
2, 32280, Note_on_c, 10, 60, 80
2, 32393, Note_on_c, 10, 60, 0
2, 32400, Note_on_c, 10, 64, 80
2, 32513, Note_on_c, 10, 64, 0
2, 32520, Note_on_c, 10, 60, 80
2, 32633, Note_on_c, 10, 60, 0
2, 32640, Note_on_c, 10, 53, 80
2, 32753, Note_on_c, 10, 53, 0
2, 32760, Note_on_c, 10, 60, 80
2, 32873, Note_on_c, 10, 60, 0
2, 32880, Note_on_c, 10, 64, 80
2, 32993, Note_on_c, 10, 64, 0
2, 33000, Note_on_c, 10, 60, 80
2, 33113, Note_on_c, 10, 60, 0
2, 33120, Note_on_c, 10, 53, 80
2, 33233, Note_on_c, 10, 53, 0
2, 33240, Note_on_c, 10, 60, 80
2, 33353, Note_on_c, 10, 60, 0
2, 33360, Note_on_c, 10, 64, 80
2, 33473, Note_on_c, 10, 64, 0
2, 33480, Note_on_c, 10, 60, 80
2, 33593, Note_on_c, 10, 60, 0
2, 33600, Note_on_c, 10, 53, 80
2, 33713, Note_on_c, 10, 53, 0
2, 33720, Note_on_c, 10, 60, 80
2, 33833, Note_on_c, 10, 60, 0
2, 33840, Note_on_c, 10, 64, 80
2, 33953, Note_on_c, 10, 64, 0
2, 33960, Note_on_c, 10, 60, 80
2, 34073, Note_on_c, 10, 60, 0
2, 34080, Note_on_c, 10, 53, 80
2, 34193, Note_on_c, 10, 53, 0
2, 34200, Note_on_c, 10, 60, 80
2, 34313, Note_on_c, 10, 60, 0
2, 34320, Note_on_c, 10, 64, 80
2, 34433, Note_on_c, 10, 64, 0
2, 34440, Note_on_c, 10, 60, 80
2, 34553, Note_on_c, 10, 60, 0
2, 34560, Note_on_c, 10, 57, 80
2, 34673, Note_on_c, 10, 57, 0
2, 34680, Note_on_c, 10, 60, 80
2, 34793, Note_on_c, 10, 60, 0
2, 34800, Note_on_c, 10, 64, 80
2, 34913, Note_on_c, 10, 64, 0
2, 34920, Note_on_c, 10, 60, 80
2, 35033, Note_on_c, 10, 60, 0
2, 35040, Note_on_c, 10, 57, 80
2, 35153, Note_on_c, 10, 57, 0
2, 35160, Note_on_c, 10, 60, 80
2, 35273, Note_on_c, 10, 60, 0
2, 35280, Note_on_c, 10, 64, 80
2, 35393, Note_on_c, 10, 64, 0
2, 35400, Note_on_c, 10, 60, 80
2, 35513, Note_on_c, 10, 60, 0
2, 35520, Note_on_c, 10, 55, 80
2, 35633, Note_on_c, 10, 55, 0
2, 35640, Note_on_c, 10, 60, 80
2, 35753, Note_on_c, 10, 60, 0
2, 35760, Note_on_c, 10, 64, 80
2, 35873, Note_on_c, 10, 64, 0
2, 35880, Note_on_c, 10, 60, 80
2, 35993, Note_on_c, 10, 60, 0
2, 36000, Note_on_c, 10, 55, 80
2, 36113, Note_on_c, 10, 55, 0
2, 36120, Note_on_c, 10, 60, 80
2, 36233, Note_on_c, 10, 60, 0
2, 36240, Note_on_c, 10, 64, 80
2, 36353, Note_on_c, 10, 64, 0
2, 36360, Note_on_c, 10, 60, 80
2, 36473, Note_on_c, 10, 60, 0
2, 36480, Note_on_c, 10, 53, 80
2, 36593, Note_on_c, 10, 53, 0
2, 36600, Note_on_c, 10, 60, 80
2, 36713, Note_on_c, 10, 60, 0
2, 36720, Note_on_c, 10, 57, 80
2, 36833, Note_on_c, 10, 57, 0
2, 36840, Note_on_c, 10, 60, 80
2, 36953, Note_on_c, 10, 60, 0
2, 36960, Note_on_c, 10, 57, 80
2, 37073, Note_on_c, 10, 57, 0
2, 37080, Note_on_c, 10, 60, 80
2, 37193, Note_on_c, 10, 60, 0
2, 37200, Note_on_c, 10, 57, 80
2, 37313, Note_on_c, 10, 57, 0
2, 37320, Note_on_c, 10, 60, 80
2, 37433, Note_on_c, 10, 60, 0
2, 37440, Note_on_c, 10, 57, 80
2, 37667, Note_on_c, 10, 57, 0
2, 37680, Note_on_c, 10, 57, 80
2, 37793, Note_on_c, 10, 57, 0
2, 37800, Note_on_c, 10, 60, 80
2, 37913, Note_on_c, 10, 60, 0
2, 37920, Note_on_c, 10, 55, 80
2, 38375, Note_on_c, 10, 55, 0
2, 38400, Note_on_c, 10, 69, 80
2, 38513, Note_on_c, 10, 69, 0
2, 38520, Note_on_c, 10, 64, 80
2, 38633, Note_on_c, 10, 64, 0
2, 38640, Note_on_c, 10, 60, 80
2, 38753, Note_on_c, 10, 60, 0
2, 38760, Note_on_c, 10, 64, 80
2, 38873, Note_on_c, 10, 64, 0
2, 38880, Note_on_c, 10, 69, 80
2, 38993, Note_on_c, 10, 69, 0
2, 39000, Note_on_c, 10, 64, 80
2, 39113, Note_on_c, 10, 64, 0
2, 39120, Note_on_c, 10, 60, 80
2, 39233, Note_on_c, 10, 60, 0
2, 39240, Note_on_c, 10, 64, 80
2, 39353, Note_on_c, 10, 64, 0
2, 39360, Note_on_c, 10, 67, 80
2, 39473, Note_on_c, 10, 67, 0
2, 39480, Note_on_c, 10, 64, 80
2, 39593, Note_on_c, 10, 64, 0
2, 39600, Note_on_c, 10, 60, 80
2, 39713, Note_on_c, 10, 60, 0
2, 39720, Note_on_c, 10, 64, 80
2, 39833, Note_on_c, 10, 64, 0
2, 39840, Note_on_c, 10, 67, 80
2, 39953, Note_on_c, 10, 67, 0
2, 39960, Note_on_c, 10, 64, 80
2, 40073, Note_on_c, 10, 64, 0
2, 40080, Note_on_c, 10, 60, 80
2, 40193, Note_on_c, 10, 60, 0
2, 40200, Note_on_c, 10, 64, 80
2, 40313, Note_on_c, 10, 64, 0
2, 40320, Note_on_c, 10, 65, 80
2, 40433, Note_on_c, 10, 65, 0
2, 40440, Note_on_c, 10, 64, 80
2, 40553, Note_on_c, 10, 64, 0
2, 40560, Note_on_c, 10, 60, 80
2, 40673, Note_on_c, 10, 60, 0
2, 40680, Note_on_c, 10, 64, 80
2, 40793, Note_on_c, 10, 64, 0
2, 40800, Note_on_c, 10, 65, 80
2, 40913, Note_on_c, 10, 65, 0
2, 40920, Note_on_c, 10, 64, 80
2, 41033, Note_on_c, 10, 64, 0
2, 41040, Note_on_c, 10, 60, 80
2, 41153, Note_on_c, 10, 60, 0
2, 41160, Note_on_c, 10, 64, 80
2, 41273, Note_on_c, 10, 64, 0
2, 41280, Note_on_c, 10, 64, 80
2, 41393, Note_on_c, 10, 64, 0
2, 41400, Note_on_c, 10, 60, 80
2, 41513, Note_on_c, 10, 60, 0
2, 41520, Note_on_c, 10, 57, 80
2, 41633, Note_on_c, 10, 57, 0
2, 41640, Note_on_c, 10, 60, 80
2, 41753, Note_on_c, 10, 60, 0
2, 41760, Note_on_c, 10, 64, 80
2, 41873, Note_on_c, 10, 64, 0
2, 41880, Note_on_c, 10, 60, 80
2, 41993, Note_on_c, 10, 60, 0
2, 42000, Note_on_c, 10, 57, 80
2, 42113, Note_on_c, 10, 57, 0
2, 42120, Note_on_c, 10, 60, 80
2, 42233, Note_on_c, 10, 60, 0
2, 42240, Note_on_c, 10, 69, 80
2, 42353, Note_on_c, 10, 69, 0
2, 42360, Note_on_c, 10, 64, 80
2, 42473, Note_on_c, 10, 64, 0
2, 42480, Note_on_c, 10, 60, 80
2, 42593, Note_on_c, 10, 60, 0
2, 42600, Note_on_c, 10, 64, 80
2, 42713, Note_on_c, 10, 64, 0
2, 42720, Note_on_c, 10, 69, 80
2, 42833, Note_on_c, 10, 69, 0
2, 42840, Note_on_c, 10, 64, 80
2, 42953, Note_on_c, 10, 64, 0
2, 42960, Note_on_c, 10, 60, 80
2, 43073, Note_on_c, 10, 60, 0
2, 43080, Note_on_c, 10, 64, 80
2, 43193, Note_on_c, 10, 64, 0
2, 43200, Note_on_c, 10, 67, 80
2, 43313, Note_on_c, 10, 67, 0
2, 43320, Note_on_c, 10, 64, 80
2, 43433, Note_on_c, 10, 64, 0
2, 43440, Note_on_c, 10, 60, 80
2, 43553, Note_on_c, 10, 60, 0
2, 43560, Note_on_c, 10, 64, 80
2, 43673, Note_on_c, 10, 64, 0
2, 43680, Note_on_c, 10, 67, 80
2, 43793, Note_on_c, 10, 67, 0
2, 43800, Note_on_c, 10, 64, 80
2, 43913, Note_on_c, 10, 64, 0
2, 43920, Note_on_c, 10, 60, 80
2, 44033, Note_on_c, 10, 60, 0
2, 44040, Note_on_c, 10, 64, 80
2, 44153, Note_on_c, 10, 64, 0
2, 44160, Note_on_c, 10, 65, 80
2, 44273, Note_on_c, 10, 65, 0
2, 44280, Note_on_c, 10, 64, 80
2, 44393, Note_on_c, 10, 64, 0
2, 44400, Note_on_c, 10, 60, 80
2, 44513, Note_on_c, 10, 60, 0
2, 44520, Note_on_c, 10, 64, 80
2, 44633, Note_on_c, 10, 64, 0
2, 44640, Note_on_c, 10, 65, 80
2, 44753, Note_on_c, 10, 65, 0
2, 44760, Note_on_c, 10, 64, 80
2, 44873, Note_on_c, 10, 64, 0
2, 44880, Note_on_c, 10, 60, 80
2, 44993, Note_on_c, 10, 60, 0
2, 45000, Note_on_c, 10, 64, 80
2, 45113, Note_on_c, 10, 64, 0
2, 45120, Note_on_c, 10, 64, 80
2, 45233, Note_on_c, 10, 64, 0
2, 45240, Note_on_c, 10, 60, 80
2, 45353, Note_on_c, 10, 60, 0
2, 45360, Note_on_c, 10, 57, 80
2, 45473, Note_on_c, 10, 57, 0
2, 45480, Note_on_c, 10, 60, 80
2, 45593, Note_on_c, 10, 60, 0
2, 45600, Note_on_c, 10, 64, 80
2, 45713, Note_on_c, 10, 64, 0
2, 45720, Note_on_c, 10, 60, 80
2, 45833, Note_on_c, 10, 60, 0
2, 45840, Note_on_c, 10, 57, 80
2, 45953, Note_on_c, 10, 57, 0
2, 45960, Note_on_c, 10, 60, 80
2, 46073, Note_on_c, 10, 60, 0
2, 46080, Note_on_c, 10, 57, 80
2, 46080, Note_on_c, 10, 60, 80
2, 46080, Note_on_c, 10, 64, 80
2, 47447, Note_on_c, 10, 57, 0
2, 47447, Note_on_c, 10, 60, 0
2, 47447, Note_on_c, 10, 64, 0
2, 47448, End_track
3, 0, Start_track
3, 0, Title_t, "Electric Bass, Bass\000"
3, 0, Key_signature, 0, "major"
3, 0, Control_c, 6, 121, 0
3, 0, Program_c, 6, 33
3, 0, Control_c, 6, 7, 100
3, 0, Control_c, 6, 10, 64
3, 0, Control_c, 6, 91, 0
3, 0, Control_c, 6, 93, 0
3, 0, MIDI_port, 0
3, 0, Control_c, 4, 121, 0
3, 0, Program_c, 4, 36
3, 0, Control_c, 4, 7, 100
3, 0, Control_c, 4, 10, 64
3, 0, Control_c, 4, 91, 0
3, 0, Control_c, 4, 93, 0
3, 0, MIDI_port, 0
3, 0, Control_c, 5, 121, 0
3, 0, Program_c, 5, 37
3, 0, Control_c, 5, 7, 100
3, 0, Control_c, 5, 10, 64
3, 0, Control_c, 5, 91, 0
3, 0, Control_c, 5, 93, 0
3, 0, MIDI_port, 0
3, 3840, Key_signature, 0, "major"
3, 7680, Note_on_c, 6, 57, 80
3, 8639, Note_on_c, 6, 57, 0
3, 8640, Note_on_c, 6, 55, 80
3, 9599, Note_on_c, 6, 55, 0
3, 9600, Note_on_c, 6, 53, 80
3, 11519, Note_on_c, 6, 53, 0
3, 11520, Note_on_c, 6, 57, 80
3, 12239, Note_on_c, 6, 57, 0
3, 12240, Note_on_c, 6, 57, 80
3, 12479, Note_on_c, 6, 57, 0
3, 12480, Note_on_c, 6, 55, 80
3, 12959, Note_on_c, 6, 55, 0
3, 12960, Note_on_c, 6, 52, 80
3, 13439, Note_on_c, 6, 52, 0
3, 13440, Note_on_c, 6, 53, 80
3, 15359, Note_on_c, 6, 53, 0
3, 15360, Note_on_c, 6, 57, 80
3, 16079, Note_on_c, 6, 57, 0
3, 16080, Note_on_c, 6, 57, 80
3, 16319, Note_on_c, 6, 57, 0
3, 16320, Note_on_c, 6, 55, 80
3, 17039, Note_on_c, 6, 55, 0
3, 17040, Note_on_c, 6, 55, 80
3, 17279, Note_on_c, 6, 55, 0
3, 17280, Note_on_c, 6, 53, 80
3, 19199, Note_on_c, 6, 53, 0
3, 19200, Note_on_c, 6, 57, 80
3, 19919, Note_on_c, 6, 57, 0
3, 19920, Note_on_c, 6, 57, 80
3, 20159, Note_on_c, 6, 57, 0
3, 20160, Note_on_c, 6, 55, 80
3, 20639, Note_on_c, 6, 55, 0
3, 20640, Note_on_c, 6, 52, 80
3, 21119, Note_on_c, 6, 52, 0
3, 21120, Note_on_c, 6, 53, 80
3, 23039, Note_on_c, 6, 53, 0
3, 23040, Note_on_c, 6, 57, 80
3, 23159, Note_on_c, 6, 57, 0
3, 23160, Note_on_c, 6, 57, 80
3, 23519, Note_on_c, 6, 57, 0
3, 23520, Note_on_c, 6, 57, 80
3, 23999, Note_on_c, 6, 57, 0
3, 24000, Note_on_c, 6, 55, 80
3, 24119, Note_on_c, 6, 55, 0
3, 24120, Note_on_c, 6, 55, 80
3, 24479, Note_on_c, 6, 55, 0
3, 24480, Note_on_c, 6, 55, 80
3, 24959, Note_on_c, 6, 55, 0
3, 24960, Note_on_c, 6, 53, 80
3, 25079, Note_on_c, 6, 53, 0
3, 25080, Note_on_c, 6, 53, 80
3, 25439, Note_on_c, 6, 53, 0
3, 25440, Note_on_c, 6, 53, 80
3, 25919, Note_on_c, 6, 53, 0
3, 25920, Note_on_c, 6, 53, 80
3, 26399, Note_on_c, 6, 53, 0
3, 26400, Note_on_c, 6, 53, 80
3, 26879, Note_on_c, 6, 53, 0
3, 26880, Note_on_c, 6, 57, 80
3, 26999, Note_on_c, 6, 57, 0
3, 27000, Note_on_c, 6, 57, 80
3, 27359, Note_on_c, 6, 57, 0
3, 27360, Note_on_c, 6, 57, 80
3, 27839, Note_on_c, 6, 57, 0
3, 27840, Note_on_c, 6, 55, 80
3, 27959, Note_on_c, 6, 55, 0
3, 27960, Note_on_c, 6, 55, 80
3, 28319, Note_on_c, 6, 55, 0
3, 28320, Note_on_c, 6, 55, 80
3, 28799, Note_on_c, 6, 55, 0
3, 28800, Note_on_c, 6, 53, 80
3, 28919, Note_on_c, 6, 53, 0
3, 28920, Note_on_c, 6, 53, 80
3, 29279, Note_on_c, 6, 53, 0
3, 29280, Note_on_c, 6, 53, 80
3, 29759, Note_on_c, 6, 53, 0
3, 29760, Note_on_c, 6, 53, 80
3, 30239, Note_on_c, 6, 53, 0
3, 30240, Note_on_c, 6, 53, 80
3, 30479, Note_on_c, 6, 53, 0
3, 30480, Note_on_c, 6, 53, 80
3, 30719, Note_on_c, 6, 53, 0
3, 30720, Note_on_c, 6, 57, 80
3, 30959, Note_on_c, 6, 57, 0
3, 30960, Note_on_c, 6, 57, 80
3, 31199, Note_on_c, 6, 57, 0
3, 31200, Note_on_c, 6, 57, 80
3, 31439, Note_on_c, 6, 57, 0
3, 31440, Note_on_c, 6, 57, 80
3, 31679, Note_on_c, 6, 57, 0
3, 31680, Note_on_c, 6, 55, 80
3, 31919, Note_on_c, 6, 55, 0
3, 31920, Note_on_c, 6, 55, 80
3, 32159, Note_on_c, 6, 55, 0
3, 32160, Note_on_c, 6, 55, 80
3, 32399, Note_on_c, 6, 55, 0
3, 32400, Note_on_c, 6, 55, 80
3, 32639, Note_on_c, 6, 55, 0
3, 32640, Note_on_c, 6, 53, 80
3, 32879, Note_on_c, 6, 53, 0
3, 32880, Note_on_c, 6, 53, 80
3, 33119, Note_on_c, 6, 53, 0
3, 33120, Note_on_c, 6, 53, 80
3, 33359, Note_on_c, 6, 53, 0
3, 33360, Note_on_c, 6, 53, 80
3, 33599, Note_on_c, 6, 53, 0
3, 33600, Note_on_c, 6, 53, 80
3, 33839, Note_on_c, 6, 53, 0
3, 33840, Note_on_c, 6, 53, 80
3, 34079, Note_on_c, 6, 53, 0
3, 34080, Note_on_c, 6, 53, 80
3, 34319, Note_on_c, 6, 53, 0
3, 34320, Note_on_c, 6, 53, 80
3, 34559, Note_on_c, 6, 53, 0
3, 34560, Note_on_c, 6, 57, 80
3, 34799, Note_on_c, 6, 57, 0
3, 34800, Note_on_c, 6, 57, 80
3, 35039, Note_on_c, 6, 57, 0
3, 35040, Note_on_c, 6, 57, 80
3, 35279, Note_on_c, 6, 57, 0
3, 35280, Note_on_c, 6, 57, 80
3, 35519, Note_on_c, 6, 57, 0
3, 35520, Note_on_c, 6, 55, 80
3, 35759, Note_on_c, 6, 55, 0
3, 35760, Note_on_c, 6, 55, 80
3, 35999, Note_on_c, 6, 55, 0
3, 36000, Note_on_c, 6, 55, 80
3, 36239, Note_on_c, 6, 55, 0
3, 36240, Note_on_c, 6, 55, 80
3, 36479, Note_on_c, 6, 55, 0
3, 36480, Note_on_c, 6, 53, 80
3, 36719, Note_on_c, 6, 53, 0
3, 36720, Note_on_c, 6, 53, 80
3, 36959, Note_on_c, 6, 53, 0
3, 36960, Note_on_c, 6, 53, 80
3, 37199, Note_on_c, 6, 53, 0
3, 37200, Note_on_c, 6, 53, 80
3, 37439, Note_on_c, 6, 53, 0
3, 37440, Note_on_c, 6, 53, 80
3, 37679, Note_on_c, 6, 53, 0
3, 37680, Note_on_c, 6, 53, 80
3, 37919, Note_on_c, 6, 53, 0
3, 37920, Note_on_c, 6, 55, 80
3, 38039, Note_on_c, 6, 55, 0
3, 38040, Note_on_c, 6, 55, 80
3, 38159, Note_on_c, 6, 55, 0
3, 38160, Note_on_c, 6, 57, 80
3, 38279, Note_on_c, 6, 57, 0
3, 38280, Note_on_c, 6, 57, 80
3, 38399, Note_on_c, 6, 57, 0
3, 38400, Note_on_c, 6, 57, 80
3, 39119, Note_on_c, 6, 57, 0
3, 39240, Note_on_c, 6, 57, 80
3, 39359, Note_on_c, 6, 57, 0
3, 39360, Note_on_c, 6, 55, 80
3, 40079, Note_on_c, 6, 55, 0
3, 40200, Note_on_c, 6, 55, 80
3, 40319, Note_on_c, 6, 55, 0
3, 40320, Note_on_c, 6, 53, 80
3, 42239, Note_on_c, 6, 53, 0
3, 42240, End_track
4, 0, Start_track
4, 0, Title_t, "Chimes, Bell\000"
4, 0, Key_signature, 0, "major"
4, 0, Control_c, 0, 121, 0
4, 0, Program_c, 0, 14
4, 0, Control_c, 0, 7, 100
4, 0, Control_c, 0, 10, 64
4, 0, Control_c, 0, 91, 0
4, 0, Control_c, 0, 93, 0
4, 0, MIDI_port, 0
4, 3840, Key_signature, 0, "major"
4, 23040, Note_on_c, 0, 76, 80
4, 23519, Note_on_c, 0, 76, 0
4, 23520, Note_on_c, 0, 76, 80
4, 23999, Note_on_c, 0, 76, 0
4, 24000, Note_on_c, 0, 77, 80
4, 24479, Note_on_c, 0, 77, 0
4, 24480, Note_on_c, 0, 79, 80
4, 24959, Note_on_c, 0, 79, 0
4, 24960, Note_on_c, 0, 76, 80
4, 25919, Note_on_c, 0, 76, 0
4, 25920, Note_on_c, 0, 74, 80
4, 26879, Note_on_c, 0, 74, 0
4, 26880, Note_on_c, 0, 76, 80
4, 27839, Note_on_c, 0, 76, 0
4, 27840, Note_on_c, 0, 77, 80
4, 28319, Note_on_c, 0, 77, 0
4, 28320, Note_on_c, 0, 79, 80
4, 28799, Note_on_c, 0, 79, 0
4, 28800, Note_on_c, 0, 72, 80
4, 29759, Note_on_c, 0, 72, 0
4, 29760, Note_on_c, 0, 71, 80
4, 30719, Note_on_c, 0, 71, 0
4, 30720, Note_on_c, 0, 76, 80
4, 31679, Note_on_c, 0, 76, 0
4, 31680, Note_on_c, 0, 77, 80
4, 32159, Note_on_c, 0, 77, 0
4, 32160, Note_on_c, 0, 79, 80
4, 32639, Note_on_c, 0, 79, 0
4, 32640, Note_on_c, 0, 76, 80
4, 33599, Note_on_c, 0, 76, 0
4, 33600, Note_on_c, 0, 74, 80
4, 34559, Note_on_c, 0, 74, 0
4, 34560, Note_on_c, 0, 76, 80
4, 35519, Note_on_c, 0, 76, 0
4, 35520, Note_on_c, 0, 77, 80
4, 35999, Note_on_c, 0, 77, 0
4, 36000, Note_on_c, 0, 79, 80
4, 36479, Note_on_c, 0, 79, 0
4, 36480, Note_on_c, 0, 72, 80
4, 37439, Note_on_c, 0, 72, 0
4, 37440, Note_on_c, 0, 71, 80
4, 38399, Note_on_c, 0, 71, 0
4, 38400, End_track
5, 0, Start_track
5, 0, Title_t, "Classical Guitar, Lute\000"
5, 0, Key_signature, 0, "major"
5, 0, Control_c, 11, 121, 0
5, 0, Program_c, 11, 24
5, 0, Control_c, 11, 7, 100
5, 0, Control_c, 11, 10, 64
5, 0, Control_c, 11, 91, 0
5, 0, Control_c, 11, 93, 0
5, 0, MIDI_port, 0
5, 0, Note_on_c, 11, 57, 80
5, 0, Control_c, 7, 121, 0
5, 0, Program_c, 7, 28
5, 0, Control_c, 7, 7, 100
5, 0, Control_c, 7, 10, 64
5, 0, Control_c, 7, 91, 0
5, 0, Control_c, 7, 93, 0
5, 0, MIDI_port, 0
5, 119, Note_on_c, 11, 57, 0
5, 120, Note_on_c, 11, 64, 80
5, 239, Note_on_c, 11, 64, 0
5, 240, Note_on_c, 11, 60, 80
5, 359, Note_on_c, 11, 60, 0
5, 360, Note_on_c, 11, 64, 80
5, 479, Note_on_c, 11, 64, 0
5, 480, Note_on_c, 11, 57, 80
5, 599, Note_on_c, 11, 57, 0
5, 600, Note_on_c, 11, 64, 80
5, 719, Note_on_c, 11, 64, 0
5, 720, Note_on_c, 11, 60, 80
5, 839, Note_on_c, 11, 60, 0
5, 840, Note_on_c, 11, 64, 80
5, 959, Note_on_c, 11, 64, 0
5, 960, Note_on_c, 11, 55, 80
5, 1079, Note_on_c, 11, 55, 0
5, 1080, Note_on_c, 11, 64, 80
5, 1199, Note_on_c, 11, 64, 0
5, 1200, Note_on_c, 11, 60, 80
5, 1319, Note_on_c, 11, 60, 0
5, 1320, Note_on_c, 11, 64, 80
5, 1439, Note_on_c, 11, 64, 0
5, 1440, Note_on_c, 11, 55, 80
5, 1559, Note_on_c, 11, 55, 0
5, 1560, Note_on_c, 11, 64, 80
5, 1679, Note_on_c, 11, 64, 0
5, 1680, Note_on_c, 11, 60, 80
5, 1799, Note_on_c, 11, 60, 0
5, 1800, Note_on_c, 11, 64, 80
5, 1919, Note_on_c, 11, 64, 0
5, 1920, Note_on_c, 11, 53, 80
5, 2039, Note_on_c, 11, 53, 0
5, 2040, Note_on_c, 11, 64, 80
5, 2159, Note_on_c, 11, 64, 0
5, 2160, Note_on_c, 11, 60, 80
5, 2279, Note_on_c, 11, 60, 0
5, 2280, Note_on_c, 11, 64, 80
5, 2399, Note_on_c, 11, 64, 0
5, 2400, Note_on_c, 11, 53, 80
5, 2519, Note_on_c, 11, 53, 0
5, 2520, Note_on_c, 11, 64, 80
5, 2639, Note_on_c, 11, 64, 0
5, 2640, Note_on_c, 11, 60, 80
5, 2759, Note_on_c, 11, 60, 0
5, 2760, Note_on_c, 11, 64, 80
5, 2879, Note_on_c, 11, 64, 0
5, 2880, Note_on_c, 11, 52, 80
5, 2999, Note_on_c, 11, 52, 0
5, 3000, Note_on_c, 11, 60, 80
5, 3119, Note_on_c, 11, 60, 0
5, 3120, Note_on_c, 11, 57, 80
5, 3239, Note_on_c, 11, 57, 0
5, 3240, Note_on_c, 11, 60, 80
5, 3359, Note_on_c, 11, 60, 0
5, 3360, Note_on_c, 11, 52, 80
5, 3479, Note_on_c, 11, 52, 0
5, 3480, Note_on_c, 11, 60, 80
5, 3599, Note_on_c, 11, 60, 0
5, 3600, Note_on_c, 11, 57, 80
5, 3719, Note_on_c, 11, 57, 0
5, 3720, Note_on_c, 11, 60, 80
5, 3839, Note_on_c, 11, 60, 0
5, 3840, Key_signature, 0, "major"
5, 3840, Note_on_c, 11, 57, 80
5, 3959, Note_on_c, 11, 57, 0
5, 3960, Note_on_c, 11, 64, 80
5, 4079, Note_on_c, 11, 64, 0
5, 4080, Note_on_c, 11, 60, 80
5, 4199, Note_on_c, 11, 60, 0
5, 4200, Note_on_c, 11, 64, 80
5, 4319, Note_on_c, 11, 64, 0
5, 4320, Note_on_c, 11, 57, 80
5, 4439, Note_on_c, 11, 57, 0
5, 4440, Note_on_c, 11, 64, 80
5, 4559, Note_on_c, 11, 64, 0
5, 4560, Note_on_c, 11, 60, 80
5, 4679, Note_on_c, 11, 60, 0
5, 4680, Note_on_c, 11, 64, 80
5, 4799, Note_on_c, 11, 64, 0
5, 4800, Note_on_c, 11, 55, 80
5, 4919, Note_on_c, 11, 55, 0
5, 4920, Note_on_c, 11, 64, 80
5, 5039, Note_on_c, 11, 64, 0
5, 5040, Note_on_c, 11, 60, 80
5, 5159, Note_on_c, 11, 60, 0
5, 5160, Note_on_c, 11, 64, 80
5, 5279, Note_on_c, 11, 64, 0
5, 5280, Note_on_c, 11, 55, 80
5, 5399, Note_on_c, 11, 55, 0
5, 5400, Note_on_c, 11, 64, 80
5, 5519, Note_on_c, 11, 64, 0
5, 5520, Note_on_c, 11, 60, 80
5, 5639, Note_on_c, 11, 60, 0
5, 5640, Note_on_c, 11, 64, 80
5, 5759, Note_on_c, 11, 64, 0
5, 5760, Note_on_c, 11, 53, 80
5, 5879, Note_on_c, 11, 53, 0
5, 5880, Note_on_c, 11, 64, 80
5, 5999, Note_on_c, 11, 64, 0
5, 6000, Note_on_c, 11, 60, 80
5, 6119, Note_on_c, 11, 60, 0
5, 6120, Note_on_c, 11, 64, 80
5, 6239, Note_on_c, 11, 64, 0
5, 6240, Note_on_c, 11, 53, 80
5, 6359, Note_on_c, 11, 53, 0
5, 6360, Note_on_c, 11, 64, 80
5, 6479, Note_on_c, 11, 64, 0
5, 6480, Note_on_c, 11, 60, 80
5, 6599, Note_on_c, 11, 60, 0
5, 6600, Note_on_c, 11, 64, 80
5, 6719, Note_on_c, 11, 64, 0
5, 6720, Note_on_c, 11, 52, 80
5, 6839, Note_on_c, 11, 52, 0
5, 6840, Note_on_c, 11, 60, 80
5, 6959, Note_on_c, 11, 60, 0
5, 6960, Note_on_c, 11, 57, 80
5, 7079, Note_on_c, 11, 57, 0
5, 7080, Note_on_c, 11, 60, 80
5, 7199, Note_on_c, 11, 60, 0
5, 7200, Note_on_c, 11, 52, 80
5, 7319, Note_on_c, 11, 52, 0
5, 7320, Note_on_c, 11, 60, 80
5, 7439, Note_on_c, 11, 60, 0
5, 7440, Note_on_c, 11, 57, 80
5, 7559, Note_on_c, 11, 57, 0
5, 7560, Note_on_c, 11, 60, 80
5, 7679, Note_on_c, 11, 60, 0
5, 7680, Note_on_c, 11, 57, 80
5, 7799, Note_on_c, 11, 57, 0
5, 7800, Note_on_c, 11, 64, 80
5, 7919, Note_on_c, 11, 64, 0
5, 7920, Note_on_c, 11, 60, 80
5, 8039, Note_on_c, 11, 60, 0
5, 8040, Note_on_c, 11, 64, 80
5, 8159, Note_on_c, 11, 64, 0
5, 8160, Note_on_c, 11, 57, 80
5, 8279, Note_on_c, 11, 57, 0
5, 8280, Note_on_c, 11, 64, 80
5, 8399, Note_on_c, 11, 64, 0
5, 8400, Note_on_c, 11, 60, 80
5, 8519, Note_on_c, 11, 60, 0
5, 8520, Note_on_c, 11, 64, 80
5, 8639, Note_on_c, 11, 64, 0
5, 8640, Note_on_c, 11, 55, 80
5, 8759, Note_on_c, 11, 55, 0
5, 8760, Note_on_c, 11, 64, 80
5, 8879, Note_on_c, 11, 64, 0
5, 8880, Note_on_c, 11, 60, 80
5, 8999, Note_on_c, 11, 60, 0
5, 9000, Note_on_c, 11, 64, 80
5, 9119, Note_on_c, 11, 64, 0
5, 9120, Note_on_c, 11, 55, 80
5, 9239, Note_on_c, 11, 55, 0
5, 9240, Note_on_c, 11, 64, 80
5, 9359, Note_on_c, 11, 64, 0
5, 9360, Note_on_c, 11, 60, 80
5, 9479, Note_on_c, 11, 60, 0
5, 9480, Note_on_c, 11, 64, 80
5, 9599, Note_on_c, 11, 64, 0
5, 9600, Note_on_c, 11, 53, 80
5, 9719, Note_on_c, 11, 53, 0
5, 9720, Note_on_c, 11, 64, 80
5, 9839, Note_on_c, 11, 64, 0
5, 9840, Note_on_c, 11, 60, 80
5, 9959, Note_on_c, 11, 60, 0
5, 9960, Note_on_c, 11, 64, 80
5, 10079, Note_on_c, 11, 64, 0
5, 10080, Note_on_c, 11, 53, 80
5, 10199, Note_on_c, 11, 53, 0
5, 10200, Note_on_c, 11, 64, 80
5, 10319, Note_on_c, 11, 64, 0
5, 10320, Note_on_c, 11, 60, 80
5, 10439, Note_on_c, 11, 60, 0
5, 10440, Note_on_c, 11, 64, 80
5, 10559, Note_on_c, 11, 64, 0
5, 10560, Note_on_c, 11, 52, 80
5, 10679, Note_on_c, 11, 52, 0
5, 10680, Note_on_c, 11, 60, 80
5, 10799, Note_on_c, 11, 60, 0
5, 10800, Note_on_c, 11, 57, 80
5, 10919, Note_on_c, 11, 57, 0
5, 10920, Note_on_c, 11, 60, 80
5, 11039, Note_on_c, 11, 60, 0
5, 11040, Note_on_c, 11, 52, 80
5, 11159, Note_on_c, 11, 52, 0
5, 11160, Note_on_c, 11, 60, 80
5, 11279, Note_on_c, 11, 60, 0
5, 11280, Note_on_c, 11, 57, 80
5, 11399, Note_on_c, 11, 57, 0
5, 11400, Note_on_c, 11, 60, 80
5, 11519, Note_on_c, 11, 60, 0
5, 11520, Note_on_c, 11, 57, 80
5, 11639, Note_on_c, 11, 57, 0
5, 11640, Note_on_c, 11, 64, 80
5, 11759, Note_on_c, 11, 64, 0
5, 11760, Note_on_c, 11, 60, 80
5, 11879, Note_on_c, 11, 60, 0
5, 11880, Note_on_c, 11, 64, 80
5, 11999, Note_on_c, 11, 64, 0
5, 12000, Note_on_c, 11, 57, 80
5, 12119, Note_on_c, 11, 57, 0
5, 12120, Note_on_c, 11, 64, 80
5, 12239, Note_on_c, 11, 64, 0
5, 12240, Note_on_c, 11, 60, 80
5, 12359, Note_on_c, 11, 60, 0
5, 12360, Note_on_c, 11, 64, 80
5, 12479, Note_on_c, 11, 64, 0
5, 12480, Note_on_c, 11, 55, 80
5, 12599, Note_on_c, 11, 55, 0
5, 12600, Note_on_c, 11, 64, 80
5, 12719, Note_on_c, 11, 64, 0
5, 12720, Note_on_c, 11, 60, 80
5, 12839, Note_on_c, 11, 60, 0
5, 12840, Note_on_c, 11, 64, 80
5, 12959, Note_on_c, 11, 64, 0
5, 12960, Note_on_c, 11, 55, 80
5, 13079, Note_on_c, 11, 55, 0
5, 13080, Note_on_c, 11, 64, 80
5, 13199, Note_on_c, 11, 64, 0
5, 13200, Note_on_c, 11, 60, 80
5, 13319, Note_on_c, 11, 60, 0
5, 13320, Note_on_c, 11, 64, 80
5, 13439, Note_on_c, 11, 64, 0
5, 13440, Note_on_c, 11, 53, 80
5, 13559, Note_on_c, 11, 53, 0
5, 13560, Note_on_c, 11, 64, 80
5, 13679, Note_on_c, 11, 64, 0
5, 13680, Note_on_c, 11, 60, 80
5, 13799, Note_on_c, 11, 60, 0
5, 13800, Note_on_c, 11, 64, 80
5, 13919, Note_on_c, 11, 64, 0
5, 13920, Note_on_c, 11, 53, 80
5, 14039, Note_on_c, 11, 53, 0
5, 14040, Note_on_c, 11, 64, 80
5, 14159, Note_on_c, 11, 64, 0
5, 14160, Note_on_c, 11, 60, 80
5, 14279, Note_on_c, 11, 60, 0
5, 14280, Note_on_c, 11, 64, 80
5, 14399, Note_on_c, 11, 64, 0
5, 14400, Note_on_c, 11, 52, 80
5, 14519, Note_on_c, 11, 52, 0
5, 14520, Note_on_c, 11, 60, 80
5, 14639, Note_on_c, 11, 60, 0
5, 14640, Note_on_c, 11, 57, 80
5, 14759, Note_on_c, 11, 57, 0
5, 14760, Note_on_c, 11, 60, 80
5, 14879, Note_on_c, 11, 60, 0
5, 14880, Note_on_c, 11, 52, 80
5, 14999, Note_on_c, 11, 52, 0
5, 15000, Note_on_c, 11, 60, 80
5, 15119, Note_on_c, 11, 60, 0
5, 15120, Note_on_c, 11, 57, 80
5, 15239, Note_on_c, 11, 57, 0
5, 15240, Note_on_c, 11, 60, 80
5, 15359, Note_on_c, 11, 60, 0
5, 15360, Note_on_c, 11, 57, 80
5, 15479, Note_on_c, 11, 57, 0
5, 15480, Note_on_c, 11, 64, 80
5, 15599, Note_on_c, 11, 64, 0
5, 15600, Note_on_c, 11, 60, 80
5, 15719, Note_on_c, 11, 60, 0
5, 15720, Note_on_c, 11, 64, 80
5, 15839, Note_on_c, 11, 64, 0
5, 15840, Note_on_c, 11, 57, 80
5, 15959, Note_on_c, 11, 57, 0
5, 15960, Note_on_c, 11, 64, 80
5, 16079, Note_on_c, 11, 64, 0
5, 16080, Note_on_c, 11, 60, 80
5, 16199, Note_on_c, 11, 60, 0
5, 16200, Note_on_c, 11, 64, 80
5, 16319, Note_on_c, 11, 64, 0
5, 16320, Note_on_c, 11, 55, 80
5, 16439, Note_on_c, 11, 55, 0
5, 16440, Note_on_c, 11, 64, 80
5, 16559, Note_on_c, 11, 64, 0
5, 16560, Note_on_c, 11, 60, 80
5, 16679, Note_on_c, 11, 60, 0
5, 16680, Note_on_c, 11, 64, 80
5, 16799, Note_on_c, 11, 64, 0
5, 16800, Note_on_c, 11, 55, 80
5, 16919, Note_on_c, 11, 55, 0
5, 16920, Note_on_c, 11, 64, 80
5, 17039, Note_on_c, 11, 64, 0
5, 17040, Note_on_c, 11, 60, 80
5, 17159, Note_on_c, 11, 60, 0
5, 17160, Note_on_c, 11, 64, 80
5, 17279, Note_on_c, 11, 64, 0
5, 17280, Note_on_c, 11, 53, 80
5, 17399, Note_on_c, 11, 53, 0
5, 17400, Note_on_c, 11, 64, 80
5, 17519, Note_on_c, 11, 64, 0
5, 17520, Note_on_c, 11, 60, 80
5, 17639, Note_on_c, 11, 60, 0
5, 17640, Note_on_c, 11, 64, 80
5, 17759, Note_on_c, 11, 64, 0
5, 17760, Note_on_c, 11, 53, 80
5, 17879, Note_on_c, 11, 53, 0
5, 17880, Note_on_c, 11, 64, 80
5, 17999, Note_on_c, 11, 64, 0
5, 18000, Note_on_c, 11, 60, 80
5, 18119, Note_on_c, 11, 60, 0
5, 18120, Note_on_c, 11, 64, 80
5, 18239, Note_on_c, 11, 64, 0
5, 18240, Note_on_c, 11, 52, 80
5, 18359, Note_on_c, 11, 52, 0
5, 18360, Note_on_c, 11, 60, 80
5, 18479, Note_on_c, 11, 60, 0
5, 18480, Note_on_c, 11, 57, 80
5, 18599, Note_on_c, 11, 57, 0
5, 18600, Note_on_c, 11, 60, 80
5, 18719, Note_on_c, 11, 60, 0
5, 18720, Note_on_c, 11, 52, 80
5, 18839, Note_on_c, 11, 52, 0
5, 18840, Note_on_c, 11, 60, 80
5, 18959, Note_on_c, 11, 60, 0
5, 18960, Note_on_c, 11, 57, 80
5, 19079, Note_on_c, 11, 57, 0
5, 19080, Note_on_c, 11, 60, 80
5, 19199, Note_on_c, 11, 60, 0
5, 19200, Note_on_c, 11, 57, 80
5, 19319, Note_on_c, 11, 57, 0
5, 19320, Note_on_c, 11, 64, 80
5, 19439, Note_on_c, 11, 64, 0
5, 19440, Note_on_c, 11, 60, 80
5, 19559, Note_on_c, 11, 60, 0
5, 19560, Note_on_c, 11, 64, 80
5, 19679, Note_on_c, 11, 64, 0
5, 19680, Note_on_c, 11, 57, 80
5, 19799, Note_on_c, 11, 57, 0
5, 19800, Note_on_c, 11, 64, 80
5, 19919, Note_on_c, 11, 64, 0
5, 19920, Note_on_c, 11, 60, 80
5, 20039, Note_on_c, 11, 60, 0
5, 20040, Note_on_c, 11, 64, 80
5, 20159, Note_on_c, 11, 64, 0
5, 20160, Note_on_c, 11, 55, 80
5, 20279, Note_on_c, 11, 55, 0
5, 20280, Note_on_c, 11, 64, 80
5, 20399, Note_on_c, 11, 64, 0
5, 20400, Note_on_c, 11, 60, 80
5, 20519, Note_on_c, 11, 60, 0
5, 20520, Note_on_c, 11, 64, 80
5, 20639, Note_on_c, 11, 64, 0
5, 20640, Note_on_c, 11, 55, 80
5, 20759, Note_on_c, 11, 55, 0
5, 20760, Note_on_c, 11, 64, 80
5, 20879, Note_on_c, 11, 64, 0
5, 20880, Note_on_c, 11, 60, 80
5, 20999, Note_on_c, 11, 60, 0
5, 21000, Note_on_c, 11, 64, 80
5, 21119, Note_on_c, 11, 64, 0
5, 21120, Note_on_c, 11, 53, 80
5, 21239, Note_on_c, 11, 53, 0
5, 21240, Note_on_c, 11, 64, 80
5, 21359, Note_on_c, 11, 64, 0
5, 21360, Note_on_c, 11, 60, 80
5, 21479, Note_on_c, 11, 60, 0
5, 21480, Note_on_c, 11, 64, 80
5, 21599, Note_on_c, 11, 64, 0
5, 21600, Note_on_c, 11, 53, 80
5, 21719, Note_on_c, 11, 53, 0
5, 21720, Note_on_c, 11, 64, 80
5, 21839, Note_on_c, 11, 64, 0
5, 21840, Note_on_c, 11, 60, 80
5, 21959, Note_on_c, 11, 60, 0
5, 21960, Note_on_c, 11, 64, 80
5, 22079, Note_on_c, 11, 64, 0
5, 22080, Note_on_c, 11, 52, 80
5, 22199, Note_on_c, 11, 52, 0
5, 22200, Note_on_c, 11, 60, 80
5, 22319, Note_on_c, 11, 60, 0
5, 22320, Note_on_c, 11, 57, 80
5, 22439, Note_on_c, 11, 57, 0
5, 22440, Note_on_c, 11, 60, 80
5, 22559, Note_on_c, 11, 60, 0
5, 22560, Note_on_c, 11, 52, 80
5, 22679, Note_on_c, 11, 52, 0
5, 22680, Note_on_c, 11, 60, 80
5, 22799, Note_on_c, 11, 60, 0
5, 22800, Note_on_c, 11, 57, 80
5, 22919, Note_on_c, 11, 57, 0
5, 22920, Note_on_c, 11, 60, 80
5, 23039, Note_on_c, 11, 60, 0
5, 23040, Note_on_c, 11, 69, 80
5, 23159, Note_on_c, 11, 69, 0
5, 23160, Note_on_c, 11, 64, 80
5, 23279, Note_on_c, 11, 64, 0
5, 23280, Note_on_c, 11, 60, 80
5, 23399, Note_on_c, 11, 60, 0
5, 23400, Note_on_c, 11, 57, 80
5, 23519, Note_on_c, 11, 57, 0
5, 23520, Note_on_c, 11, 69, 80
5, 23639, Note_on_c, 11, 69, 0
5, 23640, Note_on_c, 11, 64, 80
5, 23759, Note_on_c, 11, 64, 0
5, 23760, Note_on_c, 11, 60, 80
5, 23879, Note_on_c, 11, 60, 0
5, 23880, Note_on_c, 11, 57, 80
5, 23999, Note_on_c, 11, 57, 0
5, 24000, Note_on_c, 11, 67, 80
5, 24119, Note_on_c, 11, 67, 0
5, 24120, Note_on_c, 11, 64, 80
5, 24239, Note_on_c, 11, 64, 0
5, 24240, Note_on_c, 11, 60, 80
5, 24359, Note_on_c, 11, 60, 0
5, 24360, Note_on_c, 11, 55, 80
5, 24479, Note_on_c, 11, 55, 0
5, 24480, Note_on_c, 11, 67, 80
5, 24599, Note_on_c, 11, 67, 0
5, 24600, Note_on_c, 11, 64, 80
5, 24719, Note_on_c, 11, 64, 0
5, 24720, Note_on_c, 11, 60, 80
5, 24839, Note_on_c, 11, 60, 0
5, 24840, Note_on_c, 11, 55, 80
5, 24959, Note_on_c, 11, 55, 0
5, 24960, Note_on_c, 11, 65, 80
5, 25079, Note_on_c, 11, 65, 0
5, 25080, Note_on_c, 11, 60, 80
5, 25199, Note_on_c, 11, 60, 0
5, 25200, Note_on_c, 11, 57, 80
5, 25319, Note_on_c, 11, 57, 0
5, 25320, Note_on_c, 11, 53, 80
5, 25439, Note_on_c, 11, 53, 0
5, 25440, Note_on_c, 11, 65, 80
5, 25559, Note_on_c, 11, 65, 0
5, 25560, Note_on_c, 11, 60, 80
5, 25679, Note_on_c, 11, 60, 0
5, 25680, Note_on_c, 11, 57, 80
5, 25799, Note_on_c, 11, 57, 0
5, 25800, Note_on_c, 11, 53, 80
5, 25919, Note_on_c, 11, 53, 0
5, 25920, Note_on_c, 11, 65, 80
5, 26039, Note_on_c, 11, 65, 0
5, 26040, Note_on_c, 11, 60, 80
5, 26159, Note_on_c, 11, 60, 0
5, 26160, Note_on_c, 11, 57, 80
5, 26279, Note_on_c, 11, 57, 0
5, 26280, Note_on_c, 11, 53, 80
5, 26399, Note_on_c, 11, 53, 0
5, 26400, Note_on_c, 11, 65, 80
5, 26519, Note_on_c, 11, 65, 0
5, 26520, Note_on_c, 11, 60, 80
5, 26639, Note_on_c, 11, 60, 0
5, 26640, Note_on_c, 11, 57, 80
5, 26759, Note_on_c, 11, 57, 0
5, 26760, Note_on_c, 11, 53, 80
5, 26879, Note_on_c, 11, 53, 0
5, 26880, Note_on_c, 11, 69, 80
5, 26999, Note_on_c, 11, 69, 0
5, 27000, Note_on_c, 11, 64, 80
5, 27119, Note_on_c, 11, 64, 0
5, 27120, Note_on_c, 11, 60, 80
5, 27239, Note_on_c, 11, 60, 0
5, 27240, Note_on_c, 11, 57, 80
5, 27359, Note_on_c, 11, 57, 0
5, 27360, Note_on_c, 11, 69, 80
5, 27479, Note_on_c, 11, 69, 0
5, 27480, Note_on_c, 11, 64, 80
5, 27599, Note_on_c, 11, 64, 0
5, 27600, Note_on_c, 11, 60, 80
5, 27719, Note_on_c, 11, 60, 0
5, 27720, Note_on_c, 11, 57, 80
5, 27839, Note_on_c, 11, 57, 0
5, 27840, Note_on_c, 11, 67, 80
5, 27959, Note_on_c, 11, 67, 0
5, 27960, Note_on_c, 11, 64, 80
5, 28079, Note_on_c, 11, 64, 0
5, 28080, Note_on_c, 11, 60, 80
5, 28199, Note_on_c, 11, 60, 0
5, 28200, Note_on_c, 11, 55, 80
5, 28319, Note_on_c, 11, 55, 0
5, 28320, Note_on_c, 11, 67, 80
5, 28439, Note_on_c, 11, 67, 0
5, 28440, Note_on_c, 11, 64, 80
5, 28559, Note_on_c, 11, 64, 0
5, 28560, Note_on_c, 11, 60, 80
5, 28679, Note_on_c, 11, 60, 0
5, 28680, Note_on_c, 11, 55, 80
5, 28799, Note_on_c, 11, 55, 0
5, 28800, Note_on_c, 11, 65, 80
5, 28919, Note_on_c, 11, 65, 0
5, 28920, Note_on_c, 11, 60, 80
5, 29039, Note_on_c, 11, 60, 0
5, 29040, Note_on_c, 11, 57, 80
5, 29159, Note_on_c, 11, 57, 0
5, 29160, Note_on_c, 11, 53, 80
5, 29279, Note_on_c, 11, 53, 0
5, 29280, Note_on_c, 11, 65, 80
5, 29399, Note_on_c, 11, 65, 0
5, 29400, Note_on_c, 11, 60, 80
5, 29519, Note_on_c, 11, 60, 0
5, 29520, Note_on_c, 11, 57, 80
5, 29639, Note_on_c, 11, 57, 0
5, 29640, Note_on_c, 11, 53, 80
5, 29759, Note_on_c, 11, 53, 0
5, 29760, Note_on_c, 11, 65, 80
5, 29879, Note_on_c, 11, 65, 0
5, 29880, Note_on_c, 11, 60, 80
5, 29999, Note_on_c, 11, 60, 0
5, 30000, Note_on_c, 11, 57, 80
5, 30119, Note_on_c, 11, 57, 0
5, 30120, Note_on_c, 11, 53, 80
5, 30239, Note_on_c, 11, 53, 0
5, 30240, Note_on_c, 11, 65, 80
5, 30359, Note_on_c, 11, 65, 0
5, 30360, Note_on_c, 11, 60, 80
5, 30479, Note_on_c, 11, 60, 0
5, 30480, Note_on_c, 11, 57, 80
5, 30599, Note_on_c, 11, 57, 0
5, 30600, Note_on_c, 11, 53, 80
5, 30719, Note_on_c, 11, 53, 0
5, 30720, Note_on_c, 11, 69, 80
5, 30839, Note_on_c, 11, 69, 0
5, 30840, Note_on_c, 11, 64, 80
5, 30959, Note_on_c, 11, 64, 0
5, 30960, Note_on_c, 11, 60, 80
5, 31079, Note_on_c, 11, 60, 0
5, 31080, Note_on_c, 11, 64, 80
5, 31199, Note_on_c, 11, 64, 0
5, 31200, Note_on_c, 11, 69, 80
5, 31319, Note_on_c, 11, 69, 0
5, 31320, Note_on_c, 11, 64, 80
5, 31439, Note_on_c, 11, 64, 0
5, 31440, Note_on_c, 11, 60, 80
5, 31559, Note_on_c, 11, 60, 0
5, 31560, Note_on_c, 11, 64, 80
5, 31679, Note_on_c, 11, 64, 0
5, 31680, Note_on_c, 11, 67, 80
5, 31799, Note_on_c, 11, 67, 0
5, 31800, Note_on_c, 11, 64, 80
5, 31919, Note_on_c, 11, 64, 0
5, 31920, Note_on_c, 11, 60, 80
5, 32039, Note_on_c, 11, 60, 0
5, 32040, Note_on_c, 11, 64, 80
5, 32159, Note_on_c, 11, 64, 0
5, 32160, Note_on_c, 11, 67, 80
5, 32279, Note_on_c, 11, 67, 0
5, 32280, Note_on_c, 11, 64, 80
5, 32399, Note_on_c, 11, 64, 0
5, 32400, Note_on_c, 11, 60, 80
5, 32519, Note_on_c, 11, 60, 0
5, 32520, Note_on_c, 11, 64, 80
5, 32639, Note_on_c, 11, 64, 0
5, 32640, Note_on_c, 11, 65, 80
5, 32759, Note_on_c, 11, 65, 0
5, 32760, Note_on_c, 11, 60, 80
5, 32879, Note_on_c, 11, 60, 0
5, 32880, Note_on_c, 11, 57, 80
5, 32999, Note_on_c, 11, 57, 0
5, 33000, Note_on_c, 11, 60, 80
5, 33119, Note_on_c, 11, 60, 0
5, 33120, Note_on_c, 11, 65, 80
5, 33239, Note_on_c, 11, 65, 0
5, 33240, Note_on_c, 11, 60, 80
5, 33359, Note_on_c, 11, 60, 0
5, 33360, Note_on_c, 11, 57, 80
5, 33479, Note_on_c, 11, 57, 0
5, 33480, Note_on_c, 11, 60, 80
5, 33599, Note_on_c, 11, 60, 0
5, 33600, Note_on_c, 11, 65, 80
5, 33719, Note_on_c, 11, 65, 0
5, 33720, Note_on_c, 11, 60, 80
5, 33839, Note_on_c, 11, 60, 0
5, 33840, Note_on_c, 11, 57, 80
5, 33959, Note_on_c, 11, 57, 0
5, 33960, Note_on_c, 11, 60, 80
5, 34079, Note_on_c, 11, 60, 0
5, 34080, Note_on_c, 11, 65, 80
5, 34199, Note_on_c, 11, 65, 0
5, 34200, Note_on_c, 11, 60, 80
5, 34319, Note_on_c, 11, 60, 0
5, 34320, Note_on_c, 11, 57, 80
5, 34439, Note_on_c, 11, 57, 0
5, 34440, Note_on_c, 11, 60, 80
5, 34559, Note_on_c, 11, 60, 0
5, 34560, Note_on_c, 11, 69, 80
5, 34679, Note_on_c, 11, 69, 0
5, 34680, Note_on_c, 11, 64, 80
5, 34799, Note_on_c, 11, 64, 0
5, 34800, Note_on_c, 11, 60, 80
5, 34919, Note_on_c, 11, 60, 0
5, 34920, Note_on_c, 11, 64, 80
5, 35039, Note_on_c, 11, 64, 0
5, 35040, Note_on_c, 11, 69, 80
5, 35159, Note_on_c, 11, 69, 0
5, 35160, Note_on_c, 11, 64, 80
5, 35279, Note_on_c, 11, 64, 0
5, 35280, Note_on_c, 11, 60, 80
5, 35399, Note_on_c, 11, 60, 0
5, 35400, Note_on_c, 11, 64, 80
5, 35519, Note_on_c, 11, 64, 0
5, 35520, Note_on_c, 11, 67, 80
5, 35639, Note_on_c, 11, 67, 0
5, 35640, Note_on_c, 11, 64, 80
5, 35759, Note_on_c, 11, 64, 0
5, 35760, Note_on_c, 11, 60, 80
5, 35879, Note_on_c, 11, 60, 0
5, 35880, Note_on_c, 11, 64, 80
5, 35999, Note_on_c, 11, 64, 0
5, 36000, Note_on_c, 11, 67, 80
5, 36119, Note_on_c, 11, 67, 0
5, 36120, Note_on_c, 11, 64, 80
5, 36239, Note_on_c, 11, 64, 0
5, 36240, Note_on_c, 11, 60, 80
5, 36359, Note_on_c, 11, 60, 0
5, 36360, Note_on_c, 11, 64, 80
5, 36479, Note_on_c, 11, 64, 0
5, 36480, Note_on_c, 11, 65, 80
5, 36599, Note_on_c, 11, 65, 0
5, 36600, Note_on_c, 11, 60, 80
5, 36719, Note_on_c, 11, 60, 0
5, 36720, Note_on_c, 11, 57, 80
5, 36839, Note_on_c, 11, 57, 0
5, 36840, Note_on_c, 11, 60, 80
5, 36959, Note_on_c, 11, 60, 0
5, 36960, Note_on_c, 11, 65, 80
5, 37199, Note_on_c, 11, 65, 0
5, 37200, Note_on_c, 11, 60, 80
5, 37319, Note_on_c, 11, 60, 0
5, 37320, Note_on_c, 11, 57, 80
5, 37439, Note_on_c, 11, 57, 0
5, 37440, Note_on_c, 11, 60, 80
5, 37919, Note_on_c, 11, 60, 0
5, 37920, End_track
0, 0, End_of_file
