0, 0, Header, 1, 5, 480
1, 0, Start_track
1, 0, Title_t, "Piano, Piano\000"
1, 0, Time_signature, 4, 2, 24, 8
1, 0, Key_signature, 0, "major"
1, 0, Tempo, 413793
1, 0, Control_c, 0, 121, 0
1, 0, Program_c, 0, 0
1, 0, Control_c, 0, 7, 100
1, 0, Control_c, 0, 10, 64
1, 0, Control_c, 0, 91, 0
1, 0, Control_c, 0, 93, 0
1, 0, MIDI_port, 2
1, 0, Note_on_c, 0, 79, 80
1, 455, Note_on_c, 0, 79, 0
1, 480, Note_on_c, 0, 76, 80
1, 935, Note_on_c, 0, 76, 0
1, 960, Note_on_c, 0, 77, 80
1, 1415, Note_on_c, 0, 77, 0
1, 1440, Note_on_c, 0, 74, 80
1, 1895, Note_on_c, 0, 74, 0
1, 1920, Note_on_c, 0, 67, 80
1, 1920, Note_on_c, 0, 76, 80
1, 2375, Note_on_c, 0, 67, 0
1, 2375, Note_on_c, 0, 76, 0
1, 2400, Note_on_c, 0, 67, 80
1, 2400, Note_on_c, 0, 72, 80
1, 2855, Note_on_c, 0, 67, 0
1, 2855, Note_on_c, 0, 72, 0
1, 2880, Note_on_c, 0, 74, 80
1, 3107, Note_on_c, 0, 74, 0
1, 3120, Note_on_c, 0, 62, 80
1, 3120, Note_on_c, 0, 65, 80
1, 3347, Note_on_c, 0, 62, 0
1, 3347, Note_on_c, 0, 65, 0
1, 3360, Note_on_c, 0, 69, 80
1, 3701, Note_on_c, 0, 69, 0
1, 3720, Note_on_c, 0, 65, 80
1, 3833, Note_on_c, 0, 65, 0
1, 3840, Note_on_c, 0, 67, 80
1, 4295, Note_on_c, 0, 67, 0
1, 4320, Note_on_c, 0, 64, 80
1, 4661, Note_on_c, 0, 64, 0
1, 4680, Note_on_c, 0, 65, 80
1, 4793, Note_on_c, 0, 65, 0
1, 4800, Note_on_c, 0, 67, 80
1, 5255, Note_on_c, 0, 67, 0
1, 5280, Note_on_c, 0, 81, 80
1, 5735, Note_on_c, 0, 81, 0
1, 5760, Note_on_c, 0, 65, 80
1, 5760, Note_on_c, 0, 79, 80
1, 6671, Note_on_c, 0, 65, 0
1, 6671, Note_on_c, 0, 79, 0
1, 6960, Note_on_c, 0, 64, 80
1, 6960, Note_on_c, 0, 67, 80
1, 7187, Note_on_c, 0, 64, 0
1, 7187, Note_on_c, 0, 67, 0
1, 7680, Note_on_c, 0, 79, 80
1, 7907, Note_on_c, 0, 79, 0
1, 7920, Note_on_c, 0, 67, 80
1, 8375, Note_on_c, 0, 67, 0
1, 8400, Note_on_c, 0, 72, 80
1, 8627, Note_on_c, 0, 72, 0
1, 8640, Note_on_c, 0, 79, 80
1, 8867, Note_on_c, 0, 79, 0
1, 8880, Note_on_c, 0, 77, 80
1, 9107, Note_on_c, 0, 77, 0
1, 9120, Note_on_c, 0, 76, 80
1, 9347, Note_on_c, 0, 76, 0
1, 9360, Note_on_c, 0, 74, 80
1, 9587, Note_on_c, 0, 74, 0
1, 9600, Note_on_c, 0, 67, 80
1, 9600, Note_on_c, 0, 72, 80
1, 9827, Note_on_c, 0, 67, 0
1, 9827, Note_on_c, 0, 72, 0
1, 9840, Note_on_c, 0, 71, 80
1, 10067, Note_on_c, 0, 71, 0
1, 10080, Note_on_c, 0, 67, 80
1, 10080, Note_on_c, 0, 72, 80
1, 10307, Note_on_c, 0, 67, 0
1, 10307, Note_on_c, 0, 72, 0
1, 10320, Note_on_c, 0, 74, 80
1, 10547, Note_on_c, 0, 74, 0
1, 10800, Note_on_c, 0, 62, 80
1, 10800, Note_on_c, 0, 65, 80
1, 10800, Note_on_c, 0, 72, 80
1, 11027, Note_on_c, 0, 62, 0
1, 11027, Note_on_c, 0, 65, 0
1, 11027, Note_on_c, 0, 72, 0
1, 11520, Note_on_c, 0, 65, 80
1, 11520, Note_on_c, 0, 79, 80
1, 11633, Note_on_c, 0, 65, 0
1, 11633, Note_on_c, 0, 79, 0
1, 11640, Note_on_c, 0, 77, 80
1, 11753, Note_on_c, 0, 77, 0
1, 11760, Note_on_c, 0, 76, 80
1, 11873, Note_on_c, 0, 76, 0
1, 11880, Note_on_c, 0, 77, 80
1, 11993, Note_on_c, 0, 77, 0
1, 12000, Note_on_c, 0, 79, 80
1, 12113, Note_on_c, 0, 79, 0
1, 12120, Note_on_c, 0, 81, 80
1, 12233, Note_on_c, 0, 81, 0
1, 12240, Note_on_c, 0, 79, 80
1, 12353, Note_on_c, 0, 79, 0
1, 12360, Note_on_c, 0, 77, 80
1, 12473, Note_on_c, 0, 77, 0
1, 12480, Note_on_c, 0, 76, 80
1, 12935, Note_on_c, 0, 76, 0
1, 13200, Note_on_c, 0, 74, 80
1, 13427, Note_on_c, 0, 74, 0
1, 13440, Note_on_c, 0, 77, 80
1, 13667, Note_on_c, 0, 77, 0
1, 13680, Note_on_c, 0, 72, 80
1, 13793, Note_on_c, 0, 72, 0
1, 13800, Note_on_c, 0, 74, 80
1, 13913, Note_on_c, 0, 74, 0
1, 13920, Note_on_c, 0, 76, 80
1, 14147, Note_on_c, 0, 76, 0
1, 14160, Note_on_c, 0, 74, 80
1, 14273, Note_on_c, 0, 74, 0
1, 14280, Note_on_c, 0, 76, 80
1, 14393, Note_on_c, 0, 76, 0
1, 14400, Note_on_c, 0, 77, 80
1, 14627, Note_on_c, 0, 77, 0
1, 14640, Note_on_c, 0, 79, 80
1, 14867, Note_on_c, 0, 79, 0
1, 15360, Note_on_c, 0, 79, 80
1, 15473, Note_on_c, 0, 79, 0
1, 15480, Note_on_c, 0, 77, 80
1, 15593, Note_on_c, 0, 77, 0
1, 15600, Note_on_c, 0, 76, 80
1, 15713, Note_on_c, 0, 76, 0
1, 15720, Note_on_c, 0, 74, 80
1, 15833, Note_on_c, 0, 74, 0
1, 15840, Note_on_c, 0, 76, 80
1, 15953, Note_on_c, 0, 76, 0
1, 15960, Note_on_c, 0, 77, 80
1, 16073, Note_on_c, 0, 77, 0
1, 16080, Note_on_c, 0, 79, 80
1, 16193, Note_on_c, 0, 79, 0
1, 16200, Note_on_c, 0, 81, 80
1, 16313, Note_on_c, 0, 81, 0
1, 16320, Note_on_c, 0, 79, 80
1, 16775, Note_on_c, 0, 79, 0
1, 17040, Note_on_c, 0, 79, 80
1, 17267, Note_on_c, 0, 79, 0
1, 17280, Note_on_c, 0, 64, 80
1, 17280, Note_on_c, 0, 67, 80
1, 17735, Note_on_c, 0, 64, 0
1, 17735, Note_on_c, 0, 67, 0
1, 17760, Note_on_c, 0, 64, 80
1, 17760, Note_on_c, 0, 67, 80
1, 17987, Note_on_c, 0, 64, 0
1, 17987, Note_on_c, 0, 67, 0
1, 18000, Note_on_c, 0, 79, 80
1, 18227, Note_on_c, 0, 79, 0
1, 18240, Note_on_c, 0, 72, 80
1, 18467, Note_on_c, 0, 72, 0
1, 18480, Note_on_c, 0, 62, 80
1, 18480, Note_on_c, 0, 65, 80
1, 18707, Note_on_c, 0, 62, 0
1, 18707, Note_on_c, 0, 65, 0
1, 18720, Note_on_c, 0, 76, 80
1, 18947, Note_on_c, 0, 76, 0
1, 18960, Note_on_c, 0, 84, 80
1, 19187, Note_on_c, 0, 84, 0
1, 19200, Note_on_c, 0, 83, 80
1, 19427, Note_on_c, 0, 83, 0
1, 19440, Note_on_c, 0, 81, 80
1, 19667, Note_on_c, 0, 81, 0
1, 19680, Note_on_c, 0, 79, 80
1, 20135, Note_on_c, 0, 79, 0
1, 20400, Note_on_c, 0, 84, 80
1, 20513, Note_on_c, 0, 84, 0
1, 20520, Note_on_c, 0, 83, 80
1, 20633, Note_on_c, 0, 83, 0
1, 20640, Note_on_c, 0, 81, 80
1, 20867, Note_on_c, 0, 81, 0
1, 20880, Note_on_c, 0, 79, 80
1, 21107, Note_on_c, 0, 79, 0
1, 21120, Note_on_c, 0, 74, 80
1, 21233, Note_on_c, 0, 74, 0
1, 21240, Note_on_c, 0, 76, 80
1, 21353, Note_on_c, 0, 76, 0
1, 21360, Note_on_c, 0, 77, 80
1, 21587, Note_on_c, 0, 77, 0
1, 21600, Note_on_c, 0, 79, 80
1, 22055, Note_on_c, 0, 79, 0
1, 22320, Note_on_c, 0, 74, 80
1, 22547, Note_on_c, 0, 74, 0
1, 22560, Note_on_c, 0, 72, 80
1, 23015, Note_on_c, 0, 72, 0
1, 23520, Note_on_c, 0, 79, 80
1, 23747, Note_on_c, 0, 79, 0
1, 23760, Note_on_c, 0, 79, 80
1, 23987, Note_on_c, 0, 79, 0
1, 24000, Note_on_c, 0, 79, 80
1, 24455, Note_on_c, 0, 79, 0
1, 24720, Note_on_c, 0, 79, 80
1, 24833, Note_on_c, 0, 79, 0
1, 24840, Note_on_c, 0, 77, 80
1, 24953, Note_on_c, 0, 77, 0
1, 24960, Note_on_c, 0, 76, 80
1, 25187, Note_on_c, 0, 76, 0
1, 25200, Note_on_c, 0, 76, 80
1, 25313, Note_on_c, 0, 76, 0
1, 25320, Note_on_c, 0, 77, 80
1, 25433, Note_on_c, 0, 77, 0
1, 25440, Note_on_c, 0, 79, 80
1, 25667, Note_on_c, 0, 79, 0
1, 25680, Note_on_c, 0, 76, 80
1, 25907, Note_on_c, 0, 76, 0
1, 25920, Note_on_c, 0, 74, 80
1, 26375, Note_on_c, 0, 74, 0
1, 26400, Note_on_c, 0, 72, 80
1, 26627, Note_on_c, 0, 72, 0
1, 26640, Note_on_c, 0, 74, 80
1, 26867, Note_on_c, 0, 74, 0
1, 26880, Note_on_c, 0, 76, 80
1, 27107, Note_on_c, 0, 76, 0
1, 27120, Note_on_c, 0, 72, 80
1, 27347, Note_on_c, 0, 72, 0
1, 27360, Note_on_c, 0, 67, 80
1, 27815, Note_on_c, 0, 67, 0
1, 31200, Note_on_c, 0, 79, 80
1, 31427, Note_on_c, 0, 79, 0
1, 31440, Note_on_c, 0, 81, 80
1, 31667, Note_on_c, 0, 81, 0
1, 31680, Note_on_c, 0, 79, 80
1, 32135, Note_on_c, 0, 79, 0
1, 32400, Note_on_c, 0, 76, 80
1, 32513, Note_on_c, 0, 76, 0
1, 32520, Note_on_c, 0, 77, 80
1, 32633, Note_on_c, 0, 77, 0
1, 32640, Note_on_c, 0, 79, 80
1, 32867, Note_on_c, 0, 79, 0
1, 32880, Note_on_c, 0, 77, 80
1, 32993, Note_on_c, 0, 77, 0
1, 33000, Note_on_c, 0, 76, 80
1, 33113, Note_on_c, 0, 76, 0
1, 33120, Note_on_c, 0, 74, 80
1, 33347, Note_on_c, 0, 74, 0
1, 33360, Note_on_c, 0, 69, 80
1, 33587, Note_on_c, 0, 69, 0
1, 33600, Note_on_c, 0, 67, 80
1, 33827, Note_on_c, 0, 67, 0
1, 33840, Note_on_c, 0, 65, 80
1, 34067, Note_on_c, 0, 65, 0
1, 34320, Note_on_c, 0, 69, 80
1, 34547, Note_on_c, 0, 69, 0
1, 34560, Note_on_c, 0, 67, 80
1, 34787, Note_on_c, 0, 67, 0
1, 34800, Note_on_c, 0, 76, 80
1, 35027, Note_on_c, 0, 76, 0
1, 35040, Note_on_c, 0, 72, 80
1, 35495, Note_on_c, 0, 72, 0
1, 38880, Note_on_c, 0, 79, 80
1, 39107, Note_on_c, 0, 79, 0
1, 39120, Note_on_c, 0, 79, 80
1, 39347, Note_on_c, 0, 79, 0
1, 39360, Note_on_c, 0, 79, 80
1, 39815, Note_on_c, 0, 79, 0
1, 40080, Note_on_c, 0, 79, 80
1, 40193, Note_on_c, 0, 79, 0
1, 40200, Note_on_c, 0, 77, 80
1, 40313, Note_on_c, 0, 77, 0
1, 40320, Note_on_c, 0, 76, 80
1, 40547, Note_on_c, 0, 76, 0
1, 40560, Note_on_c, 0, 76, 80
1, 40673, Note_on_c, 0, 76, 0
1, 40680, Note_on_c, 0, 77, 80
1, 40793, Note_on_c, 0, 77, 0
1, 40800, Note_on_c, 0, 79, 80
1, 41027, Note_on_c, 0, 79, 0
1, 41040, Note_on_c, 0, 76, 80
1, 41267, Note_on_c, 0, 76, 0
1, 41280, Note_on_c, 0, 74, 80
1, 41735, Note_on_c, 0, 74, 0
1, 41760, Note_on_c, 0, 72, 80
1, 41987, Note_on_c, 0, 72, 0
1, 42000, Note_on_c, 0, 74, 80
1, 42227, Note_on_c, 0, 74, 0
1, 42240, Note_on_c, 0, 76, 80
1, 42467, Note_on_c, 0, 76, 0
1, 42480, Note_on_c, 0, 72, 80
1, 42707, Note_on_c, 0, 72, 0
1, 42720, Note_on_c, 0, 67, 80
1, 43175, Note_on_c, 0, 67, 0
1, 46560, Note_on_c, 0, 79, 80
1, 46787, Note_on_c, 0, 79, 0
1, 46800, Note_on_c, 0, 81, 80
1, 47027, Note_on_c, 0, 81, 0
1, 47040, Note_on_c, 0, 79, 80
1, 47495, Note_on_c, 0, 79, 0
1, 47760, Note_on_c, 0, 76, 80
1, 47873, Note_on_c, 0, 76, 0
1, 47880, Note_on_c, 0, 77, 80
1, 47993, Note_on_c, 0, 77, 0
1, 48000, Note_on_c, 0, 79, 80
1, 48227, Note_on_c, 0, 79, 0
1, 48240, Note_on_c, 0, 77, 80
1, 48353, Note_on_c, 0, 77, 0
1, 48360, Note_on_c, 0, 76, 80
1, 48473, Note_on_c, 0, 76, 0
1, 48480, Note_on_c, 0, 74, 80
1, 48707, Note_on_c, 0, 74, 0
1, 48720, Note_on_c, 0, 69, 80
1, 48947, Note_on_c, 0, 69, 0
1, 48960, Note_on_c, 0, 67, 80
1, 49187, Note_on_c, 0, 67, 0
1, 49200, Note_on_c, 0, 65, 80
1, 49427, Note_on_c, 0, 65, 0
1, 49680, Note_on_c, 0, 69, 80
1, 49907, Note_on_c, 0, 69, 0
1, 49920, Note_on_c, 0, 67, 80
1, 50147, Note_on_c, 0, 67, 0
1, 50160, Note_on_c, 0, 76, 80
1, 50387, Note_on_c, 0, 76, 0
1, 50400, Note_on_c, 0, 72, 80
1, 50855, Note_on_c, 0, 72, 0
1, 51840, Note_on_c, 0, 76, 80
1, 52295, Note_on_c, 0, 76, 0
1, 52320, Note_on_c, 0, 67, 80
1, 52547, Note_on_c, 0, 67, 0
1, 52560, Note_on_c, 0, 69, 80
1, 52673, Note_on_c, 0, 69, 0
1, 52680, Note_on_c, 0, 72, 80
1, 52793, Note_on_c, 0, 72, 0
1, 53040, Note_on_c, 0, 69, 80
1, 53267, Note_on_c, 0, 69, 0
1, 53280, Note_on_c, 0, 72, 80
1, 53393, Note_on_c, 0, 72, 0
1, 53400, Note_on_c, 0, 74, 80
1, 53513, Note_on_c, 0, 74, 0
1, 53520, Note_on_c, 0, 72, 80
1, 53747, Note_on_c, 0, 72, 0
1, 53760, Note_on_c, 0, 76, 80
1, 53987, Note_on_c, 0, 76, 0
1, 54000, Note_on_c, 0, 72, 80
1, 54227, Note_on_c, 0, 72, 0
1, 54240, Note_on_c, 0, 69, 80
1, 54467, Note_on_c, 0, 69, 0
1, 54480, Note_on_c, 0, 67, 80
1, 54707, Note_on_c, 0, 67, 0
1, 54720, Note_on_c, 0, 69, 80
1, 54947, Note_on_c, 0, 69, 0
1, 54960, Note_on_c, 0, 72, 80
1, 55187, Note_on_c, 0, 72, 0
1, 55200, Note_on_c, 0, 74, 80
1, 55427, Note_on_c, 0, 74, 0
1, 55440, Note_on_c, 0, 72, 80
1, 55667, Note_on_c, 0, 72, 0
1, 56160, Note_on_c, 0, 84, 80
1, 56273, Note_on_c, 0, 84, 0
1, 56280, Note_on_c, 0, 81, 80
1, 56393, Note_on_c, 0, 81, 0
1, 56400, Note_on_c, 0, 79, 80
1, 56627, Note_on_c, 0, 79, 0
1, 56640, Note_on_c, 0, 76, 80
1, 56867, Note_on_c, 0, 76, 0
1, 56880, Note_on_c, 0, 74, 80
1, 57107, Note_on_c, 0, 74, 0
1, 57120, Note_on_c, 0, 72, 80
1, 57347, Note_on_c, 0, 72, 0
1, 57360, Note_on_c, 0, 72, 80
1, 57473, Note_on_c, 0, 72, 0
1, 57480, Note_on_c, 0, 74, 80
1, 57593, Note_on_c, 0, 74, 0
1, 57600, Note_on_c, 0, 76, 80
1, 57827, Note_on_c, 0, 76, 0
1, 57840, Note_on_c, 0, 72, 80
1, 58067, Note_on_c, 0, 72, 0
1, 58080, Note_on_c, 0, 69, 80
1, 58307, Note_on_c, 0, 69, 0
1, 58320, Note_on_c, 0, 67, 80
1, 58547, Note_on_c, 0, 67, 0
1, 58560, Note_on_c, 0, 69, 80
1, 58787, Note_on_c, 0, 69, 0
1, 58800, Note_on_c, 0, 72, 80
1, 59027, Note_on_c, 0, 72, 0
1, 59040, Note_on_c, 0, 74, 80
1, 59267, Note_on_c, 0, 74, 0
1, 59280, Note_on_c, 0, 72, 80
1, 59507, Note_on_c, 0, 72, 0
1, 59520, Note_on_c, 0, 65, 80
1, 59520, Note_on_c, 0, 69, 80
1, 59975, Note_on_c, 0, 65, 0
1, 59975, Note_on_c, 0, 69, 0
1, 60240, Note_on_c, 0, 65, 80
1, 60467, Note_on_c, 0, 65, 0
1, 60720, Note_on_c, 0, 60, 80
1, 60720, Note_on_c, 0, 64, 80
1, 60720, Note_on_c, 0, 67, 80
1, 60947, Note_on_c, 0, 60, 0
1, 60947, Note_on_c, 0, 64, 0
1, 60947, Note_on_c, 0, 67, 0
1, 61200, Note_on_c, 0, 72, 80
1, 61313, Note_on_c, 0, 72, 0
1, 61320, Note_on_c, 0, 74, 80
1, 61433, Note_on_c, 0, 74, 0
1, 61440, Note_on_c, 0, 76, 80
1, 61667, Note_on_c, 0, 76, 0
1, 61680, Note_on_c, 0, 72, 80
1, 61907, Note_on_c, 0, 72, 0
1, 61920, Note_on_c, 0, 69, 80
1, 62147, Note_on_c, 0, 69, 0
1, 62160, Note_on_c, 0, 67, 80
1, 62387, Note_on_c, 0, 67, 0
1, 62400, Note_on_c, 0, 69, 80
1, 62627, Note_on_c, 0, 69, 0
1, 62640, Note_on_c, 0, 72, 80
1, 62867, Note_on_c, 0, 72, 0
1, 62880, Note_on_c, 0, 74, 80
1, 63107, Note_on_c, 0, 74, 0
1, 63120, Note_on_c, 0, 72, 80
1, 63347, Note_on_c, 0, 72, 0
1, 63840, Note_on_c, 0, 84, 80
1, 63953, Note_on_c, 0, 84, 0
1, 63960, Note_on_c, 0, 81, 80
1, 64073, Note_on_c, 0, 81, 0
1, 64080, Note_on_c, 0, 79, 80
1, 64307, Note_on_c, 0, 79, 0
1, 64320, Note_on_c, 0, 76, 80
1, 64547, Note_on_c, 0, 76, 0
1, 64560, Note_on_c, 0, 74, 80
1, 64787, Note_on_c, 0, 74, 0
1, 64800, Note_on_c, 0, 72, 80
1, 65027, Note_on_c, 0, 72, 0
1, 65040, Note_on_c, 0, 72, 80
1, 65153, Note_on_c, 0, 72, 0
1, 65160, Note_on_c, 0, 74, 80
1, 65273, Note_on_c, 0, 74, 0
1, 65280, Note_on_c, 0, 76, 80
1, 65507, Note_on_c, 0, 76, 0
1, 65520, Note_on_c, 0, 72, 80
1, 65747, Note_on_c, 0, 72, 0
1, 65760, Note_on_c, 0, 69, 80
1, 65987, Note_on_c, 0, 69, 0
1, 66000, Note_on_c, 0, 67, 80
1, 66227, Note_on_c, 0, 67, 0
1, 66240, Note_on_c, 0, 69, 80
1, 66467, Note_on_c, 0, 69, 0
1, 66480, Note_on_c, 0, 72, 80
1, 66707, Note_on_c, 0, 72, 0
1, 66720, Note_on_c, 0, 74, 80
1, 66947, Note_on_c, 0, 74, 0
1, 66960, Note_on_c, 0, 72, 80
1, 67187, Note_on_c, 0, 72, 0
1, 67200, Note_on_c, 0, 60, 80
1, 67200, Note_on_c, 0, 65, 80
1, 67200, Note_on_c, 0, 69, 80
1, 67439, Note_on_c, 0, 60, 0
1, 67439, Note_on_c, 0, 65, 0
1, 67439, Note_on_c, 0, 69, 0
1, 67920, Note_on_c, 0, 57, 80
1, 67920, Note_on_c, 0, 60, 80
1, 67920, Note_on_c, 0, 65, 80
1, 68147, Note_on_c, 0, 57, 0
1, 68147, Note_on_c, 0, 60, 0
1, 68147, Note_on_c, 0, 65, 0
1, 68880, Note_on_c, 0, 72, 80
1, 68993, Note_on_c, 0, 72, 0
1, 69000, Note_on_c, 0, 74, 80
1, 69113, Note_on_c, 0, 74, 0
1, 69120, Note_on_c, 0, 76, 80
1, 69347, Note_on_c, 0, 76, 0
1, 69360, Note_on_c, 0, 72, 80
1, 69587, Note_on_c, 0, 72, 0
1, 69600, Note_on_c, 0, 69, 80
1, 69827, Note_on_c, 0, 69, 0
1, 69840, Note_on_c, 0, 67, 80
1, 70067, Note_on_c, 0, 67, 0
1, 70080, Note_on_c, 0, 69, 80
1, 70307, Note_on_c, 0, 69, 0
1, 70320, Note_on_c, 0, 72, 80
1, 70547, Note_on_c, 0, 72, 0
1, 70560, Note_on_c, 0, 74, 80
1, 70787, Note_on_c, 0, 74, 0
1, 70800, Note_on_c, 0, 72, 80
1, 71027, Note_on_c, 0, 72, 0
1, 71520, Note_on_c, 0, 84, 80
1, 71633, Note_on_c, 0, 84, 0
1, 71640, Note_on_c, 0, 81, 80
1, 71753, Note_on_c, 0, 81, 0
1, 71760, Note_on_c, 0, 79, 80
1, 71987, Note_on_c, 0, 79, 0
1, 72000, Note_on_c, 0, 76, 80
1, 72227, Note_on_c, 0, 76, 0
1, 72240, Note_on_c, 0, 74, 80
1, 72467, Note_on_c, 0, 74, 0
1, 72480, Note_on_c, 0, 72, 80
1, 72707, Note_on_c, 0, 72, 0
1, 72720, Note_on_c, 0, 72, 80
1, 72833, Note_on_c, 0, 72, 0
1, 72840, Note_on_c, 0, 74, 80
1, 72953, Note_on_c, 0, 74, 0
1, 72960, Note_on_c, 0, 76, 80
1, 73187, Note_on_c, 0, 76, 0
1, 73200, Note_on_c, 0, 72, 80
1, 73427, Note_on_c, 0, 72, 0
1, 73440, Note_on_c, 0, 69, 80
1, 73667, Note_on_c, 0, 69, 0
1, 73680, Note_on_c, 0, 67, 80
1, 73907, Note_on_c, 0, 67, 0
1, 73920, Note_on_c, 0, 69, 80
1, 74147, Note_on_c, 0, 69, 0
1, 74160, Note_on_c, 0, 72, 80
1, 74387, Note_on_c, 0, 72, 0
1, 74400, Note_on_c, 0, 74, 80
1, 74627, Note_on_c, 0, 74, 0
1, 74640, Note_on_c, 0, 72, 80
1, 74867, Note_on_c, 0, 72, 0
1, 74880, Note_on_c, 0, 65, 80
1, 74880, Note_on_c, 0, 69, 80
1, 75335, Note_on_c, 0, 65, 0
1, 75335, Note_on_c, 0, 69, 0
1, 75600, Note_on_c, 0, 65, 80
1, 75827, Note_on_c, 0, 65, 0
1, 76080, Note_on_c, 0, 60, 80
1, 76080, Note_on_c, 0, 64, 80
1, 76080, Note_on_c, 0, 67, 80
1, 76307, Note_on_c, 0, 60, 0
1, 76307, Note_on_c, 0, 64, 0
1, 76307, Note_on_c, 0, 67, 0
1, 76560, Note_on_c, 0, 72, 80
1, 76673, Note_on_c, 0, 72, 0
1, 76680, Note_on_c, 0, 74, 80
1, 76793, Note_on_c, 0, 74, 0
1, 76800, Note_on_c, 0, 76, 80
1, 77027, Note_on_c, 0, 76, 0
1, 77040, Note_on_c, 0, 72, 80
1, 77267, Note_on_c, 0, 72, 0
1, 77280, Note_on_c, 0, 69, 80
1, 77507, Note_on_c, 0, 69, 0
1, 77520, Note_on_c, 0, 67, 80
1, 77747, Note_on_c, 0, 67, 0
1, 77760, Note_on_c, 0, 69, 80
1, 77987, Note_on_c, 0, 69, 0
1, 78000, Note_on_c, 0, 72, 80
1, 78227, Note_on_c, 0, 72, 0
1, 78240, Note_on_c, 0, 74, 80
1, 78467, Note_on_c, 0, 74, 0
1, 78480, Note_on_c, 0, 72, 80
1, 78707, Note_on_c, 0, 72, 0
1, 79200, Note_on_c, 0, 84, 80
1, 79313, Note_on_c, 0, 84, 0
1, 79320, Note_on_c, 0, 81, 80
1, 79433, Note_on_c, 0, 81, 0
1, 79440, Note_on_c, 0, 79, 80
1, 79667, Note_on_c, 0, 79, 0
1, 79680, Note_on_c, 0, 76, 80
1, 79907, Note_on_c, 0, 76, 0
1, 79920, Note_on_c, 0, 74, 80
1, 80147, Note_on_c, 0, 74, 0
1, 80160, Note_on_c, 0, 72, 80
1, 80387, Note_on_c, 0, 72, 0
1, 80400, Note_on_c, 0, 72, 80
1, 80513, Note_on_c, 0, 72, 0
1, 80520, Note_on_c, 0, 74, 80
1, 80633, Note_on_c, 0, 74, 0
1, 80640, Note_on_c, 0, 76, 80
1, 80867, Note_on_c, 0, 76, 0
1, 80880, Note_on_c, 0, 72, 80
1, 81107, Note_on_c, 0, 72, 0
1, 81120, Note_on_c, 0, 69, 80
1, 81347, Note_on_c, 0, 69, 0
1, 81360, Note_on_c, 0, 67, 80
1, 81587, Note_on_c, 0, 67, 0
1, 81600, Note_on_c, 0, 69, 80
1, 81827, Note_on_c, 0, 69, 0
1, 81840, Note_on_c, 0, 72, 80
1, 82067, Note_on_c, 0, 72, 0
1, 82080, Note_on_c, 0, 74, 80
1, 82307, Note_on_c, 0, 74, 0
1, 82320, Note_on_c, 0, 72, 80
1, 82547, Note_on_c, 0, 72, 0
1, 82560, Note_on_c, 0, 60, 80
1, 82560, Note_on_c, 0, 65, 80
1, 82560, Note_on_c, 0, 69, 80
1, 82799, Note_on_c, 0, 60, 0
1, 82799, Note_on_c, 0, 65, 0
1, 82799, Note_on_c, 0, 69, 0
1, 83280, Note_on_c, 0, 57, 80
1, 83280, Note_on_c, 0, 60, 80
1, 83280, Note_on_c, 0, 65, 80
1, 83507, Note_on_c, 0, 57, 0
1, 83507, Note_on_c, 0, 60, 0
1, 83507, Note_on_c, 0, 65, 0
1, 86400, Note_on_c, 0, 79, 80
1, 86855, Note_on_c, 0, 79, 0
1, 86880, Note_on_c, 0, 76, 80
1, 87335, Note_on_c, 0, 76, 0
1, 87360, Note_on_c, 0, 77, 80
1, 87815, Note_on_c, 0, 77, 0
1, 87840, Note_on_c, 0, 74, 80
1, 88295, Note_on_c, 0, 74, 0
1, 88320, Note_on_c, 0, 76, 80
1, 88775, Note_on_c, 0, 76, 0
1, 88800, Note_on_c, 0, 72, 80
1, 89255, Note_on_c, 0, 72, 0
1, 89280, Note_on_c, 0, 74, 80
1, 89735, Note_on_c, 0, 74, 0
1, 89760, Note_on_c, 0, 69, 80
1, 90101, Note_on_c, 0, 69, 0
1, 90120, Note_on_c, 0, 65, 80
1, 90233, Note_on_c, 0, 65, 0
1, 90240, Note_on_c, 0, 67, 80
1, 90695, Note_on_c, 0, 67, 0
1, 90720, Note_on_c, 0, 64, 80
1, 91061, Note_on_c, 0, 64, 0
1, 91080, Note_on_c, 0, 65, 80
1, 91193, Note_on_c, 0, 65, 0
1, 91200, Note_on_c, 0, 67, 80
1, 91655, Note_on_c, 0, 67, 0
1, 91680, Note_on_c, 0, 81, 80
1, 92135, Note_on_c, 0, 81, 0
1, 92160, Note_on_c, 0, 79, 80
1, 92615, Note_on_c, 0, 79, 0
1, 94080, Note_on_c, 0, 79, 80
1, 94535, Note_on_c, 0, 79, 0
1, 94560, Note_on_c, 0, 76, 80
1, 95015, Note_on_c, 0, 76, 0
1, 95040, Note_on_c, 0, 77, 80
1, 95495, Note_on_c, 0, 77, 0
1, 95520, Note_on_c, 0, 74, 80
1, 95975, Note_on_c, 0, 74, 0
1, 96000, Note_on_c, 0, 76, 80
1, 96455, Note_on_c, 0, 76, 0
1, 96480, Note_on_c, 0, 72, 80
1, 96935, Note_on_c, 0, 72, 0
1, 96960, Note_on_c, 0, 74, 80
1, 97415, Note_on_c, 0, 74, 0
1, 97440, Note_on_c, 0, 69, 80
1, 97781, Note_on_c, 0, 69, 0
1, 97800, Note_on_c, 0, 65, 80
1, 97913, Note_on_c, 0, 65, 0
1, 97920, Note_on_c, 0, 67, 80
1, 98375, Note_on_c, 0, 67, 0
1, 98400, Note_on_c, 0, 64, 80
1, 98741, Note_on_c, 0, 64, 0
1, 98760, Note_on_c, 0, 65, 80
1, 98873, Note_on_c, 0, 65, 0
1, 98880, Note_on_c, 0, 67, 80
1, 99335, Note_on_c, 0, 67, 0
1, 99360, Note_on_c, 0, 81, 80
1, 99815, Note_on_c, 0, 81, 0
1, 99840, Note_on_c, 0, 79, 80
1, 100295, Note_on_c, 0, 79, 0
1, 101760, Note_on_c, 0, 79, 80
1, 102215, Note_on_c, 0, 79, 0
1, 102240, Note_on_c, 0, 76, 80
1, 102695, Note_on_c, 0, 76, 0
1, 102720, Note_on_c, 0, 77, 80
1, 103175, Note_on_c, 0, 77, 0
1, 103200, Note_on_c, 0, 74, 80
1, 103655, Note_on_c, 0, 74, 0
1, 103680, Note_on_c, 0, 76, 80
1, 104135, Note_on_c, 0, 76, 0
1, 104160, Note_on_c, 0, 72, 80
1, 104615, Note_on_c, 0, 72, 0
1, 104640, Note_on_c, 0, 74, 80
1, 105095, Note_on_c, 0, 74, 0
1, 105120, Note_on_c, 0, 69, 80
1, 105461, Note_on_c, 0, 69, 0
1, 105480, Note_on_c, 0, 65, 80
1, 105593, Note_on_c, 0, 65, 0
1, 105600, Note_on_c, 0, 67, 80
1, 106055, Note_on_c, 0, 67, 0
1, 106080, Note_on_c, 0, 64, 80
1, 106421, Note_on_c, 0, 64, 0
1, 106440, Note_on_c, 0, 65, 80
1, 106553, Note_on_c, 0, 65, 0
1, 106560, Note_on_c, 0, 67, 80
1, 107015, Note_on_c, 0, 67, 0
1, 107040, Note_on_c, 0, 81, 80
1, 107495, Note_on_c, 0, 81, 0
1, 107520, Note_on_c, 0, 79, 80
1, 107975, Note_on_c, 0, 79, 0
1, 109440, Note_on_c, 0, 79, 80
1, 109895, Note_on_c, 0, 79, 0
1, 109920, Note_on_c, 0, 76, 80
1, 110375, Note_on_c, 0, 76, 0
1, 110400, Note_on_c, 0, 77, 80
1, 110855, Note_on_c, 0, 77, 0
1, 110880, Note_on_c, 0, 74, 80
1, 111335, Note_on_c, 0, 74, 0
1, 111360, Note_on_c, 0, 76, 80
1, 111815, Note_on_c, 0, 76, 0
1, 111840, Note_on_c, 0, 72, 80
1, 112295, Note_on_c, 0, 72, 0
1, 112320, Note_on_c, 0, 74, 80
1, 112775, Note_on_c, 0, 74, 0
1, 112800, Note_on_c, 0, 69, 80
1, 113141, Note_on_c, 0, 69, 0
1, 113160, Note_on_c, 0, 65, 80
1, 113273, Note_on_c, 0, 65, 0
1, 113280, Note_on_c, 0, 67, 80
1, 113735, Note_on_c, 0, 67, 0
1, 113760, Note_on_c, 0, 64, 80
1, 114101, Note_on_c, 0, 64, 0
1, 114120, Note_on_c, 0, 65, 80
1, 114233, Note_on_c, 0, 65, 0
1, 114240, Note_on_c, 0, 67, 80
1, 114695, Note_on_c, 0, 67, 0
1, 114720, Note_on_c, 0, 81, 80
1, 115175, Note_on_c, 0, 81, 0
1, 115200, Note_on_c, 0, 79, 80
1, 116111, Note_on_c, 0, 79, 0
1, 117120, Note_on_c, 0, 79, 80
1, 117575, Note_on_c, 0, 79, 0
1, 117600, Note_on_c, 0, 76, 80
1, 118055, Note_on_c, 0, 76, 0
1, 118080, Note_on_c, 0, 77, 80
1, 118535, Note_on_c, 0, 77, 0
1, 118560, Note_on_c, 0, 74, 80
1, 119015, Note_on_c, 0, 74, 0
1, 119040, Note_on_c, 0, 76, 80
1, 119495, Note_on_c, 0, 76, 0
1, 119520, Note_on_c, 0, 72, 80
1, 119975, Note_on_c, 0, 72, 0
1, 120000, Note_on_c, 0, 74, 80
1, 120455, Note_on_c, 0, 74, 0
1, 120480, Note_on_c, 0, 69, 80
1, 120821, Note_on_c, 0, 69, 0
1, 120840, Note_on_c, 0, 65, 80
1, 120953, Note_on_c, 0, 65, 0
1, 120960, Note_on_c, 0, 67, 80
1, 121415, Note_on_c, 0, 67, 0
1, 121440, Note_on_c, 0, 64, 80
1, 121781, Note_on_c, 0, 64, 0
1, 121800, Note_on_c, 0, 65, 80
1, 121913, Note_on_c, 0, 65, 0
1, 121920, Note_on_c, 0, 67, 80
1, 122375, Note_on_c, 0, 67, 0
1, 122400, Note_on_c, 0, 81, 80
1, 122855, Note_on_c, 0, 81, 0
1, 122880, Note_on_c, 0, 79, 80
1, 123791, Note_on_c, 0, 79, 0
1, 124800, Note_on_c, 0, 79, 80
1, 125255, Note_on_c, 0, 79, 0
1, 125280, Note_on_c, 0, 76, 80
1, 125735, Note_on_c, 0, 76, 0
1, 125760, Note_on_c, 0, 77, 80
1, 126215, Note_on_c, 0, 77, 0
1, 126240, Note_on_c, 0, 74, 80
1, 126695, Note_on_c, 0, 74, 0
1, 126720, Note_on_c, 0, 76, 80
1, 127175, Note_on_c, 0, 76, 0
1, 127200, Note_on_c, 0, 72, 80
1, 127655, Note_on_c, 0, 72, 0
1, 127680, Note_on_c, 0, 74, 80
1, 128135, Note_on_c, 0, 74, 0
1, 128160, Note_on_c, 0, 69, 80
1, 128501, Note_on_c, 0, 69, 0
1, 128520, Note_on_c, 0, 65, 80
1, 128633, Note_on_c, 0, 65, 0
1, 128640, Note_on_c, 0, 67, 80
1, 129095, Note_on_c, 0, 67, 0
1, 129120, Note_on_c, 0, 64, 80
1, 129461, Note_on_c, 0, 64, 0
1, 129480, Note_on_c, 0, 65, 80
1, 129593, Note_on_c, 0, 65, 0
1, 129600, Note_on_c, 0, 67, 80
1, 130055, Note_on_c, 0, 67, 0
1, 130080, Note_on_c, 0, 81, 80
1, 130535, Note_on_c, 0, 81, 0
1, 130560, Note_on_c, 0, 79, 80
1, 131471, Note_on_c, 0, 79, 0
1, 131472, End_track
2, 0, Start_track
2, 0, Title_t, "Piano, Piano\000"
2, 0, Key_signature, 0, "major"
2, 0, MIDI_port, 2
2, 0, Note_on_c, 0, 48, 80
2, 0, Note_on_c, 0, 55, 80
2, 0, Note_on_c, 0, 60, 80
2, 0, Note_on_c, 0, 64, 80
2, 455, Note_on_c, 0, 48, 0
2, 455, Note_on_c, 0, 55, 0
2, 455, Note_on_c, 0, 60, 0
2, 455, Note_on_c, 0, 64, 0
2, 1920, Note_on_c, 0, 48, 80
2, 1920, Note_on_c, 0, 55, 80
2, 1920, Note_on_c, 0, 60, 80
2, 1920, Note_on_c, 0, 64, 80
2, 2375, Note_on_c, 0, 48, 0
2, 2375, Note_on_c, 0, 55, 0
2, 2375, Note_on_c, 0, 60, 0
2, 2375, Note_on_c, 0, 64, 0
2, 2400, Note_on_c, 0, 48, 80
2, 2400, Note_on_c, 0, 55, 80
2, 2400, Note_on_c, 0, 60, 80
2, 2400, Note_on_c, 0, 64, 80
2, 2855, Note_on_c, 0, 48, 0
2, 2855, Note_on_c, 0, 55, 0
2, 2855, Note_on_c, 0, 60, 0
2, 2855, Note_on_c, 0, 64, 0
2, 2880, Note_on_c, 0, 48, 80
2, 3107, Note_on_c, 0, 48, 0
2, 3120, Note_on_c, 0, 50, 80
2, 3120, Note_on_c, 0, 53, 80
2, 3120, Note_on_c, 0, 57, 80
2, 3803, Note_on_c, 0, 50, 0
2, 3803, Note_on_c, 0, 53, 0
2, 3803, Note_on_c, 0, 57, 0
2, 3840, Note_on_c, 0, 53, 80
2, 3840, Note_on_c, 0, 57, 80
2, 3840, Note_on_c, 0, 60, 80
2, 4295, Note_on_c, 0, 53, 0
2, 4295, Note_on_c, 0, 57, 0
2, 4295, Note_on_c, 0, 60, 0
2, 5760, Note_on_c, 0, 50, 80
2, 5760, Note_on_c, 0, 53, 80
2, 5760, Note_on_c, 0, 57, 80
2, 5760, Note_on_c, 0, 60, 80
2, 6215, Note_on_c, 0, 50, 0
2, 6215, Note_on_c, 0, 53, 0
2, 6215, Note_on_c, 0, 57, 0
2, 6215, Note_on_c, 0, 60, 0
2, 6960, Note_on_c, 0, 52, 80
2, 6960, Note_on_c, 0, 55, 80
2, 6960, Note_on_c, 0, 60, 80
2, 7187, Note_on_c, 0, 52, 0
2, 7187, Note_on_c, 0, 55, 0
2, 7187, Note_on_c, 0, 60, 0
2, 7200, Note_on_c, 0, 55, 80
2, 7427, Note_on_c, 0, 55, 0
2, 7440, Note_on_c, 0, 48, 80
2, 7667, Note_on_c, 0, 48, 0
2, 7680, Note_on_c, 0, 48, 80
2, 7680, Note_on_c, 0, 55, 80
2, 7680, Note_on_c, 0, 60, 80
2, 7680, Note_on_c, 0, 64, 80
2, 8135, Note_on_c, 0, 48, 0
2, 8135, Note_on_c, 0, 55, 0
2, 8135, Note_on_c, 0, 60, 0
2, 8135, Note_on_c, 0, 64, 0
2, 9600, Note_on_c, 0, 48, 80
2, 9600, Note_on_c, 0, 55, 80
2, 9600, Note_on_c, 0, 60, 80
2, 9600, Note_on_c, 0, 64, 80
2, 10055, Note_on_c, 0, 48, 0
2, 10055, Note_on_c, 0, 55, 0
2, 10055, Note_on_c, 0, 60, 0
2, 10055, Note_on_c, 0, 64, 0
2, 10080, Note_on_c, 0, 48, 80
2, 10080, Note_on_c, 0, 55, 80
2, 10080, Note_on_c, 0, 60, 80
2, 10080, Note_on_c, 0, 64, 80
2, 10535, Note_on_c, 0, 48, 0
2, 10535, Note_on_c, 0, 55, 0
2, 10535, Note_on_c, 0, 60, 0
2, 10535, Note_on_c, 0, 64, 0
2, 10560, Note_on_c, 0, 48, 80
2, 10787, Note_on_c, 0, 48, 0
2, 10800, Note_on_c, 0, 50, 80
2, 10800, Note_on_c, 0, 53, 80
2, 10800, Note_on_c, 0, 57, 80
2, 11483, Note_on_c, 0, 50, 0
2, 11483, Note_on_c, 0, 53, 0
2, 11483, Note_on_c, 0, 57, 0
2, 11520, Note_on_c, 0, 53, 80
2, 11520, Note_on_c, 0, 57, 80
2, 11520, Note_on_c, 0, 60, 80
2, 11975, Note_on_c, 0, 53, 0
2, 11975, Note_on_c, 0, 57, 0
2, 11975, Note_on_c, 0, 60, 0
2, 13440, Note_on_c, 0, 50, 80
2, 13440, Note_on_c, 0, 57, 80
2, 13440, Note_on_c, 0, 60, 80
2, 13440, Note_on_c, 0, 65, 80
2, 13895, Note_on_c, 0, 50, 0
2, 13895, Note_on_c, 0, 57, 0
2, 13895, Note_on_c, 0, 60, 0
2, 13895, Note_on_c, 0, 65, 0
2, 14640, Note_on_c, 0, 52, 80
2, 14640, Note_on_c, 0, 55, 80
2, 14640, Note_on_c, 0, 60, 80
2, 14640, Note_on_c, 0, 64, 80
2, 14867, Note_on_c, 0, 52, 0
2, 14867, Note_on_c, 0, 55, 0
2, 14867, Note_on_c, 0, 60, 0
2, 14867, Note_on_c, 0, 64, 0
2, 14880, Note_on_c, 0, 55, 80
2, 15107, Note_on_c, 0, 55, 0
2, 15120, Note_on_c, 0, 48, 80
2, 15347, Note_on_c, 0, 48, 0
2, 15360, Note_on_c, 0, 48, 80
2, 15360, Note_on_c, 0, 55, 80
2, 15360, Note_on_c, 0, 60, 80
2, 15360, Note_on_c, 0, 64, 80
2, 15815, Note_on_c, 0, 48, 0
2, 15815, Note_on_c, 0, 55, 0
2, 15815, Note_on_c, 0, 60, 0
2, 15815, Note_on_c, 0, 64, 0
2, 17280, Note_on_c, 0, 48, 80
2, 17280, Note_on_c, 0, 55, 80
2, 17280, Note_on_c, 0, 60, 80
2, 17735, Note_on_c, 0, 48, 0
2, 17735, Note_on_c, 0, 55, 0
2, 17735, Note_on_c, 0, 60, 0
2, 17760, Note_on_c, 0, 48, 80
2, 17760, Note_on_c, 0, 55, 80
2, 17760, Note_on_c, 0, 60, 80
2, 18215, Note_on_c, 0, 48, 0
2, 18215, Note_on_c, 0, 55, 0
2, 18215, Note_on_c, 0, 60, 0
2, 18240, Note_on_c, 0, 48, 80
2, 18467, Note_on_c, 0, 48, 0
2, 18480, Note_on_c, 0, 50, 80
2, 18480, Note_on_c, 0, 53, 80
2, 18480, Note_on_c, 0, 57, 80
2, 19163, Note_on_c, 0, 50, 0
2, 19163, Note_on_c, 0, 53, 0
2, 19163, Note_on_c, 0, 57, 0
2, 19200, Note_on_c, 0, 57, 80
2, 19200, Note_on_c, 0, 60, 80
2, 19200, Note_on_c, 0, 65, 80
2, 19655, Note_on_c, 0, 57, 0
2, 19655, Note_on_c, 0, 60, 0
2, 19655, Note_on_c, 0, 65, 0
2, 21120, Note_on_c, 0, 50, 80
2, 21120, Note_on_c, 0, 57, 80
2, 21120, Note_on_c, 0, 60, 80
2, 21120, Note_on_c, 0, 65, 80
2, 21575, Note_on_c, 0, 50, 0
2, 21575, Note_on_c, 0, 57, 0
2, 21575, Note_on_c, 0, 60, 0
2, 21575, Note_on_c, 0, 65, 0
2, 22320, Note_on_c, 0, 52, 80
2, 22320, Note_on_c, 0, 55, 80
2, 22320, Note_on_c, 0, 60, 80
2, 22320, Note_on_c, 0, 64, 80
2, 22547, Note_on_c, 0, 52, 0
2, 22547, Note_on_c, 0, 55, 0
2, 22547, Note_on_c, 0, 60, 0
2, 22547, Note_on_c, 0, 64, 0
2, 22560, Note_on_c, 0, 55, 80
2, 22787, Note_on_c, 0, 55, 0
2, 22800, Note_on_c, 0, 48, 80
2, 23027, Note_on_c, 0, 48, 0
2, 23040, Note_on_c, 0, 48, 80
2, 23040, Note_on_c, 0, 55, 80
2, 23040, Note_on_c, 0, 60, 80
2, 23040, Note_on_c, 0, 64, 80
2, 23495, Note_on_c, 0, 48, 0
2, 23495, Note_on_c, 0, 55, 0
2, 23495, Note_on_c, 0, 60, 0
2, 23495, Note_on_c, 0, 64, 0
2, 24960, Note_on_c, 0, 48, 80
2, 24960, Note_on_c, 0, 55, 80
2, 24960, Note_on_c, 0, 60, 80
2, 24960, Note_on_c, 0, 64, 80
2, 25415, Note_on_c, 0, 48, 0
2, 25415, Note_on_c, 0, 55, 0
2, 25415, Note_on_c, 0, 60, 0
2, 25415, Note_on_c, 0, 64, 0
2, 25440, Note_on_c, 0, 48, 80
2, 25440, Note_on_c, 0, 55, 80
2, 25440, Note_on_c, 0, 60, 80
2, 25440, Note_on_c, 0, 64, 80
2, 25895, Note_on_c, 0, 48, 0
2, 25895, Note_on_c, 0, 55, 0
2, 25895, Note_on_c, 0, 60, 0
2, 25895, Note_on_c, 0, 64, 0
2, 25920, Note_on_c, 0, 48, 80
2, 26147, Note_on_c, 0, 48, 0
2, 26160, Note_on_c, 0, 50, 80
2, 26160, Note_on_c, 0, 53, 80
2, 26160, Note_on_c, 0, 57, 80
2, 26843, Note_on_c, 0, 50, 0
2, 26843, Note_on_c, 0, 53, 0
2, 26843, Note_on_c, 0, 57, 0
2, 26880, Note_on_c, 0, 53, 80
2, 26880, Note_on_c, 0, 57, 80
2, 26880, Note_on_c, 0, 60, 80
2, 27335, Note_on_c, 0, 53, 0
2, 27335, Note_on_c, 0, 57, 0
2, 27335, Note_on_c, 0, 60, 0
2, 28800, Note_on_c, 0, 50, 80
2, 28800, Note_on_c, 0, 57, 80
2, 28800, Note_on_c, 0, 60, 80
2, 28800, Note_on_c, 0, 65, 80
2, 29255, Note_on_c, 0, 50, 0
2, 29255, Note_on_c, 0, 57, 0
2, 29255, Note_on_c, 0, 60, 0
2, 29255, Note_on_c, 0, 65, 0
2, 30000, Note_on_c, 0, 52, 80
2, 30000, Note_on_c, 0, 55, 80
2, 30000, Note_on_c, 0, 60, 80
2, 30000, Note_on_c, 0, 64, 80
2, 30227, Note_on_c, 0, 52, 0
2, 30227, Note_on_c, 0, 55, 0
2, 30227, Note_on_c, 0, 60, 0
2, 30227, Note_on_c, 0, 64, 0
2, 30240, Note_on_c, 0, 55, 80
2, 30467, Note_on_c, 0, 55, 0
2, 30480, Note_on_c, 0, 48, 80
2, 30707, Note_on_c, 0, 48, 0
2, 30720, Note_on_c, 0, 48, 80
2, 30720, Note_on_c, 0, 55, 80
2, 30720, Note_on_c, 0, 60, 80
2, 30720, Note_on_c, 0, 64, 80
2, 31175, Note_on_c, 0, 48, 0
2, 31175, Note_on_c, 0, 55, 0
2, 31175, Note_on_c, 0, 60, 0
2, 31175, Note_on_c, 0, 64, 0
2, 32640, Note_on_c, 0, 48, 80
2, 32640, Note_on_c, 0, 55, 80
2, 32640, Note_on_c, 0, 60, 80
2, 32640, Note_on_c, 0, 64, 80
2, 33095, Note_on_c, 0, 48, 0
2, 33095, Note_on_c, 0, 55, 0
2, 33095, Note_on_c, 0, 60, 0
2, 33095, Note_on_c, 0, 64, 0
2, 33120, Note_on_c, 0, 48, 80
2, 33120, Note_on_c, 0, 55, 80
2, 33120, Note_on_c, 0, 60, 80
2, 33575, Note_on_c, 0, 48, 0
2, 33575, Note_on_c, 0, 55, 0
2, 33575, Note_on_c, 0, 60, 0
2, 33600, Note_on_c, 0, 48, 80
2, 33827, Note_on_c, 0, 48, 0
2, 33840, Note_on_c, 0, 50, 80
2, 33840, Note_on_c, 0, 53, 80
2, 33840, Note_on_c, 0, 57, 80
2, 34523, Note_on_c, 0, 50, 0
2, 34523, Note_on_c, 0, 53, 0
2, 34523, Note_on_c, 0, 57, 0
2, 34560, Note_on_c, 0, 53, 80
2, 34560, Note_on_c, 0, 57, 80
2, 34560, Note_on_c, 0, 60, 80
2, 35015, Note_on_c, 0, 53, 0
2, 35015, Note_on_c, 0, 57, 0
2, 35015, Note_on_c, 0, 60, 0
2, 36480, Note_on_c, 0, 50, 80
2, 36480, Note_on_c, 0, 57, 80
2, 36480, Note_on_c, 0, 60, 80
2, 36480, Note_on_c, 0, 65, 80
2, 36935, Note_on_c, 0, 50, 0
2, 36935, Note_on_c, 0, 57, 0
2, 36935, Note_on_c, 0, 60, 0
2, 36935, Note_on_c, 0, 65, 0
2, 37680, Note_on_c, 0, 52, 80
2, 37680, Note_on_c, 0, 55, 80
2, 37680, Note_on_c, 0, 60, 80
2, 37680, Note_on_c, 0, 64, 80
2, 37907, Note_on_c, 0, 52, 0
2, 37907, Note_on_c, 0, 55, 0
2, 37907, Note_on_c, 0, 60, 0
2, 37907, Note_on_c, 0, 64, 0
2, 37920, Note_on_c, 0, 55, 80
2, 38147, Note_on_c, 0, 55, 0
2, 38160, Note_on_c, 0, 48, 80
2, 38387, Note_on_c, 0, 48, 0
2, 38400, Note_on_c, 0, 48, 80
2, 38400, Note_on_c, 0, 55, 80
2, 38400, Note_on_c, 0, 60, 80
2, 38400, Note_on_c, 0, 64, 80
2, 38855, Note_on_c, 0, 48, 0
2, 38855, Note_on_c, 0, 55, 0
2, 38855, Note_on_c, 0, 60, 0
2, 38855, Note_on_c, 0, 64, 0
2, 40320, Note_on_c, 0, 48, 80
2, 40320, Note_on_c, 0, 55, 80
2, 40320, Note_on_c, 0, 60, 80
2, 40320, Note_on_c, 0, 64, 80
2, 40775, Note_on_c, 0, 48, 0
2, 40775, Note_on_c, 0, 55, 0
2, 40775, Note_on_c, 0, 60, 0
2, 40775, Note_on_c, 0, 64, 0
2, 40800, Note_on_c, 0, 48, 80
2, 40800, Note_on_c, 0, 55, 80
2, 40800, Note_on_c, 0, 60, 80
2, 41255, Note_on_c, 0, 48, 0
2, 41255, Note_on_c, 0, 55, 0
2, 41255, Note_on_c, 0, 60, 0
2, 41280, Note_on_c, 0, 48, 80
2, 41507, Note_on_c, 0, 48, 0
2, 41520, Note_on_c, 0, 50, 80
2, 41520, Note_on_c, 0, 53, 80
2, 41520, Note_on_c, 0, 57, 80
2, 42203, Note_on_c, 0, 50, 0
2, 42203, Note_on_c, 0, 53, 0
2, 42203, Note_on_c, 0, 57, 0
2, 42240, Note_on_c, 0, 53, 80
2, 42240, Note_on_c, 0, 57, 80
2, 42240, Note_on_c, 0, 60, 80
2, 42695, Note_on_c, 0, 53, 0
2, 42695, Note_on_c, 0, 57, 0
2, 42695, Note_on_c, 0, 60, 0
2, 44160, Note_on_c, 0, 50, 80
2, 44160, Note_on_c, 0, 57, 80
2, 44160, Note_on_c, 0, 60, 80
2, 44160, Note_on_c, 0, 65, 80
2, 44615, Note_on_c, 0, 50, 0
2, 44615, Note_on_c, 0, 57, 0
2, 44615, Note_on_c, 0, 60, 0
2, 44615, Note_on_c, 0, 65, 0
2, 45360, Note_on_c, 0, 52, 80
2, 45360, Note_on_c, 0, 55, 80
2, 45360, Note_on_c, 0, 60, 80
2, 45360, Note_on_c, 0, 64, 80
2, 45587, Note_on_c, 0, 52, 0
2, 45587, Note_on_c, 0, 55, 0
2, 45587, Note_on_c, 0, 60, 0
2, 45587, Note_on_c, 0, 64, 0
2, 45600, Note_on_c, 0, 55, 80
2, 45827, Note_on_c, 0, 55, 0
2, 45840, Note_on_c, 0, 48, 80
2, 46067, Note_on_c, 0, 48, 0
2, 46080, Note_on_c, 0, 48, 80
2, 46080, Note_on_c, 0, 55, 80
2, 46080, Note_on_c, 0, 60, 80
2, 46080, Note_on_c, 0, 64, 80
2, 46535, Note_on_c, 0, 48, 0
2, 46535, Note_on_c, 0, 55, 0
2, 46535, Note_on_c, 0, 60, 0
2, 46535, Note_on_c, 0, 64, 0
2, 48000, Note_on_c, 0, 48, 80
2, 48000, Note_on_c, 0, 55, 80
2, 48000, Note_on_c, 0, 60, 80
2, 48000, Note_on_c, 0, 64, 80
2, 48455, Note_on_c, 0, 48, 0
2, 48455, Note_on_c, 0, 55, 0
2, 48455, Note_on_c, 0, 60, 0
2, 48455, Note_on_c, 0, 64, 0
2, 48480, Note_on_c, 0, 48, 80
2, 48480, Note_on_c, 0, 55, 80
2, 48480, Note_on_c, 0, 60, 80
2, 48935, Note_on_c, 0, 48, 0
2, 48935, Note_on_c, 0, 55, 0
2, 48935, Note_on_c, 0, 60, 0
2, 48960, Note_on_c, 0, 48, 80
2, 49187, Note_on_c, 0, 48, 0
2, 49200, Note_on_c, 0, 50, 80
2, 49200, Note_on_c, 0, 53, 80
2, 49200, Note_on_c, 0, 57, 80
2, 49883, Note_on_c, 0, 50, 0
2, 49883, Note_on_c, 0, 53, 0
2, 49883, Note_on_c, 0, 57, 0
2, 49920, Note_on_c, 0, 53, 80
2, 49920, Note_on_c, 0, 57, 80
2, 49920, Note_on_c, 0, 60, 80
2, 50375, Note_on_c, 0, 53, 0
2, 50375, Note_on_c, 0, 57, 0
2, 50375, Note_on_c, 0, 60, 0
2, 51840, Note_on_c, 0, 50, 80
2, 51840, Note_on_c, 0, 57, 80
2, 51840, Note_on_c, 0, 60, 80
2, 51840, Note_on_c, 0, 65, 80
2, 52295, Note_on_c, 0, 50, 0
2, 52295, Note_on_c, 0, 57, 0
2, 52295, Note_on_c, 0, 60, 0
2, 52295, Note_on_c, 0, 65, 0
2, 53040, Note_on_c, 0, 52, 80
2, 53040, Note_on_c, 0, 55, 80
2, 53040, Note_on_c, 0, 60, 80
2, 53040, Note_on_c, 0, 64, 80
2, 53267, Note_on_c, 0, 52, 0
2, 53267, Note_on_c, 0, 55, 0
2, 53267, Note_on_c, 0, 60, 0
2, 53267, Note_on_c, 0, 64, 0
2, 53280, Note_on_c, 0, 55, 80
2, 53507, Note_on_c, 0, 55, 0
2, 53520, Note_on_c, 0, 48, 80
2, 53747, Note_on_c, 0, 48, 0
2, 53760, Note_on_c, 0, 60, 80
2, 53760, Note_on_c, 0, 64, 80
2, 53760, Note_on_c, 0, 67, 80
2, 54215, Note_on_c, 0, 60, 0
2, 54215, Note_on_c, 0, 64, 0
2, 54215, Note_on_c, 0, 67, 0
2, 54480, Note_on_c, 0, 60, 80
2, 54480, Note_on_c, 0, 64, 80
2, 54707, Note_on_c, 0, 60, 0
2, 54707, Note_on_c, 0, 64, 0
2, 54960, Note_on_c, 0, 60, 80
2, 54960, Note_on_c, 0, 64, 80
2, 54960, Note_on_c, 0, 67, 80
2, 55187, Note_on_c, 0, 60, 0
2, 55187, Note_on_c, 0, 64, 0
2, 55187, Note_on_c, 0, 67, 0
2, 55680, Note_on_c, 0, 57, 80
2, 55680, Note_on_c, 0, 60, 80
2, 55680, Note_on_c, 0, 64, 80
2, 55680, Note_on_c, 0, 67, 80
2, 56135, Note_on_c, 0, 57, 0
2, 56135, Note_on_c, 0, 60, 0
2, 56135, Note_on_c, 0, 64, 0
2, 56135, Note_on_c, 0, 67, 0
2, 56400, Note_on_c, 0, 48, 80
2, 56627, Note_on_c, 0, 48, 0
2, 56880, Note_on_c, 0, 57, 80
2, 56880, Note_on_c, 0, 60, 80
2, 57107, Note_on_c, 0, 57, 0
2, 57107, Note_on_c, 0, 60, 0
2, 57600, Note_on_c, 0, 57, 80
2, 57600, Note_on_c, 0, 60, 80
2, 57600, Note_on_c, 0, 64, 80
2, 58055, Note_on_c, 0, 57, 0
2, 58055, Note_on_c, 0, 60, 0
2, 58055, Note_on_c, 0, 64, 0
2, 58320, Note_on_c, 0, 57, 80
2, 58320, Note_on_c, 0, 60, 80
2, 58320, Note_on_c, 0, 64, 80
2, 58547, Note_on_c, 0, 57, 0
2, 58547, Note_on_c, 0, 60, 0
2, 58547, Note_on_c, 0, 64, 0
2, 58800, Note_on_c, 0, 57, 80
2, 58800, Note_on_c, 0, 60, 80
2, 58800, Note_on_c, 0, 64, 80
2, 59027, Note_on_c, 0, 57, 0
2, 59027, Note_on_c, 0, 60, 0
2, 59027, Note_on_c, 0, 64, 0
2, 59520, Note_on_c, 0, 50, 80
2, 59520, Note_on_c, 0, 57, 80
2, 59520, Note_on_c, 0, 60, 80
2, 59975, Note_on_c, 0, 50, 0
2, 59975, Note_on_c, 0, 57, 0
2, 59975, Note_on_c, 0, 60, 0
2, 60240, Note_on_c, 0, 50, 80
2, 60240, Note_on_c, 0, 57, 80
2, 60240, Note_on_c, 0, 60, 80
2, 60467, Note_on_c, 0, 50, 0
2, 60467, Note_on_c, 0, 57, 0
2, 60467, Note_on_c, 0, 60, 0
2, 60720, Note_on_c, 0, 52, 80
2, 60720, Note_on_c, 0, 55, 80
2, 60947, Note_on_c, 0, 52, 0
2, 60947, Note_on_c, 0, 55, 0
2, 61440, Note_on_c, 0, 60, 80
2, 61440, Note_on_c, 0, 64, 80
2, 61440, Note_on_c, 0, 67, 80
2, 61895, Note_on_c, 0, 60, 0
2, 61895, Note_on_c, 0, 64, 0
2, 61895, Note_on_c, 0, 67, 0
2, 62160, Note_on_c, 0, 60, 80
2, 62160, Note_on_c, 0, 64, 80
2, 62387, Note_on_c, 0, 60, 0
2, 62387, Note_on_c, 0, 64, 0
2, 62640, Note_on_c, 0, 60, 80
2, 62640, Note_on_c, 0, 64, 80
2, 62640, Note_on_c, 0, 67, 80
2, 62867, Note_on_c, 0, 60, 0
2, 62867, Note_on_c, 0, 64, 0
2, 62867, Note_on_c, 0, 67, 0
2, 63360, Note_on_c, 0, 57, 80
2, 63360, Note_on_c, 0, 60, 80
2, 63360, Note_on_c, 0, 64, 80
2, 63360, Note_on_c, 0, 67, 80
2, 63815, Note_on_c, 0, 57, 0
2, 63815, Note_on_c, 0, 60, 0
2, 63815, Note_on_c, 0, 64, 0
2, 63815, Note_on_c, 0, 67, 0
2, 64080, Note_on_c, 0, 48, 80
2, 64307, Note_on_c, 0, 48, 0
2, 64560, Note_on_c, 0, 57, 80
2, 64560, Note_on_c, 0, 60, 80
2, 64560, Note_on_c, 0, 65, 80
2, 64787, Note_on_c, 0, 57, 0
2, 64787, Note_on_c, 0, 60, 0
2, 64787, Note_on_c, 0, 65, 0
2, 65280, Note_on_c, 0, 57, 80
2, 65280, Note_on_c, 0, 60, 80
2, 65280, Note_on_c, 0, 64, 80
2, 65735, Note_on_c, 0, 57, 0
2, 65735, Note_on_c, 0, 60, 0
2, 65735, Note_on_c, 0, 64, 0
2, 66000, Note_on_c, 0, 57, 80
2, 66000, Note_on_c, 0, 60, 80
2, 66000, Note_on_c, 0, 64, 80
2, 66227, Note_on_c, 0, 57, 0
2, 66227, Note_on_c, 0, 60, 0
2, 66227, Note_on_c, 0, 64, 0
2, 66480, Note_on_c, 0, 57, 80
2, 66480, Note_on_c, 0, 60, 80
2, 66480, Note_on_c, 0, 64, 80
2, 66707, Note_on_c, 0, 57, 0
2, 66707, Note_on_c, 0, 60, 0
2, 66707, Note_on_c, 0, 64, 0
2, 67200, Note_on_c, 0, 50, 80
2, 67200, Note_on_c, 0, 57, 80
2, 67655, Note_on_c, 0, 50, 0
2, 67655, Note_on_c, 0, 57, 0
2, 67920, Note_on_c, 0, 50, 80
2, 68147, Note_on_c, 0, 50, 0
2, 69120, Note_on_c, 0, 60, 80
2, 69120, Note_on_c, 0, 64, 80
2, 69120, Note_on_c, 0, 67, 80
2, 69120, Note_on_c, 0, 72, 80
2, 69359, Note_on_c, 0, 60, 0
2, 69359, Note_on_c, 0, 64, 0
2, 69359, Note_on_c, 0, 67, 0
2, 69359, Note_on_c, 0, 72, 0
2, 69840, Note_on_c, 0, 60, 80
2, 69840, Note_on_c, 0, 64, 80
2, 70067, Note_on_c, 0, 60, 0
2, 70067, Note_on_c, 0, 64, 0
2, 70320, Note_on_c, 0, 60, 80
2, 70320, Note_on_c, 0, 64, 80
2, 70320, Note_on_c, 0, 67, 80
2, 70547, Note_on_c, 0, 60, 0
2, 70547, Note_on_c, 0, 64, 0
2, 70547, Note_on_c, 0, 67, 0
2, 71040, Note_on_c, 0, 57, 80
2, 71040, Note_on_c, 0, 60, 80
2, 71040, Note_on_c, 0, 64, 80
2, 71040, Note_on_c, 0, 67, 80
2, 71495, Note_on_c, 0, 57, 0
2, 71495, Note_on_c, 0, 60, 0
2, 71495, Note_on_c, 0, 64, 0
2, 71495, Note_on_c, 0, 67, 0
2, 72240, Note_on_c, 0, 57, 80
2, 72240, Note_on_c, 0, 62, 80
2, 72240, Note_on_c, 0, 65, 80
2, 72467, Note_on_c, 0, 57, 0
2, 72467, Note_on_c, 0, 62, 0
2, 72467, Note_on_c, 0, 65, 0
2, 72960, Note_on_c, 0, 57, 80
2, 72960, Note_on_c, 0, 60, 80
2, 72960, Note_on_c, 0, 64, 80
2, 73415, Note_on_c, 0, 57, 0
2, 73415, Note_on_c, 0, 60, 0
2, 73415, Note_on_c, 0, 64, 0
2, 73680, Note_on_c, 0, 57, 80
2, 73680, Note_on_c, 0, 60, 80
2, 73680, Note_on_c, 0, 64, 80
2, 73907, Note_on_c, 0, 57, 0
2, 73907, Note_on_c, 0, 60, 0
2, 73907, Note_on_c, 0, 64, 0
2, 74160, Note_on_c, 0, 57, 80
2, 74160, Note_on_c, 0, 60, 80
2, 74160, Note_on_c, 0, 64, 80
2, 74387, Note_on_c, 0, 57, 0
2, 74387, Note_on_c, 0, 60, 0
2, 74387, Note_on_c, 0, 64, 0
2, 74880, Note_on_c, 0, 50, 80
2, 74880, Note_on_c, 0, 57, 80
2, 74880, Note_on_c, 0, 60, 80
2, 75335, Note_on_c, 0, 50, 0
2, 75335, Note_on_c, 0, 57, 0
2, 75335, Note_on_c, 0, 60, 0
2, 75600, Note_on_c, 0, 50, 80
2, 75600, Note_on_c, 0, 57, 80
2, 75600, Note_on_c, 0, 60, 80
2, 75827, Note_on_c, 0, 50, 0
2, 75827, Note_on_c, 0, 57, 0
2, 75827, Note_on_c, 0, 60, 0
2, 76080, Note_on_c, 0, 52, 80
2, 76080, Note_on_c, 0, 55, 80
2, 76307, Note_on_c, 0, 52, 0
2, 76307, Note_on_c, 0, 55, 0
2, 76800, Note_on_c, 0, 60, 80
2, 76800, Note_on_c, 0, 64, 80
2, 76800, Note_on_c, 0, 67, 80
2, 76800, Note_on_c, 0, 72, 80
2, 77039, Note_on_c, 0, 60, 0
2, 77039, Note_on_c, 0, 64, 0
2, 77039, Note_on_c, 0, 67, 0
2, 77039, Note_on_c, 0, 72, 0
2, 77520, Note_on_c, 0, 60, 80
2, 77520, Note_on_c, 0, 64, 80
2, 77747, Note_on_c, 0, 60, 0
2, 77747, Note_on_c, 0, 64, 0
2, 78000, Note_on_c, 0, 60, 80
2, 78000, Note_on_c, 0, 64, 80
2, 78000, Note_on_c, 0, 67, 80
2, 78227, Note_on_c, 0, 60, 0
2, 78227, Note_on_c, 0, 64, 0
2, 78227, Note_on_c, 0, 67, 0
2, 78720, Note_on_c, 0, 57, 80
2, 78720, Note_on_c, 0, 60, 80
2, 78720, Note_on_c, 0, 64, 80
2, 78720, Note_on_c, 0, 67, 80
2, 79175, Note_on_c, 0, 57, 0
2, 79175, Note_on_c, 0, 60, 0
2, 79175, Note_on_c, 0, 64, 0
2, 79175, Note_on_c, 0, 67, 0
2, 79920, Note_on_c, 0, 57, 80
2, 79920, Note_on_c, 0, 62, 80
2, 79920, Note_on_c, 0, 65, 80
2, 80147, Note_on_c, 0, 57, 0
2, 80147, Note_on_c, 0, 62, 0
2, 80147, Note_on_c, 0, 65, 0
2, 80640, Note_on_c, 0, 57, 80
2, 80640, Note_on_c, 0, 60, 80
2, 80640, Note_on_c, 0, 64, 80
2, 81095, Note_on_c, 0, 57, 0
2, 81095, Note_on_c, 0, 60, 0
2, 81095, Note_on_c, 0, 64, 0
2, 81360, Note_on_c, 0, 57, 80
2, 81360, Note_on_c, 0, 60, 80
2, 81360, Note_on_c, 0, 64, 80
2, 81587, Note_on_c, 0, 57, 0
2, 81587, Note_on_c, 0, 60, 0
2, 81587, Note_on_c, 0, 64, 0
2, 81840, Note_on_c, 0, 57, 80
2, 81840, Note_on_c, 0, 60, 80
2, 81840, Note_on_c, 0, 64, 80
2, 82067, Note_on_c, 0, 57, 0
2, 82067, Note_on_c, 0, 60, 0
2, 82067, Note_on_c, 0, 64, 0
2, 82560, Note_on_c, 0, 50, 80
2, 82560, Note_on_c, 0, 57, 80
2, 83015, Note_on_c, 0, 50, 0
2, 83015, Note_on_c, 0, 57, 0
2, 83280, Note_on_c, 0, 50, 80
2, 83507, Note_on_c, 0, 50, 0
2, 86400, Note_on_c, 0, 60, 80
2, 88223, Note_on_c, 0, 60, 0
2, 88320, Note_on_c, 0, 60, 80
2, 90143, Note_on_c, 0, 60, 0
2, 90240, Note_on_c, 0, 57, 80
2, 92063, Note_on_c, 0, 57, 0
2, 92160, Note_on_c, 0, 55, 80
2, 93983, Note_on_c, 0, 55, 0
2, 94080, Note_on_c, 0, 60, 80
2, 95903, Note_on_c, 0, 60, 0
2, 96000, Note_on_c, 0, 60, 80
2, 97823, Note_on_c, 0, 60, 0
2, 97920, Note_on_c, 0, 57, 80
2, 99743, Note_on_c, 0, 57, 0
2, 99840, Note_on_c, 0, 55, 80
2, 101663, Note_on_c, 0, 55, 0
2, 101760, Note_on_c, 0, 60, 80
2, 103583, Note_on_c, 0, 60, 0
2, 103680, Note_on_c, 0, 60, 80
2, 105503, Note_on_c, 0, 60, 0
2, 105600, Note_on_c, 0, 57, 80
2, 107423, Note_on_c, 0, 57, 0
2, 107520, Note_on_c, 0, 55, 80
2, 109343, Note_on_c, 0, 55, 0
2, 109440, Note_on_c, 0, 60, 80
2, 111263, Note_on_c, 0, 60, 0
2, 111360, Note_on_c, 0, 60, 80
2, 113183, Note_on_c, 0, 60, 0
2, 113280, Note_on_c, 0, 57, 80
2, 115103, Note_on_c, 0, 57, 0
2, 117120, Note_on_c, 0, 67, 80
2, 117120, Note_on_c, 0, 72, 80
2, 117575, Note_on_c, 0, 67, 0
2, 117575, Note_on_c, 0, 72, 0
2, 117840, Note_on_c, 0, 67, 80
2, 117840, Note_on_c, 0, 72, 80
2, 118067, Note_on_c, 0, 67, 0
2, 118067, Note_on_c, 0, 72, 0
2, 118320, Note_on_c, 0, 67, 80
2, 118320, Note_on_c, 0, 72, 80
2, 118547, Note_on_c, 0, 67, 0
2, 118547, Note_on_c, 0, 72, 0
2, 119040, Note_on_c, 0, 64, 80
2, 119040, Note_on_c, 0, 67, 80
2, 119495, Note_on_c, 0, 64, 0
2, 119495, Note_on_c, 0, 67, 0
2, 120240, Note_on_c, 0, 62, 80
2, 120240, Note_on_c, 0, 65, 80
2, 120467, Note_on_c, 0, 62, 0
2, 120467, Note_on_c, 0, 65, 0
2, 120960, Note_on_c, 0, 72, 80
2, 120960, Note_on_c, 0, 76, 80
2, 121415, Note_on_c, 0, 72, 0
2, 121415, Note_on_c, 0, 76, 0
2, 121680, Note_on_c, 0, 72, 80
2, 121680, Note_on_c, 0, 76, 80
2, 121907, Note_on_c, 0, 72, 0
2, 121907, Note_on_c, 0, 76, 0
2, 122160, Note_on_c, 0, 69, 80
2, 122160, Note_on_c, 0, 74, 80
2, 122387, Note_on_c, 0, 69, 0
2, 122387, Note_on_c, 0, 74, 0
2, 122880, Note_on_c, 0, 65, 80
2, 122880, Note_on_c, 0, 69, 80
2, 123335, Note_on_c, 0, 65, 0
2, 123335, Note_on_c, 0, 69, 0
2, 123600, Note_on_c, 0, 69, 80
2, 123600, Note_on_c, 0, 72, 80
2, 123827, Note_on_c, 0, 69, 0
2, 123827, Note_on_c, 0, 72, 0
2, 124080, Note_on_c, 0, 64, 80
2, 124080, Note_on_c, 0, 67, 80
2, 124307, Note_on_c, 0, 64, 0
2, 124307, Note_on_c, 0, 67, 0
2, 124800, Note_on_c, 0, 67, 80
2, 124800, Note_on_c, 0, 72, 80
2, 125255, Note_on_c, 0, 67, 0
2, 125255, Note_on_c, 0, 72, 0
2, 125520, Note_on_c, 0, 67, 80
2, 125520, Note_on_c, 0, 72, 80
2, 125747, Note_on_c, 0, 67, 0
2, 125747, Note_on_c, 0, 72, 0
2, 126000, Note_on_c, 0, 67, 80
2, 126000, Note_on_c, 0, 72, 80
2, 126227, Note_on_c, 0, 67, 0
2, 126227, Note_on_c, 0, 72, 0
2, 126720, Note_on_c, 0, 64, 80
2, 126720, Note_on_c, 0, 67, 80
2, 127175, Note_on_c, 0, 64, 0
2, 127175, Note_on_c, 0, 67, 0
2, 127920, Note_on_c, 0, 62, 80
2, 127920, Note_on_c, 0, 65, 80
2, 128147, Note_on_c, 0, 62, 0
2, 128147, Note_on_c, 0, 65, 0
2, 128640, Note_on_c, 0, 72, 80
2, 128640, Note_on_c, 0, 76, 80
2, 129095, Note_on_c, 0, 72, 0
2, 129095, Note_on_c, 0, 76, 0
2, 129360, Note_on_c, 0, 72, 80
2, 129360, Note_on_c, 0, 76, 80
2, 129587, Note_on_c, 0, 72, 0
2, 129587, Note_on_c, 0, 76, 0
2, 129840, Note_on_c, 0, 69, 80
2, 129840, Note_on_c, 0, 74, 80
2, 130067, Note_on_c, 0, 69, 0
2, 130067, Note_on_c, 0, 74, 0
2, 131520, Note_on_c, 0, 71, 80
2, 131975, Note_on_c, 0, 71, 0
2, 132480, Note_on_c, 0, 72, 80
2, 132935, Note_on_c, 0, 72, 0
2, 132960, Note_on_c, 0, 60, 80
2, 133415, Note_on_c, 0, 60, 0
2, 133416, End_track
3, 0, Start_track
3, 0, Title_t, "Electric Bass, Bass\000"
3, 0, Key_signature, 0, "major"
3, 0, Control_c, 6, 121, 0
3, 0, Program_c, 6, 33
3, 0, Control_c, 6, 7, 100
3, 0, Control_c, 6, 10, 64
3, 0, Control_c, 6, 91, 0
3, 0, Control_c, 6, 93, 0
3, 0, MIDI_port, 0
3, 0, Note_on_c, 6, 60, 80
3, 0, Control_c, 0, 121, 0
3, 0, Program_c, 0, 36
3, 0, Control_c, 0, 7, 100
3, 0, Control_c, 0, 10, 64
3, 0, Control_c, 0, 91, 0
3, 0, Control_c, 0, 93, 0
3, 0, MIDI_port, 0
3, 0, Control_c, 1, 121, 0
3, 0, Program_c, 1, 37
3, 0, Control_c, 1, 7, 100
3, 0, Control_c, 1, 10, 64
3, 0, Control_c, 1, 91, 0
3, 0, Control_c, 1, 93, 0
3, 0, MIDI_port, 0
3, 1919, Note_on_c, 6, 60, 0
3, 1920, Note_on_c, 6, 60, 80
3, 2879, Note_on_c, 6, 60, 0
3, 2880, Note_on_c, 6, 60, 80
3, 3119, Note_on_c, 6, 60, 0
3, 3120, Note_on_c, 6, 62, 80
3, 3839, Note_on_c, 6, 62, 0
3, 3840, Note_on_c, 6, 57, 80
3, 5759, Note_on_c, 6, 57, 0
3, 5760, Note_on_c, 6, 62, 80
3, 7199, Note_on_c, 6, 62, 0
3, 7200, Note_on_c, 6, 64, 80
3, 7679, Note_on_c, 6, 64, 0
3, 7680, Note_on_c, 6, 60, 80
3, 9599, Note_on_c, 6, 60, 0
3, 9600, Note_on_c, 6, 60, 80
3, 10559, Note_on_c, 6, 60, 0
3, 10560, Note_on_c, 6, 60, 80
3, 10799, Note_on_c, 6, 60, 0
3, 10800, Note_on_c, 6, 62, 80
3, 11519, Note_on_c, 6, 62, 0
3, 11520, Note_on_c, 6, 57, 80
3, 13439, Note_on_c, 6, 57, 0
3, 13440, Note_on_c, 6, 62, 80
3, 14879, Note_on_c, 6, 62, 0
3, 14880, Note_on_c, 6, 64, 80
3, 15359, Note_on_c, 6, 64, 0
3, 15360, Note_on_c, 6, 60, 80
3, 17279, Note_on_c, 6, 60, 0
3, 17280, Note_on_c, 6, 60, 80
3, 18239, Note_on_c, 6, 60, 0
3, 18240, Note_on_c, 6, 60, 80
3, 18479, Note_on_c, 6, 60, 0
3, 18480, Note_on_c, 6, 62, 80
3, 19199, Note_on_c, 6, 62, 0
3, 19200, Note_on_c, 6, 57, 80
3, 21119, Note_on_c, 6, 57, 0
3, 21120, Note_on_c, 6, 62, 80
3, 22559, Note_on_c, 6, 62, 0
3, 22800, Note_on_c, 6, 64, 80
3, 23039, Note_on_c, 6, 64, 0
3, 23040, Note_on_c, 6, 60, 80
3, 24959, Note_on_c, 6, 60, 0
3, 24960, Note_on_c, 6, 60, 80
3, 25919, Note_on_c, 6, 60, 0
3, 25920, Note_on_c, 6, 60, 80
3, 26159, Note_on_c, 6, 60, 0
3, 26160, Note_on_c, 6, 62, 80
3, 26879, Note_on_c, 6, 62, 0
3, 26880, Note_on_c, 6, 57, 80
3, 28799, Note_on_c, 6, 57, 0
3, 28800, Note_on_c, 6, 62, 80
3, 30239, Note_on_c, 6, 62, 0
3, 30240, Note_on_c, 6, 64, 80
3, 30719, Note_on_c, 6, 64, 0
3, 30720, Note_on_c, 6, 60, 80
3, 32639, Note_on_c, 6, 60, 0
3, 32640, Note_on_c, 6, 60, 80
3, 33599, Note_on_c, 6, 60, 0
3, 33600, Note_on_c, 6, 60, 80
3, 33839, Note_on_c, 6, 60, 0
3, 33840, Note_on_c, 6, 62, 80
3, 34559, Note_on_c, 6, 62, 0
3, 34560, Note_on_c, 6, 57, 80
3, 36479, Note_on_c, 6, 57, 0
3, 36480, Note_on_c, 6, 62, 80
3, 37919, Note_on_c, 6, 62, 0
3, 37920, Note_on_c, 6, 64, 80
3, 38399, Note_on_c, 6, 64, 0
3, 38400, Note_on_c, 6, 60, 80
3, 40319, Note_on_c, 6, 60, 0
3, 40320, Note_on_c, 6, 60, 80
3, 41279, Note_on_c, 6, 60, 0
3, 41280, Note_on_c, 6, 60, 80
3, 41519, Note_on_c, 6, 60, 0
3, 41520, Note_on_c, 6, 62, 80
3, 42239, Note_on_c, 6, 62, 0
3, 42240, Note_on_c, 6, 57, 80
3, 44159, Note_on_c, 6, 57, 0
3, 44160, Note_on_c, 6, 62, 80
3, 45599, Note_on_c, 6, 62, 0
3, 45600, Note_on_c, 6, 64, 80
3, 46079, Note_on_c, 6, 64, 0
3, 46080, Note_on_c, 6, 60, 80
3, 47999, Note_on_c, 6, 60, 0
3, 48000, Note_on_c, 6, 60, 80
3, 48959, Note_on_c, 6, 60, 0
3, 48960, Note_on_c, 6, 60, 80
3, 49199, Note_on_c, 6, 60, 0
3, 49200, Note_on_c, 6, 62, 80
3, 49919, Note_on_c, 6, 62, 0
3, 49920, Note_on_c, 6, 57, 80
3, 51839, Note_on_c, 6, 57, 0
3, 51840, Note_on_c, 6, 62, 80
3, 53279, Note_on_c, 6, 62, 0
3, 53520, Note_on_c, 6, 64, 80
3, 53759, Note_on_c, 6, 64, 0
3, 53760, Note_on_c, 6, 60, 80
3, 54479, Note_on_c, 6, 60, 0
3, 54480, Note_on_c, 6, 60, 80
3, 54959, Note_on_c, 6, 60, 0
3, 54960, Note_on_c, 6, 60, 80
3, 55679, Note_on_c, 6, 60, 0
3, 55680, Note_on_c, 6, 60, 80
3, 56399, Note_on_c, 6, 60, 0
3, 56400, Note_on_c, 6, 60, 80
3, 56879, Note_on_c, 6, 60, 0
3, 56880, Note_on_c, 6, 62, 80
3, 57599, Note_on_c, 6, 62, 0
3, 57600, Note_on_c, 6, 57, 80
3, 58319, Note_on_c, 6, 57, 0
3, 58320, Note_on_c, 6, 57, 80
3, 58799, Note_on_c, 6, 57, 0
3, 58800, Note_on_c, 6, 57, 80
3, 59519, Note_on_c, 6, 57, 0
3, 59520, Note_on_c, 6, 62, 80
3, 60239, Note_on_c, 6, 62, 0
3, 60240, Note_on_c, 6, 62, 80
3, 60719, Note_on_c, 6, 62, 0
3, 60720, Note_on_c, 6, 64, 80
3, 61439, Note_on_c, 6, 64, 0
3, 61440, Note_on_c, 6, 60, 80
3, 62159, Note_on_c, 6, 60, 0
3, 62160, Note_on_c, 6, 60, 80
3, 62639, Note_on_c, 6, 60, 0
3, 62640, Note_on_c, 6, 60, 80
3, 63359, Note_on_c, 6, 60, 0
3, 63360, Note_on_c, 6, 60, 80
3, 64079, Note_on_c, 6, 60, 0
3, 64080, Note_on_c, 6, 60, 80
3, 64559, Note_on_c, 6, 60, 0
3, 64560, Note_on_c, 6, 62, 80
3, 65279, Note_on_c, 6, 62, 0
3, 65280, Note_on_c, 6, 57, 80
3, 65999, Note_on_c, 6, 57, 0
3, 66000, Note_on_c, 6, 57, 80
3, 66479, Note_on_c, 6, 57, 0
3, 66480, Note_on_c, 6, 57, 80
3, 67199, Note_on_c, 6, 57, 0
3, 67200, Note_on_c, 6, 62, 80
3, 67919, Note_on_c, 6, 62, 0
3, 67920, Note_on_c, 6, 62, 80
3, 68879, Note_on_c, 6, 62, 0
3, 69120, Note_on_c, 6, 60, 80
3, 69839, Note_on_c, 6, 60, 0
3, 69840, Note_on_c, 6, 60, 80
3, 70319, Note_on_c, 6, 60, 0
3, 70320, Note_on_c, 6, 60, 80
3, 71039, Note_on_c, 6, 60, 0
3, 71040, Note_on_c, 6, 60, 80
3, 71759, Note_on_c, 6, 60, 0
3, 71760, Note_on_c, 6, 60, 80
3, 72239, Note_on_c, 6, 60, 0
3, 72240, Note_on_c, 6, 62, 80
3, 72959, Note_on_c, 6, 62, 0
3, 72960, Note_on_c, 6, 57, 80
3, 73679, Note_on_c, 6, 57, 0
3, 73680, Note_on_c, 6, 57, 80
3, 74159, Note_on_c, 6, 57, 0
3, 74160, Note_on_c, 6, 57, 80
3, 74879, Note_on_c, 6, 57, 0
3, 74880, Note_on_c, 6, 62, 80
3, 75599, Note_on_c, 6, 62, 0
3, 75600, Note_on_c, 6, 62, 80
3, 76079, Note_on_c, 6, 62, 0
3, 76080, Note_on_c, 6, 64, 80
3, 76799, Note_on_c, 6, 64, 0
3, 76800, Note_on_c, 6, 60, 80
3, 77519, Note_on_c, 6, 60, 0
3, 77520, Note_on_c, 6, 60, 80
3, 77999, Note_on_c, 6, 60, 0
3, 78000, Note_on_c, 6, 60, 80
3, 78719, Note_on_c, 6, 60, 0
3, 78720, Note_on_c, 6, 60, 80
3, 79439, Note_on_c, 6, 60, 0
3, 79440, Note_on_c, 6, 60, 80
3, 79919, Note_on_c, 6, 60, 0
3, 79920, Note_on_c, 6, 62, 80
3, 80639, Note_on_c, 6, 62, 0
3, 80640, Note_on_c, 6, 57, 80
3, 81359, Note_on_c, 6, 57, 0
3, 81360, Note_on_c, 6, 57, 80
3, 81839, Note_on_c, 6, 57, 0
3, 81840, Note_on_c, 6, 57, 80
3, 82559, Note_on_c, 6, 57, 0
3, 82560, Note_on_c, 6, 62, 80
3, 83279, Note_on_c, 6, 62, 0
3, 83280, Note_on_c, 6, 62, 80
3, 84239, Note_on_c, 6, 62, 0
3, 84240, End_track
4, 0, Start_track
4, 0, Title_t, "Chimes, Bell\000"
4, 0, Key_signature, 0, "major"
4, 0, Control_c, 7, 121, 0
4, 0, Program_c, 7, 14
4, 0, Control_c, 7, 7, 100
4, 0, Control_c, 7, 10, 64
4, 0, Control_c, 7, 91, 0
4, 0, Control_c, 7, 93, 0
4, 0, MIDI_port, 0
4, 27840, Note_on_c, 7, 76, 80
4, 28079, Note_on_c, 7, 76, 0
4, 28080, Note_on_c, 7, 74, 80
4, 28319, Note_on_c, 7, 74, 0
4, 28320, Note_on_c, 7, 72, 80
4, 28799, Note_on_c, 7, 72, 0
4, 35520, Note_on_c, 7, 74, 80
4, 35759, Note_on_c, 7, 74, 0
4, 35760, Note_on_c, 7, 76, 80
4, 35999, Note_on_c, 7, 76, 0
4, 36000, Note_on_c, 7, 72, 80
4, 36479, Note_on_c, 7, 72, 0
4, 43200, Note_on_c, 7, 76, 80
4, 43439, Note_on_c, 7, 76, 0
4, 43440, Note_on_c, 7, 74, 80
4, 43679, Note_on_c, 7, 74, 0
4, 43680, Note_on_c, 7, 72, 80
4, 44159, Note_on_c, 7, 72, 0
4, 52800, Note_on_c, 7, 74, 80
4, 53039, Note_on_c, 7, 74, 0
4, 53040, Note_on_c, 7, 76, 80
4, 53279, Note_on_c, 7, 76, 0
4, 53280, Note_on_c, 7, 72, 80
4, 53759, Note_on_c, 7, 72, 0
4, 86880, Note_on_c, 7, 72, 80
4, 87359, Note_on_c, 7, 72, 0
4, 87360, Note_on_c, 7, 76, 80
4, 87839, Note_on_c, 7, 76, 0
4, 87840, Note_on_c, 7, 72, 80
4, 88319, Note_on_c, 7, 72, 0
4, 88800, Note_on_c, 7, 72, 80
4, 89279, Note_on_c, 7, 72, 0
4, 89280, Note_on_c, 7, 77, 80
4, 89759, Note_on_c, 7, 77, 0
4, 89760, Note_on_c, 7, 72, 80
4, 90239, Note_on_c, 7, 72, 0
4, 90720, Note_on_c, 7, 62, 80
4, 91199, Note_on_c, 7, 62, 0
4, 91200, Note_on_c, 7, 67, 80
4, 91679, Note_on_c, 7, 67, 0
4, 91680, Note_on_c, 7, 74, 80
4, 92159, Note_on_c, 7, 74, 0
4, 92640, Note_on_c, 7, 67, 80
4, 93119, Note_on_c, 7, 67, 0
4, 93120, Note_on_c, 7, 74, 80
4, 93599, Note_on_c, 7, 74, 0
4, 93600, Note_on_c, 7, 79, 80
4, 94079, Note_on_c, 7, 79, 0
4, 94560, Note_on_c, 7, 72, 80
4, 95039, Note_on_c, 7, 72, 0
4, 95040, Note_on_c, 7, 76, 80
4, 95519, Note_on_c, 7, 76, 0
4, 95520, Note_on_c, 7, 72, 80
4, 95999, Note_on_c, 7, 72, 0
4, 96480, Note_on_c, 7, 72, 80
4, 96959, Note_on_c, 7, 72, 0
4, 96960, Note_on_c, 7, 77, 80
4, 97439, Note_on_c, 7, 77, 0
4, 97440, Note_on_c, 7, 72, 80
4, 97919, Note_on_c, 7, 72, 0
4, 98400, Note_on_c, 7, 62, 80
4, 98879, Note_on_c, 7, 62, 0
4, 98880, Note_on_c, 7, 67, 80
4, 99359, Note_on_c, 7, 67, 0
4, 99360, Note_on_c, 7, 74, 80
4, 99839, Note_on_c, 7, 74, 0
4, 100320, Note_on_c, 7, 67, 80
4, 100799, Note_on_c, 7, 67, 0
4, 100800, Note_on_c, 7, 74, 80
4, 101279, Note_on_c, 7, 74, 0
4, 101280, Note_on_c, 7, 79, 80
4, 101759, Note_on_c, 7, 79, 0
4, 102240, Note_on_c, 7, 72, 80
4, 102719, Note_on_c, 7, 72, 0
4, 102720, Note_on_c, 7, 76, 80
4, 103199, Note_on_c, 7, 76, 0
4, 103200, Note_on_c, 7, 72, 80
4, 103679, Note_on_c, 7, 72, 0
4, 104160, Note_on_c, 7, 72, 80
4, 104639, Note_on_c, 7, 72, 0
4, 104640, Note_on_c, 7, 77, 80
4, 105119, Note_on_c, 7, 77, 0
4, 105120, Note_on_c, 7, 72, 80
4, 105599, Note_on_c, 7, 72, 0
4, 106080, Note_on_c, 7, 62, 80
4, 106559, Note_on_c, 7, 62, 0
4, 106560, Note_on_c, 7, 67, 80
4, 107039, Note_on_c, 7, 67, 0
4, 107040, Note_on_c, 7, 74, 80
4, 107519, Note_on_c, 7, 74, 0
4, 108000, Note_on_c, 7, 67, 80
4, 108479, Note_on_c, 7, 67, 0
4, 108480, Note_on_c, 7, 74, 80
4, 108959, Note_on_c, 7, 74, 0
4, 108960, Note_on_c, 7, 79, 80
4, 109439, Note_on_c, 7, 79, 0
4, 109920, Note_on_c, 7, 72, 80
4, 110399, Note_on_c, 7, 72, 0
4, 110400, Note_on_c, 7, 76, 80
4, 110879, Note_on_c, 7, 76, 0
4, 110880, Note_on_c, 7, 72, 80
4, 111359, Note_on_c, 7, 72, 0
4, 111840, Note_on_c, 7, 72, 80
4, 112319, Note_on_c, 7, 72, 0
4, 112320, Note_on_c, 7, 77, 80
4, 112799, Note_on_c, 7, 77, 0
4, 112800, Note_on_c, 7, 72, 80
4, 113279, Note_on_c, 7, 72, 0
4, 113760, Note_on_c, 7, 62, 80
4, 114239, Note_on_c, 7, 62, 0
4, 114240, Note_on_c, 7, 67, 80
4, 114719, Note_on_c, 7, 67, 0
4, 114720, Note_on_c, 7, 74, 80
4, 115199, Note_on_c, 7, 74, 0
4, 115200, Note_on_c, 7, 76, 80
4, 115679, Note_on_c, 7, 76, 0
4, 115680, End_track
5, 0, Start_track
5, 0, Title_t, "Classical Guitar, Lute\000"
5, 0, Key_signature, 0, "major"
5, 0, Control_c, 4, 121, 0
5, 0, Program_c, 4, 24
5, 0, Control_c, 4, 7, 100
5, 0, Control_c, 4, 10, 64
5, 0, Control_c, 4, 91, 0
5, 0, Control_c, 4, 93, 0
5, 0, MIDI_port, 0
5, 0, Control_c, 2, 121, 0
5, 0, Program_c, 2, 28
5, 0, Control_c, 2, 7, 100
5, 0, Control_c, 2, 10, 64
5, 0, Control_c, 2, 91, 0
5, 0, Control_c, 2, 93, 0
5, 0, MIDI_port, 0
5, 23040, Note_on_c, 4, 60, 80
5, 23279, Note_on_c, 4, 60, 0
5, 23280, Note_on_c, 4, 62, 80
5, 23519, Note_on_c, 4, 62, 0
5, 23520, Note_on_c, 4, 64, 80
5, 23759, Note_on_c, 4, 64, 0
5, 23760, Note_on_c, 4, 62, 80
5, 23999, Note_on_c, 4, 62, 0
5, 24000, Note_on_c, 4, 60, 80
5, 24479, Note_on_c, 4, 60, 0
5, 24480, Note_on_c, 4, 55, 80
5, 24719, Note_on_c, 4, 55, 0
5, 24720, Note_on_c, 4, 60, 80
5, 24959, Note_on_c, 4, 60, 0
5, 25200, Note_on_c, 4, 55, 80
5, 25439, Note_on_c, 4, 55, 0
5, 25440, Note_on_c, 4, 60, 80
5, 25919, Note_on_c, 4, 60, 0
5, 25920, Note_on_c, 4, 52, 80
5, 26399, Note_on_c, 4, 52, 0
5, 26400, Note_on_c, 4, 55, 80
5, 26879, Note_on_c, 4, 55, 0
5, 26880, Note_on_c, 4, 60, 80
5, 27119, Note_on_c, 4, 60, 0
5, 27120, Note_on_c, 4, 62, 80
5, 27359, Note_on_c, 4, 62, 0
5, 27360, Note_on_c, 4, 64, 80
5, 27599, Note_on_c, 4, 64, 0
5, 27600, Note_on_c, 4, 62, 80
5, 27839, Note_on_c, 4, 62, 0
5, 27840, Note_on_c, 4, 60, 80
5, 28319, Note_on_c, 4, 60, 0
5, 28320, Note_on_c, 4, 67, 80
5, 28799, Note_on_c, 4, 67, 0
5, 28800, Note_on_c, 4, 64, 80
5, 29279, Note_on_c, 4, 64, 0
5, 29280, Note_on_c, 4, 62, 80
5, 29519, Note_on_c, 4, 62, 0
5, 29520, Note_on_c, 4, 64, 80
5, 29759, Note_on_c, 4, 64, 0
5, 30000, Note_on_c, 4, 62, 80
5, 30239, Note_on_c, 4, 62, 0
5, 30240, Note_on_c, 4, 57, 80
5, 30719, Note_on_c, 4, 57, 0
5, 30720, Note_on_c, 4, 60, 80
5, 30959, Note_on_c, 4, 60, 0
5, 30960, Note_on_c, 4, 62, 80
5, 31199, Note_on_c, 4, 62, 0
5, 31200, Note_on_c, 4, 64, 80
5, 31439, Note_on_c, 4, 64, 0
5, 31440, Note_on_c, 4, 62, 80
5, 31679, Note_on_c, 4, 62, 0
5, 31680, Note_on_c, 4, 60, 80
5, 32159, Note_on_c, 4, 60, 0
5, 32160, Note_on_c, 4, 55, 80
5, 32399, Note_on_c, 4, 55, 0
5, 32400, Note_on_c, 4, 60, 80
5, 32639, Note_on_c, 4, 60, 0
5, 32880, Note_on_c, 4, 55, 80
5, 33119, Note_on_c, 4, 55, 0
5, 33120, Note_on_c, 4, 60, 80
5, 33599, Note_on_c, 4, 60, 0
5, 33600, Note_on_c, 4, 52, 80
5, 34079, Note_on_c, 4, 52, 0
5, 34080, Note_on_c, 4, 55, 80
5, 34559, Note_on_c, 4, 55, 0
5, 34560, Note_on_c, 4, 67, 80
5, 34799, Note_on_c, 4, 67, 0
5, 35040, Note_on_c, 4, 62, 80
5, 35519, Note_on_c, 4, 62, 0
5, 35520, Note_on_c, 4, 64, 80
5, 35999, Note_on_c, 4, 64, 0
5, 36000, Note_on_c, 4, 57, 80
5, 36479, Note_on_c, 4, 57, 0
5, 36480, Note_on_c, 4, 60, 80
5, 36719, Note_on_c, 4, 60, 0
5, 36720, Note_on_c, 4, 62, 80
5, 36959, Note_on_c, 4, 62, 0
5, 36960, Note_on_c, 4, 64, 80
5, 37199, Note_on_c, 4, 64, 0
5, 37200, Note_on_c, 4, 62, 80
5, 37439, Note_on_c, 4, 62, 0
5, 37680, Note_on_c, 4, 60, 80
5, 37919, Note_on_c, 4, 60, 0
5, 38400, Note_on_c, 4, 60, 80
5, 38639, Note_on_c, 4, 60, 0
5, 38640, Note_on_c, 4, 62, 80
5, 38879, Note_on_c, 4, 62, 0
5, 38880, Note_on_c, 4, 64, 80
5, 39119, Note_on_c, 4, 64, 0
5, 39120, Note_on_c, 4, 62, 80
5, 39359, Note_on_c, 4, 62, 0
5, 39360, Note_on_c, 4, 60, 80
5, 39839, Note_on_c, 4, 60, 0
5, 39840, Note_on_c, 4, 55, 80
5, 40079, Note_on_c, 4, 55, 0
5, 40080, Note_on_c, 4, 60, 80
5, 40319, Note_on_c, 4, 60, 0
5, 40560, Note_on_c, 4, 55, 80
5, 40799, Note_on_c, 4, 55, 0
5, 40800, Note_on_c, 4, 60, 80
5, 41279, Note_on_c, 4, 60, 0
5, 41280, Note_on_c, 4, 52, 80
5, 41759, Note_on_c, 4, 52, 0
5, 41760, Note_on_c, 4, 55, 80
5, 42239, Note_on_c, 4, 55, 0
5, 42240, Note_on_c, 4, 60, 80
5, 42479, Note_on_c, 4, 60, 0
5, 42480, Note_on_c, 4, 62, 80
5, 42719, Note_on_c, 4, 62, 0
5, 42720, Note_on_c, 4, 64, 80
5, 42959, Note_on_c, 4, 64, 0
5, 42960, Note_on_c, 4, 62, 80
5, 43199, Note_on_c, 4, 62, 0
5, 43200, Note_on_c, 4, 60, 80
5, 43679, Note_on_c, 4, 60, 0
5, 43680, Note_on_c, 4, 67, 80
5, 44159, Note_on_c, 4, 67, 0
5, 44160, Note_on_c, 4, 64, 80
5, 44639, Note_on_c, 4, 64, 0
5, 44640, Note_on_c, 4, 62, 80
5, 44879, Note_on_c, 4, 62, 0
5, 44880, Note_on_c, 4, 64, 80
5, 45119, Note_on_c, 4, 64, 0
5, 45360, Note_on_c, 4, 62, 80
5, 45599, Note_on_c, 4, 62, 0
5, 45600, Note_on_c, 4, 57, 80
5, 46079, Note_on_c, 4, 57, 0
5, 46080, Note_on_c, 4, 60, 80
5, 46319, Note_on_c, 4, 60, 0
5, 46320, Note_on_c, 4, 62, 80
5, 46559, Note_on_c, 4, 62, 0
5, 46560, Note_on_c, 4, 64, 80
5, 46799, Note_on_c, 4, 64, 0
5, 46800, Note_on_c, 4, 62, 80
5, 47039, Note_on_c, 4, 62, 0
5, 47040, Note_on_c, 4, 60, 80
5, 47519, Note_on_c, 4, 60, 0
5, 47520, Note_on_c, 4, 55, 80
5, 47759, Note_on_c, 4, 55, 0
5, 47760, Note_on_c, 4, 60, 80
5, 47999, Note_on_c, 4, 60, 0
5, 48240, Note_on_c, 4, 55, 80
5, 48479, Note_on_c, 4, 55, 0
5, 48480, Note_on_c, 4, 60, 80
5, 48959, Note_on_c, 4, 60, 0
5, 48960, Note_on_c, 4, 52, 80
5, 49439, Note_on_c, 4, 52, 0
5, 49440, Note_on_c, 4, 55, 80
5, 49919, Note_on_c, 4, 55, 0
5, 49920, Note_on_c, 4, 67, 80
5, 50159, Note_on_c, 4, 67, 0
5, 50400, Note_on_c, 4, 62, 80
5, 50879, Note_on_c, 4, 62, 0
5, 50880, Note_on_c, 4, 64, 80
5, 51359, Note_on_c, 4, 64, 0
5, 51360, Note_on_c, 4, 69, 80
5, 51599, Note_on_c, 4, 69, 0
5, 51600, Note_on_c, 4, 67, 80
5, 51839, Note_on_c, 4, 67, 0
5, 101760, Note_on_c, 4, 79, 80
5, 102239, Note_on_c, 4, 79, 0
5, 102240, Note_on_c, 4, 76, 80
5, 102719, Note_on_c, 4, 76, 0
5, 102720, Note_on_c, 4, 77, 80
5, 103199, Note_on_c, 4, 77, 0
5, 103200, Note_on_c, 4, 74, 80
5, 103679, Note_on_c, 4, 74, 0
5, 103680, Note_on_c, 4, 76, 80
5, 104159, Note_on_c, 4, 76, 0
5, 104160, Note_on_c, 4, 72, 80
5, 104639, Note_on_c, 4, 72, 0
5, 104640, Note_on_c, 4, 74, 80
5, 105119, Note_on_c, 4, 74, 0
5, 105120, Note_on_c, 4, 69, 80
5, 105599, Note_on_c, 4, 69, 0
5, 105600, Note_on_c, 4, 67, 80
5, 106079, Note_on_c, 4, 67, 0
5, 106080, Note_on_c, 4, 64, 80
5, 106559, Note_on_c, 4, 64, 0
5, 106560, Note_on_c, 4, 67, 80
5, 107039, Note_on_c, 4, 67, 0
5, 107040, Note_on_c, 4, 81, 80
5, 107519, Note_on_c, 4, 81, 0
5, 107520, Note_on_c, 4, 79, 80
5, 107999, Note_on_c, 4, 79, 0
5, 109440, Note_on_c, 4, 79, 80
5, 109919, Note_on_c, 4, 79, 0
5, 109920, Note_on_c, 4, 76, 80
5, 110399, Note_on_c, 4, 76, 0
5, 110400, Note_on_c, 4, 77, 80
5, 110879, Note_on_c, 4, 77, 0
5, 110880, Note_on_c, 4, 74, 80
5, 111359, Note_on_c, 4, 74, 0
5, 111360, Note_on_c, 4, 76, 80
5, 111839, Note_on_c, 4, 76, 0
5, 111840, Note_on_c, 4, 72, 80
5, 112319, Note_on_c, 4, 72, 0
5, 112320, Note_on_c, 4, 74, 80
5, 112799, Note_on_c, 4, 74, 0
5, 112800, Note_on_c, 4, 69, 80
5, 113279, Note_on_c, 4, 69, 0
5, 113280, Note_on_c, 4, 67, 80
5, 113759, Note_on_c, 4, 67, 0
5, 113760, Note_on_c, 4, 64, 80
5, 114239, Note_on_c, 4, 64, 0
5, 114240, Note_on_c, 4, 67, 80
5, 114719, Note_on_c, 4, 67, 0
5, 114720, Note_on_c, 4, 81, 80
5, 115199, Note_on_c, 4, 81, 0
5, 115200, Note_on_c, 4, 79, 80
5, 115679, Note_on_c, 4, 79, 0
5, 115680, End_track
0, 0, End_of_file
