0, 0, Header, 1, 5, 480
1, 0, Start_track
1, 0, Title_t, "Vibraphone, Vibraphone, Monika\000"
1, 0, Time_signature, 4, 2, 24, 8
1, 0, Key_signature, 0, "major"
1, 0, Tempo, 566038
1, 0, Control_c, 0, 121, 0
1, 0, Program_c, 0, 11
1, 0, Control_c, 0, 7, 100
1, 0, Control_c, 0, 10, 64
1, 0, Control_c, 0, 91, 0
1, 0, Control_c, 0, 93, 0
1, 0, MIDI_port, 0
1, 0, Note_on_c, 0, 52, 80
1, 80, Note_on_c, 0, 53, 80
1, 120, Note_on_c, 0, 57, 80
1, 160, Note_on_c, 0, 60, 80
1, 240, Note_on_c, 0, 64, 80
1, 320, Note_on_c, 0, 69, 80
1, 959, Note_on_c, 0, 52, 0
1, 959, Note_on_c, 0, 53, 0
1, 959, Note_on_c, 0, 57, 0
1, 959, Note_on_c, 0, 60, 0
1, 959, Note_on_c, 0, 64, 0
1, 959, Note_on_c, 0, 69, 0
1, 1920, Note_on_c, 0, 62, 80
1, 2639, Note_on_c, 0, 62, 0
1, 2640, Note_on_c, 0, 64, 80
1, 3719, Note_on_c, 0, 64, 0
1, 3840, Note_on_c, 0, 64, 80
1, 4559, Note_on_c, 0, 64, 0
1, 4560, Note_on_c, 0, 60, 80
1, 5639, Note_on_c, 0, 60, 0
1, 5760, Note_on_c, 0, 62, 80
1, 6719, Note_on_c, 0, 62, 0
1, 8160, Note_on_c, 0, 76, 80
1, 8399, Note_on_c, 0, 76, 0
1, 8400, Note_on_c, 0, 76, 80
1, 8639, Note_on_c, 0, 76, 0
1, 8640, Note_on_c, 0, 76, 80
1, 9359, Note_on_c, 0, 76, 0
1, 9360, Note_on_c, 0, 76, 80
1, 9479, Note_on_c, 0, 76, 0
1, 9480, Note_on_c, 0, 74, 80
1, 9599, Note_on_c, 0, 74, 0
1, 9600, Note_on_c, 0, 72, 80
1, 9839, Note_on_c, 0, 72, 0
1, 9840, Note_on_c, 0, 72, 80
1, 9959, Note_on_c, 0, 72, 0
1, 9960, Note_on_c, 0, 74, 80
1, 10079, Note_on_c, 0, 74, 0
1, 10080, Note_on_c, 0, 76, 80
1, 10319, Note_on_c, 0, 76, 0
1, 10320, Note_on_c, 0, 72, 80
1, 10559, Note_on_c, 0, 72, 0
1, 10560, Note_on_c, 0, 71, 80
1, 11039, Note_on_c, 0, 71, 0
1, 11040, Note_on_c, 0, 69, 80
1, 11279, Note_on_c, 0, 69, 0
1, 11280, Note_on_c, 0, 71, 80
1, 11519, Note_on_c, 0, 71, 0
1, 11520, Note_on_c, 0, 72, 80
1, 11759, Note_on_c, 0, 72, 0
1, 11760, Note_on_c, 0, 69, 80
1, 11999, Note_on_c, 0, 69, 0
1, 12000, Note_on_c, 0, 64, 80
1, 12239, Note_on_c, 0, 64, 0
1, 12240, Note_on_c, 0, 76, 80
1, 12359, Note_on_c, 0, 76, 0
1, 12360, Note_on_c, 0, 77, 80
1, 12479, Note_on_c, 0, 77, 0
1, 12480, Note_on_c, 0, 76, 80
1, 12719, Note_on_c, 0, 76, 0
1, 12720, Note_on_c, 0, 76, 80
1, 12839, Note_on_c, 0, 76, 0
1, 12840, Note_on_c, 0, 77, 80
1, 12959, Note_on_c, 0, 77, 0
1, 12960, Note_on_c, 0, 76, 80
1, 13199, Note_on_c, 0, 76, 0
1, 13200, Note_on_c, 0, 81, 80
1, 13439, Note_on_c, 0, 81, 0
1, 13920, Note_on_c, 0, 81, 80
1, 14159, Note_on_c, 0, 81, 0
1, 14160, Note_on_c, 0, 77, 80
1, 14279, Note_on_c, 0, 77, 0
1, 14280, Note_on_c, 0, 76, 80
1, 14519, Note_on_c, 0, 76, 0
1, 14520, Note_on_c, 0, 74, 80
1, 14639, Note_on_c, 0, 74, 0
1, 14640, Note_on_c, 0, 76, 80
1, 14879, Note_on_c, 0, 76, 0
1, 14880, Note_on_c, 0, 77, 80
1, 15119, Note_on_c, 0, 77, 0
1, 15120, Note_on_c, 0, 76, 80
1, 15359, Note_on_c, 0, 76, 0
1, 15840, Note_on_c, 0, 76, 80
1, 16079, Note_on_c, 0, 76, 0
1, 16080, Note_on_c, 0, 77, 80
1, 16319, Note_on_c, 0, 77, 0
1, 16320, Note_on_c, 0, 76, 80
1, 17039, Note_on_c, 0, 76, 0
1, 17040, Note_on_c, 0, 72, 80
1, 17159, Note_on_c, 0, 72, 0
1, 17160, Note_on_c, 0, 74, 80
1, 17279, Note_on_c, 0, 74, 0
1, 17280, Note_on_c, 0, 76, 80
1, 17519, Note_on_c, 0, 76, 0
1, 17520, Note_on_c, 0, 74, 80
1, 17639, Note_on_c, 0, 74, 0
1, 17640, Note_on_c, 0, 72, 80
1, 17759, Note_on_c, 0, 72, 0
1, 17760, Note_on_c, 0, 71, 80
1, 17999, Note_on_c, 0, 71, 0
1, 18000, Note_on_c, 0, 65, 80
1, 18239, Note_on_c, 0, 65, 0
1, 18240, Note_on_c, 0, 64, 80
1, 18479, Note_on_c, 0, 64, 0
1, 18480, Note_on_c, 0, 62, 80
1, 18959, Note_on_c, 0, 62, 0
1, 18960, Note_on_c, 0, 64, 80
1, 19199, Note_on_c, 0, 64, 0
1, 19200, Note_on_c, 0, 60, 80
1, 19439, Note_on_c, 0, 60, 0
1, 19440, Note_on_c, 0, 72, 80
1, 19679, Note_on_c, 0, 72, 0
1, 19680, Note_on_c, 0, 69, 80
1, 19919, Note_on_c, 0, 69, 0
1, 19920, Note_on_c, 0, 76, 80
1, 20039, Note_on_c, 0, 76, 0
1, 20040, Note_on_c, 0, 77, 80
1, 20159, Note_on_c, 0, 77, 0
1, 20160, Note_on_c, 0, 76, 80
1, 20399, Note_on_c, 0, 76, 0
1, 20400, Note_on_c, 0, 76, 80
1, 20519, Note_on_c, 0, 76, 0
1, 20520, Note_on_c, 0, 77, 80
1, 20639, Note_on_c, 0, 77, 0
1, 20640, Note_on_c, 0, 76, 80
1, 20879, Note_on_c, 0, 76, 0
1, 20880, Note_on_c, 0, 81, 80
1, 21119, Note_on_c, 0, 81, 0
1, 21600, Note_on_c, 0, 81, 80
1, 21839, Note_on_c, 0, 81, 0
1, 21840, Note_on_c, 0, 77, 80
1, 21959, Note_on_c, 0, 77, 0
1, 21960, Note_on_c, 0, 76, 80
1, 22199, Note_on_c, 0, 76, 0
1, 22200, Note_on_c, 0, 74, 80
1, 22319, Note_on_c, 0, 74, 0
1, 22320, Note_on_c, 0, 76, 80
1, 22559, Note_on_c, 0, 76, 0
1, 22560, Note_on_c, 0, 77, 80
1, 22799, Note_on_c, 0, 77, 0
1, 23040, Note_on_c, 0, 60, 80
1, 23040, Note_on_c, 0, 64, 80
1, 23040, Note_on_c, 0, 69, 80
1, 23279, Note_on_c, 0, 60, 0
1, 23279, Note_on_c, 0, 64, 0
1, 23279, Note_on_c, 0, 69, 0
1, 23280, Note_on_c, 0, 76, 80
1, 23399, Note_on_c, 0, 76, 0
1, 23400, Note_on_c, 0, 76, 80
1, 23759, Note_on_c, 0, 76, 0
1, 23760, Note_on_c, 0, 76, 80
1, 24239, Note_on_c, 0, 76, 0
1, 24240, Note_on_c, 0, 74, 80
1, 24719, Note_on_c, 0, 74, 0
1, 24720, Note_on_c, 0, 72, 80
1, 24959, Note_on_c, 0, 72, 0
1, 24960, Note_on_c, 0, 69, 80
1, 25199, Note_on_c, 0, 69, 0
1, 25200, Note_on_c, 0, 69, 80
1, 25319, Note_on_c, 0, 69, 0
1, 25320, Note_on_c, 0, 71, 80
1, 25679, Note_on_c, 0, 71, 0
1, 25680, Note_on_c, 0, 72, 80
1, 26159, Note_on_c, 0, 72, 0
1, 26160, Note_on_c, 0, 76, 80
1, 26879, Note_on_c, 0, 76, 0
1, 27120, Note_on_c, 0, 77, 80
1, 27359, Note_on_c, 0, 77, 0
1, 27360, Note_on_c, 0, 76, 80
1, 27479, Note_on_c, 0, 76, 0
1, 27480, Note_on_c, 0, 72, 80
1, 27719, Note_on_c, 0, 72, 0
1, 27720, Note_on_c, 0, 71, 80
1, 28319, Note_on_c, 0, 71, 0
1, 28320, Note_on_c, 0, 64, 80
1, 28559, Note_on_c, 0, 64, 0
1, 28560, Note_on_c, 0, 65, 80
1, 28679, Note_on_c, 0, 65, 0
1, 28680, Note_on_c, 0, 69, 80
1, 29039, Note_on_c, 0, 69, 0
1, 29040, Note_on_c, 0, 65, 80
1, 29279, Note_on_c, 0, 65, 0
1, 29280, Note_on_c, 0, 69, 80
1, 29399, Note_on_c, 0, 69, 0
1, 29400, Note_on_c, 0, 71, 80
1, 29519, Note_on_c, 0, 71, 0
1, 29520, Note_on_c, 0, 69, 80
1, 29999, Note_on_c, 0, 69, 0
1, 30000, Note_on_c, 0, 64, 80
1, 30719, Note_on_c, 0, 64, 0
1, 30960, Note_on_c, 0, 76, 80
1, 31079, Note_on_c, 0, 76, 0
1, 31080, Note_on_c, 0, 76, 80
1, 31439, Note_on_c, 0, 76, 0
1, 31440, Note_on_c, 0, 76, 80
1, 31919, Note_on_c, 0, 76, 0
1, 31920, Note_on_c, 0, 74, 80
1, 32399, Note_on_c, 0, 74, 0
1, 32400, Note_on_c, 0, 72, 80
1, 32639, Note_on_c, 0, 72, 0
1, 32640, Note_on_c, 0, 69, 80
1, 32879, Note_on_c, 0, 69, 0
1, 32880, Note_on_c, 0, 69, 80
1, 32999, Note_on_c, 0, 69, 0
1, 33000, Note_on_c, 0, 71, 80
1, 33359, Note_on_c, 0, 71, 0
1, 33360, Note_on_c, 0, 72, 80
1, 33839, Note_on_c, 0, 72, 0
1, 33840, Note_on_c, 0, 76, 80
1, 34559, Note_on_c, 0, 76, 0
1, 34800, Note_on_c, 0, 77, 80
1, 35039, Note_on_c, 0, 77, 0
1, 35040, Note_on_c, 0, 76, 80
1, 35159, Note_on_c, 0, 76, 0
1, 35160, Note_on_c, 0, 72, 80
1, 35399, Note_on_c, 0, 72, 0
1, 35400, Note_on_c, 0, 71, 80
1, 35999, Note_on_c, 0, 71, 0
1, 36000, Note_on_c, 0, 64, 80
1, 36239, Note_on_c, 0, 64, 0
1, 36240, Note_on_c, 0, 65, 80
1, 36359, Note_on_c, 0, 65, 0
1, 36360, Note_on_c, 0, 69, 80
1, 36719, Note_on_c, 0, 69, 0
1, 36720, Note_on_c, 0, 65, 80
1, 36959, Note_on_c, 0, 65, 0
1, 36960, Note_on_c, 0, 69, 80
1, 37079, Note_on_c, 0, 69, 0
1, 37080, Note_on_c, 0, 71, 80
1, 37199, Note_on_c, 0, 71, 0
1, 37200, Note_on_c, 0, 69, 80
1, 37679, Note_on_c, 0, 69, 0
1, 37680, Note_on_c, 0, 64, 80
1, 38399, Note_on_c, 0, 64, 0
1, 38640, Note_on_c, 0, 77, 80
1, 38879, Note_on_c, 0, 77, 0
1, 38880, Note_on_c, 0, 76, 80
1, 38999, Note_on_c, 0, 76, 0
1, 39000, Note_on_c, 0, 72, 80
1, 39239, Note_on_c, 0, 72, 0
1, 39240, Note_on_c, 0, 71, 80
1, 39839, Note_on_c, 0, 71, 0
1, 39840, Note_on_c, 0, 64, 80
1, 40079, Note_on_c, 0, 64, 0
1, 40080, Note_on_c, 0, 65, 80
1, 40199, Note_on_c, 0, 65, 0
1, 40200, Note_on_c, 0, 69, 80
1, 40319, Note_on_c, 0, 69, 0
1, 41520, Note_on_c, 0, 65, 80
1, 41759, Note_on_c, 0, 65, 0
1, 41760, Note_on_c, 0, 69, 80
1, 41879, Note_on_c, 0, 69, 0
1, 41880, Note_on_c, 0, 71, 80
1, 42119, Note_on_c, 0, 71, 0
1, 42120, Note_on_c, 0, 69, 80
1, 42239, Note_on_c, 0, 69, 0
1, 50400, Note_on_c, 0, 76, 80
1, 50639, Note_on_c, 0, 76, 0
1, 50640, Note_on_c, 0, 76, 80
1, 50879, Note_on_c, 0, 76, 0
1, 50880, Note_on_c, 0, 76, 80
1, 51599, Note_on_c, 0, 76, 0
1, 51600, Note_on_c, 0, 76, 80
1, 51719, Note_on_c, 0, 76, 0
1, 51720, Note_on_c, 0, 74, 80
1, 51839, Note_on_c, 0, 74, 0
1, 51840, Note_on_c, 0, 72, 80
1, 52079, Note_on_c, 0, 72, 0
1, 52080, Note_on_c, 0, 72, 80
1, 52199, Note_on_c, 0, 72, 0
1, 52200, Note_on_c, 0, 74, 80
1, 52319, Note_on_c, 0, 74, 0
1, 52320, Note_on_c, 0, 76, 80
1, 52559, Note_on_c, 0, 76, 0
1, 52560, Note_on_c, 0, 69, 80
1, 52799, Note_on_c, 0, 69, 0
1, 52800, Note_on_c, 0, 71, 80
1, 53279, Note_on_c, 0, 71, 0
1, 53280, Note_on_c, 0, 69, 80
1, 53519, Note_on_c, 0, 69, 0
1, 53520, Note_on_c, 0, 71, 80
1, 53759, Note_on_c, 0, 71, 0
1, 53760, Note_on_c, 0, 72, 80
1, 53999, Note_on_c, 0, 72, 0
1, 54000, Note_on_c, 0, 69, 80
1, 54239, Note_on_c, 0, 69, 0
1, 54240, Note_on_c, 0, 64, 80
1, 54479, Note_on_c, 0, 64, 0
1, 54480, Note_on_c, 0, 76, 80
1, 54599, Note_on_c, 0, 76, 0
1, 54600, Note_on_c, 0, 77, 80
1, 54719, Note_on_c, 0, 77, 0
1, 54720, Note_on_c, 0, 76, 80
1, 54959, Note_on_c, 0, 76, 0
1, 54960, Note_on_c, 0, 76, 80
1, 55079, Note_on_c, 0, 76, 0
1, 55080, Note_on_c, 0, 77, 80
1, 55199, Note_on_c, 0, 77, 0
1, 55200, Note_on_c, 0, 76, 80
1, 55439, Note_on_c, 0, 76, 0
1, 55440, Note_on_c, 0, 81, 80
1, 55679, Note_on_c, 0, 81, 0
1, 56160, Note_on_c, 0, 81, 80
1, 56399, Note_on_c, 0, 81, 0
1, 56400, Note_on_c, 0, 77, 80
1, 56519, Note_on_c, 0, 77, 0
1, 56520, Note_on_c, 0, 76, 80
1, 56759, Note_on_c, 0, 76, 0
1, 56760, Note_on_c, 0, 74, 80
1, 56879, Note_on_c, 0, 74, 0
1, 56880, Note_on_c, 0, 76, 80
1, 57119, Note_on_c, 0, 76, 0
1, 57120, Note_on_c, 0, 77, 80
1, 57359, Note_on_c, 0, 77, 0
1, 57360, Note_on_c, 0, 76, 80
1, 57599, Note_on_c, 0, 76, 0
1, 58080, Note_on_c, 0, 76, 80
1, 58319, Note_on_c, 0, 76, 0
1, 58320, Note_on_c, 0, 77, 80
1, 58559, Note_on_c, 0, 77, 0
1, 58560, Note_on_c, 0, 76, 80
1, 59279, Note_on_c, 0, 76, 0
1, 59280, Note_on_c, 0, 72, 80
1, 59399, Note_on_c, 0, 72, 0
1, 59400, Note_on_c, 0, 74, 80
1, 59519, Note_on_c, 0, 74, 0
1, 59520, Note_on_c, 0, 76, 80
1, 59759, Note_on_c, 0, 76, 0
1, 59760, Note_on_c, 0, 74, 80
1, 59879, Note_on_c, 0, 74, 0
1, 59880, Note_on_c, 0, 72, 80
1, 59999, Note_on_c, 0, 72, 0
1, 60000, Note_on_c, 0, 71, 80
1, 60239, Note_on_c, 0, 71, 0
1, 60240, Note_on_c, 0, 65, 80
1, 60479, Note_on_c, 0, 65, 0
1, 60480, Note_on_c, 0, 64, 80
1, 60719, Note_on_c, 0, 64, 0
1, 60720, Note_on_c, 0, 62, 80
1, 61199, Note_on_c, 0, 62, 0
1, 61200, Note_on_c, 0, 65, 80
1, 61439, Note_on_c, 0, 65, 0
1, 61440, Note_on_c, 0, 64, 80
1, 61679, Note_on_c, 0, 64, 0
1, 61680, Note_on_c, 0, 72, 80
1, 61919, Note_on_c, 0, 72, 0
1, 61920, Note_on_c, 0, 69, 80
1, 62159, Note_on_c, 0, 69, 0
1, 62160, Note_on_c, 0, 76, 80
1, 62279, Note_on_c, 0, 76, 0
1, 62280, Note_on_c, 0, 77, 80
1, 62399, Note_on_c, 0, 77, 0
1, 62400, Note_on_c, 0, 76, 80
1, 62639, Note_on_c, 0, 76, 0
1, 62640, Note_on_c, 0, 76, 80
1, 62759, Note_on_c, 0, 76, 0
1, 62760, Note_on_c, 0, 77, 80
1, 62879, Note_on_c, 0, 77, 0
1, 62880, Note_on_c, 0, 76, 80
1, 63119, Note_on_c, 0, 76, 0
1, 63120, Note_on_c, 0, 81, 80
1, 63359, Note_on_c, 0, 81, 0
1, 63840, Note_on_c, 0, 81, 80
1, 64079, Note_on_c, 0, 81, 0
1, 64080, Note_on_c, 0, 77, 80
1, 64199, Note_on_c, 0, 77, 0
1, 64200, Note_on_c, 0, 76, 80
1, 64439, Note_on_c, 0, 76, 0
1, 64440, Note_on_c, 0, 74, 80
1, 64559, Note_on_c, 0, 74, 0
1, 64560, Note_on_c, 0, 76, 80
1, 64799, Note_on_c, 0, 76, 0
1, 64800, Note_on_c, 0, 77, 80
1, 65039, Note_on_c, 0, 77, 0
1, 65280, Note_on_c, 0, 60, 80
1, 65280, Note_on_c, 0, 64, 80
1, 65280, Note_on_c, 0, 69, 80
1, 65519, Note_on_c, 0, 60, 0
1, 65519, Note_on_c, 0, 64, 0
1, 65519, Note_on_c, 0, 69, 0
1, 65520, Note_on_c, 0, 76, 80
1, 65639, Note_on_c, 0, 76, 0
1, 65640, Note_on_c, 0, 76, 80
1, 65999, Note_on_c, 0, 76, 0
1, 66000, Note_on_c, 0, 76, 80
1, 66479, Note_on_c, 0, 76, 0
1, 66480, Note_on_c, 0, 74, 80
1, 66959, Note_on_c, 0, 74, 0
1, 66960, Note_on_c, 0, 72, 80
1, 67199, Note_on_c, 0, 72, 0
1, 67200, Note_on_c, 0, 69, 80
1, 67439, Note_on_c, 0, 69, 0
1, 67440, Note_on_c, 0, 69, 80
1, 67559, Note_on_c, 0, 69, 0
1, 67560, Note_on_c, 0, 71, 80
1, 67919, Note_on_c, 0, 71, 0
1, 67920, Note_on_c, 0, 72, 80
1, 68399, Note_on_c, 0, 72, 0
1, 68400, Note_on_c, 0, 76, 80
1, 69119, Note_on_c, 0, 76, 0
1, 69360, Note_on_c, 0, 77, 80
1, 69599, Note_on_c, 0, 77, 0
1, 69600, Note_on_c, 0, 76, 80
1, 69719, Note_on_c, 0, 76, 0
1, 69720, Note_on_c, 0, 72, 80
1, 69959, Note_on_c, 0, 72, 0
1, 69960, Note_on_c, 0, 71, 80
1, 70559, Note_on_c, 0, 71, 0
1, 70560, Note_on_c, 0, 64, 80
1, 70799, Note_on_c, 0, 64, 0
1, 70800, Note_on_c, 0, 65, 80
1, 70919, Note_on_c, 0, 65, 0
1, 70920, Note_on_c, 0, 69, 80
1, 71279, Note_on_c, 0, 69, 0
1, 71280, Note_on_c, 0, 65, 80
1, 71519, Note_on_c, 0, 65, 0
1, 71520, Note_on_c, 0, 69, 80
1, 71639, Note_on_c, 0, 69, 0
1, 71640, Note_on_c, 0, 71, 80
1, 71759, Note_on_c, 0, 71, 0
1, 71760, Note_on_c, 0, 69, 80
1, 72239, Note_on_c, 0, 69, 0
1, 72240, Note_on_c, 0, 64, 80
1, 72959, Note_on_c, 0, 64, 0
1, 73200, Note_on_c, 0, 76, 80
1, 73319, Note_on_c, 0, 76, 0
1, 73320, Note_on_c, 0, 76, 80
1, 73679, Note_on_c, 0, 76, 0
1, 73680, Note_on_c, 0, 76, 80
1, 74159, Note_on_c, 0, 76, 0
1, 74160, Note_on_c, 0, 74, 80
1, 74639, Note_on_c, 0, 74, 0
1, 74640, Note_on_c, 0, 72, 80
1, 74879, Note_on_c, 0, 72, 0
1, 74880, Note_on_c, 0, 69, 80
1, 75119, Note_on_c, 0, 69, 0
1, 75120, Note_on_c, 0, 69, 80
1, 75239, Note_on_c, 0, 69, 0
1, 75240, Note_on_c, 0, 71, 80
1, 75599, Note_on_c, 0, 71, 0
1, 75600, Note_on_c, 0, 72, 80
1, 76079, Note_on_c, 0, 72, 0
1, 76080, Note_on_c, 0, 76, 80
1, 76799, Note_on_c, 0, 76, 0
1, 77040, Note_on_c, 0, 77, 80
1, 77279, Note_on_c, 0, 77, 0
1, 77280, Note_on_c, 0, 76, 80
1, 77399, Note_on_c, 0, 76, 0
1, 77400, Note_on_c, 0, 72, 80
1, 77639, Note_on_c, 0, 72, 0
1, 77640, Note_on_c, 0, 71, 80
1, 78239, Note_on_c, 0, 71, 0
1, 78240, Note_on_c, 0, 64, 80
1, 78479, Note_on_c, 0, 64, 0
1, 78480, Note_on_c, 0, 65, 80
1, 78599, Note_on_c, 0, 65, 0
1, 78600, Note_on_c, 0, 69, 80
1, 78959, Note_on_c, 0, 69, 0
1, 78960, Note_on_c, 0, 65, 80
1, 79199, Note_on_c, 0, 65, 0
1, 79200, Note_on_c, 0, 69, 80
1, 79319, Note_on_c, 0, 69, 0
1, 79320, Note_on_c, 0, 71, 80
1, 79439, Note_on_c, 0, 71, 0
1, 79440, Note_on_c, 0, 69, 80
1, 79919, Note_on_c, 0, 69, 0
1, 79920, Note_on_c, 0, 64, 80
1, 80639, Note_on_c, 0, 64, 0
1, 81120, Note_on_c, 0, 76, 80
1, 81359, Note_on_c, 0, 76, 0
1, 81360, Note_on_c, 0, 76, 80
1, 81599, Note_on_c, 0, 76, 0
1, 82560, Note_on_c, 0, 71, 80
1, 83039, Note_on_c, 0, 71, 0
1, 83040, Note_on_c, 0, 72, 80
1, 83279, Note_on_c, 0, 72, 0
1, 83280, Note_on_c, 0, 74, 80
1, 83759, Note_on_c, 0, 74, 0
1, 83760, Note_on_c, 0, 76, 80
1, 84239, Note_on_c, 0, 76, 0
1, 84240, Note_on_c, 0, 76, 80
1, 86399, Note_on_c, 0, 76, 0
1, 86400, Note_on_c, 0, 69, 80
1, 86879, Note_on_c, 0, 69, 0
1, 86880, Note_on_c, 0, 71, 80
1, 87119, Note_on_c, 0, 71, 0
1, 87120, Note_on_c, 0, 72, 80
1, 87599, Note_on_c, 0, 72, 0
1, 87600, Note_on_c, 0, 69, 80
1, 88079, Note_on_c, 0, 69, 0
1, 88080, Note_on_c, 0, 64, 80
1, 90239, Note_on_c, 0, 64, 0
1, 90480, Note_on_c, 0, 76, 80
1, 90599, Note_on_c, 0, 76, 0
1, 90600, Note_on_c, 0, 77, 80
1, 90719, Note_on_c, 0, 77, 0
1, 90720, Note_on_c, 0, 76, 80
1, 90839, Note_on_c, 0, 76, 0
1, 90840, Note_on_c, 0, 72, 80
1, 91079, Note_on_c, 0, 72, 0
1, 91080, Note_on_c, 0, 71, 80
1, 91319, Note_on_c, 0, 71, 0
1, 91320, Note_on_c, 0, 69, 80
1, 91439, Note_on_c, 0, 69, 0
1, 91440, Note_on_c, 0, 65, 80
1, 91559, Note_on_c, 0, 65, 0
1, 91560, Note_on_c, 0, 64, 80
1, 91799, Note_on_c, 0, 64, 0
1, 91800, Note_on_c, 0, 69, 80
1, 91919, Note_on_c, 0, 69, 0
1, 91920, Note_on_c, 0, 72, 80
1, 92159, Note_on_c, 0, 72, 0
1, 92160, Note_on_c, 0, 71, 80
1, 92160, Note_on_c, 0, 74, 80
1, 92519, Note_on_c, 0, 71, 0
1, 92519, Note_on_c, 0, 74, 0
1, 92520, Note_on_c, 0, 69, 80
1, 92520, Note_on_c, 0, 72, 80
1, 92879, Note_on_c, 0, 69, 0
1, 92879, Note_on_c, 0, 72, 0
1, 92880, Note_on_c, 0, 64, 80
1, 92880, Note_on_c, 0, 69, 80
1, 93239, Note_on_c, 0, 64, 0
1, 93239, Note_on_c, 0, 69, 0
1, 93240, Note_on_c, 0, 60, 80
1, 93240, Note_on_c, 0, 64, 80
1, 93599, Note_on_c, 0, 60, 0
1, 93599, Note_on_c, 0, 64, 0
1, 93600, Note_on_c, 0, 64, 80
1, 93719, Note_on_c, 0, 64, 0
1, 93720, Note_on_c, 0, 65, 80
1, 93839, Note_on_c, 0, 65, 0
1, 93840, Note_on_c, 0, 72, 80
1, 94079, Note_on_c, 0, 72, 0
1, 94080, End_track
2, 0, Start_track
2, 0, Title_t, "Piano, Piano, Piano\000"
2, 0, Key_signature, 0, "major"
2, 0, Control_c, 1, 121, 0
2, 0, Program_c, 1, 0
2, 0, Control_c, 1, 7, 100
2, 0, Control_c, 1, 10, 64
2, 0, Control_c, 1, 91, 0
2, 0, Control_c, 1, 93, 0
2, 0, MIDI_port, 0
2, 480, Note_on_c, 1, 52, 80
2, 707, Note_on_c, 1, 52, 0
2, 720, Note_on_c, 1, 53, 80
2, 947, Note_on_c, 1, 53, 0
2, 960, Note_on_c, 1, 57, 80
2, 1415, Note_on_c, 1, 57, 0
2, 1440, Note_on_c, 1, 52, 80
2, 1667, Note_on_c, 1, 52, 0
2, 1680, Note_on_c, 1, 53, 80
2, 1907, Note_on_c, 1, 53, 0
2, 1920, Note_on_c, 1, 53, 80
2, 1920, Note_on_c, 1, 57, 80
2, 2603, Note_on_c, 1, 53, 0
2, 2603, Note_on_c, 1, 57, 0
2, 2640, Note_on_c, 1, 52, 80
2, 2640, Note_on_c, 1, 59, 80
2, 3209, Note_on_c, 1, 52, 0
2, 3209, Note_on_c, 1, 59, 0
2, 3360, Note_on_c, 1, 52, 80
2, 3473, Note_on_c, 1, 52, 0
2, 3480, Note_on_c, 1, 53, 80
2, 3593, Note_on_c, 1, 53, 0
2, 3600, Note_on_c, 1, 52, 80
2, 3827, Note_on_c, 1, 52, 0
2, 3840, Note_on_c, 1, 57, 80
2, 3840, Note_on_c, 1, 60, 80
2, 4295, Note_on_c, 1, 57, 0
2, 4295, Note_on_c, 1, 60, 0
2, 4320, Note_on_c, 1, 52, 80
2, 4547, Note_on_c, 1, 52, 0
2, 4560, Note_on_c, 1, 53, 80
2, 4560, Note_on_c, 1, 57, 80
2, 5129, Note_on_c, 1, 53, 0
2, 5129, Note_on_c, 1, 57, 0
2, 5280, Note_on_c, 1, 52, 80
2, 5507, Note_on_c, 1, 52, 0
2, 5520, Note_on_c, 1, 53, 80
2, 5747, Note_on_c, 1, 53, 0
2, 5760, Note_on_c, 1, 53, 80
2, 5760, Note_on_c, 1, 57, 80
2, 6443, Note_on_c, 1, 53, 0
2, 6443, Note_on_c, 1, 57, 0
2, 6480, Note_on_c, 1, 59, 80
2, 6480, Note_on_c, 1, 52, 80
2, 6707, Note_on_c, 1, 59, 0
2, 7505, Note_on_c, 1, 52, 0
2, 7680, Note_on_c, 1, 57, 80
2, 8135, Note_on_c, 1, 57, 0
2, 8160, Note_on_c, 1, 60, 80
2, 8160, Note_on_c, 1, 64, 80
2, 8387, Note_on_c, 1, 60, 0
2, 8387, Note_on_c, 1, 64, 0
2, 8400, Note_on_c, 1, 57, 80
2, 8627, Note_on_c, 1, 57, 0
2, 8640, Note_on_c, 1, 53, 80
2, 8879, Note_on_c, 1, 53, 0
2, 9120, Note_on_c, 1, 57, 80
2, 9120, Note_on_c, 1, 60, 80
2, 9347, Note_on_c, 1, 57, 0
2, 9347, Note_on_c, 1, 60, 0
2, 9360, Note_on_c, 1, 53, 80
2, 9587, Note_on_c, 1, 53, 0
2, 9600, Note_on_c, 1, 50, 80
2, 9839, Note_on_c, 1, 50, 0
2, 10080, Note_on_c, 1, 53, 80
2, 10080, Note_on_c, 1, 57, 80
2, 10307, Note_on_c, 1, 53, 0
2, 10307, Note_on_c, 1, 57, 0
2, 10320, Note_on_c, 1, 50, 80
2, 10547, Note_on_c, 1, 50, 0
2, 10560, Note_on_c, 1, 52, 80
2, 10799, Note_on_c, 1, 52, 0
2, 11040, Note_on_c, 1, 55, 80
2, 11040, Note_on_c, 1, 59, 80
2, 11267, Note_on_c, 1, 55, 0
2, 11267, Note_on_c, 1, 59, 0
2, 11280, Note_on_c, 1, 52, 80
2, 11507, Note_on_c, 1, 52, 0
2, 11520, Note_on_c, 1, 57, 80
2, 11759, Note_on_c, 1, 57, 0
2, 12000, Note_on_c, 1, 60, 80
2, 12227, Note_on_c, 1, 60, 0
2, 12240, Note_on_c, 1, 57, 80
2, 12467, Note_on_c, 1, 57, 0
2, 12480, Note_on_c, 1, 53, 80
2, 12719, Note_on_c, 1, 53, 0
2, 12960, Note_on_c, 1, 57, 80
2, 12960, Note_on_c, 1, 60, 80
2, 13187, Note_on_c, 1, 57, 0
2, 13187, Note_on_c, 1, 60, 0
2, 13200, Note_on_c, 1, 53, 80
2, 13427, Note_on_c, 1, 53, 0
2, 13440, Note_on_c, 1, 50, 80
2, 13679, Note_on_c, 1, 50, 0
2, 13920, Note_on_c, 1, 53, 80
2, 13920, Note_on_c, 1, 57, 80
2, 14147, Note_on_c, 1, 53, 0
2, 14147, Note_on_c, 1, 57, 0
2, 14160, Note_on_c, 1, 50, 80
2, 14387, Note_on_c, 1, 50, 0
2, 14400, Note_on_c, 1, 52, 80
2, 14639, Note_on_c, 1, 52, 0
2, 14880, Note_on_c, 1, 59, 80
2, 15107, Note_on_c, 1, 59, 0
2, 15120, Note_on_c, 1, 52, 80
2, 15347, Note_on_c, 1, 52, 0
2, 15360, Note_on_c, 1, 57, 80
2, 15815, Note_on_c, 1, 57, 0
2, 15840, Note_on_c, 1, 60, 80
2, 15840, Note_on_c, 1, 64, 80
2, 16067, Note_on_c, 1, 60, 0
2, 16067, Note_on_c, 1, 64, 0
2, 16080, Note_on_c, 1, 57, 80
2, 16307, Note_on_c, 1, 57, 0
2, 16320, Note_on_c, 1, 53, 80
2, 16559, Note_on_c, 1, 53, 0
2, 16800, Note_on_c, 1, 57, 80
2, 16800, Note_on_c, 1, 60, 80
2, 17027, Note_on_c, 1, 57, 0
2, 17027, Note_on_c, 1, 60, 0
2, 17040, Note_on_c, 1, 53, 80
2, 17267, Note_on_c, 1, 53, 0
2, 17280, Note_on_c, 1, 50, 80
2, 17735, Note_on_c, 1, 50, 0
2, 17760, Note_on_c, 1, 53, 80
2, 17760, Note_on_c, 1, 57, 80
2, 17987, Note_on_c, 1, 53, 0
2, 17987, Note_on_c, 1, 57, 0
2, 18000, Note_on_c, 1, 50, 80
2, 18227, Note_on_c, 1, 50, 0
2, 18240, Note_on_c, 1, 52, 80
2, 18695, Note_on_c, 1, 52, 0
2, 18720, Note_on_c, 1, 59, 80
2, 18947, Note_on_c, 1, 59, 0
2, 18960, Note_on_c, 1, 52, 80
2, 19187, Note_on_c, 1, 52, 0
2, 19200, Note_on_c, 1, 57, 80
2, 19439, Note_on_c, 1, 57, 0
2, 19680, Note_on_c, 1, 60, 80
2, 19680, Note_on_c, 1, 64, 80
2, 19907, Note_on_c, 1, 60, 0
2, 19907, Note_on_c, 1, 64, 0
2, 19920, Note_on_c, 1, 57, 80
2, 20147, Note_on_c, 1, 57, 0
2, 20160, Note_on_c, 1, 53, 80
2, 20399, Note_on_c, 1, 53, 0
2, 20640, Note_on_c, 1, 57, 80
2, 20640, Note_on_c, 1, 60, 80
2, 20867, Note_on_c, 1, 57, 0
2, 20867, Note_on_c, 1, 60, 0
2, 20880, Note_on_c, 1, 53, 80
2, 21107, Note_on_c, 1, 53, 0
2, 21120, Note_on_c, 1, 50, 80
2, 21359, Note_on_c, 1, 50, 0
2, 21600, Note_on_c, 1, 53, 80
2, 21600, Note_on_c, 1, 57, 80
2, 21827, Note_on_c, 1, 53, 0
2, 21827, Note_on_c, 1, 57, 0
2, 21840, Note_on_c, 1, 50, 80
2, 22067, Note_on_c, 1, 50, 0
2, 22080, Note_on_c, 1, 52, 80
2, 22319, Note_on_c, 1, 52, 0
2, 22560, Note_on_c, 1, 59, 80
2, 22787, Note_on_c, 1, 59, 0
2, 22800, Note_on_c, 1, 52, 80
2, 23027, Note_on_c, 1, 52, 0
2, 23040, Note_on_c, 1, 52, 80
2, 23040, Note_on_c, 1, 57, 80
2, 23495, Note_on_c, 1, 52, 0
2, 23495, Note_on_c, 1, 57, 0
2, 24480, Note_on_c, 1, 52, 80
2, 24707, Note_on_c, 1, 52, 0
2, 24720, Note_on_c, 1, 53, 80
2, 24947, Note_on_c, 1, 53, 0
2, 24960, Note_on_c, 1, 57, 80
2, 24960, Note_on_c, 1, 62, 80
2, 24960, Note_on_c, 1, 65, 80
2, 25643, Note_on_c, 1, 57, 0
2, 25643, Note_on_c, 1, 62, 0
2, 25643, Note_on_c, 1, 65, 0
2, 25680, Note_on_c, 1, 59, 80
2, 25680, Note_on_c, 1, 64, 80
2, 26249, Note_on_c, 1, 59, 0
2, 26249, Note_on_c, 1, 64, 0
2, 26400, Note_on_c, 1, 52, 80
2, 26513, Note_on_c, 1, 52, 0
2, 26520, Note_on_c, 1, 53, 80
2, 26633, Note_on_c, 1, 53, 0
2, 26640, Note_on_c, 1, 52, 80
2, 26867, Note_on_c, 1, 52, 0
2, 26880, Note_on_c, 1, 57, 80
2, 26880, Note_on_c, 1, 60, 80
2, 26880, Note_on_c, 1, 64, 80
2, 27335, Note_on_c, 1, 57, 0
2, 27335, Note_on_c, 1, 60, 0
2, 27335, Note_on_c, 1, 64, 0
2, 27360, Note_on_c, 1, 52, 80
2, 27587, Note_on_c, 1, 52, 0
2, 27600, Note_on_c, 1, 53, 80
2, 27600, Note_on_c, 1, 57, 80
2, 27600, Note_on_c, 1, 60, 80
2, 28169, Note_on_c, 1, 53, 0
2, 28169, Note_on_c, 1, 57, 0
2, 28169, Note_on_c, 1, 60, 0
2, 28320, Note_on_c, 1, 52, 80
2, 28547, Note_on_c, 1, 52, 0
2, 28560, Note_on_c, 1, 53, 80
2, 28787, Note_on_c, 1, 53, 0
2, 28800, Note_on_c, 1, 53, 80
2, 28800, Note_on_c, 1, 57, 80
2, 28800, Note_on_c, 1, 62, 80
2, 29483, Note_on_c, 1, 53, 0
2, 29483, Note_on_c, 1, 57, 0
2, 29483, Note_on_c, 1, 62, 0
2, 29520, Note_on_c, 1, 52, 80
2, 29520, Note_on_c, 1, 59, 80
2, 30089, Note_on_c, 1, 52, 0
2, 30089, Note_on_c, 1, 59, 0
2, 30240, Note_on_c, 1, 52, 80
2, 30467, Note_on_c, 1, 52, 0
2, 30480, Note_on_c, 1, 53, 80
2, 30707, Note_on_c, 1, 53, 0
2, 30720, Note_on_c, 1, 57, 80
2, 30720, Note_on_c, 1, 60, 80
2, 30720, Note_on_c, 1, 64, 80
2, 31175, Note_on_c, 1, 57, 0
2, 31175, Note_on_c, 1, 60, 0
2, 31175, Note_on_c, 1, 64, 0
2, 31200, Note_on_c, 1, 52, 80
2, 31427, Note_on_c, 1, 52, 0
2, 31440, Note_on_c, 1, 53, 80
2, 31667, Note_on_c, 1, 53, 0
2, 31680, Note_on_c, 1, 57, 80
2, 32135, Note_on_c, 1, 57, 0
2, 32160, Note_on_c, 1, 52, 80
2, 32387, Note_on_c, 1, 52, 0
2, 32400, Note_on_c, 1, 53, 80
2, 32627, Note_on_c, 1, 53, 0
2, 32640, Note_on_c, 1, 53, 80
2, 32640, Note_on_c, 1, 57, 80
2, 32640, Note_on_c, 1, 62, 80
2, 33323, Note_on_c, 1, 53, 0
2, 33323, Note_on_c, 1, 57, 0
2, 33323, Note_on_c, 1, 62, 0
2, 33360, Note_on_c, 1, 52, 80
2, 33360, Note_on_c, 1, 59, 80
2, 33929, Note_on_c, 1, 52, 0
2, 33929, Note_on_c, 1, 59, 0
2, 34080, Note_on_c, 1, 52, 80
2, 34193, Note_on_c, 1, 52, 0
2, 34200, Note_on_c, 1, 53, 80
2, 34313, Note_on_c, 1, 53, 0
2, 34320, Note_on_c, 1, 52, 80
2, 34547, Note_on_c, 1, 52, 0
2, 34560, Note_on_c, 1, 57, 80
2, 34560, Note_on_c, 1, 60, 80
2, 34560, Note_on_c, 1, 64, 80
2, 35015, Note_on_c, 1, 57, 0
2, 35015, Note_on_c, 1, 60, 0
2, 35015, Note_on_c, 1, 64, 0
2, 35040, Note_on_c, 1, 52, 80
2, 35267, Note_on_c, 1, 52, 0
2, 35280, Note_on_c, 1, 53, 80
2, 35280, Note_on_c, 1, 57, 80
2, 35280, Note_on_c, 1, 60, 80
2, 35849, Note_on_c, 1, 53, 0
2, 35849, Note_on_c, 1, 57, 0
2, 35849, Note_on_c, 1, 60, 0
2, 36000, Note_on_c, 1, 52, 80
2, 36227, Note_on_c, 1, 52, 0
2, 36240, Note_on_c, 1, 53, 80
2, 36467, Note_on_c, 1, 53, 0
2, 36480, Note_on_c, 1, 53, 80
2, 36480, Note_on_c, 1, 57, 80
2, 36480, Note_on_c, 1, 62, 80
2, 37163, Note_on_c, 1, 53, 0
2, 37163, Note_on_c, 1, 57, 0
2, 37163, Note_on_c, 1, 62, 0
2, 37200, Note_on_c, 1, 52, 80
2, 37200, Note_on_c, 1, 59, 80
2, 38225, Note_on_c, 1, 52, 0
2, 38225, Note_on_c, 1, 59, 0
2, 38400, Note_on_c, 1, 52, 80
2, 38400, Note_on_c, 1, 57, 80
2, 40223, Note_on_c, 1, 52, 0
2, 40223, Note_on_c, 1, 57, 0
2, 40320, Note_on_c, 1, 57, 80
2, 40775, Note_on_c, 1, 57, 0
2, 42240, Note_on_c, 1, 57, 80
2, 43151, Note_on_c, 1, 57, 0
2, 43200, Note_on_c, 1, 53, 80
2, 44111, Note_on_c, 1, 53, 0
2, 44160, Note_on_c, 1, 50, 80
2, 45071, Note_on_c, 1, 50, 0
2, 45120, Note_on_c, 1, 52, 80
2, 46031, Note_on_c, 1, 52, 0
2, 46080, Note_on_c, 1, 57, 80
2, 46991, Note_on_c, 1, 57, 0
2, 47040, Note_on_c, 1, 53, 80
2, 47951, Note_on_c, 1, 53, 0
2, 48000, Note_on_c, 1, 50, 80
2, 48911, Note_on_c, 1, 50, 0
2, 48960, Note_on_c, 1, 52, 80
2, 49871, Note_on_c, 1, 52, 0
2, 49920, Note_on_c, 1, 57, 80
2, 50375, Note_on_c, 1, 57, 0
2, 50400, Note_on_c, 1, 60, 80
2, 50400, Note_on_c, 1, 64, 80
2, 50627, Note_on_c, 1, 60, 0
2, 50627, Note_on_c, 1, 64, 0
2, 50640, Note_on_c, 1, 57, 80
2, 50867, Note_on_c, 1, 57, 0
2, 50880, Note_on_c, 1, 53, 80
2, 51119, Note_on_c, 1, 53, 0
2, 51360, Note_on_c, 1, 57, 80
2, 51360, Note_on_c, 1, 60, 80
2, 51587, Note_on_c, 1, 57, 0
2, 51587, Note_on_c, 1, 60, 0
2, 51600, Note_on_c, 1, 53, 80
2, 51827, Note_on_c, 1, 53, 0
2, 51840, Note_on_c, 1, 50, 80
2, 52079, Note_on_c, 1, 50, 0
2, 52320, Note_on_c, 1, 53, 80
2, 52320, Note_on_c, 1, 57, 80
2, 52547, Note_on_c, 1, 53, 0
2, 52547, Note_on_c, 1, 57, 0
2, 52560, Note_on_c, 1, 50, 80
2, 52787, Note_on_c, 1, 50, 0
2, 52800, Note_on_c, 1, 52, 80
2, 53039, Note_on_c, 1, 52, 0
2, 53280, Note_on_c, 1, 55, 80
2, 53280, Note_on_c, 1, 59, 80
2, 53507, Note_on_c, 1, 55, 0
2, 53507, Note_on_c, 1, 59, 0
2, 53520, Note_on_c, 1, 52, 80
2, 53747, Note_on_c, 1, 52, 0
2, 53760, Note_on_c, 1, 57, 80
2, 53999, Note_on_c, 1, 57, 0
2, 54240, Note_on_c, 1, 60, 80
2, 54467, Note_on_c, 1, 60, 0
2, 54480, Note_on_c, 1, 57, 80
2, 54707, Note_on_c, 1, 57, 0
2, 54720, Note_on_c, 1, 53, 80
2, 54959, Note_on_c, 1, 53, 0
2, 55200, Note_on_c, 1, 57, 80
2, 55200, Note_on_c, 1, 60, 80
2, 55427, Note_on_c, 1, 57, 0
2, 55427, Note_on_c, 1, 60, 0
2, 55440, Note_on_c, 1, 53, 80
2, 55667, Note_on_c, 1, 53, 0
2, 55680, Note_on_c, 1, 50, 80
2, 55919, Note_on_c, 1, 50, 0
2, 56160, Note_on_c, 1, 53, 80
2, 56160, Note_on_c, 1, 57, 80
2, 56387, Note_on_c, 1, 53, 0
2, 56387, Note_on_c, 1, 57, 0
2, 56400, Note_on_c, 1, 50, 80
2, 56627, Note_on_c, 1, 50, 0
2, 56640, Note_on_c, 1, 52, 80
2, 56879, Note_on_c, 1, 52, 0
2, 57120, Note_on_c, 1, 59, 80
2, 57347, Note_on_c, 1, 59, 0
2, 57360, Note_on_c, 1, 52, 80
2, 57587, Note_on_c, 1, 52, 0
2, 57600, Note_on_c, 1, 57, 80
2, 58055, Note_on_c, 1, 57, 0
2, 58080, Note_on_c, 1, 60, 80
2, 58080, Note_on_c, 1, 64, 80
2, 58307, Note_on_c, 1, 60, 0
2, 58307, Note_on_c, 1, 64, 0
2, 58320, Note_on_c, 1, 57, 80
2, 58547, Note_on_c, 1, 57, 0
2, 58560, Note_on_c, 1, 53, 80
2, 58799, Note_on_c, 1, 53, 0
2, 59040, Note_on_c, 1, 57, 80
2, 59040, Note_on_c, 1, 60, 80
2, 59267, Note_on_c, 1, 57, 0
2, 59267, Note_on_c, 1, 60, 0
2, 59280, Note_on_c, 1, 53, 80
2, 59507, Note_on_c, 1, 53, 0
2, 59520, Note_on_c, 1, 50, 80
2, 59759, Note_on_c, 1, 50, 0
2, 60000, Note_on_c, 1, 53, 80
2, 60000, Note_on_c, 1, 57, 80
2, 60227, Note_on_c, 1, 53, 0
2, 60227, Note_on_c, 1, 57, 0
2, 60240, Note_on_c, 1, 50, 80
2, 60467, Note_on_c, 1, 50, 0
2, 60480, Note_on_c, 1, 52, 80
2, 60719, Note_on_c, 1, 52, 0
2, 60960, Note_on_c, 1, 55, 80
2, 60960, Note_on_c, 1, 59, 80
2, 61187, Note_on_c, 1, 55, 0
2, 61187, Note_on_c, 1, 59, 0
2, 61200, Note_on_c, 1, 52, 80
2, 61427, Note_on_c, 1, 52, 0
2, 61440, Note_on_c, 1, 57, 80
2, 61679, Note_on_c, 1, 57, 0
2, 61920, Note_on_c, 1, 60, 80
2, 62147, Note_on_c, 1, 60, 0
2, 62160, Note_on_c, 1, 57, 80
2, 62387, Note_on_c, 1, 57, 0
2, 62400, Note_on_c, 1, 53, 80
2, 62639, Note_on_c, 1, 53, 0
2, 62880, Note_on_c, 1, 57, 80
2, 62880, Note_on_c, 1, 60, 80
2, 63107, Note_on_c, 1, 57, 0
2, 63107, Note_on_c, 1, 60, 0
2, 63120, Note_on_c, 1, 53, 80
2, 63347, Note_on_c, 1, 53, 0
2, 63360, Note_on_c, 1, 50, 80
2, 63599, Note_on_c, 1, 50, 0
2, 63840, Note_on_c, 1, 53, 80
2, 63840, Note_on_c, 1, 57, 80
2, 64067, Note_on_c, 1, 53, 0
2, 64067, Note_on_c, 1, 57, 0
2, 64080, Note_on_c, 1, 50, 80
2, 64307, Note_on_c, 1, 50, 0
2, 64320, Note_on_c, 1, 52, 80
2, 64559, Note_on_c, 1, 52, 0
2, 64800, Note_on_c, 1, 59, 80
2, 65027, Note_on_c, 1, 59, 0
2, 65040, Note_on_c, 1, 52, 80
2, 65267, Note_on_c, 1, 52, 0
2, 65280, Note_on_c, 1, 52, 80
2, 65280, Note_on_c, 1, 57, 80
2, 65735, Note_on_c, 1, 52, 0
2, 65735, Note_on_c, 1, 57, 0
2, 66720, Note_on_c, 1, 52, 80
2, 66947, Note_on_c, 1, 52, 0
2, 66960, Note_on_c, 1, 53, 80
2, 67187, Note_on_c, 1, 53, 0
2, 67200, Note_on_c, 1, 57, 80
2, 67200, Note_on_c, 1, 62, 80
2, 67200, Note_on_c, 1, 65, 80
2, 67883, Note_on_c, 1, 57, 0
2, 67883, Note_on_c, 1, 62, 0
2, 67883, Note_on_c, 1, 65, 0
2, 67920, Note_on_c, 1, 59, 80
2, 67920, Note_on_c, 1, 64, 80
2, 68489, Note_on_c, 1, 59, 0
2, 68489, Note_on_c, 1, 64, 0
2, 68640, Note_on_c, 1, 52, 80
2, 68753, Note_on_c, 1, 52, 0
2, 68760, Note_on_c, 1, 53, 80
2, 68873, Note_on_c, 1, 53, 0
2, 68880, Note_on_c, 1, 52, 80
2, 69107, Note_on_c, 1, 52, 0
2, 69120, Note_on_c, 1, 57, 80
2, 69120, Note_on_c, 1, 60, 80
2, 69120, Note_on_c, 1, 64, 80
2, 69575, Note_on_c, 1, 57, 0
2, 69575, Note_on_c, 1, 60, 0
2, 69575, Note_on_c, 1, 64, 0
2, 69600, Note_on_c, 1, 52, 80
2, 69827, Note_on_c, 1, 52, 0
2, 69840, Note_on_c, 1, 53, 80
2, 69840, Note_on_c, 1, 57, 80
2, 69840, Note_on_c, 1, 60, 80
2, 70409, Note_on_c, 1, 53, 0
2, 70409, Note_on_c, 1, 57, 0
2, 70409, Note_on_c, 1, 60, 0
2, 70560, Note_on_c, 1, 52, 80
2, 70787, Note_on_c, 1, 52, 0
2, 70800, Note_on_c, 1, 53, 80
2, 71027, Note_on_c, 1, 53, 0
2, 71040, Note_on_c, 1, 53, 80
2, 71040, Note_on_c, 1, 57, 80
2, 71040, Note_on_c, 1, 62, 80
2, 71723, Note_on_c, 1, 53, 0
2, 71723, Note_on_c, 1, 57, 0
2, 71723, Note_on_c, 1, 62, 0
2, 71760, Note_on_c, 1, 52, 80
2, 71760, Note_on_c, 1, 59, 80
2, 72329, Note_on_c, 1, 52, 0
2, 72329, Note_on_c, 1, 59, 0
2, 72480, Note_on_c, 1, 52, 80
2, 72707, Note_on_c, 1, 52, 0
2, 72720, Note_on_c, 1, 53, 80
2, 72947, Note_on_c, 1, 53, 0
2, 72960, Note_on_c, 1, 57, 80
2, 72960, Note_on_c, 1, 60, 80
2, 72960, Note_on_c, 1, 64, 80
2, 73415, Note_on_c, 1, 57, 0
2, 73415, Note_on_c, 1, 60, 0
2, 73415, Note_on_c, 1, 64, 0
2, 73440, Note_on_c, 1, 52, 80
2, 73667, Note_on_c, 1, 52, 0
2, 73680, Note_on_c, 1, 53, 80
2, 73907, Note_on_c, 1, 53, 0
2, 73920, Note_on_c, 1, 57, 80
2, 74375, Note_on_c, 1, 57, 0
2, 74400, Note_on_c, 1, 52, 80
2, 74627, Note_on_c, 1, 52, 0
2, 74640, Note_on_c, 1, 53, 80
2, 74867, Note_on_c, 1, 53, 0
2, 74880, Note_on_c, 1, 53, 80
2, 74880, Note_on_c, 1, 57, 80
2, 74880, Note_on_c, 1, 62, 80
2, 75563, Note_on_c, 1, 53, 0
2, 75563, Note_on_c, 1, 57, 0
2, 75563, Note_on_c, 1, 62, 0
2, 75600, Note_on_c, 1, 52, 80
2, 75600, Note_on_c, 1, 59, 80
2, 76169, Note_on_c, 1, 52, 0
2, 76169, Note_on_c, 1, 59, 0
2, 76320, Note_on_c, 1, 52, 80
2, 76433, Note_on_c, 1, 52, 0
2, 76440, Note_on_c, 1, 53, 80
2, 76553, Note_on_c, 1, 53, 0
2, 76560, Note_on_c, 1, 52, 80
2, 76787, Note_on_c, 1, 52, 0
2, 76800, Note_on_c, 1, 57, 80
2, 76800, Note_on_c, 1, 60, 80
2, 76800, Note_on_c, 1, 64, 80
2, 77255, Note_on_c, 1, 57, 0
2, 77255, Note_on_c, 1, 60, 0
2, 77255, Note_on_c, 1, 64, 0
2, 77280, Note_on_c, 1, 52, 80
2, 77507, Note_on_c, 1, 52, 0
2, 77520, Note_on_c, 1, 53, 80
2, 77520, Note_on_c, 1, 57, 80
2, 77520, Note_on_c, 1, 60, 80
2, 78089, Note_on_c, 1, 53, 0
2, 78089, Note_on_c, 1, 57, 0
2, 78089, Note_on_c, 1, 60, 0
2, 78240, Note_on_c, 1, 52, 80
2, 78467, Note_on_c, 1, 52, 0
2, 78480, Note_on_c, 1, 53, 80
2, 78707, Note_on_c, 1, 53, 0
2, 78720, Note_on_c, 1, 53, 80
2, 78720, Note_on_c, 1, 57, 80
2, 78720, Note_on_c, 1, 62, 80
2, 79403, Note_on_c, 1, 53, 0
2, 79403, Note_on_c, 1, 57, 0
2, 79403, Note_on_c, 1, 62, 0
2, 79440, Note_on_c, 1, 52, 80
2, 79440, Note_on_c, 1, 59, 80
2, 80465, Note_on_c, 1, 52, 0
2, 80465, Note_on_c, 1, 59, 0
2, 80640, Note_on_c, 1, 57, 80
2, 81551, Note_on_c, 1, 57, 0
2, 81600, Note_on_c, 1, 53, 80
2, 82511, Note_on_c, 1, 53, 0
2, 82560, Note_on_c, 1, 50, 80
2, 83471, Note_on_c, 1, 50, 0
2, 83520, Note_on_c, 1, 52, 80
2, 84431, Note_on_c, 1, 52, 0
2, 84480, Note_on_c, 1, 57, 80
2, 85391, Note_on_c, 1, 57, 0
2, 85440, Note_on_c, 1, 53, 80
2, 86351, Note_on_c, 1, 53, 0
2, 86400, Note_on_c, 1, 50, 80
2, 87311, Note_on_c, 1, 50, 0
2, 87360, Note_on_c, 1, 52, 80
2, 88271, Note_on_c, 1, 52, 0
2, 88320, Note_on_c, 1, 57, 80
2, 89231, Note_on_c, 1, 57, 0
2, 89280, Note_on_c, 1, 53, 80
2, 90191, Note_on_c, 1, 53, 0
2, 90240, Note_on_c, 1, 50, 80
2, 91151, Note_on_c, 1, 50, 0
2, 91200, Note_on_c, 1, 52, 80
2, 92111, Note_on_c, 1, 52, 0
2, 92160, Note_on_c, 1, 57, 80
2, 93071, Note_on_c, 1, 57, 0
2, 93120, Note_on_c, 1, 53, 80
2, 94031, Note_on_c, 1, 53, 0
2, 94080, Note_on_c, 1, 71, 80
2, 95903, Note_on_c, 1, 71, 0
2, 95904, End_track
3, 0, Start_track
3, 0, Title_t, "Electric Bass, Bass\000"
3, 0, Key_signature, 0, "major"
3, 0, Control_c, 5, 121, 0
3, 0, Program_c, 5, 33
3, 0, Control_c, 5, 7, 100
3, 0, Control_c, 5, 10, 64
3, 0, Control_c, 5, 91, 0
3, 0, Control_c, 5, 93, 0
3, 0, MIDI_port, 0
3, 0, Control_c, 3, 121, 0
3, 0, Program_c, 3, 36
3, 0, Control_c, 3, 7, 100
3, 0, Control_c, 3, 10, 64
3, 0, Control_c, 3, 91, 0
3, 0, Control_c, 3, 93, 0
3, 0, MIDI_port, 0
3, 0, Control_c, 4, 121, 0
3, 0, Program_c, 4, 37
3, 0, Control_c, 4, 7, 100
3, 0, Control_c, 4, 10, 64
3, 0, Control_c, 4, 91, 0
3, 0, Control_c, 4, 93, 0
3, 0, MIDI_port, 0
3, 7680, Note_on_c, 5, 57, 80
3, 8399, Note_on_c, 5, 57, 0
3, 8400, Note_on_c, 5, 57, 80
3, 8639, Note_on_c, 5, 57, 0
3, 8640, Note_on_c, 5, 53, 80
3, 9359, Note_on_c, 5, 53, 0
3, 9360, Note_on_c, 5, 53, 80
3, 9599, Note_on_c, 5, 53, 0
3, 9600, Note_on_c, 5, 50, 80
3, 10319, Note_on_c, 5, 50, 0
3, 10320, Note_on_c, 5, 50, 80
3, 10559, Note_on_c, 5, 50, 0
3, 10560, Note_on_c, 5, 52, 80
3, 11519, Note_on_c, 5, 52, 0
3, 11520, Note_on_c, 5, 57, 80
3, 12239, Note_on_c, 5, 57, 0
3, 12240, Note_on_c, 5, 57, 80
3, 12479, Note_on_c, 5, 57, 0
3, 12480, Note_on_c, 5, 53, 80
3, 13199, Note_on_c, 5, 53, 0
3, 13200, Note_on_c, 5, 53, 80
3, 13439, Note_on_c, 5, 53, 0
3, 13440, Note_on_c, 5, 50, 80
3, 14159, Note_on_c, 5, 50, 0
3, 14160, Note_on_c, 5, 50, 80
3, 14399, Note_on_c, 5, 50, 0
3, 14400, Note_on_c, 5, 52, 80
3, 15119, Note_on_c, 5, 52, 0
3, 15120, Note_on_c, 5, 52, 80
3, 15359, Note_on_c, 5, 52, 0
3, 15360, Note_on_c, 5, 57, 80
3, 16079, Note_on_c, 5, 57, 0
3, 16080, Note_on_c, 5, 57, 80
3, 16319, Note_on_c, 5, 57, 0
3, 16320, Note_on_c, 5, 53, 80
3, 17039, Note_on_c, 5, 53, 0
3, 17040, Note_on_c, 5, 53, 80
3, 17279, Note_on_c, 5, 53, 0
3, 17280, Note_on_c, 5, 50, 80
3, 17999, Note_on_c, 5, 50, 0
3, 18000, Note_on_c, 5, 50, 80
3, 18239, Note_on_c, 5, 50, 0
3, 18240, Note_on_c, 5, 52, 80
3, 19199, Note_on_c, 5, 52, 0
3, 19200, Note_on_c, 5, 57, 80
3, 19919, Note_on_c, 5, 57, 0
3, 19920, Note_on_c, 5, 57, 80
3, 20159, Note_on_c, 5, 57, 0
3, 20160, Note_on_c, 5, 53, 80
3, 20879, Note_on_c, 5, 53, 0
3, 20880, Note_on_c, 5, 53, 80
3, 21119, Note_on_c, 5, 53, 0
3, 21120, Note_on_c, 5, 50, 80
3, 21839, Note_on_c, 5, 50, 0
3, 21840, Note_on_c, 5, 50, 80
3, 22079, Note_on_c, 5, 50, 0
3, 22080, Note_on_c, 5, 52, 80
3, 23039, Note_on_c, 5, 52, 0
3, 23040, Note_on_c, 5, 57, 80
3, 23759, Note_on_c, 5, 57, 0
3, 23760, Note_on_c, 5, 57, 80
3, 24719, Note_on_c, 5, 57, 0
3, 24960, Note_on_c, 5, 50, 80
3, 25679, Note_on_c, 5, 50, 0
3, 25680, Note_on_c, 5, 52, 80
3, 26639, Note_on_c, 5, 52, 0
3, 26880, Note_on_c, 5, 57, 80
3, 27359, Note_on_c, 5, 57, 0
3, 27360, Note_on_c, 5, 52, 80
3, 27599, Note_on_c, 5, 52, 0
3, 27600, Note_on_c, 5, 53, 80
3, 27839, Note_on_c, 5, 53, 0
3, 28800, Note_on_c, 5, 53, 80
3, 29519, Note_on_c, 5, 53, 0
3, 29520, Note_on_c, 5, 52, 80
3, 30479, Note_on_c, 5, 52, 0
3, 30720, Note_on_c, 5, 57, 80
3, 31439, Note_on_c, 5, 57, 0
3, 31440, Note_on_c, 5, 53, 80
3, 31919, Note_on_c, 5, 53, 0
3, 32160, Note_on_c, 5, 52, 80
3, 32639, Note_on_c, 5, 52, 0
3, 32640, Note_on_c, 5, 50, 80
3, 33359, Note_on_c, 5, 50, 0
3, 33360, Note_on_c, 5, 52, 80
3, 34319, Note_on_c, 5, 52, 0
3, 34560, Note_on_c, 5, 57, 80
3, 35039, Note_on_c, 5, 57, 0
3, 35040, Note_on_c, 5, 52, 80
3, 35279, Note_on_c, 5, 52, 0
3, 35280, Note_on_c, 5, 53, 80
3, 35999, Note_on_c, 5, 53, 0
3, 36000, Note_on_c, 5, 52, 80
3, 36479, Note_on_c, 5, 52, 0
3, 36480, Note_on_c, 5, 53, 80
3, 37199, Note_on_c, 5, 53, 0
3, 37200, Note_on_c, 5, 52, 80
3, 38159, Note_on_c, 5, 52, 0
3, 38400, Note_on_c, 5, 57, 80
3, 40319, Note_on_c, 5, 57, 0
3, 40320, Note_on_c, 5, 59, 80
3, 42239, Note_on_c, 5, 59, 0
3, 49920, Note_on_c, 5, 57, 80
3, 50639, Note_on_c, 5, 57, 0
3, 50640, Note_on_c, 5, 57, 80
3, 50879, Note_on_c, 5, 57, 0
3, 50880, Note_on_c, 5, 53, 80
3, 51599, Note_on_c, 5, 53, 0
3, 51600, Note_on_c, 5, 53, 80
3, 51839, Note_on_c, 5, 53, 0
3, 51840, Note_on_c, 5, 50, 80
3, 52559, Note_on_c, 5, 50, 0
3, 52560, Note_on_c, 5, 50, 80
3, 52799, Note_on_c, 5, 50, 0
3, 52800, Note_on_c, 5, 52, 80
3, 53759, Note_on_c, 5, 52, 0
3, 53760, Note_on_c, 5, 57, 80
3, 54479, Note_on_c, 5, 57, 0
3, 54480, Note_on_c, 5, 57, 80
3, 54719, Note_on_c, 5, 57, 0
3, 54720, Note_on_c, 5, 53, 80
3, 55439, Note_on_c, 5, 53, 0
3, 55440, Note_on_c, 5, 53, 80
3, 55679, Note_on_c, 5, 53, 0
3, 55680, Note_on_c, 5, 50, 80
3, 56399, Note_on_c, 5, 50, 0
3, 56400, Note_on_c, 5, 50, 80
3, 56639, Note_on_c, 5, 50, 0
3, 56640, Note_on_c, 5, 52, 80
3, 57359, Note_on_c, 5, 52, 0
3, 57360, Note_on_c, 5, 52, 80
3, 57599, Note_on_c, 5, 52, 0
3, 57600, Note_on_c, 5, 57, 80
3, 58319, Note_on_c, 5, 57, 0
3, 58320, Note_on_c, 5, 57, 80
3, 58559, Note_on_c, 5, 57, 0
3, 58560, Note_on_c, 5, 53, 80
3, 59279, Note_on_c, 5, 53, 0
3, 59280, Note_on_c, 5, 53, 80
3, 59519, Note_on_c, 5, 53, 0
3, 59520, Note_on_c, 5, 50, 80
3, 60239, Note_on_c, 5, 50, 0
3, 60240, Note_on_c, 5, 50, 80
3, 60479, Note_on_c, 5, 50, 0
3, 60480, Note_on_c, 5, 52, 80
3, 61439, Note_on_c, 5, 52, 0
3, 61440, Note_on_c, 5, 57, 80
3, 62159, Note_on_c, 5, 57, 0
3, 62160, Note_on_c, 5, 57, 80
3, 62399, Note_on_c, 5, 57, 0
3, 62400, Note_on_c, 5, 53, 80
3, 63119, Note_on_c, 5, 53, 0
3, 63120, Note_on_c, 5, 53, 80
3, 63359, Note_on_c, 5, 53, 0
3, 63360, Note_on_c, 5, 50, 80
3, 64079, Note_on_c, 5, 50, 0
3, 64080, Note_on_c, 5, 50, 80
3, 64319, Note_on_c, 5, 50, 0
3, 64320, Note_on_c, 5, 52, 80
3, 65039, Note_on_c, 5, 52, 0
3, 65040, Note_on_c, 5, 52, 80
3, 65279, Note_on_c, 5, 52, 0
3, 65280, Note_on_c, 5, 57, 80
3, 65999, Note_on_c, 5, 57, 0
3, 66000, Note_on_c, 5, 57, 80
3, 66959, Note_on_c, 5, 57, 0
3, 67200, Note_on_c, 5, 50, 80
3, 67919, Note_on_c, 5, 50, 0
3, 67920, Note_on_c, 5, 52, 80
3, 68879, Note_on_c, 5, 52, 0
3, 69120, Note_on_c, 5, 57, 80
3, 69599, Note_on_c, 5, 57, 0
3, 69600, Note_on_c, 5, 52, 80
3, 69839, Note_on_c, 5, 52, 0
3, 69840, Note_on_c, 5, 53, 80
3, 70079, Note_on_c, 5, 53, 0
3, 71040, Note_on_c, 5, 53, 80
3, 71759, Note_on_c, 5, 53, 0
3, 71760, Note_on_c, 5, 52, 80
3, 72719, Note_on_c, 5, 52, 0
3, 72960, Note_on_c, 5, 57, 80
3, 73679, Note_on_c, 5, 57, 0
3, 73680, Note_on_c, 5, 53, 80
3, 74159, Note_on_c, 5, 53, 0
3, 74400, Note_on_c, 5, 52, 80
3, 74879, Note_on_c, 5, 52, 0
3, 74880, Note_on_c, 5, 50, 80
3, 75599, Note_on_c, 5, 50, 0
3, 75600, Note_on_c, 5, 52, 80
3, 76559, Note_on_c, 5, 52, 0
3, 76800, Note_on_c, 5, 57, 80
3, 77279, Note_on_c, 5, 57, 0
3, 77280, Note_on_c, 5, 52, 80
3, 77519, Note_on_c, 5, 52, 0
3, 77520, Note_on_c, 5, 53, 80
3, 78239, Note_on_c, 5, 53, 0
3, 78240, Note_on_c, 5, 52, 80
3, 78719, Note_on_c, 5, 52, 0
3, 78720, Note_on_c, 5, 53, 80
3, 79439, Note_on_c, 5, 53, 0
3, 79440, Note_on_c, 5, 52, 80
3, 80399, Note_on_c, 5, 52, 0
3, 80400, End_track
4, 0, Start_track
4, 0, Title_t, "Bell\000"
4, 0, Key_signature, 0, "major"
4, 0, Control_c, 7, 121, 0
4, 0, Program_c, 7, 14
4, 0, Control_c, 7, 7, 100
4, 0, Control_c, 7, 10, 64
4, 0, Control_c, 7, 91, 0
4, 0, Control_c, 7, 93, 0
4, 0, MIDI_port, 0
4, 1, End_track
5, 0, Start_track
5, 0, Title_t, "Classical Guitar, Acoustic Guitar, Acoustic Guitar\000"
5, 0, Key_signature, 0, "major"
5, 0, Control_c, 2, 121, 0
5, 0, Program_c, 2, 24
5, 0, Control_c, 2, 7, 100
5, 0, Control_c, 2, 10, 64
5, 0, Control_c, 2, 91, 0
5, 0, Control_c, 2, 93, 0
5, 0, MIDI_port, 0
5, 0, Control_c, 6, 121, 0
5, 0, Program_c, 6, 28
5, 0, Control_c, 6, 7, 100
5, 0, Control_c, 6, 10, 64
5, 0, Control_c, 6, 91, 0
5, 0, Control_c, 6, 93, 0
5, 0, MIDI_port, 0
5, 42480, Note_on_c, 2, 52, 64
5, 42599, Note_on_c, 2, 52, 0
5, 42600, Note_on_c, 2, 57, 64
5, 42839, Note_on_c, 2, 57, 0
5, 42840, Note_on_c, 2, 59, 64
5, 42959, Note_on_c, 2, 59, 0
5, 42960, Note_on_c, 2, 57, 64
5, 43199, Note_on_c, 2, 57, 0
5, 43440, Note_on_c, 2, 53, 64
5, 43559, Note_on_c, 2, 53, 0
5, 43560, Note_on_c, 2, 57, 64
5, 43799, Note_on_c, 2, 57, 0
5, 43800, Note_on_c, 2, 59, 64
5, 43919, Note_on_c, 2, 59, 0
5, 43920, Note_on_c, 2, 57, 64
5, 44159, Note_on_c, 2, 57, 0
5, 44400, Note_on_c, 2, 52, 64
5, 44519, Note_on_c, 2, 52, 0
5, 44520, Note_on_c, 2, 53, 64
5, 44759, Note_on_c, 2, 53, 0
5, 44760, Note_on_c, 2, 57, 64
5, 44879, Note_on_c, 2, 57, 0
5, 44880, Note_on_c, 2, 53, 64
5, 45119, Note_on_c, 2, 53, 0
5, 45360, Note_on_c, 2, 52, 64
5, 45479, Note_on_c, 2, 52, 0
5, 45480, Note_on_c, 2, 53, 64
5, 45719, Note_on_c, 2, 53, 0
5, 45720, Note_on_c, 2, 57, 64
5, 45839, Note_on_c, 2, 57, 0
5, 45840, Note_on_c, 2, 52, 64
5, 46079, Note_on_c, 2, 52, 0
5, 46320, Note_on_c, 2, 52, 64
5, 46439, Note_on_c, 2, 52, 0
5, 46440, Note_on_c, 2, 57, 64
5, 46679, Note_on_c, 2, 57, 0
5, 46680, Note_on_c, 2, 59, 64
5, 46799, Note_on_c, 2, 59, 0
5, 46800, Note_on_c, 2, 57, 64
5, 47039, Note_on_c, 2, 57, 0
5, 47280, Note_on_c, 2, 53, 64
5, 47399, Note_on_c, 2, 53, 0
5, 47400, Note_on_c, 2, 57, 64
5, 47639, Note_on_c, 2, 57, 0
5, 47640, Note_on_c, 2, 59, 64
5, 47759, Note_on_c, 2, 59, 0
5, 47760, Note_on_c, 2, 57, 64
5, 47999, Note_on_c, 2, 57, 0
5, 48240, Note_on_c, 2, 52, 64
5, 48359, Note_on_c, 2, 52, 0
5, 48360, Note_on_c, 2, 53, 64
5, 48599, Note_on_c, 2, 53, 0
5, 48600, Note_on_c, 2, 57, 64
5, 48719, Note_on_c, 2, 57, 0
5, 48720, Note_on_c, 2, 53, 64
5, 48959, Note_on_c, 2, 53, 0
5, 49200, Note_on_c, 2, 52, 64
5, 49319, Note_on_c, 2, 52, 0
5, 49320, Note_on_c, 2, 53, 64
5, 49559, Note_on_c, 2, 53, 0
5, 49560, Note_on_c, 2, 57, 64
5, 49679, Note_on_c, 2, 57, 0
5, 49680, Note_on_c, 2, 52, 64
5, 49919, Note_on_c, 2, 52, 0
5, 50160, Note_on_c, 2, 52, 64
5, 50279, Note_on_c, 2, 52, 0
5, 50280, Note_on_c, 2, 57, 64
5, 50519, Note_on_c, 2, 57, 0
5, 50520, Note_on_c, 2, 59, 64
5, 50639, Note_on_c, 2, 59, 0
5, 50640, Note_on_c, 2, 57, 64
5, 50879, Note_on_c, 2, 57, 0
5, 51120, Note_on_c, 2, 53, 64
5, 51239, Note_on_c, 2, 53, 0
5, 51240, Note_on_c, 2, 57, 64
5, 51479, Note_on_c, 2, 57, 0
5, 51480, Note_on_c, 2, 59, 64
5, 51599, Note_on_c, 2, 59, 0
5, 51600, Note_on_c, 2, 57, 64
5, 51839, Note_on_c, 2, 57, 0
5, 52080, Note_on_c, 2, 52, 64
5, 52199, Note_on_c, 2, 52, 0
5, 52200, Note_on_c, 2, 53, 64
5, 52439, Note_on_c, 2, 53, 0
5, 52440, Note_on_c, 2, 57, 64
5, 52559, Note_on_c, 2, 57, 0
5, 52560, Note_on_c, 2, 53, 64
5, 52799, Note_on_c, 2, 53, 0
5, 53040, Note_on_c, 2, 52, 64
5, 53159, Note_on_c, 2, 52, 0
5, 53160, Note_on_c, 2, 53, 64
5, 53399, Note_on_c, 2, 53, 0
5, 53400, Note_on_c, 2, 57, 80
5, 53519, Note_on_c, 2, 57, 0
5, 53520, Note_on_c, 2, 52, 64
5, 53759, Note_on_c, 2, 52, 0
5, 54000, Note_on_c, 2, 52, 64
5, 54119, Note_on_c, 2, 52, 0
5, 54120, Note_on_c, 2, 57, 64
5, 54359, Note_on_c, 2, 57, 0
5, 54360, Note_on_c, 2, 59, 64
5, 54479, Note_on_c, 2, 59, 0
5, 54480, Note_on_c, 2, 57, 64
5, 54719, Note_on_c, 2, 57, 0
5, 54960, Note_on_c, 2, 53, 64
5, 55079, Note_on_c, 2, 53, 0
5, 55080, Note_on_c, 2, 57, 64
5, 55319, Note_on_c, 2, 57, 0
5, 55320, Note_on_c, 2, 59, 64
5, 55439, Note_on_c, 2, 59, 0
5, 55440, Note_on_c, 2, 57, 64
5, 55679, Note_on_c, 2, 57, 0
5, 55920, Note_on_c, 2, 52, 64
5, 56039, Note_on_c, 2, 52, 0
5, 56040, Note_on_c, 2, 53, 64
5, 56279, Note_on_c, 2, 53, 0
5, 56280, Note_on_c, 2, 57, 64
5, 56399, Note_on_c, 2, 57, 0
5, 56400, Note_on_c, 2, 53, 64
5, 56639, Note_on_c, 2, 53, 0
5, 56880, Note_on_c, 2, 52, 64
5, 56999, Note_on_c, 2, 52, 0
5, 57000, Note_on_c, 2, 53, 64
5, 57239, Note_on_c, 2, 53, 0
5, 57240, Note_on_c, 2, 57, 80
5, 57359, Note_on_c, 2, 57, 0
5, 57360, Note_on_c, 2, 52, 64
5, 57599, Note_on_c, 2, 52, 0
5, 57840, Note_on_c, 2, 52, 64
5, 57959, Note_on_c, 2, 52, 0
5, 57960, Note_on_c, 2, 57, 64
5, 58199, Note_on_c, 2, 57, 0
5, 58200, Note_on_c, 2, 59, 64
5, 58319, Note_on_c, 2, 59, 0
5, 58320, Note_on_c, 2, 57, 64
5, 58559, Note_on_c, 2, 57, 0
5, 58800, Note_on_c, 2, 53, 64
5, 58919, Note_on_c, 2, 53, 0
5, 58920, Note_on_c, 2, 57, 64
5, 59159, Note_on_c, 2, 57, 0
5, 59160, Note_on_c, 2, 59, 64
5, 59279, Note_on_c, 2, 59, 0
5, 59280, Note_on_c, 2, 57, 64
5, 59519, Note_on_c, 2, 57, 0
5, 59760, Note_on_c, 2, 52, 64
5, 59879, Note_on_c, 2, 52, 0
5, 59880, Note_on_c, 2, 53, 64
5, 60119, Note_on_c, 2, 53, 0
5, 60120, Note_on_c, 2, 57, 64
5, 60239, Note_on_c, 2, 57, 0
5, 60240, Note_on_c, 2, 53, 64
5, 60479, Note_on_c, 2, 53, 0
5, 60720, Note_on_c, 2, 52, 64
5, 60839, Note_on_c, 2, 52, 0
5, 60840, Note_on_c, 2, 53, 64
5, 61079, Note_on_c, 2, 53, 0
5, 61080, Note_on_c, 2, 57, 80
5, 61199, Note_on_c, 2, 57, 0
5, 61200, Note_on_c, 2, 52, 64
5, 61439, Note_on_c, 2, 52, 0
5, 61680, Note_on_c, 2, 52, 64
5, 61799, Note_on_c, 2, 52, 0
5, 61800, Note_on_c, 2, 57, 64
5, 62039, Note_on_c, 2, 57, 0
5, 62040, Note_on_c, 2, 59, 64
5, 62159, Note_on_c, 2, 59, 0
5, 62160, Note_on_c, 2, 57, 64
5, 62399, Note_on_c, 2, 57, 0
5, 62640, Note_on_c, 2, 53, 64
5, 62759, Note_on_c, 2, 53, 0
5, 62760, Note_on_c, 2, 57, 64
5, 62999, Note_on_c, 2, 57, 0
5, 63000, Note_on_c, 2, 59, 64
5, 63119, Note_on_c, 2, 59, 0
5, 63120, Note_on_c, 2, 57, 64
5, 63359, Note_on_c, 2, 57, 0
5, 63600, Note_on_c, 2, 52, 64
5, 63719, Note_on_c, 2, 52, 0
5, 63720, Note_on_c, 2, 53, 64
5, 63959, Note_on_c, 2, 53, 0
5, 63960, Note_on_c, 2, 57, 64
5, 64079, Note_on_c, 2, 57, 0
5, 64080, Note_on_c, 2, 53, 64
5, 64319, Note_on_c, 2, 53, 0
5, 64560, Note_on_c, 2, 52, 64
5, 64679, Note_on_c, 2, 52, 0
5, 64680, Note_on_c, 2, 53, 64
5, 64919, Note_on_c, 2, 53, 0
5, 64920, Note_on_c, 2, 57, 80
5, 65039, Note_on_c, 2, 57, 0
5, 65040, Note_on_c, 2, 52, 64
5, 65279, Note_on_c, 2, 52, 0
5, 65520, Note_on_c, 2, 52, 64
5, 65639, Note_on_c, 2, 52, 0
5, 65640, Note_on_c, 2, 57, 64
5, 65879, Note_on_c, 2, 57, 0
5, 65880, Note_on_c, 2, 59, 64
5, 65999, Note_on_c, 2, 59, 0
5, 66000, Note_on_c, 2, 57, 64
5, 66239, Note_on_c, 2, 57, 0
5, 66480, Note_on_c, 2, 52, 64
5, 66599, Note_on_c, 2, 52, 0
5, 66600, Note_on_c, 2, 57, 64
5, 66839, Note_on_c, 2, 57, 0
5, 66840, Note_on_c, 2, 60, 64
5, 66959, Note_on_c, 2, 60, 0
5, 66960, Note_on_c, 2, 57, 64
5, 67199, Note_on_c, 2, 57, 0
5, 67440, Note_on_c, 2, 53, 64
5, 67559, Note_on_c, 2, 53, 0
5, 67560, Note_on_c, 2, 62, 64
5, 67799, Note_on_c, 2, 62, 0
5, 67800, Note_on_c, 2, 65, 64
5, 67919, Note_on_c, 2, 65, 0
5, 67920, Note_on_c, 2, 62, 64
5, 68159, Note_on_c, 2, 62, 0
5, 68400, Note_on_c, 2, 53, 64
5, 68519, Note_on_c, 2, 53, 0
5, 68520, Note_on_c, 2, 57, 64
5, 68759, Note_on_c, 2, 57, 0
5, 68760, Note_on_c, 2, 60, 64
5, 68879, Note_on_c, 2, 60, 0
5, 68880, Note_on_c, 2, 57, 64
5, 69119, Note_on_c, 2, 57, 0
5, 69360, Note_on_c, 2, 52, 64
5, 69479, Note_on_c, 2, 52, 0
5, 69480, Note_on_c, 2, 57, 64
5, 69719, Note_on_c, 2, 57, 0
5, 69720, Note_on_c, 2, 59, 64
5, 69839, Note_on_c, 2, 59, 0
5, 69840, Note_on_c, 2, 57, 64
5, 70079, Note_on_c, 2, 57, 0
5, 70320, Note_on_c, 2, 53, 64
5, 70439, Note_on_c, 2, 53, 0
5, 70440, Note_on_c, 2, 57, 64
5, 70679, Note_on_c, 2, 57, 0
5, 70680, Note_on_c, 2, 59, 64
5, 70799, Note_on_c, 2, 59, 0
5, 70800, Note_on_c, 2, 57, 64
5, 71039, Note_on_c, 2, 57, 0
5, 71280, Note_on_c, 2, 52, 64
5, 71399, Note_on_c, 2, 52, 0
5, 71400, Note_on_c, 2, 53, 64
5, 71639, Note_on_c, 2, 53, 0
5, 71640, Note_on_c, 2, 57, 64
5, 71759, Note_on_c, 2, 57, 0
5, 71760, Note_on_c, 2, 53, 64
5, 71999, Note_on_c, 2, 53, 0
5, 72240, Note_on_c, 2, 52, 64
5, 72359, Note_on_c, 2, 52, 0
5, 72360, Note_on_c, 2, 53, 64
5, 72599, Note_on_c, 2, 53, 0
5, 72600, Note_on_c, 2, 57, 80
5, 72719, Note_on_c, 2, 57, 0
5, 72720, Note_on_c, 2, 52, 64
5, 72959, Note_on_c, 2, 52, 0
5, 73200, Note_on_c, 2, 52, 64
5, 73319, Note_on_c, 2, 52, 0
5, 73320, Note_on_c, 2, 57, 64
5, 73559, Note_on_c, 2, 57, 0
5, 73560, Note_on_c, 2, 59, 64
5, 73679, Note_on_c, 2, 59, 0
5, 73680, Note_on_c, 2, 57, 64
5, 73919, Note_on_c, 2, 57, 0
5, 74160, Note_on_c, 2, 52, 64
5, 74279, Note_on_c, 2, 52, 0
5, 74280, Note_on_c, 2, 57, 64
5, 74519, Note_on_c, 2, 57, 0
5, 74520, Note_on_c, 2, 60, 64
5, 74639, Note_on_c, 2, 60, 0
5, 74640, Note_on_c, 2, 57, 64
5, 74879, Note_on_c, 2, 57, 0
5, 75120, Note_on_c, 2, 53, 64
5, 75239, Note_on_c, 2, 53, 0
5, 75240, Note_on_c, 2, 62, 64
5, 75479, Note_on_c, 2, 62, 0
5, 75480, Note_on_c, 2, 65, 64
5, 75599, Note_on_c, 2, 65, 0
5, 75600, Note_on_c, 2, 62, 64
5, 75839, Note_on_c, 2, 62, 0
5, 76080, Note_on_c, 2, 53, 64
5, 76199, Note_on_c, 2, 53, 0
5, 76200, Note_on_c, 2, 57, 64
5, 76439, Note_on_c, 2, 57, 0
5, 76440, Note_on_c, 2, 60, 64
5, 76559, Note_on_c, 2, 60, 0
5, 76560, Note_on_c, 2, 57, 64
5, 76799, Note_on_c, 2, 57, 0
5, 77040, Note_on_c, 2, 52, 64
5, 77159, Note_on_c, 2, 52, 0
5, 77160, Note_on_c, 2, 57, 64
5, 77399, Note_on_c, 2, 57, 0
5, 77400, Note_on_c, 2, 59, 64
5, 77519, Note_on_c, 2, 59, 0
5, 77520, Note_on_c, 2, 57, 64
5, 77759, Note_on_c, 2, 57, 0
5, 78000, Note_on_c, 2, 53, 64
5, 78119, Note_on_c, 2, 53, 0
5, 78120, Note_on_c, 2, 57, 64
5, 78359, Note_on_c, 2, 57, 0
5, 78360, Note_on_c, 2, 59, 64
5, 78479, Note_on_c, 2, 59, 0
5, 78480, Note_on_c, 2, 57, 64
5, 78719, Note_on_c, 2, 57, 0
5, 80880, Note_on_c, 2, 52, 64
5, 80999, Note_on_c, 2, 52, 0
5, 81000, Note_on_c, 2, 57, 64
5, 81239, Note_on_c, 2, 57, 0
5, 81240, Note_on_c, 2, 59, 64
5, 81359, Note_on_c, 2, 59, 0
5, 81360, Note_on_c, 2, 57, 64
5, 81599, Note_on_c, 2, 57, 0
5, 81840, Note_on_c, 2, 53, 64
5, 81959, Note_on_c, 2, 53, 0
5, 81960, Note_on_c, 2, 57, 64
5, 82199, Note_on_c, 2, 57, 0
5, 82200, Note_on_c, 2, 59, 64
5, 82319, Note_on_c, 2, 59, 0
5, 82320, Note_on_c, 2, 57, 64
5, 82559, Note_on_c, 2, 57, 0
5, 82800, Note_on_c, 2, 52, 64
5, 82919, Note_on_c, 2, 52, 0
5, 82920, Note_on_c, 2, 53, 64
5, 83159, Note_on_c, 2, 53, 0
5, 83160, Note_on_c, 2, 57, 64
5, 83279, Note_on_c, 2, 57, 0
5, 83280, Note_on_c, 2, 53, 64
5, 83519, Note_on_c, 2, 53, 0
5, 83760, Note_on_c, 2, 52, 64
5, 83879, Note_on_c, 2, 52, 0
5, 83880, Note_on_c, 2, 53, 64
5, 84119, Note_on_c, 2, 53, 0
5, 84120, Note_on_c, 2, 57, 80
5, 84239, Note_on_c, 2, 57, 0
5, 84240, Note_on_c, 2, 52, 64
5, 84479, Note_on_c, 2, 52, 0
5, 84720, Note_on_c, 2, 52, 64
5, 84839, Note_on_c, 2, 52, 0
5, 84840, Note_on_c, 2, 57, 64
5, 85079, Note_on_c, 2, 57, 0
5, 85080, Note_on_c, 2, 59, 64
5, 85199, Note_on_c, 2, 59, 0
5, 85200, Note_on_c, 2, 57, 64
5, 85439, Note_on_c, 2, 57, 0
5, 85680, Note_on_c, 2, 53, 64
5, 85799, Note_on_c, 2, 53, 0
5, 85800, Note_on_c, 2, 57, 64
5, 86039, Note_on_c, 2, 57, 0
5, 86040, Note_on_c, 2, 59, 64
5, 86159, Note_on_c, 2, 59, 0
5, 86160, Note_on_c, 2, 57, 64
5, 86399, Note_on_c, 2, 57, 0
5, 86640, Note_on_c, 2, 52, 64
5, 86759, Note_on_c, 2, 52, 0
5, 86760, Note_on_c, 2, 53, 64
5, 86999, Note_on_c, 2, 53, 0
5, 87000, Note_on_c, 2, 57, 64
5, 87119, Note_on_c, 2, 57, 0
5, 87120, Note_on_c, 2, 53, 64
5, 87359, Note_on_c, 2, 53, 0
5, 87600, Note_on_c, 2, 52, 64
5, 87719, Note_on_c, 2, 52, 0
5, 87720, Note_on_c, 2, 53, 64
5, 87959, Note_on_c, 2, 53, 0
5, 87960, Note_on_c, 2, 57, 80
5, 88079, Note_on_c, 2, 57, 0
5, 88080, Note_on_c, 2, 52, 64
5, 88319, Note_on_c, 2, 52, 0
5, 88560, Note_on_c, 2, 52, 64
5, 88679, Note_on_c, 2, 52, 0
5, 88680, Note_on_c, 2, 57, 64
5, 88919, Note_on_c, 2, 57, 0
5, 88920, Note_on_c, 2, 59, 64
5, 89039, Note_on_c, 2, 59, 0
5, 89040, Note_on_c, 2, 57, 64
5, 89279, Note_on_c, 2, 57, 0
5, 89520, Note_on_c, 2, 53, 64
5, 89639, Note_on_c, 2, 53, 0
5, 89640, Note_on_c, 2, 57, 64
5, 89879, Note_on_c, 2, 57, 0
5, 89880, Note_on_c, 2, 59, 64
5, 89999, Note_on_c, 2, 59, 0
5, 90000, Note_on_c, 2, 57, 64
5, 90239, Note_on_c, 2, 57, 0
5, 90480, Note_on_c, 2, 52, 64
5, 90599, Note_on_c, 2, 52, 0
5, 90600, Note_on_c, 2, 53, 64
5, 90839, Note_on_c, 2, 53, 0
5, 90840, Note_on_c, 2, 57, 64
5, 90959, Note_on_c, 2, 57, 0
5, 90960, Note_on_c, 2, 53, 64
5, 91199, Note_on_c, 2, 53, 0
5, 91440, Note_on_c, 2, 52, 64
5, 91559, Note_on_c, 2, 52, 0
5, 91560, Note_on_c, 2, 53, 64
5, 91799, Note_on_c, 2, 53, 0
5, 91800, Note_on_c, 2, 57, 80
5, 91919, Note_on_c, 2, 57, 0
5, 91920, Note_on_c, 2, 52, 64
5, 92159, Note_on_c, 2, 52, 0
5, 92400, Note_on_c, 2, 52, 64
5, 92519, Note_on_c, 2, 52, 0
5, 92520, Note_on_c, 2, 57, 64
5, 92759, Note_on_c, 2, 57, 0
5, 92760, Note_on_c, 2, 59, 64
5, 92879, Note_on_c, 2, 59, 0
5, 92880, Note_on_c, 2, 57, 64
5, 93119, Note_on_c, 2, 57, 0
5, 93360, Note_on_c, 2, 53, 64
5, 93479, Note_on_c, 2, 53, 0
5, 93480, Note_on_c, 2, 57, 64
5, 93719, Note_on_c, 2, 57, 0
5, 93720, Note_on_c, 2, 59, 64
5, 93839, Note_on_c, 2, 59, 0
5, 93840, Note_on_c, 2, 57, 64
5, 94079, Note_on_c, 2, 57, 0
5, 94080, Note_on_c, 2, 50, 64
5, 94320, Note_on_c, 2, 53, 64
5, 94439, Note_on_c, 2, 53, 0
5, 94440, Note_on_c, 2, 60, 64
5, 94679, Note_on_c, 2, 60, 0
5, 94680, Note_on_c, 2, 62, 64
5, 95039, Note_on_c, 2, 50, 0
5, 95039, Note_on_c, 2, 62, 0
5, 95040, Note_on_c, 2, 52, 64
5, 95100, Note_on_c, 2, 59, 80
5, 95160, Note_on_c, 2, 64, 80
5, 95999, Note_on_c, 2, 52, 0
5, 95999, Note_on_c, 2, 59, 0
5, 95999, Note_on_c, 2, 64, 0
5, 96000, End_track
0, 0, End_of_file
