0, 0, Header, 1, 5, 480
1, 0, Start_track
1, 0, Title_t, "Piano, Piano\000"
1, 0, Time_signature, 4, 2, 24, 8
1, 0, Key_signature, 0, "major"
1, 0, Tempo, 545455
1, 0, Control_c, 0, 121, 0
1, 0, Program_c, 0, 0
1, 0, Control_c, 0, 7, 100
1, 0, Control_c, 0, 10, 64
1, 0, Control_c, 0, 91, 0
1, 0, Control_c, 0, 93, 0
1, 0, MIDI_port, 0
1, 480, Note_on_c, 0, 79, 80
1, 707, Note_on_c, 0, 79, 0
1, 720, Note_on_c, 0, 79, 80
1, 947, Note_on_c, 0, 79, 0
1, 960, Note_on_c, 0, 79, 80
1, 1643, Note_on_c, 0, 79, 0
1, 1680, Note_on_c, 0, 79, 80
1, 1793, Note_on_c, 0, 79, 0
1, 1800, Note_on_c, 0, 77, 80
1, 1913, Note_on_c, 0, 77, 0
1, 1920, Note_on_c, 0, 76, 80
1, 2261, Note_on_c, 0, 76, 0
1, 2280, Note_on_c, 0, 77, 80
1, 2393, Note_on_c, 0, 77, 0
1, 2400, Note_on_c, 0, 79, 80
1, 2627, Note_on_c, 0, 79, 0
1, 2640, Note_on_c, 0, 76, 80
1, 2867, Note_on_c, 0, 76, 0
1, 2880, Note_on_c, 0, 74, 80
1, 3335, Note_on_c, 0, 74, 0
1, 3360, Note_on_c, 0, 72, 80
1, 3587, Note_on_c, 0, 72, 0
1, 3600, Note_on_c, 0, 74, 80
1, 3827, Note_on_c, 0, 74, 0
1, 3840, Note_on_c, 0, 76, 80
1, 4067, Note_on_c, 0, 76, 0
1, 4080, Note_on_c, 0, 72, 80
1, 4307, Note_on_c, 0, 72, 0
1, 4320, Note_on_c, 0, 67, 80
1, 5231, Note_on_c, 0, 67, 0
1, 5760, Note_on_c, 0, 67, 80
1, 5760, Note_on_c, 0, 69, 80
1, 5760, Note_on_c, 0, 72, 80
1, 6671, Note_on_c, 0, 67, 0
1, 6671, Note_on_c, 0, 69, 0
1, 6671, Note_on_c, 0, 72, 0
1, 6720, Note_on_c, 0, 67, 80
1, 6720, Note_on_c, 0, 71, 80
1, 6720, Note_on_c, 0, 74, 80
1, 7631, Note_on_c, 0, 67, 0
1, 7631, Note_on_c, 0, 71, 0
1, 7631, Note_on_c, 0, 74, 0
1, 9600, Note_on_c, 0, 65, 80
1, 10283, Note_on_c, 0, 65, 0
1, 10320, Note_on_c, 0, 67, 80
1, 10547, Note_on_c, 0, 67, 0
1, 13440, Note_on_c, 0, 65, 80
1, 13895, Note_on_c, 0, 65, 0
1, 15840, Note_on_c, 0, 79, 80
1, 16067, Note_on_c, 0, 79, 0
1, 16080, Note_on_c, 0, 79, 80
1, 16307, Note_on_c, 0, 79, 0
1, 16320, Note_on_c, 0, 79, 80
1, 17003, Note_on_c, 0, 79, 0
1, 17040, Note_on_c, 0, 79, 80
1, 17153, Note_on_c, 0, 79, 0
1, 17160, Note_on_c, 0, 77, 80
1, 17273, Note_on_c, 0, 77, 0
1, 17280, Note_on_c, 0, 76, 80
1, 17621, Note_on_c, 0, 76, 0
1, 17640, Note_on_c, 0, 77, 80
1, 17753, Note_on_c, 0, 77, 0
1, 17760, Note_on_c, 0, 79, 80
1, 17987, Note_on_c, 0, 79, 0
1, 18000, Note_on_c, 0, 76, 80
1, 18227, Note_on_c, 0, 76, 0
1, 18240, Note_on_c, 0, 74, 80
1, 18695, Note_on_c, 0, 74, 0
1, 18720, Note_on_c, 0, 72, 80
1, 18947, Note_on_c, 0, 72, 0
1, 18960, Note_on_c, 0, 74, 80
1, 19187, Note_on_c, 0, 74, 0
1, 19200, Note_on_c, 0, 76, 80
1, 19427, Note_on_c, 0, 76, 0
1, 19440, Note_on_c, 0, 72, 80
1, 19667, Note_on_c, 0, 72, 0
1, 19680, Note_on_c, 0, 67, 80
1, 20591, Note_on_c, 0, 67, 0
1, 21120, Note_on_c, 0, 67, 80
1, 21347, Note_on_c, 0, 67, 0
1, 21360, Note_on_c, 0, 69, 80
1, 21587, Note_on_c, 0, 69, 0
1, 21600, Note_on_c, 0, 67, 80
1, 22055, Note_on_c, 0, 67, 0
1, 22320, Note_on_c, 0, 69, 80
1, 22547, Note_on_c, 0, 69, 0
1, 22560, Note_on_c, 0, 71, 80
1, 22787, Note_on_c, 0, 71, 0
1, 22800, Note_on_c, 0, 67, 80
1, 23027, Note_on_c, 0, 67, 0
1, 23520, Note_on_c, 0, 79, 80
1, 23747, Note_on_c, 0, 79, 0
1, 23760, Note_on_c, 0, 81, 80
1, 23987, Note_on_c, 0, 81, 0
1, 24000, Note_on_c, 0, 79, 80
1, 24683, Note_on_c, 0, 79, 0
1, 24720, Note_on_c, 0, 76, 80
1, 24833, Note_on_c, 0, 76, 0
1, 24840, Note_on_c, 0, 77, 80
1, 24953, Note_on_c, 0, 77, 0
1, 24960, Note_on_c, 0, 79, 80
1, 25187, Note_on_c, 0, 79, 0
1, 25200, Note_on_c, 0, 77, 80
1, 25313, Note_on_c, 0, 77, 0
1, 25320, Note_on_c, 0, 76, 80
1, 25433, Note_on_c, 0, 76, 0
1, 25440, Note_on_c, 0, 74, 80
1, 25667, Note_on_c, 0, 74, 0
1, 25680, Note_on_c, 0, 69, 80
1, 25907, Note_on_c, 0, 69, 0
1, 25920, Note_on_c, 0, 67, 80
1, 26375, Note_on_c, 0, 67, 0
1, 26400, Note_on_c, 0, 65, 80
1, 26627, Note_on_c, 0, 65, 0
1, 26640, Note_on_c, 0, 69, 80
1, 26867, Note_on_c, 0, 69, 0
1, 26880, Note_on_c, 0, 67, 80
1, 27107, Note_on_c, 0, 67, 0
1, 27120, Note_on_c, 0, 76, 80
1, 27347, Note_on_c, 0, 76, 0
1, 27360, Note_on_c, 0, 72, 80
1, 28271, Note_on_c, 0, 72, 0
1, 28800, Note_on_c, 0, 67, 80
1, 29027, Note_on_c, 0, 67, 0
1, 29040, Note_on_c, 0, 69, 80
1, 29267, Note_on_c, 0, 69, 0
1, 29280, Note_on_c, 0, 67, 80
1, 29735, Note_on_c, 0, 67, 0
1, 30000, Note_on_c, 0, 71, 80
1, 30227, Note_on_c, 0, 71, 0
1, 30240, Note_on_c, 0, 72, 80
1, 30695, Note_on_c, 0, 72, 0
1, 30960, Note_on_c, 0, 79, 80
1, 31073, Note_on_c, 0, 79, 0
1, 31080, Note_on_c, 0, 79, 80
1, 31421, Note_on_c, 0, 79, 0
1, 31440, Note_on_c, 0, 79, 80
1, 31895, Note_on_c, 0, 79, 0
1, 31920, Note_on_c, 0, 77, 80
1, 32375, Note_on_c, 0, 77, 0
1, 32400, Note_on_c, 0, 76, 80
1, 32627, Note_on_c, 0, 76, 0
1, 32640, Note_on_c, 0, 65, 80
1, 32640, Note_on_c, 0, 72, 80
1, 32867, Note_on_c, 0, 65, 0
1, 32867, Note_on_c, 0, 72, 0
1, 32880, Note_on_c, 0, 72, 80
1, 32993, Note_on_c, 0, 72, 0
1, 33000, Note_on_c, 0, 74, 80
1, 33341, Note_on_c, 0, 74, 0
1, 33360, Note_on_c, 0, 76, 80
1, 33416, Note_on_c, 0, 76, 0
1, 33420, Note_on_c, 0, 77, 80
1, 33818, Note_on_c, 0, 77, 0
1, 33840, Note_on_c, 0, 77, 80
1, 33896, Note_on_c, 0, 77, 0
1, 33900, Note_on_c, 0, 79, 80
1, 34298, Note_on_c, 0, 79, 0
1, 34800, Note_on_c, 0, 81, 80
1, 35027, Note_on_c, 0, 81, 0
1, 35040, Note_on_c, 0, 79, 80
1, 35153, Note_on_c, 0, 79, 0
1, 35160, Note_on_c, 0, 76, 80
1, 35387, Note_on_c, 0, 76, 0
1, 35400, Note_on_c, 0, 74, 80
1, 35855, Note_on_c, 0, 74, 0
1, 36000, Note_on_c, 0, 67, 80
1, 36240, Note_on_c, 0, 69, 80
1, 36353, Note_on_c, 0, 69, 0
1, 36360, Note_on_c, 0, 72, 80
1, 36455, Note_on_c, 0, 67, 0
1, 36473, Note_on_c, 0, 72, 0
1, 36480, Note_on_c, 0, 65, 80
1, 36707, Note_on_c, 0, 65, 0
1, 36720, Note_on_c, 0, 69, 80
1, 36947, Note_on_c, 0, 69, 0
1, 36960, Note_on_c, 0, 72, 80
1, 37073, Note_on_c, 0, 72, 0
1, 37080, Note_on_c, 0, 74, 80
1, 37193, Note_on_c, 0, 74, 0
1, 37200, Note_on_c, 0, 72, 80
1, 37655, Note_on_c, 0, 72, 0
1, 38640, Note_on_c, 0, 79, 80
1, 38753, Note_on_c, 0, 79, 0
1, 38760, Note_on_c, 0, 79, 80
1, 39101, Note_on_c, 0, 79, 0
1, 39120, Note_on_c, 0, 79, 80
1, 39575, Note_on_c, 0, 79, 0
1, 39600, Note_on_c, 0, 77, 80
1, 40055, Note_on_c, 0, 77, 0
1, 40080, Note_on_c, 0, 76, 80
1, 40307, Note_on_c, 0, 76, 0
1, 40320, Note_on_c, 0, 65, 80
1, 40320, Note_on_c, 0, 72, 80
1, 40547, Note_on_c, 0, 65, 0
1, 40547, Note_on_c, 0, 72, 0
1, 40560, Note_on_c, 0, 72, 80
1, 40673, Note_on_c, 0, 72, 0
1, 40680, Note_on_c, 0, 74, 80
1, 41021, Note_on_c, 0, 74, 0
1, 41040, Note_on_c, 0, 76, 80
1, 41096, Note_on_c, 0, 76, 0
1, 41100, Note_on_c, 0, 77, 80
1, 41498, Note_on_c, 0, 77, 0
1, 41520, Note_on_c, 0, 77, 80
1, 41576, Note_on_c, 0, 77, 0
1, 41580, Note_on_c, 0, 79, 80
1, 41978, Note_on_c, 0, 79, 0
1, 42480, Note_on_c, 0, 81, 80
1, 42707, Note_on_c, 0, 81, 0
1, 42720, Note_on_c, 0, 79, 80
1, 42833, Note_on_c, 0, 79, 0
1, 42840, Note_on_c, 0, 76, 80
1, 43067, Note_on_c, 0, 76, 0
1, 43080, Note_on_c, 0, 74, 80
1, 43535, Note_on_c, 0, 74, 0
1, 43680, Note_on_c, 0, 67, 80
1, 43920, Note_on_c, 0, 69, 80
1, 44033, Note_on_c, 0, 69, 0
1, 44040, Note_on_c, 0, 72, 80
1, 44135, Note_on_c, 0, 67, 0
1, 44153, Note_on_c, 0, 72, 0
1, 44160, Note_on_c, 0, 65, 80
1, 44387, Note_on_c, 0, 65, 0
1, 44400, Note_on_c, 0, 69, 80
1, 44627, Note_on_c, 0, 69, 0
1, 44640, Note_on_c, 0, 72, 80
1, 44753, Note_on_c, 0, 72, 0
1, 44760, Note_on_c, 0, 74, 80
1, 44873, Note_on_c, 0, 74, 0
1, 44880, Note_on_c, 0, 72, 80
1, 45335, Note_on_c, 0, 72, 0
1, 46080, Note_on_c, 0, 79, 80
1, 46307, Note_on_c, 0, 79, 0
1, 46320, Note_on_c, 0, 72, 80
1, 46547, Note_on_c, 0, 72, 0
1, 46560, Note_on_c, 0, 74, 80
1, 46787, Note_on_c, 0, 74, 0
1, 46800, Note_on_c, 0, 67, 80
1, 46913, Note_on_c, 0, 67, 0
1, 46920, Note_on_c, 0, 72, 80
1, 47147, Note_on_c, 0, 72, 0
1, 47160, Note_on_c, 0, 79, 80
1, 47387, Note_on_c, 0, 79, 0
1, 47400, Note_on_c, 0, 72, 80
1, 47513, Note_on_c, 0, 72, 0
1, 47520, Note_on_c, 0, 74, 80
1, 47633, Note_on_c, 0, 74, 0
1, 47640, Note_on_c, 0, 79, 80
1, 47981, Note_on_c, 0, 79, 0
1, 48000, Note_on_c, 0, 77, 80
1, 48227, Note_on_c, 0, 77, 0
1, 48240, Note_on_c, 0, 72, 80
1, 48467, Note_on_c, 0, 72, 0
1, 48480, Note_on_c, 0, 74, 80
1, 48707, Note_on_c, 0, 74, 0
1, 48720, Note_on_c, 0, 67, 80
1, 48833, Note_on_c, 0, 67, 0
1, 48840, Note_on_c, 0, 72, 80
1, 49067, Note_on_c, 0, 72, 0
1, 49080, Note_on_c, 0, 79, 80
1, 49307, Note_on_c, 0, 79, 0
1, 49320, Note_on_c, 0, 72, 80
1, 49433, Note_on_c, 0, 72, 0
1, 49440, Note_on_c, 0, 74, 80
1, 49553, Note_on_c, 0, 74, 0
1, 49560, Note_on_c, 0, 79, 80
1, 49673, Note_on_c, 0, 79, 0
1, 49680, Note_on_c, 0, 67, 80
1, 49907, Note_on_c, 0, 67, 0
1, 49920, Note_on_c, 0, 79, 80
1, 50147, Note_on_c, 0, 79, 0
1, 50160, Note_on_c, 0, 72, 80
1, 50387, Note_on_c, 0, 72, 0
1, 50400, Note_on_c, 0, 74, 80
1, 50627, Note_on_c, 0, 74, 0
1, 50640, Note_on_c, 0, 67, 80
1, 50753, Note_on_c, 0, 67, 0
1, 50760, Note_on_c, 0, 72, 80
1, 50987, Note_on_c, 0, 72, 0
1, 51000, Note_on_c, 0, 79, 80
1, 51227, Note_on_c, 0, 79, 0
1, 51240, Note_on_c, 0, 72, 80
1, 51353, Note_on_c, 0, 72, 0
1, 51360, Note_on_c, 0, 74, 80
1, 51473, Note_on_c, 0, 74, 0
1, 51480, Note_on_c, 0, 79, 80
1, 51821, Note_on_c, 0, 79, 0
1, 51840, Note_on_c, 0, 77, 80
1, 52067, Note_on_c, 0, 77, 0
1, 52080, Note_on_c, 0, 72, 80
1, 52307, Note_on_c, 0, 72, 0
1, 52320, Note_on_c, 0, 74, 80
1, 52547, Note_on_c, 0, 74, 0
1, 52560, Note_on_c, 0, 67, 80
1, 52673, Note_on_c, 0, 67, 0
1, 52680, Note_on_c, 0, 72, 80
1, 52907, Note_on_c, 0, 72, 0
1, 52920, Note_on_c, 0, 79, 80
1, 53147, Note_on_c, 0, 79, 0
1, 53160, Note_on_c, 0, 72, 80
1, 53273, Note_on_c, 0, 72, 0
1, 53280, Note_on_c, 0, 74, 80
1, 53393, Note_on_c, 0, 74, 0
1, 53400, Note_on_c, 0, 79, 80
1, 53513, Note_on_c, 0, 79, 0
1, 53520, Note_on_c, 0, 67, 80
1, 53747, Note_on_c, 0, 67, 0
1, 53760, Note_on_c, 0, 79, 80
1, 53987, Note_on_c, 0, 79, 0
1, 54000, Note_on_c, 0, 72, 80
1, 54227, Note_on_c, 0, 72, 0
1, 54240, Note_on_c, 0, 74, 80
1, 54467, Note_on_c, 0, 74, 0
1, 54480, Note_on_c, 0, 67, 80
1, 54593, Note_on_c, 0, 67, 0
1, 54600, Note_on_c, 0, 72, 80
1, 54827, Note_on_c, 0, 72, 0
1, 54840, Note_on_c, 0, 79, 80
1, 55067, Note_on_c, 0, 79, 0
1, 55080, Note_on_c, 0, 72, 80
1, 55193, Note_on_c, 0, 72, 0
1, 55200, Note_on_c, 0, 74, 80
1, 55313, Note_on_c, 0, 74, 0
1, 55320, Note_on_c, 0, 79, 80
1, 55661, Note_on_c, 0, 79, 0
1, 55680, Note_on_c, 0, 77, 80
1, 55907, Note_on_c, 0, 77, 0
1, 55920, Note_on_c, 0, 72, 80
1, 56147, Note_on_c, 0, 72, 0
1, 56160, Note_on_c, 0, 74, 80
1, 56387, Note_on_c, 0, 74, 0
1, 56400, Note_on_c, 0, 67, 80
1, 56513, Note_on_c, 0, 67, 0
1, 56520, Note_on_c, 0, 72, 80
1, 56747, Note_on_c, 0, 72, 0
1, 56760, Note_on_c, 0, 79, 80
1, 56987, Note_on_c, 0, 79, 0
1, 57000, Note_on_c, 0, 72, 80
1, 57113, Note_on_c, 0, 72, 0
1, 57120, Note_on_c, 0, 74, 80
1, 57233, Note_on_c, 0, 74, 0
1, 57240, Note_on_c, 0, 79, 80
1, 57353, Note_on_c, 0, 79, 0
1, 57360, Note_on_c, 0, 67, 80
1, 57587, Note_on_c, 0, 67, 0
1, 57600, Note_on_c, 0, 79, 80
1, 57827, Note_on_c, 0, 79, 0
1, 57840, Note_on_c, 0, 72, 80
1, 58067, Note_on_c, 0, 72, 0
1, 58080, Note_on_c, 0, 74, 80
1, 58307, Note_on_c, 0, 74, 0
1, 58320, Note_on_c, 0, 67, 80
1, 58433, Note_on_c, 0, 67, 0
1, 58440, Note_on_c, 0, 72, 80
1, 58667, Note_on_c, 0, 72, 0
1, 58680, Note_on_c, 0, 79, 80
1, 58907, Note_on_c, 0, 79, 0
1, 58920, Note_on_c, 0, 72, 80
1, 59033, Note_on_c, 0, 72, 0
1, 59040, Note_on_c, 0, 74, 80
1, 59153, Note_on_c, 0, 74, 0
1, 59160, Note_on_c, 0, 79, 80
1, 59501, Note_on_c, 0, 79, 0
1, 59520, Note_on_c, 0, 77, 80
1, 59747, Note_on_c, 0, 77, 0
1, 59760, Note_on_c, 0, 72, 80
1, 59987, Note_on_c, 0, 72, 0
1, 60000, Note_on_c, 0, 74, 80
1, 60227, Note_on_c, 0, 74, 0
1, 60240, Note_on_c, 0, 67, 80
1, 60353, Note_on_c, 0, 67, 0
1, 60360, Note_on_c, 0, 72, 80
1, 60587, Note_on_c, 0, 72, 0
1, 60600, Note_on_c, 0, 79, 80
1, 60827, Note_on_c, 0, 79, 0
1, 60840, Note_on_c, 0, 72, 80
1, 60953, Note_on_c, 0, 72, 0
1, 60960, Note_on_c, 0, 74, 80
1, 61073, Note_on_c, 0, 74, 0
1, 61080, Note_on_c, 0, 79, 80
1, 61193, Note_on_c, 0, 79, 0
1, 61200, Note_on_c, 0, 67, 80
1, 61427, Note_on_c, 0, 67, 0
1, 61440, Note_on_c, 0, 67, 80
1, 61667, Note_on_c, 0, 67, 0
1, 61680, Note_on_c, 0, 72, 80
1, 61907, Note_on_c, 0, 72, 0
1, 61920, Note_on_c, 0, 76, 80
1, 62147, Note_on_c, 0, 76, 0
1, 62160, Note_on_c, 0, 79, 80
1, 62387, Note_on_c, 0, 79, 0
1, 63360, Note_on_c, 0, 69, 80
1, 63587, Note_on_c, 0, 69, 0
1, 63600, Note_on_c, 0, 72, 80
1, 63827, Note_on_c, 0, 72, 0
1, 63840, Note_on_c, 0, 77, 80
1, 64067, Note_on_c, 0, 77, 0
1, 64080, Note_on_c, 0, 79, 80
1, 64535, Note_on_c, 0, 79, 0
1, 64560, Note_on_c, 0, 74, 80
1, 64787, Note_on_c, 0, 74, 0
1, 64800, Note_on_c, 0, 79, 80
1, 65255, Note_on_c, 0, 79, 0
1, 65280, Note_on_c, 0, 79, 80
1, 65507, Note_on_c, 0, 79, 0
1, 65520, Note_on_c, 0, 76, 80
1, 65747, Note_on_c, 0, 76, 0
1, 65760, Note_on_c, 0, 77, 80
1, 65987, Note_on_c, 0, 77, 0
1, 66000, Note_on_c, 0, 74, 80
1, 66227, Note_on_c, 0, 74, 0
1, 66240, Note_on_c, 0, 76, 80
1, 66467, Note_on_c, 0, 76, 0
1, 66480, Note_on_c, 0, 72, 80
1, 66707, Note_on_c, 0, 72, 0
1, 66720, Note_on_c, 0, 74, 80
1, 66947, Note_on_c, 0, 74, 0
1, 66960, Note_on_c, 0, 69, 80
1, 67073, Note_on_c, 0, 69, 0
1, 67140, Note_on_c, 0, 65, 80
1, 67196, Note_on_c, 0, 65, 0
1, 67200, Note_on_c, 0, 67, 80
1, 67427, Note_on_c, 0, 67, 0
1, 67440, Note_on_c, 0, 64, 80
1, 67591, Note_on_c, 0, 64, 0
1, 67600, Note_on_c, 0, 65, 80
1, 67675, Note_on_c, 0, 65, 0
1, 67680, Note_on_c, 0, 67, 80
1, 67831, Note_on_c, 0, 67, 0
1, 67840, Note_on_c, 0, 81, 80
1, 68143, Note_on_c, 0, 81, 0
1, 68160, Note_on_c, 0, 79, 80
1, 68615, Note_on_c, 0, 79, 0
1, 69120, Note_on_c, 0, 67, 80
1, 69347, Note_on_c, 0, 67, 0
1, 69360, Note_on_c, 0, 72, 80
1, 69587, Note_on_c, 0, 72, 0
1, 69600, Note_on_c, 0, 76, 80
1, 69827, Note_on_c, 0, 76, 0
1, 69840, Note_on_c, 0, 79, 80
1, 70067, Note_on_c, 0, 79, 0
1, 71040, Note_on_c, 0, 69, 80
1, 71267, Note_on_c, 0, 69, 0
1, 71280, Note_on_c, 0, 72, 80
1, 71507, Note_on_c, 0, 72, 0
1, 71520, Note_on_c, 0, 77, 80
1, 71747, Note_on_c, 0, 77, 0
1, 71760, Note_on_c, 0, 79, 80
1, 72215, Note_on_c, 0, 79, 0
1, 72240, Note_on_c, 0, 74, 80
1, 72467, Note_on_c, 0, 74, 0
1, 72480, Note_on_c, 0, 79, 80
1, 72935, Note_on_c, 0, 79, 0
1, 72960, Note_on_c, 0, 79, 80
1, 73187, Note_on_c, 0, 79, 0
1, 73200, Note_on_c, 0, 76, 80
1, 73427, Note_on_c, 0, 76, 0
1, 73440, Note_on_c, 0, 77, 80
1, 73667, Note_on_c, 0, 77, 0
1, 73680, Note_on_c, 0, 74, 80
1, 73907, Note_on_c, 0, 74, 0
1, 73920, Note_on_c, 0, 76, 80
1, 74147, Note_on_c, 0, 76, 0
1, 74160, Note_on_c, 0, 72, 80
1, 74387, Note_on_c, 0, 72, 0
1, 74400, Note_on_c, 0, 74, 80
1, 74627, Note_on_c, 0, 74, 0
1, 74640, Note_on_c, 0, 69, 80
1, 74753, Note_on_c, 0, 69, 0
1, 74820, Note_on_c, 0, 65, 80
1, 74876, Note_on_c, 0, 65, 0
1, 74880, Note_on_c, 0, 67, 80
1, 75107, Note_on_c, 0, 67, 0
1, 75120, Note_on_c, 0, 64, 80
1, 75271, Note_on_c, 0, 64, 0
1, 75280, Note_on_c, 0, 65, 80
1, 75355, Note_on_c, 0, 65, 0
1, 75360, Note_on_c, 0, 67, 80
1, 75511, Note_on_c, 0, 67, 0
1, 75520, Note_on_c, 0, 81, 80
1, 75823, Note_on_c, 0, 81, 0
1, 75840, Note_on_c, 0, 79, 80
1, 76295, Note_on_c, 0, 79, 0
1, 77040, Note_on_c, 0, 79, 80
1, 77153, Note_on_c, 0, 79, 0
1, 77160, Note_on_c, 0, 79, 80
1, 77501, Note_on_c, 0, 79, 0
1, 77520, Note_on_c, 0, 79, 80
1, 77975, Note_on_c, 0, 79, 0
1, 78000, Note_on_c, 0, 77, 80
1, 78455, Note_on_c, 0, 77, 0
1, 78480, Note_on_c, 0, 76, 80
1, 78707, Note_on_c, 0, 76, 0
1, 78720, Note_on_c, 0, 72, 80
1, 78947, Note_on_c, 0, 72, 0
1, 78960, Note_on_c, 0, 72, 80
1, 79073, Note_on_c, 0, 72, 0
1, 79080, Note_on_c, 0, 74, 80
1, 79421, Note_on_c, 0, 74, 0
1, 79440, Note_on_c, 0, 76, 80
1, 79496, Note_on_c, 0, 76, 0
1, 79500, Note_on_c, 0, 77, 80
1, 79898, Note_on_c, 0, 77, 0
1, 79920, Note_on_c, 0, 77, 80
1, 79976, Note_on_c, 0, 77, 0
1, 79980, Note_on_c, 0, 79, 80
1, 80378, Note_on_c, 0, 79, 0
1, 80880, Note_on_c, 0, 81, 80
1, 81107, Note_on_c, 0, 81, 0
1, 81120, Note_on_c, 0, 79, 80
1, 81233, Note_on_c, 0, 79, 0
1, 81240, Note_on_c, 0, 76, 80
1, 81467, Note_on_c, 0, 76, 0
1, 81480, Note_on_c, 0, 74, 80
1, 81935, Note_on_c, 0, 74, 0
1, 82080, Note_on_c, 0, 67, 80
1, 82320, Note_on_c, 0, 69, 80
1, 82433, Note_on_c, 0, 69, 0
1, 82440, Note_on_c, 0, 72, 80
1, 82535, Note_on_c, 0, 67, 0
1, 82781, Note_on_c, 0, 72, 0
1, 82800, Note_on_c, 0, 69, 80
1, 83027, Note_on_c, 0, 69, 0
1, 83040, Note_on_c, 0, 72, 80
1, 83153, Note_on_c, 0, 72, 0
1, 83160, Note_on_c, 0, 74, 80
1, 83273, Note_on_c, 0, 74, 0
1, 83280, Note_on_c, 0, 72, 80
1, 83735, Note_on_c, 0, 72, 0
1, 84720, Note_on_c, 0, 79, 80
1, 84833, Note_on_c, 0, 79, 0
1, 84840, Note_on_c, 0, 79, 80
1, 85181, Note_on_c, 0, 79, 0
1, 85200, Note_on_c, 0, 79, 80
1, 85655, Note_on_c, 0, 79, 0
1, 85680, Note_on_c, 0, 77, 80
1, 86135, Note_on_c, 0, 77, 0
1, 86160, Note_on_c, 0, 76, 80
1, 86387, Note_on_c, 0, 76, 0
1, 86400, Note_on_c, 0, 72, 80
1, 86627, Note_on_c, 0, 72, 0
1, 86640, Note_on_c, 0, 72, 80
1, 86753, Note_on_c, 0, 72, 0
1, 86760, Note_on_c, 0, 74, 80
1, 87101, Note_on_c, 0, 74, 0
1, 87120, Note_on_c, 0, 76, 80
1, 87176, Note_on_c, 0, 76, 0
1, 87180, Note_on_c, 0, 77, 80
1, 87578, Note_on_c, 0, 77, 0
1, 87600, Note_on_c, 0, 77, 80
1, 87656, Note_on_c, 0, 77, 0
1, 87660, Note_on_c, 0, 79, 80
1, 88058, Note_on_c, 0, 79, 0
1, 88560, Note_on_c, 0, 81, 80
1, 88787, Note_on_c, 0, 81, 0
1, 88800, Note_on_c, 0, 79, 80
1, 88913, Note_on_c, 0, 79, 0
1, 88920, Note_on_c, 0, 76, 80
1, 89147, Note_on_c, 0, 76, 0
1, 89160, Note_on_c, 0, 74, 80
1, 89615, Note_on_c, 0, 74, 0
1, 89760, Note_on_c, 0, 67, 80
1, 90000, Note_on_c, 0, 69, 80
1, 90113, Note_on_c, 0, 69, 0
1, 90120, Note_on_c, 0, 72, 80
1, 90215, Note_on_c, 0, 67, 0
1, 90461, Note_on_c, 0, 72, 0
1, 90480, Note_on_c, 0, 69, 80
1, 90707, Note_on_c, 0, 69, 0
1, 90720, Note_on_c, 0, 72, 80
1, 90833, Note_on_c, 0, 72, 0
1, 90840, Note_on_c, 0, 74, 80
1, 90953, Note_on_c, 0, 74, 0
1, 90960, Note_on_c, 0, 72, 80
1, 91415, Note_on_c, 0, 72, 0
1, 91680, Note_on_c, 0, 67, 80
1, 91907, Note_on_c, 0, 67, 0
1, 91920, Note_on_c, 0, 69, 80
1, 92033, Note_on_c, 0, 69, 0
1, 92040, Note_on_c, 0, 72, 80
1, 92153, Note_on_c, 0, 72, 0
1, 92160, Note_on_c, 0, 65, 80
1, 92387, Note_on_c, 0, 65, 0
1, 92400, Note_on_c, 0, 69, 80
1, 92627, Note_on_c, 0, 69, 0
1, 92640, Note_on_c, 0, 72, 80
1, 92753, Note_on_c, 0, 72, 0
1, 92760, Note_on_c, 0, 74, 80
1, 92873, Note_on_c, 0, 74, 0
1, 92880, Note_on_c, 0, 72, 80
1, 93335, Note_on_c, 0, 72, 0
1, 93360, Note_on_c, 0, 76, 80
1, 93815, Note_on_c, 0, 76, 0
1, 93840, Note_on_c, 0, 77, 80
1, 94067, Note_on_c, 0, 77, 0
1, 94080, Note_on_c, 0, 77, 80
1, 94307, Note_on_c, 0, 77, 0
1, 94320, Note_on_c, 0, 76, 80
1, 94433, Note_on_c, 0, 76, 0
1, 94440, Note_on_c, 0, 72, 80
1, 94667, Note_on_c, 0, 72, 0
1, 94680, Note_on_c, 0, 69, 80
1, 94793, Note_on_c, 0, 69, 0
1, 94800, Note_on_c, 0, 72, 80
1, 95255, Note_on_c, 0, 72, 0
1, 95280, Note_on_c, 0, 79, 80
1, 95963, Note_on_c, 0, 79, 0
1, 96000, Note_on_c, 0, 57, 80
1, 96000, Note_on_c, 0, 62, 80
1, 96000, Note_on_c, 0, 65, 80
1, 96683, Note_on_c, 0, 57, 0
1, 96683, Note_on_c, 0, 62, 0
1, 96683, Note_on_c, 0, 65, 0
1, 96720, Note_on_c, 0, 57, 80
1, 96720, Note_on_c, 0, 60, 80
1, 96720, Note_on_c, 0, 65, 80
1, 98771, Note_on_c, 0, 57, 0
1, 98771, Note_on_c, 0, 60, 0
1, 98771, Note_on_c, 0, 65, 0
1, 98880, Note_on_c, 0, 57, 80
1, 98880, Note_on_c, 0, 62, 80
1, 98880, Note_on_c, 0, 65, 80
1, 99563, Note_on_c, 0, 57, 0
1, 99563, Note_on_c, 0, 62, 0
1, 99563, Note_on_c, 0, 65, 0
1, 99600, Note_on_c, 0, 60, 80
1, 99600, Note_on_c, 0, 64, 80
1, 99600, Note_on_c, 0, 55, 80
1, 99827, Note_on_c, 0, 60, 0
1, 100055, Note_on_c, 0, 64, 0
1, 101651, Note_on_c, 0, 55, 0
1, 107520, Tempo, 750000
1, 109440, Key_signature, 0, "major"
1, 109440, Tempo, 530973
1, 116880, Note_on_c, 0, 64, 80
1, 117107, Note_on_c, 0, 64, 0
1, 117120, Note_on_c, 0, 60, 80
1, 117347, Note_on_c, 0, 60, 0
1, 117360, Note_on_c, 0, 72, 80
1, 117587, Note_on_c, 0, 72, 0
1, 117840, Note_on_c, 0, 72, 80
1, 118067, Note_on_c, 0, 72, 0
1, 118080, Note_on_c, 0, 71, 80
1, 118307, Note_on_c, 0, 71, 0
1, 118320, Note_on_c, 0, 72, 80
1, 118433, Note_on_c, 0, 72, 0
1, 118440, Note_on_c, 0, 67, 80
1, 118553, Note_on_c, 0, 67, 0
1, 118800, Note_on_c, 0, 67, 80
1, 119027, Note_on_c, 0, 67, 0
1, 119040, Note_on_c, 0, 69, 80
1, 119267, Note_on_c, 0, 69, 0
1, 119280, Note_on_c, 0, 69, 80
1, 119507, Note_on_c, 0, 69, 0
1, 119520, Note_on_c, 0, 72, 80
1, 119747, Note_on_c, 0, 72, 0
1, 119760, Note_on_c, 0, 67, 80
1, 119987, Note_on_c, 0, 67, 0
1, 120000, Note_on_c, 0, 67, 80
1, 120227, Note_on_c, 0, 67, 0
1, 120240, Note_on_c, 0, 69, 80
1, 120353, Note_on_c, 0, 69, 0
1, 120360, Note_on_c, 0, 67, 80
1, 120473, Note_on_c, 0, 67, 0
1, 120600, Note_on_c, 0, 69, 80
1, 120713, Note_on_c, 0, 69, 0
1, 120720, Note_on_c, 0, 60, 80
1, 120947, Note_on_c, 0, 60, 0
1, 121440, Note_on_c, 0, 76, 80
1, 121667, Note_on_c, 0, 76, 0
1, 121680, Note_on_c, 0, 72, 80
1, 121907, Note_on_c, 0, 72, 0
1, 121920, Note_on_c, 0, 77, 80
1, 122147, Note_on_c, 0, 77, 0
1, 122160, Note_on_c, 0, 72, 80
1, 122387, Note_on_c, 0, 72, 0
1, 122400, Note_on_c, 0, 67, 80
1, 122627, Note_on_c, 0, 67, 0
1, 122640, Note_on_c, 0, 72, 80
1, 123095, Note_on_c, 0, 72, 0
1, 123120, Note_on_c, 0, 67, 80
1, 123347, Note_on_c, 0, 67, 0
1, 123360, Note_on_c, 0, 69, 80
1, 123815, Note_on_c, 0, 69, 0
1, 123840, Note_on_c, 0, 67, 80
1, 124523, Note_on_c, 0, 67, 0
1, 124560, Note_on_c, 0, 64, 80
1, 124787, Note_on_c, 0, 64, 0
1, 124800, Note_on_c, 0, 60, 80
1, 125027, Note_on_c, 0, 60, 0
1, 125040, Note_on_c, 0, 72, 80
1, 125267, Note_on_c, 0, 72, 0
1, 125520, Note_on_c, 0, 72, 80
1, 125747, Note_on_c, 0, 72, 0
1, 125760, Note_on_c, 0, 71, 80
1, 125987, Note_on_c, 0, 71, 0
1, 126000, Note_on_c, 0, 72, 80
1, 126113, Note_on_c, 0, 72, 0
1, 126120, Note_on_c, 0, 67, 80
1, 126233, Note_on_c, 0, 67, 0
1, 126480, Note_on_c, 0, 67, 80
1, 126707, Note_on_c, 0, 67, 0
1, 126720, Note_on_c, 0, 69, 80
1, 126947, Note_on_c, 0, 69, 0
1, 126960, Note_on_c, 0, 69, 80
1, 127187, Note_on_c, 0, 69, 0
1, 127200, Note_on_c, 0, 72, 80
1, 127427, Note_on_c, 0, 72, 0
1, 127440, Note_on_c, 0, 67, 80
1, 127667, Note_on_c, 0, 67, 0
1, 127680, Note_on_c, 0, 67, 80
1, 127907, Note_on_c, 0, 67, 0
1, 127920, Note_on_c, 0, 69, 80
1, 128033, Note_on_c, 0, 69, 0
1, 128040, Note_on_c, 0, 67, 80
1, 128153, Note_on_c, 0, 67, 0
1, 128280, Note_on_c, 0, 69, 80
1, 128393, Note_on_c, 0, 69, 0
1, 128400, Note_on_c, 0, 60, 80
1, 128627, Note_on_c, 0, 60, 0
1, 129120, Note_on_c, 0, 77, 80
1, 129347, Note_on_c, 0, 77, 0
1, 129360, Note_on_c, 0, 76, 80
1, 129587, Note_on_c, 0, 76, 0
1, 129600, Note_on_c, 0, 72, 80
1, 130055, Note_on_c, 0, 72, 0
1, 130080, Note_on_c, 0, 67, 80
1, 130307, Note_on_c, 0, 67, 0
1, 130320, Note_on_c, 0, 72, 80
1, 130775, Note_on_c, 0, 72, 0
1, 130800, Note_on_c, 0, 76, 80
1, 131027, Note_on_c, 0, 76, 0
1, 131040, Note_on_c, 0, 79, 80
1, 131495, Note_on_c, 0, 79, 0
1, 131520, Note_on_c, 0, 74, 80
1, 131975, Note_on_c, 0, 74, 0
1, 132000, Note_on_c, 0, 71, 80
1, 132455, Note_on_c, 0, 71, 0
1, 135600, Note_on_c, 0, 71, 80
1, 135827, Note_on_c, 0, 71, 0
1, 135840, Note_on_c, 0, 74, 80
1, 136067, Note_on_c, 0, 74, 0
1, 136080, Note_on_c, 0, 71, 80
1, 136307, Note_on_c, 0, 71, 0
1, 136320, Note_on_c, 0, 72, 80
1, 136547, Note_on_c, 0, 72, 0
1, 136560, Note_on_c, 0, 67, 80
1, 136787, Note_on_c, 0, 67, 0
1, 136800, Note_on_c, 0, 64, 80
1, 137027, Note_on_c, 0, 64, 0
1, 137040, Note_on_c, 0, 62, 80
1, 137495, Note_on_c, 0, 62, 0
1, 137520, Note_on_c, 0, 59, 80
1, 137747, Note_on_c, 0, 59, 0
1, 137760, Note_on_c, 0, 60, 80
1, 137987, Note_on_c, 0, 60, 0
1, 138000, Note_on_c, 0, 62, 80
1, 138455, Note_on_c, 0, 62, 0
1, 138480, Note_on_c, 0, 69, 80
1, 138707, Note_on_c, 0, 69, 0
1, 138720, Note_on_c, 0, 65, 80
1, 138947, Note_on_c, 0, 65, 0
1, 138960, Note_on_c, 0, 67, 80
1, 139415, Note_on_c, 0, 67, 0
1, 139440, Note_on_c, 0, 67, 80
1, 139559, Note_on_c, 0, 67, 0
1, 143280, Note_on_c, 0, 71, 80
1, 143507, Note_on_c, 0, 71, 0
1, 143520, Note_on_c, 0, 74, 80
1, 143747, Note_on_c, 0, 74, 0
1, 143760, Note_on_c, 0, 71, 80
1, 143987, Note_on_c, 0, 71, 0
1, 144000, Note_on_c, 0, 72, 80
1, 144227, Note_on_c, 0, 72, 0
1, 144240, Note_on_c, 0, 67, 80
1, 144467, Note_on_c, 0, 67, 0
1, 144480, Note_on_c, 0, 64, 80
1, 144707, Note_on_c, 0, 64, 0
1, 144720, Note_on_c, 0, 62, 80
1, 145175, Note_on_c, 0, 62, 0
1, 145200, Note_on_c, 0, 59, 80
1, 145427, Note_on_c, 0, 59, 0
1, 145440, Note_on_c, 0, 60, 80
1, 145667, Note_on_c, 0, 60, 0
1, 145680, Note_on_c, 0, 62, 80
1, 146135, Note_on_c, 0, 62, 0
1, 146160, Note_on_c, 0, 69, 80
1, 146387, Note_on_c, 0, 69, 0
1, 146400, Note_on_c, 0, 71, 80
1, 146627, Note_on_c, 0, 71, 0
1, 146640, Note_on_c, 0, 67, 80
1, 147095, Note_on_c, 0, 67, 0
1, 147120, Note_on_c, 0, 62, 80
1, 147347, Note_on_c, 0, 62, 0
1, 147360, Note_on_c, 0, 64, 80
1, 147587, Note_on_c, 0, 64, 0
1, 147600, Note_on_c, 0, 60, 80
1, 148283, Note_on_c, 0, 60, 0
1, 156000, Note_on_c, 0, 76, 80
1, 156227, Note_on_c, 0, 76, 0
1, 156240, Note_on_c, 0, 72, 80
1, 156467, Note_on_c, 0, 72, 0
1, 156480, Note_on_c, 0, 77, 80
1, 156707, Note_on_c, 0, 77, 0
1, 156720, Note_on_c, 0, 72, 80
1, 156947, Note_on_c, 0, 72, 0
1, 156960, Note_on_c, 0, 67, 80
1, 157187, Note_on_c, 0, 67, 0
1, 157200, Note_on_c, 0, 69, 80
1, 157427, Note_on_c, 0, 69, 0
1, 157440, Note_on_c, 0, 67, 80
1, 157553, Note_on_c, 0, 67, 0
1, 157560, Note_on_c, 0, 69, 80
1, 157673, Note_on_c, 0, 69, 0
1, 157680, Note_on_c, 0, 72, 80
1, 157907, Note_on_c, 0, 72, 0
1, 157920, Note_on_c, 0, 67, 80
1, 158147, Note_on_c, 0, 67, 0
1, 158160, Note_on_c, 0, 69, 80
1, 158273, Note_on_c, 0, 69, 0
1, 158280, Note_on_c, 0, 72, 80
1, 158507, Note_on_c, 0, 72, 0
1, 158520, Note_on_c, 0, 67, 80
1, 158633, Note_on_c, 0, 67, 0
1, 158640, Note_on_c, 0, 72, 80
1, 158867, Note_on_c, 0, 72, 0
1, 158880, Note_on_c, 0, 79, 80
1, 159107, Note_on_c, 0, 79, 0
1, 159120, Note_on_c, 0, 77, 80
1, 159347, Note_on_c, 0, 77, 0
1, 159360, Note_on_c, 0, 72, 80
1, 159587, Note_on_c, 0, 72, 0
1, 159600, Note_on_c, 0, 67, 80
1, 159713, Note_on_c, 0, 67, 0
1, 159720, Note_on_c, 0, 76, 80
1, 159947, Note_on_c, 0, 76, 0
1, 159960, Note_on_c, 0, 67, 80
1, 160073, Note_on_c, 0, 67, 0
1, 160080, Note_on_c, 0, 79, 80
1, 160535, Note_on_c, 0, 79, 0
1, 160560, Note_on_c, 0, 67, 80
1, 160901, Note_on_c, 0, 67, 0
1, 160920, Note_on_c, 0, 77, 80
1, 161033, Note_on_c, 0, 77, 0
1, 161040, Note_on_c, 0, 76, 80
1, 161153, Note_on_c, 0, 76, 0
1, 161160, Note_on_c, 0, 77, 80
1, 161273, Note_on_c, 0, 77, 0
1, 161280, Note_on_c, 0, 76, 80
1, 161507, Note_on_c, 0, 76, 0
1, 161520, Note_on_c, 0, 72, 80
1, 162203, Note_on_c, 0, 72, 0
1, 163200, Note_on_c, 0, 67, 80
1, 163313, Note_on_c, 0, 67, 0
1, 163320, Note_on_c, 0, 67, 80
1, 163433, Note_on_c, 0, 67, 0
1, 163440, Note_on_c, 0, 69, 80
1, 163553, Note_on_c, 0, 69, 0
1, 163560, Note_on_c, 0, 67, 80
1, 163673, Note_on_c, 0, 67, 0
1, 163680, Note_on_c, 0, 72, 80
1, 163907, Note_on_c, 0, 72, 0
1, 163920, Note_on_c, 0, 69, 80
1, 164033, Note_on_c, 0, 69, 0
1, 164040, Note_on_c, 0, 67, 80
1, 164153, Note_on_c, 0, 67, 0
1, 164160, Note_on_c, 0, 64, 80
1, 164273, Note_on_c, 0, 64, 0
1, 164280, Note_on_c, 0, 64, 80
1, 164393, Note_on_c, 0, 64, 0
1, 164400, Note_on_c, 0, 67, 80
1, 164627, Note_on_c, 0, 67, 0
1, 164640, Note_on_c, 0, 64, 80
1, 164867, Note_on_c, 0, 64, 0
1, 164880, Note_on_c, 0, 60, 80
1, 165107, Note_on_c, 0, 60, 0
1, 165120, Note_on_c, 0, 72, 80
1, 165233, Note_on_c, 0, 72, 0
1, 165240, Note_on_c, 0, 72, 80
1, 165353, Note_on_c, 0, 72, 0
1, 165360, Note_on_c, 0, 72, 80
1, 165473, Note_on_c, 0, 72, 0
1, 165480, Note_on_c, 0, 72, 80
1, 165593, Note_on_c, 0, 72, 0
1, 165600, Note_on_c, 0, 72, 80
1, 165827, Note_on_c, 0, 72, 0
1, 165840, Note_on_c, 0, 79, 80
1, 165953, Note_on_c, 0, 79, 0
1, 165960, Note_on_c, 0, 79, 80
1, 166073, Note_on_c, 0, 79, 0
1, 166080, Note_on_c, 0, 79, 80
1, 166193, Note_on_c, 0, 79, 0
1, 166200, Note_on_c, 0, 79, 80
1, 166313, Note_on_c, 0, 79, 0
1, 166320, Note_on_c, 0, 79, 80
1, 166439, Note_on_c, 0, 79, 0
1, 167040, Note_on_c, 0, 67, 80
1, 167153, Note_on_c, 0, 67, 0
1, 167160, Note_on_c, 0, 67, 80
1, 167273, Note_on_c, 0, 67, 0
1, 167280, Note_on_c, 0, 69, 80
1, 167393, Note_on_c, 0, 69, 0
1, 167400, Note_on_c, 0, 67, 80
1, 167513, Note_on_c, 0, 67, 0
1, 167520, Note_on_c, 0, 72, 80
1, 167747, Note_on_c, 0, 72, 0
1, 167760, Note_on_c, 0, 69, 80
1, 167873, Note_on_c, 0, 69, 0
1, 167880, Note_on_c, 0, 67, 80
1, 167993, Note_on_c, 0, 67, 0
1, 168000, Note_on_c, 0, 64, 80
1, 168113, Note_on_c, 0, 64, 0
1, 168120, Note_on_c, 0, 64, 80
1, 168233, Note_on_c, 0, 64, 0
1, 168240, Note_on_c, 0, 67, 80
1, 168467, Note_on_c, 0, 67, 0
1, 168480, Note_on_c, 0, 64, 80
1, 168707, Note_on_c, 0, 64, 0
1, 168720, Note_on_c, 0, 60, 80
1, 168947, Note_on_c, 0, 60, 0
1, 168960, Note_on_c, 0, 72, 80
1, 169073, Note_on_c, 0, 72, 0
1, 169080, Note_on_c, 0, 72, 80
1, 169193, Note_on_c, 0, 72, 0
1, 169200, Note_on_c, 0, 72, 80
1, 169313, Note_on_c, 0, 72, 0
1, 169320, Note_on_c, 0, 72, 80
1, 169433, Note_on_c, 0, 72, 0
1, 169440, Note_on_c, 0, 72, 80
1, 169667, Note_on_c, 0, 72, 0
1, 169680, Note_on_c, 0, 79, 80
1, 169793, Note_on_c, 0, 79, 0
1, 169800, Note_on_c, 0, 79, 80
1, 169913, Note_on_c, 0, 79, 0
1, 169920, Note_on_c, 0, 79, 80
1, 170033, Note_on_c, 0, 79, 0
1, 170040, Note_on_c, 0, 79, 80
1, 170381, Note_on_c, 0, 79, 0
1, 170880, Note_on_c, 0, 67, 80
1, 170993, Note_on_c, 0, 67, 0
1, 171000, Note_on_c, 0, 67, 80
1, 171113, Note_on_c, 0, 67, 0
1, 171120, Note_on_c, 0, 69, 80
1, 171233, Note_on_c, 0, 69, 0
1, 171240, Note_on_c, 0, 67, 80
1, 171353, Note_on_c, 0, 67, 0
1, 171360, Note_on_c, 0, 72, 80
1, 171587, Note_on_c, 0, 72, 0
1, 171600, Note_on_c, 0, 69, 80
1, 171713, Note_on_c, 0, 69, 0
1, 171720, Note_on_c, 0, 67, 80
1, 171833, Note_on_c, 0, 67, 0
1, 171840, Note_on_c, 0, 64, 80
1, 171953, Note_on_c, 0, 64, 0
1, 171960, Note_on_c, 0, 64, 80
1, 172073, Note_on_c, 0, 64, 0
1, 172080, Note_on_c, 0, 67, 80
1, 172307, Note_on_c, 0, 67, 0
1, 172320, Note_on_c, 0, 64, 80
1, 172547, Note_on_c, 0, 64, 0
1, 172560, Note_on_c, 0, 60, 80
1, 172787, Note_on_c, 0, 60, 0
1, 172800, Note_on_c, 0, 72, 80
1, 172913, Note_on_c, 0, 72, 0
1, 172920, Note_on_c, 0, 72, 80
1, 173033, Note_on_c, 0, 72, 0
1, 173040, Note_on_c, 0, 72, 80
1, 173153, Note_on_c, 0, 72, 0
1, 173160, Note_on_c, 0, 72, 80
1, 173273, Note_on_c, 0, 72, 0
1, 173280, Note_on_c, 0, 72, 80
1, 173507, Note_on_c, 0, 72, 0
1, 173520, Note_on_c, 0, 79, 80
1, 173633, Note_on_c, 0, 79, 0
1, 173640, Note_on_c, 0, 79, 80
1, 173753, Note_on_c, 0, 79, 0
1, 173760, Note_on_c, 0, 79, 80
1, 173873, Note_on_c, 0, 79, 0
1, 173880, Note_on_c, 0, 79, 80
1, 173993, Note_on_c, 0, 79, 0
1, 174000, Note_on_c, 0, 79, 80
1, 174119, Note_on_c, 0, 79, 0
1, 174720, Note_on_c, 0, 67, 80
1, 174833, Note_on_c, 0, 67, 0
1, 174840, Note_on_c, 0, 67, 80
1, 174953, Note_on_c, 0, 67, 0
1, 174960, Note_on_c, 0, 69, 80
1, 175073, Note_on_c, 0, 69, 0
1, 175080, Note_on_c, 0, 67, 80
1, 175193, Note_on_c, 0, 67, 0
1, 175200, Note_on_c, 0, 72, 80
1, 175427, Note_on_c, 0, 72, 0
1, 175440, Note_on_c, 0, 69, 80
1, 175553, Note_on_c, 0, 69, 0
1, 175560, Note_on_c, 0, 67, 80
1, 175673, Note_on_c, 0, 67, 0
1, 175680, Note_on_c, 0, 64, 80
1, 175793, Note_on_c, 0, 64, 0
1, 175800, Note_on_c, 0, 64, 80
1, 175913, Note_on_c, 0, 64, 0
1, 175920, Note_on_c, 0, 67, 80
1, 176147, Note_on_c, 0, 67, 0
1, 176160, Note_on_c, 0, 64, 80
1, 176387, Note_on_c, 0, 64, 0
1, 176400, Note_on_c, 0, 60, 80
1, 176627, Note_on_c, 0, 60, 0
1, 176640, Note_on_c, 0, 72, 80
1, 176753, Note_on_c, 0, 72, 0
1, 176760, Note_on_c, 0, 72, 80
1, 176873, Note_on_c, 0, 72, 0
1, 176880, Note_on_c, 0, 72, 80
1, 176993, Note_on_c, 0, 72, 0
1, 177000, Note_on_c, 0, 72, 80
1, 177113, Note_on_c, 0, 72, 0
1, 177120, Note_on_c, 0, 72, 80
1, 177347, Note_on_c, 0, 72, 0
1, 177360, Note_on_c, 0, 79, 80
1, 177473, Note_on_c, 0, 79, 0
1, 177480, Note_on_c, 0, 79, 80
1, 177593, Note_on_c, 0, 79, 0
1, 177600, Note_on_c, 0, 79, 80
1, 177713, Note_on_c, 0, 79, 0
1, 177720, Note_on_c, 0, 79, 80
1, 178061, Note_on_c, 0, 79, 0
1, 178560, Key_signature, 0, "major"
1, 180480, Tempo, 600000
1, 192000, Note_on_c, 0, 79, 80
1, 192227, Note_on_c, 0, 79, 0
1, 192240, Note_on_c, 0, 76, 80
1, 192467, Note_on_c, 0, 76, 0
1, 192480, Note_on_c, 0, 77, 80
1, 192707, Note_on_c, 0, 77, 0
1, 192720, Note_on_c, 0, 74, 80
1, 192947, Note_on_c, 0, 74, 0
1, 192960, Note_on_c, 0, 76, 80
1, 193187, Note_on_c, 0, 76, 0
1, 193200, Note_on_c, 0, 72, 80
1, 193427, Note_on_c, 0, 72, 0
1, 193440, Note_on_c, 0, 74, 80
1, 193667, Note_on_c, 0, 74, 0
1, 193680, Note_on_c, 0, 69, 80
1, 193831, Note_on_c, 0, 69, 0
1, 193840, Note_on_c, 0, 65, 80
1, 193915, Note_on_c, 0, 65, 0
1, 193920, Note_on_c, 0, 67, 80
1, 194147, Note_on_c, 0, 67, 0
1, 194160, Note_on_c, 0, 64, 80
1, 194311, Note_on_c, 0, 64, 0
1, 194320, Note_on_c, 0, 65, 80
1, 194395, Note_on_c, 0, 65, 0
1, 194400, Note_on_c, 0, 67, 80
1, 194551, Note_on_c, 0, 67, 0
1, 194560, Note_on_c, 0, 81, 80
1, 194863, Note_on_c, 0, 81, 0
1, 194880, Note_on_c, 0, 79, 80
1, 195791, Note_on_c, 0, 79, 0
1, 195840, Note_on_c, 0, 79, 80
1, 196067, Note_on_c, 0, 79, 0
1, 196080, Note_on_c, 0, 76, 80
1, 196307, Note_on_c, 0, 76, 0
1, 196320, Note_on_c, 0, 77, 80
1, 196547, Note_on_c, 0, 77, 0
1, 196560, Note_on_c, 0, 74, 80
1, 196787, Note_on_c, 0, 74, 0
1, 196800, Note_on_c, 0, 76, 80
1, 197027, Note_on_c, 0, 76, 0
1, 197040, Note_on_c, 0, 72, 80
1, 197267, Note_on_c, 0, 72, 0
1, 197280, Note_on_c, 0, 74, 80
1, 197507, Note_on_c, 0, 74, 0
1, 197520, Note_on_c, 0, 69, 80
1, 197671, Note_on_c, 0, 69, 0
1, 197680, Note_on_c, 0, 65, 80
1, 197755, Note_on_c, 0, 65, 0
1, 197760, Note_on_c, 0, 67, 80
1, 197987, Note_on_c, 0, 67, 0
1, 198000, Note_on_c, 0, 64, 80
1, 198151, Note_on_c, 0, 64, 0
1, 198160, Note_on_c, 0, 65, 80
1, 198235, Note_on_c, 0, 65, 0
1, 198240, Note_on_c, 0, 67, 80
1, 198391, Note_on_c, 0, 67, 0
1, 198400, Note_on_c, 0, 81, 80
1, 198703, Note_on_c, 0, 81, 0
1, 198720, Note_on_c, 0, 79, 80
1, 199631, Note_on_c, 0, 79, 0
1, 199680, Note_on_c, 0, 79, 80
1, 199907, Note_on_c, 0, 79, 0
1, 199920, Note_on_c, 0, 76, 80
1, 200147, Note_on_c, 0, 76, 0
1, 200160, Note_on_c, 0, 77, 80
1, 200387, Note_on_c, 0, 77, 0
1, 200400, Note_on_c, 0, 74, 80
1, 200627, Note_on_c, 0, 74, 0
1, 200640, Note_on_c, 0, 76, 80
1, 200867, Note_on_c, 0, 76, 0
1, 200880, Note_on_c, 0, 72, 80
1, 201107, Note_on_c, 0, 72, 0
1, 201120, Note_on_c, 0, 74, 80
1, 201347, Note_on_c, 0, 74, 0
1, 201360, Note_on_c, 0, 69, 80
1, 201511, Note_on_c, 0, 69, 0
1, 201520, Note_on_c, 0, 65, 80
1, 201595, Note_on_c, 0, 65, 0
1, 201600, Note_on_c, 0, 67, 80
1, 201827, Note_on_c, 0, 67, 0
1, 201840, Note_on_c, 0, 64, 80
1, 201991, Note_on_c, 0, 64, 0
1, 202000, Note_on_c, 0, 65, 80
1, 202075, Note_on_c, 0, 65, 0
1, 202080, Note_on_c, 0, 67, 80
1, 202231, Note_on_c, 0, 67, 0
1, 202240, Note_on_c, 0, 81, 80
1, 202543, Note_on_c, 0, 81, 0
1, 202560, Note_on_c, 0, 79, 80
1, 203471, Note_on_c, 0, 79, 0
1, 203520, Note_on_c, 0, 79, 80
1, 203747, Note_on_c, 0, 79, 0
1, 203760, Note_on_c, 0, 76, 80
1, 203987, Note_on_c, 0, 76, 0
1, 204000, Note_on_c, 0, 77, 80
1, 204227, Note_on_c, 0, 77, 0
1, 204240, Note_on_c, 0, 74, 80
1, 204467, Note_on_c, 0, 74, 0
1, 204480, Note_on_c, 0, 76, 80
1, 204707, Note_on_c, 0, 76, 0
1, 204720, Note_on_c, 0, 72, 80
1, 204947, Note_on_c, 0, 72, 0
1, 204960, Note_on_c, 0, 74, 80
1, 205187, Note_on_c, 0, 74, 0
1, 205200, Note_on_c, 0, 69, 80
1, 205351, Note_on_c, 0, 69, 0
1, 205360, Note_on_c, 0, 65, 80
1, 205435, Note_on_c, 0, 65, 0
1, 205440, Note_on_c, 0, 67, 80
1, 205667, Note_on_c, 0, 67, 0
1, 205680, Note_on_c, 0, 64, 80
1, 205831, Note_on_c, 0, 64, 0
1, 205840, Note_on_c, 0, 65, 80
1, 205915, Note_on_c, 0, 65, 0
1, 205920, Note_on_c, 0, 67, 80
1, 206071, Note_on_c, 0, 67, 0
1, 206080, Note_on_c, 0, 81, 80
1, 206383, Note_on_c, 0, 81, 0
1, 206400, Note_on_c, 0, 79, 80
1, 207311, Note_on_c, 0, 79, 0
1, 207600, Note_on_c, 0, 72, 80
1, 207827, Note_on_c, 0, 72, 0
1, 207840, Note_on_c, 0, 76, 80
1, 208067, Note_on_c, 0, 76, 0
1, 208080, Note_on_c, 0, 72, 80
1, 208307, Note_on_c, 0, 72, 0
1, 208560, Note_on_c, 0, 72, 80
1, 208787, Note_on_c, 0, 72, 0
1, 208800, Note_on_c, 0, 77, 80
1, 209027, Note_on_c, 0, 77, 0
1, 209040, Note_on_c, 0, 72, 80
1, 209267, Note_on_c, 0, 72, 0
1, 209520, Note_on_c, 0, 62, 80
1, 209760, Note_on_c, 0, 67, 80
1, 210000, Note_on_c, 0, 74, 80
1, 210203, Note_on_c, 0, 62, 0
1, 210215, Note_on_c, 0, 67, 0
1, 210227, Note_on_c, 0, 74, 0
1, 210240, Note_on_c, 0, 60, 80
1, 210467, Note_on_c, 0, 60, 0
1, 210480, Note_on_c, 0, 69, 80
1, 210707, Note_on_c, 0, 69, 0
1, 210720, Note_on_c, 0, 72, 80
1, 210947, Note_on_c, 0, 72, 0
1, 210960, Note_on_c, 0, 77, 80
1, 211187, Note_on_c, 0, 77, 0
1, 211440, Note_on_c, 0, 72, 80
1, 211667, Note_on_c, 0, 72, 0
1, 211680, Note_on_c, 0, 76, 80
1, 211907, Note_on_c, 0, 76, 0
1, 211920, Note_on_c, 0, 72, 80
1, 212147, Note_on_c, 0, 72, 0
1, 212400, Note_on_c, 0, 72, 80
1, 212627, Note_on_c, 0, 72, 0
1, 212640, Note_on_c, 0, 77, 80
1, 212867, Note_on_c, 0, 77, 0
1, 212880, Note_on_c, 0, 72, 80
1, 213107, Note_on_c, 0, 72, 0
1, 213360, Note_on_c, 0, 62, 80
1, 213600, Note_on_c, 0, 67, 80
1, 213840, Note_on_c, 0, 74, 80
1, 214043, Note_on_c, 0, 62, 0
1, 214055, Note_on_c, 0, 67, 0
1, 214067, Note_on_c, 0, 74, 0
1, 214080, Note_on_c, 0, 60, 80
1, 214307, Note_on_c, 0, 60, 0
1, 214320, Note_on_c, 0, 69, 80
1, 214547, Note_on_c, 0, 69, 0
1, 214560, Note_on_c, 0, 72, 80
1, 214787, Note_on_c, 0, 72, 0
1, 214800, Note_on_c, 0, 77, 80
1, 215027, Note_on_c, 0, 77, 0
1, 215280, Note_on_c, 0, 72, 80
1, 215507, Note_on_c, 0, 72, 0
1, 215520, Note_on_c, 0, 76, 80
1, 215747, Note_on_c, 0, 76, 0
1, 215760, Note_on_c, 0, 72, 80
1, 215987, Note_on_c, 0, 72, 0
1, 216240, Note_on_c, 0, 72, 80
1, 216467, Note_on_c, 0, 72, 0
1, 216480, Note_on_c, 0, 77, 80
1, 216707, Note_on_c, 0, 77, 0
1, 216720, Note_on_c, 0, 72, 80
1, 216947, Note_on_c, 0, 72, 0
1, 217200, Note_on_c, 0, 62, 80
1, 217440, Note_on_c, 0, 67, 80
1, 217680, Note_on_c, 0, 74, 80
1, 217883, Note_on_c, 0, 62, 0
1, 217895, Note_on_c, 0, 67, 0
1, 217907, Note_on_c, 0, 74, 0
1, 217920, Note_on_c, 0, 60, 80
1, 218147, Note_on_c, 0, 60, 0
1, 218160, Note_on_c, 0, 69, 80
1, 218387, Note_on_c, 0, 69, 0
1, 218400, Note_on_c, 0, 72, 80
1, 218627, Note_on_c, 0, 72, 0
1, 218640, Note_on_c, 0, 77, 80
1, 218867, Note_on_c, 0, 77, 0
1, 219120, Note_on_c, 0, 72, 80
1, 219347, Note_on_c, 0, 72, 0
1, 219360, Note_on_c, 0, 76, 80
1, 219587, Note_on_c, 0, 76, 0
1, 219600, Note_on_c, 0, 72, 80
1, 219827, Note_on_c, 0, 72, 0
1, 220080, Note_on_c, 0, 72, 80
1, 220307, Note_on_c, 0, 72, 0
1, 220320, Note_on_c, 0, 77, 80
1, 220547, Note_on_c, 0, 77, 0
1, 220560, Note_on_c, 0, 72, 80
1, 220787, Note_on_c, 0, 72, 0
1, 221040, Note_on_c, 0, 62, 80
1, 221280, Note_on_c, 0, 67, 80
1, 221520, Note_on_c, 0, 74, 80
1, 221723, Note_on_c, 0, 62, 0
1, 221735, Note_on_c, 0, 67, 0
1, 221747, Note_on_c, 0, 74, 0
1, 221760, Note_on_c, 0, 60, 80
1, 221987, Note_on_c, 0, 60, 0
1, 222000, Note_on_c, 0, 69, 80
1, 222227, Note_on_c, 0, 69, 0
1, 222240, Note_on_c, 0, 72, 80
1, 222467, Note_on_c, 0, 72, 0
1, 222480, Note_on_c, 0, 77, 80
1, 222707, Note_on_c, 0, 77, 0
1, 222960, Note_on_c, 0, 72, 80
1, 223187, Note_on_c, 0, 72, 0
1, 223200, Note_on_c, 0, 76, 80
1, 223427, Note_on_c, 0, 76, 0
1, 223440, Note_on_c, 0, 72, 80
1, 223667, Note_on_c, 0, 72, 0
1, 223920, Note_on_c, 0, 72, 80
1, 224147, Note_on_c, 0, 72, 0
1, 224160, Note_on_c, 0, 77, 80
1, 224387, Note_on_c, 0, 77, 0
1, 224400, Note_on_c, 0, 72, 80
1, 224627, Note_on_c, 0, 72, 0
1, 224880, Note_on_c, 0, 62, 80
1, 225107, Note_on_c, 0, 62, 0
1, 225120, Note_on_c, 0, 67, 80
1, 225347, Note_on_c, 0, 67, 0
1, 225360, Note_on_c, 0, 74, 80
1, 225587, Note_on_c, 0, 74, 0
1, 225600, Note_on_c, 0, 60, 80
1, 225827, Note_on_c, 0, 60, 0
1, 225840, Note_on_c, 0, 69, 80
1, 226067, Note_on_c, 0, 69, 0
1, 226080, Note_on_c, 0, 72, 80
1, 226307, Note_on_c, 0, 72, 0
1, 226320, Note_on_c, 0, 77, 80
1, 226547, Note_on_c, 0, 77, 0
1, 226560, Note_on_c, 0, 69, 80
1, 226787, Note_on_c, 0, 69, 0
1, 226800, Note_on_c, 0, 72, 80
1, 227027, Note_on_c, 0, 72, 0
1, 227040, Note_on_c, 0, 77, 80
1, 227267, Note_on_c, 0, 77, 0
1, 227280, Note_on_c, 0, 69, 80
1, 227507, Note_on_c, 0, 69, 0
1, 227520, Note_on_c, 0, 72, 80
1, 227747, Note_on_c, 0, 72, 0
1, 227760, Note_on_c, 0, 77, 80
1, 227987, Note_on_c, 0, 77, 0
1, 228960, Note_on_c, 0, 79, 80
1, 229187, Note_on_c, 0, 79, 0
1, 229200, Note_on_c, 0, 79, 80
1, 229427, Note_on_c, 0, 79, 0
1, 229440, Note_on_c, 0, 79, 80
1, 230123, Note_on_c, 0, 79, 0
1, 230160, Note_on_c, 0, 79, 80
1, 230311, Note_on_c, 0, 79, 0
1, 230320, Note_on_c, 0, 77, 80
1, 230395, Note_on_c, 0, 77, 0
1, 230400, Note_on_c, 0, 76, 80
1, 230627, Note_on_c, 0, 76, 0
1, 230640, Note_on_c, 0, 76, 80
1, 230791, Note_on_c, 0, 76, 0
1, 230800, Note_on_c, 0, 77, 80
1, 230875, Note_on_c, 0, 77, 0
1, 230880, Note_on_c, 0, 79, 80
1, 231107, Note_on_c, 0, 79, 0
1, 231120, Note_on_c, 0, 76, 80
1, 231347, Note_on_c, 0, 76, 0
1, 231360, Note_on_c, 0, 74, 80
1, 231815, Note_on_c, 0, 74, 0
1, 231840, Note_on_c, 0, 72, 80
1, 232067, Note_on_c, 0, 72, 0
1, 232080, Note_on_c, 0, 74, 80
1, 232307, Note_on_c, 0, 74, 0
1, 232320, Note_on_c, 0, 76, 80
1, 232547, Note_on_c, 0, 76, 0
1, 232560, Note_on_c, 0, 72, 80
1, 232787, Note_on_c, 0, 72, 0
1, 232800, Note_on_c, 0, 67, 80
1, 233255, Note_on_c, 0, 67, 0
1, 236640, Note_on_c, 0, 79, 80
1, 236867, Note_on_c, 0, 79, 0
1, 236880, Note_on_c, 0, 81, 80
1, 237107, Note_on_c, 0, 81, 0
1, 237120, Note_on_c, 0, 79, 80
1, 237803, Note_on_c, 0, 79, 0
1, 237840, Note_on_c, 0, 76, 80
1, 237991, Note_on_c, 0, 76, 0
1, 238000, Note_on_c, 0, 77, 80
1, 238075, Note_on_c, 0, 77, 0
1, 238080, Note_on_c, 0, 79, 80
1, 238307, Note_on_c, 0, 79, 0
1, 238320, Note_on_c, 0, 77, 80
1, 238471, Note_on_c, 0, 77, 0
1, 238480, Note_on_c, 0, 76, 80
1, 238555, Note_on_c, 0, 76, 0
1, 238560, Note_on_c, 0, 74, 80
1, 238787, Note_on_c, 0, 74, 0
1, 238800, Note_on_c, 0, 76, 80
1, 239027, Note_on_c, 0, 76, 0
1, 239040, Note_on_c, 0, 74, 80
1, 239495, Note_on_c, 0, 74, 0
1, 239520, Note_on_c, 0, 72, 80
1, 239747, Note_on_c, 0, 72, 0
1, 239760, Note_on_c, 0, 74, 80
1, 239987, Note_on_c, 0, 74, 0
1, 240000, Note_on_c, 0, 67, 80
1, 240227, Note_on_c, 0, 67, 0
1, 240240, Note_on_c, 0, 76, 80
1, 240467, Note_on_c, 0, 76, 0
1, 240480, Note_on_c, 0, 72, 80
1, 241391, Note_on_c, 0, 72, 0
1, 245760, Tempo, 545455
1, 252800, Note_on_c, 0, 67, 80
1, 252951, Note_on_c, 0, 67, 0
1, 252960, Note_on_c, 0, 67, 80
1, 253111, Note_on_c, 0, 67, 0
1, 253120, Note_on_c, 0, 69, 80
1, 253271, Note_on_c, 0, 69, 0
1, 253280, Note_on_c, 0, 71, 80
1, 253431, Note_on_c, 0, 71, 0
1, 253440, Note_on_c, 0, 74, 80
1, 253743, Note_on_c, 0, 74, 0
1, 253760, Note_on_c, 0, 76, 80
1, 253911, Note_on_c, 0, 76, 0
1, 254160, Note_on_c, 0, 72, 80
1, 254501, Note_on_c, 0, 72, 0
1, 260480, Note_on_c, 0, 67, 80
1, 260631, Note_on_c, 0, 67, 0
1, 260640, Note_on_c, 0, 67, 80
1, 260791, Note_on_c, 0, 67, 0
1, 260800, Note_on_c, 0, 69, 80
1, 260951, Note_on_c, 0, 69, 0
1, 260960, Note_on_c, 0, 71, 80
1, 261111, Note_on_c, 0, 71, 0
1, 261120, Note_on_c, 0, 74, 80
1, 261379, Note_on_c, 0, 74, 0
1, 261394, Note_on_c, 0, 76, 80
1, 261588, Note_on_c, 0, 76, 0
1, 261600, Note_on_c, 0, 77, 80
1, 261669, Note_on_c, 0, 79, 80
1, 261736, Note_on_c, 0, 79, 0
1, 261839, Note_on_c, 0, 77, 0
1, 261874, Note_on_c, 0, 79, 80
1, 262752, Note_on_c, 0, 79, 0
1, 262800, Note_on_c, 0, 77, 80
1, 263027, Note_on_c, 0, 77, 0
1, 263040, Note_on_c, 0, 76, 80
1, 263280, Note_on_c, 0, 77, 80
1, 263343, Note_on_c, 0, 76, 0
1, 263507, Note_on_c, 0, 77, 0
1, 263520, Note_on_c, 0, 79, 80
1, 263747, Note_on_c, 0, 79, 0
1, 263760, Note_on_c, 0, 76, 80
1, 264215, Note_on_c, 0, 76, 0
1, 264320, Note_on_c, 0, 72, 80
1, 264639, Note_on_c, 0, 72, 0
1, 264720, Note_on_c, 0, 74, 80
1, 264947, Note_on_c, 0, 74, 0
1, 264960, Note_on_c, 0, 76, 80
1, 265079, Note_on_c, 0, 76, 0
1, 265200, Note_on_c, 0, 72, 80
1, 265427, Note_on_c, 0, 72, 0
1, 265440, Note_on_c, 0, 67, 80
1, 266465, Note_on_c, 0, 67, 0
1, 266640, Note_on_c, 0, 69, 80
1, 266867, Note_on_c, 0, 69, 0
1, 266880, Note_on_c, 0, 67, 80
1, 267107, Note_on_c, 0, 67, 0
1, 267120, Note_on_c, 0, 71, 80
1, 267575, Note_on_c, 0, 71, 0
1, 267680, Note_on_c, 0, 74, 80
1, 267831, Note_on_c, 0, 74, 0
1, 267840, Note_on_c, 0, 76, 80
1, 267959, Note_on_c, 0, 76, 0
1, 268080, Note_on_c, 0, 77, 80
1, 268307, Note_on_c, 0, 77, 0
1, 268320, Note_on_c, 0, 74, 80
1, 268775, Note_on_c, 0, 74, 0
1, 269280, Note_on_c, 0, 77, 80
1, 269336, Note_on_c, 0, 77, 0
1, 269340, Note_on_c, 0, 79, 80
1, 269429, Note_on_c, 0, 79, 0
1, 269520, Note_on_c, 0, 79, 80
1, 270431, Note_on_c, 0, 79, 0
1, 270480, Note_on_c, 0, 77, 80
1, 270707, Note_on_c, 0, 77, 0
1, 270720, Note_on_c, 0, 76, 80
1, 270960, Note_on_c, 0, 79, 80
1, 271023, Note_on_c, 0, 76, 0
1, 271187, Note_on_c, 0, 79, 0
1, 271200, Note_on_c, 0, 84, 80
1, 271319, Note_on_c, 0, 84, 0
1, 271440, Note_on_c, 0, 81, 80
1, 271895, Note_on_c, 0, 81, 0
1, 272000, Note_on_c, 0, 77, 80
1, 272319, Note_on_c, 0, 77, 0
1, 272400, Note_on_c, 0, 76, 80
1, 272627, Note_on_c, 0, 76, 0
1, 272640, Note_on_c, 0, 74, 80
1, 272867, Note_on_c, 0, 74, 0
1, 272880, Note_on_c, 0, 76, 80
1, 273107, Note_on_c, 0, 76, 0
1, 273120, Note_on_c, 0, 77, 80
1, 274145, Note_on_c, 0, 77, 0
1, 274320, Note_on_c, 0, 76, 80
1, 274547, Note_on_c, 0, 76, 0
1, 274560, Note_on_c, 0, 76, 80
1, 274787, Note_on_c, 0, 76, 0
1, 274800, Note_on_c, 0, 77, 80
1, 275027, Note_on_c, 0, 77, 0
1, 275040, Note_on_c, 0, 79, 80
1, 275279, Note_on_c, 0, 79, 0
1, 275760, Note_on_c, 0, 67, 80
1, 275987, Note_on_c, 0, 67, 0
1, 276000, Note_on_c, 0, 67, 80
1, 276151, Note_on_c, 0, 67, 0
1, 276160, Note_on_c, 0, 69, 80
1, 276311, Note_on_c, 0, 69, 0
1, 276320, Note_on_c, 0, 71, 80
1, 276471, Note_on_c, 0, 71, 0
1, 276480, Note_on_c, 0, 74, 80
1, 276707, Note_on_c, 0, 74, 0
1, 276720, Note_on_c, 0, 76, 80
1, 276947, Note_on_c, 0, 76, 0
1, 277200, Note_on_c, 0, 72, 80
1, 277427, Note_on_c, 0, 72, 0
1, 283520, Note_on_c, 0, 67, 80
1, 283671, Note_on_c, 0, 67, 0
1, 283680, Note_on_c, 0, 67, 80
1, 283831, Note_on_c, 0, 67, 0
1, 283840, Note_on_c, 0, 69, 80
1, 283991, Note_on_c, 0, 69, 0
1, 284000, Note_on_c, 0, 71, 80
1, 284151, Note_on_c, 0, 71, 0
1, 284160, Note_on_c, 0, 74, 80
1, 284463, Note_on_c, 0, 74, 0
1, 284480, Note_on_c, 0, 76, 80
1, 284631, Note_on_c, 0, 76, 0
1, 284880, Note_on_c, 0, 72, 80
1, 285221, Note_on_c, 0, 72, 0
1, 286400, Note_on_c, 0, 84, 80
1, 287007, Note_on_c, 0, 84, 0
1, 287040, Note_on_c, 0, 83, 80
1, 287495, Note_on_c, 0, 83, 0
1, 287520, Note_on_c, 0, 81, 80
1, 287975, Note_on_c, 0, 81, 0
1, 288000, Note_on_c, 0, 77, 80
1, 288455, Note_on_c, 0, 77, 0
1, 291840, Note_on_c, 0, 74, 80
1, 292067, Note_on_c, 0, 74, 0
1, 292160, Note_on_c, 0, 76, 80
1, 292199, Note_on_c, 0, 76, 0
1, 292240, Note_on_c, 0, 77, 80
1, 292315, Note_on_c, 0, 77, 0
1, 292320, Note_on_c, 0, 79, 80
1, 292560, Note_on_c, 0, 72, 80
1, 292623, Note_on_c, 0, 79, 0
1, 292640, Note_on_c, 0, 79, 80
1, 292901, Note_on_c, 0, 72, 0
1, 293133, Note_on_c, 0, 79, 0
1, 293160, Note_on_c, 0, 77, 80
1, 293501, Note_on_c, 0, 77, 0
1, 293600, Note_on_c, 0, 76, 80
1, 293751, Note_on_c, 0, 76, 0
1, 293760, Note_on_c, 0, 72, 80
1, 294063, Note_on_c, 0, 72, 0
1, 294080, Note_on_c, 0, 72, 80
1, 294231, Note_on_c, 0, 72, 0
1, 294240, Note_on_c, 0, 74, 80
1, 294543, Note_on_c, 0, 74, 0
1, 294560, Note_on_c, 0, 76, 80
1, 294600, Note_on_c, 0, 77, 80
1, 294711, Note_on_c, 0, 76, 0
1, 294941, Note_on_c, 0, 77, 0
1, 295040, Note_on_c, 0, 77, 80
1, 295080, Note_on_c, 0, 79, 80
1, 295191, Note_on_c, 0, 77, 0
1, 295649, Note_on_c, 0, 79, 0
1, 296000, Note_on_c, 0, 81, 80
1, 296151, Note_on_c, 0, 81, 0
1, 296160, Note_on_c, 0, 79, 80
1, 296463, Note_on_c, 0, 79, 0
1, 296480, Note_on_c, 0, 76, 80
1, 296973, Note_on_c, 0, 76, 0
1, 297000, Note_on_c, 0, 67, 80
1, 297341, Note_on_c, 0, 67, 0
1, 297440, Note_on_c, 0, 69, 80
1, 297591, Note_on_c, 0, 69, 0
1, 297600, Note_on_c, 0, 72, 80
1, 297903, Note_on_c, 0, 72, 0
1, 297920, Note_on_c, 0, 69, 80
1, 298071, Note_on_c, 0, 69, 0
1, 298080, Note_on_c, 0, 74, 80
1, 298383, Note_on_c, 0, 74, 0
1, 298400, Note_on_c, 0, 72, 80
1, 298893, Note_on_c, 0, 72, 0
1, 298920, Note_on_c, 0, 67, 80
1, 299033, Note_on_c, 0, 67, 0
1, 299040, Note_on_c, 0, 67, 80
1, 299191, Note_on_c, 0, 67, 0
1, 299200, Note_on_c, 0, 69, 80
1, 299351, Note_on_c, 0, 69, 0
1, 299360, Note_on_c, 0, 71, 80
1, 299511, Note_on_c, 0, 71, 0
1, 299520, Note_on_c, 0, 74, 80
1, 299747, Note_on_c, 0, 74, 0
1, 299840, Note_on_c, 0, 76, 80
1, 299879, Note_on_c, 0, 76, 0
1, 299920, Note_on_c, 0, 77, 80
1, 299995, Note_on_c, 0, 77, 0
1, 300000, Note_on_c, 0, 79, 80
1, 300240, Note_on_c, 0, 72, 80
1, 300303, Note_on_c, 0, 79, 0
1, 300320, Note_on_c, 0, 79, 80
1, 300581, Note_on_c, 0, 72, 0
1, 300813, Note_on_c, 0, 79, 0
1, 300840, Note_on_c, 0, 77, 80
1, 301181, Note_on_c, 0, 77, 0
1, 301280, Note_on_c, 0, 76, 80
1, 301431, Note_on_c, 0, 76, 0
1, 301440, Note_on_c, 0, 72, 80
1, 301743, Note_on_c, 0, 72, 0
1, 301760, Note_on_c, 0, 72, 80
1, 301911, Note_on_c, 0, 72, 0
1, 301920, Note_on_c, 0, 74, 80
1, 302223, Note_on_c, 0, 74, 0
1, 302240, Note_on_c, 0, 76, 80
1, 302280, Note_on_c, 0, 77, 80
1, 302391, Note_on_c, 0, 76, 0
1, 302621, Note_on_c, 0, 77, 0
1, 302720, Note_on_c, 0, 77, 80
1, 302760, Note_on_c, 0, 79, 80
1, 302871, Note_on_c, 0, 77, 0
1, 303329, Note_on_c, 0, 79, 0
1, 303680, Note_on_c, 0, 81, 80
1, 303831, Note_on_c, 0, 81, 0
1, 303840, Note_on_c, 0, 79, 80
1, 304143, Note_on_c, 0, 79, 0
1, 304160, Note_on_c, 0, 76, 80
1, 304653, Note_on_c, 0, 76, 0
1, 304680, Note_on_c, 0, 67, 80
1, 305021, Note_on_c, 0, 67, 0
1, 305120, Note_on_c, 0, 69, 80
1, 305271, Note_on_c, 0, 69, 0
1, 305280, Note_on_c, 0, 72, 80
1, 305583, Note_on_c, 0, 72, 0
1, 305600, Note_on_c, 0, 69, 80
1, 305751, Note_on_c, 0, 69, 0
1, 305760, Note_on_c, 0, 74, 80
1, 306063, Note_on_c, 0, 74, 0
1, 306080, Note_on_c, 0, 72, 80
1, 306573, Note_on_c, 0, 72, 0
1, 306600, Note_on_c, 0, 67, 80
1, 306713, Note_on_c, 0, 67, 0
1, 306720, Note_on_c, 0, 67, 80
1, 306871, Note_on_c, 0, 67, 0
1, 306880, Note_on_c, 0, 69, 80
1, 307031, Note_on_c, 0, 69, 0
1, 307040, Note_on_c, 0, 71, 80
1, 307191, Note_on_c, 0, 71, 0
1, 307200, Note_on_c, 0, 74, 80
1, 307427, Note_on_c, 0, 74, 0
1, 307520, Note_on_c, 0, 76, 80
1, 307538, Note_on_c, 0, 76, 0
1, 307600, Note_on_c, 0, 77, 80
1, 307675, Note_on_c, 0, 77, 0
1, 307680, Note_on_c, 0, 79, 80
1, 307920, Note_on_c, 0, 72, 80
1, 307983, Note_on_c, 0, 79, 0
1, 308000, Note_on_c, 0, 79, 80
1, 308261, Note_on_c, 0, 72, 0
1, 308835, Note_on_c, 0, 79, 0
1, 309000, Note_on_c, 0, 77, 80
1, 309113, Note_on_c, 0, 77, 0
1, 309120, Note_on_c, 0, 76, 80
1, 309423, Note_on_c, 0, 76, 0
1, 309440, Note_on_c, 0, 77, 80
1, 309591, Note_on_c, 0, 77, 0
1, 309600, Note_on_c, 0, 79, 80
1, 309903, Note_on_c, 0, 79, 0
1, 309920, Note_on_c, 0, 76, 80
1, 310413, Note_on_c, 0, 76, 0
1, 310440, Note_on_c, 0, 72, 80
1, 310781, Note_on_c, 0, 72, 0
1, 310880, Note_on_c, 0, 74, 80
1, 311031, Note_on_c, 0, 74, 0
1, 311040, Note_on_c, 0, 76, 80
1, 311343, Note_on_c, 0, 76, 0
1, 311360, Note_on_c, 0, 72, 80
1, 311511, Note_on_c, 0, 72, 0
1, 311520, Note_on_c, 0, 67, 80
1, 312000, Note_on_c, 0, 79, 80
1, 312431, Note_on_c, 0, 67, 0
1, 312455, Note_on_c, 0, 79, 0
1, 312480, Note_on_c, 0, 84, 80
1, 312800, Note_on_c, 0, 69, 80
1, 312935, Note_on_c, 0, 84, 0
1, 312951, Note_on_c, 0, 69, 0
1, 312960, Note_on_c, 0, 83, 80
1, 312960, Note_on_c, 0, 67, 80
1, 313263, Note_on_c, 0, 67, 0
1, 313280, Note_on_c, 0, 71, 80
1, 313415, Note_on_c, 0, 83, 0
1, 313773, Note_on_c, 0, 71, 0
1, 313800, Note_on_c, 0, 74, 80
1, 313913, Note_on_c, 0, 74, 0
1, 313920, Note_on_c, 0, 76, 80
1, 314223, Note_on_c, 0, 76, 0
1, 314240, Note_on_c, 0, 77, 80
1, 314391, Note_on_c, 0, 77, 0
1, 314400, Note_on_c, 0, 74, 80
1, 314855, Note_on_c, 0, 74, 0
1, 315200, Note_on_c, 0, 76, 80
1, 315275, Note_on_c, 0, 76, 0
1, 315280, Note_on_c, 0, 77, 80
1, 315355, Note_on_c, 0, 77, 0
1, 315360, Note_on_c, 0, 79, 80
1, 315663, Note_on_c, 0, 79, 0
1, 315680, Note_on_c, 0, 79, 80
1, 316515, Note_on_c, 0, 79, 0
1, 316680, Note_on_c, 0, 77, 80
1, 316793, Note_on_c, 0, 77, 0
1, 316800, Note_on_c, 0, 76, 80
1, 317103, Note_on_c, 0, 76, 0
1, 317120, Note_on_c, 0, 79, 80
1, 317271, Note_on_c, 0, 79, 0
1, 317280, Note_on_c, 0, 84, 80
1, 317583, Note_on_c, 0, 84, 0
1, 317600, Note_on_c, 0, 81, 80
1, 318093, Note_on_c, 0, 81, 0
1, 318120, Note_on_c, 0, 77, 80
1, 318461, Note_on_c, 0, 77, 0
1, 318560, Note_on_c, 0, 76, 80
1, 318711, Note_on_c, 0, 76, 0
1, 318720, Note_on_c, 0, 74, 80
1, 319023, Note_on_c, 0, 74, 0
1, 319040, Note_on_c, 0, 76, 80
1, 319191, Note_on_c, 0, 76, 0
1, 319200, Note_on_c, 0, 77, 80
1, 320111, Note_on_c, 0, 77, 0
1, 320480, Note_on_c, 0, 76, 80
1, 320935, Note_on_c, 0, 76, 0
1, 320960, Note_on_c, 0, 77, 80
1, 321111, Note_on_c, 0, 77, 0
1, 321120, Note_on_c, 0, 79, 80
1, 321575, Note_on_c, 0, 79, 0
1, 321920, Note_on_c, 0, 67, 80
1, 322071, Note_on_c, 0, 67, 0
1, 322080, Note_on_c, 0, 67, 80
1, 322231, Note_on_c, 0, 67, 0
1, 322240, Note_on_c, 0, 69, 80
1, 322391, Note_on_c, 0, 69, 0
1, 322400, Note_on_c, 0, 71, 80
1, 322551, Note_on_c, 0, 71, 0
1, 322560, Note_on_c, 0, 74, 80
1, 322863, Note_on_c, 0, 74, 0
1, 322880, Note_on_c, 0, 76, 80
1, 323031, Note_on_c, 0, 76, 0
1, 323280, Note_on_c, 0, 72, 80
1, 323621, Note_on_c, 0, 72, 0
1, 334320, Note_on_c, 0, 64, 80
1, 334320, Note_on_c, 0, 67, 80
1, 334547, Note_on_c, 0, 64, 0
1, 334547, Note_on_c, 0, 67, 0
1, 336240, Note_on_c, 0, 69, 80
1, 336240, Note_on_c, 0, 72, 80
1, 336467, Note_on_c, 0, 69, 0
1, 336467, Note_on_c, 0, 72, 0
1, 337920, Note_on_c, 0, 79, 80
1, 338033, Note_on_c, 0, 79, 0
1, 338040, Note_on_c, 0, 77, 80
1, 338153, Note_on_c, 0, 77, 0
1, 338160, Note_on_c, 0, 76, 80
1, 338273, Note_on_c, 0, 76, 0
1, 338280, Note_on_c, 0, 77, 80
1, 338393, Note_on_c, 0, 77, 0
1, 338400, Note_on_c, 0, 79, 80
1, 338513, Note_on_c, 0, 79, 0
1, 338520, Note_on_c, 0, 81, 80
1, 338633, Note_on_c, 0, 81, 0
1, 338640, Note_on_c, 0, 79, 80
1, 338753, Note_on_c, 0, 79, 0
1, 338760, Note_on_c, 0, 77, 80
1, 338873, Note_on_c, 0, 77, 0
1, 338880, Note_on_c, 0, 76, 80
1, 339563, Note_on_c, 0, 76, 0
1, 339600, Note_on_c, 0, 74, 80
1, 339827, Note_on_c, 0, 74, 0
1, 339840, Note_on_c, 0, 77, 80
1, 340067, Note_on_c, 0, 77, 0
1, 340080, Note_on_c, 0, 72, 80
1, 340193, Note_on_c, 0, 72, 0
1, 340200, Note_on_c, 0, 74, 80
1, 340313, Note_on_c, 0, 74, 0
1, 340320, Note_on_c, 0, 76, 80
1, 340547, Note_on_c, 0, 76, 0
1, 340560, Note_on_c, 0, 74, 80
1, 340673, Note_on_c, 0, 74, 0
1, 340680, Note_on_c, 0, 76, 80
1, 340793, Note_on_c, 0, 76, 0
1, 340800, Note_on_c, 0, 77, 80
1, 341027, Note_on_c, 0, 77, 0
1, 341040, Note_on_c, 0, 79, 80
1, 341723, Note_on_c, 0, 79, 0
1, 341760, Note_on_c, 0, 79, 80
1, 341873, Note_on_c, 0, 79, 0
1, 341880, Note_on_c, 0, 77, 80
1, 341993, Note_on_c, 0, 77, 0
1, 342000, Note_on_c, 0, 76, 80
1, 342113, Note_on_c, 0, 76, 0
1, 342120, Note_on_c, 0, 74, 80
1, 342233, Note_on_c, 0, 74, 0
1, 342240, Note_on_c, 0, 76, 80
1, 342353, Note_on_c, 0, 76, 0
1, 342360, Note_on_c, 0, 77, 80
1, 342473, Note_on_c, 0, 77, 0
1, 342480, Note_on_c, 0, 79, 80
1, 342593, Note_on_c, 0, 79, 0
1, 342600, Note_on_c, 0, 81, 80
1, 342713, Note_on_c, 0, 81, 0
1, 342720, Note_on_c, 0, 79, 80
1, 343403, Note_on_c, 0, 79, 0
1, 343440, Note_on_c, 0, 79, 80
1, 343667, Note_on_c, 0, 79, 0
1, 343680, Note_on_c, 0, 74, 80
1, 343793, Note_on_c, 0, 74, 0
1, 343800, Note_on_c, 0, 76, 80
1, 343913, Note_on_c, 0, 76, 0
1, 343920, Note_on_c, 0, 77, 80
1, 344147, Note_on_c, 0, 77, 0
1, 344160, Note_on_c, 0, 79, 80
1, 344387, Note_on_c, 0, 79, 0
1, 344400, Note_on_c, 0, 71, 80
1, 344627, Note_on_c, 0, 71, 0
1, 344640, Note_on_c, 0, 74, 80
1, 344867, Note_on_c, 0, 74, 0
1, 344880, Note_on_c, 0, 72, 80
1, 345563, Note_on_c, 0, 72, 0
1, 345600, Note_on_c, 0, 79, 80
1, 345713, Note_on_c, 0, 79, 0
1, 345720, Note_on_c, 0, 77, 80
1, 345833, Note_on_c, 0, 77, 0
1, 345840, Note_on_c, 0, 76, 80
1, 345953, Note_on_c, 0, 76, 0
1, 345960, Note_on_c, 0, 77, 80
1, 346073, Note_on_c, 0, 77, 0
1, 346080, Note_on_c, 0, 79, 80
1, 346193, Note_on_c, 0, 79, 0
1, 346200, Note_on_c, 0, 81, 80
1, 346313, Note_on_c, 0, 81, 0
1, 346320, Note_on_c, 0, 79, 80
1, 346433, Note_on_c, 0, 79, 0
1, 346440, Note_on_c, 0, 77, 80
1, 346553, Note_on_c, 0, 77, 0
1, 346560, Note_on_c, 0, 76, 80
1, 347243, Note_on_c, 0, 76, 0
1, 347280, Note_on_c, 0, 74, 80
1, 347507, Note_on_c, 0, 74, 0
1, 347520, Note_on_c, 0, 77, 80
1, 347747, Note_on_c, 0, 77, 0
1, 347760, Note_on_c, 0, 72, 80
1, 347873, Note_on_c, 0, 72, 0
1, 347880, Note_on_c, 0, 74, 80
1, 347993, Note_on_c, 0, 74, 0
1, 348000, Note_on_c, 0, 76, 80
1, 348227, Note_on_c, 0, 76, 0
1, 348240, Note_on_c, 0, 74, 80
1, 348353, Note_on_c, 0, 74, 0
1, 348360, Note_on_c, 0, 76, 80
1, 348473, Note_on_c, 0, 76, 0
1, 348480, Note_on_c, 0, 77, 80
1, 348707, Note_on_c, 0, 77, 0
1, 348720, Note_on_c, 0, 79, 80
1, 349403, Note_on_c, 0, 79, 0
1, 349440, Note_on_c, 0, 79, 80
1, 349553, Note_on_c, 0, 79, 0
1, 349560, Note_on_c, 0, 77, 80
1, 349673, Note_on_c, 0, 77, 0
1, 349680, Note_on_c, 0, 76, 80
1, 349793, Note_on_c, 0, 76, 0
1, 349800, Note_on_c, 0, 74, 80
1, 349913, Note_on_c, 0, 74, 0
1, 349920, Note_on_c, 0, 76, 80
1, 350033, Note_on_c, 0, 76, 0
1, 350040, Note_on_c, 0, 77, 80
1, 350153, Note_on_c, 0, 77, 0
1, 350160, Note_on_c, 0, 79, 80
1, 350273, Note_on_c, 0, 79, 0
1, 350280, Note_on_c, 0, 81, 80
1, 350393, Note_on_c, 0, 81, 0
1, 350400, Note_on_c, 0, 79, 80
1, 351083, Note_on_c, 0, 79, 0
1, 351120, Note_on_c, 0, 79, 80
1, 351347, Note_on_c, 0, 79, 0
1, 351360, Note_on_c, 0, 74, 80
1, 351473, Note_on_c, 0, 74, 0
1, 351480, Note_on_c, 0, 76, 80
1, 351593, Note_on_c, 0, 76, 0
1, 351600, Note_on_c, 0, 77, 80
1, 351827, Note_on_c, 0, 77, 0
1, 351840, Note_on_c, 0, 79, 80
1, 352067, Note_on_c, 0, 79, 0
1, 352080, Note_on_c, 0, 71, 80
1, 352307, Note_on_c, 0, 71, 0
1, 352320, Note_on_c, 0, 74, 80
1, 352547, Note_on_c, 0, 74, 0
1, 352560, Note_on_c, 0, 72, 80
1, 352919, Note_on_c, 0, 72, 0
1, 354240, Note_on_c, 0, 64, 80
1, 354353, Note_on_c, 0, 64, 0
1, 354360, Note_on_c, 0, 65, 80
1, 354473, Note_on_c, 0, 65, 0
1, 354480, Note_on_c, 0, 67, 80
1, 354593, Note_on_c, 0, 67, 0
1, 354600, Note_on_c, 0, 69, 80
1, 354713, Note_on_c, 0, 69, 0
1, 354720, Note_on_c, 0, 71, 80
1, 354833, Note_on_c, 0, 71, 0
1, 354840, Note_on_c, 0, 72, 80
1, 354953, Note_on_c, 0, 72, 0
1, 354960, Note_on_c, 0, 74, 80
1, 355073, Note_on_c, 0, 74, 0
1, 355080, Note_on_c, 0, 76, 80
1, 355193, Note_on_c, 0, 76, 0
1, 361920, Note_on_c, 0, 64, 80
1, 362033, Note_on_c, 0, 64, 0
1, 362040, Note_on_c, 0, 65, 80
1, 362153, Note_on_c, 0, 65, 0
1, 362160, Note_on_c, 0, 67, 80
1, 362273, Note_on_c, 0, 67, 0
1, 362280, Note_on_c, 0, 69, 80
1, 362393, Note_on_c, 0, 69, 0
1, 362400, Note_on_c, 0, 71, 80
1, 362513, Note_on_c, 0, 71, 0
1, 362520, Note_on_c, 0, 72, 80
1, 362633, Note_on_c, 0, 72, 0
1, 362640, Note_on_c, 0, 74, 80
1, 362753, Note_on_c, 0, 74, 0
1, 362760, Note_on_c, 0, 76, 80
1, 362873, Note_on_c, 0, 76, 0
1, 362880, Note_on_c, 0, 79, 80
1, 363791, Note_on_c, 0, 79, 0
1, 364080, Note_on_c, 0, 64, 80
1, 364193, Note_on_c, 0, 64, 0
1, 364200, Note_on_c, 0, 62, 80
1, 364313, Note_on_c, 0, 62, 0
1, 364320, Note_on_c, 0, 60, 80
1, 364433, Note_on_c, 0, 60, 0
1, 364440, Note_on_c, 0, 62, 80
1, 364553, Note_on_c, 0, 62, 0
1, 364560, Note_on_c, 0, 64, 80
1, 364673, Note_on_c, 0, 64, 0
1, 364680, Note_on_c, 0, 65, 80
1, 364793, Note_on_c, 0, 65, 0
1, 364800, Note_on_c, 0, 67, 80
1, 364913, Note_on_c, 0, 67, 0
1, 364920, Note_on_c, 0, 65, 80
1, 365033, Note_on_c, 0, 65, 0
1, 365040, Note_on_c, 0, 64, 80
1, 365153, Note_on_c, 0, 64, 0
1, 365160, Note_on_c, 0, 62, 80
1, 365273, Note_on_c, 0, 62, 0
1, 365280, Note_on_c, 0, 60, 80
1, 365393, Note_on_c, 0, 60, 0
1, 365400, Note_on_c, 0, 62, 80
1, 365513, Note_on_c, 0, 62, 0
1, 365520, Note_on_c, 0, 64, 80
1, 365633, Note_on_c, 0, 64, 0
1, 365640, Note_on_c, 0, 65, 80
1, 365753, Note_on_c, 0, 65, 0
1, 365760, Note_on_c, 0, 67, 80
1, 365873, Note_on_c, 0, 67, 0
1, 365880, Note_on_c, 0, 65, 80
1, 365993, Note_on_c, 0, 65, 0
1, 366000, Note_on_c, 0, 67, 80
1, 366113, Note_on_c, 0, 67, 0
1, 366120, Note_on_c, 0, 69, 80
1, 366233, Note_on_c, 0, 69, 0
1, 366240, Note_on_c, 0, 71, 80
1, 366353, Note_on_c, 0, 71, 0
1, 366360, Note_on_c, 0, 72, 80
1, 366473, Note_on_c, 0, 72, 0
1, 366480, Note_on_c, 0, 74, 80
1, 366593, Note_on_c, 0, 74, 0
1, 366600, Note_on_c, 0, 77, 80
1, 366713, Note_on_c, 0, 77, 0
1, 366720, Note_on_c, 0, 81, 80
1, 366833, Note_on_c, 0, 81, 0
1, 366840, Note_on_c, 0, 79, 80
1, 366953, Note_on_c, 0, 79, 0
1, 366960, Note_on_c, 0, 77, 80
1, 367073, Note_on_c, 0, 77, 0
1, 367080, Note_on_c, 0, 76, 80
1, 367193, Note_on_c, 0, 76, 0
1, 367200, Note_on_c, 0, 74, 80
1, 367313, Note_on_c, 0, 74, 0
1, 367320, Note_on_c, 0, 76, 80
1, 367433, Note_on_c, 0, 76, 0
1, 367440, Note_on_c, 0, 77, 80
1, 367553, Note_on_c, 0, 77, 0
1, 367560, Note_on_c, 0, 74, 80
1, 367673, Note_on_c, 0, 74, 0
1, 367680, Note_on_c, 0, 72, 80
1, 367793, Note_on_c, 0, 72, 0
1, 367800, Note_on_c, 0, 71, 80
1, 367913, Note_on_c, 0, 71, 0
1, 367920, Note_on_c, 0, 69, 80
1, 368033, Note_on_c, 0, 69, 0
1, 368040, Note_on_c, 0, 67, 80
1, 368153, Note_on_c, 0, 67, 0
1, 368160, Note_on_c, 0, 65, 80
1, 368273, Note_on_c, 0, 65, 0
1, 368280, Note_on_c, 0, 64, 80
1, 368393, Note_on_c, 0, 64, 0
1, 368400, Note_on_c, 0, 62, 80
1, 368513, Note_on_c, 0, 62, 0
1, 368520, Note_on_c, 0, 60, 80
1, 368633, Note_on_c, 0, 60, 0
1, 368640, Note_on_c, 0, 79, 80
1, 368753, Note_on_c, 0, 79, 0
1, 368760, Note_on_c, 0, 77, 80
1, 368873, Note_on_c, 0, 77, 0
1, 368880, Note_on_c, 0, 76, 80
1, 368993, Note_on_c, 0, 76, 0
1, 369000, Note_on_c, 0, 77, 80
1, 369113, Note_on_c, 0, 77, 0
1, 369120, Note_on_c, 0, 79, 80
1, 369233, Note_on_c, 0, 79, 0
1, 369240, Note_on_c, 0, 81, 80
1, 369353, Note_on_c, 0, 81, 0
1, 369360, Note_on_c, 0, 79, 80
1, 369473, Note_on_c, 0, 79, 0
1, 369480, Note_on_c, 0, 77, 80
1, 369593, Note_on_c, 0, 77, 0
1, 369600, Note_on_c, 0, 76, 80
1, 370283, Note_on_c, 0, 76, 0
1, 370320, Note_on_c, 0, 74, 80
1, 370547, Note_on_c, 0, 74, 0
1, 370560, Note_on_c, 0, 77, 80
1, 370787, Note_on_c, 0, 77, 0
1, 370800, Note_on_c, 0, 72, 80
1, 370913, Note_on_c, 0, 72, 0
1, 370920, Note_on_c, 0, 74, 80
1, 371033, Note_on_c, 0, 74, 0
1, 371040, Note_on_c, 0, 76, 80
1, 371267, Note_on_c, 0, 76, 0
1, 371280, Note_on_c, 0, 74, 80
1, 371393, Note_on_c, 0, 74, 0
1, 371400, Note_on_c, 0, 76, 80
1, 371513, Note_on_c, 0, 76, 0
1, 371520, Note_on_c, 0, 77, 80
1, 371747, Note_on_c, 0, 77, 0
1, 371760, Note_on_c, 0, 79, 80
1, 372443, Note_on_c, 0, 79, 0
1, 372480, Note_on_c, 0, 79, 80
1, 372593, Note_on_c, 0, 79, 0
1, 372600, Note_on_c, 0, 77, 80
1, 372713, Note_on_c, 0, 77, 0
1, 372720, Note_on_c, 0, 76, 80
1, 372833, Note_on_c, 0, 76, 0
1, 372840, Note_on_c, 0, 74, 80
1, 372953, Note_on_c, 0, 74, 0
1, 372960, Note_on_c, 0, 76, 80
1, 373073, Note_on_c, 0, 76, 0
1, 373080, Note_on_c, 0, 77, 80
1, 373193, Note_on_c, 0, 77, 0
1, 373200, Note_on_c, 0, 79, 80
1, 373313, Note_on_c, 0, 79, 0
1, 373320, Note_on_c, 0, 81, 80
1, 373433, Note_on_c, 0, 81, 0
1, 373440, Note_on_c, 0, 79, 80
1, 374123, Note_on_c, 0, 79, 0
1, 374160, Note_on_c, 0, 79, 80
1, 374387, Note_on_c, 0, 79, 0
1, 374400, Note_on_c, 0, 74, 80
1, 374513, Note_on_c, 0, 74, 0
1, 374520, Note_on_c, 0, 76, 80
1, 374633, Note_on_c, 0, 76, 0
1, 374640, Note_on_c, 0, 77, 80
1, 374867, Note_on_c, 0, 77, 0
1, 374880, Note_on_c, 0, 79, 80
1, 375107, Note_on_c, 0, 79, 0
1, 375120, Note_on_c, 0, 71, 80
1, 375347, Note_on_c, 0, 71, 0
1, 375360, Note_on_c, 0, 74, 80
1, 375587, Note_on_c, 0, 74, 0
1, 375600, Note_on_c, 0, 72, 80
1, 376283, Note_on_c, 0, 72, 0
1, 376320, Note_on_c, 0, 72, 80
1, 376433, Note_on_c, 0, 72, 0
1, 376440, Note_on_c, 0, 74, 80
1, 376553, Note_on_c, 0, 74, 0
1, 376560, Note_on_c, 0, 76, 80
1, 376787, Note_on_c, 0, 76, 0
1, 376800, Note_on_c, 0, 79, 80
1, 377027, Note_on_c, 0, 79, 0
1, 377040, Note_on_c, 0, 84, 80
1, 377267, Note_on_c, 0, 84, 0
1, 377280, Note_on_c, 0, 83, 80
1, 377507, Note_on_c, 0, 83, 0
1, 377520, Note_on_c, 0, 79, 80
1, 377747, Note_on_c, 0, 79, 0
1, 377760, Note_on_c, 0, 81, 80
1, 377987, Note_on_c, 0, 81, 0
1, 378000, Note_on_c, 0, 77, 80
1, 378227, Note_on_c, 0, 77, 0
1, 378240, Note_on_c, 0, 79, 80
1, 378923, Note_on_c, 0, 79, 0
1, 378960, Note_on_c, 0, 77, 80
1, 379073, Note_on_c, 0, 77, 0
1, 379080, Note_on_c, 0, 76, 80
1, 379193, Note_on_c, 0, 76, 0
1, 379200, Note_on_c, 0, 74, 80
1, 380111, Note_on_c, 0, 74, 0
1, 380160, Note_on_c, 0, 72, 80
1, 380273, Note_on_c, 0, 72, 0
1, 380280, Note_on_c, 0, 74, 80
1, 380393, Note_on_c, 0, 74, 0
1, 380400, Note_on_c, 0, 76, 80
1, 380627, Note_on_c, 0, 76, 0
1, 380640, Note_on_c, 0, 79, 80
1, 380867, Note_on_c, 0, 79, 0
1, 380880, Note_on_c, 0, 76, 80
1, 381107, Note_on_c, 0, 76, 0
1, 381120, Note_on_c, 0, 74, 80
1, 381347, Note_on_c, 0, 74, 0
1, 381360, Note_on_c, 0, 72, 80
1, 381815, Note_on_c, 0, 72, 0
1, 381840, Note_on_c, 0, 71, 80
1, 382295, Note_on_c, 0, 71, 0
1, 382320, Note_on_c, 0, 74, 80
1, 382775, Note_on_c, 0, 74, 0
1, 382800, Note_on_c, 0, 71, 80
1, 383027, Note_on_c, 0, 71, 0
1, 383040, Note_on_c, 0, 72, 80
1, 383267, Note_on_c, 0, 72, 0
1, 383280, Note_on_c, 0, 74, 80
1, 383507, Note_on_c, 0, 74, 0
1, 383520, Note_on_c, 0, 76, 80
1, 383975, Note_on_c, 0, 76, 0
1, 384000, Note_on_c, 0, 72, 80
1, 384113, Note_on_c, 0, 72, 0
1, 384120, Note_on_c, 0, 74, 80
1, 384233, Note_on_c, 0, 74, 0
1, 384240, Note_on_c, 0, 76, 80
1, 384467, Note_on_c, 0, 76, 0
1, 384480, Note_on_c, 0, 79, 80
1, 384707, Note_on_c, 0, 79, 0
1, 384720, Note_on_c, 0, 84, 80
1, 384947, Note_on_c, 0, 84, 0
1, 384960, Note_on_c, 0, 83, 80
1, 385187, Note_on_c, 0, 83, 0
1, 385200, Note_on_c, 0, 84, 80
1, 385427, Note_on_c, 0, 84, 0
1, 385440, Note_on_c, 0, 81, 80
1, 385667, Note_on_c, 0, 81, 0
1, 385680, Note_on_c, 0, 77, 80
1, 385907, Note_on_c, 0, 77, 0
1, 385920, Note_on_c, 0, 79, 80
1, 386603, Note_on_c, 0, 79, 0
1, 386640, Note_on_c, 0, 77, 80
1, 386753, Note_on_c, 0, 77, 0
1, 386760, Note_on_c, 0, 79, 80
1, 386873, Note_on_c, 0, 79, 0
1, 386880, Note_on_c, 0, 81, 80
1, 387791, Note_on_c, 0, 81, 0
1, 387840, Note_on_c, 0, 81, 80
1, 389321, Note_on_c, 0, 81, 0
1, 389520, Note_on_c, 0, 79, 80
1, 389633, Note_on_c, 0, 79, 0
1, 389640, Note_on_c, 0, 81, 80
1, 389753, Note_on_c, 0, 81, 0
1, 389760, Note_on_c, 0, 76, 80
1, 391241, Note_on_c, 0, 76, 0
1, 391440, Note_on_c, 0, 74, 80
1, 391553, Note_on_c, 0, 74, 0
1, 391560, Note_on_c, 0, 76, 80
1, 391673, Note_on_c, 0, 76, 0
1, 391680, Note_on_c, 0, 72, 80
1, 393161, Note_on_c, 0, 72, 0
1, 393360, Note_on_c, 0, 69, 80
1, 393473, Note_on_c, 0, 69, 0
1, 393480, Note_on_c, 0, 72, 80
1, 393593, Note_on_c, 0, 72, 0
1, 393600, Note_on_c, 0, 67, 80
1, 395423, Note_on_c, 0, 67, 0
1, 399360, Key_signature, 0, "major"
1, 399360, Tempo, 821918
1, 399840, Note_on_c, 0, 77, 80
1, 399877, Note_on_c, 0, 77, 0
1, 399880, Note_on_c, 0, 79, 80
1, 400069, Note_on_c, 0, 79, 0
1, 400080, Note_on_c, 0, 79, 80
1, 400877, Note_on_c, 0, 79, 0
1, 401040, Note_on_c, 0, 77, 80
1, 401267, Note_on_c, 0, 77, 0
1, 401280, Note_on_c, 0, 76, 80
1, 401735, Note_on_c, 0, 76, 0
1, 401760, Note_on_c, 0, 79, 80
1, 401987, Note_on_c, 0, 79, 0
1, 402000, Note_on_c, 0, 74, 80
1, 402455, Note_on_c, 0, 74, 0
1, 402480, Note_on_c, 0, 72, 80
1, 402935, Note_on_c, 0, 72, 0
1, 402960, Note_on_c, 0, 74, 80
1, 403187, Note_on_c, 0, 74, 0
1, 403200, Note_on_c, 0, 71, 80
1, 403237, Note_on_c, 0, 71, 0
1, 403240, Note_on_c, 0, 76, 80
1, 404797, Note_on_c, 0, 76, 0
1, 405120, Note_on_c, 0, 71, 80
1, 405157, Note_on_c, 0, 71, 0
1, 405160, Note_on_c, 0, 74, 80
1, 406717, Note_on_c, 0, 74, 0
1, 407520, Note_on_c, 0, 77, 80
1, 407557, Note_on_c, 0, 77, 0
1, 407560, Note_on_c, 0, 79, 80
1, 407749, Note_on_c, 0, 79, 0
1, 407760, Note_on_c, 0, 79, 80
1, 408557, Note_on_c, 0, 79, 0
1, 408720, Note_on_c, 0, 77, 80
1, 408947, Note_on_c, 0, 77, 0
1, 408960, Note_on_c, 0, 79, 80
1, 409415, Note_on_c, 0, 79, 0
1, 409440, Note_on_c, 0, 76, 80
1, 409667, Note_on_c, 0, 76, 0
1, 409680, Note_on_c, 0, 74, 80
1, 410135, Note_on_c, 0, 74, 0
1, 410160, Note_on_c, 0, 71, 80
1, 410615, Note_on_c, 0, 71, 0
1, 410640, Note_on_c, 0, 69, 80
1, 410867, Note_on_c, 0, 69, 0
1, 410880, Note_on_c, 0, 64, 80
1, 410917, Note_on_c, 0, 64, 0
1, 410920, Note_on_c, 0, 67, 80
1, 411337, Note_on_c, 0, 67, 0
1, 412800, Note_on_c, 0, 62, 80
1, 412837, Note_on_c, 0, 62, 0
1, 412840, Note_on_c, 0, 65, 80
1, 413257, Note_on_c, 0, 65, 0
1, 414720, Note_on_c, 0, 67, 80
1, 416087, Note_on_c, 0, 67, 0
1, 416400, Note_on_c, 0, 67, 80
1, 416513, Note_on_c, 0, 67, 0
1, 416520, Note_on_c, 0, 69, 80
1, 416633, Note_on_c, 0, 69, 0
1, 416640, Note_on_c, 0, 67, 80
1, 418007, Note_on_c, 0, 67, 0
1, 418320, Note_on_c, 0, 67, 80
1, 418433, Note_on_c, 0, 67, 0
1, 418440, Note_on_c, 0, 69, 80
1, 418553, Note_on_c, 0, 69, 0
1, 418560, Note_on_c, 0, 67, 80
1, 418787, Note_on_c, 0, 67, 0
1, 418800, Note_on_c, 0, 65, 80
1, 419027, Note_on_c, 0, 65, 0
1, 419040, Note_on_c, 0, 64, 80
1, 419267, Note_on_c, 0, 64, 0
1, 419280, Note_on_c, 0, 60, 80
1, 420077, Note_on_c, 0, 60, 0
1, 420240, Note_on_c, 0, 69, 80
1, 420467, Note_on_c, 0, 69, 0
1, 420480, Note_on_c, 0, 67, 80
1, 420707, Note_on_c, 0, 67, 0
1, 420720, Note_on_c, 0, 72, 80
1, 420947, Note_on_c, 0, 72, 0
1, 420960, Note_on_c, 0, 71, 80
1, 421187, Note_on_c, 0, 71, 0
1, 421200, Note_on_c, 0, 72, 80
1, 421997, Note_on_c, 0, 72, 0
1, 422160, Note_on_c, 0, 74, 80
1, 422273, Note_on_c, 0, 74, 0
1, 422280, Note_on_c, 0, 76, 80
1, 422393, Note_on_c, 0, 76, 0
1, 422400, Note_on_c, 0, 77, 80
1, 422627, Note_on_c, 0, 77, 0
1, 422640, Note_on_c, 0, 67, 80
1, 423893, Note_on_c, 0, 67, 0
1, 424080, Note_on_c, 0, 77, 80
1, 424193, Note_on_c, 0, 77, 0
1, 424200, Note_on_c, 0, 76, 80
1, 424313, Note_on_c, 0, 76, 0
1, 424320, Note_on_c, 0, 67, 80
1, 424320, Note_on_c, 0, 72, 80
1, 424547, Note_on_c, 0, 67, 0
1, 424547, Note_on_c, 0, 72, 0
1, 424560, Note_on_c, 0, 79, 80
1, 425813, Note_on_c, 0, 79, 0
1, 426000, Note_on_c, 0, 81, 80
1, 426227, Note_on_c, 0, 81, 0
1, 426240, Note_on_c, 0, 83, 80
1, 426467, Note_on_c, 0, 83, 0
1, 426480, Note_on_c, 0, 81, 80
1, 426707, Note_on_c, 0, 81, 0
1, 426720, Note_on_c, 0, 83, 80
1, 426947, Note_on_c, 0, 83, 0
1, 426960, Note_on_c, 0, 81, 80
1, 427415, Note_on_c, 0, 81, 0
1, 427440, Note_on_c, 0, 79, 80
1, 427895, Note_on_c, 0, 79, 0
1, 427920, Note_on_c, 0, 77, 80
1, 428147, Note_on_c, 0, 77, 0
1, 428160, Note_on_c, 0, 76, 80
1, 429983, Note_on_c, 0, 76, 0
1, 430080, Note_on_c, 0, 74, 80
1, 431903, Note_on_c, 0, 74, 0
1, 431904, End_track
2, 0, Start_track
2, 0, Title_t, "Piano, Piano\000"
2, 0, Key_signature, 0, "major"
2, 0, MIDI_port, 0
2, 0, Note_on_c, 0, 60, 80
2, 227, Note_on_c, 0, 60, 0
2, 240, Note_on_c, 0, 64, 80
2, 240, Note_on_c, 0, 67, 80
2, 467, Note_on_c, 0, 64, 0
2, 467, Note_on_c, 0, 67, 0
2, 720, Note_on_c, 0, 60, 80
2, 947, Note_on_c, 0, 60, 0
2, 960, Note_on_c, 0, 57, 80
2, 1187, Note_on_c, 0, 57, 0
2, 1200, Note_on_c, 0, 60, 80
2, 1200, Note_on_c, 0, 64, 80
2, 1427, Note_on_c, 0, 60, 0
2, 1427, Note_on_c, 0, 64, 0
2, 1680, Note_on_c, 0, 57, 80
2, 1907, Note_on_c, 0, 57, 0
2, 1920, Note_on_c, 0, 53, 80
2, 2147, Note_on_c, 0, 53, 0
2, 2160, Note_on_c, 0, 57, 80
2, 2160, Note_on_c, 0, 60, 80
2, 2387, Note_on_c, 0, 57, 0
2, 2387, Note_on_c, 0, 60, 0
2, 2640, Note_on_c, 0, 53, 80
2, 2867, Note_on_c, 0, 53, 0
2, 2880, Note_on_c, 0, 55, 80
2, 3107, Note_on_c, 0, 55, 0
2, 3120, Note_on_c, 0, 59, 80
2, 3120, Note_on_c, 0, 62, 80
2, 3347, Note_on_c, 0, 59, 0
2, 3347, Note_on_c, 0, 62, 0
2, 3600, Note_on_c, 0, 55, 80
2, 3827, Note_on_c, 0, 55, 0
2, 3840, Note_on_c, 0, 60, 80
2, 4067, Note_on_c, 0, 60, 0
2, 4080, Note_on_c, 0, 64, 80
2, 4080, Note_on_c, 0, 67, 80
2, 4307, Note_on_c, 0, 64, 0
2, 4307, Note_on_c, 0, 67, 0
2, 4560, Note_on_c, 0, 60, 80
2, 4787, Note_on_c, 0, 60, 0
2, 4800, Note_on_c, 0, 57, 80
2, 5027, Note_on_c, 0, 57, 0
2, 5040, Note_on_c, 0, 60, 80
2, 5040, Note_on_c, 0, 64, 80
2, 5267, Note_on_c, 0, 60, 0
2, 5267, Note_on_c, 0, 64, 0
2, 5520, Note_on_c, 0, 57, 80
2, 5747, Note_on_c, 0, 57, 0
2, 5760, Note_on_c, 0, 53, 80
2, 5987, Note_on_c, 0, 53, 0
2, 6000, Note_on_c, 0, 57, 80
2, 6000, Note_on_c, 0, 60, 80
2, 6227, Note_on_c, 0, 57, 0
2, 6227, Note_on_c, 0, 60, 0
2, 6480, Note_on_c, 0, 53, 80
2, 6707, Note_on_c, 0, 53, 0
2, 6720, Note_on_c, 0, 55, 80
2, 6947, Note_on_c, 0, 55, 0
2, 6960, Note_on_c, 0, 59, 80
2, 6960, Note_on_c, 0, 62, 80
2, 7187, Note_on_c, 0, 59, 0
2, 7187, Note_on_c, 0, 62, 0
2, 7440, Note_on_c, 0, 55, 80
2, 7496, Note_on_c, 0, 55, 0
2, 7500, Note_on_c, 0, 57, 80
2, 7556, Note_on_c, 0, 57, 0
2, 7560, Note_on_c, 0, 60, 80
2, 7616, Note_on_c, 0, 60, 0
2, 7620, Note_on_c, 0, 64, 80
2, 7676, Note_on_c, 0, 64, 0
2, 7680, Note_on_c, 0, 60, 80
2, 7680, Note_on_c, 0, 72, 80
2, 7907, Note_on_c, 0, 60, 0
2, 7907, Note_on_c, 0, 72, 0
2, 7920, Note_on_c, 0, 64, 80
2, 7920, Note_on_c, 0, 67, 80
2, 8147, Note_on_c, 0, 64, 0
2, 8147, Note_on_c, 0, 67, 0
2, 8160, Note_on_c, 0, 55, 80
2, 8387, Note_on_c, 0, 55, 0
2, 8400, Note_on_c, 0, 57, 80
2, 8627, Note_on_c, 0, 57, 0
2, 8640, Note_on_c, 0, 57, 80
2, 8640, Note_on_c, 0, 60, 80
2, 8867, Note_on_c, 0, 57, 0
2, 8867, Note_on_c, 0, 60, 0
2, 8880, Note_on_c, 0, 60, 80
2, 8880, Note_on_c, 0, 64, 80
2, 9107, Note_on_c, 0, 60, 0
2, 9107, Note_on_c, 0, 64, 0
2, 9120, Note_on_c, 0, 55, 80
2, 9347, Note_on_c, 0, 55, 0
2, 9360, Note_on_c, 0, 57, 80
2, 9587, Note_on_c, 0, 57, 0
2, 9600, Note_on_c, 0, 53, 80
2, 9600, Note_on_c, 0, 57, 80
2, 9600, Note_on_c, 0, 62, 80
2, 9827, Note_on_c, 0, 53, 0
2, 9827, Note_on_c, 0, 57, 0
2, 9827, Note_on_c, 0, 62, 0
2, 9840, Note_on_c, 0, 57, 80
2, 9840, Note_on_c, 0, 60, 80
2, 10295, Note_on_c, 0, 57, 0
2, 10295, Note_on_c, 0, 60, 0
2, 10320, Note_on_c, 0, 53, 80
2, 10320, Note_on_c, 0, 59, 80
2, 10320, Note_on_c, 0, 62, 80
2, 10547, Note_on_c, 0, 53, 0
2, 10547, Note_on_c, 0, 59, 0
2, 10547, Note_on_c, 0, 62, 0
2, 10560, Note_on_c, 0, 55, 80
2, 10787, Note_on_c, 0, 55, 0
2, 10800, Note_on_c, 0, 59, 80
2, 10800, Note_on_c, 0, 62, 80
2, 10919, Note_on_c, 0, 59, 0
2, 10919, Note_on_c, 0, 62, 0
2, 11040, Note_on_c, 0, 55, 80
2, 11153, Note_on_c, 0, 55, 0
2, 11160, Note_on_c, 0, 57, 80
2, 11273, Note_on_c, 0, 57, 0
2, 11280, Note_on_c, 0, 55, 80
2, 11507, Note_on_c, 0, 55, 0
2, 11520, Note_on_c, 0, 60, 80
2, 11520, Note_on_c, 0, 64, 80
2, 11520, Note_on_c, 0, 67, 80
2, 11747, Note_on_c, 0, 64, 0
2, 11747, Note_on_c, 0, 67, 0
2, 11760, Note_on_c, 0, 64, 80
2, 11760, Note_on_c, 0, 67, 80
2, 11987, Note_on_c, 0, 64, 0
2, 11987, Note_on_c, 0, 67, 0
2, 12000, Note_on_c, 0, 55, 80
2, 12203, Note_on_c, 0, 60, 0
2, 12227, Note_on_c, 0, 55, 0
2, 12240, Note_on_c, 0, 64, 80
2, 12240, Note_on_c, 0, 57, 80
2, 12240, Note_on_c, 0, 60, 80
2, 12467, Note_on_c, 0, 57, 0
2, 12467, Note_on_c, 0, 60, 0
2, 12480, Note_on_c, 0, 57, 80
2, 12480, Note_on_c, 0, 60, 80
2, 12695, Note_on_c, 0, 64, 0
2, 12707, Note_on_c, 0, 57, 0
2, 12707, Note_on_c, 0, 60, 0
2, 12720, Note_on_c, 0, 64, 80
2, 12720, Note_on_c, 0, 60, 80
2, 12947, Note_on_c, 0, 60, 0
2, 12960, Note_on_c, 0, 55, 80
2, 13079, Note_on_c, 0, 64, 0
2, 13187, Note_on_c, 0, 55, 0
2, 13200, Note_on_c, 0, 57, 80
2, 13427, Note_on_c, 0, 57, 0
2, 13440, Note_on_c, 0, 53, 80
2, 13440, Note_on_c, 0, 57, 80
2, 13440, Note_on_c, 0, 62, 80
2, 13667, Note_on_c, 0, 53, 0
2, 13667, Note_on_c, 0, 57, 0
2, 13667, Note_on_c, 0, 62, 0
2, 13680, Note_on_c, 0, 57, 80
2, 13680, Note_on_c, 0, 60, 80
2, 14135, Note_on_c, 0, 57, 0
2, 14135, Note_on_c, 0, 60, 0
2, 14160, Note_on_c, 0, 53, 80
2, 14160, Note_on_c, 0, 59, 80
2, 14160, Note_on_c, 0, 62, 80
2, 14387, Note_on_c, 0, 53, 0
2, 14387, Note_on_c, 0, 59, 0
2, 14387, Note_on_c, 0, 62, 0
2, 14400, Note_on_c, 0, 55, 80
2, 14627, Note_on_c, 0, 55, 0
2, 14640, Note_on_c, 0, 59, 80
2, 14640, Note_on_c, 0, 62, 80
2, 14867, Note_on_c, 0, 59, 0
2, 14867, Note_on_c, 0, 62, 0
2, 15120, Note_on_c, 0, 55, 80
2, 15347, Note_on_c, 0, 55, 0
2, 15360, Note_on_c, 0, 60, 80
2, 15600, Note_on_c, 0, 64, 80
2, 15600, Note_on_c, 0, 67, 80
2, 15815, Note_on_c, 0, 60, 0
2, 15827, Note_on_c, 0, 64, 0
2, 15827, Note_on_c, 0, 67, 0
2, 16080, Note_on_c, 0, 60, 80
2, 16307, Note_on_c, 0, 60, 0
2, 16320, Note_on_c, 0, 57, 80
2, 16547, Note_on_c, 0, 57, 0
2, 16560, Note_on_c, 0, 60, 80
2, 16560, Note_on_c, 0, 64, 80
2, 16787, Note_on_c, 0, 60, 0
2, 16787, Note_on_c, 0, 64, 0
2, 17040, Note_on_c, 0, 57, 80
2, 17267, Note_on_c, 0, 57, 0
2, 17280, Note_on_c, 0, 53, 80
2, 17507, Note_on_c, 0, 53, 0
2, 17520, Note_on_c, 0, 57, 80
2, 17520, Note_on_c, 0, 60, 80
2, 17747, Note_on_c, 0, 57, 0
2, 17747, Note_on_c, 0, 60, 0
2, 18000, Note_on_c, 0, 53, 80
2, 18227, Note_on_c, 0, 53, 0
2, 18240, Note_on_c, 0, 55, 80
2, 18467, Note_on_c, 0, 55, 0
2, 18480, Note_on_c, 0, 59, 80
2, 18480, Note_on_c, 0, 62, 80
2, 18707, Note_on_c, 0, 59, 0
2, 18707, Note_on_c, 0, 62, 0
2, 18960, Note_on_c, 0, 55, 80
2, 19187, Note_on_c, 0, 55, 0
2, 19200, Note_on_c, 0, 60, 80
2, 19427, Note_on_c, 0, 60, 0
2, 19440, Note_on_c, 0, 64, 80
2, 19440, Note_on_c, 0, 67, 80
2, 19667, Note_on_c, 0, 64, 0
2, 19667, Note_on_c, 0, 67, 0
2, 19920, Note_on_c, 0, 60, 80
2, 20147, Note_on_c, 0, 60, 0
2, 20160, Note_on_c, 0, 57, 80
2, 20387, Note_on_c, 0, 57, 0
2, 20400, Note_on_c, 0, 60, 80
2, 20400, Note_on_c, 0, 64, 80
2, 20627, Note_on_c, 0, 60, 0
2, 20627, Note_on_c, 0, 64, 0
2, 20880, Note_on_c, 0, 57, 80
2, 21107, Note_on_c, 0, 57, 0
2, 21120, Note_on_c, 0, 53, 80
2, 21347, Note_on_c, 0, 53, 0
2, 21360, Note_on_c, 0, 57, 80
2, 21360, Note_on_c, 0, 60, 80
2, 21587, Note_on_c, 0, 57, 0
2, 21587, Note_on_c, 0, 60, 0
2, 21840, Note_on_c, 0, 53, 80
2, 22067, Note_on_c, 0, 53, 0
2, 22080, Note_on_c, 0, 55, 80
2, 22307, Note_on_c, 0, 55, 0
2, 22320, Note_on_c, 0, 59, 80
2, 22320, Note_on_c, 0, 62, 80
2, 22547, Note_on_c, 0, 59, 0
2, 22547, Note_on_c, 0, 62, 0
2, 22800, Note_on_c, 0, 55, 80
2, 23027, Note_on_c, 0, 55, 0
2, 23040, Note_on_c, 0, 60, 80
2, 23267, Note_on_c, 0, 60, 0
2, 23280, Note_on_c, 0, 64, 80
2, 23280, Note_on_c, 0, 67, 80
2, 23507, Note_on_c, 0, 64, 0
2, 23507, Note_on_c, 0, 67, 0
2, 23760, Note_on_c, 0, 60, 80
2, 23987, Note_on_c, 0, 60, 0
2, 24000, Note_on_c, 0, 57, 80
2, 24227, Note_on_c, 0, 57, 0
2, 24240, Note_on_c, 0, 60, 80
2, 24240, Note_on_c, 0, 64, 80
2, 24467, Note_on_c, 0, 60, 0
2, 24467, Note_on_c, 0, 64, 0
2, 24720, Note_on_c, 0, 57, 80
2, 24947, Note_on_c, 0, 57, 0
2, 24960, Note_on_c, 0, 53, 80
2, 25187, Note_on_c, 0, 53, 0
2, 25200, Note_on_c, 0, 57, 80
2, 25200, Note_on_c, 0, 60, 80
2, 25427, Note_on_c, 0, 57, 0
2, 25427, Note_on_c, 0, 60, 0
2, 25680, Note_on_c, 0, 53, 80
2, 25907, Note_on_c, 0, 53, 0
2, 25920, Note_on_c, 0, 55, 80
2, 26147, Note_on_c, 0, 55, 0
2, 26160, Note_on_c, 0, 59, 80
2, 26160, Note_on_c, 0, 62, 80
2, 26387, Note_on_c, 0, 59, 0
2, 26387, Note_on_c, 0, 62, 0
2, 26640, Note_on_c, 0, 55, 80
2, 26867, Note_on_c, 0, 55, 0
2, 26880, Note_on_c, 0, 60, 80
2, 27107, Note_on_c, 0, 60, 0
2, 27120, Note_on_c, 0, 64, 80
2, 27120, Note_on_c, 0, 67, 80
2, 27347, Note_on_c, 0, 64, 0
2, 27347, Note_on_c, 0, 67, 0
2, 27600, Note_on_c, 0, 60, 80
2, 27827, Note_on_c, 0, 60, 0
2, 27840, Note_on_c, 0, 57, 80
2, 28067, Note_on_c, 0, 57, 0
2, 28080, Note_on_c, 0, 60, 80
2, 28080, Note_on_c, 0, 64, 80
2, 28307, Note_on_c, 0, 60, 0
2, 28307, Note_on_c, 0, 64, 0
2, 28560, Note_on_c, 0, 57, 80
2, 28787, Note_on_c, 0, 57, 0
2, 28800, Note_on_c, 0, 53, 80
2, 29027, Note_on_c, 0, 53, 0
2, 29040, Note_on_c, 0, 57, 80
2, 29040, Note_on_c, 0, 60, 80
2, 29267, Note_on_c, 0, 57, 0
2, 29267, Note_on_c, 0, 60, 0
2, 29520, Note_on_c, 0, 53, 80
2, 29747, Note_on_c, 0, 53, 0
2, 29760, Note_on_c, 0, 55, 80
2, 29987, Note_on_c, 0, 55, 0
2, 30000, Note_on_c, 0, 59, 80
2, 30000, Note_on_c, 0, 62, 80
2, 30227, Note_on_c, 0, 59, 0
2, 30227, Note_on_c, 0, 62, 0
2, 30480, Note_on_c, 0, 55, 80
2, 30536, Note_on_c, 0, 55, 0
2, 30540, Note_on_c, 0, 57, 80
2, 30596, Note_on_c, 0, 57, 0
2, 30600, Note_on_c, 0, 60, 80
2, 30656, Note_on_c, 0, 60, 0
2, 30660, Note_on_c, 0, 64, 80
2, 30716, Note_on_c, 0, 64, 0
2, 30720, Note_on_c, 0, 60, 80
2, 30720, Note_on_c, 0, 67, 80
2, 30720, Note_on_c, 0, 72, 80
2, 30947, Note_on_c, 0, 60, 0
2, 30947, Note_on_c, 0, 67, 0
2, 30947, Note_on_c, 0, 72, 0
2, 30960, Note_on_c, 0, 64, 80
2, 30960, Note_on_c, 0, 67, 80
2, 31187, Note_on_c, 0, 64, 0
2, 31187, Note_on_c, 0, 67, 0
2, 31200, Note_on_c, 0, 55, 80
2, 31427, Note_on_c, 0, 55, 0
2, 31440, Note_on_c, 0, 57, 80
2, 31440, Note_on_c, 0, 60, 80
2, 31667, Note_on_c, 0, 57, 0
2, 31667, Note_on_c, 0, 60, 0
2, 31680, Note_on_c, 0, 60, 80
2, 31680, Note_on_c, 0, 69, 80
2, 31907, Note_on_c, 0, 60, 0
2, 31907, Note_on_c, 0, 69, 0
2, 31920, Note_on_c, 0, 60, 80
2, 31920, Note_on_c, 0, 64, 80
2, 32147, Note_on_c, 0, 60, 0
2, 32147, Note_on_c, 0, 64, 0
2, 32160, Note_on_c, 0, 55, 80
2, 32387, Note_on_c, 0, 55, 0
2, 32400, Note_on_c, 0, 57, 80
2, 32627, Note_on_c, 0, 57, 0
2, 32640, Note_on_c, 0, 57, 80
2, 32640, Note_on_c, 0, 62, 80
2, 32640, Note_on_c, 0, 53, 80
2, 32879, Note_on_c, 0, 57, 0
2, 32879, Note_on_c, 0, 62, 0
2, 32880, Note_on_c, 0, 57, 80
2, 32880, Note_on_c, 0, 60, 80
2, 33095, Note_on_c, 0, 53, 0
2, 33335, Note_on_c, 0, 57, 0
2, 33335, Note_on_c, 0, 60, 0
2, 33360, Note_on_c, 0, 53, 80
2, 33360, Note_on_c, 0, 59, 80
2, 33360, Note_on_c, 0, 62, 80
2, 33360, Note_on_c, 0, 67, 80
2, 33587, Note_on_c, 0, 53, 0
2, 33587, Note_on_c, 0, 59, 0
2, 33587, Note_on_c, 0, 62, 0
2, 33587, Note_on_c, 0, 67, 0
2, 33600, Note_on_c, 0, 55, 80
2, 33827, Note_on_c, 0, 55, 0
2, 33840, Note_on_c, 0, 59, 80
2, 33840, Note_on_c, 0, 62, 80
2, 34295, Note_on_c, 0, 59, 0
2, 34295, Note_on_c, 0, 62, 0
2, 34320, Note_on_c, 0, 55, 80
2, 34547, Note_on_c, 0, 55, 0
2, 34560, Note_on_c, 0, 60, 80
2, 34560, Note_on_c, 0, 64, 80
2, 34560, Note_on_c, 0, 67, 80
2, 34787, Note_on_c, 0, 60, 0
2, 34787, Note_on_c, 0, 64, 0
2, 34787, Note_on_c, 0, 67, 0
2, 34800, Note_on_c, 0, 64, 80
2, 34800, Note_on_c, 0, 67, 80
2, 35027, Note_on_c, 0, 64, 0
2, 35027, Note_on_c, 0, 67, 0
2, 35040, Note_on_c, 0, 55, 80
2, 35267, Note_on_c, 0, 55, 0
2, 35280, Note_on_c, 0, 57, 80
2, 35280, Note_on_c, 0, 60, 80
2, 35507, Note_on_c, 0, 57, 0
2, 35507, Note_on_c, 0, 60, 0
2, 35520, Note_on_c, 0, 67, 80
2, 35520, Note_on_c, 0, 57, 80
2, 35520, Note_on_c, 0, 60, 80
2, 35759, Note_on_c, 0, 57, 0
2, 35759, Note_on_c, 0, 60, 0
2, 35760, Note_on_c, 0, 60, 80
2, 35760, Note_on_c, 0, 64, 80
2, 35975, Note_on_c, 0, 67, 0
2, 35987, Note_on_c, 0, 60, 0
2, 35987, Note_on_c, 0, 64, 0
2, 36000, Note_on_c, 0, 55, 80
2, 36227, Note_on_c, 0, 55, 0
2, 36240, Note_on_c, 0, 57, 80
2, 36467, Note_on_c, 0, 57, 0
2, 36480, Note_on_c, 0, 53, 80
2, 36480, Note_on_c, 0, 57, 80
2, 36480, Note_on_c, 0, 62, 80
2, 36707, Note_on_c, 0, 53, 0
2, 36707, Note_on_c, 0, 57, 0
2, 36707, Note_on_c, 0, 62, 0
2, 36720, Note_on_c, 0, 57, 80
2, 36720, Note_on_c, 0, 60, 80
2, 37175, Note_on_c, 0, 57, 0
2, 37175, Note_on_c, 0, 60, 0
2, 37200, Note_on_c, 0, 53, 80
2, 37200, Note_on_c, 0, 59, 80
2, 37200, Note_on_c, 0, 62, 80
2, 37427, Note_on_c, 0, 53, 0
2, 37427, Note_on_c, 0, 59, 0
2, 37427, Note_on_c, 0, 62, 0
2, 37440, Note_on_c, 0, 55, 80
2, 37667, Note_on_c, 0, 55, 0
2, 37680, Note_on_c, 0, 59, 80
2, 37680, Note_on_c, 0, 62, 80
2, 37907, Note_on_c, 0, 59, 0
2, 37907, Note_on_c, 0, 62, 0
2, 38160, Note_on_c, 0, 55, 80
2, 38216, Note_on_c, 0, 55, 0
2, 38220, Note_on_c, 0, 57, 80
2, 38276, Note_on_c, 0, 57, 0
2, 38280, Note_on_c, 0, 60, 80
2, 38336, Note_on_c, 0, 60, 0
2, 38340, Note_on_c, 0, 64, 80
2, 38396, Note_on_c, 0, 64, 0
2, 38400, Note_on_c, 0, 60, 80
2, 38400, Note_on_c, 0, 67, 80
2, 38400, Note_on_c, 0, 72, 80
2, 38639, Note_on_c, 0, 60, 0
2, 38639, Note_on_c, 0, 67, 0
2, 38640, Note_on_c, 0, 64, 80
2, 38640, Note_on_c, 0, 67, 80
2, 38855, Note_on_c, 0, 72, 0
2, 38867, Note_on_c, 0, 64, 0
2, 38867, Note_on_c, 0, 67, 0
2, 38880, Note_on_c, 0, 55, 80
2, 39107, Note_on_c, 0, 55, 0
2, 39120, Note_on_c, 0, 57, 80
2, 39120, Note_on_c, 0, 60, 80
2, 39347, Note_on_c, 0, 57, 0
2, 39347, Note_on_c, 0, 60, 0
2, 39360, Note_on_c, 0, 69, 80
2, 39360, Note_on_c, 0, 60, 80
2, 39587, Note_on_c, 0, 60, 0
2, 39600, Note_on_c, 0, 60, 80
2, 39600, Note_on_c, 0, 64, 80
2, 39827, Note_on_c, 0, 60, 0
2, 39827, Note_on_c, 0, 64, 0
2, 39840, Note_on_c, 0, 55, 80
2, 40067, Note_on_c, 0, 55, 0
2, 40080, Note_on_c, 0, 57, 80
2, 40271, Note_on_c, 0, 69, 0
2, 40307, Note_on_c, 0, 57, 0
2, 40320, Note_on_c, 0, 53, 80
2, 40320, Note_on_c, 0, 57, 80
2, 40320, Note_on_c, 0, 62, 80
2, 40547, Note_on_c, 0, 53, 0
2, 40547, Note_on_c, 0, 57, 0
2, 40547, Note_on_c, 0, 62, 0
2, 40560, Note_on_c, 0, 57, 80
2, 40560, Note_on_c, 0, 60, 80
2, 41015, Note_on_c, 0, 57, 0
2, 41015, Note_on_c, 0, 60, 0
2, 41040, Note_on_c, 0, 53, 80
2, 41040, Note_on_c, 0, 59, 80
2, 41040, Note_on_c, 0, 62, 80
2, 41040, Note_on_c, 0, 67, 80
2, 41267, Note_on_c, 0, 53, 0
2, 41267, Note_on_c, 0, 59, 0
2, 41267, Note_on_c, 0, 62, 0
2, 41267, Note_on_c, 0, 67, 0
2, 41280, Note_on_c, 0, 55, 80
2, 41507, Note_on_c, 0, 55, 0
2, 41520, Note_on_c, 0, 59, 80
2, 41520, Note_on_c, 0, 62, 80
2, 41975, Note_on_c, 0, 59, 0
2, 41975, Note_on_c, 0, 62, 0
2, 42000, Note_on_c, 0, 55, 80
2, 42227, Note_on_c, 0, 55, 0
2, 42240, Note_on_c, 0, 60, 80
2, 42240, Note_on_c, 0, 64, 80
2, 42240, Note_on_c, 0, 67, 80
2, 42467, Note_on_c, 0, 60, 0
2, 42467, Note_on_c, 0, 64, 0
2, 42467, Note_on_c, 0, 67, 0
2, 42480, Note_on_c, 0, 64, 80
2, 42480, Note_on_c, 0, 67, 80
2, 42707, Note_on_c, 0, 64, 0
2, 42707, Note_on_c, 0, 67, 0
2, 42720, Note_on_c, 0, 55, 80
2, 42947, Note_on_c, 0, 55, 0
2, 42960, Note_on_c, 0, 57, 80
2, 42960, Note_on_c, 0, 60, 80
2, 43187, Note_on_c, 0, 57, 0
2, 43187, Note_on_c, 0, 60, 0
2, 43200, Note_on_c, 0, 67, 80
2, 43200, Note_on_c, 0, 57, 80
2, 43200, Note_on_c, 0, 60, 80
2, 43427, Note_on_c, 0, 57, 0
2, 43427, Note_on_c, 0, 60, 0
2, 43440, Note_on_c, 0, 60, 80
2, 43440, Note_on_c, 0, 64, 80
2, 43655, Note_on_c, 0, 67, 0
2, 43667, Note_on_c, 0, 60, 0
2, 43667, Note_on_c, 0, 64, 0
2, 43680, Note_on_c, 0, 55, 80
2, 43907, Note_on_c, 0, 55, 0
2, 43920, Note_on_c, 0, 57, 80
2, 44147, Note_on_c, 0, 57, 0
2, 44160, Note_on_c, 0, 57, 80
2, 44160, Note_on_c, 0, 53, 80
2, 44160, Note_on_c, 0, 62, 80
2, 44387, Note_on_c, 0, 57, 0
2, 44400, Note_on_c, 0, 60, 80
2, 44400, Note_on_c, 0, 57, 80
2, 44627, Note_on_c, 0, 60, 0
2, 44855, Note_on_c, 0, 57, 0
2, 44880, Note_on_c, 0, 53, 0
2, 44880, Note_on_c, 0, 53, 80
2, 44880, Note_on_c, 0, 59, 80
2, 44880, Note_on_c, 0, 62, 0
2, 44880, Note_on_c, 0, 62, 80
2, 45107, Note_on_c, 0, 53, 0
2, 45107, Note_on_c, 0, 59, 0
2, 45107, Note_on_c, 0, 62, 0
2, 45120, Note_on_c, 0, 55, 80
2, 45347, Note_on_c, 0, 55, 0
2, 45360, Note_on_c, 0, 59, 80
2, 45360, Note_on_c, 0, 62, 80
2, 45587, Note_on_c, 0, 59, 0
2, 45587, Note_on_c, 0, 62, 0
2, 45840, Note_on_c, 0, 55, 80
2, 46067, Note_on_c, 0, 55, 0
2, 46080, Note_on_c, 0, 60, 80
2, 46307, Note_on_c, 0, 60, 0
2, 46320, Note_on_c, 0, 64, 80
2, 46320, Note_on_c, 0, 67, 80
2, 46547, Note_on_c, 0, 64, 0
2, 46547, Note_on_c, 0, 67, 0
2, 46800, Note_on_c, 0, 60, 80
2, 47027, Note_on_c, 0, 60, 0
2, 47040, Note_on_c, 0, 57, 80
2, 47267, Note_on_c, 0, 57, 0
2, 47280, Note_on_c, 0, 60, 80
2, 47280, Note_on_c, 0, 64, 80
2, 47507, Note_on_c, 0, 60, 0
2, 47507, Note_on_c, 0, 64, 0
2, 47760, Note_on_c, 0, 57, 80
2, 47987, Note_on_c, 0, 57, 0
2, 48000, Note_on_c, 0, 53, 80
2, 48227, Note_on_c, 0, 53, 0
2, 48240, Note_on_c, 0, 57, 80
2, 48240, Note_on_c, 0, 60, 80
2, 48467, Note_on_c, 0, 57, 0
2, 48467, Note_on_c, 0, 60, 0
2, 48720, Note_on_c, 0, 53, 80
2, 48947, Note_on_c, 0, 53, 0
2, 48960, Note_on_c, 0, 55, 80
2, 49187, Note_on_c, 0, 55, 0
2, 49200, Note_on_c, 0, 59, 80
2, 49200, Note_on_c, 0, 62, 80
2, 49427, Note_on_c, 0, 59, 0
2, 49427, Note_on_c, 0, 62, 0
2, 49680, Note_on_c, 0, 55, 80
2, 49907, Note_on_c, 0, 55, 0
2, 49920, Note_on_c, 0, 60, 80
2, 50147, Note_on_c, 0, 60, 0
2, 50160, Note_on_c, 0, 64, 80
2, 50160, Note_on_c, 0, 67, 80
2, 50387, Note_on_c, 0, 64, 0
2, 50387, Note_on_c, 0, 67, 0
2, 50640, Note_on_c, 0, 60, 80
2, 50867, Note_on_c, 0, 60, 0
2, 50880, Note_on_c, 0, 57, 80
2, 51107, Note_on_c, 0, 57, 0
2, 51120, Note_on_c, 0, 60, 80
2, 51120, Note_on_c, 0, 64, 80
2, 51347, Note_on_c, 0, 60, 0
2, 51347, Note_on_c, 0, 64, 0
2, 51600, Note_on_c, 0, 57, 80
2, 51827, Note_on_c, 0, 57, 0
2, 51840, Note_on_c, 0, 53, 80
2, 52067, Note_on_c, 0, 53, 0
2, 52080, Note_on_c, 0, 57, 80
2, 52080, Note_on_c, 0, 60, 80
2, 52307, Note_on_c, 0, 57, 0
2, 52307, Note_on_c, 0, 60, 0
2, 52560, Note_on_c, 0, 53, 80
2, 52787, Note_on_c, 0, 53, 0
2, 52800, Note_on_c, 0, 55, 80
2, 53027, Note_on_c, 0, 55, 0
2, 53040, Note_on_c, 0, 59, 80
2, 53040, Note_on_c, 0, 62, 80
2, 53267, Note_on_c, 0, 59, 0
2, 53267, Note_on_c, 0, 62, 0
2, 53520, Note_on_c, 0, 55, 80
2, 53747, Note_on_c, 0, 55, 0
2, 53760, Note_on_c, 0, 60, 80
2, 53987, Note_on_c, 0, 60, 0
2, 54000, Note_on_c, 0, 64, 80
2, 54000, Note_on_c, 0, 67, 80
2, 54227, Note_on_c, 0, 64, 0
2, 54227, Note_on_c, 0, 67, 0
2, 54480, Note_on_c, 0, 60, 80
2, 54707, Note_on_c, 0, 60, 0
2, 54720, Note_on_c, 0, 57, 80
2, 54947, Note_on_c, 0, 57, 0
2, 54960, Note_on_c, 0, 60, 80
2, 54960, Note_on_c, 0, 64, 80
2, 55187, Note_on_c, 0, 60, 0
2, 55187, Note_on_c, 0, 64, 0
2, 55440, Note_on_c, 0, 57, 80
2, 55667, Note_on_c, 0, 57, 0
2, 55680, Note_on_c, 0, 53, 80
2, 55907, Note_on_c, 0, 53, 0
2, 55920, Note_on_c, 0, 57, 80
2, 55920, Note_on_c, 0, 60, 80
2, 56147, Note_on_c, 0, 57, 0
2, 56147, Note_on_c, 0, 60, 0
2, 56400, Note_on_c, 0, 53, 80
2, 56627, Note_on_c, 0, 53, 0
2, 56640, Note_on_c, 0, 55, 80
2, 56867, Note_on_c, 0, 55, 0
2, 56880, Note_on_c, 0, 59, 80
2, 56880, Note_on_c, 0, 62, 80
2, 57107, Note_on_c, 0, 59, 0
2, 57107, Note_on_c, 0, 62, 0
2, 57360, Note_on_c, 0, 55, 80
2, 57587, Note_on_c, 0, 55, 0
2, 57600, Note_on_c, 0, 60, 80
2, 57827, Note_on_c, 0, 60, 0
2, 57840, Note_on_c, 0, 64, 80
2, 57840, Note_on_c, 0, 67, 80
2, 58067, Note_on_c, 0, 64, 0
2, 58067, Note_on_c, 0, 67, 0
2, 58320, Note_on_c, 0, 60, 80
2, 58547, Note_on_c, 0, 60, 0
2, 58560, Note_on_c, 0, 57, 80
2, 58787, Note_on_c, 0, 57, 0
2, 58800, Note_on_c, 0, 64, 80
2, 58800, Note_on_c, 0, 60, 80
2, 59027, Note_on_c, 0, 60, 0
2, 59255, Note_on_c, 0, 64, 0
2, 59280, Note_on_c, 0, 57, 80
2, 59507, Note_on_c, 0, 57, 0
2, 59520, Note_on_c, 0, 53, 80
2, 59747, Note_on_c, 0, 53, 0
2, 59760, Note_on_c, 0, 57, 80
2, 59760, Note_on_c, 0, 60, 80
2, 59987, Note_on_c, 0, 57, 0
2, 59987, Note_on_c, 0, 60, 0
2, 60240, Note_on_c, 0, 53, 80
2, 60467, Note_on_c, 0, 53, 0
2, 60480, Note_on_c, 0, 55, 80
2, 60707, Note_on_c, 0, 55, 0
2, 60720, Note_on_c, 0, 59, 80
2, 60720, Note_on_c, 0, 62, 80
2, 60947, Note_on_c, 0, 59, 0
2, 60947, Note_on_c, 0, 62, 0
2, 61200, Note_on_c, 0, 55, 80
2, 61427, Note_on_c, 0, 55, 0
2, 63360, Note_on_c, 0, 53, 80
2, 63587, Note_on_c, 0, 53, 0
2, 63600, Note_on_c, 0, 57, 80
2, 63600, Note_on_c, 0, 60, 80
2, 63827, Note_on_c, 0, 57, 0
2, 63827, Note_on_c, 0, 60, 0
2, 64080, Note_on_c, 0, 53, 80
2, 64307, Note_on_c, 0, 53, 0
2, 64320, Note_on_c, 0, 55, 80
2, 64547, Note_on_c, 0, 55, 0
2, 64560, Note_on_c, 0, 59, 80
2, 64560, Note_on_c, 0, 62, 80
2, 64787, Note_on_c, 0, 59, 0
2, 64787, Note_on_c, 0, 62, 0
2, 65040, Note_on_c, 0, 55, 80
2, 65267, Note_on_c, 0, 55, 0
2, 65280, Note_on_c, 0, 60, 80
2, 65507, Note_on_c, 0, 60, 0
2, 65520, Note_on_c, 0, 64, 80
2, 65520, Note_on_c, 0, 67, 80
2, 65747, Note_on_c, 0, 64, 0
2, 65747, Note_on_c, 0, 67, 0
2, 66000, Note_on_c, 0, 60, 80
2, 66227, Note_on_c, 0, 60, 0
2, 66240, Note_on_c, 0, 57, 80
2, 66467, Note_on_c, 0, 57, 0
2, 66480, Note_on_c, 0, 60, 80
2, 66480, Note_on_c, 0, 64, 80
2, 66707, Note_on_c, 0, 60, 0
2, 66707, Note_on_c, 0, 64, 0
2, 66960, Note_on_c, 0, 57, 80
2, 67187, Note_on_c, 0, 57, 0
2, 67200, Note_on_c, 0, 53, 80
2, 67427, Note_on_c, 0, 53, 0
2, 67440, Note_on_c, 0, 57, 80
2, 67440, Note_on_c, 0, 60, 80
2, 67667, Note_on_c, 0, 57, 0
2, 67667, Note_on_c, 0, 60, 0
2, 67920, Note_on_c, 0, 53, 80
2, 68147, Note_on_c, 0, 53, 0
2, 68160, Note_on_c, 0, 55, 80
2, 68387, Note_on_c, 0, 55, 0
2, 68400, Note_on_c, 0, 59, 80
2, 68400, Note_on_c, 0, 62, 80
2, 68627, Note_on_c, 0, 59, 0
2, 68627, Note_on_c, 0, 62, 0
2, 68880, Note_on_c, 0, 55, 80
2, 69107, Note_on_c, 0, 55, 0
2, 69120, Note_on_c, 0, 60, 80
2, 69347, Note_on_c, 0, 60, 0
2, 69360, Note_on_c, 0, 64, 80
2, 69360, Note_on_c, 0, 67, 80
2, 69587, Note_on_c, 0, 64, 0
2, 69587, Note_on_c, 0, 67, 0
2, 69840, Note_on_c, 0, 60, 80
2, 70067, Note_on_c, 0, 60, 0
2, 70080, Note_on_c, 0, 57, 80
2, 70307, Note_on_c, 0, 57, 0
2, 70320, Note_on_c, 0, 60, 80
2, 70320, Note_on_c, 0, 64, 80
2, 70547, Note_on_c, 0, 60, 0
2, 70547, Note_on_c, 0, 64, 0
2, 70800, Note_on_c, 0, 57, 80
2, 71027, Note_on_c, 0, 57, 0
2, 71040, Note_on_c, 0, 53, 80
2, 71267, Note_on_c, 0, 53, 0
2, 71280, Note_on_c, 0, 57, 80
2, 71280, Note_on_c, 0, 60, 80
2, 71507, Note_on_c, 0, 57, 0
2, 71507, Note_on_c, 0, 60, 0
2, 71760, Note_on_c, 0, 53, 80
2, 71987, Note_on_c, 0, 53, 0
2, 72000, Note_on_c, 0, 55, 80
2, 72240, Note_on_c, 0, 59, 80
2, 72240, Note_on_c, 0, 62, 80
2, 72455, Note_on_c, 0, 55, 0
2, 72467, Note_on_c, 0, 59, 0
2, 72467, Note_on_c, 0, 62, 0
2, 72720, Note_on_c, 0, 55, 80
2, 72947, Note_on_c, 0, 55, 0
2, 72960, Note_on_c, 0, 60, 80
2, 73187, Note_on_c, 0, 60, 0
2, 73200, Note_on_c, 0, 64, 80
2, 73200, Note_on_c, 0, 67, 80
2, 73427, Note_on_c, 0, 64, 0
2, 73427, Note_on_c, 0, 67, 0
2, 73680, Note_on_c, 0, 60, 80
2, 73907, Note_on_c, 0, 60, 0
2, 73920, Note_on_c, 0, 57, 80
2, 74147, Note_on_c, 0, 57, 0
2, 74160, Note_on_c, 0, 60, 80
2, 74160, Note_on_c, 0, 64, 80
2, 74387, Note_on_c, 0, 60, 0
2, 74387, Note_on_c, 0, 64, 0
2, 74640, Note_on_c, 0, 57, 80
2, 74867, Note_on_c, 0, 57, 0
2, 74880, Note_on_c, 0, 53, 80
2, 75107, Note_on_c, 0, 53, 0
2, 75120, Note_on_c, 0, 57, 80
2, 75120, Note_on_c, 0, 60, 80
2, 75347, Note_on_c, 0, 57, 0
2, 75347, Note_on_c, 0, 60, 0
2, 75600, Note_on_c, 0, 53, 80
2, 75827, Note_on_c, 0, 53, 0
2, 75840, Note_on_c, 0, 55, 80
2, 76067, Note_on_c, 0, 55, 0
2, 76080, Note_on_c, 0, 59, 80
2, 76080, Note_on_c, 0, 62, 80
2, 76307, Note_on_c, 0, 59, 0
2, 76307, Note_on_c, 0, 62, 0
2, 76560, Note_on_c, 0, 55, 80
2, 76787, Note_on_c, 0, 55, 0
2, 76800, Note_on_c, 0, 60, 80
2, 76800, Note_on_c, 0, 67, 80
2, 76800, Note_on_c, 0, 72, 80
2, 77027, Note_on_c, 0, 60, 0
2, 77027, Note_on_c, 0, 67, 0
2, 77027, Note_on_c, 0, 72, 0
2, 77040, Note_on_c, 0, 64, 80
2, 77040, Note_on_c, 0, 67, 80
2, 77267, Note_on_c, 0, 64, 0
2, 77267, Note_on_c, 0, 67, 0
2, 77280, Note_on_c, 0, 55, 80
2, 77507, Note_on_c, 0, 55, 0
2, 77520, Note_on_c, 0, 57, 80
2, 77520, Note_on_c, 0, 60, 80
2, 77747, Note_on_c, 0, 57, 0
2, 77747, Note_on_c, 0, 60, 0
2, 77760, Note_on_c, 0, 60, 80
2, 77760, Note_on_c, 0, 69, 80
2, 77987, Note_on_c, 0, 60, 0
2, 77987, Note_on_c, 0, 69, 0
2, 78000, Note_on_c, 0, 60, 80
2, 78000, Note_on_c, 0, 64, 80
2, 78227, Note_on_c, 0, 60, 0
2, 78227, Note_on_c, 0, 64, 0
2, 78240, Note_on_c, 0, 55, 80
2, 78467, Note_on_c, 0, 55, 0
2, 78480, Note_on_c, 0, 57, 80
2, 78707, Note_on_c, 0, 57, 0
2, 78720, Note_on_c, 0, 57, 80
2, 78720, Note_on_c, 0, 62, 80
2, 78720, Note_on_c, 0, 53, 80
2, 78947, Note_on_c, 0, 57, 0
2, 78947, Note_on_c, 0, 62, 0
2, 78960, Note_on_c, 0, 57, 80
2, 78960, Note_on_c, 0, 60, 80
2, 79175, Note_on_c, 0, 53, 0
2, 79415, Note_on_c, 0, 57, 0
2, 79415, Note_on_c, 0, 60, 0
2, 79440, Note_on_c, 0, 53, 80
2, 79440, Note_on_c, 0, 59, 80
2, 79440, Note_on_c, 0, 62, 80
2, 79440, Note_on_c, 0, 67, 80
2, 79667, Note_on_c, 0, 53, 0
2, 79667, Note_on_c, 0, 59, 0
2, 79667, Note_on_c, 0, 62, 0
2, 79667, Note_on_c, 0, 67, 0
2, 79680, Note_on_c, 0, 55, 80
2, 79907, Note_on_c, 0, 55, 0
2, 79920, Note_on_c, 0, 59, 80
2, 79920, Note_on_c, 0, 62, 80
2, 80375, Note_on_c, 0, 59, 0
2, 80375, Note_on_c, 0, 62, 0
2, 80400, Note_on_c, 0, 55, 80
2, 80627, Note_on_c, 0, 55, 0
2, 80640, Note_on_c, 0, 60, 80
2, 80640, Note_on_c, 0, 64, 80
2, 80640, Note_on_c, 0, 67, 80
2, 80867, Note_on_c, 0, 60, 0
2, 80867, Note_on_c, 0, 64, 0
2, 80867, Note_on_c, 0, 67, 0
2, 80880, Note_on_c, 0, 64, 80
2, 80880, Note_on_c, 0, 67, 80
2, 81107, Note_on_c, 0, 64, 0
2, 81107, Note_on_c, 0, 67, 0
2, 81120, Note_on_c, 0, 55, 80
2, 81347, Note_on_c, 0, 55, 0
2, 81360, Note_on_c, 0, 57, 80
2, 81360, Note_on_c, 0, 60, 80
2, 81587, Note_on_c, 0, 57, 0
2, 81587, Note_on_c, 0, 60, 0
2, 81600, Note_on_c, 0, 67, 80
2, 81600, Note_on_c, 0, 57, 80
2, 81600, Note_on_c, 0, 60, 80
2, 81839, Note_on_c, 0, 57, 0
2, 81839, Note_on_c, 0, 60, 0
2, 81840, Note_on_c, 0, 60, 80
2, 81840, Note_on_c, 0, 64, 80
2, 82055, Note_on_c, 0, 67, 0
2, 82067, Note_on_c, 0, 60, 0
2, 82067, Note_on_c, 0, 64, 0
2, 82080, Note_on_c, 0, 55, 80
2, 82307, Note_on_c, 0, 55, 0
2, 82320, Note_on_c, 0, 57, 80
2, 82547, Note_on_c, 0, 57, 0
2, 82560, Note_on_c, 0, 53, 80
2, 82560, Note_on_c, 0, 57, 80
2, 82560, Note_on_c, 0, 62, 80
2, 82787, Note_on_c, 0, 53, 0
2, 82787, Note_on_c, 0, 57, 0
2, 82787, Note_on_c, 0, 62, 0
2, 82800, Note_on_c, 0, 57, 80
2, 82800, Note_on_c, 0, 60, 80
2, 83255, Note_on_c, 0, 57, 0
2, 83255, Note_on_c, 0, 60, 0
2, 83280, Note_on_c, 0, 53, 80
2, 83280, Note_on_c, 0, 59, 80
2, 83280, Note_on_c, 0, 62, 80
2, 83507, Note_on_c, 0, 53, 0
2, 83507, Note_on_c, 0, 59, 0
2, 83507, Note_on_c, 0, 62, 0
2, 83520, Note_on_c, 0, 55, 80
2, 83747, Note_on_c, 0, 55, 0
2, 83760, Note_on_c, 0, 59, 80
2, 83760, Note_on_c, 0, 62, 80
2, 83987, Note_on_c, 0, 59, 0
2, 83987, Note_on_c, 0, 62, 0
2, 84240, Note_on_c, 0, 55, 80
2, 84296, Note_on_c, 0, 55, 0
2, 84300, Note_on_c, 0, 57, 80
2, 84356, Note_on_c, 0, 57, 0
2, 84360, Note_on_c, 0, 60, 80
2, 84416, Note_on_c, 0, 60, 0
2, 84420, Note_on_c, 0, 64, 80
2, 84476, Note_on_c, 0, 64, 0
2, 84480, Note_on_c, 0, 60, 80
2, 84480, Note_on_c, 0, 67, 80
2, 84480, Note_on_c, 0, 72, 80
2, 84719, Note_on_c, 0, 60, 0
2, 84719, Note_on_c, 0, 67, 0
2, 84720, Note_on_c, 0, 64, 80
2, 84720, Note_on_c, 0, 67, 80
2, 84935, Note_on_c, 0, 72, 0
2, 84947, Note_on_c, 0, 64, 0
2, 84947, Note_on_c, 0, 67, 0
2, 84960, Note_on_c, 0, 55, 80
2, 85187, Note_on_c, 0, 55, 0
2, 85200, Note_on_c, 0, 57, 80
2, 85200, Note_on_c, 0, 60, 80
2, 85427, Note_on_c, 0, 57, 0
2, 85427, Note_on_c, 0, 60, 0
2, 85440, Note_on_c, 0, 69, 80
2, 85440, Note_on_c, 0, 60, 80
2, 85667, Note_on_c, 0, 60, 0
2, 85680, Note_on_c, 0, 60, 80
2, 85680, Note_on_c, 0, 64, 80
2, 85907, Note_on_c, 0, 60, 0
2, 85907, Note_on_c, 0, 64, 0
2, 85920, Note_on_c, 0, 55, 80
2, 86147, Note_on_c, 0, 55, 0
2, 86160, Note_on_c, 0, 57, 80
2, 86351, Note_on_c, 0, 69, 0
2, 86387, Note_on_c, 0, 57, 0
2, 86400, Note_on_c, 0, 53, 80
2, 86400, Note_on_c, 0, 57, 80
2, 86400, Note_on_c, 0, 62, 80
2, 86627, Note_on_c, 0, 53, 0
2, 86627, Note_on_c, 0, 57, 0
2, 86627, Note_on_c, 0, 62, 0
2, 86640, Note_on_c, 0, 57, 80
2, 86640, Note_on_c, 0, 60, 80
2, 87095, Note_on_c, 0, 57, 0
2, 87095, Note_on_c, 0, 60, 0
2, 87120, Note_on_c, 0, 53, 80
2, 87120, Note_on_c, 0, 59, 80
2, 87120, Note_on_c, 0, 62, 80
2, 87120, Note_on_c, 0, 67, 80
2, 87347, Note_on_c, 0, 53, 0
2, 87347, Note_on_c, 0, 59, 0
2, 87347, Note_on_c, 0, 62, 0
2, 87347, Note_on_c, 0, 67, 0
2, 87360, Note_on_c, 0, 55, 80
2, 87587, Note_on_c, 0, 55, 0
2, 87600, Note_on_c, 0, 59, 80
2, 87600, Note_on_c, 0, 62, 80
2, 88055, Note_on_c, 0, 59, 0
2, 88055, Note_on_c, 0, 62, 0
2, 88080, Note_on_c, 0, 55, 80
2, 88307, Note_on_c, 0, 55, 0
2, 88320, Note_on_c, 0, 60, 80
2, 88320, Note_on_c, 0, 64, 80
2, 88320, Note_on_c, 0, 67, 80
2, 88547, Note_on_c, 0, 60, 0
2, 88547, Note_on_c, 0, 64, 0
2, 88547, Note_on_c, 0, 67, 0
2, 88560, Note_on_c, 0, 64, 80
2, 88560, Note_on_c, 0, 67, 80
2, 88787, Note_on_c, 0, 64, 0
2, 88787, Note_on_c, 0, 67, 0
2, 88800, Note_on_c, 0, 55, 80
2, 89027, Note_on_c, 0, 55, 0
2, 89040, Note_on_c, 0, 57, 80
2, 89040, Note_on_c, 0, 60, 80
2, 89267, Note_on_c, 0, 57, 0
2, 89267, Note_on_c, 0, 60, 0
2, 89280, Note_on_c, 0, 67, 80
2, 89280, Note_on_c, 0, 57, 80
2, 89280, Note_on_c, 0, 60, 80
2, 89507, Note_on_c, 0, 57, 0
2, 89507, Note_on_c, 0, 60, 0
2, 89520, Note_on_c, 0, 60, 80
2, 89520, Note_on_c, 0, 64, 80
2, 89735, Note_on_c, 0, 67, 0
2, 89747, Note_on_c, 0, 60, 0
2, 89747, Note_on_c, 0, 64, 0
2, 89760, Note_on_c, 0, 55, 80
2, 89987, Note_on_c, 0, 55, 0
2, 90000, Note_on_c, 0, 57, 80
2, 90227, Note_on_c, 0, 57, 0
2, 90240, Note_on_c, 0, 57, 80
2, 90240, Note_on_c, 0, 53, 80
2, 90240, Note_on_c, 0, 62, 80
2, 90467, Note_on_c, 0, 57, 0
2, 90480, Note_on_c, 0, 60, 80
2, 90480, Note_on_c, 0, 57, 80
2, 90707, Note_on_c, 0, 60, 0
2, 90935, Note_on_c, 0, 57, 0
2, 90960, Note_on_c, 0, 53, 0
2, 90960, Note_on_c, 0, 53, 80
2, 90960, Note_on_c, 0, 59, 80
2, 90960, Note_on_c, 0, 62, 0
2, 90960, Note_on_c, 0, 62, 80
2, 91187, Note_on_c, 0, 53, 0
2, 91187, Note_on_c, 0, 59, 0
2, 91187, Note_on_c, 0, 62, 0
2, 91200, Note_on_c, 0, 55, 80
2, 91427, Note_on_c, 0, 55, 0
2, 91440, Note_on_c, 0, 59, 80
2, 91440, Note_on_c, 0, 62, 80
2, 91667, Note_on_c, 0, 59, 0
2, 91667, Note_on_c, 0, 62, 0
2, 91920, Note_on_c, 0, 55, 80
2, 92147, Note_on_c, 0, 55, 0
2, 92160, Note_on_c, 0, 53, 80
2, 92160, Note_on_c, 0, 57, 80
2, 92160, Note_on_c, 0, 60, 80
2, 92843, Note_on_c, 0, 53, 0
2, 92843, Note_on_c, 0, 57, 0
2, 92843, Note_on_c, 0, 60, 0
2, 92880, Note_on_c, 0, 57, 80
2, 92880, Note_on_c, 0, 60, 80
2, 93677, Note_on_c, 0, 57, 0
2, 93677, Note_on_c, 0, 60, 0
2, 94080, Note_on_c, 0, 60, 80
2, 94080, Note_on_c, 0, 64, 80
2, 94080, Note_on_c, 0, 67, 80
2, 94763, Note_on_c, 0, 60, 0
2, 94763, Note_on_c, 0, 64, 0
2, 94763, Note_on_c, 0, 67, 0
2, 94800, Note_on_c, 0, 59, 80
2, 94800, Note_on_c, 0, 62, 80
2, 94800, Note_on_c, 0, 67, 80
2, 95597, Note_on_c, 0, 59, 0
2, 95597, Note_on_c, 0, 62, 0
2, 95597, Note_on_c, 0, 67, 0
2, 99840, Note_on_c, 0, 60, 80
2, 100080, Note_on_c, 0, 67, 80
2, 100080, Note_on_c, 0, 64, 80
2, 100307, Note_on_c, 0, 67, 0
2, 100523, Note_on_c, 0, 60, 0
2, 100560, Note_on_c, 0, 60, 80
2, 100800, Note_on_c, 0, 57, 80
2, 100991, Note_on_c, 0, 64, 0
2, 101015, Note_on_c, 0, 60, 0
2, 101040, Note_on_c, 0, 60, 80
2, 101040, Note_on_c, 0, 64, 80
2, 101255, Note_on_c, 0, 57, 0
2, 101520, Note_on_c, 0, 57, 80
2, 101723, Note_on_c, 0, 60, 0
2, 101723, Note_on_c, 0, 64, 0
2, 101747, Note_on_c, 0, 57, 0
2, 101760, Note_on_c, 0, 53, 80
2, 101987, Note_on_c, 0, 53, 0
2, 102000, Note_on_c, 0, 57, 80
2, 102000, Note_on_c, 0, 60, 80
2, 102227, Note_on_c, 0, 57, 0
2, 102227, Note_on_c, 0, 60, 0
2, 102480, Note_on_c, 0, 53, 80
2, 102707, Note_on_c, 0, 53, 0
2, 102720, Note_on_c, 0, 55, 80
2, 102947, Note_on_c, 0, 55, 0
2, 102960, Note_on_c, 0, 59, 80
2, 102960, Note_on_c, 0, 62, 80
2, 103187, Note_on_c, 0, 59, 0
2, 103187, Note_on_c, 0, 62, 0
2, 103440, Note_on_c, 0, 55, 80
2, 103667, Note_on_c, 0, 55, 0
2, 103680, Note_on_c, 0, 60, 80
2, 103907, Note_on_c, 0, 60, 0
2, 103920, Note_on_c, 0, 64, 80
2, 103920, Note_on_c, 0, 67, 80
2, 104147, Note_on_c, 0, 64, 0
2, 104147, Note_on_c, 0, 67, 0
2, 104400, Note_on_c, 0, 60, 80
2, 104627, Note_on_c, 0, 60, 0
2, 104640, Note_on_c, 0, 57, 80
2, 104867, Note_on_c, 0, 57, 0
2, 104880, Note_on_c, 0, 60, 80
2, 104880, Note_on_c, 0, 64, 80
2, 105107, Note_on_c, 0, 60, 0
2, 105107, Note_on_c, 0, 64, 0
2, 105360, Note_on_c, 0, 57, 80
2, 105587, Note_on_c, 0, 57, 0
2, 105600, Note_on_c, 0, 53, 80
2, 105827, Note_on_c, 0, 53, 0
2, 105840, Note_on_c, 0, 57, 80
2, 105840, Note_on_c, 0, 60, 80
2, 106067, Note_on_c, 0, 57, 0
2, 106067, Note_on_c, 0, 60, 0
2, 106320, Note_on_c, 0, 53, 80
2, 106547, Note_on_c, 0, 53, 0
2, 106560, Note_on_c, 0, 55, 80
2, 106787, Note_on_c, 0, 55, 0
2, 106800, Note_on_c, 0, 59, 80
2, 106800, Note_on_c, 0, 62, 80
2, 107027, Note_on_c, 0, 59, 0
2, 107027, Note_on_c, 0, 62, 0
2, 109440, Key_signature, 0, "major"
2, 167040, Note_on_c, 0, 55, 80
2, 167040, Note_on_c, 0, 60, 80
2, 167267, Note_on_c, 0, 55, 0
2, 167267, Note_on_c, 0, 60, 0
2, 167280, Note_on_c, 0, 55, 80
2, 167280, Note_on_c, 0, 60, 80
2, 167507, Note_on_c, 0, 55, 0
2, 167507, Note_on_c, 0, 60, 0
2, 167760, Note_on_c, 0, 55, 80
2, 167760, Note_on_c, 0, 60, 80
2, 167987, Note_on_c, 0, 55, 0
2, 167987, Note_on_c, 0, 60, 0
2, 168240, Note_on_c, 0, 55, 80
2, 168240, Note_on_c, 0, 60, 80
2, 168467, Note_on_c, 0, 55, 0
2, 168467, Note_on_c, 0, 60, 0
2, 168960, Note_on_c, 0, 57, 80
2, 168960, Note_on_c, 0, 60, 80
2, 169187, Note_on_c, 0, 57, 0
2, 169187, Note_on_c, 0, 60, 0
2, 169200, Note_on_c, 0, 57, 80
2, 169200, Note_on_c, 0, 60, 80
2, 169427, Note_on_c, 0, 57, 0
2, 169427, Note_on_c, 0, 60, 0
2, 169680, Note_on_c, 0, 59, 80
2, 169680, Note_on_c, 0, 62, 80
2, 169907, Note_on_c, 0, 59, 0
2, 169907, Note_on_c, 0, 62, 0
2, 170160, Note_on_c, 0, 59, 80
2, 170160, Note_on_c, 0, 62, 80
2, 170387, Note_on_c, 0, 59, 0
2, 170387, Note_on_c, 0, 62, 0
2, 170400, Note_on_c, 0, 59, 80
2, 170513, Note_on_c, 0, 59, 0
2, 170520, Note_on_c, 0, 62, 80
2, 170633, Note_on_c, 0, 62, 0
2, 170640, Note_on_c, 0, 64, 80
2, 170753, Note_on_c, 0, 64, 0
2, 170760, Note_on_c, 0, 59, 80
2, 170873, Note_on_c, 0, 59, 0
2, 170880, Note_on_c, 0, 55, 80
2, 170880, Note_on_c, 0, 60, 80
2, 171107, Note_on_c, 0, 55, 0
2, 171107, Note_on_c, 0, 60, 0
2, 171120, Note_on_c, 0, 55, 80
2, 171120, Note_on_c, 0, 60, 80
2, 171347, Note_on_c, 0, 55, 0
2, 171347, Note_on_c, 0, 60, 0
2, 171600, Note_on_c, 0, 55, 80
2, 171600, Note_on_c, 0, 60, 80
2, 171827, Note_on_c, 0, 55, 0
2, 171827, Note_on_c, 0, 60, 0
2, 172080, Note_on_c, 0, 55, 80
2, 172080, Note_on_c, 0, 60, 80
2, 172307, Note_on_c, 0, 55, 0
2, 172307, Note_on_c, 0, 60, 0
2, 172800, Note_on_c, 0, 57, 80
2, 172800, Note_on_c, 0, 60, 80
2, 173027, Note_on_c, 0, 57, 0
2, 173027, Note_on_c, 0, 60, 0
2, 173040, Note_on_c, 0, 57, 80
2, 173040, Note_on_c, 0, 60, 80
2, 173267, Note_on_c, 0, 57, 0
2, 173267, Note_on_c, 0, 60, 0
2, 173520, Note_on_c, 0, 59, 80
2, 173520, Note_on_c, 0, 62, 80
2, 173747, Note_on_c, 0, 59, 0
2, 173747, Note_on_c, 0, 62, 0
2, 174000, Note_on_c, 0, 59, 80
2, 174000, Note_on_c, 0, 62, 80
2, 174227, Note_on_c, 0, 59, 0
2, 174227, Note_on_c, 0, 62, 0
2, 174240, Note_on_c, 0, 59, 80
2, 174353, Note_on_c, 0, 59, 0
2, 174360, Note_on_c, 0, 62, 80
2, 174473, Note_on_c, 0, 62, 0
2, 174480, Note_on_c, 0, 64, 80
2, 174536, Note_on_c, 0, 64, 0
2, 174540, Note_on_c, 0, 55, 80
2, 174596, Note_on_c, 0, 55, 0
2, 174600, Note_on_c, 0, 59, 80
2, 174713, Note_on_c, 0, 59, 0
2, 174720, Note_on_c, 0, 55, 80
2, 174720, Note_on_c, 0, 60, 80
2, 174947, Note_on_c, 0, 55, 0
2, 174947, Note_on_c, 0, 60, 0
2, 174960, Note_on_c, 0, 55, 80
2, 174960, Note_on_c, 0, 60, 80
2, 175187, Note_on_c, 0, 55, 0
2, 175187, Note_on_c, 0, 60, 0
2, 175440, Note_on_c, 0, 55, 80
2, 175440, Note_on_c, 0, 60, 80
2, 175667, Note_on_c, 0, 55, 0
2, 175667, Note_on_c, 0, 60, 0
2, 175920, Note_on_c, 0, 55, 80
2, 175920, Note_on_c, 0, 60, 80
2, 176147, Note_on_c, 0, 55, 0
2, 176147, Note_on_c, 0, 60, 0
2, 176640, Note_on_c, 0, 57, 80
2, 176640, Note_on_c, 0, 60, 80
2, 176867, Note_on_c, 0, 57, 0
2, 176867, Note_on_c, 0, 60, 0
2, 176880, Note_on_c, 0, 57, 80
2, 176880, Note_on_c, 0, 60, 80
2, 177107, Note_on_c, 0, 57, 0
2, 177107, Note_on_c, 0, 60, 0
2, 177360, Note_on_c, 0, 59, 80
2, 177360, Note_on_c, 0, 62, 80
2, 177587, Note_on_c, 0, 59, 0
2, 177587, Note_on_c, 0, 62, 0
2, 177840, Note_on_c, 0, 59, 80
2, 177840, Note_on_c, 0, 62, 80
2, 178560, Key_signature, 0, "major"
2, 178751, Note_on_c, 0, 59, 0
2, 178751, Note_on_c, 0, 62, 0
2, 184320, Note_on_c, 0, 55, 80
2, 184320, Note_on_c, 0, 60, 80
2, 184320, Note_on_c, 0, 64, 80
2, 185231, Note_on_c, 0, 55, 0
2, 185231, Note_on_c, 0, 60, 0
2, 185231, Note_on_c, 0, 64, 0
2, 185280, Note_on_c, 0, 57, 80
2, 185280, Note_on_c, 0, 60, 80
2, 185280, Note_on_c, 0, 65, 80
2, 186191, Note_on_c, 0, 57, 0
2, 186191, Note_on_c, 0, 60, 0
2, 186191, Note_on_c, 0, 65, 0
2, 186240, Note_on_c, 0, 59, 80
2, 186240, Note_on_c, 0, 62, 80
2, 186240, Note_on_c, 0, 67, 80
2, 187151, Note_on_c, 0, 59, 0
2, 187151, Note_on_c, 0, 62, 0
2, 187151, Note_on_c, 0, 67, 0
2, 187200, Note_on_c, 0, 57, 80
2, 187200, Note_on_c, 0, 60, 80
2, 187200, Note_on_c, 0, 65, 80
2, 188111, Note_on_c, 0, 57, 0
2, 188111, Note_on_c, 0, 60, 0
2, 188111, Note_on_c, 0, 65, 0
2, 188160, Note_on_c, 0, 55, 80
2, 188160, Note_on_c, 0, 60, 80
2, 188160, Note_on_c, 0, 64, 80
2, 189071, Note_on_c, 0, 55, 0
2, 189071, Note_on_c, 0, 60, 0
2, 189071, Note_on_c, 0, 64, 0
2, 189120, Note_on_c, 0, 57, 80
2, 189120, Note_on_c, 0, 60, 80
2, 189120, Note_on_c, 0, 65, 80
2, 190031, Note_on_c, 0, 57, 0
2, 190031, Note_on_c, 0, 60, 0
2, 190031, Note_on_c, 0, 65, 0
2, 190080, Note_on_c, 0, 59, 80
2, 190080, Note_on_c, 0, 62, 80
2, 190080, Note_on_c, 0, 67, 80
2, 190991, Note_on_c, 0, 59, 0
2, 190991, Note_on_c, 0, 62, 0
2, 190991, Note_on_c, 0, 67, 0
2, 191040, Note_on_c, 0, 57, 80
2, 191040, Note_on_c, 0, 60, 80
2, 191040, Note_on_c, 0, 65, 80
2, 191951, Note_on_c, 0, 57, 0
2, 191951, Note_on_c, 0, 60, 0
2, 191951, Note_on_c, 0, 65, 0
2, 192000, Note_on_c, 0, 55, 80
2, 192000, Note_on_c, 0, 60, 80
2, 192000, Note_on_c, 0, 64, 80
2, 192911, Note_on_c, 0, 55, 0
2, 192911, Note_on_c, 0, 60, 0
2, 192911, Note_on_c, 0, 64, 0
2, 192960, Note_on_c, 0, 57, 80
2, 192960, Note_on_c, 0, 60, 80
2, 192960, Note_on_c, 0, 65, 80
2, 193840, Note_on_c, 0, 65, 0
2, 193871, Note_on_c, 0, 57, 0
2, 193871, Note_on_c, 0, 60, 0
2, 193920, Note_on_c, 0, 59, 80
2, 193920, Note_on_c, 0, 62, 80
2, 194831, Note_on_c, 0, 59, 0
2, 194831, Note_on_c, 0, 62, 0
2, 194880, Note_on_c, 0, 57, 80
2, 194880, Note_on_c, 0, 60, 80
2, 194880, Note_on_c, 0, 65, 80
2, 195791, Note_on_c, 0, 57, 0
2, 195791, Note_on_c, 0, 60, 0
2, 195791, Note_on_c, 0, 65, 0
2, 195840, Note_on_c, 0, 55, 80
2, 195840, Note_on_c, 0, 60, 80
2, 195840, Note_on_c, 0, 64, 80
2, 196751, Note_on_c, 0, 55, 0
2, 196751, Note_on_c, 0, 60, 0
2, 196751, Note_on_c, 0, 64, 0
2, 196800, Note_on_c, 0, 57, 80
2, 196800, Note_on_c, 0, 60, 80
2, 196800, Note_on_c, 0, 65, 80
2, 197680, Note_on_c, 0, 65, 0
2, 197711, Note_on_c, 0, 57, 0
2, 197711, Note_on_c, 0, 60, 0
2, 197760, Note_on_c, 0, 59, 80
2, 197760, Note_on_c, 0, 62, 80
2, 198671, Note_on_c, 0, 59, 0
2, 198671, Note_on_c, 0, 62, 0
2, 198720, Note_on_c, 0, 57, 80
2, 198720, Note_on_c, 0, 60, 80
2, 198720, Note_on_c, 0, 65, 80
2, 199631, Note_on_c, 0, 57, 0
2, 199631, Note_on_c, 0, 60, 0
2, 199631, Note_on_c, 0, 65, 0
2, 199680, Note_on_c, 0, 55, 80
2, 199680, Note_on_c, 0, 60, 80
2, 199680, Note_on_c, 0, 64, 80
2, 200591, Note_on_c, 0, 55, 0
2, 200591, Note_on_c, 0, 60, 0
2, 200591, Note_on_c, 0, 64, 0
2, 200640, Note_on_c, 0, 57, 80
2, 200640, Note_on_c, 0, 60, 80
2, 200640, Note_on_c, 0, 65, 80
2, 201520, Note_on_c, 0, 65, 0
2, 201551, Note_on_c, 0, 57, 0
2, 201551, Note_on_c, 0, 60, 0
2, 201600, Note_on_c, 0, 59, 80
2, 201600, Note_on_c, 0, 62, 80
2, 202511, Note_on_c, 0, 59, 0
2, 202511, Note_on_c, 0, 62, 0
2, 202560, Note_on_c, 0, 57, 80
2, 202560, Note_on_c, 0, 60, 80
2, 202560, Note_on_c, 0, 65, 80
2, 203471, Note_on_c, 0, 57, 0
2, 203471, Note_on_c, 0, 60, 0
2, 203471, Note_on_c, 0, 65, 0
2, 203520, Note_on_c, 0, 55, 80
2, 203520, Note_on_c, 0, 60, 80
2, 203520, Note_on_c, 0, 64, 80
2, 204431, Note_on_c, 0, 55, 0
2, 204431, Note_on_c, 0, 60, 0
2, 204431, Note_on_c, 0, 64, 0
2, 204480, Note_on_c, 0, 57, 80
2, 204480, Note_on_c, 0, 60, 80
2, 204480, Note_on_c, 0, 65, 80
2, 205360, Note_on_c, 0, 65, 0
2, 205391, Note_on_c, 0, 57, 0
2, 205391, Note_on_c, 0, 60, 0
2, 205440, Note_on_c, 0, 59, 80
2, 205440, Note_on_c, 0, 62, 80
2, 206351, Note_on_c, 0, 59, 0
2, 206351, Note_on_c, 0, 62, 0
2, 206400, Note_on_c, 0, 57, 80
2, 206400, Note_on_c, 0, 60, 80
2, 206400, Note_on_c, 0, 65, 80
2, 207311, Note_on_c, 0, 57, 0
2, 207311, Note_on_c, 0, 60, 0
2, 207311, Note_on_c, 0, 65, 0
2, 207360, Note_on_c, 0, 55, 80
2, 207360, Note_on_c, 0, 60, 80
2, 207360, Note_on_c, 0, 64, 80
2, 208271, Note_on_c, 0, 55, 0
2, 208271, Note_on_c, 0, 60, 0
2, 208271, Note_on_c, 0, 64, 0
2, 208320, Note_on_c, 0, 57, 80
2, 208320, Note_on_c, 0, 60, 80
2, 208320, Note_on_c, 0, 65, 80
2, 209231, Note_on_c, 0, 57, 0
2, 209231, Note_on_c, 0, 60, 0
2, 209231, Note_on_c, 0, 65, 0
2, 209280, Note_on_c, 0, 62, 80
2, 209280, Note_on_c, 0, 67, 80
2, 209280, Note_on_c, 0, 59, 80
2, 209519, Note_on_c, 0, 62, 0
2, 209519, Note_on_c, 0, 67, 0
2, 210191, Note_on_c, 0, 59, 0
2, 210240, Note_on_c, 0, 57, 80
2, 210240, Note_on_c, 0, 65, 80
2, 211151, Note_on_c, 0, 57, 0
2, 211151, Note_on_c, 0, 65, 0
2, 211200, Note_on_c, 0, 55, 80
2, 211200, Note_on_c, 0, 60, 80
2, 211200, Note_on_c, 0, 64, 80
2, 212111, Note_on_c, 0, 55, 0
2, 212111, Note_on_c, 0, 60, 0
2, 212111, Note_on_c, 0, 64, 0
2, 212160, Note_on_c, 0, 57, 80
2, 212160, Note_on_c, 0, 60, 80
2, 212160, Note_on_c, 0, 65, 80
2, 213071, Note_on_c, 0, 57, 0
2, 213071, Note_on_c, 0, 60, 0
2, 213071, Note_on_c, 0, 65, 0
2, 213120, Note_on_c, 0, 62, 80
2, 213120, Note_on_c, 0, 67, 80
2, 213120, Note_on_c, 0, 59, 80
2, 213359, Note_on_c, 0, 62, 0
2, 213359, Note_on_c, 0, 67, 0
2, 214031, Note_on_c, 0, 59, 0
2, 214080, Note_on_c, 0, 57, 80
2, 214080, Note_on_c, 0, 65, 80
2, 214991, Note_on_c, 0, 57, 0
2, 214991, Note_on_c, 0, 65, 0
2, 215040, Note_on_c, 0, 55, 80
2, 215040, Note_on_c, 0, 60, 80
2, 215040, Note_on_c, 0, 64, 80
2, 215951, Note_on_c, 0, 55, 0
2, 215951, Note_on_c, 0, 60, 0
2, 215951, Note_on_c, 0, 64, 0
2, 216000, Note_on_c, 0, 57, 80
2, 216000, Note_on_c, 0, 60, 80
2, 216000, Note_on_c, 0, 65, 80
2, 216911, Note_on_c, 0, 57, 0
2, 216911, Note_on_c, 0, 60, 0
2, 216911, Note_on_c, 0, 65, 0
2, 216960, Note_on_c, 0, 62, 80
2, 216960, Note_on_c, 0, 67, 80
2, 216960, Note_on_c, 0, 59, 80
2, 217199, Note_on_c, 0, 62, 0
2, 217199, Note_on_c, 0, 67, 0
2, 217871, Note_on_c, 0, 59, 0
2, 217920, Note_on_c, 0, 57, 80
2, 217920, Note_on_c, 0, 65, 80
2, 218831, Note_on_c, 0, 57, 0
2, 218831, Note_on_c, 0, 65, 0
2, 218880, Note_on_c, 0, 55, 80
2, 218880, Note_on_c, 0, 60, 80
2, 218880, Note_on_c, 0, 64, 80
2, 219791, Note_on_c, 0, 55, 0
2, 219791, Note_on_c, 0, 60, 0
2, 219791, Note_on_c, 0, 64, 0
2, 219840, Note_on_c, 0, 57, 80
2, 219840, Note_on_c, 0, 60, 80
2, 219840, Note_on_c, 0, 65, 80
2, 220751, Note_on_c, 0, 57, 0
2, 220751, Note_on_c, 0, 60, 0
2, 220751, Note_on_c, 0, 65, 0
2, 220800, Note_on_c, 0, 62, 80
2, 220800, Note_on_c, 0, 67, 80
2, 220800, Note_on_c, 0, 59, 80
2, 221039, Note_on_c, 0, 62, 0
2, 221039, Note_on_c, 0, 67, 0
2, 221711, Note_on_c, 0, 59, 0
2, 221760, Note_on_c, 0, 57, 80
2, 221760, Note_on_c, 0, 65, 80
2, 222671, Note_on_c, 0, 57, 0
2, 222671, Note_on_c, 0, 65, 0
2, 228480, Note_on_c, 0, 55, 80
2, 228480, Note_on_c, 0, 60, 80
2, 228480, Note_on_c, 0, 64, 80
2, 229391, Note_on_c, 0, 55, 0
2, 229391, Note_on_c, 0, 60, 0
2, 229391, Note_on_c, 0, 64, 0
2, 229440, Note_on_c, 0, 57, 80
2, 229440, Note_on_c, 0, 60, 80
2, 229440, Note_on_c, 0, 65, 80
2, 230351, Note_on_c, 0, 57, 0
2, 230351, Note_on_c, 0, 60, 0
2, 230351, Note_on_c, 0, 65, 0
2, 230400, Note_on_c, 0, 59, 80
2, 230400, Note_on_c, 0, 62, 80
2, 230400, Note_on_c, 0, 67, 80
2, 231311, Note_on_c, 0, 59, 0
2, 231311, Note_on_c, 0, 62, 0
2, 231311, Note_on_c, 0, 67, 0
2, 231360, Note_on_c, 0, 57, 80
2, 231360, Note_on_c, 0, 60, 80
2, 231360, Note_on_c, 0, 65, 80
2, 232271, Note_on_c, 0, 57, 0
2, 232271, Note_on_c, 0, 60, 0
2, 232271, Note_on_c, 0, 65, 0
2, 232320, Note_on_c, 0, 55, 80
2, 232320, Note_on_c, 0, 60, 80
2, 232320, Note_on_c, 0, 64, 80
2, 233231, Note_on_c, 0, 55, 0
2, 233231, Note_on_c, 0, 60, 0
2, 233231, Note_on_c, 0, 64, 0
2, 233280, Note_on_c, 0, 57, 80
2, 233280, Note_on_c, 0, 60, 80
2, 233280, Note_on_c, 0, 65, 80
2, 234191, Note_on_c, 0, 57, 0
2, 234191, Note_on_c, 0, 60, 0
2, 234191, Note_on_c, 0, 65, 0
2, 234240, Note_on_c, 0, 59, 80
2, 234240, Note_on_c, 0, 62, 80
2, 234240, Note_on_c, 0, 67, 80
2, 235151, Note_on_c, 0, 59, 0
2, 235151, Note_on_c, 0, 62, 0
2, 235151, Note_on_c, 0, 67, 0
2, 235200, Note_on_c, 0, 57, 80
2, 235200, Note_on_c, 0, 60, 80
2, 235200, Note_on_c, 0, 65, 80
2, 236111, Note_on_c, 0, 57, 0
2, 236111, Note_on_c, 0, 60, 0
2, 236111, Note_on_c, 0, 65, 0
2, 236160, Note_on_c, 0, 55, 80
2, 236160, Note_on_c, 0, 60, 80
2, 236160, Note_on_c, 0, 64, 80
2, 237071, Note_on_c, 0, 55, 0
2, 237071, Note_on_c, 0, 60, 0
2, 237071, Note_on_c, 0, 64, 0
2, 237120, Note_on_c, 0, 57, 80
2, 237120, Note_on_c, 0, 60, 80
2, 237120, Note_on_c, 0, 65, 80
2, 238031, Note_on_c, 0, 57, 0
2, 238031, Note_on_c, 0, 60, 0
2, 238031, Note_on_c, 0, 65, 0
2, 238080, Note_on_c, 0, 59, 80
2, 238080, Note_on_c, 0, 62, 80
2, 238080, Note_on_c, 0, 67, 80
2, 238991, Note_on_c, 0, 59, 0
2, 238991, Note_on_c, 0, 62, 0
2, 238991, Note_on_c, 0, 67, 0
2, 239040, Note_on_c, 0, 57, 80
2, 239040, Note_on_c, 0, 60, 80
2, 239040, Note_on_c, 0, 65, 80
2, 239951, Note_on_c, 0, 57, 0
2, 239951, Note_on_c, 0, 60, 0
2, 239951, Note_on_c, 0, 65, 0
2, 240000, Note_on_c, 0, 55, 80
2, 240000, Note_on_c, 0, 60, 80
2, 240000, Note_on_c, 0, 64, 80
2, 240911, Note_on_c, 0, 55, 0
2, 240911, Note_on_c, 0, 60, 0
2, 240911, Note_on_c, 0, 64, 0
2, 240960, Note_on_c, 0, 57, 80
2, 240960, Note_on_c, 0, 60, 80
2, 240960, Note_on_c, 0, 65, 80
2, 241871, Note_on_c, 0, 57, 0
2, 241871, Note_on_c, 0, 60, 0
2, 241871, Note_on_c, 0, 65, 0
2, 241920, Note_on_c, 0, 59, 80
2, 241920, Note_on_c, 0, 62, 80
2, 241920, Note_on_c, 0, 67, 80
2, 242831, Note_on_c, 0, 59, 0
2, 242831, Note_on_c, 0, 62, 0
2, 242831, Note_on_c, 0, 67, 0
2, 242880, Note_on_c, 0, 57, 80
2, 242880, Note_on_c, 0, 60, 80
2, 242880, Note_on_c, 0, 65, 80
2, 243791, Note_on_c, 0, 57, 0
2, 243791, Note_on_c, 0, 60, 0
2, 243791, Note_on_c, 0, 65, 0
2, 246000, Note_on_c, 0, 60, 80
2, 246227, Note_on_c, 0, 60, 0
2, 246240, Note_on_c, 0, 64, 80
2, 246240, Note_on_c, 0, 67, 80
2, 246240, Note_on_c, 0, 72, 80
2, 246359, Note_on_c, 0, 64, 0
2, 246359, Note_on_c, 0, 67, 0
2, 246359, Note_on_c, 0, 72, 0
2, 246480, Note_on_c, 0, 60, 80
2, 246707, Note_on_c, 0, 60, 0
2, 246960, Note_on_c, 0, 60, 80
2, 247187, Note_on_c, 0, 60, 0
2, 247200, Note_on_c, 0, 64, 80
2, 247200, Note_on_c, 0, 67, 80
2, 247200, Note_on_c, 0, 72, 80
2, 247439, Note_on_c, 0, 64, 0
2, 247439, Note_on_c, 0, 67, 0
2, 247439, Note_on_c, 0, 72, 0
2, 247920, Note_on_c, 0, 57, 80
2, 248147, Note_on_c, 0, 57, 0
2, 248160, Note_on_c, 0, 60, 80
2, 248160, Note_on_c, 0, 64, 80
2, 248160, Note_on_c, 0, 69, 80
2, 248279, Note_on_c, 0, 60, 0
2, 248279, Note_on_c, 0, 64, 0
2, 248279, Note_on_c, 0, 69, 0
2, 248400, Note_on_c, 0, 57, 80
2, 248627, Note_on_c, 0, 57, 0
2, 248880, Note_on_c, 0, 57, 80
2, 249107, Note_on_c, 0, 57, 0
2, 249120, Note_on_c, 0, 60, 80
2, 249120, Note_on_c, 0, 64, 80
2, 249120, Note_on_c, 0, 69, 80
2, 249359, Note_on_c, 0, 60, 0
2, 249359, Note_on_c, 0, 64, 0
2, 249359, Note_on_c, 0, 69, 0
2, 249840, Note_on_c, 0, 53, 80
2, 250067, Note_on_c, 0, 53, 0
2, 250080, Note_on_c, 0, 57, 80
2, 250080, Note_on_c, 0, 60, 80
2, 250080, Note_on_c, 0, 65, 80
2, 250199, Note_on_c, 0, 57, 0
2, 250199, Note_on_c, 0, 60, 0
2, 250199, Note_on_c, 0, 65, 0
2, 250320, Note_on_c, 0, 53, 80
2, 250547, Note_on_c, 0, 53, 0
2, 250800, Note_on_c, 0, 53, 80
2, 251027, Note_on_c, 0, 53, 0
2, 251040, Note_on_c, 0, 57, 80
2, 251040, Note_on_c, 0, 60, 80
2, 251040, Note_on_c, 0, 65, 80
2, 251279, Note_on_c, 0, 57, 0
2, 251279, Note_on_c, 0, 60, 0
2, 251279, Note_on_c, 0, 65, 0
2, 251760, Note_on_c, 0, 55, 80
2, 251987, Note_on_c, 0, 55, 0
2, 252000, Note_on_c, 0, 59, 80
2, 252000, Note_on_c, 0, 62, 80
2, 252000, Note_on_c, 0, 67, 80
2, 252119, Note_on_c, 0, 59, 0
2, 252119, Note_on_c, 0, 62, 0
2, 252119, Note_on_c, 0, 67, 0
2, 252240, Note_on_c, 0, 55, 80
2, 252467, Note_on_c, 0, 55, 0
2, 252720, Note_on_c, 0, 55, 80
2, 252947, Note_on_c, 0, 55, 0
2, 252960, Note_on_c, 0, 59, 80
2, 252960, Note_on_c, 0, 62, 80
2, 253199, Note_on_c, 0, 59, 0
2, 253199, Note_on_c, 0, 62, 0
2, 253680, Note_on_c, 0, 60, 80
2, 253907, Note_on_c, 0, 60, 0
2, 253920, Note_on_c, 0, 64, 80
2, 253920, Note_on_c, 0, 67, 80
2, 253920, Note_on_c, 0, 72, 80
2, 254039, Note_on_c, 0, 64, 0
2, 254039, Note_on_c, 0, 67, 0
2, 254039, Note_on_c, 0, 72, 0
2, 254160, Note_on_c, 0, 60, 80
2, 254387, Note_on_c, 0, 60, 0
2, 254640, Note_on_c, 0, 60, 80
2, 254867, Note_on_c, 0, 60, 0
2, 254880, Note_on_c, 0, 64, 80
2, 254880, Note_on_c, 0, 67, 80
2, 254880, Note_on_c, 0, 72, 80
2, 255119, Note_on_c, 0, 64, 0
2, 255119, Note_on_c, 0, 67, 0
2, 255119, Note_on_c, 0, 72, 0
2, 255600, Note_on_c, 0, 57, 80
2, 255827, Note_on_c, 0, 57, 0
2, 255840, Note_on_c, 0, 60, 80
2, 255840, Note_on_c, 0, 64, 80
2, 255840, Note_on_c, 0, 69, 80
2, 255959, Note_on_c, 0, 60, 0
2, 255959, Note_on_c, 0, 64, 0
2, 255959, Note_on_c, 0, 69, 0
2, 256080, Note_on_c, 0, 57, 80
2, 256307, Note_on_c, 0, 57, 0
2, 256560, Note_on_c, 0, 57, 80
2, 256787, Note_on_c, 0, 57, 0
2, 256800, Note_on_c, 0, 60, 80
2, 256800, Note_on_c, 0, 64, 80
2, 256800, Note_on_c, 0, 69, 80
2, 257039, Note_on_c, 0, 60, 0
2, 257039, Note_on_c, 0, 64, 0
2, 257039, Note_on_c, 0, 69, 0
2, 257520, Note_on_c, 0, 53, 80
2, 257747, Note_on_c, 0, 53, 0
2, 257760, Note_on_c, 0, 57, 80
2, 257760, Note_on_c, 0, 60, 80
2, 257760, Note_on_c, 0, 65, 80
2, 257879, Note_on_c, 0, 57, 0
2, 257879, Note_on_c, 0, 60, 0
2, 257879, Note_on_c, 0, 65, 0
2, 258000, Note_on_c, 0, 53, 80
2, 258227, Note_on_c, 0, 53, 0
2, 258480, Note_on_c, 0, 53, 80
2, 258707, Note_on_c, 0, 53, 0
2, 258720, Note_on_c, 0, 57, 80
2, 258720, Note_on_c, 0, 60, 80
2, 258720, Note_on_c, 0, 65, 80
2, 258959, Note_on_c, 0, 57, 0
2, 258959, Note_on_c, 0, 60, 0
2, 258959, Note_on_c, 0, 65, 0
2, 259440, Note_on_c, 0, 55, 80
2, 259667, Note_on_c, 0, 55, 0
2, 259680, Note_on_c, 0, 59, 80
2, 259680, Note_on_c, 0, 62, 80
2, 259680, Note_on_c, 0, 67, 80
2, 259799, Note_on_c, 0, 59, 0
2, 259799, Note_on_c, 0, 62, 0
2, 259799, Note_on_c, 0, 67, 0
2, 259920, Note_on_c, 0, 55, 80
2, 260147, Note_on_c, 0, 55, 0
2, 260400, Note_on_c, 0, 55, 80
2, 260627, Note_on_c, 0, 55, 0
2, 260640, Note_on_c, 0, 59, 80
2, 260640, Note_on_c, 0, 62, 80
2, 260879, Note_on_c, 0, 59, 0
2, 260879, Note_on_c, 0, 62, 0
2, 261360, Note_on_c, 0, 60, 80
2, 261587, Note_on_c, 0, 60, 0
2, 261600, Note_on_c, 0, 64, 80
2, 261600, Note_on_c, 0, 67, 80
2, 261600, Note_on_c, 0, 72, 80
2, 261719, Note_on_c, 0, 64, 0
2, 261719, Note_on_c, 0, 67, 0
2, 261719, Note_on_c, 0, 72, 0
2, 261840, Note_on_c, 0, 60, 80
2, 262067, Note_on_c, 0, 60, 0
2, 262320, Note_on_c, 0, 60, 80
2, 262547, Note_on_c, 0, 60, 0
2, 262560, Note_on_c, 0, 64, 80
2, 262560, Note_on_c, 0, 67, 80
2, 262560, Note_on_c, 0, 72, 80
2, 262799, Note_on_c, 0, 64, 0
2, 262799, Note_on_c, 0, 67, 0
2, 262799, Note_on_c, 0, 72, 0
2, 263280, Note_on_c, 0, 57, 80
2, 263507, Note_on_c, 0, 57, 0
2, 263520, Note_on_c, 0, 60, 80
2, 263520, Note_on_c, 0, 64, 80
2, 263520, Note_on_c, 0, 69, 80
2, 263639, Note_on_c, 0, 60, 0
2, 263639, Note_on_c, 0, 64, 0
2, 263639, Note_on_c, 0, 69, 0
2, 263760, Note_on_c, 0, 57, 80
2, 263987, Note_on_c, 0, 57, 0
2, 264240, Note_on_c, 0, 57, 80
2, 264467, Note_on_c, 0, 57, 0
2, 264480, Note_on_c, 0, 60, 80
2, 264480, Note_on_c, 0, 64, 80
2, 264480, Note_on_c, 0, 69, 80
2, 264719, Note_on_c, 0, 60, 0
2, 264719, Note_on_c, 0, 64, 0
2, 264719, Note_on_c, 0, 69, 0
2, 265200, Note_on_c, 0, 53, 80
2, 265427, Note_on_c, 0, 53, 0
2, 265440, Note_on_c, 0, 57, 80
2, 265440, Note_on_c, 0, 60, 80
2, 265440, Note_on_c, 0, 65, 80
2, 265559, Note_on_c, 0, 57, 0
2, 265559, Note_on_c, 0, 60, 0
2, 265559, Note_on_c, 0, 65, 0
2, 265680, Note_on_c, 0, 53, 80
2, 265907, Note_on_c, 0, 53, 0
2, 266160, Note_on_c, 0, 53, 80
2, 266387, Note_on_c, 0, 53, 0
2, 266400, Note_on_c, 0, 57, 80
2, 266400, Note_on_c, 0, 60, 80
2, 266400, Note_on_c, 0, 65, 80
2, 266639, Note_on_c, 0, 57, 0
2, 266639, Note_on_c, 0, 60, 0
2, 266639, Note_on_c, 0, 65, 0
2, 267120, Note_on_c, 0, 55, 80
2, 267347, Note_on_c, 0, 55, 0
2, 267360, Note_on_c, 0, 59, 80
2, 267360, Note_on_c, 0, 62, 80
2, 267360, Note_on_c, 0, 67, 80
2, 267479, Note_on_c, 0, 59, 0
2, 267479, Note_on_c, 0, 62, 0
2, 267479, Note_on_c, 0, 67, 0
2, 267600, Note_on_c, 0, 55, 80
2, 267827, Note_on_c, 0, 55, 0
2, 268080, Note_on_c, 0, 55, 80
2, 268307, Note_on_c, 0, 55, 0
2, 268320, Note_on_c, 0, 59, 80
2, 268320, Note_on_c, 0, 62, 80
2, 268320, Note_on_c, 0, 67, 80
2, 268559, Note_on_c, 0, 59, 0
2, 268559, Note_on_c, 0, 62, 0
2, 268559, Note_on_c, 0, 67, 0
2, 269040, Note_on_c, 0, 60, 80
2, 269267, Note_on_c, 0, 60, 0
2, 269280, Note_on_c, 0, 64, 80
2, 269280, Note_on_c, 0, 67, 80
2, 269280, Note_on_c, 0, 72, 80
2, 269399, Note_on_c, 0, 64, 0
2, 269399, Note_on_c, 0, 67, 0
2, 269399, Note_on_c, 0, 72, 0
2, 269520, Note_on_c, 0, 60, 80
2, 269747, Note_on_c, 0, 60, 0
2, 270000, Note_on_c, 0, 60, 80
2, 270227, Note_on_c, 0, 60, 0
2, 270240, Note_on_c, 0, 64, 80
2, 270240, Note_on_c, 0, 67, 80
2, 270240, Note_on_c, 0, 72, 80
2, 270479, Note_on_c, 0, 64, 0
2, 270479, Note_on_c, 0, 67, 0
2, 270479, Note_on_c, 0, 72, 0
2, 270960, Note_on_c, 0, 57, 80
2, 271187, Note_on_c, 0, 57, 0
2, 271200, Note_on_c, 0, 60, 80
2, 271200, Note_on_c, 0, 64, 80
2, 271200, Note_on_c, 0, 69, 80
2, 271319, Note_on_c, 0, 60, 0
2, 271319, Note_on_c, 0, 64, 0
2, 271319, Note_on_c, 0, 69, 0
2, 271440, Note_on_c, 0, 57, 80
2, 271667, Note_on_c, 0, 57, 0
2, 271920, Note_on_c, 0, 57, 80
2, 272147, Note_on_c, 0, 57, 0
2, 272160, Note_on_c, 0, 60, 80
2, 272160, Note_on_c, 0, 64, 80
2, 272160, Note_on_c, 0, 69, 80
2, 272399, Note_on_c, 0, 60, 0
2, 272399, Note_on_c, 0, 64, 0
2, 272399, Note_on_c, 0, 69, 0
2, 272880, Note_on_c, 0, 53, 80
2, 273107, Note_on_c, 0, 53, 0
2, 273120, Note_on_c, 0, 57, 80
2, 273120, Note_on_c, 0, 60, 80
2, 273120, Note_on_c, 0, 65, 80
2, 273239, Note_on_c, 0, 57, 0
2, 273239, Note_on_c, 0, 60, 0
2, 273239, Note_on_c, 0, 65, 0
2, 273360, Note_on_c, 0, 53, 80
2, 273587, Note_on_c, 0, 53, 0
2, 273840, Note_on_c, 0, 53, 80
2, 274067, Note_on_c, 0, 53, 0
2, 274080, Note_on_c, 0, 57, 80
2, 274080, Note_on_c, 0, 60, 80
2, 274080, Note_on_c, 0, 65, 80
2, 274319, Note_on_c, 0, 57, 0
2, 274319, Note_on_c, 0, 60, 0
2, 274319, Note_on_c, 0, 65, 0
2, 274800, Note_on_c, 0, 55, 80
2, 275027, Note_on_c, 0, 55, 0
2, 275040, Note_on_c, 0, 59, 80
2, 275040, Note_on_c, 0, 62, 80
2, 275040, Note_on_c, 0, 67, 80
2, 275159, Note_on_c, 0, 59, 0
2, 275159, Note_on_c, 0, 62, 0
2, 275159, Note_on_c, 0, 67, 0
2, 275280, Note_on_c, 0, 55, 80
2, 275507, Note_on_c, 0, 55, 0
2, 275760, Note_on_c, 0, 55, 80
2, 275987, Note_on_c, 0, 55, 0
2, 276000, Note_on_c, 0, 59, 80
2, 276000, Note_on_c, 0, 62, 80
2, 276239, Note_on_c, 0, 59, 0
2, 276239, Note_on_c, 0, 62, 0
2, 276720, Note_on_c, 0, 60, 80
2, 276947, Note_on_c, 0, 60, 0
2, 276960, Note_on_c, 0, 64, 80
2, 276960, Note_on_c, 0, 67, 80
2, 276960, Note_on_c, 0, 72, 80
2, 277079, Note_on_c, 0, 64, 0
2, 277079, Note_on_c, 0, 67, 0
2, 277079, Note_on_c, 0, 72, 0
2, 277200, Note_on_c, 0, 60, 80
2, 277427, Note_on_c, 0, 60, 0
2, 277680, Note_on_c, 0, 60, 80
2, 277907, Note_on_c, 0, 60, 0
2, 277920, Note_on_c, 0, 64, 80
2, 277920, Note_on_c, 0, 67, 80
2, 277920, Note_on_c, 0, 72, 80
2, 278159, Note_on_c, 0, 64, 0
2, 278159, Note_on_c, 0, 67, 0
2, 278159, Note_on_c, 0, 72, 0
2, 278640, Note_on_c, 0, 57, 80
2, 278867, Note_on_c, 0, 57, 0
2, 278880, Note_on_c, 0, 60, 80
2, 278880, Note_on_c, 0, 64, 80
2, 278880, Note_on_c, 0, 69, 80
2, 278999, Note_on_c, 0, 60, 0
2, 278999, Note_on_c, 0, 64, 0
2, 278999, Note_on_c, 0, 69, 0
2, 279120, Note_on_c, 0, 57, 80
2, 279347, Note_on_c, 0, 57, 0
2, 279600, Note_on_c, 0, 57, 80
2, 279827, Note_on_c, 0, 57, 0
2, 279840, Note_on_c, 0, 60, 80
2, 279840, Note_on_c, 0, 64, 80
2, 279840, Note_on_c, 0, 69, 80
2, 280079, Note_on_c, 0, 60, 0
2, 280079, Note_on_c, 0, 64, 0
2, 280079, Note_on_c, 0, 69, 0
2, 280560, Note_on_c, 0, 53, 80
2, 280787, Note_on_c, 0, 53, 0
2, 280800, Note_on_c, 0, 57, 80
2, 280800, Note_on_c, 0, 60, 80
2, 280800, Note_on_c, 0, 65, 80
2, 280919, Note_on_c, 0, 57, 0
2, 280919, Note_on_c, 0, 60, 0
2, 280919, Note_on_c, 0, 65, 0
2, 281040, Note_on_c, 0, 53, 80
2, 281267, Note_on_c, 0, 53, 0
2, 281520, Note_on_c, 0, 53, 80
2, 281747, Note_on_c, 0, 53, 0
2, 281760, Note_on_c, 0, 57, 80
2, 281760, Note_on_c, 0, 60, 80
2, 281760, Note_on_c, 0, 65, 80
2, 281999, Note_on_c, 0, 57, 0
2, 281999, Note_on_c, 0, 60, 0
2, 281999, Note_on_c, 0, 65, 0
2, 282480, Note_on_c, 0, 55, 80
2, 282707, Note_on_c, 0, 55, 0
2, 282720, Note_on_c, 0, 59, 80
2, 282720, Note_on_c, 0, 62, 80
2, 282720, Note_on_c, 0, 67, 80
2, 282839, Note_on_c, 0, 59, 0
2, 282839, Note_on_c, 0, 62, 0
2, 282839, Note_on_c, 0, 67, 0
2, 282960, Note_on_c, 0, 55, 80
2, 283187, Note_on_c, 0, 55, 0
2, 283440, Note_on_c, 0, 55, 80
2, 283667, Note_on_c, 0, 55, 0
2, 283680, Note_on_c, 0, 59, 80
2, 283680, Note_on_c, 0, 62, 80
2, 283919, Note_on_c, 0, 59, 0
2, 283919, Note_on_c, 0, 62, 0
2, 284400, Note_on_c, 0, 60, 80
2, 284627, Note_on_c, 0, 60, 0
2, 284640, Note_on_c, 0, 64, 80
2, 284640, Note_on_c, 0, 67, 80
2, 284640, Note_on_c, 0, 72, 80
2, 284759, Note_on_c, 0, 64, 0
2, 284759, Note_on_c, 0, 67, 0
2, 284759, Note_on_c, 0, 72, 0
2, 284880, Note_on_c, 0, 60, 80
2, 285107, Note_on_c, 0, 60, 0
2, 285360, Note_on_c, 0, 60, 80
2, 285587, Note_on_c, 0, 60, 0
2, 285600, Note_on_c, 0, 64, 80
2, 285600, Note_on_c, 0, 67, 80
2, 285600, Note_on_c, 0, 72, 80
2, 285839, Note_on_c, 0, 64, 0
2, 285839, Note_on_c, 0, 67, 0
2, 285839, Note_on_c, 0, 72, 0
2, 286320, Note_on_c, 0, 57, 80
2, 286547, Note_on_c, 0, 57, 0
2, 286560, Note_on_c, 0, 60, 80
2, 286560, Note_on_c, 0, 64, 80
2, 286560, Note_on_c, 0, 69, 80
2, 286679, Note_on_c, 0, 60, 0
2, 286679, Note_on_c, 0, 64, 0
2, 286679, Note_on_c, 0, 69, 0
2, 286800, Note_on_c, 0, 57, 80
2, 287027, Note_on_c, 0, 57, 0
2, 287280, Note_on_c, 0, 57, 80
2, 287507, Note_on_c, 0, 57, 0
2, 287520, Note_on_c, 0, 60, 80
2, 287520, Note_on_c, 0, 64, 80
2, 287520, Note_on_c, 0, 69, 80
2, 287759, Note_on_c, 0, 60, 0
2, 287759, Note_on_c, 0, 64, 0
2, 287759, Note_on_c, 0, 69, 0
2, 288240, Note_on_c, 0, 53, 80
2, 288467, Note_on_c, 0, 53, 0
2, 288480, Note_on_c, 0, 57, 80
2, 288480, Note_on_c, 0, 60, 80
2, 288480, Note_on_c, 0, 65, 80
2, 288599, Note_on_c, 0, 57, 0
2, 288599, Note_on_c, 0, 60, 0
2, 288599, Note_on_c, 0, 65, 0
2, 288720, Note_on_c, 0, 53, 80
2, 288947, Note_on_c, 0, 53, 0
2, 289200, Note_on_c, 0, 53, 80
2, 289427, Note_on_c, 0, 53, 0
2, 289440, Note_on_c, 0, 57, 80
2, 289440, Note_on_c, 0, 60, 80
2, 289440, Note_on_c, 0, 65, 80
2, 289679, Note_on_c, 0, 57, 0
2, 289679, Note_on_c, 0, 60, 0
2, 289679, Note_on_c, 0, 65, 0
2, 290160, Note_on_c, 0, 55, 80
2, 290387, Note_on_c, 0, 55, 0
2, 290400, Note_on_c, 0, 59, 80
2, 290400, Note_on_c, 0, 62, 80
2, 290400, Note_on_c, 0, 67, 80
2, 290519, Note_on_c, 0, 59, 0
2, 290519, Note_on_c, 0, 62, 0
2, 290519, Note_on_c, 0, 67, 0
2, 290640, Note_on_c, 0, 55, 80
2, 290867, Note_on_c, 0, 55, 0
2, 291120, Note_on_c, 0, 55, 80
2, 291347, Note_on_c, 0, 55, 0
2, 291360, Note_on_c, 0, 59, 80
2, 291360, Note_on_c, 0, 62, 80
2, 291360, Note_on_c, 0, 67, 80
2, 291599, Note_on_c, 0, 59, 0
2, 291599, Note_on_c, 0, 62, 0
2, 291599, Note_on_c, 0, 67, 0
2, 292080, Note_on_c, 0, 60, 80
2, 292307, Note_on_c, 0, 60, 0
2, 292320, Note_on_c, 0, 64, 80
2, 292320, Note_on_c, 0, 67, 80
2, 292320, Note_on_c, 0, 72, 80
2, 292439, Note_on_c, 0, 64, 0
2, 292439, Note_on_c, 0, 67, 0
2, 292439, Note_on_c, 0, 72, 0
2, 292560, Note_on_c, 0, 60, 80
2, 292787, Note_on_c, 0, 60, 0
2, 293040, Note_on_c, 0, 60, 80
2, 293267, Note_on_c, 0, 60, 0
2, 293280, Note_on_c, 0, 64, 80
2, 293280, Note_on_c, 0, 67, 80
2, 293280, Note_on_c, 0, 72, 80
2, 293519, Note_on_c, 0, 64, 0
2, 293519, Note_on_c, 0, 67, 0
2, 293519, Note_on_c, 0, 72, 0
2, 294000, Note_on_c, 0, 57, 80
2, 294227, Note_on_c, 0, 57, 0
2, 294240, Note_on_c, 0, 60, 80
2, 294240, Note_on_c, 0, 64, 80
2, 294240, Note_on_c, 0, 69, 80
2, 294359, Note_on_c, 0, 60, 0
2, 294359, Note_on_c, 0, 64, 0
2, 294359, Note_on_c, 0, 69, 0
2, 294480, Note_on_c, 0, 57, 80
2, 294707, Note_on_c, 0, 57, 0
2, 294960, Note_on_c, 0, 57, 80
2, 295187, Note_on_c, 0, 57, 0
2, 295200, Note_on_c, 0, 60, 80
2, 295200, Note_on_c, 0, 64, 80
2, 295200, Note_on_c, 0, 69, 80
2, 295439, Note_on_c, 0, 60, 0
2, 295439, Note_on_c, 0, 64, 0
2, 295439, Note_on_c, 0, 69, 0
2, 295920, Note_on_c, 0, 53, 80
2, 296147, Note_on_c, 0, 53, 0
2, 296160, Note_on_c, 0, 57, 80
2, 296160, Note_on_c, 0, 60, 80
2, 296160, Note_on_c, 0, 65, 80
2, 296279, Note_on_c, 0, 57, 0
2, 296279, Note_on_c, 0, 60, 0
2, 296279, Note_on_c, 0, 65, 0
2, 296400, Note_on_c, 0, 53, 80
2, 296627, Note_on_c, 0, 53, 0
2, 296880, Note_on_c, 0, 53, 80
2, 297107, Note_on_c, 0, 53, 0
2, 297120, Note_on_c, 0, 57, 80
2, 297120, Note_on_c, 0, 60, 80
2, 297120, Note_on_c, 0, 65, 80
2, 297359, Note_on_c, 0, 57, 0
2, 297359, Note_on_c, 0, 60, 0
2, 297359, Note_on_c, 0, 65, 0
2, 297840, Note_on_c, 0, 55, 80
2, 298067, Note_on_c, 0, 55, 0
2, 298080, Note_on_c, 0, 59, 80
2, 298080, Note_on_c, 0, 62, 80
2, 298080, Note_on_c, 0, 67, 80
2, 298199, Note_on_c, 0, 59, 0
2, 298199, Note_on_c, 0, 62, 0
2, 298199, Note_on_c, 0, 67, 0
2, 298320, Note_on_c, 0, 55, 80
2, 298547, Note_on_c, 0, 55, 0
2, 298800, Note_on_c, 0, 55, 80
2, 299027, Note_on_c, 0, 55, 0
2, 299040, Note_on_c, 0, 59, 80
2, 299040, Note_on_c, 0, 62, 80
2, 299279, Note_on_c, 0, 59, 0
2, 299279, Note_on_c, 0, 62, 0
2, 299760, Note_on_c, 0, 60, 80
2, 299987, Note_on_c, 0, 60, 0
2, 300000, Note_on_c, 0, 64, 80
2, 300000, Note_on_c, 0, 67, 80
2, 300000, Note_on_c, 0, 72, 80
2, 300119, Note_on_c, 0, 64, 0
2, 300119, Note_on_c, 0, 67, 0
2, 300119, Note_on_c, 0, 72, 0
2, 300240, Note_on_c, 0, 60, 80
2, 300467, Note_on_c, 0, 60, 0
2, 300720, Note_on_c, 0, 60, 80
2, 300947, Note_on_c, 0, 60, 0
2, 300960, Note_on_c, 0, 64, 80
2, 300960, Note_on_c, 0, 67, 80
2, 300960, Note_on_c, 0, 72, 80
2, 301199, Note_on_c, 0, 64, 0
2, 301199, Note_on_c, 0, 67, 0
2, 301199, Note_on_c, 0, 72, 0
2, 301680, Note_on_c, 0, 57, 80
2, 301907, Note_on_c, 0, 57, 0
2, 301920, Note_on_c, 0, 60, 80
2, 301920, Note_on_c, 0, 64, 80
2, 301920, Note_on_c, 0, 69, 80
2, 302039, Note_on_c, 0, 60, 0
2, 302039, Note_on_c, 0, 64, 0
2, 302039, Note_on_c, 0, 69, 0
2, 302160, Note_on_c, 0, 57, 80
2, 302387, Note_on_c, 0, 57, 0
2, 302640, Note_on_c, 0, 57, 80
2, 302867, Note_on_c, 0, 57, 0
2, 302880, Note_on_c, 0, 60, 80
2, 302880, Note_on_c, 0, 64, 80
2, 302880, Note_on_c, 0, 69, 80
2, 303119, Note_on_c, 0, 60, 0
2, 303119, Note_on_c, 0, 64, 0
2, 303119, Note_on_c, 0, 69, 0
2, 303600, Note_on_c, 0, 53, 80
2, 303827, Note_on_c, 0, 53, 0
2, 303840, Note_on_c, 0, 57, 80
2, 303840, Note_on_c, 0, 60, 80
2, 303840, Note_on_c, 0, 65, 80
2, 303959, Note_on_c, 0, 57, 0
2, 303959, Note_on_c, 0, 60, 0
2, 303959, Note_on_c, 0, 65, 0
2, 304080, Note_on_c, 0, 53, 80
2, 304307, Note_on_c, 0, 53, 0
2, 304560, Note_on_c, 0, 53, 80
2, 304787, Note_on_c, 0, 53, 0
2, 304800, Note_on_c, 0, 57, 80
2, 304800, Note_on_c, 0, 60, 80
2, 304800, Note_on_c, 0, 65, 80
2, 305039, Note_on_c, 0, 57, 0
2, 305039, Note_on_c, 0, 60, 0
2, 305039, Note_on_c, 0, 65, 0
2, 305520, Note_on_c, 0, 55, 80
2, 305747, Note_on_c, 0, 55, 0
2, 305760, Note_on_c, 0, 59, 80
2, 305760, Note_on_c, 0, 62, 80
2, 305760, Note_on_c, 0, 67, 80
2, 305879, Note_on_c, 0, 59, 0
2, 305879, Note_on_c, 0, 62, 0
2, 305879, Note_on_c, 0, 67, 0
2, 306000, Note_on_c, 0, 55, 80
2, 306227, Note_on_c, 0, 55, 0
2, 306480, Note_on_c, 0, 55, 80
2, 306707, Note_on_c, 0, 55, 0
2, 306720, Note_on_c, 0, 59, 80
2, 306720, Note_on_c, 0, 62, 80
2, 306959, Note_on_c, 0, 59, 0
2, 306959, Note_on_c, 0, 62, 0
2, 307440, Note_on_c, 0, 60, 80
2, 307667, Note_on_c, 0, 60, 0
2, 307680, Note_on_c, 0, 64, 80
2, 307680, Note_on_c, 0, 67, 80
2, 307680, Note_on_c, 0, 72, 80
2, 307799, Note_on_c, 0, 64, 0
2, 307799, Note_on_c, 0, 67, 0
2, 307799, Note_on_c, 0, 72, 0
2, 307920, Note_on_c, 0, 60, 80
2, 308147, Note_on_c, 0, 60, 0
2, 308400, Note_on_c, 0, 60, 80
2, 308627, Note_on_c, 0, 60, 0
2, 308640, Note_on_c, 0, 64, 80
2, 308640, Note_on_c, 0, 67, 80
2, 308640, Note_on_c, 0, 72, 80
2, 308879, Note_on_c, 0, 64, 0
2, 308879, Note_on_c, 0, 67, 0
2, 308879, Note_on_c, 0, 72, 0
2, 309360, Note_on_c, 0, 57, 80
2, 309587, Note_on_c, 0, 57, 0
2, 309600, Note_on_c, 0, 60, 80
2, 309600, Note_on_c, 0, 64, 80
2, 309600, Note_on_c, 0, 69, 80
2, 309719, Note_on_c, 0, 60, 0
2, 309719, Note_on_c, 0, 64, 0
2, 309719, Note_on_c, 0, 69, 0
2, 309840, Note_on_c, 0, 57, 80
2, 310067, Note_on_c, 0, 57, 0
2, 310320, Note_on_c, 0, 57, 80
2, 310547, Note_on_c, 0, 57, 0
2, 310560, Note_on_c, 0, 60, 80
2, 310560, Note_on_c, 0, 64, 80
2, 310560, Note_on_c, 0, 69, 80
2, 310799, Note_on_c, 0, 60, 0
2, 310799, Note_on_c, 0, 64, 0
2, 310799, Note_on_c, 0, 69, 0
2, 311280, Note_on_c, 0, 53, 80
2, 311507, Note_on_c, 0, 53, 0
2, 311520, Note_on_c, 0, 57, 80
2, 311520, Note_on_c, 0, 60, 80
2, 311520, Note_on_c, 0, 65, 80
2, 311639, Note_on_c, 0, 57, 0
2, 311639, Note_on_c, 0, 60, 0
2, 311639, Note_on_c, 0, 65, 0
2, 311760, Note_on_c, 0, 53, 80
2, 311987, Note_on_c, 0, 53, 0
2, 312240, Note_on_c, 0, 53, 80
2, 312467, Note_on_c, 0, 53, 0
2, 312480, Note_on_c, 0, 57, 80
2, 312480, Note_on_c, 0, 60, 80
2, 312480, Note_on_c, 0, 65, 80
2, 312719, Note_on_c, 0, 57, 0
2, 312719, Note_on_c, 0, 60, 0
2, 312719, Note_on_c, 0, 65, 0
2, 313200, Note_on_c, 0, 55, 80
2, 313427, Note_on_c, 0, 55, 0
2, 313440, Note_on_c, 0, 59, 80
2, 313440, Note_on_c, 0, 62, 80
2, 313440, Note_on_c, 0, 67, 80
2, 313559, Note_on_c, 0, 59, 0
2, 313559, Note_on_c, 0, 62, 0
2, 313559, Note_on_c, 0, 67, 0
2, 313680, Note_on_c, 0, 55, 80
2, 313907, Note_on_c, 0, 55, 0
2, 314160, Note_on_c, 0, 55, 80
2, 314387, Note_on_c, 0, 55, 0
2, 314400, Note_on_c, 0, 59, 80
2, 314400, Note_on_c, 0, 62, 80
2, 314400, Note_on_c, 0, 67, 80
2, 314639, Note_on_c, 0, 59, 0
2, 314639, Note_on_c, 0, 62, 0
2, 314639, Note_on_c, 0, 67, 0
2, 315200, Note_on_c, 0, 60, 80
2, 315351, Note_on_c, 0, 60, 0
2, 315360, Note_on_c, 0, 64, 80
2, 315360, Note_on_c, 0, 72, 80
2, 315511, Note_on_c, 0, 64, 0
2, 315511, Note_on_c, 0, 72, 0
2, 315680, Note_on_c, 0, 60, 80
2, 315831, Note_on_c, 0, 60, 0
2, 316160, Note_on_c, 0, 60, 80
2, 316311, Note_on_c, 0, 60, 0
2, 316320, Note_on_c, 0, 64, 80
2, 316320, Note_on_c, 0, 72, 80
2, 316775, Note_on_c, 0, 64, 0
2, 316775, Note_on_c, 0, 72, 0
2, 317120, Note_on_c, 0, 57, 80
2, 317271, Note_on_c, 0, 57, 0
2, 317280, Note_on_c, 0, 64, 80
2, 317280, Note_on_c, 0, 69, 80
2, 317431, Note_on_c, 0, 64, 0
2, 317431, Note_on_c, 0, 69, 0
2, 317600, Note_on_c, 0, 57, 80
2, 317751, Note_on_c, 0, 57, 0
2, 318080, Note_on_c, 0, 57, 80
2, 318231, Note_on_c, 0, 57, 0
2, 318240, Note_on_c, 0, 64, 80
2, 318240, Note_on_c, 0, 69, 80
2, 318695, Note_on_c, 0, 64, 0
2, 318695, Note_on_c, 0, 69, 0
2, 319040, Note_on_c, 0, 53, 80
2, 319191, Note_on_c, 0, 53, 0
2, 319200, Note_on_c, 0, 60, 80
2, 319200, Note_on_c, 0, 65, 80
2, 319351, Note_on_c, 0, 60, 0
2, 319351, Note_on_c, 0, 65, 0
2, 319520, Note_on_c, 0, 53, 80
2, 319671, Note_on_c, 0, 53, 0
2, 320000, Note_on_c, 0, 53, 80
2, 320151, Note_on_c, 0, 53, 0
2, 320160, Note_on_c, 0, 60, 80
2, 320160, Note_on_c, 0, 65, 80
2, 320615, Note_on_c, 0, 60, 0
2, 320615, Note_on_c, 0, 65, 0
2, 320960, Note_on_c, 0, 55, 80
2, 321111, Note_on_c, 0, 55, 0
2, 321120, Note_on_c, 0, 62, 80
2, 321120, Note_on_c, 0, 67, 80
2, 321271, Note_on_c, 0, 62, 0
2, 321271, Note_on_c, 0, 67, 0
2, 321440, Note_on_c, 0, 55, 80
2, 321591, Note_on_c, 0, 55, 0
2, 321920, Note_on_c, 0, 55, 80
2, 322071, Note_on_c, 0, 55, 0
2, 322080, Note_on_c, 0, 62, 80
2, 322535, Note_on_c, 0, 62, 0
2, 322880, Note_on_c, 0, 60, 80
2, 323031, Note_on_c, 0, 60, 0
2, 323040, Note_on_c, 0, 64, 80
2, 323040, Note_on_c, 0, 72, 80
2, 323191, Note_on_c, 0, 64, 0
2, 323191, Note_on_c, 0, 72, 0
2, 323360, Note_on_c, 0, 60, 80
2, 323511, Note_on_c, 0, 60, 0
2, 323840, Note_on_c, 0, 60, 80
2, 323991, Note_on_c, 0, 60, 0
2, 324000, Note_on_c, 0, 64, 80
2, 324000, Note_on_c, 0, 72, 80
2, 324455, Note_on_c, 0, 64, 0
2, 324455, Note_on_c, 0, 72, 0
2, 324800, Note_on_c, 0, 57, 80
2, 324951, Note_on_c, 0, 57, 0
2, 324960, Note_on_c, 0, 64, 80
2, 324960, Note_on_c, 0, 69, 80
2, 325111, Note_on_c, 0, 64, 0
2, 325111, Note_on_c, 0, 69, 0
2, 325280, Note_on_c, 0, 57, 80
2, 325431, Note_on_c, 0, 57, 0
2, 325760, Note_on_c, 0, 57, 80
2, 325911, Note_on_c, 0, 57, 0
2, 325920, Note_on_c, 0, 64, 80
2, 325920, Note_on_c, 0, 69, 80
2, 326375, Note_on_c, 0, 64, 0
2, 326375, Note_on_c, 0, 69, 0
2, 326720, Note_on_c, 0, 53, 80
2, 326871, Note_on_c, 0, 53, 0
2, 326880, Note_on_c, 0, 60, 80
2, 326880, Note_on_c, 0, 65, 80
2, 327031, Note_on_c, 0, 60, 0
2, 327031, Note_on_c, 0, 65, 0
2, 327200, Note_on_c, 0, 53, 80
2, 327351, Note_on_c, 0, 53, 0
2, 327680, Note_on_c, 0, 53, 80
2, 327831, Note_on_c, 0, 53, 0
2, 327840, Note_on_c, 0, 60, 80
2, 327840, Note_on_c, 0, 65, 80
2, 328295, Note_on_c, 0, 60, 0
2, 328295, Note_on_c, 0, 65, 0
2, 328640, Note_on_c, 0, 55, 80
2, 328791, Note_on_c, 0, 55, 0
2, 328800, Note_on_c, 0, 62, 80
2, 328800, Note_on_c, 0, 67, 80
2, 328951, Note_on_c, 0, 62, 0
2, 328951, Note_on_c, 0, 67, 0
2, 329120, Note_on_c, 0, 55, 80
2, 329271, Note_on_c, 0, 55, 0
2, 329600, Note_on_c, 0, 55, 80
2, 329751, Note_on_c, 0, 55, 0
2, 329760, Note_on_c, 0, 62, 80
2, 329760, Note_on_c, 0, 67, 80
2, 330215, Note_on_c, 0, 62, 0
2, 330215, Note_on_c, 0, 67, 0
2, 334080, Note_on_c, 0, 48, 80
2, 334307, Note_on_c, 0, 48, 0
2, 334320, Note_on_c, 0, 52, 80
2, 334320, Note_on_c, 0, 55, 80
2, 334547, Note_on_c, 0, 52, 0
2, 334547, Note_on_c, 0, 55, 0
2, 335760, Note_on_c, 0, 55, 80
2, 335987, Note_on_c, 0, 55, 0
2, 336000, Note_on_c, 0, 53, 80
2, 336227, Note_on_c, 0, 53, 0
2, 336240, Note_on_c, 0, 57, 80
2, 336240, Note_on_c, 0, 60, 80
2, 336467, Note_on_c, 0, 57, 0
2, 336467, Note_on_c, 0, 60, 0
2, 337680, Note_on_c, 0, 59, 80
2, 337907, Note_on_c, 0, 59, 0
2, 337920, Note_on_c, 0, 60, 80
2, 338147, Note_on_c, 0, 60, 0
2, 338160, Note_on_c, 0, 64, 80
2, 338160, Note_on_c, 0, 67, 80
2, 338387, Note_on_c, 0, 64, 0
2, 338387, Note_on_c, 0, 67, 0
2, 339600, Note_on_c, 0, 55, 80
2, 339827, Note_on_c, 0, 55, 0
2, 339840, Note_on_c, 0, 53, 80
2, 340067, Note_on_c, 0, 53, 0
2, 340080, Note_on_c, 0, 57, 80
2, 340080, Note_on_c, 0, 60, 80
2, 340307, Note_on_c, 0, 57, 0
2, 340307, Note_on_c, 0, 60, 0
2, 341520, Note_on_c, 0, 59, 80
2, 341747, Note_on_c, 0, 59, 0
2, 341760, Note_on_c, 0, 60, 80
2, 341987, Note_on_c, 0, 60, 0
2, 342000, Note_on_c, 0, 64, 80
2, 342000, Note_on_c, 0, 67, 80
2, 342227, Note_on_c, 0, 64, 0
2, 342227, Note_on_c, 0, 67, 0
2, 343440, Note_on_c, 0, 55, 80
2, 343667, Note_on_c, 0, 55, 0
2, 343680, Note_on_c, 0, 53, 80
2, 343907, Note_on_c, 0, 53, 0
2, 343920, Note_on_c, 0, 57, 80
2, 343920, Note_on_c, 0, 60, 80
2, 344147, Note_on_c, 0, 57, 0
2, 344147, Note_on_c, 0, 60, 0
2, 345360, Note_on_c, 0, 59, 80
2, 345587, Note_on_c, 0, 59, 0
2, 345600, Note_on_c, 0, 60, 80
2, 345827, Note_on_c, 0, 60, 0
2, 345840, Note_on_c, 0, 64, 80
2, 345840, Note_on_c, 0, 67, 80
2, 346067, Note_on_c, 0, 64, 0
2, 346067, Note_on_c, 0, 67, 0
2, 347280, Note_on_c, 0, 55, 80
2, 347507, Note_on_c, 0, 55, 0
2, 347520, Note_on_c, 0, 53, 80
2, 347747, Note_on_c, 0, 53, 0
2, 347760, Note_on_c, 0, 57, 80
2, 347760, Note_on_c, 0, 60, 80
2, 347987, Note_on_c, 0, 57, 0
2, 347987, Note_on_c, 0, 60, 0
2, 349200, Note_on_c, 0, 59, 80
2, 349427, Note_on_c, 0, 59, 0
2, 349440, Note_on_c, 0, 60, 80
2, 349667, Note_on_c, 0, 60, 0
2, 349680, Note_on_c, 0, 64, 80
2, 349680, Note_on_c, 0, 67, 80
2, 349907, Note_on_c, 0, 64, 0
2, 349907, Note_on_c, 0, 67, 0
2, 351120, Note_on_c, 0, 55, 80
2, 351347, Note_on_c, 0, 55, 0
2, 351360, Note_on_c, 0, 53, 80
2, 351587, Note_on_c, 0, 53, 0
2, 351600, Note_on_c, 0, 57, 80
2, 351600, Note_on_c, 0, 60, 80
2, 351827, Note_on_c, 0, 57, 0
2, 351827, Note_on_c, 0, 60, 0
2, 376320, Note_on_c, 0, 52, 80
2, 376350, Note_on_c, 0, 55, 80
2, 376380, Note_on_c, 0, 60, 80
2, 376440, Note_on_c, 0, 64, 80
2, 376548, Note_on_c, 0, 55, 0
2, 376550, Note_on_c, 0, 60, 0
2, 376559, Note_on_c, 0, 52, 0
2, 376619, Note_on_c, 0, 64, 0
2, 377760, Note_on_c, 0, 52, 80
2, 377840, Note_on_c, 0, 55, 80
2, 377880, Note_on_c, 0, 60, 80
2, 377920, Note_on_c, 0, 64, 80
2, 378215, Note_on_c, 0, 52, 0
2, 378219, Note_on_c, 0, 55, 0
2, 378221, Note_on_c, 0, 60, 0
2, 378223, Note_on_c, 0, 64, 0
2, 378240, Note_on_c, 0, 53, 80
2, 378270, Note_on_c, 0, 57, 80
2, 378300, Note_on_c, 0, 62, 80
2, 378360, Note_on_c, 0, 65, 80
2, 378468, Note_on_c, 0, 57, 0
2, 378470, Note_on_c, 0, 62, 0
2, 378479, Note_on_c, 0, 53, 0
2, 378539, Note_on_c, 0, 65, 0
2, 379680, Note_on_c, 0, 53, 80
2, 379710, Note_on_c, 0, 57, 80
2, 379740, Note_on_c, 0, 62, 80
2, 379800, Note_on_c, 0, 65, 80
2, 379908, Note_on_c, 0, 57, 0
2, 379910, Note_on_c, 0, 62, 0
2, 379919, Note_on_c, 0, 53, 0
2, 379979, Note_on_c, 0, 65, 0
2, 380160, Note_on_c, 0, 55, 80
2, 380190, Note_on_c, 0, 59, 80
2, 380220, Note_on_c, 0, 64, 80
2, 380280, Note_on_c, 0, 67, 80
2, 380388, Note_on_c, 0, 59, 0
2, 380390, Note_on_c, 0, 64, 0
2, 380399, Note_on_c, 0, 55, 0
2, 380459, Note_on_c, 0, 67, 0
2, 381600, Note_on_c, 0, 55, 80
2, 381630, Note_on_c, 0, 59, 80
2, 381660, Note_on_c, 0, 64, 80
2, 381720, Note_on_c, 0, 67, 80
2, 381828, Note_on_c, 0, 59, 0
2, 381830, Note_on_c, 0, 64, 0
2, 381839, Note_on_c, 0, 55, 0
2, 381899, Note_on_c, 0, 67, 0
2, 382080, Note_on_c, 0, 57, 80
2, 382110, Note_on_c, 0, 60, 80
2, 382140, Note_on_c, 0, 65, 80
2, 382200, Note_on_c, 0, 69, 80
2, 382308, Note_on_c, 0, 60, 0
2, 382310, Note_on_c, 0, 65, 0
2, 382319, Note_on_c, 0, 57, 0
2, 382379, Note_on_c, 0, 69, 0
2, 383520, Note_on_c, 0, 57, 80
2, 383550, Note_on_c, 0, 60, 80
2, 383580, Note_on_c, 0, 65, 80
2, 383640, Note_on_c, 0, 69, 80
2, 383748, Note_on_c, 0, 60, 0
2, 383750, Note_on_c, 0, 65, 0
2, 383759, Note_on_c, 0, 57, 0
2, 383819, Note_on_c, 0, 69, 0
2, 384000, Note_on_c, 0, 52, 80
2, 384030, Note_on_c, 0, 55, 80
2, 384060, Note_on_c, 0, 60, 80
2, 384120, Note_on_c, 0, 64, 80
2, 384228, Note_on_c, 0, 55, 0
2, 384230, Note_on_c, 0, 60, 0
2, 384239, Note_on_c, 0, 52, 0
2, 384299, Note_on_c, 0, 64, 0
2, 385440, Note_on_c, 0, 52, 80
2, 385470, Note_on_c, 0, 55, 80
2, 385500, Note_on_c, 0, 60, 80
2, 385560, Note_on_c, 0, 64, 80
2, 385668, Note_on_c, 0, 55, 0
2, 385670, Note_on_c, 0, 60, 0
2, 385679, Note_on_c, 0, 52, 0
2, 385739, Note_on_c, 0, 64, 0
2, 385920, Note_on_c, 0, 53, 80
2, 385950, Note_on_c, 0, 57, 80
2, 385980, Note_on_c, 0, 62, 80
2, 386040, Note_on_c, 0, 65, 80
2, 386148, Note_on_c, 0, 57, 0
2, 386150, Note_on_c, 0, 62, 0
2, 386159, Note_on_c, 0, 53, 0
2, 386219, Note_on_c, 0, 65, 0
2, 387360, Note_on_c, 0, 53, 80
2, 387390, Note_on_c, 0, 57, 80
2, 387420, Note_on_c, 0, 62, 80
2, 387480, Note_on_c, 0, 65, 80
2, 387588, Note_on_c, 0, 57, 0
2, 387590, Note_on_c, 0, 62, 0
2, 387599, Note_on_c, 0, 53, 0
2, 387659, Note_on_c, 0, 65, 0
2, 387840, Note_on_c, 0, 60, 80
2, 387840, Note_on_c, 0, 64, 80
2, 387840, Note_on_c, 0, 69, 80
2, 389663, Note_on_c, 0, 60, 0
2, 389663, Note_on_c, 0, 64, 0
2, 389663, Note_on_c, 0, 69, 0
2, 389760, Note_on_c, 0, 57, 80
2, 389760, Note_on_c, 0, 60, 80
2, 389760, Note_on_c, 0, 64, 80
2, 391583, Note_on_c, 0, 57, 0
2, 391583, Note_on_c, 0, 60, 0
2, 391583, Note_on_c, 0, 64, 0
2, 391680, Note_on_c, 0, 53, 80
2, 391680, Note_on_c, 0, 57, 80
2, 391680, Note_on_c, 0, 60, 80
2, 393503, Note_on_c, 0, 53, 0
2, 393503, Note_on_c, 0, 57, 0
2, 393503, Note_on_c, 0, 60, 0
2, 393600, Note_on_c, 0, 55, 80
2, 393600, Note_on_c, 0, 60, 80
2, 393600, Note_on_c, 0, 64, 80
2, 395423, Note_on_c, 0, 55, 0
2, 395423, Note_on_c, 0, 60, 0
2, 395423, Note_on_c, 0, 64, 0
2, 399360, Key_signature, 0, "major"
2, 399360, Note_on_c, 0, 48, 80
2, 399587, Note_on_c, 0, 48, 0
2, 399600, Note_on_c, 0, 52, 80
2, 399827, Note_on_c, 0, 52, 0
2, 399840, Note_on_c, 0, 55, 80
2, 399840, Note_on_c, 0, 60, 80
2, 401207, Note_on_c, 0, 55, 0
2, 401207, Note_on_c, 0, 60, 0
2, 401280, Note_on_c, 0, 50, 80
2, 401507, Note_on_c, 0, 50, 0
2, 401520, Note_on_c, 0, 53, 80
2, 401747, Note_on_c, 0, 53, 0
2, 401760, Note_on_c, 0, 57, 80
2, 401760, Note_on_c, 0, 60, 80
2, 403127, Note_on_c, 0, 57, 0
2, 403127, Note_on_c, 0, 60, 0
2, 403200, Note_on_c, 0, 52, 80
2, 403427, Note_on_c, 0, 52, 0
2, 403440, Note_on_c, 0, 59, 80
2, 403667, Note_on_c, 0, 59, 0
2, 403680, Note_on_c, 0, 64, 80
2, 403680, Note_on_c, 0, 67, 80
2, 405047, Note_on_c, 0, 64, 0
2, 405047, Note_on_c, 0, 67, 0
2, 405120, Note_on_c, 0, 50, 80
2, 405347, Note_on_c, 0, 50, 0
2, 405360, Note_on_c, 0, 55, 80
2, 405587, Note_on_c, 0, 55, 0
2, 405600, Note_on_c, 0, 62, 80
2, 405600, Note_on_c, 0, 65, 80
2, 406967, Note_on_c, 0, 62, 0
2, 406967, Note_on_c, 0, 65, 0
2, 407040, Note_on_c, 0, 48, 80
2, 407267, Note_on_c, 0, 48, 0
2, 407280, Note_on_c, 0, 52, 80
2, 407507, Note_on_c, 0, 52, 0
2, 407520, Note_on_c, 0, 55, 80
2, 407520, Note_on_c, 0, 60, 80
2, 408887, Note_on_c, 0, 55, 0
2, 408887, Note_on_c, 0, 60, 0
2, 408960, Note_on_c, 0, 50, 80
2, 409187, Note_on_c, 0, 50, 0
2, 409200, Note_on_c, 0, 53, 80
2, 409427, Note_on_c, 0, 53, 0
2, 409440, Note_on_c, 0, 57, 80
2, 409440, Note_on_c, 0, 60, 80
2, 410807, Note_on_c, 0, 57, 0
2, 410807, Note_on_c, 0, 60, 0
2, 410880, Note_on_c, 0, 52, 80
2, 411107, Note_on_c, 0, 52, 0
2, 411120, Note_on_c, 0, 59, 80
2, 411347, Note_on_c, 0, 59, 0
2, 411360, Note_on_c, 0, 64, 80
2, 411360, Note_on_c, 0, 67, 80
2, 412727, Note_on_c, 0, 64, 0
2, 412727, Note_on_c, 0, 67, 0
2, 412800, Note_on_c, 0, 50, 80
2, 413027, Note_on_c, 0, 50, 0
2, 413040, Note_on_c, 0, 55, 80
2, 413267, Note_on_c, 0, 55, 0
2, 413280, Note_on_c, 0, 62, 80
2, 413280, Note_on_c, 0, 65, 80
2, 414647, Note_on_c, 0, 62, 0
2, 414647, Note_on_c, 0, 65, 0
2, 414720, Note_on_c, 0, 48, 80
2, 414720, Note_on_c, 0, 55, 80
2, 414720, Note_on_c, 0, 60, 80
2, 416543, Note_on_c, 0, 48, 0
2, 416543, Note_on_c, 0, 55, 0
2, 416543, Note_on_c, 0, 60, 0
2, 416640, Note_on_c, 0, 55, 80
2, 416640, Note_on_c, 0, 59, 80
2, 418463, Note_on_c, 0, 55, 0
2, 418463, Note_on_c, 0, 59, 0
2, 418560, Note_on_c, 0, 48, 80
2, 418560, Note_on_c, 0, 53, 80
2, 418560, Note_on_c, 0, 57, 80
2, 420383, Note_on_c, 0, 48, 0
2, 420383, Note_on_c, 0, 53, 0
2, 420383, Note_on_c, 0, 57, 0
2, 420480, Note_on_c, 0, 48, 80
2, 420480, Note_on_c, 0, 52, 80
2, 420480, Note_on_c, 0, 55, 80
2, 422303, Note_on_c, 0, 48, 0
2, 422303, Note_on_c, 0, 52, 0
2, 422303, Note_on_c, 0, 55, 0
2, 422400, Note_on_c, 0, 55, 80
2, 422400, Note_on_c, 0, 62, 80
2, 422400, Note_on_c, 0, 65, 80
2, 424223, Note_on_c, 0, 55, 0
2, 424223, Note_on_c, 0, 62, 0
2, 424223, Note_on_c, 0, 65, 0
2, 424320, Note_on_c, 0, 55, 80
2, 424320, Note_on_c, 0, 60, 80
2, 426143, Note_on_c, 0, 55, 0
2, 426143, Note_on_c, 0, 60, 0
2, 426240, Note_on_c, 0, 57, 80
2, 426240, Note_on_c, 0, 65, 80
2, 428063, Note_on_c, 0, 57, 0
2, 428063, Note_on_c, 0, 65, 0
2, 428160, Note_on_c, 0, 52, 80
2, 428175, Note_on_c, 0, 55, 80
2, 428175, Note_on_c, 0, 59, 80
2, 428205, Note_on_c, 0, 64, 80
2, 429869, Note_on_c, 0, 55, 0
2, 429869, Note_on_c, 0, 59, 0
2, 429871, Note_on_c, 0, 64, 0
2, 429983, Note_on_c, 0, 52, 0
2, 430080, Note_on_c, 0, 50, 80
2, 430095, Note_on_c, 0, 53, 80
2, 430095, Note_on_c, 0, 57, 80
2, 430125, Note_on_c, 0, 62, 80
2, 430140, Note_on_c, 0, 65, 80
2, 431789, Note_on_c, 0, 53, 0
2, 431789, Note_on_c, 0, 57, 0
2, 431791, Note_on_c, 0, 62, 0
2, 431792, Note_on_c, 0, 65, 0
2, 431903, Note_on_c, 0, 50, 0
2, 431904, End_track
3, 0, Start_track
3, 0, Title_t, "Electric Bass, Bass\000"
3, 0, Key_signature, 0, "major"
3, 0, Control_c, 2, 121, 0
3, 0, Program_c, 2, 33
3, 0, Control_c, 2, 7, 100
3, 0, Control_c, 2, 10, 64
3, 0, Control_c, 2, 91, 0
3, 0, Control_c, 2, 93, 0
3, 0, MIDI_port, 0
3, 0, Control_c, 1, 121, 0
3, 0, Program_c, 1, 36
3, 0, Control_c, 1, 7, 100
3, 0, Control_c, 1, 10, 64
3, 0, Control_c, 1, 91, 0
3, 0, Control_c, 1, 93, 0
3, 0, MIDI_port, 0
3, 0, Control_c, 5, 121, 0
3, 0, Program_c, 5, 37
3, 0, Control_c, 5, 7, 100
3, 0, Control_c, 5, 10, 64
3, 0, Control_c, 5, 91, 0
3, 0, Control_c, 5, 93, 0
3, 0, MIDI_port, 0
3, 7680, Note_on_c, 2, 60, 80
3, 8399, Note_on_c, 2, 60, 0
3, 8400, Note_on_c, 2, 60, 80
3, 8639, Note_on_c, 2, 60, 0
3, 8640, Note_on_c, 2, 57, 80
3, 9359, Note_on_c, 2, 57, 0
3, 9360, Note_on_c, 2, 57, 80
3, 9599, Note_on_c, 2, 57, 0
3, 9600, Note_on_c, 2, 53, 80
3, 10319, Note_on_c, 2, 53, 0
3, 10320, Note_on_c, 2, 53, 80
3, 10559, Note_on_c, 2, 53, 0
3, 10560, Note_on_c, 2, 55, 80
3, 11279, Note_on_c, 2, 55, 0
3, 11280, Note_on_c, 2, 55, 80
3, 11519, Note_on_c, 2, 55, 0
3, 11520, Note_on_c, 2, 60, 80
3, 12239, Note_on_c, 2, 60, 0
3, 12240, Note_on_c, 2, 60, 80
3, 12479, Note_on_c, 2, 60, 0
3, 12480, Note_on_c, 2, 57, 80
3, 13199, Note_on_c, 2, 57, 0
3, 13200, Note_on_c, 2, 57, 80
3, 13439, Note_on_c, 2, 57, 0
3, 13440, Note_on_c, 2, 53, 80
3, 14159, Note_on_c, 2, 53, 0
3, 14160, Note_on_c, 2, 53, 80
3, 14399, Note_on_c, 2, 53, 0
3, 14400, Note_on_c, 2, 55, 80
3, 15119, Note_on_c, 2, 55, 0
3, 15120, Note_on_c, 2, 55, 80
3, 15359, Note_on_c, 2, 55, 0
3, 15360, Note_on_c, 2, 60, 80
3, 16079, Note_on_c, 2, 60, 0
3, 16080, Note_on_c, 2, 60, 80
3, 16319, Note_on_c, 2, 60, 0
3, 16320, Note_on_c, 2, 57, 80
3, 17039, Note_on_c, 2, 57, 0
3, 17040, Note_on_c, 2, 57, 80
3, 17279, Note_on_c, 2, 57, 0
3, 17280, Note_on_c, 2, 53, 80
3, 17999, Note_on_c, 2, 53, 0
3, 18000, Note_on_c, 2, 53, 80
3, 18239, Note_on_c, 2, 53, 0
3, 18240, Note_on_c, 2, 55, 80
3, 18959, Note_on_c, 2, 55, 0
3, 18960, Note_on_c, 2, 55, 80
3, 19199, Note_on_c, 2, 55, 0
3, 19200, Note_on_c, 2, 60, 80
3, 19919, Note_on_c, 2, 60, 0
3, 19920, Note_on_c, 2, 60, 80
3, 20159, Note_on_c, 2, 60, 0
3, 20160, Note_on_c, 2, 57, 80
3, 20879, Note_on_c, 2, 57, 0
3, 20880, Note_on_c, 2, 57, 80
3, 21119, Note_on_c, 2, 57, 0
3, 21120, Note_on_c, 2, 53, 80
3, 21839, Note_on_c, 2, 53, 0
3, 21840, Note_on_c, 2, 53, 80
3, 22079, Note_on_c, 2, 53, 0
3, 22080, Note_on_c, 2, 55, 80
3, 22799, Note_on_c, 2, 55, 0
3, 22800, Note_on_c, 2, 55, 80
3, 23039, Note_on_c, 2, 55, 0
3, 23040, Note_on_c, 2, 60, 80
3, 23759, Note_on_c, 2, 60, 0
3, 23760, Note_on_c, 2, 60, 80
3, 23999, Note_on_c, 2, 60, 0
3, 24000, Note_on_c, 2, 57, 80
3, 24719, Note_on_c, 2, 57, 0
3, 24720, Note_on_c, 2, 57, 80
3, 24959, Note_on_c, 2, 57, 0
3, 24960, Note_on_c, 2, 53, 80
3, 25679, Note_on_c, 2, 53, 0
3, 25680, Note_on_c, 2, 53, 80
3, 25919, Note_on_c, 2, 53, 0
3, 25920, Note_on_c, 2, 55, 80
3, 26639, Note_on_c, 2, 55, 0
3, 26640, Note_on_c, 2, 55, 80
3, 26879, Note_on_c, 2, 55, 0
3, 26880, Note_on_c, 2, 60, 80
3, 27599, Note_on_c, 2, 60, 0
3, 27600, Note_on_c, 2, 60, 80
3, 27839, Note_on_c, 2, 60, 0
3, 27840, Note_on_c, 2, 57, 80
3, 28559, Note_on_c, 2, 57, 0
3, 28560, Note_on_c, 2, 57, 80
3, 28799, Note_on_c, 2, 57, 0
3, 28800, Note_on_c, 2, 53, 80
3, 29519, Note_on_c, 2, 53, 0
3, 29520, Note_on_c, 2, 53, 80
3, 29759, Note_on_c, 2, 53, 0
3, 29760, Note_on_c, 2, 55, 80
3, 30479, Note_on_c, 2, 55, 0
3, 30480, Note_on_c, 2, 55, 80
3, 30719, Note_on_c, 2, 55, 0
3, 30720, Note_on_c, 2, 60, 80
3, 31439, Note_on_c, 2, 60, 0
3, 31440, Note_on_c, 2, 60, 80
3, 31679, Note_on_c, 2, 60, 0
3, 31680, Note_on_c, 2, 57, 80
3, 32399, Note_on_c, 2, 57, 0
3, 32400, Note_on_c, 2, 57, 80
3, 32639, Note_on_c, 2, 57, 0
3, 32640, Note_on_c, 2, 53, 80
3, 33359, Note_on_c, 2, 53, 0
3, 33360, Note_on_c, 2, 53, 80
3, 33599, Note_on_c, 2, 53, 0
3, 33600, Note_on_c, 2, 55, 80
3, 34319, Note_on_c, 2, 55, 0
3, 34320, Note_on_c, 2, 55, 80
3, 34559, Note_on_c, 2, 55, 0
3, 34560, Note_on_c, 2, 60, 80
3, 35279, Note_on_c, 2, 60, 0
3, 35280, Note_on_c, 2, 60, 80
3, 35519, Note_on_c, 2, 60, 0
3, 35520, Note_on_c, 2, 57, 80
3, 36239, Note_on_c, 2, 57, 0
3, 36240, Note_on_c, 2, 57, 80
3, 36479, Note_on_c, 2, 57, 0
3, 36480, Note_on_c, 2, 53, 80
3, 37199, Note_on_c, 2, 53, 0
3, 37200, Note_on_c, 2, 53, 80
3, 37439, Note_on_c, 2, 53, 0
3, 37440, Note_on_c, 2, 55, 80
3, 38159, Note_on_c, 2, 55, 0
3, 38160, Note_on_c, 2, 55, 80
3, 38399, Note_on_c, 2, 55, 0
3, 38400, Note_on_c, 2, 60, 80
3, 39119, Note_on_c, 2, 60, 0
3, 39120, Note_on_c, 2, 60, 80
3, 39359, Note_on_c, 2, 60, 0
3, 39360, Note_on_c, 2, 57, 80
3, 40079, Note_on_c, 2, 57, 0
3, 40080, Note_on_c, 2, 57, 80
3, 40319, Note_on_c, 2, 57, 0
3, 40320, Note_on_c, 2, 53, 80
3, 41039, Note_on_c, 2, 53, 0
3, 41040, Note_on_c, 2, 53, 80
3, 41279, Note_on_c, 2, 53, 0
3, 41280, Note_on_c, 2, 55, 80
3, 41999, Note_on_c, 2, 55, 0
3, 42000, Note_on_c, 2, 55, 80
3, 42239, Note_on_c, 2, 55, 0
3, 42240, Note_on_c, 2, 60, 80
3, 42959, Note_on_c, 2, 60, 0
3, 42960, Note_on_c, 2, 60, 80
3, 43199, Note_on_c, 2, 60, 0
3, 43200, Note_on_c, 2, 57, 80
3, 43919, Note_on_c, 2, 57, 0
3, 43920, Note_on_c, 2, 57, 80
3, 44159, Note_on_c, 2, 57, 0
3, 44160, Note_on_c, 2, 53, 80
3, 44879, Note_on_c, 2, 53, 0
3, 44880, Note_on_c, 2, 53, 80
3, 45119, Note_on_c, 2, 53, 0
3, 45120, Note_on_c, 2, 55, 80
3, 45839, Note_on_c, 2, 55, 0
3, 45840, Note_on_c, 2, 55, 80
3, 46079, Note_on_c, 2, 55, 0
3, 46080, Note_on_c, 2, 60, 80
3, 46799, Note_on_c, 2, 60, 0
3, 46800, Note_on_c, 2, 60, 80
3, 47039, Note_on_c, 2, 60, 0
3, 47040, Note_on_c, 2, 57, 80
3, 47759, Note_on_c, 2, 57, 0
3, 47760, Note_on_c, 2, 57, 80
3, 47999, Note_on_c, 2, 57, 0
3, 48000, Note_on_c, 2, 53, 80
3, 48719, Note_on_c, 2, 53, 0
3, 48720, Note_on_c, 2, 53, 80
3, 48959, Note_on_c, 2, 53, 0
3, 48960, Note_on_c, 2, 55, 80
3, 49679, Note_on_c, 2, 55, 0
3, 49680, Note_on_c, 2, 55, 80
3, 49919, Note_on_c, 2, 55, 0
3, 49920, Note_on_c, 2, 60, 80
3, 50639, Note_on_c, 2, 60, 0
3, 50640, Note_on_c, 2, 60, 80
3, 50879, Note_on_c, 2, 60, 0
3, 50880, Note_on_c, 2, 57, 80
3, 51599, Note_on_c, 2, 57, 0
3, 51600, Note_on_c, 2, 57, 80
3, 51839, Note_on_c, 2, 57, 0
3, 51840, Note_on_c, 2, 53, 80
3, 52559, Note_on_c, 2, 53, 0
3, 52560, Note_on_c, 2, 53, 80
3, 52799, Note_on_c, 2, 53, 0
3, 52800, Note_on_c, 2, 55, 80
3, 53519, Note_on_c, 2, 55, 0
3, 53520, Note_on_c, 2, 55, 80
3, 53759, Note_on_c, 2, 55, 0
3, 53760, Note_on_c, 2, 60, 80
3, 54479, Note_on_c, 2, 60, 0
3, 54480, Note_on_c, 2, 60, 80
3, 54719, Note_on_c, 2, 60, 0
3, 54720, Note_on_c, 2, 57, 80
3, 55439, Note_on_c, 2, 57, 0
3, 55440, Note_on_c, 2, 57, 80
3, 55679, Note_on_c, 2, 57, 0
3, 55680, Note_on_c, 2, 53, 80
3, 56399, Note_on_c, 2, 53, 0
3, 56400, Note_on_c, 2, 53, 80
3, 56639, Note_on_c, 2, 53, 0
3, 56640, Note_on_c, 2, 55, 80
3, 57359, Note_on_c, 2, 55, 0
3, 57360, Note_on_c, 2, 55, 80
3, 57599, Note_on_c, 2, 55, 0
3, 57600, Note_on_c, 2, 60, 80
3, 58319, Note_on_c, 2, 60, 0
3, 58320, Note_on_c, 2, 60, 80
3, 58559, Note_on_c, 2, 60, 0
3, 58560, Note_on_c, 2, 57, 80
3, 59279, Note_on_c, 2, 57, 0
3, 59280, Note_on_c, 2, 57, 80
3, 59519, Note_on_c, 2, 57, 0
3, 59520, Note_on_c, 2, 53, 80
3, 60239, Note_on_c, 2, 53, 0
3, 60240, Note_on_c, 2, 53, 80
3, 60479, Note_on_c, 2, 53, 0
3, 60480, Note_on_c, 2, 55, 80
3, 61199, Note_on_c, 2, 55, 0
3, 61200, Note_on_c, 2, 55, 80
3, 61439, Note_on_c, 2, 55, 0
3, 61440, Note_on_c, 2, 60, 80
3, 62159, Note_on_c, 2, 60, 0
3, 62160, Note_on_c, 2, 60, 80
3, 62399, Note_on_c, 2, 60, 0
3, 62400, Note_on_c, 2, 57, 80
3, 63119, Note_on_c, 2, 57, 0
3, 63120, Note_on_c, 2, 57, 80
3, 63359, Note_on_c, 2, 57, 0
3, 63360, Note_on_c, 2, 53, 80
3, 64079, Note_on_c, 2, 53, 0
3, 64080, Note_on_c, 2, 53, 80
3, 64319, Note_on_c, 2, 53, 0
3, 64320, Note_on_c, 2, 55, 80
3, 65039, Note_on_c, 2, 55, 0
3, 65040, Note_on_c, 2, 55, 80
3, 65279, Note_on_c, 2, 55, 0
3, 65280, Note_on_c, 2, 60, 80
3, 65999, Note_on_c, 2, 60, 0
3, 66000, Note_on_c, 2, 60, 80
3, 66239, Note_on_c, 2, 60, 0
3, 66240, Note_on_c, 2, 57, 80
3, 66959, Note_on_c, 2, 57, 0
3, 66960, Note_on_c, 2, 57, 80
3, 67199, Note_on_c, 2, 57, 0
3, 67200, Note_on_c, 2, 53, 80
3, 67919, Note_on_c, 2, 53, 0
3, 67920, Note_on_c, 2, 53, 80
3, 68159, Note_on_c, 2, 53, 0
3, 68160, Note_on_c, 2, 55, 80
3, 68879, Note_on_c, 2, 55, 0
3, 68880, Note_on_c, 2, 55, 80
3, 69119, Note_on_c, 2, 55, 0
3, 69120, Note_on_c, 2, 60, 80
3, 69839, Note_on_c, 2, 60, 0
3, 69840, Note_on_c, 2, 60, 80
3, 70079, Note_on_c, 2, 60, 0
3, 70080, Note_on_c, 2, 57, 80
3, 70799, Note_on_c, 2, 57, 0
3, 70800, Note_on_c, 2, 57, 80
3, 71039, Note_on_c, 2, 57, 0
3, 71040, Note_on_c, 2, 53, 80
3, 71759, Note_on_c, 2, 53, 0
3, 71760, Note_on_c, 2, 53, 80
3, 71999, Note_on_c, 2, 53, 0
3, 72000, Note_on_c, 2, 55, 80
3, 72719, Note_on_c, 2, 55, 0
3, 72720, Note_on_c, 2, 55, 80
3, 72959, Note_on_c, 2, 55, 0
3, 72960, Note_on_c, 2, 60, 80
3, 73679, Note_on_c, 2, 60, 0
3, 73680, Note_on_c, 2, 60, 80
3, 73919, Note_on_c, 2, 60, 0
3, 73920, Note_on_c, 2, 57, 80
3, 74639, Note_on_c, 2, 57, 0
3, 74640, Note_on_c, 2, 57, 80
3, 74879, Note_on_c, 2, 57, 0
3, 74880, Note_on_c, 2, 53, 80
3, 75599, Note_on_c, 2, 53, 0
3, 75600, Note_on_c, 2, 53, 80
3, 75839, Note_on_c, 2, 53, 0
3, 75840, Note_on_c, 2, 55, 80
3, 76559, Note_on_c, 2, 55, 0
3, 76560, Note_on_c, 2, 55, 80
3, 76799, Note_on_c, 2, 55, 0
3, 76800, Note_on_c, 2, 60, 80
3, 77519, Note_on_c, 2, 60, 0
3, 77520, Note_on_c, 2, 60, 80
3, 77759, Note_on_c, 2, 60, 0
3, 77760, Note_on_c, 2, 57, 80
3, 78479, Note_on_c, 2, 57, 0
3, 78480, Note_on_c, 2, 57, 80
3, 78719, Note_on_c, 2, 57, 0
3, 78720, Note_on_c, 2, 53, 80
3, 79439, Note_on_c, 2, 53, 0
3, 79440, Note_on_c, 2, 53, 80
3, 79679, Note_on_c, 2, 53, 0
3, 79680, Note_on_c, 2, 55, 80
3, 80399, Note_on_c, 2, 55, 0
3, 80400, Note_on_c, 2, 55, 80
3, 80639, Note_on_c, 2, 55, 0
3, 80640, Note_on_c, 2, 60, 80
3, 81359, Note_on_c, 2, 60, 0
3, 81360, Note_on_c, 2, 60, 80
3, 81599, Note_on_c, 2, 60, 0
3, 81600, Note_on_c, 2, 57, 80
3, 82319, Note_on_c, 2, 57, 0
3, 82320, Note_on_c, 2, 57, 80
3, 82559, Note_on_c, 2, 57, 0
3, 82560, Note_on_c, 2, 53, 80
3, 83279, Note_on_c, 2, 53, 0
3, 83280, Note_on_c, 2, 53, 80
3, 83519, Note_on_c, 2, 53, 0
3, 83520, Note_on_c, 2, 55, 80
3, 84239, Note_on_c, 2, 55, 0
3, 84240, Note_on_c, 2, 55, 80
3, 84479, Note_on_c, 2, 55, 0
3, 84480, Note_on_c, 2, 60, 80
3, 85199, Note_on_c, 2, 60, 0
3, 85200, Note_on_c, 2, 60, 80
3, 85439, Note_on_c, 2, 60, 0
3, 85440, Note_on_c, 2, 57, 80
3, 86159, Note_on_c, 2, 57, 0
3, 86160, Note_on_c, 2, 57, 80
3, 86399, Note_on_c, 2, 57, 0
3, 86400, Note_on_c, 2, 53, 80
3, 87119, Note_on_c, 2, 53, 0
3, 87120, Note_on_c, 2, 53, 80
3, 87359, Note_on_c, 2, 53, 0
3, 87360, Note_on_c, 2, 55, 80
3, 88079, Note_on_c, 2, 55, 0
3, 88080, Note_on_c, 2, 55, 80
3, 88319, Note_on_c, 2, 55, 0
3, 88320, Note_on_c, 2, 60, 80
3, 89039, Note_on_c, 2, 60, 0
3, 89040, Note_on_c, 2, 60, 80
3, 89279, Note_on_c, 2, 60, 0
3, 89280, Note_on_c, 2, 57, 80
3, 89999, Note_on_c, 2, 57, 0
3, 90000, Note_on_c, 2, 57, 80
3, 90239, Note_on_c, 2, 57, 0
3, 90240, Note_on_c, 2, 53, 80
3, 90959, Note_on_c, 2, 53, 0
3, 90960, Note_on_c, 2, 53, 80
3, 91199, Note_on_c, 2, 53, 0
3, 91200, Note_on_c, 2, 55, 80
3, 91919, Note_on_c, 2, 55, 0
3, 91920, Note_on_c, 2, 55, 80
3, 92159, Note_on_c, 2, 55, 0
3, 92160, Note_on_c, 2, 53, 80
3, 92879, Note_on_c, 2, 53, 0
3, 92880, Note_on_c, 2, 53, 80
3, 93119, Note_on_c, 2, 53, 0
3, 93120, Note_on_c, 2, 55, 80
3, 93839, Note_on_c, 2, 55, 0
3, 93840, Note_on_c, 2, 55, 80
3, 94079, Note_on_c, 2, 55, 0
3, 94080, Note_on_c, 2, 60, 80
3, 94799, Note_on_c, 2, 60, 0
3, 94800, Note_on_c, 2, 60, 80
3, 95039, Note_on_c, 2, 60, 0
3, 95040, Note_on_c, 2, 57, 80
3, 95759, Note_on_c, 2, 57, 0
3, 95760, Note_on_c, 2, 57, 80
3, 95999, Note_on_c, 2, 57, 0
3, 99840, Note_on_c, 2, 60, 80
3, 100559, Note_on_c, 2, 60, 0
3, 100560, Note_on_c, 2, 60, 80
3, 100799, Note_on_c, 2, 60, 0
3, 100800, Note_on_c, 2, 57, 80
3, 101519, Note_on_c, 2, 57, 0
3, 101520, Note_on_c, 2, 57, 80
3, 101759, Note_on_c, 2, 57, 0
3, 101760, Note_on_c, 2, 53, 80
3, 102479, Note_on_c, 2, 53, 0
3, 102480, Note_on_c, 2, 53, 80
3, 102719, Note_on_c, 2, 53, 0
3, 102720, Note_on_c, 2, 55, 80
3, 103439, Note_on_c, 2, 55, 0
3, 103440, Note_on_c, 2, 55, 80
3, 103679, Note_on_c, 2, 55, 0
3, 103680, Note_on_c, 2, 60, 80
3, 104399, Note_on_c, 2, 60, 0
3, 104400, Note_on_c, 2, 60, 80
3, 104639, Note_on_c, 2, 60, 0
3, 104640, Note_on_c, 2, 57, 80
3, 105359, Note_on_c, 2, 57, 0
3, 105360, Note_on_c, 2, 57, 80
3, 105599, Note_on_c, 2, 57, 0
3, 105600, Note_on_c, 2, 53, 80
3, 106319, Note_on_c, 2, 53, 0
3, 106320, Note_on_c, 2, 53, 80
3, 106559, Note_on_c, 2, 53, 0
3, 106560, Note_on_c, 2, 55, 80
3, 107519, Note_on_c, 2, 55, 0
3, 109440, Key_signature, 0, "major"
3, 109440, Note_on_c, 2, 48, 80
3, 110159, Note_on_c, 2, 48, 0
3, 110160, Note_on_c, 2, 52, 80
3, 110999, Note_on_c, 2, 52, 0
3, 111120, Note_on_c, 2, 52, 80
3, 111359, Note_on_c, 2, 52, 0
3, 111360, Note_on_c, 2, 53, 80
3, 112199, Note_on_c, 2, 53, 0
3, 112200, Note_on_c, 2, 55, 80
3, 112799, Note_on_c, 2, 55, 0
3, 112800, Note_on_c, 2, 55, 80
3, 113279, Note_on_c, 2, 55, 0
3, 113280, Note_on_c, 2, 48, 80
3, 113999, Note_on_c, 2, 48, 0
3, 114000, Note_on_c, 2, 52, 80
3, 114839, Note_on_c, 2, 52, 0
3, 114960, Note_on_c, 2, 52, 80
3, 115199, Note_on_c, 2, 52, 0
3, 115200, Note_on_c, 2, 53, 80
3, 116039, Note_on_c, 2, 53, 0
3, 116040, Note_on_c, 2, 55, 80
3, 116879, Note_on_c, 2, 55, 0
3, 117120, Note_on_c, 2, 48, 80
3, 117839, Note_on_c, 2, 48, 0
3, 117840, Note_on_c, 2, 52, 80
3, 118679, Note_on_c, 2, 52, 0
3, 118800, Note_on_c, 2, 52, 80
3, 119039, Note_on_c, 2, 52, 0
3, 119040, Note_on_c, 2, 53, 80
3, 119879, Note_on_c, 2, 53, 0
3, 119880, Note_on_c, 2, 55, 80
3, 120479, Note_on_c, 2, 55, 0
3, 120480, Note_on_c, 2, 55, 80
3, 120959, Note_on_c, 2, 55, 0
3, 120960, Note_on_c, 2, 48, 80
3, 121679, Note_on_c, 2, 48, 0
3, 121680, Note_on_c, 2, 52, 80
3, 122519, Note_on_c, 2, 52, 0
3, 122640, Note_on_c, 2, 52, 80
3, 122879, Note_on_c, 2, 52, 0
3, 122880, Note_on_c, 2, 53, 80
3, 123719, Note_on_c, 2, 53, 0
3, 123720, Note_on_c, 2, 55, 80
3, 124559, Note_on_c, 2, 55, 0
3, 124800, Note_on_c, 2, 48, 80
3, 125519, Note_on_c, 2, 48, 0
3, 125520, Note_on_c, 2, 52, 80
3, 126359, Note_on_c, 2, 52, 0
3, 126480, Note_on_c, 2, 52, 80
3, 126719, Note_on_c, 2, 52, 0
3, 126720, Note_on_c, 2, 53, 80
3, 127559, Note_on_c, 2, 53, 0
3, 127560, Note_on_c, 2, 55, 80
3, 128159, Note_on_c, 2, 55, 0
3, 128160, Note_on_c, 2, 55, 80
3, 128639, Note_on_c, 2, 55, 0
3, 128640, Note_on_c, 2, 48, 80
3, 129359, Note_on_c, 2, 48, 0
3, 129360, Note_on_c, 2, 52, 80
3, 130199, Note_on_c, 2, 52, 0
3, 130320, Note_on_c, 2, 52, 80
3, 130559, Note_on_c, 2, 52, 0
3, 130560, Note_on_c, 2, 53, 80
3, 131399, Note_on_c, 2, 53, 0
3, 131400, Note_on_c, 2, 55, 80
3, 132239, Note_on_c, 2, 55, 0
3, 132480, Note_on_c, 2, 48, 80
3, 133199, Note_on_c, 2, 48, 0
3, 133200, Note_on_c, 2, 52, 80
3, 134039, Note_on_c, 2, 52, 0
3, 134160, Note_on_c, 2, 52, 80
3, 134399, Note_on_c, 2, 52, 0
3, 134400, Note_on_c, 2, 52, 80
3, 134639, Note_on_c, 2, 52, 0
3, 134640, Note_on_c, 2, 52, 80
3, 135119, Note_on_c, 2, 52, 0
3, 135120, Note_on_c, 2, 53, 80
3, 135599, Note_on_c, 2, 53, 0
3, 135600, Note_on_c, 2, 57, 80
3, 136079, Note_on_c, 2, 57, 0
3, 136080, Note_on_c, 2, 60, 80
3, 136319, Note_on_c, 2, 60, 0
3, 136320, Note_on_c, 2, 48, 80
3, 137039, Note_on_c, 2, 48, 0
3, 137040, Note_on_c, 2, 52, 80
3, 137879, Note_on_c, 2, 52, 0
3, 138000, Note_on_c, 2, 52, 80
3, 138239, Note_on_c, 2, 52, 0
3, 138240, Note_on_c, 2, 53, 80
3, 139079, Note_on_c, 2, 53, 0
3, 139080, Note_on_c, 2, 55, 80
3, 139919, Note_on_c, 2, 55, 0
3, 140160, Note_on_c, 2, 48, 80
3, 140879, Note_on_c, 2, 48, 0
3, 140880, Note_on_c, 2, 52, 80
3, 141719, Note_on_c, 2, 52, 0
3, 141840, Note_on_c, 2, 52, 80
3, 141959, Note_on_c, 2, 52, 0
3, 141960, Note_on_c, 2, 52, 80
3, 142079, Note_on_c, 2, 52, 0
3, 142080, Note_on_c, 2, 52, 80
3, 142319, Note_on_c, 2, 52, 0
3, 142320, Note_on_c, 2, 52, 80
3, 142799, Note_on_c, 2, 52, 0
3, 142800, Note_on_c, 2, 53, 80
3, 143279, Note_on_c, 2, 53, 0
3, 143280, Note_on_c, 2, 57, 80
3, 143759, Note_on_c, 2, 57, 0
3, 143760, Note_on_c, 2, 60, 80
3, 143999, Note_on_c, 2, 60, 0
3, 144000, Note_on_c, 2, 60, 80
3, 144719, Note_on_c, 2, 60, 0
3, 144720, Note_on_c, 2, 64, 80
3, 145559, Note_on_c, 2, 64, 0
3, 145680, Note_on_c, 2, 64, 80
3, 145799, Note_on_c, 2, 64, 0
3, 145800, Note_on_c, 2, 64, 80
3, 145919, Note_on_c, 2, 64, 0
3, 145920, Note_on_c, 2, 55, 80
3, 146759, Note_on_c, 2, 55, 0
3, 146760, Note_on_c, 2, 55, 80
3, 147599, Note_on_c, 2, 55, 0
3, 147840, Note_on_c, 2, 60, 80
3, 148559, Note_on_c, 2, 60, 0
3, 148560, Note_on_c, 2, 64, 80
3, 149399, Note_on_c, 2, 64, 0
3, 149520, Note_on_c, 2, 64, 80
3, 149639, Note_on_c, 2, 64, 0
3, 149640, Note_on_c, 2, 64, 80
3, 149759, Note_on_c, 2, 64, 0
3, 149760, Note_on_c, 2, 65, 80
3, 150599, Note_on_c, 2, 65, 0
3, 150600, Note_on_c, 2, 67, 80
3, 151199, Note_on_c, 2, 67, 0
3, 151200, Note_on_c, 2, 55, 80
3, 151679, Note_on_c, 2, 55, 0
3, 151680, Note_on_c, 2, 60, 80
3, 152399, Note_on_c, 2, 60, 0
3, 152400, Note_on_c, 2, 64, 80
3, 153239, Note_on_c, 2, 64, 0
3, 153360, Note_on_c, 2, 64, 80
3, 153479, Note_on_c, 2, 64, 0
3, 153480, Note_on_c, 2, 64, 80
3, 153599, Note_on_c, 2, 64, 0
3, 153600, Note_on_c, 2, 65, 80
3, 154439, Note_on_c, 2, 65, 0
3, 154440, Note_on_c, 2, 67, 80
3, 155279, Note_on_c, 2, 67, 0
3, 155520, Note_on_c, 2, 60, 80
3, 156239, Note_on_c, 2, 60, 0
3, 156240, Note_on_c, 2, 64, 80
3, 157079, Note_on_c, 2, 64, 0
3, 157200, Note_on_c, 2, 64, 80
3, 157319, Note_on_c, 2, 64, 0
3, 157320, Note_on_c, 2, 64, 80
3, 157439, Note_on_c, 2, 64, 0
3, 157440, Note_on_c, 2, 65, 80
3, 158279, Note_on_c, 2, 65, 0
3, 158280, Note_on_c, 2, 67, 80
3, 158879, Note_on_c, 2, 67, 0
3, 158880, Note_on_c, 2, 55, 80
3, 159359, Note_on_c, 2, 55, 0
3, 159360, Note_on_c, 2, 60, 80
3, 160079, Note_on_c, 2, 60, 0
3, 160080, Note_on_c, 2, 64, 80
3, 160919, Note_on_c, 2, 64, 0
3, 161040, Note_on_c, 2, 64, 80
3, 161159, Note_on_c, 2, 64, 0
3, 161160, Note_on_c, 2, 64, 80
3, 161279, Note_on_c, 2, 64, 0
3, 161280, Note_on_c, 2, 65, 80
3, 162119, Note_on_c, 2, 65, 0
3, 162120, Note_on_c, 2, 67, 80
3, 162719, Note_on_c, 2, 67, 0
3, 162720, Note_on_c, 2, 55, 80
3, 163199, Note_on_c, 2, 55, 0
3, 167040, Note_on_c, 2, 48, 80
3, 167759, Note_on_c, 2, 48, 0
3, 167760, Note_on_c, 2, 52, 80
3, 168599, Note_on_c, 2, 52, 0
3, 168720, Note_on_c, 2, 52, 80
3, 168959, Note_on_c, 2, 52, 0
3, 168960, Note_on_c, 2, 53, 80
3, 169799, Note_on_c, 2, 53, 0
3, 169800, Note_on_c, 2, 55, 80
3, 170639, Note_on_c, 2, 55, 0
3, 170880, Note_on_c, 2, 48, 80
3, 171599, Note_on_c, 2, 48, 0
3, 171600, Note_on_c, 2, 52, 80
3, 172439, Note_on_c, 2, 52, 0
3, 172560, Note_on_c, 2, 52, 80
3, 172799, Note_on_c, 2, 52, 0
3, 172800, Note_on_c, 2, 53, 80
3, 173639, Note_on_c, 2, 53, 0
3, 173640, Note_on_c, 2, 55, 80
3, 174479, Note_on_c, 2, 55, 0
3, 174720, Note_on_c, 2, 48, 80
3, 175439, Note_on_c, 2, 48, 0
3, 175440, Note_on_c, 2, 52, 80
3, 176279, Note_on_c, 2, 52, 0
3, 176400, Note_on_c, 2, 52, 80
3, 176639, Note_on_c, 2, 52, 0
3, 176640, Note_on_c, 2, 53, 80
3, 177479, Note_on_c, 2, 53, 0
3, 177480, Note_on_c, 2, 55, 80
3, 178319, Note_on_c, 2, 55, 0
3, 178560, Key_signature, 0, "major"
3, 184320, Note_on_c, 2, 60, 80
3, 185279, Note_on_c, 2, 60, 0
3, 185280, Note_on_c, 2, 57, 80
3, 186239, Note_on_c, 2, 57, 0
3, 186240, Note_on_c, 2, 55, 80
3, 187199, Note_on_c, 2, 55, 0
3, 187200, Note_on_c, 2, 53, 80
3, 188159, Note_on_c, 2, 53, 0
3, 188160, Note_on_c, 2, 60, 80
3, 189119, Note_on_c, 2, 60, 0
3, 189120, Note_on_c, 2, 57, 80
3, 190079, Note_on_c, 2, 57, 0
3, 190080, Note_on_c, 2, 55, 80
3, 191039, Note_on_c, 2, 55, 0
3, 191040, Note_on_c, 2, 53, 80
3, 191999, Note_on_c, 2, 53, 0
3, 192000, Note_on_c, 2, 60, 80
3, 192959, Note_on_c, 2, 60, 0
3, 192960, Note_on_c, 2, 57, 80
3, 193919, Note_on_c, 2, 57, 0
3, 193920, Note_on_c, 2, 55, 80
3, 194879, Note_on_c, 2, 55, 0
3, 194880, Note_on_c, 2, 53, 80
3, 195839, Note_on_c, 2, 53, 0
3, 195840, Note_on_c, 2, 60, 80
3, 196799, Note_on_c, 2, 60, 0
3, 196800, Note_on_c, 2, 57, 80
3, 197759, Note_on_c, 2, 57, 0
3, 197760, Note_on_c, 2, 55, 80
3, 198719, Note_on_c, 2, 55, 0
3, 198720, Note_on_c, 2, 53, 80
3, 199679, Note_on_c, 2, 53, 0
3, 199680, Note_on_c, 2, 60, 80
3, 200639, Note_on_c, 2, 60, 0
3, 200640, Note_on_c, 2, 57, 80
3, 201599, Note_on_c, 2, 57, 0
3, 201600, Note_on_c, 2, 55, 80
3, 202559, Note_on_c, 2, 55, 0
3, 202560, Note_on_c, 2, 53, 80
3, 203519, Note_on_c, 2, 53, 0
3, 203520, Note_on_c, 2, 60, 80
3, 204479, Note_on_c, 2, 60, 0
3, 204480, Note_on_c, 2, 57, 80
3, 205439, Note_on_c, 2, 57, 0
3, 205440, Note_on_c, 2, 55, 80
3, 206399, Note_on_c, 2, 55, 0
3, 206400, Note_on_c, 2, 53, 80
3, 207359, Note_on_c, 2, 53, 0
3, 207360, Note_on_c, 2, 60, 80
3, 208319, Note_on_c, 2, 60, 0
3, 208320, Note_on_c, 2, 57, 80
3, 209279, Note_on_c, 2, 57, 0
3, 209280, Note_on_c, 2, 55, 80
3, 210239, Note_on_c, 2, 55, 0
3, 210240, Note_on_c, 2, 53, 80
3, 211199, Note_on_c, 2, 53, 0
3, 211200, Note_on_c, 2, 60, 80
3, 212159, Note_on_c, 2, 60, 0
3, 212160, Note_on_c, 2, 57, 80
3, 213119, Note_on_c, 2, 57, 0
3, 213120, Note_on_c, 2, 55, 80
3, 214079, Note_on_c, 2, 55, 0
3, 214080, Note_on_c, 2, 53, 80
3, 215039, Note_on_c, 2, 53, 0
3, 215040, Note_on_c, 2, 60, 80
3, 215999, Note_on_c, 2, 60, 0
3, 216000, Note_on_c, 2, 57, 80
3, 216959, Note_on_c, 2, 57, 0
3, 216960, Note_on_c, 2, 55, 80
3, 217919, Note_on_c, 2, 55, 0
3, 217920, Note_on_c, 2, 53, 80
3, 218879, Note_on_c, 2, 53, 0
3, 218880, Note_on_c, 2, 60, 80
3, 219839, Note_on_c, 2, 60, 0
3, 219840, Note_on_c, 2, 57, 80
3, 220799, Note_on_c, 2, 57, 0
3, 220800, Note_on_c, 2, 55, 80
3, 221759, Note_on_c, 2, 55, 0
3, 221760, Note_on_c, 2, 53, 80
3, 222719, Note_on_c, 2, 53, 0
3, 228480, Note_on_c, 2, 60, 80
3, 229439, Note_on_c, 2, 60, 0
3, 229440, Note_on_c, 2, 57, 80
3, 230399, Note_on_c, 2, 57, 0
3, 230400, Note_on_c, 2, 55, 80
3, 231359, Note_on_c, 2, 55, 0
3, 231360, Note_on_c, 2, 53, 80
3, 232319, Note_on_c, 2, 53, 0
3, 232320, Note_on_c, 2, 60, 80
3, 233279, Note_on_c, 2, 60, 0
3, 233280, Note_on_c, 2, 57, 80
3, 234239, Note_on_c, 2, 57, 0
3, 234240, Note_on_c, 2, 55, 80
3, 235199, Note_on_c, 2, 55, 0
3, 235200, Note_on_c, 2, 53, 80
3, 236159, Note_on_c, 2, 53, 0
3, 236160, Note_on_c, 2, 60, 80
3, 237119, Note_on_c, 2, 60, 0
3, 237120, Note_on_c, 2, 57, 80
3, 238079, Note_on_c, 2, 57, 0
3, 238080, Note_on_c, 2, 55, 80
3, 239039, Note_on_c, 2, 55, 0
3, 239040, Note_on_c, 2, 53, 80
3, 239999, Note_on_c, 2, 53, 0
3, 240000, Note_on_c, 2, 60, 80
3, 240959, Note_on_c, 2, 60, 0
3, 240960, Note_on_c, 2, 57, 80
3, 241919, Note_on_c, 2, 57, 0
3, 241920, Note_on_c, 2, 55, 80
3, 242879, Note_on_c, 2, 55, 0
3, 242880, Note_on_c, 2, 53, 80
3, 243839, Note_on_c, 2, 53, 0
3, 245760, Note_on_c, 2, 60, 80
3, 246239, Note_on_c, 2, 60, 0
3, 246480, Note_on_c, 2, 60, 80
3, 246719, Note_on_c, 2, 60, 0
3, 246720, Note_on_c, 2, 60, 80
3, 247199, Note_on_c, 2, 60, 0
3, 247440, Note_on_c, 2, 60, 80
3, 247679, Note_on_c, 2, 60, 0
3, 247680, Note_on_c, 2, 57, 80
3, 248159, Note_on_c, 2, 57, 0
3, 248400, Note_on_c, 2, 57, 80
3, 248639, Note_on_c, 2, 57, 0
3, 248640, Note_on_c, 2, 57, 80
3, 249119, Note_on_c, 2, 57, 0
3, 249360, Note_on_c, 2, 57, 80
3, 249599, Note_on_c, 2, 57, 0
3, 249600, Note_on_c, 2, 53, 80
3, 250079, Note_on_c, 2, 53, 0
3, 250320, Note_on_c, 2, 53, 80
3, 250559, Note_on_c, 2, 53, 0
3, 250560, Note_on_c, 2, 53, 80
3, 251039, Note_on_c, 2, 53, 0
3, 251280, Note_on_c, 2, 53, 80
3, 251519, Note_on_c, 2, 53, 0
3, 251520, Note_on_c, 2, 55, 80
3, 251999, Note_on_c, 2, 55, 0
3, 252240, Note_on_c, 2, 55, 80
3, 252479, Note_on_c, 2, 55, 0
3, 252480, Note_on_c, 2, 55, 80
3, 252959, Note_on_c, 2, 55, 0
3, 253200, Note_on_c, 2, 55, 80
3, 253439, Note_on_c, 2, 55, 0
3, 253440, Note_on_c, 2, 60, 80
3, 253919, Note_on_c, 2, 60, 0
3, 254160, Note_on_c, 2, 60, 80
3, 254399, Note_on_c, 2, 60, 0
3, 254400, Note_on_c, 2, 60, 80
3, 254879, Note_on_c, 2, 60, 0
3, 255120, Note_on_c, 2, 60, 80
3, 255359, Note_on_c, 2, 60, 0
3, 255360, Note_on_c, 2, 57, 80
3, 255839, Note_on_c, 2, 57, 0
3, 256080, Note_on_c, 2, 57, 80
3, 256319, Note_on_c, 2, 57, 0
3, 256320, Note_on_c, 2, 57, 80
3, 256799, Note_on_c, 2, 57, 0
3, 257040, Note_on_c, 2, 57, 80
3, 257279, Note_on_c, 2, 57, 0
3, 257280, Note_on_c, 2, 53, 80
3, 257759, Note_on_c, 2, 53, 0
3, 258000, Note_on_c, 2, 53, 80
3, 258239, Note_on_c, 2, 53, 0
3, 258240, Note_on_c, 2, 53, 80
3, 258719, Note_on_c, 2, 53, 0
3, 258960, Note_on_c, 2, 53, 80
3, 259199, Note_on_c, 2, 53, 0
3, 259200, Note_on_c, 2, 55, 80
3, 259679, Note_on_c, 2, 55, 0
3, 259920, Note_on_c, 2, 55, 80
3, 260159, Note_on_c, 2, 55, 0
3, 260160, Note_on_c, 2, 55, 80
3, 260639, Note_on_c, 2, 55, 0
3, 260880, Note_on_c, 2, 55, 80
3, 261119, Note_on_c, 2, 55, 0
3, 261120, Note_on_c, 2, 60, 80
3, 261599, Note_on_c, 2, 60, 0
3, 261840, Note_on_c, 2, 60, 80
3, 262079, Note_on_c, 2, 60, 0
3, 262080, Note_on_c, 2, 60, 80
3, 262559, Note_on_c, 2, 60, 0
3, 262800, Note_on_c, 2, 60, 80
3, 263039, Note_on_c, 2, 60, 0
3, 263040, Note_on_c, 2, 57, 80
3, 263519, Note_on_c, 2, 57, 0
3, 263760, Note_on_c, 2, 57, 80
3, 263999, Note_on_c, 2, 57, 0
3, 264000, Note_on_c, 2, 57, 80
3, 264479, Note_on_c, 2, 57, 0
3, 264720, Note_on_c, 2, 57, 80
3, 264959, Note_on_c, 2, 57, 0
3, 264960, Note_on_c, 2, 53, 80
3, 265439, Note_on_c, 2, 53, 0
3, 265680, Note_on_c, 2, 53, 80
3, 265919, Note_on_c, 2, 53, 0
3, 265920, Note_on_c, 2, 53, 80
3, 266399, Note_on_c, 2, 53, 0
3, 266640, Note_on_c, 2, 53, 80
3, 266879, Note_on_c, 2, 53, 0
3, 266880, Note_on_c, 2, 55, 80
3, 267359, Note_on_c, 2, 55, 0
3, 267600, Note_on_c, 2, 55, 80
3, 267839, Note_on_c, 2, 55, 0
3, 267840, Note_on_c, 2, 55, 80
3, 268319, Note_on_c, 2, 55, 0
3, 268560, Note_on_c, 2, 55, 80
3, 268799, Note_on_c, 2, 55, 0
3, 268800, Note_on_c, 2, 60, 80
3, 269279, Note_on_c, 2, 60, 0
3, 269520, Note_on_c, 2, 60, 80
3, 269759, Note_on_c, 2, 60, 0
3, 269760, Note_on_c, 2, 60, 80
3, 270239, Note_on_c, 2, 60, 0
3, 270480, Note_on_c, 2, 60, 80
3, 270719, Note_on_c, 2, 60, 0
3, 270720, Note_on_c, 2, 57, 80
3, 271199, Note_on_c, 2, 57, 0
3, 271440, Note_on_c, 2, 57, 80
3, 271679, Note_on_c, 2, 57, 0
3, 271680, Note_on_c, 2, 57, 80
3, 272159, Note_on_c, 2, 57, 0
3, 272400, Note_on_c, 2, 57, 80
3, 272639, Note_on_c, 2, 57, 0
3, 272640, Note_on_c, 2, 53, 80
3, 273119, Note_on_c, 2, 53, 0
3, 273360, Note_on_c, 2, 53, 80
3, 273599, Note_on_c, 2, 53, 0
3, 273600, Note_on_c, 2, 53, 80
3, 274079, Note_on_c, 2, 53, 0
3, 274320, Note_on_c, 2, 53, 80
3, 274559, Note_on_c, 2, 53, 0
3, 274560, Note_on_c, 2, 55, 80
3, 275039, Note_on_c, 2, 55, 0
3, 275280, Note_on_c, 2, 55, 80
3, 275519, Note_on_c, 2, 55, 0
3, 275520, Note_on_c, 2, 55, 80
3, 275999, Note_on_c, 2, 55, 0
3, 276240, Note_on_c, 2, 55, 80
3, 276479, Note_on_c, 2, 55, 0
3, 276480, Note_on_c, 2, 60, 80
3, 276959, Note_on_c, 2, 60, 0
3, 277280, Note_on_c, 2, 60, 80
3, 277439, Note_on_c, 2, 60, 0
3, 277440, Note_on_c, 2, 60, 80
3, 277919, Note_on_c, 2, 60, 0
3, 278240, Note_on_c, 2, 60, 80
3, 278399, Note_on_c, 2, 60, 0
3, 278400, Note_on_c, 2, 57, 80
3, 278879, Note_on_c, 2, 57, 0
3, 279200, Note_on_c, 2, 57, 80
3, 279359, Note_on_c, 2, 57, 0
3, 279360, Note_on_c, 2, 57, 80
3, 279839, Note_on_c, 2, 57, 0
3, 280160, Note_on_c, 2, 57, 80
3, 280319, Note_on_c, 2, 57, 0
3, 280320, Note_on_c, 2, 53, 80
3, 280799, Note_on_c, 2, 53, 0
3, 281120, Note_on_c, 2, 53, 80
3, 281279, Note_on_c, 2, 53, 0
3, 281280, Note_on_c, 2, 53, 80
3, 281759, Note_on_c, 2, 53, 0
3, 282080, Note_on_c, 2, 53, 80
3, 282239, Note_on_c, 2, 53, 0
3, 282240, Note_on_c, 2, 55, 80
3, 282719, Note_on_c, 2, 55, 0
3, 283040, Note_on_c, 2, 55, 80
3, 283199, Note_on_c, 2, 55, 0
3, 283200, Note_on_c, 2, 55, 80
3, 283679, Note_on_c, 2, 55, 0
3, 284000, Note_on_c, 2, 55, 80
3, 284159, Note_on_c, 2, 55, 0
3, 284160, Note_on_c, 2, 60, 80
3, 284639, Note_on_c, 2, 60, 0
3, 284960, Note_on_c, 2, 60, 80
3, 285119, Note_on_c, 2, 60, 0
3, 285120, Note_on_c, 2, 60, 80
3, 285599, Note_on_c, 2, 60, 0
3, 285920, Note_on_c, 2, 60, 80
3, 286079, Note_on_c, 2, 60, 0
3, 286080, Note_on_c, 2, 57, 80
3, 286559, Note_on_c, 2, 57, 0
3, 286880, Note_on_c, 2, 57, 80
3, 287039, Note_on_c, 2, 57, 0
3, 287040, Note_on_c, 2, 57, 80
3, 287519, Note_on_c, 2, 57, 0
3, 287840, Note_on_c, 2, 57, 80
3, 287999, Note_on_c, 2, 57, 0
3, 288000, Note_on_c, 2, 53, 80
3, 288479, Note_on_c, 2, 53, 0
3, 288800, Note_on_c, 2, 53, 80
3, 288959, Note_on_c, 2, 53, 0
3, 288960, Note_on_c, 2, 53, 80
3, 289439, Note_on_c, 2, 53, 0
3, 289760, Note_on_c, 2, 53, 80
3, 289919, Note_on_c, 2, 53, 0
3, 289920, Note_on_c, 2, 55, 80
3, 290399, Note_on_c, 2, 55, 0
3, 290720, Note_on_c, 2, 55, 80
3, 290879, Note_on_c, 2, 55, 0
3, 290880, Note_on_c, 2, 55, 80
3, 291359, Note_on_c, 2, 55, 0
3, 291680, Note_on_c, 2, 55, 80
3, 291839, Note_on_c, 2, 55, 0
3, 291840, Note_on_c, 2, 60, 80
3, 292319, Note_on_c, 2, 60, 0
3, 292640, Note_on_c, 2, 60, 80
3, 292799, Note_on_c, 2, 60, 0
3, 292800, Note_on_c, 2, 60, 80
3, 293279, Note_on_c, 2, 60, 0
3, 293600, Note_on_c, 2, 60, 80
3, 293759, Note_on_c, 2, 60, 0
3, 293760, Note_on_c, 2, 57, 80
3, 294239, Note_on_c, 2, 57, 0
3, 294560, Note_on_c, 2, 57, 80
3, 294719, Note_on_c, 2, 57, 0
3, 294720, Note_on_c, 2, 57, 80
3, 295199, Note_on_c, 2, 57, 0
3, 295520, Note_on_c, 2, 57, 80
3, 295679, Note_on_c, 2, 57, 0
3, 295680, Note_on_c, 2, 53, 80
3, 296159, Note_on_c, 2, 53, 0
3, 296480, Note_on_c, 2, 53, 80
3, 296639, Note_on_c, 2, 53, 0
3, 296640, Note_on_c, 2, 53, 80
3, 297119, Note_on_c, 2, 53, 0
3, 297440, Note_on_c, 2, 53, 80
3, 297599, Note_on_c, 2, 53, 0
3, 297600, Note_on_c, 2, 55, 80
3, 298079, Note_on_c, 2, 55, 0
3, 298400, Note_on_c, 2, 55, 80
3, 298559, Note_on_c, 2, 55, 0
3, 298560, Note_on_c, 2, 55, 80
3, 299039, Note_on_c, 2, 55, 0
3, 299360, Note_on_c, 2, 55, 80
3, 299519, Note_on_c, 2, 55, 0
3, 299520, Note_on_c, 2, 60, 80
3, 299999, Note_on_c, 2, 60, 0
3, 300320, Note_on_c, 2, 60, 80
3, 300479, Note_on_c, 2, 60, 0
3, 300480, Note_on_c, 2, 60, 80
3, 300959, Note_on_c, 2, 60, 0
3, 301280, Note_on_c, 2, 60, 80
3, 301439, Note_on_c, 2, 60, 0
3, 301440, Note_on_c, 2, 57, 80
3, 301919, Note_on_c, 2, 57, 0
3, 302240, Note_on_c, 2, 57, 80
3, 302399, Note_on_c, 2, 57, 0
3, 302400, Note_on_c, 2, 57, 80
3, 302879, Note_on_c, 2, 57, 0
3, 303200, Note_on_c, 2, 57, 80
3, 303359, Note_on_c, 2, 57, 0
3, 303360, Note_on_c, 2, 53, 80
3, 303839, Note_on_c, 2, 53, 0
3, 304160, Note_on_c, 2, 53, 80
3, 304319, Note_on_c, 2, 53, 0
3, 304320, Note_on_c, 2, 53, 80
3, 304799, Note_on_c, 2, 53, 0
3, 305120, Note_on_c, 2, 53, 80
3, 305279, Note_on_c, 2, 53, 0
3, 305280, Note_on_c, 2, 55, 80
3, 305759, Note_on_c, 2, 55, 0
3, 306080, Note_on_c, 2, 55, 80
3, 306239, Note_on_c, 2, 55, 0
3, 306240, Note_on_c, 2, 55, 80
3, 306719, Note_on_c, 2, 55, 0
3, 307040, Note_on_c, 2, 55, 80
3, 307199, Note_on_c, 2, 55, 0
3, 307200, Note_on_c, 2, 60, 80
3, 307679, Note_on_c, 2, 60, 0
3, 308000, Note_on_c, 2, 60, 80
3, 308159, Note_on_c, 2, 60, 0
3, 308160, Note_on_c, 2, 60, 80
3, 308639, Note_on_c, 2, 60, 0
3, 308960, Note_on_c, 2, 60, 80
3, 309119, Note_on_c, 2, 60, 0
3, 309120, Note_on_c, 2, 57, 80
3, 309599, Note_on_c, 2, 57, 0
3, 309920, Note_on_c, 2, 57, 80
3, 310079, Note_on_c, 2, 57, 0
3, 310080, Note_on_c, 2, 57, 80
3, 310559, Note_on_c, 2, 57, 0
3, 310880, Note_on_c, 2, 57, 80
3, 311039, Note_on_c, 2, 57, 0
3, 311040, Note_on_c, 2, 53, 80
3, 311519, Note_on_c, 2, 53, 0
3, 311840, Note_on_c, 2, 53, 80
3, 311999, Note_on_c, 2, 53, 0
3, 312000, Note_on_c, 2, 53, 80
3, 312479, Note_on_c, 2, 53, 0
3, 312800, Note_on_c, 2, 53, 80
3, 312959, Note_on_c, 2, 53, 0
3, 312960, Note_on_c, 2, 55, 80
3, 313439, Note_on_c, 2, 55, 0
3, 313760, Note_on_c, 2, 55, 80
3, 313919, Note_on_c, 2, 55, 0
3, 313920, Note_on_c, 2, 55, 80
3, 314399, Note_on_c, 2, 55, 0
3, 314720, Note_on_c, 2, 55, 80
3, 314879, Note_on_c, 2, 55, 0
3, 314880, Note_on_c, 2, 60, 80
3, 315359, Note_on_c, 2, 60, 0
3, 315680, Note_on_c, 2, 60, 80
3, 315839, Note_on_c, 2, 60, 0
3, 315840, Note_on_c, 2, 60, 80
3, 316319, Note_on_c, 2, 60, 0
3, 316640, Note_on_c, 2, 60, 80
3, 316799, Note_on_c, 2, 60, 0
3, 316800, Note_on_c, 2, 57, 80
3, 317279, Note_on_c, 2, 57, 0
3, 317600, Note_on_c, 2, 57, 80
3, 317759, Note_on_c, 2, 57, 0
3, 317760, Note_on_c, 2, 57, 80
3, 318239, Note_on_c, 2, 57, 0
3, 318560, Note_on_c, 2, 57, 80
3, 318719, Note_on_c, 2, 57, 0
3, 318720, Note_on_c, 2, 53, 80
3, 319199, Note_on_c, 2, 53, 0
3, 319520, Note_on_c, 2, 53, 80
3, 319679, Note_on_c, 2, 53, 0
3, 319680, Note_on_c, 2, 53, 80
3, 320159, Note_on_c, 2, 53, 0
3, 320480, Note_on_c, 2, 53, 80
3, 320639, Note_on_c, 2, 53, 0
3, 320640, Note_on_c, 2, 55, 80
3, 321119, Note_on_c, 2, 55, 0
3, 321440, Note_on_c, 2, 55, 80
3, 321599, Note_on_c, 2, 55, 0
3, 321600, Note_on_c, 2, 55, 80
3, 322079, Note_on_c, 2, 55, 0
3, 322400, Note_on_c, 2, 55, 80
3, 322559, Note_on_c, 2, 55, 0
3, 322560, Note_on_c, 2, 60, 80
3, 323039, Note_on_c, 2, 60, 0
3, 323360, Note_on_c, 2, 60, 80
3, 323519, Note_on_c, 2, 60, 0
3, 323520, Note_on_c, 2, 60, 80
3, 323999, Note_on_c, 2, 60, 0
3, 324320, Note_on_c, 2, 60, 80
3, 324479, Note_on_c, 2, 60, 0
3, 324480, Note_on_c, 2, 57, 80
3, 324959, Note_on_c, 2, 57, 0
3, 325280, Note_on_c, 2, 57, 80
3, 325439, Note_on_c, 2, 57, 0
3, 325440, Note_on_c, 2, 57, 80
3, 325919, Note_on_c, 2, 57, 0
3, 326240, Note_on_c, 2, 57, 80
3, 326399, Note_on_c, 2, 57, 0
3, 326400, Note_on_c, 2, 53, 80
3, 326879, Note_on_c, 2, 53, 0
3, 327200, Note_on_c, 2, 53, 80
3, 327359, Note_on_c, 2, 53, 0
3, 327360, Note_on_c, 2, 53, 80
3, 327839, Note_on_c, 2, 53, 0
3, 328160, Note_on_c, 2, 53, 80
3, 328319, Note_on_c, 2, 53, 0
3, 328320, Note_on_c, 2, 55, 80
3, 328799, Note_on_c, 2, 55, 0
3, 329120, Note_on_c, 2, 55, 80
3, 329279, Note_on_c, 2, 55, 0
3, 329280, Note_on_c, 2, 55, 80
3, 330239, Note_on_c, 2, 55, 0
3, 353280, Note_on_c, 2, 60, 80
3, 354719, Note_on_c, 2, 60, 0
3, 354960, Note_on_c, 2, 67, 80
3, 355199, Note_on_c, 2, 67, 0
3, 355200, Note_on_c, 2, 65, 80
3, 355679, Note_on_c, 2, 65, 0
3, 355680, Note_on_c, 2, 62, 80
3, 356639, Note_on_c, 2, 62, 0
3, 356880, Note_on_c, 2, 59, 80
3, 357119, Note_on_c, 2, 59, 0
3, 357120, Note_on_c, 2, 60, 80
3, 358559, Note_on_c, 2, 60, 0
3, 358800, Note_on_c, 2, 67, 80
3, 359039, Note_on_c, 2, 67, 0
3, 359040, Note_on_c, 2, 65, 80
3, 359519, Note_on_c, 2, 65, 0
3, 359520, Note_on_c, 2, 62, 80
3, 360479, Note_on_c, 2, 62, 0
3, 360720, Note_on_c, 2, 59, 80
3, 360959, Note_on_c, 2, 59, 0
3, 360960, Note_on_c, 2, 60, 80
3, 362399, Note_on_c, 2, 60, 0
3, 362640, Note_on_c, 2, 67, 80
3, 362879, Note_on_c, 2, 67, 0
3, 362880, Note_on_c, 2, 65, 80
3, 363359, Note_on_c, 2, 65, 0
3, 363360, Note_on_c, 2, 62, 80
3, 364319, Note_on_c, 2, 62, 0
3, 364560, Note_on_c, 2, 59, 80
3, 364799, Note_on_c, 2, 59, 0
3, 364800, Note_on_c, 2, 60, 80
3, 366239, Note_on_c, 2, 60, 0
3, 366480, Note_on_c, 2, 67, 80
3, 366719, Note_on_c, 2, 67, 0
3, 366720, Note_on_c, 2, 65, 80
3, 367199, Note_on_c, 2, 65, 0
3, 367200, Note_on_c, 2, 62, 80
3, 368159, Note_on_c, 2, 62, 0
3, 368400, Note_on_c, 2, 59, 80
3, 368639, Note_on_c, 2, 59, 0
3, 368640, Note_on_c, 2, 60, 80
3, 370079, Note_on_c, 2, 60, 0
3, 370320, Note_on_c, 2, 67, 80
3, 370559, Note_on_c, 2, 67, 0
3, 370560, Note_on_c, 2, 65, 80
3, 371039, Note_on_c, 2, 65, 0
3, 371040, Note_on_c, 2, 62, 80
3, 371999, Note_on_c, 2, 62, 0
3, 372240, Note_on_c, 2, 59, 80
3, 372479, Note_on_c, 2, 59, 0
3, 372480, Note_on_c, 2, 60, 80
3, 372959, Note_on_c, 2, 60, 0
3, 372960, Note_on_c, 2, 64, 80
3, 373919, Note_on_c, 2, 64, 0
3, 374160, Note_on_c, 2, 67, 80
3, 374399, Note_on_c, 2, 67, 0
3, 374400, Note_on_c, 2, 65, 80
3, 374879, Note_on_c, 2, 65, 0
3, 374880, Note_on_c, 2, 62, 80
3, 375839, Note_on_c, 2, 62, 0
3, 376080, Note_on_c, 2, 59, 80
3, 376319, Note_on_c, 2, 59, 0
3, 376320, Note_on_c, 2, 60, 80
3, 378239, Note_on_c, 2, 60, 0
3, 378240, Note_on_c, 2, 62, 80
3, 380159, Note_on_c, 2, 62, 0
3, 380160, Note_on_c, 2, 64, 80
3, 382079, Note_on_c, 2, 64, 0
3, 382080, Note_on_c, 2, 65, 80
3, 383999, Note_on_c, 2, 65, 0
3, 384000, Note_on_c, 2, 60, 80
3, 385919, Note_on_c, 2, 60, 0
3, 385920, Note_on_c, 2, 62, 80
3, 387839, Note_on_c, 2, 62, 0
3, 387840, Note_on_c, 2, 57, 80
3, 389759, Note_on_c, 2, 57, 0
3, 389760, Note_on_c, 2, 55, 80
3, 391679, Note_on_c, 2, 55, 0
3, 391680, Note_on_c, 2, 53, 80
3, 393599, Note_on_c, 2, 53, 0
3, 393600, Note_on_c, 2, 52, 80
3, 395519, Note_on_c, 2, 52, 0
3, 399360, Key_signature, 0, "major"
3, 399361, End_track
4, 0, Start_track
4, 0, Title_t, "Bell, Bell\000"
4, 0, Key_signature, 0, "major"
4, 0, Control_c, 3, 121, 0
4, 0, Program_c, 3, 14
4, 0, Control_c, 3, 7, 100
4, 0, Control_c, 3, 10, 64
4, 0, Control_c, 3, 91, 0
4, 0, Control_c, 3, 93, 0
4, 0, MIDI_port, 0
4, 7680, Note_on_c, 3, 72, 80
4, 7680, Control_c, 3, 2, 80
4, 8639, Note_on_c, 3, 72, 0
4, 8640, Note_on_c, 3, 69, 80
4, 9599, Note_on_c, 3, 69, 0
4, 9600, Note_on_c, 3, 65, 80
4, 10559, Note_on_c, 3, 65, 0
4, 10560, Note_on_c, 3, 67, 80
4, 11519, Note_on_c, 3, 67, 0
4, 11520, Note_on_c, 3, 60, 80
4, 11999, Note_on_c, 3, 60, 0
4, 12480, Note_on_c, 3, 67, 80
4, 13439, Note_on_c, 3, 67, 0
4, 13440, Note_on_c, 3, 65, 80
4, 14399, Note_on_c, 3, 65, 0
4, 14400, Note_on_c, 3, 62, 80
4, 14879, Note_on_c, 3, 62, 0
4, 19920, Note_on_c, 3, 67, 80
4, 20039, Note_on_c, 3, 67, 0
4, 20040, Note_on_c, 3, 69, 80
4, 20159, Note_on_c, 3, 69, 0
4, 20160, Note_on_c, 3, 67, 80
4, 20399, Note_on_c, 3, 67, 0
4, 20400, Note_on_c, 3, 67, 80
4, 20519, Note_on_c, 3, 67, 0
4, 20520, Note_on_c, 3, 69, 80
4, 20639, Note_on_c, 3, 69, 0
4, 20640, Note_on_c, 3, 67, 80
4, 20879, Note_on_c, 3, 67, 0
4, 20880, Note_on_c, 3, 72, 80
4, 21119, Note_on_c, 3, 72, 0
4, 21600, Note_on_c, 3, 72, 80
4, 21839, Note_on_c, 3, 72, 0
4, 21840, Note_on_c, 3, 69, 80
4, 21959, Note_on_c, 3, 69, 0
4, 21960, Note_on_c, 3, 71, 80
4, 22199, Note_on_c, 3, 71, 0
4, 22200, Note_on_c, 3, 67, 80
4, 22319, Note_on_c, 3, 67, 0
4, 22320, Note_on_c, 3, 69, 80
4, 22559, Note_on_c, 3, 69, 0
4, 22560, Note_on_c, 3, 71, 80
4, 22799, Note_on_c, 3, 71, 0
4, 22800, Note_on_c, 3, 67, 80
4, 23039, Note_on_c, 3, 67, 0
4, 27600, Note_on_c, 3, 67, 80
4, 27719, Note_on_c, 3, 67, 0
4, 27720, Note_on_c, 3, 69, 80
4, 27839, Note_on_c, 3, 69, 0
4, 27840, Note_on_c, 3, 67, 80
4, 28079, Note_on_c, 3, 67, 0
4, 28080, Note_on_c, 3, 67, 80
4, 28199, Note_on_c, 3, 67, 0
4, 28200, Note_on_c, 3, 69, 80
4, 28319, Note_on_c, 3, 69, 0
4, 28320, Note_on_c, 3, 67, 80
4, 28559, Note_on_c, 3, 67, 0
4, 28560, Note_on_c, 3, 72, 80
4, 28799, Note_on_c, 3, 72, 0
4, 29280, Note_on_c, 3, 74, 80
4, 29519, Note_on_c, 3, 74, 0
4, 29520, Note_on_c, 3, 69, 80
4, 29639, Note_on_c, 3, 69, 0
4, 29640, Note_on_c, 3, 71, 80
4, 29879, Note_on_c, 3, 71, 0
4, 29880, Note_on_c, 3, 69, 80
4, 29999, Note_on_c, 3, 69, 0
4, 30000, Note_on_c, 3, 71, 80
4, 30239, Note_on_c, 3, 71, 0
4, 30240, Note_on_c, 3, 72, 80
4, 30479, Note_on_c, 3, 72, 0
4, 46560, Note_on_c, 3, 79, 80
4, 46799, Note_on_c, 3, 79, 0
4, 46800, Note_on_c, 3, 79, 80
4, 47039, Note_on_c, 3, 79, 0
4, 48000, Note_on_c, 3, 74, 80
4, 48479, Note_on_c, 3, 74, 0
4, 48480, Note_on_c, 3, 76, 80
4, 48719, Note_on_c, 3, 76, 0
4, 48720, Note_on_c, 3, 77, 80
4, 49199, Note_on_c, 3, 77, 0
4, 49200, Note_on_c, 3, 79, 80
4, 49679, Note_on_c, 3, 79, 0
4, 49680, Note_on_c, 3, 79, 80
4, 50399, Note_on_c, 3, 79, 0
4, 51840, Note_on_c, 3, 72, 80
4, 52319, Note_on_c, 3, 72, 0
4, 52320, Note_on_c, 3, 74, 80
4, 52559, Note_on_c, 3, 74, 0
4, 52560, Note_on_c, 3, 76, 80
4, 53039, Note_on_c, 3, 76, 0
4, 53040, Note_on_c, 3, 72, 80
4, 53519, Note_on_c, 3, 72, 0
4, 53520, Note_on_c, 3, 67, 80
4, 54239, Note_on_c, 3, 67, 0
4, 55920, Note_on_c, 3, 79, 80
4, 56039, Note_on_c, 3, 79, 0
4, 56040, Note_on_c, 3, 81, 80
4, 56159, Note_on_c, 3, 81, 0
4, 56160, Note_on_c, 3, 79, 80
4, 56279, Note_on_c, 3, 79, 0
4, 56280, Note_on_c, 3, 76, 80
4, 56519, Note_on_c, 3, 76, 0
4, 56520, Note_on_c, 3, 74, 80
4, 56759, Note_on_c, 3, 74, 0
4, 56760, Note_on_c, 3, 71, 80
4, 56879, Note_on_c, 3, 71, 0
4, 56880, Note_on_c, 3, 69, 80
4, 56999, Note_on_c, 3, 69, 0
4, 57000, Note_on_c, 3, 67, 80
4, 57239, Note_on_c, 3, 67, 0
4, 57240, Note_on_c, 3, 72, 80
4, 57359, Note_on_c, 3, 72, 0
4, 57360, Note_on_c, 3, 76, 80
4, 57599, Note_on_c, 3, 76, 0
4, 57600, Note_on_c, 3, 72, 80
4, 57600, Note_on_c, 3, 77, 80
4, 57959, Note_on_c, 3, 72, 0
4, 57959, Note_on_c, 3, 77, 0
4, 57960, Note_on_c, 3, 72, 80
4, 57960, Note_on_c, 3, 76, 80
4, 58319, Note_on_c, 3, 72, 0
4, 58319, Note_on_c, 3, 76, 0
4, 58320, Note_on_c, 3, 67, 80
4, 58320, Note_on_c, 3, 72, 80
4, 58679, Note_on_c, 3, 67, 0
4, 58679, Note_on_c, 3, 72, 0
4, 58680, Note_on_c, 3, 67, 80
4, 58680, Note_on_c, 3, 64, 80
4, 59039, Note_on_c, 3, 64, 0
4, 59159, Note_on_c, 3, 67, 0
4, 59160, Note_on_c, 3, 71, 80
4, 59279, Note_on_c, 3, 71, 0
4, 59280, Note_on_c, 3, 76, 80
4, 59519, Note_on_c, 3, 76, 0
4, 59520, Note_on_c, 3, 69, 80
4, 59520, Note_on_c, 3, 74, 80
4, 60479, Note_on_c, 3, 69, 0
4, 60479, Note_on_c, 3, 74, 0
4, 61920, Note_on_c, 3, 79, 80
4, 62159, Note_on_c, 3, 79, 0
4, 62160, Note_on_c, 3, 79, 80
4, 62399, Note_on_c, 3, 79, 0
4, 62400, Note_on_c, 3, 79, 80
4, 63119, Note_on_c, 3, 79, 0
4, 63120, Note_on_c, 3, 79, 80
4, 63239, Note_on_c, 3, 79, 0
4, 63240, Note_on_c, 3, 77, 80
4, 63359, Note_on_c, 3, 77, 0
4, 63360, Note_on_c, 3, 76, 80
4, 63719, Note_on_c, 3, 76, 0
4, 63720, Note_on_c, 3, 77, 80
4, 63839, Note_on_c, 3, 77, 0
4, 63840, Note_on_c, 3, 79, 80
4, 64079, Note_on_c, 3, 79, 0
4, 64080, Note_on_c, 3, 76, 80
4, 64319, Note_on_c, 3, 76, 0
4, 64320, Note_on_c, 3, 74, 80
4, 64799, Note_on_c, 3, 74, 0
4, 64800, Note_on_c, 3, 72, 80
4, 65039, Note_on_c, 3, 72, 0
4, 65040, Note_on_c, 3, 74, 80
4, 65279, Note_on_c, 3, 74, 0
4, 65280, Note_on_c, 3, 76, 80
4, 65519, Note_on_c, 3, 76, 0
4, 65520, Note_on_c, 3, 72, 80
4, 65759, Note_on_c, 3, 72, 0
4, 65760, Note_on_c, 3, 67, 80
4, 66239, Note_on_c, 3, 67, 0
4, 69600, Note_on_c, 3, 79, 80
4, 69839, Note_on_c, 3, 79, 0
4, 69840, Note_on_c, 3, 81, 80
4, 70079, Note_on_c, 3, 81, 0
4, 70080, Note_on_c, 3, 79, 80
4, 70799, Note_on_c, 3, 79, 0
4, 70800, Note_on_c, 3, 76, 80
4, 70919, Note_on_c, 3, 76, 0
4, 70920, Note_on_c, 3, 77, 80
4, 71039, Note_on_c, 3, 77, 0
4, 71040, Note_on_c, 3, 79, 80
4, 71279, Note_on_c, 3, 79, 0
4, 71280, Note_on_c, 3, 77, 80
4, 71399, Note_on_c, 3, 77, 0
4, 71400, Note_on_c, 3, 76, 80
4, 71519, Note_on_c, 3, 76, 0
4, 71520, Note_on_c, 3, 74, 80
4, 71759, Note_on_c, 3, 74, 0
4, 71760, Note_on_c, 3, 69, 80
4, 71999, Note_on_c, 3, 69, 0
4, 72000, Note_on_c, 3, 67, 80
4, 72479, Note_on_c, 3, 67, 0
4, 72480, Note_on_c, 3, 65, 80
4, 72719, Note_on_c, 3, 65, 0
4, 72720, Note_on_c, 3, 69, 80
4, 72959, Note_on_c, 3, 69, 0
4, 72960, Note_on_c, 3, 67, 80
4, 73199, Note_on_c, 3, 67, 0
4, 73200, Note_on_c, 3, 76, 80
4, 73439, Note_on_c, 3, 76, 0
4, 73440, Note_on_c, 3, 72, 80
4, 74399, Note_on_c, 3, 72, 0
4, 94080, Note_on_c, 3, 77, 80
4, 94080, Control_c, 3, 2, 80
4, 94439, Note_on_c, 3, 77, 0
4, 94440, Note_on_c, 3, 79, 80
4, 94799, Note_on_c, 3, 79, 0
4, 94800, Note_on_c, 3, 81, 80
4, 95279, Note_on_c, 3, 81, 0
4, 95280, Note_on_c, 3, 79, 80
4, 95999, Note_on_c, 3, 79, 0
4, 109440, Key_signature, 0, "major"
4, 132480, Note_on_c, 3, 60, 80
4, 132480, Control_c, 3, 2, 80
4, 132719, Note_on_c, 3, 60, 0
4, 132720, Note_on_c, 3, 64, 80
4, 132720, Control_c, 3, 2, 80
4, 132959, Note_on_c, 3, 64, 0
4, 132960, Note_on_c, 3, 67, 80
4, 132960, Control_c, 3, 2, 80
4, 133199, Note_on_c, 3, 67, 0
4, 133200, Note_on_c, 3, 72, 80
4, 133200, Control_c, 3, 2, 80
4, 133439, Note_on_c, 3, 72, 0
4, 134400, Note_on_c, 3, 64, 80
4, 134400, Control_c, 3, 2, 80
4, 134639, Note_on_c, 3, 64, 0
4, 134640, Note_on_c, 3, 67, 80
4, 134640, Control_c, 3, 2, 80
4, 134879, Note_on_c, 3, 67, 0
4, 134880, Note_on_c, 3, 71, 80
4, 134880, Control_c, 3, 2, 80
4, 135119, Note_on_c, 3, 71, 0
4, 135120, Note_on_c, 3, 74, 80
4, 135359, Note_on_c, 3, 74, 0
4, 135600, Note_on_c, 3, 71, 80
4, 135600, Control_c, 3, 2, 80
4, 135839, Note_on_c, 3, 71, 0
4, 135840, Note_on_c, 3, 74, 80
4, 135840, Control_c, 3, 2, 80
4, 136079, Note_on_c, 3, 74, 0
4, 136080, Note_on_c, 3, 71, 80
4, 136319, Note_on_c, 3, 71, 0
4, 140160, Note_on_c, 3, 60, 80
4, 140160, Control_c, 3, 2, 80
4, 140399, Note_on_c, 3, 60, 0
4, 140400, Note_on_c, 3, 64, 80
4, 140400, Control_c, 3, 2, 80
4, 140639, Note_on_c, 3, 64, 0
4, 140640, Note_on_c, 3, 67, 80
4, 140640, Control_c, 3, 2, 80
4, 140879, Note_on_c, 3, 67, 0
4, 140880, Note_on_c, 3, 72, 80
4, 140880, Control_c, 3, 2, 80
4, 141119, Note_on_c, 3, 72, 0
4, 142080, Note_on_c, 3, 64, 80
4, 142080, Control_c, 3, 2, 80
4, 142319, Note_on_c, 3, 64, 0
4, 142320, Note_on_c, 3, 67, 80
4, 142320, Control_c, 3, 2, 80
4, 142559, Note_on_c, 3, 67, 0
4, 142560, Note_on_c, 3, 71, 80
4, 142560, Control_c, 3, 2, 80
4, 142799, Note_on_c, 3, 71, 0
4, 142800, Note_on_c, 3, 74, 80
4, 143039, Note_on_c, 3, 74, 0
4, 143280, Note_on_c, 3, 71, 80
4, 143280, Control_c, 3, 2, 80
4, 143519, Note_on_c, 3, 71, 0
4, 143520, Note_on_c, 3, 74, 80
4, 143520, Control_c, 3, 2, 80
4, 143759, Note_on_c, 3, 74, 0
4, 143760, Note_on_c, 3, 71, 80
4, 143999, Note_on_c, 3, 71, 0
4, 150960, Note_on_c, 3, 69, 80
4, 150960, Control_c, 3, 2, 80
4, 151199, Note_on_c, 3, 69, 0
4, 151200, Note_on_c, 3, 67, 80
4, 151200, Control_c, 3, 2, 80
4, 151439, Note_on_c, 3, 67, 0
4, 151440, Note_on_c, 3, 76, 80
4, 151440, Control_c, 3, 2, 80
4, 151680, Control_c, 3, 2, 80
4, 152159, Note_on_c, 3, 76, 0
4, 152160, Note_on_c, 3, 72, 80
4, 152160, Control_c, 3, 2, 80
4, 152639, Note_on_c, 3, 72, 0
4, 154320, Note_on_c, 3, 67, 80
4, 154320, Control_c, 3, 2, 80
4, 154559, Note_on_c, 3, 67, 0
4, 154560, Note_on_c, 3, 67, 80
4, 154560, Control_c, 3, 2, 80
4, 154799, Note_on_c, 3, 67, 0
4, 154800, Note_on_c, 3, 79, 80
4, 154800, Control_c, 3, 2, 80
4, 154919, Note_on_c, 3, 79, 0
4, 154920, Note_on_c, 3, 67, 80
4, 154920, Control_c, 3, 2, 80
4, 155159, Note_on_c, 3, 67, 0
4, 178560, Key_signature, 0, "major"
4, 255680, Note_on_c, 3, 72, 80
4, 255680, Control_c, 3, 2, 80
4, 256319, Note_on_c, 3, 72, 0
4, 256320, Note_on_c, 3, 71, 80
4, 256799, Note_on_c, 3, 71, 0
4, 256800, Note_on_c, 3, 69, 80
4, 257279, Note_on_c, 3, 69, 0
4, 257280, Note_on_c, 3, 65, 80
4, 257759, Note_on_c, 3, 65, 0
4, 265920, Note_on_c, 3, 79, 80
4, 266399, Note_on_c, 3, 79, 0
4, 266400, Note_on_c, 3, 67, 80
4, 266879, Note_on_c, 3, 67, 0
4, 266880, Note_on_c, 3, 71, 80
4, 268799, Note_on_c, 3, 71, 0
4, 273600, Note_on_c, 3, 74, 80
4, 274079, Note_on_c, 3, 74, 0
4, 274080, Note_on_c, 3, 76, 80
4, 274559, Note_on_c, 3, 76, 0
4, 274560, Note_on_c, 3, 79, 80
4, 276479, Note_on_c, 3, 79, 0
4, 278720, Note_on_c, 3, 72, 80
4, 278720, Control_c, 3, 2, 80
4, 279359, Note_on_c, 3, 72, 0
4, 279360, Note_on_c, 3, 71, 80
4, 279839, Note_on_c, 3, 71, 0
4, 279840, Note_on_c, 3, 69, 80
4, 279840, Control_c, 3, 2, 80
4, 280319, Note_on_c, 3, 69, 0
4, 280320, Note_on_c, 3, 65, 80
4, 280320, Control_c, 3, 2, 80
4, 280799, Note_on_c, 3, 65, 0
4, 286400, Note_on_c, 3, 72, 80
4, 286400, Control_c, 3, 2, 80
4, 287039, Note_on_c, 3, 72, 0
4, 287040, Note_on_c, 3, 71, 80
4, 287519, Note_on_c, 3, 71, 0
4, 287520, Note_on_c, 3, 69, 80
4, 287520, Control_c, 3, 2, 80
4, 287999, Note_on_c, 3, 69, 0
4, 288000, Note_on_c, 3, 65, 80
4, 288000, Control_c, 3, 2, 80
4, 288479, Note_on_c, 3, 65, 0
4, 319680, Note_on_c, 3, 74, 80
4, 319680, Control_c, 3, 2, 80
4, 320159, Note_on_c, 3, 74, 0
4, 320160, Note_on_c, 3, 76, 80
4, 320639, Note_on_c, 3, 76, 0
4, 320640, Note_on_c, 3, 79, 80
4, 321119, Note_on_c, 3, 79, 0
4, 345600, Note_on_c, 3, 79, 80
4, 345719, Note_on_c, 3, 79, 0
4, 345720, Note_on_c, 3, 77, 80
4, 345839, Note_on_c, 3, 77, 0
4, 345840, Note_on_c, 3, 76, 80
4, 345959, Note_on_c, 3, 76, 0
4, 345960, Note_on_c, 3, 77, 80
4, 346079, Note_on_c, 3, 77, 0
4, 346080, Note_on_c, 3, 79, 80
4, 346199, Note_on_c, 3, 79, 0
4, 346200, Note_on_c, 3, 81, 80
4, 346319, Note_on_c, 3, 81, 0
4, 346320, Note_on_c, 3, 79, 80
4, 346439, Note_on_c, 3, 79, 0
4, 346440, Note_on_c, 3, 77, 80
4, 346559, Note_on_c, 3, 77, 0
4, 346560, Note_on_c, 3, 76, 80
4, 347519, Note_on_c, 3, 76, 0
4, 347520, Note_on_c, 3, 84, 80
4, 347999, Note_on_c, 3, 84, 0
4, 348000, Note_on_c, 3, 83, 80
4, 348479, Note_on_c, 3, 83, 0
4, 348480, Note_on_c, 3, 81, 80
4, 348959, Note_on_c, 3, 81, 0
4, 348960, Note_on_c, 3, 79, 80
4, 349439, Note_on_c, 3, 79, 0
4, 349440, Note_on_c, 3, 79, 80
4, 349559, Note_on_c, 3, 79, 0
4, 349560, Note_on_c, 3, 77, 80
4, 349679, Note_on_c, 3, 77, 0
4, 349680, Note_on_c, 3, 76, 80
4, 349799, Note_on_c, 3, 76, 0
4, 349800, Note_on_c, 3, 74, 80
4, 349919, Note_on_c, 3, 74, 0
4, 349920, Note_on_c, 3, 76, 80
4, 350039, Note_on_c, 3, 76, 0
4, 350040, Note_on_c, 3, 77, 80
4, 350159, Note_on_c, 3, 77, 0
4, 350160, Note_on_c, 3, 79, 80
4, 350279, Note_on_c, 3, 79, 0
4, 350280, Note_on_c, 3, 81, 80
4, 350399, Note_on_c, 3, 81, 0
4, 350400, Note_on_c, 3, 79, 80
4, 351359, Note_on_c, 3, 79, 0
4, 351360, Note_on_c, 3, 77, 80
4, 351839, Note_on_c, 3, 77, 0
4, 351840, Note_on_c, 3, 76, 80
4, 352319, Note_on_c, 3, 76, 0
4, 352320, Note_on_c, 3, 74, 80
4, 352799, Note_on_c, 3, 74, 0
4, 352800, Note_on_c, 3, 72, 80
4, 353279, Note_on_c, 3, 72, 0
4, 353280, Note_on_c, 3, 79, 80
4, 353280, Control_c, 3, 2, 80
4, 353399, Note_on_c, 3, 79, 0
4, 353400, Note_on_c, 3, 77, 80
4, 353400, Control_c, 3, 2, 80
4, 353519, Note_on_c, 3, 77, 0
4, 353520, Note_on_c, 3, 76, 80
4, 353639, Note_on_c, 3, 76, 0
4, 353640, Note_on_c, 3, 77, 80
4, 353640, Control_c, 3, 2, 80
4, 353759, Note_on_c, 3, 77, 0
4, 353760, Note_on_c, 3, 79, 80
4, 353879, Note_on_c, 3, 79, 0
4, 353880, Note_on_c, 3, 81, 80
4, 353999, Note_on_c, 3, 81, 0
4, 354000, Note_on_c, 3, 79, 80
4, 354119, Note_on_c, 3, 79, 0
4, 354120, Note_on_c, 3, 77, 80
4, 354120, Control_c, 3, 2, 80
4, 354239, Note_on_c, 3, 77, 0
4, 354240, Note_on_c, 3, 76, 80
4, 355199, Note_on_c, 3, 76, 0
4, 355200, Note_on_c, 3, 84, 80
4, 355200, Control_c, 3, 2, 80
4, 355679, Note_on_c, 3, 84, 0
4, 355680, Note_on_c, 3, 83, 80
4, 355680, Control_c, 3, 2, 80
4, 356159, Note_on_c, 3, 83, 0
4, 356160, Note_on_c, 3, 81, 80
4, 356160, Control_c, 3, 2, 80
4, 356639, Note_on_c, 3, 81, 0
4, 356640, Note_on_c, 3, 79, 80
4, 356640, Control_c, 3, 2, 80
4, 357119, Note_on_c, 3, 79, 0
4, 357120, Note_on_c, 3, 79, 80
4, 357239, Note_on_c, 3, 79, 0
4, 357240, Note_on_c, 3, 77, 80
4, 357240, Control_c, 3, 2, 80
4, 357359, Note_on_c, 3, 77, 0
4, 357360, Note_on_c, 3, 76, 80
4, 357479, Note_on_c, 3, 76, 0
4, 357480, Note_on_c, 3, 74, 80
4, 357480, Control_c, 3, 2, 80
4, 357599, Note_on_c, 3, 74, 0
4, 357600, Note_on_c, 3, 76, 80
4, 357719, Note_on_c, 3, 76, 0
4, 357720, Note_on_c, 3, 77, 80
4, 357839, Note_on_c, 3, 77, 0
4, 357840, Note_on_c, 3, 79, 80
4, 357959, Note_on_c, 3, 79, 0
4, 357960, Note_on_c, 3, 81, 80
4, 357960, Control_c, 3, 2, 80
4, 358079, Note_on_c, 3, 81, 0
4, 358080, Note_on_c, 3, 79, 80
4, 359039, Note_on_c, 3, 79, 0
4, 359040, Note_on_c, 3, 77, 80
4, 359040, Control_c, 3, 2, 80
4, 359519, Note_on_c, 3, 77, 0
4, 359520, Note_on_c, 3, 76, 80
4, 359520, Control_c, 3, 2, 80
4, 359999, Note_on_c, 3, 76, 0
4, 360000, Note_on_c, 3, 74, 80
4, 360000, Control_c, 3, 2, 80
4, 360479, Note_on_c, 3, 74, 0
4, 360480, Note_on_c, 3, 72, 80
4, 360480, Control_c, 3, 2, 80
4, 360959, Note_on_c, 3, 72, 0
4, 360960, Note_on_c, 3, 79, 80
4, 361079, Note_on_c, 3, 79, 0
4, 361080, Note_on_c, 3, 77, 80
4, 361080, Control_c, 3, 2, 80
4, 361199, Note_on_c, 3, 77, 0
4, 361200, Note_on_c, 3, 76, 80
4, 361319, Note_on_c, 3, 76, 0
4, 361320, Note_on_c, 3, 77, 80
4, 361320, Control_c, 3, 2, 80
4, 361439, Note_on_c, 3, 77, 0
4, 361440, Note_on_c, 3, 79, 80
4, 361559, Note_on_c, 3, 79, 0
4, 361560, Note_on_c, 3, 81, 80
4, 361679, Note_on_c, 3, 81, 0
4, 361680, Note_on_c, 3, 79, 80
4, 361799, Note_on_c, 3, 79, 0
4, 361800, Note_on_c, 3, 77, 80
4, 361800, Control_c, 3, 2, 80
4, 361919, Note_on_c, 3, 77, 0
4, 361920, Note_on_c, 3, 76, 80
4, 362879, Note_on_c, 3, 76, 0
4, 362880, Note_on_c, 3, 84, 80
4, 362880, Control_c, 3, 2, 80
4, 363359, Note_on_c, 3, 84, 0
4, 363360, Note_on_c, 3, 83, 80
4, 363360, Control_c, 3, 2, 80
4, 363839, Note_on_c, 3, 83, 0
4, 363840, Note_on_c, 3, 81, 80
4, 363840, Control_c, 3, 2, 80
4, 364319, Note_on_c, 3, 81, 0
4, 364320, Note_on_c, 3, 79, 80
4, 364320, Control_c, 3, 2, 80
4, 364799, Note_on_c, 3, 79, 0
4, 364800, Note_on_c, 3, 79, 80
4, 364919, Note_on_c, 3, 79, 0
4, 364920, Note_on_c, 3, 77, 80
4, 364920, Control_c, 3, 2, 80
4, 365039, Note_on_c, 3, 77, 0
4, 365040, Note_on_c, 3, 76, 80
4, 365159, Note_on_c, 3, 76, 0
4, 365160, Note_on_c, 3, 74, 80
4, 365160, Control_c, 3, 2, 80
4, 365279, Note_on_c, 3, 74, 0
4, 365280, Note_on_c, 3, 76, 80
4, 365399, Note_on_c, 3, 76, 0
4, 365400, Note_on_c, 3, 77, 80
4, 365519, Note_on_c, 3, 77, 0
4, 365520, Note_on_c, 3, 79, 80
4, 365639, Note_on_c, 3, 79, 0
4, 365640, Note_on_c, 3, 81, 80
4, 365640, Control_c, 3, 2, 80
4, 365759, Note_on_c, 3, 81, 0
4, 365760, Note_on_c, 3, 79, 80
4, 366719, Note_on_c, 3, 79, 0
4, 366720, Note_on_c, 3, 77, 80
4, 366720, Control_c, 3, 2, 80
4, 367199, Note_on_c, 3, 77, 0
4, 367200, Note_on_c, 3, 76, 80
4, 367200, Control_c, 3, 2, 80
4, 367679, Note_on_c, 3, 76, 0
4, 367680, Note_on_c, 3, 74, 80
4, 367680, Control_c, 3, 2, 80
4, 368159, Note_on_c, 3, 74, 0
4, 368160, Note_on_c, 3, 72, 80
4, 368160, Control_c, 3, 2, 80
4, 368639, Note_on_c, 3, 72, 0
4, 368640, Note_on_c, 3, 79, 80
4, 368759, Note_on_c, 3, 79, 0
4, 368760, Note_on_c, 3, 77, 80
4, 368760, Control_c, 3, 2, 80
4, 368879, Note_on_c, 3, 77, 0
4, 368880, Note_on_c, 3, 76, 80
4, 368999, Note_on_c, 3, 76, 0
4, 369000, Note_on_c, 3, 77, 80
4, 369000, Control_c, 3, 2, 80
4, 369119, Note_on_c, 3, 77, 0
4, 369120, Note_on_c, 3, 79, 80
4, 369239, Note_on_c, 3, 79, 0
4, 369240, Note_on_c, 3, 81, 80
4, 369359, Note_on_c, 3, 81, 0
4, 369360, Note_on_c, 3, 79, 80
4, 369479, Note_on_c, 3, 79, 0
4, 369480, Note_on_c, 3, 77, 80
4, 369480, Control_c, 3, 2, 80
4, 369599, Note_on_c, 3, 77, 0
4, 369600, Note_on_c, 3, 76, 80
4, 370559, Note_on_c, 3, 76, 0
4, 370560, Note_on_c, 3, 84, 80
4, 370560, Control_c, 3, 2, 80
4, 371039, Note_on_c, 3, 84, 0
4, 371040, Note_on_c, 3, 83, 80
4, 371040, Control_c, 3, 2, 80
4, 371519, Note_on_c, 3, 83, 0
4, 371520, Note_on_c, 3, 81, 80
4, 371520, Control_c, 3, 2, 80
4, 371999, Note_on_c, 3, 81, 0
4, 372000, Note_on_c, 3, 79, 80
4, 372000, Control_c, 3, 2, 80
4, 372479, Note_on_c, 3, 79, 0
4, 372480, Note_on_c, 3, 79, 80
4, 372599, Note_on_c, 3, 79, 0
4, 372600, Note_on_c, 3, 77, 80
4, 372600, Control_c, 3, 2, 80
4, 372719, Note_on_c, 3, 77, 0
4, 372720, Note_on_c, 3, 76, 80
4, 372839, Note_on_c, 3, 76, 0
4, 372840, Note_on_c, 3, 74, 80
4, 372840, Control_c, 3, 2, 80
4, 372959, Note_on_c, 3, 74, 0
4, 372960, Note_on_c, 3, 76, 80
4, 373079, Note_on_c, 3, 76, 0
4, 373080, Note_on_c, 3, 77, 80
4, 373199, Note_on_c, 3, 77, 0
4, 373200, Note_on_c, 3, 79, 80
4, 373319, Note_on_c, 3, 79, 0
4, 373320, Note_on_c, 3, 81, 80
4, 373320, Control_c, 3, 2, 80
4, 373439, Note_on_c, 3, 81, 0
4, 373440, Note_on_c, 3, 79, 80
4, 374399, Note_on_c, 3, 79, 0
4, 374400, Note_on_c, 3, 77, 80
4, 374400, Control_c, 3, 2, 80
4, 374879, Note_on_c, 3, 77, 0
4, 374880, Note_on_c, 3, 76, 80
4, 374880, Control_c, 3, 2, 80
4, 375359, Note_on_c, 3, 76, 0
4, 375360, Note_on_c, 3, 74, 80
4, 375360, Control_c, 3, 2, 80
4, 375839, Note_on_c, 3, 74, 0
4, 375840, Note_on_c, 3, 72, 80
4, 375840, Control_c, 3, 2, 80
4, 376319, Note_on_c, 3, 72, 0
4, 399360, Key_signature, 0, "major"
4, 399361, End_track
5, 0, Start_track
5, 0, Title_t, "Lute, Lute\000"
5, 0, Key_signature, 0, "major"
5, 0, Control_c, 4, 121, 0
5, 0, Program_c, 4, 24
5, 0, Control_c, 4, 7, 100
5, 0, Control_c, 4, 10, 64
5, 0, Control_c, 4, 91, 0
5, 0, Control_c, 4, 93, 0
5, 0, MIDI_port, 0
5, 77040, Note_on_c, 4, 67, 80
5, 77040, Control_c, 4, 2, 80
5, 77159, Note_on_c, 4, 67, 0
5, 77160, Note_on_c, 4, 67, 80
5, 77519, Note_on_c, 4, 67, 0
5, 77520, Note_on_c, 4, 67, 80
5, 77999, Note_on_c, 4, 67, 0
5, 78000, Note_on_c, 4, 65, 80
5, 78479, Note_on_c, 4, 65, 0
5, 78480, Note_on_c, 4, 64, 80
5, 78719, Note_on_c, 4, 64, 0
5, 78720, Note_on_c, 4, 60, 80
5, 78959, Note_on_c, 4, 60, 0
5, 78960, Note_on_c, 4, 60, 80
5, 79079, Note_on_c, 4, 60, 0
5, 79080, Note_on_c, 4, 62, 80
5, 79439, Note_on_c, 4, 62, 0
5, 79440, Note_on_c, 4, 64, 80
5, 79499, Note_on_c, 4, 64, 0
5, 79500, Note_on_c, 4, 65, 80
5, 79919, Note_on_c, 4, 65, 0
5, 79920, Note_on_c, 4, 65, 80
5, 79979, Note_on_c, 4, 65, 0
5, 79980, Note_on_c, 4, 67, 80
5, 80399, Note_on_c, 4, 67, 0
5, 80880, Note_on_c, 4, 69, 80
5, 81119, Note_on_c, 4, 69, 0
5, 81120, Note_on_c, 4, 67, 80
5, 81239, Note_on_c, 4, 67, 0
5, 81240, Note_on_c, 4, 64, 80
5, 81479, Note_on_c, 4, 64, 0
5, 81480, Note_on_c, 4, 62, 80
5, 81959, Note_on_c, 4, 62, 0
5, 82080, Note_on_c, 4, 55, 80
5, 82319, Note_on_c, 4, 55, 0
5, 82320, Note_on_c, 4, 57, 80
5, 82439, Note_on_c, 4, 57, 0
5, 82440, Note_on_c, 4, 60, 80
5, 82799, Note_on_c, 4, 60, 0
5, 82800, Note_on_c, 4, 57, 80
5, 83039, Note_on_c, 4, 57, 0
5, 83040, Note_on_c, 4, 60, 80
5, 83159, Note_on_c, 4, 60, 0
5, 83160, Note_on_c, 4, 62, 80
5, 83279, Note_on_c, 4, 62, 0
5, 83280, Note_on_c, 4, 60, 80
5, 83759, Note_on_c, 4, 60, 0
5, 84720, Note_on_c, 4, 67, 80
5, 84839, Note_on_c, 4, 67, 0
5, 84840, Note_on_c, 4, 67, 80
5, 85199, Note_on_c, 4, 67, 0
5, 85200, Note_on_c, 4, 67, 80
5, 85679, Note_on_c, 4, 67, 0
5, 85680, Note_on_c, 4, 65, 80
5, 86159, Note_on_c, 4, 65, 0
5, 86160, Note_on_c, 4, 64, 80
5, 86399, Note_on_c, 4, 64, 0
5, 86400, Note_on_c, 4, 60, 80
5, 86639, Note_on_c, 4, 60, 0
5, 86640, Note_on_c, 4, 60, 80
5, 86759, Note_on_c, 4, 60, 0
5, 86760, Note_on_c, 4, 62, 80
5, 87119, Note_on_c, 4, 62, 0
5, 87120, Note_on_c, 4, 64, 80
5, 87179, Note_on_c, 4, 64, 0
5, 87180, Note_on_c, 4, 65, 80
5, 87599, Note_on_c, 4, 65, 0
5, 87600, Note_on_c, 4, 65, 80
5, 87659, Note_on_c, 4, 65, 0
5, 87660, Note_on_c, 4, 67, 80
5, 88079, Note_on_c, 4, 67, 0
5, 88560, Note_on_c, 4, 69, 80
5, 88799, Note_on_c, 4, 69, 0
5, 88800, Note_on_c, 4, 67, 80
5, 88919, Note_on_c, 4, 67, 0
5, 88920, Note_on_c, 4, 64, 80
5, 89159, Note_on_c, 4, 64, 0
5, 89160, Note_on_c, 4, 62, 80
5, 89639, Note_on_c, 4, 62, 0
5, 89760, Note_on_c, 4, 55, 80
5, 89999, Note_on_c, 4, 55, 0
5, 90000, Note_on_c, 4, 57, 80
5, 90119, Note_on_c, 4, 57, 0
5, 90120, Note_on_c, 4, 60, 80
5, 90479, Note_on_c, 4, 60, 0
5, 90480, Note_on_c, 4, 57, 80
5, 90719, Note_on_c, 4, 57, 0
5, 90720, Note_on_c, 4, 60, 80
5, 90839, Note_on_c, 4, 60, 0
5, 90840, Note_on_c, 4, 62, 80
5, 90959, Note_on_c, 4, 62, 0
5, 90960, Note_on_c, 4, 60, 80
5, 91439, Note_on_c, 4, 60, 0
5, 109440, Key_signature, 0, "major"
5, 109440, Note_on_c, 4, 60, 80
5, 109440, Control_c, 4, 2, 80
5, 109679, Note_on_c, 4, 60, 0
5, 109680, Note_on_c, 4, 60, 80
5, 109919, Note_on_c, 4, 60, 0
5, 109920, Note_on_c, 4, 64, 80
5, 109920, Note_on_c, 4, 67, 80
5, 109920, Note_on_c, 4, 72, 80
5, 110159, Note_on_c, 4, 64, 0
5, 110159, Note_on_c, 4, 67, 0
5, 110159, Note_on_c, 4, 72, 0
5, 110160, Note_on_c, 4, 60, 80
5, 110399, Note_on_c, 4, 60, 0
5, 110520, Note_on_c, 4, 64, 80
5, 110520, Note_on_c, 4, 67, 80
5, 110520, Note_on_c, 4, 72, 80
5, 110639, Note_on_c, 4, 64, 0
5, 110639, Note_on_c, 4, 67, 0
5, 110639, Note_on_c, 4, 72, 0
5, 110640, Note_on_c, 4, 60, 80
5, 110879, Note_on_c, 4, 60, 0
5, 110880, Note_on_c, 4, 64, 80
5, 110880, Note_on_c, 4, 67, 80
5, 110880, Note_on_c, 4, 72, 80
5, 111119, Note_on_c, 4, 64, 0
5, 111119, Note_on_c, 4, 67, 0
5, 111119, Note_on_c, 4, 72, 0
5, 111120, Note_on_c, 4, 60, 80
5, 111239, Note_on_c, 4, 60, 0
5, 111240, Note_on_c, 4, 64, 80
5, 111240, Note_on_c, 4, 67, 80
5, 111359, Note_on_c, 4, 64, 0
5, 111359, Note_on_c, 4, 67, 0
5, 111360, Note_on_c, 4, 57, 80
5, 111599, Note_on_c, 4, 57, 0
5, 111600, Note_on_c, 4, 57, 80
5, 111839, Note_on_c, 4, 57, 0
5, 111840, Note_on_c, 4, 62, 80
5, 111840, Note_on_c, 4, 65, 80
5, 111840, Note_on_c, 4, 69, 80
5, 112079, Note_on_c, 4, 62, 0
5, 112079, Note_on_c, 4, 65, 0
5, 112079, Note_on_c, 4, 69, 0
5, 112080, Note_on_c, 4, 57, 80
5, 112199, Note_on_c, 4, 57, 0
5, 112200, Note_on_c, 4, 55, 80
5, 112319, Note_on_c, 4, 55, 0
5, 112440, Note_on_c, 4, 59, 80
5, 112440, Note_on_c, 4, 62, 80
5, 112440, Note_on_c, 4, 67, 80
5, 112559, Note_on_c, 4, 59, 0
5, 112559, Note_on_c, 4, 62, 0
5, 112559, Note_on_c, 4, 67, 0
5, 112560, Note_on_c, 4, 55, 80
5, 112679, Note_on_c, 4, 55, 0
5, 112800, Note_on_c, 4, 59, 80
5, 112800, Note_on_c, 4, 62, 80
5, 112800, Note_on_c, 4, 67, 80
5, 113039, Note_on_c, 4, 59, 0
5, 113039, Note_on_c, 4, 62, 0
5, 113039, Note_on_c, 4, 67, 0
5, 113040, Note_on_c, 4, 67, 80
5, 113159, Note_on_c, 4, 67, 0
5, 113160, Note_on_c, 4, 59, 80
5, 113279, Note_on_c, 4, 59, 0
5, 113280, Note_on_c, 4, 60, 80
5, 113519, Note_on_c, 4, 60, 0
5, 113520, Note_on_c, 4, 60, 80
5, 113759, Note_on_c, 4, 60, 0
5, 113760, Note_on_c, 4, 64, 80
5, 113760, Note_on_c, 4, 67, 80
5, 113760, Note_on_c, 4, 72, 80
5, 113999, Note_on_c, 4, 64, 0
5, 113999, Note_on_c, 4, 67, 0
5, 113999, Note_on_c, 4, 72, 0
5, 114000, Note_on_c, 4, 60, 80
5, 114239, Note_on_c, 4, 60, 0
5, 114360, Note_on_c, 4, 64, 80
5, 114360, Note_on_c, 4, 67, 80
5, 114360, Note_on_c, 4, 72, 80
5, 114479, Note_on_c, 4, 64, 0
5, 114479, Note_on_c, 4, 67, 0
5, 114479, Note_on_c, 4, 72, 0
5, 114480, Note_on_c, 4, 60, 80
5, 114719, Note_on_c, 4, 60, 0
5, 114720, Note_on_c, 4, 64, 80
5, 114720, Note_on_c, 4, 67, 80
5, 114720, Note_on_c, 4, 72, 80
5, 114959, Note_on_c, 4, 64, 0
5, 114959, Note_on_c, 4, 67, 0
5, 114959, Note_on_c, 4, 72, 0
5, 114960, Note_on_c, 4, 60, 80
5, 115079, Note_on_c, 4, 60, 0
5, 115080, Note_on_c, 4, 64, 80
5, 115080, Note_on_c, 4, 67, 80
5, 115199, Note_on_c, 4, 64, 0
5, 115199, Note_on_c, 4, 67, 0
5, 115200, Note_on_c, 4, 57, 80
5, 115439, Note_on_c, 4, 57, 0
5, 115440, Note_on_c, 4, 57, 80
5, 115679, Note_on_c, 4, 57, 0
5, 115680, Note_on_c, 4, 62, 80
5, 115680, Note_on_c, 4, 65, 80
5, 115680, Note_on_c, 4, 69, 80
5, 115919, Note_on_c, 4, 62, 0
5, 115919, Note_on_c, 4, 65, 0
5, 115919, Note_on_c, 4, 69, 0
5, 115920, Note_on_c, 4, 57, 80
5, 116039, Note_on_c, 4, 57, 0
5, 116040, Note_on_c, 4, 55, 80
5, 116159, Note_on_c, 4, 55, 0
5, 116280, Note_on_c, 4, 59, 80
5, 116280, Note_on_c, 4, 62, 80
5, 116280, Note_on_c, 4, 67, 80
5, 116399, Note_on_c, 4, 59, 0
5, 116399, Note_on_c, 4, 62, 0
5, 116399, Note_on_c, 4, 67, 0
5, 116400, Note_on_c, 4, 55, 80
5, 116519, Note_on_c, 4, 55, 0
5, 116640, Note_on_c, 4, 59, 80
5, 116640, Note_on_c, 4, 62, 80
5, 116640, Note_on_c, 4, 67, 80
5, 116879, Note_on_c, 4, 59, 0
5, 116879, Note_on_c, 4, 62, 0
5, 116879, Note_on_c, 4, 67, 0
5, 116880, Note_on_c, 4, 67, 80
5, 116999, Note_on_c, 4, 67, 0
5, 117000, Note_on_c, 4, 59, 80
5, 117119, Note_on_c, 4, 59, 0
5, 117120, Note_on_c, 4, 60, 80
5, 117359, Note_on_c, 4, 60, 0
5, 117360, Note_on_c, 4, 60, 80
5, 117599, Note_on_c, 4, 60, 0
5, 117600, Note_on_c, 4, 64, 80
5, 117600, Note_on_c, 4, 67, 80
5, 117600, Note_on_c, 4, 72, 80
5, 117839, Note_on_c, 4, 64, 0
5, 117839, Note_on_c, 4, 67, 0
5, 117839, Note_on_c, 4, 72, 0
5, 117840, Note_on_c, 4, 60, 80
5, 118079, Note_on_c, 4, 60, 0
5, 118200, Note_on_c, 4, 64, 80
5, 118200, Note_on_c, 4, 67, 80
5, 118200, Note_on_c, 4, 72, 80
5, 118319, Note_on_c, 4, 64, 0
5, 118319, Note_on_c, 4, 67, 0
5, 118319, Note_on_c, 4, 72, 0
5, 118320, Note_on_c, 4, 60, 80
5, 118559, Note_on_c, 4, 60, 0
5, 118560, Note_on_c, 4, 64, 80
5, 118560, Note_on_c, 4, 67, 80
5, 118560, Note_on_c, 4, 72, 80
5, 118799, Note_on_c, 4, 64, 0
5, 118799, Note_on_c, 4, 67, 0
5, 118799, Note_on_c, 4, 72, 0
5, 118800, Note_on_c, 4, 60, 80
5, 118919, Note_on_c, 4, 60, 0
5, 118920, Note_on_c, 4, 64, 80
5, 118920, Note_on_c, 4, 67, 80
5, 119039, Note_on_c, 4, 64, 0
5, 119039, Note_on_c, 4, 67, 0
5, 119040, Note_on_c, 4, 57, 80
5, 119279, Note_on_c, 4, 57, 0
5, 119280, Note_on_c, 4, 57, 80
5, 119519, Note_on_c, 4, 57, 0
5, 119520, Note_on_c, 4, 62, 80
5, 119520, Note_on_c, 4, 65, 80
5, 119520, Note_on_c, 4, 69, 80
5, 119759, Note_on_c, 4, 62, 0
5, 119759, Note_on_c, 4, 65, 0
5, 119759, Note_on_c, 4, 69, 0
5, 119760, Note_on_c, 4, 57, 80
5, 119879, Note_on_c, 4, 57, 0
5, 119880, Note_on_c, 4, 55, 80
5, 119999, Note_on_c, 4, 55, 0
5, 120120, Note_on_c, 4, 59, 80
5, 120120, Note_on_c, 4, 62, 80
5, 120120, Note_on_c, 4, 67, 80
5, 120239, Note_on_c, 4, 59, 0
5, 120239, Note_on_c, 4, 62, 0
5, 120239, Note_on_c, 4, 67, 0
5, 120240, Note_on_c, 4, 55, 80
5, 120359, Note_on_c, 4, 55, 0
5, 120480, Note_on_c, 4, 59, 80
5, 120480, Note_on_c, 4, 62, 80
5, 120480, Note_on_c, 4, 67, 80
5, 120719, Note_on_c, 4, 59, 0
5, 120719, Note_on_c, 4, 62, 0
5, 120719, Note_on_c, 4, 67, 0
5, 120720, Note_on_c, 4, 67, 80
5, 120839, Note_on_c, 4, 67, 0
5, 120840, Note_on_c, 4, 59, 80
5, 120959, Note_on_c, 4, 59, 0
5, 120960, Note_on_c, 4, 60, 80
5, 121199, Note_on_c, 4, 60, 0
5, 121200, Note_on_c, 4, 60, 80
5, 121439, Note_on_c, 4, 60, 0
5, 121440, Note_on_c, 4, 64, 80
5, 121440, Note_on_c, 4, 67, 80
5, 121440, Note_on_c, 4, 72, 80
5, 121679, Note_on_c, 4, 64, 0
5, 121679, Note_on_c, 4, 67, 0
5, 121679, Note_on_c, 4, 72, 0
5, 121680, Note_on_c, 4, 60, 80
5, 121919, Note_on_c, 4, 60, 0
5, 122040, Note_on_c, 4, 64, 80
5, 122040, Note_on_c, 4, 67, 80
5, 122040, Note_on_c, 4, 72, 80
5, 122159, Note_on_c, 4, 64, 0
5, 122159, Note_on_c, 4, 67, 0
5, 122159, Note_on_c, 4, 72, 0
5, 122160, Note_on_c, 4, 60, 80
5, 122399, Note_on_c, 4, 60, 0
5, 122400, Note_on_c, 4, 64, 80
5, 122400, Note_on_c, 4, 67, 80
5, 122400, Note_on_c, 4, 72, 80
5, 122639, Note_on_c, 4, 64, 0
5, 122639, Note_on_c, 4, 67, 0
5, 122639, Note_on_c, 4, 72, 0
5, 122640, Note_on_c, 4, 60, 80
5, 122759, Note_on_c, 4, 60, 0
5, 122760, Note_on_c, 4, 64, 80
5, 122760, Note_on_c, 4, 67, 80
5, 122879, Note_on_c, 4, 64, 0
5, 122879, Note_on_c, 4, 67, 0
5, 122880, Note_on_c, 4, 57, 80
5, 123119, Note_on_c, 4, 57, 0
5, 123120, Note_on_c, 4, 57, 80
5, 123359, Note_on_c, 4, 57, 0
5, 123360, Note_on_c, 4, 62, 80
5, 123360, Note_on_c, 4, 65, 80
5, 123360, Note_on_c, 4, 69, 80
5, 123599, Note_on_c, 4, 62, 0
5, 123599, Note_on_c, 4, 65, 0
5, 123599, Note_on_c, 4, 69, 0
5, 123600, Note_on_c, 4, 57, 80
5, 123719, Note_on_c, 4, 57, 0
5, 123720, Note_on_c, 4, 55, 80
5, 123839, Note_on_c, 4, 55, 0
5, 123960, Note_on_c, 4, 59, 80
5, 123960, Note_on_c, 4, 62, 80
5, 123960, Note_on_c, 4, 67, 80
5, 124079, Note_on_c, 4, 59, 0
5, 124079, Note_on_c, 4, 62, 0
5, 124079, Note_on_c, 4, 67, 0
5, 124080, Note_on_c, 4, 55, 80
5, 124199, Note_on_c, 4, 55, 0
5, 124320, Note_on_c, 4, 59, 80
5, 124320, Note_on_c, 4, 62, 80
5, 124320, Note_on_c, 4, 67, 80
5, 124559, Note_on_c, 4, 59, 0
5, 124559, Note_on_c, 4, 62, 0
5, 124559, Note_on_c, 4, 67, 0
5, 124560, Note_on_c, 4, 67, 80
5, 124679, Note_on_c, 4, 67, 0
5, 124680, Note_on_c, 4, 59, 80
5, 124799, Note_on_c, 4, 59, 0
5, 124800, Note_on_c, 4, 60, 80
5, 125039, Note_on_c, 4, 60, 0
5, 125040, Note_on_c, 4, 60, 80
5, 125279, Note_on_c, 4, 60, 0
5, 125280, Note_on_c, 4, 64, 80
5, 125280, Note_on_c, 4, 67, 80
5, 125280, Note_on_c, 4, 72, 80
5, 125519, Note_on_c, 4, 64, 0
5, 125519, Note_on_c, 4, 67, 0
5, 125519, Note_on_c, 4, 72, 0
5, 125520, Note_on_c, 4, 60, 80
5, 125759, Note_on_c, 4, 60, 0
5, 125880, Note_on_c, 4, 64, 80
5, 125880, Note_on_c, 4, 67, 80
5, 125880, Note_on_c, 4, 72, 80
5, 125999, Note_on_c, 4, 64, 0
5, 125999, Note_on_c, 4, 67, 0
5, 125999, Note_on_c, 4, 72, 0
5, 126000, Note_on_c, 4, 60, 80
5, 126239, Note_on_c, 4, 60, 0
5, 126240, Note_on_c, 4, 64, 80
5, 126240, Note_on_c, 4, 67, 80
5, 126240, Note_on_c, 4, 72, 80
5, 126479, Note_on_c, 4, 64, 0
5, 126479, Note_on_c, 4, 67, 0
5, 126479, Note_on_c, 4, 72, 0
5, 126480, Note_on_c, 4, 60, 80
5, 126599, Note_on_c, 4, 60, 0
5, 126600, Note_on_c, 4, 64, 80
5, 126600, Note_on_c, 4, 67, 80
5, 126719, Note_on_c, 4, 64, 0
5, 126719, Note_on_c, 4, 67, 0
5, 126720, Note_on_c, 4, 57, 80
5, 126959, Note_on_c, 4, 57, 0
5, 126960, Note_on_c, 4, 57, 80
5, 127199, Note_on_c, 4, 57, 0
5, 127200, Note_on_c, 4, 62, 80
5, 127200, Note_on_c, 4, 65, 80
5, 127200, Note_on_c, 4, 69, 80
5, 127439, Note_on_c, 4, 62, 0
5, 127439, Note_on_c, 4, 65, 0
5, 127439, Note_on_c, 4, 69, 0
5, 127440, Note_on_c, 4, 57, 80
5, 127559, Note_on_c, 4, 57, 0
5, 127560, Note_on_c, 4, 55, 80
5, 127679, Note_on_c, 4, 55, 0
5, 127800, Note_on_c, 4, 59, 80
5, 127800, Note_on_c, 4, 62, 80
5, 127800, Note_on_c, 4, 67, 80
5, 127919, Note_on_c, 4, 59, 0
5, 127919, Note_on_c, 4, 62, 0
5, 127919, Note_on_c, 4, 67, 0
5, 127920, Note_on_c, 4, 55, 80
5, 128039, Note_on_c, 4, 55, 0
5, 128160, Note_on_c, 4, 59, 80
5, 128160, Note_on_c, 4, 62, 80
5, 128160, Note_on_c, 4, 67, 80
5, 128399, Note_on_c, 4, 59, 0
5, 128399, Note_on_c, 4, 62, 0
5, 128399, Note_on_c, 4, 67, 0
5, 128400, Note_on_c, 4, 67, 80
5, 128519, Note_on_c, 4, 67, 0
5, 128520, Note_on_c, 4, 59, 80
5, 128639, Note_on_c, 4, 59, 0
5, 128640, Note_on_c, 4, 60, 80
5, 128879, Note_on_c, 4, 60, 0
5, 128880, Note_on_c, 4, 60, 80
5, 129119, Note_on_c, 4, 60, 0
5, 129120, Note_on_c, 4, 64, 80
5, 129120, Note_on_c, 4, 67, 80
5, 129120, Note_on_c, 4, 72, 80
5, 129359, Note_on_c, 4, 64, 0
5, 129359, Note_on_c, 4, 67, 0
5, 129359, Note_on_c, 4, 72, 0
5, 129360, Note_on_c, 4, 60, 80
5, 129599, Note_on_c, 4, 60, 0
5, 129720, Note_on_c, 4, 64, 80
5, 129720, Note_on_c, 4, 67, 80
5, 129720, Note_on_c, 4, 72, 80
5, 129839, Note_on_c, 4, 64, 0
5, 129839, Note_on_c, 4, 67, 0
5, 129839, Note_on_c, 4, 72, 0
5, 129840, Note_on_c, 4, 60, 80
5, 130079, Note_on_c, 4, 60, 0
5, 130080, Note_on_c, 4, 64, 80
5, 130080, Note_on_c, 4, 67, 80
5, 130080, Note_on_c, 4, 72, 80
5, 130319, Note_on_c, 4, 64, 0
5, 130319, Note_on_c, 4, 67, 0
5, 130319, Note_on_c, 4, 72, 0
5, 130320, Note_on_c, 4, 60, 80
5, 130439, Note_on_c, 4, 60, 0
5, 130440, Note_on_c, 4, 64, 80
5, 130440, Note_on_c, 4, 67, 80
5, 130559, Note_on_c, 4, 64, 0
5, 130559, Note_on_c, 4, 67, 0
5, 130560, Note_on_c, 4, 57, 80
5, 130799, Note_on_c, 4, 57, 0
5, 130800, Note_on_c, 4, 57, 80
5, 131039, Note_on_c, 4, 57, 0
5, 131040, Note_on_c, 4, 62, 80
5, 131040, Note_on_c, 4, 65, 80
5, 131040, Note_on_c, 4, 69, 80
5, 131279, Note_on_c, 4, 62, 0
5, 131279, Note_on_c, 4, 65, 0
5, 131279, Note_on_c, 4, 69, 0
5, 131280, Note_on_c, 4, 57, 80
5, 131399, Note_on_c, 4, 57, 0
5, 131400, Note_on_c, 4, 55, 80
5, 131519, Note_on_c, 4, 55, 0
5, 131640, Note_on_c, 4, 59, 80
5, 131640, Note_on_c, 4, 62, 80
5, 131640, Note_on_c, 4, 67, 80
5, 131759, Note_on_c, 4, 59, 0
5, 131759, Note_on_c, 4, 62, 0
5, 131759, Note_on_c, 4, 67, 0
5, 131760, Note_on_c, 4, 55, 80
5, 131879, Note_on_c, 4, 55, 0
5, 132000, Note_on_c, 4, 59, 80
5, 132000, Note_on_c, 4, 62, 80
5, 132000, Note_on_c, 4, 67, 80
5, 132239, Note_on_c, 4, 59, 0
5, 132239, Note_on_c, 4, 62, 0
5, 132239, Note_on_c, 4, 67, 0
5, 132240, Note_on_c, 4, 67, 80
5, 132359, Note_on_c, 4, 67, 0
5, 132360, Note_on_c, 4, 59, 80
5, 132479, Note_on_c, 4, 59, 0
5, 132480, Note_on_c, 4, 60, 80
5, 132480, Control_c, 4, 2, 80
5, 132719, Note_on_c, 4, 60, 0
5, 132720, Note_on_c, 4, 60, 80
5, 132720, Control_c, 4, 2, 80
5, 132959, Note_on_c, 4, 60, 0
5, 132960, Note_on_c, 4, 64, 80
5, 132960, Control_c, 4, 2, 80
5, 132960, Note_on_c, 4, 67, 80
5, 132960, Note_on_c, 4, 72, 80
5, 133199, Note_on_c, 4, 64, 0
5, 133199, Note_on_c, 4, 67, 0
5, 133199, Note_on_c, 4, 72, 0
5, 133200, Note_on_c, 4, 60, 80
5, 133200, Control_c, 4, 2, 80
5, 133439, Note_on_c, 4, 60, 0
5, 133560, Note_on_c, 4, 64, 80
5, 133560, Note_on_c, 4, 67, 80
5, 133560, Note_on_c, 4, 72, 80
5, 133679, Note_on_c, 4, 64, 0
5, 133679, Note_on_c, 4, 67, 0
5, 133679, Note_on_c, 4, 72, 0
5, 133680, Note_on_c, 4, 60, 80
5, 133919, Note_on_c, 4, 60, 0
5, 133920, Note_on_c, 4, 64, 80
5, 133920, Note_on_c, 4, 67, 80
5, 133920, Note_on_c, 4, 72, 80
5, 134159, Note_on_c, 4, 64, 0
5, 134159, Note_on_c, 4, 67, 0
5, 134159, Note_on_c, 4, 72, 0
5, 134160, Note_on_c, 4, 60, 80
5, 134279, Note_on_c, 4, 60, 0
5, 134280, Note_on_c, 4, 64, 80
5, 134280, Note_on_c, 4, 67, 80
5, 134399, Note_on_c, 4, 64, 0
5, 134399, Note_on_c, 4, 67, 0
5, 134400, Note_on_c, 4, 55, 80
5, 134400, Control_c, 4, 2, 80
5, 134400, Note_on_c, 4, 59, 80
5, 134400, Note_on_c, 4, 64, 80
5, 134639, Note_on_c, 4, 55, 0
5, 134639, Note_on_c, 4, 59, 0
5, 134639, Note_on_c, 4, 64, 0
5, 134640, Note_on_c, 4, 55, 80
5, 134640, Control_c, 4, 2, 80
5, 134640, Note_on_c, 4, 59, 80
5, 134640, Note_on_c, 4, 64, 80
5, 135119, Note_on_c, 4, 55, 0
5, 135119, Note_on_c, 4, 59, 0
5, 135119, Note_on_c, 4, 64, 0
5, 135120, Note_on_c, 4, 57, 80
5, 135120, Control_c, 4, 2, 80
5, 135120, Note_on_c, 4, 60, 80
5, 135120, Note_on_c, 4, 65, 80
5, 135359, Note_on_c, 4, 57, 0
5, 135359, Note_on_c, 4, 60, 0
5, 135359, Note_on_c, 4, 65, 0
5, 135600, Note_on_c, 4, 57, 80
5, 135600, Control_c, 4, 2, 80
5, 135600, Note_on_c, 4, 60, 80
5, 135600, Note_on_c, 4, 65, 80
5, 135839, Note_on_c, 4, 57, 0
5, 135839, Note_on_c, 4, 60, 0
5, 135839, Note_on_c, 4, 65, 0
5, 136080, Note_on_c, 4, 57, 80
5, 136080, Control_c, 4, 2, 80
5, 136080, Note_on_c, 4, 60, 80
5, 136080, Note_on_c, 4, 65, 80
5, 136319, Note_on_c, 4, 57, 0
5, 136319, Note_on_c, 4, 60, 0
5, 136319, Note_on_c, 4, 65, 0
5, 136320, Note_on_c, 4, 60, 80
5, 136559, Note_on_c, 4, 60, 0
5, 136560, Note_on_c, 4, 60, 80
5, 136799, Note_on_c, 4, 60, 0
5, 136800, Note_on_c, 4, 64, 80
5, 136800, Note_on_c, 4, 67, 80
5, 136800, Note_on_c, 4, 72, 80
5, 137039, Note_on_c, 4, 64, 0
5, 137039, Note_on_c, 4, 67, 0
5, 137039, Note_on_c, 4, 72, 0
5, 137040, Note_on_c, 4, 60, 80
5, 137279, Note_on_c, 4, 60, 0
5, 137400, Note_on_c, 4, 64, 80
5, 137400, Note_on_c, 4, 67, 80
5, 137400, Note_on_c, 4, 72, 80
5, 137519, Note_on_c, 4, 64, 0
5, 137519, Note_on_c, 4, 67, 0
5, 137519, Note_on_c, 4, 72, 0
5, 137520, Note_on_c, 4, 60, 80
5, 137759, Note_on_c, 4, 60, 0
5, 137760, Note_on_c, 4, 64, 80
5, 137760, Note_on_c, 4, 67, 80
5, 137760, Note_on_c, 4, 72, 80
5, 137999, Note_on_c, 4, 64, 0
5, 137999, Note_on_c, 4, 67, 0
5, 137999, Note_on_c, 4, 72, 0
5, 138000, Note_on_c, 4, 60, 80
5, 138119, Note_on_c, 4, 60, 0
5, 138120, Note_on_c, 4, 64, 80
5, 138120, Note_on_c, 4, 67, 80
5, 138239, Note_on_c, 4, 64, 0
5, 138239, Note_on_c, 4, 67, 0
5, 138240, Note_on_c, 4, 57, 80
5, 138479, Note_on_c, 4, 57, 0
5, 138480, Note_on_c, 4, 57, 80
5, 138719, Note_on_c, 4, 57, 0
5, 138720, Note_on_c, 4, 62, 80
5, 138720, Note_on_c, 4, 65, 80
5, 138720, Note_on_c, 4, 69, 80
5, 138959, Note_on_c, 4, 62, 0
5, 138959, Note_on_c, 4, 65, 0
5, 138959, Note_on_c, 4, 69, 0
5, 138960, Note_on_c, 4, 57, 80
5, 139079, Note_on_c, 4, 57, 0
5, 139080, Note_on_c, 4, 55, 80
5, 139199, Note_on_c, 4, 55, 0
5, 139320, Note_on_c, 4, 59, 80
5, 139320, Note_on_c, 4, 62, 80
5, 139320, Note_on_c, 4, 67, 80
5, 139439, Note_on_c, 4, 59, 0
5, 139439, Note_on_c, 4, 62, 0
5, 139439, Note_on_c, 4, 67, 0
5, 139440, Note_on_c, 4, 55, 80
5, 139559, Note_on_c, 4, 55, 0
5, 139680, Note_on_c, 4, 59, 80
5, 139680, Note_on_c, 4, 62, 80
5, 139680, Note_on_c, 4, 67, 80
5, 139919, Note_on_c, 4, 59, 0
5, 139919, Note_on_c, 4, 62, 0
5, 139919, Note_on_c, 4, 67, 0
5, 139920, Note_on_c, 4, 67, 80
5, 140039, Note_on_c, 4, 67, 0
5, 140040, Note_on_c, 4, 59, 80
5, 140159, Note_on_c, 4, 59, 0
5, 140160, Note_on_c, 4, 60, 80
5, 140160, Control_c, 4, 2, 80
5, 140399, Note_on_c, 4, 60, 0
5, 140400, Note_on_c, 4, 60, 80
5, 140400, Control_c, 4, 2, 80
5, 140639, Note_on_c, 4, 60, 0
5, 140640, Note_on_c, 4, 64, 80
5, 140640, Control_c, 4, 2, 80
5, 140640, Note_on_c, 4, 67, 80
5, 140640, Note_on_c, 4, 72, 80
5, 140879, Note_on_c, 4, 64, 0
5, 140879, Note_on_c, 4, 67, 0
5, 140879, Note_on_c, 4, 72, 0
5, 140880, Note_on_c, 4, 60, 80
5, 140880, Control_c, 4, 2, 80
5, 141119, Note_on_c, 4, 60, 0
5, 141240, Note_on_c, 4, 64, 80
5, 141240, Note_on_c, 4, 67, 80
5, 141240, Note_on_c, 4, 72, 80
5, 141359, Note_on_c, 4, 64, 0
5, 141359, Note_on_c, 4, 67, 0
5, 141359, Note_on_c, 4, 72, 0
5, 141360, Note_on_c, 4, 60, 80
5, 141599, Note_on_c, 4, 60, 0
5, 141600, Note_on_c, 4, 64, 80
5, 141600, Note_on_c, 4, 67, 80
5, 141600, Note_on_c, 4, 72, 80
5, 141839, Note_on_c, 4, 64, 0
5, 141839, Note_on_c, 4, 67, 0
5, 141839, Note_on_c, 4, 72, 0
5, 141840, Note_on_c, 4, 60, 80
5, 141959, Note_on_c, 4, 60, 0
5, 141960, Note_on_c, 4, 64, 80
5, 141960, Note_on_c, 4, 67, 80
5, 142079, Note_on_c, 4, 64, 0
5, 142079, Note_on_c, 4, 67, 0
5, 142080, Note_on_c, 4, 55, 80
5, 142080, Control_c, 4, 2, 80
5, 142080, Note_on_c, 4, 59, 80
5, 142080, Note_on_c, 4, 64, 80
5, 142319, Note_on_c, 4, 55, 0
5, 142319, Note_on_c, 4, 59, 0
5, 142319, Note_on_c, 4, 64, 0
5, 142320, Note_on_c, 4, 55, 80
5, 142320, Control_c, 4, 2, 80
5, 142320, Note_on_c, 4, 59, 80
5, 142320, Note_on_c, 4, 64, 80
5, 142799, Note_on_c, 4, 55, 0
5, 142799, Note_on_c, 4, 59, 0
5, 142799, Note_on_c, 4, 64, 0
5, 142800, Note_on_c, 4, 57, 80
5, 142800, Control_c, 4, 2, 80
5, 142800, Note_on_c, 4, 60, 80
5, 142800, Note_on_c, 4, 65, 80
5, 143039, Note_on_c, 4, 57, 0
5, 143039, Note_on_c, 4, 60, 0
5, 143039, Note_on_c, 4, 65, 0
5, 143280, Note_on_c, 4, 57, 80
5, 143280, Control_c, 4, 2, 80
5, 143280, Note_on_c, 4, 60, 80
5, 143280, Note_on_c, 4, 65, 80
5, 143519, Note_on_c, 4, 57, 0
5, 143519, Note_on_c, 4, 60, 0
5, 143519, Note_on_c, 4, 65, 0
5, 143760, Note_on_c, 4, 57, 80
5, 143760, Control_c, 4, 2, 80
5, 143760, Note_on_c, 4, 60, 80
5, 143760, Note_on_c, 4, 65, 80
5, 143999, Note_on_c, 4, 57, 0
5, 143999, Note_on_c, 4, 60, 0
5, 143999, Note_on_c, 4, 65, 0
5, 144000, Note_on_c, 4, 60, 80
5, 144239, Note_on_c, 4, 60, 0
5, 144240, Note_on_c, 4, 60, 80
5, 144479, Note_on_c, 4, 60, 0
5, 144480, Note_on_c, 4, 64, 80
5, 144480, Note_on_c, 4, 67, 80
5, 144480, Note_on_c, 4, 72, 80
5, 144719, Note_on_c, 4, 64, 0
5, 144719, Note_on_c, 4, 67, 0
5, 144719, Note_on_c, 4, 72, 0
5, 144720, Note_on_c, 4, 60, 80
5, 144959, Note_on_c, 4, 60, 0
5, 145080, Note_on_c, 4, 64, 80
5, 145080, Note_on_c, 4, 67, 80
5, 145080, Note_on_c, 4, 72, 80
5, 145199, Note_on_c, 4, 64, 0
5, 145199, Note_on_c, 4, 67, 0
5, 145199, Note_on_c, 4, 72, 0
5, 145200, Note_on_c, 4, 60, 80
5, 145319, Note_on_c, 4, 60, 0
5, 145440, Note_on_c, 4, 64, 80
5, 145440, Note_on_c, 4, 67, 80
5, 145440, Note_on_c, 4, 72, 80
5, 145679, Note_on_c, 4, 64, 0
5, 145679, Note_on_c, 4, 67, 0
5, 145679, Note_on_c, 4, 72, 0
5, 145680, Note_on_c, 4, 60, 80
5, 145799, Note_on_c, 4, 60, 0
5, 145800, Note_on_c, 4, 64, 80
5, 145800, Note_on_c, 4, 67, 80
5, 145919, Note_on_c, 4, 64, 0
5, 145919, Note_on_c, 4, 67, 0
5, 145920, Note_on_c, 4, 55, 80
5, 146159, Note_on_c, 4, 55, 0
5, 146160, Note_on_c, 4, 55, 80
5, 146399, Note_on_c, 4, 55, 0
5, 146400, Note_on_c, 4, 59, 80
5, 146400, Note_on_c, 4, 62, 80
5, 146400, Note_on_c, 4, 67, 80
5, 146639, Note_on_c, 4, 59, 0
5, 146639, Note_on_c, 4, 62, 0
5, 146639, Note_on_c, 4, 67, 0
5, 146640, Note_on_c, 4, 55, 80
5, 146759, Note_on_c, 4, 55, 0
5, 146760, Note_on_c, 4, 55, 80
5, 146879, Note_on_c, 4, 55, 0
5, 147000, Note_on_c, 4, 59, 80
5, 147000, Note_on_c, 4, 62, 80
5, 147000, Note_on_c, 4, 67, 80
5, 147119, Note_on_c, 4, 59, 0
5, 147119, Note_on_c, 4, 62, 0
5, 147119, Note_on_c, 4, 67, 0
5, 147120, Note_on_c, 4, 55, 80
5, 147239, Note_on_c, 4, 55, 0
5, 147360, Note_on_c, 4, 59, 80
5, 147360, Note_on_c, 4, 62, 80
5, 147360, Note_on_c, 4, 67, 80
5, 147599, Note_on_c, 4, 59, 0
5, 147599, Note_on_c, 4, 62, 0
5, 147599, Note_on_c, 4, 67, 0
5, 147600, Note_on_c, 4, 67, 80
5, 147719, Note_on_c, 4, 67, 0
5, 147720, Note_on_c, 4, 59, 80
5, 147839, Note_on_c, 4, 59, 0
5, 147840, Note_on_c, 4, 60, 80
5, 148079, Note_on_c, 4, 60, 0
5, 148080, Note_on_c, 4, 60, 80
5, 148319, Note_on_c, 4, 60, 0
5, 148320, Note_on_c, 4, 64, 80
5, 148320, Note_on_c, 4, 67, 80
5, 148320, Note_on_c, 4, 72, 80
5, 148559, Note_on_c, 4, 64, 0
5, 148559, Note_on_c, 4, 67, 0
5, 148559, Note_on_c, 4, 72, 0
5, 148560, Note_on_c, 4, 60, 80
5, 148799, Note_on_c, 4, 60, 0
5, 148920, Note_on_c, 4, 64, 80
5, 148920, Note_on_c, 4, 67, 80
5, 148920, Note_on_c, 4, 72, 80
5, 149039, Note_on_c, 4, 64, 0
5, 149039, Note_on_c, 4, 67, 0
5, 149039, Note_on_c, 4, 72, 0
5, 149040, Note_on_c, 4, 60, 80
5, 149159, Note_on_c, 4, 60, 0
5, 149280, Note_on_c, 4, 64, 80
5, 149280, Note_on_c, 4, 67, 80
5, 149280, Note_on_c, 4, 72, 80
5, 149519, Note_on_c, 4, 64, 0
5, 149519, Note_on_c, 4, 67, 0
5, 149519, Note_on_c, 4, 72, 0
5, 149520, Note_on_c, 4, 60, 80
5, 149639, Note_on_c, 4, 60, 0
5, 149640, Note_on_c, 4, 64, 80
5, 149640, Note_on_c, 4, 67, 80
5, 149759, Note_on_c, 4, 64, 0
5, 149759, Note_on_c, 4, 67, 0
5, 149760, Note_on_c, 4, 57, 80
5, 149999, Note_on_c, 4, 57, 0
5, 150000, Note_on_c, 4, 57, 80
5, 150239, Note_on_c, 4, 57, 0
5, 150240, Note_on_c, 4, 62, 80
5, 150240, Note_on_c, 4, 65, 80
5, 150240, Note_on_c, 4, 69, 80
5, 150479, Note_on_c, 4, 62, 0
5, 150479, Note_on_c, 4, 65, 0
5, 150479, Note_on_c, 4, 69, 0
5, 150480, Note_on_c, 4, 57, 80
5, 150599, Note_on_c, 4, 57, 0
5, 150600, Note_on_c, 4, 55, 80
5, 150719, Note_on_c, 4, 55, 0
5, 150840, Note_on_c, 4, 59, 80
5, 150840, Note_on_c, 4, 62, 80
5, 150840, Note_on_c, 4, 67, 80
5, 150959, Note_on_c, 4, 59, 0
5, 150959, Note_on_c, 4, 62, 0
5, 150959, Note_on_c, 4, 67, 0
5, 150960, Note_on_c, 4, 55, 80
5, 150960, Control_c, 4, 2, 80
5, 151079, Note_on_c, 4, 55, 0
5, 151200, Note_on_c, 4, 59, 80
5, 151200, Control_c, 4, 2, 80
5, 151200, Note_on_c, 4, 62, 80
5, 151200, Note_on_c, 4, 67, 80
5, 151439, Note_on_c, 4, 59, 0
5, 151439, Note_on_c, 4, 62, 0
5, 151439, Note_on_c, 4, 67, 0
5, 151440, Note_on_c, 4, 67, 80
5, 151440, Control_c, 4, 2, 80
5, 151559, Note_on_c, 4, 67, 0
5, 151560, Note_on_c, 4, 59, 80
5, 151679, Note_on_c, 4, 59, 0
5, 151680, Note_on_c, 4, 60, 80
5, 151680, Control_c, 4, 2, 80
5, 151919, Note_on_c, 4, 60, 0
5, 151920, Note_on_c, 4, 60, 80
5, 152159, Note_on_c, 4, 60, 0
5, 152160, Note_on_c, 4, 64, 80
5, 152160, Control_c, 4, 2, 80
5, 152160, Note_on_c, 4, 67, 80
5, 152160, Note_on_c, 4, 72, 80
5, 152399, Note_on_c, 4, 64, 0
5, 152399, Note_on_c, 4, 67, 0
5, 152399, Note_on_c, 4, 72, 0
5, 152400, Note_on_c, 4, 60, 80
5, 152639, Note_on_c, 4, 60, 0
5, 152760, Note_on_c, 4, 64, 80
5, 152760, Note_on_c, 4, 67, 80
5, 152760, Note_on_c, 4, 72, 80
5, 152879, Note_on_c, 4, 64, 0
5, 152879, Note_on_c, 4, 67, 0
5, 152879, Note_on_c, 4, 72, 0
5, 152880, Note_on_c, 4, 60, 80
5, 152999, Note_on_c, 4, 60, 0
5, 153120, Note_on_c, 4, 64, 80
5, 153120, Note_on_c, 4, 67, 80
5, 153120, Note_on_c, 4, 72, 80
5, 153359, Note_on_c, 4, 64, 0
5, 153359, Note_on_c, 4, 67, 0
5, 153359, Note_on_c, 4, 72, 0
5, 153360, Note_on_c, 4, 60, 80
5, 153479, Note_on_c, 4, 60, 0
5, 153480, Note_on_c, 4, 64, 80
5, 153480, Note_on_c, 4, 67, 80
5, 153599, Note_on_c, 4, 64, 0
5, 153599, Note_on_c, 4, 67, 0
5, 153600, Note_on_c, 4, 57, 80
5, 153839, Note_on_c, 4, 57, 0
5, 153840, Note_on_c, 4, 57, 80
5, 154079, Note_on_c, 4, 57, 0
5, 154080, Note_on_c, 4, 62, 80
5, 154080, Note_on_c, 4, 65, 80
5, 154080, Note_on_c, 4, 69, 80
5, 154319, Note_on_c, 4, 62, 0
5, 154319, Note_on_c, 4, 65, 0
5, 154319, Note_on_c, 4, 69, 0
5, 154320, Note_on_c, 4, 57, 80
5, 154320, Control_c, 4, 2, 80
5, 154439, Note_on_c, 4, 57, 0
5, 154440, Note_on_c, 4, 55, 80
5, 154559, Note_on_c, 4, 55, 0
5, 154680, Note_on_c, 4, 59, 80
5, 154680, Control_c, 4, 2, 80
5, 154680, Note_on_c, 4, 62, 80
5, 154680, Note_on_c, 4, 67, 80
5, 154799, Note_on_c, 4, 59, 0
5, 154799, Note_on_c, 4, 62, 0
5, 154799, Note_on_c, 4, 67, 0
5, 154800, Note_on_c, 4, 55, 80
5, 154800, Control_c, 4, 2, 80
5, 154919, Note_on_c, 4, 55, 0
5, 155040, Note_on_c, 4, 59, 80
5, 155040, Control_c, 4, 2, 80
5, 155040, Note_on_c, 4, 62, 80
5, 155040, Note_on_c, 4, 67, 80
5, 155279, Note_on_c, 4, 59, 0
5, 155279, Note_on_c, 4, 62, 0
5, 155279, Note_on_c, 4, 67, 0
5, 155280, Note_on_c, 4, 67, 80
5, 155399, Note_on_c, 4, 67, 0
5, 155400, Note_on_c, 4, 59, 80
5, 155519, Note_on_c, 4, 59, 0
5, 155520, Note_on_c, 4, 60, 80
5, 155759, Note_on_c, 4, 60, 0
5, 155760, Note_on_c, 4, 60, 80
5, 155999, Note_on_c, 4, 60, 0
5, 156000, Note_on_c, 4, 64, 80
5, 156000, Note_on_c, 4, 67, 80
5, 156000, Note_on_c, 4, 72, 80
5, 156239, Note_on_c, 4, 64, 0
5, 156239, Note_on_c, 4, 67, 0
5, 156239, Note_on_c, 4, 72, 0
5, 156240, Note_on_c, 4, 60, 80
5, 156479, Note_on_c, 4, 60, 0
5, 156600, Note_on_c, 4, 64, 80
5, 156600, Note_on_c, 4, 67, 80
5, 156600, Note_on_c, 4, 72, 80
5, 156719, Note_on_c, 4, 64, 0
5, 156719, Note_on_c, 4, 67, 0
5, 156719, Note_on_c, 4, 72, 0
5, 156720, Note_on_c, 4, 60, 80
5, 156839, Note_on_c, 4, 60, 0
5, 156960, Note_on_c, 4, 64, 80
5, 156960, Note_on_c, 4, 67, 80
5, 156960, Note_on_c, 4, 72, 80
5, 157199, Note_on_c, 4, 64, 0
5, 157199, Note_on_c, 4, 67, 0
5, 157199, Note_on_c, 4, 72, 0
5, 157200, Note_on_c, 4, 60, 80
5, 157319, Note_on_c, 4, 60, 0
5, 157320, Note_on_c, 4, 64, 80
5, 157320, Note_on_c, 4, 67, 80
5, 157439, Note_on_c, 4, 64, 0
5, 157439, Note_on_c, 4, 67, 0
5, 157440, Note_on_c, 4, 57, 80
5, 157679, Note_on_c, 4, 57, 0
5, 157680, Note_on_c, 4, 57, 80
5, 157919, Note_on_c, 4, 57, 0
5, 157920, Note_on_c, 4, 62, 80
5, 157920, Note_on_c, 4, 65, 80
5, 157920, Note_on_c, 4, 69, 80
5, 158159, Note_on_c, 4, 62, 0
5, 158159, Note_on_c, 4, 65, 0
5, 158159, Note_on_c, 4, 69, 0
5, 158160, Note_on_c, 4, 57, 80
5, 158279, Note_on_c, 4, 57, 0
5, 158280, Note_on_c, 4, 55, 80
5, 158399, Note_on_c, 4, 55, 0
5, 158520, Note_on_c, 4, 59, 80
5, 158520, Note_on_c, 4, 62, 80
5, 158520, Note_on_c, 4, 67, 80
5, 158639, Note_on_c, 4, 59, 0
5, 158639, Note_on_c, 4, 62, 0
5, 158639, Note_on_c, 4, 67, 0
5, 158640, Note_on_c, 4, 55, 80
5, 158759, Note_on_c, 4, 55, 0
5, 158880, Note_on_c, 4, 59, 80
5, 158880, Note_on_c, 4, 62, 80
5, 158880, Note_on_c, 4, 67, 80
5, 159119, Note_on_c, 4, 59, 0
5, 159119, Note_on_c, 4, 62, 0
5, 159119, Note_on_c, 4, 67, 0
5, 159120, Note_on_c, 4, 67, 80
5, 159239, Note_on_c, 4, 67, 0
5, 159240, Note_on_c, 4, 59, 80
5, 159359, Note_on_c, 4, 59, 0
5, 159360, Note_on_c, 4, 60, 80
5, 159599, Note_on_c, 4, 60, 0
5, 159600, Note_on_c, 4, 60, 80
5, 159839, Note_on_c, 4, 60, 0
5, 159840, Note_on_c, 4, 64, 80
5, 159840, Note_on_c, 4, 67, 80
5, 159840, Note_on_c, 4, 72, 80
5, 160079, Note_on_c, 4, 64, 0
5, 160079, Note_on_c, 4, 67, 0
5, 160079, Note_on_c, 4, 72, 0
5, 160080, Note_on_c, 4, 60, 80
5, 160319, Note_on_c, 4, 60, 0
5, 160440, Note_on_c, 4, 64, 80
5, 160440, Note_on_c, 4, 67, 80
5, 160440, Note_on_c, 4, 72, 80
5, 160559, Note_on_c, 4, 64, 0
5, 160559, Note_on_c, 4, 67, 0
5, 160559, Note_on_c, 4, 72, 0
5, 160560, Note_on_c, 4, 60, 80
5, 160679, Note_on_c, 4, 60, 0
5, 160800, Note_on_c, 4, 64, 80
5, 160800, Note_on_c, 4, 67, 80
5, 160800, Note_on_c, 4, 72, 80
5, 161039, Note_on_c, 4, 64, 0
5, 161039, Note_on_c, 4, 67, 0
5, 161039, Note_on_c, 4, 72, 0
5, 161040, Note_on_c, 4, 60, 80
5, 161159, Note_on_c, 4, 60, 0
5, 161160, Note_on_c, 4, 64, 80
5, 161160, Note_on_c, 4, 67, 80
5, 161279, Note_on_c, 4, 64, 0
5, 161279, Note_on_c, 4, 67, 0
5, 161280, Note_on_c, 4, 57, 80
5, 161519, Note_on_c, 4, 57, 0
5, 161520, Note_on_c, 4, 57, 80
5, 161759, Note_on_c, 4, 57, 0
5, 161760, Note_on_c, 4, 62, 80
5, 161760, Note_on_c, 4, 65, 80
5, 161760, Note_on_c, 4, 69, 80
5, 161999, Note_on_c, 4, 62, 0
5, 161999, Note_on_c, 4, 65, 0
5, 161999, Note_on_c, 4, 69, 0
5, 162000, Note_on_c, 4, 57, 80
5, 162119, Note_on_c, 4, 57, 0
5, 162120, Note_on_c, 4, 55, 80
5, 162239, Note_on_c, 4, 55, 0
5, 162360, Note_on_c, 4, 59, 80
5, 162360, Note_on_c, 4, 62, 80
5, 162360, Note_on_c, 4, 67, 80
5, 162479, Note_on_c, 4, 59, 0
5, 162479, Note_on_c, 4, 62, 0
5, 162479, Note_on_c, 4, 67, 0
5, 162480, Note_on_c, 4, 55, 80
5, 162599, Note_on_c, 4, 55, 0
5, 162720, Note_on_c, 4, 59, 80
5, 162720, Note_on_c, 4, 62, 80
5, 162720, Note_on_c, 4, 67, 80
5, 162959, Note_on_c, 4, 59, 0
5, 162959, Note_on_c, 4, 62, 0
5, 162959, Note_on_c, 4, 67, 0
5, 162960, Note_on_c, 4, 67, 80
5, 163079, Note_on_c, 4, 67, 0
5, 163080, Note_on_c, 4, 59, 80
5, 163199, Note_on_c, 4, 59, 0
5, 163200, Note_on_c, 4, 55, 80
5, 163200, Note_on_c, 4, 60, 80
5, 163200, Note_on_c, 4, 64, 80
5, 163439, Note_on_c, 4, 55, 0
5, 163439, Note_on_c, 4, 60, 0
5, 163439, Note_on_c, 4, 64, 0
5, 163440, Note_on_c, 4, 55, 80
5, 163440, Note_on_c, 4, 60, 80
5, 163440, Note_on_c, 4, 64, 80
5, 163679, Note_on_c, 4, 55, 0
5, 163679, Note_on_c, 4, 60, 0
5, 163679, Note_on_c, 4, 64, 0
5, 163920, Note_on_c, 4, 55, 80
5, 163920, Note_on_c, 4, 60, 80
5, 163920, Note_on_c, 4, 64, 80
5, 164159, Note_on_c, 4, 55, 0
5, 164159, Note_on_c, 4, 60, 0
5, 164159, Note_on_c, 4, 64, 0
5, 164400, Note_on_c, 4, 55, 80
5, 164400, Note_on_c, 4, 60, 80
5, 164400, Note_on_c, 4, 64, 80
5, 164639, Note_on_c, 4, 55, 0
5, 164639, Note_on_c, 4, 60, 0
5, 164639, Note_on_c, 4, 64, 0
5, 165120, Note_on_c, 4, 57, 80
5, 165120, Note_on_c, 4, 60, 80
5, 165120, Note_on_c, 4, 65, 80
5, 165359, Note_on_c, 4, 57, 0
5, 165359, Note_on_c, 4, 60, 0
5, 165359, Note_on_c, 4, 65, 0
5, 165360, Note_on_c, 4, 57, 80
5, 165360, Note_on_c, 4, 60, 80
5, 165360, Note_on_c, 4, 65, 80
5, 165599, Note_on_c, 4, 57, 0
5, 165599, Note_on_c, 4, 60, 0
5, 165599, Note_on_c, 4, 65, 0
5, 165840, Note_on_c, 4, 59, 80
5, 165840, Note_on_c, 4, 62, 80
5, 165840, Note_on_c, 4, 67, 80
5, 166079, Note_on_c, 4, 59, 0
5, 166079, Note_on_c, 4, 62, 0
5, 166079, Note_on_c, 4, 67, 0
5, 166320, Note_on_c, 4, 59, 80
5, 166320, Note_on_c, 4, 62, 80
5, 166320, Note_on_c, 4, 67, 80
5, 166559, Note_on_c, 4, 59, 0
5, 166559, Note_on_c, 4, 62, 0
5, 166559, Note_on_c, 4, 67, 0
5, 166560, Note_on_c, 4, 59, 80
5, 166679, Note_on_c, 4, 59, 0
5, 166680, Note_on_c, 4, 62, 80
5, 166799, Note_on_c, 4, 62, 0
5, 166800, Note_on_c, 4, 64, 80
5, 166919, Note_on_c, 4, 64, 0
5, 166920, Note_on_c, 4, 59, 80
5, 167039, Note_on_c, 4, 59, 0
5, 167040, Note_on_c, 4, 60, 80
5, 167279, Note_on_c, 4, 60, 0
5, 167280, Note_on_c, 4, 60, 80
5, 167519, Note_on_c, 4, 60, 0
5, 167520, Note_on_c, 4, 72, 80
5, 167759, Note_on_c, 4, 72, 0
5, 167760, Note_on_c, 4, 60, 80
5, 167999, Note_on_c, 4, 60, 0
5, 168120, Note_on_c, 4, 72, 80
5, 168239, Note_on_c, 4, 72, 0
5, 168240, Note_on_c, 4, 60, 80
5, 168479, Note_on_c, 4, 60, 0
5, 168480, Note_on_c, 4, 72, 80
5, 168719, Note_on_c, 4, 72, 0
5, 168720, Note_on_c, 4, 60, 80
5, 168839, Note_on_c, 4, 60, 0
5, 168840, Note_on_c, 4, 67, 80
5, 168959, Note_on_c, 4, 67, 0
5, 168960, Note_on_c, 4, 57, 80
5, 169199, Note_on_c, 4, 57, 0
5, 169200, Note_on_c, 4, 57, 80
5, 169439, Note_on_c, 4, 57, 0
5, 169440, Note_on_c, 4, 69, 80
5, 169679, Note_on_c, 4, 69, 0
5, 169680, Note_on_c, 4, 57, 80
5, 169799, Note_on_c, 4, 57, 0
5, 169800, Note_on_c, 4, 55, 80
5, 169919, Note_on_c, 4, 55, 0
5, 170040, Note_on_c, 4, 67, 80
5, 170159, Note_on_c, 4, 67, 0
5, 170160, Note_on_c, 4, 55, 80
5, 170279, Note_on_c, 4, 55, 0
5, 170400, Note_on_c, 4, 67, 80
5, 170639, Note_on_c, 4, 67, 0
5, 170640, Note_on_c, 4, 67, 80
5, 170759, Note_on_c, 4, 67, 0
5, 170760, Note_on_c, 4, 59, 80
5, 170879, Note_on_c, 4, 59, 0
5, 170880, Note_on_c, 4, 60, 80
5, 171119, Note_on_c, 4, 60, 0
5, 171120, Note_on_c, 4, 60, 80
5, 171359, Note_on_c, 4, 60, 0
5, 171360, Note_on_c, 4, 72, 80
5, 171599, Note_on_c, 4, 72, 0
5, 171600, Note_on_c, 4, 60, 80
5, 171839, Note_on_c, 4, 60, 0
5, 171960, Note_on_c, 4, 72, 80
5, 172079, Note_on_c, 4, 72, 0
5, 172080, Note_on_c, 4, 60, 80
5, 172319, Note_on_c, 4, 60, 0
5, 172320, Note_on_c, 4, 72, 80
5, 172559, Note_on_c, 4, 72, 0
5, 172560, Note_on_c, 4, 60, 80
5, 172679, Note_on_c, 4, 60, 0
5, 172680, Note_on_c, 4, 67, 80
5, 172799, Note_on_c, 4, 67, 0
5, 172800, Note_on_c, 4, 57, 80
5, 173039, Note_on_c, 4, 57, 0
5, 173040, Note_on_c, 4, 57, 80
5, 173279, Note_on_c, 4, 57, 0
5, 173280, Note_on_c, 4, 69, 80
5, 173519, Note_on_c, 4, 69, 0
5, 173520, Note_on_c, 4, 57, 80
5, 173639, Note_on_c, 4, 57, 0
5, 173640, Note_on_c, 4, 55, 80
5, 173759, Note_on_c, 4, 55, 0
5, 173880, Note_on_c, 4, 67, 80
5, 173999, Note_on_c, 4, 67, 0
5, 174000, Note_on_c, 4, 55, 80
5, 174119, Note_on_c, 4, 55, 0
5, 174240, Note_on_c, 4, 67, 80
5, 174479, Note_on_c, 4, 67, 0
5, 174480, Note_on_c, 4, 67, 80
5, 174599, Note_on_c, 4, 67, 0
5, 174720, Note_on_c, 4, 60, 80
5, 174959, Note_on_c, 4, 60, 0
5, 174960, Note_on_c, 4, 60, 80
5, 175199, Note_on_c, 4, 60, 0
5, 175200, Note_on_c, 4, 72, 80
5, 175439, Note_on_c, 4, 72, 0
5, 175440, Note_on_c, 4, 60, 80
5, 175679, Note_on_c, 4, 60, 0
5, 175800, Note_on_c, 4, 72, 80
5, 175919, Note_on_c, 4, 72, 0
5, 175920, Note_on_c, 4, 60, 80
5, 176159, Note_on_c, 4, 60, 0
5, 176160, Note_on_c, 4, 72, 80
5, 176399, Note_on_c, 4, 72, 0
5, 176400, Note_on_c, 4, 60, 80
5, 176519, Note_on_c, 4, 60, 0
5, 176520, Note_on_c, 4, 64, 80
5, 176520, Note_on_c, 4, 67, 80
5, 176639, Note_on_c, 4, 64, 0
5, 176639, Note_on_c, 4, 67, 0
5, 176640, Note_on_c, 4, 57, 80
5, 176879, Note_on_c, 4, 57, 0
5, 176880, Note_on_c, 4, 57, 80
5, 177119, Note_on_c, 4, 57, 0
5, 177120, Note_on_c, 4, 69, 80
5, 177359, Note_on_c, 4, 69, 0
5, 177360, Note_on_c, 4, 57, 80
5, 177479, Note_on_c, 4, 57, 0
5, 177480, Note_on_c, 4, 55, 80
5, 177599, Note_on_c, 4, 55, 0
5, 177720, Note_on_c, 4, 67, 80
5, 177839, Note_on_c, 4, 67, 0
5, 177840, Note_on_c, 4, 55, 80
5, 177959, Note_on_c, 4, 55, 0
5, 178080, Note_on_c, 4, 67, 80
5, 178559, Note_on_c, 4, 67, 0
5, 178560, Key_signature, 0, "major"
5, 276480, Note_on_c, 4, 72, 80
5, 276480, Control_c, 4, 2, 80
5, 277439, Note_on_c, 4, 72, 0
5, 277440, Note_on_c, 4, 76, 80
5, 277919, Note_on_c, 4, 76, 0
5, 277920, Note_on_c, 4, 72, 80
5, 278399, Note_on_c, 4, 72, 0
5, 278400, Note_on_c, 4, 69, 80
5, 279359, Note_on_c, 4, 69, 0
5, 279360, Note_on_c, 4, 72, 80
5, 279360, Control_c, 4, 2, 80
5, 279839, Note_on_c, 4, 72, 0
5, 279840, Note_on_c, 4, 69, 80
5, 279840, Control_c, 4, 2, 80
5, 280319, Note_on_c, 4, 69, 0
5, 280320, Note_on_c, 4, 65, 80
5, 280320, Control_c, 4, 2, 80
5, 281279, Note_on_c, 4, 65, 0
5, 281280, Note_on_c, 4, 69, 80
5, 281759, Note_on_c, 4, 69, 0
5, 281760, Note_on_c, 4, 65, 80
5, 282239, Note_on_c, 4, 65, 0
5, 282240, Note_on_c, 4, 67, 80
5, 283199, Note_on_c, 4, 67, 0
5, 283200, Note_on_c, 4, 71, 80
5, 283679, Note_on_c, 4, 71, 0
5, 283680, Note_on_c, 4, 67, 80
5, 284159, Note_on_c, 4, 67, 0
5, 284160, Note_on_c, 4, 72, 80
5, 285119, Note_on_c, 4, 72, 0
5, 285120, Note_on_c, 4, 76, 80
5, 285599, Note_on_c, 4, 76, 0
5, 285600, Note_on_c, 4, 72, 80
5, 286079, Note_on_c, 4, 72, 0
5, 286080, Note_on_c, 4, 69, 80
5, 287039, Note_on_c, 4, 69, 0
5, 287040, Note_on_c, 4, 72, 80
5, 287040, Control_c, 4, 2, 80
5, 287519, Note_on_c, 4, 72, 0
5, 287520, Note_on_c, 4, 69, 80
5, 287520, Control_c, 4, 2, 80
5, 287999, Note_on_c, 4, 69, 0
5, 288000, Note_on_c, 4, 65, 80
5, 288000, Control_c, 4, 2, 80
5, 288959, Note_on_c, 4, 65, 0
5, 288960, Note_on_c, 4, 69, 80
5, 289439, Note_on_c, 4, 69, 0
5, 289440, Note_on_c, 4, 65, 80
5, 289919, Note_on_c, 4, 65, 0
5, 289920, Note_on_c, 4, 67, 80
5, 290879, Note_on_c, 4, 67, 0
5, 290880, Note_on_c, 4, 71, 80
5, 291359, Note_on_c, 4, 71, 0
5, 291360, Note_on_c, 4, 67, 80
5, 291839, Note_on_c, 4, 67, 0
5, 291840, Note_on_c, 4, 72, 80
5, 292799, Note_on_c, 4, 72, 0
5, 292800, Note_on_c, 4, 76, 80
5, 293279, Note_on_c, 4, 76, 0
5, 293280, Note_on_c, 4, 72, 80
5, 293759, Note_on_c, 4, 72, 0
5, 293760, Note_on_c, 4, 69, 80
5, 294719, Note_on_c, 4, 69, 0
5, 294720, Note_on_c, 4, 72, 80
5, 295199, Note_on_c, 4, 72, 0
5, 295200, Note_on_c, 4, 69, 80
5, 295679, Note_on_c, 4, 69, 0
5, 295680, Note_on_c, 4, 65, 80
5, 296639, Note_on_c, 4, 65, 0
5, 296640, Note_on_c, 4, 69, 80
5, 297119, Note_on_c, 4, 69, 0
5, 297120, Note_on_c, 4, 65, 80
5, 297599, Note_on_c, 4, 65, 0
5, 297600, Note_on_c, 4, 67, 80
5, 298559, Note_on_c, 4, 67, 0
5, 298560, Note_on_c, 4, 71, 80
5, 299039, Note_on_c, 4, 71, 0
5, 299040, Note_on_c, 4, 67, 80
5, 299519, Note_on_c, 4, 67, 0
5, 299520, Note_on_c, 4, 72, 80
5, 300479, Note_on_c, 4, 72, 0
5, 300480, Note_on_c, 4, 76, 80
5, 300959, Note_on_c, 4, 76, 0
5, 300960, Note_on_c, 4, 72, 80
5, 301439, Note_on_c, 4, 72, 0
5, 301440, Note_on_c, 4, 69, 80
5, 302399, Note_on_c, 4, 69, 0
5, 302400, Note_on_c, 4, 72, 80
5, 302879, Note_on_c, 4, 72, 0
5, 302880, Note_on_c, 4, 69, 80
5, 303359, Note_on_c, 4, 69, 0
5, 303360, Note_on_c, 4, 65, 80
5, 304319, Note_on_c, 4, 65, 0
5, 304320, Note_on_c, 4, 69, 80
5, 304799, Note_on_c, 4, 69, 0
5, 304800, Note_on_c, 4, 65, 80
5, 305279, Note_on_c, 4, 65, 0
5, 305280, Note_on_c, 4, 67, 80
5, 306239, Note_on_c, 4, 67, 0
5, 306240, Note_on_c, 4, 71, 80
5, 306719, Note_on_c, 4, 71, 0
5, 306720, Note_on_c, 4, 67, 80
5, 307199, Note_on_c, 4, 67, 0
5, 307200, Note_on_c, 4, 72, 80
5, 308159, Note_on_c, 4, 72, 0
5, 308160, Note_on_c, 4, 76, 80
5, 308639, Note_on_c, 4, 76, 0
5, 308640, Note_on_c, 4, 72, 80
5, 309119, Note_on_c, 4, 72, 0
5, 309120, Note_on_c, 4, 69, 80
5, 310079, Note_on_c, 4, 69, 0
5, 310080, Note_on_c, 4, 72, 80
5, 310559, Note_on_c, 4, 72, 0
5, 310560, Note_on_c, 4, 69, 80
5, 311039, Note_on_c, 4, 69, 0
5, 311040, Note_on_c, 4, 65, 80
5, 311999, Note_on_c, 4, 65, 0
5, 312000, Note_on_c, 4, 69, 80
5, 312479, Note_on_c, 4, 69, 0
5, 312480, Note_on_c, 4, 65, 80
5, 312959, Note_on_c, 4, 65, 0
5, 312960, Note_on_c, 4, 67, 80
5, 313919, Note_on_c, 4, 67, 0
5, 313920, Note_on_c, 4, 71, 80
5, 314399, Note_on_c, 4, 71, 0
5, 314400, Note_on_c, 4, 67, 80
5, 314879, Note_on_c, 4, 67, 0
5, 353040, Note_on_c, 4, 55, 80
5, 353040, Control_c, 4, 2, 80
5, 353279, Note_on_c, 4, 55, 0
5, 353280, Note_on_c, 4, 60, 80
5, 353280, Control_c, 4, 2, 80
5, 353519, Note_on_c, 4, 60, 0
5, 353520, Note_on_c, 4, 64, 80
5, 353520, Control_c, 4, 2, 80
5, 353520, Note_on_c, 4, 67, 80
5, 353759, Note_on_c, 4, 64, 0
5, 353759, Note_on_c, 4, 67, 0
5, 354000, Note_on_c, 4, 55, 80
5, 354000, Control_c, 4, 2, 80
5, 354239, Note_on_c, 4, 55, 0
5, 354240, Note_on_c, 4, 60, 80
5, 354240, Control_c, 4, 2, 80
5, 354479, Note_on_c, 4, 60, 0
5, 354480, Note_on_c, 4, 64, 80
5, 354480, Note_on_c, 4, 67, 80
5, 354719, Note_on_c, 4, 64, 0
5, 354719, Note_on_c, 4, 67, 0
5, 354960, Note_on_c, 4, 55, 80
5, 355199, Note_on_c, 4, 55, 0
5, 355200, Note_on_c, 4, 53, 80
5, 355200, Control_c, 4, 2, 80
5, 355439, Note_on_c, 4, 53, 0
5, 355440, Note_on_c, 4, 62, 80
5, 355440, Note_on_c, 4, 65, 80
5, 355440, Note_on_c, 4, 72, 80
5, 355679, Note_on_c, 4, 62, 0
5, 355679, Note_on_c, 4, 65, 0
5, 355679, Note_on_c, 4, 72, 0
5, 355920, Note_on_c, 4, 53, 80
5, 355920, Control_c, 4, 2, 80
5, 356159, Note_on_c, 4, 53, 0
5, 356160, Note_on_c, 4, 57, 80
5, 356160, Control_c, 4, 2, 80
5, 356399, Note_on_c, 4, 57, 0
5, 356400, Note_on_c, 4, 62, 80
5, 356400, Note_on_c, 4, 65, 80
5, 356639, Note_on_c, 4, 62, 0
5, 356639, Note_on_c, 4, 65, 0
5, 357120, Note_on_c, 4, 60, 80
5, 357120, Control_c, 4, 2, 80
5, 357359, Note_on_c, 4, 60, 0
5, 357360, Note_on_c, 4, 64, 80
5, 357360, Control_c, 4, 2, 80
5, 357360, Note_on_c, 4, 67, 80
5, 357599, Note_on_c, 4, 64, 0
5, 357599, Note_on_c, 4, 67, 0
5, 357840, Note_on_c, 4, 55, 80
5, 357840, Control_c, 4, 2, 80
5, 358079, Note_on_c, 4, 55, 0
5, 358080, Note_on_c, 4, 60, 80
5, 358080, Control_c, 4, 2, 80
5, 358319, Note_on_c, 4, 60, 0
5, 358320, Note_on_c, 4, 64, 80
5, 358320, Note_on_c, 4, 67, 80
5, 358559, Note_on_c, 4, 64, 0
5, 358559, Note_on_c, 4, 67, 0
5, 358800, Note_on_c, 4, 55, 80
5, 359039, Note_on_c, 4, 55, 0
5, 359040, Note_on_c, 4, 53, 80
5, 359040, Control_c, 4, 2, 80
5, 359279, Note_on_c, 4, 53, 0
5, 359280, Note_on_c, 4, 62, 80
5, 359280, Note_on_c, 4, 65, 80
5, 359280, Note_on_c, 4, 72, 80
5, 359519, Note_on_c, 4, 62, 0
5, 359519, Note_on_c, 4, 65, 0
5, 359519, Note_on_c, 4, 72, 0
5, 359760, Note_on_c, 4, 53, 80
5, 359760, Control_c, 4, 2, 80
5, 359999, Note_on_c, 4, 53, 0
5, 360000, Note_on_c, 4, 57, 80
5, 360000, Control_c, 4, 2, 80
5, 360239, Note_on_c, 4, 57, 0
5, 360240, Note_on_c, 4, 60, 80
5, 360240, Note_on_c, 4, 64, 80
5, 360479, Note_on_c, 4, 60, 0
5, 360479, Note_on_c, 4, 64, 0
5, 360960, Note_on_c, 4, 72, 80
5, 360960, Control_c, 4, 2, 80
5, 361199, Note_on_c, 4, 72, 0
5, 361200, Note_on_c, 4, 64, 80
5, 361200, Control_c, 4, 2, 80
5, 361200, Note_on_c, 4, 67, 80
5, 361439, Note_on_c, 4, 64, 0
5, 361439, Note_on_c, 4, 67, 0
5, 361680, Note_on_c, 4, 55, 80
5, 361680, Control_c, 4, 2, 80
5, 361919, Note_on_c, 4, 55, 0
5, 361920, Note_on_c, 4, 60, 80
5, 361920, Control_c, 4, 2, 80
5, 362159, Note_on_c, 4, 60, 0
5, 362160, Note_on_c, 4, 64, 80
5, 362160, Note_on_c, 4, 67, 80
5, 362399, Note_on_c, 4, 64, 0
5, 362399, Note_on_c, 4, 67, 0
5, 362640, Note_on_c, 4, 55, 80
5, 362879, Note_on_c, 4, 55, 0
5, 362880, Note_on_c, 4, 53, 80
5, 362880, Control_c, 4, 2, 80
5, 363119, Note_on_c, 4, 53, 0
5, 363120, Note_on_c, 4, 62, 80
5, 363120, Note_on_c, 4, 65, 80
5, 363120, Note_on_c, 4, 72, 80
5, 363359, Note_on_c, 4, 62, 0
5, 363359, Note_on_c, 4, 65, 0
5, 363359, Note_on_c, 4, 72, 0
5, 363600, Note_on_c, 4, 53, 80
5, 363600, Control_c, 4, 2, 80
5, 363839, Note_on_c, 4, 53, 0
5, 363840, Note_on_c, 4, 57, 80
5, 363840, Control_c, 4, 2, 80
5, 364079, Note_on_c, 4, 57, 0
5, 364080, Note_on_c, 4, 62, 80
5, 364080, Note_on_c, 4, 65, 80
5, 364319, Note_on_c, 4, 62, 0
5, 364319, Note_on_c, 4, 65, 0
5, 364800, Note_on_c, 4, 60, 80
5, 364800, Control_c, 4, 2, 80
5, 365039, Note_on_c, 4, 60, 0
5, 365040, Note_on_c, 4, 64, 80
5, 365040, Control_c, 4, 2, 80
5, 365040, Note_on_c, 4, 67, 80
5, 365279, Note_on_c, 4, 64, 0
5, 365279, Note_on_c, 4, 67, 0
5, 365520, Note_on_c, 4, 55, 80
5, 365520, Control_c, 4, 2, 80
5, 365759, Note_on_c, 4, 55, 0
5, 365760, Note_on_c, 4, 60, 80
5, 365760, Control_c, 4, 2, 80
5, 365999, Note_on_c, 4, 60, 0
5, 366000, Note_on_c, 4, 64, 80
5, 366000, Note_on_c, 4, 67, 80
5, 366239, Note_on_c, 4, 64, 0
5, 366239, Note_on_c, 4, 67, 0
5, 366480, Note_on_c, 4, 55, 80
5, 366719, Note_on_c, 4, 55, 0
5, 366720, Note_on_c, 4, 53, 80
5, 366720, Control_c, 4, 2, 80
5, 366959, Note_on_c, 4, 53, 0
5, 366960, Note_on_c, 4, 62, 80
5, 366960, Note_on_c, 4, 65, 80
5, 366960, Note_on_c, 4, 72, 80
5, 367199, Note_on_c, 4, 62, 0
5, 367199, Note_on_c, 4, 65, 0
5, 367199, Note_on_c, 4, 72, 0
5, 367440, Note_on_c, 4, 53, 80
5, 367440, Control_c, 4, 2, 80
5, 367679, Note_on_c, 4, 53, 0
5, 367680, Note_on_c, 4, 57, 80
5, 367680, Control_c, 4, 2, 80
5, 367919, Note_on_c, 4, 57, 0
5, 367920, Note_on_c, 4, 60, 80
5, 367920, Note_on_c, 4, 64, 80
5, 368159, Note_on_c, 4, 60, 0
5, 368159, Note_on_c, 4, 64, 0
5, 368640, Note_on_c, 4, 60, 80
5, 368640, Control_c, 4, 2, 80
5, 368879, Note_on_c, 4, 60, 0
5, 368880, Note_on_c, 4, 64, 80
5, 368880, Control_c, 4, 2, 80
5, 368880, Note_on_c, 4, 67, 80
5, 369119, Note_on_c, 4, 64, 0
5, 369119, Note_on_c, 4, 67, 0
5, 369360, Note_on_c, 4, 55, 80
5, 369360, Control_c, 4, 2, 80
5, 369599, Note_on_c, 4, 55, 0
5, 369600, Note_on_c, 4, 60, 80
5, 369600, Control_c, 4, 2, 80
5, 369839, Note_on_c, 4, 60, 0
5, 369840, Note_on_c, 4, 64, 80
5, 369840, Note_on_c, 4, 67, 80
5, 370079, Note_on_c, 4, 64, 0
5, 370079, Note_on_c, 4, 67, 0
5, 370320, Note_on_c, 4, 55, 80
5, 370559, Note_on_c, 4, 55, 0
5, 370560, Note_on_c, 4, 53, 80
5, 370560, Control_c, 4, 2, 80
5, 370799, Note_on_c, 4, 53, 0
5, 370800, Note_on_c, 4, 62, 80
5, 370800, Note_on_c, 4, 65, 80
5, 370800, Note_on_c, 4, 72, 80
5, 371039, Note_on_c, 4, 62, 0
5, 371039, Note_on_c, 4, 65, 0
5, 371039, Note_on_c, 4, 72, 0
5, 371280, Note_on_c, 4, 53, 80
5, 371280, Control_c, 4, 2, 80
5, 371519, Note_on_c, 4, 53, 0
5, 371520, Note_on_c, 4, 57, 80
5, 371520, Control_c, 4, 2, 80
5, 371759, Note_on_c, 4, 57, 0
5, 371760, Note_on_c, 4, 62, 80
5, 371760, Note_on_c, 4, 65, 80
5, 371999, Note_on_c, 4, 62, 0
5, 371999, Note_on_c, 4, 65, 0
5, 372480, Note_on_c, 4, 60, 80
5, 372480, Control_c, 4, 2, 80
5, 372719, Note_on_c, 4, 60, 0
5, 372720, Note_on_c, 4, 64, 80
5, 372720, Control_c, 4, 2, 80
5, 372720, Note_on_c, 4, 67, 80
5, 372959, Note_on_c, 4, 64, 0
5, 372959, Note_on_c, 4, 67, 0
5, 373200, Note_on_c, 4, 55, 80
5, 373200, Control_c, 4, 2, 80
5, 373439, Note_on_c, 4, 55, 0
5, 373440, Note_on_c, 4, 60, 80
5, 373440, Control_c, 4, 2, 80
5, 373679, Note_on_c, 4, 60, 0
5, 373680, Note_on_c, 4, 64, 80
5, 373680, Note_on_c, 4, 67, 80
5, 373919, Note_on_c, 4, 64, 0
5, 373919, Note_on_c, 4, 67, 0
5, 374160, Note_on_c, 4, 55, 80
5, 374399, Note_on_c, 4, 55, 0
5, 374400, Note_on_c, 4, 53, 80
5, 374400, Control_c, 4, 2, 80
5, 374639, Note_on_c, 4, 53, 0
5, 374640, Note_on_c, 4, 62, 80
5, 374640, Note_on_c, 4, 65, 80
5, 374640, Note_on_c, 4, 72, 80
5, 374879, Note_on_c, 4, 62, 0
5, 374879, Note_on_c, 4, 65, 0
5, 374879, Note_on_c, 4, 72, 0
5, 375120, Note_on_c, 4, 53, 80
5, 375120, Control_c, 4, 2, 80
5, 375359, Note_on_c, 4, 53, 0
5, 375360, Note_on_c, 4, 57, 80
5, 375360, Control_c, 4, 2, 80
5, 375599, Note_on_c, 4, 57, 0
5, 375600, Note_on_c, 4, 60, 80
5, 375600, Note_on_c, 4, 64, 80
5, 375839, Note_on_c, 4, 60, 0
5, 375839, Note_on_c, 4, 64, 0
5, 376560, Note_on_c, 4, 72, 80
5, 376560, Control_c, 4, 2, 80
5, 376799, Note_on_c, 4, 72, 0
5, 376800, Note_on_c, 4, 79, 80
5, 377039, Note_on_c, 4, 79, 0
5, 377040, Note_on_c, 4, 72, 80
5, 377279, Note_on_c, 4, 72, 0
5, 377520, Note_on_c, 4, 72, 80
5, 377759, Note_on_c, 4, 72, 0
5, 377760, Note_on_c, 4, 79, 80
5, 377999, Note_on_c, 4, 79, 0
5, 378000, Note_on_c, 4, 72, 80
5, 378239, Note_on_c, 4, 72, 0
5, 378480, Note_on_c, 4, 74, 80
5, 378719, Note_on_c, 4, 74, 0
5, 378720, Note_on_c, 4, 81, 80
5, 378959, Note_on_c, 4, 81, 0
5, 378960, Note_on_c, 4, 74, 80
5, 379199, Note_on_c, 4, 74, 0
5, 379440, Note_on_c, 4, 74, 80
5, 379679, Note_on_c, 4, 74, 0
5, 379680, Note_on_c, 4, 81, 80
5, 379919, Note_on_c, 4, 81, 0
5, 379920, Note_on_c, 4, 74, 80
5, 380159, Note_on_c, 4, 74, 0
5, 380400, Note_on_c, 4, 76, 80
5, 380639, Note_on_c, 4, 76, 0
5, 380640, Note_on_c, 4, 83, 80
5, 380879, Note_on_c, 4, 83, 0
5, 380880, Note_on_c, 4, 76, 80
5, 381119, Note_on_c, 4, 76, 0
5, 381360, Note_on_c, 4, 76, 80
5, 381599, Note_on_c, 4, 76, 0
5, 381600, Note_on_c, 4, 83, 80
5, 381839, Note_on_c, 4, 83, 0
5, 381840, Note_on_c, 4, 76, 80
5, 382079, Note_on_c, 4, 76, 0
5, 382320, Note_on_c, 4, 77, 80
5, 382559, Note_on_c, 4, 77, 0
5, 382560, Note_on_c, 4, 84, 80
5, 382799, Note_on_c, 4, 84, 0
5, 382800, Note_on_c, 4, 77, 80
5, 383039, Note_on_c, 4, 77, 0
5, 383280, Note_on_c, 4, 77, 80
5, 383519, Note_on_c, 4, 77, 0
5, 383520, Note_on_c, 4, 84, 80
5, 383759, Note_on_c, 4, 84, 0
5, 383760, Note_on_c, 4, 77, 80
5, 383999, Note_on_c, 4, 77, 0
5, 384240, Note_on_c, 4, 72, 80
5, 384479, Note_on_c, 4, 72, 0
5, 384480, Note_on_c, 4, 79, 80
5, 384719, Note_on_c, 4, 79, 0
5, 384720, Note_on_c, 4, 72, 80
5, 384959, Note_on_c, 4, 72, 0
5, 385200, Note_on_c, 4, 72, 80
5, 385439, Note_on_c, 4, 72, 0
5, 385440, Note_on_c, 4, 79, 80
5, 385679, Note_on_c, 4, 79, 0
5, 385680, Note_on_c, 4, 72, 80
5, 385919, Note_on_c, 4, 72, 0
5, 386160, Note_on_c, 4, 74, 80
5, 386399, Note_on_c, 4, 74, 0
5, 386400, Note_on_c, 4, 81, 80
5, 386639, Note_on_c, 4, 81, 0
5, 386640, Note_on_c, 4, 74, 80
5, 386879, Note_on_c, 4, 74, 0
5, 387120, Note_on_c, 4, 74, 80
5, 387359, Note_on_c, 4, 74, 0
5, 387360, Note_on_c, 4, 81, 80
5, 387599, Note_on_c, 4, 81, 0
5, 387600, Note_on_c, 4, 74, 80
5, 387839, Note_on_c, 4, 74, 0
5, 387840, Note_on_c, 4, 69, 80
5, 388079, Note_on_c, 4, 69, 0
5, 388080, Note_on_c, 4, 76, 80
5, 388319, Note_on_c, 4, 76, 0
5, 388320, Note_on_c, 4, 81, 80
5, 388559, Note_on_c, 4, 81, 0
5, 388560, Note_on_c, 4, 76, 80
5, 388799, Note_on_c, 4, 76, 0
5, 388800, Note_on_c, 4, 69, 80
5, 389039, Note_on_c, 4, 69, 0
5, 389040, Note_on_c, 4, 76, 80
5, 389279, Note_on_c, 4, 76, 0
5, 389280, Note_on_c, 4, 81, 80
5, 389519, Note_on_c, 4, 81, 0
5, 389520, Note_on_c, 4, 76, 80
5, 389759, Note_on_c, 4, 76, 0
5, 389760, Note_on_c, 4, 67, 80
5, 389999, Note_on_c, 4, 67, 0
5, 390000, Note_on_c, 4, 76, 80
5, 390239, Note_on_c, 4, 76, 0
5, 390240, Note_on_c, 4, 81, 80
5, 390479, Note_on_c, 4, 81, 0
5, 390480, Note_on_c, 4, 76, 80
5, 390719, Note_on_c, 4, 76, 0
5, 390720, Note_on_c, 4, 67, 80
5, 390959, Note_on_c, 4, 67, 0
5, 390960, Note_on_c, 4, 76, 80
5, 391199, Note_on_c, 4, 76, 0
5, 391200, Note_on_c, 4, 81, 80
5, 391439, Note_on_c, 4, 81, 0
5, 391440, Note_on_c, 4, 76, 80
5, 391679, Note_on_c, 4, 76, 0
5, 391680, Note_on_c, 4, 65, 80
5, 391919, Note_on_c, 4, 65, 0
5, 391920, Note_on_c, 4, 72, 80
5, 392159, Note_on_c, 4, 72, 0
5, 392160, Note_on_c, 4, 77, 80
5, 392399, Note_on_c, 4, 77, 0
5, 392400, Note_on_c, 4, 72, 80
5, 392639, Note_on_c, 4, 72, 0
5, 392640, Note_on_c, 4, 65, 80
5, 392879, Note_on_c, 4, 65, 0
5, 392880, Note_on_c, 4, 72, 80
5, 393119, Note_on_c, 4, 72, 0
5, 393120, Note_on_c, 4, 77, 80
5, 393359, Note_on_c, 4, 77, 0
5, 393360, Note_on_c, 4, 72, 80
5, 393599, Note_on_c, 4, 72, 0
5, 393600, Note_on_c, 4, 64, 80
5, 393839, Note_on_c, 4, 64, 0
5, 393840, Note_on_c, 4, 72, 80
5, 394079, Note_on_c, 4, 72, 0
5, 394080, Note_on_c, 4, 76, 80
5, 394319, Note_on_c, 4, 76, 0
5, 394320, Note_on_c, 4, 64, 80
5, 394559, Note_on_c, 4, 64, 0
5, 394560, Note_on_c, 4, 72, 80
5, 394799, Note_on_c, 4, 72, 0
5, 394800, Note_on_c, 4, 76, 80
5, 395039, Note_on_c, 4, 76, 0
5, 395040, Note_on_c, 4, 84, 80
5, 395519, Note_on_c, 4, 84, 0
5, 399360, Key_signature, 0, "major"
5, 399361, End_track
0, 0, End_of_file
