0, 0, Header, 1, 3, 480
1, 0, Start_track
1, 0, Title_t, "Piano, [Group 1]\000"
1, 0, Time_signature, 4, 2, 24, 8
1, 0, Key_signature, 0, "major"
1, 0, Tempo, 857143
1, 0, Control_c, 0, 121, 0
1, 0, Program_c, 0, 0
1, 0, Control_c, 0, 7, 100
1, 0, Control_c, 0, 10, 64
1, 0, Control_c, 0, 91, 0
1, 0, Control_c, 0, 93, 0
1, 0, MIDI_port, 0
1, 0, Note_on_c, 0, 69, 80
1, 0, Control_c, 1, 121, 0
1, 0, Program_c, 1, 0
1, 0, Control_c, 1, 7, 100
1, 0, Control_c, 1, 10, 64
1, 0, Control_c, 1, 91, 0
1, 0, Control_c, 1, 93, 0
1, 0, MIDI_port, 0
1, 2, Control_c, 0, 64, 127
1, 227, Note_on_c, 0, 69, 0
1, 240, Note_on_c, 0, 69, 80
1, 353, Note_on_c, 0, 69, 0
1, 360, Note_on_c, 0, 71, 80
1, 473, Note_on_c, 0, 71, 0
1, 480, Note_on_c, 0, 72, 80
1, 707, Note_on_c, 0, 72, 0
1, 720, Note_on_c, 0, 72, 80
1, 833, Note_on_c, 0, 72, 0
1, 840, Note_on_c, 0, 71, 80
1, 953, Note_on_c, 0, 71, 0
1, 960, Note_on_c, 0, 69, 80
1, 1200, Note_on_c, 0, 60, 80
1, 1313, Note_on_c, 0, 60, 0
1, 1320, Note_on_c, 0, 62, 80
1, 1433, Note_on_c, 0, 62, 0
1, 1440, Note_on_c, 0, 64, 80
1, 1680, Note_on_c, 0, 67, 80
1, 1680, Note_on_c, 0, 64, 0
1, 1680, Note_on_c, 1, 64, 0
1, 1871, Note_on_c, 0, 69, 0
1, 1907, Note_on_c, 0, 67, 0
1, 1920, Note_on_c, 0, 69, 80
1, 1920, Note_on_c, 0, 60, 80
1, 2147, Note_on_c, 0, 69, 0
1, 2160, Note_on_c, 0, 69, 80
1, 2273, Note_on_c, 0, 69, 0
1, 2280, Note_on_c, 0, 71, 80
1, 2393, Note_on_c, 0, 71, 0
1, 2400, Note_on_c, 0, 72, 80
1, 2627, Note_on_c, 0, 72, 0
1, 2640, Note_on_c, 0, 72, 80
1, 2753, Note_on_c, 0, 72, 0
1, 2760, Note_on_c, 0, 71, 80
1, 2873, Note_on_c, 0, 71, 0
1, 2880, Note_on_c, 0, 69, 80
1, 3107, Note_on_c, 0, 69, 0
1, 3120, Note_on_c, 0, 76, 80
1, 3287, Note_on_c, 0, 60, 0
1, 3347, Note_on_c, 0, 76, 0
1, 3360, Note_on_c, 0, 71, 80
1, 3360, Note_on_c, 0, 74, 80
1, 3599, Note_on_c, 0, 71, 0
1, 3599, Note_on_c, 0, 74, 0
1, 3840, Note_on_c, 0, 69, 80
1, 4067, Note_on_c, 0, 69, 0
1, 4080, Note_on_c, 0, 69, 80
1, 4193, Note_on_c, 0, 69, 0
1, 4200, Note_on_c, 0, 71, 80
1, 4313, Note_on_c, 0, 71, 0
1, 4320, Note_on_c, 0, 72, 80
1, 4547, Note_on_c, 0, 72, 0
1, 4560, Note_on_c, 0, 72, 80
1, 4673, Note_on_c, 0, 72, 0
1, 4680, Note_on_c, 0, 71, 80
1, 4793, Note_on_c, 0, 71, 0
1, 4800, Note_on_c, 0, 69, 80
1, 5040, Note_on_c, 0, 60, 80
1, 5153, Note_on_c, 0, 60, 0
1, 5160, Note_on_c, 0, 62, 80
1, 5273, Note_on_c, 0, 62, 0
1, 5280, Note_on_c, 0, 64, 80
1, 5520, Note_on_c, 0, 67, 80
1, 5520, Note_on_c, 0, 64, 0
1, 5520, Note_on_c, 1, 64, 0
1, 5711, Note_on_c, 0, 69, 0
1, 5747, Note_on_c, 0, 67, 0
1, 5760, Note_on_c, 0, 69, 80
1, 5760, Note_on_c, 0, 60, 80
1, 5760, Note_on_c, 0, 65, 80
1, 5987, Note_on_c, 0, 69, 0
1, 6000, Note_on_c, 0, 69, 80
1, 6113, Note_on_c, 0, 69, 0
1, 6120, Note_on_c, 0, 71, 80
1, 6233, Note_on_c, 0, 71, 0
1, 6240, Note_on_c, 0, 67, 80
1, 6240, Note_on_c, 0, 60, 0
1, 6240, Note_on_c, 1, 60, 0
1, 6467, Note_on_c, 0, 67, 0
1, 6480, Note_on_c, 0, 64, 80
1, 6539, Note_on_c, 0, 64, 0
1, 6600, Note_on_c, 0, 67, 80
1, 6671, Note_on_c, 0, 65, 0
1, 6713, Note_on_c, 0, 67, 0
1, 6720, Note_on_c, 0, 69, 80
1, 6720, Note_on_c, 0, 62, 80
1, 6720, Note_on_c, 0, 64, 80
1, 6840, Tempo, 869565
1, 7175, Note_on_c, 0, 69, 0
1, 7200, Note_on_c, 0, 71, 80
1, 7200, Note_on_c, 0, 62, 0
1, 7200, Note_on_c, 1, 62, 0
1, 7320, Tempo, 882353
1, 7631, Note_on_c, 0, 64, 0
1, 7655, Note_on_c, 0, 71, 0
1, 7680, Tempo, 857143
1, 7680, Note_on_c, 0, 60, 80
1, 7680, Note_on_c, 0, 64, 80
1, 7680, Note_on_c, 0, 69, 80
1, 7919, Note_on_c, 0, 69, 0
1, 7920, Note_on_c, 0, 76, 80
1, 8135, Note_on_c, 0, 60, 0
1, 8135, Note_on_c, 0, 64, 0
1, 8147, Note_on_c, 0, 76, 0
1, 8160, Note_on_c, 0, 74, 80
1, 8387, Note_on_c, 0, 74, 0
1, 8400, Note_on_c, 0, 76, 80
1, 8627, Note_on_c, 0, 76, 0
1, 8640, Note_on_c, 0, 72, 80
1, 8867, Note_on_c, 0, 72, 0
1, 8880, Note_on_c, 0, 76, 80
1, 9107, Note_on_c, 0, 76, 0
1, 9120, Note_on_c, 0, 72, 80
1, 9347, Note_on_c, 0, 72, 0
1, 9360, Note_on_c, 0, 71, 80
1, 9587, Note_on_c, 0, 71, 0
1, 9600, Note_on_c, 0, 60, 80
1, 9600, Note_on_c, 0, 64, 80
1, 9600, Note_on_c, 0, 69, 80
1, 9839, Note_on_c, 0, 69, 0
1, 9840, Note_on_c, 0, 76, 80
1, 10055, Note_on_c, 0, 60, 0
1, 10055, Note_on_c, 0, 64, 0
1, 10067, Note_on_c, 0, 76, 0
1, 10080, Note_on_c, 0, 74, 80
1, 10307, Note_on_c, 0, 74, 0
1, 10320, Note_on_c, 0, 76, 80
1, 10547, Note_on_c, 0, 76, 0
1, 10560, Note_on_c, 0, 72, 80
1, 10560, Note_on_c, 0, 62, 80
1, 10560, Note_on_c, 0, 67, 80
1, 10787, Note_on_c, 0, 72, 0
1, 10800, Note_on_c, 0, 76, 80
1, 11015, Note_on_c, 0, 62, 0
1, 11015, Note_on_c, 0, 67, 0
1, 11027, Note_on_c, 0, 76, 0
1, 11040, Note_on_c, 0, 72, 80
1, 11267, Note_on_c, 0, 72, 0
1, 11280, Note_on_c, 0, 71, 80
1, 11507, Note_on_c, 0, 71, 0
1, 11520, Note_on_c, 0, 69, 80
1, 11520, Note_on_c, 0, 60, 80
1, 11520, Note_on_c, 0, 64, 80
1, 11747, Note_on_c, 0, 69, 0
1, 11760, Note_on_c, 0, 76, 80
1, 11975, Note_on_c, 0, 60, 0
1, 11975, Note_on_c, 0, 64, 0
1, 11987, Note_on_c, 0, 76, 0
1, 12000, Note_on_c, 0, 74, 80
1, 12227, Note_on_c, 0, 74, 0
1, 12240, Note_on_c, 0, 76, 80
1, 12467, Note_on_c, 0, 76, 0
1, 12480, Note_on_c, 0, 72, 80
1, 12707, Note_on_c, 0, 72, 0
1, 12720, Note_on_c, 0, 76, 80
1, 12947, Note_on_c, 0, 76, 0
1, 12960, Note_on_c, 0, 72, 80
1, 13187, Note_on_c, 0, 72, 0
1, 13200, Note_on_c, 0, 71, 80
1, 13427, Note_on_c, 0, 71, 0
1, 13440, Note_on_c, 0, 69, 80
1, 13440, Note_on_c, 0, 60, 80
1, 13440, Note_on_c, 0, 64, 80
1, 13667, Note_on_c, 0, 69, 0
1, 13680, Note_on_c, 0, 71, 80
1, 13907, Note_on_c, 0, 71, 0
1, 13920, Note_on_c, 0, 69, 80
1, 13920, Note_on_c, 0, 60, 0
1, 13920, Note_on_c, 1, 60, 0
1, 14147, Note_on_c, 0, 69, 0
1, 14160, Note_on_c, 0, 67, 80
1, 14160, Note_on_c, 0, 64, 0
1, 14160, Note_on_c, 1, 64, 0
1, 14387, Note_on_c, 0, 67, 0
1, 14400, Note_on_c, 0, 62, 80
1, 14400, Note_on_c, 0, 69, 80
1, 14880, Note_on_c, 0, 62, 0
1, 14880, Note_on_c, 1, 62, 0
1, 15311, Note_on_c, 0, 69, 0
1, 15360, Note_on_c, 0, 69, 80
1, 15360, Note_on_c, 0, 60, 80
1, 15360, Note_on_c, 0, 64, 80
1, 15587, Note_on_c, 0, 69, 0
1, 15600, Note_on_c, 0, 69, 80
1, 15600, Note_on_c, 0, 64, 0
1, 15600, Note_on_c, 1, 64, 0
1, 15659, Note_on_c, 0, 69, 0
1, 15720, Note_on_c, 0, 69, 80
1, 15815, Note_on_c, 0, 60, 0
1, 15833, Note_on_c, 0, 69, 0
1, 15960, Note_on_c, 0, 69, 80
1, 16073, Note_on_c, 0, 69, 0
1, 16080, Note_on_c, 0, 71, 80
1, 16307, Note_on_c, 0, 71, 0
1, 16320, Note_on_c, 0, 67, 80
1, 17231, Note_on_c, 0, 67, 0
1, 17280, Note_on_c, 0, 57, 80
1, 17507, Note_on_c, 0, 57, 0
1, 17520, Note_on_c, 0, 69, 80
1, 17639, Note_on_c, 0, 69, 0
1, 17640, Note_on_c, 0, 69, 80
1, 17760, Note_on_c, 0, 57, 80
1, 17867, Note_on_c, 0, 69, 0
1, 17880, Note_on_c, 0, 69, 80
1, 17993, Note_on_c, 0, 69, 0
1, 17999, Note_on_c, 0, 57, 0
1, 18000, Note_on_c, 0, 71, 80
1, 18227, Note_on_c, 0, 71, 0
1, 18240, Note_on_c, 0, 67, 80
1, 18467, Note_on_c, 0, 67, 0
1, 18480, Note_on_c, 0, 64, 80
1, 18707, Note_on_c, 0, 64, 0
1, 18720, Note_on_c, 0, 60, 80
1, 18947, Note_on_c, 0, 60, 0
1, 18960, Note_on_c, 0, 59, 80
1, 19187, Note_on_c, 0, 59, 0
1, 19200, Note_on_c, 0, 69, 80
1, 19200, Note_on_c, 0, 60, 80
1, 19200, Note_on_c, 0, 64, 80
1, 19427, Note_on_c, 0, 69, 0
1, 19440, Note_on_c, 0, 69, 80
1, 19440, Note_on_c, 0, 64, 0
1, 19440, Note_on_c, 1, 64, 0
1, 19499, Note_on_c, 0, 69, 0
1, 19560, Note_on_c, 0, 69, 80
1, 19655, Note_on_c, 0, 60, 0
1, 19673, Note_on_c, 0, 69, 0
1, 19800, Note_on_c, 0, 69, 80
1, 19913, Note_on_c, 0, 69, 0
1, 19920, Note_on_c, 0, 71, 80
1, 20147, Note_on_c, 0, 71, 0
1, 20160, Note_on_c, 0, 67, 80
1, 21071, Note_on_c, 0, 67, 0
1, 21120, Note_on_c, 0, 65, 80
1, 21120, Note_on_c, 0, 74, 80
1, 21575, Note_on_c, 0, 65, 0
1, 21575, Note_on_c, 0, 74, 0
1, 21600, Note_on_c, 0, 64, 80
1, 21600, Note_on_c, 0, 72, 80
1, 22055, Note_on_c, 0, 64, 0
1, 22055, Note_on_c, 0, 72, 0
1, 22080, Note_on_c, 0, 67, 80
1, 22080, Note_on_c, 0, 71, 80
1, 22535, Note_on_c, 0, 67, 0
1, 22535, Note_on_c, 0, 71, 0
1, 22560, Note_on_c, 0, 64, 80
1, 22560, Note_on_c, 0, 69, 80
1, 23015, Note_on_c, 0, 64, 0
1, 23015, Note_on_c, 0, 69, 0
1, 23040, Note_on_c, 0, 60, 80
1, 23040, Note_on_c, 0, 71, 80
1, 23099, Note_on_c, 0, 71, 0
1, 23160, Note_on_c, 0, 69, 80
1, 23267, Note_on_c, 0, 60, 0
1, 23273, Note_on_c, 0, 69, 0
1, 23280, Note_on_c, 0, 57, 80
1, 23393, Note_on_c, 0, 57, 0
1, 23400, Note_on_c, 0, 59, 80
1, 23513, Note_on_c, 0, 59, 0
1, 23520, Note_on_c, 0, 60, 80
1, 23760, Note_on_c, 0, 57, 80
1, 23940, Note_on_c, 0, 64, 80
1, 23975, Note_on_c, 0, 60, 0
1, 23987, Note_on_c, 0, 57, 0
1, 23996, Note_on_c, 0, 64, 0
1, 24000, Note_on_c, 0, 76, 80
1, 24120, Tempo, 869565
1, 24600, Tempo, 882353
1, 24911, Note_on_c, 0, 76, 0
1, 24960, Tempo, 857143
1, 24960, Note_on_c, 0, 65, 80
1, 24960, Note_on_c, 0, 74, 80
1, 25415, Note_on_c, 0, 65, 0
1, 25415, Note_on_c, 0, 74, 0
1, 25440, Note_on_c, 0, 64, 80
1, 25440, Note_on_c, 0, 72, 80
1, 25895, Note_on_c, 0, 64, 0
1, 25895, Note_on_c, 0, 72, 0
1, 25920, Note_on_c, 0, 67, 80
1, 25920, Note_on_c, 0, 71, 80
1, 26040, Tempo, 869565
1, 26375, Note_on_c, 0, 67, 0
1, 26375, Note_on_c, 0, 71, 0
1, 26400, Note_on_c, 0, 64, 80
1, 26400, Note_on_c, 0, 69, 80
1, 26520, Tempo, 882353
1, 26627, Note_on_c, 0, 64, 0
1, 26627, Note_on_c, 0, 69, 0
1, 26760, Note_on_c, 0, 67, 80
1, 26873, Note_on_c, 0, 67, 0
1, 26880, Tempo, 857143
1, 26880, Note_on_c, 0, 60, 80
1, 26880, Note_on_c, 0, 71, 80
1, 26939, Note_on_c, 0, 71, 0
1, 27000, Note_on_c, 0, 69, 80
1, 27107, Note_on_c, 0, 60, 0
1, 27113, Note_on_c, 0, 69, 0
1, 27120, Note_on_c, 0, 57, 80
1, 27233, Note_on_c, 0, 57, 0
1, 27240, Note_on_c, 0, 59, 80
1, 27353, Note_on_c, 0, 59, 0
1, 27360, Note_on_c, 0, 60, 80
1, 27600, Note_on_c, 0, 57, 80
1, 27815, Note_on_c, 0, 60, 0
1, 27827, Note_on_c, 0, 57, 0
1, 28800, Note_on_c, 0, 69, 80
1, 28800, Note_on_c, 0, 64, 80
1, 28979, Note_on_c, 0, 69, 0
1, 29040, Note_on_c, 0, 69, 80
1, 29160, Note_on_c, 0, 69, 0
1, 29160, Note_on_c, 0, 69, 80
1, 29160, Note_on_c, 1, 69, 0
1, 29255, Note_on_c, 0, 64, 0
1, 29280, Note_on_c, 0, 64, 80
1, 29387, Note_on_c, 0, 69, 0
1, 29400, Note_on_c, 0, 69, 80
1, 29513, Note_on_c, 0, 69, 0
1, 29520, Note_on_c, 0, 71, 80
1, 29735, Note_on_c, 0, 64, 0
1, 29747, Note_on_c, 0, 71, 0
1, 29760, Note_on_c, 0, 67, 80
1, 29760, Note_on_c, 0, 64, 80
1, 30215, Note_on_c, 0, 64, 0
1, 30240, Note_on_c, 0, 64, 80
1, 30671, Note_on_c, 0, 67, 0
1, 30695, Note_on_c, 0, 64, 0
1, 30960, Note_on_c, 0, 69, 80
1, 31079, Note_on_c, 0, 69, 0
1, 31080, Note_on_c, 0, 69, 80
1, 31200, Note_on_c, 0, 64, 80
1, 31307, Note_on_c, 0, 69, 0
1, 31320, Note_on_c, 0, 69, 80
1, 31433, Note_on_c, 0, 69, 0
1, 31440, Note_on_c, 0, 71, 80
1, 31655, Note_on_c, 0, 64, 0
1, 31667, Note_on_c, 0, 71, 0
1, 31680, Note_on_c, 0, 64, 80
1, 31680, Note_on_c, 0, 67, 80
1, 31907, Note_on_c, 0, 64, 0
1, 31907, Note_on_c, 0, 67, 0
1, 31920, Note_on_c, 0, 64, 80
1, 32147, Note_on_c, 0, 64, 0
1, 32400, Note_on_c, 0, 59, 80
1, 32627, Note_on_c, 0, 59, 0
1, 32640, Note_on_c, 0, 69, 80
1, 32640, Note_on_c, 0, 60, 80
1, 32640, Note_on_c, 0, 64, 80
1, 32867, Note_on_c, 0, 60, 0
1, 32867, Note_on_c, 0, 64, 0
1, 32879, Note_on_c, 0, 69, 0
1, 32880, Note_on_c, 0, 69, 80
1, 32993, Note_on_c, 0, 69, 0
1, 33000, Note_on_c, 0, 69, 80
1, 33113, Note_on_c, 0, 69, 0
1, 33240, Note_on_c, 0, 69, 80
1, 33353, Note_on_c, 0, 69, 0
1, 33360, Note_on_c, 0, 71, 80
1, 33587, Note_on_c, 0, 71, 0
1, 33600, Note_on_c, 0, 67, 80
1, 34511, Note_on_c, 0, 67, 0
1, 34560, Note_on_c, 0, 65, 80
1, 34560, Note_on_c, 0, 74, 80
1, 35015, Note_on_c, 0, 65, 0
1, 35015, Note_on_c, 0, 74, 0
1, 35040, Note_on_c, 0, 72, 80
1, 35495, Note_on_c, 0, 72, 0
1, 35520, Note_on_c, 0, 67, 80
1, 35520, Note_on_c, 0, 71, 80
1, 35975, Note_on_c, 0, 67, 0
1, 35975, Note_on_c, 0, 71, 0
1, 36000, Note_on_c, 0, 64, 80
1, 36000, Note_on_c, 0, 69, 80
1, 36227, Note_on_c, 0, 64, 0
1, 36227, Note_on_c, 0, 69, 0
1, 36360, Note_on_c, 0, 67, 80
1, 36473, Note_on_c, 0, 67, 0
1, 36480, Note_on_c, 0, 60, 80
1, 36480, Note_on_c, 0, 71, 80
1, 36707, Note_on_c, 0, 60, 0
1, 36719, Note_on_c, 0, 71, 0
1, 37380, Note_on_c, 0, 64, 80
1, 37436, Note_on_c, 0, 64, 0
1, 37440, Note_on_c, 0, 76, 80
1, 37560, Tempo, 869565
1, 37800, Tempo, 882353
1, 38160, Tempo, 895522
1, 38351, Note_on_c, 0, 76, 0
1, 38400, Note_on_c, 0, 65, 80
1, 38400, Note_on_c, 0, 74, 80
1, 38520, Tempo, 857143
1, 38855, Note_on_c, 0, 65, 0
1, 38855, Note_on_c, 0, 74, 0
1, 38880, Note_on_c, 0, 64, 80
1, 38880, Note_on_c, 0, 72, 80
1, 39335, Note_on_c, 0, 64, 0
1, 39335, Note_on_c, 0, 72, 0
1, 39360, Note_on_c, 0, 64, 80
1, 39360, Note_on_c, 0, 71, 80
1, 39815, Note_on_c, 0, 64, 0
1, 39815, Note_on_c, 0, 71, 0
1, 39840, Note_on_c, 0, 64, 80
1, 39840, Note_on_c, 0, 69, 80
1, 40067, Note_on_c, 0, 64, 0
1, 40067, Note_on_c, 0, 69, 0
1, 40200, Note_on_c, 0, 67, 80
1, 40313, Note_on_c, 0, 67, 0
1, 40320, Note_on_c, 0, 64, 80
1, 40320, Note_on_c, 0, 69, 80
1, 40379, Note_on_c, 0, 64, 0
1, 40379, Note_on_c, 0, 69, 0
1, 40440, Note_on_c, 0, 76, 80
1, 40553, Note_on_c, 0, 76, 0
1, 41280, Note_on_c, 0, 60, 80
1, 41280, Note_on_c, 0, 64, 80
1, 41280, Note_on_c, 0, 69, 80
1, 41760, Note_on_c, 0, 60, 0
1, 41760, Note_on_c, 1, 60, 0
1, 42191, Note_on_c, 0, 64, 0
1, 42191, Note_on_c, 0, 69, 0
1, 42240, Note_on_c, 0, 65, 80
1, 42240, Note_on_c, 0, 74, 80
1, 42695, Note_on_c, 0, 65, 0
1, 42695, Note_on_c, 0, 74, 0
1, 42720, Note_on_c, 0, 64, 80
1, 42720, Note_on_c, 0, 72, 80
1, 42960, Note_on_c, 0, 64, 0
1, 42960, Note_on_c, 1, 64, 0
1, 43175, Note_on_c, 0, 72, 0
1, 43200, Note_on_c, 0, 67, 80
1, 43200, Note_on_c, 0, 71, 80
1, 43655, Note_on_c, 0, 67, 0
1, 43655, Note_on_c, 0, 71, 0
1, 43680, Note_on_c, 0, 69, 80
1, 44135, Note_on_c, 0, 69, 0
1, 44160, Note_on_c, 0, 60, 80
1, 44160, Note_on_c, 0, 71, 80
1, 44219, Note_on_c, 0, 60, 0
1, 44219, Note_on_c, 0, 71, 0
1, 44280, Note_on_c, 0, 69, 80
1, 44393, Note_on_c, 0, 69, 0
1, 44640, Note_on_c, 0, 57, 80
1, 44880, Note_on_c, 0, 52, 80
1, 45000, Note_on_c, 0, 55, 80
1, 45095, Note_on_c, 0, 57, 0
1, 45107, Note_on_c, 0, 52, 0
1, 45113, Note_on_c, 0, 55, 0
1, 45120, Note_on_c, 0, 59, 80
1, 45239, Note_on_c, 0, 59, 0
1, 45240, Note_on_c, 0, 57, 80
1, 45581, Note_on_c, 0, 57, 0
1, 51000, Tempo, 869565
1, 51480, Tempo, 882353
1, 51840, Tempo, 857143
1, 52920, Tempo, 869565
1, 53400, Tempo, 882353
1, 53760, Tempo, 857143
1, 54840, Tempo, 869565
1, 55320, Tempo, 882353
1, 55680, Tempo, 857143
1, 64440, Tempo, 869565
1, 64680, Tempo, 882353
1, 65040, Tempo, 895522
1, 65400, Tempo, 857143
1, 65401, End_track
2, 0, Start_track
2, 0, Title_t, "Piano, [Group 1]\000"
2, 0, Key_signature, 0, "major"
2, 0, MIDI_port, 0
2, 0, Note_on_c, 0, 57, 80
2, 0, MIDI_port, 0
2, 1, Control_c, 0, 64, 0
2, 227, Note_on_c, 0, 57, 0
2, 240, Note_on_c, 0, 64, 80
2, 467, Note_on_c, 0, 64, 0
2, 480, Note_on_c, 0, 69, 80
2, 719, Note_on_c, 0, 69, 0
2, 720, Note_on_c, 0, 64, 80
2, 1440, Note_on_c, 0, 64, 0
2, 1440, Note_on_c, 1, 64, 0
2, 1680, Note_on_c, 0, 64, 80
2, 1800, Note_on_c, 0, 62, 80
2, 1859, Note_on_c, 0, 64, 0
2, 1913, Note_on_c, 0, 62, 0
2, 1920, Note_on_c, 0, 53, 80
2, 2147, Note_on_c, 0, 53, 0
2, 2160, Note_on_c, 0, 64, 80
2, 2387, Note_on_c, 0, 64, 0
2, 2400, Note_on_c, 0, 69, 80
2, 2639, Note_on_c, 0, 69, 0
2, 2640, Note_on_c, 0, 64, 80
2, 3120, Note_on_c, 0, 67, 80
2, 3233, Note_on_c, 0, 67, 0
2, 3240, Note_on_c, 0, 69, 80
2, 3323, Note_on_c, 0, 64, 0
2, 3353, Note_on_c, 0, 69, 0
2, 3360, Note_on_c, 0, 55, 80
2, 3600, Note_on_c, 0, 62, 80
2, 3815, Note_on_c, 0, 55, 0
2, 3827, Note_on_c, 0, 62, 0
2, 3840, Note_on_c, 0, 57, 80
2, 4067, Note_on_c, 0, 57, 0
2, 4080, Note_on_c, 0, 64, 80
2, 4307, Note_on_c, 0, 64, 0
2, 4320, Note_on_c, 0, 69, 80
2, 4559, Note_on_c, 0, 69, 0
2, 4560, Note_on_c, 0, 64, 80
2, 5280, Note_on_c, 0, 64, 0
2, 5280, Note_on_c, 1, 64, 0
2, 5520, Note_on_c, 0, 64, 80
2, 5640, Note_on_c, 0, 62, 80
2, 5699, Note_on_c, 0, 64, 0
2, 5753, Note_on_c, 0, 62, 0
2, 5760, Note_on_c, 0, 50, 80
2, 5987, Note_on_c, 0, 50, 0
2, 6000, Note_on_c, 0, 57, 80
2, 6227, Note_on_c, 0, 57, 0
2, 6240, Note_on_c, 0, 60, 80
2, 6480, Note_on_c, 0, 53, 80
2, 6671, Note_on_c, 0, 60, 0
2, 6707, Note_on_c, 0, 53, 0
2, 6720, Note_on_c, 0, 52, 80
2, 6947, Note_on_c, 0, 52, 0
2, 6960, Note_on_c, 0, 59, 80
2, 7187, Note_on_c, 0, 59, 0
2, 7200, Note_on_c, 0, 62, 80
2, 7440, Note_on_c, 0, 59, 80
2, 7631, Note_on_c, 0, 62, 0
2, 7667, Note_on_c, 0, 59, 0
2, 7680, Note_on_c, 0, 57, 80
2, 7907, Note_on_c, 0, 57, 0
2, 9600, Note_on_c, 0, 53, 80
2, 9827, Note_on_c, 0, 53, 0
2, 11520, Note_on_c, 0, 57, 80
2, 11747, Note_on_c, 0, 57, 0
2, 13440, Note_on_c, 0, 53, 80
2, 13667, Note_on_c, 0, 53, 0
2, 13680, Note_on_c, 0, 57, 80
2, 13907, Note_on_c, 0, 57, 0
2, 13920, Note_on_c, 0, 60, 80
2, 14160, Note_on_c, 0, 64, 80
2, 14351, Note_on_c, 0, 60, 0
2, 14387, Note_on_c, 0, 64, 0
2, 14400, Note_on_c, 0, 50, 80
2, 14627, Note_on_c, 0, 50, 0
2, 14640, Note_on_c, 0, 57, 80
2, 14867, Note_on_c, 0, 57, 0
2, 14880, Note_on_c, 0, 62, 80
2, 15240, Note_on_c, 0, 60, 80
2, 15311, Note_on_c, 0, 62, 0
2, 15353, Note_on_c, 0, 60, 0
2, 15360, Note_on_c, 0, 57, 80
2, 15599, Note_on_c, 0, 57, 0
2, 15600, Note_on_c, 0, 64, 80
2, 15827, Note_on_c, 0, 64, 0
2, 15840, Note_on_c, 0, 60, 80
2, 16080, Note_on_c, 0, 64, 80
2, 16307, Note_on_c, 0, 64, 0
2, 16320, Note_on_c, 0, 57, 80
2, 16547, Note_on_c, 0, 57, 0
2, 16560, Note_on_c, 0, 57, 80
2, 16673, Note_on_c, 0, 57, 0
2, 16680, Note_on_c, 0, 59, 80
2, 16751, Note_on_c, 0, 60, 0
2, 16793, Note_on_c, 0, 59, 0
2, 16800, Note_on_c, 0, 60, 80
2, 17040, Note_on_c, 0, 57, 80
2, 17255, Note_on_c, 0, 60, 0
2, 17267, Note_on_c, 0, 57, 0
2, 17280, Note_on_c, 0, 53, 80
2, 17507, Note_on_c, 0, 53, 0
2, 17520, Note_on_c, 0, 64, 80
2, 17747, Note_on_c, 0, 64, 0
2, 18000, Note_on_c, 0, 64, 80
2, 18227, Note_on_c, 0, 64, 0
2, 18240, Note_on_c, 0, 52, 80
2, 18467, Note_on_c, 0, 52, 0
2, 18960, Note_on_c, 0, 67, 80
2, 19187, Note_on_c, 0, 67, 0
2, 19200, Note_on_c, 0, 57, 80
2, 19439, Note_on_c, 0, 57, 0
2, 19440, Note_on_c, 0, 64, 80
2, 19667, Note_on_c, 0, 64, 0
2, 19680, Note_on_c, 0, 60, 80
2, 19920, Note_on_c, 0, 64, 80
2, 20147, Note_on_c, 0, 64, 0
2, 20160, Note_on_c, 0, 57, 80
2, 20387, Note_on_c, 0, 57, 0
2, 20400, Note_on_c, 0, 57, 80
2, 20513, Note_on_c, 0, 57, 0
2, 20520, Note_on_c, 0, 59, 80
2, 20591, Note_on_c, 0, 60, 0
2, 20633, Note_on_c, 0, 59, 0
2, 20640, Note_on_c, 0, 60, 80
2, 20880, Note_on_c, 0, 57, 80
2, 21095, Note_on_c, 0, 60, 0
2, 21107, Note_on_c, 0, 57, 0
2, 21120, Note_on_c, 0, 53, 80
2, 21347, Note_on_c, 0, 53, 0
2, 21360, Note_on_c, 0, 60, 80
2, 21587, Note_on_c, 0, 60, 0
2, 21840, Note_on_c, 0, 60, 80
2, 22067, Note_on_c, 0, 60, 0
2, 22080, Note_on_c, 0, 55, 80
2, 22307, Note_on_c, 0, 55, 0
2, 22320, Note_on_c, 0, 62, 80
2, 22547, Note_on_c, 0, 62, 0
2, 22800, Note_on_c, 0, 62, 80
2, 22920, Note_on_c, 0, 67, 80
2, 23027, Note_on_c, 0, 62, 0
2, 23033, Note_on_c, 0, 67, 0
2, 23040, Note_on_c, 0, 57, 80
2, 23279, Note_on_c, 0, 57, 0
2, 24240, Note_on_c, 0, 57, 80
2, 24353, Note_on_c, 0, 57, 0
2, 24360, Note_on_c, 0, 59, 80
2, 24473, Note_on_c, 0, 59, 0
2, 24480, Note_on_c, 0, 60, 80
2, 24707, Note_on_c, 0, 60, 0
2, 24720, Note_on_c, 0, 57, 80
2, 24947, Note_on_c, 0, 57, 0
2, 24960, Note_on_c, 0, 53, 80
2, 25187, Note_on_c, 0, 53, 0
2, 25200, Note_on_c, 0, 60, 80
2, 25427, Note_on_c, 0, 60, 0
2, 25680, Note_on_c, 0, 60, 80
2, 25907, Note_on_c, 0, 60, 0
2, 25920, Note_on_c, 0, 55, 80
2, 26147, Note_on_c, 0, 55, 0
2, 26160, Note_on_c, 0, 62, 80
2, 26387, Note_on_c, 0, 62, 0
2, 26640, Note_on_c, 0, 62, 80
2, 26867, Note_on_c, 0, 62, 0
2, 26880, Note_on_c, 0, 57, 80
2, 27119, Note_on_c, 0, 57, 0
2, 27840, Note_on_c, 0, 57, 80
2, 28067, Note_on_c, 0, 57, 0
2, 28080, Note_on_c, 0, 57, 80
2, 28193, Note_on_c, 0, 57, 0
2, 28200, Note_on_c, 0, 59, 80
2, 28313, Note_on_c, 0, 59, 0
2, 28320, Note_on_c, 0, 60, 80
2, 28547, Note_on_c, 0, 60, 0
2, 28560, Note_on_c, 0, 57, 80
2, 28787, Note_on_c, 0, 57, 0
2, 28800, Note_on_c, 0, 57, 80
2, 29027, Note_on_c, 0, 57, 0
2, 29040, Note_on_c, 0, 57, 80
2, 29153, Note_on_c, 0, 57, 0
2, 29160, Note_on_c, 0, 59, 80
2, 29273, Note_on_c, 0, 59, 0
2, 29280, Note_on_c, 0, 60, 80
2, 29507, Note_on_c, 0, 60, 0
2, 29520, Note_on_c, 0, 57, 80
2, 29747, Note_on_c, 0, 57, 0
2, 29760, Note_on_c, 0, 57, 80
2, 29987, Note_on_c, 0, 57, 0
2, 30000, Note_on_c, 0, 57, 80
2, 30113, Note_on_c, 0, 57, 0
2, 30120, Note_on_c, 0, 59, 80
2, 30233, Note_on_c, 0, 59, 0
2, 30240, Note_on_c, 0, 60, 80
2, 30467, Note_on_c, 0, 60, 0
2, 30480, Note_on_c, 0, 57, 80
2, 30707, Note_on_c, 0, 57, 0
2, 30720, Note_on_c, 0, 57, 80
2, 30947, Note_on_c, 0, 57, 0
2, 30960, Note_on_c, 0, 57, 80
2, 31073, Note_on_c, 0, 57, 0
2, 31080, Note_on_c, 0, 59, 80
2, 31193, Note_on_c, 0, 59, 0
2, 31200, Note_on_c, 0, 60, 80
2, 31427, Note_on_c, 0, 60, 0
2, 31440, Note_on_c, 0, 57, 80
2, 31667, Note_on_c, 0, 57, 0
2, 31680, Note_on_c, 0, 57, 80
2, 31907, Note_on_c, 0, 57, 0
2, 31920, Note_on_c, 0, 57, 80
2, 32033, Note_on_c, 0, 57, 0
2, 32040, Note_on_c, 0, 59, 80
2, 32153, Note_on_c, 0, 59, 0
2, 32160, Note_on_c, 0, 60, 80
2, 32387, Note_on_c, 0, 60, 0
2, 32400, Note_on_c, 0, 52, 80
2, 32627, Note_on_c, 0, 52, 0
2, 32640, Note_on_c, 0, 53, 80
2, 32867, Note_on_c, 0, 53, 0
2, 32880, Note_on_c, 0, 57, 80
2, 32993, Note_on_c, 0, 57, 0
2, 33000, Note_on_c, 0, 59, 80
2, 33113, Note_on_c, 0, 59, 0
2, 33120, Note_on_c, 0, 60, 80
2, 33347, Note_on_c, 0, 60, 0
2, 33360, Note_on_c, 0, 57, 80
2, 33587, Note_on_c, 0, 57, 0
2, 33600, Note_on_c, 0, 53, 80
2, 33827, Note_on_c, 0, 53, 0
2, 33840, Note_on_c, 0, 57, 80
2, 33953, Note_on_c, 0, 57, 0
2, 33960, Note_on_c, 0, 59, 80
2, 34073, Note_on_c, 0, 59, 0
2, 34080, Note_on_c, 0, 60, 80
2, 34307, Note_on_c, 0, 60, 0
2, 34320, Note_on_c, 0, 57, 80
2, 34547, Note_on_c, 0, 57, 0
2, 34560, Note_on_c, 0, 53, 80
2, 34787, Note_on_c, 0, 53, 0
2, 34800, Note_on_c, 0, 57, 80
2, 34913, Note_on_c, 0, 57, 0
2, 34920, Note_on_c, 0, 60, 80
2, 35033, Note_on_c, 0, 60, 0
2, 35040, Note_on_c, 0, 64, 80
2, 35267, Note_on_c, 0, 64, 0
2, 35280, Note_on_c, 0, 57, 80
2, 35507, Note_on_c, 0, 57, 0
2, 35520, Note_on_c, 0, 55, 80
2, 35747, Note_on_c, 0, 55, 0
2, 35760, Note_on_c, 0, 55, 80
2, 35873, Note_on_c, 0, 55, 0
2, 35880, Note_on_c, 0, 59, 80
2, 35993, Note_on_c, 0, 59, 0
2, 36000, Note_on_c, 0, 62, 80
2, 36227, Note_on_c, 0, 62, 0
2, 36240, Note_on_c, 0, 55, 80
2, 36467, Note_on_c, 0, 55, 0
2, 36480, Note_on_c, 0, 57, 80
2, 36719, Note_on_c, 0, 57, 0
2, 36720, Note_on_c, 0, 57, 80
2, 36833, Note_on_c, 0, 57, 0
2, 36840, Note_on_c, 0, 59, 80
2, 36953, Note_on_c, 0, 59, 0
2, 36960, Note_on_c, 0, 60, 80
2, 37187, Note_on_c, 0, 60, 0
2, 37200, Note_on_c, 0, 57, 80
2, 37427, Note_on_c, 0, 57, 0
2, 37680, Note_on_c, 0, 57, 80
2, 37793, Note_on_c, 0, 57, 0
2, 37800, Note_on_c, 0, 59, 80
2, 37913, Note_on_c, 0, 59, 0
2, 37920, Note_on_c, 0, 60, 80
2, 38147, Note_on_c, 0, 60, 0
2, 38160, Note_on_c, 0, 57, 80
2, 38387, Note_on_c, 0, 57, 0
2, 38400, Note_on_c, 0, 53, 80
2, 38627, Note_on_c, 0, 53, 0
2, 38640, Note_on_c, 0, 57, 80
2, 38753, Note_on_c, 0, 57, 0
2, 38760, Note_on_c, 0, 60, 80
2, 38873, Note_on_c, 0, 60, 0
2, 39120, Note_on_c, 0, 57, 80
2, 39347, Note_on_c, 0, 57, 0
2, 39360, Note_on_c, 0, 55, 80
2, 39587, Note_on_c, 0, 55, 0
2, 39600, Note_on_c, 0, 55, 80
2, 39713, Note_on_c, 0, 55, 0
2, 39720, Note_on_c, 0, 59, 80
2, 39833, Note_on_c, 0, 59, 0
2, 39840, Note_on_c, 0, 62, 80
2, 40067, Note_on_c, 0, 62, 0
2, 40080, Note_on_c, 0, 55, 80
2, 40307, Note_on_c, 0, 55, 0
2, 40320, Note_on_c, 0, 57, 80
2, 40559, Note_on_c, 0, 57, 0
2, 40560, Note_on_c, 0, 57, 80
2, 40673, Note_on_c, 0, 57, 0
2, 40680, Note_on_c, 0, 59, 80
2, 40793, Note_on_c, 0, 59, 0
2, 40800, Note_on_c, 0, 60, 80
2, 41027, Note_on_c, 0, 60, 0
2, 41040, Note_on_c, 0, 57, 80
2, 41267, Note_on_c, 0, 57, 0
2, 41280, Note_on_c, 0, 57, 80
2, 41507, Note_on_c, 0, 57, 0
2, 41520, Note_on_c, 0, 57, 80
2, 41633, Note_on_c, 0, 57, 0
2, 41640, Note_on_c, 0, 59, 80
2, 41753, Note_on_c, 0, 59, 0
2, 41760, Note_on_c, 0, 60, 80
2, 42000, Note_on_c, 0, 57, 80
2, 42191, Note_on_c, 0, 60, 0
2, 42227, Note_on_c, 0, 57, 0
2, 42240, Note_on_c, 0, 53, 80
2, 42467, Note_on_c, 0, 53, 0
2, 42480, Note_on_c, 0, 57, 80
2, 42707, Note_on_c, 0, 57, 0
2, 42720, Note_on_c, 0, 60, 80
2, 42947, Note_on_c, 0, 60, 0
2, 42960, Note_on_c, 0, 64, 80
2, 43187, Note_on_c, 0, 64, 0
2, 43200, Note_on_c, 0, 55, 80
2, 43655, Note_on_c, 0, 55, 0
2, 43680, Note_on_c, 0, 64, 80
2, 44021, Note_on_c, 0, 64, 0
2, 44040, Note_on_c, 0, 67, 80
2, 44153, Note_on_c, 0, 67, 0
2, 44160, Note_on_c, 0, 57, 80
2, 44399, Note_on_c, 0, 57, 0
2, 44400, Note_on_c, 0, 52, 80
2, 44759, Note_on_c, 0, 52, 0
2, 76800, Control_c, 0, 64, 0
2, 76801, End_track
3, 0, Start_track
3, 0, Title_t, "Bass\000"
3, 0, Key_signature, 0, "major"
3, 0, Control_c, 2, 121, 0
3, 0, Program_c, 2, 33
3, 0, Control_c, 2, 7, 100
3, 0, Control_c, 2, 10, 64
3, 0, Control_c, 2, 91, 0
3, 0, Control_c, 2, 93, 0
3, 0, MIDI_port, 0
3, 1, End_track
0, 0, End_of_file
