0, 0, Header, 1, 5, 480
1, 0, Start_track
1, 0, Title_t, "Piano, Minstrel\000"
1, 0, Time_signature, 4, 2, 24, 8
1, 0, Key_signature, 0, "major"
1, 0, Tempo, 352941
1, 0, Control_c, 0, 121, 0
1, 0, Program_c, 0, 0
1, 0, Control_c, 0, 7, 100
1, 0, Control_c, 0, 10, 64
1, 0, Control_c, 0, 91, 0
1, 0, Control_c, 0, 93, 0
1, 0, MIDI_port, 0
1, 0, Note_on_c, 0, 60, 80
1, 80, Note_on_c, 0, 64, 80
1, 160, Note_on_c, 0, 67, 80
1, 455, Note_on_c, 0, 60, 0
1, 459, Note_on_c, 0, 64, 0
1, 463, Note_on_c, 0, 67, 0
1, 3840, Note_on_c, 0, 62, 80
1, 3920, Note_on_c, 0, 65, 80
1, 4000, Note_on_c, 0, 72, 80
1, 4295, Note_on_c, 0, 62, 0
1, 4299, Note_on_c, 0, 65, 0
1, 4303, Note_on_c, 0, 72, 0
1, 7680, Note_on_c, 0, 65, 80
1, 7760, Note_on_c, 0, 69, 80
1, 7840, Note_on_c, 0, 72, 80
1, 8135, Note_on_c, 0, 65, 0
1, 8139, Note_on_c, 0, 69, 0
1, 8143, Note_on_c, 0, 72, 0
1, 11520, Note_on_c, 0, 60, 80
1, 11600, Note_on_c, 0, 64, 80
1, 11680, Note_on_c, 0, 67, 80
1, 11975, Note_on_c, 0, 60, 0
1, 11979, Note_on_c, 0, 64, 0
1, 11983, Note_on_c, 0, 67, 0
1, 15360, Note_on_c, 0, 67, 96
1, 17639, Note_on_c, 0, 67, 0
1, 17760, Note_on_c, 0, 72, 96
1, 18215, Note_on_c, 0, 72, 0
1, 18240, Note_on_c, 0, 74, 96
1, 18695, Note_on_c, 0, 74, 0
1, 18720, Note_on_c, 0, 77, 96
1, 19175, Note_on_c, 0, 77, 0
1, 19200, Note_on_c, 0, 77, 96
1, 19883, Note_on_c, 0, 77, 0
1, 19920, Note_on_c, 0, 76, 96
1, 20147, Note_on_c, 0, 76, 0
1, 20160, Note_on_c, 0, 76, 96
1, 21983, Note_on_c, 0, 76, 0
1, 22080, Note_on_c, 0, 74, 96
1, 22535, Note_on_c, 0, 74, 0
1, 22560, Note_on_c, 0, 72, 96
1, 23015, Note_on_c, 0, 72, 0
1, 23040, Note_on_c, 0, 79, 96
1, 24407, Note_on_c, 0, 79, 0
1, 24480, Note_on_c, 0, 72, 96
1, 25847, Note_on_c, 0, 72, 0
1, 25920, Note_on_c, 0, 84, 96
1, 29567, Note_on_c, 0, 84, 0
1, 30000, Note_on_c, 0, 74, 96
1, 30455, Note_on_c, 0, 74, 0
1, 30480, Note_on_c, 0, 72, 96
1, 30707, Note_on_c, 0, 72, 0
1, 30720, Note_on_c, 0, 79, 96
1, 34367, Note_on_c, 0, 79, 0
1, 35520, Note_on_c, 0, 64, 96
1, 35747, Note_on_c, 0, 64, 0
1, 35760, Note_on_c, 0, 65, 96
1, 35987, Note_on_c, 0, 65, 0
1, 36000, Note_on_c, 0, 67, 96
1, 36227, Note_on_c, 0, 67, 0
1, 36240, Note_on_c, 0, 67, 96
1, 36923, Note_on_c, 0, 67, 0
1, 36960, Note_on_c, 0, 72, 96
1, 37415, Note_on_c, 0, 72, 0
1, 37440, Note_on_c, 0, 71, 96
1, 37895, Note_on_c, 0, 71, 0
1, 37920, Note_on_c, 0, 72, 96
1, 38375, Note_on_c, 0, 72, 0
1, 38400, Note_on_c, 0, 74, 96
1, 38855, Note_on_c, 0, 74, 0
1, 38880, Note_on_c, 0, 76, 96
1, 39107, Note_on_c, 0, 76, 0
1, 39120, Note_on_c, 0, 72, 96
1, 41627, Note_on_c, 0, 72, 0
1, 41760, Note_on_c, 0, 71, 96
1, 41987, Note_on_c, 0, 71, 0
1, 42000, Note_on_c, 0, 72, 96
1, 42227, Note_on_c, 0, 72, 0
1, 42240, Note_on_c, 0, 79, 96
1, 42923, Note_on_c, 0, 79, 0
1, 42960, Note_on_c, 0, 72, 96
1, 43187, Note_on_c, 0, 72, 0
1, 43200, Note_on_c, 0, 72, 96
1, 45479, Note_on_c, 0, 72, 0
1, 45600, Note_on_c, 0, 72, 96
1, 45827, Note_on_c, 0, 72, 0
1, 45840, Note_on_c, 0, 72, 96
1, 46067, Note_on_c, 0, 72, 0
1, 46080, Note_on_c, 0, 72, 96
1, 47105, Note_on_c, 0, 72, 0
1, 47280, Note_on_c, 0, 74, 96
1, 47507, Note_on_c, 0, 74, 0
1, 47520, Note_on_c, 0, 72, 96
1, 47747, Note_on_c, 0, 72, 0
1, 47760, Note_on_c, 0, 71, 96
1, 49811, Note_on_c, 0, 71, 0
1, 49920, Note_on_c, 0, 64, 96
1, 50945, Note_on_c, 0, 64, 0
1, 51120, Note_on_c, 0, 62, 96
1, 51347, Note_on_c, 0, 62, 0
1, 51360, Note_on_c, 0, 60, 96
1, 51587, Note_on_c, 0, 60, 0
1, 51600, Note_on_c, 0, 67, 96
1, 52739, Note_on_c, 0, 67, 0
1, 52800, Note_on_c, 0, 72, 96
1, 53255, Note_on_c, 0, 72, 0
1, 53280, Note_on_c, 0, 74, 96
1, 53735, Note_on_c, 0, 74, 0
1, 53760, Note_on_c, 0, 77, 96
1, 54443, Note_on_c, 0, 77, 0
1, 54480, Note_on_c, 0, 76, 96
1, 54707, Note_on_c, 0, 76, 0
1, 54720, Note_on_c, 0, 76, 96
1, 56543, Note_on_c, 0, 76, 0
1, 56640, Note_on_c, 0, 79, 96
1, 57095, Note_on_c, 0, 79, 0
1, 57120, Note_on_c, 0, 77, 96
1, 57575, Note_on_c, 0, 77, 0
1, 57600, Note_on_c, 0, 76, 96
1, 57827, Note_on_c, 0, 76, 0
1, 57840, Note_on_c, 0, 77, 96
1, 58067, Note_on_c, 0, 77, 0
1, 58080, Note_on_c, 0, 76, 96
1, 58307, Note_on_c, 0, 76, 0
1, 58320, Note_on_c, 0, 72, 96
1, 58775, Note_on_c, 0, 72, 0
1, 58800, Note_on_c, 0, 67, 96
1, 59711, Note_on_c, 0, 67, 0
1, 59760, Note_on_c, 0, 74, 96
1, 59987, Note_on_c, 0, 74, 0
1, 60000, Note_on_c, 0, 72, 96
1, 60227, Note_on_c, 0, 72, 0
1, 60240, Note_on_c, 0, 71, 96
1, 60467, Note_on_c, 0, 71, 0
1, 60480, Note_on_c, 0, 69, 96
1, 60707, Note_on_c, 0, 69, 0
1, 60720, Note_on_c, 0, 71, 96
1, 61403, Note_on_c, 0, 71, 0
1, 61440, Note_on_c, 0, 72, 96
1, 62123, Note_on_c, 0, 72, 0
1, 62160, Note_on_c, 0, 72, 96
1, 62843, Note_on_c, 0, 72, 0
1, 62880, Note_on_c, 0, 72, 96
1, 63335, Note_on_c, 0, 72, 0
1, 65280, Note_on_c, 0, 60, 96
1, 65280, Note_on_c, 0, 69, 96
1, 65507, Note_on_c, 0, 60, 0
1, 65507, Note_on_c, 0, 69, 0
1, 65520, Note_on_c, 0, 60, 96
1, 65520, Note_on_c, 0, 69, 96
1, 66203, Note_on_c, 0, 60, 0
1, 66203, Note_on_c, 0, 69, 0
1, 66240, Note_on_c, 0, 62, 96
1, 66240, Note_on_c, 0, 71, 96
1, 66467, Note_on_c, 0, 62, 0
1, 66467, Note_on_c, 0, 71, 0
1, 66480, Note_on_c, 0, 62, 96
1, 66480, Note_on_c, 0, 71, 96
1, 66707, Note_on_c, 0, 62, 0
1, 66707, Note_on_c, 0, 71, 0
1, 66960, Note_on_c, 0, 60, 96
1, 66960, Note_on_c, 0, 67, 96
1, 67871, Note_on_c, 0, 60, 0
1, 67871, Note_on_c, 0, 67, 0
1, 67920, Note_on_c, 0, 76, 96
1, 68375, Note_on_c, 0, 76, 0
1, 68400, Note_on_c, 0, 79, 96
1, 68627, Note_on_c, 0, 79, 0
1, 68640, Note_on_c, 0, 72, 96
1, 68715, Note_on_c, 0, 72, 0
1, 68720, Note_on_c, 0, 74, 96
1, 68795, Note_on_c, 0, 74, 0
1, 68800, Note_on_c, 0, 72, 96
1, 68875, Note_on_c, 0, 72, 0
1, 69120, Note_on_c, 0, 65, 96
1, 69120, Note_on_c, 0, 74, 96
1, 69575, Note_on_c, 0, 65, 0
1, 69575, Note_on_c, 0, 74, 0
1, 69600, Note_on_c, 0, 65, 96
1, 69600, Note_on_c, 0, 72, 96
1, 69827, Note_on_c, 0, 65, 0
1, 69827, Note_on_c, 0, 72, 0
1, 69840, Note_on_c, 0, 65, 96
1, 69840, Note_on_c, 0, 74, 96
1, 70067, Note_on_c, 0, 65, 0
1, 70067, Note_on_c, 0, 74, 0
1, 70320, Note_on_c, 0, 65, 96
1, 70320, Note_on_c, 0, 72, 96
1, 70547, Note_on_c, 0, 65, 0
1, 70547, Note_on_c, 0, 72, 0
1, 70800, Note_on_c, 0, 71, 96
1, 70800, Note_on_c, 0, 76, 96
1, 72851, Note_on_c, 0, 71, 0
1, 72851, Note_on_c, 0, 76, 0
1, 72960, Note_on_c, 0, 65, 96
1, 72960, Note_on_c, 0, 69, 96
1, 73187, Note_on_c, 0, 65, 0
1, 73187, Note_on_c, 0, 69, 0
1, 73200, Note_on_c, 0, 65, 96
1, 73200, Note_on_c, 0, 69, 96
1, 73883, Note_on_c, 0, 65, 0
1, 73883, Note_on_c, 0, 69, 0
1, 73920, Note_on_c, 0, 62, 96
1, 73920, Note_on_c, 0, 71, 96
1, 74147, Note_on_c, 0, 62, 0
1, 74147, Note_on_c, 0, 71, 0
1, 74160, Note_on_c, 0, 62, 96
1, 74160, Note_on_c, 0, 71, 96
1, 74387, Note_on_c, 0, 62, 0
1, 74387, Note_on_c, 0, 71, 0
1, 74640, Note_on_c, 0, 64, 96
1, 74640, Note_on_c, 0, 72, 96
1, 75095, Note_on_c, 0, 64, 0
1, 75095, Note_on_c, 0, 72, 0
1, 75120, Note_on_c, 0, 64, 96
1, 75120, Note_on_c, 0, 67, 96
1, 75575, Note_on_c, 0, 64, 0
1, 75575, Note_on_c, 0, 67, 0
1, 75600, Note_on_c, 0, 64, 96
1, 75600, Note_on_c, 0, 67, 96
1, 76055, Note_on_c, 0, 64, 0
1, 76055, Note_on_c, 0, 67, 0
1, 76080, Note_on_c, 0, 64, 96
1, 76080, Note_on_c, 0, 67, 96
1, 76307, Note_on_c, 0, 64, 0
1, 76307, Note_on_c, 0, 67, 0
1, 76320, Note_on_c, 0, 67, 96
1, 76320, Note_on_c, 0, 72, 96
1, 76547, Note_on_c, 0, 67, 0
1, 76547, Note_on_c, 0, 72, 0
1, 76560, Note_on_c, 0, 69, 96
1, 76560, Note_on_c, 0, 74, 96
1, 78155, Note_on_c, 0, 69, 0
1, 78155, Note_on_c, 0, 74, 0
1, 78240, Note_on_c, 0, 69, 96
1, 78240, Note_on_c, 0, 72, 96
1, 78467, Note_on_c, 0, 69, 0
1, 78467, Note_on_c, 0, 72, 0
1, 78480, Note_on_c, 0, 71, 96
1, 78480, Note_on_c, 0, 76, 96
1, 79847, Note_on_c, 0, 71, 0
1, 79847, Note_on_c, 0, 76, 0
1, 79920, Note_on_c, 0, 69, 96
1, 79920, Note_on_c, 0, 76, 96
1, 80147, Note_on_c, 0, 69, 0
1, 80147, Note_on_c, 0, 76, 0
1, 80160, Note_on_c, 0, 69, 96
1, 80160, Note_on_c, 0, 76, 96
1, 80387, Note_on_c, 0, 69, 0
1, 80387, Note_on_c, 0, 76, 0
1, 80400, Note_on_c, 0, 69, 96
1, 80400, Note_on_c, 0, 76, 96
1, 80627, Note_on_c, 0, 69, 0
1, 80627, Note_on_c, 0, 76, 0
1, 85440, Note_on_c, 0, 64, 96
1, 85667, Note_on_c, 0, 64, 0
1, 85680, Note_on_c, 0, 65, 96
1, 85907, Note_on_c, 0, 65, 0
1, 85920, Note_on_c, 0, 67, 96
1, 86147, Note_on_c, 0, 67, 0
1, 86160, Note_on_c, 0, 67, 96
1, 86387, Note_on_c, 0, 67, 0
1, 86880, Note_on_c, 0, 69, 96
1, 86880, Note_on_c, 0, 72, 96
1, 87335, Note_on_c, 0, 69, 0
1, 87335, Note_on_c, 0, 72, 0
1, 87360, Note_on_c, 0, 67, 96
1, 87360, Note_on_c, 0, 71, 96
1, 87815, Note_on_c, 0, 67, 0
1, 87815, Note_on_c, 0, 71, 0
1, 87840, Note_on_c, 0, 69, 96
1, 87840, Note_on_c, 0, 72, 96
1, 88295, Note_on_c, 0, 69, 0
1, 88295, Note_on_c, 0, 72, 0
1, 88320, Note_on_c, 0, 71, 96
1, 88320, Note_on_c, 0, 74, 96
1, 88775, Note_on_c, 0, 71, 0
1, 88775, Note_on_c, 0, 74, 0
1, 88800, Note_on_c, 0, 72, 96
1, 88800, Note_on_c, 0, 76, 96
1, 89027, Note_on_c, 0, 72, 0
1, 89027, Note_on_c, 0, 76, 0
1, 89040, Note_on_c, 0, 72, 96
1, 89040, Note_on_c, 0, 69, 96
1, 89267, Note_on_c, 0, 69, 0
1, 91547, Note_on_c, 0, 72, 0
1, 91680, Note_on_c, 0, 67, 96
1, 91680, Note_on_c, 0, 71, 96
1, 91907, Note_on_c, 0, 67, 0
1, 91907, Note_on_c, 0, 71, 0
1, 91920, Note_on_c, 0, 69, 96
1, 91920, Note_on_c, 0, 72, 96
1, 92147, Note_on_c, 0, 69, 0
1, 92147, Note_on_c, 0, 72, 0
1, 92160, Note_on_c, 0, 72, 96
1, 92160, Note_on_c, 0, 79, 96
1, 92843, Note_on_c, 0, 72, 0
1, 92843, Note_on_c, 0, 79, 0
1, 92880, Note_on_c, 0, 69, 96
1, 92880, Note_on_c, 0, 72, 96
1, 93107, Note_on_c, 0, 69, 0
1, 93107, Note_on_c, 0, 72, 0
1, 93120, Note_on_c, 0, 72, 96
1, 93120, Note_on_c, 0, 69, 96
1, 94031, Note_on_c, 0, 69, 0
1, 95399, Note_on_c, 0, 72, 0
1, 95520, Note_on_c, 0, 69, 96
1, 95520, Note_on_c, 0, 72, 96
1, 95747, Note_on_c, 0, 69, 0
1, 95747, Note_on_c, 0, 72, 0
1, 95760, Note_on_c, 0, 69, 96
1, 95760, Note_on_c, 0, 72, 96
1, 95987, Note_on_c, 0, 69, 0
1, 95987, Note_on_c, 0, 72, 0
1, 96000, Note_on_c, 0, 72, 96
1, 96000, Note_on_c, 0, 69, 96
1, 96911, Note_on_c, 0, 69, 0
1, 97025, Note_on_c, 0, 72, 0
1, 97200, Note_on_c, 0, 74, 96
1, 97427, Note_on_c, 0, 74, 0
1, 97440, Note_on_c, 0, 69, 96
1, 97440, Note_on_c, 0, 72, 96
1, 97667, Note_on_c, 0, 69, 0
1, 97667, Note_on_c, 0, 72, 0
1, 97680, Note_on_c, 0, 71, 96
1, 97680, Note_on_c, 0, 67, 96
1, 97907, Note_on_c, 0, 67, 0
1, 99731, Note_on_c, 0, 71, 0
1, 99840, Note_on_c, 0, 64, 96
1, 100865, Note_on_c, 0, 64, 0
1, 101040, Note_on_c, 0, 59, 96
1, 101040, Note_on_c, 0, 62, 96
1, 101267, Note_on_c, 0, 59, 0
1, 101267, Note_on_c, 0, 62, 0
1, 101280, Note_on_c, 0, 57, 96
1, 101280, Note_on_c, 0, 60, 96
1, 101507, Note_on_c, 0, 57, 0
1, 101507, Note_on_c, 0, 60, 0
1, 101520, Note_on_c, 0, 67, 96
1, 102659, Note_on_c, 0, 67, 0
1, 102720, Note_on_c, 0, 69, 96
1, 102720, Note_on_c, 0, 72, 96
1, 103175, Note_on_c, 0, 69, 0
1, 103175, Note_on_c, 0, 72, 0
1, 103200, Note_on_c, 0, 71, 96
1, 103200, Note_on_c, 0, 74, 96
1, 103655, Note_on_c, 0, 71, 0
1, 103655, Note_on_c, 0, 74, 0
1, 103680, Note_on_c, 0, 74, 96
1, 103680, Note_on_c, 0, 77, 96
1, 104363, Note_on_c, 0, 74, 0
1, 104363, Note_on_c, 0, 77, 0
1, 104400, Note_on_c, 0, 72, 96
1, 104400, Note_on_c, 0, 76, 96
1, 104627, Note_on_c, 0, 72, 0
1, 104627, Note_on_c, 0, 76, 0
1, 104640, Note_on_c, 0, 76, 96
1, 104640, Note_on_c, 0, 72, 96
1, 105551, Note_on_c, 0, 72, 0
1, 106463, Note_on_c, 0, 76, 0
1, 106560, Note_on_c, 0, 76, 96
1, 106560, Note_on_c, 0, 79, 96
1, 107015, Note_on_c, 0, 76, 0
1, 107015, Note_on_c, 0, 79, 0
1, 107040, Note_on_c, 0, 74, 96
1, 107040, Note_on_c, 0, 77, 96
1, 107495, Note_on_c, 0, 74, 0
1, 107495, Note_on_c, 0, 77, 0
1, 107520, Note_on_c, 0, 76, 96
1, 107747, Note_on_c, 0, 76, 0
1, 107760, Note_on_c, 0, 77, 96
1, 107987, Note_on_c, 0, 77, 0
1, 108000, Note_on_c, 0, 76, 96
1, 108227, Note_on_c, 0, 76, 0
1, 108240, Note_on_c, 0, 69, 96
1, 108240, Note_on_c, 0, 72, 96
1, 108467, Note_on_c, 0, 69, 0
1, 108695, Note_on_c, 0, 72, 0
1, 108720, Note_on_c, 0, 67, 96
1, 108720, Note_on_c, 0, 64, 96
1, 109403, Note_on_c, 0, 64, 0
1, 109631, Note_on_c, 0, 67, 0
1, 109680, Note_on_c, 0, 74, 96
1, 109907, Note_on_c, 0, 74, 0
1, 109920, Note_on_c, 0, 72, 96
1, 110147, Note_on_c, 0, 72, 0
1, 110160, Note_on_c, 0, 71, 96
1, 110387, Note_on_c, 0, 71, 0
1, 110400, Note_on_c, 0, 65, 96
1, 110400, Note_on_c, 0, 69, 96
1, 110627, Note_on_c, 0, 65, 0
1, 110627, Note_on_c, 0, 69, 0
1, 110640, Note_on_c, 0, 67, 96
1, 110640, Note_on_c, 0, 71, 96
1, 111323, Note_on_c, 0, 67, 0
1, 111323, Note_on_c, 0, 71, 0
1, 111360, Note_on_c, 0, 69, 96
1, 111360, Note_on_c, 0, 72, 96
1, 112043, Note_on_c, 0, 69, 0
1, 112043, Note_on_c, 0, 72, 0
1, 112080, Note_on_c, 0, 72, 96
1, 112080, Note_on_c, 0, 69, 96
1, 112307, Note_on_c, 0, 69, 0
1, 112763, Note_on_c, 0, 72, 0
1, 112800, Note_on_c, 0, 69, 96
1, 112800, Note_on_c, 0, 72, 96
1, 113255, Note_on_c, 0, 69, 0
1, 113255, Note_on_c, 0, 72, 0
1, 115200, Tempo, 750000
1, 117120, Tempo, 600000
1, 118080, Note_on_c, 0, 64, 80
1, 118307, Note_on_c, 0, 64, 0
1, 118320, Note_on_c, 0, 65, 80
1, 118547, Note_on_c, 0, 65, 0
1, 118560, Note_on_c, 0, 67, 80
1, 118787, Note_on_c, 0, 67, 0
1, 118800, Note_on_c, 0, 67, 80
1, 119483, Note_on_c, 0, 67, 0
1, 119520, Note_on_c, 0, 67, 80
1, 119520, Note_on_c, 0, 72, 80
1, 119975, Note_on_c, 0, 67, 0
1, 119975, Note_on_c, 0, 72, 0
1, 120000, Note_on_c, 0, 67, 80
1, 120000, Note_on_c, 0, 71, 80
1, 120455, Note_on_c, 0, 67, 0
1, 120455, Note_on_c, 0, 71, 0
1, 120480, Note_on_c, 0, 67, 80
1, 120480, Note_on_c, 0, 72, 80
1, 120840, Note_on_c, 0, 64, 80
1, 120896, Note_on_c, 0, 64, 0
1, 120900, Note_on_c, 0, 69, 80
1, 120935, Note_on_c, 0, 67, 0
1, 120935, Note_on_c, 0, 72, 0
1, 120956, Note_on_c, 0, 69, 0
1, 120960, Note_on_c, 0, 74, 80
1, 121415, Note_on_c, 0, 74, 0
1, 121440, Note_on_c, 0, 72, 80
1, 121440, Note_on_c, 0, 76, 80
1, 121667, Note_on_c, 0, 72, 0
1, 121667, Note_on_c, 0, 76, 0
1, 121680, Note_on_c, 0, 69, 80
1, 121680, Note_on_c, 0, 72, 80
1, 123731, Note_on_c, 0, 69, 0
1, 123731, Note_on_c, 0, 72, 0
1, 124320, Note_on_c, 0, 71, 80
1, 124547, Note_on_c, 0, 71, 0
1, 124560, Note_on_c, 0, 72, 80
1, 124673, Note_on_c, 0, 72, 0
1, 124680, Note_on_c, 0, 67, 80
1, 124710, Note_on_c, 0, 72, 80
1, 124794, Note_on_c, 0, 72, 0
1, 124800, Note_on_c, 0, 79, 80
1, 125520, Note_on_c, 0, 67, 0
1, 125520, Note_on_c, 0, 67, 80
1, 125520, Note_on_c, 0, 72, 80
1, 125711, Note_on_c, 0, 79, 0
1, 125747, Note_on_c, 0, 67, 0
1, 125747, Note_on_c, 0, 72, 0
1, 125760, Note_on_c, 0, 67, 80
1, 125760, Note_on_c, 0, 72, 80
1, 127583, Note_on_c, 0, 67, 0
1, 127583, Note_on_c, 0, 72, 0
1, 127920, Note_on_c, 0, 72, 80
1, 128147, Note_on_c, 0, 72, 0
1, 128160, Note_on_c, 0, 72, 80
1, 128387, Note_on_c, 0, 72, 0
1, 128400, Note_on_c, 0, 72, 80
1, 129653, Note_on_c, 0, 72, 0
1, 129840, Note_on_c, 0, 74, 80
1, 130067, Note_on_c, 0, 74, 0
1, 130080, Note_on_c, 0, 72, 80
1, 130231, Note_on_c, 0, 72, 0
1, 130240, Note_on_c, 0, 62, 80
1, 130320, Note_on_c, 0, 67, 80
1, 130400, Note_on_c, 0, 71, 80
1, 131911, Note_on_c, 0, 62, 0
1, 131915, Note_on_c, 0, 67, 0
1, 131919, Note_on_c, 0, 71, 0
1, 132240, Note_on_c, 0, 74, 80
1, 132467, Note_on_c, 0, 74, 0
1, 132480, Note_on_c, 0, 64, 80
1, 133505, Note_on_c, 0, 64, 0
1, 133680, Note_on_c, 0, 62, 80
1, 133907, Note_on_c, 0, 62, 0
1, 133920, Note_on_c, 0, 60, 80
1, 134147, Note_on_c, 0, 60, 0
1, 134160, Note_on_c, 0, 67, 80
1, 135299, Note_on_c, 0, 67, 0
1, 135360, Note_on_c, 0, 67, 80
1, 135360, Note_on_c, 0, 72, 80
1, 135815, Note_on_c, 0, 67, 0
1, 135815, Note_on_c, 0, 72, 0
1, 135840, Note_on_c, 0, 67, 80
1, 135840, Note_on_c, 0, 74, 80
1, 136200, Note_on_c, 0, 69, 80
1, 136295, Note_on_c, 0, 67, 0
1, 136295, Note_on_c, 0, 74, 0
1, 136320, Note_on_c, 0, 72, 80
1, 136350, Note_on_c, 0, 77, 80
1, 137004, Note_on_c, 0, 77, 0
1, 137040, Note_on_c, 0, 72, 0
1, 137040, Note_on_c, 0, 72, 80
1, 137040, Note_on_c, 0, 76, 80
1, 137225, Note_on_c, 0, 69, 0
1, 137267, Note_on_c, 0, 72, 0
1, 137267, Note_on_c, 0, 76, 0
1, 137280, Note_on_c, 0, 72, 80
1, 137280, Note_on_c, 0, 76, 80
1, 139103, Note_on_c, 0, 72, 0
1, 139103, Note_on_c, 0, 76, 0
1, 139200, Note_on_c, 0, 72, 80
1, 139200, Note_on_c, 0, 79, 80
1, 139655, Note_on_c, 0, 72, 0
1, 139655, Note_on_c, 0, 79, 0
1, 139680, Note_on_c, 0, 72, 80
1, 139680, Note_on_c, 0, 77, 80
1, 140135, Note_on_c, 0, 72, 0
1, 140135, Note_on_c, 0, 77, 0
1, 140160, Note_on_c, 0, 72, 80
1, 140160, Note_on_c, 0, 76, 80
1, 140387, Note_on_c, 0, 72, 0
1, 140387, Note_on_c, 0, 76, 0
1, 140400, Note_on_c, 0, 74, 80
1, 140400, Note_on_c, 0, 77, 80
1, 140627, Note_on_c, 0, 74, 0
1, 140627, Note_on_c, 0, 77, 0
1, 140640, Note_on_c, 0, 72, 80
1, 140640, Note_on_c, 0, 76, 80
1, 140867, Note_on_c, 0, 72, 0
1, 140867, Note_on_c, 0, 76, 0
1, 140880, Note_on_c, 0, 67, 80
1, 140880, Note_on_c, 0, 72, 80
1, 141107, Note_on_c, 0, 67, 0
1, 141107, Note_on_c, 0, 72, 0
1, 141360, Note_on_c, 0, 64, 80
1, 141360, Note_on_c, 0, 67, 80
1, 142271, Note_on_c, 0, 64, 0
1, 142271, Note_on_c, 0, 67, 0
1, 142320, Tempo, 606061
1, 142320, Note_on_c, 0, 74, 80
1, 142547, Note_on_c, 0, 74, 0
1, 142560, Note_on_c, 0, 72, 80
1, 142787, Note_on_c, 0, 72, 0
1, 142800, Tempo, 618557
1, 142800, Note_on_c, 0, 71, 80
1, 143027, Note_on_c, 0, 71, 0
1, 143040, Note_on_c, 0, 69, 80
1, 143100, Tempo, 631579
1, 143267, Note_on_c, 0, 69, 0
1, 143280, Tempo, 645161
1, 143280, Note_on_c, 0, 71, 80
1, 143760, Tempo, 681818
1, 143963, Note_on_c, 0, 71, 0
1, 144000, Tempo, 705882
1, 144000, Note_on_c, 0, 60, 80
1, 144000, Note_on_c, 0, 72, 80
1, 144227, Note_on_c, 0, 60, 0
1, 144227, Note_on_c, 0, 72, 0
1, 144240, Note_on_c, 0, 64, 80
1, 144467, Note_on_c, 0, 64, 0
1, 144480, Tempo, 769231
1, 144480, Note_on_c, 0, 67, 80
1, 144659, Note_on_c, 0, 67, 0
1, 144720, Note_on_c, 0, 72, 80
1, 144840, Tempo, 821918
1, 144840, Note_on_c, 0, 65, 80
1, 144924, Note_on_c, 0, 65, 0
1, 144930, Note_on_c, 0, 69, 80
1, 144947, Note_on_c, 0, 72, 0
1, 144957, Note_on_c, 0, 69, 0
1, 144960, Tempo, 845070
1, 144960, Note_on_c, 0, 72, 80
1, 145187, Note_on_c, 0, 72, 0
1, 145200, Note_on_c, 0, 62, 80
1, 145427, Note_on_c, 0, 62, 0
1, 145440, Tempo, 967742
1, 145440, Note_on_c, 0, 65, 80
1, 145667, Note_on_c, 0, 65, 0
1, 145680, Note_on_c, 0, 72, 80
1, 145907, Note_on_c, 0, 72, 0
1, 145920, Tempo, 1132075
1, 145920, Note_on_c, 0, 48, 80
1, 145960, Note_on_c, 0, 52, 80
1, 145965, Tempo, 1153846
1, 145995, Tempo, 1176471
1, 146000, Note_on_c, 0, 55, 80
1, 146040, Tempo, 1200000
1, 146040, Note_on_c, 0, 67, 80
1, 146071, Note_on_c, 0, 48, 0
1, 146080, Note_on_c, 0, 64, 80
1, 146120, Note_on_c, 0, 72, 80
1, 147745, Note_on_c, 0, 52, 0
1, 147747, Note_on_c, 0, 55, 0
1, 147749, Note_on_c, 0, 67, 0
1, 147751, Note_on_c, 0, 64, 0
1, 147753, Note_on_c, 0, 72, 0
1, 147754, End_track
2, 0, Start_track
2, 0, Title_t, "Piano, Minstrel\000"
2, 0, Key_signature, 0, "major"
2, 0, Control_c, 3, 121, 0
2, 0, Program_c, 3, 0
2, 0, Control_c, 3, 7, 100
2, 0, Control_c, 3, 10, 64
2, 0, Control_c, 3, 91, 0
2, 0, Control_c, 3, 93, 0
2, 0, MIDI_port, 0
2, 15360, Note_on_c, 3, 55, 80
2, 15360, Note_on_c, 3, 60, 80
2, 16727, Note_on_c, 3, 55, 0
2, 16727, Note_on_c, 3, 60, 0
2, 19200, Note_on_c, 3, 50, 80
2, 19200, Note_on_c, 3, 53, 80
2, 22847, Note_on_c, 3, 50, 0
2, 22847, Note_on_c, 3, 53, 0
2, 23040, Note_on_c, 3, 53, 80
2, 23040, Note_on_c, 3, 57, 80
2, 23040, Note_on_c, 3, 60, 80
2, 23495, Note_on_c, 3, 53, 0
2, 23495, Note_on_c, 3, 57, 0
2, 23495, Note_on_c, 3, 60, 0
2, 26880, Note_on_c, 3, 52, 80
2, 26880, Note_on_c, 3, 55, 80
2, 26880, Note_on_c, 3, 60, 80
2, 28703, Note_on_c, 3, 52, 0
2, 28703, Note_on_c, 3, 55, 0
2, 28703, Note_on_c, 3, 60, 0
2, 34560, Note_on_c, 3, 52, 80
2, 34560, Note_on_c, 3, 55, 80
2, 34560, Note_on_c, 3, 60, 80
2, 35471, Note_on_c, 3, 52, 0
2, 35471, Note_on_c, 3, 55, 0
2, 35471, Note_on_c, 3, 60, 0
2, 35520, Note_on_c, 3, 52, 80
2, 35520, Note_on_c, 3, 55, 80
2, 35520, Note_on_c, 3, 60, 80
2, 36431, Note_on_c, 3, 52, 0
2, 36431, Note_on_c, 3, 55, 0
2, 36431, Note_on_c, 3, 60, 0
2, 36480, Note_on_c, 3, 50, 80
2, 36480, Note_on_c, 3, 55, 80
2, 36480, Note_on_c, 3, 59, 80
2, 37391, Note_on_c, 3, 50, 0
2, 37391, Note_on_c, 3, 55, 0
2, 37391, Note_on_c, 3, 59, 0
2, 37440, Note_on_c, 3, 50, 80
2, 37440, Note_on_c, 3, 55, 80
2, 37440, Note_on_c, 3, 59, 80
2, 38351, Note_on_c, 3, 50, 0
2, 38351, Note_on_c, 3, 55, 0
2, 38351, Note_on_c, 3, 59, 0
2, 38400, Note_on_c, 3, 52, 80
2, 38400, Note_on_c, 3, 57, 80
2, 38400, Note_on_c, 3, 60, 80
2, 39311, Note_on_c, 3, 52, 0
2, 39311, Note_on_c, 3, 57, 0
2, 39311, Note_on_c, 3, 60, 0
2, 39360, Note_on_c, 3, 52, 80
2, 39360, Note_on_c, 3, 57, 80
2, 39360, Note_on_c, 3, 60, 80
2, 40271, Note_on_c, 3, 52, 0
2, 40271, Note_on_c, 3, 57, 0
2, 40271, Note_on_c, 3, 60, 0
2, 40320, Note_on_c, 3, 52, 80
2, 40320, Note_on_c, 3, 55, 80
2, 40320, Note_on_c, 3, 60, 80
2, 41231, Note_on_c, 3, 52, 0
2, 41231, Note_on_c, 3, 55, 0
2, 41231, Note_on_c, 3, 60, 0
2, 41280, Note_on_c, 3, 52, 80
2, 41280, Note_on_c, 3, 55, 80
2, 41280, Note_on_c, 3, 60, 80
2, 42191, Note_on_c, 3, 52, 0
2, 42191, Note_on_c, 3, 55, 0
2, 42191, Note_on_c, 3, 60, 0
2, 42240, Note_on_c, 3, 53, 80
2, 42240, Note_on_c, 3, 57, 80
2, 42240, Note_on_c, 3, 60, 80
2, 43151, Note_on_c, 3, 53, 0
2, 43151, Note_on_c, 3, 57, 0
2, 43151, Note_on_c, 3, 60, 0
2, 43200, Note_on_c, 3, 53, 80
2, 43200, Note_on_c, 3, 57, 80
2, 43200, Note_on_c, 3, 60, 80
2, 44111, Note_on_c, 3, 53, 0
2, 44111, Note_on_c, 3, 57, 0
2, 44111, Note_on_c, 3, 60, 0
2, 44160, Note_on_c, 3, 53, 80
2, 44160, Note_on_c, 3, 57, 80
2, 44160, Note_on_c, 3, 60, 80
2, 45071, Note_on_c, 3, 53, 0
2, 45071, Note_on_c, 3, 57, 0
2, 45071, Note_on_c, 3, 60, 0
2, 45120, Note_on_c, 3, 53, 80
2, 45120, Note_on_c, 3, 57, 80
2, 45120, Note_on_c, 3, 60, 80
2, 46031, Note_on_c, 3, 53, 0
2, 46031, Note_on_c, 3, 57, 0
2, 46031, Note_on_c, 3, 60, 0
2, 46080, Note_on_c, 3, 50, 80
2, 46080, Note_on_c, 3, 55, 80
2, 46080, Note_on_c, 3, 60, 80
2, 46991, Note_on_c, 3, 50, 0
2, 46991, Note_on_c, 3, 55, 0
2, 46991, Note_on_c, 3, 60, 0
2, 47040, Note_on_c, 3, 50, 80
2, 47040, Note_on_c, 3, 55, 80
2, 47040, Note_on_c, 3, 60, 80
2, 47951, Note_on_c, 3, 50, 0
2, 47951, Note_on_c, 3, 55, 0
2, 47951, Note_on_c, 3, 60, 0
2, 48000, Note_on_c, 3, 50, 80
2, 48000, Note_on_c, 3, 53, 80
2, 48000, Note_on_c, 3, 59, 80
2, 48455, Note_on_c, 3, 50, 0
2, 48455, Note_on_c, 3, 53, 0
2, 48455, Note_on_c, 3, 59, 0
2, 48480, Note_on_c, 3, 50, 80
2, 48480, Note_on_c, 3, 53, 80
2, 48480, Note_on_c, 3, 59, 80
2, 48935, Note_on_c, 3, 50, 0
2, 48935, Note_on_c, 3, 53, 0
2, 48935, Note_on_c, 3, 59, 0
2, 48960, Note_on_c, 3, 50, 80
2, 48960, Note_on_c, 3, 53, 80
2, 48960, Note_on_c, 3, 59, 80
2, 49415, Note_on_c, 3, 50, 0
2, 49415, Note_on_c, 3, 53, 0
2, 49415, Note_on_c, 3, 59, 0
2, 49440, Note_on_c, 3, 50, 80
2, 49440, Note_on_c, 3, 53, 80
2, 49440, Note_on_c, 3, 59, 80
2, 49895, Note_on_c, 3, 50, 0
2, 49895, Note_on_c, 3, 53, 0
2, 49895, Note_on_c, 3, 59, 0
2, 49920, Note_on_c, 3, 52, 80
2, 49920, Note_on_c, 3, 55, 80
2, 49920, Note_on_c, 3, 60, 80
2, 50375, Note_on_c, 3, 52, 0
2, 50375, Note_on_c, 3, 55, 0
2, 50375, Note_on_c, 3, 60, 0
2, 50400, Note_on_c, 3, 60, 80
2, 50855, Note_on_c, 3, 60, 0
2, 50880, Note_on_c, 3, 52, 80
2, 50880, Note_on_c, 3, 55, 80
2, 50880, Note_on_c, 3, 60, 80
2, 51335, Note_on_c, 3, 52, 0
2, 51335, Note_on_c, 3, 55, 0
2, 51335, Note_on_c, 3, 60, 0
2, 51840, Note_on_c, 3, 50, 80
2, 51840, Note_on_c, 3, 55, 80
2, 51840, Note_on_c, 3, 59, 80
2, 52295, Note_on_c, 3, 50, 0
2, 52295, Note_on_c, 3, 55, 0
2, 52295, Note_on_c, 3, 59, 0
2, 52320, Note_on_c, 3, 59, 80
2, 52775, Note_on_c, 3, 59, 0
2, 52800, Note_on_c, 3, 50, 80
2, 52800, Note_on_c, 3, 55, 80
2, 52800, Note_on_c, 3, 59, 80
2, 53255, Note_on_c, 3, 50, 0
2, 53255, Note_on_c, 3, 55, 0
2, 53255, Note_on_c, 3, 59, 0
2, 53280, Note_on_c, 3, 59, 80
2, 53735, Note_on_c, 3, 59, 0
2, 53760, Note_on_c, 3, 52, 80
2, 53760, Note_on_c, 3, 57, 80
2, 53760, Note_on_c, 3, 60, 80
2, 54215, Note_on_c, 3, 52, 0
2, 54215, Note_on_c, 3, 57, 0
2, 54215, Note_on_c, 3, 60, 0
2, 54240, Note_on_c, 3, 57, 80
2, 54695, Note_on_c, 3, 57, 0
2, 54720, Note_on_c, 3, 52, 80
2, 54720, Note_on_c, 3, 57, 80
2, 54720, Note_on_c, 3, 60, 80
2, 55175, Note_on_c, 3, 52, 0
2, 55175, Note_on_c, 3, 57, 0
2, 55175, Note_on_c, 3, 60, 0
2, 55200, Note_on_c, 3, 57, 80
2, 55655, Note_on_c, 3, 57, 0
2, 55680, Note_on_c, 3, 52, 80
2, 55680, Note_on_c, 3, 55, 80
2, 55680, Note_on_c, 3, 60, 80
2, 56135, Note_on_c, 3, 52, 0
2, 56135, Note_on_c, 3, 55, 0
2, 56135, Note_on_c, 3, 60, 0
2, 56160, Note_on_c, 3, 55, 80
2, 56615, Note_on_c, 3, 55, 0
2, 56640, Note_on_c, 3, 52, 80
2, 56640, Note_on_c, 3, 55, 80
2, 56640, Note_on_c, 3, 60, 80
2, 57095, Note_on_c, 3, 52, 0
2, 57095, Note_on_c, 3, 55, 0
2, 57095, Note_on_c, 3, 60, 0
2, 57120, Note_on_c, 3, 55, 80
2, 57575, Note_on_c, 3, 55, 0
2, 57600, Note_on_c, 3, 53, 80
2, 57600, Note_on_c, 3, 57, 80
2, 57600, Note_on_c, 3, 60, 80
2, 58055, Note_on_c, 3, 53, 0
2, 58055, Note_on_c, 3, 57, 0
2, 58055, Note_on_c, 3, 60, 0
2, 58080, Note_on_c, 3, 53, 80
2, 58535, Note_on_c, 3, 53, 0
2, 58560, Note_on_c, 3, 53, 80
2, 58560, Note_on_c, 3, 57, 80
2, 58560, Note_on_c, 3, 60, 80
2, 59015, Note_on_c, 3, 53, 0
2, 59015, Note_on_c, 3, 57, 0
2, 59015, Note_on_c, 3, 60, 0
2, 59040, Note_on_c, 3, 53, 80
2, 59495, Note_on_c, 3, 53, 0
2, 59520, Note_on_c, 3, 53, 80
2, 59520, Note_on_c, 3, 57, 80
2, 59520, Note_on_c, 3, 60, 80
2, 59975, Note_on_c, 3, 53, 0
2, 59975, Note_on_c, 3, 57, 0
2, 59975, Note_on_c, 3, 60, 0
2, 60000, Note_on_c, 3, 53, 80
2, 60455, Note_on_c, 3, 53, 0
2, 60480, Note_on_c, 3, 52, 80
2, 60480, Note_on_c, 3, 55, 80
2, 60480, Note_on_c, 3, 60, 80
2, 60935, Note_on_c, 3, 52, 0
2, 60935, Note_on_c, 3, 55, 0
2, 60935, Note_on_c, 3, 60, 0
2, 60960, Note_on_c, 3, 55, 80
2, 61415, Note_on_c, 3, 55, 0
2, 65280, Note_on_c, 3, 53, 80
2, 65280, Note_on_c, 3, 57, 80
2, 66191, Note_on_c, 3, 53, 0
2, 66191, Note_on_c, 3, 57, 0
2, 66240, Note_on_c, 3, 50, 80
2, 66240, Note_on_c, 3, 55, 80
2, 66923, Note_on_c, 3, 50, 0
2, 66923, Note_on_c, 3, 55, 0
2, 66960, Note_on_c, 3, 48, 80
2, 66960, Note_on_c, 3, 52, 80
2, 67871, Note_on_c, 3, 48, 0
2, 67871, Note_on_c, 3, 52, 0
2, 67920, Note_on_c, 3, 52, 80
2, 67920, Note_on_c, 3, 55, 80
2, 68603, Note_on_c, 3, 52, 0
2, 68603, Note_on_c, 3, 55, 0
2, 68640, Note_on_c, 3, 50, 80
2, 68640, Note_on_c, 3, 52, 80
2, 68640, Note_on_c, 3, 55, 80
2, 69095, Note_on_c, 3, 50, 0
2, 69095, Note_on_c, 3, 52, 0
2, 69095, Note_on_c, 3, 55, 0
2, 69120, Note_on_c, 3, 48, 80
2, 69120, Note_on_c, 3, 53, 80
2, 69120, Note_on_c, 3, 57, 80
2, 69803, Note_on_c, 3, 48, 0
2, 69803, Note_on_c, 3, 53, 0
2, 69803, Note_on_c, 3, 57, 0
2, 69840, Note_on_c, 3, 53, 80
2, 69840, Note_on_c, 3, 55, 80
2, 69840, Note_on_c, 3, 60, 80
2, 70295, Note_on_c, 3, 53, 0
2, 70295, Note_on_c, 3, 55, 0
2, 70295, Note_on_c, 3, 60, 0
2, 70320, Note_on_c, 3, 53, 80
2, 70320, Note_on_c, 3, 57, 80
2, 70320, Note_on_c, 3, 62, 80
2, 70679, Note_on_c, 3, 53, 0
2, 70679, Note_on_c, 3, 57, 0
2, 70679, Note_on_c, 3, 62, 0
2, 72960, Note_on_c, 3, 53, 80
2, 72960, Note_on_c, 3, 57, 80
2, 72960, Note_on_c, 3, 60, 80
2, 73871, Note_on_c, 3, 53, 0
2, 73871, Note_on_c, 3, 57, 0
2, 73871, Note_on_c, 3, 60, 0
2, 73920, Note_on_c, 3, 50, 80
2, 73920, Note_on_c, 3, 55, 80
2, 73920, Note_on_c, 3, 59, 80
2, 74603, Note_on_c, 3, 50, 0
2, 74603, Note_on_c, 3, 55, 0
2, 74603, Note_on_c, 3, 59, 0
2, 74640, Note_on_c, 3, 55, 80
2, 74640, Note_on_c, 3, 60, 80
2, 75551, Note_on_c, 3, 55, 0
2, 75551, Note_on_c, 3, 60, 0
2, 75600, Note_on_c, 3, 52, 80
2, 75600, Note_on_c, 3, 55, 80
2, 75600, Note_on_c, 3, 60, 80
2, 76283, Note_on_c, 3, 52, 0
2, 76283, Note_on_c, 3, 55, 0
2, 76283, Note_on_c, 3, 60, 0
2, 76320, Note_on_c, 3, 55, 80
2, 76320, Note_on_c, 3, 60, 80
2, 76320, Note_on_c, 3, 64, 80
2, 76775, Note_on_c, 3, 55, 0
2, 76775, Note_on_c, 3, 60, 0
2, 76775, Note_on_c, 3, 64, 0
2, 76800, Note_on_c, 3, 57, 80
2, 76800, Note_on_c, 3, 62, 80
2, 76800, Note_on_c, 3, 65, 80
2, 78395, Note_on_c, 3, 57, 0
2, 78395, Note_on_c, 3, 62, 0
2, 78395, Note_on_c, 3, 65, 0
2, 78480, Note_on_c, 3, 59, 80
2, 78480, Note_on_c, 3, 64, 80
2, 80303, Note_on_c, 3, 59, 0
2, 80303, Note_on_c, 3, 64, 0
2, 80400, Note_on_c, 3, 60, 80
2, 80400, Note_on_c, 3, 64, 80
2, 80627, Note_on_c, 3, 60, 0
2, 80627, Note_on_c, 3, 64, 0
2, 84480, Note_on_c, 3, 52, 80
2, 84480, Note_on_c, 3, 55, 80
2, 84480, Note_on_c, 3, 60, 80
2, 85391, Note_on_c, 3, 52, 0
2, 85391, Note_on_c, 3, 55, 0
2, 85391, Note_on_c, 3, 60, 0
2, 85440, Note_on_c, 3, 52, 80
2, 85440, Note_on_c, 3, 55, 80
2, 85440, Note_on_c, 3, 60, 80
2, 86351, Note_on_c, 3, 52, 0
2, 86351, Note_on_c, 3, 55, 0
2, 86351, Note_on_c, 3, 60, 0
2, 86400, Note_on_c, 3, 50, 80
2, 86400, Note_on_c, 3, 55, 80
2, 86400, Note_on_c, 3, 59, 80
2, 87311, Note_on_c, 3, 50, 0
2, 87311, Note_on_c, 3, 55, 0
2, 87311, Note_on_c, 3, 59, 0
2, 87360, Note_on_c, 3, 50, 80
2, 87360, Note_on_c, 3, 55, 80
2, 87360, Note_on_c, 3, 59, 80
2, 88271, Note_on_c, 3, 50, 0
2, 88271, Note_on_c, 3, 55, 0
2, 88271, Note_on_c, 3, 59, 0
2, 88320, Note_on_c, 3, 52, 80
2, 88320, Note_on_c, 3, 57, 80
2, 88320, Note_on_c, 3, 60, 80
2, 89231, Note_on_c, 3, 52, 0
2, 89231, Note_on_c, 3, 57, 0
2, 89231, Note_on_c, 3, 60, 0
2, 89280, Note_on_c, 3, 52, 80
2, 89280, Note_on_c, 3, 57, 80
2, 89280, Note_on_c, 3, 60, 80
2, 90191, Note_on_c, 3, 52, 0
2, 90191, Note_on_c, 3, 57, 0
2, 90191, Note_on_c, 3, 60, 0
2, 90240, Note_on_c, 3, 52, 80
2, 90240, Note_on_c, 3, 55, 80
2, 90240, Note_on_c, 3, 60, 80
2, 91151, Note_on_c, 3, 52, 0
2, 91151, Note_on_c, 3, 55, 0
2, 91151, Note_on_c, 3, 60, 0
2, 91200, Note_on_c, 3, 52, 80
2, 91200, Note_on_c, 3, 55, 80
2, 91200, Note_on_c, 3, 60, 80
2, 92111, Note_on_c, 3, 52, 0
2, 92111, Note_on_c, 3, 55, 0
2, 92111, Note_on_c, 3, 60, 0
2, 92160, Note_on_c, 3, 53, 80
2, 92160, Note_on_c, 3, 57, 80
2, 92160, Note_on_c, 3, 60, 80
2, 93071, Note_on_c, 3, 53, 0
2, 93071, Note_on_c, 3, 57, 0
2, 93071, Note_on_c, 3, 60, 0
2, 93120, Note_on_c, 3, 53, 80
2, 93120, Note_on_c, 3, 57, 80
2, 93120, Note_on_c, 3, 60, 80
2, 94031, Note_on_c, 3, 53, 0
2, 94031, Note_on_c, 3, 57, 0
2, 94031, Note_on_c, 3, 60, 0
2, 94080, Note_on_c, 3, 53, 80
2, 94080, Note_on_c, 3, 57, 80
2, 94080, Note_on_c, 3, 60, 80
2, 94991, Note_on_c, 3, 53, 0
2, 94991, Note_on_c, 3, 57, 0
2, 94991, Note_on_c, 3, 60, 0
2, 95040, Note_on_c, 3, 53, 80
2, 95040, Note_on_c, 3, 57, 80
2, 95040, Note_on_c, 3, 60, 80
2, 95951, Note_on_c, 3, 53, 0
2, 95951, Note_on_c, 3, 57, 0
2, 95951, Note_on_c, 3, 60, 0
2, 96000, Note_on_c, 3, 50, 80
2, 96000, Note_on_c, 3, 55, 80
2, 96000, Note_on_c, 3, 60, 80
2, 96911, Note_on_c, 3, 50, 0
2, 96911, Note_on_c, 3, 55, 0
2, 96911, Note_on_c, 3, 60, 0
2, 96960, Note_on_c, 3, 50, 80
2, 96960, Note_on_c, 3, 55, 80
2, 96960, Note_on_c, 3, 60, 80
2, 97871, Note_on_c, 3, 50, 0
2, 97871, Note_on_c, 3, 55, 0
2, 97871, Note_on_c, 3, 60, 0
2, 97920, Note_on_c, 3, 50, 80
2, 97920, Note_on_c, 3, 53, 80
2, 97920, Note_on_c, 3, 59, 80
2, 98375, Note_on_c, 3, 50, 0
2, 98375, Note_on_c, 3, 53, 0
2, 98375, Note_on_c, 3, 59, 0
2, 98400, Note_on_c, 3, 53, 80
2, 98400, Note_on_c, 3, 59, 80
2, 98855, Note_on_c, 3, 53, 0
2, 98855, Note_on_c, 3, 59, 0
2, 98880, Note_on_c, 3, 53, 80
2, 98880, Note_on_c, 3, 59, 80
2, 99335, Note_on_c, 3, 53, 0
2, 99335, Note_on_c, 3, 59, 0
2, 99360, Note_on_c, 3, 53, 80
2, 99360, Note_on_c, 3, 59, 80
2, 99815, Note_on_c, 3, 53, 0
2, 99815, Note_on_c, 3, 59, 0
2, 99840, Note_on_c, 3, 52, 80
2, 99840, Note_on_c, 3, 55, 80
2, 99840, Note_on_c, 3, 60, 80
2, 100295, Note_on_c, 3, 52, 0
2, 100295, Note_on_c, 3, 55, 0
2, 100295, Note_on_c, 3, 60, 0
2, 100320, Note_on_c, 3, 60, 80
2, 100775, Note_on_c, 3, 60, 0
2, 100800, Note_on_c, 3, 52, 80
2, 100800, Note_on_c, 3, 55, 80
2, 100800, Note_on_c, 3, 60, 80
2, 101255, Note_on_c, 3, 52, 0
2, 101255, Note_on_c, 3, 55, 0
2, 101255, Note_on_c, 3, 60, 0
2, 101760, Note_on_c, 3, 50, 80
2, 101760, Note_on_c, 3, 55, 80
2, 101760, Note_on_c, 3, 59, 80
2, 102215, Note_on_c, 3, 50, 0
2, 102215, Note_on_c, 3, 55, 0
2, 102215, Note_on_c, 3, 59, 0
2, 102240, Note_on_c, 3, 59, 80
2, 102695, Note_on_c, 3, 59, 0
2, 102720, Note_on_c, 3, 50, 80
2, 102720, Note_on_c, 3, 55, 80
2, 102720, Note_on_c, 3, 59, 80
2, 103175, Note_on_c, 3, 50, 0
2, 103175, Note_on_c, 3, 55, 0
2, 103175, Note_on_c, 3, 59, 0
2, 103200, Note_on_c, 3, 59, 80
2, 103655, Note_on_c, 3, 59, 0
2, 103680, Note_on_c, 3, 52, 80
2, 103680, Note_on_c, 3, 57, 80
2, 103680, Note_on_c, 3, 60, 80
2, 104135, Note_on_c, 3, 52, 0
2, 104135, Note_on_c, 3, 57, 0
2, 104135, Note_on_c, 3, 60, 0
2, 104160, Note_on_c, 3, 57, 80
2, 104615, Note_on_c, 3, 57, 0
2, 104640, Note_on_c, 3, 52, 80
2, 104640, Note_on_c, 3, 57, 80
2, 104640, Note_on_c, 3, 60, 80
2, 105095, Note_on_c, 3, 52, 0
2, 105095, Note_on_c, 3, 57, 0
2, 105095, Note_on_c, 3, 60, 0
2, 105120, Note_on_c, 3, 57, 80
2, 105575, Note_on_c, 3, 57, 0
2, 105600, Note_on_c, 3, 52, 80
2, 105600, Note_on_c, 3, 55, 80
2, 105600, Note_on_c, 3, 60, 80
2, 106055, Note_on_c, 3, 52, 0
2, 106055, Note_on_c, 3, 55, 0
2, 106055, Note_on_c, 3, 60, 0
2, 106080, Note_on_c, 3, 55, 80
2, 106535, Note_on_c, 3, 55, 0
2, 106560, Note_on_c, 3, 52, 80
2, 106560, Note_on_c, 3, 55, 80
2, 106560, Note_on_c, 3, 60, 80
2, 107015, Note_on_c, 3, 52, 0
2, 107015, Note_on_c, 3, 55, 0
2, 107015, Note_on_c, 3, 60, 0
2, 107040, Note_on_c, 3, 55, 80
2, 107495, Note_on_c, 3, 55, 0
2, 107520, Note_on_c, 3, 57, 80
2, 107520, Note_on_c, 3, 60, 80
2, 107975, Note_on_c, 3, 57, 0
2, 107975, Note_on_c, 3, 60, 0
2, 108000, Note_on_c, 3, 53, 80
2, 108455, Note_on_c, 3, 53, 0
2, 108480, Note_on_c, 3, 57, 80
2, 108480, Note_on_c, 3, 60, 80
2, 108935, Note_on_c, 3, 57, 0
2, 108935, Note_on_c, 3, 60, 0
2, 108960, Note_on_c, 3, 53, 80
2, 109415, Note_on_c, 3, 53, 0
2, 109440, Note_on_c, 3, 57, 80
2, 109440, Note_on_c, 3, 60, 80
2, 109895, Note_on_c, 3, 57, 0
2, 109895, Note_on_c, 3, 60, 0
2, 109920, Note_on_c, 3, 53, 80
2, 110375, Note_on_c, 3, 53, 0
2, 110400, Note_on_c, 3, 55, 80
2, 110400, Note_on_c, 3, 60, 80
2, 110855, Note_on_c, 3, 55, 0
2, 110855, Note_on_c, 3, 60, 0
2, 110880, Note_on_c, 3, 55, 80
2, 111335, Note_on_c, 3, 55, 0
2, 117120, Note_on_c, 3, 52, 80
2, 117347, Note_on_c, 3, 52, 0
2, 117360, Note_on_c, 3, 55, 80
2, 117587, Note_on_c, 3, 55, 0
2, 117600, Note_on_c, 3, 60, 80
2, 117827, Note_on_c, 3, 60, 0
2, 117840, Note_on_c, 3, 64, 80
2, 118067, Note_on_c, 3, 64, 0
2, 119040, Note_on_c, 3, 50, 80
2, 119267, Note_on_c, 3, 50, 0
2, 119280, Note_on_c, 3, 55, 80
2, 119507, Note_on_c, 3, 55, 0
2, 119520, Note_on_c, 3, 59, 80
2, 119747, Note_on_c, 3, 59, 0
2, 119760, Note_on_c, 3, 62, 80
2, 120785, Note_on_c, 3, 62, 0
2, 120960, Note_on_c, 3, 52, 80
2, 121187, Note_on_c, 3, 52, 0
2, 121200, Note_on_c, 3, 57, 80
2, 121427, Note_on_c, 3, 57, 0
2, 121440, Note_on_c, 3, 60, 80
2, 121667, Note_on_c, 3, 60, 0
2, 121680, Note_on_c, 3, 64, 80
2, 122135, Note_on_c, 3, 64, 0
2, 122160, Note_on_c, 3, 60, 80
2, 122387, Note_on_c, 3, 60, 0
2, 122400, Note_on_c, 3, 57, 80
2, 122855, Note_on_c, 3, 57, 0
2, 122880, Note_on_c, 3, 52, 80
2, 123107, Note_on_c, 3, 52, 0
2, 123120, Note_on_c, 3, 55, 80
2, 123347, Note_on_c, 3, 55, 0
2, 123360, Note_on_c, 3, 60, 80
2, 123587, Note_on_c, 3, 60, 0
2, 123600, Note_on_c, 3, 64, 80
2, 124055, Note_on_c, 3, 64, 0
2, 124080, Note_on_c, 3, 60, 80
2, 124307, Note_on_c, 3, 60, 0
2, 124320, Note_on_c, 3, 55, 80
2, 124547, Note_on_c, 3, 55, 0
2, 124560, Note_on_c, 3, 52, 80
2, 124787, Note_on_c, 3, 52, 0
2, 124800, Note_on_c, 3, 53, 80
2, 125027, Note_on_c, 3, 53, 0
2, 125040, Note_on_c, 3, 57, 80
2, 125267, Note_on_c, 3, 57, 0
2, 125280, Note_on_c, 3, 60, 80
2, 125519, Note_on_c, 3, 60, 0
2, 126000, Note_on_c, 3, 60, 80
2, 126227, Note_on_c, 3, 60, 0
2, 126240, Note_on_c, 3, 57, 80
2, 126695, Note_on_c, 3, 57, 0
2, 126720, Note_on_c, 3, 53, 80
2, 126947, Note_on_c, 3, 53, 0
2, 126960, Note_on_c, 3, 57, 80
2, 127187, Note_on_c, 3, 57, 0
2, 127200, Note_on_c, 3, 60, 80
2, 127427, Note_on_c, 3, 60, 0
2, 127440, Note_on_c, 3, 65, 80
2, 127895, Note_on_c, 3, 65, 0
2, 127920, Note_on_c, 3, 60, 80
2, 128147, Note_on_c, 3, 60, 0
2, 128160, Note_on_c, 3, 57, 80
2, 128387, Note_on_c, 3, 57, 0
2, 128400, Note_on_c, 3, 53, 80
2, 128627, Note_on_c, 3, 53, 0
2, 128640, Note_on_c, 3, 50, 80
2, 128867, Note_on_c, 3, 50, 0
2, 128880, Note_on_c, 3, 55, 80
2, 129107, Note_on_c, 3, 55, 0
2, 129120, Note_on_c, 3, 60, 80
2, 129347, Note_on_c, 3, 60, 0
2, 129360, Note_on_c, 3, 67, 80
2, 129815, Note_on_c, 3, 67, 0
2, 129840, Note_on_c, 3, 60, 80
2, 130067, Note_on_c, 3, 60, 0
2, 130080, Note_on_c, 3, 55, 80
2, 130307, Note_on_c, 3, 55, 0
2, 130320, Note_on_c, 3, 50, 80
2, 130547, Note_on_c, 3, 50, 0
2, 130560, Note_on_c, 3, 50, 80
2, 130787, Note_on_c, 3, 50, 0
2, 130800, Note_on_c, 3, 55, 80
2, 131027, Note_on_c, 3, 55, 0
2, 131040, Note_on_c, 3, 59, 80
2, 131267, Note_on_c, 3, 59, 0
2, 131280, Note_on_c, 3, 62, 80
2, 131507, Note_on_c, 3, 62, 0
2, 131520, Note_on_c, 3, 59, 80
2, 131747, Note_on_c, 3, 59, 0
2, 131760, Note_on_c, 3, 62, 80
2, 131987, Note_on_c, 3, 62, 0
2, 132000, Note_on_c, 3, 67, 80
2, 132239, Note_on_c, 3, 67, 0
2, 132480, Note_on_c, 3, 52, 80
2, 132480, Note_on_c, 3, 55, 80
2, 132480, Note_on_c, 3, 60, 80
2, 132935, Note_on_c, 3, 52, 0
2, 132935, Note_on_c, 3, 55, 0
2, 132935, Note_on_c, 3, 60, 0
2, 134400, Note_on_c, 3, 50, 80
2, 134400, Note_on_c, 3, 55, 80
2, 134400, Note_on_c, 3, 59, 80
2, 134855, Note_on_c, 3, 50, 0
2, 134855, Note_on_c, 3, 55, 0
2, 134855, Note_on_c, 3, 59, 0
2, 136320, Note_on_c, 3, 52, 80
2, 136350, Note_on_c, 3, 60, 80
2, 138030, Note_on_c, 3, 60, 0
2, 138143, Note_on_c, 3, 52, 0
2, 138240, Note_on_c, 3, 52, 80
2, 138270, Note_on_c, 3, 60, 80
2, 139950, Note_on_c, 3, 60, 0
2, 140063, Note_on_c, 3, 52, 0
2, 140160, Note_on_c, 3, 53, 80
2, 140387, Note_on_c, 3, 53, 0
2, 140400, Note_on_c, 3, 57, 80
2, 140627, Note_on_c, 3, 57, 0
2, 140640, Note_on_c, 3, 60, 80
2, 140879, Note_on_c, 3, 60, 0
2, 141600, Note_on_c, 3, 60, 80
2, 141827, Note_on_c, 3, 60, 0
2, 141840, Note_on_c, 3, 53, 80
2, 142067, Note_on_c, 3, 53, 0
2, 142080, Note_on_c, 3, 53, 80
2, 142140, Note_on_c, 3, 57, 80
2, 142200, Note_on_c, 3, 60, 80
2, 142991, Note_on_c, 3, 53, 0
2, 142994, Note_on_c, 3, 57, 0
2, 142997, Note_on_c, 3, 60, 0
2, 143040, Note_on_c, 3, 55, 80
2, 143100, Note_on_c, 3, 59, 80
2, 143160, Note_on_c, 3, 62, 80
2, 143951, Note_on_c, 3, 55, 0
2, 143954, Note_on_c, 3, 59, 0
2, 143957, Note_on_c, 3, 62, 0
2, 144000, Note_on_c, 3, 48, 80
2, 144000, Note_on_c, 3, 52, 80
2, 144000, Note_on_c, 3, 55, 80
2, 144911, Note_on_c, 3, 48, 0
2, 144911, Note_on_c, 3, 52, 0
2, 144911, Note_on_c, 3, 55, 0
2, 144960, Note_on_c, 3, 53, 80
2, 144960, Note_on_c, 3, 57, 80
2, 144960, Note_on_c, 3, 60, 80
2, 145871, Note_on_c, 3, 53, 0
2, 145871, Note_on_c, 3, 57, 0
2, 145871, Note_on_c, 3, 60, 0
2, 145872, End_track
3, 0, Start_track
3, 0, Title_t, "Electric Bass, Bass\000"
3, 0, Key_signature, 0, "major"
3, 0, Control_c, 2, 121, 0
3, 0, Program_c, 2, 33
3, 0, Control_c, 2, 7, 100
3, 0, Control_c, 2, 10, 64
3, 0, Control_c, 2, 91, 0
3, 0, Control_c, 2, 93, 0
3, 0, MIDI_port, 0
3, 0, Control_c, 5, 121, 0
3, 0, Program_c, 5, 36
3, 0, Control_c, 5, 7, 100
3, 0, Control_c, 5, 10, 64
3, 0, Control_c, 5, 91, 0
3, 0, Control_c, 5, 93, 0
3, 0, MIDI_port, 0
3, 0, Control_c, 6, 121, 0
3, 0, Program_c, 6, 37
3, 0, Control_c, 6, 7, 100
3, 0, Control_c, 6, 10, 64
3, 0, Control_c, 6, 91, 0
3, 0, Control_c, 6, 93, 0
3, 0, MIDI_port, 0
3, 15360, Note_on_c, 2, 60, 80
3, 17279, Note_on_c, 2, 60, 0
3, 19200, Note_on_c, 2, 62, 80
3, 21119, Note_on_c, 2, 62, 0
3, 23040, Note_on_c, 2, 65, 80
3, 24959, Note_on_c, 2, 65, 0
3, 26880, Note_on_c, 2, 60, 80
3, 28799, Note_on_c, 2, 60, 0
3, 30720, Note_on_c, 2, 60, 80
3, 31679, Note_on_c, 2, 60, 0
3, 31680, Note_on_c, 2, 60, 80
3, 32639, Note_on_c, 2, 60, 0
3, 32640, Note_on_c, 2, 60, 80
3, 33599, Note_on_c, 2, 60, 0
3, 33600, Note_on_c, 2, 60, 80
3, 34559, Note_on_c, 2, 60, 0
3, 34560, Note_on_c, 2, 60, 80
3, 35519, Note_on_c, 2, 60, 0
3, 35520, Note_on_c, 2, 60, 80
3, 36479, Note_on_c, 2, 60, 0
3, 36480, Note_on_c, 2, 59, 80
3, 37439, Note_on_c, 2, 59, 0
3, 37440, Note_on_c, 2, 59, 80
3, 38399, Note_on_c, 2, 59, 0
3, 38400, Note_on_c, 2, 57, 80
3, 39359, Note_on_c, 2, 57, 0
3, 39360, Note_on_c, 2, 57, 80
3, 40319, Note_on_c, 2, 57, 0
3, 40320, Note_on_c, 2, 55, 80
3, 41279, Note_on_c, 2, 55, 0
3, 41280, Note_on_c, 2, 55, 80
3, 42239, Note_on_c, 2, 55, 0
3, 42240, Note_on_c, 2, 53, 80
3, 43199, Note_on_c, 2, 53, 0
3, 43200, Note_on_c, 2, 53, 80
3, 44159, Note_on_c, 2, 53, 0
3, 44160, Note_on_c, 2, 53, 80
3, 45119, Note_on_c, 2, 53, 0
3, 45120, Note_on_c, 2, 53, 80
3, 46079, Note_on_c, 2, 53, 0
3, 46080, Note_on_c, 2, 55, 80
3, 47039, Note_on_c, 2, 55, 0
3, 47040, Note_on_c, 2, 55, 80
3, 47999, Note_on_c, 2, 55, 0
3, 48000, Note_on_c, 2, 55, 80
3, 48479, Note_on_c, 2, 55, 0
3, 48480, Note_on_c, 2, 55, 80
3, 48959, Note_on_c, 2, 55, 0
3, 48960, Note_on_c, 2, 55, 80
3, 49439, Note_on_c, 2, 55, 0
3, 49440, Note_on_c, 2, 55, 80
3, 49919, Note_on_c, 2, 55, 0
3, 49920, Note_on_c, 2, 60, 80
3, 50399, Note_on_c, 2, 60, 0
3, 50400, Note_on_c, 2, 60, 80
3, 50879, Note_on_c, 2, 60, 0
3, 50880, Note_on_c, 2, 60, 80
3, 51359, Note_on_c, 2, 60, 0
3, 51360, Note_on_c, 2, 60, 80
3, 51839, Note_on_c, 2, 60, 0
3, 51840, Note_on_c, 2, 59, 80
3, 52319, Note_on_c, 2, 59, 0
3, 52320, Note_on_c, 2, 59, 80
3, 52799, Note_on_c, 2, 59, 0
3, 52800, Note_on_c, 2, 59, 80
3, 53279, Note_on_c, 2, 59, 0
3, 53280, Note_on_c, 2, 59, 80
3, 53759, Note_on_c, 2, 59, 0
3, 53760, Note_on_c, 2, 57, 80
3, 54239, Note_on_c, 2, 57, 0
3, 54240, Note_on_c, 2, 57, 80
3, 54719, Note_on_c, 2, 57, 0
3, 54720, Note_on_c, 2, 57, 80
3, 55199, Note_on_c, 2, 57, 0
3, 55200, Note_on_c, 2, 57, 80
3, 55679, Note_on_c, 2, 57, 0
3, 55680, Note_on_c, 2, 55, 80
3, 56159, Note_on_c, 2, 55, 0
3, 56160, Note_on_c, 2, 55, 80
3, 56639, Note_on_c, 2, 55, 0
3, 56640, Note_on_c, 2, 55, 80
3, 57119, Note_on_c, 2, 55, 0
3, 57120, Note_on_c, 2, 55, 80
3, 57599, Note_on_c, 2, 55, 0
3, 57600, Note_on_c, 2, 53, 80
3, 58079, Note_on_c, 2, 53, 0
3, 58080, Note_on_c, 2, 53, 80
3, 58559, Note_on_c, 2, 53, 0
3, 58560, Note_on_c, 2, 53, 80
3, 59039, Note_on_c, 2, 53, 0
3, 59040, Note_on_c, 2, 53, 80
3, 59519, Note_on_c, 2, 53, 0
3, 59520, Note_on_c, 2, 53, 80
3, 59999, Note_on_c, 2, 53, 0
3, 60000, Note_on_c, 2, 53, 80
3, 60479, Note_on_c, 2, 53, 0
3, 60480, Note_on_c, 2, 55, 80
3, 60959, Note_on_c, 2, 55, 0
3, 60960, Note_on_c, 2, 55, 80
3, 61439, Note_on_c, 2, 55, 0
3, 61440, Note_on_c, 2, 60, 80
3, 63359, Note_on_c, 2, 60, 0
3, 65280, Note_on_c, 2, 50, 80
3, 65519, Note_on_c, 2, 50, 0
3, 65520, Note_on_c, 2, 50, 80
3, 66239, Note_on_c, 2, 50, 0
3, 66240, Note_on_c, 2, 55, 80
3, 66479, Note_on_c, 2, 55, 0
3, 66480, Note_on_c, 2, 55, 80
3, 66719, Note_on_c, 2, 55, 0
3, 66960, Note_on_c, 2, 60, 80
3, 67439, Note_on_c, 2, 60, 0
3, 67920, Note_on_c, 2, 60, 80
3, 68639, Note_on_c, 2, 60, 0
3, 68640, Note_on_c, 2, 60, 80
3, 69119, Note_on_c, 2, 60, 0
3, 69120, Note_on_c, 2, 50, 80
3, 69599, Note_on_c, 2, 50, 0
3, 69600, Note_on_c, 2, 50, 80
3, 69839, Note_on_c, 2, 50, 0
3, 69840, Note_on_c, 2, 50, 80
3, 70319, Note_on_c, 2, 50, 0
3, 70320, Note_on_c, 2, 50, 80
3, 70799, Note_on_c, 2, 50, 0
3, 70800, Note_on_c, 2, 50, 80
3, 71039, Note_on_c, 2, 50, 0
3, 71280, Note_on_c, 2, 52, 80
3, 71519, Note_on_c, 2, 52, 0
3, 71520, Note_on_c, 2, 52, 80
3, 71759, Note_on_c, 2, 52, 0
3, 71760, Note_on_c, 2, 52, 80
3, 71999, Note_on_c, 2, 52, 0
3, 72000, Note_on_c, 2, 52, 80
3, 72239, Note_on_c, 2, 52, 0
3, 72240, Note_on_c, 2, 52, 80
3, 72479, Note_on_c, 2, 52, 0
3, 72480, Note_on_c, 2, 52, 80
3, 72719, Note_on_c, 2, 52, 0
3, 72720, Note_on_c, 2, 52, 80
3, 72959, Note_on_c, 2, 52, 0
3, 72960, Note_on_c, 2, 50, 80
3, 73199, Note_on_c, 2, 50, 0
3, 73200, Note_on_c, 2, 50, 80
3, 73439, Note_on_c, 2, 50, 0
3, 73920, Note_on_c, 2, 55, 80
3, 74159, Note_on_c, 2, 55, 0
3, 74160, Note_on_c, 2, 55, 80
3, 74399, Note_on_c, 2, 55, 0
3, 74640, Note_on_c, 2, 60, 80
3, 75119, Note_on_c, 2, 60, 0
3, 75600, Note_on_c, 2, 60, 80
3, 76319, Note_on_c, 2, 60, 0
3, 76320, Note_on_c, 2, 60, 80
3, 76799, Note_on_c, 2, 60, 0
3, 76800, Note_on_c, 2, 50, 80
3, 77519, Note_on_c, 2, 50, 0
3, 77520, Note_on_c, 2, 50, 80
3, 77639, Note_on_c, 2, 50, 0
3, 77760, Note_on_c, 2, 50, 80
3, 78479, Note_on_c, 2, 50, 0
3, 78480, Note_on_c, 2, 53, 80
3, 78719, Note_on_c, 2, 53, 0
3, 78720, Note_on_c, 2, 52, 80
3, 79439, Note_on_c, 2, 52, 0
3, 79440, Note_on_c, 2, 52, 80
3, 79679, Note_on_c, 2, 52, 0
3, 79680, Note_on_c, 2, 52, 80
3, 80159, Note_on_c, 2, 52, 0
3, 80160, Note_on_c, 2, 59, 80
3, 80639, Note_on_c, 2, 59, 0
3, 80640, Note_on_c, 2, 53, 80
3, 81359, Note_on_c, 2, 53, 0
3, 81360, Note_on_c, 2, 53, 80
3, 81479, Note_on_c, 2, 53, 0
3, 81600, Note_on_c, 2, 53, 80
3, 82319, Note_on_c, 2, 53, 0
3, 82320, Note_on_c, 2, 53, 80
3, 82559, Note_on_c, 2, 53, 0
3, 82560, Note_on_c, 2, 53, 80
3, 83279, Note_on_c, 2, 53, 0
3, 83280, Note_on_c, 2, 48, 80
3, 83399, Note_on_c, 2, 48, 0
3, 83520, Note_on_c, 2, 53, 80
3, 83999, Note_on_c, 2, 53, 0
3, 84000, Note_on_c, 2, 55, 80
3, 84479, Note_on_c, 2, 55, 0
3, 84480, Note_on_c, 2, 60, 80
3, 85439, Note_on_c, 2, 60, 0
3, 85440, Note_on_c, 2, 60, 80
3, 86399, Note_on_c, 2, 60, 0
3, 86400, Note_on_c, 2, 59, 80
3, 87359, Note_on_c, 2, 59, 0
3, 87360, Note_on_c, 2, 59, 80
3, 88319, Note_on_c, 2, 59, 0
3, 88320, Note_on_c, 2, 57, 80
3, 89279, Note_on_c, 2, 57, 0
3, 89280, Note_on_c, 2, 57, 80
3, 90239, Note_on_c, 2, 57, 0
3, 90240, Note_on_c, 2, 55, 80
3, 91199, Note_on_c, 2, 55, 0
3, 91200, Note_on_c, 2, 55, 80
3, 92159, Note_on_c, 2, 55, 0
3, 92160, Note_on_c, 2, 53, 80
3, 93119, Note_on_c, 2, 53, 0
3, 93120, Note_on_c, 2, 53, 80
3, 94079, Note_on_c, 2, 53, 0
3, 94080, Note_on_c, 2, 53, 80
3, 95039, Note_on_c, 2, 53, 0
3, 95040, Note_on_c, 2, 53, 80
3, 95999, Note_on_c, 2, 53, 0
3, 96000, Note_on_c, 2, 55, 80
3, 96959, Note_on_c, 2, 55, 0
3, 96960, Note_on_c, 2, 55, 80
3, 97919, Note_on_c, 2, 55, 0
3, 97920, Note_on_c, 2, 55, 80
3, 98399, Note_on_c, 2, 55, 0
3, 98400, Note_on_c, 2, 55, 80
3, 98879, Note_on_c, 2, 55, 0
3, 98880, Note_on_c, 2, 55, 80
3, 99359, Note_on_c, 2, 55, 0
3, 99360, Note_on_c, 2, 55, 80
3, 99839, Note_on_c, 2, 55, 0
3, 99840, Note_on_c, 2, 60, 80
3, 100319, Note_on_c, 2, 60, 0
3, 100320, Note_on_c, 2, 60, 80
3, 100799, Note_on_c, 2, 60, 0
3, 100800, Note_on_c, 2, 60, 80
3, 101279, Note_on_c, 2, 60, 0
3, 101280, Note_on_c, 2, 60, 80
3, 101759, Note_on_c, 2, 60, 0
3, 101760, Note_on_c, 2, 59, 80
3, 102239, Note_on_c, 2, 59, 0
3, 102240, Note_on_c, 2, 59, 80
3, 102719, Note_on_c, 2, 59, 0
3, 102720, Note_on_c, 2, 59, 80
3, 103199, Note_on_c, 2, 59, 0
3, 103200, Note_on_c, 2, 59, 80
3, 103679, Note_on_c, 2, 59, 0
3, 103680, Note_on_c, 2, 57, 80
3, 104159, Note_on_c, 2, 57, 0
3, 104160, Note_on_c, 2, 57, 80
3, 104639, Note_on_c, 2, 57, 0
3, 104640, Note_on_c, 2, 57, 80
3, 105119, Note_on_c, 2, 57, 0
3, 105120, Note_on_c, 2, 57, 80
3, 105599, Note_on_c, 2, 57, 0
3, 105600, Note_on_c, 2, 55, 80
3, 106079, Note_on_c, 2, 55, 0
3, 106080, Note_on_c, 2, 55, 80
3, 106559, Note_on_c, 2, 55, 0
3, 106560, Note_on_c, 2, 55, 80
3, 107039, Note_on_c, 2, 55, 0
3, 107040, Note_on_c, 2, 55, 80
3, 107519, Note_on_c, 2, 55, 0
3, 107520, Note_on_c, 2, 53, 80
3, 107999, Note_on_c, 2, 53, 0
3, 108000, Note_on_c, 2, 53, 80
3, 108479, Note_on_c, 2, 53, 0
3, 108480, Note_on_c, 2, 53, 80
3, 108959, Note_on_c, 2, 53, 0
3, 108960, Note_on_c, 2, 53, 80
3, 109439, Note_on_c, 2, 53, 0
3, 109440, Note_on_c, 2, 53, 80
3, 109919, Note_on_c, 2, 53, 0
3, 109920, Note_on_c, 2, 53, 80
3, 110399, Note_on_c, 2, 53, 0
3, 110400, Note_on_c, 2, 55, 80
3, 110879, Note_on_c, 2, 55, 0
3, 110880, Note_on_c, 2, 55, 80
3, 111359, Note_on_c, 2, 55, 0
3, 132480, Note_on_c, 2, 60, 80
3, 134399, Note_on_c, 2, 60, 0
3, 134400, Note_on_c, 2, 59, 80
3, 136319, Note_on_c, 2, 59, 0
3, 136320, Note_on_c, 2, 57, 80
3, 137759, Note_on_c, 2, 57, 0
3, 138000, Note_on_c, 2, 57, 80
3, 138239, Note_on_c, 2, 57, 0
3, 138240, Note_on_c, 2, 55, 80
3, 140159, Note_on_c, 2, 55, 0
3, 140160, Note_on_c, 2, 53, 80
3, 142079, Note_on_c, 2, 53, 0
3, 142080, End_track
4, 0, Start_track
4, 0, Title_t, "Bell, Bell\000"
4, 0, Key_signature, 0, "major"
4, 0, Control_c, 4, 121, 0
4, 0, Program_c, 4, 14
4, 0, Control_c, 4, 7, 100
4, 0, Control_c, 4, 10, 64
4, 0, Control_c, 4, 91, 0
4, 0, Control_c, 4, 93, 0
4, 0, MIDI_port, 0
4, 15360, Note_on_c, 4, 60, 64
4, 15360, Control_c, 4, 2, 80
4, 16079, Note_on_c, 4, 60, 0
4, 16080, Note_on_c, 4, 67, 64
4, 16080, Control_c, 4, 2, 80
4, 16320, Control_c, 4, 2, 80
4, 16799, Note_on_c, 4, 67, 0
4, 16800, Note_on_c, 4, 72, 64
4, 16800, Control_c, 4, 2, 80
4, 17280, Control_c, 4, 2, 80
4, 19199, Note_on_c, 4, 72, 0
4, 19200, Note_on_c, 4, 62, 64
4, 19200, Control_c, 4, 2, 80
4, 19919, Note_on_c, 4, 62, 0
4, 19920, Note_on_c, 4, 69, 64
4, 19920, Control_c, 4, 2, 80
4, 20160, Control_c, 4, 2, 80
4, 20639, Note_on_c, 4, 69, 0
4, 20640, Note_on_c, 4, 74, 64
4, 20640, Control_c, 4, 2, 80
4, 21120, Control_c, 4, 2, 80
4, 23039, Note_on_c, 4, 74, 0
4, 23040, Note_on_c, 4, 65, 64
4, 23040, Control_c, 4, 2, 80
4, 23759, Note_on_c, 4, 65, 0
4, 23760, Note_on_c, 4, 72, 64
4, 23760, Control_c, 4, 2, 80
4, 24000, Control_c, 4, 2, 80
4, 24479, Note_on_c, 4, 72, 0
4, 24480, Note_on_c, 4, 77, 64
4, 24480, Control_c, 4, 2, 80
4, 24960, Control_c, 4, 2, 80
4, 26879, Note_on_c, 4, 77, 0
4, 26880, Note_on_c, 4, 60, 64
4, 26880, Control_c, 4, 2, 80
4, 27599, Note_on_c, 4, 60, 0
4, 27600, Note_on_c, 4, 67, 64
4, 27600, Control_c, 4, 2, 80
4, 27840, Control_c, 4, 2, 80
4, 28319, Note_on_c, 4, 67, 0
4, 28320, Note_on_c, 4, 72, 64
4, 28320, Control_c, 4, 2, 80
4, 28800, Control_c, 4, 2, 80
4, 30719, Note_on_c, 4, 72, 0
4, 67440, Note_on_c, 4, 71, 64
4, 67440, Control_c, 4, 2, 80
4, 67679, Note_on_c, 4, 71, 0
4, 67680, Note_on_c, 4, 72, 64
4, 67919, Note_on_c, 4, 72, 0
4, 67920, Note_on_c, 4, 79, 64
4, 68159, Note_on_c, 4, 79, 0
4, 68400, Note_on_c, 4, 83, 64
4, 68639, Note_on_c, 4, 83, 0
4, 68640, Note_on_c, 4, 84, 64
4, 68879, Note_on_c, 4, 84, 0
4, 68880, Note_on_c, 4, 79, 64
4, 69119, Note_on_c, 4, 79, 0
4, 69120, End_track
5, 0, Start_track
5, 0, Title_t, "Lute, Lute\000"
5, 0, Key_signature, 0, "major"
5, 0, Control_c, 1, 121, 0
5, 0, Program_c, 1, 24
5, 0, Control_c, 1, 7, 100
5, 0, Control_c, 1, 10, 64
5, 0, Control_c, 1, 91, 0
5, 0, Control_c, 1, 93, 0
5, 0, MIDI_port, 0
5, 0, Note_on_c, 1, 60, 80
5, 0, Control_c, 1, 2, 80
5, 239, Note_on_c, 1, 60, 0
5, 240, Note_on_c, 1, 67, 80
5, 479, Note_on_c, 1, 67, 0
5, 480, Note_on_c, 1, 72, 80
5, 719, Note_on_c, 1, 72, 0
5, 720, Note_on_c, 1, 74, 80
5, 959, Note_on_c, 1, 74, 0
5, 960, Note_on_c, 1, 67, 80
5, 1199, Note_on_c, 1, 67, 0
5, 1200, Note_on_c, 1, 72, 80
5, 1439, Note_on_c, 1, 72, 0
5, 1440, Note_on_c, 1, 74, 80
5, 1679, Note_on_c, 1, 74, 0
5, 1680, Note_on_c, 1, 67, 80
5, 1919, Note_on_c, 1, 67, 0
5, 1920, Note_on_c, 1, 77, 80
5, 2159, Note_on_c, 1, 77, 0
5, 2160, Note_on_c, 1, 67, 80
5, 2399, Note_on_c, 1, 67, 0
5, 2400, Note_on_c, 1, 77, 80
5, 2639, Note_on_c, 1, 77, 0
5, 2640, Note_on_c, 1, 76, 80
5, 2879, Note_on_c, 1, 76, 0
5, 2880, Note_on_c, 1, 67, 80
5, 3119, Note_on_c, 1, 67, 0
5, 3120, Note_on_c, 1, 76, 80
5, 3359, Note_on_c, 1, 76, 0
5, 3360, Note_on_c, 1, 74, 80
5, 3599, Note_on_c, 1, 74, 0
5, 3600, Note_on_c, 1, 72, 80
5, 3839, Note_on_c, 1, 72, 0
5, 3840, Note_on_c, 1, 60, 80
5, 4079, Note_on_c, 1, 60, 0
5, 4080, Note_on_c, 1, 67, 80
5, 4319, Note_on_c, 1, 67, 0
5, 4320, Note_on_c, 1, 72, 80
5, 4559, Note_on_c, 1, 72, 0
5, 4560, Note_on_c, 1, 74, 80
5, 4799, Note_on_c, 1, 74, 0
5, 4800, Note_on_c, 1, 67, 80
5, 5039, Note_on_c, 1, 67, 0
5, 5040, Note_on_c, 1, 72, 80
5, 5279, Note_on_c, 1, 72, 0
5, 5280, Note_on_c, 1, 74, 80
5, 5519, Note_on_c, 1, 74, 0
5, 5520, Note_on_c, 1, 67, 80
5, 5759, Note_on_c, 1, 67, 0
5, 5760, Note_on_c, 1, 77, 80
5, 5999, Note_on_c, 1, 77, 0
5, 6000, Note_on_c, 1, 67, 80
5, 6239, Note_on_c, 1, 67, 0
5, 6240, Note_on_c, 1, 77, 80
5, 6479, Note_on_c, 1, 77, 0
5, 6480, Note_on_c, 1, 76, 80
5, 6719, Note_on_c, 1, 76, 0
5, 6720, Note_on_c, 1, 67, 80
5, 6959, Note_on_c, 1, 67, 0
5, 6960, Note_on_c, 1, 76, 80
5, 7199, Note_on_c, 1, 76, 0
5, 7200, Note_on_c, 1, 74, 80
5, 7439, Note_on_c, 1, 74, 0
5, 7440, Note_on_c, 1, 72, 80
5, 7679, Note_on_c, 1, 72, 0
5, 7680, Note_on_c, 1, 60, 80
5, 7919, Note_on_c, 1, 60, 0
5, 7920, Note_on_c, 1, 67, 80
5, 8159, Note_on_c, 1, 67, 0
5, 8160, Note_on_c, 1, 72, 80
5, 8399, Note_on_c, 1, 72, 0
5, 8400, Note_on_c, 1, 74, 80
5, 8639, Note_on_c, 1, 74, 0
5, 8640, Note_on_c, 1, 67, 80
5, 8879, Note_on_c, 1, 67, 0
5, 8880, Note_on_c, 1, 72, 80
5, 9119, Note_on_c, 1, 72, 0
5, 9120, Note_on_c, 1, 74, 80
5, 9359, Note_on_c, 1, 74, 0
5, 9360, Note_on_c, 1, 67, 80
5, 9599, Note_on_c, 1, 67, 0
5, 9600, Note_on_c, 1, 77, 80
5, 9839, Note_on_c, 1, 77, 0
5, 9840, Note_on_c, 1, 67, 80
5, 10079, Note_on_c, 1, 67, 0
5, 10080, Note_on_c, 1, 77, 80
5, 10319, Note_on_c, 1, 77, 0
5, 10320, Note_on_c, 1, 76, 80
5, 10559, Note_on_c, 1, 76, 0
5, 10560, Note_on_c, 1, 67, 80
5, 10799, Note_on_c, 1, 67, 0
5, 10800, Note_on_c, 1, 76, 80
5, 11039, Note_on_c, 1, 76, 0
5, 11040, Note_on_c, 1, 74, 80
5, 11279, Note_on_c, 1, 74, 0
5, 11280, Note_on_c, 1, 72, 80
5, 11519, Note_on_c, 1, 72, 0
5, 11520, Note_on_c, 1, 60, 80
5, 11759, Note_on_c, 1, 60, 0
5, 11760, Note_on_c, 1, 67, 80
5, 11999, Note_on_c, 1, 67, 0
5, 12000, Note_on_c, 1, 72, 80
5, 12239, Note_on_c, 1, 72, 0
5, 12240, Note_on_c, 1, 74, 80
5, 12479, Note_on_c, 1, 74, 0
5, 12480, Note_on_c, 1, 67, 80
5, 12719, Note_on_c, 1, 67, 0
5, 12720, Note_on_c, 1, 72, 80
5, 12959, Note_on_c, 1, 72, 0
5, 12960, Note_on_c, 1, 74, 80
5, 13199, Note_on_c, 1, 74, 0
5, 13200, Note_on_c, 1, 67, 80
5, 13439, Note_on_c, 1, 67, 0
5, 13440, Note_on_c, 1, 77, 80
5, 13679, Note_on_c, 1, 77, 0
5, 13680, Note_on_c, 1, 67, 80
5, 13919, Note_on_c, 1, 67, 0
5, 13920, Note_on_c, 1, 77, 80
5, 14159, Note_on_c, 1, 77, 0
5, 14160, Note_on_c, 1, 76, 80
5, 14399, Note_on_c, 1, 76, 0
5, 14400, Note_on_c, 1, 67, 80
5, 14639, Note_on_c, 1, 67, 0
5, 14640, Note_on_c, 1, 76, 80
5, 14879, Note_on_c, 1, 76, 0
5, 14880, Note_on_c, 1, 74, 80
5, 15119, Note_on_c, 1, 74, 0
5, 15120, Note_on_c, 1, 72, 80
5, 15359, Note_on_c, 1, 72, 0
5, 15360, Note_on_c, 1, 60, 80
5, 15360, Control_c, 1, 2, 80
5, 15599, Note_on_c, 1, 60, 0
5, 15600, Note_on_c, 1, 67, 80
5, 15839, Note_on_c, 1, 67, 0
5, 15840, Note_on_c, 1, 72, 80
5, 16079, Note_on_c, 1, 72, 0
5, 16080, Note_on_c, 1, 74, 80
5, 16080, Control_c, 1, 2, 80
5, 16319, Note_on_c, 1, 74, 0
5, 16320, Note_on_c, 1, 67, 80
5, 16320, Control_c, 1, 2, 80
5, 16559, Note_on_c, 1, 67, 0
5, 16560, Note_on_c, 1, 72, 80
5, 16799, Note_on_c, 1, 72, 0
5, 16800, Note_on_c, 1, 74, 80
5, 16800, Control_c, 1, 2, 80
5, 17039, Note_on_c, 1, 74, 0
5, 17040, Note_on_c, 1, 67, 80
5, 17279, Note_on_c, 1, 67, 0
5, 17280, Note_on_c, 1, 77, 80
5, 17280, Control_c, 1, 2, 80
5, 17519, Note_on_c, 1, 77, 0
5, 17520, Note_on_c, 1, 67, 80
5, 17759, Note_on_c, 1, 67, 0
5, 17760, Note_on_c, 1, 77, 80
5, 17999, Note_on_c, 1, 77, 0
5, 18000, Note_on_c, 1, 76, 80
5, 18239, Note_on_c, 1, 76, 0
5, 18240, Note_on_c, 1, 67, 80
5, 18479, Note_on_c, 1, 67, 0
5, 18480, Note_on_c, 1, 76, 80
5, 18719, Note_on_c, 1, 76, 0
5, 18720, Note_on_c, 1, 74, 80
5, 18959, Note_on_c, 1, 74, 0
5, 18960, Note_on_c, 1, 72, 80
5, 19199, Note_on_c, 1, 72, 0
5, 19200, Note_on_c, 1, 60, 80
5, 19200, Control_c, 1, 2, 80
5, 19439, Note_on_c, 1, 60, 0
5, 19440, Note_on_c, 1, 67, 80
5, 19679, Note_on_c, 1, 67, 0
5, 19680, Note_on_c, 1, 72, 80
5, 19919, Note_on_c, 1, 72, 0
5, 19920, Note_on_c, 1, 74, 80
5, 19920, Control_c, 1, 2, 80
5, 20159, Note_on_c, 1, 74, 0
5, 20160, Note_on_c, 1, 67, 80
5, 20160, Control_c, 1, 2, 80
5, 20399, Note_on_c, 1, 67, 0
5, 20400, Note_on_c, 1, 72, 80
5, 20639, Note_on_c, 1, 72, 0
5, 20640, Note_on_c, 1, 74, 80
5, 20640, Control_c, 1, 2, 80
5, 20879, Note_on_c, 1, 74, 0
5, 20880, Note_on_c, 1, 67, 80
5, 21119, Note_on_c, 1, 67, 0
5, 21120, Note_on_c, 1, 77, 80
5, 21120, Control_c, 1, 2, 80
5, 21359, Note_on_c, 1, 77, 0
5, 21360, Note_on_c, 1, 67, 80
5, 21599, Note_on_c, 1, 67, 0
5, 21600, Note_on_c, 1, 77, 80
5, 21839, Note_on_c, 1, 77, 0
5, 21840, Note_on_c, 1, 76, 80
5, 22079, Note_on_c, 1, 76, 0
5, 22080, Note_on_c, 1, 67, 80
5, 22319, Note_on_c, 1, 67, 0
5, 22320, Note_on_c, 1, 76, 80
5, 22559, Note_on_c, 1, 76, 0
5, 22560, Note_on_c, 1, 74, 80
5, 22799, Note_on_c, 1, 74, 0
5, 22800, Note_on_c, 1, 72, 80
5, 23039, Note_on_c, 1, 72, 0
5, 23040, Note_on_c, 1, 60, 80
5, 23040, Control_c, 1, 2, 80
5, 23279, Note_on_c, 1, 60, 0
5, 23280, Note_on_c, 1, 67, 80
5, 23519, Note_on_c, 1, 67, 0
5, 23520, Note_on_c, 1, 72, 80
5, 23759, Note_on_c, 1, 72, 0
5, 23760, Note_on_c, 1, 74, 80
5, 23760, Control_c, 1, 2, 80
5, 23999, Note_on_c, 1, 74, 0
5, 24000, Note_on_c, 1, 67, 80
5, 24000, Control_c, 1, 2, 80
5, 24239, Note_on_c, 1, 67, 0
5, 24240, Note_on_c, 1, 72, 80
5, 24479, Note_on_c, 1, 72, 0
5, 24480, Note_on_c, 1, 74, 80
5, 24480, Control_c, 1, 2, 80
5, 24719, Note_on_c, 1, 74, 0
5, 24720, Note_on_c, 1, 67, 80
5, 24959, Note_on_c, 1, 67, 0
5, 24960, Note_on_c, 1, 77, 80
5, 24960, Control_c, 1, 2, 80
5, 25199, Note_on_c, 1, 77, 0
5, 25200, Note_on_c, 1, 67, 80
5, 25439, Note_on_c, 1, 67, 0
5, 25440, Note_on_c, 1, 77, 80
5, 25679, Note_on_c, 1, 77, 0
5, 25680, Note_on_c, 1, 76, 80
5, 25919, Note_on_c, 1, 76, 0
5, 25920, Note_on_c, 1, 67, 80
5, 26159, Note_on_c, 1, 67, 0
5, 26160, Note_on_c, 1, 76, 80
5, 26399, Note_on_c, 1, 76, 0
5, 26400, Note_on_c, 1, 74, 80
5, 26639, Note_on_c, 1, 74, 0
5, 26640, Note_on_c, 1, 72, 80
5, 26879, Note_on_c, 1, 72, 0
5, 26880, Note_on_c, 1, 60, 80
5, 26880, Control_c, 1, 2, 80
5, 27119, Note_on_c, 1, 60, 0
5, 27120, Note_on_c, 1, 67, 80
5, 27359, Note_on_c, 1, 67, 0
5, 27360, Note_on_c, 1, 72, 80
5, 27599, Note_on_c, 1, 72, 0
5, 27600, Note_on_c, 1, 74, 80
5, 27600, Control_c, 1, 2, 80
5, 27839, Note_on_c, 1, 74, 0
5, 27840, Note_on_c, 1, 67, 80
5, 27840, Control_c, 1, 2, 80
5, 28079, Note_on_c, 1, 67, 0
5, 28080, Note_on_c, 1, 72, 80
5, 28319, Note_on_c, 1, 72, 0
5, 28320, Note_on_c, 1, 74, 80
5, 28320, Control_c, 1, 2, 80
5, 28559, Note_on_c, 1, 74, 0
5, 28560, Note_on_c, 1, 67, 80
5, 28799, Note_on_c, 1, 67, 0
5, 28800, Note_on_c, 1, 77, 80
5, 28800, Control_c, 1, 2, 80
5, 29039, Note_on_c, 1, 77, 0
5, 29040, Note_on_c, 1, 67, 80
5, 29279, Note_on_c, 1, 67, 0
5, 29280, Note_on_c, 1, 77, 80
5, 29519, Note_on_c, 1, 77, 0
5, 29520, Note_on_c, 1, 76, 80
5, 29759, Note_on_c, 1, 76, 0
5, 29760, Note_on_c, 1, 67, 80
5, 29999, Note_on_c, 1, 67, 0
5, 30000, Note_on_c, 1, 76, 80
5, 30239, Note_on_c, 1, 76, 0
5, 30240, Note_on_c, 1, 74, 80
5, 30479, Note_on_c, 1, 74, 0
5, 30480, Note_on_c, 1, 72, 80
5, 30719, Note_on_c, 1, 72, 0
5, 30720, Note_on_c, 1, 60, 80
5, 30959, Note_on_c, 1, 60, 0
5, 30960, Note_on_c, 1, 67, 80
5, 31199, Note_on_c, 1, 67, 0
5, 31200, Note_on_c, 1, 72, 80
5, 31439, Note_on_c, 1, 72, 0
5, 31440, Note_on_c, 1, 74, 80
5, 31679, Note_on_c, 1, 74, 0
5, 31680, Note_on_c, 1, 67, 80
5, 31919, Note_on_c, 1, 67, 0
5, 31920, Note_on_c, 1, 72, 80
5, 32159, Note_on_c, 1, 72, 0
5, 32160, Note_on_c, 1, 74, 80
5, 32399, Note_on_c, 1, 74, 0
5, 32400, Note_on_c, 1, 67, 80
5, 32639, Note_on_c, 1, 67, 0
5, 32640, Note_on_c, 1, 77, 80
5, 32879, Note_on_c, 1, 77, 0
5, 32880, Note_on_c, 1, 67, 80
5, 33119, Note_on_c, 1, 67, 0
5, 33120, Note_on_c, 1, 77, 80
5, 33359, Note_on_c, 1, 77, 0
5, 33360, Note_on_c, 1, 76, 80
5, 33599, Note_on_c, 1, 76, 0
5, 33600, Note_on_c, 1, 67, 80
5, 33839, Note_on_c, 1, 67, 0
5, 33840, Note_on_c, 1, 76, 80
5, 34079, Note_on_c, 1, 76, 0
5, 34080, Note_on_c, 1, 74, 80
5, 34319, Note_on_c, 1, 74, 0
5, 34320, Note_on_c, 1, 72, 80
5, 34559, Note_on_c, 1, 72, 0
5, 34560, Note_on_c, 1, 60, 80
5, 34799, Note_on_c, 1, 60, 0
5, 34800, Note_on_c, 1, 67, 80
5, 35039, Note_on_c, 1, 67, 0
5, 35040, Note_on_c, 1, 72, 80
5, 35279, Note_on_c, 1, 72, 0
5, 35280, Note_on_c, 1, 74, 80
5, 35519, Note_on_c, 1, 74, 0
5, 35520, Note_on_c, 1, 67, 80
5, 35759, Note_on_c, 1, 67, 0
5, 35760, Note_on_c, 1, 72, 80
5, 35999, Note_on_c, 1, 72, 0
5, 36000, Note_on_c, 1, 74, 80
5, 36239, Note_on_c, 1, 74, 0
5, 36240, Note_on_c, 1, 67, 80
5, 36479, Note_on_c, 1, 67, 0
5, 36480, Note_on_c, 1, 77, 80
5, 36719, Note_on_c, 1, 77, 0
5, 36720, Note_on_c, 1, 67, 80
5, 36959, Note_on_c, 1, 67, 0
5, 36960, Note_on_c, 1, 77, 80
5, 37199, Note_on_c, 1, 77, 0
5, 37200, Note_on_c, 1, 76, 80
5, 37439, Note_on_c, 1, 76, 0
5, 37440, Note_on_c, 1, 67, 80
5, 37679, Note_on_c, 1, 67, 0
5, 37680, Note_on_c, 1, 76, 80
5, 37919, Note_on_c, 1, 76, 0
5, 37920, Note_on_c, 1, 74, 80
5, 38159, Note_on_c, 1, 74, 0
5, 38160, Note_on_c, 1, 72, 80
5, 38399, Note_on_c, 1, 72, 0
5, 38400, Note_on_c, 1, 60, 80
5, 38639, Note_on_c, 1, 60, 0
5, 38640, Note_on_c, 1, 67, 80
5, 38879, Note_on_c, 1, 67, 0
5, 38880, Note_on_c, 1, 72, 80
5, 39119, Note_on_c, 1, 72, 0
5, 39120, Note_on_c, 1, 74, 80
5, 39359, Note_on_c, 1, 74, 0
5, 39360, Note_on_c, 1, 67, 80
5, 39599, Note_on_c, 1, 67, 0
5, 39600, Note_on_c, 1, 72, 80
5, 39839, Note_on_c, 1, 72, 0
5, 39840, Note_on_c, 1, 74, 80
5, 40079, Note_on_c, 1, 74, 0
5, 40080, Note_on_c, 1, 67, 80
5, 40319, Note_on_c, 1, 67, 0
5, 40320, Note_on_c, 1, 77, 80
5, 40559, Note_on_c, 1, 77, 0
5, 40560, Note_on_c, 1, 67, 80
5, 40799, Note_on_c, 1, 67, 0
5, 40800, Note_on_c, 1, 77, 80
5, 41039, Note_on_c, 1, 77, 0
5, 41040, Note_on_c, 1, 76, 80
5, 41279, Note_on_c, 1, 76, 0
5, 41280, Note_on_c, 1, 67, 80
5, 41519, Note_on_c, 1, 67, 0
5, 41520, Note_on_c, 1, 76, 80
5, 41759, Note_on_c, 1, 76, 0
5, 41760, Note_on_c, 1, 74, 80
5, 41999, Note_on_c, 1, 74, 0
5, 42000, Note_on_c, 1, 72, 80
5, 42239, Note_on_c, 1, 72, 0
5, 42240, Note_on_c, 1, 60, 80
5, 42479, Note_on_c, 1, 60, 0
5, 42480, Note_on_c, 1, 67, 80
5, 42719, Note_on_c, 1, 67, 0
5, 42720, Note_on_c, 1, 72, 80
5, 42959, Note_on_c, 1, 72, 0
5, 42960, Note_on_c, 1, 74, 80
5, 43199, Note_on_c, 1, 74, 0
5, 43200, Note_on_c, 1, 67, 80
5, 43439, Note_on_c, 1, 67, 0
5, 43440, Note_on_c, 1, 72, 80
5, 43679, Note_on_c, 1, 72, 0
5, 43680, Note_on_c, 1, 74, 80
5, 43919, Note_on_c, 1, 74, 0
5, 43920, Note_on_c, 1, 67, 80
5, 44159, Note_on_c, 1, 67, 0
5, 44160, Note_on_c, 1, 77, 80
5, 44399, Note_on_c, 1, 77, 0
5, 44400, Note_on_c, 1, 67, 80
5, 44639, Note_on_c, 1, 67, 0
5, 44640, Note_on_c, 1, 77, 80
5, 44879, Note_on_c, 1, 77, 0
5, 44880, Note_on_c, 1, 76, 80
5, 45119, Note_on_c, 1, 76, 0
5, 45120, Note_on_c, 1, 67, 80
5, 45359, Note_on_c, 1, 67, 0
5, 45360, Note_on_c, 1, 76, 80
5, 45599, Note_on_c, 1, 76, 0
5, 45600, Note_on_c, 1, 74, 80
5, 45839, Note_on_c, 1, 74, 0
5, 45840, Note_on_c, 1, 72, 80
5, 46079, Note_on_c, 1, 72, 0
5, 46080, Note_on_c, 1, 60, 80
5, 46319, Note_on_c, 1, 60, 0
5, 46320, Note_on_c, 1, 67, 80
5, 46559, Note_on_c, 1, 67, 0
5, 46560, Note_on_c, 1, 72, 80
5, 46799, Note_on_c, 1, 72, 0
5, 46800, Note_on_c, 1, 74, 80
5, 47039, Note_on_c, 1, 74, 0
5, 47040, Note_on_c, 1, 67, 80
5, 47279, Note_on_c, 1, 67, 0
5, 47280, Note_on_c, 1, 72, 80
5, 47519, Note_on_c, 1, 72, 0
5, 47520, Note_on_c, 1, 74, 80
5, 47759, Note_on_c, 1, 74, 0
5, 47760, Note_on_c, 1, 67, 80
5, 47999, Note_on_c, 1, 67, 0
5, 48000, Note_on_c, 1, 77, 80
5, 48239, Note_on_c, 1, 77, 0
5, 48240, Note_on_c, 1, 67, 80
5, 48479, Note_on_c, 1, 67, 0
5, 48480, Note_on_c, 1, 77, 80
5, 48719, Note_on_c, 1, 77, 0
5, 48720, Note_on_c, 1, 76, 80
5, 48959, Note_on_c, 1, 76, 0
5, 48960, Note_on_c, 1, 67, 80
5, 49199, Note_on_c, 1, 67, 0
5, 49200, Note_on_c, 1, 76, 80
5, 49439, Note_on_c, 1, 76, 0
5, 49440, Note_on_c, 1, 74, 80
5, 49679, Note_on_c, 1, 74, 0
5, 49680, Note_on_c, 1, 72, 80
5, 49919, Note_on_c, 1, 72, 0
5, 49920, Note_on_c, 1, 60, 80
5, 50159, Note_on_c, 1, 60, 0
5, 50160, Note_on_c, 1, 67, 80
5, 50399, Note_on_c, 1, 67, 0
5, 50400, Note_on_c, 1, 72, 80
5, 50639, Note_on_c, 1, 72, 0
5, 50640, Note_on_c, 1, 74, 80
5, 50879, Note_on_c, 1, 74, 0
5, 50880, Note_on_c, 1, 67, 80
5, 51119, Note_on_c, 1, 67, 0
5, 51120, Note_on_c, 1, 72, 80
5, 51359, Note_on_c, 1, 72, 0
5, 51360, Note_on_c, 1, 74, 80
5, 51599, Note_on_c, 1, 74, 0
5, 51600, Note_on_c, 1, 67, 80
5, 51839, Note_on_c, 1, 67, 0
5, 51840, Note_on_c, 1, 77, 80
5, 52079, Note_on_c, 1, 77, 0
5, 52080, Note_on_c, 1, 67, 80
5, 52319, Note_on_c, 1, 67, 0
5, 52320, Note_on_c, 1, 77, 80
5, 52559, Note_on_c, 1, 77, 0
5, 52560, Note_on_c, 1, 76, 80
5, 52799, Note_on_c, 1, 76, 0
5, 52800, Note_on_c, 1, 67, 80
5, 53039, Note_on_c, 1, 67, 0
5, 53040, Note_on_c, 1, 76, 80
5, 53279, Note_on_c, 1, 76, 0
5, 53280, Note_on_c, 1, 74, 80
5, 53519, Note_on_c, 1, 74, 0
5, 53520, Note_on_c, 1, 72, 80
5, 53759, Note_on_c, 1, 72, 0
5, 53760, Note_on_c, 1, 60, 80
5, 53999, Note_on_c, 1, 60, 0
5, 54000, Note_on_c, 1, 67, 80
5, 54239, Note_on_c, 1, 67, 0
5, 54240, Note_on_c, 1, 72, 80
5, 54479, Note_on_c, 1, 72, 0
5, 54480, Note_on_c, 1, 74, 80
5, 54719, Note_on_c, 1, 74, 0
5, 54720, Note_on_c, 1, 67, 80
5, 54959, Note_on_c, 1, 67, 0
5, 54960, Note_on_c, 1, 72, 80
5, 55199, Note_on_c, 1, 72, 0
5, 55200, Note_on_c, 1, 74, 80
5, 55439, Note_on_c, 1, 74, 0
5, 55440, Note_on_c, 1, 67, 80
5, 55679, Note_on_c, 1, 67, 0
5, 55680, Note_on_c, 1, 77, 80
5, 55919, Note_on_c, 1, 77, 0
5, 55920, Note_on_c, 1, 67, 80
5, 56159, Note_on_c, 1, 67, 0
5, 56160, Note_on_c, 1, 77, 80
5, 56399, Note_on_c, 1, 77, 0
5, 56400, Note_on_c, 1, 76, 80
5, 56639, Note_on_c, 1, 76, 0
5, 56640, Note_on_c, 1, 67, 80
5, 56879, Note_on_c, 1, 67, 0
5, 56880, Note_on_c, 1, 76, 80
5, 57119, Note_on_c, 1, 76, 0
5, 57120, Note_on_c, 1, 74, 80
5, 57359, Note_on_c, 1, 74, 0
5, 57360, Note_on_c, 1, 72, 80
5, 57599, Note_on_c, 1, 72, 0
5, 57600, Note_on_c, 1, 60, 80
5, 57839, Note_on_c, 1, 60, 0
5, 57840, Note_on_c, 1, 67, 80
5, 58079, Note_on_c, 1, 67, 0
5, 58080, Note_on_c, 1, 72, 80
5, 58319, Note_on_c, 1, 72, 0
5, 58320, Note_on_c, 1, 74, 80
5, 58559, Note_on_c, 1, 74, 0
5, 58560, Note_on_c, 1, 67, 80
5, 58799, Note_on_c, 1, 67, 0
5, 58800, Note_on_c, 1, 72, 80
5, 59039, Note_on_c, 1, 72, 0
5, 59040, Note_on_c, 1, 74, 80
5, 59279, Note_on_c, 1, 74, 0
5, 59280, Note_on_c, 1, 67, 80
5, 59519, Note_on_c, 1, 67, 0
5, 59520, Note_on_c, 1, 77, 80
5, 59759, Note_on_c, 1, 77, 0
5, 59760, Note_on_c, 1, 67, 80
5, 59999, Note_on_c, 1, 67, 0
5, 60000, Note_on_c, 1, 77, 80
5, 60239, Note_on_c, 1, 77, 0
5, 60240, Note_on_c, 1, 76, 80
5, 60479, Note_on_c, 1, 76, 0
5, 60480, Note_on_c, 1, 67, 80
5, 60719, Note_on_c, 1, 67, 0
5, 60720, Note_on_c, 1, 76, 80
5, 60959, Note_on_c, 1, 76, 0
5, 60960, Note_on_c, 1, 74, 80
5, 61199, Note_on_c, 1, 74, 0
5, 61200, Note_on_c, 1, 72, 80
5, 61439, Note_on_c, 1, 72, 0
5, 61440, Note_on_c, 1, 60, 80
5, 61679, Note_on_c, 1, 60, 0
5, 61680, Note_on_c, 1, 67, 80
5, 61919, Note_on_c, 1, 67, 0
5, 61920, Note_on_c, 1, 72, 80
5, 62159, Note_on_c, 1, 72, 0
5, 62160, Note_on_c, 1, 74, 80
5, 62399, Note_on_c, 1, 74, 0
5, 62400, Note_on_c, 1, 67, 80
5, 62639, Note_on_c, 1, 67, 0
5, 62640, Note_on_c, 1, 72, 80
5, 62879, Note_on_c, 1, 72, 0
5, 62880, Note_on_c, 1, 77, 80
5, 63119, Note_on_c, 1, 77, 0
5, 63120, Note_on_c, 1, 76, 80
5, 63359, Note_on_c, 1, 76, 0
5, 63360, Note_on_c, 1, 72, 80
5, 63599, Note_on_c, 1, 72, 0
5, 63600, Note_on_c, 1, 67, 80
5, 63839, Note_on_c, 1, 67, 0
5, 63840, Note_on_c, 1, 65, 80
5, 64079, Note_on_c, 1, 65, 0
5, 64080, Note_on_c, 1, 64, 80
5, 64319, Note_on_c, 1, 64, 0
5, 64320, Note_on_c, 1, 60, 80
5, 64559, Note_on_c, 1, 60, 0
5, 64560, Note_on_c, 1, 55, 80
5, 64799, Note_on_c, 1, 55, 0
5, 64800, Note_on_c, 1, 53, 80
5, 65039, Note_on_c, 1, 53, 0
5, 65040, Note_on_c, 1, 52, 80
5, 65279, Note_on_c, 1, 52, 0
5, 80640, Note_on_c, 1, 60, 80
5, 80640, Control_c, 1, 2, 80
5, 80879, Note_on_c, 1, 60, 0
5, 80880, Note_on_c, 1, 67, 80
5, 81119, Note_on_c, 1, 67, 0
5, 81120, Note_on_c, 1, 72, 80
5, 81359, Note_on_c, 1, 72, 0
5, 81360, Note_on_c, 1, 74, 80
5, 81599, Note_on_c, 1, 74, 0
5, 81600, Note_on_c, 1, 67, 80
5, 81839, Note_on_c, 1, 67, 0
5, 81840, Note_on_c, 1, 72, 80
5, 82079, Note_on_c, 1, 72, 0
5, 82080, Note_on_c, 1, 74, 80
5, 82319, Note_on_c, 1, 74, 0
5, 82320, Note_on_c, 1, 67, 80
5, 82559, Note_on_c, 1, 67, 0
5, 82560, Note_on_c, 1, 77, 80
5, 82799, Note_on_c, 1, 77, 0
5, 82800, Note_on_c, 1, 67, 80
5, 83039, Note_on_c, 1, 67, 0
5, 83040, Note_on_c, 1, 77, 80
5, 83279, Note_on_c, 1, 77, 0
5, 83280, Note_on_c, 1, 76, 80
5, 83519, Note_on_c, 1, 76, 0
5, 83520, Note_on_c, 1, 67, 80
5, 83759, Note_on_c, 1, 67, 0
5, 83760, Note_on_c, 1, 76, 80
5, 83999, Note_on_c, 1, 76, 0
5, 84000, Note_on_c, 1, 74, 80
5, 84239, Note_on_c, 1, 74, 0
5, 84240, Note_on_c, 1, 72, 80
5, 84479, Note_on_c, 1, 72, 0
5, 84480, Note_on_c, 1, 60, 80
5, 84719, Note_on_c, 1, 60, 0
5, 84720, Note_on_c, 1, 67, 80
5, 84959, Note_on_c, 1, 67, 0
5, 84960, Note_on_c, 1, 72, 80
5, 85199, Note_on_c, 1, 72, 0
5, 85200, Note_on_c, 1, 74, 80
5, 85439, Note_on_c, 1, 74, 0
5, 85440, Note_on_c, 1, 67, 80
5, 85679, Note_on_c, 1, 67, 0
5, 85680, Note_on_c, 1, 72, 80
5, 85919, Note_on_c, 1, 72, 0
5, 85920, Note_on_c, 1, 74, 80
5, 86159, Note_on_c, 1, 74, 0
5, 86160, Note_on_c, 1, 67, 80
5, 86399, Note_on_c, 1, 67, 0
5, 86400, Note_on_c, 1, 77, 80
5, 86639, Note_on_c, 1, 77, 0
5, 86640, Note_on_c, 1, 67, 80
5, 86879, Note_on_c, 1, 67, 0
5, 86880, Note_on_c, 1, 77, 80
5, 87119, Note_on_c, 1, 77, 0
5, 87120, Note_on_c, 1, 76, 80
5, 87359, Note_on_c, 1, 76, 0
5, 87360, Note_on_c, 1, 67, 80
5, 87599, Note_on_c, 1, 67, 0
5, 87600, Note_on_c, 1, 76, 80
5, 87839, Note_on_c, 1, 76, 0
5, 87840, Note_on_c, 1, 74, 80
5, 88079, Note_on_c, 1, 74, 0
5, 88080, Note_on_c, 1, 72, 80
5, 88319, Note_on_c, 1, 72, 0
5, 88320, Note_on_c, 1, 60, 80
5, 88559, Note_on_c, 1, 60, 0
5, 88560, Note_on_c, 1, 67, 80
5, 88799, Note_on_c, 1, 67, 0
5, 88800, Note_on_c, 1, 72, 80
5, 89039, Note_on_c, 1, 72, 0
5, 89040, Note_on_c, 1, 74, 80
5, 89279, Note_on_c, 1, 74, 0
5, 89280, Note_on_c, 1, 67, 80
5, 89519, Note_on_c, 1, 67, 0
5, 89520, Note_on_c, 1, 72, 80
5, 89759, Note_on_c, 1, 72, 0
5, 89760, Note_on_c, 1, 74, 80
5, 89999, Note_on_c, 1, 74, 0
5, 90000, Note_on_c, 1, 67, 80
5, 90239, Note_on_c, 1, 67, 0
5, 90240, Note_on_c, 1, 77, 80
5, 90479, Note_on_c, 1, 77, 0
5, 90480, Note_on_c, 1, 67, 80
5, 90719, Note_on_c, 1, 67, 0
5, 90720, Note_on_c, 1, 77, 80
5, 90959, Note_on_c, 1, 77, 0
5, 90960, Note_on_c, 1, 76, 80
5, 91199, Note_on_c, 1, 76, 0
5, 91200, Note_on_c, 1, 67, 80
5, 91439, Note_on_c, 1, 67, 0
5, 91440, Note_on_c, 1, 76, 80
5, 91679, Note_on_c, 1, 76, 0
5, 91680, Note_on_c, 1, 74, 80
5, 91919, Note_on_c, 1, 74, 0
5, 91920, Note_on_c, 1, 72, 80
5, 92159, Note_on_c, 1, 72, 0
5, 92160, Note_on_c, 1, 60, 80
5, 92399, Note_on_c, 1, 60, 0
5, 92400, Note_on_c, 1, 67, 80
5, 92639, Note_on_c, 1, 67, 0
5, 92640, Note_on_c, 1, 72, 80
5, 92879, Note_on_c, 1, 72, 0
5, 92880, Note_on_c, 1, 74, 80
5, 93119, Note_on_c, 1, 74, 0
5, 93120, Note_on_c, 1, 67, 80
5, 93359, Note_on_c, 1, 67, 0
5, 93360, Note_on_c, 1, 72, 80
5, 93599, Note_on_c, 1, 72, 0
5, 93600, Note_on_c, 1, 74, 80
5, 93839, Note_on_c, 1, 74, 0
5, 93840, Note_on_c, 1, 67, 80
5, 94079, Note_on_c, 1, 67, 0
5, 94080, Note_on_c, 1, 77, 80
5, 94319, Note_on_c, 1, 77, 0
5, 94320, Note_on_c, 1, 67, 80
5, 94559, Note_on_c, 1, 67, 0
5, 94560, Note_on_c, 1, 77, 80
5, 94799, Note_on_c, 1, 77, 0
5, 94800, Note_on_c, 1, 76, 80
5, 95039, Note_on_c, 1, 76, 0
5, 95040, Note_on_c, 1, 67, 80
5, 95279, Note_on_c, 1, 67, 0
5, 95280, Note_on_c, 1, 76, 80
5, 95519, Note_on_c, 1, 76, 0
5, 95520, Note_on_c, 1, 74, 80
5, 95759, Note_on_c, 1, 74, 0
5, 95760, Note_on_c, 1, 72, 80
5, 95999, Note_on_c, 1, 72, 0
5, 96000, Note_on_c, 1, 60, 80
5, 96239, Note_on_c, 1, 60, 0
5, 96240, Note_on_c, 1, 67, 80
5, 96479, Note_on_c, 1, 67, 0
5, 96480, Note_on_c, 1, 72, 80
5, 96719, Note_on_c, 1, 72, 0
5, 96720, Note_on_c, 1, 74, 80
5, 96959, Note_on_c, 1, 74, 0
5, 96960, Note_on_c, 1, 67, 80
5, 97199, Note_on_c, 1, 67, 0
5, 97200, Note_on_c, 1, 72, 80
5, 97439, Note_on_c, 1, 72, 0
5, 97440, Note_on_c, 1, 74, 80
5, 97679, Note_on_c, 1, 74, 0
5, 97680, Note_on_c, 1, 67, 80
5, 97919, Note_on_c, 1, 67, 0
5, 97920, Note_on_c, 1, 77, 80
5, 98159, Note_on_c, 1, 77, 0
5, 98160, Note_on_c, 1, 67, 80
5, 98399, Note_on_c, 1, 67, 0
5, 98400, Note_on_c, 1, 77, 80
5, 98639, Note_on_c, 1, 77, 0
5, 98640, Note_on_c, 1, 76, 80
5, 98879, Note_on_c, 1, 76, 0
5, 98880, Note_on_c, 1, 67, 80
5, 99119, Note_on_c, 1, 67, 0
5, 99120, Note_on_c, 1, 76, 80
5, 99359, Note_on_c, 1, 76, 0
5, 99360, Note_on_c, 1, 74, 80
5, 99599, Note_on_c, 1, 74, 0
5, 99600, Note_on_c, 1, 72, 80
5, 99839, Note_on_c, 1, 72, 0
5, 99840, Note_on_c, 1, 60, 80
5, 100079, Note_on_c, 1, 60, 0
5, 100080, Note_on_c, 1, 67, 80
5, 100319, Note_on_c, 1, 67, 0
5, 100320, Note_on_c, 1, 72, 80
5, 100559, Note_on_c, 1, 72, 0
5, 100560, Note_on_c, 1, 74, 80
5, 100799, Note_on_c, 1, 74, 0
5, 100800, Note_on_c, 1, 67, 80
5, 101039, Note_on_c, 1, 67, 0
5, 101040, Note_on_c, 1, 72, 80
5, 101279, Note_on_c, 1, 72, 0
5, 101280, Note_on_c, 1, 74, 80
5, 101519, Note_on_c, 1, 74, 0
5, 101520, Note_on_c, 1, 67, 80
5, 101759, Note_on_c, 1, 67, 0
5, 101760, Note_on_c, 1, 77, 80
5, 101999, Note_on_c, 1, 77, 0
5, 102000, Note_on_c, 1, 67, 80
5, 102239, Note_on_c, 1, 67, 0
5, 102240, Note_on_c, 1, 77, 80
5, 102479, Note_on_c, 1, 77, 0
5, 102480, Note_on_c, 1, 76, 80
5, 102719, Note_on_c, 1, 76, 0
5, 102720, Note_on_c, 1, 67, 80
5, 102959, Note_on_c, 1, 67, 0
5, 102960, Note_on_c, 1, 76, 80
5, 103199, Note_on_c, 1, 76, 0
5, 103200, Note_on_c, 1, 74, 80
5, 103439, Note_on_c, 1, 74, 0
5, 103440, Note_on_c, 1, 72, 80
5, 103679, Note_on_c, 1, 72, 0
5, 103680, Note_on_c, 1, 60, 80
5, 103919, Note_on_c, 1, 60, 0
5, 103920, Note_on_c, 1, 67, 80
5, 104159, Note_on_c, 1, 67, 0
5, 104160, Note_on_c, 1, 72, 80
5, 104399, Note_on_c, 1, 72, 0
5, 104400, Note_on_c, 1, 74, 80
5, 104639, Note_on_c, 1, 74, 0
5, 104640, Note_on_c, 1, 67, 80
5, 104879, Note_on_c, 1, 67, 0
5, 104880, Note_on_c, 1, 72, 80
5, 105119, Note_on_c, 1, 72, 0
5, 105120, Note_on_c, 1, 74, 80
5, 105359, Note_on_c, 1, 74, 0
5, 105360, Note_on_c, 1, 67, 80
5, 105599, Note_on_c, 1, 67, 0
5, 105600, Note_on_c, 1, 77, 80
5, 105839, Note_on_c, 1, 77, 0
5, 105840, Note_on_c, 1, 67, 80
5, 106079, Note_on_c, 1, 67, 0
5, 106080, Note_on_c, 1, 77, 80
5, 106319, Note_on_c, 1, 77, 0
5, 106320, Note_on_c, 1, 76, 80
5, 106559, Note_on_c, 1, 76, 0
5, 106560, Note_on_c, 1, 67, 80
5, 106799, Note_on_c, 1, 67, 0
5, 106800, Note_on_c, 1, 76, 80
5, 107039, Note_on_c, 1, 76, 0
5, 107040, Note_on_c, 1, 74, 80
5, 107279, Note_on_c, 1, 74, 0
5, 107280, Note_on_c, 1, 72, 80
5, 107519, Note_on_c, 1, 72, 0
5, 107520, Note_on_c, 1, 60, 80
5, 107759, Note_on_c, 1, 60, 0
5, 107760, Note_on_c, 1, 67, 80
5, 107999, Note_on_c, 1, 67, 0
5, 108000, Note_on_c, 1, 72, 80
5, 108239, Note_on_c, 1, 72, 0
5, 108240, Note_on_c, 1, 74, 80
5, 108479, Note_on_c, 1, 74, 0
5, 108480, Note_on_c, 1, 67, 80
5, 108719, Note_on_c, 1, 67, 0
5, 108720, Note_on_c, 1, 72, 80
5, 108959, Note_on_c, 1, 72, 0
5, 108960, Note_on_c, 1, 74, 80
5, 109199, Note_on_c, 1, 74, 0
5, 109200, Note_on_c, 1, 67, 80
5, 109439, Note_on_c, 1, 67, 0
5, 109440, Note_on_c, 1, 77, 80
5, 109679, Note_on_c, 1, 77, 0
5, 109680, Note_on_c, 1, 67, 80
5, 109919, Note_on_c, 1, 67, 0
5, 109920, Note_on_c, 1, 77, 80
5, 110159, Note_on_c, 1, 77, 0
5, 110160, Note_on_c, 1, 76, 80
5, 110399, Note_on_c, 1, 76, 0
5, 110400, Note_on_c, 1, 67, 80
5, 110639, Note_on_c, 1, 67, 0
5, 110640, Note_on_c, 1, 76, 80
5, 110879, Note_on_c, 1, 76, 0
5, 110880, Note_on_c, 1, 74, 80
5, 111119, Note_on_c, 1, 74, 0
5, 111120, Note_on_c, 1, 72, 80
5, 111359, Note_on_c, 1, 72, 0
5, 111360, Note_on_c, 1, 60, 80
5, 111599, Note_on_c, 1, 60, 0
5, 111600, Note_on_c, 1, 67, 80
5, 111839, Note_on_c, 1, 67, 0
5, 111840, Note_on_c, 1, 72, 80
5, 112079, Note_on_c, 1, 72, 0
5, 112080, Note_on_c, 1, 74, 80
5, 112319, Note_on_c, 1, 74, 0
5, 112320, Note_on_c, 1, 67, 80
5, 112559, Note_on_c, 1, 67, 0
5, 112560, Note_on_c, 1, 72, 80
5, 112799, Note_on_c, 1, 72, 0
5, 112800, Note_on_c, 1, 77, 80
5, 113039, Note_on_c, 1, 77, 0
5, 113040, Note_on_c, 1, 76, 80
5, 113279, Note_on_c, 1, 76, 0
5, 113280, Note_on_c, 1, 72, 80
5, 113399, Note_on_c, 1, 72, 0
5, 113520, Note_on_c, 1, 67, 80
5, 113639, Note_on_c, 1, 67, 0
5, 113760, Note_on_c, 1, 65, 80
5, 113879, Note_on_c, 1, 65, 0
5, 114000, Note_on_c, 1, 64, 80
5, 114119, Note_on_c, 1, 64, 0
5, 114240, Note_on_c, 1, 60, 80
5, 114359, Note_on_c, 1, 60, 0
5, 114360, Note_on_c, 1, 62, 80
5, 114479, Note_on_c, 1, 62, 0
5, 114480, Note_on_c, 1, 64, 80
5, 114599, Note_on_c, 1, 64, 0
5, 114600, Note_on_c, 1, 67, 80
5, 114719, Note_on_c, 1, 67, 0
5, 114720, Note_on_c, 1, 72, 80
5, 114839, Note_on_c, 1, 72, 0
5, 114840, Note_on_c, 1, 76, 80
5, 114959, Note_on_c, 1, 76, 0
5, 114960, Note_on_c, 1, 79, 80
5, 115079, Note_on_c, 1, 79, 0
5, 115080, Note_on_c, 1, 84, 80
5, 115199, Note_on_c, 1, 84, 0
5, 115200, End_track
0, 0, End_of_file
