0, 0, Header, 1, 5, 480
1, 0, Start_track
1, 0, Title_t, "Piano, Partie A en Siâ\231­ (Clarinette / Trompette)\000"
1, 0, Time_signature, 4, 2, 24, 8
1, 0, Key_signature, 0, "major"
1, 0, Tempo, 750000
1, 0, Control_c, 4, 121, 0
1, 0, Program_c, 4, 0
1, 0, Control_c, 4, 7, 100
1, 0, Control_c, 4, 10, 64
1, 0, Control_c, 4, 91, 0
1, 0, Control_c, 4, 93, 0
1, 0, MIDI_port, 0
1, 7560, Note_on_c, 4, 60, 80
1, 7673, Note_on_c, 4, 60, 0
1, 7680, Note_on_c, 4, 60, 80
1, 7907, Note_on_c, 4, 60, 0
1, 7920, Note_on_c, 4, 60, 80
1, 8033, Note_on_c, 4, 60, 0
1, 8040, Note_on_c, 4, 60, 80
1, 8153, Note_on_c, 4, 60, 0
1, 8160, Note_on_c, 4, 60, 80
1, 8273, Note_on_c, 4, 60, 0
1, 8280, Note_on_c, 4, 60, 80
1, 8507, Note_on_c, 4, 60, 0
1, 8520, Note_on_c, 4, 60, 80
1, 8747, Note_on_c, 4, 60, 0
1, 8760, Note_on_c, 4, 60, 80
1, 8873, Note_on_c, 4, 60, 0
1, 8880, Note_on_c, 4, 60, 80
1, 8993, Note_on_c, 4, 60, 0
1, 9000, Note_on_c, 4, 60, 80
1, 9113, Note_on_c, 4, 60, 0
1, 9120, Note_on_c, 4, 60, 80
1, 9233, Note_on_c, 4, 60, 0
1, 9240, Note_on_c, 4, 60, 80
1, 9353, Note_on_c, 4, 60, 0
1, 9360, Note_on_c, 4, 60, 80
1, 9473, Note_on_c, 4, 60, 0
1, 9480, Note_on_c, 4, 60, 80
1, 9593, Note_on_c, 4, 60, 0
1, 9600, Note_on_c, 4, 60, 80
1, 9827, Note_on_c, 4, 60, 0
1, 9840, Note_on_c, 4, 60, 80
1, 10067, Note_on_c, 4, 60, 0
1, 10080, Note_on_c, 4, 64, 80
1, 10193, Note_on_c, 4, 64, 0
1, 10200, Note_on_c, 4, 64, 80
1, 10427, Note_on_c, 4, 64, 0
1, 10440, Note_on_c, 4, 64, 80
1, 10553, Note_on_c, 4, 64, 0
1, 11520, Note_on_c, 4, 67, 80
1, 11633, Note_on_c, 4, 67, 0
1, 11640, Note_on_c, 4, 64, 80
1, 11753, Note_on_c, 4, 64, 0
1, 11760, Note_on_c, 4, 64, 80
1, 11873, Note_on_c, 4, 64, 0
1, 11880, Note_on_c, 4, 64, 80
1, 12107, Note_on_c, 4, 64, 0
1, 12120, Note_on_c, 4, 64, 80
1, 12347, Note_on_c, 4, 64, 0
1, 12360, Note_on_c, 4, 64, 80
1, 12473, Note_on_c, 4, 64, 0
1, 12480, Note_on_c, 4, 62, 80
1, 12593, Note_on_c, 4, 62, 0
1, 12600, Note_on_c, 4, 62, 80
1, 12713, Note_on_c, 4, 62, 0
1, 12720, Note_on_c, 4, 62, 80
1, 12833, Note_on_c, 4, 62, 0
1, 12840, Note_on_c, 4, 62, 80
1, 12953, Note_on_c, 4, 62, 0
1, 12960, Note_on_c, 4, 62, 80
1, 13187, Note_on_c, 4, 62, 0
1, 13200, Note_on_c, 4, 62, 80
1, 13313, Note_on_c, 4, 62, 0
1, 13320, Note_on_c, 4, 62, 80
1, 13433, Note_on_c, 4, 62, 0
1, 13440, Note_on_c, 4, 62, 80
1, 13667, Note_on_c, 4, 62, 0
1, 13680, Note_on_c, 4, 62, 80
1, 13793, Note_on_c, 4, 62, 0
1, 13800, Note_on_c, 4, 62, 80
1, 13913, Note_on_c, 4, 62, 0
1, 13920, Note_on_c, 4, 62, 80
1, 14033, Note_on_c, 4, 62, 0
1, 14040, Note_on_c, 4, 60, 80
1, 14267, Note_on_c, 4, 60, 0
1, 14280, Note_on_c, 4, 57, 80
1, 14621, Note_on_c, 4, 57, 0
1, 15000, Note_on_c, 4, 57, 80
1, 15113, Note_on_c, 4, 57, 0
1, 15120, Note_on_c, 4, 57, 80
1, 15233, Note_on_c, 4, 57, 0
1, 15240, Note_on_c, 4, 57, 80
1, 15353, Note_on_c, 4, 57, 0
1, 15360, Note_on_c, 4, 64, 80
1, 15473, Note_on_c, 4, 64, 0
1, 15480, Note_on_c, 4, 64, 80
1, 15593, Note_on_c, 4, 64, 0
1, 15600, Note_on_c, 4, 64, 80
1, 15713, Note_on_c, 4, 64, 0
1, 15720, Note_on_c, 4, 64, 80
1, 15833, Note_on_c, 4, 64, 0
1, 15840, Note_on_c, 4, 64, 80
1, 15953, Note_on_c, 4, 64, 0
1, 15960, Note_on_c, 4, 64, 80
1, 16073, Note_on_c, 4, 64, 0
1, 16080, Note_on_c, 4, 64, 80
1, 16193, Note_on_c, 4, 64, 0
1, 16200, Note_on_c, 4, 64, 80
1, 16313, Note_on_c, 4, 64, 0
1, 16320, Note_on_c, 4, 64, 80
1, 16433, Note_on_c, 4, 64, 0
1, 16440, Note_on_c, 4, 64, 80
1, 16553, Note_on_c, 4, 64, 0
1, 16560, Note_on_c, 4, 64, 80
1, 16673, Note_on_c, 4, 64, 0
1, 16680, Note_on_c, 4, 64, 80
1, 16907, Note_on_c, 4, 64, 0
1, 16920, Note_on_c, 4, 64, 80
1, 17147, Note_on_c, 4, 64, 0
1, 17160, Note_on_c, 4, 64, 80
1, 17273, Note_on_c, 4, 64, 0
1, 17280, Note_on_c, 4, 67, 80
1, 17507, Note_on_c, 4, 67, 0
1, 17520, Note_on_c, 4, 64, 80
1, 17633, Note_on_c, 4, 64, 0
1, 17640, Note_on_c, 4, 64, 80
1, 17753, Note_on_c, 4, 64, 0
1, 17760, Note_on_c, 4, 62, 80
1, 17873, Note_on_c, 4, 62, 0
1, 17880, Note_on_c, 4, 62, 80
1, 17993, Note_on_c, 4, 62, 0
1, 18000, Note_on_c, 4, 60, 80
1, 18113, Note_on_c, 4, 60, 0
1, 18120, Note_on_c, 4, 64, 80
1, 18689, Note_on_c, 4, 64, 0
1, 18720, Note_on_c, 4, 62, 80
1, 18833, Note_on_c, 4, 62, 0
1, 18840, Note_on_c, 4, 60, 80
1, 18953, Note_on_c, 4, 60, 0
1, 18960, Note_on_c, 4, 60, 80
1, 19073, Note_on_c, 4, 60, 0
1, 19080, Note_on_c, 4, 60, 80
1, 19193, Note_on_c, 4, 60, 0
1, 19200, Note_on_c, 4, 60, 80
1, 19541, Note_on_c, 4, 60, 0
1, 19560, Note_on_c, 4, 67, 80
1, 19787, Note_on_c, 4, 67, 0
1, 19800, Note_on_c, 4, 64, 80
1, 19913, Note_on_c, 4, 64, 0
1, 19920, Note_on_c, 4, 64, 80
1, 20033, Note_on_c, 4, 64, 0
1, 20040, Note_on_c, 4, 64, 80
1, 20153, Note_on_c, 4, 64, 0
1, 20160, Note_on_c, 4, 62, 80
1, 20273, Note_on_c, 4, 62, 0
1, 20280, Note_on_c, 4, 62, 80
1, 20393, Note_on_c, 4, 62, 0
1, 20400, Note_on_c, 4, 62, 80
1, 20513, Note_on_c, 4, 62, 0
1, 20520, Note_on_c, 4, 62, 80
1, 20747, Note_on_c, 4, 62, 0
1, 20760, Note_on_c, 4, 62, 80
1, 20987, Note_on_c, 4, 62, 0
1, 21000, Note_on_c, 4, 62, 80
1, 21113, Note_on_c, 4, 62, 0
1, 21120, Note_on_c, 4, 62, 80
1, 21347, Note_on_c, 4, 62, 0
1, 21360, Note_on_c, 4, 62, 80
1, 21587, Note_on_c, 4, 62, 0
1, 21600, Note_on_c, 4, 62, 80
1, 21827, Note_on_c, 4, 62, 0
1, 21840, Note_on_c, 4, 60, 80
1, 21953, Note_on_c, 4, 60, 0
1, 21960, Note_on_c, 4, 57, 80
1, 22073, Note_on_c, 4, 57, 0
1, 22200, Note_on_c, 4, 64, 80
1, 22313, Note_on_c, 4, 64, 0
1, 22320, Note_on_c, 4, 64, 80
1, 22433, Note_on_c, 4, 64, 0
1, 22440, Note_on_c, 4, 64, 80
1, 22553, Note_on_c, 4, 64, 0
1, 22560, Note_on_c, 4, 67, 80
1, 22673, Note_on_c, 4, 67, 0
1, 22680, Note_on_c, 4, 67, 80
1, 22793, Note_on_c, 4, 67, 0
1, 22800, Note_on_c, 4, 69, 80
1, 23027, Note_on_c, 4, 69, 0
1, 23040, Note_on_c, 4, 69, 80
1, 23267, Note_on_c, 4, 69, 0
1, 23280, Note_on_c, 4, 69, 80
1, 23507, Note_on_c, 4, 69, 0
1, 23520, Note_on_c, 4, 69, 80
1, 23747, Note_on_c, 4, 69, 0
1, 23760, Note_on_c, 4, 67, 80
1, 23987, Note_on_c, 4, 67, 0
1, 24000, Note_on_c, 4, 69, 80
1, 24227, Note_on_c, 4, 69, 0
1, 24240, Note_on_c, 4, 76, 80
1, 24467, Note_on_c, 4, 76, 0
1, 24480, Note_on_c, 4, 74, 80
1, 24935, Note_on_c, 4, 74, 0
1, 24960, Note_on_c, 4, 72, 80
1, 25073, Note_on_c, 4, 72, 0
1, 25080, Note_on_c, 4, 74, 80
1, 25307, Note_on_c, 4, 74, 0
1, 25320, Note_on_c, 4, 76, 80
1, 25433, Note_on_c, 4, 76, 0
1, 25440, Note_on_c, 4, 74, 80
1, 25667, Note_on_c, 4, 74, 0
1, 25680, Note_on_c, 4, 72, 80
1, 25907, Note_on_c, 4, 72, 0
1, 25920, Note_on_c, 4, 69, 80
1, 26147, Note_on_c, 4, 69, 0
1, 26160, Note_on_c, 4, 72, 80
1, 26387, Note_on_c, 4, 72, 0
1, 26400, Note_on_c, 4, 76, 80
1, 26513, Note_on_c, 4, 76, 0
1, 26520, Note_on_c, 4, 74, 80
1, 26633, Note_on_c, 4, 74, 0
1, 26640, Note_on_c, 4, 72, 80
1, 26753, Note_on_c, 4, 72, 0
1, 26760, Note_on_c, 4, 74, 80
1, 26873, Note_on_c, 4, 74, 0
1, 26880, Note_on_c, 4, 69, 80
1, 27119, Note_on_c, 4, 69, 0
1, 27360, Note_on_c, 4, 79, 80
1, 27473, Note_on_c, 4, 79, 0
1, 27480, Note_on_c, 4, 74, 80
1, 27593, Note_on_c, 4, 74, 0
1, 27600, Note_on_c, 4, 76, 80
1, 27827, Note_on_c, 4, 76, 0
1, 27840, Note_on_c, 4, 74, 80
1, 27953, Note_on_c, 4, 74, 0
1, 27960, Note_on_c, 4, 72, 80
1, 28073, Note_on_c, 4, 72, 0
1, 28080, Note_on_c, 4, 72, 80
1, 28307, Note_on_c, 4, 72, 0
1, 28320, Note_on_c, 4, 69, 80
1, 28559, Note_on_c, 4, 69, 0
1, 28800, Note_on_c, 4, 72, 80
1, 28913, Note_on_c, 4, 72, 0
1, 28920, Note_on_c, 4, 74, 80
1, 29147, Note_on_c, 4, 74, 0
1, 29160, Note_on_c, 4, 76, 80
1, 29273, Note_on_c, 4, 76, 0
1, 29280, Note_on_c, 4, 74, 80
1, 29507, Note_on_c, 4, 74, 0
1, 29520, Note_on_c, 4, 72, 80
1, 29747, Note_on_c, 4, 72, 0
1, 29760, Note_on_c, 4, 74, 80
1, 29987, Note_on_c, 4, 74, 0
1, 30000, Note_on_c, 4, 72, 80
1, 30227, Note_on_c, 4, 72, 0
1, 30240, Note_on_c, 4, 69, 80
1, 30467, Note_on_c, 4, 69, 0
1, 30480, Note_on_c, 4, 69, 80
1, 30707, Note_on_c, 4, 69, 0
1, 30720, Note_on_c, 4, 69, 80
1, 31175, Note_on_c, 4, 69, 0
1, 31200, Note_on_c, 4, 69, 80
1, 31427, Note_on_c, 4, 69, 0
1, 31440, Note_on_c, 4, 67, 80
1, 31667, Note_on_c, 4, 67, 0
1, 31680, Note_on_c, 4, 69, 80
1, 31907, Note_on_c, 4, 69, 0
1, 31920, Note_on_c, 4, 76, 80
1, 32147, Note_on_c, 4, 76, 0
1, 32160, Note_on_c, 4, 74, 80
1, 32399, Note_on_c, 4, 74, 0
1, 32640, Note_on_c, 4, 74, 80
1, 32753, Note_on_c, 4, 74, 0
1, 32760, Note_on_c, 4, 74, 80
1, 32987, Note_on_c, 4, 74, 0
1, 33000, Note_on_c, 4, 76, 80
1, 33113, Note_on_c, 4, 76, 0
1, 33120, Note_on_c, 4, 74, 80
1, 33347, Note_on_c, 4, 74, 0
1, 33360, Note_on_c, 4, 72, 80
1, 33587, Note_on_c, 4, 72, 0
1, 33600, Note_on_c, 4, 67, 80
1, 33827, Note_on_c, 4, 67, 0
1, 33840, Note_on_c, 4, 72, 80
1, 34067, Note_on_c, 4, 72, 0
1, 34080, Note_on_c, 4, 76, 80
1, 34193, Note_on_c, 4, 76, 0
1, 34200, Note_on_c, 4, 74, 80
1, 34313, Note_on_c, 4, 74, 0
1, 34320, Note_on_c, 4, 72, 80
1, 34433, Note_on_c, 4, 72, 0
1, 34440, Note_on_c, 4, 74, 80
1, 34553, Note_on_c, 4, 74, 0
1, 34560, Note_on_c, 4, 69, 80
1, 35015, Note_on_c, 4, 69, 0
1, 35040, Note_on_c, 4, 79, 80
1, 35153, Note_on_c, 4, 79, 0
1, 35160, Note_on_c, 4, 74, 80
1, 35273, Note_on_c, 4, 74, 0
1, 35280, Note_on_c, 4, 76, 80
1, 35507, Note_on_c, 4, 76, 0
1, 35520, Note_on_c, 4, 74, 80
1, 35633, Note_on_c, 4, 74, 0
1, 35640, Note_on_c, 4, 72, 80
1, 35753, Note_on_c, 4, 72, 0
1, 35760, Note_on_c, 4, 72, 80
1, 35987, Note_on_c, 4, 72, 0
1, 36000, Note_on_c, 4, 69, 80
1, 36227, Note_on_c, 4, 69, 0
1, 36240, Note_on_c, 4, 69, 80
1, 36467, Note_on_c, 4, 69, 0
1, 36480, Note_on_c, 4, 79, 80
1, 36593, Note_on_c, 4, 79, 0
1, 36600, Note_on_c, 4, 74, 80
1, 36713, Note_on_c, 4, 74, 0
1, 36720, Note_on_c, 4, 76, 80
1, 36947, Note_on_c, 4, 76, 0
1, 36960, Note_on_c, 4, 74, 80
1, 37073, Note_on_c, 4, 74, 0
1, 37080, Note_on_c, 4, 72, 80
1, 37193, Note_on_c, 4, 72, 0
1, 37200, Note_on_c, 4, 72, 80
1, 37427, Note_on_c, 4, 72, 0
1, 37440, Note_on_c, 4, 69, 80
1, 37667, Note_on_c, 4, 69, 0
1, 37680, Note_on_c, 4, 64, 80
1, 37907, Note_on_c, 4, 64, 0
1, 37920, Note_on_c, 4, 67, 80
1, 38147, Note_on_c, 4, 67, 0
1, 38160, Note_on_c, 4, 69, 80
1, 38387, Note_on_c, 4, 69, 0
1, 39120, Note_on_c, 4, 72, 80
1, 39233, Note_on_c, 4, 72, 0
1, 39240, Note_on_c, 4, 74, 80
1, 39353, Note_on_c, 4, 74, 0
1, 39360, Note_on_c, 4, 76, 80
1, 39587, Note_on_c, 4, 76, 0
1, 39600, Note_on_c, 4, 74, 80
1, 39713, Note_on_c, 4, 74, 0
1, 39720, Note_on_c, 4, 72, 80
1, 39833, Note_on_c, 4, 72, 0
1, 39840, Note_on_c, 4, 72, 80
1, 40067, Note_on_c, 4, 72, 0
1, 40080, Note_on_c, 4, 74, 80
1, 40307, Note_on_c, 4, 74, 0
1, 40320, Note_on_c, 4, 74, 80
1, 40559, Note_on_c, 4, 74, 0
1, 40920, Note_on_c, 4, 69, 80
1, 41033, Note_on_c, 4, 69, 0
1, 41040, Note_on_c, 4, 72, 80
1, 41153, Note_on_c, 4, 72, 0
1, 41160, Note_on_c, 4, 74, 80
1, 41273, Note_on_c, 4, 74, 0
1, 41280, Note_on_c, 4, 76, 80
1, 41507, Note_on_c, 4, 76, 0
1, 41520, Note_on_c, 4, 74, 80
1, 41633, Note_on_c, 4, 74, 0
1, 41640, Note_on_c, 4, 72, 80
1, 41753, Note_on_c, 4, 72, 0
1, 41760, Note_on_c, 4, 72, 80
1, 41987, Note_on_c, 4, 72, 0
1, 42000, Note_on_c, 4, 74, 80
1, 42227, Note_on_c, 4, 74, 0
1, 42240, Note_on_c, 4, 69, 80
1, 42479, Note_on_c, 4, 69, 0
1, 42840, Note_on_c, 4, 69, 80
1, 42953, Note_on_c, 4, 69, 0
1, 42960, Note_on_c, 4, 72, 80
1, 43073, Note_on_c, 4, 72, 0
1, 43080, Note_on_c, 4, 74, 80
1, 43193, Note_on_c, 4, 74, 0
1, 43200, Note_on_c, 4, 76, 80
1, 43427, Note_on_c, 4, 76, 0
1, 43440, Note_on_c, 4, 69, 80
1, 43667, Note_on_c, 4, 69, 0
1, 43680, Note_on_c, 4, 72, 80
1, 43907, Note_on_c, 4, 72, 0
1, 43920, Note_on_c, 4, 74, 80
1, 44147, Note_on_c, 4, 74, 0
1, 44160, Note_on_c, 4, 74, 80
1, 44399, Note_on_c, 4, 74, 0
1, 44880, Note_on_c, 4, 72, 80
1, 44993, Note_on_c, 4, 72, 0
1, 45000, Note_on_c, 4, 74, 80
1, 45113, Note_on_c, 4, 74, 0
1, 45120, Note_on_c, 4, 76, 80
1, 45347, Note_on_c, 4, 76, 0
1, 45360, Note_on_c, 4, 74, 80
1, 45473, Note_on_c, 4, 74, 0
1, 45480, Note_on_c, 4, 72, 80
1, 45593, Note_on_c, 4, 72, 0
1, 45600, Note_on_c, 4, 74, 80
1, 45941, Note_on_c, 4, 74, 0
1, 45960, Note_on_c, 4, 69, 80
1, 46073, Note_on_c, 4, 69, 0
1, 46680, Note_on_c, 4, 72, 80
1, 46793, Note_on_c, 4, 72, 0
1, 46800, Note_on_c, 4, 74, 80
1, 47027, Note_on_c, 4, 74, 0
1, 47040, Note_on_c, 4, 76, 80
1, 47267, Note_on_c, 4, 76, 0
1, 47280, Note_on_c, 4, 79, 80
1, 47393, Note_on_c, 4, 79, 0
1, 47400, Note_on_c, 4, 76, 80
1, 47513, Note_on_c, 4, 76, 0
1, 47520, Note_on_c, 4, 74, 80
1, 47747, Note_on_c, 4, 74, 0
1, 47760, Note_on_c, 4, 72, 80
1, 47987, Note_on_c, 4, 72, 0
1, 48000, Note_on_c, 4, 74, 80
1, 48239, Note_on_c, 4, 74, 0
1, 48600, Note_on_c, 4, 69, 80
1, 48713, Note_on_c, 4, 69, 0
1, 48720, Note_on_c, 4, 72, 80
1, 48833, Note_on_c, 4, 72, 0
1, 48840, Note_on_c, 4, 74, 80
1, 48953, Note_on_c, 4, 74, 0
1, 48960, Note_on_c, 4, 76, 80
1, 49187, Note_on_c, 4, 76, 0
1, 49200, Note_on_c, 4, 74, 80
1, 49427, Note_on_c, 4, 74, 0
1, 49440, Note_on_c, 4, 72, 80
1, 49667, Note_on_c, 4, 72, 0
1, 49680, Note_on_c, 4, 74, 80
1, 49907, Note_on_c, 4, 74, 0
1, 49920, Note_on_c, 4, 69, 80
1, 50147, Note_on_c, 4, 69, 0
1, 50160, Note_on_c, 4, 69, 80
1, 50273, Note_on_c, 4, 69, 0
1, 50280, Note_on_c, 4, 69, 80
1, 50393, Note_on_c, 4, 69, 0
1, 50400, Note_on_c, 4, 69, 80
1, 50513, Note_on_c, 4, 69, 0
1, 50520, Note_on_c, 4, 69, 80
1, 50633, Note_on_c, 4, 69, 0
1, 50640, Note_on_c, 4, 72, 80
1, 50753, Note_on_c, 4, 72, 0
1, 50760, Note_on_c, 4, 74, 80
1, 50873, Note_on_c, 4, 74, 0
1, 50880, Note_on_c, 4, 74, 80
1, 51107, Note_on_c, 4, 74, 0
1, 51120, Note_on_c, 4, 69, 80
1, 51347, Note_on_c, 4, 69, 0
1, 51360, Note_on_c, 4, 72, 80
1, 51587, Note_on_c, 4, 72, 0
1, 51600, Note_on_c, 4, 74, 80
1, 51827, Note_on_c, 4, 74, 0
1, 51840, Note_on_c, 4, 74, 80
1, 52079, Note_on_c, 4, 74, 0
1, 52560, Note_on_c, 4, 72, 80
1, 52673, Note_on_c, 4, 72, 0
1, 52680, Note_on_c, 4, 74, 80
1, 52793, Note_on_c, 4, 74, 0
1, 52800, Note_on_c, 4, 76, 80
1, 53027, Note_on_c, 4, 76, 0
1, 53040, Note_on_c, 4, 74, 80
1, 53153, Note_on_c, 4, 74, 0
1, 53160, Note_on_c, 4, 72, 80
1, 53273, Note_on_c, 4, 72, 0
1, 53280, Note_on_c, 4, 74, 80
1, 53621, Note_on_c, 4, 74, 0
1, 53640, Note_on_c, 4, 69, 80
1, 53753, Note_on_c, 4, 69, 0
1, 53760, Note_on_c, 4, 57, 80
1, 54000, Note_on_c, 4, 69, 80
1, 54215, Note_on_c, 4, 57, 0
1, 54227, Note_on_c, 4, 69, 0
1, 54240, Note_on_c, 4, 60, 80
1, 54480, Note_on_c, 4, 72, 80
1, 54695, Note_on_c, 4, 60, 0
1, 54707, Note_on_c, 4, 72, 0
1, 54720, Note_on_c, 4, 62, 80
1, 54960, Note_on_c, 4, 74, 80
1, 55175, Note_on_c, 4, 62, 0
1, 55187, Note_on_c, 4, 74, 0
1, 55200, Note_on_c, 4, 64, 80
1, 55440, Note_on_c, 4, 76, 80
1, 55655, Note_on_c, 4, 64, 0
1, 55667, Note_on_c, 4, 76, 0
1, 55680, Note_on_c, 4, 65, 80
1, 55680, Note_on_c, 4, 69, 80
1, 55919, Note_on_c, 4, 65, 0
1, 55919, Note_on_c, 4, 69, 0
1, 56400, Note_on_c, 4, 72, 80
1, 56513, Note_on_c, 4, 72, 0
1, 56520, Note_on_c, 4, 74, 80
1, 56633, Note_on_c, 4, 74, 0
1, 56640, Note_on_c, 4, 76, 80
1, 56867, Note_on_c, 4, 76, 0
1, 56880, Note_on_c, 4, 74, 80
1, 56993, Note_on_c, 4, 74, 0
1, 57000, Note_on_c, 4, 72, 80
1, 57113, Note_on_c, 4, 72, 0
1, 57120, Note_on_c, 4, 74, 80
1, 57461, Note_on_c, 4, 74, 0
1, 57480, Note_on_c, 4, 69, 80
1, 57593, Note_on_c, 4, 69, 0
1, 57600, Note_on_c, 4, 57, 80
1, 57840, Note_on_c, 4, 69, 80
1, 58055, Note_on_c, 4, 57, 0
1, 58067, Note_on_c, 4, 69, 0
1, 58080, Note_on_c, 4, 60, 80
1, 58320, Note_on_c, 4, 72, 80
1, 58535, Note_on_c, 4, 60, 0
1, 58547, Note_on_c, 4, 72, 0
1, 58560, Note_on_c, 4, 62, 80
1, 58800, Note_on_c, 4, 74, 80
1, 59015, Note_on_c, 4, 62, 0
1, 59027, Note_on_c, 4, 74, 0
1, 59040, Note_on_c, 4, 64, 80
1, 59280, Note_on_c, 4, 76, 80
1, 59495, Note_on_c, 4, 64, 0
1, 59507, Note_on_c, 4, 76, 0
1, 59520, Note_on_c, 4, 65, 80
1, 59520, Note_on_c, 4, 69, 80
1, 59759, Note_on_c, 4, 65, 0
1, 59759, Note_on_c, 4, 69, 0
1, 60240, Note_on_c, 4, 72, 80
1, 60353, Note_on_c, 4, 72, 0
1, 60360, Note_on_c, 4, 74, 80
1, 60473, Note_on_c, 4, 74, 0
1, 60480, Note_on_c, 4, 76, 80
1, 60707, Note_on_c, 4, 76, 0
1, 60720, Note_on_c, 4, 74, 80
1, 60833, Note_on_c, 4, 74, 0
1, 60840, Note_on_c, 4, 72, 80
1, 60953, Note_on_c, 4, 72, 0
1, 60960, Note_on_c, 4, 74, 80
1, 61301, Note_on_c, 4, 74, 0
1, 61320, Note_on_c, 4, 69, 80
1, 61433, Note_on_c, 4, 69, 0
1, 61440, Note_on_c, 4, 57, 80
1, 61680, Note_on_c, 4, 69, 80
1, 61895, Note_on_c, 4, 57, 0
1, 61907, Note_on_c, 4, 69, 0
1, 61920, Note_on_c, 4, 60, 80
1, 62160, Note_on_c, 4, 72, 80
1, 62375, Note_on_c, 4, 60, 0
1, 62387, Note_on_c, 4, 72, 0
1, 62400, Note_on_c, 4, 62, 80
1, 62640, Note_on_c, 4, 74, 80
1, 62855, Note_on_c, 4, 62, 0
1, 62867, Note_on_c, 4, 74, 0
1, 62880, Note_on_c, 4, 64, 80
1, 63120, Note_on_c, 4, 76, 80
1, 63335, Note_on_c, 4, 64, 0
1, 63347, Note_on_c, 4, 76, 0
1, 63360, Note_on_c, 4, 65, 80
1, 63360, Note_on_c, 4, 69, 80
1, 63599, Note_on_c, 4, 65, 0
1, 63599, Note_on_c, 4, 69, 0
1, 64080, Note_on_c, 4, 72, 80
1, 64193, Note_on_c, 4, 72, 0
1, 64200, Note_on_c, 4, 74, 80
1, 64313, Note_on_c, 4, 74, 0
1, 64320, Note_on_c, 4, 76, 80
1, 64547, Note_on_c, 4, 76, 0
1, 64560, Note_on_c, 4, 74, 80
1, 64673, Note_on_c, 4, 74, 0
1, 64680, Note_on_c, 4, 72, 80
1, 64793, Note_on_c, 4, 72, 0
1, 64800, Note_on_c, 4, 74, 80
1, 65141, Note_on_c, 4, 74, 0
1, 65160, Note_on_c, 4, 69, 80
1, 65273, Note_on_c, 4, 69, 0
1, 65280, Note_on_c, 4, 69, 80
1, 65507, Note_on_c, 4, 69, 0
1, 65520, Note_on_c, 4, 69, 80
1, 65633, Note_on_c, 4, 69, 0
1, 65640, Note_on_c, 4, 69, 80
1, 65753, Note_on_c, 4, 69, 0
1, 65760, Note_on_c, 4, 69, 80
1, 65873, Note_on_c, 4, 69, 0
1, 65880, Note_on_c, 4, 69, 80
1, 65993, Note_on_c, 4, 69, 0
1, 66000, Note_on_c, 4, 72, 80
1, 66113, Note_on_c, 4, 72, 0
1, 66120, Note_on_c, 4, 74, 80
1, 66233, Note_on_c, 4, 74, 0
1, 66240, Note_on_c, 4, 74, 80
1, 66467, Note_on_c, 4, 74, 0
1, 66480, Note_on_c, 4, 69, 80
1, 66707, Note_on_c, 4, 69, 0
1, 66720, Note_on_c, 4, 72, 80
1, 66947, Note_on_c, 4, 72, 0
1, 66960, Note_on_c, 4, 74, 80
1, 67187, Note_on_c, 4, 74, 0
1, 67200, Note_on_c, 4, 74, 80
1, 67439, Note_on_c, 4, 74, 0
1, 67920, Note_on_c, 4, 72, 80
1, 68033, Note_on_c, 4, 72, 0
1, 68040, Note_on_c, 4, 74, 80
1, 68153, Note_on_c, 4, 74, 0
1, 68160, Note_on_c, 4, 76, 80
1, 68387, Note_on_c, 4, 76, 0
1, 68400, Note_on_c, 4, 74, 80
1, 68513, Note_on_c, 4, 74, 0
1, 68520, Note_on_c, 4, 72, 80
1, 68633, Note_on_c, 4, 72, 0
1, 68640, Note_on_c, 4, 72, 80
1, 68867, Note_on_c, 4, 72, 0
1, 68880, Note_on_c, 4, 74, 80
1, 69107, Note_on_c, 4, 74, 0
1, 69120, Note_on_c, 4, 60, 80
1, 69233, Note_on_c, 4, 60, 0
1, 69240, Note_on_c, 4, 60, 80
1, 69467, Note_on_c, 4, 60, 0
1, 69480, Note_on_c, 4, 60, 80
1, 69707, Note_on_c, 4, 60, 0
1, 69720, Note_on_c, 4, 60, 80
1, 69833, Note_on_c, 4, 60, 0
1, 69840, Note_on_c, 4, 60, 80
1, 69953, Note_on_c, 4, 60, 0
1, 69960, Note_on_c, 4, 60, 80
1, 70073, Note_on_c, 4, 60, 0
1, 70080, Note_on_c, 4, 60, 80
1, 70193, Note_on_c, 4, 60, 0
1, 70200, Note_on_c, 4, 60, 80
1, 70313, Note_on_c, 4, 60, 0
1, 70320, Note_on_c, 4, 60, 80
1, 70433, Note_on_c, 4, 60, 0
1, 70440, Note_on_c, 4, 60, 80
1, 70667, Note_on_c, 4, 60, 0
1, 70680, Note_on_c, 4, 60, 80
1, 70793, Note_on_c, 4, 60, 0
1, 70800, Note_on_c, 4, 60, 80
1, 70913, Note_on_c, 4, 60, 0
1, 70920, Note_on_c, 4, 60, 80
1, 71033, Note_on_c, 4, 60, 0
1, 71040, Note_on_c, 4, 60, 80
1, 71267, Note_on_c, 4, 60, 0
1, 71280, Note_on_c, 4, 60, 80
1, 71507, Note_on_c, 4, 60, 0
1, 71520, Note_on_c, 4, 64, 80
1, 71633, Note_on_c, 4, 64, 0
1, 71640, Note_on_c, 4, 64, 80
1, 71867, Note_on_c, 4, 64, 0
1, 71880, Note_on_c, 4, 64, 80
1, 71993, Note_on_c, 4, 64, 0
1, 72720, Note_on_c, 4, 64, 80
1, 72833, Note_on_c, 4, 64, 0
1, 72840, Note_on_c, 4, 64, 80
1, 72953, Note_on_c, 4, 64, 0
1, 72960, Note_on_c, 4, 64, 80
1, 73187, Note_on_c, 4, 64, 0
1, 73200, Note_on_c, 4, 62, 80
1, 73313, Note_on_c, 4, 62, 0
1, 73320, Note_on_c, 4, 62, 80
1, 73547, Note_on_c, 4, 62, 0
1, 73560, Note_on_c, 4, 62, 80
1, 73673, Note_on_c, 4, 62, 0
1, 73680, Note_on_c, 4, 62, 80
1, 73793, Note_on_c, 4, 62, 0
1, 73800, Note_on_c, 4, 62, 80
1, 73913, Note_on_c, 4, 62, 0
1, 73920, Note_on_c, 4, 62, 80
1, 74033, Note_on_c, 4, 62, 0
1, 74040, Note_on_c, 4, 62, 80
1, 74153, Note_on_c, 4, 62, 0
1, 74160, Note_on_c, 4, 62, 80
1, 74273, Note_on_c, 4, 62, 0
1, 74280, Note_on_c, 4, 62, 80
1, 74393, Note_on_c, 4, 62, 0
1, 74520, Note_on_c, 4, 62, 80
1, 74633, Note_on_c, 4, 62, 0
1, 74640, Note_on_c, 4, 62, 80
1, 74753, Note_on_c, 4, 62, 0
1, 74760, Note_on_c, 4, 62, 80
1, 74873, Note_on_c, 4, 62, 0
1, 74880, Note_on_c, 4, 62, 80
1, 75107, Note_on_c, 4, 62, 0
1, 75120, Note_on_c, 4, 62, 80
1, 75233, Note_on_c, 4, 62, 0
1, 75240, Note_on_c, 4, 64, 80
1, 75353, Note_on_c, 4, 64, 0
1, 75360, Note_on_c, 4, 62, 80
1, 75473, Note_on_c, 4, 62, 0
1, 75480, Note_on_c, 4, 60, 80
1, 75593, Note_on_c, 4, 60, 0
1, 75600, Note_on_c, 4, 60, 80
1, 75713, Note_on_c, 4, 60, 0
1, 75720, Note_on_c, 4, 60, 80
1, 75833, Note_on_c, 4, 60, 0
1, 76440, Note_on_c, 4, 64, 80
1, 76553, Note_on_c, 4, 64, 0
1, 76560, Note_on_c, 4, 64, 80
1, 76673, Note_on_c, 4, 64, 0
1, 76680, Note_on_c, 4, 64, 80
1, 76793, Note_on_c, 4, 64, 0
1, 76800, Note_on_c, 4, 69, 80
1, 76913, Note_on_c, 4, 69, 0
1, 76920, Note_on_c, 4, 69, 80
1, 77033, Note_on_c, 4, 69, 0
1, 77040, Note_on_c, 4, 69, 80
1, 77153, Note_on_c, 4, 69, 0
1, 77160, Note_on_c, 4, 69, 80
1, 77273, Note_on_c, 4, 69, 0
1, 77280, Note_on_c, 4, 69, 80
1, 77393, Note_on_c, 4, 69, 0
1, 77400, Note_on_c, 4, 64, 80
1, 77513, Note_on_c, 4, 64, 0
1, 77520, Note_on_c, 4, 62, 80
1, 77633, Note_on_c, 4, 62, 0
1, 77640, Note_on_c, 4, 60, 80
1, 77753, Note_on_c, 4, 60, 0
1, 77760, Note_on_c, 4, 67, 80
1, 77873, Note_on_c, 4, 67, 0
1, 77880, Note_on_c, 4, 62, 80
1, 77993, Note_on_c, 4, 62, 0
1, 78000, Note_on_c, 4, 62, 80
1, 78113, Note_on_c, 4, 62, 0
1, 78120, Note_on_c, 4, 62, 80
1, 78233, Note_on_c, 4, 62, 0
1, 78240, Note_on_c, 4, 62, 80
1, 78353, Note_on_c, 4, 62, 0
1, 78360, Note_on_c, 4, 62, 80
1, 78473, Note_on_c, 4, 62, 0
1, 78480, Note_on_c, 4, 62, 80
1, 78593, Note_on_c, 4, 62, 0
1, 78600, Note_on_c, 4, 62, 80
1, 78713, Note_on_c, 4, 62, 0
1, 78720, Note_on_c, 4, 62, 80
1, 78833, Note_on_c, 4, 62, 0
1, 78840, Note_on_c, 4, 62, 80
1, 78953, Note_on_c, 4, 62, 0
1, 78960, Note_on_c, 4, 62, 80
1, 79073, Note_on_c, 4, 62, 0
1, 79080, Note_on_c, 4, 62, 80
1, 79193, Note_on_c, 4, 62, 0
1, 79200, Note_on_c, 4, 62, 80
1, 79313, Note_on_c, 4, 62, 0
1, 79320, Note_on_c, 4, 62, 80
1, 79433, Note_on_c, 4, 62, 0
1, 79440, Note_on_c, 4, 62, 80
1, 79553, Note_on_c, 4, 62, 0
1, 79560, Note_on_c, 4, 64, 80
1, 79673, Note_on_c, 4, 64, 0
1, 80280, Note_on_c, 4, 60, 80
1, 80507, Note_on_c, 4, 60, 0
1, 80520, Note_on_c, 4, 60, 80
1, 80633, Note_on_c, 4, 60, 0
1, 80640, Note_on_c, 4, 60, 80
1, 80753, Note_on_c, 4, 60, 0
1, 80760, Note_on_c, 4, 60, 80
1, 80873, Note_on_c, 4, 60, 0
1, 80880, Note_on_c, 4, 60, 80
1, 80993, Note_on_c, 4, 60, 0
1, 81000, Note_on_c, 4, 64, 80
1, 81227, Note_on_c, 4, 64, 0
1, 81240, Note_on_c, 4, 64, 80
1, 81467, Note_on_c, 4, 64, 0
1, 81480, Note_on_c, 4, 64, 80
1, 81593, Note_on_c, 4, 64, 0
1, 81600, Note_on_c, 4, 60, 80
1, 81713, Note_on_c, 4, 60, 0
1, 81720, Note_on_c, 4, 60, 80
1, 81833, Note_on_c, 4, 60, 0
1, 81840, Note_on_c, 4, 60, 80
1, 81953, Note_on_c, 4, 60, 0
1, 81960, Note_on_c, 4, 64, 80
1, 82187, Note_on_c, 4, 64, 0
1, 82200, Note_on_c, 4, 64, 80
1, 82313, Note_on_c, 4, 64, 0
1, 82320, Note_on_c, 4, 64, 80
1, 82433, Note_on_c, 4, 64, 0
1, 82440, Note_on_c, 4, 64, 80
1, 82553, Note_on_c, 4, 64, 0
1, 82560, Note_on_c, 4, 62, 80
1, 82673, Note_on_c, 4, 62, 0
1, 82680, Note_on_c, 4, 62, 80
1, 82793, Note_on_c, 4, 62, 0
1, 82800, Note_on_c, 4, 62, 80
1, 82913, Note_on_c, 4, 62, 0
1, 82920, Note_on_c, 4, 62, 80
1, 83033, Note_on_c, 4, 62, 0
1, 83040, Note_on_c, 4, 62, 80
1, 83153, Note_on_c, 4, 62, 0
1, 83160, Note_on_c, 4, 62, 80
1, 83273, Note_on_c, 4, 62, 0
1, 83280, Note_on_c, 4, 60, 80
1, 83393, Note_on_c, 4, 60, 0
1, 83400, Note_on_c, 4, 60, 80
1, 83513, Note_on_c, 4, 60, 0
1, 83640, Note_on_c, 4, 64, 80
1, 83867, Note_on_c, 4, 64, 0
1, 83880, Note_on_c, 4, 64, 80
1, 83993, Note_on_c, 4, 64, 0
1, 84000, Note_on_c, 4, 67, 80
1, 84113, Note_on_c, 4, 67, 0
1, 84120, Note_on_c, 4, 67, 80
1, 84233, Note_on_c, 4, 67, 0
1, 84240, Note_on_c, 4, 69, 80
1, 84467, Note_on_c, 4, 69, 0
1, 84480, Note_on_c, 4, 69, 80
1, 84707, Note_on_c, 4, 69, 0
1, 84720, Note_on_c, 4, 69, 80
1, 84947, Note_on_c, 4, 69, 0
1, 84960, Note_on_c, 4, 69, 80
1, 85187, Note_on_c, 4, 69, 0
1, 85200, Note_on_c, 4, 67, 80
1, 85427, Note_on_c, 4, 67, 0
1, 85440, Note_on_c, 4, 69, 80
1, 85667, Note_on_c, 4, 69, 0
1, 85680, Note_on_c, 4, 76, 80
1, 85907, Note_on_c, 4, 76, 0
1, 85920, Note_on_c, 4, 74, 80
1, 86375, Note_on_c, 4, 74, 0
1, 86400, Note_on_c, 4, 72, 80
1, 86513, Note_on_c, 4, 72, 0
1, 86520, Note_on_c, 4, 74, 80
1, 86747, Note_on_c, 4, 74, 0
1, 86760, Note_on_c, 4, 76, 80
1, 86873, Note_on_c, 4, 76, 0
1, 86880, Note_on_c, 4, 74, 80
1, 87107, Note_on_c, 4, 74, 0
1, 87120, Note_on_c, 4, 72, 80
1, 87347, Note_on_c, 4, 72, 0
1, 87360, Note_on_c, 4, 69, 80
1, 87587, Note_on_c, 4, 69, 0
1, 87600, Note_on_c, 4, 72, 80
1, 87827, Note_on_c, 4, 72, 0
1, 87840, Note_on_c, 4, 76, 80
1, 87953, Note_on_c, 4, 76, 0
1, 87960, Note_on_c, 4, 74, 80
1, 88073, Note_on_c, 4, 74, 0
1, 88080, Note_on_c, 4, 72, 80
1, 88193, Note_on_c, 4, 72, 0
1, 88200, Note_on_c, 4, 74, 80
1, 88313, Note_on_c, 4, 74, 0
1, 88320, Note_on_c, 4, 69, 80
1, 88559, Note_on_c, 4, 69, 0
1, 88800, Note_on_c, 4, 79, 80
1, 88913, Note_on_c, 4, 79, 0
1, 88920, Note_on_c, 4, 74, 80
1, 89033, Note_on_c, 4, 74, 0
1, 89040, Note_on_c, 4, 76, 80
1, 89267, Note_on_c, 4, 76, 0
1, 89280, Note_on_c, 4, 74, 80
1, 89393, Note_on_c, 4, 74, 0
1, 89400, Note_on_c, 4, 72, 80
1, 89513, Note_on_c, 4, 72, 0
1, 89520, Note_on_c, 4, 72, 80
1, 89747, Note_on_c, 4, 72, 0
1, 89760, Note_on_c, 4, 69, 80
1, 89999, Note_on_c, 4, 69, 0
1, 90240, Note_on_c, 4, 72, 80
1, 90353, Note_on_c, 4, 72, 0
1, 90360, Note_on_c, 4, 74, 80
1, 90587, Note_on_c, 4, 74, 0
1, 90600, Note_on_c, 4, 76, 80
1, 90713, Note_on_c, 4, 76, 0
1, 90720, Note_on_c, 4, 74, 80
1, 90947, Note_on_c, 4, 74, 0
1, 90960, Note_on_c, 4, 72, 80
1, 91187, Note_on_c, 4, 72, 0
1, 91200, Note_on_c, 4, 74, 80
1, 91427, Note_on_c, 4, 74, 0
1, 91440, Note_on_c, 4, 72, 80
1, 91667, Note_on_c, 4, 72, 0
1, 91680, Note_on_c, 4, 69, 80
1, 91907, Note_on_c, 4, 69, 0
1, 91920, Note_on_c, 4, 69, 80
1, 92147, Note_on_c, 4, 69, 0
1, 92160, Note_on_c, 4, 69, 80
1, 92615, Note_on_c, 4, 69, 0
1, 92640, Note_on_c, 4, 69, 80
1, 92867, Note_on_c, 4, 69, 0
1, 92880, Note_on_c, 4, 67, 80
1, 93107, Note_on_c, 4, 67, 0
1, 93120, Note_on_c, 4, 69, 80
1, 93347, Note_on_c, 4, 69, 0
1, 93360, Note_on_c, 4, 76, 80
1, 93587, Note_on_c, 4, 76, 0
1, 93600, Note_on_c, 4, 74, 80
1, 93839, Note_on_c, 4, 74, 0
1, 94080, Note_on_c, 4, 74, 80
1, 94193, Note_on_c, 4, 74, 0
1, 94200, Note_on_c, 4, 74, 80
1, 94427, Note_on_c, 4, 74, 0
1, 94440, Note_on_c, 4, 76, 80
1, 94553, Note_on_c, 4, 76, 0
1, 94560, Note_on_c, 4, 74, 80
1, 94787, Note_on_c, 4, 74, 0
1, 94800, Note_on_c, 4, 72, 80
1, 95027, Note_on_c, 4, 72, 0
1, 95040, Note_on_c, 4, 67, 80
1, 95267, Note_on_c, 4, 67, 0
1, 95280, Note_on_c, 4, 72, 80
1, 95507, Note_on_c, 4, 72, 0
1, 95520, Note_on_c, 4, 76, 80
1, 95633, Note_on_c, 4, 76, 0
1, 95640, Note_on_c, 4, 74, 80
1, 95753, Note_on_c, 4, 74, 0
1, 95760, Note_on_c, 4, 72, 80
1, 95873, Note_on_c, 4, 72, 0
1, 95880, Note_on_c, 4, 74, 80
1, 95993, Note_on_c, 4, 74, 0
1, 96000, Note_on_c, 4, 69, 80
1, 96455, Note_on_c, 4, 69, 0
1, 96480, Note_on_c, 4, 79, 80
1, 96593, Note_on_c, 4, 79, 0
1, 96600, Note_on_c, 4, 74, 80
1, 96713, Note_on_c, 4, 74, 0
1, 96720, Note_on_c, 4, 76, 80
1, 96947, Note_on_c, 4, 76, 0
1, 96960, Note_on_c, 4, 74, 80
1, 97073, Note_on_c, 4, 74, 0
1, 97080, Note_on_c, 4, 72, 80
1, 97193, Note_on_c, 4, 72, 0
1, 97200, Note_on_c, 4, 72, 80
1, 97427, Note_on_c, 4, 72, 0
1, 97440, Note_on_c, 4, 69, 80
1, 97667, Note_on_c, 4, 69, 0
1, 97680, Note_on_c, 4, 69, 80
1, 97907, Note_on_c, 4, 69, 0
1, 97920, Note_on_c, 4, 79, 80
1, 98033, Note_on_c, 4, 79, 0
1, 98040, Note_on_c, 4, 74, 80
1, 98153, Note_on_c, 4, 74, 0
1, 98160, Note_on_c, 4, 76, 80
1, 98387, Note_on_c, 4, 76, 0
1, 98400, Note_on_c, 4, 74, 80
1, 98513, Note_on_c, 4, 74, 0
1, 98520, Note_on_c, 4, 72, 80
1, 98633, Note_on_c, 4, 72, 0
1, 98640, Note_on_c, 4, 72, 80
1, 98867, Note_on_c, 4, 72, 0
1, 98880, Note_on_c, 4, 69, 80
1, 99107, Note_on_c, 4, 69, 0
1, 99120, Note_on_c, 4, 64, 80
1, 99347, Note_on_c, 4, 64, 0
1, 99360, Note_on_c, 4, 67, 80
1, 99587, Note_on_c, 4, 67, 0
1, 99600, Note_on_c, 4, 69, 80
1, 99827, Note_on_c, 4, 69, 0
1, 100560, Note_on_c, 4, 72, 80
1, 100673, Note_on_c, 4, 72, 0
1, 100680, Note_on_c, 4, 74, 80
1, 100793, Note_on_c, 4, 74, 0
1, 100800, Note_on_c, 4, 76, 80
1, 101027, Note_on_c, 4, 76, 0
1, 101040, Note_on_c, 4, 74, 80
1, 101153, Note_on_c, 4, 74, 0
1, 101160, Note_on_c, 4, 72, 80
1, 101273, Note_on_c, 4, 72, 0
1, 101280, Note_on_c, 4, 72, 80
1, 101507, Note_on_c, 4, 72, 0
1, 101520, Note_on_c, 4, 74, 80
1, 101747, Note_on_c, 4, 74, 0
1, 101760, Note_on_c, 4, 74, 80
1, 101999, Note_on_c, 4, 74, 0
1, 102360, Note_on_c, 4, 69, 80
1, 102473, Note_on_c, 4, 69, 0
1, 102480, Note_on_c, 4, 72, 80
1, 102593, Note_on_c, 4, 72, 0
1, 102600, Note_on_c, 4, 74, 80
1, 102713, Note_on_c, 4, 74, 0
1, 102720, Note_on_c, 4, 76, 80
1, 102947, Note_on_c, 4, 76, 0
1, 102960, Note_on_c, 4, 74, 80
1, 103073, Note_on_c, 4, 74, 0
1, 103080, Note_on_c, 4, 72, 80
1, 103193, Note_on_c, 4, 72, 0
1, 103200, Note_on_c, 4, 72, 80
1, 103427, Note_on_c, 4, 72, 0
1, 103440, Note_on_c, 4, 74, 80
1, 103667, Note_on_c, 4, 74, 0
1, 103680, Note_on_c, 4, 69, 80
1, 103919, Note_on_c, 4, 69, 0
1, 104280, Note_on_c, 4, 69, 80
1, 104393, Note_on_c, 4, 69, 0
1, 104400, Note_on_c, 4, 72, 80
1, 104513, Note_on_c, 4, 72, 0
1, 104520, Note_on_c, 4, 74, 80
1, 104633, Note_on_c, 4, 74, 0
1, 104640, Note_on_c, 4, 76, 80
1, 104867, Note_on_c, 4, 76, 0
1, 104880, Note_on_c, 4, 69, 80
1, 105107, Note_on_c, 4, 69, 0
1, 105120, Note_on_c, 4, 72, 80
1, 105347, Note_on_c, 4, 72, 0
1, 105360, Note_on_c, 4, 74, 80
1, 105587, Note_on_c, 4, 74, 0
1, 105600, Note_on_c, 4, 74, 80
1, 105839, Note_on_c, 4, 74, 0
1, 106320, Note_on_c, 4, 72, 80
1, 106433, Note_on_c, 4, 72, 0
1, 106440, Note_on_c, 4, 74, 80
1, 106553, Note_on_c, 4, 74, 0
1, 106560, Note_on_c, 4, 76, 80
1, 106787, Note_on_c, 4, 76, 0
1, 106800, Note_on_c, 4, 74, 80
1, 106913, Note_on_c, 4, 74, 0
1, 106920, Note_on_c, 4, 72, 80
1, 107033, Note_on_c, 4, 72, 0
1, 107040, Note_on_c, 4, 74, 80
1, 107381, Note_on_c, 4, 74, 0
1, 107400, Note_on_c, 4, 69, 80
1, 107513, Note_on_c, 4, 69, 0
1, 108120, Note_on_c, 4, 72, 80
1, 108233, Note_on_c, 4, 72, 0
1, 108240, Note_on_c, 4, 74, 80
1, 108467, Note_on_c, 4, 74, 0
1, 108480, Note_on_c, 4, 76, 80
1, 108707, Note_on_c, 4, 76, 0
1, 108720, Note_on_c, 4, 79, 80
1, 108833, Note_on_c, 4, 79, 0
1, 108840, Note_on_c, 4, 76, 80
1, 108953, Note_on_c, 4, 76, 0
1, 108960, Note_on_c, 4, 74, 80
1, 109187, Note_on_c, 4, 74, 0
1, 109200, Note_on_c, 4, 72, 80
1, 109427, Note_on_c, 4, 72, 0
1, 109440, Note_on_c, 4, 74, 80
1, 109679, Note_on_c, 4, 74, 0
1, 110040, Note_on_c, 4, 69, 80
1, 110153, Note_on_c, 4, 69, 0
1, 110160, Note_on_c, 4, 72, 80
1, 110273, Note_on_c, 4, 72, 0
1, 110280, Note_on_c, 4, 74, 80
1, 110393, Note_on_c, 4, 74, 0
1, 110400, Note_on_c, 4, 76, 80
1, 110627, Note_on_c, 4, 76, 0
1, 110640, Note_on_c, 4, 74, 80
1, 110867, Note_on_c, 4, 74, 0
1, 110880, Note_on_c, 4, 72, 80
1, 111107, Note_on_c, 4, 72, 0
1, 111120, Note_on_c, 4, 74, 80
1, 111347, Note_on_c, 4, 74, 0
1, 111360, Note_on_c, 4, 69, 80
1, 111587, Note_on_c, 4, 69, 0
1, 111600, Note_on_c, 4, 69, 80
1, 111713, Note_on_c, 4, 69, 0
1, 111720, Note_on_c, 4, 69, 80
1, 111833, Note_on_c, 4, 69, 0
1, 111840, Note_on_c, 4, 69, 80
1, 111953, Note_on_c, 4, 69, 0
1, 111960, Note_on_c, 4, 69, 80
1, 112073, Note_on_c, 4, 69, 0
1, 112080, Note_on_c, 4, 72, 80
1, 112193, Note_on_c, 4, 72, 0
1, 112200, Note_on_c, 4, 74, 80
1, 112313, Note_on_c, 4, 74, 0
1, 112320, Note_on_c, 4, 74, 80
1, 112547, Note_on_c, 4, 74, 0
1, 112560, Note_on_c, 4, 69, 80
1, 112787, Note_on_c, 4, 69, 0
1, 112800, Note_on_c, 4, 72, 80
1, 113027, Note_on_c, 4, 72, 0
1, 113040, Note_on_c, 4, 74, 80
1, 113267, Note_on_c, 4, 74, 0
1, 113280, Note_on_c, 4, 74, 80
1, 113519, Note_on_c, 4, 74, 0
1, 114000, Note_on_c, 4, 72, 80
1, 114113, Note_on_c, 4, 72, 0
1, 114120, Note_on_c, 4, 74, 80
1, 114233, Note_on_c, 4, 74, 0
1, 114240, Note_on_c, 4, 76, 80
1, 114467, Note_on_c, 4, 76, 0
1, 114480, Note_on_c, 4, 74, 80
1, 114593, Note_on_c, 4, 74, 0
1, 114600, Note_on_c, 4, 72, 80
1, 114713, Note_on_c, 4, 72, 0
1, 114720, Note_on_c, 4, 74, 80
1, 115061, Note_on_c, 4, 74, 0
1, 115080, Note_on_c, 4, 69, 80
1, 115193, Note_on_c, 4, 69, 0
1, 115200, Note_on_c, 4, 57, 80
1, 115440, Note_on_c, 4, 69, 80
1, 115655, Note_on_c, 4, 57, 0
1, 115667, Note_on_c, 4, 69, 0
1, 115680, Note_on_c, 4, 60, 80
1, 115920, Note_on_c, 4, 72, 80
1, 116135, Note_on_c, 4, 60, 0
1, 116147, Note_on_c, 4, 72, 0
1, 116160, Note_on_c, 4, 62, 80
1, 116400, Note_on_c, 4, 74, 80
1, 116615, Note_on_c, 4, 62, 0
1, 116627, Note_on_c, 4, 74, 0
1, 116640, Note_on_c, 4, 64, 80
1, 116880, Note_on_c, 4, 76, 80
1, 117095, Note_on_c, 4, 64, 0
1, 117107, Note_on_c, 4, 76, 0
1, 117120, Note_on_c, 4, 65, 80
1, 117120, Note_on_c, 4, 69, 80
1, 117359, Note_on_c, 4, 65, 0
1, 117359, Note_on_c, 4, 69, 0
1, 117840, Note_on_c, 4, 72, 80
1, 117953, Note_on_c, 4, 72, 0
1, 117960, Note_on_c, 4, 74, 80
1, 118073, Note_on_c, 4, 74, 0
1, 118080, Note_on_c, 4, 76, 80
1, 118307, Note_on_c, 4, 76, 0
1, 118320, Note_on_c, 4, 74, 80
1, 118433, Note_on_c, 4, 74, 0
1, 118440, Note_on_c, 4, 72, 80
1, 118553, Note_on_c, 4, 72, 0
1, 118560, Note_on_c, 4, 74, 80
1, 118901, Note_on_c, 4, 74, 0
1, 118920, Note_on_c, 4, 69, 80
1, 119033, Note_on_c, 4, 69, 0
1, 119040, Note_on_c, 4, 57, 80
1, 119280, Note_on_c, 4, 69, 80
1, 119495, Note_on_c, 4, 57, 0
1, 119507, Note_on_c, 4, 69, 0
1, 119520, Note_on_c, 4, 60, 80
1, 119760, Note_on_c, 4, 72, 80
1, 119975, Note_on_c, 4, 60, 0
1, 119987, Note_on_c, 4, 72, 0
1, 120000, Note_on_c, 4, 62, 80
1, 120240, Note_on_c, 4, 74, 80
1, 120455, Note_on_c, 4, 62, 0
1, 120467, Note_on_c, 4, 74, 0
1, 120480, Note_on_c, 4, 64, 80
1, 120720, Note_on_c, 4, 76, 80
1, 120935, Note_on_c, 4, 64, 0
1, 120947, Note_on_c, 4, 76, 0
1, 120960, Note_on_c, 4, 65, 80
1, 120960, Note_on_c, 4, 69, 80
1, 121199, Note_on_c, 4, 65, 0
1, 121199, Note_on_c, 4, 69, 0
1, 121680, Note_on_c, 4, 72, 80
1, 121793, Note_on_c, 4, 72, 0
1, 121800, Note_on_c, 4, 74, 80
1, 121913, Note_on_c, 4, 74, 0
1, 121920, Note_on_c, 4, 76, 80
1, 122147, Note_on_c, 4, 76, 0
1, 122160, Note_on_c, 4, 74, 80
1, 122273, Note_on_c, 4, 74, 0
1, 122280, Note_on_c, 4, 72, 80
1, 122393, Note_on_c, 4, 72, 0
1, 122400, Note_on_c, 4, 74, 80
1, 122741, Note_on_c, 4, 74, 0
1, 122760, Note_on_c, 4, 69, 80
1, 122873, Note_on_c, 4, 69, 0
1, 122880, Note_on_c, 4, 57, 80
1, 123120, Note_on_c, 4, 69, 80
1, 123335, Note_on_c, 4, 57, 0
1, 123347, Note_on_c, 4, 69, 0
1, 123360, Note_on_c, 4, 60, 80
1, 123600, Note_on_c, 4, 72, 80
1, 123815, Note_on_c, 4, 60, 0
1, 123827, Note_on_c, 4, 72, 0
1, 123840, Note_on_c, 4, 62, 80
1, 124080, Note_on_c, 4, 74, 80
1, 124295, Note_on_c, 4, 62, 0
1, 124307, Note_on_c, 4, 74, 0
1, 124320, Note_on_c, 4, 64, 80
1, 124560, Note_on_c, 4, 76, 80
1, 124775, Note_on_c, 4, 64, 0
1, 124787, Note_on_c, 4, 76, 0
1, 124800, Note_on_c, 4, 65, 80
1, 124800, Note_on_c, 4, 69, 80
1, 125039, Note_on_c, 4, 65, 0
1, 125039, Note_on_c, 4, 69, 0
1, 125520, Note_on_c, 4, 72, 80
1, 125633, Note_on_c, 4, 72, 0
1, 125640, Note_on_c, 4, 74, 80
1, 125753, Note_on_c, 4, 74, 0
1, 125760, Note_on_c, 4, 76, 80
1, 125987, Note_on_c, 4, 76, 0
1, 126000, Note_on_c, 4, 74, 80
1, 126113, Note_on_c, 4, 74, 0
1, 126120, Note_on_c, 4, 72, 80
1, 126233, Note_on_c, 4, 72, 0
1, 126240, Note_on_c, 4, 74, 80
1, 126581, Note_on_c, 4, 74, 0
1, 126600, Note_on_c, 4, 69, 80
1, 126713, Note_on_c, 4, 69, 0
1, 126720, Note_on_c, 4, 69, 80
1, 126947, Note_on_c, 4, 69, 0
1, 126960, Note_on_c, 4, 69, 80
1, 127073, Note_on_c, 4, 69, 0
1, 127080, Note_on_c, 4, 69, 80
1, 127193, Note_on_c, 4, 69, 0
1, 127200, Note_on_c, 4, 69, 80
1, 127313, Note_on_c, 4, 69, 0
1, 127320, Note_on_c, 4, 69, 80
1, 127433, Note_on_c, 4, 69, 0
1, 127440, Note_on_c, 4, 72, 80
1, 127553, Note_on_c, 4, 72, 0
1, 127560, Note_on_c, 4, 74, 80
1, 127673, Note_on_c, 4, 74, 0
1, 127680, Note_on_c, 4, 74, 80
1, 127907, Note_on_c, 4, 74, 0
1, 127920, Note_on_c, 4, 69, 80
1, 128147, Note_on_c, 4, 69, 0
1, 128160, Note_on_c, 4, 72, 80
1, 128387, Note_on_c, 4, 72, 0
1, 128400, Note_on_c, 4, 74, 80
1, 128627, Note_on_c, 4, 74, 0
1, 128640, Note_on_c, 4, 74, 80
1, 128879, Note_on_c, 4, 74, 0
1, 129360, Note_on_c, 4, 72, 80
1, 129473, Note_on_c, 4, 72, 0
1, 129480, Note_on_c, 4, 74, 80
1, 129593, Note_on_c, 4, 74, 0
1, 129600, Note_on_c, 4, 76, 80
1, 129827, Note_on_c, 4, 76, 0
1, 129840, Note_on_c, 4, 74, 80
1, 129953, Note_on_c, 4, 74, 0
1, 129960, Note_on_c, 4, 72, 80
1, 130073, Note_on_c, 4, 72, 0
1, 130080, Note_on_c, 4, 72, 80
1, 130307, Note_on_c, 4, 72, 0
1, 130320, Note_on_c, 4, 74, 80
1, 130547, Note_on_c, 4, 74, 0
1, 138480, Note_on_c, 4, 60, 80
1, 138480, Note_on_c, 4, 64, 80
1, 138593, Note_on_c, 4, 60, 0
1, 138593, Note_on_c, 4, 64, 0
1, 138600, Note_on_c, 4, 60, 80
1, 138600, Note_on_c, 4, 64, 80
1, 138827, Note_on_c, 4, 60, 0
1, 138827, Note_on_c, 4, 64, 0
1, 138840, Note_on_c, 4, 59, 80
1, 138840, Note_on_c, 4, 62, 80
1, 139067, Note_on_c, 4, 59, 0
1, 139067, Note_on_c, 4, 62, 0
1, 139080, Note_on_c, 4, 57, 80
1, 139080, Note_on_c, 4, 60, 80
1, 139193, Note_on_c, 4, 57, 0
1, 139193, Note_on_c, 4, 60, 0
1, 139200, Note_on_c, 4, 59, 80
1, 139200, Note_on_c, 4, 62, 80
1, 139427, Note_on_c, 4, 59, 0
1, 139427, Note_on_c, 4, 62, 0
1, 139440, Note_on_c, 4, 60, 80
1, 139440, Note_on_c, 4, 64, 80
1, 139667, Note_on_c, 4, 60, 0
1, 139667, Note_on_c, 4, 64, 0
1, 139680, Note_on_c, 4, 57, 80
1, 139907, Note_on_c, 4, 57, 0
1, 139920, Note_on_c, 4, 57, 80
1, 140147, Note_on_c, 4, 57, 0
1, 140400, Note_on_c, 4, 60, 80
1, 140400, Note_on_c, 4, 64, 80
1, 140513, Note_on_c, 4, 60, 0
1, 140513, Note_on_c, 4, 64, 0
1, 140520, Note_on_c, 4, 60, 80
1, 140520, Note_on_c, 4, 64, 80
1, 140747, Note_on_c, 4, 60, 0
1, 140747, Note_on_c, 4, 64, 0
1, 140760, Note_on_c, 4, 59, 80
1, 140760, Note_on_c, 4, 62, 80
1, 140987, Note_on_c, 4, 59, 0
1, 140987, Note_on_c, 4, 62, 0
1, 141000, Note_on_c, 4, 57, 80
1, 141000, Note_on_c, 4, 60, 80
1, 141113, Note_on_c, 4, 57, 0
1, 141113, Note_on_c, 4, 60, 0
1, 141120, Note_on_c, 4, 59, 80
1, 141120, Note_on_c, 4, 62, 80
1, 141347, Note_on_c, 4, 59, 0
1, 141347, Note_on_c, 4, 62, 0
1, 141360, Note_on_c, 4, 57, 80
1, 141360, Note_on_c, 4, 60, 80
1, 141587, Note_on_c, 4, 57, 0
1, 141587, Note_on_c, 4, 60, 0
1, 141600, Note_on_c, 4, 52, 80
1, 141600, Note_on_c, 4, 57, 80
1, 141827, Note_on_c, 4, 52, 0
1, 141827, Note_on_c, 4, 57, 0
1, 141840, Note_on_c, 4, 52, 80
1, 141840, Note_on_c, 4, 57, 80
1, 142067, Note_on_c, 4, 52, 0
1, 142067, Note_on_c, 4, 57, 0
1, 142320, Note_on_c, 4, 60, 80
1, 142320, Note_on_c, 4, 64, 80
1, 142433, Note_on_c, 4, 60, 0
1, 142433, Note_on_c, 4, 64, 0
1, 142440, Note_on_c, 4, 60, 80
1, 142440, Note_on_c, 4, 64, 80
1, 142667, Note_on_c, 4, 60, 0
1, 142667, Note_on_c, 4, 64, 0
1, 142680, Note_on_c, 4, 59, 80
1, 142680, Note_on_c, 4, 62, 80
1, 142907, Note_on_c, 4, 59, 0
1, 142907, Note_on_c, 4, 62, 0
1, 142920, Note_on_c, 4, 57, 80
1, 142920, Note_on_c, 4, 60, 80
1, 143033, Note_on_c, 4, 57, 0
1, 143033, Note_on_c, 4, 60, 0
1, 143040, Note_on_c, 4, 59, 80
1, 143040, Note_on_c, 4, 62, 80
1, 143267, Note_on_c, 4, 59, 0
1, 143267, Note_on_c, 4, 62, 0
1, 143280, Note_on_c, 4, 60, 80
1, 143280, Note_on_c, 4, 64, 80
1, 143507, Note_on_c, 4, 60, 0
1, 143507, Note_on_c, 4, 64, 0
1, 143520, Note_on_c, 4, 57, 80
1, 143747, Note_on_c, 4, 57, 0
1, 143760, Note_on_c, 4, 57, 80
1, 143987, Note_on_c, 4, 57, 0
1, 144240, Note_on_c, 4, 60, 80
1, 144240, Note_on_c, 4, 64, 80
1, 144353, Note_on_c, 4, 60, 0
1, 144353, Note_on_c, 4, 64, 0
1, 144360, Note_on_c, 4, 60, 80
1, 144360, Note_on_c, 4, 64, 80
1, 144587, Note_on_c, 4, 60, 0
1, 144587, Note_on_c, 4, 64, 0
1, 144600, Note_on_c, 4, 59, 80
1, 144600, Note_on_c, 4, 62, 80
1, 144827, Note_on_c, 4, 59, 0
1, 144827, Note_on_c, 4, 62, 0
1, 144840, Note_on_c, 4, 57, 80
1, 144840, Note_on_c, 4, 60, 80
1, 144953, Note_on_c, 4, 57, 0
1, 144953, Note_on_c, 4, 60, 0
1, 144960, Note_on_c, 4, 59, 80
1, 144960, Note_on_c, 4, 62, 80
1, 145187, Note_on_c, 4, 59, 0
1, 145187, Note_on_c, 4, 62, 0
1, 145200, Note_on_c, 4, 57, 80
1, 145200, Note_on_c, 4, 60, 80
1, 145427, Note_on_c, 4, 57, 0
1, 145427, Note_on_c, 4, 60, 0
1, 145440, Note_on_c, 4, 52, 80
1, 145440, Note_on_c, 4, 57, 80
1, 145667, Note_on_c, 4, 52, 0
1, 145667, Note_on_c, 4, 57, 0
1, 145680, Note_on_c, 4, 52, 80
1, 145680, Note_on_c, 4, 57, 80
1, 145907, Note_on_c, 4, 52, 0
1, 145907, Note_on_c, 4, 57, 0
1, 146640, Note_on_c, 4, 60, 80
1, 146753, Note_on_c, 4, 60, 0
1, 146760, Note_on_c, 4, 62, 80
1, 146873, Note_on_c, 4, 62, 0
1, 146880, Note_on_c, 4, 64, 80
1, 147107, Note_on_c, 4, 64, 0
1, 147120, Note_on_c, 4, 62, 80
1, 147233, Note_on_c, 4, 62, 0
1, 147240, Note_on_c, 4, 60, 80
1, 147353, Note_on_c, 4, 60, 0
1, 147360, Note_on_c, 4, 60, 80
1, 147587, Note_on_c, 4, 60, 0
1, 147600, Note_on_c, 4, 62, 80
1, 147827, Note_on_c, 4, 62, 0
1, 147840, Note_on_c, 4, 62, 80
1, 148079, Note_on_c, 4, 62, 0
1, 148440, Note_on_c, 4, 57, 80
1, 148553, Note_on_c, 4, 57, 0
1, 148560, Note_on_c, 4, 60, 80
1, 148673, Note_on_c, 4, 60, 0
1, 148680, Note_on_c, 4, 62, 80
1, 148793, Note_on_c, 4, 62, 0
1, 148800, Note_on_c, 4, 64, 80
1, 149027, Note_on_c, 4, 64, 0
1, 149040, Note_on_c, 4, 62, 80
1, 149153, Note_on_c, 4, 62, 0
1, 149160, Note_on_c, 4, 60, 80
1, 149273, Note_on_c, 4, 60, 0
1, 149280, Note_on_c, 4, 60, 80
1, 149507, Note_on_c, 4, 60, 0
1, 149520, Note_on_c, 4, 62, 80
1, 149747, Note_on_c, 4, 62, 0
1, 149760, Note_on_c, 4, 57, 80
1, 149999, Note_on_c, 4, 57, 0
1, 150360, Note_on_c, 4, 57, 80
1, 150473, Note_on_c, 4, 57, 0
1, 150480, Note_on_c, 4, 60, 80
1, 150593, Note_on_c, 4, 60, 0
1, 150600, Note_on_c, 4, 62, 80
1, 150713, Note_on_c, 4, 62, 0
1, 150720, Note_on_c, 4, 64, 80
1, 150947, Note_on_c, 4, 64, 0
1, 150960, Note_on_c, 4, 57, 80
1, 151187, Note_on_c, 4, 57, 0
1, 151200, Note_on_c, 4, 60, 80
1, 151427, Note_on_c, 4, 60, 0
1, 151440, Note_on_c, 4, 62, 80
1, 151667, Note_on_c, 4, 62, 0
1, 151680, Note_on_c, 4, 62, 80
1, 151919, Note_on_c, 4, 62, 0
1, 152400, Note_on_c, 4, 60, 80
1, 152513, Note_on_c, 4, 60, 0
1, 152520, Note_on_c, 4, 62, 80
1, 152633, Note_on_c, 4, 62, 0
1, 152640, Note_on_c, 4, 64, 80
1, 152867, Note_on_c, 4, 64, 0
1, 152880, Note_on_c, 4, 62, 80
1, 152993, Note_on_c, 4, 62, 0
1, 153000, Note_on_c, 4, 60, 80
1, 153113, Note_on_c, 4, 60, 0
1, 153120, Note_on_c, 4, 62, 80
1, 153461, Note_on_c, 4, 62, 0
1, 153480, Note_on_c, 4, 57, 80
1, 154049, Note_on_c, 4, 57, 0
1, 154200, Note_on_c, 4, 60, 80
1, 154313, Note_on_c, 4, 60, 0
1, 154320, Note_on_c, 4, 62, 80
1, 154547, Note_on_c, 4, 62, 0
1, 154560, Note_on_c, 4, 64, 80
1, 154787, Note_on_c, 4, 64, 0
1, 154800, Note_on_c, 4, 67, 80
1, 154913, Note_on_c, 4, 67, 0
1, 154920, Note_on_c, 4, 64, 80
1, 155033, Note_on_c, 4, 64, 0
1, 155040, Note_on_c, 4, 62, 80
1, 155267, Note_on_c, 4, 62, 0
1, 155280, Note_on_c, 4, 60, 80
1, 155507, Note_on_c, 4, 60, 0
1, 155520, Note_on_c, 4, 62, 80
1, 155759, Note_on_c, 4, 62, 0
1, 156120, Note_on_c, 4, 57, 80
1, 156233, Note_on_c, 4, 57, 0
1, 156240, Note_on_c, 4, 60, 80
1, 156353, Note_on_c, 4, 60, 0
1, 156360, Note_on_c, 4, 62, 80
1, 156473, Note_on_c, 4, 62, 0
1, 156480, Note_on_c, 4, 64, 80
1, 156707, Note_on_c, 4, 64, 0
1, 156720, Note_on_c, 4, 62, 80
1, 156947, Note_on_c, 4, 62, 0
1, 156960, Note_on_c, 4, 60, 80
1, 157187, Note_on_c, 4, 60, 0
1, 157200, Note_on_c, 4, 62, 80
1, 157427, Note_on_c, 4, 62, 0
1, 157440, Note_on_c, 4, 57, 80
1, 157667, Note_on_c, 4, 57, 0
1, 157680, Note_on_c, 4, 57, 80
1, 157793, Note_on_c, 4, 57, 0
1, 157800, Note_on_c, 4, 57, 80
1, 157913, Note_on_c, 4, 57, 0
1, 157920, Note_on_c, 4, 57, 80
1, 158033, Note_on_c, 4, 57, 0
1, 158040, Note_on_c, 4, 57, 80
1, 158153, Note_on_c, 4, 57, 0
1, 158160, Note_on_c, 4, 60, 80
1, 158273, Note_on_c, 4, 60, 0
1, 158280, Note_on_c, 4, 62, 80
1, 158393, Note_on_c, 4, 62, 0
1, 158400, Note_on_c, 4, 62, 80
1, 158627, Note_on_c, 4, 62, 0
1, 158640, Note_on_c, 4, 57, 80
1, 158867, Note_on_c, 4, 57, 0
1, 158880, Note_on_c, 4, 60, 80
1, 159107, Note_on_c, 4, 60, 0
1, 159120, Note_on_c, 4, 62, 80
1, 159347, Note_on_c, 4, 62, 0
1, 159360, Note_on_c, 4, 62, 80
1, 159599, Note_on_c, 4, 62, 0
1, 160080, Note_on_c, 4, 60, 80
1, 160193, Note_on_c, 4, 60, 0
1, 160200, Note_on_c, 4, 62, 80
1, 160313, Note_on_c, 4, 62, 0
1, 160320, Note_on_c, 4, 64, 80
1, 160547, Note_on_c, 4, 64, 0
1, 160560, Note_on_c, 4, 62, 80
1, 160673, Note_on_c, 4, 62, 0
1, 160680, Note_on_c, 4, 60, 80
1, 160793, Note_on_c, 4, 60, 0
1, 160800, Note_on_c, 4, 62, 80
1, 161141, Note_on_c, 4, 62, 0
1, 161160, Note_on_c, 4, 57, 80
1, 161273, Note_on_c, 4, 57, 0
1, 163800, Note_on_c, 4, 69, 80
1, 163913, Note_on_c, 4, 69, 0
1, 163920, Note_on_c, 4, 72, 80
1, 164033, Note_on_c, 4, 72, 0
1, 164040, Note_on_c, 4, 74, 80
1, 164153, Note_on_c, 4, 74, 0
1, 164160, Note_on_c, 4, 76, 80
1, 164387, Note_on_c, 4, 76, 0
1, 164400, Note_on_c, 4, 74, 80
1, 164513, Note_on_c, 4, 74, 0
1, 164520, Note_on_c, 4, 72, 80
1, 164633, Note_on_c, 4, 72, 0
1, 164640, Note_on_c, 4, 74, 80
1, 164867, Note_on_c, 4, 74, 0
1, 164880, Note_on_c, 4, 74, 80
1, 164993, Note_on_c, 4, 74, 0
1, 165000, Note_on_c, 4, 72, 80
1, 165113, Note_on_c, 4, 72, 0
1, 165120, Note_on_c, 4, 69, 80
1, 165233, Note_on_c, 4, 69, 0
1, 165240, Note_on_c, 4, 72, 80
1, 165353, Note_on_c, 4, 72, 0
1, 165360, Note_on_c, 4, 69, 80
1, 165587, Note_on_c, 4, 69, 0
1, 167640, Note_on_c, 4, 69, 80
1, 167753, Note_on_c, 4, 69, 0
1, 167760, Note_on_c, 4, 72, 80
1, 167873, Note_on_c, 4, 72, 0
1, 167880, Note_on_c, 4, 74, 80
1, 167993, Note_on_c, 4, 74, 0
1, 168000, Note_on_c, 4, 76, 80
1, 168227, Note_on_c, 4, 76, 0
1, 168240, Note_on_c, 4, 79, 80
1, 168353, Note_on_c, 4, 79, 0
1, 168360, Note_on_c, 4, 76, 80
1, 168473, Note_on_c, 4, 76, 0
1, 168480, Note_on_c, 4, 74, 80
1, 168593, Note_on_c, 4, 74, 0
1, 168600, Note_on_c, 4, 72, 80
1, 168713, Note_on_c, 4, 72, 0
1, 168720, Note_on_c, 4, 69, 80
1, 168833, Note_on_c, 4, 69, 0
1, 168840, Note_on_c, 4, 69, 80
1, 169409, Note_on_c, 4, 69, 0
1, 169920, Note_on_c, 4, 81, 80
1, 170489, Note_on_c, 4, 81, 0
1, 170520, Note_on_c, 4, 79, 80
1, 170633, Note_on_c, 4, 79, 0
1, 170640, Note_on_c, 4, 76, 80
1, 170867, Note_on_c, 4, 76, 0
1, 171600, Note_on_c, 4, 72, 80
1, 171713, Note_on_c, 4, 72, 0
1, 171720, Note_on_c, 4, 74, 80
1, 171833, Note_on_c, 4, 74, 0
1, 171840, Note_on_c, 4, 76, 80
1, 172067, Note_on_c, 4, 76, 0
1, 172080, Note_on_c, 4, 74, 80
1, 172193, Note_on_c, 4, 74, 0
1, 172200, Note_on_c, 4, 72, 80
1, 172313, Note_on_c, 4, 72, 0
1, 172320, Note_on_c, 4, 74, 80
1, 172661, Note_on_c, 4, 74, 0
1, 172680, Note_on_c, 4, 72, 80
1, 172793, Note_on_c, 4, 72, 0
1, 172800, Note_on_c, 4, 69, 80
1, 173027, Note_on_c, 4, 69, 0
1, 173040, Note_on_c, 4, 69, 80
1, 173153, Note_on_c, 4, 69, 0
1, 173160, Note_on_c, 4, 69, 80
1, 173273, Note_on_c, 4, 69, 0
1, 173280, Note_on_c, 4, 69, 80
1, 173393, Note_on_c, 4, 69, 0
1, 173400, Note_on_c, 4, 69, 80
1, 173513, Note_on_c, 4, 69, 0
1, 173520, Note_on_c, 4, 72, 80
1, 173633, Note_on_c, 4, 72, 0
1, 173640, Note_on_c, 4, 74, 80
1, 173753, Note_on_c, 4, 74, 0
1, 173760, Note_on_c, 4, 74, 80
1, 173987, Note_on_c, 4, 74, 0
1, 174000, Note_on_c, 4, 69, 80
1, 174227, Note_on_c, 4, 69, 0
1, 174240, Note_on_c, 4, 72, 80
1, 174467, Note_on_c, 4, 72, 0
1, 174480, Note_on_c, 4, 74, 80
1, 174707, Note_on_c, 4, 74, 0
1, 174720, Note_on_c, 4, 74, 80
1, 174959, Note_on_c, 4, 74, 0
1, 175440, Note_on_c, 4, 72, 80
1, 175553, Note_on_c, 4, 72, 0
1, 175560, Note_on_c, 4, 74, 80
1, 175673, Note_on_c, 4, 74, 0
1, 175680, Note_on_c, 4, 76, 80
1, 175907, Note_on_c, 4, 76, 0
1, 175920, Note_on_c, 4, 74, 80
1, 176033, Note_on_c, 4, 74, 0
1, 176040, Note_on_c, 4, 72, 80
1, 176153, Note_on_c, 4, 72, 0
1, 176160, Note_on_c, 4, 74, 80
1, 176387, Note_on_c, 4, 74, 0
1, 176400, Note_on_c, 4, 74, 80
1, 176627, Note_on_c, 4, 74, 0
1, 176640, Note_on_c, 4, 72, 80
1, 176753, Note_on_c, 4, 72, 0
1, 176760, Note_on_c, 4, 69, 80
1, 177101, Note_on_c, 4, 69, 0
1, 177102, End_track
2, 0, Start_track
2, 0, Title_t, "Piano, Piano\000"
2, 0, Key_signature, 0, "major"
2, 0, Control_c, 15, 121, 0
2, 0, Program_c, 15, 0
2, 0, Control_c, 15, 7, 100
2, 0, Control_c, 15, 10, 64
2, 0, Control_c, 15, 91, 0
2, 0, Control_c, 15, 93, 0
2, 0, MIDI_port, 1
2, 0, Note_on_c, 15, 52, 80
2, 0, Note_on_c, 15, 57, 80
2, 341, Note_on_c, 15, 52, 0
2, 341, Note_on_c, 15, 57, 0
2, 360, Note_on_c, 15, 52, 80
2, 360, Note_on_c, 15, 60, 80
2, 701, Note_on_c, 15, 52, 0
2, 701, Note_on_c, 15, 60, 0
2, 720, Note_on_c, 15, 52, 80
2, 720, Note_on_c, 15, 57, 80
2, 947, Note_on_c, 15, 52, 0
2, 947, Note_on_c, 15, 57, 0
2, 960, Note_on_c, 15, 53, 80
2, 960, Note_on_c, 15, 57, 80
2, 1301, Note_on_c, 15, 53, 0
2, 1301, Note_on_c, 15, 57, 0
2, 1320, Note_on_c, 15, 53, 80
2, 1320, Note_on_c, 15, 60, 80
2, 1661, Note_on_c, 15, 53, 0
2, 1661, Note_on_c, 15, 60, 0
2, 1680, Note_on_c, 15, 53, 80
2, 1680, Note_on_c, 15, 57, 80
2, 1907, Note_on_c, 15, 53, 0
2, 1907, Note_on_c, 15, 57, 0
2, 1920, Note_on_c, 15, 53, 80
2, 1920, Note_on_c, 15, 57, 80
2, 2261, Note_on_c, 15, 53, 0
2, 2261, Note_on_c, 15, 57, 0
2, 2280, Note_on_c, 15, 53, 80
2, 2280, Note_on_c, 15, 60, 80
2, 2621, Note_on_c, 15, 53, 0
2, 2621, Note_on_c, 15, 60, 0
2, 2640, Note_on_c, 15, 53, 80
2, 2640, Note_on_c, 15, 57, 80
2, 2867, Note_on_c, 15, 53, 0
2, 2867, Note_on_c, 15, 57, 0
2, 2880, Note_on_c, 15, 50, 80
2, 2880, Note_on_c, 15, 59, 80
2, 3221, Note_on_c, 15, 50, 0
2, 3221, Note_on_c, 15, 59, 0
2, 3240, Note_on_c, 15, 50, 80
2, 3240, Note_on_c, 15, 57, 80
2, 3581, Note_on_c, 15, 50, 0
2, 3581, Note_on_c, 15, 57, 0
2, 3600, Note_on_c, 15, 50, 80
2, 3600, Note_on_c, 15, 55, 80
2, 3827, Note_on_c, 15, 50, 0
2, 3827, Note_on_c, 15, 55, 0
2, 3840, Note_on_c, 15, 52, 80
2, 3840, Note_on_c, 15, 57, 80
2, 4181, Note_on_c, 15, 52, 0
2, 4181, Note_on_c, 15, 57, 0
2, 4200, Note_on_c, 15, 52, 80
2, 4200, Note_on_c, 15, 60, 80
2, 4541, Note_on_c, 15, 52, 0
2, 4541, Note_on_c, 15, 60, 0
2, 4560, Note_on_c, 15, 52, 80
2, 4560, Note_on_c, 15, 57, 80
2, 4787, Note_on_c, 15, 52, 0
2, 4787, Note_on_c, 15, 57, 0
2, 4800, Note_on_c, 15, 53, 80
2, 4800, Note_on_c, 15, 57, 80
2, 5141, Note_on_c, 15, 53, 0
2, 5141, Note_on_c, 15, 57, 0
2, 5160, Note_on_c, 15, 53, 80
2, 5160, Note_on_c, 15, 60, 80
2, 5501, Note_on_c, 15, 53, 0
2, 5501, Note_on_c, 15, 60, 0
2, 5520, Note_on_c, 15, 53, 80
2, 5520, Note_on_c, 15, 57, 80
2, 5747, Note_on_c, 15, 53, 0
2, 5747, Note_on_c, 15, 57, 0
2, 5760, Note_on_c, 15, 53, 80
2, 5760, Note_on_c, 15, 57, 80
2, 6101, Note_on_c, 15, 53, 0
2, 6101, Note_on_c, 15, 57, 0
2, 6120, Note_on_c, 15, 53, 80
2, 6120, Note_on_c, 15, 60, 80
2, 6461, Note_on_c, 15, 53, 0
2, 6461, Note_on_c, 15, 60, 0
2, 6480, Note_on_c, 15, 53, 80
2, 6480, Note_on_c, 15, 57, 80
2, 6707, Note_on_c, 15, 53, 0
2, 6707, Note_on_c, 15, 57, 0
2, 6720, Note_on_c, 15, 50, 80
2, 6720, Note_on_c, 15, 59, 80
2, 7061, Note_on_c, 15, 50, 0
2, 7061, Note_on_c, 15, 59, 0
2, 7080, Note_on_c, 15, 50, 80
2, 7080, Note_on_c, 15, 57, 80
2, 7421, Note_on_c, 15, 50, 0
2, 7421, Note_on_c, 15, 57, 0
2, 7440, Note_on_c, 15, 50, 80
2, 7440, Note_on_c, 15, 55, 80
2, 7667, Note_on_c, 15, 50, 0
2, 7667, Note_on_c, 15, 55, 0
2, 7680, Note_on_c, 15, 52, 80
2, 7680, Note_on_c, 15, 57, 80
2, 8021, Note_on_c, 15, 52, 0
2, 8021, Note_on_c, 15, 57, 0
2, 8040, Note_on_c, 15, 52, 80
2, 8040, Note_on_c, 15, 60, 80
2, 8381, Note_on_c, 15, 52, 0
2, 8381, Note_on_c, 15, 60, 0
2, 8400, Note_on_c, 15, 52, 80
2, 8400, Note_on_c, 15, 57, 80
2, 8627, Note_on_c, 15, 52, 0
2, 8627, Note_on_c, 15, 57, 0
2, 8640, Note_on_c, 15, 53, 80
2, 8640, Note_on_c, 15, 57, 80
2, 8981, Note_on_c, 15, 53, 0
2, 8981, Note_on_c, 15, 57, 0
2, 9000, Note_on_c, 15, 53, 80
2, 9000, Note_on_c, 15, 60, 80
2, 9341, Note_on_c, 15, 53, 0
2, 9341, Note_on_c, 15, 60, 0
2, 9360, Note_on_c, 15, 53, 80
2, 9360, Note_on_c, 15, 57, 80
2, 9587, Note_on_c, 15, 53, 0
2, 9587, Note_on_c, 15, 57, 0
2, 9600, Note_on_c, 15, 53, 80
2, 9600, Note_on_c, 15, 57, 80
2, 9941, Note_on_c, 15, 53, 0
2, 9941, Note_on_c, 15, 57, 0
2, 9960, Note_on_c, 15, 53, 80
2, 9960, Note_on_c, 15, 60, 80
2, 10301, Note_on_c, 15, 53, 0
2, 10301, Note_on_c, 15, 60, 0
2, 10320, Note_on_c, 15, 53, 80
2, 10320, Note_on_c, 15, 57, 80
2, 10547, Note_on_c, 15, 53, 0
2, 10547, Note_on_c, 15, 57, 0
2, 10560, Note_on_c, 15, 50, 80
2, 10560, Note_on_c, 15, 60, 80
2, 10901, Note_on_c, 15, 50, 0
2, 10901, Note_on_c, 15, 60, 0
2, 10920, Note_on_c, 15, 50, 80
2, 10920, Note_on_c, 15, 59, 80
2, 11261, Note_on_c, 15, 50, 0
2, 11261, Note_on_c, 15, 59, 0
2, 11280, Note_on_c, 15, 50, 80
2, 11280, Note_on_c, 15, 55, 80
2, 11507, Note_on_c, 15, 50, 0
2, 11507, Note_on_c, 15, 55, 0
2, 11520, Note_on_c, 15, 52, 80
2, 11520, Note_on_c, 15, 57, 80
2, 11861, Note_on_c, 15, 52, 0
2, 11861, Note_on_c, 15, 57, 0
2, 11880, Note_on_c, 15, 52, 80
2, 11880, Note_on_c, 15, 60, 80
2, 12221, Note_on_c, 15, 52, 0
2, 12221, Note_on_c, 15, 60, 0
2, 12240, Note_on_c, 15, 52, 80
2, 12240, Note_on_c, 15, 57, 80
2, 12467, Note_on_c, 15, 52, 0
2, 12467, Note_on_c, 15, 57, 0
2, 12480, Note_on_c, 15, 53, 80
2, 12480, Note_on_c, 15, 57, 80
2, 12821, Note_on_c, 15, 53, 0
2, 12821, Note_on_c, 15, 57, 0
2, 12840, Note_on_c, 15, 53, 80
2, 12840, Note_on_c, 15, 60, 80
2, 13181, Note_on_c, 15, 53, 0
2, 13181, Note_on_c, 15, 60, 0
2, 13200, Note_on_c, 15, 53, 80
2, 13200, Note_on_c, 15, 57, 80
2, 13427, Note_on_c, 15, 53, 0
2, 13427, Note_on_c, 15, 57, 0
2, 13440, Note_on_c, 15, 53, 80
2, 13440, Note_on_c, 15, 57, 80
2, 13781, Note_on_c, 15, 53, 0
2, 13781, Note_on_c, 15, 57, 0
2, 13800, Note_on_c, 15, 53, 80
2, 13800, Note_on_c, 15, 60, 80
2, 14141, Note_on_c, 15, 53, 0
2, 14141, Note_on_c, 15, 60, 0
2, 14160, Note_on_c, 15, 53, 80
2, 14160, Note_on_c, 15, 57, 80
2, 14387, Note_on_c, 15, 53, 0
2, 14387, Note_on_c, 15, 57, 0
2, 14400, Note_on_c, 15, 50, 80
2, 14400, Note_on_c, 15, 59, 80
2, 14741, Note_on_c, 15, 50, 0
2, 14741, Note_on_c, 15, 59, 0
2, 14760, Note_on_c, 15, 50, 80
2, 14760, Note_on_c, 15, 57, 80
2, 15101, Note_on_c, 15, 50, 0
2, 15101, Note_on_c, 15, 57, 0
2, 15120, Note_on_c, 15, 50, 80
2, 15120, Note_on_c, 15, 55, 80
2, 15347, Note_on_c, 15, 50, 0
2, 15347, Note_on_c, 15, 55, 0
2, 15360, Note_on_c, 15, 52, 80
2, 15360, Note_on_c, 15, 57, 80
2, 15701, Note_on_c, 15, 52, 0
2, 15701, Note_on_c, 15, 57, 0
2, 15720, Note_on_c, 15, 52, 80
2, 15720, Note_on_c, 15, 60, 80
2, 16061, Note_on_c, 15, 52, 0
2, 16061, Note_on_c, 15, 60, 0
2, 16080, Note_on_c, 15, 52, 80
2, 16080, Note_on_c, 15, 57, 80
2, 16307, Note_on_c, 15, 52, 0
2, 16307, Note_on_c, 15, 57, 0
2, 16320, Note_on_c, 15, 53, 80
2, 16320, Note_on_c, 15, 57, 80
2, 16661, Note_on_c, 15, 53, 0
2, 16661, Note_on_c, 15, 57, 0
2, 16680, Note_on_c, 15, 53, 80
2, 16680, Note_on_c, 15, 60, 80
2, 17021, Note_on_c, 15, 53, 0
2, 17021, Note_on_c, 15, 60, 0
2, 17040, Note_on_c, 15, 53, 80
2, 17040, Note_on_c, 15, 57, 80
2, 17267, Note_on_c, 15, 53, 0
2, 17267, Note_on_c, 15, 57, 0
2, 17280, Note_on_c, 15, 53, 80
2, 17280, Note_on_c, 15, 57, 80
2, 17621, Note_on_c, 15, 53, 0
2, 17621, Note_on_c, 15, 57, 0
2, 17640, Note_on_c, 15, 53, 80
2, 17640, Note_on_c, 15, 60, 80
2, 17981, Note_on_c, 15, 53, 0
2, 17981, Note_on_c, 15, 60, 0
2, 18000, Note_on_c, 15, 53, 80
2, 18000, Note_on_c, 15, 57, 80
2, 18227, Note_on_c, 15, 53, 0
2, 18227, Note_on_c, 15, 57, 0
2, 18240, Note_on_c, 15, 50, 80
2, 18240, Note_on_c, 15, 60, 80
2, 18581, Note_on_c, 15, 50, 0
2, 18581, Note_on_c, 15, 60, 0
2, 18600, Note_on_c, 15, 50, 80
2, 18600, Note_on_c, 15, 59, 80
2, 18941, Note_on_c, 15, 50, 0
2, 18941, Note_on_c, 15, 59, 0
2, 18960, Note_on_c, 15, 50, 80
2, 18960, Note_on_c, 15, 55, 80
2, 19187, Note_on_c, 15, 50, 0
2, 19187, Note_on_c, 15, 55, 0
2, 19200, Note_on_c, 15, 52, 80
2, 19200, Note_on_c, 15, 57, 80
2, 19541, Note_on_c, 15, 52, 0
2, 19541, Note_on_c, 15, 57, 0
2, 19560, Note_on_c, 15, 52, 80
2, 19560, Note_on_c, 15, 60, 80
2, 19901, Note_on_c, 15, 52, 0
2, 19901, Note_on_c, 15, 60, 0
2, 19920, Note_on_c, 15, 52, 80
2, 19920, Note_on_c, 15, 57, 80
2, 20147, Note_on_c, 15, 52, 0
2, 20147, Note_on_c, 15, 57, 0
2, 20160, Note_on_c, 15, 53, 80
2, 20160, Note_on_c, 15, 57, 80
2, 20501, Note_on_c, 15, 53, 0
2, 20501, Note_on_c, 15, 57, 0
2, 20520, Note_on_c, 15, 53, 80
2, 20520, Note_on_c, 15, 60, 80
2, 20861, Note_on_c, 15, 53, 0
2, 20861, Note_on_c, 15, 60, 0
2, 20880, Note_on_c, 15, 53, 80
2, 20880, Note_on_c, 15, 57, 80
2, 21107, Note_on_c, 15, 53, 0
2, 21107, Note_on_c, 15, 57, 0
2, 21120, Note_on_c, 15, 53, 80
2, 21120, Note_on_c, 15, 57, 80
2, 21461, Note_on_c, 15, 53, 0
2, 21461, Note_on_c, 15, 57, 0
2, 21480, Note_on_c, 15, 53, 80
2, 21480, Note_on_c, 15, 60, 80
2, 21821, Note_on_c, 15, 53, 0
2, 21821, Note_on_c, 15, 60, 0
2, 21840, Note_on_c, 15, 53, 80
2, 21840, Note_on_c, 15, 57, 80
2, 22067, Note_on_c, 15, 53, 0
2, 22067, Note_on_c, 15, 57, 0
2, 22080, Note_on_c, 15, 50, 80
2, 22080, Note_on_c, 15, 59, 80
2, 22421, Note_on_c, 15, 50, 0
2, 22421, Note_on_c, 15, 59, 0
2, 22440, Note_on_c, 15, 50, 80
2, 22440, Note_on_c, 15, 57, 80
2, 22781, Note_on_c, 15, 50, 0
2, 22781, Note_on_c, 15, 57, 0
2, 22800, Note_on_c, 15, 50, 80
2, 22800, Note_on_c, 15, 55, 80
2, 23027, Note_on_c, 15, 50, 0
2, 23027, Note_on_c, 15, 55, 0
2, 23040, Note_on_c, 15, 52, 80
2, 23040, Note_on_c, 15, 57, 80
2, 23381, Note_on_c, 15, 52, 0
2, 23381, Note_on_c, 15, 57, 0
2, 23400, Note_on_c, 15, 52, 80
2, 23400, Note_on_c, 15, 60, 80
2, 23741, Note_on_c, 15, 52, 0
2, 23741, Note_on_c, 15, 60, 0
2, 23760, Note_on_c, 15, 52, 80
2, 23760, Note_on_c, 15, 57, 80
2, 23987, Note_on_c, 15, 52, 0
2, 23987, Note_on_c, 15, 57, 0
2, 24000, Note_on_c, 15, 53, 80
2, 24000, Note_on_c, 15, 57, 80
2, 24341, Note_on_c, 15, 53, 0
2, 24341, Note_on_c, 15, 57, 0
2, 24360, Note_on_c, 15, 53, 80
2, 24360, Note_on_c, 15, 60, 80
2, 24701, Note_on_c, 15, 53, 0
2, 24701, Note_on_c, 15, 60, 0
2, 24720, Note_on_c, 15, 53, 80
2, 24720, Note_on_c, 15, 57, 80
2, 24947, Note_on_c, 15, 53, 0
2, 24947, Note_on_c, 15, 57, 0
2, 24960, Note_on_c, 15, 53, 80
2, 24960, Note_on_c, 15, 57, 80
2, 25301, Note_on_c, 15, 53, 0
2, 25301, Note_on_c, 15, 57, 0
2, 25320, Note_on_c, 15, 53, 80
2, 25320, Note_on_c, 15, 60, 80
2, 25661, Note_on_c, 15, 53, 0
2, 25661, Note_on_c, 15, 60, 0
2, 25680, Note_on_c, 15, 53, 80
2, 25680, Note_on_c, 15, 57, 80
2, 25907, Note_on_c, 15, 53, 0
2, 25907, Note_on_c, 15, 57, 0
2, 25920, Note_on_c, 15, 50, 80
2, 25920, Note_on_c, 15, 60, 80
2, 26261, Note_on_c, 15, 50, 0
2, 26261, Note_on_c, 15, 60, 0
2, 26280, Note_on_c, 15, 50, 80
2, 26280, Note_on_c, 15, 59, 80
2, 26621, Note_on_c, 15, 50, 0
2, 26621, Note_on_c, 15, 59, 0
2, 26640, Note_on_c, 15, 50, 80
2, 26640, Note_on_c, 15, 55, 80
2, 26867, Note_on_c, 15, 50, 0
2, 26867, Note_on_c, 15, 55, 0
2, 26880, Note_on_c, 15, 52, 80
2, 26880, Note_on_c, 15, 57, 80
2, 27221, Note_on_c, 15, 52, 0
2, 27221, Note_on_c, 15, 57, 0
2, 27240, Note_on_c, 15, 52, 80
2, 27240, Note_on_c, 15, 60, 80
2, 27581, Note_on_c, 15, 52, 0
2, 27581, Note_on_c, 15, 60, 0
2, 27600, Note_on_c, 15, 52, 80
2, 27600, Note_on_c, 15, 57, 80
2, 27827, Note_on_c, 15, 52, 0
2, 27827, Note_on_c, 15, 57, 0
2, 27840, Note_on_c, 15, 53, 80
2, 27840, Note_on_c, 15, 57, 80
2, 28181, Note_on_c, 15, 53, 0
2, 28181, Note_on_c, 15, 57, 0
2, 28200, Note_on_c, 15, 53, 80
2, 28200, Note_on_c, 15, 60, 80
2, 28541, Note_on_c, 15, 53, 0
2, 28541, Note_on_c, 15, 60, 0
2, 28560, Note_on_c, 15, 53, 80
2, 28560, Note_on_c, 15, 57, 80
2, 28787, Note_on_c, 15, 53, 0
2, 28787, Note_on_c, 15, 57, 0
2, 28800, Note_on_c, 15, 53, 80
2, 28800, Note_on_c, 15, 57, 80
2, 29141, Note_on_c, 15, 53, 0
2, 29141, Note_on_c, 15, 57, 0
2, 29160, Note_on_c, 15, 53, 80
2, 29160, Note_on_c, 15, 60, 80
2, 29501, Note_on_c, 15, 53, 0
2, 29501, Note_on_c, 15, 60, 0
2, 29520, Note_on_c, 15, 53, 80
2, 29520, Note_on_c, 15, 57, 80
2, 29747, Note_on_c, 15, 53, 0
2, 29747, Note_on_c, 15, 57, 0
2, 29760, Note_on_c, 15, 50, 80
2, 29760, Note_on_c, 15, 59, 80
2, 30101, Note_on_c, 15, 50, 0
2, 30101, Note_on_c, 15, 59, 0
2, 30120, Note_on_c, 15, 50, 80
2, 30120, Note_on_c, 15, 57, 80
2, 30461, Note_on_c, 15, 50, 0
2, 30461, Note_on_c, 15, 57, 0
2, 30480, Note_on_c, 15, 50, 80
2, 30480, Note_on_c, 15, 55, 80
2, 30707, Note_on_c, 15, 50, 0
2, 30707, Note_on_c, 15, 55, 0
2, 30720, Note_on_c, 15, 52, 80
2, 30720, Note_on_c, 15, 57, 80
2, 31061, Note_on_c, 15, 52, 0
2, 31061, Note_on_c, 15, 57, 0
2, 31080, Note_on_c, 15, 52, 80
2, 31080, Note_on_c, 15, 60, 80
2, 31421, Note_on_c, 15, 52, 0
2, 31421, Note_on_c, 15, 60, 0
2, 31440, Note_on_c, 15, 52, 80
2, 31440, Note_on_c, 15, 57, 80
2, 31667, Note_on_c, 15, 52, 0
2, 31667, Note_on_c, 15, 57, 0
2, 31680, Note_on_c, 15, 53, 80
2, 31680, Note_on_c, 15, 57, 80
2, 32021, Note_on_c, 15, 53, 0
2, 32021, Note_on_c, 15, 57, 0
2, 32040, Note_on_c, 15, 53, 80
2, 32040, Note_on_c, 15, 60, 80
2, 32381, Note_on_c, 15, 53, 0
2, 32381, Note_on_c, 15, 60, 0
2, 32400, Note_on_c, 15, 53, 80
2, 32400, Note_on_c, 15, 57, 80
2, 32627, Note_on_c, 15, 53, 0
2, 32627, Note_on_c, 15, 57, 0
2, 32640, Note_on_c, 15, 53, 80
2, 32640, Note_on_c, 15, 57, 80
2, 32981, Note_on_c, 15, 53, 0
2, 32981, Note_on_c, 15, 57, 0
2, 33000, Note_on_c, 15, 53, 80
2, 33000, Note_on_c, 15, 60, 80
2, 33341, Note_on_c, 15, 53, 0
2, 33341, Note_on_c, 15, 60, 0
2, 33360, Note_on_c, 15, 53, 80
2, 33360, Note_on_c, 15, 57, 80
2, 33587, Note_on_c, 15, 53, 0
2, 33587, Note_on_c, 15, 57, 0
2, 33600, Note_on_c, 15, 50, 80
2, 33600, Note_on_c, 15, 60, 80
2, 33941, Note_on_c, 15, 50, 0
2, 33941, Note_on_c, 15, 60, 0
2, 33960, Note_on_c, 15, 50, 80
2, 33960, Note_on_c, 15, 59, 80
2, 34301, Note_on_c, 15, 50, 0
2, 34301, Note_on_c, 15, 59, 0
2, 34320, Note_on_c, 15, 50, 80
2, 34320, Note_on_c, 15, 55, 80
2, 34547, Note_on_c, 15, 50, 0
2, 34547, Note_on_c, 15, 55, 0
2, 34560, Note_on_c, 15, 52, 80
2, 34560, Note_on_c, 15, 57, 80
2, 34901, Note_on_c, 15, 52, 0
2, 34901, Note_on_c, 15, 57, 0
2, 34920, Note_on_c, 15, 52, 80
2, 34920, Note_on_c, 15, 60, 80
2, 35261, Note_on_c, 15, 52, 0
2, 35261, Note_on_c, 15, 60, 0
2, 35280, Note_on_c, 15, 52, 80
2, 35280, Note_on_c, 15, 57, 80
2, 35507, Note_on_c, 15, 52, 0
2, 35507, Note_on_c, 15, 57, 0
2, 35520, Note_on_c, 15, 53, 80
2, 35520, Note_on_c, 15, 57, 80
2, 35861, Note_on_c, 15, 53, 0
2, 35861, Note_on_c, 15, 57, 0
2, 35880, Note_on_c, 15, 53, 80
2, 35880, Note_on_c, 15, 60, 80
2, 36221, Note_on_c, 15, 53, 0
2, 36221, Note_on_c, 15, 60, 0
2, 36240, Note_on_c, 15, 53, 80
2, 36240, Note_on_c, 15, 57, 80
2, 36467, Note_on_c, 15, 53, 0
2, 36467, Note_on_c, 15, 57, 0
2, 36480, Note_on_c, 15, 53, 80
2, 36480, Note_on_c, 15, 57, 80
2, 36719, Note_on_c, 15, 53, 0
2, 36719, Note_on_c, 15, 57, 0
2, 38400, Note_on_c, 15, 52, 80
2, 38400, Note_on_c, 15, 57, 80
2, 38741, Note_on_c, 15, 52, 0
2, 38741, Note_on_c, 15, 57, 0
2, 38760, Note_on_c, 15, 52, 80
2, 38760, Note_on_c, 15, 60, 80
2, 39101, Note_on_c, 15, 52, 0
2, 39101, Note_on_c, 15, 60, 0
2, 39120, Note_on_c, 15, 52, 80
2, 39120, Note_on_c, 15, 57, 80
2, 39347, Note_on_c, 15, 52, 0
2, 39347, Note_on_c, 15, 57, 0
2, 39360, Note_on_c, 15, 53, 80
2, 39360, Note_on_c, 15, 57, 80
2, 39701, Note_on_c, 15, 53, 0
2, 39701, Note_on_c, 15, 57, 0
2, 39720, Note_on_c, 15, 53, 80
2, 39720, Note_on_c, 15, 60, 80
2, 40061, Note_on_c, 15, 53, 0
2, 40061, Note_on_c, 15, 60, 0
2, 40080, Note_on_c, 15, 53, 80
2, 40080, Note_on_c, 15, 57, 80
2, 40307, Note_on_c, 15, 53, 0
2, 40307, Note_on_c, 15, 57, 0
2, 40320, Note_on_c, 15, 53, 80
2, 40320, Note_on_c, 15, 57, 80
2, 40661, Note_on_c, 15, 53, 0
2, 40661, Note_on_c, 15, 57, 0
2, 40680, Note_on_c, 15, 53, 80
2, 40680, Note_on_c, 15, 60, 80
2, 41021, Note_on_c, 15, 53, 0
2, 41021, Note_on_c, 15, 60, 0
2, 41040, Note_on_c, 15, 53, 80
2, 41040, Note_on_c, 15, 57, 80
2, 41267, Note_on_c, 15, 53, 0
2, 41267, Note_on_c, 15, 57, 0
2, 41280, Note_on_c, 15, 50, 80
2, 41280, Note_on_c, 15, 60, 80
2, 41621, Note_on_c, 15, 50, 0
2, 41621, Note_on_c, 15, 60, 0
2, 41640, Note_on_c, 15, 50, 80
2, 41640, Note_on_c, 15, 59, 80
2, 41981, Note_on_c, 15, 50, 0
2, 41981, Note_on_c, 15, 59, 0
2, 42000, Note_on_c, 15, 50, 80
2, 42000, Note_on_c, 15, 55, 80
2, 42227, Note_on_c, 15, 50, 0
2, 42227, Note_on_c, 15, 55, 0
2, 42240, Note_on_c, 15, 52, 80
2, 42240, Note_on_c, 15, 57, 80
2, 42581, Note_on_c, 15, 52, 0
2, 42581, Note_on_c, 15, 57, 0
2, 42600, Note_on_c, 15, 52, 80
2, 42600, Note_on_c, 15, 60, 80
2, 42941, Note_on_c, 15, 52, 0
2, 42941, Note_on_c, 15, 60, 0
2, 42960, Note_on_c, 15, 52, 80
2, 42960, Note_on_c, 15, 57, 80
2, 43187, Note_on_c, 15, 52, 0
2, 43187, Note_on_c, 15, 57, 0
2, 43200, Note_on_c, 15, 53, 80
2, 43200, Note_on_c, 15, 57, 80
2, 43541, Note_on_c, 15, 53, 0
2, 43541, Note_on_c, 15, 57, 0
2, 43560, Note_on_c, 15, 53, 80
2, 43560, Note_on_c, 15, 60, 80
2, 43901, Note_on_c, 15, 53, 0
2, 43901, Note_on_c, 15, 60, 0
2, 43920, Note_on_c, 15, 53, 80
2, 43920, Note_on_c, 15, 57, 80
2, 44147, Note_on_c, 15, 53, 0
2, 44147, Note_on_c, 15, 57, 0
2, 44160, Note_on_c, 15, 53, 80
2, 44160, Note_on_c, 15, 57, 80
2, 44501, Note_on_c, 15, 53, 0
2, 44501, Note_on_c, 15, 57, 0
2, 44520, Note_on_c, 15, 53, 80
2, 44520, Note_on_c, 15, 60, 80
2, 44861, Note_on_c, 15, 53, 0
2, 44861, Note_on_c, 15, 60, 0
2, 44880, Note_on_c, 15, 53, 80
2, 44880, Note_on_c, 15, 57, 80
2, 45107, Note_on_c, 15, 53, 0
2, 45107, Note_on_c, 15, 57, 0
2, 45120, Note_on_c, 15, 50, 80
2, 45120, Note_on_c, 15, 59, 80
2, 45461, Note_on_c, 15, 50, 0
2, 45461, Note_on_c, 15, 59, 0
2, 45480, Note_on_c, 15, 50, 80
2, 45480, Note_on_c, 15, 57, 80
2, 45821, Note_on_c, 15, 50, 0
2, 45821, Note_on_c, 15, 57, 0
2, 45840, Note_on_c, 15, 50, 80
2, 45840, Note_on_c, 15, 55, 80
2, 46067, Note_on_c, 15, 50, 0
2, 46067, Note_on_c, 15, 55, 0
2, 46080, Note_on_c, 15, 52, 80
2, 46080, Note_on_c, 15, 57, 80
2, 46421, Note_on_c, 15, 52, 0
2, 46421, Note_on_c, 15, 57, 0
2, 46440, Note_on_c, 15, 52, 80
2, 46440, Note_on_c, 15, 60, 80
2, 46781, Note_on_c, 15, 52, 0
2, 46781, Note_on_c, 15, 60, 0
2, 46800, Note_on_c, 15, 52, 80
2, 46800, Note_on_c, 15, 57, 80
2, 47027, Note_on_c, 15, 52, 0
2, 47027, Note_on_c, 15, 57, 0
2, 47040, Note_on_c, 15, 53, 80
2, 47040, Note_on_c, 15, 57, 80
2, 47381, Note_on_c, 15, 53, 0
2, 47381, Note_on_c, 15, 57, 0
2, 47400, Note_on_c, 15, 53, 80
2, 47400, Note_on_c, 15, 60, 80
2, 47741, Note_on_c, 15, 53, 0
2, 47741, Note_on_c, 15, 60, 0
2, 47760, Note_on_c, 15, 53, 80
2, 47760, Note_on_c, 15, 57, 80
2, 47987, Note_on_c, 15, 53, 0
2, 47987, Note_on_c, 15, 57, 0
2, 48000, Note_on_c, 15, 53, 80
2, 48000, Note_on_c, 15, 57, 80
2, 48341, Note_on_c, 15, 53, 0
2, 48341, Note_on_c, 15, 57, 0
2, 48360, Note_on_c, 15, 53, 80
2, 48360, Note_on_c, 15, 60, 80
2, 48701, Note_on_c, 15, 53, 0
2, 48701, Note_on_c, 15, 60, 0
2, 48720, Note_on_c, 15, 53, 80
2, 48720, Note_on_c, 15, 57, 80
2, 48947, Note_on_c, 15, 53, 0
2, 48947, Note_on_c, 15, 57, 0
2, 48960, Note_on_c, 15, 50, 80
2, 48960, Note_on_c, 15, 60, 80
2, 49301, Note_on_c, 15, 50, 0
2, 49301, Note_on_c, 15, 60, 0
2, 49320, Note_on_c, 15, 50, 80
2, 49320, Note_on_c, 15, 59, 80
2, 49661, Note_on_c, 15, 50, 0
2, 49661, Note_on_c, 15, 59, 0
2, 49680, Note_on_c, 15, 50, 80
2, 49680, Note_on_c, 15, 55, 80
2, 49907, Note_on_c, 15, 50, 0
2, 49907, Note_on_c, 15, 55, 0
2, 49920, Note_on_c, 15, 52, 80
2, 49920, Note_on_c, 15, 57, 80
2, 50261, Note_on_c, 15, 52, 0
2, 50261, Note_on_c, 15, 57, 0
2, 50280, Note_on_c, 15, 52, 80
2, 50280, Note_on_c, 15, 60, 80
2, 50621, Note_on_c, 15, 52, 0
2, 50621, Note_on_c, 15, 60, 0
2, 50640, Note_on_c, 15, 52, 80
2, 50640, Note_on_c, 15, 57, 80
2, 50867, Note_on_c, 15, 52, 0
2, 50867, Note_on_c, 15, 57, 0
2, 50880, Note_on_c, 15, 53, 80
2, 50880, Note_on_c, 15, 57, 80
2, 51221, Note_on_c, 15, 53, 0
2, 51221, Note_on_c, 15, 57, 0
2, 51240, Note_on_c, 15, 53, 80
2, 51240, Note_on_c, 15, 60, 80
2, 51581, Note_on_c, 15, 53, 0
2, 51581, Note_on_c, 15, 60, 0
2, 51600, Note_on_c, 15, 53, 80
2, 51600, Note_on_c, 15, 57, 80
2, 51827, Note_on_c, 15, 53, 0
2, 51827, Note_on_c, 15, 57, 0
2, 51840, Note_on_c, 15, 53, 80
2, 51840, Note_on_c, 15, 57, 80
2, 52181, Note_on_c, 15, 53, 0
2, 52181, Note_on_c, 15, 57, 0
2, 52200, Note_on_c, 15, 53, 80
2, 52200, Note_on_c, 15, 60, 80
2, 52541, Note_on_c, 15, 53, 0
2, 52541, Note_on_c, 15, 60, 0
2, 52560, Note_on_c, 15, 53, 80
2, 52560, Note_on_c, 15, 57, 80
2, 52787, Note_on_c, 15, 53, 0
2, 52787, Note_on_c, 15, 57, 0
2, 52800, Note_on_c, 15, 50, 80
2, 52800, Note_on_c, 15, 59, 80
2, 53141, Note_on_c, 15, 50, 0
2, 53141, Note_on_c, 15, 59, 0
2, 53160, Note_on_c, 15, 50, 80
2, 53160, Note_on_c, 15, 57, 80
2, 53501, Note_on_c, 15, 50, 0
2, 53501, Note_on_c, 15, 57, 0
2, 53520, Note_on_c, 15, 50, 80
2, 53520, Note_on_c, 15, 55, 80
2, 53747, Note_on_c, 15, 50, 0
2, 53747, Note_on_c, 15, 55, 0
2, 53760, Note_on_c, 15, 52, 80
2, 53987, Note_on_c, 15, 52, 0
2, 54000, Note_on_c, 15, 52, 80
2, 54227, Note_on_c, 15, 52, 0
2, 54240, Note_on_c, 15, 55, 80
2, 54467, Note_on_c, 15, 55, 0
2, 54480, Note_on_c, 15, 55, 80
2, 54707, Note_on_c, 15, 55, 0
2, 54720, Note_on_c, 15, 50, 80
2, 54720, Note_on_c, 15, 53, 80
2, 54947, Note_on_c, 15, 50, 0
2, 54947, Note_on_c, 15, 53, 0
2, 54960, Note_on_c, 15, 50, 80
2, 54960, Note_on_c, 15, 53, 80
2, 55187, Note_on_c, 15, 50, 0
2, 55187, Note_on_c, 15, 53, 0
2, 55200, Note_on_c, 15, 52, 80
2, 55200, Note_on_c, 15, 55, 80
2, 55427, Note_on_c, 15, 52, 0
2, 55427, Note_on_c, 15, 55, 0
2, 55440, Note_on_c, 15, 52, 80
2, 55440, Note_on_c, 15, 55, 80
2, 55667, Note_on_c, 15, 52, 0
2, 55667, Note_on_c, 15, 55, 0
2, 55680, Note_on_c, 15, 53, 80
2, 55680, Note_on_c, 15, 57, 80
2, 56021, Note_on_c, 15, 53, 0
2, 56021, Note_on_c, 15, 57, 0
2, 56040, Note_on_c, 15, 53, 80
2, 56040, Note_on_c, 15, 60, 80
2, 56381, Note_on_c, 15, 53, 0
2, 56381, Note_on_c, 15, 60, 0
2, 56400, Note_on_c, 15, 53, 80
2, 56400, Note_on_c, 15, 57, 80
2, 56627, Note_on_c, 15, 53, 0
2, 56627, Note_on_c, 15, 57, 0
2, 56640, Note_on_c, 15, 50, 80
2, 56640, Note_on_c, 15, 60, 80
2, 56981, Note_on_c, 15, 50, 0
2, 56981, Note_on_c, 15, 60, 0
2, 57000, Note_on_c, 15, 50, 80
2, 57000, Note_on_c, 15, 59, 80
2, 57341, Note_on_c, 15, 50, 0
2, 57341, Note_on_c, 15, 59, 0
2, 57360, Note_on_c, 15, 50, 80
2, 57360, Note_on_c, 15, 55, 80
2, 57587, Note_on_c, 15, 50, 0
2, 57587, Note_on_c, 15, 55, 0
2, 57600, Note_on_c, 15, 52, 80
2, 57827, Note_on_c, 15, 52, 0
2, 57840, Note_on_c, 15, 52, 80
2, 58067, Note_on_c, 15, 52, 0
2, 58080, Note_on_c, 15, 55, 80
2, 58307, Note_on_c, 15, 55, 0
2, 58320, Note_on_c, 15, 55, 80
2, 58547, Note_on_c, 15, 55, 0
2, 58560, Note_on_c, 15, 50, 80
2, 58560, Note_on_c, 15, 53, 80
2, 58787, Note_on_c, 15, 50, 0
2, 58787, Note_on_c, 15, 53, 0
2, 58800, Note_on_c, 15, 50, 80
2, 58800, Note_on_c, 15, 53, 80
2, 59027, Note_on_c, 15, 50, 0
2, 59027, Note_on_c, 15, 53, 0
2, 59040, Note_on_c, 15, 52, 80
2, 59040, Note_on_c, 15, 55, 80
2, 59267, Note_on_c, 15, 52, 0
2, 59267, Note_on_c, 15, 55, 0
2, 59280, Note_on_c, 15, 52, 80
2, 59280, Note_on_c, 15, 55, 80
2, 59507, Note_on_c, 15, 52, 0
2, 59507, Note_on_c, 15, 55, 0
2, 59520, Note_on_c, 15, 53, 80
2, 59520, Note_on_c, 15, 57, 80
2, 59861, Note_on_c, 15, 53, 0
2, 59861, Note_on_c, 15, 57, 0
2, 59880, Note_on_c, 15, 53, 80
2, 59880, Note_on_c, 15, 60, 80
2, 60221, Note_on_c, 15, 53, 0
2, 60221, Note_on_c, 15, 60, 0
2, 60240, Note_on_c, 15, 53, 80
2, 60240, Note_on_c, 15, 57, 80
2, 60467, Note_on_c, 15, 53, 0
2, 60467, Note_on_c, 15, 57, 0
2, 60480, Note_on_c, 15, 50, 80
2, 60480, Note_on_c, 15, 60, 80
2, 60821, Note_on_c, 15, 50, 0
2, 60821, Note_on_c, 15, 60, 0
2, 60840, Note_on_c, 15, 50, 80
2, 60840, Note_on_c, 15, 59, 80
2, 61181, Note_on_c, 15, 50, 0
2, 61181, Note_on_c, 15, 59, 0
2, 61200, Note_on_c, 15, 50, 80
2, 61200, Note_on_c, 15, 55, 80
2, 61427, Note_on_c, 15, 50, 0
2, 61427, Note_on_c, 15, 55, 0
2, 61440, Note_on_c, 15, 52, 80
2, 61667, Note_on_c, 15, 52, 0
2, 61680, Note_on_c, 15, 52, 80
2, 61907, Note_on_c, 15, 52, 0
2, 61920, Note_on_c, 15, 55, 80
2, 62147, Note_on_c, 15, 55, 0
2, 62160, Note_on_c, 15, 55, 80
2, 62387, Note_on_c, 15, 55, 0
2, 62400, Note_on_c, 15, 50, 80
2, 62400, Note_on_c, 15, 53, 80
2, 62627, Note_on_c, 15, 50, 0
2, 62627, Note_on_c, 15, 53, 0
2, 62640, Note_on_c, 15, 50, 80
2, 62640, Note_on_c, 15, 53, 80
2, 62867, Note_on_c, 15, 50, 0
2, 62867, Note_on_c, 15, 53, 0
2, 62880, Note_on_c, 15, 52, 80
2, 62880, Note_on_c, 15, 55, 80
2, 63107, Note_on_c, 15, 52, 0
2, 63107, Note_on_c, 15, 55, 0
2, 63120, Note_on_c, 15, 52, 80
2, 63120, Note_on_c, 15, 55, 80
2, 63347, Note_on_c, 15, 52, 0
2, 63347, Note_on_c, 15, 55, 0
2, 63360, Note_on_c, 15, 53, 80
2, 63360, Note_on_c, 15, 57, 80
2, 63701, Note_on_c, 15, 53, 0
2, 63701, Note_on_c, 15, 57, 0
2, 63720, Note_on_c, 15, 53, 80
2, 63720, Note_on_c, 15, 60, 80
2, 64061, Note_on_c, 15, 53, 0
2, 64061, Note_on_c, 15, 60, 0
2, 64080, Note_on_c, 15, 53, 80
2, 64080, Note_on_c, 15, 57, 80
2, 64307, Note_on_c, 15, 53, 0
2, 64307, Note_on_c, 15, 57, 0
2, 64320, Note_on_c, 15, 50, 80
2, 64320, Note_on_c, 15, 60, 80
2, 64661, Note_on_c, 15, 50, 0
2, 64661, Note_on_c, 15, 60, 0
2, 64680, Note_on_c, 15, 50, 80
2, 64680, Note_on_c, 15, 59, 80
2, 65021, Note_on_c, 15, 50, 0
2, 65021, Note_on_c, 15, 59, 0
2, 65040, Note_on_c, 15, 50, 80
2, 65040, Note_on_c, 15, 55, 80
2, 65267, Note_on_c, 15, 50, 0
2, 65267, Note_on_c, 15, 55, 0
2, 65280, Note_on_c, 15, 52, 80
2, 65280, Note_on_c, 15, 57, 80
2, 65621, Note_on_c, 15, 52, 0
2, 65621, Note_on_c, 15, 57, 0
2, 65640, Note_on_c, 15, 52, 80
2, 65640, Note_on_c, 15, 60, 80
2, 65981, Note_on_c, 15, 52, 0
2, 65981, Note_on_c, 15, 60, 0
2, 66000, Note_on_c, 15, 52, 80
2, 66000, Note_on_c, 15, 57, 80
2, 66227, Note_on_c, 15, 52, 0
2, 66227, Note_on_c, 15, 57, 0
2, 66240, Note_on_c, 15, 53, 80
2, 66240, Note_on_c, 15, 57, 80
2, 66581, Note_on_c, 15, 53, 0
2, 66581, Note_on_c, 15, 57, 0
2, 66600, Note_on_c, 15, 53, 80
2, 66600, Note_on_c, 15, 60, 80
2, 66941, Note_on_c, 15, 53, 0
2, 66941, Note_on_c, 15, 60, 0
2, 66960, Note_on_c, 15, 53, 80
2, 66960, Note_on_c, 15, 57, 80
2, 67187, Note_on_c, 15, 53, 0
2, 67187, Note_on_c, 15, 57, 0
2, 67200, Note_on_c, 15, 53, 80
2, 67200, Note_on_c, 15, 57, 80
2, 67541, Note_on_c, 15, 53, 0
2, 67541, Note_on_c, 15, 57, 0
2, 67560, Note_on_c, 15, 53, 80
2, 67560, Note_on_c, 15, 60, 80
2, 67901, Note_on_c, 15, 53, 0
2, 67901, Note_on_c, 15, 60, 0
2, 67920, Note_on_c, 15, 53, 80
2, 67920, Note_on_c, 15, 57, 80
2, 68147, Note_on_c, 15, 53, 0
2, 68147, Note_on_c, 15, 57, 0
2, 68160, Note_on_c, 15, 50, 80
2, 68160, Note_on_c, 15, 59, 80
2, 68501, Note_on_c, 15, 50, 0
2, 68501, Note_on_c, 15, 59, 0
2, 68520, Note_on_c, 15, 50, 80
2, 68520, Note_on_c, 15, 57, 80
2, 68861, Note_on_c, 15, 50, 0
2, 68861, Note_on_c, 15, 57, 0
2, 68880, Note_on_c, 15, 50, 80
2, 68880, Note_on_c, 15, 55, 80
2, 69107, Note_on_c, 15, 50, 0
2, 69107, Note_on_c, 15, 55, 0
2, 69120, Note_on_c, 15, 52, 80
2, 69120, Note_on_c, 15, 57, 80
2, 69461, Note_on_c, 15, 52, 0
2, 69461, Note_on_c, 15, 57, 0
2, 69480, Note_on_c, 15, 52, 80
2, 69821, Note_on_c, 15, 52, 0
2, 69840, Note_on_c, 15, 52, 80
2, 69840, Note_on_c, 15, 57, 80
2, 70067, Note_on_c, 15, 52, 0
2, 70067, Note_on_c, 15, 57, 0
2, 70080, Note_on_c, 15, 53, 80
2, 70080, Note_on_c, 15, 57, 80
2, 70421, Note_on_c, 15, 53, 0
2, 70421, Note_on_c, 15, 57, 0
2, 70440, Note_on_c, 15, 53, 80
2, 70781, Note_on_c, 15, 53, 0
2, 70800, Note_on_c, 15, 53, 80
2, 70800, Note_on_c, 15, 57, 80
2, 71027, Note_on_c, 15, 53, 0
2, 71027, Note_on_c, 15, 57, 0
2, 71040, Note_on_c, 15, 53, 80
2, 71040, Note_on_c, 15, 57, 80
2, 71381, Note_on_c, 15, 53, 0
2, 71381, Note_on_c, 15, 57, 0
2, 71400, Note_on_c, 15, 53, 80
2, 71400, Note_on_c, 15, 60, 80
2, 71741, Note_on_c, 15, 53, 0
2, 71741, Note_on_c, 15, 60, 0
2, 71760, Note_on_c, 15, 53, 80
2, 71760, Note_on_c, 15, 57, 80
2, 71987, Note_on_c, 15, 53, 0
2, 71987, Note_on_c, 15, 57, 0
2, 72000, Note_on_c, 15, 50, 80
2, 72000, Note_on_c, 15, 60, 80
2, 72341, Note_on_c, 15, 50, 0
2, 72341, Note_on_c, 15, 60, 0
2, 72360, Note_on_c, 15, 50, 80
2, 72360, Note_on_c, 15, 59, 80
2, 72701, Note_on_c, 15, 50, 0
2, 72701, Note_on_c, 15, 59, 0
2, 72720, Note_on_c, 15, 50, 80
2, 72720, Note_on_c, 15, 55, 80
2, 72947, Note_on_c, 15, 50, 0
2, 72947, Note_on_c, 15, 55, 0
2, 72960, Note_on_c, 15, 52, 80
2, 72960, Note_on_c, 15, 57, 80
2, 73301, Note_on_c, 15, 52, 0
2, 73301, Note_on_c, 15, 57, 0
2, 73320, Note_on_c, 15, 52, 80
2, 73320, Note_on_c, 15, 60, 80
2, 73661, Note_on_c, 15, 52, 0
2, 73661, Note_on_c, 15, 60, 0
2, 73680, Note_on_c, 15, 52, 80
2, 73680, Note_on_c, 15, 57, 80
2, 73907, Note_on_c, 15, 52, 0
2, 73907, Note_on_c, 15, 57, 0
2, 73920, Note_on_c, 15, 53, 80
2, 73920, Note_on_c, 15, 57, 80
2, 74261, Note_on_c, 15, 53, 0
2, 74261, Note_on_c, 15, 57, 0
2, 74280, Note_on_c, 15, 53, 80
2, 74280, Note_on_c, 15, 60, 80
2, 74621, Note_on_c, 15, 53, 0
2, 74621, Note_on_c, 15, 60, 0
2, 74640, Note_on_c, 15, 53, 80
2, 74640, Note_on_c, 15, 57, 80
2, 74867, Note_on_c, 15, 53, 0
2, 74867, Note_on_c, 15, 57, 0
2, 74880, Note_on_c, 15, 53, 80
2, 74880, Note_on_c, 15, 57, 80
2, 75221, Note_on_c, 15, 53, 0
2, 75221, Note_on_c, 15, 57, 0
2, 75240, Note_on_c, 15, 53, 80
2, 75240, Note_on_c, 15, 60, 80
2, 75581, Note_on_c, 15, 53, 0
2, 75581, Note_on_c, 15, 60, 0
2, 75600, Note_on_c, 15, 53, 80
2, 75600, Note_on_c, 15, 57, 80
2, 75827, Note_on_c, 15, 53, 0
2, 75827, Note_on_c, 15, 57, 0
2, 75840, Note_on_c, 15, 50, 80
2, 75840, Note_on_c, 15, 59, 80
2, 76181, Note_on_c, 15, 50, 0
2, 76181, Note_on_c, 15, 59, 0
2, 76200, Note_on_c, 15, 50, 80
2, 76200, Note_on_c, 15, 57, 80
2, 76541, Note_on_c, 15, 50, 0
2, 76541, Note_on_c, 15, 57, 0
2, 76560, Note_on_c, 15, 50, 80
2, 76560, Note_on_c, 15, 55, 80
2, 76787, Note_on_c, 15, 50, 0
2, 76787, Note_on_c, 15, 55, 0
2, 76800, Note_on_c, 15, 52, 80
2, 76800, Note_on_c, 15, 57, 80
2, 77141, Note_on_c, 15, 52, 0
2, 77141, Note_on_c, 15, 57, 0
2, 77160, Note_on_c, 15, 52, 80
2, 77160, Note_on_c, 15, 60, 80
2, 77501, Note_on_c, 15, 52, 0
2, 77501, Note_on_c, 15, 60, 0
2, 77520, Note_on_c, 15, 52, 80
2, 77520, Note_on_c, 15, 57, 80
2, 77747, Note_on_c, 15, 52, 0
2, 77747, Note_on_c, 15, 57, 0
2, 77760, Note_on_c, 15, 53, 80
2, 77760, Note_on_c, 15, 57, 80
2, 78101, Note_on_c, 15, 53, 0
2, 78101, Note_on_c, 15, 57, 0
2, 78120, Note_on_c, 15, 53, 80
2, 78120, Note_on_c, 15, 60, 80
2, 78461, Note_on_c, 15, 53, 0
2, 78461, Note_on_c, 15, 60, 0
2, 78480, Note_on_c, 15, 53, 80
2, 78480, Note_on_c, 15, 57, 80
2, 78707, Note_on_c, 15, 53, 0
2, 78707, Note_on_c, 15, 57, 0
2, 78720, Note_on_c, 15, 53, 80
2, 78720, Note_on_c, 15, 57, 80
2, 79061, Note_on_c, 15, 53, 0
2, 79061, Note_on_c, 15, 57, 0
2, 79080, Note_on_c, 15, 53, 80
2, 79080, Note_on_c, 15, 60, 80
2, 79421, Note_on_c, 15, 53, 0
2, 79421, Note_on_c, 15, 60, 0
2, 79440, Note_on_c, 15, 53, 80
2, 79440, Note_on_c, 15, 57, 80
2, 79667, Note_on_c, 15, 53, 0
2, 79667, Note_on_c, 15, 57, 0
2, 79680, Note_on_c, 15, 50, 80
2, 79680, Note_on_c, 15, 60, 80
2, 80021, Note_on_c, 15, 50, 0
2, 80021, Note_on_c, 15, 60, 0
2, 80040, Note_on_c, 15, 50, 80
2, 80040, Note_on_c, 15, 59, 80
2, 80381, Note_on_c, 15, 50, 0
2, 80381, Note_on_c, 15, 59, 0
2, 80400, Note_on_c, 15, 50, 80
2, 80400, Note_on_c, 15, 55, 80
2, 80627, Note_on_c, 15, 50, 0
2, 80627, Note_on_c, 15, 55, 0
2, 80640, Note_on_c, 15, 52, 80
2, 80640, Note_on_c, 15, 57, 80
2, 80981, Note_on_c, 15, 52, 0
2, 80981, Note_on_c, 15, 57, 0
2, 81000, Note_on_c, 15, 52, 80
2, 81000, Note_on_c, 15, 60, 80
2, 81341, Note_on_c, 15, 52, 0
2, 81341, Note_on_c, 15, 60, 0
2, 81360, Note_on_c, 15, 52, 80
2, 81360, Note_on_c, 15, 57, 80
2, 81587, Note_on_c, 15, 52, 0
2, 81587, Note_on_c, 15, 57, 0
2, 81600, Note_on_c, 15, 53, 80
2, 81600, Note_on_c, 15, 57, 80
2, 81941, Note_on_c, 15, 53, 0
2, 81941, Note_on_c, 15, 57, 0
2, 81960, Note_on_c, 15, 53, 80
2, 81960, Note_on_c, 15, 60, 80
2, 82301, Note_on_c, 15, 53, 0
2, 82301, Note_on_c, 15, 60, 0
2, 82320, Note_on_c, 15, 53, 80
2, 82320, Note_on_c, 15, 57, 80
2, 82547, Note_on_c, 15, 53, 0
2, 82547, Note_on_c, 15, 57, 0
2, 82560, Note_on_c, 15, 53, 80
2, 82560, Note_on_c, 15, 57, 80
2, 82901, Note_on_c, 15, 53, 0
2, 82901, Note_on_c, 15, 57, 0
2, 82920, Note_on_c, 15, 53, 80
2, 82920, Note_on_c, 15, 60, 80
2, 83261, Note_on_c, 15, 53, 0
2, 83261, Note_on_c, 15, 60, 0
2, 83280, Note_on_c, 15, 53, 80
2, 83280, Note_on_c, 15, 57, 80
2, 83507, Note_on_c, 15, 53, 0
2, 83507, Note_on_c, 15, 57, 0
2, 83520, Note_on_c, 15, 50, 80
2, 83520, Note_on_c, 15, 59, 80
2, 83861, Note_on_c, 15, 50, 0
2, 83861, Note_on_c, 15, 59, 0
2, 83880, Note_on_c, 15, 50, 80
2, 83880, Note_on_c, 15, 57, 80
2, 84221, Note_on_c, 15, 50, 0
2, 84221, Note_on_c, 15, 57, 0
2, 84240, Note_on_c, 15, 50, 80
2, 84240, Note_on_c, 15, 55, 80
2, 84467, Note_on_c, 15, 50, 0
2, 84467, Note_on_c, 15, 55, 0
2, 84480, Note_on_c, 15, 52, 80
2, 84480, Note_on_c, 15, 57, 80
2, 84821, Note_on_c, 15, 52, 0
2, 84821, Note_on_c, 15, 57, 0
2, 84840, Note_on_c, 15, 52, 80
2, 84840, Note_on_c, 15, 60, 80
2, 85181, Note_on_c, 15, 52, 0
2, 85181, Note_on_c, 15, 60, 0
2, 85200, Note_on_c, 15, 52, 80
2, 85200, Note_on_c, 15, 57, 80
2, 85427, Note_on_c, 15, 52, 0
2, 85427, Note_on_c, 15, 57, 0
2, 85440, Note_on_c, 15, 53, 80
2, 85440, Note_on_c, 15, 57, 80
2, 85781, Note_on_c, 15, 53, 0
2, 85781, Note_on_c, 15, 57, 0
2, 85800, Note_on_c, 15, 53, 80
2, 85800, Note_on_c, 15, 60, 80
2, 86141, Note_on_c, 15, 53, 0
2, 86141, Note_on_c, 15, 60, 0
2, 86160, Note_on_c, 15, 53, 80
2, 86160, Note_on_c, 15, 57, 80
2, 86387, Note_on_c, 15, 53, 0
2, 86387, Note_on_c, 15, 57, 0
2, 86400, Note_on_c, 15, 53, 80
2, 86400, Note_on_c, 15, 57, 80
2, 86741, Note_on_c, 15, 53, 0
2, 86741, Note_on_c, 15, 57, 0
2, 86760, Note_on_c, 15, 53, 80
2, 86760, Note_on_c, 15, 60, 80
2, 87101, Note_on_c, 15, 53, 0
2, 87101, Note_on_c, 15, 60, 0
2, 87120, Note_on_c, 15, 53, 80
2, 87120, Note_on_c, 15, 57, 80
2, 87347, Note_on_c, 15, 53, 0
2, 87347, Note_on_c, 15, 57, 0
2, 87360, Note_on_c, 15, 50, 80
2, 87360, Note_on_c, 15, 60, 80
2, 87701, Note_on_c, 15, 50, 0
2, 87701, Note_on_c, 15, 60, 0
2, 87720, Note_on_c, 15, 50, 80
2, 87720, Note_on_c, 15, 59, 80
2, 88061, Note_on_c, 15, 50, 0
2, 88061, Note_on_c, 15, 59, 0
2, 88080, Note_on_c, 15, 50, 80
2, 88080, Note_on_c, 15, 55, 80
2, 88307, Note_on_c, 15, 50, 0
2, 88307, Note_on_c, 15, 55, 0
2, 88320, Note_on_c, 15, 52, 80
2, 88320, Note_on_c, 15, 57, 80
2, 88661, Note_on_c, 15, 52, 0
2, 88661, Note_on_c, 15, 57, 0
2, 88680, Note_on_c, 15, 52, 80
2, 88680, Note_on_c, 15, 60, 80
2, 89021, Note_on_c, 15, 52, 0
2, 89021, Note_on_c, 15, 60, 0
2, 89040, Note_on_c, 15, 52, 80
2, 89040, Note_on_c, 15, 57, 80
2, 89267, Note_on_c, 15, 52, 0
2, 89267, Note_on_c, 15, 57, 0
2, 89280, Note_on_c, 15, 53, 80
2, 89280, Note_on_c, 15, 57, 80
2, 89621, Note_on_c, 15, 53, 0
2, 89621, Note_on_c, 15, 57, 0
2, 89640, Note_on_c, 15, 53, 80
2, 89640, Note_on_c, 15, 60, 80
2, 89981, Note_on_c, 15, 53, 0
2, 89981, Note_on_c, 15, 60, 0
2, 90000, Note_on_c, 15, 53, 80
2, 90000, Note_on_c, 15, 57, 80
2, 90227, Note_on_c, 15, 53, 0
2, 90227, Note_on_c, 15, 57, 0
2, 90240, Note_on_c, 15, 53, 80
2, 90240, Note_on_c, 15, 57, 80
2, 90581, Note_on_c, 15, 53, 0
2, 90581, Note_on_c, 15, 57, 0
2, 90600, Note_on_c, 15, 53, 80
2, 90600, Note_on_c, 15, 60, 80
2, 90941, Note_on_c, 15, 53, 0
2, 90941, Note_on_c, 15, 60, 0
2, 90960, Note_on_c, 15, 53, 80
2, 90960, Note_on_c, 15, 57, 80
2, 91187, Note_on_c, 15, 53, 0
2, 91187, Note_on_c, 15, 57, 0
2, 91200, Note_on_c, 15, 50, 80
2, 91200, Note_on_c, 15, 59, 80
2, 91541, Note_on_c, 15, 50, 0
2, 91541, Note_on_c, 15, 59, 0
2, 91560, Note_on_c, 15, 50, 80
2, 91560, Note_on_c, 15, 57, 80
2, 91901, Note_on_c, 15, 50, 0
2, 91901, Note_on_c, 15, 57, 0
2, 91920, Note_on_c, 15, 50, 80
2, 91920, Note_on_c, 15, 55, 80
2, 92147, Note_on_c, 15, 50, 0
2, 92147, Note_on_c, 15, 55, 0
2, 92160, Note_on_c, 15, 52, 80
2, 92160, Note_on_c, 15, 57, 80
2, 92501, Note_on_c, 15, 52, 0
2, 92501, Note_on_c, 15, 57, 0
2, 92520, Note_on_c, 15, 52, 80
2, 92520, Note_on_c, 15, 60, 80
2, 92861, Note_on_c, 15, 52, 0
2, 92861, Note_on_c, 15, 60, 0
2, 92880, Note_on_c, 15, 52, 80
2, 92880, Note_on_c, 15, 57, 80
2, 93107, Note_on_c, 15, 52, 0
2, 93107, Note_on_c, 15, 57, 0
2, 93120, Note_on_c, 15, 53, 80
2, 93120, Note_on_c, 15, 57, 80
2, 93461, Note_on_c, 15, 53, 0
2, 93461, Note_on_c, 15, 57, 0
2, 93480, Note_on_c, 15, 53, 80
2, 93480, Note_on_c, 15, 60, 80
2, 93821, Note_on_c, 15, 53, 0
2, 93821, Note_on_c, 15, 60, 0
2, 93840, Note_on_c, 15, 53, 80
2, 93840, Note_on_c, 15, 57, 80
2, 94067, Note_on_c, 15, 53, 0
2, 94067, Note_on_c, 15, 57, 0
2, 94080, Note_on_c, 15, 53, 80
2, 94080, Note_on_c, 15, 57, 80
2, 94421, Note_on_c, 15, 53, 0
2, 94421, Note_on_c, 15, 57, 0
2, 94440, Note_on_c, 15, 53, 80
2, 94440, Note_on_c, 15, 60, 80
2, 94781, Note_on_c, 15, 53, 0
2, 94781, Note_on_c, 15, 60, 0
2, 94800, Note_on_c, 15, 53, 80
2, 94800, Note_on_c, 15, 57, 80
2, 95027, Note_on_c, 15, 53, 0
2, 95027, Note_on_c, 15, 57, 0
2, 95040, Note_on_c, 15, 50, 80
2, 95040, Note_on_c, 15, 60, 80
2, 95381, Note_on_c, 15, 50, 0
2, 95381, Note_on_c, 15, 60, 0
2, 95400, Note_on_c, 15, 50, 80
2, 95400, Note_on_c, 15, 59, 80
2, 95741, Note_on_c, 15, 50, 0
2, 95741, Note_on_c, 15, 59, 0
2, 95760, Note_on_c, 15, 50, 80
2, 95760, Note_on_c, 15, 55, 80
2, 95987, Note_on_c, 15, 50, 0
2, 95987, Note_on_c, 15, 55, 0
2, 96000, Note_on_c, 15, 52, 80
2, 96000, Note_on_c, 15, 57, 80
2, 96341, Note_on_c, 15, 52, 0
2, 96341, Note_on_c, 15, 57, 0
2, 96360, Note_on_c, 15, 52, 80
2, 96360, Note_on_c, 15, 60, 80
2, 96701, Note_on_c, 15, 52, 0
2, 96701, Note_on_c, 15, 60, 0
2, 96720, Note_on_c, 15, 52, 80
2, 96720, Note_on_c, 15, 57, 80
2, 96947, Note_on_c, 15, 52, 0
2, 96947, Note_on_c, 15, 57, 0
2, 96960, Note_on_c, 15, 53, 80
2, 96960, Note_on_c, 15, 57, 80
2, 97301, Note_on_c, 15, 53, 0
2, 97301, Note_on_c, 15, 57, 0
2, 97320, Note_on_c, 15, 53, 80
2, 97320, Note_on_c, 15, 60, 80
2, 97661, Note_on_c, 15, 53, 0
2, 97661, Note_on_c, 15, 60, 0
2, 97680, Note_on_c, 15, 53, 80
2, 97680, Note_on_c, 15, 57, 80
2, 97907, Note_on_c, 15, 53, 0
2, 97907, Note_on_c, 15, 57, 0
2, 97920, Note_on_c, 15, 53, 80
2, 97920, Note_on_c, 15, 57, 80
2, 98159, Note_on_c, 15, 53, 0
2, 98159, Note_on_c, 15, 57, 0
2, 99840, Note_on_c, 15, 52, 80
2, 99840, Note_on_c, 15, 57, 80
2, 100181, Note_on_c, 15, 52, 0
2, 100181, Note_on_c, 15, 57, 0
2, 100200, Note_on_c, 15, 52, 80
2, 100200, Note_on_c, 15, 60, 80
2, 100541, Note_on_c, 15, 52, 0
2, 100541, Note_on_c, 15, 60, 0
2, 100560, Note_on_c, 15, 52, 80
2, 100560, Note_on_c, 15, 57, 80
2, 100787, Note_on_c, 15, 52, 0
2, 100787, Note_on_c, 15, 57, 0
2, 100800, Note_on_c, 15, 53, 80
2, 100800, Note_on_c, 15, 57, 80
2, 101141, Note_on_c, 15, 53, 0
2, 101141, Note_on_c, 15, 57, 0
2, 101160, Note_on_c, 15, 53, 80
2, 101160, Note_on_c, 15, 60, 80
2, 101501, Note_on_c, 15, 53, 0
2, 101501, Note_on_c, 15, 60, 0
2, 101520, Note_on_c, 15, 53, 80
2, 101520, Note_on_c, 15, 57, 80
2, 101747, Note_on_c, 15, 53, 0
2, 101747, Note_on_c, 15, 57, 0
2, 101760, Note_on_c, 15, 53, 80
2, 101760, Note_on_c, 15, 57, 80
2, 102101, Note_on_c, 15, 53, 0
2, 102101, Note_on_c, 15, 57, 0
2, 102120, Note_on_c, 15, 53, 80
2, 102120, Note_on_c, 15, 60, 80
2, 102461, Note_on_c, 15, 53, 0
2, 102461, Note_on_c, 15, 60, 0
2, 102480, Note_on_c, 15, 53, 80
2, 102480, Note_on_c, 15, 57, 80
2, 102707, Note_on_c, 15, 53, 0
2, 102707, Note_on_c, 15, 57, 0
2, 102720, Note_on_c, 15, 50, 80
2, 102720, Note_on_c, 15, 60, 80
2, 103061, Note_on_c, 15, 50, 0
2, 103061, Note_on_c, 15, 60, 0
2, 103080, Note_on_c, 15, 50, 80
2, 103080, Note_on_c, 15, 59, 80
2, 103421, Note_on_c, 15, 50, 0
2, 103421, Note_on_c, 15, 59, 0
2, 103440, Note_on_c, 15, 50, 80
2, 103440, Note_on_c, 15, 55, 80
2, 103667, Note_on_c, 15, 50, 0
2, 103667, Note_on_c, 15, 55, 0
2, 103680, Note_on_c, 15, 52, 80
2, 103680, Note_on_c, 15, 57, 80
2, 104021, Note_on_c, 15, 52, 0
2, 104021, Note_on_c, 15, 57, 0
2, 104040, Note_on_c, 15, 52, 80
2, 104040, Note_on_c, 15, 60, 80
2, 104381, Note_on_c, 15, 52, 0
2, 104381, Note_on_c, 15, 60, 0
2, 104400, Note_on_c, 15, 52, 80
2, 104400, Note_on_c, 15, 57, 80
2, 104627, Note_on_c, 15, 52, 0
2, 104627, Note_on_c, 15, 57, 0
2, 104640, Note_on_c, 15, 53, 80
2, 104640, Note_on_c, 15, 57, 80
2, 104981, Note_on_c, 15, 53, 0
2, 104981, Note_on_c, 15, 57, 0
2, 105000, Note_on_c, 15, 53, 80
2, 105000, Note_on_c, 15, 60, 80
2, 105341, Note_on_c, 15, 53, 0
2, 105341, Note_on_c, 15, 60, 0
2, 105360, Note_on_c, 15, 53, 80
2, 105360, Note_on_c, 15, 57, 80
2, 105587, Note_on_c, 15, 53, 0
2, 105587, Note_on_c, 15, 57, 0
2, 105600, Note_on_c, 15, 53, 80
2, 105600, Note_on_c, 15, 57, 80
2, 105941, Note_on_c, 15, 53, 0
2, 105941, Note_on_c, 15, 57, 0
2, 105960, Note_on_c, 15, 53, 80
2, 105960, Note_on_c, 15, 60, 80
2, 106301, Note_on_c, 15, 53, 0
2, 106301, Note_on_c, 15, 60, 0
2, 106320, Note_on_c, 15, 53, 80
2, 106320, Note_on_c, 15, 57, 80
2, 106547, Note_on_c, 15, 53, 0
2, 106547, Note_on_c, 15, 57, 0
2, 106560, Note_on_c, 15, 50, 80
2, 106560, Note_on_c, 15, 59, 80
2, 106901, Note_on_c, 15, 50, 0
2, 106901, Note_on_c, 15, 59, 0
2, 106920, Note_on_c, 15, 50, 80
2, 106920, Note_on_c, 15, 57, 80
2, 107261, Note_on_c, 15, 50, 0
2, 107261, Note_on_c, 15, 57, 0
2, 107280, Note_on_c, 15, 50, 80
2, 107280, Note_on_c, 15, 55, 80
2, 107507, Note_on_c, 15, 50, 0
2, 107507, Note_on_c, 15, 55, 0
2, 107520, Note_on_c, 15, 52, 80
2, 107520, Note_on_c, 15, 57, 80
2, 107861, Note_on_c, 15, 52, 0
2, 107861, Note_on_c, 15, 57, 0
2, 107880, Note_on_c, 15, 52, 80
2, 107880, Note_on_c, 15, 60, 80
2, 108221, Note_on_c, 15, 52, 0
2, 108221, Note_on_c, 15, 60, 0
2, 108240, Note_on_c, 15, 52, 80
2, 108240, Note_on_c, 15, 57, 80
2, 108467, Note_on_c, 15, 52, 0
2, 108467, Note_on_c, 15, 57, 0
2, 108480, Note_on_c, 15, 53, 80
2, 108480, Note_on_c, 15, 57, 80
2, 108821, Note_on_c, 15, 53, 0
2, 108821, Note_on_c, 15, 57, 0
2, 108840, Note_on_c, 15, 53, 80
2, 108840, Note_on_c, 15, 60, 80
2, 109181, Note_on_c, 15, 53, 0
2, 109181, Note_on_c, 15, 60, 0
2, 109200, Note_on_c, 15, 53, 80
2, 109200, Note_on_c, 15, 57, 80
2, 109427, Note_on_c, 15, 53, 0
2, 109427, Note_on_c, 15, 57, 0
2, 109440, Note_on_c, 15, 53, 80
2, 109440, Note_on_c, 15, 57, 80
2, 109781, Note_on_c, 15, 53, 0
2, 109781, Note_on_c, 15, 57, 0
2, 109800, Note_on_c, 15, 53, 80
2, 109800, Note_on_c, 15, 60, 80
2, 110141, Note_on_c, 15, 53, 0
2, 110141, Note_on_c, 15, 60, 0
2, 110160, Note_on_c, 15, 53, 80
2, 110160, Note_on_c, 15, 57, 80
2, 110387, Note_on_c, 15, 53, 0
2, 110387, Note_on_c, 15, 57, 0
2, 110400, Note_on_c, 15, 50, 80
2, 110400, Note_on_c, 15, 60, 80
2, 110741, Note_on_c, 15, 50, 0
2, 110741, Note_on_c, 15, 60, 0
2, 110760, Note_on_c, 15, 50, 80
2, 110760, Note_on_c, 15, 59, 80
2, 111101, Note_on_c, 15, 50, 0
2, 111101, Note_on_c, 15, 59, 0
2, 111120, Note_on_c, 15, 50, 80
2, 111120, Note_on_c, 15, 55, 80
2, 111347, Note_on_c, 15, 50, 0
2, 111347, Note_on_c, 15, 55, 0
2, 111360, Note_on_c, 15, 52, 80
2, 111360, Note_on_c, 15, 57, 80
2, 111701, Note_on_c, 15, 52, 0
2, 111701, Note_on_c, 15, 57, 0
2, 111720, Note_on_c, 15, 52, 80
2, 111720, Note_on_c, 15, 60, 80
2, 112061, Note_on_c, 15, 52, 0
2, 112061, Note_on_c, 15, 60, 0
2, 112080, Note_on_c, 15, 52, 80
2, 112080, Note_on_c, 15, 57, 80
2, 112307, Note_on_c, 15, 52, 0
2, 112307, Note_on_c, 15, 57, 0
2, 112320, Note_on_c, 15, 53, 80
2, 112320, Note_on_c, 15, 57, 80
2, 112661, Note_on_c, 15, 53, 0
2, 112661, Note_on_c, 15, 57, 0
2, 112680, Note_on_c, 15, 53, 80
2, 112680, Note_on_c, 15, 60, 80
2, 113021, Note_on_c, 15, 53, 0
2, 113021, Note_on_c, 15, 60, 0
2, 113040, Note_on_c, 15, 53, 80
2, 113040, Note_on_c, 15, 57, 80
2, 113267, Note_on_c, 15, 53, 0
2, 113267, Note_on_c, 15, 57, 0
2, 113280, Note_on_c, 15, 53, 80
2, 113280, Note_on_c, 15, 57, 80
2, 113621, Note_on_c, 15, 53, 0
2, 113621, Note_on_c, 15, 57, 0
2, 113640, Note_on_c, 15, 53, 80
2, 113640, Note_on_c, 15, 60, 80
2, 113981, Note_on_c, 15, 53, 0
2, 113981, Note_on_c, 15, 60, 0
2, 114000, Note_on_c, 15, 53, 80
2, 114000, Note_on_c, 15, 57, 80
2, 114227, Note_on_c, 15, 53, 0
2, 114227, Note_on_c, 15, 57, 0
2, 114240, Note_on_c, 15, 50, 80
2, 114240, Note_on_c, 15, 59, 80
2, 114581, Note_on_c, 15, 50, 0
2, 114581, Note_on_c, 15, 59, 0
2, 114600, Note_on_c, 15, 50, 80
2, 114600, Note_on_c, 15, 57, 80
2, 114941, Note_on_c, 15, 50, 0
2, 114941, Note_on_c, 15, 57, 0
2, 114960, Note_on_c, 15, 50, 80
2, 114960, Note_on_c, 15, 55, 80
2, 115187, Note_on_c, 15, 50, 0
2, 115187, Note_on_c, 15, 55, 0
2, 115200, Note_on_c, 15, 52, 80
2, 115427, Note_on_c, 15, 52, 0
2, 115440, Note_on_c, 15, 52, 80
2, 115667, Note_on_c, 15, 52, 0
2, 115680, Note_on_c, 15, 55, 80
2, 115907, Note_on_c, 15, 55, 0
2, 115920, Note_on_c, 15, 55, 80
2, 116147, Note_on_c, 15, 55, 0
2, 116160, Note_on_c, 15, 50, 80
2, 116160, Note_on_c, 15, 53, 80
2, 116387, Note_on_c, 15, 50, 0
2, 116387, Note_on_c, 15, 53, 0
2, 116400, Note_on_c, 15, 50, 80
2, 116400, Note_on_c, 15, 53, 80
2, 116627, Note_on_c, 15, 50, 0
2, 116627, Note_on_c, 15, 53, 0
2, 116640, Note_on_c, 15, 52, 80
2, 116640, Note_on_c, 15, 55, 80
2, 116867, Note_on_c, 15, 52, 0
2, 116867, Note_on_c, 15, 55, 0
2, 116880, Note_on_c, 15, 52, 80
2, 116880, Note_on_c, 15, 55, 80
2, 117107, Note_on_c, 15, 52, 0
2, 117107, Note_on_c, 15, 55, 0
2, 117120, Note_on_c, 15, 53, 80
2, 117120, Note_on_c, 15, 57, 80
2, 117461, Note_on_c, 15, 53, 0
2, 117461, Note_on_c, 15, 57, 0
2, 117480, Note_on_c, 15, 53, 80
2, 117480, Note_on_c, 15, 60, 80
2, 117821, Note_on_c, 15, 53, 0
2, 117821, Note_on_c, 15, 60, 0
2, 117840, Note_on_c, 15, 53, 80
2, 117840, Note_on_c, 15, 57, 80
2, 118067, Note_on_c, 15, 53, 0
2, 118067, Note_on_c, 15, 57, 0
2, 118080, Note_on_c, 15, 50, 80
2, 118080, Note_on_c, 15, 60, 80
2, 118421, Note_on_c, 15, 50, 0
2, 118421, Note_on_c, 15, 60, 0
2, 118440, Note_on_c, 15, 50, 80
2, 118440, Note_on_c, 15, 59, 80
2, 118781, Note_on_c, 15, 50, 0
2, 118781, Note_on_c, 15, 59, 0
2, 118800, Note_on_c, 15, 50, 80
2, 118800, Note_on_c, 15, 55, 80
2, 119027, Note_on_c, 15, 50, 0
2, 119027, Note_on_c, 15, 55, 0
2, 119040, Note_on_c, 15, 52, 80
2, 119267, Note_on_c, 15, 52, 0
2, 119280, Note_on_c, 15, 52, 80
2, 119507, Note_on_c, 15, 52, 0
2, 119520, Note_on_c, 15, 55, 80
2, 119747, Note_on_c, 15, 55, 0
2, 119760, Note_on_c, 15, 55, 80
2, 119987, Note_on_c, 15, 55, 0
2, 120000, Note_on_c, 15, 50, 80
2, 120000, Note_on_c, 15, 53, 80
2, 120227, Note_on_c, 15, 50, 0
2, 120227, Note_on_c, 15, 53, 0
2, 120240, Note_on_c, 15, 50, 80
2, 120240, Note_on_c, 15, 53, 80
2, 120467, Note_on_c, 15, 50, 0
2, 120467, Note_on_c, 15, 53, 0
2, 120480, Note_on_c, 15, 52, 80
2, 120480, Note_on_c, 15, 55, 80
2, 120707, Note_on_c, 15, 52, 0
2, 120707, Note_on_c, 15, 55, 0
2, 120720, Note_on_c, 15, 52, 80
2, 120720, Note_on_c, 15, 55, 80
2, 120947, Note_on_c, 15, 52, 0
2, 120947, Note_on_c, 15, 55, 0
2, 120960, Note_on_c, 15, 53, 80
2, 120960, Note_on_c, 15, 57, 80
2, 121301, Note_on_c, 15, 53, 0
2, 121301, Note_on_c, 15, 57, 0
2, 121320, Note_on_c, 15, 53, 80
2, 121320, Note_on_c, 15, 60, 80
2, 121661, Note_on_c, 15, 53, 0
2, 121661, Note_on_c, 15, 60, 0
2, 121680, Note_on_c, 15, 53, 80
2, 121680, Note_on_c, 15, 57, 80
2, 121907, Note_on_c, 15, 53, 0
2, 121907, Note_on_c, 15, 57, 0
2, 121920, Note_on_c, 15, 50, 80
2, 121920, Note_on_c, 15, 60, 80
2, 122261, Note_on_c, 15, 50, 0
2, 122261, Note_on_c, 15, 60, 0
2, 122280, Note_on_c, 15, 50, 80
2, 122280, Note_on_c, 15, 59, 80
2, 122621, Note_on_c, 15, 50, 0
2, 122621, Note_on_c, 15, 59, 0
2, 122640, Note_on_c, 15, 50, 80
2, 122640, Note_on_c, 15, 55, 80
2, 122867, Note_on_c, 15, 50, 0
2, 122867, Note_on_c, 15, 55, 0
2, 122880, Note_on_c, 15, 52, 80
2, 123107, Note_on_c, 15, 52, 0
2, 123120, Note_on_c, 15, 52, 80
2, 123347, Note_on_c, 15, 52, 0
2, 123360, Note_on_c, 15, 55, 80
2, 123587, Note_on_c, 15, 55, 0
2, 123600, Note_on_c, 15, 55, 80
2, 123827, Note_on_c, 15, 55, 0
2, 123840, Note_on_c, 15, 50, 80
2, 123840, Note_on_c, 15, 53, 80
2, 124067, Note_on_c, 15, 50, 0
2, 124067, Note_on_c, 15, 53, 0
2, 124080, Note_on_c, 15, 50, 80
2, 124080, Note_on_c, 15, 53, 80
2, 124307, Note_on_c, 15, 50, 0
2, 124307, Note_on_c, 15, 53, 0
2, 124320, Note_on_c, 15, 52, 80
2, 124320, Note_on_c, 15, 55, 80
2, 124547, Note_on_c, 15, 52, 0
2, 124547, Note_on_c, 15, 55, 0
2, 124560, Note_on_c, 15, 52, 80
2, 124560, Note_on_c, 15, 55, 80
2, 124787, Note_on_c, 15, 52, 0
2, 124787, Note_on_c, 15, 55, 0
2, 124800, Note_on_c, 15, 53, 80
2, 124800, Note_on_c, 15, 57, 80
2, 125141, Note_on_c, 15, 53, 0
2, 125141, Note_on_c, 15, 57, 0
2, 125160, Note_on_c, 15, 53, 80
2, 125160, Note_on_c, 15, 60, 80
2, 125501, Note_on_c, 15, 53, 0
2, 125501, Note_on_c, 15, 60, 0
2, 125520, Note_on_c, 15, 53, 80
2, 125520, Note_on_c, 15, 57, 80
2, 125747, Note_on_c, 15, 53, 0
2, 125747, Note_on_c, 15, 57, 0
2, 125760, Note_on_c, 15, 50, 80
2, 125760, Note_on_c, 15, 60, 80
2, 126101, Note_on_c, 15, 50, 0
2, 126101, Note_on_c, 15, 60, 0
2, 126120, Note_on_c, 15, 50, 80
2, 126120, Note_on_c, 15, 59, 80
2, 126461, Note_on_c, 15, 50, 0
2, 126461, Note_on_c, 15, 59, 0
2, 126480, Note_on_c, 15, 50, 80
2, 126480, Note_on_c, 15, 55, 80
2, 126707, Note_on_c, 15, 50, 0
2, 126707, Note_on_c, 15, 55, 0
2, 126720, Note_on_c, 15, 52, 80
2, 126720, Note_on_c, 15, 57, 80
2, 127061, Note_on_c, 15, 52, 0
2, 127061, Note_on_c, 15, 57, 0
2, 127080, Note_on_c, 15, 52, 80
2, 127080, Note_on_c, 15, 60, 80
2, 127421, Note_on_c, 15, 52, 0
2, 127421, Note_on_c, 15, 60, 0
2, 127440, Note_on_c, 15, 52, 80
2, 127440, Note_on_c, 15, 57, 80
2, 127667, Note_on_c, 15, 52, 0
2, 127667, Note_on_c, 15, 57, 0
2, 127680, Note_on_c, 15, 53, 80
2, 127680, Note_on_c, 15, 57, 80
2, 128021, Note_on_c, 15, 53, 0
2, 128021, Note_on_c, 15, 57, 0
2, 128040, Note_on_c, 15, 53, 80
2, 128040, Note_on_c, 15, 60, 80
2, 128381, Note_on_c, 15, 53, 0
2, 128381, Note_on_c, 15, 60, 0
2, 128400, Note_on_c, 15, 53, 80
2, 128400, Note_on_c, 15, 57, 80
2, 128627, Note_on_c, 15, 53, 0
2, 128627, Note_on_c, 15, 57, 0
2, 128640, Note_on_c, 15, 53, 80
2, 128640, Note_on_c, 15, 57, 80
2, 128981, Note_on_c, 15, 53, 0
2, 128981, Note_on_c, 15, 57, 0
2, 129000, Note_on_c, 15, 53, 80
2, 129000, Note_on_c, 15, 60, 80
2, 129341, Note_on_c, 15, 53, 0
2, 129341, Note_on_c, 15, 60, 0
2, 129360, Note_on_c, 15, 53, 80
2, 129360, Note_on_c, 15, 57, 80
2, 129587, Note_on_c, 15, 53, 0
2, 129587, Note_on_c, 15, 57, 0
2, 129600, Note_on_c, 15, 50, 80
2, 129600, Note_on_c, 15, 59, 80
2, 129941, Note_on_c, 15, 50, 0
2, 129941, Note_on_c, 15, 59, 0
2, 129960, Note_on_c, 15, 50, 80
2, 129960, Note_on_c, 15, 57, 80
2, 130301, Note_on_c, 15, 50, 0
2, 130301, Note_on_c, 15, 57, 0
2, 130320, Note_on_c, 15, 50, 80
2, 130320, Note_on_c, 15, 55, 80
2, 130547, Note_on_c, 15, 50, 0
2, 130547, Note_on_c, 15, 55, 0
2, 130800, Note_on_c, 15, 64, 80
2, 130913, Note_on_c, 15, 64, 0
2, 130920, Note_on_c, 15, 64, 80
2, 131147, Note_on_c, 15, 64, 0
2, 131160, Note_on_c, 15, 62, 80
2, 131387, Note_on_c, 15, 62, 0
2, 131400, Note_on_c, 15, 60, 80
2, 131513, Note_on_c, 15, 60, 0
2, 131520, Note_on_c, 15, 62, 80
2, 131747, Note_on_c, 15, 62, 0
2, 131760, Note_on_c, 15, 64, 80
2, 131987, Note_on_c, 15, 64, 0
2, 132000, Note_on_c, 15, 57, 80
2, 132227, Note_on_c, 15, 57, 0
2, 132240, Note_on_c, 15, 57, 80
2, 132467, Note_on_c, 15, 57, 0
2, 132720, Note_on_c, 15, 64, 80
2, 132833, Note_on_c, 15, 64, 0
2, 132840, Note_on_c, 15, 64, 80
2, 133067, Note_on_c, 15, 64, 0
2, 133080, Note_on_c, 15, 62, 80
2, 133307, Note_on_c, 15, 62, 0
2, 133320, Note_on_c, 15, 60, 80
2, 133433, Note_on_c, 15, 60, 0
2, 133440, Note_on_c, 15, 62, 80
2, 133667, Note_on_c, 15, 62, 0
2, 133680, Note_on_c, 15, 60, 80
2, 133907, Note_on_c, 15, 60, 0
2, 133920, Note_on_c, 15, 57, 80
2, 134147, Note_on_c, 15, 57, 0
2, 134160, Note_on_c, 15, 57, 80
2, 134387, Note_on_c, 15, 57, 0
2, 134640, Note_on_c, 15, 64, 80
2, 134753, Note_on_c, 15, 64, 0
2, 134760, Note_on_c, 15, 64, 80
2, 134987, Note_on_c, 15, 64, 0
2, 135000, Note_on_c, 15, 62, 80
2, 135227, Note_on_c, 15, 62, 0
2, 135240, Note_on_c, 15, 60, 80
2, 135353, Note_on_c, 15, 60, 0
2, 135360, Note_on_c, 15, 62, 80
2, 135587, Note_on_c, 15, 62, 0
2, 135600, Note_on_c, 15, 64, 80
2, 135827, Note_on_c, 15, 64, 0
2, 135840, Note_on_c, 15, 57, 80
2, 136067, Note_on_c, 15, 57, 0
2, 136080, Note_on_c, 15, 57, 80
2, 136307, Note_on_c, 15, 57, 0
2, 136560, Note_on_c, 15, 64, 80
2, 136673, Note_on_c, 15, 64, 0
2, 136680, Note_on_c, 15, 64, 80
2, 136907, Note_on_c, 15, 64, 0
2, 136920, Note_on_c, 15, 62, 80
2, 137147, Note_on_c, 15, 62, 0
2, 137160, Note_on_c, 15, 60, 80
2, 137273, Note_on_c, 15, 60, 0
2, 137280, Note_on_c, 15, 62, 80
2, 137507, Note_on_c, 15, 62, 0
2, 137520, Note_on_c, 15, 60, 80
2, 137747, Note_on_c, 15, 60, 0
2, 137760, Note_on_c, 15, 57, 80
2, 137987, Note_on_c, 15, 57, 0
2, 138000, Note_on_c, 15, 57, 80
2, 138227, Note_on_c, 15, 57, 0
2, 145920, Note_on_c, 15, 64, 80
2, 145920, Note_on_c, 15, 69, 80
2, 146261, Note_on_c, 15, 64, 0
2, 146261, Note_on_c, 15, 69, 0
2, 146280, Note_on_c, 15, 64, 80
2, 146280, Note_on_c, 15, 72, 80
2, 146621, Note_on_c, 15, 64, 0
2, 146621, Note_on_c, 15, 72, 0
2, 146640, Note_on_c, 15, 64, 80
2, 146640, Note_on_c, 15, 69, 80
2, 146867, Note_on_c, 15, 64, 0
2, 146867, Note_on_c, 15, 69, 0
2, 146880, Note_on_c, 15, 65, 80
2, 146880, Note_on_c, 15, 69, 80
2, 147221, Note_on_c, 15, 65, 0
2, 147221, Note_on_c, 15, 69, 0
2, 147240, Note_on_c, 15, 65, 80
2, 147240, Note_on_c, 15, 72, 80
2, 147581, Note_on_c, 15, 65, 0
2, 147581, Note_on_c, 15, 72, 0
2, 147600, Note_on_c, 15, 65, 80
2, 147600, Note_on_c, 15, 69, 80
2, 147827, Note_on_c, 15, 65, 0
2, 147827, Note_on_c, 15, 69, 0
2, 147840, Note_on_c, 15, 65, 80
2, 147840, Note_on_c, 15, 69, 80
2, 148181, Note_on_c, 15, 65, 0
2, 148181, Note_on_c, 15, 69, 0
2, 148200, Note_on_c, 15, 65, 80
2, 148200, Note_on_c, 15, 72, 80
2, 148541, Note_on_c, 15, 65, 0
2, 148541, Note_on_c, 15, 72, 0
2, 148560, Note_on_c, 15, 65, 80
2, 148560, Note_on_c, 15, 69, 80
2, 148787, Note_on_c, 15, 65, 0
2, 148787, Note_on_c, 15, 69, 0
2, 148800, Note_on_c, 15, 62, 80
2, 148800, Note_on_c, 15, 72, 80
2, 149141, Note_on_c, 15, 62, 0
2, 149141, Note_on_c, 15, 72, 0
2, 149160, Note_on_c, 15, 62, 80
2, 149160, Note_on_c, 15, 71, 80
2, 149501, Note_on_c, 15, 62, 0
2, 149501, Note_on_c, 15, 71, 0
2, 149520, Note_on_c, 15, 67, 80
2, 149747, Note_on_c, 15, 67, 0
2, 149760, Note_on_c, 15, 64, 80
2, 149760, Note_on_c, 15, 69, 80
2, 150101, Note_on_c, 15, 64, 0
2, 150101, Note_on_c, 15, 69, 0
2, 150120, Note_on_c, 15, 64, 80
2, 150120, Note_on_c, 15, 72, 80
2, 150461, Note_on_c, 15, 64, 0
2, 150461, Note_on_c, 15, 72, 0
2, 150480, Note_on_c, 15, 64, 80
2, 150480, Note_on_c, 15, 69, 80
2, 150707, Note_on_c, 15, 64, 0
2, 150707, Note_on_c, 15, 69, 0
2, 150720, Note_on_c, 15, 65, 80
2, 150720, Note_on_c, 15, 69, 80
2, 151061, Note_on_c, 15, 65, 0
2, 151061, Note_on_c, 15, 69, 0
2, 151080, Note_on_c, 15, 65, 80
2, 151080, Note_on_c, 15, 72, 80
2, 151421, Note_on_c, 15, 65, 0
2, 151421, Note_on_c, 15, 72, 0
2, 151440, Note_on_c, 15, 65, 80
2, 151440, Note_on_c, 15, 69, 80
2, 151667, Note_on_c, 15, 65, 0
2, 151667, Note_on_c, 15, 69, 0
2, 151680, Note_on_c, 15, 65, 80
2, 151680, Note_on_c, 15, 69, 80
2, 152021, Note_on_c, 15, 65, 0
2, 152021, Note_on_c, 15, 69, 0
2, 152040, Note_on_c, 15, 65, 80
2, 152040, Note_on_c, 15, 72, 80
2, 152381, Note_on_c, 15, 65, 0
2, 152381, Note_on_c, 15, 72, 0
2, 152400, Note_on_c, 15, 65, 80
2, 152400, Note_on_c, 15, 69, 80
2, 152627, Note_on_c, 15, 65, 0
2, 152627, Note_on_c, 15, 69, 0
2, 152640, Note_on_c, 15, 62, 80
2, 152640, Note_on_c, 15, 71, 80
2, 152981, Note_on_c, 15, 62, 0
2, 152981, Note_on_c, 15, 71, 0
2, 153000, Note_on_c, 15, 62, 80
2, 153000, Note_on_c, 15, 69, 80
2, 153341, Note_on_c, 15, 62, 0
2, 153341, Note_on_c, 15, 69, 0
2, 153360, Note_on_c, 15, 62, 80
2, 153360, Note_on_c, 15, 67, 80
2, 153587, Note_on_c, 15, 62, 0
2, 153587, Note_on_c, 15, 67, 0
2, 153600, Note_on_c, 15, 64, 80
2, 153600, Note_on_c, 15, 69, 80
2, 153941, Note_on_c, 15, 64, 0
2, 153941, Note_on_c, 15, 69, 0
2, 153960, Note_on_c, 15, 64, 80
2, 153960, Note_on_c, 15, 72, 80
2, 154301, Note_on_c, 15, 64, 0
2, 154301, Note_on_c, 15, 72, 0
2, 154320, Note_on_c, 15, 64, 80
2, 154320, Note_on_c, 15, 69, 80
2, 154547, Note_on_c, 15, 64, 0
2, 154547, Note_on_c, 15, 69, 0
2, 154560, Note_on_c, 15, 65, 80
2, 154560, Note_on_c, 15, 69, 80
2, 154901, Note_on_c, 15, 65, 0
2, 154901, Note_on_c, 15, 69, 0
2, 154920, Note_on_c, 15, 65, 80
2, 154920, Note_on_c, 15, 72, 80
2, 155261, Note_on_c, 15, 65, 0
2, 155261, Note_on_c, 15, 72, 0
2, 155280, Note_on_c, 15, 65, 80
2, 155280, Note_on_c, 15, 69, 80
2, 155507, Note_on_c, 15, 65, 0
2, 155507, Note_on_c, 15, 69, 0
2, 155520, Note_on_c, 15, 65, 80
2, 155520, Note_on_c, 15, 69, 80
2, 155861, Note_on_c, 15, 65, 0
2, 155861, Note_on_c, 15, 69, 0
2, 155880, Note_on_c, 15, 65, 80
2, 155880, Note_on_c, 15, 72, 80
2, 156221, Note_on_c, 15, 65, 0
2, 156221, Note_on_c, 15, 72, 0
2, 156240, Note_on_c, 15, 65, 80
2, 156240, Note_on_c, 15, 69, 80
2, 156467, Note_on_c, 15, 65, 0
2, 156467, Note_on_c, 15, 69, 0
2, 156480, Note_on_c, 15, 62, 80
2, 156480, Note_on_c, 15, 72, 80
2, 156821, Note_on_c, 15, 62, 0
2, 156821, Note_on_c, 15, 72, 0
2, 156840, Note_on_c, 15, 62, 80
2, 156840, Note_on_c, 15, 71, 80
2, 157181, Note_on_c, 15, 62, 0
2, 157181, Note_on_c, 15, 71, 0
2, 157200, Note_on_c, 15, 62, 80
2, 157200, Note_on_c, 15, 67, 80
2, 157427, Note_on_c, 15, 62, 0
2, 157427, Note_on_c, 15, 67, 0
2, 157440, Note_on_c, 15, 64, 80
2, 157440, Note_on_c, 15, 69, 80
2, 157781, Note_on_c, 15, 64, 0
2, 157781, Note_on_c, 15, 69, 0
2, 157800, Note_on_c, 15, 64, 80
2, 157800, Note_on_c, 15, 72, 80
2, 158141, Note_on_c, 15, 64, 0
2, 158141, Note_on_c, 15, 72, 0
2, 158160, Note_on_c, 15, 64, 80
2, 158160, Note_on_c, 15, 69, 80
2, 158387, Note_on_c, 15, 64, 0
2, 158387, Note_on_c, 15, 69, 0
2, 158400, Note_on_c, 15, 65, 80
2, 158400, Note_on_c, 15, 69, 80
2, 158741, Note_on_c, 15, 65, 0
2, 158741, Note_on_c, 15, 69, 0
2, 158760, Note_on_c, 15, 65, 80
2, 158760, Note_on_c, 15, 72, 80
2, 159101, Note_on_c, 15, 65, 0
2, 159101, Note_on_c, 15, 72, 0
2, 159120, Note_on_c, 15, 65, 80
2, 159120, Note_on_c, 15, 69, 80
2, 159347, Note_on_c, 15, 65, 0
2, 159347, Note_on_c, 15, 69, 0
2, 159360, Note_on_c, 15, 65, 80
2, 159360, Note_on_c, 15, 69, 80
2, 159701, Note_on_c, 15, 65, 0
2, 159701, Note_on_c, 15, 69, 0
2, 159720, Note_on_c, 15, 65, 80
2, 159720, Note_on_c, 15, 72, 80
2, 160061, Note_on_c, 15, 65, 0
2, 160061, Note_on_c, 15, 72, 0
2, 160080, Note_on_c, 15, 65, 80
2, 160080, Note_on_c, 15, 69, 80
2, 160307, Note_on_c, 15, 65, 0
2, 160307, Note_on_c, 15, 69, 0
2, 160320, Note_on_c, 15, 62, 80
2, 160320, Note_on_c, 15, 71, 80
2, 160661, Note_on_c, 15, 62, 0
2, 160661, Note_on_c, 15, 71, 0
2, 160680, Note_on_c, 15, 62, 80
2, 160680, Note_on_c, 15, 69, 80
2, 161021, Note_on_c, 15, 62, 0
2, 161021, Note_on_c, 15, 69, 0
2, 161040, Note_on_c, 15, 62, 80
2, 161040, Note_on_c, 15, 67, 80
2, 161267, Note_on_c, 15, 62, 0
2, 161267, Note_on_c, 15, 67, 0
2, 161520, Note_on_c, 15, 60, 80
2, 161520, Note_on_c, 15, 64, 80
2, 161633, Note_on_c, 15, 60, 0
2, 161633, Note_on_c, 15, 64, 0
2, 161640, Note_on_c, 15, 60, 80
2, 161640, Note_on_c, 15, 64, 80
2, 161867, Note_on_c, 15, 60, 0
2, 161867, Note_on_c, 15, 64, 0
2, 161880, Note_on_c, 15, 59, 80
2, 161880, Note_on_c, 15, 62, 80
2, 162107, Note_on_c, 15, 59, 0
2, 162107, Note_on_c, 15, 62, 0
2, 162120, Note_on_c, 15, 57, 80
2, 162120, Note_on_c, 15, 60, 80
2, 162233, Note_on_c, 15, 57, 0
2, 162233, Note_on_c, 15, 60, 0
2, 162240, Note_on_c, 15, 59, 80
2, 162240, Note_on_c, 15, 62, 80
2, 162467, Note_on_c, 15, 59, 0
2, 162467, Note_on_c, 15, 62, 0
2, 162480, Note_on_c, 15, 60, 80
2, 162480, Note_on_c, 15, 64, 80
2, 162707, Note_on_c, 15, 60, 0
2, 162707, Note_on_c, 15, 64, 0
2, 162720, Note_on_c, 15, 57, 80
2, 162947, Note_on_c, 15, 57, 0
2, 162960, Note_on_c, 15, 57, 80
2, 163187, Note_on_c, 15, 57, 0
2, 163440, Note_on_c, 15, 60, 80
2, 163440, Note_on_c, 15, 64, 80
2, 163553, Note_on_c, 15, 60, 0
2, 163553, Note_on_c, 15, 64, 0
2, 163560, Note_on_c, 15, 60, 80
2, 163560, Note_on_c, 15, 64, 80
2, 163787, Note_on_c, 15, 60, 0
2, 163787, Note_on_c, 15, 64, 0
2, 163800, Note_on_c, 15, 59, 80
2, 163800, Note_on_c, 15, 62, 80
2, 164027, Note_on_c, 15, 59, 0
2, 164027, Note_on_c, 15, 62, 0
2, 164040, Note_on_c, 15, 57, 80
2, 164040, Note_on_c, 15, 60, 80
2, 164153, Note_on_c, 15, 57, 0
2, 164153, Note_on_c, 15, 60, 0
2, 164160, Note_on_c, 15, 59, 80
2, 164160, Note_on_c, 15, 62, 80
2, 164387, Note_on_c, 15, 59, 0
2, 164387, Note_on_c, 15, 62, 0
2, 164400, Note_on_c, 15, 57, 80
2, 164400, Note_on_c, 15, 60, 80
2, 164627, Note_on_c, 15, 57, 0
2, 164627, Note_on_c, 15, 60, 0
2, 164640, Note_on_c, 15, 52, 80
2, 164640, Note_on_c, 15, 57, 80
2, 164867, Note_on_c, 15, 52, 0
2, 164867, Note_on_c, 15, 57, 0
2, 164880, Note_on_c, 15, 57, 80
2, 165107, Note_on_c, 15, 57, 0
2, 165360, Note_on_c, 15, 60, 80
2, 165360, Note_on_c, 15, 64, 80
2, 165473, Note_on_c, 15, 60, 0
2, 165473, Note_on_c, 15, 64, 0
2, 165480, Note_on_c, 15, 60, 80
2, 165480, Note_on_c, 15, 64, 80
2, 165707, Note_on_c, 15, 60, 0
2, 165707, Note_on_c, 15, 64, 0
2, 165720, Note_on_c, 15, 59, 80
2, 165720, Note_on_c, 15, 62, 80
2, 165947, Note_on_c, 15, 59, 0
2, 165947, Note_on_c, 15, 62, 0
2, 165960, Note_on_c, 15, 57, 80
2, 165960, Note_on_c, 15, 60, 80
2, 166073, Note_on_c, 15, 57, 0
2, 166073, Note_on_c, 15, 60, 0
2, 166080, Note_on_c, 15, 59, 80
2, 166080, Note_on_c, 15, 62, 80
2, 166307, Note_on_c, 15, 59, 0
2, 166307, Note_on_c, 15, 62, 0
2, 166320, Note_on_c, 15, 60, 80
2, 166320, Note_on_c, 15, 64, 80
2, 166547, Note_on_c, 15, 60, 0
2, 166547, Note_on_c, 15, 64, 0
2, 166560, Note_on_c, 15, 52, 80
2, 166560, Note_on_c, 15, 57, 80
2, 166787, Note_on_c, 15, 52, 0
2, 166787, Note_on_c, 15, 57, 0
2, 166800, Note_on_c, 15, 52, 80
2, 166800, Note_on_c, 15, 57, 80
2, 167027, Note_on_c, 15, 52, 0
2, 167027, Note_on_c, 15, 57, 0
2, 167280, Note_on_c, 15, 60, 80
2, 167280, Note_on_c, 15, 64, 80
2, 167393, Note_on_c, 15, 60, 0
2, 167393, Note_on_c, 15, 64, 0
2, 167400, Note_on_c, 15, 60, 80
2, 167400, Note_on_c, 15, 64, 80
2, 167627, Note_on_c, 15, 60, 0
2, 167627, Note_on_c, 15, 64, 0
2, 167640, Note_on_c, 15, 59, 80
2, 167640, Note_on_c, 15, 62, 80
2, 167867, Note_on_c, 15, 59, 0
2, 167867, Note_on_c, 15, 62, 0
2, 167880, Note_on_c, 15, 57, 80
2, 167880, Note_on_c, 15, 60, 80
2, 167993, Note_on_c, 15, 57, 0
2, 167993, Note_on_c, 15, 60, 0
2, 168000, Note_on_c, 15, 59, 80
2, 168000, Note_on_c, 15, 62, 80
2, 168227, Note_on_c, 15, 59, 0
2, 168227, Note_on_c, 15, 62, 0
2, 168240, Note_on_c, 15, 57, 80
2, 168240, Note_on_c, 15, 60, 80
2, 168467, Note_on_c, 15, 57, 0
2, 168467, Note_on_c, 15, 60, 0
2, 168480, Note_on_c, 15, 52, 80
2, 168480, Note_on_c, 15, 57, 80
2, 168707, Note_on_c, 15, 52, 0
2, 168707, Note_on_c, 15, 57, 0
2, 168720, Note_on_c, 15, 52, 80
2, 168720, Note_on_c, 15, 57, 80
2, 168947, Note_on_c, 15, 52, 0
2, 168947, Note_on_c, 15, 57, 0
2, 169200, Note_on_c, 15, 60, 80
2, 169200, Note_on_c, 15, 64, 80
2, 169313, Note_on_c, 15, 60, 0
2, 169313, Note_on_c, 15, 64, 0
2, 169320, Note_on_c, 15, 60, 80
2, 169320, Note_on_c, 15, 64, 80
2, 169547, Note_on_c, 15, 60, 0
2, 169547, Note_on_c, 15, 64, 0
2, 169560, Note_on_c, 15, 59, 80
2, 169560, Note_on_c, 15, 62, 80
2, 169787, Note_on_c, 15, 59, 0
2, 169787, Note_on_c, 15, 62, 0
2, 169800, Note_on_c, 15, 57, 80
2, 169800, Note_on_c, 15, 60, 80
2, 169913, Note_on_c, 15, 57, 0
2, 169913, Note_on_c, 15, 60, 0
2, 169920, Note_on_c, 15, 59, 80
2, 169920, Note_on_c, 15, 62, 80
2, 170147, Note_on_c, 15, 59, 0
2, 170147, Note_on_c, 15, 62, 0
2, 170160, Note_on_c, 15, 57, 80
2, 170160, Note_on_c, 15, 60, 80
2, 170387, Note_on_c, 15, 57, 0
2, 170387, Note_on_c, 15, 60, 0
2, 170400, Note_on_c, 15, 52, 80
2, 170400, Note_on_c, 15, 57, 80
2, 170627, Note_on_c, 15, 52, 0
2, 170627, Note_on_c, 15, 57, 0
2, 170640, Note_on_c, 15, 52, 80
2, 170640, Note_on_c, 15, 57, 80
2, 170867, Note_on_c, 15, 52, 0
2, 170867, Note_on_c, 15, 57, 0
2, 171120, Note_on_c, 15, 60, 80
2, 171120, Note_on_c, 15, 64, 80
2, 171233, Note_on_c, 15, 60, 0
2, 171233, Note_on_c, 15, 64, 0
2, 171240, Note_on_c, 15, 60, 80
2, 171240, Note_on_c, 15, 64, 80
2, 171467, Note_on_c, 15, 60, 0
2, 171467, Note_on_c, 15, 64, 0
2, 171480, Note_on_c, 15, 59, 80
2, 171480, Note_on_c, 15, 62, 80
2, 171707, Note_on_c, 15, 59, 0
2, 171707, Note_on_c, 15, 62, 0
2, 171720, Note_on_c, 15, 57, 80
2, 171720, Note_on_c, 15, 60, 80
2, 171833, Note_on_c, 15, 57, 0
2, 171833, Note_on_c, 15, 60, 0
2, 171840, Note_on_c, 15, 59, 80
2, 171840, Note_on_c, 15, 62, 80
2, 172067, Note_on_c, 15, 59, 0
2, 172067, Note_on_c, 15, 62, 0
2, 172080, Note_on_c, 15, 57, 80
2, 172080, Note_on_c, 15, 60, 80
2, 172307, Note_on_c, 15, 57, 0
2, 172307, Note_on_c, 15, 60, 0
2, 172320, Note_on_c, 15, 52, 80
2, 172320, Note_on_c, 15, 57, 80
2, 172547, Note_on_c, 15, 52, 0
2, 172547, Note_on_c, 15, 57, 0
2, 172560, Note_on_c, 15, 52, 80
2, 172560, Note_on_c, 15, 57, 80
2, 172787, Note_on_c, 15, 52, 0
2, 172787, Note_on_c, 15, 57, 0
2, 173040, Note_on_c, 15, 57, 80
2, 173153, Note_on_c, 15, 57, 0
2, 173160, Note_on_c, 15, 57, 80
2, 173273, Note_on_c, 15, 57, 0
2, 173280, Note_on_c, 15, 57, 80
2, 173393, Note_on_c, 15, 57, 0
2, 173400, Note_on_c, 15, 57, 80
2, 173513, Note_on_c, 15, 57, 0
2, 173520, Note_on_c, 15, 60, 80
2, 173633, Note_on_c, 15, 60, 0
2, 173640, Note_on_c, 15, 62, 80
2, 173753, Note_on_c, 15, 62, 0
2, 173760, Note_on_c, 15, 62, 80
2, 173987, Note_on_c, 15, 62, 0
2, 174000, Note_on_c, 15, 57, 80
2, 174227, Note_on_c, 15, 57, 0
2, 174240, Note_on_c, 15, 60, 80
2, 174467, Note_on_c, 15, 60, 0
2, 174480, Note_on_c, 15, 62, 80
2, 174707, Note_on_c, 15, 62, 0
2, 174720, Note_on_c, 15, 62, 80
2, 174959, Note_on_c, 15, 62, 0
2, 175440, Note_on_c, 15, 60, 80
2, 175553, Note_on_c, 15, 60, 0
2, 175560, Note_on_c, 15, 62, 80
2, 175673, Note_on_c, 15, 62, 0
2, 175680, Note_on_c, 15, 64, 80
2, 175907, Note_on_c, 15, 64, 0
2, 175920, Note_on_c, 15, 62, 80
2, 176033, Note_on_c, 15, 62, 0
2, 176040, Note_on_c, 15, 60, 80
2, 176153, Note_on_c, 15, 60, 0
2, 176160, Note_on_c, 15, 62, 80
2, 176387, Note_on_c, 15, 62, 0
2, 176400, Note_on_c, 15, 62, 80
2, 176627, Note_on_c, 15, 62, 0
2, 176640, Note_on_c, 15, 60, 80
2, 176753, Note_on_c, 15, 60, 0
2, 176760, Note_on_c, 15, 57, 80
2, 177101, Note_on_c, 15, 57, 0
2, 177102, End_track
3, 0, Start_track
3, 0, Title_t, "Electric Bass, Bass\000"
3, 0, Key_signature, 0, "major"
3, 0, Control_c, 7, 121, 0
3, 0, Program_c, 7, 33
3, 0, Control_c, 7, 7, 100
3, 0, Control_c, 7, 10, 64
3, 0, Control_c, 7, 91, 0
3, 0, Control_c, 7, 93, 0
3, 0, MIDI_port, 0
3, 0, Note_on_c, 7, 57, 80
3, 0, Control_c, 0, 121, 0
3, 0, Program_c, 0, 36
3, 0, Control_c, 0, 7, 100
3, 0, Control_c, 0, 10, 64
3, 0, Control_c, 0, 91, 0
3, 0, Control_c, 0, 93, 0
3, 0, MIDI_port, 0
3, 0, Control_c, 1, 121, 0
3, 0, Program_c, 1, 37
3, 0, Control_c, 1, 7, 100
3, 0, Control_c, 1, 10, 64
3, 0, Control_c, 1, 91, 0
3, 0, Control_c, 1, 93, 0
3, 0, MIDI_port, 0
3, 359, Note_on_c, 7, 57, 0
3, 360, Note_on_c, 7, 57, 80
3, 719, Note_on_c, 7, 57, 0
3, 720, Note_on_c, 7, 57, 80
3, 959, Note_on_c, 7, 57, 0
3, 960, Note_on_c, 7, 50, 80
3, 1319, Note_on_c, 7, 50, 0
3, 1320, Note_on_c, 7, 50, 80
3, 1679, Note_on_c, 7, 50, 0
3, 1680, Note_on_c, 7, 50, 80
3, 1919, Note_on_c, 7, 50, 0
3, 1920, Note_on_c, 7, 53, 80
3, 2279, Note_on_c, 7, 53, 0
3, 2280, Note_on_c, 7, 53, 80
3, 2639, Note_on_c, 7, 53, 0
3, 2640, Note_on_c, 7, 53, 80
3, 2879, Note_on_c, 7, 53, 0
3, 2880, Note_on_c, 7, 55, 80
3, 3239, Note_on_c, 7, 55, 0
3, 3240, Note_on_c, 7, 55, 80
3, 3599, Note_on_c, 7, 55, 0
3, 3600, Note_on_c, 7, 55, 80
3, 3839, Note_on_c, 7, 55, 0
3, 3840, Note_on_c, 7, 57, 80
3, 4199, Note_on_c, 7, 57, 0
3, 4200, Note_on_c, 7, 57, 80
3, 4559, Note_on_c, 7, 57, 0
3, 4560, Note_on_c, 7, 57, 80
3, 4799, Note_on_c, 7, 57, 0
3, 4800, Note_on_c, 7, 50, 80
3, 5159, Note_on_c, 7, 50, 0
3, 5160, Note_on_c, 7, 50, 80
3, 5519, Note_on_c, 7, 50, 0
3, 5520, Note_on_c, 7, 50, 80
3, 5759, Note_on_c, 7, 50, 0
3, 5760, Note_on_c, 7, 53, 80
3, 6119, Note_on_c, 7, 53, 0
3, 6120, Note_on_c, 7, 53, 80
3, 6479, Note_on_c, 7, 53, 0
3, 6480, Note_on_c, 7, 53, 80
3, 6719, Note_on_c, 7, 53, 0
3, 6720, Note_on_c, 7, 55, 80
3, 7079, Note_on_c, 7, 55, 0
3, 7080, Note_on_c, 7, 55, 80
3, 7439, Note_on_c, 7, 55, 0
3, 7440, Note_on_c, 7, 55, 80
3, 7679, Note_on_c, 7, 55, 0
3, 7680, Note_on_c, 7, 57, 80
3, 8039, Note_on_c, 7, 57, 0
3, 8040, Note_on_c, 7, 57, 80
3, 8399, Note_on_c, 7, 57, 0
3, 8400, Note_on_c, 7, 57, 80
3, 8639, Note_on_c, 7, 57, 0
3, 8640, Note_on_c, 7, 50, 80
3, 8999, Note_on_c, 7, 50, 0
3, 9000, Note_on_c, 7, 50, 80
3, 9359, Note_on_c, 7, 50, 0
3, 9360, Note_on_c, 7, 50, 80
3, 9599, Note_on_c, 7, 50, 0
3, 9600, Note_on_c, 7, 53, 80
3, 9959, Note_on_c, 7, 53, 0
3, 9960, Note_on_c, 7, 53, 80
3, 10319, Note_on_c, 7, 53, 0
3, 10320, Note_on_c, 7, 53, 80
3, 10559, Note_on_c, 7, 53, 0
3, 10560, Note_on_c, 7, 55, 80
3, 10919, Note_on_c, 7, 55, 0
3, 10920, Note_on_c, 7, 55, 80
3, 11279, Note_on_c, 7, 55, 0
3, 11280, Note_on_c, 7, 55, 80
3, 11519, Note_on_c, 7, 55, 0
3, 11520, Note_on_c, 7, 57, 80
3, 11879, Note_on_c, 7, 57, 0
3, 11880, Note_on_c, 7, 57, 80
3, 12239, Note_on_c, 7, 57, 0
3, 12240, Note_on_c, 7, 57, 80
3, 12479, Note_on_c, 7, 57, 0
3, 12480, Note_on_c, 7, 50, 80
3, 12839, Note_on_c, 7, 50, 0
3, 12840, Note_on_c, 7, 50, 80
3, 13199, Note_on_c, 7, 50, 0
3, 13200, Note_on_c, 7, 50, 80
3, 13439, Note_on_c, 7, 50, 0
3, 13440, Note_on_c, 7, 53, 80
3, 13799, Note_on_c, 7, 53, 0
3, 13800, Note_on_c, 7, 53, 80
3, 14159, Note_on_c, 7, 53, 0
3, 14160, Note_on_c, 7, 53, 80
3, 14399, Note_on_c, 7, 53, 0
3, 14400, Note_on_c, 7, 55, 80
3, 14759, Note_on_c, 7, 55, 0
3, 14760, Note_on_c, 7, 55, 80
3, 15119, Note_on_c, 7, 55, 0
3, 15120, Note_on_c, 7, 55, 80
3, 15359, Note_on_c, 7, 55, 0
3, 15360, Note_on_c, 7, 57, 80
3, 15719, Note_on_c, 7, 57, 0
3, 15720, Note_on_c, 7, 57, 80
3, 16079, Note_on_c, 7, 57, 0
3, 16080, Note_on_c, 7, 57, 80
3, 16319, Note_on_c, 7, 57, 0
3, 16320, Note_on_c, 7, 50, 80
3, 16679, Note_on_c, 7, 50, 0
3, 16680, Note_on_c, 7, 50, 80
3, 17039, Note_on_c, 7, 50, 0
3, 17040, Note_on_c, 7, 50, 80
3, 17279, Note_on_c, 7, 50, 0
3, 17280, Note_on_c, 7, 53, 80
3, 17639, Note_on_c, 7, 53, 0
3, 17640, Note_on_c, 7, 53, 80
3, 17999, Note_on_c, 7, 53, 0
3, 18000, Note_on_c, 7, 53, 80
3, 18239, Note_on_c, 7, 53, 0
3, 18240, Note_on_c, 7, 55, 80
3, 18599, Note_on_c, 7, 55, 0
3, 18600, Note_on_c, 7, 55, 80
3, 18959, Note_on_c, 7, 55, 0
3, 18960, Note_on_c, 7, 55, 80
3, 19199, Note_on_c, 7, 55, 0
3, 19200, Note_on_c, 7, 57, 80
3, 19559, Note_on_c, 7, 57, 0
3, 19560, Note_on_c, 7, 57, 80
3, 19919, Note_on_c, 7, 57, 0
3, 19920, Note_on_c, 7, 57, 80
3, 20159, Note_on_c, 7, 57, 0
3, 20160, Note_on_c, 7, 50, 80
3, 20519, Note_on_c, 7, 50, 0
3, 20520, Note_on_c, 7, 50, 80
3, 20879, Note_on_c, 7, 50, 0
3, 20880, Note_on_c, 7, 50, 80
3, 21119, Note_on_c, 7, 50, 0
3, 21120, Note_on_c, 7, 53, 80
3, 21479, Note_on_c, 7, 53, 0
3, 21480, Note_on_c, 7, 53, 80
3, 21839, Note_on_c, 7, 53, 0
3, 21840, Note_on_c, 7, 53, 80
3, 22079, Note_on_c, 7, 53, 0
3, 22080, Note_on_c, 7, 55, 80
3, 22439, Note_on_c, 7, 55, 0
3, 22440, Note_on_c, 7, 55, 80
3, 22799, Note_on_c, 7, 55, 0
3, 22800, Note_on_c, 7, 55, 80
3, 23039, Note_on_c, 7, 55, 0
3, 23040, Note_on_c, 7, 57, 80
3, 23399, Note_on_c, 7, 57, 0
3, 23400, Note_on_c, 7, 57, 80
3, 23759, Note_on_c, 7, 57, 0
3, 23760, Note_on_c, 7, 57, 80
3, 23999, Note_on_c, 7, 57, 0
3, 24000, Note_on_c, 7, 50, 80
3, 24359, Note_on_c, 7, 50, 0
3, 24360, Note_on_c, 7, 50, 80
3, 24719, Note_on_c, 7, 50, 0
3, 24720, Note_on_c, 7, 50, 80
3, 24959, Note_on_c, 7, 50, 0
3, 24960, Note_on_c, 7, 53, 80
3, 25319, Note_on_c, 7, 53, 0
3, 25320, Note_on_c, 7, 53, 80
3, 25679, Note_on_c, 7, 53, 0
3, 25680, Note_on_c, 7, 53, 80
3, 25919, Note_on_c, 7, 53, 0
3, 25920, Note_on_c, 7, 55, 80
3, 26279, Note_on_c, 7, 55, 0
3, 26280, Note_on_c, 7, 55, 80
3, 26639, Note_on_c, 7, 55, 0
3, 26640, Note_on_c, 7, 55, 80
3, 26879, Note_on_c, 7, 55, 0
3, 26880, Note_on_c, 7, 57, 80
3, 27239, Note_on_c, 7, 57, 0
3, 27240, Note_on_c, 7, 57, 80
3, 27599, Note_on_c, 7, 57, 0
3, 27600, Note_on_c, 7, 57, 80
3, 27839, Note_on_c, 7, 57, 0
3, 27840, Note_on_c, 7, 50, 80
3, 28199, Note_on_c, 7, 50, 0
3, 28200, Note_on_c, 7, 50, 80
3, 28559, Note_on_c, 7, 50, 0
3, 28560, Note_on_c, 7, 50, 80
3, 28799, Note_on_c, 7, 50, 0
3, 28800, Note_on_c, 7, 53, 80
3, 29159, Note_on_c, 7, 53, 0
3, 29160, Note_on_c, 7, 53, 80
3, 29519, Note_on_c, 7, 53, 0
3, 29520, Note_on_c, 7, 53, 80
3, 29759, Note_on_c, 7, 53, 0
3, 29760, Note_on_c, 7, 55, 80
3, 30119, Note_on_c, 7, 55, 0
3, 30120, Note_on_c, 7, 55, 80
3, 30479, Note_on_c, 7, 55, 0
3, 30480, Note_on_c, 7, 55, 80
3, 30719, Note_on_c, 7, 55, 0
3, 30720, Note_on_c, 7, 57, 80
3, 31079, Note_on_c, 7, 57, 0
3, 31080, Note_on_c, 7, 57, 80
3, 31439, Note_on_c, 7, 57, 0
3, 31440, Note_on_c, 7, 57, 80
3, 31679, Note_on_c, 7, 57, 0
3, 31680, Note_on_c, 7, 50, 80
3, 32039, Note_on_c, 7, 50, 0
3, 32040, Note_on_c, 7, 50, 80
3, 32399, Note_on_c, 7, 50, 0
3, 32400, Note_on_c, 7, 50, 80
3, 32639, Note_on_c, 7, 50, 0
3, 32640, Note_on_c, 7, 53, 80
3, 32999, Note_on_c, 7, 53, 0
3, 33000, Note_on_c, 7, 53, 80
3, 33359, Note_on_c, 7, 53, 0
3, 33360, Note_on_c, 7, 53, 80
3, 33599, Note_on_c, 7, 53, 0
3, 33600, Note_on_c, 7, 55, 80
3, 33959, Note_on_c, 7, 55, 0
3, 33960, Note_on_c, 7, 55, 80
3, 34319, Note_on_c, 7, 55, 0
3, 34320, Note_on_c, 7, 55, 80
3, 34559, Note_on_c, 7, 55, 0
3, 34560, Note_on_c, 7, 57, 80
3, 34919, Note_on_c, 7, 57, 0
3, 34920, Note_on_c, 7, 57, 80
3, 35279, Note_on_c, 7, 57, 0
3, 35280, Note_on_c, 7, 57, 80
3, 35519, Note_on_c, 7, 57, 0
3, 35520, Note_on_c, 7, 50, 80
3, 35879, Note_on_c, 7, 50, 0
3, 35880, Note_on_c, 7, 50, 80
3, 36239, Note_on_c, 7, 50, 0
3, 36240, Note_on_c, 7, 50, 80
3, 36479, Note_on_c, 7, 50, 0
3, 36480, Note_on_c, 7, 53, 80
3, 36719, Note_on_c, 7, 53, 0
3, 37680, Note_on_c, 7, 52, 80
3, 37919, Note_on_c, 7, 52, 0
3, 37920, Note_on_c, 7, 55, 80
3, 38159, Note_on_c, 7, 55, 0
3, 38160, Note_on_c, 7, 57, 80
3, 38399, Note_on_c, 7, 57, 0
3, 38400, Note_on_c, 7, 57, 80
3, 38759, Note_on_c, 7, 57, 0
3, 38760, Note_on_c, 7, 57, 80
3, 39119, Note_on_c, 7, 57, 0
3, 39120, Note_on_c, 7, 57, 80
3, 39359, Note_on_c, 7, 57, 0
3, 39360, Note_on_c, 7, 50, 80
3, 39719, Note_on_c, 7, 50, 0
3, 39720, Note_on_c, 7, 50, 80
3, 40079, Note_on_c, 7, 50, 0
3, 40080, Note_on_c, 7, 50, 80
3, 40319, Note_on_c, 7, 50, 0
3, 40320, Note_on_c, 7, 53, 80
3, 40679, Note_on_c, 7, 53, 0
3, 40680, Note_on_c, 7, 53, 80
3, 41039, Note_on_c, 7, 53, 0
3, 41040, Note_on_c, 7, 53, 80
3, 41279, Note_on_c, 7, 53, 0
3, 41280, Note_on_c, 7, 55, 80
3, 41639, Note_on_c, 7, 55, 0
3, 41640, Note_on_c, 7, 55, 80
3, 41999, Note_on_c, 7, 55, 0
3, 42000, Note_on_c, 7, 55, 80
3, 42239, Note_on_c, 7, 55, 0
3, 42240, Note_on_c, 7, 57, 80
3, 42599, Note_on_c, 7, 57, 0
3, 42600, Note_on_c, 7, 57, 80
3, 42959, Note_on_c, 7, 57, 0
3, 42960, Note_on_c, 7, 57, 80
3, 43199, Note_on_c, 7, 57, 0
3, 43200, Note_on_c, 7, 50, 80
3, 43559, Note_on_c, 7, 50, 0
3, 43560, Note_on_c, 7, 50, 80
3, 43919, Note_on_c, 7, 50, 0
3, 43920, Note_on_c, 7, 50, 80
3, 44159, Note_on_c, 7, 50, 0
3, 44160, Note_on_c, 7, 53, 80
3, 44519, Note_on_c, 7, 53, 0
3, 44520, Note_on_c, 7, 53, 80
3, 44879, Note_on_c, 7, 53, 0
3, 44880, Note_on_c, 7, 53, 80
3, 45119, Note_on_c, 7, 53, 0
3, 45120, Note_on_c, 7, 55, 80
3, 45479, Note_on_c, 7, 55, 0
3, 45480, Note_on_c, 7, 55, 80
3, 45839, Note_on_c, 7, 55, 0
3, 45840, Note_on_c, 7, 55, 80
3, 46079, Note_on_c, 7, 55, 0
3, 46080, Note_on_c, 7, 57, 80
3, 46439, Note_on_c, 7, 57, 0
3, 46440, Note_on_c, 7, 57, 80
3, 46799, Note_on_c, 7, 57, 0
3, 46800, Note_on_c, 7, 57, 80
3, 47039, Note_on_c, 7, 57, 0
3, 47040, Note_on_c, 7, 50, 80
3, 47399, Note_on_c, 7, 50, 0
3, 47400, Note_on_c, 7, 50, 80
3, 47759, Note_on_c, 7, 50, 0
3, 47760, Note_on_c, 7, 50, 80
3, 47999, Note_on_c, 7, 50, 0
3, 48000, Note_on_c, 7, 53, 80
3, 48359, Note_on_c, 7, 53, 0
3, 48360, Note_on_c, 7, 53, 80
3, 48719, Note_on_c, 7, 53, 0
3, 48720, Note_on_c, 7, 53, 80
3, 48959, Note_on_c, 7, 53, 0
3, 48960, Note_on_c, 7, 55, 80
3, 49319, Note_on_c, 7, 55, 0
3, 49320, Note_on_c, 7, 55, 80
3, 49679, Note_on_c, 7, 55, 0
3, 49680, Note_on_c, 7, 55, 80
3, 49919, Note_on_c, 7, 55, 0
3, 49920, Note_on_c, 7, 57, 80
3, 50279, Note_on_c, 7, 57, 0
3, 50280, Note_on_c, 7, 57, 80
3, 50639, Note_on_c, 7, 57, 0
3, 50640, Note_on_c, 7, 57, 80
3, 50879, Note_on_c, 7, 57, 0
3, 50880, Note_on_c, 7, 50, 80
3, 51239, Note_on_c, 7, 50, 0
3, 51240, Note_on_c, 7, 50, 80
3, 51599, Note_on_c, 7, 50, 0
3, 51600, Note_on_c, 7, 50, 80
3, 51839, Note_on_c, 7, 50, 0
3, 51840, Note_on_c, 7, 53, 80
3, 52199, Note_on_c, 7, 53, 0
3, 52200, Note_on_c, 7, 53, 80
3, 52559, Note_on_c, 7, 53, 0
3, 52560, Note_on_c, 7, 53, 80
3, 52799, Note_on_c, 7, 53, 0
3, 52800, Note_on_c, 7, 55, 80
3, 53159, Note_on_c, 7, 55, 0
3, 53160, Note_on_c, 7, 55, 80
3, 53519, Note_on_c, 7, 55, 0
3, 53520, Note_on_c, 7, 55, 80
3, 53759, Note_on_c, 7, 55, 0
3, 53760, Note_on_c, 7, 57, 80
3, 54119, Note_on_c, 7, 57, 0
3, 54120, Note_on_c, 7, 57, 80
3, 54479, Note_on_c, 7, 57, 0
3, 54480, Note_on_c, 7, 57, 80
3, 54719, Note_on_c, 7, 57, 0
3, 54720, Note_on_c, 7, 50, 80
3, 55079, Note_on_c, 7, 50, 0
3, 55080, Note_on_c, 7, 50, 80
3, 55439, Note_on_c, 7, 50, 0
3, 55440, Note_on_c, 7, 50, 80
3, 55679, Note_on_c, 7, 50, 0
3, 55680, Note_on_c, 7, 53, 80
3, 56039, Note_on_c, 7, 53, 0
3, 56040, Note_on_c, 7, 53, 80
3, 56399, Note_on_c, 7, 53, 0
3, 56400, Note_on_c, 7, 53, 80
3, 56639, Note_on_c, 7, 53, 0
3, 56640, Note_on_c, 7, 55, 80
3, 56999, Note_on_c, 7, 55, 0
3, 57000, Note_on_c, 7, 55, 80
3, 57359, Note_on_c, 7, 55, 0
3, 57360, Note_on_c, 7, 55, 80
3, 57599, Note_on_c, 7, 55, 0
3, 57600, Note_on_c, 7, 57, 80
3, 57959, Note_on_c, 7, 57, 0
3, 57960, Note_on_c, 7, 57, 80
3, 58319, Note_on_c, 7, 57, 0
3, 58320, Note_on_c, 7, 57, 80
3, 58559, Note_on_c, 7, 57, 0
3, 58560, Note_on_c, 7, 50, 80
3, 58919, Note_on_c, 7, 50, 0
3, 58920, Note_on_c, 7, 50, 80
3, 59279, Note_on_c, 7, 50, 0
3, 59280, Note_on_c, 7, 50, 80
3, 59519, Note_on_c, 7, 50, 0
3, 59520, Note_on_c, 7, 53, 80
3, 59879, Note_on_c, 7, 53, 0
3, 59880, Note_on_c, 7, 53, 80
3, 60239, Note_on_c, 7, 53, 0
3, 60240, Note_on_c, 7, 53, 80
3, 60479, Note_on_c, 7, 53, 0
3, 60480, Note_on_c, 7, 55, 80
3, 60839, Note_on_c, 7, 55, 0
3, 60840, Note_on_c, 7, 55, 80
3, 61199, Note_on_c, 7, 55, 0
3, 61200, Note_on_c, 7, 55, 80
3, 61439, Note_on_c, 7, 55, 0
3, 61440, Note_on_c, 7, 57, 80
3, 61799, Note_on_c, 7, 57, 0
3, 61800, Note_on_c, 7, 57, 80
3, 62159, Note_on_c, 7, 57, 0
3, 62160, Note_on_c, 7, 57, 80
3, 62399, Note_on_c, 7, 57, 0
3, 62400, Note_on_c, 7, 50, 80
3, 62759, Note_on_c, 7, 50, 0
3, 62760, Note_on_c, 7, 50, 80
3, 63119, Note_on_c, 7, 50, 0
3, 63120, Note_on_c, 7, 50, 80
3, 63359, Note_on_c, 7, 50, 0
3, 63360, Note_on_c, 7, 53, 80
3, 63719, Note_on_c, 7, 53, 0
3, 63720, Note_on_c, 7, 53, 80
3, 64079, Note_on_c, 7, 53, 0
3, 64080, Note_on_c, 7, 53, 80
3, 64319, Note_on_c, 7, 53, 0
3, 64320, Note_on_c, 7, 55, 80
3, 64679, Note_on_c, 7, 55, 0
3, 64680, Note_on_c, 7, 55, 80
3, 65039, Note_on_c, 7, 55, 0
3, 65040, Note_on_c, 7, 55, 80
3, 65279, Note_on_c, 7, 55, 0
3, 65280, Note_on_c, 7, 57, 80
3, 65639, Note_on_c, 7, 57, 0
3, 65640, Note_on_c, 7, 57, 80
3, 65999, Note_on_c, 7, 57, 0
3, 66000, Note_on_c, 7, 57, 80
3, 66239, Note_on_c, 7, 57, 0
3, 66240, Note_on_c, 7, 50, 80
3, 66599, Note_on_c, 7, 50, 0
3, 66600, Note_on_c, 7, 50, 80
3, 66959, Note_on_c, 7, 50, 0
3, 66960, Note_on_c, 7, 50, 80
3, 67199, Note_on_c, 7, 50, 0
3, 67200, Note_on_c, 7, 53, 80
3, 67559, Note_on_c, 7, 53, 0
3, 67560, Note_on_c, 7, 53, 80
3, 67919, Note_on_c, 7, 53, 0
3, 67920, Note_on_c, 7, 53, 80
3, 68159, Note_on_c, 7, 53, 0
3, 68160, Note_on_c, 7, 55, 80
3, 68519, Note_on_c, 7, 55, 0
3, 68520, Note_on_c, 7, 55, 80
3, 68879, Note_on_c, 7, 55, 0
3, 68880, Note_on_c, 7, 55, 80
3, 69119, Note_on_c, 7, 55, 0
3, 69120, Note_on_c, 7, 57, 80
3, 69479, Note_on_c, 7, 57, 0
3, 69480, Note_on_c, 7, 57, 80
3, 69839, Note_on_c, 7, 57, 0
3, 69840, Note_on_c, 7, 57, 80
3, 70079, Note_on_c, 7, 57, 0
3, 70080, Note_on_c, 7, 50, 80
3, 70439, Note_on_c, 7, 50, 0
3, 70440, Note_on_c, 7, 50, 80
3, 70799, Note_on_c, 7, 50, 0
3, 70800, Note_on_c, 7, 50, 80
3, 71039, Note_on_c, 7, 50, 0
3, 71040, Note_on_c, 7, 53, 80
3, 71399, Note_on_c, 7, 53, 0
3, 71400, Note_on_c, 7, 53, 80
3, 71759, Note_on_c, 7, 53, 0
3, 71760, Note_on_c, 7, 53, 80
3, 71999, Note_on_c, 7, 53, 0
3, 72000, Note_on_c, 7, 55, 80
3, 72359, Note_on_c, 7, 55, 0
3, 72360, Note_on_c, 7, 55, 80
3, 72719, Note_on_c, 7, 55, 0
3, 72720, Note_on_c, 7, 55, 80
3, 72959, Note_on_c, 7, 55, 0
3, 72960, Note_on_c, 7, 57, 80
3, 73319, Note_on_c, 7, 57, 0
3, 73320, Note_on_c, 7, 57, 80
3, 73679, Note_on_c, 7, 57, 0
3, 73680, Note_on_c, 7, 57, 80
3, 73919, Note_on_c, 7, 57, 0
3, 73920, Note_on_c, 7, 50, 80
3, 74279, Note_on_c, 7, 50, 0
3, 74280, Note_on_c, 7, 50, 80
3, 74639, Note_on_c, 7, 50, 0
3, 74640, Note_on_c, 7, 50, 80
3, 74879, Note_on_c, 7, 50, 0
3, 74880, Note_on_c, 7, 53, 80
3, 75239, Note_on_c, 7, 53, 0
3, 75240, Note_on_c, 7, 53, 80
3, 75599, Note_on_c, 7, 53, 0
3, 75600, Note_on_c, 7, 53, 80
3, 75839, Note_on_c, 7, 53, 0
3, 75840, Note_on_c, 7, 55, 80
3, 76199, Note_on_c, 7, 55, 0
3, 76200, Note_on_c, 7, 55, 80
3, 76559, Note_on_c, 7, 55, 0
3, 76560, Note_on_c, 7, 55, 80
3, 76799, Note_on_c, 7, 55, 0
3, 76800, Note_on_c, 7, 57, 80
3, 77159, Note_on_c, 7, 57, 0
3, 77160, Note_on_c, 7, 57, 80
3, 77519, Note_on_c, 7, 57, 0
3, 77520, Note_on_c, 7, 57, 80
3, 77759, Note_on_c, 7, 57, 0
3, 77760, Note_on_c, 7, 50, 80
3, 78119, Note_on_c, 7, 50, 0
3, 78120, Note_on_c, 7, 50, 80
3, 78479, Note_on_c, 7, 50, 0
3, 78480, Note_on_c, 7, 50, 80
3, 78719, Note_on_c, 7, 50, 0
3, 78720, Note_on_c, 7, 53, 80
3, 79079, Note_on_c, 7, 53, 0
3, 79080, Note_on_c, 7, 53, 80
3, 79439, Note_on_c, 7, 53, 0
3, 79440, Note_on_c, 7, 53, 80
3, 79679, Note_on_c, 7, 53, 0
3, 79680, Note_on_c, 7, 55, 80
3, 80039, Note_on_c, 7, 55, 0
3, 80040, Note_on_c, 7, 55, 80
3, 80399, Note_on_c, 7, 55, 0
3, 80400, Note_on_c, 7, 55, 80
3, 80639, Note_on_c, 7, 55, 0
3, 80640, Note_on_c, 7, 57, 80
3, 80999, Note_on_c, 7, 57, 0
3, 81000, Note_on_c, 7, 57, 80
3, 81359, Note_on_c, 7, 57, 0
3, 81360, Note_on_c, 7, 57, 80
3, 81599, Note_on_c, 7, 57, 0
3, 81600, Note_on_c, 7, 50, 80
3, 81959, Note_on_c, 7, 50, 0
3, 81960, Note_on_c, 7, 50, 80
3, 82319, Note_on_c, 7, 50, 0
3, 82320, Note_on_c, 7, 50, 80
3, 82559, Note_on_c, 7, 50, 0
3, 82560, Note_on_c, 7, 53, 80
3, 82919, Note_on_c, 7, 53, 0
3, 82920, Note_on_c, 7, 53, 80
3, 83279, Note_on_c, 7, 53, 0
3, 83280, Note_on_c, 7, 53, 80
3, 83519, Note_on_c, 7, 53, 0
3, 83520, Note_on_c, 7, 55, 80
3, 83879, Note_on_c, 7, 55, 0
3, 83880, Note_on_c, 7, 55, 80
3, 84239, Note_on_c, 7, 55, 0
3, 84240, Note_on_c, 7, 55, 80
3, 84479, Note_on_c, 7, 55, 0
3, 84480, Note_on_c, 7, 57, 80
3, 84839, Note_on_c, 7, 57, 0
3, 84840, Note_on_c, 7, 57, 80
3, 85199, Note_on_c, 7, 57, 0
3, 85200, Note_on_c, 7, 57, 80
3, 85439, Note_on_c, 7, 57, 0
3, 85440, Note_on_c, 7, 50, 80
3, 85799, Note_on_c, 7, 50, 0
3, 85800, Note_on_c, 7, 50, 80
3, 86159, Note_on_c, 7, 50, 0
3, 86160, Note_on_c, 7, 50, 80
3, 86399, Note_on_c, 7, 50, 0
3, 86400, Note_on_c, 7, 53, 80
3, 86759, Note_on_c, 7, 53, 0
3, 86760, Note_on_c, 7, 53, 80
3, 87119, Note_on_c, 7, 53, 0
3, 87120, Note_on_c, 7, 53, 80
3, 87359, Note_on_c, 7, 53, 0
3, 87360, Note_on_c, 7, 55, 80
3, 87719, Note_on_c, 7, 55, 0
3, 87720, Note_on_c, 7, 55, 80
3, 88079, Note_on_c, 7, 55, 0
3, 88080, Note_on_c, 7, 55, 80
3, 88319, Note_on_c, 7, 55, 0
3, 88320, Note_on_c, 7, 57, 80
3, 88679, Note_on_c, 7, 57, 0
3, 88680, Note_on_c, 7, 57, 80
3, 89039, Note_on_c, 7, 57, 0
3, 89040, Note_on_c, 7, 57, 80
3, 89279, Note_on_c, 7, 57, 0
3, 89280, Note_on_c, 7, 50, 80
3, 89639, Note_on_c, 7, 50, 0
3, 89640, Note_on_c, 7, 50, 80
3, 89999, Note_on_c, 7, 50, 0
3, 90000, Note_on_c, 7, 50, 80
3, 90239, Note_on_c, 7, 50, 0
3, 90240, Note_on_c, 7, 53, 80
3, 90599, Note_on_c, 7, 53, 0
3, 90600, Note_on_c, 7, 53, 80
3, 90959, Note_on_c, 7, 53, 0
3, 90960, Note_on_c, 7, 53, 80
3, 91199, Note_on_c, 7, 53, 0
3, 91200, Note_on_c, 7, 55, 80
3, 91559, Note_on_c, 7, 55, 0
3, 91560, Note_on_c, 7, 55, 80
3, 91919, Note_on_c, 7, 55, 0
3, 91920, Note_on_c, 7, 55, 80
3, 92159, Note_on_c, 7, 55, 0
3, 92160, Note_on_c, 7, 57, 80
3, 92519, Note_on_c, 7, 57, 0
3, 92520, Note_on_c, 7, 57, 80
3, 92879, Note_on_c, 7, 57, 0
3, 92880, Note_on_c, 7, 57, 80
3, 93119, Note_on_c, 7, 57, 0
3, 93120, Note_on_c, 7, 50, 80
3, 93479, Note_on_c, 7, 50, 0
3, 93480, Note_on_c, 7, 50, 80
3, 93839, Note_on_c, 7, 50, 0
3, 93840, Note_on_c, 7, 50, 80
3, 94079, Note_on_c, 7, 50, 0
3, 94080, Note_on_c, 7, 53, 80
3, 94439, Note_on_c, 7, 53, 0
3, 94440, Note_on_c, 7, 53, 80
3, 94799, Note_on_c, 7, 53, 0
3, 94800, Note_on_c, 7, 53, 80
3, 95039, Note_on_c, 7, 53, 0
3, 95040, Note_on_c, 7, 55, 80
3, 95399, Note_on_c, 7, 55, 0
3, 95400, Note_on_c, 7, 55, 80
3, 95759, Note_on_c, 7, 55, 0
3, 95760, Note_on_c, 7, 55, 80
3, 95999, Note_on_c, 7, 55, 0
3, 96000, Note_on_c, 7, 57, 80
3, 96359, Note_on_c, 7, 57, 0
3, 96360, Note_on_c, 7, 57, 80
3, 96719, Note_on_c, 7, 57, 0
3, 96720, Note_on_c, 7, 57, 80
3, 96959, Note_on_c, 7, 57, 0
3, 96960, Note_on_c, 7, 50, 80
3, 97319, Note_on_c, 7, 50, 0
3, 97320, Note_on_c, 7, 50, 80
3, 97679, Note_on_c, 7, 50, 0
3, 97680, Note_on_c, 7, 50, 80
3, 97919, Note_on_c, 7, 50, 0
3, 97920, Note_on_c, 7, 53, 80
3, 98159, Note_on_c, 7, 53, 0
3, 99120, Note_on_c, 7, 52, 80
3, 99359, Note_on_c, 7, 52, 0
3, 99360, Note_on_c, 7, 55, 80
3, 99599, Note_on_c, 7, 55, 0
3, 99600, Note_on_c, 7, 57, 80
3, 99839, Note_on_c, 7, 57, 0
3, 99840, Note_on_c, 7, 57, 80
3, 100199, Note_on_c, 7, 57, 0
3, 100200, Note_on_c, 7, 57, 80
3, 100559, Note_on_c, 7, 57, 0
3, 100560, Note_on_c, 7, 57, 80
3, 100799, Note_on_c, 7, 57, 0
3, 100800, Note_on_c, 7, 50, 80
3, 101159, Note_on_c, 7, 50, 0
3, 101160, Note_on_c, 7, 50, 80
3, 101519, Note_on_c, 7, 50, 0
3, 101520, Note_on_c, 7, 50, 80
3, 101759, Note_on_c, 7, 50, 0
3, 101760, Note_on_c, 7, 53, 80
3, 102119, Note_on_c, 7, 53, 0
3, 102120, Note_on_c, 7, 53, 80
3, 102479, Note_on_c, 7, 53, 0
3, 102480, Note_on_c, 7, 53, 80
3, 102719, Note_on_c, 7, 53, 0
3, 102720, Note_on_c, 7, 55, 80
3, 103079, Note_on_c, 7, 55, 0
3, 103080, Note_on_c, 7, 55, 80
3, 103439, Note_on_c, 7, 55, 0
3, 103440, Note_on_c, 7, 55, 80
3, 103679, Note_on_c, 7, 55, 0
3, 103680, Note_on_c, 7, 57, 80
3, 104039, Note_on_c, 7, 57, 0
3, 104040, Note_on_c, 7, 57, 80
3, 104399, Note_on_c, 7, 57, 0
3, 104400, Note_on_c, 7, 57, 80
3, 104639, Note_on_c, 7, 57, 0
3, 104640, Note_on_c, 7, 50, 80
3, 104999, Note_on_c, 7, 50, 0
3, 105000, Note_on_c, 7, 50, 80
3, 105359, Note_on_c, 7, 50, 0
3, 105360, Note_on_c, 7, 50, 80
3, 105599, Note_on_c, 7, 50, 0
3, 105600, Note_on_c, 7, 53, 80
3, 105959, Note_on_c, 7, 53, 0
3, 105960, Note_on_c, 7, 53, 80
3, 106319, Note_on_c, 7, 53, 0
3, 106320, Note_on_c, 7, 53, 80
3, 106559, Note_on_c, 7, 53, 0
3, 106560, Note_on_c, 7, 55, 80
3, 106919, Note_on_c, 7, 55, 0
3, 106920, Note_on_c, 7, 55, 80
3, 107279, Note_on_c, 7, 55, 0
3, 107280, Note_on_c, 7, 55, 80
3, 107519, Note_on_c, 7, 55, 0
3, 107520, Note_on_c, 7, 57, 80
3, 107879, Note_on_c, 7, 57, 0
3, 107880, Note_on_c, 7, 57, 80
3, 108239, Note_on_c, 7, 57, 0
3, 108240, Note_on_c, 7, 57, 80
3, 108479, Note_on_c, 7, 57, 0
3, 108480, Note_on_c, 7, 50, 80
3, 108839, Note_on_c, 7, 50, 0
3, 108840, Note_on_c, 7, 50, 80
3, 109199, Note_on_c, 7, 50, 0
3, 109200, Note_on_c, 7, 50, 80
3, 109439, Note_on_c, 7, 50, 0
3, 109440, Note_on_c, 7, 53, 80
3, 109799, Note_on_c, 7, 53, 0
3, 109800, Note_on_c, 7, 53, 80
3, 110159, Note_on_c, 7, 53, 0
3, 110160, Note_on_c, 7, 53, 80
3, 110399, Note_on_c, 7, 53, 0
3, 110400, Note_on_c, 7, 55, 80
3, 110759, Note_on_c, 7, 55, 0
3, 110760, Note_on_c, 7, 55, 80
3, 111119, Note_on_c, 7, 55, 0
3, 111120, Note_on_c, 7, 55, 80
3, 111359, Note_on_c, 7, 55, 0
3, 111360, Note_on_c, 7, 57, 80
3, 111719, Note_on_c, 7, 57, 0
3, 111720, Note_on_c, 7, 57, 80
3, 112079, Note_on_c, 7, 57, 0
3, 112080, Note_on_c, 7, 57, 80
3, 112319, Note_on_c, 7, 57, 0
3, 112320, Note_on_c, 7, 50, 80
3, 112679, Note_on_c, 7, 50, 0
3, 112680, Note_on_c, 7, 50, 80
3, 113039, Note_on_c, 7, 50, 0
3, 113040, Note_on_c, 7, 50, 80
3, 113279, Note_on_c, 7, 50, 0
3, 113280, Note_on_c, 7, 53, 80
3, 113639, Note_on_c, 7, 53, 0
3, 113640, Note_on_c, 7, 53, 80
3, 113999, Note_on_c, 7, 53, 0
3, 114000, Note_on_c, 7, 53, 80
3, 114239, Note_on_c, 7, 53, 0
3, 114240, Note_on_c, 7, 55, 80
3, 114599, Note_on_c, 7, 55, 0
3, 114600, Note_on_c, 7, 55, 80
3, 114959, Note_on_c, 7, 55, 0
3, 114960, Note_on_c, 7, 55, 80
3, 115199, Note_on_c, 7, 55, 0
3, 115200, Note_on_c, 7, 57, 80
3, 115559, Note_on_c, 7, 57, 0
3, 115560, Note_on_c, 7, 57, 80
3, 115919, Note_on_c, 7, 57, 0
3, 115920, Note_on_c, 7, 57, 80
3, 116159, Note_on_c, 7, 57, 0
3, 116160, Note_on_c, 7, 50, 80
3, 116519, Note_on_c, 7, 50, 0
3, 116520, Note_on_c, 7, 50, 80
3, 116879, Note_on_c, 7, 50, 0
3, 116880, Note_on_c, 7, 50, 80
3, 117119, Note_on_c, 7, 50, 0
3, 117120, Note_on_c, 7, 53, 80
3, 117479, Note_on_c, 7, 53, 0
3, 117480, Note_on_c, 7, 53, 80
3, 117839, Note_on_c, 7, 53, 0
3, 117840, Note_on_c, 7, 53, 80
3, 118079, Note_on_c, 7, 53, 0
3, 118080, Note_on_c, 7, 55, 80
3, 118439, Note_on_c, 7, 55, 0
3, 118440, Note_on_c, 7, 55, 80
3, 118799, Note_on_c, 7, 55, 0
3, 118800, Note_on_c, 7, 55, 80
3, 119039, Note_on_c, 7, 55, 0
3, 119040, Note_on_c, 7, 57, 80
3, 119399, Note_on_c, 7, 57, 0
3, 119400, Note_on_c, 7, 57, 80
3, 119759, Note_on_c, 7, 57, 0
3, 119760, Note_on_c, 7, 57, 80
3, 119999, Note_on_c, 7, 57, 0
3, 120000, Note_on_c, 7, 50, 80
3, 120359, Note_on_c, 7, 50, 0
3, 120360, Note_on_c, 7, 50, 80
3, 120719, Note_on_c, 7, 50, 0
3, 120720, Note_on_c, 7, 50, 80
3, 120959, Note_on_c, 7, 50, 0
3, 120960, Note_on_c, 7, 53, 80
3, 121319, Note_on_c, 7, 53, 0
3, 121320, Note_on_c, 7, 53, 80
3, 121679, Note_on_c, 7, 53, 0
3, 121680, Note_on_c, 7, 53, 80
3, 121919, Note_on_c, 7, 53, 0
3, 121920, Note_on_c, 7, 55, 80
3, 122279, Note_on_c, 7, 55, 0
3, 122280, Note_on_c, 7, 55, 80
3, 122639, Note_on_c, 7, 55, 0
3, 122640, Note_on_c, 7, 55, 80
3, 122879, Note_on_c, 7, 55, 0
3, 122880, Note_on_c, 7, 57, 80
3, 123239, Note_on_c, 7, 57, 0
3, 123240, Note_on_c, 7, 57, 80
3, 123599, Note_on_c, 7, 57, 0
3, 123600, Note_on_c, 7, 57, 80
3, 123839, Note_on_c, 7, 57, 0
3, 123840, Note_on_c, 7, 50, 80
3, 124199, Note_on_c, 7, 50, 0
3, 124200, Note_on_c, 7, 50, 80
3, 124559, Note_on_c, 7, 50, 0
3, 124560, Note_on_c, 7, 50, 80
3, 124799, Note_on_c, 7, 50, 0
3, 124800, Note_on_c, 7, 53, 80
3, 125159, Note_on_c, 7, 53, 0
3, 125160, Note_on_c, 7, 53, 80
3, 125519, Note_on_c, 7, 53, 0
3, 125520, Note_on_c, 7, 53, 80
3, 125759, Note_on_c, 7, 53, 0
3, 125760, Note_on_c, 7, 55, 80
3, 126119, Note_on_c, 7, 55, 0
3, 126120, Note_on_c, 7, 55, 80
3, 126479, Note_on_c, 7, 55, 0
3, 126480, Note_on_c, 7, 55, 80
3, 126719, Note_on_c, 7, 55, 0
3, 126720, Note_on_c, 7, 57, 80
3, 127079, Note_on_c, 7, 57, 0
3, 127080, Note_on_c, 7, 57, 80
3, 127439, Note_on_c, 7, 57, 0
3, 127440, Note_on_c, 7, 57, 80
3, 127679, Note_on_c, 7, 57, 0
3, 127680, Note_on_c, 7, 50, 80
3, 128039, Note_on_c, 7, 50, 0
3, 128040, Note_on_c, 7, 50, 80
3, 128399, Note_on_c, 7, 50, 0
3, 128400, Note_on_c, 7, 50, 80
3, 128639, Note_on_c, 7, 50, 0
3, 128640, Note_on_c, 7, 53, 80
3, 128999, Note_on_c, 7, 53, 0
3, 129000, Note_on_c, 7, 53, 80
3, 129359, Note_on_c, 7, 53, 0
3, 129360, Note_on_c, 7, 53, 80
3, 129599, Note_on_c, 7, 53, 0
3, 129600, Note_on_c, 7, 55, 80
3, 129959, Note_on_c, 7, 55, 0
3, 129960, Note_on_c, 7, 55, 80
3, 130319, Note_on_c, 7, 55, 0
3, 130320, Note_on_c, 7, 55, 80
3, 130559, Note_on_c, 7, 55, 0
3, 138240, Note_on_c, 7, 57, 80
3, 138599, Note_on_c, 7, 57, 0
3, 138600, Note_on_c, 7, 57, 80
3, 138959, Note_on_c, 7, 57, 0
3, 138960, Note_on_c, 7, 57, 80
3, 139199, Note_on_c, 7, 57, 0
3, 139200, Note_on_c, 7, 50, 80
3, 139559, Note_on_c, 7, 50, 0
3, 139560, Note_on_c, 7, 50, 80
3, 139919, Note_on_c, 7, 50, 0
3, 139920, Note_on_c, 7, 50, 80
3, 140159, Note_on_c, 7, 50, 0
3, 140160, Note_on_c, 7, 53, 80
3, 140519, Note_on_c, 7, 53, 0
3, 140520, Note_on_c, 7, 53, 80
3, 140879, Note_on_c, 7, 53, 0
3, 140880, Note_on_c, 7, 53, 80
3, 141119, Note_on_c, 7, 53, 0
3, 141120, Note_on_c, 7, 55, 80
3, 141479, Note_on_c, 7, 55, 0
3, 141480, Note_on_c, 7, 55, 80
3, 141839, Note_on_c, 7, 55, 0
3, 141840, Note_on_c, 7, 55, 80
3, 142079, Note_on_c, 7, 55, 0
3, 142080, Note_on_c, 7, 57, 80
3, 142439, Note_on_c, 7, 57, 0
3, 142440, Note_on_c, 7, 57, 80
3, 142799, Note_on_c, 7, 57, 0
3, 142800, Note_on_c, 7, 57, 80
3, 143039, Note_on_c, 7, 57, 0
3, 143040, Note_on_c, 7, 50, 80
3, 143399, Note_on_c, 7, 50, 0
3, 143400, Note_on_c, 7, 50, 80
3, 143759, Note_on_c, 7, 50, 0
3, 143760, Note_on_c, 7, 50, 80
3, 143999, Note_on_c, 7, 50, 0
3, 144000, Note_on_c, 7, 53, 80
3, 144359, Note_on_c, 7, 53, 0
3, 144360, Note_on_c, 7, 53, 80
3, 144719, Note_on_c, 7, 53, 0
3, 144720, Note_on_c, 7, 53, 80
3, 144959, Note_on_c, 7, 53, 0
3, 144960, Note_on_c, 7, 55, 80
3, 145319, Note_on_c, 7, 55, 0
3, 145320, Note_on_c, 7, 55, 80
3, 145679, Note_on_c, 7, 55, 0
3, 145680, Note_on_c, 7, 55, 80
3, 145919, Note_on_c, 7, 55, 0
3, 145920, Note_on_c, 7, 57, 80
3, 146279, Note_on_c, 7, 57, 0
3, 146280, Note_on_c, 7, 57, 80
3, 146639, Note_on_c, 7, 57, 0
3, 146640, Note_on_c, 7, 57, 80
3, 146879, Note_on_c, 7, 57, 0
3, 146880, Note_on_c, 7, 50, 80
3, 147239, Note_on_c, 7, 50, 0
3, 147240, Note_on_c, 7, 50, 80
3, 147599, Note_on_c, 7, 50, 0
3, 147600, Note_on_c, 7, 50, 80
3, 147839, Note_on_c, 7, 50, 0
3, 147840, Note_on_c, 7, 53, 80
3, 148199, Note_on_c, 7, 53, 0
3, 148200, Note_on_c, 7, 53, 80
3, 148559, Note_on_c, 7, 53, 0
3, 148560, Note_on_c, 7, 53, 80
3, 148799, Note_on_c, 7, 53, 0
3, 148800, Note_on_c, 7, 55, 80
3, 149159, Note_on_c, 7, 55, 0
3, 149160, Note_on_c, 7, 55, 80
3, 149519, Note_on_c, 7, 55, 0
3, 149520, Note_on_c, 7, 55, 80
3, 149759, Note_on_c, 7, 55, 0
3, 149760, Note_on_c, 7, 57, 80
3, 150119, Note_on_c, 7, 57, 0
3, 150120, Note_on_c, 7, 57, 80
3, 150479, Note_on_c, 7, 57, 0
3, 150480, Note_on_c, 7, 57, 80
3, 150719, Note_on_c, 7, 57, 0
3, 150720, Note_on_c, 7, 50, 80
3, 151079, Note_on_c, 7, 50, 0
3, 151080, Note_on_c, 7, 50, 80
3, 151439, Note_on_c, 7, 50, 0
3, 151440, Note_on_c, 7, 50, 80
3, 151679, Note_on_c, 7, 50, 0
3, 151680, Note_on_c, 7, 53, 80
3, 152039, Note_on_c, 7, 53, 0
3, 152040, Note_on_c, 7, 53, 80
3, 152399, Note_on_c, 7, 53, 0
3, 152400, Note_on_c, 7, 53, 80
3, 152639, Note_on_c, 7, 53, 0
3, 152640, Note_on_c, 7, 55, 80
3, 152999, Note_on_c, 7, 55, 0
3, 153000, Note_on_c, 7, 55, 80
3, 153359, Note_on_c, 7, 55, 0
3, 153360, Note_on_c, 7, 55, 80
3, 153599, Note_on_c, 7, 55, 0
3, 153600, Note_on_c, 7, 57, 80
3, 153959, Note_on_c, 7, 57, 0
3, 153960, Note_on_c, 7, 57, 80
3, 154319, Note_on_c, 7, 57, 0
3, 154320, Note_on_c, 7, 57, 80
3, 154559, Note_on_c, 7, 57, 0
3, 154560, Note_on_c, 7, 50, 80
3, 154919, Note_on_c, 7, 50, 0
3, 154920, Note_on_c, 7, 50, 80
3, 155279, Note_on_c, 7, 50, 0
3, 155280, Note_on_c, 7, 50, 80
3, 155519, Note_on_c, 7, 50, 0
3, 155520, Note_on_c, 7, 53, 80
3, 155879, Note_on_c, 7, 53, 0
3, 155880, Note_on_c, 7, 53, 80
3, 156239, Note_on_c, 7, 53, 0
3, 156240, Note_on_c, 7, 53, 80
3, 156479, Note_on_c, 7, 53, 0
3, 156480, Note_on_c, 7, 55, 80
3, 156839, Note_on_c, 7, 55, 0
3, 156840, Note_on_c, 7, 55, 80
3, 157199, Note_on_c, 7, 55, 0
3, 157200, Note_on_c, 7, 55, 80
3, 157439, Note_on_c, 7, 55, 0
3, 157440, Note_on_c, 7, 57, 80
3, 157799, Note_on_c, 7, 57, 0
3, 157800, Note_on_c, 7, 57, 80
3, 158159, Note_on_c, 7, 57, 0
3, 158160, Note_on_c, 7, 57, 80
3, 158399, Note_on_c, 7, 57, 0
3, 158400, Note_on_c, 7, 50, 80
3, 158759, Note_on_c, 7, 50, 0
3, 158760, Note_on_c, 7, 50, 80
3, 159119, Note_on_c, 7, 50, 0
3, 159120, Note_on_c, 7, 50, 80
3, 159359, Note_on_c, 7, 50, 0
3, 159360, Note_on_c, 7, 53, 80
3, 159719, Note_on_c, 7, 53, 0
3, 159720, Note_on_c, 7, 53, 80
3, 160079, Note_on_c, 7, 53, 0
3, 160080, Note_on_c, 7, 53, 80
3, 160319, Note_on_c, 7, 53, 0
3, 160320, Note_on_c, 7, 55, 80
3, 160679, Note_on_c, 7, 55, 0
3, 160680, Note_on_c, 7, 55, 80
3, 161039, Note_on_c, 7, 55, 0
3, 161040, Note_on_c, 7, 55, 80
3, 161279, Note_on_c, 7, 55, 0
3, 161280, Note_on_c, 7, 57, 80
3, 161639, Note_on_c, 7, 57, 0
3, 161640, Note_on_c, 7, 57, 80
3, 161999, Note_on_c, 7, 57, 0
3, 162000, Note_on_c, 7, 57, 80
3, 162239, Note_on_c, 7, 57, 0
3, 162240, Note_on_c, 7, 50, 80
3, 162599, Note_on_c, 7, 50, 0
3, 162600, Note_on_c, 7, 50, 80
3, 162959, Note_on_c, 7, 50, 0
3, 162960, Note_on_c, 7, 50, 80
3, 163199, Note_on_c, 7, 50, 0
3, 163200, Note_on_c, 7, 53, 80
3, 163559, Note_on_c, 7, 53, 0
3, 163560, Note_on_c, 7, 53, 80
3, 163919, Note_on_c, 7, 53, 0
3, 163920, Note_on_c, 7, 53, 80
3, 164159, Note_on_c, 7, 53, 0
3, 164160, Note_on_c, 7, 55, 80
3, 164519, Note_on_c, 7, 55, 0
3, 164520, Note_on_c, 7, 55, 80
3, 164879, Note_on_c, 7, 55, 0
3, 164880, Note_on_c, 7, 55, 80
3, 165119, Note_on_c, 7, 55, 0
3, 165120, Note_on_c, 7, 57, 80
3, 165479, Note_on_c, 7, 57, 0
3, 165480, Note_on_c, 7, 57, 80
3, 165839, Note_on_c, 7, 57, 0
3, 165840, Note_on_c, 7, 57, 80
3, 166079, Note_on_c, 7, 57, 0
3, 166080, Note_on_c, 7, 50, 80
3, 166439, Note_on_c, 7, 50, 0
3, 166440, Note_on_c, 7, 50, 80
3, 166799, Note_on_c, 7, 50, 0
3, 166800, Note_on_c, 7, 50, 80
3, 167039, Note_on_c, 7, 50, 0
3, 167040, Note_on_c, 7, 53, 80
3, 167399, Note_on_c, 7, 53, 0
3, 167400, Note_on_c, 7, 53, 80
3, 167759, Note_on_c, 7, 53, 0
3, 167760, Note_on_c, 7, 53, 80
3, 167999, Note_on_c, 7, 53, 0
3, 168000, Note_on_c, 7, 55, 80
3, 168359, Note_on_c, 7, 55, 0
3, 168360, Note_on_c, 7, 55, 80
3, 168719, Note_on_c, 7, 55, 0
3, 168720, Note_on_c, 7, 55, 80
3, 168959, Note_on_c, 7, 55, 0
3, 168960, Note_on_c, 7, 57, 80
3, 169319, Note_on_c, 7, 57, 0
3, 169320, Note_on_c, 7, 57, 80
3, 169679, Note_on_c, 7, 57, 0
3, 169680, Note_on_c, 7, 57, 80
3, 169919, Note_on_c, 7, 57, 0
3, 169920, Note_on_c, 7, 50, 80
3, 170279, Note_on_c, 7, 50, 0
3, 170280, Note_on_c, 7, 50, 80
3, 170639, Note_on_c, 7, 50, 0
3, 170640, Note_on_c, 7, 50, 80
3, 170879, Note_on_c, 7, 50, 0
3, 170880, Note_on_c, 7, 53, 80
3, 171239, Note_on_c, 7, 53, 0
3, 171240, Note_on_c, 7, 53, 80
3, 171599, Note_on_c, 7, 53, 0
3, 171600, Note_on_c, 7, 53, 80
3, 171839, Note_on_c, 7, 53, 0
3, 171840, Note_on_c, 7, 55, 80
3, 172199, Note_on_c, 7, 55, 0
3, 172200, Note_on_c, 7, 55, 80
3, 172559, Note_on_c, 7, 55, 0
3, 172560, Note_on_c, 7, 55, 80
3, 172799, Note_on_c, 7, 55, 0
3, 172800, Note_on_c, 7, 57, 80
3, 173159, Note_on_c, 7, 57, 0
3, 173160, Note_on_c, 7, 57, 80
3, 173519, Note_on_c, 7, 57, 0
3, 173520, Note_on_c, 7, 57, 80
3, 173759, Note_on_c, 7, 57, 0
3, 173760, Note_on_c, 7, 50, 80
3, 174119, Note_on_c, 7, 50, 0
3, 174120, Note_on_c, 7, 50, 80
3, 174479, Note_on_c, 7, 50, 0
3, 174480, Note_on_c, 7, 50, 80
3, 174719, Note_on_c, 7, 50, 0
3, 174720, Note_on_c, 7, 53, 80
3, 175079, Note_on_c, 7, 53, 0
3, 175080, Note_on_c, 7, 53, 80
3, 175439, Note_on_c, 7, 53, 0
3, 175440, Note_on_c, 7, 53, 80
3, 175679, Note_on_c, 7, 53, 0
3, 175680, Note_on_c, 7, 55, 80
3, 176039, Note_on_c, 7, 55, 0
3, 176040, Note_on_c, 7, 55, 80
3, 176399, Note_on_c, 7, 55, 0
3, 176400, Note_on_c, 7, 55, 80
3, 176639, Note_on_c, 7, 55, 0
3, 176640, End_track
4, 0, Start_track
4, 0, Title_t, "Bell, Partie D en Siâ\231­ (Clarinette Basse)\000"
4, 0, Key_signature, 0, "major"
4, 0, Control_c, 5, 121, 0
4, 0, Program_c, 5, 14
4, 0, Control_c, 5, 7, 100
4, 0, Control_c, 5, 10, 64
4, 0, Control_c, 5, 91, 0
4, 0, Control_c, 5, 93, 0
4, 0, MIDI_port, 0
4, 10920, Note_on_c, 5, 69, 80
4, 10920, Control_c, 5, 2, 80
4, 11039, Note_on_c, 5, 69, 0
4, 11040, Note_on_c, 5, 76, 80
4, 11159, Note_on_c, 5, 76, 0
4, 11160, Note_on_c, 5, 72, 80
4, 11279, Note_on_c, 5, 72, 0
4, 11280, Note_on_c, 5, 74, 80
4, 11519, Note_on_c, 5, 74, 0
4, 11520, Note_on_c, 5, 69, 80
4, 11999, Note_on_c, 5, 69, 0
4, 14760, Note_on_c, 5, 69, 80
4, 14879, Note_on_c, 5, 69, 0
4, 14880, Note_on_c, 5, 76, 80
4, 14999, Note_on_c, 5, 76, 0
4, 15000, Note_on_c, 5, 72, 80
4, 15119, Note_on_c, 5, 72, 0
4, 15120, Note_on_c, 5, 74, 80
4, 15359, Note_on_c, 5, 74, 0
4, 15360, Note_on_c, 5, 69, 80
4, 15839, Note_on_c, 5, 69, 0
4, 18600, Note_on_c, 5, 69, 80
4, 18719, Note_on_c, 5, 69, 0
4, 18720, Note_on_c, 5, 76, 80
4, 18839, Note_on_c, 5, 76, 0
4, 18840, Note_on_c, 5, 72, 80
4, 18959, Note_on_c, 5, 72, 0
4, 18960, Note_on_c, 5, 74, 80
4, 19199, Note_on_c, 5, 74, 0
4, 19200, Note_on_c, 5, 69, 80
4, 19679, Note_on_c, 5, 69, 0
4, 22200, Note_on_c, 5, 64, 80
4, 22319, Note_on_c, 5, 64, 0
4, 22320, Note_on_c, 5, 64, 80
4, 22439, Note_on_c, 5, 64, 0
4, 22440, Note_on_c, 5, 64, 80
4, 22559, Note_on_c, 5, 64, 0
4, 22560, Note_on_c, 5, 67, 80
4, 22679, Note_on_c, 5, 67, 0
4, 22680, Note_on_c, 5, 67, 80
4, 22799, Note_on_c, 5, 67, 0
4, 22800, Note_on_c, 5, 69, 80
4, 23039, Note_on_c, 5, 69, 0
4, 23040, Note_on_c, 5, 69, 80
4, 23279, Note_on_c, 5, 69, 0
4, 23280, Note_on_c, 5, 69, 80
4, 23519, Note_on_c, 5, 69, 0
4, 23520, Note_on_c, 5, 69, 80
4, 23759, Note_on_c, 5, 69, 0
4, 23760, Note_on_c, 5, 67, 80
4, 23999, Note_on_c, 5, 67, 0
4, 24000, Note_on_c, 5, 69, 80
4, 24239, Note_on_c, 5, 69, 0
4, 24240, Note_on_c, 5, 76, 80
4, 24479, Note_on_c, 5, 76, 0
4, 24480, Note_on_c, 5, 74, 80
4, 24959, Note_on_c, 5, 74, 0
4, 24960, Note_on_c, 5, 72, 80
4, 25079, Note_on_c, 5, 72, 0
4, 25080, Note_on_c, 5, 74, 80
4, 25319, Note_on_c, 5, 74, 0
4, 25320, Note_on_c, 5, 76, 80
4, 25439, Note_on_c, 5, 76, 0
4, 25440, Note_on_c, 5, 74, 80
4, 25679, Note_on_c, 5, 74, 0
4, 25680, Note_on_c, 5, 72, 80
4, 25919, Note_on_c, 5, 72, 0
4, 25920, Note_on_c, 5, 69, 80
4, 26159, Note_on_c, 5, 69, 0
4, 26160, Note_on_c, 5, 72, 80
4, 26399, Note_on_c, 5, 72, 0
4, 26400, Note_on_c, 5, 76, 80
4, 26519, Note_on_c, 5, 76, 0
4, 26520, Note_on_c, 5, 74, 80
4, 26639, Note_on_c, 5, 74, 0
4, 26640, Note_on_c, 5, 72, 80
4, 26759, Note_on_c, 5, 72, 0
4, 26760, Note_on_c, 5, 74, 80
4, 26879, Note_on_c, 5, 74, 0
4, 26880, Note_on_c, 5, 69, 80
4, 27119, Note_on_c, 5, 69, 0
4, 27360, Note_on_c, 5, 79, 80
4, 27479, Note_on_c, 5, 79, 0
4, 27480, Note_on_c, 5, 74, 80
4, 27599, Note_on_c, 5, 74, 0
4, 27600, Note_on_c, 5, 76, 80
4, 27839, Note_on_c, 5, 76, 0
4, 27840, Note_on_c, 5, 74, 80
4, 27959, Note_on_c, 5, 74, 0
4, 27960, Note_on_c, 5, 72, 80
4, 28079, Note_on_c, 5, 72, 0
4, 28080, Note_on_c, 5, 72, 80
4, 28319, Note_on_c, 5, 72, 0
4, 28320, Note_on_c, 5, 69, 80
4, 28559, Note_on_c, 5, 69, 0
4, 28800, Note_on_c, 5, 72, 80
4, 28919, Note_on_c, 5, 72, 0
4, 28920, Note_on_c, 5, 74, 80
4, 29159, Note_on_c, 5, 74, 0
4, 29160, Note_on_c, 5, 76, 80
4, 29279, Note_on_c, 5, 76, 0
4, 29280, Note_on_c, 5, 74, 80
4, 29519, Note_on_c, 5, 74, 0
4, 29520, Note_on_c, 5, 72, 80
4, 29759, Note_on_c, 5, 72, 0
4, 29760, Note_on_c, 5, 74, 80
4, 29999, Note_on_c, 5, 74, 0
4, 30000, Note_on_c, 5, 72, 80
4, 30239, Note_on_c, 5, 72, 0
4, 30240, Note_on_c, 5, 69, 80
4, 30479, Note_on_c, 5, 69, 0
4, 30480, Note_on_c, 5, 69, 80
4, 30719, Note_on_c, 5, 69, 0
4, 30720, Note_on_c, 5, 69, 80
4, 30959, Note_on_c, 5, 69, 0
4, 31200, Note_on_c, 5, 69, 80
4, 31439, Note_on_c, 5, 69, 0
4, 31440, Note_on_c, 5, 67, 80
4, 31679, Note_on_c, 5, 67, 0
4, 31680, Note_on_c, 5, 62, 80
4, 31680, Note_on_c, 5, 69, 80
4, 31919, Note_on_c, 5, 62, 0
4, 31919, Note_on_c, 5, 69, 0
4, 31920, Note_on_c, 5, 76, 80
4, 32159, Note_on_c, 5, 76, 0
4, 32160, Note_on_c, 5, 74, 80
4, 32399, Note_on_c, 5, 74, 0
4, 32640, Note_on_c, 5, 74, 80
4, 32759, Note_on_c, 5, 74, 0
4, 32760, Note_on_c, 5, 74, 80
4, 32999, Note_on_c, 5, 74, 0
4, 33000, Note_on_c, 5, 76, 80
4, 33119, Note_on_c, 5, 76, 0
4, 33120, Note_on_c, 5, 74, 80
4, 33359, Note_on_c, 5, 74, 0
4, 33360, Note_on_c, 5, 72, 80
4, 33599, Note_on_c, 5, 72, 0
4, 33600, Note_on_c, 5, 67, 80
4, 33839, Note_on_c, 5, 67, 0
4, 33840, Note_on_c, 5, 72, 80
4, 34079, Note_on_c, 5, 72, 0
4, 34080, Note_on_c, 5, 76, 80
4, 34199, Note_on_c, 5, 76, 0
4, 34200, Note_on_c, 5, 74, 80
4, 34319, Note_on_c, 5, 74, 0
4, 34320, Note_on_c, 5, 72, 80
4, 34439, Note_on_c, 5, 72, 0
4, 34440, Note_on_c, 5, 74, 80
4, 34559, Note_on_c, 5, 74, 0
4, 34560, Note_on_c, 5, 69, 80
4, 34799, Note_on_c, 5, 69, 0
4, 35040, Note_on_c, 5, 79, 80
4, 35159, Note_on_c, 5, 79, 0
4, 35160, Note_on_c, 5, 74, 80
4, 35279, Note_on_c, 5, 74, 0
4, 35280, Note_on_c, 5, 76, 80
4, 35519, Note_on_c, 5, 76, 0
4, 35520, Note_on_c, 5, 74, 80
4, 35639, Note_on_c, 5, 74, 0
4, 35640, Note_on_c, 5, 72, 80
4, 35759, Note_on_c, 5, 72, 0
4, 35760, Note_on_c, 5, 72, 80
4, 35999, Note_on_c, 5, 72, 0
4, 36000, Note_on_c, 5, 69, 80
4, 36239, Note_on_c, 5, 69, 0
4, 36240, Note_on_c, 5, 69, 80
4, 36479, Note_on_c, 5, 69, 0
4, 36480, Note_on_c, 5, 79, 80
4, 36599, Note_on_c, 5, 79, 0
4, 36600, Note_on_c, 5, 74, 80
4, 36719, Note_on_c, 5, 74, 0
4, 36720, Note_on_c, 5, 76, 80
4, 36959, Note_on_c, 5, 76, 0
4, 36960, Note_on_c, 5, 74, 80
4, 37079, Note_on_c, 5, 74, 0
4, 37080, Note_on_c, 5, 72, 80
4, 37199, Note_on_c, 5, 72, 0
4, 37200, Note_on_c, 5, 72, 80
4, 37439, Note_on_c, 5, 72, 0
4, 37440, Note_on_c, 5, 69, 80
4, 37679, Note_on_c, 5, 69, 0
4, 37680, Note_on_c, 5, 64, 80
4, 37799, Note_on_c, 5, 64, 0
4, 37920, Note_on_c, 5, 67, 80
4, 38039, Note_on_c, 5, 67, 0
4, 38160, Note_on_c, 5, 69, 80
4, 38279, Note_on_c, 5, 69, 0
4, 38400, Note_on_c, 5, 81, 80
4, 38759, Note_on_c, 5, 81, 0
4, 38760, Note_on_c, 5, 81, 80
4, 39119, Note_on_c, 5, 81, 0
4, 39120, Note_on_c, 5, 81, 80
4, 39359, Note_on_c, 5, 81, 0
4, 39360, Note_on_c, 5, 74, 80
4, 39719, Note_on_c, 5, 74, 0
4, 39720, Note_on_c, 5, 74, 80
4, 40079, Note_on_c, 5, 74, 0
4, 40080, Note_on_c, 5, 74, 80
4, 40319, Note_on_c, 5, 74, 0
4, 40320, Note_on_c, 5, 77, 80
4, 40679, Note_on_c, 5, 77, 0
4, 40680, Note_on_c, 5, 77, 80
4, 41039, Note_on_c, 5, 77, 0
4, 41040, Note_on_c, 5, 77, 80
4, 41279, Note_on_c, 5, 77, 0
4, 41280, Note_on_c, 5, 79, 80
4, 41639, Note_on_c, 5, 79, 0
4, 41640, Note_on_c, 5, 79, 80
4, 41999, Note_on_c, 5, 79, 0
4, 42000, Note_on_c, 5, 79, 80
4, 42239, Note_on_c, 5, 79, 0
4, 42240, Note_on_c, 5, 81, 80
4, 42599, Note_on_c, 5, 81, 0
4, 42600, Note_on_c, 5, 81, 80
4, 42959, Note_on_c, 5, 81, 0
4, 42960, Note_on_c, 5, 81, 80
4, 43199, Note_on_c, 5, 81, 0
4, 43200, Note_on_c, 5, 74, 80
4, 43559, Note_on_c, 5, 74, 0
4, 43560, Note_on_c, 5, 74, 80
4, 43919, Note_on_c, 5, 74, 0
4, 43920, Note_on_c, 5, 74, 80
4, 44159, Note_on_c, 5, 74, 0
4, 44160, Note_on_c, 5, 77, 80
4, 44519, Note_on_c, 5, 77, 0
4, 44520, Note_on_c, 5, 77, 80
4, 44879, Note_on_c, 5, 77, 0
4, 44880, Note_on_c, 5, 77, 80
4, 45119, Note_on_c, 5, 77, 0
4, 45120, Note_on_c, 5, 79, 80
4, 45479, Note_on_c, 5, 79, 0
4, 45480, Note_on_c, 5, 79, 80
4, 45839, Note_on_c, 5, 79, 0
4, 45840, Note_on_c, 5, 79, 80
4, 46079, Note_on_c, 5, 79, 0
4, 46080, Note_on_c, 5, 69, 80
4, 46439, Note_on_c, 5, 69, 0
4, 46440, Note_on_c, 5, 69, 80
4, 46799, Note_on_c, 5, 69, 0
4, 46800, Note_on_c, 5, 69, 80
4, 47039, Note_on_c, 5, 69, 0
4, 47040, Note_on_c, 5, 62, 80
4, 47399, Note_on_c, 5, 62, 0
4, 47400, Note_on_c, 5, 62, 80
4, 47759, Note_on_c, 5, 62, 0
4, 47760, Note_on_c, 5, 62, 80
4, 47999, Note_on_c, 5, 62, 0
4, 48000, Note_on_c, 5, 65, 80
4, 48359, Note_on_c, 5, 65, 0
4, 48360, Note_on_c, 5, 65, 80
4, 48719, Note_on_c, 5, 65, 0
4, 48720, Note_on_c, 5, 65, 80
4, 48959, Note_on_c, 5, 65, 0
4, 48960, Note_on_c, 5, 67, 80
4, 49319, Note_on_c, 5, 67, 0
4, 49320, Note_on_c, 5, 67, 80
4, 49679, Note_on_c, 5, 67, 0
4, 49680, Note_on_c, 5, 67, 80
4, 49919, Note_on_c, 5, 67, 0
4, 49920, Note_on_c, 5, 69, 80
4, 50279, Note_on_c, 5, 69, 0
4, 50280, Note_on_c, 5, 69, 80
4, 50639, Note_on_c, 5, 69, 0
4, 50640, Note_on_c, 5, 69, 80
4, 50879, Note_on_c, 5, 69, 0
4, 50880, Note_on_c, 5, 62, 80
4, 51239, Note_on_c, 5, 62, 0
4, 51240, Note_on_c, 5, 62, 80
4, 51599, Note_on_c, 5, 62, 0
4, 51600, Note_on_c, 5, 62, 80
4, 51839, Note_on_c, 5, 62, 0
4, 51840, Note_on_c, 5, 65, 80
4, 52199, Note_on_c, 5, 65, 0
4, 52200, Note_on_c, 5, 65, 80
4, 52559, Note_on_c, 5, 65, 0
4, 52560, Note_on_c, 5, 65, 80
4, 52799, Note_on_c, 5, 65, 0
4, 52800, Note_on_c, 5, 67, 80
4, 53159, Note_on_c, 5, 67, 0
4, 53160, Note_on_c, 5, 67, 80
4, 53519, Note_on_c, 5, 67, 0
4, 53520, Note_on_c, 5, 67, 80
4, 53759, Note_on_c, 5, 67, 0
4, 53760, Note_on_c, 5, 69, 80
4, 54119, Note_on_c, 5, 69, 0
4, 54120, Note_on_c, 5, 69, 80
4, 54479, Note_on_c, 5, 69, 0
4, 54480, Note_on_c, 5, 81, 80
4, 54719, Note_on_c, 5, 81, 0
4, 54720, Note_on_c, 5, 74, 80
4, 55079, Note_on_c, 5, 74, 0
4, 55080, Note_on_c, 5, 74, 80
4, 55439, Note_on_c, 5, 74, 0
4, 55440, Note_on_c, 5, 74, 80
4, 55679, Note_on_c, 5, 74, 0
4, 55680, Note_on_c, 5, 77, 80
4, 56039, Note_on_c, 5, 77, 0
4, 56040, Note_on_c, 5, 77, 80
4, 56399, Note_on_c, 5, 77, 0
4, 56400, Note_on_c, 5, 77, 80
4, 56639, Note_on_c, 5, 77, 0
4, 56640, Note_on_c, 5, 79, 80
4, 56999, Note_on_c, 5, 79, 0
4, 57000, Note_on_c, 5, 79, 80
4, 57359, Note_on_c, 5, 79, 0
4, 57360, Note_on_c, 5, 79, 80
4, 57599, Note_on_c, 5, 79, 0
4, 57600, Note_on_c, 5, 69, 80
4, 57959, Note_on_c, 5, 69, 0
4, 57960, Note_on_c, 5, 69, 80
4, 58319, Note_on_c, 5, 69, 0
4, 58320, Note_on_c, 5, 81, 80
4, 58559, Note_on_c, 5, 81, 0
4, 58560, Note_on_c, 5, 74, 80
4, 58919, Note_on_c, 5, 74, 0
4, 58920, Note_on_c, 5, 74, 80
4, 59279, Note_on_c, 5, 74, 0
4, 59280, Note_on_c, 5, 74, 80
4, 59519, Note_on_c, 5, 74, 0
4, 59520, Note_on_c, 5, 77, 80
4, 59879, Note_on_c, 5, 77, 0
4, 59880, Note_on_c, 5, 77, 80
4, 60239, Note_on_c, 5, 77, 0
4, 60240, Note_on_c, 5, 77, 80
4, 60479, Note_on_c, 5, 77, 0
4, 60480, Note_on_c, 5, 79, 80
4, 60839, Note_on_c, 5, 79, 0
4, 60840, Note_on_c, 5, 79, 80
4, 61199, Note_on_c, 5, 79, 0
4, 61200, Note_on_c, 5, 79, 80
4, 61439, Note_on_c, 5, 79, 0
4, 61440, Note_on_c, 5, 69, 80
4, 61799, Note_on_c, 5, 69, 0
4, 61800, Note_on_c, 5, 69, 80
4, 62159, Note_on_c, 5, 69, 0
4, 62160, Note_on_c, 5, 81, 80
4, 62399, Note_on_c, 5, 81, 0
4, 62400, Note_on_c, 5, 74, 80
4, 62759, Note_on_c, 5, 74, 0
4, 62760, Note_on_c, 5, 74, 80
4, 63119, Note_on_c, 5, 74, 0
4, 63120, Note_on_c, 5, 74, 80
4, 63359, Note_on_c, 5, 74, 0
4, 63360, Note_on_c, 5, 77, 80
4, 63719, Note_on_c, 5, 77, 0
4, 63720, Note_on_c, 5, 77, 80
4, 64079, Note_on_c, 5, 77, 0
4, 64080, Note_on_c, 5, 77, 80
4, 64319, Note_on_c, 5, 77, 0
4, 64320, Note_on_c, 5, 79, 80
4, 64679, Note_on_c, 5, 79, 0
4, 64680, Note_on_c, 5, 79, 80
4, 65039, Note_on_c, 5, 79, 0
4, 65040, Note_on_c, 5, 79, 80
4, 65279, Note_on_c, 5, 79, 0
4, 65280, Note_on_c, 5, 69, 80
4, 65519, Note_on_c, 5, 69, 0
4, 65520, Note_on_c, 5, 69, 80
4, 65759, Note_on_c, 5, 69, 0
4, 65760, Note_on_c, 5, 72, 80
4, 65999, Note_on_c, 5, 72, 0
4, 66000, Note_on_c, 5, 72, 80
4, 66239, Note_on_c, 5, 72, 0
4, 66240, Note_on_c, 5, 74, 80
4, 66479, Note_on_c, 5, 74, 0
4, 66480, Note_on_c, 5, 74, 80
4, 66719, Note_on_c, 5, 74, 0
4, 66720, Note_on_c, 5, 76, 80
4, 66959, Note_on_c, 5, 76, 0
4, 66960, Note_on_c, 5, 76, 80
4, 67199, Note_on_c, 5, 76, 0
4, 67200, Note_on_c, 5, 77, 80
4, 67559, Note_on_c, 5, 77, 0
4, 67560, Note_on_c, 5, 77, 80
4, 67919, Note_on_c, 5, 77, 0
4, 67920, Note_on_c, 5, 77, 80
4, 68159, Note_on_c, 5, 77, 0
4, 68160, Note_on_c, 5, 79, 80
4, 68519, Note_on_c, 5, 79, 0
4, 68520, Note_on_c, 5, 79, 80
4, 68879, Note_on_c, 5, 79, 0
4, 68880, Note_on_c, 5, 79, 80
4, 69119, Note_on_c, 5, 79, 0
4, 72360, Note_on_c, 5, 69, 80
4, 72479, Note_on_c, 5, 69, 0
4, 72480, Note_on_c, 5, 76, 80
4, 72599, Note_on_c, 5, 76, 0
4, 72600, Note_on_c, 5, 72, 80
4, 72719, Note_on_c, 5, 72, 0
4, 72720, Note_on_c, 5, 74, 80
4, 72959, Note_on_c, 5, 74, 0
4, 72960, Note_on_c, 5, 69, 80
4, 73439, Note_on_c, 5, 69, 0
4, 76200, Note_on_c, 5, 69, 80
4, 76319, Note_on_c, 5, 69, 0
4, 76320, Note_on_c, 5, 76, 80
4, 76439, Note_on_c, 5, 76, 0
4, 76440, Note_on_c, 5, 72, 80
4, 76559, Note_on_c, 5, 72, 0
4, 76560, Note_on_c, 5, 74, 80
4, 76799, Note_on_c, 5, 74, 0
4, 76800, Note_on_c, 5, 69, 80
4, 77279, Note_on_c, 5, 69, 0
4, 80040, Note_on_c, 5, 69, 80
4, 80159, Note_on_c, 5, 69, 0
4, 80160, Note_on_c, 5, 76, 80
4, 80279, Note_on_c, 5, 76, 0
4, 80280, Note_on_c, 5, 72, 80
4, 80399, Note_on_c, 5, 72, 0
4, 80400, Note_on_c, 5, 74, 80
4, 80639, Note_on_c, 5, 74, 0
4, 80640, Note_on_c, 5, 69, 80
4, 81119, Note_on_c, 5, 69, 0
4, 83640, Note_on_c, 5, 64, 80
4, 83879, Note_on_c, 5, 64, 0
4, 83880, Note_on_c, 5, 64, 80
4, 83999, Note_on_c, 5, 64, 0
4, 84000, Note_on_c, 5, 67, 80
4, 84119, Note_on_c, 5, 67, 0
4, 84120, Note_on_c, 5, 67, 80
4, 84239, Note_on_c, 5, 67, 0
4, 84240, Note_on_c, 5, 69, 80
4, 84479, Note_on_c, 5, 69, 0
4, 84480, Note_on_c, 5, 69, 80
4, 84719, Note_on_c, 5, 69, 0
4, 84720, Note_on_c, 5, 69, 80
4, 84959, Note_on_c, 5, 69, 0
4, 84960, Note_on_c, 5, 69, 80
4, 85199, Note_on_c, 5, 69, 0
4, 85200, Note_on_c, 5, 67, 80
4, 85439, Note_on_c, 5, 67, 0
4, 85440, Note_on_c, 5, 69, 80
4, 85679, Note_on_c, 5, 69, 0
4, 85680, Note_on_c, 5, 76, 80
4, 85919, Note_on_c, 5, 76, 0
4, 85920, Note_on_c, 5, 74, 80
4, 86399, Note_on_c, 5, 74, 0
4, 86400, Note_on_c, 5, 72, 80
4, 86519, Note_on_c, 5, 72, 0
4, 86520, Note_on_c, 5, 74, 80
4, 86759, Note_on_c, 5, 74, 0
4, 86760, Note_on_c, 5, 76, 80
4, 86879, Note_on_c, 5, 76, 0
4, 86880, Note_on_c, 5, 74, 80
4, 87119, Note_on_c, 5, 74, 0
4, 87120, Note_on_c, 5, 72, 80
4, 87359, Note_on_c, 5, 72, 0
4, 87360, Note_on_c, 5, 69, 80
4, 87599, Note_on_c, 5, 69, 0
4, 87600, Note_on_c, 5, 72, 80
4, 87839, Note_on_c, 5, 72, 0
4, 87840, Note_on_c, 5, 76, 80
4, 87959, Note_on_c, 5, 76, 0
4, 87960, Note_on_c, 5, 74, 80
4, 88079, Note_on_c, 5, 74, 0
4, 88080, Note_on_c, 5, 72, 80
4, 88199, Note_on_c, 5, 72, 0
4, 88200, Note_on_c, 5, 74, 80
4, 88319, Note_on_c, 5, 74, 0
4, 88320, Note_on_c, 5, 69, 80
4, 88559, Note_on_c, 5, 69, 0
4, 88800, Note_on_c, 5, 79, 80
4, 88919, Note_on_c, 5, 79, 0
4, 88920, Note_on_c, 5, 74, 80
4, 89039, Note_on_c, 5, 74, 0
4, 89040, Note_on_c, 5, 76, 80
4, 89279, Note_on_c, 5, 76, 0
4, 89280, Note_on_c, 5, 74, 80
4, 89399, Note_on_c, 5, 74, 0
4, 89400, Note_on_c, 5, 72, 80
4, 89519, Note_on_c, 5, 72, 0
4, 89520, Note_on_c, 5, 72, 80
4, 89759, Note_on_c, 5, 72, 0
4, 89760, Note_on_c, 5, 69, 80
4, 89999, Note_on_c, 5, 69, 0
4, 90240, Note_on_c, 5, 72, 80
4, 90359, Note_on_c, 5, 72, 0
4, 90360, Note_on_c, 5, 74, 80
4, 90599, Note_on_c, 5, 74, 0
4, 90600, Note_on_c, 5, 76, 80
4, 90719, Note_on_c, 5, 76, 0
4, 90720, Note_on_c, 5, 74, 80
4, 90959, Note_on_c, 5, 74, 0
4, 90960, Note_on_c, 5, 72, 80
4, 91199, Note_on_c, 5, 72, 0
4, 91200, Note_on_c, 5, 74, 80
4, 91439, Note_on_c, 5, 74, 0
4, 91440, Note_on_c, 5, 72, 80
4, 91679, Note_on_c, 5, 72, 0
4, 91680, Note_on_c, 5, 69, 80
4, 91919, Note_on_c, 5, 69, 0
4, 91920, Note_on_c, 5, 69, 80
4, 92159, Note_on_c, 5, 69, 0
4, 92160, Note_on_c, 5, 69, 80
4, 92399, Note_on_c, 5, 69, 0
4, 92640, Note_on_c, 5, 69, 80
4, 92879, Note_on_c, 5, 69, 0
4, 92880, Note_on_c, 5, 67, 80
4, 93119, Note_on_c, 5, 67, 0
4, 93120, Note_on_c, 5, 62, 80
4, 93120, Note_on_c, 5, 69, 80
4, 93359, Note_on_c, 5, 62, 0
4, 93359, Note_on_c, 5, 69, 0
4, 93360, Note_on_c, 5, 76, 80
4, 93599, Note_on_c, 5, 76, 0
4, 93600, Note_on_c, 5, 74, 80
4, 93839, Note_on_c, 5, 74, 0
4, 94080, Note_on_c, 5, 74, 80
4, 94199, Note_on_c, 5, 74, 0
4, 94200, Note_on_c, 5, 74, 80
4, 94439, Note_on_c, 5, 74, 0
4, 94440, Note_on_c, 5, 76, 80
4, 94559, Note_on_c, 5, 76, 0
4, 94560, Note_on_c, 5, 74, 80
4, 94799, Note_on_c, 5, 74, 0
4, 94800, Note_on_c, 5, 72, 80
4, 95039, Note_on_c, 5, 72, 0
4, 95040, Note_on_c, 5, 67, 80
4, 95279, Note_on_c, 5, 67, 0
4, 95280, Note_on_c, 5, 72, 80
4, 95519, Note_on_c, 5, 72, 0
4, 95520, Note_on_c, 5, 76, 80
4, 95639, Note_on_c, 5, 76, 0
4, 95640, Note_on_c, 5, 74, 80
4, 95759, Note_on_c, 5, 74, 0
4, 95760, Note_on_c, 5, 72, 80
4, 95879, Note_on_c, 5, 72, 0
4, 95880, Note_on_c, 5, 74, 80
4, 95999, Note_on_c, 5, 74, 0
4, 96000, Note_on_c, 5, 69, 80
4, 96239, Note_on_c, 5, 69, 0
4, 96480, Note_on_c, 5, 79, 80
4, 96599, Note_on_c, 5, 79, 0
4, 96600, Note_on_c, 5, 74, 80
4, 96719, Note_on_c, 5, 74, 0
4, 96720, Note_on_c, 5, 76, 80
4, 96959, Note_on_c, 5, 76, 0
4, 96960, Note_on_c, 5, 74, 80
4, 97079, Note_on_c, 5, 74, 0
4, 97080, Note_on_c, 5, 72, 80
4, 97199, Note_on_c, 5, 72, 0
4, 97200, Note_on_c, 5, 72, 80
4, 97439, Note_on_c, 5, 72, 0
4, 97440, Note_on_c, 5, 69, 80
4, 97679, Note_on_c, 5, 69, 0
4, 97680, Note_on_c, 5, 69, 80
4, 97919, Note_on_c, 5, 69, 0
4, 97920, Note_on_c, 5, 79, 80
4, 98039, Note_on_c, 5, 79, 0
4, 98040, Note_on_c, 5, 74, 80
4, 98159, Note_on_c, 5, 74, 0
4, 98160, Note_on_c, 5, 76, 80
4, 98399, Note_on_c, 5, 76, 0
4, 98400, Note_on_c, 5, 74, 80
4, 98519, Note_on_c, 5, 74, 0
4, 98520, Note_on_c, 5, 72, 80
4, 98639, Note_on_c, 5, 72, 0
4, 98640, Note_on_c, 5, 72, 80
4, 98879, Note_on_c, 5, 72, 0
4, 98880, Note_on_c, 5, 69, 80
4, 99119, Note_on_c, 5, 69, 0
4, 99120, Note_on_c, 5, 64, 80
4, 99239, Note_on_c, 5, 64, 0
4, 99360, Note_on_c, 5, 67, 80
4, 99479, Note_on_c, 5, 67, 0
4, 99600, Note_on_c, 5, 69, 80
4, 99719, Note_on_c, 5, 69, 0
4, 99840, Note_on_c, 5, 81, 80
4, 100199, Note_on_c, 5, 81, 0
4, 100200, Note_on_c, 5, 81, 80
4, 100559, Note_on_c, 5, 81, 0
4, 100560, Note_on_c, 5, 81, 80
4, 100799, Note_on_c, 5, 81, 0
4, 100800, Note_on_c, 5, 74, 80
4, 101159, Note_on_c, 5, 74, 0
4, 101160, Note_on_c, 5, 74, 80
4, 101519, Note_on_c, 5, 74, 0
4, 101520, Note_on_c, 5, 74, 80
4, 101759, Note_on_c, 5, 74, 0
4, 101760, Note_on_c, 5, 77, 80
4, 102119, Note_on_c, 5, 77, 0
4, 102120, Note_on_c, 5, 77, 80
4, 102479, Note_on_c, 5, 77, 0
4, 102480, Note_on_c, 5, 77, 80
4, 102719, Note_on_c, 5, 77, 0
4, 102720, Note_on_c, 5, 79, 80
4, 103079, Note_on_c, 5, 79, 0
4, 103080, Note_on_c, 5, 79, 80
4, 103439, Note_on_c, 5, 79, 0
4, 103440, Note_on_c, 5, 79, 80
4, 103679, Note_on_c, 5, 79, 0
4, 103680, Note_on_c, 5, 81, 80
4, 104039, Note_on_c, 5, 81, 0
4, 104040, Note_on_c, 5, 81, 80
4, 104399, Note_on_c, 5, 81, 0
4, 104400, Note_on_c, 5, 81, 80
4, 104639, Note_on_c, 5, 81, 0
4, 104640, Note_on_c, 5, 74, 80
4, 104999, Note_on_c, 5, 74, 0
4, 105000, Note_on_c, 5, 74, 80
4, 105359, Note_on_c, 5, 74, 0
4, 105360, Note_on_c, 5, 74, 80
4, 105599, Note_on_c, 5, 74, 0
4, 105600, Note_on_c, 5, 77, 80
4, 105959, Note_on_c, 5, 77, 0
4, 105960, Note_on_c, 5, 77, 80
4, 106319, Note_on_c, 5, 77, 0
4, 106320, Note_on_c, 5, 77, 80
4, 106559, Note_on_c, 5, 77, 0
4, 106560, Note_on_c, 5, 79, 80
4, 106919, Note_on_c, 5, 79, 0
4, 106920, Note_on_c, 5, 79, 80
4, 107279, Note_on_c, 5, 79, 0
4, 107280, Note_on_c, 5, 79, 80
4, 107519, Note_on_c, 5, 79, 0
4, 107520, Note_on_c, 5, 69, 80
4, 107879, Note_on_c, 5, 69, 0
4, 107880, Note_on_c, 5, 69, 80
4, 108239, Note_on_c, 5, 69, 0
4, 108240, Note_on_c, 5, 69, 80
4, 108479, Note_on_c, 5, 69, 0
4, 108480, Note_on_c, 5, 62, 80
4, 108839, Note_on_c, 5, 62, 0
4, 108840, Note_on_c, 5, 62, 80
4, 109199, Note_on_c, 5, 62, 0
4, 109200, Note_on_c, 5, 62, 80
4, 109439, Note_on_c, 5, 62, 0
4, 109440, Note_on_c, 5, 65, 80
4, 109799, Note_on_c, 5, 65, 0
4, 109800, Note_on_c, 5, 65, 80
4, 110159, Note_on_c, 5, 65, 0
4, 110160, Note_on_c, 5, 65, 80
4, 110399, Note_on_c, 5, 65, 0
4, 110400, Note_on_c, 5, 67, 80
4, 110759, Note_on_c, 5, 67, 0
4, 110760, Note_on_c, 5, 67, 80
4, 111119, Note_on_c, 5, 67, 0
4, 111120, Note_on_c, 5, 67, 80
4, 111359, Note_on_c, 5, 67, 0
4, 111360, Note_on_c, 5, 69, 80
4, 111719, Note_on_c, 5, 69, 0
4, 111720, Note_on_c, 5, 69, 80
4, 112079, Note_on_c, 5, 69, 0
4, 112080, Note_on_c, 5, 69, 80
4, 112319, Note_on_c, 5, 69, 0
4, 112320, Note_on_c, 5, 62, 80
4, 112679, Note_on_c, 5, 62, 0
4, 112680, Note_on_c, 5, 62, 80
4, 113039, Note_on_c, 5, 62, 0
4, 113040, Note_on_c, 5, 62, 80
4, 113279, Note_on_c, 5, 62, 0
4, 113280, Note_on_c, 5, 65, 80
4, 113639, Note_on_c, 5, 65, 0
4, 113640, Note_on_c, 5, 65, 80
4, 113999, Note_on_c, 5, 65, 0
4, 114000, Note_on_c, 5, 65, 80
4, 114239, Note_on_c, 5, 65, 0
4, 114240, Note_on_c, 5, 67, 80
4, 114599, Note_on_c, 5, 67, 0
4, 114600, Note_on_c, 5, 67, 80
4, 114959, Note_on_c, 5, 67, 0
4, 114960, Note_on_c, 5, 67, 80
4, 115199, Note_on_c, 5, 67, 0
4, 115200, Note_on_c, 5, 69, 80
4, 115559, Note_on_c, 5, 69, 0
4, 115560, Note_on_c, 5, 69, 80
4, 115919, Note_on_c, 5, 69, 0
4, 115920, Note_on_c, 5, 81, 80
4, 116159, Note_on_c, 5, 81, 0
4, 116160, Note_on_c, 5, 74, 80
4, 116519, Note_on_c, 5, 74, 0
4, 116520, Note_on_c, 5, 74, 80
4, 116879, Note_on_c, 5, 74, 0
4, 116880, Note_on_c, 5, 74, 80
4, 117119, Note_on_c, 5, 74, 0
4, 117120, Note_on_c, 5, 77, 80
4, 117479, Note_on_c, 5, 77, 0
4, 117480, Note_on_c, 5, 77, 80
4, 117839, Note_on_c, 5, 77, 0
4, 117840, Note_on_c, 5, 77, 80
4, 118079, Note_on_c, 5, 77, 0
4, 118080, Note_on_c, 5, 79, 80
4, 118439, Note_on_c, 5, 79, 0
4, 118440, Note_on_c, 5, 79, 80
4, 118799, Note_on_c, 5, 79, 0
4, 118800, Note_on_c, 5, 79, 80
4, 119039, Note_on_c, 5, 79, 0
4, 119040, Note_on_c, 5, 69, 80
4, 119399, Note_on_c, 5, 69, 0
4, 119400, Note_on_c, 5, 69, 80
4, 119759, Note_on_c, 5, 69, 0
4, 119760, Note_on_c, 5, 81, 80
4, 119999, Note_on_c, 5, 81, 0
4, 120000, Note_on_c, 5, 74, 80
4, 120359, Note_on_c, 5, 74, 0
4, 120360, Note_on_c, 5, 74, 80
4, 120719, Note_on_c, 5, 74, 0
4, 120720, Note_on_c, 5, 74, 80
4, 120959, Note_on_c, 5, 74, 0
4, 120960, Note_on_c, 5, 77, 80
4, 121319, Note_on_c, 5, 77, 0
4, 121320, Note_on_c, 5, 77, 80
4, 121679, Note_on_c, 5, 77, 0
4, 121680, Note_on_c, 5, 77, 80
4, 121919, Note_on_c, 5, 77, 0
4, 121920, Note_on_c, 5, 79, 80
4, 122279, Note_on_c, 5, 79, 0
4, 122280, Note_on_c, 5, 79, 80
4, 122639, Note_on_c, 5, 79, 0
4, 122640, Note_on_c, 5, 79, 80
4, 122879, Note_on_c, 5, 79, 0
4, 122880, Note_on_c, 5, 69, 80
4, 123239, Note_on_c, 5, 69, 0
4, 123240, Note_on_c, 5, 69, 80
4, 123599, Note_on_c, 5, 69, 0
4, 123600, Note_on_c, 5, 81, 80
4, 123839, Note_on_c, 5, 81, 0
4, 123840, Note_on_c, 5, 74, 80
4, 124199, Note_on_c, 5, 74, 0
4, 124200, Note_on_c, 5, 74, 80
4, 124559, Note_on_c, 5, 74, 0
4, 124560, Note_on_c, 5, 74, 80
4, 124799, Note_on_c, 5, 74, 0
4, 124800, Note_on_c, 5, 77, 80
4, 125159, Note_on_c, 5, 77, 0
4, 125160, Note_on_c, 5, 77, 80
4, 125519, Note_on_c, 5, 77, 0
4, 125520, Note_on_c, 5, 77, 80
4, 125759, Note_on_c, 5, 77, 0
4, 125760, Note_on_c, 5, 79, 80
4, 126119, Note_on_c, 5, 79, 0
4, 126120, Note_on_c, 5, 79, 80
4, 126479, Note_on_c, 5, 79, 0
4, 126480, Note_on_c, 5, 79, 80
4, 126719, Note_on_c, 5, 79, 0
4, 126720, Note_on_c, 5, 69, 80
4, 126959, Note_on_c, 5, 69, 0
4, 126960, Note_on_c, 5, 69, 80
4, 127199, Note_on_c, 5, 69, 0
4, 127200, Note_on_c, 5, 72, 80
4, 127439, Note_on_c, 5, 72, 0
4, 127440, Note_on_c, 5, 72, 80
4, 127679, Note_on_c, 5, 72, 0
4, 127680, Note_on_c, 5, 74, 80
4, 127919, Note_on_c, 5, 74, 0
4, 127920, Note_on_c, 5, 74, 80
4, 128159, Note_on_c, 5, 74, 0
4, 128160, Note_on_c, 5, 76, 80
4, 128399, Note_on_c, 5, 76, 0
4, 128400, Note_on_c, 5, 76, 80
4, 128639, Note_on_c, 5, 76, 0
4, 128640, Note_on_c, 5, 77, 80
4, 128999, Note_on_c, 5, 77, 0
4, 129000, Note_on_c, 5, 77, 80
4, 129359, Note_on_c, 5, 77, 0
4, 129360, Note_on_c, 5, 77, 80
4, 129599, Note_on_c, 5, 77, 0
4, 129600, Note_on_c, 5, 79, 80
4, 129959, Note_on_c, 5, 79, 0
4, 129960, Note_on_c, 5, 79, 80
4, 130319, Note_on_c, 5, 79, 0
4, 130320, Note_on_c, 5, 79, 80
4, 130559, Note_on_c, 5, 79, 0
4, 130800, Note_on_c, 5, 76, 80
4, 130919, Note_on_c, 5, 76, 0
4, 130920, Note_on_c, 5, 76, 80
4, 131159, Note_on_c, 5, 76, 0
4, 131160, Note_on_c, 5, 74, 80
4, 131399, Note_on_c, 5, 74, 0
4, 131400, Note_on_c, 5, 72, 80
4, 131519, Note_on_c, 5, 72, 0
4, 131520, Note_on_c, 5, 74, 80
4, 131759, Note_on_c, 5, 74, 0
4, 131760, Note_on_c, 5, 76, 80
4, 131999, Note_on_c, 5, 76, 0
4, 132000, Note_on_c, 5, 69, 80
4, 132239, Note_on_c, 5, 69, 0
4, 132240, Note_on_c, 5, 69, 80
4, 132479, Note_on_c, 5, 69, 0
4, 132720, Note_on_c, 5, 76, 80
4, 132839, Note_on_c, 5, 76, 0
4, 132840, Note_on_c, 5, 76, 80
4, 133079, Note_on_c, 5, 76, 0
4, 133080, Note_on_c, 5, 74, 80
4, 133319, Note_on_c, 5, 74, 0
4, 133320, Note_on_c, 5, 72, 80
4, 133439, Note_on_c, 5, 72, 0
4, 133440, Note_on_c, 5, 74, 80
4, 133679, Note_on_c, 5, 74, 0
4, 133680, Note_on_c, 5, 72, 80
4, 133919, Note_on_c, 5, 72, 0
4, 133920, Note_on_c, 5, 69, 80
4, 134159, Note_on_c, 5, 69, 0
4, 134160, Note_on_c, 5, 69, 80
4, 134399, Note_on_c, 5, 69, 0
4, 134640, Note_on_c, 5, 76, 80
4, 134759, Note_on_c, 5, 76, 0
4, 134760, Note_on_c, 5, 76, 80
4, 134999, Note_on_c, 5, 76, 0
4, 135000, Note_on_c, 5, 74, 80
4, 135239, Note_on_c, 5, 74, 0
4, 135240, Note_on_c, 5, 72, 80
4, 135359, Note_on_c, 5, 72, 0
4, 135360, Note_on_c, 5, 74, 80
4, 135599, Note_on_c, 5, 74, 0
4, 135600, Note_on_c, 5, 76, 80
4, 135839, Note_on_c, 5, 76, 0
4, 135840, Note_on_c, 5, 69, 80
4, 136079, Note_on_c, 5, 69, 0
4, 136080, Note_on_c, 5, 69, 80
4, 136319, Note_on_c, 5, 69, 0
4, 136560, Note_on_c, 5, 76, 80
4, 136679, Note_on_c, 5, 76, 0
4, 136680, Note_on_c, 5, 76, 80
4, 136919, Note_on_c, 5, 76, 0
4, 136920, Note_on_c, 5, 74, 80
4, 137159, Note_on_c, 5, 74, 0
4, 137160, Note_on_c, 5, 72, 80
4, 137279, Note_on_c, 5, 72, 0
4, 137280, Note_on_c, 5, 74, 80
4, 137519, Note_on_c, 5, 74, 0
4, 137520, Note_on_c, 5, 72, 80
4, 137759, Note_on_c, 5, 72, 0
4, 137760, Note_on_c, 5, 69, 80
4, 137999, Note_on_c, 5, 69, 0
4, 138000, Note_on_c, 5, 69, 80
4, 138239, Note_on_c, 5, 69, 0
4, 138240, Note_on_c, 5, 69, 80
4, 138479, Note_on_c, 5, 69, 0
4, 138480, Note_on_c, 5, 67, 80
4, 138599, Note_on_c, 5, 67, 0
4, 138600, Note_on_c, 5, 69, 80
4, 138719, Note_on_c, 5, 69, 0
4, 138840, Note_on_c, 5, 67, 80
4, 138959, Note_on_c, 5, 67, 0
4, 138960, Note_on_c, 5, 69, 80
4, 139199, Note_on_c, 5, 69, 0
4, 139200, Note_on_c, 5, 62, 80
4, 139439, Note_on_c, 5, 62, 0
4, 139440, Note_on_c, 5, 60, 80
4, 139559, Note_on_c, 5, 60, 0
4, 139560, Note_on_c, 5, 62, 80
4, 139679, Note_on_c, 5, 62, 0
4, 139800, Note_on_c, 5, 60, 80
4, 139919, Note_on_c, 5, 60, 0
4, 139920, Note_on_c, 5, 62, 80
4, 140039, Note_on_c, 5, 62, 0
4, 140040, Note_on_c, 5, 64, 80
4, 140159, Note_on_c, 5, 64, 0
4, 140160, Note_on_c, 5, 65, 80
4, 140399, Note_on_c, 5, 65, 0
4, 140400, Note_on_c, 5, 64, 80
4, 140519, Note_on_c, 5, 64, 0
4, 140520, Note_on_c, 5, 65, 80
4, 140639, Note_on_c, 5, 65, 0
4, 140760, Note_on_c, 5, 64, 80
4, 140879, Note_on_c, 5, 64, 0
4, 140880, Note_on_c, 5, 65, 80
4, 141119, Note_on_c, 5, 65, 0
4, 141120, Note_on_c, 5, 67, 80
4, 141359, Note_on_c, 5, 67, 0
4, 141360, Note_on_c, 5, 64, 80
4, 141479, Note_on_c, 5, 64, 0
4, 141480, Note_on_c, 5, 67, 80
4, 141599, Note_on_c, 5, 67, 0
4, 141720, Note_on_c, 5, 64, 80
4, 141839, Note_on_c, 5, 64, 0
4, 141840, Note_on_c, 5, 67, 80
4, 142079, Note_on_c, 5, 67, 0
4, 142080, Note_on_c, 5, 69, 80
4, 142319, Note_on_c, 5, 69, 0
4, 142320, Note_on_c, 5, 67, 80
4, 142439, Note_on_c, 5, 67, 0
4, 142440, Note_on_c, 5, 69, 80
4, 142559, Note_on_c, 5, 69, 0
4, 142680, Note_on_c, 5, 67, 80
4, 142799, Note_on_c, 5, 67, 0
4, 142800, Note_on_c, 5, 69, 80
4, 143039, Note_on_c, 5, 69, 0
4, 143040, Note_on_c, 5, 62, 80
4, 143279, Note_on_c, 5, 62, 0
4, 143280, Note_on_c, 5, 60, 80
4, 143399, Note_on_c, 5, 60, 0
4, 143400, Note_on_c, 5, 62, 80
4, 143519, Note_on_c, 5, 62, 0
4, 143640, Note_on_c, 5, 60, 80
4, 143759, Note_on_c, 5, 60, 0
4, 143760, Note_on_c, 5, 62, 80
4, 143879, Note_on_c, 5, 62, 0
4, 143880, Note_on_c, 5, 64, 80
4, 143999, Note_on_c, 5, 64, 0
4, 144000, Note_on_c, 5, 65, 80
4, 144239, Note_on_c, 5, 65, 0
4, 144240, Note_on_c, 5, 64, 80
4, 144359, Note_on_c, 5, 64, 0
4, 144360, Note_on_c, 5, 65, 80
4, 144479, Note_on_c, 5, 65, 0
4, 144600, Note_on_c, 5, 64, 80
4, 144719, Note_on_c, 5, 64, 0
4, 144720, Note_on_c, 5, 65, 80
4, 144959, Note_on_c, 5, 65, 0
4, 144960, Note_on_c, 5, 67, 80
4, 145199, Note_on_c, 5, 67, 0
4, 145200, Note_on_c, 5, 64, 80
4, 145319, Note_on_c, 5, 64, 0
4, 145320, Note_on_c, 5, 67, 80
4, 145439, Note_on_c, 5, 67, 0
4, 145560, Note_on_c, 5, 64, 80
4, 145679, Note_on_c, 5, 64, 0
4, 145680, Note_on_c, 5, 67, 80
4, 145919, Note_on_c, 5, 67, 0
4, 145920, Note_on_c, 5, 81, 80
4, 146279, Note_on_c, 5, 81, 0
4, 146280, Note_on_c, 5, 81, 80
4, 146639, Note_on_c, 5, 81, 0
4, 146640, Note_on_c, 5, 81, 80
4, 146879, Note_on_c, 5, 81, 0
4, 146880, Note_on_c, 5, 74, 80
4, 147239, Note_on_c, 5, 74, 0
4, 147240, Note_on_c, 5, 74, 80
4, 147599, Note_on_c, 5, 74, 0
4, 147600, Note_on_c, 5, 74, 80
4, 147839, Note_on_c, 5, 74, 0
4, 147840, Note_on_c, 5, 77, 80
4, 148199, Note_on_c, 5, 77, 0
4, 148200, Note_on_c, 5, 77, 80
4, 148559, Note_on_c, 5, 77, 0
4, 148560, Note_on_c, 5, 77, 80
4, 148799, Note_on_c, 5, 77, 0
4, 148800, Note_on_c, 5, 79, 80
4, 149159, Note_on_c, 5, 79, 0
4, 149160, Note_on_c, 5, 79, 80
4, 149519, Note_on_c, 5, 79, 0
4, 149520, Note_on_c, 5, 79, 80
4, 149759, Note_on_c, 5, 79, 0
4, 149760, Note_on_c, 5, 81, 80
4, 150119, Note_on_c, 5, 81, 0
4, 150120, Note_on_c, 5, 81, 80
4, 150479, Note_on_c, 5, 81, 0
4, 150480, Note_on_c, 5, 81, 80
4, 150719, Note_on_c, 5, 81, 0
4, 150720, Note_on_c, 5, 74, 80
4, 151079, Note_on_c, 5, 74, 0
4, 151080, Note_on_c, 5, 74, 80
4, 151439, Note_on_c, 5, 74, 0
4, 151440, Note_on_c, 5, 74, 80
4, 151679, Note_on_c, 5, 74, 0
4, 151680, Note_on_c, 5, 77, 80
4, 152039, Note_on_c, 5, 77, 0
4, 152040, Note_on_c, 5, 77, 80
4, 152399, Note_on_c, 5, 77, 0
4, 152400, Note_on_c, 5, 77, 80
4, 152639, Note_on_c, 5, 77, 0
4, 152640, Note_on_c, 5, 79, 80
4, 152999, Note_on_c, 5, 79, 0
4, 153000, Note_on_c, 5, 79, 80
4, 153359, Note_on_c, 5, 79, 0
4, 153360, Note_on_c, 5, 79, 80
4, 153599, Note_on_c, 5, 79, 0
4, 153600, Note_on_c, 5, 81, 80
4, 153959, Note_on_c, 5, 81, 0
4, 153960, Note_on_c, 5, 81, 80
4, 154319, Note_on_c, 5, 81, 0
4, 154320, Note_on_c, 5, 81, 80
4, 154559, Note_on_c, 5, 81, 0
4, 154560, Note_on_c, 5, 74, 80
4, 154919, Note_on_c, 5, 74, 0
4, 154920, Note_on_c, 5, 74, 80
4, 155279, Note_on_c, 5, 74, 0
4, 155280, Note_on_c, 5, 74, 80
4, 155519, Note_on_c, 5, 74, 0
4, 155520, Note_on_c, 5, 77, 80
4, 155879, Note_on_c, 5, 77, 0
4, 155880, Note_on_c, 5, 77, 80
4, 156239, Note_on_c, 5, 77, 0
4, 156240, Note_on_c, 5, 77, 80
4, 156479, Note_on_c, 5, 77, 0
4, 156480, Note_on_c, 5, 79, 80
4, 156839, Note_on_c, 5, 79, 0
4, 156840, Note_on_c, 5, 79, 80
4, 157199, Note_on_c, 5, 79, 0
4, 157200, Note_on_c, 5, 79, 80
4, 157439, Note_on_c, 5, 79, 0
4, 157440, Note_on_c, 5, 81, 80
4, 157799, Note_on_c, 5, 81, 0
4, 157800, Note_on_c, 5, 81, 80
4, 158159, Note_on_c, 5, 81, 0
4, 158160, Note_on_c, 5, 81, 80
4, 158399, Note_on_c, 5, 81, 0
4, 158400, Note_on_c, 5, 74, 80
4, 158759, Note_on_c, 5, 74, 0
4, 158760, Note_on_c, 5, 74, 80
4, 159119, Note_on_c, 5, 74, 0
4, 159120, Note_on_c, 5, 74, 80
4, 159359, Note_on_c, 5, 74, 0
4, 159360, Note_on_c, 5, 77, 80
4, 159719, Note_on_c, 5, 77, 0
4, 159720, Note_on_c, 5, 77, 80
4, 160079, Note_on_c, 5, 77, 0
4, 160080, Note_on_c, 5, 77, 80
4, 160319, Note_on_c, 5, 77, 0
4, 160320, Note_on_c, 5, 79, 80
4, 160679, Note_on_c, 5, 79, 0
4, 160680, Note_on_c, 5, 79, 80
4, 161039, Note_on_c, 5, 79, 0
4, 161040, Note_on_c, 5, 79, 80
4, 161279, Note_on_c, 5, 79, 0
4, 161280, Note_on_c, 5, 69, 80
4, 161519, Note_on_c, 5, 69, 0
4, 161520, Note_on_c, 5, 67, 80
4, 161639, Note_on_c, 5, 67, 0
4, 161640, Note_on_c, 5, 69, 80
4, 161759, Note_on_c, 5, 69, 0
4, 161880, Note_on_c, 5, 67, 80
4, 161999, Note_on_c, 5, 67, 0
4, 162000, Note_on_c, 5, 69, 80
4, 162239, Note_on_c, 5, 69, 0
4, 162240, Note_on_c, 5, 62, 80
4, 162479, Note_on_c, 5, 62, 0
4, 162480, Note_on_c, 5, 60, 80
4, 162599, Note_on_c, 5, 60, 0
4, 162600, Note_on_c, 5, 62, 80
4, 162719, Note_on_c, 5, 62, 0
4, 162840, Note_on_c, 5, 60, 80
4, 162959, Note_on_c, 5, 60, 0
4, 162960, Note_on_c, 5, 62, 80
4, 163079, Note_on_c, 5, 62, 0
4, 163080, Note_on_c, 5, 64, 80
4, 163199, Note_on_c, 5, 64, 0
4, 163200, Note_on_c, 5, 65, 80
4, 163439, Note_on_c, 5, 65, 0
4, 163440, Note_on_c, 5, 64, 80
4, 163559, Note_on_c, 5, 64, 0
4, 163560, Note_on_c, 5, 65, 80
4, 163679, Note_on_c, 5, 65, 0
4, 163800, Note_on_c, 5, 64, 80
4, 163919, Note_on_c, 5, 64, 0
4, 163920, Note_on_c, 5, 65, 80
4, 164159, Note_on_c, 5, 65, 0
4, 164160, Note_on_c, 5, 67, 80
4, 164399, Note_on_c, 5, 67, 0
4, 164400, Note_on_c, 5, 64, 80
4, 164519, Note_on_c, 5, 64, 0
4, 164520, Note_on_c, 5, 67, 80
4, 164639, Note_on_c, 5, 67, 0
4, 164760, Note_on_c, 5, 64, 80
4, 164879, Note_on_c, 5, 64, 0
4, 164880, Note_on_c, 5, 67, 80
4, 165119, Note_on_c, 5, 67, 0
4, 165120, Note_on_c, 5, 69, 80
4, 165359, Note_on_c, 5, 69, 0
4, 165360, Note_on_c, 5, 67, 80
4, 165479, Note_on_c, 5, 67, 0
4, 165480, Note_on_c, 5, 69, 80
4, 165599, Note_on_c, 5, 69, 0
4, 165720, Note_on_c, 5, 67, 80
4, 165839, Note_on_c, 5, 67, 0
4, 165840, Note_on_c, 5, 69, 80
4, 166079, Note_on_c, 5, 69, 0
4, 166080, Note_on_c, 5, 62, 80
4, 166319, Note_on_c, 5, 62, 0
4, 166320, Note_on_c, 5, 60, 80
4, 166439, Note_on_c, 5, 60, 0
4, 166440, Note_on_c, 5, 62, 80
4, 166559, Note_on_c, 5, 62, 0
4, 166680, Note_on_c, 5, 60, 80
4, 166799, Note_on_c, 5, 60, 0
4, 166800, Note_on_c, 5, 62, 80
4, 166919, Note_on_c, 5, 62, 0
4, 166920, Note_on_c, 5, 64, 80
4, 167039, Note_on_c, 5, 64, 0
4, 167040, Note_on_c, 5, 65, 80
4, 167279, Note_on_c, 5, 65, 0
4, 167280, Note_on_c, 5, 64, 80
4, 167399, Note_on_c, 5, 64, 0
4, 167400, Note_on_c, 5, 65, 80
4, 167519, Note_on_c, 5, 65, 0
4, 167640, Note_on_c, 5, 64, 80
4, 167759, Note_on_c, 5, 64, 0
4, 167760, Note_on_c, 5, 65, 80
4, 167999, Note_on_c, 5, 65, 0
4, 168000, Note_on_c, 5, 67, 80
4, 168239, Note_on_c, 5, 67, 0
4, 168240, Note_on_c, 5, 64, 80
4, 168359, Note_on_c, 5, 64, 0
4, 168360, Note_on_c, 5, 67, 80
4, 168479, Note_on_c, 5, 67, 0
4, 168600, Note_on_c, 5, 64, 80
4, 168719, Note_on_c, 5, 64, 0
4, 168720, Note_on_c, 5, 67, 80
4, 168959, Note_on_c, 5, 67, 0
4, 168960, Note_on_c, 5, 69, 80
4, 169199, Note_on_c, 5, 69, 0
4, 169200, Note_on_c, 5, 67, 80
4, 169319, Note_on_c, 5, 67, 0
4, 169320, Note_on_c, 5, 69, 80
4, 169439, Note_on_c, 5, 69, 0
4, 169560, Note_on_c, 5, 67, 80
4, 169679, Note_on_c, 5, 67, 0
4, 169680, Note_on_c, 5, 69, 80
4, 169919, Note_on_c, 5, 69, 0
4, 169920, Note_on_c, 5, 62, 80
4, 170159, Note_on_c, 5, 62, 0
4, 170160, Note_on_c, 5, 60, 80
4, 170279, Note_on_c, 5, 60, 0
4, 170280, Note_on_c, 5, 62, 80
4, 170399, Note_on_c, 5, 62, 0
4, 170520, Note_on_c, 5, 60, 80
4, 170639, Note_on_c, 5, 60, 0
4, 170640, Note_on_c, 5, 62, 80
4, 170759, Note_on_c, 5, 62, 0
4, 170760, Note_on_c, 5, 64, 80
4, 170879, Note_on_c, 5, 64, 0
4, 170880, Note_on_c, 5, 65, 80
4, 171119, Note_on_c, 5, 65, 0
4, 171120, Note_on_c, 5, 64, 80
4, 171239, Note_on_c, 5, 64, 0
4, 171240, Note_on_c, 5, 65, 80
4, 171359, Note_on_c, 5, 65, 0
4, 171480, Note_on_c, 5, 64, 80
4, 171599, Note_on_c, 5, 64, 0
4, 171600, Note_on_c, 5, 65, 80
4, 171839, Note_on_c, 5, 65, 0
4, 171840, Note_on_c, 5, 67, 80
4, 172079, Note_on_c, 5, 67, 0
4, 172080, Note_on_c, 5, 64, 80
4, 172199, Note_on_c, 5, 64, 0
4, 172200, Note_on_c, 5, 67, 80
4, 172319, Note_on_c, 5, 67, 0
4, 172440, Note_on_c, 5, 64, 80
4, 172559, Note_on_c, 5, 64, 0
4, 172560, Note_on_c, 5, 67, 80
4, 172799, Note_on_c, 5, 67, 0
4, 172800, Note_on_c, 5, 69, 80
4, 172979, Note_on_c, 5, 69, 0
4, 173160, Note_on_c, 5, 69, 80
4, 173279, Note_on_c, 5, 69, 0
4, 173760, Note_on_c, 5, 62, 80
4, 173939, Note_on_c, 5, 62, 0
4, 174120, Note_on_c, 5, 62, 80
4, 174239, Note_on_c, 5, 62, 0
4, 174720, Note_on_c, 5, 65, 80
4, 174899, Note_on_c, 5, 65, 0
4, 175080, Note_on_c, 5, 65, 80
4, 175199, Note_on_c, 5, 65, 0
4, 175680, Note_on_c, 5, 67, 80
4, 175859, Note_on_c, 5, 67, 0
4, 176040, Note_on_c, 5, 67, 80
4, 176159, Note_on_c, 5, 67, 0
4, 176160, End_track
5, 0, Start_track
5, 0, Title_t, "Classical Guitar, Partie B en TAB (Guitare)\000"
5, 0, Key_signature, 0, "major"
5, 0, Control_c, 6, 121, 0
5, 0, Program_c, 6, 24
5, 0, Control_c, 6, 7, 100
5, 0, Control_c, 6, 10, 64
5, 0, Control_c, 6, 91, 0
5, 0, Control_c, 6, 93, 0
5, 0, MIDI_port, 0
5, 0, Note_on_c, 6, 64, 80
5, 0, Note_on_c, 6, 69, 80
5, 0, Control_c, 2, 121, 0
5, 0, Program_c, 2, 28
5, 0, Control_c, 2, 7, 100
5, 0, Control_c, 2, 10, 64
5, 0, Control_c, 2, 91, 0
5, 0, Control_c, 2, 93, 0
5, 0, MIDI_port, 0
5, 359, Note_on_c, 6, 64, 0
5, 359, Note_on_c, 6, 69, 0
5, 360, Note_on_c, 6, 64, 80
5, 360, Note_on_c, 6, 72, 80
5, 719, Note_on_c, 6, 64, 0
5, 719, Note_on_c, 6, 72, 0
5, 720, Note_on_c, 6, 64, 80
5, 720, Note_on_c, 6, 69, 80
5, 959, Note_on_c, 6, 64, 0
5, 959, Note_on_c, 6, 69, 0
5, 960, Note_on_c, 6, 65, 80
5, 960, Note_on_c, 6, 69, 80
5, 1319, Note_on_c, 6, 65, 0
5, 1319, Note_on_c, 6, 69, 0
5, 1320, Note_on_c, 6, 65, 80
5, 1320, Note_on_c, 6, 72, 80
5, 1679, Note_on_c, 6, 65, 0
5, 1679, Note_on_c, 6, 72, 0
5, 1680, Note_on_c, 6, 65, 80
5, 1680, Note_on_c, 6, 69, 80
5, 1919, Note_on_c, 6, 65, 0
5, 1919, Note_on_c, 6, 69, 0
5, 1920, Note_on_c, 6, 65, 80
5, 1920, Note_on_c, 6, 69, 80
5, 2279, Note_on_c, 6, 65, 0
5, 2279, Note_on_c, 6, 69, 0
5, 2280, Note_on_c, 6, 65, 80
5, 2280, Note_on_c, 6, 72, 80
5, 2639, Note_on_c, 6, 65, 0
5, 2639, Note_on_c, 6, 72, 0
5, 2640, Note_on_c, 6, 65, 80
5, 2640, Note_on_c, 6, 69, 80
5, 2879, Note_on_c, 6, 65, 0
5, 2879, Note_on_c, 6, 69, 0
5, 2880, Note_on_c, 6, 62, 80
5, 2880, Note_on_c, 6, 71, 80
5, 3239, Note_on_c, 6, 62, 0
5, 3239, Note_on_c, 6, 71, 0
5, 3240, Note_on_c, 6, 62, 80
5, 3240, Note_on_c, 6, 69, 80
5, 3599, Note_on_c, 6, 62, 0
5, 3599, Note_on_c, 6, 69, 0
5, 3600, Note_on_c, 6, 62, 80
5, 3600, Note_on_c, 6, 67, 80
5, 3839, Note_on_c, 6, 62, 0
5, 3839, Note_on_c, 6, 67, 0
5, 3840, Note_on_c, 6, 64, 80
5, 3840, Note_on_c, 6, 69, 80
5, 4199, Note_on_c, 6, 64, 0
5, 4199, Note_on_c, 6, 69, 0
5, 4200, Note_on_c, 6, 64, 80
5, 4200, Note_on_c, 6, 72, 80
5, 4559, Note_on_c, 6, 64, 0
5, 4559, Note_on_c, 6, 72, 0
5, 4560, Note_on_c, 6, 64, 80
5, 4560, Note_on_c, 6, 69, 80
5, 4799, Note_on_c, 6, 64, 0
5, 4799, Note_on_c, 6, 69, 0
5, 4800, Note_on_c, 6, 65, 80
5, 4800, Note_on_c, 6, 69, 80
5, 5159, Note_on_c, 6, 65, 0
5, 5159, Note_on_c, 6, 69, 0
5, 5160, Note_on_c, 6, 65, 80
5, 5160, Note_on_c, 6, 72, 80
5, 5519, Note_on_c, 6, 65, 0
5, 5519, Note_on_c, 6, 72, 0
5, 5520, Note_on_c, 6, 65, 80
5, 5520, Note_on_c, 6, 69, 80
5, 5759, Note_on_c, 6, 65, 0
5, 5759, Note_on_c, 6, 69, 0
5, 5760, Note_on_c, 6, 65, 80
5, 5760, Note_on_c, 6, 69, 80
5, 6119, Note_on_c, 6, 65, 0
5, 6119, Note_on_c, 6, 69, 0
5, 6120, Note_on_c, 6, 65, 80
5, 6120, Note_on_c, 6, 72, 80
5, 6479, Note_on_c, 6, 65, 0
5, 6479, Note_on_c, 6, 72, 0
5, 6480, Note_on_c, 6, 65, 80
5, 6480, Note_on_c, 6, 69, 80
5, 6719, Note_on_c, 6, 65, 0
5, 6719, Note_on_c, 6, 69, 0
5, 6720, Note_on_c, 6, 62, 80
5, 6720, Note_on_c, 6, 71, 80
5, 7079, Note_on_c, 6, 62, 0
5, 7079, Note_on_c, 6, 71, 0
5, 7080, Note_on_c, 6, 62, 80
5, 7080, Note_on_c, 6, 69, 80
5, 7439, Note_on_c, 6, 62, 0
5, 7439, Note_on_c, 6, 69, 0
5, 7440, Note_on_c, 6, 62, 80
5, 7440, Note_on_c, 6, 67, 80
5, 7679, Note_on_c, 6, 62, 0
5, 7679, Note_on_c, 6, 67, 0
5, 7680, Note_on_c, 6, 64, 80
5, 7680, Note_on_c, 6, 69, 80
5, 8039, Note_on_c, 6, 64, 0
5, 8039, Note_on_c, 6, 69, 0
5, 8040, Note_on_c, 6, 64, 80
5, 8040, Note_on_c, 6, 72, 80
5, 8399, Note_on_c, 6, 64, 0
5, 8399, Note_on_c, 6, 72, 0
5, 8400, Note_on_c, 6, 64, 80
5, 8400, Note_on_c, 6, 69, 80
5, 8639, Note_on_c, 6, 64, 0
5, 8639, Note_on_c, 6, 69, 0
5, 8640, Note_on_c, 6, 65, 80
5, 8640, Note_on_c, 6, 69, 80
5, 8999, Note_on_c, 6, 65, 0
5, 8999, Note_on_c, 6, 69, 0
5, 9000, Note_on_c, 6, 65, 80
5, 9000, Note_on_c, 6, 72, 80
5, 9359, Note_on_c, 6, 65, 0
5, 9359, Note_on_c, 6, 72, 0
5, 9360, Note_on_c, 6, 65, 80
5, 9360, Note_on_c, 6, 69, 80
5, 9599, Note_on_c, 6, 65, 0
5, 9599, Note_on_c, 6, 69, 0
5, 9600, Note_on_c, 6, 65, 80
5, 9600, Note_on_c, 6, 69, 80
5, 9959, Note_on_c, 6, 65, 0
5, 9959, Note_on_c, 6, 69, 0
5, 9960, Note_on_c, 6, 65, 80
5, 9960, Note_on_c, 6, 72, 80
5, 10319, Note_on_c, 6, 65, 0
5, 10319, Note_on_c, 6, 72, 0
5, 10320, Note_on_c, 6, 65, 80
5, 10320, Note_on_c, 6, 69, 80
5, 10559, Note_on_c, 6, 65, 0
5, 10559, Note_on_c, 6, 69, 0
5, 10560, Note_on_c, 6, 62, 80
5, 10560, Note_on_c, 6, 72, 80
5, 10919, Note_on_c, 6, 62, 0
5, 10919, Note_on_c, 6, 72, 0
5, 10920, Note_on_c, 6, 62, 80
5, 10920, Note_on_c, 6, 71, 80
5, 11279, Note_on_c, 6, 62, 0
5, 11279, Note_on_c, 6, 71, 0
5, 11280, Note_on_c, 6, 62, 80
5, 11280, Note_on_c, 6, 67, 80
5, 11519, Note_on_c, 6, 62, 0
5, 11519, Note_on_c, 6, 67, 0
5, 11520, Note_on_c, 6, 64, 80
5, 11520, Note_on_c, 6, 69, 80
5, 11879, Note_on_c, 6, 64, 0
5, 11879, Note_on_c, 6, 69, 0
5, 11880, Note_on_c, 6, 64, 80
5, 11880, Note_on_c, 6, 72, 80
5, 12239, Note_on_c, 6, 64, 0
5, 12239, Note_on_c, 6, 72, 0
5, 12240, Note_on_c, 6, 64, 80
5, 12240, Note_on_c, 6, 69, 80
5, 12479, Note_on_c, 6, 64, 0
5, 12479, Note_on_c, 6, 69, 0
5, 12480, Note_on_c, 6, 65, 80
5, 12480, Note_on_c, 6, 69, 80
5, 12839, Note_on_c, 6, 65, 0
5, 12839, Note_on_c, 6, 69, 0
5, 12840, Note_on_c, 6, 65, 80
5, 12840, Note_on_c, 6, 72, 80
5, 13199, Note_on_c, 6, 65, 0
5, 13199, Note_on_c, 6, 72, 0
5, 13200, Note_on_c, 6, 65, 80
5, 13200, Note_on_c, 6, 69, 80
5, 13439, Note_on_c, 6, 65, 0
5, 13439, Note_on_c, 6, 69, 0
5, 13440, Note_on_c, 6, 65, 80
5, 13440, Note_on_c, 6, 69, 80
5, 13799, Note_on_c, 6, 65, 0
5, 13799, Note_on_c, 6, 69, 0
5, 13800, Note_on_c, 6, 65, 80
5, 13800, Note_on_c, 6, 72, 80
5, 14159, Note_on_c, 6, 65, 0
5, 14159, Note_on_c, 6, 72, 0
5, 14160, Note_on_c, 6, 65, 80
5, 14160, Note_on_c, 6, 69, 80
5, 14399, Note_on_c, 6, 65, 0
5, 14399, Note_on_c, 6, 69, 0
5, 14400, Note_on_c, 6, 62, 80
5, 14400, Note_on_c, 6, 71, 80
5, 14759, Note_on_c, 6, 62, 0
5, 14759, Note_on_c, 6, 71, 0
5, 14760, Note_on_c, 6, 62, 80
5, 14760, Note_on_c, 6, 69, 80
5, 15119, Note_on_c, 6, 62, 0
5, 15119, Note_on_c, 6, 69, 0
5, 15120, Note_on_c, 6, 62, 80
5, 15120, Note_on_c, 6, 67, 80
5, 15359, Note_on_c, 6, 62, 0
5, 15359, Note_on_c, 6, 67, 0
5, 15360, Note_on_c, 6, 64, 80
5, 15360, Note_on_c, 6, 69, 80
5, 15719, Note_on_c, 6, 64, 0
5, 15719, Note_on_c, 6, 69, 0
5, 15720, Note_on_c, 6, 64, 80
5, 15720, Note_on_c, 6, 72, 80
5, 16079, Note_on_c, 6, 64, 0
5, 16079, Note_on_c, 6, 72, 0
5, 16080, Note_on_c, 6, 64, 80
5, 16080, Note_on_c, 6, 69, 80
5, 16319, Note_on_c, 6, 64, 0
5, 16319, Note_on_c, 6, 69, 0
5, 16320, Note_on_c, 6, 65, 80
5, 16320, Note_on_c, 6, 69, 80
5, 16679, Note_on_c, 6, 65, 0
5, 16679, Note_on_c, 6, 69, 0
5, 16680, Note_on_c, 6, 65, 80
5, 16680, Note_on_c, 6, 72, 80
5, 17039, Note_on_c, 6, 65, 0
5, 17039, Note_on_c, 6, 72, 0
5, 17040, Note_on_c, 6, 65, 80
5, 17040, Note_on_c, 6, 69, 80
5, 17279, Note_on_c, 6, 65, 0
5, 17279, Note_on_c, 6, 69, 0
5, 17280, Note_on_c, 6, 65, 80
5, 17280, Note_on_c, 6, 69, 80
5, 17639, Note_on_c, 6, 65, 0
5, 17639, Note_on_c, 6, 69, 0
5, 17640, Note_on_c, 6, 65, 80
5, 17640, Note_on_c, 6, 72, 80
5, 17999, Note_on_c, 6, 65, 0
5, 17999, Note_on_c, 6, 72, 0
5, 18000, Note_on_c, 6, 65, 80
5, 18000, Note_on_c, 6, 69, 80
5, 18239, Note_on_c, 6, 65, 0
5, 18239, Note_on_c, 6, 69, 0
5, 18240, Note_on_c, 6, 62, 80
5, 18240, Note_on_c, 6, 72, 80
5, 18599, Note_on_c, 6, 62, 0
5, 18599, Note_on_c, 6, 72, 0
5, 18600, Note_on_c, 6, 62, 80
5, 18600, Note_on_c, 6, 71, 80
5, 18959, Note_on_c, 6, 62, 0
5, 18959, Note_on_c, 6, 71, 0
5, 18960, Note_on_c, 6, 62, 80
5, 18960, Note_on_c, 6, 67, 80
5, 19199, Note_on_c, 6, 62, 0
5, 19199, Note_on_c, 6, 67, 0
5, 19200, Note_on_c, 6, 64, 80
5, 19200, Note_on_c, 6, 69, 80
5, 19559, Note_on_c, 6, 64, 0
5, 19559, Note_on_c, 6, 69, 0
5, 19560, Note_on_c, 6, 64, 80
5, 19560, Note_on_c, 6, 72, 80
5, 19919, Note_on_c, 6, 64, 0
5, 19919, Note_on_c, 6, 72, 0
5, 19920, Note_on_c, 6, 64, 80
5, 19920, Note_on_c, 6, 69, 80
5, 20159, Note_on_c, 6, 64, 0
5, 20159, Note_on_c, 6, 69, 0
5, 20160, Note_on_c, 6, 65, 80
5, 20160, Note_on_c, 6, 69, 80
5, 20519, Note_on_c, 6, 65, 0
5, 20519, Note_on_c, 6, 69, 0
5, 20520, Note_on_c, 6, 65, 80
5, 20520, Note_on_c, 6, 72, 80
5, 20879, Note_on_c, 6, 65, 0
5, 20879, Note_on_c, 6, 72, 0
5, 20880, Note_on_c, 6, 65, 80
5, 20880, Note_on_c, 6, 69, 80
5, 21119, Note_on_c, 6, 65, 0
5, 21119, Note_on_c, 6, 69, 0
5, 21120, Note_on_c, 6, 65, 80
5, 21120, Note_on_c, 6, 69, 80
5, 21479, Note_on_c, 6, 65, 0
5, 21479, Note_on_c, 6, 69, 0
5, 21480, Note_on_c, 6, 65, 80
5, 21480, Note_on_c, 6, 72, 80
5, 21839, Note_on_c, 6, 65, 0
5, 21839, Note_on_c, 6, 72, 0
5, 21840, Note_on_c, 6, 65, 80
5, 21840, Note_on_c, 6, 69, 80
5, 22079, Note_on_c, 6, 65, 0
5, 22079, Note_on_c, 6, 69, 0
5, 22080, Note_on_c, 6, 62, 80
5, 22080, Note_on_c, 6, 71, 80
5, 22439, Note_on_c, 6, 62, 0
5, 22439, Note_on_c, 6, 71, 0
5, 22440, Note_on_c, 6, 62, 80
5, 22440, Note_on_c, 6, 69, 80
5, 22799, Note_on_c, 6, 62, 0
5, 22799, Note_on_c, 6, 69, 0
5, 22800, Note_on_c, 6, 62, 80
5, 22800, Note_on_c, 6, 67, 80
5, 23039, Note_on_c, 6, 62, 0
5, 23039, Note_on_c, 6, 67, 0
5, 23040, Note_on_c, 6, 64, 80
5, 23040, Note_on_c, 6, 69, 80
5, 23399, Note_on_c, 6, 64, 0
5, 23399, Note_on_c, 6, 69, 0
5, 23400, Note_on_c, 6, 64, 80
5, 23400, Note_on_c, 6, 72, 80
5, 23759, Note_on_c, 6, 64, 0
5, 23759, Note_on_c, 6, 72, 0
5, 23760, Note_on_c, 6, 64, 80
5, 23760, Note_on_c, 6, 69, 80
5, 23999, Note_on_c, 6, 64, 0
5, 23999, Note_on_c, 6, 69, 0
5, 24000, Note_on_c, 6, 65, 80
5, 24000, Note_on_c, 6, 69, 80
5, 24359, Note_on_c, 6, 65, 0
5, 24359, Note_on_c, 6, 69, 0
5, 24360, Note_on_c, 6, 65, 80
5, 24360, Note_on_c, 6, 72, 80
5, 24719, Note_on_c, 6, 65, 0
5, 24719, Note_on_c, 6, 72, 0
5, 24720, Note_on_c, 6, 65, 80
5, 24720, Note_on_c, 6, 69, 80
5, 24959, Note_on_c, 6, 65, 0
5, 24959, Note_on_c, 6, 69, 0
5, 24960, Note_on_c, 6, 65, 80
5, 24960, Note_on_c, 6, 69, 80
5, 25319, Note_on_c, 6, 65, 0
5, 25319, Note_on_c, 6, 69, 0
5, 25320, Note_on_c, 6, 65, 80
5, 25320, Note_on_c, 6, 72, 80
5, 25679, Note_on_c, 6, 65, 0
5, 25679, Note_on_c, 6, 72, 0
5, 25680, Note_on_c, 6, 65, 80
5, 25680, Note_on_c, 6, 69, 80
5, 25919, Note_on_c, 6, 65, 0
5, 25919, Note_on_c, 6, 69, 0
5, 25920, Note_on_c, 6, 62, 80
5, 25920, Note_on_c, 6, 72, 80
5, 26279, Note_on_c, 6, 62, 0
5, 26279, Note_on_c, 6, 72, 0
5, 26280, Note_on_c, 6, 62, 80
5, 26280, Note_on_c, 6, 71, 80
5, 26639, Note_on_c, 6, 62, 0
5, 26639, Note_on_c, 6, 71, 0
5, 26640, Note_on_c, 6, 62, 80
5, 26640, Note_on_c, 6, 67, 80
5, 26879, Note_on_c, 6, 62, 0
5, 26879, Note_on_c, 6, 67, 0
5, 26880, Note_on_c, 6, 64, 80
5, 26880, Note_on_c, 6, 69, 80
5, 27239, Note_on_c, 6, 64, 0
5, 27239, Note_on_c, 6, 69, 0
5, 27240, Note_on_c, 6, 64, 80
5, 27240, Note_on_c, 6, 72, 80
5, 27599, Note_on_c, 6, 64, 0
5, 27599, Note_on_c, 6, 72, 0
5, 27600, Note_on_c, 6, 64, 80
5, 27600, Note_on_c, 6, 69, 80
5, 27839, Note_on_c, 6, 64, 0
5, 27839, Note_on_c, 6, 69, 0
5, 27840, Note_on_c, 6, 65, 80
5, 27840, Note_on_c, 6, 69, 80
5, 28199, Note_on_c, 6, 65, 0
5, 28199, Note_on_c, 6, 69, 0
5, 28200, Note_on_c, 6, 65, 80
5, 28200, Note_on_c, 6, 72, 80
5, 28559, Note_on_c, 6, 65, 0
5, 28559, Note_on_c, 6, 72, 0
5, 28560, Note_on_c, 6, 65, 80
5, 28560, Note_on_c, 6, 69, 80
5, 28799, Note_on_c, 6, 65, 0
5, 28799, Note_on_c, 6, 69, 0
5, 28800, Note_on_c, 6, 65, 80
5, 28800, Note_on_c, 6, 69, 80
5, 29159, Note_on_c, 6, 65, 0
5, 29159, Note_on_c, 6, 69, 0
5, 29160, Note_on_c, 6, 65, 80
5, 29160, Note_on_c, 6, 72, 80
5, 29519, Note_on_c, 6, 65, 0
5, 29519, Note_on_c, 6, 72, 0
5, 29520, Note_on_c, 6, 65, 80
5, 29520, Note_on_c, 6, 69, 80
5, 29759, Note_on_c, 6, 65, 0
5, 29759, Note_on_c, 6, 69, 0
5, 29760, Note_on_c, 6, 62, 80
5, 29760, Note_on_c, 6, 71, 80
5, 30119, Note_on_c, 6, 62, 0
5, 30119, Note_on_c, 6, 71, 0
5, 30120, Note_on_c, 6, 62, 80
5, 30120, Note_on_c, 6, 69, 80
5, 30479, Note_on_c, 6, 62, 0
5, 30479, Note_on_c, 6, 69, 0
5, 30480, Note_on_c, 6, 62, 80
5, 30480, Note_on_c, 6, 67, 80
5, 30719, Note_on_c, 6, 62, 0
5, 30719, Note_on_c, 6, 67, 0
5, 30720, Note_on_c, 6, 64, 80
5, 30720, Note_on_c, 6, 69, 80
5, 31079, Note_on_c, 6, 64, 0
5, 31079, Note_on_c, 6, 69, 0
5, 31080, Note_on_c, 6, 64, 80
5, 31080, Note_on_c, 6, 72, 80
5, 31439, Note_on_c, 6, 64, 0
5, 31439, Note_on_c, 6, 72, 0
5, 31440, Note_on_c, 6, 64, 80
5, 31440, Note_on_c, 6, 69, 80
5, 31679, Note_on_c, 6, 64, 0
5, 31679, Note_on_c, 6, 69, 0
5, 31680, Note_on_c, 6, 65, 80
5, 31680, Note_on_c, 6, 69, 80
5, 32039, Note_on_c, 6, 65, 0
5, 32039, Note_on_c, 6, 69, 0
5, 32040, Note_on_c, 6, 65, 80
5, 32040, Note_on_c, 6, 72, 80
5, 32399, Note_on_c, 6, 65, 0
5, 32399, Note_on_c, 6, 72, 0
5, 32400, Note_on_c, 6, 65, 80
5, 32400, Note_on_c, 6, 69, 80
5, 32639, Note_on_c, 6, 65, 0
5, 32639, Note_on_c, 6, 69, 0
5, 32640, Note_on_c, 6, 65, 80
5, 32640, Note_on_c, 6, 69, 80
5, 32999, Note_on_c, 6, 65, 0
5, 32999, Note_on_c, 6, 69, 0
5, 33000, Note_on_c, 6, 65, 80
5, 33000, Note_on_c, 6, 72, 80
5, 33359, Note_on_c, 6, 65, 0
5, 33359, Note_on_c, 6, 72, 0
5, 33360, Note_on_c, 6, 65, 80
5, 33360, Note_on_c, 6, 69, 80
5, 33599, Note_on_c, 6, 65, 0
5, 33599, Note_on_c, 6, 69, 0
5, 33600, Note_on_c, 6, 62, 80
5, 33600, Note_on_c, 6, 72, 80
5, 33959, Note_on_c, 6, 62, 0
5, 33959, Note_on_c, 6, 72, 0
5, 33960, Note_on_c, 6, 62, 80
5, 33960, Note_on_c, 6, 71, 80
5, 34319, Note_on_c, 6, 62, 0
5, 34319, Note_on_c, 6, 71, 0
5, 34320, Note_on_c, 6, 62, 80
5, 34320, Note_on_c, 6, 67, 80
5, 34559, Note_on_c, 6, 62, 0
5, 34559, Note_on_c, 6, 67, 0
5, 34560, Note_on_c, 6, 64, 80
5, 34560, Note_on_c, 6, 69, 80
5, 34919, Note_on_c, 6, 64, 0
5, 34919, Note_on_c, 6, 69, 0
5, 34920, Note_on_c, 6, 64, 80
5, 34920, Note_on_c, 6, 72, 80
5, 35279, Note_on_c, 6, 64, 0
5, 35279, Note_on_c, 6, 72, 0
5, 35280, Note_on_c, 6, 64, 80
5, 35280, Note_on_c, 6, 69, 80
5, 35519, Note_on_c, 6, 64, 0
5, 35519, Note_on_c, 6, 69, 0
5, 35520, Note_on_c, 6, 65, 80
5, 35520, Note_on_c, 6, 69, 80
5, 35879, Note_on_c, 6, 65, 0
5, 35879, Note_on_c, 6, 69, 0
5, 35880, Note_on_c, 6, 65, 80
5, 35880, Note_on_c, 6, 72, 80
5, 36239, Note_on_c, 6, 65, 0
5, 36239, Note_on_c, 6, 72, 0
5, 36240, Note_on_c, 6, 65, 80
5, 36240, Note_on_c, 6, 69, 80
5, 36479, Note_on_c, 6, 65, 0
5, 36479, Note_on_c, 6, 69, 0
5, 36480, Note_on_c, 6, 65, 80
5, 36480, Note_on_c, 6, 69, 80
5, 36719, Note_on_c, 6, 65, 0
5, 36719, Note_on_c, 6, 69, 0
5, 38400, Note_on_c, 6, 64, 80
5, 38400, Note_on_c, 6, 69, 80
5, 38759, Note_on_c, 6, 64, 0
5, 38759, Note_on_c, 6, 69, 0
5, 38760, Note_on_c, 6, 64, 80
5, 38760, Note_on_c, 6, 72, 80
5, 39119, Note_on_c, 6, 64, 0
5, 39119, Note_on_c, 6, 72, 0
5, 39120, Note_on_c, 6, 64, 80
5, 39120, Note_on_c, 6, 69, 80
5, 39359, Note_on_c, 6, 64, 0
5, 39359, Note_on_c, 6, 69, 0
5, 39360, Note_on_c, 6, 65, 80
5, 39360, Note_on_c, 6, 69, 80
5, 39719, Note_on_c, 6, 65, 0
5, 39719, Note_on_c, 6, 69, 0
5, 39720, Note_on_c, 6, 65, 80
5, 39720, Note_on_c, 6, 72, 80
5, 40079, Note_on_c, 6, 65, 0
5, 40079, Note_on_c, 6, 72, 0
5, 40080, Note_on_c, 6, 65, 80
5, 40080, Note_on_c, 6, 69, 80
5, 40319, Note_on_c, 6, 65, 0
5, 40319, Note_on_c, 6, 69, 0
5, 40320, Note_on_c, 6, 65, 80
5, 40320, Note_on_c, 6, 69, 80
5, 40679, Note_on_c, 6, 65, 0
5, 40679, Note_on_c, 6, 69, 0
5, 40680, Note_on_c, 6, 65, 80
5, 40680, Note_on_c, 6, 72, 80
5, 41039, Note_on_c, 6, 65, 0
5, 41039, Note_on_c, 6, 72, 0
5, 41040, Note_on_c, 6, 65, 80
5, 41040, Note_on_c, 6, 69, 80
5, 41279, Note_on_c, 6, 65, 0
5, 41279, Note_on_c, 6, 69, 0
5, 41280, Note_on_c, 6, 62, 80
5, 41280, Note_on_c, 6, 72, 80
5, 41639, Note_on_c, 6, 62, 0
5, 41639, Note_on_c, 6, 72, 0
5, 41640, Note_on_c, 6, 62, 80
5, 41640, Note_on_c, 6, 71, 80
5, 41999, Note_on_c, 6, 62, 0
5, 41999, Note_on_c, 6, 71, 0
5, 42000, Note_on_c, 6, 62, 80
5, 42000, Note_on_c, 6, 67, 80
5, 42239, Note_on_c, 6, 62, 0
5, 42239, Note_on_c, 6, 67, 0
5, 42240, Note_on_c, 6, 64, 80
5, 42240, Note_on_c, 6, 69, 80
5, 42599, Note_on_c, 6, 64, 0
5, 42599, Note_on_c, 6, 69, 0
5, 42600, Note_on_c, 6, 64, 80
5, 42600, Note_on_c, 6, 72, 80
5, 42959, Note_on_c, 6, 64, 0
5, 42959, Note_on_c, 6, 72, 0
5, 42960, Note_on_c, 6, 64, 80
5, 42960, Note_on_c, 6, 69, 80
5, 43199, Note_on_c, 6, 64, 0
5, 43199, Note_on_c, 6, 69, 0
5, 43200, Note_on_c, 6, 65, 80
5, 43200, Note_on_c, 6, 69, 80
5, 43559, Note_on_c, 6, 65, 0
5, 43559, Note_on_c, 6, 69, 0
5, 43560, Note_on_c, 6, 65, 80
5, 43560, Note_on_c, 6, 72, 80
5, 43919, Note_on_c, 6, 65, 0
5, 43919, Note_on_c, 6, 72, 0
5, 43920, Note_on_c, 6, 65, 80
5, 43920, Note_on_c, 6, 69, 80
5, 44159, Note_on_c, 6, 65, 0
5, 44159, Note_on_c, 6, 69, 0
5, 44160, Note_on_c, 6, 65, 80
5, 44160, Note_on_c, 6, 69, 80
5, 44519, Note_on_c, 6, 65, 0
5, 44519, Note_on_c, 6, 69, 0
5, 44520, Note_on_c, 6, 65, 80
5, 44520, Note_on_c, 6, 72, 80
5, 44879, Note_on_c, 6, 65, 0
5, 44879, Note_on_c, 6, 72, 0
5, 44880, Note_on_c, 6, 65, 80
5, 44880, Note_on_c, 6, 69, 80
5, 45119, Note_on_c, 6, 65, 0
5, 45119, Note_on_c, 6, 69, 0
5, 45120, Note_on_c, 6, 62, 80
5, 45120, Note_on_c, 6, 71, 80
5, 45479, Note_on_c, 6, 62, 0
5, 45479, Note_on_c, 6, 71, 0
5, 45480, Note_on_c, 6, 62, 80
5, 45480, Note_on_c, 6, 69, 80
5, 45839, Note_on_c, 6, 62, 0
5, 45839, Note_on_c, 6, 69, 0
5, 45840, Note_on_c, 6, 62, 80
5, 45840, Note_on_c, 6, 67, 80
5, 46079, Note_on_c, 6, 62, 0
5, 46079, Note_on_c, 6, 67, 0
5, 46080, Note_on_c, 6, 64, 80
5, 46080, Note_on_c, 6, 69, 80
5, 46439, Note_on_c, 6, 64, 0
5, 46439, Note_on_c, 6, 69, 0
5, 46440, Note_on_c, 6, 64, 80
5, 46440, Note_on_c, 6, 72, 80
5, 46799, Note_on_c, 6, 64, 0
5, 46799, Note_on_c, 6, 72, 0
5, 46800, Note_on_c, 6, 64, 80
5, 46800, Note_on_c, 6, 69, 80
5, 47039, Note_on_c, 6, 64, 0
5, 47039, Note_on_c, 6, 69, 0
5, 47040, Note_on_c, 6, 65, 80
5, 47040, Note_on_c, 6, 69, 80
5, 47399, Note_on_c, 6, 65, 0
5, 47399, Note_on_c, 6, 69, 0
5, 47400, Note_on_c, 6, 65, 80
5, 47400, Note_on_c, 6, 72, 80
5, 47759, Note_on_c, 6, 65, 0
5, 47759, Note_on_c, 6, 72, 0
5, 47760, Note_on_c, 6, 65, 80
5, 47760, Note_on_c, 6, 69, 80
5, 47999, Note_on_c, 6, 65, 0
5, 47999, Note_on_c, 6, 69, 0
5, 48000, Note_on_c, 6, 65, 80
5, 48000, Note_on_c, 6, 69, 80
5, 48359, Note_on_c, 6, 65, 0
5, 48359, Note_on_c, 6, 69, 0
5, 48360, Note_on_c, 6, 65, 80
5, 48360, Note_on_c, 6, 72, 80
5, 48719, Note_on_c, 6, 65, 0
5, 48719, Note_on_c, 6, 72, 0
5, 48720, Note_on_c, 6, 65, 80
5, 48720, Note_on_c, 6, 69, 80
5, 48959, Note_on_c, 6, 65, 0
5, 48959, Note_on_c, 6, 69, 0
5, 48960, Note_on_c, 6, 62, 80
5, 48960, Note_on_c, 6, 72, 80
5, 49319, Note_on_c, 6, 62, 0
5, 49319, Note_on_c, 6, 72, 0
5, 49320, Note_on_c, 6, 62, 80
5, 49320, Note_on_c, 6, 71, 80
5, 49679, Note_on_c, 6, 62, 0
5, 49679, Note_on_c, 6, 71, 0
5, 49680, Note_on_c, 6, 62, 80
5, 49680, Note_on_c, 6, 67, 80
5, 49919, Note_on_c, 6, 62, 0
5, 49919, Note_on_c, 6, 67, 0
5, 49920, Note_on_c, 6, 64, 80
5, 49920, Note_on_c, 6, 69, 80
5, 50279, Note_on_c, 6, 64, 0
5, 50279, Note_on_c, 6, 69, 0
5, 50280, Note_on_c, 6, 64, 80
5, 50280, Note_on_c, 6, 72, 80
5, 50639, Note_on_c, 6, 64, 0
5, 50639, Note_on_c, 6, 72, 0
5, 50640, Note_on_c, 6, 64, 80
5, 50640, Note_on_c, 6, 69, 80
5, 50879, Note_on_c, 6, 64, 0
5, 50879, Note_on_c, 6, 69, 0
5, 50880, Note_on_c, 6, 65, 80
5, 50880, Note_on_c, 6, 69, 80
5, 51239, Note_on_c, 6, 65, 0
5, 51239, Note_on_c, 6, 69, 0
5, 51240, Note_on_c, 6, 65, 80
5, 51240, Note_on_c, 6, 72, 80
5, 51599, Note_on_c, 6, 65, 0
5, 51599, Note_on_c, 6, 72, 0
5, 51600, Note_on_c, 6, 65, 80
5, 51600, Note_on_c, 6, 69, 80
5, 51839, Note_on_c, 6, 65, 0
5, 51839, Note_on_c, 6, 69, 0
5, 51840, Note_on_c, 6, 65, 80
5, 51840, Note_on_c, 6, 69, 80
5, 52199, Note_on_c, 6, 65, 0
5, 52199, Note_on_c, 6, 69, 0
5, 52200, Note_on_c, 6, 65, 80
5, 52200, Note_on_c, 6, 72, 80
5, 52559, Note_on_c, 6, 65, 0
5, 52559, Note_on_c, 6, 72, 0
5, 52560, Note_on_c, 6, 65, 80
5, 52560, Note_on_c, 6, 69, 80
5, 52799, Note_on_c, 6, 65, 0
5, 52799, Note_on_c, 6, 69, 0
5, 52800, Note_on_c, 6, 62, 80
5, 52800, Note_on_c, 6, 71, 80
5, 53159, Note_on_c, 6, 62, 0
5, 53159, Note_on_c, 6, 71, 0
5, 53160, Note_on_c, 6, 62, 80
5, 53160, Note_on_c, 6, 69, 80
5, 53519, Note_on_c, 6, 62, 0
5, 53519, Note_on_c, 6, 69, 0
5, 53520, Note_on_c, 6, 62, 80
5, 53520, Note_on_c, 6, 67, 80
5, 53759, Note_on_c, 6, 62, 0
5, 53759, Note_on_c, 6, 67, 0
5, 53760, Note_on_c, 6, 64, 80
5, 53760, Note_on_c, 6, 69, 80
5, 54119, Note_on_c, 6, 64, 0
5, 54119, Note_on_c, 6, 69, 0
5, 54120, Note_on_c, 6, 64, 80
5, 54120, Note_on_c, 6, 72, 80
5, 54479, Note_on_c, 6, 64, 0
5, 54479, Note_on_c, 6, 72, 0
5, 54480, Note_on_c, 6, 64, 80
5, 54480, Note_on_c, 6, 69, 80
5, 54719, Note_on_c, 6, 64, 0
5, 54719, Note_on_c, 6, 69, 0
5, 54720, Note_on_c, 6, 65, 80
5, 54720, Note_on_c, 6, 69, 80
5, 55079, Note_on_c, 6, 65, 0
5, 55079, Note_on_c, 6, 69, 0
5, 55080, Note_on_c, 6, 65, 80
5, 55080, Note_on_c, 6, 72, 80
5, 55439, Note_on_c, 6, 65, 0
5, 55439, Note_on_c, 6, 72, 0
5, 55440, Note_on_c, 6, 65, 80
5, 55440, Note_on_c, 6, 69, 80
5, 55679, Note_on_c, 6, 65, 0
5, 55679, Note_on_c, 6, 69, 0
5, 55680, Note_on_c, 6, 65, 80
5, 55680, Note_on_c, 6, 69, 80
5, 56039, Note_on_c, 6, 65, 0
5, 56039, Note_on_c, 6, 69, 0
5, 56040, Note_on_c, 6, 65, 80
5, 56040, Note_on_c, 6, 72, 80
5, 56399, Note_on_c, 6, 65, 0
5, 56399, Note_on_c, 6, 72, 0
5, 56400, Note_on_c, 6, 65, 80
5, 56400, Note_on_c, 6, 69, 80
5, 56639, Note_on_c, 6, 65, 0
5, 56639, Note_on_c, 6, 69, 0
5, 56640, Note_on_c, 6, 62, 80
5, 56640, Note_on_c, 6, 72, 80
5, 56999, Note_on_c, 6, 62, 0
5, 56999, Note_on_c, 6, 72, 0
5, 57000, Note_on_c, 6, 62, 80
5, 57000, Note_on_c, 6, 71, 80
5, 57359, Note_on_c, 6, 62, 0
5, 57359, Note_on_c, 6, 71, 0
5, 57360, Note_on_c, 6, 62, 80
5, 57360, Note_on_c, 6, 67, 80
5, 57599, Note_on_c, 6, 62, 0
5, 57599, Note_on_c, 6, 67, 0
5, 57600, Note_on_c, 6, 64, 80
5, 57600, Note_on_c, 6, 69, 80
5, 57959, Note_on_c, 6, 64, 0
5, 57959, Note_on_c, 6, 69, 0
5, 57960, Note_on_c, 6, 64, 80
5, 57960, Note_on_c, 6, 72, 80
5, 58319, Note_on_c, 6, 64, 0
5, 58319, Note_on_c, 6, 72, 0
5, 58320, Note_on_c, 6, 64, 80
5, 58320, Note_on_c, 6, 69, 80
5, 58559, Note_on_c, 6, 64, 0
5, 58559, Note_on_c, 6, 69, 0
5, 58560, Note_on_c, 6, 65, 80
5, 58560, Note_on_c, 6, 69, 80
5, 58919, Note_on_c, 6, 65, 0
5, 58919, Note_on_c, 6, 69, 0
5, 58920, Note_on_c, 6, 65, 80
5, 58920, Note_on_c, 6, 72, 80
5, 59279, Note_on_c, 6, 65, 0
5, 59279, Note_on_c, 6, 72, 0
5, 59280, Note_on_c, 6, 65, 80
5, 59280, Note_on_c, 6, 69, 80
5, 59519, Note_on_c, 6, 65, 0
5, 59519, Note_on_c, 6, 69, 0
5, 59520, Note_on_c, 6, 65, 80
5, 59520, Note_on_c, 6, 69, 80
5, 59879, Note_on_c, 6, 65, 0
5, 59879, Note_on_c, 6, 69, 0
5, 59880, Note_on_c, 6, 65, 80
5, 59880, Note_on_c, 6, 72, 80
5, 60239, Note_on_c, 6, 65, 0
5, 60239, Note_on_c, 6, 72, 0
5, 60240, Note_on_c, 6, 65, 80
5, 60240, Note_on_c, 6, 69, 80
5, 60479, Note_on_c, 6, 65, 0
5, 60479, Note_on_c, 6, 69, 0
5, 60480, Note_on_c, 6, 62, 80
5, 60480, Note_on_c, 6, 72, 80
5, 60839, Note_on_c, 6, 62, 0
5, 60839, Note_on_c, 6, 72, 0
5, 60840, Note_on_c, 6, 62, 80
5, 60840, Note_on_c, 6, 71, 80
5, 61199, Note_on_c, 6, 62, 0
5, 61199, Note_on_c, 6, 71, 0
5, 61200, Note_on_c, 6, 62, 80
5, 61200, Note_on_c, 6, 67, 80
5, 61439, Note_on_c, 6, 62, 0
5, 61439, Note_on_c, 6, 67, 0
5, 61440, Note_on_c, 6, 64, 80
5, 61440, Note_on_c, 6, 69, 80
5, 61799, Note_on_c, 6, 64, 0
5, 61799, Note_on_c, 6, 69, 0
5, 61800, Note_on_c, 6, 64, 80
5, 61800, Note_on_c, 6, 72, 80
5, 62159, Note_on_c, 6, 64, 0
5, 62159, Note_on_c, 6, 72, 0
5, 62160, Note_on_c, 6, 64, 80
5, 62160, Note_on_c, 6, 69, 80
5, 62399, Note_on_c, 6, 64, 0
5, 62399, Note_on_c, 6, 69, 0
5, 62400, Note_on_c, 6, 65, 80
5, 62400, Note_on_c, 6, 69, 80
5, 62759, Note_on_c, 6, 65, 0
5, 62759, Note_on_c, 6, 69, 0
5, 62760, Note_on_c, 6, 65, 80
5, 62760, Note_on_c, 6, 72, 80
5, 63119, Note_on_c, 6, 65, 0
5, 63119, Note_on_c, 6, 72, 0
5, 63120, Note_on_c, 6, 65, 80
5, 63120, Note_on_c, 6, 69, 80
5, 63359, Note_on_c, 6, 65, 0
5, 63359, Note_on_c, 6, 69, 0
5, 63360, Note_on_c, 6, 65, 80
5, 63360, Note_on_c, 6, 69, 80
5, 63719, Note_on_c, 6, 65, 0
5, 63719, Note_on_c, 6, 69, 0
5, 63720, Note_on_c, 6, 65, 80
5, 63720, Note_on_c, 6, 72, 80
5, 64079, Note_on_c, 6, 65, 0
5, 64079, Note_on_c, 6, 72, 0
5, 64080, Note_on_c, 6, 65, 80
5, 64080, Note_on_c, 6, 69, 80
5, 64319, Note_on_c, 6, 65, 0
5, 64319, Note_on_c, 6, 69, 0
5, 64320, Note_on_c, 6, 62, 80
5, 64320, Note_on_c, 6, 72, 80
5, 64679, Note_on_c, 6, 62, 0
5, 64679, Note_on_c, 6, 72, 0
5, 64680, Note_on_c, 6, 62, 80
5, 64680, Note_on_c, 6, 71, 80
5, 65039, Note_on_c, 6, 62, 0
5, 65039, Note_on_c, 6, 71, 0
5, 65040, Note_on_c, 6, 62, 80
5, 65040, Note_on_c, 6, 67, 80
5, 65279, Note_on_c, 6, 62, 0
5, 65279, Note_on_c, 6, 67, 0
5, 65280, Note_on_c, 6, 64, 80
5, 65280, Note_on_c, 6, 69, 80
5, 65639, Note_on_c, 6, 64, 0
5, 65639, Note_on_c, 6, 69, 0
5, 65640, Note_on_c, 6, 64, 80
5, 65640, Note_on_c, 6, 72, 80
5, 65999, Note_on_c, 6, 64, 0
5, 65999, Note_on_c, 6, 72, 0
5, 66000, Note_on_c, 6, 64, 80
5, 66000, Note_on_c, 6, 69, 80
5, 66239, Note_on_c, 6, 64, 0
5, 66239, Note_on_c, 6, 69, 0
5, 66240, Note_on_c, 6, 65, 80
5, 66240, Note_on_c, 6, 69, 80
5, 66599, Note_on_c, 6, 65, 0
5, 66599, Note_on_c, 6, 69, 0
5, 66600, Note_on_c, 6, 65, 80
5, 66600, Note_on_c, 6, 72, 80
5, 66959, Note_on_c, 6, 65, 0
5, 66959, Note_on_c, 6, 72, 0
5, 66960, Note_on_c, 6, 65, 80
5, 66960, Note_on_c, 6, 69, 80
5, 67199, Note_on_c, 6, 65, 0
5, 67199, Note_on_c, 6, 69, 0
5, 67200, Note_on_c, 6, 65, 80
5, 67200, Note_on_c, 6, 69, 80
5, 67559, Note_on_c, 6, 65, 0
5, 67559, Note_on_c, 6, 69, 0
5, 67560, Note_on_c, 6, 65, 80
5, 67560, Note_on_c, 6, 72, 80
5, 67919, Note_on_c, 6, 65, 0
5, 67919, Note_on_c, 6, 72, 0
5, 67920, Note_on_c, 6, 65, 80
5, 67920, Note_on_c, 6, 69, 80
5, 68159, Note_on_c, 6, 65, 0
5, 68159, Note_on_c, 6, 69, 0
5, 68160, Note_on_c, 6, 62, 80
5, 68160, Note_on_c, 6, 71, 80
5, 68519, Note_on_c, 6, 62, 0
5, 68519, Note_on_c, 6, 71, 0
5, 68520, Note_on_c, 6, 62, 80
5, 68520, Note_on_c, 6, 69, 80
5, 68879, Note_on_c, 6, 62, 0
5, 68879, Note_on_c, 6, 69, 0
5, 68880, Note_on_c, 6, 62, 80
5, 68880, Note_on_c, 6, 67, 80
5, 69119, Note_on_c, 6, 62, 0
5, 69119, Note_on_c, 6, 67, 0
5, 69120, Note_on_c, 6, 64, 80
5, 69120, Note_on_c, 6, 69, 80
5, 69479, Note_on_c, 6, 64, 0
5, 69479, Note_on_c, 6, 69, 0
5, 69480, Note_on_c, 6, 64, 80
5, 69480, Note_on_c, 6, 72, 80
5, 69839, Note_on_c, 6, 64, 0
5, 69839, Note_on_c, 6, 72, 0
5, 69840, Note_on_c, 6, 64, 80
5, 69840, Note_on_c, 6, 69, 80
5, 70079, Note_on_c, 6, 64, 0
5, 70079, Note_on_c, 6, 69, 0
5, 70080, Note_on_c, 6, 65, 80
5, 70080, Note_on_c, 6, 69, 80
5, 70439, Note_on_c, 6, 65, 0
5, 70439, Note_on_c, 6, 69, 0
5, 70440, Note_on_c, 6, 65, 80
5, 70440, Note_on_c, 6, 72, 80
5, 70799, Note_on_c, 6, 65, 0
5, 70799, Note_on_c, 6, 72, 0
5, 70800, Note_on_c, 6, 65, 80
5, 70800, Note_on_c, 6, 69, 80
5, 71039, Note_on_c, 6, 65, 0
5, 71039, Note_on_c, 6, 69, 0
5, 71040, Note_on_c, 6, 65, 80
5, 71040, Note_on_c, 6, 69, 80
5, 71399, Note_on_c, 6, 65, 0
5, 71399, Note_on_c, 6, 69, 0
5, 71400, Note_on_c, 6, 65, 80
5, 71400, Note_on_c, 6, 72, 80
5, 71759, Note_on_c, 6, 65, 0
5, 71759, Note_on_c, 6, 72, 0
5, 71760, Note_on_c, 6, 65, 80
5, 71760, Note_on_c, 6, 69, 80
5, 71999, Note_on_c, 6, 65, 0
5, 71999, Note_on_c, 6, 69, 0
5, 72000, Note_on_c, 6, 62, 80
5, 72000, Note_on_c, 6, 72, 80
5, 72359, Note_on_c, 6, 62, 0
5, 72359, Note_on_c, 6, 72, 0
5, 72360, Note_on_c, 6, 62, 80
5, 72360, Note_on_c, 6, 71, 80
5, 72719, Note_on_c, 6, 62, 0
5, 72719, Note_on_c, 6, 71, 0
5, 72720, Note_on_c, 6, 62, 80
5, 72720, Note_on_c, 6, 67, 80
5, 72959, Note_on_c, 6, 62, 0
5, 72959, Note_on_c, 6, 67, 0
5, 72960, Note_on_c, 6, 64, 80
5, 72960, Note_on_c, 6, 69, 80
5, 73319, Note_on_c, 6, 64, 0
5, 73319, Note_on_c, 6, 69, 0
5, 73320, Note_on_c, 6, 64, 80
5, 73320, Note_on_c, 6, 72, 80
5, 73679, Note_on_c, 6, 64, 0
5, 73679, Note_on_c, 6, 72, 0
5, 73680, Note_on_c, 6, 64, 80
5, 73680, Note_on_c, 6, 69, 80
5, 73919, Note_on_c, 6, 64, 0
5, 73919, Note_on_c, 6, 69, 0
5, 73920, Note_on_c, 6, 65, 80
5, 73920, Note_on_c, 6, 69, 80
5, 74279, Note_on_c, 6, 65, 0
5, 74279, Note_on_c, 6, 69, 0
5, 74280, Note_on_c, 6, 65, 80
5, 74280, Note_on_c, 6, 72, 80
5, 74639, Note_on_c, 6, 65, 0
5, 74639, Note_on_c, 6, 72, 0
5, 74640, Note_on_c, 6, 65, 80
5, 74640, Note_on_c, 6, 69, 80
5, 74879, Note_on_c, 6, 65, 0
5, 74879, Note_on_c, 6, 69, 0
5, 74880, Note_on_c, 6, 65, 80
5, 74880, Note_on_c, 6, 69, 80
5, 75239, Note_on_c, 6, 65, 0
5, 75239, Note_on_c, 6, 69, 0
5, 75240, Note_on_c, 6, 65, 80
5, 75240, Note_on_c, 6, 72, 80
5, 75599, Note_on_c, 6, 65, 0
5, 75599, Note_on_c, 6, 72, 0
5, 75600, Note_on_c, 6, 65, 80
5, 75600, Note_on_c, 6, 69, 80
5, 75839, Note_on_c, 6, 65, 0
5, 75839, Note_on_c, 6, 69, 0
5, 75840, Note_on_c, 6, 62, 80
5, 75840, Note_on_c, 6, 71, 80
5, 76199, Note_on_c, 6, 62, 0
5, 76199, Note_on_c, 6, 71, 0
5, 76200, Note_on_c, 6, 62, 80
5, 76200, Note_on_c, 6, 69, 80
5, 76559, Note_on_c, 6, 62, 0
5, 76559, Note_on_c, 6, 69, 0
5, 76560, Note_on_c, 6, 62, 80
5, 76560, Note_on_c, 6, 67, 80
5, 76799, Note_on_c, 6, 62, 0
5, 76799, Note_on_c, 6, 67, 0
5, 76800, Note_on_c, 6, 64, 80
5, 76800, Note_on_c, 6, 69, 80
5, 77159, Note_on_c, 6, 64, 0
5, 77159, Note_on_c, 6, 69, 0
5, 77160, Note_on_c, 6, 64, 80
5, 77160, Note_on_c, 6, 72, 80
5, 77519, Note_on_c, 6, 64, 0
5, 77519, Note_on_c, 6, 72, 0
5, 77520, Note_on_c, 6, 64, 80
5, 77520, Note_on_c, 6, 69, 80
5, 77759, Note_on_c, 6, 64, 0
5, 77759, Note_on_c, 6, 69, 0
5, 77760, Note_on_c, 6, 65, 80
5, 77760, Note_on_c, 6, 69, 80
5, 78119, Note_on_c, 6, 65, 0
5, 78119, Note_on_c, 6, 69, 0
5, 78120, Note_on_c, 6, 65, 80
5, 78120, Note_on_c, 6, 72, 80
5, 78479, Note_on_c, 6, 65, 0
5, 78479, Note_on_c, 6, 72, 0
5, 78480, Note_on_c, 6, 65, 80
5, 78480, Note_on_c, 6, 69, 80
5, 78719, Note_on_c, 6, 65, 0
5, 78719, Note_on_c, 6, 69, 0
5, 78720, Note_on_c, 6, 65, 80
5, 78720, Note_on_c, 6, 69, 80
5, 79079, Note_on_c, 6, 65, 0
5, 79079, Note_on_c, 6, 69, 0
5, 79080, Note_on_c, 6, 65, 80
5, 79080, Note_on_c, 6, 72, 80
5, 79439, Note_on_c, 6, 65, 0
5, 79439, Note_on_c, 6, 72, 0
5, 79440, Note_on_c, 6, 65, 80
5, 79440, Note_on_c, 6, 69, 80
5, 79679, Note_on_c, 6, 65, 0
5, 79679, Note_on_c, 6, 69, 0
5, 79680, Note_on_c, 6, 62, 80
5, 79680, Note_on_c, 6, 72, 80
5, 80039, Note_on_c, 6, 62, 0
5, 80039, Note_on_c, 6, 72, 0
5, 80040, Note_on_c, 6, 62, 80
5, 80040, Note_on_c, 6, 71, 80
5, 80399, Note_on_c, 6, 62, 0
5, 80399, Note_on_c, 6, 71, 0
5, 80400, Note_on_c, 6, 62, 80
5, 80400, Note_on_c, 6, 67, 80
5, 80639, Note_on_c, 6, 62, 0
5, 80639, Note_on_c, 6, 67, 0
5, 80640, Note_on_c, 6, 64, 80
5, 80640, Note_on_c, 6, 69, 80
5, 80999, Note_on_c, 6, 64, 0
5, 80999, Note_on_c, 6, 69, 0
5, 81000, Note_on_c, 6, 64, 80
5, 81000, Note_on_c, 6, 72, 80
5, 81359, Note_on_c, 6, 64, 0
5, 81359, Note_on_c, 6, 72, 0
5, 81360, Note_on_c, 6, 64, 80
5, 81360, Note_on_c, 6, 69, 80
5, 81599, Note_on_c, 6, 64, 0
5, 81599, Note_on_c, 6, 69, 0
5, 81600, Note_on_c, 6, 65, 80
5, 81600, Note_on_c, 6, 69, 80
5, 81959, Note_on_c, 6, 65, 0
5, 81959, Note_on_c, 6, 69, 0
5, 81960, Note_on_c, 6, 65, 80
5, 81960, Note_on_c, 6, 72, 80
5, 82319, Note_on_c, 6, 65, 0
5, 82319, Note_on_c, 6, 72, 0
5, 82320, Note_on_c, 6, 65, 80
5, 82320, Note_on_c, 6, 69, 80
5, 82559, Note_on_c, 6, 65, 0
5, 82559, Note_on_c, 6, 69, 0
5, 82560, Note_on_c, 6, 65, 80
5, 82560, Note_on_c, 6, 69, 80
5, 82919, Note_on_c, 6, 65, 0
5, 82919, Note_on_c, 6, 69, 0
5, 82920, Note_on_c, 6, 65, 80
5, 82920, Note_on_c, 6, 72, 80
5, 83279, Note_on_c, 6, 65, 0
5, 83279, Note_on_c, 6, 72, 0
5, 83280, Note_on_c, 6, 65, 80
5, 83280, Note_on_c, 6, 69, 80
5, 83519, Note_on_c, 6, 65, 0
5, 83519, Note_on_c, 6, 69, 0
5, 83520, Note_on_c, 6, 62, 80
5, 83520, Note_on_c, 6, 71, 80
5, 83879, Note_on_c, 6, 62, 0
5, 83879, Note_on_c, 6, 71, 0
5, 83880, Note_on_c, 6, 62, 80
5, 83880, Note_on_c, 6, 69, 80
5, 84239, Note_on_c, 6, 62, 0
5, 84239, Note_on_c, 6, 69, 0
5, 84240, Note_on_c, 6, 62, 80
5, 84240, Note_on_c, 6, 67, 80
5, 84479, Note_on_c, 6, 62, 0
5, 84479, Note_on_c, 6, 67, 0
5, 84480, Note_on_c, 6, 64, 80
5, 84480, Note_on_c, 6, 69, 80
5, 84839, Note_on_c, 6, 64, 0
5, 84839, Note_on_c, 6, 69, 0
5, 84840, Note_on_c, 6, 64, 80
5, 84840, Note_on_c, 6, 72, 80
5, 85199, Note_on_c, 6, 64, 0
5, 85199, Note_on_c, 6, 72, 0
5, 85200, Note_on_c, 6, 64, 80
5, 85200, Note_on_c, 6, 69, 80
5, 85439, Note_on_c, 6, 64, 0
5, 85439, Note_on_c, 6, 69, 0
5, 85440, Note_on_c, 6, 65, 80
5, 85440, Note_on_c, 6, 69, 80
5, 85799, Note_on_c, 6, 65, 0
5, 85799, Note_on_c, 6, 69, 0
5, 85800, Note_on_c, 6, 65, 80
5, 85800, Note_on_c, 6, 72, 80
5, 86159, Note_on_c, 6, 65, 0
5, 86159, Note_on_c, 6, 72, 0
5, 86160, Note_on_c, 6, 65, 80
5, 86160, Note_on_c, 6, 69, 80
5, 86399, Note_on_c, 6, 65, 0
5, 86399, Note_on_c, 6, 69, 0
5, 86400, Note_on_c, 6, 65, 80
5, 86400, Note_on_c, 6, 69, 80
5, 86759, Note_on_c, 6, 65, 0
5, 86759, Note_on_c, 6, 69, 0
5, 86760, Note_on_c, 6, 65, 80
5, 86760, Note_on_c, 6, 72, 80
5, 87119, Note_on_c, 6, 65, 0
5, 87119, Note_on_c, 6, 72, 0
5, 87120, Note_on_c, 6, 65, 80
5, 87120, Note_on_c, 6, 69, 80
5, 87359, Note_on_c, 6, 65, 0
5, 87359, Note_on_c, 6, 69, 0
5, 87360, Note_on_c, 6, 62, 80
5, 87360, Note_on_c, 6, 72, 80
5, 87719, Note_on_c, 6, 62, 0
5, 87719, Note_on_c, 6, 72, 0
5, 87720, Note_on_c, 6, 62, 80
5, 87720, Note_on_c, 6, 71, 80
5, 88079, Note_on_c, 6, 62, 0
5, 88079, Note_on_c, 6, 71, 0
5, 88080, Note_on_c, 6, 62, 80
5, 88080, Note_on_c, 6, 67, 80
5, 88319, Note_on_c, 6, 62, 0
5, 88319, Note_on_c, 6, 67, 0
5, 88320, Note_on_c, 6, 64, 80
5, 88320, Note_on_c, 6, 69, 80
5, 88679, Note_on_c, 6, 64, 0
5, 88679, Note_on_c, 6, 69, 0
5, 88680, Note_on_c, 6, 64, 80
5, 88680, Note_on_c, 6, 72, 80
5, 89039, Note_on_c, 6, 64, 0
5, 89039, Note_on_c, 6, 72, 0
5, 89040, Note_on_c, 6, 64, 80
5, 89040, Note_on_c, 6, 69, 80
5, 89279, Note_on_c, 6, 64, 0
5, 89279, Note_on_c, 6, 69, 0
5, 89280, Note_on_c, 6, 65, 80
5, 89280, Note_on_c, 6, 69, 80
5, 89639, Note_on_c, 6, 65, 0
5, 89639, Note_on_c, 6, 69, 0
5, 89640, Note_on_c, 6, 65, 80
5, 89640, Note_on_c, 6, 72, 80
5, 89999, Note_on_c, 6, 65, 0
5, 89999, Note_on_c, 6, 72, 0
5, 90000, Note_on_c, 6, 65, 80
5, 90000, Note_on_c, 6, 69, 80
5, 90239, Note_on_c, 6, 65, 0
5, 90239, Note_on_c, 6, 69, 0
5, 90240, Note_on_c, 6, 65, 80
5, 90240, Note_on_c, 6, 69, 80
5, 90599, Note_on_c, 6, 65, 0
5, 90599, Note_on_c, 6, 69, 0
5, 90600, Note_on_c, 6, 65, 80
5, 90600, Note_on_c, 6, 72, 80
5, 90959, Note_on_c, 6, 65, 0
5, 90959, Note_on_c, 6, 72, 0
5, 90960, Note_on_c, 6, 65, 80
5, 90960, Note_on_c, 6, 69, 80
5, 91199, Note_on_c, 6, 65, 0
5, 91199, Note_on_c, 6, 69, 0
5, 91200, Note_on_c, 6, 62, 80
5, 91200, Note_on_c, 6, 71, 80
5, 91559, Note_on_c, 6, 62, 0
5, 91559, Note_on_c, 6, 71, 0
5, 91560, Note_on_c, 6, 62, 80
5, 91560, Note_on_c, 6, 69, 80
5, 91919, Note_on_c, 6, 62, 0
5, 91919, Note_on_c, 6, 69, 0
5, 91920, Note_on_c, 6, 62, 80
5, 91920, Note_on_c, 6, 67, 80
5, 92159, Note_on_c, 6, 62, 0
5, 92159, Note_on_c, 6, 67, 0
5, 92160, Note_on_c, 6, 64, 80
5, 92160, Note_on_c, 6, 69, 80
5, 92519, Note_on_c, 6, 64, 0
5, 92519, Note_on_c, 6, 69, 0
5, 92520, Note_on_c, 6, 64, 80
5, 92520, Note_on_c, 6, 72, 80
5, 92879, Note_on_c, 6, 64, 0
5, 92879, Note_on_c, 6, 72, 0
5, 92880, Note_on_c, 6, 64, 80
5, 92880, Note_on_c, 6, 69, 80
5, 93119, Note_on_c, 6, 64, 0
5, 93119, Note_on_c, 6, 69, 0
5, 93120, Note_on_c, 6, 65, 80
5, 93120, Note_on_c, 6, 69, 80
5, 93479, Note_on_c, 6, 65, 0
5, 93479, Note_on_c, 6, 69, 0
5, 93480, Note_on_c, 6, 65, 80
5, 93480, Note_on_c, 6, 72, 80
5, 93839, Note_on_c, 6, 65, 0
5, 93839, Note_on_c, 6, 72, 0
5, 93840, Note_on_c, 6, 65, 80
5, 93840, Note_on_c, 6, 69, 80
5, 94079, Note_on_c, 6, 65, 0
5, 94079, Note_on_c, 6, 69, 0
5, 94080, Note_on_c, 6, 65, 80
5, 94080, Note_on_c, 6, 69, 80
5, 94439, Note_on_c, 6, 65, 0
5, 94439, Note_on_c, 6, 69, 0
5, 94440, Note_on_c, 6, 65, 80
5, 94440, Note_on_c, 6, 72, 80
5, 94799, Note_on_c, 6, 65, 0
5, 94799, Note_on_c, 6, 72, 0
5, 94800, Note_on_c, 6, 65, 80
5, 94800, Note_on_c, 6, 69, 80
5, 95039, Note_on_c, 6, 65, 0
5, 95039, Note_on_c, 6, 69, 0
5, 95040, Note_on_c, 6, 62, 80
5, 95040, Note_on_c, 6, 72, 80
5, 95399, Note_on_c, 6, 62, 0
5, 95399, Note_on_c, 6, 72, 0
5, 95400, Note_on_c, 6, 62, 80
5, 95400, Note_on_c, 6, 71, 80
5, 95759, Note_on_c, 6, 62, 0
5, 95759, Note_on_c, 6, 71, 0
5, 95760, Note_on_c, 6, 62, 80
5, 95760, Note_on_c, 6, 67, 80
5, 95999, Note_on_c, 6, 62, 0
5, 95999, Note_on_c, 6, 67, 0
5, 96000, Note_on_c, 6, 64, 80
5, 96000, Note_on_c, 6, 69, 80
5, 96359, Note_on_c, 6, 64, 0
5, 96359, Note_on_c, 6, 69, 0
5, 96360, Note_on_c, 6, 64, 80
5, 96360, Note_on_c, 6, 72, 80
5, 96719, Note_on_c, 6, 64, 0
5, 96719, Note_on_c, 6, 72, 0
5, 96720, Note_on_c, 6, 64, 80
5, 96720, Note_on_c, 6, 69, 80
5, 96959, Note_on_c, 6, 64, 0
5, 96959, Note_on_c, 6, 69, 0
5, 96960, Note_on_c, 6, 65, 80
5, 96960, Note_on_c, 6, 69, 80
5, 97319, Note_on_c, 6, 65, 0
5, 97319, Note_on_c, 6, 69, 0
5, 97320, Note_on_c, 6, 65, 80
5, 97320, Note_on_c, 6, 72, 80
5, 97679, Note_on_c, 6, 65, 0
5, 97679, Note_on_c, 6, 72, 0
5, 97680, Note_on_c, 6, 65, 80
5, 97680, Note_on_c, 6, 69, 80
5, 97919, Note_on_c, 6, 65, 0
5, 97919, Note_on_c, 6, 69, 0
5, 97920, Note_on_c, 6, 65, 80
5, 97920, Note_on_c, 6, 69, 80
5, 98159, Note_on_c, 6, 65, 0
5, 98159, Note_on_c, 6, 69, 0
5, 99840, Note_on_c, 6, 64, 80
5, 99840, Note_on_c, 6, 69, 80
5, 100199, Note_on_c, 6, 64, 0
5, 100199, Note_on_c, 6, 69, 0
5, 100200, Note_on_c, 6, 64, 80
5, 100200, Note_on_c, 6, 72, 80
5, 100559, Note_on_c, 6, 64, 0
5, 100559, Note_on_c, 6, 72, 0
5, 100560, Note_on_c, 6, 64, 80
5, 100560, Note_on_c, 6, 69, 80
5, 100799, Note_on_c, 6, 64, 0
5, 100799, Note_on_c, 6, 69, 0
5, 100800, Note_on_c, 6, 65, 80
5, 100800, Note_on_c, 6, 69, 80
5, 101159, Note_on_c, 6, 65, 0
5, 101159, Note_on_c, 6, 69, 0
5, 101160, Note_on_c, 6, 65, 80
5, 101160, Note_on_c, 6, 72, 80
5, 101519, Note_on_c, 6, 65, 0
5, 101519, Note_on_c, 6, 72, 0
5, 101520, Note_on_c, 6, 65, 80
5, 101520, Note_on_c, 6, 69, 80
5, 101759, Note_on_c, 6, 65, 0
5, 101759, Note_on_c, 6, 69, 0
5, 101760, Note_on_c, 6, 65, 80
5, 101760, Note_on_c, 6, 69, 80
5, 102119, Note_on_c, 6, 65, 0
5, 102119, Note_on_c, 6, 69, 0
5, 102120, Note_on_c, 6, 65, 80
5, 102120, Note_on_c, 6, 72, 80
5, 102479, Note_on_c, 6, 65, 0
5, 102479, Note_on_c, 6, 72, 0
5, 102480, Note_on_c, 6, 65, 80
5, 102480, Note_on_c, 6, 69, 80
5, 102719, Note_on_c, 6, 65, 0
5, 102719, Note_on_c, 6, 69, 0
5, 102720, Note_on_c, 6, 62, 80
5, 102720, Note_on_c, 6, 72, 80
5, 103079, Note_on_c, 6, 62, 0
5, 103079, Note_on_c, 6, 72, 0
5, 103080, Note_on_c, 6, 62, 80
5, 103080, Note_on_c, 6, 71, 80
5, 103439, Note_on_c, 6, 62, 0
5, 103439, Note_on_c, 6, 71, 0
5, 103440, Note_on_c, 6, 62, 80
5, 103440, Note_on_c, 6, 67, 80
5, 103679, Note_on_c, 6, 62, 0
5, 103679, Note_on_c, 6, 67, 0
5, 103680, Note_on_c, 6, 64, 80
5, 103680, Note_on_c, 6, 69, 80
5, 104039, Note_on_c, 6, 64, 0
5, 104039, Note_on_c, 6, 69, 0
5, 104040, Note_on_c, 6, 64, 80
5, 104040, Note_on_c, 6, 72, 80
5, 104399, Note_on_c, 6, 64, 0
5, 104399, Note_on_c, 6, 72, 0
5, 104400, Note_on_c, 6, 64, 80
5, 104400, Note_on_c, 6, 69, 80
5, 104639, Note_on_c, 6, 64, 0
5, 104639, Note_on_c, 6, 69, 0
5, 104640, Note_on_c, 6, 65, 80
5, 104640, Note_on_c, 6, 69, 80
5, 104999, Note_on_c, 6, 65, 0
5, 104999, Note_on_c, 6, 69, 0
5, 105000, Note_on_c, 6, 65, 80
5, 105000, Note_on_c, 6, 72, 80
5, 105359, Note_on_c, 6, 65, 0
5, 105359, Note_on_c, 6, 72, 0
5, 105360, Note_on_c, 6, 65, 80
5, 105360, Note_on_c, 6, 69, 80
5, 105599, Note_on_c, 6, 65, 0
5, 105599, Note_on_c, 6, 69, 0
5, 105600, Note_on_c, 6, 65, 80
5, 105600, Note_on_c, 6, 69, 80
5, 105959, Note_on_c, 6, 65, 0
5, 105959, Note_on_c, 6, 69, 0
5, 105960, Note_on_c, 6, 65, 80
5, 105960, Note_on_c, 6, 72, 80
5, 106319, Note_on_c, 6, 65, 0
5, 106319, Note_on_c, 6, 72, 0
5, 106320, Note_on_c, 6, 65, 80
5, 106320, Note_on_c, 6, 69, 80
5, 106559, Note_on_c, 6, 65, 0
5, 106559, Note_on_c, 6, 69, 0
5, 106560, Note_on_c, 6, 62, 80
5, 106560, Note_on_c, 6, 71, 80
5, 106919, Note_on_c, 6, 62, 0
5, 106919, Note_on_c, 6, 71, 0
5, 106920, Note_on_c, 6, 62, 80
5, 106920, Note_on_c, 6, 69, 80
5, 107279, Note_on_c, 6, 62, 0
5, 107279, Note_on_c, 6, 69, 0
5, 107280, Note_on_c, 6, 62, 80
5, 107280, Note_on_c, 6, 67, 80
5, 107519, Note_on_c, 6, 62, 0
5, 107519, Note_on_c, 6, 67, 0
5, 107520, Note_on_c, 6, 64, 80
5, 107520, Note_on_c, 6, 69, 80
5, 107879, Note_on_c, 6, 64, 0
5, 107879, Note_on_c, 6, 69, 0
5, 107880, Note_on_c, 6, 64, 80
5, 107880, Note_on_c, 6, 72, 80
5, 108239, Note_on_c, 6, 64, 0
5, 108239, Note_on_c, 6, 72, 0
5, 108240, Note_on_c, 6, 64, 80
5, 108240, Note_on_c, 6, 69, 80
5, 108479, Note_on_c, 6, 64, 0
5, 108479, Note_on_c, 6, 69, 0
5, 108480, Note_on_c, 6, 65, 80
5, 108480, Note_on_c, 6, 69, 80
5, 108839, Note_on_c, 6, 65, 0
5, 108839, Note_on_c, 6, 69, 0
5, 108840, Note_on_c, 6, 65, 80
5, 108840, Note_on_c, 6, 72, 80
5, 109199, Note_on_c, 6, 65, 0
5, 109199, Note_on_c, 6, 72, 0
5, 109200, Note_on_c, 6, 65, 80
5, 109200, Note_on_c, 6, 69, 80
5, 109439, Note_on_c, 6, 65, 0
5, 109439, Note_on_c, 6, 69, 0
5, 109440, Note_on_c, 6, 65, 80
5, 109440, Note_on_c, 6, 69, 80
5, 109799, Note_on_c, 6, 65, 0
5, 109799, Note_on_c, 6, 69, 0
5, 109800, Note_on_c, 6, 65, 80
5, 109800, Note_on_c, 6, 72, 80
5, 110159, Note_on_c, 6, 65, 0
5, 110159, Note_on_c, 6, 72, 0
5, 110160, Note_on_c, 6, 65, 80
5, 110160, Note_on_c, 6, 69, 80
5, 110399, Note_on_c, 6, 65, 0
5, 110399, Note_on_c, 6, 69, 0
5, 110400, Note_on_c, 6, 62, 80
5, 110400, Note_on_c, 6, 72, 80
5, 110759, Note_on_c, 6, 62, 0
5, 110759, Note_on_c, 6, 72, 0
5, 110760, Note_on_c, 6, 62, 80
5, 110760, Note_on_c, 6, 71, 80
5, 111119, Note_on_c, 6, 62, 0
5, 111119, Note_on_c, 6, 71, 0
5, 111120, Note_on_c, 6, 62, 80
5, 111120, Note_on_c, 6, 67, 80
5, 111359, Note_on_c, 6, 62, 0
5, 111359, Note_on_c, 6, 67, 0
5, 111360, Note_on_c, 6, 64, 80
5, 111360, Note_on_c, 6, 69, 80
5, 111719, Note_on_c, 6, 64, 0
5, 111719, Note_on_c, 6, 69, 0
5, 111720, Note_on_c, 6, 64, 80
5, 111720, Note_on_c, 6, 72, 80
5, 112079, Note_on_c, 6, 64, 0
5, 112079, Note_on_c, 6, 72, 0
5, 112080, Note_on_c, 6, 64, 80
5, 112080, Note_on_c, 6, 69, 80
5, 112319, Note_on_c, 6, 64, 0
5, 112319, Note_on_c, 6, 69, 0
5, 112320, Note_on_c, 6, 65, 80
5, 112320, Note_on_c, 6, 69, 80
5, 112679, Note_on_c, 6, 65, 0
5, 112679, Note_on_c, 6, 69, 0
5, 112680, Note_on_c, 6, 65, 80
5, 112680, Note_on_c, 6, 72, 80
5, 113039, Note_on_c, 6, 65, 0
5, 113039, Note_on_c, 6, 72, 0
5, 113040, Note_on_c, 6, 65, 80
5, 113040, Note_on_c, 6, 69, 80
5, 113279, Note_on_c, 6, 65, 0
5, 113279, Note_on_c, 6, 69, 0
5, 113280, Note_on_c, 6, 65, 80
5, 113280, Note_on_c, 6, 69, 80
5, 113639, Note_on_c, 6, 65, 0
5, 113639, Note_on_c, 6, 69, 0
5, 113640, Note_on_c, 6, 65, 80
5, 113640, Note_on_c, 6, 72, 80
5, 113999, Note_on_c, 6, 65, 0
5, 113999, Note_on_c, 6, 72, 0
5, 114000, Note_on_c, 6, 65, 80
5, 114000, Note_on_c, 6, 69, 80
5, 114239, Note_on_c, 6, 65, 0
5, 114239, Note_on_c, 6, 69, 0
5, 114240, Note_on_c, 6, 62, 80
5, 114240, Note_on_c, 6, 71, 80
5, 114599, Note_on_c, 6, 62, 0
5, 114599, Note_on_c, 6, 71, 0
5, 114600, Note_on_c, 6, 62, 80
5, 114600, Note_on_c, 6, 69, 80
5, 114959, Note_on_c, 6, 62, 0
5, 114959, Note_on_c, 6, 69, 0
5, 114960, Note_on_c, 6, 62, 80
5, 114960, Note_on_c, 6, 67, 80
5, 115199, Note_on_c, 6, 62, 0
5, 115199, Note_on_c, 6, 67, 0
5, 115200, Note_on_c, 6, 64, 80
5, 115200, Note_on_c, 6, 69, 80
5, 115559, Note_on_c, 6, 64, 0
5, 115559, Note_on_c, 6, 69, 0
5, 115560, Note_on_c, 6, 64, 80
5, 115560, Note_on_c, 6, 72, 80
5, 115919, Note_on_c, 6, 64, 0
5, 115919, Note_on_c, 6, 72, 0
5, 115920, Note_on_c, 6, 64, 80
5, 115920, Note_on_c, 6, 69, 80
5, 116159, Note_on_c, 6, 64, 0
5, 116159, Note_on_c, 6, 69, 0
5, 116160, Note_on_c, 6, 65, 80
5, 116160, Note_on_c, 6, 69, 80
5, 116519, Note_on_c, 6, 65, 0
5, 116519, Note_on_c, 6, 69, 0
5, 116520, Note_on_c, 6, 65, 80
5, 116520, Note_on_c, 6, 72, 80
5, 116879, Note_on_c, 6, 65, 0
5, 116879, Note_on_c, 6, 72, 0
5, 116880, Note_on_c, 6, 65, 80
5, 116880, Note_on_c, 6, 69, 80
5, 117119, Note_on_c, 6, 65, 0
5, 117119, Note_on_c, 6, 69, 0
5, 117120, Note_on_c, 6, 65, 80
5, 117120, Note_on_c, 6, 69, 80
5, 117479, Note_on_c, 6, 65, 0
5, 117479, Note_on_c, 6, 69, 0
5, 117480, Note_on_c, 6, 65, 80
5, 117480, Note_on_c, 6, 72, 80
5, 117839, Note_on_c, 6, 65, 0
5, 117839, Note_on_c, 6, 72, 0
5, 117840, Note_on_c, 6, 65, 80
5, 117840, Note_on_c, 6, 69, 80
5, 118079, Note_on_c, 6, 65, 0
5, 118079, Note_on_c, 6, 69, 0
5, 118080, Note_on_c, 6, 62, 80
5, 118080, Note_on_c, 6, 72, 80
5, 118439, Note_on_c, 6, 62, 0
5, 118439, Note_on_c, 6, 72, 0
5, 118440, Note_on_c, 6, 62, 80
5, 118440, Note_on_c, 6, 71, 80
5, 118799, Note_on_c, 6, 62, 0
5, 118799, Note_on_c, 6, 71, 0
5, 118800, Note_on_c, 6, 62, 80
5, 118800, Note_on_c, 6, 67, 80
5, 119039, Note_on_c, 6, 62, 0
5, 119039, Note_on_c, 6, 67, 0
5, 119040, Note_on_c, 6, 64, 80
5, 119040, Note_on_c, 6, 69, 80
5, 119399, Note_on_c, 6, 64, 0
5, 119399, Note_on_c, 6, 69, 0
5, 119400, Note_on_c, 6, 64, 80
5, 119400, Note_on_c, 6, 72, 80
5, 119759, Note_on_c, 6, 64, 0
5, 119759, Note_on_c, 6, 72, 0
5, 119760, Note_on_c, 6, 64, 80
5, 119760, Note_on_c, 6, 69, 80
5, 119999, Note_on_c, 6, 64, 0
5, 119999, Note_on_c, 6, 69, 0
5, 120000, Note_on_c, 6, 65, 80
5, 120000, Note_on_c, 6, 69, 80
5, 120359, Note_on_c, 6, 65, 0
5, 120359, Note_on_c, 6, 69, 0
5, 120360, Note_on_c, 6, 65, 80
5, 120360, Note_on_c, 6, 72, 80
5, 120719, Note_on_c, 6, 65, 0
5, 120719, Note_on_c, 6, 72, 0
5, 120720, Note_on_c, 6, 65, 80
5, 120720, Note_on_c, 6, 69, 80
5, 120959, Note_on_c, 6, 65, 0
5, 120959, Note_on_c, 6, 69, 0
5, 120960, Note_on_c, 6, 65, 80
5, 120960, Note_on_c, 6, 69, 80
5, 121319, Note_on_c, 6, 65, 0
5, 121319, Note_on_c, 6, 69, 0
5, 121320, Note_on_c, 6, 65, 80
5, 121320, Note_on_c, 6, 72, 80
5, 121679, Note_on_c, 6, 65, 0
5, 121679, Note_on_c, 6, 72, 0
5, 121680, Note_on_c, 6, 65, 80
5, 121680, Note_on_c, 6, 69, 80
5, 121919, Note_on_c, 6, 65, 0
5, 121919, Note_on_c, 6, 69, 0
5, 121920, Note_on_c, 6, 62, 80
5, 121920, Note_on_c, 6, 72, 80
5, 122279, Note_on_c, 6, 62, 0
5, 122279, Note_on_c, 6, 72, 0
5, 122280, Note_on_c, 6, 62, 80
5, 122280, Note_on_c, 6, 71, 80
5, 122639, Note_on_c, 6, 62, 0
5, 122639, Note_on_c, 6, 71, 0
5, 122640, Note_on_c, 6, 62, 80
5, 122640, Note_on_c, 6, 67, 80
5, 122879, Note_on_c, 6, 62, 0
5, 122879, Note_on_c, 6, 67, 0
5, 122880, Note_on_c, 6, 64, 80
5, 122880, Note_on_c, 6, 69, 80
5, 123239, Note_on_c, 6, 64, 0
5, 123239, Note_on_c, 6, 69, 0
5, 123240, Note_on_c, 6, 64, 80
5, 123240, Note_on_c, 6, 72, 80
5, 123599, Note_on_c, 6, 64, 0
5, 123599, Note_on_c, 6, 72, 0
5, 123600, Note_on_c, 6, 64, 80
5, 123600, Note_on_c, 6, 69, 80
5, 123839, Note_on_c, 6, 64, 0
5, 123839, Note_on_c, 6, 69, 0
5, 123840, Note_on_c, 6, 65, 80
5, 123840, Note_on_c, 6, 69, 80
5, 124199, Note_on_c, 6, 65, 0
5, 124199, Note_on_c, 6, 69, 0
5, 124200, Note_on_c, 6, 65, 80
5, 124200, Note_on_c, 6, 72, 80
5, 124559, Note_on_c, 6, 65, 0
5, 124559, Note_on_c, 6, 72, 0
5, 124560, Note_on_c, 6, 65, 80
5, 124560, Note_on_c, 6, 69, 80
5, 124799, Note_on_c, 6, 65, 0
5, 124799, Note_on_c, 6, 69, 0
5, 124800, Note_on_c, 6, 65, 80
5, 124800, Note_on_c, 6, 69, 80
5, 125159, Note_on_c, 6, 65, 0
5, 125159, Note_on_c, 6, 69, 0
5, 125160, Note_on_c, 6, 65, 80
5, 125160, Note_on_c, 6, 72, 80
5, 125519, Note_on_c, 6, 65, 0
5, 125519, Note_on_c, 6, 72, 0
5, 125520, Note_on_c, 6, 65, 80
5, 125520, Note_on_c, 6, 69, 80
5, 125759, Note_on_c, 6, 65, 0
5, 125759, Note_on_c, 6, 69, 0
5, 125760, Note_on_c, 6, 62, 80
5, 125760, Note_on_c, 6, 72, 80
5, 126119, Note_on_c, 6, 62, 0
5, 126119, Note_on_c, 6, 72, 0
5, 126120, Note_on_c, 6, 62, 80
5, 126120, Note_on_c, 6, 71, 80
5, 126479, Note_on_c, 6, 62, 0
5, 126479, Note_on_c, 6, 71, 0
5, 126480, Note_on_c, 6, 62, 80
5, 126480, Note_on_c, 6, 67, 80
5, 126719, Note_on_c, 6, 62, 0
5, 126719, Note_on_c, 6, 67, 0
5, 126720, Note_on_c, 6, 64, 80
5, 126720, Note_on_c, 6, 69, 80
5, 127079, Note_on_c, 6, 64, 0
5, 127079, Note_on_c, 6, 69, 0
5, 127080, Note_on_c, 6, 64, 80
5, 127080, Note_on_c, 6, 72, 80
5, 127439, Note_on_c, 6, 64, 0
5, 127439, Note_on_c, 6, 72, 0
5, 127440, Note_on_c, 6, 64, 80
5, 127440, Note_on_c, 6, 69, 80
5, 127679, Note_on_c, 6, 64, 0
5, 127679, Note_on_c, 6, 69, 0
5, 127680, Note_on_c, 6, 65, 80
5, 127680, Note_on_c, 6, 69, 80
5, 128039, Note_on_c, 6, 65, 0
5, 128039, Note_on_c, 6, 69, 0
5, 128040, Note_on_c, 6, 65, 80
5, 128040, Note_on_c, 6, 72, 80
5, 128399, Note_on_c, 6, 65, 0
5, 128399, Note_on_c, 6, 72, 0
5, 128400, Note_on_c, 6, 65, 80
5, 128400, Note_on_c, 6, 69, 80
5, 128639, Note_on_c, 6, 65, 0
5, 128639, Note_on_c, 6, 69, 0
5, 128640, Note_on_c, 6, 65, 80
5, 128640, Note_on_c, 6, 69, 80
5, 128999, Note_on_c, 6, 65, 0
5, 128999, Note_on_c, 6, 69, 0
5, 129000, Note_on_c, 6, 65, 80
5, 129000, Note_on_c, 6, 72, 80
5, 129359, Note_on_c, 6, 65, 0
5, 129359, Note_on_c, 6, 72, 0
5, 129360, Note_on_c, 6, 65, 80
5, 129360, Note_on_c, 6, 69, 80
5, 129599, Note_on_c, 6, 65, 0
5, 129599, Note_on_c, 6, 69, 0
5, 129600, Note_on_c, 6, 62, 80
5, 129600, Note_on_c, 6, 71, 80
5, 129959, Note_on_c, 6, 62, 0
5, 129959, Note_on_c, 6, 71, 0
5, 129960, Note_on_c, 6, 62, 80
5, 129960, Note_on_c, 6, 69, 80
5, 130319, Note_on_c, 6, 62, 0
5, 130319, Note_on_c, 6, 69, 0
5, 130320, Note_on_c, 6, 62, 80
5, 130320, Note_on_c, 6, 67, 80
5, 130559, Note_on_c, 6, 62, 0
5, 130559, Note_on_c, 6, 67, 0
5, 138480, Note_on_c, 6, 60, 80
5, 138480, Note_on_c, 6, 64, 80
5, 138599, Note_on_c, 6, 60, 0
5, 138599, Note_on_c, 6, 64, 0
5, 138600, Note_on_c, 6, 60, 80
5, 138600, Note_on_c, 6, 64, 80
5, 138839, Note_on_c, 6, 60, 0
5, 138839, Note_on_c, 6, 64, 0
5, 138840, Note_on_c, 6, 59, 80
5, 138840, Note_on_c, 6, 62, 80
5, 139079, Note_on_c, 6, 59, 0
5, 139079, Note_on_c, 6, 62, 0
5, 139080, Note_on_c, 6, 57, 80
5, 139080, Note_on_c, 6, 60, 80
5, 139199, Note_on_c, 6, 57, 0
5, 139199, Note_on_c, 6, 60, 0
5, 139200, Note_on_c, 6, 59, 80
5, 139200, Note_on_c, 6, 62, 80
5, 139439, Note_on_c, 6, 59, 0
5, 139439, Note_on_c, 6, 62, 0
5, 139440, Note_on_c, 6, 60, 80
5, 139440, Note_on_c, 6, 64, 80
5, 139679, Note_on_c, 6, 60, 0
5, 139679, Note_on_c, 6, 64, 0
5, 139680, Note_on_c, 6, 57, 80
5, 139919, Note_on_c, 6, 57, 0
5, 139920, Note_on_c, 6, 57, 80
5, 140159, Note_on_c, 6, 57, 0
5, 140400, Note_on_c, 6, 60, 80
5, 140400, Note_on_c, 6, 64, 80
5, 140519, Note_on_c, 6, 60, 0
5, 140519, Note_on_c, 6, 64, 0
5, 140520, Note_on_c, 6, 60, 80
5, 140520, Note_on_c, 6, 64, 80
5, 140759, Note_on_c, 6, 60, 0
5, 140759, Note_on_c, 6, 64, 0
5, 140760, Note_on_c, 6, 59, 80
5, 140760, Note_on_c, 6, 62, 80
5, 140999, Note_on_c, 6, 59, 0
5, 140999, Note_on_c, 6, 62, 0
5, 141000, Note_on_c, 6, 57, 80
5, 141000, Note_on_c, 6, 60, 80
5, 141119, Note_on_c, 6, 57, 0
5, 141119, Note_on_c, 6, 60, 0
5, 141120, Note_on_c, 6, 59, 80
5, 141120, Note_on_c, 6, 62, 80
5, 141359, Note_on_c, 6, 59, 0
5, 141359, Note_on_c, 6, 62, 0
5, 141360, Note_on_c, 6, 57, 80
5, 141360, Note_on_c, 6, 60, 80
5, 141599, Note_on_c, 6, 57, 0
5, 141599, Note_on_c, 6, 60, 0
5, 141600, Note_on_c, 6, 52, 80
5, 141600, Note_on_c, 6, 57, 80
5, 141839, Note_on_c, 6, 52, 0
5, 141839, Note_on_c, 6, 57, 0
5, 141840, Note_on_c, 6, 52, 80
5, 141840, Note_on_c, 6, 57, 80
5, 142079, Note_on_c, 6, 52, 0
5, 142079, Note_on_c, 6, 57, 0
5, 142320, Note_on_c, 6, 60, 80
5, 142320, Note_on_c, 6, 64, 80
5, 142439, Note_on_c, 6, 60, 0
5, 142439, Note_on_c, 6, 64, 0
5, 142440, Note_on_c, 6, 60, 80
5, 142440, Note_on_c, 6, 64, 80
5, 142679, Note_on_c, 6, 60, 0
5, 142679, Note_on_c, 6, 64, 0
5, 142680, Note_on_c, 6, 59, 80
5, 142680, Note_on_c, 6, 62, 80
5, 142919, Note_on_c, 6, 59, 0
5, 142919, Note_on_c, 6, 62, 0
5, 142920, Note_on_c, 6, 57, 80
5, 142920, Note_on_c, 6, 60, 80
5, 143039, Note_on_c, 6, 57, 0
5, 143039, Note_on_c, 6, 60, 0
5, 143040, Note_on_c, 6, 59, 80
5, 143040, Note_on_c, 6, 62, 80
5, 143279, Note_on_c, 6, 59, 0
5, 143279, Note_on_c, 6, 62, 0
5, 143280, Note_on_c, 6, 60, 80
5, 143280, Note_on_c, 6, 64, 80
5, 143519, Note_on_c, 6, 60, 0
5, 143519, Note_on_c, 6, 64, 0
5, 143520, Note_on_c, 6, 57, 80
5, 143759, Note_on_c, 6, 57, 0
5, 143760, Note_on_c, 6, 57, 80
5, 143999, Note_on_c, 6, 57, 0
5, 144240, Note_on_c, 6, 60, 80
5, 144240, Note_on_c, 6, 64, 80
5, 144359, Note_on_c, 6, 60, 0
5, 144359, Note_on_c, 6, 64, 0
5, 144360, Note_on_c, 6, 60, 80
5, 144360, Note_on_c, 6, 64, 80
5, 144599, Note_on_c, 6, 60, 0
5, 144599, Note_on_c, 6, 64, 0
5, 144600, Note_on_c, 6, 59, 80
5, 144600, Note_on_c, 6, 62, 80
5, 144839, Note_on_c, 6, 59, 0
5, 144839, Note_on_c, 6, 62, 0
5, 144840, Note_on_c, 6, 57, 80
5, 144840, Note_on_c, 6, 60, 80
5, 144959, Note_on_c, 6, 57, 0
5, 144959, Note_on_c, 6, 60, 0
5, 144960, Note_on_c, 6, 59, 80
5, 144960, Note_on_c, 6, 62, 80
5, 145199, Note_on_c, 6, 59, 0
5, 145199, Note_on_c, 6, 62, 0
5, 145200, Note_on_c, 6, 57, 80
5, 145200, Note_on_c, 6, 60, 80
5, 145439, Note_on_c, 6, 57, 0
5, 145439, Note_on_c, 6, 60, 0
5, 145440, Note_on_c, 6, 52, 80
5, 145440, Note_on_c, 6, 57, 80
5, 145679, Note_on_c, 6, 52, 0
5, 145679, Note_on_c, 6, 57, 0
5, 145680, Note_on_c, 6, 52, 80
5, 145680, Note_on_c, 6, 57, 80
5, 145919, Note_on_c, 6, 52, 0
5, 145919, Note_on_c, 6, 57, 0
5, 145920, Note_on_c, 6, 52, 80
5, 145920, Note_on_c, 6, 57, 80
5, 146279, Note_on_c, 6, 52, 0
5, 146279, Note_on_c, 6, 57, 0
5, 146280, Note_on_c, 6, 52, 80
5, 146280, Note_on_c, 6, 60, 80
5, 146639, Note_on_c, 6, 52, 0
5, 146639, Note_on_c, 6, 60, 0
5, 146640, Note_on_c, 6, 52, 80
5, 146640, Note_on_c, 6, 57, 80
5, 146879, Note_on_c, 6, 52, 0
5, 146879, Note_on_c, 6, 57, 0
5, 146880, Note_on_c, 6, 53, 80
5, 146880, Note_on_c, 6, 57, 80
5, 147239, Note_on_c, 6, 53, 0
5, 147239, Note_on_c, 6, 57, 0
5, 147240, Note_on_c, 6, 53, 80
5, 147240, Note_on_c, 6, 60, 80
5, 147599, Note_on_c, 6, 53, 0
5, 147599, Note_on_c, 6, 60, 0
5, 147600, Note_on_c, 6, 53, 80
5, 147600, Note_on_c, 6, 57, 80
5, 147839, Note_on_c, 6, 53, 0
5, 147839, Note_on_c, 6, 57, 0
5, 147840, Note_on_c, 6, 53, 80
5, 147840, Note_on_c, 6, 57, 80
5, 148199, Note_on_c, 6, 53, 0
5, 148199, Note_on_c, 6, 57, 0
5, 148200, Note_on_c, 6, 53, 80
5, 148200, Note_on_c, 6, 60, 80
5, 148559, Note_on_c, 6, 53, 0
5, 148559, Note_on_c, 6, 60, 0
5, 148560, Note_on_c, 6, 53, 80
5, 148560, Note_on_c, 6, 57, 80
5, 148799, Note_on_c, 6, 53, 0
5, 148799, Note_on_c, 6, 57, 0
5, 148800, Note_on_c, 6, 50, 80
5, 148800, Note_on_c, 6, 60, 80
5, 149159, Note_on_c, 6, 50, 0
5, 149159, Note_on_c, 6, 60, 0
5, 149160, Note_on_c, 6, 50, 80
5, 149160, Note_on_c, 6, 59, 80
5, 149519, Note_on_c, 6, 50, 0
5, 149519, Note_on_c, 6, 59, 0
5, 149520, Note_on_c, 6, 50, 80
5, 149520, Note_on_c, 6, 55, 80
5, 149759, Note_on_c, 6, 50, 0
5, 149759, Note_on_c, 6, 55, 0
5, 149760, Note_on_c, 6, 52, 80
5, 149760, Note_on_c, 6, 57, 80
5, 150119, Note_on_c, 6, 52, 0
5, 150119, Note_on_c, 6, 57, 0
5, 150120, Note_on_c, 6, 52, 80
5, 150120, Note_on_c, 6, 60, 80
5, 150479, Note_on_c, 6, 52, 0
5, 150479, Note_on_c, 6, 60, 0
5, 150480, Note_on_c, 6, 52, 80
5, 150480, Note_on_c, 6, 57, 80
5, 150719, Note_on_c, 6, 52, 0
5, 150719, Note_on_c, 6, 57, 0
5, 150720, Note_on_c, 6, 53, 80
5, 150720, Note_on_c, 6, 57, 80
5, 151079, Note_on_c, 6, 53, 0
5, 151079, Note_on_c, 6, 57, 0
5, 151080, Note_on_c, 6, 53, 80
5, 151080, Note_on_c, 6, 60, 80
5, 151439, Note_on_c, 6, 53, 0
5, 151439, Note_on_c, 6, 60, 0
5, 151440, Note_on_c, 6, 53, 80
5, 151440, Note_on_c, 6, 57, 80
5, 151679, Note_on_c, 6, 53, 0
5, 151679, Note_on_c, 6, 57, 0
5, 151680, Note_on_c, 6, 53, 80
5, 151680, Note_on_c, 6, 57, 80
5, 152039, Note_on_c, 6, 53, 0
5, 152039, Note_on_c, 6, 57, 0
5, 152040, Note_on_c, 6, 53, 80
5, 152040, Note_on_c, 6, 60, 80
5, 152399, Note_on_c, 6, 53, 0
5, 152399, Note_on_c, 6, 60, 0
5, 152400, Note_on_c, 6, 53, 80
5, 152400, Note_on_c, 6, 57, 80
5, 152639, Note_on_c, 6, 53, 0
5, 152639, Note_on_c, 6, 57, 0
5, 152640, Note_on_c, 6, 50, 80
5, 152640, Note_on_c, 6, 59, 80
5, 152999, Note_on_c, 6, 50, 0
5, 152999, Note_on_c, 6, 59, 0
5, 153000, Note_on_c, 6, 50, 80
5, 153000, Note_on_c, 6, 57, 80
5, 153359, Note_on_c, 6, 50, 0
5, 153359, Note_on_c, 6, 57, 0
5, 153360, Note_on_c, 6, 50, 80
5, 153360, Note_on_c, 6, 55, 80
5, 153599, Note_on_c, 6, 50, 0
5, 153599, Note_on_c, 6, 55, 0
5, 153600, Note_on_c, 6, 52, 80
5, 153600, Note_on_c, 6, 57, 80
5, 153959, Note_on_c, 6, 52, 0
5, 153959, Note_on_c, 6, 57, 0
5, 153960, Note_on_c, 6, 52, 80
5, 153960, Note_on_c, 6, 60, 80
5, 154319, Note_on_c, 6, 52, 0
5, 154319, Note_on_c, 6, 60, 0
5, 154320, Note_on_c, 6, 52, 80
5, 154320, Note_on_c, 6, 57, 80
5, 154559, Note_on_c, 6, 52, 0
5, 154559, Note_on_c, 6, 57, 0
5, 154560, Note_on_c, 6, 53, 80
5, 154560, Note_on_c, 6, 57, 80
5, 154919, Note_on_c, 6, 53, 0
5, 154919, Note_on_c, 6, 57, 0
5, 154920, Note_on_c, 6, 53, 80
5, 154920, Note_on_c, 6, 60, 80
5, 155279, Note_on_c, 6, 53, 0
5, 155279, Note_on_c, 6, 60, 0
5, 155280, Note_on_c, 6, 53, 80
5, 155280, Note_on_c, 6, 57, 80
5, 155519, Note_on_c, 6, 53, 0
5, 155519, Note_on_c, 6, 57, 0
5, 155520, Note_on_c, 6, 53, 80
5, 155520, Note_on_c, 6, 57, 80
5, 155879, Note_on_c, 6, 53, 0
5, 155879, Note_on_c, 6, 57, 0
5, 155880, Note_on_c, 6, 53, 80
5, 155880, Note_on_c, 6, 60, 80
5, 156239, Note_on_c, 6, 53, 0
5, 156239, Note_on_c, 6, 60, 0
5, 156240, Note_on_c, 6, 53, 80
5, 156240, Note_on_c, 6, 57, 80
5, 156479, Note_on_c, 6, 53, 0
5, 156479, Note_on_c, 6, 57, 0
5, 156480, Note_on_c, 6, 50, 80
5, 156480, Note_on_c, 6, 60, 80
5, 156839, Note_on_c, 6, 50, 0
5, 156839, Note_on_c, 6, 60, 0
5, 156840, Note_on_c, 6, 50, 80
5, 156840, Note_on_c, 6, 59, 80
5, 157199, Note_on_c, 6, 50, 0
5, 157199, Note_on_c, 6, 59, 0
5, 157200, Note_on_c, 6, 50, 80
5, 157200, Note_on_c, 6, 55, 80
5, 157439, Note_on_c, 6, 50, 0
5, 157439, Note_on_c, 6, 55, 0
5, 157440, Note_on_c, 6, 52, 80
5, 157440, Note_on_c, 6, 57, 80
5, 157799, Note_on_c, 6, 52, 0
5, 157799, Note_on_c, 6, 57, 0
5, 157800, Note_on_c, 6, 52, 80
5, 157800, Note_on_c, 6, 60, 80
5, 158159, Note_on_c, 6, 52, 0
5, 158159, Note_on_c, 6, 60, 0
5, 158160, Note_on_c, 6, 52, 80
5, 158160, Note_on_c, 6, 57, 80
5, 158399, Note_on_c, 6, 52, 0
5, 158399, Note_on_c, 6, 57, 0
5, 158400, Note_on_c, 6, 53, 80
5, 158400, Note_on_c, 6, 57, 80
5, 158759, Note_on_c, 6, 53, 0
5, 158759, Note_on_c, 6, 57, 0
5, 158760, Note_on_c, 6, 53, 80
5, 158760, Note_on_c, 6, 60, 80
5, 159119, Note_on_c, 6, 53, 0
5, 159119, Note_on_c, 6, 60, 0
5, 159120, Note_on_c, 6, 53, 80
5, 159120, Note_on_c, 6, 57, 80
5, 159359, Note_on_c, 6, 53, 0
5, 159359, Note_on_c, 6, 57, 0
5, 159360, Note_on_c, 6, 53, 80
5, 159360, Note_on_c, 6, 57, 80
5, 159719, Note_on_c, 6, 53, 0
5, 159719, Note_on_c, 6, 57, 0
5, 159720, Note_on_c, 6, 53, 80
5, 159720, Note_on_c, 6, 60, 80
5, 160079, Note_on_c, 6, 53, 0
5, 160079, Note_on_c, 6, 60, 0
5, 160080, Note_on_c, 6, 53, 80
5, 160080, Note_on_c, 6, 57, 80
5, 160319, Note_on_c, 6, 53, 0
5, 160319, Note_on_c, 6, 57, 0
5, 160320, Note_on_c, 6, 50, 80
5, 160320, Note_on_c, 6, 59, 80
5, 160679, Note_on_c, 6, 50, 0
5, 160679, Note_on_c, 6, 59, 0
5, 160680, Note_on_c, 6, 50, 80
5, 160680, Note_on_c, 6, 57, 80
5, 161039, Note_on_c, 6, 50, 0
5, 161039, Note_on_c, 6, 57, 0
5, 161040, Note_on_c, 6, 50, 80
5, 161040, Note_on_c, 6, 55, 80
5, 161279, Note_on_c, 6, 50, 0
5, 161279, Note_on_c, 6, 55, 0
5, 161280, Note_on_c, 6, 52, 80
5, 161280, Note_on_c, 6, 57, 80
5, 161639, Note_on_c, 6, 52, 0
5, 161639, Note_on_c, 6, 57, 0
5, 161640, Note_on_c, 6, 52, 80
5, 161640, Note_on_c, 6, 60, 80
5, 161999, Note_on_c, 6, 52, 0
5, 161999, Note_on_c, 6, 60, 0
5, 162000, Note_on_c, 6, 52, 80
5, 162000, Note_on_c, 6, 57, 80
5, 162239, Note_on_c, 6, 52, 0
5, 162239, Note_on_c, 6, 57, 0
5, 162240, Note_on_c, 6, 53, 80
5, 162240, Note_on_c, 6, 57, 80
5, 162599, Note_on_c, 6, 53, 0
5, 162599, Note_on_c, 6, 57, 0
5, 162600, Note_on_c, 6, 53, 80
5, 162600, Note_on_c, 6, 60, 80
5, 162959, Note_on_c, 6, 53, 0
5, 162959, Note_on_c, 6, 60, 0
5, 162960, Note_on_c, 6, 53, 80
5, 162960, Note_on_c, 6, 57, 80
5, 163199, Note_on_c, 6, 53, 0
5, 163199, Note_on_c, 6, 57, 0
5, 163200, Note_on_c, 6, 53, 80
5, 163200, Note_on_c, 6, 57, 80
5, 163559, Note_on_c, 6, 53, 0
5, 163559, Note_on_c, 6, 57, 0
5, 163560, Note_on_c, 6, 53, 80
5, 163560, Note_on_c, 6, 60, 80
5, 163919, Note_on_c, 6, 53, 0
5, 163919, Note_on_c, 6, 60, 0
5, 163920, Note_on_c, 6, 53, 80
5, 163920, Note_on_c, 6, 57, 80
5, 164159, Note_on_c, 6, 53, 0
5, 164159, Note_on_c, 6, 57, 0
5, 164160, Note_on_c, 6, 50, 80
5, 164160, Note_on_c, 6, 60, 80
5, 164519, Note_on_c, 6, 50, 0
5, 164519, Note_on_c, 6, 60, 0
5, 164520, Note_on_c, 6, 50, 80
5, 164520, Note_on_c, 6, 59, 80
5, 164879, Note_on_c, 6, 50, 0
5, 164879, Note_on_c, 6, 59, 0
5, 164880, Note_on_c, 6, 50, 80
5, 164880, Note_on_c, 6, 55, 80
5, 165119, Note_on_c, 6, 50, 0
5, 165119, Note_on_c, 6, 55, 0
5, 165120, Note_on_c, 6, 52, 80
5, 165120, Note_on_c, 6, 57, 80
5, 165479, Note_on_c, 6, 52, 0
5, 165479, Note_on_c, 6, 57, 0
5, 165480, Note_on_c, 6, 52, 80
5, 165480, Note_on_c, 6, 60, 80
5, 165839, Note_on_c, 6, 52, 0
5, 165839, Note_on_c, 6, 60, 0
5, 165840, Note_on_c, 6, 52, 80
5, 165840, Note_on_c, 6, 57, 80
5, 166079, Note_on_c, 6, 52, 0
5, 166079, Note_on_c, 6, 57, 0
5, 166080, Note_on_c, 6, 53, 80
5, 166080, Note_on_c, 6, 57, 80
5, 166439, Note_on_c, 6, 53, 0
5, 166439, Note_on_c, 6, 57, 0
5, 166440, Note_on_c, 6, 53, 80
5, 166440, Note_on_c, 6, 60, 80
5, 166799, Note_on_c, 6, 53, 0
5, 166799, Note_on_c, 6, 60, 0
5, 166800, Note_on_c, 6, 53, 80
5, 166800, Note_on_c, 6, 57, 80
5, 167039, Note_on_c, 6, 53, 0
5, 167039, Note_on_c, 6, 57, 0
5, 167040, Note_on_c, 6, 53, 80
5, 167040, Note_on_c, 6, 57, 80
5, 167399, Note_on_c, 6, 53, 0
5, 167399, Note_on_c, 6, 57, 0
5, 167400, Note_on_c, 6, 53, 80
5, 167400, Note_on_c, 6, 60, 80
5, 167759, Note_on_c, 6, 53, 0
5, 167759, Note_on_c, 6, 60, 0
5, 167760, Note_on_c, 6, 53, 80
5, 167760, Note_on_c, 6, 57, 80
5, 167999, Note_on_c, 6, 53, 0
5, 167999, Note_on_c, 6, 57, 0
5, 168000, Note_on_c, 6, 50, 80
5, 168000, Note_on_c, 6, 59, 80
5, 168359, Note_on_c, 6, 50, 0
5, 168359, Note_on_c, 6, 59, 0
5, 168360, Note_on_c, 6, 50, 80
5, 168360, Note_on_c, 6, 57, 80
5, 168719, Note_on_c, 6, 50, 0
5, 168719, Note_on_c, 6, 57, 0
5, 168720, Note_on_c, 6, 50, 80
5, 168720, Note_on_c, 6, 55, 80
5, 168959, Note_on_c, 6, 50, 0
5, 168959, Note_on_c, 6, 55, 0
5, 168960, Note_on_c, 6, 52, 80
5, 168960, Note_on_c, 6, 57, 80
5, 169319, Note_on_c, 6, 52, 0
5, 169319, Note_on_c, 6, 57, 0
5, 169320, Note_on_c, 6, 52, 80
5, 169320, Note_on_c, 6, 60, 80
5, 169679, Note_on_c, 6, 52, 0
5, 169679, Note_on_c, 6, 60, 0
5, 169680, Note_on_c, 6, 52, 80
5, 169680, Note_on_c, 6, 57, 80
5, 169919, Note_on_c, 6, 52, 0
5, 169919, Note_on_c, 6, 57, 0
5, 169920, Note_on_c, 6, 53, 80
5, 169920, Note_on_c, 6, 57, 80
5, 170279, Note_on_c, 6, 53, 0
5, 170279, Note_on_c, 6, 57, 0
5, 170280, Note_on_c, 6, 53, 80
5, 170280, Note_on_c, 6, 60, 80
5, 170639, Note_on_c, 6, 53, 0
5, 170639, Note_on_c, 6, 60, 0
5, 170640, Note_on_c, 6, 53, 80
5, 170640, Note_on_c, 6, 57, 80
5, 170879, Note_on_c, 6, 53, 0
5, 170879, Note_on_c, 6, 57, 0
5, 170880, Note_on_c, 6, 53, 80
5, 170880, Note_on_c, 6, 57, 80
5, 171239, Note_on_c, 6, 53, 0
5, 171239, Note_on_c, 6, 57, 0
5, 171240, Note_on_c, 6, 53, 80
5, 171240, Note_on_c, 6, 60, 80
5, 171599, Note_on_c, 6, 53, 0
5, 171599, Note_on_c, 6, 60, 0
5, 171600, Note_on_c, 6, 53, 80
5, 171600, Note_on_c, 6, 57, 80
5, 171839, Note_on_c, 6, 53, 0
5, 171839, Note_on_c, 6, 57, 0
5, 171840, Note_on_c, 6, 50, 80
5, 171840, Note_on_c, 6, 60, 80
5, 172199, Note_on_c, 6, 50, 0
5, 172199, Note_on_c, 6, 60, 0
5, 172200, Note_on_c, 6, 50, 80
5, 172200, Note_on_c, 6, 59, 80
5, 172559, Note_on_c, 6, 50, 0
5, 172559, Note_on_c, 6, 59, 0
5, 172560, Note_on_c, 6, 50, 80
5, 172560, Note_on_c, 6, 55, 80
5, 172799, Note_on_c, 6, 50, 0
5, 172799, Note_on_c, 6, 55, 0
5, 172800, Note_on_c, 6, 52, 80
5, 172800, Note_on_c, 6, 57, 80
5, 173159, Note_on_c, 6, 52, 0
5, 173159, Note_on_c, 6, 57, 0
5, 173160, Note_on_c, 6, 52, 80
5, 173160, Note_on_c, 6, 60, 80
5, 173519, Note_on_c, 6, 52, 0
5, 173519, Note_on_c, 6, 60, 0
5, 173520, Note_on_c, 6, 52, 80
5, 173520, Note_on_c, 6, 57, 80
5, 173759, Note_on_c, 6, 52, 0
5, 173759, Note_on_c, 6, 57, 0
5, 173760, Note_on_c, 6, 53, 80
5, 173760, Note_on_c, 6, 57, 80
5, 174119, Note_on_c, 6, 53, 0
5, 174119, Note_on_c, 6, 57, 0
5, 174120, Note_on_c, 6, 53, 80
5, 174120, Note_on_c, 6, 60, 80
5, 174479, Note_on_c, 6, 53, 0
5, 174479, Note_on_c, 6, 60, 0
5, 174480, Note_on_c, 6, 53, 80
5, 174480, Note_on_c, 6, 57, 80
5, 174719, Note_on_c, 6, 53, 0
5, 174719, Note_on_c, 6, 57, 0
5, 174720, Note_on_c, 6, 53, 80
5, 174720, Note_on_c, 6, 57, 80
5, 175079, Note_on_c, 6, 53, 0
5, 175079, Note_on_c, 6, 57, 0
5, 175080, Note_on_c, 6, 53, 80
5, 175080, Note_on_c, 6, 60, 80
5, 175439, Note_on_c, 6, 53, 0
5, 175439, Note_on_c, 6, 60, 0
5, 175440, Note_on_c, 6, 53, 80
5, 175440, Note_on_c, 6, 57, 80
5, 175679, Note_on_c, 6, 53, 0
5, 175679, Note_on_c, 6, 57, 0
5, 175680, Note_on_c, 6, 50, 80
5, 175680, Note_on_c, 6, 59, 80
5, 176039, Note_on_c, 6, 50, 0
5, 176039, Note_on_c, 6, 59, 0
5, 176040, Note_on_c, 6, 50, 80
5, 176040, Note_on_c, 6, 57, 80
5, 176399, Note_on_c, 6, 50, 0
5, 176399, Note_on_c, 6, 57, 0
5, 176400, Note_on_c, 6, 50, 80
5, 176400, Note_on_c, 6, 55, 80
5, 176639, Note_on_c, 6, 50, 0
5, 176639, Note_on_c, 6, 55, 0
5, 176640, End_track
0, 0, End_of_file
