0, 0, Header, 1, 3, 480
1, 0, Start_track
1, 0, Title_t, "Piano, Piano\000"
1, 0, Time_signature, 4, 2, 24, 8
1, 0, Key_signature, 0, "major"
1, 0, Tempo, 480000
1, 0, Control_c, 1, 121, 0
1, 0, Program_c, 1, 0
1, 0, Control_c, 1, 7, 127
1, 0, Control_c, 1, 10, 64
1, 0, Control_c, 1, 91, 0
1, 0, Control_c, 1, 93, 0
1, 0, MIDI_port, 0
1, 0, Note_on_c, 1, 76, 80
1, 683, Note_on_c, 1, 76, 0
1, 720, Note_on_c, 1, 74, 80
1, 947, Note_on_c, 1, 74, 0
1, 960, Note_on_c, 1, 76, 80
1, 1301, Note_on_c, 1, 76, 0
1, 1320, Note_on_c, 1, 79, 80
1, 1661, Note_on_c, 1, 79, 0
1, 1680, Note_on_c, 1, 76, 80
1, 2591, Note_on_c, 1, 76, 0
1, 2640, Note_on_c, 1, 74, 80
1, 2867, Note_on_c, 1, 74, 0
1, 2880, Note_on_c, 1, 76, 80
1, 3221, Note_on_c, 1, 76, 0
1, 3240, Note_on_c, 1, 71, 80
1, 3581, Note_on_c, 1, 71, 0
1, 3600, Note_on_c, 1, 72, 80
1, 4511, Note_on_c, 1, 72, 0
1, 4560, Note_on_c, 1, 71, 80
1, 4787, Note_on_c, 1, 71, 0
1, 4800, Note_on_c, 1, 72, 80
1, 5027, Note_on_c, 1, 72, 0
1, 5040, Note_on_c, 1, 67, 80
1, 5267, Note_on_c, 1, 67, 0
1, 5280, Note_on_c, 1, 64, 80
1, 5507, Note_on_c, 1, 64, 0
1, 5520, Note_on_c, 1, 69, 80
1, 6659, Note_on_c, 1, 69, 0
1, 6960, Note_on_c, 1, 71, 80
1, 7187, Note_on_c, 1, 71, 0
1, 7200, Note_on_c, 1, 72, 80
1, 7427, Note_on_c, 1, 72, 0
1, 7440, Note_on_c, 1, 74, 80
1, 7667, Note_on_c, 1, 74, 0
1, 7680, Note_on_c, 1, 76, 80
1, 8363, Note_on_c, 1, 76, 0
1, 8400, Note_on_c, 1, 74, 80
1, 8627, Note_on_c, 1, 74, 0
1, 8640, Note_on_c, 1, 76, 80
1, 8981, Note_on_c, 1, 76, 0
1, 9000, Note_on_c, 1, 79, 80
1, 9341, Note_on_c, 1, 79, 0
1, 9360, Note_on_c, 1, 76, 80
1, 10271, Note_on_c, 1, 76, 0
1, 10320, Note_on_c, 1, 74, 80
1, 10547, Note_on_c, 1, 74, 0
1, 10560, Note_on_c, 1, 76, 80
1, 10901, Note_on_c, 1, 76, 0
1, 10920, Note_on_c, 1, 71, 80
1, 11261, Note_on_c, 1, 71, 0
1, 11280, Note_on_c, 1, 72, 80
1, 12191, Note_on_c, 1, 72, 0
1, 12240, Note_on_c, 1, 71, 80
1, 12467, Note_on_c, 1, 71, 0
1, 12480, Note_on_c, 1, 72, 80
1, 12707, Note_on_c, 1, 72, 0
1, 12720, Note_on_c, 1, 67, 80
1, 12947, Note_on_c, 1, 67, 0
1, 12960, Note_on_c, 1, 64, 80
1, 13187, Note_on_c, 1, 64, 0
1, 13200, Note_on_c, 1, 69, 80
1, 14339, Note_on_c, 1, 69, 0
1, 14640, Note_on_c, 1, 69, 80
1, 14867, Note_on_c, 1, 69, 0
1, 14880, Note_on_c, 1, 71, 80
1, 15107, Note_on_c, 1, 71, 0
1, 15120, Note_on_c, 1, 74, 80
1, 15347, Note_on_c, 1, 74, 0
1, 15360, Note_on_c, 1, 76, 80
1, 16043, Note_on_c, 1, 76, 0
1, 16080, Note_on_c, 1, 74, 80
1, 16307, Note_on_c, 1, 74, 0
1, 16320, Note_on_c, 1, 76, 80
1, 16661, Note_on_c, 1, 76, 0
1, 16680, Note_on_c, 1, 79, 80
1, 17021, Note_on_c, 1, 79, 0
1, 17040, Note_on_c, 1, 76, 80
1, 17951, Note_on_c, 1, 76, 0
1, 18000, Note_on_c, 1, 74, 80
1, 18227, Note_on_c, 1, 74, 0
1, 18240, Note_on_c, 1, 76, 80
1, 18581, Note_on_c, 1, 76, 0
1, 18600, Note_on_c, 1, 79, 80
1, 18941, Note_on_c, 1, 79, 0
1, 18960, Note_on_c, 1, 81, 80
1, 19871, Note_on_c, 1, 81, 0
1, 19920, Note_on_c, 1, 72, 80
1, 20147, Note_on_c, 1, 72, 0
1, 20160, Note_on_c, 1, 77, 80
1, 20501, Note_on_c, 1, 77, 0
1, 20520, Note_on_c, 1, 77, 80
1, 20861, Note_on_c, 1, 77, 0
1, 20880, Note_on_c, 1, 76, 80
1, 21791, Note_on_c, 1, 76, 0
1, 21840, Note_on_c, 1, 72, 80
1, 22067, Note_on_c, 1, 72, 0
1, 22080, Note_on_c, 1, 74, 80
1, 22307, Note_on_c, 1, 74, 0
1, 22320, Note_on_c, 1, 76, 80
1, 22547, Note_on_c, 1, 76, 0
1, 22560, Note_on_c, 1, 74, 80
1, 22787, Note_on_c, 1, 74, 0
1, 22800, Note_on_c, 1, 72, 80
1, 23483, Note_on_c, 1, 72, 0
1, 23520, Note_on_c, 1, 69, 80
1, 23975, Note_on_c, 1, 69, 0
1, 24000, Note_on_c, 1, 74, 80
1, 24227, Note_on_c, 1, 74, 0
1, 24240, Note_on_c, 1, 76, 80
1, 24467, Note_on_c, 1, 76, 0
1, 24480, Note_on_c, 1, 74, 80
1, 24707, Note_on_c, 1, 74, 0
1, 24720, Note_on_c, 1, 72, 80
1, 25289, Note_on_c, 1, 72, 0
1, 25320, Note_on_c, 1, 69, 80
1, 25661, Note_on_c, 1, 69, 0
1, 25680, Note_on_c, 1, 67, 80
1, 26135, Note_on_c, 1, 67, 0
1, 26160, Note_on_c, 1, 67, 80
1, 26387, Note_on_c, 1, 67, 0
1, 26400, Note_on_c, 1, 69, 80
1, 26627, Note_on_c, 1, 69, 0
1, 26640, Note_on_c, 1, 71, 80
1, 26867, Note_on_c, 1, 71, 0
1, 26880, Note_on_c, 1, 72, 80
1, 27335, Note_on_c, 1, 72, 0
1, 27360, Note_on_c, 1, 76, 80
1, 27815, Note_on_c, 1, 76, 0
1, 27840, Note_on_c, 1, 71, 80
1, 28295, Note_on_c, 1, 71, 0
1, 28320, Note_on_c, 1, 67, 80
1, 28775, Note_on_c, 1, 67, 0
1, 28800, Note_on_c, 1, 74, 80
1, 29027, Note_on_c, 1, 74, 0
1, 29040, Note_on_c, 1, 72, 80
1, 29267, Note_on_c, 1, 72, 0
1, 29280, Note_on_c, 1, 74, 80
1, 29507, Note_on_c, 1, 74, 0
1, 29520, Note_on_c, 1, 72, 80
1, 29975, Note_on_c, 1, 72, 0
1, 30000, Note_on_c, 1, 74, 80
1, 30227, Note_on_c, 1, 74, 0
1, 30240, Note_on_c, 1, 76, 80
1, 30467, Note_on_c, 1, 76, 0
1, 30480, Note_on_c, 1, 79, 80
1, 30707, Note_on_c, 1, 79, 0
1, 30720, Note_on_c, 1, 81, 80
1, 31061, Note_on_c, 1, 81, 0
1, 31080, Note_on_c, 1, 79, 80
1, 31307, Note_on_c, 1, 79, 0
1, 31440, Note_on_c, 1, 81, 80
1, 32465, Note_on_c, 1, 81, 0
1, 33600, Note_on_c, 1, 81, 80
1, 33941, Note_on_c, 1, 81, 0
1, 33960, Note_on_c, 1, 76, 80
1, 34301, Note_on_c, 1, 76, 0
1, 34320, Note_on_c, 1, 74, 80
1, 34547, Note_on_c, 1, 74, 0
1, 35880, Note_on_c, 1, 74, 80
1, 36221, Note_on_c, 1, 74, 0
1, 36240, Note_on_c, 1, 76, 80
1, 36467, Note_on_c, 1, 76, 0
1, 36480, Note_on_c, 1, 77, 80
1, 36821, Note_on_c, 1, 77, 0
1, 36840, Note_on_c, 1, 77, 80
1, 37067, Note_on_c, 1, 77, 0
1, 37200, Note_on_c, 1, 76, 80
1, 37427, Note_on_c, 1, 76, 0
1, 37680, Note_on_c, 1, 74, 80
1, 37907, Note_on_c, 1, 74, 0
1, 37920, Note_on_c, 1, 76, 80
1, 38147, Note_on_c, 1, 76, 0
1, 38160, Note_on_c, 1, 74, 80
1, 38387, Note_on_c, 1, 74, 0
1, 38400, Note_on_c, 1, 72, 80
1, 38855, Note_on_c, 1, 72, 0
1, 38880, Note_on_c, 1, 69, 80
1, 39335, Note_on_c, 1, 69, 0
1, 39360, Note_on_c, 1, 74, 80
1, 39587, Note_on_c, 1, 74, 0
1, 39600, Note_on_c, 1, 76, 80
1, 39827, Note_on_c, 1, 76, 0
1, 39840, Note_on_c, 1, 74, 80
1, 40067, Note_on_c, 1, 74, 0
1, 40080, Note_on_c, 1, 72, 80
1, 40763, Note_on_c, 1, 72, 0
1, 40800, Note_on_c, 1, 69, 80
1, 41255, Note_on_c, 1, 69, 0
1, 41760, Note_on_c, 1, 69, 80
1, 41987, Note_on_c, 1, 69, 0
1, 42000, Note_on_c, 1, 71, 80
1, 42227, Note_on_c, 1, 71, 0
1, 42240, Note_on_c, 1, 72, 80
1, 42467, Note_on_c, 1, 72, 0
1, 42480, Note_on_c, 1, 72, 80
1, 42707, Note_on_c, 1, 72, 0
1, 42720, Note_on_c, 1, 72, 80
1, 42947, Note_on_c, 1, 72, 0
1, 42960, Note_on_c, 1, 69, 80
1, 43187, Note_on_c, 1, 69, 0
1, 43200, Note_on_c, 1, 72, 80
1, 43541, Note_on_c, 1, 72, 0
1, 43560, Note_on_c, 1, 74, 80
1, 43901, Note_on_c, 1, 74, 0
1, 43920, Note_on_c, 1, 76, 80
1, 44375, Note_on_c, 1, 76, 0
1, 45360, Note_on_c, 1, 74, 80
1, 45587, Note_on_c, 1, 74, 0
1, 45600, Note_on_c, 1, 76, 80
1, 45827, Note_on_c, 1, 76, 0
1, 45840, Note_on_c, 1, 74, 80
1, 46067, Note_on_c, 1, 74, 0
1, 46080, Note_on_c, 1, 72, 80
1, 46535, Note_on_c, 1, 72, 0
1, 46560, Note_on_c, 1, 69, 80
1, 47015, Note_on_c, 1, 69, 0
1, 47040, Note_on_c, 1, 74, 80
1, 47267, Note_on_c, 1, 74, 0
1, 47280, Note_on_c, 1, 76, 80
1, 47507, Note_on_c, 1, 76, 0
1, 47520, Note_on_c, 1, 74, 80
1, 47747, Note_on_c, 1, 74, 0
1, 47760, Note_on_c, 1, 72, 80
1, 48215, Note_on_c, 1, 72, 0
1, 48240, Note_on_c, 1, 69, 80
1, 48467, Note_on_c, 1, 69, 0
1, 48480, Note_on_c, 1, 67, 80
1, 48707, Note_on_c, 1, 67, 0
1, 48720, Note_on_c, 1, 67, 80
1, 48947, Note_on_c, 1, 67, 0
1, 49440, Note_on_c, 1, 72, 80
1, 49667, Note_on_c, 1, 72, 0
1, 49680, Note_on_c, 1, 69, 80
1, 49907, Note_on_c, 1, 69, 0
1, 49920, Note_on_c, 1, 72, 80
1, 50147, Note_on_c, 1, 72, 0
1, 50160, Note_on_c, 1, 72, 80
1, 50387, Note_on_c, 1, 72, 0
1, 50400, Note_on_c, 1, 72, 80
1, 50627, Note_on_c, 1, 72, 0
1, 50640, Note_on_c, 1, 69, 80
1, 50867, Note_on_c, 1, 69, 0
1, 50880, Note_on_c, 1, 72, 80
1, 51221, Note_on_c, 1, 72, 0
1, 51240, Note_on_c, 1, 74, 80
1, 51581, Note_on_c, 1, 74, 0
1, 51600, Note_on_c, 1, 72, 80
1, 52055, Note_on_c, 1, 72, 0
1, 53040, Note_on_c, 1, 74, 80
1, 53267, Note_on_c, 1, 74, 0
1, 53280, Note_on_c, 1, 76, 80
1, 53507, Note_on_c, 1, 76, 0
1, 53520, Note_on_c, 1, 79, 80
1, 53747, Note_on_c, 1, 79, 0
1, 53760, Note_on_c, 1, 81, 80
1, 54215, Note_on_c, 1, 81, 0
1, 54240, Note_on_c, 1, 72, 80
1, 54695, Note_on_c, 1, 72, 0
1, 54720, Note_on_c, 1, 77, 80
1, 55061, Note_on_c, 1, 77, 0
1, 55080, Note_on_c, 1, 77, 80
1, 55421, Note_on_c, 1, 77, 0
1, 55440, Note_on_c, 1, 76, 80
1, 56579, Note_on_c, 1, 76, 0
1, 57120, Note_on_c, 1, 76, 80
1, 57347, Note_on_c, 1, 76, 0
1, 57360, Note_on_c, 1, 79, 80
1, 57587, Note_on_c, 1, 79, 0
1, 57600, Note_on_c, 1, 81, 80
1, 58055, Note_on_c, 1, 81, 0
1, 58080, Note_on_c, 1, 81, 80
1, 58535, Note_on_c, 1, 81, 0
1, 58560, Note_on_c, 1, 76, 80
1, 59015, Note_on_c, 1, 76, 0
1, 59040, Note_on_c, 1, 72, 80
1, 59495, Note_on_c, 1, 72, 0
1, 59520, Note_on_c, 1, 74, 80
1, 59747, Note_on_c, 1, 74, 0
1, 59760, Note_on_c, 1, 76, 80
1, 59987, Note_on_c, 1, 76, 0
1, 60000, Note_on_c, 1, 74, 80
1, 60227, Note_on_c, 1, 74, 0
1, 60240, Note_on_c, 1, 72, 80
1, 60695, Note_on_c, 1, 72, 0
1, 60720, Note_on_c, 1, 72, 80
1, 60947, Note_on_c, 1, 72, 0
1, 60960, Note_on_c, 1, 71, 80
1, 61187, Note_on_c, 1, 71, 0
1, 61200, Note_on_c, 1, 69, 80
1, 61427, Note_on_c, 1, 69, 0
1, 61920, Note_on_c, 1, 72, 80
1, 62375, Note_on_c, 1, 72, 0
1, 62400, Note_on_c, 1, 77, 80
1, 62741, Note_on_c, 1, 77, 0
1, 62760, Note_on_c, 1, 79, 80
1, 63101, Note_on_c, 1, 79, 0
1, 63120, Note_on_c, 1, 76, 80
1, 64259, Note_on_c, 1, 76, 0
1, 64800, Note_on_c, 1, 76, 80
1, 65027, Note_on_c, 1, 76, 0
1, 65040, Note_on_c, 1, 79, 80
1, 65267, Note_on_c, 1, 79, 0
1, 65280, Note_on_c, 1, 81, 80
1, 65735, Note_on_c, 1, 81, 0
1, 65760, Note_on_c, 1, 81, 80
1, 66215, Note_on_c, 1, 81, 0
1, 66240, Note_on_c, 1, 81, 80
1, 66467, Note_on_c, 1, 81, 0
1, 66480, Note_on_c, 1, 79, 80
1, 66707, Note_on_c, 1, 79, 0
1, 66720, Note_on_c, 1, 81, 80
1, 66947, Note_on_c, 1, 81, 0
1, 66960, Note_on_c, 1, 83, 80
1, 68099, Note_on_c, 1, 83, 0
1, 68400, Note_on_c, 1, 74, 80
1, 68627, Note_on_c, 1, 74, 0
1, 68640, Note_on_c, 1, 76, 80
1, 68867, Note_on_c, 1, 76, 0
1, 68880, Note_on_c, 1, 74, 80
1, 69107, Note_on_c, 1, 74, 0
1, 69120, Note_on_c, 1, 72, 80
1, 69575, Note_on_c, 1, 72, 0
1, 69600, Note_on_c, 1, 69, 80
1, 70055, Note_on_c, 1, 69, 0
1, 70080, Note_on_c, 1, 74, 80
1, 70307, Note_on_c, 1, 74, 0
1, 70320, Note_on_c, 1, 76, 80
1, 70547, Note_on_c, 1, 76, 0
1, 70560, Note_on_c, 1, 74, 80
1, 70787, Note_on_c, 1, 74, 0
1, 70800, Note_on_c, 1, 72, 80
1, 71483, Note_on_c, 1, 72, 0
1, 71520, Note_on_c, 1, 69, 80
1, 71975, Note_on_c, 1, 69, 0
1, 72480, Note_on_c, 1, 72, 80
1, 72707, Note_on_c, 1, 72, 0
1, 72720, Note_on_c, 1, 69, 80
1, 72947, Note_on_c, 1, 69, 0
1, 72960, Note_on_c, 1, 72, 80
1, 73187, Note_on_c, 1, 72, 0
1, 73200, Note_on_c, 1, 72, 80
1, 73427, Note_on_c, 1, 72, 0
1, 73440, Note_on_c, 1, 72, 80
1, 73667, Note_on_c, 1, 72, 0
1, 73680, Note_on_c, 1, 69, 80
1, 73907, Note_on_c, 1, 69, 0
1, 73920, Note_on_c, 1, 72, 80
1, 74261, Note_on_c, 1, 72, 0
1, 74280, Note_on_c, 1, 74, 80
1, 74621, Note_on_c, 1, 74, 0
1, 74640, Note_on_c, 1, 76, 80
1, 75323, Note_on_c, 1, 76, 0
1, 76080, Note_on_c, 1, 74, 80
1, 76307, Note_on_c, 1, 74, 0
1, 76320, Note_on_c, 1, 76, 80
1, 76547, Note_on_c, 1, 76, 0
1, 76560, Note_on_c, 1, 74, 80
1, 76787, Note_on_c, 1, 74, 0
1, 76800, Note_on_c, 1, 72, 80
1, 77255, Note_on_c, 1, 72, 0
1, 77280, Note_on_c, 1, 69, 80
1, 77735, Note_on_c, 1, 69, 0
1, 77760, Note_on_c, 1, 74, 80
1, 77987, Note_on_c, 1, 74, 0
1, 78000, Note_on_c, 1, 76, 80
1, 78227, Note_on_c, 1, 76, 0
1, 78240, Note_on_c, 1, 74, 80
1, 78467, Note_on_c, 1, 74, 0
1, 78480, Note_on_c, 1, 72, 80
1, 78935, Note_on_c, 1, 72, 0
1, 78960, Note_on_c, 1, 69, 80
1, 79187, Note_on_c, 1, 69, 0
1, 79200, Note_on_c, 1, 67, 80
1, 79427, Note_on_c, 1, 67, 0
1, 79440, Note_on_c, 1, 67, 80
1, 79667, Note_on_c, 1, 67, 0
1, 80160, Note_on_c, 1, 69, 80
1, 80387, Note_on_c, 1, 69, 0
1, 80400, Note_on_c, 1, 71, 80
1, 80627, Note_on_c, 1, 71, 0
1, 80640, Note_on_c, 1, 72, 80
1, 80867, Note_on_c, 1, 72, 0
1, 80880, Note_on_c, 1, 69, 80
1, 81107, Note_on_c, 1, 69, 0
1, 81120, Note_on_c, 1, 72, 80
1, 81347, Note_on_c, 1, 72, 0
1, 81360, Note_on_c, 1, 74, 80
1, 81587, Note_on_c, 1, 74, 0
1, 81600, Note_on_c, 1, 76, 80
1, 81941, Note_on_c, 1, 76, 0
1, 81960, Note_on_c, 1, 74, 80
1, 82301, Note_on_c, 1, 74, 0
1, 82320, Note_on_c, 1, 72, 80
1, 83003, Note_on_c, 1, 72, 0
1, 83760, Note_on_c, 1, 74, 80
1, 83987, Note_on_c, 1, 74, 0
1, 84000, Note_on_c, 1, 76, 80
1, 84227, Note_on_c, 1, 76, 0
1, 84240, Note_on_c, 1, 79, 80
1, 84467, Note_on_c, 1, 79, 0
1, 84480, Note_on_c, 1, 81, 80
1, 84935, Note_on_c, 1, 81, 0
1, 84960, Note_on_c, 1, 72, 80
1, 85415, Note_on_c, 1, 72, 0
1, 85440, Note_on_c, 1, 77, 80
1, 85781, Note_on_c, 1, 77, 0
1, 85800, Note_on_c, 1, 77, 80
1, 86141, Note_on_c, 1, 77, 0
1, 86160, Note_on_c, 1, 76, 80
1, 87299, Note_on_c, 1, 76, 0
1, 87840, Note_on_c, 1, 76, 80
1, 88067, Note_on_c, 1, 76, 0
1, 88080, Note_on_c, 1, 79, 80
1, 88307, Note_on_c, 1, 79, 0
1, 88320, Note_on_c, 1, 81, 80
1, 88775, Note_on_c, 1, 81, 0
1, 88800, Note_on_c, 1, 81, 80
1, 89255, Note_on_c, 1, 81, 0
1, 89280, Note_on_c, 1, 76, 80
1, 89735, Note_on_c, 1, 76, 0
1, 89760, Note_on_c, 1, 72, 80
1, 90215, Note_on_c, 1, 72, 0
1, 90240, Note_on_c, 1, 74, 80
1, 90467, Note_on_c, 1, 74, 0
1, 90480, Note_on_c, 1, 76, 80
1, 90707, Note_on_c, 1, 76, 0
1, 90720, Note_on_c, 1, 74, 80
1, 90947, Note_on_c, 1, 74, 0
1, 90960, Note_on_c, 1, 72, 80
1, 91415, Note_on_c, 1, 72, 0
1, 91440, Note_on_c, 1, 72, 80
1, 91667, Note_on_c, 1, 72, 0
1, 91680, Note_on_c, 1, 71, 80
1, 91907, Note_on_c, 1, 71, 0
1, 91920, Note_on_c, 1, 69, 80
1, 92603, Note_on_c, 1, 69, 0
1, 92640, Note_on_c, 1, 72, 80
1, 93095, Note_on_c, 1, 72, 0
1, 93120, Note_on_c, 1, 77, 80
1, 93461, Note_on_c, 1, 77, 0
1, 93480, Note_on_c, 1, 79, 80
1, 93821, Note_on_c, 1, 79, 0
1, 93840, Note_on_c, 1, 76, 80
1, 94979, Note_on_c, 1, 76, 0
1, 95520, Note_on_c, 1, 76, 80
1, 95747, Note_on_c, 1, 76, 0
1, 95760, Note_on_c, 1, 79, 80
1, 95987, Note_on_c, 1, 79, 0
1, 96000, Note_on_c, 1, 81, 80
1, 96455, Note_on_c, 1, 81, 0
1, 96480, Note_on_c, 1, 81, 80
1, 96935, Note_on_c, 1, 81, 0
1, 96960, Note_on_c, 1, 81, 80
1, 97187, Note_on_c, 1, 81, 0
1, 97200, Note_on_c, 1, 79, 80
1, 97427, Note_on_c, 1, 79, 0
1, 97440, Note_on_c, 1, 81, 80
1, 97667, Note_on_c, 1, 81, 0
1, 97680, Note_on_c, 1, 83, 80
1, 98819, Note_on_c, 1, 83, 0
1, 99120, Note_on_c, 1, 74, 80
1, 99347, Note_on_c, 1, 74, 0
1, 99360, Note_on_c, 1, 76, 80
1, 99587, Note_on_c, 1, 76, 0
1, 99600, Note_on_c, 1, 79, 80
1, 99827, Note_on_c, 1, 79, 0
1, 99840, Note_on_c, 1, 81, 80
1, 100751, Note_on_c, 1, 81, 0
1, 101040, Note_on_c, 1, 69, 80
1, 101267, Note_on_c, 1, 69, 0
1, 101280, Note_on_c, 1, 71, 80
1, 101507, Note_on_c, 1, 71, 0
1, 101520, Note_on_c, 1, 74, 80
1, 101747, Note_on_c, 1, 74, 0
1, 101760, Note_on_c, 1, 76, 80
1, 102443, Note_on_c, 1, 76, 0
1, 102480, Note_on_c, 1, 74, 80
1, 102707, Note_on_c, 1, 74, 0
1, 102720, Note_on_c, 1, 76, 80
1, 103061, Note_on_c, 1, 76, 0
1, 103080, Note_on_c, 1, 79, 80
1, 103421, Note_on_c, 1, 79, 0
1, 103440, Note_on_c, 1, 76, 80
1, 104351, Note_on_c, 1, 76, 0
1, 104400, Note_on_c, 1, 74, 80
1, 104627, Note_on_c, 1, 74, 0
1, 104640, Tempo, 521739
1, 104640, Note_on_c, 1, 76, 80
1, 104981, Note_on_c, 1, 76, 0
1, 105000, Note_on_c, 1, 71, 80
1, 105341, Note_on_c, 1, 71, 0
1, 105360, Note_on_c, 1, 72, 80
1, 106271, Note_on_c, 1, 72, 0
1, 106320, Tempo, 545455
1, 106320, Note_on_c, 1, 71, 80
1, 106547, Note_on_c, 1, 71, 0
1, 106560, Note_on_c, 1, 72, 80
1, 106787, Note_on_c, 1, 72, 0
1, 106800, Note_on_c, 1, 67, 80
1, 107027, Note_on_c, 1, 67, 0
1, 107040, Note_on_c, 1, 64, 80
1, 107267, Note_on_c, 1, 64, 0
1, 107280, Note_on_c, 1, 69, 80
1, 107520, Tempo, 600000
1, 107963, Note_on_c, 1, 69, 0
1, 108000, Note_on_c, 1, 69, 80
1, 108227, Note_on_c, 1, 69, 0
1, 108240, Note_on_c, 1, 72, 80
1, 108467, Note_on_c, 1, 72, 0
1, 108480, Tempo, 666667
1, 108480, Note_on_c, 1, 74, 80
1, 108821, Note_on_c, 1, 74, 0
1, 108840, Note_on_c, 1, 74, 80
1, 109181, Note_on_c, 1, 74, 0
1, 109200, Note_on_c, 1, 72, 80
1, 109427, Note_on_c, 1, 72, 0
1, 109428, End_track
2, 0, Start_track
2, 0, Title_t, "Piano, Piano\000"
2, 0, Key_signature, 0, "major"
2, 0, Control_c, 2, 121, 0
2, 0, Program_c, 2, 0
2, 0, Control_c, 2, 7, 100
2, 0, Control_c, 2, 10, 64
2, 0, Control_c, 2, 91, 0
2, 0, Control_c, 2, 93, 0
2, 0, MIDI_port, 0
2, 0, Note_on_c, 2, 52, 80
2, 0, Note_on_c, 2, 55, 80
2, 0, Note_on_c, 2, 60, 80
2, 2735, Note_on_c, 2, 52, 0
2, 2735, Note_on_c, 2, 55, 0
2, 2735, Note_on_c, 2, 60, 0
2, 2880, Note_on_c, 2, 55, 80
2, 2880, Note_on_c, 2, 59, 80
2, 2880, Note_on_c, 2, 64, 80
2, 3563, Note_on_c, 2, 55, 0
2, 3563, Note_on_c, 2, 59, 0
2, 3563, Note_on_c, 2, 64, 0
2, 3600, Note_on_c, 2, 57, 80
2, 3600, Note_on_c, 2, 60, 80
2, 3600, Note_on_c, 2, 64, 80
2, 4739, Note_on_c, 2, 57, 0
2, 4739, Note_on_c, 2, 60, 0
2, 4739, Note_on_c, 2, 64, 0
2, 4800, Note_on_c, 2, 52, 80
2, 4800, Note_on_c, 2, 55, 80
2, 4800, Note_on_c, 2, 60, 80
2, 5483, Note_on_c, 2, 52, 0
2, 5483, Note_on_c, 2, 55, 0
2, 5483, Note_on_c, 2, 60, 0
2, 5520, Note_on_c, 2, 53, 80
2, 5520, Note_on_c, 2, 57, 80
2, 5520, Note_on_c, 2, 60, 80
2, 6659, Note_on_c, 2, 53, 0
2, 6659, Note_on_c, 2, 57, 0
2, 6659, Note_on_c, 2, 60, 0
2, 6720, Note_on_c, 2, 50, 80
2, 6720, Note_on_c, 2, 55, 80
2, 6720, Note_on_c, 2, 59, 80
2, 7631, Note_on_c, 2, 50, 0
2, 7631, Note_on_c, 2, 55, 0
2, 7631, Note_on_c, 2, 59, 0
2, 7680, Note_on_c, 2, 52, 80
2, 7680, Note_on_c, 2, 55, 80
2, 7680, Note_on_c, 2, 60, 80
2, 9047, Note_on_c, 2, 52, 0
2, 9047, Note_on_c, 2, 55, 0
2, 9047, Note_on_c, 2, 60, 0
2, 9360, Note_on_c, 2, 55, 80
2, 9360, Note_on_c, 2, 59, 80
2, 9360, Note_on_c, 2, 64, 80
2, 10499, Note_on_c, 2, 55, 0
2, 10499, Note_on_c, 2, 59, 0
2, 10499, Note_on_c, 2, 64, 0
2, 10560, Note_on_c, 2, 55, 80
2, 10560, Note_on_c, 2, 59, 80
2, 10560, Note_on_c, 2, 64, 80
2, 10901, Note_on_c, 2, 55, 0
2, 10901, Note_on_c, 2, 59, 0
2, 10901, Note_on_c, 2, 64, 0
2, 10920, Note_on_c, 2, 55, 80
2, 10920, Note_on_c, 2, 59, 80
2, 10920, Note_on_c, 2, 64, 80
2, 11261, Note_on_c, 2, 55, 0
2, 11261, Note_on_c, 2, 59, 0
2, 11261, Note_on_c, 2, 64, 0
2, 11280, Note_on_c, 2, 57, 80
2, 11280, Note_on_c, 2, 60, 80
2, 11280, Note_on_c, 2, 64, 80
2, 12419, Note_on_c, 2, 57, 0
2, 12419, Note_on_c, 2, 60, 0
2, 12419, Note_on_c, 2, 64, 0
2, 12480, Note_on_c, 2, 52, 80
2, 12480, Note_on_c, 2, 55, 80
2, 12480, Note_on_c, 2, 60, 80
2, 13163, Note_on_c, 2, 52, 0
2, 13163, Note_on_c, 2, 55, 0
2, 13163, Note_on_c, 2, 60, 0
2, 13200, Note_on_c, 2, 53, 80
2, 13200, Note_on_c, 2, 57, 80
2, 13200, Note_on_c, 2, 60, 80
2, 14339, Note_on_c, 2, 53, 0
2, 14339, Note_on_c, 2, 57, 0
2, 14339, Note_on_c, 2, 60, 0
2, 14400, Note_on_c, 2, 50, 80
2, 14400, Note_on_c, 2, 55, 80
2, 14400, Note_on_c, 2, 59, 80
2, 14741, Note_on_c, 2, 50, 0
2, 14741, Note_on_c, 2, 55, 0
2, 14741, Note_on_c, 2, 59, 0
2, 14760, Note_on_c, 2, 50, 80
2, 14760, Note_on_c, 2, 55, 80
2, 14760, Note_on_c, 2, 59, 80
2, 14987, Note_on_c, 2, 50, 0
2, 14987, Note_on_c, 2, 55, 0
2, 14987, Note_on_c, 2, 59, 0
2, 15120, Note_on_c, 2, 50, 80
2, 15120, Note_on_c, 2, 55, 80
2, 15120, Note_on_c, 2, 59, 80
2, 15347, Note_on_c, 2, 50, 0
2, 15347, Note_on_c, 2, 55, 0
2, 15347, Note_on_c, 2, 59, 0
2, 15360, Note_on_c, 2, 52, 80
2, 15360, Note_on_c, 2, 55, 80
2, 15360, Note_on_c, 2, 60, 80
2, 15815, Note_on_c, 2, 52, 0
2, 15815, Note_on_c, 2, 55, 0
2, 15815, Note_on_c, 2, 60, 0
2, 15840, Note_on_c, 2, 52, 80
2, 15840, Note_on_c, 2, 55, 80
2, 15840, Note_on_c, 2, 60, 80
2, 16295, Note_on_c, 2, 52, 0
2, 16295, Note_on_c, 2, 55, 0
2, 16295, Note_on_c, 2, 60, 0
2, 16320, Note_on_c, 2, 52, 80
2, 16320, Note_on_c, 2, 55, 80
2, 16320, Note_on_c, 2, 60, 80
2, 16661, Note_on_c, 2, 52, 0
2, 16661, Note_on_c, 2, 55, 0
2, 16661, Note_on_c, 2, 60, 0
2, 16680, Note_on_c, 2, 52, 80
2, 16680, Note_on_c, 2, 55, 80
2, 16680, Note_on_c, 2, 60, 80
2, 16907, Note_on_c, 2, 52, 0
2, 16907, Note_on_c, 2, 55, 0
2, 16907, Note_on_c, 2, 60, 0
2, 17040, Note_on_c, 2, 55, 80
2, 17040, Note_on_c, 2, 59, 80
2, 17040, Note_on_c, 2, 64, 80
2, 17267, Note_on_c, 2, 55, 0
2, 17267, Note_on_c, 2, 59, 0
2, 17267, Note_on_c, 2, 64, 0
2, 17520, Note_on_c, 2, 55, 80
2, 17520, Note_on_c, 2, 59, 80
2, 17520, Note_on_c, 2, 64, 80
2, 17747, Note_on_c, 2, 55, 0
2, 17747, Note_on_c, 2, 59, 0
2, 17747, Note_on_c, 2, 64, 0
2, 17880, Note_on_c, 2, 55, 80
2, 17880, Note_on_c, 2, 59, 80
2, 17880, Note_on_c, 2, 64, 80
2, 18221, Note_on_c, 2, 55, 0
2, 18221, Note_on_c, 2, 59, 0
2, 18221, Note_on_c, 2, 64, 0
2, 18240, Note_on_c, 2, 55, 80
2, 18240, Note_on_c, 2, 59, 80
2, 18240, Note_on_c, 2, 64, 80
2, 18581, Note_on_c, 2, 55, 0
2, 18581, Note_on_c, 2, 59, 0
2, 18581, Note_on_c, 2, 64, 0
2, 18600, Note_on_c, 2, 55, 80
2, 18600, Note_on_c, 2, 59, 80
2, 18600, Note_on_c, 2, 64, 80
2, 18827, Note_on_c, 2, 55, 0
2, 18827, Note_on_c, 2, 59, 0
2, 18827, Note_on_c, 2, 64, 0
2, 18960, Note_on_c, 2, 55, 80
2, 18960, Note_on_c, 2, 59, 80
2, 18960, Note_on_c, 2, 64, 80
2, 19187, Note_on_c, 2, 55, 0
2, 19187, Note_on_c, 2, 59, 0
2, 19187, Note_on_c, 2, 64, 0
2, 19200, Note_on_c, 2, 57, 80
2, 19200, Note_on_c, 2, 60, 80
2, 19200, Note_on_c, 2, 65, 80
2, 19655, Note_on_c, 2, 57, 0
2, 19655, Note_on_c, 2, 60, 0
2, 19655, Note_on_c, 2, 65, 0
2, 19680, Note_on_c, 2, 57, 80
2, 19680, Note_on_c, 2, 60, 80
2, 19680, Note_on_c, 2, 65, 80
2, 20135, Note_on_c, 2, 57, 0
2, 20135, Note_on_c, 2, 60, 0
2, 20135, Note_on_c, 2, 65, 0
2, 20160, Note_on_c, 2, 57, 80
2, 20160, Note_on_c, 2, 60, 80
2, 20160, Note_on_c, 2, 65, 80
2, 20501, Note_on_c, 2, 57, 0
2, 20501, Note_on_c, 2, 60, 0
2, 20501, Note_on_c, 2, 65, 0
2, 20520, Note_on_c, 2, 57, 80
2, 20520, Note_on_c, 2, 60, 80
2, 20520, Note_on_c, 2, 65, 80
2, 20747, Note_on_c, 2, 57, 0
2, 20747, Note_on_c, 2, 60, 0
2, 20747, Note_on_c, 2, 65, 0
2, 20880, Note_on_c, 2, 55, 80
2, 20880, Note_on_c, 2, 60, 80
2, 20880, Note_on_c, 2, 64, 80
2, 21335, Note_on_c, 2, 55, 0
2, 21335, Note_on_c, 2, 60, 0
2, 21335, Note_on_c, 2, 64, 0
2, 21600, Note_on_c, 2, 55, 80
2, 21600, Note_on_c, 2, 60, 80
2, 21600, Note_on_c, 2, 64, 80
2, 22055, Note_on_c, 2, 55, 0
2, 22055, Note_on_c, 2, 60, 0
2, 22055, Note_on_c, 2, 64, 0
2, 22080, Note_on_c, 2, 55, 80
2, 22080, Note_on_c, 2, 59, 80
2, 22080, Note_on_c, 2, 64, 80
2, 22421, Note_on_c, 2, 55, 0
2, 22421, Note_on_c, 2, 59, 0
2, 22421, Note_on_c, 2, 64, 0
2, 22440, Note_on_c, 2, 55, 80
2, 22440, Note_on_c, 2, 59, 80
2, 22440, Note_on_c, 2, 64, 80
2, 22667, Note_on_c, 2, 55, 0
2, 22667, Note_on_c, 2, 59, 0
2, 22667, Note_on_c, 2, 64, 0
2, 22800, Note_on_c, 2, 55, 80
2, 22800, Note_on_c, 2, 59, 80
2, 22800, Note_on_c, 2, 64, 80
2, 23027, Note_on_c, 2, 55, 0
2, 23027, Note_on_c, 2, 59, 0
2, 23027, Note_on_c, 2, 64, 0
2, 23040, Note_on_c, 2, 52, 80
2, 23040, Note_on_c, 2, 57, 80
2, 23040, Note_on_c, 2, 60, 80
2, 23495, Note_on_c, 2, 52, 0
2, 23495, Note_on_c, 2, 57, 0
2, 23495, Note_on_c, 2, 60, 0
2, 23520, Note_on_c, 2, 52, 80
2, 23520, Note_on_c, 2, 57, 80
2, 23520, Note_on_c, 2, 60, 80
2, 23975, Note_on_c, 2, 52, 0
2, 23975, Note_on_c, 2, 57, 0
2, 23975, Note_on_c, 2, 60, 0
2, 24000, Note_on_c, 2, 52, 80
2, 24000, Note_on_c, 2, 55, 80
2, 24000, Note_on_c, 2, 59, 80
2, 24341, Note_on_c, 2, 52, 0
2, 24341, Note_on_c, 2, 55, 0
2, 24341, Note_on_c, 2, 59, 0
2, 24360, Note_on_c, 2, 52, 80
2, 24360, Note_on_c, 2, 55, 80
2, 24360, Note_on_c, 2, 59, 80
2, 24587, Note_on_c, 2, 52, 0
2, 24587, Note_on_c, 2, 55, 0
2, 24587, Note_on_c, 2, 59, 0
2, 24720, Note_on_c, 2, 52, 80
2, 24720, Note_on_c, 2, 55, 80
2, 24720, Note_on_c, 2, 59, 80
2, 24947, Note_on_c, 2, 52, 0
2, 24947, Note_on_c, 2, 55, 0
2, 24947, Note_on_c, 2, 59, 0
2, 24960, Note_on_c, 2, 53, 80
2, 24960, Note_on_c, 2, 57, 80
2, 24960, Note_on_c, 2, 60, 80
2, 25301, Note_on_c, 2, 53, 0
2, 25301, Note_on_c, 2, 57, 0
2, 25301, Note_on_c, 2, 60, 0
2, 25320, Note_on_c, 2, 53, 80
2, 25320, Note_on_c, 2, 57, 80
2, 25320, Note_on_c, 2, 60, 80
2, 25547, Note_on_c, 2, 53, 0
2, 25547, Note_on_c, 2, 57, 0
2, 25547, Note_on_c, 2, 60, 0
2, 25680, Note_on_c, 2, 48, 80
2, 25680, Note_on_c, 2, 53, 80
2, 25680, Note_on_c, 2, 57, 80
2, 25907, Note_on_c, 2, 48, 0
2, 25907, Note_on_c, 2, 53, 0
2, 25907, Note_on_c, 2, 57, 0
2, 25920, Note_on_c, 2, 52, 80
2, 25920, Note_on_c, 2, 55, 80
2, 25920, Note_on_c, 2, 60, 80
2, 26375, Note_on_c, 2, 52, 0
2, 26375, Note_on_c, 2, 55, 0
2, 26375, Note_on_c, 2, 60, 0
2, 26400, Note_on_c, 2, 52, 80
2, 26400, Note_on_c, 2, 55, 80
2, 26400, Note_on_c, 2, 59, 80
2, 26855, Note_on_c, 2, 52, 0
2, 26855, Note_on_c, 2, 55, 0
2, 26855, Note_on_c, 2, 59, 0
2, 26880, Note_on_c, 2, 48, 80
2, 26880, Note_on_c, 2, 52, 80
2, 26880, Note_on_c, 2, 57, 80
2, 27335, Note_on_c, 2, 48, 0
2, 27335, Note_on_c, 2, 52, 0
2, 27335, Note_on_c, 2, 57, 0
2, 27360, Note_on_c, 2, 48, 80
2, 27360, Note_on_c, 2, 52, 80
2, 27360, Note_on_c, 2, 57, 80
2, 27815, Note_on_c, 2, 48, 0
2, 27815, Note_on_c, 2, 52, 0
2, 27815, Note_on_c, 2, 57, 0
2, 27840, Note_on_c, 2, 52, 80
2, 27840, Note_on_c, 2, 55, 80
2, 27840, Note_on_c, 2, 59, 80
2, 28181, Note_on_c, 2, 52, 0
2, 28181, Note_on_c, 2, 55, 0
2, 28181, Note_on_c, 2, 59, 0
2, 28200, Note_on_c, 2, 52, 80
2, 28200, Note_on_c, 2, 55, 80
2, 28200, Note_on_c, 2, 59, 80
2, 28427, Note_on_c, 2, 52, 0
2, 28427, Note_on_c, 2, 55, 0
2, 28427, Note_on_c, 2, 59, 0
2, 28560, Note_on_c, 2, 52, 80
2, 28560, Note_on_c, 2, 55, 80
2, 28560, Note_on_c, 2, 59, 80
2, 28787, Note_on_c, 2, 52, 0
2, 28787, Note_on_c, 2, 55, 0
2, 28787, Note_on_c, 2, 59, 0
2, 28800, Note_on_c, 2, 53, 80
2, 28800, Note_on_c, 2, 57, 80
2, 28800, Note_on_c, 2, 60, 80
2, 29141, Note_on_c, 2, 53, 0
2, 29141, Note_on_c, 2, 57, 0
2, 29141, Note_on_c, 2, 60, 0
2, 29160, Note_on_c, 2, 53, 80
2, 29160, Note_on_c, 2, 57, 80
2, 29160, Note_on_c, 2, 60, 80
2, 29501, Note_on_c, 2, 53, 0
2, 29501, Note_on_c, 2, 57, 0
2, 29501, Note_on_c, 2, 60, 0
2, 29520, Note_on_c, 2, 52, 80
2, 29520, Note_on_c, 2, 55, 80
2, 29520, Note_on_c, 2, 60, 80
2, 29975, Note_on_c, 2, 52, 0
2, 29975, Note_on_c, 2, 55, 0
2, 29975, Note_on_c, 2, 60, 0
2, 30240, Note_on_c, 2, 59, 80
2, 30695, Note_on_c, 2, 59, 0
2, 30720, Note_on_c, 2, 57, 80
2, 30720, Note_on_c, 2, 60, 80
2, 30720, Note_on_c, 2, 64, 80
2, 31061, Note_on_c, 2, 57, 0
2, 31061, Note_on_c, 2, 60, 0
2, 31061, Note_on_c, 2, 64, 0
2, 31080, Note_on_c, 2, 55, 80
2, 31080, Note_on_c, 2, 59, 80
2, 31080, Note_on_c, 2, 64, 80
2, 31307, Note_on_c, 2, 55, 0
2, 31307, Note_on_c, 2, 59, 0
2, 31307, Note_on_c, 2, 64, 0
2, 31440, Note_on_c, 2, 57, 80
2, 31440, Note_on_c, 2, 60, 80
2, 31440, Note_on_c, 2, 64, 80
2, 32465, Note_on_c, 2, 57, 0
2, 32465, Note_on_c, 2, 60, 0
2, 32465, Note_on_c, 2, 64, 0
2, 33600, Note_on_c, 2, 64, 80
2, 33600, Note_on_c, 2, 67, 80
2, 33600, Note_on_c, 2, 72, 80
2, 33941, Note_on_c, 2, 64, 0
2, 33941, Note_on_c, 2, 67, 0
2, 33941, Note_on_c, 2, 72, 0
2, 33960, Note_on_c, 2, 60, 80
2, 33960, Note_on_c, 2, 64, 80
2, 33960, Note_on_c, 2, 67, 80
2, 34301, Note_on_c, 2, 60, 0
2, 34301, Note_on_c, 2, 64, 0
2, 34301, Note_on_c, 2, 67, 0
2, 34320, Note_on_c, 2, 57, 80
2, 34320, Note_on_c, 2, 62, 80
2, 34547, Note_on_c, 2, 57, 0
2, 34547, Note_on_c, 2, 62, 0
2, 34920, Note_on_c, 2, 50, 80
2, 34920, Note_on_c, 2, 57, 80
2, 35261, Note_on_c, 2, 50, 0
2, 35261, Note_on_c, 2, 57, 0
2, 35280, Note_on_c, 2, 50, 80
2, 35280, Note_on_c, 2, 57, 80
2, 35507, Note_on_c, 2, 50, 0
2, 35507, Note_on_c, 2, 57, 0
2, 35520, Note_on_c, 2, 50, 80
2, 35520, Note_on_c, 2, 57, 80
2, 35861, Note_on_c, 2, 50, 0
2, 35861, Note_on_c, 2, 57, 0
2, 35880, Note_on_c, 2, 62, 80
2, 36221, Note_on_c, 2, 62, 0
2, 36240, Note_on_c, 2, 64, 80
2, 36467, Note_on_c, 2, 64, 0
2, 36480, Note_on_c, 2, 65, 80
2, 36821, Note_on_c, 2, 65, 0
2, 36840, Note_on_c, 2, 65, 80
2, 37067, Note_on_c, 2, 65, 0
2, 37200, Note_on_c, 2, 64, 80
2, 37427, Note_on_c, 2, 64, 0
2, 37440, Note_on_c, 2, 60, 80
2, 37895, Note_on_c, 2, 60, 0
2, 37920, Note_on_c, 2, 59, 80
2, 38375, Note_on_c, 2, 59, 0
2, 38400, Note_on_c, 2, 52, 80
2, 38400, Note_on_c, 2, 57, 80
2, 38400, Note_on_c, 2, 60, 80
2, 38855, Note_on_c, 2, 52, 0
2, 38855, Note_on_c, 2, 57, 0
2, 38855, Note_on_c, 2, 60, 0
2, 38880, Note_on_c, 2, 52, 80
2, 38880, Note_on_c, 2, 57, 80
2, 38880, Note_on_c, 2, 60, 80
2, 39335, Note_on_c, 2, 52, 0
2, 39335, Note_on_c, 2, 57, 0
2, 39335, Note_on_c, 2, 60, 0
2, 39360, Note_on_c, 2, 52, 80
2, 39360, Note_on_c, 2, 57, 80
2, 39360, Note_on_c, 2, 60, 80
2, 39701, Note_on_c, 2, 52, 0
2, 39701, Note_on_c, 2, 57, 0
2, 39701, Note_on_c, 2, 60, 0
2, 39720, Note_on_c, 2, 52, 80
2, 39720, Note_on_c, 2, 57, 80
2, 39720, Note_on_c, 2, 60, 80
2, 39947, Note_on_c, 2, 52, 0
2, 39947, Note_on_c, 2, 57, 0
2, 39947, Note_on_c, 2, 60, 0
2, 40080, Note_on_c, 2, 50, 80
2, 40080, Note_on_c, 2, 57, 80
2, 40080, Note_on_c, 2, 60, 80
2, 40307, Note_on_c, 2, 50, 0
2, 40307, Note_on_c, 2, 57, 0
2, 40307, Note_on_c, 2, 60, 0
2, 40560, Note_on_c, 2, 50, 80
2, 40560, Note_on_c, 2, 57, 80
2, 40560, Note_on_c, 2, 60, 80
2, 40787, Note_on_c, 2, 50, 0
2, 40787, Note_on_c, 2, 57, 0
2, 40787, Note_on_c, 2, 60, 0
2, 40920, Note_on_c, 2, 50, 80
2, 40920, Note_on_c, 2, 57, 80
2, 40920, Note_on_c, 2, 60, 80
2, 41261, Note_on_c, 2, 50, 0
2, 41261, Note_on_c, 2, 57, 0
2, 41261, Note_on_c, 2, 60, 0
2, 41280, Note_on_c, 2, 50, 80
2, 41280, Note_on_c, 2, 57, 80
2, 41280, Note_on_c, 2, 60, 80
2, 41621, Note_on_c, 2, 50, 0
2, 41621, Note_on_c, 2, 57, 0
2, 41621, Note_on_c, 2, 60, 0
2, 41640, Note_on_c, 2, 50, 80
2, 41640, Note_on_c, 2, 57, 80
2, 41640, Note_on_c, 2, 60, 80
2, 41867, Note_on_c, 2, 50, 0
2, 41867, Note_on_c, 2, 57, 0
2, 41867, Note_on_c, 2, 60, 0
2, 42000, Note_on_c, 2, 50, 80
2, 42000, Note_on_c, 2, 55, 80
2, 42000, Note_on_c, 2, 59, 80
2, 42227, Note_on_c, 2, 50, 0
2, 42227, Note_on_c, 2, 55, 0
2, 42227, Note_on_c, 2, 59, 0
2, 42240, Note_on_c, 2, 53, 80
2, 42240, Note_on_c, 2, 57, 80
2, 42240, Note_on_c, 2, 60, 80
2, 42695, Note_on_c, 2, 53, 0
2, 42695, Note_on_c, 2, 57, 0
2, 42695, Note_on_c, 2, 60, 0
2, 42720, Note_on_c, 2, 53, 80
2, 42720, Note_on_c, 2, 57, 80
2, 42720, Note_on_c, 2, 60, 80
2, 43175, Note_on_c, 2, 53, 0
2, 43175, Note_on_c, 2, 57, 0
2, 43175, Note_on_c, 2, 60, 0
2, 43200, Note_on_c, 2, 53, 80
2, 43200, Note_on_c, 2, 57, 80
2, 43200, Note_on_c, 2, 60, 80
2, 43541, Note_on_c, 2, 53, 0
2, 43541, Note_on_c, 2, 57, 0
2, 43541, Note_on_c, 2, 60, 0
2, 43560, Note_on_c, 2, 53, 80
2, 43560, Note_on_c, 2, 57, 80
2, 43560, Note_on_c, 2, 60, 80
2, 43787, Note_on_c, 2, 53, 0
2, 43787, Note_on_c, 2, 57, 0
2, 43787, Note_on_c, 2, 60, 0
2, 43920, Note_on_c, 2, 52, 80
2, 43920, Note_on_c, 2, 55, 80
2, 43920, Note_on_c, 2, 60, 80
2, 44147, Note_on_c, 2, 52, 0
2, 44147, Note_on_c, 2, 55, 0
2, 44147, Note_on_c, 2, 60, 0
2, 44160, Note_on_c, 2, 48, 80
2, 44387, Note_on_c, 2, 48, 0
2, 44400, Note_on_c, 2, 52, 80
2, 44400, Note_on_c, 2, 55, 80
2, 44400, Note_on_c, 2, 60, 80
2, 44627, Note_on_c, 2, 52, 0
2, 44627, Note_on_c, 2, 55, 0
2, 44627, Note_on_c, 2, 60, 0
2, 44640, Note_on_c, 2, 48, 80
2, 44753, Note_on_c, 2, 48, 0
2, 44760, Note_on_c, 2, 52, 80
2, 44760, Note_on_c, 2, 55, 80
2, 44760, Note_on_c, 2, 60, 80
2, 45101, Note_on_c, 2, 52, 0
2, 45101, Note_on_c, 2, 55, 0
2, 45101, Note_on_c, 2, 60, 0
2, 45120, Note_on_c, 2, 50, 80
2, 45120, Note_on_c, 2, 55, 80
2, 45120, Note_on_c, 2, 59, 80
2, 45461, Note_on_c, 2, 50, 0
2, 45461, Note_on_c, 2, 55, 0
2, 45461, Note_on_c, 2, 59, 0
2, 45480, Note_on_c, 2, 50, 80
2, 45480, Note_on_c, 2, 55, 80
2, 45480, Note_on_c, 2, 59, 80
2, 45707, Note_on_c, 2, 50, 0
2, 45707, Note_on_c, 2, 55, 0
2, 45707, Note_on_c, 2, 59, 0
2, 45840, Note_on_c, 2, 50, 80
2, 45840, Note_on_c, 2, 55, 80
2, 45840, Note_on_c, 2, 59, 80
2, 46067, Note_on_c, 2, 50, 0
2, 46067, Note_on_c, 2, 55, 0
2, 46067, Note_on_c, 2, 59, 0
2, 46080, Note_on_c, 2, 52, 80
2, 46080, Note_on_c, 2, 57, 80
2, 46080, Note_on_c, 2, 60, 80
2, 46535, Note_on_c, 2, 52, 0
2, 46535, Note_on_c, 2, 57, 0
2, 46535, Note_on_c, 2, 60, 0
2, 46560, Note_on_c, 2, 52, 80
2, 46560, Note_on_c, 2, 57, 80
2, 46560, Note_on_c, 2, 60, 80
2, 47015, Note_on_c, 2, 52, 0
2, 47015, Note_on_c, 2, 57, 0
2, 47015, Note_on_c, 2, 60, 0
2, 47040, Note_on_c, 2, 52, 80
2, 47040, Note_on_c, 2, 57, 80
2, 47040, Note_on_c, 2, 60, 80
2, 47381, Note_on_c, 2, 52, 0
2, 47381, Note_on_c, 2, 57, 0
2, 47381, Note_on_c, 2, 60, 0
2, 47400, Note_on_c, 2, 52, 80
2, 47400, Note_on_c, 2, 57, 80
2, 47400, Note_on_c, 2, 60, 80
2, 47627, Note_on_c, 2, 52, 0
2, 47627, Note_on_c, 2, 57, 0
2, 47627, Note_on_c, 2, 60, 0
2, 47760, Note_on_c, 2, 50, 80
2, 47760, Note_on_c, 2, 57, 80
2, 47760, Note_on_c, 2, 60, 80
2, 47987, Note_on_c, 2, 50, 0
2, 47987, Note_on_c, 2, 57, 0
2, 47987, Note_on_c, 2, 60, 0
2, 48000, Note_on_c, 2, 50, 80
2, 48227, Note_on_c, 2, 50, 0
2, 48240, Note_on_c, 2, 57, 80
2, 48240, Note_on_c, 2, 60, 80
2, 48467, Note_on_c, 2, 57, 0
2, 48467, Note_on_c, 2, 60, 0
2, 48480, Note_on_c, 2, 50, 80
2, 48593, Note_on_c, 2, 50, 0
2, 48600, Note_on_c, 2, 57, 80
2, 48600, Note_on_c, 2, 60, 80
2, 48941, Note_on_c, 2, 57, 0
2, 48941, Note_on_c, 2, 60, 0
2, 48960, Note_on_c, 2, 50, 80
2, 48960, Note_on_c, 2, 57, 80
2, 48960, Note_on_c, 2, 60, 80
2, 49301, Note_on_c, 2, 50, 0
2, 49301, Note_on_c, 2, 57, 0
2, 49301, Note_on_c, 2, 60, 0
2, 49320, Note_on_c, 2, 50, 80
2, 49320, Note_on_c, 2, 57, 80
2, 49320, Note_on_c, 2, 60, 80
2, 49547, Note_on_c, 2, 50, 0
2, 49547, Note_on_c, 2, 57, 0
2, 49547, Note_on_c, 2, 60, 0
2, 49680, Note_on_c, 2, 50, 80
2, 49680, Note_on_c, 2, 55, 80
2, 49680, Note_on_c, 2, 59, 80
2, 49907, Note_on_c, 2, 50, 0
2, 49907, Note_on_c, 2, 55, 0
2, 49907, Note_on_c, 2, 59, 0
2, 49920, Note_on_c, 2, 53, 80
2, 49920, Note_on_c, 2, 57, 80
2, 49920, Note_on_c, 2, 60, 80
2, 50375, Note_on_c, 2, 53, 0
2, 50375, Note_on_c, 2, 57, 0
2, 50375, Note_on_c, 2, 60, 0
2, 50400, Note_on_c, 2, 53, 80
2, 50400, Note_on_c, 2, 57, 80
2, 50400, Note_on_c, 2, 60, 80
2, 50855, Note_on_c, 2, 53, 0
2, 50855, Note_on_c, 2, 57, 0
2, 50855, Note_on_c, 2, 60, 0
2, 50880, Note_on_c, 2, 53, 80
2, 50880, Note_on_c, 2, 57, 80
2, 50880, Note_on_c, 2, 60, 80
2, 51221, Note_on_c, 2, 53, 0
2, 51221, Note_on_c, 2, 57, 0
2, 51221, Note_on_c, 2, 60, 0
2, 51240, Note_on_c, 2, 53, 80
2, 51240, Note_on_c, 2, 57, 80
2, 51240, Note_on_c, 2, 60, 80
2, 51467, Note_on_c, 2, 53, 0
2, 51467, Note_on_c, 2, 57, 0
2, 51467, Note_on_c, 2, 60, 0
2, 51600, Note_on_c, 2, 52, 80
2, 51600, Note_on_c, 2, 55, 80
2, 51600, Note_on_c, 2, 60, 80
2, 51827, Note_on_c, 2, 52, 0
2, 51827, Note_on_c, 2, 55, 0
2, 51827, Note_on_c, 2, 60, 0
2, 51840, Note_on_c, 2, 48, 80
2, 52067, Note_on_c, 2, 48, 0
2, 52080, Note_on_c, 2, 52, 80
2, 52080, Note_on_c, 2, 55, 80
2, 52080, Note_on_c, 2, 60, 80
2, 52307, Note_on_c, 2, 52, 0
2, 52307, Note_on_c, 2, 55, 0
2, 52307, Note_on_c, 2, 60, 0
2, 52320, Note_on_c, 2, 48, 80
2, 52433, Note_on_c, 2, 48, 0
2, 52440, Note_on_c, 2, 52, 80
2, 52440, Note_on_c, 2, 55, 80
2, 52440, Note_on_c, 2, 60, 80
2, 52781, Note_on_c, 2, 52, 0
2, 52781, Note_on_c, 2, 55, 0
2, 52781, Note_on_c, 2, 60, 0
2, 52800, Note_on_c, 2, 50, 80
2, 52800, Note_on_c, 2, 55, 80
2, 52800, Note_on_c, 2, 59, 80
2, 53141, Note_on_c, 2, 50, 0
2, 53141, Note_on_c, 2, 55, 0
2, 53141, Note_on_c, 2, 59, 0
2, 53160, Note_on_c, 2, 50, 80
2, 53160, Note_on_c, 2, 55, 80
2, 53160, Note_on_c, 2, 59, 80
2, 53387, Note_on_c, 2, 50, 0
2, 53387, Note_on_c, 2, 55, 0
2, 53387, Note_on_c, 2, 59, 0
2, 53520, Note_on_c, 2, 50, 80
2, 53520, Note_on_c, 2, 55, 80
2, 53520, Note_on_c, 2, 59, 80
2, 53747, Note_on_c, 2, 50, 0
2, 53747, Note_on_c, 2, 55, 0
2, 53747, Note_on_c, 2, 59, 0
2, 53760, Note_on_c, 2, 53, 80
2, 53760, Note_on_c, 2, 57, 80
2, 53760, Note_on_c, 2, 60, 80
2, 54215, Note_on_c, 2, 53, 0
2, 54215, Note_on_c, 2, 57, 0
2, 54215, Note_on_c, 2, 60, 0
2, 54240, Note_on_c, 2, 53, 80
2, 54240, Note_on_c, 2, 57, 80
2, 54240, Note_on_c, 2, 60, 80
2, 54695, Note_on_c, 2, 53, 0
2, 54695, Note_on_c, 2, 57, 0
2, 54695, Note_on_c, 2, 60, 0
2, 54720, Note_on_c, 2, 53, 80
2, 54720, Note_on_c, 2, 57, 80
2, 54720, Note_on_c, 2, 60, 80
2, 55061, Note_on_c, 2, 53, 0
2, 55061, Note_on_c, 2, 57, 0
2, 55061, Note_on_c, 2, 60, 0
2, 55080, Note_on_c, 2, 53, 80
2, 55080, Note_on_c, 2, 57, 80
2, 55080, Note_on_c, 2, 60, 80
2, 55307, Note_on_c, 2, 53, 0
2, 55307, Note_on_c, 2, 57, 0
2, 55307, Note_on_c, 2, 60, 0
2, 55440, Note_on_c, 2, 52, 80
2, 55440, Note_on_c, 2, 55, 80
2, 55440, Note_on_c, 2, 60, 80
2, 55667, Note_on_c, 2, 52, 0
2, 55667, Note_on_c, 2, 55, 0
2, 55667, Note_on_c, 2, 60, 0
2, 55680, Note_on_c, 2, 48, 80
2, 55907, Note_on_c, 2, 48, 0
2, 55920, Note_on_c, 2, 52, 80
2, 55920, Note_on_c, 2, 55, 80
2, 55920, Note_on_c, 2, 60, 80
2, 56147, Note_on_c, 2, 52, 0
2, 56147, Note_on_c, 2, 55, 0
2, 56147, Note_on_c, 2, 60, 0
2, 56160, Note_on_c, 2, 48, 80
2, 56273, Note_on_c, 2, 48, 0
2, 56280, Note_on_c, 2, 52, 80
2, 56280, Note_on_c, 2, 55, 80
2, 56280, Note_on_c, 2, 60, 80
2, 56621, Note_on_c, 2, 52, 0
2, 56621, Note_on_c, 2, 55, 0
2, 56621, Note_on_c, 2, 60, 0
2, 56640, Note_on_c, 2, 52, 80
2, 56640, Note_on_c, 2, 55, 80
2, 56640, Note_on_c, 2, 60, 80
2, 56981, Note_on_c, 2, 52, 0
2, 56981, Note_on_c, 2, 55, 0
2, 56981, Note_on_c, 2, 60, 0
2, 57000, Note_on_c, 2, 52, 80
2, 57000, Note_on_c, 2, 55, 80
2, 57000, Note_on_c, 2, 60, 80
2, 57227, Note_on_c, 2, 52, 0
2, 57227, Note_on_c, 2, 55, 0
2, 57227, Note_on_c, 2, 60, 0
2, 57360, Note_on_c, 2, 52, 80
2, 57360, Note_on_c, 2, 55, 80
2, 57360, Note_on_c, 2, 60, 80
2, 57587, Note_on_c, 2, 52, 0
2, 57587, Note_on_c, 2, 55, 0
2, 57587, Note_on_c, 2, 60, 0
2, 57600, Note_on_c, 2, 52, 80
2, 57600, Note_on_c, 2, 57, 80
2, 57600, Note_on_c, 2, 60, 80
2, 58055, Note_on_c, 2, 52, 0
2, 58055, Note_on_c, 2, 57, 0
2, 58055, Note_on_c, 2, 60, 0
2, 58080, Note_on_c, 2, 52, 80
2, 58080, Note_on_c, 2, 57, 80
2, 58080, Note_on_c, 2, 60, 80
2, 58535, Note_on_c, 2, 52, 0
2, 58535, Note_on_c, 2, 57, 0
2, 58535, Note_on_c, 2, 60, 0
2, 58560, Note_on_c, 2, 52, 80
2, 58560, Note_on_c, 2, 57, 80
2, 58560, Note_on_c, 2, 60, 80
2, 59015, Note_on_c, 2, 52, 0
2, 59015, Note_on_c, 2, 57, 0
2, 59015, Note_on_c, 2, 60, 0
2, 59040, Note_on_c, 2, 52, 80
2, 59040, Note_on_c, 2, 57, 80
2, 59040, Note_on_c, 2, 60, 80
2, 59495, Note_on_c, 2, 52, 0
2, 59495, Note_on_c, 2, 57, 0
2, 59495, Note_on_c, 2, 60, 0
2, 59520, Note_on_c, 2, 52, 80
2, 59520, Note_on_c, 2, 59, 80
2, 59520, Note_on_c, 2, 62, 80
2, 59861, Note_on_c, 2, 52, 0
2, 59861, Note_on_c, 2, 59, 0
2, 59861, Note_on_c, 2, 62, 0
2, 59880, Note_on_c, 2, 52, 80
2, 59880, Note_on_c, 2, 59, 80
2, 59880, Note_on_c, 2, 62, 80
2, 60107, Note_on_c, 2, 52, 0
2, 60107, Note_on_c, 2, 59, 0
2, 60107, Note_on_c, 2, 62, 0
2, 60240, Note_on_c, 2, 52, 80
2, 60240, Note_on_c, 2, 59, 80
2, 60240, Note_on_c, 2, 62, 80
2, 60467, Note_on_c, 2, 52, 0
2, 60467, Note_on_c, 2, 59, 0
2, 60467, Note_on_c, 2, 62, 0
2, 60480, Note_on_c, 2, 52, 80
2, 60593, Note_on_c, 2, 52, 0
2, 60600, Note_on_c, 2, 59, 80
2, 60600, Note_on_c, 2, 62, 80
2, 60941, Note_on_c, 2, 59, 0
2, 60941, Note_on_c, 2, 62, 0
2, 60960, Note_on_c, 2, 52, 80
2, 60960, Note_on_c, 2, 59, 80
2, 60960, Note_on_c, 2, 62, 80
2, 61187, Note_on_c, 2, 52, 0
2, 61187, Note_on_c, 2, 59, 0
2, 61187, Note_on_c, 2, 62, 0
2, 61200, Note_on_c, 2, 53, 80
2, 61200, Note_on_c, 2, 57, 80
2, 61200, Note_on_c, 2, 60, 80
2, 61427, Note_on_c, 2, 53, 0
2, 61427, Note_on_c, 2, 57, 0
2, 61427, Note_on_c, 2, 60, 0
2, 61440, Note_on_c, 2, 53, 80
2, 61679, Note_on_c, 2, 53, 0
2, 61920, Note_on_c, 2, 53, 80
2, 61920, Note_on_c, 2, 57, 80
2, 61920, Note_on_c, 2, 60, 80
2, 62375, Note_on_c, 2, 53, 0
2, 62375, Note_on_c, 2, 57, 0
2, 62375, Note_on_c, 2, 60, 0
2, 62400, Note_on_c, 2, 53, 80
2, 62400, Note_on_c, 2, 57, 80
2, 62400, Note_on_c, 2, 60, 80
2, 62741, Note_on_c, 2, 53, 0
2, 62741, Note_on_c, 2, 57, 0
2, 62741, Note_on_c, 2, 60, 0
2, 62760, Note_on_c, 2, 53, 80
2, 62760, Note_on_c, 2, 57, 80
2, 62760, Note_on_c, 2, 60, 80
2, 62987, Note_on_c, 2, 53, 0
2, 62987, Note_on_c, 2, 57, 0
2, 62987, Note_on_c, 2, 60, 0
2, 63120, Note_on_c, 2, 52, 80
2, 63120, Note_on_c, 2, 55, 80
2, 63120, Note_on_c, 2, 60, 80
2, 63347, Note_on_c, 2, 52, 0
2, 63347, Note_on_c, 2, 55, 0
2, 63347, Note_on_c, 2, 60, 0
2, 63360, Note_on_c, 2, 48, 80
2, 63587, Note_on_c, 2, 48, 0
2, 63600, Note_on_c, 2, 52, 80
2, 63600, Note_on_c, 2, 55, 80
2, 63600, Note_on_c, 2, 60, 80
2, 63827, Note_on_c, 2, 52, 0
2, 63827, Note_on_c, 2, 55, 0
2, 63827, Note_on_c, 2, 60, 0
2, 63840, Note_on_c, 2, 48, 80
2, 63953, Note_on_c, 2, 48, 0
2, 63960, Note_on_c, 2, 52, 80
2, 63960, Note_on_c, 2, 55, 80
2, 63960, Note_on_c, 2, 60, 80
2, 64301, Note_on_c, 2, 52, 0
2, 64301, Note_on_c, 2, 55, 0
2, 64301, Note_on_c, 2, 60, 0
2, 64320, Note_on_c, 2, 52, 80
2, 64320, Note_on_c, 2, 55, 80
2, 64320, Note_on_c, 2, 60, 80
2, 64661, Note_on_c, 2, 52, 0
2, 64661, Note_on_c, 2, 55, 0
2, 64661, Note_on_c, 2, 60, 0
2, 64680, Note_on_c, 2, 52, 80
2, 64680, Note_on_c, 2, 55, 80
2, 64680, Note_on_c, 2, 60, 80
2, 64793, Note_on_c, 2, 52, 0
2, 64793, Note_on_c, 2, 55, 0
2, 64793, Note_on_c, 2, 60, 0
2, 65040, Note_on_c, 2, 52, 80
2, 65040, Note_on_c, 2, 55, 80
2, 65040, Note_on_c, 2, 60, 80
2, 65267, Note_on_c, 2, 52, 0
2, 65267, Note_on_c, 2, 55, 0
2, 65267, Note_on_c, 2, 60, 0
2, 65280, Note_on_c, 2, 52, 80
2, 65280, Note_on_c, 2, 57, 80
2, 65280, Note_on_c, 2, 60, 80
2, 65735, Note_on_c, 2, 52, 0
2, 65735, Note_on_c, 2, 57, 0
2, 65735, Note_on_c, 2, 60, 0
2, 65760, Note_on_c, 2, 52, 80
2, 65760, Note_on_c, 2, 57, 80
2, 65760, Note_on_c, 2, 60, 80
2, 66215, Note_on_c, 2, 52, 0
2, 66215, Note_on_c, 2, 57, 0
2, 66215, Note_on_c, 2, 60, 0
2, 66240, Note_on_c, 2, 52, 80
2, 66240, Note_on_c, 2, 57, 80
2, 66240, Note_on_c, 2, 60, 80
2, 66581, Note_on_c, 2, 52, 0
2, 66581, Note_on_c, 2, 57, 0
2, 66581, Note_on_c, 2, 60, 0
2, 66600, Note_on_c, 2, 52, 80
2, 66600, Note_on_c, 2, 57, 80
2, 66600, Note_on_c, 2, 60, 80
2, 66941, Note_on_c, 2, 52, 0
2, 66941, Note_on_c, 2, 57, 0
2, 66941, Note_on_c, 2, 60, 0
2, 66960, Note_on_c, 2, 52, 80
2, 66960, Note_on_c, 2, 59, 80
2, 66960, Note_on_c, 2, 62, 80
2, 67187, Note_on_c, 2, 52, 0
2, 67187, Note_on_c, 2, 59, 0
2, 67187, Note_on_c, 2, 62, 0
2, 67200, Note_on_c, 2, 52, 80
2, 67427, Note_on_c, 2, 52, 0
2, 67440, Note_on_c, 2, 59, 80
2, 67440, Note_on_c, 2, 62, 80
2, 67667, Note_on_c, 2, 59, 0
2, 67667, Note_on_c, 2, 62, 0
2, 67680, Note_on_c, 2, 52, 80
2, 67793, Note_on_c, 2, 52, 0
2, 67800, Note_on_c, 2, 59, 80
2, 67800, Note_on_c, 2, 62, 80
2, 68141, Note_on_c, 2, 59, 0
2, 68141, Note_on_c, 2, 62, 0
2, 68160, Note_on_c, 2, 52, 80
2, 68160, Note_on_c, 2, 59, 80
2, 68160, Note_on_c, 2, 62, 80
2, 68501, Note_on_c, 2, 52, 0
2, 68501, Note_on_c, 2, 59, 0
2, 68501, Note_on_c, 2, 62, 0
2, 68520, Note_on_c, 2, 52, 80
2, 68520, Note_on_c, 2, 59, 80
2, 68520, Note_on_c, 2, 62, 80
2, 68747, Note_on_c, 2, 52, 0
2, 68747, Note_on_c, 2, 59, 0
2, 68747, Note_on_c, 2, 62, 0
2, 68880, Note_on_c, 2, 52, 80
2, 68880, Note_on_c, 2, 59, 80
2, 68880, Note_on_c, 2, 62, 80
2, 69107, Note_on_c, 2, 52, 0
2, 69107, Note_on_c, 2, 59, 0
2, 69107, Note_on_c, 2, 62, 0
2, 69120, Note_on_c, 2, 52, 80
2, 69120, Note_on_c, 2, 57, 80
2, 69120, Note_on_c, 2, 60, 80
2, 69575, Note_on_c, 2, 52, 0
2, 69575, Note_on_c, 2, 57, 0
2, 69575, Note_on_c, 2, 60, 0
2, 69600, Note_on_c, 2, 52, 80
2, 69600, Note_on_c, 2, 57, 80
2, 69600, Note_on_c, 2, 60, 80
2, 70055, Note_on_c, 2, 52, 0
2, 70055, Note_on_c, 2, 57, 0
2, 70055, Note_on_c, 2, 60, 0
2, 70080, Note_on_c, 2, 52, 80
2, 70080, Note_on_c, 2, 57, 80
2, 70080, Note_on_c, 2, 60, 80
2, 70421, Note_on_c, 2, 52, 0
2, 70421, Note_on_c, 2, 57, 0
2, 70421, Note_on_c, 2, 60, 0
2, 70440, Note_on_c, 2, 52, 80
2, 70440, Note_on_c, 2, 57, 80
2, 70440, Note_on_c, 2, 60, 80
2, 70667, Note_on_c, 2, 52, 0
2, 70667, Note_on_c, 2, 57, 0
2, 70667, Note_on_c, 2, 60, 0
2, 70800, Note_on_c, 2, 50, 80
2, 70800, Note_on_c, 2, 57, 80
2, 70800, Note_on_c, 2, 60, 80
2, 71027, Note_on_c, 2, 50, 0
2, 71027, Note_on_c, 2, 57, 0
2, 71027, Note_on_c, 2, 60, 0
2, 71040, Note_on_c, 2, 50, 80
2, 71267, Note_on_c, 2, 50, 0
2, 71280, Note_on_c, 2, 57, 80
2, 71280, Note_on_c, 2, 60, 80
2, 71507, Note_on_c, 2, 57, 0
2, 71507, Note_on_c, 2, 60, 0
2, 71520, Note_on_c, 2, 50, 80
2, 71633, Note_on_c, 2, 50, 0
2, 71640, Note_on_c, 2, 57, 80
2, 71640, Note_on_c, 2, 60, 80
2, 71981, Note_on_c, 2, 57, 0
2, 71981, Note_on_c, 2, 60, 0
2, 72000, Note_on_c, 2, 50, 80
2, 72000, Note_on_c, 2, 57, 80
2, 72000, Note_on_c, 2, 60, 80
2, 72341, Note_on_c, 2, 50, 0
2, 72341, Note_on_c, 2, 57, 0
2, 72341, Note_on_c, 2, 60, 0
2, 72360, Note_on_c, 2, 50, 80
2, 72360, Note_on_c, 2, 57, 80
2, 72360, Note_on_c, 2, 60, 80
2, 72587, Note_on_c, 2, 50, 0
2, 72587, Note_on_c, 2, 57, 0
2, 72587, Note_on_c, 2, 60, 0
2, 72720, Note_on_c, 2, 50, 80
2, 72720, Note_on_c, 2, 55, 80
2, 72720, Note_on_c, 2, 59, 80
2, 72947, Note_on_c, 2, 50, 0
2, 72947, Note_on_c, 2, 55, 0
2, 72947, Note_on_c, 2, 59, 0
2, 72960, Note_on_c, 2, 48, 80
2, 72960, Note_on_c, 2, 53, 80
2, 72960, Note_on_c, 2, 57, 80
2, 73415, Note_on_c, 2, 48, 0
2, 73415, Note_on_c, 2, 53, 0
2, 73415, Note_on_c, 2, 57, 0
2, 73440, Note_on_c, 2, 48, 80
2, 73440, Note_on_c, 2, 53, 80
2, 73440, Note_on_c, 2, 57, 80
2, 73895, Note_on_c, 2, 48, 0
2, 73895, Note_on_c, 2, 53, 0
2, 73895, Note_on_c, 2, 57, 0
2, 73920, Note_on_c, 2, 48, 80
2, 73920, Note_on_c, 2, 53, 80
2, 73920, Note_on_c, 2, 57, 80
2, 74261, Note_on_c, 2, 48, 0
2, 74261, Note_on_c, 2, 53, 0
2, 74261, Note_on_c, 2, 57, 0
2, 74280, Note_on_c, 2, 48, 80
2, 74280, Note_on_c, 2, 53, 80
2, 74280, Note_on_c, 2, 57, 80
2, 74507, Note_on_c, 2, 48, 0
2, 74507, Note_on_c, 2, 53, 0
2, 74507, Note_on_c, 2, 57, 0
2, 74640, Note_on_c, 2, 52, 80
2, 74640, Note_on_c, 2, 55, 80
2, 74640, Note_on_c, 2, 60, 80
2, 74867, Note_on_c, 2, 52, 0
2, 74867, Note_on_c, 2, 55, 0
2, 74867, Note_on_c, 2, 60, 0
2, 74880, Note_on_c, 2, 48, 80
2, 75107, Note_on_c, 2, 48, 0
2, 75120, Note_on_c, 2, 52, 80
2, 75120, Note_on_c, 2, 55, 80
2, 75120, Note_on_c, 2, 60, 80
2, 75347, Note_on_c, 2, 52, 0
2, 75347, Note_on_c, 2, 55, 0
2, 75347, Note_on_c, 2, 60, 0
2, 75360, Note_on_c, 2, 48, 80
2, 75473, Note_on_c, 2, 48, 0
2, 75480, Note_on_c, 2, 52, 80
2, 75480, Note_on_c, 2, 55, 80
2, 75480, Note_on_c, 2, 60, 80
2, 75821, Note_on_c, 2, 52, 0
2, 75821, Note_on_c, 2, 55, 0
2, 75821, Note_on_c, 2, 60, 0
2, 75840, Note_on_c, 2, 50, 80
2, 75840, Note_on_c, 2, 55, 80
2, 75840, Note_on_c, 2, 59, 80
2, 76181, Note_on_c, 2, 50, 0
2, 76181, Note_on_c, 2, 55, 0
2, 76181, Note_on_c, 2, 59, 0
2, 76200, Note_on_c, 2, 50, 80
2, 76200, Note_on_c, 2, 55, 80
2, 76200, Note_on_c, 2, 59, 80
2, 76427, Note_on_c, 2, 50, 0
2, 76427, Note_on_c, 2, 55, 0
2, 76427, Note_on_c, 2, 59, 0
2, 76560, Note_on_c, 2, 50, 80
2, 76560, Note_on_c, 2, 55, 80
2, 76560, Note_on_c, 2, 59, 80
2, 76787, Note_on_c, 2, 50, 0
2, 76787, Note_on_c, 2, 55, 0
2, 76787, Note_on_c, 2, 59, 0
2, 76800, Note_on_c, 2, 48, 80
2, 76800, Note_on_c, 2, 52, 80
2, 76800, Note_on_c, 2, 57, 80
2, 77255, Note_on_c, 2, 48, 0
2, 77255, Note_on_c, 2, 52, 0
2, 77255, Note_on_c, 2, 57, 0
2, 77280, Note_on_c, 2, 48, 80
2, 77280, Note_on_c, 2, 52, 80
2, 77280, Note_on_c, 2, 57, 80
2, 77735, Note_on_c, 2, 48, 0
2, 77735, Note_on_c, 2, 52, 0
2, 77735, Note_on_c, 2, 57, 0
2, 77760, Note_on_c, 2, 48, 80
2, 77760, Note_on_c, 2, 52, 80
2, 77760, Note_on_c, 2, 57, 80
2, 78101, Note_on_c, 2, 48, 0
2, 78101, Note_on_c, 2, 52, 0
2, 78101, Note_on_c, 2, 57, 0
2, 78120, Note_on_c, 2, 48, 80
2, 78120, Note_on_c, 2, 52, 80
2, 78120, Note_on_c, 2, 57, 80
2, 78347, Note_on_c, 2, 48, 0
2, 78347, Note_on_c, 2, 52, 0
2, 78347, Note_on_c, 2, 57, 0
2, 78480, Note_on_c, 2, 50, 80
2, 78480, Note_on_c, 2, 57, 80
2, 78480, Note_on_c, 2, 60, 80
2, 78707, Note_on_c, 2, 50, 0
2, 78707, Note_on_c, 2, 57, 0
2, 78707, Note_on_c, 2, 60, 0
2, 78720, Note_on_c, 2, 50, 80
2, 78947, Note_on_c, 2, 50, 0
2, 78960, Note_on_c, 2, 57, 80
2, 78960, Note_on_c, 2, 60, 80
2, 79187, Note_on_c, 2, 57, 0
2, 79187, Note_on_c, 2, 60, 0
2, 79200, Note_on_c, 2, 50, 80
2, 79313, Note_on_c, 2, 50, 0
2, 79320, Note_on_c, 2, 57, 80
2, 79320, Note_on_c, 2, 60, 80
2, 79661, Note_on_c, 2, 57, 0
2, 79661, Note_on_c, 2, 60, 0
2, 79680, Note_on_c, 2, 50, 80
2, 79680, Note_on_c, 2, 57, 80
2, 79680, Note_on_c, 2, 60, 80
2, 80021, Note_on_c, 2, 50, 0
2, 80021, Note_on_c, 2, 57, 0
2, 80021, Note_on_c, 2, 60, 0
2, 80040, Note_on_c, 2, 50, 80
2, 80040, Note_on_c, 2, 57, 80
2, 80040, Note_on_c, 2, 60, 80
2, 80267, Note_on_c, 2, 50, 0
2, 80267, Note_on_c, 2, 57, 0
2, 80267, Note_on_c, 2, 60, 0
2, 80400, Note_on_c, 2, 50, 80
2, 80400, Note_on_c, 2, 55, 80
2, 80400, Note_on_c, 2, 59, 80
2, 80627, Note_on_c, 2, 50, 0
2, 80627, Note_on_c, 2, 55, 0
2, 80627, Note_on_c, 2, 59, 0
2, 80640, Note_on_c, 2, 48, 80
2, 80640, Note_on_c, 2, 53, 80
2, 80640, Note_on_c, 2, 57, 80
2, 81095, Note_on_c, 2, 48, 0
2, 81095, Note_on_c, 2, 53, 0
2, 81095, Note_on_c, 2, 57, 0
2, 81120, Note_on_c, 2, 48, 80
2, 81120, Note_on_c, 2, 53, 80
2, 81120, Note_on_c, 2, 57, 80
2, 81575, Note_on_c, 2, 48, 0
2, 81575, Note_on_c, 2, 53, 0
2, 81575, Note_on_c, 2, 57, 0
2, 81600, Note_on_c, 2, 48, 80
2, 81600, Note_on_c, 2, 53, 80
2, 81600, Note_on_c, 2, 57, 80
2, 81941, Note_on_c, 2, 48, 0
2, 81941, Note_on_c, 2, 53, 0
2, 81941, Note_on_c, 2, 57, 0
2, 81960, Note_on_c, 2, 48, 80
2, 81960, Note_on_c, 2, 53, 80
2, 81960, Note_on_c, 2, 57, 80
2, 82187, Note_on_c, 2, 48, 0
2, 82187, Note_on_c, 2, 53, 0
2, 82187, Note_on_c, 2, 57, 0
2, 82320, Note_on_c, 2, 52, 80
2, 82320, Note_on_c, 2, 55, 80
2, 82320, Note_on_c, 2, 60, 80
2, 82547, Note_on_c, 2, 52, 0
2, 82547, Note_on_c, 2, 55, 0
2, 82547, Note_on_c, 2, 60, 0
2, 82560, Note_on_c, 2, 48, 80
2, 82787, Note_on_c, 2, 48, 0
2, 82800, Note_on_c, 2, 52, 80
2, 82800, Note_on_c, 2, 55, 80
2, 82800, Note_on_c, 2, 60, 80
2, 83141, Note_on_c, 2, 52, 0
2, 83141, Note_on_c, 2, 55, 0
2, 83141, Note_on_c, 2, 60, 0
2, 83160, Note_on_c, 2, 52, 80
2, 83160, Note_on_c, 2, 55, 80
2, 83160, Note_on_c, 2, 60, 80
2, 83501, Note_on_c, 2, 52, 0
2, 83501, Note_on_c, 2, 55, 0
2, 83501, Note_on_c, 2, 60, 0
2, 83520, Note_on_c, 2, 52, 80
2, 83520, Note_on_c, 2, 59, 80
2, 83520, Note_on_c, 2, 62, 80
2, 84431, Note_on_c, 2, 52, 0
2, 84431, Note_on_c, 2, 59, 0
2, 84431, Note_on_c, 2, 62, 0
2, 84480, Note_on_c, 2, 53, 80
2, 84480, Note_on_c, 2, 57, 80
2, 84480, Note_on_c, 2, 60, 80
2, 85847, Note_on_c, 2, 53, 0
2, 85847, Note_on_c, 2, 57, 0
2, 85847, Note_on_c, 2, 60, 0
2, 86160, Note_on_c, 2, 52, 80
2, 86160, Note_on_c, 2, 55, 80
2, 86160, Note_on_c, 2, 60, 80
2, 87755, Note_on_c, 2, 52, 0
2, 87755, Note_on_c, 2, 55, 0
2, 87755, Note_on_c, 2, 60, 0
2, 87840, Note_on_c, 2, 52, 80
2, 87840, Note_on_c, 2, 55, 80
2, 87840, Note_on_c, 2, 60, 80
2, 88295, Note_on_c, 2, 52, 0
2, 88295, Note_on_c, 2, 55, 0
2, 88295, Note_on_c, 2, 60, 0
2, 88320, Note_on_c, 2, 52, 80
2, 88320, Note_on_c, 2, 57, 80
2, 88320, Note_on_c, 2, 60, 80
2, 90143, Note_on_c, 2, 52, 0
2, 90143, Note_on_c, 2, 57, 0
2, 90143, Note_on_c, 2, 60, 0
2, 90240, Note_on_c, 2, 52, 80
2, 90240, Note_on_c, 2, 59, 80
2, 90240, Note_on_c, 2, 62, 80
2, 91607, Note_on_c, 2, 52, 0
2, 91607, Note_on_c, 2, 59, 0
2, 91607, Note_on_c, 2, 62, 0
2, 91920, Note_on_c, 2, 53, 80
2, 91920, Note_on_c, 2, 57, 80
2, 91920, Note_on_c, 2, 60, 80
2, 93173, Note_on_c, 2, 53, 0
2, 93173, Note_on_c, 2, 57, 0
2, 93173, Note_on_c, 2, 60, 0
2, 93480, Note_on_c, 2, 53, 80
2, 93480, Note_on_c, 2, 57, 80
2, 93480, Note_on_c, 2, 60, 80
2, 93821, Note_on_c, 2, 53, 0
2, 93821, Note_on_c, 2, 57, 0
2, 93821, Note_on_c, 2, 60, 0
2, 93840, Note_on_c, 2, 52, 80
2, 93840, Note_on_c, 2, 55, 80
2, 93840, Note_on_c, 2, 60, 80
2, 94523, Note_on_c, 2, 52, 0
2, 94523, Note_on_c, 2, 55, 0
2, 94523, Note_on_c, 2, 60, 0
2, 95040, Note_on_c, 2, 52, 80
2, 95040, Note_on_c, 2, 55, 80
2, 95040, Note_on_c, 2, 60, 80
2, 95723, Note_on_c, 2, 52, 0
2, 95723, Note_on_c, 2, 55, 0
2, 95723, Note_on_c, 2, 60, 0
2, 95760, Note_on_c, 2, 52, 80
2, 95760, Note_on_c, 2, 55, 80
2, 95760, Note_on_c, 2, 60, 80
2, 95987, Note_on_c, 2, 52, 0
2, 95987, Note_on_c, 2, 55, 0
2, 95987, Note_on_c, 2, 60, 0
2, 96000, Note_on_c, 2, 52, 80
2, 96000, Note_on_c, 2, 57, 80
2, 96000, Note_on_c, 2, 60, 80
2, 96911, Note_on_c, 2, 52, 0
2, 96911, Note_on_c, 2, 57, 0
2, 96911, Note_on_c, 2, 60, 0
2, 96960, Note_on_c, 2, 52, 80
2, 96960, Note_on_c, 2, 57, 80
2, 96960, Note_on_c, 2, 60, 80
2, 97643, Note_on_c, 2, 52, 0
2, 97643, Note_on_c, 2, 57, 0
2, 97643, Note_on_c, 2, 60, 0
2, 97680, Note_on_c, 2, 52, 80
2, 97680, Note_on_c, 2, 59, 80
2, 97680, Note_on_c, 2, 62, 80
2, 97907, Note_on_c, 2, 52, 0
2, 97907, Note_on_c, 2, 59, 0
2, 97907, Note_on_c, 2, 62, 0
2, 98160, Note_on_c, 2, 52, 80
2, 98160, Note_on_c, 2, 59, 80
2, 98160, Note_on_c, 2, 62, 80
2, 98387, Note_on_c, 2, 52, 0
2, 98387, Note_on_c, 2, 59, 0
2, 98387, Note_on_c, 2, 62, 0
2, 98520, Note_on_c, 2, 52, 80
2, 98520, Note_on_c, 2, 59, 80
2, 98520, Note_on_c, 2, 62, 80
2, 98861, Note_on_c, 2, 52, 0
2, 98861, Note_on_c, 2, 59, 0
2, 98861, Note_on_c, 2, 62, 0
2, 98880, Note_on_c, 2, 52, 80
2, 98880, Note_on_c, 2, 59, 80
2, 98880, Note_on_c, 2, 62, 80
2, 99335, Note_on_c, 2, 52, 0
2, 99335, Note_on_c, 2, 59, 0
2, 99335, Note_on_c, 2, 62, 0
2, 99360, Note_on_c, 2, 52, 80
2, 99360, Note_on_c, 2, 59, 80
2, 99360, Note_on_c, 2, 62, 80
2, 99815, Note_on_c, 2, 52, 0
2, 99815, Note_on_c, 2, 59, 0
2, 99815, Note_on_c, 2, 62, 0
2, 100080, Note_on_c, 2, 55, 80
2, 100080, Note_on_c, 2, 59, 80
2, 100080, Note_on_c, 2, 62, 80
2, 100307, Note_on_c, 2, 55, 0
2, 100307, Note_on_c, 2, 59, 0
2, 100307, Note_on_c, 2, 62, 0
2, 100440, Note_on_c, 2, 55, 80
2, 100440, Note_on_c, 2, 59, 80
2, 100440, Note_on_c, 2, 62, 80
2, 100781, Note_on_c, 2, 55, 0
2, 100781, Note_on_c, 2, 59, 0
2, 100781, Note_on_c, 2, 62, 0
2, 100800, Note_on_c, 2, 55, 80
2, 100800, Note_on_c, 2, 59, 80
2, 100800, Note_on_c, 2, 62, 80
2, 101255, Note_on_c, 2, 55, 0
2, 101255, Note_on_c, 2, 59, 0
2, 101255, Note_on_c, 2, 62, 0
2, 101280, Note_on_c, 2, 55, 80
2, 101280, Note_on_c, 2, 59, 80
2, 101280, Note_on_c, 2, 62, 80
2, 101735, Note_on_c, 2, 55, 0
2, 101735, Note_on_c, 2, 59, 0
2, 101735, Note_on_c, 2, 62, 0
2, 101760, Note_on_c, 2, 52, 80
2, 101760, Note_on_c, 2, 55, 80
2, 101760, Note_on_c, 2, 60, 80
2, 103127, Note_on_c, 2, 52, 0
2, 103127, Note_on_c, 2, 55, 0
2, 103127, Note_on_c, 2, 60, 0
2, 103440, Note_on_c, 2, 55, 80
2, 103440, Note_on_c, 2, 59, 80
2, 103440, Note_on_c, 2, 64, 80
2, 104693, Note_on_c, 2, 55, 0
2, 104693, Note_on_c, 2, 59, 0
2, 104693, Note_on_c, 2, 64, 0
2, 105000, Note_on_c, 2, 59, 80
2, 105000, Note_on_c, 2, 64, 80
2, 105000, Note_on_c, 2, 55, 80
2, 105113, Note_on_c, 2, 55, 0
2, 105341, Note_on_c, 2, 59, 0
2, 105341, Note_on_c, 2, 64, 0
2, 105360, Note_on_c, 2, 57, 80
2, 105360, Note_on_c, 2, 60, 80
2, 105360, Note_on_c, 2, 64, 80
2, 106499, Note_on_c, 2, 57, 0
2, 106499, Note_on_c, 2, 60, 0
2, 106499, Note_on_c, 2, 64, 0
2, 106560, Note_on_c, 2, 52, 80
2, 106560, Note_on_c, 2, 55, 80
2, 106560, Note_on_c, 2, 60, 80
2, 107243, Note_on_c, 2, 52, 0
2, 107243, Note_on_c, 2, 55, 0
2, 107243, Note_on_c, 2, 60, 0
2, 107280, Note_on_c, 2, 53, 80
2, 107280, Note_on_c, 2, 57, 80
2, 107280, Note_on_c, 2, 60, 80
2, 108419, Note_on_c, 2, 53, 0
2, 108419, Note_on_c, 2, 57, 0
2, 108419, Note_on_c, 2, 60, 0
2, 108480, Note_on_c, 2, 53, 80
2, 108480, Note_on_c, 2, 57, 80
2, 108480, Note_on_c, 2, 60, 80
2, 108821, Note_on_c, 2, 53, 0
2, 108821, Note_on_c, 2, 57, 0
2, 108821, Note_on_c, 2, 60, 0
2, 108840, Note_on_c, 2, 53, 80
2, 108840, Note_on_c, 2, 57, 80
2, 108840, Note_on_c, 2, 60, 80
2, 109181, Note_on_c, 2, 53, 0
2, 109181, Note_on_c, 2, 57, 0
2, 109181, Note_on_c, 2, 60, 0
2, 109200, Note_on_c, 2, 52, 80
2, 109200, Note_on_c, 2, 55, 80
2, 109200, Note_on_c, 2, 60, 80
2, 109427, Note_on_c, 2, 52, 0
2, 109427, Note_on_c, 2, 55, 0
2, 109427, Note_on_c, 2, 60, 0
2, 109428, End_track
3, 0, Start_track
3, 0, Title_t, "Electric Bass, Bass\000"
3, 0, Key_signature, 0, "major"
3, 0, Control_c, 5, 121, 0
3, 0, Program_c, 5, 33
3, 0, Control_c, 5, 7, 100
3, 0, Control_c, 5, 10, 64
3, 0, Control_c, 5, 91, 0
3, 0, Control_c, 5, 93, 0
3, 0, MIDI_port, 0
3, 0, Note_on_c, 5, 60, 80
3, 0, Control_c, 0, 121, 0
3, 0, Program_c, 0, 36
3, 0, Control_c, 0, 7, 100
3, 0, Control_c, 0, 10, 64
3, 0, Control_c, 0, 91, 0
3, 0, Control_c, 0, 93, 0
3, 0, MIDI_port, 0
3, 0, Control_c, 3, 121, 0
3, 0, Program_c, 3, 37
3, 0, Control_c, 3, 7, 100
3, 0, Control_c, 3, 10, 64
3, 0, Control_c, 3, 91, 0
3, 0, Control_c, 3, 93, 0
3, 0, MIDI_port, 0
3, 2879, Note_on_c, 5, 60, 0
3, 2880, Note_on_c, 5, 52, 80
3, 3599, Note_on_c, 5, 52, 0
3, 3600, Note_on_c, 5, 57, 80
3, 4799, Note_on_c, 5, 57, 0
3, 4800, Note_on_c, 5, 52, 80
3, 5519, Note_on_c, 5, 52, 0
3, 5520, Note_on_c, 5, 53, 80
3, 6719, Note_on_c, 5, 53, 0
3, 6720, Note_on_c, 5, 55, 80
3, 7679, Note_on_c, 5, 55, 0
3, 7680, Note_on_c, 5, 60, 80
3, 9239, Note_on_c, 5, 60, 0
3, 9360, Note_on_c, 5, 64, 80
3, 10559, Note_on_c, 5, 64, 0
3, 10560, Note_on_c, 5, 52, 80
3, 10919, Note_on_c, 5, 52, 0
3, 10920, Note_on_c, 5, 52, 80
3, 11279, Note_on_c, 5, 52, 0
3, 11280, Note_on_c, 5, 57, 80
3, 11519, Note_on_c, 5, 57, 0
3, 12480, Note_on_c, 5, 52, 80
3, 12839, Note_on_c, 5, 52, 0
3, 12840, Note_on_c, 5, 52, 80
3, 13199, Note_on_c, 5, 52, 0
3, 13200, Note_on_c, 5, 53, 80
3, 13679, Note_on_c, 5, 53, 0
3, 13680, Note_on_c, 5, 53, 80
3, 14039, Note_on_c, 5, 53, 0
3, 14040, Note_on_c, 5, 53, 80
3, 14399, Note_on_c, 5, 53, 0
3, 14400, Note_on_c, 5, 55, 80
3, 14759, Note_on_c, 5, 55, 0
3, 14760, Note_on_c, 5, 55, 80
3, 14999, Note_on_c, 5, 55, 0
3, 15120, Note_on_c, 5, 55, 80
3, 15359, Note_on_c, 5, 55, 0
3, 15360, Note_on_c, 5, 60, 80
3, 15839, Note_on_c, 5, 60, 0
3, 15840, Note_on_c, 5, 60, 80
3, 16319, Note_on_c, 5, 60, 0
3, 16320, Note_on_c, 5, 60, 80
3, 16679, Note_on_c, 5, 60, 0
3, 16680, Note_on_c, 5, 60, 80
3, 16919, Note_on_c, 5, 60, 0
3, 17040, Note_on_c, 5, 64, 80
3, 17279, Note_on_c, 5, 64, 0
3, 17520, Note_on_c, 5, 64, 80
3, 17759, Note_on_c, 5, 64, 0
3, 17880, Note_on_c, 5, 64, 80
3, 18239, Note_on_c, 5, 64, 0
3, 18240, Note_on_c, 5, 64, 80
3, 18599, Note_on_c, 5, 64, 0
3, 18600, Note_on_c, 5, 64, 80
3, 18839, Note_on_c, 5, 64, 0
3, 18960, Note_on_c, 5, 64, 80
3, 19199, Note_on_c, 5, 64, 0
3, 19200, Note_on_c, 5, 65, 80
3, 19679, Note_on_c, 5, 65, 0
3, 19680, Note_on_c, 5, 65, 80
3, 20159, Note_on_c, 5, 65, 0
3, 20160, Note_on_c, 5, 65, 80
3, 20519, Note_on_c, 5, 65, 0
3, 20520, Note_on_c, 5, 65, 80
3, 20759, Note_on_c, 5, 65, 0
3, 20880, Note_on_c, 5, 60, 80
3, 21359, Note_on_c, 5, 60, 0
3, 21600, Note_on_c, 5, 60, 80
3, 22079, Note_on_c, 5, 60, 0
3, 22080, Note_on_c, 5, 59, 80
3, 22439, Note_on_c, 5, 59, 0
3, 22440, Note_on_c, 5, 59, 80
3, 22679, Note_on_c, 5, 59, 0
3, 22800, Note_on_c, 5, 59, 80
3, 23039, Note_on_c, 5, 59, 0
3, 23040, Note_on_c, 5, 57, 80
3, 23519, Note_on_c, 5, 57, 0
3, 23520, Note_on_c, 5, 57, 80
3, 23999, Note_on_c, 5, 57, 0
3, 24000, Note_on_c, 5, 52, 80
3, 24359, Note_on_c, 5, 52, 0
3, 24360, Note_on_c, 5, 52, 80
3, 24599, Note_on_c, 5, 52, 0
3, 24720, Note_on_c, 5, 52, 80
3, 24959, Note_on_c, 5, 52, 0
3, 24960, Note_on_c, 5, 53, 80
3, 25319, Note_on_c, 5, 53, 0
3, 25320, Note_on_c, 5, 53, 80
3, 25559, Note_on_c, 5, 53, 0
3, 25680, Note_on_c, 5, 53, 80
3, 25919, Note_on_c, 5, 53, 0
3, 25920, Note_on_c, 5, 60, 80
3, 26399, Note_on_c, 5, 60, 0
3, 26400, Note_on_c, 5, 59, 80
3, 26879, Note_on_c, 5, 59, 0
3, 26880, Note_on_c, 5, 57, 80
3, 27359, Note_on_c, 5, 57, 0
3, 27360, Note_on_c, 5, 57, 80
3, 27839, Note_on_c, 5, 57, 0
3, 27840, Note_on_c, 5, 64, 80
3, 28199, Note_on_c, 5, 64, 0
3, 28200, Note_on_c, 5, 64, 80
3, 28439, Note_on_c, 5, 64, 0
3, 28560, Note_on_c, 5, 64, 80
3, 28799, Note_on_c, 5, 64, 0
3, 28800, Note_on_c, 5, 65, 80
3, 29159, Note_on_c, 5, 65, 0
3, 29160, Note_on_c, 5, 65, 80
3, 29519, Note_on_c, 5, 65, 0
3, 29520, Note_on_c, 5, 60, 80
3, 29999, Note_on_c, 5, 60, 0
3, 30240, Note_on_c, 5, 59, 80
3, 30719, Note_on_c, 5, 59, 0
3, 30720, Note_on_c, 5, 57, 80
3, 31079, Note_on_c, 5, 57, 0
3, 31080, Note_on_c, 5, 55, 80
3, 31319, Note_on_c, 5, 55, 0
3, 31440, Note_on_c, 5, 57, 80
3, 31919, Note_on_c, 5, 57, 0
3, 32040, Note_on_c, 5, 57, 80
3, 32399, Note_on_c, 5, 57, 0
3, 32400, Note_on_c, 5, 57, 80
3, 32639, Note_on_c, 5, 57, 0
3, 32640, Note_on_c, 5, 57, 80
3, 32999, Note_on_c, 5, 57, 0
3, 33000, Note_on_c, 5, 57, 80
3, 33359, Note_on_c, 5, 57, 0
3, 33360, Note_on_c, 5, 57, 80
3, 33599, Note_on_c, 5, 57, 0
3, 33600, Note_on_c, 5, 60, 80
3, 33959, Note_on_c, 5, 60, 0
3, 33960, Note_on_c, 5, 60, 80
3, 34319, Note_on_c, 5, 60, 0
3, 34320, Note_on_c, 5, 62, 80
3, 34559, Note_on_c, 5, 62, 0
3, 34560, Note_on_c, 5, 50, 80
3, 34919, Note_on_c, 5, 50, 0
3, 34920, Note_on_c, 5, 50, 80
3, 35279, Note_on_c, 5, 50, 0
3, 35280, Note_on_c, 5, 50, 80
3, 35519, Note_on_c, 5, 50, 0
3, 35520, Note_on_c, 5, 50, 80
3, 35879, Note_on_c, 5, 50, 0
3, 35880, Note_on_c, 5, 50, 80
3, 36239, Note_on_c, 5, 50, 0
3, 36240, Note_on_c, 5, 52, 80
3, 36479, Note_on_c, 5, 52, 0
3, 36480, Note_on_c, 5, 53, 80
3, 36839, Note_on_c, 5, 53, 0
3, 36840, Note_on_c, 5, 53, 80
3, 37079, Note_on_c, 5, 53, 0
3, 37200, Note_on_c, 5, 52, 80
3, 37439, Note_on_c, 5, 52, 0
3, 37440, Note_on_c, 5, 60, 80
3, 37919, Note_on_c, 5, 60, 0
3, 37920, Note_on_c, 5, 59, 80
3, 38399, Note_on_c, 5, 59, 0
3, 38400, Note_on_c, 5, 57, 80
3, 38879, Note_on_c, 5, 57, 0
3, 38880, Note_on_c, 5, 57, 80
3, 39359, Note_on_c, 5, 57, 0
3, 39360, Note_on_c, 5, 57, 80
3, 39719, Note_on_c, 5, 57, 0
3, 39720, Note_on_c, 5, 57, 80
3, 39959, Note_on_c, 5, 57, 0
3, 40080, Note_on_c, 5, 50, 80
3, 40319, Note_on_c, 5, 50, 0
3, 40560, Note_on_c, 5, 50, 80
3, 40799, Note_on_c, 5, 50, 0
3, 40920, Note_on_c, 5, 50, 80
3, 41279, Note_on_c, 5, 50, 0
3, 41280, Note_on_c, 5, 50, 80
3, 41639, Note_on_c, 5, 50, 0
3, 41640, Note_on_c, 5, 50, 80
3, 41879, Note_on_c, 5, 50, 0
3, 42000, Note_on_c, 5, 52, 80
3, 42239, Note_on_c, 5, 52, 0
3, 42240, Note_on_c, 5, 53, 80
3, 42719, Note_on_c, 5, 53, 0
3, 42720, Note_on_c, 5, 53, 80
3, 43199, Note_on_c, 5, 53, 0
3, 43200, Note_on_c, 5, 53, 80
3, 43559, Note_on_c, 5, 53, 0
3, 43560, Note_on_c, 5, 53, 80
3, 43799, Note_on_c, 5, 53, 0
3, 43920, Note_on_c, 5, 48, 80
3, 44159, Note_on_c, 5, 48, 0
3, 44400, Note_on_c, 5, 60, 80
3, 44639, Note_on_c, 5, 60, 0
3, 44760, Note_on_c, 5, 60, 80
3, 45119, Note_on_c, 5, 60, 0
3, 45120, Note_on_c, 5, 59, 80
3, 45479, Note_on_c, 5, 59, 0
3, 45480, Note_on_c, 5, 59, 80
3, 45719, Note_on_c, 5, 59, 0
3, 45840, Note_on_c, 5, 59, 80
3, 46079, Note_on_c, 5, 59, 0
3, 46080, Note_on_c, 5, 57, 80
3, 46559, Note_on_c, 5, 57, 0
3, 46560, Note_on_c, 5, 57, 80
3, 47039, Note_on_c, 5, 57, 0
3, 47040, Note_on_c, 5, 57, 80
3, 47399, Note_on_c, 5, 57, 0
3, 47400, Note_on_c, 5, 57, 80
3, 47639, Note_on_c, 5, 57, 0
3, 47760, Note_on_c, 5, 50, 80
3, 47999, Note_on_c, 5, 50, 0
3, 48240, Note_on_c, 5, 50, 80
3, 48479, Note_on_c, 5, 50, 0
3, 48600, Note_on_c, 5, 50, 80
3, 48959, Note_on_c, 5, 50, 0
3, 48960, Note_on_c, 5, 50, 80
3, 49319, Note_on_c, 5, 50, 0
3, 49320, Note_on_c, 5, 50, 80
3, 49559, Note_on_c, 5, 50, 0
3, 49680, Note_on_c, 5, 52, 80
3, 49919, Note_on_c, 5, 52, 0
3, 49920, Note_on_c, 5, 53, 80
3, 50399, Note_on_c, 5, 53, 0
3, 50400, Note_on_c, 5, 53, 80
3, 50879, Note_on_c, 5, 53, 0
3, 50880, Note_on_c, 5, 53, 80
3, 51239, Note_on_c, 5, 53, 0
3, 51240, Note_on_c, 5, 53, 80
3, 51479, Note_on_c, 5, 53, 0
3, 51600, Note_on_c, 5, 60, 80
3, 51839, Note_on_c, 5, 60, 0
3, 52080, Note_on_c, 5, 60, 80
3, 52319, Note_on_c, 5, 60, 0
3, 52440, Note_on_c, 5, 60, 80
3, 52799, Note_on_c, 5, 60, 0
3, 52800, Note_on_c, 5, 59, 80
3, 53159, Note_on_c, 5, 59, 0
3, 53160, Note_on_c, 5, 59, 80
3, 53399, Note_on_c, 5, 59, 0
3, 53520, Note_on_c, 5, 59, 80
3, 53759, Note_on_c, 5, 59, 0
3, 53760, Note_on_c, 5, 53, 80
3, 54239, Note_on_c, 5, 53, 0
3, 54240, Note_on_c, 5, 53, 80
3, 54719, Note_on_c, 5, 53, 0
3, 54720, Note_on_c, 5, 53, 80
3, 55079, Note_on_c, 5, 53, 0
3, 55080, Note_on_c, 5, 53, 80
3, 55319, Note_on_c, 5, 53, 0
3, 55440, Note_on_c, 5, 60, 80
3, 55679, Note_on_c, 5, 60, 0
3, 55920, Note_on_c, 5, 60, 80
3, 56159, Note_on_c, 5, 60, 0
3, 56280, Note_on_c, 5, 60, 80
3, 56639, Note_on_c, 5, 60, 0
3, 56640, Note_on_c, 5, 60, 80
3, 56999, Note_on_c, 5, 60, 0
3, 57000, Note_on_c, 5, 60, 80
3, 57239, Note_on_c, 5, 60, 0
3, 57360, Note_on_c, 5, 60, 80
3, 57599, Note_on_c, 5, 60, 0
3, 57600, Note_on_c, 5, 57, 80
3, 58079, Note_on_c, 5, 57, 0
3, 58080, Note_on_c, 5, 57, 80
3, 58559, Note_on_c, 5, 57, 0
3, 58560, Note_on_c, 5, 57, 80
3, 59039, Note_on_c, 5, 57, 0
3, 59040, Note_on_c, 5, 57, 80
3, 59519, Note_on_c, 5, 57, 0
3, 59520, Note_on_c, 5, 52, 80
3, 59879, Note_on_c, 5, 52, 0
3, 59880, Note_on_c, 5, 52, 80
3, 60119, Note_on_c, 5, 52, 0
3, 60240, Note_on_c, 5, 52, 80
3, 60479, Note_on_c, 5, 52, 0
3, 60600, Note_on_c, 5, 52, 80
3, 60959, Note_on_c, 5, 52, 0
3, 60960, Note_on_c, 5, 52, 80
3, 61199, Note_on_c, 5, 52, 0
3, 61200, Note_on_c, 5, 53, 80
3, 61679, Note_on_c, 5, 53, 0
3, 61920, Note_on_c, 5, 53, 80
3, 62399, Note_on_c, 5, 53, 0
3, 62400, Note_on_c, 5, 53, 80
3, 62759, Note_on_c, 5, 53, 0
3, 62760, Note_on_c, 5, 53, 80
3, 62999, Note_on_c, 5, 53, 0
3, 63120, Note_on_c, 5, 60, 80
3, 63359, Note_on_c, 5, 60, 0
3, 63600, Note_on_c, 5, 60, 80
3, 63839, Note_on_c, 5, 60, 0
3, 63960, Note_on_c, 5, 60, 80
3, 64319, Note_on_c, 5, 60, 0
3, 64320, Note_on_c, 5, 60, 80
3, 64679, Note_on_c, 5, 60, 0
3, 64680, Note_on_c, 5, 60, 80
3, 64919, Note_on_c, 5, 60, 0
3, 65040, Note_on_c, 5, 60, 80
3, 65279, Note_on_c, 5, 60, 0
3, 65280, Note_on_c, 5, 57, 80
3, 65759, Note_on_c, 5, 57, 0
3, 65760, Note_on_c, 5, 57, 80
3, 66239, Note_on_c, 5, 57, 0
3, 66240, Note_on_c, 5, 57, 80
3, 66599, Note_on_c, 5, 57, 0
3, 66600, Note_on_c, 5, 57, 80
3, 66959, Note_on_c, 5, 57, 0
3, 66960, Note_on_c, 5, 52, 80
3, 67199, Note_on_c, 5, 52, 0
3, 67440, Note_on_c, 5, 52, 80
3, 67679, Note_on_c, 5, 52, 0
3, 67800, Note_on_c, 5, 52, 80
3, 68159, Note_on_c, 5, 52, 0
3, 68160, Note_on_c, 5, 52, 80
3, 68519, Note_on_c, 5, 52, 0
3, 68520, Note_on_c, 5, 52, 80
3, 68759, Note_on_c, 5, 52, 0
3, 68880, Note_on_c, 5, 52, 80
3, 69119, Note_on_c, 5, 52, 0
3, 69120, Note_on_c, 5, 57, 80
3, 69599, Note_on_c, 5, 57, 0
3, 69600, Note_on_c, 5, 57, 80
3, 70079, Note_on_c, 5, 57, 0
3, 70080, Note_on_c, 5, 57, 80
3, 70439, Note_on_c, 5, 57, 0
3, 70440, Note_on_c, 5, 57, 80
3, 70679, Note_on_c, 5, 57, 0
3, 70800, Note_on_c, 5, 50, 80
3, 71039, Note_on_c, 5, 50, 0
3, 71280, Note_on_c, 5, 50, 80
3, 71519, Note_on_c, 5, 50, 0
3, 71640, Note_on_c, 5, 50, 80
3, 71999, Note_on_c, 5, 50, 0
3, 72000, Note_on_c, 5, 50, 80
3, 72359, Note_on_c, 5, 50, 0
3, 72360, Note_on_c, 5, 50, 80
3, 72599, Note_on_c, 5, 50, 0
3, 72720, Note_on_c, 5, 52, 80
3, 72959, Note_on_c, 5, 52, 0
3, 72960, Note_on_c, 5, 53, 80
3, 73439, Note_on_c, 5, 53, 0
3, 73440, Note_on_c, 5, 53, 80
3, 73919, Note_on_c, 5, 53, 0
3, 73920, Note_on_c, 5, 53, 80
3, 74279, Note_on_c, 5, 53, 0
3, 74280, Note_on_c, 5, 53, 80
3, 74519, Note_on_c, 5, 53, 0
3, 74640, Note_on_c, 5, 60, 80
3, 74879, Note_on_c, 5, 60, 0
3, 75120, Note_on_c, 5, 60, 80
3, 75359, Note_on_c, 5, 60, 0
3, 75480, Note_on_c, 5, 60, 80
3, 75839, Note_on_c, 5, 60, 0
3, 75840, Note_on_c, 5, 59, 80
3, 76199, Note_on_c, 5, 59, 0
3, 76200, Note_on_c, 5, 59, 80
3, 76439, Note_on_c, 5, 59, 0
3, 76560, Note_on_c, 5, 59, 80
3, 76799, Note_on_c, 5, 59, 0
3, 76800, Note_on_c, 5, 57, 80
3, 77279, Note_on_c, 5, 57, 0
3, 77280, Note_on_c, 5, 57, 80
3, 77759, Note_on_c, 5, 57, 0
3, 77760, Note_on_c, 5, 57, 80
3, 78119, Note_on_c, 5, 57, 0
3, 78120, Note_on_c, 5, 57, 80
3, 78359, Note_on_c, 5, 57, 0
3, 78480, Note_on_c, 5, 50, 80
3, 78719, Note_on_c, 5, 50, 0
3, 78960, Note_on_c, 5, 50, 80
3, 79199, Note_on_c, 5, 50, 0
3, 79320, Note_on_c, 5, 50, 80
3, 79679, Note_on_c, 5, 50, 0
3, 79680, Note_on_c, 5, 50, 80
3, 80039, Note_on_c, 5, 50, 0
3, 80040, Note_on_c, 5, 50, 80
3, 80279, Note_on_c, 5, 50, 0
3, 80400, Note_on_c, 5, 52, 80
3, 80639, Note_on_c, 5, 52, 0
3, 80640, Note_on_c, 5, 53, 80
3, 81119, Note_on_c, 5, 53, 0
3, 81120, Note_on_c, 5, 53, 80
3, 81599, Note_on_c, 5, 53, 0
3, 81600, Note_on_c, 5, 53, 80
3, 81959, Note_on_c, 5, 53, 0
3, 81960, Note_on_c, 5, 53, 80
3, 82199, Note_on_c, 5, 53, 0
3, 82320, Note_on_c, 5, 60, 80
3, 82559, Note_on_c, 5, 60, 0
3, 82800, Note_on_c, 5, 60, 80
3, 83159, Note_on_c, 5, 60, 0
3, 83160, Note_on_c, 5, 60, 80
3, 83519, Note_on_c, 5, 60, 0
3, 83520, Note_on_c, 5, 64, 80
3, 84479, Note_on_c, 5, 64, 0
3, 84480, Note_on_c, 5, 53, 80
3, 86039, Note_on_c, 5, 53, 0
3, 86160, Note_on_c, 5, 48, 80
3, 87839, Note_on_c, 5, 48, 0
3, 87840, Note_on_c, 5, 48, 80
3, 88319, Note_on_c, 5, 48, 0
3, 88320, Note_on_c, 5, 57, 80
3, 90239, Note_on_c, 5, 57, 0
3, 90240, Note_on_c, 5, 52, 80
3, 91799, Note_on_c, 5, 52, 0
3, 91920, Note_on_c, 5, 53, 80
3, 93359, Note_on_c, 5, 53, 0
3, 93480, Note_on_c, 5, 53, 80
3, 93839, Note_on_c, 5, 53, 0
3, 93840, Note_on_c, 5, 48, 80
3, 94079, Note_on_c, 5, 48, 0
3, 95040, Note_on_c, 5, 48, 80
3, 95759, Note_on_c, 5, 48, 0
3, 95760, Note_on_c, 5, 48, 80
3, 95999, Note_on_c, 5, 48, 0
3, 96000, Note_on_c, 5, 57, 80
3, 96959, Note_on_c, 5, 57, 0
3, 96960, Note_on_c, 5, 57, 80
3, 97679, Note_on_c, 5, 57, 0
3, 97680, Note_on_c, 5, 52, 80
3, 97919, Note_on_c, 5, 52, 0
3, 98160, Note_on_c, 5, 52, 80
3, 98399, Note_on_c, 5, 52, 0
3, 98520, Note_on_c, 5, 52, 80
3, 98879, Note_on_c, 5, 52, 0
3, 98880, Note_on_c, 5, 52, 80
3, 99359, Note_on_c, 5, 52, 0
3, 99360, Note_on_c, 5, 52, 80
3, 99839, Note_on_c, 5, 52, 0
3, 100080, Note_on_c, 5, 55, 80
3, 100319, Note_on_c, 5, 55, 0
3, 100440, Note_on_c, 5, 55, 80
3, 100799, Note_on_c, 5, 55, 0
3, 100800, Note_on_c, 5, 55, 80
3, 101759, Note_on_c, 5, 55, 0
3, 101760, Note_on_c, 5, 60, 80
3, 103319, Note_on_c, 5, 60, 0
3, 103440, Note_on_c, 5, 64, 80
3, 104879, Note_on_c, 5, 64, 0
3, 105000, Note_on_c, 5, 55, 80
3, 105359, Note_on_c, 5, 55, 0
3, 105360, Note_on_c, 5, 57, 80
3, 106559, Note_on_c, 5, 57, 0
3, 106560, Note_on_c, 5, 52, 80
3, 106919, Note_on_c, 5, 52, 0
3, 106920, Note_on_c, 5, 52, 80
3, 107279, Note_on_c, 5, 52, 0
3, 107280, Note_on_c, 5, 53, 80
3, 108479, Note_on_c, 5, 53, 0
3, 108480, Note_on_c, 5, 53, 80
3, 108839, Note_on_c, 5, 53, 0
3, 108840, Note_on_c, 5, 53, 80
3, 109199, Note_on_c, 5, 53, 0
3, 109200, Note_on_c, 5, 48, 80
3, 109439, Note_on_c, 5, 48, 0
3, 109440, End_track
0, 0, End_of_file
