0, 0, Header, 1, 5, 480
1, 0, Start_track
1, 0, Title_t, "Piano, Piano\000"
1, 0, Time_signature, 4, 2, 24, 8
1, 0, Key_signature, 0, "major"
1, 0, Tempo, 500000
1, 0, Control_c, 0, 121, 0
1, 0, Program_c, 0, 0
1, 0, Control_c, 0, 7, 100
1, 0, Control_c, 0, 10, 64
1, 0, Control_c, 0, 91, 0
1, 0, Control_c, 0, 93, 0
1, 0, MIDI_port, 0
1, 0, Note_on_c, 0, 72, 80
1, 455, Note_on_c, 0, 72, 0
1, 480, Note_on_c, 0, 71, 80
1, 935, Note_on_c, 0, 71, 0
1, 960, Note_on_c, 0, 69, 80
1, 1263, Note_on_c, 0, 69, 0
1, 1280, Note_on_c, 0, 67, 80
1, 1659, Note_on_c, 0, 67, 0
1, 1680, Note_on_c, 0, 65, 80
1, 2819, Note_on_c, 0, 65, 0
1, 2880, Note_on_c, 0, 72, 80
1, 3183, Note_on_c, 0, 72, 0
1, 3200, Note_on_c, 0, 72, 80
1, 3807, Note_on_c, 0, 72, 0
1, 3840, Note_on_c, 0, 71, 80
1, 4523, Note_on_c, 0, 71, 0
1, 4640, Note_on_c, 0, 67, 80
1, 4791, Note_on_c, 0, 67, 0
1, 4800, Note_on_c, 0, 71, 80
1, 5255, Note_on_c, 0, 71, 0
1, 5280, Note_on_c, 0, 62, 80
1, 5583, Note_on_c, 0, 62, 0
1, 5600, Note_on_c, 0, 64, 80
1, 5751, Note_on_c, 0, 64, 0
1, 7680, Note_on_c, 0, 69, 80
1, 8135, Note_on_c, 0, 69, 0
1, 8160, Note_on_c, 0, 67, 80
1, 8615, Note_on_c, 0, 67, 0
1, 8640, Note_on_c, 0, 65, 80
1, 9095, Note_on_c, 0, 65, 0
1, 9120, Note_on_c, 0, 64, 80
1, 9575, Note_on_c, 0, 64, 0
1, 9600, Note_on_c, 0, 62, 80
1, 10055, Note_on_c, 0, 62, 0
1, 10080, Note_on_c, 0, 62, 80
1, 10383, Note_on_c, 0, 62, 0
1, 10400, Note_on_c, 0, 64, 80
1, 10551, Note_on_c, 0, 64, 0
1, 10560, Note_on_c, 0, 65, 80
1, 11015, Note_on_c, 0, 65, 0
1, 11040, Note_on_c, 0, 69, 80
1, 11495, Note_on_c, 0, 69, 0
1, 11520, Note_on_c, 0, 65, 80
1, 12203, Note_on_c, 0, 65, 0
1, 12320, Note_on_c, 0, 65, 80
1, 12471, Note_on_c, 0, 65, 0
1, 12480, Note_on_c, 0, 64, 80
1, 12783, Note_on_c, 0, 64, 0
1, 12800, Note_on_c, 0, 62, 80
1, 12951, Note_on_c, 0, 62, 0
1, 13280, Note_on_c, 0, 60, 80
1, 13431, Note_on_c, 0, 60, 0
1, 15200, Note_on_c, 0, 62, 80
1, 15351, Note_on_c, 0, 62, 0
1, 15360, Note_on_c, 0, 62, 80
1, 15663, Note_on_c, 0, 62, 0
1, 15680, Note_on_c, 0, 69, 80
1, 15831, Note_on_c, 0, 69, 0
1, 16160, Note_on_c, 0, 69, 80
1, 16767, Note_on_c, 0, 69, 0
1, 18080, Note_on_c, 0, 72, 80
1, 18915, Note_on_c, 0, 72, 0
1, 18960, Note_on_c, 0, 71, 80
1, 19491, Note_on_c, 0, 71, 0
1, 19520, Note_on_c, 0, 67, 80
1, 20583, Note_on_c, 0, 67, 0
1, 22880, Note_on_c, 0, 60, 80
1, 23031, Note_on_c, 0, 60, 0
1, 23040, Note_on_c, 0, 60, 80
1, 23343, Note_on_c, 0, 60, 0
1, 23360, Note_on_c, 0, 65, 80
1, 23511, Note_on_c, 0, 65, 0
1, 23840, Note_on_c, 0, 65, 80
1, 24903, Note_on_c, 0, 65, 0
1, 25760, Note_on_c, 0, 60, 80
1, 25911, Note_on_c, 0, 60, 0
1, 25920, Note_on_c, 0, 69, 80
1, 25920, Note_on_c, 0, 65, 80
1, 26159, Note_on_c, 0, 69, 0
1, 26223, Note_on_c, 0, 65, 0
1, 26240, Note_on_c, 0, 59, 80
1, 26391, Note_on_c, 0, 59, 0
1, 26400, Note_on_c, 0, 67, 80
1, 26400, Note_on_c, 0, 64, 80
1, 26639, Note_on_c, 0, 67, 0
1, 26703, Note_on_c, 0, 64, 0
1, 26720, Note_on_c, 0, 57, 80
1, 26871, Note_on_c, 0, 57, 0
1, 26880, Note_on_c, 0, 62, 80
1, 26880, Note_on_c, 0, 65, 80
1, 27119, Note_on_c, 0, 62, 0
1, 27119, Note_on_c, 0, 65, 0
1, 27680, Note_on_c, 0, 55, 80
1, 27680, Note_on_c, 0, 59, 80
1, 27680, Note_on_c, 0, 64, 80
1, 28743, Note_on_c, 0, 55, 0
1, 28743, Note_on_c, 0, 59, 0
1, 28743, Note_on_c, 0, 64, 0
1, 28800, Note_on_c, 0, 62, 80
1, 29103, Note_on_c, 0, 62, 0
1, 29120, Note_on_c, 0, 65, 80
1, 29271, Note_on_c, 0, 65, 0
1, 29280, Note_on_c, 0, 69, 80
1, 29583, Note_on_c, 0, 69, 0
1, 29600, Note_on_c, 0, 69, 80
1, 29751, Note_on_c, 0, 69, 0
1, 30080, Note_on_c, 0, 65, 80
1, 30231, Note_on_c, 0, 65, 0
1, 30240, Note_on_c, 0, 64, 80
1, 30543, Note_on_c, 0, 64, 0
1, 30560, Note_on_c, 0, 62, 80
1, 30711, Note_on_c, 0, 62, 0
1, 30720, Note_on_c, 0, 72, 80
1, 30720, Note_on_c, 0, 64, 80
1, 30959, Note_on_c, 0, 72, 0
1, 31023, Note_on_c, 0, 64, 0
1, 31040, Note_on_c, 0, 64, 80
1, 31040, Note_on_c, 0, 72, 80
1, 31191, Note_on_c, 0, 64, 0
1, 31191, Note_on_c, 0, 72, 0
1, 31200, Note_on_c, 0, 62, 80
1, 31200, Note_on_c, 0, 71, 80
1, 31655, Note_on_c, 0, 62, 0
1, 31655, Note_on_c, 0, 71, 0
1, 31680, Note_on_c, 0, 60, 80
1, 31680, Note_on_c, 0, 69, 80
1, 32135, Note_on_c, 0, 60, 0
1, 32135, Note_on_c, 0, 69, 0
1, 32160, Note_on_c, 0, 67, 80
1, 32160, Note_on_c, 0, 59, 80
1, 32399, Note_on_c, 0, 67, 0
1, 32463, Note_on_c, 0, 59, 0
1, 32480, Note_on_c, 0, 57, 80
1, 32480, Note_on_c, 0, 65, 80
1, 33239, Note_on_c, 0, 57, 0
1, 33239, Note_on_c, 0, 65, 0
1, 33440, Note_on_c, 0, 67, 80
1, 33591, Note_on_c, 0, 67, 0
1, 33600, Note_on_c, 0, 69, 80
1, 33903, Note_on_c, 0, 69, 0
1, 33920, Note_on_c, 0, 67, 80
1, 34071, Note_on_c, 0, 67, 0
1, 34080, Note_on_c, 0, 72, 80
1, 34535, Note_on_c, 0, 72, 0
1, 34560, Note_on_c, 0, 71, 80
1, 34560, Note_on_c, 0, 62, 80
1, 34799, Note_on_c, 0, 71, 0
1, 34863, Note_on_c, 0, 62, 0
1, 34880, Note_on_c, 0, 62, 80
1, 34880, Note_on_c, 0, 71, 80
1, 35031, Note_on_c, 0, 62, 0
1, 35031, Note_on_c, 0, 71, 0
1, 35040, Note_on_c, 0, 60, 80
1, 35040, Note_on_c, 0, 69, 80
1, 35495, Note_on_c, 0, 60, 0
1, 35495, Note_on_c, 0, 69, 0
1, 35520, Note_on_c, 0, 59, 80
1, 35520, Note_on_c, 0, 67, 80
1, 35975, Note_on_c, 0, 59, 0
1, 35975, Note_on_c, 0, 67, 0
1, 36000, Note_on_c, 0, 65, 80
1, 36000, Note_on_c, 0, 57, 80
1, 36239, Note_on_c, 0, 65, 0
1, 36303, Note_on_c, 0, 57, 0
1, 36320, Note_on_c, 0, 55, 80
1, 36320, Note_on_c, 0, 64, 80
1, 38295, Note_on_c, 0, 55, 0
1, 38295, Note_on_c, 0, 64, 0
1, 38720, Note_on_c, 0, 69, 80
1, 38871, Note_on_c, 0, 69, 0
1, 38880, Note_on_c, 0, 67, 80
1, 39335, Note_on_c, 0, 67, 0
1, 39360, Note_on_c, 0, 65, 80
1, 39815, Note_on_c, 0, 65, 0
1, 39840, Note_on_c, 0, 64, 80
1, 40143, Note_on_c, 0, 64, 0
1, 40160, Note_on_c, 0, 62, 80
1, 40311, Note_on_c, 0, 62, 0
1, 41120, Note_on_c, 0, 64, 80
1, 41271, Note_on_c, 0, 64, 0
1, 41280, Note_on_c, 0, 65, 80
1, 41735, Note_on_c, 0, 65, 0
1, 41760, Note_on_c, 0, 69, 80
1, 42215, Note_on_c, 0, 69, 0
1, 42560, Note_on_c, 0, 65, 80
1, 42711, Note_on_c, 0, 65, 0
1, 43200, Note_on_c, 0, 64, 80
1, 43256, Note_on_c, 0, 64, 0
1, 43260, Note_on_c, 0, 65, 80
1, 43316, Note_on_c, 0, 65, 0
1, 43320, Note_on_c, 0, 64, 80
1, 43661, Note_on_c, 0, 64, 0
1, 43680, Note_on_c, 0, 62, 80
1, 43983, Note_on_c, 0, 62, 0
1, 44000, Note_on_c, 0, 60, 80
1, 45519, Note_on_c, 0, 60, 0
1, 46400, Note_on_c, 0, 62, 80
1, 46551, Note_on_c, 0, 62, 0
1, 46880, Note_on_c, 0, 69, 80
1, 47373, Note_on_c, 0, 69, 0
1, 47400, Note_on_c, 0, 69, 80
1, 47513, Note_on_c, 0, 69, 0
1, 48960, Note_on_c, 0, 72, 80
1, 49199, Note_on_c, 0, 72, 0
1, 49440, Note_on_c, 0, 71, 80
1, 49743, Note_on_c, 0, 71, 0
1, 49760, Note_on_c, 0, 76, 80
1, 51735, Note_on_c, 0, 76, 0
1, 53280, Note_on_c, 0, 76, 80
1, 53735, Note_on_c, 0, 76, 0
1, 53760, Note_on_c, 0, 76, 80
1, 54063, Note_on_c, 0, 76, 0
1, 54080, Note_on_c, 0, 72, 80
1, 54231, Note_on_c, 0, 72, 0
1, 54560, Note_on_c, 0, 72, 80
1, 55623, Note_on_c, 0, 72, 0
1, 55680, Note_on_c, 0, 69, 80
1, 56135, Note_on_c, 0, 69, 0
1, 56640, Note_on_c, 0, 71, 80
1, 56943, Note_on_c, 0, 71, 0
1, 56960, Note_on_c, 0, 74, 80
1, 57339, Note_on_c, 0, 74, 0
1, 57360, Note_on_c, 0, 72, 80
1, 57587, Note_on_c, 0, 72, 0
1, 57600, Note_on_c, 0, 60, 80
1, 58055, Note_on_c, 0, 60, 0
1, 58080, Note_on_c, 0, 62, 80
1, 58535, Note_on_c, 0, 62, 0
1, 58560, Note_on_c, 0, 64, 80
1, 59015, Note_on_c, 0, 64, 0
1, 59040, Note_on_c, 0, 67, 80
1, 59495, Note_on_c, 0, 67, 0
1, 59520, Note_on_c, 0, 64, 80
1, 59520, Note_on_c, 0, 71, 80
1, 59975, Note_on_c, 0, 64, 0
1, 59975, Note_on_c, 0, 71, 0
1, 60000, Note_on_c, 0, 64, 80
1, 60000, Note_on_c, 0, 71, 80
1, 60455, Note_on_c, 0, 64, 0
1, 60455, Note_on_c, 0, 71, 0
1, 60480, Note_on_c, 0, 64, 80
1, 60935, Note_on_c, 0, 64, 0
1, 60960, Note_on_c, 0, 64, 80
1, 61415, Note_on_c, 0, 64, 0
1, 61440, Note_on_c, 0, 84, 80
1, 61895, Note_on_c, 0, 84, 0
1, 61920, Note_on_c, 0, 83, 80
1, 62375, Note_on_c, 0, 83, 0
1, 62400, Note_on_c, 0, 81, 80
1, 62703, Note_on_c, 0, 81, 0
1, 62720, Note_on_c, 0, 79, 80
1, 62871, Note_on_c, 0, 79, 0
1, 63200, Note_on_c, 0, 77, 80
1, 63351, Note_on_c, 0, 77, 0
1, 64160, Note_on_c, 0, 79, 80
1, 64311, Note_on_c, 0, 79, 0
1, 64320, Note_on_c, 0, 81, 80
1, 64623, Note_on_c, 0, 81, 0
1, 64640, Note_on_c, 0, 84, 80
1, 64791, Note_on_c, 0, 84, 0
1, 65120, Note_on_c, 0, 83, 80
1, 65955, Note_on_c, 0, 83, 0
1, 66080, Note_on_c, 0, 81, 80
1, 66231, Note_on_c, 0, 81, 0
1, 66240, Note_on_c, 0, 79, 80
1, 66543, Note_on_c, 0, 79, 0
1, 66560, Note_on_c, 0, 77, 80
1, 66711, Note_on_c, 0, 77, 0
1, 67040, Note_on_c, 0, 76, 80
1, 68559, Note_on_c, 0, 76, 0
1, 69120, Note_on_c, 0, 81, 80
1, 69575, Note_on_c, 0, 81, 0
1, 69600, Note_on_c, 0, 79, 80
1, 70055, Note_on_c, 0, 79, 0
1, 70080, Note_on_c, 0, 77, 80
1, 70535, Note_on_c, 0, 77, 0
1, 70560, Note_on_c, 0, 76, 80
1, 71015, Note_on_c, 0, 76, 0
1, 71040, Note_on_c, 0, 74, 80
1, 71495, Note_on_c, 0, 74, 0
1, 71520, Note_on_c, 0, 74, 80
1, 71823, Note_on_c, 0, 74, 0
1, 71840, Note_on_c, 0, 76, 80
1, 71991, Note_on_c, 0, 76, 0
1, 72000, Note_on_c, 0, 77, 80
1, 72455, Note_on_c, 0, 77, 0
1, 72480, Note_on_c, 0, 81, 80
1, 72935, Note_on_c, 0, 81, 0
1, 72960, Note_on_c, 0, 77, 80
1, 73643, Note_on_c, 0, 77, 0
1, 73760, Note_on_c, 0, 77, 80
1, 73911, Note_on_c, 0, 77, 0
1, 73920, Note_on_c, 0, 76, 80
1, 74223, Note_on_c, 0, 76, 0
1, 74240, Note_on_c, 0, 74, 80
1, 74391, Note_on_c, 0, 74, 0
1, 74720, Note_on_c, 0, 72, 80
1, 74871, Note_on_c, 0, 72, 0
1, 76640, Note_on_c, 0, 74, 80
1, 76791, Note_on_c, 0, 74, 0
1, 76800, Note_on_c, 0, 74, 80
1, 77103, Note_on_c, 0, 74, 0
1, 77120, Note_on_c, 0, 81, 80
1, 77271, Note_on_c, 0, 81, 0
1, 77600, Note_on_c, 0, 81, 80
1, 78207, Note_on_c, 0, 81, 0
1, 79520, Note_on_c, 0, 84, 80
1, 80355, Note_on_c, 0, 84, 0
1, 80400, Note_on_c, 0, 83, 80
1, 80931, Note_on_c, 0, 83, 0
1, 80960, Note_on_c, 0, 79, 80
1, 82023, Note_on_c, 0, 79, 0
1, 84320, Note_on_c, 0, 72, 80
1, 84471, Note_on_c, 0, 72, 0
1, 84480, Note_on_c, 0, 72, 80
1, 84783, Note_on_c, 0, 72, 0
1, 84800, Note_on_c, 0, 77, 80
1, 84951, Note_on_c, 0, 77, 0
1, 85280, Note_on_c, 0, 77, 80
1, 86343, Note_on_c, 0, 77, 0
1, 87200, Note_on_c, 0, 72, 80
1, 87351, Note_on_c, 0, 72, 0
1, 87360, Note_on_c, 0, 81, 80
1, 87360, Note_on_c, 0, 77, 80
1, 87599, Note_on_c, 0, 81, 0
1, 87663, Note_on_c, 0, 77, 0
1, 87680, Note_on_c, 0, 71, 80
1, 87831, Note_on_c, 0, 71, 0
1, 87840, Note_on_c, 0, 79, 80
1, 87840, Note_on_c, 0, 76, 80
1, 88079, Note_on_c, 0, 79, 0
1, 88143, Note_on_c, 0, 76, 0
1, 88160, Note_on_c, 0, 69, 80
1, 88311, Note_on_c, 0, 69, 0
1, 88320, Note_on_c, 0, 74, 80
1, 88320, Note_on_c, 0, 77, 80
1, 88559, Note_on_c, 0, 74, 0
1, 88559, Note_on_c, 0, 77, 0
1, 89120, Note_on_c, 0, 67, 80
1, 89120, Note_on_c, 0, 71, 80
1, 89120, Note_on_c, 0, 76, 80
1, 90183, Note_on_c, 0, 67, 0
1, 90183, Note_on_c, 0, 71, 0
1, 90183, Note_on_c, 0, 76, 0
1, 90240, Note_on_c, 0, 74, 80
1, 90543, Note_on_c, 0, 74, 0
1, 90560, Note_on_c, 0, 77, 80
1, 90711, Note_on_c, 0, 77, 0
1, 90720, Note_on_c, 0, 81, 80
1, 91023, Note_on_c, 0, 81, 0
1, 91040, Note_on_c, 0, 84, 80
1, 91191, Note_on_c, 0, 84, 0
1, 91520, Note_on_c, 0, 77, 80
1, 91671, Note_on_c, 0, 77, 0
1, 91680, Note_on_c, 0, 76, 80
1, 91983, Note_on_c, 0, 76, 0
1, 92000, Note_on_c, 0, 74, 80
1, 92151, Note_on_c, 0, 74, 0
1, 92160, Note_on_c, 0, 84, 80
1, 92160, Note_on_c, 0, 76, 80
1, 92399, Note_on_c, 0, 84, 0
1, 92463, Note_on_c, 0, 76, 0
1, 92480, Note_on_c, 0, 76, 80
1, 92480, Note_on_c, 0, 84, 80
1, 92631, Note_on_c, 0, 76, 0
1, 92631, Note_on_c, 0, 84, 0
1, 92640, Note_on_c, 0, 74, 80
1, 92640, Note_on_c, 0, 83, 80
1, 93095, Note_on_c, 0, 74, 0
1, 93095, Note_on_c, 0, 83, 0
1, 93120, Note_on_c, 0, 72, 80
1, 93120, Note_on_c, 0, 81, 80
1, 93575, Note_on_c, 0, 72, 0
1, 93575, Note_on_c, 0, 81, 0
1, 93600, Note_on_c, 0, 79, 80
1, 93600, Note_on_c, 0, 71, 80
1, 93839, Note_on_c, 0, 79, 0
1, 93903, Note_on_c, 0, 71, 0
1, 93920, Note_on_c, 0, 69, 80
1, 93920, Note_on_c, 0, 77, 80
1, 94679, Note_on_c, 0, 69, 0
1, 94679, Note_on_c, 0, 77, 0
1, 94880, Note_on_c, 0, 79, 80
1, 95031, Note_on_c, 0, 79, 0
1, 95040, Note_on_c, 0, 81, 80
1, 95343, Note_on_c, 0, 81, 0
1, 95360, Note_on_c, 0, 79, 80
1, 95511, Note_on_c, 0, 79, 0
1, 95520, Note_on_c, 0, 84, 80
1, 95975, Note_on_c, 0, 84, 0
1, 96000, Note_on_c, 0, 83, 80
1, 96000, Note_on_c, 0, 74, 80
1, 96239, Note_on_c, 0, 83, 0
1, 96303, Note_on_c, 0, 74, 0
1, 96320, Note_on_c, 0, 74, 80
1, 96320, Note_on_c, 0, 83, 80
1, 96471, Note_on_c, 0, 74, 0
1, 96471, Note_on_c, 0, 83, 0
1, 96480, Note_on_c, 0, 72, 80
1, 96480, Note_on_c, 0, 81, 80
1, 96935, Note_on_c, 0, 72, 0
1, 96935, Note_on_c, 0, 81, 0
1, 96960, Note_on_c, 0, 71, 80
1, 96960, Note_on_c, 0, 79, 80
1, 97415, Note_on_c, 0, 71, 0
1, 97415, Note_on_c, 0, 79, 0
1, 97440, Note_on_c, 0, 77, 80
1, 97440, Note_on_c, 0, 69, 80
1, 97679, Note_on_c, 0, 77, 0
1, 97743, Note_on_c, 0, 69, 0
1, 97760, Note_on_c, 0, 67, 80
1, 97760, Note_on_c, 0, 76, 80
1, 99735, Note_on_c, 0, 67, 0
1, 99735, Note_on_c, 0, 76, 0
1, 100160, Note_on_c, 0, 81, 80
1, 100311, Note_on_c, 0, 81, 0
1, 100320, Note_on_c, 0, 79, 80
1, 100775, Note_on_c, 0, 79, 0
1, 100800, Note_on_c, 0, 77, 80
1, 101255, Note_on_c, 0, 77, 0
1, 101280, Note_on_c, 0, 76, 80
1, 101583, Note_on_c, 0, 76, 0
1, 101600, Note_on_c, 0, 74, 80
1, 101751, Note_on_c, 0, 74, 0
1, 102560, Note_on_c, 0, 76, 80
1, 102711, Note_on_c, 0, 76, 0
1, 102720, Note_on_c, 0, 77, 80
1, 103175, Note_on_c, 0, 77, 0
1, 103200, Note_on_c, 0, 81, 80
1, 103503, Note_on_c, 0, 81, 0
1, 103520, Note_on_c, 0, 81, 80
1, 103975, Note_on_c, 0, 81, 0
1, 104000, Note_on_c, 0, 77, 80
1, 104151, Note_on_c, 0, 77, 0
1, 104640, Note_on_c, 0, 76, 80
1, 104696, Note_on_c, 0, 76, 0
1, 104700, Note_on_c, 0, 77, 80
1, 104756, Note_on_c, 0, 77, 0
1, 104760, Note_on_c, 0, 76, 80
1, 105101, Note_on_c, 0, 76, 0
1, 105120, Note_on_c, 0, 74, 80
1, 105423, Note_on_c, 0, 74, 0
1, 105440, Note_on_c, 0, 72, 80
1, 106959, Note_on_c, 0, 72, 0
1, 107840, Note_on_c, 0, 62, 80
1, 107991, Note_on_c, 0, 62, 0
1, 108320, Note_on_c, 0, 69, 80
1, 108813, Note_on_c, 0, 69, 0
1, 108840, Note_on_c, 0, 69, 80
1, 108953, Note_on_c, 0, 69, 0
1, 110400, Note_on_c, 0, 72, 80
1, 110639, Note_on_c, 0, 72, 0
1, 110880, Note_on_c, 0, 71, 80
1, 111183, Note_on_c, 0, 71, 0
1, 111200, Note_on_c, 0, 76, 80
1, 113175, Note_on_c, 0, 76, 0
1, 114720, Note_on_c, 0, 76, 80
1, 115175, Note_on_c, 0, 76, 0
1, 115200, Note_on_c, 0, 76, 80
1, 115503, Note_on_c, 0, 76, 0
1, 115520, Note_on_c, 0, 72, 80
1, 115671, Note_on_c, 0, 72, 0
1, 116000, Note_on_c, 0, 72, 80
1, 117063, Note_on_c, 0, 72, 0
1, 117120, Note_on_c, 0, 69, 80
1, 117575, Note_on_c, 0, 69, 0
1, 118080, Note_on_c, 0, 71, 80
1, 118383, Note_on_c, 0, 71, 0
1, 118400, Note_on_c, 0, 74, 80
1, 118779, Note_on_c, 0, 74, 0
1, 119040, Note_on_c, 0, 60, 80
1, 119040, Note_on_c, 0, 67, 80
1, 119040, Note_on_c, 0, 72, 80
1, 119951, Note_on_c, 0, 60, 0
1, 119951, Note_on_c, 0, 67, 0
1, 119951, Note_on_c, 0, 72, 0
1, 120000, Note_on_c, 0, 60, 80
1, 120000, Note_on_c, 0, 67, 80
1, 120000, Note_on_c, 0, 72, 80
1, 120911, Note_on_c, 0, 60, 0
1, 120911, Note_on_c, 0, 67, 0
1, 120911, Note_on_c, 0, 72, 0
1, 120960, Note_on_c, 0, 60, 80
1, 120960, Note_on_c, 0, 67, 80
1, 120960, Note_on_c, 0, 72, 80
1, 121643, Note_on_c, 0, 60, 0
1, 121643, Note_on_c, 0, 67, 0
1, 121643, Note_on_c, 0, 72, 0
1, 121680, Note_on_c, 0, 60, 80
1, 121680, Note_on_c, 0, 67, 80
1, 121680, Note_on_c, 0, 72, 80
1, 122363, Note_on_c, 0, 60, 0
1, 122363, Note_on_c, 0, 67, 0
1, 122363, Note_on_c, 0, 72, 0
1, 122400, Note_on_c, 0, 48, 80
1, 122400, Note_on_c, 0, 60, 80
1, 122639, Note_on_c, 0, 48, 0
1, 122639, Note_on_c, 0, 60, 0
1, 122640, End_track
2, 0, Start_track
2, 0, Title_t, "Piano, Minstrel\000"
2, 0, Key_signature, 0, "major"
2, 0, Control_c, 1, 121, 0
2, 0, Program_c, 1, 0
2, 0, Control_c, 1, 7, 100
2, 0, Control_c, 1, 10, 64
2, 0, Control_c, 1, 91, 0
2, 0, Control_c, 1, 93, 0
2, 0, MIDI_port, 0
2, 0, Note_on_c, 1, 57, 80
2, 455, Note_on_c, 1, 57, 0
2, 480, Note_on_c, 1, 57, 80
2, 935, Note_on_c, 1, 57, 0
2, 960, Note_on_c, 1, 57, 80
2, 1415, Note_on_c, 1, 57, 0
2, 1440, Note_on_c, 1, 57, 80
2, 1895, Note_on_c, 1, 57, 0
2, 1920, Note_on_c, 1, 60, 80
2, 2159, Note_on_c, 1, 60, 0
2, 2400, Note_on_c, 1, 60, 80
2, 2639, Note_on_c, 1, 60, 0
2, 2880, Note_on_c, 1, 60, 80
2, 3119, Note_on_c, 1, 60, 0
2, 3360, Note_on_c, 1, 60, 80
2, 3599, Note_on_c, 1, 60, 0
2, 3840, Note_on_c, 1, 53, 80
2, 4079, Note_on_c, 1, 53, 0
2, 4320, Note_on_c, 1, 53, 80
2, 4559, Note_on_c, 1, 53, 0
2, 4800, Note_on_c, 1, 53, 80
2, 5039, Note_on_c, 1, 53, 0
2, 5280, Note_on_c, 1, 53, 80
2, 5519, Note_on_c, 1, 53, 0
2, 5760, Note_on_c, 1, 59, 80
2, 5999, Note_on_c, 1, 59, 0
2, 6240, Note_on_c, 1, 59, 80
2, 6479, Note_on_c, 1, 59, 0
2, 6720, Note_on_c, 1, 59, 80
2, 6959, Note_on_c, 1, 59, 0
2, 7200, Note_on_c, 1, 59, 80
2, 7439, Note_on_c, 1, 59, 0
2, 7680, Note_on_c, 1, 53, 80
2, 7680, Note_on_c, 1, 57, 80
2, 8135, Note_on_c, 1, 53, 0
2, 8135, Note_on_c, 1, 57, 0
2, 8160, Note_on_c, 1, 53, 80
2, 8160, Note_on_c, 1, 57, 80
2, 8615, Note_on_c, 1, 53, 0
2, 8615, Note_on_c, 1, 57, 0
2, 8640, Note_on_c, 1, 53, 80
2, 8640, Note_on_c, 1, 57, 80
2, 9095, Note_on_c, 1, 53, 0
2, 9095, Note_on_c, 1, 57, 0
2, 9120, Note_on_c, 1, 53, 80
2, 9120, Note_on_c, 1, 57, 80
2, 9575, Note_on_c, 1, 53, 0
2, 9575, Note_on_c, 1, 57, 0
2, 9600, Note_on_c, 1, 53, 80
2, 9600, Note_on_c, 1, 57, 80
2, 10055, Note_on_c, 1, 53, 0
2, 10055, Note_on_c, 1, 57, 0
2, 10080, Note_on_c, 1, 53, 80
2, 10080, Note_on_c, 1, 57, 80
2, 10535, Note_on_c, 1, 53, 0
2, 10535, Note_on_c, 1, 57, 0
2, 10560, Note_on_c, 1, 57, 80
2, 10560, Note_on_c, 1, 60, 80
2, 11015, Note_on_c, 1, 57, 0
2, 11015, Note_on_c, 1, 60, 0
2, 11040, Note_on_c, 1, 57, 80
2, 11040, Note_on_c, 1, 60, 80
2, 11495, Note_on_c, 1, 57, 0
2, 11495, Note_on_c, 1, 60, 0
2, 11520, Note_on_c, 1, 52, 80
2, 11520, Note_on_c, 1, 59, 80
2, 11975, Note_on_c, 1, 52, 0
2, 11975, Note_on_c, 1, 59, 0
2, 12000, Note_on_c, 1, 52, 80
2, 12000, Note_on_c, 1, 59, 80
2, 12455, Note_on_c, 1, 52, 0
2, 12455, Note_on_c, 1, 59, 0
2, 12480, Note_on_c, 1, 52, 80
2, 12480, Note_on_c, 1, 59, 80
2, 12935, Note_on_c, 1, 52, 0
2, 12935, Note_on_c, 1, 59, 0
2, 12960, Note_on_c, 1, 52, 80
2, 12960, Note_on_c, 1, 59, 80
2, 13415, Note_on_c, 1, 52, 0
2, 13415, Note_on_c, 1, 59, 0
2, 13440, Note_on_c, 1, 55, 80
2, 13895, Note_on_c, 1, 55, 0
2, 13920, Note_on_c, 1, 55, 80
2, 14375, Note_on_c, 1, 55, 0
2, 14400, Note_on_c, 1, 50, 80
2, 14855, Note_on_c, 1, 50, 0
2, 14880, Note_on_c, 1, 50, 80
2, 15335, Note_on_c, 1, 50, 0
2, 15360, Note_on_c, 1, 60, 80
2, 15815, Note_on_c, 1, 60, 0
2, 15840, Note_on_c, 1, 60, 80
2, 16295, Note_on_c, 1, 60, 0
2, 16320, Note_on_c, 1, 60, 80
2, 16775, Note_on_c, 1, 60, 0
2, 16800, Note_on_c, 1, 60, 80
2, 17255, Note_on_c, 1, 60, 0
2, 17280, Note_on_c, 1, 60, 80
2, 17735, Note_on_c, 1, 60, 0
2, 17760, Note_on_c, 1, 60, 80
2, 18215, Note_on_c, 1, 60, 0
2, 18240, Note_on_c, 1, 60, 80
2, 18695, Note_on_c, 1, 60, 0
2, 18720, Note_on_c, 1, 60, 80
2, 19175, Note_on_c, 1, 60, 0
2, 19200, Note_on_c, 1, 62, 80
2, 19655, Note_on_c, 1, 62, 0
2, 19680, Note_on_c, 1, 62, 80
2, 20135, Note_on_c, 1, 62, 0
2, 20160, Note_on_c, 1, 62, 80
2, 20615, Note_on_c, 1, 62, 0
2, 20640, Note_on_c, 1, 62, 80
2, 21095, Note_on_c, 1, 62, 0
2, 21120, Note_on_c, 1, 57, 80
2, 21575, Note_on_c, 1, 57, 0
2, 21600, Note_on_c, 1, 57, 80
2, 22055, Note_on_c, 1, 57, 0
2, 22080, Note_on_c, 1, 57, 80
2, 22535, Note_on_c, 1, 57, 0
2, 22560, Note_on_c, 1, 57, 80
2, 23015, Note_on_c, 1, 57, 0
2, 23040, Note_on_c, 1, 57, 80
2, 23495, Note_on_c, 1, 57, 0
2, 23520, Note_on_c, 1, 60, 80
2, 23975, Note_on_c, 1, 60, 0
2, 24000, Note_on_c, 1, 60, 80
2, 24455, Note_on_c, 1, 60, 0
2, 24480, Note_on_c, 1, 60, 80
2, 24935, Note_on_c, 1, 60, 0
2, 24960, Note_on_c, 1, 53, 80
2, 25199, Note_on_c, 1, 53, 0
2, 25440, Note_on_c, 1, 53, 80
2, 25679, Note_on_c, 1, 53, 0
2, 28800, Note_on_c, 1, 57, 80
2, 29255, Note_on_c, 1, 57, 0
2, 29280, Note_on_c, 1, 57, 80
2, 29735, Note_on_c, 1, 57, 0
2, 29760, Note_on_c, 1, 59, 80
2, 30215, Note_on_c, 1, 59, 0
2, 30240, Note_on_c, 1, 59, 80
2, 30695, Note_on_c, 1, 59, 0
2, 30720, Note_on_c, 1, 48, 80
2, 30959, Note_on_c, 1, 48, 0
2, 31200, Note_on_c, 1, 48, 80
2, 31439, Note_on_c, 1, 48, 0
2, 31680, Note_on_c, 1, 48, 80
2, 31919, Note_on_c, 1, 48, 0
2, 32160, Note_on_c, 1, 48, 80
2, 32399, Note_on_c, 1, 48, 0
2, 32640, Note_on_c, 1, 53, 80
2, 32879, Note_on_c, 1, 53, 0
2, 33120, Note_on_c, 1, 53, 80
2, 33359, Note_on_c, 1, 53, 0
2, 33600, Note_on_c, 1, 53, 80
2, 33839, Note_on_c, 1, 53, 0
2, 34080, Note_on_c, 1, 53, 80
2, 34319, Note_on_c, 1, 53, 0
2, 34560, Note_on_c, 1, 59, 80
2, 34799, Note_on_c, 1, 59, 0
2, 35040, Note_on_c, 1, 59, 80
2, 35279, Note_on_c, 1, 59, 0
2, 35520, Note_on_c, 1, 59, 80
2, 35759, Note_on_c, 1, 59, 0
2, 36000, Note_on_c, 1, 59, 80
2, 36239, Note_on_c, 1, 59, 0
2, 36480, Note_on_c, 1, 52, 80
2, 36719, Note_on_c, 1, 52, 0
2, 36960, Note_on_c, 1, 52, 80
2, 37199, Note_on_c, 1, 52, 0
2, 37440, Note_on_c, 1, 52, 80
2, 37679, Note_on_c, 1, 52, 0
2, 37920, Note_on_c, 1, 52, 80
2, 38159, Note_on_c, 1, 52, 0
2, 38400, Note_on_c, 1, 57, 80
2, 38639, Note_on_c, 1, 57, 0
2, 38880, Note_on_c, 1, 57, 80
2, 39119, Note_on_c, 1, 57, 0
2, 39360, Note_on_c, 1, 57, 80
2, 39599, Note_on_c, 1, 57, 0
2, 39840, Note_on_c, 1, 57, 80
2, 40079, Note_on_c, 1, 57, 0
2, 40320, Note_on_c, 1, 62, 80
2, 40559, Note_on_c, 1, 62, 0
2, 40800, Note_on_c, 1, 62, 80
2, 41039, Note_on_c, 1, 62, 0
2, 41280, Note_on_c, 1, 62, 80
2, 41519, Note_on_c, 1, 62, 0
2, 41760, Note_on_c, 1, 62, 80
2, 41999, Note_on_c, 1, 62, 0
2, 42240, Note_on_c, 1, 59, 80
2, 42479, Note_on_c, 1, 59, 0
2, 42720, Note_on_c, 1, 59, 80
2, 42959, Note_on_c, 1, 59, 0
2, 43200, Note_on_c, 1, 59, 80
2, 43439, Note_on_c, 1, 59, 0
2, 43680, Note_on_c, 1, 59, 80
2, 43919, Note_on_c, 1, 59, 0
2, 44160, Note_on_c, 1, 60, 80
2, 44399, Note_on_c, 1, 60, 0
2, 44640, Note_on_c, 1, 60, 80
2, 44879, Note_on_c, 1, 60, 0
2, 45120, Note_on_c, 1, 60, 80
2, 45359, Note_on_c, 1, 60, 0
2, 45600, Note_on_c, 1, 60, 80
2, 46055, Note_on_c, 1, 60, 0
2, 46080, Note_on_c, 1, 62, 80
2, 46319, Note_on_c, 1, 62, 0
2, 46560, Note_on_c, 1, 62, 80
2, 46799, Note_on_c, 1, 62, 0
2, 47040, Note_on_c, 1, 62, 80
2, 47279, Note_on_c, 1, 62, 0
2, 47520, Note_on_c, 1, 62, 80
2, 47759, Note_on_c, 1, 62, 0
2, 48000, Note_on_c, 1, 59, 80
2, 48239, Note_on_c, 1, 59, 0
2, 48480, Note_on_c, 1, 59, 80
2, 48719, Note_on_c, 1, 59, 0
2, 48960, Note_on_c, 1, 59, 80
2, 49415, Note_on_c, 1, 59, 0
2, 49440, Note_on_c, 1, 55, 80
2, 49895, Note_on_c, 1, 55, 0
2, 49920, Note_on_c, 1, 60, 80
2, 50159, Note_on_c, 1, 60, 0
2, 50400, Note_on_c, 1, 60, 80
2, 50639, Note_on_c, 1, 60, 0
2, 50880, Note_on_c, 1, 64, 80
2, 51119, Note_on_c, 1, 64, 0
2, 51360, Note_on_c, 1, 64, 80
2, 51599, Note_on_c, 1, 64, 0
2, 51840, Note_on_c, 1, 64, 80
2, 52079, Note_on_c, 1, 64, 0
2, 52320, Note_on_c, 1, 64, 80
2, 52559, Note_on_c, 1, 64, 0
2, 52800, Note_on_c, 1, 57, 80
2, 53039, Note_on_c, 1, 57, 0
2, 53280, Note_on_c, 1, 60, 80
2, 53519, Note_on_c, 1, 60, 0
2, 53760, Note_on_c, 1, 62, 80
2, 53999, Note_on_c, 1, 62, 0
2, 54240, Note_on_c, 1, 62, 80
2, 54479, Note_on_c, 1, 62, 0
2, 54720, Note_on_c, 1, 60, 80
2, 54959, Note_on_c, 1, 60, 0
2, 55200, Note_on_c, 1, 60, 80
2, 55439, Note_on_c, 1, 60, 0
2, 55680, Note_on_c, 1, 59, 80
2, 55919, Note_on_c, 1, 59, 0
2, 56160, Note_on_c, 1, 59, 80
2, 56399, Note_on_c, 1, 59, 0
2, 56640, Note_on_c, 1, 57, 80
2, 56879, Note_on_c, 1, 57, 0
2, 57120, Note_on_c, 1, 55, 80
2, 57359, Note_on_c, 1, 55, 0
2, 61440, Note_on_c, 1, 60, 80
2, 61440, Note_on_c, 1, 64, 80
2, 61440, Note_on_c, 1, 69, 80
2, 61440, Note_on_c, 1, 72, 80
2, 62807, Note_on_c, 1, 60, 0
2, 62807, Note_on_c, 1, 64, 0
2, 62807, Note_on_c, 1, 69, 0
2, 62807, Note_on_c, 1, 72, 0
2, 62880, Note_on_c, 1, 60, 80
2, 62880, Note_on_c, 1, 64, 80
2, 62880, Note_on_c, 1, 69, 80
2, 62880, Note_on_c, 1, 72, 80
2, 63119, Note_on_c, 1, 60, 0
2, 63119, Note_on_c, 1, 64, 0
2, 63119, Note_on_c, 1, 69, 0
2, 63119, Note_on_c, 1, 72, 0
2, 63360, Note_on_c, 1, 60, 80
2, 63599, Note_on_c, 1, 60, 0
2, 63840, Note_on_c, 1, 60, 80
2, 64079, Note_on_c, 1, 60, 0
2, 64320, Note_on_c, 1, 60, 80
2, 64559, Note_on_c, 1, 60, 0
2, 64800, Note_on_c, 1, 60, 80
2, 65039, Note_on_c, 1, 60, 0
2, 65280, Note_on_c, 1, 53, 80
2, 65519, Note_on_c, 1, 53, 0
2, 65760, Note_on_c, 1, 53, 80
2, 65999, Note_on_c, 1, 53, 0
2, 66240, Note_on_c, 1, 53, 80
2, 66479, Note_on_c, 1, 53, 0
2, 66720, Note_on_c, 1, 53, 80
2, 66959, Note_on_c, 1, 53, 0
2, 67200, Note_on_c, 1, 59, 80
2, 67439, Note_on_c, 1, 59, 0
2, 67680, Note_on_c, 1, 59, 80
2, 67919, Note_on_c, 1, 59, 0
2, 68160, Note_on_c, 1, 59, 80
2, 68399, Note_on_c, 1, 59, 0
2, 68640, Note_on_c, 1, 59, 80
2, 68879, Note_on_c, 1, 59, 0
2, 69120, Note_on_c, 1, 53, 80
2, 69120, Note_on_c, 1, 57, 80
2, 69575, Note_on_c, 1, 53, 0
2, 69575, Note_on_c, 1, 57, 0
2, 69600, Note_on_c, 1, 53, 80
2, 69600, Note_on_c, 1, 57, 80
2, 70055, Note_on_c, 1, 53, 0
2, 70055, Note_on_c, 1, 57, 0
2, 70080, Note_on_c, 1, 53, 80
2, 70080, Note_on_c, 1, 57, 80
2, 70535, Note_on_c, 1, 53, 0
2, 70535, Note_on_c, 1, 57, 0
2, 70560, Note_on_c, 1, 53, 80
2, 70560, Note_on_c, 1, 57, 80
2, 71015, Note_on_c, 1, 53, 0
2, 71015, Note_on_c, 1, 57, 0
2, 71040, Note_on_c, 1, 53, 80
2, 71040, Note_on_c, 1, 57, 80
2, 71495, Note_on_c, 1, 53, 0
2, 71495, Note_on_c, 1, 57, 0
2, 71520, Note_on_c, 1, 53, 80
2, 71520, Note_on_c, 1, 57, 80
2, 71975, Note_on_c, 1, 53, 0
2, 71975, Note_on_c, 1, 57, 0
2, 72000, Note_on_c, 1, 57, 80
2, 72000, Note_on_c, 1, 60, 80
2, 72455, Note_on_c, 1, 57, 0
2, 72455, Note_on_c, 1, 60, 0
2, 72480, Note_on_c, 1, 57, 80
2, 72480, Note_on_c, 1, 60, 80
2, 72935, Note_on_c, 1, 57, 0
2, 72935, Note_on_c, 1, 60, 0
2, 72960, Note_on_c, 1, 52, 80
2, 72960, Note_on_c, 1, 59, 80
2, 73415, Note_on_c, 1, 52, 0
2, 73415, Note_on_c, 1, 59, 0
2, 73440, Note_on_c, 1, 52, 80
2, 73440, Note_on_c, 1, 59, 80
2, 73895, Note_on_c, 1, 52, 0
2, 73895, Note_on_c, 1, 59, 0
2, 73920, Note_on_c, 1, 52, 80
2, 73920, Note_on_c, 1, 59, 80
2, 74375, Note_on_c, 1, 52, 0
2, 74375, Note_on_c, 1, 59, 0
2, 74400, Note_on_c, 1, 52, 80
2, 74400, Note_on_c, 1, 59, 80
2, 74855, Note_on_c, 1, 52, 0
2, 74855, Note_on_c, 1, 59, 0
2, 74880, Note_on_c, 1, 55, 80
2, 75335, Note_on_c, 1, 55, 0
2, 75360, Note_on_c, 1, 55, 80
2, 75815, Note_on_c, 1, 55, 0
2, 75840, Note_on_c, 1, 50, 80
2, 76295, Note_on_c, 1, 50, 0
2, 76320, Note_on_c, 1, 50, 80
2, 76775, Note_on_c, 1, 50, 0
2, 76800, Note_on_c, 1, 60, 80
2, 77255, Note_on_c, 1, 60, 0
2, 77280, Note_on_c, 1, 60, 80
2, 77735, Note_on_c, 1, 60, 0
2, 77760, Note_on_c, 1, 60, 80
2, 78215, Note_on_c, 1, 60, 0
2, 78240, Note_on_c, 1, 60, 80
2, 78695, Note_on_c, 1, 60, 0
2, 78720, Note_on_c, 1, 60, 80
2, 79175, Note_on_c, 1, 60, 0
2, 79200, Note_on_c, 1, 60, 80
2, 79655, Note_on_c, 1, 60, 0
2, 79680, Note_on_c, 1, 60, 80
2, 80135, Note_on_c, 1, 60, 0
2, 80160, Note_on_c, 1, 60, 80
2, 80615, Note_on_c, 1, 60, 0
2, 80640, Note_on_c, 1, 62, 80
2, 81095, Note_on_c, 1, 62, 0
2, 81120, Note_on_c, 1, 62, 80
2, 81575, Note_on_c, 1, 62, 0
2, 81600, Note_on_c, 1, 62, 80
2, 82055, Note_on_c, 1, 62, 0
2, 82080, Note_on_c, 1, 62, 80
2, 82535, Note_on_c, 1, 62, 0
2, 82560, Note_on_c, 1, 57, 80
2, 83015, Note_on_c, 1, 57, 0
2, 83040, Note_on_c, 1, 57, 80
2, 83495, Note_on_c, 1, 57, 0
2, 83520, Note_on_c, 1, 57, 80
2, 83975, Note_on_c, 1, 57, 0
2, 84000, Note_on_c, 1, 57, 80
2, 84455, Note_on_c, 1, 57, 0
2, 84480, Note_on_c, 1, 57, 80
2, 84935, Note_on_c, 1, 57, 0
2, 84960, Note_on_c, 1, 60, 80
2, 85415, Note_on_c, 1, 60, 0
2, 85440, Note_on_c, 1, 60, 80
2, 85895, Note_on_c, 1, 60, 0
2, 85920, Note_on_c, 1, 60, 80
2, 86375, Note_on_c, 1, 60, 0
2, 86400, Note_on_c, 1, 53, 80
2, 86639, Note_on_c, 1, 53, 0
2, 86880, Note_on_c, 1, 53, 80
2, 87119, Note_on_c, 1, 53, 0
2, 90240, Note_on_c, 1, 57, 80
2, 90695, Note_on_c, 1, 57, 0
2, 90720, Note_on_c, 1, 57, 80
2, 91175, Note_on_c, 1, 57, 0
2, 91200, Note_on_c, 1, 59, 80
2, 91655, Note_on_c, 1, 59, 0
2, 91680, Note_on_c, 1, 59, 80
2, 92135, Note_on_c, 1, 59, 0
2, 92160, Note_on_c, 1, 48, 80
2, 92399, Note_on_c, 1, 48, 0
2, 92640, Note_on_c, 1, 48, 80
2, 92879, Note_on_c, 1, 48, 0
2, 93120, Note_on_c, 1, 48, 80
2, 93359, Note_on_c, 1, 48, 0
2, 93600, Note_on_c, 1, 48, 80
2, 93839, Note_on_c, 1, 48, 0
2, 94080, Note_on_c, 1, 53, 80
2, 94319, Note_on_c, 1, 53, 0
2, 94560, Note_on_c, 1, 53, 80
2, 94799, Note_on_c, 1, 53, 0
2, 95040, Note_on_c, 1, 53, 80
2, 95279, Note_on_c, 1, 53, 0
2, 95520, Note_on_c, 1, 53, 80
2, 95759, Note_on_c, 1, 53, 0
2, 96000, Note_on_c, 1, 59, 80
2, 96239, Note_on_c, 1, 59, 0
2, 96480, Note_on_c, 1, 59, 80
2, 96719, Note_on_c, 1, 59, 0
2, 96960, Note_on_c, 1, 59, 80
2, 97199, Note_on_c, 1, 59, 0
2, 97440, Note_on_c, 1, 59, 80
2, 97679, Note_on_c, 1, 59, 0
2, 97920, Note_on_c, 1, 52, 80
2, 98159, Note_on_c, 1, 52, 0
2, 98400, Note_on_c, 1, 52, 80
2, 98639, Note_on_c, 1, 52, 0
2, 98880, Note_on_c, 1, 52, 80
2, 99119, Note_on_c, 1, 52, 0
2, 99360, Note_on_c, 1, 52, 80
2, 99599, Note_on_c, 1, 52, 0
2, 99840, Note_on_c, 1, 57, 80
2, 100079, Note_on_c, 1, 57, 0
2, 100320, Note_on_c, 1, 57, 80
2, 100559, Note_on_c, 1, 57, 0
2, 100800, Note_on_c, 1, 57, 80
2, 101039, Note_on_c, 1, 57, 0
2, 101280, Note_on_c, 1, 57, 80
2, 101519, Note_on_c, 1, 57, 0
2, 101760, Note_on_c, 1, 62, 80
2, 101999, Note_on_c, 1, 62, 0
2, 102240, Note_on_c, 1, 62, 80
2, 102479, Note_on_c, 1, 62, 0
2, 102720, Note_on_c, 1, 62, 80
2, 102959, Note_on_c, 1, 62, 0
2, 103200, Note_on_c, 1, 62, 80
2, 103439, Note_on_c, 1, 62, 0
2, 103680, Note_on_c, 1, 59, 80
2, 103919, Note_on_c, 1, 59, 0
2, 104160, Note_on_c, 1, 59, 80
2, 104399, Note_on_c, 1, 59, 0
2, 104640, Note_on_c, 1, 59, 80
2, 104879, Note_on_c, 1, 59, 0
2, 105120, Note_on_c, 1, 59, 80
2, 105359, Note_on_c, 1, 59, 0
2, 105600, Note_on_c, 1, 60, 80
2, 105839, Note_on_c, 1, 60, 0
2, 106080, Note_on_c, 1, 60, 80
2, 106319, Note_on_c, 1, 60, 0
2, 106560, Note_on_c, 1, 60, 80
2, 106799, Note_on_c, 1, 60, 0
2, 107040, Note_on_c, 1, 60, 80
2, 107495, Note_on_c, 1, 60, 0
2, 107520, Note_on_c, 1, 62, 80
2, 107759, Note_on_c, 1, 62, 0
2, 108000, Note_on_c, 1, 62, 80
2, 108239, Note_on_c, 1, 62, 0
2, 108480, Note_on_c, 1, 62, 80
2, 108719, Note_on_c, 1, 62, 0
2, 108960, Note_on_c, 1, 62, 80
2, 109199, Note_on_c, 1, 62, 0
2, 109440, Note_on_c, 1, 59, 80
2, 109679, Note_on_c, 1, 59, 0
2, 109920, Note_on_c, 1, 59, 80
2, 110159, Note_on_c, 1, 59, 0
2, 110400, Note_on_c, 1, 59, 80
2, 110855, Note_on_c, 1, 59, 0
2, 110880, Note_on_c, 1, 55, 80
2, 111335, Note_on_c, 1, 55, 0
2, 111360, Note_on_c, 1, 60, 80
2, 111599, Note_on_c, 1, 60, 0
2, 111840, Note_on_c, 1, 60, 80
2, 112079, Note_on_c, 1, 60, 0
2, 112320, Note_on_c, 1, 64, 80
2, 112559, Note_on_c, 1, 64, 0
2, 112800, Note_on_c, 1, 64, 80
2, 113039, Note_on_c, 1, 64, 0
2, 113280, Note_on_c, 1, 64, 80
2, 113519, Note_on_c, 1, 64, 0
2, 113760, Note_on_c, 1, 64, 80
2, 113999, Note_on_c, 1, 64, 0
2, 114240, Note_on_c, 1, 57, 80
2, 114479, Note_on_c, 1, 57, 0
2, 114720, Note_on_c, 1, 60, 80
2, 114959, Note_on_c, 1, 60, 0
2, 115200, Note_on_c, 1, 62, 80
2, 115439, Note_on_c, 1, 62, 0
2, 115680, Note_on_c, 1, 62, 80
2, 115919, Note_on_c, 1, 62, 0
2, 116160, Note_on_c, 1, 60, 80
2, 116399, Note_on_c, 1, 60, 0
2, 116640, Note_on_c, 1, 60, 80
2, 116879, Note_on_c, 1, 60, 0
2, 117120, Note_on_c, 1, 59, 80
2, 117359, Note_on_c, 1, 59, 0
2, 117600, Note_on_c, 1, 59, 80
2, 117839, Note_on_c, 1, 59, 0
2, 118080, Note_on_c, 1, 57, 80
2, 118319, Note_on_c, 1, 57, 0
2, 118560, Note_on_c, 1, 55, 80
2, 118799, Note_on_c, 1, 55, 0
2, 119040, Note_on_c, 1, 48, 80
2, 119495, Note_on_c, 1, 48, 0
2, 119496, End_track
3, 0, Start_track
3, 0, Title_t, "6-str. Electric Bass, Bass\000"
3, 0, Key_signature, 0, "major"
3, 0, Control_c, 4, 121, 0
3, 0, Program_c, 4, 33
3, 0, Control_c, 4, 7, 100
3, 0, Control_c, 4, 10, 64
3, 0, Control_c, 4, 91, 0
3, 0, Control_c, 4, 93, 0
3, 0, MIDI_port, 0
3, 0, Note_on_c, 4, 57, 80
3, 0, Control_c, 3, 121, 0
3, 0, Program_c, 3, 36
3, 0, Control_c, 3, 7, 100
3, 0, Control_c, 3, 10, 64
3, 0, Control_c, 3, 91, 0
3, 0, Control_c, 3, 93, 0
3, 0, MIDI_port, 0
3, 0, Control_c, 5, 121, 0
3, 0, Program_c, 5, 37
3, 0, Control_c, 5, 7, 100
3, 0, Control_c, 5, 10, 64
3, 0, Control_c, 5, 91, 0
3, 0, Control_c, 5, 93, 0
3, 0, MIDI_port, 0
3, 479, Note_on_c, 4, 57, 0
3, 480, Note_on_c, 4, 59, 80
3, 959, Note_on_c, 4, 59, 0
3, 960, Note_on_c, 4, 60, 80
3, 1439, Note_on_c, 4, 60, 0
3, 1440, Note_on_c, 4, 64, 80
3, 1919, Note_on_c, 4, 64, 0
3, 1920, Note_on_c, 4, 62, 80
3, 2399, Note_on_c, 4, 62, 0
3, 2400, Note_on_c, 4, 50, 80
3, 2879, Note_on_c, 4, 50, 0
3, 2880, Note_on_c, 4, 53, 80
3, 3359, Note_on_c, 4, 53, 0
3, 3360, Note_on_c, 4, 57, 80
3, 3839, Note_on_c, 4, 57, 0
3, 3840, Note_on_c, 4, 55, 80
3, 4319, Note_on_c, 4, 55, 0
3, 4320, Note_on_c, 4, 57, 80
3, 4799, Note_on_c, 4, 57, 0
3, 4800, Note_on_c, 4, 62, 80
3, 5279, Note_on_c, 4, 62, 0
3, 5280, Note_on_c, 4, 59, 80
3, 5759, Note_on_c, 4, 59, 0
3, 5760, Note_on_c, 4, 60, 80
3, 6239, Note_on_c, 4, 60, 0
3, 6240, Note_on_c, 4, 48, 80
3, 6719, Note_on_c, 4, 48, 0
3, 6720, Note_on_c, 4, 55, 80
3, 7199, Note_on_c, 4, 55, 0
3, 7200, Note_on_c, 4, 57, 80
3, 7679, Note_on_c, 4, 57, 0
3, 7680, Note_on_c, 4, 53, 80
3, 8159, Note_on_c, 4, 53, 0
3, 8160, Note_on_c, 4, 55, 80
3, 8639, Note_on_c, 4, 55, 0
3, 8640, Note_on_c, 4, 57, 80
3, 9119, Note_on_c, 4, 57, 0
3, 9120, Note_on_c, 4, 60, 80
3, 9599, Note_on_c, 4, 60, 0
3, 9600, Note_on_c, 4, 59, 80
3, 10079, Note_on_c, 4, 59, 0
3, 10080, Note_on_c, 4, 57, 80
3, 10559, Note_on_c, 4, 57, 0
3, 10560, Note_on_c, 4, 59, 80
3, 11039, Note_on_c, 4, 59, 0
3, 11040, Note_on_c, 4, 53, 80
3, 11519, Note_on_c, 4, 53, 0
3, 11520, Note_on_c, 4, 52, 80
3, 11999, Note_on_c, 4, 52, 0
3, 12000, Note_on_c, 4, 53, 80
3, 12479, Note_on_c, 4, 53, 0
3, 12480, Note_on_c, 4, 55, 80
3, 12959, Note_on_c, 4, 55, 0
3, 12960, Note_on_c, 4, 60, 80
3, 13439, Note_on_c, 4, 60, 0
3, 13440, Note_on_c, 4, 57, 80
3, 13919, Note_on_c, 4, 57, 0
3, 13920, Note_on_c, 4, 50, 80
3, 14399, Note_on_c, 4, 50, 0
3, 14400, Note_on_c, 4, 48, 80
3, 14879, Note_on_c, 4, 48, 0
3, 14880, Note_on_c, 4, 52, 80
3, 15359, Note_on_c, 4, 52, 0
3, 15360, Note_on_c, 4, 50, 80
3, 15839, Note_on_c, 4, 50, 0
3, 15840, Note_on_c, 4, 52, 80
3, 16319, Note_on_c, 4, 52, 0
3, 16320, Note_on_c, 4, 53, 80
3, 16799, Note_on_c, 4, 53, 0
3, 16800, Note_on_c, 4, 57, 80
3, 17279, Note_on_c, 4, 57, 0
3, 17280, Note_on_c, 4, 67, 80
3, 17759, Note_on_c, 4, 67, 0
3, 17760, Note_on_c, 4, 55, 80
3, 18239, Note_on_c, 4, 55, 0
3, 18240, Note_on_c, 4, 57, 80
3, 18719, Note_on_c, 4, 57, 0
3, 18720, Note_on_c, 4, 59, 80
3, 19199, Note_on_c, 4, 59, 0
3, 19200, Note_on_c, 4, 60, 80
3, 19679, Note_on_c, 4, 60, 0
3, 19680, Note_on_c, 4, 60, 80
3, 20159, Note_on_c, 4, 60, 0
3, 20160, Note_on_c, 4, 65, 80
3, 20639, Note_on_c, 4, 65, 0
3, 20640, Note_on_c, 4, 65, 80
3, 21119, Note_on_c, 4, 65, 0
3, 21120, Note_on_c, 4, 64, 80
3, 21599, Note_on_c, 4, 64, 0
3, 21600, Note_on_c, 4, 52, 80
3, 22079, Note_on_c, 4, 52, 0
3, 22080, Note_on_c, 4, 57, 80
3, 22559, Note_on_c, 4, 57, 0
3, 22560, Note_on_c, 4, 57, 80
3, 23039, Note_on_c, 4, 57, 0
3, 23040, Note_on_c, 4, 62, 80
3, 23519, Note_on_c, 4, 62, 0
3, 23520, Note_on_c, 4, 60, 80
3, 23999, Note_on_c, 4, 60, 0
3, 24000, Note_on_c, 4, 59, 80
3, 24479, Note_on_c, 4, 59, 0
3, 24480, Note_on_c, 4, 57, 80
3, 24959, Note_on_c, 4, 57, 0
3, 24960, Note_on_c, 4, 62, 80
3, 25439, Note_on_c, 4, 62, 0
3, 25440, Note_on_c, 4, 62, 80
3, 25919, Note_on_c, 4, 62, 0
3, 25920, Note_on_c, 4, 69, 80
3, 26399, Note_on_c, 4, 69, 0
3, 26400, Note_on_c, 4, 67, 80
3, 26879, Note_on_c, 4, 67, 0
3, 26880, Note_on_c, 4, 60, 80
3, 27359, Note_on_c, 4, 60, 0
3, 27360, Note_on_c, 4, 65, 80
3, 27839, Note_on_c, 4, 65, 0
3, 27840, Note_on_c, 4, 71, 80
3, 28319, Note_on_c, 4, 71, 0
3, 28320, Note_on_c, 4, 67, 80
3, 28799, Note_on_c, 4, 67, 0
3, 28800, Note_on_c, 4, 64, 80
3, 29279, Note_on_c, 4, 64, 0
3, 29280, Note_on_c, 4, 64, 80
3, 29759, Note_on_c, 4, 64, 0
3, 29760, Note_on_c, 4, 59, 80
3, 30239, Note_on_c, 4, 59, 0
3, 30240, Note_on_c, 4, 59, 80
3, 30719, Note_on_c, 4, 59, 0
3, 30720, Note_on_c, 4, 57, 80
3, 31199, Note_on_c, 4, 57, 0
3, 31200, Note_on_c, 4, 59, 80
3, 31679, Note_on_c, 4, 59, 0
3, 31680, Note_on_c, 4, 60, 80
3, 32159, Note_on_c, 4, 60, 0
3, 32160, Note_on_c, 4, 64, 80
3, 32639, Note_on_c, 4, 64, 0
3, 32640, Note_on_c, 4, 62, 80
3, 33119, Note_on_c, 4, 62, 0
3, 33120, Note_on_c, 4, 50, 80
3, 33599, Note_on_c, 4, 50, 0
3, 33600, Note_on_c, 4, 53, 80
3, 34079, Note_on_c, 4, 53, 0
3, 34080, Note_on_c, 4, 57, 80
3, 34559, Note_on_c, 4, 57, 0
3, 34560, Note_on_c, 4, 55, 80
3, 35039, Note_on_c, 4, 55, 0
3, 35040, Note_on_c, 4, 57, 80
3, 35519, Note_on_c, 4, 57, 0
3, 35520, Note_on_c, 4, 62, 80
3, 35999, Note_on_c, 4, 62, 0
3, 36000, Note_on_c, 4, 59, 80
3, 36479, Note_on_c, 4, 59, 0
3, 36480, Note_on_c, 4, 60, 80
3, 36959, Note_on_c, 4, 60, 0
3, 36960, Note_on_c, 4, 48, 80
3, 37439, Note_on_c, 4, 48, 0
3, 37440, Note_on_c, 4, 55, 80
3, 37919, Note_on_c, 4, 55, 0
3, 37920, Note_on_c, 4, 57, 80
3, 38399, Note_on_c, 4, 57, 0
3, 38400, Note_on_c, 4, 53, 80
3, 38879, Note_on_c, 4, 53, 0
3, 38880, Note_on_c, 4, 55, 80
3, 39359, Note_on_c, 4, 55, 0
3, 39360, Note_on_c, 4, 57, 80
3, 39839, Note_on_c, 4, 57, 0
3, 39840, Note_on_c, 4, 60, 80
3, 40319, Note_on_c, 4, 60, 0
3, 40320, Note_on_c, 4, 59, 80
3, 40799, Note_on_c, 4, 59, 0
3, 40800, Note_on_c, 4, 57, 80
3, 41279, Note_on_c, 4, 57, 0
3, 41280, Note_on_c, 4, 59, 80
3, 41759, Note_on_c, 4, 59, 0
3, 41760, Note_on_c, 4, 53, 80
3, 42239, Note_on_c, 4, 53, 0
3, 42240, Note_on_c, 4, 52, 80
3, 42719, Note_on_c, 4, 52, 0
3, 42720, Note_on_c, 4, 53, 80
3, 43199, Note_on_c, 4, 53, 0
3, 43200, Note_on_c, 4, 55, 80
3, 43679, Note_on_c, 4, 55, 0
3, 43680, Note_on_c, 4, 60, 80
3, 44159, Note_on_c, 4, 60, 0
3, 44160, Note_on_c, 4, 57, 80
3, 44639, Note_on_c, 4, 57, 0
3, 44640, Note_on_c, 4, 50, 80
3, 45119, Note_on_c, 4, 50, 0
3, 45120, Note_on_c, 4, 48, 80
3, 45599, Note_on_c, 4, 48, 0
3, 45600, Note_on_c, 4, 52, 80
3, 46079, Note_on_c, 4, 52, 0
3, 46080, Note_on_c, 4, 50, 80
3, 46559, Note_on_c, 4, 50, 0
3, 46560, Note_on_c, 4, 52, 80
3, 47039, Note_on_c, 4, 52, 0
3, 47040, Note_on_c, 4, 53, 80
3, 47519, Note_on_c, 4, 53, 0
3, 47520, Note_on_c, 4, 57, 80
3, 47999, Note_on_c, 4, 57, 0
3, 48000, Note_on_c, 4, 67, 80
3, 48479, Note_on_c, 4, 67, 0
3, 48480, Note_on_c, 4, 55, 80
3, 48959, Note_on_c, 4, 55, 0
3, 48960, Note_on_c, 4, 57, 80
3, 49439, Note_on_c, 4, 57, 0
3, 49440, Note_on_c, 4, 59, 80
3, 49919, Note_on_c, 4, 59, 0
3, 49920, Note_on_c, 4, 60, 80
3, 50399, Note_on_c, 4, 60, 0
3, 50400, Note_on_c, 4, 60, 80
3, 50879, Note_on_c, 4, 60, 0
3, 50880, Note_on_c, 4, 65, 80
3, 51359, Note_on_c, 4, 65, 0
3, 51360, Note_on_c, 4, 65, 80
3, 51839, Note_on_c, 4, 65, 0
3, 51840, Note_on_c, 4, 64, 80
3, 52319, Note_on_c, 4, 64, 0
3, 52320, Note_on_c, 4, 52, 80
3, 52799, Note_on_c, 4, 52, 0
3, 52800, Note_on_c, 4, 57, 80
3, 53279, Note_on_c, 4, 57, 0
3, 53280, Note_on_c, 4, 57, 80
3, 53759, Note_on_c, 4, 57, 0
3, 53760, Note_on_c, 4, 62, 80
3, 54239, Note_on_c, 4, 62, 0
3, 54240, Note_on_c, 4, 60, 80
3, 54719, Note_on_c, 4, 60, 0
3, 54720, Note_on_c, 4, 59, 80
3, 55199, Note_on_c, 4, 59, 0
3, 55200, Note_on_c, 4, 57, 80
3, 55679, Note_on_c, 4, 57, 0
3, 55680, Note_on_c, 4, 62, 80
3, 56159, Note_on_c, 4, 62, 0
3, 56160, Note_on_c, 4, 62, 80
3, 56639, Note_on_c, 4, 62, 0
3, 56640, Note_on_c, 4, 67, 80
3, 57119, Note_on_c, 4, 67, 0
3, 57120, Note_on_c, 4, 67, 80
3, 57599, Note_on_c, 4, 67, 0
3, 57600, Note_on_c, 4, 60, 80
3, 58079, Note_on_c, 4, 60, 0
3, 58080, Note_on_c, 4, 62, 80
3, 58559, Note_on_c, 4, 62, 0
3, 58560, Note_on_c, 4, 64, 80
3, 59039, Note_on_c, 4, 64, 0
3, 59040, Note_on_c, 4, 67, 80
3, 59519, Note_on_c, 4, 67, 0
3, 59520, Note_on_c, 4, 64, 80
3, 59999, Note_on_c, 4, 64, 0
3, 60000, Note_on_c, 4, 64, 80
3, 60479, Note_on_c, 4, 64, 0
3, 60480, Note_on_c, 4, 64, 80
3, 61439, Note_on_c, 4, 64, 0
3, 61440, Note_on_c, 4, 57, 80
3, 62879, Note_on_c, 4, 57, 0
3, 62880, Note_on_c, 4, 57, 80
3, 63359, Note_on_c, 4, 57, 0
3, 63360, Note_on_c, 4, 62, 80
3, 63839, Note_on_c, 4, 62, 0
3, 63840, Note_on_c, 4, 50, 80
3, 64319, Note_on_c, 4, 50, 0
3, 64320, Note_on_c, 4, 53, 80
3, 64799, Note_on_c, 4, 53, 0
3, 64800, Note_on_c, 4, 57, 80
3, 65279, Note_on_c, 4, 57, 0
3, 65280, Note_on_c, 4, 55, 80
3, 65759, Note_on_c, 4, 55, 0
3, 65760, Note_on_c, 4, 57, 80
3, 66239, Note_on_c, 4, 57, 0
3, 66240, Note_on_c, 4, 62, 80
3, 66719, Note_on_c, 4, 62, 0
3, 66720, Note_on_c, 4, 59, 80
3, 67199, Note_on_c, 4, 59, 0
3, 67200, Note_on_c, 4, 60, 80
3, 67679, Note_on_c, 4, 60, 0
3, 67680, Note_on_c, 4, 48, 80
3, 68159, Note_on_c, 4, 48, 0
3, 68160, Note_on_c, 4, 55, 80
3, 68639, Note_on_c, 4, 55, 0
3, 68640, Note_on_c, 4, 57, 80
3, 69119, Note_on_c, 4, 57, 0
3, 69120, Note_on_c, 4, 53, 80
3, 69599, Note_on_c, 4, 53, 0
3, 69600, Note_on_c, 4, 55, 80
3, 70079, Note_on_c, 4, 55, 0
3, 70080, Note_on_c, 4, 57, 80
3, 70559, Note_on_c, 4, 57, 0
3, 70560, Note_on_c, 4, 60, 80
3, 71039, Note_on_c, 4, 60, 0
3, 71040, Note_on_c, 4, 59, 80
3, 71519, Note_on_c, 4, 59, 0
3, 71520, Note_on_c, 4, 57, 80
3, 71999, Note_on_c, 4, 57, 0
3, 72000, Note_on_c, 4, 59, 80
3, 72479, Note_on_c, 4, 59, 0
3, 72480, Note_on_c, 4, 53, 80
3, 72959, Note_on_c, 4, 53, 0
3, 72960, Note_on_c, 4, 52, 80
3, 73439, Note_on_c, 4, 52, 0
3, 73440, Note_on_c, 4, 53, 80
3, 73919, Note_on_c, 4, 53, 0
3, 73920, Note_on_c, 4, 55, 80
3, 74399, Note_on_c, 4, 55, 0
3, 74400, Note_on_c, 4, 60, 80
3, 74879, Note_on_c, 4, 60, 0
3, 74880, Note_on_c, 4, 57, 80
3, 75359, Note_on_c, 4, 57, 0
3, 75360, Note_on_c, 4, 50, 80
3, 75839, Note_on_c, 4, 50, 0
3, 75840, Note_on_c, 4, 48, 80
3, 76319, Note_on_c, 4, 48, 0
3, 76320, Note_on_c, 4, 52, 80
3, 76799, Note_on_c, 4, 52, 0
3, 76800, Note_on_c, 4, 50, 80
3, 77279, Note_on_c, 4, 50, 0
3, 77280, Note_on_c, 4, 52, 80
3, 77759, Note_on_c, 4, 52, 0
3, 77760, Note_on_c, 4, 53, 80
3, 78239, Note_on_c, 4, 53, 0
3, 78240, Note_on_c, 4, 57, 80
3, 78719, Note_on_c, 4, 57, 0
3, 78720, Note_on_c, 4, 67, 80
3, 79199, Note_on_c, 4, 67, 0
3, 79200, Note_on_c, 4, 55, 80
3, 79679, Note_on_c, 4, 55, 0
3, 79680, Note_on_c, 4, 57, 80
3, 80159, Note_on_c, 4, 57, 0
3, 80160, Note_on_c, 4, 59, 80
3, 80639, Note_on_c, 4, 59, 0
3, 80640, Note_on_c, 4, 60, 80
3, 81119, Note_on_c, 4, 60, 0
3, 81120, Note_on_c, 4, 60, 80
3, 81599, Note_on_c, 4, 60, 0
3, 81600, Note_on_c, 4, 65, 80
3, 82079, Note_on_c, 4, 65, 0
3, 82080, Note_on_c, 4, 65, 80
3, 82559, Note_on_c, 4, 65, 0
3, 82560, Note_on_c, 4, 64, 80
3, 83039, Note_on_c, 4, 64, 0
3, 83040, Note_on_c, 4, 52, 80
3, 83519, Note_on_c, 4, 52, 0
3, 83520, Note_on_c, 4, 57, 80
3, 83999, Note_on_c, 4, 57, 0
3, 84000, Note_on_c, 4, 57, 80
3, 84479, Note_on_c, 4, 57, 0
3, 84480, Note_on_c, 4, 62, 80
3, 84959, Note_on_c, 4, 62, 0
3, 84960, Note_on_c, 4, 60, 80
3, 85439, Note_on_c, 4, 60, 0
3, 85440, Note_on_c, 4, 59, 80
3, 85919, Note_on_c, 4, 59, 0
3, 85920, Note_on_c, 4, 57, 80
3, 86399, Note_on_c, 4, 57, 0
3, 86400, Note_on_c, 4, 62, 80
3, 86879, Note_on_c, 4, 62, 0
3, 86880, Note_on_c, 4, 62, 80
3, 87359, Note_on_c, 4, 62, 0
3, 87360, Note_on_c, 4, 69, 80
3, 87839, Note_on_c, 4, 69, 0
3, 87840, Note_on_c, 4, 67, 80
3, 88319, Note_on_c, 4, 67, 0
3, 88320, Note_on_c, 4, 60, 80
3, 88799, Note_on_c, 4, 60, 0
3, 88800, Note_on_c, 4, 65, 80
3, 89279, Note_on_c, 4, 65, 0
3, 89280, Note_on_c, 4, 71, 80
3, 89759, Note_on_c, 4, 71, 0
3, 89760, Note_on_c, 4, 67, 80
3, 90239, Note_on_c, 4, 67, 0
3, 90240, Note_on_c, 4, 64, 80
3, 90719, Note_on_c, 4, 64, 0
3, 90720, Note_on_c, 4, 64, 80
3, 91199, Note_on_c, 4, 64, 0
3, 91200, Note_on_c, 4, 59, 80
3, 91679, Note_on_c, 4, 59, 0
3, 91680, Note_on_c, 4, 59, 80
3, 92159, Note_on_c, 4, 59, 0
3, 92160, Note_on_c, 4, 57, 80
3, 92639, Note_on_c, 4, 57, 0
3, 92640, Note_on_c, 4, 59, 80
3, 93119, Note_on_c, 4, 59, 0
3, 93120, Note_on_c, 4, 60, 80
3, 93599, Note_on_c, 4, 60, 0
3, 93600, Note_on_c, 4, 64, 80
3, 94079, Note_on_c, 4, 64, 0
3, 94080, Note_on_c, 4, 62, 80
3, 94559, Note_on_c, 4, 62, 0
3, 94560, Note_on_c, 4, 50, 80
3, 95039, Note_on_c, 4, 50, 0
3, 95040, Note_on_c, 4, 53, 80
3, 95519, Note_on_c, 4, 53, 0
3, 95520, Note_on_c, 4, 57, 80
3, 95999, Note_on_c, 4, 57, 0
3, 96000, Note_on_c, 4, 55, 80
3, 96479, Note_on_c, 4, 55, 0
3, 96480, Note_on_c, 4, 57, 80
3, 96959, Note_on_c, 4, 57, 0
3, 96960, Note_on_c, 4, 62, 80
3, 97439, Note_on_c, 4, 62, 0
3, 97440, Note_on_c, 4, 59, 80
3, 97919, Note_on_c, 4, 59, 0
3, 97920, Note_on_c, 4, 60, 80
3, 98399, Note_on_c, 4, 60, 0
3, 98400, Note_on_c, 4, 48, 80
3, 98879, Note_on_c, 4, 48, 0
3, 98880, Note_on_c, 4, 55, 80
3, 99359, Note_on_c, 4, 55, 0
3, 99360, Note_on_c, 4, 57, 80
3, 99839, Note_on_c, 4, 57, 0
3, 99840, Note_on_c, 4, 53, 80
3, 100319, Note_on_c, 4, 53, 0
3, 100320, Note_on_c, 4, 55, 80
3, 100799, Note_on_c, 4, 55, 0
3, 100800, Note_on_c, 4, 57, 80
3, 101279, Note_on_c, 4, 57, 0
3, 101280, Note_on_c, 4, 60, 80
3, 101759, Note_on_c, 4, 60, 0
3, 101760, Note_on_c, 4, 59, 80
3, 102239, Note_on_c, 4, 59, 0
3, 102240, Note_on_c, 4, 57, 80
3, 102719, Note_on_c, 4, 57, 0
3, 102720, Note_on_c, 4, 59, 80
3, 103199, Note_on_c, 4, 59, 0
3, 103200, Note_on_c, 4, 53, 80
3, 103679, Note_on_c, 4, 53, 0
3, 103680, Note_on_c, 4, 52, 80
3, 104159, Note_on_c, 4, 52, 0
3, 104160, Note_on_c, 4, 53, 80
3, 104639, Note_on_c, 4, 53, 0
3, 104640, Note_on_c, 4, 55, 80
3, 105119, Note_on_c, 4, 55, 0
3, 105120, Note_on_c, 4, 60, 80
3, 105599, Note_on_c, 4, 60, 0
3, 105600, Note_on_c, 4, 57, 80
3, 106079, Note_on_c, 4, 57, 0
3, 106080, Note_on_c, 4, 50, 80
3, 106559, Note_on_c, 4, 50, 0
3, 106560, Note_on_c, 4, 48, 80
3, 107039, Note_on_c, 4, 48, 0
3, 107040, Note_on_c, 4, 52, 80
3, 107519, Note_on_c, 4, 52, 0
3, 107520, Note_on_c, 4, 50, 80
3, 107999, Note_on_c, 4, 50, 0
3, 108000, Note_on_c, 4, 52, 80
3, 108479, Note_on_c, 4, 52, 0
3, 108480, Note_on_c, 4, 53, 80
3, 108959, Note_on_c, 4, 53, 0
3, 108960, Note_on_c, 4, 57, 80
3, 109439, Note_on_c, 4, 57, 0
3, 109440, Note_on_c, 4, 67, 80
3, 109919, Note_on_c, 4, 67, 0
3, 109920, Note_on_c, 4, 55, 80
3, 110399, Note_on_c, 4, 55, 0
3, 110400, Note_on_c, 4, 57, 80
3, 110879, Note_on_c, 4, 57, 0
3, 110880, Note_on_c, 4, 59, 80
3, 111359, Note_on_c, 4, 59, 0
3, 111360, Note_on_c, 4, 60, 80
3, 111839, Note_on_c, 4, 60, 0
3, 111840, Note_on_c, 4, 60, 80
3, 112319, Note_on_c, 4, 60, 0
3, 112320, Note_on_c, 4, 65, 80
3, 112799, Note_on_c, 4, 65, 0
3, 112800, Note_on_c, 4, 65, 80
3, 113279, Note_on_c, 4, 65, 0
3, 113280, Note_on_c, 4, 64, 80
3, 113759, Note_on_c, 4, 64, 0
3, 113760, Note_on_c, 4, 52, 80
3, 114239, Note_on_c, 4, 52, 0
3, 114240, Note_on_c, 4, 57, 80
3, 114719, Note_on_c, 4, 57, 0
3, 114720, Note_on_c, 4, 57, 80
3, 115199, Note_on_c, 4, 57, 0
3, 115200, Note_on_c, 4, 62, 80
3, 115679, Note_on_c, 4, 62, 0
3, 115680, Note_on_c, 4, 60, 80
3, 116159, Note_on_c, 4, 60, 0
3, 116160, Note_on_c, 4, 59, 80
3, 116639, Note_on_c, 4, 59, 0
3, 116640, Note_on_c, 4, 57, 80
3, 117119, Note_on_c, 4, 57, 0
3, 117120, Note_on_c, 4, 62, 80
3, 117599, Note_on_c, 4, 62, 0
3, 117600, Note_on_c, 4, 62, 80
3, 118079, Note_on_c, 4, 62, 0
3, 118080, Note_on_c, 4, 67, 80
3, 118559, Note_on_c, 4, 67, 0
3, 118560, Note_on_c, 4, 67, 80
3, 119039, Note_on_c, 4, 67, 0
3, 119040, Note_on_c, 4, 60, 80
3, 119519, Note_on_c, 4, 60, 0
3, 119520, End_track
4, 0, Start_track
4, 0, Title_t, "Bell\000"
4, 0, Key_signature, 0, "major"
4, 0, Control_c, 7, 121, 0
4, 0, Program_c, 7, 14
4, 0, Control_c, 7, 7, 100
4, 0, Control_c, 7, 10, 64
4, 0, Control_c, 7, 91, 0
4, 0, Control_c, 7, 93, 0
4, 0, MIDI_port, 0
4, 1, End_track
5, 0, Start_track
5, 0, Title_t, "Classical Guitar, Lute\000"
5, 0, Key_signature, 0, "major"
5, 0, Control_c, 2, 121, 0
5, 0, Program_c, 2, 24
5, 0, Control_c, 2, 7, 100
5, 0, Control_c, 2, 10, 64
5, 0, Control_c, 2, 91, 0
5, 0, Control_c, 2, 93, 0
5, 0, MIDI_port, 0
5, 0, Note_on_c, 2, 64, 80
5, 0, Note_on_c, 2, 67, 80
5, 0, Control_c, 6, 121, 0
5, 0, Program_c, 6, 28
5, 0, Control_c, 6, 7, 100
5, 0, Control_c, 6, 10, 64
5, 0, Control_c, 6, 91, 0
5, 0, Control_c, 6, 93, 0
5, 0, MIDI_port, 0
5, 239, Note_on_c, 2, 64, 0
5, 239, Note_on_c, 2, 67, 0
5, 480, Note_on_c, 2, 64, 80
5, 480, Note_on_c, 2, 67, 80
5, 719, Note_on_c, 2, 64, 0
5, 719, Note_on_c, 2, 67, 0
5, 960, Note_on_c, 2, 64, 80
5, 960, Note_on_c, 2, 67, 80
5, 1199, Note_on_c, 2, 64, 0
5, 1199, Note_on_c, 2, 67, 0
5, 1440, Note_on_c, 2, 64, 80
5, 1440, Note_on_c, 2, 67, 80
5, 1679, Note_on_c, 2, 64, 0
5, 1679, Note_on_c, 2, 67, 0
5, 1920, Note_on_c, 2, 60, 80
5, 1920, Note_on_c, 2, 65, 80
5, 2159, Note_on_c, 2, 60, 0
5, 2159, Note_on_c, 2, 65, 0
5, 2400, Note_on_c, 2, 60, 80
5, 2400, Note_on_c, 2, 65, 80
5, 2639, Note_on_c, 2, 60, 0
5, 2639, Note_on_c, 2, 65, 0
5, 2880, Note_on_c, 2, 60, 80
5, 2880, Note_on_c, 2, 65, 80
5, 3119, Note_on_c, 2, 60, 0
5, 3119, Note_on_c, 2, 65, 0
5, 3360, Note_on_c, 2, 60, 80
5, 3360, Note_on_c, 2, 65, 80
5, 3599, Note_on_c, 2, 60, 0
5, 3599, Note_on_c, 2, 65, 0
5, 3840, Note_on_c, 2, 62, 80
5, 3840, Note_on_c, 2, 65, 80
5, 4079, Note_on_c, 2, 62, 0
5, 4079, Note_on_c, 2, 65, 0
5, 4320, Note_on_c, 2, 62, 80
5, 4320, Note_on_c, 2, 65, 80
5, 4559, Note_on_c, 2, 62, 0
5, 4559, Note_on_c, 2, 65, 0
5, 4800, Note_on_c, 2, 62, 80
5, 4800, Note_on_c, 2, 65, 80
5, 5039, Note_on_c, 2, 62, 0
5, 5039, Note_on_c, 2, 65, 0
5, 5280, Note_on_c, 2, 62, 80
5, 5280, Note_on_c, 2, 65, 80
5, 5519, Note_on_c, 2, 62, 0
5, 5519, Note_on_c, 2, 65, 0
5, 5760, Note_on_c, 2, 59, 80
5, 5760, Note_on_c, 2, 64, 80
5, 5999, Note_on_c, 2, 59, 0
5, 5999, Note_on_c, 2, 64, 0
5, 6240, Note_on_c, 2, 59, 80
5, 6240, Note_on_c, 2, 64, 80
5, 6479, Note_on_c, 2, 59, 0
5, 6479, Note_on_c, 2, 64, 0
5, 6720, Note_on_c, 2, 59, 80
5, 6720, Note_on_c, 2, 64, 80
5, 6959, Note_on_c, 2, 59, 0
5, 6959, Note_on_c, 2, 64, 0
5, 7200, Note_on_c, 2, 64, 80
5, 7439, Note_on_c, 2, 64, 0
5, 7680, Note_on_c, 2, 60, 80
5, 7680, Note_on_c, 2, 65, 80
5, 7919, Note_on_c, 2, 60, 0
5, 7919, Note_on_c, 2, 65, 0
5, 8160, Note_on_c, 2, 60, 80
5, 8160, Note_on_c, 2, 65, 80
5, 8399, Note_on_c, 2, 60, 0
5, 8399, Note_on_c, 2, 65, 0
5, 8640, Note_on_c, 2, 60, 80
5, 8640, Note_on_c, 2, 65, 80
5, 8879, Note_on_c, 2, 60, 0
5, 8879, Note_on_c, 2, 65, 0
5, 9120, Note_on_c, 2, 60, 80
5, 9120, Note_on_c, 2, 65, 80
5, 9359, Note_on_c, 2, 60, 0
5, 9359, Note_on_c, 2, 65, 0
5, 9600, Note_on_c, 2, 62, 80
5, 9600, Note_on_c, 2, 65, 80
5, 9839, Note_on_c, 2, 62, 0
5, 9839, Note_on_c, 2, 65, 0
5, 10080, Note_on_c, 2, 62, 80
5, 10080, Note_on_c, 2, 65, 80
5, 10319, Note_on_c, 2, 62, 0
5, 10319, Note_on_c, 2, 65, 0
5, 10560, Note_on_c, 2, 62, 80
5, 10560, Note_on_c, 2, 65, 80
5, 10799, Note_on_c, 2, 62, 0
5, 10799, Note_on_c, 2, 65, 0
5, 11040, Note_on_c, 2, 62, 80
5, 11040, Note_on_c, 2, 65, 80
5, 11279, Note_on_c, 2, 62, 0
5, 11279, Note_on_c, 2, 65, 0
5, 11520, Note_on_c, 2, 59, 80
5, 11520, Note_on_c, 2, 64, 80
5, 11759, Note_on_c, 2, 59, 0
5, 11759, Note_on_c, 2, 64, 0
5, 12000, Note_on_c, 2, 59, 80
5, 12000, Note_on_c, 2, 64, 80
5, 12239, Note_on_c, 2, 59, 0
5, 12239, Note_on_c, 2, 64, 0
5, 12480, Note_on_c, 2, 59, 80
5, 12480, Note_on_c, 2, 64, 80
5, 12719, Note_on_c, 2, 59, 0
5, 12719, Note_on_c, 2, 64, 0
5, 12960, Note_on_c, 2, 59, 80
5, 12960, Note_on_c, 2, 64, 80
5, 13199, Note_on_c, 2, 59, 0
5, 13199, Note_on_c, 2, 64, 0
5, 13440, Note_on_c, 2, 64, 80
5, 13440, Note_on_c, 2, 69, 80
5, 13679, Note_on_c, 2, 64, 0
5, 13679, Note_on_c, 2, 69, 0
5, 13920, Note_on_c, 2, 64, 80
5, 13920, Note_on_c, 2, 69, 80
5, 14159, Note_on_c, 2, 64, 0
5, 14159, Note_on_c, 2, 69, 0
5, 14400, Note_on_c, 2, 59, 80
5, 14400, Note_on_c, 2, 64, 80
5, 14639, Note_on_c, 2, 59, 0
5, 14639, Note_on_c, 2, 64, 0
5, 14880, Note_on_c, 2, 59, 80
5, 14880, Note_on_c, 2, 64, 80
5, 15119, Note_on_c, 2, 59, 0
5, 15119, Note_on_c, 2, 64, 0
5, 15360, Note_on_c, 2, 60, 80
5, 15360, Note_on_c, 2, 65, 80
5, 15599, Note_on_c, 2, 60, 0
5, 15599, Note_on_c, 2, 65, 0
5, 15840, Note_on_c, 2, 60, 80
5, 15840, Note_on_c, 2, 65, 80
5, 16079, Note_on_c, 2, 60, 0
5, 16079, Note_on_c, 2, 65, 0
5, 16320, Note_on_c, 2, 60, 80
5, 16320, Note_on_c, 2, 65, 80
5, 16559, Note_on_c, 2, 60, 0
5, 16559, Note_on_c, 2, 65, 0
5, 16800, Note_on_c, 2, 60, 80
5, 16800, Note_on_c, 2, 65, 80
5, 17039, Note_on_c, 2, 60, 0
5, 17039, Note_on_c, 2, 65, 0
5, 17280, Note_on_c, 2, 62, 80
5, 17280, Note_on_c, 2, 65, 80
5, 17519, Note_on_c, 2, 62, 0
5, 17519, Note_on_c, 2, 65, 0
5, 17760, Note_on_c, 2, 62, 80
5, 17760, Note_on_c, 2, 65, 80
5, 17999, Note_on_c, 2, 62, 0
5, 17999, Note_on_c, 2, 65, 0
5, 18240, Note_on_c, 2, 62, 80
5, 18240, Note_on_c, 2, 65, 80
5, 18479, Note_on_c, 2, 62, 0
5, 18479, Note_on_c, 2, 65, 0
5, 18720, Note_on_c, 2, 62, 80
5, 18720, Note_on_c, 2, 65, 80
5, 18959, Note_on_c, 2, 62, 0
5, 18959, Note_on_c, 2, 65, 0
5, 19200, Note_on_c, 2, 59, 80
5, 19200, Note_on_c, 2, 64, 80
5, 19439, Note_on_c, 2, 59, 0
5, 19439, Note_on_c, 2, 64, 0
5, 19680, Note_on_c, 2, 59, 80
5, 19680, Note_on_c, 2, 64, 80
5, 19919, Note_on_c, 2, 59, 0
5, 19919, Note_on_c, 2, 64, 0
5, 20160, Note_on_c, 2, 59, 80
5, 20160, Note_on_c, 2, 64, 80
5, 20399, Note_on_c, 2, 59, 0
5, 20399, Note_on_c, 2, 64, 0
5, 20640, Note_on_c, 2, 59, 80
5, 20640, Note_on_c, 2, 64, 80
5, 20879, Note_on_c, 2, 59, 0
5, 20879, Note_on_c, 2, 64, 0
5, 21120, Note_on_c, 2, 60, 80
5, 21120, Note_on_c, 2, 64, 80
5, 21359, Note_on_c, 2, 60, 0
5, 21359, Note_on_c, 2, 64, 0
5, 21600, Note_on_c, 2, 60, 80
5, 21600, Note_on_c, 2, 64, 80
5, 21839, Note_on_c, 2, 60, 0
5, 21839, Note_on_c, 2, 64, 0
5, 22080, Note_on_c, 2, 60, 80
5, 22080, Note_on_c, 2, 64, 80
5, 22319, Note_on_c, 2, 60, 0
5, 22319, Note_on_c, 2, 64, 0
5, 22560, Note_on_c, 2, 60, 80
5, 22560, Note_on_c, 2, 64, 80
5, 22799, Note_on_c, 2, 60, 0
5, 22799, Note_on_c, 2, 64, 0
5, 23040, Note_on_c, 2, 60, 80
5, 23040, Note_on_c, 2, 65, 80
5, 23279, Note_on_c, 2, 60, 0
5, 23279, Note_on_c, 2, 65, 0
5, 23520, Note_on_c, 2, 60, 80
5, 23520, Note_on_c, 2, 65, 80
5, 23759, Note_on_c, 2, 60, 0
5, 23759, Note_on_c, 2, 65, 0
5, 24000, Note_on_c, 2, 60, 80
5, 24000, Note_on_c, 2, 65, 80
5, 24239, Note_on_c, 2, 60, 0
5, 24239, Note_on_c, 2, 65, 0
5, 24480, Note_on_c, 2, 60, 80
5, 24480, Note_on_c, 2, 65, 80
5, 24719, Note_on_c, 2, 60, 0
5, 24719, Note_on_c, 2, 65, 0
5, 24960, Note_on_c, 2, 62, 80
5, 24960, Note_on_c, 2, 65, 80
5, 25199, Note_on_c, 2, 62, 0
5, 25199, Note_on_c, 2, 65, 0
5, 25440, Note_on_c, 2, 62, 80
5, 25440, Note_on_c, 2, 65, 80
5, 25679, Note_on_c, 2, 62, 0
5, 25679, Note_on_c, 2, 65, 0
5, 25920, Note_on_c, 2, 62, 80
5, 25920, Note_on_c, 2, 65, 80
5, 26159, Note_on_c, 2, 62, 0
5, 26159, Note_on_c, 2, 65, 0
5, 26400, Note_on_c, 2, 62, 80
5, 26400, Note_on_c, 2, 65, 80
5, 26639, Note_on_c, 2, 62, 0
5, 26639, Note_on_c, 2, 65, 0
5, 26880, Note_on_c, 2, 60, 80
5, 26880, Note_on_c, 2, 65, 80
5, 27119, Note_on_c, 2, 60, 0
5, 27119, Note_on_c, 2, 65, 0
5, 27360, Note_on_c, 2, 60, 80
5, 27360, Note_on_c, 2, 65, 80
5, 27599, Note_on_c, 2, 60, 0
5, 27599, Note_on_c, 2, 65, 0
5, 27840, Note_on_c, 2, 57, 80
5, 27840, Note_on_c, 2, 64, 80
5, 28079, Note_on_c, 2, 57, 0
5, 28079, Note_on_c, 2, 64, 0
5, 28320, Note_on_c, 2, 59, 80
5, 28320, Note_on_c, 2, 64, 80
5, 28559, Note_on_c, 2, 59, 0
5, 28559, Note_on_c, 2, 64, 0
5, 28800, Note_on_c, 2, 59, 80
5, 28800, Note_on_c, 2, 64, 80
5, 29039, Note_on_c, 2, 59, 0
5, 29039, Note_on_c, 2, 64, 0
5, 29280, Note_on_c, 2, 59, 80
5, 29280, Note_on_c, 2, 64, 80
5, 29519, Note_on_c, 2, 59, 0
5, 29519, Note_on_c, 2, 64, 0
5, 29760, Note_on_c, 2, 59, 80
5, 30079, Note_on_c, 2, 59, 0
5, 30080, Note_on_c, 2, 59, 80
5, 30080, Note_on_c, 2, 64, 80
5, 30719, Note_on_c, 2, 59, 0
5, 30719, Note_on_c, 2, 64, 0
5, 30720, Note_on_c, 2, 64, 80
5, 30720, Note_on_c, 2, 67, 80
5, 30959, Note_on_c, 2, 64, 0
5, 30959, Note_on_c, 2, 67, 0
5, 31200, Note_on_c, 2, 64, 80
5, 31200, Note_on_c, 2, 67, 80
5, 31439, Note_on_c, 2, 64, 0
5, 31439, Note_on_c, 2, 67, 0
5, 31680, Note_on_c, 2, 64, 80
5, 31680, Note_on_c, 2, 67, 80
5, 31919, Note_on_c, 2, 64, 0
5, 31919, Note_on_c, 2, 67, 0
5, 32160, Note_on_c, 2, 64, 80
5, 32160, Note_on_c, 2, 67, 80
5, 32399, Note_on_c, 2, 64, 0
5, 32399, Note_on_c, 2, 67, 0
5, 32640, Note_on_c, 2, 60, 80
5, 32640, Note_on_c, 2, 65, 80
5, 32879, Note_on_c, 2, 60, 0
5, 32879, Note_on_c, 2, 65, 0
5, 33120, Note_on_c, 2, 60, 80
5, 33120, Note_on_c, 2, 65, 80
5, 33359, Note_on_c, 2, 60, 0
5, 33359, Note_on_c, 2, 65, 0
5, 33600, Note_on_c, 2, 60, 80
5, 33600, Note_on_c, 2, 65, 80
5, 33839, Note_on_c, 2, 60, 0
5, 33839, Note_on_c, 2, 65, 0
5, 34080, Note_on_c, 2, 60, 80
5, 34080, Note_on_c, 2, 65, 80
5, 34319, Note_on_c, 2, 60, 0
5, 34319, Note_on_c, 2, 65, 0
5, 34560, Note_on_c, 2, 62, 80
5, 34560, Note_on_c, 2, 65, 80
5, 34799, Note_on_c, 2, 62, 0
5, 34799, Note_on_c, 2, 65, 0
5, 35040, Note_on_c, 2, 62, 80
5, 35040, Note_on_c, 2, 65, 80
5, 35279, Note_on_c, 2, 62, 0
5, 35279, Note_on_c, 2, 65, 0
5, 35520, Note_on_c, 2, 62, 80
5, 35520, Note_on_c, 2, 65, 80
5, 35759, Note_on_c, 2, 62, 0
5, 35759, Note_on_c, 2, 65, 0
5, 36000, Note_on_c, 2, 62, 80
5, 36000, Note_on_c, 2, 65, 80
5, 36239, Note_on_c, 2, 62, 0
5, 36239, Note_on_c, 2, 65, 0
5, 36480, Note_on_c, 2, 59, 80
5, 36480, Note_on_c, 2, 64, 80
5, 36719, Note_on_c, 2, 59, 0
5, 36719, Note_on_c, 2, 64, 0
5, 36960, Note_on_c, 2, 59, 80
5, 36960, Note_on_c, 2, 64, 80
5, 37199, Note_on_c, 2, 59, 0
5, 37199, Note_on_c, 2, 64, 0
5, 37440, Note_on_c, 2, 59, 80
5, 37440, Note_on_c, 2, 64, 80
5, 37679, Note_on_c, 2, 59, 0
5, 37679, Note_on_c, 2, 64, 0
5, 37920, Note_on_c, 2, 64, 80
5, 38159, Note_on_c, 2, 64, 0
5, 38400, Note_on_c, 2, 60, 80
5, 38400, Note_on_c, 2, 65, 80
5, 38639, Note_on_c, 2, 60, 0
5, 38639, Note_on_c, 2, 65, 0
5, 38880, Note_on_c, 2, 60, 80
5, 38880, Note_on_c, 2, 65, 80
5, 39119, Note_on_c, 2, 60, 0
5, 39119, Note_on_c, 2, 65, 0
5, 39360, Note_on_c, 2, 60, 80
5, 39360, Note_on_c, 2, 65, 80
5, 39599, Note_on_c, 2, 60, 0
5, 39599, Note_on_c, 2, 65, 0
5, 39840, Note_on_c, 2, 60, 80
5, 39840, Note_on_c, 2, 65, 80
5, 40079, Note_on_c, 2, 60, 0
5, 40079, Note_on_c, 2, 65, 0
5, 40320, Note_on_c, 2, 62, 80
5, 40320, Note_on_c, 2, 65, 80
5, 40559, Note_on_c, 2, 62, 0
5, 40559, Note_on_c, 2, 65, 0
5, 40800, Note_on_c, 2, 62, 80
5, 40800, Note_on_c, 2, 65, 80
5, 41039, Note_on_c, 2, 62, 0
5, 41039, Note_on_c, 2, 65, 0
5, 41280, Note_on_c, 2, 62, 80
5, 41280, Note_on_c, 2, 65, 80
5, 41519, Note_on_c, 2, 62, 0
5, 41519, Note_on_c, 2, 65, 0
5, 41760, Note_on_c, 2, 62, 80
5, 41760, Note_on_c, 2, 65, 80
5, 41999, Note_on_c, 2, 62, 0
5, 41999, Note_on_c, 2, 65, 0
5, 42240, Note_on_c, 2, 59, 80
5, 42240, Note_on_c, 2, 64, 80
5, 42479, Note_on_c, 2, 59, 0
5, 42479, Note_on_c, 2, 64, 0
5, 42720, Note_on_c, 2, 59, 80
5, 42720, Note_on_c, 2, 64, 80
5, 42959, Note_on_c, 2, 59, 0
5, 42959, Note_on_c, 2, 64, 0
5, 43200, Note_on_c, 2, 59, 80
5, 43200, Note_on_c, 2, 64, 80
5, 43439, Note_on_c, 2, 59, 0
5, 43439, Note_on_c, 2, 64, 0
5, 43680, Note_on_c, 2, 59, 80
5, 43680, Note_on_c, 2, 64, 80
5, 43919, Note_on_c, 2, 59, 0
5, 43919, Note_on_c, 2, 64, 0
5, 44160, Note_on_c, 2, 64, 80
5, 44160, Note_on_c, 2, 69, 80
5, 44399, Note_on_c, 2, 64, 0
5, 44399, Note_on_c, 2, 69, 0
5, 44640, Note_on_c, 2, 64, 80
5, 44640, Note_on_c, 2, 69, 80
5, 44879, Note_on_c, 2, 64, 0
5, 44879, Note_on_c, 2, 69, 0
5, 45120, Note_on_c, 2, 59, 80
5, 45120, Note_on_c, 2, 64, 80
5, 45359, Note_on_c, 2, 59, 0
5, 45359, Note_on_c, 2, 64, 0
5, 45600, Note_on_c, 2, 60, 80
5, 45600, Note_on_c, 2, 64, 80
5, 45839, Note_on_c, 2, 60, 0
5, 45839, Note_on_c, 2, 64, 0
5, 46080, Note_on_c, 2, 60, 80
5, 46080, Note_on_c, 2, 65, 80
5, 46319, Note_on_c, 2, 60, 0
5, 46319, Note_on_c, 2, 65, 0
5, 46560, Note_on_c, 2, 60, 80
5, 46560, Note_on_c, 2, 65, 80
5, 46799, Note_on_c, 2, 60, 0
5, 46799, Note_on_c, 2, 65, 0
5, 47040, Note_on_c, 2, 60, 80
5, 47040, Note_on_c, 2, 65, 80
5, 47279, Note_on_c, 2, 60, 0
5, 47279, Note_on_c, 2, 65, 0
5, 47520, Note_on_c, 2, 60, 80
5, 47520, Note_on_c, 2, 65, 80
5, 47759, Note_on_c, 2, 60, 0
5, 47759, Note_on_c, 2, 65, 0
5, 48000, Note_on_c, 2, 62, 80
5, 48000, Note_on_c, 2, 65, 80
5, 48239, Note_on_c, 2, 62, 0
5, 48239, Note_on_c, 2, 65, 0
5, 48480, Note_on_c, 2, 62, 80
5, 48480, Note_on_c, 2, 65, 80
5, 48719, Note_on_c, 2, 62, 0
5, 48719, Note_on_c, 2, 65, 0
5, 48960, Note_on_c, 2, 62, 80
5, 48960, Note_on_c, 2, 65, 80
5, 49199, Note_on_c, 2, 62, 0
5, 49199, Note_on_c, 2, 65, 0
5, 49440, Note_on_c, 2, 62, 80
5, 49440, Note_on_c, 2, 65, 80
5, 49679, Note_on_c, 2, 62, 0
5, 49679, Note_on_c, 2, 65, 0
5, 49920, Note_on_c, 2, 59, 80
5, 49920, Note_on_c, 2, 64, 80
5, 50159, Note_on_c, 2, 59, 0
5, 50159, Note_on_c, 2, 64, 0
5, 50400, Note_on_c, 2, 59, 80
5, 50400, Note_on_c, 2, 64, 80
5, 50639, Note_on_c, 2, 59, 0
5, 50639, Note_on_c, 2, 64, 0
5, 50880, Note_on_c, 2, 59, 80
5, 50880, Note_on_c, 2, 64, 80
5, 51119, Note_on_c, 2, 59, 0
5, 51119, Note_on_c, 2, 64, 0
5, 51360, Note_on_c, 2, 59, 80
5, 51360, Note_on_c, 2, 64, 80
5, 51599, Note_on_c, 2, 59, 0
5, 51599, Note_on_c, 2, 64, 0
5, 51840, Note_on_c, 2, 60, 80
5, 51840, Note_on_c, 2, 64, 80
5, 52079, Note_on_c, 2, 60, 0
5, 52079, Note_on_c, 2, 64, 0
5, 52320, Note_on_c, 2, 60, 80
5, 52320, Note_on_c, 2, 64, 80
5, 52559, Note_on_c, 2, 60, 0
5, 52559, Note_on_c, 2, 64, 0
5, 52800, Note_on_c, 2, 60, 80
5, 52800, Note_on_c, 2, 64, 80
5, 53039, Note_on_c, 2, 60, 0
5, 53039, Note_on_c, 2, 64, 0
5, 53280, Note_on_c, 2, 60, 80
5, 53280, Note_on_c, 2, 64, 80
5, 53519, Note_on_c, 2, 60, 0
5, 53519, Note_on_c, 2, 64, 0
5, 53760, Note_on_c, 2, 60, 80
5, 53760, Note_on_c, 2, 65, 80
5, 53999, Note_on_c, 2, 60, 0
5, 53999, Note_on_c, 2, 65, 0
5, 54240, Note_on_c, 2, 60, 80
5, 54240, Note_on_c, 2, 65, 80
5, 54479, Note_on_c, 2, 60, 0
5, 54479, Note_on_c, 2, 65, 0
5, 54720, Note_on_c, 2, 60, 80
5, 54720, Note_on_c, 2, 65, 80
5, 54959, Note_on_c, 2, 60, 0
5, 54959, Note_on_c, 2, 65, 0
5, 55200, Note_on_c, 2, 60, 80
5, 55200, Note_on_c, 2, 65, 80
5, 55439, Note_on_c, 2, 60, 0
5, 55439, Note_on_c, 2, 65, 0
5, 55680, Note_on_c, 2, 62, 80
5, 55680, Note_on_c, 2, 65, 80
5, 55919, Note_on_c, 2, 62, 0
5, 55919, Note_on_c, 2, 65, 0
5, 56160, Note_on_c, 2, 62, 80
5, 56160, Note_on_c, 2, 65, 80
5, 56399, Note_on_c, 2, 62, 0
5, 56399, Note_on_c, 2, 65, 0
5, 56640, Note_on_c, 2, 62, 80
5, 56640, Note_on_c, 2, 65, 80
5, 56879, Note_on_c, 2, 62, 0
5, 56879, Note_on_c, 2, 65, 0
5, 57120, Note_on_c, 2, 62, 80
5, 57120, Note_on_c, 2, 65, 80
5, 57359, Note_on_c, 2, 62, 0
5, 57359, Note_on_c, 2, 65, 0
5, 57600, Note_on_c, 2, 60, 80
5, 57600, Note_on_c, 2, 65, 80
5, 57839, Note_on_c, 2, 60, 0
5, 57839, Note_on_c, 2, 65, 0
5, 58080, Note_on_c, 2, 60, 80
5, 58080, Note_on_c, 2, 65, 80
5, 58319, Note_on_c, 2, 60, 0
5, 58319, Note_on_c, 2, 65, 0
5, 58560, Note_on_c, 2, 57, 80
5, 58560, Note_on_c, 2, 64, 80
5, 58799, Note_on_c, 2, 57, 0
5, 58799, Note_on_c, 2, 64, 0
5, 59040, Note_on_c, 2, 59, 80
5, 59040, Note_on_c, 2, 64, 80
5, 59279, Note_on_c, 2, 59, 0
5, 59279, Note_on_c, 2, 64, 0
5, 59520, Note_on_c, 2, 59, 80
5, 59520, Note_on_c, 2, 64, 80
5, 59999, Note_on_c, 2, 59, 0
5, 59999, Note_on_c, 2, 64, 0
5, 60000, Note_on_c, 2, 59, 80
5, 60000, Note_on_c, 2, 64, 80
5, 60479, Note_on_c, 2, 59, 0
5, 60479, Note_on_c, 2, 64, 0
5, 63360, Note_on_c, 2, 60, 80
5, 63360, Note_on_c, 2, 65, 80
5, 63599, Note_on_c, 2, 60, 0
5, 63599, Note_on_c, 2, 65, 0
5, 63840, Note_on_c, 2, 60, 80
5, 63840, Note_on_c, 2, 65, 80
5, 64019, Note_on_c, 2, 60, 0
5, 64019, Note_on_c, 2, 65, 0
5, 64200, Note_on_c, 2, 57, 80
5, 64319, Note_on_c, 2, 57, 0
5, 64320, Note_on_c, 2, 60, 80
5, 64320, Note_on_c, 2, 65, 80
5, 64559, Note_on_c, 2, 60, 0
5, 64559, Note_on_c, 2, 65, 0
5, 64800, Note_on_c, 2, 60, 80
5, 64800, Note_on_c, 2, 65, 80
5, 65039, Note_on_c, 2, 60, 0
5, 65039, Note_on_c, 2, 65, 0
5, 65280, Note_on_c, 2, 62, 80
5, 65280, Note_on_c, 2, 65, 80
5, 65519, Note_on_c, 2, 62, 0
5, 65519, Note_on_c, 2, 65, 0
5, 65760, Note_on_c, 2, 62, 80
5, 65760, Note_on_c, 2, 65, 80
5, 65939, Note_on_c, 2, 62, 0
5, 65939, Note_on_c, 2, 65, 0
5, 66120, Note_on_c, 2, 55, 80
5, 66239, Note_on_c, 2, 55, 0
5, 66240, Note_on_c, 2, 62, 80
5, 66240, Note_on_c, 2, 65, 80
5, 66479, Note_on_c, 2, 62, 0
5, 66479, Note_on_c, 2, 65, 0
5, 66720, Note_on_c, 2, 62, 80
5, 66720, Note_on_c, 2, 65, 80
5, 66959, Note_on_c, 2, 62, 0
5, 66959, Note_on_c, 2, 65, 0
5, 67200, Note_on_c, 2, 59, 80
5, 67200, Note_on_c, 2, 64, 80
5, 67439, Note_on_c, 2, 59, 0
5, 67439, Note_on_c, 2, 64, 0
5, 67680, Note_on_c, 2, 59, 80
5, 67680, Note_on_c, 2, 64, 80
5, 67859, Note_on_c, 2, 59, 0
5, 67859, Note_on_c, 2, 64, 0
5, 68040, Note_on_c, 2, 55, 80
5, 68159, Note_on_c, 2, 55, 0
5, 68160, Note_on_c, 2, 59, 80
5, 68160, Note_on_c, 2, 64, 80
5, 68399, Note_on_c, 2, 59, 0
5, 68399, Note_on_c, 2, 64, 0
5, 68640, Note_on_c, 2, 64, 80
5, 68879, Note_on_c, 2, 64, 0
5, 69120, Note_on_c, 2, 60, 80
5, 69120, Note_on_c, 2, 65, 80
5, 69359, Note_on_c, 2, 60, 0
5, 69359, Note_on_c, 2, 65, 0
5, 69600, Note_on_c, 2, 60, 80
5, 69600, Note_on_c, 2, 65, 80
5, 69779, Note_on_c, 2, 60, 0
5, 69779, Note_on_c, 2, 65, 0
5, 69960, Note_on_c, 2, 55, 80
5, 70079, Note_on_c, 2, 55, 0
5, 70080, Note_on_c, 2, 60, 80
5, 70080, Note_on_c, 2, 65, 80
5, 70319, Note_on_c, 2, 60, 0
5, 70319, Note_on_c, 2, 65, 0
5, 70560, Note_on_c, 2, 60, 80
5, 70560, Note_on_c, 2, 65, 80
5, 70739, Note_on_c, 2, 60, 0
5, 70739, Note_on_c, 2, 65, 0
5, 70920, Note_on_c, 2, 55, 80
5, 71039, Note_on_c, 2, 55, 0
5, 71040, Note_on_c, 2, 62, 80
5, 71040, Note_on_c, 2, 65, 80
5, 71279, Note_on_c, 2, 62, 0
5, 71279, Note_on_c, 2, 65, 0
5, 71520, Note_on_c, 2, 62, 80
5, 71520, Note_on_c, 2, 65, 80
5, 71699, Note_on_c, 2, 62, 0
5, 71699, Note_on_c, 2, 65, 0
5, 71880, Note_on_c, 2, 59, 80
5, 71999, Note_on_c, 2, 59, 0
5, 72000, Note_on_c, 2, 62, 80
5, 72000, Note_on_c, 2, 65, 80
5, 72239, Note_on_c, 2, 62, 0
5, 72239, Note_on_c, 2, 65, 0
5, 72480, Note_on_c, 2, 62, 80
5, 72480, Note_on_c, 2, 65, 80
5, 72719, Note_on_c, 2, 62, 0
5, 72719, Note_on_c, 2, 65, 0
5, 72960, Note_on_c, 2, 59, 80
5, 72960, Note_on_c, 2, 64, 80
5, 73199, Note_on_c, 2, 59, 0
5, 73199, Note_on_c, 2, 64, 0
5, 73440, Note_on_c, 2, 59, 80
5, 73440, Note_on_c, 2, 64, 80
5, 73619, Note_on_c, 2, 59, 0
5, 73619, Note_on_c, 2, 64, 0
5, 73800, Note_on_c, 2, 59, 80
5, 73919, Note_on_c, 2, 59, 0
5, 73920, Note_on_c, 2, 59, 80
5, 73920, Note_on_c, 2, 64, 80
5, 74159, Note_on_c, 2, 59, 0
5, 74159, Note_on_c, 2, 64, 0
5, 74400, Note_on_c, 2, 59, 80
5, 74400, Note_on_c, 2, 64, 80
5, 74639, Note_on_c, 2, 59, 0
5, 74639, Note_on_c, 2, 64, 0
5, 74880, Note_on_c, 2, 64, 80
5, 74880, Note_on_c, 2, 69, 80
5, 75119, Note_on_c, 2, 64, 0
5, 75119, Note_on_c, 2, 69, 0
5, 75360, Note_on_c, 2, 64, 80
5, 75360, Note_on_c, 2, 69, 80
5, 75599, Note_on_c, 2, 64, 0
5, 75599, Note_on_c, 2, 69, 0
5, 75840, Note_on_c, 2, 59, 80
5, 75840, Note_on_c, 2, 64, 80
5, 76079, Note_on_c, 2, 59, 0
5, 76079, Note_on_c, 2, 64, 0
5, 76320, Note_on_c, 2, 59, 80
5, 76320, Note_on_c, 2, 64, 80
5, 76559, Note_on_c, 2, 59, 0
5, 76559, Note_on_c, 2, 64, 0
5, 76800, Note_on_c, 2, 60, 80
5, 76800, Note_on_c, 2, 65, 80
5, 77039, Note_on_c, 2, 60, 0
5, 77039, Note_on_c, 2, 65, 0
5, 77280, Note_on_c, 2, 60, 80
5, 77280, Note_on_c, 2, 65, 80
5, 77459, Note_on_c, 2, 60, 0
5, 77459, Note_on_c, 2, 65, 0
5, 77640, Note_on_c, 2, 57, 80
5, 77759, Note_on_c, 2, 57, 0
5, 77760, Note_on_c, 2, 60, 80
5, 77760, Note_on_c, 2, 65, 80
5, 77999, Note_on_c, 2, 60, 0
5, 77999, Note_on_c, 2, 65, 0
5, 78240, Note_on_c, 2, 60, 80
5, 78240, Note_on_c, 2, 65, 80
5, 78479, Note_on_c, 2, 60, 0
5, 78479, Note_on_c, 2, 65, 0
5, 78720, Note_on_c, 2, 62, 80
5, 78720, Note_on_c, 2, 65, 80
5, 78959, Note_on_c, 2, 62, 0
5, 78959, Note_on_c, 2, 65, 0
5, 79200, Note_on_c, 2, 62, 80
5, 79200, Note_on_c, 2, 65, 80
5, 79379, Note_on_c, 2, 62, 0
5, 79379, Note_on_c, 2, 65, 0
5, 79560, Note_on_c, 2, 55, 80
5, 79679, Note_on_c, 2, 55, 0
5, 79680, Note_on_c, 2, 62, 80
5, 79680, Note_on_c, 2, 65, 80
5, 79919, Note_on_c, 2, 62, 0
5, 79919, Note_on_c, 2, 65, 0
5, 80160, Note_on_c, 2, 62, 80
5, 80160, Note_on_c, 2, 65, 80
5, 80399, Note_on_c, 2, 62, 0
5, 80399, Note_on_c, 2, 65, 0
5, 80640, Note_on_c, 2, 59, 80
5, 80640, Note_on_c, 2, 64, 80
5, 80879, Note_on_c, 2, 59, 0
5, 80879, Note_on_c, 2, 64, 0
5, 81120, Note_on_c, 2, 59, 80
5, 81120, Note_on_c, 2, 64, 80
5, 81299, Note_on_c, 2, 59, 0
5, 81299, Note_on_c, 2, 64, 0
5, 81480, Note_on_c, 2, 55, 80
5, 81599, Note_on_c, 2, 55, 0
5, 81600, Note_on_c, 2, 59, 80
5, 81600, Note_on_c, 2, 64, 80
5, 81839, Note_on_c, 2, 59, 0
5, 81839, Note_on_c, 2, 64, 0
5, 82080, Note_on_c, 2, 59, 80
5, 82080, Note_on_c, 2, 64, 80
5, 82319, Note_on_c, 2, 59, 0
5, 82319, Note_on_c, 2, 64, 0
5, 82560, Note_on_c, 2, 60, 80
5, 82560, Note_on_c, 2, 64, 80
5, 82799, Note_on_c, 2, 60, 0
5, 82799, Note_on_c, 2, 64, 0
5, 83040, Note_on_c, 2, 60, 80
5, 83040, Note_on_c, 2, 64, 80
5, 83219, Note_on_c, 2, 60, 0
5, 83219, Note_on_c, 2, 64, 0
5, 83400, Note_on_c, 2, 57, 80
5, 83519, Note_on_c, 2, 57, 0
5, 83520, Note_on_c, 2, 60, 80
5, 83520, Note_on_c, 2, 64, 80
5, 83759, Note_on_c, 2, 60, 0
5, 83759, Note_on_c, 2, 64, 0
5, 84000, Note_on_c, 2, 60, 80
5, 84000, Note_on_c, 2, 64, 80
5, 84239, Note_on_c, 2, 60, 0
5, 84239, Note_on_c, 2, 64, 0
5, 84480, Note_on_c, 2, 60, 80
5, 84480, Note_on_c, 2, 65, 80
5, 84719, Note_on_c, 2, 60, 0
5, 84719, Note_on_c, 2, 65, 0
5, 84960, Note_on_c, 2, 60, 80
5, 84960, Note_on_c, 2, 65, 80
5, 85139, Note_on_c, 2, 60, 0
5, 85139, Note_on_c, 2, 65, 0
5, 85320, Note_on_c, 2, 57, 80
5, 85439, Note_on_c, 2, 57, 0
5, 85440, Note_on_c, 2, 60, 80
5, 85440, Note_on_c, 2, 65, 80
5, 85679, Note_on_c, 2, 60, 0
5, 85679, Note_on_c, 2, 65, 0
5, 85920, Note_on_c, 2, 60, 80
5, 85920, Note_on_c, 2, 65, 80
5, 86159, Note_on_c, 2, 60, 0
5, 86159, Note_on_c, 2, 65, 0
5, 86400, Note_on_c, 2, 62, 80
5, 86400, Note_on_c, 2, 65, 80
5, 86639, Note_on_c, 2, 62, 0
5, 86639, Note_on_c, 2, 65, 0
5, 86880, Note_on_c, 2, 62, 80
5, 86880, Note_on_c, 2, 65, 80
5, 87059, Note_on_c, 2, 62, 0
5, 87059, Note_on_c, 2, 65, 0
5, 87240, Note_on_c, 2, 55, 80
5, 87359, Note_on_c, 2, 55, 0
5, 87360, Note_on_c, 2, 62, 80
5, 87360, Note_on_c, 2, 65, 80
5, 87599, Note_on_c, 2, 62, 0
5, 87599, Note_on_c, 2, 65, 0
5, 87840, Note_on_c, 2, 62, 80
5, 87840, Note_on_c, 2, 65, 80
5, 88079, Note_on_c, 2, 62, 0
5, 88079, Note_on_c, 2, 65, 0
5, 88320, Note_on_c, 2, 60, 80
5, 88320, Note_on_c, 2, 65, 80
5, 88559, Note_on_c, 2, 60, 0
5, 88559, Note_on_c, 2, 65, 0
5, 88800, Note_on_c, 2, 60, 80
5, 88800, Note_on_c, 2, 65, 80
5, 88979, Note_on_c, 2, 60, 0
5, 88979, Note_on_c, 2, 65, 0
5, 89160, Note_on_c, 2, 55, 80
5, 89279, Note_on_c, 2, 55, 0
5, 89280, Note_on_c, 2, 57, 80
5, 89280, Note_on_c, 2, 64, 80
5, 89519, Note_on_c, 2, 57, 0
5, 89519, Note_on_c, 2, 64, 0
5, 89760, Note_on_c, 2, 59, 80
5, 89760, Note_on_c, 2, 64, 80
5, 89999, Note_on_c, 2, 59, 0
5, 89999, Note_on_c, 2, 64, 0
5, 90240, Note_on_c, 2, 59, 80
5, 90240, Note_on_c, 2, 64, 80
5, 90479, Note_on_c, 2, 59, 0
5, 90479, Note_on_c, 2, 64, 0
5, 90720, Note_on_c, 2, 59, 80
5, 90720, Note_on_c, 2, 64, 80
5, 90899, Note_on_c, 2, 59, 0
5, 90899, Note_on_c, 2, 64, 0
5, 91080, Note_on_c, 2, 55, 80
5, 91199, Note_on_c, 2, 55, 0
5, 91200, Note_on_c, 2, 59, 80
5, 91519, Note_on_c, 2, 59, 0
5, 91520, Note_on_c, 2, 59, 80
5, 91520, Note_on_c, 2, 64, 80
5, 92159, Note_on_c, 2, 59, 0
5, 92159, Note_on_c, 2, 64, 0
5, 92160, Note_on_c, 2, 64, 80
5, 92160, Note_on_c, 2, 67, 80
5, 92399, Note_on_c, 2, 64, 0
5, 92399, Note_on_c, 2, 67, 0
5, 92640, Note_on_c, 2, 64, 80
5, 92640, Note_on_c, 2, 67, 80
5, 92819, Note_on_c, 2, 64, 0
5, 92819, Note_on_c, 2, 67, 0
5, 93000, Note_on_c, 2, 60, 80
5, 93119, Note_on_c, 2, 60, 0
5, 93120, Note_on_c, 2, 64, 80
5, 93120, Note_on_c, 2, 67, 80
5, 93359, Note_on_c, 2, 64, 0
5, 93359, Note_on_c, 2, 67, 0
5, 93600, Note_on_c, 2, 64, 80
5, 93600, Note_on_c, 2, 67, 80
5, 93839, Note_on_c, 2, 64, 0
5, 93839, Note_on_c, 2, 67, 0
5, 94080, Note_on_c, 2, 60, 80
5, 94080, Note_on_c, 2, 65, 80
5, 94319, Note_on_c, 2, 60, 0
5, 94319, Note_on_c, 2, 65, 0
5, 94560, Note_on_c, 2, 60, 80
5, 94560, Note_on_c, 2, 65, 80
5, 94739, Note_on_c, 2, 60, 0
5, 94739, Note_on_c, 2, 65, 0
5, 94920, Note_on_c, 2, 57, 80
5, 95039, Note_on_c, 2, 57, 0
5, 95040, Note_on_c, 2, 60, 80
5, 95040, Note_on_c, 2, 65, 80
5, 95279, Note_on_c, 2, 60, 0
5, 95279, Note_on_c, 2, 65, 0
5, 95520, Note_on_c, 2, 60, 80
5, 95520, Note_on_c, 2, 65, 80
5, 95759, Note_on_c, 2, 60, 0
5, 95759, Note_on_c, 2, 65, 0
5, 96000, Note_on_c, 2, 62, 80
5, 96000, Note_on_c, 2, 65, 80
5, 96239, Note_on_c, 2, 62, 0
5, 96239, Note_on_c, 2, 65, 0
5, 96480, Note_on_c, 2, 62, 80
5, 96480, Note_on_c, 2, 65, 80
5, 96659, Note_on_c, 2, 62, 0
5, 96659, Note_on_c, 2, 65, 0
5, 96840, Note_on_c, 2, 55, 80
5, 96959, Note_on_c, 2, 55, 0
5, 96960, Note_on_c, 2, 62, 80
5, 96960, Note_on_c, 2, 65, 80
5, 97199, Note_on_c, 2, 62, 0
5, 97199, Note_on_c, 2, 65, 0
5, 97440, Note_on_c, 2, 62, 80
5, 97440, Note_on_c, 2, 65, 80
5, 97679, Note_on_c, 2, 62, 0
5, 97679, Note_on_c, 2, 65, 0
5, 97920, Note_on_c, 2, 59, 80
5, 97920, Note_on_c, 2, 64, 80
5, 98159, Note_on_c, 2, 59, 0
5, 98159, Note_on_c, 2, 64, 0
5, 98400, Note_on_c, 2, 59, 80
5, 98400, Note_on_c, 2, 64, 80
5, 98579, Note_on_c, 2, 59, 0
5, 98579, Note_on_c, 2, 64, 0
5, 98760, Note_on_c, 2, 55, 80
5, 98879, Note_on_c, 2, 55, 0
5, 98880, Note_on_c, 2, 59, 80
5, 98880, Note_on_c, 2, 64, 80
5, 99119, Note_on_c, 2, 59, 0
5, 99119, Note_on_c, 2, 64, 0
5, 99360, Note_on_c, 2, 64, 80
5, 99599, Note_on_c, 2, 64, 0
5, 99840, Note_on_c, 2, 60, 80
5, 99840, Note_on_c, 2, 65, 80
5, 100079, Note_on_c, 2, 60, 0
5, 100079, Note_on_c, 2, 65, 0
5, 100320, Note_on_c, 2, 60, 80
5, 100320, Note_on_c, 2, 65, 80
5, 100499, Note_on_c, 2, 60, 0
5, 100499, Note_on_c, 2, 65, 0
5, 100680, Note_on_c, 2, 55, 80
5, 100799, Note_on_c, 2, 55, 0
5, 100800, Note_on_c, 2, 60, 80
5, 100800, Note_on_c, 2, 65, 80
5, 101039, Note_on_c, 2, 60, 0
5, 101039, Note_on_c, 2, 65, 0
5, 101280, Note_on_c, 2, 60, 80
5, 101280, Note_on_c, 2, 65, 80
5, 101459, Note_on_c, 2, 60, 0
5, 101459, Note_on_c, 2, 65, 0
5, 101640, Note_on_c, 2, 55, 80
5, 101759, Note_on_c, 2, 55, 0
5, 101760, Note_on_c, 2, 62, 80
5, 101760, Note_on_c, 2, 65, 80
5, 101999, Note_on_c, 2, 62, 0
5, 101999, Note_on_c, 2, 65, 0
5, 102240, Note_on_c, 2, 62, 80
5, 102240, Note_on_c, 2, 65, 80
5, 102419, Note_on_c, 2, 62, 0
5, 102419, Note_on_c, 2, 65, 0
5, 102600, Note_on_c, 2, 59, 80
5, 102719, Note_on_c, 2, 59, 0
5, 102720, Note_on_c, 2, 62, 80
5, 102720, Note_on_c, 2, 65, 80
5, 102959, Note_on_c, 2, 62, 0
5, 102959, Note_on_c, 2, 65, 0
5, 103200, Note_on_c, 2, 62, 80
5, 103200, Note_on_c, 2, 65, 80
5, 103439, Note_on_c, 2, 62, 0
5, 103439, Note_on_c, 2, 65, 0
5, 103680, Note_on_c, 2, 59, 80
5, 103680, Note_on_c, 2, 64, 80
5, 103919, Note_on_c, 2, 59, 0
5, 103919, Note_on_c, 2, 64, 0
5, 104160, Note_on_c, 2, 59, 80
5, 104160, Note_on_c, 2, 64, 80
5, 104339, Note_on_c, 2, 59, 0
5, 104339, Note_on_c, 2, 64, 0
5, 104520, Note_on_c, 2, 59, 80
5, 104639, Note_on_c, 2, 59, 0
5, 104640, Note_on_c, 2, 59, 80
5, 104640, Note_on_c, 2, 64, 80
5, 104879, Note_on_c, 2, 59, 0
5, 104879, Note_on_c, 2, 64, 0
5, 105120, Note_on_c, 2, 59, 80
5, 105120, Note_on_c, 2, 64, 80
5, 105359, Note_on_c, 2, 59, 0
5, 105359, Note_on_c, 2, 64, 0
5, 105600, Note_on_c, 2, 64, 80
5, 105600, Note_on_c, 2, 69, 80
5, 105839, Note_on_c, 2, 64, 0
5, 105839, Note_on_c, 2, 69, 0
5, 106080, Note_on_c, 2, 64, 80
5, 106080, Note_on_c, 2, 69, 80
5, 106259, Note_on_c, 2, 64, 0
5, 106259, Note_on_c, 2, 69, 0
5, 106440, Note_on_c, 2, 57, 80
5, 106559, Note_on_c, 2, 57, 0
5, 106560, Note_on_c, 2, 59, 80
5, 106560, Note_on_c, 2, 64, 80
5, 106799, Note_on_c, 2, 59, 0
5, 106799, Note_on_c, 2, 64, 0
5, 107040, Note_on_c, 2, 60, 80
5, 107040, Note_on_c, 2, 64, 80
5, 107279, Note_on_c, 2, 60, 0
5, 107279, Note_on_c, 2, 64, 0
5, 107520, Note_on_c, 2, 60, 80
5, 107520, Note_on_c, 2, 65, 80
5, 107759, Note_on_c, 2, 60, 0
5, 107759, Note_on_c, 2, 65, 0
5, 108000, Note_on_c, 2, 60, 80
5, 108000, Note_on_c, 2, 65, 80
5, 108179, Note_on_c, 2, 60, 0
5, 108179, Note_on_c, 2, 65, 0
5, 108360, Note_on_c, 2, 57, 80
5, 108479, Note_on_c, 2, 57, 0
5, 108480, Note_on_c, 2, 60, 80
5, 108480, Note_on_c, 2, 65, 80
5, 108719, Note_on_c, 2, 60, 0
5, 108719, Note_on_c, 2, 65, 0
5, 108960, Note_on_c, 2, 60, 80
5, 108960, Note_on_c, 2, 65, 80
5, 109199, Note_on_c, 2, 60, 0
5, 109199, Note_on_c, 2, 65, 0
5, 109440, Note_on_c, 2, 62, 80
5, 109440, Note_on_c, 2, 65, 80
5, 109679, Note_on_c, 2, 62, 0
5, 109679, Note_on_c, 2, 65, 0
5, 109920, Note_on_c, 2, 62, 80
5, 109920, Note_on_c, 2, 65, 80
5, 110099, Note_on_c, 2, 62, 0
5, 110099, Note_on_c, 2, 65, 0
5, 110280, Note_on_c, 2, 55, 80
5, 110399, Note_on_c, 2, 55, 0
5, 110400, Note_on_c, 2, 62, 80
5, 110400, Note_on_c, 2, 65, 80
5, 110639, Note_on_c, 2, 62, 0
5, 110639, Note_on_c, 2, 65, 0
5, 110880, Note_on_c, 2, 62, 80
5, 110880, Note_on_c, 2, 65, 80
5, 111119, Note_on_c, 2, 62, 0
5, 111119, Note_on_c, 2, 65, 0
5, 111360, Note_on_c, 2, 59, 80
5, 111360, Note_on_c, 2, 64, 80
5, 111599, Note_on_c, 2, 59, 0
5, 111599, Note_on_c, 2, 64, 0
5, 111840, Note_on_c, 2, 59, 80
5, 111840, Note_on_c, 2, 64, 80
5, 112019, Note_on_c, 2, 59, 0
5, 112019, Note_on_c, 2, 64, 0
5, 112200, Note_on_c, 2, 55, 80
5, 112319, Note_on_c, 2, 55, 0
5, 112320, Note_on_c, 2, 59, 80
5, 112320, Note_on_c, 2, 64, 80
5, 112559, Note_on_c, 2, 59, 0
5, 112559, Note_on_c, 2, 64, 0
5, 112800, Note_on_c, 2, 59, 80
5, 112800, Note_on_c, 2, 64, 80
5, 113039, Note_on_c, 2, 59, 0
5, 113039, Note_on_c, 2, 64, 0
5, 113280, Note_on_c, 2, 60, 80
5, 113280, Note_on_c, 2, 64, 80
5, 113519, Note_on_c, 2, 60, 0
5, 113519, Note_on_c, 2, 64, 0
5, 113760, Note_on_c, 2, 60, 80
5, 113760, Note_on_c, 2, 64, 80
5, 113939, Note_on_c, 2, 60, 0
5, 113939, Note_on_c, 2, 64, 0
5, 114120, Note_on_c, 2, 57, 80
5, 114239, Note_on_c, 2, 57, 0
5, 114240, Note_on_c, 2, 60, 80
5, 114240, Note_on_c, 2, 64, 80
5, 114479, Note_on_c, 2, 60, 0
5, 114479, Note_on_c, 2, 64, 0
5, 114720, Note_on_c, 2, 60, 80
5, 114720, Note_on_c, 2, 64, 80
5, 114959, Note_on_c, 2, 60, 0
5, 114959, Note_on_c, 2, 64, 0
5, 115200, Note_on_c, 2, 60, 80
5, 115200, Note_on_c, 2, 65, 80
5, 115439, Note_on_c, 2, 60, 0
5, 115439, Note_on_c, 2, 65, 0
5, 115680, Note_on_c, 2, 60, 80
5, 115680, Note_on_c, 2, 65, 80
5, 115859, Note_on_c, 2, 60, 0
5, 115859, Note_on_c, 2, 65, 0
5, 116040, Note_on_c, 2, 57, 80
5, 116159, Note_on_c, 2, 57, 0
5, 116160, Note_on_c, 2, 60, 80
5, 116160, Note_on_c, 2, 65, 80
5, 116399, Note_on_c, 2, 60, 0
5, 116399, Note_on_c, 2, 65, 0
5, 116640, Note_on_c, 2, 60, 80
5, 116640, Note_on_c, 2, 65, 80
5, 116879, Note_on_c, 2, 60, 0
5, 116879, Note_on_c, 2, 65, 0
5, 117120, Note_on_c, 2, 62, 80
5, 117120, Note_on_c, 2, 65, 80
5, 117359, Note_on_c, 2, 62, 0
5, 117359, Note_on_c, 2, 65, 0
5, 117600, Note_on_c, 2, 62, 80
5, 117600, Note_on_c, 2, 65, 80
5, 117779, Note_on_c, 2, 62, 0
5, 117779, Note_on_c, 2, 65, 0
5, 117960, Note_on_c, 2, 55, 80
5, 118079, Note_on_c, 2, 55, 0
5, 118080, Note_on_c, 2, 62, 80
5, 118080, Note_on_c, 2, 65, 80
5, 118319, Note_on_c, 2, 62, 0
5, 118319, Note_on_c, 2, 65, 0
5, 118560, Note_on_c, 2, 62, 80
5, 118560, Note_on_c, 2, 65, 80
5, 118799, Note_on_c, 2, 62, 0
5, 118799, Note_on_c, 2, 65, 0
5, 118800, End_track
0, 0, End_of_file
