0, 0, Header, 1, 3, 480
1, 0, Start_track
1, 0, Title_t, "Piano, Piano\000"
1, 0, Time_signature, 4, 2, 24, 8
1, 0, Key_signature, 0, "major"
1, 0, Tempo, 500000
1, 0, Control_c, 0, 121, 0
1, 0, Program_c, 0, 0
1, 0, Control_c, 0, 7, 100
1, 0, Control_c, 0, 10, 64
1, 0, Control_c, 0, 91, 0
1, 0, Control_c, 0, 93, 0
1, 0, MIDI_port, 0
1, 0, Note_on_c, 0, 50, 80
1, 0, Note_on_c, 0, 57, 80
1, 227, Note_on_c, 0, 50, 0
1, 227, Note_on_c, 0, 57, 0
1, 240, Note_on_c, 0, 50, 80
1, 240, Note_on_c, 0, 57, 80
1, 695, Note_on_c, 0, 50, 0
1, 695, Note_on_c, 0, 57, 0
1, 720, Note_on_c, 0, 50, 80
1, 720, Note_on_c, 0, 57, 80
1, 1175, Note_on_c, 0, 50, 0
1, 1175, Note_on_c, 0, 57, 0
1, 1200, Note_on_c, 0, 50, 80
1, 1200, Note_on_c, 0, 57, 80
1, 1427, Note_on_c, 0, 50, 0
1, 1427, Note_on_c, 0, 57, 0
1, 1440, Note_on_c, 0, 50, 80
1, 1440, Note_on_c, 0, 57, 80
1, 1667, Note_on_c, 0, 50, 0
1, 1667, Note_on_c, 0, 57, 0
1, 1680, Note_on_c, 0, 53, 80
1, 1680, Note_on_c, 0, 57, 80
1, 1680, Note_on_c, 0, 60, 80
1, 2135, Note_on_c, 0, 53, 0
1, 2135, Note_on_c, 0, 57, 0
1, 2135, Note_on_c, 0, 60, 0
1, 2160, Note_on_c, 0, 53, 80
1, 2160, Note_on_c, 0, 57, 80
1, 2160, Note_on_c, 0, 60, 80
1, 2615, Note_on_c, 0, 53, 0
1, 2615, Note_on_c, 0, 57, 0
1, 2615, Note_on_c, 0, 60, 0
1, 2640, Note_on_c, 0, 53, 80
1, 2640, Note_on_c, 0, 57, 80
1, 2640, Note_on_c, 0, 60, 80
1, 3095, Note_on_c, 0, 53, 0
1, 3095, Note_on_c, 0, 57, 0
1, 3095, Note_on_c, 0, 60, 0
1, 3120, Note_on_c, 0, 53, 80
1, 3120, Note_on_c, 0, 57, 80
1, 3120, Note_on_c, 0, 60, 80
1, 3575, Note_on_c, 0, 53, 0
1, 3575, Note_on_c, 0, 57, 0
1, 3575, Note_on_c, 0, 60, 0
1, 3600, Note_on_c, 0, 53, 80
1, 3600, Note_on_c, 0, 57, 80
1, 3600, Note_on_c, 0, 60, 80
1, 3827, Note_on_c, 0, 53, 0
1, 3827, Note_on_c, 0, 57, 0
1, 3827, Note_on_c, 0, 60, 0
1, 3840, Note_on_c, 0, 55, 80
1, 3840, Note_on_c, 0, 59, 80
1, 3840, Note_on_c, 0, 62, 80
1, 4067, Note_on_c, 0, 55, 0
1, 4067, Note_on_c, 0, 59, 0
1, 4067, Note_on_c, 0, 62, 0
1, 4080, Note_on_c, 0, 55, 80
1, 4080, Note_on_c, 0, 59, 80
1, 4535, Note_on_c, 0, 55, 0
1, 4535, Note_on_c, 0, 59, 0
1, 4560, Note_on_c, 0, 55, 80
1, 4560, Note_on_c, 0, 59, 80
1, 4560, Note_on_c, 0, 62, 80
1, 5015, Note_on_c, 0, 55, 0
1, 5015, Note_on_c, 0, 59, 0
1, 5015, Note_on_c, 0, 62, 0
1, 5040, Note_on_c, 0, 55, 80
1, 5040, Note_on_c, 0, 59, 80
1, 5040, Note_on_c, 0, 62, 80
1, 5495, Note_on_c, 0, 55, 0
1, 5495, Note_on_c, 0, 59, 0
1, 5495, Note_on_c, 0, 62, 0
1, 5520, Note_on_c, 0, 55, 80
1, 5520, Note_on_c, 0, 59, 80
1, 5520, Note_on_c, 0, 62, 80
1, 5975, Note_on_c, 0, 55, 0
1, 5975, Note_on_c, 0, 59, 0
1, 5975, Note_on_c, 0, 62, 0
1, 6000, Note_on_c, 0, 55, 80
1, 6000, Note_on_c, 0, 59, 80
1, 6000, Note_on_c, 0, 62, 80
1, 6455, Note_on_c, 0, 55, 0
1, 6455, Note_on_c, 0, 59, 0
1, 6455, Note_on_c, 0, 62, 0
1, 6480, Note_on_c, 0, 55, 80
1, 6480, Note_on_c, 0, 59, 80
1, 6480, Note_on_c, 0, 62, 80
1, 6935, Note_on_c, 0, 55, 0
1, 6935, Note_on_c, 0, 59, 0
1, 6935, Note_on_c, 0, 62, 0
1, 6960, Note_on_c, 0, 55, 80
1, 6960, Note_on_c, 0, 59, 80
1, 6960, Note_on_c, 0, 62, 80
1, 7415, Note_on_c, 0, 55, 0
1, 7415, Note_on_c, 0, 59, 0
1, 7415, Note_on_c, 0, 62, 0
1, 7440, Note_on_c, 0, 55, 80
1, 7440, Note_on_c, 0, 59, 80
1, 7440, Note_on_c, 0, 62, 80
1, 7667, Note_on_c, 0, 55, 0
1, 7667, Note_on_c, 0, 59, 0
1, 7667, Note_on_c, 0, 62, 0
1, 7680, Note_on_c, 0, 50, 80
1, 7680, Note_on_c, 0, 57, 80
1, 7907, Note_on_c, 0, 50, 0
1, 7907, Note_on_c, 0, 57, 0
1, 7920, Note_on_c, 0, 50, 80
1, 7920, Note_on_c, 0, 57, 80
1, 8375, Note_on_c, 0, 50, 0
1, 8375, Note_on_c, 0, 57, 0
1, 8400, Note_on_c, 0, 50, 80
1, 8400, Note_on_c, 0, 57, 80
1, 8855, Note_on_c, 0, 50, 0
1, 8855, Note_on_c, 0, 57, 0
1, 8880, Note_on_c, 0, 50, 80
1, 8880, Note_on_c, 0, 57, 80
1, 9107, Note_on_c, 0, 50, 0
1, 9107, Note_on_c, 0, 57, 0
1, 9120, Note_on_c, 0, 50, 80
1, 9120, Note_on_c, 0, 57, 80
1, 9347, Note_on_c, 0, 50, 0
1, 9347, Note_on_c, 0, 57, 0
1, 9360, Note_on_c, 0, 53, 80
1, 9360, Note_on_c, 0, 57, 80
1, 9360, Note_on_c, 0, 60, 80
1, 9587, Note_on_c, 0, 53, 0
1, 9587, Note_on_c, 0, 57, 0
1, 9587, Note_on_c, 0, 60, 0
1, 9600, Note_on_c, 0, 53, 80
1, 9600, Note_on_c, 0, 57, 80
1, 9600, Note_on_c, 0, 60, 80
1, 9827, Note_on_c, 0, 53, 0
1, 9827, Note_on_c, 0, 57, 0
1, 9827, Note_on_c, 0, 60, 0
1, 9840, Note_on_c, 0, 53, 80
1, 9840, Note_on_c, 0, 57, 80
1, 9840, Note_on_c, 0, 60, 80
1, 10295, Note_on_c, 0, 53, 0
1, 10295, Note_on_c, 0, 57, 0
1, 10295, Note_on_c, 0, 60, 0
1, 10320, Note_on_c, 0, 53, 80
1, 10320, Note_on_c, 0, 57, 80
1, 10320, Note_on_c, 0, 60, 80
1, 10775, Note_on_c, 0, 53, 0
1, 10775, Note_on_c, 0, 57, 0
1, 10775, Note_on_c, 0, 60, 0
1, 10800, Note_on_c, 0, 53, 80
1, 10800, Note_on_c, 0, 57, 80
1, 10800, Note_on_c, 0, 60, 80
1, 11255, Note_on_c, 0, 53, 0
1, 11255, Note_on_c, 0, 57, 0
1, 11255, Note_on_c, 0, 60, 0
1, 11280, Note_on_c, 0, 53, 80
1, 11280, Note_on_c, 0, 57, 80
1, 11280, Note_on_c, 0, 60, 80
1, 11507, Note_on_c, 0, 53, 0
1, 11507, Note_on_c, 0, 57, 0
1, 11507, Note_on_c, 0, 60, 0
1, 11520, Note_on_c, 0, 55, 80
1, 11520, Note_on_c, 0, 59, 80
1, 11520, Note_on_c, 0, 62, 80
1, 11747, Note_on_c, 0, 55, 0
1, 11747, Note_on_c, 0, 59, 0
1, 11747, Note_on_c, 0, 62, 0
1, 11760, Note_on_c, 0, 55, 80
1, 11760, Note_on_c, 0, 59, 80
1, 12215, Note_on_c, 0, 55, 0
1, 12215, Note_on_c, 0, 59, 0
1, 12240, Note_on_c, 0, 55, 80
1, 12240, Note_on_c, 0, 59, 80
1, 12240, Note_on_c, 0, 62, 80
1, 12695, Note_on_c, 0, 55, 0
1, 12695, Note_on_c, 0, 59, 0
1, 12695, Note_on_c, 0, 62, 0
1, 12720, Note_on_c, 0, 55, 80
1, 12720, Note_on_c, 0, 59, 80
1, 12720, Note_on_c, 0, 62, 80
1, 13175, Note_on_c, 0, 55, 0
1, 13175, Note_on_c, 0, 59, 0
1, 13175, Note_on_c, 0, 62, 0
1, 13200, Note_on_c, 0, 55, 80
1, 13200, Note_on_c, 0, 59, 80
1, 13200, Note_on_c, 0, 62, 80
1, 13655, Note_on_c, 0, 55, 0
1, 13655, Note_on_c, 0, 59, 0
1, 13655, Note_on_c, 0, 62, 0
1, 13680, Note_on_c, 0, 55, 80
1, 13680, Note_on_c, 0, 59, 80
1, 13680, Note_on_c, 0, 62, 80
1, 14135, Note_on_c, 0, 55, 0
1, 14135, Note_on_c, 0, 59, 0
1, 14135, Note_on_c, 0, 62, 0
1, 14160, Note_on_c, 0, 55, 80
1, 14160, Note_on_c, 0, 59, 80
1, 14160, Note_on_c, 0, 62, 80
1, 14615, Note_on_c, 0, 55, 0
1, 14615, Note_on_c, 0, 59, 0
1, 14615, Note_on_c, 0, 62, 0
1, 14640, Note_on_c, 0, 55, 80
1, 14640, Note_on_c, 0, 59, 80
1, 14640, Note_on_c, 0, 62, 80
1, 15095, Note_on_c, 0, 55, 0
1, 15095, Note_on_c, 0, 59, 0
1, 15095, Note_on_c, 0, 62, 0
1, 15120, Note_on_c, 0, 55, 80
1, 15120, Note_on_c, 0, 59, 80
1, 15120, Note_on_c, 0, 62, 80
1, 15347, Note_on_c, 0, 55, 0
1, 15347, Note_on_c, 0, 59, 0
1, 15347, Note_on_c, 0, 62, 0
1, 15360, Note_on_c, 0, 50, 80
1, 15360, Note_on_c, 0, 57, 80
1, 15587, Note_on_c, 0, 50, 0
1, 15587, Note_on_c, 0, 57, 0
1, 15600, Note_on_c, 0, 50, 80
1, 15600, Note_on_c, 0, 57, 80
1, 16055, Note_on_c, 0, 50, 0
1, 16055, Note_on_c, 0, 57, 0
1, 16080, Note_on_c, 0, 50, 80
1, 16080, Note_on_c, 0, 57, 80
1, 16535, Note_on_c, 0, 50, 0
1, 16535, Note_on_c, 0, 57, 0
1, 16560, Note_on_c, 0, 50, 80
1, 16560, Note_on_c, 0, 57, 80
1, 16787, Note_on_c, 0, 50, 0
1, 16787, Note_on_c, 0, 57, 0
1, 16800, Note_on_c, 0, 50, 80
1, 16800, Note_on_c, 0, 57, 80
1, 17027, Note_on_c, 0, 50, 0
1, 17027, Note_on_c, 0, 57, 0
1, 17040, Note_on_c, 0, 53, 80
1, 17040, Note_on_c, 0, 57, 80
1, 17040, Note_on_c, 0, 60, 80
1, 17267, Note_on_c, 0, 53, 0
1, 17267, Note_on_c, 0, 57, 0
1, 17267, Note_on_c, 0, 60, 0
1, 17520, Note_on_c, 0, 53, 80
1, 17520, Note_on_c, 0, 57, 80
1, 17520, Note_on_c, 0, 60, 80
1, 17975, Note_on_c, 0, 53, 0
1, 17975, Note_on_c, 0, 57, 0
1, 17975, Note_on_c, 0, 60, 0
1, 18000, Note_on_c, 0, 53, 80
1, 18000, Note_on_c, 0, 57, 80
1, 18000, Note_on_c, 0, 60, 80
1, 18455, Note_on_c, 0, 53, 0
1, 18455, Note_on_c, 0, 57, 0
1, 18455, Note_on_c, 0, 60, 0
1, 18480, Note_on_c, 0, 53, 80
1, 18480, Note_on_c, 0, 57, 80
1, 18480, Note_on_c, 0, 60, 80
1, 18935, Note_on_c, 0, 53, 0
1, 18935, Note_on_c, 0, 57, 0
1, 18935, Note_on_c, 0, 60, 0
1, 18960, Note_on_c, 0, 53, 80
1, 18960, Note_on_c, 0, 57, 80
1, 18960, Note_on_c, 0, 60, 80
1, 19187, Note_on_c, 0, 53, 0
1, 19187, Note_on_c, 0, 57, 0
1, 19187, Note_on_c, 0, 60, 0
1, 19200, Note_on_c, 0, 55, 80
1, 19200, Note_on_c, 0, 59, 80
1, 19427, Note_on_c, 0, 55, 0
1, 19427, Note_on_c, 0, 59, 0
1, 19440, Note_on_c, 0, 55, 80
1, 19440, Note_on_c, 0, 59, 80
1, 19440, Note_on_c, 0, 62, 80
1, 19895, Note_on_c, 0, 55, 0
1, 19895, Note_on_c, 0, 59, 0
1, 19895, Note_on_c, 0, 62, 0
1, 19920, Note_on_c, 0, 55, 80
1, 19920, Note_on_c, 0, 59, 80
1, 19920, Note_on_c, 0, 62, 80
1, 20375, Note_on_c, 0, 55, 0
1, 20375, Note_on_c, 0, 59, 0
1, 20375, Note_on_c, 0, 62, 0
1, 20400, Note_on_c, 0, 55, 80
1, 20400, Note_on_c, 0, 59, 80
1, 20400, Note_on_c, 0, 62, 80
1, 20855, Note_on_c, 0, 55, 0
1, 20855, Note_on_c, 0, 59, 0
1, 20855, Note_on_c, 0, 62, 0
1, 20880, Note_on_c, 0, 55, 80
1, 20880, Note_on_c, 0, 59, 80
1, 20880, Note_on_c, 0, 62, 80
1, 21335, Note_on_c, 0, 55, 0
1, 21335, Note_on_c, 0, 59, 0
1, 21335, Note_on_c, 0, 62, 0
1, 21360, Note_on_c, 0, 55, 80
1, 21360, Note_on_c, 0, 59, 80
1, 21360, Note_on_c, 0, 62, 80
1, 21815, Note_on_c, 0, 55, 0
1, 21815, Note_on_c, 0, 59, 0
1, 21815, Note_on_c, 0, 62, 0
1, 21840, Note_on_c, 0, 55, 80
1, 21840, Note_on_c, 0, 59, 80
1, 21840, Note_on_c, 0, 62, 80
1, 22295, Note_on_c, 0, 55, 0
1, 22295, Note_on_c, 0, 59, 0
1, 22295, Note_on_c, 0, 62, 0
1, 22320, Note_on_c, 0, 55, 80
1, 22320, Note_on_c, 0, 59, 80
1, 22320, Note_on_c, 0, 62, 80
1, 22775, Note_on_c, 0, 55, 0
1, 22775, Note_on_c, 0, 59, 0
1, 22775, Note_on_c, 0, 62, 0
1, 22800, Note_on_c, 0, 55, 80
1, 22800, Note_on_c, 0, 59, 80
1, 22800, Note_on_c, 0, 62, 80
1, 23027, Note_on_c, 0, 55, 0
1, 23027, Note_on_c, 0, 59, 0
1, 23027, Note_on_c, 0, 62, 0
1, 23040, Note_on_c, 0, 50, 80
1, 23040, Note_on_c, 0, 57, 80
1, 23267, Note_on_c, 0, 50, 0
1, 23267, Note_on_c, 0, 57, 0
1, 23280, Note_on_c, 0, 50, 80
1, 23280, Note_on_c, 0, 57, 80
1, 23735, Note_on_c, 0, 50, 0
1, 23735, Note_on_c, 0, 57, 0
1, 23760, Note_on_c, 0, 50, 80
1, 23760, Note_on_c, 0, 57, 80
1, 24215, Note_on_c, 0, 50, 0
1, 24215, Note_on_c, 0, 57, 0
1, 24240, Note_on_c, 0, 50, 80
1, 24240, Note_on_c, 0, 57, 80
1, 24467, Note_on_c, 0, 50, 0
1, 24467, Note_on_c, 0, 57, 0
1, 24480, Note_on_c, 0, 50, 80
1, 24480, Note_on_c, 0, 57, 80
1, 24707, Note_on_c, 0, 50, 0
1, 24707, Note_on_c, 0, 57, 0
1, 24720, Note_on_c, 0, 53, 80
1, 24720, Note_on_c, 0, 57, 80
1, 24720, Note_on_c, 0, 60, 80
1, 24947, Note_on_c, 0, 53, 0
1, 24947, Note_on_c, 0, 57, 0
1, 24947, Note_on_c, 0, 60, 0
1, 25200, Note_on_c, 0, 53, 80
1, 25200, Note_on_c, 0, 57, 80
1, 25200, Note_on_c, 0, 60, 80
1, 25655, Note_on_c, 0, 53, 0
1, 25655, Note_on_c, 0, 57, 0
1, 25655, Note_on_c, 0, 60, 0
1, 25680, Note_on_c, 0, 53, 80
1, 25680, Note_on_c, 0, 57, 80
1, 25680, Note_on_c, 0, 60, 80
1, 26135, Note_on_c, 0, 53, 0
1, 26135, Note_on_c, 0, 57, 0
1, 26135, Note_on_c, 0, 60, 0
1, 26160, Note_on_c, 0, 53, 80
1, 26160, Note_on_c, 0, 57, 80
1, 26160, Note_on_c, 0, 60, 80
1, 26615, Note_on_c, 0, 53, 0
1, 26615, Note_on_c, 0, 57, 0
1, 26615, Note_on_c, 0, 60, 0
1, 26640, Note_on_c, 0, 53, 80
1, 26640, Note_on_c, 0, 57, 80
1, 26640, Note_on_c, 0, 60, 80
1, 26867, Note_on_c, 0, 53, 0
1, 26867, Note_on_c, 0, 57, 0
1, 26867, Note_on_c, 0, 60, 0
1, 26880, Note_on_c, 0, 55, 80
1, 26880, Note_on_c, 0, 59, 80
1, 27107, Note_on_c, 0, 55, 0
1, 27107, Note_on_c, 0, 59, 0
1, 27120, Note_on_c, 0, 55, 80
1, 27120, Note_on_c, 0, 59, 80
1, 27120, Note_on_c, 0, 62, 80
1, 27575, Note_on_c, 0, 55, 0
1, 27575, Note_on_c, 0, 59, 0
1, 27575, Note_on_c, 0, 62, 0
1, 27600, Note_on_c, 0, 55, 80
1, 27600, Note_on_c, 0, 59, 80
1, 27600, Note_on_c, 0, 62, 80
1, 28055, Note_on_c, 0, 55, 0
1, 28055, Note_on_c, 0, 59, 0
1, 28055, Note_on_c, 0, 62, 0
1, 28080, Note_on_c, 0, 55, 80
1, 28080, Note_on_c, 0, 59, 80
1, 28080, Note_on_c, 0, 62, 80
1, 28535, Note_on_c, 0, 55, 0
1, 28535, Note_on_c, 0, 59, 0
1, 28535, Note_on_c, 0, 62, 0
1, 28560, Note_on_c, 0, 55, 80
1, 28560, Note_on_c, 0, 59, 80
1, 28560, Note_on_c, 0, 62, 80
1, 29015, Note_on_c, 0, 55, 0
1, 29015, Note_on_c, 0, 59, 0
1, 29015, Note_on_c, 0, 62, 0
1, 29040, Note_on_c, 0, 55, 80
1, 29040, Note_on_c, 0, 59, 80
1, 29040, Note_on_c, 0, 62, 80
1, 29495, Note_on_c, 0, 55, 0
1, 29495, Note_on_c, 0, 59, 0
1, 29495, Note_on_c, 0, 62, 0
1, 29520, Note_on_c, 0, 55, 80
1, 29520, Note_on_c, 0, 59, 80
1, 29520, Note_on_c, 0, 62, 80
1, 29975, Note_on_c, 0, 55, 0
1, 29975, Note_on_c, 0, 59, 0
1, 29975, Note_on_c, 0, 62, 0
1, 30000, Note_on_c, 0, 55, 80
1, 30000, Note_on_c, 0, 59, 80
1, 30000, Note_on_c, 0, 62, 80
1, 30455, Note_on_c, 0, 55, 0
1, 30455, Note_on_c, 0, 59, 0
1, 30455, Note_on_c, 0, 62, 0
1, 30480, Note_on_c, 0, 55, 80
1, 30480, Note_on_c, 0, 59, 80
1, 30480, Note_on_c, 0, 62, 80
1, 30707, Note_on_c, 0, 55, 0
1, 30707, Note_on_c, 0, 59, 0
1, 30707, Note_on_c, 0, 62, 0
1, 30720, Note_on_c, 0, 50, 80
1, 30720, Note_on_c, 0, 57, 80
1, 30947, Note_on_c, 0, 50, 0
1, 30947, Note_on_c, 0, 57, 0
1, 30960, Note_on_c, 0, 50, 80
1, 30960, Note_on_c, 0, 57, 80
1, 31415, Note_on_c, 0, 50, 0
1, 31415, Note_on_c, 0, 57, 0
1, 31440, Note_on_c, 0, 50, 80
1, 31440, Note_on_c, 0, 57, 80
1, 31895, Note_on_c, 0, 50, 0
1, 31895, Note_on_c, 0, 57, 0
1, 31920, Note_on_c, 0, 50, 80
1, 31920, Note_on_c, 0, 57, 80
1, 32147, Note_on_c, 0, 50, 0
1, 32147, Note_on_c, 0, 57, 0
1, 32160, Note_on_c, 0, 50, 80
1, 32160, Note_on_c, 0, 57, 80
1, 32387, Note_on_c, 0, 50, 0
1, 32387, Note_on_c, 0, 57, 0
1, 32400, Note_on_c, 0, 53, 80
1, 32400, Note_on_c, 0, 57, 80
1, 32400, Note_on_c, 0, 60, 80
1, 32627, Note_on_c, 0, 53, 0
1, 32627, Note_on_c, 0, 57, 0
1, 32627, Note_on_c, 0, 60, 0
1, 32880, Note_on_c, 0, 53, 80
1, 32880, Note_on_c, 0, 57, 80
1, 32880, Note_on_c, 0, 60, 80
1, 33335, Note_on_c, 0, 53, 0
1, 33335, Note_on_c, 0, 57, 0
1, 33335, Note_on_c, 0, 60, 0
1, 33360, Note_on_c, 0, 53, 80
1, 33360, Note_on_c, 0, 57, 80
1, 33360, Note_on_c, 0, 60, 80
1, 33815, Note_on_c, 0, 53, 0
1, 33815, Note_on_c, 0, 57, 0
1, 33815, Note_on_c, 0, 60, 0
1, 33840, Note_on_c, 0, 53, 80
1, 33840, Note_on_c, 0, 57, 80
1, 33840, Note_on_c, 0, 60, 80
1, 34295, Note_on_c, 0, 53, 0
1, 34295, Note_on_c, 0, 57, 0
1, 34295, Note_on_c, 0, 60, 0
1, 34320, Note_on_c, 0, 53, 80
1, 34320, Note_on_c, 0, 57, 80
1, 34320, Note_on_c, 0, 60, 80
1, 34547, Note_on_c, 0, 53, 0
1, 34547, Note_on_c, 0, 57, 0
1, 34547, Note_on_c, 0, 60, 0
1, 34560, Note_on_c, 0, 55, 80
1, 34560, Note_on_c, 0, 59, 80
1, 34787, Note_on_c, 0, 55, 0
1, 34787, Note_on_c, 0, 59, 0
1, 34800, Note_on_c, 0, 55, 80
1, 34800, Note_on_c, 0, 59, 80
1, 34800, Note_on_c, 0, 62, 80
1, 35255, Note_on_c, 0, 55, 0
1, 35255, Note_on_c, 0, 59, 0
1, 35255, Note_on_c, 0, 62, 0
1, 35280, Note_on_c, 0, 55, 80
1, 35280, Note_on_c, 0, 59, 80
1, 35280, Note_on_c, 0, 62, 80
1, 35735, Note_on_c, 0, 55, 0
1, 35735, Note_on_c, 0, 59, 0
1, 35735, Note_on_c, 0, 62, 0
1, 35760, Note_on_c, 0, 55, 80
1, 35760, Note_on_c, 0, 59, 80
1, 35760, Note_on_c, 0, 62, 80
1, 36215, Note_on_c, 0, 55, 0
1, 36215, Note_on_c, 0, 59, 0
1, 36215, Note_on_c, 0, 62, 0
1, 36240, Note_on_c, 0, 55, 80
1, 36240, Note_on_c, 0, 59, 80
1, 36240, Note_on_c, 0, 62, 80
1, 36695, Note_on_c, 0, 55, 0
1, 36695, Note_on_c, 0, 59, 0
1, 36695, Note_on_c, 0, 62, 0
1, 36720, Note_on_c, 0, 55, 80
1, 36720, Note_on_c, 0, 59, 80
1, 36720, Note_on_c, 0, 62, 80
1, 37175, Note_on_c, 0, 55, 0
1, 37175, Note_on_c, 0, 59, 0
1, 37175, Note_on_c, 0, 62, 0
1, 37200, Note_on_c, 0, 55, 80
1, 37200, Note_on_c, 0, 59, 80
1, 37200, Note_on_c, 0, 62, 80
1, 37655, Note_on_c, 0, 55, 0
1, 37655, Note_on_c, 0, 59, 0
1, 37655, Note_on_c, 0, 62, 0
1, 37680, Note_on_c, 0, 55, 80
1, 37680, Note_on_c, 0, 59, 80
1, 37680, Note_on_c, 0, 62, 80
1, 38135, Note_on_c, 0, 55, 0
1, 38135, Note_on_c, 0, 59, 0
1, 38135, Note_on_c, 0, 62, 0
1, 38160, Note_on_c, 0, 55, 80
1, 38160, Note_on_c, 0, 59, 80
1, 38160, Note_on_c, 0, 62, 80
1, 38160, Note_on_c, 0, 62, 0
1, 38279, Note_on_c, 0, 55, 0
1, 38279, Note_on_c, 0, 59, 0
1, 38400, Note_on_c, 0, 50, 80
1, 38400, Note_on_c, 0, 57, 80
1, 38627, Note_on_c, 0, 50, 0
1, 38627, Note_on_c, 0, 57, 0
1, 38640, Note_on_c, 0, 50, 80
1, 38640, Note_on_c, 0, 57, 80
1, 39095, Note_on_c, 0, 50, 0
1, 39095, Note_on_c, 0, 57, 0
1, 39120, Note_on_c, 0, 50, 80
1, 39120, Note_on_c, 0, 57, 80
1, 39575, Note_on_c, 0, 50, 0
1, 39575, Note_on_c, 0, 57, 0
1, 39600, Note_on_c, 0, 50, 80
1, 39600, Note_on_c, 0, 57, 80
1, 39827, Note_on_c, 0, 50, 0
1, 39827, Note_on_c, 0, 57, 0
1, 39840, Note_on_c, 0, 50, 80
1, 39840, Note_on_c, 0, 57, 80
1, 40067, Note_on_c, 0, 50, 0
1, 40067, Note_on_c, 0, 57, 0
1, 40080, Note_on_c, 0, 53, 80
1, 40080, Note_on_c, 0, 57, 80
1, 40080, Note_on_c, 0, 60, 80
1, 40307, Note_on_c, 0, 53, 0
1, 40307, Note_on_c, 0, 57, 0
1, 40307, Note_on_c, 0, 60, 0
1, 40560, Note_on_c, 0, 53, 80
1, 40560, Note_on_c, 0, 57, 80
1, 40560, Note_on_c, 0, 60, 80
1, 41015, Note_on_c, 0, 53, 0
1, 41015, Note_on_c, 0, 57, 0
1, 41015, Note_on_c, 0, 60, 0
1, 41040, Note_on_c, 0, 53, 80
1, 41040, Note_on_c, 0, 57, 80
1, 41040, Note_on_c, 0, 60, 80
1, 41495, Note_on_c, 0, 53, 0
1, 41495, Note_on_c, 0, 57, 0
1, 41495, Note_on_c, 0, 60, 0
1, 41520, Note_on_c, 0, 53, 80
1, 41520, Note_on_c, 0, 57, 80
1, 41520, Note_on_c, 0, 60, 80
1, 41975, Note_on_c, 0, 53, 0
1, 41975, Note_on_c, 0, 57, 0
1, 41975, Note_on_c, 0, 60, 0
1, 42000, Note_on_c, 0, 53, 80
1, 42000, Note_on_c, 0, 57, 80
1, 42000, Note_on_c, 0, 60, 80
1, 42227, Note_on_c, 0, 53, 0
1, 42227, Note_on_c, 0, 57, 0
1, 42227, Note_on_c, 0, 60, 0
1, 42240, Note_on_c, 0, 55, 80
1, 42240, Note_on_c, 0, 59, 80
1, 42467, Note_on_c, 0, 55, 0
1, 42467, Note_on_c, 0, 59, 0
1, 42480, Note_on_c, 0, 62, 80
1, 42480, Note_on_c, 0, 55, 80
1, 42480, Note_on_c, 0, 59, 80
1, 42599, Note_on_c, 0, 62, 0
1, 42935, Note_on_c, 0, 55, 0
1, 42935, Note_on_c, 0, 59, 0
1, 42960, Note_on_c, 0, 55, 80
1, 42960, Note_on_c, 0, 59, 80
1, 42960, Note_on_c, 0, 62, 80
1, 43415, Note_on_c, 0, 55, 0
1, 43415, Note_on_c, 0, 59, 0
1, 43415, Note_on_c, 0, 62, 0
1, 43440, Note_on_c, 0, 55, 80
1, 43440, Note_on_c, 0, 59, 80
1, 43440, Note_on_c, 0, 62, 80
1, 43895, Note_on_c, 0, 55, 0
1, 43895, Note_on_c, 0, 59, 0
1, 43895, Note_on_c, 0, 62, 0
1, 43920, Note_on_c, 0, 55, 80
1, 43920, Note_on_c, 0, 59, 80
1, 43920, Note_on_c, 0, 62, 80
1, 44375, Note_on_c, 0, 55, 0
1, 44375, Note_on_c, 0, 59, 0
1, 44375, Note_on_c, 0, 62, 0
1, 44400, Note_on_c, 0, 55, 80
1, 44400, Note_on_c, 0, 59, 80
1, 44400, Note_on_c, 0, 62, 80
1, 44855, Note_on_c, 0, 55, 0
1, 44855, Note_on_c, 0, 59, 0
1, 44855, Note_on_c, 0, 62, 0
1, 44880, Note_on_c, 0, 55, 80
1, 44880, Note_on_c, 0, 59, 80
1, 44880, Note_on_c, 0, 62, 80
1, 45335, Note_on_c, 0, 55, 0
1, 45335, Note_on_c, 0, 59, 0
1, 45335, Note_on_c, 0, 62, 0
1, 45360, Note_on_c, 0, 55, 80
1, 45360, Note_on_c, 0, 59, 80
1, 45360, Note_on_c, 0, 62, 80
1, 45815, Note_on_c, 0, 55, 0
1, 45815, Note_on_c, 0, 59, 0
1, 45815, Note_on_c, 0, 62, 0
1, 45840, Note_on_c, 0, 55, 80
1, 45840, Note_on_c, 0, 59, 80
1, 45840, Note_on_c, 0, 62, 80
1, 46067, Note_on_c, 0, 55, 0
1, 46067, Note_on_c, 0, 59, 0
1, 46067, Note_on_c, 0, 62, 0
1, 46080, Note_on_c, 0, 50, 80
1, 46080, Note_on_c, 0, 57, 80
1, 46307, Note_on_c, 0, 50, 0
1, 46307, Note_on_c, 0, 57, 0
1, 46320, Note_on_c, 0, 50, 80
1, 46320, Note_on_c, 0, 57, 80
1, 46775, Note_on_c, 0, 50, 0
1, 46775, Note_on_c, 0, 57, 0
1, 46800, Note_on_c, 0, 50, 80
1, 46800, Note_on_c, 0, 57, 80
1, 47255, Note_on_c, 0, 50, 0
1, 47255, Note_on_c, 0, 57, 0
1, 47280, Note_on_c, 0, 50, 80
1, 47280, Note_on_c, 0, 57, 80
1, 47507, Note_on_c, 0, 50, 0
1, 47507, Note_on_c, 0, 57, 0
1, 47520, Note_on_c, 0, 50, 80
1, 47520, Note_on_c, 0, 57, 80
1, 47747, Note_on_c, 0, 50, 0
1, 47747, Note_on_c, 0, 57, 0
1, 47760, Note_on_c, 0, 53, 80
1, 47760, Note_on_c, 0, 57, 80
1, 47760, Note_on_c, 0, 60, 80
1, 47987, Note_on_c, 0, 53, 0
1, 47987, Note_on_c, 0, 57, 0
1, 47987, Note_on_c, 0, 60, 0
1, 48240, Note_on_c, 0, 53, 80
1, 48240, Note_on_c, 0, 57, 80
1, 48240, Note_on_c, 0, 60, 80
1, 48695, Note_on_c, 0, 53, 0
1, 48695, Note_on_c, 0, 57, 0
1, 48695, Note_on_c, 0, 60, 0
1, 48720, Note_on_c, 0, 53, 80
1, 48720, Note_on_c, 0, 57, 80
1, 48720, Note_on_c, 0, 60, 80
1, 49175, Note_on_c, 0, 53, 0
1, 49175, Note_on_c, 0, 57, 0
1, 49175, Note_on_c, 0, 60, 0
1, 49200, Note_on_c, 0, 53, 80
1, 49200, Note_on_c, 0, 57, 80
1, 49200, Note_on_c, 0, 60, 80
1, 49655, Note_on_c, 0, 53, 0
1, 49655, Note_on_c, 0, 57, 0
1, 49655, Note_on_c, 0, 60, 0
1, 49680, Note_on_c, 0, 53, 80
1, 49680, Note_on_c, 0, 57, 80
1, 49680, Note_on_c, 0, 60, 80
1, 49907, Note_on_c, 0, 53, 0
1, 49907, Note_on_c, 0, 57, 0
1, 49907, Note_on_c, 0, 60, 0
1, 49920, Note_on_c, 0, 55, 80
1, 49920, Note_on_c, 0, 59, 80
1, 50147, Note_on_c, 0, 55, 0
1, 50147, Note_on_c, 0, 59, 0
1, 50160, Note_on_c, 0, 55, 80
1, 50160, Note_on_c, 0, 59, 80
1, 50160, Note_on_c, 0, 62, 80
1, 50615, Note_on_c, 0, 55, 0
1, 50615, Note_on_c, 0, 59, 0
1, 50615, Note_on_c, 0, 62, 0
1, 50640, Note_on_c, 0, 55, 80
1, 50640, Note_on_c, 0, 59, 80
1, 50640, Note_on_c, 0, 62, 80
1, 51095, Note_on_c, 0, 55, 0
1, 51095, Note_on_c, 0, 59, 0
1, 51095, Note_on_c, 0, 62, 0
1, 51120, Note_on_c, 0, 55, 80
1, 51120, Note_on_c, 0, 59, 80
1, 51120, Note_on_c, 0, 62, 80
1, 51575, Note_on_c, 0, 55, 0
1, 51575, Note_on_c, 0, 59, 0
1, 51575, Note_on_c, 0, 62, 0
1, 51600, Note_on_c, 0, 55, 80
1, 51600, Note_on_c, 0, 59, 80
1, 51600, Note_on_c, 0, 62, 80
1, 52055, Note_on_c, 0, 55, 0
1, 52055, Note_on_c, 0, 59, 0
1, 52055, Note_on_c, 0, 62, 0
1, 52080, Note_on_c, 0, 55, 80
1, 52080, Note_on_c, 0, 59, 80
1, 52080, Note_on_c, 0, 62, 80
1, 52535, Note_on_c, 0, 55, 0
1, 52535, Note_on_c, 0, 59, 0
1, 52535, Note_on_c, 0, 62, 0
1, 52560, Note_on_c, 0, 55, 80
1, 52560, Note_on_c, 0, 59, 80
1, 52560, Note_on_c, 0, 62, 80
1, 53015, Note_on_c, 0, 55, 0
1, 53015, Note_on_c, 0, 59, 0
1, 53015, Note_on_c, 0, 62, 0
1, 53040, Note_on_c, 0, 55, 80
1, 53040, Note_on_c, 0, 59, 80
1, 53040, Note_on_c, 0, 62, 80
1, 53495, Note_on_c, 0, 55, 0
1, 53495, Note_on_c, 0, 59, 0
1, 53495, Note_on_c, 0, 62, 0
1, 53520, Note_on_c, 0, 55, 80
1, 53520, Note_on_c, 0, 59, 80
1, 53520, Note_on_c, 0, 62, 80
1, 53747, Note_on_c, 0, 55, 0
1, 53747, Note_on_c, 0, 59, 0
1, 53747, Note_on_c, 0, 62, 0
1, 53760, Note_on_c, 0, 50, 80
1, 53760, Note_on_c, 0, 57, 80
1, 53987, Note_on_c, 0, 50, 0
1, 53987, Note_on_c, 0, 57, 0
1, 54000, Note_on_c, 0, 57, 80
1, 54000, Note_on_c, 0, 50, 80
1, 54227, Note_on_c, 0, 57, 0
1, 54455, Note_on_c, 0, 50, 0
1, 54480, Note_on_c, 0, 50, 80
1, 54480, Note_on_c, 0, 57, 80
1, 54935, Note_on_c, 0, 50, 0
1, 54935, Note_on_c, 0, 57, 0
1, 54960, Note_on_c, 0, 50, 80
1, 55187, Note_on_c, 0, 50, 0
1, 55200, Note_on_c, 0, 50, 80
1, 55200, Note_on_c, 0, 57, 80
1, 55427, Note_on_c, 0, 50, 0
1, 55427, Note_on_c, 0, 57, 0
1, 55440, Note_on_c, 0, 53, 80
1, 55440, Note_on_c, 0, 57, 80
1, 55440, Note_on_c, 0, 60, 80
1, 55559, Note_on_c, 0, 53, 0
1, 55559, Note_on_c, 0, 57, 0
1, 55559, Note_on_c, 0, 60, 0
1, 55920, Note_on_c, 0, 53, 80
1, 55920, Note_on_c, 0, 57, 80
1, 55920, Note_on_c, 0, 60, 80
1, 56280, Note_on_c, 0, 60, 0
1, 56375, Note_on_c, 0, 53, 0
1, 56375, Note_on_c, 0, 57, 0
1, 56400, Note_on_c, 0, 53, 80
1, 56400, Note_on_c, 0, 60, 80
1, 56855, Note_on_c, 0, 53, 0
1, 56855, Note_on_c, 0, 60, 0
1, 56880, Note_on_c, 0, 57, 80
1, 56880, Note_on_c, 0, 60, 80
1, 56880, Note_on_c, 0, 53, 80
1, 56999, Note_on_c, 0, 57, 0
1, 56999, Note_on_c, 0, 60, 0
1, 57335, Note_on_c, 0, 53, 0
1, 57360, Note_on_c, 0, 53, 80
1, 57360, Note_on_c, 0, 57, 80
1, 57587, Note_on_c, 0, 53, 0
1, 57587, Note_on_c, 0, 57, 0
1, 57600, Note_on_c, 0, 55, 80
1, 57600, Note_on_c, 0, 59, 80
1, 57827, Note_on_c, 0, 55, 0
1, 57827, Note_on_c, 0, 59, 0
1, 57840, Note_on_c, 0, 62, 80
1, 57840, Note_on_c, 0, 55, 80
1, 57840, Note_on_c, 0, 59, 80
1, 58067, Note_on_c, 0, 62, 0
1, 58295, Note_on_c, 0, 55, 0
1, 58295, Note_on_c, 0, 59, 0
1, 58320, Note_on_c, 0, 62, 80
1, 58320, Note_on_c, 0, 55, 80
1, 58320, Note_on_c, 0, 59, 80
1, 58547, Note_on_c, 0, 62, 0
1, 58775, Note_on_c, 0, 55, 0
1, 58775, Note_on_c, 0, 59, 0
1, 58800, Note_on_c, 0, 62, 80
1, 58800, Note_on_c, 0, 55, 80
1, 58800, Note_on_c, 0, 59, 80
1, 59027, Note_on_c, 0, 62, 0
1, 59255, Note_on_c, 0, 55, 0
1, 59255, Note_on_c, 0, 59, 0
1, 59280, Note_on_c, 0, 62, 80
1, 59280, Note_on_c, 0, 55, 80
1, 59280, Note_on_c, 0, 59, 80
1, 59507, Note_on_c, 0, 62, 0
1, 59735, Note_on_c, 0, 55, 0
1, 59735, Note_on_c, 0, 59, 0
1, 59760, Note_on_c, 0, 62, 80
1, 59760, Note_on_c, 0, 55, 80
1, 59760, Note_on_c, 0, 59, 80
1, 59987, Note_on_c, 0, 62, 0
1, 60215, Note_on_c, 0, 55, 0
1, 60215, Note_on_c, 0, 59, 0
1, 60240, Note_on_c, 0, 62, 80
1, 60240, Note_on_c, 0, 55, 80
1, 60240, Note_on_c, 0, 59, 80
1, 60467, Note_on_c, 0, 62, 0
1, 60695, Note_on_c, 0, 55, 0
1, 60695, Note_on_c, 0, 59, 0
1, 60720, Note_on_c, 0, 62, 80
1, 60720, Note_on_c, 0, 55, 80
1, 60720, Note_on_c, 0, 59, 80
1, 60947, Note_on_c, 0, 62, 0
1, 61175, Note_on_c, 0, 55, 0
1, 61175, Note_on_c, 0, 59, 0
1, 61200, Note_on_c, 0, 55, 80
1, 61200, Note_on_c, 0, 59, 80
1, 61200, Note_on_c, 0, 62, 80
1, 61200, Note_on_c, 0, 62, 0
1, 61319, Note_on_c, 0, 55, 0
1, 61319, Note_on_c, 0, 59, 0
1, 61440, Note_on_c, 0, 50, 80
1, 61440, Note_on_c, 0, 57, 80
1, 61667, Note_on_c, 0, 50, 0
1, 61667, Note_on_c, 0, 57, 0
1, 61680, Note_on_c, 0, 50, 80
1, 61680, Note_on_c, 0, 57, 80
1, 62135, Note_on_c, 0, 50, 0
1, 62135, Note_on_c, 0, 57, 0
1, 62160, Note_on_c, 0, 50, 80
1, 62615, Note_on_c, 0, 50, 0
1, 62640, Note_on_c, 0, 50, 80
1, 62640, Note_on_c, 0, 57, 80
1, 62867, Note_on_c, 0, 50, 0
1, 62867, Note_on_c, 0, 57, 0
1, 62880, Note_on_c, 0, 50, 80
1, 62880, Note_on_c, 0, 57, 80
1, 63107, Note_on_c, 0, 50, 0
1, 63107, Note_on_c, 0, 57, 0
1, 63120, Note_on_c, 0, 53, 80
1, 63120, Note_on_c, 0, 60, 80
1, 63347, Note_on_c, 0, 53, 0
1, 63347, Note_on_c, 0, 60, 0
1, 63600, Note_on_c, 0, 60, 80
1, 63600, Note_on_c, 0, 53, 80
1, 63600, Note_on_c, 0, 57, 80
1, 63827, Note_on_c, 0, 60, 0
1, 64055, Note_on_c, 0, 53, 0
1, 64055, Note_on_c, 0, 57, 0
1, 64080, Note_on_c, 0, 60, 80
1, 64080, Note_on_c, 0, 53, 80
1, 64199, Note_on_c, 0, 60, 0
1, 64535, Note_on_c, 0, 53, 0
1, 64560, Note_on_c, 0, 60, 80
1, 64560, Note_on_c, 0, 53, 80
1, 64679, Note_on_c, 0, 60, 0
1, 65015, Note_on_c, 0, 53, 0
1, 65040, Note_on_c, 0, 53, 80
1, 65040, Note_on_c, 0, 60, 80
1, 65159, Note_on_c, 0, 53, 0
1, 65159, Note_on_c, 0, 60, 0
1, 65280, Note_on_c, 0, 55, 80
1, 65280, Note_on_c, 0, 59, 80
1, 65507, Note_on_c, 0, 55, 0
1, 65507, Note_on_c, 0, 59, 0
1, 65520, Note_on_c, 0, 55, 80
1, 65520, Note_on_c, 0, 59, 80
1, 65520, Note_on_c, 0, 62, 80
1, 65975, Note_on_c, 0, 55, 0
1, 65975, Note_on_c, 0, 59, 0
1, 65975, Note_on_c, 0, 62, 0
1, 66000, Note_on_c, 0, 62, 80
1, 66000, Note_on_c, 0, 55, 80
1, 66000, Note_on_c, 0, 59, 80
1, 66227, Note_on_c, 0, 62, 0
1, 66455, Note_on_c, 0, 55, 0
1, 66455, Note_on_c, 0, 59, 0
1, 66480, Note_on_c, 0, 55, 80
1, 66480, Note_on_c, 0, 59, 80
1, 66480, Note_on_c, 0, 62, 80
1, 66935, Note_on_c, 0, 55, 0
1, 66935, Note_on_c, 0, 59, 0
1, 66935, Note_on_c, 0, 62, 0
1, 66960, Note_on_c, 0, 62, 80
1, 66960, Note_on_c, 0, 55, 80
1, 66960, Note_on_c, 0, 59, 80
1, 67187, Note_on_c, 0, 62, 0
1, 67415, Note_on_c, 0, 55, 0
1, 67415, Note_on_c, 0, 59, 0
1, 67440, Note_on_c, 0, 55, 80
1, 67440, Note_on_c, 0, 59, 80
1, 67440, Note_on_c, 0, 62, 80
1, 67895, Note_on_c, 0, 55, 0
1, 67895, Note_on_c, 0, 59, 0
1, 67895, Note_on_c, 0, 62, 0
1, 67920, Note_on_c, 0, 62, 80
1, 67920, Note_on_c, 0, 55, 80
1, 67920, Note_on_c, 0, 59, 80
1, 68147, Note_on_c, 0, 62, 0
1, 68375, Note_on_c, 0, 55, 0
1, 68375, Note_on_c, 0, 59, 0
1, 68400, Note_on_c, 0, 55, 80
1, 68400, Note_on_c, 0, 59, 80
1, 68400, Note_on_c, 0, 62, 80
1, 68855, Note_on_c, 0, 55, 0
1, 68855, Note_on_c, 0, 59, 0
1, 68855, Note_on_c, 0, 62, 0
1, 68880, Note_on_c, 0, 55, 80
1, 68880, Note_on_c, 0, 59, 80
1, 68880, Note_on_c, 0, 62, 80
1, 69107, Note_on_c, 0, 55, 0
1, 69107, Note_on_c, 0, 59, 0
1, 69107, Note_on_c, 0, 62, 0
1, 69120, Note_on_c, 0, 50, 80
1, 69120, Note_on_c, 0, 57, 80
1, 69347, Note_on_c, 0, 50, 0
1, 69347, Note_on_c, 0, 57, 0
1, 69360, Note_on_c, 0, 50, 80
1, 69360, Note_on_c, 0, 57, 80
1, 69815, Note_on_c, 0, 50, 0
1, 69815, Note_on_c, 0, 57, 0
1, 69840, Note_on_c, 0, 50, 80
1, 69840, Note_on_c, 0, 57, 80
1, 70295, Note_on_c, 0, 50, 0
1, 70295, Note_on_c, 0, 57, 0
1, 70320, Note_on_c, 0, 50, 80
1, 70320, Note_on_c, 0, 57, 80
1, 70547, Note_on_c, 0, 50, 0
1, 70547, Note_on_c, 0, 57, 0
1, 70560, Note_on_c, 0, 50, 80
1, 70560, Note_on_c, 0, 57, 80
1, 70787, Note_on_c, 0, 50, 0
1, 70787, Note_on_c, 0, 57, 0
1, 70800, Note_on_c, 0, 53, 80
1, 70800, Note_on_c, 0, 57, 80
1, 70800, Note_on_c, 0, 60, 80
1, 70919, Note_on_c, 0, 53, 0
1, 70919, Note_on_c, 0, 57, 0
1, 70919, Note_on_c, 0, 60, 0
1, 71280, Note_on_c, 0, 53, 80
1, 71280, Note_on_c, 0, 57, 80
1, 71280, Note_on_c, 0, 60, 80
1, 71640, Note_on_c, 0, 60, 0
1, 71735, Note_on_c, 0, 53, 0
1, 71735, Note_on_c, 0, 57, 0
1, 71760, Note_on_c, 0, 53, 80
1, 71760, Note_on_c, 0, 57, 80
1, 71760, Note_on_c, 0, 60, 80
1, 72215, Note_on_c, 0, 53, 0
1, 72215, Note_on_c, 0, 57, 0
1, 72215, Note_on_c, 0, 60, 0
1, 72240, Note_on_c, 0, 60, 80
1, 72240, Note_on_c, 0, 53, 80
1, 72240, Note_on_c, 0, 57, 80
1, 72359, Note_on_c, 0, 60, 0
1, 72695, Note_on_c, 0, 53, 0
1, 72695, Note_on_c, 0, 57, 0
1, 72720, Note_on_c, 0, 53, 80
1, 72720, Note_on_c, 0, 57, 80
1, 72720, Note_on_c, 0, 60, 80
1, 72947, Note_on_c, 0, 53, 0
1, 72947, Note_on_c, 0, 57, 0
1, 72947, Note_on_c, 0, 60, 0
1, 72960, Note_on_c, 0, 55, 80
1, 72960, Note_on_c, 0, 59, 80
1, 73187, Note_on_c, 0, 55, 0
1, 73187, Note_on_c, 0, 59, 0
1, 73200, Note_on_c, 0, 55, 80
1, 73200, Note_on_c, 0, 59, 80
1, 73200, Note_on_c, 0, 62, 80
1, 73655, Note_on_c, 0, 55, 0
1, 73655, Note_on_c, 0, 59, 0
1, 73655, Note_on_c, 0, 62, 0
1, 73680, Note_on_c, 0, 62, 80
1, 73680, Note_on_c, 0, 55, 80
1, 73680, Note_on_c, 0, 59, 80
1, 73680, Note_on_c, 0, 62, 0
1, 74135, Note_on_c, 0, 55, 0
1, 74135, Note_on_c, 0, 59, 0
1, 74160, Note_on_c, 0, 62, 80
1, 74160, Note_on_c, 0, 55, 80
1, 74160, Note_on_c, 0, 59, 80
1, 74387, Note_on_c, 0, 62, 0
1, 74615, Note_on_c, 0, 55, 0
1, 74615, Note_on_c, 0, 59, 0
1, 74640, Note_on_c, 0, 55, 80
1, 74640, Note_on_c, 0, 59, 80
1, 74640, Note_on_c, 0, 62, 80
1, 75095, Note_on_c, 0, 55, 0
1, 75095, Note_on_c, 0, 59, 0
1, 75095, Note_on_c, 0, 62, 0
1, 75120, Note_on_c, 0, 55, 80
1, 75120, Note_on_c, 0, 59, 80
1, 75120, Note_on_c, 0, 62, 80
1, 75575, Note_on_c, 0, 55, 0
1, 75575, Note_on_c, 0, 59, 0
1, 75575, Note_on_c, 0, 62, 0
1, 75600, Note_on_c, 0, 55, 80
1, 75600, Note_on_c, 0, 59, 80
1, 75600, Note_on_c, 0, 62, 80
1, 76055, Note_on_c, 0, 55, 0
1, 76055, Note_on_c, 0, 59, 0
1, 76055, Note_on_c, 0, 62, 0
1, 76080, Note_on_c, 0, 55, 80
1, 76080, Note_on_c, 0, 59, 80
1, 76080, Note_on_c, 0, 62, 80
1, 76535, Note_on_c, 0, 55, 0
1, 76535, Note_on_c, 0, 59, 0
1, 76535, Note_on_c, 0, 62, 0
1, 76560, Note_on_c, 0, 55, 80
1, 76560, Note_on_c, 0, 59, 80
1, 76560, Note_on_c, 0, 62, 80
1, 76787, Note_on_c, 0, 55, 0
1, 76787, Note_on_c, 0, 59, 0
1, 76787, Note_on_c, 0, 62, 0
1, 76800, Note_on_c, 0, 50, 80
1, 76800, Note_on_c, 0, 57, 80
1, 77027, Note_on_c, 0, 50, 0
1, 77027, Note_on_c, 0, 57, 0
1, 77040, Note_on_c, 0, 50, 80
1, 77040, Note_on_c, 0, 57, 80
1, 77495, Note_on_c, 0, 50, 0
1, 77495, Note_on_c, 0, 57, 0
1, 77520, Note_on_c, 0, 50, 80
1, 77520, Note_on_c, 0, 57, 80
1, 77975, Note_on_c, 0, 50, 0
1, 77975, Note_on_c, 0, 57, 0
1, 78000, Note_on_c, 0, 50, 80
1, 78000, Note_on_c, 0, 57, 80
1, 78227, Note_on_c, 0, 50, 0
1, 78227, Note_on_c, 0, 57, 0
1, 78240, Note_on_c, 0, 50, 80
1, 78240, Note_on_c, 0, 57, 80
1, 78467, Note_on_c, 0, 50, 0
1, 78467, Note_on_c, 0, 57, 0
1, 78480, Note_on_c, 0, 50, 80
1, 78480, Note_on_c, 0, 57, 80
1, 78707, Note_on_c, 0, 50, 0
1, 78707, Note_on_c, 0, 57, 0
1, 78720, Note_on_c, 0, 53, 80
1, 78720, Note_on_c, 0, 57, 80
1, 78720, Note_on_c, 0, 60, 80
1, 78947, Note_on_c, 0, 53, 0
1, 78947, Note_on_c, 0, 57, 0
1, 78947, Note_on_c, 0, 60, 0
1, 78960, Note_on_c, 0, 53, 80
1, 78960, Note_on_c, 0, 57, 80
1, 78960, Note_on_c, 0, 60, 80
1, 79415, Note_on_c, 0, 53, 0
1, 79415, Note_on_c, 0, 57, 0
1, 79415, Note_on_c, 0, 60, 0
1, 79440, Note_on_c, 0, 53, 80
1, 79440, Note_on_c, 0, 57, 80
1, 79440, Note_on_c, 0, 60, 80
1, 79895, Note_on_c, 0, 53, 0
1, 79895, Note_on_c, 0, 57, 0
1, 79895, Note_on_c, 0, 60, 0
1, 79920, Note_on_c, 0, 53, 80
1, 79920, Note_on_c, 0, 57, 80
1, 79920, Note_on_c, 0, 60, 80
1, 80375, Note_on_c, 0, 53, 0
1, 80375, Note_on_c, 0, 57, 0
1, 80375, Note_on_c, 0, 60, 0
1, 80400, Note_on_c, 0, 53, 80
1, 80400, Note_on_c, 0, 57, 80
1, 80400, Note_on_c, 0, 60, 80
1, 80627, Note_on_c, 0, 53, 0
1, 80627, Note_on_c, 0, 57, 0
1, 80627, Note_on_c, 0, 60, 0
1, 80640, Note_on_c, 0, 55, 80
1, 80640, Note_on_c, 0, 59, 80
1, 80867, Note_on_c, 0, 55, 0
1, 80867, Note_on_c, 0, 59, 0
1, 80880, Note_on_c, 0, 55, 80
1, 80880, Note_on_c, 0, 59, 80
1, 80880, Note_on_c, 0, 62, 80
1, 81335, Note_on_c, 0, 55, 0
1, 81335, Note_on_c, 0, 59, 0
1, 81335, Note_on_c, 0, 62, 0
1, 81360, Note_on_c, 0, 55, 80
1, 81360, Note_on_c, 0, 59, 80
1, 81360, Note_on_c, 0, 62, 80
1, 81815, Note_on_c, 0, 55, 0
1, 81815, Note_on_c, 0, 59, 0
1, 81815, Note_on_c, 0, 62, 0
1, 81840, Note_on_c, 0, 55, 80
1, 81840, Note_on_c, 0, 59, 80
1, 81840, Note_on_c, 0, 62, 80
1, 82295, Note_on_c, 0, 55, 0
1, 82295, Note_on_c, 0, 59, 0
1, 82295, Note_on_c, 0, 62, 0
1, 82320, Note_on_c, 0, 55, 80
1, 82320, Note_on_c, 0, 59, 80
1, 82320, Note_on_c, 0, 62, 80
1, 82775, Note_on_c, 0, 55, 0
1, 82775, Note_on_c, 0, 59, 0
1, 82775, Note_on_c, 0, 62, 0
1, 82800, Note_on_c, 0, 55, 80
1, 82800, Note_on_c, 0, 59, 80
1, 82800, Note_on_c, 0, 62, 80
1, 83255, Note_on_c, 0, 55, 0
1, 83255, Note_on_c, 0, 59, 0
1, 83255, Note_on_c, 0, 62, 0
1, 83280, Note_on_c, 0, 55, 80
1, 83280, Note_on_c, 0, 59, 80
1, 83280, Note_on_c, 0, 62, 80
1, 83735, Note_on_c, 0, 55, 0
1, 83735, Note_on_c, 0, 59, 0
1, 83735, Note_on_c, 0, 62, 0
1, 83760, Note_on_c, 0, 55, 80
1, 83760, Note_on_c, 0, 59, 80
1, 83760, Note_on_c, 0, 62, 80
1, 84215, Note_on_c, 0, 55, 0
1, 84215, Note_on_c, 0, 59, 0
1, 84215, Note_on_c, 0, 62, 0
1, 84240, Note_on_c, 0, 55, 80
1, 84240, Note_on_c, 0, 59, 80
1, 84240, Note_on_c, 0, 62, 80
1, 84467, Note_on_c, 0, 55, 0
1, 84467, Note_on_c, 0, 59, 0
1, 84467, Note_on_c, 0, 62, 0
1, 84480, Note_on_c, 0, 50, 80
1, 84480, Note_on_c, 0, 57, 80
1, 84707, Note_on_c, 0, 50, 0
1, 84707, Note_on_c, 0, 57, 0
1, 84720, Note_on_c, 0, 50, 80
1, 84720, Note_on_c, 0, 57, 80
1, 85175, Note_on_c, 0, 50, 0
1, 85175, Note_on_c, 0, 57, 0
1, 85200, Note_on_c, 0, 50, 80
1, 85200, Note_on_c, 0, 57, 80
1, 85655, Note_on_c, 0, 50, 0
1, 85655, Note_on_c, 0, 57, 0
1, 85680, Note_on_c, 0, 50, 80
1, 85680, Note_on_c, 0, 57, 80
1, 85907, Note_on_c, 0, 50, 0
1, 85907, Note_on_c, 0, 57, 0
1, 85920, Note_on_c, 0, 50, 80
1, 85920, Note_on_c, 0, 57, 80
1, 86147, Note_on_c, 0, 50, 0
1, 86147, Note_on_c, 0, 57, 0
1, 86160, Note_on_c, 0, 50, 80
1, 86160, Note_on_c, 0, 57, 80
1, 86387, Note_on_c, 0, 50, 0
1, 86387, Note_on_c, 0, 57, 0
1, 86640, Note_on_c, 0, 53, 80
1, 86640, Note_on_c, 0, 57, 80
1, 86640, Note_on_c, 0, 60, 80
1, 87095, Note_on_c, 0, 53, 0
1, 87095, Note_on_c, 0, 57, 0
1, 87095, Note_on_c, 0, 60, 0
1, 87120, Note_on_c, 0, 53, 80
1, 87120, Note_on_c, 0, 57, 80
1, 87120, Note_on_c, 0, 60, 80
1, 87575, Note_on_c, 0, 53, 0
1, 87575, Note_on_c, 0, 57, 0
1, 87575, Note_on_c, 0, 60, 0
1, 87600, Note_on_c, 0, 53, 80
1, 87600, Note_on_c, 0, 57, 80
1, 87600, Note_on_c, 0, 60, 80
1, 88055, Note_on_c, 0, 53, 0
1, 88055, Note_on_c, 0, 57, 0
1, 88055, Note_on_c, 0, 60, 0
1, 88080, Note_on_c, 0, 53, 80
1, 88080, Note_on_c, 0, 57, 80
1, 88080, Note_on_c, 0, 60, 80
1, 88307, Note_on_c, 0, 53, 0
1, 88307, Note_on_c, 0, 57, 0
1, 88307, Note_on_c, 0, 60, 0
1, 88320, Note_on_c, 0, 55, 80
1, 88320, Note_on_c, 0, 59, 80
1, 88320, Note_on_c, 0, 62, 80
1, 88547, Note_on_c, 0, 55, 0
1, 88547, Note_on_c, 0, 59, 0
1, 88547, Note_on_c, 0, 62, 0
1, 88560, Note_on_c, 0, 55, 80
1, 88560, Note_on_c, 0, 59, 80
1, 88560, Note_on_c, 0, 62, 80
1, 89015, Note_on_c, 0, 55, 0
1, 89015, Note_on_c, 0, 59, 0
1, 89015, Note_on_c, 0, 62, 0
1, 89040, Note_on_c, 0, 55, 80
1, 89040, Note_on_c, 0, 59, 80
1, 89040, Note_on_c, 0, 62, 80
1, 89495, Note_on_c, 0, 55, 0
1, 89495, Note_on_c, 0, 59, 0
1, 89495, Note_on_c, 0, 62, 0
1, 89520, Note_on_c, 0, 55, 80
1, 89520, Note_on_c, 0, 59, 80
1, 89520, Note_on_c, 0, 62, 80
1, 89975, Note_on_c, 0, 55, 0
1, 89975, Note_on_c, 0, 59, 0
1, 89975, Note_on_c, 0, 62, 0
1, 90000, Note_on_c, 0, 55, 80
1, 90000, Note_on_c, 0, 59, 80
1, 90000, Note_on_c, 0, 62, 80
1, 90455, Note_on_c, 0, 55, 0
1, 90455, Note_on_c, 0, 59, 0
1, 90455, Note_on_c, 0, 62, 0
1, 90480, Note_on_c, 0, 55, 80
1, 90480, Note_on_c, 0, 59, 80
1, 90480, Note_on_c, 0, 62, 80
1, 90935, Note_on_c, 0, 55, 0
1, 90935, Note_on_c, 0, 59, 0
1, 90935, Note_on_c, 0, 62, 0
1, 90960, Note_on_c, 0, 55, 80
1, 90960, Note_on_c, 0, 59, 80
1, 90960, Note_on_c, 0, 62, 80
1, 91415, Note_on_c, 0, 55, 0
1, 91415, Note_on_c, 0, 59, 0
1, 91415, Note_on_c, 0, 62, 0
1, 91440, Note_on_c, 0, 55, 80
1, 91440, Note_on_c, 0, 59, 80
1, 91440, Note_on_c, 0, 62, 80
1, 91895, Note_on_c, 0, 55, 0
1, 91895, Note_on_c, 0, 59, 0
1, 91895, Note_on_c, 0, 62, 0
1, 91920, Note_on_c, 0, 55, 80
1, 91920, Note_on_c, 0, 59, 80
1, 91920, Note_on_c, 0, 62, 80
1, 92147, Note_on_c, 0, 55, 0
1, 92147, Note_on_c, 0, 59, 0
1, 92147, Note_on_c, 0, 62, 0
1, 92160, Note_on_c, 0, 50, 80
1, 92160, Note_on_c, 0, 57, 80
1, 92387, Note_on_c, 0, 50, 0
1, 92387, Note_on_c, 0, 57, 0
1, 92400, Note_on_c, 0, 50, 80
1, 92400, Note_on_c, 0, 57, 80
1, 92855, Note_on_c, 0, 50, 0
1, 92855, Note_on_c, 0, 57, 0
1, 92880, Note_on_c, 0, 50, 80
1, 92880, Note_on_c, 0, 57, 80
1, 93335, Note_on_c, 0, 50, 0
1, 93335, Note_on_c, 0, 57, 0
1, 93360, Note_on_c, 0, 50, 80
1, 93360, Note_on_c, 0, 57, 80
1, 93587, Note_on_c, 0, 50, 0
1, 93587, Note_on_c, 0, 57, 0
1, 93600, Note_on_c, 0, 50, 80
1, 93600, Note_on_c, 0, 57, 80
1, 93827, Note_on_c, 0, 50, 0
1, 93827, Note_on_c, 0, 57, 0
1, 93840, Note_on_c, 0, 50, 80
1, 93840, Note_on_c, 0, 57, 80
1, 94067, Note_on_c, 0, 50, 0
1, 94067, Note_on_c, 0, 57, 0
1, 94080, Note_on_c, 0, 53, 80
1, 94080, Note_on_c, 0, 57, 80
1, 94080, Note_on_c, 0, 60, 80
1, 94307, Note_on_c, 0, 53, 0
1, 94307, Note_on_c, 0, 57, 0
1, 94307, Note_on_c, 0, 60, 0
1, 94320, Note_on_c, 0, 53, 80
1, 94320, Note_on_c, 0, 57, 80
1, 94320, Note_on_c, 0, 60, 80
1, 94775, Note_on_c, 0, 53, 0
1, 94775, Note_on_c, 0, 57, 0
1, 94775, Note_on_c, 0, 60, 0
1, 94800, Note_on_c, 0, 53, 80
1, 94800, Note_on_c, 0, 57, 80
1, 94800, Note_on_c, 0, 60, 80
1, 95255, Note_on_c, 0, 53, 0
1, 95255, Note_on_c, 0, 57, 0
1, 95255, Note_on_c, 0, 60, 0
1, 95280, Note_on_c, 0, 53, 80
1, 95280, Note_on_c, 0, 57, 80
1, 95280, Note_on_c, 0, 60, 80
1, 95735, Note_on_c, 0, 53, 0
1, 95735, Note_on_c, 0, 57, 0
1, 95735, Note_on_c, 0, 60, 0
1, 95760, Note_on_c, 0, 53, 80
1, 95760, Note_on_c, 0, 57, 80
1, 95760, Note_on_c, 0, 60, 80
1, 95987, Note_on_c, 0, 53, 0
1, 95987, Note_on_c, 0, 57, 0
1, 95987, Note_on_c, 0, 60, 0
1, 96000, Note_on_c, 0, 55, 80
1, 96000, Note_on_c, 0, 59, 80
1, 96227, Note_on_c, 0, 55, 0
1, 96227, Note_on_c, 0, 59, 0
1, 96240, Note_on_c, 0, 55, 80
1, 96240, Note_on_c, 0, 59, 80
1, 96240, Note_on_c, 0, 62, 80
1, 96695, Note_on_c, 0, 55, 0
1, 96695, Note_on_c, 0, 59, 0
1, 96695, Note_on_c, 0, 62, 0
1, 96720, Note_on_c, 0, 55, 80
1, 96720, Note_on_c, 0, 59, 80
1, 96720, Note_on_c, 0, 62, 80
1, 97175, Note_on_c, 0, 55, 0
1, 97175, Note_on_c, 0, 59, 0
1, 97175, Note_on_c, 0, 62, 0
1, 97200, Note_on_c, 0, 55, 80
1, 97200, Note_on_c, 0, 59, 80
1, 97200, Note_on_c, 0, 62, 80
1, 97655, Note_on_c, 0, 55, 0
1, 97655, Note_on_c, 0, 59, 0
1, 97655, Note_on_c, 0, 62, 0
1, 97680, Note_on_c, 0, 55, 80
1, 97680, Note_on_c, 0, 59, 80
1, 97680, Note_on_c, 0, 62, 80
1, 98135, Note_on_c, 0, 55, 0
1, 98135, Note_on_c, 0, 59, 0
1, 98135, Note_on_c, 0, 62, 0
1, 98160, Note_on_c, 0, 55, 80
1, 98160, Note_on_c, 0, 59, 80
1, 98160, Note_on_c, 0, 62, 80
1, 98615, Note_on_c, 0, 55, 0
1, 98615, Note_on_c, 0, 59, 0
1, 98615, Note_on_c, 0, 62, 0
1, 98640, Note_on_c, 0, 55, 80
1, 98640, Note_on_c, 0, 59, 80
1, 98640, Note_on_c, 0, 62, 80
1, 99095, Note_on_c, 0, 55, 0
1, 99095, Note_on_c, 0, 59, 0
1, 99095, Note_on_c, 0, 62, 0
1, 99120, Note_on_c, 0, 55, 80
1, 99120, Note_on_c, 0, 59, 80
1, 99120, Note_on_c, 0, 62, 80
1, 99575, Note_on_c, 0, 55, 0
1, 99575, Note_on_c, 0, 59, 0
1, 99575, Note_on_c, 0, 62, 0
1, 99600, Note_on_c, 0, 55, 80
1, 99600, Note_on_c, 0, 59, 80
1, 99600, Note_on_c, 0, 62, 80
1, 99827, Note_on_c, 0, 55, 0
1, 99827, Note_on_c, 0, 59, 0
1, 99827, Note_on_c, 0, 62, 0
1, 99840, Note_on_c, 0, 50, 80
1, 99840, Note_on_c, 0, 57, 80
1, 100067, Note_on_c, 0, 50, 0
1, 100067, Note_on_c, 0, 57, 0
1, 100080, Note_on_c, 0, 50, 80
1, 100080, Note_on_c, 0, 57, 80
1, 100535, Note_on_c, 0, 50, 0
1, 100535, Note_on_c, 0, 57, 0
1, 100560, Note_on_c, 0, 50, 80
1, 100560, Note_on_c, 0, 57, 80
1, 101015, Note_on_c, 0, 50, 0
1, 101015, Note_on_c, 0, 57, 0
1, 101040, Note_on_c, 0, 50, 80
1, 101040, Note_on_c, 0, 57, 80
1, 101267, Note_on_c, 0, 50, 0
1, 101267, Note_on_c, 0, 57, 0
1, 101280, Note_on_c, 0, 50, 80
1, 101280, Note_on_c, 0, 57, 80
1, 101507, Note_on_c, 0, 50, 0
1, 101507, Note_on_c, 0, 57, 0
1, 101520, Note_on_c, 0, 50, 80
1, 101520, Note_on_c, 0, 57, 80
1, 101747, Note_on_c, 0, 50, 0
1, 101747, Note_on_c, 0, 57, 0
1, 102000, Note_on_c, 0, 53, 80
1, 102000, Note_on_c, 0, 57, 80
1, 102000, Note_on_c, 0, 60, 80
1, 102455, Note_on_c, 0, 53, 0
1, 102455, Note_on_c, 0, 57, 0
1, 102455, Note_on_c, 0, 60, 0
1, 102480, Note_on_c, 0, 53, 80
1, 102480, Note_on_c, 0, 57, 80
1, 102480, Note_on_c, 0, 60, 80
1, 102935, Note_on_c, 0, 53, 0
1, 102935, Note_on_c, 0, 57, 0
1, 102935, Note_on_c, 0, 60, 0
1, 102960, Note_on_c, 0, 53, 80
1, 102960, Note_on_c, 0, 57, 80
1, 102960, Note_on_c, 0, 60, 80
1, 103415, Note_on_c, 0, 53, 0
1, 103415, Note_on_c, 0, 57, 0
1, 103415, Note_on_c, 0, 60, 0
1, 103440, Note_on_c, 0, 53, 80
1, 103440, Note_on_c, 0, 57, 80
1, 103440, Note_on_c, 0, 60, 80
1, 103667, Note_on_c, 0, 53, 0
1, 103667, Note_on_c, 0, 57, 0
1, 103667, Note_on_c, 0, 60, 0
1, 103680, Note_on_c, 0, 55, 80
1, 103680, Note_on_c, 0, 59, 80
1, 103680, Note_on_c, 0, 62, 80
1, 103907, Note_on_c, 0, 55, 0
1, 103907, Note_on_c, 0, 59, 0
1, 103907, Note_on_c, 0, 62, 0
1, 103920, Note_on_c, 0, 55, 80
1, 103920, Note_on_c, 0, 59, 80
1, 103920, Note_on_c, 0, 62, 80
1, 104375, Note_on_c, 0, 55, 0
1, 104375, Note_on_c, 0, 59, 0
1, 104375, Note_on_c, 0, 62, 0
1, 104400, Note_on_c, 0, 55, 80
1, 104400, Note_on_c, 0, 59, 80
1, 104400, Note_on_c, 0, 62, 80
1, 104855, Note_on_c, 0, 55, 0
1, 104855, Note_on_c, 0, 59, 0
1, 104855, Note_on_c, 0, 62, 0
1, 104880, Note_on_c, 0, 55, 80
1, 104880, Note_on_c, 0, 59, 80
1, 104880, Note_on_c, 0, 62, 80
1, 105335, Note_on_c, 0, 55, 0
1, 105335, Note_on_c, 0, 59, 0
1, 105335, Note_on_c, 0, 62, 0
1, 105360, Note_on_c, 0, 55, 80
1, 105360, Note_on_c, 0, 59, 80
1, 105360, Note_on_c, 0, 62, 80
1, 105815, Note_on_c, 0, 55, 0
1, 105815, Note_on_c, 0, 59, 0
1, 105815, Note_on_c, 0, 62, 0
1, 105840, Note_on_c, 0, 55, 80
1, 105840, Note_on_c, 0, 59, 80
1, 105840, Note_on_c, 0, 62, 80
1, 106295, Note_on_c, 0, 55, 0
1, 106295, Note_on_c, 0, 59, 0
1, 106295, Note_on_c, 0, 62, 0
1, 106320, Note_on_c, 0, 55, 80
1, 106320, Note_on_c, 0, 59, 80
1, 106320, Note_on_c, 0, 62, 80
1, 106775, Note_on_c, 0, 55, 0
1, 106775, Note_on_c, 0, 59, 0
1, 106775, Note_on_c, 0, 62, 0
1, 106800, Note_on_c, 0, 55, 80
1, 106800, Note_on_c, 0, 59, 80
1, 106800, Note_on_c, 0, 62, 80
1, 107255, Note_on_c, 0, 55, 0
1, 107255, Note_on_c, 0, 59, 0
1, 107255, Note_on_c, 0, 62, 0
1, 107280, Note_on_c, 0, 55, 80
1, 107280, Note_on_c, 0, 59, 80
1, 107280, Note_on_c, 0, 62, 80
1, 107507, Note_on_c, 0, 55, 0
1, 107507, Note_on_c, 0, 59, 0
1, 107507, Note_on_c, 0, 62, 0
1, 107520, Note_on_c, 0, 50, 80
1, 107520, Note_on_c, 0, 57, 80
1, 107747, Note_on_c, 0, 50, 0
1, 107747, Note_on_c, 0, 57, 0
1, 107760, Note_on_c, 0, 50, 80
1, 107760, Note_on_c, 0, 57, 80
1, 108215, Note_on_c, 0, 50, 0
1, 108215, Note_on_c, 0, 57, 0
1, 108240, Note_on_c, 0, 50, 80
1, 108240, Note_on_c, 0, 57, 80
1, 108695, Note_on_c, 0, 50, 0
1, 108695, Note_on_c, 0, 57, 0
1, 108720, Note_on_c, 0, 50, 80
1, 108720, Note_on_c, 0, 57, 80
1, 108947, Note_on_c, 0, 50, 0
1, 108947, Note_on_c, 0, 57, 0
1, 108960, Note_on_c, 0, 50, 80
1, 108960, Note_on_c, 0, 57, 80
1, 109187, Note_on_c, 0, 50, 0
1, 109187, Note_on_c, 0, 57, 0
1, 109200, Note_on_c, 0, 50, 80
1, 109200, Note_on_c, 0, 57, 80
1, 109427, Note_on_c, 0, 50, 0
1, 109427, Note_on_c, 0, 57, 0
1, 109440, Note_on_c, 0, 53, 80
1, 109440, Note_on_c, 0, 57, 80
1, 109440, Note_on_c, 0, 60, 80
1, 109667, Note_on_c, 0, 53, 0
1, 109667, Note_on_c, 0, 57, 0
1, 109667, Note_on_c, 0, 60, 0
1, 109680, Note_on_c, 0, 53, 80
1, 109680, Note_on_c, 0, 57, 80
1, 109680, Note_on_c, 0, 60, 80
1, 110135, Note_on_c, 0, 53, 0
1, 110135, Note_on_c, 0, 57, 0
1, 110135, Note_on_c, 0, 60, 0
1, 110160, Note_on_c, 0, 53, 80
1, 110160, Note_on_c, 0, 57, 80
1, 110160, Note_on_c, 0, 60, 80
1, 110615, Note_on_c, 0, 53, 0
1, 110615, Note_on_c, 0, 57, 0
1, 110615, Note_on_c, 0, 60, 0
1, 110640, Note_on_c, 0, 53, 80
1, 110640, Note_on_c, 0, 57, 80
1, 110640, Note_on_c, 0, 60, 80
1, 111095, Note_on_c, 0, 53, 0
1, 111095, Note_on_c, 0, 57, 0
1, 111095, Note_on_c, 0, 60, 0
1, 111120, Note_on_c, 0, 53, 80
1, 111120, Note_on_c, 0, 57, 80
1, 111120, Note_on_c, 0, 60, 80
1, 111347, Note_on_c, 0, 53, 0
1, 111347, Note_on_c, 0, 57, 0
1, 111347, Note_on_c, 0, 60, 0
1, 111360, Note_on_c, 0, 55, 80
1, 111360, Note_on_c, 0, 59, 80
1, 111587, Note_on_c, 0, 55, 0
1, 111587, Note_on_c, 0, 59, 0
1, 111600, Note_on_c, 0, 55, 80
1, 111600, Note_on_c, 0, 59, 80
1, 111600, Note_on_c, 0, 62, 80
1, 112055, Note_on_c, 0, 55, 0
1, 112055, Note_on_c, 0, 59, 0
1, 112055, Note_on_c, 0, 62, 0
1, 112080, Note_on_c, 0, 55, 80
1, 112080, Note_on_c, 0, 59, 80
1, 112080, Note_on_c, 0, 62, 80
1, 112535, Note_on_c, 0, 55, 0
1, 112535, Note_on_c, 0, 59, 0
1, 112535, Note_on_c, 0, 62, 0
1, 112560, Note_on_c, 0, 55, 80
1, 112560, Note_on_c, 0, 59, 80
1, 112560, Note_on_c, 0, 62, 80
1, 113015, Note_on_c, 0, 55, 0
1, 113015, Note_on_c, 0, 59, 0
1, 113015, Note_on_c, 0, 62, 0
1, 113040, Note_on_c, 0, 55, 80
1, 113040, Note_on_c, 0, 59, 80
1, 113040, Note_on_c, 0, 62, 80
1, 113495, Note_on_c, 0, 55, 0
1, 113495, Note_on_c, 0, 59, 0
1, 113495, Note_on_c, 0, 62, 0
1, 113520, Note_on_c, 0, 55, 80
1, 113520, Note_on_c, 0, 59, 80
1, 113520, Note_on_c, 0, 62, 80
1, 113975, Note_on_c, 0, 55, 0
1, 113975, Note_on_c, 0, 59, 0
1, 113975, Note_on_c, 0, 62, 0
1, 114000, Note_on_c, 0, 55, 80
1, 114000, Note_on_c, 0, 59, 80
1, 114000, Note_on_c, 0, 62, 80
1, 114455, Note_on_c, 0, 55, 0
1, 114455, Note_on_c, 0, 59, 0
1, 114455, Note_on_c, 0, 62, 0
1, 114480, Note_on_c, 0, 62, 80
1, 114480, Note_on_c, 0, 55, 80
1, 114480, Note_on_c, 0, 59, 80
1, 114707, Note_on_c, 0, 62, 0
1, 114935, Note_on_c, 0, 55, 0
1, 114935, Note_on_c, 0, 59, 0
1, 114960, Note_on_c, 0, 55, 80
1, 114960, Note_on_c, 0, 59, 80
1, 114960, Note_on_c, 0, 62, 80
1, 115079, Note_on_c, 0, 55, 0
1, 115079, Note_on_c, 0, 59, 0
1, 115079, Note_on_c, 0, 62, 0
1, 115200, Note_on_c, 0, 50, 80
1, 115200, Note_on_c, 0, 57, 80
1, 115655, Note_on_c, 0, 50, 0
1, 115655, Note_on_c, 0, 57, 0
1, 115680, Note_on_c, 0, 50, 80
1, 115680, Note_on_c, 0, 57, 80
1, 116135, Note_on_c, 0, 50, 0
1, 116135, Note_on_c, 0, 57, 0
1, 117120, Note_on_c, 0, 48, 80
1, 117120, Note_on_c, 0, 53, 80
1, 117575, Note_on_c, 0, 48, 0
1, 117575, Note_on_c, 0, 53, 0
1, 117600, Note_on_c, 0, 48, 80
1, 117600, Note_on_c, 0, 53, 80
1, 118055, Note_on_c, 0, 48, 0
1, 118055, Note_on_c, 0, 53, 0
1, 119040, Note_on_c, 0, 50, 80
1, 119040, Note_on_c, 0, 55, 80
1, 119495, Note_on_c, 0, 50, 0
1, 119495, Note_on_c, 0, 55, 0
1, 119520, Note_on_c, 0, 50, 80
1, 119520, Note_on_c, 0, 55, 80
1, 119975, Note_on_c, 0, 50, 0
1, 119975, Note_on_c, 0, 55, 0
1, 120960, Note_on_c, 0, 50, 80
1, 120960, Note_on_c, 0, 55, 80
1, 121415, Note_on_c, 0, 50, 0
1, 121415, Note_on_c, 0, 55, 0
1, 121440, Note_on_c, 0, 50, 80
1, 121440, Note_on_c, 0, 55, 80
1, 121895, Note_on_c, 0, 50, 0
1, 121895, Note_on_c, 0, 55, 0
1, 121920, Note_on_c, 0, 50, 80
1, 121920, Note_on_c, 0, 55, 80
1, 122375, Note_on_c, 0, 50, 0
1, 122375, Note_on_c, 0, 55, 0
1, 122400, Note_on_c, 0, 50, 80
1, 122400, Note_on_c, 0, 55, 80
1, 122855, Note_on_c, 0, 50, 0
1, 122855, Note_on_c, 0, 55, 0
1, 122880, Note_on_c, 0, 57, 80
1, 122880, Note_on_c, 0, 62, 80
1, 123335, Note_on_c, 0, 57, 0
1, 123335, Note_on_c, 0, 62, 0
1, 123360, Note_on_c, 0, 57, 80
1, 123360, Note_on_c, 0, 62, 80
1, 123815, Note_on_c, 0, 57, 0
1, 123815, Note_on_c, 0, 62, 0
1, 124800, Note_on_c, 0, 53, 80
1, 124800, Note_on_c, 0, 60, 80
1, 125255, Note_on_c, 0, 53, 0
1, 125255, Note_on_c, 0, 60, 0
1, 125280, Note_on_c, 0, 53, 80
1, 125280, Note_on_c, 0, 60, 80
1, 125735, Note_on_c, 0, 53, 0
1, 125735, Note_on_c, 0, 60, 0
1, 126720, Note_on_c, 0, 59, 80
1, 126720, Note_on_c, 0, 62, 80
1, 126720, Note_on_c, 0, 67, 80
1, 126959, Note_on_c, 0, 59, 0
1, 126959, Note_on_c, 0, 62, 0
1, 126959, Note_on_c, 0, 67, 0
1, 127200, Note_on_c, 0, 59, 80
1, 127200, Note_on_c, 0, 62, 80
1, 127200, Note_on_c, 0, 67, 80
1, 127439, Note_on_c, 0, 59, 0
1, 127439, Note_on_c, 0, 62, 0
1, 127439, Note_on_c, 0, 67, 0
1, 128640, Note_on_c, 0, 55, 80
1, 128640, Note_on_c, 0, 59, 80
1, 128640, Note_on_c, 0, 62, 80
1, 129095, Note_on_c, 0, 55, 0
1, 129095, Note_on_c, 0, 59, 0
1, 129095, Note_on_c, 0, 62, 0
1, 129120, Note_on_c, 0, 55, 80
1, 129120, Note_on_c, 0, 59, 80
1, 129120, Note_on_c, 0, 62, 80
1, 129575, Note_on_c, 0, 55, 0
1, 129575, Note_on_c, 0, 59, 0
1, 129575, Note_on_c, 0, 62, 0
1, 129600, Note_on_c, 0, 55, 80
1, 129600, Note_on_c, 0, 59, 80
1, 129600, Note_on_c, 0, 62, 80
1, 130055, Note_on_c, 0, 55, 0
1, 130055, Note_on_c, 0, 59, 0
1, 130055, Note_on_c, 0, 62, 0
1, 130080, Note_on_c, 0, 55, 80
1, 130080, Note_on_c, 0, 59, 80
1, 130080, Note_on_c, 0, 62, 80
1, 130535, Note_on_c, 0, 55, 0
1, 130535, Note_on_c, 0, 59, 0
1, 130535, Note_on_c, 0, 62, 0
1, 130560, Note_on_c, 0, 57, 96
1, 130560, Note_on_c, 0, 62, 96
1, 131015, Note_on_c, 0, 57, 0
1, 131015, Note_on_c, 0, 62, 0
1, 131040, Note_on_c, 0, 57, 96
1, 131040, Note_on_c, 0, 62, 96
1, 131495, Note_on_c, 0, 57, 0
1, 131495, Note_on_c, 0, 62, 0
1, 131520, Note_on_c, 0, 69, 96
1, 131639, Note_on_c, 0, 69, 0
1, 131820, Note_on_c, 0, 69, 96
1, 131909, Note_on_c, 0, 69, 0
1, 132090, Note_on_c, 0, 69, 96
1, 132174, Note_on_c, 0, 69, 0
1, 132390, Note_on_c, 0, 69, 96
1, 132474, Note_on_c, 0, 69, 0
1, 132480, Note_on_c, 0, 53, 96
1, 132480, Note_on_c, 0, 60, 96
1, 132935, Note_on_c, 0, 53, 0
1, 132935, Note_on_c, 0, 60, 0
1, 132960, Note_on_c, 0, 53, 96
1, 132960, Note_on_c, 0, 60, 96
1, 133415, Note_on_c, 0, 53, 0
1, 133415, Note_on_c, 0, 60, 0
1, 133440, Note_on_c, 0, 69, 96
1, 133559, Note_on_c, 0, 69, 0
1, 133740, Note_on_c, 0, 69, 96
1, 133829, Note_on_c, 0, 69, 0
1, 134010, Note_on_c, 0, 69, 96
1, 134094, Note_on_c, 0, 69, 0
1, 134310, Note_on_c, 0, 69, 96
1, 134394, Note_on_c, 0, 69, 0
1, 134400, Note_on_c, 0, 59, 96
1, 134400, Note_on_c, 0, 62, 96
1, 134400, Note_on_c, 0, 67, 96
1, 134855, Note_on_c, 0, 59, 0
1, 134855, Note_on_c, 0, 62, 0
1, 134855, Note_on_c, 0, 67, 0
1, 134880, Note_on_c, 0, 59, 96
1, 134880, Note_on_c, 0, 62, 96
1, 134880, Note_on_c, 0, 67, 96
1, 135335, Note_on_c, 0, 59, 0
1, 135335, Note_on_c, 0, 62, 0
1, 135335, Note_on_c, 0, 67, 0
1, 135360, Note_on_c, 0, 69, 96
1, 135479, Note_on_c, 0, 69, 0
1, 135660, Note_on_c, 0, 69, 96
1, 135749, Note_on_c, 0, 69, 0
1, 135930, Note_on_c, 0, 69, 96
1, 136014, Note_on_c, 0, 69, 0
1, 136230, Note_on_c, 0, 69, 96
1, 136314, Note_on_c, 0, 69, 0
1, 136320, Note_on_c, 0, 55, 96
1, 136320, Note_on_c, 0, 59, 96
1, 136320, Note_on_c, 0, 62, 96
1, 136775, Note_on_c, 0, 55, 0
1, 136775, Note_on_c, 0, 59, 0
1, 136775, Note_on_c, 0, 62, 0
1, 136800, Note_on_c, 0, 55, 96
1, 136800, Note_on_c, 0, 59, 96
1, 136800, Note_on_c, 0, 62, 96
1, 137255, Note_on_c, 0, 55, 0
1, 137255, Note_on_c, 0, 59, 0
1, 137255, Note_on_c, 0, 62, 0
1, 137280, Note_on_c, 0, 55, 96
1, 137280, Note_on_c, 0, 59, 96
1, 137280, Note_on_c, 0, 62, 96
1, 137735, Note_on_c, 0, 55, 0
1, 137735, Note_on_c, 0, 59, 0
1, 137735, Note_on_c, 0, 62, 0
1, 137760, Note_on_c, 0, 55, 96
1, 137760, Note_on_c, 0, 59, 96
1, 137760, Note_on_c, 0, 62, 96
1, 138215, Note_on_c, 0, 55, 0
1, 138215, Note_on_c, 0, 59, 0
1, 138215, Note_on_c, 0, 62, 0
1, 138240, Note_on_c, 0, 69, 96
1, 138240, Note_on_c, 0, 74, 96
1, 138695, Note_on_c, 0, 69, 0
1, 138695, Note_on_c, 0, 74, 0
1, 138720, Note_on_c, 0, 69, 96
1, 138720, Note_on_c, 0, 74, 96
1, 139175, Note_on_c, 0, 69, 0
1, 139175, Note_on_c, 0, 74, 0
1, 139440, Note_on_c, 0, 74, 96
1, 139667, Note_on_c, 0, 74, 0
1, 139680, Note_on_c, 0, 74, 96
1, 139907, Note_on_c, 0, 74, 0
1, 139920, Note_on_c, 0, 74, 96
1, 140147, Note_on_c, 0, 74, 0
1, 140160, Note_on_c, 0, 65, 96
1, 140160, Note_on_c, 0, 74, 96
1, 140387, Note_on_c, 0, 65, 0
1, 140387, Note_on_c, 0, 74, 0
1, 140400, Note_on_c, 0, 72, 96
1, 140627, Note_on_c, 0, 72, 0
1, 140640, Note_on_c, 0, 72, 96
1, 140867, Note_on_c, 0, 72, 0
1, 140880, Note_on_c, 0, 72, 96
1, 141107, Note_on_c, 0, 72, 0
1, 141120, Note_on_c, 0, 72, 96
1, 141347, Note_on_c, 0, 72, 0
1, 141360, Note_on_c, 0, 69, 96
1, 141587, Note_on_c, 0, 69, 0
1, 141600, Note_on_c, 0, 69, 96
1, 141827, Note_on_c, 0, 69, 0
1, 141840, Note_on_c, 0, 69, 96
1, 142067, Note_on_c, 0, 69, 0
1, 142080, Note_on_c, 0, 62, 96
1, 142080, Note_on_c, 0, 69, 96
1, 142535, Note_on_c, 0, 62, 0
1, 142535, Note_on_c, 0, 69, 0
1, 142560, Note_on_c, 0, 69, 96
1, 142787, Note_on_c, 0, 69, 0
1, 142800, Note_on_c, 0, 69, 96
1, 143255, Note_on_c, 0, 69, 0
1, 143280, Note_on_c, 0, 69, 96
1, 143507, Note_on_c, 0, 69, 0
1, 143520, Note_on_c, 0, 69, 96
1, 143747, Note_on_c, 0, 69, 0
1, 143760, Note_on_c, 0, 69, 96
1, 143987, Note_on_c, 0, 69, 0
1, 144000, Note_on_c, 0, 62, 96
1, 144000, Note_on_c, 0, 69, 96
1, 144227, Note_on_c, 0, 62, 0
1, 144227, Note_on_c, 0, 69, 0
1, 144240, Note_on_c, 0, 67, 96
1, 144467, Note_on_c, 0, 67, 0
1, 144480, Note_on_c, 0, 67, 96
1, 144707, Note_on_c, 0, 67, 0
1, 144720, Note_on_c, 0, 67, 96
1, 144947, Note_on_c, 0, 67, 0
1, 144960, Note_on_c, 0, 59, 96
1, 144960, Note_on_c, 0, 67, 96
1, 145187, Note_on_c, 0, 59, 0
1, 145187, Note_on_c, 0, 67, 0
1, 145200, Note_on_c, 0, 65, 96
1, 145427, Note_on_c, 0, 65, 0
1, 145440, Note_on_c, 0, 65, 96
1, 145667, Note_on_c, 0, 65, 0
1, 145680, Note_on_c, 0, 65, 96
1, 145907, Note_on_c, 0, 65, 0
1, 145920, Note_on_c, 0, 62, 96
1, 146603, Note_on_c, 0, 62, 0
1, 146640, Note_on_c, 0, 62, 96
1, 147095, Note_on_c, 0, 62, 0
1, 147120, Note_on_c, 0, 57, 96
1, 147347, Note_on_c, 0, 57, 0
1, 147360, Note_on_c, 0, 65, 96
1, 147473, Note_on_c, 0, 65, 0
1, 147480, Note_on_c, 0, 62, 96
1, 147593, Note_on_c, 0, 62, 0
1, 147600, Note_on_c, 0, 57, 96
1, 147713, Note_on_c, 0, 57, 0
1, 147720, Note_on_c, 0, 65, 96
1, 147833, Note_on_c, 0, 65, 0
1, 147840, Note_on_c, 0, 62, 96
1, 148523, Note_on_c, 0, 62, 0
1, 148560, Note_on_c, 0, 57, 96
1, 148560, Note_on_c, 0, 62, 96
1, 149015, Note_on_c, 0, 57, 0
1, 149015, Note_on_c, 0, 62, 0
1, 149040, Note_on_c, 0, 57, 96
1, 149267, Note_on_c, 0, 57, 0
1, 149280, Note_on_c, 0, 65, 96
1, 149393, Note_on_c, 0, 65, 0
1, 149400, Note_on_c, 0, 62, 96
1, 149513, Note_on_c, 0, 62, 0
1, 149520, Note_on_c, 0, 57, 96
1, 149633, Note_on_c, 0, 57, 0
1, 149640, Note_on_c, 0, 65, 96
1, 149753, Note_on_c, 0, 65, 0
1, 149760, Note_on_c, 0, 62, 96
1, 150215, Note_on_c, 0, 62, 0
1, 150240, Note_on_c, 0, 59, 96
1, 150467, Note_on_c, 0, 59, 0
1, 150480, Note_on_c, 0, 62, 96
1, 150707, Note_on_c, 0, 62, 0
1, 150720, Note_on_c, 0, 65, 96
1, 150947, Note_on_c, 0, 65, 0
1, 150960, Note_on_c, 0, 62, 96
1, 151187, Note_on_c, 0, 62, 0
1, 151200, Note_on_c, 0, 65, 96
1, 151427, Note_on_c, 0, 65, 0
1, 151440, Note_on_c, 0, 67, 96
1, 151667, Note_on_c, 0, 67, 0
1, 151680, Note_on_c, 0, 67, 96
1, 151907, Note_on_c, 0, 67, 0
1, 151920, Note_on_c, 0, 69, 96
1, 152147, Note_on_c, 0, 69, 0
1, 152160, Note_on_c, 0, 67, 96
1, 152273, Note_on_c, 0, 67, 0
1, 152280, Note_on_c, 0, 65, 96
1, 152393, Note_on_c, 0, 65, 0
1, 152400, Note_on_c, 0, 62, 96
1, 152627, Note_on_c, 0, 62, 0
1, 152640, Note_on_c, 0, 67, 96
1, 152867, Note_on_c, 0, 67, 0
1, 152880, Note_on_c, 0, 69, 96
1, 153107, Note_on_c, 0, 69, 0
1, 153120, Note_on_c, 0, 67, 96
1, 153575, Note_on_c, 0, 67, 0
1, 153600, Note_on_c, 0, 62, 96
1, 154055, Note_on_c, 0, 62, 0
1, 154080, Note_on_c, 0, 62, 96
1, 154307, Note_on_c, 0, 62, 0
1, 154320, Note_on_c, 0, 62, 96
1, 154547, Note_on_c, 0, 62, 0
1, 154560, Note_on_c, 0, 62, 96
1, 155015, Note_on_c, 0, 62, 0
1, 155040, Note_on_c, 0, 62, 96
1, 155267, Note_on_c, 0, 62, 0
1, 155280, Note_on_c, 0, 60, 96
1, 155280, Note_on_c, 0, 65, 96
1, 155735, Note_on_c, 0, 60, 0
1, 155735, Note_on_c, 0, 65, 0
1, 155760, Note_on_c, 0, 60, 96
1, 155760, Note_on_c, 0, 65, 96
1, 156215, Note_on_c, 0, 60, 0
1, 156215, Note_on_c, 0, 65, 0
1, 156240, Note_on_c, 0, 60, 96
1, 156240, Note_on_c, 0, 65, 96
1, 156467, Note_on_c, 0, 60, 0
1, 156467, Note_on_c, 0, 65, 0
1, 156480, Note_on_c, 0, 60, 96
1, 156480, Note_on_c, 0, 65, 96
1, 156707, Note_on_c, 0, 60, 0
1, 156707, Note_on_c, 0, 65, 0
1, 156720, Note_on_c, 0, 60, 96
1, 156720, Note_on_c, 0, 65, 96
1, 156947, Note_on_c, 0, 60, 0
1, 156947, Note_on_c, 0, 65, 0
1, 156960, Note_on_c, 0, 60, 96
1, 156960, Note_on_c, 0, 65, 96
1, 157187, Note_on_c, 0, 60, 0
1, 157187, Note_on_c, 0, 65, 0
1, 157200, Note_on_c, 0, 60, 96
1, 157200, Note_on_c, 0, 65, 96
1, 157427, Note_on_c, 0, 60, 0
1, 157427, Note_on_c, 0, 65, 0
1, 157440, Note_on_c, 0, 62, 96
1, 157440, Note_on_c, 0, 67, 96
1, 157895, Note_on_c, 0, 62, 0
1, 157895, Note_on_c, 0, 67, 0
1, 157920, Note_on_c, 0, 62, 96
1, 157920, Note_on_c, 0, 67, 96
1, 158147, Note_on_c, 0, 62, 0
1, 158147, Note_on_c, 0, 67, 0
1, 158160, Note_on_c, 0, 62, 96
1, 158160, Note_on_c, 0, 67, 96
1, 158387, Note_on_c, 0, 62, 0
1, 158387, Note_on_c, 0, 67, 0
1, 158400, Note_on_c, 0, 62, 96
1, 158400, Note_on_c, 0, 67, 96
1, 158855, Note_on_c, 0, 62, 0
1, 158855, Note_on_c, 0, 67, 0
1, 158880, Note_on_c, 0, 62, 96
1, 158880, Note_on_c, 0, 67, 96
1, 159107, Note_on_c, 0, 62, 0
1, 159107, Note_on_c, 0, 67, 0
1, 159120, Note_on_c, 0, 62, 96
1, 159120, Note_on_c, 0, 67, 96
1, 159575, Note_on_c, 0, 62, 0
1, 159575, Note_on_c, 0, 67, 0
1, 159600, Note_on_c, 0, 62, 96
1, 159600, Note_on_c, 0, 67, 96
1, 160055, Note_on_c, 0, 62, 0
1, 160055, Note_on_c, 0, 67, 0
1, 160080, Note_on_c, 0, 62, 96
1, 160080, Note_on_c, 0, 67, 96
1, 160307, Note_on_c, 0, 62, 0
1, 160307, Note_on_c, 0, 67, 0
1, 160320, Note_on_c, 0, 62, 96
1, 160320, Note_on_c, 0, 67, 96
1, 160547, Note_on_c, 0, 62, 0
1, 160547, Note_on_c, 0, 67, 0
1, 160560, Note_on_c, 0, 62, 96
1, 160560, Note_on_c, 0, 67, 96
1, 160787, Note_on_c, 0, 62, 0
1, 160787, Note_on_c, 0, 67, 0
1, 160800, Note_on_c, 0, 62, 96
1, 160800, Note_on_c, 0, 67, 96
1, 161027, Note_on_c, 0, 62, 0
1, 161027, Note_on_c, 0, 67, 0
1, 161040, Note_on_c, 0, 62, 96
1, 161040, Note_on_c, 0, 67, 96
1, 161267, Note_on_c, 0, 62, 0
1, 161267, Note_on_c, 0, 67, 0
1, 161280, Note_on_c, 0, 62, 96
1, 161735, Note_on_c, 0, 62, 0
1, 161760, Note_on_c, 0, 62, 96
1, 161987, Note_on_c, 0, 62, 0
1, 162000, Note_on_c, 0, 62, 96
1, 162227, Note_on_c, 0, 62, 0
1, 162240, Note_on_c, 0, 62, 96
1, 162695, Note_on_c, 0, 62, 0
1, 162720, Note_on_c, 0, 62, 96
1, 162947, Note_on_c, 0, 62, 0
1, 162960, Note_on_c, 0, 60, 96
1, 162960, Note_on_c, 0, 65, 96
1, 163415, Note_on_c, 0, 60, 0
1, 163415, Note_on_c, 0, 65, 0
1, 163440, Note_on_c, 0, 60, 96
1, 163440, Note_on_c, 0, 65, 96
1, 163895, Note_on_c, 0, 60, 0
1, 163895, Note_on_c, 0, 65, 0
1, 163920, Note_on_c, 0, 60, 96
1, 163920, Note_on_c, 0, 65, 96
1, 164147, Note_on_c, 0, 60, 0
1, 164147, Note_on_c, 0, 65, 0
1, 164160, Note_on_c, 0, 60, 96
1, 164160, Note_on_c, 0, 65, 96
1, 164387, Note_on_c, 0, 60, 0
1, 164387, Note_on_c, 0, 65, 0
1, 164400, Note_on_c, 0, 60, 96
1, 164400, Note_on_c, 0, 65, 96
1, 164627, Note_on_c, 0, 60, 0
1, 164627, Note_on_c, 0, 65, 0
1, 164640, Note_on_c, 0, 60, 96
1, 164640, Note_on_c, 0, 65, 96
1, 164867, Note_on_c, 0, 60, 0
1, 164867, Note_on_c, 0, 65, 0
1, 164880, Note_on_c, 0, 60, 96
1, 164880, Note_on_c, 0, 65, 96
1, 165107, Note_on_c, 0, 60, 0
1, 165107, Note_on_c, 0, 65, 0
1, 165120, Note_on_c, 0, 62, 96
1, 165120, Note_on_c, 0, 67, 96
1, 165575, Note_on_c, 0, 62, 0
1, 165575, Note_on_c, 0, 67, 0
1, 165600, Note_on_c, 0, 62, 96
1, 165600, Note_on_c, 0, 67, 96
1, 165827, Note_on_c, 0, 62, 0
1, 165827, Note_on_c, 0, 67, 0
1, 165840, Note_on_c, 0, 62, 96
1, 165840, Note_on_c, 0, 67, 96
1, 166067, Note_on_c, 0, 62, 0
1, 166067, Note_on_c, 0, 67, 0
1, 166080, Note_on_c, 0, 62, 96
1, 166080, Note_on_c, 0, 67, 96
1, 166535, Note_on_c, 0, 62, 0
1, 166535, Note_on_c, 0, 67, 0
1, 166560, Note_on_c, 0, 62, 96
1, 166560, Note_on_c, 0, 67, 96
1, 166787, Note_on_c, 0, 62, 0
1, 166787, Note_on_c, 0, 67, 0
1, 166800, Note_on_c, 0, 62, 96
1, 166800, Note_on_c, 0, 67, 96
1, 167255, Note_on_c, 0, 62, 0
1, 167255, Note_on_c, 0, 67, 0
1, 167280, Note_on_c, 0, 62, 96
1, 167280, Note_on_c, 0, 67, 96
1, 167735, Note_on_c, 0, 62, 0
1, 167735, Note_on_c, 0, 67, 0
1, 167760, Note_on_c, 0, 62, 96
1, 167760, Note_on_c, 0, 67, 96
1, 167987, Note_on_c, 0, 62, 0
1, 167987, Note_on_c, 0, 67, 0
1, 168000, Note_on_c, 0, 62, 96
1, 168000, Note_on_c, 0, 67, 96
1, 168227, Note_on_c, 0, 62, 0
1, 168227, Note_on_c, 0, 67, 0
1, 168240, Note_on_c, 0, 62, 96
1, 168240, Note_on_c, 0, 67, 96
1, 168467, Note_on_c, 0, 62, 0
1, 168467, Note_on_c, 0, 67, 0
1, 168480, Note_on_c, 0, 62, 96
1, 168480, Note_on_c, 0, 67, 96
1, 168707, Note_on_c, 0, 62, 0
1, 168707, Note_on_c, 0, 67, 0
1, 168720, Note_on_c, 0, 62, 96
1, 168720, Note_on_c, 0, 67, 96
1, 168947, Note_on_c, 0, 62, 0
1, 168947, Note_on_c, 0, 67, 0
1, 168960, Note_on_c, 0, 69, 96
1, 168960, Note_on_c, 0, 74, 96
1, 169415, Note_on_c, 0, 69, 0
1, 169415, Note_on_c, 0, 74, 0
1, 169440, Note_on_c, 0, 74, 96
1, 169553, Note_on_c, 0, 74, 0
1, 169560, Note_on_c, 0, 72, 96
1, 169673, Note_on_c, 0, 72, 0
1, 169680, Note_on_c, 0, 69, 96
1, 169793, Note_on_c, 0, 69, 0
1, 169800, Note_on_c, 0, 72, 96
1, 169913, Note_on_c, 0, 72, 0
1, 169920, Note_on_c, 0, 74, 96
1, 170033, Note_on_c, 0, 74, 0
1, 170040, Note_on_c, 0, 72, 96
1, 170153, Note_on_c, 0, 72, 0
1, 170160, Note_on_c, 0, 69, 96
1, 170273, Note_on_c, 0, 69, 0
1, 170280, Note_on_c, 0, 72, 96
1, 170393, Note_on_c, 0, 72, 0
1, 170400, Note_on_c, 0, 74, 96
1, 170639, Note_on_c, 0, 74, 0
1, 170880, Note_on_c, 0, 81, 96
1, 171335, Note_on_c, 0, 81, 0
1, 171360, Note_on_c, 0, 79, 96
1, 171473, Note_on_c, 0, 79, 0
1, 171480, Note_on_c, 0, 77, 96
1, 171593, Note_on_c, 0, 77, 0
1, 171600, Note_on_c, 0, 74, 96
1, 171713, Note_on_c, 0, 74, 0
1, 171720, Note_on_c, 0, 72, 96
1, 171833, Note_on_c, 0, 72, 0
1, 171840, Note_on_c, 0, 74, 96
1, 171953, Note_on_c, 0, 74, 0
1, 171960, Note_on_c, 0, 77, 96
1, 172073, Note_on_c, 0, 77, 0
1, 172080, Note_on_c, 0, 74, 96
1, 172193, Note_on_c, 0, 74, 0
1, 172200, Note_on_c, 0, 72, 96
1, 172313, Note_on_c, 0, 72, 0
1, 172320, Note_on_c, 0, 69, 96
1, 172433, Note_on_c, 0, 69, 0
1, 172440, Note_on_c, 0, 72, 96
1, 172553, Note_on_c, 0, 72, 0
1, 172560, Note_on_c, 0, 74, 96
1, 172673, Note_on_c, 0, 74, 0
1, 172680, Note_on_c, 0, 72, 96
1, 172793, Note_on_c, 0, 72, 0
1, 172800, Note_on_c, 0, 69, 96
1, 172913, Note_on_c, 0, 69, 0
1, 172920, Note_on_c, 0, 67, 96
1, 173033, Note_on_c, 0, 67, 0
1, 173040, Note_on_c, 0, 65, 96
1, 173153, Note_on_c, 0, 65, 0
1, 173160, Note_on_c, 0, 62, 96
1, 173273, Note_on_c, 0, 62, 0
1, 173280, Note_on_c, 0, 65, 96
1, 173393, Note_on_c, 0, 65, 0
1, 173400, Note_on_c, 0, 67, 96
1, 173513, Note_on_c, 0, 67, 0
1, 173520, Note_on_c, 0, 65, 96
1, 173633, Note_on_c, 0, 65, 0
1, 173640, Note_on_c, 0, 62, 96
1, 173753, Note_on_c, 0, 62, 0
1, 173760, Note_on_c, 0, 60, 96
1, 173873, Note_on_c, 0, 60, 0
1, 173880, Note_on_c, 0, 62, 96
1, 173993, Note_on_c, 0, 62, 0
1, 174000, Note_on_c, 0, 65, 96
1, 174113, Note_on_c, 0, 65, 0
1, 174120, Note_on_c, 0, 62, 96
1, 174233, Note_on_c, 0, 62, 0
1, 174240, Note_on_c, 0, 60, 96
1, 174353, Note_on_c, 0, 60, 0
1, 174360, Note_on_c, 0, 57, 96
1, 174473, Note_on_c, 0, 57, 0
1, 174480, Note_on_c, 0, 60, 96
1, 174593, Note_on_c, 0, 60, 0
1, 174600, Note_on_c, 0, 62, 96
1, 174713, Note_on_c, 0, 62, 0
1, 174720, Note_on_c, 0, 65, 96
1, 175023, Note_on_c, 0, 65, 0
1, 175040, Note_on_c, 0, 62, 96
1, 175343, Note_on_c, 0, 62, 0
1, 175360, Note_on_c, 0, 60, 96
1, 175663, Note_on_c, 0, 60, 0
1, 175680, Note_on_c, 0, 57, 96
1, 175983, Note_on_c, 0, 57, 0
1, 176000, Note_on_c, 0, 55, 96
1, 176303, Note_on_c, 0, 55, 0
1, 176320, Note_on_c, 0, 53, 96
1, 176623, Note_on_c, 0, 53, 0
1, 176640, Note_on_c, 0, 57, 96
1, 176640, Note_on_c, 0, 62, 96
1, 177551, Note_on_c, 0, 57, 0
1, 177551, Note_on_c, 0, 62, 0
1, 177552, End_track
2, 0, Start_track
2, 0, Title_t, "Piano, Piano\000"
2, 0, Key_signature, 0, "major"
2, 0, MIDI_port, 0
2, 0, Note_on_c, 0, 69, 80
2, 0, Note_on_c, 0, 72, 80
2, 227, Note_on_c, 0, 69, 0
2, 227, Note_on_c, 0, 72, 0
2, 240, Note_on_c, 0, 74, 80
2, 467, Note_on_c, 0, 74, 0
2, 480, Note_on_c, 0, 72, 80
2, 935, Note_on_c, 0, 72, 0
2, 960, Note_on_c, 0, 74, 80
2, 1415, Note_on_c, 0, 74, 0
2, 1440, Note_on_c, 0, 72, 80
2, 1667, Note_on_c, 0, 72, 0
2, 1680, Note_on_c, 0, 69, 80
2, 1907, Note_on_c, 0, 69, 0
2, 1920, Note_on_c, 0, 69, 80
2, 1920, Note_on_c, 0, 72, 80
2, 2147, Note_on_c, 0, 69, 0
2, 2147, Note_on_c, 0, 72, 0
2, 2160, Note_on_c, 0, 74, 80
2, 2387, Note_on_c, 0, 74, 0
2, 2400, Note_on_c, 0, 72, 80
2, 2627, Note_on_c, 0, 72, 0
2, 2640, Note_on_c, 0, 69, 80
2, 2867, Note_on_c, 0, 69, 0
2, 2880, Note_on_c, 0, 74, 80
2, 3335, Note_on_c, 0, 74, 0
2, 3360, Note_on_c, 0, 72, 80
2, 3587, Note_on_c, 0, 72, 0
2, 3600, Note_on_c, 0, 69, 80
2, 3827, Note_on_c, 0, 69, 0
2, 3840, Note_on_c, 0, 74, 80
2, 4067, Note_on_c, 0, 74, 0
2, 4080, Note_on_c, 0, 74, 80
2, 4535, Note_on_c, 0, 74, 0
2, 4560, Note_on_c, 0, 77, 80
2, 4787, Note_on_c, 0, 77, 0
2, 4800, Note_on_c, 0, 74, 80
2, 5255, Note_on_c, 0, 74, 0
2, 5280, Note_on_c, 0, 77, 80
2, 5507, Note_on_c, 0, 77, 0
2, 5520, Note_on_c, 0, 74, 80
2, 5975, Note_on_c, 0, 74, 0
2, 6000, Note_on_c, 0, 77, 80
2, 6227, Note_on_c, 0, 77, 0
2, 6240, Note_on_c, 0, 74, 80
2, 6695, Note_on_c, 0, 74, 0
2, 6720, Note_on_c, 0, 74, 80
2, 6947, Note_on_c, 0, 74, 0
2, 6960, Note_on_c, 0, 69, 80
2, 7187, Note_on_c, 0, 69, 0
2, 7200, Note_on_c, 0, 74, 80
2, 7427, Note_on_c, 0, 74, 0
2, 7440, Note_on_c, 0, 69, 80
2, 7667, Note_on_c, 0, 69, 0
2, 7680, Note_on_c, 0, 69, 80
2, 7680, Note_on_c, 0, 72, 80
2, 7907, Note_on_c, 0, 69, 0
2, 7907, Note_on_c, 0, 72, 0
2, 7920, Note_on_c, 0, 74, 80
2, 8147, Note_on_c, 0, 74, 0
2, 8160, Note_on_c, 0, 72, 80
2, 8615, Note_on_c, 0, 72, 0
2, 8640, Note_on_c, 0, 69, 80
2, 8640, Note_on_c, 0, 74, 80
2, 9095, Note_on_c, 0, 69, 0
2, 9095, Note_on_c, 0, 74, 0
2, 9120, Note_on_c, 0, 72, 80
2, 9347, Note_on_c, 0, 72, 0
2, 9360, Note_on_c, 0, 69, 80
2, 9587, Note_on_c, 0, 69, 0
2, 9600, Note_on_c, 0, 69, 80
2, 9600, Note_on_c, 0, 72, 80
2, 9827, Note_on_c, 0, 69, 0
2, 9827, Note_on_c, 0, 72, 0
2, 9840, Note_on_c, 0, 74, 80
2, 10067, Note_on_c, 0, 74, 0
2, 10080, Note_on_c, 0, 72, 80
2, 10307, Note_on_c, 0, 72, 0
2, 10320, Note_on_c, 0, 69, 80
2, 10547, Note_on_c, 0, 69, 0
2, 10560, Note_on_c, 0, 74, 80
2, 11015, Note_on_c, 0, 74, 0
2, 11040, Note_on_c, 0, 72, 80
2, 11267, Note_on_c, 0, 72, 0
2, 11280, Note_on_c, 0, 69, 80
2, 11507, Note_on_c, 0, 69, 0
2, 11520, Note_on_c, 0, 74, 80
2, 11747, Note_on_c, 0, 74, 0
2, 11760, Note_on_c, 0, 74, 80
2, 12215, Note_on_c, 0, 74, 0
2, 12240, Note_on_c, 0, 77, 80
2, 12467, Note_on_c, 0, 77, 0
2, 12480, Note_on_c, 0, 74, 80
2, 12935, Note_on_c, 0, 74, 0
2, 12960, Note_on_c, 0, 77, 80
2, 13187, Note_on_c, 0, 77, 0
2, 13200, Note_on_c, 0, 74, 80
2, 13427, Note_on_c, 0, 74, 0
2, 13680, Note_on_c, 0, 77, 80
2, 13907, Note_on_c, 0, 77, 0
2, 13920, Note_on_c, 0, 74, 80
2, 14261, Note_on_c, 0, 74, 0
2, 14280, Note_on_c, 0, 77, 80
2, 14393, Note_on_c, 0, 77, 0
2, 14400, Note_on_c, 0, 74, 80
2, 14741, Note_on_c, 0, 74, 0
2, 14760, Note_on_c, 0, 77, 80
2, 14873, Note_on_c, 0, 77, 0
2, 14880, Note_on_c, 0, 74, 80
2, 15221, Note_on_c, 0, 74, 0
2, 15240, Note_on_c, 0, 77, 80
2, 15353, Note_on_c, 0, 77, 0
2, 15360, Note_on_c, 0, 74, 80
2, 15701, Note_on_c, 0, 74, 0
2, 15720, Note_on_c, 0, 77, 80
2, 15833, Note_on_c, 0, 77, 0
2, 15840, Note_on_c, 0, 74, 80
2, 16181, Note_on_c, 0, 74, 0
2, 16200, Note_on_c, 0, 77, 80
2, 16313, Note_on_c, 0, 77, 0
2, 16320, Note_on_c, 0, 74, 80
2, 16661, Note_on_c, 0, 74, 0
2, 16680, Note_on_c, 0, 77, 80
2, 16793, Note_on_c, 0, 77, 0
2, 16800, Note_on_c, 0, 74, 80
2, 17141, Note_on_c, 0, 74, 0
2, 17160, Note_on_c, 0, 77, 80
2, 17273, Note_on_c, 0, 77, 0
2, 17280, Note_on_c, 0, 74, 80
2, 17621, Note_on_c, 0, 74, 0
2, 17640, Note_on_c, 0, 77, 80
2, 17753, Note_on_c, 0, 77, 0
2, 17760, Note_on_c, 0, 74, 80
2, 18101, Note_on_c, 0, 74, 0
2, 18120, Note_on_c, 0, 77, 80
2, 18233, Note_on_c, 0, 77, 0
2, 18240, Note_on_c, 0, 74, 80
2, 18581, Note_on_c, 0, 74, 0
2, 18600, Note_on_c, 0, 77, 80
2, 18713, Note_on_c, 0, 77, 0
2, 18720, Note_on_c, 0, 74, 80
2, 19061, Note_on_c, 0, 74, 0
2, 19080, Note_on_c, 0, 77, 80
2, 19193, Note_on_c, 0, 77, 0
2, 19200, Note_on_c, 0, 74, 80
2, 19541, Note_on_c, 0, 74, 0
2, 19560, Note_on_c, 0, 77, 80
2, 19673, Note_on_c, 0, 77, 0
2, 19680, Note_on_c, 0, 74, 80
2, 20021, Note_on_c, 0, 74, 0
2, 20040, Note_on_c, 0, 77, 80
2, 20153, Note_on_c, 0, 77, 0
2, 20160, Note_on_c, 0, 74, 80
2, 20501, Note_on_c, 0, 74, 0
2, 20520, Note_on_c, 0, 77, 80
2, 20633, Note_on_c, 0, 77, 0
2, 20640, Note_on_c, 0, 74, 80
2, 20981, Note_on_c, 0, 74, 0
2, 21000, Note_on_c, 0, 77, 80
2, 21113, Note_on_c, 0, 77, 0
2, 21120, Note_on_c, 0, 74, 80
2, 21461, Note_on_c, 0, 74, 0
2, 21480, Note_on_c, 0, 77, 80
2, 21593, Note_on_c, 0, 77, 0
2, 21600, Note_on_c, 0, 74, 80
2, 21941, Note_on_c, 0, 74, 0
2, 21960, Note_on_c, 0, 77, 80
2, 22073, Note_on_c, 0, 77, 0
2, 22080, Note_on_c, 0, 74, 80
2, 22421, Note_on_c, 0, 74, 0
2, 22440, Note_on_c, 0, 77, 80
2, 22553, Note_on_c, 0, 77, 0
2, 22560, Note_on_c, 0, 74, 80
2, 22901, Note_on_c, 0, 74, 0
2, 22920, Note_on_c, 0, 77, 80
2, 23033, Note_on_c, 0, 77, 0
2, 23040, Note_on_c, 0, 72, 80
2, 23267, Note_on_c, 0, 72, 0
2, 23280, Note_on_c, 0, 72, 80
2, 23393, Note_on_c, 0, 72, 0
2, 23400, Note_on_c, 0, 69, 80
2, 23513, Note_on_c, 0, 69, 0
2, 23520, Note_on_c, 0, 72, 80
2, 23747, Note_on_c, 0, 72, 0
2, 23760, Note_on_c, 0, 72, 80
2, 23873, Note_on_c, 0, 72, 0
2, 23880, Note_on_c, 0, 69, 80
2, 23993, Note_on_c, 0, 69, 0
2, 24000, Note_on_c, 0, 72, 80
2, 24227, Note_on_c, 0, 72, 0
2, 24240, Note_on_c, 0, 72, 80
2, 24353, Note_on_c, 0, 72, 0
2, 24360, Note_on_c, 0, 69, 80
2, 24473, Note_on_c, 0, 69, 0
2, 24480, Note_on_c, 0, 72, 80
2, 24707, Note_on_c, 0, 72, 0
2, 24720, Note_on_c, 0, 72, 80
2, 24833, Note_on_c, 0, 72, 0
2, 24840, Note_on_c, 0, 69, 80
2, 24953, Note_on_c, 0, 69, 0
2, 24960, Note_on_c, 0, 72, 80
2, 25187, Note_on_c, 0, 72, 0
2, 25200, Note_on_c, 0, 72, 80
2, 25313, Note_on_c, 0, 72, 0
2, 25320, Note_on_c, 0, 69, 80
2, 25433, Note_on_c, 0, 69, 0
2, 25440, Note_on_c, 0, 72, 80
2, 25667, Note_on_c, 0, 72, 0
2, 25680, Note_on_c, 0, 72, 80
2, 25793, Note_on_c, 0, 72, 0
2, 25800, Note_on_c, 0, 69, 80
2, 25913, Note_on_c, 0, 69, 0
2, 25920, Note_on_c, 0, 72, 80
2, 26147, Note_on_c, 0, 72, 0
2, 26160, Note_on_c, 0, 72, 80
2, 26273, Note_on_c, 0, 72, 0
2, 26280, Note_on_c, 0, 69, 80
2, 26393, Note_on_c, 0, 69, 0
2, 26400, Note_on_c, 0, 72, 80
2, 26627, Note_on_c, 0, 72, 0
2, 26640, Note_on_c, 0, 72, 80
2, 26753, Note_on_c, 0, 72, 0
2, 26760, Note_on_c, 0, 69, 80
2, 26873, Note_on_c, 0, 69, 0
2, 26880, Note_on_c, 0, 72, 80
2, 27107, Note_on_c, 0, 72, 0
2, 27120, Note_on_c, 0, 69, 80
2, 27233, Note_on_c, 0, 69, 0
2, 27240, Note_on_c, 0, 72, 80
2, 27467, Note_on_c, 0, 72, 0
2, 27480, Note_on_c, 0, 69, 80
2, 27593, Note_on_c, 0, 69, 0
2, 27600, Note_on_c, 0, 72, 80
2, 27827, Note_on_c, 0, 72, 0
2, 27840, Note_on_c, 0, 69, 80
2, 27953, Note_on_c, 0, 69, 0
2, 27960, Note_on_c, 0, 72, 80
2, 28187, Note_on_c, 0, 72, 0
2, 28200, Note_on_c, 0, 69, 80
2, 28313, Note_on_c, 0, 69, 0
2, 28320, Note_on_c, 0, 72, 80
2, 28547, Note_on_c, 0, 72, 0
2, 28560, Note_on_c, 0, 69, 80
2, 28673, Note_on_c, 0, 69, 0
2, 28680, Note_on_c, 0, 72, 80
2, 28907, Note_on_c, 0, 72, 0
2, 28920, Note_on_c, 0, 69, 80
2, 29033, Note_on_c, 0, 69, 0
2, 29040, Note_on_c, 0, 72, 80
2, 29267, Note_on_c, 0, 72, 0
2, 29280, Note_on_c, 0, 69, 80
2, 29393, Note_on_c, 0, 69, 0
2, 29400, Note_on_c, 0, 72, 80
2, 29627, Note_on_c, 0, 72, 0
2, 29640, Note_on_c, 0, 69, 80
2, 29753, Note_on_c, 0, 69, 0
2, 29760, Note_on_c, 0, 72, 80
2, 29987, Note_on_c, 0, 72, 0
2, 30000, Note_on_c, 0, 69, 80
2, 30113, Note_on_c, 0, 69, 0
2, 30120, Note_on_c, 0, 72, 80
2, 30233, Note_on_c, 0, 72, 0
2, 30240, Note_on_c, 0, 72, 80
2, 30353, Note_on_c, 0, 72, 0
2, 30360, Note_on_c, 0, 69, 80
2, 30473, Note_on_c, 0, 69, 0
2, 30480, Note_on_c, 0, 65, 80
2, 30593, Note_on_c, 0, 65, 0
2, 30600, Note_on_c, 0, 69, 80
2, 30713, Note_on_c, 0, 69, 0
2, 30720, Note_on_c, 0, 72, 80
2, 31175, Note_on_c, 0, 72, 0
2, 31200, Note_on_c, 0, 72, 80
2, 31655, Note_on_c, 0, 72, 0
2, 31680, Note_on_c, 0, 72, 80
2, 31793, Note_on_c, 0, 72, 0
2, 31800, Note_on_c, 0, 69, 80
2, 31913, Note_on_c, 0, 69, 0
2, 31920, Note_on_c, 0, 67, 80
2, 32033, Note_on_c, 0, 67, 0
2, 32040, Note_on_c, 0, 69, 80
2, 32153, Note_on_c, 0, 69, 0
2, 32160, Note_on_c, 0, 72, 80
2, 32273, Note_on_c, 0, 72, 0
2, 32280, Note_on_c, 0, 69, 80
2, 32393, Note_on_c, 0, 69, 0
2, 32400, Note_on_c, 0, 67, 80
2, 32513, Note_on_c, 0, 67, 0
2, 32520, Note_on_c, 0, 69, 80
2, 32633, Note_on_c, 0, 69, 0
2, 32640, Note_on_c, 0, 72, 80
2, 32753, Note_on_c, 0, 72, 0
2, 32760, Note_on_c, 0, 69, 80
2, 32873, Note_on_c, 0, 69, 0
2, 32880, Note_on_c, 0, 67, 80
2, 32993, Note_on_c, 0, 67, 0
2, 33000, Note_on_c, 0, 69, 80
2, 33113, Note_on_c, 0, 69, 0
2, 33120, Note_on_c, 0, 72, 80
2, 33233, Note_on_c, 0, 72, 0
2, 33240, Note_on_c, 0, 69, 80
2, 33353, Note_on_c, 0, 69, 0
2, 33360, Note_on_c, 0, 67, 80
2, 33473, Note_on_c, 0, 67, 0
2, 33480, Note_on_c, 0, 69, 80
2, 33593, Note_on_c, 0, 69, 0
2, 33600, Note_on_c, 0, 72, 80
2, 33713, Note_on_c, 0, 72, 0
2, 33720, Note_on_c, 0, 69, 80
2, 33833, Note_on_c, 0, 69, 0
2, 33840, Note_on_c, 0, 67, 80
2, 33953, Note_on_c, 0, 67, 0
2, 33960, Note_on_c, 0, 69, 80
2, 34073, Note_on_c, 0, 69, 0
2, 34080, Note_on_c, 0, 72, 80
2, 34193, Note_on_c, 0, 72, 0
2, 34200, Note_on_c, 0, 69, 80
2, 34313, Note_on_c, 0, 69, 0
2, 34320, Note_on_c, 0, 67, 80
2, 34433, Note_on_c, 0, 67, 0
2, 34440, Note_on_c, 0, 69, 80
2, 34553, Note_on_c, 0, 69, 0
2, 34560, Note_on_c, 0, 72, 80
2, 34673, Note_on_c, 0, 72, 0
2, 34680, Note_on_c, 0, 69, 80
2, 34793, Note_on_c, 0, 69, 0
2, 34800, Note_on_c, 0, 67, 80
2, 34913, Note_on_c, 0, 67, 0
2, 34920, Note_on_c, 0, 69, 80
2, 35033, Note_on_c, 0, 69, 0
2, 35040, Note_on_c, 0, 72, 80
2, 35153, Note_on_c, 0, 72, 0
2, 35160, Note_on_c, 0, 69, 80
2, 35273, Note_on_c, 0, 69, 0
2, 35280, Note_on_c, 0, 67, 80
2, 35393, Note_on_c, 0, 67, 0
2, 35400, Note_on_c, 0, 69, 80
2, 35513, Note_on_c, 0, 69, 0
2, 35520, Note_on_c, 0, 72, 80
2, 35633, Note_on_c, 0, 72, 0
2, 35640, Note_on_c, 0, 69, 80
2, 35753, Note_on_c, 0, 69, 0
2, 35760, Note_on_c, 0, 67, 80
2, 35873, Note_on_c, 0, 67, 0
2, 35880, Note_on_c, 0, 69, 80
2, 35993, Note_on_c, 0, 69, 0
2, 36000, Note_on_c, 0, 72, 80
2, 36113, Note_on_c, 0, 72, 0
2, 36120, Note_on_c, 0, 69, 80
2, 36233, Note_on_c, 0, 69, 0
2, 36240, Note_on_c, 0, 67, 80
2, 36353, Note_on_c, 0, 67, 0
2, 36360, Note_on_c, 0, 69, 80
2, 36473, Note_on_c, 0, 69, 0
2, 36480, Note_on_c, 0, 72, 80
2, 36593, Note_on_c, 0, 72, 0
2, 36600, Note_on_c, 0, 69, 80
2, 36713, Note_on_c, 0, 69, 0
2, 36720, Note_on_c, 0, 67, 80
2, 36833, Note_on_c, 0, 67, 0
2, 36840, Note_on_c, 0, 69, 80
2, 36953, Note_on_c, 0, 69, 0
2, 36960, Note_on_c, 0, 72, 80
2, 37073, Note_on_c, 0, 72, 0
2, 37080, Note_on_c, 0, 69, 80
2, 37193, Note_on_c, 0, 69, 0
2, 37200, Note_on_c, 0, 67, 80
2, 37313, Note_on_c, 0, 67, 0
2, 37320, Note_on_c, 0, 69, 80
2, 37433, Note_on_c, 0, 69, 0
2, 37440, Note_on_c, 0, 72, 80
2, 37553, Note_on_c, 0, 72, 0
2, 37560, Note_on_c, 0, 69, 80
2, 37673, Note_on_c, 0, 69, 0
2, 37680, Note_on_c, 0, 67, 80
2, 37793, Note_on_c, 0, 67, 0
2, 37800, Note_on_c, 0, 69, 80
2, 37913, Note_on_c, 0, 69, 0
2, 37920, Note_on_c, 0, 65, 80
2, 38099, Note_on_c, 0, 65, 0
2, 38160, Note_on_c, 0, 62, 80
2, 38280, Note_on_c, 0, 60, 80
2, 38387, Note_on_c, 0, 62, 0
2, 38393, Note_on_c, 0, 60, 0
2, 38400, Note_on_c, 0, 62, 80
2, 38627, Note_on_c, 0, 62, 0
2, 38640, Note_on_c, 0, 65, 80
2, 38867, Note_on_c, 0, 65, 0
2, 38880, Note_on_c, 0, 62, 80
2, 38993, Note_on_c, 0, 62, 0
2, 39000, Note_on_c, 0, 60, 80
2, 39113, Note_on_c, 0, 60, 0
2, 39120, Note_on_c, 0, 62, 80
2, 39347, Note_on_c, 0, 62, 0
2, 39360, Note_on_c, 0, 65, 80
2, 39587, Note_on_c, 0, 65, 0
2, 39600, Note_on_c, 0, 62, 80
2, 39713, Note_on_c, 0, 62, 0
2, 39720, Note_on_c, 0, 65, 80
2, 39833, Note_on_c, 0, 65, 0
2, 39840, Note_on_c, 0, 67, 80
2, 39953, Note_on_c, 0, 67, 0
2, 39960, Note_on_c, 0, 65, 80
2, 40073, Note_on_c, 0, 65, 0
2, 40080, Note_on_c, 0, 67, 80
2, 40193, Note_on_c, 0, 67, 0
2, 40200, Note_on_c, 0, 65, 80
2, 40313, Note_on_c, 0, 65, 0
2, 40320, Note_on_c, 0, 62, 80
2, 40433, Note_on_c, 0, 62, 0
2, 40440, Note_on_c, 0, 65, 80
2, 40553, Note_on_c, 0, 65, 0
2, 40560, Note_on_c, 0, 67, 80
2, 40673, Note_on_c, 0, 67, 0
2, 40680, Note_on_c, 0, 65, 80
2, 40793, Note_on_c, 0, 65, 0
2, 40800, Note_on_c, 0, 67, 80
2, 40913, Note_on_c, 0, 67, 0
2, 40920, Note_on_c, 0, 65, 80
2, 41033, Note_on_c, 0, 65, 0
2, 41040, Note_on_c, 0, 62, 80
2, 41153, Note_on_c, 0, 62, 0
2, 41160, Note_on_c, 0, 65, 80
2, 41273, Note_on_c, 0, 65, 0
2, 41280, Note_on_c, 0, 67, 80
2, 41507, Note_on_c, 0, 67, 0
2, 41520, Note_on_c, 0, 69, 80
2, 41633, Note_on_c, 0, 69, 0
2, 41640, Note_on_c, 0, 72, 80
2, 41753, Note_on_c, 0, 72, 0
2, 41760, Note_on_c, 0, 67, 80
2, 42101, Note_on_c, 0, 67, 0
2, 42120, Note_on_c, 0, 72, 80
2, 42233, Note_on_c, 0, 72, 0
2, 42240, Note_on_c, 0, 67, 80
2, 42600, Note_on_c, 0, 62, 80
2, 42695, Note_on_c, 0, 67, 0
2, 42720, Note_on_c, 0, 67, 80
2, 42941, Note_on_c, 0, 62, 0
2, 43061, Note_on_c, 0, 67, 0
2, 43080, Note_on_c, 0, 67, 80
2, 43193, Note_on_c, 0, 67, 0
2, 43200, Note_on_c, 0, 67, 80
2, 43541, Note_on_c, 0, 67, 0
2, 43560, Note_on_c, 0, 72, 80
2, 43673, Note_on_c, 0, 72, 0
2, 43680, Note_on_c, 0, 67, 80
2, 44021, Note_on_c, 0, 67, 0
2, 44040, Note_on_c, 0, 72, 80
2, 44153, Note_on_c, 0, 72, 0
2, 44160, Note_on_c, 0, 67, 80
2, 44501, Note_on_c, 0, 67, 0
2, 44520, Note_on_c, 0, 72, 80
2, 44633, Note_on_c, 0, 72, 0
2, 44640, Note_on_c, 0, 67, 80
2, 44867, Note_on_c, 0, 67, 0
2, 44880, Note_on_c, 0, 72, 80
2, 44993, Note_on_c, 0, 72, 0
2, 45000, Note_on_c, 0, 67, 80
2, 45227, Note_on_c, 0, 67, 0
2, 45240, Note_on_c, 0, 72, 80
2, 45353, Note_on_c, 0, 72, 0
2, 45360, Note_on_c, 0, 67, 80
2, 45587, Note_on_c, 0, 67, 0
2, 45600, Note_on_c, 0, 72, 80
2, 45713, Note_on_c, 0, 72, 0
2, 45720, Note_on_c, 0, 67, 80
2, 45947, Note_on_c, 0, 67, 0
2, 45960, Note_on_c, 0, 72, 80
2, 46073, Note_on_c, 0, 72, 0
2, 46080, Note_on_c, 0, 67, 80
2, 46421, Note_on_c, 0, 67, 0
2, 46440, Note_on_c, 0, 72, 80
2, 46553, Note_on_c, 0, 72, 0
2, 46560, Note_on_c, 0, 67, 80
2, 46787, Note_on_c, 0, 67, 0
2, 46800, Note_on_c, 0, 72, 80
2, 46913, Note_on_c, 0, 72, 0
2, 46920, Note_on_c, 0, 67, 80
2, 47147, Note_on_c, 0, 67, 0
2, 47160, Note_on_c, 0, 72, 80
2, 47273, Note_on_c, 0, 72, 0
2, 47280, Note_on_c, 0, 67, 80
2, 47507, Note_on_c, 0, 67, 0
2, 47520, Note_on_c, 0, 72, 80
2, 47633, Note_on_c, 0, 72, 0
2, 47640, Note_on_c, 0, 67, 80
2, 47867, Note_on_c, 0, 67, 0
2, 47880, Note_on_c, 0, 72, 80
2, 47993, Note_on_c, 0, 72, 0
2, 48000, Note_on_c, 0, 67, 80
2, 48341, Note_on_c, 0, 67, 0
2, 48360, Note_on_c, 0, 72, 80
2, 48473, Note_on_c, 0, 72, 0
2, 48480, Note_on_c, 0, 67, 80
2, 48707, Note_on_c, 0, 67, 0
2, 48720, Note_on_c, 0, 72, 80
2, 48833, Note_on_c, 0, 72, 0
2, 48840, Note_on_c, 0, 67, 80
2, 49067, Note_on_c, 0, 67, 0
2, 49080, Note_on_c, 0, 72, 80
2, 49193, Note_on_c, 0, 72, 0
2, 49200, Note_on_c, 0, 67, 80
2, 49427, Note_on_c, 0, 67, 0
2, 49440, Note_on_c, 0, 72, 80
2, 49553, Note_on_c, 0, 72, 0
2, 49560, Note_on_c, 0, 67, 80
2, 49787, Note_on_c, 0, 67, 0
2, 49800, Note_on_c, 0, 72, 80
2, 49913, Note_on_c, 0, 72, 0
2, 49920, Note_on_c, 0, 67, 80
2, 50261, Note_on_c, 0, 67, 0
2, 50280, Note_on_c, 0, 72, 80
2, 50393, Note_on_c, 0, 72, 0
2, 50400, Note_on_c, 0, 67, 80
2, 50627, Note_on_c, 0, 67, 0
2, 50640, Note_on_c, 0, 72, 80
2, 50753, Note_on_c, 0, 72, 0
2, 50760, Note_on_c, 0, 67, 80
2, 50987, Note_on_c, 0, 67, 0
2, 51000, Note_on_c, 0, 72, 80
2, 51113, Note_on_c, 0, 72, 0
2, 51120, Note_on_c, 0, 67, 80
2, 51347, Note_on_c, 0, 67, 0
2, 51360, Note_on_c, 0, 72, 80
2, 51473, Note_on_c, 0, 72, 0
2, 51480, Note_on_c, 0, 67, 80
2, 51707, Note_on_c, 0, 67, 0
2, 51720, Note_on_c, 0, 72, 80
2, 51833, Note_on_c, 0, 72, 0
2, 51840, Note_on_c, 0, 67, 80
2, 52181, Note_on_c, 0, 67, 0
2, 52200, Note_on_c, 0, 72, 80
2, 52313, Note_on_c, 0, 72, 0
2, 52320, Note_on_c, 0, 67, 80
2, 52547, Note_on_c, 0, 67, 0
2, 52560, Note_on_c, 0, 72, 80
2, 52673, Note_on_c, 0, 72, 0
2, 52680, Note_on_c, 0, 67, 80
2, 52907, Note_on_c, 0, 67, 0
2, 52920, Note_on_c, 0, 72, 80
2, 53033, Note_on_c, 0, 72, 0
2, 53040, Note_on_c, 0, 67, 80
2, 53267, Note_on_c, 0, 67, 0
2, 53280, Note_on_c, 0, 72, 80
2, 53393, Note_on_c, 0, 72, 0
2, 53400, Note_on_c, 0, 67, 80
2, 53627, Note_on_c, 0, 67, 0
2, 53640, Note_on_c, 0, 72, 80
2, 53753, Note_on_c, 0, 72, 0
2, 53760, Note_on_c, 0, 65, 80
2, 53760, Note_on_c, 0, 69, 80
2, 53987, Note_on_c, 0, 65, 0
2, 53987, Note_on_c, 0, 69, 0
2, 54000, Note_on_c, 0, 62, 80
2, 54113, Note_on_c, 0, 62, 0
2, 54120, Note_on_c, 0, 60, 80
2, 54233, Note_on_c, 0, 60, 0
2, 54240, Note_on_c, 0, 57, 80
2, 54467, Note_on_c, 0, 57, 0
2, 54480, Note_on_c, 0, 65, 80
2, 54480, Note_on_c, 0, 69, 80
2, 54707, Note_on_c, 0, 65, 0
2, 54707, Note_on_c, 0, 69, 0
2, 54720, Note_on_c, 0, 62, 80
2, 54833, Note_on_c, 0, 62, 0
2, 54840, Note_on_c, 0, 60, 80
2, 54953, Note_on_c, 0, 60, 0
2, 54960, Note_on_c, 0, 57, 80
2, 55187, Note_on_c, 0, 57, 0
2, 55200, Note_on_c, 0, 65, 80
2, 55200, Note_on_c, 0, 69, 80
2, 55427, Note_on_c, 0, 65, 0
2, 55427, Note_on_c, 0, 69, 0
2, 55440, Note_on_c, 0, 62, 80
2, 55553, Note_on_c, 0, 62, 0
2, 55560, Note_on_c, 0, 60, 80
2, 55673, Note_on_c, 0, 60, 0
2, 55680, Note_on_c, 0, 57, 80
2, 55907, Note_on_c, 0, 57, 0
2, 55920, Note_on_c, 0, 65, 80
2, 55920, Note_on_c, 0, 69, 80
2, 56147, Note_on_c, 0, 65, 0
2, 56147, Note_on_c, 0, 69, 0
2, 56160, Note_on_c, 0, 62, 80
2, 56273, Note_on_c, 0, 62, 0
2, 56280, Note_on_c, 0, 60, 80
2, 56393, Note_on_c, 0, 60, 0
2, 56400, Note_on_c, 0, 57, 80
2, 56627, Note_on_c, 0, 57, 0
2, 56640, Note_on_c, 0, 65, 80
2, 56640, Note_on_c, 0, 69, 80
2, 56867, Note_on_c, 0, 65, 0
2, 56867, Note_on_c, 0, 69, 0
2, 56880, Note_on_c, 0, 62, 80
2, 56999, Note_on_c, 0, 62, 0
2, 57000, Note_on_c, 0, 60, 80
2, 57120, Note_on_c, 0, 57, 80
2, 57341, Note_on_c, 0, 60, 0
2, 57347, Note_on_c, 0, 57, 0
2, 57360, Note_on_c, 0, 60, 80
2, 57587, Note_on_c, 0, 60, 0
2, 57600, Note_on_c, 0, 62, 80
2, 57839, Note_on_c, 0, 62, 0
2, 58080, Note_on_c, 0, 62, 80
2, 58200, Note_on_c, 0, 60, 80
2, 58313, Note_on_c, 0, 60, 0
2, 58319, Note_on_c, 0, 62, 0
2, 58320, Note_on_c, 0, 57, 80
2, 58433, Note_on_c, 0, 57, 0
2, 58440, Note_on_c, 0, 60, 80
2, 58553, Note_on_c, 0, 60, 0
2, 58560, Note_on_c, 0, 62, 80
2, 58680, Note_on_c, 0, 60, 80
2, 58793, Note_on_c, 0, 60, 0
2, 58799, Note_on_c, 0, 62, 0
2, 58800, Note_on_c, 0, 57, 80
2, 58913, Note_on_c, 0, 57, 0
2, 58920, Note_on_c, 0, 60, 80
2, 59033, Note_on_c, 0, 60, 0
2, 59040, Note_on_c, 0, 62, 80
2, 59160, Note_on_c, 0, 60, 80
2, 59273, Note_on_c, 0, 60, 0
2, 59279, Note_on_c, 0, 62, 0
2, 59280, Note_on_c, 0, 57, 80
2, 59393, Note_on_c, 0, 57, 0
2, 59400, Note_on_c, 0, 60, 80
2, 59513, Note_on_c, 0, 60, 0
2, 59520, Note_on_c, 0, 62, 80
2, 59759, Note_on_c, 0, 62, 0
2, 60000, Note_on_c, 0, 62, 80
2, 60120, Note_on_c, 0, 60, 80
2, 60233, Note_on_c, 0, 60, 0
2, 60239, Note_on_c, 0, 62, 0
2, 60240, Note_on_c, 0, 57, 80
2, 60353, Note_on_c, 0, 57, 0
2, 60360, Note_on_c, 0, 60, 80
2, 60473, Note_on_c, 0, 60, 0
2, 60480, Note_on_c, 0, 62, 80
2, 60600, Note_on_c, 0, 60, 80
2, 60713, Note_on_c, 0, 60, 0
2, 60719, Note_on_c, 0, 62, 0
2, 60720, Note_on_c, 0, 57, 80
2, 60833, Note_on_c, 0, 57, 0
2, 60840, Note_on_c, 0, 60, 80
2, 60953, Note_on_c, 0, 60, 0
2, 60960, Note_on_c, 0, 62, 80
2, 61080, Note_on_c, 0, 65, 80
2, 61187, Note_on_c, 0, 62, 0
2, 61199, Note_on_c, 0, 65, 0
2, 61200, Note_on_c, 0, 62, 80
2, 61320, Note_on_c, 0, 60, 80
2, 61427, Note_on_c, 0, 62, 0
2, 61433, Note_on_c, 0, 60, 0
2, 61440, Note_on_c, 0, 62, 80
2, 61895, Note_on_c, 0, 62, 0
2, 61920, Note_on_c, 0, 60, 80
2, 62147, Note_on_c, 0, 60, 0
2, 62160, Note_on_c, 0, 57, 80
2, 62387, Note_on_c, 0, 57, 0
2, 62400, Note_on_c, 0, 60, 80
2, 62627, Note_on_c, 0, 60, 0
2, 62640, Note_on_c, 0, 62, 80
2, 62867, Note_on_c, 0, 62, 0
2, 62880, Note_on_c, 0, 62, 80
2, 62993, Note_on_c, 0, 62, 0
2, 63000, Note_on_c, 0, 60, 80
2, 63113, Note_on_c, 0, 60, 0
2, 63120, Note_on_c, 0, 57, 80
2, 63347, Note_on_c, 0, 57, 0
2, 63360, Note_on_c, 0, 62, 80
2, 63815, Note_on_c, 0, 62, 0
2, 63840, Note_on_c, 0, 60, 80
2, 64067, Note_on_c, 0, 60, 0
2, 64080, Note_on_c, 0, 57, 80
2, 64199, Note_on_c, 0, 57, 0
2, 64200, Note_on_c, 0, 60, 80
2, 64320, Note_on_c, 0, 62, 80
2, 64427, Note_on_c, 0, 60, 0
2, 64433, Note_on_c, 0, 62, 0
2, 64440, Note_on_c, 0, 60, 80
2, 64553, Note_on_c, 0, 60, 0
2, 64560, Note_on_c, 0, 57, 80
2, 64679, Note_on_c, 0, 57, 0
2, 64680, Note_on_c, 0, 60, 80
2, 64800, Note_on_c, 0, 62, 80
2, 64907, Note_on_c, 0, 60, 0
2, 64913, Note_on_c, 0, 62, 0
2, 64920, Note_on_c, 0, 60, 80
2, 65033, Note_on_c, 0, 60, 0
2, 65040, Note_on_c, 0, 57, 80
2, 65153, Note_on_c, 0, 57, 0
2, 65160, Note_on_c, 0, 60, 80
2, 65273, Note_on_c, 0, 60, 0
2, 65280, Note_on_c, 0, 62, 80
2, 65519, Note_on_c, 0, 62, 0
2, 65760, Note_on_c, 0, 60, 80
2, 65760, Note_on_c, 0, 65, 80
2, 65987, Note_on_c, 0, 60, 0
2, 65987, Note_on_c, 0, 65, 0
2, 66000, Note_on_c, 0, 57, 80
2, 66113, Note_on_c, 0, 57, 0
2, 66120, Note_on_c, 0, 65, 80
2, 66233, Note_on_c, 0, 65, 0
2, 66240, Note_on_c, 0, 62, 80
2, 66479, Note_on_c, 0, 62, 0
2, 66720, Note_on_c, 0, 60, 80
2, 66720, Note_on_c, 0, 65, 80
2, 66947, Note_on_c, 0, 60, 0
2, 66947, Note_on_c, 0, 65, 0
2, 66960, Note_on_c, 0, 57, 80
2, 67073, Note_on_c, 0, 57, 0
2, 67080, Note_on_c, 0, 65, 80
2, 67193, Note_on_c, 0, 65, 0
2, 67200, Note_on_c, 0, 62, 80
2, 67439, Note_on_c, 0, 62, 0
2, 67680, Note_on_c, 0, 60, 80
2, 67680, Note_on_c, 0, 65, 80
2, 67907, Note_on_c, 0, 60, 0
2, 67907, Note_on_c, 0, 65, 0
2, 67920, Note_on_c, 0, 57, 80
2, 68033, Note_on_c, 0, 57, 0
2, 68040, Note_on_c, 0, 65, 80
2, 68153, Note_on_c, 0, 65, 0
2, 68160, Note_on_c, 0, 62, 80
2, 68399, Note_on_c, 0, 62, 0
2, 68640, Note_on_c, 0, 60, 80
2, 68640, Note_on_c, 0, 65, 80
2, 68867, Note_on_c, 0, 60, 0
2, 68867, Note_on_c, 0, 65, 0
2, 68880, Note_on_c, 0, 67, 80
2, 69107, Note_on_c, 0, 67, 0
2, 69120, Note_on_c, 0, 67, 80
2, 69233, Note_on_c, 0, 67, 0
2, 69240, Note_on_c, 0, 65, 80
2, 69353, Note_on_c, 0, 65, 0
2, 69360, Note_on_c, 0, 62, 80
2, 69473, Note_on_c, 0, 62, 0
2, 69480, Note_on_c, 0, 60, 80
2, 69593, Note_on_c, 0, 60, 0
2, 69600, Note_on_c, 0, 67, 80
2, 69827, Note_on_c, 0, 67, 0
2, 69840, Note_on_c, 0, 67, 80
2, 69953, Note_on_c, 0, 67, 0
2, 69960, Note_on_c, 0, 65, 80
2, 70073, Note_on_c, 0, 65, 0
2, 70080, Note_on_c, 0, 62, 80
2, 70193, Note_on_c, 0, 62, 0
2, 70200, Note_on_c, 0, 60, 80
2, 70313, Note_on_c, 0, 60, 0
2, 70320, Note_on_c, 0, 67, 80
2, 70547, Note_on_c, 0, 67, 0
2, 70560, Note_on_c, 0, 67, 80
2, 70673, Note_on_c, 0, 67, 0
2, 70680, Note_on_c, 0, 65, 80
2, 70793, Note_on_c, 0, 65, 0
2, 70800, Note_on_c, 0, 62, 80
2, 70913, Note_on_c, 0, 62, 0
2, 70920, Note_on_c, 0, 60, 80
2, 71033, Note_on_c, 0, 60, 0
2, 71040, Note_on_c, 0, 67, 80
2, 71267, Note_on_c, 0, 67, 0
2, 71280, Note_on_c, 0, 67, 80
2, 71393, Note_on_c, 0, 67, 0
2, 71400, Note_on_c, 0, 65, 80
2, 71513, Note_on_c, 0, 65, 0
2, 71520, Note_on_c, 0, 62, 80
2, 71633, Note_on_c, 0, 62, 0
2, 71640, Note_on_c, 0, 60, 80
2, 71753, Note_on_c, 0, 60, 0
2, 71760, Note_on_c, 0, 67, 80
2, 71987, Note_on_c, 0, 67, 0
2, 72000, Note_on_c, 0, 67, 80
2, 72113, Note_on_c, 0, 67, 0
2, 72120, Note_on_c, 0, 65, 80
2, 72233, Note_on_c, 0, 65, 0
2, 72240, Note_on_c, 0, 62, 80
2, 72359, Note_on_c, 0, 62, 0
2, 72360, Note_on_c, 0, 60, 80
2, 72480, Note_on_c, 0, 67, 80
2, 72701, Note_on_c, 0, 60, 0
2, 72707, Note_on_c, 0, 67, 0
2, 72720, Note_on_c, 0, 67, 80
2, 72833, Note_on_c, 0, 67, 0
2, 72840, Note_on_c, 0, 65, 80
2, 72953, Note_on_c, 0, 65, 0
2, 72960, Note_on_c, 0, 62, 80
2, 73073, Note_on_c, 0, 62, 0
2, 73080, Note_on_c, 0, 60, 80
2, 73193, Note_on_c, 0, 60, 0
2, 73200, Note_on_c, 0, 67, 80
2, 73427, Note_on_c, 0, 67, 0
2, 73440, Note_on_c, 0, 67, 80
2, 73553, Note_on_c, 0, 67, 0
2, 73560, Note_on_c, 0, 65, 80
2, 73679, Note_on_c, 0, 65, 0
2, 73680, Note_on_c, 0, 62, 80
2, 73800, Note_on_c, 0, 60, 80
2, 73913, Note_on_c, 0, 60, 0
2, 73920, Note_on_c, 0, 67, 80
2, 74135, Note_on_c, 0, 62, 0
2, 74147, Note_on_c, 0, 67, 0
2, 74160, Note_on_c, 0, 67, 80
2, 74273, Note_on_c, 0, 67, 0
2, 74280, Note_on_c, 0, 65, 80
2, 74393, Note_on_c, 0, 65, 0
2, 74400, Note_on_c, 0, 62, 80
2, 74520, Note_on_c, 0, 60, 80
2, 74633, Note_on_c, 0, 60, 0
2, 74639, Note_on_c, 0, 62, 0
2, 74640, Note_on_c, 0, 67, 80
2, 75095, Note_on_c, 0, 67, 0
2, 75120, Note_on_c, 0, 67, 80
2, 75347, Note_on_c, 0, 67, 0
2, 75360, Note_on_c, 0, 67, 80
2, 75587, Note_on_c, 0, 67, 0
2, 75600, Note_on_c, 0, 67, 80
2, 75827, Note_on_c, 0, 67, 0
2, 75840, Note_on_c, 0, 67, 80
2, 76295, Note_on_c, 0, 67, 0
2, 76320, Note_on_c, 0, 67, 80
2, 76547, Note_on_c, 0, 67, 0
2, 76560, Note_on_c, 0, 67, 80
2, 76787, Note_on_c, 0, 67, 0
2, 76800, Note_on_c, 0, 74, 80
2, 77255, Note_on_c, 0, 74, 0
2, 77280, Note_on_c, 0, 67, 80
2, 77507, Note_on_c, 0, 67, 0
2, 77520, Note_on_c, 0, 69, 80
2, 77747, Note_on_c, 0, 69, 0
2, 77760, Note_on_c, 0, 72, 80
2, 78215, Note_on_c, 0, 72, 0
2, 78240, Note_on_c, 0, 72, 80
2, 78467, Note_on_c, 0, 72, 0
2, 78480, Note_on_c, 0, 69, 80
2, 78707, Note_on_c, 0, 69, 0
2, 78720, Note_on_c, 0, 72, 80
2, 78947, Note_on_c, 0, 72, 0
2, 78960, Note_on_c, 0, 72, 80
2, 79415, Note_on_c, 0, 72, 0
2, 79440, Note_on_c, 0, 69, 80
2, 79667, Note_on_c, 0, 69, 0
2, 79680, Note_on_c, 0, 72, 80
2, 80135, Note_on_c, 0, 72, 0
2, 80160, Note_on_c, 0, 72, 80
2, 80387, Note_on_c, 0, 72, 0
2, 80400, Note_on_c, 0, 69, 80
2, 80627, Note_on_c, 0, 69, 0
2, 80640, Note_on_c, 0, 72, 80
2, 80867, Note_on_c, 0, 72, 0
2, 80880, Note_on_c, 0, 72, 80
2, 81335, Note_on_c, 0, 72, 0
2, 81360, Note_on_c, 0, 77, 80
2, 81587, Note_on_c, 0, 77, 0
2, 81600, Note_on_c, 0, 72, 80
2, 82055, Note_on_c, 0, 72, 0
2, 82080, Note_on_c, 0, 77, 80
2, 82307, Note_on_c, 0, 77, 0
2, 82320, Note_on_c, 0, 72, 80
2, 82775, Note_on_c, 0, 72, 0
2, 82800, Note_on_c, 0, 77, 80
2, 83027, Note_on_c, 0, 77, 0
2, 83040, Note_on_c, 0, 72, 80
2, 83723, Note_on_c, 0, 72, 0
2, 83760, Note_on_c, 0, 67, 80
2, 83987, Note_on_c, 0, 67, 0
2, 84000, Note_on_c, 0, 74, 80
2, 84227, Note_on_c, 0, 74, 0
2, 84240, Note_on_c, 0, 69, 80
2, 84467, Note_on_c, 0, 69, 0
2, 84480, Note_on_c, 0, 72, 80
2, 84707, Note_on_c, 0, 72, 0
2, 84720, Note_on_c, 0, 74, 80
2, 84947, Note_on_c, 0, 74, 0
2, 84960, Note_on_c, 0, 72, 80
2, 85415, Note_on_c, 0, 72, 0
2, 85440, Note_on_c, 0, 72, 80
2, 85895, Note_on_c, 0, 72, 0
2, 85920, Note_on_c, 0, 72, 80
2, 86147, Note_on_c, 0, 72, 0
2, 86160, Note_on_c, 0, 69, 80
2, 86387, Note_on_c, 0, 69, 0
2, 86400, Note_on_c, 0, 72, 80
2, 86627, Note_on_c, 0, 72, 0
2, 86640, Note_on_c, 0, 72, 80
2, 87095, Note_on_c, 0, 72, 0
2, 87120, Note_on_c, 0, 69, 80
2, 87347, Note_on_c, 0, 69, 0
2, 87360, Note_on_c, 0, 72, 80
2, 87815, Note_on_c, 0, 72, 0
2, 87840, Note_on_c, 0, 72, 80
2, 88067, Note_on_c, 0, 72, 0
2, 88080, Note_on_c, 0, 69, 80
2, 88307, Note_on_c, 0, 69, 0
2, 88320, Note_on_c, 0, 72, 80
2, 88547, Note_on_c, 0, 72, 0
2, 88560, Note_on_c, 0, 72, 80
2, 89015, Note_on_c, 0, 72, 0
2, 89040, Note_on_c, 0, 77, 80
2, 89267, Note_on_c, 0, 77, 0
2, 89280, Note_on_c, 0, 72, 80
2, 89735, Note_on_c, 0, 72, 0
2, 89760, Note_on_c, 0, 77, 80
2, 89987, Note_on_c, 0, 77, 0
2, 90000, Note_on_c, 0, 72, 80
2, 90455, Note_on_c, 0, 72, 0
2, 90480, Note_on_c, 0, 77, 80
2, 90935, Note_on_c, 0, 77, 0
2, 90960, Note_on_c, 0, 74, 80
2, 90960, Note_on_c, 0, 77, 80
2, 91415, Note_on_c, 0, 74, 0
2, 91415, Note_on_c, 0, 77, 0
2, 91440, Note_on_c, 0, 74, 80
2, 91440, Note_on_c, 0, 77, 80
2, 91895, Note_on_c, 0, 74, 0
2, 91895, Note_on_c, 0, 77, 0
2, 91920, Note_on_c, 0, 72, 80
2, 92147, Note_on_c, 0, 72, 0
2, 92160, Note_on_c, 0, 74, 80
2, 92615, Note_on_c, 0, 74, 0
2, 92640, Note_on_c, 0, 74, 80
2, 92867, Note_on_c, 0, 74, 0
2, 92880, Note_on_c, 0, 72, 80
2, 93107, Note_on_c, 0, 72, 0
2, 93120, Note_on_c, 0, 74, 80
2, 93575, Note_on_c, 0, 74, 0
2, 93600, Note_on_c, 0, 74, 80
2, 93827, Note_on_c, 0, 74, 0
2, 93840, Note_on_c, 0, 72, 80
2, 94067, Note_on_c, 0, 72, 0
2, 94080, Note_on_c, 0, 74, 80
2, 94535, Note_on_c, 0, 74, 0
2, 94560, Note_on_c, 0, 74, 80
2, 94787, Note_on_c, 0, 74, 0
2, 94800, Note_on_c, 0, 72, 80
2, 95027, Note_on_c, 0, 72, 0
2, 95040, Note_on_c, 0, 74, 80
2, 95495, Note_on_c, 0, 74, 0
2, 95520, Note_on_c, 0, 74, 80
2, 95747, Note_on_c, 0, 74, 0
2, 95760, Note_on_c, 0, 72, 80
2, 95987, Note_on_c, 0, 72, 0
2, 96000, Note_on_c, 0, 74, 80
2, 96455, Note_on_c, 0, 74, 0
2, 96480, Note_on_c, 0, 74, 80
2, 96707, Note_on_c, 0, 74, 0
2, 96720, Note_on_c, 0, 72, 80
2, 96947, Note_on_c, 0, 72, 0
2, 96960, Note_on_c, 0, 74, 80
2, 97415, Note_on_c, 0, 74, 0
2, 97440, Note_on_c, 0, 74, 80
2, 97667, Note_on_c, 0, 74, 0
2, 97680, Note_on_c, 0, 72, 80
2, 97907, Note_on_c, 0, 72, 0
2, 97920, Note_on_c, 0, 74, 80
2, 98147, Note_on_c, 0, 74, 0
2, 98160, Note_on_c, 0, 79, 80
2, 98615, Note_on_c, 0, 79, 0
2, 98640, Note_on_c, 0, 77, 80
2, 99095, Note_on_c, 0, 77, 0
2, 99120, Note_on_c, 0, 76, 80
2, 99575, Note_on_c, 0, 76, 0
2, 99600, Note_on_c, 0, 72, 80
2, 99827, Note_on_c, 0, 72, 0
2, 99840, Note_on_c, 0, 74, 80
2, 100295, Note_on_c, 0, 74, 0
2, 100320, Note_on_c, 0, 74, 80
2, 100547, Note_on_c, 0, 74, 0
2, 100560, Note_on_c, 0, 72, 80
2, 100787, Note_on_c, 0, 72, 0
2, 100800, Note_on_c, 0, 74, 80
2, 101255, Note_on_c, 0, 74, 0
2, 101280, Note_on_c, 0, 74, 80
2, 101507, Note_on_c, 0, 74, 0
2, 101520, Note_on_c, 0, 72, 80
2, 101747, Note_on_c, 0, 72, 0
2, 101760, Note_on_c, 0, 74, 80
2, 102215, Note_on_c, 0, 74, 0
2, 102240, Note_on_c, 0, 74, 80
2, 102353, Note_on_c, 0, 74, 0
2, 102360, Note_on_c, 0, 77, 80
2, 102587, Note_on_c, 0, 77, 0
2, 102600, Note_on_c, 0, 79, 80
2, 102713, Note_on_c, 0, 79, 0
2, 102720, Note_on_c, 0, 79, 80
2, 103061, Note_on_c, 0, 79, 0
2, 103080, Note_on_c, 0, 77, 80
2, 103193, Note_on_c, 0, 77, 0
2, 103200, Note_on_c, 0, 74, 80
2, 103427, Note_on_c, 0, 74, 0
2, 103440, Note_on_c, 0, 72, 80
2, 103667, Note_on_c, 0, 72, 0
2, 103680, Note_on_c, 0, 74, 80
2, 104135, Note_on_c, 0, 74, 0
2, 104160, Note_on_c, 0, 74, 80
2, 104387, Note_on_c, 0, 74, 0
2, 104400, Note_on_c, 0, 72, 80
2, 104627, Note_on_c, 0, 72, 0
2, 104640, Note_on_c, 0, 74, 80
2, 105095, Note_on_c, 0, 74, 0
2, 105120, Note_on_c, 0, 74, 80
2, 105347, Note_on_c, 0, 74, 0
2, 105360, Note_on_c, 0, 72, 80
2, 105587, Note_on_c, 0, 72, 0
2, 105600, Note_on_c, 0, 74, 80
2, 105827, Note_on_c, 0, 74, 0
2, 105840, Note_on_c, 0, 77, 80
2, 106295, Note_on_c, 0, 77, 0
2, 106320, Note_on_c, 0, 76, 80
2, 106775, Note_on_c, 0, 76, 0
2, 106800, Note_on_c, 0, 74, 80
2, 107255, Note_on_c, 0, 74, 0
2, 107280, Note_on_c, 0, 72, 80
2, 107507, Note_on_c, 0, 72, 0
2, 107520, Note_on_c, 0, 74, 80
2, 107975, Note_on_c, 0, 74, 0
2, 108000, Note_on_c, 0, 71, 80
2, 108227, Note_on_c, 0, 71, 0
2, 108240, Note_on_c, 0, 74, 80
2, 108695, Note_on_c, 0, 74, 0
2, 108720, Note_on_c, 0, 74, 80
2, 108947, Note_on_c, 0, 74, 0
2, 108960, Note_on_c, 0, 76, 80
2, 109073, Note_on_c, 0, 76, 0
2, 109080, Note_on_c, 0, 74, 80
2, 109193, Note_on_c, 0, 74, 0
2, 109200, Note_on_c, 0, 71, 80
2, 109427, Note_on_c, 0, 71, 0
2, 109440, Note_on_c, 0, 74, 80
2, 109895, Note_on_c, 0, 74, 0
2, 109920, Note_on_c, 0, 71, 80
2, 110147, Note_on_c, 0, 71, 0
2, 110160, Note_on_c, 0, 74, 80
2, 110615, Note_on_c, 0, 74, 0
2, 110640, Note_on_c, 0, 74, 80
2, 110867, Note_on_c, 0, 74, 0
2, 110880, Note_on_c, 0, 76, 80
2, 110993, Note_on_c, 0, 76, 0
2, 111000, Note_on_c, 0, 74, 80
2, 111113, Note_on_c, 0, 74, 0
2, 111120, Note_on_c, 0, 71, 80
2, 111347, Note_on_c, 0, 71, 0
2, 111360, Note_on_c, 0, 74, 80
2, 111815, Note_on_c, 0, 74, 0
2, 111840, Note_on_c, 0, 71, 80
2, 112067, Note_on_c, 0, 71, 0
2, 112080, Note_on_c, 0, 74, 80
2, 112535, Note_on_c, 0, 74, 0
2, 112560, Note_on_c, 0, 71, 80
2, 112787, Note_on_c, 0, 71, 0
2, 112800, Note_on_c, 0, 74, 80
2, 113483, Note_on_c, 0, 74, 0
2, 113520, Note_on_c, 0, 74, 80
2, 113975, Note_on_c, 0, 74, 0
2, 114000, Note_on_c, 0, 74, 80
2, 114455, Note_on_c, 0, 74, 0
2, 114480, Note_on_c, 0, 71, 80
2, 114707, Note_on_c, 0, 71, 0
2, 114720, Note_on_c, 0, 62, 80
2, 114947, Note_on_c, 0, 62, 0
2, 114960, Note_on_c, 0, 65, 80
2, 115073, Note_on_c, 0, 65, 0
2, 115080, Note_on_c, 0, 62, 80
2, 115193, Note_on_c, 0, 62, 0
2, 115200, Note_on_c, 0, 64, 80
2, 115313, Note_on_c, 0, 64, 0
2, 115320, Note_on_c, 0, 62, 80
2, 115433, Note_on_c, 0, 62, 0
2, 115440, Note_on_c, 0, 60, 80
2, 115553, Note_on_c, 0, 60, 0
2, 115560, Note_on_c, 0, 62, 80
2, 115673, Note_on_c, 0, 62, 0
2, 115680, Note_on_c, 0, 65, 80
2, 115793, Note_on_c, 0, 65, 0
2, 115800, Note_on_c, 0, 62, 80
2, 115913, Note_on_c, 0, 62, 0
2, 115920, Note_on_c, 0, 64, 80
2, 116033, Note_on_c, 0, 64, 0
2, 116040, Note_on_c, 0, 62, 80
2, 116153, Note_on_c, 0, 62, 0
2, 116160, Note_on_c, 0, 60, 80
2, 116273, Note_on_c, 0, 60, 0
2, 116280, Note_on_c, 0, 62, 80
2, 116393, Note_on_c, 0, 62, 0
2, 116400, Note_on_c, 0, 65, 80
2, 116513, Note_on_c, 0, 65, 0
2, 116520, Note_on_c, 0, 62, 80
2, 116633, Note_on_c, 0, 62, 0
2, 116640, Note_on_c, 0, 64, 80
2, 116753, Note_on_c, 0, 64, 0
2, 116760, Note_on_c, 0, 62, 80
2, 116873, Note_on_c, 0, 62, 0
2, 116880, Note_on_c, 0, 60, 80
2, 116993, Note_on_c, 0, 60, 0
2, 117000, Note_on_c, 0, 62, 80
2, 117113, Note_on_c, 0, 62, 0
2, 117120, Note_on_c, 0, 65, 80
2, 117233, Note_on_c, 0, 65, 0
2, 117240, Note_on_c, 0, 62, 80
2, 117353, Note_on_c, 0, 62, 0
2, 117360, Note_on_c, 0, 64, 80
2, 117473, Note_on_c, 0, 64, 0
2, 117480, Note_on_c, 0, 62, 80
2, 117593, Note_on_c, 0, 62, 0
2, 117600, Note_on_c, 0, 60, 80
2, 117713, Note_on_c, 0, 60, 0
2, 117720, Note_on_c, 0, 62, 80
2, 117833, Note_on_c, 0, 62, 0
2, 117840, Note_on_c, 0, 65, 80
2, 117953, Note_on_c, 0, 65, 0
2, 117960, Note_on_c, 0, 62, 80
2, 118073, Note_on_c, 0, 62, 0
2, 118080, Note_on_c, 0, 64, 80
2, 118193, Note_on_c, 0, 64, 0
2, 118200, Note_on_c, 0, 62, 80
2, 118313, Note_on_c, 0, 62, 0
2, 118320, Note_on_c, 0, 60, 80
2, 118433, Note_on_c, 0, 60, 0
2, 118440, Note_on_c, 0, 62, 80
2, 118553, Note_on_c, 0, 62, 0
2, 118560, Note_on_c, 0, 65, 80
2, 118673, Note_on_c, 0, 65, 0
2, 118680, Note_on_c, 0, 62, 80
2, 118793, Note_on_c, 0, 62, 0
2, 118800, Note_on_c, 0, 64, 80
2, 118913, Note_on_c, 0, 64, 0
2, 118920, Note_on_c, 0, 62, 80
2, 119033, Note_on_c, 0, 62, 0
2, 119040, Note_on_c, 0, 60, 80
2, 119153, Note_on_c, 0, 60, 0
2, 119160, Note_on_c, 0, 62, 80
2, 119273, Note_on_c, 0, 62, 0
2, 119280, Note_on_c, 0, 65, 80
2, 119393, Note_on_c, 0, 65, 0
2, 119400, Note_on_c, 0, 62, 80
2, 119513, Note_on_c, 0, 62, 0
2, 119520, Note_on_c, 0, 64, 80
2, 119633, Note_on_c, 0, 64, 0
2, 119640, Note_on_c, 0, 62, 80
2, 119753, Note_on_c, 0, 62, 0
2, 119760, Note_on_c, 0, 60, 80
2, 119873, Note_on_c, 0, 60, 0
2, 119880, Note_on_c, 0, 62, 80
2, 119993, Note_on_c, 0, 62, 0
2, 120000, Note_on_c, 0, 65, 80
2, 120113, Note_on_c, 0, 65, 0
2, 120120, Note_on_c, 0, 62, 80
2, 120233, Note_on_c, 0, 62, 0
2, 120240, Note_on_c, 0, 64, 80
2, 120353, Note_on_c, 0, 64, 0
2, 120360, Note_on_c, 0, 62, 80
2, 120473, Note_on_c, 0, 62, 0
2, 120480, Note_on_c, 0, 60, 80
2, 120593, Note_on_c, 0, 60, 0
2, 120600, Note_on_c, 0, 62, 80
2, 120713, Note_on_c, 0, 62, 0
2, 120720, Note_on_c, 0, 65, 80
2, 120833, Note_on_c, 0, 65, 0
2, 120840, Note_on_c, 0, 62, 80
2, 120953, Note_on_c, 0, 62, 0
2, 120960, Note_on_c, 0, 64, 80
2, 121073, Note_on_c, 0, 64, 0
2, 121080, Note_on_c, 0, 62, 80
2, 121193, Note_on_c, 0, 62, 0
2, 121200, Note_on_c, 0, 60, 80
2, 121313, Note_on_c, 0, 60, 0
2, 121320, Note_on_c, 0, 62, 80
2, 121433, Note_on_c, 0, 62, 0
2, 121440, Note_on_c, 0, 65, 80
2, 121553, Note_on_c, 0, 65, 0
2, 121560, Note_on_c, 0, 62, 80
2, 121673, Note_on_c, 0, 62, 0
2, 121680, Note_on_c, 0, 64, 80
2, 121793, Note_on_c, 0, 64, 0
2, 121800, Note_on_c, 0, 62, 80
2, 121913, Note_on_c, 0, 62, 0
2, 121920, Note_on_c, 0, 60, 80
2, 122033, Note_on_c, 0, 60, 0
2, 122040, Note_on_c, 0, 62, 80
2, 122153, Note_on_c, 0, 62, 0
2, 122160, Note_on_c, 0, 65, 80
2, 122273, Note_on_c, 0, 65, 0
2, 122280, Note_on_c, 0, 62, 80
2, 122393, Note_on_c, 0, 62, 0
2, 122400, Note_on_c, 0, 64, 80
2, 122513, Note_on_c, 0, 64, 0
2, 122520, Note_on_c, 0, 62, 80
2, 122633, Note_on_c, 0, 62, 0
2, 122640, Note_on_c, 0, 60, 80
2, 122753, Note_on_c, 0, 60, 0
2, 122760, Note_on_c, 0, 62, 80
2, 122873, Note_on_c, 0, 62, 0
2, 122880, Note_on_c, 0, 72, 80
2, 122993, Note_on_c, 0, 72, 0
2, 123000, Note_on_c, 0, 69, 80
2, 123113, Note_on_c, 0, 69, 0
2, 123120, Note_on_c, 0, 67, 80
2, 123233, Note_on_c, 0, 67, 0
2, 123240, Note_on_c, 0, 74, 80
2, 123353, Note_on_c, 0, 74, 0
2, 123360, Note_on_c, 0, 72, 80
2, 123473, Note_on_c, 0, 72, 0
2, 123480, Note_on_c, 0, 69, 80
2, 123593, Note_on_c, 0, 69, 0
2, 123600, Note_on_c, 0, 67, 80
2, 123713, Note_on_c, 0, 67, 0
2, 123720, Note_on_c, 0, 74, 80
2, 123833, Note_on_c, 0, 74, 0
2, 123840, Note_on_c, 0, 72, 80
2, 123953, Note_on_c, 0, 72, 0
2, 123960, Note_on_c, 0, 69, 80
2, 124073, Note_on_c, 0, 69, 0
2, 124080, Note_on_c, 0, 67, 80
2, 124193, Note_on_c, 0, 67, 0
2, 124200, Note_on_c, 0, 74, 80
2, 124313, Note_on_c, 0, 74, 0
2, 124320, Note_on_c, 0, 72, 80
2, 124433, Note_on_c, 0, 72, 0
2, 124440, Note_on_c, 0, 69, 80
2, 124553, Note_on_c, 0, 69, 0
2, 124560, Note_on_c, 0, 67, 80
2, 124673, Note_on_c, 0, 67, 0
2, 124680, Note_on_c, 0, 74, 80
2, 124793, Note_on_c, 0, 74, 0
2, 124800, Note_on_c, 0, 72, 80
2, 124913, Note_on_c, 0, 72, 0
2, 124920, Note_on_c, 0, 69, 80
2, 125033, Note_on_c, 0, 69, 0
2, 125040, Note_on_c, 0, 67, 80
2, 125153, Note_on_c, 0, 67, 0
2, 125160, Note_on_c, 0, 74, 80
2, 125273, Note_on_c, 0, 74, 0
2, 125280, Note_on_c, 0, 72, 80
2, 125393, Note_on_c, 0, 72, 0
2, 125400, Note_on_c, 0, 69, 80
2, 125513, Note_on_c, 0, 69, 0
2, 125520, Note_on_c, 0, 67, 80
2, 125633, Note_on_c, 0, 67, 0
2, 125640, Note_on_c, 0, 74, 80
2, 125753, Note_on_c, 0, 74, 0
2, 125760, Note_on_c, 0, 72, 80
2, 125873, Note_on_c, 0, 72, 0
2, 125880, Note_on_c, 0, 69, 80
2, 125993, Note_on_c, 0, 69, 0
2, 126000, Note_on_c, 0, 67, 80
2, 126113, Note_on_c, 0, 67, 0
2, 126120, Note_on_c, 0, 74, 80
2, 126233, Note_on_c, 0, 74, 0
2, 126240, Note_on_c, 0, 72, 80
2, 126353, Note_on_c, 0, 72, 0
2, 126360, Note_on_c, 0, 69, 80
2, 126473, Note_on_c, 0, 69, 0
2, 126480, Note_on_c, 0, 67, 80
2, 126593, Note_on_c, 0, 67, 0
2, 126600, Note_on_c, 0, 74, 80
2, 126713, Note_on_c, 0, 74, 0
2, 126720, Note_on_c, 0, 72, 80
2, 126833, Note_on_c, 0, 72, 0
2, 126840, Note_on_c, 0, 69, 80
2, 126959, Note_on_c, 0, 69, 0
2, 126960, Note_on_c, 0, 67, 80
2, 127080, Note_on_c, 0, 74, 80
2, 127187, Note_on_c, 0, 67, 0
2, 127193, Note_on_c, 0, 74, 0
2, 127200, Note_on_c, 0, 72, 80
2, 127313, Note_on_c, 0, 72, 0
2, 127320, Note_on_c, 0, 69, 80
2, 127439, Note_on_c, 0, 69, 0
2, 127440, Note_on_c, 0, 67, 80
2, 127560, Note_on_c, 0, 74, 80
2, 127667, Note_on_c, 0, 67, 0
2, 127673, Note_on_c, 0, 74, 0
2, 127680, Note_on_c, 0, 72, 80
2, 127793, Note_on_c, 0, 72, 0
2, 127800, Note_on_c, 0, 69, 80
2, 127913, Note_on_c, 0, 69, 0
2, 127920, Note_on_c, 0, 67, 80
2, 128033, Note_on_c, 0, 67, 0
2, 128040, Note_on_c, 0, 74, 80
2, 128153, Note_on_c, 0, 74, 0
2, 128160, Note_on_c, 0, 72, 80
2, 128273, Note_on_c, 0, 72, 0
2, 128280, Note_on_c, 0, 69, 80
2, 128393, Note_on_c, 0, 69, 0
2, 128400, Note_on_c, 0, 67, 80
2, 128513, Note_on_c, 0, 67, 0
2, 128520, Note_on_c, 0, 74, 80
2, 128633, Note_on_c, 0, 74, 0
2, 128640, Note_on_c, 0, 72, 80
2, 128753, Note_on_c, 0, 72, 0
2, 128760, Note_on_c, 0, 69, 80
2, 128873, Note_on_c, 0, 69, 0
2, 128880, Note_on_c, 0, 67, 80
2, 128993, Note_on_c, 0, 67, 0
2, 129000, Note_on_c, 0, 74, 80
2, 129113, Note_on_c, 0, 74, 0
2, 129120, Note_on_c, 0, 72, 80
2, 129233, Note_on_c, 0, 72, 0
2, 129240, Note_on_c, 0, 69, 80
2, 129353, Note_on_c, 0, 69, 0
2, 129360, Note_on_c, 0, 67, 80
2, 129473, Note_on_c, 0, 67, 0
2, 129480, Note_on_c, 0, 74, 80
2, 129593, Note_on_c, 0, 74, 0
2, 129600, Note_on_c, 0, 72, 80
2, 129713, Note_on_c, 0, 72, 0
2, 129720, Note_on_c, 0, 69, 80
2, 129833, Note_on_c, 0, 69, 0
2, 129840, Note_on_c, 0, 67, 80
2, 129953, Note_on_c, 0, 67, 0
2, 129960, Note_on_c, 0, 74, 80
2, 130073, Note_on_c, 0, 74, 0
2, 130080, Note_on_c, 0, 72, 80
2, 130193, Note_on_c, 0, 72, 0
2, 130200, Note_on_c, 0, 69, 80
2, 130313, Note_on_c, 0, 69, 0
2, 130320, Note_on_c, 0, 67, 80
2, 130433, Note_on_c, 0, 67, 0
2, 130440, Note_on_c, 0, 74, 80
2, 130553, Note_on_c, 0, 74, 0
2, 130560, Note_on_c, 0, 77, 96
2, 130673, Note_on_c, 0, 77, 0
2, 130680, Note_on_c, 0, 74, 96
2, 130793, Note_on_c, 0, 74, 0
2, 130800, Note_on_c, 0, 69, 96
2, 130913, Note_on_c, 0, 69, 0
2, 130920, Note_on_c, 0, 77, 96
2, 131033, Note_on_c, 0, 77, 0
2, 131040, Note_on_c, 0, 74, 96
2, 131153, Note_on_c, 0, 74, 0
2, 131160, Note_on_c, 0, 69, 96
2, 131273, Note_on_c, 0, 69, 0
2, 131280, Note_on_c, 0, 77, 96
2, 131393, Note_on_c, 0, 77, 0
2, 131400, Note_on_c, 0, 74, 96
2, 131513, Note_on_c, 0, 74, 0
2, 131616, Note_on_c, 0, 77, 96
2, 131706, Note_on_c, 0, 77, 0
2, 131712, Note_on_c, 0, 74, 96
2, 131802, Note_on_c, 0, 74, 0
2, 131904, Note_on_c, 0, 77, 96
2, 131994, Note_on_c, 0, 77, 0
2, 132000, Note_on_c, 0, 74, 96
2, 132090, Note_on_c, 0, 74, 0
2, 132192, Note_on_c, 0, 77, 96
2, 132282, Note_on_c, 0, 77, 0
2, 132288, Note_on_c, 0, 74, 96
2, 132378, Note_on_c, 0, 74, 0
2, 132480, Note_on_c, 0, 77, 96
2, 132593, Note_on_c, 0, 77, 0
2, 132600, Note_on_c, 0, 74, 96
2, 132713, Note_on_c, 0, 74, 0
2, 132720, Note_on_c, 0, 69, 96
2, 132833, Note_on_c, 0, 69, 0
2, 132840, Note_on_c, 0, 77, 96
2, 132953, Note_on_c, 0, 77, 0
2, 132960, Note_on_c, 0, 74, 96
2, 133073, Note_on_c, 0, 74, 0
2, 133080, Note_on_c, 0, 69, 96
2, 133193, Note_on_c, 0, 69, 0
2, 133200, Note_on_c, 0, 77, 96
2, 133313, Note_on_c, 0, 77, 0
2, 133320, Note_on_c, 0, 74, 96
2, 133433, Note_on_c, 0, 74, 0
2, 133536, Note_on_c, 0, 77, 96
2, 133626, Note_on_c, 0, 77, 0
2, 133632, Note_on_c, 0, 74, 96
2, 133722, Note_on_c, 0, 74, 0
2, 133824, Note_on_c, 0, 77, 96
2, 133914, Note_on_c, 0, 77, 0
2, 133920, Note_on_c, 0, 74, 96
2, 134010, Note_on_c, 0, 74, 0
2, 134112, Note_on_c, 0, 77, 96
2, 134202, Note_on_c, 0, 77, 0
2, 134208, Note_on_c, 0, 74, 96
2, 134298, Note_on_c, 0, 74, 0
2, 134400, Note_on_c, 0, 77, 96
2, 134513, Note_on_c, 0, 77, 0
2, 134520, Note_on_c, 0, 74, 96
2, 134633, Note_on_c, 0, 74, 0
2, 134640, Note_on_c, 0, 69, 96
2, 134753, Note_on_c, 0, 69, 0
2, 134760, Note_on_c, 0, 77, 96
2, 134873, Note_on_c, 0, 77, 0
2, 134880, Note_on_c, 0, 74, 96
2, 134993, Note_on_c, 0, 74, 0
2, 135000, Note_on_c, 0, 69, 96
2, 135113, Note_on_c, 0, 69, 0
2, 135120, Note_on_c, 0, 77, 96
2, 135233, Note_on_c, 0, 77, 0
2, 135240, Note_on_c, 0, 74, 96
2, 135353, Note_on_c, 0, 74, 0
2, 135456, Note_on_c, 0, 77, 96
2, 135546, Note_on_c, 0, 77, 0
2, 135552, Note_on_c, 0, 74, 96
2, 135642, Note_on_c, 0, 74, 0
2, 135744, Note_on_c, 0, 77, 96
2, 135834, Note_on_c, 0, 77, 0
2, 135840, Note_on_c, 0, 74, 96
2, 135930, Note_on_c, 0, 74, 0
2, 136032, Note_on_c, 0, 77, 96
2, 136122, Note_on_c, 0, 77, 0
2, 136128, Note_on_c, 0, 74, 96
2, 136218, Note_on_c, 0, 74, 0
2, 136320, Note_on_c, 0, 77, 96
2, 136433, Note_on_c, 0, 77, 0
2, 136440, Note_on_c, 0, 74, 96
2, 136553, Note_on_c, 0, 74, 0
2, 136560, Note_on_c, 0, 69, 96
2, 136673, Note_on_c, 0, 69, 0
2, 136680, Note_on_c, 0, 77, 96
2, 136793, Note_on_c, 0, 77, 0
2, 136800, Note_on_c, 0, 74, 96
2, 136913, Note_on_c, 0, 74, 0
2, 136920, Note_on_c, 0, 69, 96
2, 137033, Note_on_c, 0, 69, 0
2, 137040, Note_on_c, 0, 77, 96
2, 137153, Note_on_c, 0, 77, 0
2, 137160, Note_on_c, 0, 74, 96
2, 137273, Note_on_c, 0, 74, 0
2, 137280, Note_on_c, 0, 69, 96
2, 137393, Note_on_c, 0, 69, 0
2, 137400, Note_on_c, 0, 77, 96
2, 137513, Note_on_c, 0, 77, 0
2, 137520, Note_on_c, 0, 74, 96
2, 137633, Note_on_c, 0, 74, 0
2, 137640, Note_on_c, 0, 69, 96
2, 137753, Note_on_c, 0, 69, 0
2, 137760, Note_on_c, 0, 77, 96
2, 137873, Note_on_c, 0, 77, 0
2, 137880, Note_on_c, 0, 74, 96
2, 137993, Note_on_c, 0, 74, 0
2, 138000, Note_on_c, 0, 69, 96
2, 138227, Note_on_c, 0, 69, 0
2, 138240, Note_on_c, 0, 50, 96
2, 138467, Note_on_c, 0, 50, 0
2, 138480, Note_on_c, 0, 50, 96
2, 138707, Note_on_c, 0, 50, 0
2, 138720, Note_on_c, 0, 57, 96
2, 138720, Note_on_c, 0, 62, 96
2, 138947, Note_on_c, 0, 57, 0
2, 138947, Note_on_c, 0, 62, 0
2, 138960, Note_on_c, 0, 57, 96
2, 138960, Note_on_c, 0, 62, 96
2, 139187, Note_on_c, 0, 57, 0
2, 139187, Note_on_c, 0, 62, 0
2, 139200, Note_on_c, 0, 57, 96
2, 139200, Note_on_c, 0, 62, 96
2, 139427, Note_on_c, 0, 57, 0
2, 139427, Note_on_c, 0, 62, 0
2, 139440, Note_on_c, 0, 50, 96
2, 139667, Note_on_c, 0, 50, 0
2, 139680, Note_on_c, 0, 62, 96
2, 139907, Note_on_c, 0, 62, 0
2, 139920, Note_on_c, 0, 57, 96
2, 140147, Note_on_c, 0, 57, 0
2, 140160, Note_on_c, 0, 53, 96
2, 140387, Note_on_c, 0, 53, 0
2, 140400, Note_on_c, 0, 53, 96
2, 140627, Note_on_c, 0, 53, 0
2, 140640, Note_on_c, 0, 60, 96
2, 140640, Note_on_c, 0, 65, 96
2, 140867, Note_on_c, 0, 60, 0
2, 140867, Note_on_c, 0, 65, 0
2, 140880, Note_on_c, 0, 60, 96
2, 140880, Note_on_c, 0, 65, 96
2, 141107, Note_on_c, 0, 60, 0
2, 141107, Note_on_c, 0, 65, 0
2, 141120, Note_on_c, 0, 60, 96
2, 141120, Note_on_c, 0, 65, 96
2, 141347, Note_on_c, 0, 60, 0
2, 141347, Note_on_c, 0, 65, 0
2, 141360, Note_on_c, 0, 53, 96
2, 141815, Note_on_c, 0, 53, 0
2, 141840, Note_on_c, 0, 60, 96
2, 142067, Note_on_c, 0, 60, 0
2, 142080, Note_on_c, 0, 55, 96
2, 142307, Note_on_c, 0, 55, 0
2, 142320, Note_on_c, 0, 55, 96
2, 142547, Note_on_c, 0, 55, 0
2, 142560, Note_on_c, 0, 62, 96
2, 142787, Note_on_c, 0, 62, 0
2, 142800, Note_on_c, 0, 62, 96
2, 143027, Note_on_c, 0, 62, 0
2, 143040, Note_on_c, 0, 62, 96
2, 143267, Note_on_c, 0, 62, 0
2, 143280, Note_on_c, 0, 55, 96
2, 143507, Note_on_c, 0, 55, 0
2, 143520, Note_on_c, 0, 55, 96
2, 143747, Note_on_c, 0, 55, 0
2, 143760, Note_on_c, 0, 62, 96
2, 143987, Note_on_c, 0, 62, 0
2, 144000, Note_on_c, 0, 55, 96
2, 144227, Note_on_c, 0, 55, 0
2, 144240, Note_on_c, 0, 55, 96
2, 144467, Note_on_c, 0, 55, 0
2, 144480, Note_on_c, 0, 62, 96
2, 144707, Note_on_c, 0, 62, 0
2, 144720, Note_on_c, 0, 62, 96
2, 144947, Note_on_c, 0, 62, 0
2, 144960, Note_on_c, 0, 62, 96
2, 145187, Note_on_c, 0, 62, 0
2, 145200, Note_on_c, 0, 55, 96
2, 145427, Note_on_c, 0, 55, 0
2, 145440, Note_on_c, 0, 55, 96
2, 145667, Note_on_c, 0, 55, 0
2, 145680, Note_on_c, 0, 50, 96
2, 145907, Note_on_c, 0, 50, 0
2, 145920, Note_on_c, 0, 50, 96
2, 145920, Note_on_c, 0, 57, 96
2, 146147, Note_on_c, 0, 50, 0
2, 146147, Note_on_c, 0, 57, 0
2, 146160, Note_on_c, 0, 50, 96
2, 146387, Note_on_c, 0, 50, 0
2, 146400, Note_on_c, 0, 57, 96
2, 146627, Note_on_c, 0, 57, 0
2, 146640, Note_on_c, 0, 57, 96
2, 146867, Note_on_c, 0, 57, 0
2, 146880, Note_on_c, 0, 57, 96
2, 147107, Note_on_c, 0, 57, 0
2, 147120, Note_on_c, 0, 50, 96
2, 147347, Note_on_c, 0, 50, 0
2, 147360, Note_on_c, 0, 50, 96
2, 147587, Note_on_c, 0, 50, 0
2, 147600, Note_on_c, 0, 48, 96
2, 147827, Note_on_c, 0, 48, 0
2, 147840, Note_on_c, 0, 53, 96
2, 147840, Note_on_c, 0, 57, 96
2, 148067, Note_on_c, 0, 53, 0
2, 148067, Note_on_c, 0, 57, 0
2, 148080, Note_on_c, 0, 53, 96
2, 148307, Note_on_c, 0, 53, 0
2, 148320, Note_on_c, 0, 60, 96
2, 148547, Note_on_c, 0, 60, 0
2, 148560, Note_on_c, 0, 60, 96
2, 148787, Note_on_c, 0, 60, 0
2, 148800, Note_on_c, 0, 60, 96
2, 149027, Note_on_c, 0, 60, 0
2, 149040, Note_on_c, 0, 53, 96
2, 149267, Note_on_c, 0, 53, 0
2, 149280, Note_on_c, 0, 53, 96
2, 149507, Note_on_c, 0, 53, 0
2, 149520, Note_on_c, 0, 48, 96
2, 149747, Note_on_c, 0, 48, 0
2, 149760, Note_on_c, 0, 55, 96
2, 149760, Note_on_c, 0, 59, 96
2, 149987, Note_on_c, 0, 55, 0
2, 149987, Note_on_c, 0, 59, 0
2, 150000, Note_on_c, 0, 55, 96
2, 150227, Note_on_c, 0, 55, 0
2, 150240, Note_on_c, 0, 50, 96
2, 150240, Note_on_c, 0, 55, 96
2, 150467, Note_on_c, 0, 50, 0
2, 150467, Note_on_c, 0, 55, 0
2, 150480, Note_on_c, 0, 50, 96
2, 150480, Note_on_c, 0, 55, 96
2, 150707, Note_on_c, 0, 50, 0
2, 150707, Note_on_c, 0, 55, 0
2, 150720, Note_on_c, 0, 50, 96
2, 150720, Note_on_c, 0, 55, 96
2, 150947, Note_on_c, 0, 50, 0
2, 150947, Note_on_c, 0, 55, 0
2, 150960, Note_on_c, 0, 55, 96
2, 151187, Note_on_c, 0, 55, 0
2, 151200, Note_on_c, 0, 55, 96
2, 151427, Note_on_c, 0, 55, 0
2, 151440, Note_on_c, 0, 50, 96
2, 151667, Note_on_c, 0, 50, 0
2, 151680, Note_on_c, 0, 50, 96
2, 151680, Note_on_c, 0, 55, 96
2, 151907, Note_on_c, 0, 50, 0
2, 151907, Note_on_c, 0, 55, 0
2, 151920, Note_on_c, 0, 50, 96
2, 151920, Note_on_c, 0, 55, 96
2, 152147, Note_on_c, 0, 50, 0
2, 152147, Note_on_c, 0, 55, 0
2, 152160, Note_on_c, 0, 50, 96
2, 152160, Note_on_c, 0, 55, 96
2, 152387, Note_on_c, 0, 50, 0
2, 152387, Note_on_c, 0, 55, 0
2, 152400, Note_on_c, 0, 50, 96
2, 152400, Note_on_c, 0, 55, 96
2, 152627, Note_on_c, 0, 50, 0
2, 152627, Note_on_c, 0, 55, 0
2, 152640, Note_on_c, 0, 50, 96
2, 152640, Note_on_c, 0, 55, 96
2, 152867, Note_on_c, 0, 50, 0
2, 152867, Note_on_c, 0, 55, 0
2, 152880, Note_on_c, 0, 50, 96
2, 152880, Note_on_c, 0, 55, 96
2, 153107, Note_on_c, 0, 50, 0
2, 153107, Note_on_c, 0, 55, 0
2, 153120, Note_on_c, 0, 50, 96
2, 153120, Note_on_c, 0, 55, 96
2, 153347, Note_on_c, 0, 50, 0
2, 153347, Note_on_c, 0, 55, 0
2, 153360, Note_on_c, 0, 50, 96
2, 153360, Note_on_c, 0, 55, 96
2, 153587, Note_on_c, 0, 50, 0
2, 153587, Note_on_c, 0, 55, 0
2, 153600, Note_on_c, 0, 50, 96
2, 153600, Note_on_c, 0, 57, 96
2, 154055, Note_on_c, 0, 50, 0
2, 154055, Note_on_c, 0, 57, 0
2, 154080, Note_on_c, 0, 50, 96
2, 154080, Note_on_c, 0, 57, 96
2, 154307, Note_on_c, 0, 50, 0
2, 154307, Note_on_c, 0, 57, 0
2, 154320, Note_on_c, 0, 50, 96
2, 154320, Note_on_c, 0, 57, 96
2, 154547, Note_on_c, 0, 50, 0
2, 154547, Note_on_c, 0, 57, 0
2, 154560, Note_on_c, 0, 50, 96
2, 154560, Note_on_c, 0, 57, 96
2, 154787, Note_on_c, 0, 50, 0
2, 154787, Note_on_c, 0, 57, 0
2, 154800, Note_on_c, 0, 50, 96
2, 155027, Note_on_c, 0, 50, 0
2, 155040, Note_on_c, 0, 50, 96
2, 155040, Note_on_c, 0, 57, 96
2, 155267, Note_on_c, 0, 50, 0
2, 155267, Note_on_c, 0, 57, 0
2, 155280, Note_on_c, 0, 53, 96
2, 155280, Note_on_c, 0, 57, 96
2, 155507, Note_on_c, 0, 53, 0
2, 155507, Note_on_c, 0, 57, 0
2, 155760, Note_on_c, 0, 48, 96
2, 155760, Note_on_c, 0, 53, 96
2, 156215, Note_on_c, 0, 48, 0
2, 156215, Note_on_c, 0, 53, 0
2, 156240, Note_on_c, 0, 48, 96
2, 156240, Note_on_c, 0, 53, 96
2, 156467, Note_on_c, 0, 48, 0
2, 156467, Note_on_c, 0, 53, 0
2, 156480, Note_on_c, 0, 48, 96
2, 156480, Note_on_c, 0, 53, 96
2, 156707, Note_on_c, 0, 48, 0
2, 156707, Note_on_c, 0, 53, 0
2, 156720, Note_on_c, 0, 48, 96
2, 156720, Note_on_c, 0, 53, 96
2, 156947, Note_on_c, 0, 48, 0
2, 156947, Note_on_c, 0, 53, 0
2, 156960, Note_on_c, 0, 48, 96
2, 156960, Note_on_c, 0, 53, 96
2, 157187, Note_on_c, 0, 48, 0
2, 157187, Note_on_c, 0, 53, 0
2, 157200, Note_on_c, 0, 48, 96
2, 157200, Note_on_c, 0, 53, 96
2, 157427, Note_on_c, 0, 48, 0
2, 157427, Note_on_c, 0, 53, 0
2, 157440, Note_on_c, 0, 50, 96
2, 157440, Note_on_c, 0, 55, 96
2, 157895, Note_on_c, 0, 50, 0
2, 157895, Note_on_c, 0, 55, 0
2, 157920, Note_on_c, 0, 50, 96
2, 157920, Note_on_c, 0, 55, 96
2, 158147, Note_on_c, 0, 50, 0
2, 158147, Note_on_c, 0, 55, 0
2, 158160, Note_on_c, 0, 50, 96
2, 158160, Note_on_c, 0, 55, 96
2, 158387, Note_on_c, 0, 50, 0
2, 158387, Note_on_c, 0, 55, 0
2, 158400, Note_on_c, 0, 50, 96
2, 158400, Note_on_c, 0, 55, 96
2, 158627, Note_on_c, 0, 50, 0
2, 158627, Note_on_c, 0, 55, 0
2, 158640, Note_on_c, 0, 50, 96
2, 158867, Note_on_c, 0, 50, 0
2, 158880, Note_on_c, 0, 50, 96
2, 158880, Note_on_c, 0, 55, 96
2, 159107, Note_on_c, 0, 50, 0
2, 159107, Note_on_c, 0, 55, 0
2, 159120, Note_on_c, 0, 50, 96
2, 159120, Note_on_c, 0, 55, 96
2, 159575, Note_on_c, 0, 50, 0
2, 159575, Note_on_c, 0, 55, 0
2, 159600, Note_on_c, 0, 50, 96
2, 159600, Note_on_c, 0, 55, 96
2, 160055, Note_on_c, 0, 50, 0
2, 160055, Note_on_c, 0, 55, 0
2, 160080, Note_on_c, 0, 50, 96
2, 160080, Note_on_c, 0, 55, 96
2, 160307, Note_on_c, 0, 50, 0
2, 160307, Note_on_c, 0, 55, 0
2, 160320, Note_on_c, 0, 50, 96
2, 160320, Note_on_c, 0, 55, 96
2, 160547, Note_on_c, 0, 50, 0
2, 160547, Note_on_c, 0, 55, 0
2, 160560, Note_on_c, 0, 50, 96
2, 160560, Note_on_c, 0, 55, 96
2, 160787, Note_on_c, 0, 50, 0
2, 160787, Note_on_c, 0, 55, 0
2, 160800, Note_on_c, 0, 50, 96
2, 160800, Note_on_c, 0, 55, 96
2, 161027, Note_on_c, 0, 50, 0
2, 161027, Note_on_c, 0, 55, 0
2, 161040, Note_on_c, 0, 50, 96
2, 161040, Note_on_c, 0, 55, 96
2, 161267, Note_on_c, 0, 50, 0
2, 161267, Note_on_c, 0, 55, 0
2, 161280, Note_on_c, 0, 50, 96
2, 161280, Note_on_c, 0, 57, 96
2, 161735, Note_on_c, 0, 50, 0
2, 161735, Note_on_c, 0, 57, 0
2, 161760, Note_on_c, 0, 50, 96
2, 161760, Note_on_c, 0, 57, 96
2, 161987, Note_on_c, 0, 50, 0
2, 161987, Note_on_c, 0, 57, 0
2, 162000, Note_on_c, 0, 50, 96
2, 162000, Note_on_c, 0, 57, 96
2, 162227, Note_on_c, 0, 50, 0
2, 162227, Note_on_c, 0, 57, 0
2, 162240, Note_on_c, 0, 50, 96
2, 162240, Note_on_c, 0, 57, 96
2, 162467, Note_on_c, 0, 50, 0
2, 162467, Note_on_c, 0, 57, 0
2, 162480, Note_on_c, 0, 50, 96
2, 162707, Note_on_c, 0, 50, 0
2, 162720, Note_on_c, 0, 50, 96
2, 162720, Note_on_c, 0, 57, 96
2, 162947, Note_on_c, 0, 50, 0
2, 162947, Note_on_c, 0, 57, 0
2, 162960, Note_on_c, 0, 53, 96
2, 162960, Note_on_c, 0, 57, 96
2, 163187, Note_on_c, 0, 53, 0
2, 163187, Note_on_c, 0, 57, 0
2, 163440, Note_on_c, 0, 48, 96
2, 163440, Note_on_c, 0, 53, 96
2, 163895, Note_on_c, 0, 48, 0
2, 163895, Note_on_c, 0, 53, 0
2, 163920, Note_on_c, 0, 48, 96
2, 163920, Note_on_c, 0, 53, 96
2, 164147, Note_on_c, 0, 48, 0
2, 164147, Note_on_c, 0, 53, 0
2, 164160, Note_on_c, 0, 48, 96
2, 164160, Note_on_c, 0, 53, 96
2, 164387, Note_on_c, 0, 48, 0
2, 164387, Note_on_c, 0, 53, 0
2, 164400, Note_on_c, 0, 48, 96
2, 164400, Note_on_c, 0, 53, 96
2, 164627, Note_on_c, 0, 48, 0
2, 164627, Note_on_c, 0, 53, 0
2, 164640, Note_on_c, 0, 48, 96
2, 164640, Note_on_c, 0, 53, 96
2, 164867, Note_on_c, 0, 48, 0
2, 164867, Note_on_c, 0, 53, 0
2, 164880, Note_on_c, 0, 48, 96
2, 164880, Note_on_c, 0, 53, 96
2, 165107, Note_on_c, 0, 48, 0
2, 165107, Note_on_c, 0, 53, 0
2, 165120, Note_on_c, 0, 50, 96
2, 165120, Note_on_c, 0, 55, 96
2, 165575, Note_on_c, 0, 50, 0
2, 165575, Note_on_c, 0, 55, 0
2, 165600, Note_on_c, 0, 50, 96
2, 165600, Note_on_c, 0, 55, 96
2, 165827, Note_on_c, 0, 50, 0
2, 165827, Note_on_c, 0, 55, 0
2, 165840, Note_on_c, 0, 50, 96
2, 165840, Note_on_c, 0, 55, 96
2, 166067, Note_on_c, 0, 50, 0
2, 166067, Note_on_c, 0, 55, 0
2, 166080, Note_on_c, 0, 50, 96
2, 166080, Note_on_c, 0, 55, 96
2, 166307, Note_on_c, 0, 50, 0
2, 166307, Note_on_c, 0, 55, 0
2, 166320, Note_on_c, 0, 50, 96
2, 166547, Note_on_c, 0, 50, 0
2, 166560, Note_on_c, 0, 50, 96
2, 166560, Note_on_c, 0, 55, 96
2, 166787, Note_on_c, 0, 50, 0
2, 166787, Note_on_c, 0, 55, 0
2, 166800, Note_on_c, 0, 50, 96
2, 166800, Note_on_c, 0, 55, 96
2, 167255, Note_on_c, 0, 50, 0
2, 167255, Note_on_c, 0, 55, 0
2, 167280, Note_on_c, 0, 50, 96
2, 167280, Note_on_c, 0, 55, 96
2, 167735, Note_on_c, 0, 50, 0
2, 167735, Note_on_c, 0, 55, 0
2, 167760, Note_on_c, 0, 50, 96
2, 167760, Note_on_c, 0, 55, 96
2, 167987, Note_on_c, 0, 50, 0
2, 167987, Note_on_c, 0, 55, 0
2, 168000, Note_on_c, 0, 50, 96
2, 168000, Note_on_c, 0, 55, 96
2, 168227, Note_on_c, 0, 50, 0
2, 168227, Note_on_c, 0, 55, 0
2, 168240, Note_on_c, 0, 50, 96
2, 168240, Note_on_c, 0, 55, 96
2, 168467, Note_on_c, 0, 50, 0
2, 168467, Note_on_c, 0, 55, 0
2, 168480, Note_on_c, 0, 50, 96
2, 168480, Note_on_c, 0, 55, 96
2, 168707, Note_on_c, 0, 50, 0
2, 168707, Note_on_c, 0, 55, 0
2, 168720, Note_on_c, 0, 50, 96
2, 168720, Note_on_c, 0, 55, 96
2, 168947, Note_on_c, 0, 50, 0
2, 168947, Note_on_c, 0, 55, 0
2, 168960, Note_on_c, 0, 50, 96
2, 168960, Note_on_c, 0, 57, 96
2, 169871, Note_on_c, 0, 50, 0
2, 169871, Note_on_c, 0, 57, 0
2, 176640, Note_on_c, 0, 50, 96
2, 177551, Note_on_c, 0, 50, 0
2, 177552, End_track
3, 0, Start_track
3, 0, Title_t, "Electric Bass, Bass\000"
3, 0, Key_signature, 0, "major"
3, 0, Control_c, 2, 121, 0
3, 0, Program_c, 2, 33
3, 0, Control_c, 2, 7, 100
3, 0, Control_c, 2, 10, 64
3, 0, Control_c, 2, 91, 0
3, 0, Control_c, 2, 93, 0
3, 0, MIDI_port, 0
3, 0, Note_on_c, 2, 62, 80
3, 0, Control_c, 1, 121, 0
3, 0, Program_c, 1, 36
3, 0, Control_c, 1, 7, 100
3, 0, Control_c, 1, 10, 64
3, 0, Control_c, 1, 91, 0
3, 0, Control_c, 1, 93, 0
3, 0, MIDI_port, 0
3, 0, Control_c, 3, 121, 0
3, 0, Program_c, 3, 37
3, 0, Control_c, 3, 7, 100
3, 0, Control_c, 3, 10, 64
3, 0, Control_c, 3, 91, 0
3, 0, Control_c, 3, 93, 0
3, 0, MIDI_port, 0
3, 239, Note_on_c, 2, 62, 0
3, 240, Note_on_c, 2, 62, 80
3, 479, Note_on_c, 2, 62, 0
3, 480, Note_on_c, 2, 59, 80
3, 719, Note_on_c, 2, 59, 0
3, 720, Note_on_c, 2, 62, 80
3, 1439, Note_on_c, 2, 62, 0
3, 1440, Note_on_c, 2, 62, 80
3, 1679, Note_on_c, 2, 62, 0
3, 1680, Note_on_c, 2, 65, 80
3, 2159, Note_on_c, 2, 65, 0
3, 2160, Note_on_c, 2, 65, 80
3, 2639, Note_on_c, 2, 65, 0
3, 2640, Note_on_c, 2, 65, 80
3, 3119, Note_on_c, 2, 65, 0
3, 3120, Note_on_c, 2, 65, 80
3, 3359, Note_on_c, 2, 65, 0
3, 3360, Note_on_c, 2, 65, 80
3, 3839, Note_on_c, 2, 65, 0
3, 3840, Note_on_c, 2, 67, 80
3, 4559, Note_on_c, 2, 67, 0
3, 4560, Note_on_c, 2, 67, 80
3, 4799, Note_on_c, 2, 67, 0
3, 4800, Note_on_c, 2, 67, 80
3, 5039, Note_on_c, 2, 67, 0
3, 5040, Note_on_c, 2, 67, 80
3, 5519, Note_on_c, 2, 67, 0
3, 5520, Note_on_c, 2, 67, 80
3, 5999, Note_on_c, 2, 67, 0
3, 6000, Note_on_c, 2, 67, 80
3, 6239, Note_on_c, 2, 67, 0
3, 6240, Note_on_c, 2, 59, 80
3, 6719, Note_on_c, 2, 59, 0
3, 6720, Note_on_c, 2, 60, 80
3, 6959, Note_on_c, 2, 60, 0
3, 6960, Note_on_c, 2, 60, 80
3, 7199, Note_on_c, 2, 60, 0
3, 7200, Note_on_c, 2, 62, 80
3, 7679, Note_on_c, 2, 62, 0
3, 7680, Note_on_c, 2, 62, 80
3, 7919, Note_on_c, 2, 62, 0
3, 7920, Note_on_c, 2, 62, 80
3, 8159, Note_on_c, 2, 62, 0
3, 8160, Note_on_c, 2, 59, 80
3, 8399, Note_on_c, 2, 59, 0
3, 8400, Note_on_c, 2, 62, 80
3, 9119, Note_on_c, 2, 62, 0
3, 9120, Note_on_c, 2, 62, 80
3, 9359, Note_on_c, 2, 62, 0
3, 9360, Note_on_c, 2, 65, 80
3, 9839, Note_on_c, 2, 65, 0
3, 9840, Note_on_c, 2, 65, 80
3, 10319, Note_on_c, 2, 65, 0
3, 10320, Note_on_c, 2, 65, 80
3, 10799, Note_on_c, 2, 65, 0
3, 10800, Note_on_c, 2, 64, 80
3, 11039, Note_on_c, 2, 64, 0
3, 11040, Note_on_c, 2, 65, 80
3, 11519, Note_on_c, 2, 65, 0
3, 11520, Note_on_c, 2, 67, 80
3, 11759, Note_on_c, 2, 67, 0
3, 11760, Note_on_c, 2, 67, 80
3, 12239, Note_on_c, 2, 67, 0
3, 12240, Note_on_c, 2, 67, 80
3, 13199, Note_on_c, 2, 67, 0
3, 13200, Note_on_c, 2, 67, 80
3, 13439, Note_on_c, 2, 67, 0
3, 13440, Note_on_c, 2, 67, 80
3, 13679, Note_on_c, 2, 67, 0
3, 13680, Note_on_c, 2, 67, 80
3, 13919, Note_on_c, 2, 67, 0
3, 13920, Note_on_c, 2, 59, 80
3, 14399, Note_on_c, 2, 59, 0
3, 14400, Note_on_c, 2, 60, 80
3, 14879, Note_on_c, 2, 60, 0
3, 14880, Note_on_c, 2, 62, 80
3, 15359, Note_on_c, 2, 62, 0
3, 15360, Note_on_c, 2, 62, 80
3, 15599, Note_on_c, 2, 62, 0
3, 15600, Note_on_c, 2, 62, 80
3, 15839, Note_on_c, 2, 62, 0
3, 15840, Note_on_c, 2, 59, 80
3, 16079, Note_on_c, 2, 59, 0
3, 16080, Note_on_c, 2, 62, 80
3, 16799, Note_on_c, 2, 62, 0
3, 16800, Note_on_c, 2, 62, 80
3, 17039, Note_on_c, 2, 62, 0
3, 17040, Note_on_c, 2, 65, 80
3, 17519, Note_on_c, 2, 65, 0
3, 17520, Note_on_c, 2, 65, 80
3, 17999, Note_on_c, 2, 65, 0
3, 18000, Note_on_c, 2, 65, 80
3, 18479, Note_on_c, 2, 65, 0
3, 18480, Note_on_c, 2, 65, 80
3, 18719, Note_on_c, 2, 65, 0
3, 18720, Note_on_c, 2, 65, 80
3, 19199, Note_on_c, 2, 65, 0
3, 19200, Note_on_c, 2, 67, 80
3, 19919, Note_on_c, 2, 67, 0
3, 19920, Note_on_c, 2, 67, 80
3, 20159, Note_on_c, 2, 67, 0
3, 20160, Note_on_c, 2, 67, 80
3, 20399, Note_on_c, 2, 67, 0
3, 20400, Note_on_c, 2, 67, 80
3, 20879, Note_on_c, 2, 67, 0
3, 20880, Note_on_c, 2, 67, 80
3, 21359, Note_on_c, 2, 67, 0
3, 21360, Note_on_c, 2, 67, 80
3, 21599, Note_on_c, 2, 67, 0
3, 21600, Note_on_c, 2, 59, 80
3, 22079, Note_on_c, 2, 59, 0
3, 22080, Note_on_c, 2, 60, 80
3, 22319, Note_on_c, 2, 60, 0
3, 22320, Note_on_c, 2, 60, 80
3, 22559, Note_on_c, 2, 60, 0
3, 22560, Note_on_c, 2, 62, 80
3, 23039, Note_on_c, 2, 62, 0
3, 23040, Note_on_c, 2, 62, 80
3, 23279, Note_on_c, 2, 62, 0
3, 23280, Note_on_c, 2, 62, 80
3, 23519, Note_on_c, 2, 62, 0
3, 23520, Note_on_c, 2, 59, 80
3, 23759, Note_on_c, 2, 59, 0
3, 23760, Note_on_c, 2, 62, 80
3, 24479, Note_on_c, 2, 62, 0
3, 24480, Note_on_c, 2, 62, 80
3, 24719, Note_on_c, 2, 62, 0
3, 24720, Note_on_c, 2, 65, 80
3, 25199, Note_on_c, 2, 65, 0
3, 25200, Note_on_c, 2, 65, 80
3, 25679, Note_on_c, 2, 65, 0
3, 25680, Note_on_c, 2, 65, 80
3, 26159, Note_on_c, 2, 65, 0
3, 26160, Note_on_c, 2, 64, 80
3, 26399, Note_on_c, 2, 64, 0
3, 26400, Note_on_c, 2, 65, 80
3, 26639, Note_on_c, 2, 65, 0
3, 26640, Note_on_c, 2, 67, 80
3, 26879, Note_on_c, 2, 67, 0
3, 26880, Note_on_c, 2, 67, 80
3, 27119, Note_on_c, 2, 67, 0
3, 27120, Note_on_c, 2, 67, 80
3, 27599, Note_on_c, 2, 67, 0
3, 27600, Note_on_c, 2, 67, 80
3, 28559, Note_on_c, 2, 67, 0
3, 28560, Note_on_c, 2, 67, 80
3, 28799, Note_on_c, 2, 67, 0
3, 28800, Note_on_c, 2, 67, 80
3, 29039, Note_on_c, 2, 67, 0
3, 29040, Note_on_c, 2, 67, 80
3, 29279, Note_on_c, 2, 67, 0
3, 29280, Note_on_c, 2, 59, 80
3, 29759, Note_on_c, 2, 59, 0
3, 29760, Note_on_c, 2, 60, 80
3, 30239, Note_on_c, 2, 60, 0
3, 30240, Note_on_c, 2, 62, 80
3, 30719, Note_on_c, 2, 62, 0
3, 30720, Note_on_c, 2, 62, 80
3, 30959, Note_on_c, 2, 62, 0
3, 30960, Note_on_c, 2, 62, 80
3, 31199, Note_on_c, 2, 62, 0
3, 31200, Note_on_c, 2, 59, 80
3, 31439, Note_on_c, 2, 59, 0
3, 31440, Note_on_c, 2, 62, 80
3, 32159, Note_on_c, 2, 62, 0
3, 32160, Note_on_c, 2, 62, 80
3, 32399, Note_on_c, 2, 62, 0
3, 32400, Note_on_c, 2, 65, 80
3, 32879, Note_on_c, 2, 65, 0
3, 32880, Note_on_c, 2, 65, 80
3, 33359, Note_on_c, 2, 65, 0
3, 33360, Note_on_c, 2, 65, 80
3, 33839, Note_on_c, 2, 65, 0
3, 33840, Note_on_c, 2, 65, 80
3, 34079, Note_on_c, 2, 65, 0
3, 34080, Note_on_c, 2, 65, 80
3, 34559, Note_on_c, 2, 65, 0
3, 34560, Note_on_c, 2, 67, 80
3, 35279, Note_on_c, 2, 67, 0
3, 35280, Note_on_c, 2, 67, 80
3, 35519, Note_on_c, 2, 67, 0
3, 35520, Note_on_c, 2, 67, 80
3, 35759, Note_on_c, 2, 67, 0
3, 35760, Note_on_c, 2, 67, 80
3, 36239, Note_on_c, 2, 67, 0
3, 36240, Note_on_c, 2, 67, 80
3, 36719, Note_on_c, 2, 67, 0
3, 36720, Note_on_c, 2, 67, 80
3, 36959, Note_on_c, 2, 67, 0
3, 36960, Note_on_c, 2, 59, 80
3, 37439, Note_on_c, 2, 59, 0
3, 37440, Note_on_c, 2, 60, 80
3, 37679, Note_on_c, 2, 60, 0
3, 37680, Note_on_c, 2, 60, 80
3, 37919, Note_on_c, 2, 60, 0
3, 37920, Note_on_c, 2, 62, 80
3, 38399, Note_on_c, 2, 62, 0
3, 38400, Note_on_c, 2, 62, 80
3, 38639, Note_on_c, 2, 62, 0
3, 38640, Note_on_c, 2, 62, 80
3, 38879, Note_on_c, 2, 62, 0
3, 38880, Note_on_c, 2, 59, 80
3, 39119, Note_on_c, 2, 59, 0
3, 39120, Note_on_c, 2, 62, 80
3, 39839, Note_on_c, 2, 62, 0
3, 39840, Note_on_c, 2, 62, 80
3, 40079, Note_on_c, 2, 62, 0
3, 40080, Note_on_c, 2, 65, 80
3, 40559, Note_on_c, 2, 65, 0
3, 40560, Note_on_c, 2, 65, 80
3, 41039, Note_on_c, 2, 65, 0
3, 41040, Note_on_c, 2, 65, 80
3, 41519, Note_on_c, 2, 65, 0
3, 41520, Note_on_c, 2, 64, 80
3, 41759, Note_on_c, 2, 64, 0
3, 41760, Note_on_c, 2, 65, 80
3, 41999, Note_on_c, 2, 65, 0
3, 42000, Note_on_c, 2, 67, 80
3, 42239, Note_on_c, 2, 67, 0
3, 42240, Note_on_c, 2, 67, 80
3, 42479, Note_on_c, 2, 67, 0
3, 42480, Note_on_c, 2, 67, 80
3, 42959, Note_on_c, 2, 67, 0
3, 42960, Note_on_c, 2, 67, 80
3, 43919, Note_on_c, 2, 67, 0
3, 43920, Note_on_c, 2, 67, 80
3, 44159, Note_on_c, 2, 67, 0
3, 44160, Note_on_c, 2, 67, 80
3, 44399, Note_on_c, 2, 67, 0
3, 44400, Note_on_c, 2, 67, 80
3, 44639, Note_on_c, 2, 67, 0
3, 44640, Note_on_c, 2, 59, 80
3, 45119, Note_on_c, 2, 59, 0
3, 45120, Note_on_c, 2, 60, 80
3, 45599, Note_on_c, 2, 60, 0
3, 45600, Note_on_c, 2, 62, 80
3, 46079, Note_on_c, 2, 62, 0
3, 46080, Note_on_c, 2, 62, 80
3, 46319, Note_on_c, 2, 62, 0
3, 46320, Note_on_c, 2, 62, 80
3, 46559, Note_on_c, 2, 62, 0
3, 46560, Note_on_c, 2, 59, 80
3, 46799, Note_on_c, 2, 59, 0
3, 46800, Note_on_c, 2, 62, 80
3, 47519, Note_on_c, 2, 62, 0
3, 47520, Note_on_c, 2, 62, 80
3, 47759, Note_on_c, 2, 62, 0
3, 47760, Note_on_c, 2, 65, 80
3, 48239, Note_on_c, 2, 65, 0
3, 48240, Note_on_c, 2, 65, 80
3, 48719, Note_on_c, 2, 65, 0
3, 48720, Note_on_c, 2, 65, 80
3, 49199, Note_on_c, 2, 65, 0
3, 49200, Note_on_c, 2, 65, 80
3, 49439, Note_on_c, 2, 65, 0
3, 49440, Note_on_c, 2, 65, 80
3, 49919, Note_on_c, 2, 65, 0
3, 49920, Note_on_c, 2, 67, 80
3, 50639, Note_on_c, 2, 67, 0
3, 50640, Note_on_c, 2, 67, 80
3, 50879, Note_on_c, 2, 67, 0
3, 50880, Note_on_c, 2, 67, 80
3, 51119, Note_on_c, 2, 67, 0
3, 51120, Note_on_c, 2, 67, 80
3, 51599, Note_on_c, 2, 67, 0
3, 51600, Note_on_c, 2, 67, 80
3, 52079, Note_on_c, 2, 67, 0
3, 52080, Note_on_c, 2, 67, 80
3, 52319, Note_on_c, 2, 67, 0
3, 52320, Note_on_c, 2, 59, 80
3, 52799, Note_on_c, 2, 59, 0
3, 52800, Note_on_c, 2, 60, 80
3, 53039, Note_on_c, 2, 60, 0
3, 53040, Note_on_c, 2, 60, 80
3, 53279, Note_on_c, 2, 60, 0
3, 53280, Note_on_c, 2, 62, 80
3, 53759, Note_on_c, 2, 62, 0
3, 53760, Note_on_c, 2, 62, 80
3, 53999, Note_on_c, 2, 62, 0
3, 54000, Note_on_c, 2, 62, 80
3, 54239, Note_on_c, 2, 62, 0
3, 54240, Note_on_c, 2, 59, 80
3, 54479, Note_on_c, 2, 59, 0
3, 54480, Note_on_c, 2, 62, 80
3, 55199, Note_on_c, 2, 62, 0
3, 55200, Note_on_c, 2, 62, 80
3, 55439, Note_on_c, 2, 62, 0
3, 55440, Note_on_c, 2, 65, 80
3, 55919, Note_on_c, 2, 65, 0
3, 55920, Note_on_c, 2, 65, 80
3, 56399, Note_on_c, 2, 65, 0
3, 56400, Note_on_c, 2, 65, 80
3, 56879, Note_on_c, 2, 65, 0
3, 56880, Note_on_c, 2, 65, 80
3, 57119, Note_on_c, 2, 65, 0
3, 57120, Note_on_c, 2, 65, 80
3, 57599, Note_on_c, 2, 65, 0
3, 57600, Note_on_c, 2, 67, 80
3, 58319, Note_on_c, 2, 67, 0
3, 58320, Note_on_c, 2, 67, 80
3, 58559, Note_on_c, 2, 67, 0
3, 58560, Note_on_c, 2, 67, 80
3, 58799, Note_on_c, 2, 67, 0
3, 58800, Note_on_c, 2, 67, 80
3, 59279, Note_on_c, 2, 67, 0
3, 59280, Note_on_c, 2, 67, 80
3, 59759, Note_on_c, 2, 67, 0
3, 59760, Note_on_c, 2, 67, 80
3, 59999, Note_on_c, 2, 67, 0
3, 60000, Note_on_c, 2, 59, 80
3, 60479, Note_on_c, 2, 59, 0
3, 60480, Note_on_c, 2, 60, 80
3, 60719, Note_on_c, 2, 60, 0
3, 60720, Note_on_c, 2, 60, 80
3, 60959, Note_on_c, 2, 60, 0
3, 60960, Note_on_c, 2, 62, 80
3, 61439, Note_on_c, 2, 62, 0
3, 61440, Note_on_c, 2, 62, 80
3, 61679, Note_on_c, 2, 62, 0
3, 61680, Note_on_c, 2, 62, 80
3, 61919, Note_on_c, 2, 62, 0
3, 61920, Note_on_c, 2, 59, 80
3, 62159, Note_on_c, 2, 59, 0
3, 62160, Note_on_c, 2, 62, 80
3, 62879, Note_on_c, 2, 62, 0
3, 62880, Note_on_c, 2, 62, 80
3, 63119, Note_on_c, 2, 62, 0
3, 63120, Note_on_c, 2, 65, 80
3, 63599, Note_on_c, 2, 65, 0
3, 63600, Note_on_c, 2, 65, 80
3, 64079, Note_on_c, 2, 65, 0
3, 64080, Note_on_c, 2, 65, 80
3, 64559, Note_on_c, 2, 65, 0
3, 64560, Note_on_c, 2, 64, 80
3, 64799, Note_on_c, 2, 64, 0
3, 64800, Note_on_c, 2, 65, 80
3, 65039, Note_on_c, 2, 65, 0
3, 65040, Note_on_c, 2, 67, 80
3, 65279, Note_on_c, 2, 67, 0
3, 65280, Note_on_c, 2, 67, 80
3, 65519, Note_on_c, 2, 67, 0
3, 65520, Note_on_c, 2, 67, 80
3, 65999, Note_on_c, 2, 67, 0
3, 66000, Note_on_c, 2, 67, 80
3, 66959, Note_on_c, 2, 67, 0
3, 66960, Note_on_c, 2, 67, 80
3, 67199, Note_on_c, 2, 67, 0
3, 67200, Note_on_c, 2, 67, 80
3, 67439, Note_on_c, 2, 67, 0
3, 67440, Note_on_c, 2, 67, 80
3, 67679, Note_on_c, 2, 67, 0
3, 67680, Note_on_c, 2, 59, 80
3, 68159, Note_on_c, 2, 59, 0
3, 68160, Note_on_c, 2, 60, 80
3, 68639, Note_on_c, 2, 60, 0
3, 68640, Note_on_c, 2, 62, 80
3, 69119, Note_on_c, 2, 62, 0
3, 69120, Note_on_c, 2, 62, 80
3, 69359, Note_on_c, 2, 62, 0
3, 69360, Note_on_c, 2, 62, 80
3, 69599, Note_on_c, 2, 62, 0
3, 69600, Note_on_c, 2, 59, 80
3, 69839, Note_on_c, 2, 59, 0
3, 69840, Note_on_c, 2, 62, 80
3, 70559, Note_on_c, 2, 62, 0
3, 70560, Note_on_c, 2, 62, 80
3, 70799, Note_on_c, 2, 62, 0
3, 70800, Note_on_c, 2, 65, 80
3, 71279, Note_on_c, 2, 65, 0
3, 71280, Note_on_c, 2, 65, 80
3, 71759, Note_on_c, 2, 65, 0
3, 71760, Note_on_c, 2, 65, 80
3, 72239, Note_on_c, 2, 65, 0
3, 72240, Note_on_c, 2, 65, 80
3, 72479, Note_on_c, 2, 65, 0
3, 72480, Note_on_c, 2, 65, 80
3, 72959, Note_on_c, 2, 65, 0
3, 72960, Note_on_c, 2, 67, 80
3, 73679, Note_on_c, 2, 67, 0
3, 73680, Note_on_c, 2, 67, 80
3, 73919, Note_on_c, 2, 67, 0
3, 73920, Note_on_c, 2, 67, 80
3, 74159, Note_on_c, 2, 67, 0
3, 74160, Note_on_c, 2, 67, 80
3, 74639, Note_on_c, 2, 67, 0
3, 74640, Note_on_c, 2, 67, 80
3, 75119, Note_on_c, 2, 67, 0
3, 75120, Note_on_c, 2, 67, 80
3, 75359, Note_on_c, 2, 67, 0
3, 75360, Note_on_c, 2, 59, 80
3, 75839, Note_on_c, 2, 59, 0
3, 75840, Note_on_c, 2, 60, 80
3, 76079, Note_on_c, 2, 60, 0
3, 76080, Note_on_c, 2, 60, 80
3, 76319, Note_on_c, 2, 60, 0
3, 76320, Note_on_c, 2, 62, 80
3, 76799, Note_on_c, 2, 62, 0
3, 76800, Note_on_c, 2, 62, 80
3, 77039, Note_on_c, 2, 62, 0
3, 77040, Note_on_c, 2, 62, 80
3, 77279, Note_on_c, 2, 62, 0
3, 77280, Note_on_c, 2, 59, 80
3, 77519, Note_on_c, 2, 59, 0
3, 77520, Note_on_c, 2, 62, 80
3, 78239, Note_on_c, 2, 62, 0
3, 78240, Note_on_c, 2, 62, 80
3, 78479, Note_on_c, 2, 62, 0
3, 78480, Note_on_c, 2, 65, 80
3, 78959, Note_on_c, 2, 65, 0
3, 78960, Note_on_c, 2, 65, 80
3, 79439, Note_on_c, 2, 65, 0
3, 79440, Note_on_c, 2, 65, 80
3, 79919, Note_on_c, 2, 65, 0
3, 79920, Note_on_c, 2, 60, 80
3, 80159, Note_on_c, 2, 60, 0
3, 80160, Note_on_c, 2, 64, 80
3, 80399, Note_on_c, 2, 64, 0
3, 80400, Note_on_c, 2, 65, 80
3, 80639, Note_on_c, 2, 65, 0
3, 80640, Note_on_c, 2, 67, 80
3, 80879, Note_on_c, 2, 67, 0
3, 80880, Note_on_c, 2, 67, 80
3, 81359, Note_on_c, 2, 67, 0
3, 81360, Note_on_c, 2, 67, 80
3, 82319, Note_on_c, 2, 67, 0
3, 82320, Note_on_c, 2, 67, 80
3, 82559, Note_on_c, 2, 67, 0
3, 82560, Note_on_c, 2, 67, 80
3, 82799, Note_on_c, 2, 67, 0
3, 82800, Note_on_c, 2, 67, 80
3, 83039, Note_on_c, 2, 67, 0
3, 83040, Note_on_c, 2, 59, 80
3, 83519, Note_on_c, 2, 59, 0
3, 83520, Note_on_c, 2, 60, 80
3, 83999, Note_on_c, 2, 60, 0
3, 84000, Note_on_c, 2, 62, 80
3, 84479, Note_on_c, 2, 62, 0
3, 84480, Note_on_c, 2, 62, 80
3, 84719, Note_on_c, 2, 62, 0
3, 84720, Note_on_c, 2, 62, 80
3, 84959, Note_on_c, 2, 62, 0
3, 84960, Note_on_c, 2, 59, 80
3, 85199, Note_on_c, 2, 59, 0
3, 85200, Note_on_c, 2, 62, 80
3, 85919, Note_on_c, 2, 62, 0
3, 85920, Note_on_c, 2, 62, 80
3, 86159, Note_on_c, 2, 62, 0
3, 86160, Note_on_c, 2, 65, 80
3, 86639, Note_on_c, 2, 65, 0
3, 86640, Note_on_c, 2, 65, 80
3, 87119, Note_on_c, 2, 65, 0
3, 87120, Note_on_c, 2, 65, 80
3, 87599, Note_on_c, 2, 65, 0
3, 87600, Note_on_c, 2, 65, 80
3, 87839, Note_on_c, 2, 65, 0
3, 87840, Note_on_c, 2, 65, 80
3, 88319, Note_on_c, 2, 65, 0
3, 88320, Note_on_c, 2, 67, 80
3, 89039, Note_on_c, 2, 67, 0
3, 89040, Note_on_c, 2, 67, 80
3, 89279, Note_on_c, 2, 67, 0
3, 89280, Note_on_c, 2, 67, 80
3, 89519, Note_on_c, 2, 67, 0
3, 89520, Note_on_c, 2, 67, 80
3, 89999, Note_on_c, 2, 67, 0
3, 90000, Note_on_c, 2, 67, 80
3, 90479, Note_on_c, 2, 67, 0
3, 90480, Note_on_c, 2, 67, 80
3, 90719, Note_on_c, 2, 67, 0
3, 90720, Note_on_c, 2, 59, 80
3, 91199, Note_on_c, 2, 59, 0
3, 91200, Note_on_c, 2, 60, 80
3, 91439, Note_on_c, 2, 60, 0
3, 91440, Note_on_c, 2, 60, 80
3, 91679, Note_on_c, 2, 60, 0
3, 91680, Note_on_c, 2, 62, 80
3, 92159, Note_on_c, 2, 62, 0
3, 92160, Note_on_c, 2, 62, 80
3, 92399, Note_on_c, 2, 62, 0
3, 92400, Note_on_c, 2, 62, 80
3, 92639, Note_on_c, 2, 62, 0
3, 92640, Note_on_c, 2, 59, 80
3, 92879, Note_on_c, 2, 59, 0
3, 92880, Note_on_c, 2, 62, 80
3, 93599, Note_on_c, 2, 62, 0
3, 93600, Note_on_c, 2, 62, 80
3, 93839, Note_on_c, 2, 62, 0
3, 93840, Note_on_c, 2, 65, 80
3, 94319, Note_on_c, 2, 65, 0
3, 94320, Note_on_c, 2, 65, 80
3, 94799, Note_on_c, 2, 65, 0
3, 94800, Note_on_c, 2, 65, 80
3, 95279, Note_on_c, 2, 65, 0
3, 95280, Note_on_c, 2, 60, 80
3, 95519, Note_on_c, 2, 60, 0
3, 95520, Note_on_c, 2, 64, 80
3, 95759, Note_on_c, 2, 64, 0
3, 95760, Note_on_c, 2, 65, 80
3, 95999, Note_on_c, 2, 65, 0
3, 96000, Note_on_c, 2, 67, 80
3, 96239, Note_on_c, 2, 67, 0
3, 96240, Note_on_c, 2, 67, 80
3, 96719, Note_on_c, 2, 67, 0
3, 96720, Note_on_c, 2, 67, 80
3, 97679, Note_on_c, 2, 67, 0
3, 97680, Note_on_c, 2, 67, 80
3, 97919, Note_on_c, 2, 67, 0
3, 97920, Note_on_c, 2, 67, 80
3, 98159, Note_on_c, 2, 67, 0
3, 98160, Note_on_c, 2, 67, 80
3, 98399, Note_on_c, 2, 67, 0
3, 98400, Note_on_c, 2, 59, 80
3, 98879, Note_on_c, 2, 59, 0
3, 98880, Note_on_c, 2, 60, 80
3, 99359, Note_on_c, 2, 60, 0
3, 99360, Note_on_c, 2, 62, 80
3, 99839, Note_on_c, 2, 62, 0
3, 99840, Note_on_c, 2, 62, 80
3, 100079, Note_on_c, 2, 62, 0
3, 100080, Note_on_c, 2, 62, 80
3, 100319, Note_on_c, 2, 62, 0
3, 100320, Note_on_c, 2, 59, 80
3, 100559, Note_on_c, 2, 59, 0
3, 100560, Note_on_c, 2, 62, 80
3, 101279, Note_on_c, 2, 62, 0
3, 101280, Note_on_c, 2, 62, 80
3, 101519, Note_on_c, 2, 62, 0
3, 101520, Note_on_c, 2, 65, 80
3, 101999, Note_on_c, 2, 65, 0
3, 102000, Note_on_c, 2, 65, 80
3, 102479, Note_on_c, 2, 65, 0
3, 102480, Note_on_c, 2, 65, 80
3, 102959, Note_on_c, 2, 65, 0
3, 102960, Note_on_c, 2, 65, 80
3, 103199, Note_on_c, 2, 65, 0
3, 103200, Note_on_c, 2, 65, 80
3, 103679, Note_on_c, 2, 65, 0
3, 103680, Note_on_c, 2, 67, 80
3, 104399, Note_on_c, 2, 67, 0
3, 104400, Note_on_c, 2, 67, 80
3, 104639, Note_on_c, 2, 67, 0
3, 104640, Note_on_c, 2, 67, 80
3, 104879, Note_on_c, 2, 67, 0
3, 104880, Note_on_c, 2, 67, 80
3, 105359, Note_on_c, 2, 67, 0
3, 105360, Note_on_c, 2, 67, 80
3, 105839, Note_on_c, 2, 67, 0
3, 105840, Note_on_c, 2, 67, 80
3, 106079, Note_on_c, 2, 67, 0
3, 106080, Note_on_c, 2, 59, 80
3, 106559, Note_on_c, 2, 59, 0
3, 106560, Note_on_c, 2, 60, 80
3, 106799, Note_on_c, 2, 60, 0
3, 106800, Note_on_c, 2, 60, 80
3, 107039, Note_on_c, 2, 60, 0
3, 107040, Note_on_c, 2, 62, 80
3, 107519, Note_on_c, 2, 62, 0
3, 107520, Note_on_c, 2, 62, 80
3, 107759, Note_on_c, 2, 62, 0
3, 107760, Note_on_c, 2, 62, 80
3, 107999, Note_on_c, 2, 62, 0
3, 108000, Note_on_c, 2, 59, 80
3, 108239, Note_on_c, 2, 59, 0
3, 108240, Note_on_c, 2, 62, 80
3, 108959, Note_on_c, 2, 62, 0
3, 108960, Note_on_c, 2, 62, 80
3, 109199, Note_on_c, 2, 62, 0
3, 109200, Note_on_c, 2, 65, 80
3, 109679, Note_on_c, 2, 65, 0
3, 109680, Note_on_c, 2, 65, 80
3, 110159, Note_on_c, 2, 65, 0
3, 110160, Note_on_c, 2, 65, 80
3, 110639, Note_on_c, 2, 65, 0
3, 110640, Note_on_c, 2, 64, 80
3, 110879, Note_on_c, 2, 64, 0
3, 110880, Note_on_c, 2, 65, 80
3, 111119, Note_on_c, 2, 65, 0
3, 111120, Note_on_c, 2, 67, 80
3, 111359, Note_on_c, 2, 67, 0
3, 111360, Note_on_c, 2, 67, 80
3, 111599, Note_on_c, 2, 67, 0
3, 111600, Note_on_c, 2, 67, 80
3, 112079, Note_on_c, 2, 67, 0
3, 112080, Note_on_c, 2, 67, 80
3, 113039, Note_on_c, 2, 67, 0
3, 113040, Note_on_c, 2, 67, 80
3, 113279, Note_on_c, 2, 67, 0
3, 113280, Note_on_c, 2, 67, 80
3, 113519, Note_on_c, 2, 67, 0
3, 113520, Note_on_c, 2, 67, 80
3, 113759, Note_on_c, 2, 67, 0
3, 113760, Note_on_c, 2, 59, 80
3, 114239, Note_on_c, 2, 59, 0
3, 114240, Note_on_c, 2, 60, 80
3, 114719, Note_on_c, 2, 60, 0
3, 114720, Note_on_c, 2, 62, 80
3, 115199, Note_on_c, 2, 62, 0
3, 115200, Note_on_c, 2, 62, 80
3, 115679, Note_on_c, 2, 62, 0
3, 115680, Note_on_c, 2, 62, 80
3, 116159, Note_on_c, 2, 62, 0
3, 117120, Note_on_c, 2, 53, 80
3, 117599, Note_on_c, 2, 53, 0
3, 117600, Note_on_c, 2, 53, 80
3, 118079, Note_on_c, 2, 53, 0
3, 119040, Note_on_c, 2, 55, 80
3, 119519, Note_on_c, 2, 55, 0
3, 119520, Note_on_c, 2, 55, 80
3, 119999, Note_on_c, 2, 55, 0
3, 120960, Note_on_c, 2, 55, 80
3, 121439, Note_on_c, 2, 55, 0
3, 121440, Note_on_c, 2, 55, 80
3, 121919, Note_on_c, 2, 55, 0
3, 121920, Note_on_c, 2, 55, 80
3, 122399, Note_on_c, 2, 55, 0
3, 122400, Note_on_c, 2, 55, 80
3, 122879, Note_on_c, 2, 55, 0
3, 122880, Note_on_c, 2, 62, 80
3, 123359, Note_on_c, 2, 62, 0
3, 123360, Note_on_c, 2, 62, 80
3, 123839, Note_on_c, 2, 62, 0
3, 124800, Note_on_c, 2, 53, 80
3, 125279, Note_on_c, 2, 53, 0
3, 125280, Note_on_c, 2, 53, 80
3, 125759, Note_on_c, 2, 53, 0
3, 126720, Note_on_c, 2, 55, 80
3, 127199, Note_on_c, 2, 55, 0
3, 127200, Note_on_c, 2, 55, 80
3, 127679, Note_on_c, 2, 55, 0
3, 128640, Note_on_c, 2, 55, 80
3, 129119, Note_on_c, 2, 55, 0
3, 129120, Note_on_c, 2, 55, 80
3, 129599, Note_on_c, 2, 55, 0
3, 129600, Note_on_c, 2, 55, 80
3, 130079, Note_on_c, 2, 55, 0
3, 130080, Note_on_c, 2, 55, 80
3, 130559, Note_on_c, 2, 55, 0
3, 130560, Note_on_c, 2, 62, 80
3, 131039, Note_on_c, 2, 62, 0
3, 131040, Note_on_c, 2, 62, 80
3, 131519, Note_on_c, 2, 62, 0
3, 132480, Note_on_c, 2, 53, 80
3, 132959, Note_on_c, 2, 53, 0
3, 132960, Note_on_c, 2, 53, 80
3, 133439, Note_on_c, 2, 53, 0
3, 134400, Note_on_c, 2, 55, 80
3, 134879, Note_on_c, 2, 55, 0
3, 134880, Note_on_c, 2, 55, 80
3, 135359, Note_on_c, 2, 55, 0
3, 136320, Note_on_c, 2, 55, 80
3, 136799, Note_on_c, 2, 55, 0
3, 136800, Note_on_c, 2, 55, 80
3, 137279, Note_on_c, 2, 55, 0
3, 137280, Note_on_c, 2, 55, 80
3, 137759, Note_on_c, 2, 55, 0
3, 137760, Note_on_c, 2, 55, 80
3, 138239, Note_on_c, 2, 55, 0
3, 138240, Note_on_c, 2, 50, 80
3, 138719, Note_on_c, 2, 50, 0
3, 138720, Note_on_c, 2, 50, 80
3, 139439, Note_on_c, 2, 50, 0
3, 139440, Note_on_c, 2, 50, 80
3, 140159, Note_on_c, 2, 50, 0
3, 140160, Note_on_c, 2, 53, 80
3, 140639, Note_on_c, 2, 53, 0
3, 140640, Note_on_c, 2, 53, 80
3, 141359, Note_on_c, 2, 53, 0
3, 141360, Note_on_c, 2, 53, 80
3, 142079, Note_on_c, 2, 53, 0
3, 142080, Note_on_c, 2, 55, 80
3, 142559, Note_on_c, 2, 55, 0
3, 142560, Note_on_c, 2, 55, 80
3, 143279, Note_on_c, 2, 55, 0
3, 143280, Note_on_c, 2, 55, 80
3, 143999, Note_on_c, 2, 55, 0
3, 144000, Note_on_c, 2, 55, 80
3, 144479, Note_on_c, 2, 55, 0
3, 144480, Note_on_c, 2, 55, 80
3, 144959, Note_on_c, 2, 55, 0
3, 144960, Note_on_c, 2, 55, 80
3, 145439, Note_on_c, 2, 55, 0
3, 145440, Note_on_c, 2, 55, 80
3, 145919, Note_on_c, 2, 55, 0
3, 145920, Note_on_c, 2, 50, 80
3, 146399, Note_on_c, 2, 50, 0
3, 146400, Note_on_c, 2, 50, 80
3, 147119, Note_on_c, 2, 50, 0
3, 147120, Note_on_c, 2, 50, 80
3, 147839, Note_on_c, 2, 50, 0
3, 147840, Note_on_c, 2, 53, 80
3, 148319, Note_on_c, 2, 53, 0
3, 148320, Note_on_c, 2, 53, 80
3, 149039, Note_on_c, 2, 53, 0
3, 149040, Note_on_c, 2, 53, 80
3, 149759, Note_on_c, 2, 53, 0
3, 149760, Note_on_c, 2, 55, 80
3, 150239, Note_on_c, 2, 55, 0
3, 150240, Note_on_c, 2, 55, 80
3, 150959, Note_on_c, 2, 55, 0
3, 150960, Note_on_c, 2, 55, 80
3, 151679, Note_on_c, 2, 55, 0
3, 151680, Note_on_c, 2, 55, 80
3, 152159, Note_on_c, 2, 55, 0
3, 152160, Note_on_c, 2, 55, 80
3, 152639, Note_on_c, 2, 55, 0
3, 152640, Note_on_c, 2, 55, 80
3, 153119, Note_on_c, 2, 55, 0
3, 153120, Note_on_c, 2, 55, 80
3, 153599, Note_on_c, 2, 55, 0
3, 153600, Note_on_c, 2, 50, 80
3, 154079, Note_on_c, 2, 50, 0
3, 154080, Note_on_c, 2, 50, 80
3, 154319, Note_on_c, 2, 50, 0
3, 154320, Note_on_c, 2, 50, 80
3, 154799, Note_on_c, 2, 50, 0
3, 154800, Note_on_c, 2, 50, 80
3, 155279, Note_on_c, 2, 50, 0
3, 155280, Note_on_c, 2, 53, 80
3, 155759, Note_on_c, 2, 53, 0
3, 155760, Note_on_c, 2, 53, 80
3, 156239, Note_on_c, 2, 53, 0
3, 156240, Note_on_c, 2, 53, 80
3, 156479, Note_on_c, 2, 53, 0
3, 156480, Note_on_c, 2, 53, 80
3, 156719, Note_on_c, 2, 53, 0
3, 156720, Note_on_c, 2, 53, 80
3, 156959, Note_on_c, 2, 53, 0
3, 156960, Note_on_c, 2, 53, 80
3, 157199, Note_on_c, 2, 53, 0
3, 157200, Note_on_c, 2, 53, 80
3, 157439, Note_on_c, 2, 53, 0
3, 157440, Note_on_c, 2, 55, 80
3, 157919, Note_on_c, 2, 55, 0
3, 157920, Note_on_c, 2, 55, 80
3, 158159, Note_on_c, 2, 55, 0
3, 158160, Note_on_c, 2, 55, 80
3, 158399, Note_on_c, 2, 55, 0
3, 158400, Note_on_c, 2, 55, 80
3, 158879, Note_on_c, 2, 55, 0
3, 158880, Note_on_c, 2, 55, 80
3, 159119, Note_on_c, 2, 55, 0
3, 159120, Note_on_c, 2, 55, 80
3, 159599, Note_on_c, 2, 55, 0
3, 159600, Note_on_c, 2, 55, 80
3, 160079, Note_on_c, 2, 55, 0
3, 160080, Note_on_c, 2, 55, 80
3, 160319, Note_on_c, 2, 55, 0
3, 160320, Note_on_c, 2, 55, 80
3, 160559, Note_on_c, 2, 55, 0
3, 160560, Note_on_c, 2, 55, 80
3, 160799, Note_on_c, 2, 55, 0
3, 160800, Note_on_c, 2, 55, 80
3, 161039, Note_on_c, 2, 55, 0
3, 161040, Note_on_c, 2, 55, 80
3, 161279, Note_on_c, 2, 55, 0
3, 161280, Note_on_c, 2, 50, 80
3, 161759, Note_on_c, 2, 50, 0
3, 161760, Note_on_c, 2, 50, 80
3, 161999, Note_on_c, 2, 50, 0
3, 162000, Note_on_c, 2, 50, 80
3, 162479, Note_on_c, 2, 50, 0
3, 162480, Note_on_c, 2, 50, 80
3, 162959, Note_on_c, 2, 50, 0
3, 162960, Note_on_c, 2, 53, 80
3, 163439, Note_on_c, 2, 53, 0
3, 163440, Note_on_c, 2, 53, 80
3, 163919, Note_on_c, 2, 53, 0
3, 163920, Note_on_c, 2, 53, 80
3, 164159, Note_on_c, 2, 53, 0
3, 164160, Note_on_c, 2, 53, 80
3, 164399, Note_on_c, 2, 53, 0
3, 164400, Note_on_c, 2, 53, 80
3, 164639, Note_on_c, 2, 53, 0
3, 164640, Note_on_c, 2, 53, 80
3, 164879, Note_on_c, 2, 53, 0
3, 164880, Note_on_c, 2, 53, 80
3, 165119, Note_on_c, 2, 53, 0
3, 165120, Note_on_c, 2, 55, 80
3, 165599, Note_on_c, 2, 55, 0
3, 165600, Note_on_c, 2, 55, 80
3, 165839, Note_on_c, 2, 55, 0
3, 165840, Note_on_c, 2, 55, 80
3, 166079, Note_on_c, 2, 55, 0
3, 166080, Note_on_c, 2, 55, 80
3, 166559, Note_on_c, 2, 55, 0
3, 166560, Note_on_c, 2, 55, 80
3, 166799, Note_on_c, 2, 55, 0
3, 166800, Note_on_c, 2, 55, 80
3, 167279, Note_on_c, 2, 55, 0
3, 167280, Note_on_c, 2, 55, 80
3, 167759, Note_on_c, 2, 55, 0
3, 167760, Note_on_c, 2, 55, 80
3, 167999, Note_on_c, 2, 55, 0
3, 168000, Note_on_c, 2, 55, 80
3, 168239, Note_on_c, 2, 55, 0
3, 168240, Note_on_c, 2, 55, 80
3, 168479, Note_on_c, 2, 55, 0
3, 168480, Note_on_c, 2, 55, 80
3, 168719, Note_on_c, 2, 55, 0
3, 168720, Note_on_c, 2, 55, 80
3, 168959, Note_on_c, 2, 55, 0
3, 168960, Note_on_c, 2, 50, 80
3, 170879, Note_on_c, 2, 50, 0
3, 174720, Note_on_c, 2, 65, 80
3, 175039, Note_on_c, 2, 65, 0
3, 175040, Note_on_c, 2, 62, 80
3, 175359, Note_on_c, 2, 62, 0
3, 175360, Note_on_c, 2, 60, 80
3, 175679, Note_on_c, 2, 60, 0
3, 175680, Note_on_c, 2, 57, 80
3, 175999, Note_on_c, 2, 57, 0
3, 176000, Note_on_c, 2, 55, 80
3, 176319, Note_on_c, 2, 55, 0
3, 176320, Note_on_c, 2, 53, 80
3, 176639, Note_on_c, 2, 53, 0
3, 176640, Note_on_c, 2, 50, 80
3, 177119, Note_on_c, 2, 50, 0
3, 177120, End_track
0, 0, End_of_file
