0, 0, Header, 1, 3, 480
1, 0, Start_track
1, 0, Title_t, "Piano, Piano, Piano\000"
1, 0, Time_signature, 4, 2, 24, 8
1, 0, Key_signature, 0, "major"
1, 0, Tempo, 571429
1, 0, Control_c, 0, 121, 0
1, 0, Program_c, 0, 0
1, 0, Control_c, 0, 7, 100
1, 0, Control_c, 0, 10, 64
1, 0, Control_c, 0, 91, 0
1, 0, Control_c, 0, 93, 0
1, 0, MIDI_port, 0
1, 0, Note_on_c, 0, 76, 80
1, 911, Note_on_c, 0, 76, 0
1, 960, Note_on_c, 0, 76, 80
1, 1871, Note_on_c, 0, 76, 0
1, 1920, Note_on_c, 0, 76, 80
1, 2831, Note_on_c, 0, 76, 0
1, 2880, Note_on_c, 0, 76, 80
1, 3791, Note_on_c, 0, 76, 0
1, 3840, Note_on_c, 0, 76, 80
1, 4751, Note_on_c, 0, 76, 0
1, 4800, Note_on_c, 0, 76, 80
1, 5711, Note_on_c, 0, 76, 0
1, 5760, Note_on_c, 0, 76, 80
1, 6671, Note_on_c, 0, 76, 0
1, 6720, Note_on_c, 0, 76, 80
1, 7631, Note_on_c, 0, 76, 0
1, 7680, Note_on_c, 0, 76, 80
1, 8591, Note_on_c, 0, 76, 0
1, 8640, Note_on_c, 0, 76, 80
1, 9551, Note_on_c, 0, 76, 0
1, 9600, Note_on_c, 0, 74, 80
1, 10511, Note_on_c, 0, 74, 0
1, 10560, Note_on_c, 0, 74, 80
1, 11471, Note_on_c, 0, 74, 0
1, 11520, Note_on_c, 0, 72, 80
1, 12431, Note_on_c, 0, 72, 0
1, 12480, Note_on_c, 0, 72, 80
1, 13391, Note_on_c, 0, 72, 0
1, 13440, Note_on_c, 0, 71, 80
1, 14351, Note_on_c, 0, 71, 0
1, 14400, Note_on_c, 0, 71, 80
1, 15311, Note_on_c, 0, 71, 0
1, 15360, Note_on_c, 0, 69, 80
1, 19007, Note_on_c, 0, 69, 0
1, 19200, Note_on_c, 0, 69, 80
1, 22847, Note_on_c, 0, 69, 0
1, 23040, Note_on_c, 0, 69, 80
1, 23153, Note_on_c, 0, 69, 0
1, 23160, Note_on_c, 0, 72, 80
1, 23273, Note_on_c, 0, 72, 0
1, 23280, Note_on_c, 0, 76, 80
1, 23393, Note_on_c, 0, 76, 0
1, 23400, Note_on_c, 0, 77, 80
1, 23513, Note_on_c, 0, 77, 0
1, 23520, Note_on_c, 0, 76, 80
1, 26711, Note_on_c, 0, 76, 0
1, 26880, Note_on_c, 0, 67, 80
1, 26993, Note_on_c, 0, 67, 0
1, 27000, Note_on_c, 0, 71, 80
1, 27113, Note_on_c, 0, 71, 0
1, 27120, Note_on_c, 0, 76, 80
1, 27233, Note_on_c, 0, 76, 0
1, 27240, Note_on_c, 0, 77, 80
1, 27353, Note_on_c, 0, 77, 0
1, 27360, Note_on_c, 0, 76, 80
1, 30551, Note_on_c, 0, 76, 0
1, 30720, Note_on_c, 0, 65, 80
1, 30833, Note_on_c, 0, 65, 0
1, 30840, Note_on_c, 0, 69, 80
1, 30953, Note_on_c, 0, 69, 0
1, 30960, Note_on_c, 0, 74, 80
1, 31073, Note_on_c, 0, 74, 0
1, 31080, Note_on_c, 0, 76, 80
1, 31193, Note_on_c, 0, 76, 0
1, 31200, Note_on_c, 0, 74, 80
1, 33479, Note_on_c, 0, 74, 0
1, 33600, Note_on_c, 0, 65, 80
1, 34055, Note_on_c, 0, 65, 0
1, 34080, Note_on_c, 0, 69, 80
1, 34535, Note_on_c, 0, 69, 0
1, 34560, Note_on_c, 0, 67, 80
1, 34673, Note_on_c, 0, 67, 0
1, 34680, Note_on_c, 0, 71, 80
1, 34793, Note_on_c, 0, 71, 0
1, 34800, Note_on_c, 0, 76, 80
1, 34913, Note_on_c, 0, 76, 0
1, 34920, Note_on_c, 0, 77, 80
1, 35033, Note_on_c, 0, 77, 0
1, 35040, Note_on_c, 0, 76, 80
1, 37775, Note_on_c, 0, 76, 0
1, 37920, Note_on_c, 0, 79, 80
1, 38147, Note_on_c, 0, 79, 0
1, 38160, Note_on_c, 0, 77, 80
1, 38387, Note_on_c, 0, 77, 0
1, 38400, Note_on_c, 0, 76, 80
1, 39311, Note_on_c, 0, 76, 0
1, 39360, Note_on_c, 0, 72, 80
1, 41639, Note_on_c, 0, 72, 0
1, 41760, Note_on_c, 0, 72, 80
1, 41987, Note_on_c, 0, 72, 0
1, 42000, Note_on_c, 0, 74, 80
1, 42227, Note_on_c, 0, 74, 0
1, 42240, Note_on_c, 0, 76, 80
1, 42543, Note_on_c, 0, 76, 0
1, 42560, Note_on_c, 0, 74, 80
1, 42863, Note_on_c, 0, 74, 0
1, 42880, Note_on_c, 0, 72, 80
1, 43183, Note_on_c, 0, 72, 0
1, 43200, Note_on_c, 0, 71, 80
1, 45479, Note_on_c, 0, 71, 0
1, 45600, Note_on_c, 0, 72, 80
1, 45827, Note_on_c, 0, 72, 0
1, 45840, Note_on_c, 0, 74, 80
1, 46067, Note_on_c, 0, 74, 0
1, 46080, Note_on_c, 0, 76, 80
1, 46991, Note_on_c, 0, 76, 0
1, 47040, Note_on_c, 0, 81, 80
1, 49319, Note_on_c, 0, 81, 0
1, 49440, Note_on_c, 0, 69, 80
1, 49667, Note_on_c, 0, 69, 0
1, 49680, Note_on_c, 0, 71, 80
1, 49907, Note_on_c, 0, 71, 0
1, 49920, Note_on_c, 0, 72, 80
1, 50223, Note_on_c, 0, 72, 0
1, 50240, Note_on_c, 0, 74, 80
1, 50543, Note_on_c, 0, 74, 0
1, 50560, Note_on_c, 0, 72, 80
1, 50863, Note_on_c, 0, 72, 0
1, 50880, Note_on_c, 0, 71, 80
1, 53159, Note_on_c, 0, 71, 0
1, 53280, Note_on_c, 0, 79, 80
1, 53507, Note_on_c, 0, 79, 0
1, 53520, Note_on_c, 0, 77, 80
1, 53747, Note_on_c, 0, 77, 0
1, 53760, Note_on_c, 0, 76, 80
1, 54671, Note_on_c, 0, 76, 0
1, 54720, Note_on_c, 0, 72, 80
1, 55631, Note_on_c, 0, 72, 0
1, 57120, Note_on_c, 0, 72, 80
1, 57347, Note_on_c, 0, 72, 0
1, 57360, Note_on_c, 0, 74, 80
1, 57587, Note_on_c, 0, 74, 0
1, 57600, Note_on_c, 0, 76, 80
1, 57903, Note_on_c, 0, 76, 0
1, 57920, Note_on_c, 0, 74, 80
1, 58223, Note_on_c, 0, 74, 0
1, 58240, Note_on_c, 0, 72, 80
1, 58543, Note_on_c, 0, 72, 0
1, 58560, Note_on_c, 0, 71, 80
1, 59015, Note_on_c, 0, 71, 0
1, 60960, Note_on_c, 0, 72, 80
1, 61187, Note_on_c, 0, 72, 0
1, 61200, Note_on_c, 0, 74, 80
1, 61427, Note_on_c, 0, 74, 0
1, 61440, Note_on_c, 0, 76, 80
1, 62351, Note_on_c, 0, 76, 0
1, 62400, Note_on_c, 0, 69, 80
1, 62855, Note_on_c, 0, 69, 0
1, 62880, Note_on_c, 0, 72, 80
1, 63107, Note_on_c, 0, 72, 0
1, 63120, Note_on_c, 0, 74, 80
1, 63347, Note_on_c, 0, 74, 0
1, 63360, Note_on_c, 0, 76, 80
1, 64271, Note_on_c, 0, 76, 0
1, 64320, Note_on_c, 0, 81, 80
1, 64775, Note_on_c, 0, 81, 0
1, 64800, Note_on_c, 0, 69, 80
1, 65027, Note_on_c, 0, 69, 0
1, 65040, Note_on_c, 0, 71, 80
1, 65267, Note_on_c, 0, 71, 0
1, 65280, Note_on_c, 0, 72, 80
1, 65583, Note_on_c, 0, 72, 0
1, 65600, Note_on_c, 0, 74, 80
1, 65903, Note_on_c, 0, 74, 0
1, 65920, Note_on_c, 0, 72, 80
1, 66223, Note_on_c, 0, 72, 0
1, 66240, Note_on_c, 0, 71, 80
1, 66695, Note_on_c, 0, 71, 0
1, 70080, Note_on_c, 0, 69, 80
1, 70193, Note_on_c, 0, 69, 0
1, 70200, Note_on_c, 0, 72, 80
1, 70313, Note_on_c, 0, 72, 0
1, 70320, Note_on_c, 0, 76, 80
1, 70433, Note_on_c, 0, 76, 0
1, 70440, Note_on_c, 0, 77, 80
1, 70553, Note_on_c, 0, 77, 0
1, 70560, Note_on_c, 0, 76, 80
1, 71015, Note_on_c, 0, 76, 0
1, 72000, Note_on_c, 0, 67, 80
1, 72113, Note_on_c, 0, 67, 0
1, 72120, Note_on_c, 0, 71, 80
1, 72233, Note_on_c, 0, 71, 0
1, 72240, Note_on_c, 0, 76, 80
1, 72353, Note_on_c, 0, 76, 0
1, 72360, Note_on_c, 0, 77, 80
1, 72473, Note_on_c, 0, 77, 0
1, 72480, Note_on_c, 0, 76, 80
1, 72935, Note_on_c, 0, 76, 0
1, 73920, Note_on_c, 0, 65, 80
1, 74033, Note_on_c, 0, 65, 0
1, 74040, Note_on_c, 0, 69, 80
1, 74153, Note_on_c, 0, 69, 0
1, 74160, Note_on_c, 0, 74, 80
1, 74273, Note_on_c, 0, 74, 0
1, 74280, Note_on_c, 0, 76, 80
1, 74393, Note_on_c, 0, 76, 0
1, 74400, Note_on_c, 0, 74, 80
1, 74855, Note_on_c, 0, 74, 0
1, 75840, Note_on_c, 0, 67, 80
1, 75953, Note_on_c, 0, 67, 0
1, 75960, Note_on_c, 0, 71, 80
1, 76073, Note_on_c, 0, 71, 0
1, 76080, Note_on_c, 0, 76, 80
1, 76193, Note_on_c, 0, 76, 0
1, 76200, Note_on_c, 0, 77, 80
1, 76313, Note_on_c, 0, 77, 0
1, 76320, Note_on_c, 0, 76, 80
1, 76775, Note_on_c, 0, 76, 0
1, 77760, Note_on_c, 0, 69, 80
1, 77873, Note_on_c, 0, 69, 0
1, 77880, Note_on_c, 0, 72, 80
1, 77993, Note_on_c, 0, 72, 0
1, 78000, Note_on_c, 0, 76, 80
1, 78113, Note_on_c, 0, 76, 0
1, 78120, Note_on_c, 0, 77, 80
1, 78233, Note_on_c, 0, 77, 0
1, 78240, Note_on_c, 0, 76, 80
1, 78695, Note_on_c, 0, 76, 0
1, 79680, Note_on_c, 0, 67, 80
1, 79793, Note_on_c, 0, 67, 0
1, 79800, Note_on_c, 0, 71, 80
1, 79913, Note_on_c, 0, 71, 0
1, 79920, Note_on_c, 0, 76, 80
1, 80033, Note_on_c, 0, 76, 0
1, 80040, Note_on_c, 0, 77, 80
1, 80153, Note_on_c, 0, 77, 0
1, 80160, Note_on_c, 0, 76, 80
1, 80615, Note_on_c, 0, 76, 0
1, 81600, Note_on_c, 0, 65, 80
1, 81713, Note_on_c, 0, 65, 0
1, 81720, Note_on_c, 0, 69, 80
1, 81833, Note_on_c, 0, 69, 0
1, 81840, Note_on_c, 0, 74, 80
1, 81953, Note_on_c, 0, 74, 0
1, 81960, Note_on_c, 0, 76, 80
1, 82073, Note_on_c, 0, 76, 0
1, 82080, Note_on_c, 0, 74, 80
1, 82535, Note_on_c, 0, 74, 0
1, 84000, Note_on_c, 0, 79, 80
1, 84227, Note_on_c, 0, 79, 0
1, 84240, Note_on_c, 0, 77, 80
1, 84467, Note_on_c, 0, 77, 0
1, 84480, Note_on_c, 0, 76, 80
1, 85391, Note_on_c, 0, 76, 0
1, 85440, Note_on_c, 0, 72, 80
1, 85895, Note_on_c, 0, 72, 0
1, 85920, Note_on_c, 0, 72, 80
1, 86147, Note_on_c, 0, 72, 0
1, 86160, Note_on_c, 0, 74, 80
1, 86387, Note_on_c, 0, 74, 0
1, 86400, Note_on_c, 0, 76, 80
1, 86703, Note_on_c, 0, 76, 0
1, 86720, Note_on_c, 0, 74, 80
1, 87023, Note_on_c, 0, 74, 0
1, 87040, Note_on_c, 0, 72, 80
1, 87343, Note_on_c, 0, 72, 0
1, 87360, Note_on_c, 0, 71, 80
1, 87663, Note_on_c, 0, 71, 0
1, 87680, Note_on_c, 0, 72, 80
1, 87983, Note_on_c, 0, 72, 0
1, 88000, Note_on_c, 0, 74, 80
1, 88303, Note_on_c, 0, 74, 0
1, 88320, Note_on_c, 0, 76, 80
1, 89231, Note_on_c, 0, 76, 0
1, 89280, Note_on_c, 0, 81, 80
1, 89735, Note_on_c, 0, 81, 0
1, 89760, Note_on_c, 0, 69, 80
1, 89987, Note_on_c, 0, 69, 0
1, 90000, Note_on_c, 0, 71, 80
1, 90227, Note_on_c, 0, 71, 0
1, 90240, Note_on_c, 0, 72, 80
1, 90543, Note_on_c, 0, 72, 0
1, 90560, Note_on_c, 0, 74, 80
1, 90863, Note_on_c, 0, 74, 0
1, 90880, Note_on_c, 0, 72, 80
1, 91183, Note_on_c, 0, 72, 0
1, 91200, Note_on_c, 0, 71, 80
1, 91503, Note_on_c, 0, 71, 0
1, 91520, Note_on_c, 0, 79, 80
1, 91823, Note_on_c, 0, 79, 0
1, 91840, Note_on_c, 0, 77, 80
1, 92143, Note_on_c, 0, 77, 0
1, 92160, Note_on_c, 0, 76, 80
1, 92273, Note_on_c, 0, 76, 0
1, 92280, Note_on_c, 0, 72, 80
1, 92393, Note_on_c, 0, 72, 0
1, 92400, Note_on_c, 0, 76, 80
1, 92513, Note_on_c, 0, 76, 0
1, 92520, Note_on_c, 0, 77, 80
1, 92633, Note_on_c, 0, 77, 0
1, 92640, Note_on_c, 0, 76, 80
1, 93095, Note_on_c, 0, 76, 0
1, 93120, Note_on_c, 0, 76, 80
1, 93233, Note_on_c, 0, 76, 0
1, 93240, Note_on_c, 0, 72, 80
1, 93353, Note_on_c, 0, 72, 0
1, 93360, Note_on_c, 0, 76, 80
1, 93473, Note_on_c, 0, 76, 0
1, 93480, Note_on_c, 0, 77, 80
1, 93593, Note_on_c, 0, 77, 0
1, 93600, Note_on_c, 0, 76, 80
1, 94055, Note_on_c, 0, 76, 0
1, 94080, Note_on_c, 0, 76, 80
1, 94193, Note_on_c, 0, 76, 0
1, 94200, Note_on_c, 0, 71, 80
1, 94313, Note_on_c, 0, 71, 0
1, 94320, Note_on_c, 0, 76, 80
1, 94433, Note_on_c, 0, 76, 0
1, 94440, Note_on_c, 0, 77, 80
1, 94553, Note_on_c, 0, 77, 0
1, 94560, Note_on_c, 0, 76, 80
1, 95015, Note_on_c, 0, 76, 0
1, 95040, Note_on_c, 0, 76, 80
1, 95153, Note_on_c, 0, 76, 0
1, 95160, Note_on_c, 0, 71, 80
1, 95273, Note_on_c, 0, 71, 0
1, 95280, Note_on_c, 0, 76, 80
1, 95393, Note_on_c, 0, 76, 0
1, 95400, Note_on_c, 0, 77, 80
1, 95513, Note_on_c, 0, 77, 0
1, 95520, Note_on_c, 0, 76, 80
1, 95975, Note_on_c, 0, 76, 0
1, 96000, Note_on_c, 0, 74, 80
1, 96113, Note_on_c, 0, 74, 0
1, 96120, Note_on_c, 0, 69, 80
1, 96233, Note_on_c, 0, 69, 0
1, 96240, Note_on_c, 0, 74, 80
1, 96353, Note_on_c, 0, 74, 0
1, 96360, Note_on_c, 0, 76, 80
1, 96473, Note_on_c, 0, 76, 0
1, 96480, Note_on_c, 0, 74, 80
1, 96935, Note_on_c, 0, 74, 0
1, 96960, Note_on_c, 0, 74, 80
1, 97073, Note_on_c, 0, 74, 0
1, 97080, Note_on_c, 0, 69, 80
1, 97193, Note_on_c, 0, 69, 0
1, 97200, Note_on_c, 0, 74, 80
1, 97313, Note_on_c, 0, 74, 0
1, 97320, Note_on_c, 0, 76, 80
1, 97433, Note_on_c, 0, 76, 0
1, 97440, Note_on_c, 0, 74, 80
1, 97895, Note_on_c, 0, 74, 0
1, 97920, Note_on_c, 0, 76, 80
1, 98033, Note_on_c, 0, 76, 0
1, 98040, Note_on_c, 0, 71, 80
1, 98153, Note_on_c, 0, 71, 0
1, 98160, Note_on_c, 0, 76, 80
1, 98273, Note_on_c, 0, 76, 0
1, 98280, Note_on_c, 0, 77, 80
1, 98393, Note_on_c, 0, 77, 0
1, 98400, Note_on_c, 0, 76, 80
1, 99083, Note_on_c, 0, 76, 0
1, 99120, Note_on_c, 0, 74, 80
1, 99347, Note_on_c, 0, 74, 0
1, 99360, Note_on_c, 0, 76, 80
1, 99587, Note_on_c, 0, 76, 0
1, 99600, Note_on_c, 0, 77, 80
1, 99827, Note_on_c, 0, 77, 0
1, 99840, Note_on_c, 0, 76, 80
1, 103487, Note_on_c, 0, 76, 0
1, 103680, Note_on_c, 0, 76, 80
1, 104640, Tempo, 612245
1, 105600, Tempo, 652174
1, 106560, Tempo, 705882
1, 107520, Tempo, 1500000
1, 108695, Note_on_c, 0, 76, 0
1, 108959, Tempo, 750000
1, 109440, Time_signature, 6, 3, 24, 8
1, 109440, Note_on_c, 0, 76, 80
1, 109553, Note_on_c, 0, 76, 0
1, 109560, Note_on_c, 0, 69, 80
1, 109673, Note_on_c, 0, 69, 0
1, 109680, Note_on_c, 0, 72, 80
1, 109793, Note_on_c, 0, 72, 0
1, 109800, Tempo, 689655
1, 109800, Note_on_c, 0, 69, 80
1, 109913, Note_on_c, 0, 69, 0
1, 109920, Note_on_c, 0, 72, 80
1, 110033, Note_on_c, 0, 72, 0
1, 110040, Note_on_c, 0, 69, 80
1, 110153, Note_on_c, 0, 69, 0
1, 110160, Tempo, 645161
1, 110160, Note_on_c, 0, 76, 80
1, 110273, Note_on_c, 0, 76, 0
1, 110280, Note_on_c, 0, 69, 80
1, 110393, Note_on_c, 0, 69, 0
1, 110400, Note_on_c, 0, 72, 80
1, 110513, Note_on_c, 0, 72, 0
1, 110520, Tempo, 600000
1, 110520, Note_on_c, 0, 69, 80
1, 110633, Note_on_c, 0, 69, 0
1, 110640, Note_on_c, 0, 72, 80
1, 110753, Note_on_c, 0, 72, 0
1, 110760, Note_on_c, 0, 69, 80
1, 110873, Note_on_c, 0, 69, 0
1, 110880, Note_on_c, 0, 76, 80
1, 110993, Note_on_c, 0, 76, 0
1, 111000, Note_on_c, 0, 67, 80
1, 111113, Note_on_c, 0, 67, 0
1, 111120, Note_on_c, 0, 71, 80
1, 111233, Note_on_c, 0, 71, 0
1, 111240, Note_on_c, 0, 67, 80
1, 111353, Note_on_c, 0, 67, 0
1, 111360, Note_on_c, 0, 71, 80
1, 111473, Note_on_c, 0, 71, 0
1, 111480, Note_on_c, 0, 67, 80
1, 111593, Note_on_c, 0, 67, 0
1, 111600, Note_on_c, 0, 76, 80
1, 111713, Note_on_c, 0, 76, 0
1, 111720, Note_on_c, 0, 67, 80
1, 111833, Note_on_c, 0, 67, 0
1, 111840, Note_on_c, 0, 71, 80
1, 111953, Note_on_c, 0, 71, 0
1, 111960, Note_on_c, 0, 67, 80
1, 112073, Note_on_c, 0, 67, 0
1, 112080, Note_on_c, 0, 71, 80
1, 112193, Note_on_c, 0, 71, 0
1, 112200, Note_on_c, 0, 67, 80
1, 112313, Note_on_c, 0, 67, 0
1, 112320, Note_on_c, 0, 74, 80
1, 112433, Note_on_c, 0, 74, 0
1, 112440, Note_on_c, 0, 65, 80
1, 112553, Note_on_c, 0, 65, 0
1, 112560, Note_on_c, 0, 69, 80
1, 112673, Note_on_c, 0, 69, 0
1, 112680, Note_on_c, 0, 65, 80
1, 112793, Note_on_c, 0, 65, 0
1, 112800, Note_on_c, 0, 69, 80
1, 112913, Note_on_c, 0, 69, 0
1, 112920, Note_on_c, 0, 65, 80
1, 113033, Note_on_c, 0, 65, 0
1, 113040, Note_on_c, 0, 74, 80
1, 113153, Note_on_c, 0, 74, 0
1, 113160, Note_on_c, 0, 65, 80
1, 113273, Note_on_c, 0, 65, 0
1, 113280, Note_on_c, 0, 69, 80
1, 113393, Note_on_c, 0, 69, 0
1, 113400, Note_on_c, 0, 65, 80
1, 113513, Note_on_c, 0, 65, 0
1, 113520, Note_on_c, 0, 69, 80
1, 113633, Note_on_c, 0, 69, 0
1, 113640, Note_on_c, 0, 65, 80
1, 113753, Note_on_c, 0, 65, 0
1, 113760, Note_on_c, 0, 76, 80
1, 113873, Note_on_c, 0, 76, 0
1, 113880, Note_on_c, 0, 67, 80
1, 113993, Note_on_c, 0, 67, 0
1, 114000, Note_on_c, 0, 71, 80
1, 114113, Note_on_c, 0, 71, 0
1, 114120, Note_on_c, 0, 67, 80
1, 114233, Note_on_c, 0, 67, 0
1, 114240, Note_on_c, 0, 71, 80
1, 114353, Note_on_c, 0, 71, 0
1, 114360, Note_on_c, 0, 67, 80
1, 114473, Note_on_c, 0, 67, 0
1, 114480, Note_on_c, 0, 76, 80
1, 114707, Note_on_c, 0, 76, 0
1, 114720, Note_on_c, 0, 74, 80
1, 114947, Note_on_c, 0, 74, 0
1, 114960, Note_on_c, 0, 72, 80
1, 115187, Note_on_c, 0, 72, 0
1, 115200, Note_on_c, 0, 69, 80
1, 115313, Note_on_c, 0, 69, 0
1, 115320, Note_on_c, 0, 72, 80
1, 115433, Note_on_c, 0, 72, 0
1, 115440, Note_on_c, 0, 76, 80
1, 115553, Note_on_c, 0, 76, 0
1, 115560, Note_on_c, 0, 77, 80
1, 115673, Note_on_c, 0, 77, 0
1, 115680, Note_on_c, 0, 76, 80
1, 116591, Note_on_c, 0, 76, 0
1, 116640, Note_on_c, 0, 69, 80
1, 116753, Note_on_c, 0, 69, 0
1, 116760, Note_on_c, 0, 72, 80
1, 116873, Note_on_c, 0, 72, 0
1, 116880, Note_on_c, 0, 76, 80
1, 116993, Note_on_c, 0, 76, 0
1, 117000, Note_on_c, 0, 77, 80
1, 117113, Note_on_c, 0, 77, 0
1, 117120, Note_on_c, 0, 76, 80
1, 118031, Note_on_c, 0, 76, 0
1, 118080, Note_on_c, 0, 67, 80
1, 118193, Note_on_c, 0, 67, 0
1, 118200, Note_on_c, 0, 71, 80
1, 118313, Note_on_c, 0, 71, 0
1, 118320, Note_on_c, 0, 76, 80
1, 118433, Note_on_c, 0, 76, 0
1, 118440, Note_on_c, 0, 77, 80
1, 118553, Note_on_c, 0, 77, 0
1, 118560, Note_on_c, 0, 76, 80
1, 119471, Note_on_c, 0, 76, 0
1, 119520, Note_on_c, 0, 67, 80
1, 119633, Note_on_c, 0, 67, 0
1, 119640, Note_on_c, 0, 71, 80
1, 119753, Note_on_c, 0, 71, 0
1, 119760, Note_on_c, 0, 76, 80
1, 119873, Note_on_c, 0, 76, 0
1, 119880, Note_on_c, 0, 77, 80
1, 119993, Note_on_c, 0, 77, 0
1, 120000, Note_on_c, 0, 76, 80
1, 120911, Note_on_c, 0, 76, 0
1, 120960, Note_on_c, 0, 65, 80
1, 121073, Note_on_c, 0, 65, 0
1, 121080, Note_on_c, 0, 69, 80
1, 121193, Note_on_c, 0, 69, 0
1, 121200, Note_on_c, 0, 74, 80
1, 121313, Note_on_c, 0, 74, 0
1, 121320, Note_on_c, 0, 76, 80
1, 121433, Note_on_c, 0, 76, 0
1, 121440, Note_on_c, 0, 74, 80
1, 122351, Note_on_c, 0, 74, 0
1, 122400, Note_on_c, 0, 65, 80
1, 122513, Note_on_c, 0, 65, 0
1, 122520, Note_on_c, 0, 69, 80
1, 122633, Note_on_c, 0, 69, 0
1, 122640, Note_on_c, 0, 74, 80
1, 122753, Note_on_c, 0, 74, 0
1, 122760, Note_on_c, 0, 76, 80
1, 122873, Note_on_c, 0, 76, 0
1, 122880, Note_on_c, 0, 74, 80
1, 123791, Note_on_c, 0, 74, 0
1, 123840, Note_on_c, 0, 67, 80
1, 123953, Note_on_c, 0, 67, 0
1, 123960, Note_on_c, 0, 71, 80
1, 124073, Note_on_c, 0, 71, 0
1, 124080, Note_on_c, 0, 76, 80
1, 124193, Note_on_c, 0, 76, 0
1, 124200, Note_on_c, 0, 77, 80
1, 124313, Note_on_c, 0, 77, 0
1, 124320, Note_on_c, 0, 76, 80
1, 125231, Note_on_c, 0, 76, 0
1, 125280, Note_on_c, 0, 67, 80
1, 125393, Note_on_c, 0, 67, 0
1, 125400, Note_on_c, 0, 71, 80
1, 125513, Note_on_c, 0, 71, 0
1, 125520, Note_on_c, 0, 76, 80
1, 125633, Note_on_c, 0, 76, 0
1, 125640, Note_on_c, 0, 77, 80
1, 125753, Note_on_c, 0, 77, 0
1, 125760, Note_on_c, 0, 76, 80
1, 125987, Note_on_c, 0, 76, 0
1, 126240, Note_on_c, 0, 79, 80
1, 126467, Note_on_c, 0, 79, 0
1, 126480, Note_on_c, 0, 77, 80
1, 126707, Note_on_c, 0, 77, 0
1, 126720, Note_on_c, 0, 76, 80
1, 127403, Note_on_c, 0, 76, 0
1, 127440, Note_on_c, 0, 72, 80
1, 127895, Note_on_c, 0, 72, 0
1, 127920, Note_on_c, 0, 72, 80
1, 128033, Note_on_c, 0, 72, 0
1, 128040, Note_on_c, 0, 74, 80
1, 128153, Note_on_c, 0, 74, 0
1, 128160, Note_on_c, 0, 76, 80
1, 128387, Note_on_c, 0, 76, 0
1, 128400, Note_on_c, 0, 74, 80
1, 128627, Note_on_c, 0, 74, 0
1, 128640, Note_on_c, 0, 72, 80
1, 128867, Note_on_c, 0, 72, 0
1, 128880, Note_on_c, 0, 71, 80
1, 129107, Note_on_c, 0, 71, 0
1, 129120, Note_on_c, 0, 72, 80
1, 129347, Note_on_c, 0, 72, 0
1, 129360, Note_on_c, 0, 74, 80
1, 129587, Note_on_c, 0, 74, 0
1, 129600, Note_on_c, 0, 76, 80
1, 130283, Note_on_c, 0, 76, 0
1, 130320, Note_on_c, 0, 81, 80
1, 130547, Note_on_c, 0, 81, 0
1, 130560, Note_on_c, 0, 69, 80
1, 130787, Note_on_c, 0, 69, 0
1, 130800, Note_on_c, 0, 71, 80
1, 131027, Note_on_c, 0, 71, 0
1, 131040, Note_on_c, 0, 67, 80
1, 131040, Note_on_c, 0, 72, 80
1, 131267, Note_on_c, 0, 67, 0
1, 131267, Note_on_c, 0, 72, 0
1, 131280, Note_on_c, 0, 71, 80
1, 131280, Note_on_c, 0, 74, 80
1, 131507, Note_on_c, 0, 71, 0
1, 131507, Note_on_c, 0, 74, 0
1, 131520, Note_on_c, 0, 69, 80
1, 131520, Note_on_c, 0, 72, 80
1, 131747, Note_on_c, 0, 69, 0
1, 131747, Note_on_c, 0, 72, 0
1, 131760, Note_on_c, 0, 67, 80
1, 131760, Note_on_c, 0, 71, 80
1, 131987, Note_on_c, 0, 67, 0
1, 131987, Note_on_c, 0, 71, 0
1, 132000, Note_on_c, 0, 76, 80
1, 132000, Note_on_c, 0, 79, 80
1, 132227, Note_on_c, 0, 76, 0
1, 132227, Note_on_c, 0, 79, 0
1, 132240, Note_on_c, 0, 74, 80
1, 132240, Note_on_c, 0, 77, 80
1, 132467, Note_on_c, 0, 74, 0
1, 132467, Note_on_c, 0, 77, 0
1, 132480, Note_on_c, 0, 72, 80
1, 132480, Note_on_c, 0, 76, 80
1, 133163, Note_on_c, 0, 72, 0
1, 133163, Note_on_c, 0, 76, 0
1, 133200, Note_on_c, 0, 72, 80
1, 133655, Note_on_c, 0, 72, 0
1, 133680, Note_on_c, 0, 72, 80
1, 133793, Note_on_c, 0, 72, 0
1, 133800, Note_on_c, 0, 74, 80
1, 133913, Note_on_c, 0, 74, 0
1, 133920, Note_on_c, 0, 76, 80
1, 134147, Note_on_c, 0, 76, 0
1, 134160, Note_on_c, 0, 74, 80
1, 134387, Note_on_c, 0, 74, 0
1, 134400, Note_on_c, 0, 72, 80
1, 134627, Note_on_c, 0, 72, 0
1, 134640, Note_on_c, 0, 71, 80
1, 134867, Note_on_c, 0, 71, 0
1, 134880, Note_on_c, 0, 72, 80
1, 135107, Note_on_c, 0, 72, 0
1, 135120, Note_on_c, 0, 71, 80
1, 135233, Note_on_c, 0, 71, 0
1, 135300, Note_on_c, 0, 72, 80
1, 135356, Note_on_c, 0, 72, 0
1, 135360, Note_on_c, 0, 71, 80
1, 135719, Note_on_c, 0, 71, 0
1, 136560, Note_on_c, 0, 69, 80
1, 136787, Note_on_c, 0, 69, 0
1, 136800, Note_on_c, 0, 71, 80
1, 137483, Note_on_c, 0, 71, 0
1, 137520, Note_on_c, 0, 67, 80
1, 138203, Note_on_c, 0, 67, 0
1, 138240, Note_on_c, 0, 69, 80
1, 138353, Note_on_c, 0, 69, 0
1, 138360, Note_on_c, 0, 72, 80
1, 138473, Note_on_c, 0, 72, 0
1, 138480, Note_on_c, 0, 76, 80
1, 138593, Note_on_c, 0, 76, 0
1, 138600, Note_on_c, 0, 77, 80
1, 138713, Note_on_c, 0, 77, 0
1, 138720, Note_on_c, 0, 76, 80
1, 138833, Note_on_c, 0, 76, 0
1, 138840, Note_on_c, 0, 72, 80
1, 138953, Note_on_c, 0, 72, 0
1, 138960, Note_on_c, 0, 69, 80
1, 139073, Note_on_c, 0, 69, 0
1, 139080, Note_on_c, 0, 72, 80
1, 139193, Note_on_c, 0, 72, 0
1, 139200, Note_on_c, 0, 76, 80
1, 139313, Note_on_c, 0, 76, 0
1, 139320, Note_on_c, 0, 77, 80
1, 139433, Note_on_c, 0, 77, 0
1, 139440, Note_on_c, 0, 76, 80
1, 139553, Note_on_c, 0, 76, 0
1, 139560, Note_on_c, 0, 72, 80
1, 139673, Note_on_c, 0, 72, 0
1, 139680, Note_on_c, 0, 67, 80
1, 139793, Note_on_c, 0, 67, 0
1, 139800, Note_on_c, 0, 71, 80
1, 139913, Note_on_c, 0, 71, 0
1, 139920, Note_on_c, 0, 76, 80
1, 140033, Note_on_c, 0, 76, 0
1, 140040, Note_on_c, 0, 77, 80
1, 140153, Note_on_c, 0, 77, 0
1, 140160, Note_on_c, 0, 76, 80
1, 140273, Note_on_c, 0, 76, 0
1, 140280, Note_on_c, 0, 71, 80
1, 140393, Note_on_c, 0, 71, 0
1, 140400, Note_on_c, 0, 67, 80
1, 140513, Note_on_c, 0, 67, 0
1, 140520, Note_on_c, 0, 71, 80
1, 140633, Note_on_c, 0, 71, 0
1, 140640, Note_on_c, 0, 76, 80
1, 140753, Note_on_c, 0, 76, 0
1, 140760, Note_on_c, 0, 77, 80
1, 140873, Note_on_c, 0, 77, 0
1, 140880, Note_on_c, 0, 76, 80
1, 140993, Note_on_c, 0, 76, 0
1, 141000, Note_on_c, 0, 71, 80
1, 141113, Note_on_c, 0, 71, 0
1, 141120, Note_on_c, 0, 65, 80
1, 141233, Note_on_c, 0, 65, 0
1, 141240, Note_on_c, 0, 69, 80
1, 141353, Note_on_c, 0, 69, 0
1, 141360, Note_on_c, 0, 74, 80
1, 141473, Note_on_c, 0, 74, 0
1, 141480, Note_on_c, 0, 76, 80
1, 141593, Note_on_c, 0, 76, 0
1, 141600, Note_on_c, 0, 74, 80
1, 141713, Note_on_c, 0, 74, 0
1, 141720, Note_on_c, 0, 69, 80
1, 141833, Note_on_c, 0, 69, 0
1, 141840, Note_on_c, 0, 65, 80
1, 141953, Note_on_c, 0, 65, 0
1, 141960, Note_on_c, 0, 69, 80
1, 142073, Note_on_c, 0, 69, 0
1, 142080, Note_on_c, 0, 74, 80
1, 142193, Note_on_c, 0, 74, 0
1, 142200, Note_on_c, 0, 76, 80
1, 142313, Note_on_c, 0, 76, 0
1, 142320, Note_on_c, 0, 74, 80
1, 142433, Note_on_c, 0, 74, 0
1, 142440, Note_on_c, 0, 69, 80
1, 142553, Note_on_c, 0, 69, 0
1, 142560, Note_on_c, 0, 67, 80
1, 142673, Note_on_c, 0, 67, 0
1, 142680, Note_on_c, 0, 71, 80
1, 142793, Note_on_c, 0, 71, 0
1, 142800, Note_on_c, 0, 76, 80
1, 142913, Note_on_c, 0, 76, 0
1, 142920, Note_on_c, 0, 77, 80
1, 143033, Note_on_c, 0, 77, 0
1, 143040, Note_on_c, 0, 76, 80
1, 143153, Note_on_c, 0, 76, 0
1, 143160, Note_on_c, 0, 71, 80
1, 143273, Note_on_c, 0, 71, 0
1, 143280, Note_on_c, 0, 67, 80
1, 143507, Note_on_c, 0, 67, 0
1, 143520, Note_on_c, 0, 67, 80
1, 143747, Note_on_c, 0, 67, 0
1, 143760, Note_on_c, 0, 71, 80
1, 143987, Note_on_c, 0, 71, 0
1, 144000, Note_on_c, 0, 69, 80
1, 144113, Note_on_c, 0, 69, 0
1, 144120, Note_on_c, 0, 72, 80
1, 144233, Note_on_c, 0, 72, 0
1, 144240, Note_on_c, 0, 76, 80
1, 144353, Note_on_c, 0, 76, 0
1, 144360, Note_on_c, 0, 77, 80
1, 144473, Note_on_c, 0, 77, 0
1, 144480, Note_on_c, 0, 76, 80
1, 144593, Note_on_c, 0, 76, 0
1, 144600, Note_on_c, 0, 72, 80
1, 144713, Note_on_c, 0, 72, 0
1, 144720, Note_on_c, 0, 69, 80
1, 144833, Note_on_c, 0, 69, 0
1, 144840, Note_on_c, 0, 72, 80
1, 144953, Note_on_c, 0, 72, 0
1, 144960, Note_on_c, 0, 76, 80
1, 145073, Note_on_c, 0, 76, 0
1, 145080, Note_on_c, 0, 77, 80
1, 145193, Note_on_c, 0, 77, 0
1, 145200, Note_on_c, 0, 76, 80
1, 145313, Note_on_c, 0, 76, 0
1, 145320, Note_on_c, 0, 72, 80
1, 145433, Note_on_c, 0, 72, 0
1, 145440, Note_on_c, 0, 67, 80
1, 145553, Note_on_c, 0, 67, 0
1, 145560, Note_on_c, 0, 71, 80
1, 145673, Note_on_c, 0, 71, 0
1, 145680, Note_on_c, 0, 76, 80
1, 145793, Note_on_c, 0, 76, 0
1, 145800, Note_on_c, 0, 77, 80
1, 145913, Note_on_c, 0, 77, 0
1, 145920, Note_on_c, 0, 76, 80
1, 146033, Note_on_c, 0, 76, 0
1, 146040, Note_on_c, 0, 71, 80
1, 146153, Note_on_c, 0, 71, 0
1, 146160, Note_on_c, 0, 67, 80
1, 146273, Note_on_c, 0, 67, 0
1, 146280, Note_on_c, 0, 71, 80
1, 146393, Note_on_c, 0, 71, 0
1, 146400, Note_on_c, 0, 76, 80
1, 146513, Note_on_c, 0, 76, 0
1, 146520, Note_on_c, 0, 77, 80
1, 146633, Note_on_c, 0, 77, 0
1, 146640, Note_on_c, 0, 76, 80
1, 146753, Note_on_c, 0, 76, 0
1, 146760, Note_on_c, 0, 71, 80
1, 146873, Note_on_c, 0, 71, 0
1, 146880, Note_on_c, 0, 65, 80
1, 146993, Note_on_c, 0, 65, 0
1, 147000, Note_on_c, 0, 69, 80
1, 147113, Note_on_c, 0, 69, 0
1, 147120, Note_on_c, 0, 74, 80
1, 147233, Note_on_c, 0, 74, 0
1, 147240, Note_on_c, 0, 76, 80
1, 147353, Note_on_c, 0, 76, 0
1, 147360, Note_on_c, 0, 74, 80
1, 147473, Note_on_c, 0, 74, 0
1, 147480, Note_on_c, 0, 69, 80
1, 147593, Note_on_c, 0, 69, 0
1, 147600, Note_on_c, 0, 65, 80
1, 147713, Note_on_c, 0, 65, 0
1, 147720, Note_on_c, 0, 69, 80
1, 147833, Note_on_c, 0, 69, 0
1, 147840, Note_on_c, 0, 74, 80
1, 147953, Note_on_c, 0, 74, 0
1, 147960, Note_on_c, 0, 76, 80
1, 148073, Note_on_c, 0, 76, 0
1, 148080, Note_on_c, 0, 74, 80
1, 148193, Note_on_c, 0, 74, 0
1, 148200, Note_on_c, 0, 69, 80
1, 148313, Note_on_c, 0, 69, 0
1, 148320, Note_on_c, 0, 67, 80
1, 148433, Note_on_c, 0, 67, 0
1, 148440, Note_on_c, 0, 71, 80
1, 148553, Note_on_c, 0, 71, 0
1, 148560, Note_on_c, 0, 76, 80
1, 148673, Note_on_c, 0, 76, 0
1, 148680, Note_on_c, 0, 77, 80
1, 148793, Note_on_c, 0, 77, 0
1, 148800, Note_on_c, 0, 76, 80
1, 148913, Note_on_c, 0, 76, 0
1, 148920, Note_on_c, 0, 71, 80
1, 149033, Note_on_c, 0, 71, 0
1, 149040, Note_on_c, 0, 67, 80
1, 149267, Note_on_c, 0, 67, 0
1, 149280, Note_on_c, 0, 79, 80
1, 149507, Note_on_c, 0, 79, 0
1, 149520, Note_on_c, 0, 77, 80
1, 149747, Note_on_c, 0, 77, 0
1, 149760, Note_on_c, 0, 76, 80
1, 150443, Note_on_c, 0, 76, 0
1, 150480, Note_on_c, 0, 72, 80
1, 150935, Note_on_c, 0, 72, 0
1, 150960, Note_on_c, 0, 72, 80
1, 151073, Note_on_c, 0, 72, 0
1, 151080, Note_on_c, 0, 74, 80
1, 151193, Note_on_c, 0, 74, 0
1, 151200, Note_on_c, 0, 76, 80
1, 151427, Note_on_c, 0, 76, 0
1, 151440, Note_on_c, 0, 74, 80
1, 151667, Note_on_c, 0, 74, 0
1, 151680, Note_on_c, 0, 72, 80
1, 151907, Note_on_c, 0, 72, 0
1, 151920, Note_on_c, 0, 71, 80
1, 152147, Note_on_c, 0, 71, 0
1, 152160, Note_on_c, 0, 72, 80
1, 152387, Note_on_c, 0, 72, 0
1, 152400, Note_on_c, 0, 74, 80
1, 152627, Note_on_c, 0, 74, 0
1, 152640, Note_on_c, 0, 76, 80
1, 153323, Note_on_c, 0, 76, 0
1, 153360, Note_on_c, 0, 81, 80
1, 153587, Note_on_c, 0, 81, 0
1, 153600, Note_on_c, 0, 69, 80
1, 153827, Note_on_c, 0, 69, 0
1, 153840, Note_on_c, 0, 71, 80
1, 154067, Note_on_c, 0, 71, 0
1, 154080, Note_on_c, 0, 67, 80
1, 154080, Note_on_c, 0, 72, 80
1, 154307, Note_on_c, 0, 67, 0
1, 154307, Note_on_c, 0, 72, 0
1, 154320, Note_on_c, 0, 71, 80
1, 154320, Note_on_c, 0, 74, 80
1, 154547, Note_on_c, 0, 71, 0
1, 154547, Note_on_c, 0, 74, 0
1, 154560, Note_on_c, 0, 69, 80
1, 154560, Note_on_c, 0, 72, 80
1, 154787, Note_on_c, 0, 69, 0
1, 154787, Note_on_c, 0, 72, 0
1, 154800, Note_on_c, 0, 67, 80
1, 154800, Note_on_c, 0, 71, 80
1, 155027, Note_on_c, 0, 67, 0
1, 155027, Note_on_c, 0, 71, 0
1, 155040, Note_on_c, 0, 76, 80
1, 155040, Note_on_c, 0, 79, 80
1, 155267, Note_on_c, 0, 76, 0
1, 155267, Note_on_c, 0, 79, 0
1, 155280, Note_on_c, 0, 74, 80
1, 155280, Note_on_c, 0, 77, 80
1, 155507, Note_on_c, 0, 74, 0
1, 155507, Note_on_c, 0, 77, 0
1, 155520, Note_on_c, 0, 76, 80
1, 155633, Note_on_c, 0, 76, 0
1, 155640, Note_on_c, 0, 69, 80
1, 155753, Note_on_c, 0, 69, 0
1, 155760, Note_on_c, 0, 76, 80
1, 155873, Note_on_c, 0, 76, 0
1, 155880, Note_on_c, 0, 69, 80
1, 155993, Note_on_c, 0, 69, 0
1, 156000, Note_on_c, 0, 76, 80
1, 156113, Note_on_c, 0, 76, 0
1, 156120, Note_on_c, 0, 69, 80
1, 156233, Note_on_c, 0, 69, 0
1, 156240, Note_on_c, 0, 72, 80
1, 156353, Note_on_c, 0, 72, 0
1, 156360, Note_on_c, 0, 69, 80
1, 156473, Note_on_c, 0, 69, 0
1, 156480, Note_on_c, 0, 72, 80
1, 156593, Note_on_c, 0, 72, 0
1, 156600, Note_on_c, 0, 69, 80
1, 156713, Note_on_c, 0, 69, 0
1, 156720, Note_on_c, 0, 74, 80
1, 156833, Note_on_c, 0, 74, 0
1, 156840, Note_on_c, 0, 69, 80
1, 156953, Note_on_c, 0, 69, 0
1, 156960, Note_on_c, 0, 76, 80
1, 157073, Note_on_c, 0, 76, 0
1, 157080, Note_on_c, 0, 67, 80
1, 157193, Note_on_c, 0, 67, 0
1, 157200, Note_on_c, 0, 74, 80
1, 157313, Note_on_c, 0, 74, 0
1, 157320, Note_on_c, 0, 67, 80
1, 157433, Note_on_c, 0, 67, 0
1, 157440, Note_on_c, 0, 72, 80
1, 157553, Note_on_c, 0, 72, 0
1, 157560, Note_on_c, 0, 67, 80
1, 157673, Note_on_c, 0, 67, 0
1, 157680, Note_on_c, 0, 71, 80
1, 157793, Note_on_c, 0, 71, 0
1, 157800, Note_on_c, 0, 67, 80
1, 157913, Note_on_c, 0, 67, 0
1, 157920, Note_on_c, 0, 72, 80
1, 158033, Note_on_c, 0, 72, 0
1, 158040, Note_on_c, 0, 67, 80
1, 158153, Note_on_c, 0, 67, 0
1, 158160, Note_on_c, 0, 74, 80
1, 158273, Note_on_c, 0, 74, 0
1, 158280, Note_on_c, 0, 67, 80
1, 158393, Note_on_c, 0, 67, 0
1, 158400, Note_on_c, 0, 76, 80
1, 158513, Note_on_c, 0, 76, 0
1, 158520, Note_on_c, 0, 69, 80
1, 158633, Note_on_c, 0, 69, 0
1, 158640, Note_on_c, 0, 76, 80
1, 158753, Note_on_c, 0, 76, 0
1, 158760, Note_on_c, 0, 69, 80
1, 158873, Note_on_c, 0, 69, 0
1, 158880, Note_on_c, 0, 76, 80
1, 158993, Note_on_c, 0, 76, 0
1, 159000, Note_on_c, 0, 69, 80
1, 159113, Note_on_c, 0, 69, 0
1, 159120, Note_on_c, 0, 81, 80
1, 159347, Note_on_c, 0, 81, 0
1, 159360, Note_on_c, 0, 69, 80
1, 159587, Note_on_c, 0, 69, 0
1, 159600, Note_on_c, 0, 71, 80
1, 159827, Note_on_c, 0, 71, 0
1, 159840, Note_on_c, 0, 72, 80
1, 159953, Note_on_c, 0, 72, 0
1, 159960, Note_on_c, 0, 67, 80
1, 160073, Note_on_c, 0, 67, 0
1, 160080, Note_on_c, 0, 74, 80
1, 160193, Note_on_c, 0, 74, 0
1, 160200, Note_on_c, 0, 67, 80
1, 160313, Note_on_c, 0, 67, 0
1, 160320, Note_on_c, 0, 72, 80
1, 160433, Note_on_c, 0, 72, 0
1, 160440, Note_on_c, 0, 67, 80
1, 160553, Note_on_c, 0, 67, 0
1, 160560, Note_on_c, 0, 71, 80
1, 160673, Note_on_c, 0, 71, 0
1, 160680, Note_on_c, 0, 67, 80
1, 160793, Note_on_c, 0, 67, 0
1, 160800, Note_on_c, 0, 79, 80
1, 160913, Note_on_c, 0, 79, 0
1, 160920, Note_on_c, 0, 67, 80
1, 161033, Note_on_c, 0, 67, 0
1, 161040, Note_on_c, 0, 77, 80
1, 161153, Note_on_c, 0, 77, 0
1, 161160, Note_on_c, 0, 67, 80
1, 161273, Note_on_c, 0, 67, 0
1, 161280, Note_on_c, 0, 76, 80
1, 161393, Note_on_c, 0, 76, 0
1, 161400, Note_on_c, 0, 69, 80
1, 161513, Note_on_c, 0, 69, 0
1, 161520, Note_on_c, 0, 76, 80
1, 161633, Note_on_c, 0, 76, 0
1, 161640, Note_on_c, 0, 69, 80
1, 161753, Note_on_c, 0, 69, 0
1, 161760, Note_on_c, 0, 76, 80
1, 161873, Note_on_c, 0, 76, 0
1, 161880, Note_on_c, 0, 69, 80
1, 161993, Note_on_c, 0, 69, 0
1, 162000, Note_on_c, 0, 72, 80
1, 162113, Note_on_c, 0, 72, 0
1, 162120, Note_on_c, 0, 69, 80
1, 162233, Note_on_c, 0, 69, 0
1, 162240, Note_on_c, 0, 72, 80
1, 162353, Note_on_c, 0, 72, 0
1, 162360, Note_on_c, 0, 69, 80
1, 162473, Note_on_c, 0, 69, 0
1, 162480, Note_on_c, 0, 72, 80
1, 162593, Note_on_c, 0, 72, 0
1, 162600, Note_on_c, 0, 69, 80
1, 162713, Note_on_c, 0, 69, 0
1, 162720, Note_on_c, 0, 76, 80
1, 162833, Note_on_c, 0, 76, 0
1, 162840, Note_on_c, 0, 69, 80
1, 162953, Note_on_c, 0, 69, 0
1, 162960, Note_on_c, 0, 76, 80
1, 163073, Note_on_c, 0, 76, 0
1, 163080, Note_on_c, 0, 69, 80
1, 163193, Note_on_c, 0, 69, 0
1, 163200, Note_on_c, 0, 76, 80
1, 163313, Note_on_c, 0, 76, 0
1, 163320, Note_on_c, 0, 69, 80
1, 163433, Note_on_c, 0, 69, 0
1, 163440, Note_on_c, 0, 72, 80
1, 163553, Note_on_c, 0, 72, 0
1, 163560, Note_on_c, 0, 69, 80
1, 163673, Note_on_c, 0, 69, 0
1, 163680, Note_on_c, 0, 72, 80
1, 163793, Note_on_c, 0, 72, 0
1, 163800, Note_on_c, 0, 69, 80
1, 163913, Note_on_c, 0, 69, 0
1, 163920, Note_on_c, 0, 72, 80
1, 164033, Note_on_c, 0, 72, 0
1, 164040, Note_on_c, 0, 69, 80
1, 164153, Note_on_c, 0, 69, 0
1, 164160, Note_on_c, 0, 76, 80
1, 164273, Note_on_c, 0, 76, 0
1, 164280, Note_on_c, 0, 69, 80
1, 164393, Note_on_c, 0, 69, 0
1, 164400, Note_on_c, 0, 76, 80
1, 164513, Note_on_c, 0, 76, 0
1, 164520, Note_on_c, 0, 69, 80
1, 164633, Note_on_c, 0, 69, 0
1, 164640, Note_on_c, 0, 76, 80
1, 164753, Note_on_c, 0, 76, 0
1, 164760, Note_on_c, 0, 69, 80
1, 164873, Note_on_c, 0, 69, 0
1, 164880, Note_on_c, 0, 72, 80
1, 164993, Note_on_c, 0, 72, 0
1, 165000, Note_on_c, 0, 69, 80
1, 165113, Note_on_c, 0, 69, 0
1, 165120, Note_on_c, 0, 72, 80
1, 165233, Note_on_c, 0, 72, 0
1, 165240, Note_on_c, 0, 69, 80
1, 165353, Note_on_c, 0, 69, 0
1, 165360, Note_on_c, 0, 76, 80
1, 165473, Note_on_c, 0, 76, 0
1, 165480, Note_on_c, 0, 69, 80
1, 165593, Note_on_c, 0, 69, 0
1, 165600, Tempo, 1200000
1, 165600, Note_on_c, 0, 81, 80
1, 166967, Note_on_c, 0, 81, 0
1, 167039, Tempo, 600000
1, 167040, End_track
2, 0, Start_track
2, 0, Title_t, "Piano, Piano, Piano\000"
2, 0, Key_signature, 0, "major"
2, 0, MIDI_port, 0
2, 0, Note_on_c, 0, 57, 80
2, 0, Note_on_c, 0, 60, 80
2, 0, Note_on_c, 0, 64, 80
2, 3647, Note_on_c, 0, 57, 0
2, 3647, Note_on_c, 0, 60, 0
2, 3647, Note_on_c, 0, 64, 0
2, 3840, Note_on_c, 0, 55, 80
2, 3840, Note_on_c, 0, 59, 80
2, 3840, Note_on_c, 0, 64, 80
2, 7487, Note_on_c, 0, 55, 0
2, 7487, Note_on_c, 0, 59, 0
2, 7487, Note_on_c, 0, 64, 0
2, 7680, Note_on_c, 0, 53, 80
2, 7680, Note_on_c, 0, 57, 80
2, 7680, Note_on_c, 0, 62, 80
2, 11327, Note_on_c, 0, 53, 0
2, 11327, Note_on_c, 0, 57, 0
2, 11327, Note_on_c, 0, 62, 0
2, 11520, Note_on_c, 0, 55, 80
2, 11520, Note_on_c, 0, 59, 80
2, 11520, Note_on_c, 0, 64, 80
2, 15167, Note_on_c, 0, 55, 0
2, 15167, Note_on_c, 0, 59, 0
2, 15167, Note_on_c, 0, 64, 0
2, 15360, Note_on_c, 0, 57, 80
2, 15587, Note_on_c, 0, 57, 0
2, 15600, Note_on_c, 0, 60, 80
2, 15600, Note_on_c, 0, 64, 80
2, 16055, Note_on_c, 0, 60, 0
2, 16055, Note_on_c, 0, 64, 0
2, 16080, Note_on_c, 0, 60, 80
2, 16080, Note_on_c, 0, 64, 80
2, 16307, Note_on_c, 0, 60, 0
2, 16307, Note_on_c, 0, 64, 0
2, 16320, Note_on_c, 0, 57, 80
2, 16547, Note_on_c, 0, 57, 0
2, 16560, Note_on_c, 0, 60, 80
2, 16560, Note_on_c, 0, 64, 80
2, 17015, Note_on_c, 0, 60, 0
2, 17015, Note_on_c, 0, 64, 0
2, 17040, Note_on_c, 0, 60, 80
2, 17040, Note_on_c, 0, 64, 80
2, 17267, Note_on_c, 0, 60, 0
2, 17267, Note_on_c, 0, 64, 0
2, 17280, Note_on_c, 0, 57, 80
2, 17507, Note_on_c, 0, 57, 0
2, 17520, Note_on_c, 0, 60, 80
2, 17520, Note_on_c, 0, 64, 80
2, 17975, Note_on_c, 0, 60, 0
2, 17975, Note_on_c, 0, 64, 0
2, 18000, Note_on_c, 0, 60, 80
2, 18000, Note_on_c, 0, 64, 80
2, 18227, Note_on_c, 0, 60, 0
2, 18227, Note_on_c, 0, 64, 0
2, 18240, Note_on_c, 0, 57, 80
2, 18467, Note_on_c, 0, 57, 0
2, 18480, Note_on_c, 0, 60, 80
2, 18480, Note_on_c, 0, 64, 80
2, 18935, Note_on_c, 0, 60, 0
2, 18935, Note_on_c, 0, 64, 0
2, 18960, Note_on_c, 0, 60, 80
2, 18960, Note_on_c, 0, 64, 80
2, 19187, Note_on_c, 0, 60, 0
2, 19187, Note_on_c, 0, 64, 0
2, 19200, Note_on_c, 0, 57, 80
2, 19427, Note_on_c, 0, 57, 0
2, 19440, Note_on_c, 0, 60, 80
2, 19440, Note_on_c, 0, 64, 80
2, 19895, Note_on_c, 0, 60, 0
2, 19895, Note_on_c, 0, 64, 0
2, 19920, Note_on_c, 0, 60, 80
2, 19920, Note_on_c, 0, 64, 80
2, 20147, Note_on_c, 0, 60, 0
2, 20147, Note_on_c, 0, 64, 0
2, 20160, Note_on_c, 0, 57, 80
2, 20387, Note_on_c, 0, 57, 0
2, 20400, Note_on_c, 0, 60, 80
2, 20400, Note_on_c, 0, 64, 80
2, 20855, Note_on_c, 0, 60, 0
2, 20855, Note_on_c, 0, 64, 0
2, 20880, Note_on_c, 0, 60, 80
2, 20880, Note_on_c, 0, 64, 80
2, 21107, Note_on_c, 0, 60, 0
2, 21107, Note_on_c, 0, 64, 0
2, 21120, Note_on_c, 0, 57, 80
2, 21347, Note_on_c, 0, 57, 0
2, 21360, Note_on_c, 0, 60, 80
2, 21360, Note_on_c, 0, 64, 80
2, 21815, Note_on_c, 0, 60, 0
2, 21815, Note_on_c, 0, 64, 0
2, 21840, Note_on_c, 0, 60, 80
2, 21840, Note_on_c, 0, 64, 80
2, 22067, Note_on_c, 0, 60, 0
2, 22067, Note_on_c, 0, 64, 0
2, 22080, Note_on_c, 0, 57, 80
2, 22307, Note_on_c, 0, 57, 0
2, 22320, Note_on_c, 0, 60, 80
2, 22320, Note_on_c, 0, 64, 80
2, 22775, Note_on_c, 0, 60, 0
2, 22775, Note_on_c, 0, 64, 0
2, 22800, Note_on_c, 0, 60, 80
2, 22800, Note_on_c, 0, 64, 80
2, 23027, Note_on_c, 0, 60, 0
2, 23027, Note_on_c, 0, 64, 0
2, 23040, Note_on_c, 0, 57, 80
2, 23267, Note_on_c, 0, 57, 0
2, 23280, Note_on_c, 0, 60, 80
2, 23280, Note_on_c, 0, 64, 80
2, 23735, Note_on_c, 0, 60, 0
2, 23735, Note_on_c, 0, 64, 0
2, 23760, Note_on_c, 0, 60, 80
2, 23760, Note_on_c, 0, 64, 80
2, 23987, Note_on_c, 0, 60, 0
2, 23987, Note_on_c, 0, 64, 0
2, 24000, Note_on_c, 0, 57, 80
2, 24227, Note_on_c, 0, 57, 0
2, 24240, Note_on_c, 0, 60, 80
2, 24240, Note_on_c, 0, 64, 80
2, 24695, Note_on_c, 0, 60, 0
2, 24695, Note_on_c, 0, 64, 0
2, 24720, Note_on_c, 0, 60, 80
2, 24720, Note_on_c, 0, 64, 80
2, 24947, Note_on_c, 0, 60, 0
2, 24947, Note_on_c, 0, 64, 0
2, 24960, Note_on_c, 0, 57, 80
2, 25187, Note_on_c, 0, 57, 0
2, 25200, Note_on_c, 0, 60, 80
2, 25200, Note_on_c, 0, 64, 80
2, 25655, Note_on_c, 0, 60, 0
2, 25655, Note_on_c, 0, 64, 0
2, 25680, Note_on_c, 0, 60, 80
2, 25680, Note_on_c, 0, 64, 80
2, 25907, Note_on_c, 0, 60, 0
2, 25907, Note_on_c, 0, 64, 0
2, 25920, Note_on_c, 0, 57, 80
2, 26147, Note_on_c, 0, 57, 0
2, 26160, Note_on_c, 0, 60, 80
2, 26160, Note_on_c, 0, 64, 80
2, 26615, Note_on_c, 0, 60, 0
2, 26615, Note_on_c, 0, 64, 0
2, 26640, Note_on_c, 0, 60, 80
2, 26640, Note_on_c, 0, 64, 80
2, 26867, Note_on_c, 0, 60, 0
2, 26867, Note_on_c, 0, 64, 0
2, 26880, Note_on_c, 0, 55, 80
2, 27107, Note_on_c, 0, 55, 0
2, 27120, Note_on_c, 0, 59, 80
2, 27120, Note_on_c, 0, 64, 80
2, 27575, Note_on_c, 0, 59, 0
2, 27575, Note_on_c, 0, 64, 0
2, 27600, Note_on_c, 0, 59, 80
2, 27600, Note_on_c, 0, 64, 80
2, 27827, Note_on_c, 0, 59, 0
2, 27827, Note_on_c, 0, 64, 0
2, 27840, Note_on_c, 0, 55, 80
2, 28067, Note_on_c, 0, 55, 0
2, 28080, Note_on_c, 0, 59, 80
2, 28080, Note_on_c, 0, 64, 80
2, 28535, Note_on_c, 0, 59, 0
2, 28535, Note_on_c, 0, 64, 0
2, 28560, Note_on_c, 0, 59, 80
2, 28560, Note_on_c, 0, 64, 80
2, 28787, Note_on_c, 0, 59, 0
2, 28787, Note_on_c, 0, 64, 0
2, 28800, Note_on_c, 0, 55, 80
2, 29027, Note_on_c, 0, 55, 0
2, 29040, Note_on_c, 0, 59, 80
2, 29040, Note_on_c, 0, 64, 80
2, 29495, Note_on_c, 0, 59, 0
2, 29495, Note_on_c, 0, 64, 0
2, 29520, Note_on_c, 0, 59, 80
2, 29520, Note_on_c, 0, 64, 80
2, 29747, Note_on_c, 0, 59, 0
2, 29747, Note_on_c, 0, 64, 0
2, 29760, Note_on_c, 0, 55, 80
2, 29987, Note_on_c, 0, 55, 0
2, 30000, Note_on_c, 0, 59, 80
2, 30000, Note_on_c, 0, 64, 80
2, 30455, Note_on_c, 0, 59, 0
2, 30455, Note_on_c, 0, 64, 0
2, 30480, Note_on_c, 0, 59, 80
2, 30480, Note_on_c, 0, 64, 80
2, 30707, Note_on_c, 0, 59, 0
2, 30707, Note_on_c, 0, 64, 0
2, 30720, Note_on_c, 0, 53, 80
2, 30947, Note_on_c, 0, 53, 0
2, 30960, Note_on_c, 0, 57, 80
2, 30960, Note_on_c, 0, 62, 80
2, 31415, Note_on_c, 0, 57, 0
2, 31415, Note_on_c, 0, 62, 0
2, 31440, Note_on_c, 0, 57, 80
2, 31440, Note_on_c, 0, 62, 80
2, 31667, Note_on_c, 0, 57, 0
2, 31667, Note_on_c, 0, 62, 0
2, 31680, Note_on_c, 0, 53, 80
2, 31907, Note_on_c, 0, 53, 0
2, 31920, Note_on_c, 0, 57, 80
2, 31920, Note_on_c, 0, 62, 80
2, 32375, Note_on_c, 0, 57, 0
2, 32375, Note_on_c, 0, 62, 0
2, 32400, Note_on_c, 0, 57, 80
2, 32400, Note_on_c, 0, 62, 80
2, 32627, Note_on_c, 0, 57, 0
2, 32627, Note_on_c, 0, 62, 0
2, 32640, Note_on_c, 0, 53, 80
2, 32867, Note_on_c, 0, 53, 0
2, 32880, Note_on_c, 0, 57, 80
2, 32880, Note_on_c, 0, 62, 80
2, 33335, Note_on_c, 0, 57, 0
2, 33335, Note_on_c, 0, 62, 0
2, 33360, Note_on_c, 0, 57, 80
2, 33360, Note_on_c, 0, 62, 80
2, 33587, Note_on_c, 0, 57, 0
2, 33587, Note_on_c, 0, 62, 0
2, 33600, Note_on_c, 0, 53, 80
2, 33827, Note_on_c, 0, 53, 0
2, 33840, Note_on_c, 0, 57, 80
2, 33840, Note_on_c, 0, 62, 80
2, 34295, Note_on_c, 0, 57, 0
2, 34295, Note_on_c, 0, 62, 0
2, 34320, Note_on_c, 0, 57, 80
2, 34320, Note_on_c, 0, 62, 80
2, 34547, Note_on_c, 0, 57, 0
2, 34547, Note_on_c, 0, 62, 0
2, 34560, Note_on_c, 0, 55, 80
2, 34787, Note_on_c, 0, 55, 0
2, 34800, Note_on_c, 0, 59, 80
2, 34800, Note_on_c, 0, 64, 80
2, 35255, Note_on_c, 0, 59, 0
2, 35255, Note_on_c, 0, 64, 0
2, 35280, Note_on_c, 0, 59, 80
2, 35280, Note_on_c, 0, 64, 80
2, 35507, Note_on_c, 0, 59, 0
2, 35507, Note_on_c, 0, 64, 0
2, 35520, Note_on_c, 0, 55, 80
2, 35747, Note_on_c, 0, 55, 0
2, 35760, Note_on_c, 0, 59, 80
2, 35760, Note_on_c, 0, 64, 80
2, 36215, Note_on_c, 0, 59, 0
2, 36215, Note_on_c, 0, 64, 0
2, 36240, Note_on_c, 0, 59, 80
2, 36240, Note_on_c, 0, 64, 80
2, 36467, Note_on_c, 0, 59, 0
2, 36467, Note_on_c, 0, 64, 0
2, 36480, Note_on_c, 0, 55, 80
2, 36707, Note_on_c, 0, 55, 0
2, 36720, Note_on_c, 0, 59, 80
2, 36720, Note_on_c, 0, 64, 80
2, 37175, Note_on_c, 0, 59, 0
2, 37175, Note_on_c, 0, 64, 0
2, 37200, Note_on_c, 0, 59, 80
2, 37200, Note_on_c, 0, 64, 80
2, 37427, Note_on_c, 0, 59, 0
2, 37427, Note_on_c, 0, 64, 0
2, 37440, Note_on_c, 0, 55, 80
2, 37667, Note_on_c, 0, 55, 0
2, 37680, Note_on_c, 0, 59, 80
2, 37680, Note_on_c, 0, 64, 80
2, 38135, Note_on_c, 0, 59, 0
2, 38135, Note_on_c, 0, 64, 0
2, 38160, Note_on_c, 0, 59, 80
2, 38160, Note_on_c, 0, 64, 80
2, 38387, Note_on_c, 0, 59, 0
2, 38387, Note_on_c, 0, 64, 0
2, 38400, Note_on_c, 0, 57, 80
2, 38627, Note_on_c, 0, 57, 0
2, 38640, Note_on_c, 0, 60, 80
2, 38640, Note_on_c, 0, 64, 80
2, 39095, Note_on_c, 0, 60, 0
2, 39095, Note_on_c, 0, 64, 0
2, 39120, Note_on_c, 0, 60, 80
2, 39120, Note_on_c, 0, 64, 80
2, 39347, Note_on_c, 0, 60, 0
2, 39347, Note_on_c, 0, 64, 0
2, 39360, Note_on_c, 0, 57, 80
2, 39587, Note_on_c, 0, 57, 0
2, 39600, Note_on_c, 0, 60, 80
2, 39600, Note_on_c, 0, 64, 80
2, 40055, Note_on_c, 0, 60, 0
2, 40055, Note_on_c, 0, 64, 0
2, 40080, Note_on_c, 0, 60, 80
2, 40080, Note_on_c, 0, 64, 80
2, 40307, Note_on_c, 0, 60, 0
2, 40307, Note_on_c, 0, 64, 0
2, 40320, Note_on_c, 0, 57, 80
2, 40547, Note_on_c, 0, 57, 0
2, 40560, Note_on_c, 0, 60, 80
2, 40560, Note_on_c, 0, 64, 80
2, 41015, Note_on_c, 0, 60, 0
2, 41015, Note_on_c, 0, 64, 0
2, 41040, Note_on_c, 0, 60, 80
2, 41040, Note_on_c, 0, 64, 80
2, 41267, Note_on_c, 0, 60, 0
2, 41267, Note_on_c, 0, 64, 0
2, 41280, Note_on_c, 0, 57, 80
2, 41507, Note_on_c, 0, 57, 0
2, 41520, Note_on_c, 0, 60, 80
2, 41520, Note_on_c, 0, 64, 80
2, 41975, Note_on_c, 0, 60, 0
2, 41975, Note_on_c, 0, 64, 0
2, 42000, Note_on_c, 0, 60, 80
2, 42000, Note_on_c, 0, 64, 80
2, 42227, Note_on_c, 0, 60, 0
2, 42227, Note_on_c, 0, 64, 0
2, 42240, Note_on_c, 0, 55, 80
2, 42467, Note_on_c, 0, 55, 0
2, 42480, Note_on_c, 0, 59, 80
2, 42480, Note_on_c, 0, 64, 80
2, 42935, Note_on_c, 0, 59, 0
2, 42935, Note_on_c, 0, 64, 0
2, 42960, Note_on_c, 0, 59, 80
2, 42960, Note_on_c, 0, 64, 80
2, 43187, Note_on_c, 0, 59, 0
2, 43187, Note_on_c, 0, 64, 0
2, 43200, Note_on_c, 0, 55, 80
2, 43427, Note_on_c, 0, 55, 0
2, 43440, Note_on_c, 0, 59, 80
2, 43440, Note_on_c, 0, 64, 80
2, 43895, Note_on_c, 0, 59, 0
2, 43895, Note_on_c, 0, 64, 0
2, 43920, Note_on_c, 0, 59, 80
2, 43920, Note_on_c, 0, 64, 80
2, 44147, Note_on_c, 0, 59, 0
2, 44147, Note_on_c, 0, 64, 0
2, 44160, Note_on_c, 0, 55, 80
2, 44387, Note_on_c, 0, 55, 0
2, 44400, Note_on_c, 0, 59, 80
2, 44400, Note_on_c, 0, 64, 80
2, 44855, Note_on_c, 0, 59, 0
2, 44855, Note_on_c, 0, 64, 0
2, 44880, Note_on_c, 0, 59, 80
2, 44880, Note_on_c, 0, 64, 80
2, 45107, Note_on_c, 0, 59, 0
2, 45107, Note_on_c, 0, 64, 0
2, 45120, Note_on_c, 0, 55, 80
2, 45347, Note_on_c, 0, 55, 0
2, 45360, Note_on_c, 0, 59, 80
2, 45360, Note_on_c, 0, 64, 80
2, 45815, Note_on_c, 0, 59, 0
2, 45815, Note_on_c, 0, 64, 0
2, 45840, Note_on_c, 0, 59, 80
2, 45840, Note_on_c, 0, 64, 80
2, 46067, Note_on_c, 0, 59, 0
2, 46067, Note_on_c, 0, 64, 0
2, 46080, Note_on_c, 0, 53, 80
2, 46307, Note_on_c, 0, 53, 0
2, 46320, Note_on_c, 0, 57, 80
2, 46320, Note_on_c, 0, 62, 80
2, 46775, Note_on_c, 0, 57, 0
2, 46775, Note_on_c, 0, 62, 0
2, 46800, Note_on_c, 0, 57, 80
2, 46800, Note_on_c, 0, 62, 80
2, 47027, Note_on_c, 0, 57, 0
2, 47027, Note_on_c, 0, 62, 0
2, 47040, Note_on_c, 0, 53, 80
2, 47267, Note_on_c, 0, 53, 0
2, 47280, Note_on_c, 0, 57, 80
2, 47280, Note_on_c, 0, 62, 80
2, 47735, Note_on_c, 0, 57, 0
2, 47735, Note_on_c, 0, 62, 0
2, 47760, Note_on_c, 0, 57, 80
2, 47760, Note_on_c, 0, 62, 80
2, 47987, Note_on_c, 0, 57, 0
2, 47987, Note_on_c, 0, 62, 0
2, 48000, Note_on_c, 0, 53, 80
2, 48227, Note_on_c, 0, 53, 0
2, 48240, Note_on_c, 0, 57, 80
2, 48240, Note_on_c, 0, 62, 80
2, 48695, Note_on_c, 0, 57, 0
2, 48695, Note_on_c, 0, 62, 0
2, 48720, Note_on_c, 0, 57, 80
2, 48720, Note_on_c, 0, 62, 80
2, 48947, Note_on_c, 0, 57, 0
2, 48947, Note_on_c, 0, 62, 0
2, 48960, Note_on_c, 0, 53, 80
2, 49187, Note_on_c, 0, 53, 0
2, 49200, Note_on_c, 0, 57, 80
2, 49200, Note_on_c, 0, 62, 80
2, 49655, Note_on_c, 0, 57, 0
2, 49655, Note_on_c, 0, 62, 0
2, 49680, Note_on_c, 0, 57, 80
2, 49680, Note_on_c, 0, 62, 80
2, 49907, Note_on_c, 0, 57, 0
2, 49907, Note_on_c, 0, 62, 0
2, 49920, Note_on_c, 0, 55, 80
2, 50147, Note_on_c, 0, 55, 0
2, 50160, Note_on_c, 0, 59, 80
2, 50160, Note_on_c, 0, 64, 80
2, 50615, Note_on_c, 0, 59, 0
2, 50615, Note_on_c, 0, 64, 0
2, 50640, Note_on_c, 0, 59, 80
2, 50640, Note_on_c, 0, 64, 80
2, 50867, Note_on_c, 0, 59, 0
2, 50867, Note_on_c, 0, 64, 0
2, 50880, Note_on_c, 0, 55, 80
2, 51107, Note_on_c, 0, 55, 0
2, 51120, Note_on_c, 0, 59, 80
2, 51120, Note_on_c, 0, 64, 80
2, 51575, Note_on_c, 0, 59, 0
2, 51575, Note_on_c, 0, 64, 0
2, 51600, Note_on_c, 0, 59, 80
2, 51600, Note_on_c, 0, 64, 80
2, 51827, Note_on_c, 0, 59, 0
2, 51827, Note_on_c, 0, 64, 0
2, 51840, Note_on_c, 0, 55, 80
2, 52067, Note_on_c, 0, 55, 0
2, 52080, Note_on_c, 0, 59, 80
2, 52080, Note_on_c, 0, 64, 80
2, 52535, Note_on_c, 0, 59, 0
2, 52535, Note_on_c, 0, 64, 0
2, 52560, Note_on_c, 0, 59, 80
2, 52560, Note_on_c, 0, 64, 80
2, 52787, Note_on_c, 0, 59, 0
2, 52787, Note_on_c, 0, 64, 0
2, 52800, Note_on_c, 0, 55, 80
2, 53027, Note_on_c, 0, 55, 0
2, 53040, Note_on_c, 0, 59, 80
2, 53040, Note_on_c, 0, 64, 80
2, 53495, Note_on_c, 0, 59, 0
2, 53495, Note_on_c, 0, 64, 0
2, 53520, Note_on_c, 0, 59, 80
2, 53520, Note_on_c, 0, 64, 80
2, 53747, Note_on_c, 0, 59, 0
2, 53747, Note_on_c, 0, 64, 0
2, 53760, Note_on_c, 0, 57, 80
2, 53987, Note_on_c, 0, 57, 0
2, 54000, Note_on_c, 0, 60, 80
2, 54000, Note_on_c, 0, 64, 80
2, 54455, Note_on_c, 0, 60, 0
2, 54455, Note_on_c, 0, 64, 0
2, 54480, Note_on_c, 0, 60, 80
2, 54480, Note_on_c, 0, 64, 80
2, 54707, Note_on_c, 0, 60, 0
2, 54707, Note_on_c, 0, 64, 0
2, 54720, Note_on_c, 0, 57, 80
2, 54947, Note_on_c, 0, 57, 0
2, 54960, Note_on_c, 0, 60, 80
2, 54960, Note_on_c, 0, 64, 80
2, 55415, Note_on_c, 0, 60, 0
2, 55415, Note_on_c, 0, 64, 0
2, 55440, Note_on_c, 0, 60, 80
2, 55440, Note_on_c, 0, 64, 80
2, 55667, Note_on_c, 0, 60, 0
2, 55667, Note_on_c, 0, 64, 0
2, 55680, Note_on_c, 0, 57, 80
2, 55907, Note_on_c, 0, 57, 0
2, 55920, Note_on_c, 0, 60, 80
2, 55920, Note_on_c, 0, 64, 80
2, 56375, Note_on_c, 0, 60, 0
2, 56375, Note_on_c, 0, 64, 0
2, 56400, Note_on_c, 0, 60, 80
2, 56400, Note_on_c, 0, 64, 80
2, 56627, Note_on_c, 0, 60, 0
2, 56627, Note_on_c, 0, 64, 0
2, 56640, Note_on_c, 0, 57, 80
2, 56867, Note_on_c, 0, 57, 0
2, 56880, Note_on_c, 0, 60, 80
2, 56880, Note_on_c, 0, 64, 80
2, 57335, Note_on_c, 0, 60, 0
2, 57335, Note_on_c, 0, 64, 0
2, 57360, Note_on_c, 0, 60, 80
2, 57360, Note_on_c, 0, 64, 80
2, 57587, Note_on_c, 0, 60, 0
2, 57587, Note_on_c, 0, 64, 0
2, 57600, Note_on_c, 0, 55, 80
2, 57827, Note_on_c, 0, 55, 0
2, 57840, Note_on_c, 0, 59, 80
2, 57840, Note_on_c, 0, 64, 80
2, 58295, Note_on_c, 0, 59, 0
2, 58295, Note_on_c, 0, 64, 0
2, 58320, Note_on_c, 0, 59, 80
2, 58320, Note_on_c, 0, 64, 80
2, 58547, Note_on_c, 0, 59, 0
2, 58547, Note_on_c, 0, 64, 0
2, 58560, Note_on_c, 0, 55, 80
2, 58787, Note_on_c, 0, 55, 0
2, 58800, Note_on_c, 0, 59, 80
2, 58800, Note_on_c, 0, 64, 80
2, 59255, Note_on_c, 0, 59, 0
2, 59255, Note_on_c, 0, 64, 0
2, 59280, Note_on_c, 0, 59, 80
2, 59280, Note_on_c, 0, 64, 80
2, 59507, Note_on_c, 0, 59, 0
2, 59507, Note_on_c, 0, 64, 0
2, 59520, Note_on_c, 0, 55, 80
2, 59747, Note_on_c, 0, 55, 0
2, 59760, Note_on_c, 0, 59, 80
2, 59760, Note_on_c, 0, 64, 80
2, 60215, Note_on_c, 0, 59, 0
2, 60215, Note_on_c, 0, 64, 0
2, 60240, Note_on_c, 0, 59, 80
2, 60240, Note_on_c, 0, 64, 80
2, 60467, Note_on_c, 0, 59, 0
2, 60467, Note_on_c, 0, 64, 0
2, 60480, Note_on_c, 0, 55, 80
2, 60707, Note_on_c, 0, 55, 0
2, 60720, Note_on_c, 0, 59, 80
2, 60720, Note_on_c, 0, 64, 80
2, 61175, Note_on_c, 0, 59, 0
2, 61175, Note_on_c, 0, 64, 0
2, 61200, Note_on_c, 0, 59, 80
2, 61200, Note_on_c, 0, 64, 80
2, 61427, Note_on_c, 0, 59, 0
2, 61427, Note_on_c, 0, 64, 0
2, 61440, Note_on_c, 0, 53, 80
2, 61667, Note_on_c, 0, 53, 0
2, 61680, Note_on_c, 0, 57, 80
2, 61680, Note_on_c, 0, 62, 80
2, 62135, Note_on_c, 0, 57, 0
2, 62135, Note_on_c, 0, 62, 0
2, 62160, Note_on_c, 0, 57, 80
2, 62160, Note_on_c, 0, 62, 80
2, 62387, Note_on_c, 0, 57, 0
2, 62387, Note_on_c, 0, 62, 0
2, 62400, Note_on_c, 0, 53, 80
2, 62627, Note_on_c, 0, 53, 0
2, 62640, Note_on_c, 0, 57, 80
2, 62640, Note_on_c, 0, 62, 80
2, 63095, Note_on_c, 0, 57, 0
2, 63095, Note_on_c, 0, 62, 0
2, 63120, Note_on_c, 0, 57, 80
2, 63120, Note_on_c, 0, 62, 80
2, 63347, Note_on_c, 0, 57, 0
2, 63347, Note_on_c, 0, 62, 0
2, 63360, Note_on_c, 0, 53, 80
2, 63587, Note_on_c, 0, 53, 0
2, 63600, Note_on_c, 0, 57, 80
2, 63600, Note_on_c, 0, 62, 80
2, 64055, Note_on_c, 0, 57, 0
2, 64055, Note_on_c, 0, 62, 0
2, 64080, Note_on_c, 0, 57, 80
2, 64080, Note_on_c, 0, 62, 80
2, 64307, Note_on_c, 0, 57, 0
2, 64307, Note_on_c, 0, 62, 0
2, 64320, Note_on_c, 0, 53, 80
2, 64547, Note_on_c, 0, 53, 0
2, 64560, Note_on_c, 0, 57, 80
2, 64560, Note_on_c, 0, 62, 80
2, 65015, Note_on_c, 0, 57, 0
2, 65015, Note_on_c, 0, 62, 0
2, 65040, Note_on_c, 0, 57, 80
2, 65040, Note_on_c, 0, 62, 80
2, 65267, Note_on_c, 0, 57, 0
2, 65267, Note_on_c, 0, 62, 0
2, 65280, Note_on_c, 0, 55, 80
2, 65507, Note_on_c, 0, 55, 0
2, 65520, Note_on_c, 0, 59, 80
2, 65520, Note_on_c, 0, 64, 80
2, 65975, Note_on_c, 0, 59, 0
2, 65975, Note_on_c, 0, 64, 0
2, 66000, Note_on_c, 0, 59, 80
2, 66000, Note_on_c, 0, 64, 80
2, 66227, Note_on_c, 0, 59, 0
2, 66227, Note_on_c, 0, 64, 0
2, 66240, Note_on_c, 0, 55, 80
2, 66467, Note_on_c, 0, 55, 0
2, 66480, Note_on_c, 0, 59, 80
2, 66480, Note_on_c, 0, 64, 80
2, 66935, Note_on_c, 0, 59, 0
2, 66935, Note_on_c, 0, 64, 0
2, 66960, Note_on_c, 0, 59, 80
2, 66960, Note_on_c, 0, 64, 80
2, 67187, Note_on_c, 0, 59, 0
2, 67187, Note_on_c, 0, 64, 0
2, 67200, Note_on_c, 0, 55, 80
2, 67427, Note_on_c, 0, 55, 0
2, 67440, Note_on_c, 0, 59, 80
2, 67440, Note_on_c, 0, 64, 80
2, 67895, Note_on_c, 0, 59, 0
2, 67895, Note_on_c, 0, 64, 0
2, 67920, Note_on_c, 0, 59, 80
2, 67920, Note_on_c, 0, 64, 80
2, 68147, Note_on_c, 0, 59, 0
2, 68147, Note_on_c, 0, 64, 0
2, 68160, Note_on_c, 0, 55, 80
2, 68387, Note_on_c, 0, 55, 0
2, 68400, Note_on_c, 0, 59, 80
2, 68400, Note_on_c, 0, 64, 80
2, 68855, Note_on_c, 0, 59, 0
2, 68855, Note_on_c, 0, 64, 0
2, 68880, Note_on_c, 0, 59, 80
2, 68880, Note_on_c, 0, 64, 80
2, 69107, Note_on_c, 0, 59, 0
2, 69107, Note_on_c, 0, 64, 0
2, 69120, Note_on_c, 0, 57, 80
2, 69233, Note_on_c, 0, 57, 0
2, 69240, Note_on_c, 0, 60, 80
2, 69353, Note_on_c, 0, 60, 0
2, 69360, Note_on_c, 0, 64, 80
2, 69473, Note_on_c, 0, 64, 0
2, 69480, Note_on_c, 0, 65, 80
2, 69593, Note_on_c, 0, 65, 0
2, 69600, Note_on_c, 0, 64, 80
2, 69827, Note_on_c, 0, 64, 0
2, 69840, Note_on_c, 0, 60, 80
2, 69840, Note_on_c, 0, 64, 80
2, 70067, Note_on_c, 0, 60, 0
2, 70067, Note_on_c, 0, 64, 0
2, 70080, Note_on_c, 0, 57, 80
2, 70307, Note_on_c, 0, 57, 0
2, 70320, Note_on_c, 0, 60, 80
2, 70320, Note_on_c, 0, 64, 80
2, 70775, Note_on_c, 0, 60, 0
2, 70775, Note_on_c, 0, 64, 0
2, 70800, Note_on_c, 0, 60, 80
2, 70800, Note_on_c, 0, 64, 80
2, 71027, Note_on_c, 0, 60, 0
2, 71027, Note_on_c, 0, 64, 0
2, 71040, Note_on_c, 0, 55, 80
2, 71153, Note_on_c, 0, 55, 0
2, 71160, Note_on_c, 0, 59, 80
2, 71273, Note_on_c, 0, 59, 0
2, 71280, Note_on_c, 0, 64, 80
2, 71393, Note_on_c, 0, 64, 0
2, 71400, Note_on_c, 0, 65, 80
2, 71513, Note_on_c, 0, 65, 0
2, 71520, Note_on_c, 0, 64, 80
2, 71747, Note_on_c, 0, 64, 0
2, 71760, Note_on_c, 0, 59, 80
2, 71760, Note_on_c, 0, 64, 80
2, 71987, Note_on_c, 0, 59, 0
2, 71987, Note_on_c, 0, 64, 0
2, 72000, Note_on_c, 0, 55, 80
2, 72227, Note_on_c, 0, 55, 0
2, 72240, Note_on_c, 0, 59, 80
2, 72240, Note_on_c, 0, 64, 80
2, 72695, Note_on_c, 0, 59, 0
2, 72695, Note_on_c, 0, 64, 0
2, 72720, Note_on_c, 0, 59, 80
2, 72720, Note_on_c, 0, 64, 80
2, 72947, Note_on_c, 0, 59, 0
2, 72947, Note_on_c, 0, 64, 0
2, 72960, Note_on_c, 0, 53, 80
2, 73073, Note_on_c, 0, 53, 0
2, 73080, Note_on_c, 0, 57, 80
2, 73193, Note_on_c, 0, 57, 0
2, 73200, Note_on_c, 0, 62, 80
2, 73313, Note_on_c, 0, 62, 0
2, 73320, Note_on_c, 0, 64, 80
2, 73433, Note_on_c, 0, 64, 0
2, 73440, Note_on_c, 0, 62, 80
2, 73667, Note_on_c, 0, 62, 0
2, 73680, Note_on_c, 0, 57, 80
2, 73680, Note_on_c, 0, 62, 80
2, 73907, Note_on_c, 0, 57, 0
2, 73907, Note_on_c, 0, 62, 0
2, 73920, Note_on_c, 0, 53, 80
2, 74147, Note_on_c, 0, 53, 0
2, 74160, Note_on_c, 0, 57, 80
2, 74160, Note_on_c, 0, 62, 80
2, 74615, Note_on_c, 0, 57, 0
2, 74615, Note_on_c, 0, 62, 0
2, 74640, Note_on_c, 0, 57, 80
2, 74640, Note_on_c, 0, 62, 80
2, 74867, Note_on_c, 0, 57, 0
2, 74867, Note_on_c, 0, 62, 0
2, 74880, Note_on_c, 0, 55, 80
2, 74993, Note_on_c, 0, 55, 0
2, 75000, Note_on_c, 0, 59, 80
2, 75113, Note_on_c, 0, 59, 0
2, 75120, Note_on_c, 0, 64, 80
2, 75233, Note_on_c, 0, 64, 0
2, 75240, Note_on_c, 0, 65, 80
2, 75353, Note_on_c, 0, 65, 0
2, 75360, Note_on_c, 0, 64, 80
2, 75587, Note_on_c, 0, 64, 0
2, 75600, Note_on_c, 0, 59, 80
2, 75600, Note_on_c, 0, 64, 80
2, 75827, Note_on_c, 0, 59, 0
2, 75827, Note_on_c, 0, 64, 0
2, 75840, Note_on_c, 0, 55, 80
2, 76067, Note_on_c, 0, 55, 0
2, 76080, Note_on_c, 0, 59, 80
2, 76080, Note_on_c, 0, 64, 80
2, 76535, Note_on_c, 0, 59, 0
2, 76535, Note_on_c, 0, 64, 0
2, 76560, Note_on_c, 0, 59, 80
2, 76560, Note_on_c, 0, 64, 80
2, 76787, Note_on_c, 0, 59, 0
2, 76787, Note_on_c, 0, 64, 0
2, 76800, Note_on_c, 0, 57, 80
2, 76913, Note_on_c, 0, 57, 0
2, 76920, Note_on_c, 0, 60, 80
2, 77033, Note_on_c, 0, 60, 0
2, 77040, Note_on_c, 0, 64, 80
2, 77153, Note_on_c, 0, 64, 0
2, 77160, Note_on_c, 0, 65, 80
2, 77273, Note_on_c, 0, 65, 0
2, 77280, Note_on_c, 0, 64, 80
2, 77507, Note_on_c, 0, 64, 0
2, 77520, Note_on_c, 0, 60, 80
2, 77520, Note_on_c, 0, 64, 80
2, 77747, Note_on_c, 0, 60, 0
2, 77747, Note_on_c, 0, 64, 0
2, 77760, Note_on_c, 0, 57, 80
2, 77987, Note_on_c, 0, 57, 0
2, 78000, Note_on_c, 0, 60, 80
2, 78000, Note_on_c, 0, 64, 80
2, 78455, Note_on_c, 0, 60, 0
2, 78455, Note_on_c, 0, 64, 0
2, 78480, Note_on_c, 0, 60, 80
2, 78480, Note_on_c, 0, 64, 80
2, 78707, Note_on_c, 0, 60, 0
2, 78707, Note_on_c, 0, 64, 0
2, 78720, Note_on_c, 0, 55, 80
2, 78833, Note_on_c, 0, 55, 0
2, 78840, Note_on_c, 0, 59, 80
2, 78953, Note_on_c, 0, 59, 0
2, 78960, Note_on_c, 0, 64, 80
2, 79073, Note_on_c, 0, 64, 0
2, 79080, Note_on_c, 0, 65, 80
2, 79193, Note_on_c, 0, 65, 0
2, 79200, Note_on_c, 0, 64, 80
2, 79427, Note_on_c, 0, 64, 0
2, 79440, Note_on_c, 0, 59, 80
2, 79440, Note_on_c, 0, 64, 80
2, 79667, Note_on_c, 0, 59, 0
2, 79667, Note_on_c, 0, 64, 0
2, 79680, Note_on_c, 0, 55, 80
2, 79907, Note_on_c, 0, 55, 0
2, 79920, Note_on_c, 0, 59, 80
2, 79920, Note_on_c, 0, 64, 80
2, 80375, Note_on_c, 0, 59, 0
2, 80375, Note_on_c, 0, 64, 0
2, 80400, Note_on_c, 0, 59, 80
2, 80400, Note_on_c, 0, 64, 80
2, 80627, Note_on_c, 0, 59, 0
2, 80627, Note_on_c, 0, 64, 0
2, 80640, Note_on_c, 0, 53, 80
2, 80753, Note_on_c, 0, 53, 0
2, 80760, Note_on_c, 0, 57, 80
2, 80873, Note_on_c, 0, 57, 0
2, 80880, Note_on_c, 0, 62, 80
2, 80993, Note_on_c, 0, 62, 0
2, 81000, Note_on_c, 0, 64, 80
2, 81113, Note_on_c, 0, 64, 0
2, 81120, Note_on_c, 0, 62, 80
2, 81347, Note_on_c, 0, 62, 0
2, 81360, Note_on_c, 0, 57, 80
2, 81360, Note_on_c, 0, 62, 80
2, 81587, Note_on_c, 0, 57, 0
2, 81587, Note_on_c, 0, 62, 0
2, 81600, Note_on_c, 0, 53, 80
2, 81827, Note_on_c, 0, 53, 0
2, 81840, Note_on_c, 0, 57, 80
2, 81840, Note_on_c, 0, 62, 80
2, 82295, Note_on_c, 0, 57, 0
2, 82295, Note_on_c, 0, 62, 0
2, 82320, Note_on_c, 0, 57, 80
2, 82320, Note_on_c, 0, 62, 80
2, 82547, Note_on_c, 0, 57, 0
2, 82547, Note_on_c, 0, 62, 0
2, 82560, Note_on_c, 0, 55, 80
2, 82673, Note_on_c, 0, 55, 0
2, 82680, Note_on_c, 0, 59, 80
2, 82793, Note_on_c, 0, 59, 0
2, 82800, Note_on_c, 0, 64, 80
2, 82913, Note_on_c, 0, 64, 0
2, 82920, Note_on_c, 0, 65, 80
2, 83033, Note_on_c, 0, 65, 0
2, 83040, Note_on_c, 0, 64, 80
2, 83267, Note_on_c, 0, 64, 0
2, 83280, Note_on_c, 0, 59, 80
2, 83280, Note_on_c, 0, 64, 80
2, 83507, Note_on_c, 0, 59, 0
2, 83507, Note_on_c, 0, 64, 0
2, 83520, Note_on_c, 0, 55, 80
2, 83747, Note_on_c, 0, 55, 0
2, 83760, Note_on_c, 0, 59, 80
2, 83760, Note_on_c, 0, 64, 80
2, 84215, Note_on_c, 0, 59, 0
2, 84215, Note_on_c, 0, 64, 0
2, 84240, Note_on_c, 0, 59, 80
2, 84240, Note_on_c, 0, 64, 80
2, 84467, Note_on_c, 0, 59, 0
2, 84467, Note_on_c, 0, 64, 0
2, 84480, Note_on_c, 0, 57, 80
2, 84707, Note_on_c, 0, 57, 0
2, 84720, Note_on_c, 0, 60, 80
2, 84720, Note_on_c, 0, 64, 80
2, 85175, Note_on_c, 0, 60, 0
2, 85175, Note_on_c, 0, 64, 0
2, 85200, Note_on_c, 0, 60, 80
2, 85200, Note_on_c, 0, 64, 80
2, 85427, Note_on_c, 0, 60, 0
2, 85427, Note_on_c, 0, 64, 0
2, 85440, Note_on_c, 0, 57, 80
2, 85667, Note_on_c, 0, 57, 0
2, 85680, Note_on_c, 0, 60, 80
2, 85680, Note_on_c, 0, 64, 80
2, 86135, Note_on_c, 0, 60, 0
2, 86135, Note_on_c, 0, 64, 0
2, 86160, Note_on_c, 0, 60, 80
2, 86160, Note_on_c, 0, 64, 80
2, 86387, Note_on_c, 0, 60, 0
2, 86387, Note_on_c, 0, 64, 0
2, 86400, Note_on_c, 0, 55, 80
2, 86627, Note_on_c, 0, 55, 0
2, 86640, Note_on_c, 0, 59, 80
2, 86640, Note_on_c, 0, 64, 80
2, 87095, Note_on_c, 0, 59, 0
2, 87095, Note_on_c, 0, 64, 0
2, 87120, Note_on_c, 0, 59, 80
2, 87120, Note_on_c, 0, 64, 80
2, 87347, Note_on_c, 0, 59, 0
2, 87347, Note_on_c, 0, 64, 0
2, 87360, Note_on_c, 0, 55, 80
2, 87587, Note_on_c, 0, 55, 0
2, 87600, Note_on_c, 0, 59, 80
2, 87600, Note_on_c, 0, 64, 80
2, 88055, Note_on_c, 0, 59, 0
2, 88055, Note_on_c, 0, 64, 0
2, 88080, Note_on_c, 0, 59, 80
2, 88080, Note_on_c, 0, 64, 80
2, 88307, Note_on_c, 0, 59, 0
2, 88307, Note_on_c, 0, 64, 0
2, 88320, Note_on_c, 0, 53, 80
2, 88547, Note_on_c, 0, 53, 0
2, 88560, Note_on_c, 0, 57, 80
2, 88560, Note_on_c, 0, 62, 80
2, 89015, Note_on_c, 0, 57, 0
2, 89015, Note_on_c, 0, 62, 0
2, 89040, Note_on_c, 0, 57, 80
2, 89040, Note_on_c, 0, 62, 80
2, 89267, Note_on_c, 0, 57, 0
2, 89267, Note_on_c, 0, 62, 0
2, 89280, Note_on_c, 0, 53, 80
2, 89507, Note_on_c, 0, 53, 0
2, 89520, Note_on_c, 0, 57, 80
2, 89520, Note_on_c, 0, 62, 80
2, 89975, Note_on_c, 0, 57, 0
2, 89975, Note_on_c, 0, 62, 0
2, 90000, Note_on_c, 0, 57, 80
2, 90000, Note_on_c, 0, 62, 80
2, 90227, Note_on_c, 0, 57, 0
2, 90227, Note_on_c, 0, 62, 0
2, 90240, Note_on_c, 0, 55, 80
2, 90467, Note_on_c, 0, 55, 0
2, 90480, Note_on_c, 0, 59, 80
2, 90480, Note_on_c, 0, 64, 80
2, 90935, Note_on_c, 0, 59, 0
2, 90935, Note_on_c, 0, 64, 0
2, 90960, Note_on_c, 0, 59, 80
2, 90960, Note_on_c, 0, 64, 80
2, 91187, Note_on_c, 0, 59, 0
2, 91187, Note_on_c, 0, 64, 0
2, 91200, Note_on_c, 0, 55, 80
2, 91427, Note_on_c, 0, 55, 0
2, 91440, Note_on_c, 0, 59, 80
2, 91440, Note_on_c, 0, 64, 80
2, 91895, Note_on_c, 0, 59, 0
2, 91895, Note_on_c, 0, 64, 0
2, 91920, Note_on_c, 0, 59, 80
2, 91920, Note_on_c, 0, 64, 80
2, 92147, Note_on_c, 0, 59, 0
2, 92147, Note_on_c, 0, 64, 0
2, 92160, Note_on_c, 0, 57, 80
2, 92387, Note_on_c, 0, 57, 0
2, 92400, Note_on_c, 0, 60, 80
2, 92400, Note_on_c, 0, 64, 80
2, 92855, Note_on_c, 0, 60, 0
2, 92855, Note_on_c, 0, 64, 0
2, 92880, Note_on_c, 0, 60, 80
2, 92880, Note_on_c, 0, 64, 80
2, 93107, Note_on_c, 0, 60, 0
2, 93107, Note_on_c, 0, 64, 0
2, 93120, Note_on_c, 0, 57, 80
2, 93347, Note_on_c, 0, 57, 0
2, 93360, Note_on_c, 0, 60, 80
2, 93360, Note_on_c, 0, 64, 80
2, 93815, Note_on_c, 0, 60, 0
2, 93815, Note_on_c, 0, 64, 0
2, 93840, Note_on_c, 0, 60, 80
2, 93840, Note_on_c, 0, 64, 80
2, 94067, Note_on_c, 0, 60, 0
2, 94067, Note_on_c, 0, 64, 0
2, 94080, Note_on_c, 0, 55, 80
2, 94307, Note_on_c, 0, 55, 0
2, 94320, Note_on_c, 0, 59, 80
2, 94320, Note_on_c, 0, 64, 80
2, 94775, Note_on_c, 0, 59, 0
2, 94775, Note_on_c, 0, 64, 0
2, 94800, Note_on_c, 0, 59, 80
2, 94800, Note_on_c, 0, 64, 80
2, 95027, Note_on_c, 0, 59, 0
2, 95027, Note_on_c, 0, 64, 0
2, 95040, Note_on_c, 0, 55, 80
2, 95267, Note_on_c, 0, 55, 0
2, 95280, Note_on_c, 0, 59, 80
2, 95280, Note_on_c, 0, 64, 80
2, 95735, Note_on_c, 0, 59, 0
2, 95735, Note_on_c, 0, 64, 0
2, 95760, Note_on_c, 0, 59, 80
2, 95760, Note_on_c, 0, 64, 80
2, 95987, Note_on_c, 0, 59, 0
2, 95987, Note_on_c, 0, 64, 0
2, 96000, Note_on_c, 0, 53, 80
2, 96227, Note_on_c, 0, 53, 0
2, 96240, Note_on_c, 0, 57, 80
2, 96240, Note_on_c, 0, 62, 80
2, 96695, Note_on_c, 0, 57, 0
2, 96695, Note_on_c, 0, 62, 0
2, 96720, Note_on_c, 0, 57, 80
2, 96720, Note_on_c, 0, 62, 80
2, 96947, Note_on_c, 0, 57, 0
2, 96947, Note_on_c, 0, 62, 0
2, 96960, Note_on_c, 0, 53, 80
2, 97187, Note_on_c, 0, 53, 0
2, 97200, Note_on_c, 0, 57, 80
2, 97200, Note_on_c, 0, 62, 80
2, 97655, Note_on_c, 0, 57, 0
2, 97655, Note_on_c, 0, 62, 0
2, 97680, Note_on_c, 0, 57, 80
2, 97680, Note_on_c, 0, 62, 80
2, 97907, Note_on_c, 0, 57, 0
2, 97907, Note_on_c, 0, 62, 0
2, 97920, Note_on_c, 0, 55, 80
2, 98147, Note_on_c, 0, 55, 0
2, 98160, Note_on_c, 0, 59, 80
2, 98160, Note_on_c, 0, 64, 80
2, 98615, Note_on_c, 0, 59, 0
2, 98615, Note_on_c, 0, 64, 0
2, 98640, Note_on_c, 0, 59, 80
2, 98640, Note_on_c, 0, 64, 80
2, 98867, Note_on_c, 0, 59, 0
2, 98867, Note_on_c, 0, 64, 0
2, 98880, Note_on_c, 0, 55, 80
2, 99107, Note_on_c, 0, 55, 0
2, 99120, Note_on_c, 0, 59, 80
2, 99120, Note_on_c, 0, 64, 80
2, 99575, Note_on_c, 0, 59, 0
2, 99575, Note_on_c, 0, 64, 0
2, 99600, Note_on_c, 0, 59, 80
2, 99600, Note_on_c, 0, 64, 80
2, 99827, Note_on_c, 0, 59, 0
2, 99827, Note_on_c, 0, 64, 0
2, 99840, Note_on_c, 0, 57, 80
2, 100067, Note_on_c, 0, 57, 0
2, 100080, Note_on_c, 0, 60, 80
2, 100080, Note_on_c, 0, 64, 80
2, 100535, Note_on_c, 0, 60, 0
2, 100535, Note_on_c, 0, 64, 0
2, 100560, Note_on_c, 0, 60, 80
2, 100560, Note_on_c, 0, 64, 80
2, 100787, Note_on_c, 0, 60, 0
2, 100787, Note_on_c, 0, 64, 0
2, 100800, Note_on_c, 0, 57, 80
2, 101027, Note_on_c, 0, 57, 0
2, 101040, Note_on_c, 0, 60, 80
2, 101040, Note_on_c, 0, 64, 80
2, 101495, Note_on_c, 0, 60, 0
2, 101495, Note_on_c, 0, 64, 0
2, 101520, Note_on_c, 0, 60, 80
2, 101520, Note_on_c, 0, 64, 80
2, 101747, Note_on_c, 0, 60, 0
2, 101747, Note_on_c, 0, 64, 0
2, 101760, Note_on_c, 0, 57, 80
2, 101987, Note_on_c, 0, 57, 0
2, 102000, Note_on_c, 0, 60, 80
2, 102000, Note_on_c, 0, 64, 80
2, 102455, Note_on_c, 0, 60, 0
2, 102455, Note_on_c, 0, 64, 0
2, 102480, Note_on_c, 0, 60, 80
2, 102480, Note_on_c, 0, 64, 80
2, 102707, Note_on_c, 0, 60, 0
2, 102707, Note_on_c, 0, 64, 0
2, 102720, Note_on_c, 0, 57, 80
2, 102947, Note_on_c, 0, 57, 0
2, 102960, Note_on_c, 0, 60, 80
2, 102960, Note_on_c, 0, 64, 80
2, 103415, Note_on_c, 0, 60, 0
2, 103415, Note_on_c, 0, 64, 0
2, 103440, Note_on_c, 0, 60, 80
2, 103440, Note_on_c, 0, 64, 80
2, 103667, Note_on_c, 0, 60, 0
2, 103667, Note_on_c, 0, 64, 0
2, 103680, Note_on_c, 0, 57, 80
2, 103907, Note_on_c, 0, 57, 0
2, 103920, Note_on_c, 0, 60, 80
2, 103920, Note_on_c, 0, 64, 80
2, 104375, Note_on_c, 0, 60, 0
2, 104375, Note_on_c, 0, 64, 0
2, 104400, Note_on_c, 0, 60, 80
2, 104400, Note_on_c, 0, 64, 80
2, 104627, Note_on_c, 0, 60, 0
2, 104627, Note_on_c, 0, 64, 0
2, 104640, Note_on_c, 0, 57, 80
2, 104867, Note_on_c, 0, 57, 0
2, 104880, Note_on_c, 0, 60, 80
2, 104880, Note_on_c, 0, 64, 80
2, 105335, Note_on_c, 0, 60, 0
2, 105335, Note_on_c, 0, 64, 0
2, 105360, Note_on_c, 0, 60, 80
2, 105360, Note_on_c, 0, 64, 80
2, 105587, Note_on_c, 0, 60, 0
2, 105587, Note_on_c, 0, 64, 0
2, 105600, Note_on_c, 0, 57, 80
2, 105827, Note_on_c, 0, 57, 0
2, 105840, Note_on_c, 0, 60, 80
2, 105840, Note_on_c, 0, 64, 80
2, 106295, Note_on_c, 0, 60, 0
2, 106295, Note_on_c, 0, 64, 0
2, 106320, Note_on_c, 0, 60, 80
2, 106320, Note_on_c, 0, 64, 80
2, 106547, Note_on_c, 0, 60, 0
2, 106547, Note_on_c, 0, 64, 0
2, 106560, Note_on_c, 0, 57, 80
2, 106787, Note_on_c, 0, 57, 0
2, 106800, Note_on_c, 0, 60, 80
2, 106800, Note_on_c, 0, 64, 80
2, 107255, Note_on_c, 0, 60, 0
2, 107255, Note_on_c, 0, 64, 0
2, 107280, Note_on_c, 0, 60, 80
2, 107280, Note_on_c, 0, 64, 80
2, 108875, Note_on_c, 0, 60, 0
2, 108875, Note_on_c, 0, 64, 0
2, 109440, Note_on_c, 0, 57, 80
2, 109667, Note_on_c, 0, 57, 0
2, 109680, Note_on_c, 0, 57, 80
2, 109680, Note_on_c, 0, 60, 80
2, 109680, Note_on_c, 0, 64, 80
2, 109907, Note_on_c, 0, 57, 0
2, 109907, Note_on_c, 0, 60, 0
2, 109907, Note_on_c, 0, 64, 0
2, 109920, Note_on_c, 0, 57, 80
2, 109920, Note_on_c, 0, 60, 80
2, 109920, Note_on_c, 0, 64, 80
2, 110147, Note_on_c, 0, 57, 0
2, 110147, Note_on_c, 0, 60, 0
2, 110147, Note_on_c, 0, 64, 0
2, 110160, Note_on_c, 0, 57, 80
2, 110387, Note_on_c, 0, 57, 0
2, 110400, Note_on_c, 0, 57, 80
2, 110400, Note_on_c, 0, 60, 80
2, 110400, Note_on_c, 0, 64, 80
2, 110627, Note_on_c, 0, 57, 0
2, 110627, Note_on_c, 0, 60, 0
2, 110627, Note_on_c, 0, 64, 0
2, 110640, Note_on_c, 0, 57, 80
2, 110640, Note_on_c, 0, 60, 80
2, 110640, Note_on_c, 0, 64, 80
2, 110867, Note_on_c, 0, 57, 0
2, 110867, Note_on_c, 0, 60, 0
2, 110867, Note_on_c, 0, 64, 0
2, 110880, Note_on_c, 0, 55, 80
2, 111107, Note_on_c, 0, 55, 0
2, 111120, Note_on_c, 0, 59, 80
2, 111120, Note_on_c, 0, 64, 80
2, 111347, Note_on_c, 0, 59, 0
2, 111347, Note_on_c, 0, 64, 0
2, 111360, Note_on_c, 0, 59, 80
2, 111360, Note_on_c, 0, 64, 80
2, 111587, Note_on_c, 0, 59, 0
2, 111587, Note_on_c, 0, 64, 0
2, 111600, Note_on_c, 0, 55, 80
2, 111827, Note_on_c, 0, 55, 0
2, 111840, Note_on_c, 0, 59, 80
2, 111840, Note_on_c, 0, 64, 80
2, 112067, Note_on_c, 0, 59, 0
2, 112067, Note_on_c, 0, 64, 0
2, 112080, Note_on_c, 0, 59, 80
2, 112080, Note_on_c, 0, 64, 80
2, 112307, Note_on_c, 0, 59, 0
2, 112307, Note_on_c, 0, 64, 0
2, 112320, Note_on_c, 0, 53, 80
2, 112547, Note_on_c, 0, 53, 0
2, 112560, Note_on_c, 0, 57, 80
2, 112560, Note_on_c, 0, 62, 80
2, 112787, Note_on_c, 0, 57, 0
2, 112787, Note_on_c, 0, 62, 0
2, 112800, Note_on_c, 0, 57, 80
2, 112800, Note_on_c, 0, 62, 80
2, 113027, Note_on_c, 0, 57, 0
2, 113027, Note_on_c, 0, 62, 0
2, 113040, Note_on_c, 0, 53, 80
2, 113267, Note_on_c, 0, 53, 0
2, 113280, Note_on_c, 0, 57, 80
2, 113280, Note_on_c, 0, 62, 80
2, 113507, Note_on_c, 0, 57, 0
2, 113507, Note_on_c, 0, 62, 0
2, 113520, Note_on_c, 0, 57, 80
2, 113520, Note_on_c, 0, 62, 80
2, 113747, Note_on_c, 0, 57, 0
2, 113747, Note_on_c, 0, 62, 0
2, 113760, Note_on_c, 0, 55, 80
2, 113987, Note_on_c, 0, 55, 0
2, 114000, Note_on_c, 0, 59, 80
2, 114000, Note_on_c, 0, 64, 80
2, 114227, Note_on_c, 0, 59, 0
2, 114227, Note_on_c, 0, 64, 0
2, 114240, Note_on_c, 0, 59, 80
2, 114240, Note_on_c, 0, 64, 80
2, 114467, Note_on_c, 0, 59, 0
2, 114467, Note_on_c, 0, 64, 0
2, 114480, Note_on_c, 0, 55, 80
2, 114707, Note_on_c, 0, 55, 0
2, 114720, Note_on_c, 0, 59, 80
2, 114720, Note_on_c, 0, 64, 80
2, 114947, Note_on_c, 0, 59, 0
2, 114947, Note_on_c, 0, 64, 0
2, 114960, Note_on_c, 0, 59, 80
2, 114960, Note_on_c, 0, 64, 80
2, 115187, Note_on_c, 0, 59, 0
2, 115187, Note_on_c, 0, 64, 0
2, 115200, Note_on_c, 0, 57, 80
2, 115427, Note_on_c, 0, 57, 0
2, 115440, Note_on_c, 0, 57, 80
2, 115440, Note_on_c, 0, 60, 80
2, 115440, Note_on_c, 0, 64, 80
2, 115667, Note_on_c, 0, 57, 0
2, 115667, Note_on_c, 0, 60, 0
2, 115667, Note_on_c, 0, 64, 0
2, 115680, Note_on_c, 0, 57, 80
2, 115680, Note_on_c, 0, 60, 80
2, 115680, Note_on_c, 0, 64, 80
2, 115907, Note_on_c, 0, 57, 0
2, 115907, Note_on_c, 0, 60, 0
2, 115907, Note_on_c, 0, 64, 0
2, 115920, Note_on_c, 0, 57, 80
2, 116147, Note_on_c, 0, 57, 0
2, 116160, Note_on_c, 0, 57, 80
2, 116160, Note_on_c, 0, 60, 80
2, 116160, Note_on_c, 0, 64, 80
2, 116387, Note_on_c, 0, 57, 0
2, 116387, Note_on_c, 0, 60, 0
2, 116387, Note_on_c, 0, 64, 0
2, 116400, Note_on_c, 0, 57, 80
2, 116400, Note_on_c, 0, 60, 80
2, 116400, Note_on_c, 0, 64, 80
2, 116627, Note_on_c, 0, 57, 0
2, 116627, Note_on_c, 0, 60, 0
2, 116627, Note_on_c, 0, 64, 0
2, 116640, Note_on_c, 0, 57, 80
2, 116867, Note_on_c, 0, 57, 0
2, 116880, Note_on_c, 0, 57, 80
2, 116880, Note_on_c, 0, 60, 80
2, 116880, Note_on_c, 0, 64, 80
2, 117107, Note_on_c, 0, 57, 0
2, 117107, Note_on_c, 0, 60, 0
2, 117107, Note_on_c, 0, 64, 0
2, 117120, Note_on_c, 0, 57, 80
2, 117120, Note_on_c, 0, 60, 80
2, 117120, Note_on_c, 0, 64, 80
2, 117347, Note_on_c, 0, 57, 0
2, 117347, Note_on_c, 0, 60, 0
2, 117347, Note_on_c, 0, 64, 0
2, 117360, Note_on_c, 0, 57, 80
2, 117587, Note_on_c, 0, 57, 0
2, 117600, Note_on_c, 0, 57, 80
2, 117600, Note_on_c, 0, 60, 80
2, 117600, Note_on_c, 0, 64, 80
2, 117827, Note_on_c, 0, 57, 0
2, 117827, Note_on_c, 0, 60, 0
2, 117827, Note_on_c, 0, 64, 0
2, 117840, Note_on_c, 0, 57, 80
2, 117840, Note_on_c, 0, 60, 80
2, 117840, Note_on_c, 0, 64, 80
2, 118067, Note_on_c, 0, 57, 0
2, 118067, Note_on_c, 0, 60, 0
2, 118067, Note_on_c, 0, 64, 0
2, 118080, Note_on_c, 0, 55, 80
2, 118307, Note_on_c, 0, 55, 0
2, 118320, Note_on_c, 0, 55, 80
2, 118320, Note_on_c, 0, 59, 80
2, 118320, Note_on_c, 0, 64, 80
2, 118547, Note_on_c, 0, 55, 0
2, 118547, Note_on_c, 0, 59, 0
2, 118547, Note_on_c, 0, 64, 0
2, 118560, Note_on_c, 0, 55, 80
2, 118560, Note_on_c, 0, 59, 80
2, 118560, Note_on_c, 0, 64, 80
2, 118787, Note_on_c, 0, 55, 0
2, 118787, Note_on_c, 0, 59, 0
2, 118787, Note_on_c, 0, 64, 0
2, 118800, Note_on_c, 0, 55, 80
2, 119027, Note_on_c, 0, 55, 0
2, 119040, Note_on_c, 0, 55, 80
2, 119040, Note_on_c, 0, 59, 80
2, 119040, Note_on_c, 0, 64, 80
2, 119267, Note_on_c, 0, 55, 0
2, 119267, Note_on_c, 0, 59, 0
2, 119267, Note_on_c, 0, 64, 0
2, 119280, Note_on_c, 0, 55, 80
2, 119280, Note_on_c, 0, 59, 80
2, 119280, Note_on_c, 0, 64, 80
2, 119507, Note_on_c, 0, 55, 0
2, 119507, Note_on_c, 0, 59, 0
2, 119507, Note_on_c, 0, 64, 0
2, 119520, Note_on_c, 0, 55, 80
2, 119747, Note_on_c, 0, 55, 0
2, 119760, Note_on_c, 0, 55, 80
2, 119760, Note_on_c, 0, 59, 80
2, 119760, Note_on_c, 0, 64, 80
2, 119987, Note_on_c, 0, 55, 0
2, 119987, Note_on_c, 0, 59, 0
2, 119987, Note_on_c, 0, 64, 0
2, 120000, Note_on_c, 0, 55, 80
2, 120000, Note_on_c, 0, 59, 80
2, 120000, Note_on_c, 0, 64, 80
2, 120227, Note_on_c, 0, 55, 0
2, 120227, Note_on_c, 0, 59, 0
2, 120227, Note_on_c, 0, 64, 0
2, 120240, Note_on_c, 0, 55, 80
2, 120467, Note_on_c, 0, 55, 0
2, 120480, Note_on_c, 0, 55, 80
2, 120480, Note_on_c, 0, 59, 80
2, 120480, Note_on_c, 0, 64, 80
2, 120707, Note_on_c, 0, 55, 0
2, 120707, Note_on_c, 0, 59, 0
2, 120707, Note_on_c, 0, 64, 0
2, 120720, Note_on_c, 0, 55, 80
2, 120720, Note_on_c, 0, 59, 80
2, 120720, Note_on_c, 0, 64, 80
2, 120947, Note_on_c, 0, 55, 0
2, 120947, Note_on_c, 0, 59, 0
2, 120947, Note_on_c, 0, 64, 0
2, 120960, Note_on_c, 0, 53, 80
2, 121187, Note_on_c, 0, 53, 0
2, 121200, Note_on_c, 0, 53, 80
2, 121200, Note_on_c, 0, 57, 80
2, 121200, Note_on_c, 0, 62, 80
2, 121427, Note_on_c, 0, 53, 0
2, 121427, Note_on_c, 0, 57, 0
2, 121427, Note_on_c, 0, 62, 0
2, 121440, Note_on_c, 0, 53, 80
2, 121440, Note_on_c, 0, 57, 80
2, 121440, Note_on_c, 0, 62, 80
2, 121667, Note_on_c, 0, 53, 0
2, 121667, Note_on_c, 0, 57, 0
2, 121667, Note_on_c, 0, 62, 0
2, 121680, Note_on_c, 0, 53, 80
2, 121907, Note_on_c, 0, 53, 0
2, 121920, Note_on_c, 0, 53, 80
2, 121920, Note_on_c, 0, 57, 80
2, 121920, Note_on_c, 0, 62, 80
2, 122147, Note_on_c, 0, 53, 0
2, 122147, Note_on_c, 0, 57, 0
2, 122147, Note_on_c, 0, 62, 0
2, 122160, Note_on_c, 0, 53, 80
2, 122160, Note_on_c, 0, 57, 80
2, 122160, Note_on_c, 0, 62, 80
2, 122387, Note_on_c, 0, 53, 0
2, 122387, Note_on_c, 0, 57, 0
2, 122387, Note_on_c, 0, 62, 0
2, 122400, Note_on_c, 0, 53, 80
2, 122627, Note_on_c, 0, 53, 0
2, 122640, Note_on_c, 0, 53, 80
2, 122640, Note_on_c, 0, 57, 80
2, 122640, Note_on_c, 0, 62, 80
2, 122867, Note_on_c, 0, 53, 0
2, 122867, Note_on_c, 0, 57, 0
2, 122867, Note_on_c, 0, 62, 0
2, 122880, Note_on_c, 0, 53, 80
2, 122880, Note_on_c, 0, 57, 80
2, 122880, Note_on_c, 0, 62, 80
2, 123107, Note_on_c, 0, 53, 0
2, 123107, Note_on_c, 0, 57, 0
2, 123107, Note_on_c, 0, 62, 0
2, 123120, Note_on_c, 0, 53, 80
2, 123347, Note_on_c, 0, 53, 0
2, 123360, Note_on_c, 0, 53, 80
2, 123360, Note_on_c, 0, 57, 80
2, 123360, Note_on_c, 0, 62, 80
2, 123587, Note_on_c, 0, 53, 0
2, 123587, Note_on_c, 0, 57, 0
2, 123587, Note_on_c, 0, 62, 0
2, 123600, Note_on_c, 0, 53, 80
2, 123600, Note_on_c, 0, 57, 80
2, 123600, Note_on_c, 0, 62, 80
2, 123827, Note_on_c, 0, 53, 0
2, 123827, Note_on_c, 0, 57, 0
2, 123827, Note_on_c, 0, 62, 0
2, 123840, Note_on_c, 0, 55, 80
2, 124067, Note_on_c, 0, 55, 0
2, 124080, Note_on_c, 0, 55, 80
2, 124080, Note_on_c, 0, 59, 80
2, 124080, Note_on_c, 0, 64, 80
2, 124307, Note_on_c, 0, 55, 0
2, 124307, Note_on_c, 0, 59, 0
2, 124307, Note_on_c, 0, 64, 0
2, 124320, Note_on_c, 0, 55, 80
2, 124320, Note_on_c, 0, 59, 80
2, 124320, Note_on_c, 0, 64, 80
2, 124547, Note_on_c, 0, 55, 0
2, 124547, Note_on_c, 0, 59, 0
2, 124547, Note_on_c, 0, 64, 0
2, 124560, Note_on_c, 0, 55, 80
2, 124787, Note_on_c, 0, 55, 0
2, 124800, Note_on_c, 0, 55, 80
2, 124800, Note_on_c, 0, 59, 80
2, 124800, Note_on_c, 0, 64, 80
2, 125027, Note_on_c, 0, 55, 0
2, 125027, Note_on_c, 0, 59, 0
2, 125027, Note_on_c, 0, 64, 0
2, 125040, Note_on_c, 0, 55, 80
2, 125040, Note_on_c, 0, 59, 80
2, 125040, Note_on_c, 0, 64, 80
2, 125267, Note_on_c, 0, 55, 0
2, 125267, Note_on_c, 0, 59, 0
2, 125267, Note_on_c, 0, 64, 0
2, 125280, Note_on_c, 0, 55, 80
2, 125507, Note_on_c, 0, 55, 0
2, 125520, Note_on_c, 0, 55, 80
2, 125520, Note_on_c, 0, 59, 80
2, 125520, Note_on_c, 0, 64, 80
2, 125747, Note_on_c, 0, 55, 0
2, 125747, Note_on_c, 0, 59, 0
2, 125747, Note_on_c, 0, 64, 0
2, 125760, Note_on_c, 0, 55, 80
2, 125760, Note_on_c, 0, 59, 80
2, 125760, Note_on_c, 0, 64, 80
2, 125987, Note_on_c, 0, 55, 0
2, 125987, Note_on_c, 0, 59, 0
2, 125987, Note_on_c, 0, 64, 0
2, 126000, Note_on_c, 0, 55, 80
2, 126227, Note_on_c, 0, 55, 0
2, 126240, Note_on_c, 0, 55, 80
2, 126240, Note_on_c, 0, 59, 80
2, 126240, Note_on_c, 0, 64, 80
2, 126467, Note_on_c, 0, 55, 0
2, 126467, Note_on_c, 0, 59, 0
2, 126467, Note_on_c, 0, 64, 0
2, 126480, Note_on_c, 0, 55, 80
2, 126480, Note_on_c, 0, 59, 80
2, 126480, Note_on_c, 0, 64, 80
2, 126707, Note_on_c, 0, 55, 0
2, 126707, Note_on_c, 0, 59, 0
2, 126707, Note_on_c, 0, 64, 0
2, 126720, Note_on_c, 0, 57, 80
2, 126947, Note_on_c, 0, 57, 0
2, 126960, Note_on_c, 0, 57, 80
2, 126960, Note_on_c, 0, 60, 80
2, 126960, Note_on_c, 0, 64, 80
2, 127187, Note_on_c, 0, 57, 0
2, 127187, Note_on_c, 0, 60, 0
2, 127187, Note_on_c, 0, 64, 0
2, 127200, Note_on_c, 0, 57, 80
2, 127200, Note_on_c, 0, 60, 80
2, 127200, Note_on_c, 0, 64, 80
2, 127427, Note_on_c, 0, 57, 0
2, 127427, Note_on_c, 0, 60, 0
2, 127427, Note_on_c, 0, 64, 0
2, 127440, Note_on_c, 0, 57, 80
2, 127667, Note_on_c, 0, 57, 0
2, 127680, Note_on_c, 0, 57, 80
2, 127680, Note_on_c, 0, 60, 80
2, 127680, Note_on_c, 0, 64, 80
2, 127907, Note_on_c, 0, 57, 0
2, 127907, Note_on_c, 0, 60, 0
2, 127907, Note_on_c, 0, 64, 0
2, 127920, Note_on_c, 0, 57, 80
2, 127920, Note_on_c, 0, 60, 80
2, 127920, Note_on_c, 0, 64, 80
2, 128147, Note_on_c, 0, 57, 0
2, 128147, Note_on_c, 0, 60, 0
2, 128147, Note_on_c, 0, 64, 0
2, 128160, Note_on_c, 0, 55, 80
2, 128387, Note_on_c, 0, 55, 0
2, 128400, Note_on_c, 0, 55, 80
2, 128400, Note_on_c, 0, 59, 80
2, 128400, Note_on_c, 0, 64, 80
2, 128627, Note_on_c, 0, 55, 0
2, 128627, Note_on_c, 0, 59, 0
2, 128627, Note_on_c, 0, 64, 0
2, 128640, Note_on_c, 0, 55, 80
2, 128640, Note_on_c, 0, 59, 80
2, 128640, Note_on_c, 0, 64, 80
2, 128867, Note_on_c, 0, 55, 0
2, 128867, Note_on_c, 0, 59, 0
2, 128867, Note_on_c, 0, 64, 0
2, 128880, Note_on_c, 0, 55, 80
2, 129107, Note_on_c, 0, 55, 0
2, 129120, Note_on_c, 0, 55, 80
2, 129120, Note_on_c, 0, 59, 80
2, 129120, Note_on_c, 0, 64, 80
2, 129347, Note_on_c, 0, 55, 0
2, 129347, Note_on_c, 0, 59, 0
2, 129347, Note_on_c, 0, 64, 0
2, 129360, Note_on_c, 0, 55, 80
2, 129360, Note_on_c, 0, 59, 80
2, 129360, Note_on_c, 0, 64, 80
2, 129587, Note_on_c, 0, 55, 0
2, 129587, Note_on_c, 0, 59, 0
2, 129587, Note_on_c, 0, 64, 0
2, 129600, Note_on_c, 0, 53, 80
2, 129827, Note_on_c, 0, 53, 0
2, 129840, Note_on_c, 0, 53, 80
2, 129840, Note_on_c, 0, 57, 80
2, 129840, Note_on_c, 0, 62, 80
2, 130067, Note_on_c, 0, 53, 0
2, 130067, Note_on_c, 0, 57, 0
2, 130067, Note_on_c, 0, 62, 0
2, 130080, Note_on_c, 0, 53, 80
2, 130080, Note_on_c, 0, 57, 80
2, 130080, Note_on_c, 0, 62, 80
2, 130307, Note_on_c, 0, 53, 0
2, 130307, Note_on_c, 0, 57, 0
2, 130307, Note_on_c, 0, 62, 0
2, 130320, Note_on_c, 0, 53, 80
2, 130547, Note_on_c, 0, 53, 0
2, 130560, Note_on_c, 0, 53, 80
2, 130560, Note_on_c, 0, 57, 80
2, 130560, Note_on_c, 0, 62, 80
2, 130787, Note_on_c, 0, 53, 0
2, 130787, Note_on_c, 0, 57, 0
2, 130787, Note_on_c, 0, 62, 0
2, 130800, Note_on_c, 0, 53, 80
2, 130800, Note_on_c, 0, 57, 80
2, 130800, Note_on_c, 0, 62, 80
2, 131027, Note_on_c, 0, 53, 0
2, 131027, Note_on_c, 0, 57, 0
2, 131027, Note_on_c, 0, 62, 0
2, 131040, Note_on_c, 0, 55, 80
2, 131267, Note_on_c, 0, 55, 0
2, 131280, Note_on_c, 0, 55, 80
2, 131280, Note_on_c, 0, 59, 80
2, 131280, Note_on_c, 0, 64, 80
2, 131507, Note_on_c, 0, 55, 0
2, 131507, Note_on_c, 0, 59, 0
2, 131507, Note_on_c, 0, 64, 0
2, 131520, Note_on_c, 0, 55, 80
2, 131520, Note_on_c, 0, 59, 80
2, 131520, Note_on_c, 0, 64, 80
2, 131747, Note_on_c, 0, 55, 0
2, 131747, Note_on_c, 0, 59, 0
2, 131747, Note_on_c, 0, 64, 0
2, 131760, Note_on_c, 0, 55, 80
2, 131987, Note_on_c, 0, 55, 0
2, 132000, Note_on_c, 0, 55, 80
2, 132000, Note_on_c, 0, 59, 80
2, 132000, Note_on_c, 0, 64, 80
2, 132227, Note_on_c, 0, 55, 0
2, 132227, Note_on_c, 0, 59, 0
2, 132227, Note_on_c, 0, 64, 0
2, 132240, Note_on_c, 0, 55, 80
2, 132240, Note_on_c, 0, 59, 80
2, 132240, Note_on_c, 0, 64, 80
2, 132467, Note_on_c, 0, 55, 0
2, 132467, Note_on_c, 0, 59, 0
2, 132467, Note_on_c, 0, 64, 0
2, 132480, Note_on_c, 0, 57, 80
2, 132707, Note_on_c, 0, 57, 0
2, 132720, Note_on_c, 0, 57, 80
2, 132720, Note_on_c, 0, 60, 80
2, 132720, Note_on_c, 0, 64, 80
2, 132947, Note_on_c, 0, 57, 0
2, 132947, Note_on_c, 0, 60, 0
2, 132947, Note_on_c, 0, 64, 0
2, 132960, Note_on_c, 0, 57, 80
2, 132960, Note_on_c, 0, 60, 80
2, 132960, Note_on_c, 0, 64, 80
2, 133187, Note_on_c, 0, 57, 0
2, 133187, Note_on_c, 0, 60, 0
2, 133187, Note_on_c, 0, 64, 0
2, 133200, Note_on_c, 0, 57, 80
2, 133427, Note_on_c, 0, 57, 0
2, 133440, Note_on_c, 0, 57, 80
2, 133440, Note_on_c, 0, 60, 80
2, 133440, Note_on_c, 0, 64, 80
2, 133667, Note_on_c, 0, 57, 0
2, 133667, Note_on_c, 0, 60, 0
2, 133667, Note_on_c, 0, 64, 0
2, 133680, Note_on_c, 0, 57, 80
2, 133680, Note_on_c, 0, 60, 80
2, 133680, Note_on_c, 0, 64, 80
2, 133907, Note_on_c, 0, 57, 0
2, 133907, Note_on_c, 0, 60, 0
2, 133907, Note_on_c, 0, 64, 0
2, 133920, Note_on_c, 0, 52, 80
2, 134147, Note_on_c, 0, 52, 0
2, 134160, Note_on_c, 0, 55, 80
2, 134160, Note_on_c, 0, 59, 80
2, 134160, Note_on_c, 0, 64, 80
2, 134387, Note_on_c, 0, 55, 0
2, 134387, Note_on_c, 0, 59, 0
2, 134387, Note_on_c, 0, 64, 0
2, 134400, Note_on_c, 0, 55, 80
2, 134400, Note_on_c, 0, 59, 80
2, 134400, Note_on_c, 0, 64, 80
2, 134627, Note_on_c, 0, 55, 0
2, 134627, Note_on_c, 0, 59, 0
2, 134627, Note_on_c, 0, 64, 0
2, 134640, Note_on_c, 0, 52, 80
2, 134867, Note_on_c, 0, 52, 0
2, 134880, Note_on_c, 0, 55, 80
2, 134880, Note_on_c, 0, 59, 80
2, 134880, Note_on_c, 0, 64, 80
2, 135107, Note_on_c, 0, 55, 0
2, 135107, Note_on_c, 0, 59, 0
2, 135107, Note_on_c, 0, 64, 0
2, 135120, Note_on_c, 0, 55, 80
2, 135120, Note_on_c, 0, 59, 80
2, 135120, Note_on_c, 0, 64, 80
2, 135347, Note_on_c, 0, 55, 0
2, 135347, Note_on_c, 0, 59, 0
2, 135347, Note_on_c, 0, 64, 0
2, 135360, Note_on_c, 0, 53, 80
2, 135587, Note_on_c, 0, 53, 0
2, 135600, Note_on_c, 0, 53, 80
2, 135600, Note_on_c, 0, 57, 80
2, 135600, Note_on_c, 0, 62, 80
2, 135827, Note_on_c, 0, 53, 0
2, 135827, Note_on_c, 0, 57, 0
2, 135827, Note_on_c, 0, 62, 0
2, 135840, Note_on_c, 0, 53, 80
2, 135840, Note_on_c, 0, 57, 80
2, 135840, Note_on_c, 0, 62, 80
2, 136067, Note_on_c, 0, 53, 0
2, 136067, Note_on_c, 0, 57, 0
2, 136067, Note_on_c, 0, 62, 0
2, 136080, Note_on_c, 0, 53, 80
2, 136307, Note_on_c, 0, 53, 0
2, 136320, Note_on_c, 0, 53, 80
2, 136320, Note_on_c, 0, 57, 80
2, 136320, Note_on_c, 0, 62, 80
2, 136547, Note_on_c, 0, 53, 0
2, 136547, Note_on_c, 0, 57, 0
2, 136547, Note_on_c, 0, 62, 0
2, 136560, Note_on_c, 0, 53, 80
2, 136560, Note_on_c, 0, 57, 80
2, 136560, Note_on_c, 0, 62, 80
2, 136787, Note_on_c, 0, 53, 0
2, 136787, Note_on_c, 0, 57, 0
2, 136787, Note_on_c, 0, 62, 0
2, 136800, Note_on_c, 0, 55, 80
2, 137027, Note_on_c, 0, 55, 0
2, 137040, Note_on_c, 0, 55, 80
2, 137040, Note_on_c, 0, 59, 80
2, 137040, Note_on_c, 0, 64, 80
2, 137267, Note_on_c, 0, 55, 0
2, 137267, Note_on_c, 0, 59, 0
2, 137267, Note_on_c, 0, 64, 0
2, 137280, Note_on_c, 0, 55, 80
2, 137280, Note_on_c, 0, 59, 80
2, 137280, Note_on_c, 0, 64, 80
2, 137507, Note_on_c, 0, 55, 0
2, 137507, Note_on_c, 0, 59, 0
2, 137507, Note_on_c, 0, 64, 0
2, 137520, Note_on_c, 0, 55, 80
2, 137747, Note_on_c, 0, 55, 0
2, 137760, Note_on_c, 0, 55, 80
2, 137760, Note_on_c, 0, 59, 80
2, 137760, Note_on_c, 0, 64, 80
2, 137987, Note_on_c, 0, 55, 0
2, 137987, Note_on_c, 0, 59, 0
2, 137987, Note_on_c, 0, 64, 0
2, 138000, Note_on_c, 0, 55, 80
2, 138000, Note_on_c, 0, 59, 80
2, 138000, Note_on_c, 0, 64, 80
2, 138227, Note_on_c, 0, 55, 0
2, 138227, Note_on_c, 0, 59, 0
2, 138227, Note_on_c, 0, 64, 0
2, 138240, Note_on_c, 0, 57, 80
2, 138467, Note_on_c, 0, 57, 0
2, 138480, Note_on_c, 0, 60, 80
2, 138480, Note_on_c, 0, 64, 80
2, 138707, Note_on_c, 0, 60, 0
2, 138707, Note_on_c, 0, 64, 0
2, 138720, Note_on_c, 0, 60, 80
2, 138720, Note_on_c, 0, 64, 80
2, 138947, Note_on_c, 0, 60, 0
2, 138947, Note_on_c, 0, 64, 0
2, 138960, Note_on_c, 0, 57, 80
2, 139187, Note_on_c, 0, 57, 0
2, 139200, Note_on_c, 0, 60, 80
2, 139200, Note_on_c, 0, 64, 80
2, 139427, Note_on_c, 0, 60, 0
2, 139427, Note_on_c, 0, 64, 0
2, 139440, Note_on_c, 0, 60, 80
2, 139440, Note_on_c, 0, 64, 80
2, 139667, Note_on_c, 0, 60, 0
2, 139667, Note_on_c, 0, 64, 0
2, 139680, Note_on_c, 0, 55, 80
2, 139907, Note_on_c, 0, 55, 0
2, 139920, Note_on_c, 0, 59, 80
2, 139920, Note_on_c, 0, 64, 80
2, 140147, Note_on_c, 0, 59, 0
2, 140147, Note_on_c, 0, 64, 0
2, 140160, Note_on_c, 0, 59, 80
2, 140160, Note_on_c, 0, 64, 80
2, 140387, Note_on_c, 0, 59, 0
2, 140387, Note_on_c, 0, 64, 0
2, 140400, Note_on_c, 0, 55, 80
2, 140627, Note_on_c, 0, 55, 0
2, 140640, Note_on_c, 0, 59, 80
2, 140640, Note_on_c, 0, 64, 80
2, 140867, Note_on_c, 0, 59, 0
2, 140867, Note_on_c, 0, 64, 0
2, 140880, Note_on_c, 0, 59, 80
2, 140880, Note_on_c, 0, 64, 80
2, 141107, Note_on_c, 0, 59, 0
2, 141107, Note_on_c, 0, 64, 0
2, 141120, Note_on_c, 0, 53, 80
2, 141347, Note_on_c, 0, 53, 0
2, 141360, Note_on_c, 0, 57, 80
2, 141360, Note_on_c, 0, 62, 80
2, 141587, Note_on_c, 0, 57, 0
2, 141587, Note_on_c, 0, 62, 0
2, 141600, Note_on_c, 0, 57, 80
2, 141600, Note_on_c, 0, 62, 80
2, 141827, Note_on_c, 0, 57, 0
2, 141827, Note_on_c, 0, 62, 0
2, 141840, Note_on_c, 0, 53, 80
2, 142067, Note_on_c, 0, 53, 0
2, 142080, Note_on_c, 0, 57, 80
2, 142080, Note_on_c, 0, 62, 80
2, 142307, Note_on_c, 0, 57, 0
2, 142307, Note_on_c, 0, 62, 0
2, 142320, Note_on_c, 0, 57, 80
2, 142320, Note_on_c, 0, 62, 80
2, 142547, Note_on_c, 0, 57, 0
2, 142547, Note_on_c, 0, 62, 0
2, 142560, Note_on_c, 0, 55, 80
2, 142787, Note_on_c, 0, 55, 0
2, 142800, Note_on_c, 0, 59, 80
2, 142800, Note_on_c, 0, 64, 80
2, 143027, Note_on_c, 0, 59, 0
2, 143027, Note_on_c, 0, 64, 0
2, 143040, Note_on_c, 0, 59, 80
2, 143040, Note_on_c, 0, 64, 80
2, 143267, Note_on_c, 0, 59, 0
2, 143267, Note_on_c, 0, 64, 0
2, 143280, Note_on_c, 0, 55, 80
2, 143507, Note_on_c, 0, 55, 0
2, 143520, Note_on_c, 0, 59, 80
2, 143520, Note_on_c, 0, 64, 80
2, 143747, Note_on_c, 0, 59, 0
2, 143747, Note_on_c, 0, 64, 0
2, 143760, Note_on_c, 0, 59, 80
2, 143760, Note_on_c, 0, 64, 80
2, 143987, Note_on_c, 0, 59, 0
2, 143987, Note_on_c, 0, 64, 0
2, 144000, Note_on_c, 0, 57, 80
2, 144227, Note_on_c, 0, 57, 0
2, 144240, Note_on_c, 0, 60, 80
2, 144240, Note_on_c, 0, 64, 80
2, 144467, Note_on_c, 0, 60, 0
2, 144467, Note_on_c, 0, 64, 0
2, 144480, Note_on_c, 0, 60, 80
2, 144480, Note_on_c, 0, 64, 80
2, 144707, Note_on_c, 0, 60, 0
2, 144707, Note_on_c, 0, 64, 0
2, 144720, Note_on_c, 0, 57, 80
2, 144947, Note_on_c, 0, 57, 0
2, 144960, Note_on_c, 0, 60, 80
2, 144960, Note_on_c, 0, 64, 80
2, 145187, Note_on_c, 0, 60, 0
2, 145187, Note_on_c, 0, 64, 0
2, 145200, Note_on_c, 0, 60, 80
2, 145200, Note_on_c, 0, 64, 80
2, 145427, Note_on_c, 0, 60, 0
2, 145427, Note_on_c, 0, 64, 0
2, 145440, Note_on_c, 0, 55, 80
2, 145667, Note_on_c, 0, 55, 0
2, 145680, Note_on_c, 0, 59, 80
2, 145680, Note_on_c, 0, 64, 80
2, 145907, Note_on_c, 0, 59, 0
2, 145907, Note_on_c, 0, 64, 0
2, 145920, Note_on_c, 0, 59, 80
2, 145920, Note_on_c, 0, 64, 80
2, 146147, Note_on_c, 0, 59, 0
2, 146147, Note_on_c, 0, 64, 0
2, 146160, Note_on_c, 0, 55, 80
2, 146387, Note_on_c, 0, 55, 0
2, 146400, Note_on_c, 0, 59, 80
2, 146400, Note_on_c, 0, 64, 80
2, 146627, Note_on_c, 0, 59, 0
2, 146627, Note_on_c, 0, 64, 0
2, 146640, Note_on_c, 0, 59, 80
2, 146640, Note_on_c, 0, 64, 80
2, 146867, Note_on_c, 0, 59, 0
2, 146867, Note_on_c, 0, 64, 0
2, 146880, Note_on_c, 0, 53, 80
2, 147107, Note_on_c, 0, 53, 0
2, 147120, Note_on_c, 0, 57, 80
2, 147120, Note_on_c, 0, 62, 80
2, 147347, Note_on_c, 0, 57, 0
2, 147347, Note_on_c, 0, 62, 0
2, 147360, Note_on_c, 0, 57, 80
2, 147360, Note_on_c, 0, 62, 80
2, 147587, Note_on_c, 0, 57, 0
2, 147587, Note_on_c, 0, 62, 0
2, 147600, Note_on_c, 0, 53, 80
2, 147827, Note_on_c, 0, 53, 0
2, 147840, Note_on_c, 0, 57, 80
2, 147840, Note_on_c, 0, 62, 80
2, 148067, Note_on_c, 0, 57, 0
2, 148067, Note_on_c, 0, 62, 0
2, 148080, Note_on_c, 0, 57, 80
2, 148080, Note_on_c, 0, 62, 80
2, 148307, Note_on_c, 0, 57, 0
2, 148307, Note_on_c, 0, 62, 0
2, 148320, Note_on_c, 0, 55, 80
2, 148547, Note_on_c, 0, 55, 0
2, 148560, Note_on_c, 0, 59, 80
2, 148560, Note_on_c, 0, 64, 80
2, 148787, Note_on_c, 0, 59, 0
2, 148787, Note_on_c, 0, 64, 0
2, 148800, Note_on_c, 0, 59, 80
2, 148800, Note_on_c, 0, 64, 80
2, 149027, Note_on_c, 0, 59, 0
2, 149027, Note_on_c, 0, 64, 0
2, 149040, Note_on_c, 0, 55, 80
2, 149267, Note_on_c, 0, 55, 0
2, 149280, Note_on_c, 0, 59, 80
2, 149280, Note_on_c, 0, 64, 80
2, 149507, Note_on_c, 0, 59, 0
2, 149507, Note_on_c, 0, 64, 0
2, 149520, Note_on_c, 0, 59, 80
2, 149520, Note_on_c, 0, 64, 80
2, 149747, Note_on_c, 0, 59, 0
2, 149747, Note_on_c, 0, 64, 0
2, 149760, Note_on_c, 0, 57, 80
2, 149987, Note_on_c, 0, 57, 0
2, 150000, Note_on_c, 0, 60, 80
2, 150000, Note_on_c, 0, 64, 80
2, 150227, Note_on_c, 0, 60, 0
2, 150227, Note_on_c, 0, 64, 0
2, 150240, Note_on_c, 0, 60, 80
2, 150240, Note_on_c, 0, 64, 80
2, 150467, Note_on_c, 0, 60, 0
2, 150467, Note_on_c, 0, 64, 0
2, 150480, Note_on_c, 0, 57, 80
2, 150707, Note_on_c, 0, 57, 0
2, 150720, Note_on_c, 0, 60, 80
2, 150720, Note_on_c, 0, 64, 80
2, 150947, Note_on_c, 0, 60, 0
2, 150947, Note_on_c, 0, 64, 0
2, 150960, Note_on_c, 0, 60, 80
2, 150960, Note_on_c, 0, 64, 80
2, 151187, Note_on_c, 0, 60, 0
2, 151187, Note_on_c, 0, 64, 0
2, 151200, Note_on_c, 0, 55, 80
2, 151427, Note_on_c, 0, 55, 0
2, 151440, Note_on_c, 0, 59, 80
2, 151440, Note_on_c, 0, 64, 80
2, 151667, Note_on_c, 0, 59, 0
2, 151667, Note_on_c, 0, 64, 0
2, 151680, Note_on_c, 0, 59, 80
2, 151680, Note_on_c, 0, 64, 80
2, 151907, Note_on_c, 0, 59, 0
2, 151907, Note_on_c, 0, 64, 0
2, 151920, Note_on_c, 0, 55, 80
2, 152147, Note_on_c, 0, 55, 0
2, 152160, Note_on_c, 0, 59, 80
2, 152160, Note_on_c, 0, 64, 80
2, 152387, Note_on_c, 0, 59, 0
2, 152387, Note_on_c, 0, 64, 0
2, 152400, Note_on_c, 0, 59, 80
2, 152400, Note_on_c, 0, 64, 80
2, 152627, Note_on_c, 0, 59, 0
2, 152627, Note_on_c, 0, 64, 0
2, 152640, Note_on_c, 0, 53, 80
2, 152867, Note_on_c, 0, 53, 0
2, 152880, Note_on_c, 0, 57, 80
2, 152880, Note_on_c, 0, 62, 80
2, 153107, Note_on_c, 0, 57, 0
2, 153107, Note_on_c, 0, 62, 0
2, 153120, Note_on_c, 0, 57, 80
2, 153120, Note_on_c, 0, 62, 80
2, 153347, Note_on_c, 0, 57, 0
2, 153347, Note_on_c, 0, 62, 0
2, 153360, Note_on_c, 0, 53, 80
2, 153587, Note_on_c, 0, 53, 0
2, 153600, Note_on_c, 0, 57, 80
2, 153600, Note_on_c, 0, 62, 80
2, 153827, Note_on_c, 0, 57, 0
2, 153827, Note_on_c, 0, 62, 0
2, 153840, Note_on_c, 0, 57, 80
2, 153840, Note_on_c, 0, 62, 80
2, 154067, Note_on_c, 0, 57, 0
2, 154067, Note_on_c, 0, 62, 0
2, 154080, Note_on_c, 0, 55, 80
2, 154307, Note_on_c, 0, 55, 0
2, 154320, Note_on_c, 0, 59, 80
2, 154320, Note_on_c, 0, 64, 80
2, 154547, Note_on_c, 0, 59, 0
2, 154547, Note_on_c, 0, 64, 0
2, 154560, Note_on_c, 0, 59, 80
2, 154560, Note_on_c, 0, 64, 80
2, 154787, Note_on_c, 0, 59, 0
2, 154787, Note_on_c, 0, 64, 0
2, 154800, Note_on_c, 0, 55, 80
2, 155027, Note_on_c, 0, 55, 0
2, 155040, Note_on_c, 0, 59, 80
2, 155040, Note_on_c, 0, 64, 80
2, 155267, Note_on_c, 0, 59, 0
2, 155267, Note_on_c, 0, 64, 0
2, 155280, Note_on_c, 0, 59, 80
2, 155280, Note_on_c, 0, 64, 80
2, 155507, Note_on_c, 0, 59, 0
2, 155507, Note_on_c, 0, 64, 0
2, 155520, Note_on_c, 0, 57, 80
2, 155747, Note_on_c, 0, 57, 0
2, 155760, Note_on_c, 0, 60, 80
2, 155760, Note_on_c, 0, 64, 80
2, 155987, Note_on_c, 0, 60, 0
2, 155987, Note_on_c, 0, 64, 0
2, 156000, Note_on_c, 0, 60, 80
2, 156000, Note_on_c, 0, 64, 80
2, 156227, Note_on_c, 0, 60, 0
2, 156227, Note_on_c, 0, 64, 0
2, 156240, Note_on_c, 0, 57, 80
2, 156467, Note_on_c, 0, 57, 0
2, 156480, Note_on_c, 0, 60, 80
2, 156480, Note_on_c, 0, 64, 80
2, 156707, Note_on_c, 0, 60, 0
2, 156707, Note_on_c, 0, 64, 0
2, 156720, Note_on_c, 0, 60, 80
2, 156720, Note_on_c, 0, 64, 80
2, 156947, Note_on_c, 0, 60, 0
2, 156947, Note_on_c, 0, 64, 0
2, 156960, Note_on_c, 0, 55, 80
2, 157187, Note_on_c, 0, 55, 0
2, 157200, Note_on_c, 0, 59, 80
2, 157200, Note_on_c, 0, 64, 80
2, 157427, Note_on_c, 0, 59, 0
2, 157427, Note_on_c, 0, 64, 0
2, 157440, Note_on_c, 0, 59, 80
2, 157440, Note_on_c, 0, 64, 80
2, 157667, Note_on_c, 0, 59, 0
2, 157667, Note_on_c, 0, 64, 0
2, 157680, Note_on_c, 0, 55, 80
2, 157907, Note_on_c, 0, 55, 0
2, 157920, Note_on_c, 0, 59, 80
2, 157920, Note_on_c, 0, 64, 80
2, 158147, Note_on_c, 0, 59, 0
2, 158147, Note_on_c, 0, 64, 0
2, 158160, Note_on_c, 0, 59, 80
2, 158160, Note_on_c, 0, 64, 80
2, 158387, Note_on_c, 0, 59, 0
2, 158387, Note_on_c, 0, 64, 0
2, 158400, Note_on_c, 0, 53, 80
2, 158627, Note_on_c, 0, 53, 0
2, 158640, Note_on_c, 0, 57, 80
2, 158640, Note_on_c, 0, 62, 80
2, 158867, Note_on_c, 0, 57, 0
2, 158867, Note_on_c, 0, 62, 0
2, 158880, Note_on_c, 0, 57, 80
2, 158880, Note_on_c, 0, 62, 80
2, 159107, Note_on_c, 0, 57, 0
2, 159107, Note_on_c, 0, 62, 0
2, 159120, Note_on_c, 0, 53, 80
2, 159347, Note_on_c, 0, 53, 0
2, 159360, Note_on_c, 0, 57, 80
2, 159360, Note_on_c, 0, 62, 80
2, 159587, Note_on_c, 0, 57, 0
2, 159587, Note_on_c, 0, 62, 0
2, 159600, Note_on_c, 0, 57, 80
2, 159600, Note_on_c, 0, 62, 80
2, 159827, Note_on_c, 0, 57, 0
2, 159827, Note_on_c, 0, 62, 0
2, 159840, Note_on_c, 0, 55, 80
2, 160067, Note_on_c, 0, 55, 0
2, 160080, Note_on_c, 0, 59, 80
2, 160080, Note_on_c, 0, 64, 80
2, 160307, Note_on_c, 0, 59, 0
2, 160307, Note_on_c, 0, 64, 0
2, 160320, Note_on_c, 0, 59, 80
2, 160320, Note_on_c, 0, 64, 80
2, 160547, Note_on_c, 0, 59, 0
2, 160547, Note_on_c, 0, 64, 0
2, 160560, Note_on_c, 0, 55, 80
2, 160787, Note_on_c, 0, 55, 0
2, 160800, Note_on_c, 0, 59, 80
2, 160800, Note_on_c, 0, 64, 80
2, 161027, Note_on_c, 0, 59, 0
2, 161027, Note_on_c, 0, 64, 0
2, 161040, Note_on_c, 0, 59, 80
2, 161040, Note_on_c, 0, 64, 80
2, 161267, Note_on_c, 0, 59, 0
2, 161267, Note_on_c, 0, 64, 0
2, 161280, Note_on_c, 0, 57, 80
2, 161507, Note_on_c, 0, 57, 0
2, 161520, Note_on_c, 0, 60, 80
2, 161520, Note_on_c, 0, 64, 80
2, 161747, Note_on_c, 0, 60, 0
2, 161747, Note_on_c, 0, 64, 0
2, 161760, Note_on_c, 0, 60, 80
2, 161760, Note_on_c, 0, 64, 80
2, 161987, Note_on_c, 0, 60, 0
2, 161987, Note_on_c, 0, 64, 0
2, 162000, Note_on_c, 0, 57, 80
2, 162227, Note_on_c, 0, 57, 0
2, 162240, Note_on_c, 0, 60, 80
2, 162240, Note_on_c, 0, 64, 80
2, 162467, Note_on_c, 0, 60, 0
2, 162467, Note_on_c, 0, 64, 0
2, 162480, Note_on_c, 0, 60, 80
2, 162480, Note_on_c, 0, 64, 80
2, 162707, Note_on_c, 0, 60, 0
2, 162707, Note_on_c, 0, 64, 0
2, 162720, Note_on_c, 0, 57, 80
2, 162947, Note_on_c, 0, 57, 0
2, 162960, Note_on_c, 0, 60, 80
2, 162960, Note_on_c, 0, 64, 80
2, 163187, Note_on_c, 0, 60, 0
2, 163187, Note_on_c, 0, 64, 0
2, 163200, Note_on_c, 0, 60, 80
2, 163200, Note_on_c, 0, 64, 80
2, 163427, Note_on_c, 0, 60, 0
2, 163427, Note_on_c, 0, 64, 0
2, 163440, Note_on_c, 0, 57, 80
2, 163667, Note_on_c, 0, 57, 0
2, 163680, Note_on_c, 0, 60, 80
2, 163680, Note_on_c, 0, 64, 80
2, 163907, Note_on_c, 0, 60, 0
2, 163907, Note_on_c, 0, 64, 0
2, 163920, Note_on_c, 0, 60, 80
2, 163920, Note_on_c, 0, 64, 80
2, 164147, Note_on_c, 0, 60, 0
2, 164147, Note_on_c, 0, 64, 0
2, 164160, Note_on_c, 0, 57, 80
2, 164387, Note_on_c, 0, 57, 0
2, 164400, Note_on_c, 0, 60, 80
2, 164400, Note_on_c, 0, 64, 80
2, 164627, Note_on_c, 0, 60, 0
2, 164627, Note_on_c, 0, 64, 0
2, 164640, Note_on_c, 0, 60, 80
2, 164640, Note_on_c, 0, 64, 80
2, 164867, Note_on_c, 0, 60, 0
2, 164867, Note_on_c, 0, 64, 0
2, 164880, Note_on_c, 0, 57, 80
2, 165107, Note_on_c, 0, 57, 0
2, 165120, Note_on_c, 0, 60, 80
2, 165120, Note_on_c, 0, 64, 80
2, 165347, Note_on_c, 0, 60, 0
2, 165347, Note_on_c, 0, 64, 0
2, 165360, Note_on_c, 0, 60, 80
2, 165360, Note_on_c, 0, 64, 80
2, 165587, Note_on_c, 0, 60, 0
2, 165587, Note_on_c, 0, 64, 0
2, 165600, Note_on_c, 0, 57, 80
2, 166967, Note_on_c, 0, 57, 0
2, 166968, End_track
3, 0, Start_track
3, 0, Title_t, "Electric Bass, Bass\000"
3, 0, Key_signature, 0, "major"
3, 0, Control_c, 3, 121, 0
3, 0, Program_c, 3, 33
3, 0, Control_c, 3, 7, 100
3, 0, Control_c, 3, 10, 64
3, 0, Control_c, 3, 91, 0
3, 0, Control_c, 3, 93, 0
3, 0, MIDI_port, 0
3, 0, Control_c, 1, 121, 0
3, 0, Program_c, 1, 36
3, 0, Control_c, 1, 7, 100
3, 0, Control_c, 1, 10, 64
3, 0, Control_c, 1, 91, 0
3, 0, Control_c, 1, 93, 0
3, 0, MIDI_port, 0
3, 0, Control_c, 2, 121, 0
3, 0, Program_c, 2, 37
3, 0, Control_c, 2, 7, 100
3, 0, Control_c, 2, 10, 64
3, 0, Control_c, 2, 91, 0
3, 0, Control_c, 2, 93, 0
3, 0, MIDI_port, 0
3, 109440, Note_on_c, 3, 57, 80
3, 110159, Note_on_c, 3, 57, 0
3, 110160, Note_on_c, 3, 57, 80
3, 110879, Note_on_c, 3, 57, 0
3, 110880, Note_on_c, 3, 55, 80
3, 111599, Note_on_c, 3, 55, 0
3, 111600, Note_on_c, 3, 55, 80
3, 112319, Note_on_c, 3, 55, 0
3, 112320, Note_on_c, 3, 53, 80
3, 113039, Note_on_c, 3, 53, 0
3, 113040, Note_on_c, 3, 53, 80
3, 113759, Note_on_c, 3, 53, 0
3, 113760, Note_on_c, 3, 55, 80
3, 114479, Note_on_c, 3, 55, 0
3, 114480, Note_on_c, 3, 55, 80
3, 115199, Note_on_c, 3, 55, 0
3, 115200, Note_on_c, 3, 57, 80
3, 115919, Note_on_c, 3, 57, 0
3, 115920, Note_on_c, 3, 57, 80
3, 116639, Note_on_c, 3, 57, 0
3, 116640, Note_on_c, 3, 57, 80
3, 117359, Note_on_c, 3, 57, 0
3, 117360, Note_on_c, 3, 57, 80
3, 118079, Note_on_c, 3, 57, 0
3, 118080, Note_on_c, 3, 55, 80
3, 118799, Note_on_c, 3, 55, 0
3, 118800, Note_on_c, 3, 55, 80
3, 119519, Note_on_c, 3, 55, 0
3, 119520, Note_on_c, 3, 55, 80
3, 120239, Note_on_c, 3, 55, 0
3, 120240, Note_on_c, 3, 55, 80
3, 120959, Note_on_c, 3, 55, 0
3, 120960, Note_on_c, 3, 53, 80
3, 121679, Note_on_c, 3, 53, 0
3, 121680, Note_on_c, 3, 53, 80
3, 122399, Note_on_c, 3, 53, 0
3, 122400, Note_on_c, 3, 53, 80
3, 123119, Note_on_c, 3, 53, 0
3, 123120, Note_on_c, 3, 53, 80
3, 123839, Note_on_c, 3, 53, 0
3, 123840, Note_on_c, 3, 55, 80
3, 124559, Note_on_c, 3, 55, 0
3, 124560, Note_on_c, 3, 55, 80
3, 125279, Note_on_c, 3, 55, 0
3, 125280, Note_on_c, 3, 55, 80
3, 125999, Note_on_c, 3, 55, 0
3, 126000, Note_on_c, 3, 55, 80
3, 126719, Note_on_c, 3, 55, 0
3, 126720, Note_on_c, 3, 57, 80
3, 127439, Note_on_c, 3, 57, 0
3, 127440, Note_on_c, 3, 57, 80
3, 128159, Note_on_c, 3, 57, 0
3, 128160, Note_on_c, 3, 55, 80
3, 128879, Note_on_c, 3, 55, 0
3, 128880, Note_on_c, 3, 55, 80
3, 129599, Note_on_c, 3, 55, 0
3, 129600, Note_on_c, 3, 53, 80
3, 130319, Note_on_c, 3, 53, 0
3, 130320, Note_on_c, 3, 53, 80
3, 131039, Note_on_c, 3, 53, 0
3, 131040, Note_on_c, 3, 55, 80
3, 131759, Note_on_c, 3, 55, 0
3, 131760, Note_on_c, 3, 55, 80
3, 132479, Note_on_c, 3, 55, 0
3, 132480, Note_on_c, 3, 57, 80
3, 133199, Note_on_c, 3, 57, 0
3, 133200, Note_on_c, 3, 57, 80
3, 133919, Note_on_c, 3, 57, 0
3, 133920, Note_on_c, 3, 52, 80
3, 134639, Note_on_c, 3, 52, 0
3, 134640, Note_on_c, 3, 52, 80
3, 135359, Note_on_c, 3, 52, 0
3, 135360, Note_on_c, 3, 53, 80
3, 136079, Note_on_c, 3, 53, 0
3, 136080, Note_on_c, 3, 53, 80
3, 136799, Note_on_c, 3, 53, 0
3, 136800, Note_on_c, 3, 55, 80
3, 137519, Note_on_c, 3, 55, 0
3, 137520, Note_on_c, 3, 55, 80
3, 138239, Note_on_c, 3, 55, 0
3, 138240, Note_on_c, 3, 57, 80
3, 138959, Note_on_c, 3, 57, 0
3, 138960, Note_on_c, 3, 57, 80
3, 139679, Note_on_c, 3, 57, 0
3, 139680, Note_on_c, 3, 55, 80
3, 140399, Note_on_c, 3, 55, 0
3, 140400, Note_on_c, 3, 55, 80
3, 141119, Note_on_c, 3, 55, 0
3, 141120, Note_on_c, 3, 53, 80
3, 141839, Note_on_c, 3, 53, 0
3, 141840, Note_on_c, 3, 53, 80
3, 142559, Note_on_c, 3, 53, 0
3, 142560, Note_on_c, 3, 55, 80
3, 143279, Note_on_c, 3, 55, 0
3, 143280, Note_on_c, 3, 55, 80
3, 143999, Note_on_c, 3, 55, 0
3, 144000, Note_on_c, 3, 57, 80
3, 144719, Note_on_c, 3, 57, 0
3, 144720, Note_on_c, 3, 57, 80
3, 145439, Note_on_c, 3, 57, 0
3, 145440, Note_on_c, 3, 55, 80
3, 146159, Note_on_c, 3, 55, 0
3, 146160, Note_on_c, 3, 55, 80
3, 146879, Note_on_c, 3, 55, 0
3, 146880, Note_on_c, 3, 53, 80
3, 147599, Note_on_c, 3, 53, 0
3, 147600, Note_on_c, 3, 53, 80
3, 148319, Note_on_c, 3, 53, 0
3, 148320, Note_on_c, 3, 55, 80
3, 149039, Note_on_c, 3, 55, 0
3, 149040, Note_on_c, 3, 55, 80
3, 149759, Note_on_c, 3, 55, 0
3, 149760, Note_on_c, 3, 57, 80
3, 150479, Note_on_c, 3, 57, 0
3, 150480, Note_on_c, 3, 57, 80
3, 151199, Note_on_c, 3, 57, 0
3, 151200, Note_on_c, 3, 55, 80
3, 151919, Note_on_c, 3, 55, 0
3, 151920, Note_on_c, 3, 55, 80
3, 152639, Note_on_c, 3, 55, 0
3, 152640, Note_on_c, 3, 53, 80
3, 153359, Note_on_c, 3, 53, 0
3, 153360, Note_on_c, 3, 53, 80
3, 154079, Note_on_c, 3, 53, 0
3, 154080, Note_on_c, 3, 55, 80
3, 154799, Note_on_c, 3, 55, 0
3, 154800, Note_on_c, 3, 55, 80
3, 155519, Note_on_c, 3, 55, 0
3, 155520, Note_on_c, 3, 57, 80
3, 156239, Note_on_c, 3, 57, 0
3, 156240, Note_on_c, 3, 57, 80
3, 156959, Note_on_c, 3, 57, 0
3, 156960, Note_on_c, 3, 55, 80
3, 157679, Note_on_c, 3, 55, 0
3, 157680, Note_on_c, 3, 55, 80
3, 158399, Note_on_c, 3, 55, 0
3, 158400, Note_on_c, 3, 53, 80
3, 159119, Note_on_c, 3, 53, 0
3, 159120, Note_on_c, 3, 53, 80
3, 159839, Note_on_c, 3, 53, 0
3, 159840, Note_on_c, 3, 55, 80
3, 160559, Note_on_c, 3, 55, 0
3, 160560, Note_on_c, 3, 55, 80
3, 161279, Note_on_c, 3, 55, 0
3, 161280, Note_on_c, 3, 57, 80
3, 161999, Note_on_c, 3, 57, 0
3, 162000, Note_on_c, 3, 57, 80
3, 162719, Note_on_c, 3, 57, 0
3, 162720, Note_on_c, 3, 57, 80
3, 163439, Note_on_c, 3, 57, 0
3, 163440, Note_on_c, 3, 57, 80
3, 164159, Note_on_c, 3, 57, 0
3, 164160, Note_on_c, 3, 57, 80
3, 164879, Note_on_c, 3, 57, 0
3, 164880, Note_on_c, 3, 57, 80
3, 165599, Note_on_c, 3, 57, 0
3, 165600, Note_on_c, 3, 57, 80
3, 165959, Note_on_c, 3, 57, 0
3, 165960, End_track
0, 0, End_of_file
