0, 0, Header, 1, 5, 480
1, 0, Start_track
1, 0, Title_t, "Piano, Baritone Saxophone, Solo\000"
1, 0, Time_signature, 12, 2, 24, 8
1, 0, Key_signature, 0, "major"
1, 0, Tempo, 512821
1, 0, Control_c, 0, 121, 0
1, 0, Program_c, 0, 0
1, 0, Control_c, 0, 7, 100
1, 0, Control_c, 0, 10, 64
1, 0, Control_c, 0, 91, 0
1, 0, Control_c, 0, 93, 0
1, 0, MIDI_port, 0
1, 5280, Tempo, 600000
1, 5520, Note_on_c, 0, 69, 80
1, 5747, Note_on_c, 0, 69, 0
1, 5760, Time_signature, 4, 2, 24, 8
1, 5760, Tempo, 512821
1, 5760, Note_on_c, 0, 69, 80
1, 5987, Note_on_c, 0, 69, 0
1, 6000, Note_on_c, 0, 69, 80
1, 6227, Note_on_c, 0, 69, 0
1, 6240, Note_on_c, 0, 69, 80
1, 6391, Note_on_c, 0, 69, 0
1, 6400, Note_on_c, 0, 69, 80
1, 6551, Note_on_c, 0, 69, 0
1, 6560, Note_on_c, 0, 69, 80
1, 6939, Note_on_c, 0, 69, 0
1, 7200, Note_on_c, 0, 71, 80
1, 7427, Note_on_c, 0, 71, 0
1, 7440, Note_on_c, 0, 72, 80
1, 7667, Note_on_c, 0, 72, 0
1, 7680, Note_on_c, 0, 71, 80
1, 7831, Note_on_c, 0, 71, 0
1, 7840, Note_on_c, 0, 69, 80
1, 7991, Note_on_c, 0, 69, 0
1, 8000, Note_on_c, 0, 69, 80
1, 8379, Note_on_c, 0, 69, 0
1, 8880, Note_on_c, 0, 69, 80
1, 9107, Note_on_c, 0, 69, 0
1, 9120, Note_on_c, 0, 69, 80
1, 9233, Note_on_c, 0, 69, 0
1, 9240, Note_on_c, 0, 69, 80
1, 9467, Note_on_c, 0, 69, 0
1, 9480, Note_on_c, 0, 69, 80
1, 9707, Note_on_c, 0, 69, 0
1, 9720, Note_on_c, 0, 67, 80
1, 9947, Note_on_c, 0, 67, 0
1, 9960, Note_on_c, 0, 67, 80
1, 10073, Note_on_c, 0, 67, 0
1, 10080, Note_on_c, 0, 67, 80
1, 10193, Note_on_c, 0, 67, 0
1, 10200, Note_on_c, 0, 67, 80
1, 10313, Note_on_c, 0, 67, 0
1, 10320, Note_on_c, 0, 69, 80
1, 10661, Note_on_c, 0, 69, 0
1, 10680, Note_on_c, 0, 67, 80
1, 10907, Note_on_c, 0, 67, 0
1, 10920, Note_on_c, 0, 67, 80
1, 11147, Note_on_c, 0, 67, 0
1, 11160, Note_on_c, 0, 65, 80
1, 11387, Note_on_c, 0, 65, 0
1, 11400, Note_on_c, 0, 65, 80
1, 11627, Note_on_c, 0, 65, 0
1, 11640, Note_on_c, 0, 64, 80
1, 11867, Note_on_c, 0, 64, 0
1, 11880, Note_on_c, 0, 64, 80
1, 12221, Note_on_c, 0, 64, 0
1, 12720, Note_on_c, 0, 64, 80
1, 12833, Note_on_c, 0, 64, 0
1, 12840, Note_on_c, 0, 64, 80
1, 13067, Note_on_c, 0, 64, 0
1, 13080, Note_on_c, 0, 64, 80
1, 13307, Note_on_c, 0, 64, 0
1, 13320, Note_on_c, 0, 65, 80
1, 13661, Note_on_c, 0, 65, 0
1, 13680, Note_on_c, 0, 64, 80
1, 13907, Note_on_c, 0, 64, 0
1, 13920, Note_on_c, 0, 64, 80
1, 14071, Note_on_c, 0, 64, 0
1, 14080, Note_on_c, 0, 64, 80
1, 14231, Note_on_c, 0, 64, 0
1, 14240, Note_on_c, 0, 65, 80
1, 14619, Note_on_c, 0, 65, 0
1, 14880, Note_on_c, 0, 64, 80
1, 15107, Note_on_c, 0, 64, 0
1, 15120, Note_on_c, 0, 64, 80
1, 15347, Note_on_c, 0, 64, 0
1, 15360, Note_on_c, 0, 65, 80
1, 15587, Note_on_c, 0, 65, 0
1, 15600, Note_on_c, 0, 64, 80
1, 15827, Note_on_c, 0, 64, 0
1, 15840, Note_on_c, 0, 64, 80
1, 15991, Note_on_c, 0, 64, 0
1, 16000, Note_on_c, 0, 62, 80
1, 16151, Note_on_c, 0, 62, 0
1, 16160, Note_on_c, 0, 64, 80
1, 16653, Note_on_c, 0, 64, 0
1, 16680, Note_on_c, 0, 64, 80
1, 16793, Note_on_c, 0, 64, 0
1, 16800, Note_on_c, 0, 64, 80
1, 17027, Note_on_c, 0, 64, 0
1, 17040, Note_on_c, 0, 64, 80
1, 17267, Note_on_c, 0, 64, 0
1, 17280, Note_on_c, 0, 64, 80
1, 17735, Note_on_c, 0, 64, 0
1, 18480, Note_on_c, 0, 64, 80
1, 18593, Note_on_c, 0, 64, 0
1, 18600, Note_on_c, 0, 64, 80
1, 18827, Note_on_c, 0, 64, 0
1, 18840, Note_on_c, 0, 64, 80
1, 19067, Note_on_c, 0, 64, 0
1, 19080, Note_on_c, 0, 69, 80
1, 19193, Note_on_c, 0, 69, 0
1, 19200, Note_on_c, 0, 64, 80
1, 19541, Note_on_c, 0, 64, 0
1, 19560, Note_on_c, 0, 69, 80
1, 19787, Note_on_c, 0, 69, 0
1, 19800, Note_on_c, 0, 69, 80
1, 19913, Note_on_c, 0, 69, 0
1, 19920, Note_on_c, 0, 64, 80
1, 20033, Note_on_c, 0, 64, 0
1, 20040, Note_on_c, 0, 69, 80
1, 20153, Note_on_c, 0, 69, 0
1, 20160, Tempo, 631579
1, 20160, Note_on_c, 0, 71, 80
1, 20387, Note_on_c, 0, 71, 0
1, 20400, Tempo, 512821
1, 20400, Note_on_c, 0, 64, 80
1, 20627, Note_on_c, 0, 64, 0
1, 20640, Note_on_c, 0, 64, 80
1, 20867, Note_on_c, 0, 64, 0
1, 20880, Note_on_c, 0, 64, 80
1, 21107, Note_on_c, 0, 64, 0
1, 21120, Note_on_c, 0, 69, 80
1, 21359, Note_on_c, 0, 69, 0
1, 22320, Note_on_c, 0, 69, 80
1, 22547, Note_on_c, 0, 69, 0
1, 22560, Note_on_c, 0, 69, 80
1, 22787, Note_on_c, 0, 69, 0
1, 22800, Note_on_c, 0, 69, 80
1, 22913, Note_on_c, 0, 69, 0
1, 22920, Note_on_c, 0, 69, 80
1, 23261, Note_on_c, 0, 69, 0
1, 24240, Note_on_c, 0, 69, 80
1, 24467, Note_on_c, 0, 69, 0
1, 24480, Note_on_c, 0, 69, 80
1, 24707, Note_on_c, 0, 69, 0
1, 24720, Note_on_c, 0, 69, 80
1, 24947, Note_on_c, 0, 69, 0
1, 24960, Note_on_c, 0, 69, 80
1, 25187, Note_on_c, 0, 69, 0
1, 25200, Note_on_c, 0, 67, 80
1, 25313, Note_on_c, 0, 67, 0
1, 25320, Note_on_c, 0, 67, 80
1, 25585, Note_on_c, 0, 67, 0
1, 25600, Note_on_c, 0, 67, 80
1, 25751, Note_on_c, 0, 67, 0
1, 25760, Note_on_c, 0, 69, 80
1, 26139, Note_on_c, 0, 69, 0
1, 26160, Note_on_c, 0, 67, 80
1, 26273, Note_on_c, 0, 67, 0
1, 26280, Note_on_c, 0, 67, 80
1, 26507, Note_on_c, 0, 67, 0
1, 26520, Note_on_c, 0, 67, 80
1, 26747, Note_on_c, 0, 67, 0
1, 26760, Note_on_c, 0, 69, 80
1, 27101, Note_on_c, 0, 69, 0
1, 27120, Note_on_c, 0, 67, 80
1, 27233, Note_on_c, 0, 67, 0
1, 27240, Note_on_c, 0, 67, 80
1, 27467, Note_on_c, 0, 67, 0
1, 27480, Note_on_c, 0, 67, 80
1, 27593, Note_on_c, 0, 67, 0
1, 27600, Note_on_c, 0, 69, 80
1, 27827, Note_on_c, 0, 69, 0
1, 28080, Note_on_c, 0, 64, 80
1, 28307, Note_on_c, 0, 64, 0
1, 28320, Note_on_c, 0, 64, 80
1, 28433, Note_on_c, 0, 64, 0
1, 28440, Note_on_c, 0, 64, 80
1, 28667, Note_on_c, 0, 64, 0
1, 28680, Note_on_c, 0, 65, 80
1, 29021, Note_on_c, 0, 65, 0
1, 29040, Note_on_c, 0, 64, 80
1, 29267, Note_on_c, 0, 64, 0
1, 29280, Note_on_c, 0, 64, 80
1, 29393, Note_on_c, 0, 64, 0
1, 29400, Note_on_c, 0, 64, 80
1, 29627, Note_on_c, 0, 64, 0
1, 29640, Note_on_c, 0, 64, 80
1, 29753, Note_on_c, 0, 64, 0
1, 30000, Note_on_c, 0, 64, 80
1, 30227, Note_on_c, 0, 64, 0
1, 30240, Note_on_c, 0, 64, 80
1, 30353, Note_on_c, 0, 64, 0
1, 30360, Note_on_c, 0, 64, 80
1, 30587, Note_on_c, 0, 64, 0
1, 30600, Note_on_c, 0, 64, 80
1, 30941, Note_on_c, 0, 64, 0
1, 30960, Note_on_c, 0, 62, 80
1, 31187, Note_on_c, 0, 62, 0
1, 31200, Note_on_c, 0, 62, 80
1, 31313, Note_on_c, 0, 62, 0
1, 31320, Note_on_c, 0, 62, 80
1, 31547, Note_on_c, 0, 62, 0
1, 31560, Note_on_c, 0, 64, 80
1, 31901, Note_on_c, 0, 64, 0
1, 32040, Note_on_c, 0, 62, 80
1, 32153, Note_on_c, 0, 62, 0
1, 32160, Note_on_c, 0, 64, 80
1, 32387, Note_on_c, 0, 64, 0
1, 32400, Note_on_c, 0, 64, 80
1, 32513, Note_on_c, 0, 64, 0
1, 32520, Note_on_c, 0, 64, 80
1, 32861, Note_on_c, 0, 64, 0
1, 32880, Note_on_c, 0, 64, 80
1, 33107, Note_on_c, 0, 64, 0
1, 33120, Note_on_c, 0, 64, 80
1, 33347, Note_on_c, 0, 64, 0
1, 33360, Note_on_c, 0, 64, 80
1, 33587, Note_on_c, 0, 64, 0
1, 33600, Note_on_c, 0, 64, 80
1, 33713, Note_on_c, 0, 64, 0
1, 33720, Note_on_c, 0, 64, 80
1, 34061, Note_on_c, 0, 64, 0
1, 34080, Note_on_c, 0, 64, 80
1, 34307, Note_on_c, 0, 64, 0
1, 34320, Note_on_c, 0, 64, 80
1, 34547, Note_on_c, 0, 64, 0
1, 34560, Note_on_c, 0, 64, 80
1, 34560, Note_on_c, 0, 69, 80
1, 34787, Note_on_c, 0, 64, 0
1, 34787, Note_on_c, 0, 69, 0
1, 34800, Note_on_c, 0, 69, 80
1, 34913, Note_on_c, 0, 69, 0
1, 34920, Note_on_c, 0, 69, 80
1, 35147, Note_on_c, 0, 69, 0
1, 35160, Note_on_c, 0, 69, 80
1, 35273, Note_on_c, 0, 69, 0
1, 35280, Note_on_c, 0, 71, 80
1, 35507, Note_on_c, 0, 71, 0
1, 35760, Note_on_c, 0, 64, 80
1, 35873, Note_on_c, 0, 64, 0
1, 35880, Note_on_c, 0, 64, 80
1, 36107, Note_on_c, 0, 64, 0
1, 36120, Note_on_c, 0, 64, 80
1, 36461, Note_on_c, 0, 64, 0
1, 36480, Note_on_c, 0, 69, 80
1, 36935, Note_on_c, 0, 69, 0
1, 37680, Note_on_c, 0, 69, 80
1, 37907, Note_on_c, 0, 69, 0
1, 37920, Note_on_c, 0, 69, 80
1, 38147, Note_on_c, 0, 69, 0
1, 38160, Note_on_c, 0, 69, 80
1, 38273, Note_on_c, 0, 69, 0
1, 38280, Note_on_c, 0, 69, 80
1, 38849, Note_on_c, 0, 69, 0
1, 39600, Note_on_c, 0, 69, 80
1, 39827, Note_on_c, 0, 69, 0
1, 39840, Note_on_c, 0, 69, 80
1, 40067, Note_on_c, 0, 69, 0
1, 40080, Note_on_c, 0, 69, 80
1, 40193, Note_on_c, 0, 69, 0
1, 40200, Note_on_c, 0, 67, 80
1, 40541, Note_on_c, 0, 67, 0
1, 40560, Note_on_c, 0, 69, 80
1, 40787, Note_on_c, 0, 69, 0
1, 41640, Note_on_c, 0, 69, 80
1, 41753, Note_on_c, 0, 69, 0
1, 41760, Note_on_c, 0, 69, 80
1, 41873, Note_on_c, 0, 69, 0
1, 41880, Note_on_c, 0, 67, 80
1, 42221, Note_on_c, 0, 67, 0
1, 42240, Note_on_c, 0, 69, 80
1, 42467, Note_on_c, 0, 69, 0
1, 42480, Note_on_c, 0, 67, 80
1, 42707, Note_on_c, 0, 67, 0
1, 42720, Note_on_c, 0, 67, 80
1, 42833, Note_on_c, 0, 67, 0
1, 42840, Note_on_c, 0, 67, 80
1, 43067, Note_on_c, 0, 67, 0
1, 43080, Note_on_c, 0, 69, 80
1, 43421, Note_on_c, 0, 69, 0
1, 44400, Note_on_c, 0, 64, 80
1, 44627, Note_on_c, 0, 64, 0
1, 44640, Note_on_c, 0, 64, 80
1, 44867, Note_on_c, 0, 64, 0
1, 44880, Note_on_c, 0, 64, 80
1, 44993, Note_on_c, 0, 64, 0
1, 45000, Note_on_c, 0, 64, 80
1, 45227, Note_on_c, 0, 64, 0
1, 45240, Note_on_c, 0, 64, 80
1, 45467, Note_on_c, 0, 64, 0
1, 45480, Note_on_c, 0, 64, 80
1, 45707, Note_on_c, 0, 64, 0
1, 45720, Note_on_c, 0, 64, 80
1, 45947, Note_on_c, 0, 64, 0
1, 45960, Note_on_c, 0, 64, 80
1, 46187, Note_on_c, 0, 64, 0
1, 46200, Note_on_c, 0, 62, 80
1, 46427, Note_on_c, 0, 62, 0
1, 46440, Note_on_c, 0, 62, 80
1, 46705, Note_on_c, 0, 62, 0
1, 46720, Note_on_c, 0, 62, 80
1, 46871, Note_on_c, 0, 62, 0
1, 46880, Note_on_c, 0, 64, 80
1, 47031, Note_on_c, 0, 64, 0
1, 47280, Note_on_c, 0, 59, 80
1, 47393, Note_on_c, 0, 59, 0
1, 47400, Note_on_c, 0, 59, 80
1, 47513, Note_on_c, 0, 59, 0
1, 47520, Note_on_c, 0, 59, 80
1, 47633, Note_on_c, 0, 59, 0
1, 47640, Note_on_c, 0, 62, 80
1, 47981, Note_on_c, 0, 62, 0
1, 48000, Note_on_c, 0, 64, 80
1, 48227, Note_on_c, 0, 64, 0
1, 48240, Note_on_c, 0, 64, 80
1, 48599, Note_on_c, 0, 64, 0
1, 49200, Note_on_c, 0, 64, 80
1, 49313, Note_on_c, 0, 64, 0
1, 49320, Note_on_c, 0, 64, 80
1, 49433, Note_on_c, 0, 64, 0
1, 49440, Note_on_c, 0, 64, 80
1, 49781, Note_on_c, 0, 64, 0
1, 49800, Note_on_c, 0, 69, 80
1, 50255, Note_on_c, 0, 69, 0
1, 50280, Note_on_c, 0, 69, 80
1, 50507, Note_on_c, 0, 69, 0
1, 50520, Note_on_c, 0, 69, 80
1, 50633, Note_on_c, 0, 69, 0
1, 50640, Note_on_c, 0, 71, 80
1, 50981, Note_on_c, 0, 71, 0
1, 51120, Note_on_c, 0, 64, 80
1, 51347, Note_on_c, 0, 64, 0
1, 51360, Note_on_c, 0, 64, 80
1, 51587, Note_on_c, 0, 64, 0
1, 51600, Note_on_c, 0, 64, 80
1, 51827, Note_on_c, 0, 64, 0
1, 51840, Note_on_c, 0, 69, 80
1, 52295, Note_on_c, 0, 69, 0
1, 53040, Note_on_c, 0, 69, 80
1, 53267, Note_on_c, 0, 69, 0
1, 53280, Note_on_c, 0, 71, 80
1, 53507, Note_on_c, 0, 71, 0
1, 53520, Note_on_c, 0, 72, 80
1, 53633, Note_on_c, 0, 72, 0
1, 53640, Note_on_c, 0, 69, 80
1, 54209, Note_on_c, 0, 69, 0
1, 54960, Note_on_c, 0, 69, 80
1, 55415, Note_on_c, 0, 69, 0
1, 55440, Note_on_c, 0, 69, 80
1, 55667, Note_on_c, 0, 69, 0
1, 55680, Note_on_c, 0, 69, 80
1, 55907, Note_on_c, 0, 69, 0
1, 55920, Note_on_c, 0, 67, 80
1, 56147, Note_on_c, 0, 67, 0
1, 56160, Note_on_c, 0, 67, 80
1, 56387, Note_on_c, 0, 67, 0
1, 56400, Note_on_c, 0, 67, 80
1, 56627, Note_on_c, 0, 67, 0
1, 56640, Note_on_c, 0, 69, 80
1, 56753, Note_on_c, 0, 69, 0
1, 56760, Note_on_c, 0, 67, 80
1, 56987, Note_on_c, 0, 67, 0
1, 57000, Note_on_c, 0, 67, 80
1, 57341, Note_on_c, 0, 67, 0
1, 57360, Note_on_c, 0, 67, 80
1, 57587, Note_on_c, 0, 67, 0
1, 57600, Note_on_c, 0, 69, 80
1, 57713, Note_on_c, 0, 69, 0
1, 57720, Note_on_c, 0, 67, 80
1, 58061, Note_on_c, 0, 67, 0
1, 58080, Note_on_c, 0, 67, 80
1, 58307, Note_on_c, 0, 67, 0
1, 58320, Note_on_c, 0, 67, 80
1, 58433, Note_on_c, 0, 67, 0
1, 58440, Note_on_c, 0, 69, 80
1, 58781, Note_on_c, 0, 69, 0
1, 59040, Note_on_c, 0, 64, 80
1, 59267, Note_on_c, 0, 64, 0
1, 59280, Note_on_c, 0, 64, 80
1, 59507, Note_on_c, 0, 64, 0
1, 59520, Note_on_c, 0, 64, 80
1, 59747, Note_on_c, 0, 64, 0
1, 59760, Note_on_c, 0, 64, 80
1, 59987, Note_on_c, 0, 64, 0
1, 60000, Note_on_c, 0, 64, 80
1, 60227, Note_on_c, 0, 64, 0
1, 60240, Note_on_c, 0, 64, 80
1, 60353, Note_on_c, 0, 64, 0
1, 60360, Note_on_c, 0, 64, 80
1, 60701, Note_on_c, 0, 64, 0
1, 60960, Note_on_c, 0, 64, 80
1, 61187, Note_on_c, 0, 64, 0
1, 61200, Note_on_c, 0, 64, 80
1, 61427, Note_on_c, 0, 64, 0
1, 61440, Note_on_c, 0, 64, 80
1, 61667, Note_on_c, 0, 64, 0
1, 61680, Note_on_c, 0, 64, 80
1, 61907, Note_on_c, 0, 64, 0
1, 61920, Note_on_c, 0, 65, 80
1, 62147, Note_on_c, 0, 65, 0
1, 62160, Note_on_c, 0, 64, 80
1, 62273, Note_on_c, 0, 64, 0
1, 62280, Note_on_c, 0, 64, 80
1, 62621, Note_on_c, 0, 64, 0
1, 62880, Note_on_c, 0, 64, 80
1, 63107, Note_on_c, 0, 64, 0
1, 63120, Note_on_c, 0, 64, 80
1, 63233, Note_on_c, 0, 64, 0
1, 63240, Note_on_c, 0, 64, 80
1, 63809, Note_on_c, 0, 64, 0
1, 64560, Note_on_c, 0, 69, 80
1, 64787, Note_on_c, 0, 69, 0
1, 64800, Note_on_c, 0, 69, 80
1, 65027, Note_on_c, 0, 69, 0
1, 65040, Note_on_c, 0, 64, 80
1, 65153, Note_on_c, 0, 64, 0
1, 65160, Note_on_c, 0, 62, 80
1, 65729, Note_on_c, 0, 62, 0
1, 66480, Note_on_c, 0, 64, 80
1, 66935, Note_on_c, 0, 64, 0
1, 66960, Note_on_c, 0, 69, 80
1, 67415, Note_on_c, 0, 69, 0
1, 80640, Note_on_c, 0, 64, 80
1, 80640, Note_on_c, 0, 69, 80
1, 81095, Note_on_c, 0, 64, 0
1, 81095, Note_on_c, 0, 69, 0
1, 82320, Note_on_c, 0, 69, 80
1, 82320, Note_on_c, 0, 72, 80
1, 82547, Note_on_c, 0, 69, 0
1, 82547, Note_on_c, 0, 72, 0
1, 82560, Note_on_c, 0, 72, 80
1, 82560, Note_on_c, 0, 76, 80
1, 83015, Note_on_c, 0, 72, 0
1, 83015, Note_on_c, 0, 76, 0
1, 83040, Note_on_c, 0, 69, 80
1, 83040, Note_on_c, 0, 72, 80
1, 83723, Note_on_c, 0, 69, 0
1, 83723, Note_on_c, 0, 72, 0
1, 83760, Note_on_c, 0, 64, 80
1, 83760, Note_on_c, 0, 69, 80
1, 83987, Note_on_c, 0, 64, 0
1, 83987, Note_on_c, 0, 69, 0
1, 84000, Note_on_c, 0, 69, 80
1, 84000, Note_on_c, 0, 72, 80
1, 84227, Note_on_c, 0, 69, 0
1, 84227, Note_on_c, 0, 72, 0
1, 84240, Note_on_c, 0, 71, 80
1, 84240, Note_on_c, 0, 79, 80
1, 84467, Note_on_c, 0, 71, 0
1, 84467, Note_on_c, 0, 79, 0
1, 84480, Note_on_c, 0, 74, 80
1, 84480, Note_on_c, 0, 77, 80
1, 85163, Note_on_c, 0, 74, 0
1, 85163, Note_on_c, 0, 77, 0
1, 85200, Note_on_c, 0, 72, 80
1, 85200, Note_on_c, 0, 76, 80
1, 85427, Note_on_c, 0, 72, 0
1, 85427, Note_on_c, 0, 76, 0
1, 85440, Note_on_c, 0, 74, 80
1, 85515, Note_on_c, 0, 74, 0
1, 85520, Note_on_c, 0, 76, 80
1, 85595, Note_on_c, 0, 76, 0
1, 85600, Note_on_c, 0, 74, 80
1, 85675, Note_on_c, 0, 74, 0
1, 85680, Note_on_c, 0, 72, 80
1, 85907, Note_on_c, 0, 72, 0
1, 85920, Note_on_c, 0, 71, 80
1, 85995, Note_on_c, 0, 71, 0
1, 86000, Note_on_c, 0, 72, 80
1, 86075, Note_on_c, 0, 72, 0
1, 86080, Note_on_c, 0, 71, 80
1, 86155, Note_on_c, 0, 71, 0
1, 86160, Note_on_c, 0, 69, 80
1, 86387, Note_on_c, 0, 69, 0
1, 86400, Note_on_c, 0, 64, 80
1, 86400, Note_on_c, 0, 67, 80
1, 87083, Note_on_c, 0, 64, 0
1, 87083, Note_on_c, 0, 67, 0
1, 87120, Note_on_c, 0, 67, 80
1, 87233, Note_on_c, 0, 67, 0
1, 87240, Note_on_c, 0, 69, 80
1, 87353, Note_on_c, 0, 69, 0
1, 87360, Note_on_c, 0, 67, 80
1, 87587, Note_on_c, 0, 67, 0
1, 87600, Note_on_c, 0, 76, 80
1, 87600, Note_on_c, 0, 79, 80
1, 88055, Note_on_c, 0, 76, 0
1, 88055, Note_on_c, 0, 79, 0
1, 88080, Note_on_c, 0, 76, 80
1, 88193, Note_on_c, 0, 76, 0
1, 88200, Note_on_c, 0, 77, 80
1, 88313, Note_on_c, 0, 77, 0
1, 88320, Note_on_c, 0, 76, 80
1, 88547, Note_on_c, 0, 76, 0
1, 88560, Note_on_c, 0, 74, 80
1, 88673, Note_on_c, 0, 74, 0
1, 88680, Note_on_c, 0, 76, 80
1, 88793, Note_on_c, 0, 76, 0
1, 88800, Note_on_c, 0, 74, 80
1, 89027, Note_on_c, 0, 74, 0
1, 89040, Note_on_c, 0, 72, 80
1, 89153, Note_on_c, 0, 72, 0
1, 89160, Note_on_c, 0, 74, 80
1, 89273, Note_on_c, 0, 74, 0
1, 89280, Note_on_c, 0, 72, 80
1, 89507, Note_on_c, 0, 72, 0
1, 89520, Note_on_c, 0, 71, 80
1, 89633, Note_on_c, 0, 71, 0
1, 89640, Note_on_c, 0, 72, 80
1, 89753, Note_on_c, 0, 72, 0
1, 89760, Note_on_c, 0, 71, 80
1, 89987, Note_on_c, 0, 71, 0
1, 90000, Note_on_c, 0, 69, 80
1, 90113, Note_on_c, 0, 69, 0
1, 90120, Note_on_c, 0, 71, 80
1, 90233, Note_on_c, 0, 71, 0
1, 90240, Note_on_c, 0, 69, 80
1, 91151, Note_on_c, 0, 69, 0
1, 91200, Note_on_c, 0, 72, 80
1, 91200, Note_on_c, 0, 76, 80
1, 91655, Note_on_c, 0, 72, 0
1, 91655, Note_on_c, 0, 76, 0
1, 91680, Note_on_c, 0, 74, 80
1, 91680, Note_on_c, 0, 77, 80
1, 92135, Note_on_c, 0, 74, 0
1, 92135, Note_on_c, 0, 77, 0
1, 92160, Note_on_c, 0, 77, 80
1, 92273, Note_on_c, 0, 77, 0
1, 92280, Note_on_c, 0, 76, 80
1, 92393, Note_on_c, 0, 76, 0
1, 92400, Note_on_c, 0, 74, 80
1, 92513, Note_on_c, 0, 74, 0
1, 92520, Note_on_c, 0, 72, 80
1, 92633, Note_on_c, 0, 72, 0
1, 92640, Note_on_c, 0, 71, 80
1, 92753, Note_on_c, 0, 71, 0
1, 92760, Note_on_c, 0, 69, 80
1, 92873, Note_on_c, 0, 69, 0
1, 92880, Note_on_c, 0, 67, 80
1, 92993, Note_on_c, 0, 67, 0
1, 93000, Note_on_c, 0, 65, 80
1, 93113, Note_on_c, 0, 65, 0
1, 93120, Note_on_c, 0, 64, 80
1, 93233, Note_on_c, 0, 64, 0
1, 93240, Note_on_c, 0, 62, 80
1, 93353, Note_on_c, 0, 62, 0
1, 93360, Note_on_c, 0, 60, 80
1, 93473, Note_on_c, 0, 60, 0
1, 93480, Note_on_c, 0, 59, 80
1, 93593, Note_on_c, 0, 59, 0
1, 93600, Note_on_c, 0, 57, 80
1, 93713, Note_on_c, 0, 57, 0
1, 93720, Note_on_c, 0, 55, 80
1, 93833, Note_on_c, 0, 55, 0
1, 93840, Note_on_c, 0, 57, 80
1, 93953, Note_on_c, 0, 57, 0
1, 93960, Note_on_c, 0, 59, 80
1, 94073, Note_on_c, 0, 59, 0
1, 94080, Note_on_c, 0, 64, 80
1, 94535, Note_on_c, 0, 64, 0
1, 95280, Note_on_c, 0, 64, 80
1, 95507, Note_on_c, 0, 64, 0
1, 95520, Note_on_c, 0, 64, 80
1, 95633, Note_on_c, 0, 64, 0
1, 95640, Note_on_c, 0, 64, 80
1, 95867, Note_on_c, 0, 64, 0
1, 95880, Note_on_c, 0, 69, 80
1, 96221, Note_on_c, 0, 69, 0
1, 96240, Note_on_c, 0, 69, 80
1, 96467, Note_on_c, 0, 69, 0
1, 96480, Note_on_c, 0, 69, 80
1, 96593, Note_on_c, 0, 69, 0
1, 96600, Note_on_c, 0, 69, 80
1, 96827, Note_on_c, 0, 69, 0
1, 96840, Note_on_c, 0, 71, 80
1, 97181, Note_on_c, 0, 71, 0
1, 97200, Note_on_c, 0, 64, 80
1, 97427, Note_on_c, 0, 64, 0
1, 97440, Note_on_c, 0, 64, 80
1, 97667, Note_on_c, 0, 64, 0
1, 97680, Note_on_c, 0, 64, 80
1, 97907, Note_on_c, 0, 64, 0
1, 97920, Note_on_c, 0, 69, 80
1, 98375, Note_on_c, 0, 69, 0
1, 99120, Note_on_c, 0, 69, 80
1, 99347, Note_on_c, 0, 69, 0
1, 99360, Note_on_c, 0, 69, 80
1, 99473, Note_on_c, 0, 69, 0
1, 99480, Note_on_c, 0, 69, 80
1, 99707, Note_on_c, 0, 69, 0
1, 99720, Note_on_c, 0, 69, 80
1, 100289, Note_on_c, 0, 69, 0
1, 101040, Note_on_c, 0, 69, 80
1, 101267, Note_on_c, 0, 69, 0
1, 101280, Note_on_c, 0, 69, 80
1, 101507, Note_on_c, 0, 69, 0
1, 101520, Note_on_c, 0, 69, 80
1, 101747, Note_on_c, 0, 69, 0
1, 101760, Note_on_c, 0, 69, 80
1, 101987, Note_on_c, 0, 69, 0
1, 102000, Note_on_c, 0, 67, 80
1, 102227, Note_on_c, 0, 67, 0
1, 102240, Note_on_c, 0, 67, 80
1, 102353, Note_on_c, 0, 67, 0
1, 102360, Note_on_c, 0, 67, 80
1, 102587, Note_on_c, 0, 67, 0
1, 102600, Note_on_c, 0, 69, 80
1, 102941, Note_on_c, 0, 69, 0
1, 102960, Note_on_c, 0, 67, 80
1, 103187, Note_on_c, 0, 67, 0
1, 103200, Note_on_c, 0, 67, 80
1, 103313, Note_on_c, 0, 67, 0
1, 103320, Note_on_c, 0, 65, 80
1, 103547, Note_on_c, 0, 65, 0
1, 103560, Note_on_c, 0, 65, 80
1, 103787, Note_on_c, 0, 65, 0
1, 103800, Note_on_c, 0, 64, 80
1, 103913, Note_on_c, 0, 64, 0
1, 103920, Note_on_c, 0, 64, 80
1, 104147, Note_on_c, 0, 64, 0
1, 104880, Note_on_c, 0, 64, 80
1, 105107, Note_on_c, 0, 64, 0
1, 105120, Note_on_c, 0, 64, 80
1, 105347, Note_on_c, 0, 64, 0
1, 105360, Note_on_c, 0, 64, 80
1, 105587, Note_on_c, 0, 64, 0
1, 105600, Note_on_c, 0, 65, 80
1, 105827, Note_on_c, 0, 65, 0
1, 105840, Note_on_c, 0, 64, 80
1, 106067, Note_on_c, 0, 64, 0
1, 106080, Note_on_c, 0, 64, 80
1, 106193, Note_on_c, 0, 64, 0
1, 106200, Note_on_c, 0, 64, 80
1, 106427, Note_on_c, 0, 64, 0
1, 106440, Note_on_c, 0, 64, 80
1, 106781, Note_on_c, 0, 64, 0
1, 106800, Note_on_c, 0, 64, 80
1, 107027, Note_on_c, 0, 64, 0
1, 107040, Note_on_c, 0, 64, 80
1, 107153, Note_on_c, 0, 64, 0
1, 107160, Note_on_c, 0, 64, 80
1, 107501, Note_on_c, 0, 64, 0
1, 107520, Note_on_c, 0, 64, 80
1, 107747, Note_on_c, 0, 64, 0
1, 107760, Note_on_c, 0, 62, 80
1, 107987, Note_on_c, 0, 62, 0
1, 108000, Note_on_c, 0, 62, 80
1, 108113, Note_on_c, 0, 62, 0
1, 108120, Note_on_c, 0, 62, 80
1, 108347, Note_on_c, 0, 62, 0
1, 108360, Note_on_c, 0, 64, 80
1, 108473, Note_on_c, 0, 64, 0
1, 108840, Note_on_c, 0, 62, 80
1, 108953, Note_on_c, 0, 62, 0
1, 108960, Note_on_c, 0, 64, 80
1, 109187, Note_on_c, 0, 64, 0
1, 109200, Note_on_c, 0, 64, 80
1, 109427, Note_on_c, 0, 64, 0
1, 109440, Note_on_c, 0, 64, 80
1, 109667, Note_on_c, 0, 64, 0
1, 109680, Note_on_c, 0, 64, 80
1, 109907, Note_on_c, 0, 64, 0
1, 109920, Note_on_c, 0, 64, 80
1, 110147, Note_on_c, 0, 64, 0
1, 110160, Note_on_c, 0, 64, 80
1, 110387, Note_on_c, 0, 64, 0
1, 110400, Note_on_c, 0, 64, 80
1, 110513, Note_on_c, 0, 64, 0
1, 110520, Note_on_c, 0, 64, 80
1, 110861, Note_on_c, 0, 64, 0
1, 110880, Note_on_c, 0, 64, 80
1, 111107, Note_on_c, 0, 64, 0
1, 111120, Note_on_c, 0, 64, 80
1, 111347, Note_on_c, 0, 64, 0
1, 111360, Note_on_c, 0, 69, 80
1, 111587, Note_on_c, 0, 69, 0
1, 111600, Note_on_c, 0, 69, 80
1, 111827, Note_on_c, 0, 69, 0
1, 111840, Note_on_c, 0, 69, 80
1, 111953, Note_on_c, 0, 69, 0
1, 111960, Note_on_c, 0, 69, 80
1, 112187, Note_on_c, 0, 69, 0
1, 112200, Note_on_c, 0, 71, 80
1, 112541, Note_on_c, 0, 71, 0
1, 112560, Note_on_c, 0, 64, 80
1, 112673, Note_on_c, 0, 64, 0
1, 112680, Note_on_c, 0, 64, 80
1, 112907, Note_on_c, 0, 64, 0
1, 112920, Note_on_c, 0, 64, 80
1, 113261, Note_on_c, 0, 64, 0
1, 113280, Note_on_c, 0, 69, 80
1, 113735, Note_on_c, 0, 69, 0
1, 114480, Note_on_c, 0, 69, 80
1, 114707, Note_on_c, 0, 69, 0
1, 114720, Note_on_c, 0, 69, 80
1, 114947, Note_on_c, 0, 69, 0
1, 114960, Note_on_c, 0, 69, 80
1, 115073, Note_on_c, 0, 69, 0
1, 115080, Note_on_c, 0, 69, 80
1, 115649, Note_on_c, 0, 69, 0
1, 116400, Note_on_c, 0, 69, 80
1, 116627, Note_on_c, 0, 69, 0
1, 116640, Note_on_c, 0, 69, 80
1, 116867, Note_on_c, 0, 69, 0
1, 116880, Note_on_c, 0, 69, 80
1, 116993, Note_on_c, 0, 69, 0
1, 117000, Note_on_c, 0, 67, 80
1, 117341, Note_on_c, 0, 67, 0
1, 117360, Note_on_c, 0, 69, 80
1, 117587, Note_on_c, 0, 69, 0
1, 118440, Note_on_c, 0, 69, 80
1, 118553, Note_on_c, 0, 69, 0
1, 118560, Note_on_c, 0, 69, 80
1, 118673, Note_on_c, 0, 69, 0
1, 118680, Note_on_c, 0, 67, 80
1, 119021, Note_on_c, 0, 67, 0
1, 119040, Note_on_c, 0, 69, 80
1, 119267, Note_on_c, 0, 69, 0
1, 119280, Note_on_c, 0, 67, 80
1, 119507, Note_on_c, 0, 67, 0
1, 119520, Note_on_c, 0, 67, 80
1, 119633, Note_on_c, 0, 67, 0
1, 119640, Note_on_c, 0, 67, 80
1, 119867, Note_on_c, 0, 67, 0
1, 119880, Note_on_c, 0, 69, 80
1, 120449, Note_on_c, 0, 69, 0
1, 121200, Note_on_c, 0, 64, 80
1, 121427, Note_on_c, 0, 64, 0
1, 121440, Note_on_c, 0, 64, 80
1, 121667, Note_on_c, 0, 64, 0
1, 121680, Note_on_c, 0, 64, 80
1, 121793, Note_on_c, 0, 64, 0
1, 121800, Note_on_c, 0, 64, 80
1, 121913, Note_on_c, 0, 64, 0
1, 122040, Note_on_c, 0, 64, 80
1, 122267, Note_on_c, 0, 64, 0
1, 122280, Note_on_c, 0, 64, 80
1, 122507, Note_on_c, 0, 64, 0
1, 122520, Note_on_c, 0, 64, 80
1, 122747, Note_on_c, 0, 64, 0
1, 122760, Note_on_c, 0, 64, 80
1, 122987, Note_on_c, 0, 64, 0
1, 123000, Note_on_c, 0, 62, 80
1, 123227, Note_on_c, 0, 62, 0
1, 123240, Note_on_c, 0, 62, 80
1, 123505, Note_on_c, 0, 62, 0
1, 123520, Note_on_c, 0, 62, 80
1, 123671, Note_on_c, 0, 62, 0
1, 123680, Note_on_c, 0, 64, 80
1, 123831, Note_on_c, 0, 64, 0
1, 124080, Note_on_c, 0, 59, 80
1, 124193, Note_on_c, 0, 59, 0
1, 124200, Note_on_c, 0, 59, 80
1, 124313, Note_on_c, 0, 59, 0
1, 124320, Note_on_c, 0, 59, 80
1, 124433, Note_on_c, 0, 59, 0
1, 124440, Note_on_c, 0, 62, 80
1, 124781, Note_on_c, 0, 62, 0
1, 124800, Note_on_c, 0, 64, 80
1, 125027, Note_on_c, 0, 64, 0
1, 125040, Note_on_c, 0, 64, 80
1, 125267, Note_on_c, 0, 64, 0
1, 126000, Note_on_c, 0, 64, 80
1, 126113, Note_on_c, 0, 64, 0
1, 126120, Note_on_c, 0, 64, 80
1, 126233, Note_on_c, 0, 64, 0
1, 126240, Note_on_c, 0, 64, 80
1, 126353, Note_on_c, 0, 64, 0
1, 126360, Note_on_c, 0, 64, 80
1, 126587, Note_on_c, 0, 64, 0
1, 126600, Note_on_c, 0, 69, 80
1, 127055, Note_on_c, 0, 69, 0
1, 127080, Note_on_c, 0, 69, 80
1, 127307, Note_on_c, 0, 69, 0
1, 127320, Note_on_c, 0, 69, 80
1, 127433, Note_on_c, 0, 69, 0
1, 127440, Note_on_c, 0, 71, 80
1, 127667, Note_on_c, 0, 71, 0
1, 127680, Tempo, 3000000
1, 128160, Tempo, 666667
1, 128160, Note_on_c, 0, 64, 80
1, 128615, Note_on_c, 0, 64, 0
1, 128640, Note_on_c, 0, 69, 80
1, 128867, Note_on_c, 0, 69, 0
1, 128880, Note_on_c, 0, 69, 80
1, 128993, Note_on_c, 0, 69, 0
1, 129000, Note_on_c, 0, 69, 80
1, 129227, Note_on_c, 0, 69, 0
1, 129240, Note_on_c, 0, 69, 80
1, 129353, Note_on_c, 0, 69, 0
1, 129360, Note_on_c, 0, 69, 80
1, 130043, Note_on_c, 0, 69, 0
1, 130080, Note_on_c, 0, 71, 80
1, 130307, Note_on_c, 0, 71, 0
1, 130320, Note_on_c, 0, 72, 80
1, 130547, Note_on_c, 0, 72, 0
1, 130560, Note_on_c, 0, 71, 80
1, 130673, Note_on_c, 0, 71, 0
1, 130680, Note_on_c, 0, 69, 80
1, 130907, Note_on_c, 0, 69, 0
1, 130920, Note_on_c, 0, 69, 80
1, 131717, Note_on_c, 0, 69, 0
1, 131760, Note_on_c, 0, 69, 80
1, 131987, Note_on_c, 0, 69, 0
1, 132000, Note_on_c, 0, 69, 80
1, 132113, Note_on_c, 0, 69, 0
1, 132120, Note_on_c, 0, 69, 80
1, 132299, Note_on_c, 0, 69, 0
1, 132480, Note_on_c, 0, 69, 80
1, 132707, Note_on_c, 0, 69, 0
1, 132720, Note_on_c, 0, 67, 80
1, 132947, Note_on_c, 0, 67, 0
1, 132960, Note_on_c, 0, 67, 80
1, 133073, Note_on_c, 0, 67, 0
1, 133080, Note_on_c, 0, 67, 80
1, 133307, Note_on_c, 0, 67, 0
1, 133320, Note_on_c, 0, 69, 80
1, 133661, Note_on_c, 0, 69, 0
1, 133680, Note_on_c, 0, 67, 80
1, 133793, Note_on_c, 0, 67, 0
1, 133800, Note_on_c, 0, 67, 80
1, 134027, Note_on_c, 0, 67, 0
1, 134040, Note_on_c, 0, 65, 80
1, 134267, Note_on_c, 0, 65, 0
1, 134280, Note_on_c, 0, 65, 80
1, 134507, Note_on_c, 0, 65, 0
1, 134520, Note_on_c, 0, 64, 80
1, 134747, Note_on_c, 0, 64, 0
1, 134760, Note_on_c, 0, 64, 80
1, 135443, Note_on_c, 0, 64, 0
1, 135480, Note_on_c, 0, 64, 80
1, 135707, Note_on_c, 0, 64, 0
1, 135720, Note_on_c, 0, 64, 80
1, 135833, Note_on_c, 0, 64, 0
1, 135840, Note_on_c, 0, 64, 80
1, 136295, Note_on_c, 0, 64, 0
1, 136320, Note_on_c, 0, 64, 80
1, 136547, Note_on_c, 0, 64, 0
1, 136560, Note_on_c, 0, 62, 80
1, 136787, Note_on_c, 0, 62, 0
1, 136800, Note_on_c, 0, 62, 80
1, 136913, Note_on_c, 0, 62, 0
1, 136920, Note_on_c, 0, 62, 80
1, 137147, Note_on_c, 0, 62, 0
1, 137160, Note_on_c, 0, 64, 80
1, 137615, Note_on_c, 0, 64, 0
1, 137760, Note_on_c, 0, 62, 80
1, 137873, Note_on_c, 0, 62, 0
1, 137880, Note_on_c, 0, 64, 80
1, 138221, Note_on_c, 0, 64, 0
1, 138240, Note_on_c, 0, 64, 80
1, 138467, Note_on_c, 0, 64, 0
1, 138480, Note_on_c, 0, 62, 80
1, 138707, Note_on_c, 0, 62, 0
1, 138720, Note_on_c, 0, 62, 80
1, 138833, Note_on_c, 0, 62, 0
1, 138840, Note_on_c, 0, 60, 80
1, 139067, Note_on_c, 0, 60, 0
1, 139080, Note_on_c, 0, 59, 80
1, 139421, Note_on_c, 0, 59, 0
1, 139440, Note_on_c, 0, 59, 80
1, 139553, Note_on_c, 0, 59, 0
1, 139560, Note_on_c, 0, 60, 80
1, 139787, Note_on_c, 0, 60, 0
1, 139800, Note_on_c, 0, 59, 80
1, 139979, Note_on_c, 0, 59, 0
1, 140160, Note_on_c, 0, 64, 80
1, 141299, Note_on_c, 0, 64, 0
1, 141360, Note_on_c, 0, 60, 80
1, 141587, Note_on_c, 0, 60, 0
1, 141600, Note_on_c, 0, 60, 80
1, 141827, Note_on_c, 0, 60, 0
1, 141840, Note_on_c, 0, 60, 80
1, 142067, Note_on_c, 0, 60, 0
1, 142080, Note_on_c, 0, 65, 80
1, 142307, Note_on_c, 0, 65, 0
1, 142320, Note_on_c, 0, 65, 80
1, 142547, Note_on_c, 0, 65, 0
1, 142560, Note_on_c, 0, 65, 80
1, 142673, Note_on_c, 0, 65, 0
1, 142680, Note_on_c, 0, 64, 80
1, 142907, Note_on_c, 0, 64, 0
1, 142920, Note_on_c, 0, 62, 80
1, 143261, Note_on_c, 0, 62, 0
1, 144000, Note_on_c, 0, 52, 80
1, 144000, Note_on_c, 0, 57, 80
1, 144000, Note_on_c, 0, 60, 80
1, 144455, Note_on_c, 0, 52, 0
1, 144455, Note_on_c, 0, 57, 0
1, 144455, Note_on_c, 0, 60, 0
1, 144456, End_track
2, 0, Start_track
2, 0, Title_t, "Piano, Minstrel\000"
2, 0, Key_signature, 0, "major"
2, 0, Control_c, 4, 121, 0
2, 0, Program_c, 4, 0
2, 0, Control_c, 4, 7, 100
2, 0, Control_c, 4, 10, 64
2, 0, Control_c, 4, 91, 0
2, 0, Control_c, 4, 93, 0
2, 0, MIDI_port, 0
2, 5760, Note_on_c, 4, 57, 80
2, 5760, Note_on_c, 4, 60, 80
2, 5760, Note_on_c, 4, 64, 80
2, 6215, Note_on_c, 4, 57, 0
2, 6215, Note_on_c, 4, 60, 0
2, 6215, Note_on_c, 4, 64, 0
2, 7680, Note_on_c, 4, 57, 80
2, 7680, Note_on_c, 4, 60, 80
2, 7680, Note_on_c, 4, 65, 80
2, 9503, Note_on_c, 4, 57, 0
2, 9503, Note_on_c, 4, 60, 0
2, 9503, Note_on_c, 4, 65, 0
2, 9600, Note_on_c, 4, 55, 80
2, 9600, Note_on_c, 4, 59, 80
2, 9600, Note_on_c, 4, 62, 80
2, 11423, Note_on_c, 4, 55, 0
2, 11423, Note_on_c, 4, 59, 0
2, 11423, Note_on_c, 4, 62, 0
2, 11520, Note_on_c, 4, 55, 80
2, 11520, Note_on_c, 4, 59, 80
2, 11520, Note_on_c, 4, 64, 80
2, 13343, Note_on_c, 4, 55, 0
2, 13343, Note_on_c, 4, 59, 0
2, 13343, Note_on_c, 4, 64, 0
2, 13440, Note_on_c, 4, 57, 80
2, 13440, Note_on_c, 4, 60, 80
2, 13440, Note_on_c, 4, 64, 80
2, 15263, Note_on_c, 4, 57, 0
2, 15263, Note_on_c, 4, 60, 0
2, 15263, Note_on_c, 4, 64, 0
2, 15360, Note_on_c, 4, 53, 80
2, 15360, Note_on_c, 4, 57, 80
2, 15360, Note_on_c, 4, 59, 80
2, 15360, Note_on_c, 4, 62, 80
2, 17183, Note_on_c, 4, 53, 0
2, 17183, Note_on_c, 4, 57, 0
2, 17183, Note_on_c, 4, 59, 0
2, 17183, Note_on_c, 4, 62, 0
2, 17280, Note_on_c, 4, 52, 80
2, 17280, Note_on_c, 4, 57, 80
2, 17280, Note_on_c, 4, 59, 80
2, 19103, Note_on_c, 4, 52, 0
2, 19103, Note_on_c, 4, 57, 0
2, 19103, Note_on_c, 4, 59, 0
2, 19200, Note_on_c, 4, 52, 80
2, 19200, Note_on_c, 4, 59, 80
2, 21023, Note_on_c, 4, 52, 0
2, 21023, Note_on_c, 4, 59, 0
2, 21120, Note_on_c, 4, 57, 80
2, 21120, Note_on_c, 4, 60, 80
2, 21120, Note_on_c, 4, 64, 80
2, 22943, Note_on_c, 4, 57, 0
2, 22943, Note_on_c, 4, 60, 0
2, 22943, Note_on_c, 4, 64, 0
2, 23040, Note_on_c, 4, 57, 80
2, 23040, Note_on_c, 4, 60, 80
2, 23040, Note_on_c, 4, 65, 80
2, 24863, Note_on_c, 4, 57, 0
2, 24863, Note_on_c, 4, 60, 0
2, 24863, Note_on_c, 4, 65, 0
2, 24960, Note_on_c, 4, 55, 80
2, 24960, Note_on_c, 4, 59, 80
2, 24960, Note_on_c, 4, 62, 80
2, 26783, Note_on_c, 4, 55, 0
2, 26783, Note_on_c, 4, 59, 0
2, 26783, Note_on_c, 4, 62, 0
2, 26880, Note_on_c, 4, 55, 80
2, 26880, Note_on_c, 4, 59, 80
2, 26880, Note_on_c, 4, 64, 80
2, 28703, Note_on_c, 4, 55, 0
2, 28703, Note_on_c, 4, 59, 0
2, 28703, Note_on_c, 4, 64, 0
2, 28800, Note_on_c, 4, 57, 80
2, 28800, Note_on_c, 4, 60, 80
2, 28800, Note_on_c, 4, 64, 80
2, 30623, Note_on_c, 4, 57, 0
2, 30623, Note_on_c, 4, 60, 0
2, 30623, Note_on_c, 4, 64, 0
2, 30720, Note_on_c, 4, 53, 80
2, 30720, Note_on_c, 4, 57, 80
2, 30720, Note_on_c, 4, 59, 80
2, 32543, Note_on_c, 4, 53, 0
2, 32543, Note_on_c, 4, 57, 0
2, 32543, Note_on_c, 4, 59, 0
2, 32640, Note_on_c, 4, 57, 80
2, 32640, Note_on_c, 4, 59, 80
2, 32640, Note_on_c, 4, 64, 80
2, 34463, Note_on_c, 4, 57, 0
2, 34463, Note_on_c, 4, 59, 0
2, 34463, Note_on_c, 4, 64, 0
2, 34560, Note_on_c, 4, 52, 80
2, 34560, Note_on_c, 4, 59, 80
2, 36383, Note_on_c, 4, 52, 0
2, 36383, Note_on_c, 4, 59, 0
2, 36480, Note_on_c, 4, 57, 80
2, 36480, Note_on_c, 4, 60, 80
2, 36480, Note_on_c, 4, 64, 80
2, 38303, Note_on_c, 4, 57, 0
2, 38303, Note_on_c, 4, 60, 0
2, 38303, Note_on_c, 4, 64, 0
2, 38400, Note_on_c, 4, 57, 80
2, 38400, Note_on_c, 4, 60, 80
2, 38400, Note_on_c, 4, 65, 80
2, 40223, Note_on_c, 4, 57, 0
2, 40223, Note_on_c, 4, 60, 0
2, 40223, Note_on_c, 4, 65, 0
2, 40320, Note_on_c, 4, 55, 80
2, 40320, Note_on_c, 4, 59, 80
2, 40320, Note_on_c, 4, 62, 80
2, 42143, Note_on_c, 4, 55, 0
2, 42143, Note_on_c, 4, 59, 0
2, 42143, Note_on_c, 4, 62, 0
2, 42240, Note_on_c, 4, 55, 80
2, 42240, Note_on_c, 4, 59, 80
2, 42240, Note_on_c, 4, 64, 80
2, 44063, Note_on_c, 4, 55, 0
2, 44063, Note_on_c, 4, 59, 0
2, 44063, Note_on_c, 4, 64, 0
2, 44160, Note_on_c, 4, 57, 80
2, 44160, Note_on_c, 4, 60, 80
2, 44160, Note_on_c, 4, 64, 80
2, 45983, Note_on_c, 4, 57, 0
2, 45983, Note_on_c, 4, 60, 0
2, 45983, Note_on_c, 4, 64, 0
2, 46080, Note_on_c, 4, 53, 80
2, 46080, Note_on_c, 4, 57, 80
2, 46080, Note_on_c, 4, 59, 80
2, 47903, Note_on_c, 4, 53, 0
2, 47903, Note_on_c, 4, 57, 0
2, 47903, Note_on_c, 4, 59, 0
2, 48000, Note_on_c, 4, 57, 80
2, 48000, Note_on_c, 4, 59, 80
2, 48000, Note_on_c, 4, 64, 80
2, 49823, Note_on_c, 4, 57, 0
2, 49823, Note_on_c, 4, 59, 0
2, 49823, Note_on_c, 4, 64, 0
2, 49920, Note_on_c, 4, 52, 80
2, 49920, Note_on_c, 4, 59, 80
2, 51743, Note_on_c, 4, 52, 0
2, 51743, Note_on_c, 4, 59, 0
2, 51840, Note_on_c, 4, 57, 80
2, 51840, Note_on_c, 4, 60, 80
2, 51840, Note_on_c, 4, 64, 80
2, 53663, Note_on_c, 4, 57, 0
2, 53663, Note_on_c, 4, 60, 0
2, 53663, Note_on_c, 4, 64, 0
2, 53760, Note_on_c, 4, 57, 80
2, 53760, Note_on_c, 4, 60, 80
2, 53760, Note_on_c, 4, 65, 80
2, 55583, Note_on_c, 4, 57, 0
2, 55583, Note_on_c, 4, 60, 0
2, 55583, Note_on_c, 4, 65, 0
2, 55680, Note_on_c, 4, 55, 80
2, 55680, Note_on_c, 4, 59, 80
2, 55680, Note_on_c, 4, 62, 80
2, 57503, Note_on_c, 4, 55, 0
2, 57503, Note_on_c, 4, 59, 0
2, 57503, Note_on_c, 4, 62, 0
2, 57600, Note_on_c, 4, 55, 80
2, 57600, Note_on_c, 4, 59, 80
2, 57600, Note_on_c, 4, 64, 80
2, 59423, Note_on_c, 4, 55, 0
2, 59423, Note_on_c, 4, 59, 0
2, 59423, Note_on_c, 4, 64, 0
2, 59520, Note_on_c, 4, 57, 80
2, 59520, Note_on_c, 4, 60, 80
2, 61343, Note_on_c, 4, 57, 0
2, 61343, Note_on_c, 4, 60, 0
2, 61440, Note_on_c, 4, 53, 80
2, 61440, Note_on_c, 4, 57, 80
2, 61440, Note_on_c, 4, 59, 80
2, 63263, Note_on_c, 4, 53, 0
2, 63263, Note_on_c, 4, 57, 0
2, 63263, Note_on_c, 4, 59, 0
2, 63360, Note_on_c, 4, 57, 80
2, 63360, Note_on_c, 4, 59, 80
2, 63360, Note_on_c, 4, 64, 80
2, 65183, Note_on_c, 4, 57, 0
2, 65183, Note_on_c, 4, 59, 0
2, 65183, Note_on_c, 4, 64, 0
2, 65280, Note_on_c, 4, 52, 80
2, 65280, Note_on_c, 4, 59, 80
2, 67103, Note_on_c, 4, 52, 0
2, 67103, Note_on_c, 4, 59, 0
2, 67200, Note_on_c, 4, 57, 80
2, 67200, Note_on_c, 4, 60, 80
2, 67200, Note_on_c, 4, 64, 80
2, 69023, Note_on_c, 4, 57, 0
2, 69023, Note_on_c, 4, 60, 0
2, 69023, Note_on_c, 4, 64, 0
2, 69120, Note_on_c, 4, 57, 80
2, 69120, Note_on_c, 4, 60, 80
2, 69120, Note_on_c, 4, 65, 80
2, 70943, Note_on_c, 4, 57, 0
2, 70943, Note_on_c, 4, 60, 0
2, 70943, Note_on_c, 4, 65, 0
2, 71040, Note_on_c, 4, 55, 80
2, 71040, Note_on_c, 4, 59, 80
2, 71040, Note_on_c, 4, 62, 80
2, 72863, Note_on_c, 4, 55, 0
2, 72863, Note_on_c, 4, 59, 0
2, 72863, Note_on_c, 4, 62, 0
2, 72960, Note_on_c, 4, 55, 80
2, 72960, Note_on_c, 4, 59, 80
2, 72960, Note_on_c, 4, 64, 80
2, 74783, Note_on_c, 4, 55, 0
2, 74783, Note_on_c, 4, 59, 0
2, 74783, Note_on_c, 4, 64, 0
2, 74880, Note_on_c, 4, 57, 80
2, 74880, Note_on_c, 4, 60, 80
2, 74880, Note_on_c, 4, 64, 80
2, 76703, Note_on_c, 4, 57, 0
2, 76703, Note_on_c, 4, 60, 0
2, 76703, Note_on_c, 4, 64, 0
2, 76800, Note_on_c, 4, 53, 80
2, 76800, Note_on_c, 4, 57, 80
2, 76800, Note_on_c, 4, 59, 80
2, 76800, Note_on_c, 4, 62, 80
2, 78623, Note_on_c, 4, 53, 0
2, 78623, Note_on_c, 4, 57, 0
2, 78623, Note_on_c, 4, 59, 0
2, 78623, Note_on_c, 4, 62, 0
2, 78720, Note_on_c, 4, 57, 80
2, 78720, Note_on_c, 4, 59, 80
2, 78720, Note_on_c, 4, 64, 80
2, 80543, Note_on_c, 4, 57, 0
2, 80543, Note_on_c, 4, 59, 0
2, 80543, Note_on_c, 4, 64, 0
2, 80640, Note_on_c, 4, 52, 80
2, 80640, Note_on_c, 4, 59, 80
2, 82463, Note_on_c, 4, 52, 0
2, 82463, Note_on_c, 4, 59, 0
2, 82560, Note_on_c, 4, 57, 80
2, 82560, Note_on_c, 4, 60, 80
2, 82560, Note_on_c, 4, 64, 80
2, 84383, Note_on_c, 4, 57, 0
2, 84383, Note_on_c, 4, 60, 0
2, 84383, Note_on_c, 4, 64, 0
2, 84480, Note_on_c, 4, 57, 80
2, 84480, Note_on_c, 4, 60, 80
2, 84480, Note_on_c, 4, 65, 80
2, 86303, Note_on_c, 4, 57, 0
2, 86303, Note_on_c, 4, 60, 0
2, 86303, Note_on_c, 4, 65, 0
2, 86400, Note_on_c, 4, 55, 80
2, 86400, Note_on_c, 4, 59, 80
2, 86400, Note_on_c, 4, 62, 80
2, 88223, Note_on_c, 4, 55, 0
2, 88223, Note_on_c, 4, 59, 0
2, 88223, Note_on_c, 4, 62, 0
2, 88320, Note_on_c, 4, 55, 80
2, 88320, Note_on_c, 4, 59, 80
2, 88320, Note_on_c, 4, 64, 80
2, 90143, Note_on_c, 4, 55, 0
2, 90143, Note_on_c, 4, 59, 0
2, 90143, Note_on_c, 4, 64, 0
2, 90240, Note_on_c, 4, 57, 80
2, 90240, Note_on_c, 4, 60, 80
2, 90240, Note_on_c, 4, 64, 80
2, 92063, Note_on_c, 4, 57, 0
2, 92063, Note_on_c, 4, 60, 0
2, 92063, Note_on_c, 4, 64, 0
2, 92160, Note_on_c, 4, 53, 80
2, 92160, Note_on_c, 4, 57, 80
2, 92160, Note_on_c, 4, 59, 80
2, 93983, Note_on_c, 4, 53, 0
2, 93983, Note_on_c, 4, 57, 0
2, 93983, Note_on_c, 4, 59, 0
2, 94080, Note_on_c, 4, 52, 80
2, 94080, Note_on_c, 4, 57, 80
2, 94080, Note_on_c, 4, 59, 80
2, 95903, Note_on_c, 4, 52, 0
2, 95903, Note_on_c, 4, 57, 0
2, 95903, Note_on_c, 4, 59, 0
2, 96000, Note_on_c, 4, 59, 80
2, 96000, Note_on_c, 4, 64, 80
2, 97823, Note_on_c, 4, 59, 0
2, 97823, Note_on_c, 4, 64, 0
2, 98160, Note_on_c, 4, 76, 80
2, 98160, Note_on_c, 4, 81, 80
2, 98279, Note_on_c, 4, 76, 0
2, 98279, Note_on_c, 4, 81, 0
2, 98520, Note_on_c, 4, 76, 80
2, 98520, Note_on_c, 4, 81, 80
2, 98699, Note_on_c, 4, 76, 0
2, 98699, Note_on_c, 4, 81, 0
2, 98880, Note_on_c, 4, 76, 80
2, 98880, Note_on_c, 4, 81, 80
2, 99119, Note_on_c, 4, 76, 0
2, 99119, Note_on_c, 4, 81, 0
2, 100080, Note_on_c, 4, 74, 80
2, 100080, Note_on_c, 4, 81, 80
2, 100199, Note_on_c, 4, 74, 0
2, 100199, Note_on_c, 4, 81, 0
2, 100440, Note_on_c, 4, 74, 80
2, 100440, Note_on_c, 4, 81, 80
2, 100619, Note_on_c, 4, 74, 0
2, 100619, Note_on_c, 4, 81, 0
2, 100800, Note_on_c, 4, 74, 80
2, 100800, Note_on_c, 4, 81, 80
2, 101039, Note_on_c, 4, 74, 0
2, 101039, Note_on_c, 4, 81, 0
2, 102000, Note_on_c, 4, 71, 80
2, 102000, Note_on_c, 4, 79, 80
2, 102119, Note_on_c, 4, 71, 0
2, 102119, Note_on_c, 4, 79, 0
2, 102360, Note_on_c, 4, 71, 80
2, 102360, Note_on_c, 4, 79, 80
2, 102539, Note_on_c, 4, 71, 0
2, 102539, Note_on_c, 4, 79, 0
2, 102720, Note_on_c, 4, 71, 80
2, 102720, Note_on_c, 4, 79, 80
2, 102959, Note_on_c, 4, 71, 0
2, 102959, Note_on_c, 4, 79, 0
2, 103920, Note_on_c, 4, 72, 80
2, 103920, Note_on_c, 4, 79, 80
2, 104039, Note_on_c, 4, 72, 0
2, 104039, Note_on_c, 4, 79, 0
2, 104280, Note_on_c, 4, 72, 80
2, 104280, Note_on_c, 4, 79, 80
2, 104459, Note_on_c, 4, 72, 0
2, 104459, Note_on_c, 4, 79, 0
2, 104640, Note_on_c, 4, 72, 80
2, 104640, Note_on_c, 4, 79, 80
2, 104879, Note_on_c, 4, 72, 0
2, 104879, Note_on_c, 4, 79, 0
2, 105840, Note_on_c, 4, 69, 80
2, 105840, Note_on_c, 4, 77, 80
2, 105959, Note_on_c, 4, 69, 0
2, 105959, Note_on_c, 4, 77, 0
2, 106200, Note_on_c, 4, 69, 80
2, 106200, Note_on_c, 4, 77, 80
2, 106379, Note_on_c, 4, 69, 0
2, 106379, Note_on_c, 4, 77, 0
2, 106560, Note_on_c, 4, 69, 80
2, 106560, Note_on_c, 4, 77, 80
2, 106799, Note_on_c, 4, 69, 0
2, 106799, Note_on_c, 4, 77, 0
2, 107760, Note_on_c, 4, 71, 80
2, 107760, Note_on_c, 4, 76, 80
2, 107879, Note_on_c, 4, 71, 0
2, 107879, Note_on_c, 4, 76, 0
2, 108120, Note_on_c, 4, 71, 80
2, 108120, Note_on_c, 4, 76, 80
2, 108299, Note_on_c, 4, 71, 0
2, 108299, Note_on_c, 4, 76, 0
2, 108480, Note_on_c, 4, 71, 80
2, 108480, Note_on_c, 4, 76, 80
2, 108719, Note_on_c, 4, 71, 0
2, 108719, Note_on_c, 4, 76, 0
2, 109680, Note_on_c, 4, 69, 80
2, 109680, Note_on_c, 4, 76, 80
2, 109799, Note_on_c, 4, 69, 0
2, 109799, Note_on_c, 4, 76, 0
2, 110040, Note_on_c, 4, 69, 80
2, 110040, Note_on_c, 4, 76, 80
2, 110219, Note_on_c, 4, 69, 0
2, 110219, Note_on_c, 4, 76, 0
2, 110400, Note_on_c, 4, 69, 80
2, 110400, Note_on_c, 4, 76, 80
2, 110639, Note_on_c, 4, 69, 0
2, 110639, Note_on_c, 4, 76, 0
2, 111600, Note_on_c, 4, 71, 80
2, 111600, Note_on_c, 4, 76, 80
2, 111719, Note_on_c, 4, 71, 0
2, 111719, Note_on_c, 4, 76, 0
2, 111960, Note_on_c, 4, 71, 80
2, 111960, Note_on_c, 4, 76, 80
2, 112139, Note_on_c, 4, 71, 0
2, 112139, Note_on_c, 4, 76, 0
2, 112320, Note_on_c, 4, 71, 80
2, 112320, Note_on_c, 4, 76, 80
2, 112559, Note_on_c, 4, 71, 0
2, 112559, Note_on_c, 4, 76, 0
2, 113520, Note_on_c, 4, 76, 80
2, 113520, Note_on_c, 4, 81, 80
2, 113639, Note_on_c, 4, 76, 0
2, 113639, Note_on_c, 4, 81, 0
2, 113880, Note_on_c, 4, 76, 80
2, 113880, Note_on_c, 4, 81, 80
2, 114059, Note_on_c, 4, 76, 0
2, 114059, Note_on_c, 4, 81, 0
2, 114240, Note_on_c, 4, 76, 80
2, 114240, Note_on_c, 4, 81, 80
2, 114479, Note_on_c, 4, 76, 0
2, 114479, Note_on_c, 4, 81, 0
2, 115440, Note_on_c, 4, 74, 80
2, 115440, Note_on_c, 4, 81, 80
2, 115559, Note_on_c, 4, 74, 0
2, 115559, Note_on_c, 4, 81, 0
2, 115800, Note_on_c, 4, 74, 80
2, 115800, Note_on_c, 4, 81, 80
2, 115979, Note_on_c, 4, 74, 0
2, 115979, Note_on_c, 4, 81, 0
2, 116160, Note_on_c, 4, 74, 80
2, 116160, Note_on_c, 4, 81, 80
2, 116399, Note_on_c, 4, 74, 0
2, 116399, Note_on_c, 4, 81, 0
2, 117360, Note_on_c, 4, 71, 80
2, 117360, Note_on_c, 4, 79, 80
2, 117479, Note_on_c, 4, 71, 0
2, 117479, Note_on_c, 4, 79, 0
2, 117720, Note_on_c, 4, 71, 80
2, 117720, Note_on_c, 4, 79, 80
2, 117899, Note_on_c, 4, 71, 0
2, 117899, Note_on_c, 4, 79, 0
2, 118080, Note_on_c, 4, 71, 80
2, 118080, Note_on_c, 4, 79, 80
2, 118319, Note_on_c, 4, 71, 0
2, 118319, Note_on_c, 4, 79, 0
2, 119280, Note_on_c, 4, 72, 80
2, 119280, Note_on_c, 4, 79, 80
2, 119399, Note_on_c, 4, 72, 0
2, 119399, Note_on_c, 4, 79, 0
2, 119640, Note_on_c, 4, 72, 80
2, 119640, Note_on_c, 4, 79, 80
2, 119819, Note_on_c, 4, 72, 0
2, 119819, Note_on_c, 4, 79, 0
2, 120000, Note_on_c, 4, 72, 80
2, 120000, Note_on_c, 4, 79, 80
2, 120239, Note_on_c, 4, 72, 0
2, 120239, Note_on_c, 4, 79, 0
2, 121200, Note_on_c, 4, 69, 80
2, 121200, Note_on_c, 4, 77, 80
2, 121319, Note_on_c, 4, 69, 0
2, 121319, Note_on_c, 4, 77, 0
2, 121560, Note_on_c, 4, 69, 80
2, 121560, Note_on_c, 4, 77, 80
2, 121739, Note_on_c, 4, 69, 0
2, 121739, Note_on_c, 4, 77, 0
2, 121920, Note_on_c, 4, 69, 80
2, 121920, Note_on_c, 4, 77, 80
2, 122159, Note_on_c, 4, 69, 0
2, 122159, Note_on_c, 4, 77, 0
2, 123120, Note_on_c, 4, 71, 80
2, 123120, Note_on_c, 4, 76, 80
2, 123239, Note_on_c, 4, 71, 0
2, 123239, Note_on_c, 4, 76, 0
2, 123480, Note_on_c, 4, 71, 80
2, 123480, Note_on_c, 4, 76, 80
2, 123659, Note_on_c, 4, 71, 0
2, 123659, Note_on_c, 4, 76, 0
2, 123840, Note_on_c, 4, 71, 80
2, 123840, Note_on_c, 4, 76, 80
2, 124079, Note_on_c, 4, 71, 0
2, 124079, Note_on_c, 4, 76, 0
2, 125040, Note_on_c, 4, 69, 80
2, 125040, Note_on_c, 4, 76, 80
2, 125159, Note_on_c, 4, 69, 0
2, 125159, Note_on_c, 4, 76, 0
2, 125400, Note_on_c, 4, 69, 80
2, 125400, Note_on_c, 4, 76, 80
2, 125579, Note_on_c, 4, 69, 0
2, 125579, Note_on_c, 4, 76, 0
2, 125760, Note_on_c, 4, 69, 80
2, 125760, Note_on_c, 4, 76, 80
2, 125999, Note_on_c, 4, 69, 0
2, 125999, Note_on_c, 4, 76, 0
2, 126960, Note_on_c, 4, 71, 80
2, 126960, Note_on_c, 4, 76, 80
2, 127079, Note_on_c, 4, 71, 0
2, 127079, Note_on_c, 4, 76, 0
2, 127320, Note_on_c, 4, 71, 80
2, 127320, Note_on_c, 4, 76, 80
2, 127499, Note_on_c, 4, 71, 0
2, 127499, Note_on_c, 4, 76, 0
2, 127680, Note_on_c, 4, 71, 80
2, 127680, Note_on_c, 4, 76, 80
2, 127919, Note_on_c, 4, 71, 0
2, 127919, Note_on_c, 4, 76, 0
2, 128520, Note_on_c, 4, 57, 80
2, 128557, Note_on_c, 4, 57, 0
2, 128560, Note_on_c, 4, 60, 80
2, 128597, Note_on_c, 4, 60, 0
2, 128600, Note_on_c, 4, 64, 80
2, 128637, Note_on_c, 4, 64, 0
2, 130440, Note_on_c, 4, 57, 80
2, 130477, Note_on_c, 4, 57, 0
2, 130480, Note_on_c, 4, 62, 80
2, 130517, Note_on_c, 4, 62, 0
2, 130520, Note_on_c, 4, 65, 80
2, 130557, Note_on_c, 4, 65, 0
2, 132360, Note_on_c, 4, 55, 80
2, 132397, Note_on_c, 4, 55, 0
2, 132400, Note_on_c, 4, 59, 80
2, 132437, Note_on_c, 4, 59, 0
2, 132440, Note_on_c, 4, 62, 80
2, 132477, Note_on_c, 4, 62, 0
2, 134340, Note_on_c, 4, 52, 80
2, 134367, Note_on_c, 4, 52, 0
2, 134370, Note_on_c, 4, 55, 80
2, 134397, Note_on_c, 4, 55, 0
2, 134400, Note_on_c, 4, 59, 80
2, 134639, Note_on_c, 4, 59, 0
2, 136200, Note_on_c, 4, 53, 80
2, 136237, Note_on_c, 4, 53, 0
2, 136240, Note_on_c, 4, 57, 80
2, 136277, Note_on_c, 4, 57, 0
2, 136280, Note_on_c, 4, 60, 80
2, 136317, Note_on_c, 4, 60, 0
2, 138240, Note_on_c, 4, 53, 80
2, 138240, Note_on_c, 4, 57, 80
2, 140063, Note_on_c, 4, 53, 0
2, 140063, Note_on_c, 4, 57, 0
2, 140160, Note_on_c, 4, 57, 80
2, 140160, Note_on_c, 4, 59, 80
2, 141983, Note_on_c, 4, 57, 0
2, 141983, Note_on_c, 4, 59, 0
2, 142080, Note_on_c, 4, 52, 80
2, 142080, Note_on_c, 4, 59, 80
2, 143903, Note_on_c, 4, 52, 0
2, 143903, Note_on_c, 4, 59, 0
2, 143904, End_track
3, 0, Start_track
3, 0, Title_t, "6-str. Electric Bass, Electric Bass, El. B. (TAB)\000"
3, 0, Key_signature, 0, "major"
3, 0, Control_c, 2, 121, 0
3, 0, Program_c, 2, 33
3, 0, Control_c, 2, 7, 100
3, 0, Control_c, 2, 10, 64
3, 0, Control_c, 2, 91, 0
3, 0, Control_c, 2, 93, 0
3, 0, MIDI_port, 0
3, 0, Control_c, 5, 121, 0
3, 0, Program_c, 5, 36
3, 0, Control_c, 5, 7, 100
3, 0, Control_c, 5, 10, 64
3, 0, Control_c, 5, 91, 0
3, 0, Control_c, 5, 93, 0
3, 0, MIDI_port, 0
3, 0, Control_c, 6, 121, 0
3, 0, Program_c, 6, 37
3, 0, Control_c, 6, 7, 100
3, 0, Control_c, 6, 10, 64
3, 0, Control_c, 6, 91, 0
3, 0, Control_c, 6, 93, 0
3, 0, MIDI_port, 0
3, 5760, Note_on_c, 2, 57, 80
3, 7679, Note_on_c, 2, 57, 0
3, 7680, Note_on_c, 2, 62, 80
3, 9599, Note_on_c, 2, 62, 0
3, 9600, Note_on_c, 2, 55, 80
3, 11519, Note_on_c, 2, 55, 0
3, 11520, Note_on_c, 2, 60, 80
3, 13439, Note_on_c, 2, 60, 0
3, 13440, Note_on_c, 2, 53, 80
3, 15359, Note_on_c, 2, 53, 0
3, 15360, Note_on_c, 2, 59, 80
3, 17279, Note_on_c, 2, 59, 0
3, 17280, Note_on_c, 2, 52, 80
3, 18959, Note_on_c, 2, 52, 0
3, 18960, Note_on_c, 2, 59, 80
3, 19199, Note_on_c, 2, 59, 0
3, 19200, Note_on_c, 2, 64, 80
3, 20879, Note_on_c, 2, 64, 0
3, 20880, Note_on_c, 2, 59, 80
3, 21119, Note_on_c, 2, 59, 0
3, 21120, Note_on_c, 2, 57, 80
3, 21359, Note_on_c, 2, 57, 0
3, 21360, Note_on_c, 2, 57, 80
3, 21599, Note_on_c, 2, 57, 0
3, 21720, Note_on_c, 2, 57, 80
3, 22079, Note_on_c, 2, 57, 0
3, 22080, Note_on_c, 2, 57, 80
3, 22559, Note_on_c, 2, 57, 0
3, 22560, Note_on_c, 2, 57, 80
3, 22799, Note_on_c, 2, 57, 0
3, 22800, Note_on_c, 2, 60, 80
3, 23039, Note_on_c, 2, 60, 0
3, 23040, Note_on_c, 2, 62, 80
3, 23279, Note_on_c, 2, 62, 0
3, 23280, Note_on_c, 2, 62, 80
3, 23519, Note_on_c, 2, 62, 0
3, 23640, Note_on_c, 2, 62, 80
3, 23999, Note_on_c, 2, 62, 0
3, 24000, Note_on_c, 2, 62, 80
3, 24239, Note_on_c, 2, 62, 0
3, 24240, Note_on_c, 2, 60, 80
3, 24479, Note_on_c, 2, 60, 0
3, 24480, Note_on_c, 2, 62, 80
3, 24719, Note_on_c, 2, 62, 0
3, 24720, Note_on_c, 2, 65, 80
3, 24959, Note_on_c, 2, 65, 0
3, 24960, Note_on_c, 2, 67, 80
3, 25199, Note_on_c, 2, 67, 0
3, 25200, Note_on_c, 2, 55, 80
3, 25439, Note_on_c, 2, 55, 0
3, 25560, Note_on_c, 2, 55, 80
3, 25919, Note_on_c, 2, 55, 0
3, 25920, Note_on_c, 2, 55, 80
3, 26399, Note_on_c, 2, 55, 0
3, 26400, Note_on_c, 2, 57, 80
3, 26639, Note_on_c, 2, 57, 0
3, 26640, Note_on_c, 2, 59, 80
3, 26879, Note_on_c, 2, 59, 0
3, 26880, Note_on_c, 2, 60, 80
3, 27119, Note_on_c, 2, 60, 0
3, 27120, Note_on_c, 2, 60, 80
3, 27479, Note_on_c, 2, 60, 0
3, 27480, Note_on_c, 2, 60, 80
3, 27839, Note_on_c, 2, 60, 0
3, 27840, Note_on_c, 2, 60, 80
3, 28319, Note_on_c, 2, 60, 0
3, 28320, Note_on_c, 2, 62, 80
3, 28559, Note_on_c, 2, 62, 0
3, 28560, Note_on_c, 2, 64, 80
3, 28799, Note_on_c, 2, 64, 0
3, 28800, Note_on_c, 2, 65, 80
3, 29039, Note_on_c, 2, 65, 0
3, 29040, Note_on_c, 2, 53, 80
3, 29399, Note_on_c, 2, 53, 0
3, 29400, Note_on_c, 2, 53, 80
3, 29759, Note_on_c, 2, 53, 0
3, 29760, Note_on_c, 2, 53, 80
3, 30239, Note_on_c, 2, 53, 0
3, 30240, Note_on_c, 2, 53, 80
3, 30479, Note_on_c, 2, 53, 0
3, 30480, Note_on_c, 2, 57, 80
3, 30719, Note_on_c, 2, 57, 0
3, 30720, Note_on_c, 2, 59, 80
3, 30959, Note_on_c, 2, 59, 0
3, 30960, Note_on_c, 2, 59, 80
3, 31199, Note_on_c, 2, 59, 0
3, 31320, Note_on_c, 2, 59, 80
3, 31679, Note_on_c, 2, 59, 0
3, 31680, Note_on_c, 2, 59, 80
3, 32159, Note_on_c, 2, 59, 0
3, 32160, Note_on_c, 2, 59, 80
3, 32399, Note_on_c, 2, 59, 0
3, 32400, Note_on_c, 2, 62, 80
3, 32639, Note_on_c, 2, 62, 0
3, 32640, Note_on_c, 2, 64, 80
3, 32879, Note_on_c, 2, 64, 0
3, 32880, Note_on_c, 2, 52, 80
3, 33239, Note_on_c, 2, 52, 0
3, 33240, Note_on_c, 2, 52, 80
3, 33599, Note_on_c, 2, 52, 0
3, 33600, Note_on_c, 2, 52, 80
3, 34079, Note_on_c, 2, 52, 0
3, 34080, Note_on_c, 2, 62, 80
3, 34319, Note_on_c, 2, 62, 0
3, 34320, Note_on_c, 2, 59, 80
3, 34559, Note_on_c, 2, 59, 0
3, 34560, Note_on_c, 2, 64, 80
3, 34799, Note_on_c, 2, 64, 0
3, 34800, Note_on_c, 2, 52, 80
3, 35039, Note_on_c, 2, 52, 0
3, 35160, Note_on_c, 2, 52, 80
3, 35519, Note_on_c, 2, 52, 0
3, 35520, Note_on_c, 2, 52, 80
3, 35999, Note_on_c, 2, 52, 0
3, 36000, Note_on_c, 2, 52, 80
3, 36239, Note_on_c, 2, 52, 0
3, 36240, Note_on_c, 2, 52, 80
3, 36479, Note_on_c, 2, 52, 0
3, 36480, Note_on_c, 2, 57, 80
3, 36719, Note_on_c, 2, 57, 0
3, 36720, Note_on_c, 2, 57, 80
3, 36959, Note_on_c, 2, 57, 0
3, 37080, Note_on_c, 2, 57, 80
3, 37439, Note_on_c, 2, 57, 0
3, 37440, Note_on_c, 2, 57, 80
3, 37919, Note_on_c, 2, 57, 0
3, 37920, Note_on_c, 2, 57, 80
3, 38159, Note_on_c, 2, 57, 0
3, 38160, Note_on_c, 2, 60, 80
3, 38399, Note_on_c, 2, 60, 0
3, 38400, Note_on_c, 2, 62, 80
3, 38639, Note_on_c, 2, 62, 0
3, 38640, Note_on_c, 2, 62, 80
3, 38879, Note_on_c, 2, 62, 0
3, 39000, Note_on_c, 2, 62, 80
3, 39359, Note_on_c, 2, 62, 0
3, 39360, Note_on_c, 2, 62, 80
3, 39599, Note_on_c, 2, 62, 0
3, 39600, Note_on_c, 2, 60, 80
3, 39839, Note_on_c, 2, 60, 0
3, 39840, Note_on_c, 2, 62, 80
3, 40079, Note_on_c, 2, 62, 0
3, 40080, Note_on_c, 2, 65, 80
3, 40319, Note_on_c, 2, 65, 0
3, 40320, Note_on_c, 2, 67, 80
3, 40559, Note_on_c, 2, 67, 0
3, 40560, Note_on_c, 2, 55, 80
3, 40799, Note_on_c, 2, 55, 0
3, 40920, Note_on_c, 2, 55, 80
3, 41279, Note_on_c, 2, 55, 0
3, 41280, Note_on_c, 2, 55, 80
3, 41759, Note_on_c, 2, 55, 0
3, 41760, Note_on_c, 2, 57, 80
3, 41999, Note_on_c, 2, 57, 0
3, 42000, Note_on_c, 2, 59, 80
3, 42239, Note_on_c, 2, 59, 0
3, 42240, Note_on_c, 2, 60, 80
3, 42479, Note_on_c, 2, 60, 0
3, 42480, Note_on_c, 2, 60, 80
3, 42839, Note_on_c, 2, 60, 0
3, 42840, Note_on_c, 2, 60, 80
3, 43199, Note_on_c, 2, 60, 0
3, 43200, Note_on_c, 2, 60, 80
3, 43679, Note_on_c, 2, 60, 0
3, 43680, Note_on_c, 2, 62, 80
3, 43919, Note_on_c, 2, 62, 0
3, 43920, Note_on_c, 2, 64, 80
3, 44159, Note_on_c, 2, 64, 0
3, 44160, Note_on_c, 2, 65, 80
3, 44399, Note_on_c, 2, 65, 0
3, 44400, Note_on_c, 2, 53, 80
3, 44759, Note_on_c, 2, 53, 0
3, 44760, Note_on_c, 2, 53, 80
3, 45119, Note_on_c, 2, 53, 0
3, 45120, Note_on_c, 2, 53, 80
3, 45599, Note_on_c, 2, 53, 0
3, 45600, Note_on_c, 2, 53, 80
3, 45839, Note_on_c, 2, 53, 0
3, 45840, Note_on_c, 2, 57, 80
3, 46079, Note_on_c, 2, 57, 0
3, 46080, Note_on_c, 2, 59, 80
3, 46319, Note_on_c, 2, 59, 0
3, 46320, Note_on_c, 2, 59, 80
3, 46559, Note_on_c, 2, 59, 0
3, 46680, Note_on_c, 2, 59, 80
3, 47039, Note_on_c, 2, 59, 0
3, 47040, Note_on_c, 2, 59, 80
3, 47519, Note_on_c, 2, 59, 0
3, 47520, Note_on_c, 2, 59, 80
3, 47759, Note_on_c, 2, 59, 0
3, 47760, Note_on_c, 2, 62, 80
3, 47999, Note_on_c, 2, 62, 0
3, 48000, Note_on_c, 2, 64, 80
3, 48239, Note_on_c, 2, 64, 0
3, 48240, Note_on_c, 2, 52, 80
3, 48599, Note_on_c, 2, 52, 0
3, 48600, Note_on_c, 2, 52, 80
3, 48959, Note_on_c, 2, 52, 0
3, 48960, Note_on_c, 2, 52, 80
3, 49439, Note_on_c, 2, 52, 0
3, 49440, Note_on_c, 2, 62, 80
3, 49679, Note_on_c, 2, 62, 0
3, 49680, Note_on_c, 2, 59, 80
3, 49919, Note_on_c, 2, 59, 0
3, 49920, Note_on_c, 2, 64, 80
3, 50159, Note_on_c, 2, 64, 0
3, 50160, Note_on_c, 2, 52, 80
3, 50399, Note_on_c, 2, 52, 0
3, 50520, Note_on_c, 2, 52, 80
3, 50879, Note_on_c, 2, 52, 0
3, 50880, Note_on_c, 2, 52, 80
3, 51359, Note_on_c, 2, 52, 0
3, 51360, Note_on_c, 2, 52, 80
3, 51599, Note_on_c, 2, 52, 0
3, 51600, Note_on_c, 2, 52, 80
3, 51839, Note_on_c, 2, 52, 0
3, 51840, Note_on_c, 2, 57, 80
3, 52079, Note_on_c, 2, 57, 0
3, 52080, Note_on_c, 2, 57, 80
3, 52319, Note_on_c, 2, 57, 0
3, 52440, Note_on_c, 2, 57, 80
3, 52799, Note_on_c, 2, 57, 0
3, 52800, Note_on_c, 2, 57, 80
3, 53159, Note_on_c, 2, 57, 0
3, 53160, Note_on_c, 2, 57, 80
3, 53279, Note_on_c, 2, 57, 0
3, 53280, Note_on_c, 2, 57, 80
3, 53519, Note_on_c, 2, 57, 0
3, 53520, Note_on_c, 2, 60, 80
3, 53759, Note_on_c, 2, 60, 0
3, 53760, Note_on_c, 2, 62, 80
3, 53999, Note_on_c, 2, 62, 0
3, 54000, Note_on_c, 2, 62, 80
3, 54239, Note_on_c, 2, 62, 0
3, 54360, Note_on_c, 2, 62, 80
3, 54719, Note_on_c, 2, 62, 0
3, 54720, Note_on_c, 2, 62, 80
3, 55079, Note_on_c, 2, 62, 0
3, 55080, Note_on_c, 2, 62, 80
3, 55199, Note_on_c, 2, 62, 0
3, 55200, Note_on_c, 2, 62, 80
3, 55439, Note_on_c, 2, 62, 0
3, 55440, Note_on_c, 2, 65, 80
3, 55679, Note_on_c, 2, 65, 0
3, 55680, Note_on_c, 2, 67, 80
3, 56159, Note_on_c, 2, 67, 0
3, 56280, Note_on_c, 2, 67, 80
3, 56639, Note_on_c, 2, 67, 0
3, 56640, Note_on_c, 2, 55, 80
3, 56999, Note_on_c, 2, 55, 0
3, 57000, Note_on_c, 2, 55, 80
3, 57119, Note_on_c, 2, 55, 0
3, 57120, Note_on_c, 2, 57, 80
3, 57359, Note_on_c, 2, 57, 0
3, 57360, Note_on_c, 2, 59, 80
3, 57599, Note_on_c, 2, 59, 0
3, 57600, Note_on_c, 2, 60, 80
3, 58079, Note_on_c, 2, 60, 0
3, 58200, Note_on_c, 2, 60, 80
3, 58559, Note_on_c, 2, 60, 0
3, 58560, Note_on_c, 2, 60, 80
3, 58919, Note_on_c, 2, 60, 0
3, 58920, Note_on_c, 2, 60, 80
3, 59039, Note_on_c, 2, 60, 0
3, 59040, Note_on_c, 2, 62, 80
3, 59279, Note_on_c, 2, 62, 0
3, 59280, Note_on_c, 2, 64, 80
3, 59519, Note_on_c, 2, 64, 0
3, 59520, Note_on_c, 2, 65, 80
3, 59879, Note_on_c, 2, 65, 0
3, 59880, Note_on_c, 2, 65, 80
3, 60239, Note_on_c, 2, 65, 0
3, 60240, Note_on_c, 2, 65, 80
3, 60359, Note_on_c, 2, 65, 0
3, 60360, Note_on_c, 2, 60, 80
3, 60479, Note_on_c, 2, 60, 0
3, 60480, Note_on_c, 2, 53, 80
3, 60959, Note_on_c, 2, 53, 0
3, 60960, Note_on_c, 2, 53, 80
3, 61199, Note_on_c, 2, 53, 0
3, 61200, Note_on_c, 2, 57, 80
3, 61439, Note_on_c, 2, 57, 0
3, 61440, Note_on_c, 2, 59, 80
3, 61799, Note_on_c, 2, 59, 0
3, 61800, Note_on_c, 2, 59, 80
3, 62159, Note_on_c, 2, 59, 0
3, 62160, Note_on_c, 2, 71, 80
3, 62399, Note_on_c, 2, 71, 0
3, 62400, Note_on_c, 2, 59, 80
3, 62759, Note_on_c, 2, 59, 0
3, 62760, Note_on_c, 2, 59, 80
3, 62879, Note_on_c, 2, 59, 0
3, 62880, Note_on_c, 2, 59, 80
3, 63119, Note_on_c, 2, 59, 0
3, 63120, Note_on_c, 2, 62, 80
3, 63359, Note_on_c, 2, 62, 0
3, 63360, Note_on_c, 2, 64, 80
3, 63599, Note_on_c, 2, 64, 0
3, 63600, Note_on_c, 2, 64, 80
3, 63839, Note_on_c, 2, 64, 0
3, 63960, Note_on_c, 2, 64, 80
3, 64319, Note_on_c, 2, 64, 0
3, 64320, Note_on_c, 2, 52, 80
3, 64799, Note_on_c, 2, 52, 0
3, 64800, Note_on_c, 2, 60, 80
3, 65039, Note_on_c, 2, 60, 0
3, 65040, Note_on_c, 2, 62, 80
3, 65279, Note_on_c, 2, 62, 0
3, 65280, Note_on_c, 2, 64, 80
3, 65519, Note_on_c, 2, 64, 0
3, 65520, Note_on_c, 2, 64, 80
3, 65759, Note_on_c, 2, 64, 0
3, 65880, Note_on_c, 2, 64, 80
3, 66239, Note_on_c, 2, 64, 0
3, 66240, Note_on_c, 2, 64, 80
3, 66719, Note_on_c, 2, 64, 0
3, 66720, Note_on_c, 2, 60, 80
3, 66959, Note_on_c, 2, 60, 0
3, 66960, Note_on_c, 2, 55, 80
3, 67199, Note_on_c, 2, 55, 0
3, 67200, Note_on_c, 2, 57, 80
3, 67919, Note_on_c, 2, 57, 0
3, 67920, Note_on_c, 2, 69, 80
3, 68039, Note_on_c, 2, 69, 0
3, 68040, Note_on_c, 2, 64, 80
3, 68159, Note_on_c, 2, 64, 0
3, 68160, Note_on_c, 2, 57, 80
3, 68399, Note_on_c, 2, 57, 0
3, 68400, Note_on_c, 2, 57, 80
3, 68639, Note_on_c, 2, 57, 0
3, 68640, Note_on_c, 2, 57, 80
3, 68879, Note_on_c, 2, 57, 0
3, 68880, Note_on_c, 2, 60, 80
3, 69119, Note_on_c, 2, 60, 0
3, 69120, Note_on_c, 2, 62, 80
3, 69359, Note_on_c, 2, 62, 0
3, 69360, Note_on_c, 2, 62, 80
3, 69959, Note_on_c, 2, 62, 0
3, 69960, Note_on_c, 2, 69, 80
3, 70079, Note_on_c, 2, 69, 0
3, 70080, Note_on_c, 2, 62, 80
3, 70319, Note_on_c, 2, 62, 0
3, 70320, Note_on_c, 2, 62, 80
3, 70559, Note_on_c, 2, 62, 0
3, 70560, Note_on_c, 2, 65, 80
3, 70799, Note_on_c, 2, 65, 0
3, 70800, Note_on_c, 2, 62, 80
3, 71039, Note_on_c, 2, 62, 0
3, 71040, Note_on_c, 2, 67, 80
3, 71279, Note_on_c, 2, 67, 0
3, 71280, Note_on_c, 2, 67, 80
3, 71759, Note_on_c, 2, 67, 0
3, 71760, Note_on_c, 2, 62, 80
3, 71879, Note_on_c, 2, 62, 0
3, 71880, Note_on_c, 2, 64, 80
3, 71999, Note_on_c, 2, 64, 0
3, 72000, Note_on_c, 2, 55, 80
3, 72239, Note_on_c, 2, 55, 0
3, 72240, Note_on_c, 2, 55, 80
3, 72719, Note_on_c, 2, 55, 0
3, 72720, Note_on_c, 2, 59, 80
3, 72959, Note_on_c, 2, 59, 0
3, 72960, Note_on_c, 2, 60, 80
3, 73199, Note_on_c, 2, 60, 0
3, 73200, Note_on_c, 2, 60, 80
3, 73439, Note_on_c, 2, 60, 0
3, 73560, Note_on_c, 2, 60, 80
3, 73919, Note_on_c, 2, 60, 0
3, 73920, Note_on_c, 2, 60, 80
3, 74159, Note_on_c, 2, 60, 0
3, 74160, Note_on_c, 2, 60, 80
3, 74399, Note_on_c, 2, 60, 0
3, 74400, Note_on_c, 2, 62, 80
3, 74639, Note_on_c, 2, 62, 0
3, 74640, Note_on_c, 2, 64, 80
3, 74879, Note_on_c, 2, 64, 0
3, 74880, Note_on_c, 2, 65, 80
3, 75119, Note_on_c, 2, 65, 0
3, 75120, Note_on_c, 2, 65, 80
3, 75359, Note_on_c, 2, 65, 0
3, 75480, Note_on_c, 2, 65, 80
3, 75839, Note_on_c, 2, 65, 0
3, 75840, Note_on_c, 2, 53, 80
3, 76199, Note_on_c, 2, 53, 0
3, 76200, Note_on_c, 2, 53, 80
3, 76319, Note_on_c, 2, 53, 0
3, 76320, Note_on_c, 2, 55, 80
3, 76559, Note_on_c, 2, 55, 0
3, 76560, Note_on_c, 2, 57, 80
3, 76799, Note_on_c, 2, 57, 0
3, 76800, Note_on_c, 2, 59, 80
3, 77039, Note_on_c, 2, 59, 0
3, 77040, Note_on_c, 2, 59, 80
3, 77279, Note_on_c, 2, 59, 0
3, 77400, Note_on_c, 2, 65, 80
3, 77759, Note_on_c, 2, 65, 0
3, 77760, Note_on_c, 2, 59, 80
3, 78119, Note_on_c, 2, 59, 0
3, 78120, Note_on_c, 2, 59, 80
3, 78239, Note_on_c, 2, 59, 0
3, 78240, Note_on_c, 2, 62, 80
3, 78479, Note_on_c, 2, 62, 0
3, 78480, Note_on_c, 2, 59, 80
3, 78719, Note_on_c, 2, 59, 0
3, 78720, Note_on_c, 2, 52, 80
3, 78959, Note_on_c, 2, 52, 0
3, 78960, Note_on_c, 2, 52, 80
3, 79199, Note_on_c, 2, 52, 0
3, 79320, Note_on_c, 2, 52, 80
3, 79679, Note_on_c, 2, 52, 0
3, 79680, Note_on_c, 2, 52, 80
3, 80039, Note_on_c, 2, 52, 0
3, 80040, Note_on_c, 2, 52, 80
3, 80399, Note_on_c, 2, 52, 0
3, 80400, Note_on_c, 2, 52, 80
3, 80639, Note_on_c, 2, 52, 0
3, 80640, Note_on_c, 2, 52, 80
3, 80879, Note_on_c, 2, 52, 0
3, 80880, Note_on_c, 2, 52, 80
3, 81239, Note_on_c, 2, 52, 0
3, 81240, Note_on_c, 2, 52, 80
3, 81599, Note_on_c, 2, 52, 0
3, 81600, Note_on_c, 2, 52, 80
3, 81959, Note_on_c, 2, 52, 0
3, 81960, Note_on_c, 2, 52, 80
3, 82079, Note_on_c, 2, 52, 0
3, 82080, Note_on_c, 2, 52, 80
3, 82319, Note_on_c, 2, 52, 0
3, 82320, Note_on_c, 2, 55, 80
3, 82559, Note_on_c, 2, 55, 0
3, 82560, Note_on_c, 2, 57, 80
3, 82799, Note_on_c, 2, 57, 0
3, 82800, Note_on_c, 2, 57, 80
3, 83039, Note_on_c, 2, 57, 0
3, 83280, Note_on_c, 2, 57, 80
3, 83519, Note_on_c, 2, 57, 0
3, 83760, Note_on_c, 2, 57, 80
3, 83999, Note_on_c, 2, 57, 0
3, 84000, Note_on_c, 2, 59, 80
3, 84239, Note_on_c, 2, 59, 0
3, 84240, Note_on_c, 2, 60, 80
3, 84479, Note_on_c, 2, 60, 0
3, 84480, Note_on_c, 2, 62, 80
3, 84719, Note_on_c, 2, 62, 0
3, 84720, Note_on_c, 2, 62, 80
3, 84959, Note_on_c, 2, 62, 0
3, 85200, Note_on_c, 2, 62, 80
3, 85679, Note_on_c, 2, 62, 0
3, 85680, Note_on_c, 2, 60, 80
3, 85919, Note_on_c, 2, 60, 0
3, 85920, Note_on_c, 2, 62, 80
3, 86159, Note_on_c, 2, 62, 0
3, 86160, Note_on_c, 2, 59, 80
3, 86399, Note_on_c, 2, 59, 0
3, 86400, Note_on_c, 2, 55, 80
3, 86639, Note_on_c, 2, 55, 0
3, 86640, Note_on_c, 2, 55, 80
3, 86879, Note_on_c, 2, 55, 0
3, 87120, Note_on_c, 2, 55, 80
3, 87359, Note_on_c, 2, 55, 0
3, 87600, Note_on_c, 2, 55, 80
3, 87839, Note_on_c, 2, 55, 0
3, 88080, Note_on_c, 2, 52, 80
3, 88319, Note_on_c, 2, 52, 0
3, 88320, Note_on_c, 2, 60, 80
3, 88559, Note_on_c, 2, 60, 0
3, 88560, Note_on_c, 2, 60, 80
3, 88799, Note_on_c, 2, 60, 0
3, 89040, Note_on_c, 2, 60, 80
3, 89519, Note_on_c, 2, 60, 0
3, 89520, Note_on_c, 2, 62, 80
3, 89999, Note_on_c, 2, 62, 0
3, 90000, Note_on_c, 2, 64, 80
3, 90239, Note_on_c, 2, 64, 0
3, 90240, Note_on_c, 2, 65, 80
3, 90479, Note_on_c, 2, 65, 0
3, 90480, Note_on_c, 2, 65, 80
3, 90719, Note_on_c, 2, 65, 0
3, 90960, Note_on_c, 2, 65, 80
3, 91199, Note_on_c, 2, 65, 0
3, 91200, Note_on_c, 2, 65, 80
3, 91439, Note_on_c, 2, 65, 0
3, 91440, Note_on_c, 2, 64, 80
3, 91679, Note_on_c, 2, 64, 0
3, 91680, Note_on_c, 2, 65, 80
3, 91919, Note_on_c, 2, 65, 0
3, 91920, Note_on_c, 2, 60, 80
3, 92159, Note_on_c, 2, 60, 0
3, 92160, Note_on_c, 2, 62, 80
3, 92399, Note_on_c, 2, 62, 0
3, 92400, Note_on_c, 2, 62, 80
3, 92639, Note_on_c, 2, 62, 0
3, 92880, Note_on_c, 2, 62, 80
3, 93359, Note_on_c, 2, 62, 0
3, 93360, Note_on_c, 2, 72, 80
3, 93479, Note_on_c, 2, 72, 0
3, 93480, Note_on_c, 2, 71, 80
3, 93599, Note_on_c, 2, 71, 0
3, 93600, Note_on_c, 2, 69, 80
3, 93839, Note_on_c, 2, 69, 0
3, 93840, Note_on_c, 2, 65, 80
3, 94079, Note_on_c, 2, 65, 0
3, 94080, Note_on_c, 2, 52, 80
3, 94319, Note_on_c, 2, 52, 0
3, 94320, Note_on_c, 2, 52, 80
3, 94559, Note_on_c, 2, 52, 0
3, 94800, Note_on_c, 2, 52, 80
3, 95279, Note_on_c, 2, 52, 0
3, 95280, Note_on_c, 2, 52, 80
3, 95519, Note_on_c, 2, 52, 0
3, 95520, Note_on_c, 2, 64, 80
3, 95759, Note_on_c, 2, 64, 0
3, 95760, Note_on_c, 2, 52, 80
3, 95999, Note_on_c, 2, 52, 0
3, 96000, Note_on_c, 2, 64, 80
3, 96479, Note_on_c, 2, 64, 0
3, 96480, Note_on_c, 2, 64, 80
3, 96959, Note_on_c, 2, 64, 0
3, 96960, Note_on_c, 2, 64, 80
3, 97439, Note_on_c, 2, 64, 0
3, 97440, Note_on_c, 2, 59, 80
3, 97559, Note_on_c, 2, 59, 0
3, 97560, Note_on_c, 2, 60, 80
3, 97679, Note_on_c, 2, 60, 0
3, 97680, Note_on_c, 2, 62, 80
3, 97799, Note_on_c, 2, 62, 0
3, 97800, Note_on_c, 2, 59, 80
3, 97919, Note_on_c, 2, 59, 0
3, 97920, Note_on_c, 2, 57, 80
3, 98159, Note_on_c, 2, 57, 0
3, 98160, Note_on_c, 2, 57, 80
3, 98399, Note_on_c, 2, 57, 0
3, 98520, Note_on_c, 2, 69, 80
3, 98759, Note_on_c, 2, 69, 0
3, 98760, Note_on_c, 2, 64, 80
3, 98879, Note_on_c, 2, 64, 0
3, 98880, Note_on_c, 2, 57, 80
3, 99359, Note_on_c, 2, 57, 0
3, 99360, Note_on_c, 2, 60, 80
3, 99599, Note_on_c, 2, 60, 0
3, 99600, Note_on_c, 2, 57, 80
3, 99839, Note_on_c, 2, 57, 0
3, 99840, Note_on_c, 2, 62, 80
3, 100079, Note_on_c, 2, 62, 0
3, 100080, Note_on_c, 2, 62, 80
3, 100319, Note_on_c, 2, 62, 0
3, 100440, Note_on_c, 2, 62, 80
3, 100679, Note_on_c, 2, 62, 0
3, 100680, Note_on_c, 2, 69, 80
3, 100799, Note_on_c, 2, 69, 0
3, 100800, Note_on_c, 2, 62, 80
3, 101279, Note_on_c, 2, 62, 0
3, 101280, Note_on_c, 2, 65, 80
3, 101519, Note_on_c, 2, 65, 0
3, 101520, Note_on_c, 2, 62, 80
3, 101759, Note_on_c, 2, 62, 0
3, 101760, Note_on_c, 2, 67, 80
3, 101999, Note_on_c, 2, 67, 0
3, 102000, Note_on_c, 2, 67, 80
3, 102239, Note_on_c, 2, 67, 0
3, 102360, Note_on_c, 2, 67, 80
3, 102719, Note_on_c, 2, 67, 0
3, 102720, Note_on_c, 2, 55, 80
3, 103079, Note_on_c, 2, 55, 0
3, 103080, Note_on_c, 2, 55, 80
3, 103199, Note_on_c, 2, 55, 0
3, 103200, Note_on_c, 2, 57, 80
3, 103439, Note_on_c, 2, 57, 0
3, 103440, Note_on_c, 2, 59, 80
3, 103679, Note_on_c, 2, 59, 0
3, 103680, Note_on_c, 2, 60, 80
3, 103919, Note_on_c, 2, 60, 0
3, 103920, Note_on_c, 2, 60, 80
3, 104159, Note_on_c, 2, 60, 0
3, 104280, Note_on_c, 2, 72, 80
3, 104639, Note_on_c, 2, 72, 0
3, 104640, Note_on_c, 2, 60, 80
3, 104879, Note_on_c, 2, 60, 0
3, 104880, Note_on_c, 2, 60, 80
3, 105119, Note_on_c, 2, 60, 0
3, 105120, Note_on_c, 2, 62, 80
3, 105359, Note_on_c, 2, 62, 0
3, 105360, Note_on_c, 2, 64, 80
3, 105599, Note_on_c, 2, 64, 0
3, 105600, Note_on_c, 2, 65, 80
3, 105839, Note_on_c, 2, 65, 0
3, 105840, Note_on_c, 2, 65, 80
3, 106079, Note_on_c, 2, 65, 0
3, 106200, Note_on_c, 2, 65, 80
3, 106559, Note_on_c, 2, 65, 0
3, 106560, Note_on_c, 2, 53, 80
3, 107039, Note_on_c, 2, 53, 0
3, 107040, Note_on_c, 2, 57, 80
3, 107279, Note_on_c, 2, 57, 0
3, 107280, Note_on_c, 2, 53, 80
3, 107519, Note_on_c, 2, 53, 0
3, 107520, Note_on_c, 2, 59, 80
3, 107759, Note_on_c, 2, 59, 0
3, 107760, Note_on_c, 2, 59, 80
3, 107999, Note_on_c, 2, 59, 0
3, 108120, Note_on_c, 2, 71, 80
3, 108479, Note_on_c, 2, 71, 0
3, 108480, Note_on_c, 2, 59, 80
3, 108839, Note_on_c, 2, 59, 0
3, 108840, Note_on_c, 2, 59, 80
3, 108959, Note_on_c, 2, 59, 0
3, 108960, Note_on_c, 2, 62, 80
3, 109199, Note_on_c, 2, 62, 0
3, 109200, Note_on_c, 2, 59, 80
3, 109439, Note_on_c, 2, 59, 0
3, 109440, Note_on_c, 2, 64, 80
3, 109679, Note_on_c, 2, 64, 0
3, 109680, Note_on_c, 2, 64, 80
3, 110159, Note_on_c, 2, 64, 0
3, 110160, Note_on_c, 2, 62, 80
3, 110279, Note_on_c, 2, 62, 0
3, 110280, Note_on_c, 2, 59, 80
3, 110399, Note_on_c, 2, 59, 0
3, 110400, Note_on_c, 2, 52, 80
3, 110879, Note_on_c, 2, 52, 0
3, 110880, Note_on_c, 2, 64, 80
3, 111359, Note_on_c, 2, 64, 0
3, 111360, Note_on_c, 2, 52, 80
3, 111599, Note_on_c, 2, 52, 0
3, 111600, Note_on_c, 2, 52, 80
3, 111839, Note_on_c, 2, 52, 0
3, 111840, Note_on_c, 2, 64, 80
3, 112079, Note_on_c, 2, 64, 0
3, 112080, Note_on_c, 2, 62, 80
3, 112199, Note_on_c, 2, 62, 0
3, 112200, Note_on_c, 2, 59, 80
3, 112319, Note_on_c, 2, 59, 0
3, 112320, Note_on_c, 2, 52, 80
3, 112679, Note_on_c, 2, 52, 0
3, 112680, Note_on_c, 2, 52, 80
3, 113039, Note_on_c, 2, 52, 0
3, 113040, Note_on_c, 2, 52, 80
3, 113279, Note_on_c, 2, 52, 0
3, 113280, Note_on_c, 2, 57, 80
3, 113519, Note_on_c, 2, 57, 0
3, 113520, Note_on_c, 2, 57, 80
3, 113999, Note_on_c, 2, 57, 0
3, 114000, Note_on_c, 2, 69, 80
3, 114119, Note_on_c, 2, 69, 0
3, 114120, Note_on_c, 2, 64, 80
3, 114239, Note_on_c, 2, 64, 0
3, 114240, Note_on_c, 2, 57, 80
3, 114479, Note_on_c, 2, 57, 0
3, 114480, Note_on_c, 2, 57, 80
3, 114719, Note_on_c, 2, 57, 0
3, 114720, Note_on_c, 2, 60, 80
3, 114959, Note_on_c, 2, 60, 0
3, 114960, Note_on_c, 2, 57, 80
3, 115199, Note_on_c, 2, 57, 0
3, 115200, Note_on_c, 2, 62, 80
3, 115439, Note_on_c, 2, 62, 0
3, 115440, Note_on_c, 2, 62, 80
3, 115799, Note_on_c, 2, 62, 0
3, 115800, Note_on_c, 2, 69, 80
3, 115919, Note_on_c, 2, 69, 0
3, 115920, Note_on_c, 2, 72, 80
3, 116039, Note_on_c, 2, 72, 0
3, 116040, Note_on_c, 2, 69, 80
3, 116159, Note_on_c, 2, 69, 0
3, 116160, Note_on_c, 2, 62, 80
3, 116519, Note_on_c, 2, 62, 0
3, 116520, Note_on_c, 2, 62, 80
3, 116639, Note_on_c, 2, 62, 0
3, 116640, Note_on_c, 2, 65, 80
3, 116879, Note_on_c, 2, 65, 0
3, 116880, Note_on_c, 2, 62, 80
3, 117119, Note_on_c, 2, 62, 0
3, 117120, Note_on_c, 2, 67, 80
3, 117359, Note_on_c, 2, 67, 0
3, 117360, Note_on_c, 2, 67, 80
3, 117839, Note_on_c, 2, 67, 0
3, 117840, Note_on_c, 2, 67, 80
3, 117959, Note_on_c, 2, 67, 0
3, 117960, Note_on_c, 2, 62, 80
3, 118079, Note_on_c, 2, 62, 0
3, 118080, Note_on_c, 2, 55, 80
3, 118319, Note_on_c, 2, 55, 0
3, 118320, Note_on_c, 2, 62, 80
3, 118439, Note_on_c, 2, 62, 0
3, 118440, Note_on_c, 2, 59, 80
3, 118559, Note_on_c, 2, 59, 0
3, 118560, Note_on_c, 2, 55, 80
3, 118919, Note_on_c, 2, 55, 0
3, 118920, Note_on_c, 2, 55, 80
3, 119039, Note_on_c, 2, 55, 0
3, 119040, Note_on_c, 2, 60, 80
3, 119279, Note_on_c, 2, 60, 0
3, 119280, Note_on_c, 2, 60, 80
3, 119519, Note_on_c, 2, 60, 0
3, 119640, Note_on_c, 2, 60, 80
3, 119999, Note_on_c, 2, 60, 0
3, 120000, Note_on_c, 2, 60, 80
3, 120359, Note_on_c, 2, 60, 0
3, 120360, Note_on_c, 2, 60, 80
3, 120479, Note_on_c, 2, 60, 0
3, 120480, Note_on_c, 2, 62, 80
3, 120719, Note_on_c, 2, 62, 0
3, 120720, Note_on_c, 2, 64, 80
3, 120959, Note_on_c, 2, 64, 0
3, 120960, Note_on_c, 2, 65, 80
3, 121199, Note_on_c, 2, 65, 0
3, 121200, Note_on_c, 2, 65, 80
3, 121439, Note_on_c, 2, 65, 0
3, 121560, Note_on_c, 2, 65, 80
3, 121919, Note_on_c, 2, 65, 0
3, 121920, Note_on_c, 2, 53, 80
3, 122279, Note_on_c, 2, 53, 0
3, 122280, Note_on_c, 2, 53, 80
3, 122399, Note_on_c, 2, 53, 0
3, 122400, Note_on_c, 2, 57, 80
3, 122639, Note_on_c, 2, 57, 0
3, 122640, Note_on_c, 2, 53, 80
3, 122879, Note_on_c, 2, 53, 0
3, 122880, Note_on_c, 2, 59, 80
3, 123119, Note_on_c, 2, 59, 0
3, 123120, Note_on_c, 2, 59, 80
3, 123479, Note_on_c, 2, 59, 0
3, 123480, Note_on_c, 2, 64, 80
3, 123599, Note_on_c, 2, 64, 0
3, 123600, Note_on_c, 2, 65, 80
3, 123719, Note_on_c, 2, 65, 0
3, 123720, Note_on_c, 2, 71, 80
3, 123839, Note_on_c, 2, 71, 0
3, 123840, Note_on_c, 2, 59, 80
3, 124199, Note_on_c, 2, 59, 0
3, 124200, Note_on_c, 2, 59, 80
3, 124319, Note_on_c, 2, 59, 0
3, 124320, Note_on_c, 2, 62, 80
3, 124559, Note_on_c, 2, 62, 0
3, 124560, Note_on_c, 2, 59, 80
3, 124799, Note_on_c, 2, 59, 0
3, 124800, Note_on_c, 2, 64, 80
3, 125039, Note_on_c, 2, 64, 0
3, 125040, Note_on_c, 2, 64, 80
3, 125279, Note_on_c, 2, 64, 0
3, 125400, Note_on_c, 2, 64, 80
3, 125639, Note_on_c, 2, 64, 0
3, 125640, Note_on_c, 2, 64, 80
3, 125759, Note_on_c, 2, 64, 0
3, 125760, Note_on_c, 2, 64, 80
3, 125999, Note_on_c, 2, 64, 0
3, 126000, Note_on_c, 2, 64, 80
3, 126239, Note_on_c, 2, 64, 0
3, 126240, Note_on_c, 2, 52, 80
3, 126719, Note_on_c, 2, 52, 0
3, 126720, Note_on_c, 2, 64, 80
3, 126959, Note_on_c, 2, 64, 0
3, 126960, Note_on_c, 2, 64, 80
3, 127199, Note_on_c, 2, 64, 0
3, 127320, Note_on_c, 2, 62, 80
3, 127559, Note_on_c, 2, 62, 0
3, 127560, Note_on_c, 2, 59, 80
3, 127679, Note_on_c, 2, 59, 0
3, 127680, Note_on_c, 2, 52, 80
3, 128639, Note_on_c, 2, 52, 0
3, 128640, Note_on_c, 2, 57, 80
3, 130559, Note_on_c, 2, 57, 0
3, 130560, Note_on_c, 2, 62, 80
3, 132479, Note_on_c, 2, 62, 0
3, 132480, Note_on_c, 2, 55, 80
3, 134399, Note_on_c, 2, 55, 0
3, 134400, Note_on_c, 2, 60, 80
3, 136319, Note_on_c, 2, 60, 0
3, 136320, Note_on_c, 2, 53, 80
3, 138239, Note_on_c, 2, 53, 0
3, 138240, Note_on_c, 2, 59, 80
3, 140159, Note_on_c, 2, 59, 0
3, 140160, Note_on_c, 2, 64, 80
3, 142079, Note_on_c, 2, 64, 0
3, 142080, Note_on_c, 2, 52, 80
3, 143999, Note_on_c, 2, 52, 0
3, 144000, Note_on_c, 2, 57, 80
3, 145919, Note_on_c, 2, 57, 0
3, 145920, End_track
4, 0, Start_track
4, 0, Title_t, "Chimes, Violoncellos, Cellos\000"
4, 0, Key_signature, 0, "major"
4, 0, Control_c, 3, 121, 0
4, 0, Program_c, 3, 14
4, 0, Control_c, 3, 7, 100
4, 0, Control_c, 3, 10, 64
4, 0, Control_c, 3, 91, 0
4, 0, Control_c, 3, 93, 0
4, 0, MIDI_port, 0
4, 36480, Note_on_c, 3, 69, 80
4, 38399, Note_on_c, 3, 69, 0
4, 38400, Note_on_c, 3, 74, 80
4, 40319, Note_on_c, 3, 74, 0
4, 40320, Note_on_c, 3, 67, 80
4, 42239, Note_on_c, 3, 67, 0
4, 42240, Note_on_c, 3, 72, 80
4, 44159, Note_on_c, 3, 72, 0
4, 44160, Note_on_c, 3, 65, 80
4, 46079, Note_on_c, 3, 65, 0
4, 46080, Note_on_c, 3, 71, 80
4, 47999, Note_on_c, 3, 71, 0
4, 48000, Note_on_c, 3, 64, 80
4, 51839, Note_on_c, 3, 64, 0
4, 52080, Note_on_c, 3, 69, 80
4, 52199, Note_on_c, 3, 69, 0
4, 52440, Note_on_c, 3, 69, 80
4, 52619, Note_on_c, 3, 69, 0
4, 52800, Note_on_c, 3, 69, 80
4, 53039, Note_on_c, 3, 69, 0
4, 54000, Note_on_c, 3, 69, 80
4, 54119, Note_on_c, 3, 69, 0
4, 54360, Note_on_c, 3, 69, 80
4, 54539, Note_on_c, 3, 69, 0
4, 54720, Note_on_c, 3, 69, 80
4, 54959, Note_on_c, 3, 69, 0
4, 55920, Note_on_c, 3, 67, 80
4, 56039, Note_on_c, 3, 67, 0
4, 56280, Note_on_c, 3, 67, 80
4, 56459, Note_on_c, 3, 67, 0
4, 56640, Note_on_c, 3, 67, 80
4, 56879, Note_on_c, 3, 67, 0
4, 57840, Note_on_c, 3, 67, 80
4, 57959, Note_on_c, 3, 67, 0
4, 58200, Note_on_c, 3, 67, 80
4, 58379, Note_on_c, 3, 67, 0
4, 58560, Note_on_c, 3, 67, 80
4, 58799, Note_on_c, 3, 67, 0
4, 59760, Note_on_c, 3, 65, 80
4, 59879, Note_on_c, 3, 65, 0
4, 60120, Note_on_c, 3, 65, 80
4, 60299, Note_on_c, 3, 65, 0
4, 60480, Note_on_c, 3, 65, 80
4, 60719, Note_on_c, 3, 65, 0
4, 61680, Note_on_c, 3, 69, 80
4, 61799, Note_on_c, 3, 69, 0
4, 62040, Note_on_c, 3, 69, 80
4, 62219, Note_on_c, 3, 69, 0
4, 62400, Note_on_c, 3, 69, 80
4, 62639, Note_on_c, 3, 69, 0
4, 63600, Note_on_c, 3, 69, 80
4, 63719, Note_on_c, 3, 69, 0
4, 63960, Note_on_c, 3, 69, 80
4, 64139, Note_on_c, 3, 69, 0
4, 64320, Note_on_c, 3, 69, 80
4, 64559, Note_on_c, 3, 69, 0
4, 65520, Note_on_c, 3, 71, 80
4, 65759, Note_on_c, 3, 71, 0
4, 65880, Note_on_c, 3, 71, 80
4, 66239, Note_on_c, 3, 71, 0
4, 66240, Note_on_c, 3, 71, 80
4, 66719, Note_on_c, 3, 71, 0
4, 113280, Note_on_c, 3, 69, 80
4, 114719, Note_on_c, 3, 69, 0
4, 114720, Note_on_c, 3, 72, 80
4, 114959, Note_on_c, 3, 72, 0
4, 114960, Note_on_c, 3, 69, 80
4, 115199, Note_on_c, 3, 69, 0
4, 115200, Note_on_c, 3, 74, 80
4, 116399, Note_on_c, 3, 74, 0
4, 116400, Note_on_c, 3, 72, 80
4, 116639, Note_on_c, 3, 72, 0
4, 116640, Note_on_c, 3, 71, 80
4, 116879, Note_on_c, 3, 71, 0
4, 116880, Note_on_c, 3, 69, 80
4, 117119, Note_on_c, 3, 69, 0
4, 117120, Note_on_c, 3, 67, 80
4, 118559, Note_on_c, 3, 67, 0
4, 118560, Note_on_c, 3, 71, 80
4, 119039, Note_on_c, 3, 71, 0
4, 119040, Note_on_c, 3, 72, 80
4, 120239, Note_on_c, 3, 72, 0
4, 120240, Note_on_c, 3, 72, 80
4, 120479, Note_on_c, 3, 72, 0
4, 120480, Note_on_c, 3, 71, 80
4, 120719, Note_on_c, 3, 71, 0
4, 120720, Note_on_c, 3, 67, 80
4, 120959, Note_on_c, 3, 67, 0
4, 120960, Note_on_c, 3, 65, 80
4, 122879, Note_on_c, 3, 65, 0
4, 122880, Note_on_c, 3, 71, 80
4, 124319, Note_on_c, 3, 71, 0
4, 124320, Note_on_c, 3, 71, 80
4, 124439, Note_on_c, 3, 71, 0
4, 124560, Note_on_c, 3, 69, 80
4, 124679, Note_on_c, 3, 69, 0
4, 124800, Note_on_c, 3, 64, 80
4, 128639, Note_on_c, 3, 64, 0
4, 128640, End_track
5, 0, Start_track
5, 0, Title_t, "Classical Guitar, Acoustic Guitar, El. gtr. (TAB)\000"
5, 0, Key_signature, 0, "major"
5, 0, Control_c, 1, 121, 0
5, 0, Program_c, 1, 24
5, 0, Control_c, 1, 7, 100
5, 0, Control_c, 1, 10, 64
5, 0, Control_c, 1, 91, 0
5, 0, Control_c, 1, 93, 0
5, 0, MIDI_port, 0
5, 0, Control_c, 7, 121, 0
5, 0, Program_c, 7, 28
5, 0, Control_c, 7, 7, 100
5, 0, Control_c, 7, 10, 64
5, 0, Control_c, 7, 91, 0
5, 0, Control_c, 7, 93, 0
5, 0, MIDI_port, 0
5, 21360, Note_on_c, 1, 52, 80
5, 21360, Note_on_c, 1, 57, 80
5, 21360, Note_on_c, 1, 60, 80
5, 21479, Note_on_c, 1, 52, 0
5, 21479, Note_on_c, 1, 57, 0
5, 21479, Note_on_c, 1, 60, 0
5, 21720, Note_on_c, 1, 52, 80
5, 21720, Note_on_c, 1, 57, 80
5, 21720, Note_on_c, 1, 60, 80
5, 21899, Note_on_c, 1, 52, 0
5, 21899, Note_on_c, 1, 57, 0
5, 21899, Note_on_c, 1, 60, 0
5, 22080, Note_on_c, 1, 52, 80
5, 22080, Note_on_c, 1, 57, 80
5, 22080, Note_on_c, 1, 60, 80
5, 22259, Note_on_c, 1, 52, 0
5, 22259, Note_on_c, 1, 57, 0
5, 22259, Note_on_c, 1, 60, 0
5, 22440, Note_on_c, 1, 52, 80
5, 22440, Note_on_c, 1, 57, 80
5, 22440, Note_on_c, 1, 60, 80
5, 22559, Note_on_c, 1, 52, 0
5, 22559, Note_on_c, 1, 57, 0
5, 22559, Note_on_c, 1, 60, 0
5, 22800, Note_on_c, 1, 52, 80
5, 22800, Note_on_c, 1, 57, 80
5, 22800, Note_on_c, 1, 60, 80
5, 22919, Note_on_c, 1, 52, 0
5, 22919, Note_on_c, 1, 57, 0
5, 22919, Note_on_c, 1, 60, 0
5, 23280, Note_on_c, 1, 53, 80
5, 23280, Note_on_c, 1, 57, 80
5, 23280, Note_on_c, 1, 62, 80
5, 23399, Note_on_c, 1, 53, 0
5, 23399, Note_on_c, 1, 57, 0
5, 23399, Note_on_c, 1, 62, 0
5, 23640, Note_on_c, 1, 53, 80
5, 23640, Note_on_c, 1, 57, 80
5, 23640, Note_on_c, 1, 62, 80
5, 23819, Note_on_c, 1, 53, 0
5, 23819, Note_on_c, 1, 57, 0
5, 23819, Note_on_c, 1, 62, 0
5, 24000, Note_on_c, 1, 53, 80
5, 24000, Note_on_c, 1, 57, 80
5, 24000, Note_on_c, 1, 62, 80
5, 24179, Note_on_c, 1, 53, 0
5, 24179, Note_on_c, 1, 57, 0
5, 24179, Note_on_c, 1, 62, 0
5, 24360, Note_on_c, 1, 53, 80
5, 24360, Note_on_c, 1, 57, 80
5, 24360, Note_on_c, 1, 62, 80
5, 24479, Note_on_c, 1, 53, 0
5, 24479, Note_on_c, 1, 57, 0
5, 24479, Note_on_c, 1, 62, 0
5, 24720, Note_on_c, 1, 53, 80
5, 24720, Note_on_c, 1, 57, 80
5, 24720, Note_on_c, 1, 62, 80
5, 24839, Note_on_c, 1, 53, 0
5, 24839, Note_on_c, 1, 57, 0
5, 24839, Note_on_c, 1, 62, 0
5, 25200, Note_on_c, 1, 55, 80
5, 25200, Note_on_c, 1, 59, 80
5, 25200, Note_on_c, 1, 62, 80
5, 25319, Note_on_c, 1, 55, 0
5, 25319, Note_on_c, 1, 59, 0
5, 25319, Note_on_c, 1, 62, 0
5, 25560, Note_on_c, 1, 55, 80
5, 25560, Note_on_c, 1, 59, 80
5, 25560, Note_on_c, 1, 62, 80
5, 25739, Note_on_c, 1, 55, 0
5, 25739, Note_on_c, 1, 59, 0
5, 25739, Note_on_c, 1, 62, 0
5, 25920, Note_on_c, 1, 55, 80
5, 25920, Note_on_c, 1, 59, 80
5, 25920, Note_on_c, 1, 62, 80
5, 26099, Note_on_c, 1, 55, 0
5, 26099, Note_on_c, 1, 59, 0
5, 26099, Note_on_c, 1, 62, 0
5, 26280, Note_on_c, 1, 55, 80
5, 26280, Note_on_c, 1, 59, 80
5, 26280, Note_on_c, 1, 62, 80
5, 26399, Note_on_c, 1, 55, 0
5, 26399, Note_on_c, 1, 59, 0
5, 26399, Note_on_c, 1, 62, 0
5, 26640, Note_on_c, 1, 55, 80
5, 26640, Note_on_c, 1, 59, 80
5, 26640, Note_on_c, 1, 62, 80
5, 26759, Note_on_c, 1, 55, 0
5, 26759, Note_on_c, 1, 59, 0
5, 26759, Note_on_c, 1, 62, 0
5, 27120, Note_on_c, 1, 55, 80
5, 27120, Note_on_c, 1, 60, 80
5, 27120, Note_on_c, 1, 64, 80
5, 27239, Note_on_c, 1, 55, 0
5, 27239, Note_on_c, 1, 60, 0
5, 27239, Note_on_c, 1, 64, 0
5, 27480, Note_on_c, 1, 55, 80
5, 27480, Note_on_c, 1, 60, 80
5, 27480, Note_on_c, 1, 64, 80
5, 27659, Note_on_c, 1, 55, 0
5, 27659, Note_on_c, 1, 60, 0
5, 27659, Note_on_c, 1, 64, 0
5, 27840, Note_on_c, 1, 55, 80
5, 27840, Note_on_c, 1, 60, 80
5, 27840, Note_on_c, 1, 64, 80
5, 28019, Note_on_c, 1, 55, 0
5, 28019, Note_on_c, 1, 60, 0
5, 28019, Note_on_c, 1, 64, 0
5, 28200, Note_on_c, 1, 55, 80
5, 28200, Note_on_c, 1, 60, 80
5, 28200, Note_on_c, 1, 64, 80
5, 28319, Note_on_c, 1, 55, 0
5, 28319, Note_on_c, 1, 60, 0
5, 28319, Note_on_c, 1, 64, 0
5, 28560, Note_on_c, 1, 55, 80
5, 28560, Note_on_c, 1, 60, 80
5, 28560, Note_on_c, 1, 64, 80
5, 28679, Note_on_c, 1, 55, 0
5, 28679, Note_on_c, 1, 60, 0
5, 28679, Note_on_c, 1, 64, 0
5, 29040, Note_on_c, 1, 57, 80
5, 29040, Note_on_c, 1, 60, 80
5, 29040, Note_on_c, 1, 64, 80
5, 29159, Note_on_c, 1, 57, 0
5, 29159, Note_on_c, 1, 60, 0
5, 29159, Note_on_c, 1, 64, 0
5, 29400, Note_on_c, 1, 57, 80
5, 29400, Note_on_c, 1, 60, 80
5, 29400, Note_on_c, 1, 64, 80
5, 29579, Note_on_c, 1, 57, 0
5, 29579, Note_on_c, 1, 60, 0
5, 29579, Note_on_c, 1, 64, 0
5, 29760, Note_on_c, 1, 57, 80
5, 29760, Note_on_c, 1, 60, 80
5, 29760, Note_on_c, 1, 64, 80
5, 29939, Note_on_c, 1, 57, 0
5, 29939, Note_on_c, 1, 60, 0
5, 29939, Note_on_c, 1, 64, 0
5, 30120, Note_on_c, 1, 57, 80
5, 30120, Note_on_c, 1, 60, 80
5, 30120, Note_on_c, 1, 64, 80
5, 30239, Note_on_c, 1, 57, 0
5, 30239, Note_on_c, 1, 60, 0
5, 30239, Note_on_c, 1, 64, 0
5, 30480, Note_on_c, 1, 57, 80
5, 30480, Note_on_c, 1, 60, 80
5, 30480, Note_on_c, 1, 64, 80
5, 30599, Note_on_c, 1, 57, 0
5, 30599, Note_on_c, 1, 60, 0
5, 30599, Note_on_c, 1, 64, 0
5, 30960, Note_on_c, 1, 53, 80
5, 30960, Note_on_c, 1, 59, 80
5, 30960, Note_on_c, 1, 62, 80
5, 31079, Note_on_c, 1, 53, 0
5, 31079, Note_on_c, 1, 59, 0
5, 31079, Note_on_c, 1, 62, 0
5, 31320, Note_on_c, 1, 53, 80
5, 31320, Note_on_c, 1, 59, 80
5, 31320, Note_on_c, 1, 62, 80
5, 31499, Note_on_c, 1, 53, 0
5, 31499, Note_on_c, 1, 59, 0
5, 31499, Note_on_c, 1, 62, 0
5, 31680, Note_on_c, 1, 53, 80
5, 31680, Note_on_c, 1, 59, 80
5, 31680, Note_on_c, 1, 62, 80
5, 31859, Note_on_c, 1, 53, 0
5, 31859, Note_on_c, 1, 59, 0
5, 31859, Note_on_c, 1, 62, 0
5, 32040, Note_on_c, 1, 53, 80
5, 32040, Note_on_c, 1, 59, 80
5, 32040, Note_on_c, 1, 62, 80
5, 32159, Note_on_c, 1, 53, 0
5, 32159, Note_on_c, 1, 59, 0
5, 32159, Note_on_c, 1, 62, 0
5, 32400, Note_on_c, 1, 53, 80
5, 32400, Note_on_c, 1, 59, 80
5, 32400, Note_on_c, 1, 62, 80
5, 32519, Note_on_c, 1, 53, 0
5, 32519, Note_on_c, 1, 59, 0
5, 32519, Note_on_c, 1, 62, 0
5, 32880, Note_on_c, 1, 57, 80
5, 32880, Note_on_c, 1, 59, 80
5, 32880, Note_on_c, 1, 64, 80
5, 32999, Note_on_c, 1, 57, 0
5, 32999, Note_on_c, 1, 59, 0
5, 32999, Note_on_c, 1, 64, 0
5, 33240, Note_on_c, 1, 57, 80
5, 33240, Note_on_c, 1, 59, 80
5, 33240, Note_on_c, 1, 64, 80
5, 33419, Note_on_c, 1, 57, 0
5, 33419, Note_on_c, 1, 59, 0
5, 33419, Note_on_c, 1, 64, 0
5, 33600, Note_on_c, 1, 57, 80
5, 33600, Note_on_c, 1, 59, 80
5, 33600, Note_on_c, 1, 64, 80
5, 33779, Note_on_c, 1, 57, 0
5, 33779, Note_on_c, 1, 59, 0
5, 33779, Note_on_c, 1, 64, 0
5, 33960, Note_on_c, 1, 57, 80
5, 33960, Note_on_c, 1, 59, 80
5, 33960, Note_on_c, 1, 64, 80
5, 34079, Note_on_c, 1, 57, 0
5, 34079, Note_on_c, 1, 59, 0
5, 34079, Note_on_c, 1, 64, 0
5, 34320, Note_on_c, 1, 57, 80
5, 34320, Note_on_c, 1, 59, 80
5, 34320, Note_on_c, 1, 64, 80
5, 34439, Note_on_c, 1, 57, 0
5, 34439, Note_on_c, 1, 59, 0
5, 34439, Note_on_c, 1, 64, 0
5, 34800, Note_on_c, 1, 59, 80
5, 34800, Note_on_c, 1, 64, 80
5, 34919, Note_on_c, 1, 59, 0
5, 34919, Note_on_c, 1, 64, 0
5, 35160, Note_on_c, 1, 59, 80
5, 35160, Note_on_c, 1, 64, 80
5, 35339, Note_on_c, 1, 59, 0
5, 35339, Note_on_c, 1, 64, 0
5, 35520, Note_on_c, 1, 59, 80
5, 35520, Note_on_c, 1, 64, 80
5, 35699, Note_on_c, 1, 59, 0
5, 35699, Note_on_c, 1, 64, 0
5, 35880, Note_on_c, 1, 59, 80
5, 35880, Note_on_c, 1, 64, 80
5, 35999, Note_on_c, 1, 59, 0
5, 35999, Note_on_c, 1, 64, 0
5, 36240, Note_on_c, 1, 59, 80
5, 36240, Note_on_c, 1, 64, 80
5, 36359, Note_on_c, 1, 59, 0
5, 36359, Note_on_c, 1, 64, 0
5, 36720, Note_on_c, 1, 52, 80
5, 36720, Note_on_c, 1, 57, 80
5, 36720, Note_on_c, 1, 60, 80
5, 36839, Note_on_c, 1, 52, 0
5, 36839, Note_on_c, 1, 57, 0
5, 36839, Note_on_c, 1, 60, 0
5, 37080, Note_on_c, 1, 52, 80
5, 37080, Note_on_c, 1, 57, 80
5, 37080, Note_on_c, 1, 60, 80
5, 37259, Note_on_c, 1, 52, 0
5, 37259, Note_on_c, 1, 57, 0
5, 37259, Note_on_c, 1, 60, 0
5, 37440, Note_on_c, 1, 52, 80
5, 37440, Note_on_c, 1, 57, 80
5, 37440, Note_on_c, 1, 60, 80
5, 37619, Note_on_c, 1, 52, 0
5, 37619, Note_on_c, 1, 57, 0
5, 37619, Note_on_c, 1, 60, 0
5, 37800, Note_on_c, 1, 52, 80
5, 37800, Note_on_c, 1, 57, 80
5, 37800, Note_on_c, 1, 60, 80
5, 37919, Note_on_c, 1, 52, 0
5, 37919, Note_on_c, 1, 57, 0
5, 37919, Note_on_c, 1, 60, 0
5, 38160, Note_on_c, 1, 52, 80
5, 38160, Note_on_c, 1, 57, 80
5, 38160, Note_on_c, 1, 60, 80
5, 38279, Note_on_c, 1, 52, 0
5, 38279, Note_on_c, 1, 57, 0
5, 38279, Note_on_c, 1, 60, 0
5, 38640, Note_on_c, 1, 53, 80
5, 38640, Note_on_c, 1, 57, 80
5, 38640, Note_on_c, 1, 62, 80
5, 38759, Note_on_c, 1, 53, 0
5, 38759, Note_on_c, 1, 57, 0
5, 38759, Note_on_c, 1, 62, 0
5, 39000, Note_on_c, 1, 53, 80
5, 39000, Note_on_c, 1, 57, 80
5, 39000, Note_on_c, 1, 62, 80
5, 39179, Note_on_c, 1, 53, 0
5, 39179, Note_on_c, 1, 57, 0
5, 39179, Note_on_c, 1, 62, 0
5, 39360, Note_on_c, 1, 53, 80
5, 39360, Note_on_c, 1, 57, 80
5, 39360, Note_on_c, 1, 62, 80
5, 39539, Note_on_c, 1, 53, 0
5, 39539, Note_on_c, 1, 57, 0
5, 39539, Note_on_c, 1, 62, 0
5, 39720, Note_on_c, 1, 53, 80
5, 39720, Note_on_c, 1, 57, 80
5, 39720, Note_on_c, 1, 62, 80
5, 39839, Note_on_c, 1, 53, 0
5, 39839, Note_on_c, 1, 57, 0
5, 39839, Note_on_c, 1, 62, 0
5, 40080, Note_on_c, 1, 53, 80
5, 40080, Note_on_c, 1, 57, 80
5, 40080, Note_on_c, 1, 62, 80
5, 40199, Note_on_c, 1, 53, 0
5, 40199, Note_on_c, 1, 57, 0
5, 40199, Note_on_c, 1, 62, 0
5, 40560, Note_on_c, 1, 55, 80
5, 40560, Note_on_c, 1, 59, 80
5, 40560, Note_on_c, 1, 62, 80
5, 40679, Note_on_c, 1, 55, 0
5, 40679, Note_on_c, 1, 59, 0
5, 40679, Note_on_c, 1, 62, 0
5, 40920, Note_on_c, 1, 55, 80
5, 40920, Note_on_c, 1, 59, 80
5, 40920, Note_on_c, 1, 62, 80
5, 41099, Note_on_c, 1, 55, 0
5, 41099, Note_on_c, 1, 59, 0
5, 41099, Note_on_c, 1, 62, 0
5, 41280, Note_on_c, 1, 55, 80
5, 41280, Note_on_c, 1, 59, 80
5, 41280, Note_on_c, 1, 62, 80
5, 41459, Note_on_c, 1, 55, 0
5, 41459, Note_on_c, 1, 59, 0
5, 41459, Note_on_c, 1, 62, 0
5, 41640, Note_on_c, 1, 55, 80
5, 41640, Note_on_c, 1, 59, 80
5, 41640, Note_on_c, 1, 62, 80
5, 41759, Note_on_c, 1, 55, 0
5, 41759, Note_on_c, 1, 59, 0
5, 41759, Note_on_c, 1, 62, 0
5, 42000, Note_on_c, 1, 55, 80
5, 42000, Note_on_c, 1, 59, 80
5, 42000, Note_on_c, 1, 62, 80
5, 42119, Note_on_c, 1, 55, 0
5, 42119, Note_on_c, 1, 59, 0
5, 42119, Note_on_c, 1, 62, 0
5, 42480, Note_on_c, 1, 55, 80
5, 42480, Note_on_c, 1, 60, 80
5, 42480, Note_on_c, 1, 64, 80
5, 42599, Note_on_c, 1, 55, 0
5, 42599, Note_on_c, 1, 60, 0
5, 42599, Note_on_c, 1, 64, 0
5, 42840, Note_on_c, 1, 55, 80
5, 42840, Note_on_c, 1, 60, 80
5, 42840, Note_on_c, 1, 64, 80
5, 43019, Note_on_c, 1, 55, 0
5, 43019, Note_on_c, 1, 60, 0
5, 43019, Note_on_c, 1, 64, 0
5, 43200, Note_on_c, 1, 55, 80
5, 43200, Note_on_c, 1, 60, 80
5, 43200, Note_on_c, 1, 64, 80
5, 43379, Note_on_c, 1, 55, 0
5, 43379, Note_on_c, 1, 60, 0
5, 43379, Note_on_c, 1, 64, 0
5, 43560, Note_on_c, 1, 55, 80
5, 43560, Note_on_c, 1, 60, 80
5, 43560, Note_on_c, 1, 64, 80
5, 43679, Note_on_c, 1, 55, 0
5, 43679, Note_on_c, 1, 60, 0
5, 43679, Note_on_c, 1, 64, 0
5, 43920, Note_on_c, 1, 55, 80
5, 43920, Note_on_c, 1, 60, 80
5, 43920, Note_on_c, 1, 64, 80
5, 44039, Note_on_c, 1, 55, 0
5, 44039, Note_on_c, 1, 60, 0
5, 44039, Note_on_c, 1, 64, 0
5, 44400, Note_on_c, 1, 57, 80
5, 44400, Note_on_c, 1, 60, 80
5, 44400, Note_on_c, 1, 64, 80
5, 44519, Note_on_c, 1, 57, 0
5, 44519, Note_on_c, 1, 60, 0
5, 44519, Note_on_c, 1, 64, 0
5, 44760, Note_on_c, 1, 57, 80
5, 44760, Note_on_c, 1, 60, 80
5, 44760, Note_on_c, 1, 64, 80
5, 44939, Note_on_c, 1, 57, 0
5, 44939, Note_on_c, 1, 60, 0
5, 44939, Note_on_c, 1, 64, 0
5, 45120, Note_on_c, 1, 57, 80
5, 45120, Note_on_c, 1, 60, 80
5, 45120, Note_on_c, 1, 64, 80
5, 45299, Note_on_c, 1, 57, 0
5, 45299, Note_on_c, 1, 60, 0
5, 45299, Note_on_c, 1, 64, 0
5, 45480, Note_on_c, 1, 57, 80
5, 45480, Note_on_c, 1, 60, 80
5, 45480, Note_on_c, 1, 64, 80
5, 45599, Note_on_c, 1, 57, 0
5, 45599, Note_on_c, 1, 60, 0
5, 45599, Note_on_c, 1, 64, 0
5, 45840, Note_on_c, 1, 57, 80
5, 45840, Note_on_c, 1, 60, 80
5, 45840, Note_on_c, 1, 64, 80
5, 45959, Note_on_c, 1, 57, 0
5, 45959, Note_on_c, 1, 60, 0
5, 45959, Note_on_c, 1, 64, 0
5, 46320, Note_on_c, 1, 53, 80
5, 46320, Note_on_c, 1, 59, 80
5, 46320, Note_on_c, 1, 62, 80
5, 46439, Note_on_c, 1, 53, 0
5, 46439, Note_on_c, 1, 59, 0
5, 46439, Note_on_c, 1, 62, 0
5, 46680, Note_on_c, 1, 53, 80
5, 46680, Note_on_c, 1, 59, 80
5, 46680, Note_on_c, 1, 62, 80
5, 46859, Note_on_c, 1, 53, 0
5, 46859, Note_on_c, 1, 59, 0
5, 46859, Note_on_c, 1, 62, 0
5, 47040, Note_on_c, 1, 53, 80
5, 47040, Note_on_c, 1, 59, 80
5, 47040, Note_on_c, 1, 62, 80
5, 47219, Note_on_c, 1, 53, 0
5, 47219, Note_on_c, 1, 59, 0
5, 47219, Note_on_c, 1, 62, 0
5, 47400, Note_on_c, 1, 53, 80
5, 47400, Note_on_c, 1, 59, 80
5, 47400, Note_on_c, 1, 62, 80
5, 47519, Note_on_c, 1, 53, 0
5, 47519, Note_on_c, 1, 59, 0
5, 47519, Note_on_c, 1, 62, 0
5, 47760, Note_on_c, 1, 53, 80
5, 47760, Note_on_c, 1, 59, 80
5, 47760, Note_on_c, 1, 62, 80
5, 47879, Note_on_c, 1, 53, 0
5, 47879, Note_on_c, 1, 59, 0
5, 47879, Note_on_c, 1, 62, 0
5, 48240, Note_on_c, 1, 57, 80
5, 48240, Note_on_c, 1, 59, 80
5, 48240, Note_on_c, 1, 64, 80
5, 48359, Note_on_c, 1, 57, 0
5, 48359, Note_on_c, 1, 59, 0
5, 48359, Note_on_c, 1, 64, 0
5, 48600, Note_on_c, 1, 57, 80
5, 48600, Note_on_c, 1, 59, 80
5, 48600, Note_on_c, 1, 64, 80
5, 48779, Note_on_c, 1, 57, 0
5, 48779, Note_on_c, 1, 59, 0
5, 48779, Note_on_c, 1, 64, 0
5, 48960, Note_on_c, 1, 57, 80
5, 48960, Note_on_c, 1, 59, 80
5, 48960, Note_on_c, 1, 64, 80
5, 49139, Note_on_c, 1, 57, 0
5, 49139, Note_on_c, 1, 59, 0
5, 49139, Note_on_c, 1, 64, 0
5, 49320, Note_on_c, 1, 57, 80
5, 49320, Note_on_c, 1, 59, 80
5, 49320, Note_on_c, 1, 64, 80
5, 49439, Note_on_c, 1, 57, 0
5, 49439, Note_on_c, 1, 59, 0
5, 49439, Note_on_c, 1, 64, 0
5, 49680, Note_on_c, 1, 57, 80
5, 49680, Note_on_c, 1, 59, 80
5, 49680, Note_on_c, 1, 64, 80
5, 49799, Note_on_c, 1, 57, 0
5, 49799, Note_on_c, 1, 59, 0
5, 49799, Note_on_c, 1, 64, 0
5, 50160, Note_on_c, 1, 59, 80
5, 50160, Note_on_c, 1, 64, 80
5, 50279, Note_on_c, 1, 59, 0
5, 50279, Note_on_c, 1, 64, 0
5, 50520, Note_on_c, 1, 59, 80
5, 50520, Note_on_c, 1, 64, 80
5, 50699, Note_on_c, 1, 59, 0
5, 50699, Note_on_c, 1, 64, 0
5, 50880, Note_on_c, 1, 59, 80
5, 50880, Note_on_c, 1, 64, 80
5, 51059, Note_on_c, 1, 59, 0
5, 51059, Note_on_c, 1, 64, 0
5, 51240, Note_on_c, 1, 59, 80
5, 51240, Note_on_c, 1, 64, 80
5, 51359, Note_on_c, 1, 59, 0
5, 51359, Note_on_c, 1, 64, 0
5, 51600, Note_on_c, 1, 59, 80
5, 51600, Note_on_c, 1, 64, 80
5, 51719, Note_on_c, 1, 59, 0
5, 51719, Note_on_c, 1, 64, 0
5, 52080, Note_on_c, 1, 57, 80
5, 52080, Note_on_c, 1, 60, 80
5, 52080, Note_on_c, 1, 64, 80
5, 52199, Note_on_c, 1, 57, 0
5, 52199, Note_on_c, 1, 60, 0
5, 52199, Note_on_c, 1, 64, 0
5, 52440, Note_on_c, 1, 57, 80
5, 52440, Note_on_c, 1, 60, 80
5, 52440, Note_on_c, 1, 64, 80
5, 52619, Note_on_c, 1, 57, 0
5, 52619, Note_on_c, 1, 60, 0
5, 52619, Note_on_c, 1, 64, 0
5, 52800, Note_on_c, 1, 57, 80
5, 52800, Note_on_c, 1, 60, 80
5, 52800, Note_on_c, 1, 64, 80
5, 52979, Note_on_c, 1, 57, 0
5, 52979, Note_on_c, 1, 60, 0
5, 52979, Note_on_c, 1, 64, 0
5, 53160, Note_on_c, 1, 57, 80
5, 53160, Note_on_c, 1, 60, 80
5, 53160, Note_on_c, 1, 64, 80
5, 53279, Note_on_c, 1, 57, 0
5, 53279, Note_on_c, 1, 60, 0
5, 53279, Note_on_c, 1, 64, 0
5, 53520, Note_on_c, 1, 57, 80
5, 53520, Note_on_c, 1, 60, 80
5, 53520, Note_on_c, 1, 64, 80
5, 53639, Note_on_c, 1, 57, 0
5, 53639, Note_on_c, 1, 60, 0
5, 53639, Note_on_c, 1, 64, 0
5, 54000, Note_on_c, 1, 57, 80
5, 54000, Note_on_c, 1, 62, 80
5, 54000, Note_on_c, 1, 65, 80
5, 54119, Note_on_c, 1, 57, 0
5, 54119, Note_on_c, 1, 62, 0
5, 54119, Note_on_c, 1, 65, 0
5, 54360, Note_on_c, 1, 57, 80
5, 54360, Note_on_c, 1, 62, 80
5, 54360, Note_on_c, 1, 65, 80
5, 54539, Note_on_c, 1, 57, 0
5, 54539, Note_on_c, 1, 62, 0
5, 54539, Note_on_c, 1, 65, 0
5, 54720, Note_on_c, 1, 57, 80
5, 54720, Note_on_c, 1, 62, 80
5, 54720, Note_on_c, 1, 65, 80
5, 54899, Note_on_c, 1, 57, 0
5, 54899, Note_on_c, 1, 62, 0
5, 54899, Note_on_c, 1, 65, 0
5, 55080, Note_on_c, 1, 57, 80
5, 55080, Note_on_c, 1, 62, 80
5, 55080, Note_on_c, 1, 65, 80
5, 55199, Note_on_c, 1, 57, 0
5, 55199, Note_on_c, 1, 62, 0
5, 55199, Note_on_c, 1, 65, 0
5, 55440, Note_on_c, 1, 57, 80
5, 55440, Note_on_c, 1, 62, 80
5, 55440, Note_on_c, 1, 65, 80
5, 55559, Note_on_c, 1, 57, 0
5, 55559, Note_on_c, 1, 62, 0
5, 55559, Note_on_c, 1, 65, 0
5, 55920, Note_on_c, 1, 59, 80
5, 55920, Note_on_c, 1, 62, 80
5, 55920, Note_on_c, 1, 67, 80
5, 56039, Note_on_c, 1, 59, 0
5, 56039, Note_on_c, 1, 62, 0
5, 56039, Note_on_c, 1, 67, 0
5, 56280, Note_on_c, 1, 59, 80
5, 56280, Note_on_c, 1, 62, 80
5, 56280, Note_on_c, 1, 67, 80
5, 56459, Note_on_c, 1, 59, 0
5, 56459, Note_on_c, 1, 62, 0
5, 56459, Note_on_c, 1, 67, 0
5, 56640, Note_on_c, 1, 59, 80
5, 56640, Note_on_c, 1, 62, 80
5, 56640, Note_on_c, 1, 67, 80
5, 56819, Note_on_c, 1, 59, 0
5, 56819, Note_on_c, 1, 62, 0
5, 56819, Note_on_c, 1, 67, 0
5, 57000, Note_on_c, 1, 59, 80
5, 57000, Note_on_c, 1, 62, 80
5, 57000, Note_on_c, 1, 67, 80
5, 57119, Note_on_c, 1, 59, 0
5, 57119, Note_on_c, 1, 62, 0
5, 57119, Note_on_c, 1, 67, 0
5, 57360, Note_on_c, 1, 59, 80
5, 57360, Note_on_c, 1, 62, 80
5, 57360, Note_on_c, 1, 67, 80
5, 57479, Note_on_c, 1, 59, 0
5, 57479, Note_on_c, 1, 62, 0
5, 57479, Note_on_c, 1, 67, 0
5, 57840, Note_on_c, 1, 55, 80
5, 57840, Note_on_c, 1, 60, 80
5, 57840, Note_on_c, 1, 64, 80
5, 57959, Note_on_c, 1, 55, 0
5, 57959, Note_on_c, 1, 60, 0
5, 57959, Note_on_c, 1, 64, 0
5, 58200, Note_on_c, 1, 55, 80
5, 58200, Note_on_c, 1, 60, 80
5, 58200, Note_on_c, 1, 64, 80
5, 58379, Note_on_c, 1, 55, 0
5, 58379, Note_on_c, 1, 60, 0
5, 58379, Note_on_c, 1, 64, 0
5, 58560, Note_on_c, 1, 55, 80
5, 58560, Note_on_c, 1, 60, 80
5, 58560, Note_on_c, 1, 64, 80
5, 58739, Note_on_c, 1, 55, 0
5, 58739, Note_on_c, 1, 60, 0
5, 58739, Note_on_c, 1, 64, 0
5, 58920, Note_on_c, 1, 55, 80
5, 58920, Note_on_c, 1, 60, 80
5, 58920, Note_on_c, 1, 64, 80
5, 59039, Note_on_c, 1, 55, 0
5, 59039, Note_on_c, 1, 60, 0
5, 59039, Note_on_c, 1, 64, 0
5, 59280, Note_on_c, 1, 55, 80
5, 59280, Note_on_c, 1, 60, 80
5, 59280, Note_on_c, 1, 64, 80
5, 59399, Note_on_c, 1, 55, 0
5, 59399, Note_on_c, 1, 60, 0
5, 59399, Note_on_c, 1, 64, 0
5, 59760, Note_on_c, 1, 57, 80
5, 59760, Note_on_c, 1, 60, 80
5, 59760, Note_on_c, 1, 64, 80
5, 59879, Note_on_c, 1, 57, 0
5, 59879, Note_on_c, 1, 60, 0
5, 59879, Note_on_c, 1, 64, 0
5, 60120, Note_on_c, 1, 57, 80
5, 60120, Note_on_c, 1, 60, 80
5, 60120, Note_on_c, 1, 64, 80
5, 60299, Note_on_c, 1, 57, 0
5, 60299, Note_on_c, 1, 60, 0
5, 60299, Note_on_c, 1, 64, 0
5, 60480, Note_on_c, 1, 57, 80
5, 60480, Note_on_c, 1, 60, 80
5, 60480, Note_on_c, 1, 64, 80
5, 60659, Note_on_c, 1, 57, 0
5, 60659, Note_on_c, 1, 60, 0
5, 60659, Note_on_c, 1, 64, 0
5, 60840, Note_on_c, 1, 57, 80
5, 60840, Note_on_c, 1, 60, 80
5, 60840, Note_on_c, 1, 64, 80
5, 60959, Note_on_c, 1, 57, 0
5, 60959, Note_on_c, 1, 60, 0
5, 60959, Note_on_c, 1, 64, 0
5, 61200, Note_on_c, 1, 57, 80
5, 61200, Note_on_c, 1, 60, 80
5, 61200, Note_on_c, 1, 64, 80
5, 61319, Note_on_c, 1, 57, 0
5, 61319, Note_on_c, 1, 60, 0
5, 61319, Note_on_c, 1, 64, 0
5, 61680, Note_on_c, 1, 53, 80
5, 61680, Note_on_c, 1, 59, 80
5, 61680, Note_on_c, 1, 62, 80
5, 61799, Note_on_c, 1, 53, 0
5, 61799, Note_on_c, 1, 59, 0
5, 61799, Note_on_c, 1, 62, 0
5, 62040, Note_on_c, 1, 53, 80
5, 62040, Note_on_c, 1, 59, 80
5, 62040, Note_on_c, 1, 62, 80
5, 62219, Note_on_c, 1, 53, 0
5, 62219, Note_on_c, 1, 59, 0
5, 62219, Note_on_c, 1, 62, 0
5, 62400, Note_on_c, 1, 53, 80
5, 62400, Note_on_c, 1, 59, 80
5, 62400, Note_on_c, 1, 62, 80
5, 62579, Note_on_c, 1, 53, 0
5, 62579, Note_on_c, 1, 59, 0
5, 62579, Note_on_c, 1, 62, 0
5, 62760, Note_on_c, 1, 53, 80
5, 62760, Note_on_c, 1, 59, 80
5, 62760, Note_on_c, 1, 62, 80
5, 62879, Note_on_c, 1, 53, 0
5, 62879, Note_on_c, 1, 59, 0
5, 62879, Note_on_c, 1, 62, 0
5, 63120, Note_on_c, 1, 53, 80
5, 63120, Note_on_c, 1, 59, 80
5, 63120, Note_on_c, 1, 62, 80
5, 63239, Note_on_c, 1, 53, 0
5, 63239, Note_on_c, 1, 59, 0
5, 63239, Note_on_c, 1, 62, 0
5, 63600, Note_on_c, 1, 57, 80
5, 63600, Note_on_c, 1, 59, 80
5, 63600, Note_on_c, 1, 64, 80
5, 63719, Note_on_c, 1, 57, 0
5, 63719, Note_on_c, 1, 59, 0
5, 63719, Note_on_c, 1, 64, 0
5, 63960, Note_on_c, 1, 57, 80
5, 63960, Note_on_c, 1, 59, 80
5, 63960, Note_on_c, 1, 64, 80
5, 64139, Note_on_c, 1, 57, 0
5, 64139, Note_on_c, 1, 59, 0
5, 64139, Note_on_c, 1, 64, 0
5, 64320, Note_on_c, 1, 57, 80
5, 64320, Note_on_c, 1, 59, 80
5, 64320, Note_on_c, 1, 64, 80
5, 64499, Note_on_c, 1, 57, 0
5, 64499, Note_on_c, 1, 59, 0
5, 64499, Note_on_c, 1, 64, 0
5, 64680, Note_on_c, 1, 57, 80
5, 64680, Note_on_c, 1, 59, 80
5, 64680, Note_on_c, 1, 64, 80
5, 64799, Note_on_c, 1, 57, 0
5, 64799, Note_on_c, 1, 59, 0
5, 64799, Note_on_c, 1, 64, 0
5, 65040, Note_on_c, 1, 57, 80
5, 65040, Note_on_c, 1, 59, 80
5, 65040, Note_on_c, 1, 64, 80
5, 65159, Note_on_c, 1, 57, 0
5, 65159, Note_on_c, 1, 59, 0
5, 65159, Note_on_c, 1, 64, 0
5, 65520, Note_on_c, 1, 59, 80
5, 65520, Note_on_c, 1, 64, 80
5, 65639, Note_on_c, 1, 59, 0
5, 65639, Note_on_c, 1, 64, 0
5, 65880, Note_on_c, 1, 59, 80
5, 65880, Note_on_c, 1, 64, 80
5, 66059, Note_on_c, 1, 59, 0
5, 66059, Note_on_c, 1, 64, 0
5, 66240, Note_on_c, 1, 59, 80
5, 66240, Note_on_c, 1, 64, 80
5, 66419, Note_on_c, 1, 59, 0
5, 66419, Note_on_c, 1, 64, 0
5, 66600, Note_on_c, 1, 59, 80
5, 66600, Note_on_c, 1, 64, 80
5, 66719, Note_on_c, 1, 59, 0
5, 66719, Note_on_c, 1, 64, 0
5, 66960, Note_on_c, 1, 59, 80
5, 66960, Note_on_c, 1, 64, 80
5, 67079, Note_on_c, 1, 59, 0
5, 67079, Note_on_c, 1, 64, 0
5, 67440, Note_on_c, 1, 57, 80
5, 67440, Note_on_c, 1, 60, 80
5, 67440, Note_on_c, 1, 64, 80
5, 67559, Note_on_c, 1, 57, 0
5, 67559, Note_on_c, 1, 60, 0
5, 67559, Note_on_c, 1, 64, 0
5, 67800, Note_on_c, 1, 57, 80
5, 67800, Note_on_c, 1, 60, 80
5, 67800, Note_on_c, 1, 64, 80
5, 67979, Note_on_c, 1, 57, 0
5, 67979, Note_on_c, 1, 60, 0
5, 67979, Note_on_c, 1, 64, 0
5, 68160, Note_on_c, 1, 57, 80
5, 68160, Note_on_c, 1, 60, 80
5, 68160, Note_on_c, 1, 64, 80
5, 68339, Note_on_c, 1, 57, 0
5, 68339, Note_on_c, 1, 60, 0
5, 68339, Note_on_c, 1, 64, 0
5, 68520, Note_on_c, 1, 57, 80
5, 68520, Note_on_c, 1, 60, 80
5, 68520, Note_on_c, 1, 64, 80
5, 68639, Note_on_c, 1, 57, 0
5, 68639, Note_on_c, 1, 60, 0
5, 68639, Note_on_c, 1, 64, 0
5, 68880, Note_on_c, 1, 57, 80
5, 68880, Note_on_c, 1, 60, 80
5, 68880, Note_on_c, 1, 64, 80
5, 68999, Note_on_c, 1, 57, 0
5, 68999, Note_on_c, 1, 60, 0
5, 68999, Note_on_c, 1, 64, 0
5, 69360, Note_on_c, 1, 57, 80
5, 69360, Note_on_c, 1, 62, 80
5, 69360, Note_on_c, 1, 65, 80
5, 69479, Note_on_c, 1, 57, 0
5, 69479, Note_on_c, 1, 62, 0
5, 69479, Note_on_c, 1, 65, 0
5, 69720, Note_on_c, 1, 57, 80
5, 69720, Note_on_c, 1, 62, 80
5, 69720, Note_on_c, 1, 65, 80
5, 69899, Note_on_c, 1, 57, 0
5, 69899, Note_on_c, 1, 62, 0
5, 69899, Note_on_c, 1, 65, 0
5, 70080, Note_on_c, 1, 57, 80
5, 70080, Note_on_c, 1, 62, 80
5, 70080, Note_on_c, 1, 65, 80
5, 70259, Note_on_c, 1, 57, 0
5, 70259, Note_on_c, 1, 62, 0
5, 70259, Note_on_c, 1, 65, 0
5, 70440, Note_on_c, 1, 57, 80
5, 70440, Note_on_c, 1, 62, 80
5, 70440, Note_on_c, 1, 65, 80
5, 70559, Note_on_c, 1, 57, 0
5, 70559, Note_on_c, 1, 62, 0
5, 70559, Note_on_c, 1, 65, 0
5, 70800, Note_on_c, 1, 57, 80
5, 70800, Note_on_c, 1, 62, 80
5, 70800, Note_on_c, 1, 65, 80
5, 70919, Note_on_c, 1, 57, 0
5, 70919, Note_on_c, 1, 62, 0
5, 70919, Note_on_c, 1, 65, 0
5, 71280, Note_on_c, 1, 59, 80
5, 71280, Note_on_c, 1, 62, 80
5, 71280, Note_on_c, 1, 67, 80
5, 71399, Note_on_c, 1, 59, 0
5, 71399, Note_on_c, 1, 62, 0
5, 71399, Note_on_c, 1, 67, 0
5, 71640, Note_on_c, 1, 59, 80
5, 71640, Note_on_c, 1, 62, 80
5, 71640, Note_on_c, 1, 67, 80
5, 71819, Note_on_c, 1, 59, 0
5, 71819, Note_on_c, 1, 62, 0
5, 71819, Note_on_c, 1, 67, 0
5, 72000, Note_on_c, 1, 59, 80
5, 72000, Note_on_c, 1, 62, 80
5, 72000, Note_on_c, 1, 67, 80
5, 72179, Note_on_c, 1, 59, 0
5, 72179, Note_on_c, 1, 62, 0
5, 72179, Note_on_c, 1, 67, 0
5, 72360, Note_on_c, 1, 59, 80
5, 72360, Note_on_c, 1, 62, 80
5, 72360, Note_on_c, 1, 67, 80
5, 72479, Note_on_c, 1, 59, 0
5, 72479, Note_on_c, 1, 62, 0
5, 72479, Note_on_c, 1, 67, 0
5, 72720, Note_on_c, 1, 59, 80
5, 72720, Note_on_c, 1, 62, 80
5, 72720, Note_on_c, 1, 67, 80
5, 72839, Note_on_c, 1, 59, 0
5, 72839, Note_on_c, 1, 62, 0
5, 72839, Note_on_c, 1, 67, 0
5, 73200, Note_on_c, 1, 55, 80
5, 73200, Note_on_c, 1, 60, 80
5, 73200, Note_on_c, 1, 64, 80
5, 73319, Note_on_c, 1, 55, 0
5, 73319, Note_on_c, 1, 60, 0
5, 73319, Note_on_c, 1, 64, 0
5, 73560, Note_on_c, 1, 55, 80
5, 73560, Note_on_c, 1, 60, 80
5, 73560, Note_on_c, 1, 64, 80
5, 73739, Note_on_c, 1, 55, 0
5, 73739, Note_on_c, 1, 60, 0
5, 73739, Note_on_c, 1, 64, 0
5, 73920, Note_on_c, 1, 55, 80
5, 73920, Note_on_c, 1, 60, 80
5, 73920, Note_on_c, 1, 64, 80
5, 74099, Note_on_c, 1, 55, 0
5, 74099, Note_on_c, 1, 60, 0
5, 74099, Note_on_c, 1, 64, 0
5, 74280, Note_on_c, 1, 55, 80
5, 74280, Note_on_c, 1, 60, 80
5, 74280, Note_on_c, 1, 64, 80
5, 74399, Note_on_c, 1, 55, 0
5, 74399, Note_on_c, 1, 60, 0
5, 74399, Note_on_c, 1, 64, 0
5, 74640, Note_on_c, 1, 55, 80
5, 74640, Note_on_c, 1, 60, 80
5, 74640, Note_on_c, 1, 64, 80
5, 74759, Note_on_c, 1, 55, 0
5, 74759, Note_on_c, 1, 60, 0
5, 74759, Note_on_c, 1, 64, 0
5, 75120, Note_on_c, 1, 57, 80
5, 75120, Note_on_c, 1, 60, 80
5, 75120, Note_on_c, 1, 64, 80
5, 75239, Note_on_c, 1, 57, 0
5, 75239, Note_on_c, 1, 60, 0
5, 75239, Note_on_c, 1, 64, 0
5, 75480, Note_on_c, 1, 57, 80
5, 75480, Note_on_c, 1, 60, 80
5, 75480, Note_on_c, 1, 64, 80
5, 75659, Note_on_c, 1, 57, 0
5, 75659, Note_on_c, 1, 60, 0
5, 75659, Note_on_c, 1, 64, 0
5, 75840, Note_on_c, 1, 57, 80
5, 75840, Note_on_c, 1, 60, 80
5, 75840, Note_on_c, 1, 64, 80
5, 76019, Note_on_c, 1, 57, 0
5, 76019, Note_on_c, 1, 60, 0
5, 76019, Note_on_c, 1, 64, 0
5, 76200, Note_on_c, 1, 57, 80
5, 76200, Note_on_c, 1, 60, 80
5, 76200, Note_on_c, 1, 64, 80
5, 76319, Note_on_c, 1, 57, 0
5, 76319, Note_on_c, 1, 60, 0
5, 76319, Note_on_c, 1, 64, 0
5, 76560, Note_on_c, 1, 57, 80
5, 76560, Note_on_c, 1, 60, 80
5, 76560, Note_on_c, 1, 64, 80
5, 76679, Note_on_c, 1, 57, 0
5, 76679, Note_on_c, 1, 60, 0
5, 76679, Note_on_c, 1, 64, 0
5, 77040, Note_on_c, 1, 53, 80
5, 77040, Note_on_c, 1, 59, 80
5, 77040, Note_on_c, 1, 62, 80
5, 77159, Note_on_c, 1, 53, 0
5, 77159, Note_on_c, 1, 59, 0
5, 77159, Note_on_c, 1, 62, 0
5, 77400, Note_on_c, 1, 53, 80
5, 77400, Note_on_c, 1, 59, 80
5, 77400, Note_on_c, 1, 62, 80
5, 77579, Note_on_c, 1, 53, 0
5, 77579, Note_on_c, 1, 59, 0
5, 77579, Note_on_c, 1, 62, 0
5, 77760, Note_on_c, 1, 53, 80
5, 77760, Note_on_c, 1, 59, 80
5, 77760, Note_on_c, 1, 62, 80
5, 77939, Note_on_c, 1, 53, 0
5, 77939, Note_on_c, 1, 59, 0
5, 77939, Note_on_c, 1, 62, 0
5, 78120, Note_on_c, 1, 53, 80
5, 78120, Note_on_c, 1, 59, 80
5, 78120, Note_on_c, 1, 62, 80
5, 78239, Note_on_c, 1, 53, 0
5, 78239, Note_on_c, 1, 59, 0
5, 78239, Note_on_c, 1, 62, 0
5, 78480, Note_on_c, 1, 53, 80
5, 78480, Note_on_c, 1, 59, 80
5, 78480, Note_on_c, 1, 62, 80
5, 78599, Note_on_c, 1, 53, 0
5, 78599, Note_on_c, 1, 59, 0
5, 78599, Note_on_c, 1, 62, 0
5, 78960, Note_on_c, 1, 57, 80
5, 78960, Note_on_c, 1, 59, 80
5, 78960, Note_on_c, 1, 64, 80
5, 79079, Note_on_c, 1, 57, 0
5, 79079, Note_on_c, 1, 59, 0
5, 79079, Note_on_c, 1, 64, 0
5, 79320, Note_on_c, 1, 57, 80
5, 79320, Note_on_c, 1, 59, 80
5, 79320, Note_on_c, 1, 64, 80
5, 79499, Note_on_c, 1, 57, 0
5, 79499, Note_on_c, 1, 59, 0
5, 79499, Note_on_c, 1, 64, 0
5, 79680, Note_on_c, 1, 57, 80
5, 79680, Note_on_c, 1, 59, 80
5, 79680, Note_on_c, 1, 64, 80
5, 79859, Note_on_c, 1, 57, 0
5, 79859, Note_on_c, 1, 59, 0
5, 79859, Note_on_c, 1, 64, 0
5, 80040, Note_on_c, 1, 57, 80
5, 80040, Note_on_c, 1, 59, 80
5, 80040, Note_on_c, 1, 64, 80
5, 80159, Note_on_c, 1, 57, 0
5, 80159, Note_on_c, 1, 59, 0
5, 80159, Note_on_c, 1, 64, 0
5, 80400, Note_on_c, 1, 57, 80
5, 80400, Note_on_c, 1, 59, 80
5, 80400, Note_on_c, 1, 64, 80
5, 80519, Note_on_c, 1, 57, 0
5, 80519, Note_on_c, 1, 59, 0
5, 80519, Note_on_c, 1, 64, 0
5, 80880, Note_on_c, 1, 59, 80
5, 80880, Note_on_c, 1, 64, 80
5, 80999, Note_on_c, 1, 59, 0
5, 80999, Note_on_c, 1, 64, 0
5, 81240, Note_on_c, 1, 59, 80
5, 81240, Note_on_c, 1, 64, 80
5, 81419, Note_on_c, 1, 59, 0
5, 81419, Note_on_c, 1, 64, 0
5, 81600, Note_on_c, 1, 59, 80
5, 81600, Note_on_c, 1, 64, 80
5, 81779, Note_on_c, 1, 59, 0
5, 81779, Note_on_c, 1, 64, 0
5, 81960, Note_on_c, 1, 59, 80
5, 81960, Note_on_c, 1, 64, 80
5, 82079, Note_on_c, 1, 59, 0
5, 82079, Note_on_c, 1, 64, 0
5, 82320, Note_on_c, 1, 59, 80
5, 82320, Note_on_c, 1, 64, 80
5, 82439, Note_on_c, 1, 59, 0
5, 82439, Note_on_c, 1, 64, 0
5, 82800, Note_on_c, 1, 60, 80
5, 82800, Note_on_c, 1, 64, 80
5, 82919, Note_on_c, 1, 60, 0
5, 82919, Note_on_c, 1, 64, 0
5, 83160, Note_on_c, 1, 60, 80
5, 83160, Note_on_c, 1, 64, 80
5, 83339, Note_on_c, 1, 60, 0
5, 83339, Note_on_c, 1, 64, 0
5, 83520, Note_on_c, 1, 60, 80
5, 83520, Note_on_c, 1, 64, 80
5, 83699, Note_on_c, 1, 60, 0
5, 83699, Note_on_c, 1, 64, 0
5, 83880, Note_on_c, 1, 60, 80
5, 83880, Note_on_c, 1, 64, 80
5, 83999, Note_on_c, 1, 60, 0
5, 83999, Note_on_c, 1, 64, 0
5, 84240, Note_on_c, 1, 60, 80
5, 84240, Note_on_c, 1, 64, 80
5, 84359, Note_on_c, 1, 60, 0
5, 84359, Note_on_c, 1, 64, 0
5, 84720, Note_on_c, 1, 62, 80
5, 84720, Note_on_c, 1, 65, 80
5, 84839, Note_on_c, 1, 62, 0
5, 84839, Note_on_c, 1, 65, 0
5, 85080, Note_on_c, 1, 62, 80
5, 85080, Note_on_c, 1, 65, 80
5, 85259, Note_on_c, 1, 62, 0
5, 85259, Note_on_c, 1, 65, 0
5, 85440, Note_on_c, 1, 62, 80
5, 85440, Note_on_c, 1, 65, 80
5, 85799, Note_on_c, 1, 62, 0
5, 85799, Note_on_c, 1, 65, 0
5, 85800, Note_on_c, 1, 62, 80
5, 85800, Note_on_c, 1, 65, 80
5, 85919, Note_on_c, 1, 62, 0
5, 85919, Note_on_c, 1, 65, 0
5, 86160, Note_on_c, 1, 62, 80
5, 86160, Note_on_c, 1, 65, 80
5, 86279, Note_on_c, 1, 62, 0
5, 86279, Note_on_c, 1, 65, 0
5, 86640, Note_on_c, 1, 62, 80
5, 86640, Note_on_c, 1, 67, 80
5, 86759, Note_on_c, 1, 62, 0
5, 86759, Note_on_c, 1, 67, 0
5, 87000, Note_on_c, 1, 62, 80
5, 87000, Note_on_c, 1, 67, 80
5, 87179, Note_on_c, 1, 62, 0
5, 87179, Note_on_c, 1, 67, 0
5, 87360, Note_on_c, 1, 62, 80
5, 87360, Note_on_c, 1, 67, 80
5, 87539, Note_on_c, 1, 62, 0
5, 87539, Note_on_c, 1, 67, 0
5, 87720, Note_on_c, 1, 62, 80
5, 87720, Note_on_c, 1, 67, 80
5, 87839, Note_on_c, 1, 62, 0
5, 87839, Note_on_c, 1, 67, 0
5, 88080, Note_on_c, 1, 62, 80
5, 88080, Note_on_c, 1, 67, 80
5, 88199, Note_on_c, 1, 62, 0
5, 88199, Note_on_c, 1, 67, 0
5, 88560, Note_on_c, 1, 60, 80
5, 88560, Note_on_c, 1, 64, 80
5, 88679, Note_on_c, 1, 60, 0
5, 88679, Note_on_c, 1, 64, 0
5, 88920, Note_on_c, 1, 60, 80
5, 88920, Note_on_c, 1, 64, 80
5, 89099, Note_on_c, 1, 60, 0
5, 89099, Note_on_c, 1, 64, 0
5, 89280, Note_on_c, 1, 60, 80
5, 89280, Note_on_c, 1, 64, 80
5, 89459, Note_on_c, 1, 60, 0
5, 89459, Note_on_c, 1, 64, 0
5, 89640, Note_on_c, 1, 60, 80
5, 89640, Note_on_c, 1, 64, 80
5, 89759, Note_on_c, 1, 60, 0
5, 89759, Note_on_c, 1, 64, 0
5, 90000, Note_on_c, 1, 60, 80
5, 90000, Note_on_c, 1, 64, 80
5, 90119, Note_on_c, 1, 60, 0
5, 90119, Note_on_c, 1, 64, 0
5, 90480, Note_on_c, 1, 57, 80
5, 90480, Note_on_c, 1, 60, 80
5, 90480, Note_on_c, 1, 64, 80
5, 90599, Note_on_c, 1, 57, 0
5, 90599, Note_on_c, 1, 60, 0
5, 90599, Note_on_c, 1, 64, 0
5, 90840, Note_on_c, 1, 57, 80
5, 90840, Note_on_c, 1, 60, 80
5, 90840, Note_on_c, 1, 64, 80
5, 91019, Note_on_c, 1, 57, 0
5, 91019, Note_on_c, 1, 60, 0
5, 91019, Note_on_c, 1, 64, 0
5, 91200, Note_on_c, 1, 57, 80
5, 91200, Note_on_c, 1, 60, 80
5, 91200, Note_on_c, 1, 64, 80
5, 91379, Note_on_c, 1, 57, 0
5, 91379, Note_on_c, 1, 60, 0
5, 91379, Note_on_c, 1, 64, 0
5, 91560, Note_on_c, 1, 57, 80
5, 91560, Note_on_c, 1, 60, 80
5, 91560, Note_on_c, 1, 64, 80
5, 91679, Note_on_c, 1, 57, 0
5, 91679, Note_on_c, 1, 60, 0
5, 91679, Note_on_c, 1, 64, 0
5, 91920, Note_on_c, 1, 57, 80
5, 91920, Note_on_c, 1, 60, 80
5, 91920, Note_on_c, 1, 64, 80
5, 92039, Note_on_c, 1, 57, 0
5, 92039, Note_on_c, 1, 60, 0
5, 92039, Note_on_c, 1, 64, 0
5, 92400, Note_on_c, 1, 53, 80
5, 92400, Note_on_c, 1, 59, 80
5, 92400, Note_on_c, 1, 62, 80
5, 92519, Note_on_c, 1, 53, 0
5, 92519, Note_on_c, 1, 59, 0
5, 92519, Note_on_c, 1, 62, 0
5, 92760, Note_on_c, 1, 53, 80
5, 92760, Note_on_c, 1, 59, 80
5, 92760, Note_on_c, 1, 62, 80
5, 92939, Note_on_c, 1, 53, 0
5, 92939, Note_on_c, 1, 59, 0
5, 92939, Note_on_c, 1, 62, 0
5, 93120, Note_on_c, 1, 53, 80
5, 93120, Note_on_c, 1, 59, 80
5, 93120, Note_on_c, 1, 62, 80
5, 93299, Note_on_c, 1, 53, 0
5, 93299, Note_on_c, 1, 59, 0
5, 93299, Note_on_c, 1, 62, 0
5, 93480, Note_on_c, 1, 53, 80
5, 93480, Note_on_c, 1, 59, 80
5, 93480, Note_on_c, 1, 62, 80
5, 93599, Note_on_c, 1, 53, 0
5, 93599, Note_on_c, 1, 59, 0
5, 93599, Note_on_c, 1, 62, 0
5, 93840, Note_on_c, 1, 53, 80
5, 93840, Note_on_c, 1, 59, 80
5, 93840, Note_on_c, 1, 62, 80
5, 93959, Note_on_c, 1, 53, 0
5, 93959, Note_on_c, 1, 59, 0
5, 93959, Note_on_c, 1, 62, 0
5, 94320, Note_on_c, 1, 57, 80
5, 94320, Note_on_c, 1, 59, 80
5, 94320, Note_on_c, 1, 64, 80
5, 94439, Note_on_c, 1, 57, 0
5, 94439, Note_on_c, 1, 59, 0
5, 94439, Note_on_c, 1, 64, 0
5, 94680, Note_on_c, 1, 57, 80
5, 94680, Note_on_c, 1, 59, 80
5, 94680, Note_on_c, 1, 64, 80
5, 94859, Note_on_c, 1, 57, 0
5, 94859, Note_on_c, 1, 59, 0
5, 94859, Note_on_c, 1, 64, 0
5, 95040, Note_on_c, 1, 57, 80
5, 95040, Note_on_c, 1, 59, 80
5, 95040, Note_on_c, 1, 64, 80
5, 95219, Note_on_c, 1, 57, 0
5, 95219, Note_on_c, 1, 59, 0
5, 95219, Note_on_c, 1, 64, 0
5, 95400, Note_on_c, 1, 57, 80
5, 95400, Note_on_c, 1, 59, 80
5, 95400, Note_on_c, 1, 64, 80
5, 95519, Note_on_c, 1, 57, 0
5, 95519, Note_on_c, 1, 59, 0
5, 95519, Note_on_c, 1, 64, 0
5, 95760, Note_on_c, 1, 57, 80
5, 95760, Note_on_c, 1, 59, 80
5, 95760, Note_on_c, 1, 64, 80
5, 95879, Note_on_c, 1, 57, 0
5, 95879, Note_on_c, 1, 59, 0
5, 95879, Note_on_c, 1, 64, 0
5, 96240, Note_on_c, 1, 59, 80
5, 96240, Note_on_c, 1, 64, 80
5, 96359, Note_on_c, 1, 59, 0
5, 96359, Note_on_c, 1, 64, 0
5, 96600, Note_on_c, 1, 59, 80
5, 96600, Note_on_c, 1, 64, 80
5, 96779, Note_on_c, 1, 59, 0
5, 96779, Note_on_c, 1, 64, 0
5, 96960, Note_on_c, 1, 59, 80
5, 96960, Note_on_c, 1, 64, 80
5, 97139, Note_on_c, 1, 59, 0
5, 97139, Note_on_c, 1, 64, 0
5, 97320, Note_on_c, 1, 59, 80
5, 97320, Note_on_c, 1, 64, 80
5, 97439, Note_on_c, 1, 59, 0
5, 97439, Note_on_c, 1, 64, 0
5, 97680, Note_on_c, 1, 59, 80
5, 97680, Note_on_c, 1, 64, 80
5, 97799, Note_on_c, 1, 59, 0
5, 97799, Note_on_c, 1, 64, 0
5, 98160, Note_on_c, 1, 60, 80
5, 98160, Note_on_c, 1, 64, 80
5, 98279, Note_on_c, 1, 60, 0
5, 98279, Note_on_c, 1, 64, 0
5, 98520, Note_on_c, 1, 60, 80
5, 98520, Note_on_c, 1, 64, 80
5, 98699, Note_on_c, 1, 60, 0
5, 98699, Note_on_c, 1, 64, 0
5, 98880, Note_on_c, 1, 60, 80
5, 98880, Note_on_c, 1, 64, 80
5, 99059, Note_on_c, 1, 60, 0
5, 99059, Note_on_c, 1, 64, 0
5, 99240, Note_on_c, 1, 60, 80
5, 99240, Note_on_c, 1, 64, 80
5, 99359, Note_on_c, 1, 60, 0
5, 99359, Note_on_c, 1, 64, 0
5, 99600, Note_on_c, 1, 60, 80
5, 99600, Note_on_c, 1, 64, 80
5, 99719, Note_on_c, 1, 60, 0
5, 99719, Note_on_c, 1, 64, 0
5, 100080, Note_on_c, 1, 62, 80
5, 100199, Note_on_c, 1, 62, 0
5, 100440, Note_on_c, 1, 62, 80
5, 100440, Note_on_c, 1, 65, 80
5, 100799, Note_on_c, 1, 62, 0
5, 100799, Note_on_c, 1, 65, 0
5, 100800, Note_on_c, 1, 62, 80
5, 100800, Note_on_c, 1, 65, 80
5, 100979, Note_on_c, 1, 62, 0
5, 100979, Note_on_c, 1, 65, 0
5, 101160, Note_on_c, 1, 62, 80
5, 101160, Note_on_c, 1, 65, 80
5, 101279, Note_on_c, 1, 62, 0
5, 101279, Note_on_c, 1, 65, 0
5, 101520, Note_on_c, 1, 62, 80
5, 101520, Note_on_c, 1, 65, 80
5, 101639, Note_on_c, 1, 62, 0
5, 101639, Note_on_c, 1, 65, 0
5, 102000, Note_on_c, 1, 62, 80
5, 102000, Note_on_c, 1, 67, 80
5, 102119, Note_on_c, 1, 62, 0
5, 102119, Note_on_c, 1, 67, 0
5, 102360, Note_on_c, 1, 62, 80
5, 102360, Note_on_c, 1, 67, 80
5, 102539, Note_on_c, 1, 62, 0
5, 102539, Note_on_c, 1, 67, 0
5, 102720, Note_on_c, 1, 62, 80
5, 102720, Note_on_c, 1, 67, 80
5, 102899, Note_on_c, 1, 62, 0
5, 102899, Note_on_c, 1, 67, 0
5, 103080, Note_on_c, 1, 62, 80
5, 103080, Note_on_c, 1, 67, 80
5, 103199, Note_on_c, 1, 62, 0
5, 103199, Note_on_c, 1, 67, 0
5, 103440, Note_on_c, 1, 62, 80
5, 103440, Note_on_c, 1, 67, 80
5, 103559, Note_on_c, 1, 62, 0
5, 103559, Note_on_c, 1, 67, 0
5, 103920, Note_on_c, 1, 60, 80
5, 103920, Note_on_c, 1, 64, 80
5, 104039, Note_on_c, 1, 60, 0
5, 104039, Note_on_c, 1, 64, 0
5, 104280, Note_on_c, 1, 60, 80
5, 104280, Note_on_c, 1, 64, 80
5, 104459, Note_on_c, 1, 60, 0
5, 104459, Note_on_c, 1, 64, 0
5, 104640, Note_on_c, 1, 60, 80
5, 104640, Note_on_c, 1, 64, 80
5, 104819, Note_on_c, 1, 60, 0
5, 104819, Note_on_c, 1, 64, 0
5, 105000, Note_on_c, 1, 60, 80
5, 105000, Note_on_c, 1, 64, 80
5, 105119, Note_on_c, 1, 60, 0
5, 105119, Note_on_c, 1, 64, 0
5, 105360, Note_on_c, 1, 60, 80
5, 105360, Note_on_c, 1, 64, 80
5, 105479, Note_on_c, 1, 60, 0
5, 105479, Note_on_c, 1, 64, 0
5, 105840, Note_on_c, 1, 60, 80
5, 105840, Note_on_c, 1, 64, 80
5, 105959, Note_on_c, 1, 60, 0
5, 105959, Note_on_c, 1, 64, 0
5, 106200, Note_on_c, 1, 60, 80
5, 106200, Note_on_c, 1, 64, 80
5, 106379, Note_on_c, 1, 60, 0
5, 106379, Note_on_c, 1, 64, 0
5, 106560, Note_on_c, 1, 60, 80
5, 106560, Note_on_c, 1, 64, 80
5, 106739, Note_on_c, 1, 60, 0
5, 106739, Note_on_c, 1, 64, 0
5, 106920, Note_on_c, 1, 60, 80
5, 106920, Note_on_c, 1, 64, 80
5, 107039, Note_on_c, 1, 60, 0
5, 107039, Note_on_c, 1, 64, 0
5, 107280, Note_on_c, 1, 60, 80
5, 107280, Note_on_c, 1, 64, 80
5, 107399, Note_on_c, 1, 60, 0
5, 107399, Note_on_c, 1, 64, 0
5, 107760, Note_on_c, 1, 59, 80
5, 107760, Note_on_c, 1, 62, 80
5, 107879, Note_on_c, 1, 59, 0
5, 107879, Note_on_c, 1, 62, 0
5, 108120, Note_on_c, 1, 59, 80
5, 108120, Note_on_c, 1, 62, 80
5, 108299, Note_on_c, 1, 59, 0
5, 108299, Note_on_c, 1, 62, 0
5, 108480, Note_on_c, 1, 59, 80
5, 108480, Note_on_c, 1, 62, 80
5, 108659, Note_on_c, 1, 59, 0
5, 108659, Note_on_c, 1, 62, 0
5, 108840, Note_on_c, 1, 59, 80
5, 108840, Note_on_c, 1, 62, 80
5, 108959, Note_on_c, 1, 59, 0
5, 108959, Note_on_c, 1, 62, 0
5, 109200, Note_on_c, 1, 59, 80
5, 109200, Note_on_c, 1, 62, 80
5, 109319, Note_on_c, 1, 59, 0
5, 109319, Note_on_c, 1, 62, 0
5, 109680, Note_on_c, 1, 57, 80
5, 109680, Note_on_c, 1, 64, 80
5, 109799, Note_on_c, 1, 57, 0
5, 109799, Note_on_c, 1, 64, 0
5, 110040, Note_on_c, 1, 57, 80
5, 110040, Note_on_c, 1, 64, 80
5, 110219, Note_on_c, 1, 57, 0
5, 110219, Note_on_c, 1, 64, 0
5, 110400, Note_on_c, 1, 57, 80
5, 110400, Note_on_c, 1, 64, 80
5, 110579, Note_on_c, 1, 57, 0
5, 110579, Note_on_c, 1, 64, 0
5, 110760, Note_on_c, 1, 57, 80
5, 110760, Note_on_c, 1, 64, 80
5, 110879, Note_on_c, 1, 57, 0
5, 110879, Note_on_c, 1, 64, 0
5, 111120, Note_on_c, 1, 57, 80
5, 111120, Note_on_c, 1, 64, 80
5, 111239, Note_on_c, 1, 57, 0
5, 111239, Note_on_c, 1, 64, 0
5, 111600, Note_on_c, 1, 59, 80
5, 111600, Note_on_c, 1, 64, 80
5, 111719, Note_on_c, 1, 59, 0
5, 111719, Note_on_c, 1, 64, 0
5, 111960, Note_on_c, 1, 59, 80
5, 111960, Note_on_c, 1, 64, 80
5, 112139, Note_on_c, 1, 59, 0
5, 112139, Note_on_c, 1, 64, 0
5, 112320, Note_on_c, 1, 59, 80
5, 112320, Note_on_c, 1, 64, 80
5, 112499, Note_on_c, 1, 59, 0
5, 112499, Note_on_c, 1, 64, 0
5, 112680, Note_on_c, 1, 59, 80
5, 112680, Note_on_c, 1, 64, 80
5, 112799, Note_on_c, 1, 59, 0
5, 112799, Note_on_c, 1, 64, 0
5, 113040, Note_on_c, 1, 59, 80
5, 113040, Note_on_c, 1, 64, 80
5, 113159, Note_on_c, 1, 59, 0
5, 113159, Note_on_c, 1, 64, 0
5, 113520, Note_on_c, 1, 60, 80
5, 113520, Note_on_c, 1, 64, 80
5, 113639, Note_on_c, 1, 60, 0
5, 113639, Note_on_c, 1, 64, 0
5, 113880, Note_on_c, 1, 60, 80
5, 113880, Note_on_c, 1, 64, 80
5, 114059, Note_on_c, 1, 60, 0
5, 114059, Note_on_c, 1, 64, 0
5, 114240, Note_on_c, 1, 60, 80
5, 114240, Note_on_c, 1, 64, 80
5, 114419, Note_on_c, 1, 60, 0
5, 114419, Note_on_c, 1, 64, 0
5, 114600, Note_on_c, 1, 60, 80
5, 114600, Note_on_c, 1, 64, 80
5, 114719, Note_on_c, 1, 60, 0
5, 114719, Note_on_c, 1, 64, 0
5, 114960, Note_on_c, 1, 60, 80
5, 114960, Note_on_c, 1, 64, 80
5, 115079, Note_on_c, 1, 60, 0
5, 115079, Note_on_c, 1, 64, 0
5, 115440, Note_on_c, 1, 62, 80
5, 115559, Note_on_c, 1, 62, 0
5, 115800, Note_on_c, 1, 62, 80
5, 115800, Note_on_c, 1, 65, 80
5, 116159, Note_on_c, 1, 62, 0
5, 116159, Note_on_c, 1, 65, 0
5, 116160, Note_on_c, 1, 62, 80
5, 116160, Note_on_c, 1, 65, 80
5, 116339, Note_on_c, 1, 62, 0
5, 116339, Note_on_c, 1, 65, 0
5, 116520, Note_on_c, 1, 62, 80
5, 116520, Note_on_c, 1, 65, 80
5, 116639, Note_on_c, 1, 62, 0
5, 116639, Note_on_c, 1, 65, 0
5, 116880, Note_on_c, 1, 62, 80
5, 116880, Note_on_c, 1, 65, 80
5, 116999, Note_on_c, 1, 62, 0
5, 116999, Note_on_c, 1, 65, 0
5, 117360, Note_on_c, 1, 62, 80
5, 117360, Note_on_c, 1, 67, 80
5, 117479, Note_on_c, 1, 62, 0
5, 117479, Note_on_c, 1, 67, 0
5, 117720, Note_on_c, 1, 62, 80
5, 117720, Note_on_c, 1, 67, 80
5, 117899, Note_on_c, 1, 62, 0
5, 117899, Note_on_c, 1, 67, 0
5, 118080, Note_on_c, 1, 62, 80
5, 118080, Note_on_c, 1, 67, 80
5, 118259, Note_on_c, 1, 62, 0
5, 118259, Note_on_c, 1, 67, 0
5, 118440, Note_on_c, 1, 62, 80
5, 118440, Note_on_c, 1, 67, 80
5, 118559, Note_on_c, 1, 62, 0
5, 118559, Note_on_c, 1, 67, 0
5, 118800, Note_on_c, 1, 62, 80
5, 118800, Note_on_c, 1, 67, 80
5, 118919, Note_on_c, 1, 62, 0
5, 118919, Note_on_c, 1, 67, 0
5, 119280, Note_on_c, 1, 60, 80
5, 119280, Note_on_c, 1, 64, 80
5, 119399, Note_on_c, 1, 60, 0
5, 119399, Note_on_c, 1, 64, 0
5, 119640, Note_on_c, 1, 60, 80
5, 119640, Note_on_c, 1, 64, 80
5, 119819, Note_on_c, 1, 60, 0
5, 119819, Note_on_c, 1, 64, 0
5, 120000, Note_on_c, 1, 60, 80
5, 120000, Note_on_c, 1, 64, 80
5, 120179, Note_on_c, 1, 60, 0
5, 120179, Note_on_c, 1, 64, 0
5, 120360, Note_on_c, 1, 60, 80
5, 120360, Note_on_c, 1, 64, 80
5, 120479, Note_on_c, 1, 60, 0
5, 120479, Note_on_c, 1, 64, 0
5, 120720, Note_on_c, 1, 60, 80
5, 120720, Note_on_c, 1, 64, 80
5, 120839, Note_on_c, 1, 60, 0
5, 120839, Note_on_c, 1, 64, 0
5, 121200, Note_on_c, 1, 60, 80
5, 121200, Note_on_c, 1, 64, 80
5, 121319, Note_on_c, 1, 60, 0
5, 121319, Note_on_c, 1, 64, 0
5, 121560, Note_on_c, 1, 60, 80
5, 121560, Note_on_c, 1, 64, 80
5, 121739, Note_on_c, 1, 60, 0
5, 121739, Note_on_c, 1, 64, 0
5, 121920, Note_on_c, 1, 60, 80
5, 121920, Note_on_c, 1, 64, 80
5, 122099, Note_on_c, 1, 60, 0
5, 122099, Note_on_c, 1, 64, 0
5, 122280, Note_on_c, 1, 60, 80
5, 122280, Note_on_c, 1, 64, 80
5, 122399, Note_on_c, 1, 60, 0
5, 122399, Note_on_c, 1, 64, 0
5, 122640, Note_on_c, 1, 60, 80
5, 122640, Note_on_c, 1, 64, 80
5, 122759, Note_on_c, 1, 60, 0
5, 122759, Note_on_c, 1, 64, 0
5, 123120, Note_on_c, 1, 59, 80
5, 123120, Note_on_c, 1, 62, 80
5, 123239, Note_on_c, 1, 59, 0
5, 123239, Note_on_c, 1, 62, 0
5, 123480, Note_on_c, 1, 59, 80
5, 123480, Note_on_c, 1, 62, 80
5, 123659, Note_on_c, 1, 59, 0
5, 123659, Note_on_c, 1, 62, 0
5, 123840, Note_on_c, 1, 59, 80
5, 123840, Note_on_c, 1, 62, 80
5, 124019, Note_on_c, 1, 59, 0
5, 124019, Note_on_c, 1, 62, 0
5, 124200, Note_on_c, 1, 59, 80
5, 124200, Note_on_c, 1, 62, 80
5, 124319, Note_on_c, 1, 59, 0
5, 124319, Note_on_c, 1, 62, 0
5, 124560, Note_on_c, 1, 59, 80
5, 124560, Note_on_c, 1, 62, 80
5, 124679, Note_on_c, 1, 59, 0
5, 124679, Note_on_c, 1, 62, 0
5, 125040, Note_on_c, 1, 57, 80
5, 125040, Note_on_c, 1, 64, 80
5, 125159, Note_on_c, 1, 57, 0
5, 125159, Note_on_c, 1, 64, 0
5, 125400, Note_on_c, 1, 57, 80
5, 125400, Note_on_c, 1, 64, 80
5, 125579, Note_on_c, 1, 57, 0
5, 125579, Note_on_c, 1, 64, 0
5, 125760, Note_on_c, 1, 57, 80
5, 125760, Note_on_c, 1, 64, 80
5, 125939, Note_on_c, 1, 57, 0
5, 125939, Note_on_c, 1, 64, 0
5, 126120, Note_on_c, 1, 57, 80
5, 126120, Note_on_c, 1, 64, 80
5, 126239, Note_on_c, 1, 57, 0
5, 126239, Note_on_c, 1, 64, 0
5, 126480, Note_on_c, 1, 57, 80
5, 126480, Note_on_c, 1, 64, 80
5, 126599, Note_on_c, 1, 57, 0
5, 126599, Note_on_c, 1, 64, 0
5, 126960, Note_on_c, 1, 59, 80
5, 126960, Note_on_c, 1, 64, 80
5, 127079, Note_on_c, 1, 59, 0
5, 127079, Note_on_c, 1, 64, 0
5, 127320, Note_on_c, 1, 59, 80
5, 127320, Note_on_c, 1, 64, 80
5, 127499, Note_on_c, 1, 59, 0
5, 127499, Note_on_c, 1, 64, 0
5, 127680, Note_on_c, 1, 59, 80
5, 127680, Note_on_c, 1, 64, 80
5, 128159, Note_on_c, 1, 59, 0
5, 128159, Note_on_c, 1, 64, 0
5, 128160, End_track
0, 0, End_of_file
