0, 0, Header, 1, 5, 480
1, 0, Start_track
1, 0, Title_t, "Piano, Piano, Piano\000"
1, 0, Time_signature, 4, 2, 24, 8
1, 0, Key_signature, 0, "major"
1, 0, Tempo, 483871
1, 0, Control_c, 1, 121, 0
1, 0, Program_c, 1, 0
1, 0, Control_c, 1, 7, 100
1, 0, Control_c, 1, 10, 64
1, 0, Control_c, 1, 91, 0
1, 0, Control_c, 1, 93, 0
1, 0, MIDI_port, 0
1, 0, Note_on_c, 1, 57, 80
1, 0, Note_on_c, 1, 60, 80
1, 0, Note_on_c, 1, 64, 80
1, 1823, Note_on_c, 1, 57, 0
1, 1823, Note_on_c, 1, 60, 0
1, 1823, Note_on_c, 1, 64, 0
1, 1920, Note_on_c, 1, 55, 80
1, 1920, Note_on_c, 1, 60, 80
1, 1920, Note_on_c, 1, 64, 80
1, 3743, Note_on_c, 1, 55, 0
1, 3743, Note_on_c, 1, 60, 0
1, 3743, Note_on_c, 1, 64, 0
1, 3840, Note_on_c, 1, 55, 80
1, 3840, Note_on_c, 1, 59, 80
1, 3840, Note_on_c, 1, 64, 80
1, 5663, Note_on_c, 1, 55, 0
1, 5663, Note_on_c, 1, 59, 0
1, 5663, Note_on_c, 1, 64, 0
1, 5760, Note_on_c, 1, 55, 80
1, 5760, Note_on_c, 1, 59, 80
1, 5760, Note_on_c, 1, 62, 80
1, 7583, Note_on_c, 1, 55, 0
1, 7583, Note_on_c, 1, 59, 0
1, 7583, Note_on_c, 1, 62, 0
1, 7680, Note_on_c, 1, 57, 80
1, 7680, Note_on_c, 1, 60, 80
1, 7680, Note_on_c, 1, 64, 80
1, 9503, Note_on_c, 1, 57, 0
1, 9503, Note_on_c, 1, 60, 0
1, 9503, Note_on_c, 1, 64, 0
1, 9600, Note_on_c, 1, 55, 80
1, 9600, Note_on_c, 1, 60, 80
1, 9600, Note_on_c, 1, 64, 80
1, 11423, Note_on_c, 1, 55, 0
1, 11423, Note_on_c, 1, 60, 0
1, 11423, Note_on_c, 1, 64, 0
1, 11520, Note_on_c, 1, 55, 80
1, 11520, Note_on_c, 1, 59, 80
1, 11520, Note_on_c, 1, 64, 80
1, 13343, Note_on_c, 1, 55, 0
1, 13343, Note_on_c, 1, 59, 0
1, 13343, Note_on_c, 1, 64, 0
1, 13440, Note_on_c, 1, 55, 80
1, 13440, Note_on_c, 1, 59, 80
1, 13440, Note_on_c, 1, 62, 80
1, 15263, Note_on_c, 1, 55, 0
1, 15263, Note_on_c, 1, 59, 0
1, 15263, Note_on_c, 1, 62, 0
1, 15360, Note_on_c, 1, 57, 80
1, 15360, Note_on_c, 1, 60, 80
1, 15360, Note_on_c, 1, 64, 80
1, 17183, Note_on_c, 1, 57, 0
1, 17183, Note_on_c, 1, 60, 0
1, 17183, Note_on_c, 1, 64, 0
1, 17280, Note_on_c, 1, 55, 80
1, 17280, Note_on_c, 1, 60, 80
1, 17280, Note_on_c, 1, 64, 80
1, 19103, Note_on_c, 1, 55, 0
1, 19103, Note_on_c, 1, 60, 0
1, 19103, Note_on_c, 1, 64, 0
1, 19200, Note_on_c, 1, 55, 80
1, 19200, Note_on_c, 1, 59, 80
1, 19200, Note_on_c, 1, 64, 80
1, 21023, Note_on_c, 1, 55, 0
1, 21023, Note_on_c, 1, 59, 0
1, 21023, Note_on_c, 1, 64, 0
1, 21120, Note_on_c, 1, 55, 80
1, 21120, Note_on_c, 1, 59, 80
1, 21120, Note_on_c, 1, 62, 80
1, 22943, Note_on_c, 1, 55, 0
1, 22943, Note_on_c, 1, 59, 0
1, 22943, Note_on_c, 1, 62, 0
1, 23040, Note_on_c, 1, 57, 80
1, 23040, Note_on_c, 1, 60, 80
1, 23040, Note_on_c, 1, 64, 80
1, 24863, Note_on_c, 1, 57, 0
1, 24863, Note_on_c, 1, 60, 0
1, 24863, Note_on_c, 1, 64, 0
1, 24960, Note_on_c, 1, 55, 80
1, 24960, Note_on_c, 1, 60, 80
1, 24960, Note_on_c, 1, 64, 80
1, 26783, Note_on_c, 1, 55, 0
1, 26783, Note_on_c, 1, 60, 0
1, 26783, Note_on_c, 1, 64, 0
1, 26880, Note_on_c, 1, 55, 80
1, 26880, Note_on_c, 1, 59, 80
1, 26880, Note_on_c, 1, 64, 80
1, 28703, Note_on_c, 1, 55, 0
1, 28703, Note_on_c, 1, 59, 0
1, 28703, Note_on_c, 1, 64, 0
1, 28800, Note_on_c, 1, 55, 80
1, 28800, Note_on_c, 1, 59, 80
1, 28800, Note_on_c, 1, 62, 80
1, 30623, Note_on_c, 1, 55, 0
1, 30623, Note_on_c, 1, 59, 0
1, 30623, Note_on_c, 1, 62, 0
1, 30720, Note_on_c, 1, 57, 80
1, 30720, Note_on_c, 1, 60, 80
1, 30720, Note_on_c, 1, 64, 80
1, 32543, Note_on_c, 1, 57, 0
1, 32543, Note_on_c, 1, 60, 0
1, 32543, Note_on_c, 1, 64, 0
1, 32640, Note_on_c, 1, 55, 80
1, 32640, Note_on_c, 1, 60, 80
1, 32640, Note_on_c, 1, 64, 80
1, 34463, Note_on_c, 1, 55, 0
1, 34463, Note_on_c, 1, 60, 0
1, 34463, Note_on_c, 1, 64, 0
1, 34560, Note_on_c, 1, 55, 80
1, 34560, Note_on_c, 1, 59, 80
1, 34560, Note_on_c, 1, 64, 80
1, 36383, Note_on_c, 1, 55, 0
1, 36383, Note_on_c, 1, 59, 0
1, 36383, Note_on_c, 1, 64, 0
1, 36480, Note_on_c, 1, 55, 80
1, 36480, Note_on_c, 1, 59, 80
1, 36480, Note_on_c, 1, 62, 80
1, 38303, Note_on_c, 1, 55, 0
1, 38303, Note_on_c, 1, 59, 0
1, 38303, Note_on_c, 1, 62, 0
1, 38400, Note_on_c, 1, 57, 80
1, 38400, Note_on_c, 1, 60, 80
1, 38400, Note_on_c, 1, 64, 80
1, 40223, Note_on_c, 1, 57, 0
1, 40223, Note_on_c, 1, 60, 0
1, 40223, Note_on_c, 1, 64, 0
1, 40320, Note_on_c, 1, 55, 80
1, 40320, Note_on_c, 1, 60, 80
1, 40320, Note_on_c, 1, 64, 80
1, 42143, Note_on_c, 1, 55, 0
1, 42143, Note_on_c, 1, 60, 0
1, 42143, Note_on_c, 1, 64, 0
1, 42240, Note_on_c, 1, 55, 80
1, 42240, Note_on_c, 1, 59, 80
1, 42240, Note_on_c, 1, 64, 80
1, 44063, Note_on_c, 1, 55, 0
1, 44063, Note_on_c, 1, 59, 0
1, 44063, Note_on_c, 1, 64, 0
1, 44160, Note_on_c, 1, 55, 80
1, 44160, Note_on_c, 1, 59, 80
1, 44160, Note_on_c, 1, 62, 80
1, 45983, Note_on_c, 1, 55, 0
1, 45983, Note_on_c, 1, 59, 0
1, 45983, Note_on_c, 1, 62, 0
1, 46080, Note_on_c, 1, 57, 80
1, 46080, Note_on_c, 1, 60, 80
1, 46080, Note_on_c, 1, 64, 80
1, 47903, Note_on_c, 1, 57, 0
1, 47903, Note_on_c, 1, 60, 0
1, 47903, Note_on_c, 1, 64, 0
1, 48000, Note_on_c, 1, 55, 80
1, 48000, Note_on_c, 1, 60, 80
1, 48000, Note_on_c, 1, 64, 80
1, 49823, Note_on_c, 1, 55, 0
1, 49823, Note_on_c, 1, 60, 0
1, 49823, Note_on_c, 1, 64, 0
1, 49920, Note_on_c, 1, 55, 80
1, 49920, Note_on_c, 1, 59, 80
1, 49920, Note_on_c, 1, 64, 80
1, 51743, Note_on_c, 1, 55, 0
1, 51743, Note_on_c, 1, 59, 0
1, 51743, Note_on_c, 1, 64, 0
1, 51840, Note_on_c, 1, 55, 80
1, 51840, Note_on_c, 1, 59, 80
1, 51840, Note_on_c, 1, 62, 80
1, 53663, Note_on_c, 1, 55, 0
1, 53663, Note_on_c, 1, 59, 0
1, 53663, Note_on_c, 1, 62, 0
1, 53760, Note_on_c, 1, 57, 80
1, 53760, Note_on_c, 1, 60, 80
1, 53760, Note_on_c, 1, 64, 80
1, 55583, Note_on_c, 1, 57, 0
1, 55583, Note_on_c, 1, 60, 0
1, 55583, Note_on_c, 1, 64, 0
1, 55680, Note_on_c, 1, 55, 80
1, 55680, Note_on_c, 1, 60, 80
1, 55680, Note_on_c, 1, 64, 80
1, 57503, Note_on_c, 1, 55, 0
1, 57503, Note_on_c, 1, 60, 0
1, 57503, Note_on_c, 1, 64, 0
1, 57600, Note_on_c, 1, 55, 80
1, 57600, Note_on_c, 1, 59, 80
1, 57600, Note_on_c, 1, 64, 80
1, 59423, Note_on_c, 1, 55, 0
1, 59423, Note_on_c, 1, 59, 0
1, 59423, Note_on_c, 1, 64, 0
1, 59520, Note_on_c, 1, 55, 80
1, 59520, Note_on_c, 1, 59, 80
1, 59520, Note_on_c, 1, 62, 80
1, 61343, Note_on_c, 1, 55, 0
1, 61343, Note_on_c, 1, 59, 0
1, 61343, Note_on_c, 1, 62, 0
1, 61440, Note_on_c, 1, 57, 80
1, 61440, Note_on_c, 1, 60, 80
1, 61440, Note_on_c, 1, 64, 80
1, 63263, Note_on_c, 1, 57, 0
1, 63263, Note_on_c, 1, 60, 0
1, 63263, Note_on_c, 1, 64, 0
1, 63360, Note_on_c, 1, 55, 80
1, 63360, Note_on_c, 1, 60, 80
1, 63360, Note_on_c, 1, 64, 80
1, 65183, Note_on_c, 1, 55, 0
1, 65183, Note_on_c, 1, 60, 0
1, 65183, Note_on_c, 1, 64, 0
1, 65280, Note_on_c, 1, 55, 80
1, 65280, Note_on_c, 1, 59, 80
1, 65280, Note_on_c, 1, 64, 80
1, 67103, Note_on_c, 1, 55, 0
1, 67103, Note_on_c, 1, 59, 0
1, 67103, Note_on_c, 1, 64, 0
1, 67200, Note_on_c, 1, 55, 80
1, 67200, Note_on_c, 1, 59, 80
1, 67200, Note_on_c, 1, 62, 80
1, 69023, Note_on_c, 1, 55, 0
1, 69023, Note_on_c, 1, 59, 0
1, 69023, Note_on_c, 1, 62, 0
1, 69120, Note_on_c, 1, 57, 80
1, 69120, Note_on_c, 1, 60, 80
1, 69120, Note_on_c, 1, 64, 80
1, 70943, Note_on_c, 1, 57, 0
1, 70943, Note_on_c, 1, 60, 0
1, 70943, Note_on_c, 1, 64, 0
1, 71040, Note_on_c, 1, 55, 80
1, 71040, Note_on_c, 1, 60, 80
1, 71040, Note_on_c, 1, 64, 80
1, 72863, Note_on_c, 1, 55, 0
1, 72863, Note_on_c, 1, 60, 0
1, 72863, Note_on_c, 1, 64, 0
1, 72960, Note_on_c, 1, 55, 80
1, 72960, Note_on_c, 1, 59, 80
1, 72960, Note_on_c, 1, 64, 80
1, 74783, Note_on_c, 1, 55, 0
1, 74783, Note_on_c, 1, 59, 0
1, 74783, Note_on_c, 1, 64, 0
1, 74880, Note_on_c, 1, 55, 80
1, 74880, Note_on_c, 1, 59, 80
1, 74880, Note_on_c, 1, 62, 80
1, 76703, Note_on_c, 1, 55, 0
1, 76703, Note_on_c, 1, 59, 0
1, 76703, Note_on_c, 1, 62, 0
1, 76800, Note_on_c, 1, 57, 80
1, 76800, Note_on_c, 1, 60, 80
1, 76800, Note_on_c, 1, 64, 80
1, 78623, Note_on_c, 1, 57, 0
1, 78623, Note_on_c, 1, 60, 0
1, 78623, Note_on_c, 1, 64, 0
1, 78720, Note_on_c, 1, 55, 80
1, 78720, Note_on_c, 1, 60, 80
1, 78720, Note_on_c, 1, 64, 80
1, 80543, Note_on_c, 1, 55, 0
1, 80543, Note_on_c, 1, 60, 0
1, 80543, Note_on_c, 1, 64, 0
1, 80640, Note_on_c, 1, 55, 80
1, 80640, Note_on_c, 1, 59, 80
1, 80640, Note_on_c, 1, 64, 80
1, 82463, Note_on_c, 1, 55, 0
1, 82463, Note_on_c, 1, 59, 0
1, 82463, Note_on_c, 1, 64, 0
1, 82560, Note_on_c, 1, 55, 80
1, 82560, Note_on_c, 1, 59, 80
1, 82560, Note_on_c, 1, 62, 80
1, 84383, Note_on_c, 1, 55, 0
1, 84383, Note_on_c, 1, 59, 0
1, 84383, Note_on_c, 1, 62, 0
1, 84480, Note_on_c, 1, 57, 80
1, 84480, Note_on_c, 1, 60, 80
1, 84480, Note_on_c, 1, 64, 80
1, 86303, Note_on_c, 1, 57, 0
1, 86303, Note_on_c, 1, 60, 0
1, 86303, Note_on_c, 1, 64, 0
1, 86400, Note_on_c, 1, 55, 80
1, 86400, Note_on_c, 1, 60, 80
1, 86400, Note_on_c, 1, 64, 80
1, 88223, Note_on_c, 1, 55, 0
1, 88223, Note_on_c, 1, 60, 0
1, 88223, Note_on_c, 1, 64, 0
1, 88320, Note_on_c, 1, 55, 80
1, 88320, Note_on_c, 1, 59, 80
1, 88320, Note_on_c, 1, 64, 80
1, 90143, Note_on_c, 1, 55, 0
1, 90143, Note_on_c, 1, 59, 0
1, 90143, Note_on_c, 1, 64, 0
1, 90240, Note_on_c, 1, 55, 80
1, 90240, Note_on_c, 1, 59, 80
1, 90240, Note_on_c, 1, 62, 80
1, 92063, Note_on_c, 1, 55, 0
1, 92063, Note_on_c, 1, 59, 0
1, 92063, Note_on_c, 1, 62, 0
1, 92160, Note_on_c, 1, 57, 80
1, 92160, Note_on_c, 1, 60, 80
1, 93983, Note_on_c, 1, 57, 0
1, 93983, Note_on_c, 1, 60, 0
1, 94080, Note_on_c, 1, 55, 80
1, 94080, Note_on_c, 1, 60, 80
1, 95903, Note_on_c, 1, 55, 0
1, 95903, Note_on_c, 1, 60, 0
1, 96000, Note_on_c, 1, 55, 80
1, 96000, Note_on_c, 1, 59, 80
1, 97823, Note_on_c, 1, 55, 0
1, 97823, Note_on_c, 1, 59, 0
1, 97920, Note_on_c, 1, 55, 80
1, 97920, Note_on_c, 1, 59, 80
1, 99743, Note_on_c, 1, 55, 0
1, 99743, Note_on_c, 1, 59, 0
1, 99840, Note_on_c, 1, 57, 80
1, 99840, Note_on_c, 1, 60, 80
1, 101663, Note_on_c, 1, 57, 0
1, 101663, Note_on_c, 1, 60, 0
1, 101760, Note_on_c, 1, 55, 80
1, 101760, Note_on_c, 1, 60, 80
1, 103583, Note_on_c, 1, 55, 0
1, 103583, Note_on_c, 1, 60, 0
1, 103680, Note_on_c, 1, 55, 80
1, 103680, Note_on_c, 1, 59, 80
1, 105503, Note_on_c, 1, 55, 0
1, 105503, Note_on_c, 1, 59, 0
1, 105600, Note_on_c, 1, 55, 80
1, 105600, Note_on_c, 1, 59, 80
1, 107423, Note_on_c, 1, 55, 0
1, 107423, Note_on_c, 1, 59, 0
1, 107520, Note_on_c, 1, 57, 80
1, 107520, Note_on_c, 1, 60, 80
1, 109343, Note_on_c, 1, 57, 0
1, 109343, Note_on_c, 1, 60, 0
1, 109440, Note_on_c, 1, 55, 80
1, 109440, Note_on_c, 1, 60, 80
1, 109440, Note_on_c, 1, 64, 80
1, 111263, Note_on_c, 1, 55, 0
1, 111263, Note_on_c, 1, 60, 0
1, 111263, Note_on_c, 1, 64, 0
1, 111360, Note_on_c, 1, 55, 80
1, 111360, Note_on_c, 1, 59, 80
1, 111360, Note_on_c, 1, 64, 80
1, 113183, Note_on_c, 1, 55, 0
1, 113183, Note_on_c, 1, 59, 0
1, 113183, Note_on_c, 1, 64, 0
1, 113280, Note_on_c, 1, 55, 80
1, 113280, Note_on_c, 1, 59, 80
1, 113280, Note_on_c, 1, 62, 80
1, 115103, Note_on_c, 1, 55, 0
1, 115103, Note_on_c, 1, 59, 0
1, 115103, Note_on_c, 1, 62, 0
1, 115920, Note_on_c, 1, 67, 80
1, 116147, Note_on_c, 1, 67, 0
1, 116160, Note_on_c, 1, 76, 80
1, 116387, Note_on_c, 1, 76, 0
1, 116400, Note_on_c, 1, 74, 80
1, 116855, Note_on_c, 1, 74, 0
1, 116880, Note_on_c, 1, 76, 80
1, 117563, Note_on_c, 1, 76, 0
1, 117840, Note_on_c, 1, 67, 80
1, 118067, Note_on_c, 1, 67, 0
1, 118080, Note_on_c, 1, 76, 80
1, 118307, Note_on_c, 1, 76, 0
1, 118320, Note_on_c, 1, 74, 80
1, 118775, Note_on_c, 1, 74, 0
1, 118800, Note_on_c, 1, 76, 80
1, 119483, Note_on_c, 1, 76, 0
1, 119760, Note_on_c, 1, 67, 80
1, 119987, Note_on_c, 1, 67, 0
1, 120000, Note_on_c, 1, 76, 80
1, 120227, Note_on_c, 1, 76, 0
1, 120240, Note_on_c, 1, 77, 80
1, 120467, Note_on_c, 1, 77, 0
1, 120480, Note_on_c, 1, 76, 80
1, 120707, Note_on_c, 1, 76, 0
1, 120720, Note_on_c, 1, 76, 80
1, 121403, Note_on_c, 1, 76, 0
1, 121440, Note_on_c, 1, 74, 80
1, 121667, Note_on_c, 1, 74, 0
1, 121680, Note_on_c, 1, 74, 80
1, 122363, Note_on_c, 1, 74, 0
1, 122400, Note_on_c, 1, 72, 80
1, 122627, Note_on_c, 1, 72, 0
1, 122640, Note_on_c, 1, 72, 80
1, 123323, Note_on_c, 1, 72, 0
1, 123600, Note_on_c, 1, 67, 80
1, 123827, Note_on_c, 1, 67, 0
1, 123840, Note_on_c, 1, 76, 80
1, 124067, Note_on_c, 1, 76, 0
1, 124080, Note_on_c, 1, 74, 80
1, 124535, Note_on_c, 1, 74, 0
1, 124560, Note_on_c, 1, 76, 80
1, 125243, Note_on_c, 1, 76, 0
1, 125520, Note_on_c, 1, 67, 80
1, 125747, Note_on_c, 1, 67, 0
1, 125760, Note_on_c, 1, 76, 80
1, 125987, Note_on_c, 1, 76, 0
1, 126000, Note_on_c, 1, 74, 80
1, 126455, Note_on_c, 1, 74, 0
1, 126480, Note_on_c, 1, 76, 80
1, 127163, Note_on_c, 1, 76, 0
1, 127680, Note_on_c, 1, 76, 80
1, 127907, Note_on_c, 1, 76, 0
1, 127920, Note_on_c, 1, 77, 80
1, 128147, Note_on_c, 1, 77, 0
1, 128160, Note_on_c, 1, 76, 80
1, 128387, Note_on_c, 1, 76, 0
1, 128400, Note_on_c, 1, 74, 80
1, 129539, Note_on_c, 1, 74, 0
1, 129840, Note_on_c, 1, 76, 80
1, 130067, Note_on_c, 1, 76, 0
1, 130080, Note_on_c, 1, 79, 80
1, 130307, Note_on_c, 1, 79, 0
1, 130320, Note_on_c, 1, 81, 80
1, 131459, Note_on_c, 1, 81, 0
1, 131520, Note_on_c, 1, 76, 80
1, 131747, Note_on_c, 1, 76, 0
1, 131760, Note_on_c, 1, 77, 80
1, 131987, Note_on_c, 1, 77, 0
1, 132000, Note_on_c, 1, 76, 80
1, 132227, Note_on_c, 1, 76, 0
1, 132240, Note_on_c, 1, 79, 80
1, 132695, Note_on_c, 1, 79, 0
1, 132720, Note_on_c, 1, 76, 80
1, 133745, Note_on_c, 1, 76, 0
1, 133920, Note_on_c, 1, 76, 80
1, 134147, Note_on_c, 1, 76, 0
1, 134160, Note_on_c, 1, 79, 80
1, 134615, Note_on_c, 1, 79, 0
1, 134640, Note_on_c, 1, 76, 80
1, 135665, Note_on_c, 1, 76, 0
1, 135840, Note_on_c, 1, 76, 80
1, 136067, Note_on_c, 1, 76, 0
1, 136080, Note_on_c, 1, 74, 80
1, 137219, Note_on_c, 1, 74, 0
1, 137520, Note_on_c, 1, 76, 80
1, 137747, Note_on_c, 1, 76, 0
1, 137760, Note_on_c, 1, 79, 80
1, 137987, Note_on_c, 1, 79, 0
1, 138000, Note_on_c, 1, 81, 80
1, 139139, Note_on_c, 1, 81, 0
1, 139200, Note_on_c, 1, 76, 80
1, 139427, Note_on_c, 1, 76, 0
1, 139440, Note_on_c, 1, 77, 80
1, 139667, Note_on_c, 1, 77, 0
1, 139680, Note_on_c, 1, 76, 80
1, 139907, Note_on_c, 1, 76, 0
1, 139920, Note_on_c, 1, 79, 80
1, 140375, Note_on_c, 1, 79, 0
1, 140400, Note_on_c, 1, 76, 80
1, 141425, Note_on_c, 1, 76, 0
1, 141600, Note_on_c, 1, 76, 80
1, 141827, Note_on_c, 1, 76, 0
1, 141840, Note_on_c, 1, 79, 80
1, 142295, Note_on_c, 1, 79, 0
1, 142320, Note_on_c, 1, 76, 80
1, 143345, Note_on_c, 1, 76, 0
1, 143520, Note_on_c, 1, 76, 80
1, 143747, Note_on_c, 1, 76, 0
1, 143760, Note_on_c, 1, 74, 80
1, 144899, Note_on_c, 1, 74, 0
1, 145920, Note_on_c, 1, 76, 80
1, 146375, Note_on_c, 1, 76, 0
1, 146400, Note_on_c, 1, 76, 80
1, 146855, Note_on_c, 1, 76, 0
1, 146880, Note_on_c, 1, 64, 80
1, 147107, Note_on_c, 1, 64, 0
1, 147120, Note_on_c, 1, 67, 80
1, 147347, Note_on_c, 1, 67, 0
1, 147360, Note_on_c, 1, 69, 80
1, 147587, Note_on_c, 1, 69, 0
1, 147600, Note_on_c, 1, 72, 80
1, 147827, Note_on_c, 1, 72, 0
1, 147840, Note_on_c, 1, 74, 80
1, 148067, Note_on_c, 1, 74, 0
1, 148080, Note_on_c, 1, 76, 80
1, 148307, Note_on_c, 1, 76, 0
1, 148320, Note_on_c, 1, 74, 80
1, 148547, Note_on_c, 1, 74, 0
1, 148560, Note_on_c, 1, 72, 80
1, 149015, Note_on_c, 1, 72, 0
1, 149040, Note_on_c, 1, 69, 80
1, 149495, Note_on_c, 1, 69, 0
1, 149520, Note_on_c, 1, 72, 80
1, 149747, Note_on_c, 1, 72, 0
1, 149760, Note_on_c, 1, 74, 80
1, 149987, Note_on_c, 1, 74, 0
1, 150000, Note_on_c, 1, 76, 80
1, 150227, Note_on_c, 1, 76, 0
1, 150240, Note_on_c, 1, 74, 80
1, 150467, Note_on_c, 1, 74, 0
1, 150480, Note_on_c, 1, 72, 80
1, 150935, Note_on_c, 1, 72, 0
1, 150960, Note_on_c, 1, 69, 80
1, 151643, Note_on_c, 1, 69, 0
1, 151680, Note_on_c, 1, 74, 80
1, 152363, Note_on_c, 1, 74, 0
1, 152400, Note_on_c, 1, 72, 80
1, 153425, Note_on_c, 1, 72, 0
1, 154560, Note_on_c, 1, 64, 80
1, 154787, Note_on_c, 1, 64, 0
1, 154800, Note_on_c, 1, 67, 80
1, 155027, Note_on_c, 1, 67, 0
1, 155040, Note_on_c, 1, 69, 80
1, 155267, Note_on_c, 1, 69, 0
1, 155280, Note_on_c, 1, 72, 80
1, 155507, Note_on_c, 1, 72, 0
1, 155520, Note_on_c, 1, 74, 80
1, 155747, Note_on_c, 1, 74, 0
1, 155760, Note_on_c, 1, 76, 80
1, 155987, Note_on_c, 1, 76, 0
1, 156000, Note_on_c, 1, 74, 80
1, 156227, Note_on_c, 1, 74, 0
1, 156240, Note_on_c, 1, 72, 80
1, 156695, Note_on_c, 1, 72, 0
1, 156720, Note_on_c, 1, 69, 80
1, 157175, Note_on_c, 1, 69, 0
1, 157200, Note_on_c, 1, 72, 80
1, 157427, Note_on_c, 1, 72, 0
1, 157440, Note_on_c, 1, 74, 80
1, 157667, Note_on_c, 1, 74, 0
1, 157680, Note_on_c, 1, 76, 80
1, 157907, Note_on_c, 1, 76, 0
1, 157920, Note_on_c, 1, 74, 80
1, 158147, Note_on_c, 1, 74, 0
1, 158160, Note_on_c, 1, 72, 80
1, 158615, Note_on_c, 1, 72, 0
1, 158640, Note_on_c, 1, 69, 80
1, 159323, Note_on_c, 1, 69, 0
1, 159360, Note_on_c, 1, 74, 80
1, 160271, Note_on_c, 1, 74, 0
1, 176640, Note_on_c, 1, 69, 80
1, 176640, Note_on_c, 1, 76, 80
1, 178463, Note_on_c, 1, 69, 0
1, 178463, Note_on_c, 1, 76, 0
1, 178560, Note_on_c, 1, 67, 80
1, 178560, Note_on_c, 1, 76, 80
1, 180383, Note_on_c, 1, 67, 0
1, 180383, Note_on_c, 1, 76, 0
1, 180480, Note_on_c, 1, 67, 80
1, 180480, Note_on_c, 1, 76, 80
1, 182303, Note_on_c, 1, 67, 0
1, 182303, Note_on_c, 1, 76, 0
1, 182400, Note_on_c, 1, 67, 80
1, 182400, Note_on_c, 1, 74, 80
1, 184223, Note_on_c, 1, 67, 0
1, 184223, Note_on_c, 1, 74, 0
1, 184320, Note_on_c, 1, 69, 80
1, 184320, Note_on_c, 1, 76, 80
1, 186143, Note_on_c, 1, 69, 0
1, 186143, Note_on_c, 1, 76, 0
1, 186240, Note_on_c, 1, 67, 80
1, 186240, Note_on_c, 1, 76, 80
1, 188063, Note_on_c, 1, 67, 0
1, 188063, Note_on_c, 1, 76, 0
1, 188160, Note_on_c, 1, 67, 80
1, 188160, Note_on_c, 1, 76, 80
1, 189983, Note_on_c, 1, 67, 0
1, 189983, Note_on_c, 1, 76, 0
1, 190080, Note_on_c, 1, 67, 80
1, 190080, Note_on_c, 1, 74, 80
1, 191903, Note_on_c, 1, 67, 0
1, 191903, Note_on_c, 1, 74, 0
1, 191904, End_track
2, 0, Start_track
2, 0, Title_t, "Vibraphone, Vibraphone, Vibraphone\000"
2, 0, Key_signature, 0, "major"
2, 0, Control_c, 3, 121, 0
2, 0, Program_c, 3, 11
2, 0, Control_c, 3, 7, 100
2, 0, Control_c, 3, 10, 64
2, 0, Control_c, 3, 91, 0
2, 0, Control_c, 3, 93, 0
2, 0, MIDI_port, 0
2, 7680, Note_on_c, 3, 72, 80
2, 7919, Note_on_c, 3, 72, 0
2, 7920, Note_on_c, 3, 71, 80
2, 8159, Note_on_c, 3, 71, 0
2, 8160, Note_on_c, 3, 72, 80
2, 8399, Note_on_c, 3, 72, 0
2, 8400, Note_on_c, 3, 69, 80
2, 8639, Note_on_c, 3, 69, 0
2, 8640, Note_on_c, 3, 72, 80
2, 8879, Note_on_c, 3, 72, 0
2, 8880, Note_on_c, 3, 71, 80
2, 9119, Note_on_c, 3, 71, 0
2, 9120, Note_on_c, 3, 72, 80
2, 9359, Note_on_c, 3, 72, 0
2, 9360, Note_on_c, 3, 69, 80
2, 9599, Note_on_c, 3, 69, 0
2, 9600, Note_on_c, 3, 72, 80
2, 9839, Note_on_c, 3, 72, 0
2, 9840, Note_on_c, 3, 71, 80
2, 10079, Note_on_c, 3, 71, 0
2, 10080, Note_on_c, 3, 72, 80
2, 10319, Note_on_c, 3, 72, 0
2, 10320, Note_on_c, 3, 67, 80
2, 10559, Note_on_c, 3, 67, 0
2, 10560, Note_on_c, 3, 72, 80
2, 10799, Note_on_c, 3, 72, 0
2, 10800, Note_on_c, 3, 71, 80
2, 11039, Note_on_c, 3, 71, 0
2, 11040, Note_on_c, 3, 72, 80
2, 11279, Note_on_c, 3, 72, 0
2, 11280, Note_on_c, 3, 67, 80
2, 11519, Note_on_c, 3, 67, 0
2, 11520, Note_on_c, 3, 71, 80
2, 11759, Note_on_c, 3, 71, 0
2, 11760, Note_on_c, 3, 69, 80
2, 11999, Note_on_c, 3, 69, 0
2, 12000, Note_on_c, 3, 71, 80
2, 12239, Note_on_c, 3, 71, 0
2, 12240, Note_on_c, 3, 67, 80
2, 12479, Note_on_c, 3, 67, 0
2, 12480, Note_on_c, 3, 71, 80
2, 12719, Note_on_c, 3, 71, 0
2, 12720, Note_on_c, 3, 69, 80
2, 12959, Note_on_c, 3, 69, 0
2, 12960, Note_on_c, 3, 71, 80
2, 13199, Note_on_c, 3, 71, 0
2, 13200, Note_on_c, 3, 67, 80
2, 13439, Note_on_c, 3, 67, 0
2, 13440, Note_on_c, 3, 71, 80
2, 13679, Note_on_c, 3, 71, 0
2, 13680, Note_on_c, 3, 69, 80
2, 13919, Note_on_c, 3, 69, 0
2, 13920, Note_on_c, 3, 71, 80
2, 14159, Note_on_c, 3, 71, 0
2, 14160, Note_on_c, 3, 67, 80
2, 14399, Note_on_c, 3, 67, 0
2, 14400, Note_on_c, 3, 71, 80
2, 14639, Note_on_c, 3, 71, 0
2, 14640, Note_on_c, 3, 69, 80
2, 14879, Note_on_c, 3, 69, 0
2, 14880, Note_on_c, 3, 71, 80
2, 15119, Note_on_c, 3, 71, 0
2, 15120, Note_on_c, 3, 67, 80
2, 15359, Note_on_c, 3, 67, 0
2, 15360, Note_on_c, 3, 72, 80
2, 15599, Note_on_c, 3, 72, 0
2, 15600, Note_on_c, 3, 71, 80
2, 15839, Note_on_c, 3, 71, 0
2, 15840, Note_on_c, 3, 72, 80
2, 16079, Note_on_c, 3, 72, 0
2, 16080, Note_on_c, 3, 69, 80
2, 16319, Note_on_c, 3, 69, 0
2, 16320, Note_on_c, 3, 72, 80
2, 16559, Note_on_c, 3, 72, 0
2, 16560, Note_on_c, 3, 71, 80
2, 16799, Note_on_c, 3, 71, 0
2, 16800, Note_on_c, 3, 72, 80
2, 17039, Note_on_c, 3, 72, 0
2, 17040, Note_on_c, 3, 69, 80
2, 17279, Note_on_c, 3, 69, 0
2, 17280, Note_on_c, 3, 72, 80
2, 17519, Note_on_c, 3, 72, 0
2, 17520, Note_on_c, 3, 71, 80
2, 17759, Note_on_c, 3, 71, 0
2, 17760, Note_on_c, 3, 72, 80
2, 17999, Note_on_c, 3, 72, 0
2, 18000, Note_on_c, 3, 67, 80
2, 18239, Note_on_c, 3, 67, 0
2, 18240, Note_on_c, 3, 72, 80
2, 18479, Note_on_c, 3, 72, 0
2, 18480, Note_on_c, 3, 71, 80
2, 18719, Note_on_c, 3, 71, 0
2, 18720, Note_on_c, 3, 72, 80
2, 18959, Note_on_c, 3, 72, 0
2, 18960, Note_on_c, 3, 67, 80
2, 19199, Note_on_c, 3, 67, 0
2, 19200, Note_on_c, 3, 71, 80
2, 19439, Note_on_c, 3, 71, 0
2, 19440, Note_on_c, 3, 69, 80
2, 19679, Note_on_c, 3, 69, 0
2, 19680, Note_on_c, 3, 71, 80
2, 19919, Note_on_c, 3, 71, 0
2, 19920, Note_on_c, 3, 67, 80
2, 20159, Note_on_c, 3, 67, 0
2, 20160, Note_on_c, 3, 71, 80
2, 20399, Note_on_c, 3, 71, 0
2, 20400, Note_on_c, 3, 69, 80
2, 20639, Note_on_c, 3, 69, 0
2, 20640, Note_on_c, 3, 71, 80
2, 20879, Note_on_c, 3, 71, 0
2, 20880, Note_on_c, 3, 67, 80
2, 21119, Note_on_c, 3, 67, 0
2, 21120, Note_on_c, 3, 71, 80
2, 21359, Note_on_c, 3, 71, 0
2, 21360, Note_on_c, 3, 69, 80
2, 21599, Note_on_c, 3, 69, 0
2, 21600, Note_on_c, 3, 71, 80
2, 21839, Note_on_c, 3, 71, 0
2, 21840, Note_on_c, 3, 67, 80
2, 22079, Note_on_c, 3, 67, 0
2, 22080, Note_on_c, 3, 71, 80
2, 22319, Note_on_c, 3, 71, 0
2, 22320, Note_on_c, 3, 69, 80
2, 22559, Note_on_c, 3, 69, 0
2, 22560, Note_on_c, 3, 71, 80
2, 22799, Note_on_c, 3, 71, 0
2, 22800, Note_on_c, 3, 67, 80
2, 23039, Note_on_c, 3, 67, 0
2, 23040, Note_on_c, 3, 72, 80
2, 23040, Note_on_c, 3, 76, 80
2, 23279, Note_on_c, 3, 72, 0
2, 23279, Note_on_c, 3, 76, 0
2, 23520, Note_on_c, 3, 72, 80
2, 23520, Note_on_c, 3, 76, 80
2, 23759, Note_on_c, 3, 72, 0
2, 23759, Note_on_c, 3, 76, 0
2, 24000, Note_on_c, 3, 72, 80
2, 24000, Note_on_c, 3, 76, 80
2, 24359, Note_on_c, 3, 72, 0
2, 24359, Note_on_c, 3, 76, 0
2, 24360, Note_on_c, 3, 72, 80
2, 24360, Note_on_c, 3, 76, 80
2, 24719, Note_on_c, 3, 72, 0
2, 24719, Note_on_c, 3, 76, 0
2, 24720, Note_on_c, 3, 72, 80
2, 24720, Note_on_c, 3, 77, 80
2, 24959, Note_on_c, 3, 72, 0
2, 24959, Note_on_c, 3, 77, 0
2, 24960, Note_on_c, 3, 72, 80
2, 24960, Note_on_c, 3, 76, 80
2, 25199, Note_on_c, 3, 72, 0
2, 25199, Note_on_c, 3, 76, 0
2, 25440, Note_on_c, 3, 72, 80
2, 25440, Note_on_c, 3, 76, 80
2, 25679, Note_on_c, 3, 72, 0
2, 25679, Note_on_c, 3, 76, 0
2, 25920, Note_on_c, 3, 72, 80
2, 25920, Note_on_c, 3, 76, 80
2, 26279, Note_on_c, 3, 72, 0
2, 26279, Note_on_c, 3, 76, 0
2, 26280, Note_on_c, 3, 72, 80
2, 26280, Note_on_c, 3, 76, 80
2, 26639, Note_on_c, 3, 72, 0
2, 26639, Note_on_c, 3, 76, 0
2, 26640, Note_on_c, 3, 72, 80
2, 26640, Note_on_c, 3, 77, 80
2, 26879, Note_on_c, 3, 72, 0
2, 26879, Note_on_c, 3, 77, 0
2, 26880, Note_on_c, 3, 71, 80
2, 26880, Note_on_c, 3, 76, 80
2, 27119, Note_on_c, 3, 71, 0
2, 27119, Note_on_c, 3, 76, 0
2, 27360, Note_on_c, 3, 71, 80
2, 27360, Note_on_c, 3, 76, 80
2, 27599, Note_on_c, 3, 71, 0
2, 27599, Note_on_c, 3, 76, 0
2, 27840, Note_on_c, 3, 71, 80
2, 27840, Note_on_c, 3, 76, 80
2, 28199, Note_on_c, 3, 71, 0
2, 28199, Note_on_c, 3, 76, 0
2, 28200, Note_on_c, 3, 71, 80
2, 28200, Note_on_c, 3, 76, 80
2, 28559, Note_on_c, 3, 71, 0
2, 28559, Note_on_c, 3, 76, 0
2, 28560, Note_on_c, 3, 71, 80
2, 28560, Note_on_c, 3, 77, 80
2, 28799, Note_on_c, 3, 71, 0
2, 28799, Note_on_c, 3, 77, 0
2, 28800, Note_on_c, 3, 74, 80
2, 28800, Note_on_c, 3, 79, 80
2, 29039, Note_on_c, 3, 74, 0
2, 29039, Note_on_c, 3, 79, 0
2, 29280, Note_on_c, 3, 74, 80
2, 29280, Note_on_c, 3, 79, 80
2, 29519, Note_on_c, 3, 74, 0
2, 29519, Note_on_c, 3, 79, 0
2, 29760, Note_on_c, 3, 74, 80
2, 29760, Note_on_c, 3, 79, 80
2, 30119, Note_on_c, 3, 74, 0
2, 30119, Note_on_c, 3, 79, 0
2, 30120, Note_on_c, 3, 74, 80
2, 30120, Note_on_c, 3, 79, 80
2, 30479, Note_on_c, 3, 74, 0
2, 30479, Note_on_c, 3, 79, 0
2, 30480, Note_on_c, 3, 74, 80
2, 30480, Note_on_c, 3, 79, 80
2, 30719, Note_on_c, 3, 74, 0
2, 30719, Note_on_c, 3, 79, 0
2, 30720, Note_on_c, 3, 72, 80
2, 30720, Note_on_c, 3, 76, 80
2, 30959, Note_on_c, 3, 72, 0
2, 30959, Note_on_c, 3, 76, 0
2, 31200, Note_on_c, 3, 72, 80
2, 31200, Note_on_c, 3, 76, 80
2, 31439, Note_on_c, 3, 72, 0
2, 31439, Note_on_c, 3, 76, 0
2, 31680, Note_on_c, 3, 72, 80
2, 31680, Note_on_c, 3, 76, 80
2, 32039, Note_on_c, 3, 72, 0
2, 32039, Note_on_c, 3, 76, 0
2, 32040, Note_on_c, 3, 72, 80
2, 32040, Note_on_c, 3, 76, 80
2, 32399, Note_on_c, 3, 72, 0
2, 32399, Note_on_c, 3, 76, 0
2, 32400, Note_on_c, 3, 72, 80
2, 32400, Note_on_c, 3, 77, 80
2, 32639, Note_on_c, 3, 72, 0
2, 32639, Note_on_c, 3, 77, 0
2, 32640, Note_on_c, 3, 72, 80
2, 32640, Note_on_c, 3, 76, 80
2, 32879, Note_on_c, 3, 72, 0
2, 32879, Note_on_c, 3, 76, 0
2, 33120, Note_on_c, 3, 72, 80
2, 33120, Note_on_c, 3, 76, 80
2, 33359, Note_on_c, 3, 72, 0
2, 33359, Note_on_c, 3, 76, 0
2, 33600, Note_on_c, 3, 72, 80
2, 33600, Note_on_c, 3, 76, 80
2, 33959, Note_on_c, 3, 72, 0
2, 33959, Note_on_c, 3, 76, 0
2, 33960, Note_on_c, 3, 72, 80
2, 33960, Note_on_c, 3, 76, 80
2, 34319, Note_on_c, 3, 72, 0
2, 34319, Note_on_c, 3, 76, 0
2, 34320, Note_on_c, 3, 72, 80
2, 34320, Note_on_c, 3, 77, 80
2, 34559, Note_on_c, 3, 72, 0
2, 34559, Note_on_c, 3, 77, 0
2, 34560, Note_on_c, 3, 71, 80
2, 34560, Note_on_c, 3, 76, 80
2, 34799, Note_on_c, 3, 71, 0
2, 34799, Note_on_c, 3, 76, 0
2, 35040, Note_on_c, 3, 71, 80
2, 35040, Note_on_c, 3, 76, 80
2, 35279, Note_on_c, 3, 71, 0
2, 35279, Note_on_c, 3, 76, 0
2, 35520, Note_on_c, 3, 71, 80
2, 35520, Note_on_c, 3, 76, 80
2, 35879, Note_on_c, 3, 71, 0
2, 35879, Note_on_c, 3, 76, 0
2, 35880, Note_on_c, 3, 71, 80
2, 35880, Note_on_c, 3, 76, 80
2, 36239, Note_on_c, 3, 71, 0
2, 36239, Note_on_c, 3, 76, 0
2, 36240, Note_on_c, 3, 71, 80
2, 36240, Note_on_c, 3, 77, 80
2, 36479, Note_on_c, 3, 71, 0
2, 36479, Note_on_c, 3, 77, 0
2, 36480, Note_on_c, 3, 74, 80
2, 36480, Note_on_c, 3, 79, 80
2, 36719, Note_on_c, 3, 74, 0
2, 36719, Note_on_c, 3, 79, 0
2, 36960, Note_on_c, 3, 74, 80
2, 36960, Note_on_c, 3, 79, 80
2, 37199, Note_on_c, 3, 74, 0
2, 37199, Note_on_c, 3, 79, 0
2, 37440, Note_on_c, 3, 74, 80
2, 37440, Note_on_c, 3, 79, 80
2, 37799, Note_on_c, 3, 74, 0
2, 37799, Note_on_c, 3, 79, 0
2, 37800, Note_on_c, 3, 74, 80
2, 37800, Note_on_c, 3, 79, 80
2, 38159, Note_on_c, 3, 74, 0
2, 38159, Note_on_c, 3, 79, 0
2, 38160, Note_on_c, 3, 74, 80
2, 38160, Note_on_c, 3, 79, 80
2, 38399, Note_on_c, 3, 74, 0
2, 38399, Note_on_c, 3, 79, 0
2, 38400, Note_on_c, 3, 72, 80
2, 38639, Note_on_c, 3, 72, 0
2, 38640, Note_on_c, 3, 71, 80
2, 38879, Note_on_c, 3, 71, 0
2, 38880, Note_on_c, 3, 72, 80
2, 39119, Note_on_c, 3, 72, 0
2, 39120, Note_on_c, 3, 69, 80
2, 39359, Note_on_c, 3, 69, 0
2, 39360, Note_on_c, 3, 72, 80
2, 39599, Note_on_c, 3, 72, 0
2, 39600, Note_on_c, 3, 71, 80
2, 39839, Note_on_c, 3, 71, 0
2, 39840, Note_on_c, 3, 72, 80
2, 40079, Note_on_c, 3, 72, 0
2, 40080, Note_on_c, 3, 69, 80
2, 40319, Note_on_c, 3, 69, 0
2, 40320, Note_on_c, 3, 72, 80
2, 40559, Note_on_c, 3, 72, 0
2, 40560, Note_on_c, 3, 71, 80
2, 40799, Note_on_c, 3, 71, 0
2, 40800, Note_on_c, 3, 72, 80
2, 41039, Note_on_c, 3, 72, 0
2, 41040, Note_on_c, 3, 67, 80
2, 41279, Note_on_c, 3, 67, 0
2, 41280, Note_on_c, 3, 72, 80
2, 41519, Note_on_c, 3, 72, 0
2, 41520, Note_on_c, 3, 71, 80
2, 41759, Note_on_c, 3, 71, 0
2, 41760, Note_on_c, 3, 72, 80
2, 41999, Note_on_c, 3, 72, 0
2, 42000, Note_on_c, 3, 67, 80
2, 42239, Note_on_c, 3, 67, 0
2, 42240, Note_on_c, 3, 71, 80
2, 42479, Note_on_c, 3, 71, 0
2, 42480, Note_on_c, 3, 69, 80
2, 42719, Note_on_c, 3, 69, 0
2, 42720, Note_on_c, 3, 71, 80
2, 42959, Note_on_c, 3, 71, 0
2, 42960, Note_on_c, 3, 67, 80
2, 43199, Note_on_c, 3, 67, 0
2, 43200, Note_on_c, 3, 71, 80
2, 43439, Note_on_c, 3, 71, 0
2, 43440, Note_on_c, 3, 69, 80
2, 43679, Note_on_c, 3, 69, 0
2, 43680, Note_on_c, 3, 71, 80
2, 43919, Note_on_c, 3, 71, 0
2, 43920, Note_on_c, 3, 67, 80
2, 44159, Note_on_c, 3, 67, 0
2, 44160, Note_on_c, 3, 71, 80
2, 44399, Note_on_c, 3, 71, 0
2, 44400, Note_on_c, 3, 69, 80
2, 44639, Note_on_c, 3, 69, 0
2, 44640, Note_on_c, 3, 71, 80
2, 44879, Note_on_c, 3, 71, 0
2, 44880, Note_on_c, 3, 67, 80
2, 45119, Note_on_c, 3, 67, 0
2, 45120, Note_on_c, 3, 71, 80
2, 45359, Note_on_c, 3, 71, 0
2, 45360, Note_on_c, 3, 69, 80
2, 45599, Note_on_c, 3, 69, 0
2, 45600, Note_on_c, 3, 71, 80
2, 45839, Note_on_c, 3, 71, 0
2, 45840, Note_on_c, 3, 67, 80
2, 46079, Note_on_c, 3, 67, 0
2, 46080, Note_on_c, 3, 72, 80
2, 46319, Note_on_c, 3, 72, 0
2, 46320, Note_on_c, 3, 71, 80
2, 46559, Note_on_c, 3, 71, 0
2, 46560, Note_on_c, 3, 72, 80
2, 46799, Note_on_c, 3, 72, 0
2, 46800, Note_on_c, 3, 69, 80
2, 47039, Note_on_c, 3, 69, 0
2, 47040, Note_on_c, 3, 72, 80
2, 47279, Note_on_c, 3, 72, 0
2, 47280, Note_on_c, 3, 71, 80
2, 47519, Note_on_c, 3, 71, 0
2, 47520, Note_on_c, 3, 72, 80
2, 47759, Note_on_c, 3, 72, 0
2, 47760, Note_on_c, 3, 69, 80
2, 47999, Note_on_c, 3, 69, 0
2, 48000, Note_on_c, 3, 72, 80
2, 48239, Note_on_c, 3, 72, 0
2, 48240, Note_on_c, 3, 71, 80
2, 48479, Note_on_c, 3, 71, 0
2, 48480, Note_on_c, 3, 72, 80
2, 48719, Note_on_c, 3, 72, 0
2, 48720, Note_on_c, 3, 67, 80
2, 48959, Note_on_c, 3, 67, 0
2, 48960, Note_on_c, 3, 72, 80
2, 49199, Note_on_c, 3, 72, 0
2, 49200, Note_on_c, 3, 71, 80
2, 49439, Note_on_c, 3, 71, 0
2, 49440, Note_on_c, 3, 72, 80
2, 49679, Note_on_c, 3, 72, 0
2, 49680, Note_on_c, 3, 67, 80
2, 49919, Note_on_c, 3, 67, 0
2, 49920, Note_on_c, 3, 71, 80
2, 50159, Note_on_c, 3, 71, 0
2, 50160, Note_on_c, 3, 69, 80
2, 50399, Note_on_c, 3, 69, 0
2, 50400, Note_on_c, 3, 71, 80
2, 50639, Note_on_c, 3, 71, 0
2, 50640, Note_on_c, 3, 67, 80
2, 50879, Note_on_c, 3, 67, 0
2, 50880, Note_on_c, 3, 71, 80
2, 51119, Note_on_c, 3, 71, 0
2, 51120, Note_on_c, 3, 69, 80
2, 51359, Note_on_c, 3, 69, 0
2, 51360, Note_on_c, 3, 71, 80
2, 51599, Note_on_c, 3, 71, 0
2, 51600, Note_on_c, 3, 67, 80
2, 51839, Note_on_c, 3, 67, 0
2, 51840, Note_on_c, 3, 71, 80
2, 52079, Note_on_c, 3, 71, 0
2, 52080, Note_on_c, 3, 69, 80
2, 52319, Note_on_c, 3, 69, 0
2, 52320, Note_on_c, 3, 71, 80
2, 52559, Note_on_c, 3, 71, 0
2, 52560, Note_on_c, 3, 67, 80
2, 52799, Note_on_c, 3, 67, 0
2, 52800, Note_on_c, 3, 71, 80
2, 53039, Note_on_c, 3, 71, 0
2, 53040, Note_on_c, 3, 69, 80
2, 53279, Note_on_c, 3, 69, 0
2, 53280, Note_on_c, 3, 71, 80
2, 53519, Note_on_c, 3, 71, 0
2, 53520, Note_on_c, 3, 67, 80
2, 53759, Note_on_c, 3, 67, 0
2, 53760, Note_on_c, 3, 72, 80
2, 53999, Note_on_c, 3, 72, 0
2, 54000, Note_on_c, 3, 71, 80
2, 54239, Note_on_c, 3, 71, 0
2, 54240, Note_on_c, 3, 72, 80
2, 54479, Note_on_c, 3, 72, 0
2, 54480, Note_on_c, 3, 69, 80
2, 54719, Note_on_c, 3, 69, 0
2, 54720, Note_on_c, 3, 72, 80
2, 54959, Note_on_c, 3, 72, 0
2, 54960, Note_on_c, 3, 71, 80
2, 55199, Note_on_c, 3, 71, 0
2, 55200, Note_on_c, 3, 72, 80
2, 55439, Note_on_c, 3, 72, 0
2, 55440, Note_on_c, 3, 69, 80
2, 55679, Note_on_c, 3, 69, 0
2, 55680, Note_on_c, 3, 72, 80
2, 55919, Note_on_c, 3, 72, 0
2, 55920, Note_on_c, 3, 71, 80
2, 56159, Note_on_c, 3, 71, 0
2, 56160, Note_on_c, 3, 72, 80
2, 56399, Note_on_c, 3, 72, 0
2, 56400, Note_on_c, 3, 67, 80
2, 56639, Note_on_c, 3, 67, 0
2, 56640, Note_on_c, 3, 72, 80
2, 56879, Note_on_c, 3, 72, 0
2, 56880, Note_on_c, 3, 71, 80
2, 57119, Note_on_c, 3, 71, 0
2, 57120, Note_on_c, 3, 72, 80
2, 57359, Note_on_c, 3, 72, 0
2, 57360, Note_on_c, 3, 67, 80
2, 57599, Note_on_c, 3, 67, 0
2, 57600, Note_on_c, 3, 71, 80
2, 57839, Note_on_c, 3, 71, 0
2, 57840, Note_on_c, 3, 69, 80
2, 58079, Note_on_c, 3, 69, 0
2, 58080, Note_on_c, 3, 71, 80
2, 58319, Note_on_c, 3, 71, 0
2, 58320, Note_on_c, 3, 67, 80
2, 58559, Note_on_c, 3, 67, 0
2, 58560, Note_on_c, 3, 71, 80
2, 58799, Note_on_c, 3, 71, 0
2, 58800, Note_on_c, 3, 69, 80
2, 59039, Note_on_c, 3, 69, 0
2, 59040, Note_on_c, 3, 71, 80
2, 59279, Note_on_c, 3, 71, 0
2, 59280, Note_on_c, 3, 67, 80
2, 59519, Note_on_c, 3, 67, 0
2, 59520, Note_on_c, 3, 71, 80
2, 59759, Note_on_c, 3, 71, 0
2, 59760, Note_on_c, 3, 69, 80
2, 59999, Note_on_c, 3, 69, 0
2, 60000, Note_on_c, 3, 71, 80
2, 60239, Note_on_c, 3, 71, 0
2, 60240, Note_on_c, 3, 67, 80
2, 60479, Note_on_c, 3, 67, 0
2, 60480, Note_on_c, 3, 71, 80
2, 60719, Note_on_c, 3, 71, 0
2, 60720, Note_on_c, 3, 69, 80
2, 60959, Note_on_c, 3, 69, 0
2, 60960, Note_on_c, 3, 71, 80
2, 61199, Note_on_c, 3, 71, 0
2, 61200, Note_on_c, 3, 67, 80
2, 61439, Note_on_c, 3, 67, 0
2, 61440, Note_on_c, 3, 72, 80
2, 61679, Note_on_c, 3, 72, 0
2, 61680, Note_on_c, 3, 71, 80
2, 61919, Note_on_c, 3, 71, 0
2, 61920, Note_on_c, 3, 72, 80
2, 62159, Note_on_c, 3, 72, 0
2, 62160, Note_on_c, 3, 69, 80
2, 62399, Note_on_c, 3, 69, 0
2, 62400, Note_on_c, 3, 72, 80
2, 62639, Note_on_c, 3, 72, 0
2, 62640, Note_on_c, 3, 71, 80
2, 62879, Note_on_c, 3, 71, 0
2, 62880, Note_on_c, 3, 72, 80
2, 63119, Note_on_c, 3, 72, 0
2, 63120, Note_on_c, 3, 69, 80
2, 63359, Note_on_c, 3, 69, 0
2, 63360, Note_on_c, 3, 72, 80
2, 63599, Note_on_c, 3, 72, 0
2, 63600, Note_on_c, 3, 71, 80
2, 63839, Note_on_c, 3, 71, 0
2, 63840, Note_on_c, 3, 72, 80
2, 64079, Note_on_c, 3, 72, 0
2, 64080, Note_on_c, 3, 67, 80
2, 64319, Note_on_c, 3, 67, 0
2, 64320, Note_on_c, 3, 72, 80
2, 64559, Note_on_c, 3, 72, 0
2, 64560, Note_on_c, 3, 71, 80
2, 64799, Note_on_c, 3, 71, 0
2, 64800, Note_on_c, 3, 72, 80
2, 65039, Note_on_c, 3, 72, 0
2, 65040, Note_on_c, 3, 67, 80
2, 65279, Note_on_c, 3, 67, 0
2, 65280, Note_on_c, 3, 71, 80
2, 65519, Note_on_c, 3, 71, 0
2, 65520, Note_on_c, 3, 69, 80
2, 65759, Note_on_c, 3, 69, 0
2, 65760, Note_on_c, 3, 71, 80
2, 65999, Note_on_c, 3, 71, 0
2, 66000, Note_on_c, 3, 67, 80
2, 66239, Note_on_c, 3, 67, 0
2, 66240, Note_on_c, 3, 71, 80
2, 66479, Note_on_c, 3, 71, 0
2, 66480, Note_on_c, 3, 69, 80
2, 66719, Note_on_c, 3, 69, 0
2, 66720, Note_on_c, 3, 71, 80
2, 66959, Note_on_c, 3, 71, 0
2, 66960, Note_on_c, 3, 67, 80
2, 67199, Note_on_c, 3, 67, 0
2, 67200, Note_on_c, 3, 71, 80
2, 67439, Note_on_c, 3, 71, 0
2, 67440, Note_on_c, 3, 69, 80
2, 67679, Note_on_c, 3, 69, 0
2, 67680, Note_on_c, 3, 71, 80
2, 67919, Note_on_c, 3, 71, 0
2, 67920, Note_on_c, 3, 67, 80
2, 68159, Note_on_c, 3, 67, 0
2, 68160, Note_on_c, 3, 71, 80
2, 68399, Note_on_c, 3, 71, 0
2, 68400, Note_on_c, 3, 69, 80
2, 68639, Note_on_c, 3, 69, 0
2, 68640, Note_on_c, 3, 71, 80
2, 68879, Note_on_c, 3, 71, 0
2, 68880, Note_on_c, 3, 67, 80
2, 69119, Note_on_c, 3, 67, 0
2, 69120, Note_on_c, 3, 72, 80
2, 69359, Note_on_c, 3, 72, 0
2, 69360, Note_on_c, 3, 71, 80
2, 69599, Note_on_c, 3, 71, 0
2, 69600, Note_on_c, 3, 72, 80
2, 69839, Note_on_c, 3, 72, 0
2, 69840, Note_on_c, 3, 69, 80
2, 70079, Note_on_c, 3, 69, 0
2, 70080, Note_on_c, 3, 72, 80
2, 70319, Note_on_c, 3, 72, 0
2, 70320, Note_on_c, 3, 71, 80
2, 70559, Note_on_c, 3, 71, 0
2, 70560, Note_on_c, 3, 72, 80
2, 70799, Note_on_c, 3, 72, 0
2, 70800, Note_on_c, 3, 69, 80
2, 71039, Note_on_c, 3, 69, 0
2, 71040, Note_on_c, 3, 72, 80
2, 71279, Note_on_c, 3, 72, 0
2, 71280, Note_on_c, 3, 71, 80
2, 71519, Note_on_c, 3, 71, 0
2, 71520, Note_on_c, 3, 72, 80
2, 71759, Note_on_c, 3, 72, 0
2, 71760, Note_on_c, 3, 67, 80
2, 71999, Note_on_c, 3, 67, 0
2, 72000, Note_on_c, 3, 72, 80
2, 72239, Note_on_c, 3, 72, 0
2, 72240, Note_on_c, 3, 71, 80
2, 72479, Note_on_c, 3, 71, 0
2, 72480, Note_on_c, 3, 72, 80
2, 72719, Note_on_c, 3, 72, 0
2, 72720, Note_on_c, 3, 67, 80
2, 72959, Note_on_c, 3, 67, 0
2, 72960, Note_on_c, 3, 71, 80
2, 73199, Note_on_c, 3, 71, 0
2, 73200, Note_on_c, 3, 69, 80
2, 73439, Note_on_c, 3, 69, 0
2, 73440, Note_on_c, 3, 71, 80
2, 73679, Note_on_c, 3, 71, 0
2, 73680, Note_on_c, 3, 67, 80
2, 73919, Note_on_c, 3, 67, 0
2, 73920, Note_on_c, 3, 71, 80
2, 74159, Note_on_c, 3, 71, 0
2, 74160, Note_on_c, 3, 69, 80
2, 74399, Note_on_c, 3, 69, 0
2, 74400, Note_on_c, 3, 71, 80
2, 74639, Note_on_c, 3, 71, 0
2, 74640, Note_on_c, 3, 67, 80
2, 74879, Note_on_c, 3, 67, 0
2, 74880, Note_on_c, 3, 71, 80
2, 75119, Note_on_c, 3, 71, 0
2, 75120, Note_on_c, 3, 69, 80
2, 75359, Note_on_c, 3, 69, 0
2, 75360, Note_on_c, 3, 71, 80
2, 75599, Note_on_c, 3, 71, 0
2, 75600, Note_on_c, 3, 67, 80
2, 75839, Note_on_c, 3, 67, 0
2, 75840, Note_on_c, 3, 71, 80
2, 76079, Note_on_c, 3, 71, 0
2, 76080, Note_on_c, 3, 69, 80
2, 76319, Note_on_c, 3, 69, 0
2, 76320, Note_on_c, 3, 71, 80
2, 76559, Note_on_c, 3, 71, 0
2, 76560, Note_on_c, 3, 67, 80
2, 76799, Note_on_c, 3, 67, 0
2, 76800, Note_on_c, 3, 72, 80
2, 77039, Note_on_c, 3, 72, 0
2, 77040, Note_on_c, 3, 71, 80
2, 77279, Note_on_c, 3, 71, 0
2, 77280, Note_on_c, 3, 72, 80
2, 77519, Note_on_c, 3, 72, 0
2, 77520, Note_on_c, 3, 69, 80
2, 77759, Note_on_c, 3, 69, 0
2, 77760, Note_on_c, 3, 72, 80
2, 77999, Note_on_c, 3, 72, 0
2, 78000, Note_on_c, 3, 71, 80
2, 78239, Note_on_c, 3, 71, 0
2, 78240, Note_on_c, 3, 72, 80
2, 78479, Note_on_c, 3, 72, 0
2, 78480, Note_on_c, 3, 69, 80
2, 78719, Note_on_c, 3, 69, 0
2, 78720, Note_on_c, 3, 72, 80
2, 78959, Note_on_c, 3, 72, 0
2, 78960, Note_on_c, 3, 71, 80
2, 79199, Note_on_c, 3, 71, 0
2, 79200, Note_on_c, 3, 72, 80
2, 79439, Note_on_c, 3, 72, 0
2, 79440, Note_on_c, 3, 67, 80
2, 79679, Note_on_c, 3, 67, 0
2, 79680, Note_on_c, 3, 72, 80
2, 79919, Note_on_c, 3, 72, 0
2, 79920, Note_on_c, 3, 71, 80
2, 80159, Note_on_c, 3, 71, 0
2, 80160, Note_on_c, 3, 72, 80
2, 80399, Note_on_c, 3, 72, 0
2, 80400, Note_on_c, 3, 67, 80
2, 80639, Note_on_c, 3, 67, 0
2, 80640, Note_on_c, 3, 71, 80
2, 80879, Note_on_c, 3, 71, 0
2, 80880, Note_on_c, 3, 69, 80
2, 81119, Note_on_c, 3, 69, 0
2, 81120, Note_on_c, 3, 71, 80
2, 81359, Note_on_c, 3, 71, 0
2, 81360, Note_on_c, 3, 67, 80
2, 81599, Note_on_c, 3, 67, 0
2, 81600, Note_on_c, 3, 71, 80
2, 81839, Note_on_c, 3, 71, 0
2, 81840, Note_on_c, 3, 69, 80
2, 82079, Note_on_c, 3, 69, 0
2, 82080, Note_on_c, 3, 71, 80
2, 82319, Note_on_c, 3, 71, 0
2, 82320, Note_on_c, 3, 67, 80
2, 82559, Note_on_c, 3, 67, 0
2, 82560, Note_on_c, 3, 71, 80
2, 82799, Note_on_c, 3, 71, 0
2, 82800, Note_on_c, 3, 69, 80
2, 83039, Note_on_c, 3, 69, 0
2, 83040, Note_on_c, 3, 71, 80
2, 83279, Note_on_c, 3, 71, 0
2, 83280, Note_on_c, 3, 67, 80
2, 83519, Note_on_c, 3, 67, 0
2, 83520, Note_on_c, 3, 71, 80
2, 83759, Note_on_c, 3, 71, 0
2, 83760, Note_on_c, 3, 69, 80
2, 83999, Note_on_c, 3, 69, 0
2, 84000, Note_on_c, 3, 71, 80
2, 84239, Note_on_c, 3, 71, 0
2, 84240, Note_on_c, 3, 67, 80
2, 84479, Note_on_c, 3, 67, 0
2, 84480, Note_on_c, 3, 72, 80
2, 84719, Note_on_c, 3, 72, 0
2, 84720, Note_on_c, 3, 71, 80
2, 84959, Note_on_c, 3, 71, 0
2, 84960, Note_on_c, 3, 72, 80
2, 85199, Note_on_c, 3, 72, 0
2, 85200, Note_on_c, 3, 69, 80
2, 85439, Note_on_c, 3, 69, 0
2, 85440, Note_on_c, 3, 72, 80
2, 85679, Note_on_c, 3, 72, 0
2, 85680, Note_on_c, 3, 71, 80
2, 85919, Note_on_c, 3, 71, 0
2, 85920, Note_on_c, 3, 72, 80
2, 86159, Note_on_c, 3, 72, 0
2, 86160, Note_on_c, 3, 69, 80
2, 86399, Note_on_c, 3, 69, 0
2, 86400, Note_on_c, 3, 72, 80
2, 86639, Note_on_c, 3, 72, 0
2, 86640, Note_on_c, 3, 71, 80
2, 86879, Note_on_c, 3, 71, 0
2, 86880, Note_on_c, 3, 72, 80
2, 87119, Note_on_c, 3, 72, 0
2, 87120, Note_on_c, 3, 67, 80
2, 87359, Note_on_c, 3, 67, 0
2, 87360, Note_on_c, 3, 72, 80
2, 87599, Note_on_c, 3, 72, 0
2, 87600, Note_on_c, 3, 71, 80
2, 87839, Note_on_c, 3, 71, 0
2, 87840, Note_on_c, 3, 72, 80
2, 88079, Note_on_c, 3, 72, 0
2, 88080, Note_on_c, 3, 67, 80
2, 88319, Note_on_c, 3, 67, 0
2, 88320, Note_on_c, 3, 71, 80
2, 88559, Note_on_c, 3, 71, 0
2, 88560, Note_on_c, 3, 69, 80
2, 88799, Note_on_c, 3, 69, 0
2, 88800, Note_on_c, 3, 71, 80
2, 89039, Note_on_c, 3, 71, 0
2, 89040, Note_on_c, 3, 67, 80
2, 89279, Note_on_c, 3, 67, 0
2, 89280, Note_on_c, 3, 71, 80
2, 89519, Note_on_c, 3, 71, 0
2, 89520, Note_on_c, 3, 69, 80
2, 89759, Note_on_c, 3, 69, 0
2, 89760, Note_on_c, 3, 71, 80
2, 89999, Note_on_c, 3, 71, 0
2, 90000, Note_on_c, 3, 67, 80
2, 90239, Note_on_c, 3, 67, 0
2, 90240, Note_on_c, 3, 71, 80
2, 90479, Note_on_c, 3, 71, 0
2, 90480, Note_on_c, 3, 69, 80
2, 90719, Note_on_c, 3, 69, 0
2, 90720, Note_on_c, 3, 71, 80
2, 90959, Note_on_c, 3, 71, 0
2, 90960, Note_on_c, 3, 67, 80
2, 91199, Note_on_c, 3, 67, 0
2, 91200, Note_on_c, 3, 71, 80
2, 91439, Note_on_c, 3, 71, 0
2, 91440, Note_on_c, 3, 69, 80
2, 91679, Note_on_c, 3, 69, 0
2, 91680, Note_on_c, 3, 71, 80
2, 91919, Note_on_c, 3, 71, 0
2, 91920, Note_on_c, 3, 67, 80
2, 92159, Note_on_c, 3, 67, 0
2, 92160, Note_on_c, 3, 72, 80
2, 92399, Note_on_c, 3, 72, 0
2, 92400, Note_on_c, 3, 71, 80
2, 92639, Note_on_c, 3, 71, 0
2, 92640, Note_on_c, 3, 72, 80
2, 92879, Note_on_c, 3, 72, 0
2, 92880, Note_on_c, 3, 69, 80
2, 93119, Note_on_c, 3, 69, 0
2, 93120, Note_on_c, 3, 72, 80
2, 93359, Note_on_c, 3, 72, 0
2, 93360, Note_on_c, 3, 71, 80
2, 93599, Note_on_c, 3, 71, 0
2, 93600, Note_on_c, 3, 72, 80
2, 93839, Note_on_c, 3, 72, 0
2, 93840, Note_on_c, 3, 69, 80
2, 94079, Note_on_c, 3, 69, 0
2, 94080, Note_on_c, 3, 72, 80
2, 94319, Note_on_c, 3, 72, 0
2, 94320, Note_on_c, 3, 71, 80
2, 94559, Note_on_c, 3, 71, 0
2, 94560, Note_on_c, 3, 72, 80
2, 94799, Note_on_c, 3, 72, 0
2, 94800, Note_on_c, 3, 67, 80
2, 95039, Note_on_c, 3, 67, 0
2, 95040, Note_on_c, 3, 72, 80
2, 95279, Note_on_c, 3, 72, 0
2, 95280, Note_on_c, 3, 71, 80
2, 95519, Note_on_c, 3, 71, 0
2, 95520, Note_on_c, 3, 72, 80
2, 95759, Note_on_c, 3, 72, 0
2, 95760, Note_on_c, 3, 67, 80
2, 95999, Note_on_c, 3, 67, 0
2, 96000, Note_on_c, 3, 71, 80
2, 96239, Note_on_c, 3, 71, 0
2, 96240, Note_on_c, 3, 69, 80
2, 96479, Note_on_c, 3, 69, 0
2, 96480, Note_on_c, 3, 71, 80
2, 96719, Note_on_c, 3, 71, 0
2, 96720, Note_on_c, 3, 67, 80
2, 96959, Note_on_c, 3, 67, 0
2, 96960, Note_on_c, 3, 71, 80
2, 97199, Note_on_c, 3, 71, 0
2, 97200, Note_on_c, 3, 69, 80
2, 97439, Note_on_c, 3, 69, 0
2, 97440, Note_on_c, 3, 71, 80
2, 97679, Note_on_c, 3, 71, 0
2, 97680, Note_on_c, 3, 67, 80
2, 97919, Note_on_c, 3, 67, 0
2, 97920, Note_on_c, 3, 71, 80
2, 98159, Note_on_c, 3, 71, 0
2, 98160, Note_on_c, 3, 69, 80
2, 98399, Note_on_c, 3, 69, 0
2, 98400, Note_on_c, 3, 71, 80
2, 98639, Note_on_c, 3, 71, 0
2, 98640, Note_on_c, 3, 67, 80
2, 98879, Note_on_c, 3, 67, 0
2, 98880, Note_on_c, 3, 71, 80
2, 99119, Note_on_c, 3, 71, 0
2, 99120, Note_on_c, 3, 69, 80
2, 99359, Note_on_c, 3, 69, 0
2, 99360, Note_on_c, 3, 71, 80
2, 99599, Note_on_c, 3, 71, 0
2, 99600, Note_on_c, 3, 67, 80
2, 99839, Note_on_c, 3, 67, 0
2, 99840, Note_on_c, 3, 72, 80
2, 100079, Note_on_c, 3, 72, 0
2, 100080, Note_on_c, 3, 71, 80
2, 100319, Note_on_c, 3, 71, 0
2, 100320, Note_on_c, 3, 72, 80
2, 100559, Note_on_c, 3, 72, 0
2, 100560, Note_on_c, 3, 69, 80
2, 100799, Note_on_c, 3, 69, 0
2, 100800, Note_on_c, 3, 72, 80
2, 101039, Note_on_c, 3, 72, 0
2, 101040, Note_on_c, 3, 71, 80
2, 101279, Note_on_c, 3, 71, 0
2, 101280, Note_on_c, 3, 72, 80
2, 101519, Note_on_c, 3, 72, 0
2, 101520, Note_on_c, 3, 69, 80
2, 101759, Note_on_c, 3, 69, 0
2, 101760, Note_on_c, 3, 72, 80
2, 101999, Note_on_c, 3, 72, 0
2, 102000, Note_on_c, 3, 71, 80
2, 102239, Note_on_c, 3, 71, 0
2, 102240, Note_on_c, 3, 72, 80
2, 102479, Note_on_c, 3, 72, 0
2, 102480, Note_on_c, 3, 67, 80
2, 102719, Note_on_c, 3, 67, 0
2, 102720, Note_on_c, 3, 72, 80
2, 102959, Note_on_c, 3, 72, 0
2, 102960, Note_on_c, 3, 71, 80
2, 103199, Note_on_c, 3, 71, 0
2, 103200, Note_on_c, 3, 72, 80
2, 103439, Note_on_c, 3, 72, 0
2, 103440, Note_on_c, 3, 67, 80
2, 103679, Note_on_c, 3, 67, 0
2, 103680, Note_on_c, 3, 71, 80
2, 103919, Note_on_c, 3, 71, 0
2, 103920, Note_on_c, 3, 69, 80
2, 104159, Note_on_c, 3, 69, 0
2, 104160, Note_on_c, 3, 71, 80
2, 104399, Note_on_c, 3, 71, 0
2, 104400, Note_on_c, 3, 67, 80
2, 104639, Note_on_c, 3, 67, 0
2, 104640, Note_on_c, 3, 71, 80
2, 104879, Note_on_c, 3, 71, 0
2, 104880, Note_on_c, 3, 69, 80
2, 105119, Note_on_c, 3, 69, 0
2, 105120, Note_on_c, 3, 71, 80
2, 105359, Note_on_c, 3, 71, 0
2, 105360, Note_on_c, 3, 67, 80
2, 105599, Note_on_c, 3, 67, 0
2, 105600, Note_on_c, 3, 71, 80
2, 105839, Note_on_c, 3, 71, 0
2, 105840, Note_on_c, 3, 69, 80
2, 106079, Note_on_c, 3, 69, 0
2, 106080, Note_on_c, 3, 71, 80
2, 106319, Note_on_c, 3, 71, 0
2, 106320, Note_on_c, 3, 67, 80
2, 106559, Note_on_c, 3, 67, 0
2, 106560, Note_on_c, 3, 71, 80
2, 106799, Note_on_c, 3, 71, 0
2, 106800, Note_on_c, 3, 69, 80
2, 107039, Note_on_c, 3, 69, 0
2, 107040, Note_on_c, 3, 71, 80
2, 107279, Note_on_c, 3, 71, 0
2, 107280, Note_on_c, 3, 67, 80
2, 107519, Note_on_c, 3, 67, 0
2, 107520, Note_on_c, 3, 72, 80
2, 107759, Note_on_c, 3, 72, 0
2, 107760, Note_on_c, 3, 71, 80
2, 107999, Note_on_c, 3, 71, 0
2, 108000, Note_on_c, 3, 72, 80
2, 108239, Note_on_c, 3, 72, 0
2, 108240, Note_on_c, 3, 69, 80
2, 108479, Note_on_c, 3, 69, 0
2, 108480, Note_on_c, 3, 72, 80
2, 108719, Note_on_c, 3, 72, 0
2, 108720, Note_on_c, 3, 71, 80
2, 108959, Note_on_c, 3, 71, 0
2, 108960, Note_on_c, 3, 72, 80
2, 109199, Note_on_c, 3, 72, 0
2, 109200, Note_on_c, 3, 69, 80
2, 109439, Note_on_c, 3, 69, 0
2, 109440, Note_on_c, 3, 72, 80
2, 109679, Note_on_c, 3, 72, 0
2, 109680, Note_on_c, 3, 71, 80
2, 109919, Note_on_c, 3, 71, 0
2, 109920, Note_on_c, 3, 72, 80
2, 110159, Note_on_c, 3, 72, 0
2, 110160, Note_on_c, 3, 67, 80
2, 110399, Note_on_c, 3, 67, 0
2, 110400, Note_on_c, 3, 72, 80
2, 110639, Note_on_c, 3, 72, 0
2, 110640, Note_on_c, 3, 71, 80
2, 110879, Note_on_c, 3, 71, 0
2, 110880, Note_on_c, 3, 72, 80
2, 111119, Note_on_c, 3, 72, 0
2, 111120, Note_on_c, 3, 67, 80
2, 111359, Note_on_c, 3, 67, 0
2, 111360, Note_on_c, 3, 71, 80
2, 111599, Note_on_c, 3, 71, 0
2, 111600, Note_on_c, 3, 69, 80
2, 111839, Note_on_c, 3, 69, 0
2, 111840, Note_on_c, 3, 71, 80
2, 112079, Note_on_c, 3, 71, 0
2, 112080, Note_on_c, 3, 67, 80
2, 112319, Note_on_c, 3, 67, 0
2, 112320, Note_on_c, 3, 71, 80
2, 112559, Note_on_c, 3, 71, 0
2, 112560, Note_on_c, 3, 69, 80
2, 112799, Note_on_c, 3, 69, 0
2, 112800, Note_on_c, 3, 71, 80
2, 113039, Note_on_c, 3, 71, 0
2, 113040, Note_on_c, 3, 67, 80
2, 113279, Note_on_c, 3, 67, 0
2, 113280, Note_on_c, 3, 71, 80
2, 113519, Note_on_c, 3, 71, 0
2, 113520, Note_on_c, 3, 69, 80
2, 113759, Note_on_c, 3, 69, 0
2, 113760, Note_on_c, 3, 71, 80
2, 113999, Note_on_c, 3, 71, 0
2, 114000, Note_on_c, 3, 67, 80
2, 114239, Note_on_c, 3, 67, 0
2, 114240, Note_on_c, 3, 71, 80
2, 114479, Note_on_c, 3, 71, 0
2, 114480, Note_on_c, 3, 69, 80
2, 114719, Note_on_c, 3, 69, 0
2, 114720, Note_on_c, 3, 71, 80
2, 114959, Note_on_c, 3, 71, 0
2, 114960, Note_on_c, 3, 67, 80
2, 115199, Note_on_c, 3, 67, 0
2, 115200, Note_on_c, 3, 60, 80
2, 115439, Note_on_c, 3, 60, 0
2, 115440, Note_on_c, 3, 59, 80
2, 115679, Note_on_c, 3, 59, 0
2, 115680, Note_on_c, 3, 60, 80
2, 115919, Note_on_c, 3, 60, 0
2, 115920, Note_on_c, 3, 57, 80
2, 116159, Note_on_c, 3, 57, 0
2, 116160, Note_on_c, 3, 60, 80
2, 116399, Note_on_c, 3, 60, 0
2, 116400, Note_on_c, 3, 59, 80
2, 116639, Note_on_c, 3, 59, 0
2, 116640, Note_on_c, 3, 60, 80
2, 116879, Note_on_c, 3, 60, 0
2, 116880, Note_on_c, 3, 57, 80
2, 117119, Note_on_c, 3, 57, 0
2, 117120, Note_on_c, 3, 60, 80
2, 117359, Note_on_c, 3, 60, 0
2, 117360, Note_on_c, 3, 59, 80
2, 117599, Note_on_c, 3, 59, 0
2, 117600, Note_on_c, 3, 60, 80
2, 117839, Note_on_c, 3, 60, 0
2, 117840, Note_on_c, 3, 55, 80
2, 118079, Note_on_c, 3, 55, 0
2, 118080, Note_on_c, 3, 60, 80
2, 118319, Note_on_c, 3, 60, 0
2, 118320, Note_on_c, 3, 59, 80
2, 118559, Note_on_c, 3, 59, 0
2, 118560, Note_on_c, 3, 60, 80
2, 118799, Note_on_c, 3, 60, 0
2, 118800, Note_on_c, 3, 55, 80
2, 119039, Note_on_c, 3, 55, 0
2, 119040, Note_on_c, 3, 59, 80
2, 119279, Note_on_c, 3, 59, 0
2, 119280, Note_on_c, 3, 57, 80
2, 119519, Note_on_c, 3, 57, 0
2, 119520, Note_on_c, 3, 59, 80
2, 119759, Note_on_c, 3, 59, 0
2, 119760, Note_on_c, 3, 55, 80
2, 119999, Note_on_c, 3, 55, 0
2, 120000, Note_on_c, 3, 59, 80
2, 120239, Note_on_c, 3, 59, 0
2, 120240, Note_on_c, 3, 57, 80
2, 120479, Note_on_c, 3, 57, 0
2, 120480, Note_on_c, 3, 59, 80
2, 120719, Note_on_c, 3, 59, 0
2, 120720, Note_on_c, 3, 55, 80
2, 120959, Note_on_c, 3, 55, 0
2, 120960, Note_on_c, 3, 59, 80
2, 121199, Note_on_c, 3, 59, 0
2, 121200, Note_on_c, 3, 57, 80
2, 121439, Note_on_c, 3, 57, 0
2, 121440, Note_on_c, 3, 59, 80
2, 121679, Note_on_c, 3, 59, 0
2, 121680, Note_on_c, 3, 55, 80
2, 121919, Note_on_c, 3, 55, 0
2, 121920, Note_on_c, 3, 59, 80
2, 122159, Note_on_c, 3, 59, 0
2, 122160, Note_on_c, 3, 57, 80
2, 122399, Note_on_c, 3, 57, 0
2, 122400, Note_on_c, 3, 59, 80
2, 122639, Note_on_c, 3, 59, 0
2, 122640, Note_on_c, 3, 55, 80
2, 122879, Note_on_c, 3, 55, 0
2, 122880, Note_on_c, 3, 60, 80
2, 123119, Note_on_c, 3, 60, 0
2, 123120, Note_on_c, 3, 59, 80
2, 123359, Note_on_c, 3, 59, 0
2, 123360, Note_on_c, 3, 60, 80
2, 123599, Note_on_c, 3, 60, 0
2, 123600, Note_on_c, 3, 57, 80
2, 123839, Note_on_c, 3, 57, 0
2, 123840, Note_on_c, 3, 60, 80
2, 124079, Note_on_c, 3, 60, 0
2, 124080, Note_on_c, 3, 59, 80
2, 124319, Note_on_c, 3, 59, 0
2, 124320, Note_on_c, 3, 60, 80
2, 124559, Note_on_c, 3, 60, 0
2, 124560, Note_on_c, 3, 57, 80
2, 124799, Note_on_c, 3, 57, 0
2, 124800, Note_on_c, 3, 60, 80
2, 125039, Note_on_c, 3, 60, 0
2, 125040, Note_on_c, 3, 59, 80
2, 125279, Note_on_c, 3, 59, 0
2, 125280, Note_on_c, 3, 60, 80
2, 125519, Note_on_c, 3, 60, 0
2, 125520, Note_on_c, 3, 55, 80
2, 125759, Note_on_c, 3, 55, 0
2, 125760, Note_on_c, 3, 60, 80
2, 125999, Note_on_c, 3, 60, 0
2, 126000, Note_on_c, 3, 59, 80
2, 126239, Note_on_c, 3, 59, 0
2, 126240, Note_on_c, 3, 60, 80
2, 126479, Note_on_c, 3, 60, 0
2, 126480, Note_on_c, 3, 55, 80
2, 126719, Note_on_c, 3, 55, 0
2, 126720, Note_on_c, 3, 59, 80
2, 126959, Note_on_c, 3, 59, 0
2, 126960, Note_on_c, 3, 57, 80
2, 127199, Note_on_c, 3, 57, 0
2, 127200, Note_on_c, 3, 59, 80
2, 127439, Note_on_c, 3, 59, 0
2, 127440, Note_on_c, 3, 55, 80
2, 127679, Note_on_c, 3, 55, 0
2, 127680, Note_on_c, 3, 59, 80
2, 127919, Note_on_c, 3, 59, 0
2, 127920, Note_on_c, 3, 57, 80
2, 128159, Note_on_c, 3, 57, 0
2, 128160, Note_on_c, 3, 59, 80
2, 128399, Note_on_c, 3, 59, 0
2, 128400, Note_on_c, 3, 55, 80
2, 128639, Note_on_c, 3, 55, 0
2, 128640, Note_on_c, 3, 59, 80
2, 128879, Note_on_c, 3, 59, 0
2, 128880, Note_on_c, 3, 57, 80
2, 129119, Note_on_c, 3, 57, 0
2, 129120, Note_on_c, 3, 59, 80
2, 129359, Note_on_c, 3, 59, 0
2, 129360, Note_on_c, 3, 55, 80
2, 129599, Note_on_c, 3, 55, 0
2, 129600, Note_on_c, 3, 59, 80
2, 129839, Note_on_c, 3, 59, 0
2, 129840, Note_on_c, 3, 57, 80
2, 130079, Note_on_c, 3, 57, 0
2, 130080, Note_on_c, 3, 59, 80
2, 130319, Note_on_c, 3, 59, 0
2, 130320, Note_on_c, 3, 55, 80
2, 130559, Note_on_c, 3, 55, 0
2, 130560, Note_on_c, 3, 72, 80
2, 130799, Note_on_c, 3, 72, 0
2, 130800, Note_on_c, 3, 71, 80
2, 131039, Note_on_c, 3, 71, 0
2, 131040, Note_on_c, 3, 72, 80
2, 131279, Note_on_c, 3, 72, 0
2, 131280, Note_on_c, 3, 69, 80
2, 131519, Note_on_c, 3, 69, 0
2, 131520, Note_on_c, 3, 72, 80
2, 131759, Note_on_c, 3, 72, 0
2, 131760, Note_on_c, 3, 71, 80
2, 131999, Note_on_c, 3, 71, 0
2, 132000, Note_on_c, 3, 72, 80
2, 132239, Note_on_c, 3, 72, 0
2, 132240, Note_on_c, 3, 69, 80
2, 132479, Note_on_c, 3, 69, 0
2, 132480, Note_on_c, 3, 72, 80
2, 132719, Note_on_c, 3, 72, 0
2, 132720, Note_on_c, 3, 71, 80
2, 132959, Note_on_c, 3, 71, 0
2, 132960, Note_on_c, 3, 72, 80
2, 133199, Note_on_c, 3, 72, 0
2, 133200, Note_on_c, 3, 67, 80
2, 133439, Note_on_c, 3, 67, 0
2, 133440, Note_on_c, 3, 72, 80
2, 133679, Note_on_c, 3, 72, 0
2, 133680, Note_on_c, 3, 71, 80
2, 133919, Note_on_c, 3, 71, 0
2, 133920, Note_on_c, 3, 72, 80
2, 134159, Note_on_c, 3, 72, 0
2, 134160, Note_on_c, 3, 67, 80
2, 134399, Note_on_c, 3, 67, 0
2, 134400, Note_on_c, 3, 71, 80
2, 134639, Note_on_c, 3, 71, 0
2, 134640, Note_on_c, 3, 69, 80
2, 134879, Note_on_c, 3, 69, 0
2, 134880, Note_on_c, 3, 71, 80
2, 135119, Note_on_c, 3, 71, 0
2, 135120, Note_on_c, 3, 67, 80
2, 135359, Note_on_c, 3, 67, 0
2, 135360, Note_on_c, 3, 71, 80
2, 135599, Note_on_c, 3, 71, 0
2, 135600, Note_on_c, 3, 69, 80
2, 135839, Note_on_c, 3, 69, 0
2, 135840, Note_on_c, 3, 71, 80
2, 136079, Note_on_c, 3, 71, 0
2, 136080, Note_on_c, 3, 67, 80
2, 136319, Note_on_c, 3, 67, 0
2, 136320, Note_on_c, 3, 71, 80
2, 136559, Note_on_c, 3, 71, 0
2, 136560, Note_on_c, 3, 69, 80
2, 136799, Note_on_c, 3, 69, 0
2, 136800, Note_on_c, 3, 71, 80
2, 137039, Note_on_c, 3, 71, 0
2, 137040, Note_on_c, 3, 67, 80
2, 137279, Note_on_c, 3, 67, 0
2, 137280, Note_on_c, 3, 71, 80
2, 137519, Note_on_c, 3, 71, 0
2, 137520, Note_on_c, 3, 69, 80
2, 137759, Note_on_c, 3, 69, 0
2, 137760, Note_on_c, 3, 71, 80
2, 137999, Note_on_c, 3, 71, 0
2, 138000, Note_on_c, 3, 67, 80
2, 138239, Note_on_c, 3, 67, 0
2, 138240, Note_on_c, 3, 72, 80
2, 138479, Note_on_c, 3, 72, 0
2, 138480, Note_on_c, 3, 71, 80
2, 138719, Note_on_c, 3, 71, 0
2, 138720, Note_on_c, 3, 72, 80
2, 138959, Note_on_c, 3, 72, 0
2, 138960, Note_on_c, 3, 69, 80
2, 139199, Note_on_c, 3, 69, 0
2, 139200, Note_on_c, 3, 72, 80
2, 139439, Note_on_c, 3, 72, 0
2, 139440, Note_on_c, 3, 71, 80
2, 139679, Note_on_c, 3, 71, 0
2, 139680, Note_on_c, 3, 72, 80
2, 139919, Note_on_c, 3, 72, 0
2, 139920, Note_on_c, 3, 69, 80
2, 140159, Note_on_c, 3, 69, 0
2, 140160, Note_on_c, 3, 72, 80
2, 140399, Note_on_c, 3, 72, 0
2, 140400, Note_on_c, 3, 71, 80
2, 140639, Note_on_c, 3, 71, 0
2, 140640, Note_on_c, 3, 72, 80
2, 140879, Note_on_c, 3, 72, 0
2, 140880, Note_on_c, 3, 67, 80
2, 141119, Note_on_c, 3, 67, 0
2, 141120, Note_on_c, 3, 72, 80
2, 141359, Note_on_c, 3, 72, 0
2, 141360, Note_on_c, 3, 71, 80
2, 141599, Note_on_c, 3, 71, 0
2, 141600, Note_on_c, 3, 72, 80
2, 141839, Note_on_c, 3, 72, 0
2, 141840, Note_on_c, 3, 67, 80
2, 142079, Note_on_c, 3, 67, 0
2, 142080, Note_on_c, 3, 71, 80
2, 142319, Note_on_c, 3, 71, 0
2, 142320, Note_on_c, 3, 69, 80
2, 142559, Note_on_c, 3, 69, 0
2, 142560, Note_on_c, 3, 71, 80
2, 142799, Note_on_c, 3, 71, 0
2, 142800, Note_on_c, 3, 67, 80
2, 143039, Note_on_c, 3, 67, 0
2, 143040, Note_on_c, 3, 71, 80
2, 143279, Note_on_c, 3, 71, 0
2, 143280, Note_on_c, 3, 69, 80
2, 143519, Note_on_c, 3, 69, 0
2, 143520, Note_on_c, 3, 71, 80
2, 143759, Note_on_c, 3, 71, 0
2, 143760, Note_on_c, 3, 67, 80
2, 143999, Note_on_c, 3, 67, 0
2, 144000, Note_on_c, 3, 71, 80
2, 144239, Note_on_c, 3, 71, 0
2, 144240, Note_on_c, 3, 69, 80
2, 144479, Note_on_c, 3, 69, 0
2, 144480, Note_on_c, 3, 71, 80
2, 144719, Note_on_c, 3, 71, 0
2, 144720, Note_on_c, 3, 67, 80
2, 144959, Note_on_c, 3, 67, 0
2, 144960, Note_on_c, 3, 71, 80
2, 145199, Note_on_c, 3, 71, 0
2, 145200, Note_on_c, 3, 69, 80
2, 145439, Note_on_c, 3, 69, 0
2, 145440, Note_on_c, 3, 71, 80
2, 145679, Note_on_c, 3, 71, 0
2, 145680, Note_on_c, 3, 67, 80
2, 145919, Note_on_c, 3, 67, 0
2, 145920, Note_on_c, 3, 60, 80
2, 146159, Note_on_c, 3, 60, 0
2, 146160, Note_on_c, 3, 59, 80
2, 146399, Note_on_c, 3, 59, 0
2, 146400, Note_on_c, 3, 60, 80
2, 146639, Note_on_c, 3, 60, 0
2, 146640, Note_on_c, 3, 57, 80
2, 146879, Note_on_c, 3, 57, 0
2, 146880, Note_on_c, 3, 60, 80
2, 147119, Note_on_c, 3, 60, 0
2, 147120, Note_on_c, 3, 59, 80
2, 147359, Note_on_c, 3, 59, 0
2, 147360, Note_on_c, 3, 60, 80
2, 147599, Note_on_c, 3, 60, 0
2, 147600, Note_on_c, 3, 57, 80
2, 147839, Note_on_c, 3, 57, 0
2, 147840, Note_on_c, 3, 60, 80
2, 148079, Note_on_c, 3, 60, 0
2, 148080, Note_on_c, 3, 59, 80
2, 148319, Note_on_c, 3, 59, 0
2, 148320, Note_on_c, 3, 60, 80
2, 148559, Note_on_c, 3, 60, 0
2, 148560, Note_on_c, 3, 55, 80
2, 148799, Note_on_c, 3, 55, 0
2, 148800, Note_on_c, 3, 60, 80
2, 149039, Note_on_c, 3, 60, 0
2, 149040, Note_on_c, 3, 59, 80
2, 149279, Note_on_c, 3, 59, 0
2, 149280, Note_on_c, 3, 60, 80
2, 149519, Note_on_c, 3, 60, 0
2, 149520, Note_on_c, 3, 55, 80
2, 149759, Note_on_c, 3, 55, 0
2, 149760, Note_on_c, 3, 59, 80
2, 149999, Note_on_c, 3, 59, 0
2, 150000, Note_on_c, 3, 57, 80
2, 150239, Note_on_c, 3, 57, 0
2, 150240, Note_on_c, 3, 59, 80
2, 150479, Note_on_c, 3, 59, 0
2, 150480, Note_on_c, 3, 55, 80
2, 150719, Note_on_c, 3, 55, 0
2, 150720, Note_on_c, 3, 59, 80
2, 150959, Note_on_c, 3, 59, 0
2, 150960, Note_on_c, 3, 57, 80
2, 151199, Note_on_c, 3, 57, 0
2, 151200, Note_on_c, 3, 59, 80
2, 151439, Note_on_c, 3, 59, 0
2, 151440, Note_on_c, 3, 55, 80
2, 151679, Note_on_c, 3, 55, 0
2, 151680, Note_on_c, 3, 59, 80
2, 151919, Note_on_c, 3, 59, 0
2, 151920, Note_on_c, 3, 57, 80
2, 152159, Note_on_c, 3, 57, 0
2, 152160, Note_on_c, 3, 59, 80
2, 152399, Note_on_c, 3, 59, 0
2, 152400, Note_on_c, 3, 55, 80
2, 152639, Note_on_c, 3, 55, 0
2, 152640, Note_on_c, 3, 59, 80
2, 152879, Note_on_c, 3, 59, 0
2, 152880, Note_on_c, 3, 57, 80
2, 153119, Note_on_c, 3, 57, 0
2, 153120, Note_on_c, 3, 59, 80
2, 153359, Note_on_c, 3, 59, 0
2, 153360, Note_on_c, 3, 55, 80
2, 153599, Note_on_c, 3, 55, 0
2, 153600, Note_on_c, 3, 60, 80
2, 153839, Note_on_c, 3, 60, 0
2, 153840, Note_on_c, 3, 59, 80
2, 154079, Note_on_c, 3, 59, 0
2, 154080, Note_on_c, 3, 60, 80
2, 154319, Note_on_c, 3, 60, 0
2, 154320, Note_on_c, 3, 57, 80
2, 154559, Note_on_c, 3, 57, 0
2, 154560, Note_on_c, 3, 60, 80
2, 154799, Note_on_c, 3, 60, 0
2, 154800, Note_on_c, 3, 59, 80
2, 155039, Note_on_c, 3, 59, 0
2, 155040, Note_on_c, 3, 60, 80
2, 155279, Note_on_c, 3, 60, 0
2, 155280, Note_on_c, 3, 57, 80
2, 155519, Note_on_c, 3, 57, 0
2, 155520, Note_on_c, 3, 60, 80
2, 155759, Note_on_c, 3, 60, 0
2, 155760, Note_on_c, 3, 59, 80
2, 155999, Note_on_c, 3, 59, 0
2, 156000, Note_on_c, 3, 60, 80
2, 156239, Note_on_c, 3, 60, 0
2, 156240, Note_on_c, 3, 55, 80
2, 156479, Note_on_c, 3, 55, 0
2, 156480, Note_on_c, 3, 60, 80
2, 156719, Note_on_c, 3, 60, 0
2, 156720, Note_on_c, 3, 59, 80
2, 156959, Note_on_c, 3, 59, 0
2, 156960, Note_on_c, 3, 60, 80
2, 157199, Note_on_c, 3, 60, 0
2, 157200, Note_on_c, 3, 55, 80
2, 157439, Note_on_c, 3, 55, 0
2, 157440, Note_on_c, 3, 59, 80
2, 157679, Note_on_c, 3, 59, 0
2, 157680, Note_on_c, 3, 57, 80
2, 157919, Note_on_c, 3, 57, 0
2, 157920, Note_on_c, 3, 59, 80
2, 158159, Note_on_c, 3, 59, 0
2, 158160, Note_on_c, 3, 55, 80
2, 158399, Note_on_c, 3, 55, 0
2, 158400, Note_on_c, 3, 59, 80
2, 158639, Note_on_c, 3, 59, 0
2, 158640, Note_on_c, 3, 57, 80
2, 158879, Note_on_c, 3, 57, 0
2, 158880, Note_on_c, 3, 59, 80
2, 159119, Note_on_c, 3, 59, 0
2, 159120, Note_on_c, 3, 55, 80
2, 159359, Note_on_c, 3, 55, 0
2, 159360, Note_on_c, 3, 59, 80
2, 159599, Note_on_c, 3, 59, 0
2, 159600, Note_on_c, 3, 57, 80
2, 159839, Note_on_c, 3, 57, 0
2, 159840, Note_on_c, 3, 59, 80
2, 160079, Note_on_c, 3, 59, 0
2, 160080, Note_on_c, 3, 55, 80
2, 160319, Note_on_c, 3, 55, 0
2, 160320, Note_on_c, 3, 59, 80
2, 160559, Note_on_c, 3, 59, 0
2, 160560, Note_on_c, 3, 57, 80
2, 160799, Note_on_c, 3, 57, 0
2, 160800, Note_on_c, 3, 59, 80
2, 161039, Note_on_c, 3, 59, 0
2, 161040, Note_on_c, 3, 55, 80
2, 161279, Note_on_c, 3, 55, 0
2, 161280, Note_on_c, 3, 72, 80
2, 161280, Note_on_c, 3, 76, 80
2, 161519, Note_on_c, 3, 72, 0
2, 161519, Note_on_c, 3, 76, 0
2, 161760, Note_on_c, 3, 72, 80
2, 161760, Note_on_c, 3, 76, 80
2, 161999, Note_on_c, 3, 72, 0
2, 161999, Note_on_c, 3, 76, 0
2, 162240, Note_on_c, 3, 72, 80
2, 162240, Note_on_c, 3, 76, 80
2, 162599, Note_on_c, 3, 72, 0
2, 162599, Note_on_c, 3, 76, 0
2, 162600, Note_on_c, 3, 72, 80
2, 162600, Note_on_c, 3, 76, 80
2, 162959, Note_on_c, 3, 72, 0
2, 162959, Note_on_c, 3, 76, 0
2, 162960, Note_on_c, 3, 72, 80
2, 162960, Note_on_c, 3, 77, 80
2, 163199, Note_on_c, 3, 72, 0
2, 163199, Note_on_c, 3, 77, 0
2, 163200, Note_on_c, 3, 72, 80
2, 163200, Note_on_c, 3, 76, 80
2, 163439, Note_on_c, 3, 72, 0
2, 163439, Note_on_c, 3, 76, 0
2, 163680, Note_on_c, 3, 72, 80
2, 163680, Note_on_c, 3, 76, 80
2, 163919, Note_on_c, 3, 72, 0
2, 163919, Note_on_c, 3, 76, 0
2, 164160, Note_on_c, 3, 72, 80
2, 164160, Note_on_c, 3, 76, 80
2, 164519, Note_on_c, 3, 72, 0
2, 164519, Note_on_c, 3, 76, 0
2, 164520, Note_on_c, 3, 72, 80
2, 164520, Note_on_c, 3, 76, 80
2, 164879, Note_on_c, 3, 72, 0
2, 164879, Note_on_c, 3, 76, 0
2, 164880, Note_on_c, 3, 72, 80
2, 164880, Note_on_c, 3, 77, 80
2, 165119, Note_on_c, 3, 72, 0
2, 165119, Note_on_c, 3, 77, 0
2, 165120, Note_on_c, 3, 71, 80
2, 165120, Note_on_c, 3, 76, 80
2, 165359, Note_on_c, 3, 71, 0
2, 165359, Note_on_c, 3, 76, 0
2, 165600, Note_on_c, 3, 71, 80
2, 165600, Note_on_c, 3, 76, 80
2, 165839, Note_on_c, 3, 71, 0
2, 165839, Note_on_c, 3, 76, 0
2, 166080, Note_on_c, 3, 71, 80
2, 166080, Note_on_c, 3, 76, 80
2, 166439, Note_on_c, 3, 71, 0
2, 166439, Note_on_c, 3, 76, 0
2, 166440, Note_on_c, 3, 71, 80
2, 166440, Note_on_c, 3, 76, 80
2, 166799, Note_on_c, 3, 71, 0
2, 166799, Note_on_c, 3, 76, 0
2, 166800, Note_on_c, 3, 71, 80
2, 166800, Note_on_c, 3, 77, 80
2, 167039, Note_on_c, 3, 71, 0
2, 167039, Note_on_c, 3, 77, 0
2, 167040, Note_on_c, 3, 74, 80
2, 167040, Note_on_c, 3, 79, 80
2, 167279, Note_on_c, 3, 74, 0
2, 167279, Note_on_c, 3, 79, 0
2, 167520, Note_on_c, 3, 74, 80
2, 167520, Note_on_c, 3, 79, 80
2, 167759, Note_on_c, 3, 74, 0
2, 167759, Note_on_c, 3, 79, 0
2, 168000, Note_on_c, 3, 74, 80
2, 168000, Note_on_c, 3, 79, 80
2, 168359, Note_on_c, 3, 74, 0
2, 168359, Note_on_c, 3, 79, 0
2, 168360, Note_on_c, 3, 74, 80
2, 168360, Note_on_c, 3, 79, 80
2, 168719, Note_on_c, 3, 74, 0
2, 168719, Note_on_c, 3, 79, 0
2, 168720, Note_on_c, 3, 74, 80
2, 168720, Note_on_c, 3, 79, 80
2, 168959, Note_on_c, 3, 74, 0
2, 168959, Note_on_c, 3, 79, 0
2, 168960, Note_on_c, 3, 72, 80
2, 168960, Note_on_c, 3, 76, 80
2, 169199, Note_on_c, 3, 72, 0
2, 169199, Note_on_c, 3, 76, 0
2, 169440, Note_on_c, 3, 72, 80
2, 169440, Note_on_c, 3, 76, 80
2, 169679, Note_on_c, 3, 72, 0
2, 169679, Note_on_c, 3, 76, 0
2, 169920, Note_on_c, 3, 72, 80
2, 169920, Note_on_c, 3, 76, 80
2, 170279, Note_on_c, 3, 72, 0
2, 170279, Note_on_c, 3, 76, 0
2, 170280, Note_on_c, 3, 72, 80
2, 170280, Note_on_c, 3, 76, 80
2, 170639, Note_on_c, 3, 72, 0
2, 170639, Note_on_c, 3, 76, 0
2, 170640, Note_on_c, 3, 72, 80
2, 170640, Note_on_c, 3, 77, 80
2, 170879, Note_on_c, 3, 72, 0
2, 170879, Note_on_c, 3, 77, 0
2, 170880, Note_on_c, 3, 72, 80
2, 170880, Note_on_c, 3, 76, 80
2, 171119, Note_on_c, 3, 72, 0
2, 171119, Note_on_c, 3, 76, 0
2, 171360, Note_on_c, 3, 72, 80
2, 171360, Note_on_c, 3, 76, 80
2, 171599, Note_on_c, 3, 72, 0
2, 171599, Note_on_c, 3, 76, 0
2, 171840, Note_on_c, 3, 72, 80
2, 171840, Note_on_c, 3, 76, 80
2, 172199, Note_on_c, 3, 72, 0
2, 172199, Note_on_c, 3, 76, 0
2, 172200, Note_on_c, 3, 72, 80
2, 172200, Note_on_c, 3, 76, 80
2, 172559, Note_on_c, 3, 72, 0
2, 172559, Note_on_c, 3, 76, 0
2, 172560, Note_on_c, 3, 72, 80
2, 172560, Note_on_c, 3, 77, 80
2, 172799, Note_on_c, 3, 72, 0
2, 172799, Note_on_c, 3, 77, 0
2, 172800, Note_on_c, 3, 71, 80
2, 172800, Note_on_c, 3, 76, 80
2, 173039, Note_on_c, 3, 71, 0
2, 173039, Note_on_c, 3, 76, 0
2, 173280, Note_on_c, 3, 71, 80
2, 173280, Note_on_c, 3, 76, 80
2, 173519, Note_on_c, 3, 71, 0
2, 173519, Note_on_c, 3, 76, 0
2, 173760, Note_on_c, 3, 71, 80
2, 173760, Note_on_c, 3, 76, 80
2, 174119, Note_on_c, 3, 71, 0
2, 174119, Note_on_c, 3, 76, 0
2, 174120, Note_on_c, 3, 71, 80
2, 174120, Note_on_c, 3, 76, 80
2, 174479, Note_on_c, 3, 71, 0
2, 174479, Note_on_c, 3, 76, 0
2, 174480, Note_on_c, 3, 71, 80
2, 174480, Note_on_c, 3, 77, 80
2, 174719, Note_on_c, 3, 71, 0
2, 174719, Note_on_c, 3, 77, 0
2, 174720, Note_on_c, 3, 74, 80
2, 174720, Note_on_c, 3, 79, 80
2, 174959, Note_on_c, 3, 74, 0
2, 174959, Note_on_c, 3, 79, 0
2, 175200, Note_on_c, 3, 74, 80
2, 175200, Note_on_c, 3, 79, 80
2, 175439, Note_on_c, 3, 74, 0
2, 175439, Note_on_c, 3, 79, 0
2, 175680, Note_on_c, 3, 74, 80
2, 175680, Note_on_c, 3, 79, 80
2, 176039, Note_on_c, 3, 74, 0
2, 176039, Note_on_c, 3, 79, 0
2, 176040, Note_on_c, 3, 74, 80
2, 176040, Note_on_c, 3, 79, 80
2, 176399, Note_on_c, 3, 74, 0
2, 176399, Note_on_c, 3, 79, 0
2, 176400, Note_on_c, 3, 74, 80
2, 176400, Note_on_c, 3, 79, 80
2, 176639, Note_on_c, 3, 74, 0
2, 176639, Note_on_c, 3, 79, 0
2, 176640, Note_on_c, 3, 72, 80
2, 176879, Note_on_c, 3, 72, 0
2, 176880, Note_on_c, 3, 71, 80
2, 177119, Note_on_c, 3, 71, 0
2, 177120, Note_on_c, 3, 72, 80
2, 177359, Note_on_c, 3, 72, 0
2, 177360, Note_on_c, 3, 69, 80
2, 177599, Note_on_c, 3, 69, 0
2, 177600, Note_on_c, 3, 72, 80
2, 177839, Note_on_c, 3, 72, 0
2, 177840, Note_on_c, 3, 71, 80
2, 178079, Note_on_c, 3, 71, 0
2, 178080, Note_on_c, 3, 72, 80
2, 178319, Note_on_c, 3, 72, 0
2, 178320, Note_on_c, 3, 69, 80
2, 178559, Note_on_c, 3, 69, 0
2, 178560, Note_on_c, 3, 72, 80
2, 178799, Note_on_c, 3, 72, 0
2, 178800, Note_on_c, 3, 71, 80
2, 179039, Note_on_c, 3, 71, 0
2, 179040, Note_on_c, 3, 72, 80
2, 179279, Note_on_c, 3, 72, 0
2, 179280, Note_on_c, 3, 67, 80
2, 179519, Note_on_c, 3, 67, 0
2, 179520, Note_on_c, 3, 72, 80
2, 179759, Note_on_c, 3, 72, 0
2, 179760, Note_on_c, 3, 71, 80
2, 179999, Note_on_c, 3, 71, 0
2, 180000, Note_on_c, 3, 72, 80
2, 180239, Note_on_c, 3, 72, 0
2, 180240, Note_on_c, 3, 67, 80
2, 180479, Note_on_c, 3, 67, 0
2, 180480, Note_on_c, 3, 71, 80
2, 180719, Note_on_c, 3, 71, 0
2, 180720, Note_on_c, 3, 69, 80
2, 180959, Note_on_c, 3, 69, 0
2, 180960, Note_on_c, 3, 71, 80
2, 181199, Note_on_c, 3, 71, 0
2, 181200, Note_on_c, 3, 67, 80
2, 181439, Note_on_c, 3, 67, 0
2, 181440, Note_on_c, 3, 71, 80
2, 181679, Note_on_c, 3, 71, 0
2, 181680, Note_on_c, 3, 69, 80
2, 181919, Note_on_c, 3, 69, 0
2, 181920, Note_on_c, 3, 71, 80
2, 182159, Note_on_c, 3, 71, 0
2, 182160, Note_on_c, 3, 67, 80
2, 182399, Note_on_c, 3, 67, 0
2, 182400, Note_on_c, 3, 71, 80
2, 182639, Note_on_c, 3, 71, 0
2, 182640, Note_on_c, 3, 69, 80
2, 182879, Note_on_c, 3, 69, 0
2, 182880, Note_on_c, 3, 71, 80
2, 183119, Note_on_c, 3, 71, 0
2, 183120, Note_on_c, 3, 67, 80
2, 183359, Note_on_c, 3, 67, 0
2, 183360, Note_on_c, 3, 71, 80
2, 183599, Note_on_c, 3, 71, 0
2, 183600, Note_on_c, 3, 69, 80
2, 183839, Note_on_c, 3, 69, 0
2, 183840, Note_on_c, 3, 71, 80
2, 184079, Note_on_c, 3, 71, 0
2, 184080, Note_on_c, 3, 67, 80
2, 184319, Note_on_c, 3, 67, 0
2, 184320, Note_on_c, 3, 72, 80
2, 184559, Note_on_c, 3, 72, 0
2, 184560, Note_on_c, 3, 71, 80
2, 184799, Note_on_c, 3, 71, 0
2, 184800, Note_on_c, 3, 72, 80
2, 185039, Note_on_c, 3, 72, 0
2, 185040, Note_on_c, 3, 69, 80
2, 185279, Note_on_c, 3, 69, 0
2, 185280, Note_on_c, 3, 72, 80
2, 185519, Note_on_c, 3, 72, 0
2, 185520, Note_on_c, 3, 71, 80
2, 185759, Note_on_c, 3, 71, 0
2, 185760, Note_on_c, 3, 72, 80
2, 185999, Note_on_c, 3, 72, 0
2, 186000, Note_on_c, 3, 69, 80
2, 186239, Note_on_c, 3, 69, 0
2, 186240, Note_on_c, 3, 72, 80
2, 186479, Note_on_c, 3, 72, 0
2, 186480, Note_on_c, 3, 71, 80
2, 186719, Note_on_c, 3, 71, 0
2, 186720, Note_on_c, 3, 72, 80
2, 186959, Note_on_c, 3, 72, 0
2, 186960, Note_on_c, 3, 67, 80
2, 187199, Note_on_c, 3, 67, 0
2, 187200, Note_on_c, 3, 72, 80
2, 187439, Note_on_c, 3, 72, 0
2, 187440, Note_on_c, 3, 71, 80
2, 187679, Note_on_c, 3, 71, 0
2, 187680, Note_on_c, 3, 72, 80
2, 187919, Note_on_c, 3, 72, 0
2, 187920, Note_on_c, 3, 67, 80
2, 188159, Note_on_c, 3, 67, 0
2, 188160, Note_on_c, 3, 71, 80
2, 188399, Note_on_c, 3, 71, 0
2, 188400, Note_on_c, 3, 69, 80
2, 188639, Note_on_c, 3, 69, 0
2, 188640, Note_on_c, 3, 71, 80
2, 188879, Note_on_c, 3, 71, 0
2, 188880, Note_on_c, 3, 67, 80
2, 189119, Note_on_c, 3, 67, 0
2, 189120, Note_on_c, 3, 71, 80
2, 189359, Note_on_c, 3, 71, 0
2, 189360, Note_on_c, 3, 69, 80
2, 189599, Note_on_c, 3, 69, 0
2, 189600, Note_on_c, 3, 71, 80
2, 189839, Note_on_c, 3, 71, 0
2, 189840, Note_on_c, 3, 67, 80
2, 190079, Note_on_c, 3, 67, 0
2, 190080, Note_on_c, 3, 71, 80
2, 190319, Note_on_c, 3, 71, 0
2, 190320, Note_on_c, 3, 69, 80
2, 190559, Note_on_c, 3, 69, 0
2, 190560, Note_on_c, 3, 71, 80
2, 190799, Note_on_c, 3, 71, 0
2, 190800, Note_on_c, 3, 67, 80
2, 191039, Note_on_c, 3, 67, 0
2, 191040, Note_on_c, 3, 71, 80
2, 191279, Note_on_c, 3, 71, 0
2, 191280, Note_on_c, 3, 69, 80
2, 191519, Note_on_c, 3, 69, 0
2, 191520, Note_on_c, 3, 71, 80
2, 191759, Note_on_c, 3, 71, 0
2, 191760, Note_on_c, 3, 67, 80
2, 191999, Note_on_c, 3, 67, 0
2, 192000, End_track
3, 0, Start_track
3, 0, Title_t, "Electric Bass, Electric Bass, Bass\000"
3, 0, Key_signature, 0, "major"
3, 0, Control_c, 4, 121, 0
3, 0, Program_c, 4, 33
3, 0, Control_c, 4, 7, 100
3, 0, Control_c, 4, 10, 64
3, 0, Control_c, 4, 91, 0
3, 0, Control_c, 4, 93, 0
3, 0, MIDI_port, 0
3, 0, Note_on_c, 4, 57, 80
3, 0, Control_c, 5, 121, 0
3, 0, Program_c, 5, 36
3, 0, Control_c, 5, 7, 100
3, 0, Control_c, 5, 10, 64
3, 0, Control_c, 5, 91, 0
3, 0, Control_c, 5, 93, 0
3, 0, MIDI_port, 0
3, 0, Control_c, 6, 121, 0
3, 0, Program_c, 6, 37
3, 0, Control_c, 6, 7, 100
3, 0, Control_c, 6, 10, 64
3, 0, Control_c, 6, 91, 0
3, 0, Control_c, 6, 93, 0
3, 0, MIDI_port, 0
3, 1919, Note_on_c, 4, 57, 0
3, 1920, Note_on_c, 4, 60, 80
3, 3839, Note_on_c, 4, 60, 0
3, 3840, Note_on_c, 4, 64, 80
3, 5759, Note_on_c, 4, 64, 0
3, 5760, Note_on_c, 4, 67, 80
3, 7679, Note_on_c, 4, 67, 0
3, 7680, Note_on_c, 4, 57, 80
3, 8159, Note_on_c, 4, 57, 0
3, 8160, Note_on_c, 4, 57, 80
3, 8639, Note_on_c, 4, 57, 0
3, 8640, Note_on_c, 4, 57, 80
3, 8879, Note_on_c, 4, 57, 0
3, 8880, Note_on_c, 4, 57, 80
3, 9119, Note_on_c, 4, 57, 0
3, 9360, Note_on_c, 4, 55, 80
3, 9599, Note_on_c, 4, 55, 0
3, 9600, Note_on_c, 4, 60, 80
3, 10079, Note_on_c, 4, 60, 0
3, 10080, Note_on_c, 4, 60, 80
3, 10559, Note_on_c, 4, 60, 0
3, 10560, Note_on_c, 4, 60, 80
3, 10799, Note_on_c, 4, 60, 0
3, 10800, Note_on_c, 4, 60, 80
3, 11039, Note_on_c, 4, 60, 0
3, 11280, Note_on_c, 4, 62, 80
3, 11519, Note_on_c, 4, 62, 0
3, 11520, Note_on_c, 4, 64, 80
3, 11999, Note_on_c, 4, 64, 0
3, 12000, Note_on_c, 4, 64, 80
3, 12479, Note_on_c, 4, 64, 0
3, 12480, Note_on_c, 4, 64, 80
3, 12719, Note_on_c, 4, 64, 0
3, 12720, Note_on_c, 4, 64, 80
3, 12959, Note_on_c, 4, 64, 0
3, 13200, Note_on_c, 4, 62, 80
3, 13439, Note_on_c, 4, 62, 0
3, 13440, Note_on_c, 4, 67, 80
3, 13919, Note_on_c, 4, 67, 0
3, 13920, Note_on_c, 4, 67, 80
3, 14399, Note_on_c, 4, 67, 0
3, 14400, Note_on_c, 4, 67, 80
3, 14639, Note_on_c, 4, 67, 0
3, 14640, Note_on_c, 4, 64, 80
3, 14879, Note_on_c, 4, 64, 0
3, 15120, Note_on_c, 4, 67, 80
3, 15359, Note_on_c, 4, 67, 0
3, 15360, Note_on_c, 4, 57, 80
3, 15839, Note_on_c, 4, 57, 0
3, 15840, Note_on_c, 4, 57, 80
3, 16319, Note_on_c, 4, 57, 0
3, 16320, Note_on_c, 4, 57, 80
3, 16559, Note_on_c, 4, 57, 0
3, 16560, Note_on_c, 4, 57, 80
3, 16799, Note_on_c, 4, 57, 0
3, 17040, Note_on_c, 4, 55, 80
3, 17279, Note_on_c, 4, 55, 0
3, 17280, Note_on_c, 4, 60, 80
3, 17759, Note_on_c, 4, 60, 0
3, 17760, Note_on_c, 4, 60, 80
3, 18239, Note_on_c, 4, 60, 0
3, 18240, Note_on_c, 4, 60, 80
3, 18479, Note_on_c, 4, 60, 0
3, 18480, Note_on_c, 4, 60, 80
3, 18719, Note_on_c, 4, 60, 0
3, 18960, Note_on_c, 4, 62, 80
3, 19199, Note_on_c, 4, 62, 0
3, 19200, Note_on_c, 4, 64, 80
3, 19679, Note_on_c, 4, 64, 0
3, 19680, Note_on_c, 4, 64, 80
3, 20159, Note_on_c, 4, 64, 0
3, 20160, Note_on_c, 4, 64, 80
3, 20399, Note_on_c, 4, 64, 0
3, 20400, Note_on_c, 4, 64, 80
3, 20639, Note_on_c, 4, 64, 0
3, 20880, Note_on_c, 4, 62, 80
3, 21119, Note_on_c, 4, 62, 0
3, 21120, Note_on_c, 4, 67, 80
3, 21599, Note_on_c, 4, 67, 0
3, 21600, Note_on_c, 4, 67, 80
3, 22079, Note_on_c, 4, 67, 0
3, 22080, Note_on_c, 4, 67, 80
3, 22319, Note_on_c, 4, 67, 0
3, 22320, Note_on_c, 4, 64, 80
3, 22559, Note_on_c, 4, 64, 0
3, 22800, Note_on_c, 4, 67, 80
3, 23039, Note_on_c, 4, 67, 0
3, 23040, Note_on_c, 4, 57, 80
3, 23519, Note_on_c, 4, 57, 0
3, 23520, Note_on_c, 4, 57, 80
3, 23999, Note_on_c, 4, 57, 0
3, 24000, Note_on_c, 4, 57, 80
3, 24239, Note_on_c, 4, 57, 0
3, 24240, Note_on_c, 4, 57, 80
3, 24479, Note_on_c, 4, 57, 0
3, 24720, Note_on_c, 4, 55, 80
3, 24959, Note_on_c, 4, 55, 0
3, 24960, Note_on_c, 4, 60, 80
3, 25439, Note_on_c, 4, 60, 0
3, 25440, Note_on_c, 4, 60, 80
3, 25919, Note_on_c, 4, 60, 0
3, 25920, Note_on_c, 4, 60, 80
3, 26159, Note_on_c, 4, 60, 0
3, 26160, Note_on_c, 4, 60, 80
3, 26399, Note_on_c, 4, 60, 0
3, 26640, Note_on_c, 4, 62, 80
3, 26879, Note_on_c, 4, 62, 0
3, 26880, Note_on_c, 4, 64, 80
3, 27359, Note_on_c, 4, 64, 0
3, 27360, Note_on_c, 4, 64, 80
3, 27839, Note_on_c, 4, 64, 0
3, 27840, Note_on_c, 4, 64, 80
3, 28079, Note_on_c, 4, 64, 0
3, 28080, Note_on_c, 4, 64, 80
3, 28319, Note_on_c, 4, 64, 0
3, 28560, Note_on_c, 4, 62, 80
3, 28799, Note_on_c, 4, 62, 0
3, 28800, Note_on_c, 4, 67, 80
3, 29279, Note_on_c, 4, 67, 0
3, 29280, Note_on_c, 4, 67, 80
3, 29759, Note_on_c, 4, 67, 0
3, 29760, Note_on_c, 4, 67, 80
3, 29999, Note_on_c, 4, 67, 0
3, 30000, Note_on_c, 4, 64, 80
3, 30239, Note_on_c, 4, 64, 0
3, 30480, Note_on_c, 4, 67, 80
3, 30719, Note_on_c, 4, 67, 0
3, 30720, Note_on_c, 4, 57, 80
3, 31199, Note_on_c, 4, 57, 0
3, 31200, Note_on_c, 4, 57, 80
3, 31679, Note_on_c, 4, 57, 0
3, 31680, Note_on_c, 4, 57, 80
3, 31919, Note_on_c, 4, 57, 0
3, 31920, Note_on_c, 4, 57, 80
3, 32159, Note_on_c, 4, 57, 0
3, 32400, Note_on_c, 4, 55, 80
3, 32639, Note_on_c, 4, 55, 0
3, 32640, Note_on_c, 4, 60, 80
3, 33119, Note_on_c, 4, 60, 0
3, 33120, Note_on_c, 4, 60, 80
3, 33599, Note_on_c, 4, 60, 0
3, 33600, Note_on_c, 4, 60, 80
3, 33839, Note_on_c, 4, 60, 0
3, 33840, Note_on_c, 4, 60, 80
3, 34079, Note_on_c, 4, 60, 0
3, 34320, Note_on_c, 4, 62, 80
3, 34559, Note_on_c, 4, 62, 0
3, 34560, Note_on_c, 4, 64, 80
3, 35039, Note_on_c, 4, 64, 0
3, 35040, Note_on_c, 4, 64, 80
3, 35519, Note_on_c, 4, 64, 0
3, 35520, Note_on_c, 4, 64, 80
3, 35759, Note_on_c, 4, 64, 0
3, 35760, Note_on_c, 4, 64, 80
3, 35999, Note_on_c, 4, 64, 0
3, 36240, Note_on_c, 4, 62, 80
3, 36479, Note_on_c, 4, 62, 0
3, 36480, Note_on_c, 4, 67, 80
3, 36959, Note_on_c, 4, 67, 0
3, 36960, Note_on_c, 4, 67, 80
3, 37439, Note_on_c, 4, 67, 0
3, 37440, Note_on_c, 4, 67, 80
3, 37679, Note_on_c, 4, 67, 0
3, 37680, Note_on_c, 4, 64, 80
3, 37919, Note_on_c, 4, 64, 0
3, 38160, Note_on_c, 4, 67, 80
3, 38399, Note_on_c, 4, 67, 0
3, 38400, Note_on_c, 4, 57, 80
3, 40319, Note_on_c, 4, 57, 0
3, 40320, Note_on_c, 4, 60, 80
3, 42239, Note_on_c, 4, 60, 0
3, 42240, Note_on_c, 4, 64, 80
3, 44159, Note_on_c, 4, 64, 0
3, 44160, Note_on_c, 4, 67, 80
3, 46079, Note_on_c, 4, 67, 0
3, 46080, Note_on_c, 4, 57, 80
3, 46559, Note_on_c, 4, 57, 0
3, 46560, Note_on_c, 4, 57, 80
3, 47039, Note_on_c, 4, 57, 0
3, 47040, Note_on_c, 4, 57, 80
3, 47279, Note_on_c, 4, 57, 0
3, 47280, Note_on_c, 4, 57, 80
3, 47519, Note_on_c, 4, 57, 0
3, 47760, Note_on_c, 4, 55, 80
3, 47999, Note_on_c, 4, 55, 0
3, 48000, Note_on_c, 4, 60, 80
3, 48479, Note_on_c, 4, 60, 0
3, 48480, Note_on_c, 4, 60, 80
3, 48959, Note_on_c, 4, 60, 0
3, 48960, Note_on_c, 4, 60, 80
3, 49199, Note_on_c, 4, 60, 0
3, 49200, Note_on_c, 4, 60, 80
3, 49439, Note_on_c, 4, 60, 0
3, 49680, Note_on_c, 4, 62, 80
3, 49919, Note_on_c, 4, 62, 0
3, 49920, Note_on_c, 4, 64, 80
3, 50399, Note_on_c, 4, 64, 0
3, 50400, Note_on_c, 4, 64, 80
3, 50879, Note_on_c, 4, 64, 0
3, 50880, Note_on_c, 4, 64, 80
3, 51119, Note_on_c, 4, 64, 0
3, 51120, Note_on_c, 4, 64, 80
3, 51359, Note_on_c, 4, 64, 0
3, 51600, Note_on_c, 4, 62, 80
3, 51839, Note_on_c, 4, 62, 0
3, 51840, Note_on_c, 4, 67, 80
3, 52319, Note_on_c, 4, 67, 0
3, 52320, Note_on_c, 4, 67, 80
3, 52799, Note_on_c, 4, 67, 0
3, 52800, Note_on_c, 4, 67, 80
3, 53039, Note_on_c, 4, 67, 0
3, 53040, Note_on_c, 4, 64, 80
3, 53279, Note_on_c, 4, 64, 0
3, 53520, Note_on_c, 4, 67, 80
3, 53759, Note_on_c, 4, 67, 0
3, 53760, Note_on_c, 4, 57, 80
3, 54239, Note_on_c, 4, 57, 0
3, 54240, Note_on_c, 4, 57, 80
3, 54719, Note_on_c, 4, 57, 0
3, 54720, Note_on_c, 4, 57, 80
3, 54959, Note_on_c, 4, 57, 0
3, 54960, Note_on_c, 4, 57, 80
3, 55199, Note_on_c, 4, 57, 0
3, 55440, Note_on_c, 4, 55, 80
3, 55679, Note_on_c, 4, 55, 0
3, 55680, Note_on_c, 4, 60, 80
3, 56159, Note_on_c, 4, 60, 0
3, 56160, Note_on_c, 4, 60, 80
3, 56639, Note_on_c, 4, 60, 0
3, 56640, Note_on_c, 4, 60, 80
3, 56879, Note_on_c, 4, 60, 0
3, 56880, Note_on_c, 4, 60, 80
3, 57119, Note_on_c, 4, 60, 0
3, 57360, Note_on_c, 4, 62, 80
3, 57599, Note_on_c, 4, 62, 0
3, 57600, Note_on_c, 4, 64, 80
3, 58079, Note_on_c, 4, 64, 0
3, 58080, Note_on_c, 4, 64, 80
3, 58559, Note_on_c, 4, 64, 0
3, 58560, Note_on_c, 4, 64, 80
3, 58799, Note_on_c, 4, 64, 0
3, 58800, Note_on_c, 4, 64, 80
3, 59039, Note_on_c, 4, 64, 0
3, 59280, Note_on_c, 4, 62, 80
3, 59519, Note_on_c, 4, 62, 0
3, 59520, Note_on_c, 4, 67, 80
3, 59999, Note_on_c, 4, 67, 0
3, 60000, Note_on_c, 4, 67, 80
3, 60479, Note_on_c, 4, 67, 0
3, 60480, Note_on_c, 4, 67, 80
3, 60719, Note_on_c, 4, 67, 0
3, 60720, Note_on_c, 4, 64, 80
3, 60959, Note_on_c, 4, 64, 0
3, 61200, Note_on_c, 4, 67, 80
3, 61439, Note_on_c, 4, 67, 0
3, 61440, Note_on_c, 4, 57, 80
3, 61919, Note_on_c, 4, 57, 0
3, 61920, Note_on_c, 4, 57, 80
3, 62399, Note_on_c, 4, 57, 0
3, 62400, Note_on_c, 4, 57, 80
3, 62639, Note_on_c, 4, 57, 0
3, 62640, Note_on_c, 4, 57, 80
3, 62879, Note_on_c, 4, 57, 0
3, 63120, Note_on_c, 4, 55, 80
3, 63359, Note_on_c, 4, 55, 0
3, 63360, Note_on_c, 4, 60, 80
3, 63839, Note_on_c, 4, 60, 0
3, 63840, Note_on_c, 4, 60, 80
3, 64319, Note_on_c, 4, 60, 0
3, 64320, Note_on_c, 4, 60, 80
3, 64559, Note_on_c, 4, 60, 0
3, 64560, Note_on_c, 4, 60, 80
3, 64799, Note_on_c, 4, 60, 0
3, 65040, Note_on_c, 4, 62, 80
3, 65279, Note_on_c, 4, 62, 0
3, 65280, Note_on_c, 4, 64, 80
3, 65759, Note_on_c, 4, 64, 0
3, 65760, Note_on_c, 4, 64, 80
3, 66239, Note_on_c, 4, 64, 0
3, 66240, Note_on_c, 4, 64, 80
3, 66479, Note_on_c, 4, 64, 0
3, 66480, Note_on_c, 4, 64, 80
3, 66719, Note_on_c, 4, 64, 0
3, 66960, Note_on_c, 4, 62, 80
3, 67199, Note_on_c, 4, 62, 0
3, 67200, Note_on_c, 4, 67, 80
3, 67679, Note_on_c, 4, 67, 0
3, 67680, Note_on_c, 4, 67, 80
3, 68159, Note_on_c, 4, 67, 0
3, 68160, Note_on_c, 4, 67, 80
3, 68399, Note_on_c, 4, 67, 0
3, 68400, Note_on_c, 4, 64, 80
3, 68639, Note_on_c, 4, 64, 0
3, 68880, Note_on_c, 4, 67, 80
3, 69119, Note_on_c, 4, 67, 0
3, 69120, Note_on_c, 4, 57, 80
3, 69599, Note_on_c, 4, 57, 0
3, 69600, Note_on_c, 4, 57, 80
3, 70079, Note_on_c, 4, 57, 0
3, 70080, Note_on_c, 4, 57, 80
3, 70319, Note_on_c, 4, 57, 0
3, 70320, Note_on_c, 4, 57, 80
3, 70559, Note_on_c, 4, 57, 0
3, 70800, Note_on_c, 4, 55, 80
3, 71039, Note_on_c, 4, 55, 0
3, 71040, Note_on_c, 4, 60, 80
3, 71519, Note_on_c, 4, 60, 0
3, 71520, Note_on_c, 4, 60, 80
3, 71999, Note_on_c, 4, 60, 0
3, 72000, Note_on_c, 4, 60, 80
3, 72239, Note_on_c, 4, 60, 0
3, 72240, Note_on_c, 4, 60, 80
3, 72479, Note_on_c, 4, 60, 0
3, 72720, Note_on_c, 4, 62, 80
3, 72959, Note_on_c, 4, 62, 0
3, 72960, Note_on_c, 4, 64, 80
3, 73439, Note_on_c, 4, 64, 0
3, 73440, Note_on_c, 4, 64, 80
3, 73919, Note_on_c, 4, 64, 0
3, 73920, Note_on_c, 4, 64, 80
3, 74159, Note_on_c, 4, 64, 0
3, 74160, Note_on_c, 4, 64, 80
3, 74399, Note_on_c, 4, 64, 0
3, 74640, Note_on_c, 4, 62, 80
3, 74879, Note_on_c, 4, 62, 0
3, 74880, Note_on_c, 4, 67, 80
3, 75359, Note_on_c, 4, 67, 0
3, 75360, Note_on_c, 4, 67, 80
3, 75839, Note_on_c, 4, 67, 0
3, 75840, Note_on_c, 4, 67, 80
3, 76079, Note_on_c, 4, 67, 0
3, 76080, Note_on_c, 4, 64, 80
3, 76319, Note_on_c, 4, 64, 0
3, 76560, Note_on_c, 4, 67, 80
3, 76799, Note_on_c, 4, 67, 0
3, 76800, Note_on_c, 4, 57, 80
3, 77279, Note_on_c, 4, 57, 0
3, 77280, Note_on_c, 4, 57, 80
3, 77759, Note_on_c, 4, 57, 0
3, 77760, Note_on_c, 4, 57, 80
3, 77999, Note_on_c, 4, 57, 0
3, 78000, Note_on_c, 4, 57, 80
3, 78239, Note_on_c, 4, 57, 0
3, 78480, Note_on_c, 4, 55, 80
3, 78719, Note_on_c, 4, 55, 0
3, 78720, Note_on_c, 4, 60, 80
3, 79199, Note_on_c, 4, 60, 0
3, 79200, Note_on_c, 4, 60, 80
3, 79679, Note_on_c, 4, 60, 0
3, 79680, Note_on_c, 4, 60, 80
3, 79919, Note_on_c, 4, 60, 0
3, 79920, Note_on_c, 4, 60, 80
3, 80159, Note_on_c, 4, 60, 0
3, 80400, Note_on_c, 4, 62, 80
3, 80639, Note_on_c, 4, 62, 0
3, 80640, Note_on_c, 4, 64, 80
3, 81119, Note_on_c, 4, 64, 0
3, 81120, Note_on_c, 4, 64, 80
3, 81599, Note_on_c, 4, 64, 0
3, 81600, Note_on_c, 4, 64, 80
3, 81839, Note_on_c, 4, 64, 0
3, 81840, Note_on_c, 4, 64, 80
3, 82079, Note_on_c, 4, 64, 0
3, 82320, Note_on_c, 4, 62, 80
3, 82559, Note_on_c, 4, 62, 0
3, 82560, Note_on_c, 4, 67, 80
3, 83039, Note_on_c, 4, 67, 0
3, 83040, Note_on_c, 4, 67, 80
3, 83519, Note_on_c, 4, 67, 0
3, 83520, Note_on_c, 4, 67, 80
3, 83759, Note_on_c, 4, 67, 0
3, 83760, Note_on_c, 4, 64, 80
3, 83999, Note_on_c, 4, 64, 0
3, 84240, Note_on_c, 4, 67, 80
3, 84479, Note_on_c, 4, 67, 0
3, 84480, Note_on_c, 4, 57, 80
3, 84959, Note_on_c, 4, 57, 0
3, 84960, Note_on_c, 4, 57, 80
3, 85439, Note_on_c, 4, 57, 0
3, 85440, Note_on_c, 4, 57, 80
3, 85679, Note_on_c, 4, 57, 0
3, 85680, Note_on_c, 4, 57, 80
3, 85919, Note_on_c, 4, 57, 0
3, 86160, Note_on_c, 4, 55, 80
3, 86399, Note_on_c, 4, 55, 0
3, 86400, Note_on_c, 4, 60, 80
3, 86879, Note_on_c, 4, 60, 0
3, 86880, Note_on_c, 4, 60, 80
3, 87359, Note_on_c, 4, 60, 0
3, 87360, Note_on_c, 4, 60, 80
3, 87599, Note_on_c, 4, 60, 0
3, 87600, Note_on_c, 4, 60, 80
3, 87839, Note_on_c, 4, 60, 0
3, 88080, Note_on_c, 4, 62, 80
3, 88319, Note_on_c, 4, 62, 0
3, 88320, Note_on_c, 4, 64, 80
3, 88799, Note_on_c, 4, 64, 0
3, 88800, Note_on_c, 4, 64, 80
3, 89279, Note_on_c, 4, 64, 0
3, 89280, Note_on_c, 4, 64, 80
3, 89519, Note_on_c, 4, 64, 0
3, 89520, Note_on_c, 4, 64, 80
3, 89759, Note_on_c, 4, 64, 0
3, 90000, Note_on_c, 4, 62, 80
3, 90239, Note_on_c, 4, 62, 0
3, 90240, Note_on_c, 4, 67, 80
3, 90719, Note_on_c, 4, 67, 0
3, 90720, Note_on_c, 4, 67, 80
3, 91199, Note_on_c, 4, 67, 0
3, 91200, Note_on_c, 4, 67, 80
3, 91439, Note_on_c, 4, 67, 0
3, 91440, Note_on_c, 4, 64, 80
3, 91679, Note_on_c, 4, 64, 0
3, 91920, Note_on_c, 4, 67, 80
3, 92159, Note_on_c, 4, 67, 0
3, 92160, Note_on_c, 4, 57, 80
3, 92639, Note_on_c, 4, 57, 0
3, 92640, Note_on_c, 4, 57, 80
3, 93119, Note_on_c, 4, 57, 0
3, 93120, Note_on_c, 4, 57, 80
3, 93359, Note_on_c, 4, 57, 0
3, 93360, Note_on_c, 4, 57, 80
3, 93599, Note_on_c, 4, 57, 0
3, 93840, Note_on_c, 4, 55, 80
3, 94079, Note_on_c, 4, 55, 0
3, 94080, Note_on_c, 4, 60, 80
3, 94559, Note_on_c, 4, 60, 0
3, 94560, Note_on_c, 4, 60, 80
3, 95039, Note_on_c, 4, 60, 0
3, 95040, Note_on_c, 4, 60, 80
3, 95279, Note_on_c, 4, 60, 0
3, 95280, Note_on_c, 4, 60, 80
3, 95519, Note_on_c, 4, 60, 0
3, 95760, Note_on_c, 4, 62, 80
3, 95999, Note_on_c, 4, 62, 0
3, 96000, Note_on_c, 4, 64, 80
3, 96479, Note_on_c, 4, 64, 0
3, 96480, Note_on_c, 4, 64, 80
3, 96959, Note_on_c, 4, 64, 0
3, 96960, Note_on_c, 4, 64, 80
3, 97199, Note_on_c, 4, 64, 0
3, 97200, Note_on_c, 4, 64, 80
3, 97439, Note_on_c, 4, 64, 0
3, 97680, Note_on_c, 4, 62, 80
3, 97919, Note_on_c, 4, 62, 0
3, 97920, Note_on_c, 4, 67, 80
3, 98399, Note_on_c, 4, 67, 0
3, 98400, Note_on_c, 4, 67, 80
3, 98879, Note_on_c, 4, 67, 0
3, 98880, Note_on_c, 4, 67, 80
3, 99119, Note_on_c, 4, 67, 0
3, 99120, Note_on_c, 4, 64, 80
3, 99359, Note_on_c, 4, 64, 0
3, 99600, Note_on_c, 4, 67, 80
3, 99839, Note_on_c, 4, 67, 0
3, 99840, Note_on_c, 4, 57, 80
3, 100319, Note_on_c, 4, 57, 0
3, 100320, Note_on_c, 4, 57, 80
3, 100799, Note_on_c, 4, 57, 0
3, 100800, Note_on_c, 4, 57, 80
3, 101039, Note_on_c, 4, 57, 0
3, 101040, Note_on_c, 4, 57, 80
3, 101279, Note_on_c, 4, 57, 0
3, 101520, Note_on_c, 4, 55, 80
3, 101759, Note_on_c, 4, 55, 0
3, 101760, Note_on_c, 4, 60, 80
3, 102239, Note_on_c, 4, 60, 0
3, 102240, Note_on_c, 4, 60, 80
3, 102719, Note_on_c, 4, 60, 0
3, 102720, Note_on_c, 4, 60, 80
3, 102959, Note_on_c, 4, 60, 0
3, 102960, Note_on_c, 4, 60, 80
3, 103199, Note_on_c, 4, 60, 0
3, 103440, Note_on_c, 4, 62, 80
3, 103679, Note_on_c, 4, 62, 0
3, 103680, Note_on_c, 4, 64, 80
3, 104159, Note_on_c, 4, 64, 0
3, 104160, Note_on_c, 4, 64, 80
3, 104639, Note_on_c, 4, 64, 0
3, 104640, Note_on_c, 4, 64, 80
3, 104879, Note_on_c, 4, 64, 0
3, 104880, Note_on_c, 4, 64, 80
3, 105119, Note_on_c, 4, 64, 0
3, 105360, Note_on_c, 4, 62, 80
3, 105599, Note_on_c, 4, 62, 0
3, 105600, Note_on_c, 4, 67, 80
3, 106079, Note_on_c, 4, 67, 0
3, 106080, Note_on_c, 4, 67, 80
3, 106559, Note_on_c, 4, 67, 0
3, 106560, Note_on_c, 4, 67, 80
3, 106799, Note_on_c, 4, 67, 0
3, 106800, Note_on_c, 4, 64, 80
3, 107039, Note_on_c, 4, 64, 0
3, 107280, Note_on_c, 4, 67, 80
3, 107519, Note_on_c, 4, 67, 0
3, 107520, Note_on_c, 4, 57, 80
3, 109439, Note_on_c, 4, 57, 0
3, 109440, Note_on_c, 4, 60, 80
3, 111359, Note_on_c, 4, 60, 0
3, 111360, Note_on_c, 4, 64, 80
3, 113279, Note_on_c, 4, 64, 0
3, 113280, Note_on_c, 4, 67, 80
3, 115199, Note_on_c, 4, 67, 0
3, 115200, Note_on_c, 4, 57, 80
3, 115679, Note_on_c, 4, 57, 0
3, 115680, Note_on_c, 4, 57, 80
3, 116159, Note_on_c, 4, 57, 0
3, 116160, Note_on_c, 4, 57, 80
3, 116399, Note_on_c, 4, 57, 0
3, 116400, Note_on_c, 4, 57, 80
3, 116639, Note_on_c, 4, 57, 0
3, 116880, Note_on_c, 4, 55, 80
3, 117119, Note_on_c, 4, 55, 0
3, 117120, Note_on_c, 4, 60, 80
3, 117599, Note_on_c, 4, 60, 0
3, 117600, Note_on_c, 4, 60, 80
3, 118079, Note_on_c, 4, 60, 0
3, 118080, Note_on_c, 4, 60, 80
3, 118319, Note_on_c, 4, 60, 0
3, 118320, Note_on_c, 4, 60, 80
3, 118559, Note_on_c, 4, 60, 0
3, 118800, Note_on_c, 4, 62, 80
3, 119039, Note_on_c, 4, 62, 0
3, 119040, Note_on_c, 4, 64, 80
3, 119519, Note_on_c, 4, 64, 0
3, 119520, Note_on_c, 4, 64, 80
3, 119999, Note_on_c, 4, 64, 0
3, 120000, Note_on_c, 4, 64, 80
3, 120239, Note_on_c, 4, 64, 0
3, 120240, Note_on_c, 4, 64, 80
3, 120479, Note_on_c, 4, 64, 0
3, 120720, Note_on_c, 4, 62, 80
3, 120959, Note_on_c, 4, 62, 0
3, 120960, Note_on_c, 4, 67, 80
3, 121439, Note_on_c, 4, 67, 0
3, 121440, Note_on_c, 4, 67, 80
3, 121919, Note_on_c, 4, 67, 0
3, 121920, Note_on_c, 4, 67, 80
3, 122159, Note_on_c, 4, 67, 0
3, 122160, Note_on_c, 4, 64, 80
3, 122399, Note_on_c, 4, 64, 0
3, 122640, Note_on_c, 4, 67, 80
3, 122879, Note_on_c, 4, 67, 0
3, 122880, Note_on_c, 4, 57, 80
3, 123359, Note_on_c, 4, 57, 0
3, 123360, Note_on_c, 4, 57, 80
3, 123839, Note_on_c, 4, 57, 0
3, 123840, Note_on_c, 4, 57, 80
3, 124079, Note_on_c, 4, 57, 0
3, 124080, Note_on_c, 4, 57, 80
3, 124319, Note_on_c, 4, 57, 0
3, 124560, Note_on_c, 4, 55, 80
3, 124799, Note_on_c, 4, 55, 0
3, 124800, Note_on_c, 4, 60, 80
3, 125279, Note_on_c, 4, 60, 0
3, 125280, Note_on_c, 4, 60, 80
3, 125759, Note_on_c, 4, 60, 0
3, 125760, Note_on_c, 4, 60, 80
3, 125999, Note_on_c, 4, 60, 0
3, 126000, Note_on_c, 4, 60, 80
3, 126239, Note_on_c, 4, 60, 0
3, 126480, Note_on_c, 4, 62, 80
3, 126719, Note_on_c, 4, 62, 0
3, 126720, Note_on_c, 4, 64, 80
3, 127199, Note_on_c, 4, 64, 0
3, 127200, Note_on_c, 4, 64, 80
3, 127679, Note_on_c, 4, 64, 0
3, 127680, Note_on_c, 4, 64, 80
3, 127919, Note_on_c, 4, 64, 0
3, 127920, Note_on_c, 4, 64, 80
3, 128159, Note_on_c, 4, 64, 0
3, 128400, Note_on_c, 4, 62, 80
3, 128639, Note_on_c, 4, 62, 0
3, 128640, Note_on_c, 4, 67, 80
3, 129119, Note_on_c, 4, 67, 0
3, 129120, Note_on_c, 4, 67, 80
3, 129599, Note_on_c, 4, 67, 0
3, 129600, Note_on_c, 4, 67, 80
3, 129839, Note_on_c, 4, 67, 0
3, 129840, Note_on_c, 4, 64, 80
3, 130079, Note_on_c, 4, 64, 0
3, 130320, Note_on_c, 4, 67, 80
3, 130559, Note_on_c, 4, 67, 0
3, 130560, Note_on_c, 4, 57, 80
3, 131039, Note_on_c, 4, 57, 0
3, 131040, Note_on_c, 4, 57, 80
3, 131519, Note_on_c, 4, 57, 0
3, 131520, Note_on_c, 4, 57, 80
3, 131759, Note_on_c, 4, 57, 0
3, 131760, Note_on_c, 4, 57, 80
3, 131999, Note_on_c, 4, 57, 0
3, 132240, Note_on_c, 4, 55, 80
3, 132479, Note_on_c, 4, 55, 0
3, 132480, Note_on_c, 4, 60, 80
3, 132959, Note_on_c, 4, 60, 0
3, 132960, Note_on_c, 4, 60, 80
3, 133439, Note_on_c, 4, 60, 0
3, 133440, Note_on_c, 4, 60, 80
3, 133679, Note_on_c, 4, 60, 0
3, 133680, Note_on_c, 4, 60, 80
3, 133919, Note_on_c, 4, 60, 0
3, 134160, Note_on_c, 4, 62, 80
3, 134399, Note_on_c, 4, 62, 0
3, 134400, Note_on_c, 4, 64, 80
3, 134879, Note_on_c, 4, 64, 0
3, 134880, Note_on_c, 4, 64, 80
3, 135359, Note_on_c, 4, 64, 0
3, 135360, Note_on_c, 4, 64, 80
3, 135599, Note_on_c, 4, 64, 0
3, 135600, Note_on_c, 4, 64, 80
3, 135839, Note_on_c, 4, 64, 0
3, 136080, Note_on_c, 4, 62, 80
3, 136319, Note_on_c, 4, 62, 0
3, 136320, Note_on_c, 4, 67, 80
3, 136799, Note_on_c, 4, 67, 0
3, 136800, Note_on_c, 4, 67, 80
3, 137279, Note_on_c, 4, 67, 0
3, 137280, Note_on_c, 4, 67, 80
3, 137519, Note_on_c, 4, 67, 0
3, 137520, Note_on_c, 4, 64, 80
3, 137759, Note_on_c, 4, 64, 0
3, 138000, Note_on_c, 4, 67, 80
3, 138239, Note_on_c, 4, 67, 0
3, 138240, Note_on_c, 4, 57, 80
3, 138719, Note_on_c, 4, 57, 0
3, 138720, Note_on_c, 4, 57, 80
3, 139199, Note_on_c, 4, 57, 0
3, 139200, Note_on_c, 4, 57, 80
3, 139439, Note_on_c, 4, 57, 0
3, 139440, Note_on_c, 4, 57, 80
3, 139679, Note_on_c, 4, 57, 0
3, 139920, Note_on_c, 4, 55, 80
3, 140159, Note_on_c, 4, 55, 0
3, 140160, Note_on_c, 4, 60, 80
3, 140639, Note_on_c, 4, 60, 0
3, 140640, Note_on_c, 4, 60, 80
3, 141119, Note_on_c, 4, 60, 0
3, 141120, Note_on_c, 4, 60, 80
3, 141359, Note_on_c, 4, 60, 0
3, 141360, Note_on_c, 4, 60, 80
3, 141599, Note_on_c, 4, 60, 0
3, 141840, Note_on_c, 4, 62, 80
3, 142079, Note_on_c, 4, 62, 0
3, 142080, Note_on_c, 4, 64, 80
3, 142559, Note_on_c, 4, 64, 0
3, 142560, Note_on_c, 4, 64, 80
3, 143039, Note_on_c, 4, 64, 0
3, 143040, Note_on_c, 4, 64, 80
3, 143279, Note_on_c, 4, 64, 0
3, 143280, Note_on_c, 4, 64, 80
3, 143519, Note_on_c, 4, 64, 0
3, 143760, Note_on_c, 4, 62, 80
3, 143999, Note_on_c, 4, 62, 0
3, 144000, Note_on_c, 4, 67, 80
3, 144479, Note_on_c, 4, 67, 0
3, 144480, Note_on_c, 4, 67, 80
3, 144959, Note_on_c, 4, 67, 0
3, 144960, Note_on_c, 4, 67, 80
3, 145199, Note_on_c, 4, 67, 0
3, 145200, Note_on_c, 4, 64, 80
3, 145439, Note_on_c, 4, 64, 0
3, 145680, Note_on_c, 4, 67, 80
3, 145919, Note_on_c, 4, 67, 0
3, 145920, Note_on_c, 4, 57, 80
3, 146399, Note_on_c, 4, 57, 0
3, 146400, Note_on_c, 4, 57, 80
3, 146879, Note_on_c, 4, 57, 0
3, 146880, Note_on_c, 4, 57, 80
3, 147119, Note_on_c, 4, 57, 0
3, 147120, Note_on_c, 4, 57, 80
3, 147359, Note_on_c, 4, 57, 0
3, 147600, Note_on_c, 4, 55, 80
3, 147839, Note_on_c, 4, 55, 0
3, 147840, Note_on_c, 4, 60, 80
3, 148319, Note_on_c, 4, 60, 0
3, 148320, Note_on_c, 4, 60, 80
3, 148799, Note_on_c, 4, 60, 0
3, 148800, Note_on_c, 4, 60, 80
3, 149039, Note_on_c, 4, 60, 0
3, 149040, Note_on_c, 4, 60, 80
3, 149279, Note_on_c, 4, 60, 0
3, 149520, Note_on_c, 4, 62, 80
3, 149759, Note_on_c, 4, 62, 0
3, 149760, Note_on_c, 4, 64, 80
3, 150239, Note_on_c, 4, 64, 0
3, 150240, Note_on_c, 4, 64, 80
3, 150719, Note_on_c, 4, 64, 0
3, 150720, Note_on_c, 4, 64, 80
3, 150959, Note_on_c, 4, 64, 0
3, 150960, Note_on_c, 4, 64, 80
3, 151199, Note_on_c, 4, 64, 0
3, 151440, Note_on_c, 4, 62, 80
3, 151679, Note_on_c, 4, 62, 0
3, 151680, Note_on_c, 4, 67, 80
3, 152159, Note_on_c, 4, 67, 0
3, 152160, Note_on_c, 4, 67, 80
3, 152639, Note_on_c, 4, 67, 0
3, 152640, Note_on_c, 4, 67, 80
3, 152879, Note_on_c, 4, 67, 0
3, 152880, Note_on_c, 4, 64, 80
3, 153119, Note_on_c, 4, 64, 0
3, 153360, Note_on_c, 4, 67, 80
3, 153599, Note_on_c, 4, 67, 0
3, 153600, Note_on_c, 4, 57, 80
3, 154079, Note_on_c, 4, 57, 0
3, 154080, Note_on_c, 4, 57, 80
3, 154559, Note_on_c, 4, 57, 0
3, 154560, Note_on_c, 4, 57, 80
3, 154799, Note_on_c, 4, 57, 0
3, 154800, Note_on_c, 4, 57, 80
3, 155039, Note_on_c, 4, 57, 0
3, 155280, Note_on_c, 4, 55, 80
3, 155519, Note_on_c, 4, 55, 0
3, 155520, Note_on_c, 4, 60, 80
3, 155999, Note_on_c, 4, 60, 0
3, 156000, Note_on_c, 4, 60, 80
3, 156479, Note_on_c, 4, 60, 0
3, 156480, Note_on_c, 4, 60, 80
3, 156719, Note_on_c, 4, 60, 0
3, 156720, Note_on_c, 4, 60, 80
3, 156959, Note_on_c, 4, 60, 0
3, 157200, Note_on_c, 4, 62, 80
3, 157439, Note_on_c, 4, 62, 0
3, 157440, Note_on_c, 4, 64, 80
3, 157919, Note_on_c, 4, 64, 0
3, 157920, Note_on_c, 4, 64, 80
3, 158399, Note_on_c, 4, 64, 0
3, 158400, Note_on_c, 4, 64, 80
3, 158639, Note_on_c, 4, 64, 0
3, 158640, Note_on_c, 4, 64, 80
3, 158879, Note_on_c, 4, 64, 0
3, 159120, Note_on_c, 4, 62, 80
3, 159359, Note_on_c, 4, 62, 0
3, 159360, Note_on_c, 4, 67, 80
3, 159839, Note_on_c, 4, 67, 0
3, 159840, Note_on_c, 4, 67, 80
3, 160319, Note_on_c, 4, 67, 0
3, 160320, Note_on_c, 4, 67, 80
3, 160559, Note_on_c, 4, 67, 0
3, 160560, Note_on_c, 4, 64, 80
3, 160799, Note_on_c, 4, 64, 0
3, 161040, Note_on_c, 4, 67, 80
3, 161279, Note_on_c, 4, 67, 0
3, 161280, Note_on_c, 4, 57, 80
3, 161759, Note_on_c, 4, 57, 0
3, 161760, Note_on_c, 4, 57, 80
3, 162239, Note_on_c, 4, 57, 0
3, 162240, Note_on_c, 4, 57, 80
3, 162719, Note_on_c, 4, 57, 0
3, 162720, Note_on_c, 4, 57, 80
3, 163199, Note_on_c, 4, 57, 0
3, 163200, Note_on_c, 4, 60, 80
3, 163679, Note_on_c, 4, 60, 0
3, 163680, Note_on_c, 4, 60, 80
3, 164159, Note_on_c, 4, 60, 0
3, 164160, Note_on_c, 4, 60, 80
3, 164639, Note_on_c, 4, 60, 0
3, 164640, Note_on_c, 4, 60, 80
3, 165119, Note_on_c, 4, 60, 0
3, 165120, Note_on_c, 4, 64, 80
3, 165599, Note_on_c, 4, 64, 0
3, 165600, Note_on_c, 4, 64, 80
3, 166079, Note_on_c, 4, 64, 0
3, 166080, Note_on_c, 4, 64, 80
3, 166559, Note_on_c, 4, 64, 0
3, 166560, Note_on_c, 4, 64, 80
3, 167039, Note_on_c, 4, 64, 0
3, 167040, Note_on_c, 4, 67, 80
3, 167519, Note_on_c, 4, 67, 0
3, 167520, Note_on_c, 4, 67, 80
3, 167999, Note_on_c, 4, 67, 0
3, 168000, Note_on_c, 4, 67, 80
3, 168479, Note_on_c, 4, 67, 0
3, 168480, Note_on_c, 4, 67, 80
3, 168959, Note_on_c, 4, 67, 0
3, 168960, Note_on_c, 4, 57, 80
3, 169439, Note_on_c, 4, 57, 0
3, 169440, Note_on_c, 4, 57, 80
3, 169919, Note_on_c, 4, 57, 0
3, 169920, Note_on_c, 4, 57, 80
3, 170399, Note_on_c, 4, 57, 0
3, 170400, Note_on_c, 4, 57, 80
3, 170879, Note_on_c, 4, 57, 0
3, 170880, Note_on_c, 4, 60, 80
3, 171359, Note_on_c, 4, 60, 0
3, 171360, Note_on_c, 4, 60, 80
3, 171839, Note_on_c, 4, 60, 0
3, 171840, Note_on_c, 4, 60, 80
3, 172319, Note_on_c, 4, 60, 0
3, 172320, Note_on_c, 4, 60, 80
3, 172799, Note_on_c, 4, 60, 0
3, 172800, Note_on_c, 4, 64, 80
3, 173279, Note_on_c, 4, 64, 0
3, 173280, Note_on_c, 4, 64, 80
3, 173759, Note_on_c, 4, 64, 0
3, 173760, Note_on_c, 4, 64, 80
3, 174239, Note_on_c, 4, 64, 0
3, 174240, Note_on_c, 4, 64, 80
3, 174719, Note_on_c, 4, 64, 0
3, 174720, Note_on_c, 4, 67, 80
3, 175199, Note_on_c, 4, 67, 0
3, 175200, Note_on_c, 4, 67, 80
3, 175679, Note_on_c, 4, 67, 0
3, 175680, Note_on_c, 4, 67, 80
3, 176159, Note_on_c, 4, 67, 0
3, 176160, Note_on_c, 4, 67, 80
3, 176639, Note_on_c, 4, 67, 0
3, 176640, Note_on_c, 4, 57, 80
3, 177119, Note_on_c, 4, 57, 0
3, 177120, Note_on_c, 4, 57, 80
3, 177599, Note_on_c, 4, 57, 0
3, 177600, Note_on_c, 4, 57, 80
3, 177839, Note_on_c, 4, 57, 0
3, 177840, Note_on_c, 4, 57, 80
3, 178079, Note_on_c, 4, 57, 0
3, 178320, Note_on_c, 4, 55, 80
3, 178559, Note_on_c, 4, 55, 0
3, 178560, Note_on_c, 4, 60, 80
3, 179039, Note_on_c, 4, 60, 0
3, 179040, Note_on_c, 4, 60, 80
3, 179519, Note_on_c, 4, 60, 0
3, 179520, Note_on_c, 4, 60, 80
3, 179759, Note_on_c, 4, 60, 0
3, 179760, Note_on_c, 4, 60, 80
3, 179999, Note_on_c, 4, 60, 0
3, 180240, Note_on_c, 4, 62, 80
3, 180479, Note_on_c, 4, 62, 0
3, 180480, Note_on_c, 4, 64, 80
3, 180959, Note_on_c, 4, 64, 0
3, 180960, Note_on_c, 4, 64, 80
3, 181439, Note_on_c, 4, 64, 0
3, 181440, Note_on_c, 4, 64, 80
3, 181679, Note_on_c, 4, 64, 0
3, 181680, Note_on_c, 4, 64, 80
3, 181919, Note_on_c, 4, 64, 0
3, 182160, Note_on_c, 4, 62, 80
3, 182399, Note_on_c, 4, 62, 0
3, 182400, Note_on_c, 4, 67, 80
3, 182879, Note_on_c, 4, 67, 0
3, 182880, Note_on_c, 4, 67, 80
3, 183359, Note_on_c, 4, 67, 0
3, 183360, Note_on_c, 4, 67, 80
3, 183599, Note_on_c, 4, 67, 0
3, 183600, Note_on_c, 4, 64, 80
3, 183839, Note_on_c, 4, 64, 0
3, 184080, Note_on_c, 4, 67, 80
3, 184319, Note_on_c, 4, 67, 0
3, 184320, Note_on_c, 4, 57, 80
3, 184799, Note_on_c, 4, 57, 0
3, 184800, Note_on_c, 4, 57, 80
3, 185279, Note_on_c, 4, 57, 0
3, 185280, Note_on_c, 4, 57, 80
3, 185519, Note_on_c, 4, 57, 0
3, 185520, Note_on_c, 4, 57, 80
3, 185759, Note_on_c, 4, 57, 0
3, 186000, Note_on_c, 4, 55, 80
3, 186239, Note_on_c, 4, 55, 0
3, 186240, Note_on_c, 4, 60, 80
3, 186719, Note_on_c, 4, 60, 0
3, 186720, Note_on_c, 4, 60, 80
3, 187199, Note_on_c, 4, 60, 0
3, 187200, Note_on_c, 4, 60, 80
3, 187439, Note_on_c, 4, 60, 0
3, 187440, Note_on_c, 4, 60, 80
3, 187679, Note_on_c, 4, 60, 0
3, 187920, Note_on_c, 4, 62, 80
3, 188159, Note_on_c, 4, 62, 0
3, 188160, Note_on_c, 4, 64, 80
3, 188639, Note_on_c, 4, 64, 0
3, 188640, Note_on_c, 4, 64, 80
3, 189119, Note_on_c, 4, 64, 0
3, 189120, Note_on_c, 4, 64, 80
3, 189359, Note_on_c, 4, 64, 0
3, 189360, Note_on_c, 4, 64, 80
3, 189599, Note_on_c, 4, 64, 0
3, 189840, Note_on_c, 4, 62, 80
3, 190079, Note_on_c, 4, 62, 0
3, 190080, Note_on_c, 4, 67, 80
3, 191999, Note_on_c, 4, 67, 0
3, 192000, End_track
4, 0, Start_track
4, 0, Title_t, "Bell, Bell, Bell\000"
4, 0, Key_signature, 0, "major"
4, 0, Control_c, 0, 121, 0
4, 0, Program_c, 0, 14
4, 0, Control_c, 0, 7, 100
4, 0, Control_c, 0, 10, 64
4, 0, Control_c, 0, 91, 0
4, 0, Control_c, 0, 93, 0
4, 0, MIDI_port, 0
4, 6960, Note_on_c, 0, 76, 80
4, 6960, Control_c, 0, 2, 80
4, 7199, Note_on_c, 0, 76, 0
4, 7200, Note_on_c, 0, 79, 80
4, 7200, Control_c, 0, 2, 80
4, 7439, Note_on_c, 0, 79, 0
4, 7440, Note_on_c, 0, 81, 80
4, 7440, Control_c, 0, 2, 80
4, 7680, Control_c, 0, 2, 80
4, 8639, Note_on_c, 0, 81, 0
4, 8640, Note_on_c, 0, 76, 80
4, 8640, Control_c, 0, 2, 80
4, 8879, Note_on_c, 0, 76, 0
4, 8880, Note_on_c, 0, 77, 80
4, 8880, Control_c, 0, 2, 80
4, 9119, Note_on_c, 0, 77, 0
4, 9120, Note_on_c, 0, 76, 80
4, 9120, Control_c, 0, 2, 80
4, 9359, Note_on_c, 0, 76, 0
4, 9360, Note_on_c, 0, 79, 80
4, 9360, Control_c, 0, 2, 80
4, 9600, Control_c, 0, 2, 80
4, 9839, Note_on_c, 0, 79, 0
4, 9840, Note_on_c, 0, 76, 80
4, 9840, Control_c, 0, 2, 80
4, 10560, Control_c, 0, 2, 80
4, 11039, Note_on_c, 0, 76, 0
4, 11040, Note_on_c, 0, 76, 80
4, 11040, Control_c, 0, 2, 80
4, 11279, Note_on_c, 0, 76, 0
4, 11280, Note_on_c, 0, 79, 80
4, 11280, Control_c, 0, 2, 80
4, 11520, Control_c, 0, 2, 80
4, 11759, Note_on_c, 0, 79, 0
4, 11760, Note_on_c, 0, 76, 80
4, 11760, Control_c, 0, 2, 80
4, 12480, Control_c, 0, 2, 80
4, 12959, Note_on_c, 0, 76, 0
4, 12960, Note_on_c, 0, 76, 80
4, 12960, Control_c, 0, 2, 80
4, 13199, Note_on_c, 0, 76, 0
4, 13200, Note_on_c, 0, 74, 80
4, 13200, Control_c, 0, 2, 80
4, 13440, Control_c, 0, 2, 80
4, 14399, Note_on_c, 0, 74, 0
4, 16320, Note_on_c, 0, 76, 80
4, 16320, Control_c, 0, 2, 80
4, 16559, Note_on_c, 0, 76, 0
4, 16560, Note_on_c, 0, 77, 80
4, 16560, Control_c, 0, 2, 80
4, 16799, Note_on_c, 0, 77, 0
4, 16800, Note_on_c, 0, 76, 80
4, 16800, Control_c, 0, 2, 80
4, 17039, Note_on_c, 0, 76, 0
4, 17040, Note_on_c, 0, 79, 80
4, 17040, Control_c, 0, 2, 80
4, 17280, Control_c, 0, 2, 80
4, 17519, Note_on_c, 0, 79, 0
4, 17520, Note_on_c, 0, 76, 80
4, 17520, Control_c, 0, 2, 80
4, 18240, Control_c, 0, 2, 80
4, 18719, Note_on_c, 0, 76, 0
4, 18720, Note_on_c, 0, 76, 80
4, 18720, Control_c, 0, 2, 80
4, 18959, Note_on_c, 0, 76, 0
4, 18960, Note_on_c, 0, 79, 80
4, 18960, Control_c, 0, 2, 80
4, 19200, Control_c, 0, 2, 80
4, 19439, Note_on_c, 0, 79, 0
4, 19440, Note_on_c, 0, 76, 80
4, 19440, Control_c, 0, 2, 80
4, 20160, Control_c, 0, 2, 80
4, 20639, Note_on_c, 0, 76, 0
4, 20640, Note_on_c, 0, 76, 80
4, 20640, Control_c, 0, 2, 80
4, 20879, Note_on_c, 0, 76, 0
4, 20880, Note_on_c, 0, 74, 80
4, 20880, Control_c, 0, 2, 80
4, 21120, Control_c, 0, 2, 80
4, 22079, Note_on_c, 0, 74, 0
4, 46800, Note_on_c, 0, 67, 80
4, 46800, Control_c, 0, 2, 80
4, 47039, Note_on_c, 0, 67, 0
4, 47040, Note_on_c, 0, 76, 80
4, 47279, Note_on_c, 0, 76, 0
4, 47280, Note_on_c, 0, 74, 80
4, 47280, Control_c, 0, 2, 80
4, 47759, Note_on_c, 0, 74, 0
4, 47760, Note_on_c, 0, 76, 80
4, 47760, Control_c, 0, 2, 80
4, 48000, Control_c, 0, 2, 80
4, 48479, Note_on_c, 0, 76, 0
4, 48720, Note_on_c, 0, 67, 80
4, 48720, Control_c, 0, 2, 80
4, 48959, Note_on_c, 0, 67, 0
4, 48960, Note_on_c, 0, 76, 80
4, 49199, Note_on_c, 0, 76, 0
4, 49200, Note_on_c, 0, 74, 80
4, 49200, Control_c, 0, 2, 80
4, 49679, Note_on_c, 0, 74, 0
4, 49680, Note_on_c, 0, 76, 80
4, 49680, Control_c, 0, 2, 80
4, 49920, Control_c, 0, 2, 80
4, 50399, Note_on_c, 0, 76, 0
4, 50640, Note_on_c, 0, 67, 80
4, 50640, Control_c, 0, 2, 80
4, 50879, Note_on_c, 0, 67, 0
4, 50880, Note_on_c, 0, 76, 80
4, 51119, Note_on_c, 0, 76, 0
4, 51120, Note_on_c, 0, 77, 80
4, 51120, Control_c, 0, 2, 80
4, 51359, Note_on_c, 0, 77, 0
4, 51360, Note_on_c, 0, 76, 80
4, 51360, Control_c, 0, 2, 80
4, 51599, Note_on_c, 0, 76, 0
4, 51600, Note_on_c, 0, 76, 80
4, 51600, Control_c, 0, 2, 80
4, 51840, Control_c, 0, 2, 80
4, 52319, Note_on_c, 0, 76, 0
4, 52320, Note_on_c, 0, 74, 80
4, 52320, Control_c, 0, 2, 80
4, 52559, Note_on_c, 0, 74, 0
4, 52560, Note_on_c, 0, 74, 80
4, 52560, Control_c, 0, 2, 80
4, 53279, Note_on_c, 0, 74, 0
4, 53280, Note_on_c, 0, 72, 80
4, 53280, Control_c, 0, 2, 80
4, 53519, Note_on_c, 0, 72, 0
4, 53520, Note_on_c, 0, 72, 80
4, 53520, Control_c, 0, 2, 80
4, 53760, Control_c, 0, 2, 80
4, 54239, Note_on_c, 0, 72, 0
4, 54480, Note_on_c, 0, 67, 80
4, 54480, Control_c, 0, 2, 80
4, 54719, Note_on_c, 0, 67, 0
4, 54720, Note_on_c, 0, 76, 80
4, 54959, Note_on_c, 0, 76, 0
4, 54960, Note_on_c, 0, 74, 80
4, 54960, Control_c, 0, 2, 80
4, 55439, Note_on_c, 0, 74, 0
4, 55440, Note_on_c, 0, 76, 80
4, 55440, Control_c, 0, 2, 80
4, 55680, Control_c, 0, 2, 80
4, 56159, Note_on_c, 0, 76, 0
4, 56400, Note_on_c, 0, 67, 80
4, 56400, Control_c, 0, 2, 80
4, 56639, Note_on_c, 0, 67, 0
4, 56640, Note_on_c, 0, 76, 80
4, 56879, Note_on_c, 0, 76, 0
4, 56880, Note_on_c, 0, 74, 80
4, 56880, Control_c, 0, 2, 80
4, 57359, Note_on_c, 0, 74, 0
4, 57360, Note_on_c, 0, 76, 80
4, 57360, Control_c, 0, 2, 80
4, 57600, Control_c, 0, 2, 80
4, 58079, Note_on_c, 0, 76, 0
4, 58560, Note_on_c, 0, 76, 80
4, 58560, Control_c, 0, 2, 80
4, 58799, Note_on_c, 0, 76, 0
4, 58800, Note_on_c, 0, 77, 80
4, 58800, Control_c, 0, 2, 80
4, 59039, Note_on_c, 0, 77, 0
4, 59040, Note_on_c, 0, 76, 80
4, 59040, Control_c, 0, 2, 80
4, 59279, Note_on_c, 0, 76, 0
4, 59280, Note_on_c, 0, 74, 80
4, 59280, Control_c, 0, 2, 80
4, 59520, Control_c, 0, 2, 80
4, 60479, Note_on_c, 0, 74, 0
4, 60720, Note_on_c, 0, 76, 80
4, 60720, Control_c, 0, 2, 80
4, 60959, Note_on_c, 0, 76, 0
4, 60960, Note_on_c, 0, 79, 80
4, 60960, Control_c, 0, 2, 80
4, 61199, Note_on_c, 0, 79, 0
4, 61200, Note_on_c, 0, 81, 80
4, 61200, Control_c, 0, 2, 80
4, 61440, Control_c, 0, 2, 80
4, 62399, Note_on_c, 0, 81, 0
4, 62400, Note_on_c, 0, 76, 80
4, 62400, Control_c, 0, 2, 80
4, 62639, Note_on_c, 0, 76, 0
4, 62640, Note_on_c, 0, 77, 80
4, 62640, Control_c, 0, 2, 80
4, 62879, Note_on_c, 0, 77, 0
4, 62880, Note_on_c, 0, 76, 80
4, 62880, Control_c, 0, 2, 80
4, 63119, Note_on_c, 0, 76, 0
4, 63120, Note_on_c, 0, 79, 80
4, 63120, Control_c, 0, 2, 80
4, 63360, Control_c, 0, 2, 80
4, 63599, Note_on_c, 0, 79, 0
4, 63600, Note_on_c, 0, 76, 80
4, 63600, Control_c, 0, 2, 80
4, 64320, Control_c, 0, 2, 80
4, 64799, Note_on_c, 0, 76, 0
4, 64800, Note_on_c, 0, 76, 80
4, 64800, Control_c, 0, 2, 80
4, 65039, Note_on_c, 0, 76, 0
4, 65040, Note_on_c, 0, 79, 80
4, 65040, Control_c, 0, 2, 80
4, 65280, Control_c, 0, 2, 80
4, 65519, Note_on_c, 0, 79, 0
4, 65520, Note_on_c, 0, 76, 80
4, 65520, Control_c, 0, 2, 80
4, 66240, Control_c, 0, 2, 80
4, 66719, Note_on_c, 0, 76, 0
4, 66720, Note_on_c, 0, 76, 80
4, 66720, Control_c, 0, 2, 80
4, 66959, Note_on_c, 0, 76, 0
4, 66960, Note_on_c, 0, 74, 80
4, 66960, Control_c, 0, 2, 80
4, 67200, Control_c, 0, 2, 80
4, 68159, Note_on_c, 0, 74, 0
4, 68400, Note_on_c, 0, 76, 80
4, 68400, Control_c, 0, 2, 80
4, 68639, Note_on_c, 0, 76, 0
4, 68640, Note_on_c, 0, 79, 80
4, 68640, Control_c, 0, 2, 80
4, 68879, Note_on_c, 0, 79, 0
4, 68880, Note_on_c, 0, 81, 80
4, 68880, Control_c, 0, 2, 80
4, 69120, Control_c, 0, 2, 80
4, 70079, Note_on_c, 0, 81, 0
4, 70080, Note_on_c, 0, 76, 80
4, 70080, Control_c, 0, 2, 80
4, 70319, Note_on_c, 0, 76, 0
4, 70320, Note_on_c, 0, 77, 80
4, 70320, Control_c, 0, 2, 80
4, 70559, Note_on_c, 0, 77, 0
4, 70560, Note_on_c, 0, 76, 80
4, 70560, Control_c, 0, 2, 80
4, 70799, Note_on_c, 0, 76, 0
4, 70800, Note_on_c, 0, 79, 80
4, 70800, Control_c, 0, 2, 80
4, 71040, Control_c, 0, 2, 80
4, 71279, Note_on_c, 0, 79, 0
4, 71280, Note_on_c, 0, 76, 80
4, 71280, Control_c, 0, 2, 80
4, 72000, Control_c, 0, 2, 80
4, 72479, Note_on_c, 0, 76, 0
4, 72480, Note_on_c, 0, 76, 80
4, 72480, Control_c, 0, 2, 80
4, 72719, Note_on_c, 0, 76, 0
4, 72720, Note_on_c, 0, 79, 80
4, 72720, Control_c, 0, 2, 80
4, 72960, Control_c, 0, 2, 80
4, 73199, Note_on_c, 0, 79, 0
4, 73200, Note_on_c, 0, 76, 80
4, 73200, Control_c, 0, 2, 80
4, 73920, Control_c, 0, 2, 80
4, 74399, Note_on_c, 0, 76, 0
4, 74400, Note_on_c, 0, 76, 80
4, 74400, Control_c, 0, 2, 80
4, 74639, Note_on_c, 0, 76, 0
4, 74640, Note_on_c, 0, 74, 80
4, 74640, Control_c, 0, 2, 80
4, 74880, Control_c, 0, 2, 80
4, 75839, Note_on_c, 0, 74, 0
4, 76800, Note_on_c, 0, 76, 80
4, 76800, Control_c, 0, 2, 80
4, 77279, Note_on_c, 0, 76, 0
4, 77280, Note_on_c, 0, 76, 80
4, 77280, Control_c, 0, 2, 80
4, 77759, Note_on_c, 0, 76, 0
4, 77760, Note_on_c, 0, 64, 80
4, 77760, Control_c, 0, 2, 80
4, 77999, Note_on_c, 0, 64, 0
4, 78000, Note_on_c, 0, 67, 80
4, 78000, Control_c, 0, 2, 80
4, 78239, Note_on_c, 0, 67, 0
4, 78240, Note_on_c, 0, 69, 80
4, 78240, Control_c, 0, 2, 80
4, 78479, Note_on_c, 0, 69, 0
4, 78480, Note_on_c, 0, 72, 80
4, 78480, Control_c, 0, 2, 80
4, 78719, Note_on_c, 0, 72, 0
4, 78720, Note_on_c, 0, 74, 80
4, 78720, Control_c, 0, 2, 80
4, 78959, Note_on_c, 0, 74, 0
4, 78960, Note_on_c, 0, 76, 80
4, 78960, Control_c, 0, 2, 80
4, 79199, Note_on_c, 0, 76, 0
4, 79200, Note_on_c, 0, 74, 80
4, 79439, Note_on_c, 0, 74, 0
4, 79440, Note_on_c, 0, 72, 80
4, 79440, Control_c, 0, 2, 80
4, 79919, Note_on_c, 0, 72, 0
4, 79920, Note_on_c, 0, 69, 80
4, 79920, Control_c, 0, 2, 80
4, 80399, Note_on_c, 0, 69, 0
4, 80400, Note_on_c, 0, 72, 80
4, 80400, Control_c, 0, 2, 80
4, 80639, Note_on_c, 0, 72, 0
4, 80640, Note_on_c, 0, 74, 80
4, 80640, Control_c, 0, 2, 80
4, 80879, Note_on_c, 0, 74, 0
4, 80880, Note_on_c, 0, 76, 80
4, 80880, Control_c, 0, 2, 80
4, 81119, Note_on_c, 0, 76, 0
4, 81120, Note_on_c, 0, 74, 80
4, 81359, Note_on_c, 0, 74, 0
4, 81360, Note_on_c, 0, 72, 80
4, 81360, Control_c, 0, 2, 80
4, 81839, Note_on_c, 0, 72, 0
4, 81840, Note_on_c, 0, 69, 80
4, 81840, Control_c, 0, 2, 80
4, 82559, Note_on_c, 0, 69, 0
4, 82560, Note_on_c, 0, 74, 80
4, 82560, Control_c, 0, 2, 80
4, 83279, Note_on_c, 0, 74, 0
4, 83280, Note_on_c, 0, 72, 80
4, 83280, Control_c, 0, 2, 80
4, 84479, Note_on_c, 0, 72, 0
4, 85440, Note_on_c, 0, 64, 80
4, 85440, Control_c, 0, 2, 80
4, 85679, Note_on_c, 0, 64, 0
4, 85680, Note_on_c, 0, 67, 80
4, 85680, Control_c, 0, 2, 80
4, 85919, Note_on_c, 0, 67, 0
4, 85920, Note_on_c, 0, 69, 80
4, 85920, Control_c, 0, 2, 80
4, 86159, Note_on_c, 0, 69, 0
4, 86160, Note_on_c, 0, 72, 80
4, 86160, Control_c, 0, 2, 80
4, 86399, Note_on_c, 0, 72, 0
4, 86400, Note_on_c, 0, 74, 80
4, 86400, Control_c, 0, 2, 80
4, 86639, Note_on_c, 0, 74, 0
4, 86640, Note_on_c, 0, 76, 80
4, 86640, Control_c, 0, 2, 80
4, 86879, Note_on_c, 0, 76, 0
4, 86880, Note_on_c, 0, 74, 80
4, 87119, Note_on_c, 0, 74, 0
4, 87120, Note_on_c, 0, 72, 80
4, 87120, Control_c, 0, 2, 80
4, 87599, Note_on_c, 0, 72, 0
4, 87600, Note_on_c, 0, 69, 80
4, 87600, Control_c, 0, 2, 80
4, 88079, Note_on_c, 0, 69, 0
4, 88080, Note_on_c, 0, 72, 80
4, 88080, Control_c, 0, 2, 80
4, 88319, Note_on_c, 0, 72, 0
4, 88320, Note_on_c, 0, 74, 80
4, 88320, Control_c, 0, 2, 80
4, 88559, Note_on_c, 0, 74, 0
4, 88560, Note_on_c, 0, 76, 80
4, 88560, Control_c, 0, 2, 80
4, 88799, Note_on_c, 0, 76, 0
4, 88800, Note_on_c, 0, 74, 80
4, 89039, Note_on_c, 0, 74, 0
4, 89040, Note_on_c, 0, 72, 80
4, 89040, Control_c, 0, 2, 80
4, 89519, Note_on_c, 0, 72, 0
4, 89520, Note_on_c, 0, 69, 80
4, 89520, Control_c, 0, 2, 80
4, 90239, Note_on_c, 0, 69, 0
4, 90240, Note_on_c, 0, 74, 80
4, 90240, Control_c, 0, 2, 80
4, 91199, Note_on_c, 0, 74, 0
4, 92160, Note_on_c, 0, 72, 80
4, 92160, Control_c, 0, 2, 80
4, 92160, Note_on_c, 0, 76, 80
4, 92399, Note_on_c, 0, 72, 0
4, 92399, Note_on_c, 0, 76, 0
4, 92640, Note_on_c, 0, 72, 80
4, 92640, Control_c, 0, 2, 80
4, 92640, Note_on_c, 0, 76, 80
4, 92879, Note_on_c, 0, 72, 0
4, 92879, Note_on_c, 0, 76, 0
4, 93120, Note_on_c, 0, 72, 80
4, 93120, Control_c, 0, 2, 80
4, 93120, Note_on_c, 0, 76, 80
4, 93479, Note_on_c, 0, 72, 0
4, 93479, Note_on_c, 0, 76, 0
4, 93480, Note_on_c, 0, 76, 80
4, 93480, Control_c, 0, 2, 80
4, 93600, Control_c, 0, 2, 80
4, 93839, Note_on_c, 0, 76, 0
4, 93840, Note_on_c, 0, 77, 80
4, 93840, Control_c, 0, 2, 80
4, 94079, Note_on_c, 0, 77, 0
4, 94080, Note_on_c, 0, 72, 80
4, 94080, Control_c, 0, 2, 80
4, 94080, Note_on_c, 0, 76, 80
4, 94319, Note_on_c, 0, 72, 0
4, 94319, Note_on_c, 0, 76, 0
4, 94560, Note_on_c, 0, 72, 80
4, 94560, Control_c, 0, 2, 80
4, 94560, Note_on_c, 0, 76, 80
4, 94799, Note_on_c, 0, 72, 0
4, 94799, Note_on_c, 0, 76, 0
4, 95040, Note_on_c, 0, 72, 80
4, 95040, Control_c, 0, 2, 80
4, 95040, Note_on_c, 0, 76, 80
4, 95399, Note_on_c, 0, 72, 0
4, 95399, Note_on_c, 0, 76, 0
4, 95400, Note_on_c, 0, 76, 80
4, 95400, Control_c, 0, 2, 80
4, 95520, Control_c, 0, 2, 80
4, 95759, Note_on_c, 0, 76, 0
4, 95760, Note_on_c, 0, 77, 80
4, 95760, Control_c, 0, 2, 80
4, 95999, Note_on_c, 0, 77, 0
4, 96000, Note_on_c, 0, 71, 80
4, 96000, Control_c, 0, 2, 80
4, 96000, Note_on_c, 0, 76, 80
4, 96239, Note_on_c, 0, 71, 0
4, 96239, Note_on_c, 0, 76, 0
4, 96480, Note_on_c, 0, 71, 80
4, 96480, Control_c, 0, 2, 80
4, 96480, Note_on_c, 0, 76, 80
4, 96719, Note_on_c, 0, 71, 0
4, 96719, Note_on_c, 0, 76, 0
4, 96960, Note_on_c, 0, 71, 80
4, 96960, Control_c, 0, 2, 80
4, 96960, Note_on_c, 0, 76, 80
4, 97319, Note_on_c, 0, 71, 0
4, 97319, Note_on_c, 0, 76, 0
4, 97320, Note_on_c, 0, 76, 80
4, 97320, Control_c, 0, 2, 80
4, 97440, Control_c, 0, 2, 80
4, 97679, Note_on_c, 0, 76, 0
4, 97680, Note_on_c, 0, 77, 80
4, 97680, Control_c, 0, 2, 80
4, 97919, Note_on_c, 0, 77, 0
4, 97920, Note_on_c, 0, 74, 80
4, 97920, Control_c, 0, 2, 80
4, 97920, Note_on_c, 0, 79, 80
4, 98159, Note_on_c, 0, 74, 0
4, 98159, Note_on_c, 0, 79, 0
4, 98400, Note_on_c, 0, 74, 80
4, 98400, Control_c, 0, 2, 80
4, 98400, Note_on_c, 0, 79, 80
4, 98639, Note_on_c, 0, 74, 0
4, 98639, Note_on_c, 0, 79, 0
4, 98880, Note_on_c, 0, 74, 80
4, 98880, Control_c, 0, 2, 80
4, 98880, Note_on_c, 0, 79, 80
4, 99239, Note_on_c, 0, 74, 0
4, 99239, Note_on_c, 0, 79, 0
4, 99240, Note_on_c, 0, 79, 80
4, 99240, Control_c, 0, 2, 80
4, 99360, Control_c, 0, 2, 80
4, 99599, Note_on_c, 0, 79, 0
4, 99600, Note_on_c, 0, 79, 80
4, 99600, Control_c, 0, 2, 80
4, 99839, Note_on_c, 0, 79, 0
4, 99840, Note_on_c, 0, 72, 80
4, 99840, Control_c, 0, 2, 80
4, 99840, Note_on_c, 0, 76, 80
4, 100079, Note_on_c, 0, 72, 0
4, 100079, Note_on_c, 0, 76, 0
4, 100320, Note_on_c, 0, 72, 80
4, 100320, Control_c, 0, 2, 80
4, 100320, Note_on_c, 0, 76, 80
4, 100559, Note_on_c, 0, 72, 0
4, 100559, Note_on_c, 0, 76, 0
4, 100800, Note_on_c, 0, 72, 80
4, 100800, Control_c, 0, 2, 80
4, 100800, Note_on_c, 0, 76, 80
4, 101159, Note_on_c, 0, 72, 0
4, 101159, Note_on_c, 0, 76, 0
4, 101160, Note_on_c, 0, 76, 80
4, 101160, Control_c, 0, 2, 80
4, 101280, Control_c, 0, 2, 80
4, 101519, Note_on_c, 0, 76, 0
4, 101520, Note_on_c, 0, 77, 80
4, 101520, Control_c, 0, 2, 80
4, 101759, Note_on_c, 0, 77, 0
4, 101760, Note_on_c, 0, 72, 80
4, 101760, Control_c, 0, 2, 80
4, 101760, Note_on_c, 0, 76, 80
4, 101999, Note_on_c, 0, 72, 0
4, 101999, Note_on_c, 0, 76, 0
4, 102240, Note_on_c, 0, 72, 80
4, 102240, Control_c, 0, 2, 80
4, 102240, Note_on_c, 0, 76, 80
4, 102479, Note_on_c, 0, 72, 0
4, 102479, Note_on_c, 0, 76, 0
4, 102720, Note_on_c, 0, 72, 80
4, 102720, Control_c, 0, 2, 80
4, 102720, Note_on_c, 0, 76, 80
4, 103079, Note_on_c, 0, 72, 0
4, 103079, Note_on_c, 0, 76, 0
4, 103080, Note_on_c, 0, 76, 80
4, 103080, Control_c, 0, 2, 80
4, 103200, Control_c, 0, 2, 80
4, 103439, Note_on_c, 0, 76, 0
4, 103440, Note_on_c, 0, 77, 80
4, 103440, Control_c, 0, 2, 80
4, 103679, Note_on_c, 0, 77, 0
4, 103680, Note_on_c, 0, 71, 80
4, 103680, Control_c, 0, 2, 80
4, 103680, Note_on_c, 0, 76, 80
4, 103919, Note_on_c, 0, 71, 0
4, 103919, Note_on_c, 0, 76, 0
4, 104160, Note_on_c, 0, 71, 80
4, 104160, Control_c, 0, 2, 80
4, 104160, Note_on_c, 0, 76, 80
4, 104399, Note_on_c, 0, 71, 0
4, 104399, Note_on_c, 0, 76, 0
4, 104640, Note_on_c, 0, 71, 80
4, 104640, Control_c, 0, 2, 80
4, 104640, Note_on_c, 0, 76, 80
4, 104999, Note_on_c, 0, 71, 0
4, 104999, Note_on_c, 0, 76, 0
4, 105000, Note_on_c, 0, 76, 80
4, 105000, Control_c, 0, 2, 80
4, 105120, Control_c, 0, 2, 80
4, 105359, Note_on_c, 0, 76, 0
4, 105360, Note_on_c, 0, 77, 80
4, 105360, Control_c, 0, 2, 80
4, 105599, Note_on_c, 0, 77, 0
4, 105600, Note_on_c, 0, 74, 80
4, 105600, Control_c, 0, 2, 80
4, 105600, Note_on_c, 0, 79, 80
4, 105839, Note_on_c, 0, 74, 0
4, 105839, Note_on_c, 0, 79, 0
4, 106080, Note_on_c, 0, 74, 80
4, 106080, Control_c, 0, 2, 80
4, 106080, Note_on_c, 0, 79, 80
4, 106319, Note_on_c, 0, 74, 0
4, 106319, Note_on_c, 0, 79, 0
4, 106560, Note_on_c, 0, 74, 80
4, 106560, Control_c, 0, 2, 80
4, 106560, Note_on_c, 0, 79, 80
4, 106919, Note_on_c, 0, 74, 0
4, 106919, Note_on_c, 0, 79, 0
4, 106920, Note_on_c, 0, 79, 80
4, 106920, Control_c, 0, 2, 80
4, 107040, Control_c, 0, 2, 80
4, 107279, Note_on_c, 0, 79, 0
4, 107280, Note_on_c, 0, 79, 80
4, 107280, Control_c, 0, 2, 80
4, 107519, Note_on_c, 0, 79, 0
4, 177600, Note_on_c, 0, 76, 80
4, 177600, Control_c, 0, 2, 80
4, 177839, Note_on_c, 0, 76, 0
4, 177840, Note_on_c, 0, 77, 80
4, 177840, Control_c, 0, 2, 80
4, 178079, Note_on_c, 0, 77, 0
4, 178080, Note_on_c, 0, 76, 80
4, 178080, Control_c, 0, 2, 80
4, 178319, Note_on_c, 0, 76, 0
4, 178320, Note_on_c, 0, 79, 80
4, 178320, Control_c, 0, 2, 80
4, 178560, Control_c, 0, 2, 80
4, 178799, Note_on_c, 0, 79, 0
4, 178800, Note_on_c, 0, 76, 80
4, 178800, Control_c, 0, 2, 80
4, 179520, Control_c, 0, 2, 80
4, 179999, Note_on_c, 0, 76, 0
4, 180000, Note_on_c, 0, 76, 80
4, 180000, Control_c, 0, 2, 80
4, 180239, Note_on_c, 0, 76, 0
4, 180240, Note_on_c, 0, 79, 80
4, 180240, Control_c, 0, 2, 80
4, 180480, Control_c, 0, 2, 80
4, 180719, Note_on_c, 0, 79, 0
4, 180720, Note_on_c, 0, 76, 80
4, 180720, Control_c, 0, 2, 80
4, 181440, Control_c, 0, 2, 80
4, 181919, Note_on_c, 0, 76, 0
4, 181920, Note_on_c, 0, 76, 80
4, 181920, Control_c, 0, 2, 80
4, 182159, Note_on_c, 0, 76, 0
4, 182160, Note_on_c, 0, 74, 80
4, 182160, Control_c, 0, 2, 80
4, 182400, Control_c, 0, 2, 80
4, 183359, Note_on_c, 0, 74, 0
4, 185280, Note_on_c, 0, 76, 80
4, 185280, Control_c, 0, 2, 80
4, 185519, Note_on_c, 0, 76, 0
4, 185520, Note_on_c, 0, 77, 80
4, 185520, Control_c, 0, 2, 80
4, 185759, Note_on_c, 0, 77, 0
4, 185760, Note_on_c, 0, 76, 80
4, 185760, Control_c, 0, 2, 80
4, 185999, Note_on_c, 0, 76, 0
4, 186000, Note_on_c, 0, 79, 80
4, 186000, Control_c, 0, 2, 80
4, 186240, Control_c, 0, 2, 80
4, 186479, Note_on_c, 0, 79, 0
4, 186480, Note_on_c, 0, 76, 80
4, 186480, Control_c, 0, 2, 80
4, 187200, Control_c, 0, 2, 80
4, 187679, Note_on_c, 0, 76, 0
4, 187680, Note_on_c, 0, 76, 80
4, 187680, Control_c, 0, 2, 80
4, 187919, Note_on_c, 0, 76, 0
4, 187920, Note_on_c, 0, 79, 80
4, 187920, Control_c, 0, 2, 80
4, 188160, Control_c, 0, 2, 80
4, 188399, Note_on_c, 0, 79, 0
4, 188400, Note_on_c, 0, 76, 80
4, 188400, Control_c, 0, 2, 80
4, 189120, Control_c, 0, 2, 80
4, 189599, Note_on_c, 0, 76, 0
4, 189600, Note_on_c, 0, 76, 80
4, 189600, Control_c, 0, 2, 80
4, 189839, Note_on_c, 0, 76, 0
4, 189840, Note_on_c, 0, 74, 80
4, 189840, Control_c, 0, 2, 80
4, 190080, Control_c, 0, 2, 80
4, 191039, Note_on_c, 0, 74, 0
4, 191280, Note_on_c, 0, 76, 80
4, 191280, Control_c, 0, 2, 80
4, 191519, Note_on_c, 0, 76, 0
4, 191520, Note_on_c, 0, 79, 80
4, 191759, Note_on_c, 0, 79, 0
4, 191760, Note_on_c, 0, 81, 80
4, 193919, Note_on_c, 0, 81, 0
4, 193920, End_track
5, 0, Start_track
5, 0, Title_t, "Lute, Lute, Lute\000"
5, 0, Key_signature, 0, "major"
5, 0, Control_c, 2, 121, 0
5, 0, Program_c, 2, 24
5, 0, Control_c, 2, 7, 100
5, 0, Control_c, 2, 10, 64
5, 0, Control_c, 2, 91, 0
5, 0, Control_c, 2, 93, 0
5, 0, MIDI_port, 0
5, 0, Note_on_c, 2, 57, 80
5, 0, Control_c, 2, 2, 80
5, 0, Note_on_c, 2, 60, 80
5, 0, Note_on_c, 2, 64, 80
5, 239, Note_on_c, 2, 57, 0
5, 239, Note_on_c, 2, 60, 0
5, 239, Note_on_c, 2, 64, 0
5, 480, Note_on_c, 2, 57, 80
5, 480, Note_on_c, 2, 60, 80
5, 480, Note_on_c, 2, 64, 80
5, 719, Note_on_c, 2, 57, 0
5, 719, Note_on_c, 2, 60, 0
5, 719, Note_on_c, 2, 64, 0
5, 960, Note_on_c, 2, 57, 80
5, 960, Note_on_c, 2, 60, 80
5, 960, Note_on_c, 2, 64, 80
5, 1319, Note_on_c, 2, 57, 0
5, 1319, Note_on_c, 2, 60, 0
5, 1319, Note_on_c, 2, 64, 0
5, 1320, Note_on_c, 2, 57, 80
5, 1320, Note_on_c, 2, 60, 80
5, 1320, Note_on_c, 2, 64, 80
5, 1679, Note_on_c, 2, 57, 0
5, 1679, Note_on_c, 2, 60, 0
5, 1679, Note_on_c, 2, 64, 0
5, 1680, Note_on_c, 2, 57, 80
5, 1680, Note_on_c, 2, 60, 80
5, 1680, Note_on_c, 2, 65, 80
5, 1919, Note_on_c, 2, 57, 0
5, 1919, Note_on_c, 2, 60, 0
5, 1919, Note_on_c, 2, 65, 0
5, 1920, Note_on_c, 2, 55, 80
5, 1920, Note_on_c, 2, 60, 80
5, 1920, Note_on_c, 2, 64, 80
5, 2159, Note_on_c, 2, 55, 0
5, 2159, Note_on_c, 2, 60, 0
5, 2159, Note_on_c, 2, 64, 0
5, 2400, Note_on_c, 2, 55, 80
5, 2400, Note_on_c, 2, 60, 80
5, 2400, Note_on_c, 2, 64, 80
5, 2639, Note_on_c, 2, 55, 0
5, 2639, Note_on_c, 2, 60, 0
5, 2639, Note_on_c, 2, 64, 0
5, 2880, Note_on_c, 2, 55, 80
5, 2880, Note_on_c, 2, 60, 80
5, 2880, Note_on_c, 2, 64, 80
5, 3239, Note_on_c, 2, 55, 0
5, 3239, Note_on_c, 2, 60, 0
5, 3239, Note_on_c, 2, 64, 0
5, 3240, Note_on_c, 2, 55, 80
5, 3240, Note_on_c, 2, 60, 80
5, 3240, Note_on_c, 2, 64, 80
5, 3599, Note_on_c, 2, 55, 0
5, 3599, Note_on_c, 2, 60, 0
5, 3599, Note_on_c, 2, 64, 0
5, 3600, Note_on_c, 2, 57, 80
5, 3600, Note_on_c, 2, 60, 80
5, 3600, Note_on_c, 2, 65, 80
5, 3839, Note_on_c, 2, 57, 0
5, 3839, Note_on_c, 2, 60, 0
5, 3839, Note_on_c, 2, 65, 0
5, 3840, Note_on_c, 2, 55, 80
5, 3840, Note_on_c, 2, 59, 80
5, 3840, Note_on_c, 2, 64, 80
5, 4079, Note_on_c, 2, 55, 0
5, 4079, Note_on_c, 2, 59, 0
5, 4079, Note_on_c, 2, 64, 0
5, 4320, Note_on_c, 2, 55, 80
5, 4320, Note_on_c, 2, 59, 80
5, 4320, Note_on_c, 2, 64, 80
5, 4559, Note_on_c, 2, 55, 0
5, 4559, Note_on_c, 2, 59, 0
5, 4559, Note_on_c, 2, 64, 0
5, 4800, Note_on_c, 2, 55, 80
5, 4800, Note_on_c, 2, 59, 80
5, 4800, Note_on_c, 2, 64, 80
5, 5159, Note_on_c, 2, 55, 0
5, 5159, Note_on_c, 2, 59, 0
5, 5159, Note_on_c, 2, 64, 0
5, 5160, Note_on_c, 2, 55, 80
5, 5160, Note_on_c, 2, 59, 80
5, 5160, Note_on_c, 2, 64, 80
5, 5519, Note_on_c, 2, 55, 0
5, 5519, Note_on_c, 2, 59, 0
5, 5519, Note_on_c, 2, 64, 0
5, 5520, Note_on_c, 2, 55, 80
5, 5520, Note_on_c, 2, 59, 80
5, 5520, Note_on_c, 2, 65, 80
5, 5759, Note_on_c, 2, 55, 0
5, 5759, Note_on_c, 2, 59, 0
5, 5759, Note_on_c, 2, 65, 0
5, 5760, Note_on_c, 2, 59, 80
5, 5760, Note_on_c, 2, 62, 80
5, 5760, Note_on_c, 2, 67, 80
5, 5999, Note_on_c, 2, 59, 0
5, 5999, Note_on_c, 2, 62, 0
5, 5999, Note_on_c, 2, 67, 0
5, 6240, Note_on_c, 2, 59, 80
5, 6240, Note_on_c, 2, 62, 80
5, 6240, Note_on_c, 2, 67, 80
5, 6479, Note_on_c, 2, 59, 0
5, 6479, Note_on_c, 2, 62, 0
5, 6479, Note_on_c, 2, 67, 0
5, 6720, Note_on_c, 2, 59, 80
5, 6720, Note_on_c, 2, 62, 80
5, 6720, Note_on_c, 2, 67, 80
5, 7079, Note_on_c, 2, 59, 0
5, 7079, Note_on_c, 2, 62, 0
5, 7079, Note_on_c, 2, 67, 0
5, 7080, Note_on_c, 2, 59, 80
5, 7080, Control_c, 2, 2, 80
5, 7080, Note_on_c, 2, 62, 80
5, 7080, Note_on_c, 2, 67, 80
5, 7200, Control_c, 2, 2, 80
5, 7439, Note_on_c, 2, 59, 0
5, 7439, Note_on_c, 2, 62, 0
5, 7439, Note_on_c, 2, 67, 0
5, 7440, Note_on_c, 2, 59, 80
5, 7440, Control_c, 2, 2, 80
5, 7440, Note_on_c, 2, 62, 80
5, 7440, Note_on_c, 2, 67, 80
5, 7679, Note_on_c, 2, 59, 0
5, 7679, Note_on_c, 2, 62, 0
5, 7679, Note_on_c, 2, 67, 0
5, 7680, Note_on_c, 2, 57, 80
5, 7680, Control_c, 2, 2, 80
5, 7680, Note_on_c, 2, 60, 80
5, 7680, Note_on_c, 2, 64, 80
5, 7919, Note_on_c, 2, 57, 0
5, 7919, Note_on_c, 2, 60, 0
5, 7919, Note_on_c, 2, 64, 0
5, 8160, Note_on_c, 2, 57, 80
5, 8160, Note_on_c, 2, 60, 80
5, 8160, Note_on_c, 2, 64, 80
5, 8399, Note_on_c, 2, 57, 0
5, 8399, Note_on_c, 2, 60, 0
5, 8399, Note_on_c, 2, 64, 0
5, 8640, Note_on_c, 2, 57, 80
5, 8640, Control_c, 2, 2, 80
5, 8640, Note_on_c, 2, 60, 80
5, 8640, Note_on_c, 2, 64, 80
5, 8999, Note_on_c, 2, 57, 0
5, 8999, Note_on_c, 2, 60, 0
5, 8999, Note_on_c, 2, 64, 0
5, 9000, Note_on_c, 2, 57, 80
5, 9000, Control_c, 2, 2, 80
5, 9000, Note_on_c, 2, 60, 80
5, 9000, Note_on_c, 2, 64, 80
5, 9120, Control_c, 2, 2, 80
5, 9359, Note_on_c, 2, 57, 0
5, 9359, Note_on_c, 2, 60, 0
5, 9359, Note_on_c, 2, 64, 0
5, 9360, Note_on_c, 2, 57, 80
5, 9360, Control_c, 2, 2, 80
5, 9360, Note_on_c, 2, 60, 80
5, 9360, Note_on_c, 2, 65, 80
5, 9599, Note_on_c, 2, 57, 0
5, 9599, Note_on_c, 2, 60, 0
5, 9599, Note_on_c, 2, 65, 0
5, 9600, Note_on_c, 2, 55, 80
5, 9600, Control_c, 2, 2, 80
5, 9600, Note_on_c, 2, 60, 80
5, 9600, Note_on_c, 2, 64, 80
5, 9839, Note_on_c, 2, 55, 0
5, 9839, Note_on_c, 2, 60, 0
5, 9839, Note_on_c, 2, 64, 0
5, 10080, Note_on_c, 2, 55, 80
5, 10080, Control_c, 2, 2, 80
5, 10080, Note_on_c, 2, 60, 80
5, 10080, Note_on_c, 2, 64, 80
5, 10319, Note_on_c, 2, 55, 0
5, 10319, Note_on_c, 2, 60, 0
5, 10319, Note_on_c, 2, 64, 0
5, 10560, Note_on_c, 2, 55, 80
5, 10560, Control_c, 2, 2, 80
5, 10560, Note_on_c, 2, 60, 80
5, 10560, Note_on_c, 2, 64, 80
5, 10919, Note_on_c, 2, 55, 0
5, 10919, Note_on_c, 2, 60, 0
5, 10919, Note_on_c, 2, 64, 0
5, 10920, Note_on_c, 2, 55, 80
5, 10920, Note_on_c, 2, 60, 80
5, 10920, Note_on_c, 2, 64, 80
5, 11040, Control_c, 2, 2, 80
5, 11279, Note_on_c, 2, 55, 0
5, 11279, Note_on_c, 2, 60, 0
5, 11279, Note_on_c, 2, 64, 0
5, 11280, Note_on_c, 2, 57, 80
5, 11280, Control_c, 2, 2, 80
5, 11280, Note_on_c, 2, 60, 80
5, 11280, Note_on_c, 2, 65, 80
5, 11519, Note_on_c, 2, 57, 0
5, 11519, Note_on_c, 2, 60, 0
5, 11519, Note_on_c, 2, 65, 0
5, 11520, Note_on_c, 2, 55, 80
5, 11520, Control_c, 2, 2, 80
5, 11520, Note_on_c, 2, 59, 80
5, 11520, Note_on_c, 2, 64, 80
5, 11759, Note_on_c, 2, 55, 0
5, 11759, Note_on_c, 2, 59, 0
5, 11759, Note_on_c, 2, 64, 0
5, 12000, Note_on_c, 2, 55, 80
5, 12000, Control_c, 2, 2, 80
5, 12000, Note_on_c, 2, 59, 80
5, 12000, Note_on_c, 2, 64, 80
5, 12239, Note_on_c, 2, 55, 0
5, 12239, Note_on_c, 2, 59, 0
5, 12239, Note_on_c, 2, 64, 0
5, 12480, Note_on_c, 2, 55, 80
5, 12480, Control_c, 2, 2, 80
5, 12480, Note_on_c, 2, 59, 80
5, 12480, Note_on_c, 2, 64, 80
5, 12839, Note_on_c, 2, 55, 0
5, 12839, Note_on_c, 2, 59, 0
5, 12839, Note_on_c, 2, 64, 0
5, 12840, Note_on_c, 2, 55, 80
5, 12840, Note_on_c, 2, 59, 80
5, 12840, Note_on_c, 2, 64, 80
5, 12960, Control_c, 2, 2, 80
5, 13199, Note_on_c, 2, 55, 0
5, 13199, Note_on_c, 2, 59, 0
5, 13199, Note_on_c, 2, 64, 0
5, 13200, Note_on_c, 2, 55, 80
5, 13200, Control_c, 2, 2, 80
5, 13200, Note_on_c, 2, 59, 80
5, 13200, Note_on_c, 2, 65, 80
5, 13439, Note_on_c, 2, 55, 0
5, 13439, Note_on_c, 2, 59, 0
5, 13439, Note_on_c, 2, 65, 0
5, 13440, Note_on_c, 2, 59, 80
5, 13440, Control_c, 2, 2, 80
5, 13440, Note_on_c, 2, 62, 80
5, 13440, Note_on_c, 2, 67, 80
5, 13679, Note_on_c, 2, 59, 0
5, 13679, Note_on_c, 2, 62, 0
5, 13679, Note_on_c, 2, 67, 0
5, 13920, Note_on_c, 2, 59, 80
5, 13920, Note_on_c, 2, 62, 80
5, 13920, Note_on_c, 2, 67, 80
5, 14159, Note_on_c, 2, 59, 0
5, 14159, Note_on_c, 2, 62, 0
5, 14159, Note_on_c, 2, 67, 0
5, 14400, Note_on_c, 2, 59, 80
5, 14400, Note_on_c, 2, 62, 80
5, 14400, Note_on_c, 2, 67, 80
5, 14759, Note_on_c, 2, 59, 0
5, 14759, Note_on_c, 2, 62, 0
5, 14759, Note_on_c, 2, 67, 0
5, 14760, Note_on_c, 2, 59, 80
5, 14760, Note_on_c, 2, 62, 80
5, 14760, Note_on_c, 2, 67, 80
5, 15119, Note_on_c, 2, 59, 0
5, 15119, Note_on_c, 2, 62, 0
5, 15119, Note_on_c, 2, 67, 0
5, 15120, Note_on_c, 2, 59, 80
5, 15120, Note_on_c, 2, 62, 80
5, 15120, Note_on_c, 2, 67, 80
5, 15359, Note_on_c, 2, 59, 0
5, 15359, Note_on_c, 2, 62, 0
5, 15359, Note_on_c, 2, 67, 0
5, 15360, Note_on_c, 2, 57, 80
5, 15360, Note_on_c, 2, 60, 80
5, 15360, Note_on_c, 2, 64, 80
5, 15599, Note_on_c, 2, 57, 0
5, 15599, Note_on_c, 2, 60, 0
5, 15599, Note_on_c, 2, 64, 0
5, 15840, Note_on_c, 2, 57, 80
5, 15840, Note_on_c, 2, 60, 80
5, 15840, Note_on_c, 2, 64, 80
5, 16079, Note_on_c, 2, 57, 0
5, 16079, Note_on_c, 2, 60, 0
5, 16079, Note_on_c, 2, 64, 0
5, 16320, Note_on_c, 2, 57, 80
5, 16320, Control_c, 2, 2, 80
5, 16320, Note_on_c, 2, 60, 80
5, 16320, Note_on_c, 2, 64, 80
5, 16679, Note_on_c, 2, 57, 0
5, 16679, Note_on_c, 2, 60, 0
5, 16679, Note_on_c, 2, 64, 0
5, 16680, Note_on_c, 2, 57, 80
5, 16680, Control_c, 2, 2, 80
5, 16680, Note_on_c, 2, 60, 80
5, 16680, Note_on_c, 2, 64, 80
5, 16800, Control_c, 2, 2, 80
5, 17039, Note_on_c, 2, 57, 0
5, 17039, Note_on_c, 2, 60, 0
5, 17039, Note_on_c, 2, 64, 0
5, 17040, Note_on_c, 2, 57, 80
5, 17040, Control_c, 2, 2, 80
5, 17040, Note_on_c, 2, 60, 80
5, 17040, Note_on_c, 2, 65, 80
5, 17279, Note_on_c, 2, 57, 0
5, 17279, Note_on_c, 2, 60, 0
5, 17279, Note_on_c, 2, 65, 0
5, 17280, Note_on_c, 2, 55, 80
5, 17280, Control_c, 2, 2, 80
5, 17280, Note_on_c, 2, 60, 80
5, 17280, Note_on_c, 2, 64, 80
5, 17519, Note_on_c, 2, 55, 0
5, 17519, Note_on_c, 2, 60, 0
5, 17519, Note_on_c, 2, 64, 0
5, 17760, Note_on_c, 2, 55, 80
5, 17760, Control_c, 2, 2, 80
5, 17760, Note_on_c, 2, 60, 80
5, 17760, Note_on_c, 2, 64, 80
5, 17999, Note_on_c, 2, 55, 0
5, 17999, Note_on_c, 2, 60, 0
5, 17999, Note_on_c, 2, 64, 0
5, 18240, Note_on_c, 2, 55, 80
5, 18240, Control_c, 2, 2, 80
5, 18240, Note_on_c, 2, 60, 80
5, 18240, Note_on_c, 2, 64, 80
5, 18599, Note_on_c, 2, 55, 0
5, 18599, Note_on_c, 2, 60, 0
5, 18599, Note_on_c, 2, 64, 0
5, 18600, Note_on_c, 2, 55, 80
5, 18600, Note_on_c, 2, 60, 80
5, 18600, Note_on_c, 2, 64, 80
5, 18720, Control_c, 2, 2, 80
5, 18959, Note_on_c, 2, 55, 0
5, 18959, Note_on_c, 2, 60, 0
5, 18959, Note_on_c, 2, 64, 0
5, 18960, Note_on_c, 2, 57, 80
5, 18960, Control_c, 2, 2, 80
5, 18960, Note_on_c, 2, 60, 80
5, 18960, Note_on_c, 2, 65, 80
5, 19199, Note_on_c, 2, 57, 0
5, 19199, Note_on_c, 2, 60, 0
5, 19199, Note_on_c, 2, 65, 0
5, 19200, Note_on_c, 2, 55, 80
5, 19200, Control_c, 2, 2, 80
5, 19200, Note_on_c, 2, 59, 80
5, 19200, Note_on_c, 2, 64, 80
5, 19439, Note_on_c, 2, 55, 0
5, 19439, Note_on_c, 2, 59, 0
5, 19439, Note_on_c, 2, 64, 0
5, 19680, Note_on_c, 2, 55, 80
5, 19680, Control_c, 2, 2, 80
5, 19680, Note_on_c, 2, 59, 80
5, 19680, Note_on_c, 2, 64, 80
5, 19919, Note_on_c, 2, 55, 0
5, 19919, Note_on_c, 2, 59, 0
5, 19919, Note_on_c, 2, 64, 0
5, 20160, Note_on_c, 2, 55, 80
5, 20160, Control_c, 2, 2, 80
5, 20160, Note_on_c, 2, 59, 80
5, 20160, Note_on_c, 2, 64, 80
5, 20519, Note_on_c, 2, 55, 0
5, 20519, Note_on_c, 2, 59, 0
5, 20519, Note_on_c, 2, 64, 0
5, 20520, Note_on_c, 2, 55, 80
5, 20520, Note_on_c, 2, 59, 80
5, 20520, Note_on_c, 2, 64, 80
5, 20640, Control_c, 2, 2, 80
5, 20879, Note_on_c, 2, 55, 0
5, 20879, Note_on_c, 2, 59, 0
5, 20879, Note_on_c, 2, 64, 0
5, 20880, Note_on_c, 2, 55, 80
5, 20880, Control_c, 2, 2, 80
5, 20880, Note_on_c, 2, 59, 80
5, 20880, Note_on_c, 2, 65, 80
5, 21119, Note_on_c, 2, 55, 0
5, 21119, Note_on_c, 2, 59, 0
5, 21119, Note_on_c, 2, 65, 0
5, 21120, Note_on_c, 2, 59, 80
5, 21120, Control_c, 2, 2, 80
5, 21120, Note_on_c, 2, 62, 80
5, 21120, Note_on_c, 2, 67, 80
5, 21359, Note_on_c, 2, 59, 0
5, 21359, Note_on_c, 2, 62, 0
5, 21359, Note_on_c, 2, 67, 0
5, 21600, Note_on_c, 2, 59, 80
5, 21600, Note_on_c, 2, 62, 80
5, 21600, Note_on_c, 2, 67, 80
5, 21839, Note_on_c, 2, 59, 0
5, 21839, Note_on_c, 2, 62, 0
5, 21839, Note_on_c, 2, 67, 0
5, 22080, Note_on_c, 2, 59, 80
5, 22080, Note_on_c, 2, 62, 80
5, 22080, Note_on_c, 2, 67, 80
5, 22439, Note_on_c, 2, 59, 0
5, 22439, Note_on_c, 2, 62, 0
5, 22439, Note_on_c, 2, 67, 0
5, 22440, Note_on_c, 2, 59, 80
5, 22440, Note_on_c, 2, 62, 80
5, 22440, Note_on_c, 2, 67, 80
5, 22799, Note_on_c, 2, 59, 0
5, 22799, Note_on_c, 2, 62, 0
5, 22799, Note_on_c, 2, 67, 0
5, 22800, Note_on_c, 2, 59, 80
5, 22800, Note_on_c, 2, 62, 80
5, 22800, Note_on_c, 2, 67, 80
5, 23039, Note_on_c, 2, 59, 0
5, 23039, Note_on_c, 2, 62, 0
5, 23039, Note_on_c, 2, 67, 0
5, 23040, Note_on_c, 2, 57, 80
5, 23040, Note_on_c, 2, 60, 80
5, 23040, Note_on_c, 2, 64, 80
5, 23279, Note_on_c, 2, 57, 0
5, 23279, Note_on_c, 2, 60, 0
5, 23279, Note_on_c, 2, 64, 0
5, 23520, Note_on_c, 2, 57, 80
5, 23520, Note_on_c, 2, 60, 80
5, 23520, Note_on_c, 2, 64, 80
5, 23759, Note_on_c, 2, 57, 0
5, 23759, Note_on_c, 2, 60, 0
5, 23759, Note_on_c, 2, 64, 0
5, 24000, Note_on_c, 2, 57, 80
5, 24000, Note_on_c, 2, 60, 80
5, 24000, Note_on_c, 2, 64, 80
5, 24359, Note_on_c, 2, 57, 0
5, 24359, Note_on_c, 2, 60, 0
5, 24359, Note_on_c, 2, 64, 0
5, 24360, Note_on_c, 2, 60, 80
5, 24360, Note_on_c, 2, 64, 80
5, 24719, Note_on_c, 2, 60, 0
5, 24719, Note_on_c, 2, 64, 0
5, 24720, Note_on_c, 2, 60, 80
5, 24720, Note_on_c, 2, 65, 80
5, 24959, Note_on_c, 2, 60, 0
5, 24959, Note_on_c, 2, 65, 0
5, 24960, Note_on_c, 2, 55, 80
5, 24960, Note_on_c, 2, 60, 80
5, 24960, Note_on_c, 2, 64, 80
5, 25199, Note_on_c, 2, 55, 0
5, 25199, Note_on_c, 2, 60, 0
5, 25199, Note_on_c, 2, 64, 0
5, 25440, Note_on_c, 2, 55, 80
5, 25440, Note_on_c, 2, 60, 80
5, 25440, Note_on_c, 2, 64, 80
5, 25679, Note_on_c, 2, 55, 0
5, 25679, Note_on_c, 2, 60, 0
5, 25679, Note_on_c, 2, 64, 0
5, 25920, Note_on_c, 2, 55, 80
5, 25920, Note_on_c, 2, 60, 80
5, 25920, Note_on_c, 2, 64, 80
5, 26279, Note_on_c, 2, 55, 0
5, 26279, Note_on_c, 2, 60, 0
5, 26279, Note_on_c, 2, 64, 0
5, 26280, Note_on_c, 2, 60, 80
5, 26280, Note_on_c, 2, 64, 80
5, 26639, Note_on_c, 2, 60, 0
5, 26639, Note_on_c, 2, 64, 0
5, 26640, Note_on_c, 2, 60, 80
5, 26640, Note_on_c, 2, 65, 80
5, 26879, Note_on_c, 2, 60, 0
5, 26879, Note_on_c, 2, 65, 0
5, 26880, Note_on_c, 2, 55, 80
5, 26880, Note_on_c, 2, 59, 80
5, 26880, Note_on_c, 2, 64, 80
5, 27119, Note_on_c, 2, 55, 0
5, 27119, Note_on_c, 2, 59, 0
5, 27119, Note_on_c, 2, 64, 0
5, 27360, Note_on_c, 2, 55, 80
5, 27360, Note_on_c, 2, 59, 80
5, 27360, Note_on_c, 2, 64, 80
5, 27599, Note_on_c, 2, 55, 0
5, 27599, Note_on_c, 2, 59, 0
5, 27599, Note_on_c, 2, 64, 0
5, 27840, Note_on_c, 2, 55, 80
5, 27840, Note_on_c, 2, 59, 80
5, 27840, Note_on_c, 2, 64, 80
5, 28199, Note_on_c, 2, 55, 0
5, 28199, Note_on_c, 2, 59, 0
5, 28199, Note_on_c, 2, 64, 0
5, 28200, Note_on_c, 2, 59, 80
5, 28200, Note_on_c, 2, 64, 80
5, 28559, Note_on_c, 2, 59, 0
5, 28559, Note_on_c, 2, 64, 0
5, 28560, Note_on_c, 2, 59, 80
5, 28560, Note_on_c, 2, 65, 80
5, 28799, Note_on_c, 2, 59, 0
5, 28799, Note_on_c, 2, 65, 0
5, 28800, Note_on_c, 2, 59, 80
5, 28800, Note_on_c, 2, 62, 80
5, 28800, Note_on_c, 2, 67, 80
5, 29039, Note_on_c, 2, 59, 0
5, 29039, Note_on_c, 2, 62, 0
5, 29039, Note_on_c, 2, 67, 0
5, 29280, Note_on_c, 2, 59, 80
5, 29280, Note_on_c, 2, 62, 80
5, 29280, Note_on_c, 2, 67, 80
5, 29519, Note_on_c, 2, 59, 0
5, 29519, Note_on_c, 2, 62, 0
5, 29519, Note_on_c, 2, 67, 0
5, 29760, Note_on_c, 2, 59, 80
5, 29760, Note_on_c, 2, 62, 80
5, 29760, Note_on_c, 2, 67, 80
5, 30119, Note_on_c, 2, 59, 0
5, 30119, Note_on_c, 2, 62, 0
5, 30119, Note_on_c, 2, 67, 0
5, 30120, Note_on_c, 2, 62, 80
5, 30120, Note_on_c, 2, 67, 80
5, 30479, Note_on_c, 2, 62, 0
5, 30479, Note_on_c, 2, 67, 0
5, 30480, Note_on_c, 2, 62, 80
5, 30480, Note_on_c, 2, 67, 80
5, 30719, Note_on_c, 2, 62, 0
5, 30719, Note_on_c, 2, 67, 0
5, 30720, Note_on_c, 2, 57, 80
5, 30720, Note_on_c, 2, 60, 80
5, 30720, Note_on_c, 2, 64, 80
5, 30959, Note_on_c, 2, 57, 0
5, 30959, Note_on_c, 2, 60, 0
5, 30959, Note_on_c, 2, 64, 0
5, 31200, Note_on_c, 2, 57, 80
5, 31200, Note_on_c, 2, 60, 80
5, 31200, Note_on_c, 2, 64, 80
5, 31439, Note_on_c, 2, 57, 0
5, 31439, Note_on_c, 2, 60, 0
5, 31439, Note_on_c, 2, 64, 0
5, 31680, Note_on_c, 2, 57, 80
5, 31680, Note_on_c, 2, 60, 80
5, 31680, Note_on_c, 2, 64, 80
5, 32039, Note_on_c, 2, 57, 0
5, 32039, Note_on_c, 2, 60, 0
5, 32039, Note_on_c, 2, 64, 0
5, 32040, Note_on_c, 2, 60, 80
5, 32040, Note_on_c, 2, 64, 80
5, 32399, Note_on_c, 2, 60, 0
5, 32399, Note_on_c, 2, 64, 0
5, 32400, Note_on_c, 2, 60, 80
5, 32400, Note_on_c, 2, 65, 80
5, 32639, Note_on_c, 2, 60, 0
5, 32639, Note_on_c, 2, 65, 0
5, 32640, Note_on_c, 2, 55, 80
5, 32640, Note_on_c, 2, 60, 80
5, 32640, Note_on_c, 2, 64, 80
5, 32879, Note_on_c, 2, 55, 0
5, 32879, Note_on_c, 2, 60, 0
5, 32879, Note_on_c, 2, 64, 0
5, 33120, Note_on_c, 2, 55, 80
5, 33120, Note_on_c, 2, 60, 80
5, 33120, Note_on_c, 2, 64, 80
5, 33359, Note_on_c, 2, 55, 0
5, 33359, Note_on_c, 2, 60, 0
5, 33359, Note_on_c, 2, 64, 0
5, 33600, Note_on_c, 2, 55, 80
5, 33600, Note_on_c, 2, 60, 80
5, 33600, Note_on_c, 2, 64, 80
5, 33959, Note_on_c, 2, 55, 0
5, 33959, Note_on_c, 2, 60, 0
5, 33959, Note_on_c, 2, 64, 0
5, 33960, Note_on_c, 2, 60, 80
5, 33960, Note_on_c, 2, 64, 80
5, 34319, Note_on_c, 2, 60, 0
5, 34319, Note_on_c, 2, 64, 0
5, 34320, Note_on_c, 2, 60, 80
5, 34320, Note_on_c, 2, 65, 80
5, 34559, Note_on_c, 2, 60, 0
5, 34559, Note_on_c, 2, 65, 0
5, 34560, Note_on_c, 2, 55, 80
5, 34560, Note_on_c, 2, 59, 80
5, 34560, Note_on_c, 2, 64, 80
5, 34799, Note_on_c, 2, 55, 0
5, 34799, Note_on_c, 2, 59, 0
5, 34799, Note_on_c, 2, 64, 0
5, 35040, Note_on_c, 2, 55, 80
5, 35040, Note_on_c, 2, 59, 80
5, 35040, Note_on_c, 2, 64, 80
5, 35279, Note_on_c, 2, 55, 0
5, 35279, Note_on_c, 2, 59, 0
5, 35279, Note_on_c, 2, 64, 0
5, 35520, Note_on_c, 2, 55, 80
5, 35520, Note_on_c, 2, 59, 80
5, 35520, Note_on_c, 2, 64, 80
5, 35879, Note_on_c, 2, 55, 0
5, 35879, Note_on_c, 2, 59, 0
5, 35879, Note_on_c, 2, 64, 0
5, 35880, Note_on_c, 2, 59, 80
5, 35880, Note_on_c, 2, 64, 80
5, 36239, Note_on_c, 2, 59, 0
5, 36239, Note_on_c, 2, 64, 0
5, 36240, Note_on_c, 2, 59, 80
5, 36240, Note_on_c, 2, 65, 80
5, 36479, Note_on_c, 2, 59, 0
5, 36479, Note_on_c, 2, 65, 0
5, 36480, Note_on_c, 2, 59, 80
5, 36480, Note_on_c, 2, 62, 80
5, 36480, Note_on_c, 2, 67, 80
5, 36719, Note_on_c, 2, 59, 0
5, 36719, Note_on_c, 2, 62, 0
5, 36719, Note_on_c, 2, 67, 0
5, 36960, Note_on_c, 2, 59, 80
5, 36960, Note_on_c, 2, 62, 80
5, 36960, Note_on_c, 2, 67, 80
5, 37199, Note_on_c, 2, 59, 0
5, 37199, Note_on_c, 2, 62, 0
5, 37199, Note_on_c, 2, 67, 0
5, 37440, Note_on_c, 2, 59, 80
5, 37440, Note_on_c, 2, 62, 80
5, 37440, Note_on_c, 2, 67, 80
5, 37799, Note_on_c, 2, 59, 0
5, 37799, Note_on_c, 2, 62, 0
5, 37799, Note_on_c, 2, 67, 0
5, 37800, Note_on_c, 2, 62, 80
5, 37800, Note_on_c, 2, 67, 80
5, 38159, Note_on_c, 2, 62, 0
5, 38159, Note_on_c, 2, 67, 0
5, 38160, Note_on_c, 2, 62, 80
5, 38160, Note_on_c, 2, 67, 80
5, 38399, Note_on_c, 2, 62, 0
5, 38399, Note_on_c, 2, 67, 0
5, 38400, Note_on_c, 2, 57, 80
5, 38400, Note_on_c, 2, 60, 80
5, 38400, Note_on_c, 2, 64, 80
5, 38639, Note_on_c, 2, 57, 0
5, 38639, Note_on_c, 2, 60, 0
5, 38639, Note_on_c, 2, 64, 0
5, 38880, Note_on_c, 2, 57, 80
5, 38880, Note_on_c, 2, 60, 80
5, 38880, Note_on_c, 2, 64, 80
5, 39119, Note_on_c, 2, 57, 0
5, 39119, Note_on_c, 2, 60, 0
5, 39119, Note_on_c, 2, 64, 0
5, 39360, Note_on_c, 2, 57, 80
5, 39360, Note_on_c, 2, 60, 80
5, 39360, Note_on_c, 2, 64, 80
5, 39719, Note_on_c, 2, 57, 0
5, 39719, Note_on_c, 2, 60, 0
5, 39719, Note_on_c, 2, 64, 0
5, 39720, Note_on_c, 2, 57, 80
5, 39720, Note_on_c, 2, 60, 80
5, 39720, Note_on_c, 2, 64, 80
5, 40079, Note_on_c, 2, 57, 0
5, 40079, Note_on_c, 2, 60, 0
5, 40079, Note_on_c, 2, 64, 0
5, 40080, Note_on_c, 2, 57, 80
5, 40080, Note_on_c, 2, 60, 80
5, 40080, Note_on_c, 2, 65, 80
5, 40319, Note_on_c, 2, 57, 0
5, 40319, Note_on_c, 2, 60, 0
5, 40319, Note_on_c, 2, 65, 0
5, 40320, Note_on_c, 2, 55, 80
5, 40320, Note_on_c, 2, 60, 80
5, 40320, Note_on_c, 2, 64, 80
5, 40559, Note_on_c, 2, 55, 0
5, 40559, Note_on_c, 2, 60, 0
5, 40559, Note_on_c, 2, 64, 0
5, 40800, Note_on_c, 2, 55, 80
5, 40800, Note_on_c, 2, 60, 80
5, 40800, Note_on_c, 2, 64, 80
5, 41039, Note_on_c, 2, 55, 0
5, 41039, Note_on_c, 2, 60, 0
5, 41039, Note_on_c, 2, 64, 0
5, 41280, Note_on_c, 2, 55, 80
5, 41280, Note_on_c, 2, 60, 80
5, 41280, Note_on_c, 2, 64, 80
5, 41639, Note_on_c, 2, 55, 0
5, 41639, Note_on_c, 2, 60, 0
5, 41639, Note_on_c, 2, 64, 0
5, 41640, Note_on_c, 2, 55, 80
5, 41640, Note_on_c, 2, 60, 80
5, 41640, Note_on_c, 2, 64, 80
5, 41999, Note_on_c, 2, 55, 0
5, 41999, Note_on_c, 2, 60, 0
5, 41999, Note_on_c, 2, 64, 0
5, 42000, Note_on_c, 2, 57, 80
5, 42000, Note_on_c, 2, 60, 80
5, 42000, Note_on_c, 2, 65, 80
5, 42239, Note_on_c, 2, 57, 0
5, 42239, Note_on_c, 2, 60, 0
5, 42239, Note_on_c, 2, 65, 0
5, 42240, Note_on_c, 2, 55, 80
5, 42240, Note_on_c, 2, 59, 80
5, 42240, Note_on_c, 2, 64, 80
5, 42479, Note_on_c, 2, 55, 0
5, 42479, Note_on_c, 2, 59, 0
5, 42479, Note_on_c, 2, 64, 0
5, 42720, Note_on_c, 2, 55, 80
5, 42720, Note_on_c, 2, 59, 80
5, 42720, Note_on_c, 2, 64, 80
5, 42959, Note_on_c, 2, 55, 0
5, 42959, Note_on_c, 2, 59, 0
5, 42959, Note_on_c, 2, 64, 0
5, 43200, Note_on_c, 2, 55, 80
5, 43200, Note_on_c, 2, 59, 80
5, 43200, Note_on_c, 2, 64, 80
5, 43559, Note_on_c, 2, 55, 0
5, 43559, Note_on_c, 2, 59, 0
5, 43559, Note_on_c, 2, 64, 0
5, 43560, Note_on_c, 2, 55, 80
5, 43560, Note_on_c, 2, 59, 80
5, 43560, Note_on_c, 2, 64, 80
5, 43919, Note_on_c, 2, 55, 0
5, 43919, Note_on_c, 2, 59, 0
5, 43919, Note_on_c, 2, 64, 0
5, 43920, Note_on_c, 2, 55, 80
5, 43920, Note_on_c, 2, 59, 80
5, 43920, Note_on_c, 2, 65, 80
5, 44159, Note_on_c, 2, 55, 0
5, 44159, Note_on_c, 2, 59, 0
5, 44159, Note_on_c, 2, 65, 0
5, 44160, Note_on_c, 2, 59, 80
5, 44160, Note_on_c, 2, 62, 80
5, 44160, Note_on_c, 2, 67, 80
5, 44399, Note_on_c, 2, 59, 0
5, 44399, Note_on_c, 2, 62, 0
5, 44399, Note_on_c, 2, 67, 0
5, 44640, Note_on_c, 2, 59, 80
5, 44640, Note_on_c, 2, 62, 80
5, 44640, Note_on_c, 2, 67, 80
5, 44879, Note_on_c, 2, 59, 0
5, 44879, Note_on_c, 2, 62, 0
5, 44879, Note_on_c, 2, 67, 0
5, 45120, Note_on_c, 2, 59, 80
5, 45120, Note_on_c, 2, 62, 80
5, 45120, Note_on_c, 2, 67, 80
5, 45479, Note_on_c, 2, 59, 0
5, 45479, Note_on_c, 2, 62, 0
5, 45479, Note_on_c, 2, 67, 0
5, 45480, Note_on_c, 2, 59, 80
5, 45480, Note_on_c, 2, 62, 80
5, 45480, Note_on_c, 2, 67, 80
5, 45839, Note_on_c, 2, 59, 0
5, 45839, Note_on_c, 2, 62, 0
5, 45839, Note_on_c, 2, 67, 0
5, 45840, Note_on_c, 2, 59, 80
5, 45840, Note_on_c, 2, 62, 80
5, 45840, Note_on_c, 2, 67, 80
5, 46079, Note_on_c, 2, 59, 0
5, 46079, Note_on_c, 2, 62, 0
5, 46079, Note_on_c, 2, 67, 0
5, 46080, Note_on_c, 2, 57, 80
5, 46080, Note_on_c, 2, 60, 80
5, 46080, Note_on_c, 2, 64, 80
5, 46319, Note_on_c, 2, 57, 0
5, 46319, Note_on_c, 2, 60, 0
5, 46319, Note_on_c, 2, 64, 0
5, 46560, Note_on_c, 2, 57, 80
5, 46560, Note_on_c, 2, 60, 80
5, 46560, Note_on_c, 2, 64, 80
5, 46799, Note_on_c, 2, 57, 0
5, 46799, Note_on_c, 2, 60, 0
5, 46799, Note_on_c, 2, 64, 0
5, 47040, Note_on_c, 2, 57, 80
5, 47040, Control_c, 2, 2, 80
5, 47040, Note_on_c, 2, 60, 80
5, 47040, Note_on_c, 2, 64, 80
5, 47399, Note_on_c, 2, 57, 0
5, 47399, Note_on_c, 2, 60, 0
5, 47399, Note_on_c, 2, 64, 0
5, 47400, Note_on_c, 2, 60, 80
5, 47400, Control_c, 2, 2, 80
5, 47400, Note_on_c, 2, 64, 80
5, 47759, Note_on_c, 2, 60, 0
5, 47759, Note_on_c, 2, 64, 0
5, 47760, Note_on_c, 2, 60, 80
5, 47760, Control_c, 2, 2, 80
5, 47760, Note_on_c, 2, 65, 80
5, 47999, Note_on_c, 2, 60, 0
5, 47999, Note_on_c, 2, 65, 0
5, 48000, Note_on_c, 2, 55, 80
5, 48000, Control_c, 2, 2, 80
5, 48000, Note_on_c, 2, 60, 80
5, 48000, Note_on_c, 2, 64, 80
5, 48239, Note_on_c, 2, 55, 0
5, 48239, Note_on_c, 2, 60, 0
5, 48239, Note_on_c, 2, 64, 0
5, 48480, Note_on_c, 2, 55, 80
5, 48480, Note_on_c, 2, 60, 80
5, 48480, Note_on_c, 2, 64, 80
5, 48719, Note_on_c, 2, 55, 0
5, 48719, Note_on_c, 2, 60, 0
5, 48719, Note_on_c, 2, 64, 0
5, 48960, Note_on_c, 2, 55, 80
5, 48960, Control_c, 2, 2, 80
5, 48960, Note_on_c, 2, 60, 80
5, 48960, Note_on_c, 2, 64, 80
5, 49319, Note_on_c, 2, 55, 0
5, 49319, Note_on_c, 2, 60, 0
5, 49319, Note_on_c, 2, 64, 0
5, 49320, Note_on_c, 2, 60, 80
5, 49320, Control_c, 2, 2, 80
5, 49320, Note_on_c, 2, 64, 80
5, 49679, Note_on_c, 2, 60, 0
5, 49679, Note_on_c, 2, 64, 0
5, 49680, Note_on_c, 2, 60, 80
5, 49680, Control_c, 2, 2, 80
5, 49680, Note_on_c, 2, 65, 80
5, 49919, Note_on_c, 2, 60, 0
5, 49919, Note_on_c, 2, 65, 0
5, 49920, Note_on_c, 2, 55, 80
5, 49920, Control_c, 2, 2, 80
5, 49920, Note_on_c, 2, 59, 80
5, 49920, Note_on_c, 2, 64, 80
5, 50159, Note_on_c, 2, 55, 0
5, 50159, Note_on_c, 2, 59, 0
5, 50159, Note_on_c, 2, 64, 0
5, 50400, Note_on_c, 2, 55, 80
5, 50400, Note_on_c, 2, 59, 80
5, 50400, Note_on_c, 2, 64, 80
5, 50639, Note_on_c, 2, 55, 0
5, 50639, Note_on_c, 2, 59, 0
5, 50639, Note_on_c, 2, 64, 0
5, 50880, Note_on_c, 2, 55, 80
5, 50880, Control_c, 2, 2, 80
5, 50880, Note_on_c, 2, 59, 80
5, 50880, Note_on_c, 2, 64, 80
5, 51239, Note_on_c, 2, 55, 0
5, 51239, Note_on_c, 2, 59, 0
5, 51239, Note_on_c, 2, 64, 0
5, 51240, Note_on_c, 2, 59, 80
5, 51240, Control_c, 2, 2, 80
5, 51240, Note_on_c, 2, 64, 80
5, 51360, Control_c, 2, 2, 80
5, 51599, Note_on_c, 2, 59, 0
5, 51599, Note_on_c, 2, 64, 0
5, 51600, Note_on_c, 2, 59, 80
5, 51600, Control_c, 2, 2, 80
5, 51600, Note_on_c, 2, 65, 80
5, 51839, Note_on_c, 2, 59, 0
5, 51839, Note_on_c, 2, 65, 0
5, 51840, Note_on_c, 2, 59, 80
5, 51840, Control_c, 2, 2, 80
5, 51840, Note_on_c, 2, 62, 80
5, 51840, Note_on_c, 2, 67, 80
5, 52079, Note_on_c, 2, 59, 0
5, 52079, Note_on_c, 2, 62, 0
5, 52079, Note_on_c, 2, 67, 0
5, 52320, Note_on_c, 2, 59, 80
5, 52320, Control_c, 2, 2, 80
5, 52320, Note_on_c, 2, 62, 80
5, 52320, Note_on_c, 2, 67, 80
5, 52559, Note_on_c, 2, 59, 0
5, 52559, Note_on_c, 2, 62, 0
5, 52559, Note_on_c, 2, 67, 0
5, 52800, Note_on_c, 2, 59, 80
5, 52800, Control_c, 2, 2, 80
5, 52800, Note_on_c, 2, 62, 80
5, 52800, Note_on_c, 2, 67, 80
5, 53159, Note_on_c, 2, 59, 0
5, 53159, Note_on_c, 2, 62, 0
5, 53159, Note_on_c, 2, 67, 0
5, 53160, Note_on_c, 2, 62, 80
5, 53160, Note_on_c, 2, 67, 80
5, 53280, Control_c, 2, 2, 80
5, 53519, Note_on_c, 2, 62, 0
5, 53519, Note_on_c, 2, 67, 0
5, 53520, Note_on_c, 2, 62, 80
5, 53520, Control_c, 2, 2, 80
5, 53520, Note_on_c, 2, 67, 80
5, 53759, Note_on_c, 2, 62, 0
5, 53759, Note_on_c, 2, 67, 0
5, 53760, Note_on_c, 2, 57, 80
5, 53760, Control_c, 2, 2, 80
5, 53760, Note_on_c, 2, 60, 80
5, 53760, Note_on_c, 2, 64, 80
5, 53999, Note_on_c, 2, 57, 0
5, 53999, Note_on_c, 2, 60, 0
5, 53999, Note_on_c, 2, 64, 0
5, 54240, Note_on_c, 2, 57, 80
5, 54240, Note_on_c, 2, 60, 80
5, 54240, Note_on_c, 2, 64, 80
5, 54479, Note_on_c, 2, 57, 0
5, 54479, Note_on_c, 2, 60, 0
5, 54479, Note_on_c, 2, 64, 0
5, 54720, Note_on_c, 2, 57, 80
5, 54720, Control_c, 2, 2, 80
5, 54720, Note_on_c, 2, 60, 80
5, 54720, Note_on_c, 2, 64, 80
5, 55080, Note_on_c, 2, 60, 0
5, 55080, Note_on_c, 2, 60, 80
5, 55080, Control_c, 2, 2, 80
5, 55199, Note_on_c, 2, 57, 0
5, 55199, Note_on_c, 2, 64, 0
5, 55200, Note_on_c, 2, 64, 80
5, 55439, Note_on_c, 2, 60, 0
5, 55439, Note_on_c, 2, 64, 0
5, 55440, Note_on_c, 2, 60, 80
5, 55440, Control_c, 2, 2, 80
5, 55440, Note_on_c, 2, 65, 80
5, 55679, Note_on_c, 2, 60, 0
5, 55679, Note_on_c, 2, 65, 0
5, 55680, Note_on_c, 2, 55, 80
5, 55680, Control_c, 2, 2, 80
5, 55680, Note_on_c, 2, 60, 80
5, 55680, Note_on_c, 2, 64, 80
5, 55919, Note_on_c, 2, 55, 0
5, 55919, Note_on_c, 2, 60, 0
5, 55919, Note_on_c, 2, 64, 0
5, 56160, Note_on_c, 2, 55, 80
5, 56160, Note_on_c, 2, 60, 80
5, 56160, Note_on_c, 2, 64, 80
5, 56399, Note_on_c, 2, 55, 0
5, 56399, Note_on_c, 2, 60, 0
5, 56399, Note_on_c, 2, 64, 0
5, 56640, Note_on_c, 2, 55, 80
5, 56640, Control_c, 2, 2, 80
5, 56640, Note_on_c, 2, 60, 80
5, 56640, Note_on_c, 2, 64, 80
5, 56999, Note_on_c, 2, 55, 0
5, 56999, Note_on_c, 2, 60, 0
5, 56999, Note_on_c, 2, 64, 0
5, 57000, Note_on_c, 2, 60, 80
5, 57000, Control_c, 2, 2, 80
5, 57000, Note_on_c, 2, 64, 80
5, 57359, Note_on_c, 2, 60, 0
5, 57359, Note_on_c, 2, 64, 0
5, 57360, Note_on_c, 2, 60, 80
5, 57360, Control_c, 2, 2, 80
5, 57360, Note_on_c, 2, 65, 80
5, 57599, Note_on_c, 2, 60, 0
5, 57599, Note_on_c, 2, 65, 0
5, 57600, Note_on_c, 2, 55, 80
5, 57600, Control_c, 2, 2, 80
5, 57600, Note_on_c, 2, 59, 80
5, 57600, Note_on_c, 2, 64, 80
5, 57839, Note_on_c, 2, 55, 0
5, 57839, Note_on_c, 2, 59, 0
5, 57839, Note_on_c, 2, 64, 0
5, 58080, Note_on_c, 2, 55, 80
5, 58080, Note_on_c, 2, 59, 80
5, 58080, Note_on_c, 2, 64, 80
5, 58319, Note_on_c, 2, 55, 0
5, 58319, Note_on_c, 2, 59, 0
5, 58319, Note_on_c, 2, 64, 0
5, 58560, Note_on_c, 2, 55, 80
5, 58560, Control_c, 2, 2, 80
5, 58560, Note_on_c, 2, 59, 80
5, 58560, Note_on_c, 2, 64, 80
5, 58919, Note_on_c, 2, 55, 0
5, 58919, Note_on_c, 2, 59, 0
5, 58919, Note_on_c, 2, 64, 0
5, 58920, Note_on_c, 2, 59, 80
5, 58920, Control_c, 2, 2, 80
5, 58920, Note_on_c, 2, 64, 80
5, 59040, Control_c, 2, 2, 80
5, 59279, Note_on_c, 2, 59, 0
5, 59279, Note_on_c, 2, 64, 0
5, 59280, Note_on_c, 2, 59, 80
5, 59280, Control_c, 2, 2, 80
5, 59280, Note_on_c, 2, 65, 80
5, 59519, Note_on_c, 2, 59, 0
5, 59519, Note_on_c, 2, 65, 0
5, 59520, Note_on_c, 2, 59, 80
5, 59520, Control_c, 2, 2, 80
5, 59520, Note_on_c, 2, 62, 80
5, 59520, Note_on_c, 2, 67, 80
5, 59759, Note_on_c, 2, 59, 0
5, 59759, Note_on_c, 2, 62, 0
5, 59759, Note_on_c, 2, 67, 0
5, 60000, Note_on_c, 2, 59, 80
5, 60000, Note_on_c, 2, 62, 80
5, 60000, Note_on_c, 2, 67, 80
5, 60239, Note_on_c, 2, 59, 0
5, 60239, Note_on_c, 2, 62, 0
5, 60239, Note_on_c, 2, 67, 0
5, 60480, Note_on_c, 2, 59, 80
5, 60480, Note_on_c, 2, 62, 80
5, 60480, Note_on_c, 2, 67, 80
5, 60839, Note_on_c, 2, 59, 0
5, 60839, Note_on_c, 2, 62, 0
5, 60839, Note_on_c, 2, 67, 0
5, 60840, Note_on_c, 2, 62, 80
5, 60840, Control_c, 2, 2, 80
5, 60840, Note_on_c, 2, 67, 80
5, 60960, Control_c, 2, 2, 80
5, 61199, Note_on_c, 2, 62, 0
5, 61199, Note_on_c, 2, 67, 0
5, 61200, Note_on_c, 2, 62, 80
5, 61200, Control_c, 2, 2, 80
5, 61200, Note_on_c, 2, 67, 80
5, 61439, Note_on_c, 2, 62, 0
5, 61439, Note_on_c, 2, 67, 0
5, 61440, Note_on_c, 2, 57, 80
5, 61440, Control_c, 2, 2, 80
5, 61440, Note_on_c, 2, 60, 80
5, 61440, Note_on_c, 2, 64, 80
5, 61679, Note_on_c, 2, 57, 0
5, 61679, Note_on_c, 2, 60, 0
5, 61679, Note_on_c, 2, 64, 0
5, 61920, Note_on_c, 2, 57, 80
5, 61920, Note_on_c, 2, 60, 80
5, 61920, Note_on_c, 2, 64, 80
5, 62159, Note_on_c, 2, 57, 0
5, 62159, Note_on_c, 2, 60, 0
5, 62159, Note_on_c, 2, 64, 0
5, 62400, Note_on_c, 2, 57, 80
5, 62400, Control_c, 2, 2, 80
5, 62400, Note_on_c, 2, 60, 80
5, 62400, Note_on_c, 2, 64, 80
5, 62759, Note_on_c, 2, 57, 0
5, 62759, Note_on_c, 2, 60, 0
5, 62759, Note_on_c, 2, 64, 0
5, 62760, Note_on_c, 2, 60, 80
5, 62760, Control_c, 2, 2, 80
5, 62760, Note_on_c, 2, 64, 80
5, 62880, Control_c, 2, 2, 80
5, 63119, Note_on_c, 2, 60, 0
5, 63119, Note_on_c, 2, 64, 0
5, 63120, Note_on_c, 2, 60, 80
5, 63120, Control_c, 2, 2, 80
5, 63120, Note_on_c, 2, 65, 80
5, 63359, Note_on_c, 2, 60, 0
5, 63359, Note_on_c, 2, 65, 0
5, 63360, Note_on_c, 2, 55, 80
5, 63360, Control_c, 2, 2, 80
5, 63360, Note_on_c, 2, 60, 80
5, 63360, Note_on_c, 2, 64, 80
5, 63599, Note_on_c, 2, 55, 0
5, 63599, Note_on_c, 2, 60, 0
5, 63599, Note_on_c, 2, 64, 0
5, 63840, Note_on_c, 2, 55, 80
5, 63840, Control_c, 2, 2, 80
5, 63840, Note_on_c, 2, 60, 80
5, 63840, Note_on_c, 2, 64, 80
5, 64079, Note_on_c, 2, 55, 0
5, 64079, Note_on_c, 2, 60, 0
5, 64079, Note_on_c, 2, 64, 0
5, 64320, Note_on_c, 2, 55, 80
5, 64320, Control_c, 2, 2, 80
5, 64320, Note_on_c, 2, 60, 80
5, 64320, Note_on_c, 2, 64, 80
5, 64679, Note_on_c, 2, 55, 0
5, 64679, Note_on_c, 2, 60, 0
5, 64679, Note_on_c, 2, 64, 0
5, 64680, Note_on_c, 2, 60, 80
5, 64680, Note_on_c, 2, 64, 80
5, 64800, Control_c, 2, 2, 80
5, 65039, Note_on_c, 2, 60, 0
5, 65039, Note_on_c, 2, 64, 0
5, 65040, Note_on_c, 2, 60, 80
5, 65040, Control_c, 2, 2, 80
5, 65040, Note_on_c, 2, 65, 80
5, 65279, Note_on_c, 2, 60, 0
5, 65279, Note_on_c, 2, 65, 0
5, 65280, Note_on_c, 2, 55, 80
5, 65280, Control_c, 2, 2, 80
5, 65280, Note_on_c, 2, 59, 80
5, 65280, Note_on_c, 2, 64, 80
5, 65519, Note_on_c, 2, 55, 0
5, 65519, Note_on_c, 2, 59, 0
5, 65519, Note_on_c, 2, 64, 0
5, 65760, Note_on_c, 2, 55, 80
5, 65760, Control_c, 2, 2, 80
5, 65760, Note_on_c, 2, 59, 80
5, 65760, Note_on_c, 2, 64, 80
5, 65999, Note_on_c, 2, 55, 0
5, 65999, Note_on_c, 2, 59, 0
5, 65999, Note_on_c, 2, 64, 0
5, 66240, Note_on_c, 2, 55, 80
5, 66240, Control_c, 2, 2, 80
5, 66240, Note_on_c, 2, 59, 80
5, 66240, Note_on_c, 2, 64, 80
5, 66599, Note_on_c, 2, 55, 0
5, 66599, Note_on_c, 2, 59, 0
5, 66599, Note_on_c, 2, 64, 0
5, 66600, Note_on_c, 2, 59, 80
5, 66600, Note_on_c, 2, 64, 80
5, 66720, Control_c, 2, 2, 80
5, 66959, Note_on_c, 2, 59, 0
5, 66959, Note_on_c, 2, 64, 0
5, 66960, Note_on_c, 2, 59, 80
5, 66960, Control_c, 2, 2, 80
5, 66960, Note_on_c, 2, 65, 80
5, 67199, Note_on_c, 2, 59, 0
5, 67199, Note_on_c, 2, 65, 0
5, 67200, Note_on_c, 2, 59, 80
5, 67200, Control_c, 2, 2, 80
5, 67200, Note_on_c, 2, 62, 80
5, 67200, Note_on_c, 2, 67, 80
5, 67439, Note_on_c, 2, 59, 0
5, 67439, Note_on_c, 2, 62, 0
5, 67439, Note_on_c, 2, 67, 0
5, 67680, Note_on_c, 2, 59, 80
5, 67680, Note_on_c, 2, 62, 80
5, 67680, Note_on_c, 2, 67, 80
5, 67919, Note_on_c, 2, 59, 0
5, 67919, Note_on_c, 2, 62, 0
5, 67919, Note_on_c, 2, 67, 0
5, 68160, Note_on_c, 2, 59, 80
5, 68160, Note_on_c, 2, 62, 80
5, 68160, Note_on_c, 2, 67, 80
5, 68519, Note_on_c, 2, 59, 0
5, 68519, Note_on_c, 2, 62, 0
5, 68519, Note_on_c, 2, 67, 0
5, 68520, Note_on_c, 2, 62, 80
5, 68520, Control_c, 2, 2, 80
5, 68520, Note_on_c, 2, 67, 80
5, 68640, Control_c, 2, 2, 80
5, 68879, Note_on_c, 2, 62, 0
5, 68879, Note_on_c, 2, 67, 0
5, 68880, Note_on_c, 2, 62, 80
5, 68880, Control_c, 2, 2, 80
5, 68880, Note_on_c, 2, 67, 80
5, 69119, Note_on_c, 2, 62, 0
5, 69119, Note_on_c, 2, 67, 0
5, 69120, Note_on_c, 2, 57, 80
5, 69120, Control_c, 2, 2, 80
5, 69120, Note_on_c, 2, 60, 80
5, 69120, Note_on_c, 2, 64, 80
5, 69359, Note_on_c, 2, 57, 0
5, 69359, Note_on_c, 2, 60, 0
5, 69359, Note_on_c, 2, 64, 0
5, 69600, Note_on_c, 2, 57, 80
5, 69600, Note_on_c, 2, 60, 80
5, 69600, Note_on_c, 2, 64, 80
5, 69839, Note_on_c, 2, 57, 0
5, 69839, Note_on_c, 2, 60, 0
5, 69839, Note_on_c, 2, 64, 0
5, 70080, Note_on_c, 2, 57, 80
5, 70080, Control_c, 2, 2, 80
5, 70080, Note_on_c, 2, 60, 80
5, 70080, Note_on_c, 2, 64, 80
5, 70439, Note_on_c, 2, 57, 0
5, 70439, Note_on_c, 2, 60, 0
5, 70439, Note_on_c, 2, 64, 0
5, 70440, Note_on_c, 2, 60, 80
5, 70440, Control_c, 2, 2, 80
5, 70440, Note_on_c, 2, 64, 80
5, 70560, Control_c, 2, 2, 80
5, 70799, Note_on_c, 2, 60, 0
5, 70799, Note_on_c, 2, 64, 0
5, 70800, Note_on_c, 2, 60, 80
5, 70800, Control_c, 2, 2, 80
5, 70800, Note_on_c, 2, 65, 80
5, 71039, Note_on_c, 2, 60, 0
5, 71039, Note_on_c, 2, 65, 0
5, 71040, Note_on_c, 2, 55, 80
5, 71040, Control_c, 2, 2, 80
5, 71040, Note_on_c, 2, 60, 80
5, 71040, Note_on_c, 2, 64, 80
5, 71279, Note_on_c, 2, 55, 0
5, 71279, Note_on_c, 2, 60, 0
5, 71279, Note_on_c, 2, 64, 0
5, 71520, Note_on_c, 2, 55, 80
5, 71520, Control_c, 2, 2, 80
5, 71520, Note_on_c, 2, 60, 80
5, 71520, Note_on_c, 2, 64, 80
5, 71759, Note_on_c, 2, 55, 0
5, 71759, Note_on_c, 2, 60, 0
5, 71759, Note_on_c, 2, 64, 0
5, 72000, Note_on_c, 2, 55, 80
5, 72000, Control_c, 2, 2, 80
5, 72000, Note_on_c, 2, 60, 80
5, 72000, Note_on_c, 2, 64, 80
5, 72359, Note_on_c, 2, 55, 0
5, 72359, Note_on_c, 2, 60, 0
5, 72359, Note_on_c, 2, 64, 0
5, 72360, Note_on_c, 2, 60, 80
5, 72360, Note_on_c, 2, 64, 80
5, 72480, Control_c, 2, 2, 80
5, 72719, Note_on_c, 2, 60, 0
5, 72719, Note_on_c, 2, 64, 0
5, 72720, Note_on_c, 2, 60, 80
5, 72720, Control_c, 2, 2, 80
5, 72720, Note_on_c, 2, 65, 80
5, 72959, Note_on_c, 2, 60, 0
5, 72959, Note_on_c, 2, 65, 0
5, 72960, Note_on_c, 2, 55, 80
5, 72960, Control_c, 2, 2, 80
5, 72960, Note_on_c, 2, 59, 80
5, 72960, Note_on_c, 2, 64, 80
5, 73199, Note_on_c, 2, 55, 0
5, 73199, Note_on_c, 2, 59, 0
5, 73199, Note_on_c, 2, 64, 0
5, 73440, Note_on_c, 2, 55, 80
5, 73440, Control_c, 2, 2, 80
5, 73440, Note_on_c, 2, 59, 80
5, 73440, Note_on_c, 2, 64, 80
5, 73679, Note_on_c, 2, 55, 0
5, 73679, Note_on_c, 2, 59, 0
5, 73679, Note_on_c, 2, 64, 0
5, 73920, Note_on_c, 2, 55, 80
5, 73920, Control_c, 2, 2, 80
5, 73920, Note_on_c, 2, 59, 80
5, 73920, Note_on_c, 2, 64, 80
5, 74279, Note_on_c, 2, 55, 0
5, 74279, Note_on_c, 2, 59, 0
5, 74279, Note_on_c, 2, 64, 0
5, 74280, Note_on_c, 2, 59, 80
5, 74280, Note_on_c, 2, 64, 80
5, 74400, Control_c, 2, 2, 80
5, 74639, Note_on_c, 2, 59, 0
5, 74639, Note_on_c, 2, 64, 0
5, 74640, Note_on_c, 2, 59, 80
5, 74640, Control_c, 2, 2, 80
5, 74640, Note_on_c, 2, 65, 80
5, 74879, Note_on_c, 2, 59, 0
5, 74879, Note_on_c, 2, 65, 0
5, 74880, Note_on_c, 2, 59, 80
5, 74880, Control_c, 2, 2, 80
5, 74880, Note_on_c, 2, 62, 80
5, 74880, Note_on_c, 2, 67, 80
5, 75119, Note_on_c, 2, 59, 0
5, 75119, Note_on_c, 2, 62, 0
5, 75119, Note_on_c, 2, 67, 0
5, 75360, Note_on_c, 2, 59, 80
5, 75360, Note_on_c, 2, 62, 80
5, 75360, Note_on_c, 2, 67, 80
5, 75599, Note_on_c, 2, 59, 0
5, 75599, Note_on_c, 2, 62, 0
5, 75599, Note_on_c, 2, 67, 0
5, 75840, Note_on_c, 2, 59, 80
5, 75840, Note_on_c, 2, 62, 80
5, 75840, Note_on_c, 2, 67, 80
5, 76199, Note_on_c, 2, 59, 0
5, 76199, Note_on_c, 2, 62, 0
5, 76199, Note_on_c, 2, 67, 0
5, 76200, Note_on_c, 2, 62, 80
5, 76200, Note_on_c, 2, 67, 80
5, 76559, Note_on_c, 2, 62, 0
5, 76559, Note_on_c, 2, 67, 0
5, 76560, Note_on_c, 2, 62, 80
5, 76560, Note_on_c, 2, 67, 80
5, 76799, Note_on_c, 2, 62, 0
5, 76799, Note_on_c, 2, 67, 0
5, 76800, Note_on_c, 2, 57, 80
5, 76800, Control_c, 2, 2, 80
5, 76800, Note_on_c, 2, 60, 80
5, 76800, Note_on_c, 2, 64, 80
5, 77039, Note_on_c, 2, 57, 0
5, 77039, Note_on_c, 2, 60, 0
5, 77039, Note_on_c, 2, 64, 0
5, 77280, Note_on_c, 2, 57, 80
5, 77280, Control_c, 2, 2, 80
5, 77280, Note_on_c, 2, 60, 80
5, 77280, Note_on_c, 2, 64, 80
5, 77519, Note_on_c, 2, 57, 0
5, 77519, Note_on_c, 2, 60, 0
5, 77519, Note_on_c, 2, 64, 0
5, 77760, Note_on_c, 2, 57, 80
5, 77760, Control_c, 2, 2, 80
5, 77760, Note_on_c, 2, 60, 80
5, 77760, Note_on_c, 2, 64, 80
5, 78119, Note_on_c, 2, 57, 0
5, 78119, Note_on_c, 2, 60, 0
5, 78119, Note_on_c, 2, 64, 0
5, 78120, Note_on_c, 2, 60, 80
5, 78120, Control_c, 2, 2, 80
5, 78120, Note_on_c, 2, 64, 80
5, 78240, Control_c, 2, 2, 80
5, 78479, Note_on_c, 2, 60, 0
5, 78479, Note_on_c, 2, 64, 0
5, 78480, Note_on_c, 2, 60, 80
5, 78480, Control_c, 2, 2, 80
5, 78480, Note_on_c, 2, 65, 80
5, 78719, Note_on_c, 2, 60, 0
5, 78719, Note_on_c, 2, 65, 0
5, 78720, Note_on_c, 2, 55, 80
5, 78720, Control_c, 2, 2, 80
5, 78720, Note_on_c, 2, 60, 80
5, 78720, Note_on_c, 2, 64, 80
5, 78959, Note_on_c, 2, 55, 0
5, 78959, Note_on_c, 2, 60, 0
5, 78959, Note_on_c, 2, 64, 0
5, 79200, Note_on_c, 2, 55, 80
5, 79200, Control_c, 2, 2, 80
5, 79200, Note_on_c, 2, 60, 80
5, 79200, Note_on_c, 2, 64, 80
5, 79439, Note_on_c, 2, 55, 0
5, 79439, Note_on_c, 2, 60, 0
5, 79439, Note_on_c, 2, 64, 0
5, 79680, Note_on_c, 2, 55, 80
5, 79680, Control_c, 2, 2, 80
5, 79680, Note_on_c, 2, 60, 80
5, 79680, Note_on_c, 2, 64, 80
5, 80039, Note_on_c, 2, 55, 0
5, 80039, Note_on_c, 2, 60, 0
5, 80039, Note_on_c, 2, 64, 0
5, 80040, Note_on_c, 2, 60, 80
5, 80040, Control_c, 2, 2, 80
5, 80040, Note_on_c, 2, 64, 80
5, 80399, Note_on_c, 2, 60, 0
5, 80399, Note_on_c, 2, 64, 0
5, 80400, Note_on_c, 2, 60, 80
5, 80400, Control_c, 2, 2, 80
5, 80400, Note_on_c, 2, 65, 80
5, 80639, Note_on_c, 2, 60, 0
5, 80639, Note_on_c, 2, 65, 0
5, 80640, Note_on_c, 2, 55, 80
5, 80640, Control_c, 2, 2, 80
5, 80640, Note_on_c, 2, 59, 80
5, 80640, Note_on_c, 2, 64, 80
5, 80879, Note_on_c, 2, 55, 0
5, 80879, Note_on_c, 2, 59, 0
5, 80879, Note_on_c, 2, 64, 0
5, 81120, Note_on_c, 2, 55, 80
5, 81120, Control_c, 2, 2, 80
5, 81120, Note_on_c, 2, 59, 80
5, 81120, Note_on_c, 2, 64, 80
5, 81359, Note_on_c, 2, 55, 0
5, 81359, Note_on_c, 2, 59, 0
5, 81359, Note_on_c, 2, 64, 0
5, 81600, Note_on_c, 2, 55, 80
5, 81600, Control_c, 2, 2, 80
5, 81600, Note_on_c, 2, 59, 80
5, 81600, Note_on_c, 2, 64, 80
5, 81959, Note_on_c, 2, 55, 0
5, 81959, Note_on_c, 2, 59, 0
5, 81959, Note_on_c, 2, 64, 0
5, 81960, Note_on_c, 2, 59, 80
5, 81960, Control_c, 2, 2, 80
5, 81960, Note_on_c, 2, 64, 80
5, 82319, Note_on_c, 2, 59, 0
5, 82319, Note_on_c, 2, 64, 0
5, 82320, Note_on_c, 2, 59, 80
5, 82320, Note_on_c, 2, 65, 80
5, 82559, Note_on_c, 2, 59, 0
5, 82559, Note_on_c, 2, 65, 0
5, 82560, Note_on_c, 2, 59, 80
5, 82560, Control_c, 2, 2, 80
5, 82560, Note_on_c, 2, 62, 80
5, 82560, Note_on_c, 2, 67, 80
5, 82799, Note_on_c, 2, 59, 0
5, 82799, Note_on_c, 2, 62, 0
5, 82799, Note_on_c, 2, 67, 0
5, 83040, Note_on_c, 2, 59, 80
5, 83040, Note_on_c, 2, 62, 80
5, 83040, Note_on_c, 2, 67, 80
5, 83279, Note_on_c, 2, 59, 0
5, 83279, Note_on_c, 2, 62, 0
5, 83279, Note_on_c, 2, 67, 0
5, 83520, Note_on_c, 2, 59, 80
5, 83520, Control_c, 2, 2, 80
5, 83520, Note_on_c, 2, 62, 80
5, 83520, Note_on_c, 2, 67, 80
5, 83879, Note_on_c, 2, 59, 0
5, 83879, Note_on_c, 2, 62, 0
5, 83879, Note_on_c, 2, 67, 0
5, 83880, Note_on_c, 2, 62, 80
5, 83880, Note_on_c, 2, 67, 80
5, 84239, Note_on_c, 2, 62, 0
5, 84239, Note_on_c, 2, 67, 0
5, 84240, Note_on_c, 2, 62, 80
5, 84240, Note_on_c, 2, 67, 80
5, 84479, Note_on_c, 2, 62, 0
5, 84479, Note_on_c, 2, 67, 0
5, 84480, Note_on_c, 2, 57, 80
5, 84480, Note_on_c, 2, 60, 80
5, 84480, Note_on_c, 2, 64, 80
5, 84719, Note_on_c, 2, 57, 0
5, 84719, Note_on_c, 2, 60, 0
5, 84719, Note_on_c, 2, 64, 0
5, 84960, Note_on_c, 2, 57, 80
5, 84960, Note_on_c, 2, 60, 80
5, 84960, Note_on_c, 2, 64, 80
5, 85199, Note_on_c, 2, 57, 0
5, 85199, Note_on_c, 2, 60, 0
5, 85199, Note_on_c, 2, 64, 0
5, 85440, Note_on_c, 2, 57, 80
5, 85440, Control_c, 2, 2, 80
5, 85440, Note_on_c, 2, 60, 80
5, 85440, Note_on_c, 2, 64, 80
5, 85799, Note_on_c, 2, 57, 0
5, 85799, Note_on_c, 2, 60, 0
5, 85799, Note_on_c, 2, 64, 0
5, 85800, Note_on_c, 2, 60, 80
5, 85800, Control_c, 2, 2, 80
5, 85800, Note_on_c, 2, 64, 80
5, 85920, Control_c, 2, 2, 80
5, 86159, Note_on_c, 2, 60, 0
5, 86159, Note_on_c, 2, 64, 0
5, 86160, Note_on_c, 2, 60, 80
5, 86160, Control_c, 2, 2, 80
5, 86160, Note_on_c, 2, 65, 80
5, 86399, Note_on_c, 2, 60, 0
5, 86399, Note_on_c, 2, 65, 0
5, 86400, Note_on_c, 2, 55, 80
5, 86400, Control_c, 2, 2, 80
5, 86400, Note_on_c, 2, 60, 80
5, 86400, Note_on_c, 2, 64, 80
5, 86639, Note_on_c, 2, 55, 0
5, 86639, Note_on_c, 2, 60, 0
5, 86639, Note_on_c, 2, 64, 0
5, 86880, Note_on_c, 2, 55, 80
5, 86880, Control_c, 2, 2, 80
5, 86880, Note_on_c, 2, 60, 80
5, 86880, Note_on_c, 2, 64, 80
5, 87119, Note_on_c, 2, 55, 0
5, 87119, Note_on_c, 2, 60, 0
5, 87119, Note_on_c, 2, 64, 0
5, 87360, Note_on_c, 2, 55, 80
5, 87360, Control_c, 2, 2, 80
5, 87360, Note_on_c, 2, 60, 80
5, 87360, Note_on_c, 2, 64, 80
5, 87719, Note_on_c, 2, 55, 0
5, 87719, Note_on_c, 2, 60, 0
5, 87719, Note_on_c, 2, 64, 0
5, 87720, Note_on_c, 2, 60, 80
5, 87720, Control_c, 2, 2, 80
5, 87720, Note_on_c, 2, 64, 80
5, 88079, Note_on_c, 2, 60, 0
5, 88079, Note_on_c, 2, 64, 0
5, 88080, Note_on_c, 2, 60, 80
5, 88080, Control_c, 2, 2, 80
5, 88080, Note_on_c, 2, 65, 80
5, 88319, Note_on_c, 2, 60, 0
5, 88319, Note_on_c, 2, 65, 0
5, 88320, Note_on_c, 2, 55, 80
5, 88320, Control_c, 2, 2, 80
5, 88320, Note_on_c, 2, 59, 80
5, 88320, Note_on_c, 2, 64, 80
5, 88559, Note_on_c, 2, 55, 0
5, 88559, Note_on_c, 2, 59, 0
5, 88559, Note_on_c, 2, 64, 0
5, 88800, Note_on_c, 2, 55, 80
5, 88800, Control_c, 2, 2, 80
5, 88800, Note_on_c, 2, 59, 80
5, 88800, Note_on_c, 2, 64, 80
5, 89039, Note_on_c, 2, 55, 0
5, 89039, Note_on_c, 2, 59, 0
5, 89039, Note_on_c, 2, 64, 0
5, 89280, Note_on_c, 2, 55, 80
5, 89280, Control_c, 2, 2, 80
5, 89280, Note_on_c, 2, 59, 80
5, 89280, Note_on_c, 2, 64, 80
5, 89639, Note_on_c, 2, 55, 0
5, 89639, Note_on_c, 2, 59, 0
5, 89639, Note_on_c, 2, 64, 0
5, 89640, Note_on_c, 2, 59, 80
5, 89640, Control_c, 2, 2, 80
5, 89640, Note_on_c, 2, 64, 80
5, 89999, Note_on_c, 2, 59, 0
5, 89999, Note_on_c, 2, 64, 0
5, 90000, Note_on_c, 2, 59, 80
5, 90000, Note_on_c, 2, 65, 80
5, 90239, Note_on_c, 2, 59, 0
5, 90239, Note_on_c, 2, 65, 0
5, 90240, Note_on_c, 2, 59, 80
5, 90240, Control_c, 2, 2, 80
5, 90240, Note_on_c, 2, 62, 80
5, 90240, Note_on_c, 2, 67, 80
5, 90479, Note_on_c, 2, 59, 0
5, 90479, Note_on_c, 2, 62, 0
5, 90479, Note_on_c, 2, 67, 0
5, 90720, Note_on_c, 2, 59, 80
5, 90720, Note_on_c, 2, 62, 80
5, 90720, Note_on_c, 2, 67, 80
5, 90959, Note_on_c, 2, 59, 0
5, 90959, Note_on_c, 2, 62, 0
5, 90959, Note_on_c, 2, 67, 0
5, 91200, Note_on_c, 2, 59, 80
5, 91200, Note_on_c, 2, 62, 80
5, 91200, Note_on_c, 2, 67, 80
5, 91559, Note_on_c, 2, 59, 0
5, 91559, Note_on_c, 2, 62, 0
5, 91559, Note_on_c, 2, 67, 0
5, 91560, Note_on_c, 2, 62, 80
5, 91560, Note_on_c, 2, 67, 80
5, 91919, Note_on_c, 2, 62, 0
5, 91919, Note_on_c, 2, 67, 0
5, 91920, Note_on_c, 2, 62, 80
5, 91920, Note_on_c, 2, 67, 80
5, 92159, Note_on_c, 2, 62, 0
5, 92159, Note_on_c, 2, 67, 0
5, 92160, Note_on_c, 2, 60, 80
5, 92160, Control_c, 2, 2, 80
5, 92160, Note_on_c, 2, 64, 80
5, 92399, Note_on_c, 2, 60, 0
5, 92399, Note_on_c, 2, 64, 0
5, 92640, Note_on_c, 2, 60, 80
5, 92640, Control_c, 2, 2, 80
5, 92640, Note_on_c, 2, 64, 80
5, 92879, Note_on_c, 2, 60, 0
5, 92879, Note_on_c, 2, 64, 0
5, 93120, Note_on_c, 2, 60, 80
5, 93120, Control_c, 2, 2, 80
5, 93120, Note_on_c, 2, 64, 80
5, 93479, Note_on_c, 2, 60, 0
5, 93479, Note_on_c, 2, 64, 0
5, 93480, Note_on_c, 2, 60, 80
5, 93480, Control_c, 2, 2, 80
5, 93480, Note_on_c, 2, 64, 80
5, 93600, Control_c, 2, 2, 80
5, 93839, Note_on_c, 2, 60, 0
5, 93839, Note_on_c, 2, 64, 0
5, 93840, Note_on_c, 2, 60, 80
5, 93840, Control_c, 2, 2, 80
5, 93840, Note_on_c, 2, 65, 80
5, 94079, Note_on_c, 2, 60, 0
5, 94079, Note_on_c, 2, 65, 0
5, 94080, Note_on_c, 2, 60, 80
5, 94080, Control_c, 2, 2, 80
5, 94080, Note_on_c, 2, 64, 80
5, 94319, Note_on_c, 2, 60, 0
5, 94319, Note_on_c, 2, 64, 0
5, 94560, Note_on_c, 2, 60, 80
5, 94560, Control_c, 2, 2, 80
5, 94560, Note_on_c, 2, 64, 80
5, 94799, Note_on_c, 2, 60, 0
5, 94799, Note_on_c, 2, 64, 0
5, 95040, Note_on_c, 2, 60, 80
5, 95040, Control_c, 2, 2, 80
5, 95040, Note_on_c, 2, 64, 80
5, 95399, Note_on_c, 2, 60, 0
5, 95399, Note_on_c, 2, 64, 0
5, 95400, Note_on_c, 2, 60, 80
5, 95400, Control_c, 2, 2, 80
5, 95400, Note_on_c, 2, 64, 80
5, 95520, Control_c, 2, 2, 80
5, 95759, Note_on_c, 2, 60, 0
5, 95759, Note_on_c, 2, 64, 0
5, 95760, Note_on_c, 2, 60, 80
5, 95760, Control_c, 2, 2, 80
5, 95760, Note_on_c, 2, 65, 80
5, 95999, Note_on_c, 2, 60, 0
5, 95999, Note_on_c, 2, 65, 0
5, 96000, Note_on_c, 2, 59, 80
5, 96000, Control_c, 2, 2, 80
5, 96000, Note_on_c, 2, 64, 80
5, 96239, Note_on_c, 2, 59, 0
5, 96239, Note_on_c, 2, 64, 0
5, 96480, Note_on_c, 2, 59, 80
5, 96480, Control_c, 2, 2, 80
5, 96480, Note_on_c, 2, 64, 80
5, 96719, Note_on_c, 2, 59, 0
5, 96719, Note_on_c, 2, 64, 0
5, 96960, Note_on_c, 2, 59, 80
5, 96960, Control_c, 2, 2, 80
5, 96960, Note_on_c, 2, 64, 80
5, 97319, Note_on_c, 2, 59, 0
5, 97319, Note_on_c, 2, 64, 0
5, 97320, Note_on_c, 2, 59, 80
5, 97320, Control_c, 2, 2, 80
5, 97320, Note_on_c, 2, 64, 80
5, 97440, Control_c, 2, 2, 80
5, 97679, Note_on_c, 2, 59, 0
5, 97679, Note_on_c, 2, 64, 0
5, 97680, Note_on_c, 2, 59, 80
5, 97680, Control_c, 2, 2, 80
5, 97680, Note_on_c, 2, 65, 80
5, 97919, Note_on_c, 2, 59, 0
5, 97919, Note_on_c, 2, 65, 0
5, 97920, Note_on_c, 2, 62, 80
5, 97920, Control_c, 2, 2, 80
5, 97920, Note_on_c, 2, 67, 80
5, 98159, Note_on_c, 2, 62, 0
5, 98159, Note_on_c, 2, 67, 0
5, 98400, Note_on_c, 2, 62, 80
5, 98400, Control_c, 2, 2, 80
5, 98400, Note_on_c, 2, 67, 80
5, 98639, Note_on_c, 2, 62, 0
5, 98639, Note_on_c, 2, 67, 0
5, 98880, Note_on_c, 2, 62, 80
5, 98880, Control_c, 2, 2, 80
5, 98880, Note_on_c, 2, 67, 80
5, 99239, Note_on_c, 2, 62, 0
5, 99239, Note_on_c, 2, 67, 0
5, 99240, Note_on_c, 2, 62, 80
5, 99240, Control_c, 2, 2, 80
5, 99240, Note_on_c, 2, 67, 80
5, 99360, Control_c, 2, 2, 80
5, 99599, Note_on_c, 2, 62, 0
5, 99599, Note_on_c, 2, 67, 0
5, 99600, Note_on_c, 2, 62, 80
5, 99600, Control_c, 2, 2, 80
5, 99600, Note_on_c, 2, 67, 80
5, 99839, Note_on_c, 2, 62, 0
5, 99839, Note_on_c, 2, 67, 0
5, 99840, Note_on_c, 2, 60, 80
5, 99840, Control_c, 2, 2, 80
5, 99840, Note_on_c, 2, 64, 80
5, 100079, Note_on_c, 2, 60, 0
5, 100079, Note_on_c, 2, 64, 0
5, 100320, Note_on_c, 2, 60, 80
5, 100320, Control_c, 2, 2, 80
5, 100320, Note_on_c, 2, 64, 80
5, 100559, Note_on_c, 2, 60, 0
5, 100559, Note_on_c, 2, 64, 0
5, 100800, Note_on_c, 2, 60, 80
5, 100800, Control_c, 2, 2, 80
5, 100800, Note_on_c, 2, 64, 80
5, 101159, Note_on_c, 2, 60, 0
5, 101159, Note_on_c, 2, 64, 0
5, 101160, Note_on_c, 2, 60, 80
5, 101160, Control_c, 2, 2, 80
5, 101160, Note_on_c, 2, 64, 80
5, 101280, Control_c, 2, 2, 80
5, 101519, Note_on_c, 2, 60, 0
5, 101519, Note_on_c, 2, 64, 0
5, 101520, Note_on_c, 2, 60, 80
5, 101520, Control_c, 2, 2, 80
5, 101520, Note_on_c, 2, 65, 80
5, 101759, Note_on_c, 2, 60, 0
5, 101759, Note_on_c, 2, 65, 0
5, 101760, Note_on_c, 2, 60, 80
5, 101760, Control_c, 2, 2, 80
5, 101760, Note_on_c, 2, 64, 80
5, 101999, Note_on_c, 2, 60, 0
5, 101999, Note_on_c, 2, 64, 0
5, 102240, Note_on_c, 2, 60, 80
5, 102240, Control_c, 2, 2, 80
5, 102240, Note_on_c, 2, 64, 80
5, 102479, Note_on_c, 2, 60, 0
5, 102479, Note_on_c, 2, 64, 0
5, 102720, Note_on_c, 2, 60, 80
5, 102720, Control_c, 2, 2, 80
5, 102720, Note_on_c, 2, 64, 80
5, 103079, Note_on_c, 2, 60, 0
5, 103079, Note_on_c, 2, 64, 0
5, 103080, Note_on_c, 2, 60, 80
5, 103080, Control_c, 2, 2, 80
5, 103080, Note_on_c, 2, 64, 80
5, 103200, Control_c, 2, 2, 80
5, 103439, Note_on_c, 2, 60, 0
5, 103439, Note_on_c, 2, 64, 0
5, 103440, Note_on_c, 2, 60, 80
5, 103440, Control_c, 2, 2, 80
5, 103440, Note_on_c, 2, 65, 80
5, 103679, Note_on_c, 2, 60, 0
5, 103679, Note_on_c, 2, 65, 0
5, 103680, Note_on_c, 2, 59, 80
5, 103680, Control_c, 2, 2, 80
5, 103680, Note_on_c, 2, 64, 80
5, 103919, Note_on_c, 2, 59, 0
5, 103919, Note_on_c, 2, 64, 0
5, 104160, Note_on_c, 2, 59, 80
5, 104160, Control_c, 2, 2, 80
5, 104160, Note_on_c, 2, 64, 80
5, 104399, Note_on_c, 2, 59, 0
5, 104399, Note_on_c, 2, 64, 0
5, 104640, Note_on_c, 2, 59, 80
5, 104640, Control_c, 2, 2, 80
5, 104640, Note_on_c, 2, 64, 80
5, 104999, Note_on_c, 2, 59, 0
5, 104999, Note_on_c, 2, 64, 0
5, 105000, Note_on_c, 2, 59, 80
5, 105000, Control_c, 2, 2, 80
5, 105000, Note_on_c, 2, 64, 80
5, 105120, Control_c, 2, 2, 80
5, 105359, Note_on_c, 2, 59, 0
5, 105359, Note_on_c, 2, 64, 0
5, 105360, Note_on_c, 2, 59, 80
5, 105360, Control_c, 2, 2, 80
5, 105360, Note_on_c, 2, 65, 80
5, 105599, Note_on_c, 2, 59, 0
5, 105599, Note_on_c, 2, 65, 0
5, 105600, Note_on_c, 2, 62, 80
5, 105600, Control_c, 2, 2, 80
5, 105600, Note_on_c, 2, 67, 80
5, 105839, Note_on_c, 2, 62, 0
5, 105839, Note_on_c, 2, 67, 0
5, 106080, Note_on_c, 2, 62, 80
5, 106080, Control_c, 2, 2, 80
5, 106080, Note_on_c, 2, 67, 80
5, 106319, Note_on_c, 2, 62, 0
5, 106319, Note_on_c, 2, 67, 0
5, 106560, Note_on_c, 2, 62, 80
5, 106560, Control_c, 2, 2, 80
5, 106560, Note_on_c, 2, 67, 80
5, 106919, Note_on_c, 2, 62, 0
5, 106919, Note_on_c, 2, 67, 0
5, 106920, Note_on_c, 2, 62, 80
5, 106920, Control_c, 2, 2, 80
5, 106920, Note_on_c, 2, 67, 80
5, 107040, Control_c, 2, 2, 80
5, 107279, Note_on_c, 2, 62, 0
5, 107279, Note_on_c, 2, 67, 0
5, 107280, Note_on_c, 2, 62, 80
5, 107280, Control_c, 2, 2, 80
5, 107280, Note_on_c, 2, 67, 80
5, 107519, Note_on_c, 2, 62, 0
5, 107519, Note_on_c, 2, 67, 0
5, 107520, Note_on_c, 2, 57, 80
5, 107520, Note_on_c, 2, 60, 80
5, 107520, Note_on_c, 2, 64, 80
5, 107759, Note_on_c, 2, 57, 0
5, 107759, Note_on_c, 2, 60, 0
5, 107759, Note_on_c, 2, 64, 0
5, 108000, Note_on_c, 2, 57, 80
5, 108000, Note_on_c, 2, 60, 80
5, 108000, Note_on_c, 2, 64, 80
5, 108239, Note_on_c, 2, 57, 0
5, 108239, Note_on_c, 2, 60, 0
5, 108239, Note_on_c, 2, 64, 0
5, 108480, Note_on_c, 2, 57, 80
5, 108480, Note_on_c, 2, 60, 80
5, 108480, Note_on_c, 2, 64, 80
5, 108839, Note_on_c, 2, 57, 0
5, 108839, Note_on_c, 2, 60, 0
5, 108839, Note_on_c, 2, 64, 0
5, 108840, Note_on_c, 2, 57, 80
5, 108840, Note_on_c, 2, 60, 80
5, 108840, Note_on_c, 2, 64, 80
5, 109199, Note_on_c, 2, 57, 0
5, 109199, Note_on_c, 2, 60, 0
5, 109199, Note_on_c, 2, 64, 0
5, 109200, Note_on_c, 2, 57, 80
5, 109200, Note_on_c, 2, 60, 80
5, 109200, Note_on_c, 2, 65, 80
5, 109439, Note_on_c, 2, 57, 0
5, 109439, Note_on_c, 2, 60, 0
5, 109439, Note_on_c, 2, 65, 0
5, 109440, Note_on_c, 2, 55, 80
5, 109440, Note_on_c, 2, 60, 80
5, 109440, Note_on_c, 2, 64, 80
5, 109679, Note_on_c, 2, 55, 0
5, 109679, Note_on_c, 2, 60, 0
5, 109679, Note_on_c, 2, 64, 0
5, 109920, Note_on_c, 2, 55, 80
5, 109920, Note_on_c, 2, 60, 80
5, 109920, Note_on_c, 2, 64, 80
5, 110159, Note_on_c, 2, 55, 0
5, 110159, Note_on_c, 2, 60, 0
5, 110159, Note_on_c, 2, 64, 0
5, 110400, Note_on_c, 2, 55, 80
5, 110400, Note_on_c, 2, 60, 80
5, 110400, Note_on_c, 2, 64, 80
5, 110759, Note_on_c, 2, 55, 0
5, 110759, Note_on_c, 2, 60, 0
5, 110759, Note_on_c, 2, 64, 0
5, 110760, Note_on_c, 2, 55, 80
5, 110760, Note_on_c, 2, 60, 80
5, 110760, Note_on_c, 2, 64, 80
5, 111119, Note_on_c, 2, 55, 0
5, 111119, Note_on_c, 2, 60, 0
5, 111119, Note_on_c, 2, 64, 0
5, 111120, Note_on_c, 2, 57, 80
5, 111120, Note_on_c, 2, 60, 80
5, 111120, Note_on_c, 2, 65, 80
5, 111359, Note_on_c, 2, 57, 0
5, 111359, Note_on_c, 2, 60, 0
5, 111359, Note_on_c, 2, 65, 0
5, 111360, Note_on_c, 2, 55, 80
5, 111360, Note_on_c, 2, 59, 80
5, 111360, Note_on_c, 2, 64, 80
5, 111599, Note_on_c, 2, 55, 0
5, 111599, Note_on_c, 2, 59, 0
5, 111599, Note_on_c, 2, 64, 0
5, 111840, Note_on_c, 2, 55, 80
5, 111840, Note_on_c, 2, 59, 80
5, 111840, Note_on_c, 2, 64, 80
5, 112079, Note_on_c, 2, 55, 0
5, 112079, Note_on_c, 2, 59, 0
5, 112079, Note_on_c, 2, 64, 0
5, 112320, Note_on_c, 2, 55, 80
5, 112320, Note_on_c, 2, 59, 80
5, 112320, Note_on_c, 2, 64, 80
5, 112679, Note_on_c, 2, 55, 0
5, 112679, Note_on_c, 2, 59, 0
5, 112679, Note_on_c, 2, 64, 0
5, 112680, Note_on_c, 2, 55, 80
5, 112680, Note_on_c, 2, 59, 80
5, 112680, Note_on_c, 2, 64, 80
5, 113039, Note_on_c, 2, 55, 0
5, 113039, Note_on_c, 2, 59, 0
5, 113039, Note_on_c, 2, 64, 0
5, 113040, Note_on_c, 2, 55, 80
5, 113040, Note_on_c, 2, 59, 80
5, 113040, Note_on_c, 2, 65, 80
5, 113279, Note_on_c, 2, 55, 0
5, 113279, Note_on_c, 2, 59, 0
5, 113279, Note_on_c, 2, 65, 0
5, 113280, Note_on_c, 2, 59, 80
5, 113280, Note_on_c, 2, 62, 80
5, 113280, Note_on_c, 2, 67, 80
5, 113519, Note_on_c, 2, 59, 0
5, 113519, Note_on_c, 2, 62, 0
5, 113519, Note_on_c, 2, 67, 0
5, 113760, Note_on_c, 2, 59, 80
5, 113760, Note_on_c, 2, 62, 80
5, 113760, Note_on_c, 2, 67, 80
5, 113999, Note_on_c, 2, 59, 0
5, 113999, Note_on_c, 2, 62, 0
5, 113999, Note_on_c, 2, 67, 0
5, 114240, Note_on_c, 2, 59, 80
5, 114240, Note_on_c, 2, 62, 80
5, 114240, Note_on_c, 2, 67, 80
5, 114599, Note_on_c, 2, 59, 0
5, 114599, Note_on_c, 2, 62, 0
5, 114599, Note_on_c, 2, 67, 0
5, 114600, Note_on_c, 2, 59, 80
5, 114600, Note_on_c, 2, 62, 80
5, 114600, Note_on_c, 2, 67, 80
5, 114959, Note_on_c, 2, 59, 0
5, 114959, Note_on_c, 2, 62, 0
5, 114959, Note_on_c, 2, 67, 0
5, 114960, Note_on_c, 2, 59, 80
5, 114960, Note_on_c, 2, 62, 80
5, 114960, Note_on_c, 2, 67, 80
5, 115199, Note_on_c, 2, 59, 0
5, 115199, Note_on_c, 2, 62, 0
5, 115199, Note_on_c, 2, 67, 0
5, 115200, Note_on_c, 2, 57, 80
5, 115200, Note_on_c, 2, 60, 80
5, 115200, Note_on_c, 2, 64, 80
5, 115439, Note_on_c, 2, 57, 0
5, 115439, Note_on_c, 2, 60, 0
5, 115439, Note_on_c, 2, 64, 0
5, 115680, Note_on_c, 2, 57, 80
5, 115680, Note_on_c, 2, 60, 80
5, 115680, Note_on_c, 2, 64, 80
5, 115919, Note_on_c, 2, 57, 0
5, 115919, Note_on_c, 2, 60, 0
5, 115919, Note_on_c, 2, 64, 0
5, 116160, Note_on_c, 2, 57, 80
5, 116160, Note_on_c, 2, 60, 80
5, 116160, Note_on_c, 2, 64, 80
5, 116519, Note_on_c, 2, 57, 0
5, 116519, Note_on_c, 2, 60, 0
5, 116519, Note_on_c, 2, 64, 0
5, 116520, Note_on_c, 2, 57, 80
5, 116520, Note_on_c, 2, 60, 80
5, 116520, Note_on_c, 2, 64, 80
5, 116879, Note_on_c, 2, 57, 0
5, 116879, Note_on_c, 2, 60, 0
5, 116879, Note_on_c, 2, 64, 0
5, 116880, Note_on_c, 2, 57, 80
5, 116880, Note_on_c, 2, 60, 80
5, 116880, Note_on_c, 2, 65, 80
5, 117119, Note_on_c, 2, 57, 0
5, 117119, Note_on_c, 2, 60, 0
5, 117119, Note_on_c, 2, 65, 0
5, 117120, Note_on_c, 2, 55, 80
5, 117120, Note_on_c, 2, 60, 80
5, 117120, Note_on_c, 2, 64, 80
5, 117359, Note_on_c, 2, 55, 0
5, 117359, Note_on_c, 2, 60, 0
5, 117359, Note_on_c, 2, 64, 0
5, 117600, Note_on_c, 2, 55, 80
5, 117600, Note_on_c, 2, 60, 80
5, 117600, Note_on_c, 2, 64, 80
5, 117839, Note_on_c, 2, 55, 0
5, 117839, Note_on_c, 2, 60, 0
5, 117839, Note_on_c, 2, 64, 0
5, 118080, Note_on_c, 2, 55, 80
5, 118080, Note_on_c, 2, 60, 80
5, 118080, Note_on_c, 2, 64, 80
5, 118439, Note_on_c, 2, 55, 0
5, 118439, Note_on_c, 2, 60, 0
5, 118439, Note_on_c, 2, 64, 0
5, 118440, Note_on_c, 2, 55, 80
5, 118440, Note_on_c, 2, 60, 80
5, 118440, Note_on_c, 2, 64, 80
5, 118799, Note_on_c, 2, 55, 0
5, 118799, Note_on_c, 2, 60, 0
5, 118799, Note_on_c, 2, 64, 0
5, 118800, Note_on_c, 2, 57, 80
5, 118800, Note_on_c, 2, 60, 80
5, 118800, Note_on_c, 2, 65, 80
5, 119039, Note_on_c, 2, 57, 0
5, 119039, Note_on_c, 2, 60, 0
5, 119039, Note_on_c, 2, 65, 0
5, 119040, Note_on_c, 2, 55, 80
5, 119040, Note_on_c, 2, 59, 80
5, 119040, Note_on_c, 2, 64, 80
5, 119279, Note_on_c, 2, 55, 0
5, 119279, Note_on_c, 2, 59, 0
5, 119279, Note_on_c, 2, 64, 0
5, 119520, Note_on_c, 2, 55, 80
5, 119520, Note_on_c, 2, 59, 80
5, 119520, Note_on_c, 2, 64, 80
5, 119759, Note_on_c, 2, 55, 0
5, 119759, Note_on_c, 2, 59, 0
5, 119759, Note_on_c, 2, 64, 0
5, 120000, Note_on_c, 2, 55, 80
5, 120000, Note_on_c, 2, 59, 80
5, 120000, Note_on_c, 2, 64, 80
5, 120359, Note_on_c, 2, 55, 0
5, 120359, Note_on_c, 2, 59, 0
5, 120359, Note_on_c, 2, 64, 0
5, 120360, Note_on_c, 2, 55, 80
5, 120360, Note_on_c, 2, 59, 80
5, 120360, Note_on_c, 2, 64, 80
5, 120719, Note_on_c, 2, 55, 0
5, 120719, Note_on_c, 2, 59, 0
5, 120719, Note_on_c, 2, 64, 0
5, 120720, Note_on_c, 2, 55, 80
5, 120720, Note_on_c, 2, 59, 80
5, 120720, Note_on_c, 2, 65, 80
5, 120959, Note_on_c, 2, 55, 0
5, 120959, Note_on_c, 2, 59, 0
5, 120959, Note_on_c, 2, 65, 0
5, 120960, Note_on_c, 2, 59, 80
5, 120960, Note_on_c, 2, 62, 80
5, 120960, Note_on_c, 2, 67, 80
5, 121199, Note_on_c, 2, 59, 0
5, 121199, Note_on_c, 2, 62, 0
5, 121199, Note_on_c, 2, 67, 0
5, 121440, Note_on_c, 2, 59, 80
5, 121440, Note_on_c, 2, 62, 80
5, 121440, Note_on_c, 2, 67, 80
5, 121679, Note_on_c, 2, 59, 0
5, 121679, Note_on_c, 2, 62, 0
5, 121679, Note_on_c, 2, 67, 0
5, 121920, Note_on_c, 2, 59, 80
5, 121920, Note_on_c, 2, 62, 80
5, 121920, Note_on_c, 2, 67, 80
5, 122279, Note_on_c, 2, 59, 0
5, 122279, Note_on_c, 2, 62, 0
5, 122279, Note_on_c, 2, 67, 0
5, 122280, Note_on_c, 2, 59, 80
5, 122280, Note_on_c, 2, 62, 80
5, 122280, Note_on_c, 2, 67, 80
5, 122639, Note_on_c, 2, 59, 0
5, 122639, Note_on_c, 2, 62, 0
5, 122639, Note_on_c, 2, 67, 0
5, 122640, Note_on_c, 2, 59, 80
5, 122640, Note_on_c, 2, 62, 80
5, 122640, Note_on_c, 2, 67, 80
5, 122879, Note_on_c, 2, 59, 0
5, 122879, Note_on_c, 2, 62, 0
5, 122879, Note_on_c, 2, 67, 0
5, 122880, Note_on_c, 2, 57, 80
5, 122880, Note_on_c, 2, 60, 80
5, 122880, Note_on_c, 2, 64, 80
5, 123119, Note_on_c, 2, 57, 0
5, 123119, Note_on_c, 2, 60, 0
5, 123119, Note_on_c, 2, 64, 0
5, 123360, Note_on_c, 2, 57, 80
5, 123360, Note_on_c, 2, 60, 80
5, 123360, Note_on_c, 2, 64, 80
5, 123599, Note_on_c, 2, 57, 0
5, 123599, Note_on_c, 2, 60, 0
5, 123599, Note_on_c, 2, 64, 0
5, 123840, Note_on_c, 2, 57, 80
5, 123840, Note_on_c, 2, 60, 80
5, 123840, Note_on_c, 2, 64, 80
5, 124199, Note_on_c, 2, 57, 0
5, 124199, Note_on_c, 2, 60, 0
5, 124199, Note_on_c, 2, 64, 0
5, 124200, Note_on_c, 2, 57, 80
5, 124200, Note_on_c, 2, 60, 80
5, 124200, Note_on_c, 2, 64, 80
5, 124559, Note_on_c, 2, 57, 0
5, 124559, Note_on_c, 2, 60, 0
5, 124559, Note_on_c, 2, 64, 0
5, 124560, Note_on_c, 2, 57, 80
5, 124560, Note_on_c, 2, 60, 80
5, 124560, Note_on_c, 2, 65, 80
5, 124799, Note_on_c, 2, 57, 0
5, 124799, Note_on_c, 2, 60, 0
5, 124799, Note_on_c, 2, 65, 0
5, 124800, Note_on_c, 2, 55, 80
5, 124800, Note_on_c, 2, 60, 80
5, 124800, Note_on_c, 2, 64, 80
5, 125039, Note_on_c, 2, 55, 0
5, 125039, Note_on_c, 2, 60, 0
5, 125039, Note_on_c, 2, 64, 0
5, 125280, Note_on_c, 2, 55, 80
5, 125280, Note_on_c, 2, 60, 80
5, 125280, Note_on_c, 2, 64, 80
5, 125519, Note_on_c, 2, 55, 0
5, 125519, Note_on_c, 2, 60, 0
5, 125519, Note_on_c, 2, 64, 0
5, 125760, Note_on_c, 2, 55, 80
5, 125760, Note_on_c, 2, 60, 80
5, 125760, Note_on_c, 2, 64, 80
5, 126119, Note_on_c, 2, 55, 0
5, 126119, Note_on_c, 2, 60, 0
5, 126119, Note_on_c, 2, 64, 0
5, 126120, Note_on_c, 2, 55, 80
5, 126120, Note_on_c, 2, 60, 80
5, 126120, Note_on_c, 2, 64, 80
5, 126479, Note_on_c, 2, 55, 0
5, 126479, Note_on_c, 2, 60, 0
5, 126479, Note_on_c, 2, 64, 0
5, 126480, Note_on_c, 2, 57, 80
5, 126480, Note_on_c, 2, 60, 80
5, 126480, Note_on_c, 2, 65, 80
5, 126719, Note_on_c, 2, 57, 0
5, 126719, Note_on_c, 2, 60, 0
5, 126719, Note_on_c, 2, 65, 0
5, 126720, Note_on_c, 2, 55, 80
5, 126720, Note_on_c, 2, 59, 80
5, 126720, Note_on_c, 2, 64, 80
5, 126959, Note_on_c, 2, 55, 0
5, 126959, Note_on_c, 2, 59, 0
5, 126959, Note_on_c, 2, 64, 0
5, 127200, Note_on_c, 2, 55, 80
5, 127200, Note_on_c, 2, 59, 80
5, 127200, Note_on_c, 2, 64, 80
5, 127439, Note_on_c, 2, 55, 0
5, 127439, Note_on_c, 2, 59, 0
5, 127439, Note_on_c, 2, 64, 0
5, 127680, Note_on_c, 2, 55, 80
5, 127680, Note_on_c, 2, 59, 80
5, 127680, Note_on_c, 2, 64, 80
5, 128039, Note_on_c, 2, 55, 0
5, 128039, Note_on_c, 2, 59, 0
5, 128039, Note_on_c, 2, 64, 0
5, 128040, Note_on_c, 2, 55, 80
5, 128040, Note_on_c, 2, 59, 80
5, 128040, Note_on_c, 2, 64, 80
5, 128399, Note_on_c, 2, 55, 0
5, 128399, Note_on_c, 2, 59, 0
5, 128399, Note_on_c, 2, 64, 0
5, 128400, Note_on_c, 2, 55, 80
5, 128400, Note_on_c, 2, 59, 80
5, 128400, Note_on_c, 2, 65, 80
5, 128639, Note_on_c, 2, 55, 0
5, 128639, Note_on_c, 2, 59, 0
5, 128639, Note_on_c, 2, 65, 0
5, 128640, Note_on_c, 2, 59, 80
5, 128640, Note_on_c, 2, 62, 80
5, 128640, Note_on_c, 2, 67, 80
5, 128879, Note_on_c, 2, 59, 0
5, 128879, Note_on_c, 2, 62, 0
5, 128879, Note_on_c, 2, 67, 0
5, 129120, Note_on_c, 2, 59, 80
5, 129120, Note_on_c, 2, 62, 80
5, 129120, Note_on_c, 2, 67, 80
5, 129359, Note_on_c, 2, 59, 0
5, 129359, Note_on_c, 2, 62, 0
5, 129359, Note_on_c, 2, 67, 0
5, 129600, Note_on_c, 2, 59, 80
5, 129600, Note_on_c, 2, 62, 80
5, 129600, Note_on_c, 2, 67, 80
5, 129959, Note_on_c, 2, 59, 0
5, 129959, Note_on_c, 2, 62, 0
5, 129959, Note_on_c, 2, 67, 0
5, 129960, Note_on_c, 2, 59, 80
5, 129960, Note_on_c, 2, 62, 80
5, 129960, Note_on_c, 2, 67, 80
5, 130319, Note_on_c, 2, 59, 0
5, 130319, Note_on_c, 2, 62, 0
5, 130319, Note_on_c, 2, 67, 0
5, 130320, Note_on_c, 2, 59, 80
5, 130320, Note_on_c, 2, 62, 80
5, 130320, Note_on_c, 2, 67, 80
5, 130559, Note_on_c, 2, 59, 0
5, 130559, Note_on_c, 2, 62, 0
5, 130559, Note_on_c, 2, 67, 0
5, 130560, Note_on_c, 2, 57, 80
5, 130560, Note_on_c, 2, 60, 80
5, 130560, Note_on_c, 2, 64, 80
5, 130799, Note_on_c, 2, 57, 0
5, 130799, Note_on_c, 2, 60, 0
5, 130799, Note_on_c, 2, 64, 0
5, 131040, Note_on_c, 2, 57, 80
5, 131040, Note_on_c, 2, 60, 80
5, 131040, Note_on_c, 2, 64, 80
5, 131279, Note_on_c, 2, 57, 0
5, 131279, Note_on_c, 2, 60, 0
5, 131279, Note_on_c, 2, 64, 0
5, 131520, Note_on_c, 2, 57, 80
5, 131520, Note_on_c, 2, 60, 80
5, 131520, Note_on_c, 2, 64, 80
5, 131879, Note_on_c, 2, 57, 0
5, 131879, Note_on_c, 2, 60, 0
5, 131879, Note_on_c, 2, 64, 0
5, 131880, Note_on_c, 2, 57, 80
5, 131880, Note_on_c, 2, 60, 80
5, 131880, Note_on_c, 2, 64, 80
5, 132239, Note_on_c, 2, 57, 0
5, 132239, Note_on_c, 2, 60, 0
5, 132239, Note_on_c, 2, 64, 0
5, 132240, Note_on_c, 2, 57, 80
5, 132240, Note_on_c, 2, 60, 80
5, 132240, Note_on_c, 2, 65, 80
5, 132479, Note_on_c, 2, 57, 0
5, 132479, Note_on_c, 2, 60, 0
5, 132479, Note_on_c, 2, 65, 0
5, 132480, Note_on_c, 2, 55, 80
5, 132480, Note_on_c, 2, 60, 80
5, 132480, Note_on_c, 2, 64, 80
5, 132719, Note_on_c, 2, 55, 0
5, 132719, Note_on_c, 2, 60, 0
5, 132719, Note_on_c, 2, 64, 0
5, 132960, Note_on_c, 2, 55, 80
5, 132960, Note_on_c, 2, 60, 80
5, 132960, Note_on_c, 2, 64, 80
5, 133199, Note_on_c, 2, 55, 0
5, 133199, Note_on_c, 2, 60, 0
5, 133199, Note_on_c, 2, 64, 0
5, 133440, Note_on_c, 2, 55, 80
5, 133440, Note_on_c, 2, 60, 80
5, 133440, Note_on_c, 2, 64, 80
5, 133799, Note_on_c, 2, 55, 0
5, 133799, Note_on_c, 2, 60, 0
5, 133799, Note_on_c, 2, 64, 0
5, 133800, Note_on_c, 2, 55, 80
5, 133800, Note_on_c, 2, 60, 80
5, 133800, Note_on_c, 2, 64, 80
5, 134159, Note_on_c, 2, 55, 0
5, 134159, Note_on_c, 2, 60, 0
5, 134159, Note_on_c, 2, 64, 0
5, 134160, Note_on_c, 2, 57, 80
5, 134160, Note_on_c, 2, 60, 80
5, 134160, Note_on_c, 2, 65, 80
5, 134399, Note_on_c, 2, 57, 0
5, 134399, Note_on_c, 2, 60, 0
5, 134399, Note_on_c, 2, 65, 0
5, 134400, Note_on_c, 2, 55, 80
5, 134400, Note_on_c, 2, 59, 80
5, 134400, Note_on_c, 2, 64, 80
5, 134639, Note_on_c, 2, 55, 0
5, 134639, Note_on_c, 2, 59, 0
5, 134639, Note_on_c, 2, 64, 0
5, 134880, Note_on_c, 2, 55, 80
5, 134880, Note_on_c, 2, 59, 80
5, 134880, Note_on_c, 2, 64, 80
5, 135119, Note_on_c, 2, 55, 0
5, 135119, Note_on_c, 2, 59, 0
5, 135119, Note_on_c, 2, 64, 0
5, 135360, Note_on_c, 2, 55, 80
5, 135360, Note_on_c, 2, 59, 80
5, 135360, Note_on_c, 2, 64, 80
5, 135719, Note_on_c, 2, 55, 0
5, 135719, Note_on_c, 2, 59, 0
5, 135719, Note_on_c, 2, 64, 0
5, 135720, Note_on_c, 2, 55, 80
5, 135720, Note_on_c, 2, 59, 80
5, 135720, Note_on_c, 2, 64, 80
5, 136079, Note_on_c, 2, 55, 0
5, 136079, Note_on_c, 2, 59, 0
5, 136079, Note_on_c, 2, 64, 0
5, 136080, Note_on_c, 2, 55, 80
5, 136080, Note_on_c, 2, 59, 80
5, 136080, Note_on_c, 2, 65, 80
5, 136319, Note_on_c, 2, 55, 0
5, 136319, Note_on_c, 2, 59, 0
5, 136319, Note_on_c, 2, 65, 0
5, 136320, Note_on_c, 2, 59, 80
5, 136320, Note_on_c, 2, 62, 80
5, 136320, Note_on_c, 2, 67, 80
5, 136559, Note_on_c, 2, 59, 0
5, 136559, Note_on_c, 2, 62, 0
5, 136559, Note_on_c, 2, 67, 0
5, 136800, Note_on_c, 2, 59, 80
5, 136800, Note_on_c, 2, 62, 80
5, 136800, Note_on_c, 2, 67, 80
5, 137039, Note_on_c, 2, 59, 0
5, 137039, Note_on_c, 2, 62, 0
5, 137039, Note_on_c, 2, 67, 0
5, 137280, Note_on_c, 2, 59, 80
5, 137280, Note_on_c, 2, 62, 80
5, 137280, Note_on_c, 2, 67, 80
5, 137639, Note_on_c, 2, 59, 0
5, 137639, Note_on_c, 2, 62, 0
5, 137639, Note_on_c, 2, 67, 0
5, 137640, Note_on_c, 2, 59, 80
5, 137640, Note_on_c, 2, 62, 80
5, 137640, Note_on_c, 2, 67, 80
5, 137999, Note_on_c, 2, 59, 0
5, 137999, Note_on_c, 2, 62, 0
5, 137999, Note_on_c, 2, 67, 0
5, 138000, Note_on_c, 2, 59, 80
5, 138000, Note_on_c, 2, 62, 80
5, 138000, Note_on_c, 2, 67, 80
5, 138239, Note_on_c, 2, 59, 0
5, 138239, Note_on_c, 2, 62, 0
5, 138239, Note_on_c, 2, 67, 0
5, 138240, Note_on_c, 2, 57, 80
5, 138240, Note_on_c, 2, 60, 80
5, 138240, Note_on_c, 2, 64, 80
5, 138479, Note_on_c, 2, 57, 0
5, 138479, Note_on_c, 2, 60, 0
5, 138479, Note_on_c, 2, 64, 0
5, 138720, Note_on_c, 2, 57, 80
5, 138720, Note_on_c, 2, 60, 80
5, 138720, Note_on_c, 2, 64, 80
5, 138959, Note_on_c, 2, 57, 0
5, 138959, Note_on_c, 2, 60, 0
5, 138959, Note_on_c, 2, 64, 0
5, 139200, Note_on_c, 2, 57, 80
5, 139200, Note_on_c, 2, 60, 80
5, 139200, Note_on_c, 2, 64, 80
5, 139559, Note_on_c, 2, 57, 0
5, 139559, Note_on_c, 2, 60, 0
5, 139559, Note_on_c, 2, 64, 0
5, 139560, Note_on_c, 2, 57, 80
5, 139560, Note_on_c, 2, 60, 80
5, 139560, Note_on_c, 2, 64, 80
5, 139919, Note_on_c, 2, 57, 0
5, 139919, Note_on_c, 2, 60, 0
5, 139919, Note_on_c, 2, 64, 0
5, 139920, Note_on_c, 2, 57, 80
5, 139920, Note_on_c, 2, 60, 80
5, 139920, Note_on_c, 2, 65, 80
5, 140159, Note_on_c, 2, 57, 0
5, 140159, Note_on_c, 2, 60, 0
5, 140159, Note_on_c, 2, 65, 0
5, 140160, Note_on_c, 2, 55, 80
5, 140160, Note_on_c, 2, 60, 80
5, 140160, Note_on_c, 2, 64, 80
5, 140399, Note_on_c, 2, 55, 0
5, 140399, Note_on_c, 2, 60, 0
5, 140399, Note_on_c, 2, 64, 0
5, 140640, Note_on_c, 2, 55, 80
5, 140640, Note_on_c, 2, 60, 80
5, 140640, Note_on_c, 2, 64, 80
5, 140879, Note_on_c, 2, 55, 0
5, 140879, Note_on_c, 2, 60, 0
5, 140879, Note_on_c, 2, 64, 0
5, 141120, Note_on_c, 2, 55, 80
5, 141120, Note_on_c, 2, 60, 80
5, 141120, Note_on_c, 2, 64, 80
5, 141479, Note_on_c, 2, 55, 0
5, 141479, Note_on_c, 2, 60, 0
5, 141479, Note_on_c, 2, 64, 0
5, 141480, Note_on_c, 2, 55, 80
5, 141480, Note_on_c, 2, 60, 80
5, 141480, Note_on_c, 2, 64, 80
5, 141839, Note_on_c, 2, 55, 0
5, 141839, Note_on_c, 2, 60, 0
5, 141839, Note_on_c, 2, 64, 0
5, 141840, Note_on_c, 2, 57, 80
5, 141840, Note_on_c, 2, 60, 80
5, 141840, Note_on_c, 2, 65, 80
5, 142079, Note_on_c, 2, 57, 0
5, 142079, Note_on_c, 2, 60, 0
5, 142079, Note_on_c, 2, 65, 0
5, 142080, Note_on_c, 2, 55, 80
5, 142080, Note_on_c, 2, 59, 80
5, 142080, Note_on_c, 2, 64, 80
5, 142319, Note_on_c, 2, 55, 0
5, 142319, Note_on_c, 2, 59, 0
5, 142319, Note_on_c, 2, 64, 0
5, 142560, Note_on_c, 2, 55, 80
5, 142560, Note_on_c, 2, 59, 80
5, 142560, Note_on_c, 2, 64, 80
5, 142799, Note_on_c, 2, 55, 0
5, 142799, Note_on_c, 2, 59, 0
5, 142799, Note_on_c, 2, 64, 0
5, 143040, Note_on_c, 2, 55, 80
5, 143040, Note_on_c, 2, 59, 80
5, 143040, Note_on_c, 2, 64, 80
5, 143399, Note_on_c, 2, 55, 0
5, 143399, Note_on_c, 2, 59, 0
5, 143399, Note_on_c, 2, 64, 0
5, 143400, Note_on_c, 2, 55, 80
5, 143400, Note_on_c, 2, 59, 80
5, 143400, Note_on_c, 2, 64, 80
5, 143759, Note_on_c, 2, 55, 0
5, 143759, Note_on_c, 2, 59, 0
5, 143759, Note_on_c, 2, 64, 0
5, 143760, Note_on_c, 2, 55, 80
5, 143760, Note_on_c, 2, 59, 80
5, 143760, Note_on_c, 2, 65, 80
5, 143999, Note_on_c, 2, 55, 0
5, 143999, Note_on_c, 2, 59, 0
5, 143999, Note_on_c, 2, 65, 0
5, 144000, Note_on_c, 2, 59, 80
5, 144000, Note_on_c, 2, 62, 80
5, 144000, Note_on_c, 2, 67, 80
5, 144239, Note_on_c, 2, 59, 0
5, 144239, Note_on_c, 2, 62, 0
5, 144239, Note_on_c, 2, 67, 0
5, 144480, Note_on_c, 2, 59, 80
5, 144480, Note_on_c, 2, 62, 80
5, 144480, Note_on_c, 2, 67, 80
5, 144719, Note_on_c, 2, 59, 0
5, 144719, Note_on_c, 2, 62, 0
5, 144719, Note_on_c, 2, 67, 0
5, 144960, Note_on_c, 2, 59, 80
5, 144960, Note_on_c, 2, 62, 80
5, 144960, Note_on_c, 2, 67, 80
5, 145319, Note_on_c, 2, 59, 0
5, 145319, Note_on_c, 2, 62, 0
5, 145319, Note_on_c, 2, 67, 0
5, 145320, Note_on_c, 2, 59, 80
5, 145320, Note_on_c, 2, 62, 80
5, 145320, Note_on_c, 2, 67, 80
5, 145679, Note_on_c, 2, 59, 0
5, 145679, Note_on_c, 2, 62, 0
5, 145679, Note_on_c, 2, 67, 0
5, 145680, Note_on_c, 2, 59, 80
5, 145680, Note_on_c, 2, 62, 80
5, 145680, Note_on_c, 2, 67, 80
5, 145919, Note_on_c, 2, 59, 0
5, 145919, Note_on_c, 2, 62, 0
5, 145919, Note_on_c, 2, 67, 0
5, 145920, Note_on_c, 2, 57, 80
5, 145920, Note_on_c, 2, 60, 80
5, 145920, Note_on_c, 2, 64, 80
5, 146159, Note_on_c, 2, 57, 0
5, 146159, Note_on_c, 2, 60, 0
5, 146159, Note_on_c, 2, 64, 0
5, 146400, Note_on_c, 2, 57, 80
5, 146400, Note_on_c, 2, 60, 80
5, 146400, Note_on_c, 2, 64, 80
5, 146639, Note_on_c, 2, 57, 0
5, 146639, Note_on_c, 2, 60, 0
5, 146639, Note_on_c, 2, 64, 0
5, 146880, Note_on_c, 2, 57, 80
5, 146880, Note_on_c, 2, 60, 80
5, 146880, Note_on_c, 2, 64, 80
5, 147239, Note_on_c, 2, 57, 0
5, 147239, Note_on_c, 2, 60, 0
5, 147239, Note_on_c, 2, 64, 0
5, 147240, Note_on_c, 2, 57, 80
5, 147240, Note_on_c, 2, 60, 80
5, 147240, Note_on_c, 2, 64, 80
5, 147599, Note_on_c, 2, 57, 0
5, 147599, Note_on_c, 2, 60, 0
5, 147599, Note_on_c, 2, 64, 0
5, 147600, Note_on_c, 2, 57, 80
5, 147600, Note_on_c, 2, 60, 80
5, 147600, Note_on_c, 2, 65, 80
5, 147839, Note_on_c, 2, 57, 0
5, 147839, Note_on_c, 2, 60, 0
5, 147839, Note_on_c, 2, 65, 0
5, 147840, Note_on_c, 2, 55, 80
5, 147840, Note_on_c, 2, 60, 80
5, 147840, Note_on_c, 2, 64, 80
5, 148079, Note_on_c, 2, 55, 0
5, 148079, Note_on_c, 2, 60, 0
5, 148079, Note_on_c, 2, 64, 0
5, 148320, Note_on_c, 2, 55, 80
5, 148320, Note_on_c, 2, 60, 80
5, 148320, Note_on_c, 2, 64, 80
5, 148559, Note_on_c, 2, 55, 0
5, 148559, Note_on_c, 2, 60, 0
5, 148559, Note_on_c, 2, 64, 0
5, 148800, Note_on_c, 2, 55, 80
5, 148800, Note_on_c, 2, 60, 80
5, 148800, Note_on_c, 2, 64, 80
5, 149159, Note_on_c, 2, 55, 0
5, 149159, Note_on_c, 2, 60, 0
5, 149159, Note_on_c, 2, 64, 0
5, 149160, Note_on_c, 2, 55, 80
5, 149160, Note_on_c, 2, 60, 80
5, 149160, Note_on_c, 2, 64, 80
5, 149519, Note_on_c, 2, 55, 0
5, 149519, Note_on_c, 2, 60, 0
5, 149519, Note_on_c, 2, 64, 0
5, 149520, Note_on_c, 2, 57, 80
5, 149520, Note_on_c, 2, 60, 80
5, 149520, Note_on_c, 2, 65, 80
5, 149759, Note_on_c, 2, 57, 0
5, 149759, Note_on_c, 2, 60, 0
5, 149759, Note_on_c, 2, 65, 0
5, 149760, Note_on_c, 2, 55, 80
5, 149760, Note_on_c, 2, 59, 80
5, 149760, Note_on_c, 2, 64, 80
5, 149999, Note_on_c, 2, 55, 0
5, 149999, Note_on_c, 2, 59, 0
5, 149999, Note_on_c, 2, 64, 0
5, 150240, Note_on_c, 2, 55, 80
5, 150240, Note_on_c, 2, 59, 80
5, 150240, Note_on_c, 2, 64, 80
5, 150479, Note_on_c, 2, 55, 0
5, 150479, Note_on_c, 2, 59, 0
5, 150479, Note_on_c, 2, 64, 0
5, 150720, Note_on_c, 2, 55, 80
5, 150720, Note_on_c, 2, 59, 80
5, 150720, Note_on_c, 2, 64, 80
5, 151079, Note_on_c, 2, 55, 0
5, 151079, Note_on_c, 2, 59, 0
5, 151079, Note_on_c, 2, 64, 0
5, 151080, Note_on_c, 2, 55, 80
5, 151080, Note_on_c, 2, 59, 80
5, 151080, Note_on_c, 2, 64, 80
5, 151439, Note_on_c, 2, 55, 0
5, 151439, Note_on_c, 2, 59, 0
5, 151439, Note_on_c, 2, 64, 0
5, 151440, Note_on_c, 2, 55, 80
5, 151440, Note_on_c, 2, 59, 80
5, 151440, Note_on_c, 2, 65, 80
5, 151679, Note_on_c, 2, 55, 0
5, 151679, Note_on_c, 2, 59, 0
5, 151679, Note_on_c, 2, 65, 0
5, 151680, Note_on_c, 2, 59, 80
5, 151680, Note_on_c, 2, 62, 80
5, 151680, Note_on_c, 2, 67, 80
5, 151919, Note_on_c, 2, 59, 0
5, 151919, Note_on_c, 2, 62, 0
5, 151919, Note_on_c, 2, 67, 0
5, 152160, Note_on_c, 2, 59, 80
5, 152160, Note_on_c, 2, 62, 80
5, 152160, Note_on_c, 2, 67, 80
5, 152399, Note_on_c, 2, 59, 0
5, 152399, Note_on_c, 2, 62, 0
5, 152399, Note_on_c, 2, 67, 0
5, 152640, Note_on_c, 2, 59, 80
5, 152640, Note_on_c, 2, 62, 80
5, 152640, Note_on_c, 2, 67, 80
5, 152999, Note_on_c, 2, 59, 0
5, 152999, Note_on_c, 2, 62, 0
5, 152999, Note_on_c, 2, 67, 0
5, 153000, Note_on_c, 2, 59, 80
5, 153000, Note_on_c, 2, 62, 80
5, 153000, Note_on_c, 2, 67, 80
5, 153359, Note_on_c, 2, 59, 0
5, 153359, Note_on_c, 2, 62, 0
5, 153359, Note_on_c, 2, 67, 0
5, 153360, Note_on_c, 2, 59, 80
5, 153360, Note_on_c, 2, 62, 80
5, 153360, Note_on_c, 2, 67, 80
5, 153599, Note_on_c, 2, 59, 0
5, 153599, Note_on_c, 2, 62, 0
5, 153599, Note_on_c, 2, 67, 0
5, 153600, Note_on_c, 2, 57, 80
5, 153600, Note_on_c, 2, 60, 80
5, 153600, Note_on_c, 2, 64, 80
5, 153839, Note_on_c, 2, 57, 0
5, 153839, Note_on_c, 2, 60, 0
5, 153839, Note_on_c, 2, 64, 0
5, 154080, Note_on_c, 2, 57, 80
5, 154080, Note_on_c, 2, 60, 80
5, 154080, Note_on_c, 2, 64, 80
5, 154319, Note_on_c, 2, 57, 0
5, 154319, Note_on_c, 2, 60, 0
5, 154319, Note_on_c, 2, 64, 0
5, 154560, Note_on_c, 2, 57, 80
5, 154560, Note_on_c, 2, 60, 80
5, 154560, Note_on_c, 2, 64, 80
5, 154919, Note_on_c, 2, 57, 0
5, 154919, Note_on_c, 2, 60, 0
5, 154919, Note_on_c, 2, 64, 0
5, 154920, Note_on_c, 2, 57, 80
5, 154920, Note_on_c, 2, 60, 80
5, 154920, Note_on_c, 2, 64, 80
5, 155279, Note_on_c, 2, 57, 0
5, 155279, Note_on_c, 2, 60, 0
5, 155279, Note_on_c, 2, 64, 0
5, 155280, Note_on_c, 2, 57, 80
5, 155280, Note_on_c, 2, 60, 80
5, 155280, Note_on_c, 2, 65, 80
5, 155519, Note_on_c, 2, 57, 0
5, 155519, Note_on_c, 2, 60, 0
5, 155519, Note_on_c, 2, 65, 0
5, 155520, Note_on_c, 2, 55, 80
5, 155520, Note_on_c, 2, 60, 80
5, 155520, Note_on_c, 2, 64, 80
5, 155759, Note_on_c, 2, 55, 0
5, 155759, Note_on_c, 2, 60, 0
5, 155759, Note_on_c, 2, 64, 0
5, 156000, Note_on_c, 2, 55, 80
5, 156000, Note_on_c, 2, 60, 80
5, 156000, Note_on_c, 2, 64, 80
5, 156239, Note_on_c, 2, 55, 0
5, 156239, Note_on_c, 2, 60, 0
5, 156239, Note_on_c, 2, 64, 0
5, 156480, Note_on_c, 2, 55, 80
5, 156480, Note_on_c, 2, 60, 80
5, 156480, Note_on_c, 2, 64, 80
5, 156839, Note_on_c, 2, 55, 0
5, 156839, Note_on_c, 2, 60, 0
5, 156839, Note_on_c, 2, 64, 0
5, 156840, Note_on_c, 2, 55, 80
5, 156840, Note_on_c, 2, 60, 80
5, 156840, Note_on_c, 2, 64, 80
5, 157199, Note_on_c, 2, 55, 0
5, 157199, Note_on_c, 2, 60, 0
5, 157199, Note_on_c, 2, 64, 0
5, 157200, Note_on_c, 2, 57, 80
5, 157200, Note_on_c, 2, 60, 80
5, 157200, Note_on_c, 2, 65, 80
5, 157439, Note_on_c, 2, 57, 0
5, 157439, Note_on_c, 2, 60, 0
5, 157439, Note_on_c, 2, 65, 0
5, 157440, Note_on_c, 2, 55, 80
5, 157440, Note_on_c, 2, 59, 80
5, 157440, Note_on_c, 2, 64, 80
5, 157679, Note_on_c, 2, 55, 0
5, 157679, Note_on_c, 2, 59, 0
5, 157679, Note_on_c, 2, 64, 0
5, 157920, Note_on_c, 2, 55, 80
5, 157920, Note_on_c, 2, 59, 80
5, 157920, Note_on_c, 2, 64, 80
5, 158159, Note_on_c, 2, 55, 0
5, 158159, Note_on_c, 2, 59, 0
5, 158159, Note_on_c, 2, 64, 0
5, 158400, Note_on_c, 2, 55, 80
5, 158400, Note_on_c, 2, 59, 80
5, 158400, Note_on_c, 2, 64, 80
5, 158759, Note_on_c, 2, 55, 0
5, 158759, Note_on_c, 2, 59, 0
5, 158759, Note_on_c, 2, 64, 0
5, 158760, Note_on_c, 2, 55, 80
5, 158760, Note_on_c, 2, 59, 80
5, 158760, Note_on_c, 2, 64, 80
5, 159119, Note_on_c, 2, 55, 0
5, 159119, Note_on_c, 2, 59, 0
5, 159119, Note_on_c, 2, 64, 0
5, 159120, Note_on_c, 2, 55, 80
5, 159120, Note_on_c, 2, 59, 80
5, 159120, Note_on_c, 2, 65, 80
5, 159359, Note_on_c, 2, 55, 0
5, 159359, Note_on_c, 2, 59, 0
5, 159359, Note_on_c, 2, 65, 0
5, 159360, Note_on_c, 2, 59, 80
5, 159360, Note_on_c, 2, 62, 80
5, 159360, Note_on_c, 2, 67, 80
5, 159599, Note_on_c, 2, 59, 0
5, 159599, Note_on_c, 2, 62, 0
5, 159599, Note_on_c, 2, 67, 0
5, 159840, Note_on_c, 2, 59, 80
5, 159840, Note_on_c, 2, 62, 80
5, 159840, Note_on_c, 2, 67, 80
5, 160079, Note_on_c, 2, 59, 0
5, 160079, Note_on_c, 2, 62, 0
5, 160079, Note_on_c, 2, 67, 0
5, 160320, Note_on_c, 2, 59, 80
5, 160320, Note_on_c, 2, 62, 80
5, 160320, Note_on_c, 2, 67, 80
5, 160679, Note_on_c, 2, 59, 0
5, 160679, Note_on_c, 2, 62, 0
5, 160679, Note_on_c, 2, 67, 0
5, 160680, Note_on_c, 2, 59, 80
5, 160680, Note_on_c, 2, 62, 80
5, 160680, Note_on_c, 2, 67, 80
5, 161039, Note_on_c, 2, 59, 0
5, 161039, Note_on_c, 2, 62, 0
5, 161039, Note_on_c, 2, 67, 0
5, 161040, Note_on_c, 2, 59, 80
5, 161040, Note_on_c, 2, 62, 80
5, 161040, Note_on_c, 2, 67, 80
5, 161279, Note_on_c, 2, 59, 0
5, 161279, Note_on_c, 2, 62, 0
5, 161279, Note_on_c, 2, 67, 0
5, 161280, Note_on_c, 2, 72, 80
5, 161399, Note_on_c, 2, 72, 0
5, 161400, Note_on_c, 2, 64, 80
5, 161519, Note_on_c, 2, 64, 0
5, 161520, Note_on_c, 2, 71, 80
5, 161639, Note_on_c, 2, 71, 0
5, 161640, Note_on_c, 2, 64, 80
5, 161759, Note_on_c, 2, 64, 0
5, 161760, Note_on_c, 2, 72, 80
5, 161879, Note_on_c, 2, 72, 0
5, 161880, Note_on_c, 2, 64, 80
5, 161999, Note_on_c, 2, 64, 0
5, 162000, Note_on_c, 2, 69, 80
5, 162119, Note_on_c, 2, 69, 0
5, 162120, Note_on_c, 2, 64, 80
5, 162239, Note_on_c, 2, 64, 0
5, 162240, Note_on_c, 2, 72, 80
5, 162359, Note_on_c, 2, 72, 0
5, 162360, Note_on_c, 2, 64, 80
5, 162479, Note_on_c, 2, 64, 0
5, 162480, Note_on_c, 2, 71, 80
5, 162599, Note_on_c, 2, 71, 0
5, 162600, Note_on_c, 2, 64, 80
5, 162719, Note_on_c, 2, 64, 0
5, 162720, Note_on_c, 2, 72, 80
5, 162839, Note_on_c, 2, 72, 0
5, 162840, Note_on_c, 2, 64, 80
5, 162959, Note_on_c, 2, 64, 0
5, 162960, Note_on_c, 2, 69, 80
5, 163079, Note_on_c, 2, 69, 0
5, 163080, Note_on_c, 2, 64, 80
5, 163199, Note_on_c, 2, 64, 0
5, 163200, Note_on_c, 2, 72, 80
5, 163319, Note_on_c, 2, 72, 0
5, 163320, Note_on_c, 2, 64, 80
5, 163439, Note_on_c, 2, 64, 0
5, 163440, Note_on_c, 2, 71, 80
5, 163559, Note_on_c, 2, 71, 0
5, 163560, Note_on_c, 2, 64, 80
5, 163679, Note_on_c, 2, 64, 0
5, 163680, Note_on_c, 2, 72, 80
5, 163799, Note_on_c, 2, 72, 0
5, 163800, Note_on_c, 2, 64, 80
5, 163919, Note_on_c, 2, 64, 0
5, 163920, Note_on_c, 2, 67, 80
5, 164039, Note_on_c, 2, 67, 0
5, 164040, Note_on_c, 2, 64, 80
5, 164159, Note_on_c, 2, 64, 0
5, 164160, Note_on_c, 2, 72, 80
5, 164279, Note_on_c, 2, 72, 0
5, 164280, Note_on_c, 2, 64, 80
5, 164399, Note_on_c, 2, 64, 0
5, 164400, Note_on_c, 2, 71, 80
5, 164519, Note_on_c, 2, 71, 0
5, 164520, Note_on_c, 2, 64, 80
5, 164639, Note_on_c, 2, 64, 0
5, 164640, Note_on_c, 2, 72, 80
5, 164759, Note_on_c, 2, 72, 0
5, 164760, Note_on_c, 2, 64, 80
5, 164879, Note_on_c, 2, 64, 0
5, 164880, Note_on_c, 2, 67, 80
5, 164999, Note_on_c, 2, 67, 0
5, 165000, Note_on_c, 2, 64, 80
5, 165119, Note_on_c, 2, 64, 0
5, 165120, Note_on_c, 2, 71, 80
5, 165239, Note_on_c, 2, 71, 0
5, 165240, Note_on_c, 2, 64, 80
5, 165359, Note_on_c, 2, 64, 0
5, 165360, Note_on_c, 2, 69, 80
5, 165479, Note_on_c, 2, 69, 0
5, 165480, Note_on_c, 2, 64, 80
5, 165599, Note_on_c, 2, 64, 0
5, 165600, Note_on_c, 2, 71, 80
5, 165719, Note_on_c, 2, 71, 0
5, 165720, Note_on_c, 2, 64, 80
5, 165839, Note_on_c, 2, 64, 0
5, 165840, Note_on_c, 2, 67, 80
5, 165959, Note_on_c, 2, 67, 0
5, 165960, Note_on_c, 2, 64, 80
5, 166079, Note_on_c, 2, 64, 0
5, 166080, Note_on_c, 2, 71, 80
5, 166199, Note_on_c, 2, 71, 0
5, 166200, Note_on_c, 2, 64, 80
5, 166319, Note_on_c, 2, 64, 0
5, 166320, Note_on_c, 2, 69, 80
5, 166439, Note_on_c, 2, 69, 0
5, 166440, Note_on_c, 2, 64, 80
5, 166559, Note_on_c, 2, 64, 0
5, 166560, Note_on_c, 2, 71, 80
5, 166679, Note_on_c, 2, 71, 0
5, 166680, Note_on_c, 2, 64, 80
5, 166799, Note_on_c, 2, 64, 0
5, 166800, Note_on_c, 2, 67, 80
5, 166919, Note_on_c, 2, 67, 0
5, 166920, Note_on_c, 2, 64, 80
5, 167039, Note_on_c, 2, 64, 0
5, 167040, Note_on_c, 2, 71, 80
5, 167159, Note_on_c, 2, 71, 0
5, 167160, Note_on_c, 2, 64, 80
5, 167279, Note_on_c, 2, 64, 0
5, 167280, Note_on_c, 2, 69, 80
5, 167399, Note_on_c, 2, 69, 0
5, 167400, Note_on_c, 2, 64, 80
5, 167519, Note_on_c, 2, 64, 0
5, 167520, Note_on_c, 2, 71, 80
5, 167639, Note_on_c, 2, 71, 0
5, 167640, Note_on_c, 2, 64, 80
5, 167759, Note_on_c, 2, 64, 0
5, 167760, Note_on_c, 2, 67, 80
5, 167879, Note_on_c, 2, 67, 0
5, 167880, Note_on_c, 2, 64, 80
5, 167999, Note_on_c, 2, 64, 0
5, 168000, Note_on_c, 2, 71, 80
5, 168119, Note_on_c, 2, 71, 0
5, 168120, Note_on_c, 2, 64, 80
5, 168239, Note_on_c, 2, 64, 0
5, 168240, Note_on_c, 2, 69, 80
5, 168359, Note_on_c, 2, 69, 0
5, 168360, Note_on_c, 2, 64, 80
5, 168479, Note_on_c, 2, 64, 0
5, 168480, Note_on_c, 2, 71, 80
5, 168599, Note_on_c, 2, 71, 0
5, 168600, Note_on_c, 2, 64, 80
5, 168719, Note_on_c, 2, 64, 0
5, 168720, Note_on_c, 2, 67, 80
5, 168839, Note_on_c, 2, 67, 0
5, 168840, Note_on_c, 2, 64, 80
5, 168959, Note_on_c, 2, 64, 0
5, 168960, Note_on_c, 2, 84, 80
5, 169079, Note_on_c, 2, 84, 0
5, 169080, Note_on_c, 2, 76, 80
5, 169199, Note_on_c, 2, 76, 0
5, 169200, Note_on_c, 2, 83, 80
5, 169319, Note_on_c, 2, 83, 0
5, 169320, Note_on_c, 2, 76, 80
5, 169439, Note_on_c, 2, 76, 0
5, 169440, Note_on_c, 2, 84, 80
5, 169559, Note_on_c, 2, 84, 0
5, 169560, Note_on_c, 2, 76, 80
5, 169679, Note_on_c, 2, 76, 0
5, 169680, Note_on_c, 2, 81, 80
5, 169799, Note_on_c, 2, 81, 0
5, 169800, Note_on_c, 2, 76, 80
5, 169919, Note_on_c, 2, 76, 0
5, 169920, Note_on_c, 2, 84, 80
5, 170039, Note_on_c, 2, 84, 0
5, 170040, Note_on_c, 2, 76, 80
5, 170159, Note_on_c, 2, 76, 0
5, 170160, Note_on_c, 2, 83, 80
5, 170279, Note_on_c, 2, 83, 0
5, 170280, Note_on_c, 2, 76, 80
5, 170399, Note_on_c, 2, 76, 0
5, 170400, Note_on_c, 2, 84, 80
5, 170519, Note_on_c, 2, 84, 0
5, 170520, Note_on_c, 2, 76, 80
5, 170639, Note_on_c, 2, 76, 0
5, 170640, Note_on_c, 2, 81, 80
5, 170759, Note_on_c, 2, 81, 0
5, 170760, Note_on_c, 2, 76, 80
5, 170879, Note_on_c, 2, 76, 0
5, 170880, Note_on_c, 2, 84, 80
5, 170999, Note_on_c, 2, 84, 0
5, 171000, Note_on_c, 2, 76, 80
5, 171119, Note_on_c, 2, 76, 0
5, 171120, Note_on_c, 2, 83, 80
5, 171239, Note_on_c, 2, 83, 0
5, 171240, Note_on_c, 2, 76, 80
5, 171359, Note_on_c, 2, 76, 0
5, 171360, Note_on_c, 2, 84, 80
5, 171479, Note_on_c, 2, 84, 0
5, 171480, Note_on_c, 2, 76, 80
5, 171599, Note_on_c, 2, 76, 0
5, 171600, Note_on_c, 2, 79, 80
5, 171719, Note_on_c, 2, 79, 0
5, 171720, Note_on_c, 2, 76, 80
5, 171839, Note_on_c, 2, 76, 0
5, 171840, Note_on_c, 2, 84, 80
5, 171959, Note_on_c, 2, 84, 0
5, 171960, Note_on_c, 2, 76, 80
5, 172079, Note_on_c, 2, 76, 0
5, 172080, Note_on_c, 2, 83, 80
5, 172199, Note_on_c, 2, 83, 0
5, 172200, Note_on_c, 2, 76, 80
5, 172319, Note_on_c, 2, 76, 0
5, 172320, Note_on_c, 2, 84, 80
5, 172439, Note_on_c, 2, 84, 0
5, 172440, Note_on_c, 2, 76, 80
5, 172559, Note_on_c, 2, 76, 0
5, 172560, Note_on_c, 2, 79, 80
5, 172679, Note_on_c, 2, 79, 0
5, 172680, Note_on_c, 2, 76, 80
5, 172799, Note_on_c, 2, 76, 0
5, 172800, Note_on_c, 2, 83, 80
5, 172919, Note_on_c, 2, 83, 0
5, 172920, Note_on_c, 2, 76, 80
5, 173039, Note_on_c, 2, 76, 0
5, 173040, Note_on_c, 2, 81, 80
5, 173159, Note_on_c, 2, 81, 0
5, 173160, Note_on_c, 2, 76, 80
5, 173279, Note_on_c, 2, 76, 0
5, 173280, Note_on_c, 2, 83, 80
5, 173399, Note_on_c, 2, 83, 0
5, 173400, Note_on_c, 2, 76, 80
5, 173519, Note_on_c, 2, 76, 0
5, 173520, Note_on_c, 2, 79, 80
5, 173639, Note_on_c, 2, 79, 0
5, 173640, Note_on_c, 2, 76, 80
5, 173759, Note_on_c, 2, 76, 0
5, 173760, Note_on_c, 2, 83, 80
5, 173879, Note_on_c, 2, 83, 0
5, 173880, Note_on_c, 2, 76, 80
5, 173999, Note_on_c, 2, 76, 0
5, 174000, Note_on_c, 2, 81, 80
5, 174119, Note_on_c, 2, 81, 0
5, 174120, Note_on_c, 2, 76, 80
5, 174239, Note_on_c, 2, 76, 0
5, 174240, Note_on_c, 2, 83, 80
5, 174359, Note_on_c, 2, 83, 0
5, 174360, Note_on_c, 2, 76, 80
5, 174479, Note_on_c, 2, 76, 0
5, 174480, Note_on_c, 2, 79, 80
5, 174599, Note_on_c, 2, 79, 0
5, 174600, Note_on_c, 2, 76, 80
5, 174719, Note_on_c, 2, 76, 0
5, 174720, Note_on_c, 2, 83, 80
5, 174839, Note_on_c, 2, 83, 0
5, 174840, Note_on_c, 2, 76, 80
5, 174959, Note_on_c, 2, 76, 0
5, 174960, Note_on_c, 2, 81, 80
5, 175079, Note_on_c, 2, 81, 0
5, 175080, Note_on_c, 2, 76, 80
5, 175199, Note_on_c, 2, 76, 0
5, 175200, Note_on_c, 2, 83, 80
5, 175319, Note_on_c, 2, 83, 0
5, 175320, Note_on_c, 2, 76, 80
5, 175439, Note_on_c, 2, 76, 0
5, 175440, Note_on_c, 2, 79, 80
5, 175559, Note_on_c, 2, 79, 0
5, 175560, Note_on_c, 2, 76, 80
5, 175679, Note_on_c, 2, 76, 0
5, 175680, Note_on_c, 2, 83, 80
5, 175799, Note_on_c, 2, 83, 0
5, 175800, Note_on_c, 2, 76, 80
5, 175919, Note_on_c, 2, 76, 0
5, 175920, Note_on_c, 2, 72, 80
5, 176039, Note_on_c, 2, 72, 0
5, 176040, Note_on_c, 2, 69, 80
5, 176159, Note_on_c, 2, 69, 0
5, 176160, Note_on_c, 2, 64, 80
5, 176279, Note_on_c, 2, 64, 0
5, 176280, Note_on_c, 2, 60, 80
5, 176399, Note_on_c, 2, 60, 0
5, 176400, Note_on_c, 2, 57, 80
5, 176519, Note_on_c, 2, 57, 0
5, 176520, Note_on_c, 2, 52, 80
5, 176639, Note_on_c, 2, 52, 0
5, 176640, Note_on_c, 2, 57, 80
5, 176640, Note_on_c, 2, 60, 80
5, 176640, Note_on_c, 2, 64, 80
5, 176879, Note_on_c, 2, 57, 0
5, 176879, Note_on_c, 2, 60, 0
5, 176879, Note_on_c, 2, 64, 0
5, 177120, Note_on_c, 2, 60, 80
5, 177120, Note_on_c, 2, 64, 80
5, 177359, Note_on_c, 2, 60, 0
5, 177359, Note_on_c, 2, 64, 0
5, 177600, Note_on_c, 2, 60, 80
5, 177600, Control_c, 2, 2, 80
5, 177600, Note_on_c, 2, 64, 80
5, 177959, Note_on_c, 2, 60, 0
5, 177959, Note_on_c, 2, 64, 0
5, 177960, Note_on_c, 2, 60, 80
5, 177960, Control_c, 2, 2, 80
5, 177960, Note_on_c, 2, 64, 80
5, 178080, Control_c, 2, 2, 80
5, 178319, Note_on_c, 2, 60, 0
5, 178319, Note_on_c, 2, 64, 0
5, 178320, Note_on_c, 2, 60, 80
5, 178320, Control_c, 2, 2, 80
5, 178320, Note_on_c, 2, 65, 80
5, 178559, Note_on_c, 2, 60, 0
5, 178559, Note_on_c, 2, 65, 0
5, 178560, Note_on_c, 2, 55, 80
5, 178560, Control_c, 2, 2, 80
5, 178560, Note_on_c, 2, 60, 80
5, 178560, Note_on_c, 2, 64, 80
5, 178799, Note_on_c, 2, 55, 0
5, 178799, Note_on_c, 2, 60, 0
5, 178799, Note_on_c, 2, 64, 0
5, 179040, Note_on_c, 2, 60, 80
5, 179040, Control_c, 2, 2, 80
5, 179040, Note_on_c, 2, 64, 80
5, 179279, Note_on_c, 2, 60, 0
5, 179279, Note_on_c, 2, 64, 0
5, 179520, Note_on_c, 2, 60, 80
5, 179520, Control_c, 2, 2, 80
5, 179520, Note_on_c, 2, 64, 80
5, 179879, Note_on_c, 2, 60, 0
5, 179879, Note_on_c, 2, 64, 0
5, 179880, Note_on_c, 2, 60, 80
5, 179880, Note_on_c, 2, 64, 80
5, 180000, Control_c, 2, 2, 80
5, 180239, Note_on_c, 2, 60, 0
5, 180239, Note_on_c, 2, 64, 0
5, 180240, Note_on_c, 2, 60, 80
5, 180240, Control_c, 2, 2, 80
5, 180240, Note_on_c, 2, 65, 80
5, 180479, Note_on_c, 2, 60, 0
5, 180479, Note_on_c, 2, 65, 0
5, 180480, Note_on_c, 2, 55, 80
5, 180480, Control_c, 2, 2, 80
5, 180480, Note_on_c, 2, 59, 80
5, 180480, Note_on_c, 2, 64, 80
5, 180719, Note_on_c, 2, 55, 0
5, 180719, Note_on_c, 2, 59, 0
5, 180719, Note_on_c, 2, 64, 0
5, 180960, Note_on_c, 2, 59, 80
5, 180960, Control_c, 2, 2, 80
5, 180960, Note_on_c, 2, 64, 80
5, 181199, Note_on_c, 2, 59, 0
5, 181199, Note_on_c, 2, 64, 0
5, 181440, Note_on_c, 2, 59, 80
5, 181440, Control_c, 2, 2, 80
5, 181440, Note_on_c, 2, 64, 80
5, 181799, Note_on_c, 2, 59, 0
5, 181799, Note_on_c, 2, 64, 0
5, 181800, Note_on_c, 2, 59, 80
5, 181800, Note_on_c, 2, 64, 80
5, 181920, Control_c, 2, 2, 80
5, 182159, Note_on_c, 2, 59, 0
5, 182159, Note_on_c, 2, 64, 0
5, 182160, Note_on_c, 2, 59, 80
5, 182160, Control_c, 2, 2, 80
5, 182160, Note_on_c, 2, 65, 80
5, 182399, Note_on_c, 2, 59, 0
5, 182399, Note_on_c, 2, 65, 0
5, 182400, Note_on_c, 2, 59, 80
5, 182400, Control_c, 2, 2, 80
5, 182400, Note_on_c, 2, 62, 80
5, 182400, Note_on_c, 2, 67, 80
5, 182639, Note_on_c, 2, 59, 0
5, 182639, Note_on_c, 2, 62, 0
5, 182639, Note_on_c, 2, 67, 0
5, 182880, Note_on_c, 2, 62, 80
5, 182880, Note_on_c, 2, 67, 80
5, 183119, Note_on_c, 2, 62, 0
5, 183119, Note_on_c, 2, 67, 0
5, 183360, Note_on_c, 2, 62, 80
5, 183360, Note_on_c, 2, 67, 80
5, 183719, Note_on_c, 2, 62, 0
5, 183719, Note_on_c, 2, 67, 0
5, 183720, Note_on_c, 2, 62, 80
5, 183720, Note_on_c, 2, 67, 80
5, 184079, Note_on_c, 2, 62, 0
5, 184079, Note_on_c, 2, 67, 0
5, 184080, Note_on_c, 2, 62, 80
5, 184080, Note_on_c, 2, 67, 80
5, 184319, Note_on_c, 2, 62, 0
5, 184319, Note_on_c, 2, 67, 0
5, 184320, Note_on_c, 2, 57, 80
5, 184320, Note_on_c, 2, 60, 80
5, 184320, Note_on_c, 2, 64, 80
5, 184559, Note_on_c, 2, 57, 0
5, 184559, Note_on_c, 2, 60, 0
5, 184559, Note_on_c, 2, 64, 0
5, 184800, Note_on_c, 2, 60, 80
5, 184800, Note_on_c, 2, 64, 80
5, 185039, Note_on_c, 2, 60, 0
5, 185039, Note_on_c, 2, 64, 0
5, 185280, Note_on_c, 2, 60, 80
5, 185280, Control_c, 2, 2, 80
5, 185280, Note_on_c, 2, 64, 80
5, 185639, Note_on_c, 2, 60, 0
5, 185639, Note_on_c, 2, 64, 0
5, 185640, Note_on_c, 2, 60, 80
5, 185640, Control_c, 2, 2, 80
5, 185640, Note_on_c, 2, 64, 80
5, 185760, Control_c, 2, 2, 80
5, 185999, Note_on_c, 2, 60, 0
5, 185999, Note_on_c, 2, 64, 0
5, 186000, Note_on_c, 2, 60, 80
5, 186000, Control_c, 2, 2, 80
5, 186000, Note_on_c, 2, 65, 80
5, 186239, Note_on_c, 2, 60, 0
5, 186239, Note_on_c, 2, 65, 0
5, 186240, Note_on_c, 2, 55, 80
5, 186240, Control_c, 2, 2, 80
5, 186240, Note_on_c, 2, 60, 80
5, 186240, Note_on_c, 2, 64, 80
5, 186479, Note_on_c, 2, 55, 0
5, 186479, Note_on_c, 2, 60, 0
5, 186479, Note_on_c, 2, 64, 0
5, 186720, Note_on_c, 2, 60, 80
5, 186720, Control_c, 2, 2, 80
5, 186720, Note_on_c, 2, 64, 80
5, 186959, Note_on_c, 2, 60, 0
5, 186959, Note_on_c, 2, 64, 0
5, 187200, Note_on_c, 2, 60, 80
5, 187200, Control_c, 2, 2, 80
5, 187200, Note_on_c, 2, 64, 80
5, 187559, Note_on_c, 2, 60, 0
5, 187559, Note_on_c, 2, 64, 0
5, 187560, Note_on_c, 2, 60, 80
5, 187560, Note_on_c, 2, 64, 80
5, 187680, Control_c, 2, 2, 80
5, 187919, Note_on_c, 2, 60, 0
5, 187919, Note_on_c, 2, 64, 0
5, 187920, Note_on_c, 2, 60, 80
5, 187920, Control_c, 2, 2, 80
5, 187920, Note_on_c, 2, 65, 80
5, 188159, Note_on_c, 2, 60, 0
5, 188159, Note_on_c, 2, 65, 0
5, 188160, Note_on_c, 2, 55, 80
5, 188160, Control_c, 2, 2, 80
5, 188160, Note_on_c, 2, 59, 80
5, 188160, Note_on_c, 2, 64, 80
5, 188399, Note_on_c, 2, 55, 0
5, 188399, Note_on_c, 2, 59, 0
5, 188399, Note_on_c, 2, 64, 0
5, 188640, Note_on_c, 2, 59, 80
5, 188640, Control_c, 2, 2, 80
5, 188640, Note_on_c, 2, 64, 80
5, 188879, Note_on_c, 2, 59, 0
5, 188879, Note_on_c, 2, 64, 0
5, 189120, Note_on_c, 2, 59, 80
5, 189120, Control_c, 2, 2, 80
5, 189120, Note_on_c, 2, 64, 80
5, 189479, Note_on_c, 2, 59, 0
5, 189479, Note_on_c, 2, 64, 0
5, 189480, Note_on_c, 2, 59, 80
5, 189480, Note_on_c, 2, 64, 80
5, 189600, Control_c, 2, 2, 80
5, 189839, Note_on_c, 2, 59, 0
5, 189839, Note_on_c, 2, 64, 0
5, 189840, Note_on_c, 2, 59, 80
5, 189840, Control_c, 2, 2, 80
5, 189840, Note_on_c, 2, 65, 80
5, 190079, Note_on_c, 2, 59, 0
5, 190079, Note_on_c, 2, 65, 0
5, 190080, Note_on_c, 2, 59, 80
5, 190080, Control_c, 2, 2, 80
5, 190080, Note_on_c, 2, 62, 80
5, 190080, Note_on_c, 2, 67, 80
5, 191039, Note_on_c, 2, 59, 0
5, 191039, Note_on_c, 2, 62, 0
5, 191039, Note_on_c, 2, 67, 0
5, 191040, End_track
0, 0, End_of_file
