0, 0, Header, 1, 3, 480
1, 0, Start_track
1, 0, Title_t, "Piano, Piano, Piano, Piano\000"
1, 0, Time_signature, 3, 2, 24, 8
1, 0, Key_signature, 0, "major"
1, 0, Tempo, 434783
1, 0, Control_c, 0, 121, 0
1, 0, Program_c, 0, 0
1, 0, Control_c, 0, 7, 100
1, 0, Control_c, 0, 10, 64
1, 0, Control_c, 0, 91, 0
1, 0, Control_c, 0, 93, 0
1, 0, MIDI_port, 0
1, 5760, Note_on_c, 0, 69, 80
1, 5840, Note_on_c, 0, 72, 80
1, 5920, Note_on_c, 0, 76, 80
1, 6215, Note_on_c, 0, 69, 0
1, 6219, Note_on_c, 0, 72, 0
1, 6223, Note_on_c, 0, 76, 0
1, 7200, Note_on_c, 0, 71, 80
1, 7200, Note_on_c, 0, 74, 80
1, 7655, Note_on_c, 0, 71, 0
1, 7655, Note_on_c, 0, 74, 0
1, 8160, Note_on_c, 0, 71, 80
1, 8160, Note_on_c, 0, 77, 80
1, 8615, Note_on_c, 0, 71, 0
1, 8615, Note_on_c, 0, 77, 0
1, 8640, Note_on_c, 0, 72, 80
1, 8640, Note_on_c, 0, 76, 80
1, 10463, Note_on_c, 0, 72, 0
1, 10463, Note_on_c, 0, 76, 0
1, 11040, Note_on_c, 0, 71, 80
1, 11343, Note_on_c, 0, 71, 0
1, 11360, Note_on_c, 0, 72, 80
1, 11511, Note_on_c, 0, 72, 0
1, 11520, Note_on_c, 0, 74, 80
1, 11823, Note_on_c, 0, 74, 0
1, 11840, Note_on_c, 0, 72, 80
1, 11991, Note_on_c, 0, 72, 0
1, 12000, Note_on_c, 0, 71, 80
1, 12239, Note_on_c, 0, 71, 0
1, 12480, Note_on_c, 0, 65, 80
1, 12480, Note_on_c, 0, 69, 80
1, 12719, Note_on_c, 0, 65, 0
1, 12719, Note_on_c, 0, 69, 0
1, 12960, Note_on_c, 0, 74, 80
1, 13263, Note_on_c, 0, 74, 0
1, 13280, Note_on_c, 0, 72, 80
1, 13431, Note_on_c, 0, 72, 0
1, 13440, Note_on_c, 0, 71, 80
1, 13679, Note_on_c, 0, 71, 0
1, 13920, Note_on_c, 0, 64, 80
1, 13920, Note_on_c, 0, 69, 80
1, 14159, Note_on_c, 0, 64, 0
1, 14159, Note_on_c, 0, 69, 0
1, 14400, Note_on_c, 0, 72, 80
1, 14400, Note_on_c, 0, 76, 80
1, 16223, Note_on_c, 0, 72, 0
1, 16223, Note_on_c, 0, 76, 0
1, 16800, Note_on_c, 0, 74, 80
1, 16951, Note_on_c, 0, 74, 0
1, 17120, Note_on_c, 0, 76, 80
1, 17271, Note_on_c, 0, 76, 0
1, 17280, Note_on_c, 0, 77, 80
1, 17519, Note_on_c, 0, 77, 0
1, 17760, Note_on_c, 0, 72, 80
1, 18215, Note_on_c, 0, 72, 0
1, 18240, Note_on_c, 0, 74, 80
1, 18479, Note_on_c, 0, 74, 0
1, 18720, Note_on_c, 0, 71, 80
1, 19175, Note_on_c, 0, 71, 0
1, 19680, Note_on_c, 0, 72, 80
1, 19831, Note_on_c, 0, 72, 0
1, 20000, Note_on_c, 0, 74, 80
1, 20151, Note_on_c, 0, 74, 0
1, 20160, Note_on_c, 0, 72, 80
1, 20160, Note_on_c, 0, 76, 80
1, 20399, Note_on_c, 0, 72, 0
1, 20399, Note_on_c, 0, 76, 0
1, 20640, Note_on_c, 0, 71, 80
1, 21095, Note_on_c, 0, 71, 0
1, 21120, Note_on_c, 0, 72, 80
1, 21359, Note_on_c, 0, 72, 0
1, 21600, Note_on_c, 0, 69, 80
1, 22055, Note_on_c, 0, 69, 0
1, 22560, Note_on_c, 0, 71, 80
1, 22863, Note_on_c, 0, 71, 0
1, 22880, Note_on_c, 0, 72, 80
1, 23031, Note_on_c, 0, 72, 0
1, 23040, Note_on_c, 0, 74, 80
1, 23040, Note_on_c, 0, 65, 80
1, 23343, Note_on_c, 0, 74, 0
1, 23360, Note_on_c, 0, 72, 80
1, 23495, Note_on_c, 0, 65, 0
1, 23511, Note_on_c, 0, 72, 0
1, 23520, Note_on_c, 0, 71, 80
1, 23759, Note_on_c, 0, 71, 0
1, 24000, Note_on_c, 0, 69, 80
1, 24239, Note_on_c, 0, 69, 0
1, 24480, Note_on_c, 0, 74, 80
1, 24783, Note_on_c, 0, 74, 0
1, 24800, Note_on_c, 0, 72, 80
1, 24951, Note_on_c, 0, 72, 0
1, 24960, Note_on_c, 0, 71, 80
1, 25199, Note_on_c, 0, 71, 0
1, 25440, Note_on_c, 0, 65, 80
1, 25895, Note_on_c, 0, 65, 0
1, 25920, Note_on_c, 0, 60, 80
1, 25920, Note_on_c, 0, 69, 80
1, 26159, Note_on_c, 0, 60, 0
1, 26159, Note_on_c, 0, 69, 0
1, 28320, Note_on_c, 0, 69, 80
1, 28559, Note_on_c, 0, 69, 0
1, 28800, Note_on_c, 0, 72, 80
1, 28800, Note_on_c, 0, 76, 80
1, 29711, Note_on_c, 0, 72, 0
1, 29711, Note_on_c, 0, 76, 0
1, 30080, Note_on_c, 0, 64, 80
1, 30231, Note_on_c, 0, 64, 0
1, 30240, Note_on_c, 0, 71, 80
1, 30240, Note_on_c, 0, 74, 80
1, 30695, Note_on_c, 0, 71, 0
1, 30695, Note_on_c, 0, 74, 0
1, 31200, Note_on_c, 0, 77, 80
1, 31655, Note_on_c, 0, 77, 0
1, 31680, Note_on_c, 0, 69, 80
1, 31680, Note_on_c, 0, 72, 80
1, 31680, Note_on_c, 0, 76, 80
1, 33503, Note_on_c, 0, 69, 0
1, 33503, Note_on_c, 0, 72, 0
1, 33503, Note_on_c, 0, 76, 0
1, 34080, Note_on_c, 0, 71, 80
1, 34231, Note_on_c, 0, 71, 0
1, 34400, Note_on_c, 0, 72, 80
1, 34551, Note_on_c, 0, 72, 0
1, 34560, Note_on_c, 0, 74, 80
1, 34863, Note_on_c, 0, 74, 0
1, 34880, Note_on_c, 0, 72, 80
1, 35031, Note_on_c, 0, 72, 0
1, 35040, Note_on_c, 0, 71, 80
1, 35495, Note_on_c, 0, 71, 0
1, 35520, Note_on_c, 0, 69, 80
1, 35975, Note_on_c, 0, 69, 0
1, 36000, Note_on_c, 0, 74, 80
1, 36303, Note_on_c, 0, 74, 0
1, 36320, Note_on_c, 0, 72, 80
1, 36471, Note_on_c, 0, 72, 0
1, 36480, Note_on_c, 0, 71, 80
1, 36935, Note_on_c, 0, 71, 0
1, 36960, Note_on_c, 0, 72, 80
1, 37415, Note_on_c, 0, 72, 0
1, 37440, Note_on_c, 0, 72, 80
1, 37440, Note_on_c, 0, 76, 80
1, 39719, Note_on_c, 0, 72, 0
1, 39719, Note_on_c, 0, 76, 0
1, 39840, Note_on_c, 0, 65, 80
1, 39840, Note_on_c, 0, 74, 80
1, 40181, Note_on_c, 0, 65, 0
1, 40181, Note_on_c, 0, 74, 0
1, 40200, Note_on_c, 0, 76, 80
1, 40313, Note_on_c, 0, 76, 0
1, 40320, Note_on_c, 0, 77, 80
1, 40320, Note_on_c, 0, 69, 80
1, 40471, Note_on_c, 0, 69, 0
1, 40480, Note_on_c, 0, 65, 80
1, 40631, Note_on_c, 0, 65, 0
1, 40640, Note_on_c, 0, 69, 80
1, 40775, Note_on_c, 0, 77, 0
1, 40791, Note_on_c, 0, 69, 0
1, 40800, Note_on_c, 0, 71, 80
1, 40800, Note_on_c, 0, 76, 80
1, 40951, Note_on_c, 0, 71, 0
1, 40960, Note_on_c, 0, 69, 80
1, 41111, Note_on_c, 0, 69, 0
1, 41120, Note_on_c, 0, 71, 80
1, 41255, Note_on_c, 0, 76, 0
1, 41271, Note_on_c, 0, 71, 0
1, 41280, Note_on_c, 0, 72, 80
1, 41359, Note_on_c, 0, 72, 0
1, 41440, Note_on_c, 0, 71, 80
1, 41591, Note_on_c, 0, 71, 0
1, 41600, Note_on_c, 0, 74, 80
1, 41751, Note_on_c, 0, 74, 0
1, 41760, Note_on_c, 0, 71, 80
1, 41839, Note_on_c, 0, 71, 0
1, 41920, Note_on_c, 0, 77, 80
1, 42071, Note_on_c, 0, 77, 0
1, 42080, Note_on_c, 0, 76, 80
1, 42231, Note_on_c, 0, 76, 0
1, 42240, Note_on_c, 0, 74, 80
1, 42391, Note_on_c, 0, 74, 0
1, 42400, Note_on_c, 0, 71, 80
1, 42551, Note_on_c, 0, 71, 0
1, 42560, Note_on_c, 0, 65, 80
1, 42711, Note_on_c, 0, 65, 0
1, 42720, Note_on_c, 0, 72, 80
1, 42799, Note_on_c, 0, 72, 0
1, 42880, Note_on_c, 0, 65, 80
1, 43031, Note_on_c, 0, 65, 0
1, 43040, Note_on_c, 0, 74, 80
1, 43119, Note_on_c, 0, 74, 0
1, 43200, Note_on_c, 0, 76, 80
1, 43279, Note_on_c, 0, 76, 0
1, 43360, Note_on_c, 0, 74, 80
1, 43511, Note_on_c, 0, 74, 0
1, 43520, Note_on_c, 0, 72, 80
1, 43671, Note_on_c, 0, 72, 0
1, 43680, Note_on_c, 0, 74, 80
1, 43759, Note_on_c, 0, 74, 0
1, 43840, Note_on_c, 0, 72, 80
1, 43991, Note_on_c, 0, 72, 0
1, 44000, Note_on_c, 0, 71, 80
1, 44151, Note_on_c, 0, 71, 0
1, 44160, Note_on_c, 0, 72, 80
1, 44239, Note_on_c, 0, 72, 0
1, 44320, Note_on_c, 0, 71, 80
1, 44471, Note_on_c, 0, 71, 0
1, 44480, Note_on_c, 0, 69, 80
1, 44631, Note_on_c, 0, 69, 0
1, 44640, Note_on_c, 0, 69, 80
1, 44791, Note_on_c, 0, 69, 0
1, 44800, Note_on_c, 0, 65, 80
1, 44951, Note_on_c, 0, 65, 0
1, 44960, Note_on_c, 0, 69, 80
1, 45111, Note_on_c, 0, 69, 0
1, 45120, Note_on_c, 0, 71, 80
1, 45271, Note_on_c, 0, 71, 0
1, 45280, Note_on_c, 0, 69, 80
1, 45431, Note_on_c, 0, 69, 0
1, 45440, Note_on_c, 0, 72, 80
1, 45591, Note_on_c, 0, 72, 0
1, 45600, Note_on_c, 0, 71, 80
1, 45751, Note_on_c, 0, 71, 0
1, 45760, Note_on_c, 0, 69, 80
1, 45911, Note_on_c, 0, 69, 0
1, 45920, Note_on_c, 0, 72, 80
1, 46071, Note_on_c, 0, 72, 0
1, 46080, Note_on_c, 0, 65, 80
1, 46080, Note_on_c, 0, 74, 80
1, 46231, Note_on_c, 0, 65, 0
1, 46240, Note_on_c, 0, 69, 80
1, 46383, Note_on_c, 0, 74, 0
1, 46391, Note_on_c, 0, 69, 0
1, 46400, Note_on_c, 0, 64, 80
1, 46400, Note_on_c, 0, 72, 80
1, 46551, Note_on_c, 0, 64, 0
1, 46551, Note_on_c, 0, 72, 0
1, 46560, Note_on_c, 0, 62, 80
1, 46560, Note_on_c, 0, 71, 80
1, 46711, Note_on_c, 0, 62, 0
1, 46711, Note_on_c, 0, 71, 0
1, 46720, Note_on_c, 0, 69, 80
1, 46871, Note_on_c, 0, 69, 0
1, 46880, Note_on_c, 0, 65, 80
1, 47031, Note_on_c, 0, 65, 0
1, 47040, Note_on_c, 0, 62, 80
1, 47040, Note_on_c, 0, 69, 80
1, 47119, Note_on_c, 0, 62, 0
1, 47119, Note_on_c, 0, 69, 0
1, 47200, Note_on_c, 0, 65, 80
1, 47351, Note_on_c, 0, 65, 0
1, 47360, Note_on_c, 0, 62, 80
1, 47511, Note_on_c, 0, 62, 0
1, 47520, Note_on_c, 0, 64, 80
1, 47520, Note_on_c, 0, 74, 80
1, 47671, Note_on_c, 0, 64, 0
1, 47671, Note_on_c, 0, 74, 0
1, 47680, Note_on_c, 0, 65, 80
1, 47831, Note_on_c, 0, 65, 0
1, 47840, Note_on_c, 0, 64, 80
1, 47840, Note_on_c, 0, 72, 80
1, 47991, Note_on_c, 0, 64, 0
1, 47991, Note_on_c, 0, 72, 0
1, 48000, Note_on_c, 0, 62, 80
1, 48000, Note_on_c, 0, 71, 80
1, 48151, Note_on_c, 0, 62, 0
1, 48160, Note_on_c, 0, 60, 80
1, 48311, Note_on_c, 0, 60, 0
1, 48320, Note_on_c, 0, 59, 80
1, 48455, Note_on_c, 0, 71, 0
1, 48471, Note_on_c, 0, 59, 0
1, 48480, Note_on_c, 0, 60, 80
1, 48480, Note_on_c, 0, 65, 80
1, 48631, Note_on_c, 0, 60, 0
1, 48640, Note_on_c, 0, 57, 80
1, 48791, Note_on_c, 0, 57, 0
1, 48800, Note_on_c, 0, 55, 80
1, 48935, Note_on_c, 0, 65, 0
1, 48951, Note_on_c, 0, 55, 0
1, 48960, Note_on_c, 0, 60, 80
1, 48960, Note_on_c, 0, 69, 80
1, 49199, Note_on_c, 0, 60, 0
1, 49199, Note_on_c, 0, 69, 0
1, 52560, Note_on_c, 0, 64, 80
1, 52787, Note_on_c, 0, 64, 0
1, 52800, Note_on_c, 0, 69, 80
1, 53027, Note_on_c, 0, 69, 0
1, 53040, Note_on_c, 0, 71, 80
1, 53267, Note_on_c, 0, 71, 0
1, 53280, Note_on_c, 0, 72, 80
1, 53735, Note_on_c, 0, 72, 0
1, 53760, Note_on_c, 0, 71, 80
1, 53760, Note_on_c, 0, 77, 80
1, 53999, Note_on_c, 0, 71, 0
1, 53999, Note_on_c, 0, 77, 0
1, 55440, Note_on_c, 0, 64, 80
1, 55667, Note_on_c, 0, 64, 0
1, 55680, Note_on_c, 0, 69, 80
1, 55907, Note_on_c, 0, 69, 0
1, 55920, Note_on_c, 0, 71, 80
1, 56147, Note_on_c, 0, 71, 0
1, 56160, Note_on_c, 0, 72, 80
1, 56615, Note_on_c, 0, 72, 0
1, 56640, Note_on_c, 0, 71, 80
1, 56640, Note_on_c, 0, 77, 80
1, 56879, Note_on_c, 0, 71, 0
1, 56879, Note_on_c, 0, 77, 0
1, 57600, Note_on_c, 0, 77, 80
1, 57751, Note_on_c, 0, 77, 0
1, 57760, Note_on_c, 0, 76, 80
1, 57911, Note_on_c, 0, 76, 0
1, 57920, Note_on_c, 0, 77, 80
1, 58071, Note_on_c, 0, 77, 0
1, 58080, Note_on_c, 0, 76, 80
1, 58231, Note_on_c, 0, 76, 0
1, 58240, Note_on_c, 0, 74, 80
1, 58391, Note_on_c, 0, 74, 0
1, 58400, Note_on_c, 0, 76, 80
1, 58551, Note_on_c, 0, 76, 0
1, 58560, Note_on_c, 0, 72, 80
1, 58711, Note_on_c, 0, 72, 0
1, 58720, Note_on_c, 0, 71, 80
1, 58871, Note_on_c, 0, 71, 0
1, 58880, Note_on_c, 0, 72, 80
1, 59031, Note_on_c, 0, 72, 0
1, 59040, Note_on_c, 0, 71, 80
1, 59191, Note_on_c, 0, 71, 0
1, 59200, Note_on_c, 0, 69, 80
1, 59351, Note_on_c, 0, 69, 0
1, 59360, Note_on_c, 0, 71, 80
1, 59511, Note_on_c, 0, 71, 0
1, 59520, Note_on_c, 0, 64, 80
1, 59671, Note_on_c, 0, 64, 0
1, 59680, Note_on_c, 0, 62, 80
1, 59831, Note_on_c, 0, 62, 0
1, 59840, Note_on_c, 0, 60, 80
1, 59991, Note_on_c, 0, 60, 0
1, 60000, Note_on_c, 0, 67, 80
1, 60151, Note_on_c, 0, 67, 0
1, 60160, Note_on_c, 0, 65, 80
1, 60311, Note_on_c, 0, 65, 0
1, 60320, Note_on_c, 0, 64, 80
1, 60471, Note_on_c, 0, 64, 0
1, 60480, Note_on_c, 0, 69, 80
1, 60631, Note_on_c, 0, 69, 0
1, 60640, Note_on_c, 0, 65, 80
1, 60791, Note_on_c, 0, 65, 0
1, 60800, Note_on_c, 0, 64, 80
1, 60951, Note_on_c, 0, 64, 0
1, 60960, Note_on_c, 0, 71, 80
1, 61111, Note_on_c, 0, 71, 0
1, 61120, Note_on_c, 0, 65, 80
1, 61271, Note_on_c, 0, 65, 0
1, 61280, Note_on_c, 0, 64, 80
1, 61431, Note_on_c, 0, 64, 0
1, 61440, Note_on_c, 0, 72, 80
1, 61591, Note_on_c, 0, 72, 0
1, 61600, Note_on_c, 0, 65, 80
1, 61751, Note_on_c, 0, 65, 0
1, 61760, Note_on_c, 0, 72, 80
1, 61911, Note_on_c, 0, 72, 0
1, 61920, Note_on_c, 0, 65, 80
1, 62831, Note_on_c, 0, 65, 0
1, 63360, Note_on_c, 0, 74, 80
1, 63587, Note_on_c, 0, 74, 0
1, 63600, Note_on_c, 0, 72, 80
1, 63827, Note_on_c, 0, 72, 0
1, 63840, Note_on_c, 0, 71, 80
1, 64067, Note_on_c, 0, 71, 0
1, 64080, Note_on_c, 0, 69, 80
1, 64307, Note_on_c, 0, 69, 0
1, 64320, Note_on_c, 0, 65, 80
1, 64661, Note_on_c, 0, 65, 0
1, 64680, Note_on_c, 0, 69, 80
1, 64793, Note_on_c, 0, 69, 0
1, 64800, Note_on_c, 0, 71, 80
1, 65255, Note_on_c, 0, 71, 0
1, 65280, Note_on_c, 0, 69, 80
1, 66191, Note_on_c, 0, 69, 0
1, 66240, Note_on_c, 0, 76, 80
1, 66467, Note_on_c, 0, 76, 0
1, 66480, Note_on_c, 0, 74, 80
1, 66707, Note_on_c, 0, 74, 0
1, 66720, Note_on_c, 0, 72, 80
1, 66947, Note_on_c, 0, 72, 0
1, 66960, Note_on_c, 0, 71, 80
1, 67187, Note_on_c, 0, 71, 0
1, 67200, Note_on_c, 0, 69, 80
1, 67427, Note_on_c, 0, 69, 0
1, 67440, Note_on_c, 0, 64, 80
1, 67667, Note_on_c, 0, 64, 0
1, 67680, Note_on_c, 0, 65, 80
1, 68591, Note_on_c, 0, 65, 0
1, 69120, Note_on_c, 0, 65, 80
1, 69271, Note_on_c, 0, 65, 0
1, 69280, Note_on_c, 0, 59, 80
1, 69431, Note_on_c, 0, 59, 0
1, 69440, Note_on_c, 0, 60, 80
1, 69591, Note_on_c, 0, 60, 0
1, 69600, Note_on_c, 0, 64, 80
1, 69751, Note_on_c, 0, 64, 0
1, 69760, Note_on_c, 0, 69, 80
1, 69911, Note_on_c, 0, 69, 0
1, 69920, Note_on_c, 0, 71, 80
1, 70071, Note_on_c, 0, 71, 0
1, 70080, Note_on_c, 0, 72, 80
1, 70231, Note_on_c, 0, 72, 0
1, 70240, Note_on_c, 0, 76, 80
1, 70391, Note_on_c, 0, 76, 0
1, 70400, Note_on_c, 0, 81, 80
1, 70551, Note_on_c, 0, 81, 0
1, 70560, Note_on_c, 0, 83, 80
1, 71015, Note_on_c, 0, 83, 0
1, 71040, Note_on_c, 0, 84, 80
1, 71723, Note_on_c, 0, 84, 0
1, 71840, Note_on_c, 0, 76, 80
1, 71991, Note_on_c, 0, 76, 0
1, 72000, Note_on_c, 0, 81, 80
1, 72455, Note_on_c, 0, 81, 0
1, 72960, Note_on_c, 0, 64, 80
1, 73415, Note_on_c, 0, 64, 0
1, 73440, Note_on_c, 0, 65, 80
1, 74351, Note_on_c, 0, 65, 0
1, 74400, Note_on_c, 0, 60, 80
1, 74703, Note_on_c, 0, 60, 0
1, 74720, Note_on_c, 0, 65, 80
1, 74871, Note_on_c, 0, 65, 0
1, 74880, Note_on_c, 0, 60, 80
1, 74880, Note_on_c, 0, 64, 80
1, 75335, Note_on_c, 0, 60, 0
1, 75335, Note_on_c, 0, 64, 0
1, 77280, Note_on_c, 0, 62, 80
1, 77280, Note_on_c, 0, 71, 80
1, 77583, Note_on_c, 0, 62, 0
1, 77583, Note_on_c, 0, 71, 0
1, 77600, Note_on_c, 0, 64, 80
1, 77600, Note_on_c, 0, 72, 80
1, 77751, Note_on_c, 0, 64, 0
1, 77751, Note_on_c, 0, 72, 0
1, 77760, Note_on_c, 0, 65, 80
1, 77760, Note_on_c, 0, 74, 80
1, 78063, Note_on_c, 0, 65, 0
1, 78063, Note_on_c, 0, 74, 0
1, 78080, Note_on_c, 0, 69, 80
1, 78080, Note_on_c, 0, 72, 80
1, 78231, Note_on_c, 0, 69, 0
1, 78231, Note_on_c, 0, 72, 0
1, 78240, Note_on_c, 0, 71, 80
1, 78695, Note_on_c, 0, 71, 0
1, 78720, Note_on_c, 0, 69, 80
1, 79175, Note_on_c, 0, 69, 0
1, 79200, Note_on_c, 0, 65, 80
1, 79200, Note_on_c, 0, 74, 80
1, 79503, Note_on_c, 0, 65, 0
1, 79503, Note_on_c, 0, 74, 0
1, 79520, Note_on_c, 0, 69, 80
1, 79520, Note_on_c, 0, 72, 80
1, 79671, Note_on_c, 0, 69, 0
1, 79671, Note_on_c, 0, 72, 0
1, 79680, Note_on_c, 0, 71, 80
1, 80135, Note_on_c, 0, 71, 0
1, 80160, Note_on_c, 0, 64, 80
1, 80160, Note_on_c, 0, 72, 80
1, 80615, Note_on_c, 0, 64, 0
1, 80615, Note_on_c, 0, 72, 0
1, 80640, Note_on_c, 0, 69, 80
1, 80640, Note_on_c, 0, 72, 80
1, 80640, Note_on_c, 0, 76, 80
1, 82919, Note_on_c, 0, 69, 0
1, 82919, Note_on_c, 0, 72, 0
1, 82919, Note_on_c, 0, 76, 0
1, 83040, Note_on_c, 0, 74, 80
1, 83343, Note_on_c, 0, 74, 0
1, 83360, Note_on_c, 0, 76, 80
1, 83511, Note_on_c, 0, 76, 0
1, 83520, Note_on_c, 0, 77, 80
1, 84431, Note_on_c, 0, 77, 0
1, 84480, Note_on_c, 0, 76, 80
1, 84935, Note_on_c, 0, 76, 0
1, 84960, Note_on_c, 0, 74, 80
1, 85415, Note_on_c, 0, 74, 0
1, 85440, Note_on_c, 0, 64, 80
1, 85440, Note_on_c, 0, 71, 80
1, 85895, Note_on_c, 0, 64, 0
1, 85895, Note_on_c, 0, 71, 0
1, 85920, Note_on_c, 0, 72, 80
1, 86223, Note_on_c, 0, 72, 0
1, 86240, Note_on_c, 0, 74, 80
1, 86391, Note_on_c, 0, 74, 0
1, 86400, Note_on_c, 0, 69, 80
1, 86400, Note_on_c, 0, 72, 80
1, 86400, Note_on_c, 0, 76, 80
1, 86855, Note_on_c, 0, 69, 0
1, 86855, Note_on_c, 0, 72, 0
1, 86855, Note_on_c, 0, 76, 0
1, 87360, Note_on_c, 0, 72, 80
1, 87815, Note_on_c, 0, 72, 0
1, 87840, Note_on_c, 0, 62, 80
1, 87840, Note_on_c, 0, 71, 80
1, 88295, Note_on_c, 0, 62, 0
1, 88295, Note_on_c, 0, 71, 0
1, 88320, Note_on_c, 0, 69, 80
1, 88775, Note_on_c, 0, 69, 0
1, 88800, Note_on_c, 0, 62, 80
1, 88800, Note_on_c, 0, 71, 80
1, 89103, Note_on_c, 0, 62, 0
1, 89103, Note_on_c, 0, 71, 0
1, 89120, Note_on_c, 0, 64, 80
1, 89120, Note_on_c, 0, 72, 80
1, 89271, Note_on_c, 0, 64, 0
1, 89271, Note_on_c, 0, 72, 0
1, 89280, Note_on_c, 0, 65, 80
1, 89280, Note_on_c, 0, 74, 80
1, 89735, Note_on_c, 0, 65, 0
1, 89735, Note_on_c, 0, 74, 0
1, 89760, Note_on_c, 0, 74, 80
1, 89760, Note_on_c, 0, 81, 80
1, 89999, Note_on_c, 0, 74, 0
1, 89999, Note_on_c, 0, 81, 0
1, 90240, Note_on_c, 0, 62, 80
1, 90240, Note_on_c, 0, 71, 80
1, 90391, Note_on_c, 0, 62, 0
1, 90391, Note_on_c, 0, 71, 0
1, 90560, Note_on_c, 0, 65, 80
1, 90560, Note_on_c, 0, 72, 80
1, 90711, Note_on_c, 0, 65, 0
1, 90711, Note_on_c, 0, 72, 0
1, 90720, Note_on_c, 0, 71, 80
1, 90720, Note_on_c, 0, 76, 80
1, 91175, Note_on_c, 0, 71, 0
1, 91175, Note_on_c, 0, 76, 0
1, 91200, Note_on_c, 0, 72, 80
1, 91200, Note_on_c, 0, 77, 80
1, 91439, Note_on_c, 0, 72, 0
1, 91439, Note_on_c, 0, 77, 0
1, 91680, Tempo, 521739
1, 91680, Note_on_c, 0, 62, 80
1, 91680, Note_on_c, 0, 64, 80
1, 92135, Note_on_c, 0, 62, 0
1, 92135, Note_on_c, 0, 64, 0
1, 92160, Tempo, 545455
1, 92160, Note_on_c, 0, 60, 80
1, 92160, Note_on_c, 0, 64, 80
1, 92160, Note_on_c, 0, 69, 80
1, 92615, Note_on_c, 0, 60, 0
1, 92615, Note_on_c, 0, 64, 0
1, 92615, Note_on_c, 0, 69, 0
1, 92640, Tempo, 434783
1, 92640, Note_on_c, 0, 72, 80
1, 93095, Note_on_c, 0, 72, 0
1, 93120, Note_on_c, 0, 76, 80
1, 93575, Note_on_c, 0, 76, 0
1, 93600, Note_on_c, 0, 69, 80
1, 93600, Note_on_c, 0, 72, 80
1, 93600, Note_on_c, 0, 77, 80
1, 94055, Note_on_c, 0, 69, 0
1, 94055, Note_on_c, 0, 72, 0
1, 94055, Note_on_c, 0, 77, 0
1, 94080, Note_on_c, 0, 69, 80
1, 94535, Note_on_c, 0, 69, 0
1, 94560, Note_on_c, 0, 71, 80
1, 94560, Note_on_c, 0, 79, 80
1, 95015, Note_on_c, 0, 71, 0
1, 95015, Note_on_c, 0, 79, 0
1, 95040, Note_on_c, 0, 69, 80
1, 95040, Note_on_c, 0, 72, 80
1, 95040, Note_on_c, 0, 76, 80
1, 95495, Note_on_c, 0, 69, 0
1, 95495, Note_on_c, 0, 72, 0
1, 95495, Note_on_c, 0, 76, 0
1, 95520, Note_on_c, 0, 76, 80
1, 95671, Note_on_c, 0, 76, 0
1, 95680, Note_on_c, 0, 72, 80
1, 95831, Note_on_c, 0, 72, 0
1, 95840, Note_on_c, 0, 69, 80
1, 95991, Note_on_c, 0, 69, 0
1, 96000, Note_on_c, 0, 72, 80
1, 96151, Note_on_c, 0, 72, 0
1, 96160, Note_on_c, 0, 69, 80
1, 96311, Note_on_c, 0, 69, 0
1, 96320, Note_on_c, 0, 64, 80
1, 96471, Note_on_c, 0, 64, 0
1, 97440, Note_on_c, 0, 71, 80
1, 97743, Note_on_c, 0, 71, 0
1, 97760, Note_on_c, 0, 72, 80
1, 97911, Note_on_c, 0, 72, 0
1, 97920, Note_on_c, 0, 65, 80
1, 97920, Note_on_c, 0, 74, 80
1, 98223, Note_on_c, 0, 65, 0
1, 98223, Note_on_c, 0, 74, 0
1, 98240, Note_on_c, 0, 72, 80
1, 98391, Note_on_c, 0, 72, 0
1, 98400, Note_on_c, 0, 71, 80
1, 98855, Note_on_c, 0, 71, 0
1, 98880, Note_on_c, 0, 69, 80
1, 99335, Note_on_c, 0, 69, 0
1, 99360, Note_on_c, 0, 65, 80
1, 99360, Note_on_c, 0, 74, 80
1, 99663, Note_on_c, 0, 65, 0
1, 99663, Note_on_c, 0, 74, 0
1, 99680, Note_on_c, 0, 72, 80
1, 99831, Note_on_c, 0, 72, 0
1, 99840, Note_on_c, 0, 71, 80
1, 100295, Note_on_c, 0, 71, 0
1, 100320, Note_on_c, 0, 72, 80
1, 100775, Note_on_c, 0, 72, 0
1, 100800, Note_on_c, 0, 69, 80
1, 100800, Note_on_c, 0, 72, 80
1, 100800, Note_on_c, 0, 76, 80
1, 101255, Note_on_c, 0, 69, 0
1, 101255, Note_on_c, 0, 72, 0
1, 101255, Note_on_c, 0, 76, 0
1, 101280, Note_on_c, 0, 76, 80
1, 101431, Note_on_c, 0, 76, 0
1, 101440, Note_on_c, 0, 72, 80
1, 101591, Note_on_c, 0, 72, 0
1, 101600, Note_on_c, 0, 69, 80
1, 101751, Note_on_c, 0, 69, 0
1, 101760, Note_on_c, 0, 72, 80
1, 101911, Note_on_c, 0, 72, 0
1, 101920, Note_on_c, 0, 69, 80
1, 102071, Note_on_c, 0, 69, 0
1, 102080, Note_on_c, 0, 64, 80
1, 102231, Note_on_c, 0, 64, 0
1, 102240, Note_on_c, 0, 69, 80
1, 103151, Note_on_c, 0, 69, 0
1, 103200, Note_on_c, 0, 74, 80
1, 103503, Note_on_c, 0, 74, 0
1, 103520, Note_on_c, 0, 76, 80
1, 103671, Note_on_c, 0, 76, 0
1, 103680, Note_on_c, 0, 69, 80
1, 103680, Note_on_c, 0, 77, 80
1, 104135, Note_on_c, 0, 69, 0
1, 104135, Note_on_c, 0, 77, 0
1, 104160, Note_on_c, 0, 76, 80
1, 104615, Note_on_c, 0, 76, 0
1, 104640, Note_on_c, 0, 74, 80
1, 105095, Note_on_c, 0, 74, 0
1, 105120, Note_on_c, 0, 64, 80
1, 105120, Note_on_c, 0, 72, 80
1, 105575, Note_on_c, 0, 64, 0
1, 105575, Note_on_c, 0, 72, 0
1, 105600, Note_on_c, 0, 64, 80
1, 105600, Note_on_c, 0, 71, 80
1, 106055, Note_on_c, 0, 64, 0
1, 106055, Note_on_c, 0, 71, 0
1, 106080, Note_on_c, 0, 64, 80
1, 106080, Note_on_c, 0, 72, 80
1, 106383, Note_on_c, 0, 64, 0
1, 106383, Note_on_c, 0, 72, 0
1, 106400, Note_on_c, 0, 74, 80
1, 106551, Note_on_c, 0, 74, 0
1, 106560, Note_on_c, 0, 69, 80
1, 106560, Note_on_c, 0, 72, 80
1, 106560, Note_on_c, 0, 76, 80
1, 107015, Note_on_c, 0, 69, 0
1, 107015, Note_on_c, 0, 72, 0
1, 107015, Note_on_c, 0, 76, 0
1, 107040, Note_on_c, 0, 74, 80
1, 107495, Note_on_c, 0, 74, 0
1, 107520, Note_on_c, 0, 72, 80
1, 107975, Note_on_c, 0, 72, 0
1, 108000, Note_on_c, 0, 65, 80
1, 108000, Note_on_c, 0, 71, 80
1, 108455, Note_on_c, 0, 65, 0
1, 108455, Note_on_c, 0, 71, 0
1, 108480, Note_on_c, 0, 60, 80
1, 108480, Note_on_c, 0, 69, 80
1, 108935, Note_on_c, 0, 60, 0
1, 108935, Note_on_c, 0, 69, 0
1, 108960, Note_on_c, 0, 71, 80
1, 109263, Note_on_c, 0, 71, 0
1, 109280, Note_on_c, 0, 72, 80
1, 109431, Note_on_c, 0, 72, 0
1, 109440, Note_on_c, 0, 65, 80
1, 109440, Note_on_c, 0, 74, 80
1, 109743, Note_on_c, 0, 65, 0
1, 109743, Note_on_c, 0, 74, 0
1, 109760, Note_on_c, 0, 72, 80
1, 109911, Note_on_c, 0, 72, 0
1, 109920, Note_on_c, 0, 62, 80
1, 109920, Note_on_c, 0, 71, 80
1, 110375, Note_on_c, 0, 62, 0
1, 110375, Note_on_c, 0, 71, 0
1, 110400, Note_on_c, 0, 62, 80
1, 110400, Note_on_c, 0, 69, 80
1, 110855, Note_on_c, 0, 62, 0
1, 110855, Note_on_c, 0, 69, 0
1, 110880, Note_on_c, 0, 74, 80
1, 111183, Note_on_c, 0, 74, 0
1, 111200, Note_on_c, 0, 64, 80
1, 111200, Note_on_c, 0, 72, 80
1, 111351, Note_on_c, 0, 64, 0
1, 111351, Note_on_c, 0, 72, 0
1, 111360, Note_on_c, 0, 64, 80
1, 111360, Note_on_c, 0, 71, 80
1, 111815, Note_on_c, 0, 64, 0
1, 111815, Note_on_c, 0, 71, 0
1, 111840, Note_on_c, 0, 64, 80
1, 112295, Note_on_c, 0, 64, 0
1, 112320, Note_on_c, 0, 60, 80
1, 112320, Note_on_c, 0, 64, 80
1, 112320, Note_on_c, 0, 69, 80
1, 112775, Note_on_c, 0, 60, 0
1, 112775, Note_on_c, 0, 64, 0
1, 112775, Note_on_c, 0, 69, 0
1, 113040, Note_on_c, 0, 74, 80
1, 113159, Note_on_c, 0, 74, 0
1, 113280, Note_on_c, 0, 72, 80
1, 113399, Note_on_c, 0, 72, 0
1, 113520, Note_on_c, 0, 71, 80
1, 113639, Note_on_c, 0, 71, 0
1, 113760, Note_on_c, 0, 69, 80
1, 113879, Note_on_c, 0, 69, 0
1, 114000, Note_on_c, 0, 64, 80
1, 114119, Note_on_c, 0, 64, 0
1, 114240, Note_on_c, 0, 60, 80
1, 114240, Note_on_c, 0, 64, 80
1, 114240, Note_on_c, 0, 69, 80
1, 115151, Note_on_c, 0, 60, 0
1, 115151, Note_on_c, 0, 64, 0
1, 115151, Note_on_c, 0, 69, 0
1, 115152, End_track
2, 0, Start_track
2, 0, Title_t, "Piano, Piano, Piano, Piano\000"
2, 0, Key_signature, 0, "major"
2, 0, MIDI_port, 0
2, 0, Note_on_c, 0, 57, 80
2, 455, Note_on_c, 0, 57, 0
2, 480, Note_on_c, 0, 60, 80
2, 480, Note_on_c, 0, 64, 80
2, 719, Note_on_c, 0, 60, 0
2, 719, Note_on_c, 0, 64, 0
2, 960, Note_on_c, 0, 60, 80
2, 960, Note_on_c, 0, 64, 80
2, 1199, Note_on_c, 0, 60, 0
2, 1199, Note_on_c, 0, 64, 0
2, 1440, Note_on_c, 0, 52, 80
2, 1895, Note_on_c, 0, 52, 0
2, 1920, Note_on_c, 0, 59, 80
2, 1920, Note_on_c, 0, 65, 80
2, 2159, Note_on_c, 0, 59, 0
2, 2159, Note_on_c, 0, 65, 0
2, 2400, Note_on_c, 0, 59, 80
2, 2400, Note_on_c, 0, 65, 80
2, 2639, Note_on_c, 0, 59, 0
2, 2639, Note_on_c, 0, 65, 0
2, 2880, Note_on_c, 0, 57, 80
2, 3335, Note_on_c, 0, 57, 0
2, 3360, Note_on_c, 0, 60, 80
2, 3360, Note_on_c, 0, 64, 80
2, 3599, Note_on_c, 0, 60, 0
2, 3599, Note_on_c, 0, 64, 0
2, 3840, Note_on_c, 0, 60, 80
2, 3840, Note_on_c, 0, 64, 80
2, 4079, Note_on_c, 0, 60, 0
2, 4079, Note_on_c, 0, 64, 0
2, 4320, Note_on_c, 0, 52, 80
2, 4559, Note_on_c, 0, 52, 0
2, 4800, Note_on_c, 0, 59, 80
2, 4800, Note_on_c, 0, 65, 80
2, 5039, Note_on_c, 0, 59, 0
2, 5039, Note_on_c, 0, 65, 0
2, 5280, Note_on_c, 0, 59, 80
2, 5280, Note_on_c, 0, 65, 80
2, 5519, Note_on_c, 0, 59, 0
2, 5519, Note_on_c, 0, 65, 0
2, 5760, Note_on_c, 0, 57, 80
2, 6215, Note_on_c, 0, 57, 0
2, 6240, Note_on_c, 0, 60, 80
2, 6240, Note_on_c, 0, 64, 80
2, 6479, Note_on_c, 0, 60, 0
2, 6479, Note_on_c, 0, 64, 0
2, 6720, Note_on_c, 0, 60, 80
2, 6720, Note_on_c, 0, 64, 80
2, 6959, Note_on_c, 0, 60, 0
2, 6959, Note_on_c, 0, 64, 0
2, 7200, Note_on_c, 0, 52, 80
2, 7655, Note_on_c, 0, 52, 0
2, 7680, Note_on_c, 0, 59, 80
2, 7680, Note_on_c, 0, 65, 80
2, 7919, Note_on_c, 0, 59, 0
2, 7919, Note_on_c, 0, 65, 0
2, 8160, Note_on_c, 0, 59, 80
2, 8160, Note_on_c, 0, 65, 80
2, 8399, Note_on_c, 0, 59, 0
2, 8399, Note_on_c, 0, 65, 0
2, 8640, Note_on_c, 0, 57, 80
2, 9095, Note_on_c, 0, 57, 0
2, 9120, Note_on_c, 0, 60, 80
2, 9120, Note_on_c, 0, 64, 80
2, 9359, Note_on_c, 0, 60, 0
2, 9359, Note_on_c, 0, 64, 0
2, 9600, Note_on_c, 0, 60, 80
2, 9600, Note_on_c, 0, 64, 80
2, 9839, Note_on_c, 0, 60, 0
2, 9839, Note_on_c, 0, 64, 0
2, 10080, Note_on_c, 0, 52, 80
2, 10535, Note_on_c, 0, 52, 0
2, 10560, Note_on_c, 0, 60, 80
2, 10560, Note_on_c, 0, 64, 80
2, 10799, Note_on_c, 0, 60, 0
2, 10799, Note_on_c, 0, 64, 0
2, 11040, Note_on_c, 0, 60, 80
2, 11040, Note_on_c, 0, 64, 80
2, 11279, Note_on_c, 0, 60, 0
2, 11279, Note_on_c, 0, 64, 0
2, 11520, Note_on_c, 0, 50, 80
2, 11975, Note_on_c, 0, 50, 0
2, 12000, Note_on_c, 0, 53, 80
2, 12239, Note_on_c, 0, 53, 0
2, 12480, Note_on_c, 0, 57, 80
2, 12719, Note_on_c, 0, 57, 0
2, 12960, Note_on_c, 0, 52, 80
2, 13415, Note_on_c, 0, 52, 0
2, 13440, Note_on_c, 0, 57, 80
2, 13679, Note_on_c, 0, 57, 0
2, 13920, Note_on_c, 0, 60, 80
2, 14159, Note_on_c, 0, 60, 0
2, 14400, Note_on_c, 0, 57, 80
2, 14855, Note_on_c, 0, 57, 0
2, 14880, Note_on_c, 0, 60, 80
2, 14880, Note_on_c, 0, 64, 80
2, 15119, Note_on_c, 0, 60, 0
2, 15119, Note_on_c, 0, 64, 0
2, 15360, Note_on_c, 0, 60, 80
2, 15360, Note_on_c, 0, 64, 80
2, 15599, Note_on_c, 0, 60, 0
2, 15599, Note_on_c, 0, 64, 0
2, 15840, Note_on_c, 0, 52, 80
2, 16295, Note_on_c, 0, 52, 0
2, 16320, Note_on_c, 0, 60, 80
2, 16320, Note_on_c, 0, 64, 80
2, 16559, Note_on_c, 0, 60, 0
2, 16559, Note_on_c, 0, 64, 0
2, 16800, Note_on_c, 0, 60, 80
2, 16800, Note_on_c, 0, 64, 80
2, 17039, Note_on_c, 0, 60, 0
2, 17039, Note_on_c, 0, 64, 0
2, 17280, Note_on_c, 0, 50, 80
2, 17735, Note_on_c, 0, 50, 0
2, 17760, Note_on_c, 0, 53, 80
2, 17760, Note_on_c, 0, 57, 80
2, 17999, Note_on_c, 0, 53, 0
2, 17999, Note_on_c, 0, 57, 0
2, 18240, Note_on_c, 0, 57, 80
2, 18240, Note_on_c, 0, 62, 80
2, 18479, Note_on_c, 0, 57, 0
2, 18479, Note_on_c, 0, 62, 0
2, 18720, Note_on_c, 0, 52, 80
2, 19175, Note_on_c, 0, 52, 0
2, 19200, Note_on_c, 0, 59, 80
2, 19200, Note_on_c, 0, 65, 80
2, 19439, Note_on_c, 0, 59, 0
2, 19439, Note_on_c, 0, 65, 0
2, 19680, Note_on_c, 0, 59, 80
2, 19680, Note_on_c, 0, 64, 80
2, 19919, Note_on_c, 0, 59, 0
2, 19919, Note_on_c, 0, 64, 0
2, 20160, Note_on_c, 0, 57, 80
2, 20615, Note_on_c, 0, 57, 0
2, 20640, Note_on_c, 0, 60, 80
2, 20640, Note_on_c, 0, 64, 80
2, 20879, Note_on_c, 0, 60, 0
2, 20879, Note_on_c, 0, 64, 0
2, 21120, Note_on_c, 0, 60, 80
2, 21120, Note_on_c, 0, 64, 80
2, 21359, Note_on_c, 0, 60, 0
2, 21359, Note_on_c, 0, 64, 0
2, 21600, Note_on_c, 0, 53, 80
2, 22055, Note_on_c, 0, 53, 0
2, 22080, Note_on_c, 0, 57, 80
2, 22080, Note_on_c, 0, 65, 80
2, 22319, Note_on_c, 0, 57, 0
2, 22319, Note_on_c, 0, 65, 0
2, 22560, Note_on_c, 0, 57, 80
2, 22560, Note_on_c, 0, 64, 80
2, 22799, Note_on_c, 0, 57, 0
2, 22799, Note_on_c, 0, 64, 0
2, 23040, Note_on_c, 0, 50, 80
2, 23495, Note_on_c, 0, 50, 0
2, 23520, Note_on_c, 0, 53, 80
2, 23520, Note_on_c, 0, 57, 80
2, 23759, Note_on_c, 0, 53, 0
2, 23759, Note_on_c, 0, 57, 0
2, 24000, Note_on_c, 0, 53, 80
2, 24000, Note_on_c, 0, 57, 80
2, 24000, Note_on_c, 0, 62, 80
2, 24239, Note_on_c, 0, 53, 0
2, 24239, Note_on_c, 0, 57, 0
2, 24239, Note_on_c, 0, 62, 0
2, 24480, Note_on_c, 0, 52, 80
2, 24935, Note_on_c, 0, 52, 0
2, 24960, Note_on_c, 0, 59, 80
2, 25199, Note_on_c, 0, 59, 0
2, 25440, Note_on_c, 0, 53, 80
2, 25895, Note_on_c, 0, 53, 0
2, 25920, Note_on_c, 0, 57, 80
2, 26159, Note_on_c, 0, 57, 0
2, 26400, Note_on_c, 0, 64, 80
2, 26519, Note_on_c, 0, 64, 0
2, 26640, Note_on_c, 0, 62, 80
2, 26759, Note_on_c, 0, 62, 0
2, 26880, Note_on_c, 0, 60, 80
2, 26999, Note_on_c, 0, 60, 0
2, 27120, Note_on_c, 0, 59, 80
2, 27239, Note_on_c, 0, 59, 0
2, 27360, Note_on_c, 0, 57, 80
2, 27599, Note_on_c, 0, 57, 0
2, 28800, Note_on_c, 0, 57, 80
2, 29255, Note_on_c, 0, 57, 0
2, 29280, Note_on_c, 0, 59, 80
2, 29280, Note_on_c, 0, 60, 80
2, 29280, Note_on_c, 0, 64, 80
2, 29519, Note_on_c, 0, 59, 0
2, 29519, Note_on_c, 0, 60, 0
2, 29519, Note_on_c, 0, 64, 0
2, 29760, Note_on_c, 0, 59, 80
2, 29760, Note_on_c, 0, 60, 80
2, 29760, Note_on_c, 0, 64, 80
2, 29999, Note_on_c, 0, 59, 0
2, 29999, Note_on_c, 0, 60, 0
2, 29999, Note_on_c, 0, 64, 0
2, 30240, Note_on_c, 0, 53, 80
2, 30695, Note_on_c, 0, 53, 0
2, 30720, Note_on_c, 0, 57, 80
2, 30720, Note_on_c, 0, 60, 80
2, 30720, Note_on_c, 0, 65, 80
2, 30959, Note_on_c, 0, 57, 0
2, 30959, Note_on_c, 0, 60, 0
2, 30959, Note_on_c, 0, 65, 0
2, 31200, Note_on_c, 0, 57, 80
2, 31200, Note_on_c, 0, 60, 80
2, 31200, Note_on_c, 0, 65, 80
2, 31439, Note_on_c, 0, 57, 0
2, 31439, Note_on_c, 0, 60, 0
2, 31439, Note_on_c, 0, 65, 0
2, 31680, Note_on_c, 0, 57, 80
2, 32135, Note_on_c, 0, 57, 0
2, 32160, Note_on_c, 0, 59, 80
2, 32160, Note_on_c, 0, 60, 80
2, 32160, Note_on_c, 0, 64, 80
2, 32399, Note_on_c, 0, 59, 0
2, 32399, Note_on_c, 0, 60, 0
2, 32399, Note_on_c, 0, 64, 0
2, 32640, Note_on_c, 0, 59, 80
2, 32640, Note_on_c, 0, 60, 80
2, 32640, Note_on_c, 0, 64, 80
2, 32879, Note_on_c, 0, 59, 0
2, 32879, Note_on_c, 0, 60, 0
2, 32879, Note_on_c, 0, 64, 0
2, 33120, Note_on_c, 0, 52, 80
2, 33575, Note_on_c, 0, 52, 0
2, 33600, Note_on_c, 0, 59, 80
2, 33600, Note_on_c, 0, 60, 80
2, 33600, Note_on_c, 0, 64, 80
2, 33839, Note_on_c, 0, 59, 0
2, 33839, Note_on_c, 0, 60, 0
2, 33839, Note_on_c, 0, 64, 0
2, 34080, Note_on_c, 0, 59, 80
2, 34080, Note_on_c, 0, 60, 80
2, 34080, Note_on_c, 0, 64, 80
2, 34319, Note_on_c, 0, 59, 0
2, 34319, Note_on_c, 0, 60, 0
2, 34319, Note_on_c, 0, 64, 0
2, 34560, Note_on_c, 0, 50, 80
2, 35015, Note_on_c, 0, 50, 0
2, 35040, Note_on_c, 0, 50, 80
2, 35040, Note_on_c, 0, 53, 80
2, 35040, Note_on_c, 0, 57, 80
2, 35279, Note_on_c, 0, 50, 0
2, 35279, Note_on_c, 0, 53, 0
2, 35279, Note_on_c, 0, 57, 0
2, 35520, Note_on_c, 0, 57, 80
2, 35520, Note_on_c, 0, 62, 80
2, 35759, Note_on_c, 0, 57, 0
2, 35759, Note_on_c, 0, 62, 0
2, 36000, Note_on_c, 0, 52, 80
2, 36455, Note_on_c, 0, 52, 0
2, 36480, Note_on_c, 0, 52, 80
2, 36480, Note_on_c, 0, 60, 80
2, 36719, Note_on_c, 0, 52, 0
2, 36719, Note_on_c, 0, 60, 0
2, 36960, Note_on_c, 0, 59, 80
2, 37199, Note_on_c, 0, 59, 0
2, 37440, Note_on_c, 0, 57, 80
2, 37440, Note_on_c, 0, 64, 80
2, 37895, Note_on_c, 0, 57, 0
2, 37895, Note_on_c, 0, 64, 0
2, 37920, Note_on_c, 0, 52, 80
2, 37920, Note_on_c, 0, 57, 80
2, 37920, Note_on_c, 0, 60, 80
2, 38159, Note_on_c, 0, 52, 0
2, 38159, Note_on_c, 0, 57, 0
2, 38159, Note_on_c, 0, 60, 0
2, 38400, Note_on_c, 0, 52, 80
2, 38400, Note_on_c, 0, 57, 80
2, 38400, Note_on_c, 0, 60, 80
2, 38639, Note_on_c, 0, 52, 0
2, 38639, Note_on_c, 0, 57, 0
2, 38639, Note_on_c, 0, 60, 0
2, 38880, Note_on_c, 0, 52, 80
2, 39335, Note_on_c, 0, 52, 0
2, 39360, Note_on_c, 0, 52, 80
2, 39360, Note_on_c, 0, 57, 80
2, 39360, Note_on_c, 0, 60, 80
2, 39599, Note_on_c, 0, 52, 0
2, 39599, Note_on_c, 0, 57, 0
2, 39599, Note_on_c, 0, 60, 0
2, 39840, Note_on_c, 0, 52, 80
2, 39840, Note_on_c, 0, 57, 80
2, 39840, Note_on_c, 0, 60, 80
2, 40079, Note_on_c, 0, 52, 0
2, 40079, Note_on_c, 0, 57, 0
2, 40079, Note_on_c, 0, 60, 0
2, 40320, Note_on_c, 0, 50, 80
2, 40775, Note_on_c, 0, 50, 0
2, 40800, Note_on_c, 0, 53, 80
2, 40800, Note_on_c, 0, 57, 80
2, 40800, Note_on_c, 0, 62, 80
2, 41039, Note_on_c, 0, 53, 0
2, 41039, Note_on_c, 0, 57, 0
2, 41039, Note_on_c, 0, 62, 0
2, 41280, Note_on_c, 0, 62, 80
2, 41280, Note_on_c, 0, 65, 80
2, 41519, Note_on_c, 0, 62, 0
2, 41519, Note_on_c, 0, 65, 0
2, 41760, Note_on_c, 0, 59, 80
2, 42215, Note_on_c, 0, 59, 0
2, 42240, Note_on_c, 0, 53, 80
2, 42240, Note_on_c, 0, 59, 80
2, 42479, Note_on_c, 0, 53, 0
2, 42479, Note_on_c, 0, 59, 0
2, 42720, Note_on_c, 0, 59, 80
2, 42720, Note_on_c, 0, 62, 80
2, 42959, Note_on_c, 0, 59, 0
2, 42959, Note_on_c, 0, 62, 0
2, 43200, Note_on_c, 0, 57, 80
2, 43655, Note_on_c, 0, 57, 0
2, 43680, Note_on_c, 0, 57, 80
2, 43680, Note_on_c, 0, 60, 80
2, 43680, Note_on_c, 0, 64, 80
2, 43919, Note_on_c, 0, 57, 0
2, 43919, Note_on_c, 0, 60, 0
2, 43919, Note_on_c, 0, 64, 0
2, 44160, Note_on_c, 0, 60, 80
2, 44160, Note_on_c, 0, 64, 80
2, 44399, Note_on_c, 0, 60, 0
2, 44399, Note_on_c, 0, 64, 0
2, 44640, Note_on_c, 0, 53, 80
2, 45095, Note_on_c, 0, 53, 0
2, 45120, Note_on_c, 0, 53, 80
2, 45120, Note_on_c, 0, 57, 80
2, 45120, Note_on_c, 0, 60, 80
2, 45359, Note_on_c, 0, 53, 0
2, 45359, Note_on_c, 0, 57, 0
2, 45359, Note_on_c, 0, 60, 0
2, 45600, Note_on_c, 0, 57, 80
2, 45600, Note_on_c, 0, 60, 80
2, 45839, Note_on_c, 0, 57, 0
2, 45839, Note_on_c, 0, 60, 0
2, 46080, Note_on_c, 0, 50, 80
2, 46535, Note_on_c, 0, 50, 0
2, 46560, Note_on_c, 0, 53, 80
2, 46560, Note_on_c, 0, 57, 80
2, 46799, Note_on_c, 0, 53, 0
2, 46799, Note_on_c, 0, 57, 0
2, 47040, Note_on_c, 0, 57, 80
2, 47279, Note_on_c, 0, 57, 0
2, 47520, Note_on_c, 0, 52, 80
2, 47975, Note_on_c, 0, 52, 0
2, 48000, Note_on_c, 0, 52, 80
2, 48000, Note_on_c, 0, 59, 80
2, 48239, Note_on_c, 0, 52, 0
2, 48239, Note_on_c, 0, 59, 0
2, 48480, Note_on_c, 0, 52, 80
2, 48480, Note_on_c, 0, 59, 80
2, 48719, Note_on_c, 0, 52, 0
2, 48719, Note_on_c, 0, 59, 0
2, 48960, Note_on_c, 0, 57, 80
2, 49199, Note_on_c, 0, 57, 0
2, 49440, Note_on_c, 0, 60, 80
2, 49559, Note_on_c, 0, 60, 0
2, 49680, Note_on_c, 0, 59, 80
2, 49799, Note_on_c, 0, 59, 0
2, 49920, Note_on_c, 0, 64, 80
2, 50159, Note_on_c, 0, 64, 0
2, 50400, Note_on_c, 0, 57, 80
2, 50639, Note_on_c, 0, 57, 0
2, 51840, Note_on_c, 0, 52, 80
2, 51840, Note_on_c, 0, 57, 80
2, 52067, Note_on_c, 0, 52, 0
2, 52067, Note_on_c, 0, 57, 0
2, 52080, Note_on_c, 0, 59, 80
2, 52307, Note_on_c, 0, 59, 0
2, 52320, Note_on_c, 0, 57, 80
2, 52320, Note_on_c, 0, 60, 80
2, 52559, Note_on_c, 0, 57, 0
2, 52559, Note_on_c, 0, 60, 0
2, 52800, Note_on_c, 0, 60, 80
2, 52800, Note_on_c, 0, 64, 80
2, 53039, Note_on_c, 0, 60, 0
2, 53039, Note_on_c, 0, 64, 0
2, 53280, Note_on_c, 0, 53, 80
2, 53735, Note_on_c, 0, 53, 0
2, 53760, Note_on_c, 0, 53, 80
2, 53760, Note_on_c, 0, 60, 80
2, 53999, Note_on_c, 0, 53, 0
2, 53999, Note_on_c, 0, 60, 0
2, 54240, Note_on_c, 0, 60, 80
2, 54240, Note_on_c, 0, 65, 80
2, 54479, Note_on_c, 0, 60, 0
2, 54479, Note_on_c, 0, 65, 0
2, 54720, Note_on_c, 0, 52, 80
2, 54720, Note_on_c, 0, 57, 80
2, 54947, Note_on_c, 0, 52, 0
2, 54947, Note_on_c, 0, 57, 0
2, 54960, Note_on_c, 0, 59, 80
2, 55187, Note_on_c, 0, 59, 0
2, 55200, Note_on_c, 0, 57, 80
2, 55200, Note_on_c, 0, 60, 80
2, 55439, Note_on_c, 0, 57, 0
2, 55439, Note_on_c, 0, 60, 0
2, 55680, Note_on_c, 0, 60, 80
2, 55680, Note_on_c, 0, 64, 80
2, 55919, Note_on_c, 0, 60, 0
2, 55919, Note_on_c, 0, 64, 0
2, 56160, Note_on_c, 0, 53, 80
2, 56615, Note_on_c, 0, 53, 0
2, 56640, Note_on_c, 0, 53, 80
2, 56640, Note_on_c, 0, 60, 80
2, 56879, Note_on_c, 0, 53, 0
2, 56879, Note_on_c, 0, 60, 0
2, 57120, Note_on_c, 0, 60, 80
2, 57120, Note_on_c, 0, 65, 80
2, 57359, Note_on_c, 0, 60, 0
2, 57359, Note_on_c, 0, 65, 0
2, 57600, Note_on_c, 0, 57, 80
2, 58055, Note_on_c, 0, 57, 0
2, 58080, Note_on_c, 0, 57, 80
2, 58080, Note_on_c, 0, 60, 80
2, 58080, Note_on_c, 0, 64, 80
2, 58319, Note_on_c, 0, 57, 0
2, 58319, Note_on_c, 0, 60, 0
2, 58319, Note_on_c, 0, 64, 0
2, 58560, Note_on_c, 0, 60, 80
2, 58560, Note_on_c, 0, 69, 80
2, 58799, Note_on_c, 0, 60, 0
2, 58799, Note_on_c, 0, 69, 0
2, 59040, Note_on_c, 0, 53, 80
2, 59495, Note_on_c, 0, 53, 0
2, 59520, Note_on_c, 0, 53, 80
2, 59520, Note_on_c, 0, 60, 80
2, 59759, Note_on_c, 0, 53, 0
2, 59759, Note_on_c, 0, 60, 0
2, 60000, Note_on_c, 0, 60, 80
2, 60000, Note_on_c, 0, 65, 80
2, 60160, Note_on_c, 0, 65, 0
2, 60239, Note_on_c, 0, 60, 0
2, 60960, Note_on_c, 0, 60, 80
2, 61199, Note_on_c, 0, 60, 0
2, 61440, Note_on_c, 0, 64, 80
2, 61679, Note_on_c, 0, 64, 0
2, 61920, Note_on_c, 0, 53, 80
2, 62375, Note_on_c, 0, 53, 0
2, 62400, Note_on_c, 0, 53, 80
2, 62400, Note_on_c, 0, 60, 80
2, 62639, Note_on_c, 0, 53, 0
2, 62639, Note_on_c, 0, 60, 0
2, 62880, Note_on_c, 0, 60, 80
2, 62880, Note_on_c, 0, 65, 80
2, 63119, Note_on_c, 0, 60, 0
2, 63119, Note_on_c, 0, 65, 0
2, 63360, Note_on_c, 0, 50, 80
2, 63815, Note_on_c, 0, 50, 0
2, 63840, Note_on_c, 0, 53, 80
2, 63840, Note_on_c, 0, 57, 80
2, 63840, Note_on_c, 0, 60, 80
2, 64079, Note_on_c, 0, 53, 0
2, 64079, Note_on_c, 0, 57, 0
2, 64079, Note_on_c, 0, 60, 0
2, 64320, Note_on_c, 0, 57, 80
2, 64320, Note_on_c, 0, 60, 80
2, 64559, Note_on_c, 0, 57, 0
2, 64559, Note_on_c, 0, 60, 0
2, 64800, Note_on_c, 0, 52, 80
2, 65255, Note_on_c, 0, 52, 0
2, 65280, Note_on_c, 0, 57, 80
2, 65280, Note_on_c, 0, 60, 80
2, 65519, Note_on_c, 0, 57, 0
2, 65519, Note_on_c, 0, 60, 0
2, 65760, Note_on_c, 0, 59, 80
2, 65760, Note_on_c, 0, 64, 80
2, 65999, Note_on_c, 0, 59, 0
2, 65999, Note_on_c, 0, 64, 0
2, 66240, Note_on_c, 0, 57, 80
2, 66695, Note_on_c, 0, 57, 0
2, 66720, Note_on_c, 0, 52, 80
2, 66720, Note_on_c, 0, 57, 80
2, 66720, Note_on_c, 0, 60, 80
2, 66959, Note_on_c, 0, 52, 0
2, 66959, Note_on_c, 0, 57, 0
2, 66959, Note_on_c, 0, 60, 0
2, 67200, Note_on_c, 0, 57, 80
2, 67200, Note_on_c, 0, 60, 80
2, 67200, Note_on_c, 0, 64, 80
2, 67439, Note_on_c, 0, 57, 0
2, 67439, Note_on_c, 0, 60, 0
2, 67439, Note_on_c, 0, 64, 0
2, 67680, Note_on_c, 0, 53, 80
2, 68135, Note_on_c, 0, 53, 0
2, 68160, Note_on_c, 0, 53, 80
2, 68160, Note_on_c, 0, 60, 80
2, 68399, Note_on_c, 0, 53, 0
2, 68399, Note_on_c, 0, 60, 0
2, 68640, Note_on_c, 0, 60, 80
2, 68640, Note_on_c, 0, 65, 80
2, 68879, Note_on_c, 0, 60, 0
2, 68879, Note_on_c, 0, 65, 0
2, 69120, Note_on_c, 0, 50, 80
2, 69575, Note_on_c, 0, 50, 0
2, 69600, Note_on_c, 0, 53, 80
2, 69600, Note_on_c, 0, 57, 80
2, 69600, Note_on_c, 0, 60, 80
2, 69839, Note_on_c, 0, 53, 0
2, 69839, Note_on_c, 0, 57, 0
2, 69839, Note_on_c, 0, 60, 0
2, 70080, Note_on_c, 0, 57, 80
2, 70080, Note_on_c, 0, 60, 80
2, 70080, Note_on_c, 0, 65, 80
2, 70319, Note_on_c, 0, 57, 0
2, 70319, Note_on_c, 0, 60, 0
2, 70319, Note_on_c, 0, 65, 0
2, 70560, Note_on_c, 0, 52, 80
2, 71015, Note_on_c, 0, 52, 0
2, 71040, Note_on_c, 0, 64, 80
2, 71267, Note_on_c, 0, 64, 0
2, 71280, Note_on_c, 0, 62, 80
2, 71507, Note_on_c, 0, 62, 0
2, 71520, Note_on_c, 0, 60, 80
2, 71747, Note_on_c, 0, 60, 0
2, 71760, Note_on_c, 0, 59, 80
2, 71987, Note_on_c, 0, 59, 0
2, 72000, Note_on_c, 0, 57, 80
2, 72455, Note_on_c, 0, 57, 0
2, 72480, Note_on_c, 0, 52, 80
2, 72480, Note_on_c, 0, 57, 80
2, 72480, Note_on_c, 0, 60, 80
2, 72719, Note_on_c, 0, 52, 0
2, 72719, Note_on_c, 0, 57, 0
2, 72719, Note_on_c, 0, 60, 0
2, 72960, Note_on_c, 0, 57, 80
2, 72960, Note_on_c, 0, 60, 80
2, 73199, Note_on_c, 0, 57, 0
2, 73199, Note_on_c, 0, 60, 0
2, 73440, Note_on_c, 0, 53, 80
2, 73895, Note_on_c, 0, 53, 0
2, 73920, Note_on_c, 0, 53, 80
2, 73920, Note_on_c, 0, 59, 80
2, 74159, Note_on_c, 0, 53, 0
2, 74159, Note_on_c, 0, 59, 0
2, 74400, Note_on_c, 0, 53, 80
2, 74639, Note_on_c, 0, 53, 0
2, 74880, Note_on_c, 0, 57, 80
2, 75335, Note_on_c, 0, 57, 0
2, 75360, Note_on_c, 0, 57, 80
2, 75360, Note_on_c, 0, 60, 80
2, 75360, Note_on_c, 0, 64, 80
2, 75599, Note_on_c, 0, 57, 0
2, 75599, Note_on_c, 0, 60, 0
2, 75599, Note_on_c, 0, 64, 0
2, 75840, Note_on_c, 0, 60, 80
2, 75840, Note_on_c, 0, 64, 80
2, 75840, Note_on_c, 0, 57, 80
2, 76079, Note_on_c, 0, 57, 0
2, 76320, Note_on_c, 0, 52, 80
2, 76751, Note_on_c, 0, 60, 0
2, 76751, Note_on_c, 0, 64, 0
2, 76775, Note_on_c, 0, 52, 0
2, 76800, Note_on_c, 0, 57, 80
2, 76800, Note_on_c, 0, 60, 80
2, 76800, Note_on_c, 0, 64, 80
2, 77039, Note_on_c, 0, 57, 0
2, 77039, Note_on_c, 0, 60, 0
2, 77039, Note_on_c, 0, 64, 0
2, 77280, Note_on_c, 0, 57, 80
2, 77280, Note_on_c, 0, 60, 80
2, 77280, Note_on_c, 0, 64, 80
2, 77519, Note_on_c, 0, 57, 0
2, 77519, Note_on_c, 0, 60, 0
2, 77519, Note_on_c, 0, 64, 0
2, 77760, Note_on_c, 0, 50, 80
2, 78215, Note_on_c, 0, 50, 0
2, 78240, Note_on_c, 0, 50, 80
2, 78240, Note_on_c, 0, 53, 80
2, 78240, Note_on_c, 0, 57, 80
2, 78479, Note_on_c, 0, 50, 0
2, 78479, Note_on_c, 0, 53, 0
2, 78479, Note_on_c, 0, 57, 0
2, 78720, Note_on_c, 0, 53, 80
2, 78720, Note_on_c, 0, 57, 80
2, 78720, Note_on_c, 0, 62, 80
2, 78959, Note_on_c, 0, 53, 0
2, 78959, Note_on_c, 0, 57, 0
2, 78959, Note_on_c, 0, 62, 0
2, 79200, Note_on_c, 0, 52, 80
2, 79655, Note_on_c, 0, 52, 0
2, 79680, Note_on_c, 0, 52, 80
2, 79680, Note_on_c, 0, 59, 80
2, 79919, Note_on_c, 0, 52, 0
2, 79919, Note_on_c, 0, 59, 0
2, 80160, Note_on_c, 0, 59, 80
2, 80399, Note_on_c, 0, 59, 0
2, 80640, Note_on_c, 0, 57, 80
2, 81095, Note_on_c, 0, 57, 0
2, 81120, Note_on_c, 0, 57, 80
2, 81120, Note_on_c, 0, 60, 80
2, 81120, Note_on_c, 0, 64, 80
2, 81359, Note_on_c, 0, 57, 0
2, 81359, Note_on_c, 0, 60, 0
2, 81359, Note_on_c, 0, 64, 0
2, 81600, Note_on_c, 0, 57, 80
2, 81600, Note_on_c, 0, 60, 80
2, 81600, Note_on_c, 0, 64, 80
2, 81839, Note_on_c, 0, 57, 0
2, 81839, Note_on_c, 0, 60, 0
2, 81839, Note_on_c, 0, 64, 0
2, 82080, Note_on_c, 0, 52, 80
2, 82535, Note_on_c, 0, 52, 0
2, 82560, Note_on_c, 0, 57, 80
2, 82560, Note_on_c, 0, 60, 80
2, 82560, Note_on_c, 0, 64, 80
2, 82799, Note_on_c, 0, 57, 0
2, 82799, Note_on_c, 0, 60, 0
2, 82799, Note_on_c, 0, 64, 0
2, 83040, Note_on_c, 0, 57, 80
2, 83040, Note_on_c, 0, 60, 80
2, 83040, Note_on_c, 0, 64, 80
2, 83279, Note_on_c, 0, 57, 0
2, 83279, Note_on_c, 0, 60, 0
2, 83279, Note_on_c, 0, 64, 0
2, 83520, Note_on_c, 0, 50, 80
2, 83975, Note_on_c, 0, 50, 0
2, 84000, Note_on_c, 0, 50, 80
2, 84000, Note_on_c, 0, 53, 80
2, 84000, Note_on_c, 0, 57, 80
2, 84239, Note_on_c, 0, 50, 0
2, 84239, Note_on_c, 0, 53, 0
2, 84239, Note_on_c, 0, 57, 0
2, 84480, Note_on_c, 0, 53, 80
2, 84480, Note_on_c, 0, 57, 80
2, 84480, Note_on_c, 0, 62, 80
2, 84719, Note_on_c, 0, 53, 0
2, 84719, Note_on_c, 0, 57, 0
2, 84719, Note_on_c, 0, 62, 0
2, 84960, Note_on_c, 0, 59, 80
2, 85415, Note_on_c, 0, 59, 0
2, 85440, Note_on_c, 0, 59, 80
2, 85679, Note_on_c, 0, 59, 0
2, 85920, Note_on_c, 0, 59, 80
2, 85920, Note_on_c, 0, 64, 80
2, 86159, Note_on_c, 0, 59, 0
2, 86159, Note_on_c, 0, 64, 0
2, 86400, Note_on_c, 0, 57, 80
2, 86855, Note_on_c, 0, 57, 0
2, 86880, Note_on_c, 0, 57, 80
2, 86880, Note_on_c, 0, 60, 80
2, 86880, Note_on_c, 0, 64, 80
2, 87119, Note_on_c, 0, 57, 0
2, 87119, Note_on_c, 0, 60, 0
2, 87119, Note_on_c, 0, 64, 0
2, 87360, Note_on_c, 0, 60, 80
2, 87360, Note_on_c, 0, 64, 80
2, 87599, Note_on_c, 0, 60, 0
2, 87599, Note_on_c, 0, 64, 0
2, 87840, Note_on_c, 0, 53, 80
2, 87840, Note_on_c, 0, 59, 80
2, 88295, Note_on_c, 0, 53, 0
2, 88295, Note_on_c, 0, 59, 0
2, 88320, Note_on_c, 0, 53, 80
2, 88320, Note_on_c, 0, 57, 80
2, 88320, Note_on_c, 0, 60, 80
2, 88559, Note_on_c, 0, 53, 0
2, 88559, Note_on_c, 0, 57, 0
2, 88559, Note_on_c, 0, 60, 0
2, 88800, Note_on_c, 0, 57, 80
2, 88800, Note_on_c, 0, 60, 80
2, 89039, Note_on_c, 0, 57, 0
2, 89039, Note_on_c, 0, 60, 0
2, 89280, Note_on_c, 0, 50, 80
2, 89735, Note_on_c, 0, 50, 0
2, 89760, Note_on_c, 0, 50, 80
2, 89760, Note_on_c, 0, 53, 80
2, 89760, Note_on_c, 0, 57, 80
2, 89999, Note_on_c, 0, 50, 0
2, 89999, Note_on_c, 0, 53, 0
2, 89999, Note_on_c, 0, 57, 0
2, 90240, Note_on_c, 0, 53, 80
2, 90240, Note_on_c, 0, 57, 80
2, 90479, Note_on_c, 0, 53, 0
2, 90479, Note_on_c, 0, 57, 0
2, 90720, Note_on_c, 0, 52, 80
2, 91175, Note_on_c, 0, 52, 0
2, 91200, Note_on_c, 0, 52, 80
2, 91200, Note_on_c, 0, 59, 80
2, 91439, Note_on_c, 0, 52, 0
2, 91439, Note_on_c, 0, 59, 0
2, 91680, Note_on_c, 0, 52, 80
2, 91680, Note_on_c, 0, 59, 80
2, 92135, Note_on_c, 0, 52, 0
2, 92135, Note_on_c, 0, 59, 0
2, 92160, Note_on_c, 0, 57, 80
2, 92615, Note_on_c, 0, 57, 0
2, 92640, Note_on_c, 0, 52, 80
2, 92640, Note_on_c, 0, 57, 80
2, 92640, Note_on_c, 0, 60, 80
2, 92879, Note_on_c, 0, 52, 0
2, 92879, Note_on_c, 0, 57, 0
2, 92879, Note_on_c, 0, 60, 0
2, 93120, Note_on_c, 0, 52, 80
2, 93120, Note_on_c, 0, 57, 80
2, 93120, Note_on_c, 0, 60, 80
2, 93359, Note_on_c, 0, 52, 0
2, 93359, Note_on_c, 0, 57, 0
2, 93359, Note_on_c, 0, 60, 0
2, 93600, Note_on_c, 0, 53, 80
2, 93600, Note_on_c, 0, 59, 80
2, 93660, Note_on_c, 0, 65, 80
2, 93830, Note_on_c, 0, 65, 0
2, 94055, Note_on_c, 0, 53, 0
2, 94055, Note_on_c, 0, 59, 0
2, 94080, Note_on_c, 0, 53, 80
2, 94080, Note_on_c, 0, 59, 80
2, 94319, Note_on_c, 0, 53, 0
2, 94319, Note_on_c, 0, 59, 0
2, 94560, Note_on_c, 0, 53, 80
2, 94560, Note_on_c, 0, 59, 80
2, 94799, Note_on_c, 0, 53, 0
2, 94799, Note_on_c, 0, 59, 0
2, 95040, Note_on_c, 0, 57, 80
2, 95495, Note_on_c, 0, 57, 0
2, 95520, Note_on_c, 0, 52, 80
2, 95520, Note_on_c, 0, 57, 80
2, 95520, Note_on_c, 0, 60, 80
2, 95759, Note_on_c, 0, 52, 0
2, 95759, Note_on_c, 0, 57, 0
2, 95759, Note_on_c, 0, 60, 0
2, 96000, Note_on_c, 0, 52, 80
2, 96000, Note_on_c, 0, 57, 80
2, 96000, Note_on_c, 0, 60, 80
2, 96239, Note_on_c, 0, 52, 0
2, 96239, Note_on_c, 0, 57, 0
2, 96239, Note_on_c, 0, 60, 0
2, 96480, Note_on_c, 0, 52, 80
2, 96480, Note_on_c, 0, 57, 80
2, 96935, Note_on_c, 0, 52, 0
2, 96935, Note_on_c, 0, 57, 0
2, 96960, Note_on_c, 0, 52, 80
2, 96960, Note_on_c, 0, 57, 80
2, 96960, Note_on_c, 0, 60, 80
2, 97199, Note_on_c, 0, 52, 0
2, 97199, Note_on_c, 0, 57, 0
2, 97199, Note_on_c, 0, 60, 0
2, 97440, Note_on_c, 0, 52, 80
2, 97440, Note_on_c, 0, 57, 80
2, 97440, Note_on_c, 0, 60, 80
2, 97679, Note_on_c, 0, 52, 0
2, 97679, Note_on_c, 0, 57, 0
2, 97679, Note_on_c, 0, 60, 0
2, 97920, Note_on_c, 0, 50, 80
2, 98375, Note_on_c, 0, 50, 0
2, 98400, Note_on_c, 0, 50, 80
2, 98400, Note_on_c, 0, 53, 80
2, 98400, Note_on_c, 0, 57, 80
2, 98639, Note_on_c, 0, 50, 0
2, 98639, Note_on_c, 0, 53, 0
2, 98639, Note_on_c, 0, 57, 0
2, 98880, Note_on_c, 0, 50, 80
2, 98880, Note_on_c, 0, 53, 80
2, 98880, Note_on_c, 0, 57, 80
2, 99119, Note_on_c, 0, 50, 0
2, 99119, Note_on_c, 0, 53, 0
2, 99119, Note_on_c, 0, 57, 0
2, 99360, Note_on_c, 0, 52, 80
2, 99815, Note_on_c, 0, 52, 0
2, 99840, Note_on_c, 0, 52, 80
2, 99840, Note_on_c, 0, 57, 80
2, 99840, Note_on_c, 0, 60, 80
2, 100079, Note_on_c, 0, 52, 0
2, 100079, Note_on_c, 0, 57, 0
2, 100079, Note_on_c, 0, 60, 0
2, 100320, Note_on_c, 0, 52, 80
2, 100320, Note_on_c, 0, 59, 80
2, 100559, Note_on_c, 0, 52, 0
2, 100559, Note_on_c, 0, 59, 0
2, 100800, Note_on_c, 0, 57, 80
2, 101255, Note_on_c, 0, 57, 0
2, 101280, Note_on_c, 0, 57, 80
2, 101280, Note_on_c, 0, 60, 80
2, 101280, Note_on_c, 0, 64, 80
2, 101519, Note_on_c, 0, 57, 0
2, 101519, Note_on_c, 0, 60, 0
2, 101519, Note_on_c, 0, 64, 0
2, 101760, Note_on_c, 0, 57, 80
2, 101760, Note_on_c, 0, 60, 80
2, 101760, Note_on_c, 0, 64, 80
2, 101999, Note_on_c, 0, 57, 0
2, 101999, Note_on_c, 0, 60, 0
2, 101999, Note_on_c, 0, 64, 0
2, 102240, Note_on_c, 0, 52, 80
2, 102695, Note_on_c, 0, 52, 0
2, 102720, Note_on_c, 0, 57, 80
2, 102720, Note_on_c, 0, 60, 80
2, 102720, Note_on_c, 0, 64, 80
2, 102959, Note_on_c, 0, 57, 0
2, 102959, Note_on_c, 0, 60, 0
2, 102959, Note_on_c, 0, 64, 0
2, 103200, Note_on_c, 0, 57, 80
2, 103200, Note_on_c, 0, 60, 80
2, 103200, Note_on_c, 0, 62, 80
2, 103351, Note_on_c, 0, 57, 0
2, 103351, Note_on_c, 0, 60, 0
2, 103351, Note_on_c, 0, 62, 0
2, 103520, Note_on_c, 0, 64, 80
2, 103671, Note_on_c, 0, 64, 0
2, 103680, Note_on_c, 0, 50, 80
2, 103680, Note_on_c, 0, 65, 80
2, 104135, Note_on_c, 0, 50, 0
2, 104135, Note_on_c, 0, 65, 0
2, 104160, Note_on_c, 0, 50, 80
2, 104160, Note_on_c, 0, 53, 80
2, 104160, Note_on_c, 0, 57, 80
2, 104160, Note_on_c, 0, 64, 80
2, 104399, Note_on_c, 0, 50, 0
2, 104399, Note_on_c, 0, 53, 0
2, 104399, Note_on_c, 0, 57, 0
2, 104399, Note_on_c, 0, 64, 0
2, 104640, Note_on_c, 0, 53, 80
2, 104640, Note_on_c, 0, 57, 80
2, 104640, Note_on_c, 0, 62, 80
2, 104879, Note_on_c, 0, 53, 0
2, 104879, Note_on_c, 0, 57, 0
2, 104879, Note_on_c, 0, 62, 0
2, 105120, Note_on_c, 0, 52, 80
2, 105120, Note_on_c, 0, 60, 80
2, 105575, Note_on_c, 0, 52, 0
2, 105575, Note_on_c, 0, 60, 0
2, 105600, Note_on_c, 0, 52, 80
2, 105600, Note_on_c, 0, 59, 80
2, 105600, Note_on_c, 0, 60, 80
2, 105839, Note_on_c, 0, 52, 0
2, 105839, Note_on_c, 0, 59, 0
2, 105839, Note_on_c, 0, 60, 0
2, 106080, Note_on_c, 0, 52, 80
2, 106080, Note_on_c, 0, 60, 80
2, 106231, Note_on_c, 0, 52, 0
2, 106231, Note_on_c, 0, 60, 0
2, 106400, Note_on_c, 0, 62, 80
2, 106551, Note_on_c, 0, 62, 0
2, 106560, Note_on_c, 0, 57, 80
2, 106560, Note_on_c, 0, 64, 80
2, 107015, Note_on_c, 0, 57, 0
2, 107015, Note_on_c, 0, 64, 0
2, 107040, Note_on_c, 0, 52, 80
2, 107040, Note_on_c, 0, 57, 80
2, 107040, Note_on_c, 0, 60, 80
2, 107040, Note_on_c, 0, 62, 80
2, 107279, Note_on_c, 0, 52, 0
2, 107279, Note_on_c, 0, 57, 0
2, 107279, Note_on_c, 0, 60, 0
2, 107279, Note_on_c, 0, 62, 0
2, 107520, Note_on_c, 0, 57, 80
2, 107520, Note_on_c, 0, 60, 80
2, 107520, Note_on_c, 0, 64, 80
2, 107759, Note_on_c, 0, 57, 0
2, 107759, Note_on_c, 0, 60, 0
2, 107759, Note_on_c, 0, 64, 0
2, 108000, Note_on_c, 0, 53, 80
2, 108000, Note_on_c, 0, 59, 80
2, 108455, Note_on_c, 0, 53, 0
2, 108455, Note_on_c, 0, 59, 0
2, 108480, Note_on_c, 0, 53, 80
2, 108480, Note_on_c, 0, 57, 80
2, 108719, Note_on_c, 0, 53, 0
2, 108719, Note_on_c, 0, 57, 0
2, 108960, Note_on_c, 0, 53, 80
2, 108960, Note_on_c, 0, 59, 80
2, 109111, Note_on_c, 0, 53, 0
2, 109111, Note_on_c, 0, 59, 0
2, 109280, Note_on_c, 0, 60, 80
2, 109431, Note_on_c, 0, 60, 0
2, 109440, Note_on_c, 0, 50, 80
2, 109591, Note_on_c, 0, 50, 0
2, 109760, Note_on_c, 0, 60, 80
2, 109911, Note_on_c, 0, 60, 0
2, 109920, Note_on_c, 0, 50, 80
2, 109920, Note_on_c, 0, 53, 80
2, 109920, Note_on_c, 0, 59, 80
2, 110159, Note_on_c, 0, 50, 0
2, 110159, Note_on_c, 0, 53, 0
2, 110159, Note_on_c, 0, 59, 0
2, 110400, Note_on_c, 0, 50, 80
2, 110400, Note_on_c, 0, 53, 80
2, 110400, Note_on_c, 0, 57, 80
2, 110639, Note_on_c, 0, 50, 0
2, 110639, Note_on_c, 0, 53, 0
2, 110639, Note_on_c, 0, 57, 0
2, 110880, Note_on_c, 0, 52, 80
2, 111031, Note_on_c, 0, 52, 0
2, 111200, Note_on_c, 0, 60, 80
2, 111351, Note_on_c, 0, 60, 0
2, 111360, Note_on_c, 0, 52, 80
2, 111360, Note_on_c, 0, 57, 80
2, 111360, Note_on_c, 0, 60, 80
2, 111599, Note_on_c, 0, 52, 0
2, 111599, Note_on_c, 0, 57, 0
2, 111599, Note_on_c, 0, 60, 0
2, 111840, Note_on_c, 0, 52, 80
2, 111840, Note_on_c, 0, 59, 80
2, 112079, Note_on_c, 0, 52, 0
2, 112079, Note_on_c, 0, 59, 0
2, 112320, Note_on_c, 0, 57, 80
2, 112775, Note_on_c, 0, 57, 0
2, 113040, Note_on_c, 0, 64, 80
2, 113159, Note_on_c, 0, 64, 0
2, 113280, Note_on_c, 0, 60, 80
2, 113399, Note_on_c, 0, 60, 0
2, 113520, Note_on_c, 0, 59, 80
2, 113639, Note_on_c, 0, 59, 0
2, 113760, Note_on_c, 0, 57, 80
2, 113879, Note_on_c, 0, 57, 0
2, 114000, Note_on_c, 0, 52, 80
2, 114119, Note_on_c, 0, 52, 0
2, 114240, Note_on_c, 0, 57, 80
2, 115151, Note_on_c, 0, 57, 0
2, 115152, End_track
3, 0, Start_track
3, 0, Title_t, "Electric Bass, Electric Bass, Bass\000"
3, 0, Key_signature, 0, "major"
3, 0, Control_c, 1, 121, 0
3, 0, Program_c, 1, 33
3, 0, Control_c, 1, 7, 100
3, 0, Control_c, 1, 10, 64
3, 0, Control_c, 1, 91, 0
3, 0, Control_c, 1, 93, 0
3, 0, MIDI_port, 0
3, 0, Note_on_c, 1, 57, 80
3, 0, Control_c, 2, 121, 0
3, 0, Program_c, 2, 36
3, 0, Control_c, 2, 7, 100
3, 0, Control_c, 2, 10, 64
3, 0, Control_c, 2, 91, 0
3, 0, Control_c, 2, 93, 0
3, 0, MIDI_port, 0
3, 0, Control_c, 3, 121, 0
3, 0, Program_c, 3, 37
3, 0, Control_c, 3, 7, 100
3, 0, Control_c, 3, 10, 64
3, 0, Control_c, 3, 91, 0
3, 0, Control_c, 3, 93, 0
3, 0, MIDI_port, 0
3, 1439, Note_on_c, 1, 57, 0
3, 1440, Note_on_c, 1, 52, 80
3, 2879, Note_on_c, 1, 52, 0
3, 2880, Note_on_c, 1, 57, 80
3, 4159, Note_on_c, 1, 57, 0
3, 4160, Note_on_c, 1, 57, 80
3, 4319, Note_on_c, 1, 57, 0
3, 4320, Note_on_c, 1, 52, 80
3, 5759, Note_on_c, 1, 52, 0
3, 5760, Note_on_c, 1, 57, 80
3, 7199, Note_on_c, 1, 57, 0
3, 7200, Note_on_c, 1, 52, 80
3, 8639, Note_on_c, 1, 52, 0
3, 8640, Note_on_c, 1, 57, 80
3, 10079, Note_on_c, 1, 57, 0
3, 10080, Note_on_c, 1, 52, 80
3, 11519, Note_on_c, 1, 52, 0
3, 11520, Note_on_c, 1, 50, 80
3, 12959, Note_on_c, 1, 50, 0
3, 12960, Note_on_c, 1, 52, 80
3, 14399, Note_on_c, 1, 52, 0
3, 14400, Note_on_c, 1, 57, 80
3, 15839, Note_on_c, 1, 57, 0
3, 15840, Note_on_c, 1, 52, 80
3, 17279, Note_on_c, 1, 52, 0
3, 17280, Note_on_c, 1, 50, 80
3, 18719, Note_on_c, 1, 50, 0
3, 18720, Note_on_c, 1, 52, 80
3, 20159, Note_on_c, 1, 52, 0
3, 20160, Note_on_c, 1, 57, 80
3, 21599, Note_on_c, 1, 57, 0
3, 21600, Note_on_c, 1, 53, 80
3, 23039, Note_on_c, 1, 53, 0
3, 23040, Note_on_c, 1, 50, 80
3, 24479, Note_on_c, 1, 50, 0
3, 24480, Note_on_c, 1, 52, 80
3, 25439, Note_on_c, 1, 52, 0
3, 25440, Note_on_c, 1, 53, 80
3, 25919, Note_on_c, 1, 53, 0
3, 25920, Note_on_c, 1, 57, 80
3, 27359, Note_on_c, 1, 57, 0
3, 28800, Note_on_c, 1, 57, 80
3, 30239, Note_on_c, 1, 57, 0
3, 30240, Note_on_c, 1, 53, 80
3, 31679, Note_on_c, 1, 53, 0
3, 31680, Note_on_c, 1, 57, 80
3, 33119, Note_on_c, 1, 57, 0
3, 33120, Note_on_c, 1, 52, 80
3, 34559, Note_on_c, 1, 52, 0
3, 34560, Note_on_c, 1, 50, 80
3, 35999, Note_on_c, 1, 50, 0
3, 36000, Note_on_c, 1, 52, 80
3, 37439, Note_on_c, 1, 52, 0
3, 37440, Note_on_c, 1, 57, 80
3, 38879, Note_on_c, 1, 57, 0
3, 38880, Note_on_c, 1, 52, 80
3, 40319, Note_on_c, 1, 52, 0
3, 40320, Note_on_c, 1, 62, 80
3, 41759, Note_on_c, 1, 62, 0
3, 41760, Note_on_c, 1, 59, 80
3, 43199, Note_on_c, 1, 59, 0
3, 43200, Note_on_c, 1, 57, 80
3, 44639, Note_on_c, 1, 57, 0
3, 44640, Note_on_c, 1, 53, 80
3, 46079, Note_on_c, 1, 53, 0
3, 46080, Note_on_c, 1, 50, 80
3, 47519, Note_on_c, 1, 50, 0
3, 47520, Note_on_c, 1, 52, 80
3, 48959, Note_on_c, 1, 52, 0
3, 48960, Note_on_c, 1, 57, 80
3, 49919, Note_on_c, 1, 57, 0
3, 49920, Note_on_c, 1, 64, 80
3, 50399, Note_on_c, 1, 64, 0
3, 50400, Note_on_c, 1, 57, 80
3, 51839, Note_on_c, 1, 57, 0
3, 51840, Note_on_c, 1, 57, 80
3, 53279, Note_on_c, 1, 57, 0
3, 53280, Note_on_c, 1, 53, 80
3, 54719, Note_on_c, 1, 53, 0
3, 54720, Note_on_c, 1, 57, 80
3, 56159, Note_on_c, 1, 57, 0
3, 56160, Note_on_c, 1, 53, 80
3, 57599, Note_on_c, 1, 53, 0
3, 57600, Note_on_c, 1, 57, 80
3, 59039, Note_on_c, 1, 57, 0
3, 59040, Note_on_c, 1, 53, 80
3, 60479, Note_on_c, 1, 53, 0
3, 60480, Note_on_c, 1, 57, 80
3, 61919, Note_on_c, 1, 57, 0
3, 61920, Note_on_c, 1, 53, 80
3, 63359, Note_on_c, 1, 53, 0
3, 63360, Note_on_c, 1, 50, 80
3, 64799, Note_on_c, 1, 50, 0
3, 64800, Note_on_c, 1, 52, 80
3, 66239, Note_on_c, 1, 52, 0
3, 66240, Note_on_c, 1, 57, 80
3, 67679, Note_on_c, 1, 57, 0
3, 67680, Note_on_c, 1, 53, 80
3, 69119, Note_on_c, 1, 53, 0
3, 69120, Note_on_c, 1, 50, 80
3, 70559, Note_on_c, 1, 50, 0
3, 70560, Note_on_c, 1, 52, 80
3, 71039, Note_on_c, 1, 52, 0
3, 71040, Note_on_c, 1, 64, 80
3, 71279, Note_on_c, 1, 64, 0
3, 71280, Note_on_c, 1, 62, 80
3, 71519, Note_on_c, 1, 62, 0
3, 71520, Note_on_c, 1, 60, 80
3, 71759, Note_on_c, 1, 60, 0
3, 71760, Note_on_c, 1, 59, 80
3, 71999, Note_on_c, 1, 59, 0
3, 72000, Note_on_c, 1, 57, 80
3, 72479, Note_on_c, 1, 57, 0
3, 73440, Note_on_c, 1, 53, 80
3, 74879, Note_on_c, 1, 53, 0
3, 74880, Note_on_c, 1, 57, 80
3, 76319, Note_on_c, 1, 57, 0
3, 76320, Note_on_c, 1, 52, 80
3, 77759, Note_on_c, 1, 52, 0
3, 77760, Note_on_c, 1, 50, 80
3, 79199, Note_on_c, 1, 50, 0
3, 79200, Note_on_c, 1, 52, 80
3, 80639, Note_on_c, 1, 52, 0
3, 80640, Note_on_c, 1, 57, 80
3, 82079, Note_on_c, 1, 57, 0
3, 82080, Note_on_c, 1, 52, 80
3, 83519, Note_on_c, 1, 52, 0
3, 83520, Note_on_c, 1, 50, 80
3, 84959, Note_on_c, 1, 50, 0
3, 84960, Note_on_c, 1, 59, 80
3, 86399, Note_on_c, 1, 59, 0
3, 86400, Note_on_c, 1, 57, 80
3, 87839, Note_on_c, 1, 57, 0
3, 87840, Note_on_c, 1, 53, 80
3, 89279, Note_on_c, 1, 53, 0
3, 89280, Note_on_c, 1, 50, 80
3, 90719, Note_on_c, 1, 50, 0
3, 90720, Note_on_c, 1, 52, 80
3, 92159, Note_on_c, 1, 52, 0
3, 92160, Note_on_c, 1, 57, 80
3, 93599, Note_on_c, 1, 57, 0
3, 93600, Note_on_c, 1, 53, 80
3, 95039, Note_on_c, 1, 53, 0
3, 95040, Note_on_c, 1, 57, 80
3, 96479, Note_on_c, 1, 57, 0
3, 96480, Note_on_c, 1, 52, 80
3, 97919, Note_on_c, 1, 52, 0
3, 97920, Note_on_c, 1, 50, 80
3, 99359, Note_on_c, 1, 50, 0
3, 99360, Note_on_c, 1, 52, 80
3, 100799, Note_on_c, 1, 52, 0
3, 100800, Note_on_c, 1, 57, 80
3, 102239, Note_on_c, 1, 57, 0
3, 102240, Note_on_c, 1, 52, 80
3, 103679, Note_on_c, 1, 52, 0
3, 103680, Note_on_c, 1, 50, 80
3, 105119, Note_on_c, 1, 50, 0
3, 105120, Note_on_c, 1, 52, 80
3, 106559, Note_on_c, 1, 52, 0
3, 106560, Note_on_c, 1, 57, 80
3, 107999, Note_on_c, 1, 57, 0
3, 108000, Note_on_c, 1, 53, 80
3, 109439, Note_on_c, 1, 53, 0
3, 109440, Note_on_c, 1, 50, 80
3, 110879, Note_on_c, 1, 50, 0
3, 110880, Note_on_c, 1, 52, 80
3, 112319, Note_on_c, 1, 52, 0
3, 112320, Note_on_c, 1, 57, 80
3, 112799, Note_on_c, 1, 57, 0
3, 113040, Note_on_c, 1, 64, 80
3, 113159, Note_on_c, 1, 64, 0
3, 113280, Note_on_c, 1, 60, 80
3, 113399, Note_on_c, 1, 60, 0
3, 113520, Note_on_c, 1, 59, 80
3, 113639, Note_on_c, 1, 59, 0
3, 113760, Note_on_c, 1, 57, 80
3, 113879, Note_on_c, 1, 57, 0
3, 114000, Note_on_c, 1, 52, 80
3, 114119, Note_on_c, 1, 52, 0
3, 114240, Note_on_c, 1, 57, 80
3, 115199, Note_on_c, 1, 57, 0
3, 115200, End_track
0, 0, End_of_file
