0, 0, Header, 1, 5, 480
1, 0, Start_track
1, 0, Title_t, "Soprano, Tenor, Voice\000"
1, 0, Time_signature, 3, 2, 24, 8
1, 0, Key_signature, 0, "major"
1, 0, Tempo, 952381
1, 0, Control_c, 0, 121, 0
1, 0, Program_c, 0, 52
1, 0, Control_c, 0, 7, 127
1, 0, Control_c, 0, 10, 64
1, 0, Control_c, 0, 91, 0
1, 0, Control_c, 0, 93, 0
1, 0, MIDI_port, 0
1, 240, Note_on_c, 0, 69, 80
1, 240, Control_c, 0, 2, 80
1, 479, Note_on_c, 0, 69, 0
1, 480, Note_on_c, 0, 69, 80
1, 509, Note_on_c, 0, 69, 0
1, 510, Note_on_c, 0, 67, 80
1, 599, Note_on_c, 0, 67, 0
1, 600, Note_on_c, 0, 65, 80
1, 719, Note_on_c, 0, 65, 0
1, 720, Note_on_c, 0, 67, 80
1, 959, Note_on_c, 0, 67, 0
1, 960, Note_on_c, 0, 67, 80
1, 1199, Note_on_c, 0, 67, 0
1, 1200, Note_on_c, 0, 62, 80
1, 1439, Note_on_c, 0, 62, 0
1, 1680, Note_on_c, 0, 65, 80
1, 1799, Note_on_c, 0, 65, 0
1, 1800, Note_on_c, 0, 60, 80
1, 1919, Note_on_c, 0, 60, 0
1, 1920, Note_on_c, 0, 60, 80
1, 2039, Note_on_c, 0, 60, 0
1, 2040, Note_on_c, 0, 62, 80
1, 2159, Note_on_c, 0, 62, 0
1, 2160, Note_on_c, 0, 65, 80
1, 2279, Note_on_c, 0, 65, 0
1, 2280, Note_on_c, 0, 62, 80
1, 2399, Note_on_c, 0, 62, 0
1, 2400, Note_on_c, 0, 67, 80
1, 2639, Note_on_c, 0, 67, 0
1, 2640, Note_on_c, 0, 65, 80
1, 2879, Note_on_c, 0, 65, 0
1, 3060, Note_on_c, 0, 60, 80
1, 3119, Note_on_c, 0, 60, 0
1, 3120, Note_on_c, 0, 67, 80
1, 3239, Note_on_c, 0, 67, 0
1, 3240, Note_on_c, 0, 69, 80
1, 3359, Note_on_c, 0, 69, 0
1, 3360, Note_on_c, 0, 72, 80
1, 3479, Note_on_c, 0, 72, 0
1, 3480, Note_on_c, 0, 69, 80
1, 3599, Note_on_c, 0, 69, 0
1, 3600, Note_on_c, 0, 67, 80
1, 3719, Note_on_c, 0, 67, 0
1, 3720, Note_on_c, 0, 65, 80
1, 3839, Note_on_c, 0, 65, 0
1, 3840, Note_on_c, 0, 67, 80
1, 4019, Note_on_c, 0, 67, 0
1, 4020, Note_on_c, 0, 65, 80
1, 4079, Note_on_c, 0, 65, 0
1, 4080, Note_on_c, 0, 65, 80
1, 4319, Note_on_c, 0, 65, 0
1, 4440, Note_on_c, 0, 60, 80
1, 4559, Note_on_c, 0, 60, 0
1, 4560, Note_on_c, 0, 65, 80
1, 4679, Note_on_c, 0, 65, 0
1, 4680, Note_on_c, 0, 65, 80
1, 4799, Note_on_c, 0, 65, 0
1, 4800, Note_on_c, 0, 60, 80
1, 4919, Note_on_c, 0, 60, 0
1, 4920, Note_on_c, 0, 62, 80
1, 5039, Note_on_c, 0, 62, 0
1, 5040, Note_on_c, 0, 65, 80
1, 5279, Note_on_c, 0, 65, 0
1, 5280, Note_on_c, 0, 67, 80
1, 5519, Note_on_c, 0, 67, 0
1, 5520, Note_on_c, 0, 65, 80
1, 5759, Note_on_c, 0, 65, 0
1, 6000, Note_on_c, 0, 67, 80
1, 6119, Note_on_c, 0, 67, 0
1, 6120, Note_on_c, 0, 69, 80
1, 6239, Note_on_c, 0, 69, 0
1, 6240, Note_on_c, 0, 67, 80
1, 6419, Note_on_c, 0, 67, 0
1, 6420, Note_on_c, 0, 65, 80
1, 6479, Note_on_c, 0, 65, 0
1, 6480, Note_on_c, 0, 67, 80
1, 6599, Note_on_c, 0, 67, 0
1, 6600, Note_on_c, 0, 65, 80
1, 6719, Note_on_c, 0, 65, 0
1, 6720, Note_on_c, 0, 67, 80
1, 6959, Note_on_c, 0, 67, 0
1, 6960, Note_on_c, 0, 62, 80
1, 7199, Note_on_c, 0, 62, 0
1, 7440, Note_on_c, 0, 65, 80
1, 7559, Note_on_c, 0, 65, 0
1, 7560, Note_on_c, 0, 60, 80
1, 7679, Note_on_c, 0, 60, 0
1, 7680, Note_on_c, 0, 60, 80
1, 7799, Note_on_c, 0, 60, 0
1, 7800, Note_on_c, 0, 62, 80
1, 7919, Note_on_c, 0, 62, 0
1, 7920, Note_on_c, 0, 65, 80
1, 8039, Note_on_c, 0, 65, 0
1, 8040, Note_on_c, 0, 62, 80
1, 8159, Note_on_c, 0, 62, 0
1, 8160, Note_on_c, 0, 67, 80
1, 8399, Note_on_c, 0, 67, 0
1, 8400, Note_on_c, 0, 65, 80
1, 8639, Note_on_c, 0, 65, 0
1, 8880, Note_on_c, 0, 67, 80
1, 8999, Note_on_c, 0, 67, 0
1, 9000, Note_on_c, 0, 69, 80
1, 9119, Note_on_c, 0, 69, 0
1, 9120, Note_on_c, 0, 72, 80
1, 9239, Note_on_c, 0, 72, 0
1, 9240, Note_on_c, 0, 69, 80
1, 9359, Note_on_c, 0, 69, 0
1, 9360, Note_on_c, 0, 67, 80
1, 9479, Note_on_c, 0, 67, 0
1, 9480, Note_on_c, 0, 65, 80
1, 9599, Note_on_c, 0, 65, 0
1, 9600, Note_on_c, 0, 67, 80
1, 9839, Note_on_c, 0, 67, 0
1, 9840, Note_on_c, 0, 67, 80
1, 9959, Note_on_c, 0, 67, 0
1, 9960, Note_on_c, 0, 65, 80
1, 10199, Note_on_c, 0, 65, 0
1, 10200, Note_on_c, 0, 62, 80
1, 10319, Note_on_c, 0, 62, 0
1, 10320, Note_on_c, 0, 65, 80
1, 10559, Note_on_c, 0, 65, 0
1, 10560, Note_on_c, 0, 60, 80
1, 10679, Note_on_c, 0, 60, 0
1, 10680, Note_on_c, 0, 62, 80
1, 10799, Note_on_c, 0, 62, 0
1, 10800, Note_on_c, 0, 65, 80
1, 11039, Note_on_c, 0, 65, 0
1, 11040, Note_on_c, 0, 67, 80
1, 11279, Note_on_c, 0, 67, 0
1, 11280, Note_on_c, 0, 67, 80
1, 11399, Note_on_c, 0, 67, 0
1, 11400, Note_on_c, 0, 65, 80
1, 11519, Note_on_c, 0, 65, 0
1, 11520, Time_signature, 4, 2, 24, 8
1, 11760, Note_on_c, 0, 67, 80
1, 11879, Note_on_c, 0, 67, 0
1, 11880, Note_on_c, 0, 69, 80
1, 11999, Note_on_c, 0, 69, 0
1, 12000, Note_on_c, 0, 69, 80
1, 12179, Note_on_c, 0, 69, 0
1, 12180, Note_on_c, 0, 67, 80
1, 12239, Note_on_c, 0, 67, 0
1, 12240, Note_on_c, 0, 67, 80
1, 12479, Note_on_c, 0, 67, 0
1, 12660, Note_on_c, 0, 60, 80
1, 12719, Note_on_c, 0, 60, 0
1, 12720, Note_on_c, 0, 65, 80
1, 12839, Note_on_c, 0, 65, 0
1, 12840, Note_on_c, 0, 67, 80
1, 12959, Note_on_c, 0, 67, 0
1, 12960, Note_on_c, 0, 67, 80
1, 13139, Note_on_c, 0, 67, 0
1, 13140, Note_on_c, 0, 65, 80
1, 13199, Note_on_c, 0, 65, 0
1, 13200, Note_on_c, 0, 65, 80
1, 13439, Note_on_c, 0, 65, 0
1, 13440, Time_signature, 3, 2, 24, 8
1, 13680, Note_on_c, 0, 67, 80
1, 13799, Note_on_c, 0, 67, 0
1, 13800, Note_on_c, 0, 69, 80
1, 13919, Note_on_c, 0, 69, 0
1, 13920, Note_on_c, 0, 67, 80
1, 14039, Note_on_c, 0, 67, 0
1, 14040, Note_on_c, 0, 65, 80
1, 14159, Note_on_c, 0, 65, 0
1, 14160, Note_on_c, 0, 67, 80
1, 14279, Note_on_c, 0, 67, 0
1, 14280, Note_on_c, 0, 65, 80
1, 14399, Note_on_c, 0, 65, 0
1, 14400, Note_on_c, 0, 67, 80
1, 14639, Note_on_c, 0, 67, 0
1, 14640, Note_on_c, 0, 65, 80
1, 14759, Note_on_c, 0, 65, 0
1, 14760, Note_on_c, 0, 62, 80
1, 14879, Note_on_c, 0, 62, 0
1, 15000, Note_on_c, 0, 62, 80
1, 15119, Note_on_c, 0, 62, 0
1, 15120, Note_on_c, 0, 65, 80
1, 15239, Note_on_c, 0, 65, 0
1, 15240, Note_on_c, 0, 60, 80
1, 15359, Note_on_c, 0, 60, 0
1, 15360, Note_on_c, 0, 60, 80
1, 15479, Note_on_c, 0, 60, 0
1, 15480, Note_on_c, 0, 62, 80
1, 15599, Note_on_c, 0, 62, 0
1, 15600, Note_on_c, 0, 65, 80
1, 15719, Note_on_c, 0, 65, 0
1, 15720, Note_on_c, 0, 62, 80
1, 15839, Note_on_c, 0, 62, 0
1, 15840, Note_on_c, 0, 67, 80
1, 16079, Note_on_c, 0, 67, 0
1, 16080, Note_on_c, 0, 65, 80
1, 16319, Note_on_c, 0, 65, 0
1, 16440, Note_on_c, 0, 60, 80
1, 16559, Note_on_c, 0, 60, 0
1, 16560, Note_on_c, 0, 67, 80
1, 16679, Note_on_c, 0, 67, 0
1, 16680, Note_on_c, 0, 69, 80
1, 16799, Note_on_c, 0, 69, 0
1, 16800, Note_on_c, 0, 72, 80
1, 16919, Note_on_c, 0, 72, 0
1, 16920, Note_on_c, 0, 69, 80
1, 17039, Note_on_c, 0, 69, 0
1, 17040, Note_on_c, 0, 67, 80
1, 17159, Note_on_c, 0, 67, 0
1, 17160, Note_on_c, 0, 65, 80
1, 17279, Note_on_c, 0, 65, 0
1, 17280, Note_on_c, 0, 67, 80
1, 17519, Note_on_c, 0, 67, 0
1, 17520, Note_on_c, 0, 67, 80
1, 17579, Note_on_c, 0, 67, 0
1, 17580, Note_on_c, 0, 65, 80
1, 17759, Note_on_c, 0, 65, 0
1, 17880, Note_on_c, 0, 62, 80
1, 17999, Note_on_c, 0, 62, 0
1, 18000, Note_on_c, 0, 65, 80
1, 18239, Note_on_c, 0, 65, 0
1, 18240, Note_on_c, 0, 60, 80
1, 18359, Note_on_c, 0, 60, 0
1, 18360, Note_on_c, 0, 62, 80
1, 18479, Note_on_c, 0, 62, 0
1, 18480, Note_on_c, 0, 65, 80
1, 18719, Note_on_c, 0, 65, 0
1, 18720, Note_on_c, 0, 67, 80
1, 18959, Note_on_c, 0, 67, 0
1, 18960, Note_on_c, 0, 65, 80
1, 19199, Note_on_c, 0, 65, 0
1, 19200, Time_signature, 4, 2, 24, 8
1, 19440, Note_on_c, 0, 67, 80
1, 19559, Note_on_c, 0, 67, 0
1, 19560, Note_on_c, 0, 69, 80
1, 19679, Note_on_c, 0, 69, 0
1, 19680, Note_on_c, 0, 69, 80
1, 19859, Note_on_c, 0, 69, 0
1, 19860, Note_on_c, 0, 67, 80
1, 19919, Note_on_c, 0, 67, 0
1, 19920, Note_on_c, 0, 67, 80
1, 20159, Note_on_c, 0, 67, 0
1, 20400, Note_on_c, 0, 65, 80
1, 20519, Note_on_c, 0, 65, 0
1, 20520, Note_on_c, 0, 67, 80
1, 20639, Note_on_c, 0, 67, 0
1, 20640, Note_on_c, 0, 67, 80
1, 20819, Note_on_c, 0, 67, 0
1, 20820, Note_on_c, 0, 65, 80
1, 20879, Note_on_c, 0, 65, 0
1, 20880, Note_on_c, 0, 65, 80
1, 21119, Note_on_c, 0, 65, 0
1, 21240, Note_on_c, 0, 60, 80
1, 21359, Note_on_c, 0, 60, 0
1, 21360, Note_on_c, 0, 67, 80
1, 21599, Note_on_c, 0, 67, 0
1, 21600, Note_on_c, 0, 69, 80
1, 21759, Note_on_c, 0, 69, 0
1, 21760, Note_on_c, 0, 67, 80
1, 21919, Note_on_c, 0, 67, 0
1, 21920, Note_on_c, 0, 65, 80
1, 22079, Note_on_c, 0, 65, 0
1, 22080, Note_on_c, 0, 65, 80
1, 22559, Note_on_c, 0, 65, 0
1, 23040, Time_signature, 2, 2, 24, 8
1, 23520, Note_on_c, 0, 76, 80
1, 23559, Note_on_c, 0, 76, 0
1, 23560, Note_on_c, 0, 77, 80
1, 23639, Note_on_c, 0, 77, 0
1, 23640, Note_on_c, 0, 76, 80
1, 23759, Note_on_c, 0, 76, 0
1, 23760, Note_on_c, 0, 74, 80
1, 23879, Note_on_c, 0, 74, 0
1, 23880, Note_on_c, 0, 74, 80
1, 24000, Time_signature, 4, 2, 24, 8
1, 24239, Note_on_c, 0, 74, 0
1, 24240, Note_on_c, 0, 74, 80
1, 24479, Note_on_c, 0, 74, 0
1, 24480, Note_on_c, 0, 69, 80
1, 24599, Note_on_c, 0, 69, 0
1, 24600, Note_on_c, 0, 69, 80
1, 24719, Note_on_c, 0, 69, 0
1, 24720, Note_on_c, 0, 74, 80
1, 24899, Note_on_c, 0, 74, 0
1, 24900, Note_on_c, 0, 72, 80
1, 24959, Note_on_c, 0, 72, 0
1, 24960, Note_on_c, 0, 74, 80
1, 25199, Note_on_c, 0, 74, 0
1, 25200, Note_on_c, 0, 69, 80
1, 25319, Note_on_c, 0, 69, 0
1, 25320, Note_on_c, 0, 69, 80
1, 25439, Note_on_c, 0, 69, 0
1, 25440, Note_on_c, 0, 76, 80
1, 25559, Note_on_c, 0, 76, 0
1, 25560, Note_on_c, 0, 77, 80
1, 25679, Note_on_c, 0, 77, 0
1, 25680, Note_on_c, 0, 76, 80
1, 25799, Note_on_c, 0, 76, 0
1, 25800, Note_on_c, 0, 76, 80
1, 26159, Note_on_c, 0, 76, 0
1, 26160, Note_on_c, 0, 76, 80
1, 26399, Note_on_c, 0, 76, 0
1, 26400, Note_on_c, 0, 76, 80
1, 26519, Note_on_c, 0, 76, 0
1, 26520, Note_on_c, 0, 74, 80
1, 26639, Note_on_c, 0, 74, 0
1, 26640, Note_on_c, 0, 76, 80
1, 26759, Note_on_c, 0, 76, 0
1, 26760, Note_on_c, 0, 76, 80
1, 26999, Note_on_c, 0, 76, 0
1, 27000, Note_on_c, 0, 74, 80
1, 27119, Note_on_c, 0, 74, 0
1, 27120, Note_on_c, 0, 76, 80
1, 27239, Note_on_c, 0, 76, 0
1, 27240, Note_on_c, 0, 74, 80
1, 27359, Note_on_c, 0, 74, 0
1, 27360, Note_on_c, 0, 76, 80
1, 27479, Note_on_c, 0, 76, 0
1, 27480, Note_on_c, 0, 74, 80
1, 27599, Note_on_c, 0, 74, 0
1, 27600, Note_on_c, 0, 76, 80
1, 27719, Note_on_c, 0, 76, 0
1, 27720, Note_on_c, 0, 77, 80
1, 28079, Note_on_c, 0, 77, 0
1, 28080, Note_on_c, 0, 77, 80
1, 28199, Note_on_c, 0, 77, 0
1, 28200, Note_on_c, 0, 72, 80
1, 28319, Note_on_c, 0, 72, 0
1, 28320, Note_on_c, 0, 72, 80
1, 28439, Note_on_c, 0, 72, 0
1, 28440, Note_on_c, 0, 74, 80
1, 28559, Note_on_c, 0, 74, 0
1, 28560, Note_on_c, 0, 77, 80
1, 28799, Note_on_c, 0, 77, 0
1, 28800, Note_on_c, 0, 81, 80
1, 29039, Note_on_c, 0, 81, 0
1, 29040, Note_on_c, 0, 72, 80
1, 29159, Note_on_c, 0, 72, 0
1, 29160, Note_on_c, 0, 74, 80
1, 29339, Note_on_c, 0, 74, 0
1, 29400, Note_on_c, 0, 72, 80
1, 29519, Note_on_c, 0, 72, 0
1, 29520, Note_on_c, 0, 77, 80
1, 29639, Note_on_c, 0, 77, 0
1, 29640, Note_on_c, 0, 77, 80
1, 29999, Note_on_c, 0, 77, 0
1, 30000, Note_on_c, 0, 74, 80
1, 30119, Note_on_c, 0, 74, 0
1, 30120, Note_on_c, 0, 72, 80
1, 30239, Note_on_c, 0, 72, 0
1, 30240, Note_on_c, 0, 72, 80
1, 30359, Note_on_c, 0, 72, 0
1, 30360, Note_on_c, 0, 74, 80
1, 30479, Note_on_c, 0, 74, 0
1, 30480, Note_on_c, 0, 77, 80
1, 30599, Note_on_c, 0, 77, 0
1, 30600, Note_on_c, 0, 77, 80
1, 30839, Note_on_c, 0, 77, 0
1, 31200, Note_on_c, 0, 76, 80
1, 31239, Note_on_c, 0, 76, 0
1, 31240, Note_on_c, 0, 77, 80
1, 31319, Note_on_c, 0, 77, 0
1, 31320, Note_on_c, 0, 76, 80
1, 31439, Note_on_c, 0, 76, 0
1, 31440, Note_on_c, 0, 74, 80
1, 31559, Note_on_c, 0, 74, 0
1, 31560, Note_on_c, 0, 74, 80
1, 31919, Note_on_c, 0, 74, 0
1, 31920, Note_on_c, 0, 74, 80
1, 32159, Note_on_c, 0, 74, 0
1, 32160, Note_on_c, 0, 69, 80
1, 32279, Note_on_c, 0, 69, 0
1, 32280, Note_on_c, 0, 69, 80
1, 32399, Note_on_c, 0, 69, 0
1, 32400, Note_on_c, 0, 74, 80
1, 32579, Note_on_c, 0, 74, 0
1, 32580, Note_on_c, 0, 72, 80
1, 32639, Note_on_c, 0, 72, 0
1, 32640, Note_on_c, 0, 74, 80
1, 32879, Note_on_c, 0, 74, 0
1, 32880, Note_on_c, 0, 69, 80
1, 32999, Note_on_c, 0, 69, 0
1, 33000, Note_on_c, 0, 69, 80
1, 33119, Note_on_c, 0, 69, 0
1, 33120, Note_on_c, 0, 76, 80
1, 33239, Note_on_c, 0, 76, 0
1, 33240, Note_on_c, 0, 77, 80
1, 33359, Note_on_c, 0, 77, 0
1, 33360, Note_on_c, 0, 76, 80
1, 33479, Note_on_c, 0, 76, 0
1, 33480, Note_on_c, 0, 76, 80
1, 33839, Note_on_c, 0, 76, 0
1, 33840, Note_on_c, 0, 76, 80
1, 34079, Note_on_c, 0, 76, 0
1, 34080, Note_on_c, 0, 76, 80
1, 34199, Note_on_c, 0, 76, 0
1, 34200, Note_on_c, 0, 74, 80
1, 34319, Note_on_c, 0, 74, 0
1, 34320, Note_on_c, 0, 76, 80
1, 34439, Note_on_c, 0, 76, 0
1, 34440, Note_on_c, 0, 76, 80
1, 34679, Note_on_c, 0, 76, 0
1, 34680, Note_on_c, 0, 74, 80
1, 34799, Note_on_c, 0, 74, 0
1, 34800, Note_on_c, 0, 76, 80
1, 34919, Note_on_c, 0, 76, 0
1, 34920, Note_on_c, 0, 74, 80
1, 35039, Note_on_c, 0, 74, 0
1, 35040, Note_on_c, 0, 76, 80
1, 35159, Note_on_c, 0, 76, 0
1, 35160, Note_on_c, 0, 74, 80
1, 35279, Note_on_c, 0, 74, 0
1, 35280, Note_on_c, 0, 76, 80
1, 35399, Note_on_c, 0, 76, 0
1, 35400, Note_on_c, 0, 77, 80
1, 35759, Note_on_c, 0, 77, 0
1, 35760, Note_on_c, 0, 77, 80
1, 35879, Note_on_c, 0, 77, 0
1, 35880, Note_on_c, 0, 72, 80
1, 35999, Note_on_c, 0, 72, 0
1, 36000, Note_on_c, 0, 72, 80
1, 36119, Note_on_c, 0, 72, 0
1, 36120, Note_on_c, 0, 74, 80
1, 36239, Note_on_c, 0, 74, 0
1, 36240, Note_on_c, 0, 77, 80
1, 36479, Note_on_c, 0, 77, 0
1, 36480, Note_on_c, 0, 81, 80
1, 36719, Note_on_c, 0, 81, 0
1, 36720, Note_on_c, 0, 72, 80
1, 36839, Note_on_c, 0, 72, 0
1, 36840, Note_on_c, 0, 74, 80
1, 37019, Note_on_c, 0, 74, 0
1, 37080, Note_on_c, 0, 72, 80
1, 37199, Note_on_c, 0, 72, 0
1, 37200, Note_on_c, 0, 77, 80
1, 37319, Note_on_c, 0, 77, 0
1, 37320, Note_on_c, 0, 77, 80
1, 37679, Note_on_c, 0, 77, 0
1, 37680, Note_on_c, 0, 74, 80
1, 37799, Note_on_c, 0, 74, 0
1, 37800, Note_on_c, 0, 72, 80
1, 37919, Note_on_c, 0, 72, 0
1, 37920, Note_on_c, 0, 72, 80
1, 38039, Note_on_c, 0, 72, 0
1, 38040, Note_on_c, 0, 74, 80
1, 38159, Note_on_c, 0, 74, 0
1, 38160, Note_on_c, 0, 77, 80
1, 38279, Note_on_c, 0, 77, 0
1, 38280, Note_on_c, 0, 77, 80
1, 38519, Note_on_c, 0, 77, 0
1, 39360, Time_signature, 3, 2, 24, 8
1, 39480, Note_on_c, 0, 69, 80
1, 39599, Note_on_c, 0, 69, 0
1, 39600, Note_on_c, 0, 74, 80
1, 39719, Note_on_c, 0, 74, 0
1, 39720, Note_on_c, 0, 72, 80
1, 39839, Note_on_c, 0, 72, 0
1, 39840, Note_on_c, 0, 74, 80
1, 39959, Note_on_c, 0, 74, 0
1, 39960, Note_on_c, 0, 69, 80
1, 40079, Note_on_c, 0, 69, 0
1, 40080, Note_on_c, 0, 69, 80
1, 40199, Note_on_c, 0, 69, 0
1, 40200, Note_on_c, 0, 69, 80
1, 40319, Note_on_c, 0, 69, 0
1, 40320, Note_on_c, 0, 72, 80
1, 40559, Note_on_c, 0, 72, 0
1, 40560, Note_on_c, 0, 74, 80
1, 40799, Note_on_c, 0, 74, 0
1, 41040, Note_on_c, 0, 74, 80
1, 41159, Note_on_c, 0, 74, 0
1, 41160, Note_on_c, 0, 72, 80
1, 41279, Note_on_c, 0, 72, 0
1, 41280, Note_on_c, 0, 74, 80
1, 41399, Note_on_c, 0, 74, 0
1, 41400, Note_on_c, 0, 69, 80
1, 41519, Note_on_c, 0, 69, 0
1, 41520, Note_on_c, 0, 69, 80
1, 41759, Note_on_c, 0, 69, 0
1, 41760, Note_on_c, 0, 72, 80
1, 41999, Note_on_c, 0, 72, 0
1, 42000, Note_on_c, 0, 74, 80
1, 42239, Note_on_c, 0, 74, 0
1, 42360, Note_on_c, 0, 69, 80
1, 42479, Note_on_c, 0, 69, 0
1, 42480, Note_on_c, 0, 77, 80
1, 42599, Note_on_c, 0, 77, 0
1, 42600, Note_on_c, 0, 76, 80
1, 42719, Note_on_c, 0, 76, 0
1, 42720, Note_on_c, 0, 77, 80
1, 42839, Note_on_c, 0, 77, 0
1, 42840, Note_on_c, 0, 76, 80
1, 42959, Note_on_c, 0, 76, 0
1, 42960, Note_on_c, 0, 74, 80
1, 43079, Note_on_c, 0, 74, 0
1, 43080, Note_on_c, 0, 76, 80
1, 43319, Note_on_c, 0, 76, 0
1, 43320, Note_on_c, 0, 74, 80
1, 43439, Note_on_c, 0, 74, 0
1, 43440, Note_on_c, 0, 72, 80
1, 43679, Note_on_c, 0, 72, 0
1, 43920, Note_on_c, 0, 77, 80
1, 44039, Note_on_c, 0, 77, 0
1, 44040, Note_on_c, 0, 76, 80
1, 44159, Note_on_c, 0, 76, 0
1, 44160, Note_on_c, 0, 77, 80
1, 44279, Note_on_c, 0, 77, 0
1, 44280, Note_on_c, 0, 76, 80
1, 44399, Note_on_c, 0, 76, 0
1, 44400, Note_on_c, 0, 74, 80
1, 44639, Note_on_c, 0, 74, 0
1, 44640, Note_on_c, 0, 76, 80
1, 44759, Note_on_c, 0, 76, 0
1, 44760, Note_on_c, 0, 72, 80
1, 45119, Note_on_c, 0, 72, 0
1, 45120, Time_signature, 4, 2, 24, 8
1, 45240, Note_on_c, 0, 72, 80
1, 45359, Note_on_c, 0, 72, 0
1, 45360, Note_on_c, 0, 72, 80
1, 45479, Note_on_c, 0, 72, 0
1, 45480, Note_on_c, 0, 72, 80
1, 45599, Note_on_c, 0, 72, 0
1, 45600, Note_on_c, 0, 74, 80
1, 45839, Note_on_c, 0, 74, 0
1, 45840, Note_on_c, 0, 77, 80
1, 46079, Note_on_c, 0, 77, 0
1, 46200, Note_on_c, 0, 72, 80
1, 46319, Note_on_c, 0, 72, 0
1, 46320, Note_on_c, 0, 72, 80
1, 46439, Note_on_c, 0, 72, 0
1, 46440, Note_on_c, 0, 72, 80
1, 46559, Note_on_c, 0, 72, 0
1, 46560, Note_on_c, 0, 74, 80
1, 46799, Note_on_c, 0, 74, 0
1, 46800, Note_on_c, 0, 77, 80
1, 47039, Note_on_c, 0, 77, 0
1, 47040, Time_signature, 3, 2, 24, 8
1, 47040, Note_on_c, 0, 69, 80
1, 47040, Note_on_c, 0, 74, 80
1, 47279, Note_on_c, 0, 69, 0
1, 47279, Note_on_c, 0, 74, 0
1, 47280, Note_on_c, 0, 74, 80
1, 47399, Note_on_c, 0, 74, 0
1, 47400, Note_on_c, 0, 72, 80
1, 47519, Note_on_c, 0, 72, 0
1, 47520, Note_on_c, 0, 74, 80
1, 47639, Note_on_c, 0, 74, 0
1, 47640, Note_on_c, 0, 69, 80
1, 47759, Note_on_c, 0, 69, 0
1, 47760, Note_on_c, 0, 69, 80
1, 47879, Note_on_c, 0, 69, 0
1, 47880, Note_on_c, 0, 69, 80
1, 47999, Note_on_c, 0, 69, 0
1, 48000, Note_on_c, 0, 72, 80
1, 48000, Note_on_c, 0, 79, 80
1, 48239, Note_on_c, 0, 72, 0
1, 48239, Note_on_c, 0, 79, 0
1, 48240, Note_on_c, 0, 74, 80
1, 48479, Note_on_c, 0, 74, 0
1, 48480, Note_on_c, 0, 69, 80
1, 48480, Note_on_c, 0, 74, 80
1, 48719, Note_on_c, 0, 69, 0
1, 48719, Note_on_c, 0, 74, 0
1, 48720, Note_on_c, 0, 74, 80
1, 48839, Note_on_c, 0, 74, 0
1, 48840, Note_on_c, 0, 72, 80
1, 48959, Note_on_c, 0, 72, 0
1, 48960, Note_on_c, 0, 74, 80
1, 49199, Note_on_c, 0, 74, 0
1, 49200, Note_on_c, 0, 69, 80
1, 49319, Note_on_c, 0, 69, 0
1, 49320, Note_on_c, 0, 69, 80
1, 49439, Note_on_c, 0, 69, 0
1, 49440, Note_on_c, 0, 72, 80
1, 49440, Note_on_c, 0, 79, 80
1, 49679, Note_on_c, 0, 72, 0
1, 49679, Note_on_c, 0, 79, 0
1, 49680, Note_on_c, 0, 74, 80
1, 49919, Note_on_c, 0, 74, 0
1, 49920, Note_on_c, 0, 72, 80
1, 50159, Note_on_c, 0, 72, 0
1, 50160, Note_on_c, 0, 76, 80
1, 50279, Note_on_c, 0, 76, 0
1, 50280, Note_on_c, 0, 76, 80
1, 50399, Note_on_c, 0, 76, 0
1, 50400, Note_on_c, 0, 77, 80
1, 50519, Note_on_c, 0, 77, 0
1, 50520, Note_on_c, 0, 76, 80
1, 50639, Note_on_c, 0, 76, 0
1, 50640, Note_on_c, 0, 74, 80
1, 50759, Note_on_c, 0, 74, 0
1, 50760, Note_on_c, 0, 76, 80
1, 50879, Note_on_c, 0, 76, 0
1, 50880, Note_on_c, 0, 74, 80
1, 50880, Note_on_c, 0, 79, 80
1, 50999, Note_on_c, 0, 74, 0
1, 50999, Note_on_c, 0, 79, 0
1, 51000, Note_on_c, 0, 74, 80
1, 51119, Note_on_c, 0, 74, 0
1, 51120, Note_on_c, 0, 72, 80
1, 51359, Note_on_c, 0, 72, 0
1, 51360, Note_on_c, 0, 69, 80
1, 51360, Note_on_c, 0, 74, 80
1, 51599, Note_on_c, 0, 69, 0
1, 51599, Note_on_c, 0, 74, 0
1, 51600, Note_on_c, 0, 74, 80
1, 51719, Note_on_c, 0, 74, 0
1, 51720, Note_on_c, 0, 72, 80
1, 51839, Note_on_c, 0, 72, 0
1, 51840, Note_on_c, 0, 74, 80
1, 51959, Note_on_c, 0, 74, 0
1, 51960, Note_on_c, 0, 69, 80
1, 52079, Note_on_c, 0, 69, 0
1, 52080, Note_on_c, 0, 69, 80
1, 52199, Note_on_c, 0, 69, 0
1, 52200, Note_on_c, 0, 69, 80
1, 52319, Note_on_c, 0, 69, 0
1, 52320, Note_on_c, 0, 72, 80
1, 52320, Note_on_c, 0, 79, 80
1, 52559, Note_on_c, 0, 72, 0
1, 52559, Note_on_c, 0, 79, 0
1, 52560, Note_on_c, 0, 74, 80
1, 52799, Note_on_c, 0, 74, 0
1, 52800, Time_signature, 4, 2, 24, 8
1, 52800, Note_on_c, 0, 72, 80
1, 52800, Note_on_c, 0, 76, 80
1, 53039, Note_on_c, 0, 72, 0
1, 53039, Note_on_c, 0, 76, 0
1, 53040, Note_on_c, 0, 74, 80
1, 53159, Note_on_c, 0, 74, 0
1, 53160, Note_on_c, 0, 72, 80
1, 53279, Note_on_c, 0, 72, 0
1, 53280, Note_on_c, 0, 74, 80
1, 53519, Note_on_c, 0, 74, 0
1, 53520, Note_on_c, 0, 77, 80
1, 53759, Note_on_c, 0, 77, 0
1, 53760, Note_on_c, 0, 74, 80
1, 53999, Note_on_c, 0, 74, 0
1, 54000, Note_on_c, 0, 74, 80
1, 54119, Note_on_c, 0, 74, 0
1, 54120, Note_on_c, 0, 72, 80
1, 54239, Note_on_c, 0, 72, 0
1, 54240, Note_on_c, 0, 74, 80
1, 54479, Note_on_c, 0, 74, 0
1, 54480, Note_on_c, 0, 77, 80
1, 54719, Note_on_c, 0, 77, 0
1, 54880, Note_on_c, 0, 74, 80
1, 55039, Note_on_c, 0, 74, 0
1, 55040, Note_on_c, 0, 72, 80
1, 55199, Note_on_c, 0, 72, 0
1, 55200, Note_on_c, 0, 74, 80
1, 55359, Note_on_c, 0, 74, 0
1, 55360, Note_on_c, 0, 72, 80
1, 55519, Note_on_c, 0, 72, 0
1, 55520, Note_on_c, 0, 74, 80
1, 55679, Note_on_c, 0, 74, 0
1, 55920, Note_on_c, 0, 76, 80
1, 55959, Note_on_c, 0, 76, 0
1, 55960, Note_on_c, 0, 77, 80
1, 56159, Note_on_c, 0, 77, 0
1, 56160, Note_on_c, 0, 76, 80
1, 56399, Note_on_c, 0, 76, 0
1, 56400, Note_on_c, 0, 74, 80
1, 56519, Note_on_c, 0, 74, 0
1, 56520, Note_on_c, 0, 74, 80
1, 56879, Note_on_c, 0, 74, 0
1, 56880, Note_on_c, 0, 74, 80
1, 57119, Note_on_c, 0, 74, 0
1, 57120, Note_on_c, 0, 69, 80
1, 57239, Note_on_c, 0, 69, 0
1, 57240, Note_on_c, 0, 69, 80
1, 57359, Note_on_c, 0, 69, 0
1, 57360, Note_on_c, 0, 74, 80
1, 57539, Note_on_c, 0, 74, 0
1, 57540, Note_on_c, 0, 72, 80
1, 57599, Note_on_c, 0, 72, 0
1, 57600, Note_on_c, 0, 74, 80
1, 57839, Note_on_c, 0, 74, 0
1, 57840, Note_on_c, 0, 69, 80
1, 57959, Note_on_c, 0, 69, 0
1, 57960, Note_on_c, 0, 69, 80
1, 58079, Note_on_c, 0, 69, 0
1, 58080, Note_on_c, 0, 76, 80
1, 58199, Note_on_c, 0, 76, 0
1, 58200, Note_on_c, 0, 77, 80
1, 58319, Note_on_c, 0, 77, 0
1, 58320, Note_on_c, 0, 76, 80
1, 58439, Note_on_c, 0, 76, 0
1, 58440, Note_on_c, 0, 76, 80
1, 58799, Note_on_c, 0, 76, 0
1, 58800, Note_on_c, 0, 76, 80
1, 59039, Note_on_c, 0, 76, 0
1, 59040, Note_on_c, 0, 76, 80
1, 59159, Note_on_c, 0, 76, 0
1, 59160, Note_on_c, 0, 74, 80
1, 59279, Note_on_c, 0, 74, 0
1, 59280, Note_on_c, 0, 76, 80
1, 59399, Note_on_c, 0, 76, 0
1, 59400, Note_on_c, 0, 76, 80
1, 59639, Note_on_c, 0, 76, 0
1, 59640, Note_on_c, 0, 74, 80
1, 59759, Note_on_c, 0, 74, 0
1, 59760, Note_on_c, 0, 76, 80
1, 59879, Note_on_c, 0, 76, 0
1, 59880, Note_on_c, 0, 74, 80
1, 59999, Note_on_c, 0, 74, 0
1, 60000, Note_on_c, 0, 76, 80
1, 60119, Note_on_c, 0, 76, 0
1, 60120, Note_on_c, 0, 74, 80
1, 60239, Note_on_c, 0, 74, 0
1, 60240, Note_on_c, 0, 76, 80
1, 60359, Note_on_c, 0, 76, 0
1, 60360, Note_on_c, 0, 77, 80
1, 60719, Note_on_c, 0, 77, 0
1, 60720, Note_on_c, 0, 77, 80
1, 60839, Note_on_c, 0, 77, 0
1, 60840, Note_on_c, 0, 72, 80
1, 60959, Note_on_c, 0, 72, 0
1, 60960, Note_on_c, 0, 72, 80
1, 61079, Note_on_c, 0, 72, 0
1, 61080, Note_on_c, 0, 74, 80
1, 61199, Note_on_c, 0, 74, 0
1, 61200, Note_on_c, 0, 77, 80
1, 61439, Note_on_c, 0, 77, 0
1, 61440, Note_on_c, 0, 81, 80
1, 61679, Note_on_c, 0, 81, 0
1, 61680, Note_on_c, 0, 72, 80
1, 61799, Note_on_c, 0, 72, 0
1, 61800, Note_on_c, 0, 74, 80
1, 61979, Note_on_c, 0, 74, 0
1, 62040, Note_on_c, 0, 72, 80
1, 62159, Note_on_c, 0, 72, 0
1, 62160, Note_on_c, 0, 77, 80
1, 62279, Note_on_c, 0, 77, 0
1, 62280, Note_on_c, 0, 77, 80
1, 62639, Note_on_c, 0, 77, 0
1, 62640, Note_on_c, 0, 74, 80
1, 62759, Note_on_c, 0, 74, 0
1, 62760, Note_on_c, 0, 72, 80
1, 62879, Note_on_c, 0, 72, 0
1, 62880, Note_on_c, 0, 72, 80
1, 62999, Note_on_c, 0, 72, 0
1, 63000, Note_on_c, 0, 74, 80
1, 63119, Note_on_c, 0, 74, 0
1, 63120, Note_on_c, 0, 77, 80
1, 63239, Note_on_c, 0, 77, 0
1, 63240, Note_on_c, 0, 77, 80
1, 63479, Note_on_c, 0, 77, 0
1, 63840, Note_on_c, 0, 76, 80
1, 63879, Note_on_c, 0, 76, 0
1, 63880, Note_on_c, 0, 77, 80
1, 63959, Note_on_c, 0, 77, 0
1, 63960, Note_on_c, 0, 76, 80
1, 64079, Note_on_c, 0, 76, 0
1, 64080, Note_on_c, 0, 74, 80
1, 64199, Note_on_c, 0, 74, 0
1, 64200, Note_on_c, 0, 74, 80
1, 64559, Note_on_c, 0, 74, 0
1, 64560, Note_on_c, 0, 74, 80
1, 64799, Note_on_c, 0, 74, 0
1, 64800, Note_on_c, 0, 69, 80
1, 64919, Note_on_c, 0, 69, 0
1, 64920, Note_on_c, 0, 69, 80
1, 65039, Note_on_c, 0, 69, 0
1, 65040, Note_on_c, 0, 74, 80
1, 65219, Note_on_c, 0, 74, 0
1, 65220, Note_on_c, 0, 72, 80
1, 65279, Note_on_c, 0, 72, 0
1, 65280, Note_on_c, 0, 74, 80
1, 65519, Note_on_c, 0, 74, 0
1, 65520, Note_on_c, 0, 69, 80
1, 65639, Note_on_c, 0, 69, 0
1, 65640, Note_on_c, 0, 69, 80
1, 65759, Note_on_c, 0, 69, 0
1, 65760, Note_on_c, 0, 76, 80
1, 65879, Note_on_c, 0, 76, 0
1, 65880, Note_on_c, 0, 77, 80
1, 65999, Note_on_c, 0, 77, 0
1, 66000, Note_on_c, 0, 76, 80
1, 66119, Note_on_c, 0, 76, 0
1, 66120, Note_on_c, 0, 76, 80
1, 66479, Note_on_c, 0, 76, 0
1, 66480, Note_on_c, 0, 76, 80
1, 66719, Note_on_c, 0, 76, 0
1, 66720, Note_on_c, 0, 76, 80
1, 66839, Note_on_c, 0, 76, 0
1, 66840, Note_on_c, 0, 74, 80
1, 66959, Note_on_c, 0, 74, 0
1, 66960, Note_on_c, 0, 76, 80
1, 67079, Note_on_c, 0, 76, 0
1, 67080, Note_on_c, 0, 76, 80
1, 67319, Note_on_c, 0, 76, 0
1, 67320, Note_on_c, 0, 74, 80
1, 67439, Note_on_c, 0, 74, 0
1, 67440, Note_on_c, 0, 76, 80
1, 67559, Note_on_c, 0, 76, 0
1, 67560, Note_on_c, 0, 74, 80
1, 67679, Note_on_c, 0, 74, 0
1, 67680, Note_on_c, 0, 76, 80
1, 67799, Note_on_c, 0, 76, 0
1, 67800, Note_on_c, 0, 74, 80
1, 67919, Note_on_c, 0, 74, 0
1, 67920, Note_on_c, 0, 76, 80
1, 68039, Note_on_c, 0, 76, 0
1, 68040, Note_on_c, 0, 77, 80
1, 68399, Note_on_c, 0, 77, 0
1, 68400, Note_on_c, 0, 77, 80
1, 68519, Note_on_c, 0, 77, 0
1, 68520, Note_on_c, 0, 72, 80
1, 68639, Note_on_c, 0, 72, 0
1, 68640, Note_on_c, 0, 72, 80
1, 68759, Note_on_c, 0, 72, 0
1, 68760, Note_on_c, 0, 74, 80
1, 68879, Note_on_c, 0, 74, 0
1, 68880, Note_on_c, 0, 77, 80
1, 69119, Note_on_c, 0, 77, 0
1, 69120, Note_on_c, 0, 81, 80
1, 69359, Note_on_c, 0, 81, 0
1, 69360, Note_on_c, 0, 72, 80
1, 69479, Note_on_c, 0, 72, 0
1, 69480, Note_on_c, 0, 74, 80
1, 69659, Note_on_c, 0, 74, 0
1, 69720, Note_on_c, 0, 72, 80
1, 69839, Note_on_c, 0, 72, 0
1, 69840, Note_on_c, 0, 77, 80
1, 69959, Note_on_c, 0, 77, 0
1, 69960, Note_on_c, 0, 77, 80
1, 70319, Note_on_c, 0, 77, 0
1, 70320, Note_on_c, 0, 74, 80
1, 70439, Note_on_c, 0, 74, 0
1, 70440, Note_on_c, 0, 72, 80
1, 70559, Note_on_c, 0, 72, 0
1, 70560, Note_on_c, 0, 72, 80
1, 70679, Note_on_c, 0, 72, 0
1, 70680, Note_on_c, 0, 74, 80
1, 70799, Note_on_c, 0, 74, 0
1, 70800, Note_on_c, 0, 77, 80
1, 70919, Note_on_c, 0, 77, 0
1, 70920, Note_on_c, 0, 77, 80
1, 71159, Note_on_c, 0, 77, 0
1, 72360, Note_on_c, 0, 77, 80
1, 72479, Note_on_c, 0, 77, 0
1, 72480, Note_on_c, 0, 77, 80
1, 72639, Note_on_c, 0, 77, 0
1, 72640, Note_on_c, 0, 76, 80
1, 72799, Note_on_c, 0, 76, 0
1, 72800, Note_on_c, 0, 74, 80
1, 72959, Note_on_c, 0, 74, 0
1, 72960, Note_on_c, 0, 76, 80
1, 73439, Note_on_c, 0, 76, 0
1, 73680, Note_on_c, 0, 76, 80
1, 73799, Note_on_c, 0, 76, 0
1, 73800, Note_on_c, 0, 77, 80
1, 73919, Note_on_c, 0, 77, 0
1, 73920, Note_on_c, 0, 74, 80
1, 74039, Note_on_c, 0, 74, 0
1, 74040, Note_on_c, 0, 76, 80
1, 74159, Note_on_c, 0, 76, 0
1, 74160, Note_on_c, 0, 76, 80
1, 74279, Note_on_c, 0, 76, 0
1, 74280, Note_on_c, 0, 74, 80
1, 74399, Note_on_c, 0, 74, 0
1, 74400, Note_on_c, 0, 72, 80
1, 74639, Note_on_c, 0, 72, 0
1, 74640, Note_on_c, 0, 74, 80
1, 74879, Note_on_c, 0, 74, 0
1, 74880, Note_on_c, 0, 72, 80
1, 75359, Note_on_c, 0, 72, 0
1, 75600, Note_on_c, 0, 74, 80
1, 75719, Note_on_c, 0, 74, 0
1, 75720, Note_on_c, 0, 76, 80
1, 75839, Note_on_c, 0, 76, 0
1, 75840, Note_on_c, 0, 77, 80
1, 76319, Note_on_c, 0, 77, 0
1, 76320, Note_on_c, 0, 77, 80
1, 76439, Note_on_c, 0, 77, 0
1, 76440, Note_on_c, 0, 76, 80
1, 76559, Note_on_c, 0, 76, 0
1, 76560, Note_on_c, 0, 76, 80
1, 76639, Note_on_c, 0, 76, 0
1, 76640, Note_on_c, 0, 74, 80
1, 76719, Note_on_c, 0, 74, 0
1, 76720, Note_on_c, 0, 72, 80
1, 76799, Note_on_c, 0, 72, 0
1, 76800, Note_on_c, 0, 72, 80
1, 76919, Note_on_c, 0, 72, 0
1, 76920, Note_on_c, 0, 76, 80
1, 77159, Note_on_c, 0, 76, 0
1, 77160, Note_on_c, 0, 74, 80
1, 77519, Note_on_c, 0, 74, 0
1, 77520, Note_on_c, 0, 72, 80
1, 77599, Note_on_c, 0, 72, 0
1, 77600, Note_on_c, 0, 74, 80
1, 77679, Note_on_c, 0, 74, 0
1, 77680, Note_on_c, 0, 76, 80
1, 77759, Note_on_c, 0, 76, 0
1, 77760, Note_on_c, 0, 74, 80
1, 78119, Note_on_c, 0, 74, 0
1, 78120, Note_on_c, 0, 74, 80
1, 78479, Note_on_c, 0, 74, 0
1, 78480, Note_on_c, 0, 71, 80
1, 78959, Note_on_c, 0, 71, 0
1, 79440, Note_on_c, 0, 74, 80
1, 79559, Note_on_c, 0, 74, 0
1, 79560, Note_on_c, 0, 76, 80
1, 79679, Note_on_c, 0, 76, 0
1, 79680, Note_on_c, 0, 77, 80
1, 80159, Note_on_c, 0, 77, 0
1, 80160, Note_on_c, 0, 79, 80
1, 80519, Note_on_c, 0, 79, 0
1, 80520, Note_on_c, 0, 79, 80
1, 80639, Note_on_c, 0, 79, 0
1, 80640, Note_on_c, 0, 79, 80
1, 81119, Note_on_c, 0, 79, 0
1, 81280, Note_on_c, 0, 77, 80
1, 81439, Note_on_c, 0, 77, 0
1, 81440, Note_on_c, 0, 84, 80
1, 81599, Note_on_c, 0, 84, 0
1, 81600, Note_on_c, 0, 83, 80
1, 81839, Note_on_c, 0, 83, 0
1, 81840, Note_on_c, 0, 84, 80
1, 81959, Note_on_c, 0, 84, 0
1, 81960, Note_on_c, 0, 83, 80
1, 82239, Note_on_c, 0, 83, 0
1, 82240, Note_on_c, 0, 81, 80
1, 82399, Note_on_c, 0, 81, 0
1, 82400, Note_on_c, 0, 79, 80
1, 82559, Note_on_c, 0, 79, 0
1, 82560, Note_on_c, 0, 81, 80
1, 83039, Note_on_c, 0, 81, 0
1, 83280, Note_on_c, 0, 74, 80
1, 83399, Note_on_c, 0, 74, 0
1, 83400, Note_on_c, 0, 76, 80
1, 83519, Note_on_c, 0, 76, 0
1, 83520, Note_on_c, 0, 77, 80
1, 83879, Note_on_c, 0, 77, 0
1, 83880, Note_on_c, 0, 79, 80
1, 84119, Note_on_c, 0, 79, 0
1, 84120, Note_on_c, 0, 77, 80
1, 84239, Note_on_c, 0, 77, 0
1, 84240, Note_on_c, 0, 76, 80
1, 84359, Note_on_c, 0, 76, 0
1, 84360, Note_on_c, 0, 74, 80
1, 84479, Note_on_c, 0, 74, 0
1, 84480, Note_on_c, 0, 76, 80
1, 84599, Note_on_c, 0, 76, 0
1, 84600, Note_on_c, 0, 76, 80
1, 84959, Note_on_c, 0, 76, 0
1, 85200, Note_on_c, 0, 72, 80
1, 85319, Note_on_c, 0, 72, 0
1, 85320, Note_on_c, 0, 76, 80
1, 85439, Note_on_c, 0, 76, 0
1, 85440, Note_on_c, 0, 74, 80
1, 85799, Note_on_c, 0, 74, 0
1, 85800, Note_on_c, 0, 74, 80
1, 86039, Note_on_c, 0, 74, 0
1, 86040, Note_on_c, 0, 72, 80
1, 86639, Note_on_c, 0, 72, 0
1, 86640, Note_on_c, 0, 72, 80
1, 86759, Note_on_c, 0, 72, 0
1, 86760, Note_on_c, 0, 74, 80
1, 86879, Note_on_c, 0, 74, 0
1, 86880, Note_on_c, 0, 72, 80
1, 87359, Note_on_c, 0, 72, 0
1, 88080, Note_on_c, 0, 76, 80
1, 88799, Note_on_c, 0, 76, 0
1, 88800, Note_on_c, 0, 74, 80
1, 89280, Time_signature, 2, 2, 24, 8
1, 89519, Note_on_c, 0, 74, 0
1, 90000, Note_on_c, 0, 79, 80
1, 90240, Time_signature, 3, 2, 24, 8
1, 90479, Note_on_c, 0, 79, 0
1, 90720, Note_on_c, 0, 79, 80
1, 90759, Note_on_c, 0, 79, 0
1, 90760, Note_on_c, 0, 84, 80
1, 91559, Note_on_c, 0, 84, 0
1, 91560, Note_on_c, 0, 81, 80
1, 91679, Note_on_c, 0, 81, 0
1, 91680, Note_on_c, 0, 79, 80
1, 91799, Note_on_c, 0, 79, 0
1, 91800, Note_on_c, 0, 84, 80
1, 92159, Note_on_c, 0, 84, 0
1, 92640, Note_on_c, 0, 84, 80
1, 92879, Note_on_c, 0, 84, 0
1, 92880, Note_on_c, 0, 79, 80
1, 93119, Note_on_c, 0, 79, 0
1, 93120, Note_on_c, 0, 76, 80
1, 93239, Note_on_c, 0, 76, 0
1, 93240, Note_on_c, 0, 77, 80
1, 93359, Note_on_c, 0, 77, 0
1, 93360, Note_on_c, 0, 76, 80
1, 93719, Note_on_c, 0, 76, 0
1, 93720, Note_on_c, 0, 74, 80
1, 93959, Note_on_c, 0, 74, 0
1, 93960, Note_on_c, 0, 74, 80
1, 94199, Note_on_c, 0, 74, 0
1, 94200, Note_on_c, 0, 76, 80
1, 94319, Note_on_c, 0, 76, 0
1, 94320, Note_on_c, 0, 77, 80
1, 94439, Note_on_c, 0, 77, 0
1, 94440, Note_on_c, 0, 79, 80
1, 94559, Note_on_c, 0, 79, 0
1, 94560, Time_signature, 4, 2, 24, 8
1, 94560, Note_on_c, 0, 76, 80
1, 94655, Note_on_c, 0, 76, 0
1, 94656, Note_on_c, 0, 74, 80
1, 94895, Note_on_c, 0, 74, 0
1, 94896, Note_on_c, 0, 76, 80
1, 94919, Note_on_c, 0, 76, 0
1, 94944, Note_on_c, 0, 74, 80
1, 95039, Note_on_c, 0, 74, 0
1, 95040, Note_on_c, 0, 72, 80
1, 95519, Note_on_c, 0, 72, 0
1, 95520, Tempo, 500000
1, 97440, Tempo, 952381
1, 97920, Note_on_c, 0, 71, 80
1, 97959, Note_on_c, 0, 71, 0
1, 97960, Note_on_c, 0, 72, 80
1, 98039, Note_on_c, 0, 72, 0
1, 98040, Note_on_c, 0, 71, 80
1, 98159, Note_on_c, 0, 71, 0
1, 98160, Note_on_c, 0, 69, 80
1, 98279, Note_on_c, 0, 69, 0
1, 98280, Note_on_c, 0, 69, 80
1, 98639, Note_on_c, 0, 69, 0
1, 98640, Note_on_c, 0, 69, 80
1, 98879, Note_on_c, 0, 69, 0
1, 98880, Note_on_c, 0, 64, 80
1, 98999, Note_on_c, 0, 64, 0
1, 99000, Note_on_c, 0, 64, 80
1, 99119, Note_on_c, 0, 64, 0
1, 99120, Note_on_c, 0, 69, 80
1, 99299, Note_on_c, 0, 69, 0
1, 99300, Note_on_c, 0, 67, 80
1, 99359, Note_on_c, 0, 67, 0
1, 99360, Note_on_c, 0, 69, 80
1, 99599, Note_on_c, 0, 69, 0
1, 99600, Note_on_c, 0, 64, 80
1, 99719, Note_on_c, 0, 64, 0
1, 99720, Note_on_c, 0, 64, 80
1, 99839, Note_on_c, 0, 64, 0
1, 99840, Note_on_c, 0, 71, 80
1, 99959, Note_on_c, 0, 71, 0
1, 99960, Note_on_c, 0, 72, 80
1, 100079, Note_on_c, 0, 72, 0
1, 100080, Note_on_c, 0, 71, 80
1, 100199, Note_on_c, 0, 71, 0
1, 100200, Note_on_c, 0, 71, 80
1, 100559, Note_on_c, 0, 71, 0
1, 100560, Note_on_c, 0, 71, 80
1, 100799, Note_on_c, 0, 71, 0
1, 100800, Note_on_c, 0, 71, 80
1, 100919, Note_on_c, 0, 71, 0
1, 100920, Note_on_c, 0, 69, 80
1, 101039, Note_on_c, 0, 69, 0
1, 101040, Note_on_c, 0, 71, 80
1, 101159, Note_on_c, 0, 71, 0
1, 101160, Note_on_c, 0, 71, 80
1, 101399, Note_on_c, 0, 71, 0
1, 101400, Note_on_c, 0, 69, 80
1, 101519, Note_on_c, 0, 69, 0
1, 101520, Note_on_c, 0, 71, 80
1, 101639, Note_on_c, 0, 71, 0
1, 101640, Note_on_c, 0, 69, 80
1, 101759, Note_on_c, 0, 69, 0
1, 101760, Note_on_c, 0, 71, 80
1, 101879, Note_on_c, 0, 71, 0
1, 101880, Note_on_c, 0, 69, 80
1, 101999, Note_on_c, 0, 69, 0
1, 102000, Note_on_c, 0, 71, 80
1, 102119, Note_on_c, 0, 71, 0
1, 102120, Note_on_c, 0, 72, 80
1, 102479, Note_on_c, 0, 72, 0
1, 102480, Note_on_c, 0, 72, 80
1, 102599, Note_on_c, 0, 72, 0
1, 102600, Note_on_c, 0, 67, 80
1, 102719, Note_on_c, 0, 67, 0
1, 102720, Note_on_c, 0, 67, 80
1, 102839, Note_on_c, 0, 67, 0
1, 102840, Note_on_c, 0, 69, 80
1, 102959, Note_on_c, 0, 69, 0
1, 102960, Note_on_c, 0, 72, 80
1, 103199, Note_on_c, 0, 72, 0
1, 103200, Note_on_c, 0, 76, 80
1, 103439, Note_on_c, 0, 76, 0
1, 103440, Note_on_c, 0, 67, 80
1, 103559, Note_on_c, 0, 67, 0
1, 103560, Note_on_c, 0, 69, 80
1, 103739, Note_on_c, 0, 69, 0
1, 103800, Note_on_c, 0, 67, 80
1, 103919, Note_on_c, 0, 67, 0
1, 103920, Note_on_c, 0, 72, 80
1, 104039, Note_on_c, 0, 72, 0
1, 104040, Note_on_c, 0, 72, 80
1, 104399, Note_on_c, 0, 72, 0
1, 104400, Note_on_c, 0, 69, 80
1, 104519, Note_on_c, 0, 69, 0
1, 104520, Note_on_c, 0, 67, 80
1, 104639, Note_on_c, 0, 67, 0
1, 104640, Note_on_c, 0, 67, 80
1, 104759, Note_on_c, 0, 67, 0
1, 104760, Note_on_c, 0, 69, 80
1, 104879, Note_on_c, 0, 69, 0
1, 104880, Note_on_c, 0, 72, 80
1, 104999, Note_on_c, 0, 72, 0
1, 105000, Note_on_c, 0, 72, 80
1, 105239, Note_on_c, 0, 72, 0
1, 105600, Note_on_c, 0, 71, 80
1, 105639, Note_on_c, 0, 71, 0
1, 105640, Note_on_c, 0, 72, 80
1, 105719, Note_on_c, 0, 72, 0
1, 105720, Note_on_c, 0, 71, 80
1, 105839, Note_on_c, 0, 71, 0
1, 105840, Note_on_c, 0, 69, 80
1, 105959, Note_on_c, 0, 69, 0
1, 105960, Note_on_c, 0, 69, 80
1, 106079, Note_on_c, 0, 69, 0
1, 106320, Note_on_c, 0, 69, 80
1, 106559, Note_on_c, 0, 69, 0
1, 106560, Note_on_c, 0, 64, 80
1, 106679, Note_on_c, 0, 64, 0
1, 106680, Note_on_c, 0, 64, 80
1, 106799, Note_on_c, 0, 64, 0
1, 106800, Note_on_c, 0, 69, 80
1, 106979, Note_on_c, 0, 69, 0
1, 106980, Note_on_c, 0, 67, 80
1, 107039, Note_on_c, 0, 67, 0
1, 107040, Note_on_c, 0, 69, 80
1, 107279, Note_on_c, 0, 69, 0
1, 107280, Note_on_c, 0, 64, 80
1, 107399, Note_on_c, 0, 64, 0
1, 107400, Note_on_c, 0, 64, 80
1, 107519, Note_on_c, 0, 64, 0
1, 107520, Note_on_c, 0, 71, 80
1, 107639, Note_on_c, 0, 71, 0
1, 107640, Note_on_c, 0, 72, 80
1, 107759, Note_on_c, 0, 72, 0
1, 107760, Note_on_c, 0, 71, 80
1, 107879, Note_on_c, 0, 71, 0
1, 107880, Note_on_c, 0, 71, 80
1, 108239, Note_on_c, 0, 71, 0
1, 108240, Note_on_c, 0, 71, 80
1, 108479, Note_on_c, 0, 71, 0
1, 108480, Note_on_c, 0, 71, 80
1, 108599, Note_on_c, 0, 71, 0
1, 108600, Note_on_c, 0, 69, 80
1, 108719, Note_on_c, 0, 69, 0
1, 108720, Note_on_c, 0, 71, 80
1, 108839, Note_on_c, 0, 71, 0
1, 108840, Note_on_c, 0, 71, 80
1, 109079, Note_on_c, 0, 71, 0
1, 109080, Note_on_c, 0, 69, 80
1, 109199, Note_on_c, 0, 69, 0
1, 109200, Note_on_c, 0, 71, 80
1, 109319, Note_on_c, 0, 71, 0
1, 109320, Note_on_c, 0, 69, 80
1, 109439, Note_on_c, 0, 69, 0
1, 109440, Note_on_c, 0, 71, 80
1, 109559, Note_on_c, 0, 71, 0
1, 109560, Note_on_c, 0, 69, 80
1, 109679, Note_on_c, 0, 69, 0
1, 109680, Note_on_c, 0, 71, 80
1, 109799, Note_on_c, 0, 71, 0
1, 109800, Note_on_c, 0, 72, 80
1, 110159, Note_on_c, 0, 72, 0
1, 110160, Note_on_c, 0, 72, 80
1, 110279, Note_on_c, 0, 72, 0
1, 110280, Note_on_c, 0, 67, 80
1, 110399, Note_on_c, 0, 67, 0
1, 110400, Note_on_c, 0, 67, 80
1, 110519, Note_on_c, 0, 67, 0
1, 110520, Note_on_c, 0, 69, 80
1, 110639, Note_on_c, 0, 69, 0
1, 110640, Note_on_c, 0, 72, 80
1, 110879, Note_on_c, 0, 72, 0
1, 110880, Note_on_c, 0, 76, 80
1, 111119, Note_on_c, 0, 76, 0
1, 111120, Note_on_c, 0, 67, 80
1, 111239, Note_on_c, 0, 67, 0
1, 111240, Note_on_c, 0, 69, 80
1, 111419, Note_on_c, 0, 69, 0
1, 111480, Note_on_c, 0, 67, 80
1, 111599, Note_on_c, 0, 67, 0
1, 111600, Note_on_c, 0, 72, 80
1, 111719, Note_on_c, 0, 72, 0
1, 111720, Note_on_c, 0, 72, 80
1, 112079, Note_on_c, 0, 72, 0
1, 112080, Note_on_c, 0, 69, 80
1, 112199, Note_on_c, 0, 69, 0
1, 112200, Note_on_c, 0, 67, 80
1, 112319, Note_on_c, 0, 67, 0
1, 112320, Note_on_c, 0, 67, 80
1, 112439, Note_on_c, 0, 67, 0
1, 112440, Note_on_c, 0, 69, 80
1, 112559, Note_on_c, 0, 69, 0
1, 112560, Note_on_c, 0, 72, 80
1, 112679, Note_on_c, 0, 72, 0
1, 112680, Note_on_c, 0, 72, 80
1, 112919, Note_on_c, 0, 72, 0
1, 113280, Note_on_c, 0, 71, 80
1, 113319, Note_on_c, 0, 71, 0
1, 113320, Note_on_c, 0, 72, 80
1, 113399, Note_on_c, 0, 72, 0
1, 113400, Note_on_c, 0, 71, 80
1, 113519, Note_on_c, 0, 71, 0
1, 113520, Note_on_c, 0, 69, 80
1, 113639, Note_on_c, 0, 69, 0
1, 113640, Note_on_c, 0, 69, 80
1, 113759, Note_on_c, 0, 69, 0
1, 113760, Note_on_c, 0, 64, 80
1, 113760, Note_on_c, 0, 69, 80
1, 113760, Note_on_c, 0, 72, 80
1, 115679, Note_on_c, 0, 64, 0
1, 115679, Note_on_c, 0, 69, 0
1, 115679, Note_on_c, 0, 72, 0
1, 115680, End_track
2, 0, Start_track
2, 0, Title_t, "Piano, Piano, Piano\000"
2, 0, Key_signature, 0, "major"
2, 0, Control_c, 1, 121, 0
2, 0, Program_c, 1, 0
2, 0, Control_c, 1, 7, 100
2, 0, Control_c, 1, 10, 64
2, 0, Control_c, 1, 91, 0
2, 0, Control_c, 1, 93, 0
2, 0, MIDI_port, 0
2, 0, Note_on_c, 1, 57, 80
2, 0, Note_on_c, 1, 62, 80
2, 0, Note_on_c, 1, 65, 80
2, 911, Note_on_c, 1, 57, 0
2, 911, Note_on_c, 1, 62, 0
2, 911, Note_on_c, 1, 65, 0
2, 960, Note_on_c, 1, 55, 80
2, 960, Note_on_c, 1, 62, 80
2, 1415, Note_on_c, 1, 55, 0
2, 1415, Note_on_c, 1, 62, 0
2, 1440, Note_on_c, 1, 57, 80
2, 1440, Note_on_c, 1, 62, 80
2, 1440, Note_on_c, 1, 65, 80
2, 2351, Note_on_c, 1, 57, 0
2, 2351, Note_on_c, 1, 62, 0
2, 2351, Note_on_c, 1, 65, 0
2, 2400, Note_on_c, 1, 55, 80
2, 2400, Note_on_c, 1, 62, 80
2, 2855, Note_on_c, 1, 55, 0
2, 2855, Note_on_c, 1, 62, 0
2, 2880, Note_on_c, 1, 57, 80
2, 2880, Note_on_c, 1, 60, 80
2, 2880, Note_on_c, 1, 65, 80
2, 3791, Note_on_c, 1, 57, 0
2, 3791, Note_on_c, 1, 60, 0
2, 3791, Note_on_c, 1, 65, 0
2, 3840, Note_on_c, 1, 55, 80
2, 3840, Note_on_c, 1, 62, 80
2, 4295, Note_on_c, 1, 55, 0
2, 4295, Note_on_c, 1, 62, 0
2, 4320, Note_on_c, 1, 57, 80
2, 4320, Note_on_c, 1, 62, 80
2, 4320, Note_on_c, 1, 65, 80
2, 5231, Note_on_c, 1, 57, 0
2, 5231, Note_on_c, 1, 62, 0
2, 5231, Note_on_c, 1, 65, 0
2, 5280, Note_on_c, 1, 55, 80
2, 5280, Note_on_c, 1, 62, 80
2, 5735, Note_on_c, 1, 55, 0
2, 5735, Note_on_c, 1, 62, 0
2, 5760, Note_on_c, 1, 57, 80
2, 5760, Note_on_c, 1, 62, 80
2, 5760, Note_on_c, 1, 65, 80
2, 6671, Note_on_c, 1, 57, 0
2, 6671, Note_on_c, 1, 62, 0
2, 6671, Note_on_c, 1, 65, 0
2, 6720, Note_on_c, 1, 55, 80
2, 6720, Note_on_c, 1, 62, 80
2, 7175, Note_on_c, 1, 55, 0
2, 7175, Note_on_c, 1, 62, 0
2, 7200, Note_on_c, 1, 57, 80
2, 7200, Note_on_c, 1, 62, 80
2, 7200, Note_on_c, 1, 65, 80
2, 8111, Note_on_c, 1, 57, 0
2, 8111, Note_on_c, 1, 62, 0
2, 8111, Note_on_c, 1, 65, 0
2, 8160, Note_on_c, 1, 55, 80
2, 8160, Note_on_c, 1, 62, 80
2, 8615, Note_on_c, 1, 55, 0
2, 8615, Note_on_c, 1, 62, 0
2, 8640, Note_on_c, 1, 57, 80
2, 8640, Note_on_c, 1, 60, 80
2, 8640, Note_on_c, 1, 65, 80
2, 9551, Note_on_c, 1, 57, 0
2, 9551, Note_on_c, 1, 60, 0
2, 9551, Note_on_c, 1, 65, 0
2, 9600, Note_on_c, 1, 55, 80
2, 9600, Note_on_c, 1, 62, 80
2, 10055, Note_on_c, 1, 55, 0
2, 10055, Note_on_c, 1, 62, 0
2, 10080, Note_on_c, 1, 57, 80
2, 10080, Note_on_c, 1, 62, 80
2, 10080, Note_on_c, 1, 65, 80
2, 10991, Note_on_c, 1, 57, 0
2, 10991, Note_on_c, 1, 62, 0
2, 10991, Note_on_c, 1, 65, 0
2, 11040, Note_on_c, 1, 55, 80
2, 11040, Note_on_c, 1, 62, 80
2, 11495, Note_on_c, 1, 55, 0
2, 11495, Note_on_c, 1, 62, 0
2, 11520, Note_on_c, 1, 60, 80
2, 11520, Note_on_c, 1, 64, 80
2, 13343, Note_on_c, 1, 60, 0
2, 13343, Note_on_c, 1, 64, 0
2, 13440, Note_on_c, 1, 62, 80
2, 13440, Note_on_c, 1, 65, 80
2, 13440, Note_on_c, 1, 69, 80
2, 14351, Note_on_c, 1, 62, 0
2, 14351, Note_on_c, 1, 65, 0
2, 14351, Note_on_c, 1, 69, 0
2, 14400, Note_on_c, 1, 55, 80
2, 14400, Note_on_c, 1, 62, 80
2, 14855, Note_on_c, 1, 55, 0
2, 14855, Note_on_c, 1, 62, 0
2, 14880, Note_on_c, 1, 62, 80
2, 14880, Note_on_c, 1, 65, 80
2, 14880, Note_on_c, 1, 69, 80
2, 15791, Note_on_c, 1, 62, 0
2, 15791, Note_on_c, 1, 65, 0
2, 15791, Note_on_c, 1, 69, 0
2, 15840, Note_on_c, 1, 55, 80
2, 15840, Note_on_c, 1, 62, 80
2, 16295, Note_on_c, 1, 55, 0
2, 16295, Note_on_c, 1, 62, 0
2, 16320, Note_on_c, 1, 60, 80
2, 16320, Note_on_c, 1, 65, 80
2, 16320, Note_on_c, 1, 69, 80
2, 17231, Note_on_c, 1, 60, 0
2, 17231, Note_on_c, 1, 65, 0
2, 17231, Note_on_c, 1, 69, 0
2, 17280, Note_on_c, 1, 55, 80
2, 17280, Note_on_c, 1, 62, 80
2, 17735, Note_on_c, 1, 55, 0
2, 17735, Note_on_c, 1, 62, 0
2, 17760, Note_on_c, 1, 62, 80
2, 17760, Note_on_c, 1, 65, 80
2, 17760, Note_on_c, 1, 69, 80
2, 18671, Note_on_c, 1, 62, 0
2, 18671, Note_on_c, 1, 65, 0
2, 18671, Note_on_c, 1, 69, 0
2, 18720, Note_on_c, 1, 55, 80
2, 18720, Note_on_c, 1, 62, 80
2, 19175, Note_on_c, 1, 55, 0
2, 19175, Note_on_c, 1, 62, 0
2, 19200, Note_on_c, 1, 64, 80
2, 19200, Note_on_c, 1, 67, 80
2, 19200, Note_on_c, 1, 72, 80
2, 21023, Note_on_c, 1, 64, 0
2, 21023, Note_on_c, 1, 67, 0
2, 21023, Note_on_c, 1, 72, 0
2, 21120, Note_on_c, 1, 65, 80
2, 21120, Note_on_c, 1, 69, 80
2, 21120, Note_on_c, 1, 74, 80
2, 22943, Note_on_c, 1, 65, 0
2, 22943, Note_on_c, 1, 69, 0
2, 22943, Note_on_c, 1, 74, 0
2, 23040, Note_on_c, 1, 53, 80
2, 23153, Note_on_c, 1, 53, 0
2, 23160, Note_on_c, 1, 52, 80
2, 23339, Note_on_c, 1, 52, 0
2, 23520, Note_on_c, 1, 52, 80
2, 23633, Note_on_c, 1, 52, 0
2, 23640, Note_on_c, 1, 50, 80
2, 23819, Note_on_c, 1, 50, 0
2, 24000, Note_on_c, 1, 62, 80
2, 24000, Note_on_c, 1, 65, 80
2, 24000, Note_on_c, 1, 69, 80
2, 24227, Note_on_c, 1, 62, 0
2, 24227, Note_on_c, 1, 65, 0
2, 24227, Note_on_c, 1, 69, 0
2, 24240, Note_on_c, 1, 65, 80
2, 24240, Note_on_c, 1, 69, 80
2, 24467, Note_on_c, 1, 65, 0
2, 24467, Note_on_c, 1, 69, 0
2, 24480, Note_on_c, 1, 65, 80
2, 24707, Note_on_c, 1, 65, 0
2, 24720, Note_on_c, 1, 65, 80
2, 24720, Note_on_c, 1, 69, 80
2, 24947, Note_on_c, 1, 65, 0
2, 24947, Note_on_c, 1, 69, 0
2, 24960, Note_on_c, 1, 65, 80
2, 24960, Note_on_c, 1, 69, 80
2, 25187, Note_on_c, 1, 65, 0
2, 25187, Note_on_c, 1, 69, 0
2, 25200, Note_on_c, 1, 65, 80
2, 25427, Note_on_c, 1, 65, 0
2, 25440, Note_on_c, 1, 65, 80
2, 25440, Note_on_c, 1, 69, 80
2, 25667, Note_on_c, 1, 65, 0
2, 25667, Note_on_c, 1, 69, 0
2, 25680, Note_on_c, 1, 65, 80
2, 25680, Note_on_c, 1, 69, 80
2, 25907, Note_on_c, 1, 65, 0
2, 25907, Note_on_c, 1, 69, 0
2, 25920, Note_on_c, 1, 60, 80
2, 25920, Note_on_c, 1, 64, 80
2, 25920, Note_on_c, 1, 69, 80
2, 26147, Note_on_c, 1, 60, 0
2, 26147, Note_on_c, 1, 64, 0
2, 26147, Note_on_c, 1, 69, 0
2, 26160, Note_on_c, 1, 64, 80
2, 26160, Note_on_c, 1, 69, 80
2, 26387, Note_on_c, 1, 64, 0
2, 26387, Note_on_c, 1, 69, 0
2, 26400, Note_on_c, 1, 64, 80
2, 26400, Note_on_c, 1, 69, 80
2, 26627, Note_on_c, 1, 64, 0
2, 26627, Note_on_c, 1, 69, 0
2, 26640, Note_on_c, 1, 64, 80
2, 26640, Note_on_c, 1, 69, 80
2, 26867, Note_on_c, 1, 64, 0
2, 26867, Note_on_c, 1, 69, 0
2, 26880, Note_on_c, 1, 64, 80
2, 26880, Note_on_c, 1, 69, 80
2, 27107, Note_on_c, 1, 64, 0
2, 27107, Note_on_c, 1, 69, 0
2, 27120, Note_on_c, 1, 64, 80
2, 27120, Note_on_c, 1, 69, 80
2, 27347, Note_on_c, 1, 64, 0
2, 27347, Note_on_c, 1, 69, 0
2, 27360, Note_on_c, 1, 64, 80
2, 27360, Note_on_c, 1, 69, 80
2, 27587, Note_on_c, 1, 64, 0
2, 27587, Note_on_c, 1, 69, 0
2, 27600, Note_on_c, 1, 64, 80
2, 27600, Note_on_c, 1, 69, 80
2, 27827, Note_on_c, 1, 64, 0
2, 27827, Note_on_c, 1, 69, 0
2, 27840, Note_on_c, 1, 57, 80
2, 27840, Note_on_c, 1, 60, 80
2, 27840, Note_on_c, 1, 65, 80
2, 28067, Note_on_c, 1, 57, 0
2, 28067, Note_on_c, 1, 60, 0
2, 28067, Note_on_c, 1, 65, 0
2, 28080, Note_on_c, 1, 57, 80
2, 28080, Note_on_c, 1, 60, 80
2, 28080, Note_on_c, 1, 65, 80
2, 28307, Note_on_c, 1, 57, 0
2, 28307, Note_on_c, 1, 60, 0
2, 28307, Note_on_c, 1, 65, 0
2, 28320, Note_on_c, 1, 57, 80
2, 28320, Note_on_c, 1, 60, 80
2, 28320, Note_on_c, 1, 65, 80
2, 28547, Note_on_c, 1, 57, 0
2, 28547, Note_on_c, 1, 60, 0
2, 28547, Note_on_c, 1, 65, 0
2, 28560, Note_on_c, 1, 57, 80
2, 28560, Note_on_c, 1, 60, 80
2, 28560, Note_on_c, 1, 65, 80
2, 28787, Note_on_c, 1, 57, 0
2, 28787, Note_on_c, 1, 60, 0
2, 28787, Note_on_c, 1, 65, 0
2, 28800, Note_on_c, 1, 62, 80
2, 28800, Note_on_c, 1, 67, 80
2, 29027, Note_on_c, 1, 62, 0
2, 29027, Note_on_c, 1, 67, 0
2, 29040, Note_on_c, 1, 62, 80
2, 29040, Note_on_c, 1, 67, 80
2, 29267, Note_on_c, 1, 62, 0
2, 29267, Note_on_c, 1, 67, 0
2, 29280, Note_on_c, 1, 62, 80
2, 29280, Note_on_c, 1, 67, 80
2, 29507, Note_on_c, 1, 62, 0
2, 29507, Note_on_c, 1, 67, 0
2, 29520, Note_on_c, 1, 62, 80
2, 29520, Note_on_c, 1, 67, 80
2, 29747, Note_on_c, 1, 62, 0
2, 29747, Note_on_c, 1, 67, 0
2, 29760, Note_on_c, 1, 57, 80
2, 29760, Note_on_c, 1, 62, 80
2, 29760, Note_on_c, 1, 65, 80
2, 29987, Note_on_c, 1, 57, 0
2, 29987, Note_on_c, 1, 62, 0
2, 29987, Note_on_c, 1, 65, 0
2, 30000, Note_on_c, 1, 57, 80
2, 30000, Note_on_c, 1, 62, 80
2, 30000, Note_on_c, 1, 65, 80
2, 30227, Note_on_c, 1, 57, 0
2, 30227, Note_on_c, 1, 62, 0
2, 30227, Note_on_c, 1, 65, 0
2, 30240, Note_on_c, 1, 57, 80
2, 30240, Note_on_c, 1, 62, 80
2, 30240, Note_on_c, 1, 65, 80
2, 30467, Note_on_c, 1, 57, 0
2, 30467, Note_on_c, 1, 62, 0
2, 30467, Note_on_c, 1, 65, 0
2, 30480, Note_on_c, 1, 57, 80
2, 30480, Note_on_c, 1, 62, 80
2, 30480, Note_on_c, 1, 65, 80
2, 30707, Note_on_c, 1, 57, 0
2, 30707, Note_on_c, 1, 62, 0
2, 30707, Note_on_c, 1, 65, 0
2, 30720, Note_on_c, 1, 67, 80
2, 30833, Note_on_c, 1, 67, 0
2, 30840, Note_on_c, 1, 65, 80
2, 31019, Note_on_c, 1, 65, 0
2, 31200, Note_on_c, 1, 65, 80
2, 31313, Note_on_c, 1, 65, 0
2, 31320, Note_on_c, 1, 64, 80
2, 31499, Note_on_c, 1, 64, 0
2, 31680, Note_on_c, 1, 62, 80
2, 31680, Note_on_c, 1, 65, 80
2, 31680, Note_on_c, 1, 69, 80
2, 31907, Note_on_c, 1, 62, 0
2, 31907, Note_on_c, 1, 65, 0
2, 31907, Note_on_c, 1, 69, 0
2, 31920, Note_on_c, 1, 65, 80
2, 31920, Note_on_c, 1, 69, 80
2, 32147, Note_on_c, 1, 65, 0
2, 32147, Note_on_c, 1, 69, 0
2, 32160, Note_on_c, 1, 65, 80
2, 32387, Note_on_c, 1, 65, 0
2, 32400, Note_on_c, 1, 65, 80
2, 32400, Note_on_c, 1, 69, 80
2, 32627, Note_on_c, 1, 65, 0
2, 32627, Note_on_c, 1, 69, 0
2, 32640, Note_on_c, 1, 65, 80
2, 32640, Note_on_c, 1, 69, 80
2, 32867, Note_on_c, 1, 65, 0
2, 32867, Note_on_c, 1, 69, 0
2, 32880, Note_on_c, 1, 65, 80
2, 33107, Note_on_c, 1, 65, 0
2, 33120, Note_on_c, 1, 65, 80
2, 33120, Note_on_c, 1, 69, 80
2, 33347, Note_on_c, 1, 65, 0
2, 33347, Note_on_c, 1, 69, 0
2, 33360, Note_on_c, 1, 65, 80
2, 33360, Note_on_c, 1, 69, 80
2, 33587, Note_on_c, 1, 65, 0
2, 33587, Note_on_c, 1, 69, 0
2, 33600, Note_on_c, 1, 64, 80
2, 33600, Note_on_c, 1, 69, 80
2, 33827, Note_on_c, 1, 64, 0
2, 33827, Note_on_c, 1, 69, 0
2, 33840, Note_on_c, 1, 64, 80
2, 33840, Note_on_c, 1, 69, 80
2, 34067, Note_on_c, 1, 64, 0
2, 34067, Note_on_c, 1, 69, 0
2, 34080, Note_on_c, 1, 64, 80
2, 34080, Note_on_c, 1, 69, 80
2, 34307, Note_on_c, 1, 64, 0
2, 34307, Note_on_c, 1, 69, 0
2, 34320, Note_on_c, 1, 64, 80
2, 34320, Note_on_c, 1, 69, 80
2, 34547, Note_on_c, 1, 64, 0
2, 34547, Note_on_c, 1, 69, 0
2, 34560, Note_on_c, 1, 64, 80
2, 34560, Note_on_c, 1, 69, 80
2, 34787, Note_on_c, 1, 64, 0
2, 34787, Note_on_c, 1, 69, 0
2, 34800, Note_on_c, 1, 64, 80
2, 34800, Note_on_c, 1, 69, 80
2, 35027, Note_on_c, 1, 64, 0
2, 35027, Note_on_c, 1, 69, 0
2, 35040, Note_on_c, 1, 64, 80
2, 35040, Note_on_c, 1, 69, 80
2, 35267, Note_on_c, 1, 64, 0
2, 35267, Note_on_c, 1, 69, 0
2, 35280, Note_on_c, 1, 64, 80
2, 35280, Note_on_c, 1, 69, 80
2, 35507, Note_on_c, 1, 64, 0
2, 35507, Note_on_c, 1, 69, 0
2, 35520, Note_on_c, 1, 57, 80
2, 35520, Note_on_c, 1, 60, 80
2, 35520, Note_on_c, 1, 65, 80
2, 35747, Note_on_c, 1, 57, 0
2, 35747, Note_on_c, 1, 60, 0
2, 35747, Note_on_c, 1, 65, 0
2, 35760, Note_on_c, 1, 57, 80
2, 35760, Note_on_c, 1, 60, 80
2, 35760, Note_on_c, 1, 65, 80
2, 35987, Note_on_c, 1, 57, 0
2, 35987, Note_on_c, 1, 60, 0
2, 35987, Note_on_c, 1, 65, 0
2, 36000, Note_on_c, 1, 57, 80
2, 36000, Note_on_c, 1, 60, 80
2, 36000, Note_on_c, 1, 65, 80
2, 36227, Note_on_c, 1, 57, 0
2, 36227, Note_on_c, 1, 60, 0
2, 36227, Note_on_c, 1, 65, 0
2, 36240, Note_on_c, 1, 57, 80
2, 36240, Note_on_c, 1, 60, 80
2, 36240, Note_on_c, 1, 65, 80
2, 36467, Note_on_c, 1, 57, 0
2, 36467, Note_on_c, 1, 60, 0
2, 36467, Note_on_c, 1, 65, 0
2, 36480, Note_on_c, 1, 62, 80
2, 36480, Note_on_c, 1, 67, 80
2, 36707, Note_on_c, 1, 62, 0
2, 36707, Note_on_c, 1, 67, 0
2, 36720, Note_on_c, 1, 62, 80
2, 36720, Note_on_c, 1, 67, 80
2, 36947, Note_on_c, 1, 62, 0
2, 36947, Note_on_c, 1, 67, 0
2, 36960, Note_on_c, 1, 62, 80
2, 36960, Note_on_c, 1, 67, 80
2, 37187, Note_on_c, 1, 62, 0
2, 37187, Note_on_c, 1, 67, 0
2, 37200, Note_on_c, 1, 62, 80
2, 37200, Note_on_c, 1, 67, 80
2, 37427, Note_on_c, 1, 62, 0
2, 37427, Note_on_c, 1, 67, 0
2, 37440, Note_on_c, 1, 57, 80
2, 37440, Note_on_c, 1, 62, 80
2, 37440, Note_on_c, 1, 65, 80
2, 37667, Note_on_c, 1, 57, 0
2, 37667, Note_on_c, 1, 62, 0
2, 37667, Note_on_c, 1, 65, 0
2, 37680, Note_on_c, 1, 57, 80
2, 37680, Note_on_c, 1, 62, 80
2, 37680, Note_on_c, 1, 65, 80
2, 37907, Note_on_c, 1, 57, 0
2, 37907, Note_on_c, 1, 62, 0
2, 37907, Note_on_c, 1, 65, 0
2, 37920, Note_on_c, 1, 57, 80
2, 37920, Note_on_c, 1, 62, 80
2, 37920, Note_on_c, 1, 65, 80
2, 38147, Note_on_c, 1, 57, 0
2, 38147, Note_on_c, 1, 62, 0
2, 38147, Note_on_c, 1, 65, 0
2, 38160, Note_on_c, 1, 57, 80
2, 38160, Note_on_c, 1, 62, 80
2, 38160, Note_on_c, 1, 65, 80
2, 38387, Note_on_c, 1, 57, 0
2, 38387, Note_on_c, 1, 62, 0
2, 38387, Note_on_c, 1, 65, 0
2, 38400, Note_on_c, 1, 67, 80
2, 38513, Note_on_c, 1, 67, 0
2, 38520, Note_on_c, 1, 65, 80
2, 38699, Note_on_c, 1, 65, 0
2, 38880, Note_on_c, 1, 65, 80
2, 38993, Note_on_c, 1, 65, 0
2, 39000, Note_on_c, 1, 64, 80
2, 39179, Note_on_c, 1, 64, 0
2, 39360, Note_on_c, 1, 57, 80
2, 39360, Note_on_c, 1, 62, 80
2, 39360, Note_on_c, 1, 65, 80
2, 39587, Note_on_c, 1, 57, 0
2, 39587, Note_on_c, 1, 62, 0
2, 39587, Note_on_c, 1, 65, 0
2, 39600, Note_on_c, 1, 57, 80
2, 39600, Note_on_c, 1, 62, 80
2, 39600, Note_on_c, 1, 65, 80
2, 39827, Note_on_c, 1, 57, 0
2, 39827, Note_on_c, 1, 62, 0
2, 39827, Note_on_c, 1, 65, 0
2, 39840, Note_on_c, 1, 57, 80
2, 39840, Note_on_c, 1, 62, 80
2, 39840, Note_on_c, 1, 65, 80
2, 40067, Note_on_c, 1, 57, 0
2, 40067, Note_on_c, 1, 62, 0
2, 40067, Note_on_c, 1, 65, 0
2, 40080, Note_on_c, 1, 57, 80
2, 40080, Note_on_c, 1, 62, 80
2, 40080, Note_on_c, 1, 65, 80
2, 40307, Note_on_c, 1, 57, 0
2, 40307, Note_on_c, 1, 62, 0
2, 40307, Note_on_c, 1, 65, 0
2, 40320, Note_on_c, 1, 62, 80
2, 40320, Note_on_c, 1, 67, 80
2, 40547, Note_on_c, 1, 62, 0
2, 40547, Note_on_c, 1, 67, 0
2, 40560, Note_on_c, 1, 62, 80
2, 40560, Note_on_c, 1, 67, 80
2, 40787, Note_on_c, 1, 62, 0
2, 40787, Note_on_c, 1, 67, 0
2, 40800, Note_on_c, 1, 57, 80
2, 40800, Note_on_c, 1, 62, 80
2, 40800, Note_on_c, 1, 65, 80
2, 41027, Note_on_c, 1, 57, 0
2, 41027, Note_on_c, 1, 62, 0
2, 41027, Note_on_c, 1, 65, 0
2, 41040, Note_on_c, 1, 57, 80
2, 41040, Note_on_c, 1, 62, 80
2, 41040, Note_on_c, 1, 65, 80
2, 41267, Note_on_c, 1, 57, 0
2, 41267, Note_on_c, 1, 62, 0
2, 41267, Note_on_c, 1, 65, 0
2, 41280, Note_on_c, 1, 57, 80
2, 41280, Note_on_c, 1, 62, 80
2, 41280, Note_on_c, 1, 65, 80
2, 41507, Note_on_c, 1, 57, 0
2, 41507, Note_on_c, 1, 62, 0
2, 41507, Note_on_c, 1, 65, 0
2, 41520, Note_on_c, 1, 57, 80
2, 41520, Note_on_c, 1, 62, 80
2, 41520, Note_on_c, 1, 65, 80
2, 41747, Note_on_c, 1, 57, 0
2, 41747, Note_on_c, 1, 62, 0
2, 41747, Note_on_c, 1, 65, 0
2, 41760, Note_on_c, 1, 62, 80
2, 41760, Note_on_c, 1, 67, 80
2, 41987, Note_on_c, 1, 62, 0
2, 41987, Note_on_c, 1, 67, 0
2, 42000, Note_on_c, 1, 62, 80
2, 42000, Note_on_c, 1, 67, 80
2, 42227, Note_on_c, 1, 62, 0
2, 42227, Note_on_c, 1, 67, 0
2, 42240, Note_on_c, 1, 57, 80
2, 42240, Note_on_c, 1, 60, 80
2, 42240, Note_on_c, 1, 65, 80
2, 42467, Note_on_c, 1, 57, 0
2, 42467, Note_on_c, 1, 60, 0
2, 42467, Note_on_c, 1, 65, 0
2, 42480, Note_on_c, 1, 57, 80
2, 42480, Note_on_c, 1, 60, 80
2, 42480, Note_on_c, 1, 65, 80
2, 42707, Note_on_c, 1, 57, 0
2, 42707, Note_on_c, 1, 60, 0
2, 42707, Note_on_c, 1, 65, 0
2, 42720, Note_on_c, 1, 57, 80
2, 42720, Note_on_c, 1, 60, 80
2, 42720, Note_on_c, 1, 65, 80
2, 42947, Note_on_c, 1, 57, 0
2, 42947, Note_on_c, 1, 60, 0
2, 42947, Note_on_c, 1, 65, 0
2, 42960, Note_on_c, 1, 57, 80
2, 42960, Note_on_c, 1, 60, 80
2, 42960, Note_on_c, 1, 65, 80
2, 43187, Note_on_c, 1, 57, 0
2, 43187, Note_on_c, 1, 60, 0
2, 43187, Note_on_c, 1, 65, 0
2, 43200, Note_on_c, 1, 62, 80
2, 43200, Note_on_c, 1, 67, 80
2, 43427, Note_on_c, 1, 62, 0
2, 43427, Note_on_c, 1, 67, 0
2, 43440, Note_on_c, 1, 62, 80
2, 43440, Note_on_c, 1, 67, 80
2, 43667, Note_on_c, 1, 62, 0
2, 43667, Note_on_c, 1, 67, 0
2, 43680, Note_on_c, 1, 57, 80
2, 43680, Note_on_c, 1, 62, 80
2, 43680, Note_on_c, 1, 65, 80
2, 43907, Note_on_c, 1, 57, 0
2, 43907, Note_on_c, 1, 62, 0
2, 43907, Note_on_c, 1, 65, 0
2, 43920, Note_on_c, 1, 57, 80
2, 43920, Note_on_c, 1, 62, 80
2, 43920, Note_on_c, 1, 65, 80
2, 44147, Note_on_c, 1, 57, 0
2, 44147, Note_on_c, 1, 62, 0
2, 44147, Note_on_c, 1, 65, 0
2, 44160, Note_on_c, 1, 57, 80
2, 44160, Note_on_c, 1, 62, 80
2, 44160, Note_on_c, 1, 65, 80
2, 44387, Note_on_c, 1, 57, 0
2, 44387, Note_on_c, 1, 62, 0
2, 44387, Note_on_c, 1, 65, 0
2, 44400, Note_on_c, 1, 57, 80
2, 44400, Note_on_c, 1, 62, 80
2, 44400, Note_on_c, 1, 65, 80
2, 44627, Note_on_c, 1, 57, 0
2, 44627, Note_on_c, 1, 62, 0
2, 44627, Note_on_c, 1, 65, 0
2, 44640, Note_on_c, 1, 62, 80
2, 44640, Note_on_c, 1, 67, 80
2, 44867, Note_on_c, 1, 62, 0
2, 44867, Note_on_c, 1, 67, 0
2, 44880, Note_on_c, 1, 62, 80
2, 44880, Note_on_c, 1, 67, 80
2, 45107, Note_on_c, 1, 62, 0
2, 45107, Note_on_c, 1, 67, 0
2, 45120, Note_on_c, 1, 60, 80
2, 45120, Note_on_c, 1, 64, 80
2, 45120, Note_on_c, 1, 67, 80
2, 45347, Note_on_c, 1, 60, 0
2, 45347, Note_on_c, 1, 64, 0
2, 45347, Note_on_c, 1, 67, 0
2, 45360, Note_on_c, 1, 60, 80
2, 45360, Note_on_c, 1, 64, 80
2, 45360, Note_on_c, 1, 67, 80
2, 45587, Note_on_c, 1, 60, 0
2, 45587, Note_on_c, 1, 64, 0
2, 45587, Note_on_c, 1, 67, 0
2, 45600, Note_on_c, 1, 62, 80
2, 45600, Note_on_c, 1, 67, 80
2, 45827, Note_on_c, 1, 62, 0
2, 45827, Note_on_c, 1, 67, 0
2, 45840, Note_on_c, 1, 60, 80
2, 45840, Note_on_c, 1, 65, 80
2, 46067, Note_on_c, 1, 60, 0
2, 46067, Note_on_c, 1, 65, 0
2, 46080, Note_on_c, 1, 62, 80
2, 46080, Note_on_c, 1, 65, 80
2, 46307, Note_on_c, 1, 62, 0
2, 46307, Note_on_c, 1, 65, 0
2, 46320, Note_on_c, 1, 62, 80
2, 46320, Note_on_c, 1, 65, 80
2, 46547, Note_on_c, 1, 62, 0
2, 46547, Note_on_c, 1, 65, 0
2, 46560, Note_on_c, 1, 62, 80
2, 46560, Note_on_c, 1, 65, 80
2, 46787, Note_on_c, 1, 62, 0
2, 46787, Note_on_c, 1, 65, 0
2, 46800, Note_on_c, 1, 62, 80
2, 46800, Note_on_c, 1, 65, 80
2, 47027, Note_on_c, 1, 62, 0
2, 47027, Note_on_c, 1, 65, 0
2, 47040, Note_on_c, 1, 57, 80
2, 47040, Note_on_c, 1, 62, 80
2, 47040, Note_on_c, 1, 65, 80
2, 47267, Note_on_c, 1, 57, 0
2, 47267, Note_on_c, 1, 62, 0
2, 47267, Note_on_c, 1, 65, 0
2, 47280, Note_on_c, 1, 57, 80
2, 47280, Note_on_c, 1, 62, 80
2, 47280, Note_on_c, 1, 65, 80
2, 47507, Note_on_c, 1, 57, 0
2, 47507, Note_on_c, 1, 62, 0
2, 47507, Note_on_c, 1, 65, 0
2, 47520, Note_on_c, 1, 57, 80
2, 47520, Note_on_c, 1, 62, 80
2, 47520, Note_on_c, 1, 65, 80
2, 47747, Note_on_c, 1, 57, 0
2, 47747, Note_on_c, 1, 62, 0
2, 47747, Note_on_c, 1, 65, 0
2, 47760, Note_on_c, 1, 57, 80
2, 47760, Note_on_c, 1, 62, 80
2, 47760, Note_on_c, 1, 65, 80
2, 47987, Note_on_c, 1, 57, 0
2, 47987, Note_on_c, 1, 62, 0
2, 47987, Note_on_c, 1, 65, 0
2, 48000, Note_on_c, 1, 62, 80
2, 48000, Note_on_c, 1, 67, 80
2, 48227, Note_on_c, 1, 62, 0
2, 48227, Note_on_c, 1, 67, 0
2, 48240, Note_on_c, 1, 62, 80
2, 48240, Note_on_c, 1, 67, 80
2, 48467, Note_on_c, 1, 62, 0
2, 48467, Note_on_c, 1, 67, 0
2, 48480, Note_on_c, 1, 57, 80
2, 48480, Note_on_c, 1, 62, 80
2, 48480, Note_on_c, 1, 65, 80
2, 48707, Note_on_c, 1, 57, 0
2, 48707, Note_on_c, 1, 62, 0
2, 48707, Note_on_c, 1, 65, 0
2, 48720, Note_on_c, 1, 57, 80
2, 48720, Note_on_c, 1, 62, 80
2, 48720, Note_on_c, 1, 65, 80
2, 48947, Note_on_c, 1, 57, 0
2, 48947, Note_on_c, 1, 62, 0
2, 48947, Note_on_c, 1, 65, 0
2, 48960, Note_on_c, 1, 57, 80
2, 48960, Note_on_c, 1, 62, 80
2, 48960, Note_on_c, 1, 65, 80
2, 49187, Note_on_c, 1, 57, 0
2, 49187, Note_on_c, 1, 62, 0
2, 49187, Note_on_c, 1, 65, 0
2, 49200, Note_on_c, 1, 57, 80
2, 49200, Note_on_c, 1, 62, 80
2, 49200, Note_on_c, 1, 65, 80
2, 49427, Note_on_c, 1, 57, 0
2, 49427, Note_on_c, 1, 62, 0
2, 49427, Note_on_c, 1, 65, 0
2, 49440, Note_on_c, 1, 62, 80
2, 49440, Note_on_c, 1, 67, 80
2, 49667, Note_on_c, 1, 62, 0
2, 49667, Note_on_c, 1, 67, 0
2, 49680, Note_on_c, 1, 62, 80
2, 49680, Note_on_c, 1, 67, 80
2, 49907, Note_on_c, 1, 62, 0
2, 49907, Note_on_c, 1, 67, 0
2, 49920, Note_on_c, 1, 57, 80
2, 49920, Note_on_c, 1, 60, 80
2, 49920, Note_on_c, 1, 65, 80
2, 50147, Note_on_c, 1, 57, 0
2, 50147, Note_on_c, 1, 60, 0
2, 50147, Note_on_c, 1, 65, 0
2, 50160, Note_on_c, 1, 57, 80
2, 50160, Note_on_c, 1, 60, 80
2, 50160, Note_on_c, 1, 65, 80
2, 50387, Note_on_c, 1, 57, 0
2, 50387, Note_on_c, 1, 60, 0
2, 50387, Note_on_c, 1, 65, 0
2, 50400, Note_on_c, 1, 57, 80
2, 50400, Note_on_c, 1, 60, 80
2, 50400, Note_on_c, 1, 65, 80
2, 50627, Note_on_c, 1, 57, 0
2, 50627, Note_on_c, 1, 60, 0
2, 50627, Note_on_c, 1, 65, 0
2, 50640, Note_on_c, 1, 57, 80
2, 50640, Note_on_c, 1, 60, 80
2, 50640, Note_on_c, 1, 65, 80
2, 50867, Note_on_c, 1, 57, 0
2, 50867, Note_on_c, 1, 60, 0
2, 50867, Note_on_c, 1, 65, 0
2, 50880, Note_on_c, 1, 62, 80
2, 50880, Note_on_c, 1, 67, 80
2, 51107, Note_on_c, 1, 62, 0
2, 51107, Note_on_c, 1, 67, 0
2, 51120, Note_on_c, 1, 62, 80
2, 51120, Note_on_c, 1, 67, 80
2, 51347, Note_on_c, 1, 62, 0
2, 51347, Note_on_c, 1, 67, 0
2, 51360, Note_on_c, 1, 57, 80
2, 51360, Note_on_c, 1, 62, 80
2, 51360, Note_on_c, 1, 65, 80
2, 51587, Note_on_c, 1, 57, 0
2, 51587, Note_on_c, 1, 62, 0
2, 51587, Note_on_c, 1, 65, 0
2, 51600, Note_on_c, 1, 57, 80
2, 51600, Note_on_c, 1, 62, 80
2, 51600, Note_on_c, 1, 65, 80
2, 51827, Note_on_c, 1, 57, 0
2, 51827, Note_on_c, 1, 62, 0
2, 51827, Note_on_c, 1, 65, 0
2, 51840, Note_on_c, 1, 57, 80
2, 51840, Note_on_c, 1, 62, 80
2, 51840, Note_on_c, 1, 65, 80
2, 52067, Note_on_c, 1, 57, 0
2, 52067, Note_on_c, 1, 62, 0
2, 52067, Note_on_c, 1, 65, 0
2, 52080, Note_on_c, 1, 57, 80
2, 52080, Note_on_c, 1, 62, 80
2, 52080, Note_on_c, 1, 65, 80
2, 52307, Note_on_c, 1, 57, 0
2, 52307, Note_on_c, 1, 62, 0
2, 52307, Note_on_c, 1, 65, 0
2, 52320, Note_on_c, 1, 62, 80
2, 52320, Note_on_c, 1, 67, 80
2, 52547, Note_on_c, 1, 62, 0
2, 52547, Note_on_c, 1, 67, 0
2, 52560, Note_on_c, 1, 62, 80
2, 52560, Note_on_c, 1, 67, 80
2, 52787, Note_on_c, 1, 62, 0
2, 52787, Note_on_c, 1, 67, 0
2, 52800, Note_on_c, 1, 60, 80
2, 52800, Note_on_c, 1, 64, 80
2, 52800, Note_on_c, 1, 67, 80
2, 53711, Note_on_c, 1, 60, 0
2, 53711, Note_on_c, 1, 64, 0
2, 53711, Note_on_c, 1, 67, 0
2, 53760, Note_on_c, 1, 62, 80
2, 53760, Note_on_c, 1, 65, 80
2, 54671, Note_on_c, 1, 62, 0
2, 54671, Note_on_c, 1, 65, 0
2, 55680, Note_on_c, 1, 65, 80
2, 55793, Note_on_c, 1, 65, 0
2, 55800, Note_on_c, 1, 64, 80
2, 55979, Note_on_c, 1, 64, 0
2, 56160, Note_on_c, 1, 64, 80
2, 56273, Note_on_c, 1, 64, 0
2, 56280, Note_on_c, 1, 62, 80
2, 56459, Note_on_c, 1, 62, 0
2, 56640, Note_on_c, 1, 62, 80
2, 56640, Note_on_c, 1, 65, 80
2, 56640, Note_on_c, 1, 69, 80
2, 56867, Note_on_c, 1, 62, 0
2, 56867, Note_on_c, 1, 65, 0
2, 56867, Note_on_c, 1, 69, 0
2, 56880, Note_on_c, 1, 65, 80
2, 56880, Note_on_c, 1, 69, 80
2, 57107, Note_on_c, 1, 65, 0
2, 57107, Note_on_c, 1, 69, 0
2, 57120, Note_on_c, 1, 65, 80
2, 57347, Note_on_c, 1, 65, 0
2, 57360, Note_on_c, 1, 65, 80
2, 57360, Note_on_c, 1, 69, 80
2, 57587, Note_on_c, 1, 65, 0
2, 57587, Note_on_c, 1, 69, 0
2, 57600, Note_on_c, 1, 65, 80
2, 57600, Note_on_c, 1, 69, 80
2, 57827, Note_on_c, 1, 65, 0
2, 57827, Note_on_c, 1, 69, 0
2, 57840, Note_on_c, 1, 65, 80
2, 58067, Note_on_c, 1, 65, 0
2, 58080, Note_on_c, 1, 65, 80
2, 58080, Note_on_c, 1, 69, 80
2, 58307, Note_on_c, 1, 65, 0
2, 58307, Note_on_c, 1, 69, 0
2, 58320, Note_on_c, 1, 65, 80
2, 58320, Note_on_c, 1, 69, 80
2, 58547, Note_on_c, 1, 65, 0
2, 58547, Note_on_c, 1, 69, 0
2, 58560, Note_on_c, 1, 60, 80
2, 58560, Note_on_c, 1, 64, 80
2, 58560, Note_on_c, 1, 69, 80
2, 58787, Note_on_c, 1, 60, 0
2, 58787, Note_on_c, 1, 64, 0
2, 58787, Note_on_c, 1, 69, 0
2, 58800, Note_on_c, 1, 64, 80
2, 58800, Note_on_c, 1, 69, 80
2, 59027, Note_on_c, 1, 64, 0
2, 59027, Note_on_c, 1, 69, 0
2, 59040, Note_on_c, 1, 64, 80
2, 59040, Note_on_c, 1, 69, 80
2, 59267, Note_on_c, 1, 64, 0
2, 59267, Note_on_c, 1, 69, 0
2, 59280, Note_on_c, 1, 64, 80
2, 59280, Note_on_c, 1, 69, 80
2, 59507, Note_on_c, 1, 64, 0
2, 59507, Note_on_c, 1, 69, 0
2, 59520, Note_on_c, 1, 64, 80
2, 59520, Note_on_c, 1, 69, 80
2, 59747, Note_on_c, 1, 64, 0
2, 59747, Note_on_c, 1, 69, 0
2, 59760, Note_on_c, 1, 64, 80
2, 59760, Note_on_c, 1, 69, 80
2, 59987, Note_on_c, 1, 64, 0
2, 59987, Note_on_c, 1, 69, 0
2, 60000, Note_on_c, 1, 64, 80
2, 60000, Note_on_c, 1, 69, 80
2, 60227, Note_on_c, 1, 64, 0
2, 60227, Note_on_c, 1, 69, 0
2, 60240, Note_on_c, 1, 64, 80
2, 60240, Note_on_c, 1, 69, 80
2, 60467, Note_on_c, 1, 64, 0
2, 60467, Note_on_c, 1, 69, 0
2, 60480, Note_on_c, 1, 57, 80
2, 60480, Note_on_c, 1, 60, 80
2, 60480, Note_on_c, 1, 65, 80
2, 60707, Note_on_c, 1, 57, 0
2, 60707, Note_on_c, 1, 60, 0
2, 60707, Note_on_c, 1, 65, 0
2, 60720, Note_on_c, 1, 57, 80
2, 60720, Note_on_c, 1, 60, 80
2, 60720, Note_on_c, 1, 65, 80
2, 60947, Note_on_c, 1, 57, 0
2, 60947, Note_on_c, 1, 60, 0
2, 60947, Note_on_c, 1, 65, 0
2, 60960, Note_on_c, 1, 57, 80
2, 60960, Note_on_c, 1, 60, 80
2, 60960, Note_on_c, 1, 65, 80
2, 61187, Note_on_c, 1, 57, 0
2, 61187, Note_on_c, 1, 60, 0
2, 61187, Note_on_c, 1, 65, 0
2, 61200, Note_on_c, 1, 57, 80
2, 61200, Note_on_c, 1, 60, 80
2, 61200, Note_on_c, 1, 65, 80
2, 61427, Note_on_c, 1, 57, 0
2, 61427, Note_on_c, 1, 60, 0
2, 61427, Note_on_c, 1, 65, 0
2, 61440, Note_on_c, 1, 62, 80
2, 61440, Note_on_c, 1, 67, 80
2, 61667, Note_on_c, 1, 62, 0
2, 61667, Note_on_c, 1, 67, 0
2, 61680, Note_on_c, 1, 62, 80
2, 61680, Note_on_c, 1, 67, 80
2, 61907, Note_on_c, 1, 62, 0
2, 61907, Note_on_c, 1, 67, 0
2, 61920, Note_on_c, 1, 62, 80
2, 61920, Note_on_c, 1, 67, 80
2, 62147, Note_on_c, 1, 62, 0
2, 62147, Note_on_c, 1, 67, 0
2, 62160, Note_on_c, 1, 62, 80
2, 62160, Note_on_c, 1, 67, 80
2, 62387, Note_on_c, 1, 62, 0
2, 62387, Note_on_c, 1, 67, 0
2, 62400, Note_on_c, 1, 57, 80
2, 62400, Note_on_c, 1, 62, 80
2, 62400, Note_on_c, 1, 65, 80
2, 62627, Note_on_c, 1, 57, 0
2, 62627, Note_on_c, 1, 62, 0
2, 62627, Note_on_c, 1, 65, 0
2, 62640, Note_on_c, 1, 57, 80
2, 62640, Note_on_c, 1, 62, 80
2, 62640, Note_on_c, 1, 65, 80
2, 62867, Note_on_c, 1, 57, 0
2, 62867, Note_on_c, 1, 62, 0
2, 62867, Note_on_c, 1, 65, 0
2, 62880, Note_on_c, 1, 57, 80
2, 62880, Note_on_c, 1, 62, 80
2, 62880, Note_on_c, 1, 65, 80
2, 63107, Note_on_c, 1, 57, 0
2, 63107, Note_on_c, 1, 62, 0
2, 63107, Note_on_c, 1, 65, 0
2, 63120, Note_on_c, 1, 57, 80
2, 63120, Note_on_c, 1, 62, 80
2, 63120, Note_on_c, 1, 65, 80
2, 63347, Note_on_c, 1, 57, 0
2, 63347, Note_on_c, 1, 62, 0
2, 63347, Note_on_c, 1, 65, 0
2, 63360, Note_on_c, 1, 67, 80
2, 63473, Note_on_c, 1, 67, 0
2, 63480, Note_on_c, 1, 65, 80
2, 63659, Note_on_c, 1, 65, 0
2, 63840, Note_on_c, 1, 65, 80
2, 63953, Note_on_c, 1, 65, 0
2, 63960, Note_on_c, 1, 64, 80
2, 64139, Note_on_c, 1, 64, 0
2, 64320, Note_on_c, 1, 62, 80
2, 64320, Note_on_c, 1, 65, 80
2, 64320, Note_on_c, 1, 69, 80
2, 64547, Note_on_c, 1, 62, 0
2, 64547, Note_on_c, 1, 65, 0
2, 64547, Note_on_c, 1, 69, 0
2, 64560, Note_on_c, 1, 65, 80
2, 64560, Note_on_c, 1, 69, 80
2, 64787, Note_on_c, 1, 65, 0
2, 64787, Note_on_c, 1, 69, 0
2, 64800, Note_on_c, 1, 65, 80
2, 65027, Note_on_c, 1, 65, 0
2, 65040, Note_on_c, 1, 65, 80
2, 65040, Note_on_c, 1, 69, 80
2, 65267, Note_on_c, 1, 65, 0
2, 65267, Note_on_c, 1, 69, 0
2, 65280, Note_on_c, 1, 65, 80
2, 65280, Note_on_c, 1, 69, 80
2, 65507, Note_on_c, 1, 65, 0
2, 65507, Note_on_c, 1, 69, 0
2, 65520, Note_on_c, 1, 65, 80
2, 65747, Note_on_c, 1, 65, 0
2, 65760, Note_on_c, 1, 65, 80
2, 65760, Note_on_c, 1, 69, 80
2, 65987, Note_on_c, 1, 65, 0
2, 65987, Note_on_c, 1, 69, 0
2, 66000, Note_on_c, 1, 65, 80
2, 66000, Note_on_c, 1, 69, 80
2, 66227, Note_on_c, 1, 65, 0
2, 66227, Note_on_c, 1, 69, 0
2, 66240, Note_on_c, 1, 64, 80
2, 66240, Note_on_c, 1, 69, 80
2, 66467, Note_on_c, 1, 64, 0
2, 66467, Note_on_c, 1, 69, 0
2, 66480, Note_on_c, 1, 64, 80
2, 66480, Note_on_c, 1, 69, 80
2, 66707, Note_on_c, 1, 64, 0
2, 66707, Note_on_c, 1, 69, 0
2, 66720, Note_on_c, 1, 64, 80
2, 66720, Note_on_c, 1, 69, 80
2, 66947, Note_on_c, 1, 64, 0
2, 66947, Note_on_c, 1, 69, 0
2, 66960, Note_on_c, 1, 64, 80
2, 66960, Note_on_c, 1, 69, 80
2, 67187, Note_on_c, 1, 64, 0
2, 67187, Note_on_c, 1, 69, 0
2, 67200, Note_on_c, 1, 64, 80
2, 67200, Note_on_c, 1, 69, 80
2, 67427, Note_on_c, 1, 64, 0
2, 67427, Note_on_c, 1, 69, 0
2, 67440, Note_on_c, 1, 64, 80
2, 67440, Note_on_c, 1, 69, 80
2, 67667, Note_on_c, 1, 64, 0
2, 67667, Note_on_c, 1, 69, 0
2, 67680, Note_on_c, 1, 64, 80
2, 67680, Note_on_c, 1, 69, 80
2, 67907, Note_on_c, 1, 64, 0
2, 67907, Note_on_c, 1, 69, 0
2, 67920, Note_on_c, 1, 64, 80
2, 67920, Note_on_c, 1, 69, 80
2, 68147, Note_on_c, 1, 64, 0
2, 68147, Note_on_c, 1, 69, 0
2, 68160, Note_on_c, 1, 57, 80
2, 68160, Note_on_c, 1, 60, 80
2, 68160, Note_on_c, 1, 65, 80
2, 68387, Note_on_c, 1, 57, 0
2, 68387, Note_on_c, 1, 60, 0
2, 68387, Note_on_c, 1, 65, 0
2, 68400, Note_on_c, 1, 57, 80
2, 68400, Note_on_c, 1, 60, 80
2, 68400, Note_on_c, 1, 65, 80
2, 68627, Note_on_c, 1, 57, 0
2, 68627, Note_on_c, 1, 60, 0
2, 68627, Note_on_c, 1, 65, 0
2, 68640, Note_on_c, 1, 57, 80
2, 68640, Note_on_c, 1, 60, 80
2, 68640, Note_on_c, 1, 65, 80
2, 68867, Note_on_c, 1, 57, 0
2, 68867, Note_on_c, 1, 60, 0
2, 68867, Note_on_c, 1, 65, 0
2, 68880, Note_on_c, 1, 57, 80
2, 68880, Note_on_c, 1, 60, 80
2, 68880, Note_on_c, 1, 65, 80
2, 69107, Note_on_c, 1, 57, 0
2, 69107, Note_on_c, 1, 60, 0
2, 69107, Note_on_c, 1, 65, 0
2, 69120, Note_on_c, 1, 62, 80
2, 69120, Note_on_c, 1, 67, 80
2, 69347, Note_on_c, 1, 62, 0
2, 69347, Note_on_c, 1, 67, 0
2, 69360, Note_on_c, 1, 62, 80
2, 69360, Note_on_c, 1, 67, 80
2, 69587, Note_on_c, 1, 62, 0
2, 69587, Note_on_c, 1, 67, 0
2, 69600, Note_on_c, 1, 62, 80
2, 69600, Note_on_c, 1, 67, 80
2, 69827, Note_on_c, 1, 62, 0
2, 69827, Note_on_c, 1, 67, 0
2, 69840, Note_on_c, 1, 62, 80
2, 69840, Note_on_c, 1, 67, 80
2, 70067, Note_on_c, 1, 62, 0
2, 70067, Note_on_c, 1, 67, 0
2, 70080, Note_on_c, 1, 57, 80
2, 70080, Note_on_c, 1, 62, 80
2, 70080, Note_on_c, 1, 65, 80
2, 70307, Note_on_c, 1, 57, 0
2, 70307, Note_on_c, 1, 62, 0
2, 70307, Note_on_c, 1, 65, 0
2, 70320, Note_on_c, 1, 57, 80
2, 70320, Note_on_c, 1, 62, 80
2, 70320, Note_on_c, 1, 65, 80
2, 70547, Note_on_c, 1, 57, 0
2, 70547, Note_on_c, 1, 62, 0
2, 70547, Note_on_c, 1, 65, 0
2, 70560, Note_on_c, 1, 57, 80
2, 70560, Note_on_c, 1, 62, 80
2, 70560, Note_on_c, 1, 65, 80
2, 70787, Note_on_c, 1, 57, 0
2, 70787, Note_on_c, 1, 62, 0
2, 70787, Note_on_c, 1, 65, 0
2, 70800, Note_on_c, 1, 57, 80
2, 70800, Note_on_c, 1, 62, 80
2, 70800, Note_on_c, 1, 65, 80
2, 71027, Note_on_c, 1, 57, 0
2, 71027, Note_on_c, 1, 62, 0
2, 71027, Note_on_c, 1, 65, 0
2, 71040, Note_on_c, 1, 67, 80
2, 71153, Note_on_c, 1, 67, 0
2, 71160, Note_on_c, 1, 65, 80
2, 71339, Note_on_c, 1, 65, 0
2, 71520, Note_on_c, 1, 65, 80
2, 71633, Note_on_c, 1, 65, 0
2, 71640, Note_on_c, 1, 64, 80
2, 71819, Note_on_c, 1, 64, 0
2, 72000, Note_on_c, 1, 65, 80
2, 72000, Note_on_c, 1, 69, 80
2, 72000, Note_on_c, 1, 72, 80
2, 72227, Note_on_c, 1, 65, 0
2, 72227, Note_on_c, 1, 69, 0
2, 72227, Note_on_c, 1, 72, 0
2, 72240, Note_on_c, 1, 65, 80
2, 72240, Note_on_c, 1, 69, 80
2, 72240, Note_on_c, 1, 72, 80
2, 72467, Note_on_c, 1, 65, 0
2, 72467, Note_on_c, 1, 69, 0
2, 72467, Note_on_c, 1, 72, 0
2, 72480, Note_on_c, 1, 65, 80
2, 72480, Note_on_c, 1, 69, 80
2, 72480, Note_on_c, 1, 72, 80
2, 72707, Note_on_c, 1, 65, 0
2, 72707, Note_on_c, 1, 69, 0
2, 72707, Note_on_c, 1, 72, 0
2, 72720, Note_on_c, 1, 65, 80
2, 72720, Note_on_c, 1, 69, 80
2, 72720, Note_on_c, 1, 72, 80
2, 72947, Note_on_c, 1, 65, 0
2, 72947, Note_on_c, 1, 69, 0
2, 72947, Note_on_c, 1, 72, 0
2, 72960, Note_on_c, 1, 64, 80
2, 72960, Note_on_c, 1, 67, 80
2, 72960, Note_on_c, 1, 72, 80
2, 73187, Note_on_c, 1, 64, 0
2, 73187, Note_on_c, 1, 67, 0
2, 73187, Note_on_c, 1, 72, 0
2, 73200, Note_on_c, 1, 64, 80
2, 73200, Note_on_c, 1, 67, 80
2, 73200, Note_on_c, 1, 72, 80
2, 73427, Note_on_c, 1, 64, 0
2, 73427, Note_on_c, 1, 67, 0
2, 73427, Note_on_c, 1, 72, 0
2, 73440, Note_on_c, 1, 64, 80
2, 73440, Note_on_c, 1, 67, 80
2, 73440, Note_on_c, 1, 72, 80
2, 73667, Note_on_c, 1, 64, 0
2, 73667, Note_on_c, 1, 67, 0
2, 73667, Note_on_c, 1, 72, 0
2, 73680, Note_on_c, 1, 64, 80
2, 73680, Note_on_c, 1, 67, 80
2, 73680, Note_on_c, 1, 72, 80
2, 73907, Note_on_c, 1, 64, 0
2, 73907, Note_on_c, 1, 67, 0
2, 73907, Note_on_c, 1, 72, 0
2, 73920, Note_on_c, 1, 64, 80
2, 73920, Note_on_c, 1, 71, 80
2, 74147, Note_on_c, 1, 64, 0
2, 74147, Note_on_c, 1, 71, 0
2, 74160, Note_on_c, 1, 64, 80
2, 74160, Note_on_c, 1, 71, 80
2, 74387, Note_on_c, 1, 64, 0
2, 74387, Note_on_c, 1, 71, 0
2, 74400, Note_on_c, 1, 64, 80
2, 74400, Note_on_c, 1, 71, 80
2, 74627, Note_on_c, 1, 64, 0
2, 74627, Note_on_c, 1, 71, 0
2, 74640, Note_on_c, 1, 64, 80
2, 74640, Note_on_c, 1, 71, 80
2, 74867, Note_on_c, 1, 64, 0
2, 74867, Note_on_c, 1, 71, 0
2, 74880, Note_on_c, 1, 64, 80
2, 74880, Note_on_c, 1, 69, 80
2, 75107, Note_on_c, 1, 64, 0
2, 75107, Note_on_c, 1, 69, 0
2, 75120, Note_on_c, 1, 64, 80
2, 75120, Note_on_c, 1, 69, 80
2, 75120, Note_on_c, 1, 72, 80
2, 75347, Note_on_c, 1, 64, 0
2, 75347, Note_on_c, 1, 69, 0
2, 75347, Note_on_c, 1, 72, 0
2, 75360, Note_on_c, 1, 64, 80
2, 75360, Note_on_c, 1, 69, 80
2, 75360, Note_on_c, 1, 72, 80
2, 75587, Note_on_c, 1, 64, 0
2, 75587, Note_on_c, 1, 69, 0
2, 75587, Note_on_c, 1, 72, 0
2, 75600, Note_on_c, 1, 64, 80
2, 75600, Note_on_c, 1, 69, 80
2, 75600, Note_on_c, 1, 72, 80
2, 75827, Note_on_c, 1, 64, 0
2, 75827, Note_on_c, 1, 69, 0
2, 75827, Note_on_c, 1, 72, 0
2, 75840, Note_on_c, 1, 65, 80
2, 75840, Note_on_c, 1, 69, 80
2, 75840, Note_on_c, 1, 72, 80
2, 76067, Note_on_c, 1, 65, 0
2, 76067, Note_on_c, 1, 69, 0
2, 76067, Note_on_c, 1, 72, 0
2, 76080, Note_on_c, 1, 65, 80
2, 76080, Note_on_c, 1, 69, 80
2, 76080, Note_on_c, 1, 72, 80
2, 76307, Note_on_c, 1, 65, 0
2, 76307, Note_on_c, 1, 69, 0
2, 76307, Note_on_c, 1, 72, 0
2, 76320, Note_on_c, 1, 65, 80
2, 76320, Note_on_c, 1, 69, 80
2, 76320, Note_on_c, 1, 72, 80
2, 76547, Note_on_c, 1, 65, 0
2, 76547, Note_on_c, 1, 69, 0
2, 76547, Note_on_c, 1, 72, 0
2, 76560, Note_on_c, 1, 65, 80
2, 76560, Note_on_c, 1, 69, 80
2, 76560, Note_on_c, 1, 72, 80
2, 76787, Note_on_c, 1, 65, 0
2, 76787, Note_on_c, 1, 69, 0
2, 76787, Note_on_c, 1, 72, 0
2, 76800, Note_on_c, 1, 64, 80
2, 76800, Note_on_c, 1, 67, 80
2, 77027, Note_on_c, 1, 64, 0
2, 77027, Note_on_c, 1, 67, 0
2, 77040, Note_on_c, 1, 64, 80
2, 77040, Note_on_c, 1, 67, 80
2, 77040, Note_on_c, 1, 72, 80
2, 77267, Note_on_c, 1, 64, 0
2, 77267, Note_on_c, 1, 67, 0
2, 77267, Note_on_c, 1, 72, 0
2, 77280, Note_on_c, 1, 64, 80
2, 77280, Note_on_c, 1, 67, 80
2, 77280, Note_on_c, 1, 72, 80
2, 77507, Note_on_c, 1, 64, 0
2, 77507, Note_on_c, 1, 67, 0
2, 77507, Note_on_c, 1, 72, 0
2, 77520, Note_on_c, 1, 64, 80
2, 77520, Note_on_c, 1, 67, 80
2, 77520, Note_on_c, 1, 72, 80
2, 77747, Note_on_c, 1, 64, 0
2, 77747, Note_on_c, 1, 67, 0
2, 77747, Note_on_c, 1, 72, 0
2, 77760, Note_on_c, 1, 64, 80
2, 77760, Note_on_c, 1, 71, 80
2, 77987, Note_on_c, 1, 64, 0
2, 77987, Note_on_c, 1, 71, 0
2, 78000, Note_on_c, 1, 64, 80
2, 78000, Note_on_c, 1, 71, 80
2, 78227, Note_on_c, 1, 64, 0
2, 78227, Note_on_c, 1, 71, 0
2, 78240, Note_on_c, 1, 64, 80
2, 78240, Note_on_c, 1, 71, 80
2, 78467, Note_on_c, 1, 64, 0
2, 78467, Note_on_c, 1, 71, 0
2, 78480, Note_on_c, 1, 64, 80
2, 78707, Note_on_c, 1, 64, 0
2, 78720, Note_on_c, 1, 64, 80
2, 78720, Note_on_c, 1, 69, 80
2, 78720, Note_on_c, 1, 72, 80
2, 78947, Note_on_c, 1, 64, 0
2, 78947, Note_on_c, 1, 69, 0
2, 78947, Note_on_c, 1, 72, 0
2, 78960, Note_on_c, 1, 64, 80
2, 78960, Note_on_c, 1, 69, 80
2, 78960, Note_on_c, 1, 72, 80
2, 79187, Note_on_c, 1, 64, 0
2, 79187, Note_on_c, 1, 69, 0
2, 79187, Note_on_c, 1, 72, 0
2, 79200, Note_on_c, 1, 64, 80
2, 79200, Note_on_c, 1, 69, 80
2, 79200, Note_on_c, 1, 72, 80
2, 79427, Note_on_c, 1, 64, 0
2, 79427, Note_on_c, 1, 69, 0
2, 79427, Note_on_c, 1, 72, 0
2, 79440, Note_on_c, 1, 64, 80
2, 79440, Note_on_c, 1, 69, 80
2, 79440, Note_on_c, 1, 72, 80
2, 79667, Note_on_c, 1, 64, 0
2, 79667, Note_on_c, 1, 69, 0
2, 79667, Note_on_c, 1, 72, 0
2, 79680, Note_on_c, 1, 65, 80
2, 79680, Note_on_c, 1, 69, 80
2, 79680, Note_on_c, 1, 72, 80
2, 79907, Note_on_c, 1, 65, 0
2, 79907, Note_on_c, 1, 69, 0
2, 79907, Note_on_c, 1, 72, 0
2, 79920, Note_on_c, 1, 65, 80
2, 79920, Note_on_c, 1, 69, 80
2, 79920, Note_on_c, 1, 72, 80
2, 80147, Note_on_c, 1, 65, 0
2, 80147, Note_on_c, 1, 69, 0
2, 80147, Note_on_c, 1, 72, 0
2, 80160, Note_on_c, 1, 65, 80
2, 80160, Note_on_c, 1, 69, 80
2, 80160, Note_on_c, 1, 72, 80
2, 80387, Note_on_c, 1, 65, 0
2, 80387, Note_on_c, 1, 69, 0
2, 80387, Note_on_c, 1, 72, 0
2, 80400, Note_on_c, 1, 65, 80
2, 80400, Note_on_c, 1, 69, 80
2, 80400, Note_on_c, 1, 72, 80
2, 80627, Note_on_c, 1, 65, 0
2, 80627, Note_on_c, 1, 69, 0
2, 80627, Note_on_c, 1, 72, 0
2, 80640, Note_on_c, 1, 64, 80
2, 80640, Note_on_c, 1, 67, 80
2, 80640, Note_on_c, 1, 72, 80
2, 80867, Note_on_c, 1, 64, 0
2, 80867, Note_on_c, 1, 67, 0
2, 80867, Note_on_c, 1, 72, 0
2, 80880, Note_on_c, 1, 64, 80
2, 80880, Note_on_c, 1, 67, 80
2, 80880, Note_on_c, 1, 72, 80
2, 81107, Note_on_c, 1, 64, 0
2, 81107, Note_on_c, 1, 67, 0
2, 81107, Note_on_c, 1, 72, 0
2, 81120, Note_on_c, 1, 64, 80
2, 81120, Note_on_c, 1, 67, 80
2, 81120, Note_on_c, 1, 72, 80
2, 81347, Note_on_c, 1, 64, 0
2, 81347, Note_on_c, 1, 67, 0
2, 81347, Note_on_c, 1, 72, 0
2, 81360, Note_on_c, 1, 64, 80
2, 81360, Note_on_c, 1, 67, 80
2, 81360, Note_on_c, 1, 72, 80
2, 81587, Note_on_c, 1, 64, 0
2, 81587, Note_on_c, 1, 67, 0
2, 81587, Note_on_c, 1, 72, 0
2, 81600, Note_on_c, 1, 64, 80
2, 81600, Note_on_c, 1, 71, 80
2, 81827, Note_on_c, 1, 64, 0
2, 81827, Note_on_c, 1, 71, 0
2, 81840, Note_on_c, 1, 64, 80
2, 81840, Note_on_c, 1, 71, 80
2, 82067, Note_on_c, 1, 64, 0
2, 82067, Note_on_c, 1, 71, 0
2, 82080, Note_on_c, 1, 64, 80
2, 82080, Note_on_c, 1, 71, 80
2, 82307, Note_on_c, 1, 64, 0
2, 82307, Note_on_c, 1, 71, 0
2, 82320, Note_on_c, 1, 64, 80
2, 82320, Note_on_c, 1, 71, 80
2, 82547, Note_on_c, 1, 64, 0
2, 82547, Note_on_c, 1, 71, 0
2, 82560, Note_on_c, 1, 64, 80
2, 82560, Note_on_c, 1, 69, 80
2, 82560, Note_on_c, 1, 72, 80
2, 82787, Note_on_c, 1, 64, 0
2, 82787, Note_on_c, 1, 69, 0
2, 82787, Note_on_c, 1, 72, 0
2, 82800, Note_on_c, 1, 64, 80
2, 82800, Note_on_c, 1, 69, 80
2, 82800, Note_on_c, 1, 72, 80
2, 83027, Note_on_c, 1, 64, 0
2, 83027, Note_on_c, 1, 69, 0
2, 83027, Note_on_c, 1, 72, 0
2, 83040, Note_on_c, 1, 64, 80
2, 83040, Note_on_c, 1, 69, 80
2, 83040, Note_on_c, 1, 72, 80
2, 83267, Note_on_c, 1, 64, 0
2, 83267, Note_on_c, 1, 69, 0
2, 83267, Note_on_c, 1, 72, 0
2, 83280, Note_on_c, 1, 64, 80
2, 83280, Note_on_c, 1, 69, 80
2, 83280, Note_on_c, 1, 72, 80
2, 83507, Note_on_c, 1, 64, 0
2, 83507, Note_on_c, 1, 69, 0
2, 83507, Note_on_c, 1, 72, 0
2, 83520, Note_on_c, 1, 65, 80
2, 83520, Note_on_c, 1, 69, 80
2, 83520, Note_on_c, 1, 72, 80
2, 83747, Note_on_c, 1, 65, 0
2, 83747, Note_on_c, 1, 69, 0
2, 83747, Note_on_c, 1, 72, 0
2, 83760, Note_on_c, 1, 65, 80
2, 83760, Note_on_c, 1, 69, 80
2, 83760, Note_on_c, 1, 72, 80
2, 83987, Note_on_c, 1, 65, 0
2, 83987, Note_on_c, 1, 69, 0
2, 83987, Note_on_c, 1, 72, 0
2, 84000, Note_on_c, 1, 65, 80
2, 84000, Note_on_c, 1, 69, 80
2, 84000, Note_on_c, 1, 72, 80
2, 84227, Note_on_c, 1, 65, 0
2, 84227, Note_on_c, 1, 69, 0
2, 84227, Note_on_c, 1, 72, 0
2, 84240, Note_on_c, 1, 65, 80
2, 84240, Note_on_c, 1, 69, 80
2, 84240, Note_on_c, 1, 72, 80
2, 84467, Note_on_c, 1, 65, 0
2, 84467, Note_on_c, 1, 69, 0
2, 84467, Note_on_c, 1, 72, 0
2, 84480, Note_on_c, 1, 64, 80
2, 84480, Note_on_c, 1, 67, 80
2, 84480, Note_on_c, 1, 72, 80
2, 84707, Note_on_c, 1, 64, 0
2, 84707, Note_on_c, 1, 67, 0
2, 84707, Note_on_c, 1, 72, 0
2, 84720, Note_on_c, 1, 64, 80
2, 84720, Note_on_c, 1, 67, 80
2, 84720, Note_on_c, 1, 72, 80
2, 84947, Note_on_c, 1, 64, 0
2, 84947, Note_on_c, 1, 67, 0
2, 84947, Note_on_c, 1, 72, 0
2, 84960, Note_on_c, 1, 64, 80
2, 84960, Note_on_c, 1, 67, 80
2, 84960, Note_on_c, 1, 72, 80
2, 85187, Note_on_c, 1, 64, 0
2, 85187, Note_on_c, 1, 67, 0
2, 85187, Note_on_c, 1, 72, 0
2, 85200, Note_on_c, 1, 64, 80
2, 85200, Note_on_c, 1, 67, 80
2, 85427, Note_on_c, 1, 64, 0
2, 85427, Note_on_c, 1, 67, 0
2, 85440, Note_on_c, 1, 64, 80
2, 85440, Note_on_c, 1, 71, 80
2, 85667, Note_on_c, 1, 64, 0
2, 85667, Note_on_c, 1, 71, 0
2, 85680, Note_on_c, 1, 64, 80
2, 85680, Note_on_c, 1, 71, 80
2, 85907, Note_on_c, 1, 64, 0
2, 85907, Note_on_c, 1, 71, 0
2, 85920, Note_on_c, 1, 64, 80
2, 85920, Note_on_c, 1, 71, 80
2, 86147, Note_on_c, 1, 64, 0
2, 86147, Note_on_c, 1, 71, 0
2, 86160, Note_on_c, 1, 64, 80
2, 86160, Note_on_c, 1, 71, 80
2, 86387, Note_on_c, 1, 64, 0
2, 86387, Note_on_c, 1, 71, 0
2, 86400, Note_on_c, 1, 64, 80
2, 86400, Note_on_c, 1, 69, 80
2, 86400, Note_on_c, 1, 72, 80
2, 86627, Note_on_c, 1, 64, 0
2, 86627, Note_on_c, 1, 69, 0
2, 86627, Note_on_c, 1, 72, 0
2, 86640, Note_on_c, 1, 64, 80
2, 86640, Note_on_c, 1, 69, 80
2, 86867, Note_on_c, 1, 64, 0
2, 86867, Note_on_c, 1, 69, 0
2, 86880, Note_on_c, 1, 64, 80
2, 86880, Note_on_c, 1, 69, 80
2, 87107, Note_on_c, 1, 64, 0
2, 87107, Note_on_c, 1, 69, 0
2, 87120, Note_on_c, 1, 64, 80
2, 87120, Note_on_c, 1, 69, 80
2, 87120, Note_on_c, 1, 72, 80
2, 87347, Note_on_c, 1, 64, 0
2, 87347, Note_on_c, 1, 69, 0
2, 87347, Note_on_c, 1, 72, 0
2, 87360, Note_on_c, 1, 64, 80
2, 87360, Note_on_c, 1, 67, 80
2, 87360, Note_on_c, 1, 72, 80
2, 87587, Note_on_c, 1, 64, 0
2, 87587, Note_on_c, 1, 67, 0
2, 87587, Note_on_c, 1, 72, 0
2, 87600, Note_on_c, 1, 64, 80
2, 87600, Note_on_c, 1, 67, 80
2, 87600, Note_on_c, 1, 72, 80
2, 87827, Note_on_c, 1, 64, 0
2, 87827, Note_on_c, 1, 67, 0
2, 87827, Note_on_c, 1, 72, 0
2, 87840, Note_on_c, 1, 64, 80
2, 87840, Note_on_c, 1, 67, 80
2, 87840, Note_on_c, 1, 72, 80
2, 88067, Note_on_c, 1, 64, 0
2, 88067, Note_on_c, 1, 67, 0
2, 88067, Note_on_c, 1, 72, 0
2, 88080, Note_on_c, 1, 64, 80
2, 88080, Note_on_c, 1, 67, 80
2, 88080, Note_on_c, 1, 72, 80
2, 88307, Note_on_c, 1, 64, 0
2, 88307, Note_on_c, 1, 67, 0
2, 88307, Note_on_c, 1, 72, 0
2, 88320, Note_on_c, 1, 64, 80
2, 88320, Note_on_c, 1, 67, 80
2, 88320, Note_on_c, 1, 72, 80
2, 88547, Note_on_c, 1, 64, 0
2, 88547, Note_on_c, 1, 67, 0
2, 88547, Note_on_c, 1, 72, 0
2, 88560, Note_on_c, 1, 64, 80
2, 88560, Note_on_c, 1, 67, 80
2, 88560, Note_on_c, 1, 72, 80
2, 88787, Note_on_c, 1, 64, 0
2, 88787, Note_on_c, 1, 67, 0
2, 88787, Note_on_c, 1, 72, 0
2, 88800, Note_on_c, 1, 64, 80
2, 88800, Note_on_c, 1, 67, 80
2, 88800, Note_on_c, 1, 72, 80
2, 89027, Note_on_c, 1, 64, 0
2, 89027, Note_on_c, 1, 67, 0
2, 89027, Note_on_c, 1, 72, 0
2, 89040, Note_on_c, 1, 64, 80
2, 89040, Note_on_c, 1, 67, 80
2, 89040, Note_on_c, 1, 72, 80
2, 89267, Note_on_c, 1, 64, 0
2, 89267, Note_on_c, 1, 67, 0
2, 89267, Note_on_c, 1, 72, 0
2, 89280, Note_on_c, 1, 69, 80
2, 89280, Note_on_c, 1, 72, 80
2, 89280, Note_on_c, 1, 77, 80
2, 89507, Note_on_c, 1, 69, 0
2, 89507, Note_on_c, 1, 72, 0
2, 89507, Note_on_c, 1, 77, 0
2, 89520, Note_on_c, 1, 69, 80
2, 89520, Note_on_c, 1, 72, 80
2, 89520, Note_on_c, 1, 77, 80
2, 89747, Note_on_c, 1, 69, 0
2, 89747, Note_on_c, 1, 72, 0
2, 89747, Note_on_c, 1, 77, 0
2, 89760, Note_on_c, 1, 69, 80
2, 89760, Note_on_c, 1, 72, 80
2, 89760, Note_on_c, 1, 77, 80
2, 89987, Note_on_c, 1, 69, 0
2, 89987, Note_on_c, 1, 72, 0
2, 89987, Note_on_c, 1, 77, 0
2, 90000, Note_on_c, 1, 69, 80
2, 90000, Note_on_c, 1, 72, 80
2, 90000, Note_on_c, 1, 77, 80
2, 90227, Note_on_c, 1, 69, 0
2, 90227, Note_on_c, 1, 72, 0
2, 90227, Note_on_c, 1, 77, 0
2, 90240, Note_on_c, 1, 64, 80
2, 90240, Note_on_c, 1, 67, 80
2, 90240, Note_on_c, 1, 72, 80
2, 91151, Note_on_c, 1, 64, 0
2, 91151, Note_on_c, 1, 67, 0
2, 91151, Note_on_c, 1, 72, 0
2, 91200, Note_on_c, 1, 65, 80
2, 91200, Note_on_c, 1, 69, 80
2, 91200, Note_on_c, 1, 72, 80
2, 91655, Note_on_c, 1, 65, 0
2, 91655, Note_on_c, 1, 69, 0
2, 91655, Note_on_c, 1, 72, 0
2, 91680, Note_on_c, 1, 64, 80
2, 91680, Note_on_c, 1, 67, 80
2, 91680, Note_on_c, 1, 72, 80
2, 92591, Note_on_c, 1, 64, 0
2, 92591, Note_on_c, 1, 67, 0
2, 92591, Note_on_c, 1, 72, 0
2, 92640, Note_on_c, 1, 65, 80
2, 92640, Note_on_c, 1, 72, 80
2, 93095, Note_on_c, 1, 65, 0
2, 93095, Note_on_c, 1, 72, 0
2, 93120, Note_on_c, 1, 64, 80
2, 93120, Note_on_c, 1, 67, 80
2, 93120, Note_on_c, 1, 72, 80
2, 94031, Note_on_c, 1, 64, 0
2, 94031, Note_on_c, 1, 67, 0
2, 94031, Note_on_c, 1, 72, 0
2, 94080, Note_on_c, 1, 65, 80
2, 94080, Note_on_c, 1, 72, 80
2, 94535, Note_on_c, 1, 65, 0
2, 94535, Note_on_c, 1, 72, 0
2, 94560, Note_on_c, 1, 64, 80
2, 94560, Note_on_c, 1, 67, 80
2, 94560, Note_on_c, 1, 72, 80
2, 95471, Note_on_c, 1, 64, 0
2, 95471, Note_on_c, 1, 67, 0
2, 95471, Note_on_c, 1, 72, 0
2, 97440, Note_on_c, 1, 60, 80
2, 97553, Note_on_c, 1, 60, 0
2, 97560, Note_on_c, 1, 59, 80
2, 97739, Note_on_c, 1, 59, 0
2, 97920, Note_on_c, 1, 59, 80
2, 98033, Note_on_c, 1, 59, 0
2, 98040, Note_on_c, 1, 57, 80
2, 98219, Note_on_c, 1, 57, 0
2, 98400, Note_on_c, 1, 52, 80
2, 98400, Note_on_c, 1, 57, 80
2, 98400, Note_on_c, 1, 60, 80
2, 98627, Note_on_c, 1, 52, 0
2, 98627, Note_on_c, 1, 57, 0
2, 98627, Note_on_c, 1, 60, 0
2, 98640, Note_on_c, 1, 52, 80
2, 98640, Note_on_c, 1, 57, 80
2, 98640, Note_on_c, 1, 60, 80
2, 98867, Note_on_c, 1, 52, 0
2, 98867, Note_on_c, 1, 57, 0
2, 98867, Note_on_c, 1, 60, 0
2, 98880, Note_on_c, 1, 52, 80
2, 98880, Note_on_c, 1, 57, 80
2, 98880, Note_on_c, 1, 60, 80
2, 99107, Note_on_c, 1, 52, 0
2, 99107, Note_on_c, 1, 57, 0
2, 99107, Note_on_c, 1, 60, 0
2, 99120, Note_on_c, 1, 52, 80
2, 99120, Note_on_c, 1, 57, 80
2, 99120, Note_on_c, 1, 60, 80
2, 99347, Note_on_c, 1, 52, 0
2, 99347, Note_on_c, 1, 57, 0
2, 99347, Note_on_c, 1, 60, 0
2, 99360, Note_on_c, 1, 52, 80
2, 99360, Note_on_c, 1, 57, 80
2, 99360, Note_on_c, 1, 60, 80
2, 99587, Note_on_c, 1, 52, 0
2, 99587, Note_on_c, 1, 57, 0
2, 99587, Note_on_c, 1, 60, 0
2, 99600, Note_on_c, 1, 52, 80
2, 99600, Note_on_c, 1, 57, 80
2, 99600, Note_on_c, 1, 60, 80
2, 99827, Note_on_c, 1, 52, 0
2, 99827, Note_on_c, 1, 57, 0
2, 99827, Note_on_c, 1, 60, 0
2, 99840, Note_on_c, 1, 52, 80
2, 99840, Note_on_c, 1, 57, 80
2, 99840, Note_on_c, 1, 60, 80
2, 100067, Note_on_c, 1, 52, 0
2, 100067, Note_on_c, 1, 57, 0
2, 100067, Note_on_c, 1, 60, 0
2, 100080, Note_on_c, 1, 52, 80
2, 100080, Note_on_c, 1, 57, 80
2, 100080, Note_on_c, 1, 60, 80
2, 100307, Note_on_c, 1, 52, 0
2, 100307, Note_on_c, 1, 57, 0
2, 100307, Note_on_c, 1, 60, 0
2, 100320, Note_on_c, 1, 52, 80
2, 100320, Note_on_c, 1, 55, 80
2, 100320, Note_on_c, 1, 59, 80
2, 100547, Note_on_c, 1, 52, 0
2, 100547, Note_on_c, 1, 55, 0
2, 100547, Note_on_c, 1, 59, 0
2, 100560, Note_on_c, 1, 52, 80
2, 100560, Note_on_c, 1, 55, 80
2, 100560, Note_on_c, 1, 59, 80
2, 100787, Note_on_c, 1, 52, 0
2, 100787, Note_on_c, 1, 55, 0
2, 100787, Note_on_c, 1, 59, 0
2, 100800, Note_on_c, 1, 52, 80
2, 100800, Note_on_c, 1, 55, 80
2, 100800, Note_on_c, 1, 59, 80
2, 101027, Note_on_c, 1, 52, 0
2, 101027, Note_on_c, 1, 55, 0
2, 101027, Note_on_c, 1, 59, 0
2, 101040, Note_on_c, 1, 52, 80
2, 101040, Note_on_c, 1, 55, 80
2, 101040, Note_on_c, 1, 59, 80
2, 101267, Note_on_c, 1, 52, 0
2, 101267, Note_on_c, 1, 55, 0
2, 101267, Note_on_c, 1, 59, 0
2, 101280, Note_on_c, 1, 52, 80
2, 101280, Note_on_c, 1, 55, 80
2, 101280, Note_on_c, 1, 59, 80
2, 101507, Note_on_c, 1, 52, 0
2, 101507, Note_on_c, 1, 55, 0
2, 101507, Note_on_c, 1, 59, 0
2, 101520, Note_on_c, 1, 52, 80
2, 101520, Note_on_c, 1, 55, 80
2, 101520, Note_on_c, 1, 59, 80
2, 101747, Note_on_c, 1, 52, 0
2, 101747, Note_on_c, 1, 55, 0
2, 101747, Note_on_c, 1, 59, 0
2, 101760, Note_on_c, 1, 52, 80
2, 101760, Note_on_c, 1, 55, 80
2, 101760, Note_on_c, 1, 59, 80
2, 101987, Note_on_c, 1, 52, 0
2, 101987, Note_on_c, 1, 55, 0
2, 101987, Note_on_c, 1, 59, 0
2, 102000, Note_on_c, 1, 52, 80
2, 102000, Note_on_c, 1, 55, 80
2, 102000, Note_on_c, 1, 59, 80
2, 102227, Note_on_c, 1, 52, 0
2, 102227, Note_on_c, 1, 55, 0
2, 102227, Note_on_c, 1, 59, 0
2, 102240, Note_on_c, 1, 52, 80
2, 102240, Note_on_c, 1, 55, 80
2, 102240, Note_on_c, 1, 60, 80
2, 102467, Note_on_c, 1, 52, 0
2, 102467, Note_on_c, 1, 55, 0
2, 102467, Note_on_c, 1, 60, 0
2, 102480, Note_on_c, 1, 52, 80
2, 102480, Note_on_c, 1, 55, 80
2, 102480, Note_on_c, 1, 60, 80
2, 102707, Note_on_c, 1, 52, 0
2, 102707, Note_on_c, 1, 55, 0
2, 102707, Note_on_c, 1, 60, 0
2, 102720, Note_on_c, 1, 52, 80
2, 102720, Note_on_c, 1, 55, 80
2, 102720, Note_on_c, 1, 60, 80
2, 102947, Note_on_c, 1, 52, 0
2, 102947, Note_on_c, 1, 55, 0
2, 102947, Note_on_c, 1, 60, 0
2, 102960, Note_on_c, 1, 52, 80
2, 102960, Note_on_c, 1, 55, 80
2, 102960, Note_on_c, 1, 60, 80
2, 103187, Note_on_c, 1, 52, 0
2, 103187, Note_on_c, 1, 55, 0
2, 103187, Note_on_c, 1, 60, 0
2, 103200, Note_on_c, 1, 53, 80
2, 103200, Note_on_c, 1, 57, 80
2, 103200, Note_on_c, 1, 62, 80
2, 103427, Note_on_c, 1, 53, 0
2, 103427, Note_on_c, 1, 57, 0
2, 103427, Note_on_c, 1, 62, 0
2, 103440, Note_on_c, 1, 53, 80
2, 103440, Note_on_c, 1, 57, 80
2, 103440, Note_on_c, 1, 62, 80
2, 103667, Note_on_c, 1, 53, 0
2, 103667, Note_on_c, 1, 57, 0
2, 103667, Note_on_c, 1, 62, 0
2, 103680, Note_on_c, 1, 53, 80
2, 103680, Note_on_c, 1, 57, 80
2, 103680, Note_on_c, 1, 62, 80
2, 103907, Note_on_c, 1, 53, 0
2, 103907, Note_on_c, 1, 57, 0
2, 103907, Note_on_c, 1, 62, 0
2, 103920, Note_on_c, 1, 53, 80
2, 103920, Note_on_c, 1, 57, 80
2, 103920, Note_on_c, 1, 62, 80
2, 104147, Note_on_c, 1, 53, 0
2, 104147, Note_on_c, 1, 57, 0
2, 104147, Note_on_c, 1, 62, 0
2, 104160, Note_on_c, 1, 52, 80
2, 104160, Note_on_c, 1, 57, 80
2, 104160, Note_on_c, 1, 60, 80
2, 104387, Note_on_c, 1, 52, 0
2, 104387, Note_on_c, 1, 57, 0
2, 104387, Note_on_c, 1, 60, 0
2, 104400, Note_on_c, 1, 52, 80
2, 104400, Note_on_c, 1, 57, 80
2, 104400, Note_on_c, 1, 60, 80
2, 104627, Note_on_c, 1, 52, 0
2, 104627, Note_on_c, 1, 57, 0
2, 104627, Note_on_c, 1, 60, 0
2, 104640, Note_on_c, 1, 52, 80
2, 104640, Note_on_c, 1, 57, 80
2, 104640, Note_on_c, 1, 60, 80
2, 104867, Note_on_c, 1, 52, 0
2, 104867, Note_on_c, 1, 57, 0
2, 104867, Note_on_c, 1, 60, 0
2, 104880, Note_on_c, 1, 52, 80
2, 104880, Note_on_c, 1, 57, 80
2, 104880, Note_on_c, 1, 60, 80
2, 105107, Note_on_c, 1, 52, 0
2, 105107, Note_on_c, 1, 57, 0
2, 105107, Note_on_c, 1, 60, 0
2, 105120, Note_on_c, 1, 62, 80
2, 105233, Note_on_c, 1, 62, 0
2, 105240, Note_on_c, 1, 60, 80
2, 105419, Note_on_c, 1, 60, 0
2, 105600, Note_on_c, 1, 60, 80
2, 105713, Note_on_c, 1, 60, 0
2, 105720, Note_on_c, 1, 59, 80
2, 105899, Note_on_c, 1, 59, 0
2, 106080, Note_on_c, 1, 52, 80
2, 106080, Note_on_c, 1, 57, 80
2, 106080, Note_on_c, 1, 60, 80
2, 106307, Note_on_c, 1, 52, 0
2, 106307, Note_on_c, 1, 57, 0
2, 106307, Note_on_c, 1, 60, 0
2, 106320, Note_on_c, 1, 52, 80
2, 106320, Note_on_c, 1, 57, 80
2, 106320, Note_on_c, 1, 60, 80
2, 106547, Note_on_c, 1, 52, 0
2, 106547, Note_on_c, 1, 57, 0
2, 106547, Note_on_c, 1, 60, 0
2, 106560, Note_on_c, 1, 52, 80
2, 106560, Note_on_c, 1, 57, 80
2, 106560, Note_on_c, 1, 60, 80
2, 106787, Note_on_c, 1, 52, 0
2, 106787, Note_on_c, 1, 57, 0
2, 106787, Note_on_c, 1, 60, 0
2, 106800, Note_on_c, 1, 52, 80
2, 106800, Note_on_c, 1, 57, 80
2, 106800, Note_on_c, 1, 60, 80
2, 107027, Note_on_c, 1, 52, 0
2, 107027, Note_on_c, 1, 57, 0
2, 107027, Note_on_c, 1, 60, 0
2, 107040, Note_on_c, 1, 52, 80
2, 107040, Note_on_c, 1, 57, 80
2, 107040, Note_on_c, 1, 60, 80
2, 107267, Note_on_c, 1, 52, 0
2, 107267, Note_on_c, 1, 57, 0
2, 107267, Note_on_c, 1, 60, 0
2, 107280, Note_on_c, 1, 52, 80
2, 107280, Note_on_c, 1, 57, 80
2, 107280, Note_on_c, 1, 60, 80
2, 107507, Note_on_c, 1, 52, 0
2, 107507, Note_on_c, 1, 57, 0
2, 107507, Note_on_c, 1, 60, 0
2, 107520, Note_on_c, 1, 52, 80
2, 107520, Note_on_c, 1, 57, 80
2, 107520, Note_on_c, 1, 60, 80
2, 107747, Note_on_c, 1, 52, 0
2, 107747, Note_on_c, 1, 57, 0
2, 107747, Note_on_c, 1, 60, 0
2, 107760, Note_on_c, 1, 52, 80
2, 107760, Note_on_c, 1, 57, 80
2, 107760, Note_on_c, 1, 60, 80
2, 107987, Note_on_c, 1, 52, 0
2, 107987, Note_on_c, 1, 57, 0
2, 107987, Note_on_c, 1, 60, 0
2, 108000, Note_on_c, 1, 52, 80
2, 108000, Note_on_c, 1, 55, 80
2, 108000, Note_on_c, 1, 59, 80
2, 108227, Note_on_c, 1, 52, 0
2, 108227, Note_on_c, 1, 55, 0
2, 108227, Note_on_c, 1, 59, 0
2, 108240, Note_on_c, 1, 52, 80
2, 108240, Note_on_c, 1, 55, 80
2, 108240, Note_on_c, 1, 59, 80
2, 108467, Note_on_c, 1, 52, 0
2, 108467, Note_on_c, 1, 55, 0
2, 108467, Note_on_c, 1, 59, 0
2, 108480, Note_on_c, 1, 52, 80
2, 108480, Note_on_c, 1, 55, 80
2, 108480, Note_on_c, 1, 59, 80
2, 108707, Note_on_c, 1, 52, 0
2, 108707, Note_on_c, 1, 55, 0
2, 108707, Note_on_c, 1, 59, 0
2, 108720, Note_on_c, 1, 52, 80
2, 108720, Note_on_c, 1, 55, 80
2, 108720, Note_on_c, 1, 59, 80
2, 108947, Note_on_c, 1, 52, 0
2, 108947, Note_on_c, 1, 55, 0
2, 108947, Note_on_c, 1, 59, 0
2, 108960, Note_on_c, 1, 52, 80
2, 108960, Note_on_c, 1, 55, 80
2, 108960, Note_on_c, 1, 59, 80
2, 109187, Note_on_c, 1, 52, 0
2, 109187, Note_on_c, 1, 55, 0
2, 109187, Note_on_c, 1, 59, 0
2, 109200, Note_on_c, 1, 52, 80
2, 109200, Note_on_c, 1, 55, 80
2, 109200, Note_on_c, 1, 59, 80
2, 109427, Note_on_c, 1, 52, 0
2, 109427, Note_on_c, 1, 55, 0
2, 109427, Note_on_c, 1, 59, 0
2, 109440, Note_on_c, 1, 52, 80
2, 109440, Note_on_c, 1, 55, 80
2, 109440, Note_on_c, 1, 59, 80
2, 109667, Note_on_c, 1, 52, 0
2, 109667, Note_on_c, 1, 55, 0
2, 109667, Note_on_c, 1, 59, 0
2, 109680, Note_on_c, 1, 52, 80
2, 109680, Note_on_c, 1, 55, 80
2, 109680, Note_on_c, 1, 59, 80
2, 109907, Note_on_c, 1, 52, 0
2, 109907, Note_on_c, 1, 55, 0
2, 109907, Note_on_c, 1, 59, 0
2, 109920, Note_on_c, 1, 52, 80
2, 109920, Note_on_c, 1, 55, 80
2, 109920, Note_on_c, 1, 60, 80
2, 110147, Note_on_c, 1, 52, 0
2, 110147, Note_on_c, 1, 55, 0
2, 110147, Note_on_c, 1, 60, 0
2, 110160, Note_on_c, 1, 52, 80
2, 110160, Note_on_c, 1, 55, 80
2, 110160, Note_on_c, 1, 60, 80
2, 110387, Note_on_c, 1, 52, 0
2, 110387, Note_on_c, 1, 55, 0
2, 110387, Note_on_c, 1, 60, 0
2, 110400, Note_on_c, 1, 52, 80
2, 110400, Note_on_c, 1, 55, 80
2, 110400, Note_on_c, 1, 60, 80
2, 110627, Note_on_c, 1, 52, 0
2, 110627, Note_on_c, 1, 55, 0
2, 110627, Note_on_c, 1, 60, 0
2, 110640, Note_on_c, 1, 52, 80
2, 110640, Note_on_c, 1, 55, 80
2, 110640, Note_on_c, 1, 60, 80
2, 110867, Note_on_c, 1, 52, 0
2, 110867, Note_on_c, 1, 55, 0
2, 110867, Note_on_c, 1, 60, 0
2, 110880, Note_on_c, 1, 53, 80
2, 110880, Note_on_c, 1, 57, 80
2, 110880, Note_on_c, 1, 62, 80
2, 111107, Note_on_c, 1, 53, 0
2, 111107, Note_on_c, 1, 57, 0
2, 111107, Note_on_c, 1, 62, 0
2, 111120, Note_on_c, 1, 53, 80
2, 111120, Note_on_c, 1, 57, 80
2, 111120, Note_on_c, 1, 62, 80
2, 111347, Note_on_c, 1, 53, 0
2, 111347, Note_on_c, 1, 57, 0
2, 111347, Note_on_c, 1, 62, 0
2, 111360, Note_on_c, 1, 53, 80
2, 111360, Note_on_c, 1, 57, 80
2, 111360, Note_on_c, 1, 62, 80
2, 111587, Note_on_c, 1, 53, 0
2, 111587, Note_on_c, 1, 57, 0
2, 111587, Note_on_c, 1, 62, 0
2, 111600, Note_on_c, 1, 53, 80
2, 111600, Note_on_c, 1, 57, 80
2, 111600, Note_on_c, 1, 62, 80
2, 111827, Note_on_c, 1, 53, 0
2, 111827, Note_on_c, 1, 57, 0
2, 111827, Note_on_c, 1, 62, 0
2, 111840, Note_on_c, 1, 52, 80
2, 111840, Note_on_c, 1, 57, 80
2, 111840, Note_on_c, 1, 60, 80
2, 112067, Note_on_c, 1, 52, 0
2, 112067, Note_on_c, 1, 57, 0
2, 112067, Note_on_c, 1, 60, 0
2, 112080, Note_on_c, 1, 52, 80
2, 112080, Note_on_c, 1, 57, 80
2, 112080, Note_on_c, 1, 60, 80
2, 112307, Note_on_c, 1, 52, 0
2, 112307, Note_on_c, 1, 57, 0
2, 112307, Note_on_c, 1, 60, 0
2, 112320, Note_on_c, 1, 52, 80
2, 112320, Note_on_c, 1, 57, 80
2, 112320, Note_on_c, 1, 60, 80
2, 112547, Note_on_c, 1, 52, 0
2, 112547, Note_on_c, 1, 57, 0
2, 112547, Note_on_c, 1, 60, 0
2, 112560, Note_on_c, 1, 52, 80
2, 112560, Note_on_c, 1, 57, 80
2, 112560, Note_on_c, 1, 60, 80
2, 112787, Note_on_c, 1, 52, 0
2, 112787, Note_on_c, 1, 57, 0
2, 112787, Note_on_c, 1, 60, 0
2, 112800, Note_on_c, 1, 62, 80
2, 112913, Note_on_c, 1, 62, 0
2, 112920, Note_on_c, 1, 60, 80
2, 113099, Note_on_c, 1, 60, 0
2, 113280, Note_on_c, 1, 60, 80
2, 113393, Note_on_c, 1, 60, 0
2, 113400, Note_on_c, 1, 59, 80
2, 113579, Note_on_c, 1, 59, 0
2, 113760, Note_on_c, 1, 57, 80
2, 115583, Note_on_c, 1, 57, 0
2, 115584, End_track
3, 0, Start_track
3, 0, Title_t, "Harp, Harp\000"
3, 0, Key_signature, 0, "major"
3, 0, Control_c, 15, 121, 0
3, 0, Program_c, 15, 46
3, 0, Control_c, 15, 7, 100
3, 0, Control_c, 15, 10, 64
3, 0, Control_c, 15, 91, 0
3, 0, Control_c, 15, 93, 0
3, 0, MIDI_port, 0
3, 0, Control_c, 4, 121, 0
3, 0, Program_c, 4, 45
3, 0, Control_c, 4, 7, 100
3, 0, Control_c, 4, 10, 64
3, 0, Control_c, 4, 91, 0
3, 0, Control_c, 4, 93, 0
3, 0, MIDI_port, 0
3, 0, Control_c, 5, 121, 0
3, 0, Program_c, 5, 11
3, 0, Control_c, 5, 7, 100
3, 0, Control_c, 5, 10, 64
3, 0, Control_c, 5, 91, 0
3, 0, Control_c, 5, 93, 0
3, 0, MIDI_port, 0
3, 24000, Note_on_c, 15, 50, 80
3, 24000, Note_on_c, 15, 57, 80
3, 24239, Note_on_c, 15, 50, 0
3, 24239, Note_on_c, 15, 57, 0
3, 24240, Note_on_c, 15, 57, 80
3, 24479, Note_on_c, 15, 57, 0
3, 24480, Note_on_c, 15, 57, 80
3, 24719, Note_on_c, 15, 57, 0
3, 24720, Note_on_c, 15, 57, 80
3, 24959, Note_on_c, 15, 57, 0
3, 24960, Note_on_c, 15, 57, 80
3, 25199, Note_on_c, 15, 57, 0
3, 25200, Note_on_c, 15, 57, 80
3, 25439, Note_on_c, 15, 57, 0
3, 25440, Note_on_c, 15, 57, 80
3, 25679, Note_on_c, 15, 57, 0
3, 25680, Note_on_c, 15, 57, 80
3, 25919, Note_on_c, 15, 57, 0
3, 25920, Note_on_c, 15, 52, 80
3, 25920, Note_on_c, 15, 57, 80
3, 26159, Note_on_c, 15, 52, 0
3, 26159, Note_on_c, 15, 57, 0
3, 26160, Note_on_c, 15, 57, 80
3, 26399, Note_on_c, 15, 57, 0
3, 26400, Note_on_c, 15, 57, 80
3, 26639, Note_on_c, 15, 57, 0
3, 26640, Note_on_c, 15, 57, 80
3, 26879, Note_on_c, 15, 57, 0
3, 26880, Note_on_c, 15, 57, 80
3, 27119, Note_on_c, 15, 57, 0
3, 27120, Note_on_c, 15, 57, 80
3, 27359, Note_on_c, 15, 57, 0
3, 27360, Note_on_c, 15, 57, 80
3, 27599, Note_on_c, 15, 57, 0
3, 27600, Note_on_c, 15, 57, 80
3, 27839, Note_on_c, 15, 57, 0
3, 27840, Note_on_c, 15, 48, 80
3, 27840, Note_on_c, 15, 57, 80
3, 28079, Note_on_c, 15, 48, 0
3, 28079, Note_on_c, 15, 57, 0
3, 28080, Note_on_c, 15, 57, 80
3, 28319, Note_on_c, 15, 57, 0
3, 28320, Note_on_c, 15, 57, 80
3, 28559, Note_on_c, 15, 57, 0
3, 28560, Note_on_c, 15, 57, 80
3, 28799, Note_on_c, 15, 57, 0
3, 28800, Note_on_c, 15, 55, 80
3, 29039, Note_on_c, 15, 55, 0
3, 29040, Note_on_c, 15, 55, 80
3, 29279, Note_on_c, 15, 55, 0
3, 29280, Note_on_c, 15, 55, 80
3, 29519, Note_on_c, 15, 55, 0
3, 29520, Note_on_c, 15, 55, 80
3, 29759, Note_on_c, 15, 55, 0
3, 29760, Note_on_c, 15, 50, 80
3, 29760, Note_on_c, 15, 57, 80
3, 29999, Note_on_c, 15, 50, 0
3, 29999, Note_on_c, 15, 57, 0
3, 30000, Note_on_c, 15, 57, 80
3, 30239, Note_on_c, 15, 57, 0
3, 30240, Note_on_c, 15, 57, 80
3, 30479, Note_on_c, 15, 57, 0
3, 30480, Note_on_c, 15, 57, 80
3, 30719, Note_on_c, 15, 57, 0
3, 30720, Note_on_c, 15, 55, 80
3, 30839, Note_on_c, 15, 55, 0
3, 30840, Note_on_c, 15, 53, 80
3, 31019, Note_on_c, 15, 53, 0
3, 31200, Note_on_c, 15, 53, 80
3, 31319, Note_on_c, 15, 53, 0
3, 31320, Note_on_c, 15, 52, 80
3, 31499, Note_on_c, 15, 52, 0
3, 31680, Note_on_c, 15, 50, 80
3, 31680, Note_on_c, 15, 57, 80
3, 31919, Note_on_c, 15, 50, 0
3, 31919, Note_on_c, 15, 57, 0
3, 31920, Note_on_c, 15, 57, 80
3, 32159, Note_on_c, 15, 57, 0
3, 32160, Note_on_c, 15, 57, 80
3, 32399, Note_on_c, 15, 57, 0
3, 32400, Note_on_c, 15, 57, 80
3, 32639, Note_on_c, 15, 57, 0
3, 32640, Note_on_c, 15, 57, 80
3, 32879, Note_on_c, 15, 57, 0
3, 32880, Note_on_c, 15, 57, 80
3, 33119, Note_on_c, 15, 57, 0
3, 33120, Note_on_c, 15, 57, 80
3, 33359, Note_on_c, 15, 57, 0
3, 33360, Note_on_c, 15, 57, 80
3, 33599, Note_on_c, 15, 57, 0
3, 33600, Note_on_c, 15, 52, 80
3, 33600, Note_on_c, 15, 57, 80
3, 33839, Note_on_c, 15, 52, 0
3, 33839, Note_on_c, 15, 57, 0
3, 33840, Note_on_c, 15, 57, 80
3, 34079, Note_on_c, 15, 57, 0
3, 34080, Note_on_c, 15, 57, 80
3, 34319, Note_on_c, 15, 57, 0
3, 34320, Note_on_c, 15, 57, 80
3, 34559, Note_on_c, 15, 57, 0
3, 34560, Note_on_c, 15, 57, 80
3, 34799, Note_on_c, 15, 57, 0
3, 34800, Note_on_c, 15, 57, 80
3, 35039, Note_on_c, 15, 57, 0
3, 35040, Note_on_c, 15, 57, 80
3, 35279, Note_on_c, 15, 57, 0
3, 35280, Note_on_c, 15, 57, 80
3, 35519, Note_on_c, 15, 57, 0
3, 35520, Note_on_c, 15, 53, 80
3, 35759, Note_on_c, 15, 53, 0
3, 35760, Note_on_c, 15, 53, 80
3, 35999, Note_on_c, 15, 53, 0
3, 36000, Note_on_c, 15, 53, 80
3, 36239, Note_on_c, 15, 53, 0
3, 36240, Note_on_c, 15, 53, 80
3, 36479, Note_on_c, 15, 53, 0
3, 36480, Note_on_c, 15, 55, 80
3, 36719, Note_on_c, 15, 55, 0
3, 36720, Note_on_c, 15, 55, 80
3, 36959, Note_on_c, 15, 55, 0
3, 36960, Note_on_c, 15, 55, 80
3, 37199, Note_on_c, 15, 55, 0
3, 37200, Note_on_c, 15, 55, 80
3, 37439, Note_on_c, 15, 55, 0
3, 37440, Note_on_c, 15, 50, 80
3, 37799, Note_on_c, 15, 50, 0
3, 37800, Note_on_c, 15, 50, 80
3, 37919, Note_on_c, 15, 50, 0
3, 37920, Note_on_c, 15, 50, 80
3, 38399, Note_on_c, 15, 50, 0
3, 38400, Note_on_c, 15, 55, 80
3, 38519, Note_on_c, 15, 55, 0
3, 38520, Note_on_c, 15, 53, 80
3, 38699, Note_on_c, 15, 53, 0
3, 38880, Note_on_c, 15, 53, 80
3, 38999, Note_on_c, 15, 53, 0
3, 39000, Note_on_c, 15, 52, 80
3, 39179, Note_on_c, 15, 52, 0
3, 39360, Note_on_c, 15, 50, 80
3, 39360, Note_on_c, 15, 53, 80
3, 39599, Note_on_c, 15, 50, 0
3, 39599, Note_on_c, 15, 53, 0
3, 39600, Note_on_c, 15, 53, 80
3, 39839, Note_on_c, 15, 53, 0
3, 39840, Note_on_c, 15, 53, 80
3, 40079, Note_on_c, 15, 53, 0
3, 40080, Note_on_c, 15, 53, 80
3, 40319, Note_on_c, 15, 53, 0
3, 40320, Note_on_c, 15, 55, 80
3, 40559, Note_on_c, 15, 55, 0
3, 40560, Note_on_c, 15, 55, 80
3, 40799, Note_on_c, 15, 55, 0
3, 40800, Note_on_c, 15, 50, 80
3, 40800, Note_on_c, 15, 53, 80
3, 41039, Note_on_c, 15, 50, 0
3, 41039, Note_on_c, 15, 53, 0
3, 41040, Note_on_c, 15, 53, 80
3, 41279, Note_on_c, 15, 53, 0
3, 41280, Note_on_c, 15, 53, 80
3, 41519, Note_on_c, 15, 53, 0
3, 41520, Note_on_c, 15, 53, 80
3, 41759, Note_on_c, 15, 53, 0
3, 41760, Note_on_c, 15, 55, 80
3, 41999, Note_on_c, 15, 55, 0
3, 42000, Note_on_c, 15, 55, 80
3, 42239, Note_on_c, 15, 55, 0
3, 42240, Note_on_c, 15, 53, 80
3, 42479, Note_on_c, 15, 53, 0
3, 42480, Note_on_c, 15, 53, 80
3, 42719, Note_on_c, 15, 53, 0
3, 42720, Note_on_c, 15, 53, 80
3, 42959, Note_on_c, 15, 53, 0
3, 42960, Note_on_c, 15, 53, 80
3, 43199, Note_on_c, 15, 53, 0
3, 43200, Note_on_c, 15, 55, 80
3, 43439, Note_on_c, 15, 55, 0
3, 43440, Note_on_c, 15, 55, 80
3, 43679, Note_on_c, 15, 55, 0
3, 43680, Note_on_c, 15, 53, 80
3, 43919, Note_on_c, 15, 53, 0
3, 43920, Note_on_c, 15, 53, 80
3, 44159, Note_on_c, 15, 53, 0
3, 44160, Note_on_c, 15, 53, 80
3, 44399, Note_on_c, 15, 53, 0
3, 44400, Note_on_c, 15, 53, 80
3, 44639, Note_on_c, 15, 53, 0
3, 44640, Note_on_c, 15, 55, 80
3, 44879, Note_on_c, 15, 55, 0
3, 44880, Note_on_c, 15, 55, 80
3, 45119, Note_on_c, 15, 55, 0
3, 45120, Note_on_c, 15, 52, 80
3, 45359, Note_on_c, 15, 52, 0
3, 45360, Note_on_c, 15, 52, 80
3, 45599, Note_on_c, 15, 52, 0
3, 45600, Note_on_c, 15, 52, 80
3, 45839, Note_on_c, 15, 52, 0
3, 45840, Note_on_c, 15, 52, 80
3, 46079, Note_on_c, 15, 52, 0
3, 46080, Note_on_c, 15, 50, 80
3, 46319, Note_on_c, 15, 50, 0
3, 46320, Note_on_c, 15, 50, 80
3, 46559, Note_on_c, 15, 50, 0
3, 46560, Note_on_c, 15, 50, 80
3, 46799, Note_on_c, 15, 50, 0
3, 46800, Note_on_c, 15, 50, 80
3, 47039, Note_on_c, 15, 50, 0
3, 47040, Note_on_c, 15, 50, 80
3, 47040, Note_on_c, 15, 53, 80
3, 47279, Note_on_c, 15, 50, 0
3, 47279, Note_on_c, 15, 53, 0
3, 47280, Note_on_c, 15, 53, 80
3, 47519, Note_on_c, 15, 53, 0
3, 47520, Note_on_c, 15, 53, 80
3, 47759, Note_on_c, 15, 53, 0
3, 47760, Note_on_c, 15, 53, 80
3, 47999, Note_on_c, 15, 53, 0
3, 48000, Note_on_c, 15, 55, 80
3, 48239, Note_on_c, 15, 55, 0
3, 48240, Note_on_c, 15, 55, 80
3, 48479, Note_on_c, 15, 55, 0
3, 48480, Note_on_c, 15, 50, 80
3, 48480, Note_on_c, 15, 53, 80
3, 48719, Note_on_c, 15, 50, 0
3, 48719, Note_on_c, 15, 53, 0
3, 48720, Note_on_c, 15, 53, 80
3, 48959, Note_on_c, 15, 53, 0
3, 48960, Note_on_c, 15, 53, 80
3, 49199, Note_on_c, 15, 53, 0
3, 49200, Note_on_c, 15, 53, 80
3, 49439, Note_on_c, 15, 53, 0
3, 49440, Note_on_c, 15, 55, 80
3, 49679, Note_on_c, 15, 55, 0
3, 49680, Note_on_c, 15, 55, 80
3, 49919, Note_on_c, 15, 55, 0
3, 49920, Note_on_c, 15, 53, 80
3, 50159, Note_on_c, 15, 53, 0
3, 50160, Note_on_c, 15, 53, 80
3, 50399, Note_on_c, 15, 53, 0
3, 50400, Note_on_c, 15, 53, 80
3, 50639, Note_on_c, 15, 53, 0
3, 50640, Note_on_c, 15, 53, 80
3, 50879, Note_on_c, 15, 53, 0
3, 50880, Note_on_c, 15, 55, 80
3, 51119, Note_on_c, 15, 55, 0
3, 51120, Note_on_c, 15, 55, 80
3, 51359, Note_on_c, 15, 55, 0
3, 51360, Note_on_c, 15, 53, 80
3, 51599, Note_on_c, 15, 53, 0
3, 51600, Note_on_c, 15, 53, 80
3, 51839, Note_on_c, 15, 53, 0
3, 51840, Note_on_c, 15, 53, 80
3, 52079, Note_on_c, 15, 53, 0
3, 52080, Note_on_c, 15, 53, 80
3, 52319, Note_on_c, 15, 53, 0
3, 52320, Note_on_c, 15, 55, 80
3, 52559, Note_on_c, 15, 55, 0
3, 52560, Note_on_c, 15, 55, 80
3, 52799, Note_on_c, 15, 55, 0
3, 52800, Note_on_c, 15, 52, 80
3, 53759, Note_on_c, 15, 52, 0
3, 53760, Note_on_c, 15, 50, 80
3, 54719, Note_on_c, 15, 50, 0
3, 55680, Note_on_c, 15, 53, 80
3, 55799, Note_on_c, 15, 53, 0
3, 55800, Note_on_c, 15, 52, 80
3, 55979, Note_on_c, 15, 52, 0
3, 56160, Note_on_c, 15, 52, 80
3, 56279, Note_on_c, 15, 52, 0
3, 56280, Note_on_c, 15, 50, 80
3, 56459, Note_on_c, 15, 50, 0
3, 56640, Note_on_c, 15, 50, 80
3, 56640, Note_on_c, 15, 57, 80
3, 56879, Note_on_c, 15, 50, 0
3, 56879, Note_on_c, 15, 57, 0
3, 56880, Note_on_c, 15, 57, 80
3, 57119, Note_on_c, 15, 57, 0
3, 57120, Note_on_c, 15, 57, 80
3, 57359, Note_on_c, 15, 57, 0
3, 57360, Note_on_c, 15, 57, 80
3, 57599, Note_on_c, 15, 57, 0
3, 57600, Note_on_c, 15, 57, 80
3, 57839, Note_on_c, 15, 57, 0
3, 57840, Note_on_c, 15, 57, 80
3, 58079, Note_on_c, 15, 57, 0
3, 58080, Note_on_c, 15, 57, 80
3, 58319, Note_on_c, 15, 57, 0
3, 58320, Note_on_c, 15, 57, 80
3, 58559, Note_on_c, 15, 57, 0
3, 58560, Note_on_c, 15, 52, 80
3, 58560, Note_on_c, 15, 57, 80
3, 58799, Note_on_c, 15, 52, 0
3, 58799, Note_on_c, 15, 57, 0
3, 58800, Note_on_c, 15, 57, 80
3, 59039, Note_on_c, 15, 57, 0
3, 59040, Note_on_c, 15, 57, 80
3, 59279, Note_on_c, 15, 57, 0
3, 59280, Note_on_c, 15, 57, 80
3, 59519, Note_on_c, 15, 57, 0
3, 59520, Note_on_c, 15, 57, 80
3, 59759, Note_on_c, 15, 57, 0
3, 59760, Note_on_c, 15, 57, 80
3, 59999, Note_on_c, 15, 57, 0
3, 60000, Note_on_c, 15, 57, 80
3, 60239, Note_on_c, 15, 57, 0
3, 60240, Note_on_c, 15, 57, 80
3, 60479, Note_on_c, 15, 57, 0
3, 60480, Note_on_c, 15, 48, 80
3, 60480, Note_on_c, 15, 57, 80
3, 60719, Note_on_c, 15, 48, 0
3, 60719, Note_on_c, 15, 57, 0
3, 60720, Note_on_c, 15, 57, 80
3, 60959, Note_on_c, 15, 57, 0
3, 60960, Note_on_c, 15, 57, 80
3, 61199, Note_on_c, 15, 57, 0
3, 61200, Note_on_c, 15, 57, 80
3, 61439, Note_on_c, 15, 57, 0
3, 61440, Note_on_c, 15, 55, 80
3, 61679, Note_on_c, 15, 55, 0
3, 61680, Note_on_c, 15, 55, 80
3, 61919, Note_on_c, 15, 55, 0
3, 61920, Note_on_c, 15, 55, 80
3, 62159, Note_on_c, 15, 55, 0
3, 62160, Note_on_c, 15, 55, 80
3, 62399, Note_on_c, 15, 55, 0
3, 62400, Note_on_c, 15, 50, 80
3, 62400, Note_on_c, 15, 57, 80
3, 62639, Note_on_c, 15, 50, 0
3, 62639, Note_on_c, 15, 57, 0
3, 62640, Note_on_c, 15, 57, 80
3, 62879, Note_on_c, 15, 57, 0
3, 62880, Note_on_c, 15, 57, 80
3, 63119, Note_on_c, 15, 57, 0
3, 63120, Note_on_c, 15, 57, 80
3, 63359, Note_on_c, 15, 57, 0
3, 63360, Note_on_c, 15, 55, 80
3, 63479, Note_on_c, 15, 55, 0
3, 63480, Note_on_c, 15, 53, 80
3, 63659, Note_on_c, 15, 53, 0
3, 63840, Note_on_c, 15, 53, 80
3, 63959, Note_on_c, 15, 53, 0
3, 63960, Note_on_c, 15, 52, 80
3, 64139, Note_on_c, 15, 52, 0
3, 64320, Note_on_c, 15, 50, 80
3, 64320, Note_on_c, 15, 57, 80
3, 64559, Note_on_c, 15, 50, 0
3, 64559, Note_on_c, 15, 57, 0
3, 64560, Note_on_c, 15, 57, 80
3, 64799, Note_on_c, 15, 57, 0
3, 64800, Note_on_c, 15, 57, 80
3, 65039, Note_on_c, 15, 57, 0
3, 65040, Note_on_c, 15, 57, 80
3, 65279, Note_on_c, 15, 57, 0
3, 65280, Note_on_c, 15, 57, 80
3, 65519, Note_on_c, 15, 57, 0
3, 65520, Note_on_c, 15, 57, 80
3, 65759, Note_on_c, 15, 57, 0
3, 65760, Note_on_c, 15, 57, 80
3, 65999, Note_on_c, 15, 57, 0
3, 66000, Note_on_c, 15, 57, 80
3, 66239, Note_on_c, 15, 57, 0
3, 66240, Note_on_c, 15, 52, 80
3, 66240, Note_on_c, 15, 57, 80
3, 66479, Note_on_c, 15, 52, 0
3, 66479, Note_on_c, 15, 57, 0
3, 66480, Note_on_c, 15, 57, 80
3, 66719, Note_on_c, 15, 57, 0
3, 66720, Note_on_c, 15, 57, 80
3, 66959, Note_on_c, 15, 57, 0
3, 66960, Note_on_c, 15, 57, 80
3, 67199, Note_on_c, 15, 57, 0
3, 67200, Note_on_c, 15, 57, 80
3, 67439, Note_on_c, 15, 57, 0
3, 67440, Note_on_c, 15, 57, 80
3, 67679, Note_on_c, 15, 57, 0
3, 67680, Note_on_c, 15, 57, 80
3, 67919, Note_on_c, 15, 57, 0
3, 67920, Note_on_c, 15, 57, 80
3, 68159, Note_on_c, 15, 57, 0
3, 68160, Note_on_c, 15, 53, 80
3, 68399, Note_on_c, 15, 53, 0
3, 68400, Note_on_c, 15, 53, 80
3, 68639, Note_on_c, 15, 53, 0
3, 68640, Note_on_c, 15, 53, 80
3, 68879, Note_on_c, 15, 53, 0
3, 68880, Note_on_c, 15, 53, 80
3, 69119, Note_on_c, 15, 53, 0
3, 69120, Note_on_c, 15, 55, 80
3, 69359, Note_on_c, 15, 55, 0
3, 69360, Note_on_c, 15, 55, 80
3, 69599, Note_on_c, 15, 55, 0
3, 69600, Note_on_c, 15, 55, 80
3, 69839, Note_on_c, 15, 55, 0
3, 69840, Note_on_c, 15, 55, 80
3, 70079, Note_on_c, 15, 55, 0
3, 70080, Note_on_c, 15, 50, 80
3, 70439, Note_on_c, 15, 50, 0
3, 70440, Note_on_c, 15, 50, 80
3, 70559, Note_on_c, 15, 50, 0
3, 70560, Note_on_c, 15, 50, 80
3, 71039, Note_on_c, 15, 50, 0
3, 71040, Note_on_c, 15, 55, 80
3, 71159, Note_on_c, 15, 55, 0
3, 71160, Note_on_c, 15, 53, 80
3, 71339, Note_on_c, 15, 53, 0
3, 71520, Note_on_c, 15, 53, 80
3, 71639, Note_on_c, 15, 53, 0
3, 71640, Note_on_c, 15, 52, 80
3, 71819, Note_on_c, 15, 52, 0
3, 72000, Note_on_c, 15, 53, 80
3, 72359, Note_on_c, 15, 53, 0
3, 72360, Note_on_c, 15, 53, 80
3, 72479, Note_on_c, 15, 53, 0
3, 72480, Note_on_c, 15, 53, 80
3, 72959, Note_on_c, 15, 53, 0
3, 72960, Note_on_c, 15, 52, 80
3, 73319, Note_on_c, 15, 52, 0
3, 73320, Note_on_c, 15, 52, 80
3, 73439, Note_on_c, 15, 52, 0
3, 73440, Note_on_c, 15, 52, 80
3, 73919, Note_on_c, 15, 52, 0
3, 73920, Note_on_c, 15, 52, 80
3, 73920, Note_on_c, 15, 59, 80
3, 74279, Note_on_c, 15, 52, 0
3, 74279, Note_on_c, 15, 59, 0
3, 74280, Note_on_c, 15, 59, 80
3, 74399, Note_on_c, 15, 59, 0
3, 74400, Note_on_c, 15, 59, 80
3, 74879, Note_on_c, 15, 59, 0
3, 74880, Note_on_c, 15, 60, 80
3, 75239, Note_on_c, 15, 60, 0
3, 75240, Note_on_c, 15, 60, 80
3, 75359, Note_on_c, 15, 60, 0
3, 75360, Note_on_c, 15, 57, 80
3, 75839, Note_on_c, 15, 57, 0
3, 75840, Note_on_c, 15, 53, 80
3, 76199, Note_on_c, 15, 53, 0
3, 76200, Note_on_c, 15, 53, 80
3, 76319, Note_on_c, 15, 53, 0
3, 76320, Note_on_c, 15, 53, 80
3, 76799, Note_on_c, 15, 53, 0
3, 76800, Note_on_c, 15, 52, 80
3, 77159, Note_on_c, 15, 52, 0
3, 77160, Note_on_c, 15, 52, 80
3, 77279, Note_on_c, 15, 52, 0
3, 77280, Note_on_c, 15, 52, 80
3, 77759, Note_on_c, 15, 52, 0
3, 77760, Note_on_c, 15, 52, 80
3, 77760, Note_on_c, 15, 59, 80
3, 78119, Note_on_c, 15, 52, 0
3, 78119, Note_on_c, 15, 59, 0
3, 78120, Note_on_c, 15, 59, 80
3, 78239, Note_on_c, 15, 59, 0
3, 78240, Note_on_c, 15, 59, 80
3, 78719, Note_on_c, 15, 59, 0
3, 78720, Note_on_c, 15, 57, 80
3, 78720, Note_on_c, 15, 60, 80
3, 79079, Note_on_c, 15, 57, 0
3, 79079, Note_on_c, 15, 60, 0
3, 79080, Note_on_c, 15, 60, 80
3, 79199, Note_on_c, 15, 60, 0
3, 79200, Note_on_c, 15, 57, 80
3, 79679, Note_on_c, 15, 57, 0
3, 79680, Note_on_c, 15, 53, 80
3, 80039, Note_on_c, 15, 53, 0
3, 80040, Note_on_c, 15, 53, 80
3, 80159, Note_on_c, 15, 53, 0
3, 80160, Note_on_c, 15, 53, 80
3, 80639, Note_on_c, 15, 53, 0
3, 80640, Note_on_c, 15, 52, 80
3, 80999, Note_on_c, 15, 52, 0
3, 81000, Note_on_c, 15, 52, 80
3, 81119, Note_on_c, 15, 52, 0
3, 81120, Note_on_c, 15, 52, 80
3, 81599, Note_on_c, 15, 52, 0
3, 81600, Note_on_c, 15, 59, 80
3, 81959, Note_on_c, 15, 59, 0
3, 81960, Note_on_c, 15, 59, 80
3, 82079, Note_on_c, 15, 59, 0
3, 82080, Note_on_c, 15, 59, 80
3, 82559, Note_on_c, 15, 59, 0
3, 82560, Note_on_c, 15, 60, 80
3, 82919, Note_on_c, 15, 60, 0
3, 82920, Note_on_c, 15, 60, 80
3, 83039, Note_on_c, 15, 60, 0
3, 83040, Note_on_c, 15, 57, 80
3, 83519, Note_on_c, 15, 57, 0
3, 83520, Note_on_c, 15, 53, 80
3, 83879, Note_on_c, 15, 53, 0
3, 83880, Note_on_c, 15, 53, 80
3, 83999, Note_on_c, 15, 53, 0
3, 84000, Note_on_c, 15, 53, 80
3, 84479, Note_on_c, 15, 53, 0
3, 84480, Note_on_c, 15, 52, 80
3, 84839, Note_on_c, 15, 52, 0
3, 84840, Note_on_c, 15, 52, 80
3, 84959, Note_on_c, 15, 52, 0
3, 84960, Note_on_c, 15, 52, 80
3, 85439, Note_on_c, 15, 52, 0
3, 85440, Note_on_c, 15, 59, 80
3, 85799, Note_on_c, 15, 59, 0
3, 85800, Note_on_c, 15, 59, 80
3, 85919, Note_on_c, 15, 59, 0
3, 85920, Note_on_c, 15, 59, 80
3, 86399, Note_on_c, 15, 59, 0
3, 86400, Note_on_c, 15, 60, 80
3, 86759, Note_on_c, 15, 60, 0
3, 86760, Note_on_c, 15, 60, 80
3, 86879, Note_on_c, 15, 60, 0
3, 86880, Note_on_c, 15, 57, 80
3, 87359, Note_on_c, 15, 57, 0
3, 87360, Note_on_c, 15, 55, 80
3, 87719, Note_on_c, 15, 55, 0
3, 87720, Note_on_c, 15, 55, 80
3, 87839, Note_on_c, 15, 55, 0
3, 87840, Note_on_c, 15, 55, 80
3, 88319, Note_on_c, 15, 55, 0
3, 88320, Note_on_c, 15, 53, 80
3, 88679, Note_on_c, 15, 53, 0
3, 88680, Note_on_c, 15, 53, 80
3, 88799, Note_on_c, 15, 53, 0
3, 88800, Note_on_c, 15, 53, 80
3, 89279, Note_on_c, 15, 53, 0
3, 89280, Note_on_c, 15, 53, 80
3, 89639, Note_on_c, 15, 53, 0
3, 89640, Note_on_c, 15, 53, 80
3, 89759, Note_on_c, 15, 53, 0
3, 89760, Note_on_c, 15, 53, 80
3, 90239, Note_on_c, 15, 53, 0
3, 90240, Note_on_c, 15, 48, 80
3, 90240, Note_on_c, 15, 60, 80
3, 91199, Note_on_c, 15, 48, 0
3, 91199, Note_on_c, 15, 60, 0
3, 91200, Note_on_c, 15, 53, 80
3, 91679, Note_on_c, 15, 53, 0
3, 91680, Note_on_c, 15, 48, 80
3, 91680, Note_on_c, 15, 60, 80
3, 92639, Note_on_c, 15, 48, 0
3, 92639, Note_on_c, 15, 60, 0
3, 92640, Note_on_c, 15, 53, 80
3, 93119, Note_on_c, 15, 53, 0
3, 93120, Note_on_c, 15, 48, 80
3, 93120, Note_on_c, 15, 60, 80
3, 94079, Note_on_c, 15, 48, 0
3, 94079, Note_on_c, 15, 60, 0
3, 94080, Note_on_c, 15, 53, 80
3, 94559, Note_on_c, 15, 53, 0
3, 94560, Note_on_c, 15, 48, 80
3, 94560, Note_on_c, 15, 60, 80
3, 95519, Note_on_c, 15, 48, 0
3, 95519, Note_on_c, 15, 60, 0
3, 113760, Note_on_c, 15, 57, 80
3, 115679, Note_on_c, 15, 57, 0
3, 115680, End_track
4, 0, Start_track
4, 0, Title_t, "Electric Bass, Bass\000"
4, 0, Key_signature, 0, "major"
4, 0, Control_c, 2, 121, 0
4, 0, Program_c, 2, 33
4, 0, Control_c, 2, 7, 100
4, 0, Control_c, 2, 10, 64
4, 0, Control_c, 2, 91, 0
4, 0, Control_c, 2, 93, 0
4, 0, MIDI_port, 0
4, 0, Note_on_c, 2, 50, 80
4, 0, Control_c, 6, 121, 0
4, 0, Program_c, 6, 36
4, 0, Control_c, 6, 7, 100
4, 0, Control_c, 6, 10, 64
4, 0, Control_c, 6, 91, 0
4, 0, Control_c, 6, 93, 0
4, 0, MIDI_port, 0
4, 0, Control_c, 7, 121, 0
4, 0, Program_c, 7, 37
4, 0, Control_c, 7, 7, 100
4, 0, Control_c, 7, 10, 64
4, 0, Control_c, 7, 91, 0
4, 0, Control_c, 7, 93, 0
4, 0, MIDI_port, 0
4, 959, Note_on_c, 2, 50, 0
4, 960, Note_on_c, 2, 55, 80
4, 1439, Note_on_c, 2, 55, 0
4, 1440, Note_on_c, 2, 50, 80
4, 2399, Note_on_c, 2, 50, 0
4, 2400, Note_on_c, 2, 55, 80
4, 2879, Note_on_c, 2, 55, 0
4, 2880, Note_on_c, 2, 53, 80
4, 3839, Note_on_c, 2, 53, 0
4, 3840, Note_on_c, 2, 55, 80
4, 4319, Note_on_c, 2, 55, 0
4, 4320, Note_on_c, 2, 50, 80
4, 5279, Note_on_c, 2, 50, 0
4, 5280, Note_on_c, 2, 55, 80
4, 5759, Note_on_c, 2, 55, 0
4, 5760, Note_on_c, 2, 50, 80
4, 6719, Note_on_c, 2, 50, 0
4, 6720, Note_on_c, 2, 55, 80
4, 7199, Note_on_c, 2, 55, 0
4, 7200, Note_on_c, 2, 50, 80
4, 8159, Note_on_c, 2, 50, 0
4, 8160, Note_on_c, 2, 55, 80
4, 8639, Note_on_c, 2, 55, 0
4, 8640, Note_on_c, 2, 53, 80
4, 9599, Note_on_c, 2, 53, 0
4, 9600, Note_on_c, 2, 55, 80
4, 10079, Note_on_c, 2, 55, 0
4, 10080, Note_on_c, 2, 50, 80
4, 11039, Note_on_c, 2, 50, 0
4, 11040, Note_on_c, 2, 55, 80
4, 11519, Note_on_c, 2, 55, 0
4, 11520, Note_on_c, 2, 48, 80
4, 13439, Note_on_c, 2, 48, 0
4, 13440, Note_on_c, 2, 50, 80
4, 14399, Note_on_c, 2, 50, 0
4, 14400, Note_on_c, 2, 55, 80
4, 14879, Note_on_c, 2, 55, 0
4, 14880, Note_on_c, 2, 50, 80
4, 15839, Note_on_c, 2, 50, 0
4, 15840, Note_on_c, 2, 55, 80
4, 16319, Note_on_c, 2, 55, 0
4, 16320, Note_on_c, 2, 53, 80
4, 17279, Note_on_c, 2, 53, 0
4, 17280, Note_on_c, 2, 55, 80
4, 17759, Note_on_c, 2, 55, 0
4, 17760, Note_on_c, 2, 50, 80
4, 18719, Note_on_c, 2, 50, 0
4, 18720, Note_on_c, 2, 55, 80
4, 19199, Note_on_c, 2, 55, 0
4, 19200, Note_on_c, 2, 48, 80
4, 21119, Note_on_c, 2, 48, 0
4, 23040, Note_on_c, 2, 65, 80
4, 23159, Note_on_c, 2, 65, 0
4, 23160, Note_on_c, 2, 64, 80
4, 23339, Note_on_c, 2, 64, 0
4, 23520, Note_on_c, 2, 64, 80
4, 23639, Note_on_c, 2, 64, 0
4, 23640, Note_on_c, 2, 62, 80
4, 23819, Note_on_c, 2, 62, 0
4, 24000, Note_on_c, 2, 50, 80
4, 24359, Note_on_c, 2, 50, 0
4, 24360, Note_on_c, 2, 50, 80
4, 24479, Note_on_c, 2, 50, 0
4, 24480, Note_on_c, 2, 50, 80
4, 24719, Note_on_c, 2, 50, 0
4, 24720, Note_on_c, 2, 50, 80
4, 24959, Note_on_c, 2, 50, 0
4, 24960, Note_on_c, 2, 50, 80
4, 25319, Note_on_c, 2, 50, 0
4, 25320, Note_on_c, 2, 50, 80
4, 25439, Note_on_c, 2, 50, 0
4, 25440, Note_on_c, 2, 50, 80
4, 25679, Note_on_c, 2, 50, 0
4, 25680, Note_on_c, 2, 50, 80
4, 25919, Note_on_c, 2, 50, 0
4, 25920, Note_on_c, 2, 57, 80
4, 26279, Note_on_c, 2, 57, 0
4, 26280, Note_on_c, 2, 57, 80
4, 26399, Note_on_c, 2, 57, 0
4, 26400, Note_on_c, 2, 57, 80
4, 26639, Note_on_c, 2, 57, 0
4, 26640, Note_on_c, 2, 57, 80
4, 26879, Note_on_c, 2, 57, 0
4, 26880, Note_on_c, 2, 57, 80
4, 27239, Note_on_c, 2, 57, 0
4, 27240, Note_on_c, 2, 57, 80
4, 27359, Note_on_c, 2, 57, 0
4, 27360, Note_on_c, 2, 57, 80
4, 27599, Note_on_c, 2, 57, 0
4, 27600, Note_on_c, 2, 57, 80
4, 27839, Note_on_c, 2, 57, 0
4, 27840, Note_on_c, 2, 53, 80
4, 28199, Note_on_c, 2, 53, 0
4, 28200, Note_on_c, 2, 53, 80
4, 28319, Note_on_c, 2, 53, 0
4, 28320, Note_on_c, 2, 53, 80
4, 28799, Note_on_c, 2, 53, 0
4, 28800, Note_on_c, 2, 55, 80
4, 29159, Note_on_c, 2, 55, 0
4, 29160, Note_on_c, 2, 55, 80
4, 29279, Note_on_c, 2, 55, 0
4, 29280, Note_on_c, 2, 55, 80
4, 29759, Note_on_c, 2, 55, 0
4, 29760, Note_on_c, 2, 50, 80
4, 30119, Note_on_c, 2, 50, 0
4, 30120, Note_on_c, 2, 50, 80
4, 30239, Note_on_c, 2, 50, 0
4, 30240, Note_on_c, 2, 50, 80
4, 30719, Note_on_c, 2, 50, 0
4, 30720, Note_on_c, 2, 55, 80
4, 30839, Note_on_c, 2, 55, 0
4, 30840, Note_on_c, 2, 53, 80
4, 31019, Note_on_c, 2, 53, 0
4, 31200, Note_on_c, 2, 53, 80
4, 31319, Note_on_c, 2, 53, 0
4, 31320, Note_on_c, 2, 52, 80
4, 31499, Note_on_c, 2, 52, 0
4, 31680, Note_on_c, 2, 50, 80
4, 32039, Note_on_c, 2, 50, 0
4, 32040, Note_on_c, 2, 50, 80
4, 32159, Note_on_c, 2, 50, 0
4, 32160, Note_on_c, 2, 50, 80
4, 32399, Note_on_c, 2, 50, 0
4, 32400, Note_on_c, 2, 50, 80
4, 32639, Note_on_c, 2, 50, 0
4, 32640, Note_on_c, 2, 50, 80
4, 32999, Note_on_c, 2, 50, 0
4, 33000, Note_on_c, 2, 50, 80
4, 33119, Note_on_c, 2, 50, 0
4, 33120, Note_on_c, 2, 50, 80
4, 33359, Note_on_c, 2, 50, 0
4, 33360, Note_on_c, 2, 50, 80
4, 33599, Note_on_c, 2, 50, 0
4, 33600, Note_on_c, 2, 57, 80
4, 33959, Note_on_c, 2, 57, 0
4, 33960, Note_on_c, 2, 57, 80
4, 34079, Note_on_c, 2, 57, 0
4, 34080, Note_on_c, 2, 57, 80
4, 34319, Note_on_c, 2, 57, 0
4, 34320, Note_on_c, 2, 57, 80
4, 34559, Note_on_c, 2, 57, 0
4, 34560, Note_on_c, 2, 57, 80
4, 34919, Note_on_c, 2, 57, 0
4, 34920, Note_on_c, 2, 57, 80
4, 35039, Note_on_c, 2, 57, 0
4, 35040, Note_on_c, 2, 57, 80
4, 35279, Note_on_c, 2, 57, 0
4, 35280, Note_on_c, 2, 57, 80
4, 35519, Note_on_c, 2, 57, 0
4, 35520, Note_on_c, 2, 53, 80
4, 35879, Note_on_c, 2, 53, 0
4, 35880, Note_on_c, 2, 53, 80
4, 35999, Note_on_c, 2, 53, 0
4, 36000, Note_on_c, 2, 53, 80
4, 36479, Note_on_c, 2, 53, 0
4, 36480, Note_on_c, 2, 55, 80
4, 36839, Note_on_c, 2, 55, 0
4, 36840, Note_on_c, 2, 55, 80
4, 36959, Note_on_c, 2, 55, 0
4, 36960, Note_on_c, 2, 55, 80
4, 37439, Note_on_c, 2, 55, 0
4, 37440, Note_on_c, 2, 62, 80
4, 37799, Note_on_c, 2, 62, 0
4, 37800, Note_on_c, 2, 62, 80
4, 37919, Note_on_c, 2, 62, 0
4, 37920, Note_on_c, 2, 62, 80
4, 38399, Note_on_c, 2, 62, 0
4, 38400, Note_on_c, 2, 67, 80
4, 38519, Note_on_c, 2, 67, 0
4, 38520, Note_on_c, 2, 65, 80
4, 38699, Note_on_c, 2, 65, 0
4, 38880, Note_on_c, 2, 65, 80
4, 38999, Note_on_c, 2, 65, 0
4, 39000, Note_on_c, 2, 64, 80
4, 39179, Note_on_c, 2, 64, 0
4, 39360, Note_on_c, 2, 62, 80
4, 39719, Note_on_c, 2, 62, 0
4, 39720, Note_on_c, 2, 62, 80
4, 39839, Note_on_c, 2, 62, 0
4, 39840, Note_on_c, 2, 62, 80
4, 40319, Note_on_c, 2, 62, 0
4, 40320, Note_on_c, 2, 67, 80
4, 40679, Note_on_c, 2, 67, 0
4, 40680, Note_on_c, 2, 67, 80
4, 40799, Note_on_c, 2, 67, 0
4, 40800, Note_on_c, 2, 62, 80
4, 41159, Note_on_c, 2, 62, 0
4, 41160, Note_on_c, 2, 62, 80
4, 41279, Note_on_c, 2, 62, 0
4, 41280, Note_on_c, 2, 62, 80
4, 41759, Note_on_c, 2, 62, 0
4, 41760, Note_on_c, 2, 67, 80
4, 42119, Note_on_c, 2, 67, 0
4, 42120, Note_on_c, 2, 67, 80
4, 42239, Note_on_c, 2, 67, 0
4, 42240, Note_on_c, 2, 65, 80
4, 42599, Note_on_c, 2, 65, 0
4, 42600, Note_on_c, 2, 65, 80
4, 42719, Note_on_c, 2, 65, 0
4, 42720, Note_on_c, 2, 65, 80
4, 43199, Note_on_c, 2, 65, 0
4, 43200, Note_on_c, 2, 67, 80
4, 43559, Note_on_c, 2, 67, 0
4, 43560, Note_on_c, 2, 67, 80
4, 43679, Note_on_c, 2, 67, 0
4, 43680, Note_on_c, 2, 62, 80
4, 44039, Note_on_c, 2, 62, 0
4, 44040, Note_on_c, 2, 62, 80
4, 44159, Note_on_c, 2, 62, 0
4, 44160, Note_on_c, 2, 62, 80
4, 44639, Note_on_c, 2, 62, 0
4, 44640, Note_on_c, 2, 67, 80
4, 44999, Note_on_c, 2, 67, 0
4, 45000, Note_on_c, 2, 67, 80
4, 45119, Note_on_c, 2, 67, 0
4, 45120, Note_on_c, 2, 64, 80
4, 46079, Note_on_c, 2, 64, 0
4, 46080, Note_on_c, 2, 62, 80
4, 47039, Note_on_c, 2, 62, 0
4, 47040, Note_on_c, 2, 62, 80
4, 47399, Note_on_c, 2, 62, 0
4, 47400, Note_on_c, 2, 62, 80
4, 47519, Note_on_c, 2, 62, 0
4, 47520, Note_on_c, 2, 62, 80
4, 47999, Note_on_c, 2, 62, 0
4, 48000, Note_on_c, 2, 67, 80
4, 48359, Note_on_c, 2, 67, 0
4, 48360, Note_on_c, 2, 67, 80
4, 48479, Note_on_c, 2, 67, 0
4, 48480, Note_on_c, 2, 62, 80
4, 48839, Note_on_c, 2, 62, 0
4, 48840, Note_on_c, 2, 62, 80
4, 48959, Note_on_c, 2, 62, 0
4, 48960, Note_on_c, 2, 62, 80
4, 49439, Note_on_c, 2, 62, 0
4, 49440, Note_on_c, 2, 67, 80
4, 49799, Note_on_c, 2, 67, 0
4, 49800, Note_on_c, 2, 67, 80
4, 49919, Note_on_c, 2, 67, 0
4, 49920, Note_on_c, 2, 65, 80
4, 50279, Note_on_c, 2, 65, 0
4, 50280, Note_on_c, 2, 65, 80
4, 50399, Note_on_c, 2, 65, 0
4, 50400, Note_on_c, 2, 65, 80
4, 50879, Note_on_c, 2, 65, 0
4, 50880, Note_on_c, 2, 67, 80
4, 51239, Note_on_c, 2, 67, 0
4, 51240, Note_on_c, 2, 67, 80
4, 51359, Note_on_c, 2, 67, 0
4, 51360, Note_on_c, 2, 62, 80
4, 51719, Note_on_c, 2, 62, 0
4, 51720, Note_on_c, 2, 62, 80
4, 51839, Note_on_c, 2, 62, 0
4, 51840, Note_on_c, 2, 62, 80
4, 52319, Note_on_c, 2, 62, 0
4, 52320, Note_on_c, 2, 67, 80
4, 52679, Note_on_c, 2, 67, 0
4, 52680, Note_on_c, 2, 67, 80
4, 52799, Note_on_c, 2, 67, 0
4, 52800, Note_on_c, 2, 60, 80
4, 53759, Note_on_c, 2, 60, 0
4, 53760, Note_on_c, 2, 62, 80
4, 54719, Note_on_c, 2, 62, 0
4, 55680, Note_on_c, 2, 65, 80
4, 55799, Note_on_c, 2, 65, 0
4, 55800, Note_on_c, 2, 64, 80
4, 55979, Note_on_c, 2, 64, 0
4, 56160, Note_on_c, 2, 64, 80
4, 56279, Note_on_c, 2, 64, 0
4, 56280, Note_on_c, 2, 62, 80
4, 56459, Note_on_c, 2, 62, 0
4, 56640, Note_on_c, 2, 50, 80
4, 56999, Note_on_c, 2, 50, 0
4, 57000, Note_on_c, 2, 50, 80
4, 57119, Note_on_c, 2, 50, 0
4, 57120, Note_on_c, 2, 50, 80
4, 57359, Note_on_c, 2, 50, 0
4, 57360, Note_on_c, 2, 50, 80
4, 57599, Note_on_c, 2, 50, 0
4, 57600, Note_on_c, 2, 50, 80
4, 57959, Note_on_c, 2, 50, 0
4, 57960, Note_on_c, 2, 50, 80
4, 58079, Note_on_c, 2, 50, 0
4, 58080, Note_on_c, 2, 50, 80
4, 58319, Note_on_c, 2, 50, 0
4, 58320, Note_on_c, 2, 50, 80
4, 58559, Note_on_c, 2, 50, 0
4, 58560, Note_on_c, 2, 57, 80
4, 58919, Note_on_c, 2, 57, 0
4, 58920, Note_on_c, 2, 57, 80
4, 59039, Note_on_c, 2, 57, 0
4, 59040, Note_on_c, 2, 57, 80
4, 59279, Note_on_c, 2, 57, 0
4, 59280, Note_on_c, 2, 57, 80
4, 59519, Note_on_c, 2, 57, 0
4, 59520, Note_on_c, 2, 57, 80
4, 59879, Note_on_c, 2, 57, 0
4, 59880, Note_on_c, 2, 57, 80
4, 59999, Note_on_c, 2, 57, 0
4, 60000, Note_on_c, 2, 57, 80
4, 60239, Note_on_c, 2, 57, 0
4, 60240, Note_on_c, 2, 57, 80
4, 60479, Note_on_c, 2, 57, 0
4, 60480, Note_on_c, 2, 53, 80
4, 60839, Note_on_c, 2, 53, 0
4, 60840, Note_on_c, 2, 53, 80
4, 60959, Note_on_c, 2, 53, 0
4, 60960, Note_on_c, 2, 53, 80
4, 61439, Note_on_c, 2, 53, 0
4, 61440, Note_on_c, 2, 55, 80
4, 61799, Note_on_c, 2, 55, 0
4, 61800, Note_on_c, 2, 55, 80
4, 61919, Note_on_c, 2, 55, 0
4, 61920, Note_on_c, 2, 55, 80
4, 62399, Note_on_c, 2, 55, 0
4, 62400, Note_on_c, 2, 50, 80
4, 62759, Note_on_c, 2, 50, 0
4, 62760, Note_on_c, 2, 50, 80
4, 62879, Note_on_c, 2, 50, 0
4, 62880, Note_on_c, 2, 50, 80
4, 63359, Note_on_c, 2, 50, 0
4, 63360, Note_on_c, 2, 55, 80
4, 63479, Note_on_c, 2, 55, 0
4, 63480, Note_on_c, 2, 53, 80
4, 63659, Note_on_c, 2, 53, 0
4, 63840, Note_on_c, 2, 53, 80
4, 63959, Note_on_c, 2, 53, 0
4, 63960, Note_on_c, 2, 52, 80
4, 64139, Note_on_c, 2, 52, 0
4, 64320, Note_on_c, 2, 50, 80
4, 64679, Note_on_c, 2, 50, 0
4, 64680, Note_on_c, 2, 50, 80
4, 64799, Note_on_c, 2, 50, 0
4, 64800, Note_on_c, 2, 50, 80
4, 65039, Note_on_c, 2, 50, 0
4, 65040, Note_on_c, 2, 50, 80
4, 65279, Note_on_c, 2, 50, 0
4, 65280, Note_on_c, 2, 50, 80
4, 65639, Note_on_c, 2, 50, 0
4, 65640, Note_on_c, 2, 50, 80
4, 65759, Note_on_c, 2, 50, 0
4, 65760, Note_on_c, 2, 50, 80
4, 65999, Note_on_c, 2, 50, 0
4, 66000, Note_on_c, 2, 50, 80
4, 66239, Note_on_c, 2, 50, 0
4, 66240, Note_on_c, 2, 57, 80
4, 66599, Note_on_c, 2, 57, 0
4, 66600, Note_on_c, 2, 57, 80
4, 66719, Note_on_c, 2, 57, 0
4, 66720, Note_on_c, 2, 57, 80
4, 66959, Note_on_c, 2, 57, 0
4, 66960, Note_on_c, 2, 57, 80
4, 67199, Note_on_c, 2, 57, 0
4, 67200, Note_on_c, 2, 57, 80
4, 67559, Note_on_c, 2, 57, 0
4, 67560, Note_on_c, 2, 57, 80
4, 67679, Note_on_c, 2, 57, 0
4, 67680, Note_on_c, 2, 57, 80
4, 67919, Note_on_c, 2, 57, 0
4, 67920, Note_on_c, 2, 57, 80
4, 68159, Note_on_c, 2, 57, 0
4, 68160, Note_on_c, 2, 53, 80
4, 68519, Note_on_c, 2, 53, 0
4, 68520, Note_on_c, 2, 53, 80
4, 68639, Note_on_c, 2, 53, 0
4, 68640, Note_on_c, 2, 53, 80
4, 69119, Note_on_c, 2, 53, 0
4, 69120, Note_on_c, 2, 55, 80
4, 69479, Note_on_c, 2, 55, 0
4, 69480, Note_on_c, 2, 55, 80
4, 69599, Note_on_c, 2, 55, 0
4, 69600, Note_on_c, 2, 55, 80
4, 70079, Note_on_c, 2, 55, 0
4, 70080, Note_on_c, 2, 62, 80
4, 70439, Note_on_c, 2, 62, 0
4, 70440, Note_on_c, 2, 62, 80
4, 70559, Note_on_c, 2, 62, 0
4, 70560, Note_on_c, 2, 62, 80
4, 71039, Note_on_c, 2, 62, 0
4, 71040, Note_on_c, 2, 67, 80
4, 71159, Note_on_c, 2, 67, 0
4, 71160, Note_on_c, 2, 65, 80
4, 71339, Note_on_c, 2, 65, 0
4, 71520, Note_on_c, 2, 65, 80
4, 71639, Note_on_c, 2, 65, 0
4, 71640, Note_on_c, 2, 64, 80
4, 71819, Note_on_c, 2, 64, 0
4, 72000, Note_on_c, 2, 53, 80
4, 72359, Note_on_c, 2, 53, 0
4, 72360, Note_on_c, 2, 53, 80
4, 72479, Note_on_c, 2, 53, 0
4, 72480, Note_on_c, 2, 53, 80
4, 72959, Note_on_c, 2, 53, 0
4, 72960, Note_on_c, 2, 52, 80
4, 73319, Note_on_c, 2, 52, 0
4, 73320, Note_on_c, 2, 52, 80
4, 73439, Note_on_c, 2, 52, 0
4, 73440, Note_on_c, 2, 52, 80
4, 73919, Note_on_c, 2, 52, 0
4, 73920, Note_on_c, 2, 59, 80
4, 74279, Note_on_c, 2, 59, 0
4, 74280, Note_on_c, 2, 59, 80
4, 74399, Note_on_c, 2, 59, 0
4, 74400, Note_on_c, 2, 59, 80
4, 74879, Note_on_c, 2, 59, 0
4, 74880, Note_on_c, 2, 60, 80
4, 75239, Note_on_c, 2, 60, 0
4, 75240, Note_on_c, 2, 60, 80
4, 75359, Note_on_c, 2, 60, 0
4, 75360, Note_on_c, 2, 57, 80
4, 75839, Note_on_c, 2, 57, 0
4, 75840, Note_on_c, 2, 53, 80
4, 76199, Note_on_c, 2, 53, 0
4, 76200, Note_on_c, 2, 53, 80
4, 76319, Note_on_c, 2, 53, 0
4, 76320, Note_on_c, 2, 53, 80
4, 76799, Note_on_c, 2, 53, 0
4, 76800, Note_on_c, 2, 52, 80
4, 77159, Note_on_c, 2, 52, 0
4, 77160, Note_on_c, 2, 52, 80
4, 77279, Note_on_c, 2, 52, 0
4, 77280, Note_on_c, 2, 52, 80
4, 77759, Note_on_c, 2, 52, 0
4, 77760, Note_on_c, 2, 59, 80
4, 78119, Note_on_c, 2, 59, 0
4, 78120, Note_on_c, 2, 59, 80
4, 78239, Note_on_c, 2, 59, 0
4, 78240, Note_on_c, 2, 59, 80
4, 78719, Note_on_c, 2, 59, 0
4, 78720, Note_on_c, 2, 60, 80
4, 79079, Note_on_c, 2, 60, 0
4, 79080, Note_on_c, 2, 60, 80
4, 79199, Note_on_c, 2, 60, 0
4, 79200, Note_on_c, 2, 57, 80
4, 79679, Note_on_c, 2, 57, 0
4, 79680, Note_on_c, 2, 53, 80
4, 80039, Note_on_c, 2, 53, 0
4, 80040, Note_on_c, 2, 53, 80
4, 80159, Note_on_c, 2, 53, 0
4, 80160, Note_on_c, 2, 53, 80
4, 80639, Note_on_c, 2, 53, 0
4, 80640, Note_on_c, 2, 52, 80
4, 80999, Note_on_c, 2, 52, 0
4, 81000, Note_on_c, 2, 52, 80
4, 81119, Note_on_c, 2, 52, 0
4, 81120, Note_on_c, 2, 52, 80
4, 81599, Note_on_c, 2, 52, 0
4, 81600, Note_on_c, 2, 59, 80
4, 81959, Note_on_c, 2, 59, 0
4, 81960, Note_on_c, 2, 59, 80
4, 82079, Note_on_c, 2, 59, 0
4, 82080, Note_on_c, 2, 59, 80
4, 82559, Note_on_c, 2, 59, 0
4, 82560, Note_on_c, 2, 60, 80
4, 82919, Note_on_c, 2, 60, 0
4, 82920, Note_on_c, 2, 60, 80
4, 83039, Note_on_c, 2, 60, 0
4, 83040, Note_on_c, 2, 57, 80
4, 83519, Note_on_c, 2, 57, 0
4, 83520, Note_on_c, 2, 53, 80
4, 83879, Note_on_c, 2, 53, 0
4, 83880, Note_on_c, 2, 53, 80
4, 83999, Note_on_c, 2, 53, 0
4, 84000, Note_on_c, 2, 53, 80
4, 84479, Note_on_c, 2, 53, 0
4, 84480, Note_on_c, 2, 52, 80
4, 84839, Note_on_c, 2, 52, 0
4, 84840, Note_on_c, 2, 52, 80
4, 84959, Note_on_c, 2, 52, 0
4, 84960, Note_on_c, 2, 52, 80
4, 85439, Note_on_c, 2, 52, 0
4, 85440, Note_on_c, 2, 59, 80
4, 85799, Note_on_c, 2, 59, 0
4, 85800, Note_on_c, 2, 59, 80
4, 85919, Note_on_c, 2, 59, 0
4, 85920, Note_on_c, 2, 59, 80
4, 86399, Note_on_c, 2, 59, 0
4, 86400, Note_on_c, 2, 60, 80
4, 86759, Note_on_c, 2, 60, 0
4, 86760, Note_on_c, 2, 60, 80
4, 86879, Note_on_c, 2, 60, 0
4, 86880, Note_on_c, 2, 57, 80
4, 87359, Note_on_c, 2, 57, 0
4, 87360, Note_on_c, 2, 55, 80
4, 87719, Note_on_c, 2, 55, 0
4, 87720, Note_on_c, 2, 55, 80
4, 87839, Note_on_c, 2, 55, 0
4, 87840, Note_on_c, 2, 55, 80
4, 88319, Note_on_c, 2, 55, 0
4, 88320, Note_on_c, 2, 53, 80
4, 88679, Note_on_c, 2, 53, 0
4, 88680, Note_on_c, 2, 53, 80
4, 88799, Note_on_c, 2, 53, 0
4, 88800, Note_on_c, 2, 53, 80
4, 89279, Note_on_c, 2, 53, 0
4, 89280, Note_on_c, 2, 53, 80
4, 89639, Note_on_c, 2, 53, 0
4, 89640, Note_on_c, 2, 53, 80
4, 89759, Note_on_c, 2, 53, 0
4, 89760, Note_on_c, 2, 53, 80
4, 90239, Note_on_c, 2, 53, 0
4, 90240, Note_on_c, 2, 60, 80
4, 90719, Note_on_c, 2, 60, 0
4, 97440, Note_on_c, 2, 60, 80
4, 97559, Note_on_c, 2, 60, 0
4, 97560, Note_on_c, 2, 59, 80
4, 97739, Note_on_c, 2, 59, 0
4, 97920, Note_on_c, 2, 59, 80
4, 98039, Note_on_c, 2, 59, 0
4, 98040, Note_on_c, 2, 57, 80
4, 98219, Note_on_c, 2, 57, 0
4, 98400, Note_on_c, 2, 57, 80
4, 98759, Note_on_c, 2, 57, 0
4, 98760, Note_on_c, 2, 57, 80
4, 98879, Note_on_c, 2, 57, 0
4, 98880, Note_on_c, 2, 57, 80
4, 99119, Note_on_c, 2, 57, 0
4, 99120, Note_on_c, 2, 57, 80
4, 99359, Note_on_c, 2, 57, 0
4, 99360, Note_on_c, 2, 57, 80
4, 99719, Note_on_c, 2, 57, 0
4, 99720, Note_on_c, 2, 57, 80
4, 99839, Note_on_c, 2, 57, 0
4, 99840, Note_on_c, 2, 57, 80
4, 100079, Note_on_c, 2, 57, 0
4, 100080, Note_on_c, 2, 57, 80
4, 100319, Note_on_c, 2, 57, 0
4, 100320, Note_on_c, 2, 52, 80
4, 100679, Note_on_c, 2, 52, 0
4, 100680, Note_on_c, 2, 52, 80
4, 100799, Note_on_c, 2, 52, 0
4, 100800, Note_on_c, 2, 52, 80
4, 101039, Note_on_c, 2, 52, 0
4, 101040, Note_on_c, 2, 52, 80
4, 101279, Note_on_c, 2, 52, 0
4, 101280, Note_on_c, 2, 52, 80
4, 101639, Note_on_c, 2, 52, 0
4, 101640, Note_on_c, 2, 52, 80
4, 101759, Note_on_c, 2, 52, 0
4, 101760, Note_on_c, 2, 52, 80
4, 101999, Note_on_c, 2, 52, 0
4, 102000, Note_on_c, 2, 52, 80
4, 102239, Note_on_c, 2, 52, 0
4, 102240, Note_on_c, 2, 60, 80
4, 102599, Note_on_c, 2, 60, 0
4, 102600, Note_on_c, 2, 60, 80
4, 102719, Note_on_c, 2, 60, 0
4, 102720, Note_on_c, 2, 60, 80
4, 103199, Note_on_c, 2, 60, 0
4, 103200, Note_on_c, 2, 62, 80
4, 103559, Note_on_c, 2, 62, 0
4, 103560, Note_on_c, 2, 62, 80
4, 103679, Note_on_c, 2, 62, 0
4, 103680, Note_on_c, 2, 62, 80
4, 104159, Note_on_c, 2, 62, 0
4, 104160, Note_on_c, 2, 57, 80
4, 104519, Note_on_c, 2, 57, 0
4, 104520, Note_on_c, 2, 57, 80
4, 104639, Note_on_c, 2, 57, 0
4, 104640, Note_on_c, 2, 57, 80
4, 105119, Note_on_c, 2, 57, 0
4, 105120, Note_on_c, 2, 62, 80
4, 105239, Note_on_c, 2, 62, 0
4, 105240, Note_on_c, 2, 60, 80
4, 105419, Note_on_c, 2, 60, 0
4, 105600, Note_on_c, 2, 60, 80
4, 105719, Note_on_c, 2, 60, 0
4, 105720, Note_on_c, 2, 59, 80
4, 105899, Note_on_c, 2, 59, 0
4, 106080, Note_on_c, 2, 57, 80
4, 106439, Note_on_c, 2, 57, 0
4, 106440, Note_on_c, 2, 57, 80
4, 106559, Note_on_c, 2, 57, 0
4, 106560, Note_on_c, 2, 57, 80
4, 106799, Note_on_c, 2, 57, 0
4, 106800, Note_on_c, 2, 57, 80
4, 107039, Note_on_c, 2, 57, 0
4, 107040, Note_on_c, 2, 57, 80
4, 107399, Note_on_c, 2, 57, 0
4, 107400, Note_on_c, 2, 57, 80
4, 107519, Note_on_c, 2, 57, 0
4, 107520, Note_on_c, 2, 57, 80
4, 107759, Note_on_c, 2, 57, 0
4, 107760, Note_on_c, 2, 57, 80
4, 107999, Note_on_c, 2, 57, 0
4, 108000, Note_on_c, 2, 52, 80
4, 108359, Note_on_c, 2, 52, 0
4, 108360, Note_on_c, 2, 52, 80
4, 108479, Note_on_c, 2, 52, 0
4, 108480, Note_on_c, 2, 52, 80
4, 108719, Note_on_c, 2, 52, 0
4, 108720, Note_on_c, 2, 52, 80
4, 108959, Note_on_c, 2, 52, 0
4, 108960, Note_on_c, 2, 52, 80
4, 109319, Note_on_c, 2, 52, 0
4, 109320, Note_on_c, 2, 52, 80
4, 109439, Note_on_c, 2, 52, 0
4, 109440, Note_on_c, 2, 52, 80
4, 109679, Note_on_c, 2, 52, 0
4, 109680, Note_on_c, 2, 52, 80
4, 109919, Note_on_c, 2, 52, 0
4, 109920, Note_on_c, 2, 60, 80
4, 110279, Note_on_c, 2, 60, 0
4, 110280, Note_on_c, 2, 60, 80
4, 110399, Note_on_c, 2, 60, 0
4, 110400, Note_on_c, 2, 60, 80
4, 110879, Note_on_c, 2, 60, 0
4, 110880, Note_on_c, 2, 62, 80
4, 111239, Note_on_c, 2, 62, 0
4, 111240, Note_on_c, 2, 62, 80
4, 111359, Note_on_c, 2, 62, 0
4, 111360, Note_on_c, 2, 62, 80
4, 111839, Note_on_c, 2, 62, 0
4, 111840, Note_on_c, 2, 57, 80
4, 112199, Note_on_c, 2, 57, 0
4, 112200, Note_on_c, 2, 57, 80
4, 112319, Note_on_c, 2, 57, 0
4, 112320, Note_on_c, 2, 57, 80
4, 112799, Note_on_c, 2, 57, 0
4, 112800, Note_on_c, 2, 62, 80
4, 112919, Note_on_c, 2, 62, 0
4, 112920, Note_on_c, 2, 60, 80
4, 113099, Note_on_c, 2, 60, 0
4, 113280, Note_on_c, 2, 60, 80
4, 113399, Note_on_c, 2, 60, 0
4, 113400, Note_on_c, 2, 59, 80
4, 113579, Note_on_c, 2, 59, 0
4, 113760, Note_on_c, 2, 57, 80
4, 115679, Note_on_c, 2, 57, 0
4, 115680, End_track
5, 0, Start_track
5, 0, Title_t, "Chimes, Voice, Voice\000"
5, 0, Key_signature, 0, "major"
5, 0, Control_c, 3, 121, 0
5, 0, Program_c, 3, 14
5, 0, Control_c, 3, 7, 100
5, 0, Control_c, 3, 10, 64
5, 0, Control_c, 3, 91, 0
5, 0, Control_c, 3, 93, 0
5, 0, MIDI_port, 0
5, 13440, Note_on_c, 3, 69, 80
5, 14399, Note_on_c, 3, 69, 0
5, 14400, Note_on_c, 3, 67, 80
5, 14879, Note_on_c, 3, 67, 0
5, 14880, Note_on_c, 3, 65, 80
5, 15839, Note_on_c, 3, 65, 0
5, 15840, Note_on_c, 3, 67, 80
5, 16319, Note_on_c, 3, 67, 0
5, 16320, Note_on_c, 3, 69, 80
5, 17279, Note_on_c, 3, 69, 0
5, 17280, Note_on_c, 3, 67, 80
5, 17759, Note_on_c, 3, 67, 0
5, 17760, Note_on_c, 3, 65, 80
5, 18719, Note_on_c, 3, 65, 0
5, 18720, Note_on_c, 3, 67, 80
5, 19199, Note_on_c, 3, 67, 0
5, 19200, Note_on_c, 3, 72, 80
5, 19679, Note_on_c, 3, 72, 0
5, 21120, Note_on_c, 3, 74, 80
5, 21599, Note_on_c, 3, 74, 0
5, 27840, Note_on_c, 3, 72, 80
5, 27840, Note_on_c, 3, 77, 80
5, 28799, Note_on_c, 3, 72, 0
5, 28799, Note_on_c, 3, 77, 0
5, 28800, Note_on_c, 3, 74, 80
5, 28800, Note_on_c, 3, 79, 80
5, 29759, Note_on_c, 3, 74, 0
5, 29759, Note_on_c, 3, 79, 0
5, 29760, Note_on_c, 3, 69, 80
5, 29760, Note_on_c, 3, 74, 80
5, 30719, Note_on_c, 3, 69, 0
5, 30719, Note_on_c, 3, 74, 0
5, 35520, Note_on_c, 3, 72, 80
5, 35520, Note_on_c, 3, 77, 80
5, 36479, Note_on_c, 3, 72, 0
5, 36479, Note_on_c, 3, 77, 0
5, 36480, Note_on_c, 3, 74, 80
5, 36480, Note_on_c, 3, 79, 80
5, 37439, Note_on_c, 3, 74, 0
5, 37439, Note_on_c, 3, 79, 0
5, 37440, Note_on_c, 3, 69, 80
5, 37440, Note_on_c, 3, 74, 80
5, 38399, Note_on_c, 3, 69, 0
5, 38399, Note_on_c, 3, 74, 0
5, 39360, Note_on_c, 3, 69, 80
5, 39360, Note_on_c, 3, 74, 80
5, 40319, Note_on_c, 3, 69, 0
5, 40319, Note_on_c, 3, 74, 0
5, 40320, Note_on_c, 3, 74, 80
5, 40320, Note_on_c, 3, 79, 80
5, 40799, Note_on_c, 3, 74, 0
5, 40799, Note_on_c, 3, 79, 0
5, 40800, Note_on_c, 3, 69, 80
5, 40800, Note_on_c, 3, 74, 80
5, 41759, Note_on_c, 3, 69, 0
5, 41759, Note_on_c, 3, 74, 0
5, 41760, Note_on_c, 3, 74, 80
5, 41760, Note_on_c, 3, 79, 80
5, 42239, Note_on_c, 3, 74, 0
5, 42239, Note_on_c, 3, 79, 0
5, 42240, Note_on_c, 3, 65, 80
5, 42240, Note_on_c, 3, 72, 80
5, 43199, Note_on_c, 3, 65, 0
5, 43199, Note_on_c, 3, 72, 0
5, 43200, Note_on_c, 3, 74, 80
5, 43200, Note_on_c, 3, 79, 80
5, 43679, Note_on_c, 3, 74, 0
5, 43679, Note_on_c, 3, 79, 0
5, 43680, Note_on_c, 3, 69, 80
5, 43680, Note_on_c, 3, 74, 80
5, 44639, Note_on_c, 3, 69, 0
5, 44639, Note_on_c, 3, 74, 0
5, 44640, Note_on_c, 3, 74, 80
5, 44640, Note_on_c, 3, 79, 80
5, 45119, Note_on_c, 3, 74, 0
5, 45119, Note_on_c, 3, 79, 0
5, 45120, Note_on_c, 3, 76, 80
5, 46079, Note_on_c, 3, 76, 0
5, 46080, Note_on_c, 3, 74, 80
5, 47039, Note_on_c, 3, 74, 0
5, 47040, Note_on_c, 3, 69, 80
5, 47040, Note_on_c, 3, 74, 80
5, 47999, Note_on_c, 3, 69, 0
5, 47999, Note_on_c, 3, 74, 0
5, 48000, Note_on_c, 3, 74, 80
5, 48000, Note_on_c, 3, 79, 80
5, 48479, Note_on_c, 3, 74, 0
5, 48479, Note_on_c, 3, 79, 0
5, 48480, Note_on_c, 3, 69, 80
5, 48480, Note_on_c, 3, 74, 80
5, 49439, Note_on_c, 3, 69, 0
5, 49439, Note_on_c, 3, 74, 0
5, 49440, Note_on_c, 3, 74, 80
5, 49440, Note_on_c, 3, 79, 80
5, 49919, Note_on_c, 3, 74, 0
5, 49919, Note_on_c, 3, 79, 0
5, 49920, Note_on_c, 3, 65, 80
5, 49920, Note_on_c, 3, 72, 80
5, 50879, Note_on_c, 3, 65, 0
5, 50879, Note_on_c, 3, 72, 0
5, 50880, Note_on_c, 3, 74, 80
5, 50880, Note_on_c, 3, 79, 80
5, 51359, Note_on_c, 3, 74, 0
5, 51359, Note_on_c, 3, 79, 0
5, 51360, Note_on_c, 3, 69, 80
5, 51360, Note_on_c, 3, 74, 80
5, 52319, Note_on_c, 3, 69, 0
5, 52319, Note_on_c, 3, 74, 0
5, 52320, Note_on_c, 3, 74, 80
5, 52320, Note_on_c, 3, 79, 80
5, 52799, Note_on_c, 3, 74, 0
5, 52799, Note_on_c, 3, 79, 0
5, 52800, Note_on_c, 3, 76, 80
5, 53759, Note_on_c, 3, 76, 0
5, 53760, Note_on_c, 3, 74, 80
5, 54719, Note_on_c, 3, 74, 0
5, 60480, Note_on_c, 3, 72, 80
5, 60480, Note_on_c, 3, 77, 80
5, 61439, Note_on_c, 3, 72, 0
5, 61439, Note_on_c, 3, 77, 0
5, 61440, Note_on_c, 3, 74, 80
5, 61440, Note_on_c, 3, 79, 80
5, 62399, Note_on_c, 3, 74, 0
5, 62399, Note_on_c, 3, 79, 0
5, 62400, Note_on_c, 3, 69, 80
5, 62400, Note_on_c, 3, 74, 80
5, 63359, Note_on_c, 3, 69, 0
5, 63359, Note_on_c, 3, 74, 0
5, 68160, Note_on_c, 3, 72, 80
5, 68160, Note_on_c, 3, 77, 80
5, 69119, Note_on_c, 3, 72, 0
5, 69119, Note_on_c, 3, 77, 0
5, 69120, Note_on_c, 3, 74, 80
5, 69120, Note_on_c, 3, 79, 80
5, 70079, Note_on_c, 3, 74, 0
5, 70079, Note_on_c, 3, 79, 0
5, 70080, Note_on_c, 3, 69, 80
5, 70080, Note_on_c, 3, 74, 80
5, 71039, Note_on_c, 3, 69, 0
5, 71039, Note_on_c, 3, 74, 0
5, 72000, Note_on_c, 3, 65, 80
5, 72030, Note_on_c, 3, 69, 80
5, 72060, Note_on_c, 3, 72, 80
5, 72090, Note_on_c, 3, 77, 80
5, 72959, Note_on_c, 3, 65, 0
5, 72959, Note_on_c, 3, 69, 0
5, 72959, Note_on_c, 3, 72, 0
5, 72959, Note_on_c, 3, 77, 0
5, 72960, Note_on_c, 3, 67, 80
5, 72960, Note_on_c, 3, 72, 80
5, 72960, Note_on_c, 3, 76, 80
5, 73919, Note_on_c, 3, 67, 0
5, 73919, Note_on_c, 3, 72, 0
5, 73919, Note_on_c, 3, 76, 0
5, 73920, Note_on_c, 3, 71, 80
5, 73920, Note_on_c, 3, 76, 80
5, 74879, Note_on_c, 3, 71, 0
5, 74879, Note_on_c, 3, 76, 0
5, 74880, Note_on_c, 3, 69, 80
5, 74880, Note_on_c, 3, 72, 80
5, 74880, Note_on_c, 3, 76, 80
5, 75839, Note_on_c, 3, 69, 0
5, 75839, Note_on_c, 3, 72, 0
5, 75839, Note_on_c, 3, 76, 0
5, 75840, Note_on_c, 3, 65, 80
5, 75870, Note_on_c, 3, 69, 80
5, 75900, Note_on_c, 3, 72, 80
5, 75930, Note_on_c, 3, 77, 80
5, 76799, Note_on_c, 3, 65, 0
5, 76799, Note_on_c, 3, 69, 0
5, 76799, Note_on_c, 3, 72, 0
5, 76799, Note_on_c, 3, 77, 0
5, 76800, Note_on_c, 3, 67, 80
5, 76800, Note_on_c, 3, 72, 80
5, 76800, Note_on_c, 3, 76, 80
5, 77759, Note_on_c, 3, 67, 0
5, 77759, Note_on_c, 3, 72, 0
5, 77759, Note_on_c, 3, 76, 0
5, 77760, Note_on_c, 3, 71, 80
5, 77760, Note_on_c, 3, 76, 80
5, 78719, Note_on_c, 3, 71, 0
5, 78719, Note_on_c, 3, 76, 0
5, 78720, Note_on_c, 3, 69, 80
5, 78720, Note_on_c, 3, 72, 80
5, 78720, Note_on_c, 3, 76, 80
5, 79679, Note_on_c, 3, 69, 0
5, 79679, Note_on_c, 3, 72, 0
5, 79679, Note_on_c, 3, 76, 0
5, 79680, Note_on_c, 3, 65, 80
5, 79710, Note_on_c, 3, 69, 80
5, 79740, Note_on_c, 3, 72, 80
5, 79770, Note_on_c, 3, 77, 80
5, 80639, Note_on_c, 3, 65, 0
5, 80639, Note_on_c, 3, 69, 0
5, 80639, Note_on_c, 3, 72, 0
5, 80639, Note_on_c, 3, 77, 0
5, 80640, Note_on_c, 3, 67, 80
5, 80640, Note_on_c, 3, 72, 80
5, 80640, Note_on_c, 3, 76, 80
5, 81599, Note_on_c, 3, 67, 0
5, 81599, Note_on_c, 3, 72, 0
5, 81599, Note_on_c, 3, 76, 0
5, 81600, Note_on_c, 3, 71, 80
5, 81600, Note_on_c, 3, 76, 80
5, 82559, Note_on_c, 3, 71, 0
5, 82559, Note_on_c, 3, 76, 0
5, 82560, Note_on_c, 3, 69, 80
5, 82560, Note_on_c, 3, 72, 80
5, 82560, Note_on_c, 3, 76, 80
5, 83519, Note_on_c, 3, 69, 0
5, 83519, Note_on_c, 3, 72, 0
5, 83519, Note_on_c, 3, 76, 0
5, 83520, Note_on_c, 3, 65, 80
5, 83550, Note_on_c, 3, 69, 80
5, 83580, Note_on_c, 3, 72, 80
5, 83610, Note_on_c, 3, 77, 80
5, 84479, Note_on_c, 3, 65, 0
5, 84479, Note_on_c, 3, 69, 0
5, 84479, Note_on_c, 3, 72, 0
5, 84479, Note_on_c, 3, 77, 0
5, 84480, Note_on_c, 3, 67, 80
5, 84480, Note_on_c, 3, 72, 80
5, 84480, Note_on_c, 3, 76, 80
5, 85439, Note_on_c, 3, 67, 0
5, 85439, Note_on_c, 3, 72, 0
5, 85439, Note_on_c, 3, 76, 0
5, 85440, Note_on_c, 3, 71, 80
5, 85440, Note_on_c, 3, 76, 80
5, 86399, Note_on_c, 3, 71, 0
5, 86399, Note_on_c, 3, 76, 0
5, 86400, Note_on_c, 3, 69, 80
5, 86400, Note_on_c, 3, 72, 80
5, 86400, Note_on_c, 3, 76, 80
5, 87359, Note_on_c, 3, 69, 0
5, 87359, Note_on_c, 3, 72, 0
5, 87359, Note_on_c, 3, 76, 0
5, 102240, Note_on_c, 3, 67, 80
5, 102240, Note_on_c, 3, 72, 80
5, 103199, Note_on_c, 3, 67, 0
5, 103199, Note_on_c, 3, 72, 0
5, 103200, Note_on_c, 3, 69, 80
5, 103200, Note_on_c, 3, 74, 80
5, 104159, Note_on_c, 3, 69, 0
5, 104159, Note_on_c, 3, 74, 0
5, 104160, Note_on_c, 3, 64, 80
5, 104160, Note_on_c, 3, 69, 80
5, 105119, Note_on_c, 3, 64, 0
5, 105119, Note_on_c, 3, 69, 0
5, 109920, Note_on_c, 3, 67, 80
5, 109920, Note_on_c, 3, 72, 80
5, 110879, Note_on_c, 3, 67, 0
5, 110879, Note_on_c, 3, 72, 0
5, 110880, Note_on_c, 3, 69, 80
5, 110880, Note_on_c, 3, 74, 80
5, 111839, Note_on_c, 3, 69, 0
5, 111839, Note_on_c, 3, 74, 0
5, 111840, Note_on_c, 3, 64, 80
5, 111840, Note_on_c, 3, 69, 80
5, 112799, Note_on_c, 3, 64, 0
5, 112799, Note_on_c, 3, 69, 0
5, 112800, End_track
0, 0, End_of_file
