0, 0, Header, 1, 3, 480
1, 0, Start_track
1, 0, Title_t, "Electric Piano, Voice\000"
1, 0, Time_signature, 4, 2, 24, 8
1, 0, Key_signature, 0, "major"
1, 0, Tempo, 576923
1, 0, Control_c, 0, 121, 0
1, 0, Program_c, 0, 4
1, 0, Control_c, 0, 7, 100
1, 0, Control_c, 0, 10, 64
1, 0, Control_c, 0, 91, 0
1, 0, Control_c, 0, 93, 0
1, 0, MIDI_port, 0
1, 14400, Note_on_c, 0, 76, 80
1, 14719, Note_on_c, 0, 76, 0
1, 14720, Note_on_c, 0, 77, 80
1, 15039, Note_on_c, 0, 77, 0
1, 15040, Note_on_c, 0, 79, 80
1, 15359, Note_on_c, 0, 79, 0
1, 15360, Note_on_c, 0, 76, 80
1, 15839, Note_on_c, 0, 76, 0
1, 15840, Note_on_c, 0, 74, 80
1, 16319, Note_on_c, 0, 74, 0
1, 16560, Note_on_c, 0, 76, 80
1, 16799, Note_on_c, 0, 76, 0
1, 16800, Note_on_c, 0, 74, 80
1, 17039, Note_on_c, 0, 74, 0
1, 17040, Note_on_c, 0, 76, 80
1, 18239, Note_on_c, 0, 76, 0
1, 18480, Note_on_c, 0, 74, 80
1, 18719, Note_on_c, 0, 74, 0
1, 18720, Note_on_c, 0, 74, 80
1, 18959, Note_on_c, 0, 74, 0
1, 18960, Note_on_c, 0, 79, 80
1, 19199, Note_on_c, 0, 79, 0
1, 19200, Note_on_c, 0, 74, 80
1, 19679, Note_on_c, 0, 74, 0
1, 19920, Note_on_c, 0, 72, 80
1, 20159, Note_on_c, 0, 72, 0
1, 20160, Note_on_c, 0, 74, 80
1, 20639, Note_on_c, 0, 74, 0
1, 20640, Note_on_c, 0, 72, 80
1, 20879, Note_on_c, 0, 72, 0
1, 20880, Note_on_c, 0, 74, 80
1, 22079, Note_on_c, 0, 74, 0
1, 22320, Note_on_c, 0, 72, 80
1, 22559, Note_on_c, 0, 72, 0
1, 22560, Note_on_c, 0, 72, 80
1, 22799, Note_on_c, 0, 72, 0
1, 22800, Note_on_c, 0, 77, 80
1, 23039, Note_on_c, 0, 77, 0
1, 23040, Note_on_c, 0, 72, 80
1, 23999, Note_on_c, 0, 72, 0
1, 24240, Note_on_c, 0, 69, 80
1, 24479, Note_on_c, 0, 69, 0
1, 24480, Note_on_c, 0, 72, 80
1, 24719, Note_on_c, 0, 72, 0
1, 24720, Note_on_c, 0, 69, 80
1, 24959, Note_on_c, 0, 69, 0
1, 24960, Note_on_c, 0, 71, 80
1, 25919, Note_on_c, 0, 71, 0
1, 25920, Note_on_c, 0, 76, 80
1, 26239, Note_on_c, 0, 76, 0
1, 26240, Note_on_c, 0, 74, 80
1, 26559, Note_on_c, 0, 74, 0
1, 26560, Note_on_c, 0, 72, 80
1, 26879, Note_on_c, 0, 72, 0
1, 26880, Note_on_c, 0, 69, 80
1, 28799, Note_on_c, 0, 69, 0
1, 29640, Note_on_c, 0, 69, 80
1, 29699, Note_on_c, 0, 69, 0
1, 29700, Note_on_c, 0, 72, 80
1, 29759, Note_on_c, 0, 72, 0
1, 29760, Note_on_c, 0, 76, 80
1, 30079, Note_on_c, 0, 76, 0
1, 30080, Note_on_c, 0, 77, 80
1, 30399, Note_on_c, 0, 77, 0
1, 30400, Note_on_c, 0, 79, 80
1, 30719, Note_on_c, 0, 79, 0
1, 30720, Note_on_c, 0, 76, 80
1, 31679, Note_on_c, 0, 76, 0
1, 31920, Note_on_c, 0, 74, 80
1, 32159, Note_on_c, 0, 74, 0
1, 32160, Note_on_c, 0, 76, 80
1, 32399, Note_on_c, 0, 76, 0
1, 32400, Note_on_c, 0, 74, 80
1, 32519, Note_on_c, 0, 74, 0
1, 32520, Note_on_c, 0, 76, 80
1, 33599, Note_on_c, 0, 76, 0
1, 33840, Note_on_c, 0, 74, 80
1, 34079, Note_on_c, 0, 74, 0
1, 34080, Note_on_c, 0, 74, 80
1, 34319, Note_on_c, 0, 74, 0
1, 34320, Note_on_c, 0, 79, 80
1, 34439, Note_on_c, 0, 79, 0
1, 34440, Note_on_c, 0, 67, 80
1, 34499, Note_on_c, 0, 67, 0
1, 34500, Note_on_c, 0, 71, 80
1, 34559, Note_on_c, 0, 71, 0
1, 34560, Note_on_c, 0, 74, 80
1, 35039, Note_on_c, 0, 74, 0
1, 35040, Note_on_c, 0, 72, 80
1, 35519, Note_on_c, 0, 72, 0
1, 35760, Note_on_c, 0, 74, 80
1, 36239, Note_on_c, 0, 74, 0
1, 36240, Note_on_c, 0, 72, 80
1, 36479, Note_on_c, 0, 72, 0
1, 36480, Note_on_c, 0, 74, 80
1, 37439, Note_on_c, 0, 74, 0
1, 37680, Note_on_c, 0, 72, 80
1, 37919, Note_on_c, 0, 72, 0
1, 37920, Note_on_c, 0, 72, 80
1, 38159, Note_on_c, 0, 72, 0
1, 38160, Note_on_c, 0, 77, 80
1, 38219, Note_on_c, 0, 77, 0
1, 38280, Note_on_c, 0, 65, 80
1, 38339, Note_on_c, 0, 65, 0
1, 38340, Note_on_c, 0, 69, 80
1, 38399, Note_on_c, 0, 69, 0
1, 38400, Note_on_c, 0, 72, 80
1, 39359, Note_on_c, 0, 72, 0
1, 39600, Note_on_c, 0, 69, 80
1, 39839, Note_on_c, 0, 69, 0
1, 39840, Note_on_c, 0, 72, 80
1, 40079, Note_on_c, 0, 72, 0
1, 40080, Note_on_c, 0, 69, 80
1, 40319, Note_on_c, 0, 69, 0
1, 40320, Note_on_c, 0, 71, 80
1, 40559, Note_on_c, 0, 71, 0
1, 41160, Note_on_c, 0, 67, 80
1, 41219, Note_on_c, 0, 67, 0
1, 41220, Note_on_c, 0, 71, 80
1, 41279, Note_on_c, 0, 71, 0
1, 41280, Note_on_c, 0, 76, 80
1, 41599, Note_on_c, 0, 76, 0
1, 41600, Note_on_c, 0, 74, 80
1, 41919, Note_on_c, 0, 74, 0
1, 41920, Note_on_c, 0, 76, 80
1, 42239, Note_on_c, 0, 76, 0
1, 42240, Note_on_c, 0, 74, 80
1, 42719, Note_on_c, 0, 74, 0
1, 45120, Note_on_c, 0, 72, 80
1, 45599, Note_on_c, 0, 72, 0
1, 45600, Note_on_c, 0, 74, 80
1, 45839, Note_on_c, 0, 74, 0
1, 45840, Note_on_c, 0, 72, 80
1, 45959, Note_on_c, 0, 72, 0
1, 46020, Note_on_c, 0, 77, 80
1, 46079, Note_on_c, 0, 77, 0
1, 46080, Note_on_c, 0, 81, 80
1, 46319, Note_on_c, 0, 81, 0
1, 46800, Note_on_c, 0, 77, 80
1, 46800, Note_on_c, 0, 81, 80
1, 47039, Note_on_c, 0, 77, 0
1, 47039, Note_on_c, 0, 81, 0
1, 47040, Note_on_c, 0, 77, 80
1, 47040, Note_on_c, 0, 81, 80
1, 47519, Note_on_c, 0, 77, 0
1, 47519, Note_on_c, 0, 81, 0
1, 47520, Note_on_c, 0, 77, 80
1, 47520, Note_on_c, 0, 81, 80
1, 47759, Note_on_c, 0, 77, 0
1, 47759, Note_on_c, 0, 81, 0
1, 47760, Note_on_c, 0, 72, 80
1, 47760, Note_on_c, 0, 76, 80
1, 47999, Note_on_c, 0, 72, 0
1, 48959, Note_on_c, 0, 76, 0
1, 49200, Note_on_c, 0, 69, 80
1, 49200, Note_on_c, 0, 72, 80
1, 49439, Note_on_c, 0, 69, 0
1, 49439, Note_on_c, 0, 72, 0
1, 49440, Note_on_c, 0, 71, 80
1, 49440, Note_on_c, 0, 74, 80
1, 49679, Note_on_c, 0, 71, 0
1, 49679, Note_on_c, 0, 74, 0
1, 49680, Note_on_c, 0, 69, 80
1, 49680, Note_on_c, 0, 72, 80
1, 49919, Note_on_c, 0, 69, 0
1, 49919, Note_on_c, 0, 72, 0
1, 49920, Note_on_c, 0, 76, 80
1, 49920, Note_on_c, 0, 79, 80
1, 50879, Note_on_c, 0, 76, 0
1, 50879, Note_on_c, 0, 79, 0
1, 50880, Note_on_c, 0, 76, 80
1, 50880, Note_on_c, 0, 79, 80
1, 51119, Note_on_c, 0, 76, 0
1, 51119, Note_on_c, 0, 79, 0
1, 51120, Note_on_c, 0, 74, 80
1, 51120, Note_on_c, 0, 77, 80
1, 51359, Note_on_c, 0, 74, 0
1, 51359, Note_on_c, 0, 77, 0
1, 51360, Note_on_c, 0, 76, 80
1, 51360, Note_on_c, 0, 79, 80
1, 51599, Note_on_c, 0, 76, 0
1, 51599, Note_on_c, 0, 79, 0
1, 51600, Note_on_c, 0, 72, 80
1, 51600, Note_on_c, 0, 76, 80
1, 51839, Note_on_c, 0, 72, 0
1, 52799, Note_on_c, 0, 76, 0
1, 53040, Note_on_c, 0, 64, 80
1, 53040, Note_on_c, 0, 67, 80
1, 53279, Note_on_c, 0, 64, 0
1, 53279, Note_on_c, 0, 67, 0
1, 53280, Note_on_c, 0, 65, 80
1, 53280, Note_on_c, 0, 69, 80
1, 53519, Note_on_c, 0, 65, 0
1, 53519, Note_on_c, 0, 69, 0
1, 53520, Note_on_c, 0, 69, 80
1, 53520, Note_on_c, 0, 72, 80
1, 53759, Note_on_c, 0, 69, 0
1, 53759, Note_on_c, 0, 72, 0
1, 53760, Note_on_c, 0, 72, 80
1, 53760, Note_on_c, 0, 76, 80
1, 54719, Note_on_c, 0, 72, 0
1, 54719, Note_on_c, 0, 76, 0
1, 54960, Note_on_c, 0, 72, 80
1, 54960, Note_on_c, 0, 76, 80
1, 55199, Note_on_c, 0, 72, 0
1, 55199, Note_on_c, 0, 76, 0
1, 55200, Note_on_c, 0, 72, 80
1, 55200, Note_on_c, 0, 76, 80
1, 55439, Note_on_c, 0, 72, 0
1, 55439, Note_on_c, 0, 76, 0
1, 55440, Note_on_c, 0, 71, 80
1, 55440, Note_on_c, 0, 74, 80
1, 55679, Note_on_c, 0, 71, 0
1, 55679, Note_on_c, 0, 74, 0
1, 55680, Note_on_c, 0, 72, 80
1, 55680, Note_on_c, 0, 76, 80
1, 56639, Note_on_c, 0, 72, 0
1, 56639, Note_on_c, 0, 76, 0
1, 56640, Note_on_c, 0, 72, 80
1, 56640, Note_on_c, 0, 76, 80
1, 56959, Note_on_c, 0, 72, 0
1, 56959, Note_on_c, 0, 76, 0
1, 56960, Note_on_c, 0, 77, 80
1, 56960, Note_on_c, 0, 81, 80
1, 57279, Note_on_c, 0, 77, 0
1, 57279, Note_on_c, 0, 81, 0
1, 57280, Note_on_c, 0, 72, 80
1, 57280, Note_on_c, 0, 76, 80
1, 57599, Note_on_c, 0, 72, 0
1, 57599, Note_on_c, 0, 76, 0
1, 57600, Note_on_c, 0, 71, 80
1, 57600, Note_on_c, 0, 74, 80
1, 58559, Note_on_c, 0, 71, 0
1, 58559, Note_on_c, 0, 74, 0
1, 59520, Tempo, 869565
1, 60479, Tempo, 576923
1, 60480, Note_on_c, 0, 76, 80
1, 60799, Note_on_c, 0, 76, 0
1, 60800, Note_on_c, 0, 77, 80
1, 61119, Note_on_c, 0, 77, 0
1, 61120, Note_on_c, 0, 79, 80
1, 61439, Note_on_c, 0, 79, 0
1, 61440, Note_on_c, 0, 76, 80
1, 61919, Note_on_c, 0, 76, 0
1, 61920, Note_on_c, 0, 74, 80
1, 62399, Note_on_c, 0, 74, 0
1, 62640, Note_on_c, 0, 76, 80
1, 62879, Note_on_c, 0, 76, 0
1, 62880, Note_on_c, 0, 74, 80
1, 63119, Note_on_c, 0, 74, 0
1, 63120, Note_on_c, 0, 76, 80
1, 64319, Note_on_c, 0, 76, 0
1, 64560, Note_on_c, 0, 74, 80
1, 64799, Note_on_c, 0, 74, 0
1, 64800, Note_on_c, 0, 74, 80
1, 65039, Note_on_c, 0, 74, 0
1, 65040, Note_on_c, 0, 79, 80
1, 65279, Note_on_c, 0, 79, 0
1, 65280, Note_on_c, 0, 74, 80
1, 65599, Note_on_c, 0, 74, 0
1, 65600, Note_on_c, 0, 74, 80
1, 66239, Note_on_c, 0, 74, 0
1, 66480, Note_on_c, 0, 72, 80
1, 66719, Note_on_c, 0, 72, 0
1, 66720, Note_on_c, 0, 74, 80
1, 66959, Note_on_c, 0, 74, 0
1, 66960, Note_on_c, 0, 72, 80
1, 67199, Note_on_c, 0, 72, 0
1, 67200, Note_on_c, 0, 74, 80
1, 68159, Note_on_c, 0, 74, 0
1, 68400, Note_on_c, 0, 72, 80
1, 68639, Note_on_c, 0, 72, 0
1, 68640, Note_on_c, 0, 72, 80
1, 68879, Note_on_c, 0, 72, 0
1, 68880, Note_on_c, 0, 77, 80
1, 69119, Note_on_c, 0, 77, 0
1, 69120, Note_on_c, 0, 72, 80
1, 70079, Note_on_c, 0, 72, 0
1, 70080, Note_on_c, 0, 69, 80
1, 70399, Note_on_c, 0, 69, 0
1, 70400, Note_on_c, 0, 72, 80
1, 70719, Note_on_c, 0, 72, 0
1, 70720, Note_on_c, 0, 76, 80
1, 71159, Note_on_c, 0, 76, 0
1, 71160, Note_on_c, 0, 81, 80
1, 71999, Note_on_c, 0, 81, 0
1, 72000, Note_on_c, 0, 71, 80
1, 72319, Note_on_c, 0, 71, 0
1, 72320, Note_on_c, 0, 71, 80
1, 72639, Note_on_c, 0, 71, 0
1, 72640, Note_on_c, 0, 71, 80
1, 72959, Note_on_c, 0, 71, 0
1, 72960, Note_on_c, 0, 72, 80
1, 74879, Note_on_c, 0, 72, 0
1, 75840, Note_on_c, 0, 69, 80
1, 76159, Note_on_c, 0, 69, 0
1, 76160, Note_on_c, 0, 72, 80
1, 76479, Note_on_c, 0, 72, 0
1, 76480, Note_on_c, 0, 76, 80
1, 76799, Note_on_c, 0, 76, 0
1, 76800, Note_on_c, 0, 81, 80
1, 78719, Note_on_c, 0, 81, 0
1, 79680, Note_on_c, 0, 71, 80
1, 79999, Note_on_c, 0, 71, 0
1, 80000, Note_on_c, 0, 71, 80
1, 80319, Note_on_c, 0, 71, 0
1, 80320, Note_on_c, 0, 71, 80
1, 80639, Note_on_c, 0, 71, 0
1, 80640, Tempo, 1714286
1, 80640, Note_on_c, 0, 72, 80
1, 82559, Tempo, 576923
1, 82559, Note_on_c, 0, 72, 0
1, 82560, End_track
2, 0, Start_track
2, 0, Title_t, "Piano, Piano\000"
2, 0, Key_signature, 0, "major"
2, 0, Control_c, 1, 121, 0
2, 0, Program_c, 1, 0
2, 0, Control_c, 1, 7, 100
2, 0, Control_c, 1, 10, 64
2, 0, Control_c, 1, 91, 0
2, 0, Control_c, 1, 93, 0
2, 0, MIDI_port, 0
2, 0, Note_on_c, 1, 53, 80
2, 0, Note_on_c, 1, 57, 80
2, 0, Note_on_c, 1, 60, 80
2, 0, Note_on_c, 1, 64, 80
2, 2, Control_c, 1, 64, 127
2, 455, Note_on_c, 1, 53, 0
2, 455, Note_on_c, 1, 57, 0
2, 455, Note_on_c, 1, 60, 0
2, 455, Note_on_c, 1, 64, 0
2, 480, Note_on_c, 1, 53, 80
2, 480, Note_on_c, 1, 57, 80
2, 480, Note_on_c, 1, 60, 80
2, 480, Note_on_c, 1, 64, 80
2, 935, Note_on_c, 1, 53, 0
2, 935, Note_on_c, 1, 57, 0
2, 935, Note_on_c, 1, 60, 0
2, 935, Note_on_c, 1, 64, 0
2, 1200, Note_on_c, 1, 53, 80
2, 1200, Note_on_c, 1, 57, 80
2, 1200, Note_on_c, 1, 60, 80
2, 1200, Note_on_c, 1, 64, 80
2, 1655, Note_on_c, 1, 53, 0
2, 1655, Note_on_c, 1, 57, 0
2, 1655, Note_on_c, 1, 60, 0
2, 1655, Note_on_c, 1, 64, 0
2, 1680, Note_on_c, 1, 55, 80
2, 1680, Note_on_c, 1, 59, 80
2, 1680, Note_on_c, 1, 62, 80
2, 1680, Note_on_c, 1, 64, 80
2, 2135, Note_on_c, 1, 55, 0
2, 2135, Note_on_c, 1, 59, 0
2, 2135, Note_on_c, 1, 62, 0
2, 2135, Note_on_c, 1, 64, 0
2, 2160, Note_on_c, 1, 55, 80
2, 2160, Note_on_c, 1, 59, 80
2, 2160, Note_on_c, 1, 62, 80
2, 2160, Note_on_c, 1, 64, 80
2, 2387, Note_on_c, 1, 55, 0
2, 2387, Note_on_c, 1, 59, 0
2, 2387, Note_on_c, 1, 62, 0
2, 2387, Note_on_c, 1, 64, 0
2, 2880, Note_on_c, 1, 53, 80
2, 2880, Note_on_c, 1, 55, 80
2, 2880, Note_on_c, 1, 59, 80
2, 2880, Note_on_c, 1, 62, 80
2, 3335, Note_on_c, 1, 53, 0
2, 3335, Note_on_c, 1, 55, 0
2, 3335, Note_on_c, 1, 59, 0
2, 3335, Note_on_c, 1, 62, 0
2, 3360, Note_on_c, 1, 53, 80
2, 3360, Note_on_c, 1, 55, 80
2, 3360, Note_on_c, 1, 59, 80
2, 3360, Note_on_c, 1, 62, 80
2, 3815, Note_on_c, 1, 53, 0
2, 3815, Note_on_c, 1, 55, 0
2, 3815, Note_on_c, 1, 59, 0
2, 3815, Note_on_c, 1, 62, 0
2, 3840, Note_on_c, 1, 52, 80
2, 3840, Note_on_c, 1, 55, 80
2, 3840, Note_on_c, 1, 59, 80
2, 3840, Note_on_c, 1, 62, 80
2, 4295, Note_on_c, 1, 52, 0
2, 4295, Note_on_c, 1, 55, 0
2, 4295, Note_on_c, 1, 59, 0
2, 4295, Note_on_c, 1, 62, 0
2, 4320, Note_on_c, 1, 52, 80
2, 4320, Note_on_c, 1, 55, 80
2, 4320, Note_on_c, 1, 59, 80
2, 4320, Note_on_c, 1, 62, 80
2, 4775, Note_on_c, 1, 52, 0
2, 4775, Note_on_c, 1, 55, 0
2, 4775, Note_on_c, 1, 59, 0
2, 4775, Note_on_c, 1, 62, 0
2, 5040, Note_on_c, 1, 52, 80
2, 5040, Note_on_c, 1, 55, 80
2, 5040, Note_on_c, 1, 59, 80
2, 5040, Note_on_c, 1, 62, 80
2, 5495, Note_on_c, 1, 52, 0
2, 5495, Note_on_c, 1, 55, 0
2, 5495, Note_on_c, 1, 59, 0
2, 5495, Note_on_c, 1, 62, 0
2, 5520, Note_on_c, 1, 52, 80
2, 5520, Note_on_c, 1, 55, 80
2, 5520, Note_on_c, 1, 57, 80
2, 5520, Note_on_c, 1, 60, 80
2, 5747, Note_on_c, 1, 52, 0
2, 5747, Note_on_c, 1, 55, 0
2, 5747, Note_on_c, 1, 57, 0
2, 5747, Note_on_c, 1, 60, 0
2, 6000, Note_on_c, 1, 52, 80
2, 6000, Note_on_c, 1, 55, 80
2, 6000, Note_on_c, 1, 57, 80
2, 6000, Note_on_c, 1, 60, 80
2, 6227, Note_on_c, 1, 52, 0
2, 6227, Note_on_c, 1, 55, 0
2, 6227, Note_on_c, 1, 57, 0
2, 6227, Note_on_c, 1, 60, 0
2, 6720, Note_on_c, 1, 52, 80
2, 6720, Note_on_c, 1, 55, 80
2, 6720, Note_on_c, 1, 57, 80
2, 6720, Note_on_c, 1, 60, 80
2, 7175, Note_on_c, 1, 52, 0
2, 7175, Note_on_c, 1, 55, 0
2, 7175, Note_on_c, 1, 57, 0
2, 7175, Note_on_c, 1, 60, 0
2, 7200, Note_on_c, 1, 52, 80
2, 7200, Note_on_c, 1, 55, 80
2, 7200, Note_on_c, 1, 57, 80
2, 7200, Note_on_c, 1, 60, 80
2, 7655, Note_on_c, 1, 52, 0
2, 7655, Note_on_c, 1, 55, 0
2, 7655, Note_on_c, 1, 57, 0
2, 7655, Note_on_c, 1, 60, 0
2, 7680, Note_on_c, 1, 53, 80
2, 7680, Note_on_c, 1, 57, 80
2, 7680, Note_on_c, 1, 60, 80
2, 7680, Note_on_c, 1, 64, 80
2, 8135, Note_on_c, 1, 53, 0
2, 8135, Note_on_c, 1, 57, 0
2, 8135, Note_on_c, 1, 60, 0
2, 8135, Note_on_c, 1, 64, 0
2, 8160, Note_on_c, 1, 53, 80
2, 8160, Note_on_c, 1, 57, 80
2, 8160, Note_on_c, 1, 60, 80
2, 8160, Note_on_c, 1, 64, 80
2, 8615, Note_on_c, 1, 53, 0
2, 8615, Note_on_c, 1, 57, 0
2, 8615, Note_on_c, 1, 60, 0
2, 8615, Note_on_c, 1, 64, 0
2, 8880, Note_on_c, 1, 53, 80
2, 8880, Note_on_c, 1, 57, 80
2, 8880, Note_on_c, 1, 60, 80
2, 8880, Note_on_c, 1, 64, 80
2, 9335, Note_on_c, 1, 53, 0
2, 9335, Note_on_c, 1, 57, 0
2, 9335, Note_on_c, 1, 60, 0
2, 9335, Note_on_c, 1, 64, 0
2, 9360, Note_on_c, 1, 55, 80
2, 9360, Note_on_c, 1, 59, 80
2, 9360, Note_on_c, 1, 62, 80
2, 9360, Note_on_c, 1, 64, 80
2, 9815, Note_on_c, 1, 55, 0
2, 9815, Note_on_c, 1, 59, 0
2, 9815, Note_on_c, 1, 62, 0
2, 9815, Note_on_c, 1, 64, 0
2, 9840, Note_on_c, 1, 55, 80
2, 9840, Note_on_c, 1, 59, 80
2, 9840, Note_on_c, 1, 62, 80
2, 9840, Note_on_c, 1, 64, 80
2, 10067, Note_on_c, 1, 55, 0
2, 10067, Note_on_c, 1, 59, 0
2, 10067, Note_on_c, 1, 62, 0
2, 10067, Note_on_c, 1, 64, 0
2, 10560, Note_on_c, 1, 53, 80
2, 10560, Note_on_c, 1, 55, 80
2, 10560, Note_on_c, 1, 59, 80
2, 10560, Note_on_c, 1, 62, 80
2, 11015, Note_on_c, 1, 53, 0
2, 11015, Note_on_c, 1, 55, 0
2, 11015, Note_on_c, 1, 59, 0
2, 11015, Note_on_c, 1, 62, 0
2, 11040, Note_on_c, 1, 53, 80
2, 11040, Note_on_c, 1, 55, 80
2, 11040, Note_on_c, 1, 59, 80
2, 11040, Note_on_c, 1, 62, 80
2, 11495, Note_on_c, 1, 53, 0
2, 11495, Note_on_c, 1, 55, 0
2, 11495, Note_on_c, 1, 59, 0
2, 11495, Note_on_c, 1, 62, 0
2, 11520, Note_on_c, 1, 52, 80
2, 11520, Note_on_c, 1, 55, 80
2, 11520, Note_on_c, 1, 59, 80
2, 11520, Note_on_c, 1, 62, 80
2, 11975, Note_on_c, 1, 52, 0
2, 11975, Note_on_c, 1, 55, 0
2, 11975, Note_on_c, 1, 59, 0
2, 11975, Note_on_c, 1, 62, 0
2, 12000, Note_on_c, 1, 52, 80
2, 12000, Note_on_c, 1, 55, 80
2, 12000, Note_on_c, 1, 59, 80
2, 12000, Note_on_c, 1, 62, 80
2, 12455, Note_on_c, 1, 52, 0
2, 12455, Note_on_c, 1, 55, 0
2, 12455, Note_on_c, 1, 59, 0
2, 12455, Note_on_c, 1, 62, 0
2, 12720, Note_on_c, 1, 52, 80
2, 12720, Note_on_c, 1, 55, 80
2, 12720, Note_on_c, 1, 59, 80
2, 12720, Note_on_c, 1, 62, 80
2, 13175, Note_on_c, 1, 52, 0
2, 13175, Note_on_c, 1, 55, 0
2, 13175, Note_on_c, 1, 59, 0
2, 13175, Note_on_c, 1, 62, 0
2, 13200, Note_on_c, 1, 52, 80
2, 13200, Note_on_c, 1, 55, 80
2, 13200, Note_on_c, 1, 57, 80
2, 13200, Note_on_c, 1, 60, 80
2, 13427, Note_on_c, 1, 52, 0
2, 13427, Note_on_c, 1, 55, 0
2, 13427, Note_on_c, 1, 57, 0
2, 13427, Note_on_c, 1, 60, 0
2, 13680, Note_on_c, 1, 52, 80
2, 13680, Note_on_c, 1, 55, 80
2, 13680, Note_on_c, 1, 57, 80
2, 13680, Note_on_c, 1, 60, 80
2, 13907, Note_on_c, 1, 52, 0
2, 13907, Note_on_c, 1, 55, 0
2, 13907, Note_on_c, 1, 57, 0
2, 13907, Note_on_c, 1, 60, 0
2, 14400, Note_on_c, 1, 52, 80
2, 14400, Note_on_c, 1, 55, 80
2, 14400, Note_on_c, 1, 57, 80
2, 14400, Note_on_c, 1, 60, 80
2, 14855, Note_on_c, 1, 52, 0
2, 14855, Note_on_c, 1, 55, 0
2, 14855, Note_on_c, 1, 57, 0
2, 14855, Note_on_c, 1, 60, 0
2, 14880, Note_on_c, 1, 52, 80
2, 14880, Note_on_c, 1, 55, 80
2, 14880, Note_on_c, 1, 57, 80
2, 14880, Note_on_c, 1, 60, 80
2, 15335, Note_on_c, 1, 52, 0
2, 15335, Note_on_c, 1, 55, 0
2, 15335, Note_on_c, 1, 57, 0
2, 15335, Note_on_c, 1, 60, 0
2, 15360, Note_on_c, 1, 52, 80
2, 15360, Note_on_c, 1, 53, 80
2, 15360, Note_on_c, 1, 57, 80
2, 15360, Note_on_c, 1, 60, 80
2, 15815, Note_on_c, 1, 52, 0
2, 15815, Note_on_c, 1, 53, 0
2, 15815, Note_on_c, 1, 57, 0
2, 15815, Note_on_c, 1, 60, 0
2, 15840, Note_on_c, 1, 50, 80
2, 15840, Note_on_c, 1, 53, 80
2, 15840, Note_on_c, 1, 57, 80
2, 15840, Note_on_c, 1, 60, 80
2, 16295, Note_on_c, 1, 50, 0
2, 16295, Note_on_c, 1, 53, 0
2, 16295, Note_on_c, 1, 57, 0
2, 16295, Note_on_c, 1, 60, 0
2, 16560, Note_on_c, 1, 50, 80
2, 16560, Note_on_c, 1, 53, 80
2, 16560, Note_on_c, 1, 57, 80
2, 16560, Note_on_c, 1, 60, 80
2, 17015, Note_on_c, 1, 50, 0
2, 17015, Note_on_c, 1, 53, 0
2, 17015, Note_on_c, 1, 57, 0
2, 17015, Note_on_c, 1, 60, 0
2, 17040, Note_on_c, 1, 52, 80
2, 17040, Note_on_c, 1, 55, 80
2, 17040, Note_on_c, 1, 59, 80
2, 17040, Note_on_c, 1, 62, 80
2, 17495, Note_on_c, 1, 52, 0
2, 17495, Note_on_c, 1, 55, 0
2, 17495, Note_on_c, 1, 59, 0
2, 17495, Note_on_c, 1, 62, 0
2, 17520, Note_on_c, 1, 52, 80
2, 17520, Note_on_c, 1, 55, 80
2, 17520, Note_on_c, 1, 59, 80
2, 17520, Note_on_c, 1, 62, 80
2, 17747, Note_on_c, 1, 52, 0
2, 17747, Note_on_c, 1, 55, 0
2, 17747, Note_on_c, 1, 59, 0
2, 17747, Note_on_c, 1, 62, 0
2, 18240, Note_on_c, 1, 50, 80
2, 18240, Note_on_c, 1, 53, 80
2, 18240, Note_on_c, 1, 55, 80
2, 18240, Note_on_c, 1, 59, 80
2, 18695, Note_on_c, 1, 50, 0
2, 18695, Note_on_c, 1, 53, 0
2, 18695, Note_on_c, 1, 55, 0
2, 18695, Note_on_c, 1, 59, 0
2, 18720, Note_on_c, 1, 50, 80
2, 18720, Note_on_c, 1, 53, 80
2, 18720, Note_on_c, 1, 55, 80
2, 18720, Note_on_c, 1, 59, 80
2, 19175, Note_on_c, 1, 50, 0
2, 19175, Note_on_c, 1, 53, 0
2, 19175, Note_on_c, 1, 55, 0
2, 19175, Note_on_c, 1, 59, 0
2, 19200, Note_on_c, 1, 52, 80
2, 19200, Note_on_c, 1, 55, 80
2, 19200, Note_on_c, 1, 59, 80
2, 19655, Note_on_c, 1, 52, 0
2, 19655, Note_on_c, 1, 55, 0
2, 19655, Note_on_c, 1, 59, 0
2, 19680, Note_on_c, 1, 52, 80
2, 19680, Note_on_c, 1, 55, 80
2, 19680, Note_on_c, 1, 59, 80
2, 20135, Note_on_c, 1, 52, 0
2, 20135, Note_on_c, 1, 55, 0
2, 20135, Note_on_c, 1, 59, 0
2, 20400, Note_on_c, 1, 52, 80
2, 20400, Note_on_c, 1, 55, 80
2, 20400, Note_on_c, 1, 59, 80
2, 20855, Note_on_c, 1, 52, 0
2, 20855, Note_on_c, 1, 55, 0
2, 20855, Note_on_c, 1, 59, 0
2, 20880, Note_on_c, 1, 52, 80
2, 20880, Note_on_c, 1, 55, 80
2, 20880, Note_on_c, 1, 57, 80
2, 20880, Note_on_c, 1, 60, 80
2, 21335, Note_on_c, 1, 52, 0
2, 21335, Note_on_c, 1, 55, 0
2, 21335, Note_on_c, 1, 57, 0
2, 21335, Note_on_c, 1, 60, 0
2, 21360, Note_on_c, 1, 52, 80
2, 21360, Note_on_c, 1, 55, 80
2, 21360, Note_on_c, 1, 57, 80
2, 21360, Note_on_c, 1, 60, 80
2, 21587, Note_on_c, 1, 52, 0
2, 21587, Note_on_c, 1, 55, 0
2, 21587, Note_on_c, 1, 57, 0
2, 21587, Note_on_c, 1, 60, 0
2, 22080, Note_on_c, 1, 52, 80
2, 22080, Note_on_c, 1, 55, 80
2, 22080, Note_on_c, 1, 57, 80
2, 22080, Note_on_c, 1, 60, 80
2, 22535, Note_on_c, 1, 52, 0
2, 22535, Note_on_c, 1, 55, 0
2, 22535, Note_on_c, 1, 57, 0
2, 22535, Note_on_c, 1, 60, 0
2, 22560, Note_on_c, 1, 52, 80
2, 22560, Note_on_c, 1, 55, 80
2, 22560, Note_on_c, 1, 57, 80
2, 22560, Note_on_c, 1, 60, 80
2, 23015, Note_on_c, 1, 52, 0
2, 23015, Note_on_c, 1, 55, 0
2, 23015, Note_on_c, 1, 57, 0
2, 23015, Note_on_c, 1, 60, 0
2, 23040, Note_on_c, 1, 52, 80
2, 23040, Note_on_c, 1, 53, 80
2, 23040, Note_on_c, 1, 57, 80
2, 23040, Note_on_c, 1, 60, 80
2, 23495, Note_on_c, 1, 52, 0
2, 23495, Note_on_c, 1, 53, 0
2, 23495, Note_on_c, 1, 57, 0
2, 23495, Note_on_c, 1, 60, 0
2, 23520, Note_on_c, 1, 52, 80
2, 23520, Note_on_c, 1, 53, 80
2, 23520, Note_on_c, 1, 57, 80
2, 23520, Note_on_c, 1, 60, 80
2, 23975, Note_on_c, 1, 52, 0
2, 23975, Note_on_c, 1, 53, 0
2, 23975, Note_on_c, 1, 57, 0
2, 23975, Note_on_c, 1, 60, 0
2, 24240, Note_on_c, 1, 52, 80
2, 24240, Note_on_c, 1, 53, 80
2, 24240, Note_on_c, 1, 57, 80
2, 24240, Note_on_c, 1, 60, 80
2, 24695, Note_on_c, 1, 52, 0
2, 24695, Note_on_c, 1, 53, 0
2, 24695, Note_on_c, 1, 57, 0
2, 24695, Note_on_c, 1, 60, 0
2, 24720, Note_on_c, 1, 52, 80
2, 24720, Note_on_c, 1, 55, 80
2, 24720, Note_on_c, 1, 59, 80
2, 25175, Note_on_c, 1, 52, 0
2, 25175, Note_on_c, 1, 55, 0
2, 25175, Note_on_c, 1, 59, 0
2, 25200, Note_on_c, 1, 52, 80
2, 25200, Note_on_c, 1, 55, 80
2, 25200, Note_on_c, 1, 59, 80
2, 25427, Note_on_c, 1, 52, 0
2, 25427, Note_on_c, 1, 55, 0
2, 25427, Note_on_c, 1, 59, 0
2, 25920, Note_on_c, 1, 52, 80
2, 25920, Note_on_c, 1, 53, 80
2, 25920, Note_on_c, 1, 55, 80
2, 25920, Note_on_c, 1, 59, 80
2, 26375, Note_on_c, 1, 52, 0
2, 26375, Note_on_c, 1, 53, 0
2, 26375, Note_on_c, 1, 55, 0
2, 26375, Note_on_c, 1, 59, 0
2, 26400, Note_on_c, 1, 50, 80
2, 26400, Note_on_c, 1, 53, 80
2, 26400, Note_on_c, 1, 55, 80
2, 26400, Note_on_c, 1, 59, 80
2, 26855, Note_on_c, 1, 50, 0
2, 26855, Note_on_c, 1, 53, 0
2, 26855, Note_on_c, 1, 55, 0
2, 26855, Note_on_c, 1, 59, 0
2, 26880, Note_on_c, 1, 52, 80
2, 26880, Note_on_c, 1, 55, 80
2, 26880, Note_on_c, 1, 57, 80
2, 27335, Note_on_c, 1, 52, 0
2, 27335, Note_on_c, 1, 55, 0
2, 27335, Note_on_c, 1, 57, 0
2, 27360, Note_on_c, 1, 52, 80
2, 27360, Note_on_c, 1, 55, 80
2, 27360, Note_on_c, 1, 57, 80
2, 27815, Note_on_c, 1, 52, 0
2, 27815, Note_on_c, 1, 55, 0
2, 27815, Note_on_c, 1, 57, 0
2, 28080, Note_on_c, 1, 52, 80
2, 28080, Note_on_c, 1, 55, 80
2, 28080, Note_on_c, 1, 57, 80
2, 28080, Note_on_c, 1, 60, 80
2, 28535, Note_on_c, 1, 52, 0
2, 28535, Note_on_c, 1, 55, 0
2, 28535, Note_on_c, 1, 57, 0
2, 28535, Note_on_c, 1, 60, 0
2, 28560, Note_on_c, 1, 52, 80
2, 28560, Note_on_c, 1, 55, 80
2, 28560, Note_on_c, 1, 59, 80
2, 29015, Note_on_c, 1, 52, 0
2, 29015, Note_on_c, 1, 55, 0
2, 29015, Note_on_c, 1, 59, 0
2, 29040, Note_on_c, 1, 52, 80
2, 29040, Note_on_c, 1, 55, 80
2, 29040, Note_on_c, 1, 59, 80
2, 29267, Note_on_c, 1, 52, 0
2, 29267, Note_on_c, 1, 55, 0
2, 29267, Note_on_c, 1, 59, 0
2, 29760, Note_on_c, 1, 53, 80
2, 29760, Note_on_c, 1, 55, 80
2, 29760, Note_on_c, 1, 57, 80
2, 29760, Note_on_c, 1, 60, 80
2, 30215, Note_on_c, 1, 53, 0
2, 30215, Note_on_c, 1, 55, 0
2, 30215, Note_on_c, 1, 57, 0
2, 30215, Note_on_c, 1, 60, 0
2, 30240, Note_on_c, 1, 52, 80
2, 30240, Note_on_c, 1, 55, 80
2, 30240, Note_on_c, 1, 57, 80
2, 30240, Note_on_c, 1, 60, 80
2, 30695, Note_on_c, 1, 52, 0
2, 30695, Note_on_c, 1, 55, 0
2, 30695, Note_on_c, 1, 57, 0
2, 30695, Note_on_c, 1, 60, 0
2, 30720, Note_on_c, 1, 52, 80
2, 30720, Note_on_c, 1, 53, 80
2, 30720, Note_on_c, 1, 57, 80
2, 30720, Note_on_c, 1, 60, 80
2, 31175, Note_on_c, 1, 52, 0
2, 31175, Note_on_c, 1, 53, 0
2, 31175, Note_on_c, 1, 57, 0
2, 31175, Note_on_c, 1, 60, 0
2, 31200, Note_on_c, 1, 50, 80
2, 31200, Note_on_c, 1, 53, 80
2, 31200, Note_on_c, 1, 57, 80
2, 31200, Note_on_c, 1, 60, 80
2, 31655, Note_on_c, 1, 50, 0
2, 31655, Note_on_c, 1, 53, 0
2, 31655, Note_on_c, 1, 57, 0
2, 31655, Note_on_c, 1, 60, 0
2, 31920, Note_on_c, 1, 50, 80
2, 31920, Note_on_c, 1, 53, 80
2, 31920, Note_on_c, 1, 57, 80
2, 31920, Note_on_c, 1, 60, 80
2, 32375, Note_on_c, 1, 50, 0
2, 32375, Note_on_c, 1, 53, 0
2, 32375, Note_on_c, 1, 57, 0
2, 32375, Note_on_c, 1, 60, 0
2, 32400, Note_on_c, 1, 52, 80
2, 32400, Note_on_c, 1, 55, 80
2, 32400, Note_on_c, 1, 59, 80
2, 32400, Note_on_c, 1, 62, 80
2, 32855, Note_on_c, 1, 52, 0
2, 32855, Note_on_c, 1, 55, 0
2, 32855, Note_on_c, 1, 59, 0
2, 32855, Note_on_c, 1, 62, 0
2, 32880, Note_on_c, 1, 52, 80
2, 32880, Note_on_c, 1, 55, 80
2, 32880, Note_on_c, 1, 59, 80
2, 32880, Note_on_c, 1, 62, 80
2, 33107, Note_on_c, 1, 52, 0
2, 33107, Note_on_c, 1, 55, 0
2, 33107, Note_on_c, 1, 59, 0
2, 33107, Note_on_c, 1, 62, 0
2, 33600, Note_on_c, 1, 50, 80
2, 33600, Note_on_c, 1, 53, 80
2, 33600, Note_on_c, 1, 55, 80
2, 33600, Note_on_c, 1, 59, 80
2, 34055, Note_on_c, 1, 50, 0
2, 34055, Note_on_c, 1, 53, 0
2, 34055, Note_on_c, 1, 55, 0
2, 34055, Note_on_c, 1, 59, 0
2, 34080, Note_on_c, 1, 50, 80
2, 34080, Note_on_c, 1, 53, 80
2, 34080, Note_on_c, 1, 55, 80
2, 34080, Note_on_c, 1, 59, 80
2, 34535, Note_on_c, 1, 50, 0
2, 34535, Note_on_c, 1, 53, 0
2, 34535, Note_on_c, 1, 55, 0
2, 34535, Note_on_c, 1, 59, 0
2, 34560, Note_on_c, 1, 52, 80
2, 34560, Note_on_c, 1, 55, 80
2, 34560, Note_on_c, 1, 59, 80
2, 35015, Note_on_c, 1, 52, 0
2, 35015, Note_on_c, 1, 55, 0
2, 35015, Note_on_c, 1, 59, 0
2, 35040, Note_on_c, 1, 52, 80
2, 35040, Note_on_c, 1, 55, 80
2, 35040, Note_on_c, 1, 59, 80
2, 35495, Note_on_c, 1, 52, 0
2, 35495, Note_on_c, 1, 55, 0
2, 35495, Note_on_c, 1, 59, 0
2, 35760, Note_on_c, 1, 52, 80
2, 35760, Note_on_c, 1, 55, 80
2, 35760, Note_on_c, 1, 59, 80
2, 36215, Note_on_c, 1, 52, 0
2, 36215, Note_on_c, 1, 55, 0
2, 36215, Note_on_c, 1, 59, 0
2, 36240, Note_on_c, 1, 52, 80
2, 36240, Note_on_c, 1, 55, 80
2, 36240, Note_on_c, 1, 57, 80
2, 36240, Note_on_c, 1, 60, 80
2, 36695, Note_on_c, 1, 52, 0
2, 36695, Note_on_c, 1, 55, 0
2, 36695, Note_on_c, 1, 57, 0
2, 36695, Note_on_c, 1, 60, 0
2, 36720, Note_on_c, 1, 52, 80
2, 36720, Note_on_c, 1, 55, 80
2, 36720, Note_on_c, 1, 57, 80
2, 36720, Note_on_c, 1, 60, 80
2, 36947, Note_on_c, 1, 52, 0
2, 36947, Note_on_c, 1, 55, 0
2, 36947, Note_on_c, 1, 57, 0
2, 36947, Note_on_c, 1, 60, 0
2, 37440, Note_on_c, 1, 52, 80
2, 37440, Note_on_c, 1, 55, 80
2, 37440, Note_on_c, 1, 57, 80
2, 37440, Note_on_c, 1, 60, 80
2, 37895, Note_on_c, 1, 52, 0
2, 37895, Note_on_c, 1, 55, 0
2, 37895, Note_on_c, 1, 57, 0
2, 37895, Note_on_c, 1, 60, 0
2, 37920, Note_on_c, 1, 52, 80
2, 37920, Note_on_c, 1, 55, 80
2, 37920, Note_on_c, 1, 57, 80
2, 37920, Note_on_c, 1, 60, 80
2, 38375, Note_on_c, 1, 52, 0
2, 38375, Note_on_c, 1, 55, 0
2, 38375, Note_on_c, 1, 57, 0
2, 38375, Note_on_c, 1, 60, 0
2, 38400, Note_on_c, 1, 52, 80
2, 38400, Note_on_c, 1, 53, 80
2, 38400, Note_on_c, 1, 57, 80
2, 38400, Note_on_c, 1, 60, 80
2, 38855, Note_on_c, 1, 52, 0
2, 38855, Note_on_c, 1, 53, 0
2, 38855, Note_on_c, 1, 57, 0
2, 38855, Note_on_c, 1, 60, 0
2, 38880, Note_on_c, 1, 52, 80
2, 38880, Note_on_c, 1, 53, 80
2, 38880, Note_on_c, 1, 57, 80
2, 38880, Note_on_c, 1, 60, 80
2, 39335, Note_on_c, 1, 52, 0
2, 39335, Note_on_c, 1, 53, 0
2, 39335, Note_on_c, 1, 57, 0
2, 39335, Note_on_c, 1, 60, 0
2, 39600, Note_on_c, 1, 52, 80
2, 39600, Note_on_c, 1, 53, 80
2, 39600, Note_on_c, 1, 57, 80
2, 39600, Note_on_c, 1, 60, 80
2, 40055, Note_on_c, 1, 52, 0
2, 40055, Note_on_c, 1, 53, 0
2, 40055, Note_on_c, 1, 57, 0
2, 40055, Note_on_c, 1, 60, 0
2, 40080, Note_on_c, 1, 52, 80
2, 40080, Note_on_c, 1, 55, 80
2, 40080, Note_on_c, 1, 59, 80
2, 40535, Note_on_c, 1, 52, 0
2, 40535, Note_on_c, 1, 55, 0
2, 40535, Note_on_c, 1, 59, 0
2, 40560, Note_on_c, 1, 52, 80
2, 40560, Note_on_c, 1, 55, 80
2, 40560, Note_on_c, 1, 59, 80
2, 40787, Note_on_c, 1, 52, 0
2, 40787, Note_on_c, 1, 55, 0
2, 40787, Note_on_c, 1, 59, 0
2, 41280, Note_on_c, 1, 52, 80
2, 41280, Note_on_c, 1, 53, 80
2, 41280, Note_on_c, 1, 55, 80
2, 41280, Note_on_c, 1, 59, 80
2, 41735, Note_on_c, 1, 52, 0
2, 41735, Note_on_c, 1, 53, 0
2, 41735, Note_on_c, 1, 55, 0
2, 41735, Note_on_c, 1, 59, 0
2, 41760, Note_on_c, 1, 52, 80
2, 41760, Note_on_c, 1, 53, 80
2, 41760, Note_on_c, 1, 55, 80
2, 41760, Note_on_c, 1, 59, 80
2, 42215, Note_on_c, 1, 52, 0
2, 42215, Note_on_c, 1, 53, 0
2, 42215, Note_on_c, 1, 55, 0
2, 42215, Note_on_c, 1, 59, 0
2, 42240, Note_on_c, 1, 50, 80
2, 42240, Note_on_c, 1, 53, 80
2, 42240, Note_on_c, 1, 55, 80
2, 42240, Note_on_c, 1, 59, 80
2, 42695, Note_on_c, 1, 50, 0
2, 42695, Note_on_c, 1, 53, 0
2, 42695, Note_on_c, 1, 55, 0
2, 42695, Note_on_c, 1, 59, 0
2, 42720, Note_on_c, 1, 50, 80
2, 42720, Note_on_c, 1, 53, 80
2, 42720, Note_on_c, 1, 55, 80
2, 42720, Note_on_c, 1, 59, 80
2, 43175, Note_on_c, 1, 50, 0
2, 43175, Note_on_c, 1, 53, 0
2, 43175, Note_on_c, 1, 55, 0
2, 43175, Note_on_c, 1, 59, 0
2, 43440, Note_on_c, 1, 50, 80
2, 43440, Note_on_c, 1, 53, 80
2, 43440, Note_on_c, 1, 55, 80
2, 43440, Note_on_c, 1, 59, 80
2, 43895, Note_on_c, 1, 50, 0
2, 43895, Note_on_c, 1, 53, 0
2, 43895, Note_on_c, 1, 55, 0
2, 43895, Note_on_c, 1, 59, 0
2, 43920, Note_on_c, 1, 55, 80
2, 43920, Note_on_c, 1, 59, 80
2, 43920, Note_on_c, 1, 60, 80
2, 43920, Note_on_c, 1, 64, 80
2, 44375, Note_on_c, 1, 55, 0
2, 44375, Note_on_c, 1, 59, 0
2, 44375, Note_on_c, 1, 60, 0
2, 44375, Note_on_c, 1, 64, 0
2, 44400, Note_on_c, 1, 55, 80
2, 44400, Note_on_c, 1, 59, 80
2, 44400, Note_on_c, 1, 60, 80
2, 44400, Note_on_c, 1, 62, 80
2, 44627, Note_on_c, 1, 55, 0
2, 44627, Note_on_c, 1, 59, 0
2, 44627, Note_on_c, 1, 60, 0
2, 44627, Note_on_c, 1, 62, 0
2, 45120, Note_on_c, 1, 52, 80
2, 45120, Note_on_c, 1, 55, 80
2, 45120, Note_on_c, 1, 59, 80
2, 45120, Note_on_c, 1, 60, 80
2, 45575, Note_on_c, 1, 52, 0
2, 45575, Note_on_c, 1, 55, 0
2, 45575, Note_on_c, 1, 59, 0
2, 45575, Note_on_c, 1, 60, 0
2, 45600, Note_on_c, 1, 52, 80
2, 45600, Note_on_c, 1, 55, 80
2, 45600, Note_on_c, 1, 59, 80
2, 45600, Note_on_c, 1, 62, 80
2, 46055, Note_on_c, 1, 52, 0
2, 46055, Note_on_c, 1, 55, 0
2, 46055, Note_on_c, 1, 59, 0
2, 46055, Note_on_c, 1, 62, 0
2, 46080, Note_on_c, 1, 57, 80
2, 46080, Note_on_c, 1, 60, 80
2, 46080, Note_on_c, 1, 62, 80
2, 46080, Note_on_c, 1, 65, 80
2, 46535, Note_on_c, 1, 57, 0
2, 46535, Note_on_c, 1, 60, 0
2, 46535, Note_on_c, 1, 62, 0
2, 46535, Note_on_c, 1, 65, 0
2, 46560, Note_on_c, 1, 57, 80
2, 46560, Note_on_c, 1, 60, 80
2, 46560, Note_on_c, 1, 62, 80
2, 46560, Note_on_c, 1, 65, 80
2, 47015, Note_on_c, 1, 57, 0
2, 47015, Note_on_c, 1, 60, 0
2, 47015, Note_on_c, 1, 62, 0
2, 47015, Note_on_c, 1, 65, 0
2, 47280, Note_on_c, 1, 57, 80
2, 47280, Note_on_c, 1, 60, 80
2, 47280, Note_on_c, 1, 62, 80
2, 47280, Note_on_c, 1, 65, 80
2, 47735, Note_on_c, 1, 57, 0
2, 47735, Note_on_c, 1, 60, 0
2, 47735, Note_on_c, 1, 62, 0
2, 47735, Note_on_c, 1, 65, 0
2, 47760, Note_on_c, 1, 57, 80
2, 47760, Note_on_c, 1, 60, 80
2, 47760, Note_on_c, 1, 62, 80
2, 47760, Note_on_c, 1, 65, 80
2, 48215, Note_on_c, 1, 57, 0
2, 48215, Note_on_c, 1, 60, 0
2, 48215, Note_on_c, 1, 62, 0
2, 48215, Note_on_c, 1, 65, 0
2, 48240, Note_on_c, 1, 55, 80
2, 48240, Note_on_c, 1, 60, 80
2, 48240, Note_on_c, 1, 62, 80
2, 48240, Note_on_c, 1, 65, 80
2, 48467, Note_on_c, 1, 55, 0
2, 48467, Note_on_c, 1, 60, 0
2, 48467, Note_on_c, 1, 62, 0
2, 48467, Note_on_c, 1, 65, 0
2, 48960, Note_on_c, 1, 53, 80
2, 48960, Note_on_c, 1, 57, 80
2, 48960, Note_on_c, 1, 60, 80
2, 48960, Note_on_c, 1, 62, 80
2, 49415, Note_on_c, 1, 53, 0
2, 49415, Note_on_c, 1, 57, 0
2, 49415, Note_on_c, 1, 60, 0
2, 49415, Note_on_c, 1, 62, 0
2, 49440, Note_on_c, 1, 53, 80
2, 49440, Note_on_c, 1, 57, 80
2, 49440, Note_on_c, 1, 60, 80
2, 49440, Note_on_c, 1, 62, 80
2, 49895, Note_on_c, 1, 53, 0
2, 49895, Note_on_c, 1, 57, 0
2, 49895, Note_on_c, 1, 60, 0
2, 49895, Note_on_c, 1, 62, 0
2, 49920, Note_on_c, 1, 55, 80
2, 49920, Note_on_c, 1, 59, 80
2, 49920, Note_on_c, 1, 60, 80
2, 49920, Note_on_c, 1, 64, 80
2, 50375, Note_on_c, 1, 55, 0
2, 50375, Note_on_c, 1, 59, 0
2, 50375, Note_on_c, 1, 60, 0
2, 50375, Note_on_c, 1, 64, 0
2, 50400, Note_on_c, 1, 55, 80
2, 50400, Note_on_c, 1, 59, 80
2, 50400, Note_on_c, 1, 60, 80
2, 50400, Note_on_c, 1, 64, 80
2, 50855, Note_on_c, 1, 55, 0
2, 50855, Note_on_c, 1, 59, 0
2, 50855, Note_on_c, 1, 60, 0
2, 50855, Note_on_c, 1, 64, 0
2, 51120, Note_on_c, 1, 53, 80
2, 51120, Note_on_c, 1, 55, 80
2, 51120, Note_on_c, 1, 59, 80
2, 51120, Note_on_c, 1, 62, 80
2, 51575, Note_on_c, 1, 53, 0
2, 51575, Note_on_c, 1, 55, 0
2, 51575, Note_on_c, 1, 59, 0
2, 51575, Note_on_c, 1, 62, 0
2, 51600, Note_on_c, 1, 52, 80
2, 51600, Note_on_c, 1, 53, 80
2, 51600, Note_on_c, 1, 57, 80
2, 51600, Note_on_c, 1, 60, 80
2, 52055, Note_on_c, 1, 52, 0
2, 52055, Note_on_c, 1, 53, 0
2, 52055, Note_on_c, 1, 57, 0
2, 52055, Note_on_c, 1, 60, 0
2, 52080, Note_on_c, 1, 52, 80
2, 52080, Note_on_c, 1, 53, 80
2, 52080, Note_on_c, 1, 57, 80
2, 52080, Note_on_c, 1, 60, 80
2, 52307, Note_on_c, 1, 52, 0
2, 52307, Note_on_c, 1, 53, 0
2, 52307, Note_on_c, 1, 57, 0
2, 52307, Note_on_c, 1, 60, 0
2, 52800, Note_on_c, 1, 52, 80
2, 52800, Note_on_c, 1, 55, 80
2, 52800, Note_on_c, 1, 57, 80
2, 52800, Note_on_c, 1, 60, 80
2, 53255, Note_on_c, 1, 52, 0
2, 53255, Note_on_c, 1, 55, 0
2, 53255, Note_on_c, 1, 57, 0
2, 53255, Note_on_c, 1, 60, 0
2, 53280, Note_on_c, 1, 52, 80
2, 53280, Note_on_c, 1, 55, 80
2, 53280, Note_on_c, 1, 57, 80
2, 53280, Note_on_c, 1, 60, 80
2, 53735, Note_on_c, 1, 52, 0
2, 53735, Note_on_c, 1, 55, 0
2, 53735, Note_on_c, 1, 57, 0
2, 53735, Note_on_c, 1, 60, 0
2, 53760, Note_on_c, 1, 52, 80
2, 53760, Note_on_c, 1, 53, 80
2, 53760, Note_on_c, 1, 57, 80
2, 53760, Note_on_c, 1, 60, 80
2, 54215, Note_on_c, 1, 52, 0
2, 54215, Note_on_c, 1, 53, 0
2, 54215, Note_on_c, 1, 57, 0
2, 54215, Note_on_c, 1, 60, 0
2, 54240, Note_on_c, 1, 52, 80
2, 54240, Note_on_c, 1, 53, 80
2, 54240, Note_on_c, 1, 57, 80
2, 54240, Note_on_c, 1, 60, 80
2, 54695, Note_on_c, 1, 52, 0
2, 54695, Note_on_c, 1, 53, 0
2, 54695, Note_on_c, 1, 57, 0
2, 54695, Note_on_c, 1, 60, 0
2, 54960, Note_on_c, 1, 52, 80
2, 54960, Note_on_c, 1, 53, 80
2, 54960, Note_on_c, 1, 57, 80
2, 54960, Note_on_c, 1, 60, 80
2, 55415, Note_on_c, 1, 52, 0
2, 55415, Note_on_c, 1, 53, 0
2, 55415, Note_on_c, 1, 57, 0
2, 55415, Note_on_c, 1, 60, 0
2, 55440, Note_on_c, 1, 52, 80
2, 55440, Note_on_c, 1, 55, 80
2, 55440, Note_on_c, 1, 59, 80
2, 55895, Note_on_c, 1, 52, 0
2, 55895, Note_on_c, 1, 55, 0
2, 55895, Note_on_c, 1, 59, 0
2, 55920, Note_on_c, 1, 52, 80
2, 55920, Note_on_c, 1, 55, 80
2, 55920, Note_on_c, 1, 59, 80
2, 56147, Note_on_c, 1, 52, 0
2, 56147, Note_on_c, 1, 55, 0
2, 56147, Note_on_c, 1, 59, 0
2, 56640, Note_on_c, 1, 52, 80
2, 56640, Note_on_c, 1, 53, 80
2, 56640, Note_on_c, 1, 55, 80
2, 56640, Note_on_c, 1, 59, 80
2, 57095, Note_on_c, 1, 52, 0
2, 57095, Note_on_c, 1, 53, 0
2, 57095, Note_on_c, 1, 55, 0
2, 57095, Note_on_c, 1, 59, 0
2, 57120, Note_on_c, 1, 52, 80
2, 57120, Note_on_c, 1, 53, 80
2, 57120, Note_on_c, 1, 55, 80
2, 57120, Note_on_c, 1, 59, 80
2, 57575, Note_on_c, 1, 52, 0
2, 57575, Note_on_c, 1, 53, 0
2, 57575, Note_on_c, 1, 55, 0
2, 57575, Note_on_c, 1, 59, 0
2, 57600, Note_on_c, 1, 52, 80
2, 57600, Note_on_c, 1, 55, 80
2, 57600, Note_on_c, 1, 59, 80
2, 57600, Note_on_c, 1, 62, 80
2, 58055, Note_on_c, 1, 52, 0
2, 58055, Note_on_c, 1, 55, 0
2, 58055, Note_on_c, 1, 59, 0
2, 58055, Note_on_c, 1, 62, 0
2, 58080, Note_on_c, 1, 52, 80
2, 58080, Note_on_c, 1, 55, 80
2, 58080, Note_on_c, 1, 59, 80
2, 58080, Note_on_c, 1, 62, 80
2, 58535, Note_on_c, 1, 52, 0
2, 58535, Note_on_c, 1, 55, 0
2, 58535, Note_on_c, 1, 59, 0
2, 58535, Note_on_c, 1, 62, 0
2, 58800, Note_on_c, 1, 52, 80
2, 58800, Note_on_c, 1, 55, 80
2, 58800, Note_on_c, 1, 59, 80
2, 58800, Note_on_c, 1, 62, 80
2, 59255, Note_on_c, 1, 52, 0
2, 59255, Note_on_c, 1, 55, 0
2, 59255, Note_on_c, 1, 59, 0
2, 59255, Note_on_c, 1, 62, 0
2, 59280, Note_on_c, 1, 53, 80
2, 59280, Note_on_c, 1, 55, 80
2, 59280, Note_on_c, 1, 59, 80
2, 59280, Note_on_c, 1, 64, 80
2, 59507, Note_on_c, 1, 53, 0
2, 59507, Note_on_c, 1, 55, 0
2, 59507, Note_on_c, 1, 59, 0
2, 59507, Note_on_c, 1, 64, 0
2, 61440, Note_on_c, 1, 52, 80
2, 61440, Note_on_c, 1, 53, 80
2, 61440, Note_on_c, 1, 57, 80
2, 61440, Note_on_c, 1, 60, 80
2, 61895, Note_on_c, 1, 52, 0
2, 61895, Note_on_c, 1, 53, 0
2, 61895, Note_on_c, 1, 57, 0
2, 61895, Note_on_c, 1, 60, 0
2, 61920, Note_on_c, 1, 50, 80
2, 61920, Note_on_c, 1, 53, 80
2, 61920, Note_on_c, 1, 57, 80
2, 61920, Note_on_c, 1, 60, 80
2, 62375, Note_on_c, 1, 50, 0
2, 62375, Note_on_c, 1, 53, 0
2, 62375, Note_on_c, 1, 57, 0
2, 62375, Note_on_c, 1, 60, 0
2, 62640, Note_on_c, 1, 50, 80
2, 62640, Note_on_c, 1, 53, 80
2, 62640, Note_on_c, 1, 57, 80
2, 62640, Note_on_c, 1, 60, 80
2, 63095, Note_on_c, 1, 50, 0
2, 63095, Note_on_c, 1, 53, 0
2, 63095, Note_on_c, 1, 57, 0
2, 63095, Note_on_c, 1, 60, 0
2, 63120, Note_on_c, 1, 52, 80
2, 63120, Note_on_c, 1, 55, 80
2, 63120, Note_on_c, 1, 59, 80
2, 63120, Note_on_c, 1, 62, 80
2, 63575, Note_on_c, 1, 52, 0
2, 63575, Note_on_c, 1, 55, 0
2, 63575, Note_on_c, 1, 59, 0
2, 63575, Note_on_c, 1, 62, 0
2, 63600, Note_on_c, 1, 52, 80
2, 63600, Note_on_c, 1, 55, 80
2, 63600, Note_on_c, 1, 59, 80
2, 63600, Note_on_c, 1, 62, 80
2, 63827, Note_on_c, 1, 52, 0
2, 63827, Note_on_c, 1, 55, 0
2, 63827, Note_on_c, 1, 59, 0
2, 63827, Note_on_c, 1, 62, 0
2, 64320, Note_on_c, 1, 50, 80
2, 64320, Note_on_c, 1, 53, 80
2, 64320, Note_on_c, 1, 55, 80
2, 64320, Note_on_c, 1, 59, 80
2, 64775, Note_on_c, 1, 50, 0
2, 64775, Note_on_c, 1, 53, 0
2, 64775, Note_on_c, 1, 55, 0
2, 64775, Note_on_c, 1, 59, 0
2, 64800, Note_on_c, 1, 50, 80
2, 64800, Note_on_c, 1, 53, 80
2, 64800, Note_on_c, 1, 55, 80
2, 64800, Note_on_c, 1, 59, 80
2, 65255, Note_on_c, 1, 50, 0
2, 65255, Note_on_c, 1, 53, 0
2, 65255, Note_on_c, 1, 55, 0
2, 65255, Note_on_c, 1, 59, 0
2, 65280, Note_on_c, 1, 52, 80
2, 65280, Note_on_c, 1, 55, 80
2, 65280, Note_on_c, 1, 59, 80
2, 65735, Note_on_c, 1, 52, 0
2, 65735, Note_on_c, 1, 55, 0
2, 65735, Note_on_c, 1, 59, 0
2, 65760, Note_on_c, 1, 52, 80
2, 65760, Note_on_c, 1, 55, 80
2, 65760, Note_on_c, 1, 59, 80
2, 66215, Note_on_c, 1, 52, 0
2, 66215, Note_on_c, 1, 55, 0
2, 66215, Note_on_c, 1, 59, 0
2, 66480, Note_on_c, 1, 48, 80
2, 66480, Note_on_c, 1, 52, 80
2, 66480, Note_on_c, 1, 55, 80
2, 66480, Note_on_c, 1, 59, 80
2, 66935, Note_on_c, 1, 48, 0
2, 66935, Note_on_c, 1, 52, 0
2, 66935, Note_on_c, 1, 55, 0
2, 66935, Note_on_c, 1, 59, 0
2, 66960, Note_on_c, 1, 52, 80
2, 66960, Note_on_c, 1, 55, 80
2, 66960, Note_on_c, 1, 57, 80
2, 66960, Note_on_c, 1, 60, 80
2, 67415, Note_on_c, 1, 52, 0
2, 67415, Note_on_c, 1, 55, 0
2, 67415, Note_on_c, 1, 57, 0
2, 67415, Note_on_c, 1, 60, 0
2, 67440, Note_on_c, 1, 52, 80
2, 67440, Note_on_c, 1, 55, 80
2, 67440, Note_on_c, 1, 57, 80
2, 67440, Note_on_c, 1, 60, 80
2, 67667, Note_on_c, 1, 52, 0
2, 67667, Note_on_c, 1, 55, 0
2, 67667, Note_on_c, 1, 57, 0
2, 67667, Note_on_c, 1, 60, 0
2, 68160, Note_on_c, 1, 52, 80
2, 68160, Note_on_c, 1, 55, 80
2, 68160, Note_on_c, 1, 57, 80
2, 68160, Note_on_c, 1, 60, 80
2, 68615, Note_on_c, 1, 52, 0
2, 68615, Note_on_c, 1, 55, 0
2, 68615, Note_on_c, 1, 57, 0
2, 68615, Note_on_c, 1, 60, 0
2, 68640, Note_on_c, 1, 52, 80
2, 68640, Note_on_c, 1, 55, 80
2, 68640, Note_on_c, 1, 57, 80
2, 68640, Note_on_c, 1, 60, 80
2, 69095, Note_on_c, 1, 52, 0
2, 69095, Note_on_c, 1, 55, 0
2, 69095, Note_on_c, 1, 57, 0
2, 69095, Note_on_c, 1, 60, 0
2, 69120, Note_on_c, 1, 52, 80
2, 69120, Note_on_c, 1, 53, 80
2, 69120, Note_on_c, 1, 57, 80
2, 69120, Note_on_c, 1, 60, 80
2, 69575, Note_on_c, 1, 52, 0
2, 69575, Note_on_c, 1, 53, 0
2, 69575, Note_on_c, 1, 57, 0
2, 69575, Note_on_c, 1, 60, 0
2, 69600, Note_on_c, 1, 52, 80
2, 69600, Note_on_c, 1, 53, 80
2, 69600, Note_on_c, 1, 57, 80
2, 69600, Note_on_c, 1, 60, 80
2, 70055, Note_on_c, 1, 52, 0
2, 70055, Note_on_c, 1, 53, 0
2, 70055, Note_on_c, 1, 57, 0
2, 70055, Note_on_c, 1, 60, 0
2, 70320, Note_on_c, 1, 52, 80
2, 70320, Note_on_c, 1, 53, 80
2, 70320, Note_on_c, 1, 57, 80
2, 70320, Note_on_c, 1, 60, 80
2, 70775, Note_on_c, 1, 52, 0
2, 70775, Note_on_c, 1, 53, 0
2, 70775, Note_on_c, 1, 57, 0
2, 70775, Note_on_c, 1, 60, 0
2, 70800, Note_on_c, 1, 52, 80
2, 70800, Note_on_c, 1, 55, 80
2, 70800, Note_on_c, 1, 59, 80
2, 70800, Note_on_c, 1, 62, 80
2, 71255, Note_on_c, 1, 52, 0
2, 71255, Note_on_c, 1, 55, 0
2, 71255, Note_on_c, 1, 59, 0
2, 71255, Note_on_c, 1, 62, 0
2, 71280, Note_on_c, 1, 55, 80
2, 71280, Note_on_c, 1, 59, 80
2, 71280, Note_on_c, 1, 62, 80
2, 71280, Note_on_c, 1, 64, 80
2, 71507, Note_on_c, 1, 55, 0
2, 71507, Note_on_c, 1, 59, 0
2, 71507, Note_on_c, 1, 62, 0
2, 71507, Note_on_c, 1, 64, 0
2, 72000, Note_on_c, 1, 50, 80
2, 72000, Note_on_c, 1, 53, 80
2, 72000, Note_on_c, 1, 55, 80
2, 72000, Note_on_c, 1, 59, 80
2, 72455, Note_on_c, 1, 50, 0
2, 72455, Note_on_c, 1, 53, 0
2, 72455, Note_on_c, 1, 55, 0
2, 72455, Note_on_c, 1, 59, 0
2, 72480, Note_on_c, 1, 50, 80
2, 72480, Note_on_c, 1, 53, 80
2, 72480, Note_on_c, 1, 55, 80
2, 72480, Note_on_c, 1, 59, 80
2, 72935, Note_on_c, 1, 50, 0
2, 72935, Note_on_c, 1, 53, 0
2, 72935, Note_on_c, 1, 55, 0
2, 72935, Note_on_c, 1, 59, 0
2, 72960, Note_on_c, 1, 52, 80
2, 72960, Note_on_c, 1, 55, 80
2, 72960, Note_on_c, 1, 59, 80
2, 72960, Note_on_c, 1, 60, 80
2, 73415, Note_on_c, 1, 52, 0
2, 73415, Note_on_c, 1, 55, 0
2, 73415, Note_on_c, 1, 59, 0
2, 73415, Note_on_c, 1, 60, 0
2, 73440, Note_on_c, 1, 52, 80
2, 73440, Note_on_c, 1, 55, 80
2, 73440, Note_on_c, 1, 59, 80
2, 73440, Note_on_c, 1, 60, 80
2, 73895, Note_on_c, 1, 52, 0
2, 73895, Note_on_c, 1, 55, 0
2, 73895, Note_on_c, 1, 59, 0
2, 73895, Note_on_c, 1, 60, 0
2, 74160, Note_on_c, 1, 52, 80
2, 74160, Note_on_c, 1, 55, 80
2, 74160, Note_on_c, 1, 59, 80
2, 74160, Note_on_c, 1, 60, 80
2, 74615, Note_on_c, 1, 52, 0
2, 74615, Note_on_c, 1, 55, 0
2, 74615, Note_on_c, 1, 59, 0
2, 74615, Note_on_c, 1, 60, 0
2, 74640, Note_on_c, 1, 52, 80
2, 74640, Note_on_c, 1, 55, 80
2, 74640, Note_on_c, 1, 57, 80
2, 75095, Note_on_c, 1, 52, 0
2, 75095, Note_on_c, 1, 55, 0
2, 75095, Note_on_c, 1, 57, 0
2, 75120, Note_on_c, 1, 52, 80
2, 75120, Note_on_c, 1, 55, 80
2, 75120, Note_on_c, 1, 57, 80
2, 75120, Note_on_c, 1, 59, 80
2, 75347, Note_on_c, 1, 52, 0
2, 75347, Note_on_c, 1, 55, 0
2, 75347, Note_on_c, 1, 57, 0
2, 75347, Note_on_c, 1, 59, 0
2, 75840, Note_on_c, 1, 52, 80
2, 75840, Note_on_c, 1, 55, 80
2, 75840, Note_on_c, 1, 57, 80
2, 75840, Note_on_c, 1, 60, 80
2, 76295, Note_on_c, 1, 52, 0
2, 76295, Note_on_c, 1, 55, 0
2, 76295, Note_on_c, 1, 57, 0
2, 76295, Note_on_c, 1, 60, 0
2, 76320, Note_on_c, 1, 55, 80
2, 76320, Note_on_c, 1, 57, 80
2, 76320, Note_on_c, 1, 60, 80
2, 76320, Note_on_c, 1, 64, 80
2, 76775, Note_on_c, 1, 55, 0
2, 76775, Note_on_c, 1, 57, 0
2, 76775, Note_on_c, 1, 60, 0
2, 76775, Note_on_c, 1, 64, 0
2, 76800, Note_on_c, 1, 57, 80
2, 76800, Note_on_c, 1, 60, 80
2, 76800, Note_on_c, 1, 64, 80
2, 76800, Note_on_c, 1, 65, 80
2, 77255, Note_on_c, 1, 57, 0
2, 77255, Note_on_c, 1, 60, 0
2, 77255, Note_on_c, 1, 64, 0
2, 77255, Note_on_c, 1, 65, 0
2, 77280, Note_on_c, 1, 57, 80
2, 77280, Note_on_c, 1, 60, 80
2, 77280, Note_on_c, 1, 64, 80
2, 77280, Note_on_c, 1, 65, 80
2, 77735, Note_on_c, 1, 57, 0
2, 77735, Note_on_c, 1, 60, 0
2, 77735, Note_on_c, 1, 64, 0
2, 77735, Note_on_c, 1, 65, 0
2, 78000, Note_on_c, 1, 57, 80
2, 78000, Note_on_c, 1, 60, 80
2, 78000, Note_on_c, 1, 64, 80
2, 78000, Note_on_c, 1, 65, 80
2, 78455, Note_on_c, 1, 57, 0
2, 78455, Note_on_c, 1, 60, 0
2, 78455, Note_on_c, 1, 64, 0
2, 78455, Note_on_c, 1, 65, 0
2, 78480, Note_on_c, 1, 55, 80
2, 78480, Note_on_c, 1, 59, 80
2, 78480, Note_on_c, 1, 62, 80
2, 78480, Note_on_c, 1, 64, 80
2, 79619, Note_on_c, 1, 55, 0
2, 79619, Note_on_c, 1, 59, 0
2, 79619, Note_on_c, 1, 62, 0
2, 79619, Note_on_c, 1, 64, 0
2, 80640, Note_on_c, 1, 50, 80
2, 80640, Note_on_c, 1, 52, 80
2, 80640, Note_on_c, 1, 55, 80
2, 80640, Note_on_c, 1, 60, 80
2, 82463, Note_on_c, 1, 50, 0
2, 82463, Note_on_c, 1, 52, 0
2, 82463, Note_on_c, 1, 55, 0
2, 82463, Note_on_c, 1, 60, 0
2, 82560, Control_c, 1, 64, 0
2, 82561, End_track
3, 0, Start_track
3, 0, Title_t, "Bass\000"
3, 0, Key_signature, 0, "major"
3, 0, Control_c, 2, 121, 0
3, 0, Program_c, 2, 33
3, 0, Control_c, 2, 7, 100
3, 0, Control_c, 2, 10, 64
3, 0, Control_c, 2, 91, 0
3, 0, Control_c, 2, 93, 0
3, 0, MIDI_port, 0
3, 0, Note_on_c, 2, 62, 80
3, 0, Control_c, 2, 2, 80
3, 719, Note_on_c, 2, 62, 0
3, 720, Note_on_c, 2, 52, 80
3, 720, Control_c, 2, 2, 80
3, 959, Note_on_c, 2, 52, 0
3, 960, Note_on_c, 2, 57, 80
3, 1679, Note_on_c, 2, 57, 0
3, 1680, Note_on_c, 2, 55, 80
3, 2639, Note_on_c, 2, 55, 0
3, 2640, Note_on_c, 2, 50, 80
3, 2879, Note_on_c, 2, 50, 0
3, 2880, Note_on_c, 2, 55, 80
3, 3359, Note_on_c, 2, 55, 0
3, 3360, Note_on_c, 2, 55, 80
3, 3839, Note_on_c, 2, 55, 0
3, 3840, Note_on_c, 2, 60, 80
3, 4559, Note_on_c, 2, 60, 0
3, 4560, Note_on_c, 2, 52, 80
3, 4799, Note_on_c, 2, 52, 0
3, 4800, Note_on_c, 2, 55, 80
3, 5519, Note_on_c, 2, 55, 0
3, 5520, Note_on_c, 2, 57, 80
3, 6479, Note_on_c, 2, 57, 0
3, 6480, Note_on_c, 2, 52, 80
3, 6719, Note_on_c, 2, 52, 0
3, 6720, Note_on_c, 2, 57, 80
3, 7199, Note_on_c, 2, 57, 0
3, 7200, Note_on_c, 2, 57, 80
3, 7679, Note_on_c, 2, 57, 0
3, 7680, Note_on_c, 2, 62, 80
3, 8399, Note_on_c, 2, 62, 0
3, 8400, Note_on_c, 2, 52, 80
3, 8639, Note_on_c, 2, 52, 0
3, 8640, Note_on_c, 2, 57, 80
3, 9359, Note_on_c, 2, 57, 0
3, 9360, Note_on_c, 2, 55, 80
3, 10319, Note_on_c, 2, 55, 0
3, 10320, Note_on_c, 2, 50, 80
3, 10559, Note_on_c, 2, 50, 0
3, 10560, Note_on_c, 2, 55, 80
3, 11039, Note_on_c, 2, 55, 0
3, 11040, Note_on_c, 2, 55, 80
3, 11519, Note_on_c, 2, 55, 0
3, 11520, Note_on_c, 2, 60, 80
3, 12239, Note_on_c, 2, 60, 0
3, 12240, Note_on_c, 2, 52, 80
3, 12479, Note_on_c, 2, 52, 0
3, 12480, Note_on_c, 2, 55, 80
3, 13199, Note_on_c, 2, 55, 0
3, 13200, Note_on_c, 2, 57, 80
3, 14159, Note_on_c, 2, 57, 0
3, 14160, Note_on_c, 2, 52, 80
3, 14399, Note_on_c, 2, 52, 0
3, 14400, Note_on_c, 2, 57, 80
3, 14879, Note_on_c, 2, 57, 0
3, 14880, Note_on_c, 2, 57, 80
3, 15359, Note_on_c, 2, 57, 0
3, 15360, Note_on_c, 2, 62, 80
3, 16079, Note_on_c, 2, 62, 0
3, 16080, Note_on_c, 2, 52, 80
3, 16319, Note_on_c, 2, 52, 0
3, 16320, Note_on_c, 2, 57, 80
3, 17039, Note_on_c, 2, 57, 0
3, 17040, Note_on_c, 2, 55, 80
3, 17999, Note_on_c, 2, 55, 0
3, 18000, Note_on_c, 2, 50, 80
3, 18239, Note_on_c, 2, 50, 0
3, 18240, Note_on_c, 2, 55, 80
3, 18719, Note_on_c, 2, 55, 0
3, 18720, Note_on_c, 2, 55, 80
3, 19199, Note_on_c, 2, 55, 0
3, 19200, Note_on_c, 2, 60, 80
3, 19919, Note_on_c, 2, 60, 0
3, 19920, Note_on_c, 2, 52, 80
3, 20159, Note_on_c, 2, 52, 0
3, 20160, Note_on_c, 2, 55, 80
3, 20879, Note_on_c, 2, 55, 0
3, 20880, Note_on_c, 2, 57, 80
3, 21839, Note_on_c, 2, 57, 0
3, 21840, Note_on_c, 2, 52, 80
3, 22079, Note_on_c, 2, 52, 0
3, 22080, Note_on_c, 2, 57, 80
3, 22559, Note_on_c, 2, 57, 0
3, 22560, Note_on_c, 2, 57, 80
3, 23039, Note_on_c, 2, 57, 0
3, 23040, Note_on_c, 2, 62, 80
3, 23759, Note_on_c, 2, 62, 0
3, 23760, Note_on_c, 2, 52, 80
3, 23999, Note_on_c, 2, 52, 0
3, 24000, Note_on_c, 2, 57, 80
3, 24719, Note_on_c, 2, 57, 0
3, 24720, Note_on_c, 2, 55, 80
3, 25679, Note_on_c, 2, 55, 0
3, 25680, Note_on_c, 2, 50, 80
3, 25919, Note_on_c, 2, 50, 0
3, 25920, Note_on_c, 2, 55, 80
3, 26399, Note_on_c, 2, 55, 0
3, 26400, Note_on_c, 2, 55, 80
3, 26879, Note_on_c, 2, 55, 0
3, 26880, Note_on_c, 2, 60, 80
3, 27599, Note_on_c, 2, 60, 0
3, 27600, Note_on_c, 2, 52, 80
3, 27839, Note_on_c, 2, 52, 0
3, 27840, Note_on_c, 2, 55, 80
3, 28559, Note_on_c, 2, 55, 0
3, 28560, Note_on_c, 2, 57, 80
3, 29519, Note_on_c, 2, 57, 0
3, 29520, Note_on_c, 2, 52, 80
3, 29759, Note_on_c, 2, 52, 0
3, 29760, Note_on_c, 2, 57, 80
3, 30239, Note_on_c, 2, 57, 0
3, 30240, Note_on_c, 2, 57, 80
3, 30719, Note_on_c, 2, 57, 0
3, 30720, Note_on_c, 2, 62, 80
3, 31199, Note_on_c, 2, 62, 0
3, 31440, Note_on_c, 2, 52, 80
3, 31679, Note_on_c, 2, 52, 0
3, 31680, Note_on_c, 2, 57, 80
3, 32399, Note_on_c, 2, 57, 0
3, 32400, Note_on_c, 2, 55, 80
3, 33359, Note_on_c, 2, 55, 0
3, 33360, Note_on_c, 2, 50, 80
3, 33599, Note_on_c, 2, 50, 0
3, 33600, Note_on_c, 2, 55, 80
3, 34079, Note_on_c, 2, 55, 0
3, 34080, Note_on_c, 2, 55, 80
3, 34559, Note_on_c, 2, 55, 0
3, 34560, Note_on_c, 2, 60, 80
3, 35279, Note_on_c, 2, 60, 0
3, 35280, Note_on_c, 2, 52, 80
3, 35519, Note_on_c, 2, 52, 0
3, 35520, Note_on_c, 2, 55, 80
3, 36239, Note_on_c, 2, 55, 0
3, 36240, Note_on_c, 2, 57, 80
3, 37199, Note_on_c, 2, 57, 0
3, 37200, Note_on_c, 2, 52, 80
3, 37439, Note_on_c, 2, 52, 0
3, 37440, Note_on_c, 2, 57, 80
3, 37919, Note_on_c, 2, 57, 0
3, 37920, Note_on_c, 2, 57, 80
3, 38399, Note_on_c, 2, 57, 0
3, 38400, Note_on_c, 2, 62, 80
3, 39119, Note_on_c, 2, 62, 0
3, 39120, Note_on_c, 2, 52, 80
3, 39359, Note_on_c, 2, 52, 0
3, 39360, Note_on_c, 2, 57, 80
3, 40079, Note_on_c, 2, 57, 0
3, 40080, Note_on_c, 2, 55, 80
3, 41039, Note_on_c, 2, 55, 0
3, 41040, Note_on_c, 2, 50, 80
3, 41279, Note_on_c, 2, 50, 0
3, 41280, Note_on_c, 2, 55, 80
3, 41759, Note_on_c, 2, 55, 0
3, 41760, Note_on_c, 2, 55, 80
3, 42239, Note_on_c, 2, 55, 0
3, 42240, Note_on_c, 2, 55, 80
3, 42959, Note_on_c, 2, 55, 0
3, 42960, Note_on_c, 2, 52, 80
3, 43199, Note_on_c, 2, 52, 0
3, 43200, Note_on_c, 2, 55, 80
3, 43919, Note_on_c, 2, 55, 0
3, 43920, Note_on_c, 2, 60, 80
3, 44879, Note_on_c, 2, 60, 0
3, 44880, Note_on_c, 2, 55, 80
3, 45119, Note_on_c, 2, 55, 0
3, 45120, Note_on_c, 2, 60, 80
3, 45599, Note_on_c, 2, 60, 0
3, 45600, Note_on_c, 2, 60, 80
3, 46079, Note_on_c, 2, 60, 0
3, 46080, Note_on_c, 2, 53, 80
3, 46799, Note_on_c, 2, 53, 0
3, 46800, Note_on_c, 2, 48, 80
3, 47039, Note_on_c, 2, 48, 0
3, 47040, Note_on_c, 2, 53, 80
3, 47759, Note_on_c, 2, 53, 0
3, 47760, Note_on_c, 2, 53, 80
3, 48719, Note_on_c, 2, 53, 0
3, 48720, Note_on_c, 2, 48, 80
3, 48959, Note_on_c, 2, 48, 0
3, 48960, Note_on_c, 2, 53, 80
3, 49439, Note_on_c, 2, 53, 0
3, 49440, Note_on_c, 2, 53, 80
3, 49919, Note_on_c, 2, 53, 0
3, 49920, Note_on_c, 2, 60, 80
3, 50639, Note_on_c, 2, 60, 0
3, 50640, Note_on_c, 2, 52, 80
3, 50879, Note_on_c, 2, 52, 0
3, 50880, Note_on_c, 2, 55, 80
3, 51599, Note_on_c, 2, 55, 0
3, 51600, Note_on_c, 2, 57, 80
3, 52559, Note_on_c, 2, 57, 0
3, 52560, Note_on_c, 2, 48, 80
3, 52799, Note_on_c, 2, 48, 0
3, 52800, Note_on_c, 2, 52, 80
3, 53279, Note_on_c, 2, 52, 0
3, 53280, Note_on_c, 2, 57, 80
3, 53759, Note_on_c, 2, 57, 0
3, 53760, Note_on_c, 2, 62, 80
3, 54479, Note_on_c, 2, 62, 0
3, 54480, Note_on_c, 2, 52, 80
3, 54719, Note_on_c, 2, 52, 0
3, 54720, Note_on_c, 2, 57, 80
3, 55439, Note_on_c, 2, 57, 0
3, 55440, Note_on_c, 2, 55, 80
3, 56399, Note_on_c, 2, 55, 0
3, 56400, Note_on_c, 2, 50, 80
3, 56639, Note_on_c, 2, 50, 0
3, 56640, Note_on_c, 2, 55, 80
3, 57119, Note_on_c, 2, 55, 0
3, 57120, Note_on_c, 2, 55, 80
3, 57599, Note_on_c, 2, 55, 0
3, 57600, Note_on_c, 2, 55, 80
3, 58319, Note_on_c, 2, 55, 0
3, 58320, Note_on_c, 2, 52, 80
3, 58559, Note_on_c, 2, 52, 0
3, 58560, Note_on_c, 2, 55, 80
3, 59279, Note_on_c, 2, 55, 0
3, 59280, Note_on_c, 2, 55, 80
3, 61439, Note_on_c, 2, 55, 0
3, 61440, Note_on_c, 2, 62, 80
3, 61919, Note_on_c, 2, 62, 0
3, 62160, Note_on_c, 2, 52, 80
3, 62399, Note_on_c, 2, 52, 0
3, 62400, Note_on_c, 2, 57, 80
3, 63119, Note_on_c, 2, 57, 0
3, 63120, Note_on_c, 2, 55, 80
3, 64079, Note_on_c, 2, 55, 0
3, 64080, Note_on_c, 2, 50, 80
3, 64319, Note_on_c, 2, 50, 0
3, 64320, Note_on_c, 2, 55, 80
3, 64799, Note_on_c, 2, 55, 0
3, 64800, Note_on_c, 2, 55, 80
3, 65279, Note_on_c, 2, 55, 0
3, 65280, Note_on_c, 2, 60, 80
3, 65999, Note_on_c, 2, 60, 0
3, 66000, Note_on_c, 2, 52, 80
3, 66239, Note_on_c, 2, 52, 0
3, 66240, Note_on_c, 2, 55, 80
3, 66959, Note_on_c, 2, 55, 0
3, 66960, Note_on_c, 2, 57, 80
3, 67919, Note_on_c, 2, 57, 0
3, 67920, Note_on_c, 2, 52, 80
3, 68159, Note_on_c, 2, 52, 0
3, 68160, Note_on_c, 2, 57, 80
3, 68639, Note_on_c, 2, 57, 0
3, 68640, Note_on_c, 2, 57, 80
3, 69119, Note_on_c, 2, 57, 0
3, 69120, Note_on_c, 2, 62, 80
3, 69839, Note_on_c, 2, 62, 0
3, 69840, Note_on_c, 2, 52, 80
3, 70079, Note_on_c, 2, 52, 0
3, 70080, Note_on_c, 2, 57, 80
3, 70799, Note_on_c, 2, 57, 0
3, 70800, Note_on_c, 2, 55, 80
3, 71759, Note_on_c, 2, 55, 0
3, 71760, Note_on_c, 2, 50, 80
3, 71999, Note_on_c, 2, 50, 0
3, 72000, Note_on_c, 2, 55, 80
3, 72479, Note_on_c, 2, 55, 0
3, 72480, Note_on_c, 2, 55, 80
3, 72959, Note_on_c, 2, 55, 0
3, 72960, Note_on_c, 2, 60, 80
3, 73679, Note_on_c, 2, 60, 0
3, 73680, Note_on_c, 2, 52, 80
3, 73919, Note_on_c, 2, 52, 0
3, 73920, Note_on_c, 2, 55, 80
3, 74639, Note_on_c, 2, 55, 0
3, 74640, Note_on_c, 2, 57, 80
3, 75599, Note_on_c, 2, 57, 0
3, 75600, Note_on_c, 2, 52, 80
3, 75839, Note_on_c, 2, 52, 0
3, 75840, Note_on_c, 2, 57, 80
3, 76319, Note_on_c, 2, 57, 0
3, 76320, Note_on_c, 2, 57, 80
3, 76799, Note_on_c, 2, 57, 0
3, 76800, Note_on_c, 2, 62, 80
3, 77519, Note_on_c, 2, 62, 0
3, 77520, Note_on_c, 2, 52, 80
3, 77759, Note_on_c, 2, 52, 0
3, 77760, Note_on_c, 2, 57, 80
3, 78479, Note_on_c, 2, 57, 0
3, 78480, Note_on_c, 2, 55, 80
3, 80639, Note_on_c, 2, 55, 0
3, 80640, Note_on_c, 2, 60, 80
3, 82559, Note_on_c, 2, 60, 0
3, 82560, End_track
0, 0, End_of_file
