0, 0, Header, 1, 5, 480
1, 0, Start_track
1, 0, Title_t, "Minstrel\000"
1, 0, Time_signature, 4, 2, 24, 8
1, 0, Key_signature, 0, "major"
1, 0, Tempo, 800000
1, 0, Control_c, 3, 121, 0
1, 0, Program_c, 3, 0
1, 0, Control_c, 3, 7, 100
1, 0, Control_c, 3, 10, 64
1, 0, Control_c, 3, 91, 0
1, 0, Control_c, 3, 93, 0
1, 0, MIDI_port, 0
1, 1860, Note_on_c, 3, 53, 80
1, 1860, Control_c, 3, 2, 80
1, 1860, Note_on_c, 3, 57, 80
1, 1860, Note_on_c, 3, 60, 80
1, 1919, Note_on_c, 3, 53, 0
1, 1919, Note_on_c, 3, 57, 0
1, 1919, Note_on_c, 3, 60, 0
1, 1920, Note_on_c, 3, 65, 80
1, 1920, Note_on_c, 3, 69, 80
1, 1922, Control_c, 3, 64, 127
1, 2879, Note_on_c, 3, 65, 0
1, 2879, Note_on_c, 3, 69, 0
1, 5700, Note_on_c, 3, 52, 80
1, 5700, Control_c, 3, 2, 80
1, 5700, Note_on_c, 3, 55, 80
1, 5700, Note_on_c, 3, 59, 80
1, 5759, Note_on_c, 3, 52, 0
1, 5759, Note_on_c, 3, 55, 0
1, 5759, Note_on_c, 3, 59, 0
1, 5760, Note_on_c, 3, 67, 80
1, 5760, Note_on_c, 3, 71, 80
1, 6719, Note_on_c, 3, 67, 0
1, 6719, Note_on_c, 3, 71, 0
1, 9540, Note_on_c, 3, 53, 80
1, 9540, Control_c, 3, 2, 80
1, 9540, Note_on_c, 3, 57, 80
1, 9540, Note_on_c, 3, 60, 80
1, 9599, Note_on_c, 3, 53, 0
1, 9599, Note_on_c, 3, 57, 0
1, 9599, Note_on_c, 3, 60, 0
1, 9600, Note_on_c, 3, 65, 80
1, 9600, Note_on_c, 3, 69, 80
1, 10559, Note_on_c, 3, 65, 0
1, 10559, Note_on_c, 3, 69, 0
1, 13380, Note_on_c, 3, 52, 80
1, 13380, Control_c, 3, 2, 80
1, 13380, Note_on_c, 3, 55, 80
1, 13380, Note_on_c, 3, 59, 80
1, 13439, Note_on_c, 3, 52, 0
1, 13439, Note_on_c, 3, 55, 0
1, 13439, Note_on_c, 3, 59, 0
1, 13440, Note_on_c, 3, 67, 80
1, 13440, Note_on_c, 3, 71, 80
1, 14399, Note_on_c, 3, 67, 0
1, 14399, Note_on_c, 3, 71, 0
1, 17220, Note_on_c, 3, 53, 80
1, 17220, Control_c, 3, 2, 80
1, 17220, Note_on_c, 3, 60, 80
1, 17279, Note_on_c, 3, 53, 0
1, 17279, Note_on_c, 3, 60, 0
1, 17280, Note_on_c, 3, 65, 80
1, 17280, Note_on_c, 3, 69, 80
1, 18239, Note_on_c, 3, 65, 0
1, 18239, Note_on_c, 3, 69, 0
1, 21060, Note_on_c, 3, 52, 80
1, 21060, Control_c, 3, 2, 80
1, 21060, Note_on_c, 3, 59, 80
1, 21119, Note_on_c, 3, 52, 0
1, 21119, Note_on_c, 3, 59, 0
1, 21120, Note_on_c, 3, 67, 80
1, 21120, Note_on_c, 3, 71, 80
1, 22079, Note_on_c, 3, 67, 0
1, 22079, Note_on_c, 3, 71, 0
1, 24900, Note_on_c, 3, 53, 80
1, 24900, Control_c, 3, 2, 80
1, 24900, Note_on_c, 3, 60, 80
1, 24959, Note_on_c, 3, 53, 0
1, 24959, Note_on_c, 3, 60, 0
1, 24960, Note_on_c, 3, 65, 80
1, 25919, Note_on_c, 3, 65, 0
1, 28740, Note_on_c, 3, 52, 80
1, 28740, Control_c, 3, 2, 80
1, 28740, Note_on_c, 3, 59, 80
1, 28799, Note_on_c, 3, 52, 0
1, 28799, Note_on_c, 3, 59, 0
1, 28800, Note_on_c, 3, 67, 80
1, 28800, Note_on_c, 3, 71, 80
1, 29759, Note_on_c, 3, 67, 0
1, 29759, Note_on_c, 3, 71, 0
1, 32580, Note_on_c, 3, 53, 80
1, 32580, Control_c, 3, 2, 80
1, 32580, Note_on_c, 3, 60, 80
1, 32639, Note_on_c, 3, 53, 0
1, 32639, Note_on_c, 3, 60, 0
1, 32640, Note_on_c, 3, 65, 80
1, 33599, Note_on_c, 3, 65, 0
1, 36420, Note_on_c, 3, 52, 80
1, 36420, Control_c, 3, 2, 80
1, 36420, Note_on_c, 3, 59, 80
1, 36479, Note_on_c, 3, 52, 0
1, 36479, Note_on_c, 3, 59, 0
1, 36480, Note_on_c, 3, 67, 80
1, 36480, Note_on_c, 3, 71, 80
1, 37439, Note_on_c, 3, 67, 0
1, 37439, Note_on_c, 3, 71, 0
1, 40260, Note_on_c, 3, 53, 80
1, 40260, Control_c, 3, 2, 80
1, 40260, Note_on_c, 3, 60, 80
1, 40319, Note_on_c, 3, 53, 0
1, 40319, Note_on_c, 3, 60, 0
1, 40320, Note_on_c, 3, 65, 80
1, 40320, Note_on_c, 3, 69, 80
1, 41279, Note_on_c, 3, 65, 0
1, 41279, Note_on_c, 3, 69, 0
1, 44100, Note_on_c, 3, 52, 80
1, 44100, Control_c, 3, 2, 80
1, 44100, Note_on_c, 3, 59, 80
1, 44159, Note_on_c, 3, 52, 0
1, 44159, Note_on_c, 3, 59, 0
1, 44160, Note_on_c, 3, 67, 80
1, 44160, Note_on_c, 3, 71, 80
1, 45119, Note_on_c, 3, 67, 0
1, 45119, Note_on_c, 3, 71, 0
1, 47940, Note_on_c, 3, 53, 80
1, 47940, Control_c, 3, 2, 80
1, 47940, Note_on_c, 3, 60, 80
1, 47999, Note_on_c, 3, 53, 0
1, 47999, Note_on_c, 3, 60, 0
1, 48000, Note_on_c, 3, 65, 80
1, 48000, Note_on_c, 3, 69, 80
1, 48959, Note_on_c, 3, 65, 0
1, 48959, Note_on_c, 3, 69, 0
1, 51780, Note_on_c, 3, 52, 80
1, 51780, Control_c, 3, 2, 80
1, 51780, Note_on_c, 3, 59, 80
1, 51839, Note_on_c, 3, 52, 0
1, 51839, Note_on_c, 3, 59, 0
1, 51840, Note_on_c, 3, 67, 80
1, 51840, Note_on_c, 3, 71, 80
1, 52799, Note_on_c, 3, 67, 0
1, 52799, Note_on_c, 3, 71, 0
1, 55620, Note_on_c, 3, 53, 80
1, 55620, Control_c, 3, 2, 80
1, 55620, Note_on_c, 3, 60, 80
1, 55679, Note_on_c, 3, 53, 0
1, 55679, Note_on_c, 3, 60, 0
1, 55680, Note_on_c, 3, 65, 80
1, 55680, Note_on_c, 3, 69, 80
1, 56639, Note_on_c, 3, 65, 0
1, 56639, Note_on_c, 3, 69, 0
1, 59460, Note_on_c, 3, 52, 80
1, 59460, Control_c, 3, 2, 80
1, 59460, Note_on_c, 3, 59, 80
1, 59519, Note_on_c, 3, 52, 0
1, 59519, Note_on_c, 3, 59, 0
1, 59520, Note_on_c, 3, 67, 80
1, 59520, Note_on_c, 3, 71, 80
1, 60479, Note_on_c, 3, 67, 0
1, 60479, Note_on_c, 3, 71, 0
1, 63300, Note_on_c, 3, 53, 80
1, 63300, Control_c, 3, 2, 80
1, 63300, Note_on_c, 3, 60, 80
1, 63359, Note_on_c, 3, 53, 0
1, 63359, Note_on_c, 3, 60, 0
1, 63360, Note_on_c, 3, 65, 80
1, 63360, Note_on_c, 3, 69, 80
1, 64319, Note_on_c, 3, 65, 0
1, 64319, Note_on_c, 3, 69, 0
1, 67140, Note_on_c, 3, 59, 80
1, 67140, Control_c, 3, 2, 80
1, 67199, Note_on_c, 3, 59, 0
1, 67200, Note_on_c, 3, 67, 80
1, 67200, Note_on_c, 3, 71, 80
1, 68159, Note_on_c, 3, 67, 0
1, 68159, Note_on_c, 3, 71, 0
1, 70980, Note_on_c, 3, 53, 80
1, 70980, Control_c, 3, 2, 80
1, 70980, Note_on_c, 3, 60, 80
1, 71039, Note_on_c, 3, 53, 0
1, 71039, Note_on_c, 3, 60, 0
1, 71040, Note_on_c, 3, 65, 80
1, 71040, Note_on_c, 3, 69, 80
1, 71999, Note_on_c, 3, 65, 0
1, 71999, Note_on_c, 3, 69, 0
1, 74820, Note_on_c, 3, 52, 80
1, 74820, Control_c, 3, 2, 80
1, 74820, Note_on_c, 3, 59, 80
1, 74879, Note_on_c, 3, 52, 0
1, 74879, Note_on_c, 3, 59, 0
1, 74880, Note_on_c, 3, 67, 80
1, 74880, Note_on_c, 3, 71, 80
1, 75839, Note_on_c, 3, 67, 0
1, 75839, Note_on_c, 3, 71, 0
1, 78660, Note_on_c, 3, 53, 80
1, 78660, Control_c, 3, 2, 80
1, 78660, Note_on_c, 3, 60, 80
1, 78719, Note_on_c, 3, 53, 0
1, 78719, Note_on_c, 3, 60, 0
1, 78720, Note_on_c, 3, 65, 80
1, 78720, Note_on_c, 3, 69, 80
1, 79679, Note_on_c, 3, 65, 0
1, 79679, Note_on_c, 3, 69, 0
1, 82500, Note_on_c, 3, 52, 80
1, 82500, Control_c, 3, 2, 80
1, 82500, Note_on_c, 3, 59, 80
1, 82559, Note_on_c, 3, 52, 0
1, 82559, Note_on_c, 3, 59, 0
1, 82560, Note_on_c, 3, 67, 80
1, 82560, Note_on_c, 3, 71, 80
1, 83519, Note_on_c, 3, 67, 0
1, 83519, Note_on_c, 3, 71, 0
1, 86340, Note_on_c, 3, 53, 80
1, 86340, Control_c, 3, 2, 80
1, 86340, Note_on_c, 3, 57, 80
1, 86340, Note_on_c, 3, 60, 80
1, 86399, Note_on_c, 3, 53, 0
1, 86399, Note_on_c, 3, 57, 0
1, 86399, Note_on_c, 3, 60, 0
1, 86400, Note_on_c, 3, 65, 80
1, 86400, Note_on_c, 3, 69, 80
1, 87359, Note_on_c, 3, 65, 0
1, 87359, Note_on_c, 3, 69, 0
1, 90180, Note_on_c, 3, 52, 80
1, 90180, Control_c, 3, 2, 80
1, 90180, Note_on_c, 3, 55, 80
1, 90180, Note_on_c, 3, 59, 80
1, 90239, Note_on_c, 3, 52, 0
1, 90239, Note_on_c, 3, 55, 0
1, 90239, Note_on_c, 3, 59, 0
1, 90240, Note_on_c, 3, 67, 80
1, 90240, Note_on_c, 3, 71, 80
1, 91199, Note_on_c, 3, 67, 0
1, 91199, Note_on_c, 3, 71, 0
1, 94020, Note_on_c, 3, 53, 80
1, 94020, Control_c, 3, 2, 80
1, 94020, Note_on_c, 3, 57, 80
1, 94020, Note_on_c, 3, 60, 80
1, 94079, Note_on_c, 3, 53, 0
1, 94079, Note_on_c, 3, 57, 0
1, 94079, Note_on_c, 3, 60, 0
1, 94080, Note_on_c, 3, 65, 80
1, 94080, Note_on_c, 3, 69, 80
1, 95039, Note_on_c, 3, 65, 0
1, 95039, Note_on_c, 3, 69, 0
1, 97860, Note_on_c, 3, 52, 80
1, 97860, Control_c, 3, 2, 80
1, 97860, Note_on_c, 3, 55, 80
1, 97860, Note_on_c, 3, 59, 80
1, 97919, Note_on_c, 3, 52, 0
1, 97919, Note_on_c, 3, 55, 0
1, 97919, Note_on_c, 3, 59, 0
1, 97920, Note_on_c, 3, 67, 80
1, 97920, Note_on_c, 3, 71, 80
1, 98879, Note_on_c, 3, 67, 0
1, 98879, Note_on_c, 3, 71, 0
1, 101700, Note_on_c, 3, 53, 80
1, 101700, Control_c, 3, 2, 80
1, 101700, Note_on_c, 3, 57, 80
1, 101700, Note_on_c, 3, 60, 80
1, 101759, Note_on_c, 3, 53, 0
1, 101759, Note_on_c, 3, 57, 0
1, 101759, Note_on_c, 3, 60, 0
1, 101760, Note_on_c, 3, 65, 80
1, 101760, Note_on_c, 3, 69, 80
1, 102719, Note_on_c, 3, 65, 0
1, 102719, Note_on_c, 3, 69, 0
1, 105540, Note_on_c, 3, 52, 80
1, 105540, Control_c, 3, 2, 80
1, 105540, Note_on_c, 3, 55, 80
1, 105540, Note_on_c, 3, 59, 80
1, 105599, Note_on_c, 3, 52, 0
1, 105599, Note_on_c, 3, 55, 0
1, 105599, Note_on_c, 3, 59, 0
1, 105600, Note_on_c, 3, 67, 80
1, 105600, Note_on_c, 3, 71, 80
1, 106559, Note_on_c, 3, 67, 0
1, 106559, Note_on_c, 3, 71, 0
1, 109380, Note_on_c, 3, 53, 80
1, 109380, Control_c, 3, 2, 80
1, 109380, Note_on_c, 3, 57, 80
1, 109380, Note_on_c, 3, 60, 80
1, 109439, Note_on_c, 3, 53, 0
1, 109439, Note_on_c, 3, 57, 0
1, 109439, Note_on_c, 3, 60, 0
1, 109440, Note_on_c, 3, 65, 80
1, 109440, Note_on_c, 3, 69, 80
1, 110399, Note_on_c, 3, 65, 0
1, 110399, Note_on_c, 3, 69, 0
1, 113220, Note_on_c, 3, 52, 80
1, 113220, Control_c, 3, 2, 80
1, 113220, Note_on_c, 3, 55, 80
1, 113220, Note_on_c, 3, 59, 80
1, 113279, Note_on_c, 3, 52, 0
1, 113279, Note_on_c, 3, 55, 0
1, 113279, Note_on_c, 3, 59, 0
1, 113280, Note_on_c, 3, 67, 80
1, 113280, Note_on_c, 3, 71, 80
1, 114239, Note_on_c, 3, 67, 0
1, 114239, Note_on_c, 3, 71, 0
1, 117060, Note_on_c, 3, 53, 80
1, 117060, Control_c, 3, 2, 80
1, 117060, Note_on_c, 3, 57, 80
1, 117060, Note_on_c, 3, 60, 80
1, 117119, Note_on_c, 3, 53, 0
1, 117119, Note_on_c, 3, 57, 0
1, 117119, Note_on_c, 3, 60, 0
1, 117120, Note_on_c, 3, 65, 80
1, 117120, Note_on_c, 3, 69, 80
1, 118079, Note_on_c, 3, 65, 0
1, 118079, Note_on_c, 3, 69, 0
1, 120900, Note_on_c, 3, 52, 80
1, 120900, Control_c, 3, 2, 80
1, 120900, Note_on_c, 3, 55, 80
1, 120900, Note_on_c, 3, 59, 80
1, 120959, Note_on_c, 3, 52, 0
1, 120959, Note_on_c, 3, 55, 0
1, 120959, Note_on_c, 3, 59, 0
1, 120960, Note_on_c, 3, 67, 80
1, 120960, Note_on_c, 3, 71, 80
1, 121919, Note_on_c, 3, 67, 0
1, 121919, Note_on_c, 3, 71, 0
1, 124740, Note_on_c, 3, 53, 80
1, 124740, Control_c, 3, 2, 80
1, 124740, Note_on_c, 3, 57, 80
1, 124740, Note_on_c, 3, 60, 80
1, 124799, Note_on_c, 3, 53, 0
1, 124799, Note_on_c, 3, 57, 0
1, 124799, Note_on_c, 3, 60, 0
1, 124800, Note_on_c, 3, 65, 80
1, 124800, Note_on_c, 3, 69, 80
1, 125759, Note_on_c, 3, 65, 0
1, 125759, Note_on_c, 3, 69, 0
1, 128580, Note_on_c, 3, 52, 80
1, 128580, Control_c, 3, 2, 80
1, 128580, Note_on_c, 3, 55, 80
1, 128580, Note_on_c, 3, 59, 80
1, 128639, Note_on_c, 3, 52, 0
1, 128639, Note_on_c, 3, 55, 0
1, 128639, Note_on_c, 3, 59, 0
1, 128640, Note_on_c, 3, 67, 80
1, 128640, Note_on_c, 3, 71, 80
1, 129599, Note_on_c, 3, 67, 0
1, 129599, Note_on_c, 3, 71, 0
1, 132420, Note_on_c, 3, 53, 80
1, 132420, Control_c, 3, 2, 80
1, 132420, Note_on_c, 3, 57, 80
1, 132420, Note_on_c, 3, 60, 80
1, 132479, Note_on_c, 3, 53, 0
1, 132479, Note_on_c, 3, 57, 0
1, 132479, Note_on_c, 3, 60, 0
1, 132480, Note_on_c, 3, 65, 80
1, 132480, Note_on_c, 3, 69, 80
1, 133439, Note_on_c, 3, 65, 0
1, 133439, Note_on_c, 3, 69, 0
1, 136260, Note_on_c, 3, 52, 80
1, 136260, Control_c, 3, 2, 80
1, 136260, Note_on_c, 3, 55, 80
1, 136260, Note_on_c, 3, 59, 80
1, 136319, Note_on_c, 3, 52, 0
1, 136319, Note_on_c, 3, 55, 0
1, 136319, Note_on_c, 3, 59, 0
1, 136320, Note_on_c, 3, 67, 80
1, 136320, Note_on_c, 3, 71, 80
1, 137279, Note_on_c, 3, 67, 0
1, 137279, Note_on_c, 3, 71, 0
1, 140100, Note_on_c, 3, 53, 80
1, 140100, Control_c, 3, 2, 80
1, 140100, Note_on_c, 3, 57, 80
1, 140100, Note_on_c, 3, 60, 80
1, 140159, Note_on_c, 3, 53, 0
1, 140159, Note_on_c, 3, 57, 0
1, 140159, Note_on_c, 3, 60, 0
1, 140160, Note_on_c, 3, 65, 80
1, 140160, Note_on_c, 3, 69, 80
1, 141119, Note_on_c, 3, 65, 0
1, 141119, Note_on_c, 3, 69, 0
1, 143940, Note_on_c, 3, 52, 80
1, 143940, Control_c, 3, 2, 80
1, 143940, Note_on_c, 3, 55, 80
1, 143940, Note_on_c, 3, 59, 80
1, 143999, Note_on_c, 3, 52, 0
1, 143999, Note_on_c, 3, 55, 0
1, 143999, Note_on_c, 3, 59, 0
1, 144000, Note_on_c, 3, 67, 80
1, 144000, Note_on_c, 3, 71, 80
1, 144959, Note_on_c, 3, 67, 0
1, 144959, Note_on_c, 3, 71, 0
1, 147780, Note_on_c, 3, 53, 80
1, 147780, Control_c, 3, 2, 80
1, 147780, Note_on_c, 3, 57, 80
1, 147780, Note_on_c, 3, 60, 80
1, 147839, Note_on_c, 3, 53, 0
1, 147839, Note_on_c, 3, 57, 0
1, 147839, Note_on_c, 3, 60, 0
1, 147840, Note_on_c, 3, 65, 80
1, 147840, Note_on_c, 3, 69, 80
1, 148799, Note_on_c, 3, 65, 0
1, 148799, Note_on_c, 3, 69, 0
1, 151620, Note_on_c, 3, 52, 80
1, 151620, Control_c, 3, 2, 80
1, 151620, Note_on_c, 3, 55, 80
1, 151620, Note_on_c, 3, 59, 80
1, 151679, Note_on_c, 3, 52, 0
1, 151679, Note_on_c, 3, 55, 0
1, 151679, Note_on_c, 3, 59, 0
1, 151680, Note_on_c, 3, 67, 80
1, 151680, Note_on_c, 3, 71, 80
1, 152639, Note_on_c, 3, 67, 0
1, 152639, Note_on_c, 3, 71, 0
1, 155460, Note_on_c, 3, 53, 80
1, 155460, Control_c, 3, 2, 80
1, 155460, Note_on_c, 3, 57, 80
1, 155460, Note_on_c, 3, 60, 80
1, 155519, Note_on_c, 3, 53, 0
1, 155519, Note_on_c, 3, 57, 0
1, 155519, Note_on_c, 3, 60, 0
1, 155520, Note_on_c, 3, 65, 80
1, 155520, Note_on_c, 3, 69, 80
1, 156479, Note_on_c, 3, 65, 0
1, 156479, Note_on_c, 3, 69, 0
1, 159300, Note_on_c, 3, 52, 80
1, 159300, Control_c, 3, 2, 80
1, 159300, Note_on_c, 3, 55, 80
1, 159300, Note_on_c, 3, 59, 80
1, 159359, Note_on_c, 3, 52, 0
1, 159359, Note_on_c, 3, 55, 0
1, 159359, Note_on_c, 3, 59, 0
1, 159360, Note_on_c, 3, 67, 80
1, 159360, Note_on_c, 3, 71, 80
1, 160319, Note_on_c, 3, 67, 0
1, 160319, Note_on_c, 3, 71, 0
1, 163200, Note_on_c, 3, 53, 80
1, 163200, Control_c, 3, 2, 80
1, 163679, Note_on_c, 3, 53, 0
1, 163680, Note_on_c, 3, 60, 80
1, 163680, Control_c, 3, 2, 80
1, 163680, Note_on_c, 3, 65, 80
1, 164159, Note_on_c, 3, 60, 0
1, 164159, Note_on_c, 3, 65, 0
1, 164160, Note_on_c, 3, 53, 80
1, 164160, Control_c, 3, 2, 80
1, 164639, Note_on_c, 3, 53, 0
1, 164640, Note_on_c, 3, 60, 80
1, 164640, Control_c, 3, 2, 80
1, 164640, Note_on_c, 3, 65, 80
1, 165119, Note_on_c, 3, 60, 0
1, 165119, Note_on_c, 3, 65, 0
1, 165120, Note_on_c, 3, 53, 80
1, 165120, Control_c, 3, 2, 80
1, 165599, Note_on_c, 3, 53, 0
1, 165600, Note_on_c, 3, 60, 80
1, 165600, Control_c, 3, 2, 80
1, 165600, Note_on_c, 3, 65, 80
1, 166079, Note_on_c, 3, 60, 0
1, 166079, Note_on_c, 3, 65, 0
1, 166080, Note_on_c, 3, 53, 80
1, 166080, Control_c, 3, 2, 80
1, 166559, Note_on_c, 3, 53, 0
1, 166560, Note_on_c, 3, 60, 80
1, 166560, Control_c, 3, 2, 80
1, 166560, Note_on_c, 3, 65, 80
1, 167039, Note_on_c, 3, 60, 0
1, 167039, Note_on_c, 3, 65, 0
1, 167040, Note_on_c, 3, 52, 80
1, 167040, Control_c, 3, 2, 80
1, 167519, Note_on_c, 3, 52, 0
1, 167520, Note_on_c, 3, 59, 80
1, 167520, Control_c, 3, 2, 80
1, 167520, Note_on_c, 3, 64, 80
1, 167999, Note_on_c, 3, 59, 0
1, 167999, Note_on_c, 3, 64, 0
1, 168000, Note_on_c, 3, 52, 80
1, 168000, Control_c, 3, 2, 80
1, 168479, Note_on_c, 3, 52, 0
1, 168480, Note_on_c, 3, 59, 80
1, 168480, Control_c, 3, 2, 80
1, 168480, Note_on_c, 3, 64, 80
1, 168959, Note_on_c, 3, 59, 0
1, 168959, Note_on_c, 3, 64, 0
1, 168960, Note_on_c, 3, 52, 80
1, 168960, Control_c, 3, 2, 80
1, 169439, Note_on_c, 3, 52, 0
1, 169440, Note_on_c, 3, 59, 80
1, 169440, Control_c, 3, 2, 80
1, 169440, Note_on_c, 3, 64, 80
1, 169919, Note_on_c, 3, 59, 0
1, 169919, Note_on_c, 3, 64, 0
1, 169920, Note_on_c, 3, 52, 80
1, 169920, Control_c, 3, 2, 80
1, 170399, Note_on_c, 3, 52, 0
1, 170400, Note_on_c, 3, 59, 80
1, 170400, Control_c, 3, 2, 80
1, 170400, Note_on_c, 3, 64, 80
1, 170879, Note_on_c, 3, 59, 0
1, 170879, Note_on_c, 3, 64, 0
1, 170880, Note_on_c, 3, 53, 80
1, 170880, Control_c, 3, 2, 80
1, 171359, Note_on_c, 3, 53, 0
1, 171360, Note_on_c, 3, 60, 80
1, 171360, Control_c, 3, 2, 80
1, 171360, Note_on_c, 3, 65, 80
1, 171839, Note_on_c, 3, 60, 0
1, 171839, Note_on_c, 3, 65, 0
1, 171840, Note_on_c, 3, 53, 80
1, 171840, Control_c, 3, 2, 80
1, 172319, Note_on_c, 3, 53, 0
1, 172320, Note_on_c, 3, 60, 80
1, 172320, Control_c, 3, 2, 80
1, 172320, Note_on_c, 3, 65, 80
1, 172799, Note_on_c, 3, 60, 0
1, 172799, Note_on_c, 3, 65, 0
1, 172800, Note_on_c, 3, 53, 80
1, 172800, Control_c, 3, 2, 80
1, 173279, Note_on_c, 3, 53, 0
1, 173280, Note_on_c, 3, 60, 80
1, 173280, Control_c, 3, 2, 80
1, 173280, Note_on_c, 3, 65, 80
1, 173759, Note_on_c, 3, 60, 0
1, 173759, Note_on_c, 3, 65, 0
1, 173760, Note_on_c, 3, 53, 80
1, 173760, Control_c, 3, 2, 80
1, 174239, Note_on_c, 3, 53, 0
1, 174240, Note_on_c, 3, 60, 80
1, 174240, Control_c, 3, 2, 80
1, 174240, Note_on_c, 3, 65, 80
1, 174719, Note_on_c, 3, 60, 0
1, 174719, Note_on_c, 3, 65, 0
1, 174720, Note_on_c, 3, 52, 80
1, 174720, Control_c, 3, 2, 80
1, 175199, Note_on_c, 3, 52, 0
1, 175200, Note_on_c, 3, 59, 80
1, 175200, Control_c, 3, 2, 80
1, 175200, Note_on_c, 3, 64, 80
1, 175679, Note_on_c, 3, 59, 0
1, 175679, Note_on_c, 3, 64, 0
1, 175680, Note_on_c, 3, 52, 80
1, 175680, Control_c, 3, 2, 80
1, 176159, Note_on_c, 3, 52, 0
1, 176160, Note_on_c, 3, 59, 80
1, 176160, Control_c, 3, 2, 80
1, 176160, Note_on_c, 3, 64, 80
1, 176639, Note_on_c, 3, 59, 0
1, 176639, Note_on_c, 3, 64, 0
1, 176640, Note_on_c, 3, 52, 80
1, 176640, Control_c, 3, 2, 80
1, 177119, Note_on_c, 3, 52, 0
1, 177120, Note_on_c, 3, 59, 80
1, 177120, Control_c, 3, 2, 80
1, 177120, Note_on_c, 3, 64, 80
1, 177599, Note_on_c, 3, 59, 0
1, 177599, Note_on_c, 3, 64, 0
1, 177600, Note_on_c, 3, 52, 80
1, 177600, Control_c, 3, 2, 80
1, 178079, Note_on_c, 3, 52, 0
1, 178080, Note_on_c, 3, 59, 80
1, 178080, Control_c, 3, 2, 80
1, 178080, Note_on_c, 3, 64, 80
1, 178559, Note_on_c, 3, 59, 0
1, 178559, Note_on_c, 3, 64, 0
1, 178560, Note_on_c, 3, 53, 80
1, 178560, Control_c, 3, 2, 80
1, 179039, Note_on_c, 3, 53, 0
1, 179040, Note_on_c, 3, 60, 80
1, 179040, Control_c, 3, 2, 80
1, 179040, Note_on_c, 3, 65, 80
1, 179519, Note_on_c, 3, 60, 0
1, 179519, Note_on_c, 3, 65, 0
1, 179520, Note_on_c, 3, 53, 80
1, 179520, Control_c, 3, 2, 80
1, 179999, Note_on_c, 3, 53, 0
1, 180000, Note_on_c, 3, 60, 80
1, 180000, Control_c, 3, 2, 80
1, 180000, Note_on_c, 3, 65, 80
1, 180479, Note_on_c, 3, 60, 0
1, 180479, Note_on_c, 3, 65, 0
1, 180480, Note_on_c, 3, 53, 80
1, 180480, Control_c, 3, 2, 80
1, 180959, Note_on_c, 3, 53, 0
1, 180960, Note_on_c, 3, 60, 80
1, 180960, Control_c, 3, 2, 80
1, 180960, Note_on_c, 3, 65, 80
1, 181439, Note_on_c, 3, 60, 0
1, 181439, Note_on_c, 3, 65, 0
1, 181440, Note_on_c, 3, 53, 80
1, 181440, Control_c, 3, 2, 80
1, 181919, Note_on_c, 3, 53, 0
1, 181920, Note_on_c, 3, 60, 80
1, 181920, Control_c, 3, 2, 80
1, 181920, Note_on_c, 3, 65, 80
1, 182399, Note_on_c, 3, 60, 0
1, 182399, Note_on_c, 3, 65, 0
1, 182400, Note_on_c, 3, 52, 80
1, 182400, Control_c, 3, 2, 80
1, 182879, Note_on_c, 3, 52, 0
1, 182880, Note_on_c, 3, 59, 80
1, 182880, Control_c, 3, 2, 80
1, 182880, Note_on_c, 3, 64, 80
1, 183359, Note_on_c, 3, 59, 0
1, 183359, Note_on_c, 3, 64, 0
1, 183360, Note_on_c, 3, 52, 80
1, 183360, Control_c, 3, 2, 80
1, 183839, Note_on_c, 3, 52, 0
1, 183840, Note_on_c, 3, 59, 80
1, 183840, Control_c, 3, 2, 80
1, 183840, Note_on_c, 3, 64, 80
1, 184319, Note_on_c, 3, 59, 0
1, 184319, Note_on_c, 3, 64, 0
1, 184320, Note_on_c, 3, 52, 80
1, 184320, Control_c, 3, 2, 80
1, 184799, Note_on_c, 3, 52, 0
1, 184800, Note_on_c, 3, 59, 80
1, 184800, Control_c, 3, 2, 80
1, 184800, Note_on_c, 3, 64, 80
1, 185279, Note_on_c, 3, 59, 0
1, 185279, Note_on_c, 3, 64, 0
1, 185280, Note_on_c, 3, 52, 80
1, 185280, Control_c, 3, 2, 80
1, 185759, Note_on_c, 3, 52, 0
1, 185760, Note_on_c, 3, 59, 80
1, 185760, Control_c, 3, 2, 80
1, 185760, Note_on_c, 3, 64, 80
1, 186239, Note_on_c, 3, 59, 0
1, 186239, Note_on_c, 3, 64, 0
1, 186240, Note_on_c, 3, 53, 80
1, 186240, Control_c, 3, 2, 80
1, 186719, Note_on_c, 3, 53, 0
1, 186720, Note_on_c, 3, 60, 80
1, 186720, Control_c, 3, 2, 80
1, 186720, Note_on_c, 3, 65, 80
1, 187199, Note_on_c, 3, 60, 0
1, 187199, Note_on_c, 3, 65, 0
1, 187200, Note_on_c, 3, 53, 80
1, 187200, Control_c, 3, 2, 80
1, 187679, Note_on_c, 3, 53, 0
1, 187680, Note_on_c, 3, 60, 80
1, 187680, Control_c, 3, 2, 80
1, 187680, Note_on_c, 3, 65, 80
1, 188159, Note_on_c, 3, 60, 0
1, 188159, Note_on_c, 3, 65, 0
1, 188160, Note_on_c, 3, 53, 80
1, 188160, Control_c, 3, 2, 80
1, 188639, Note_on_c, 3, 53, 0
1, 188640, Note_on_c, 3, 60, 80
1, 188640, Control_c, 3, 2, 80
1, 188640, Note_on_c, 3, 65, 80
1, 189119, Note_on_c, 3, 60, 0
1, 189119, Note_on_c, 3, 65, 0
1, 189120, Note_on_c, 3, 53, 80
1, 189120, Control_c, 3, 2, 80
1, 189599, Note_on_c, 3, 53, 0
1, 189600, Note_on_c, 3, 60, 80
1, 189600, Control_c, 3, 2, 80
1, 189600, Note_on_c, 3, 65, 80
1, 190079, Note_on_c, 3, 60, 0
1, 190079, Note_on_c, 3, 65, 0
1, 190080, Note_on_c, 3, 52, 80
1, 190080, Control_c, 3, 2, 80
1, 190559, Note_on_c, 3, 52, 0
1, 190560, Note_on_c, 3, 59, 80
1, 190560, Control_c, 3, 2, 80
1, 190560, Note_on_c, 3, 64, 80
1, 191039, Note_on_c, 3, 59, 0
1, 191039, Note_on_c, 3, 64, 0
1, 191040, Note_on_c, 3, 52, 80
1, 191040, Control_c, 3, 2, 80
1, 191519, Note_on_c, 3, 52, 0
1, 191520, Note_on_c, 3, 59, 80
1, 191520, Control_c, 3, 2, 80
1, 191520, Note_on_c, 3, 64, 80
1, 191999, Note_on_c, 3, 59, 0
1, 191999, Note_on_c, 3, 64, 0
1, 192000, Note_on_c, 3, 52, 80
1, 192000, Control_c, 3, 2, 80
1, 192479, Note_on_c, 3, 52, 0
1, 192480, Note_on_c, 3, 59, 80
1, 192480, Control_c, 3, 2, 80
1, 192480, Note_on_c, 3, 64, 80
1, 192959, Note_on_c, 3, 59, 0
1, 192959, Note_on_c, 3, 64, 0
1, 192960, Note_on_c, 3, 52, 80
1, 192960, Control_c, 3, 2, 80
1, 193439, Note_on_c, 3, 52, 0
1, 193440, Note_on_c, 3, 59, 80
1, 193440, Control_c, 3, 2, 80
1, 193440, Note_on_c, 3, 64, 80
1, 193919, Note_on_c, 3, 59, 0
1, 193919, Note_on_c, 3, 64, 0
1, 193920, Note_on_c, 3, 53, 80
1, 193920, Control_c, 3, 2, 80
1, 194399, Note_on_c, 3, 53, 0
1, 194400, Note_on_c, 3, 60, 80
1, 194400, Control_c, 3, 2, 80
1, 194400, Note_on_c, 3, 65, 80
1, 194879, Note_on_c, 3, 60, 0
1, 194879, Note_on_c, 3, 65, 0
1, 194880, Note_on_c, 3, 53, 80
1, 194880, Control_c, 3, 2, 80
1, 195359, Note_on_c, 3, 53, 0
1, 195360, Note_on_c, 3, 60, 80
1, 195360, Control_c, 3, 2, 80
1, 195360, Note_on_c, 3, 65, 80
1, 195839, Note_on_c, 3, 60, 0
1, 195839, Note_on_c, 3, 65, 0
1, 195840, Note_on_c, 3, 53, 80
1, 195840, Control_c, 3, 2, 80
1, 196319, Note_on_c, 3, 53, 0
1, 196320, Note_on_c, 3, 60, 80
1, 196320, Control_c, 3, 2, 80
1, 196320, Note_on_c, 3, 65, 80
1, 196799, Note_on_c, 3, 60, 0
1, 196799, Note_on_c, 3, 65, 0
1, 196800, Note_on_c, 3, 53, 80
1, 196800, Control_c, 3, 2, 80
1, 197279, Note_on_c, 3, 53, 0
1, 197280, Note_on_c, 3, 60, 80
1, 197280, Control_c, 3, 2, 80
1, 197280, Note_on_c, 3, 65, 80
1, 197759, Note_on_c, 3, 60, 0
1, 197759, Note_on_c, 3, 65, 0
1, 197760, Note_on_c, 3, 52, 80
1, 197760, Control_c, 3, 2, 80
1, 198239, Note_on_c, 3, 52, 0
1, 198240, Note_on_c, 3, 59, 80
1, 198240, Control_c, 3, 2, 80
1, 198240, Note_on_c, 3, 64, 80
1, 198719, Note_on_c, 3, 59, 0
1, 198719, Note_on_c, 3, 64, 0
1, 198720, Note_on_c, 3, 52, 80
1, 198720, Control_c, 3, 2, 80
1, 199199, Note_on_c, 3, 52, 0
1, 199200, Note_on_c, 3, 59, 80
1, 199200, Control_c, 3, 2, 80
1, 199200, Note_on_c, 3, 64, 80
1, 199679, Note_on_c, 3, 59, 0
1, 199679, Note_on_c, 3, 64, 0
1, 199680, Note_on_c, 3, 52, 80
1, 199680, Control_c, 3, 2, 80
1, 200159, Note_on_c, 3, 52, 0
1, 200160, Note_on_c, 3, 59, 80
1, 200160, Control_c, 3, 2, 80
1, 200160, Note_on_c, 3, 64, 80
1, 200639, Note_on_c, 3, 59, 0
1, 200639, Note_on_c, 3, 64, 0
1, 200640, Note_on_c, 3, 52, 80
1, 200640, Control_c, 3, 2, 80
1, 201119, Note_on_c, 3, 52, 0
1, 201120, Note_on_c, 3, 59, 80
1, 201120, Control_c, 3, 2, 80
1, 201120, Note_on_c, 3, 64, 80
1, 201599, Note_on_c, 3, 59, 0
1, 201599, Note_on_c, 3, 64, 0
1, 201600, Note_on_c, 3, 53, 80
1, 201600, Control_c, 3, 2, 80
1, 202079, Note_on_c, 3, 53, 0
1, 202080, Note_on_c, 3, 60, 80
1, 202080, Control_c, 3, 2, 80
1, 202080, Note_on_c, 3, 65, 80
1, 202559, Note_on_c, 3, 60, 0
1, 202559, Note_on_c, 3, 65, 0
1, 202560, Note_on_c, 3, 53, 80
1, 202560, Control_c, 3, 2, 80
1, 203039, Note_on_c, 3, 53, 0
1, 203040, Note_on_c, 3, 60, 80
1, 203040, Control_c, 3, 2, 80
1, 203040, Note_on_c, 3, 65, 80
1, 203519, Note_on_c, 3, 60, 0
1, 203519, Note_on_c, 3, 65, 0
1, 203520, Note_on_c, 3, 53, 80
1, 203520, Control_c, 3, 2, 80
1, 203999, Note_on_c, 3, 53, 0
1, 204000, Note_on_c, 3, 60, 80
1, 204000, Control_c, 3, 2, 80
1, 204000, Note_on_c, 3, 65, 80
1, 204479, Note_on_c, 3, 60, 0
1, 204479, Note_on_c, 3, 65, 0
1, 204480, Note_on_c, 3, 53, 80
1, 204480, Control_c, 3, 2, 80
1, 204959, Note_on_c, 3, 53, 0
1, 204960, Note_on_c, 3, 60, 80
1, 204960, Control_c, 3, 2, 80
1, 204960, Note_on_c, 3, 65, 80
1, 205439, Note_on_c, 3, 60, 0
1, 205439, Note_on_c, 3, 65, 0
1, 205440, Note_on_c, 3, 59, 80
1, 205440, Control_c, 3, 2, 80
1, 205440, Note_on_c, 3, 64, 80
1, 207360, Control_c, 3, 2, 80
1, 209279, Note_on_c, 3, 59, 0
1, 209279, Note_on_c, 3, 64, 0
1, 209280, Control_c, 3, 64, 0
1, 209281, End_track
2, 0, Start_track
2, 0, Title_t, "Piano\000"
2, 0, Key_signature, 0, "major"
2, 0, Control_c, 1, 121, 0
2, 0, Program_c, 1, 0
2, 0, Control_c, 1, 7, 127
2, 0, Control_c, 1, 10, 64
2, 0, Control_c, 1, 91, 0
2, 0, Control_c, 1, 93, 0
2, 0, MIDI_port, 0
2, 1922, Control_c, 1, 64, 127
2, 24960, Note_on_c, 1, 69, 80
2, 25871, Note_on_c, 1, 69, 0
2, 25920, Note_on_c, 1, 71, 80
2, 26831, Note_on_c, 1, 71, 0
2, 26880, Note_on_c, 1, 72, 80
2, 27791, Note_on_c, 1, 72, 0
2, 27840, Note_on_c, 1, 72, 80
2, 28295, Note_on_c, 1, 72, 0
2, 28320, Note_on_c, 1, 76, 80
2, 29231, Note_on_c, 1, 76, 0
2, 30240, Note_on_c, 1, 71, 80
2, 31151, Note_on_c, 1, 71, 0
2, 32640, Note_on_c, 1, 69, 80
2, 33551, Note_on_c, 1, 69, 0
2, 33600, Note_on_c, 1, 71, 80
2, 34511, Note_on_c, 1, 71, 0
2, 34560, Note_on_c, 1, 72, 80
2, 35471, Note_on_c, 1, 72, 0
2, 35520, Note_on_c, 1, 72, 80
2, 35975, Note_on_c, 1, 72, 0
2, 36000, Note_on_c, 1, 76, 80
2, 36911, Note_on_c, 1, 76, 0
2, 37920, Note_on_c, 1, 74, 80
2, 38831, Note_on_c, 1, 74, 0
2, 41280, Note_on_c, 1, 62, 80
2, 41963, Note_on_c, 1, 62, 0
2, 42000, Note_on_c, 1, 64, 80
2, 42227, Note_on_c, 1, 64, 0
2, 42240, Note_on_c, 1, 62, 80
2, 42467, Note_on_c, 1, 62, 0
2, 42480, Note_on_c, 1, 60, 80
2, 42707, Note_on_c, 1, 60, 0
2, 42720, Note_on_c, 1, 57, 80
2, 43175, Note_on_c, 1, 57, 0
2, 44160, Note_on_c, 1, 62, 80
2, 44387, Note_on_c, 1, 62, 0
2, 44400, Note_on_c, 1, 60, 80
2, 44627, Note_on_c, 1, 60, 0
2, 44640, Note_on_c, 1, 62, 80
2, 44867, Note_on_c, 1, 62, 0
2, 44880, Note_on_c, 1, 60, 80
2, 45107, Note_on_c, 1, 60, 0
2, 45120, Note_on_c, 1, 62, 80
2, 45347, Note_on_c, 1, 62, 0
2, 45360, Note_on_c, 1, 60, 80
2, 45587, Note_on_c, 1, 60, 0
2, 45600, Note_on_c, 1, 62, 80
2, 45827, Note_on_c, 1, 62, 0
2, 45840, Note_on_c, 1, 60, 80
2, 46067, Note_on_c, 1, 60, 0
2, 46080, Note_on_c, 1, 62, 80
2, 46307, Note_on_c, 1, 62, 0
2, 46320, Note_on_c, 1, 60, 80
2, 46547, Note_on_c, 1, 60, 0
2, 46560, Note_on_c, 1, 69, 80
2, 47471, Note_on_c, 1, 69, 0
2, 47520, Note_on_c, 1, 72, 80
2, 47975, Note_on_c, 1, 72, 0
2, 48960, Note_on_c, 1, 62, 80
2, 49643, Note_on_c, 1, 62, 0
2, 49680, Note_on_c, 1, 64, 80
2, 49907, Note_on_c, 1, 64, 0
2, 49920, Note_on_c, 1, 62, 80
2, 50147, Note_on_c, 1, 62, 0
2, 50160, Note_on_c, 1, 60, 80
2, 50387, Note_on_c, 1, 60, 0
2, 50400, Note_on_c, 1, 57, 80
2, 50855, Note_on_c, 1, 57, 0
2, 51840, Note_on_c, 1, 62, 80
2, 52067, Note_on_c, 1, 62, 0
2, 52080, Note_on_c, 1, 60, 80
2, 52307, Note_on_c, 1, 60, 0
2, 52320, Note_on_c, 1, 62, 80
2, 52547, Note_on_c, 1, 62, 0
2, 52560, Note_on_c, 1, 60, 80
2, 52787, Note_on_c, 1, 60, 0
2, 52800, Note_on_c, 1, 62, 80
2, 53027, Note_on_c, 1, 62, 0
2, 53040, Note_on_c, 1, 60, 80
2, 53267, Note_on_c, 1, 60, 0
2, 53280, Note_on_c, 1, 69, 80
2, 54191, Note_on_c, 1, 69, 0
2, 54480, Note_on_c, 1, 57, 80
2, 54707, Note_on_c, 1, 57, 0
2, 54720, Note_on_c, 1, 57, 80
2, 54947, Note_on_c, 1, 57, 0
2, 54960, Note_on_c, 1, 57, 80
2, 55187, Note_on_c, 1, 57, 0
2, 55200, Note_on_c, 1, 60, 80
2, 55655, Note_on_c, 1, 60, 0
2, 56640, Note_on_c, 1, 60, 80
2, 57095, Note_on_c, 1, 60, 0
2, 57600, Note_on_c, 1, 57, 80
2, 58055, Note_on_c, 1, 57, 0
2, 58560, Note_on_c, 1, 50, 80
2, 58787, Note_on_c, 1, 50, 0
2, 58800, Note_on_c, 1, 48, 80
2, 59255, Note_on_c, 1, 48, 0
2, 59520, Note_on_c, 1, 52, 80
2, 60431, Note_on_c, 1, 52, 0
2, 62160, Note_on_c, 1, 57, 80
2, 62387, Note_on_c, 1, 57, 0
2, 62400, Note_on_c, 1, 57, 80
2, 62627, Note_on_c, 1, 57, 0
2, 62640, Note_on_c, 1, 57, 80
2, 62867, Note_on_c, 1, 57, 0
2, 62880, Note_on_c, 1, 60, 80
2, 63335, Note_on_c, 1, 60, 0
2, 64320, Note_on_c, 1, 60, 80
2, 64775, Note_on_c, 1, 60, 0
2, 65280, Note_on_c, 1, 57, 80
2, 65735, Note_on_c, 1, 57, 0
2, 66240, Note_on_c, 1, 50, 80
2, 66467, Note_on_c, 1, 50, 0
2, 66480, Note_on_c, 1, 48, 80
2, 66935, Note_on_c, 1, 48, 0
2, 67200, Note_on_c, 1, 52, 80
2, 68111, Note_on_c, 1, 52, 0
2, 69600, Note_on_c, 1, 57, 80
2, 69827, Note_on_c, 1, 57, 0
2, 69840, Note_on_c, 1, 57, 80
2, 70067, Note_on_c, 1, 57, 0
2, 70080, Note_on_c, 1, 57, 80
2, 70307, Note_on_c, 1, 57, 0
2, 70320, Note_on_c, 1, 60, 80
2, 70775, Note_on_c, 1, 60, 0
2, 71040, Note_on_c, 1, 77, 80
2, 71951, Note_on_c, 1, 77, 0
2, 73920, Note_on_c, 1, 81, 80
2, 74831, Note_on_c, 1, 81, 0
2, 74880, Note_on_c, 1, 76, 80
2, 75791, Note_on_c, 1, 76, 0
2, 78720, Note_on_c, 1, 77, 80
2, 79631, Note_on_c, 1, 77, 0
2, 81600, Note_on_c, 1, 81, 80
2, 82511, Note_on_c, 1, 81, 0
2, 82560, Note_on_c, 1, 83, 80
2, 83471, Note_on_c, 1, 83, 0
2, 86400, Note_on_c, 1, 69, 80
2, 87311, Note_on_c, 1, 69, 0
2, 87360, Note_on_c, 1, 71, 80
2, 88271, Note_on_c, 1, 71, 0
2, 88320, Note_on_c, 1, 72, 80
2, 89231, Note_on_c, 1, 72, 0
2, 89280, Note_on_c, 1, 72, 80
2, 89735, Note_on_c, 1, 72, 0
2, 89760, Note_on_c, 1, 76, 80
2, 90671, Note_on_c, 1, 76, 0
2, 91680, Note_on_c, 1, 71, 80
2, 92591, Note_on_c, 1, 71, 0
2, 94080, Note_on_c, 1, 69, 80
2, 94991, Note_on_c, 1, 69, 0
2, 95040, Note_on_c, 1, 71, 80
2, 95951, Note_on_c, 1, 71, 0
2, 96000, Note_on_c, 1, 72, 80
2, 96911, Note_on_c, 1, 72, 0
2, 96960, Note_on_c, 1, 72, 80
2, 97415, Note_on_c, 1, 72, 0
2, 97440, Note_on_c, 1, 76, 80
2, 97895, Note_on_c, 1, 76, 0
2, 97920, Note_on_c, 1, 76, 80
2, 99287, Note_on_c, 1, 76, 0
2, 99360, Note_on_c, 1, 74, 80
2, 100271, Note_on_c, 1, 74, 0
2, 102720, Note_on_c, 1, 62, 80
2, 103403, Note_on_c, 1, 62, 0
2, 103440, Note_on_c, 1, 64, 80
2, 103667, Note_on_c, 1, 64, 0
2, 103680, Note_on_c, 1, 62, 80
2, 103907, Note_on_c, 1, 62, 0
2, 103920, Note_on_c, 1, 60, 80
2, 104147, Note_on_c, 1, 60, 0
2, 104160, Note_on_c, 1, 57, 80
2, 104615, Note_on_c, 1, 57, 0
2, 105600, Note_on_c, 1, 62, 80
2, 105827, Note_on_c, 1, 62, 0
2, 105840, Note_on_c, 1, 60, 80
2, 106067, Note_on_c, 1, 60, 0
2, 106080, Note_on_c, 1, 62, 80
2, 106307, Note_on_c, 1, 62, 0
2, 106320, Note_on_c, 1, 60, 80
2, 106547, Note_on_c, 1, 60, 0
2, 106560, Note_on_c, 1, 62, 80
2, 106787, Note_on_c, 1, 62, 0
2, 106800, Note_on_c, 1, 60, 80
2, 107027, Note_on_c, 1, 60, 0
2, 107040, Note_on_c, 1, 62, 80
2, 107267, Note_on_c, 1, 62, 0
2, 107280, Note_on_c, 1, 60, 80
2, 107507, Note_on_c, 1, 60, 0
2, 107520, Note_on_c, 1, 62, 80
2, 107747, Note_on_c, 1, 62, 0
2, 107760, Note_on_c, 1, 60, 80
2, 107987, Note_on_c, 1, 60, 0
2, 108000, Note_on_c, 1, 69, 80
2, 108911, Note_on_c, 1, 69, 0
2, 108960, Note_on_c, 1, 72, 80
2, 109415, Note_on_c, 1, 72, 0
2, 110400, Note_on_c, 1, 62, 80
2, 111083, Note_on_c, 1, 62, 0
2, 111120, Note_on_c, 1, 64, 80
2, 111347, Note_on_c, 1, 64, 0
2, 111360, Note_on_c, 1, 62, 80
2, 111587, Note_on_c, 1, 62, 0
2, 111600, Note_on_c, 1, 60, 80
2, 111827, Note_on_c, 1, 60, 0
2, 111840, Note_on_c, 1, 57, 80
2, 112295, Note_on_c, 1, 57, 0
2, 113280, Note_on_c, 1, 62, 80
2, 113507, Note_on_c, 1, 62, 0
2, 113520, Note_on_c, 1, 60, 80
2, 113747, Note_on_c, 1, 60, 0
2, 113760, Note_on_c, 1, 62, 80
2, 113987, Note_on_c, 1, 62, 0
2, 114000, Note_on_c, 1, 60, 80
2, 114227, Note_on_c, 1, 60, 0
2, 114240, Note_on_c, 1, 62, 80
2, 114467, Note_on_c, 1, 62, 0
2, 114480, Note_on_c, 1, 60, 80
2, 114707, Note_on_c, 1, 60, 0
2, 114720, Note_on_c, 1, 69, 80
2, 115631, Note_on_c, 1, 69, 0
2, 115920, Note_on_c, 1, 57, 80
2, 116147, Note_on_c, 1, 57, 0
2, 116160, Note_on_c, 1, 57, 80
2, 116387, Note_on_c, 1, 57, 0
2, 116400, Note_on_c, 1, 57, 80
2, 116627, Note_on_c, 1, 57, 0
2, 116640, Note_on_c, 1, 60, 80
2, 117095, Note_on_c, 1, 60, 0
2, 118080, Note_on_c, 1, 60, 80
2, 118535, Note_on_c, 1, 60, 0
2, 119040, Note_on_c, 1, 57, 80
2, 119495, Note_on_c, 1, 57, 0
2, 120000, Note_on_c, 1, 50, 80
2, 120227, Note_on_c, 1, 50, 0
2, 120240, Note_on_c, 1, 48, 80
2, 120695, Note_on_c, 1, 48, 0
2, 120960, Note_on_c, 1, 52, 80
2, 121871, Note_on_c, 1, 52, 0
2, 123600, Note_on_c, 1, 57, 80
2, 123827, Note_on_c, 1, 57, 0
2, 123840, Note_on_c, 1, 57, 80
2, 124067, Note_on_c, 1, 57, 0
2, 124080, Note_on_c, 1, 57, 80
2, 124307, Note_on_c, 1, 57, 0
2, 124320, Note_on_c, 1, 60, 80
2, 124775, Note_on_c, 1, 60, 0
2, 125760, Note_on_c, 1, 60, 80
2, 126215, Note_on_c, 1, 60, 0
2, 126720, Note_on_c, 1, 57, 80
2, 127175, Note_on_c, 1, 57, 0
2, 127680, Note_on_c, 1, 50, 80
2, 127907, Note_on_c, 1, 50, 0
2, 127920, Note_on_c, 1, 48, 80
2, 128375, Note_on_c, 1, 48, 0
2, 147840, Note_on_c, 1, 77, 80
2, 148751, Note_on_c, 1, 77, 0
2, 150720, Note_on_c, 1, 81, 80
2, 151631, Note_on_c, 1, 81, 0
2, 151680, Note_on_c, 1, 76, 80
2, 152591, Note_on_c, 1, 76, 0
2, 155520, Note_on_c, 1, 77, 80
2, 156431, Note_on_c, 1, 77, 0
2, 158400, Note_on_c, 1, 81, 80
2, 159311, Note_on_c, 1, 81, 0
2, 159360, Note_on_c, 1, 83, 80
2, 160271, Note_on_c, 1, 83, 0
2, 164160, Note_on_c, 1, 74, 80
2, 164843, Note_on_c, 1, 74, 0
2, 164880, Note_on_c, 1, 76, 80
2, 165107, Note_on_c, 1, 76, 0
2, 165120, Note_on_c, 1, 74, 80
2, 165347, Note_on_c, 1, 74, 0
2, 165360, Note_on_c, 1, 72, 80
2, 165587, Note_on_c, 1, 72, 0
2, 165600, Note_on_c, 1, 69, 80
2, 166055, Note_on_c, 1, 69, 0
2, 167040, Note_on_c, 1, 74, 80
2, 167267, Note_on_c, 1, 74, 0
2, 167280, Note_on_c, 1, 72, 80
2, 167507, Note_on_c, 1, 72, 0
2, 167520, Note_on_c, 1, 74, 80
2, 167747, Note_on_c, 1, 74, 0
2, 167760, Note_on_c, 1, 72, 80
2, 167987, Note_on_c, 1, 72, 0
2, 168000, Note_on_c, 1, 74, 80
2, 168227, Note_on_c, 1, 74, 0
2, 168240, Note_on_c, 1, 72, 80
2, 168467, Note_on_c, 1, 72, 0
2, 168480, Note_on_c, 1, 74, 80
2, 168707, Note_on_c, 1, 74, 0
2, 168720, Note_on_c, 1, 72, 80
2, 168947, Note_on_c, 1, 72, 0
2, 168960, Note_on_c, 1, 74, 80
2, 169187, Note_on_c, 1, 74, 0
2, 169200, Note_on_c, 1, 72, 80
2, 169427, Note_on_c, 1, 72, 0
2, 169440, Note_on_c, 1, 81, 80
2, 170351, Note_on_c, 1, 81, 0
2, 170400, Note_on_c, 1, 84, 80
2, 170855, Note_on_c, 1, 84, 0
2, 171840, Note_on_c, 1, 74, 80
2, 172523, Note_on_c, 1, 74, 0
2, 172560, Note_on_c, 1, 76, 80
2, 172787, Note_on_c, 1, 76, 0
2, 172800, Note_on_c, 1, 74, 80
2, 173027, Note_on_c, 1, 74, 0
2, 173040, Note_on_c, 1, 72, 80
2, 173267, Note_on_c, 1, 72, 0
2, 173280, Note_on_c, 1, 69, 80
2, 173735, Note_on_c, 1, 69, 0
2, 174720, Note_on_c, 1, 74, 80
2, 174947, Note_on_c, 1, 74, 0
2, 174960, Note_on_c, 1, 72, 80
2, 175187, Note_on_c, 1, 72, 0
2, 175200, Note_on_c, 1, 74, 80
2, 175427, Note_on_c, 1, 74, 0
2, 175440, Note_on_c, 1, 72, 80
2, 175667, Note_on_c, 1, 72, 0
2, 175680, Note_on_c, 1, 74, 80
2, 175907, Note_on_c, 1, 74, 0
2, 175920, Note_on_c, 1, 72, 80
2, 176147, Note_on_c, 1, 72, 0
2, 176160, Note_on_c, 1, 81, 80
2, 177071, Note_on_c, 1, 81, 0
2, 177360, Note_on_c, 1, 69, 80
2, 177587, Note_on_c, 1, 69, 0
2, 177600, Note_on_c, 1, 69, 80
2, 177827, Note_on_c, 1, 69, 0
2, 177840, Note_on_c, 1, 69, 80
2, 178067, Note_on_c, 1, 69, 0
2, 178080, Note_on_c, 1, 72, 80
2, 178535, Note_on_c, 1, 72, 0
2, 179520, Note_on_c, 1, 74, 80
2, 180203, Note_on_c, 1, 74, 0
2, 180240, Note_on_c, 1, 76, 80
2, 180467, Note_on_c, 1, 76, 0
2, 180480, Note_on_c, 1, 74, 80
2, 180707, Note_on_c, 1, 74, 0
2, 180720, Note_on_c, 1, 72, 80
2, 180947, Note_on_c, 1, 72, 0
2, 180960, Note_on_c, 1, 69, 80
2, 181415, Note_on_c, 1, 69, 0
2, 182400, Note_on_c, 1, 74, 80
2, 182627, Note_on_c, 1, 74, 0
2, 182640, Note_on_c, 1, 72, 80
2, 182867, Note_on_c, 1, 72, 0
2, 182880, Note_on_c, 1, 74, 80
2, 183107, Note_on_c, 1, 74, 0
2, 183120, Note_on_c, 1, 72, 80
2, 183347, Note_on_c, 1, 72, 0
2, 183360, Note_on_c, 1, 74, 80
2, 183587, Note_on_c, 1, 74, 0
2, 183600, Note_on_c, 1, 72, 80
2, 183827, Note_on_c, 1, 72, 0
2, 183840, Note_on_c, 1, 74, 80
2, 184067, Note_on_c, 1, 74, 0
2, 184080, Note_on_c, 1, 72, 80
2, 184307, Note_on_c, 1, 72, 0
2, 184320, Note_on_c, 1, 74, 80
2, 184547, Note_on_c, 1, 74, 0
2, 184560, Note_on_c, 1, 72, 80
2, 184787, Note_on_c, 1, 72, 0
2, 184800, Note_on_c, 1, 81, 80
2, 185711, Note_on_c, 1, 81, 0
2, 185760, Note_on_c, 1, 84, 80
2, 186215, Note_on_c, 1, 84, 0
2, 187200, Note_on_c, 1, 74, 80
2, 187883, Note_on_c, 1, 74, 0
2, 187920, Note_on_c, 1, 76, 80
2, 188147, Note_on_c, 1, 76, 0
2, 188160, Note_on_c, 1, 74, 80
2, 188387, Note_on_c, 1, 74, 0
2, 188400, Note_on_c, 1, 72, 80
2, 188627, Note_on_c, 1, 72, 0
2, 188640, Note_on_c, 1, 69, 80
2, 189095, Note_on_c, 1, 69, 0
2, 190080, Note_on_c, 1, 74, 80
2, 190307, Note_on_c, 1, 74, 0
2, 190320, Note_on_c, 1, 72, 80
2, 190547, Note_on_c, 1, 72, 0
2, 190560, Note_on_c, 1, 74, 80
2, 190787, Note_on_c, 1, 74, 0
2, 190800, Note_on_c, 1, 72, 80
2, 191027, Note_on_c, 1, 72, 0
2, 191040, Note_on_c, 1, 74, 80
2, 191267, Note_on_c, 1, 74, 0
2, 191280, Note_on_c, 1, 72, 80
2, 191507, Note_on_c, 1, 72, 0
2, 191520, Note_on_c, 1, 81, 80
2, 192431, Note_on_c, 1, 81, 0
2, 192720, Note_on_c, 1, 69, 80
2, 192947, Note_on_c, 1, 69, 0
2, 192960, Note_on_c, 1, 69, 80
2, 193187, Note_on_c, 1, 69, 0
2, 193200, Note_on_c, 1, 69, 80
2, 193427, Note_on_c, 1, 69, 0
2, 193440, Note_on_c, 1, 72, 80
2, 193895, Note_on_c, 1, 72, 0
2, 193920, Note_on_c, 1, 60, 80
2, 193920, Note_on_c, 1, 81, 80
2, 194375, Note_on_c, 1, 60, 0
2, 194375, Note_on_c, 1, 81, 0
2, 194400, Note_on_c, 1, 69, 80
2, 194855, Note_on_c, 1, 69, 0
2, 194880, Note_on_c, 1, 60, 80
2, 194880, Note_on_c, 1, 79, 80
2, 195335, Note_on_c, 1, 60, 0
2, 195335, Note_on_c, 1, 79, 0
2, 195600, Note_on_c, 1, 69, 80
2, 195827, Note_on_c, 1, 69, 0
2, 195840, Note_on_c, 1, 60, 80
2, 195840, Note_on_c, 1, 77, 80
2, 196295, Note_on_c, 1, 60, 0
2, 196295, Note_on_c, 1, 77, 0
2, 196560, Note_on_c, 1, 60, 80
2, 196787, Note_on_c, 1, 60, 0
2, 196800, Note_on_c, 1, 60, 80
2, 196800, Note_on_c, 1, 72, 80
2, 197027, Note_on_c, 1, 60, 0
2, 197027, Note_on_c, 1, 72, 0
2, 197040, Note_on_c, 1, 60, 80
2, 197267, Note_on_c, 1, 60, 0
2, 197280, Note_on_c, 1, 76, 80
2, 197507, Note_on_c, 1, 76, 0
2, 197520, Note_on_c, 1, 60, 80
2, 197747, Note_on_c, 1, 60, 0
2, 197760, Note_on_c, 1, 59, 80
2, 198215, Note_on_c, 1, 59, 0
2, 198240, Note_on_c, 1, 55, 80
2, 198695, Note_on_c, 1, 55, 0
2, 198720, Note_on_c, 1, 59, 80
2, 199175, Note_on_c, 1, 59, 0
2, 201600, Note_on_c, 1, 60, 80
2, 201600, Note_on_c, 1, 81, 80
2, 202055, Note_on_c, 1, 60, 0
2, 202055, Note_on_c, 1, 81, 0
2, 202080, Note_on_c, 1, 69, 80
2, 202535, Note_on_c, 1, 69, 0
2, 202560, Note_on_c, 1, 60, 80
2, 202560, Note_on_c, 1, 79, 80
2, 203015, Note_on_c, 1, 60, 0
2, 203015, Note_on_c, 1, 79, 0
2, 203280, Note_on_c, 1, 69, 80
2, 203507, Note_on_c, 1, 69, 0
2, 203520, Note_on_c, 1, 60, 80
2, 203520, Note_on_c, 1, 77, 80
2, 203975, Note_on_c, 1, 60, 0
2, 203975, Note_on_c, 1, 77, 0
2, 204240, Note_on_c, 1, 60, 80
2, 204467, Note_on_c, 1, 60, 0
2, 204480, Note_on_c, 1, 60, 80
2, 204480, Note_on_c, 1, 72, 80
2, 204707, Note_on_c, 1, 60, 0
2, 204707, Note_on_c, 1, 72, 0
2, 204720, Note_on_c, 1, 60, 80
2, 204947, Note_on_c, 1, 60, 0
2, 204960, Note_on_c, 1, 76, 80
2, 205187, Note_on_c, 1, 76, 0
2, 205200, Note_on_c, 1, 60, 80
2, 205427, Note_on_c, 1, 60, 0
2, 205440, Note_on_c, 1, 71, 80
2, 206351, Note_on_c, 1, 71, 0
2, 209280, Control_c, 1, 64, 0
2, 209281, End_track
3, 0, Start_track
3, 0, Title_t, "Baix elèctric\000"
3, 0, Key_signature, 0, "major"
3, 0, Control_c, 11, 121, 0
3, 0, Program_c, 11, 33
3, 0, Control_c, 11, 7, 100
3, 0, Control_c, 11, 10, 106
3, 0, Control_c, 11, 91, 0
3, 0, Control_c, 11, 93, 0
3, 0, MIDI_port, 0
3, 0, Control_c, 12, 121, 0
3, 0, Program_c, 12, 36
3, 0, Control_c, 12, 7, 100
3, 0, Control_c, 12, 10, 106
3, 0, Control_c, 12, 91, 0
3, 0, Control_c, 12, 93, 0
3, 0, MIDI_port, 0
3, 0, Control_c, 13, 121, 0
3, 0, Program_c, 13, 37
3, 0, Control_c, 13, 7, 100
3, 0, Control_c, 13, 10, 106
3, 0, Control_c, 13, 91, 0
3, 0, Control_c, 13, 93, 0
3, 0, MIDI_port, 0
3, 1920, Note_on_c, 11, 53, 80
3, 5759, Note_on_c, 11, 53, 0
3, 5760, Note_on_c, 11, 52, 80
3, 9599, Note_on_c, 11, 52, 0
3, 9600, Note_on_c, 11, 53, 80
3, 13439, Note_on_c, 11, 53, 0
3, 13440, Note_on_c, 11, 52, 80
3, 17279, Note_on_c, 11, 52, 0
3, 17280, Note_on_c, 11, 53, 80
3, 21119, Note_on_c, 11, 53, 0
3, 21120, Note_on_c, 11, 52, 80
3, 24959, Note_on_c, 11, 52, 0
3, 24960, Note_on_c, 11, 53, 80
3, 28799, Note_on_c, 11, 53, 0
3, 28800, Note_on_c, 11, 52, 80
3, 32639, Note_on_c, 11, 52, 0
3, 32640, Note_on_c, 11, 53, 80
3, 36479, Note_on_c, 11, 53, 0
3, 36480, Note_on_c, 11, 52, 80
3, 40319, Note_on_c, 11, 52, 0
3, 40320, Note_on_c, 11, 53, 80
3, 44159, Note_on_c, 11, 53, 0
3, 44160, Note_on_c, 11, 52, 80
3, 47999, Note_on_c, 11, 52, 0
3, 48000, Note_on_c, 11, 53, 80
3, 51839, Note_on_c, 11, 53, 0
3, 51840, Note_on_c, 11, 52, 80
3, 55679, Note_on_c, 11, 52, 0
3, 55680, Note_on_c, 11, 53, 80
3, 59519, Note_on_c, 11, 53, 0
3, 59520, Note_on_c, 11, 52, 80
3, 63359, Note_on_c, 11, 52, 0
3, 63360, Note_on_c, 11, 53, 80
3, 67199, Note_on_c, 11, 53, 0
3, 67200, Note_on_c, 11, 52, 80
3, 71039, Note_on_c, 11, 52, 0
3, 71040, Note_on_c, 11, 53, 80
3, 74879, Note_on_c, 11, 53, 0
3, 74880, Note_on_c, 11, 52, 80
3, 78719, Note_on_c, 11, 52, 0
3, 78720, Note_on_c, 11, 53, 80
3, 82559, Note_on_c, 11, 53, 0
3, 82560, Note_on_c, 11, 52, 80
3, 86399, Note_on_c, 11, 52, 0
3, 86400, Note_on_c, 11, 53, 80
3, 90239, Note_on_c, 11, 53, 0
3, 90240, Note_on_c, 11, 52, 80
3, 94079, Note_on_c, 11, 52, 0
3, 94080, Note_on_c, 11, 53, 80
3, 97919, Note_on_c, 11, 53, 0
3, 101760, Note_on_c, 11, 53, 80
3, 105599, Note_on_c, 11, 53, 0
3, 105600, Note_on_c, 11, 52, 80
3, 109439, Note_on_c, 11, 52, 0
3, 109440, Note_on_c, 11, 53, 80
3, 113279, Note_on_c, 11, 53, 0
3, 113280, Note_on_c, 11, 52, 80
3, 117119, Note_on_c, 11, 52, 0
3, 117120, Note_on_c, 11, 53, 80
3, 120959, Note_on_c, 11, 53, 0
3, 120960, Note_on_c, 11, 52, 80
3, 124799, Note_on_c, 11, 52, 0
3, 124800, Note_on_c, 11, 53, 80
3, 128639, Note_on_c, 11, 53, 0
3, 128640, Note_on_c, 11, 52, 80
3, 132479, Note_on_c, 11, 52, 0
3, 132480, Note_on_c, 11, 53, 80
3, 136319, Note_on_c, 11, 53, 0
3, 136320, Note_on_c, 11, 52, 80
3, 140159, Note_on_c, 11, 52, 0
3, 140160, Note_on_c, 11, 53, 80
3, 143999, Note_on_c, 11, 53, 0
3, 144000, Note_on_c, 11, 52, 80
3, 147839, Note_on_c, 11, 52, 0
3, 147840, Note_on_c, 11, 53, 80
3, 151679, Note_on_c, 11, 53, 0
3, 151680, Note_on_c, 11, 52, 80
3, 155519, Note_on_c, 11, 52, 0
3, 155520, Note_on_c, 11, 53, 80
3, 159359, Note_on_c, 11, 53, 0
3, 159360, Note_on_c, 11, 52, 80
3, 163199, Note_on_c, 11, 52, 0
3, 163200, Note_on_c, 11, 53, 80
3, 164159, Note_on_c, 11, 53, 0
3, 164160, Note_on_c, 11, 53, 80
3, 165119, Note_on_c, 11, 53, 0
3, 165120, Note_on_c, 11, 53, 80
3, 166079, Note_on_c, 11, 53, 0
3, 166080, Note_on_c, 11, 53, 80
3, 167039, Note_on_c, 11, 53, 0
3, 167040, Note_on_c, 11, 52, 80
3, 167999, Note_on_c, 11, 52, 0
3, 168000, Note_on_c, 11, 52, 80
3, 168959, Note_on_c, 11, 52, 0
3, 168960, Note_on_c, 11, 52, 80
3, 169919, Note_on_c, 11, 52, 0
3, 169920, Note_on_c, 11, 52, 80
3, 170879, Note_on_c, 11, 52, 0
3, 170880, Note_on_c, 11, 53, 80
3, 171359, Note_on_c, 11, 53, 0
3, 171360, Note_on_c, 11, 53, 80
3, 171839, Note_on_c, 11, 53, 0
3, 171840, Note_on_c, 11, 53, 80
3, 172319, Note_on_c, 11, 53, 0
3, 172320, Note_on_c, 11, 53, 80
3, 172799, Note_on_c, 11, 53, 0
3, 172800, Note_on_c, 11, 53, 80
3, 173279, Note_on_c, 11, 53, 0
3, 173280, Note_on_c, 11, 53, 80
3, 173759, Note_on_c, 11, 53, 0
3, 173760, Note_on_c, 11, 53, 80
3, 174239, Note_on_c, 11, 53, 0
3, 174240, Note_on_c, 11, 53, 80
3, 174719, Note_on_c, 11, 53, 0
3, 174720, Note_on_c, 11, 52, 80
3, 175199, Note_on_c, 11, 52, 0
3, 175200, Note_on_c, 11, 52, 80
3, 175679, Note_on_c, 11, 52, 0
3, 175680, Note_on_c, 11, 52, 80
3, 176159, Note_on_c, 11, 52, 0
3, 176160, Note_on_c, 11, 52, 80
3, 176639, Note_on_c, 11, 52, 0
3, 176640, Note_on_c, 11, 52, 80
3, 177119, Note_on_c, 11, 52, 0
3, 177120, Note_on_c, 11, 52, 80
3, 177599, Note_on_c, 11, 52, 0
3, 177600, Note_on_c, 11, 52, 80
3, 178079, Note_on_c, 11, 52, 0
3, 178080, Note_on_c, 11, 52, 80
3, 178559, Note_on_c, 11, 52, 0
3, 178560, Note_on_c, 11, 53, 80
3, 179039, Note_on_c, 11, 53, 0
3, 179040, Note_on_c, 11, 53, 80
3, 179519, Note_on_c, 11, 53, 0
3, 179520, Note_on_c, 11, 53, 80
3, 179999, Note_on_c, 11, 53, 0
3, 180000, Note_on_c, 11, 53, 80
3, 180479, Note_on_c, 11, 53, 0
3, 180480, Note_on_c, 11, 53, 80
3, 180959, Note_on_c, 11, 53, 0
3, 180960, Note_on_c, 11, 53, 80
3, 181439, Note_on_c, 11, 53, 0
3, 181440, Note_on_c, 11, 53, 80
3, 181919, Note_on_c, 11, 53, 0
3, 181920, Note_on_c, 11, 53, 80
3, 182399, Note_on_c, 11, 53, 0
3, 182400, Note_on_c, 11, 52, 80
3, 182879, Note_on_c, 11, 52, 0
3, 182880, Note_on_c, 11, 52, 80
3, 183359, Note_on_c, 11, 52, 0
3, 183360, Note_on_c, 11, 52, 80
3, 183839, Note_on_c, 11, 52, 0
3, 183840, Note_on_c, 11, 52, 80
3, 184319, Note_on_c, 11, 52, 0
3, 184320, Note_on_c, 11, 52, 80
3, 184799, Note_on_c, 11, 52, 0
3, 184800, Note_on_c, 11, 52, 80
3, 185279, Note_on_c, 11, 52, 0
3, 185280, Note_on_c, 11, 52, 80
3, 185759, Note_on_c, 11, 52, 0
3, 185760, Note_on_c, 11, 52, 80
3, 186239, Note_on_c, 11, 52, 0
3, 186240, Note_on_c, 11, 53, 80
3, 186719, Note_on_c, 11, 53, 0
3, 186720, Note_on_c, 11, 53, 80
3, 187199, Note_on_c, 11, 53, 0
3, 187200, Note_on_c, 11, 53, 80
3, 187679, Note_on_c, 11, 53, 0
3, 187680, Note_on_c, 11, 53, 80
3, 188159, Note_on_c, 11, 53, 0
3, 188160, Note_on_c, 11, 53, 80
3, 188639, Note_on_c, 11, 53, 0
3, 188640, Note_on_c, 11, 53, 80
3, 189119, Note_on_c, 11, 53, 0
3, 189120, Note_on_c, 11, 53, 80
3, 189599, Note_on_c, 11, 53, 0
3, 189600, Note_on_c, 11, 53, 80
3, 190079, Note_on_c, 11, 53, 0
3, 190080, Note_on_c, 11, 52, 80
3, 190559, Note_on_c, 11, 52, 0
3, 190560, Note_on_c, 11, 52, 80
3, 191039, Note_on_c, 11, 52, 0
3, 191040, Note_on_c, 11, 52, 80
3, 191519, Note_on_c, 11, 52, 0
3, 191520, Note_on_c, 11, 52, 80
3, 191999, Note_on_c, 11, 52, 0
3, 192000, Note_on_c, 11, 52, 80
3, 192479, Note_on_c, 11, 52, 0
3, 192480, Note_on_c, 11, 52, 80
3, 192959, Note_on_c, 11, 52, 0
3, 192960, Note_on_c, 11, 52, 80
3, 193439, Note_on_c, 11, 52, 0
3, 193440, Note_on_c, 11, 52, 80
3, 193919, Note_on_c, 11, 52, 0
3, 193920, Note_on_c, 11, 53, 80
3, 194399, Note_on_c, 11, 53, 0
3, 194400, Note_on_c, 11, 53, 80
3, 194879, Note_on_c, 11, 53, 0
3, 194880, Note_on_c, 11, 53, 80
3, 195359, Note_on_c, 11, 53, 0
3, 195360, Note_on_c, 11, 53, 80
3, 195839, Note_on_c, 11, 53, 0
3, 195840, Note_on_c, 11, 53, 80
3, 196319, Note_on_c, 11, 53, 0
3, 196320, Note_on_c, 11, 53, 80
3, 196799, Note_on_c, 11, 53, 0
3, 196800, Note_on_c, 11, 53, 80
3, 197279, Note_on_c, 11, 53, 0
3, 197280, Note_on_c, 11, 53, 80
3, 197759, Note_on_c, 11, 53, 0
3, 197760, Note_on_c, 11, 52, 80
3, 198239, Note_on_c, 11, 52, 0
3, 198240, Note_on_c, 11, 52, 80
3, 198719, Note_on_c, 11, 52, 0
3, 198720, Note_on_c, 11, 52, 80
3, 199199, Note_on_c, 11, 52, 0
3, 199200, Note_on_c, 11, 52, 80
3, 199679, Note_on_c, 11, 52, 0
3, 199680, Note_on_c, 11, 52, 80
3, 200159, Note_on_c, 11, 52, 0
3, 200160, Note_on_c, 11, 52, 80
3, 200639, Note_on_c, 11, 52, 0
3, 200640, Note_on_c, 11, 52, 80
3, 201119, Note_on_c, 11, 52, 0
3, 201120, Note_on_c, 11, 52, 80
3, 201599, Note_on_c, 11, 52, 0
3, 201600, Note_on_c, 11, 53, 80
3, 202079, Note_on_c, 11, 53, 0
3, 202080, Note_on_c, 11, 53, 80
3, 202559, Note_on_c, 11, 53, 0
3, 202560, Note_on_c, 11, 53, 80
3, 203039, Note_on_c, 11, 53, 0
3, 203040, Note_on_c, 11, 53, 80
3, 203519, Note_on_c, 11, 53, 0
3, 203520, Note_on_c, 11, 53, 80
3, 203999, Note_on_c, 11, 53, 0
3, 204000, Note_on_c, 11, 53, 80
3, 204479, Note_on_c, 11, 53, 0
3, 204480, Note_on_c, 11, 53, 80
3, 204959, Note_on_c, 11, 53, 0
3, 204960, Note_on_c, 11, 53, 80
3, 205439, Note_on_c, 11, 53, 0
3, 205440, Note_on_c, 11, 52, 80
3, 209279, Note_on_c, 11, 52, 0
3, 209280, End_track
4, 0, Start_track
4, 0, Title_t, "Bell\000"
4, 0, Key_signature, 0, "major"
4, 0, Control_c, 0, 121, 0
4, 0, Program_c, 0, 14
4, 0, Control_c, 0, 7, 100
4, 0, Control_c, 0, 10, 64
4, 0, Control_c, 0, 91, 0
4, 0, Control_c, 0, 93, 0
4, 0, MIDI_port, 0
4, 1922, Control_c, 0, 64, 127
4, 9120, Note_on_c, 0, 64, 80
4, 9120, Control_c, 0, 2, 80
4, 9599, Note_on_c, 0, 64, 0
4, 9600, Note_on_c, 0, 72, 80
4, 9600, Control_c, 0, 2, 80
4, 9839, Note_on_c, 0, 72, 0
4, 9840, Note_on_c, 0, 72, 80
4, 9840, Control_c, 0, 2, 80
4, 10319, Note_on_c, 0, 72, 0
4, 10320, Note_on_c, 0, 72, 80
4, 10320, Control_c, 0, 2, 80
4, 10439, Note_on_c, 0, 72, 0
4, 10440, Note_on_c, 0, 72, 80
4, 10559, Note_on_c, 0, 72, 0
4, 10560, Note_on_c, 0, 69, 80
4, 11279, Note_on_c, 0, 69, 0
4, 11280, Note_on_c, 0, 69, 80
4, 11280, Control_c, 0, 2, 80
4, 11399, Note_on_c, 0, 69, 0
4, 11400, Note_on_c, 0, 69, 80
4, 11519, Note_on_c, 0, 69, 0
4, 11520, Note_on_c, 0, 72, 80
4, 11759, Note_on_c, 0, 72, 0
4, 11760, Note_on_c, 0, 72, 80
4, 11760, Control_c, 0, 2, 80
4, 12239, Note_on_c, 0, 72, 0
4, 12240, Note_on_c, 0, 72, 80
4, 12240, Control_c, 0, 2, 80
4, 12359, Note_on_c, 0, 72, 0
4, 12360, Note_on_c, 0, 72, 80
4, 12479, Note_on_c, 0, 72, 0
4, 12480, Note_on_c, 0, 69, 80
4, 13199, Note_on_c, 0, 69, 0
4, 13200, Note_on_c, 0, 69, 80
4, 13200, Control_c, 0, 2, 80
4, 13319, Note_on_c, 0, 69, 0
4, 13320, Note_on_c, 0, 69, 80
4, 13439, Note_on_c, 0, 69, 0
4, 13440, Note_on_c, 0, 71, 80
4, 13440, Control_c, 0, 2, 80
4, 13679, Note_on_c, 0, 71, 0
4, 13680, Note_on_c, 0, 71, 80
4, 13680, Control_c, 0, 2, 80
4, 14159, Note_on_c, 0, 71, 0
4, 14160, Note_on_c, 0, 71, 80
4, 14160, Control_c, 0, 2, 80
4, 14279, Note_on_c, 0, 71, 0
4, 14280, Note_on_c, 0, 71, 80
4, 14399, Note_on_c, 0, 71, 0
4, 14400, Note_on_c, 0, 69, 80
4, 15119, Note_on_c, 0, 69, 0
4, 15120, Note_on_c, 0, 69, 80
4, 15120, Control_c, 0, 2, 80
4, 15239, Note_on_c, 0, 69, 0
4, 15240, Note_on_c, 0, 69, 80
4, 15359, Note_on_c, 0, 69, 0
4, 15360, Note_on_c, 0, 71, 80
4, 15599, Note_on_c, 0, 71, 0
4, 15600, Note_on_c, 0, 71, 80
4, 15600, Control_c, 0, 2, 80
4, 16079, Note_on_c, 0, 71, 0
4, 16080, Note_on_c, 0, 71, 80
4, 16080, Control_c, 0, 2, 80
4, 16199, Note_on_c, 0, 71, 0
4, 16200, Note_on_c, 0, 71, 80
4, 16319, Note_on_c, 0, 71, 0
4, 16320, Note_on_c, 0, 69, 80
4, 16799, Note_on_c, 0, 69, 0
4, 17040, Note_on_c, 0, 69, 80
4, 17040, Control_c, 0, 2, 80
4, 17279, Note_on_c, 0, 69, 0
4, 17280, Note_on_c, 0, 72, 80
4, 17280, Control_c, 0, 2, 80
4, 17519, Note_on_c, 0, 72, 0
4, 17520, Note_on_c, 0, 72, 80
4, 17520, Control_c, 0, 2, 80
4, 17999, Note_on_c, 0, 72, 0
4, 18000, Note_on_c, 0, 72, 80
4, 18000, Control_c, 0, 2, 80
4, 18119, Note_on_c, 0, 72, 0
4, 18120, Note_on_c, 0, 72, 80
4, 18239, Note_on_c, 0, 72, 0
4, 18240, Note_on_c, 0, 69, 80
4, 18959, Note_on_c, 0, 69, 0
4, 18960, Note_on_c, 0, 69, 80
4, 18960, Control_c, 0, 2, 80
4, 19079, Note_on_c, 0, 69, 0
4, 19080, Note_on_c, 0, 69, 80
4, 19199, Note_on_c, 0, 69, 0
4, 19200, Note_on_c, 0, 72, 80
4, 19439, Note_on_c, 0, 72, 0
4, 19440, Note_on_c, 0, 72, 80
4, 19440, Control_c, 0, 2, 80
4, 19919, Note_on_c, 0, 72, 0
4, 19920, Note_on_c, 0, 72, 80
4, 19920, Control_c, 0, 2, 80
4, 20039, Note_on_c, 0, 72, 0
4, 20040, Note_on_c, 0, 72, 80
4, 20159, Note_on_c, 0, 72, 0
4, 20160, Note_on_c, 0, 69, 80
4, 20879, Note_on_c, 0, 69, 0
4, 20880, Note_on_c, 0, 69, 80
4, 20880, Control_c, 0, 2, 80
4, 20999, Note_on_c, 0, 69, 0
4, 21000, Note_on_c, 0, 69, 80
4, 21119, Note_on_c, 0, 69, 0
4, 21120, Note_on_c, 0, 71, 80
4, 21120, Control_c, 0, 2, 80
4, 21359, Note_on_c, 0, 71, 0
4, 21360, Note_on_c, 0, 71, 80
4, 21360, Control_c, 0, 2, 80
4, 21839, Note_on_c, 0, 71, 0
4, 21840, Note_on_c, 0, 71, 80
4, 21840, Control_c, 0, 2, 80
4, 21959, Note_on_c, 0, 71, 0
4, 21960, Note_on_c, 0, 71, 80
4, 22079, Note_on_c, 0, 71, 0
4, 22080, Note_on_c, 0, 69, 80
4, 22799, Note_on_c, 0, 69, 0
4, 22800, Note_on_c, 0, 69, 80
4, 22800, Control_c, 0, 2, 80
4, 22919, Note_on_c, 0, 69, 0
4, 22920, Note_on_c, 0, 69, 80
4, 23039, Note_on_c, 0, 69, 0
4, 23040, Note_on_c, 0, 71, 80
4, 23279, Note_on_c, 0, 71, 0
4, 23280, Note_on_c, 0, 71, 80
4, 23280, Control_c, 0, 2, 80
4, 23759, Note_on_c, 0, 71, 0
4, 23760, Note_on_c, 0, 71, 80
4, 23760, Control_c, 0, 2, 80
4, 23879, Note_on_c, 0, 71, 0
4, 23880, Note_on_c, 0, 71, 80
4, 23999, Note_on_c, 0, 71, 0
4, 24000, Note_on_c, 0, 69, 80
4, 24959, Note_on_c, 0, 69, 0
4, 24960, Note_on_c, 0, 81, 80
4, 24960, Control_c, 0, 2, 80
4, 25919, Note_on_c, 0, 81, 0
4, 25920, Note_on_c, 0, 79, 80
4, 25920, Control_c, 0, 2, 80
4, 26879, Note_on_c, 0, 79, 0
4, 26880, Note_on_c, 0, 77, 80
4, 26880, Control_c, 0, 2, 80
4, 27839, Note_on_c, 0, 77, 0
4, 27840, Note_on_c, 0, 72, 80
4, 27840, Control_c, 0, 2, 80
4, 28319, Note_on_c, 0, 72, 0
4, 28320, Note_on_c, 0, 76, 80
4, 28320, Control_c, 0, 2, 80
4, 28799, Note_on_c, 0, 76, 0
4, 30240, Note_on_c, 0, 74, 80
4, 30240, Control_c, 0, 2, 80
4, 30720, Control_c, 0, 2, 80
4, 31199, Note_on_c, 0, 74, 0
4, 32160, Note_on_c, 0, 81, 80
4, 32160, Control_c, 0, 2, 80
4, 32639, Note_on_c, 0, 81, 0
4, 32640, Note_on_c, 0, 81, 80
4, 32640, Control_c, 0, 2, 80
4, 33599, Note_on_c, 0, 81, 0
4, 33600, Note_on_c, 0, 79, 80
4, 33600, Control_c, 0, 2, 80
4, 34559, Note_on_c, 0, 79, 0
4, 34560, Note_on_c, 0, 77, 80
4, 34560, Control_c, 0, 2, 80
4, 35519, Note_on_c, 0, 77, 0
4, 35520, Note_on_c, 0, 72, 80
4, 35520, Control_c, 0, 2, 80
4, 35999, Note_on_c, 0, 72, 0
4, 36000, Note_on_c, 0, 76, 80
4, 36000, Control_c, 0, 2, 80
4, 36480, Control_c, 0, 2, 80
4, 36959, Note_on_c, 0, 76, 0
4, 37920, Note_on_c, 0, 79, 80
4, 37920, Control_c, 0, 2, 80
4, 38400, Control_c, 0, 2, 80
4, 39839, Note_on_c, 0, 79, 0
4, 41280, Note_on_c, 0, 74, 80
4, 41280, Control_c, 0, 2, 80
4, 41999, Note_on_c, 0, 74, 0
4, 42000, Note_on_c, 0, 76, 80
4, 42000, Control_c, 0, 2, 80
4, 42239, Note_on_c, 0, 76, 0
4, 42240, Note_on_c, 0, 74, 80
4, 42479, Note_on_c, 0, 74, 0
4, 42480, Note_on_c, 0, 72, 80
4, 42480, Control_c, 0, 2, 80
4, 42719, Note_on_c, 0, 72, 0
4, 42720, Note_on_c, 0, 69, 80
4, 43199, Note_on_c, 0, 69, 0
4, 44160, Note_on_c, 0, 74, 80
4, 44160, Control_c, 0, 2, 80
4, 44399, Note_on_c, 0, 74, 0
4, 44400, Note_on_c, 0, 72, 80
4, 44400, Control_c, 0, 2, 80
4, 44639, Note_on_c, 0, 72, 0
4, 44640, Note_on_c, 0, 74, 80
4, 44879, Note_on_c, 0, 74, 0
4, 44880, Note_on_c, 0, 72, 80
4, 44880, Control_c, 0, 2, 80
4, 45119, Note_on_c, 0, 72, 0
4, 45120, Note_on_c, 0, 74, 80
4, 45359, Note_on_c, 0, 74, 0
4, 45360, Note_on_c, 0, 72, 80
4, 45360, Control_c, 0, 2, 80
4, 45599, Note_on_c, 0, 72, 0
4, 45600, Note_on_c, 0, 74, 80
4, 45839, Note_on_c, 0, 74, 0
4, 45840, Note_on_c, 0, 72, 80
4, 45840, Control_c, 0, 2, 80
4, 46079, Note_on_c, 0, 72, 0
4, 46080, Note_on_c, 0, 74, 80
4, 46319, Note_on_c, 0, 74, 0
4, 46320, Note_on_c, 0, 72, 80
4, 46320, Control_c, 0, 2, 80
4, 46559, Note_on_c, 0, 72, 0
4, 46560, Note_on_c, 0, 81, 80
4, 47519, Note_on_c, 0, 81, 0
4, 47520, Note_on_c, 0, 84, 80
4, 47520, Control_c, 0, 2, 80
4, 47999, Note_on_c, 0, 84, 0
4, 48960, Note_on_c, 0, 74, 80
4, 48960, Control_c, 0, 2, 80
4, 49679, Note_on_c, 0, 74, 0
4, 49680, Note_on_c, 0, 76, 80
4, 49680, Control_c, 0, 2, 80
4, 49919, Note_on_c, 0, 76, 0
4, 49920, Note_on_c, 0, 74, 80
4, 50159, Note_on_c, 0, 74, 0
4, 50160, Note_on_c, 0, 72, 80
4, 50160, Control_c, 0, 2, 80
4, 50399, Note_on_c, 0, 72, 0
4, 50400, Note_on_c, 0, 69, 80
4, 50879, Note_on_c, 0, 69, 0
4, 51840, Note_on_c, 0, 74, 80
4, 51840, Control_c, 0, 2, 80
4, 52079, Note_on_c, 0, 74, 0
4, 52080, Note_on_c, 0, 72, 80
4, 52080, Control_c, 0, 2, 80
4, 52319, Note_on_c, 0, 72, 0
4, 52320, Note_on_c, 0, 74, 80
4, 52559, Note_on_c, 0, 74, 0
4, 52560, Note_on_c, 0, 72, 80
4, 52560, Control_c, 0, 2, 80
4, 52799, Note_on_c, 0, 72, 0
4, 52800, Note_on_c, 0, 74, 80
4, 53039, Note_on_c, 0, 74, 0
4, 53040, Note_on_c, 0, 72, 80
4, 53040, Control_c, 0, 2, 80
4, 53279, Note_on_c, 0, 72, 0
4, 53280, Note_on_c, 0, 81, 80
4, 53760, Control_c, 0, 2, 80
4, 54239, Note_on_c, 0, 81, 0
4, 54480, Note_on_c, 0, 69, 80
4, 54480, Control_c, 0, 2, 80
4, 54719, Note_on_c, 0, 69, 0
4, 54720, Note_on_c, 0, 69, 80
4, 54959, Note_on_c, 0, 69, 0
4, 54960, Note_on_c, 0, 69, 80
4, 54960, Control_c, 0, 2, 80
4, 55199, Note_on_c, 0, 69, 0
4, 55200, Note_on_c, 0, 72, 80
4, 55679, Note_on_c, 0, 72, 0
4, 56640, Note_on_c, 0, 72, 80
4, 56640, Control_c, 0, 2, 80
4, 57119, Note_on_c, 0, 72, 0
4, 57600, Note_on_c, 0, 69, 80
4, 57600, Control_c, 0, 2, 80
4, 58079, Note_on_c, 0, 69, 0
4, 58560, Note_on_c, 0, 62, 80
4, 58560, Control_c, 0, 2, 80
4, 58799, Note_on_c, 0, 62, 0
4, 58800, Note_on_c, 0, 60, 80
4, 58800, Control_c, 0, 2, 80
4, 59279, Note_on_c, 0, 60, 0
4, 59520, Note_on_c, 0, 64, 80
4, 59520, Control_c, 0, 2, 80
4, 60479, Note_on_c, 0, 64, 0
4, 62160, Note_on_c, 0, 69, 80
4, 62160, Control_c, 0, 2, 80
4, 62399, Note_on_c, 0, 69, 0
4, 62400, Note_on_c, 0, 69, 80
4, 62639, Note_on_c, 0, 69, 0
4, 62640, Note_on_c, 0, 69, 80
4, 62640, Control_c, 0, 2, 80
4, 62879, Note_on_c, 0, 69, 0
4, 62880, Note_on_c, 0, 72, 80
4, 63359, Note_on_c, 0, 72, 0
4, 64320, Note_on_c, 0, 72, 80
4, 64320, Control_c, 0, 2, 80
4, 64799, Note_on_c, 0, 72, 0
4, 65280, Note_on_c, 0, 69, 80
4, 65280, Control_c, 0, 2, 80
4, 65759, Note_on_c, 0, 69, 0
4, 66240, Note_on_c, 0, 62, 80
4, 66240, Control_c, 0, 2, 80
4, 66479, Note_on_c, 0, 62, 0
4, 66480, Note_on_c, 0, 60, 80
4, 66480, Control_c, 0, 2, 80
4, 66959, Note_on_c, 0, 60, 0
4, 67200, Note_on_c, 0, 64, 80
4, 67200, Control_c, 0, 2, 80
4, 68159, Note_on_c, 0, 64, 0
4, 69600, Note_on_c, 0, 69, 80
4, 69600, Control_c, 0, 2, 80
4, 69839, Note_on_c, 0, 69, 0
4, 69840, Note_on_c, 0, 69, 80
4, 69840, Control_c, 0, 2, 80
4, 70079, Note_on_c, 0, 69, 0
4, 70080, Note_on_c, 0, 69, 80
4, 70319, Note_on_c, 0, 69, 0
4, 70320, Note_on_c, 0, 72, 80
4, 70320, Control_c, 0, 2, 80
4, 70799, Note_on_c, 0, 72, 0
4, 70800, Note_on_c, 0, 64, 80
4, 70800, Control_c, 0, 2, 80
4, 71039, Note_on_c, 0, 64, 0
4, 71040, Note_on_c, 0, 72, 80
4, 71040, Control_c, 0, 2, 80
4, 71279, Note_on_c, 0, 72, 0
4, 71280, Note_on_c, 0, 72, 80
4, 71280, Control_c, 0, 2, 80
4, 71759, Note_on_c, 0, 72, 0
4, 71760, Note_on_c, 0, 72, 80
4, 71760, Control_c, 0, 2, 80
4, 71879, Note_on_c, 0, 72, 0
4, 71880, Note_on_c, 0, 72, 80
4, 71999, Note_on_c, 0, 72, 0
4, 72000, Note_on_c, 0, 69, 80
4, 72719, Note_on_c, 0, 69, 0
4, 72720, Note_on_c, 0, 69, 80
4, 72720, Control_c, 0, 2, 80
4, 72839, Note_on_c, 0, 69, 0
4, 72840, Note_on_c, 0, 69, 80
4, 72959, Note_on_c, 0, 69, 0
4, 72960, Note_on_c, 0, 72, 80
4, 73199, Note_on_c, 0, 72, 0
4, 73200, Note_on_c, 0, 72, 80
4, 73200, Control_c, 0, 2, 80
4, 73679, Note_on_c, 0, 72, 0
4, 73680, Note_on_c, 0, 72, 80
4, 73680, Control_c, 0, 2, 80
4, 73799, Note_on_c, 0, 72, 0
4, 73800, Note_on_c, 0, 72, 80
4, 73919, Note_on_c, 0, 72, 0
4, 73920, Note_on_c, 0, 69, 80
4, 74639, Note_on_c, 0, 69, 0
4, 74640, Note_on_c, 0, 69, 80
4, 74640, Control_c, 0, 2, 80
4, 74759, Note_on_c, 0, 69, 0
4, 74760, Note_on_c, 0, 69, 80
4, 74879, Note_on_c, 0, 69, 0
4, 74880, Note_on_c, 0, 71, 80
4, 74880, Control_c, 0, 2, 80
4, 75119, Note_on_c, 0, 71, 0
4, 75120, Note_on_c, 0, 71, 80
4, 75120, Control_c, 0, 2, 80
4, 75599, Note_on_c, 0, 71, 0
4, 75600, Note_on_c, 0, 71, 80
4, 75600, Control_c, 0, 2, 80
4, 75719, Note_on_c, 0, 71, 0
4, 75720, Note_on_c, 0, 71, 80
4, 75839, Note_on_c, 0, 71, 0
4, 75840, Note_on_c, 0, 69, 80
4, 76559, Note_on_c, 0, 69, 0
4, 76560, Note_on_c, 0, 69, 80
4, 76560, Control_c, 0, 2, 80
4, 76679, Note_on_c, 0, 69, 0
4, 76680, Note_on_c, 0, 69, 80
4, 76799, Note_on_c, 0, 69, 0
4, 76800, Note_on_c, 0, 71, 80
4, 77039, Note_on_c, 0, 71, 0
4, 77040, Note_on_c, 0, 71, 80
4, 77040, Control_c, 0, 2, 80
4, 77519, Note_on_c, 0, 71, 0
4, 77520, Note_on_c, 0, 71, 80
4, 77520, Control_c, 0, 2, 80
4, 77639, Note_on_c, 0, 71, 0
4, 77640, Note_on_c, 0, 71, 80
4, 77759, Note_on_c, 0, 71, 0
4, 77760, Note_on_c, 0, 69, 80
4, 78239, Note_on_c, 0, 69, 0
4, 78480, Note_on_c, 0, 69, 80
4, 78480, Control_c, 0, 2, 80
4, 78719, Note_on_c, 0, 69, 0
4, 78720, Note_on_c, 0, 72, 80
4, 78720, Control_c, 0, 2, 80
4, 78959, Note_on_c, 0, 72, 0
4, 78960, Note_on_c, 0, 72, 80
4, 78960, Control_c, 0, 2, 80
4, 79439, Note_on_c, 0, 72, 0
4, 79440, Note_on_c, 0, 72, 80
4, 79440, Control_c, 0, 2, 80
4, 79559, Note_on_c, 0, 72, 0
4, 79560, Note_on_c, 0, 72, 80
4, 79679, Note_on_c, 0, 72, 0
4, 79680, Note_on_c, 0, 69, 80
4, 80399, Note_on_c, 0, 69, 0
4, 80400, Note_on_c, 0, 69, 80
4, 80400, Control_c, 0, 2, 80
4, 80519, Note_on_c, 0, 69, 0
4, 80520, Note_on_c, 0, 69, 80
4, 80639, Note_on_c, 0, 69, 0
4, 80640, Note_on_c, 0, 72, 80
4, 80879, Note_on_c, 0, 72, 0
4, 80880, Note_on_c, 0, 72, 80
4, 80880, Control_c, 0, 2, 80
4, 81359, Note_on_c, 0, 72, 0
4, 81360, Note_on_c, 0, 72, 80
4, 81360, Control_c, 0, 2, 80
4, 81479, Note_on_c, 0, 72, 0
4, 81480, Note_on_c, 0, 72, 80
4, 81599, Note_on_c, 0, 72, 0
4, 81600, Note_on_c, 0, 69, 80
4, 82319, Note_on_c, 0, 69, 0
4, 82320, Note_on_c, 0, 69, 80
4, 82320, Control_c, 0, 2, 80
4, 82439, Note_on_c, 0, 69, 0
4, 82440, Note_on_c, 0, 69, 80
4, 82559, Note_on_c, 0, 69, 0
4, 82560, Note_on_c, 0, 71, 80
4, 82560, Control_c, 0, 2, 80
4, 82799, Note_on_c, 0, 71, 0
4, 82800, Note_on_c, 0, 71, 80
4, 82800, Control_c, 0, 2, 80
4, 83279, Note_on_c, 0, 71, 0
4, 83280, Note_on_c, 0, 71, 80
4, 83280, Control_c, 0, 2, 80
4, 83399, Note_on_c, 0, 71, 0
4, 83400, Note_on_c, 0, 71, 80
4, 83519, Note_on_c, 0, 71, 0
4, 83520, Note_on_c, 0, 71, 80
4, 84239, Note_on_c, 0, 71, 0
4, 84240, Note_on_c, 0, 76, 80
4, 84240, Control_c, 0, 2, 80
4, 84359, Note_on_c, 0, 76, 0
4, 84360, Note_on_c, 0, 76, 80
4, 84479, Note_on_c, 0, 76, 0
4, 84480, Note_on_c, 0, 76, 80
4, 84719, Note_on_c, 0, 76, 0
4, 84720, Note_on_c, 0, 76, 80
4, 84720, Control_c, 0, 2, 80
4, 85199, Note_on_c, 0, 76, 0
4, 85200, Note_on_c, 0, 76, 80
4, 85200, Control_c, 0, 2, 80
4, 85319, Note_on_c, 0, 76, 0
4, 85320, Note_on_c, 0, 76, 80
4, 85439, Note_on_c, 0, 76, 0
4, 85440, Note_on_c, 0, 76, 80
4, 85919, Note_on_c, 0, 76, 0
4, 86400, Note_on_c, 0, 81, 80
4, 86400, Control_c, 0, 2, 80
4, 87359, Note_on_c, 0, 81, 0
4, 87360, Note_on_c, 0, 79, 80
4, 87360, Control_c, 0, 2, 80
4, 88319, Note_on_c, 0, 79, 0
4, 88320, Note_on_c, 0, 77, 80
4, 88320, Control_c, 0, 2, 80
4, 89279, Note_on_c, 0, 77, 0
4, 89280, Note_on_c, 0, 72, 80
4, 89280, Control_c, 0, 2, 80
4, 89759, Note_on_c, 0, 72, 0
4, 89760, Note_on_c, 0, 76, 80
4, 89760, Control_c, 0, 2, 80
4, 90240, Control_c, 0, 2, 80
4, 90959, Note_on_c, 0, 76, 0
4, 91680, Note_on_c, 0, 74, 80
4, 91680, Control_c, 0, 2, 80
4, 92160, Control_c, 0, 2, 80
4, 92639, Note_on_c, 0, 74, 0
4, 93600, Note_on_c, 0, 81, 80
4, 93600, Control_c, 0, 2, 80
4, 94079, Note_on_c, 0, 81, 0
4, 94080, Note_on_c, 0, 81, 80
4, 94080, Control_c, 0, 2, 80
4, 95039, Note_on_c, 0, 81, 0
4, 95040, Note_on_c, 0, 79, 80
4, 95040, Control_c, 0, 2, 80
4, 95999, Note_on_c, 0, 79, 0
4, 96000, Note_on_c, 0, 77, 80
4, 96000, Control_c, 0, 2, 80
4, 96959, Note_on_c, 0, 77, 0
4, 96960, Note_on_c, 0, 72, 80
4, 96960, Control_c, 0, 2, 80
4, 97439, Note_on_c, 0, 72, 0
4, 97440, Note_on_c, 0, 76, 80
4, 97440, Control_c, 0, 2, 80
4, 97919, Note_on_c, 0, 76, 0
4, 97920, Note_on_c, 0, 76, 80
4, 97920, Control_c, 0, 2, 80
4, 99359, Note_on_c, 0, 76, 0
4, 99360, Note_on_c, 0, 79, 80
4, 101279, Note_on_c, 0, 79, 0
4, 102720, Note_on_c, 0, 74, 80
4, 102720, Control_c, 0, 2, 80
4, 103439, Note_on_c, 0, 74, 0
4, 103440, Note_on_c, 0, 76, 80
4, 103440, Control_c, 0, 2, 80
4, 103679, Note_on_c, 0, 76, 0
4, 103680, Note_on_c, 0, 74, 80
4, 103919, Note_on_c, 0, 74, 0
4, 103920, Note_on_c, 0, 72, 80
4, 103920, Control_c, 0, 2, 80
4, 104159, Note_on_c, 0, 72, 0
4, 104160, Note_on_c, 0, 69, 80
4, 104639, Note_on_c, 0, 69, 0
4, 105600, Note_on_c, 0, 74, 80
4, 105600, Control_c, 0, 2, 80
4, 105839, Note_on_c, 0, 74, 0
4, 105840, Note_on_c, 0, 72, 80
4, 105840, Control_c, 0, 2, 80
4, 106079, Note_on_c, 0, 72, 0
4, 106080, Note_on_c, 0, 74, 80
4, 106319, Note_on_c, 0, 74, 0
4, 106320, Note_on_c, 0, 72, 80
4, 106320, Control_c, 0, 2, 80
4, 106559, Note_on_c, 0, 72, 0
4, 106560, Note_on_c, 0, 74, 80
4, 106799, Note_on_c, 0, 74, 0
4, 106800, Note_on_c, 0, 72, 80
4, 106800, Control_c, 0, 2, 80
4, 107039, Note_on_c, 0, 72, 0
4, 107040, Note_on_c, 0, 74, 80
4, 107279, Note_on_c, 0, 74, 0
4, 107280, Note_on_c, 0, 72, 80
4, 107280, Control_c, 0, 2, 80
4, 107519, Note_on_c, 0, 72, 0
4, 107520, Note_on_c, 0, 74, 80
4, 107759, Note_on_c, 0, 74, 0
4, 107760, Note_on_c, 0, 72, 80
4, 107760, Control_c, 0, 2, 80
4, 107999, Note_on_c, 0, 72, 0
4, 108000, Note_on_c, 0, 81, 80
4, 108959, Note_on_c, 0, 81, 0
4, 108960, Note_on_c, 0, 84, 80
4, 108960, Control_c, 0, 2, 80
4, 109439, Note_on_c, 0, 84, 0
4, 110400, Note_on_c, 0, 74, 80
4, 110400, Control_c, 0, 2, 80
4, 111119, Note_on_c, 0, 74, 0
4, 111120, Note_on_c, 0, 76, 80
4, 111120, Control_c, 0, 2, 80
4, 111359, Note_on_c, 0, 76, 0
4, 111360, Note_on_c, 0, 74, 80
4, 111599, Note_on_c, 0, 74, 0
4, 111600, Note_on_c, 0, 72, 80
4, 111600, Control_c, 0, 2, 80
4, 111839, Note_on_c, 0, 72, 0
4, 111840, Note_on_c, 0, 69, 80
4, 112319, Note_on_c, 0, 69, 0
4, 113280, Note_on_c, 0, 74, 80
4, 113280, Control_c, 0, 2, 80
4, 113519, Note_on_c, 0, 74, 0
4, 113520, Note_on_c, 0, 72, 80
4, 113520, Control_c, 0, 2, 80
4, 113759, Note_on_c, 0, 72, 0
4, 113760, Note_on_c, 0, 74, 80
4, 113999, Note_on_c, 0, 74, 0
4, 114000, Note_on_c, 0, 72, 80
4, 114000, Control_c, 0, 2, 80
4, 114239, Note_on_c, 0, 72, 0
4, 114240, Note_on_c, 0, 74, 80
4, 114479, Note_on_c, 0, 74, 0
4, 114480, Note_on_c, 0, 72, 80
4, 114480, Control_c, 0, 2, 80
4, 114719, Note_on_c, 0, 72, 0
4, 114720, Note_on_c, 0, 81, 80
4, 115200, Control_c, 0, 2, 80
4, 115679, Note_on_c, 0, 81, 0
4, 115920, Note_on_c, 0, 69, 80
4, 115920, Control_c, 0, 2, 80
4, 116159, Note_on_c, 0, 69, 0
4, 116160, Note_on_c, 0, 69, 80
4, 116399, Note_on_c, 0, 69, 0
4, 116400, Note_on_c, 0, 69, 80
4, 116400, Control_c, 0, 2, 80
4, 116639, Note_on_c, 0, 69, 0
4, 116640, Note_on_c, 0, 72, 80
4, 117119, Note_on_c, 0, 72, 0
4, 118080, Note_on_c, 0, 72, 80
4, 118080, Control_c, 0, 2, 80
4, 118559, Note_on_c, 0, 72, 0
4, 119040, Note_on_c, 0, 69, 80
4, 119040, Control_c, 0, 2, 80
4, 119519, Note_on_c, 0, 69, 0
4, 120000, Note_on_c, 0, 62, 80
4, 120000, Control_c, 0, 2, 80
4, 120239, Note_on_c, 0, 62, 0
4, 120240, Note_on_c, 0, 60, 80
4, 120240, Control_c, 0, 2, 80
4, 120719, Note_on_c, 0, 60, 0
4, 120960, Note_on_c, 0, 64, 80
4, 120960, Control_c, 0, 2, 80
4, 121919, Note_on_c, 0, 64, 0
4, 123600, Note_on_c, 0, 69, 80
4, 123600, Control_c, 0, 2, 80
4, 123839, Note_on_c, 0, 69, 0
4, 123840, Note_on_c, 0, 69, 80
4, 124079, Note_on_c, 0, 69, 0
4, 124080, Note_on_c, 0, 69, 80
4, 124080, Control_c, 0, 2, 80
4, 124319, Note_on_c, 0, 69, 0
4, 124320, Note_on_c, 0, 72, 80
4, 124799, Note_on_c, 0, 72, 0
4, 125760, Note_on_c, 0, 72, 80
4, 125760, Control_c, 0, 2, 80
4, 126239, Note_on_c, 0, 72, 0
4, 126720, Note_on_c, 0, 69, 80
4, 126720, Control_c, 0, 2, 80
4, 127199, Note_on_c, 0, 69, 0
4, 127680, Note_on_c, 0, 62, 80
4, 127680, Control_c, 0, 2, 80
4, 127919, Note_on_c, 0, 62, 0
4, 127920, Note_on_c, 0, 60, 80
4, 127920, Control_c, 0, 2, 80
4, 128399, Note_on_c, 0, 60, 0
4, 128640, Note_on_c, 0, 64, 80
4, 128640, Control_c, 0, 2, 80
4, 129599, Note_on_c, 0, 64, 0
4, 164160, Note_on_c, 0, 74, 80
4, 164160, Control_c, 0, 2, 80
4, 164879, Note_on_c, 0, 74, 0
4, 164880, Note_on_c, 0, 76, 80
4, 164880, Control_c, 0, 2, 80
4, 165119, Note_on_c, 0, 76, 0
4, 165120, Note_on_c, 0, 74, 80
4, 165120, Control_c, 0, 2, 80
4, 165359, Note_on_c, 0, 74, 0
4, 165360, Note_on_c, 0, 72, 80
4, 165360, Control_c, 0, 2, 80
4, 165599, Note_on_c, 0, 72, 0
4, 165600, Note_on_c, 0, 69, 80
4, 165600, Control_c, 0, 2, 80
4, 166079, Note_on_c, 0, 69, 0
4, 167040, Note_on_c, 0, 74, 80
4, 167040, Control_c, 0, 2, 80
4, 167279, Note_on_c, 0, 74, 0
4, 167280, Note_on_c, 0, 72, 80
4, 167280, Control_c, 0, 2, 80
4, 167519, Note_on_c, 0, 72, 0
4, 167520, Note_on_c, 0, 74, 80
4, 167520, Control_c, 0, 2, 80
4, 167759, Note_on_c, 0, 74, 0
4, 167760, Note_on_c, 0, 72, 80
4, 167760, Control_c, 0, 2, 80
4, 167999, Note_on_c, 0, 72, 0
4, 168000, Note_on_c, 0, 74, 80
4, 168000, Control_c, 0, 2, 80
4, 168239, Note_on_c, 0, 74, 0
4, 168240, Note_on_c, 0, 72, 80
4, 168240, Control_c, 0, 2, 80
4, 168479, Note_on_c, 0, 72, 0
4, 168480, Note_on_c, 0, 74, 80
4, 168480, Control_c, 0, 2, 80
4, 168719, Note_on_c, 0, 74, 0
4, 168720, Note_on_c, 0, 72, 80
4, 168720, Control_c, 0, 2, 80
4, 168959, Note_on_c, 0, 72, 0
4, 168960, Note_on_c, 0, 74, 80
4, 168960, Control_c, 0, 2, 80
4, 169199, Note_on_c, 0, 74, 0
4, 169200, Note_on_c, 0, 72, 80
4, 169200, Control_c, 0, 2, 80
4, 169439, Note_on_c, 0, 72, 0
4, 169440, Note_on_c, 0, 81, 80
4, 169440, Control_c, 0, 2, 80
4, 170399, Note_on_c, 0, 81, 0
4, 170400, Note_on_c, 0, 84, 80
4, 170400, Control_c, 0, 2, 80
4, 170879, Note_on_c, 0, 84, 0
4, 170880, Note_on_c, 0, 76, 80
4, 170880, Control_c, 0, 2, 80
4, 171839, Note_on_c, 0, 76, 0
4, 171840, Note_on_c, 0, 74, 80
4, 171840, Control_c, 0, 2, 80
4, 172559, Note_on_c, 0, 74, 0
4, 172560, Note_on_c, 0, 76, 80
4, 172560, Control_c, 0, 2, 80
4, 172799, Note_on_c, 0, 76, 0
4, 172800, Note_on_c, 0, 74, 80
4, 172800, Control_c, 0, 2, 80
4, 173039, Note_on_c, 0, 74, 0
4, 173040, Note_on_c, 0, 72, 80
4, 173040, Control_c, 0, 2, 80
4, 173279, Note_on_c, 0, 72, 0
4, 173280, Note_on_c, 0, 69, 80
4, 173280, Control_c, 0, 2, 80
4, 173759, Note_on_c, 0, 69, 0
4, 174720, Note_on_c, 0, 74, 80
4, 174720, Control_c, 0, 2, 80
4, 174959, Note_on_c, 0, 74, 0
4, 174960, Note_on_c, 0, 72, 80
4, 174960, Control_c, 0, 2, 80
4, 175199, Note_on_c, 0, 72, 0
4, 175200, Note_on_c, 0, 74, 80
4, 175200, Control_c, 0, 2, 80
4, 175439, Note_on_c, 0, 74, 0
4, 175440, Note_on_c, 0, 72, 80
4, 175440, Control_c, 0, 2, 80
4, 175679, Note_on_c, 0, 72, 0
4, 175680, Note_on_c, 0, 74, 80
4, 175680, Control_c, 0, 2, 80
4, 175919, Note_on_c, 0, 74, 0
4, 175920, Note_on_c, 0, 72, 80
4, 175920, Control_c, 0, 2, 80
4, 176159, Note_on_c, 0, 72, 0
4, 176160, Note_on_c, 0, 81, 80
4, 176160, Control_c, 0, 2, 80
4, 176640, Control_c, 0, 2, 80
4, 177119, Note_on_c, 0, 81, 0
4, 177360, Note_on_c, 0, 69, 80
4, 177360, Control_c, 0, 2, 80
4, 177599, Note_on_c, 0, 69, 0
4, 177600, Note_on_c, 0, 69, 80
4, 177600, Control_c, 0, 2, 80
4, 177839, Note_on_c, 0, 69, 0
4, 177840, Note_on_c, 0, 69, 80
4, 177840, Control_c, 0, 2, 80
4, 178079, Note_on_c, 0, 69, 0
4, 178080, Note_on_c, 0, 72, 80
4, 178080, Control_c, 0, 2, 80
4, 178559, Note_on_c, 0, 72, 0
4, 179520, Note_on_c, 0, 74, 80
4, 179520, Control_c, 0, 2, 80
4, 180239, Note_on_c, 0, 74, 0
4, 180240, Note_on_c, 0, 76, 80
4, 180240, Control_c, 0, 2, 80
4, 180479, Note_on_c, 0, 76, 0
4, 180480, Note_on_c, 0, 74, 80
4, 180480, Control_c, 0, 2, 80
4, 180719, Note_on_c, 0, 74, 0
4, 180720, Note_on_c, 0, 72, 80
4, 180720, Control_c, 0, 2, 80
4, 180959, Note_on_c, 0, 72, 0
4, 180960, Note_on_c, 0, 69, 80
4, 180960, Control_c, 0, 2, 80
4, 181439, Note_on_c, 0, 69, 0
4, 182400, Note_on_c, 0, 74, 80
4, 182400, Control_c, 0, 2, 80
4, 182639, Note_on_c, 0, 74, 0
4, 182640, Note_on_c, 0, 72, 80
4, 182640, Control_c, 0, 2, 80
4, 182879, Note_on_c, 0, 72, 0
4, 182880, Note_on_c, 0, 74, 80
4, 182880, Control_c, 0, 2, 80
4, 183119, Note_on_c, 0, 74, 0
4, 183120, Note_on_c, 0, 72, 80
4, 183120, Control_c, 0, 2, 80
4, 183359, Note_on_c, 0, 72, 0
4, 183360, Note_on_c, 0, 74, 80
4, 183360, Control_c, 0, 2, 80
4, 183599, Note_on_c, 0, 74, 0
4, 183600, Note_on_c, 0, 72, 80
4, 183600, Control_c, 0, 2, 80
4, 183839, Note_on_c, 0, 72, 0
4, 183840, Note_on_c, 0, 74, 80
4, 183840, Control_c, 0, 2, 80
4, 184079, Note_on_c, 0, 74, 0
4, 184080, Note_on_c, 0, 72, 80
4, 184080, Control_c, 0, 2, 80
4, 184319, Note_on_c, 0, 72, 0
4, 184320, Note_on_c, 0, 74, 80
4, 184320, Control_c, 0, 2, 80
4, 184559, Note_on_c, 0, 74, 0
4, 184560, Note_on_c, 0, 72, 80
4, 184560, Control_c, 0, 2, 80
4, 184799, Note_on_c, 0, 72, 0
4, 184800, Note_on_c, 0, 81, 80
4, 184800, Control_c, 0, 2, 80
4, 185759, Note_on_c, 0, 81, 0
4, 185760, Note_on_c, 0, 84, 80
4, 185760, Control_c, 0, 2, 80
4, 186239, Note_on_c, 0, 84, 0
4, 186240, Note_on_c, 0, 76, 80
4, 186240, Control_c, 0, 2, 80
4, 187199, Note_on_c, 0, 76, 0
4, 187200, Note_on_c, 0, 74, 80
4, 187200, Control_c, 0, 2, 80
4, 187919, Note_on_c, 0, 74, 0
4, 187920, Note_on_c, 0, 76, 80
4, 187920, Control_c, 0, 2, 80
4, 188159, Note_on_c, 0, 76, 0
4, 188160, Note_on_c, 0, 74, 80
4, 188160, Control_c, 0, 2, 80
4, 188399, Note_on_c, 0, 74, 0
4, 188400, Note_on_c, 0, 72, 80
4, 188400, Control_c, 0, 2, 80
4, 188639, Note_on_c, 0, 72, 0
4, 188640, Note_on_c, 0, 69, 80
4, 188640, Control_c, 0, 2, 80
4, 189119, Note_on_c, 0, 69, 0
4, 190080, Note_on_c, 0, 74, 80
4, 190080, Control_c, 0, 2, 80
4, 190319, Note_on_c, 0, 74, 0
4, 190320, Note_on_c, 0, 72, 80
4, 190320, Control_c, 0, 2, 80
4, 190559, Note_on_c, 0, 72, 0
4, 190560, Note_on_c, 0, 74, 80
4, 190560, Control_c, 0, 2, 80
4, 190799, Note_on_c, 0, 74, 0
4, 190800, Note_on_c, 0, 72, 80
4, 190800, Control_c, 0, 2, 80
4, 191039, Note_on_c, 0, 72, 0
4, 191040, Note_on_c, 0, 74, 80
4, 191040, Control_c, 0, 2, 80
4, 191279, Note_on_c, 0, 74, 0
4, 191280, Note_on_c, 0, 72, 80
4, 191280, Control_c, 0, 2, 80
4, 191519, Note_on_c, 0, 72, 0
4, 191520, Note_on_c, 0, 81, 80
4, 191520, Control_c, 0, 2, 80
4, 192000, Control_c, 0, 2, 80
4, 192479, Note_on_c, 0, 81, 0
4, 192720, Note_on_c, 0, 69, 80
4, 192720, Control_c, 0, 2, 80
4, 192959, Note_on_c, 0, 69, 0
4, 192960, Note_on_c, 0, 69, 80
4, 192960, Control_c, 0, 2, 80
4, 193199, Note_on_c, 0, 69, 0
4, 193200, Note_on_c, 0, 69, 80
4, 193200, Control_c, 0, 2, 80
4, 193439, Note_on_c, 0, 69, 0
4, 193440, Note_on_c, 0, 72, 80
4, 193440, Control_c, 0, 2, 80
4, 193919, Note_on_c, 0, 72, 0
4, 193920, Note_on_c, 0, 72, 80
4, 193920, Control_c, 0, 2, 80
4, 194399, Note_on_c, 0, 72, 0
4, 194400, Note_on_c, 0, 69, 80
4, 194400, Control_c, 0, 2, 80
4, 194879, Note_on_c, 0, 69, 0
4, 194880, Note_on_c, 0, 72, 80
4, 194880, Control_c, 0, 2, 80
4, 195359, Note_on_c, 0, 72, 0
4, 195600, Note_on_c, 0, 69, 80
4, 195600, Control_c, 0, 2, 80
4, 195839, Note_on_c, 0, 69, 0
4, 195840, Note_on_c, 0, 72, 80
4, 195840, Control_c, 0, 2, 80
4, 196319, Note_on_c, 0, 72, 0
4, 196560, Note_on_c, 0, 72, 80
4, 196560, Control_c, 0, 2, 80
4, 196799, Note_on_c, 0, 72, 0
4, 196800, Note_on_c, 0, 72, 80
4, 196800, Control_c, 0, 2, 80
4, 197039, Note_on_c, 0, 72, 0
4, 197040, Note_on_c, 0, 72, 80
4, 197040, Control_c, 0, 2, 80
4, 197279, Note_on_c, 0, 72, 0
4, 197280, Note_on_c, 0, 72, 80
4, 197280, Control_c, 0, 2, 80
4, 197519, Note_on_c, 0, 72, 0
4, 197520, Note_on_c, 0, 72, 80
4, 197520, Control_c, 0, 2, 80
4, 197759, Note_on_c, 0, 72, 0
4, 197760, Note_on_c, 0, 71, 80
4, 197760, Control_c, 0, 2, 80
4, 198239, Note_on_c, 0, 71, 0
4, 198240, Note_on_c, 0, 67, 80
4, 198240, Control_c, 0, 2, 80
4, 198719, Note_on_c, 0, 67, 0
4, 198720, Note_on_c, 0, 71, 80
4, 198720, Control_c, 0, 2, 80
4, 199199, Note_on_c, 0, 71, 0
4, 200400, Note_on_c, 0, 69, 80
4, 200400, Control_c, 0, 2, 80
4, 200639, Note_on_c, 0, 69, 0
4, 200640, Note_on_c, 0, 69, 80
4, 200640, Control_c, 0, 2, 80
4, 200879, Note_on_c, 0, 69, 0
4, 200880, Note_on_c, 0, 69, 80
4, 200880, Control_c, 0, 2, 80
4, 201119, Note_on_c, 0, 69, 0
4, 201120, Note_on_c, 0, 72, 80
4, 201120, Control_c, 0, 2, 80
4, 201599, Note_on_c, 0, 72, 0
4, 201600, Note_on_c, 0, 72, 80
4, 201600, Control_c, 0, 2, 80
4, 201839, Note_on_c, 0, 72, 0
4, 201840, Note_on_c, 0, 72, 80
4, 201840, Control_c, 0, 2, 80
4, 202079, Note_on_c, 0, 72, 0
4, 202080, Note_on_c, 0, 69, 80
4, 202080, Control_c, 0, 2, 80
4, 202559, Note_on_c, 0, 69, 0
4, 202560, Note_on_c, 0, 72, 80
4, 202560, Control_c, 0, 2, 80
4, 203039, Note_on_c, 0, 72, 0
4, 203280, Note_on_c, 0, 69, 80
4, 203280, Control_c, 0, 2, 80
4, 203519, Note_on_c, 0, 69, 0
4, 203520, Note_on_c, 0, 72, 80
4, 203520, Control_c, 0, 2, 80
4, 203999, Note_on_c, 0, 72, 0
4, 204240, Note_on_c, 0, 72, 80
4, 204240, Control_c, 0, 2, 80
4, 204479, Note_on_c, 0, 72, 0
4, 204480, Note_on_c, 0, 72, 80
4, 204480, Control_c, 0, 2, 80
4, 204719, Note_on_c, 0, 72, 0
4, 204720, Note_on_c, 0, 72, 80
4, 204720, Control_c, 0, 2, 80
4, 204959, Note_on_c, 0, 72, 0
4, 204960, Note_on_c, 0, 72, 80
4, 204960, Control_c, 0, 2, 80
4, 205199, Note_on_c, 0, 72, 0
4, 205200, Note_on_c, 0, 72, 80
4, 205200, Control_c, 0, 2, 80
4, 205439, Note_on_c, 0, 72, 0
4, 205440, Note_on_c, 0, 71, 80
4, 205440, Control_c, 0, 2, 80
4, 206399, Note_on_c, 0, 71, 0
4, 209280, Control_c, 0, 64, 0
4, 209281, End_track
5, 0, Start_track
5, 0, Title_t, "Lute\000"
5, 0, Key_signature, 0, "major"
5, 0, Control_c, 4, 121, 0
5, 0, Program_c, 4, 24
5, 0, Control_c, 4, 7, 100
5, 0, Control_c, 4, 10, 64
5, 0, Control_c, 4, 91, 0
5, 0, Control_c, 4, 93, 0
5, 0, MIDI_port, 0
5, 1922, Control_c, 4, 64, 127
5, 9600, Note_on_c, 4, 57, 80
5, 9600, Control_c, 4, 2, 80
5, 9600, Note_on_c, 4, 60, 80
5, 9600, Note_on_c, 4, 65, 80
5, 10079, Note_on_c, 4, 57, 0
5, 10079, Note_on_c, 4, 60, 0
5, 10079, Note_on_c, 4, 65, 0
5, 10080, Note_on_c, 4, 57, 80
5, 10080, Control_c, 4, 2, 80
5, 10080, Note_on_c, 4, 60, 80
5, 10080, Note_on_c, 4, 65, 80
5, 10559, Note_on_c, 4, 57, 0
5, 10559, Note_on_c, 4, 60, 0
5, 10559, Note_on_c, 4, 65, 0
5, 10560, Note_on_c, 4, 57, 80
5, 10560, Control_c, 4, 2, 80
5, 10560, Note_on_c, 4, 60, 80
5, 10560, Note_on_c, 4, 65, 80
5, 11039, Note_on_c, 4, 57, 0
5, 11039, Note_on_c, 4, 60, 0
5, 11039, Note_on_c, 4, 65, 0
5, 11040, Note_on_c, 4, 57, 80
5, 11040, Note_on_c, 4, 60, 80
5, 11040, Note_on_c, 4, 65, 80
5, 11519, Note_on_c, 4, 57, 0
5, 11519, Note_on_c, 4, 60, 0
5, 11519, Note_on_c, 4, 65, 0
5, 11520, Note_on_c, 4, 57, 80
5, 11520, Control_c, 4, 2, 80
5, 11520, Note_on_c, 4, 60, 80
5, 11520, Note_on_c, 4, 65, 80
5, 11999, Note_on_c, 4, 57, 0
5, 11999, Note_on_c, 4, 60, 0
5, 11999, Note_on_c, 4, 65, 0
5, 12000, Note_on_c, 4, 57, 80
5, 12000, Control_c, 4, 2, 80
5, 12000, Note_on_c, 4, 60, 80
5, 12000, Note_on_c, 4, 65, 80
5, 12479, Note_on_c, 4, 57, 0
5, 12479, Note_on_c, 4, 60, 0
5, 12479, Note_on_c, 4, 65, 0
5, 12480, Note_on_c, 4, 57, 80
5, 12480, Control_c, 4, 2, 80
5, 12480, Note_on_c, 4, 60, 80
5, 12480, Note_on_c, 4, 65, 80
5, 12959, Note_on_c, 4, 57, 0
5, 12959, Note_on_c, 4, 60, 0
5, 12959, Note_on_c, 4, 65, 0
5, 12960, Note_on_c, 4, 57, 80
5, 12960, Note_on_c, 4, 60, 80
5, 12960, Note_on_c, 4, 65, 80
5, 13439, Note_on_c, 4, 57, 0
5, 13439, Note_on_c, 4, 60, 0
5, 13439, Note_on_c, 4, 65, 0
5, 13440, Note_on_c, 4, 55, 80
5, 13440, Control_c, 4, 2, 80
5, 13440, Note_on_c, 4, 59, 80
5, 13440, Note_on_c, 4, 64, 80
5, 13919, Note_on_c, 4, 55, 0
5, 13919, Note_on_c, 4, 59, 0
5, 13919, Note_on_c, 4, 64, 0
5, 13920, Note_on_c, 4, 55, 80
5, 13920, Control_c, 4, 2, 80
5, 13920, Note_on_c, 4, 59, 80
5, 13920, Note_on_c, 4, 64, 80
5, 14399, Note_on_c, 4, 55, 0
5, 14399, Note_on_c, 4, 59, 0
5, 14399, Note_on_c, 4, 64, 0
5, 14400, Note_on_c, 4, 55, 80
5, 14400, Control_c, 4, 2, 80
5, 14400, Note_on_c, 4, 59, 80
5, 14400, Note_on_c, 4, 64, 80
5, 14879, Note_on_c, 4, 55, 0
5, 14879, Note_on_c, 4, 59, 0
5, 14879, Note_on_c, 4, 64, 0
5, 14880, Note_on_c, 4, 55, 80
5, 14880, Note_on_c, 4, 59, 80
5, 14880, Note_on_c, 4, 64, 80
5, 15359, Note_on_c, 4, 55, 0
5, 15359, Note_on_c, 4, 59, 0
5, 15359, Note_on_c, 4, 64, 0
5, 15360, Note_on_c, 4, 55, 80
5, 15360, Control_c, 4, 2, 80
5, 15360, Note_on_c, 4, 59, 80
5, 15360, Note_on_c, 4, 64, 80
5, 15839, Note_on_c, 4, 55, 0
5, 15839, Note_on_c, 4, 59, 0
5, 15839, Note_on_c, 4, 64, 0
5, 15840, Note_on_c, 4, 55, 80
5, 15840, Control_c, 4, 2, 80
5, 15840, Note_on_c, 4, 59, 80
5, 15840, Note_on_c, 4, 64, 80
5, 16319, Note_on_c, 4, 55, 0
5, 16319, Note_on_c, 4, 59, 0
5, 16319, Note_on_c, 4, 64, 0
5, 16320, Note_on_c, 4, 55, 80
5, 16320, Control_c, 4, 2, 80
5, 16320, Note_on_c, 4, 59, 80
5, 16320, Note_on_c, 4, 64, 80
5, 16799, Note_on_c, 4, 55, 0
5, 16799, Note_on_c, 4, 59, 0
5, 16799, Note_on_c, 4, 64, 0
5, 16800, Note_on_c, 4, 55, 80
5, 16800, Note_on_c, 4, 59, 80
5, 16800, Note_on_c, 4, 64, 80
5, 17279, Note_on_c, 4, 55, 0
5, 17279, Note_on_c, 4, 59, 0
5, 17279, Note_on_c, 4, 64, 0
5, 17280, Note_on_c, 4, 57, 80
5, 17280, Control_c, 4, 2, 80
5, 17280, Note_on_c, 4, 60, 80
5, 17280, Note_on_c, 4, 65, 80
5, 17759, Note_on_c, 4, 57, 0
5, 17759, Note_on_c, 4, 60, 0
5, 17759, Note_on_c, 4, 65, 0
5, 17760, Note_on_c, 4, 57, 80
5, 17760, Control_c, 4, 2, 80
5, 17760, Note_on_c, 4, 60, 80
5, 17760, Note_on_c, 4, 65, 80
5, 18239, Note_on_c, 4, 57, 0
5, 18239, Note_on_c, 4, 60, 0
5, 18239, Note_on_c, 4, 65, 0
5, 18240, Note_on_c, 4, 57, 80
5, 18240, Control_c, 4, 2, 80
5, 18240, Note_on_c, 4, 60, 80
5, 18240, Note_on_c, 4, 65, 80
5, 18719, Note_on_c, 4, 57, 0
5, 18719, Note_on_c, 4, 60, 0
5, 18719, Note_on_c, 4, 65, 0
5, 18720, Note_on_c, 4, 57, 80
5, 18720, Note_on_c, 4, 60, 80
5, 18720, Note_on_c, 4, 65, 80
5, 19199, Note_on_c, 4, 57, 0
5, 19199, Note_on_c, 4, 60, 0
5, 19199, Note_on_c, 4, 65, 0
5, 19200, Note_on_c, 4, 57, 80
5, 19200, Control_c, 4, 2, 80
5, 19200, Note_on_c, 4, 60, 80
5, 19200, Note_on_c, 4, 65, 80
5, 19679, Note_on_c, 4, 57, 0
5, 19679, Note_on_c, 4, 60, 0
5, 19679, Note_on_c, 4, 65, 0
5, 19680, Note_on_c, 4, 57, 80
5, 19680, Control_c, 4, 2, 80
5, 19680, Note_on_c, 4, 60, 80
5, 19680, Note_on_c, 4, 65, 80
5, 20159, Note_on_c, 4, 57, 0
5, 20159, Note_on_c, 4, 60, 0
5, 20159, Note_on_c, 4, 65, 0
5, 20160, Note_on_c, 4, 57, 80
5, 20160, Control_c, 4, 2, 80
5, 20160, Note_on_c, 4, 60, 80
5, 20160, Note_on_c, 4, 65, 80
5, 20639, Note_on_c, 4, 57, 0
5, 20639, Note_on_c, 4, 60, 0
5, 20639, Note_on_c, 4, 65, 0
5, 20640, Note_on_c, 4, 57, 80
5, 20640, Note_on_c, 4, 60, 80
5, 20640, Note_on_c, 4, 65, 80
5, 21119, Note_on_c, 4, 57, 0
5, 21119, Note_on_c, 4, 60, 0
5, 21119, Note_on_c, 4, 65, 0
5, 21120, Note_on_c, 4, 55, 80
5, 21120, Control_c, 4, 2, 80
5, 21120, Note_on_c, 4, 59, 80
5, 21120, Note_on_c, 4, 64, 80
5, 21599, Note_on_c, 4, 55, 0
5, 21599, Note_on_c, 4, 59, 0
5, 21599, Note_on_c, 4, 64, 0
5, 21600, Note_on_c, 4, 55, 80
5, 21600, Control_c, 4, 2, 80
5, 21600, Note_on_c, 4, 59, 80
5, 21600, Note_on_c, 4, 64, 80
5, 22079, Note_on_c, 4, 55, 0
5, 22079, Note_on_c, 4, 59, 0
5, 22079, Note_on_c, 4, 64, 0
5, 22080, Note_on_c, 4, 55, 80
5, 22080, Control_c, 4, 2, 80
5, 22080, Note_on_c, 4, 59, 80
5, 22080, Note_on_c, 4, 64, 80
5, 22559, Note_on_c, 4, 55, 0
5, 22559, Note_on_c, 4, 59, 0
5, 22559, Note_on_c, 4, 64, 0
5, 22560, Note_on_c, 4, 55, 80
5, 22560, Note_on_c, 4, 59, 80
5, 22560, Note_on_c, 4, 64, 80
5, 23039, Note_on_c, 4, 55, 0
5, 23039, Note_on_c, 4, 59, 0
5, 23039, Note_on_c, 4, 64, 0
5, 23040, Note_on_c, 4, 55, 80
5, 23040, Control_c, 4, 2, 80
5, 23040, Note_on_c, 4, 59, 80
5, 23040, Note_on_c, 4, 64, 80
5, 23519, Note_on_c, 4, 55, 0
5, 23519, Note_on_c, 4, 59, 0
5, 23519, Note_on_c, 4, 64, 0
5, 23520, Note_on_c, 4, 55, 80
5, 23520, Control_c, 4, 2, 80
5, 23520, Note_on_c, 4, 59, 80
5, 23520, Note_on_c, 4, 64, 80
5, 23999, Note_on_c, 4, 55, 0
5, 23999, Note_on_c, 4, 59, 0
5, 23999, Note_on_c, 4, 64, 0
5, 24000, Note_on_c, 4, 55, 80
5, 24000, Control_c, 4, 2, 80
5, 24000, Note_on_c, 4, 59, 80
5, 24000, Note_on_c, 4, 64, 80
5, 24479, Note_on_c, 4, 55, 0
5, 24479, Note_on_c, 4, 59, 0
5, 24479, Note_on_c, 4, 64, 0
5, 24480, Note_on_c, 4, 55, 80
5, 24480, Note_on_c, 4, 59, 80
5, 24480, Note_on_c, 4, 64, 80
5, 24959, Note_on_c, 4, 55, 0
5, 24959, Note_on_c, 4, 59, 0
5, 24959, Note_on_c, 4, 64, 0
5, 24960, Note_on_c, 4, 57, 80
5, 24960, Control_c, 4, 2, 80
5, 24960, Note_on_c, 4, 60, 80
5, 24960, Note_on_c, 4, 65, 80
5, 25439, Note_on_c, 4, 57, 0
5, 25439, Note_on_c, 4, 60, 0
5, 25439, Note_on_c, 4, 65, 0
5, 25440, Note_on_c, 4, 57, 80
5, 25440, Note_on_c, 4, 60, 80
5, 25440, Note_on_c, 4, 65, 80
5, 25919, Note_on_c, 4, 57, 0
5, 25919, Note_on_c, 4, 60, 0
5, 25919, Note_on_c, 4, 65, 0
5, 25920, Note_on_c, 4, 57, 80
5, 25920, Control_c, 4, 2, 80
5, 25920, Note_on_c, 4, 60, 80
5, 25920, Note_on_c, 4, 65, 80
5, 26399, Note_on_c, 4, 57, 0
5, 26399, Note_on_c, 4, 60, 0
5, 26399, Note_on_c, 4, 65, 0
5, 26400, Note_on_c, 4, 57, 80
5, 26400, Note_on_c, 4, 60, 80
5, 26400, Note_on_c, 4, 65, 80
5, 26879, Note_on_c, 4, 57, 0
5, 26879, Note_on_c, 4, 60, 0
5, 26879, Note_on_c, 4, 65, 0
5, 26880, Note_on_c, 4, 57, 80
5, 26880, Control_c, 4, 2, 80
5, 26880, Note_on_c, 4, 60, 80
5, 26880, Note_on_c, 4, 65, 80
5, 27359, Note_on_c, 4, 57, 0
5, 27359, Note_on_c, 4, 60, 0
5, 27359, Note_on_c, 4, 65, 0
5, 27360, Note_on_c, 4, 57, 80
5, 27360, Note_on_c, 4, 60, 80
5, 27360, Note_on_c, 4, 65, 80
5, 27839, Note_on_c, 4, 57, 0
5, 27839, Note_on_c, 4, 60, 0
5, 27839, Note_on_c, 4, 65, 0
5, 27840, Note_on_c, 4, 57, 80
5, 27840, Control_c, 4, 2, 80
5, 27840, Note_on_c, 4, 60, 80
5, 27840, Note_on_c, 4, 65, 80
5, 28319, Note_on_c, 4, 57, 0
5, 28319, Note_on_c, 4, 60, 0
5, 28319, Note_on_c, 4, 65, 0
5, 28320, Note_on_c, 4, 57, 80
5, 28320, Control_c, 4, 2, 80
5, 28320, Note_on_c, 4, 60, 80
5, 28320, Note_on_c, 4, 65, 80
5, 28799, Note_on_c, 4, 57, 0
5, 28799, Note_on_c, 4, 60, 0
5, 28799, Note_on_c, 4, 65, 0
5, 28800, Note_on_c, 4, 55, 80
5, 28800, Control_c, 4, 2, 80
5, 28800, Note_on_c, 4, 59, 80
5, 28800, Note_on_c, 4, 64, 80
5, 29279, Note_on_c, 4, 55, 0
5, 29279, Note_on_c, 4, 59, 0
5, 29279, Note_on_c, 4, 64, 0
5, 29280, Note_on_c, 4, 55, 80
5, 29280, Note_on_c, 4, 59, 80
5, 29280, Note_on_c, 4, 64, 80
5, 29759, Note_on_c, 4, 55, 0
5, 29759, Note_on_c, 4, 59, 0
5, 29759, Note_on_c, 4, 64, 0
5, 29760, Note_on_c, 4, 55, 80
5, 29760, Note_on_c, 4, 59, 80
5, 29760, Note_on_c, 4, 64, 80
5, 30239, Note_on_c, 4, 55, 0
5, 30239, Note_on_c, 4, 59, 0
5, 30239, Note_on_c, 4, 64, 0
5, 30240, Note_on_c, 4, 55, 80
5, 30240, Control_c, 4, 2, 80
5, 30240, Note_on_c, 4, 59, 80
5, 30240, Note_on_c, 4, 64, 80
5, 30719, Note_on_c, 4, 55, 0
5, 30719, Note_on_c, 4, 59, 0
5, 30719, Note_on_c, 4, 64, 0
5, 30720, Note_on_c, 4, 55, 80
5, 30720, Control_c, 4, 2, 80
5, 30720, Note_on_c, 4, 59, 80
5, 30720, Note_on_c, 4, 64, 80
5, 31199, Note_on_c, 4, 55, 0
5, 31199, Note_on_c, 4, 59, 0
5, 31199, Note_on_c, 4, 64, 0
5, 31200, Note_on_c, 4, 55, 80
5, 31200, Note_on_c, 4, 59, 80
5, 31200, Note_on_c, 4, 64, 80
5, 31679, Note_on_c, 4, 55, 0
5, 31679, Note_on_c, 4, 59, 0
5, 31679, Note_on_c, 4, 64, 0
5, 31680, Note_on_c, 4, 55, 80
5, 31680, Note_on_c, 4, 59, 80
5, 31680, Note_on_c, 4, 64, 80
5, 32159, Note_on_c, 4, 55, 0
5, 32159, Note_on_c, 4, 59, 0
5, 32159, Note_on_c, 4, 64, 0
5, 32160, Note_on_c, 4, 55, 80
5, 32160, Control_c, 4, 2, 80
5, 32160, Note_on_c, 4, 59, 80
5, 32160, Note_on_c, 4, 64, 80
5, 32639, Note_on_c, 4, 55, 0
5, 32639, Note_on_c, 4, 59, 0
5, 32639, Note_on_c, 4, 64, 0
5, 32640, Note_on_c, 4, 57, 80
5, 32640, Control_c, 4, 2, 80
5, 32640, Note_on_c, 4, 60, 80
5, 32640, Note_on_c, 4, 65, 80
5, 33119, Note_on_c, 4, 57, 0
5, 33119, Note_on_c, 4, 60, 0
5, 33119, Note_on_c, 4, 65, 0
5, 33120, Note_on_c, 4, 57, 80
5, 33120, Note_on_c, 4, 60, 80
5, 33120, Note_on_c, 4, 65, 80
5, 33599, Note_on_c, 4, 57, 0
5, 33599, Note_on_c, 4, 60, 0
5, 33599, Note_on_c, 4, 65, 0
5, 33600, Note_on_c, 4, 57, 80
5, 33600, Control_c, 4, 2, 80
5, 33600, Note_on_c, 4, 60, 80
5, 33600, Note_on_c, 4, 65, 80
5, 34079, Note_on_c, 4, 57, 0
5, 34079, Note_on_c, 4, 60, 0
5, 34079, Note_on_c, 4, 65, 0
5, 34080, Note_on_c, 4, 57, 80
5, 34080, Note_on_c, 4, 60, 80
5, 34080, Note_on_c, 4, 65, 80
5, 34559, Note_on_c, 4, 57, 0
5, 34559, Note_on_c, 4, 60, 0
5, 34559, Note_on_c, 4, 65, 0
5, 34560, Note_on_c, 4, 57, 80
5, 34560, Control_c, 4, 2, 80
5, 34560, Note_on_c, 4, 60, 80
5, 34560, Note_on_c, 4, 65, 80
5, 35039, Note_on_c, 4, 57, 0
5, 35039, Note_on_c, 4, 60, 0
5, 35039, Note_on_c, 4, 65, 0
5, 35040, Note_on_c, 4, 57, 80
5, 35040, Note_on_c, 4, 60, 80
5, 35040, Note_on_c, 4, 65, 80
5, 35519, Note_on_c, 4, 57, 0
5, 35519, Note_on_c, 4, 60, 0
5, 35519, Note_on_c, 4, 65, 0
5, 35520, Note_on_c, 4, 57, 80
5, 35520, Control_c, 4, 2, 80
5, 35520, Note_on_c, 4, 60, 80
5, 35520, Note_on_c, 4, 65, 80
5, 35999, Note_on_c, 4, 57, 0
5, 35999, Note_on_c, 4, 60, 0
5, 35999, Note_on_c, 4, 65, 0
5, 36000, Note_on_c, 4, 57, 80
5, 36000, Control_c, 4, 2, 80
5, 36000, Note_on_c, 4, 60, 80
5, 36000, Note_on_c, 4, 65, 80
5, 36479, Note_on_c, 4, 57, 0
5, 36479, Note_on_c, 4, 60, 0
5, 36479, Note_on_c, 4, 65, 0
5, 36480, Note_on_c, 4, 55, 80
5, 36480, Control_c, 4, 2, 80
5, 36480, Note_on_c, 4, 59, 80
5, 36480, Note_on_c, 4, 64, 80
5, 36959, Note_on_c, 4, 55, 0
5, 36959, Note_on_c, 4, 59, 0
5, 36959, Note_on_c, 4, 64, 0
5, 36960, Note_on_c, 4, 55, 80
5, 36960, Note_on_c, 4, 59, 80
5, 36960, Note_on_c, 4, 64, 80
5, 37439, Note_on_c, 4, 55, 0
5, 37439, Note_on_c, 4, 59, 0
5, 37439, Note_on_c, 4, 64, 0
5, 37440, Note_on_c, 4, 55, 80
5, 37440, Note_on_c, 4, 59, 80
5, 37440, Note_on_c, 4, 64, 80
5, 37919, Note_on_c, 4, 55, 0
5, 37919, Note_on_c, 4, 59, 0
5, 37919, Note_on_c, 4, 64, 0
5, 37920, Note_on_c, 4, 55, 80
5, 37920, Control_c, 4, 2, 80
5, 37920, Note_on_c, 4, 59, 80
5, 37920, Note_on_c, 4, 64, 80
5, 38399, Note_on_c, 4, 55, 0
5, 38399, Note_on_c, 4, 59, 0
5, 38399, Note_on_c, 4, 64, 0
5, 38400, Note_on_c, 4, 55, 80
5, 38400, Control_c, 4, 2, 80
5, 38400, Note_on_c, 4, 59, 80
5, 38400, Note_on_c, 4, 64, 80
5, 38879, Note_on_c, 4, 55, 0
5, 38879, Note_on_c, 4, 59, 0
5, 38879, Note_on_c, 4, 64, 0
5, 38880, Note_on_c, 4, 55, 80
5, 38880, Note_on_c, 4, 59, 80
5, 38880, Note_on_c, 4, 64, 80
5, 39359, Note_on_c, 4, 55, 0
5, 39359, Note_on_c, 4, 59, 0
5, 39359, Note_on_c, 4, 64, 0
5, 39360, Note_on_c, 4, 55, 80
5, 39360, Note_on_c, 4, 59, 80
5, 39360, Note_on_c, 4, 64, 80
5, 39839, Note_on_c, 4, 55, 0
5, 39839, Note_on_c, 4, 59, 0
5, 39839, Note_on_c, 4, 64, 0
5, 39840, Note_on_c, 4, 55, 80
5, 39840, Note_on_c, 4, 59, 80
5, 39840, Note_on_c, 4, 64, 80
5, 40319, Note_on_c, 4, 55, 0
5, 40319, Note_on_c, 4, 59, 0
5, 40319, Note_on_c, 4, 64, 0
5, 40320, Note_on_c, 4, 57, 80
5, 40320, Control_c, 4, 2, 80
5, 40320, Note_on_c, 4, 60, 80
5, 40320, Note_on_c, 4, 65, 80
5, 40799, Note_on_c, 4, 57, 0
5, 40799, Note_on_c, 4, 60, 0
5, 40799, Note_on_c, 4, 65, 0
5, 40800, Note_on_c, 4, 57, 80
5, 40800, Note_on_c, 4, 60, 80
5, 40800, Note_on_c, 4, 65, 80
5, 41279, Note_on_c, 4, 57, 0
5, 41279, Note_on_c, 4, 60, 0
5, 41279, Note_on_c, 4, 65, 0
5, 41280, Note_on_c, 4, 57, 80
5, 41280, Control_c, 4, 2, 80
5, 41280, Note_on_c, 4, 60, 80
5, 41280, Note_on_c, 4, 65, 80
5, 41759, Note_on_c, 4, 57, 0
5, 41759, Note_on_c, 4, 60, 0
5, 41759, Note_on_c, 4, 65, 0
5, 41760, Note_on_c, 4, 57, 80
5, 41760, Note_on_c, 4, 60, 80
5, 41760, Note_on_c, 4, 65, 80
5, 42239, Note_on_c, 4, 57, 0
5, 42239, Note_on_c, 4, 60, 0
5, 42239, Note_on_c, 4, 65, 0
5, 42240, Note_on_c, 4, 57, 80
5, 42240, Control_c, 4, 2, 80
5, 42240, Note_on_c, 4, 60, 80
5, 42240, Note_on_c, 4, 65, 80
5, 42719, Note_on_c, 4, 57, 0
5, 42719, Note_on_c, 4, 60, 0
5, 42719, Note_on_c, 4, 65, 0
5, 42720, Note_on_c, 4, 57, 80
5, 42720, Control_c, 4, 2, 80
5, 42720, Note_on_c, 4, 60, 80
5, 42720, Note_on_c, 4, 65, 80
5, 43199, Note_on_c, 4, 57, 0
5, 43199, Note_on_c, 4, 60, 0
5, 43199, Note_on_c, 4, 65, 0
5, 43200, Note_on_c, 4, 57, 80
5, 43200, Note_on_c, 4, 60, 80
5, 43200, Note_on_c, 4, 65, 80
5, 43679, Note_on_c, 4, 57, 0
5, 43679, Note_on_c, 4, 60, 0
5, 43679, Note_on_c, 4, 65, 0
5, 43680, Note_on_c, 4, 57, 80
5, 43680, Note_on_c, 4, 60, 80
5, 43680, Note_on_c, 4, 65, 80
5, 44159, Note_on_c, 4, 57, 0
5, 44159, Note_on_c, 4, 60, 0
5, 44159, Note_on_c, 4, 65, 0
5, 44160, Note_on_c, 4, 55, 80
5, 44160, Control_c, 4, 2, 80
5, 44160, Note_on_c, 4, 59, 80
5, 44160, Note_on_c, 4, 64, 80
5, 44639, Note_on_c, 4, 55, 0
5, 44639, Note_on_c, 4, 59, 0
5, 44639, Note_on_c, 4, 64, 0
5, 44640, Note_on_c, 4, 55, 80
5, 44640, Control_c, 4, 2, 80
5, 44640, Note_on_c, 4, 59, 80
5, 44640, Note_on_c, 4, 64, 80
5, 45119, Note_on_c, 4, 55, 0
5, 45119, Note_on_c, 4, 59, 0
5, 45119, Note_on_c, 4, 64, 0
5, 45120, Note_on_c, 4, 55, 80
5, 45120, Control_c, 4, 2, 80
5, 45120, Note_on_c, 4, 59, 80
5, 45120, Note_on_c, 4, 64, 80
5, 45599, Note_on_c, 4, 55, 0
5, 45599, Note_on_c, 4, 59, 0
5, 45599, Note_on_c, 4, 64, 0
5, 45600, Note_on_c, 4, 55, 80
5, 45600, Control_c, 4, 2, 80
5, 45600, Note_on_c, 4, 59, 80
5, 45600, Note_on_c, 4, 64, 80
5, 46079, Note_on_c, 4, 55, 0
5, 46079, Note_on_c, 4, 59, 0
5, 46079, Note_on_c, 4, 64, 0
5, 46080, Note_on_c, 4, 55, 80
5, 46080, Control_c, 4, 2, 80
5, 46080, Note_on_c, 4, 59, 80
5, 46080, Note_on_c, 4, 64, 80
5, 46559, Note_on_c, 4, 55, 0
5, 46559, Note_on_c, 4, 59, 0
5, 46559, Note_on_c, 4, 64, 0
5, 46560, Note_on_c, 4, 55, 80
5, 46560, Control_c, 4, 2, 80
5, 46560, Note_on_c, 4, 59, 80
5, 46560, Note_on_c, 4, 64, 80
5, 47039, Note_on_c, 4, 55, 0
5, 47039, Note_on_c, 4, 59, 0
5, 47039, Note_on_c, 4, 64, 0
5, 47040, Note_on_c, 4, 55, 80
5, 47040, Note_on_c, 4, 59, 80
5, 47040, Note_on_c, 4, 64, 80
5, 47519, Note_on_c, 4, 55, 0
5, 47519, Note_on_c, 4, 59, 0
5, 47519, Note_on_c, 4, 64, 0
5, 47520, Note_on_c, 4, 55, 80
5, 47520, Control_c, 4, 2, 80
5, 47520, Note_on_c, 4, 59, 80
5, 47520, Note_on_c, 4, 64, 80
5, 47999, Note_on_c, 4, 55, 0
5, 47999, Note_on_c, 4, 59, 0
5, 47999, Note_on_c, 4, 64, 0
5, 48000, Note_on_c, 4, 57, 80
5, 48000, Control_c, 4, 2, 80
5, 48000, Note_on_c, 4, 60, 80
5, 48000, Note_on_c, 4, 65, 80
5, 48479, Note_on_c, 4, 57, 0
5, 48479, Note_on_c, 4, 60, 0
5, 48479, Note_on_c, 4, 65, 0
5, 48480, Note_on_c, 4, 57, 80
5, 48480, Note_on_c, 4, 60, 80
5, 48480, Note_on_c, 4, 65, 80
5, 48959, Note_on_c, 4, 57, 0
5, 48959, Note_on_c, 4, 60, 0
5, 48959, Note_on_c, 4, 65, 0
5, 48960, Note_on_c, 4, 57, 80
5, 48960, Control_c, 4, 2, 80
5, 48960, Note_on_c, 4, 60, 80
5, 48960, Note_on_c, 4, 65, 80
5, 49439, Note_on_c, 4, 57, 0
5, 49439, Note_on_c, 4, 60, 0
5, 49439, Note_on_c, 4, 65, 0
5, 49440, Note_on_c, 4, 57, 80
5, 49440, Note_on_c, 4, 60, 80
5, 49440, Note_on_c, 4, 65, 80
5, 49919, Note_on_c, 4, 57, 0
5, 49919, Note_on_c, 4, 60, 0
5, 49919, Note_on_c, 4, 65, 0
5, 49920, Note_on_c, 4, 57, 80
5, 49920, Control_c, 4, 2, 80
5, 49920, Note_on_c, 4, 60, 80
5, 49920, Note_on_c, 4, 65, 80
5, 50399, Note_on_c, 4, 57, 0
5, 50399, Note_on_c, 4, 60, 0
5, 50399, Note_on_c, 4, 65, 0
5, 50400, Note_on_c, 4, 57, 80
5, 50400, Control_c, 4, 2, 80
5, 50400, Note_on_c, 4, 60, 80
5, 50400, Note_on_c, 4, 65, 80
5, 50879, Note_on_c, 4, 57, 0
5, 50879, Note_on_c, 4, 60, 0
5, 50879, Note_on_c, 4, 65, 0
5, 50880, Note_on_c, 4, 57, 80
5, 50880, Note_on_c, 4, 60, 80
5, 50880, Note_on_c, 4, 65, 80
5, 51359, Note_on_c, 4, 57, 0
5, 51359, Note_on_c, 4, 60, 0
5, 51359, Note_on_c, 4, 65, 0
5, 51360, Note_on_c, 4, 57, 80
5, 51360, Note_on_c, 4, 60, 80
5, 51360, Note_on_c, 4, 65, 80
5, 51839, Note_on_c, 4, 57, 0
5, 51839, Note_on_c, 4, 60, 0
5, 51839, Note_on_c, 4, 65, 0
5, 51840, Note_on_c, 4, 55, 80
5, 51840, Control_c, 4, 2, 80
5, 51840, Note_on_c, 4, 59, 80
5, 51840, Note_on_c, 4, 64, 80
5, 52319, Note_on_c, 4, 55, 0
5, 52319, Note_on_c, 4, 59, 0
5, 52319, Note_on_c, 4, 64, 0
5, 52320, Note_on_c, 4, 55, 80
5, 52320, Control_c, 4, 2, 80
5, 52320, Note_on_c, 4, 59, 80
5, 52320, Note_on_c, 4, 64, 80
5, 52799, Note_on_c, 4, 55, 0
5, 52799, Note_on_c, 4, 59, 0
5, 52799, Note_on_c, 4, 64, 0
5, 52800, Note_on_c, 4, 55, 80
5, 52800, Control_c, 4, 2, 80
5, 52800, Note_on_c, 4, 59, 80
5, 52800, Note_on_c, 4, 64, 80
5, 53279, Note_on_c, 4, 55, 0
5, 53279, Note_on_c, 4, 59, 0
5, 53279, Note_on_c, 4, 64, 0
5, 53280, Note_on_c, 4, 55, 80
5, 53280, Control_c, 4, 2, 80
5, 53280, Note_on_c, 4, 59, 80
5, 53280, Note_on_c, 4, 64, 80
5, 53759, Note_on_c, 4, 55, 0
5, 53759, Note_on_c, 4, 59, 0
5, 53759, Note_on_c, 4, 64, 0
5, 53760, Note_on_c, 4, 55, 80
5, 53760, Control_c, 4, 2, 80
5, 53760, Note_on_c, 4, 59, 80
5, 53760, Note_on_c, 4, 64, 80
5, 54239, Note_on_c, 4, 55, 0
5, 54239, Note_on_c, 4, 59, 0
5, 54239, Note_on_c, 4, 64, 0
5, 54240, Note_on_c, 4, 55, 80
5, 54240, Note_on_c, 4, 59, 80
5, 54240, Note_on_c, 4, 64, 80
5, 54719, Note_on_c, 4, 55, 0
5, 54719, Note_on_c, 4, 59, 0
5, 54719, Note_on_c, 4, 64, 0
5, 54720, Note_on_c, 4, 55, 80
5, 54720, Control_c, 4, 2, 80
5, 54720, Note_on_c, 4, 59, 80
5, 54720, Note_on_c, 4, 64, 80
5, 55199, Note_on_c, 4, 55, 0
5, 55199, Note_on_c, 4, 59, 0
5, 55199, Note_on_c, 4, 64, 0
5, 55200, Note_on_c, 4, 55, 80
5, 55200, Control_c, 4, 2, 80
5, 55200, Note_on_c, 4, 59, 80
5, 55200, Note_on_c, 4, 64, 80
5, 55679, Note_on_c, 4, 55, 0
5, 55679, Note_on_c, 4, 59, 0
5, 55679, Note_on_c, 4, 64, 0
5, 55680, Note_on_c, 4, 57, 80
5, 55680, Control_c, 4, 2, 80
5, 55680, Note_on_c, 4, 60, 80
5, 55680, Note_on_c, 4, 65, 80
5, 56159, Note_on_c, 4, 57, 0
5, 56159, Note_on_c, 4, 60, 0
5, 56159, Note_on_c, 4, 65, 0
5, 56160, Note_on_c, 4, 57, 80
5, 56160, Note_on_c, 4, 60, 80
5, 56160, Note_on_c, 4, 65, 80
5, 56639, Note_on_c, 4, 57, 0
5, 56639, Note_on_c, 4, 60, 0
5, 56639, Note_on_c, 4, 65, 0
5, 56640, Note_on_c, 4, 57, 80
5, 56640, Control_c, 4, 2, 80
5, 56640, Note_on_c, 4, 60, 80
5, 56640, Note_on_c, 4, 65, 80
5, 57119, Note_on_c, 4, 57, 0
5, 57119, Note_on_c, 4, 60, 0
5, 57119, Note_on_c, 4, 65, 0
5, 57120, Note_on_c, 4, 57, 80
5, 57120, Note_on_c, 4, 60, 80
5, 57120, Note_on_c, 4, 65, 80
5, 57599, Note_on_c, 4, 57, 0
5, 57599, Note_on_c, 4, 60, 0
5, 57599, Note_on_c, 4, 65, 0
5, 57600, Note_on_c, 4, 57, 80
5, 57600, Control_c, 4, 2, 80
5, 57600, Note_on_c, 4, 60, 80
5, 57600, Note_on_c, 4, 65, 80
5, 58079, Note_on_c, 4, 57, 0
5, 58079, Note_on_c, 4, 60, 0
5, 58079, Note_on_c, 4, 65, 0
5, 58080, Note_on_c, 4, 57, 80
5, 58080, Note_on_c, 4, 60, 80
5, 58080, Note_on_c, 4, 65, 80
5, 58559, Note_on_c, 4, 57, 0
5, 58559, Note_on_c, 4, 60, 0
5, 58559, Note_on_c, 4, 65, 0
5, 58560, Note_on_c, 4, 57, 80
5, 58560, Control_c, 4, 2, 80
5, 58560, Note_on_c, 4, 60, 80
5, 58560, Note_on_c, 4, 65, 80
5, 59039, Note_on_c, 4, 57, 0
5, 59039, Note_on_c, 4, 60, 0
5, 59039, Note_on_c, 4, 65, 0
5, 59040, Note_on_c, 4, 57, 80
5, 59040, Control_c, 4, 2, 80
5, 59040, Note_on_c, 4, 60, 80
5, 59040, Note_on_c, 4, 65, 80
5, 59519, Note_on_c, 4, 57, 0
5, 59519, Note_on_c, 4, 60, 0
5, 59519, Note_on_c, 4, 65, 0
5, 59520, Note_on_c, 4, 55, 80
5, 59520, Control_c, 4, 2, 80
5, 59520, Note_on_c, 4, 59, 80
5, 59520, Note_on_c, 4, 64, 80
5, 59999, Note_on_c, 4, 55, 0
5, 59999, Note_on_c, 4, 59, 0
5, 59999, Note_on_c, 4, 64, 0
5, 60000, Note_on_c, 4, 55, 80
5, 60000, Note_on_c, 4, 59, 80
5, 60000, Note_on_c, 4, 64, 80
5, 60479, Note_on_c, 4, 55, 0
5, 60479, Note_on_c, 4, 59, 0
5, 60479, Note_on_c, 4, 64, 0
5, 60480, Note_on_c, 4, 55, 80
5, 60480, Note_on_c, 4, 59, 80
5, 60480, Note_on_c, 4, 64, 80
5, 60959, Note_on_c, 4, 55, 0
5, 60959, Note_on_c, 4, 59, 0
5, 60959, Note_on_c, 4, 64, 0
5, 60960, Note_on_c, 4, 55, 80
5, 60960, Note_on_c, 4, 59, 80
5, 60960, Note_on_c, 4, 64, 80
5, 61439, Note_on_c, 4, 55, 0
5, 61439, Note_on_c, 4, 59, 0
5, 61439, Note_on_c, 4, 64, 0
5, 61440, Note_on_c, 4, 55, 80
5, 61440, Note_on_c, 4, 59, 80
5, 61440, Note_on_c, 4, 64, 80
5, 61919, Note_on_c, 4, 55, 0
5, 61919, Note_on_c, 4, 59, 0
5, 61919, Note_on_c, 4, 64, 0
5, 61920, Note_on_c, 4, 55, 80
5, 61920, Note_on_c, 4, 59, 80
5, 61920, Note_on_c, 4, 64, 80
5, 62399, Note_on_c, 4, 55, 0
5, 62399, Note_on_c, 4, 59, 0
5, 62399, Note_on_c, 4, 64, 0
5, 62400, Note_on_c, 4, 55, 80
5, 62400, Control_c, 4, 2, 80
5, 62400, Note_on_c, 4, 59, 80
5, 62400, Note_on_c, 4, 64, 80
5, 62879, Note_on_c, 4, 55, 0
5, 62879, Note_on_c, 4, 59, 0
5, 62879, Note_on_c, 4, 64, 0
5, 62880, Note_on_c, 4, 55, 80
5, 62880, Control_c, 4, 2, 80
5, 62880, Note_on_c, 4, 59, 80
5, 62880, Note_on_c, 4, 64, 80
5, 63359, Note_on_c, 4, 55, 0
5, 63359, Note_on_c, 4, 59, 0
5, 63359, Note_on_c, 4, 64, 0
5, 63360, Note_on_c, 4, 57, 80
5, 63360, Control_c, 4, 2, 80
5, 63360, Note_on_c, 4, 60, 80
5, 63360, Note_on_c, 4, 65, 80
5, 63839, Note_on_c, 4, 57, 0
5, 63839, Note_on_c, 4, 60, 0
5, 63839, Note_on_c, 4, 65, 0
5, 63840, Note_on_c, 4, 57, 80
5, 63840, Note_on_c, 4, 60, 80
5, 63840, Note_on_c, 4, 65, 80
5, 64319, Note_on_c, 4, 57, 0
5, 64319, Note_on_c, 4, 60, 0
5, 64319, Note_on_c, 4, 65, 0
5, 64320, Note_on_c, 4, 57, 80
5, 64320, Control_c, 4, 2, 80
5, 64320, Note_on_c, 4, 60, 80
5, 64320, Note_on_c, 4, 65, 80
5, 64799, Note_on_c, 4, 57, 0
5, 64799, Note_on_c, 4, 60, 0
5, 64799, Note_on_c, 4, 65, 0
5, 64800, Note_on_c, 4, 57, 80
5, 64800, Note_on_c, 4, 60, 80
5, 64800, Note_on_c, 4, 65, 80
5, 65279, Note_on_c, 4, 57, 0
5, 65279, Note_on_c, 4, 60, 0
5, 65279, Note_on_c, 4, 65, 0
5, 65280, Note_on_c, 4, 57, 80
5, 65280, Control_c, 4, 2, 80
5, 65280, Note_on_c, 4, 60, 80
5, 65280, Note_on_c, 4, 65, 80
5, 65759, Note_on_c, 4, 57, 0
5, 65759, Note_on_c, 4, 60, 0
5, 65759, Note_on_c, 4, 65, 0
5, 65760, Note_on_c, 4, 57, 80
5, 65760, Note_on_c, 4, 60, 80
5, 65760, Note_on_c, 4, 65, 80
5, 66239, Note_on_c, 4, 57, 0
5, 66239, Note_on_c, 4, 60, 0
5, 66239, Note_on_c, 4, 65, 0
5, 66240, Note_on_c, 4, 57, 80
5, 66240, Control_c, 4, 2, 80
5, 66240, Note_on_c, 4, 60, 80
5, 66240, Note_on_c, 4, 65, 80
5, 66719, Note_on_c, 4, 57, 0
5, 66719, Note_on_c, 4, 60, 0
5, 66719, Note_on_c, 4, 65, 0
5, 66720, Note_on_c, 4, 57, 80
5, 66720, Control_c, 4, 2, 80
5, 66720, Note_on_c, 4, 60, 80
5, 66720, Note_on_c, 4, 65, 80
5, 67199, Note_on_c, 4, 57, 0
5, 67199, Note_on_c, 4, 60, 0
5, 67199, Note_on_c, 4, 65, 0
5, 67200, Note_on_c, 4, 55, 80
5, 67200, Control_c, 4, 2, 80
5, 67200, Note_on_c, 4, 59, 80
5, 67200, Note_on_c, 4, 64, 80
5, 67679, Note_on_c, 4, 55, 0
5, 67679, Note_on_c, 4, 59, 0
5, 67679, Note_on_c, 4, 64, 0
5, 67680, Note_on_c, 4, 55, 80
5, 67680, Note_on_c, 4, 59, 80
5, 67680, Note_on_c, 4, 64, 80
5, 68159, Note_on_c, 4, 55, 0
5, 68159, Note_on_c, 4, 59, 0
5, 68159, Note_on_c, 4, 64, 0
5, 68160, Note_on_c, 4, 55, 80
5, 68160, Note_on_c, 4, 59, 80
5, 68160, Note_on_c, 4, 64, 80
5, 68639, Note_on_c, 4, 55, 0
5, 68639, Note_on_c, 4, 59, 0
5, 68639, Note_on_c, 4, 64, 0
5, 68640, Note_on_c, 4, 55, 80
5, 68640, Note_on_c, 4, 59, 80
5, 68640, Note_on_c, 4, 64, 80
5, 69119, Note_on_c, 4, 55, 0
5, 69119, Note_on_c, 4, 59, 0
5, 69119, Note_on_c, 4, 64, 0
5, 69120, Note_on_c, 4, 55, 80
5, 69120, Note_on_c, 4, 59, 80
5, 69120, Note_on_c, 4, 64, 80
5, 69599, Note_on_c, 4, 55, 0
5, 69599, Note_on_c, 4, 59, 0
5, 69599, Note_on_c, 4, 64, 0
5, 69600, Note_on_c, 4, 55, 80
5, 69600, Control_c, 4, 2, 80
5, 69600, Note_on_c, 4, 59, 80
5, 69600, Note_on_c, 4, 64, 80
5, 70079, Note_on_c, 4, 55, 0
5, 70079, Note_on_c, 4, 59, 0
5, 70079, Note_on_c, 4, 64, 0
5, 70080, Note_on_c, 4, 55, 80
5, 70080, Control_c, 4, 2, 80
5, 70080, Note_on_c, 4, 59, 80
5, 70080, Note_on_c, 4, 64, 80
5, 70559, Note_on_c, 4, 55, 0
5, 70559, Note_on_c, 4, 59, 0
5, 70559, Note_on_c, 4, 64, 0
5, 70560, Note_on_c, 4, 55, 80
5, 70560, Control_c, 4, 2, 80
5, 70560, Note_on_c, 4, 59, 80
5, 70560, Note_on_c, 4, 64, 80
5, 71039, Note_on_c, 4, 55, 0
5, 71039, Note_on_c, 4, 59, 0
5, 71039, Note_on_c, 4, 64, 0
5, 71040, Note_on_c, 4, 57, 80
5, 71040, Control_c, 4, 2, 80
5, 71040, Note_on_c, 4, 60, 80
5, 71040, Note_on_c, 4, 65, 80
5, 71519, Note_on_c, 4, 57, 0
5, 71519, Note_on_c, 4, 60, 0
5, 71519, Note_on_c, 4, 65, 0
5, 71520, Note_on_c, 4, 57, 80
5, 71520, Control_c, 4, 2, 80
5, 71520, Note_on_c, 4, 60, 80
5, 71520, Note_on_c, 4, 65, 80
5, 71999, Note_on_c, 4, 57, 0
5, 71999, Note_on_c, 4, 60, 0
5, 71999, Note_on_c, 4, 65, 0
5, 72000, Note_on_c, 4, 57, 80
5, 72000, Control_c, 4, 2, 80
5, 72000, Note_on_c, 4, 60, 80
5, 72000, Note_on_c, 4, 65, 80
5, 72479, Note_on_c, 4, 57, 0
5, 72479, Note_on_c, 4, 60, 0
5, 72479, Note_on_c, 4, 65, 0
5, 72480, Note_on_c, 4, 57, 80
5, 72480, Note_on_c, 4, 60, 80
5, 72480, Note_on_c, 4, 65, 80
5, 72959, Note_on_c, 4, 57, 0
5, 72959, Note_on_c, 4, 60, 0
5, 72959, Note_on_c, 4, 65, 0
5, 72960, Note_on_c, 4, 57, 80
5, 72960, Control_c, 4, 2, 80
5, 72960, Note_on_c, 4, 60, 80
5, 72960, Note_on_c, 4, 65, 80
5, 73439, Note_on_c, 4, 57, 0
5, 73439, Note_on_c, 4, 60, 0
5, 73439, Note_on_c, 4, 65, 0
5, 73440, Note_on_c, 4, 57, 80
5, 73440, Control_c, 4, 2, 80
5, 73440, Note_on_c, 4, 60, 80
5, 73440, Note_on_c, 4, 65, 80
5, 73919, Note_on_c, 4, 57, 0
5, 73919, Note_on_c, 4, 60, 0
5, 73919, Note_on_c, 4, 65, 0
5, 73920, Note_on_c, 4, 57, 80
5, 73920, Control_c, 4, 2, 80
5, 73920, Note_on_c, 4, 60, 80
5, 73920, Note_on_c, 4, 65, 80
5, 74399, Note_on_c, 4, 57, 0
5, 74399, Note_on_c, 4, 60, 0
5, 74399, Note_on_c, 4, 65, 0
5, 74400, Note_on_c, 4, 57, 80
5, 74400, Note_on_c, 4, 60, 80
5, 74400, Note_on_c, 4, 65, 80
5, 74879, Note_on_c, 4, 57, 0
5, 74879, Note_on_c, 4, 60, 0
5, 74879, Note_on_c, 4, 65, 0
5, 74880, Note_on_c, 4, 55, 80
5, 74880, Control_c, 4, 2, 80
5, 74880, Note_on_c, 4, 59, 80
5, 74880, Note_on_c, 4, 64, 80
5, 75359, Note_on_c, 4, 55, 0
5, 75359, Note_on_c, 4, 59, 0
5, 75359, Note_on_c, 4, 64, 0
5, 75360, Note_on_c, 4, 55, 80
5, 75360, Control_c, 4, 2, 80
5, 75360, Note_on_c, 4, 59, 80
5, 75360, Note_on_c, 4, 64, 80
5, 75839, Note_on_c, 4, 55, 0
5, 75839, Note_on_c, 4, 59, 0
5, 75839, Note_on_c, 4, 64, 0
5, 75840, Note_on_c, 4, 55, 80
5, 75840, Control_c, 4, 2, 80
5, 75840, Note_on_c, 4, 59, 80
5, 75840, Note_on_c, 4, 64, 80
5, 76319, Note_on_c, 4, 55, 0
5, 76319, Note_on_c, 4, 59, 0
5, 76319, Note_on_c, 4, 64, 0
5, 76320, Note_on_c, 4, 55, 80
5, 76320, Note_on_c, 4, 59, 80
5, 76320, Note_on_c, 4, 64, 80
5, 76799, Note_on_c, 4, 55, 0
5, 76799, Note_on_c, 4, 59, 0
5, 76799, Note_on_c, 4, 64, 0
5, 76800, Note_on_c, 4, 55, 80
5, 76800, Control_c, 4, 2, 80
5, 76800, Note_on_c, 4, 59, 80
5, 76800, Note_on_c, 4, 64, 80
5, 77279, Note_on_c, 4, 55, 0
5, 77279, Note_on_c, 4, 59, 0
5, 77279, Note_on_c, 4, 64, 0
5, 77280, Note_on_c, 4, 55, 80
5, 77280, Control_c, 4, 2, 80
5, 77280, Note_on_c, 4, 59, 80
5, 77280, Note_on_c, 4, 64, 80
5, 77759, Note_on_c, 4, 55, 0
5, 77759, Note_on_c, 4, 59, 0
5, 77759, Note_on_c, 4, 64, 0
5, 77760, Note_on_c, 4, 55, 80
5, 77760, Control_c, 4, 2, 80
5, 77760, Note_on_c, 4, 59, 80
5, 77760, Note_on_c, 4, 64, 80
5, 78239, Note_on_c, 4, 55, 0
5, 78239, Note_on_c, 4, 59, 0
5, 78239, Note_on_c, 4, 64, 0
5, 78240, Note_on_c, 4, 55, 80
5, 78240, Note_on_c, 4, 59, 80
5, 78240, Note_on_c, 4, 64, 80
5, 78719, Note_on_c, 4, 55, 0
5, 78719, Note_on_c, 4, 59, 0
5, 78719, Note_on_c, 4, 64, 0
5, 78720, Note_on_c, 4, 57, 80
5, 78720, Control_c, 4, 2, 80
5, 78720, Note_on_c, 4, 60, 80
5, 78720, Note_on_c, 4, 65, 80
5, 79199, Note_on_c, 4, 57, 0
5, 79199, Note_on_c, 4, 60, 0
5, 79199, Note_on_c, 4, 65, 0
5, 79200, Note_on_c, 4, 57, 80
5, 79200, Control_c, 4, 2, 80
5, 79200, Note_on_c, 4, 60, 80
5, 79200, Note_on_c, 4, 65, 80
5, 79679, Note_on_c, 4, 57, 0
5, 79679, Note_on_c, 4, 60, 0
5, 79679, Note_on_c, 4, 65, 0
5, 79680, Note_on_c, 4, 57, 80
5, 79680, Control_c, 4, 2, 80
5, 79680, Note_on_c, 4, 60, 80
5, 79680, Note_on_c, 4, 65, 80
5, 80159, Note_on_c, 4, 57, 0
5, 80159, Note_on_c, 4, 60, 0
5, 80159, Note_on_c, 4, 65, 0
5, 80160, Note_on_c, 4, 57, 80
5, 80160, Note_on_c, 4, 60, 80
5, 80160, Note_on_c, 4, 65, 80
5, 80639, Note_on_c, 4, 57, 0
5, 80639, Note_on_c, 4, 60, 0
5, 80639, Note_on_c, 4, 65, 0
5, 80640, Note_on_c, 4, 57, 80
5, 80640, Control_c, 4, 2, 80
5, 80640, Note_on_c, 4, 60, 80
5, 80640, Note_on_c, 4, 65, 80
5, 81119, Note_on_c, 4, 57, 0
5, 81119, Note_on_c, 4, 60, 0
5, 81119, Note_on_c, 4, 65, 0
5, 81120, Note_on_c, 4, 57, 80
5, 81120, Control_c, 4, 2, 80
5, 81120, Note_on_c, 4, 60, 80
5, 81120, Note_on_c, 4, 65, 80
5, 81599, Note_on_c, 4, 57, 0
5, 81599, Note_on_c, 4, 60, 0
5, 81599, Note_on_c, 4, 65, 0
5, 81600, Note_on_c, 4, 57, 80
5, 81600, Control_c, 4, 2, 80
5, 81600, Note_on_c, 4, 60, 80
5, 81600, Note_on_c, 4, 65, 80
5, 82079, Note_on_c, 4, 57, 0
5, 82079, Note_on_c, 4, 60, 0
5, 82079, Note_on_c, 4, 65, 0
5, 82080, Note_on_c, 4, 57, 80
5, 82080, Note_on_c, 4, 60, 80
5, 82080, Note_on_c, 4, 65, 80
5, 82559, Note_on_c, 4, 57, 0
5, 82559, Note_on_c, 4, 60, 0
5, 82559, Note_on_c, 4, 65, 0
5, 82560, Note_on_c, 4, 55, 80
5, 82560, Control_c, 4, 2, 80
5, 82560, Note_on_c, 4, 59, 80
5, 82560, Note_on_c, 4, 64, 80
5, 83039, Note_on_c, 4, 55, 0
5, 83039, Note_on_c, 4, 59, 0
5, 83039, Note_on_c, 4, 64, 0
5, 83040, Note_on_c, 4, 55, 80
5, 83040, Control_c, 4, 2, 80
5, 83040, Note_on_c, 4, 59, 80
5, 83040, Note_on_c, 4, 64, 80
5, 83519, Note_on_c, 4, 55, 0
5, 83519, Note_on_c, 4, 59, 0
5, 83519, Note_on_c, 4, 64, 0
5, 83520, Note_on_c, 4, 55, 80
5, 83520, Control_c, 4, 2, 80
5, 83520, Note_on_c, 4, 59, 80
5, 83520, Note_on_c, 4, 64, 80
5, 83999, Note_on_c, 4, 55, 0
5, 83999, Note_on_c, 4, 59, 0
5, 83999, Note_on_c, 4, 64, 0
5, 84000, Note_on_c, 4, 55, 80
5, 84000, Note_on_c, 4, 59, 80
5, 84000, Note_on_c, 4, 64, 80
5, 84479, Note_on_c, 4, 55, 0
5, 84479, Note_on_c, 4, 59, 0
5, 84479, Note_on_c, 4, 64, 0
5, 84480, Note_on_c, 4, 55, 80
5, 84480, Control_c, 4, 2, 80
5, 84480, Note_on_c, 4, 59, 80
5, 84480, Note_on_c, 4, 64, 80
5, 84959, Note_on_c, 4, 55, 0
5, 84959, Note_on_c, 4, 59, 0
5, 84959, Note_on_c, 4, 64, 0
5, 84960, Note_on_c, 4, 55, 80
5, 84960, Control_c, 4, 2, 80
5, 84960, Note_on_c, 4, 59, 80
5, 84960, Note_on_c, 4, 64, 80
5, 85439, Note_on_c, 4, 55, 0
5, 85439, Note_on_c, 4, 59, 0
5, 85439, Note_on_c, 4, 64, 0
5, 85440, Note_on_c, 4, 55, 80
5, 85440, Control_c, 4, 2, 80
5, 85440, Note_on_c, 4, 59, 80
5, 85440, Note_on_c, 4, 64, 80
5, 85919, Note_on_c, 4, 55, 0
5, 85919, Note_on_c, 4, 59, 0
5, 85919, Note_on_c, 4, 64, 0
5, 85920, Note_on_c, 4, 55, 80
5, 85920, Note_on_c, 4, 59, 80
5, 85920, Note_on_c, 4, 64, 80
5, 86399, Note_on_c, 4, 55, 0
5, 86399, Note_on_c, 4, 59, 0
5, 86399, Note_on_c, 4, 64, 0
5, 86400, Note_on_c, 4, 57, 80
5, 86400, Control_c, 4, 2, 80
5, 86400, Note_on_c, 4, 60, 80
5, 86400, Note_on_c, 4, 65, 80
5, 86879, Note_on_c, 4, 57, 0
5, 86879, Note_on_c, 4, 60, 0
5, 86879, Note_on_c, 4, 65, 0
5, 86880, Note_on_c, 4, 57, 80
5, 86880, Note_on_c, 4, 60, 80
5, 86880, Note_on_c, 4, 65, 80
5, 87359, Note_on_c, 4, 57, 0
5, 87359, Note_on_c, 4, 60, 0
5, 87359, Note_on_c, 4, 65, 0
5, 87360, Note_on_c, 4, 57, 80
5, 87360, Control_c, 4, 2, 80
5, 87360, Note_on_c, 4, 60, 80
5, 87360, Note_on_c, 4, 65, 80
5, 87839, Note_on_c, 4, 57, 0
5, 87839, Note_on_c, 4, 60, 0
5, 87839, Note_on_c, 4, 65, 0
5, 87840, Note_on_c, 4, 57, 80
5, 87840, Note_on_c, 4, 60, 80
5, 87840, Note_on_c, 4, 65, 80
5, 88319, Note_on_c, 4, 57, 0
5, 88319, Note_on_c, 4, 60, 0
5, 88319, Note_on_c, 4, 65, 0
5, 88320, Note_on_c, 4, 57, 80
5, 88320, Control_c, 4, 2, 80
5, 88320, Note_on_c, 4, 60, 80
5, 88320, Note_on_c, 4, 65, 80
5, 88799, Note_on_c, 4, 57, 0
5, 88799, Note_on_c, 4, 60, 0
5, 88799, Note_on_c, 4, 65, 0
5, 88800, Note_on_c, 4, 57, 80
5, 88800, Note_on_c, 4, 60, 80
5, 88800, Note_on_c, 4, 65, 80
5, 89279, Note_on_c, 4, 57, 0
5, 89279, Note_on_c, 4, 60, 0
5, 89279, Note_on_c, 4, 65, 0
5, 89280, Note_on_c, 4, 57, 80
5, 89280, Control_c, 4, 2, 80
5, 89280, Note_on_c, 4, 60, 80
5, 89280, Note_on_c, 4, 65, 80
5, 89759, Note_on_c, 4, 57, 0
5, 89759, Note_on_c, 4, 60, 0
5, 89759, Note_on_c, 4, 65, 0
5, 89760, Note_on_c, 4, 57, 80
5, 89760, Control_c, 4, 2, 80
5, 89760, Note_on_c, 4, 60, 80
5, 89760, Note_on_c, 4, 65, 80
5, 90239, Note_on_c, 4, 57, 0
5, 90239, Note_on_c, 4, 60, 0
5, 90239, Note_on_c, 4, 65, 0
5, 90240, Note_on_c, 4, 55, 80
5, 90240, Control_c, 4, 2, 80
5, 90240, Note_on_c, 4, 59, 80
5, 90240, Note_on_c, 4, 64, 80
5, 90719, Note_on_c, 4, 55, 0
5, 90719, Note_on_c, 4, 59, 0
5, 90719, Note_on_c, 4, 64, 0
5, 90720, Note_on_c, 4, 55, 80
5, 90720, Note_on_c, 4, 59, 80
5, 90720, Note_on_c, 4, 64, 80
5, 91199, Note_on_c, 4, 55, 0
5, 91199, Note_on_c, 4, 59, 0
5, 91199, Note_on_c, 4, 64, 0
5, 91200, Note_on_c, 4, 55, 80
5, 91200, Note_on_c, 4, 59, 80
5, 91200, Note_on_c, 4, 64, 80
5, 91679, Note_on_c, 4, 55, 0
5, 91679, Note_on_c, 4, 59, 0
5, 91679, Note_on_c, 4, 64, 0
5, 91680, Note_on_c, 4, 55, 80
5, 91680, Control_c, 4, 2, 80
5, 91680, Note_on_c, 4, 59, 80
5, 91680, Note_on_c, 4, 64, 80
5, 92159, Note_on_c, 4, 55, 0
5, 92159, Note_on_c, 4, 59, 0
5, 92159, Note_on_c, 4, 64, 0
5, 92160, Note_on_c, 4, 55, 80
5, 92160, Control_c, 4, 2, 80
5, 92160, Note_on_c, 4, 59, 80
5, 92160, Note_on_c, 4, 64, 80
5, 92639, Note_on_c, 4, 55, 0
5, 92639, Note_on_c, 4, 59, 0
5, 92639, Note_on_c, 4, 64, 0
5, 92640, Note_on_c, 4, 55, 80
5, 92640, Note_on_c, 4, 59, 80
5, 92640, Note_on_c, 4, 64, 80
5, 93119, Note_on_c, 4, 55, 0
5, 93119, Note_on_c, 4, 59, 0
5, 93119, Note_on_c, 4, 64, 0
5, 93120, Note_on_c, 4, 55, 80
5, 93120, Note_on_c, 4, 59, 80
5, 93120, Note_on_c, 4, 64, 80
5, 93599, Note_on_c, 4, 55, 0
5, 93599, Note_on_c, 4, 59, 0
5, 93599, Note_on_c, 4, 64, 0
5, 93600, Note_on_c, 4, 55, 80
5, 93600, Control_c, 4, 2, 80
5, 93600, Note_on_c, 4, 59, 80
5, 93600, Note_on_c, 4, 64, 80
5, 94079, Note_on_c, 4, 55, 0
5, 94079, Note_on_c, 4, 59, 0
5, 94079, Note_on_c, 4, 64, 0
5, 94080, Note_on_c, 4, 57, 80
5, 94080, Control_c, 4, 2, 80
5, 94080, Note_on_c, 4, 60, 80
5, 94080, Note_on_c, 4, 65, 80
5, 94559, Note_on_c, 4, 57, 0
5, 94559, Note_on_c, 4, 60, 0
5, 94559, Note_on_c, 4, 65, 0
5, 94560, Note_on_c, 4, 57, 80
5, 94560, Note_on_c, 4, 60, 80
5, 94560, Note_on_c, 4, 65, 80
5, 95039, Note_on_c, 4, 57, 0
5, 95039, Note_on_c, 4, 60, 0
5, 95039, Note_on_c, 4, 65, 0
5, 95040, Note_on_c, 4, 57, 80
5, 95040, Control_c, 4, 2, 80
5, 95040, Note_on_c, 4, 60, 80
5, 95040, Note_on_c, 4, 65, 80
5, 95519, Note_on_c, 4, 57, 0
5, 95519, Note_on_c, 4, 60, 0
5, 95519, Note_on_c, 4, 65, 0
5, 95520, Note_on_c, 4, 57, 80
5, 95520, Note_on_c, 4, 60, 80
5, 95520, Note_on_c, 4, 65, 80
5, 95999, Note_on_c, 4, 57, 0
5, 95999, Note_on_c, 4, 60, 0
5, 95999, Note_on_c, 4, 65, 0
5, 96000, Note_on_c, 4, 57, 80
5, 96000, Control_c, 4, 2, 80
5, 96000, Note_on_c, 4, 60, 80
5, 96000, Note_on_c, 4, 65, 80
5, 96479, Note_on_c, 4, 57, 0
5, 96479, Note_on_c, 4, 60, 0
5, 96479, Note_on_c, 4, 65, 0
5, 96480, Note_on_c, 4, 57, 80
5, 96480, Note_on_c, 4, 60, 80
5, 96480, Note_on_c, 4, 65, 80
5, 96959, Note_on_c, 4, 57, 0
5, 96959, Note_on_c, 4, 60, 0
5, 96959, Note_on_c, 4, 65, 0
5, 96960, Note_on_c, 4, 57, 80
5, 96960, Control_c, 4, 2, 80
5, 96960, Note_on_c, 4, 60, 80
5, 96960, Note_on_c, 4, 65, 80
5, 97439, Note_on_c, 4, 57, 0
5, 97439, Note_on_c, 4, 60, 0
5, 97439, Note_on_c, 4, 65, 0
5, 97440, Note_on_c, 4, 57, 80
5, 97440, Control_c, 4, 2, 80
5, 97440, Note_on_c, 4, 60, 80
5, 97440, Note_on_c, 4, 65, 80
5, 97919, Note_on_c, 4, 57, 0
5, 97919, Note_on_c, 4, 60, 0
5, 97919, Note_on_c, 4, 65, 0
5, 101760, Note_on_c, 4, 57, 80
5, 101760, Control_c, 4, 2, 80
5, 101760, Note_on_c, 4, 60, 80
5, 101760, Note_on_c, 4, 65, 80
5, 102239, Note_on_c, 4, 57, 0
5, 102239, Note_on_c, 4, 60, 0
5, 102239, Note_on_c, 4, 65, 0
5, 102240, Note_on_c, 4, 57, 80
5, 102240, Note_on_c, 4, 60, 80
5, 102240, Note_on_c, 4, 65, 80
5, 102719, Note_on_c, 4, 57, 0
5, 102719, Note_on_c, 4, 60, 0
5, 102719, Note_on_c, 4, 65, 0
5, 102720, Note_on_c, 4, 57, 80
5, 102720, Control_c, 4, 2, 80
5, 102720, Note_on_c, 4, 60, 80
5, 102720, Note_on_c, 4, 65, 80
5, 103199, Note_on_c, 4, 57, 0
5, 103199, Note_on_c, 4, 60, 0
5, 103199, Note_on_c, 4, 65, 0
5, 103200, Note_on_c, 4, 57, 80
5, 103200, Note_on_c, 4, 60, 80
5, 103200, Note_on_c, 4, 65, 80
5, 103679, Note_on_c, 4, 57, 0
5, 103679, Note_on_c, 4, 60, 0
5, 103679, Note_on_c, 4, 65, 0
5, 103680, Note_on_c, 4, 57, 80
5, 103680, Control_c, 4, 2, 80
5, 103680, Note_on_c, 4, 60, 80
5, 103680, Note_on_c, 4, 65, 80
5, 104159, Note_on_c, 4, 57, 0
5, 104159, Note_on_c, 4, 60, 0
5, 104159, Note_on_c, 4, 65, 0
5, 104160, Note_on_c, 4, 57, 80
5, 104160, Control_c, 4, 2, 80
5, 104160, Note_on_c, 4, 60, 80
5, 104160, Note_on_c, 4, 65, 80
5, 104639, Note_on_c, 4, 57, 0
5, 104639, Note_on_c, 4, 60, 0
5, 104639, Note_on_c, 4, 65, 0
5, 104640, Note_on_c, 4, 57, 80
5, 104640, Note_on_c, 4, 60, 80
5, 104640, Note_on_c, 4, 65, 80
5, 105119, Note_on_c, 4, 57, 0
5, 105119, Note_on_c, 4, 60, 0
5, 105119, Note_on_c, 4, 65, 0
5, 105120, Note_on_c, 4, 57, 80
5, 105120, Note_on_c, 4, 60, 80
5, 105120, Note_on_c, 4, 65, 80
5, 105599, Note_on_c, 4, 57, 0
5, 105599, Note_on_c, 4, 60, 0
5, 105599, Note_on_c, 4, 65, 0
5, 105600, Note_on_c, 4, 55, 80
5, 105600, Control_c, 4, 2, 80
5, 105600, Note_on_c, 4, 59, 80
5, 105600, Note_on_c, 4, 64, 80
5, 106079, Note_on_c, 4, 55, 0
5, 106079, Note_on_c, 4, 59, 0
5, 106079, Note_on_c, 4, 64, 0
5, 106080, Note_on_c, 4, 55, 80
5, 106080, Control_c, 4, 2, 80
5, 106080, Note_on_c, 4, 59, 80
5, 106080, Note_on_c, 4, 64, 80
5, 106559, Note_on_c, 4, 55, 0
5, 106559, Note_on_c, 4, 59, 0
5, 106559, Note_on_c, 4, 64, 0
5, 106560, Note_on_c, 4, 55, 80
5, 106560, Control_c, 4, 2, 80
5, 106560, Note_on_c, 4, 59, 80
5, 106560, Note_on_c, 4, 64, 80
5, 107039, Note_on_c, 4, 55, 0
5, 107039, Note_on_c, 4, 59, 0
5, 107039, Note_on_c, 4, 64, 0
5, 107040, Note_on_c, 4, 55, 80
5, 107040, Control_c, 4, 2, 80
5, 107040, Note_on_c, 4, 59, 80
5, 107040, Note_on_c, 4, 64, 80
5, 107519, Note_on_c, 4, 55, 0
5, 107519, Note_on_c, 4, 59, 0
5, 107519, Note_on_c, 4, 64, 0
5, 107520, Note_on_c, 4, 55, 80
5, 107520, Control_c, 4, 2, 80
5, 107520, Note_on_c, 4, 59, 80
5, 107520, Note_on_c, 4, 64, 80
5, 107999, Note_on_c, 4, 55, 0
5, 107999, Note_on_c, 4, 59, 0
5, 107999, Note_on_c, 4, 64, 0
5, 108000, Note_on_c, 4, 55, 80
5, 108000, Control_c, 4, 2, 80
5, 108000, Note_on_c, 4, 59, 80
5, 108000, Note_on_c, 4, 64, 80
5, 108479, Note_on_c, 4, 55, 0
5, 108479, Note_on_c, 4, 59, 0
5, 108479, Note_on_c, 4, 64, 0
5, 108480, Note_on_c, 4, 55, 80
5, 108480, Note_on_c, 4, 59, 80
5, 108480, Note_on_c, 4, 64, 80
5, 108959, Note_on_c, 4, 55, 0
5, 108959, Note_on_c, 4, 59, 0
5, 108959, Note_on_c, 4, 64, 0
5, 108960, Note_on_c, 4, 55, 80
5, 108960, Control_c, 4, 2, 80
5, 108960, Note_on_c, 4, 59, 80
5, 108960, Note_on_c, 4, 64, 80
5, 109439, Note_on_c, 4, 55, 0
5, 109439, Note_on_c, 4, 59, 0
5, 109439, Note_on_c, 4, 64, 0
5, 109440, Note_on_c, 4, 57, 80
5, 109440, Control_c, 4, 2, 80
5, 109440, Note_on_c, 4, 60, 80
5, 109440, Note_on_c, 4, 65, 80
5, 109919, Note_on_c, 4, 57, 0
5, 109919, Note_on_c, 4, 60, 0
5, 109919, Note_on_c, 4, 65, 0
5, 109920, Note_on_c, 4, 57, 80
5, 109920, Note_on_c, 4, 60, 80
5, 109920, Note_on_c, 4, 65, 80
5, 110399, Note_on_c, 4, 57, 0
5, 110399, Note_on_c, 4, 60, 0
5, 110399, Note_on_c, 4, 65, 0
5, 110400, Note_on_c, 4, 57, 80
5, 110400, Control_c, 4, 2, 80
5, 110400, Note_on_c, 4, 60, 80
5, 110400, Note_on_c, 4, 65, 80
5, 110879, Note_on_c, 4, 57, 0
5, 110879, Note_on_c, 4, 60, 0
5, 110879, Note_on_c, 4, 65, 0
5, 110880, Note_on_c, 4, 57, 80
5, 110880, Note_on_c, 4, 60, 80
5, 110880, Note_on_c, 4, 65, 80
5, 111359, Note_on_c, 4, 57, 0
5, 111359, Note_on_c, 4, 60, 0
5, 111359, Note_on_c, 4, 65, 0
5, 111360, Note_on_c, 4, 57, 80
5, 111360, Control_c, 4, 2, 80
5, 111360, Note_on_c, 4, 60, 80
5, 111360, Note_on_c, 4, 65, 80
5, 111839, Note_on_c, 4, 57, 0
5, 111839, Note_on_c, 4, 60, 0
5, 111839, Note_on_c, 4, 65, 0
5, 111840, Note_on_c, 4, 57, 80
5, 111840, Control_c, 4, 2, 80
5, 111840, Note_on_c, 4, 60, 80
5, 111840, Note_on_c, 4, 65, 80
5, 112319, Note_on_c, 4, 57, 0
5, 112319, Note_on_c, 4, 60, 0
5, 112319, Note_on_c, 4, 65, 0
5, 112320, Note_on_c, 4, 57, 80
5, 112320, Note_on_c, 4, 60, 80
5, 112320, Note_on_c, 4, 65, 80
5, 112799, Note_on_c, 4, 57, 0
5, 112799, Note_on_c, 4, 60, 0
5, 112799, Note_on_c, 4, 65, 0
5, 112800, Note_on_c, 4, 57, 80
5, 112800, Note_on_c, 4, 60, 80
5, 112800, Note_on_c, 4, 65, 80
5, 113279, Note_on_c, 4, 57, 0
5, 113279, Note_on_c, 4, 60, 0
5, 113279, Note_on_c, 4, 65, 0
5, 113280, Note_on_c, 4, 55, 80
5, 113280, Control_c, 4, 2, 80
5, 113280, Note_on_c, 4, 59, 80
5, 113280, Note_on_c, 4, 64, 80
5, 113759, Note_on_c, 4, 55, 0
5, 113759, Note_on_c, 4, 59, 0
5, 113759, Note_on_c, 4, 64, 0
5, 113760, Note_on_c, 4, 55, 80
5, 113760, Control_c, 4, 2, 80
5, 113760, Note_on_c, 4, 59, 80
5, 113760, Note_on_c, 4, 64, 80
5, 114239, Note_on_c, 4, 55, 0
5, 114239, Note_on_c, 4, 59, 0
5, 114239, Note_on_c, 4, 64, 0
5, 114240, Note_on_c, 4, 55, 80
5, 114240, Control_c, 4, 2, 80
5, 114240, Note_on_c, 4, 59, 80
5, 114240, Note_on_c, 4, 64, 80
5, 114719, Note_on_c, 4, 55, 0
5, 114719, Note_on_c, 4, 59, 0
5, 114719, Note_on_c, 4, 64, 0
5, 114720, Note_on_c, 4, 55, 80
5, 114720, Control_c, 4, 2, 80
5, 114720, Note_on_c, 4, 59, 80
5, 114720, Note_on_c, 4, 64, 80
5, 115199, Note_on_c, 4, 55, 0
5, 115199, Note_on_c, 4, 59, 0
5, 115199, Note_on_c, 4, 64, 0
5, 115200, Note_on_c, 4, 55, 80
5, 115200, Control_c, 4, 2, 80
5, 115200, Note_on_c, 4, 59, 80
5, 115200, Note_on_c, 4, 64, 80
5, 115679, Note_on_c, 4, 55, 0
5, 115679, Note_on_c, 4, 59, 0
5, 115679, Note_on_c, 4, 64, 0
5, 115680, Note_on_c, 4, 55, 80
5, 115680, Note_on_c, 4, 59, 80
5, 115680, Note_on_c, 4, 64, 80
5, 116159, Note_on_c, 4, 55, 0
5, 116159, Note_on_c, 4, 59, 0
5, 116159, Note_on_c, 4, 64, 0
5, 116160, Note_on_c, 4, 55, 80
5, 116160, Control_c, 4, 2, 80
5, 116160, Note_on_c, 4, 59, 80
5, 116160, Note_on_c, 4, 64, 80
5, 116639, Note_on_c, 4, 55, 0
5, 116639, Note_on_c, 4, 59, 0
5, 116639, Note_on_c, 4, 64, 0
5, 116640, Note_on_c, 4, 55, 80
5, 116640, Control_c, 4, 2, 80
5, 116640, Note_on_c, 4, 59, 80
5, 116640, Note_on_c, 4, 64, 80
5, 117119, Note_on_c, 4, 55, 0
5, 117119, Note_on_c, 4, 59, 0
5, 117119, Note_on_c, 4, 64, 0
5, 117120, Note_on_c, 4, 57, 80
5, 117120, Control_c, 4, 2, 80
5, 117120, Note_on_c, 4, 60, 80
5, 117120, Note_on_c, 4, 65, 80
5, 117599, Note_on_c, 4, 57, 0
5, 117599, Note_on_c, 4, 60, 0
5, 117599, Note_on_c, 4, 65, 0
5, 117600, Note_on_c, 4, 57, 80
5, 117600, Note_on_c, 4, 60, 80
5, 117600, Note_on_c, 4, 65, 80
5, 118079, Note_on_c, 4, 57, 0
5, 118079, Note_on_c, 4, 60, 0
5, 118079, Note_on_c, 4, 65, 0
5, 118080, Note_on_c, 4, 57, 80
5, 118080, Control_c, 4, 2, 80
5, 118080, Note_on_c, 4, 60, 80
5, 118080, Note_on_c, 4, 65, 80
5, 118559, Note_on_c, 4, 57, 0
5, 118559, Note_on_c, 4, 60, 0
5, 118559, Note_on_c, 4, 65, 0
5, 118560, Note_on_c, 4, 57, 80
5, 118560, Note_on_c, 4, 60, 80
5, 118560, Note_on_c, 4, 65, 80
5, 119039, Note_on_c, 4, 57, 0
5, 119039, Note_on_c, 4, 60, 0
5, 119039, Note_on_c, 4, 65, 0
5, 119040, Note_on_c, 4, 57, 80
5, 119040, Control_c, 4, 2, 80
5, 119040, Note_on_c, 4, 60, 80
5, 119040, Note_on_c, 4, 65, 80
5, 119519, Note_on_c, 4, 57, 0
5, 119519, Note_on_c, 4, 60, 0
5, 119519, Note_on_c, 4, 65, 0
5, 119520, Note_on_c, 4, 57, 80
5, 119520, Note_on_c, 4, 60, 80
5, 119520, Note_on_c, 4, 65, 80
5, 119999, Note_on_c, 4, 57, 0
5, 119999, Note_on_c, 4, 60, 0
5, 119999, Note_on_c, 4, 65, 0
5, 120000, Note_on_c, 4, 57, 80
5, 120000, Control_c, 4, 2, 80
5, 120000, Note_on_c, 4, 60, 80
5, 120000, Note_on_c, 4, 65, 80
5, 120479, Note_on_c, 4, 57, 0
5, 120479, Note_on_c, 4, 60, 0
5, 120479, Note_on_c, 4, 65, 0
5, 120480, Note_on_c, 4, 57, 80
5, 120480, Control_c, 4, 2, 80
5, 120480, Note_on_c, 4, 60, 80
5, 120480, Note_on_c, 4, 65, 80
5, 120959, Note_on_c, 4, 57, 0
5, 120959, Note_on_c, 4, 60, 0
5, 120959, Note_on_c, 4, 65, 0
5, 120960, Note_on_c, 4, 55, 80
5, 120960, Control_c, 4, 2, 80
5, 120960, Note_on_c, 4, 59, 80
5, 120960, Note_on_c, 4, 64, 80
5, 121439, Note_on_c, 4, 55, 0
5, 121439, Note_on_c, 4, 59, 0
5, 121439, Note_on_c, 4, 64, 0
5, 121440, Note_on_c, 4, 55, 80
5, 121440, Note_on_c, 4, 59, 80
5, 121440, Note_on_c, 4, 64, 80
5, 121919, Note_on_c, 4, 55, 0
5, 121919, Note_on_c, 4, 59, 0
5, 121919, Note_on_c, 4, 64, 0
5, 121920, Note_on_c, 4, 55, 80
5, 121920, Note_on_c, 4, 59, 80
5, 121920, Note_on_c, 4, 64, 80
5, 122399, Note_on_c, 4, 55, 0
5, 122399, Note_on_c, 4, 59, 0
5, 122399, Note_on_c, 4, 64, 0
5, 122400, Note_on_c, 4, 55, 80
5, 122400, Note_on_c, 4, 59, 80
5, 122400, Note_on_c, 4, 64, 80
5, 122879, Note_on_c, 4, 55, 0
5, 122879, Note_on_c, 4, 59, 0
5, 122879, Note_on_c, 4, 64, 0
5, 122880, Note_on_c, 4, 55, 80
5, 122880, Note_on_c, 4, 59, 80
5, 122880, Note_on_c, 4, 64, 80
5, 123359, Note_on_c, 4, 55, 0
5, 123359, Note_on_c, 4, 59, 0
5, 123359, Note_on_c, 4, 64, 0
5, 123360, Note_on_c, 4, 55, 80
5, 123360, Note_on_c, 4, 59, 80
5, 123360, Note_on_c, 4, 64, 80
5, 123839, Note_on_c, 4, 55, 0
5, 123839, Note_on_c, 4, 59, 0
5, 123839, Note_on_c, 4, 64, 0
5, 123840, Note_on_c, 4, 55, 80
5, 123840, Control_c, 4, 2, 80
5, 123840, Note_on_c, 4, 59, 80
5, 123840, Note_on_c, 4, 64, 80
5, 124319, Note_on_c, 4, 55, 0
5, 124319, Note_on_c, 4, 59, 0
5, 124319, Note_on_c, 4, 64, 0
5, 124320, Note_on_c, 4, 55, 80
5, 124320, Control_c, 4, 2, 80
5, 124320, Note_on_c, 4, 59, 80
5, 124320, Note_on_c, 4, 64, 80
5, 124799, Note_on_c, 4, 55, 0
5, 124799, Note_on_c, 4, 59, 0
5, 124799, Note_on_c, 4, 64, 0
5, 124800, Note_on_c, 4, 57, 80
5, 124800, Control_c, 4, 2, 80
5, 124800, Note_on_c, 4, 60, 80
5, 124800, Note_on_c, 4, 65, 80
5, 125279, Note_on_c, 4, 57, 0
5, 125279, Note_on_c, 4, 60, 0
5, 125279, Note_on_c, 4, 65, 0
5, 125280, Note_on_c, 4, 57, 80
5, 125280, Note_on_c, 4, 60, 80
5, 125280, Note_on_c, 4, 65, 80
5, 125759, Note_on_c, 4, 57, 0
5, 125759, Note_on_c, 4, 60, 0
5, 125759, Note_on_c, 4, 65, 0
5, 125760, Note_on_c, 4, 57, 80
5, 125760, Control_c, 4, 2, 80
5, 125760, Note_on_c, 4, 60, 80
5, 125760, Note_on_c, 4, 65, 80
5, 126239, Note_on_c, 4, 57, 0
5, 126239, Note_on_c, 4, 60, 0
5, 126239, Note_on_c, 4, 65, 0
5, 126240, Note_on_c, 4, 57, 80
5, 126240, Note_on_c, 4, 60, 80
5, 126240, Note_on_c, 4, 65, 80
5, 126719, Note_on_c, 4, 57, 0
5, 126719, Note_on_c, 4, 60, 0
5, 126719, Note_on_c, 4, 65, 0
5, 126720, Note_on_c, 4, 57, 80
5, 126720, Control_c, 4, 2, 80
5, 126720, Note_on_c, 4, 60, 80
5, 126720, Note_on_c, 4, 65, 80
5, 127199, Note_on_c, 4, 57, 0
5, 127199, Note_on_c, 4, 60, 0
5, 127199, Note_on_c, 4, 65, 0
5, 127200, Note_on_c, 4, 57, 80
5, 127200, Note_on_c, 4, 60, 80
5, 127200, Note_on_c, 4, 65, 80
5, 127679, Note_on_c, 4, 57, 0
5, 127679, Note_on_c, 4, 60, 0
5, 127679, Note_on_c, 4, 65, 0
5, 127680, Note_on_c, 4, 57, 80
5, 127680, Control_c, 4, 2, 80
5, 127680, Note_on_c, 4, 60, 80
5, 127680, Note_on_c, 4, 65, 80
5, 128159, Note_on_c, 4, 57, 0
5, 128159, Note_on_c, 4, 60, 0
5, 128159, Note_on_c, 4, 65, 0
5, 128160, Note_on_c, 4, 57, 80
5, 128160, Control_c, 4, 2, 80
5, 128160, Note_on_c, 4, 60, 80
5, 128160, Note_on_c, 4, 65, 80
5, 128639, Note_on_c, 4, 57, 0
5, 128639, Note_on_c, 4, 60, 0
5, 128639, Note_on_c, 4, 65, 0
5, 128640, Note_on_c, 4, 55, 80
5, 128640, Control_c, 4, 2, 80
5, 128640, Note_on_c, 4, 59, 80
5, 128640, Note_on_c, 4, 64, 80
5, 129119, Note_on_c, 4, 55, 0
5, 129119, Note_on_c, 4, 59, 0
5, 129119, Note_on_c, 4, 64, 0
5, 129120, Note_on_c, 4, 55, 80
5, 129120, Note_on_c, 4, 59, 80
5, 129120, Note_on_c, 4, 64, 80
5, 129599, Note_on_c, 4, 55, 0
5, 129599, Note_on_c, 4, 59, 0
5, 129599, Note_on_c, 4, 64, 0
5, 129600, Note_on_c, 4, 55, 80
5, 129600, Note_on_c, 4, 59, 80
5, 129600, Note_on_c, 4, 64, 80
5, 130079, Note_on_c, 4, 55, 0
5, 130079, Note_on_c, 4, 59, 0
5, 130079, Note_on_c, 4, 64, 0
5, 130080, Note_on_c, 4, 55, 80
5, 130080, Note_on_c, 4, 59, 80
5, 130080, Note_on_c, 4, 64, 80
5, 130559, Note_on_c, 4, 55, 0
5, 130559, Note_on_c, 4, 59, 0
5, 130559, Note_on_c, 4, 64, 0
5, 130560, Note_on_c, 4, 55, 80
5, 130560, Note_on_c, 4, 59, 80
5, 130560, Note_on_c, 4, 64, 80
5, 131039, Note_on_c, 4, 55, 0
5, 131039, Note_on_c, 4, 59, 0
5, 131039, Note_on_c, 4, 64, 0
5, 131040, Note_on_c, 4, 55, 80
5, 131040, Note_on_c, 4, 59, 80
5, 131040, Note_on_c, 4, 64, 80
5, 131519, Note_on_c, 4, 55, 0
5, 131519, Note_on_c, 4, 59, 0
5, 131519, Note_on_c, 4, 64, 0
5, 131520, Note_on_c, 4, 55, 80
5, 131520, Note_on_c, 4, 59, 80
5, 131520, Note_on_c, 4, 64, 80
5, 131999, Note_on_c, 4, 55, 0
5, 131999, Note_on_c, 4, 59, 0
5, 131999, Note_on_c, 4, 64, 0
5, 132000, Note_on_c, 4, 55, 80
5, 132000, Note_on_c, 4, 59, 80
5, 132000, Note_on_c, 4, 64, 80
5, 132479, Note_on_c, 4, 55, 0
5, 132479, Note_on_c, 4, 59, 0
5, 132479, Note_on_c, 4, 64, 0
5, 132480, Note_on_c, 4, 57, 80
5, 132480, Control_c, 4, 2, 80
5, 132480, Note_on_c, 4, 60, 80
5, 132480, Note_on_c, 4, 65, 80
5, 132959, Note_on_c, 4, 57, 0
5, 132959, Note_on_c, 4, 60, 0
5, 132959, Note_on_c, 4, 65, 0
5, 132960, Note_on_c, 4, 57, 80
5, 132960, Note_on_c, 4, 60, 80
5, 132960, Note_on_c, 4, 65, 80
5, 133439, Note_on_c, 4, 57, 0
5, 133439, Note_on_c, 4, 60, 0
5, 133439, Note_on_c, 4, 65, 0
5, 133440, Note_on_c, 4, 57, 80
5, 133440, Note_on_c, 4, 60, 80
5, 133440, Note_on_c, 4, 65, 80
5, 133919, Note_on_c, 4, 57, 0
5, 133919, Note_on_c, 4, 60, 0
5, 133919, Note_on_c, 4, 65, 0
5, 133920, Note_on_c, 4, 57, 80
5, 133920, Note_on_c, 4, 60, 80
5, 133920, Note_on_c, 4, 65, 80
5, 134399, Note_on_c, 4, 57, 0
5, 134399, Note_on_c, 4, 60, 0
5, 134399, Note_on_c, 4, 65, 0
5, 134400, Note_on_c, 4, 57, 80
5, 134400, Note_on_c, 4, 60, 80
5, 134400, Note_on_c, 4, 65, 80
5, 134879, Note_on_c, 4, 57, 0
5, 134879, Note_on_c, 4, 60, 0
5, 134879, Note_on_c, 4, 65, 0
5, 134880, Note_on_c, 4, 57, 80
5, 134880, Note_on_c, 4, 60, 80
5, 134880, Note_on_c, 4, 65, 80
5, 135359, Note_on_c, 4, 57, 0
5, 135359, Note_on_c, 4, 60, 0
5, 135359, Note_on_c, 4, 65, 0
5, 135360, Note_on_c, 4, 57, 80
5, 135360, Note_on_c, 4, 60, 80
5, 135360, Note_on_c, 4, 65, 80
5, 135839, Note_on_c, 4, 57, 0
5, 135839, Note_on_c, 4, 60, 0
5, 135839, Note_on_c, 4, 65, 0
5, 135840, Note_on_c, 4, 57, 80
5, 135840, Note_on_c, 4, 60, 80
5, 135840, Note_on_c, 4, 65, 80
5, 136319, Note_on_c, 4, 57, 0
5, 136319, Note_on_c, 4, 60, 0
5, 136319, Note_on_c, 4, 65, 0
5, 136320, Note_on_c, 4, 55, 80
5, 136320, Control_c, 4, 2, 80
5, 136320, Note_on_c, 4, 59, 80
5, 136320, Note_on_c, 4, 64, 80
5, 136799, Note_on_c, 4, 55, 0
5, 136799, Note_on_c, 4, 59, 0
5, 136799, Note_on_c, 4, 64, 0
5, 136800, Note_on_c, 4, 55, 80
5, 136800, Note_on_c, 4, 59, 80
5, 136800, Note_on_c, 4, 64, 80
5, 137279, Note_on_c, 4, 55, 0
5, 137279, Note_on_c, 4, 59, 0
5, 137279, Note_on_c, 4, 64, 0
5, 137280, Note_on_c, 4, 55, 80
5, 137280, Note_on_c, 4, 59, 80
5, 137280, Note_on_c, 4, 64, 80
5, 137759, Note_on_c, 4, 55, 0
5, 137759, Note_on_c, 4, 59, 0
5, 137759, Note_on_c, 4, 64, 0
5, 137760, Note_on_c, 4, 55, 80
5, 137760, Note_on_c, 4, 59, 80
5, 137760, Note_on_c, 4, 64, 80
5, 138239, Note_on_c, 4, 55, 0
5, 138239, Note_on_c, 4, 59, 0
5, 138239, Note_on_c, 4, 64, 0
5, 138240, Note_on_c, 4, 55, 80
5, 138240, Note_on_c, 4, 59, 80
5, 138240, Note_on_c, 4, 64, 80
5, 138719, Note_on_c, 4, 55, 0
5, 138719, Note_on_c, 4, 59, 0
5, 138719, Note_on_c, 4, 64, 0
5, 138720, Note_on_c, 4, 55, 80
5, 138720, Note_on_c, 4, 59, 80
5, 138720, Note_on_c, 4, 64, 80
5, 139199, Note_on_c, 4, 55, 0
5, 139199, Note_on_c, 4, 59, 0
5, 139199, Note_on_c, 4, 64, 0
5, 139200, Note_on_c, 4, 55, 80
5, 139200, Note_on_c, 4, 59, 80
5, 139200, Note_on_c, 4, 64, 80
5, 139679, Note_on_c, 4, 55, 0
5, 139679, Note_on_c, 4, 59, 0
5, 139679, Note_on_c, 4, 64, 0
5, 139680, Note_on_c, 4, 55, 80
5, 139680, Note_on_c, 4, 59, 80
5, 139680, Note_on_c, 4, 64, 80
5, 140159, Note_on_c, 4, 55, 0
5, 140159, Note_on_c, 4, 59, 0
5, 140159, Note_on_c, 4, 64, 0
5, 140160, Note_on_c, 4, 57, 80
5, 140160, Control_c, 4, 2, 80
5, 140160, Note_on_c, 4, 60, 80
5, 140160, Note_on_c, 4, 65, 80
5, 140639, Note_on_c, 4, 57, 0
5, 140639, Note_on_c, 4, 60, 0
5, 140639, Note_on_c, 4, 65, 0
5, 140640, Note_on_c, 4, 57, 80
5, 140640, Note_on_c, 4, 60, 80
5, 140640, Note_on_c, 4, 65, 80
5, 141119, Note_on_c, 4, 57, 0
5, 141119, Note_on_c, 4, 60, 0
5, 141119, Note_on_c, 4, 65, 0
5, 141120, Note_on_c, 4, 57, 80
5, 141120, Note_on_c, 4, 60, 80
5, 141120, Note_on_c, 4, 65, 80
5, 141599, Note_on_c, 4, 57, 0
5, 141599, Note_on_c, 4, 60, 0
5, 141599, Note_on_c, 4, 65, 0
5, 141600, Note_on_c, 4, 57, 80
5, 141600, Note_on_c, 4, 60, 80
5, 141600, Note_on_c, 4, 65, 80
5, 142079, Note_on_c, 4, 57, 0
5, 142079, Note_on_c, 4, 60, 0
5, 142079, Note_on_c, 4, 65, 0
5, 142080, Note_on_c, 4, 57, 80
5, 142080, Note_on_c, 4, 60, 80
5, 142080, Note_on_c, 4, 65, 80
5, 142559, Note_on_c, 4, 57, 0
5, 142559, Note_on_c, 4, 60, 0
5, 142559, Note_on_c, 4, 65, 0
5, 142560, Note_on_c, 4, 57, 80
5, 142560, Note_on_c, 4, 60, 80
5, 142560, Note_on_c, 4, 65, 80
5, 143039, Note_on_c, 4, 57, 0
5, 143039, Note_on_c, 4, 60, 0
5, 143039, Note_on_c, 4, 65, 0
5, 143040, Note_on_c, 4, 57, 80
5, 143040, Note_on_c, 4, 60, 80
5, 143040, Note_on_c, 4, 65, 80
5, 143519, Note_on_c, 4, 57, 0
5, 143519, Note_on_c, 4, 60, 0
5, 143519, Note_on_c, 4, 65, 0
5, 143520, Note_on_c, 4, 57, 80
5, 143520, Note_on_c, 4, 60, 80
5, 143520, Note_on_c, 4, 65, 80
5, 143999, Note_on_c, 4, 57, 0
5, 143999, Note_on_c, 4, 60, 0
5, 143999, Note_on_c, 4, 65, 0
5, 144000, Note_on_c, 4, 55, 80
5, 144000, Control_c, 4, 2, 80
5, 144000, Note_on_c, 4, 59, 80
5, 144000, Note_on_c, 4, 64, 80
5, 144479, Note_on_c, 4, 55, 0
5, 144479, Note_on_c, 4, 59, 0
5, 144479, Note_on_c, 4, 64, 0
5, 144480, Note_on_c, 4, 55, 80
5, 144480, Note_on_c, 4, 59, 80
5, 144480, Note_on_c, 4, 64, 80
5, 144959, Note_on_c, 4, 55, 0
5, 144959, Note_on_c, 4, 59, 0
5, 144959, Note_on_c, 4, 64, 0
5, 144960, Note_on_c, 4, 55, 80
5, 144960, Note_on_c, 4, 59, 80
5, 144960, Note_on_c, 4, 64, 80
5, 145439, Note_on_c, 4, 55, 0
5, 145439, Note_on_c, 4, 59, 0
5, 145439, Note_on_c, 4, 64, 0
5, 145440, Note_on_c, 4, 55, 80
5, 145440, Note_on_c, 4, 59, 80
5, 145440, Note_on_c, 4, 64, 80
5, 145919, Note_on_c, 4, 55, 0
5, 145919, Note_on_c, 4, 59, 0
5, 145919, Note_on_c, 4, 64, 0
5, 145920, Note_on_c, 4, 55, 80
5, 145920, Note_on_c, 4, 59, 80
5, 145920, Note_on_c, 4, 64, 80
5, 146399, Note_on_c, 4, 55, 0
5, 146399, Note_on_c, 4, 59, 0
5, 146399, Note_on_c, 4, 64, 0
5, 146400, Note_on_c, 4, 55, 80
5, 146400, Note_on_c, 4, 59, 80
5, 146400, Note_on_c, 4, 64, 80
5, 146879, Note_on_c, 4, 55, 0
5, 146879, Note_on_c, 4, 59, 0
5, 146879, Note_on_c, 4, 64, 0
5, 146880, Note_on_c, 4, 55, 80
5, 146880, Note_on_c, 4, 59, 80
5, 146880, Note_on_c, 4, 64, 80
5, 147359, Note_on_c, 4, 55, 0
5, 147359, Note_on_c, 4, 59, 0
5, 147359, Note_on_c, 4, 64, 0
5, 147360, Note_on_c, 4, 55, 80
5, 147360, Note_on_c, 4, 59, 80
5, 147360, Note_on_c, 4, 64, 80
5, 147839, Note_on_c, 4, 55, 0
5, 147839, Note_on_c, 4, 59, 0
5, 147839, Note_on_c, 4, 64, 0
5, 147840, Note_on_c, 4, 57, 80
5, 147840, Control_c, 4, 2, 80
5, 147840, Note_on_c, 4, 60, 80
5, 147840, Note_on_c, 4, 65, 80
5, 148319, Note_on_c, 4, 57, 0
5, 148319, Note_on_c, 4, 60, 0
5, 148319, Note_on_c, 4, 65, 0
5, 148320, Note_on_c, 4, 57, 80
5, 148320, Note_on_c, 4, 60, 80
5, 148320, Note_on_c, 4, 65, 80
5, 148799, Note_on_c, 4, 57, 0
5, 148799, Note_on_c, 4, 60, 0
5, 148799, Note_on_c, 4, 65, 0
5, 148800, Note_on_c, 4, 57, 80
5, 148800, Note_on_c, 4, 60, 80
5, 148800, Note_on_c, 4, 65, 80
5, 149279, Note_on_c, 4, 57, 0
5, 149279, Note_on_c, 4, 60, 0
5, 149279, Note_on_c, 4, 65, 0
5, 149280, Note_on_c, 4, 57, 80
5, 149280, Note_on_c, 4, 60, 80
5, 149280, Note_on_c, 4, 65, 80
5, 149759, Note_on_c, 4, 57, 0
5, 149759, Note_on_c, 4, 60, 0
5, 149759, Note_on_c, 4, 65, 0
5, 149760, Note_on_c, 4, 57, 80
5, 149760, Note_on_c, 4, 60, 80
5, 149760, Note_on_c, 4, 65, 80
5, 150239, Note_on_c, 4, 57, 0
5, 150239, Note_on_c, 4, 60, 0
5, 150239, Note_on_c, 4, 65, 0
5, 150240, Note_on_c, 4, 57, 80
5, 150240, Note_on_c, 4, 60, 80
5, 150240, Note_on_c, 4, 65, 80
5, 150719, Note_on_c, 4, 57, 0
5, 150719, Note_on_c, 4, 60, 0
5, 150719, Note_on_c, 4, 65, 0
5, 150720, Note_on_c, 4, 57, 80
5, 150720, Note_on_c, 4, 60, 80
5, 150720, Note_on_c, 4, 65, 80
5, 151199, Note_on_c, 4, 57, 0
5, 151199, Note_on_c, 4, 60, 0
5, 151199, Note_on_c, 4, 65, 0
5, 151200, Note_on_c, 4, 57, 80
5, 151200, Note_on_c, 4, 60, 80
5, 151200, Note_on_c, 4, 65, 80
5, 151679, Note_on_c, 4, 57, 0
5, 151679, Note_on_c, 4, 60, 0
5, 151679, Note_on_c, 4, 65, 0
5, 151680, Note_on_c, 4, 55, 80
5, 151680, Control_c, 4, 2, 80
5, 151680, Note_on_c, 4, 59, 80
5, 151680, Note_on_c, 4, 64, 80
5, 152159, Note_on_c, 4, 55, 0
5, 152159, Note_on_c, 4, 59, 0
5, 152159, Note_on_c, 4, 64, 0
5, 152160, Note_on_c, 4, 55, 80
5, 152160, Note_on_c, 4, 59, 80
5, 152160, Note_on_c, 4, 64, 80
5, 152639, Note_on_c, 4, 55, 0
5, 152639, Note_on_c, 4, 59, 0
5, 152639, Note_on_c, 4, 64, 0
5, 152640, Note_on_c, 4, 55, 80
5, 152640, Note_on_c, 4, 59, 80
5, 152640, Note_on_c, 4, 64, 80
5, 153119, Note_on_c, 4, 55, 0
5, 153119, Note_on_c, 4, 59, 0
5, 153119, Note_on_c, 4, 64, 0
5, 153120, Note_on_c, 4, 55, 80
5, 153120, Note_on_c, 4, 59, 80
5, 153120, Note_on_c, 4, 64, 80
5, 153599, Note_on_c, 4, 55, 0
5, 153599, Note_on_c, 4, 59, 0
5, 153599, Note_on_c, 4, 64, 0
5, 153600, Note_on_c, 4, 55, 80
5, 153600, Note_on_c, 4, 59, 80
5, 153600, Note_on_c, 4, 64, 80
5, 154079, Note_on_c, 4, 55, 0
5, 154079, Note_on_c, 4, 59, 0
5, 154079, Note_on_c, 4, 64, 0
5, 154080, Note_on_c, 4, 55, 80
5, 154080, Note_on_c, 4, 59, 80
5, 154080, Note_on_c, 4, 64, 80
5, 154559, Note_on_c, 4, 55, 0
5, 154559, Note_on_c, 4, 59, 0
5, 154559, Note_on_c, 4, 64, 0
5, 154560, Note_on_c, 4, 55, 80
5, 154560, Note_on_c, 4, 59, 80
5, 154560, Note_on_c, 4, 64, 80
5, 155039, Note_on_c, 4, 55, 0
5, 155039, Note_on_c, 4, 59, 0
5, 155039, Note_on_c, 4, 64, 0
5, 155040, Note_on_c, 4, 55, 80
5, 155040, Note_on_c, 4, 59, 80
5, 155040, Note_on_c, 4, 64, 80
5, 155519, Note_on_c, 4, 55, 0
5, 155519, Note_on_c, 4, 59, 0
5, 155519, Note_on_c, 4, 64, 0
5, 155520, Note_on_c, 4, 57, 80
5, 155520, Control_c, 4, 2, 80
5, 155520, Note_on_c, 4, 60, 80
5, 155520, Note_on_c, 4, 65, 80
5, 155999, Note_on_c, 4, 57, 0
5, 155999, Note_on_c, 4, 60, 0
5, 155999, Note_on_c, 4, 65, 0
5, 156000, Note_on_c, 4, 57, 80
5, 156000, Note_on_c, 4, 60, 80
5, 156000, Note_on_c, 4, 65, 80
5, 156479, Note_on_c, 4, 57, 0
5, 156479, Note_on_c, 4, 60, 0
5, 156479, Note_on_c, 4, 65, 0
5, 156480, Note_on_c, 4, 57, 80
5, 156480, Note_on_c, 4, 60, 80
5, 156480, Note_on_c, 4, 65, 80
5, 156959, Note_on_c, 4, 57, 0
5, 156959, Note_on_c, 4, 60, 0
5, 156959, Note_on_c, 4, 65, 0
5, 156960, Note_on_c, 4, 57, 80
5, 156960, Note_on_c, 4, 60, 80
5, 156960, Note_on_c, 4, 65, 80
5, 157439, Note_on_c, 4, 57, 0
5, 157439, Note_on_c, 4, 60, 0
5, 157439, Note_on_c, 4, 65, 0
5, 157440, Note_on_c, 4, 57, 80
5, 157440, Note_on_c, 4, 60, 80
5, 157440, Note_on_c, 4, 65, 80
5, 157919, Note_on_c, 4, 57, 0
5, 157919, Note_on_c, 4, 60, 0
5, 157919, Note_on_c, 4, 65, 0
5, 157920, Note_on_c, 4, 57, 80
5, 157920, Note_on_c, 4, 60, 80
5, 157920, Note_on_c, 4, 65, 80
5, 158399, Note_on_c, 4, 57, 0
5, 158399, Note_on_c, 4, 60, 0
5, 158399, Note_on_c, 4, 65, 0
5, 158400, Note_on_c, 4, 57, 80
5, 158400, Note_on_c, 4, 60, 80
5, 158400, Note_on_c, 4, 65, 80
5, 158879, Note_on_c, 4, 57, 0
5, 158879, Note_on_c, 4, 60, 0
5, 158879, Note_on_c, 4, 65, 0
5, 158880, Note_on_c, 4, 57, 80
5, 158880, Note_on_c, 4, 60, 80
5, 158880, Note_on_c, 4, 65, 80
5, 159359, Note_on_c, 4, 57, 0
5, 159359, Note_on_c, 4, 60, 0
5, 159359, Note_on_c, 4, 65, 0
5, 159360, Note_on_c, 4, 55, 80
5, 159360, Control_c, 4, 2, 80
5, 159360, Note_on_c, 4, 59, 80
5, 159360, Note_on_c, 4, 64, 80
5, 159839, Note_on_c, 4, 55, 0
5, 159839, Note_on_c, 4, 59, 0
5, 159839, Note_on_c, 4, 64, 0
5, 159840, Note_on_c, 4, 55, 80
5, 159840, Note_on_c, 4, 59, 80
5, 159840, Note_on_c, 4, 64, 80
5, 160319, Note_on_c, 4, 55, 0
5, 160319, Note_on_c, 4, 59, 0
5, 160319, Note_on_c, 4, 64, 0
5, 160320, Note_on_c, 4, 55, 80
5, 160320, Note_on_c, 4, 59, 80
5, 160320, Note_on_c, 4, 64, 80
5, 160799, Note_on_c, 4, 55, 0
5, 160799, Note_on_c, 4, 59, 0
5, 160799, Note_on_c, 4, 64, 0
5, 160800, Note_on_c, 4, 55, 80
5, 160800, Note_on_c, 4, 59, 80
5, 160800, Note_on_c, 4, 64, 80
5, 161279, Note_on_c, 4, 55, 0
5, 161279, Note_on_c, 4, 59, 0
5, 161279, Note_on_c, 4, 64, 0
5, 161280, Note_on_c, 4, 55, 80
5, 161280, Note_on_c, 4, 59, 80
5, 161280, Note_on_c, 4, 64, 80
5, 161759, Note_on_c, 4, 55, 0
5, 161759, Note_on_c, 4, 59, 0
5, 161759, Note_on_c, 4, 64, 0
5, 161760, Note_on_c, 4, 55, 80
5, 161760, Note_on_c, 4, 59, 80
5, 161760, Note_on_c, 4, 64, 80
5, 162239, Note_on_c, 4, 55, 0
5, 162239, Note_on_c, 4, 59, 0
5, 162239, Note_on_c, 4, 64, 0
5, 162240, Note_on_c, 4, 55, 80
5, 162240, Note_on_c, 4, 59, 80
5, 162240, Note_on_c, 4, 64, 80
5, 162719, Note_on_c, 4, 55, 0
5, 162719, Note_on_c, 4, 59, 0
5, 162719, Note_on_c, 4, 64, 0
5, 162720, Note_on_c, 4, 55, 80
5, 162720, Note_on_c, 4, 59, 80
5, 162720, Note_on_c, 4, 64, 80
5, 163199, Note_on_c, 4, 55, 0
5, 163199, Note_on_c, 4, 59, 0
5, 163199, Note_on_c, 4, 64, 0
5, 163200, Note_on_c, 4, 53, 80
5, 163200, Control_c, 4, 2, 80
5, 163679, Note_on_c, 4, 53, 0
5, 163680, Note_on_c, 4, 60, 80
5, 163680, Control_c, 4, 2, 80
5, 163680, Note_on_c, 4, 65, 80
5, 164159, Note_on_c, 4, 60, 0
5, 164159, Note_on_c, 4, 65, 0
5, 164160, Note_on_c, 4, 53, 80
5, 164160, Control_c, 4, 2, 80
5, 164639, Note_on_c, 4, 53, 0
5, 164640, Note_on_c, 4, 60, 80
5, 164640, Control_c, 4, 2, 80
5, 164640, Note_on_c, 4, 65, 80
5, 165119, Note_on_c, 4, 60, 0
5, 165119, Note_on_c, 4, 65, 0
5, 165120, Note_on_c, 4, 53, 80
5, 165120, Control_c, 4, 2, 80
5, 165599, Note_on_c, 4, 53, 0
5, 165600, Note_on_c, 4, 60, 80
5, 165600, Control_c, 4, 2, 80
5, 165600, Note_on_c, 4, 65, 80
5, 166079, Note_on_c, 4, 60, 0
5, 166079, Note_on_c, 4, 65, 0
5, 166080, Note_on_c, 4, 53, 80
5, 166080, Control_c, 4, 2, 80
5, 166559, Note_on_c, 4, 53, 0
5, 166560, Note_on_c, 4, 60, 80
5, 166560, Control_c, 4, 2, 80
5, 166560, Note_on_c, 4, 65, 80
5, 167039, Note_on_c, 4, 60, 0
5, 167039, Note_on_c, 4, 65, 0
5, 167040, Note_on_c, 4, 52, 80
5, 167040, Control_c, 4, 2, 80
5, 167519, Note_on_c, 4, 52, 0
5, 167520, Note_on_c, 4, 59, 80
5, 167520, Control_c, 4, 2, 80
5, 167520, Note_on_c, 4, 64, 80
5, 167999, Note_on_c, 4, 59, 0
5, 167999, Note_on_c, 4, 64, 0
5, 168000, Note_on_c, 4, 52, 80
5, 168000, Control_c, 4, 2, 80
5, 168479, Note_on_c, 4, 52, 0
5, 168480, Note_on_c, 4, 59, 80
5, 168480, Control_c, 4, 2, 80
5, 168480, Note_on_c, 4, 64, 80
5, 168959, Note_on_c, 4, 59, 0
5, 168959, Note_on_c, 4, 64, 0
5, 168960, Note_on_c, 4, 52, 80
5, 168960, Control_c, 4, 2, 80
5, 169439, Note_on_c, 4, 52, 0
5, 169440, Note_on_c, 4, 59, 80
5, 169440, Control_c, 4, 2, 80
5, 169440, Note_on_c, 4, 64, 80
5, 169919, Note_on_c, 4, 59, 0
5, 169919, Note_on_c, 4, 64, 0
5, 169920, Note_on_c, 4, 52, 80
5, 169920, Control_c, 4, 2, 80
5, 170399, Note_on_c, 4, 52, 0
5, 170400, Note_on_c, 4, 59, 80
5, 170400, Control_c, 4, 2, 80
5, 170400, Note_on_c, 4, 64, 80
5, 170879, Note_on_c, 4, 59, 0
5, 170879, Note_on_c, 4, 64, 0
5, 170880, Note_on_c, 4, 53, 80
5, 170880, Control_c, 4, 2, 80
5, 171359, Note_on_c, 4, 53, 0
5, 171360, Note_on_c, 4, 60, 80
5, 171360, Control_c, 4, 2, 80
5, 171360, Note_on_c, 4, 65, 80
5, 171839, Note_on_c, 4, 60, 0
5, 171839, Note_on_c, 4, 65, 0
5, 171840, Note_on_c, 4, 53, 80
5, 171840, Control_c, 4, 2, 80
5, 172319, Note_on_c, 4, 53, 0
5, 172320, Note_on_c, 4, 60, 80
5, 172320, Control_c, 4, 2, 80
5, 172320, Note_on_c, 4, 65, 80
5, 172799, Note_on_c, 4, 60, 0
5, 172799, Note_on_c, 4, 65, 0
5, 172800, Note_on_c, 4, 53, 80
5, 172800, Control_c, 4, 2, 80
5, 173279, Note_on_c, 4, 53, 0
5, 173280, Note_on_c, 4, 60, 80
5, 173280, Control_c, 4, 2, 80
5, 173280, Note_on_c, 4, 65, 80
5, 173759, Note_on_c, 4, 60, 0
5, 173759, Note_on_c, 4, 65, 0
5, 173760, Note_on_c, 4, 53, 80
5, 173760, Control_c, 4, 2, 80
5, 174239, Note_on_c, 4, 53, 0
5, 174240, Note_on_c, 4, 60, 80
5, 174240, Control_c, 4, 2, 80
5, 174240, Note_on_c, 4, 65, 80
5, 174719, Note_on_c, 4, 60, 0
5, 174719, Note_on_c, 4, 65, 0
5, 174720, Note_on_c, 4, 52, 80
5, 174720, Control_c, 4, 2, 80
5, 175199, Note_on_c, 4, 52, 0
5, 175200, Note_on_c, 4, 59, 80
5, 175200, Control_c, 4, 2, 80
5, 175200, Note_on_c, 4, 64, 80
5, 175679, Note_on_c, 4, 59, 0
5, 175679, Note_on_c, 4, 64, 0
5, 175680, Note_on_c, 4, 52, 80
5, 175680, Control_c, 4, 2, 80
5, 176159, Note_on_c, 4, 52, 0
5, 176160, Note_on_c, 4, 59, 80
5, 176160, Control_c, 4, 2, 80
5, 176160, Note_on_c, 4, 64, 80
5, 176639, Note_on_c, 4, 59, 0
5, 176639, Note_on_c, 4, 64, 0
5, 176640, Note_on_c, 4, 52, 80
5, 176640, Control_c, 4, 2, 80
5, 177119, Note_on_c, 4, 52, 0
5, 177120, Note_on_c, 4, 59, 80
5, 177120, Control_c, 4, 2, 80
5, 177120, Note_on_c, 4, 64, 80
5, 177599, Note_on_c, 4, 59, 0
5, 177599, Note_on_c, 4, 64, 0
5, 177600, Note_on_c, 4, 52, 80
5, 177600, Control_c, 4, 2, 80
5, 178079, Note_on_c, 4, 52, 0
5, 178080, Note_on_c, 4, 59, 80
5, 178080, Control_c, 4, 2, 80
5, 178080, Note_on_c, 4, 64, 80
5, 178559, Note_on_c, 4, 59, 0
5, 178559, Note_on_c, 4, 64, 0
5, 178560, Note_on_c, 4, 53, 80
5, 178560, Control_c, 4, 2, 80
5, 179039, Note_on_c, 4, 53, 0
5, 179040, Note_on_c, 4, 60, 80
5, 179040, Control_c, 4, 2, 80
5, 179040, Note_on_c, 4, 65, 80
5, 179519, Note_on_c, 4, 60, 0
5, 179519, Note_on_c, 4, 65, 0
5, 179520, Note_on_c, 4, 53, 80
5, 179520, Control_c, 4, 2, 80
5, 179999, Note_on_c, 4, 53, 0
5, 180000, Note_on_c, 4, 60, 80
5, 180000, Control_c, 4, 2, 80
5, 180000, Note_on_c, 4, 65, 80
5, 180479, Note_on_c, 4, 60, 0
5, 180479, Note_on_c, 4, 65, 0
5, 180480, Note_on_c, 4, 53, 80
5, 180480, Control_c, 4, 2, 80
5, 180959, Note_on_c, 4, 53, 0
5, 180960, Note_on_c, 4, 60, 80
5, 180960, Control_c, 4, 2, 80
5, 180960, Note_on_c, 4, 65, 80
5, 181439, Note_on_c, 4, 60, 0
5, 181439, Note_on_c, 4, 65, 0
5, 181440, Note_on_c, 4, 53, 80
5, 181440, Control_c, 4, 2, 80
5, 181919, Note_on_c, 4, 53, 0
5, 181920, Note_on_c, 4, 60, 80
5, 181920, Control_c, 4, 2, 80
5, 181920, Note_on_c, 4, 65, 80
5, 182399, Note_on_c, 4, 60, 0
5, 182399, Note_on_c, 4, 65, 0
5, 182400, Note_on_c, 4, 52, 80
5, 182400, Control_c, 4, 2, 80
5, 182879, Note_on_c, 4, 52, 0
5, 182880, Note_on_c, 4, 59, 80
5, 182880, Control_c, 4, 2, 80
5, 182880, Note_on_c, 4, 64, 80
5, 183359, Note_on_c, 4, 59, 0
5, 183359, Note_on_c, 4, 64, 0
5, 183360, Note_on_c, 4, 52, 80
5, 183360, Control_c, 4, 2, 80
5, 183839, Note_on_c, 4, 52, 0
5, 183840, Note_on_c, 4, 59, 80
5, 183840, Control_c, 4, 2, 80
5, 183840, Note_on_c, 4, 64, 80
5, 184319, Note_on_c, 4, 59, 0
5, 184319, Note_on_c, 4, 64, 0
5, 184320, Note_on_c, 4, 52, 80
5, 184320, Control_c, 4, 2, 80
5, 184799, Note_on_c, 4, 52, 0
5, 184800, Note_on_c, 4, 59, 80
5, 184800, Control_c, 4, 2, 80
5, 184800, Note_on_c, 4, 64, 80
5, 185279, Note_on_c, 4, 59, 0
5, 185279, Note_on_c, 4, 64, 0
5, 185280, Note_on_c, 4, 52, 80
5, 185280, Control_c, 4, 2, 80
5, 185759, Note_on_c, 4, 52, 0
5, 185760, Note_on_c, 4, 59, 80
5, 185760, Control_c, 4, 2, 80
5, 185760, Note_on_c, 4, 64, 80
5, 186239, Note_on_c, 4, 59, 0
5, 186239, Note_on_c, 4, 64, 0
5, 186240, Note_on_c, 4, 53, 80
5, 186240, Control_c, 4, 2, 80
5, 186719, Note_on_c, 4, 53, 0
5, 186720, Note_on_c, 4, 60, 80
5, 186720, Control_c, 4, 2, 80
5, 186720, Note_on_c, 4, 65, 80
5, 187199, Note_on_c, 4, 60, 0
5, 187199, Note_on_c, 4, 65, 0
5, 187200, Note_on_c, 4, 53, 80
5, 187200, Control_c, 4, 2, 80
5, 187679, Note_on_c, 4, 53, 0
5, 187680, Note_on_c, 4, 60, 80
5, 187680, Control_c, 4, 2, 80
5, 187680, Note_on_c, 4, 65, 80
5, 188159, Note_on_c, 4, 60, 0
5, 188159, Note_on_c, 4, 65, 0
5, 188160, Note_on_c, 4, 53, 80
5, 188160, Control_c, 4, 2, 80
5, 188639, Note_on_c, 4, 53, 0
5, 188640, Note_on_c, 4, 60, 80
5, 188640, Control_c, 4, 2, 80
5, 188640, Note_on_c, 4, 65, 80
5, 189119, Note_on_c, 4, 60, 0
5, 189119, Note_on_c, 4, 65, 0
5, 189120, Note_on_c, 4, 53, 80
5, 189120, Control_c, 4, 2, 80
5, 189599, Note_on_c, 4, 53, 0
5, 189600, Note_on_c, 4, 60, 80
5, 189600, Control_c, 4, 2, 80
5, 189600, Note_on_c, 4, 65, 80
5, 190079, Note_on_c, 4, 60, 0
5, 190079, Note_on_c, 4, 65, 0
5, 190080, Note_on_c, 4, 52, 80
5, 190080, Control_c, 4, 2, 80
5, 190559, Note_on_c, 4, 52, 0
5, 190560, Note_on_c, 4, 59, 80
5, 190560, Control_c, 4, 2, 80
5, 190560, Note_on_c, 4, 64, 80
5, 191039, Note_on_c, 4, 59, 0
5, 191039, Note_on_c, 4, 64, 0
5, 191040, Note_on_c, 4, 52, 80
5, 191040, Control_c, 4, 2, 80
5, 191519, Note_on_c, 4, 52, 0
5, 191520, Note_on_c, 4, 59, 80
5, 191520, Control_c, 4, 2, 80
5, 191520, Note_on_c, 4, 64, 80
5, 191999, Note_on_c, 4, 59, 0
5, 191999, Note_on_c, 4, 64, 0
5, 192000, Note_on_c, 4, 52, 80
5, 192000, Control_c, 4, 2, 80
5, 192479, Note_on_c, 4, 52, 0
5, 192480, Note_on_c, 4, 59, 80
5, 192480, Control_c, 4, 2, 80
5, 192480, Note_on_c, 4, 64, 80
5, 192959, Note_on_c, 4, 59, 0
5, 192959, Note_on_c, 4, 64, 0
5, 192960, Note_on_c, 4, 52, 80
5, 192960, Control_c, 4, 2, 80
5, 193439, Note_on_c, 4, 52, 0
5, 193440, Note_on_c, 4, 59, 80
5, 193440, Control_c, 4, 2, 80
5, 193440, Note_on_c, 4, 64, 80
5, 193919, Note_on_c, 4, 59, 0
5, 193919, Note_on_c, 4, 64, 0
5, 193920, Note_on_c, 4, 53, 80
5, 193920, Control_c, 4, 2, 80
5, 194399, Note_on_c, 4, 53, 0
5, 194400, Note_on_c, 4, 60, 80
5, 194400, Control_c, 4, 2, 80
5, 194400, Note_on_c, 4, 65, 80
5, 194879, Note_on_c, 4, 60, 0
5, 194879, Note_on_c, 4, 65, 0
5, 194880, Note_on_c, 4, 53, 80
5, 194880, Control_c, 4, 2, 80
5, 195359, Note_on_c, 4, 53, 0
5, 195360, Note_on_c, 4, 60, 80
5, 195360, Control_c, 4, 2, 80
5, 195360, Note_on_c, 4, 65, 80
5, 195839, Note_on_c, 4, 60, 0
5, 195839, Note_on_c, 4, 65, 0
5, 195840, Note_on_c, 4, 53, 80
5, 195840, Control_c, 4, 2, 80
5, 196319, Note_on_c, 4, 53, 0
5, 196320, Note_on_c, 4, 60, 80
5, 196320, Control_c, 4, 2, 80
5, 196320, Note_on_c, 4, 65, 80
5, 196799, Note_on_c, 4, 60, 0
5, 196799, Note_on_c, 4, 65, 0
5, 196800, Note_on_c, 4, 53, 80
5, 196800, Control_c, 4, 2, 80
5, 197279, Note_on_c, 4, 53, 0
5, 197280, Note_on_c, 4, 60, 80
5, 197280, Control_c, 4, 2, 80
5, 197280, Note_on_c, 4, 65, 80
5, 197759, Note_on_c, 4, 60, 0
5, 197759, Note_on_c, 4, 65, 0
5, 197760, Note_on_c, 4, 52, 80
5, 197760, Control_c, 4, 2, 80
5, 198239, Note_on_c, 4, 52, 0
5, 198240, Note_on_c, 4, 59, 80
5, 198240, Control_c, 4, 2, 80
5, 198240, Note_on_c, 4, 64, 80
5, 198719, Note_on_c, 4, 59, 0
5, 198719, Note_on_c, 4, 64, 0
5, 198720, Note_on_c, 4, 52, 80
5, 198720, Control_c, 4, 2, 80
5, 199199, Note_on_c, 4, 52, 0
5, 199200, Note_on_c, 4, 59, 80
5, 199200, Control_c, 4, 2, 80
5, 199200, Note_on_c, 4, 64, 80
5, 199679, Note_on_c, 4, 59, 0
5, 199679, Note_on_c, 4, 64, 0
5, 199680, Note_on_c, 4, 52, 80
5, 199680, Control_c, 4, 2, 80
5, 200159, Note_on_c, 4, 52, 0
5, 200160, Note_on_c, 4, 59, 80
5, 200160, Control_c, 4, 2, 80
5, 200160, Note_on_c, 4, 64, 80
5, 200639, Note_on_c, 4, 59, 0
5, 200639, Note_on_c, 4, 64, 0
5, 200640, Note_on_c, 4, 52, 80
5, 200640, Control_c, 4, 2, 80
5, 201119, Note_on_c, 4, 52, 0
5, 201120, Note_on_c, 4, 59, 80
5, 201120, Control_c, 4, 2, 80
5, 201120, Note_on_c, 4, 64, 80
5, 201599, Note_on_c, 4, 59, 0
5, 201599, Note_on_c, 4, 64, 0
5, 201600, Note_on_c, 4, 53, 80
5, 201600, Control_c, 4, 2, 80
5, 202079, Note_on_c, 4, 53, 0
5, 202080, Note_on_c, 4, 60, 80
5, 202080, Control_c, 4, 2, 80
5, 202080, Note_on_c, 4, 65, 80
5, 202559, Note_on_c, 4, 60, 0
5, 202559, Note_on_c, 4, 65, 0
5, 202560, Note_on_c, 4, 53, 80
5, 202560, Control_c, 4, 2, 80
5, 203039, Note_on_c, 4, 53, 0
5, 203040, Note_on_c, 4, 60, 80
5, 203040, Control_c, 4, 2, 80
5, 203040, Note_on_c, 4, 65, 80
5, 203519, Note_on_c, 4, 60, 0
5, 203519, Note_on_c, 4, 65, 0
5, 203520, Note_on_c, 4, 53, 80
5, 203520, Control_c, 4, 2, 80
5, 203999, Note_on_c, 4, 53, 0
5, 204000, Note_on_c, 4, 60, 80
5, 204000, Control_c, 4, 2, 80
5, 204000, Note_on_c, 4, 65, 80
5, 204479, Note_on_c, 4, 60, 0
5, 204479, Note_on_c, 4, 65, 0
5, 204480, Note_on_c, 4, 53, 80
5, 204480, Control_c, 4, 2, 80
5, 204959, Note_on_c, 4, 53, 0
5, 204960, Note_on_c, 4, 60, 80
5, 204960, Control_c, 4, 2, 80
5, 204960, Note_on_c, 4, 65, 80
5, 205439, Note_on_c, 4, 60, 0
5, 205439, Note_on_c, 4, 65, 0
5, 209280, Control_c, 4, 64, 0
5, 209281, End_track
0, 0, End_of_file
