0, 0, Header, 1, 5, 480
1, 0, Start_track
1, 0, Title_t, "Piano, Piano\000"
1, 0, Time_signature, 4, 2, 24, 8
1, 0, Key_signature, 0, "major"
1, 0, Tempo, 500000
1, 0, Control_c, 0, 121, 0
1, 0, Program_c, 0, 0
1, 0, Control_c, 0, 7, 100
1, 0, Control_c, 0, 10, 64
1, 0, Control_c, 0, 91, 0
1, 0, Control_c, 0, 93, 0
1, 0, MIDI_port, 0
1, 1200, Note_on_c, 0, 72, 80
1, 1427, Note_on_c, 0, 72, 0
1, 1440, Note_on_c, 0, 74, 80
1, 1895, Note_on_c, 0, 74, 0
1, 1920, Tempo, 504202
1, 1920, Note_on_c, 0, 72, 80
1, 4655, Note_on_c, 0, 72, 0
1, 5040, Note_on_c, 0, 72, 80
1, 5267, Note_on_c, 0, 72, 0
1, 5280, Note_on_c, 0, 74, 80
1, 5735, Note_on_c, 0, 74, 0
1, 5760, Note_on_c, 0, 67, 80
1, 6215, Note_on_c, 0, 67, 0
1, 8880, Note_on_c, 0, 67, 80
1, 9107, Note_on_c, 0, 67, 0
1, 9120, Note_on_c, 0, 69, 80
1, 9575, Note_on_c, 0, 69, 0
1, 9600, Note_on_c, 0, 64, 80
1, 10055, Note_on_c, 0, 64, 0
1, 12720, Note_on_c, 0, 64, 80
1, 12947, Note_on_c, 0, 64, 0
1, 13200, Note_on_c, 0, 64, 80
1, 13427, Note_on_c, 0, 64, 0
1, 13440, Note_on_c, 0, 65, 80
1, 13895, Note_on_c, 0, 65, 0
1, 16560, Note_on_c, 0, 76, 80
1, 17015, Note_on_c, 0, 76, 0
1, 17040, Note_on_c, 0, 76, 80
1, 17267, Note_on_c, 0, 76, 0
1, 17280, Note_on_c, 0, 76, 80
1, 17621, Note_on_c, 0, 76, 0
1, 17640, Note_on_c, 0, 72, 80
1, 17981, Note_on_c, 0, 72, 0
1, 18000, Note_on_c, 0, 72, 80
1, 18455, Note_on_c, 0, 72, 0
1, 18480, Note_on_c, 0, 72, 80
1, 18707, Note_on_c, 0, 72, 0
1, 18720, Note_on_c, 0, 72, 80
1, 18947, Note_on_c, 0, 72, 0
1, 18960, Note_on_c, 0, 72, 80
1, 19187, Note_on_c, 0, 72, 0
1, 19200, Note_on_c, 0, 72, 80
1, 19655, Note_on_c, 0, 72, 0
1, 19680, Note_on_c, 0, 72, 80
1, 19907, Note_on_c, 0, 72, 0
1, 19920, Note_on_c, 0, 74, 80
1, 20375, Note_on_c, 0, 74, 0
1, 20400, Note_on_c, 0, 76, 80
1, 20855, Note_on_c, 0, 76, 0
1, 20880, Note_on_c, 0, 76, 80
1, 21107, Note_on_c, 0, 76, 0
1, 21120, Note_on_c, 0, 76, 80
1, 21347, Note_on_c, 0, 76, 0
1, 21360, Note_on_c, 0, 71, 80
1, 21587, Note_on_c, 0, 71, 0
1, 21600, Note_on_c, 0, 71, 80
1, 21827, Note_on_c, 0, 71, 0
1, 21840, Note_on_c, 0, 71, 80
1, 22295, Note_on_c, 0, 71, 0
1, 22320, Note_on_c, 0, 71, 80
1, 22547, Note_on_c, 0, 71, 0
1, 22560, Note_on_c, 0, 71, 80
1, 22787, Note_on_c, 0, 71, 0
1, 22800, Note_on_c, 0, 62, 80
1, 23027, Note_on_c, 0, 62, 0
1, 23040, Note_on_c, 0, 71, 80
1, 23267, Note_on_c, 0, 71, 0
1, 23280, Note_on_c, 0, 71, 80
1, 23507, Note_on_c, 0, 71, 0
1, 23520, Note_on_c, 0, 71, 80
1, 23747, Note_on_c, 0, 71, 0
1, 23760, Note_on_c, 0, 72, 80
1, 24215, Note_on_c, 0, 72, 0
1, 24240, Note_on_c, 0, 74, 80
1, 24695, Note_on_c, 0, 74, 0
1, 24720, Note_on_c, 0, 74, 80
1, 24947, Note_on_c, 0, 74, 0
1, 24960, Note_on_c, 0, 76, 80
1, 25301, Note_on_c, 0, 76, 0
1, 25320, Note_on_c, 0, 72, 80
1, 25661, Note_on_c, 0, 72, 0
1, 25680, Note_on_c, 0, 72, 80
1, 26021, Note_on_c, 0, 72, 0
1, 26040, Note_on_c, 0, 71, 80
1, 26381, Note_on_c, 0, 71, 0
1, 26400, Note_on_c, 0, 69, 80
1, 27767, Note_on_c, 0, 69, 0
1, 28080, Note_on_c, 0, 67, 80
1, 28307, Note_on_c, 0, 67, 0
1, 28320, Note_on_c, 0, 67, 80
1, 28547, Note_on_c, 0, 67, 0
1, 28560, Note_on_c, 0, 67, 80
1, 28787, Note_on_c, 0, 67, 0
1, 28800, Note_on_c, 0, 65, 80
1, 29027, Note_on_c, 0, 65, 0
1, 29040, Note_on_c, 0, 65, 80
1, 29267, Note_on_c, 0, 65, 0
1, 29280, Note_on_c, 0, 65, 80
1, 29507, Note_on_c, 0, 65, 0
1, 29520, Note_on_c, 0, 77, 80
1, 29975, Note_on_c, 0, 77, 0
1, 30000, Note_on_c, 0, 76, 80
1, 31709, Note_on_c, 0, 76, 0
1, 31920, Note_on_c, 0, 72, 80
1, 32147, Note_on_c, 0, 72, 0
1, 32160, Note_on_c, 0, 76, 80
1, 32387, Note_on_c, 0, 76, 0
1, 32400, Note_on_c, 0, 72, 80
1, 32627, Note_on_c, 0, 72, 0
1, 32640, Note_on_c, 0, 76, 80
1, 32981, Note_on_c, 0, 76, 0
1, 33000, Note_on_c, 0, 72, 80
1, 33341, Note_on_c, 0, 72, 0
1, 33360, Note_on_c, 0, 72, 80
1, 33587, Note_on_c, 0, 72, 0
1, 33600, Note_on_c, 0, 72, 80
1, 34055, Note_on_c, 0, 72, 0
1, 34080, Note_on_c, 0, 72, 80
1, 34307, Note_on_c, 0, 72, 0
1, 34320, Note_on_c, 0, 72, 80
1, 34547, Note_on_c, 0, 72, 0
1, 34560, Note_on_c, 0, 72, 80
1, 34787, Note_on_c, 0, 72, 0
1, 34800, Note_on_c, 0, 72, 80
1, 35027, Note_on_c, 0, 72, 0
1, 35040, Note_on_c, 0, 72, 80
1, 35267, Note_on_c, 0, 72, 0
1, 35280, Note_on_c, 0, 72, 80
1, 35507, Note_on_c, 0, 72, 0
1, 35520, Note_on_c, 0, 74, 80
1, 35861, Note_on_c, 0, 74, 0
1, 35880, Note_on_c, 0, 76, 80
1, 36221, Note_on_c, 0, 76, 0
1, 36240, Note_on_c, 0, 76, 80
1, 36467, Note_on_c, 0, 76, 0
1, 36480, Note_on_c, 0, 76, 80
1, 36707, Note_on_c, 0, 76, 0
1, 36720, Note_on_c, 0, 71, 80
1, 36947, Note_on_c, 0, 71, 0
1, 36960, Note_on_c, 0, 71, 80
1, 37187, Note_on_c, 0, 71, 0
1, 37200, Note_on_c, 0, 71, 80
1, 37427, Note_on_c, 0, 71, 0
1, 37440, Note_on_c, 0, 71, 80
1, 37667, Note_on_c, 0, 71, 0
1, 37680, Note_on_c, 0, 71, 80
1, 37907, Note_on_c, 0, 71, 0
1, 37920, Note_on_c, 0, 71, 80
1, 38147, Note_on_c, 0, 71, 0
1, 38160, Note_on_c, 0, 62, 80
1, 38387, Note_on_c, 0, 62, 0
1, 38400, Note_on_c, 0, 71, 80
1, 38627, Note_on_c, 0, 71, 0
1, 38640, Note_on_c, 0, 71, 80
1, 38867, Note_on_c, 0, 71, 0
1, 38880, Note_on_c, 0, 71, 80
1, 39107, Note_on_c, 0, 71, 0
1, 39120, Note_on_c, 0, 72, 80
1, 39575, Note_on_c, 0, 72, 0
1, 39600, Note_on_c, 0, 74, 80
1, 40055, Note_on_c, 0, 74, 0
1, 40080, Note_on_c, 0, 74, 80
1, 40307, Note_on_c, 0, 74, 0
1, 40320, Note_on_c, 0, 76, 80
1, 40547, Note_on_c, 0, 76, 0
1, 40560, Note_on_c, 0, 72, 80
1, 40787, Note_on_c, 0, 72, 0
1, 40800, Note_on_c, 0, 72, 80
1, 41027, Note_on_c, 0, 72, 0
1, 41040, Note_on_c, 0, 72, 80
1, 41267, Note_on_c, 0, 72, 0
1, 41280, Note_on_c, 0, 72, 80
1, 41621, Note_on_c, 0, 72, 0
1, 41640, Note_on_c, 0, 71, 80
1, 41981, Note_on_c, 0, 71, 0
1, 42000, Note_on_c, 0, 69, 80
1, 43595, Note_on_c, 0, 69, 0
1, 43680, Note_on_c, 0, 67, 80
1, 44135, Note_on_c, 0, 67, 0
1, 44160, Note_on_c, 0, 65, 80
1, 44843, Note_on_c, 0, 65, 0
1, 44880, Note_on_c, 0, 69, 80
1, 45335, Note_on_c, 0, 69, 0
1, 45360, Note_on_c, 0, 65, 80
1, 45587, Note_on_c, 0, 65, 0
1, 46080, Note_on_c, 0, 77, 80
1, 46991, Note_on_c, 0, 77, 0
1, 47040, Note_on_c, 0, 76, 80
1, 47723, Note_on_c, 0, 76, 0
1, 47760, Note_on_c, 0, 76, 80
1, 47987, Note_on_c, 0, 76, 0
1, 48000, Note_on_c, 0, 76, 80
1, 48227, Note_on_c, 0, 76, 0
1, 48240, Note_on_c, 0, 72, 80
1, 48923, Note_on_c, 0, 72, 0
1, 48960, Note_on_c, 0, 72, 80
1, 49871, Note_on_c, 0, 72, 0
1, 49920, Note_on_c, 0, 67, 80
1, 50831, Note_on_c, 0, 67, 0
1, 50880, Note_on_c, 0, 76, 80
1, 51791, Note_on_c, 0, 76, 0
1, 51840, Note_on_c, 0, 74, 80
1, 52751, Note_on_c, 0, 74, 0
1, 52800, Note_on_c, 0, 71, 80
1, 53711, Note_on_c, 0, 71, 0
1, 53760, Note_on_c, 0, 67, 80
1, 54671, Note_on_c, 0, 67, 0
1, 54720, Note_on_c, 0, 74, 80
1, 55631, Note_on_c, 0, 74, 0
1, 55680, Note_on_c, 0, 72, 80
1, 56591, Note_on_c, 0, 72, 0
1, 56640, Note_on_c, 0, 72, 80
1, 57551, Note_on_c, 0, 72, 0
1, 57600, Note_on_c, 0, 69, 80
1, 58511, Note_on_c, 0, 69, 0
1, 58560, Note_on_c, 0, 72, 80
1, 59471, Note_on_c, 0, 72, 0
1, 59520, Note_on_c, 0, 65, 80
1, 60431, Note_on_c, 0, 65, 0
1, 60480, Note_on_c, 0, 77, 80
1, 61391, Note_on_c, 0, 77, 0
1, 61440, Note_on_c, 0, 76, 80
1, 61895, Note_on_c, 0, 76, 0
1, 61920, Note_on_c, 0, 74, 80
1, 62147, Note_on_c, 0, 74, 0
1, 62160, Note_on_c, 0, 72, 80
1, 62615, Note_on_c, 0, 72, 0
1, 62640, Note_on_c, 0, 67, 80
1, 63095, Note_on_c, 0, 67, 0
1, 63120, Note_on_c, 0, 72, 80
1, 63347, Note_on_c, 0, 72, 0
1, 66480, Note_on_c, 0, 72, 80
1, 66935, Note_on_c, 0, 72, 0
1, 66960, Note_on_c, 0, 71, 80
1, 67415, Note_on_c, 0, 71, 0
1, 67440, Note_on_c, 0, 79, 80
1, 67895, Note_on_c, 0, 79, 0
1, 67920, Note_on_c, 0, 81, 80
1, 68375, Note_on_c, 0, 81, 0
1, 68400, Note_on_c, 0, 79, 80
1, 70109, Note_on_c, 0, 79, 0
1, 70320, Note_on_c, 0, 71, 80
1, 70775, Note_on_c, 0, 71, 0
1, 70800, Note_on_c, 0, 69, 80
1, 71027, Note_on_c, 0, 69, 0
1, 71040, Note_on_c, 0, 76, 80
1, 71951, Note_on_c, 0, 76, 0
1, 72000, Note_on_c, 0, 72, 80
1, 72911, Note_on_c, 0, 72, 0
1, 72960, Note_on_c, 0, 67, 80
1, 73871, Note_on_c, 0, 67, 0
1, 73920, Note_on_c, 0, 76, 80
1, 74831, Note_on_c, 0, 76, 0
1, 74880, Note_on_c, 0, 77, 80
1, 78527, Note_on_c, 0, 77, 0
1, 79440, Note_on_c, 0, 67, 80
1, 79680, Note_on_c, 0, 72, 80
1, 79895, Note_on_c, 0, 67, 0
1, 79907, Note_on_c, 0, 72, 0
1, 79920, Note_on_c, 0, 72, 80
1, 80147, Note_on_c, 0, 72, 0
1, 80160, Note_on_c, 0, 72, 80
1, 80387, Note_on_c, 0, 72, 0
1, 80400, Note_on_c, 0, 72, 80
1, 80627, Note_on_c, 0, 72, 0
1, 80640, Note_on_c, 0, 72, 80
1, 81095, Note_on_c, 0, 72, 0
1, 81120, Note_on_c, 0, 72, 80
1, 81347, Note_on_c, 0, 72, 0
1, 81360, Note_on_c, 0, 74, 80
1, 81815, Note_on_c, 0, 74, 0
1, 81840, Note_on_c, 0, 76, 80
1, 82295, Note_on_c, 0, 76, 0
1, 82320, Note_on_c, 0, 79, 80
1, 83459, Note_on_c, 0, 79, 0
1, 83520, Note_on_c, 0, 79, 80
1, 83747, Note_on_c, 0, 79, 0
1, 83760, Note_on_c, 0, 76, 80
1, 83987, Note_on_c, 0, 76, 0
1, 84000, Note_on_c, 0, 79, 80
1, 84227, Note_on_c, 0, 79, 0
1, 84240, Note_on_c, 0, 76, 80
1, 84467, Note_on_c, 0, 76, 0
1, 84480, Note_on_c, 0, 79, 80
1, 84935, Note_on_c, 0, 79, 0
1, 84960, Note_on_c, 0, 81, 80
1, 85187, Note_on_c, 0, 81, 0
1, 85200, Note_on_c, 0, 76, 80
1, 85655, Note_on_c, 0, 76, 0
1, 85680, Note_on_c, 0, 74, 80
1, 86135, Note_on_c, 0, 74, 0
1, 86160, Note_on_c, 0, 76, 80
1, 87299, Note_on_c, 0, 76, 0
1, 87360, Note_on_c, 0, 76, 80
1, 87587, Note_on_c, 0, 76, 0
1, 87600, Note_on_c, 0, 76, 80
1, 87827, Note_on_c, 0, 76, 0
1, 87840, Note_on_c, 0, 76, 80
1, 88067, Note_on_c, 0, 76, 0
1, 88080, Note_on_c, 0, 79, 80
1, 88307, Note_on_c, 0, 79, 0
1, 88320, Note_on_c, 0, 74, 80
1, 88775, Note_on_c, 0, 74, 0
1, 88800, Note_on_c, 0, 72, 80
1, 89027, Note_on_c, 0, 72, 0
1, 89040, Note_on_c, 0, 74, 80
1, 89495, Note_on_c, 0, 74, 0
1, 89520, Note_on_c, 0, 72, 80
1, 90203, Note_on_c, 0, 72, 0
1, 90240, Note_on_c, 0, 77, 80
1, 91151, Note_on_c, 0, 77, 0
1, 91200, Note_on_c, 0, 76, 80
1, 92111, Note_on_c, 0, 76, 0
1, 92160, Note_on_c, 0, 74, 80
1, 93071, Note_on_c, 0, 74, 0
1, 93120, Note_on_c, 0, 67, 80
1, 94031, Note_on_c, 0, 67, 0
1, 94080, Note_on_c, 0, 72, 80
1, 94307, Note_on_c, 0, 72, 0
1, 94320, Note_on_c, 0, 72, 80
1, 94547, Note_on_c, 0, 72, 0
1, 94560, Note_on_c, 0, 72, 80
1, 94787, Note_on_c, 0, 72, 0
1, 94800, Note_on_c, 0, 72, 80
1, 95027, Note_on_c, 0, 72, 0
1, 95040, Note_on_c, 0, 72, 80
1, 95267, Note_on_c, 0, 72, 0
1, 95280, Note_on_c, 0, 72, 80
1, 95507, Note_on_c, 0, 72, 0
1, 95520, Note_on_c, 0, 72, 80
1, 95747, Note_on_c, 0, 72, 0
1, 95760, Note_on_c, 0, 72, 80
1, 95987, Note_on_c, 0, 72, 0
1, 96000, Note_on_c, 0, 72, 80
1, 96227, Note_on_c, 0, 72, 0
1, 96240, Note_on_c, 0, 72, 80
1, 96467, Note_on_c, 0, 72, 0
1, 96480, Note_on_c, 0, 72, 80
1, 96707, Note_on_c, 0, 72, 0
1, 96720, Note_on_c, 0, 72, 80
1, 96947, Note_on_c, 0, 72, 0
1, 96960, Note_on_c, 0, 74, 80
1, 97301, Note_on_c, 0, 74, 0
1, 97320, Note_on_c, 0, 76, 80
1, 97661, Note_on_c, 0, 76, 0
1, 97680, Note_on_c, 0, 79, 80
1, 98819, Note_on_c, 0, 79, 0
1, 99120, Note_on_c, 0, 79, 80
1, 99575, Note_on_c, 0, 79, 0
1, 99600, Note_on_c, 0, 79, 80
1, 99827, Note_on_c, 0, 79, 0
1, 99840, Note_on_c, 0, 79, 80
1, 100295, Note_on_c, 0, 79, 0
1, 100320, Note_on_c, 0, 81, 80
1, 100775, Note_on_c, 0, 81, 0
1, 100800, Note_on_c, 0, 76, 80
1, 101255, Note_on_c, 0, 76, 0
1, 101280, Note_on_c, 0, 74, 80
1, 101507, Note_on_c, 0, 74, 0
1, 101520, Note_on_c, 0, 76, 80
1, 102431, Note_on_c, 0, 76, 0
1, 102480, Note_on_c, 0, 76, 80
1, 102707, Note_on_c, 0, 76, 0
1, 102720, Note_on_c, 0, 76, 80
1, 102947, Note_on_c, 0, 76, 0
1, 102960, Note_on_c, 0, 79, 80
1, 103415, Note_on_c, 0, 79, 0
1, 103440, Note_on_c, 0, 74, 80
1, 103895, Note_on_c, 0, 74, 0
1, 103920, Note_on_c, 0, 72, 80
1, 104147, Note_on_c, 0, 72, 0
1, 104160, Note_on_c, 0, 74, 80
1, 104387, Note_on_c, 0, 74, 0
1, 104400, Note_on_c, 0, 76, 80
1, 104627, Note_on_c, 0, 76, 0
1, 104640, Note_on_c, 0, 74, 80
1, 104867, Note_on_c, 0, 74, 0
1, 104880, Note_on_c, 0, 72, 80
1, 105107, Note_on_c, 0, 72, 0
1, 105120, Note_on_c, 0, 72, 80
1, 105347, Note_on_c, 0, 72, 0
1, 105360, Note_on_c, 0, 72, 80
1, 105587, Note_on_c, 0, 72, 0
1, 105600, Note_on_c, 0, 77, 80
1, 106511, Note_on_c, 0, 77, 0
1, 106560, Note_on_c, 0, 76, 80
1, 107471, Note_on_c, 0, 76, 0
1, 107520, Note_on_c, 0, 74, 80
1, 108431, Note_on_c, 0, 74, 0
1, 108480, Note_on_c, 0, 67, 80
1, 109391, Note_on_c, 0, 67, 0
1, 112320, Note_on_c, 0, 76, 80
1, 113003, Note_on_c, 0, 76, 0
1, 113040, Note_on_c, 0, 76, 80
1, 113267, Note_on_c, 0, 76, 0
1, 113280, Note_on_c, 0, 76, 80
1, 113507, Note_on_c, 0, 76, 0
1, 113520, Note_on_c, 0, 72, 80
1, 114203, Note_on_c, 0, 72, 0
1, 114240, Note_on_c, 0, 72, 80
1, 115151, Note_on_c, 0, 72, 0
1, 115200, Note_on_c, 0, 67, 80
1, 116111, Note_on_c, 0, 67, 0
1, 116160, Note_on_c, 0, 76, 80
1, 116387, Note_on_c, 0, 76, 0
1, 116400, Note_on_c, 0, 76, 80
1, 117083, Note_on_c, 0, 76, 0
1, 117120, Note_on_c, 0, 74, 80
1, 118031, Note_on_c, 0, 74, 0
1, 118080, Note_on_c, 0, 71, 80
1, 118991, Note_on_c, 0, 71, 0
1, 119040, Note_on_c, 0, 67, 80
1, 119951, Note_on_c, 0, 67, 0
1, 120000, Note_on_c, 0, 74, 80
1, 120911, Note_on_c, 0, 74, 0
1, 120960, Note_on_c, 0, 72, 80
1, 121871, Note_on_c, 0, 72, 0
1, 121920, Note_on_c, 0, 72, 80
1, 122831, Note_on_c, 0, 72, 0
1, 122880, Note_on_c, 0, 69, 80
1, 123791, Note_on_c, 0, 69, 0
1, 123840, Note_on_c, 0, 72, 80
1, 124751, Note_on_c, 0, 72, 0
1, 124800, Note_on_c, 0, 65, 80
1, 125711, Note_on_c, 0, 65, 0
1, 125760, Note_on_c, 0, 77, 80
1, 126671, Note_on_c, 0, 77, 0
1, 126720, Note_on_c, 0, 76, 80
1, 127175, Note_on_c, 0, 76, 0
1, 127200, Note_on_c, 0, 74, 80
1, 127427, Note_on_c, 0, 74, 0
1, 127440, Note_on_c, 0, 72, 80
1, 127895, Note_on_c, 0, 72, 0
1, 127920, Note_on_c, 0, 74, 80
1, 128375, Note_on_c, 0, 74, 0
1, 128400, Note_on_c, 0, 72, 80
1, 128627, Note_on_c, 0, 72, 0
1, 128640, Note_on_c, 0, 76, 80
1, 128867, Note_on_c, 0, 76, 0
1, 128880, Note_on_c, 0, 72, 80
1, 129563, Note_on_c, 0, 72, 0
1, 129600, Note_on_c, 0, 72, 80
1, 130511, Note_on_c, 0, 72, 0
1, 130560, Note_on_c, 0, 67, 80
1, 131471, Note_on_c, 0, 67, 0
1, 131520, Note_on_c, 0, 76, 80
1, 131747, Note_on_c, 0, 76, 0
1, 131760, Note_on_c, 0, 76, 80
1, 132443, Note_on_c, 0, 76, 0
1, 132480, Note_on_c, 0, 74, 80
1, 133391, Note_on_c, 0, 74, 0
1, 133440, Note_on_c, 0, 71, 80
1, 134351, Note_on_c, 0, 71, 0
1, 134400, Note_on_c, 0, 67, 80
1, 135311, Note_on_c, 0, 67, 0
1, 135360, Note_on_c, 0, 74, 80
1, 136271, Note_on_c, 0, 74, 0
1, 136320, Note_on_c, 0, 72, 80
1, 137231, Note_on_c, 0, 72, 0
1, 137280, Note_on_c, 0, 72, 80
1, 138191, Note_on_c, 0, 72, 0
1, 138240, Note_on_c, 0, 69, 80
1, 139151, Note_on_c, 0, 69, 0
1, 139200, Note_on_c, 0, 72, 80
1, 140111, Note_on_c, 0, 72, 0
1, 140160, Note_on_c, 0, 65, 80
1, 141071, Note_on_c, 0, 65, 0
1, 141120, Note_on_c, 0, 77, 80
1, 142031, Note_on_c, 0, 77, 0
1, 142080, Note_on_c, 0, 76, 80
1, 142535, Note_on_c, 0, 76, 0
1, 142560, Note_on_c, 0, 74, 80
1, 142787, Note_on_c, 0, 74, 0
1, 142800, Note_on_c, 0, 72, 80
1, 143255, Note_on_c, 0, 72, 0
1, 143280, Note_on_c, 0, 67, 80
1, 143735, Note_on_c, 0, 67, 0
1, 143760, Note_on_c, 0, 72, 80
1, 144443, Note_on_c, 0, 72, 0
1, 144480, Note_on_c, 0, 74, 80
1, 144935, Note_on_c, 0, 74, 0
1, 144960, Note_on_c, 0, 76, 80
1, 145415, Note_on_c, 0, 76, 0
1, 145440, Note_on_c, 0, 79, 80
1, 145667, Note_on_c, 0, 79, 0
1, 145680, Note_on_c, 0, 76, 80
1, 146363, Note_on_c, 0, 76, 0
1, 146400, Note_on_c, 0, 81, 80
1, 146627, Note_on_c, 0, 81, 0
1, 146640, Note_on_c, 0, 79, 80
1, 146867, Note_on_c, 0, 79, 0
1, 146880, Note_on_c, 0, 74, 80
1, 147221, Note_on_c, 0, 74, 0
1, 147240, Note_on_c, 0, 74, 80
1, 147353, Note_on_c, 0, 74, 0
1, 147360, Note_on_c, 0, 74, 80
1, 147587, Note_on_c, 0, 74, 0
1, 147600, Note_on_c, 0, 76, 80
1, 148283, Note_on_c, 0, 76, 0
1, 148320, Note_on_c, 0, 79, 80
1, 148547, Note_on_c, 0, 79, 0
1, 148560, Note_on_c, 0, 76, 80
1, 148787, Note_on_c, 0, 76, 0
1, 148800, Note_on_c, 0, 74, 80
1, 149141, Note_on_c, 0, 74, 0
1, 149160, Note_on_c, 0, 74, 80
1, 149273, Note_on_c, 0, 74, 0
1, 149280, Note_on_c, 0, 74, 80
1, 149507, Note_on_c, 0, 74, 0
1, 149520, Note_on_c, 0, 72, 80
1, 150203, Note_on_c, 0, 72, 0
1, 150240, Note_on_c, 0, 76, 80
1, 150467, Note_on_c, 0, 76, 0
1, 150480, Note_on_c, 0, 79, 80
1, 150935, Note_on_c, 0, 79, 0
1, 150960, Note_on_c, 0, 76, 80
1, 151187, Note_on_c, 0, 76, 0
1, 151200, Note_on_c, 0, 74, 80
1, 151427, Note_on_c, 0, 74, 0
1, 151440, Note_on_c, 0, 72, 80
1, 151667, Note_on_c, 0, 72, 0
1, 151680, Note_on_c, 0, 69, 80
1, 153503, Note_on_c, 0, 69, 0
1, 154080, Note_on_c, 0, 72, 80
1, 154307, Note_on_c, 0, 72, 0
1, 154320, Note_on_c, 0, 69, 80
1, 154547, Note_on_c, 0, 69, 0
1, 154560, Note_on_c, 0, 72, 80
1, 154787, Note_on_c, 0, 72, 0
1, 154800, Note_on_c, 0, 74, 80
1, 155027, Note_on_c, 0, 74, 0
1, 155040, Note_on_c, 0, 76, 80
1, 155267, Note_on_c, 0, 76, 0
1, 155280, Note_on_c, 0, 76, 80
1, 155735, Note_on_c, 0, 76, 0
1, 155760, Note_on_c, 0, 74, 80
1, 157811, Note_on_c, 0, 74, 0
1, 157920, Note_on_c, 0, 76, 80
1, 158147, Note_on_c, 0, 76, 0
1, 158160, Note_on_c, 0, 79, 80
1, 158615, Note_on_c, 0, 79, 0
1, 158640, Note_on_c, 0, 76, 80
1, 158867, Note_on_c, 0, 76, 0
1, 158880, Note_on_c, 0, 74, 80
1, 159107, Note_on_c, 0, 74, 0
1, 159120, Note_on_c, 0, 72, 80
1, 160715, Note_on_c, 0, 72, 0
1, 160800, Note_on_c, 0, 81, 80
1, 161027, Note_on_c, 0, 81, 0
1, 161040, Note_on_c, 0, 79, 80
1, 161495, Note_on_c, 0, 79, 0
1, 161520, Note_on_c, 0, 77, 80
1, 161747, Note_on_c, 0, 77, 0
1, 161760, Note_on_c, 0, 76, 80
1, 161987, Note_on_c, 0, 76, 0
1, 162000, Note_on_c, 0, 74, 80
1, 162227, Note_on_c, 0, 74, 0
1, 162240, Note_on_c, 0, 72, 80
1, 162467, Note_on_c, 0, 72, 0
1, 162480, Note_on_c, 0, 74, 80
1, 162707, Note_on_c, 0, 74, 0
1, 162720, Note_on_c, 0, 76, 80
1, 162947, Note_on_c, 0, 76, 0
1, 162960, Note_on_c, 0, 77, 80
1, 163415, Note_on_c, 0, 77, 0
1, 163440, Note_on_c, 0, 79, 80
1, 163667, Note_on_c, 0, 79, 0
1, 163680, Note_on_c, 0, 77, 80
1, 163907, Note_on_c, 0, 77, 0
1, 163920, Note_on_c, 0, 76, 80
1, 164147, Note_on_c, 0, 76, 0
1, 164160, Note_on_c, 0, 74, 80
1, 164387, Note_on_c, 0, 74, 0
1, 164400, Note_on_c, 0, 72, 80
1, 164627, Note_on_c, 0, 72, 0
1, 164640, Note_on_c, 0, 72, 80
1, 165095, Note_on_c, 0, 72, 0
1, 165120, Note_on_c, 0, 76, 80
1, 165575, Note_on_c, 0, 76, 0
1, 165600, Note_on_c, 0, 79, 80
1, 166055, Note_on_c, 0, 79, 0
1, 166080, Note_on_c, 0, 76, 80
1, 166307, Note_on_c, 0, 76, 0
1, 166320, Note_on_c, 0, 74, 80
1, 166547, Note_on_c, 0, 74, 0
1, 166560, Note_on_c, 0, 72, 80
1, 166787, Note_on_c, 0, 72, 0
1, 166800, Note_on_c, 0, 71, 80
1, 167027, Note_on_c, 0, 71, 0
1, 167040, Note_on_c, 0, 69, 80
1, 168863, Note_on_c, 0, 69, 0
1, 169440, Note_on_c, 0, 76, 80
1, 169667, Note_on_c, 0, 76, 0
1, 169680, Note_on_c, 0, 74, 80
1, 170135, Note_on_c, 0, 74, 0
1, 170160, Note_on_c, 0, 72, 80
1, 170387, Note_on_c, 0, 72, 0
1, 170400, Note_on_c, 0, 69, 80
1, 170627, Note_on_c, 0, 69, 0
1, 170640, Note_on_c, 0, 72, 80
1, 172691, Note_on_c, 0, 72, 0
1, 173760, Note_on_c, 0, 74, 80
1, 173987, Note_on_c, 0, 74, 0
1, 174000, Note_on_c, 0, 74, 80
1, 174341, Note_on_c, 0, 74, 0
1, 174360, Note_on_c, 0, 74, 80
1, 174473, Note_on_c, 0, 74, 0
1, 174480, Note_on_c, 0, 74, 80
1, 174707, Note_on_c, 0, 74, 0
1, 174720, Note_on_c, 0, 72, 80
1, 175061, Note_on_c, 0, 72, 0
1, 175080, Note_on_c, 0, 72, 80
1, 175421, Note_on_c, 0, 72, 0
1, 175440, Note_on_c, 0, 72, 80
1, 175895, Note_on_c, 0, 72, 0
1, 175920, Note_on_c, 0, 72, 80
1, 176147, Note_on_c, 0, 72, 0
1, 176160, Note_on_c, 0, 72, 80
1, 176387, Note_on_c, 0, 72, 0
1, 176400, Note_on_c, 0, 72, 80
1, 176627, Note_on_c, 0, 72, 0
1, 176640, Note_on_c, 0, 72, 80
1, 176981, Note_on_c, 0, 72, 0
1, 177000, Note_on_c, 0, 72, 80
1, 177341, Note_on_c, 0, 72, 0
1, 177360, Note_on_c, 0, 72, 80
1, 177587, Note_on_c, 0, 72, 0
1, 177600, Note_on_c, 0, 74, 80
1, 177941, Note_on_c, 0, 74, 0
1, 177960, Note_on_c, 0, 76, 80
1, 178187, Note_on_c, 0, 76, 0
1, 178320, Note_on_c, 0, 76, 80
1, 178547, Note_on_c, 0, 76, 0
1, 178560, Note_on_c, 0, 76, 80
1, 178901, Note_on_c, 0, 76, 0
1, 178920, Note_on_c, 0, 71, 80
1, 179033, Note_on_c, 0, 71, 0
1, 179040, Note_on_c, 0, 71, 80
1, 179267, Note_on_c, 0, 71, 0
1, 179280, Note_on_c, 0, 62, 80
1, 179507, Note_on_c, 0, 62, 0
1, 179520, Note_on_c, 0, 71, 80
1, 179747, Note_on_c, 0, 71, 0
1, 179760, Note_on_c, 0, 71, 80
1, 179987, Note_on_c, 0, 71, 0
1, 180000, Note_on_c, 0, 71, 80
1, 180113, Note_on_c, 0, 71, 0
1, 180120, Note_on_c, 0, 71, 80
1, 180233, Note_on_c, 0, 71, 0
1, 180240, Note_on_c, 0, 62, 80
1, 180467, Note_on_c, 0, 62, 0
1, 180480, Note_on_c, 0, 71, 80
1, 180707, Note_on_c, 0, 71, 0
1, 180720, Note_on_c, 0, 71, 80
1, 180947, Note_on_c, 0, 71, 0
1, 180960, Note_on_c, 0, 71, 80
1, 181187, Note_on_c, 0, 71, 0
1, 181200, Note_on_c, 0, 71, 80
1, 181427, Note_on_c, 0, 71, 0
1, 181440, Note_on_c, 0, 72, 80
1, 181781, Note_on_c, 0, 72, 0
1, 181800, Note_on_c, 0, 74, 80
1, 182027, Note_on_c, 0, 74, 0
1, 182040, Note_on_c, 0, 74, 80
1, 182153, Note_on_c, 0, 74, 0
1, 182160, Note_on_c, 0, 74, 80
1, 182387, Note_on_c, 0, 74, 0
1, 182400, Note_on_c, 0, 76, 80
1, 182741, Note_on_c, 0, 76, 0
1, 182760, Note_on_c, 0, 72, 80
1, 183101, Note_on_c, 0, 72, 0
1, 183120, Note_on_c, 0, 72, 80
1, 183461, Note_on_c, 0, 72, 0
1, 183480, Note_on_c, 0, 71, 80
1, 183821, Note_on_c, 0, 71, 0
1, 183840, Note_on_c, 0, 69, 80
1, 185663, Note_on_c, 0, 69, 0
1, 185760, Note_on_c, 0, 67, 80
1, 185987, Note_on_c, 0, 67, 0
1, 186000, Note_on_c, 0, 67, 80
1, 186227, Note_on_c, 0, 67, 0
1, 186240, Note_on_c, 0, 65, 80
1, 186467, Note_on_c, 0, 65, 0
1, 186480, Note_on_c, 0, 65, 80
1, 186707, Note_on_c, 0, 65, 0
1, 186720, Note_on_c, 0, 65, 80
1, 186947, Note_on_c, 0, 65, 0
1, 186960, Note_on_c, 0, 69, 80
1, 187415, Note_on_c, 0, 69, 0
1, 187440, Note_on_c, 0, 65, 80
1, 187895, Note_on_c, 0, 65, 0
1, 187920, Note_on_c, 0, 65, 80
1, 188147, Note_on_c, 0, 65, 0
1, 188160, Note_on_c, 0, 77, 80
1, 188387, Note_on_c, 0, 77, 0
1, 188400, Note_on_c, 0, 65, 80
1, 188627, Note_on_c, 0, 65, 0
1, 188640, Note_on_c, 0, 76, 80
1, 188867, Note_on_c, 0, 76, 0
1, 188880, Note_on_c, 0, 74, 80
1, 189107, Note_on_c, 0, 74, 0
1, 189120, Note_on_c, 0, 72, 80
1, 189803, Note_on_c, 0, 72, 0
1, 189840, Note_on_c, 0, 74, 80
1, 190067, Note_on_c, 0, 74, 0
1, 190080, Note_on_c, 0, 76, 80
1, 190307, Note_on_c, 0, 76, 0
1, 190320, Note_on_c, 0, 72, 80
1, 190547, Note_on_c, 0, 72, 0
1, 190560, Note_on_c, 0, 72, 80
1, 190787, Note_on_c, 0, 72, 0
1, 190800, Note_on_c, 0, 72, 80
1, 191027, Note_on_c, 0, 72, 0
1, 191040, Note_on_c, 0, 72, 80
1, 191267, Note_on_c, 0, 72, 0
1, 191280, Note_on_c, 0, 67, 80
1, 191507, Note_on_c, 0, 67, 0
1, 191520, Note_on_c, 0, 72, 80
1, 191747, Note_on_c, 0, 72, 0
1, 191760, Note_on_c, 0, 67, 80
1, 191987, Note_on_c, 0, 67, 0
1, 192000, Note_on_c, 0, 72, 80
1, 192227, Note_on_c, 0, 72, 0
1, 192240, Note_on_c, 0, 72, 80
1, 192467, Note_on_c, 0, 72, 0
1, 192480, Note_on_c, 0, 72, 80
1, 192707, Note_on_c, 0, 72, 0
1, 192720, Note_on_c, 0, 72, 80
1, 192947, Note_on_c, 0, 72, 0
1, 192960, Note_on_c, 0, 74, 80
1, 193301, Note_on_c, 0, 74, 0
1, 193320, Note_on_c, 0, 76, 80
1, 193661, Note_on_c, 0, 76, 0
1, 193680, Note_on_c, 0, 76, 80
1, 193907, Note_on_c, 0, 76, 0
1, 193920, Note_on_c, 0, 76, 80
1, 194147, Note_on_c, 0, 76, 0
1, 194160, Note_on_c, 0, 71, 80
1, 194387, Note_on_c, 0, 71, 0
1, 194400, Note_on_c, 0, 71, 80
1, 194627, Note_on_c, 0, 71, 0
1, 194640, Note_on_c, 0, 62, 80
1, 194867, Note_on_c, 0, 62, 0
1, 194880, Note_on_c, 0, 71, 80
1, 195107, Note_on_c, 0, 71, 0
1, 195120, Note_on_c, 0, 71, 80
1, 195347, Note_on_c, 0, 71, 0
1, 195360, Note_on_c, 0, 71, 80
1, 195587, Note_on_c, 0, 71, 0
1, 195600, Note_on_c, 0, 62, 80
1, 195827, Note_on_c, 0, 62, 0
1, 195840, Note_on_c, 0, 71, 80
1, 196067, Note_on_c, 0, 71, 0
1, 196080, Note_on_c, 0, 71, 80
1, 196307, Note_on_c, 0, 71, 0
1, 196320, Note_on_c, 0, 71, 80
1, 196547, Note_on_c, 0, 71, 0
1, 196560, Note_on_c, 0, 71, 80
1, 196787, Note_on_c, 0, 71, 0
1, 196800, Note_on_c, 0, 72, 80
1, 197141, Note_on_c, 0, 72, 0
1, 197160, Note_on_c, 0, 74, 80
1, 197501, Note_on_c, 0, 74, 0
1, 197520, Note_on_c, 0, 74, 80
1, 197747, Note_on_c, 0, 74, 0
1, 197760, Note_on_c, 0, 76, 80
1, 198101, Note_on_c, 0, 76, 0
1, 198120, Note_on_c, 0, 72, 80
1, 198461, Note_on_c, 0, 72, 0
1, 198480, Note_on_c, 0, 72, 80
1, 198821, Note_on_c, 0, 72, 0
1, 198840, Note_on_c, 0, 71, 80
1, 199181, Note_on_c, 0, 71, 0
1, 199200, Note_on_c, 0, 69, 80
1, 201023, Note_on_c, 0, 69, 0
1, 201120, Note_on_c, 0, 67, 80
1, 201347, Note_on_c, 0, 67, 0
1, 201360, Note_on_c, 0, 69, 80
1, 201587, Note_on_c, 0, 69, 0
1, 201600, Note_on_c, 0, 65, 80
1, 202283, Note_on_c, 0, 65, 0
1, 202320, Note_on_c, 0, 69, 80
1, 202775, Note_on_c, 0, 69, 0
1, 202800, Note_on_c, 0, 65, 80
1, 203483, Note_on_c, 0, 65, 0
1, 203520, Note_on_c, 0, 77, 80
1, 204431, Note_on_c, 0, 77, 0
1, 204480, Note_on_c, 0, 76, 80
1, 205163, Note_on_c, 0, 76, 0
1, 205200, Note_on_c, 0, 76, 80
1, 205427, Note_on_c, 0, 76, 0
1, 205440, Note_on_c, 0, 76, 80
1, 205667, Note_on_c, 0, 76, 0
1, 205680, Note_on_c, 0, 72, 80
1, 206363, Note_on_c, 0, 72, 0
1, 206400, Note_on_c, 0, 72, 80
1, 207311, Note_on_c, 0, 72, 0
1, 207360, Note_on_c, 0, 67, 80
1, 208271, Note_on_c, 0, 67, 0
1, 208320, Note_on_c, 0, 76, 80
1, 208547, Note_on_c, 0, 76, 0
1, 208560, Note_on_c, 0, 76, 80
1, 209243, Note_on_c, 0, 76, 0
1, 209280, Note_on_c, 0, 74, 80
1, 210191, Note_on_c, 0, 74, 0
1, 210240, Note_on_c, 0, 71, 80
1, 211151, Note_on_c, 0, 71, 0
1, 211200, Note_on_c, 0, 67, 80
1, 212111, Note_on_c, 0, 67, 0
1, 212160, Note_on_c, 0, 74, 80
1, 212501, Note_on_c, 0, 74, 0
1, 212520, Note_on_c, 0, 72, 80
1, 212861, Note_on_c, 0, 72, 0
1, 212880, Note_on_c, 0, 74, 80
1, 213107, Note_on_c, 0, 74, 0
1, 213120, Note_on_c, 0, 72, 80
1, 213347, Note_on_c, 0, 72, 0
1, 213360, Note_on_c, 0, 69, 80
1, 214043, Note_on_c, 0, 69, 0
1, 214080, Note_on_c, 0, 72, 80
1, 214991, Note_on_c, 0, 72, 0
1, 215040, Note_on_c, 0, 69, 80
1, 215951, Note_on_c, 0, 69, 0
1, 216000, Note_on_c, 0, 72, 80
1, 216911, Note_on_c, 0, 72, 0
1, 216960, Note_on_c, 0, 65, 80
1, 217871, Note_on_c, 0, 65, 0
1, 217920, Note_on_c, 0, 77, 80
1, 218831, Note_on_c, 0, 77, 0
1, 218880, Note_on_c, 0, 76, 80
1, 219335, Note_on_c, 0, 76, 0
1, 219360, Note_on_c, 0, 74, 80
1, 219587, Note_on_c, 0, 74, 0
1, 219600, Note_on_c, 0, 72, 80
1, 220055, Note_on_c, 0, 72, 0
1, 220080, Note_on_c, 0, 67, 80
1, 220535, Note_on_c, 0, 67, 0
1, 220560, Note_on_c, 0, 72, 80
1, 223523, Note_on_c, 0, 72, 0
1, 223920, Note_on_c, 0, 72, 80
1, 224375, Note_on_c, 0, 72, 0
1, 224400, Note_on_c, 0, 71, 80
1, 224855, Note_on_c, 0, 71, 0
1, 224880, Note_on_c, 0, 79, 80
1, 225335, Note_on_c, 0, 79, 0
1, 225360, Note_on_c, 0, 81, 80
1, 225815, Note_on_c, 0, 81, 0
1, 225840, Note_on_c, 0, 79, 80
1, 227549, Note_on_c, 0, 79, 0
1, 227760, Note_on_c, 0, 71, 80
1, 228215, Note_on_c, 0, 71, 0
1, 228240, Note_on_c, 0, 69, 80
1, 228467, Note_on_c, 0, 69, 0
1, 228480, Note_on_c, 0, 76, 80
1, 229391, Note_on_c, 0, 76, 0
1, 229440, Note_on_c, 0, 72, 80
1, 230351, Note_on_c, 0, 72, 0
1, 230400, Note_on_c, 0, 67, 80
1, 231311, Note_on_c, 0, 67, 0
1, 231360, Note_on_c, 0, 76, 80
1, 232271, Note_on_c, 0, 76, 0
1, 232320, Note_on_c, 0, 77, 80
1, 235967, Note_on_c, 0, 77, 0
1, 236880, Note_on_c, 0, 67, 80
1, 237107, Note_on_c, 0, 67, 0
1, 237120, Note_on_c, 0, 72, 80
1, 237347, Note_on_c, 0, 72, 0
1, 237360, Note_on_c, 0, 72, 80
1, 237587, Note_on_c, 0, 72, 0
1, 237600, Note_on_c, 0, 72, 80
1, 237827, Note_on_c, 0, 72, 0
1, 237840, Note_on_c, 0, 72, 80
1, 238067, Note_on_c, 0, 72, 0
1, 238080, Note_on_c, 0, 72, 80
1, 238535, Note_on_c, 0, 72, 0
1, 238560, Note_on_c, 0, 72, 80
1, 238787, Note_on_c, 0, 72, 0
1, 238800, Note_on_c, 0, 74, 80
1, 239255, Note_on_c, 0, 74, 0
1, 239280, Note_on_c, 0, 76, 80
1, 239735, Note_on_c, 0, 76, 0
1, 239760, Note_on_c, 0, 79, 80
1, 240899, Note_on_c, 0, 79, 0
1, 240960, Note_on_c, 0, 79, 80
1, 241187, Note_on_c, 0, 79, 0
1, 241200, Note_on_c, 0, 76, 80
1, 241427, Note_on_c, 0, 76, 0
1, 241440, Note_on_c, 0, 79, 80
1, 241667, Note_on_c, 0, 79, 0
1, 241680, Note_on_c, 0, 76, 80
1, 241907, Note_on_c, 0, 76, 0
1, 241920, Note_on_c, 0, 79, 80
1, 242375, Note_on_c, 0, 79, 0
1, 242400, Note_on_c, 0, 81, 80
1, 242627, Note_on_c, 0, 81, 0
1, 242640, Note_on_c, 0, 76, 80
1, 243095, Note_on_c, 0, 76, 0
1, 243120, Note_on_c, 0, 74, 80
1, 243575, Note_on_c, 0, 74, 0
1, 243600, Note_on_c, 0, 76, 80
1, 244739, Note_on_c, 0, 76, 0
1, 244800, Note_on_c, 0, 76, 80
1, 245027, Note_on_c, 0, 76, 0
1, 245040, Note_on_c, 0, 76, 80
1, 245267, Note_on_c, 0, 76, 0
1, 245280, Note_on_c, 0, 76, 80
1, 245507, Note_on_c, 0, 76, 0
1, 245520, Note_on_c, 0, 79, 80
1, 245747, Note_on_c, 0, 79, 0
1, 245760, Note_on_c, 0, 74, 80
1, 246215, Note_on_c, 0, 74, 0
1, 246240, Note_on_c, 0, 72, 80
1, 246467, Note_on_c, 0, 72, 0
1, 246480, Note_on_c, 0, 74, 80
1, 246935, Note_on_c, 0, 74, 0
1, 246960, Note_on_c, 0, 72, 80
1, 247643, Note_on_c, 0, 72, 0
1, 248160, Note_on_c, 0, 72, 80
1, 248615, Note_on_c, 0, 72, 0
1, 248640, Note_on_c, 0, 81, 80
1, 249095, Note_on_c, 0, 81, 0
1, 249120, Note_on_c, 0, 79, 80
1, 249575, Note_on_c, 0, 79, 0
1, 249600, Note_on_c, 0, 76, 80
1, 250055, Note_on_c, 0, 76, 0
1, 250080, Note_on_c, 0, 74, 80
1, 250307, Note_on_c, 0, 74, 0
1, 250320, Note_on_c, 0, 72, 80
1, 250547, Note_on_c, 0, 72, 0
1, 251040, Note_on_c, 0, 76, 80
1, 251495, Note_on_c, 0, 76, 0
1, 251520, Note_on_c, 0, 76, 80
1, 251975, Note_on_c, 0, 76, 0
1, 252000, Note_on_c, 0, 79, 80
1, 252455, Note_on_c, 0, 79, 0
1, 252480, Note_on_c, 0, 76, 80
1, 252935, Note_on_c, 0, 76, 0
1, 252960, Note_on_c, 0, 79, 80
1, 253415, Note_on_c, 0, 79, 0
1, 253440, Note_on_c, 0, 76, 80
1, 253895, Note_on_c, 0, 76, 0
1, 253920, Note_on_c, 0, 79, 80
1, 254603, Note_on_c, 0, 79, 0
1, 254640, Note_on_c, 0, 79, 80
1, 255095, Note_on_c, 0, 79, 0
1, 255120, Note_on_c, 0, 79, 80
1, 255347, Note_on_c, 0, 79, 0
1, 255360, Note_on_c, 0, 79, 80
1, 255701, Note_on_c, 0, 79, 0
1, 255720, Note_on_c, 0, 81, 80
1, 256061, Note_on_c, 0, 81, 0
1, 256080, Note_on_c, 0, 79, 80
1, 256307, Note_on_c, 0, 79, 0
1, 256320, Note_on_c, 0, 77, 80
1, 256661, Note_on_c, 0, 77, 0
1, 256680, Note_on_c, 0, 76, 80
1, 257021, Note_on_c, 0, 76, 0
1, 257040, Note_on_c, 0, 77, 80
1, 257267, Note_on_c, 0, 77, 0
1, 257280, Note_on_c, 0, 74, 80
1, 258191, Note_on_c, 0, 74, 0
1, 258240, Note_on_c, 0, 79, 80
1, 258467, Note_on_c, 0, 79, 0
1, 258480, Note_on_c, 0, 79, 80
1, 258821, Note_on_c, 0, 79, 0
1, 258840, Note_on_c, 0, 81, 80
1, 259523, Note_on_c, 0, 81, 0
1, 259560, Note_on_c, 0, 76, 80
1, 259901, Note_on_c, 0, 76, 0
1, 259920, Note_on_c, 0, 76, 80
1, 260147, Note_on_c, 0, 76, 0
1, 260160, Note_on_c, 0, 74, 80
1, 260387, Note_on_c, 0, 74, 0
1, 260400, Note_on_c, 0, 72, 80
1, 261083, Note_on_c, 0, 72, 0
1, 261120, Note_on_c, 0, 74, 80
1, 261347, Note_on_c, 0, 74, 0
1, 261360, Note_on_c, 0, 72, 80
1, 261587, Note_on_c, 0, 72, 0
1, 261600, Note_on_c, 0, 74, 80
1, 261827, Note_on_c, 0, 74, 0
1, 261840, Note_on_c, 0, 72, 80
1, 262067, Note_on_c, 0, 72, 0
1, 262080, Note_on_c, 0, 74, 80
1, 262307, Note_on_c, 0, 74, 0
1, 262320, Note_on_c, 0, 72, 80
1, 262547, Note_on_c, 0, 72, 0
1, 262560, Note_on_c, 0, 74, 80
1, 263015, Note_on_c, 0, 74, 0
1, 263040, Note_on_c, 0, 72, 80
1, 263951, Note_on_c, 0, 72, 0
1, 264000, Note_on_c, 0, 77, 80
1, 264911, Note_on_c, 0, 77, 0
1, 264960, Note_on_c, 0, 76, 80
1, 265415, Note_on_c, 0, 76, 0
1, 265440, Note_on_c, 0, 74, 80
1, 265667, Note_on_c, 0, 74, 0
1, 265680, Note_on_c, 0, 72, 80
1, 266135, Note_on_c, 0, 72, 0
1, 266160, Note_on_c, 0, 67, 80
1, 266615, Note_on_c, 0, 67, 0
1, 266640, Note_on_c, 0, 72, 80
1, 269603, Note_on_c, 0, 72, 0
1, 270000, Note_on_c, 0, 72, 80
1, 270455, Note_on_c, 0, 72, 0
1, 270480, Note_on_c, 0, 71, 80
1, 270935, Note_on_c, 0, 71, 0
1, 270960, Note_on_c, 0, 79, 80
1, 271415, Note_on_c, 0, 79, 0
1, 271440, Note_on_c, 0, 81, 80
1, 271895, Note_on_c, 0, 81, 0
1, 271920, Note_on_c, 0, 79, 80
1, 273629, Note_on_c, 0, 79, 0
1, 273840, Note_on_c, 0, 71, 80
1, 274295, Note_on_c, 0, 71, 0
1, 274320, Note_on_c, 0, 69, 80
1, 274547, Note_on_c, 0, 69, 0
1, 274560, Note_on_c, 0, 76, 80
1, 275471, Note_on_c, 0, 76, 0
1, 275520, Note_on_c, 0, 72, 80
1, 276431, Note_on_c, 0, 72, 0
1, 276480, Note_on_c, 0, 67, 80
1, 277391, Note_on_c, 0, 67, 0
1, 277440, Note_on_c, 0, 76, 80
1, 278351, Note_on_c, 0, 76, 0
1, 278400, Note_on_c, 0, 77, 80
1, 282047, Note_on_c, 0, 77, 0
1, 282240, Note_on_c, 0, 64, 80
1, 282240, Note_on_c, 0, 67, 80
1, 282240, Note_on_c, 0, 72, 80
1, 285887, Note_on_c, 0, 64, 0
1, 285887, Note_on_c, 0, 67, 0
1, 285887, Note_on_c, 0, 72, 0
1, 285888, End_track
2, 0, Start_track
2, 0, Title_t, "Piano, Piano\000"
2, 0, Key_signature, 0, "major"
2, 0, MIDI_port, 0
2, 1920, Note_on_c, 0, 55, 80
2, 1920, Note_on_c, 0, 60, 80
2, 2375, Note_on_c, 0, 55, 0
2, 2375, Note_on_c, 0, 60, 0
2, 2400, Note_on_c, 0, 60, 80
2, 2400, Note_on_c, 0, 64, 80
2, 2400, Note_on_c, 0, 67, 80
2, 3311, Note_on_c, 0, 60, 0
2, 3311, Note_on_c, 0, 64, 0
2, 3311, Note_on_c, 0, 67, 0
2, 3360, Note_on_c, 0, 60, 80
2, 3360, Note_on_c, 0, 64, 80
2, 3360, Note_on_c, 0, 67, 80
2, 3599, Note_on_c, 0, 60, 0
2, 3599, Note_on_c, 0, 64, 0
2, 3599, Note_on_c, 0, 67, 0
2, 3840, Note_on_c, 0, 55, 80
2, 3840, Note_on_c, 0, 60, 80
2, 4295, Note_on_c, 0, 55, 0
2, 4295, Note_on_c, 0, 60, 0
2, 4320, Note_on_c, 0, 60, 80
2, 4320, Note_on_c, 0, 64, 80
2, 4320, Note_on_c, 0, 67, 80
2, 5231, Note_on_c, 0, 60, 0
2, 5231, Note_on_c, 0, 64, 0
2, 5231, Note_on_c, 0, 67, 0
2, 5280, Note_on_c, 0, 60, 80
2, 5280, Note_on_c, 0, 64, 80
2, 5280, Note_on_c, 0, 67, 80
2, 5519, Note_on_c, 0, 60, 0
2, 5519, Note_on_c, 0, 64, 0
2, 5519, Note_on_c, 0, 67, 0
2, 5760, Note_on_c, 0, 50, 80
2, 5760, Note_on_c, 0, 59, 80
2, 6215, Note_on_c, 0, 50, 0
2, 6215, Note_on_c, 0, 59, 0
2, 6240, Note_on_c, 0, 59, 80
2, 6240, Note_on_c, 0, 62, 80
2, 6240, Note_on_c, 0, 67, 80
2, 7151, Note_on_c, 0, 59, 0
2, 7151, Note_on_c, 0, 62, 0
2, 7151, Note_on_c, 0, 67, 0
2, 7200, Note_on_c, 0, 67, 80
2, 7200, Note_on_c, 0, 59, 80
2, 7200, Note_on_c, 0, 62, 80
2, 7439, Note_on_c, 0, 59, 0
2, 7439, Note_on_c, 0, 62, 0
2, 7680, Note_on_c, 0, 50, 80
2, 7680, Note_on_c, 0, 59, 80
2, 8111, Note_on_c, 0, 67, 0
2, 8135, Note_on_c, 0, 50, 0
2, 8135, Note_on_c, 0, 59, 0
2, 8160, Note_on_c, 0, 59, 80
2, 8160, Note_on_c, 0, 62, 80
2, 8160, Note_on_c, 0, 67, 80
2, 8880, Note_on_c, 0, 67, 0
2, 9071, Note_on_c, 0, 59, 0
2, 9071, Note_on_c, 0, 62, 0
2, 9120, Note_on_c, 0, 59, 80
2, 9120, Note_on_c, 0, 62, 80
2, 9120, Note_on_c, 0, 67, 80
2, 9359, Note_on_c, 0, 59, 0
2, 9359, Note_on_c, 0, 62, 0
2, 9359, Note_on_c, 0, 67, 0
2, 9600, Note_on_c, 0, 52, 80
2, 9600, Note_on_c, 0, 57, 80
2, 10055, Note_on_c, 0, 52, 0
2, 10055, Note_on_c, 0, 57, 0
2, 10080, Note_on_c, 0, 57, 80
2, 10080, Note_on_c, 0, 60, 80
2, 10080, Note_on_c, 0, 64, 80
2, 10991, Note_on_c, 0, 57, 0
2, 10991, Note_on_c, 0, 60, 0
2, 10991, Note_on_c, 0, 64, 0
2, 11040, Note_on_c, 0, 64, 80
2, 11040, Note_on_c, 0, 57, 80
2, 11040, Note_on_c, 0, 60, 80
2, 11279, Note_on_c, 0, 57, 0
2, 11279, Note_on_c, 0, 60, 0
2, 11520, Note_on_c, 0, 52, 80
2, 11520, Note_on_c, 0, 57, 80
2, 11951, Note_on_c, 0, 64, 0
2, 11975, Note_on_c, 0, 52, 0
2, 11975, Note_on_c, 0, 57, 0
2, 12000, Note_on_c, 0, 57, 80
2, 12000, Note_on_c, 0, 60, 80
2, 12000, Note_on_c, 0, 64, 80
2, 12720, Note_on_c, 0, 64, 0
2, 12911, Note_on_c, 0, 57, 0
2, 12911, Note_on_c, 0, 60, 0
2, 12960, Note_on_c, 0, 57, 80
2, 12960, Note_on_c, 0, 60, 80
2, 12960, Note_on_c, 0, 64, 80
2, 13199, Note_on_c, 0, 57, 0
2, 13199, Note_on_c, 0, 60, 0
2, 13199, Note_on_c, 0, 64, 0
2, 13440, Note_on_c, 0, 48, 80
2, 13440, Note_on_c, 0, 53, 80
2, 13895, Note_on_c, 0, 48, 0
2, 13895, Note_on_c, 0, 53, 0
2, 13920, Note_on_c, 0, 60, 80
2, 13920, Note_on_c, 0, 65, 80
2, 14831, Note_on_c, 0, 60, 0
2, 14831, Note_on_c, 0, 65, 0
2, 14880, Note_on_c, 0, 65, 80
2, 14880, Note_on_c, 0, 57, 80
2, 14880, Note_on_c, 0, 60, 80
2, 15119, Note_on_c, 0, 57, 0
2, 15119, Note_on_c, 0, 60, 0
2, 15360, Note_on_c, 0, 48, 80
2, 15360, Note_on_c, 0, 53, 80
2, 15791, Note_on_c, 0, 65, 0
2, 15815, Note_on_c, 0, 48, 0
2, 15815, Note_on_c, 0, 53, 0
2, 15840, Note_on_c, 0, 60, 80
2, 15840, Note_on_c, 0, 65, 80
2, 16751, Note_on_c, 0, 60, 0
2, 16751, Note_on_c, 0, 65, 0
2, 16800, Note_on_c, 0, 57, 80
2, 16800, Note_on_c, 0, 60, 80
2, 16800, Note_on_c, 0, 65, 80
2, 17039, Note_on_c, 0, 57, 0
2, 17039, Note_on_c, 0, 60, 0
2, 17039, Note_on_c, 0, 65, 0
2, 17280, Note_on_c, 0, 55, 80
2, 17280, Note_on_c, 0, 60, 80
2, 17735, Note_on_c, 0, 55, 0
2, 17735, Note_on_c, 0, 60, 0
2, 17760, Note_on_c, 0, 60, 80
2, 17760, Note_on_c, 0, 64, 80
2, 17760, Note_on_c, 0, 67, 80
2, 18443, Note_on_c, 0, 60, 0
2, 18443, Note_on_c, 0, 64, 0
2, 18443, Note_on_c, 0, 67, 0
2, 18480, Note_on_c, 0, 60, 80
2, 18707, Note_on_c, 0, 60, 0
2, 18720, Note_on_c, 0, 60, 80
2, 18720, Note_on_c, 0, 64, 80
2, 18720, Note_on_c, 0, 67, 80
2, 18947, Note_on_c, 0, 60, 0
2, 18947, Note_on_c, 0, 64, 0
2, 18947, Note_on_c, 0, 67, 0
2, 18960, Note_on_c, 0, 60, 80
2, 19187, Note_on_c, 0, 60, 0
2, 19200, Note_on_c, 0, 55, 80
2, 19200, Note_on_c, 0, 60, 80
2, 19655, Note_on_c, 0, 55, 0
2, 19655, Note_on_c, 0, 60, 0
2, 19680, Note_on_c, 0, 60, 80
2, 19680, Note_on_c, 0, 64, 80
2, 19680, Note_on_c, 0, 67, 80
2, 20363, Note_on_c, 0, 60, 0
2, 20363, Note_on_c, 0, 64, 0
2, 20363, Note_on_c, 0, 67, 0
2, 20400, Note_on_c, 0, 60, 80
2, 20627, Note_on_c, 0, 60, 0
2, 20640, Note_on_c, 0, 60, 80
2, 20640, Note_on_c, 0, 64, 80
2, 20640, Note_on_c, 0, 67, 80
2, 20867, Note_on_c, 0, 60, 0
2, 20867, Note_on_c, 0, 64, 0
2, 20867, Note_on_c, 0, 67, 0
2, 20880, Note_on_c, 0, 60, 80
2, 21107, Note_on_c, 0, 60, 0
2, 21120, Note_on_c, 0, 50, 80
2, 21120, Note_on_c, 0, 59, 80
2, 21575, Note_on_c, 0, 50, 0
2, 21575, Note_on_c, 0, 59, 0
2, 21600, Note_on_c, 0, 59, 80
2, 21600, Note_on_c, 0, 62, 80
2, 21600, Note_on_c, 0, 67, 80
2, 22283, Note_on_c, 0, 59, 0
2, 22283, Note_on_c, 0, 62, 0
2, 22283, Note_on_c, 0, 67, 0
2, 22320, Note_on_c, 0, 59, 80
2, 22547, Note_on_c, 0, 59, 0
2, 22560, Note_on_c, 0, 59, 80
2, 22560, Note_on_c, 0, 62, 80
2, 22560, Note_on_c, 0, 67, 80
2, 22787, Note_on_c, 0, 59, 0
2, 22787, Note_on_c, 0, 62, 0
2, 22787, Note_on_c, 0, 67, 0
2, 22800, Note_on_c, 0, 59, 80
2, 23027, Note_on_c, 0, 59, 0
2, 23040, Note_on_c, 0, 50, 80
2, 23040, Note_on_c, 0, 59, 80
2, 23495, Note_on_c, 0, 50, 0
2, 23495, Note_on_c, 0, 59, 0
2, 23520, Note_on_c, 0, 59, 80
2, 23520, Note_on_c, 0, 62, 80
2, 23520, Note_on_c, 0, 67, 80
2, 24203, Note_on_c, 0, 59, 0
2, 24203, Note_on_c, 0, 62, 0
2, 24203, Note_on_c, 0, 67, 0
2, 24240, Note_on_c, 0, 59, 80
2, 24467, Note_on_c, 0, 59, 0
2, 24480, Note_on_c, 0, 59, 80
2, 24480, Note_on_c, 0, 62, 80
2, 24480, Note_on_c, 0, 67, 80
2, 24707, Note_on_c, 0, 59, 0
2, 24707, Note_on_c, 0, 62, 0
2, 24707, Note_on_c, 0, 67, 0
2, 24720, Note_on_c, 0, 59, 80
2, 24947, Note_on_c, 0, 59, 0
2, 24960, Note_on_c, 0, 52, 80
2, 24960, Note_on_c, 0, 57, 80
2, 25415, Note_on_c, 0, 52, 0
2, 25415, Note_on_c, 0, 57, 0
2, 25440, Note_on_c, 0, 57, 80
2, 25440, Note_on_c, 0, 60, 80
2, 25440, Note_on_c, 0, 64, 80
2, 26123, Note_on_c, 0, 57, 0
2, 26123, Note_on_c, 0, 60, 0
2, 26123, Note_on_c, 0, 64, 0
2, 26160, Note_on_c, 0, 57, 80
2, 26387, Note_on_c, 0, 57, 0
2, 26400, Note_on_c, 0, 57, 80
2, 26400, Note_on_c, 0, 60, 80
2, 26400, Note_on_c, 0, 64, 80
2, 26627, Note_on_c, 0, 57, 0
2, 26627, Note_on_c, 0, 60, 0
2, 26627, Note_on_c, 0, 64, 0
2, 26640, Note_on_c, 0, 57, 80
2, 26867, Note_on_c, 0, 57, 0
2, 26880, Note_on_c, 0, 52, 80
2, 26880, Note_on_c, 0, 57, 80
2, 27335, Note_on_c, 0, 52, 0
2, 27335, Note_on_c, 0, 57, 0
2, 27360, Note_on_c, 0, 57, 80
2, 27360, Note_on_c, 0, 60, 80
2, 27360, Note_on_c, 0, 64, 80
2, 28043, Note_on_c, 0, 57, 0
2, 28043, Note_on_c, 0, 60, 0
2, 28043, Note_on_c, 0, 64, 0
2, 28080, Note_on_c, 0, 57, 80
2, 28307, Note_on_c, 0, 57, 0
2, 28320, Note_on_c, 0, 57, 80
2, 28320, Note_on_c, 0, 60, 80
2, 28320, Note_on_c, 0, 64, 80
2, 28547, Note_on_c, 0, 57, 0
2, 28547, Note_on_c, 0, 60, 0
2, 28547, Note_on_c, 0, 64, 0
2, 28560, Note_on_c, 0, 57, 80
2, 28787, Note_on_c, 0, 57, 0
2, 28800, Note_on_c, 0, 48, 80
2, 28800, Note_on_c, 0, 53, 80
2, 29255, Note_on_c, 0, 48, 0
2, 29255, Note_on_c, 0, 53, 0
2, 29280, Note_on_c, 0, 60, 80
2, 29963, Note_on_c, 0, 60, 0
2, 30000, Note_on_c, 0, 57, 80
2, 30227, Note_on_c, 0, 57, 0
2, 30240, Note_on_c, 0, 57, 80
2, 30240, Note_on_c, 0, 60, 80
2, 30240, Note_on_c, 0, 65, 80
2, 30467, Note_on_c, 0, 57, 0
2, 30467, Note_on_c, 0, 60, 0
2, 30467, Note_on_c, 0, 65, 0
2, 30480, Note_on_c, 0, 57, 80
2, 30707, Note_on_c, 0, 57, 0
2, 30720, Note_on_c, 0, 48, 80
2, 30720, Note_on_c, 0, 53, 80
2, 31175, Note_on_c, 0, 48, 0
2, 31175, Note_on_c, 0, 53, 0
2, 31200, Note_on_c, 0, 60, 80
2, 31200, Note_on_c, 0, 65, 80
2, 31883, Note_on_c, 0, 60, 0
2, 31883, Note_on_c, 0, 65, 0
2, 31920, Note_on_c, 0, 57, 80
2, 32147, Note_on_c, 0, 57, 0
2, 32160, Note_on_c, 0, 57, 80
2, 32160, Note_on_c, 0, 60, 80
2, 32160, Note_on_c, 0, 65, 80
2, 32387, Note_on_c, 0, 57, 0
2, 32387, Note_on_c, 0, 60, 0
2, 32387, Note_on_c, 0, 65, 0
2, 32400, Note_on_c, 0, 57, 80
2, 32627, Note_on_c, 0, 57, 0
2, 32640, Note_on_c, 0, 55, 80
2, 32640, Note_on_c, 0, 60, 80
2, 33095, Note_on_c, 0, 55, 0
2, 33095, Note_on_c, 0, 60, 0
2, 33120, Note_on_c, 0, 60, 80
2, 33120, Note_on_c, 0, 64, 80
2, 33120, Note_on_c, 0, 67, 80
2, 33803, Note_on_c, 0, 60, 0
2, 33803, Note_on_c, 0, 64, 0
2, 33803, Note_on_c, 0, 67, 0
2, 33840, Note_on_c, 0, 60, 80
2, 34067, Note_on_c, 0, 60, 0
2, 34080, Note_on_c, 0, 60, 80
2, 34080, Note_on_c, 0, 64, 80
2, 34080, Note_on_c, 0, 67, 80
2, 34307, Note_on_c, 0, 60, 0
2, 34307, Note_on_c, 0, 64, 0
2, 34307, Note_on_c, 0, 67, 0
2, 34320, Note_on_c, 0, 60, 80
2, 34547, Note_on_c, 0, 60, 0
2, 34560, Note_on_c, 0, 55, 80
2, 34560, Note_on_c, 0, 60, 80
2, 35015, Note_on_c, 0, 55, 0
2, 35015, Note_on_c, 0, 60, 0
2, 35040, Note_on_c, 0, 60, 80
2, 35040, Note_on_c, 0, 64, 80
2, 35040, Note_on_c, 0, 67, 80
2, 35723, Note_on_c, 0, 60, 0
2, 35723, Note_on_c, 0, 64, 0
2, 35723, Note_on_c, 0, 67, 0
2, 35760, Note_on_c, 0, 60, 80
2, 35987, Note_on_c, 0, 60, 0
2, 36000, Note_on_c, 0, 60, 80
2, 36000, Note_on_c, 0, 64, 80
2, 36000, Note_on_c, 0, 67, 80
2, 36227, Note_on_c, 0, 60, 0
2, 36227, Note_on_c, 0, 64, 0
2, 36227, Note_on_c, 0, 67, 0
2, 36240, Note_on_c, 0, 60, 80
2, 36467, Note_on_c, 0, 60, 0
2, 36480, Note_on_c, 0, 50, 80
2, 36480, Note_on_c, 0, 59, 80
2, 36935, Note_on_c, 0, 50, 0
2, 36935, Note_on_c, 0, 59, 0
2, 36960, Note_on_c, 0, 59, 80
2, 36960, Note_on_c, 0, 62, 80
2, 36960, Note_on_c, 0, 67, 80
2, 37643, Note_on_c, 0, 59, 0
2, 37643, Note_on_c, 0, 62, 0
2, 37643, Note_on_c, 0, 67, 0
2, 37680, Note_on_c, 0, 59, 80
2, 37907, Note_on_c, 0, 59, 0
2, 37920, Note_on_c, 0, 59, 80
2, 37920, Note_on_c, 0, 62, 80
2, 37920, Note_on_c, 0, 67, 80
2, 38147, Note_on_c, 0, 59, 0
2, 38147, Note_on_c, 0, 62, 0
2, 38147, Note_on_c, 0, 67, 0
2, 38160, Note_on_c, 0, 59, 80
2, 38387, Note_on_c, 0, 59, 0
2, 38400, Note_on_c, 0, 50, 80
2, 38400, Note_on_c, 0, 59, 80
2, 38855, Note_on_c, 0, 50, 0
2, 38855, Note_on_c, 0, 59, 0
2, 38880, Note_on_c, 0, 59, 80
2, 38880, Note_on_c, 0, 62, 80
2, 38880, Note_on_c, 0, 67, 80
2, 39563, Note_on_c, 0, 59, 0
2, 39563, Note_on_c, 0, 62, 0
2, 39563, Note_on_c, 0, 67, 0
2, 39600, Note_on_c, 0, 59, 80
2, 39827, Note_on_c, 0, 59, 0
2, 39840, Note_on_c, 0, 59, 80
2, 39840, Note_on_c, 0, 62, 80
2, 39840, Note_on_c, 0, 67, 80
2, 40067, Note_on_c, 0, 59, 0
2, 40067, Note_on_c, 0, 62, 0
2, 40067, Note_on_c, 0, 67, 0
2, 40080, Note_on_c, 0, 59, 80
2, 40307, Note_on_c, 0, 59, 0
2, 40320, Note_on_c, 0, 52, 80
2, 40320, Note_on_c, 0, 57, 80
2, 40775, Note_on_c, 0, 52, 0
2, 40775, Note_on_c, 0, 57, 0
2, 40800, Note_on_c, 0, 57, 80
2, 40800, Note_on_c, 0, 60, 80
2, 40800, Note_on_c, 0, 64, 80
2, 41483, Note_on_c, 0, 57, 0
2, 41483, Note_on_c, 0, 60, 0
2, 41483, Note_on_c, 0, 64, 0
2, 41520, Note_on_c, 0, 57, 80
2, 41747, Note_on_c, 0, 57, 0
2, 41760, Note_on_c, 0, 57, 80
2, 41760, Note_on_c, 0, 60, 80
2, 41760, Note_on_c, 0, 64, 80
2, 41987, Note_on_c, 0, 57, 0
2, 41987, Note_on_c, 0, 60, 0
2, 41987, Note_on_c, 0, 64, 0
2, 42000, Note_on_c, 0, 57, 80
2, 42227, Note_on_c, 0, 57, 0
2, 42240, Note_on_c, 0, 52, 80
2, 42240, Note_on_c, 0, 57, 80
2, 42695, Note_on_c, 0, 52, 0
2, 42695, Note_on_c, 0, 57, 0
2, 42720, Note_on_c, 0, 57, 80
2, 42720, Note_on_c, 0, 60, 80
2, 42720, Note_on_c, 0, 64, 80
2, 43403, Note_on_c, 0, 57, 0
2, 43403, Note_on_c, 0, 60, 0
2, 43403, Note_on_c, 0, 64, 0
2, 43440, Note_on_c, 0, 57, 80
2, 43667, Note_on_c, 0, 57, 0
2, 43680, Note_on_c, 0, 57, 80
2, 43680, Note_on_c, 0, 60, 80
2, 43680, Note_on_c, 0, 64, 80
2, 43907, Note_on_c, 0, 57, 0
2, 43907, Note_on_c, 0, 60, 0
2, 43907, Note_on_c, 0, 64, 0
2, 43920, Note_on_c, 0, 57, 80
2, 44147, Note_on_c, 0, 57, 0
2, 44160, Note_on_c, 0, 48, 80
2, 44160, Note_on_c, 0, 53, 80
2, 44615, Note_on_c, 0, 48, 0
2, 44615, Note_on_c, 0, 53, 0
2, 44640, Note_on_c, 0, 60, 80
2, 45323, Note_on_c, 0, 60, 0
2, 45360, Note_on_c, 0, 57, 80
2, 45587, Note_on_c, 0, 57, 0
2, 45600, Note_on_c, 0, 65, 80
2, 45600, Note_on_c, 0, 57, 80
2, 45600, Note_on_c, 0, 60, 80
2, 45827, Note_on_c, 0, 57, 0
2, 45827, Note_on_c, 0, 60, 0
2, 45840, Note_on_c, 0, 57, 80
2, 46055, Note_on_c, 0, 65, 0
2, 46067, Note_on_c, 0, 57, 0
2, 46080, Note_on_c, 0, 48, 80
2, 46080, Note_on_c, 0, 53, 80
2, 46535, Note_on_c, 0, 48, 0
2, 46535, Note_on_c, 0, 53, 0
2, 46560, Note_on_c, 0, 60, 80
2, 46560, Note_on_c, 0, 65, 80
2, 47243, Note_on_c, 0, 60, 0
2, 47243, Note_on_c, 0, 65, 0
2, 47280, Note_on_c, 0, 57, 80
2, 47507, Note_on_c, 0, 57, 0
2, 47520, Note_on_c, 0, 57, 80
2, 47520, Note_on_c, 0, 60, 80
2, 47520, Note_on_c, 0, 65, 80
2, 47747, Note_on_c, 0, 57, 0
2, 47747, Note_on_c, 0, 60, 0
2, 47747, Note_on_c, 0, 65, 0
2, 47760, Note_on_c, 0, 57, 80
2, 47987, Note_on_c, 0, 57, 0
2, 48000, Note_on_c, 0, 52, 80
2, 48000, Note_on_c, 0, 55, 80
2, 48000, Note_on_c, 0, 60, 80
2, 49823, Note_on_c, 0, 52, 0
2, 49823, Note_on_c, 0, 55, 0
2, 49823, Note_on_c, 0, 60, 0
2, 51840, Note_on_c, 0, 50, 80
2, 51840, Note_on_c, 0, 55, 80
2, 51840, Note_on_c, 0, 59, 80
2, 53663, Note_on_c, 0, 50, 0
2, 53663, Note_on_c, 0, 55, 0
2, 53663, Note_on_c, 0, 59, 0
2, 55680, Note_on_c, 0, 48, 80
2, 55680, Note_on_c, 0, 52, 80
2, 55680, Note_on_c, 0, 57, 80
2, 55919, Note_on_c, 0, 48, 0
2, 55919, Note_on_c, 0, 52, 0
2, 55919, Note_on_c, 0, 57, 0
2, 59520, Note_on_c, 0, 48, 80
2, 59520, Note_on_c, 0, 53, 80
2, 59520, Note_on_c, 0, 57, 80
2, 59759, Note_on_c, 0, 48, 0
2, 59759, Note_on_c, 0, 53, 0
2, 59759, Note_on_c, 0, 57, 0
2, 61440, Note_on_c, 0, 48, 80
2, 61440, Note_on_c, 0, 55, 80
2, 61440, Note_on_c, 0, 60, 80
2, 62351, Note_on_c, 0, 48, 0
2, 62351, Note_on_c, 0, 55, 0
2, 62351, Note_on_c, 0, 60, 0
2, 63360, Note_on_c, 0, 48, 80
2, 63840, Note_on_c, 0, 55, 80
2, 63840, Note_on_c, 0, 60, 80
2, 64067, Note_on_c, 0, 55, 0
2, 64067, Note_on_c, 0, 60, 0
2, 64080, Note_on_c, 0, 55, 80
2, 64080, Note_on_c, 0, 60, 80
2, 64535, Note_on_c, 0, 55, 0
2, 64535, Note_on_c, 0, 60, 0
2, 64800, Note_on_c, 0, 55, 80
2, 64800, Note_on_c, 0, 60, 80
2, 65183, Note_on_c, 0, 48, 0
2, 65255, Note_on_c, 0, 55, 0
2, 65255, Note_on_c, 0, 60, 0
2, 65280, Note_on_c, 0, 48, 80
2, 65760, Note_on_c, 0, 55, 80
2, 65760, Note_on_c, 0, 60, 80
2, 65987, Note_on_c, 0, 55, 0
2, 65987, Note_on_c, 0, 60, 0
2, 66000, Note_on_c, 0, 55, 80
2, 66000, Note_on_c, 0, 60, 80
2, 66455, Note_on_c, 0, 55, 0
2, 66455, Note_on_c, 0, 60, 0
2, 66720, Note_on_c, 0, 55, 80
2, 66720, Note_on_c, 0, 60, 80
2, 67103, Note_on_c, 0, 48, 0
2, 67175, Note_on_c, 0, 55, 0
2, 67175, Note_on_c, 0, 60, 0
2, 67200, Note_on_c, 0, 55, 80
2, 67655, Note_on_c, 0, 55, 0
2, 67680, Note_on_c, 0, 55, 80
2, 67680, Note_on_c, 0, 59, 80
2, 67907, Note_on_c, 0, 55, 0
2, 67907, Note_on_c, 0, 59, 0
2, 67920, Note_on_c, 0, 59, 80
2, 67920, Note_on_c, 0, 55, 80
2, 68375, Note_on_c, 0, 59, 0
2, 68603, Note_on_c, 0, 55, 0
2, 68640, Note_on_c, 0, 55, 80
2, 68640, Note_on_c, 0, 59, 80
2, 69095, Note_on_c, 0, 55, 0
2, 69095, Note_on_c, 0, 59, 0
2, 69120, Note_on_c, 0, 55, 80
2, 69575, Note_on_c, 0, 55, 0
2, 69600, Note_on_c, 0, 55, 80
2, 69600, Note_on_c, 0, 59, 80
2, 69827, Note_on_c, 0, 55, 0
2, 69827, Note_on_c, 0, 59, 0
2, 69840, Note_on_c, 0, 59, 80
2, 69840, Note_on_c, 0, 55, 80
2, 70295, Note_on_c, 0, 59, 0
2, 70523, Note_on_c, 0, 55, 0
2, 70560, Note_on_c, 0, 55, 80
2, 70560, Note_on_c, 0, 59, 80
2, 71015, Note_on_c, 0, 55, 0
2, 71015, Note_on_c, 0, 59, 0
2, 71040, Note_on_c, 0, 57, 80
2, 71495, Note_on_c, 0, 57, 0
2, 71520, Note_on_c, 0, 52, 80
2, 71520, Note_on_c, 0, 57, 80
2, 71747, Note_on_c, 0, 52, 0
2, 71747, Note_on_c, 0, 57, 0
2, 71760, Note_on_c, 0, 57, 80
2, 71760, Note_on_c, 0, 52, 80
2, 72215, Note_on_c, 0, 52, 0
2, 72443, Note_on_c, 0, 57, 0
2, 72480, Note_on_c, 0, 52, 80
2, 72480, Note_on_c, 0, 57, 80
2, 72935, Note_on_c, 0, 52, 0
2, 72935, Note_on_c, 0, 57, 0
2, 72960, Note_on_c, 0, 57, 80
2, 73415, Note_on_c, 0, 57, 0
2, 73440, Note_on_c, 0, 52, 80
2, 73440, Note_on_c, 0, 57, 80
2, 73667, Note_on_c, 0, 52, 0
2, 73667, Note_on_c, 0, 57, 0
2, 73680, Note_on_c, 0, 57, 80
2, 73680, Note_on_c, 0, 52, 80
2, 74135, Note_on_c, 0, 52, 0
2, 74363, Note_on_c, 0, 57, 0
2, 74400, Note_on_c, 0, 52, 80
2, 74400, Note_on_c, 0, 57, 80
2, 74855, Note_on_c, 0, 52, 0
2, 74855, Note_on_c, 0, 57, 0
2, 74880, Note_on_c, 0, 53, 80
2, 75335, Note_on_c, 0, 53, 0
2, 75360, Note_on_c, 0, 53, 80
2, 75360, Note_on_c, 0, 60, 80
2, 75587, Note_on_c, 0, 53, 0
2, 75587, Note_on_c, 0, 60, 0
2, 75600, Note_on_c, 0, 60, 80
2, 75600, Note_on_c, 0, 53, 80
2, 76055, Note_on_c, 0, 60, 0
2, 76283, Note_on_c, 0, 53, 0
2, 76320, Note_on_c, 0, 53, 80
2, 76320, Note_on_c, 0, 60, 80
2, 76775, Note_on_c, 0, 53, 0
2, 76775, Note_on_c, 0, 60, 0
2, 76800, Note_on_c, 0, 53, 80
2, 77255, Note_on_c, 0, 53, 0
2, 77280, Note_on_c, 0, 53, 80
2, 77280, Note_on_c, 0, 60, 80
2, 77507, Note_on_c, 0, 53, 0
2, 77507, Note_on_c, 0, 60, 0
2, 77520, Note_on_c, 0, 60, 80
2, 77520, Note_on_c, 0, 53, 80
2, 77975, Note_on_c, 0, 60, 0
2, 78203, Note_on_c, 0, 53, 0
2, 78240, Note_on_c, 0, 53, 80
2, 78240, Note_on_c, 0, 60, 80
2, 78695, Note_on_c, 0, 53, 0
2, 78695, Note_on_c, 0, 60, 0
2, 78720, Note_on_c, 0, 55, 80
2, 78720, Note_on_c, 0, 60, 80
2, 79175, Note_on_c, 0, 55, 0
2, 79175, Note_on_c, 0, 60, 0
2, 79200, Note_on_c, 0, 67, 80
2, 79200, Note_on_c, 0, 60, 80
2, 79200, Note_on_c, 0, 64, 80
2, 79439, Note_on_c, 0, 67, 0
2, 79920, Note_on_c, 0, 60, 0
2, 79920, Note_on_c, 0, 60, 80
2, 80111, Note_on_c, 0, 64, 0
2, 80147, Note_on_c, 0, 60, 0
2, 80160, Note_on_c, 0, 60, 80
2, 80160, Note_on_c, 0, 64, 80
2, 80160, Note_on_c, 0, 67, 80
2, 80387, Note_on_c, 0, 60, 0
2, 80387, Note_on_c, 0, 64, 0
2, 80387, Note_on_c, 0, 67, 0
2, 80400, Note_on_c, 0, 60, 80
2, 80627, Note_on_c, 0, 60, 0
2, 80640, Note_on_c, 0, 55, 80
2, 80640, Note_on_c, 0, 60, 80
2, 81095, Note_on_c, 0, 55, 0
2, 81095, Note_on_c, 0, 60, 0
2, 81120, Note_on_c, 0, 60, 80
2, 81120, Note_on_c, 0, 64, 80
2, 81120, Note_on_c, 0, 67, 80
2, 81803, Note_on_c, 0, 60, 0
2, 81803, Note_on_c, 0, 64, 0
2, 81803, Note_on_c, 0, 67, 0
2, 81840, Note_on_c, 0, 60, 80
2, 82067, Note_on_c, 0, 60, 0
2, 82080, Note_on_c, 0, 60, 80
2, 82080, Note_on_c, 0, 64, 80
2, 82080, Note_on_c, 0, 67, 80
2, 82307, Note_on_c, 0, 60, 0
2, 82307, Note_on_c, 0, 64, 0
2, 82307, Note_on_c, 0, 67, 0
2, 82320, Note_on_c, 0, 60, 80
2, 82547, Note_on_c, 0, 60, 0
2, 82560, Note_on_c, 0, 50, 80
2, 82560, Note_on_c, 0, 59, 80
2, 83015, Note_on_c, 0, 50, 0
2, 83015, Note_on_c, 0, 59, 0
2, 83040, Note_on_c, 0, 59, 80
2, 83040, Note_on_c, 0, 62, 80
2, 83040, Note_on_c, 0, 67, 80
2, 83723, Note_on_c, 0, 59, 0
2, 83723, Note_on_c, 0, 62, 0
2, 83723, Note_on_c, 0, 67, 0
2, 83760, Note_on_c, 0, 59, 80
2, 83987, Note_on_c, 0, 59, 0
2, 84000, Note_on_c, 0, 59, 80
2, 84000, Note_on_c, 0, 62, 80
2, 84000, Note_on_c, 0, 67, 80
2, 84227, Note_on_c, 0, 59, 0
2, 84227, Note_on_c, 0, 62, 0
2, 84227, Note_on_c, 0, 67, 0
2, 84240, Note_on_c, 0, 59, 80
2, 84467, Note_on_c, 0, 59, 0
2, 84480, Note_on_c, 0, 50, 80
2, 84480, Note_on_c, 0, 59, 80
2, 84935, Note_on_c, 0, 50, 0
2, 84935, Note_on_c, 0, 59, 0
2, 84960, Note_on_c, 0, 59, 80
2, 84960, Note_on_c, 0, 62, 80
2, 84960, Note_on_c, 0, 67, 80
2, 85643, Note_on_c, 0, 59, 0
2, 85643, Note_on_c, 0, 62, 0
2, 85643, Note_on_c, 0, 67, 0
2, 85680, Note_on_c, 0, 59, 80
2, 85907, Note_on_c, 0, 59, 0
2, 85920, Note_on_c, 0, 59, 80
2, 85920, Note_on_c, 0, 62, 80
2, 85920, Note_on_c, 0, 67, 80
2, 86147, Note_on_c, 0, 59, 0
2, 86147, Note_on_c, 0, 62, 0
2, 86147, Note_on_c, 0, 67, 0
2, 86160, Note_on_c, 0, 59, 80
2, 86387, Note_on_c, 0, 59, 0
2, 86400, Note_on_c, 0, 52, 80
2, 86400, Note_on_c, 0, 57, 80
2, 86855, Note_on_c, 0, 52, 0
2, 86855, Note_on_c, 0, 57, 0
2, 86880, Note_on_c, 0, 57, 80
2, 86880, Note_on_c, 0, 60, 80
2, 86880, Note_on_c, 0, 64, 80
2, 87563, Note_on_c, 0, 57, 0
2, 87563, Note_on_c, 0, 60, 0
2, 87563, Note_on_c, 0, 64, 0
2, 87600, Note_on_c, 0, 57, 80
2, 87827, Note_on_c, 0, 57, 0
2, 87840, Note_on_c, 0, 57, 80
2, 87840, Note_on_c, 0, 60, 80
2, 87840, Note_on_c, 0, 64, 80
2, 88067, Note_on_c, 0, 57, 0
2, 88067, Note_on_c, 0, 60, 0
2, 88067, Note_on_c, 0, 64, 0
2, 88080, Note_on_c, 0, 57, 80
2, 88307, Note_on_c, 0, 57, 0
2, 88320, Note_on_c, 0, 52, 80
2, 88320, Note_on_c, 0, 57, 80
2, 88775, Note_on_c, 0, 52, 0
2, 88775, Note_on_c, 0, 57, 0
2, 88800, Note_on_c, 0, 57, 80
2, 88800, Note_on_c, 0, 60, 80
2, 88800, Note_on_c, 0, 64, 80
2, 89483, Note_on_c, 0, 57, 0
2, 89483, Note_on_c, 0, 60, 0
2, 89483, Note_on_c, 0, 64, 0
2, 89520, Note_on_c, 0, 57, 80
2, 89747, Note_on_c, 0, 57, 0
2, 89760, Note_on_c, 0, 57, 80
2, 89760, Note_on_c, 0, 60, 80
2, 89760, Note_on_c, 0, 64, 80
2, 89987, Note_on_c, 0, 57, 0
2, 89987, Note_on_c, 0, 60, 0
2, 89987, Note_on_c, 0, 64, 0
2, 90000, Note_on_c, 0, 57, 80
2, 90227, Note_on_c, 0, 57, 0
2, 90240, Note_on_c, 0, 48, 80
2, 90240, Note_on_c, 0, 53, 80
2, 90695, Note_on_c, 0, 48, 0
2, 90695, Note_on_c, 0, 53, 0
2, 90720, Note_on_c, 0, 60, 80
2, 91403, Note_on_c, 0, 60, 0
2, 91440, Note_on_c, 0, 57, 80
2, 91667, Note_on_c, 0, 57, 0
2, 91680, Note_on_c, 0, 57, 80
2, 91680, Note_on_c, 0, 60, 80
2, 91680, Note_on_c, 0, 65, 80
2, 91907, Note_on_c, 0, 57, 0
2, 91907, Note_on_c, 0, 60, 0
2, 91907, Note_on_c, 0, 65, 0
2, 91920, Note_on_c, 0, 57, 80
2, 92147, Note_on_c, 0, 57, 0
2, 92160, Note_on_c, 0, 48, 80
2, 92160, Note_on_c, 0, 53, 80
2, 92615, Note_on_c, 0, 48, 0
2, 92615, Note_on_c, 0, 53, 0
2, 92640, Note_on_c, 0, 60, 80
2, 92640, Note_on_c, 0, 65, 80
2, 93323, Note_on_c, 0, 60, 0
2, 93323, Note_on_c, 0, 65, 0
2, 93360, Note_on_c, 0, 57, 80
2, 93587, Note_on_c, 0, 57, 0
2, 93600, Note_on_c, 0, 57, 80
2, 93600, Note_on_c, 0, 60, 80
2, 93600, Note_on_c, 0, 65, 80
2, 93827, Note_on_c, 0, 57, 0
2, 93827, Note_on_c, 0, 60, 0
2, 93827, Note_on_c, 0, 65, 0
2, 93840, Note_on_c, 0, 57, 80
2, 94067, Note_on_c, 0, 57, 0
2, 94080, Note_on_c, 0, 55, 80
2, 94080, Note_on_c, 0, 60, 80
2, 94535, Note_on_c, 0, 55, 0
2, 94535, Note_on_c, 0, 60, 0
2, 94560, Note_on_c, 0, 60, 80
2, 94560, Note_on_c, 0, 64, 80
2, 94560, Note_on_c, 0, 67, 80
2, 95243, Note_on_c, 0, 60, 0
2, 95243, Note_on_c, 0, 64, 0
2, 95243, Note_on_c, 0, 67, 0
2, 95280, Note_on_c, 0, 60, 80
2, 95507, Note_on_c, 0, 60, 0
2, 95520, Note_on_c, 0, 60, 80
2, 95520, Note_on_c, 0, 64, 80
2, 95520, Note_on_c, 0, 67, 80
2, 95747, Note_on_c, 0, 60, 0
2, 95747, Note_on_c, 0, 64, 0
2, 95747, Note_on_c, 0, 67, 0
2, 95760, Note_on_c, 0, 60, 80
2, 95987, Note_on_c, 0, 60, 0
2, 96000, Note_on_c, 0, 55, 80
2, 96000, Note_on_c, 0, 60, 80
2, 96455, Note_on_c, 0, 55, 0
2, 96455, Note_on_c, 0, 60, 0
2, 96480, Note_on_c, 0, 60, 80
2, 96480, Note_on_c, 0, 64, 80
2, 96480, Note_on_c, 0, 67, 80
2, 97163, Note_on_c, 0, 60, 0
2, 97163, Note_on_c, 0, 64, 0
2, 97163, Note_on_c, 0, 67, 0
2, 97200, Note_on_c, 0, 60, 80
2, 97427, Note_on_c, 0, 60, 0
2, 97440, Note_on_c, 0, 60, 80
2, 97440, Note_on_c, 0, 64, 80
2, 97440, Note_on_c, 0, 67, 80
2, 97667, Note_on_c, 0, 60, 0
2, 97667, Note_on_c, 0, 64, 0
2, 97667, Note_on_c, 0, 67, 0
2, 97680, Note_on_c, 0, 60, 80
2, 97907, Note_on_c, 0, 60, 0
2, 97920, Note_on_c, 0, 50, 80
2, 97920, Note_on_c, 0, 59, 80
2, 98375, Note_on_c, 0, 50, 0
2, 98375, Note_on_c, 0, 59, 0
2, 98400, Note_on_c, 0, 59, 80
2, 98400, Note_on_c, 0, 62, 80
2, 98400, Note_on_c, 0, 67, 80
2, 99083, Note_on_c, 0, 59, 0
2, 99083, Note_on_c, 0, 62, 0
2, 99083, Note_on_c, 0, 67, 0
2, 99120, Note_on_c, 0, 59, 80
2, 99347, Note_on_c, 0, 59, 0
2, 99360, Note_on_c, 0, 59, 80
2, 99360, Note_on_c, 0, 62, 80
2, 99360, Note_on_c, 0, 67, 80
2, 99587, Note_on_c, 0, 59, 0
2, 99587, Note_on_c, 0, 62, 0
2, 99587, Note_on_c, 0, 67, 0
2, 99600, Note_on_c, 0, 59, 80
2, 99827, Note_on_c, 0, 59, 0
2, 99840, Note_on_c, 0, 50, 80
2, 99840, Note_on_c, 0, 59, 80
2, 100295, Note_on_c, 0, 50, 0
2, 100295, Note_on_c, 0, 59, 0
2, 100320, Note_on_c, 0, 59, 80
2, 100320, Note_on_c, 0, 62, 80
2, 100320, Note_on_c, 0, 67, 80
2, 101003, Note_on_c, 0, 59, 0
2, 101003, Note_on_c, 0, 62, 0
2, 101003, Note_on_c, 0, 67, 0
2, 101040, Note_on_c, 0, 59, 80
2, 101267, Note_on_c, 0, 59, 0
2, 101280, Note_on_c, 0, 59, 80
2, 101280, Note_on_c, 0, 62, 80
2, 101280, Note_on_c, 0, 67, 80
2, 101507, Note_on_c, 0, 59, 0
2, 101507, Note_on_c, 0, 62, 0
2, 101507, Note_on_c, 0, 67, 0
2, 101520, Note_on_c, 0, 59, 80
2, 101747, Note_on_c, 0, 59, 0
2, 101760, Note_on_c, 0, 52, 80
2, 101760, Note_on_c, 0, 57, 80
2, 102215, Note_on_c, 0, 52, 0
2, 102215, Note_on_c, 0, 57, 0
2, 102240, Note_on_c, 0, 57, 80
2, 102240, Note_on_c, 0, 60, 80
2, 102240, Note_on_c, 0, 64, 80
2, 102923, Note_on_c, 0, 57, 0
2, 102923, Note_on_c, 0, 60, 0
2, 102923, Note_on_c, 0, 64, 0
2, 102960, Note_on_c, 0, 57, 80
2, 103187, Note_on_c, 0, 57, 0
2, 103200, Note_on_c, 0, 57, 80
2, 103200, Note_on_c, 0, 60, 80
2, 103200, Note_on_c, 0, 64, 80
2, 103427, Note_on_c, 0, 57, 0
2, 103427, Note_on_c, 0, 60, 0
2, 103427, Note_on_c, 0, 64, 0
2, 103440, Note_on_c, 0, 57, 80
2, 103667, Note_on_c, 0, 57, 0
2, 103680, Note_on_c, 0, 52, 80
2, 103680, Note_on_c, 0, 57, 80
2, 104135, Note_on_c, 0, 52, 0
2, 104135, Note_on_c, 0, 57, 0
2, 104160, Note_on_c, 0, 57, 80
2, 104160, Note_on_c, 0, 60, 80
2, 104160, Note_on_c, 0, 64, 80
2, 104843, Note_on_c, 0, 57, 0
2, 104843, Note_on_c, 0, 60, 0
2, 104843, Note_on_c, 0, 64, 0
2, 104880, Note_on_c, 0, 57, 80
2, 105107, Note_on_c, 0, 57, 0
2, 105120, Note_on_c, 0, 57, 80
2, 105120, Note_on_c, 0, 60, 80
2, 105120, Note_on_c, 0, 64, 80
2, 105347, Note_on_c, 0, 57, 0
2, 105347, Note_on_c, 0, 60, 0
2, 105347, Note_on_c, 0, 64, 0
2, 105360, Note_on_c, 0, 57, 80
2, 105587, Note_on_c, 0, 57, 0
2, 105600, Note_on_c, 0, 48, 80
2, 105600, Note_on_c, 0, 53, 80
2, 106055, Note_on_c, 0, 48, 0
2, 106055, Note_on_c, 0, 53, 0
2, 106080, Note_on_c, 0, 60, 80
2, 106763, Note_on_c, 0, 60, 0
2, 106800, Note_on_c, 0, 57, 80
2, 107027, Note_on_c, 0, 57, 0
2, 107040, Note_on_c, 0, 57, 80
2, 107040, Note_on_c, 0, 60, 80
2, 107040, Note_on_c, 0, 65, 80
2, 107267, Note_on_c, 0, 57, 0
2, 107267, Note_on_c, 0, 60, 0
2, 107267, Note_on_c, 0, 65, 0
2, 107280, Note_on_c, 0, 57, 80
2, 107507, Note_on_c, 0, 57, 0
2, 107520, Note_on_c, 0, 48, 80
2, 107520, Note_on_c, 0, 53, 80
2, 107975, Note_on_c, 0, 48, 0
2, 107975, Note_on_c, 0, 53, 0
2, 108000, Note_on_c, 0, 60, 80
2, 108000, Note_on_c, 0, 65, 80
2, 108683, Note_on_c, 0, 60, 0
2, 108683, Note_on_c, 0, 65, 0
2, 108720, Note_on_c, 0, 57, 80
2, 108947, Note_on_c, 0, 57, 0
2, 108960, Note_on_c, 0, 57, 80
2, 108960, Note_on_c, 0, 60, 80
2, 108960, Note_on_c, 0, 65, 80
2, 109187, Note_on_c, 0, 57, 0
2, 109187, Note_on_c, 0, 60, 0
2, 109187, Note_on_c, 0, 65, 0
2, 109200, Note_on_c, 0, 57, 80
2, 109427, Note_on_c, 0, 57, 0
2, 109440, Note_on_c, 0, 60, 80
2, 109440, Note_on_c, 0, 48, 80
2, 109440, Note_on_c, 0, 53, 80
2, 109440, Note_on_c, 0, 57, 80
2, 111263, Note_on_c, 0, 60, 0
2, 113087, Note_on_c, 0, 48, 0
2, 113087, Note_on_c, 0, 53, 0
2, 113087, Note_on_c, 0, 57, 0
2, 113280, Note_on_c, 0, 52, 80
2, 113280, Note_on_c, 0, 55, 80
2, 113280, Note_on_c, 0, 60, 80
2, 115103, Note_on_c, 0, 52, 0
2, 115103, Note_on_c, 0, 55, 0
2, 115103, Note_on_c, 0, 60, 0
2, 117120, Note_on_c, 0, 50, 80
2, 117120, Note_on_c, 0, 55, 80
2, 117120, Note_on_c, 0, 59, 80
2, 118943, Note_on_c, 0, 50, 0
2, 118943, Note_on_c, 0, 55, 0
2, 118943, Note_on_c, 0, 59, 0
2, 120960, Note_on_c, 0, 48, 80
2, 120960, Note_on_c, 0, 52, 80
2, 120960, Note_on_c, 0, 57, 80
2, 121199, Note_on_c, 0, 48, 0
2, 121199, Note_on_c, 0, 52, 0
2, 121199, Note_on_c, 0, 57, 0
2, 124800, Note_on_c, 0, 48, 80
2, 124800, Note_on_c, 0, 53, 80
2, 124800, Note_on_c, 0, 57, 80
2, 125039, Note_on_c, 0, 48, 0
2, 125039, Note_on_c, 0, 53, 0
2, 125039, Note_on_c, 0, 57, 0
2, 126720, Note_on_c, 0, 53, 80
2, 126720, Note_on_c, 0, 57, 80
2, 126720, Note_on_c, 0, 60, 80
2, 128543, Note_on_c, 0, 53, 0
2, 128543, Note_on_c, 0, 57, 0
2, 128543, Note_on_c, 0, 60, 0
2, 128640, Note_on_c, 0, 55, 80
2, 128640, Note_on_c, 0, 60, 80
2, 129551, Note_on_c, 0, 55, 0
2, 129551, Note_on_c, 0, 60, 0
2, 129600, Note_on_c, 0, 55, 80
2, 129600, Note_on_c, 0, 60, 80
2, 130511, Note_on_c, 0, 55, 0
2, 130511, Note_on_c, 0, 60, 0
2, 130560, Note_on_c, 0, 55, 80
2, 130560, Note_on_c, 0, 60, 80
2, 131471, Note_on_c, 0, 55, 0
2, 131471, Note_on_c, 0, 60, 0
2, 131520, Note_on_c, 0, 55, 80
2, 131520, Note_on_c, 0, 60, 80
2, 132431, Note_on_c, 0, 55, 0
2, 132431, Note_on_c, 0, 60, 0
2, 132480, Note_on_c, 0, 50, 80
2, 132480, Note_on_c, 0, 55, 80
2, 133391, Note_on_c, 0, 50, 0
2, 133391, Note_on_c, 0, 55, 0
2, 133440, Note_on_c, 0, 50, 80
2, 133440, Note_on_c, 0, 55, 80
2, 134351, Note_on_c, 0, 50, 0
2, 134351, Note_on_c, 0, 55, 0
2, 134400, Note_on_c, 0, 50, 80
2, 134400, Note_on_c, 0, 55, 80
2, 135311, Note_on_c, 0, 50, 0
2, 135311, Note_on_c, 0, 55, 0
2, 135360, Note_on_c, 0, 50, 80
2, 135360, Note_on_c, 0, 55, 80
2, 136271, Note_on_c, 0, 50, 0
2, 136271, Note_on_c, 0, 55, 0
2, 136320, Note_on_c, 0, 52, 80
2, 136320, Note_on_c, 0, 57, 80
2, 137231, Note_on_c, 0, 52, 0
2, 137231, Note_on_c, 0, 57, 0
2, 137280, Note_on_c, 0, 52, 80
2, 137280, Note_on_c, 0, 57, 80
2, 138191, Note_on_c, 0, 52, 0
2, 138191, Note_on_c, 0, 57, 0
2, 138240, Note_on_c, 0, 52, 80
2, 138240, Note_on_c, 0, 57, 80
2, 139151, Note_on_c, 0, 52, 0
2, 139151, Note_on_c, 0, 57, 0
2, 139200, Note_on_c, 0, 52, 80
2, 139200, Note_on_c, 0, 57, 80
2, 140111, Note_on_c, 0, 52, 0
2, 140111, Note_on_c, 0, 57, 0
2, 140160, Note_on_c, 0, 48, 80
2, 140160, Note_on_c, 0, 53, 80
2, 140399, Note_on_c, 0, 48, 0
2, 140399, Note_on_c, 0, 53, 0
2, 142080, Note_on_c, 0, 55, 80
2, 142080, Note_on_c, 0, 60, 80
2, 142535, Note_on_c, 0, 55, 0
2, 142535, Note_on_c, 0, 60, 0
2, 144000, Note_on_c, 0, 55, 80
2, 144000, Note_on_c, 0, 60, 80
2, 144455, Note_on_c, 0, 55, 0
2, 144455, Note_on_c, 0, 60, 0
2, 144480, Note_on_c, 0, 60, 80
2, 144480, Note_on_c, 0, 64, 80
2, 144480, Note_on_c, 0, 67, 80
2, 145163, Note_on_c, 0, 60, 0
2, 145163, Note_on_c, 0, 64, 0
2, 145163, Note_on_c, 0, 67, 0
2, 145200, Note_on_c, 0, 60, 80
2, 145427, Note_on_c, 0, 60, 0
2, 145440, Note_on_c, 0, 64, 80
2, 145440, Note_on_c, 0, 67, 80
2, 145667, Note_on_c, 0, 64, 0
2, 145667, Note_on_c, 0, 67, 0
2, 145680, Note_on_c, 0, 60, 80
2, 145907, Note_on_c, 0, 60, 0
2, 145920, Note_on_c, 0, 50, 80
2, 145920, Note_on_c, 0, 59, 80
2, 146375, Note_on_c, 0, 50, 0
2, 146375, Note_on_c, 0, 59, 0
2, 146400, Note_on_c, 0, 59, 80
2, 146400, Note_on_c, 0, 62, 80
2, 146400, Note_on_c, 0, 67, 80
2, 147083, Note_on_c, 0, 59, 0
2, 147083, Note_on_c, 0, 62, 0
2, 147083, Note_on_c, 0, 67, 0
2, 147120, Note_on_c, 0, 59, 80
2, 147347, Note_on_c, 0, 59, 0
2, 147360, Note_on_c, 0, 59, 80
2, 147360, Note_on_c, 0, 62, 80
2, 147360, Note_on_c, 0, 67, 80
2, 147587, Note_on_c, 0, 59, 0
2, 147587, Note_on_c, 0, 62, 0
2, 147587, Note_on_c, 0, 67, 0
2, 147600, Note_on_c, 0, 59, 80
2, 147827, Note_on_c, 0, 59, 0
2, 147840, Note_on_c, 0, 50, 80
2, 147840, Note_on_c, 0, 59, 80
2, 148295, Note_on_c, 0, 50, 0
2, 148295, Note_on_c, 0, 59, 0
2, 148320, Note_on_c, 0, 59, 80
2, 148320, Note_on_c, 0, 62, 80
2, 148320, Note_on_c, 0, 67, 80
2, 149003, Note_on_c, 0, 59, 0
2, 149003, Note_on_c, 0, 62, 0
2, 149003, Note_on_c, 0, 67, 0
2, 149040, Note_on_c, 0, 59, 80
2, 149267, Note_on_c, 0, 59, 0
2, 149280, Note_on_c, 0, 62, 80
2, 149280, Note_on_c, 0, 67, 80
2, 149507, Note_on_c, 0, 62, 0
2, 149507, Note_on_c, 0, 67, 0
2, 149520, Note_on_c, 0, 59, 80
2, 149747, Note_on_c, 0, 59, 0
2, 149760, Note_on_c, 0, 52, 80
2, 149760, Note_on_c, 0, 57, 80
2, 150215, Note_on_c, 0, 52, 0
2, 150215, Note_on_c, 0, 57, 0
2, 150240, Note_on_c, 0, 57, 80
2, 150240, Note_on_c, 0, 60, 80
2, 150240, Note_on_c, 0, 64, 80
2, 150923, Note_on_c, 0, 57, 0
2, 150923, Note_on_c, 0, 60, 0
2, 150923, Note_on_c, 0, 64, 0
2, 150960, Note_on_c, 0, 57, 80
2, 151187, Note_on_c, 0, 57, 0
2, 151200, Note_on_c, 0, 60, 80
2, 151200, Note_on_c, 0, 64, 80
2, 151427, Note_on_c, 0, 60, 0
2, 151427, Note_on_c, 0, 64, 0
2, 151440, Note_on_c, 0, 57, 80
2, 151667, Note_on_c, 0, 57, 0
2, 151680, Note_on_c, 0, 52, 80
2, 151680, Note_on_c, 0, 57, 80
2, 152135, Note_on_c, 0, 52, 0
2, 152135, Note_on_c, 0, 57, 0
2, 152160, Note_on_c, 0, 57, 80
2, 152160, Note_on_c, 0, 60, 80
2, 152160, Note_on_c, 0, 64, 80
2, 152843, Note_on_c, 0, 57, 0
2, 152843, Note_on_c, 0, 60, 0
2, 152843, Note_on_c, 0, 64, 0
2, 152880, Note_on_c, 0, 57, 80
2, 153107, Note_on_c, 0, 57, 0
2, 153120, Note_on_c, 0, 60, 80
2, 153120, Note_on_c, 0, 64, 80
2, 153347, Note_on_c, 0, 60, 0
2, 153347, Note_on_c, 0, 64, 0
2, 153360, Note_on_c, 0, 57, 80
2, 153587, Note_on_c, 0, 57, 0
2, 153600, Note_on_c, 0, 48, 80
2, 153600, Note_on_c, 0, 53, 80
2, 154055, Note_on_c, 0, 48, 0
2, 154055, Note_on_c, 0, 53, 0
2, 154080, Note_on_c, 0, 60, 80
2, 154763, Note_on_c, 0, 60, 0
2, 154800, Note_on_c, 0, 57, 80
2, 155027, Note_on_c, 0, 57, 0
2, 155040, Note_on_c, 0, 60, 80
2, 155040, Note_on_c, 0, 65, 80
2, 155267, Note_on_c, 0, 60, 0
2, 155267, Note_on_c, 0, 65, 0
2, 155280, Note_on_c, 0, 57, 80
2, 155507, Note_on_c, 0, 57, 0
2, 155520, Note_on_c, 0, 48, 80
2, 155520, Note_on_c, 0, 53, 80
2, 155975, Note_on_c, 0, 48, 0
2, 155975, Note_on_c, 0, 53, 0
2, 156000, Note_on_c, 0, 60, 80
2, 156000, Note_on_c, 0, 65, 80
2, 156683, Note_on_c, 0, 60, 0
2, 156683, Note_on_c, 0, 65, 0
2, 156720, Note_on_c, 0, 57, 80
2, 156947, Note_on_c, 0, 57, 0
2, 156960, Note_on_c, 0, 60, 80
2, 156960, Note_on_c, 0, 65, 80
2, 157187, Note_on_c, 0, 60, 0
2, 157187, Note_on_c, 0, 65, 0
2, 157200, Note_on_c, 0, 57, 80
2, 157427, Note_on_c, 0, 57, 0
2, 157440, Note_on_c, 0, 55, 80
2, 157440, Note_on_c, 0, 60, 80
2, 157895, Note_on_c, 0, 55, 0
2, 157895, Note_on_c, 0, 60, 0
2, 157920, Note_on_c, 0, 60, 80
2, 157920, Note_on_c, 0, 64, 80
2, 157920, Note_on_c, 0, 67, 80
2, 158603, Note_on_c, 0, 60, 0
2, 158603, Note_on_c, 0, 64, 0
2, 158603, Note_on_c, 0, 67, 0
2, 158640, Note_on_c, 0, 60, 80
2, 158867, Note_on_c, 0, 60, 0
2, 158880, Note_on_c, 0, 64, 80
2, 158880, Note_on_c, 0, 67, 80
2, 159107, Note_on_c, 0, 64, 0
2, 159107, Note_on_c, 0, 67, 0
2, 159120, Note_on_c, 0, 60, 80
2, 159347, Note_on_c, 0, 60, 0
2, 159360, Note_on_c, 0, 55, 80
2, 159360, Note_on_c, 0, 60, 80
2, 159815, Note_on_c, 0, 55, 0
2, 159815, Note_on_c, 0, 60, 0
2, 159840, Note_on_c, 0, 60, 80
2, 159840, Note_on_c, 0, 64, 80
2, 159840, Note_on_c, 0, 67, 80
2, 160523, Note_on_c, 0, 60, 0
2, 160523, Note_on_c, 0, 64, 0
2, 160523, Note_on_c, 0, 67, 0
2, 160560, Note_on_c, 0, 60, 80
2, 160787, Note_on_c, 0, 60, 0
2, 160800, Note_on_c, 0, 64, 80
2, 160800, Note_on_c, 0, 67, 80
2, 161027, Note_on_c, 0, 64, 0
2, 161027, Note_on_c, 0, 67, 0
2, 161040, Note_on_c, 0, 60, 80
2, 161267, Note_on_c, 0, 60, 0
2, 161280, Note_on_c, 0, 50, 80
2, 161280, Note_on_c, 0, 59, 80
2, 161735, Note_on_c, 0, 50, 0
2, 161735, Note_on_c, 0, 59, 0
2, 161760, Note_on_c, 0, 59, 80
2, 161760, Note_on_c, 0, 62, 80
2, 161760, Note_on_c, 0, 67, 80
2, 162443, Note_on_c, 0, 59, 0
2, 162443, Note_on_c, 0, 62, 0
2, 162443, Note_on_c, 0, 67, 0
2, 162480, Note_on_c, 0, 59, 80
2, 162707, Note_on_c, 0, 59, 0
2, 162720, Note_on_c, 0, 62, 80
2, 162720, Note_on_c, 0, 67, 80
2, 162947, Note_on_c, 0, 62, 0
2, 162947, Note_on_c, 0, 67, 0
2, 162960, Note_on_c, 0, 59, 80
2, 163187, Note_on_c, 0, 59, 0
2, 163200, Note_on_c, 0, 50, 80
2, 163200, Note_on_c, 0, 59, 80
2, 163655, Note_on_c, 0, 50, 0
2, 163655, Note_on_c, 0, 59, 0
2, 163680, Note_on_c, 0, 59, 80
2, 163680, Note_on_c, 0, 62, 80
2, 163680, Note_on_c, 0, 67, 80
2, 164363, Note_on_c, 0, 59, 0
2, 164363, Note_on_c, 0, 62, 0
2, 164363, Note_on_c, 0, 67, 0
2, 164400, Note_on_c, 0, 59, 80
2, 164627, Note_on_c, 0, 59, 0
2, 164640, Note_on_c, 0, 62, 80
2, 164640, Note_on_c, 0, 67, 80
2, 164867, Note_on_c, 0, 62, 0
2, 164867, Note_on_c, 0, 67, 0
2, 164880, Note_on_c, 0, 59, 80
2, 165107, Note_on_c, 0, 59, 0
2, 165120, Note_on_c, 0, 52, 80
2, 165120, Note_on_c, 0, 57, 80
2, 165575, Note_on_c, 0, 52, 0
2, 165575, Note_on_c, 0, 57, 0
2, 165600, Note_on_c, 0, 57, 80
2, 165600, Note_on_c, 0, 60, 80
2, 165600, Note_on_c, 0, 64, 80
2, 166283, Note_on_c, 0, 57, 0
2, 166283, Note_on_c, 0, 60, 0
2, 166283, Note_on_c, 0, 64, 0
2, 166320, Note_on_c, 0, 57, 80
2, 166547, Note_on_c, 0, 57, 0
2, 166560, Note_on_c, 0, 60, 80
2, 166560, Note_on_c, 0, 64, 80
2, 166787, Note_on_c, 0, 60, 0
2, 166787, Note_on_c, 0, 64, 0
2, 166800, Note_on_c, 0, 57, 80
2, 167027, Note_on_c, 0, 57, 0
2, 167040, Note_on_c, 0, 52, 80
2, 167040, Note_on_c, 0, 57, 80
2, 167495, Note_on_c, 0, 52, 0
2, 167495, Note_on_c, 0, 57, 0
2, 167520, Note_on_c, 0, 57, 80
2, 167520, Note_on_c, 0, 60, 80
2, 167520, Note_on_c, 0, 64, 80
2, 168203, Note_on_c, 0, 57, 0
2, 168203, Note_on_c, 0, 60, 0
2, 168203, Note_on_c, 0, 64, 0
2, 168240, Note_on_c, 0, 57, 80
2, 168467, Note_on_c, 0, 57, 0
2, 168480, Note_on_c, 0, 60, 80
2, 168480, Note_on_c, 0, 64, 80
2, 168707, Note_on_c, 0, 60, 0
2, 168707, Note_on_c, 0, 64, 0
2, 168720, Note_on_c, 0, 57, 80
2, 168947, Note_on_c, 0, 57, 0
2, 168960, Note_on_c, 0, 48, 80
2, 168960, Note_on_c, 0, 53, 80
2, 169415, Note_on_c, 0, 48, 0
2, 169415, Note_on_c, 0, 53, 0
2, 169440, Note_on_c, 0, 60, 80
2, 170123, Note_on_c, 0, 60, 0
2, 170160, Note_on_c, 0, 57, 80
2, 170387, Note_on_c, 0, 57, 0
2, 170400, Note_on_c, 0, 60, 80
2, 170400, Note_on_c, 0, 65, 80
2, 170627, Note_on_c, 0, 60, 0
2, 170627, Note_on_c, 0, 65, 0
2, 170640, Note_on_c, 0, 57, 80
2, 170867, Note_on_c, 0, 57, 0
2, 170880, Note_on_c, 0, 48, 80
2, 170880, Note_on_c, 0, 53, 80
2, 171335, Note_on_c, 0, 48, 0
2, 171335, Note_on_c, 0, 53, 0
2, 171360, Note_on_c, 0, 60, 80
2, 171360, Note_on_c, 0, 65, 80
2, 172271, Note_on_c, 0, 60, 0
2, 172271, Note_on_c, 0, 65, 0
2, 172320, Note_on_c, 0, 60, 80
2, 172320, Note_on_c, 0, 65, 80
2, 172775, Note_on_c, 0, 60, 0
2, 172775, Note_on_c, 0, 65, 0
2, 172800, Note_on_c, 0, 53, 80
2, 173255, Note_on_c, 0, 53, 0
2, 174720, Note_on_c, 0, 52, 80
2, 174720, Note_on_c, 0, 55, 80
2, 174720, Note_on_c, 0, 60, 80
2, 178367, Note_on_c, 0, 52, 0
2, 178367, Note_on_c, 0, 55, 0
2, 178367, Note_on_c, 0, 60, 0
2, 178560, Note_on_c, 0, 50, 80
2, 178560, Note_on_c, 0, 55, 80
2, 178560, Note_on_c, 0, 59, 80
2, 182207, Note_on_c, 0, 50, 0
2, 182207, Note_on_c, 0, 55, 0
2, 182207, Note_on_c, 0, 59, 0
2, 182400, Note_on_c, 0, 52, 80
2, 182400, Note_on_c, 0, 57, 80
2, 182400, Note_on_c, 0, 60, 80
2, 186047, Note_on_c, 0, 52, 0
2, 186047, Note_on_c, 0, 57, 0
2, 186047, Note_on_c, 0, 60, 0
2, 186240, Note_on_c, 0, 48, 80
2, 186240, Note_on_c, 0, 53, 80
2, 186240, Note_on_c, 0, 57, 80
2, 189887, Note_on_c, 0, 48, 0
2, 189887, Note_on_c, 0, 53, 0
2, 189887, Note_on_c, 0, 57, 0
2, 190080, Note_on_c, 0, 52, 80
2, 190080, Note_on_c, 0, 55, 80
2, 190080, Note_on_c, 0, 60, 80
2, 191903, Note_on_c, 0, 52, 0
2, 191903, Note_on_c, 0, 55, 0
2, 191903, Note_on_c, 0, 60, 0
2, 192000, Note_on_c, 0, 52, 80
2, 192000, Note_on_c, 0, 55, 80
2, 192000, Note_on_c, 0, 60, 80
2, 193823, Note_on_c, 0, 52, 0
2, 193823, Note_on_c, 0, 55, 0
2, 193823, Note_on_c, 0, 60, 0
2, 193920, Note_on_c, 0, 50, 80
2, 193920, Note_on_c, 0, 55, 80
2, 193920, Note_on_c, 0, 59, 80
2, 195743, Note_on_c, 0, 50, 0
2, 195743, Note_on_c, 0, 55, 0
2, 195743, Note_on_c, 0, 59, 0
2, 195840, Note_on_c, 0, 50, 80
2, 195840, Note_on_c, 0, 55, 80
2, 195840, Note_on_c, 0, 59, 80
2, 197663, Note_on_c, 0, 50, 0
2, 197663, Note_on_c, 0, 55, 0
2, 197663, Note_on_c, 0, 59, 0
2, 197760, Note_on_c, 0, 52, 80
2, 197760, Note_on_c, 0, 57, 80
2, 197760, Note_on_c, 0, 60, 80
2, 199583, Note_on_c, 0, 52, 0
2, 199583, Note_on_c, 0, 57, 0
2, 199583, Note_on_c, 0, 60, 0
2, 199680, Note_on_c, 0, 52, 80
2, 199680, Note_on_c, 0, 57, 80
2, 199680, Note_on_c, 0, 60, 80
2, 201503, Note_on_c, 0, 52, 0
2, 201503, Note_on_c, 0, 57, 0
2, 201503, Note_on_c, 0, 60, 0
2, 201600, Note_on_c, 0, 48, 80
2, 201600, Note_on_c, 0, 53, 80
2, 201600, Note_on_c, 0, 57, 80
2, 203423, Note_on_c, 0, 48, 0
2, 203423, Note_on_c, 0, 53, 0
2, 203423, Note_on_c, 0, 57, 0
2, 203520, Note_on_c, 0, 53, 80
2, 203520, Note_on_c, 0, 57, 80
2, 203520, Note_on_c, 0, 60, 80
2, 204431, Note_on_c, 0, 53, 0
2, 204431, Note_on_c, 0, 57, 0
2, 204431, Note_on_c, 0, 60, 0
2, 204480, Note_on_c, 0, 53, 80
2, 204480, Note_on_c, 0, 57, 80
2, 204480, Note_on_c, 0, 60, 80
2, 205391, Note_on_c, 0, 53, 0
2, 205391, Note_on_c, 0, 57, 0
2, 205391, Note_on_c, 0, 60, 0
2, 205440, Note_on_c, 0, 52, 80
2, 205440, Note_on_c, 0, 55, 80
2, 205440, Note_on_c, 0, 60, 80
2, 205895, Note_on_c, 0, 52, 0
2, 205895, Note_on_c, 0, 55, 0
2, 205895, Note_on_c, 0, 60, 0
2, 205920, Note_on_c, 0, 52, 80
2, 205920, Note_on_c, 0, 55, 80
2, 205920, Note_on_c, 0, 60, 80
2, 206375, Note_on_c, 0, 52, 0
2, 206375, Note_on_c, 0, 55, 0
2, 206375, Note_on_c, 0, 60, 0
2, 206400, Note_on_c, 0, 52, 80
2, 206400, Note_on_c, 0, 55, 80
2, 206400, Note_on_c, 0, 60, 80
2, 206855, Note_on_c, 0, 52, 0
2, 206855, Note_on_c, 0, 55, 0
2, 206855, Note_on_c, 0, 60, 0
2, 206880, Note_on_c, 0, 52, 80
2, 206880, Note_on_c, 0, 55, 80
2, 206880, Note_on_c, 0, 60, 80
2, 207335, Note_on_c, 0, 52, 0
2, 207335, Note_on_c, 0, 55, 0
2, 207335, Note_on_c, 0, 60, 0
2, 207360, Note_on_c, 0, 52, 80
2, 207360, Note_on_c, 0, 55, 80
2, 207360, Note_on_c, 0, 60, 80
2, 207815, Note_on_c, 0, 52, 0
2, 207815, Note_on_c, 0, 55, 0
2, 207815, Note_on_c, 0, 60, 0
2, 207840, Note_on_c, 0, 52, 80
2, 207840, Note_on_c, 0, 55, 80
2, 207840, Note_on_c, 0, 60, 80
2, 208295, Note_on_c, 0, 52, 0
2, 208295, Note_on_c, 0, 55, 0
2, 208295, Note_on_c, 0, 60, 0
2, 208320, Note_on_c, 0, 52, 80
2, 208320, Note_on_c, 0, 55, 80
2, 208320, Note_on_c, 0, 60, 80
2, 208775, Note_on_c, 0, 52, 0
2, 208775, Note_on_c, 0, 55, 0
2, 208775, Note_on_c, 0, 60, 0
2, 208800, Note_on_c, 0, 52, 80
2, 208800, Note_on_c, 0, 55, 80
2, 208800, Note_on_c, 0, 60, 80
2, 209255, Note_on_c, 0, 52, 0
2, 209255, Note_on_c, 0, 55, 0
2, 209255, Note_on_c, 0, 60, 0
2, 209280, Note_on_c, 0, 50, 80
2, 209280, Note_on_c, 0, 55, 80
2, 209280, Note_on_c, 0, 59, 80
2, 209735, Note_on_c, 0, 50, 0
2, 209735, Note_on_c, 0, 55, 0
2, 209735, Note_on_c, 0, 59, 0
2, 209760, Note_on_c, 0, 50, 80
2, 209760, Note_on_c, 0, 55, 80
2, 209760, Note_on_c, 0, 59, 80
2, 210215, Note_on_c, 0, 50, 0
2, 210215, Note_on_c, 0, 55, 0
2, 210215, Note_on_c, 0, 59, 0
2, 210240, Note_on_c, 0, 50, 80
2, 210240, Note_on_c, 0, 55, 80
2, 210240, Note_on_c, 0, 59, 80
2, 210695, Note_on_c, 0, 50, 0
2, 210695, Note_on_c, 0, 55, 0
2, 210695, Note_on_c, 0, 59, 0
2, 210720, Note_on_c, 0, 50, 80
2, 210720, Note_on_c, 0, 55, 80
2, 210720, Note_on_c, 0, 59, 80
2, 211175, Note_on_c, 0, 50, 0
2, 211175, Note_on_c, 0, 55, 0
2, 211175, Note_on_c, 0, 59, 0
2, 211200, Note_on_c, 0, 50, 80
2, 211200, Note_on_c, 0, 55, 80
2, 211200, Note_on_c, 0, 59, 80
2, 211655, Note_on_c, 0, 50, 0
2, 211655, Note_on_c, 0, 55, 0
2, 211655, Note_on_c, 0, 59, 0
2, 211680, Note_on_c, 0, 50, 80
2, 211680, Note_on_c, 0, 55, 80
2, 211680, Note_on_c, 0, 59, 80
2, 212135, Note_on_c, 0, 50, 0
2, 212135, Note_on_c, 0, 55, 0
2, 212135, Note_on_c, 0, 59, 0
2, 212160, Note_on_c, 0, 50, 80
2, 212160, Note_on_c, 0, 55, 80
2, 212160, Note_on_c, 0, 59, 80
2, 212615, Note_on_c, 0, 50, 0
2, 212615, Note_on_c, 0, 55, 0
2, 212615, Note_on_c, 0, 59, 0
2, 212640, Note_on_c, 0, 50, 80
2, 212640, Note_on_c, 0, 55, 80
2, 212640, Note_on_c, 0, 59, 80
2, 213095, Note_on_c, 0, 50, 0
2, 213095, Note_on_c, 0, 55, 0
2, 213095, Note_on_c, 0, 59, 0
2, 213120, Note_on_c, 0, 52, 80
2, 213120, Note_on_c, 0, 57, 80
2, 213120, Note_on_c, 0, 60, 80
2, 213575, Note_on_c, 0, 52, 0
2, 213575, Note_on_c, 0, 57, 0
2, 213575, Note_on_c, 0, 60, 0
2, 213600, Note_on_c, 0, 52, 80
2, 213600, Note_on_c, 0, 57, 80
2, 213600, Note_on_c, 0, 60, 80
2, 214055, Note_on_c, 0, 52, 0
2, 214055, Note_on_c, 0, 57, 0
2, 214055, Note_on_c, 0, 60, 0
2, 214080, Note_on_c, 0, 52, 80
2, 214080, Note_on_c, 0, 57, 80
2, 214080, Note_on_c, 0, 60, 80
2, 214535, Note_on_c, 0, 52, 0
2, 214535, Note_on_c, 0, 57, 0
2, 214535, Note_on_c, 0, 60, 0
2, 214560, Note_on_c, 0, 52, 80
2, 214560, Note_on_c, 0, 57, 80
2, 214560, Note_on_c, 0, 60, 80
2, 215015, Note_on_c, 0, 52, 0
2, 215015, Note_on_c, 0, 57, 0
2, 215015, Note_on_c, 0, 60, 0
2, 215040, Note_on_c, 0, 52, 80
2, 215040, Note_on_c, 0, 57, 80
2, 215040, Note_on_c, 0, 60, 80
2, 215495, Note_on_c, 0, 52, 0
2, 215495, Note_on_c, 0, 57, 0
2, 215495, Note_on_c, 0, 60, 0
2, 215520, Note_on_c, 0, 52, 80
2, 215520, Note_on_c, 0, 57, 80
2, 215520, Note_on_c, 0, 60, 80
2, 215975, Note_on_c, 0, 52, 0
2, 215975, Note_on_c, 0, 57, 0
2, 215975, Note_on_c, 0, 60, 0
2, 216000, Note_on_c, 0, 52, 80
2, 216000, Note_on_c, 0, 57, 80
2, 216000, Note_on_c, 0, 60, 80
2, 216455, Note_on_c, 0, 52, 0
2, 216455, Note_on_c, 0, 57, 0
2, 216455, Note_on_c, 0, 60, 0
2, 216480, Note_on_c, 0, 52, 80
2, 216480, Note_on_c, 0, 57, 80
2, 216480, Note_on_c, 0, 60, 80
2, 216935, Note_on_c, 0, 52, 0
2, 216935, Note_on_c, 0, 57, 0
2, 216935, Note_on_c, 0, 60, 0
2, 216960, Note_on_c, 0, 53, 80
2, 216960, Note_on_c, 0, 57, 80
2, 216960, Note_on_c, 0, 60, 80
2, 217199, Note_on_c, 0, 53, 0
2, 217199, Note_on_c, 0, 57, 0
2, 217199, Note_on_c, 0, 60, 0
2, 217440, Note_on_c, 0, 53, 80
2, 217440, Note_on_c, 0, 57, 80
2, 217440, Note_on_c, 0, 60, 80
2, 217679, Note_on_c, 0, 53, 0
2, 217679, Note_on_c, 0, 57, 0
2, 217679, Note_on_c, 0, 60, 0
2, 217920, Note_on_c, 0, 53, 80
2, 217920, Note_on_c, 0, 57, 80
2, 217920, Note_on_c, 0, 60, 80
2, 218159, Note_on_c, 0, 53, 0
2, 218159, Note_on_c, 0, 57, 0
2, 218159, Note_on_c, 0, 60, 0
2, 218400, Note_on_c, 0, 53, 80
2, 218400, Note_on_c, 0, 57, 80
2, 218400, Note_on_c, 0, 60, 80
2, 218639, Note_on_c, 0, 53, 0
2, 218639, Note_on_c, 0, 57, 0
2, 218639, Note_on_c, 0, 60, 0
2, 218880, Note_on_c, 0, 52, 80
2, 218880, Note_on_c, 0, 55, 80
2, 218880, Note_on_c, 0, 60, 80
2, 219335, Note_on_c, 0, 52, 0
2, 219335, Note_on_c, 0, 55, 0
2, 219335, Note_on_c, 0, 60, 0
2, 219360, Note_on_c, 0, 52, 80
2, 219360, Note_on_c, 0, 55, 80
2, 219360, Note_on_c, 0, 60, 80
2, 219815, Note_on_c, 0, 52, 0
2, 219815, Note_on_c, 0, 55, 0
2, 219815, Note_on_c, 0, 60, 0
2, 219840, Note_on_c, 0, 52, 80
2, 219840, Note_on_c, 0, 55, 80
2, 219840, Note_on_c, 0, 60, 80
2, 220295, Note_on_c, 0, 52, 0
2, 220295, Note_on_c, 0, 55, 0
2, 220295, Note_on_c, 0, 60, 0
2, 220320, Note_on_c, 0, 52, 80
2, 220320, Note_on_c, 0, 55, 80
2, 220320, Note_on_c, 0, 60, 80
2, 220775, Note_on_c, 0, 52, 0
2, 220775, Note_on_c, 0, 55, 0
2, 220775, Note_on_c, 0, 60, 0
2, 220800, Note_on_c, 0, 48, 80
2, 221280, Note_on_c, 0, 55, 80
2, 221280, Note_on_c, 0, 60, 80
2, 221507, Note_on_c, 0, 55, 0
2, 221507, Note_on_c, 0, 60, 0
2, 221520, Note_on_c, 0, 55, 80
2, 221520, Note_on_c, 0, 60, 80
2, 221975, Note_on_c, 0, 55, 0
2, 221975, Note_on_c, 0, 60, 0
2, 222240, Note_on_c, 0, 55, 80
2, 222240, Note_on_c, 0, 60, 80
2, 222623, Note_on_c, 0, 48, 0
2, 222695, Note_on_c, 0, 55, 0
2, 222695, Note_on_c, 0, 60, 0
2, 222720, Note_on_c, 0, 48, 80
2, 223200, Note_on_c, 0, 55, 80
2, 223200, Note_on_c, 0, 60, 80
2, 223427, Note_on_c, 0, 55, 0
2, 223427, Note_on_c, 0, 60, 0
2, 223440, Note_on_c, 0, 55, 80
2, 223440, Note_on_c, 0, 60, 80
2, 223895, Note_on_c, 0, 55, 0
2, 223895, Note_on_c, 0, 60, 0
2, 224160, Note_on_c, 0, 55, 80
2, 224160, Note_on_c, 0, 60, 80
2, 224543, Note_on_c, 0, 48, 0
2, 224615, Note_on_c, 0, 55, 0
2, 224615, Note_on_c, 0, 60, 0
2, 224640, Note_on_c, 0, 55, 80
2, 225095, Note_on_c, 0, 55, 0
2, 225120, Note_on_c, 0, 55, 80
2, 225120, Note_on_c, 0, 59, 80
2, 225347, Note_on_c, 0, 55, 0
2, 225347, Note_on_c, 0, 59, 0
2, 225360, Note_on_c, 0, 59, 80
2, 225360, Note_on_c, 0, 55, 80
2, 225815, Note_on_c, 0, 59, 0
2, 226043, Note_on_c, 0, 55, 0
2, 226080, Note_on_c, 0, 55, 80
2, 226080, Note_on_c, 0, 59, 80
2, 226535, Note_on_c, 0, 55, 0
2, 226535, Note_on_c, 0, 59, 0
2, 226560, Note_on_c, 0, 55, 80
2, 227015, Note_on_c, 0, 55, 0
2, 227040, Note_on_c, 0, 55, 80
2, 227040, Note_on_c, 0, 59, 80
2, 227267, Note_on_c, 0, 55, 0
2, 227267, Note_on_c, 0, 59, 0
2, 227280, Note_on_c, 0, 59, 80
2, 227280, Note_on_c, 0, 55, 80
2, 227735, Note_on_c, 0, 59, 0
2, 227963, Note_on_c, 0, 55, 0
2, 228000, Note_on_c, 0, 55, 80
2, 228000, Note_on_c, 0, 59, 80
2, 228455, Note_on_c, 0, 55, 0
2, 228455, Note_on_c, 0, 59, 0
2, 228480, Note_on_c, 0, 57, 80
2, 228935, Note_on_c, 0, 57, 0
2, 228960, Note_on_c, 0, 52, 80
2, 228960, Note_on_c, 0, 57, 80
2, 229187, Note_on_c, 0, 52, 0
2, 229187, Note_on_c, 0, 57, 0
2, 229200, Note_on_c, 0, 57, 80
2, 229200, Note_on_c, 0, 52, 80
2, 229655, Note_on_c, 0, 52, 0
2, 229883, Note_on_c, 0, 57, 0
2, 229920, Note_on_c, 0, 52, 80
2, 229920, Note_on_c, 0, 57, 80
2, 230375, Note_on_c, 0, 52, 0
2, 230375, Note_on_c, 0, 57, 0
2, 230400, Note_on_c, 0, 57, 80
2, 230855, Note_on_c, 0, 57, 0
2, 230880, Note_on_c, 0, 52, 80
2, 230880, Note_on_c, 0, 57, 80
2, 231107, Note_on_c, 0, 52, 0
2, 231107, Note_on_c, 0, 57, 0
2, 231120, Note_on_c, 0, 57, 80
2, 231120, Note_on_c, 0, 52, 80
2, 231575, Note_on_c, 0, 52, 0
2, 231803, Note_on_c, 0, 57, 0
2, 231840, Note_on_c, 0, 52, 80
2, 231840, Note_on_c, 0, 57, 80
2, 232295, Note_on_c, 0, 52, 0
2, 232295, Note_on_c, 0, 57, 0
2, 232320, Note_on_c, 0, 53, 80
2, 232775, Note_on_c, 0, 53, 0
2, 232800, Note_on_c, 0, 53, 80
2, 232800, Note_on_c, 0, 60, 80
2, 233027, Note_on_c, 0, 53, 0
2, 233027, Note_on_c, 0, 60, 0
2, 233040, Note_on_c, 0, 60, 80
2, 233040, Note_on_c, 0, 53, 80
2, 233495, Note_on_c, 0, 60, 0
2, 233723, Note_on_c, 0, 53, 0
2, 233760, Note_on_c, 0, 53, 80
2, 233760, Note_on_c, 0, 60, 80
2, 234215, Note_on_c, 0, 53, 0
2, 234215, Note_on_c, 0, 60, 0
2, 234240, Note_on_c, 0, 53, 80
2, 234695, Note_on_c, 0, 53, 0
2, 234720, Note_on_c, 0, 53, 80
2, 234720, Note_on_c, 0, 60, 80
2, 234947, Note_on_c, 0, 53, 0
2, 234947, Note_on_c, 0, 60, 0
2, 234960, Note_on_c, 0, 60, 80
2, 234960, Note_on_c, 0, 53, 80
2, 235415, Note_on_c, 0, 60, 0
2, 235643, Note_on_c, 0, 53, 0
2, 235680, Note_on_c, 0, 53, 80
2, 235680, Note_on_c, 0, 60, 80
2, 236135, Note_on_c, 0, 53, 0
2, 236135, Note_on_c, 0, 60, 0
2, 236160, Note_on_c, 0, 52, 80
2, 236160, Note_on_c, 0, 55, 80
2, 236160, Note_on_c, 0, 60, 80
2, 236615, Note_on_c, 0, 52, 0
2, 236615, Note_on_c, 0, 55, 0
2, 236615, Note_on_c, 0, 60, 0
2, 236640, Note_on_c, 0, 52, 80
2, 236640, Note_on_c, 0, 55, 80
2, 236640, Note_on_c, 0, 60, 80
2, 237095, Note_on_c, 0, 52, 0
2, 237095, Note_on_c, 0, 55, 0
2, 237095, Note_on_c, 0, 60, 0
2, 237120, Note_on_c, 0, 52, 80
2, 237120, Note_on_c, 0, 55, 80
2, 237120, Note_on_c, 0, 60, 80
2, 237575, Note_on_c, 0, 52, 0
2, 237575, Note_on_c, 0, 55, 0
2, 237575, Note_on_c, 0, 60, 0
2, 237600, Note_on_c, 0, 52, 80
2, 237600, Note_on_c, 0, 55, 80
2, 237600, Note_on_c, 0, 60, 80
2, 238055, Note_on_c, 0, 52, 0
2, 238055, Note_on_c, 0, 55, 0
2, 238055, Note_on_c, 0, 60, 0
2, 238080, Note_on_c, 0, 52, 80
2, 238080, Note_on_c, 0, 55, 80
2, 238080, Note_on_c, 0, 60, 80
2, 238535, Note_on_c, 0, 52, 0
2, 238535, Note_on_c, 0, 55, 0
2, 238535, Note_on_c, 0, 60, 0
2, 238560, Note_on_c, 0, 52, 80
2, 238560, Note_on_c, 0, 55, 80
2, 238560, Note_on_c, 0, 60, 80
2, 239015, Note_on_c, 0, 52, 0
2, 239015, Note_on_c, 0, 55, 0
2, 239015, Note_on_c, 0, 60, 0
2, 239040, Note_on_c, 0, 52, 80
2, 239040, Note_on_c, 0, 55, 80
2, 239040, Note_on_c, 0, 60, 80
2, 239495, Note_on_c, 0, 52, 0
2, 239495, Note_on_c, 0, 55, 0
2, 239495, Note_on_c, 0, 60, 0
2, 239520, Note_on_c, 0, 52, 80
2, 239520, Note_on_c, 0, 55, 80
2, 239520, Note_on_c, 0, 60, 80
2, 239975, Note_on_c, 0, 52, 0
2, 239975, Note_on_c, 0, 55, 0
2, 239975, Note_on_c, 0, 60, 0
2, 240000, Note_on_c, 0, 50, 80
2, 240000, Note_on_c, 0, 55, 80
2, 240000, Note_on_c, 0, 59, 80
2, 240455, Note_on_c, 0, 50, 0
2, 240455, Note_on_c, 0, 55, 0
2, 240455, Note_on_c, 0, 59, 0
2, 240480, Note_on_c, 0, 50, 80
2, 240480, Note_on_c, 0, 55, 80
2, 240480, Note_on_c, 0, 59, 80
2, 240935, Note_on_c, 0, 50, 0
2, 240935, Note_on_c, 0, 55, 0
2, 240935, Note_on_c, 0, 59, 0
2, 240960, Note_on_c, 0, 50, 80
2, 240960, Note_on_c, 0, 55, 80
2, 240960, Note_on_c, 0, 59, 80
2, 241415, Note_on_c, 0, 50, 0
2, 241415, Note_on_c, 0, 55, 0
2, 241415, Note_on_c, 0, 59, 0
2, 241440, Note_on_c, 0, 50, 80
2, 241440, Note_on_c, 0, 55, 80
2, 241440, Note_on_c, 0, 59, 80
2, 241895, Note_on_c, 0, 50, 0
2, 241895, Note_on_c, 0, 55, 0
2, 241895, Note_on_c, 0, 59, 0
2, 241920, Note_on_c, 0, 50, 80
2, 241920, Note_on_c, 0, 55, 80
2, 241920, Note_on_c, 0, 59, 80
2, 242375, Note_on_c, 0, 50, 0
2, 242375, Note_on_c, 0, 55, 0
2, 242375, Note_on_c, 0, 59, 0
2, 242400, Note_on_c, 0, 50, 80
2, 242400, Note_on_c, 0, 55, 80
2, 242400, Note_on_c, 0, 59, 80
2, 242855, Note_on_c, 0, 50, 0
2, 242855, Note_on_c, 0, 55, 0
2, 242855, Note_on_c, 0, 59, 0
2, 242880, Note_on_c, 0, 50, 80
2, 242880, Note_on_c, 0, 55, 80
2, 242880, Note_on_c, 0, 59, 80
2, 243335, Note_on_c, 0, 50, 0
2, 243335, Note_on_c, 0, 55, 0
2, 243335, Note_on_c, 0, 59, 0
2, 243360, Note_on_c, 0, 50, 80
2, 243360, Note_on_c, 0, 55, 80
2, 243360, Note_on_c, 0, 59, 80
2, 243815, Note_on_c, 0, 50, 0
2, 243815, Note_on_c, 0, 55, 0
2, 243815, Note_on_c, 0, 59, 0
2, 243840, Note_on_c, 0, 52, 80
2, 243840, Note_on_c, 0, 57, 80
2, 243840, Note_on_c, 0, 60, 80
2, 244295, Note_on_c, 0, 52, 0
2, 244295, Note_on_c, 0, 57, 0
2, 244295, Note_on_c, 0, 60, 0
2, 244320, Note_on_c, 0, 52, 80
2, 244320, Note_on_c, 0, 57, 80
2, 244320, Note_on_c, 0, 60, 80
2, 244775, Note_on_c, 0, 52, 0
2, 244775, Note_on_c, 0, 57, 0
2, 244775, Note_on_c, 0, 60, 0
2, 244800, Note_on_c, 0, 52, 80
2, 244800, Note_on_c, 0, 57, 80
2, 244800, Note_on_c, 0, 60, 80
2, 245255, Note_on_c, 0, 52, 0
2, 245255, Note_on_c, 0, 57, 0
2, 245255, Note_on_c, 0, 60, 0
2, 245280, Note_on_c, 0, 52, 80
2, 245280, Note_on_c, 0, 57, 80
2, 245280, Note_on_c, 0, 60, 80
2, 245735, Note_on_c, 0, 52, 0
2, 245735, Note_on_c, 0, 57, 0
2, 245735, Note_on_c, 0, 60, 0
2, 245760, Note_on_c, 0, 52, 80
2, 245760, Note_on_c, 0, 57, 80
2, 245760, Note_on_c, 0, 60, 80
2, 246215, Note_on_c, 0, 52, 0
2, 246215, Note_on_c, 0, 57, 0
2, 246215, Note_on_c, 0, 60, 0
2, 246240, Note_on_c, 0, 52, 80
2, 246240, Note_on_c, 0, 57, 80
2, 246240, Note_on_c, 0, 60, 80
2, 246695, Note_on_c, 0, 52, 0
2, 246695, Note_on_c, 0, 57, 0
2, 246695, Note_on_c, 0, 60, 0
2, 246720, Note_on_c, 0, 52, 80
2, 246720, Note_on_c, 0, 57, 80
2, 246720, Note_on_c, 0, 60, 80
2, 247175, Note_on_c, 0, 52, 0
2, 247175, Note_on_c, 0, 57, 0
2, 247175, Note_on_c, 0, 60, 0
2, 247200, Note_on_c, 0, 52, 80
2, 247200, Note_on_c, 0, 57, 80
2, 247200, Note_on_c, 0, 60, 80
2, 247655, Note_on_c, 0, 52, 0
2, 247655, Note_on_c, 0, 57, 0
2, 247655, Note_on_c, 0, 60, 0
2, 247680, Note_on_c, 0, 48, 80
2, 247680, Note_on_c, 0, 53, 80
2, 247680, Note_on_c, 0, 57, 80
2, 248591, Note_on_c, 0, 48, 0
2, 248591, Note_on_c, 0, 53, 0
2, 248591, Note_on_c, 0, 57, 0
2, 248640, Note_on_c, 0, 48, 80
2, 248640, Note_on_c, 0, 53, 80
2, 248640, Note_on_c, 0, 57, 80
2, 249551, Note_on_c, 0, 48, 0
2, 249551, Note_on_c, 0, 53, 0
2, 249551, Note_on_c, 0, 57, 0
2, 249600, Note_on_c, 0, 53, 80
2, 249600, Note_on_c, 0, 57, 80
2, 249600, Note_on_c, 0, 60, 80
2, 251423, Note_on_c, 0, 53, 0
2, 251423, Note_on_c, 0, 57, 0
2, 251423, Note_on_c, 0, 60, 0
2, 251520, Note_on_c, 0, 52, 80
2, 251747, Note_on_c, 0, 52, 0
2, 251760, Note_on_c, 0, 55, 80
2, 251987, Note_on_c, 0, 55, 0
2, 252000, Note_on_c, 0, 60, 80
2, 252227, Note_on_c, 0, 60, 0
2, 252240, Note_on_c, 0, 64, 80
2, 252467, Note_on_c, 0, 64, 0
2, 252480, Note_on_c, 0, 52, 80
2, 252707, Note_on_c, 0, 52, 0
2, 252720, Note_on_c, 0, 55, 80
2, 252947, Note_on_c, 0, 55, 0
2, 252960, Note_on_c, 0, 60, 80
2, 253187, Note_on_c, 0, 60, 0
2, 253200, Note_on_c, 0, 64, 80
2, 253427, Note_on_c, 0, 64, 0
2, 253440, Note_on_c, 0, 52, 80
2, 253667, Note_on_c, 0, 52, 0
2, 253680, Note_on_c, 0, 55, 80
2, 253907, Note_on_c, 0, 55, 0
2, 253920, Note_on_c, 0, 60, 80
2, 254147, Note_on_c, 0, 60, 0
2, 254160, Note_on_c, 0, 64, 80
2, 254387, Note_on_c, 0, 64, 0
2, 254400, Note_on_c, 0, 52, 80
2, 254627, Note_on_c, 0, 52, 0
2, 254640, Note_on_c, 0, 55, 80
2, 254867, Note_on_c, 0, 55, 0
2, 254880, Note_on_c, 0, 60, 80
2, 255107, Note_on_c, 0, 60, 0
2, 255120, Note_on_c, 0, 64, 80
2, 255347, Note_on_c, 0, 64, 0
2, 255360, Note_on_c, 0, 50, 80
2, 255587, Note_on_c, 0, 50, 0
2, 255600, Note_on_c, 0, 55, 80
2, 255827, Note_on_c, 0, 55, 0
2, 255840, Note_on_c, 0, 59, 80
2, 256067, Note_on_c, 0, 59, 0
2, 256080, Note_on_c, 0, 62, 80
2, 256307, Note_on_c, 0, 62, 0
2, 256320, Note_on_c, 0, 50, 80
2, 256547, Note_on_c, 0, 50, 0
2, 256560, Note_on_c, 0, 55, 80
2, 256787, Note_on_c, 0, 55, 0
2, 256800, Note_on_c, 0, 59, 80
2, 257027, Note_on_c, 0, 59, 0
2, 257040, Note_on_c, 0, 62, 80
2, 257267, Note_on_c, 0, 62, 0
2, 257280, Note_on_c, 0, 50, 80
2, 257507, Note_on_c, 0, 50, 0
2, 257520, Note_on_c, 0, 55, 80
2, 257747, Note_on_c, 0, 55, 0
2, 257760, Note_on_c, 0, 59, 80
2, 257987, Note_on_c, 0, 59, 0
2, 258000, Note_on_c, 0, 62, 80
2, 258227, Note_on_c, 0, 62, 0
2, 258240, Note_on_c, 0, 50, 80
2, 258467, Note_on_c, 0, 50, 0
2, 258480, Note_on_c, 0, 55, 80
2, 258707, Note_on_c, 0, 55, 0
2, 258720, Note_on_c, 0, 59, 80
2, 258947, Note_on_c, 0, 59, 0
2, 258960, Note_on_c, 0, 62, 80
2, 259187, Note_on_c, 0, 62, 0
2, 259200, Note_on_c, 0, 52, 80
2, 259427, Note_on_c, 0, 52, 0
2, 259440, Note_on_c, 0, 57, 80
2, 259667, Note_on_c, 0, 57, 0
2, 259680, Note_on_c, 0, 60, 80
2, 259907, Note_on_c, 0, 60, 0
2, 259920, Note_on_c, 0, 64, 80
2, 260147, Note_on_c, 0, 64, 0
2, 260160, Note_on_c, 0, 52, 80
2, 260387, Note_on_c, 0, 52, 0
2, 260400, Note_on_c, 0, 57, 80
2, 260627, Note_on_c, 0, 57, 0
2, 260640, Note_on_c, 0, 60, 80
2, 260867, Note_on_c, 0, 60, 0
2, 260880, Note_on_c, 0, 64, 80
2, 261107, Note_on_c, 0, 64, 0
2, 261120, Note_on_c, 0, 52, 80
2, 261347, Note_on_c, 0, 52, 0
2, 261360, Note_on_c, 0, 57, 80
2, 261587, Note_on_c, 0, 57, 0
2, 261600, Note_on_c, 0, 60, 80
2, 261827, Note_on_c, 0, 60, 0
2, 261840, Note_on_c, 0, 64, 80
2, 262067, Note_on_c, 0, 64, 0
2, 262080, Note_on_c, 0, 52, 80
2, 262307, Note_on_c, 0, 52, 0
2, 262320, Note_on_c, 0, 57, 80
2, 262547, Note_on_c, 0, 57, 0
2, 262560, Note_on_c, 0, 60, 80
2, 262787, Note_on_c, 0, 60, 0
2, 262800, Note_on_c, 0, 64, 80
2, 263027, Note_on_c, 0, 64, 0
2, 263040, Note_on_c, 0, 48, 80
2, 263267, Note_on_c, 0, 48, 0
2, 263280, Note_on_c, 0, 53, 80
2, 263507, Note_on_c, 0, 53, 0
2, 263520, Note_on_c, 0, 57, 80
2, 263747, Note_on_c, 0, 57, 0
2, 263760, Note_on_c, 0, 60, 80
2, 263987, Note_on_c, 0, 60, 0
2, 264000, Note_on_c, 0, 65, 80
2, 264227, Note_on_c, 0, 65, 0
2, 264240, Note_on_c, 0, 60, 80
2, 264467, Note_on_c, 0, 60, 0
2, 264480, Note_on_c, 0, 57, 80
2, 264707, Note_on_c, 0, 57, 0
2, 264720, Note_on_c, 0, 53, 80
2, 264947, Note_on_c, 0, 53, 0
2, 264960, Note_on_c, 0, 48, 80
2, 265187, Note_on_c, 0, 48, 0
2, 265200, Note_on_c, 0, 53, 80
2, 265427, Note_on_c, 0, 53, 0
2, 265440, Note_on_c, 0, 57, 80
2, 265667, Note_on_c, 0, 57, 0
2, 265680, Note_on_c, 0, 60, 80
2, 265907, Note_on_c, 0, 60, 0
2, 265920, Note_on_c, 0, 60, 80
2, 266147, Note_on_c, 0, 60, 0
2, 266160, Note_on_c, 0, 57, 80
2, 266387, Note_on_c, 0, 57, 0
2, 266400, Note_on_c, 0, 53, 80
2, 266627, Note_on_c, 0, 53, 0
2, 266640, Note_on_c, 0, 48, 80
2, 266867, Note_on_c, 0, 48, 0
2, 266880, Note_on_c, 0, 48, 80
2, 267360, Note_on_c, 0, 55, 80
2, 267360, Note_on_c, 0, 60, 80
2, 267587, Note_on_c, 0, 55, 0
2, 267587, Note_on_c, 0, 60, 0
2, 267600, Note_on_c, 0, 55, 80
2, 267600, Note_on_c, 0, 60, 80
2, 268055, Note_on_c, 0, 55, 0
2, 268055, Note_on_c, 0, 60, 0
2, 268320, Note_on_c, 0, 55, 80
2, 268320, Note_on_c, 0, 60, 80
2, 268703, Note_on_c, 0, 48, 0
2, 268775, Note_on_c, 0, 55, 0
2, 268775, Note_on_c, 0, 60, 0
2, 268800, Note_on_c, 0, 48, 80
2, 269280, Note_on_c, 0, 55, 80
2, 269280, Note_on_c, 0, 60, 80
2, 269507, Note_on_c, 0, 55, 0
2, 269507, Note_on_c, 0, 60, 0
2, 269520, Note_on_c, 0, 55, 80
2, 269520, Note_on_c, 0, 60, 80
2, 269975, Note_on_c, 0, 55, 0
2, 269975, Note_on_c, 0, 60, 0
2, 270240, Note_on_c, 0, 55, 80
2, 270240, Note_on_c, 0, 60, 80
2, 270623, Note_on_c, 0, 48, 0
2, 270695, Note_on_c, 0, 55, 0
2, 270695, Note_on_c, 0, 60, 0
2, 270720, Note_on_c, 0, 55, 80
2, 271175, Note_on_c, 0, 55, 0
2, 271200, Note_on_c, 0, 55, 80
2, 271200, Note_on_c, 0, 59, 80
2, 271427, Note_on_c, 0, 55, 0
2, 271427, Note_on_c, 0, 59, 0
2, 271440, Note_on_c, 0, 59, 80
2, 271440, Note_on_c, 0, 55, 80
2, 271895, Note_on_c, 0, 59, 0
2, 272123, Note_on_c, 0, 55, 0
2, 272160, Note_on_c, 0, 55, 80
2, 272160, Note_on_c, 0, 59, 80
2, 272615, Note_on_c, 0, 55, 0
2, 272615, Note_on_c, 0, 59, 0
2, 272640, Note_on_c, 0, 55, 80
2, 273095, Note_on_c, 0, 55, 0
2, 273120, Note_on_c, 0, 55, 80
2, 273120, Note_on_c, 0, 59, 80
2, 273347, Note_on_c, 0, 55, 0
2, 273347, Note_on_c, 0, 59, 0
2, 273360, Note_on_c, 0, 59, 80
2, 273360, Note_on_c, 0, 55, 80
2, 273815, Note_on_c, 0, 59, 0
2, 274043, Note_on_c, 0, 55, 0
2, 274080, Note_on_c, 0, 55, 80
2, 274080, Note_on_c, 0, 59, 80
2, 274535, Note_on_c, 0, 55, 0
2, 274535, Note_on_c, 0, 59, 0
2, 274560, Note_on_c, 0, 52, 80
2, 275040, Note_on_c, 0, 57, 80
2, 275040, Note_on_c, 0, 60, 80
2, 275267, Note_on_c, 0, 57, 0
2, 275267, Note_on_c, 0, 60, 0
2, 275280, Note_on_c, 0, 57, 80
2, 275280, Note_on_c, 0, 60, 80
2, 275735, Note_on_c, 0, 57, 0
2, 275735, Note_on_c, 0, 60, 0
2, 276000, Note_on_c, 0, 57, 80
2, 276000, Note_on_c, 0, 60, 80
2, 276383, Note_on_c, 0, 52, 0
2, 276455, Note_on_c, 0, 57, 0
2, 276455, Note_on_c, 0, 60, 0
2, 276480, Note_on_c, 0, 52, 80
2, 276960, Note_on_c, 0, 57, 80
2, 276960, Note_on_c, 0, 60, 80
2, 277187, Note_on_c, 0, 57, 0
2, 277187, Note_on_c, 0, 60, 0
2, 277200, Note_on_c, 0, 57, 80
2, 277200, Note_on_c, 0, 60, 80
2, 277655, Note_on_c, 0, 57, 0
2, 277655, Note_on_c, 0, 60, 0
2, 277920, Note_on_c, 0, 57, 80
2, 277920, Note_on_c, 0, 60, 80
2, 278303, Note_on_c, 0, 52, 0
2, 278375, Note_on_c, 0, 57, 0
2, 278375, Note_on_c, 0, 60, 0
2, 278400, Note_on_c, 0, 53, 80
2, 278855, Note_on_c, 0, 53, 0
2, 278880, Note_on_c, 0, 53, 80
2, 278880, Note_on_c, 0, 60, 80
2, 279107, Note_on_c, 0, 53, 0
2, 279107, Note_on_c, 0, 60, 0
2, 279120, Note_on_c, 0, 60, 80
2, 279120, Note_on_c, 0, 53, 80
2, 279575, Note_on_c, 0, 60, 0
2, 279803, Note_on_c, 0, 53, 0
2, 279840, Note_on_c, 0, 53, 80
2, 279840, Note_on_c, 0, 60, 80
2, 280295, Note_on_c, 0, 53, 0
2, 280295, Note_on_c, 0, 60, 0
2, 280320, Note_on_c, 0, 53, 80
2, 280775, Note_on_c, 0, 53, 0
2, 280800, Note_on_c, 0, 53, 80
2, 280800, Note_on_c, 0, 60, 80
2, 281027, Note_on_c, 0, 53, 0
2, 281027, Note_on_c, 0, 60, 0
2, 281040, Note_on_c, 0, 60, 80
2, 281040, Note_on_c, 0, 53, 80
2, 281495, Note_on_c, 0, 60, 0
2, 281723, Note_on_c, 0, 53, 0
2, 281760, Note_on_c, 0, 53, 80
2, 281760, Note_on_c, 0, 60, 80
2, 282215, Note_on_c, 0, 53, 0
2, 282215, Note_on_c, 0, 60, 0
2, 282240, Note_on_c, 0, 48, 80
2, 282240, Note_on_c, 0, 55, 80
2, 282240, Note_on_c, 0, 60, 80
2, 284063, Note_on_c, 0, 48, 0
2, 284063, Note_on_c, 0, 55, 0
2, 284063, Note_on_c, 0, 60, 0
2, 284064, End_track
3, 0, Start_track
3, 0, Title_t, "Electric Bass, Bass\000"
3, 0, Key_signature, 0, "major"
3, 0, Control_c, 1, 121, 0
3, 0, Program_c, 1, 33
3, 0, Control_c, 1, 7, 100
3, 0, Control_c, 1, 10, 64
3, 0, Control_c, 1, 91, 0
3, 0, Control_c, 1, 93, 0
3, 0, MIDI_port, 0
3, 0, Control_c, 3, 121, 0
3, 0, Program_c, 3, 36
3, 0, Control_c, 3, 7, 100
3, 0, Control_c, 3, 10, 64
3, 0, Control_c, 3, 91, 0
3, 0, Control_c, 3, 93, 0
3, 0, MIDI_port, 0
3, 0, Control_c, 4, 121, 0
3, 0, Program_c, 4, 37
3, 0, Control_c, 4, 7, 100
3, 0, Control_c, 4, 10, 64
3, 0, Control_c, 4, 91, 0
3, 0, Control_c, 4, 93, 0
3, 0, MIDI_port, 0
3, 17280, Note_on_c, 1, 60, 80
3, 19199, Note_on_c, 1, 60, 0
3, 19200, Note_on_c, 1, 60, 80
3, 21119, Note_on_c, 1, 60, 0
3, 21120, Note_on_c, 1, 55, 80
3, 23039, Note_on_c, 1, 55, 0
3, 23040, Note_on_c, 1, 55, 80
3, 24959, Note_on_c, 1, 55, 0
3, 24960, Note_on_c, 1, 57, 80
3, 26879, Note_on_c, 1, 57, 0
3, 26880, Note_on_c, 1, 57, 80
3, 28799, Note_on_c, 1, 57, 0
3, 28800, Note_on_c, 1, 53, 80
3, 30719, Note_on_c, 1, 53, 0
3, 30720, Note_on_c, 1, 53, 80
3, 32639, Note_on_c, 1, 53, 0
3, 32640, Note_on_c, 1, 60, 80
3, 34559, Note_on_c, 1, 60, 0
3, 34560, Note_on_c, 1, 60, 80
3, 36479, Note_on_c, 1, 60, 0
3, 36480, Note_on_c, 1, 55, 80
3, 38399, Note_on_c, 1, 55, 0
3, 38400, Note_on_c, 1, 55, 80
3, 40319, Note_on_c, 1, 55, 0
3, 40320, Note_on_c, 1, 57, 80
3, 42239, Note_on_c, 1, 57, 0
3, 42240, Note_on_c, 1, 57, 80
3, 44159, Note_on_c, 1, 57, 0
3, 44160, Note_on_c, 1, 53, 80
3, 46079, Note_on_c, 1, 53, 0
3, 46080, Note_on_c, 1, 53, 80
3, 47999, Note_on_c, 1, 53, 0
3, 63360, Note_on_c, 1, 60, 80
3, 65279, Note_on_c, 1, 60, 0
3, 65280, Note_on_c, 1, 60, 80
3, 67199, Note_on_c, 1, 60, 0
3, 67200, Note_on_c, 1, 55, 80
3, 69119, Note_on_c, 1, 55, 0
3, 69120, Note_on_c, 1, 55, 80
3, 71039, Note_on_c, 1, 55, 0
3, 71040, Note_on_c, 1, 57, 80
3, 72959, Note_on_c, 1, 57, 0
3, 72960, Note_on_c, 1, 57, 80
3, 74879, Note_on_c, 1, 57, 0
3, 74880, Note_on_c, 1, 53, 80
3, 76799, Note_on_c, 1, 53, 0
3, 76800, Note_on_c, 1, 53, 80
3, 78719, Note_on_c, 1, 53, 0
3, 78720, Note_on_c, 1, 60, 80
3, 80639, Note_on_c, 1, 60, 0
3, 80640, Note_on_c, 1, 60, 80
3, 82559, Note_on_c, 1, 60, 0
3, 82560, Note_on_c, 1, 55, 80
3, 84479, Note_on_c, 1, 55, 0
3, 84480, Note_on_c, 1, 55, 80
3, 86399, Note_on_c, 1, 55, 0
3, 86400, Note_on_c, 1, 57, 80
3, 88319, Note_on_c, 1, 57, 0
3, 88320, Note_on_c, 1, 57, 80
3, 90239, Note_on_c, 1, 57, 0
3, 90240, Note_on_c, 1, 53, 80
3, 92159, Note_on_c, 1, 53, 0
3, 92160, Note_on_c, 1, 53, 80
3, 94079, Note_on_c, 1, 53, 0
3, 94080, Note_on_c, 1, 60, 80
3, 95999, Note_on_c, 1, 60, 0
3, 96000, Note_on_c, 1, 60, 80
3, 97919, Note_on_c, 1, 60, 0
3, 97920, Note_on_c, 1, 55, 80
3, 99839, Note_on_c, 1, 55, 0
3, 99840, Note_on_c, 1, 55, 80
3, 101759, Note_on_c, 1, 55, 0
3, 101760, Note_on_c, 1, 57, 80
3, 103679, Note_on_c, 1, 57, 0
3, 103680, Note_on_c, 1, 57, 80
3, 105599, Note_on_c, 1, 57, 0
3, 105600, Note_on_c, 1, 53, 80
3, 107519, Note_on_c, 1, 53, 0
3, 107520, Note_on_c, 1, 53, 80
3, 109439, Note_on_c, 1, 53, 0
3, 128640, Note_on_c, 1, 60, 80
3, 130559, Note_on_c, 1, 60, 0
3, 132480, Note_on_c, 1, 55, 80
3, 134399, Note_on_c, 1, 55, 0
3, 136320, Note_on_c, 1, 57, 80
3, 138239, Note_on_c, 1, 57, 0
3, 140160, Note_on_c, 1, 53, 80
3, 142079, Note_on_c, 1, 53, 0
3, 142080, Note_on_c, 1, 60, 80
3, 143999, Note_on_c, 1, 60, 0
3, 144000, Note_on_c, 1, 60, 80
3, 145919, Note_on_c, 1, 60, 0
3, 145920, Note_on_c, 1, 55, 80
3, 147839, Note_on_c, 1, 55, 0
3, 147840, Note_on_c, 1, 55, 80
3, 149759, Note_on_c, 1, 55, 0
3, 149760, Note_on_c, 1, 57, 80
3, 151679, Note_on_c, 1, 57, 0
3, 151680, Note_on_c, 1, 57, 80
3, 153599, Note_on_c, 1, 57, 0
3, 153600, Note_on_c, 1, 53, 80
3, 155519, Note_on_c, 1, 53, 0
3, 155520, Note_on_c, 1, 53, 80
3, 157439, Note_on_c, 1, 53, 0
3, 157440, Note_on_c, 1, 60, 80
3, 159359, Note_on_c, 1, 60, 0
3, 159360, Note_on_c, 1, 60, 80
3, 161279, Note_on_c, 1, 60, 0
3, 161280, Note_on_c, 1, 55, 80
3, 163199, Note_on_c, 1, 55, 0
3, 163200, Note_on_c, 1, 55, 80
3, 165119, Note_on_c, 1, 55, 0
3, 165120, Note_on_c, 1, 57, 80
3, 167039, Note_on_c, 1, 57, 0
3, 167040, Note_on_c, 1, 57, 80
3, 168959, Note_on_c, 1, 57, 0
3, 168960, Note_on_c, 1, 53, 80
3, 170879, Note_on_c, 1, 53, 0
3, 170880, Note_on_c, 1, 53, 80
3, 172799, Note_on_c, 1, 53, 0
3, 205440, Note_on_c, 1, 60, 80
3, 207359, Note_on_c, 1, 60, 0
3, 209280, Note_on_c, 1, 55, 80
3, 211199, Note_on_c, 1, 55, 0
3, 213120, Note_on_c, 1, 57, 80
3, 215039, Note_on_c, 1, 57, 0
3, 216960, Note_on_c, 1, 53, 80
3, 218879, Note_on_c, 1, 53, 0
3, 218880, Note_on_c, 1, 60, 80
3, 220799, Note_on_c, 1, 60, 0
3, 220800, Note_on_c, 1, 60, 80
3, 222719, Note_on_c, 1, 60, 0
3, 222720, Note_on_c, 1, 60, 80
3, 224639, Note_on_c, 1, 60, 0
3, 224640, Note_on_c, 1, 55, 80
3, 226559, Note_on_c, 1, 55, 0
3, 226560, Note_on_c, 1, 55, 80
3, 228479, Note_on_c, 1, 55, 0
3, 228480, Note_on_c, 1, 57, 80
3, 230399, Note_on_c, 1, 57, 0
3, 230400, Note_on_c, 1, 57, 80
3, 232319, Note_on_c, 1, 57, 0
3, 232320, Note_on_c, 1, 53, 80
3, 234239, Note_on_c, 1, 53, 0
3, 234240, Note_on_c, 1, 53, 80
3, 235199, Note_on_c, 1, 53, 0
3, 235200, Note_on_c, 1, 53, 80
3, 236159, Note_on_c, 1, 53, 0
3, 236160, Note_on_c, 1, 60, 80
3, 237119, Note_on_c, 1, 60, 0
3, 237120, Note_on_c, 1, 60, 80
3, 238079, Note_on_c, 1, 60, 0
3, 238080, Note_on_c, 1, 60, 80
3, 239039, Note_on_c, 1, 60, 0
3, 239040, Note_on_c, 1, 60, 80
3, 239999, Note_on_c, 1, 60, 0
3, 240000, Note_on_c, 1, 55, 80
3, 240959, Note_on_c, 1, 55, 0
3, 240960, Note_on_c, 1, 55, 80
3, 241919, Note_on_c, 1, 55, 0
3, 241920, Note_on_c, 1, 55, 80
3, 242879, Note_on_c, 1, 55, 0
3, 242880, Note_on_c, 1, 55, 80
3, 243839, Note_on_c, 1, 55, 0
3, 243840, Note_on_c, 1, 57, 80
3, 244799, Note_on_c, 1, 57, 0
3, 244800, Note_on_c, 1, 57, 80
3, 245759, Note_on_c, 1, 57, 0
3, 245760, Note_on_c, 1, 57, 80
3, 246719, Note_on_c, 1, 57, 0
3, 246720, Note_on_c, 1, 57, 80
3, 247679, Note_on_c, 1, 57, 0
3, 247680, Note_on_c, 1, 53, 80
3, 249599, Note_on_c, 1, 53, 0
3, 249600, Note_on_c, 1, 53, 80
3, 251519, Note_on_c, 1, 53, 0
3, 251520, Note_on_c, 1, 60, 80
3, 252479, Note_on_c, 1, 60, 0
3, 252480, Note_on_c, 1, 60, 80
3, 253439, Note_on_c, 1, 60, 0
3, 253440, Note_on_c, 1, 60, 80
3, 254399, Note_on_c, 1, 60, 0
3, 254400, Note_on_c, 1, 60, 80
3, 255359, Note_on_c, 1, 60, 0
3, 255360, Note_on_c, 1, 55, 80
3, 256319, Note_on_c, 1, 55, 0
3, 256320, Note_on_c, 1, 55, 80
3, 257279, Note_on_c, 1, 55, 0
3, 257280, Note_on_c, 1, 55, 80
3, 258239, Note_on_c, 1, 55, 0
3, 258240, Note_on_c, 1, 55, 80
3, 259199, Note_on_c, 1, 55, 0
3, 259200, Note_on_c, 1, 57, 80
3, 260159, Note_on_c, 1, 57, 0
3, 260160, Note_on_c, 1, 57, 80
3, 261119, Note_on_c, 1, 57, 0
3, 261120, Note_on_c, 1, 57, 80
3, 262079, Note_on_c, 1, 57, 0
3, 262080, Note_on_c, 1, 57, 80
3, 263039, Note_on_c, 1, 57, 0
3, 263040, Note_on_c, 1, 53, 80
3, 263999, Note_on_c, 1, 53, 0
3, 264000, Note_on_c, 1, 53, 80
3, 264959, Note_on_c, 1, 53, 0
3, 264960, Note_on_c, 1, 53, 80
3, 266879, Note_on_c, 1, 53, 0
3, 266880, End_track
4, 0, Start_track
4, 0, Title_t, "Bell\000"
4, 0, Key_signature, 0, "major"
4, 0, Control_c, 6, 121, 0
4, 0, Program_c, 6, 14
4, 0, Control_c, 6, 7, 100
4, 0, Control_c, 6, 10, 64
4, 0, Control_c, 6, 91, 0
4, 0, Control_c, 6, 93, 0
4, 0, MIDI_port, 0
4, 1, End_track
5, 0, Start_track
5, 0, Title_t, "Classical Guitar, Lute\000"
5, 0, Key_signature, 0, "major"
5, 0, Control_c, 2, 121, 0
5, 0, Program_c, 2, 24
5, 0, Control_c, 2, 7, 100
5, 0, Control_c, 2, 10, 64
5, 0, Control_c, 2, 91, 0
5, 0, Control_c, 2, 93, 0
5, 0, MIDI_port, 0
5, 0, Control_c, 5, 121, 0
5, 0, Program_c, 5, 28
5, 0, Control_c, 5, 7, 100
5, 0, Control_c, 5, 10, 64
5, 0, Control_c, 5, 91, 0
5, 0, Control_c, 5, 93, 0
5, 0, MIDI_port, 0
5, 1920, Note_on_c, 2, 48, 80
5, 2400, Note_on_c, 2, 60, 80
5, 2400, Note_on_c, 2, 67, 80
5, 2639, Note_on_c, 2, 60, 0
5, 2639, Note_on_c, 2, 67, 0
5, 2640, Note_on_c, 2, 60, 80
5, 2640, Note_on_c, 2, 67, 80
5, 3119, Note_on_c, 2, 60, 0
5, 3119, Note_on_c, 2, 67, 0
5, 3360, Note_on_c, 2, 60, 80
5, 3360, Note_on_c, 2, 67, 80
5, 3839, Note_on_c, 2, 48, 0
5, 3839, Note_on_c, 2, 60, 0
5, 3839, Note_on_c, 2, 67, 0
5, 3840, Note_on_c, 2, 48, 80
5, 4320, Note_on_c, 2, 60, 80
5, 4320, Note_on_c, 2, 67, 80
5, 4559, Note_on_c, 2, 60, 0
5, 4559, Note_on_c, 2, 67, 0
5, 4560, Note_on_c, 2, 60, 80
5, 4560, Note_on_c, 2, 67, 80
5, 5039, Note_on_c, 2, 60, 0
5, 5039, Note_on_c, 2, 67, 0
5, 5280, Note_on_c, 2, 60, 80
5, 5280, Note_on_c, 2, 67, 80
5, 5759, Note_on_c, 2, 48, 0
5, 5759, Note_on_c, 2, 60, 0
5, 5759, Note_on_c, 2, 67, 0
5, 5760, Note_on_c, 2, 55, 80
5, 6240, Note_on_c, 2, 62, 80
5, 6240, Note_on_c, 2, 67, 80
5, 6479, Note_on_c, 2, 62, 0
5, 6479, Note_on_c, 2, 67, 0
5, 6480, Note_on_c, 2, 62, 80
5, 6480, Note_on_c, 2, 67, 80
5, 6959, Note_on_c, 2, 62, 0
5, 6959, Note_on_c, 2, 67, 0
5, 7200, Note_on_c, 2, 62, 80
5, 7200, Note_on_c, 2, 67, 80
5, 7679, Note_on_c, 2, 55, 0
5, 7679, Note_on_c, 2, 62, 0
5, 7679, Note_on_c, 2, 67, 0
5, 7680, Note_on_c, 2, 55, 80
5, 8160, Note_on_c, 2, 62, 80
5, 8160, Note_on_c, 2, 67, 80
5, 8399, Note_on_c, 2, 62, 0
5, 8399, Note_on_c, 2, 67, 0
5, 8400, Note_on_c, 2, 62, 80
5, 8400, Note_on_c, 2, 67, 80
5, 8879, Note_on_c, 2, 62, 0
5, 8879, Note_on_c, 2, 67, 0
5, 9120, Note_on_c, 2, 62, 80
5, 9120, Note_on_c, 2, 67, 80
5, 9599, Note_on_c, 2, 55, 0
5, 9599, Note_on_c, 2, 62, 0
5, 9599, Note_on_c, 2, 67, 0
5, 9600, Note_on_c, 2, 57, 80
5, 10080, Note_on_c, 2, 64, 80
5, 10080, Note_on_c, 2, 69, 80
5, 10319, Note_on_c, 2, 64, 0
5, 10319, Note_on_c, 2, 69, 0
5, 10320, Note_on_c, 2, 64, 80
5, 10320, Note_on_c, 2, 69, 80
5, 10799, Note_on_c, 2, 64, 0
5, 10799, Note_on_c, 2, 69, 0
5, 11040, Note_on_c, 2, 64, 80
5, 11040, Note_on_c, 2, 69, 80
5, 11519, Note_on_c, 2, 57, 0
5, 11519, Note_on_c, 2, 64, 0
5, 11519, Note_on_c, 2, 69, 0
5, 11520, Note_on_c, 2, 57, 80
5, 12000, Note_on_c, 2, 64, 80
5, 12000, Note_on_c, 2, 69, 80
5, 12239, Note_on_c, 2, 64, 0
5, 12239, Note_on_c, 2, 69, 0
5, 12240, Note_on_c, 2, 64, 80
5, 12240, Note_on_c, 2, 69, 80
5, 12719, Note_on_c, 2, 64, 0
5, 12719, Note_on_c, 2, 69, 0
5, 12960, Note_on_c, 2, 64, 80
5, 12960, Note_on_c, 2, 69, 80
5, 13439, Note_on_c, 2, 57, 0
5, 13439, Note_on_c, 2, 64, 0
5, 13439, Note_on_c, 2, 69, 0
5, 13440, Note_on_c, 2, 53, 80
5, 13920, Note_on_c, 2, 60, 80
5, 13920, Note_on_c, 2, 65, 80
5, 14159, Note_on_c, 2, 60, 0
5, 14159, Note_on_c, 2, 65, 0
5, 14160, Note_on_c, 2, 60, 80
5, 14160, Note_on_c, 2, 65, 80
5, 14639, Note_on_c, 2, 60, 0
5, 14639, Note_on_c, 2, 65, 0
5, 14880, Note_on_c, 2, 60, 80
5, 14880, Note_on_c, 2, 65, 80
5, 15359, Note_on_c, 2, 53, 0
5, 15359, Note_on_c, 2, 60, 0
5, 15359, Note_on_c, 2, 65, 0
5, 15360, Note_on_c, 2, 53, 80
5, 15840, Note_on_c, 2, 60, 80
5, 15840, Note_on_c, 2, 65, 80
5, 16079, Note_on_c, 2, 60, 0
5, 16079, Note_on_c, 2, 65, 0
5, 16080, Note_on_c, 2, 60, 80
5, 16080, Note_on_c, 2, 65, 80
5, 16559, Note_on_c, 2, 60, 0
5, 16559, Note_on_c, 2, 65, 0
5, 16800, Note_on_c, 2, 60, 80
5, 16800, Note_on_c, 2, 65, 80
5, 17279, Note_on_c, 2, 53, 0
5, 17279, Note_on_c, 2, 60, 0
5, 17279, Note_on_c, 2, 65, 0
5, 17280, Note_on_c, 2, 48, 80
5, 17760, Note_on_c, 2, 60, 80
5, 17760, Note_on_c, 2, 67, 80
5, 17999, Note_on_c, 2, 60, 0
5, 17999, Note_on_c, 2, 67, 0
5, 18000, Note_on_c, 2, 60, 80
5, 18000, Note_on_c, 2, 67, 80
5, 18479, Note_on_c, 2, 60, 0
5, 18479, Note_on_c, 2, 67, 0
5, 18720, Note_on_c, 2, 60, 80
5, 18720, Note_on_c, 2, 67, 80
5, 19199, Note_on_c, 2, 48, 0
5, 19199, Note_on_c, 2, 60, 0
5, 19199, Note_on_c, 2, 67, 0
5, 19200, Note_on_c, 2, 48, 80
5, 19680, Note_on_c, 2, 60, 80
5, 19680, Note_on_c, 2, 67, 80
5, 19919, Note_on_c, 2, 60, 0
5, 19919, Note_on_c, 2, 67, 0
5, 19920, Note_on_c, 2, 60, 80
5, 19920, Note_on_c, 2, 67, 80
5, 20399, Note_on_c, 2, 60, 0
5, 20399, Note_on_c, 2, 67, 0
5, 20640, Note_on_c, 2, 60, 80
5, 20640, Note_on_c, 2, 67, 80
5, 21119, Note_on_c, 2, 48, 0
5, 21119, Note_on_c, 2, 60, 0
5, 21119, Note_on_c, 2, 67, 0
5, 21120, Note_on_c, 2, 55, 80
5, 21600, Note_on_c, 2, 62, 80
5, 21600, Note_on_c, 2, 67, 80
5, 21839, Note_on_c, 2, 62, 0
5, 21839, Note_on_c, 2, 67, 0
5, 21840, Note_on_c, 2, 62, 80
5, 21840, Note_on_c, 2, 67, 80
5, 22319, Note_on_c, 2, 62, 0
5, 22319, Note_on_c, 2, 67, 0
5, 22560, Note_on_c, 2, 62, 80
5, 22560, Note_on_c, 2, 67, 80
5, 23039, Note_on_c, 2, 55, 0
5, 23039, Note_on_c, 2, 62, 0
5, 23039, Note_on_c, 2, 67, 0
5, 23040, Note_on_c, 2, 55, 80
5, 23520, Note_on_c, 2, 62, 80
5, 23520, Note_on_c, 2, 67, 80
5, 23759, Note_on_c, 2, 62, 0
5, 23759, Note_on_c, 2, 67, 0
5, 23760, Note_on_c, 2, 62, 80
5, 23760, Note_on_c, 2, 67, 80
5, 24239, Note_on_c, 2, 62, 0
5, 24239, Note_on_c, 2, 67, 0
5, 24480, Note_on_c, 2, 62, 80
5, 24480, Note_on_c, 2, 67, 80
5, 24959, Note_on_c, 2, 55, 0
5, 24959, Note_on_c, 2, 62, 0
5, 24959, Note_on_c, 2, 67, 0
5, 24960, Note_on_c, 2, 57, 80
5, 25440, Note_on_c, 2, 64, 80
5, 25440, Note_on_c, 2, 69, 80
5, 25679, Note_on_c, 2, 64, 0
5, 25679, Note_on_c, 2, 69, 0
5, 25680, Note_on_c, 2, 64, 80
5, 25680, Note_on_c, 2, 69, 80
5, 26159, Note_on_c, 2, 64, 0
5, 26159, Note_on_c, 2, 69, 0
5, 26400, Note_on_c, 2, 64, 80
5, 26400, Note_on_c, 2, 69, 80
5, 26879, Note_on_c, 2, 57, 0
5, 26879, Note_on_c, 2, 64, 0
5, 26879, Note_on_c, 2, 69, 0
5, 26880, Note_on_c, 2, 57, 80
5, 27360, Note_on_c, 2, 64, 80
5, 27360, Note_on_c, 2, 69, 80
5, 27599, Note_on_c, 2, 64, 0
5, 27599, Note_on_c, 2, 69, 0
5, 27600, Note_on_c, 2, 64, 80
5, 27600, Note_on_c, 2, 69, 80
5, 28079, Note_on_c, 2, 64, 0
5, 28079, Note_on_c, 2, 69, 0
5, 28320, Note_on_c, 2, 64, 80
5, 28320, Note_on_c, 2, 69, 80
5, 28799, Note_on_c, 2, 57, 0
5, 28799, Note_on_c, 2, 64, 0
5, 28799, Note_on_c, 2, 69, 0
5, 28800, Note_on_c, 2, 53, 80
5, 29280, Note_on_c, 2, 60, 80
5, 29280, Note_on_c, 2, 65, 80
5, 29519, Note_on_c, 2, 60, 0
5, 29519, Note_on_c, 2, 65, 0
5, 29520, Note_on_c, 2, 60, 80
5, 29520, Note_on_c, 2, 65, 80
5, 29999, Note_on_c, 2, 60, 0
5, 29999, Note_on_c, 2, 65, 0
5, 30240, Note_on_c, 2, 60, 80
5, 30240, Note_on_c, 2, 65, 80
5, 30719, Note_on_c, 2, 53, 0
5, 30719, Note_on_c, 2, 60, 0
5, 30719, Note_on_c, 2, 65, 0
5, 30720, Note_on_c, 2, 53, 80
5, 31200, Note_on_c, 2, 60, 80
5, 31200, Note_on_c, 2, 65, 80
5, 31439, Note_on_c, 2, 60, 0
5, 31439, Note_on_c, 2, 65, 0
5, 31440, Note_on_c, 2, 60, 80
5, 31440, Note_on_c, 2, 65, 80
5, 31919, Note_on_c, 2, 60, 0
5, 31919, Note_on_c, 2, 65, 0
5, 32160, Note_on_c, 2, 60, 80
5, 32160, Note_on_c, 2, 65, 80
5, 32639, Note_on_c, 2, 53, 0
5, 32639, Note_on_c, 2, 60, 0
5, 32639, Note_on_c, 2, 65, 0
5, 32640, Note_on_c, 2, 60, 80
5, 32879, Note_on_c, 2, 60, 0
5, 33120, Note_on_c, 2, 64, 80
5, 33120, Note_on_c, 2, 67, 80
5, 33359, Note_on_c, 2, 64, 0
5, 33359, Note_on_c, 2, 67, 0
5, 33360, Note_on_c, 2, 64, 80
5, 33360, Note_on_c, 2, 67, 80
5, 34079, Note_on_c, 2, 64, 0
5, 34079, Note_on_c, 2, 67, 0
5, 34080, Note_on_c, 2, 64, 80
5, 34080, Note_on_c, 2, 67, 80
5, 34559, Note_on_c, 2, 64, 0
5, 34559, Note_on_c, 2, 67, 0
5, 34560, Note_on_c, 2, 60, 80
5, 35039, Note_on_c, 2, 60, 0
5, 35040, Note_on_c, 2, 64, 80
5, 35040, Note_on_c, 2, 67, 80
5, 35279, Note_on_c, 2, 64, 0
5, 35279, Note_on_c, 2, 67, 0
5, 35280, Note_on_c, 2, 64, 80
5, 35280, Note_on_c, 2, 67, 80
5, 35999, Note_on_c, 2, 64, 0
5, 35999, Note_on_c, 2, 67, 0
5, 36000, Note_on_c, 2, 64, 80
5, 36000, Note_on_c, 2, 67, 80
5, 36479, Note_on_c, 2, 64, 0
5, 36479, Note_on_c, 2, 67, 0
5, 36480, Note_on_c, 2, 55, 80
5, 36959, Note_on_c, 2, 55, 0
5, 36960, Note_on_c, 2, 62, 80
5, 36960, Note_on_c, 2, 67, 80
5, 37199, Note_on_c, 2, 62, 0
5, 37199, Note_on_c, 2, 67, 0
5, 37200, Note_on_c, 2, 62, 80
5, 37200, Note_on_c, 2, 67, 80
5, 37919, Note_on_c, 2, 62, 0
5, 37919, Note_on_c, 2, 67, 0
5, 37920, Note_on_c, 2, 62, 80
5, 37920, Note_on_c, 2, 67, 80
5, 38399, Note_on_c, 2, 62, 0
5, 38399, Note_on_c, 2, 67, 0
5, 38400, Note_on_c, 2, 55, 80
5, 38879, Note_on_c, 2, 55, 0
5, 38880, Note_on_c, 2, 62, 80
5, 38880, Note_on_c, 2, 67, 80
5, 39119, Note_on_c, 2, 62, 0
5, 39119, Note_on_c, 2, 67, 0
5, 39120, Note_on_c, 2, 62, 80
5, 39120, Note_on_c, 2, 67, 80
5, 39839, Note_on_c, 2, 62, 0
5, 39839, Note_on_c, 2, 67, 0
5, 39840, Note_on_c, 2, 62, 80
5, 39840, Note_on_c, 2, 67, 80
5, 40319, Note_on_c, 2, 62, 0
5, 40319, Note_on_c, 2, 67, 0
5, 40320, Note_on_c, 2, 57, 80
5, 40800, Note_on_c, 2, 60, 80
5, 40800, Note_on_c, 2, 64, 80
5, 41039, Note_on_c, 2, 60, 0
5, 41039, Note_on_c, 2, 64, 0
5, 41040, Note_on_c, 2, 60, 80
5, 41040, Note_on_c, 2, 64, 80
5, 41759, Note_on_c, 2, 60, 0
5, 41759, Note_on_c, 2, 64, 0
5, 41760, Note_on_c, 2, 60, 80
5, 41760, Note_on_c, 2, 64, 80
5, 42239, Note_on_c, 2, 57, 0
5, 42239, Note_on_c, 2, 60, 0
5, 42239, Note_on_c, 2, 64, 0
5, 42240, Note_on_c, 2, 57, 80
5, 42719, Note_on_c, 2, 57, 0
5, 42720, Note_on_c, 2, 60, 80
5, 42720, Note_on_c, 2, 64, 80
5, 42959, Note_on_c, 2, 60, 0
5, 42959, Note_on_c, 2, 64, 0
5, 42960, Note_on_c, 2, 60, 80
5, 42960, Note_on_c, 2, 64, 80
5, 43679, Note_on_c, 2, 60, 0
5, 43679, Note_on_c, 2, 64, 0
5, 43680, Note_on_c, 2, 60, 80
5, 43680, Note_on_c, 2, 64, 80
5, 44159, Note_on_c, 2, 60, 0
5, 44159, Note_on_c, 2, 64, 0
5, 44160, Note_on_c, 2, 53, 80
5, 44399, Note_on_c, 2, 53, 0
5, 44640, Note_on_c, 2, 53, 80
5, 44880, Note_on_c, 2, 60, 80
5, 44880, Note_on_c, 2, 65, 80
5, 45119, Note_on_c, 2, 53, 0
5, 45599, Note_on_c, 2, 60, 0
5, 45599, Note_on_c, 2, 65, 0
5, 45600, Note_on_c, 2, 60, 80
5, 45600, Note_on_c, 2, 65, 80
5, 46079, Note_on_c, 2, 60, 0
5, 46079, Note_on_c, 2, 65, 0
5, 46080, Note_on_c, 2, 53, 80
5, 46800, Note_on_c, 2, 60, 80
5, 46800, Note_on_c, 2, 65, 80
5, 47519, Note_on_c, 2, 60, 0
5, 47519, Note_on_c, 2, 65, 0
5, 47520, Note_on_c, 2, 60, 80
5, 47520, Note_on_c, 2, 65, 80
5, 47999, Note_on_c, 2, 53, 0
5, 47999, Note_on_c, 2, 60, 0
5, 47999, Note_on_c, 2, 65, 0
5, 78720, Note_on_c, 2, 48, 80
5, 79200, Note_on_c, 2, 60, 80
5, 79200, Note_on_c, 2, 67, 80
5, 79439, Note_on_c, 2, 60, 0
5, 79439, Note_on_c, 2, 67, 0
5, 79440, Note_on_c, 2, 60, 80
5, 79440, Note_on_c, 2, 67, 80
5, 79919, Note_on_c, 2, 60, 0
5, 79919, Note_on_c, 2, 67, 0
5, 80160, Note_on_c, 2, 60, 80
5, 80160, Note_on_c, 2, 67, 80
5, 80639, Note_on_c, 2, 48, 0
5, 80639, Note_on_c, 2, 60, 0
5, 80639, Note_on_c, 2, 67, 0
5, 80640, Note_on_c, 2, 48, 80
5, 81120, Note_on_c, 2, 60, 80
5, 81120, Note_on_c, 2, 67, 80
5, 81359, Note_on_c, 2, 60, 0
5, 81359, Note_on_c, 2, 67, 0
5, 81360, Note_on_c, 2, 60, 80
5, 81360, Note_on_c, 2, 67, 80
5, 81839, Note_on_c, 2, 60, 0
5, 81839, Note_on_c, 2, 67, 0
5, 82080, Note_on_c, 2, 60, 80
5, 82080, Note_on_c, 2, 67, 80
5, 82559, Note_on_c, 2, 48, 0
5, 82559, Note_on_c, 2, 60, 0
5, 82559, Note_on_c, 2, 67, 0
5, 82560, Note_on_c, 2, 55, 80
5, 83040, Note_on_c, 2, 62, 80
5, 83040, Note_on_c, 2, 67, 80
5, 83279, Note_on_c, 2, 62, 0
5, 83279, Note_on_c, 2, 67, 0
5, 83280, Note_on_c, 2, 62, 80
5, 83280, Note_on_c, 2, 67, 80
5, 83759, Note_on_c, 2, 62, 0
5, 83759, Note_on_c, 2, 67, 0
5, 84000, Note_on_c, 2, 62, 80
5, 84000, Note_on_c, 2, 67, 80
5, 84479, Note_on_c, 2, 55, 0
5, 84479, Note_on_c, 2, 62, 0
5, 84479, Note_on_c, 2, 67, 0
5, 84480, Note_on_c, 2, 55, 80
5, 84960, Note_on_c, 2, 62, 80
5, 84960, Note_on_c, 2, 67, 80
5, 85199, Note_on_c, 2, 62, 0
5, 85199, Note_on_c, 2, 67, 0
5, 85200, Note_on_c, 2, 62, 80
5, 85200, Note_on_c, 2, 67, 80
5, 85679, Note_on_c, 2, 62, 0
5, 85679, Note_on_c, 2, 67, 0
5, 85920, Note_on_c, 2, 62, 80
5, 85920, Note_on_c, 2, 67, 80
5, 86399, Note_on_c, 2, 55, 0
5, 86399, Note_on_c, 2, 62, 0
5, 86399, Note_on_c, 2, 67, 0
5, 86400, Note_on_c, 2, 57, 80
5, 86880, Note_on_c, 2, 64, 80
5, 86880, Note_on_c, 2, 69, 80
5, 87119, Note_on_c, 2, 64, 0
5, 87119, Note_on_c, 2, 69, 0
5, 87120, Note_on_c, 2, 64, 80
5, 87120, Note_on_c, 2, 69, 80
5, 87599, Note_on_c, 2, 64, 0
5, 87599, Note_on_c, 2, 69, 0
5, 87840, Note_on_c, 2, 64, 80
5, 87840, Note_on_c, 2, 69, 80
5, 88319, Note_on_c, 2, 57, 0
5, 88319, Note_on_c, 2, 64, 0
5, 88319, Note_on_c, 2, 69, 0
5, 88320, Note_on_c, 2, 57, 80
5, 88800, Note_on_c, 2, 64, 80
5, 88800, Note_on_c, 2, 69, 80
5, 89039, Note_on_c, 2, 64, 0
5, 89039, Note_on_c, 2, 69, 0
5, 89040, Note_on_c, 2, 64, 80
5, 89040, Note_on_c, 2, 69, 80
5, 89519, Note_on_c, 2, 64, 0
5, 89519, Note_on_c, 2, 69, 0
5, 89760, Note_on_c, 2, 64, 80
5, 89760, Note_on_c, 2, 69, 80
5, 90239, Note_on_c, 2, 57, 0
5, 90239, Note_on_c, 2, 64, 0
5, 90239, Note_on_c, 2, 69, 0
5, 90240, Note_on_c, 2, 53, 80
5, 90720, Note_on_c, 2, 60, 80
5, 90720, Note_on_c, 2, 65, 80
5, 90959, Note_on_c, 2, 60, 0
5, 90959, Note_on_c, 2, 65, 0
5, 90960, Note_on_c, 2, 60, 80
5, 90960, Note_on_c, 2, 65, 80
5, 91439, Note_on_c, 2, 60, 0
5, 91439, Note_on_c, 2, 65, 0
5, 91680, Note_on_c, 2, 60, 80
5, 91680, Note_on_c, 2, 65, 80
5, 92159, Note_on_c, 2, 53, 0
5, 92159, Note_on_c, 2, 60, 0
5, 92159, Note_on_c, 2, 65, 0
5, 92160, Note_on_c, 2, 53, 80
5, 92640, Note_on_c, 2, 60, 80
5, 92640, Note_on_c, 2, 65, 80
5, 92879, Note_on_c, 2, 60, 0
5, 92879, Note_on_c, 2, 65, 0
5, 92880, Note_on_c, 2, 60, 80
5, 92880, Note_on_c, 2, 65, 80
5, 93359, Note_on_c, 2, 60, 0
5, 93359, Note_on_c, 2, 65, 0
5, 93600, Note_on_c, 2, 60, 80
5, 93600, Note_on_c, 2, 65, 80
5, 94079, Note_on_c, 2, 53, 0
5, 94079, Note_on_c, 2, 60, 0
5, 94079, Note_on_c, 2, 65, 0
5, 94080, Note_on_c, 2, 48, 80
5, 94560, Note_on_c, 2, 60, 80
5, 94560, Note_on_c, 2, 67, 80
5, 94799, Note_on_c, 2, 60, 0
5, 94799, Note_on_c, 2, 67, 0
5, 94800, Note_on_c, 2, 60, 80
5, 94800, Note_on_c, 2, 67, 80
5, 95279, Note_on_c, 2, 60, 0
5, 95279, Note_on_c, 2, 67, 0
5, 95520, Note_on_c, 2, 60, 80
5, 95520, Note_on_c, 2, 67, 80
5, 95999, Note_on_c, 2, 48, 0
5, 95999, Note_on_c, 2, 60, 0
5, 95999, Note_on_c, 2, 67, 0
5, 96000, Note_on_c, 2, 48, 80
5, 96480, Note_on_c, 2, 60, 80
5, 96480, Note_on_c, 2, 67, 80
5, 96719, Note_on_c, 2, 60, 0
5, 96719, Note_on_c, 2, 67, 0
5, 96720, Note_on_c, 2, 60, 80
5, 96720, Note_on_c, 2, 67, 80
5, 97199, Note_on_c, 2, 60, 0
5, 97199, Note_on_c, 2, 67, 0
5, 97440, Note_on_c, 2, 60, 80
5, 97440, Note_on_c, 2, 67, 80
5, 97919, Note_on_c, 2, 48, 0
5, 97919, Note_on_c, 2, 60, 0
5, 97919, Note_on_c, 2, 67, 0
5, 97920, Note_on_c, 2, 55, 80
5, 98400, Note_on_c, 2, 62, 80
5, 98400, Note_on_c, 2, 67, 80
5, 98639, Note_on_c, 2, 62, 0
5, 98639, Note_on_c, 2, 67, 0
5, 98640, Note_on_c, 2, 62, 80
5, 98640, Note_on_c, 2, 67, 80
5, 99119, Note_on_c, 2, 62, 0
5, 99119, Note_on_c, 2, 67, 0
5, 99360, Note_on_c, 2, 62, 80
5, 99360, Note_on_c, 2, 67, 80
5, 99839, Note_on_c, 2, 55, 0
5, 99839, Note_on_c, 2, 62, 0
5, 99839, Note_on_c, 2, 67, 0
5, 99840, Note_on_c, 2, 55, 80
5, 100320, Note_on_c, 2, 62, 80
5, 100320, Note_on_c, 2, 67, 80
5, 100559, Note_on_c, 2, 62, 0
5, 100559, Note_on_c, 2, 67, 0
5, 100560, Note_on_c, 2, 62, 80
5, 100560, Note_on_c, 2, 67, 80
5, 101039, Note_on_c, 2, 62, 0
5, 101039, Note_on_c, 2, 67, 0
5, 101280, Note_on_c, 2, 62, 80
5, 101280, Note_on_c, 2, 67, 80
5, 101759, Note_on_c, 2, 55, 0
5, 101759, Note_on_c, 2, 62, 0
5, 101759, Note_on_c, 2, 67, 0
5, 101760, Note_on_c, 2, 57, 80
5, 102240, Note_on_c, 2, 64, 80
5, 102240, Note_on_c, 2, 69, 80
5, 102479, Note_on_c, 2, 64, 0
5, 102479, Note_on_c, 2, 69, 0
5, 102480, Note_on_c, 2, 64, 80
5, 102480, Note_on_c, 2, 69, 80
5, 102959, Note_on_c, 2, 64, 0
5, 102959, Note_on_c, 2, 69, 0
5, 103200, Note_on_c, 2, 64, 80
5, 103200, Note_on_c, 2, 69, 80
5, 103679, Note_on_c, 2, 57, 0
5, 103679, Note_on_c, 2, 64, 0
5, 103679, Note_on_c, 2, 69, 0
5, 103680, Note_on_c, 2, 57, 80
5, 104160, Note_on_c, 2, 64, 80
5, 104160, Note_on_c, 2, 69, 80
5, 104399, Note_on_c, 2, 64, 0
5, 104399, Note_on_c, 2, 69, 0
5, 104400, Note_on_c, 2, 64, 80
5, 104400, Note_on_c, 2, 69, 80
5, 104879, Note_on_c, 2, 64, 0
5, 104879, Note_on_c, 2, 69, 0
5, 105120, Note_on_c, 2, 64, 80
5, 105120, Note_on_c, 2, 69, 80
5, 105599, Note_on_c, 2, 57, 0
5, 105599, Note_on_c, 2, 64, 0
5, 105599, Note_on_c, 2, 69, 0
5, 105600, Note_on_c, 2, 53, 80
5, 106080, Note_on_c, 2, 60, 80
5, 106080, Note_on_c, 2, 65, 80
5, 106319, Note_on_c, 2, 60, 0
5, 106319, Note_on_c, 2, 65, 0
5, 106320, Note_on_c, 2, 60, 80
5, 106320, Note_on_c, 2, 65, 80
5, 106799, Note_on_c, 2, 60, 0
5, 106799, Note_on_c, 2, 65, 0
5, 107040, Note_on_c, 2, 60, 80
5, 107040, Note_on_c, 2, 65, 80
5, 107519, Note_on_c, 2, 53, 0
5, 107519, Note_on_c, 2, 60, 0
5, 107519, Note_on_c, 2, 65, 0
5, 107520, Note_on_c, 2, 53, 80
5, 108000, Note_on_c, 2, 60, 80
5, 108000, Note_on_c, 2, 65, 80
5, 108239, Note_on_c, 2, 60, 0
5, 108239, Note_on_c, 2, 65, 0
5, 108240, Note_on_c, 2, 60, 80
5, 108240, Note_on_c, 2, 65, 80
5, 108719, Note_on_c, 2, 60, 0
5, 108719, Note_on_c, 2, 65, 0
5, 108960, Note_on_c, 2, 60, 80
5, 108960, Note_on_c, 2, 65, 80
5, 109439, Note_on_c, 2, 53, 0
5, 109439, Note_on_c, 2, 60, 0
5, 109439, Note_on_c, 2, 65, 0
5, 113280, Note_on_c, 2, 52, 80
5, 113280, Note_on_c, 2, 55, 80
5, 113280, Note_on_c, 2, 60, 80
5, 115199, Note_on_c, 2, 52, 0
5, 115199, Note_on_c, 2, 55, 0
5, 115199, Note_on_c, 2, 60, 0
5, 117120, Note_on_c, 2, 50, 80
5, 117120, Note_on_c, 2, 55, 80
5, 117120, Note_on_c, 2, 59, 80
5, 119039, Note_on_c, 2, 50, 0
5, 119039, Note_on_c, 2, 55, 0
5, 119039, Note_on_c, 2, 59, 0
5, 120960, Note_on_c, 2, 48, 80
5, 120960, Note_on_c, 2, 52, 80
5, 120960, Note_on_c, 2, 57, 80
5, 121199, Note_on_c, 2, 48, 0
5, 121199, Note_on_c, 2, 52, 0
5, 121199, Note_on_c, 2, 57, 0
5, 124800, Note_on_c, 2, 48, 80
5, 124800, Note_on_c, 2, 53, 80
5, 124800, Note_on_c, 2, 57, 80
5, 125039, Note_on_c, 2, 48, 0
5, 125039, Note_on_c, 2, 53, 0
5, 125039, Note_on_c, 2, 57, 0
5, 126720, Note_on_c, 2, 53, 80
5, 126720, Note_on_c, 2, 57, 80
5, 126720, Note_on_c, 2, 60, 80
5, 128639, Note_on_c, 2, 53, 0
5, 128639, Note_on_c, 2, 57, 0
5, 128639, Note_on_c, 2, 60, 0
5, 128640, Note_on_c, 2, 55, 80
5, 128640, Note_on_c, 2, 60, 80
5, 129599, Note_on_c, 2, 55, 0
5, 129599, Note_on_c, 2, 60, 0
5, 129600, Note_on_c, 2, 55, 80
5, 129600, Note_on_c, 2, 60, 80
5, 130559, Note_on_c, 2, 55, 0
5, 130559, Note_on_c, 2, 60, 0
5, 130560, Note_on_c, 2, 55, 80
5, 130560, Note_on_c, 2, 60, 80
5, 131519, Note_on_c, 2, 55, 0
5, 131519, Note_on_c, 2, 60, 0
5, 131520, Note_on_c, 2, 55, 80
5, 131520, Note_on_c, 2, 60, 80
5, 132479, Note_on_c, 2, 55, 0
5, 132479, Note_on_c, 2, 60, 0
5, 132480, Note_on_c, 2, 50, 80
5, 132480, Note_on_c, 2, 55, 80
5, 133439, Note_on_c, 2, 50, 0
5, 133439, Note_on_c, 2, 55, 0
5, 133440, Note_on_c, 2, 50, 80
5, 133440, Note_on_c, 2, 55, 80
5, 134399, Note_on_c, 2, 50, 0
5, 134399, Note_on_c, 2, 55, 0
5, 134400, Note_on_c, 2, 50, 80
5, 134400, Note_on_c, 2, 55, 80
5, 135359, Note_on_c, 2, 50, 0
5, 135359, Note_on_c, 2, 55, 0
5, 135360, Note_on_c, 2, 50, 80
5, 135360, Note_on_c, 2, 55, 80
5, 136319, Note_on_c, 2, 50, 0
5, 136319, Note_on_c, 2, 55, 0
5, 136320, Note_on_c, 2, 52, 80
5, 136320, Note_on_c, 2, 57, 80
5, 137279, Note_on_c, 2, 52, 0
5, 137279, Note_on_c, 2, 57, 0
5, 137280, Note_on_c, 2, 52, 80
5, 137280, Note_on_c, 2, 57, 80
5, 138239, Note_on_c, 2, 52, 0
5, 138239, Note_on_c, 2, 57, 0
5, 138240, Note_on_c, 2, 52, 80
5, 138240, Note_on_c, 2, 57, 80
5, 139199, Note_on_c, 2, 52, 0
5, 139199, Note_on_c, 2, 57, 0
5, 139200, Note_on_c, 2, 52, 80
5, 139200, Note_on_c, 2, 57, 80
5, 140159, Note_on_c, 2, 52, 0
5, 140159, Note_on_c, 2, 57, 0
5, 140160, Note_on_c, 2, 48, 80
5, 140160, Note_on_c, 2, 53, 80
5, 140399, Note_on_c, 2, 48, 0
5, 140399, Note_on_c, 2, 53, 0
5, 142080, Note_on_c, 2, 55, 80
5, 142080, Note_on_c, 2, 60, 80
5, 142559, Note_on_c, 2, 55, 0
5, 142559, Note_on_c, 2, 60, 0
5, 144000, Note_on_c, 2, 48, 80
5, 144480, Note_on_c, 2, 60, 80
5, 144480, Note_on_c, 2, 67, 80
5, 144719, Note_on_c, 2, 60, 0
5, 144719, Note_on_c, 2, 67, 0
5, 144720, Note_on_c, 2, 60, 80
5, 144720, Note_on_c, 2, 67, 80
5, 145199, Note_on_c, 2, 60, 0
5, 145199, Note_on_c, 2, 67, 0
5, 145440, Note_on_c, 2, 60, 80
5, 145440, Note_on_c, 2, 67, 80
5, 145919, Note_on_c, 2, 48, 0
5, 145919, Note_on_c, 2, 60, 0
5, 145919, Note_on_c, 2, 67, 0
5, 145920, Note_on_c, 2, 55, 80
5, 146399, Note_on_c, 2, 55, 0
5, 146400, Note_on_c, 2, 62, 80
5, 146400, Note_on_c, 2, 67, 80
5, 146639, Note_on_c, 2, 62, 0
5, 146639, Note_on_c, 2, 67, 0
5, 146640, Note_on_c, 2, 62, 80
5, 146640, Note_on_c, 2, 67, 80
5, 147359, Note_on_c, 2, 62, 0
5, 147359, Note_on_c, 2, 67, 0
5, 147360, Note_on_c, 2, 62, 80
5, 147360, Note_on_c, 2, 67, 80
5, 147839, Note_on_c, 2, 62, 0
5, 147839, Note_on_c, 2, 67, 0
5, 147840, Note_on_c, 2, 55, 80
5, 148320, Note_on_c, 2, 62, 80
5, 148320, Note_on_c, 2, 67, 80
5, 148559, Note_on_c, 2, 62, 0
5, 148559, Note_on_c, 2, 67, 0
5, 148560, Note_on_c, 2, 62, 80
5, 148560, Note_on_c, 2, 67, 80
5, 149039, Note_on_c, 2, 62, 0
5, 149039, Note_on_c, 2, 67, 0
5, 149280, Note_on_c, 2, 62, 80
5, 149280, Note_on_c, 2, 67, 80
5, 149759, Note_on_c, 2, 55, 0
5, 149759, Note_on_c, 2, 62, 0
5, 149759, Note_on_c, 2, 67, 0
5, 149760, Note_on_c, 2, 57, 80
5, 150240, Note_on_c, 2, 64, 80
5, 150240, Note_on_c, 2, 69, 80
5, 150479, Note_on_c, 2, 64, 0
5, 150479, Note_on_c, 2, 69, 0
5, 150480, Note_on_c, 2, 64, 80
5, 150480, Note_on_c, 2, 69, 80
5, 150959, Note_on_c, 2, 64, 0
5, 150959, Note_on_c, 2, 69, 0
5, 151200, Note_on_c, 2, 64, 80
5, 151200, Note_on_c, 2, 69, 80
5, 151679, Note_on_c, 2, 57, 0
5, 151679, Note_on_c, 2, 64, 0
5, 151679, Note_on_c, 2, 69, 0
5, 151680, Note_on_c, 2, 57, 80
5, 152160, Note_on_c, 2, 64, 80
5, 152160, Note_on_c, 2, 69, 80
5, 152399, Note_on_c, 2, 64, 0
5, 152399, Note_on_c, 2, 69, 0
5, 152400, Note_on_c, 2, 64, 80
5, 152400, Note_on_c, 2, 69, 80
5, 152879, Note_on_c, 2, 64, 0
5, 152879, Note_on_c, 2, 69, 0
5, 153120, Note_on_c, 2, 64, 80
5, 153120, Note_on_c, 2, 69, 80
5, 153599, Note_on_c, 2, 57, 0
5, 153599, Note_on_c, 2, 64, 0
5, 153599, Note_on_c, 2, 69, 0
5, 153600, Note_on_c, 2, 53, 80
5, 154080, Note_on_c, 2, 60, 80
5, 154080, Note_on_c, 2, 65, 80
5, 154319, Note_on_c, 2, 60, 0
5, 154319, Note_on_c, 2, 65, 0
5, 154320, Note_on_c, 2, 60, 80
5, 154320, Note_on_c, 2, 65, 80
5, 154799, Note_on_c, 2, 60, 0
5, 154799, Note_on_c, 2, 65, 0
5, 155040, Note_on_c, 2, 60, 80
5, 155040, Note_on_c, 2, 65, 80
5, 155519, Note_on_c, 2, 53, 0
5, 155519, Note_on_c, 2, 60, 0
5, 155519, Note_on_c, 2, 65, 0
5, 155520, Note_on_c, 2, 53, 80
5, 156000, Note_on_c, 2, 60, 80
5, 156000, Note_on_c, 2, 65, 80
5, 156239, Note_on_c, 2, 60, 0
5, 156239, Note_on_c, 2, 65, 0
5, 156240, Note_on_c, 2, 60, 80
5, 156240, Note_on_c, 2, 65, 80
5, 156719, Note_on_c, 2, 60, 0
5, 156719, Note_on_c, 2, 65, 0
5, 156960, Note_on_c, 2, 60, 80
5, 156960, Note_on_c, 2, 65, 80
5, 157439, Note_on_c, 2, 53, 0
5, 157439, Note_on_c, 2, 60, 0
5, 157439, Note_on_c, 2, 65, 0
5, 157440, Note_on_c, 2, 48, 80
5, 157920, Note_on_c, 2, 60, 80
5, 157920, Note_on_c, 2, 67, 80
5, 158159, Note_on_c, 2, 60, 0
5, 158159, Note_on_c, 2, 67, 0
5, 158160, Note_on_c, 2, 60, 80
5, 158160, Note_on_c, 2, 67, 80
5, 158639, Note_on_c, 2, 60, 0
5, 158639, Note_on_c, 2, 67, 0
5, 158880, Note_on_c, 2, 60, 80
5, 158880, Note_on_c, 2, 67, 80
5, 159359, Note_on_c, 2, 48, 0
5, 159359, Note_on_c, 2, 60, 0
5, 159359, Note_on_c, 2, 67, 0
5, 159360, Note_on_c, 2, 48, 80
5, 159840, Note_on_c, 2, 60, 80
5, 159840, Note_on_c, 2, 67, 80
5, 160079, Note_on_c, 2, 60, 0
5, 160079, Note_on_c, 2, 67, 0
5, 160080, Note_on_c, 2, 60, 80
5, 160080, Note_on_c, 2, 67, 80
5, 160559, Note_on_c, 2, 60, 0
5, 160559, Note_on_c, 2, 67, 0
5, 160800, Note_on_c, 2, 60, 80
5, 160800, Note_on_c, 2, 67, 80
5, 161279, Note_on_c, 2, 48, 0
5, 161279, Note_on_c, 2, 60, 0
5, 161279, Note_on_c, 2, 67, 0
5, 161280, Note_on_c, 2, 55, 80
5, 161760, Note_on_c, 2, 62, 80
5, 161760, Note_on_c, 2, 67, 80
5, 161999, Note_on_c, 2, 62, 0
5, 161999, Note_on_c, 2, 67, 0
5, 162000, Note_on_c, 2, 62, 80
5, 162000, Note_on_c, 2, 67, 80
5, 162479, Note_on_c, 2, 62, 0
5, 162479, Note_on_c, 2, 67, 0
5, 162720, Note_on_c, 2, 62, 80
5, 162720, Note_on_c, 2, 67, 80
5, 163199, Note_on_c, 2, 55, 0
5, 163199, Note_on_c, 2, 62, 0
5, 163199, Note_on_c, 2, 67, 0
5, 163200, Note_on_c, 2, 55, 80
5, 163680, Note_on_c, 2, 62, 80
5, 163680, Note_on_c, 2, 67, 80
5, 163919, Note_on_c, 2, 62, 0
5, 163919, Note_on_c, 2, 67, 0
5, 163920, Note_on_c, 2, 62, 80
5, 163920, Note_on_c, 2, 67, 80
5, 164399, Note_on_c, 2, 62, 0
5, 164399, Note_on_c, 2, 67, 0
5, 164640, Note_on_c, 2, 62, 80
5, 164640, Note_on_c, 2, 67, 80
5, 165119, Note_on_c, 2, 55, 0
5, 165119, Note_on_c, 2, 62, 0
5, 165119, Note_on_c, 2, 67, 0
5, 165120, Note_on_c, 2, 57, 80
5, 165600, Note_on_c, 2, 64, 80
5, 165600, Note_on_c, 2, 69, 80
5, 165839, Note_on_c, 2, 64, 0
5, 165839, Note_on_c, 2, 69, 0
5, 165840, Note_on_c, 2, 64, 80
5, 165840, Note_on_c, 2, 69, 80
5, 166319, Note_on_c, 2, 64, 0
5, 166319, Note_on_c, 2, 69, 0
5, 166560, Note_on_c, 2, 64, 80
5, 166560, Note_on_c, 2, 69, 80
5, 167039, Note_on_c, 2, 57, 0
5, 167039, Note_on_c, 2, 64, 0
5, 167039, Note_on_c, 2, 69, 0
5, 167040, Note_on_c, 2, 57, 80
5, 167520, Note_on_c, 2, 64, 80
5, 167520, Note_on_c, 2, 69, 80
5, 167759, Note_on_c, 2, 64, 0
5, 167759, Note_on_c, 2, 69, 0
5, 167760, Note_on_c, 2, 64, 80
5, 167760, Note_on_c, 2, 69, 80
5, 168239, Note_on_c, 2, 64, 0
5, 168239, Note_on_c, 2, 69, 0
5, 168480, Note_on_c, 2, 64, 80
5, 168480, Note_on_c, 2, 69, 80
5, 168959, Note_on_c, 2, 57, 0
5, 168959, Note_on_c, 2, 64, 0
5, 168959, Note_on_c, 2, 69, 0
5, 168960, Note_on_c, 2, 53, 80
5, 169440, Note_on_c, 2, 60, 80
5, 169440, Note_on_c, 2, 65, 80
5, 169679, Note_on_c, 2, 60, 0
5, 169679, Note_on_c, 2, 65, 0
5, 169680, Note_on_c, 2, 60, 80
5, 169680, Note_on_c, 2, 65, 80
5, 170159, Note_on_c, 2, 60, 0
5, 170159, Note_on_c, 2, 65, 0
5, 170400, Note_on_c, 2, 60, 80
5, 170400, Note_on_c, 2, 65, 80
5, 170879, Note_on_c, 2, 53, 0
5, 170879, Note_on_c, 2, 60, 0
5, 170879, Note_on_c, 2, 65, 0
5, 170880, Note_on_c, 2, 53, 80
5, 171360, Note_on_c, 2, 60, 80
5, 171360, Note_on_c, 2, 65, 80
5, 171599, Note_on_c, 2, 60, 0
5, 171599, Note_on_c, 2, 65, 0
5, 171600, Note_on_c, 2, 60, 80
5, 171600, Note_on_c, 2, 65, 80
5, 172079, Note_on_c, 2, 60, 0
5, 172079, Note_on_c, 2, 65, 0
5, 172320, Note_on_c, 2, 60, 80
5, 172320, Note_on_c, 2, 65, 80
5, 172799, Note_on_c, 2, 53, 0
5, 172799, Note_on_c, 2, 60, 0
5, 172799, Note_on_c, 2, 65, 0
5, 236160, Note_on_c, 2, 48, 80
5, 236640, Note_on_c, 2, 55, 80
5, 236640, Note_on_c, 2, 60, 80
5, 236879, Note_on_c, 2, 55, 0
5, 236879, Note_on_c, 2, 60, 0
5, 236880, Note_on_c, 2, 55, 80
5, 236880, Note_on_c, 2, 60, 80
5, 237359, Note_on_c, 2, 55, 0
5, 237359, Note_on_c, 2, 60, 0
5, 237600, Note_on_c, 2, 55, 80
5, 237600, Note_on_c, 2, 60, 80
5, 238079, Note_on_c, 2, 48, 0
5, 238079, Note_on_c, 2, 55, 0
5, 238079, Note_on_c, 2, 60, 0
5, 238080, Note_on_c, 2, 48, 80
5, 238560, Note_on_c, 2, 55, 80
5, 238560, Note_on_c, 2, 60, 80
5, 238799, Note_on_c, 2, 55, 0
5, 238799, Note_on_c, 2, 60, 0
5, 238800, Note_on_c, 2, 55, 80
5, 238800, Note_on_c, 2, 60, 80
5, 239279, Note_on_c, 2, 55, 0
5, 239279, Note_on_c, 2, 60, 0
5, 239520, Note_on_c, 2, 55, 80
5, 239520, Note_on_c, 2, 60, 80
5, 239999, Note_on_c, 2, 48, 0
5, 239999, Note_on_c, 2, 55, 0
5, 239999, Note_on_c, 2, 60, 0
5, 240000, Note_on_c, 2, 55, 80
5, 240479, Note_on_c, 2, 55, 0
5, 240480, Note_on_c, 2, 55, 80
5, 240480, Note_on_c, 2, 59, 80
5, 240719, Note_on_c, 2, 55, 0
5, 240719, Note_on_c, 2, 59, 0
5, 240720, Note_on_c, 2, 59, 80
5, 240720, Note_on_c, 2, 55, 80
5, 241199, Note_on_c, 2, 59, 0
5, 241439, Note_on_c, 2, 55, 0
5, 241440, Note_on_c, 2, 55, 80
5, 241440, Note_on_c, 2, 59, 80
5, 241919, Note_on_c, 2, 55, 0
5, 241919, Note_on_c, 2, 59, 0
5, 241920, Note_on_c, 2, 55, 80
5, 242399, Note_on_c, 2, 55, 0
5, 242400, Note_on_c, 2, 55, 80
5, 242400, Note_on_c, 2, 59, 80
5, 242639, Note_on_c, 2, 55, 0
5, 242639, Note_on_c, 2, 59, 0
5, 242640, Note_on_c, 2, 59, 80
5, 242640, Note_on_c, 2, 55, 80
5, 243119, Note_on_c, 2, 59, 0
5, 243359, Note_on_c, 2, 55, 0
5, 243360, Note_on_c, 2, 55, 80
5, 243360, Note_on_c, 2, 59, 80
5, 243839, Note_on_c, 2, 55, 0
5, 243839, Note_on_c, 2, 59, 0
5, 243840, Note_on_c, 2, 57, 80
5, 244319, Note_on_c, 2, 57, 0
5, 244320, Note_on_c, 2, 57, 80
5, 244320, Note_on_c, 2, 60, 80
5, 244559, Note_on_c, 2, 57, 0
5, 244559, Note_on_c, 2, 60, 0
5, 244560, Note_on_c, 2, 60, 80
5, 244560, Note_on_c, 2, 57, 80
5, 245039, Note_on_c, 2, 60, 0
5, 245279, Note_on_c, 2, 57, 0
5, 245280, Note_on_c, 2, 57, 80
5, 245280, Note_on_c, 2, 60, 80
5, 245759, Note_on_c, 2, 57, 0
5, 245759, Note_on_c, 2, 60, 0
5, 245760, Note_on_c, 2, 57, 80
5, 246239, Note_on_c, 2, 57, 0
5, 246240, Note_on_c, 2, 57, 80
5, 246240, Note_on_c, 2, 60, 80
5, 246479, Note_on_c, 2, 57, 0
5, 246479, Note_on_c, 2, 60, 0
5, 246480, Note_on_c, 2, 60, 80
5, 246480, Note_on_c, 2, 57, 80
5, 246959, Note_on_c, 2, 60, 0
5, 247199, Note_on_c, 2, 57, 0
5, 247200, Note_on_c, 2, 57, 80
5, 247200, Note_on_c, 2, 60, 80
5, 247679, Note_on_c, 2, 57, 0
5, 247679, Note_on_c, 2, 60, 0
5, 247680, Note_on_c, 2, 53, 80
5, 248159, Note_on_c, 2, 53, 0
5, 248160, Note_on_c, 2, 53, 80
5, 248160, Note_on_c, 2, 60, 80
5, 248399, Note_on_c, 2, 53, 0
5, 248399, Note_on_c, 2, 60, 0
5, 248400, Note_on_c, 2, 60, 80
5, 248400, Note_on_c, 2, 53, 80
5, 248879, Note_on_c, 2, 60, 0
5, 249119, Note_on_c, 2, 53, 0
5, 249120, Note_on_c, 2, 53, 80
5, 249120, Note_on_c, 2, 60, 80
5, 249599, Note_on_c, 2, 53, 0
5, 249599, Note_on_c, 2, 60, 0
5, 249600, Note_on_c, 2, 53, 80
5, 250079, Note_on_c, 2, 53, 0
5, 250080, Note_on_c, 2, 53, 80
5, 250080, Note_on_c, 2, 60, 80
5, 250319, Note_on_c, 2, 53, 0
5, 250319, Note_on_c, 2, 60, 0
5, 250320, Note_on_c, 2, 60, 80
5, 250320, Note_on_c, 2, 53, 80
5, 250799, Note_on_c, 2, 60, 0
5, 251519, Note_on_c, 2, 53, 0
5, 252000, Note_on_c, 2, 55, 80
5, 252000, Note_on_c, 2, 60, 80
5, 252239, Note_on_c, 2, 55, 0
5, 252239, Note_on_c, 2, 60, 0
5, 252240, Note_on_c, 2, 55, 80
5, 252240, Note_on_c, 2, 60, 80
5, 252719, Note_on_c, 2, 55, 0
5, 252719, Note_on_c, 2, 60, 0
5, 252960, Note_on_c, 2, 55, 80
5, 252960, Note_on_c, 2, 60, 80
5, 253439, Note_on_c, 2, 55, 0
5, 253439, Note_on_c, 2, 60, 0
5, 253920, Note_on_c, 2, 55, 80
5, 253920, Note_on_c, 2, 60, 80
5, 254159, Note_on_c, 2, 55, 0
5, 254159, Note_on_c, 2, 60, 0
5, 254160, Note_on_c, 2, 55, 80
5, 254160, Note_on_c, 2, 60, 80
5, 254639, Note_on_c, 2, 55, 0
5, 254639, Note_on_c, 2, 60, 0
5, 254880, Note_on_c, 2, 55, 80
5, 254880, Note_on_c, 2, 60, 80
5, 255359, Note_on_c, 2, 55, 0
5, 255359, Note_on_c, 2, 60, 0
5, 255840, Note_on_c, 2, 55, 80
5, 255840, Note_on_c, 2, 59, 80
5, 256079, Note_on_c, 2, 55, 0
5, 256079, Note_on_c, 2, 59, 0
5, 256080, Note_on_c, 2, 55, 80
5, 256080, Note_on_c, 2, 59, 80
5, 256559, Note_on_c, 2, 55, 0
5, 256559, Note_on_c, 2, 59, 0
5, 256800, Note_on_c, 2, 55, 80
5, 256800, Note_on_c, 2, 59, 80
5, 257279, Note_on_c, 2, 55, 0
5, 257279, Note_on_c, 2, 59, 0
5, 257760, Note_on_c, 2, 55, 80
5, 257760, Note_on_c, 2, 59, 80
5, 257999, Note_on_c, 2, 55, 0
5, 257999, Note_on_c, 2, 59, 0
5, 258000, Note_on_c, 2, 55, 80
5, 258000, Note_on_c, 2, 59, 80
5, 258479, Note_on_c, 2, 55, 0
5, 258479, Note_on_c, 2, 59, 0
5, 258720, Note_on_c, 2, 55, 80
5, 258720, Note_on_c, 2, 59, 80
5, 259199, Note_on_c, 2, 55, 0
5, 259199, Note_on_c, 2, 59, 0
5, 259680, Note_on_c, 2, 52, 80
5, 259680, Note_on_c, 2, 57, 80
5, 259919, Note_on_c, 2, 52, 0
5, 259919, Note_on_c, 2, 57, 0
5, 259920, Note_on_c, 2, 52, 80
5, 259920, Note_on_c, 2, 57, 80
5, 260399, Note_on_c, 2, 52, 0
5, 260399, Note_on_c, 2, 57, 0
5, 260640, Note_on_c, 2, 52, 80
5, 260640, Note_on_c, 2, 57, 80
5, 261119, Note_on_c, 2, 52, 0
5, 261119, Note_on_c, 2, 57, 0
5, 261600, Note_on_c, 2, 52, 80
5, 261600, Note_on_c, 2, 57, 80
5, 261839, Note_on_c, 2, 52, 0
5, 261839, Note_on_c, 2, 57, 0
5, 261840, Note_on_c, 2, 52, 80
5, 261840, Note_on_c, 2, 57, 80
5, 262319, Note_on_c, 2, 52, 0
5, 262319, Note_on_c, 2, 57, 0
5, 262560, Note_on_c, 2, 52, 80
5, 262560, Note_on_c, 2, 57, 80
5, 263039, Note_on_c, 2, 52, 0
5, 263039, Note_on_c, 2, 57, 0
5, 263520, Note_on_c, 2, 53, 80
5, 263520, Note_on_c, 2, 60, 80
5, 263759, Note_on_c, 2, 53, 0
5, 263759, Note_on_c, 2, 60, 0
5, 263760, Note_on_c, 2, 53, 80
5, 263760, Note_on_c, 2, 60, 80
5, 264239, Note_on_c, 2, 53, 0
5, 264239, Note_on_c, 2, 60, 0
5, 264480, Note_on_c, 2, 53, 80
5, 264480, Note_on_c, 2, 60, 80
5, 264959, Note_on_c, 2, 53, 0
5, 264959, Note_on_c, 2, 60, 0
5, 265440, Note_on_c, 2, 53, 80
5, 265440, Note_on_c, 2, 60, 80
5, 265679, Note_on_c, 2, 53, 0
5, 265679, Note_on_c, 2, 60, 0
5, 265680, Note_on_c, 2, 53, 80
5, 265680, Note_on_c, 2, 60, 80
5, 266159, Note_on_c, 2, 53, 0
5, 266159, Note_on_c, 2, 60, 0
5, 266400, Note_on_c, 2, 53, 80
5, 266400, Note_on_c, 2, 60, 80
5, 266879, Note_on_c, 2, 53, 0
5, 266879, Note_on_c, 2, 60, 0
5, 266880, End_track
0, 0, End_of_file
