0, 0, Header, 1, 5, 480
1, 0, Start_track
1, 0, Title_t, "Pardessus de viole, Violin\000"
1, 0, Time_signature, 3, 2, 24, 8
1, 0, Key_signature, 0, "major"
1, 0, Tempo, 560748
1, 0, Control_c, 2, 121, 0
1, 0, Program_c, 2, 40
1, 0, Control_c, 2, 7, 120
1, 0, Control_c, 2, 10, 64
1, 0, Control_c, 2, 91, 0
1, 0, Control_c, 2, 93, 0
1, 0, MIDI_port, 0
1, 0, Control_c, 4, 121, 0
1, 0, Program_c, 4, 45
1, 0, Control_c, 4, 7, 100
1, 0, Control_c, 4, 10, 64
1, 0, Control_c, 4, 91, 0
1, 0, Control_c, 4, 93, 0
1, 0, MIDI_port, 0
1, 0, Control_c, 5, 121, 0
1, 0, Program_c, 5, 44
1, 0, Control_c, 5, 7, 100
1, 0, Control_c, 5, 10, 64
1, 0, Control_c, 5, 91, 0
1, 0, Control_c, 5, 93, 0
1, 0, MIDI_port, 0
1, 54240, Note_on_c, 2, 71, 80
1, 54240, Control_c, 2, 2, 80
1, 54719, Note_on_c, 2, 71, 0
1, 54720, Note_on_c, 2, 74, 80
1, 55679, Note_on_c, 2, 74, 0
1, 56000, Note_on_c, 2, 69, 80
1, 56159, Note_on_c, 2, 69, 0
1, 56160, Note_on_c, 2, 76, 80
1, 56479, Note_on_c, 2, 76, 0
1, 56480, Note_on_c, 2, 76, 80
1, 57119, Note_on_c, 2, 76, 0
1, 57120, Note_on_c, 2, 74, 80
1, 57599, Note_on_c, 2, 74, 0
1, 57600, Note_on_c, 2, 72, 80
1, 59039, Note_on_c, 2, 72, 0
1, 59040, Note_on_c, 2, 74, 80
1, 59839, Note_on_c, 2, 74, 0
1, 59840, Note_on_c, 2, 72, 80
1, 59999, Note_on_c, 2, 72, 0
1, 60000, Note_on_c, 2, 74, 80
1, 60479, Note_on_c, 2, 74, 0
1, 60480, Note_on_c, 2, 76, 80
1, 61279, Note_on_c, 2, 76, 0
1, 61280, Note_on_c, 2, 74, 80
1, 61439, Note_on_c, 2, 74, 0
1, 61440, Note_on_c, 2, 72, 80
1, 61919, Note_on_c, 2, 72, 0
1, 61920, Note_on_c, 2, 64, 80
1, 61920, Note_on_c, 2, 67, 80
1, 62399, Note_on_c, 2, 64, 0
1, 62399, Note_on_c, 2, 67, 0
1, 62880, Note_on_c, 2, 64, 80
1, 62880, Note_on_c, 2, 67, 80
1, 63359, Note_on_c, 2, 64, 0
1, 63359, Note_on_c, 2, 67, 0
1, 63360, Note_on_c, 2, 65, 80
1, 63360, Note_on_c, 2, 69, 80
1, 63839, Note_on_c, 2, 65, 0
1, 63839, Note_on_c, 2, 69, 0
1, 63840, Note_on_c, 2, 67, 80
1, 63840, Note_on_c, 2, 71, 80
1, 64319, Note_on_c, 2, 67, 0
1, 64319, Note_on_c, 2, 71, 0
1, 64320, Note_on_c, 2, 69, 80
1, 64320, Note_on_c, 2, 72, 80
1, 64799, Note_on_c, 2, 69, 0
1, 64799, Note_on_c, 2, 72, 0
1, 64800, Note_on_c, 2, 64, 80
1, 64800, Note_on_c, 2, 67, 80
1, 65279, Note_on_c, 2, 64, 0
1, 65279, Note_on_c, 2, 67, 0
1, 65280, Note_on_c, 2, 64, 80
1, 65280, Note_on_c, 2, 69, 80
1, 65759, Note_on_c, 2, 64, 0
1, 65759, Note_on_c, 2, 69, 0
1, 65760, Note_on_c, 2, 67, 80
1, 65760, Note_on_c, 2, 72, 80
1, 66239, Note_on_c, 2, 67, 0
1, 66239, Note_on_c, 2, 72, 0
1, 66240, Note_on_c, 2, 65, 80
1, 66240, Note_on_c, 2, 74, 80
1, 67679, Note_on_c, 2, 65, 0
1, 67679, Note_on_c, 2, 74, 0
1, 67680, Note_on_c, 2, 67, 80
1, 67680, Note_on_c, 2, 76, 80
1, 69119, Note_on_c, 2, 67, 0
1, 69119, Note_on_c, 2, 76, 0
1, 69120, Note_on_c, 2, 64, 80
1, 69120, Note_on_c, 2, 72, 80
1, 70559, Note_on_c, 2, 64, 0
1, 70559, Note_on_c, 2, 72, 0
1, 72000, Note_on_c, 2, 48, 80
1, 73279, Note_on_c, 2, 48, 0
1, 73280, Note_on_c, 2, 55, 80
1, 73439, Note_on_c, 2, 55, 0
1, 73440, Note_on_c, 2, 57, 80
1, 74399, Note_on_c, 2, 57, 0
1, 74400, Note_on_c, 2, 48, 80
1, 74879, Note_on_c, 2, 48, 0
1, 74880, Note_on_c, 2, 50, 80
1, 76079, Note_on_c, 2, 50, 0
1, 76140, Note_on_c, 2, 53, 80
1, 76319, Note_on_c, 2, 53, 0
1, 76320, Note_on_c, 2, 55, 80
1, 77279, Note_on_c, 2, 55, 0
1, 77280, Note_on_c, 2, 55, 80
1, 77759, Note_on_c, 2, 55, 0
1, 77760, Note_on_c, 2, 48, 80
1, 78239, Note_on_c, 2, 48, 0
1, 78240, Note_on_c, 2, 52, 80
1, 78719, Note_on_c, 2, 52, 0
1, 78720, Note_on_c, 2, 55, 80
1, 79199, Note_on_c, 2, 55, 0
1, 79200, Note_on_c, 2, 57, 80
1, 80159, Note_on_c, 2, 57, 0
1, 80160, Note_on_c, 2, 55, 80
1, 80639, Note_on_c, 2, 55, 0
1, 80640, Note_on_c, 2, 53, 80
1, 81759, Note_on_c, 2, 53, 0
1, 81760, Note_on_c, 2, 55, 80
1, 81919, Note_on_c, 2, 55, 0
1, 81920, Note_on_c, 2, 57, 80
1, 82079, Note_on_c, 2, 57, 0
1, 82080, Note_on_c, 2, 55, 80
1, 82559, Note_on_c, 2, 55, 0
1, 82560, Note_on_c, 2, 53, 80
1, 83039, Note_on_c, 2, 53, 0
1, 83040, Note_on_c, 2, 50, 80
1, 83519, Note_on_c, 2, 50, 0
1, 83520, Note_on_c, 2, 48, 80
1, 84799, Note_on_c, 2, 48, 0
1, 84800, Note_on_c, 2, 55, 80
1, 84959, Note_on_c, 2, 55, 0
1, 84960, Note_on_c, 2, 57, 80
1, 85919, Note_on_c, 2, 57, 0
1, 85920, Note_on_c, 2, 55, 80
1, 86079, Note_on_c, 2, 55, 0
1, 86080, Note_on_c, 2, 53, 80
1, 86239, Note_on_c, 2, 53, 0
1, 86240, Note_on_c, 2, 52, 80
1, 86399, Note_on_c, 2, 52, 0
1, 86400, Note_on_c, 2, 50, 80
1, 86879, Note_on_c, 2, 50, 0
1, 86880, Note_on_c, 2, 52, 80
1, 87359, Note_on_c, 2, 52, 0
1, 87360, Note_on_c, 2, 53, 80
1, 87839, Note_on_c, 2, 53, 0
1, 87840, Note_on_c, 2, 55, 80
1, 88799, Note_on_c, 2, 55, 0
1, 88800, Note_on_c, 2, 50, 80
1, 89279, Note_on_c, 2, 50, 0
1, 89280, Note_on_c, 2, 48, 80
1, 90399, Note_on_c, 2, 48, 0
1, 90400, Note_on_c, 2, 52, 80
1, 90559, Note_on_c, 2, 52, 0
1, 90560, Note_on_c, 2, 55, 80
1, 90719, Note_on_c, 2, 55, 0
1, 90720, Note_on_c, 2, 57, 80
1, 91199, Note_on_c, 2, 57, 0
1, 91200, Note_on_c, 2, 48, 80
1, 91679, Note_on_c, 2, 48, 0
1, 91680, Note_on_c, 2, 52, 80
1, 92159, Note_on_c, 2, 52, 0
1, 92160, Note_on_c, 2, 53, 80
1, 93599, Note_on_c, 2, 53, 0
1, 93600, Note_on_c, 2, 53, 80
1, 94719, Note_on_c, 2, 53, 0
1, 94720, Note_on_c, 2, 52, 80
1, 94879, Note_on_c, 2, 52, 0
1, 94880, Note_on_c, 2, 48, 80
1, 95039, Note_on_c, 2, 48, 0
1, 95040, Note_on_c, 2, 60, 80
1, 95040, Note_on_c, 2, 64, 80
1, 95040, Note_on_c, 2, 69, 80
1, 96479, Note_on_c, 2, 60, 0
1, 96479, Note_on_c, 2, 64, 0
1, 96479, Note_on_c, 2, 69, 0
1, 96480, Note_on_c, 2, 71, 80
1, 97919, Note_on_c, 2, 71, 0
1, 97920, Note_on_c, 2, 60, 80
1, 97920, Note_on_c, 2, 64, 80
1, 97920, Note_on_c, 2, 72, 80
1, 99359, Note_on_c, 2, 60, 0
1, 99359, Note_on_c, 2, 64, 0
1, 99359, Note_on_c, 2, 72, 0
1, 99360, Note_on_c, 2, 64, 80
1, 99360, Note_on_c, 2, 69, 80
1, 100319, Note_on_c, 2, 64, 0
1, 100319, Note_on_c, 2, 69, 0
1, 100320, Note_on_c, 2, 60, 80
1, 100320, Note_on_c, 2, 64, 80
1, 100320, Note_on_c, 2, 72, 80
1, 100799, Note_on_c, 2, 60, 0
1, 100799, Note_on_c, 2, 64, 0
1, 100799, Note_on_c, 2, 72, 0
1, 100800, Note_on_c, 2, 62, 80
1, 100800, Note_on_c, 2, 67, 80
1, 100800, Note_on_c, 2, 71, 80
1, 101759, Note_on_c, 2, 62, 0
1, 101759, Note_on_c, 2, 67, 0
1, 101759, Note_on_c, 2, 71, 0
1, 102240, Note_on_c, 2, 64, 80
1, 102719, Note_on_c, 2, 64, 0
1, 102720, Note_on_c, 2, 67, 80
1, 103199, Note_on_c, 2, 67, 0
1, 103200, Note_on_c, 2, 71, 80
1, 103679, Note_on_c, 2, 71, 0
1, 106080, Note_on_c, 2, 64, 80
1, 106559, Note_on_c, 2, 64, 0
1, 106560, Note_on_c, 2, 62, 80
1, 106560, Note_on_c, 2, 65, 80
1, 107039, Note_on_c, 2, 62, 0
1, 107039, Note_on_c, 2, 65, 0
1, 107040, Note_on_c, 2, 64, 80
1, 107040, Note_on_c, 2, 69, 80
1, 107519, Note_on_c, 2, 64, 0
1, 107519, Note_on_c, 2, 69, 0
1, 107520, Note_on_c, 2, 65, 80
1, 107520, Note_on_c, 2, 69, 80
1, 107520, Note_on_c, 2, 72, 80
1, 107999, Note_on_c, 2, 65, 0
1, 107999, Note_on_c, 2, 69, 0
1, 107999, Note_on_c, 2, 72, 0
1, 108000, Note_on_c, 2, 67, 80
1, 108000, Note_on_c, 2, 71, 80
1, 108479, Note_on_c, 2, 67, 0
1, 108479, Note_on_c, 2, 71, 0
1, 108480, Note_on_c, 2, 69, 80
1, 108480, Note_on_c, 2, 72, 80
1, 108959, Note_on_c, 2, 69, 0
1, 108959, Note_on_c, 2, 72, 0
1, 108960, Note_on_c, 2, 71, 80
1, 108960, Note_on_c, 2, 74, 80
1, 109279, Note_on_c, 2, 71, 0
1, 109279, Note_on_c, 2, 74, 0
1, 109280, Note_on_c, 2, 72, 80
1, 109439, Note_on_c, 2, 72, 0
1, 109440, Note_on_c, 2, 64, 80
1, 109440, Note_on_c, 2, 67, 80
1, 109919, Note_on_c, 2, 64, 0
1, 109919, Note_on_c, 2, 67, 0
1, 109920, Note_on_c, 2, 67, 80
1, 109920, Note_on_c, 2, 71, 80
1, 110399, Note_on_c, 2, 67, 0
1, 110399, Note_on_c, 2, 71, 0
1, 110400, Note_on_c, 2, 71, 80
1, 110400, Note_on_c, 2, 74, 80
1, 110719, Note_on_c, 2, 71, 0
1, 110719, Note_on_c, 2, 74, 0
1, 110720, Note_on_c, 2, 71, 80
1, 111199, Note_on_c, 2, 71, 0
1, 111200, Note_on_c, 2, 71, 80
1, 111839, Note_on_c, 2, 71, 0
1, 112160, Note_on_c, 2, 64, 80
1, 112319, Note_on_c, 2, 64, 0
1, 112320, Note_on_c, 2, 57, 80
1, 112320, Note_on_c, 2, 62, 80
1, 112320, Note_on_c, 2, 65, 80
1, 112639, Note_on_c, 2, 57, 0
1, 112639, Note_on_c, 2, 62, 0
1, 112639, Note_on_c, 2, 65, 0
1, 112640, Note_on_c, 2, 69, 80
1, 113279, Note_on_c, 2, 69, 0
1, 113600, Note_on_c, 2, 72, 80
1, 113759, Note_on_c, 2, 72, 0
1, 113760, Note_on_c, 2, 76, 80
1, 114079, Note_on_c, 2, 76, 0
1, 114080, Note_on_c, 2, 76, 80
1, 114719, Note_on_c, 2, 76, 0
1, 114720, Note_on_c, 2, 74, 80
1, 115199, Note_on_c, 2, 74, 0
1, 115200, Note_on_c, 2, 72, 80
1, 115200, Note_on_c, 2, 76, 80
1, 116639, Note_on_c, 2, 72, 0
1, 116639, Note_on_c, 2, 76, 0
1, 116640, Note_on_c, 2, 59, 80
1, 116640, Note_on_c, 2, 67, 80
1, 118079, Note_on_c, 2, 59, 0
1, 118079, Note_on_c, 2, 67, 0
1, 118080, Note_on_c, 2, 60, 80
1, 118080, Note_on_c, 2, 67, 80
1, 119519, Note_on_c, 2, 60, 0
1, 119519, Note_on_c, 2, 67, 0
1, 119520, Note_on_c, 2, 64, 80
1, 119520, Note_on_c, 2, 67, 80
1, 120479, Note_on_c, 2, 64, 0
1, 120479, Note_on_c, 2, 67, 0
1, 120480, Note_on_c, 2, 67, 80
1, 120959, Note_on_c, 2, 67, 0
1, 120960, Tempo, 582524
1, 120960, Note_on_c, 2, 65, 80
1, 120960, Note_on_c, 2, 69, 80
1, 121439, Note_on_c, 2, 65, 0
1, 121439, Note_on_c, 2, 69, 0
1, 121440, Tempo, 606061
1, 121440, Note_on_c, 2, 67, 80
1, 121440, Note_on_c, 2, 71, 80
1, 121919, Note_on_c, 2, 67, 0
1, 121919, Note_on_c, 2, 71, 0
1, 121920, Tempo, 625000
1, 121920, Note_on_c, 2, 69, 80
1, 121920, Note_on_c, 2, 72, 80
1, 122399, Note_on_c, 2, 69, 0
1, 122399, Note_on_c, 2, 72, 0
1, 122400, Tempo, 645161
1, 122400, Note_on_c, 2, 67, 80
1, 122400, Note_on_c, 2, 71, 80
1, 122879, Note_on_c, 2, 67, 0
1, 122879, Note_on_c, 2, 71, 0
1, 122880, Note_on_c, 2, 67, 80
1, 122880, Note_on_c, 2, 72, 80
1, 123359, Note_on_c, 2, 67, 0
1, 123359, Note_on_c, 2, 72, 0
1, 123360, Tempo, 674157
1, 123360, Note_on_c, 2, 65, 80
1, 123360, Note_on_c, 2, 71, 80
1, 123839, Note_on_c, 2, 65, 0
1, 123839, Note_on_c, 2, 71, 0
1, 123840, Tempo, 722892
1, 123840, Note_on_c, 2, 64, 80
1, 123840, Note_on_c, 2, 72, 80
1, 126719, Note_on_c, 2, 64, 0
1, 126719, Note_on_c, 2, 72, 0
1, 126720, Tempo, 540541
1, 132480, Note_on_c, 2, 64, 80
1, 132959, Note_on_c, 2, 64, 0
1, 132960, Note_on_c, 2, 67, 80
1, 133439, Note_on_c, 2, 67, 0
1, 133440, Note_on_c, 2, 72, 80
1, 133919, Note_on_c, 2, 72, 0
1, 133920, Note_on_c, 2, 74, 80
1, 134239, Note_on_c, 2, 74, 0
1, 134240, Note_on_c, 2, 76, 80
1, 134399, Note_on_c, 2, 76, 0
1, 134400, Note_on_c, 2, 76, 80
1, 134879, Note_on_c, 2, 76, 0
1, 135200, Note_on_c, 2, 64, 80
1, 135359, Note_on_c, 2, 64, 0
1, 135360, Note_on_c, 2, 65, 80
1, 136159, Note_on_c, 2, 65, 0
1, 136160, Note_on_c, 2, 67, 80
1, 136319, Note_on_c, 2, 67, 0
1, 136320, Note_on_c, 2, 72, 80
1, 136639, Note_on_c, 2, 72, 0
1, 136640, Note_on_c, 2, 72, 80
1, 137119, Note_on_c, 2, 72, 0
1, 137120, Note_on_c, 2, 74, 80
1, 137759, Note_on_c, 2, 74, 0
1, 138080, Note_on_c, 2, 62, 80
1, 138239, Note_on_c, 2, 62, 0
1, 138240, Note_on_c, 2, 64, 80
1, 138719, Note_on_c, 2, 64, 0
1, 138720, Note_on_c, 2, 67, 80
1, 139199, Note_on_c, 2, 67, 0
1, 139200, Note_on_c, 2, 71, 80
1, 139679, Note_on_c, 2, 71, 0
1, 139680, Note_on_c, 2, 72, 80
1, 140639, Note_on_c, 2, 72, 0
1, 140640, Note_on_c, 2, 67, 80
1, 141119, Note_on_c, 2, 67, 0
1, 141120, Note_on_c, 2, 69, 80
1, 141599, Note_on_c, 2, 69, 0
1, 141600, Note_on_c, 2, 65, 80
1, 142079, Note_on_c, 2, 65, 0
1, 142080, Note_on_c, 2, 64, 80
1, 142559, Note_on_c, 2, 64, 0
1, 142560, Note_on_c, 2, 67, 80
1, 142560, Note_on_c, 2, 74, 80
1, 143519, Note_on_c, 2, 67, 0
1, 143519, Note_on_c, 2, 74, 0
1, 143520, Note_on_c, 2, 69, 80
1, 143520, Note_on_c, 2, 74, 80
1, 143999, Note_on_c, 2, 69, 0
1, 143999, Note_on_c, 2, 74, 0
1, 144000, Note_on_c, 2, 64, 80
1, 144479, Note_on_c, 2, 64, 0
1, 144480, Note_on_c, 2, 67, 80
1, 144959, Note_on_c, 2, 67, 0
1, 144960, Note_on_c, 2, 72, 80
1, 145439, Note_on_c, 2, 72, 0
1, 145440, Note_on_c, 2, 74, 80
1, 145759, Note_on_c, 2, 74, 0
1, 145760, Note_on_c, 2, 76, 80
1, 146399, Note_on_c, 2, 76, 0
1, 146880, Note_on_c, 2, 65, 80
1, 147359, Note_on_c, 2, 65, 0
1, 147360, Note_on_c, 2, 67, 80
1, 147839, Note_on_c, 2, 67, 0
1, 147840, Note_on_c, 2, 72, 80
1, 148319, Note_on_c, 2, 72, 0
1, 148320, Note_on_c, 2, 72, 80
1, 148639, Note_on_c, 2, 72, 0
1, 148640, Note_on_c, 2, 74, 80
1, 149279, Note_on_c, 2, 74, 0
1, 149600, Note_on_c, 2, 62, 80
1, 149759, Note_on_c, 2, 62, 0
1, 149760, Note_on_c, 2, 64, 80
1, 150239, Note_on_c, 2, 64, 0
1, 150240, Note_on_c, 2, 67, 80
1, 150719, Note_on_c, 2, 67, 0
1, 150720, Note_on_c, 2, 71, 80
1, 151199, Note_on_c, 2, 71, 0
1, 151200, Note_on_c, 2, 72, 80
1, 152159, Note_on_c, 2, 72, 0
1, 152160, Note_on_c, 2, 71, 80
1, 152639, Note_on_c, 2, 71, 0
1, 152640, Note_on_c, 2, 69, 80
1, 154079, Note_on_c, 2, 69, 0
1, 154080, End_track
2, 0, Start_track
2, 0, Title_t, "Piano, Minstrel\000"
2, 0, Key_signature, 0, "major"
2, 0, Control_c, 3, 121, 0
2, 0, Program_c, 3, 0
2, 0, Control_c, 3, 7, 100
2, 0, Control_c, 3, 10, 64
2, 0, Control_c, 3, 91, 0
2, 0, Control_c, 3, 93, 0
2, 0, MIDI_port, 0
2, 8640, Note_on_c, 3, 48, 80
2, 9095, Note_on_c, 3, 48, 0
2, 9120, Note_on_c, 3, 60, 80
2, 9120, Note_on_c, 3, 64, 80
2, 9575, Note_on_c, 3, 60, 0
2, 9575, Note_on_c, 3, 64, 0
2, 9600, Note_on_c, 3, 60, 80
2, 9600, Note_on_c, 3, 64, 80
2, 9903, Note_on_c, 3, 60, 0
2, 9903, Note_on_c, 3, 64, 0
2, 9920, Note_on_c, 3, 55, 80
2, 10071, Note_on_c, 3, 55, 0
2, 10080, Note_on_c, 3, 48, 80
2, 10400, Note_on_c, 3, 57, 80
2, 10560, Note_on_c, 3, 60, 80
2, 10560, Note_on_c, 3, 65, 80
2, 10799, Note_on_c, 3, 60, 0
2, 10799, Note_on_c, 3, 65, 0
2, 11447, Note_on_c, 3, 48, 0
2, 11463, Note_on_c, 3, 57, 0
2, 11520, Note_on_c, 3, 48, 80
2, 11840, Note_on_c, 3, 55, 80
2, 11991, Note_on_c, 3, 55, 0
2, 12000, Note_on_c, 3, 60, 80
2, 12000, Note_on_c, 3, 64, 80
2, 12303, Note_on_c, 3, 60, 0
2, 12303, Note_on_c, 3, 64, 0
2, 12320, Note_on_c, 3, 55, 80
2, 12471, Note_on_c, 3, 55, 0
2, 12480, Note_on_c, 3, 60, 80
2, 12480, Note_on_c, 3, 64, 80
2, 12783, Note_on_c, 3, 60, 0
2, 12783, Note_on_c, 3, 64, 0
2, 12800, Note_on_c, 3, 55, 80
2, 12887, Note_on_c, 3, 48, 0
2, 12951, Note_on_c, 3, 55, 0
2, 12960, Note_on_c, 3, 48, 80
2, 13440, Note_on_c, 3, 60, 80
2, 13440, Note_on_c, 3, 65, 80
2, 13895, Note_on_c, 3, 60, 0
2, 13895, Note_on_c, 3, 65, 0
2, 14327, Note_on_c, 3, 48, 0
2, 14400, Note_on_c, 3, 67, 80
2, 14400, Note_on_c, 3, 71, 80
2, 14400, Note_on_c, 3, 76, 80
2, 14855, Note_on_c, 3, 67, 0
2, 14855, Note_on_c, 3, 71, 0
2, 14855, Note_on_c, 3, 76, 0
2, 15360, Note_on_c, 3, 67, 80
2, 15360, Note_on_c, 3, 71, 80
2, 15360, Note_on_c, 3, 76, 80
2, 15815, Note_on_c, 3, 67, 0
2, 15815, Note_on_c, 3, 71, 0
2, 15815, Note_on_c, 3, 76, 0
2, 15840, Note_on_c, 3, 67, 80
2, 15840, Note_on_c, 3, 76, 80
2, 15840, Note_on_c, 3, 71, 80
2, 16295, Note_on_c, 3, 71, 0
2, 16320, Note_on_c, 3, 72, 80
2, 16775, Note_on_c, 3, 72, 0
2, 16800, Note_on_c, 3, 71, 80
2, 17207, Note_on_c, 3, 67, 0
2, 17207, Note_on_c, 3, 76, 0
2, 17255, Note_on_c, 3, 71, 0
2, 17280, Note_on_c, 3, 65, 80
2, 17280, Note_on_c, 3, 69, 80
2, 17280, Note_on_c, 3, 74, 80
2, 18191, Note_on_c, 3, 65, 0
2, 18191, Note_on_c, 3, 69, 0
2, 18191, Note_on_c, 3, 74, 0
2, 18240, Note_on_c, 3, 65, 80
2, 18240, Note_on_c, 3, 69, 80
2, 18240, Note_on_c, 3, 74, 80
2, 18695, Note_on_c, 3, 65, 0
2, 18695, Note_on_c, 3, 69, 0
2, 18695, Note_on_c, 3, 74, 0
2, 18720, Note_on_c, 3, 65, 80
2, 18720, Note_on_c, 3, 69, 80
2, 18720, Note_on_c, 3, 74, 80
2, 19631, Note_on_c, 3, 65, 0
2, 19631, Note_on_c, 3, 69, 0
2, 19631, Note_on_c, 3, 74, 0
2, 19680, Note_on_c, 3, 65, 80
2, 19680, Note_on_c, 3, 69, 80
2, 19680, Note_on_c, 3, 74, 80
2, 20135, Note_on_c, 3, 65, 0
2, 20135, Note_on_c, 3, 69, 0
2, 20135, Note_on_c, 3, 74, 0
2, 20160, Note_on_c, 3, 64, 80
2, 20160, Note_on_c, 3, 67, 80
2, 20160, Note_on_c, 3, 72, 80
2, 21071, Note_on_c, 3, 64, 0
2, 21071, Note_on_c, 3, 67, 0
2, 21071, Note_on_c, 3, 72, 0
2, 21120, Note_on_c, 3, 64, 80
2, 21120, Note_on_c, 3, 67, 80
2, 21120, Note_on_c, 3, 72, 80
2, 21575, Note_on_c, 3, 64, 0
2, 21575, Note_on_c, 3, 67, 0
2, 21575, Note_on_c, 3, 72, 0
2, 21600, Note_on_c, 3, 64, 80
2, 21600, Note_on_c, 3, 72, 80
2, 21600, Note_on_c, 3, 67, 80
2, 22055, Note_on_c, 3, 67, 0
2, 22080, Note_on_c, 3, 69, 80
2, 22535, Note_on_c, 3, 69, 0
2, 22560, Note_on_c, 3, 67, 80
2, 22967, Note_on_c, 3, 64, 0
2, 22967, Note_on_c, 3, 72, 0
2, 23015, Note_on_c, 3, 67, 0
2, 23040, Note_on_c, 3, 69, 80
2, 23040, Note_on_c, 3, 72, 80
2, 24407, Note_on_c, 3, 69, 0
2, 24407, Note_on_c, 3, 72, 0
2, 24480, Note_on_c, 3, 65, 80
2, 24480, Note_on_c, 3, 69, 80
2, 24480, Note_on_c, 3, 74, 80
2, 24935, Note_on_c, 3, 65, 0
2, 24935, Note_on_c, 3, 69, 0
2, 24935, Note_on_c, 3, 74, 0
2, 24960, Note_on_c, 3, 72, 80
2, 25415, Note_on_c, 3, 72, 0
2, 25440, Note_on_c, 3, 65, 80
2, 25440, Note_on_c, 3, 69, 80
2, 25440, Note_on_c, 3, 74, 80
2, 25619, Note_on_c, 3, 65, 0
2, 25619, Note_on_c, 3, 69, 0
2, 25619, Note_on_c, 3, 74, 0
2, 25800, Note_on_c, 3, 67, 80
2, 25856, Note_on_c, 3, 67, 0
2, 25860, Note_on_c, 3, 71, 80
2, 25916, Note_on_c, 3, 71, 0
2, 25920, Note_on_c, 3, 76, 80
2, 26159, Note_on_c, 3, 76, 0
2, 26880, Note_on_c, 3, 67, 80
2, 26880, Note_on_c, 3, 71, 80
2, 26880, Note_on_c, 3, 76, 80
2, 27335, Note_on_c, 3, 67, 0
2, 27335, Note_on_c, 3, 71, 0
2, 27335, Note_on_c, 3, 76, 0
2, 27360, Note_on_c, 3, 67, 80
2, 27360, Note_on_c, 3, 76, 80
2, 27360, Note_on_c, 3, 71, 80
2, 27815, Note_on_c, 3, 71, 0
2, 27840, Note_on_c, 3, 72, 80
2, 28271, Note_on_c, 3, 76, 0
2, 28295, Note_on_c, 3, 72, 0
2, 28320, Note_on_c, 3, 71, 80
2, 28320, Note_on_c, 3, 76, 80
2, 28727, Note_on_c, 3, 67, 0
2, 28775, Note_on_c, 3, 71, 0
2, 28775, Note_on_c, 3, 76, 0
2, 28800, Note_on_c, 3, 65, 80
2, 28800, Note_on_c, 3, 69, 80
2, 28800, Note_on_c, 3, 74, 80
2, 29711, Note_on_c, 3, 65, 0
2, 29711, Note_on_c, 3, 69, 0
2, 29711, Note_on_c, 3, 74, 0
2, 29760, Note_on_c, 3, 65, 80
2, 29760, Note_on_c, 3, 69, 80
2, 29760, Note_on_c, 3, 74, 80
2, 30215, Note_on_c, 3, 65, 0
2, 30215, Note_on_c, 3, 69, 0
2, 30215, Note_on_c, 3, 74, 0
2, 30240, Note_on_c, 3, 65, 80
2, 30240, Note_on_c, 3, 69, 80
2, 30240, Note_on_c, 3, 74, 80
2, 31151, Note_on_c, 3, 65, 0
2, 31151, Note_on_c, 3, 69, 0
2, 31151, Note_on_c, 3, 74, 0
2, 31200, Note_on_c, 3, 69, 80
2, 31200, Note_on_c, 3, 74, 80
2, 31200, Note_on_c, 3, 77, 80
2, 31655, Note_on_c, 3, 69, 0
2, 31655, Note_on_c, 3, 74, 0
2, 31655, Note_on_c, 3, 77, 0
2, 31680, Note_on_c, 3, 67, 80
2, 31680, Note_on_c, 3, 72, 80
2, 31680, Note_on_c, 3, 76, 80
2, 32591, Note_on_c, 3, 67, 0
2, 32591, Note_on_c, 3, 72, 0
2, 32591, Note_on_c, 3, 76, 0
2, 32640, Note_on_c, 3, 64, 80
2, 32640, Note_on_c, 3, 67, 80
2, 32640, Note_on_c, 3, 74, 80
2, 33095, Note_on_c, 3, 64, 0
2, 33095, Note_on_c, 3, 67, 0
2, 33095, Note_on_c, 3, 74, 0
2, 33120, Note_on_c, 3, 64, 80
2, 33120, Note_on_c, 3, 72, 80
2, 33120, Note_on_c, 3, 67, 80
2, 33575, Note_on_c, 3, 67, 0
2, 33600, Note_on_c, 3, 69, 80
2, 34031, Note_on_c, 3, 72, 0
2, 34055, Note_on_c, 3, 69, 0
2, 34080, Note_on_c, 3, 67, 80
2, 34080, Note_on_c, 3, 71, 80
2, 34487, Note_on_c, 3, 64, 0
2, 34535, Note_on_c, 3, 67, 0
2, 34535, Note_on_c, 3, 71, 0
2, 34560, Note_on_c, 3, 69, 80
2, 34560, Note_on_c, 3, 72, 80
2, 35927, Note_on_c, 3, 69, 0
2, 35927, Note_on_c, 3, 72, 0
2, 36000, Note_on_c, 3, 69, 80
2, 36000, Note_on_c, 3, 72, 80
2, 36911, Note_on_c, 3, 69, 0
2, 36911, Note_on_c, 3, 72, 0
2, 37440, Note_on_c, 3, 69, 80
2, 37440, Note_on_c, 3, 72, 80
2, 38807, Note_on_c, 3, 72, 0
2, 38880, Note_on_c, 3, 71, 80
2, 38880, Note_on_c, 3, 76, 80
2, 40175, Note_on_c, 3, 69, 0
2, 40247, Note_on_c, 3, 71, 0
2, 40247, Note_on_c, 3, 76, 0
2, 40320, Note_on_c, 3, 69, 80
2, 40320, Note_on_c, 3, 72, 80
2, 40320, Note_on_c, 3, 77, 80
2, 41231, Note_on_c, 3, 69, 0
2, 41231, Note_on_c, 3, 72, 0
2, 41231, Note_on_c, 3, 77, 0
2, 41760, Note_on_c, 3, 69, 80
2, 41820, Note_on_c, 3, 72, 80
2, 41880, Note_on_c, 3, 81, 80
2, 41990, Note_on_c, 3, 72, 0
2, 41999, Note_on_c, 3, 69, 0
2, 42059, Note_on_c, 3, 81, 0
2, 42240, Note_on_c, 3, 71, 80
2, 42240, Note_on_c, 3, 79, 80
2, 42695, Note_on_c, 3, 71, 0
2, 42695, Note_on_c, 3, 79, 0
2, 42720, Note_on_c, 3, 69, 80
2, 42720, Note_on_c, 3, 72, 80
2, 42720, Note_on_c, 3, 77, 80
2, 43175, Note_on_c, 3, 69, 0
2, 43175, Note_on_c, 3, 72, 0
2, 43175, Note_on_c, 3, 77, 0
2, 43200, Note_on_c, 3, 71, 80
2, 43200, Note_on_c, 3, 76, 80
2, 43200, Note_on_c, 3, 67, 80
2, 44111, Note_on_c, 3, 67, 0
2, 44160, Note_on_c, 3, 67, 80
2, 44320, Note_on_c, 3, 74, 80
2, 44471, Note_on_c, 3, 74, 0
2, 44480, Note_on_c, 3, 72, 80
2, 44567, Note_on_c, 3, 71, 0
2, 44567, Note_on_c, 3, 76, 0
2, 44631, Note_on_c, 3, 72, 0
2, 44640, Note_on_c, 3, 71, 80
2, 44640, Note_on_c, 3, 64, 80
2, 44843, Note_on_c, 3, 67, 0
2, 44879, Note_on_c, 3, 64, 0
2, 45120, Note_on_c, 3, 67, 80
2, 45551, Note_on_c, 3, 71, 0
2, 45575, Note_on_c, 3, 67, 0
2, 45600, Note_on_c, 3, 67, 80
2, 45600, Note_on_c, 3, 71, 80
2, 46055, Note_on_c, 3, 67, 0
2, 46055, Note_on_c, 3, 71, 0
2, 46080, Note_on_c, 3, 67, 80
2, 46080, Note_on_c, 3, 71, 80
2, 47447, Note_on_c, 3, 67, 0
2, 47447, Note_on_c, 3, 71, 0
2, 47520, Note_on_c, 3, 64, 80
2, 47520, Note_on_c, 3, 67, 80
2, 47520, Note_on_c, 3, 72, 80
2, 48431, Note_on_c, 3, 64, 0
2, 48431, Note_on_c, 3, 67, 0
2, 48431, Note_on_c, 3, 72, 0
2, 48480, Note_on_c, 3, 64, 80
2, 48480, Note_on_c, 3, 67, 80
2, 48480, Note_on_c, 3, 72, 80
2, 48935, Note_on_c, 3, 64, 0
2, 48935, Note_on_c, 3, 67, 0
2, 48935, Note_on_c, 3, 72, 0
2, 48960, Note_on_c, 3, 65, 80
2, 48960, Note_on_c, 3, 69, 80
2, 48960, Note_on_c, 3, 74, 80
2, 49871, Note_on_c, 3, 65, 0
2, 49871, Note_on_c, 3, 69, 0
2, 49871, Note_on_c, 3, 74, 0
2, 49920, Note_on_c, 3, 74, 80
2, 49920, Note_on_c, 3, 65, 80
2, 49920, Note_on_c, 3, 69, 80
2, 50223, Note_on_c, 3, 74, 0
2, 50240, Note_on_c, 3, 72, 80
2, 50375, Note_on_c, 3, 65, 0
2, 50375, Note_on_c, 3, 69, 0
2, 50391, Note_on_c, 3, 72, 0
2, 50400, Note_on_c, 3, 65, 80
2, 50400, Note_on_c, 3, 67, 80
2, 50400, Note_on_c, 3, 71, 80
2, 51311, Note_on_c, 3, 65, 0
2, 51311, Note_on_c, 3, 67, 0
2, 51311, Note_on_c, 3, 71, 0
2, 51360, Note_on_c, 3, 65, 80
2, 51360, Note_on_c, 3, 67, 80
2, 51360, Note_on_c, 3, 74, 80
2, 51815, Note_on_c, 3, 65, 0
2, 51815, Note_on_c, 3, 67, 0
2, 51815, Note_on_c, 3, 74, 0
2, 51840, Note_on_c, 3, 67, 80
2, 51840, Note_on_c, 3, 71, 80
2, 51840, Note_on_c, 3, 76, 80
2, 52751, Note_on_c, 3, 67, 0
2, 52751, Note_on_c, 3, 71, 0
2, 52751, Note_on_c, 3, 76, 0
2, 52800, Note_on_c, 3, 76, 80
2, 52800, Note_on_c, 3, 67, 80
2, 52800, Note_on_c, 3, 71, 80
2, 53103, Note_on_c, 3, 76, 0
2, 53120, Note_on_c, 3, 74, 80
2, 53255, Note_on_c, 3, 67, 0
2, 53255, Note_on_c, 3, 71, 0
2, 53271, Note_on_c, 3, 74, 0
2, 53280, Note_on_c, 3, 67, 80
2, 53280, Note_on_c, 3, 71, 80
2, 53760, Note_on_c, 3, 74, 80
2, 54215, Note_on_c, 3, 74, 0
2, 54240, Note_on_c, 3, 76, 80
2, 54647, Note_on_c, 3, 67, 0
2, 54647, Note_on_c, 3, 71, 0
2, 54695, Note_on_c, 3, 76, 0
2, 54720, Note_on_c, 3, 65, 80
2, 54720, Note_on_c, 3, 69, 80
2, 54720, Note_on_c, 3, 77, 80
2, 56087, Note_on_c, 3, 65, 0
2, 56087, Note_on_c, 3, 69, 0
2, 56087, Note_on_c, 3, 77, 0
2, 56160, Note_on_c, 3, 65, 80
2, 56160, Note_on_c, 3, 71, 80
2, 57527, Note_on_c, 3, 65, 0
2, 57527, Note_on_c, 3, 71, 0
2, 57600, Note_on_c, 3, 64, 80
2, 58967, Note_on_c, 3, 64, 0
2, 59040, Note_on_c, 3, 67, 80
2, 59040, Note_on_c, 3, 71, 80
2, 60407, Note_on_c, 3, 67, 0
2, 60407, Note_on_c, 3, 71, 0
2, 60480, Note_on_c, 3, 67, 80
2, 60480, Note_on_c, 3, 72, 80
2, 61847, Note_on_c, 3, 67, 0
2, 61847, Note_on_c, 3, 72, 0
2, 83040, Note_on_c, 3, 74, 80
2, 83495, Note_on_c, 3, 74, 0
2, 83520, Note_on_c, 3, 72, 80
2, 83520, Note_on_c, 3, 76, 80
2, 86255, Note_on_c, 3, 72, 0
2, 86255, Note_on_c, 3, 76, 0
2, 86400, Note_on_c, 3, 69, 80
2, 86400, Note_on_c, 3, 74, 80
2, 87767, Note_on_c, 3, 69, 0
2, 87767, Note_on_c, 3, 74, 0
2, 87840, Note_on_c, 3, 72, 80
2, 87840, Note_on_c, 3, 77, 80
2, 89207, Note_on_c, 3, 72, 0
2, 89207, Note_on_c, 3, 77, 0
2, 89280, Note_on_c, 3, 71, 80
2, 89280, Note_on_c, 3, 76, 80
2, 90191, Note_on_c, 3, 71, 0
2, 90191, Note_on_c, 3, 76, 0
2, 90240, Note_on_c, 3, 69, 80
2, 90240, Note_on_c, 3, 74, 80
2, 90695, Note_on_c, 3, 69, 0
2, 90695, Note_on_c, 3, 74, 0
2, 90720, Note_on_c, 3, 67, 80
2, 90720, Note_on_c, 3, 72, 80
2, 91631, Note_on_c, 3, 67, 0
2, 91631, Note_on_c, 3, 72, 0
2, 91680, Note_on_c, 3, 67, 80
2, 91680, Note_on_c, 3, 71, 80
2, 92135, Note_on_c, 3, 67, 0
2, 92135, Note_on_c, 3, 71, 0
2, 95040, Note_on_c, 3, 76, 80
2, 95495, Note_on_c, 3, 76, 0
2, 95520, Note_on_c, 3, 72, 80
2, 95975, Note_on_c, 3, 72, 0
2, 96000, Note_on_c, 3, 69, 80
2, 96455, Note_on_c, 3, 69, 0
2, 96480, Note_on_c, 3, 76, 80
2, 96935, Note_on_c, 3, 76, 0
2, 96960, Note_on_c, 3, 71, 80
2, 97415, Note_on_c, 3, 71, 0
2, 97440, Note_on_c, 3, 69, 80
2, 97895, Note_on_c, 3, 69, 0
2, 97920, Note_on_c, 3, 76, 80
2, 98375, Note_on_c, 3, 76, 0
2, 98400, Note_on_c, 3, 72, 80
2, 98855, Note_on_c, 3, 72, 0
2, 98880, Note_on_c, 3, 69, 80
2, 99335, Note_on_c, 3, 69, 0
2, 99360, Note_on_c, 3, 76, 80
2, 99815, Note_on_c, 3, 76, 0
2, 99840, Note_on_c, 3, 72, 80
2, 100295, Note_on_c, 3, 72, 0
2, 100320, Note_on_c, 3, 69, 80
2, 100775, Note_on_c, 3, 69, 0
2, 100800, Note_on_c, 3, 74, 80
2, 101255, Note_on_c, 3, 74, 0
2, 101280, Note_on_c, 3, 71, 80
2, 101735, Note_on_c, 3, 71, 0
2, 101760, Note_on_c, 3, 67, 80
2, 102215, Note_on_c, 3, 67, 0
2, 102240, Note_on_c, 3, 74, 80
2, 102695, Note_on_c, 3, 74, 0
2, 102720, Note_on_c, 3, 71, 80
2, 103175, Note_on_c, 3, 71, 0
2, 103200, Note_on_c, 3, 67, 80
2, 103655, Note_on_c, 3, 67, 0
2, 103680, Note_on_c, 3, 74, 80
2, 104135, Note_on_c, 3, 74, 0
2, 104160, Note_on_c, 3, 71, 80
2, 104615, Note_on_c, 3, 71, 0
2, 104640, Note_on_c, 3, 67, 80
2, 105095, Note_on_c, 3, 67, 0
2, 105120, Note_on_c, 3, 69, 80
2, 106487, Note_on_c, 3, 69, 0
2, 106560, Note_on_c, 3, 53, 80
2, 109295, Note_on_c, 3, 53, 0
2, 109440, Note_on_c, 3, 55, 80
2, 110807, Note_on_c, 3, 55, 0
2, 110880, Note_on_c, 3, 71, 80
2, 110880, Note_on_c, 3, 67, 80
2, 111335, Note_on_c, 3, 71, 0
2, 111360, Note_on_c, 3, 74, 80
2, 111360, Note_on_c, 3, 71, 80
2, 111815, Note_on_c, 3, 74, 0
2, 111840, Note_on_c, 3, 76, 80
2, 112247, Note_on_c, 3, 67, 0
2, 112271, Note_on_c, 3, 71, 0
2, 112295, Note_on_c, 3, 76, 0
2, 112320, Note_on_c, 3, 74, 80
2, 112320, Note_on_c, 3, 77, 80
2, 113687, Note_on_c, 3, 74, 0
2, 113687, Note_on_c, 3, 77, 0
2, 113760, Note_on_c, 3, 71, 80
2, 115127, Note_on_c, 3, 71, 0
2, 115200, Note_on_c, 3, 60, 80
2, 115200, Note_on_c, 3, 64, 80
2, 116567, Note_on_c, 3, 60, 0
2, 116567, Note_on_c, 3, 64, 0
2, 116640, Note_on_c, 3, 74, 80
2, 117399, Note_on_c, 3, 74, 0
2, 117440, Note_on_c, 3, 72, 80
2, 117591, Note_on_c, 3, 72, 0
2, 117600, Note_on_c, 3, 74, 80
2, 118055, Note_on_c, 3, 74, 0
2, 118080, Note_on_c, 3, 76, 80
2, 118839, Note_on_c, 3, 76, 0
2, 118880, Note_on_c, 3, 74, 80
2, 119031, Note_on_c, 3, 74, 0
2, 119040, Note_on_c, 3, 72, 80
2, 119495, Note_on_c, 3, 72, 0
2, 132480, Note_on_c, 3, 48, 80
2, 132480, Note_on_c, 3, 55, 80
2, 132480, Note_on_c, 3, 59, 80
2, 133239, Note_on_c, 3, 48, 0
2, 133239, Note_on_c, 3, 55, 0
2, 133239, Note_on_c, 3, 59, 0
2, 133280, Note_on_c, 3, 48, 80
2, 133440, Note_on_c, 3, 55, 80
2, 133440, Note_on_c, 3, 59, 80
2, 133887, Note_on_c, 3, 48, 0
2, 133895, Note_on_c, 3, 55, 0
2, 133895, Note_on_c, 3, 59, 0
2, 133920, Note_on_c, 3, 60, 80
2, 133920, Note_on_c, 3, 52, 80
2, 133920, Note_on_c, 3, 57, 80
2, 134720, Note_on_c, 3, 60, 0
2, 134720, Note_on_c, 3, 60, 80
2, 135287, Note_on_c, 3, 52, 0
2, 135287, Note_on_c, 3, 57, 0
2, 135327, Note_on_c, 3, 60, 0
2, 135360, Note_on_c, 3, 50, 80
2, 135360, Note_on_c, 3, 57, 80
2, 135360, Note_on_c, 3, 60, 80
2, 136119, Note_on_c, 3, 50, 0
2, 136119, Note_on_c, 3, 57, 0
2, 136119, Note_on_c, 3, 60, 0
2, 136160, Note_on_c, 3, 50, 80
2, 136320, Note_on_c, 3, 57, 80
2, 136320, Note_on_c, 3, 60, 80
2, 136767, Note_on_c, 3, 50, 0
2, 136775, Note_on_c, 3, 57, 0
2, 136775, Note_on_c, 3, 60, 0
2, 136800, Note_on_c, 3, 50, 80
2, 136800, Note_on_c, 3, 55, 80
2, 136800, Note_on_c, 3, 60, 80
2, 138167, Note_on_c, 3, 50, 0
2, 138167, Note_on_c, 3, 55, 0
2, 138167, Note_on_c, 3, 60, 0
2, 138240, Note_on_c, 3, 48, 80
2, 138240, Note_on_c, 3, 55, 80
2, 138240, Note_on_c, 3, 59, 80
2, 138999, Note_on_c, 3, 48, 0
2, 138999, Note_on_c, 3, 55, 0
2, 138999, Note_on_c, 3, 59, 0
2, 139040, Note_on_c, 3, 48, 80
2, 139200, Note_on_c, 3, 55, 80
2, 139200, Note_on_c, 3, 59, 80
2, 139647, Note_on_c, 3, 48, 0
2, 139655, Note_on_c, 3, 55, 0
2, 139655, Note_on_c, 3, 59, 0
2, 139680, Note_on_c, 3, 60, 80
2, 139680, Note_on_c, 3, 52, 80
2, 139680, Note_on_c, 3, 57, 80
2, 140480, Note_on_c, 3, 60, 0
2, 140480, Note_on_c, 3, 60, 80
2, 141047, Note_on_c, 3, 52, 0
2, 141047, Note_on_c, 3, 57, 0
2, 141087, Note_on_c, 3, 60, 0
2, 141120, Note_on_c, 3, 53, 80
2, 141120, Note_on_c, 3, 60, 80
2, 141120, Note_on_c, 3, 64, 80
2, 142487, Note_on_c, 3, 53, 0
2, 142487, Note_on_c, 3, 60, 0
2, 142487, Note_on_c, 3, 64, 0
2, 142560, Note_on_c, 3, 50, 80
2, 142560, Note_on_c, 3, 55, 80
2, 142560, Note_on_c, 3, 60, 80
2, 143927, Note_on_c, 3, 50, 0
2, 143927, Note_on_c, 3, 55, 0
2, 143927, Note_on_c, 3, 60, 0
2, 144000, Note_on_c, 3, 48, 80
2, 144000, Note_on_c, 3, 55, 80
2, 144000, Note_on_c, 3, 59, 80
2, 144759, Note_on_c, 3, 48, 0
2, 144759, Note_on_c, 3, 55, 0
2, 144759, Note_on_c, 3, 59, 0
2, 144800, Note_on_c, 3, 48, 80
2, 144960, Note_on_c, 3, 55, 80
2, 144960, Note_on_c, 3, 59, 80
2, 145407, Note_on_c, 3, 48, 0
2, 145415, Note_on_c, 3, 55, 0
2, 145415, Note_on_c, 3, 59, 0
2, 145440, Note_on_c, 3, 60, 80
2, 145440, Note_on_c, 3, 52, 80
2, 145440, Note_on_c, 3, 57, 80
2, 146240, Note_on_c, 3, 60, 0
2, 146240, Note_on_c, 3, 60, 80
2, 146807, Note_on_c, 3, 52, 0
2, 146807, Note_on_c, 3, 57, 0
2, 146847, Note_on_c, 3, 60, 0
2, 146880, Note_on_c, 3, 50, 80
2, 146880, Note_on_c, 3, 57, 80
2, 146880, Note_on_c, 3, 60, 80
2, 147639, Note_on_c, 3, 50, 0
2, 147639, Note_on_c, 3, 57, 0
2, 147639, Note_on_c, 3, 60, 0
2, 147680, Note_on_c, 3, 50, 80
2, 147840, Note_on_c, 3, 57, 80
2, 147840, Note_on_c, 3, 60, 80
2, 148287, Note_on_c, 3, 50, 0
2, 148295, Note_on_c, 3, 57, 0
2, 148295, Note_on_c, 3, 60, 0
2, 148320, Note_on_c, 3, 50, 80
2, 148320, Note_on_c, 3, 55, 80
2, 148320, Note_on_c, 3, 60, 80
2, 149687, Note_on_c, 3, 50, 0
2, 149687, Note_on_c, 3, 55, 0
2, 149687, Note_on_c, 3, 60, 0
2, 149760, Note_on_c, 3, 48, 80
2, 149760, Note_on_c, 3, 55, 80
2, 149760, Note_on_c, 3, 59, 80
2, 150519, Note_on_c, 3, 48, 0
2, 150519, Note_on_c, 3, 55, 0
2, 150519, Note_on_c, 3, 59, 0
2, 150560, Note_on_c, 3, 48, 80
2, 150720, Note_on_c, 3, 55, 80
2, 150720, Note_on_c, 3, 59, 80
2, 151167, Note_on_c, 3, 48, 0
2, 151175, Note_on_c, 3, 55, 0
2, 151175, Note_on_c, 3, 59, 0
2, 151200, Note_on_c, 3, 60, 80
2, 151200, Note_on_c, 3, 52, 80
2, 151200, Note_on_c, 3, 57, 80
2, 152000, Note_on_c, 3, 60, 0
2, 152000, Note_on_c, 3, 60, 80
2, 152567, Note_on_c, 3, 52, 0
2, 152567, Note_on_c, 3, 57, 0
2, 152607, Note_on_c, 3, 60, 0
2, 152640, Note_on_c, 3, 53, 80
2, 152640, Note_on_c, 3, 60, 80
2, 152640, Note_on_c, 3, 64, 80
2, 154007, Note_on_c, 3, 53, 0
2, 154007, Note_on_c, 3, 60, 0
2, 154007, Note_on_c, 3, 64, 0
2, 154080, Note_on_c, 3, 53, 80
2, 154080, Note_on_c, 3, 60, 80
2, 154080, Note_on_c, 3, 64, 80
2, 154991, Note_on_c, 3, 53, 0
2, 154991, Note_on_c, 3, 60, 0
2, 154991, Note_on_c, 3, 64, 0
2, 154992, End_track
3, 0, Start_track
3, 0, Title_t, "Electric Bass, 5-str. Electric Bass\000"
3, 0, Key_signature, 0, "major"
3, 0, Control_c, 1, 121, 0
3, 0, Program_c, 1, 33
3, 0, Control_c, 1, 7, 101
3, 0, Control_c, 1, 10, 64
3, 0, Control_c, 1, 91, 0
3, 0, Control_c, 1, 93, 0
3, 0, MIDI_port, 1
3, 0, Control_c, 6, 121, 0
3, 0, Program_c, 6, 36
3, 0, Control_c, 6, 7, 100
3, 0, Control_c, 6, 10, 64
3, 0, Control_c, 6, 91, 0
3, 0, Control_c, 6, 93, 0
3, 0, MIDI_port, 1
3, 0, Control_c, 7, 121, 0
3, 0, Program_c, 7, 37
3, 0, Control_c, 7, 7, 100
3, 0, Control_c, 7, 10, 64
3, 0, Control_c, 7, 91, 0
3, 0, Control_c, 7, 93, 0
3, 0, MIDI_port, 1
3, 14400, Note_on_c, 1, 60, 80
3, 15599, Note_on_c, 1, 60, 0
3, 15660, Note_on_c, 1, 59, 80
3, 15839, Note_on_c, 1, 59, 0
3, 15840, Note_on_c, 1, 57, 80
3, 16799, Note_on_c, 1, 57, 0
3, 16800, Note_on_c, 1, 52, 80
3, 17279, Note_on_c, 1, 52, 0
3, 17280, Note_on_c, 1, 50, 80
3, 18479, Note_on_c, 1, 50, 0
3, 18540, Note_on_c, 1, 53, 80
3, 18719, Note_on_c, 1, 53, 0
3, 18720, Note_on_c, 1, 55, 80
3, 19199, Note_on_c, 1, 55, 0
3, 19200, Note_on_c, 1, 53, 80
3, 19679, Note_on_c, 1, 53, 0
3, 19680, Note_on_c, 1, 50, 80
3, 20159, Note_on_c, 1, 50, 0
3, 20160, Note_on_c, 1, 48, 80
3, 21279, Note_on_c, 1, 48, 0
3, 21280, Note_on_c, 1, 60, 80
3, 21439, Note_on_c, 1, 60, 0
3, 21440, Note_on_c, 1, 59, 80
3, 21599, Note_on_c, 1, 59, 0
3, 21600, Note_on_c, 1, 57, 80
3, 22559, Note_on_c, 1, 57, 0
3, 22560, Note_on_c, 1, 52, 80
3, 23039, Note_on_c, 1, 52, 0
3, 23040, Note_on_c, 1, 53, 80
3, 24319, Note_on_c, 1, 53, 0
3, 24320, Note_on_c, 1, 53, 80
3, 24479, Note_on_c, 1, 53, 0
3, 24480, Note_on_c, 1, 55, 80
3, 24959, Note_on_c, 1, 55, 0
3, 24960, Note_on_c, 1, 53, 80
3, 25439, Note_on_c, 1, 53, 0
3, 25440, Note_on_c, 1, 50, 80
3, 25919, Note_on_c, 1, 50, 0
3, 25920, Note_on_c, 1, 48, 80
3, 27119, Note_on_c, 1, 48, 0
3, 27180, Note_on_c, 1, 59, 80
3, 27359, Note_on_c, 1, 59, 0
3, 27360, Note_on_c, 1, 57, 80
3, 27839, Note_on_c, 1, 57, 0
3, 27840, Note_on_c, 1, 55, 80
3, 28319, Note_on_c, 1, 55, 0
3, 28320, Note_on_c, 1, 52, 80
3, 28799, Note_on_c, 1, 52, 0
3, 28800, Note_on_c, 1, 50, 80
3, 29999, Note_on_c, 1, 50, 0
3, 30060, Note_on_c, 1, 57, 80
3, 30239, Note_on_c, 1, 57, 0
3, 30240, Note_on_c, 1, 55, 80
3, 31199, Note_on_c, 1, 55, 0
3, 31200, Note_on_c, 1, 50, 80
3, 31679, Note_on_c, 1, 50, 0
3, 31680, Note_on_c, 1, 48, 80
3, 32159, Note_on_c, 1, 48, 0
3, 32160, Note_on_c, 1, 60, 80
3, 32639, Note_on_c, 1, 60, 0
3, 32640, Note_on_c, 1, 59, 80
3, 33119, Note_on_c, 1, 59, 0
3, 33120, Note_on_c, 1, 57, 80
3, 34079, Note_on_c, 1, 57, 0
3, 34080, Note_on_c, 1, 55, 80
3, 34559, Note_on_c, 1, 55, 0
3, 34560, Note_on_c, 1, 53, 80
3, 35999, Note_on_c, 1, 53, 0
3, 36000, Note_on_c, 1, 65, 80
3, 37119, Note_on_c, 1, 65, 0
3, 37120, Note_on_c, 1, 64, 80
3, 37279, Note_on_c, 1, 64, 0
3, 37280, Note_on_c, 1, 57, 80
3, 37439, Note_on_c, 1, 57, 0
3, 37440, Note_on_c, 1, 53, 80
3, 38639, Note_on_c, 1, 53, 0
3, 38700, Note_on_c, 1, 60, 80
3, 38879, Note_on_c, 1, 60, 0
3, 38880, Note_on_c, 1, 65, 80
3, 40319, Note_on_c, 1, 65, 0
3, 40320, Note_on_c, 1, 65, 80
3, 40799, Note_on_c, 1, 65, 0
3, 40800, Note_on_c, 1, 64, 80
3, 41279, Note_on_c, 1, 64, 0
3, 41280, Note_on_c, 1, 60, 80
3, 41759, Note_on_c, 1, 60, 0
3, 41760, Note_on_c, 1, 53, 80
3, 42719, Note_on_c, 1, 53, 0
3, 42720, Note_on_c, 1, 53, 80
3, 43199, Note_on_c, 1, 53, 0
3, 43200, Note_on_c, 1, 52, 80
3, 44319, Note_on_c, 1, 52, 0
3, 44320, Note_on_c, 1, 52, 80
3, 44479, Note_on_c, 1, 52, 0
3, 44480, Note_on_c, 1, 53, 80
3, 44639, Note_on_c, 1, 53, 0
3, 44640, Note_on_c, 1, 55, 80
3, 45119, Note_on_c, 1, 55, 0
3, 45120, Note_on_c, 1, 52, 80
3, 45599, Note_on_c, 1, 52, 0
3, 45600, Note_on_c, 1, 59, 80
3, 46079, Note_on_c, 1, 59, 0
3, 46080, Note_on_c, 1, 57, 80
3, 47279, Note_on_c, 1, 57, 0
3, 47340, Note_on_c, 1, 50, 80
3, 47519, Note_on_c, 1, 50, 0
3, 47520, Note_on_c, 1, 48, 80
3, 47999, Note_on_c, 1, 48, 0
3, 48000, Note_on_c, 1, 52, 80
3, 48479, Note_on_c, 1, 52, 0
3, 48480, Note_on_c, 1, 57, 80
3, 48959, Note_on_c, 1, 57, 0
3, 48960, Note_on_c, 1, 50, 80
3, 50079, Note_on_c, 1, 50, 0
3, 50080, Note_on_c, 1, 53, 80
3, 50239, Note_on_c, 1, 53, 0
3, 50240, Note_on_c, 1, 57, 80
3, 50399, Note_on_c, 1, 57, 0
3, 50400, Note_on_c, 1, 55, 80
3, 50879, Note_on_c, 1, 55, 0
3, 50880, Note_on_c, 1, 55, 80
3, 51359, Note_on_c, 1, 55, 0
3, 51360, Note_on_c, 1, 53, 80
3, 51839, Note_on_c, 1, 53, 0
3, 51840, Note_on_c, 1, 52, 80
3, 52799, Note_on_c, 1, 52, 0
3, 52800, Note_on_c, 1, 55, 80
3, 53119, Note_on_c, 1, 55, 0
3, 53120, Note_on_c, 1, 59, 80
3, 53279, Note_on_c, 1, 59, 0
3, 53280, Note_on_c, 1, 57, 80
3, 53759, Note_on_c, 1, 57, 0
3, 53760, Note_on_c, 1, 52, 80
3, 54239, Note_on_c, 1, 52, 0
3, 54240, Note_on_c, 1, 48, 80
3, 54719, Note_on_c, 1, 48, 0
3, 54720, Note_on_c, 1, 50, 80
3, 55679, Note_on_c, 1, 50, 0
3, 55680, Note_on_c, 1, 50, 80
3, 55999, Note_on_c, 1, 50, 0
3, 56000, Note_on_c, 1, 53, 80
3, 56159, Note_on_c, 1, 53, 0
3, 56160, Note_on_c, 1, 55, 80
3, 57119, Note_on_c, 1, 55, 0
3, 57120, Note_on_c, 1, 59, 80
3, 57599, Note_on_c, 1, 59, 0
3, 57600, Note_on_c, 1, 60, 80
3, 59039, Note_on_c, 1, 60, 0
3, 59040, Note_on_c, 1, 59, 80
3, 60479, Note_on_c, 1, 59, 0
3, 60480, Note_on_c, 1, 57, 80
3, 61919, Note_on_c, 1, 57, 0
3, 61920, Note_on_c, 1, 55, 80
3, 63359, Note_on_c, 1, 55, 0
3, 63360, Note_on_c, 1, 53, 80
3, 64479, Note_on_c, 1, 53, 0
3, 64480, Note_on_c, 1, 55, 80
3, 64639, Note_on_c, 1, 55, 0
3, 64640, Note_on_c, 1, 53, 80
3, 64799, Note_on_c, 1, 53, 0
3, 64800, Note_on_c, 1, 52, 80
3, 65759, Note_on_c, 1, 52, 0
3, 65760, Note_on_c, 1, 52, 80
3, 66239, Note_on_c, 1, 52, 0
3, 66240, Note_on_c, 1, 55, 80
3, 67679, Note_on_c, 1, 55, 0
3, 67680, Note_on_c, 1, 57, 80
3, 69119, Note_on_c, 1, 57, 0
3, 69120, Note_on_c, 1, 60, 80
3, 70559, Note_on_c, 1, 60, 0
3, 83520, Note_on_c, 1, 48, 80
3, 84959, Note_on_c, 1, 48, 0
3, 84960, Note_on_c, 1, 57, 80
3, 86399, Note_on_c, 1, 57, 0
3, 86400, Note_on_c, 1, 50, 80
3, 87839, Note_on_c, 1, 50, 0
3, 87840, Note_on_c, 1, 55, 80
3, 88799, Note_on_c, 1, 55, 0
3, 88800, Note_on_c, 1, 50, 80
3, 89279, Note_on_c, 1, 50, 0
3, 89280, Note_on_c, 1, 48, 80
3, 90719, Note_on_c, 1, 48, 0
3, 90720, Note_on_c, 1, 57, 80
3, 92159, Note_on_c, 1, 57, 0
3, 92160, Note_on_c, 1, 65, 80
3, 93599, Note_on_c, 1, 65, 0
3, 93600, Note_on_c, 1, 65, 80
3, 95039, Note_on_c, 1, 65, 0
3, 95040, Note_on_c, 1, 53, 80
3, 96479, Note_on_c, 1, 53, 0
3, 96480, Note_on_c, 1, 65, 80
3, 97919, Note_on_c, 1, 65, 0
3, 97920, Note_on_c, 1, 53, 80
3, 99359, Note_on_c, 1, 53, 0
3, 99360, Note_on_c, 1, 57, 80
3, 99839, Note_on_c, 1, 57, 0
3, 99840, Note_on_c, 1, 55, 80
3, 100319, Note_on_c, 1, 55, 0
3, 100320, Note_on_c, 1, 53, 80
3, 100799, Note_on_c, 1, 53, 0
3, 100800, Note_on_c, 1, 52, 80
3, 102719, Note_on_c, 1, 52, 0
3, 102720, Note_on_c, 1, 55, 80
3, 103199, Note_on_c, 1, 55, 0
3, 103200, Note_on_c, 1, 59, 80
3, 103679, Note_on_c, 1, 59, 0
3, 103680, Note_on_c, 1, 57, 80
3, 104159, Note_on_c, 1, 57, 0
3, 104160, Note_on_c, 1, 52, 80
3, 104639, Note_on_c, 1, 52, 0
3, 104640, Note_on_c, 1, 50, 80
3, 105119, Note_on_c, 1, 50, 0
3, 105120, Note_on_c, 1, 48, 80
3, 105599, Note_on_c, 1, 48, 0
3, 105600, Note_on_c, 1, 52, 80
3, 106079, Note_on_c, 1, 52, 0
3, 106080, Note_on_c, 1, 57, 80
3, 106559, Note_on_c, 1, 57, 0
3, 106560, Note_on_c, 1, 50, 80
3, 107679, Note_on_c, 1, 50, 0
3, 107680, Note_on_c, 1, 52, 80
3, 107839, Note_on_c, 1, 52, 0
3, 107840, Note_on_c, 1, 53, 80
3, 107999, Note_on_c, 1, 53, 0
3, 108000, Note_on_c, 1, 55, 80
3, 108479, Note_on_c, 1, 55, 0
3, 108480, Note_on_c, 1, 55, 80
3, 108959, Note_on_c, 1, 55, 0
3, 108960, Note_on_c, 1, 53, 80
3, 109439, Note_on_c, 1, 53, 0
3, 109440, Note_on_c, 1, 52, 80
3, 110559, Note_on_c, 1, 52, 0
3, 110560, Note_on_c, 1, 53, 80
3, 110719, Note_on_c, 1, 53, 0
3, 110720, Note_on_c, 1, 55, 80
3, 110879, Note_on_c, 1, 55, 0
3, 110880, Note_on_c, 1, 57, 80
3, 111359, Note_on_c, 1, 57, 0
3, 111360, Note_on_c, 1, 52, 80
3, 111839, Note_on_c, 1, 52, 0
3, 111840, Note_on_c, 1, 49, 80
3, 112319, Note_on_c, 1, 49, 0
3, 112320, Note_on_c, 1, 50, 80
3, 113519, Note_on_c, 1, 50, 0
3, 113580, Note_on_c, 1, 53, 80
3, 113759, Note_on_c, 1, 53, 0
3, 113760, Note_on_c, 1, 55, 80
3, 114719, Note_on_c, 1, 55, 0
3, 114720, Note_on_c, 1, 59, 80
3, 115199, Note_on_c, 1, 59, 0
3, 115200, Note_on_c, 1, 60, 80
3, 116639, Note_on_c, 1, 60, 0
3, 116640, Note_on_c, 1, 59, 80
3, 117439, Note_on_c, 1, 59, 0
3, 117440, Note_on_c, 1, 60, 80
3, 117599, Note_on_c, 1, 60, 0
3, 117600, Note_on_c, 1, 59, 80
3, 118079, Note_on_c, 1, 59, 0
3, 118080, Note_on_c, 1, 57, 80
3, 119039, Note_on_c, 1, 57, 0
3, 119040, Note_on_c, 1, 57, 80
3, 119519, Note_on_c, 1, 57, 0
3, 119520, Note_on_c, 1, 55, 80
3, 120799, Note_on_c, 1, 55, 0
3, 120800, Note_on_c, 1, 55, 80
3, 120959, Note_on_c, 1, 55, 0
3, 120960, Note_on_c, 1, 53, 80
3, 121439, Note_on_c, 1, 53, 0
3, 121440, Note_on_c, 1, 55, 80
3, 121919, Note_on_c, 1, 55, 0
3, 121920, Note_on_c, 1, 57, 80
3, 122399, Note_on_c, 1, 57, 0
3, 122400, Note_on_c, 1, 59, 80
3, 122879, Note_on_c, 1, 59, 0
3, 122880, Note_on_c, 1, 57, 80
3, 123359, Note_on_c, 1, 57, 0
3, 123360, Note_on_c, 1, 55, 80
3, 123839, Note_on_c, 1, 55, 0
3, 123840, Note_on_c, 1, 60, 80
3, 126719, Note_on_c, 1, 60, 0
3, 126720, Note_on_c, 1, 48, 80
3, 129599, Note_on_c, 1, 48, 0
3, 129600, Note_on_c, 1, 48, 80
3, 132479, Note_on_c, 1, 48, 0
3, 132480, Note_on_c, 1, 48, 80
3, 133679, Note_on_c, 1, 48, 0
3, 133740, Note_on_c, 1, 47, 80
3, 133919, Note_on_c, 1, 47, 0
3, 133920, Note_on_c, 1, 45, 80
3, 134399, Note_on_c, 1, 45, 0
3, 134400, Note_on_c, 1, 52, 80
3, 134879, Note_on_c, 1, 52, 0
3, 134880, Note_on_c, 1, 48, 80
3, 135359, Note_on_c, 1, 48, 0
3, 135360, Note_on_c, 1, 50, 80
3, 136479, Note_on_c, 1, 50, 0
3, 136480, Note_on_c, 1, 53, 80
3, 136639, Note_on_c, 1, 53, 0
3, 136640, Note_on_c, 1, 57, 80
3, 136799, Note_on_c, 1, 57, 0
3, 136800, Note_on_c, 1, 55, 80
3, 137279, Note_on_c, 1, 55, 0
3, 137280, Note_on_c, 1, 53, 80
3, 137759, Note_on_c, 1, 53, 0
3, 137760, Note_on_c, 1, 50, 80
3, 138239, Note_on_c, 1, 50, 0
3, 138240, Note_on_c, 1, 48, 80
3, 138719, Note_on_c, 1, 48, 0
3, 138720, Note_on_c, 1, 52, 80
3, 139199, Note_on_c, 1, 52, 0
3, 139200, Note_on_c, 1, 55, 80
3, 139679, Note_on_c, 1, 55, 0
3, 139680, Note_on_c, 1, 57, 80
3, 140639, Note_on_c, 1, 57, 0
3, 140640, Note_on_c, 1, 55, 80
3, 141119, Note_on_c, 1, 55, 0
3, 141120, Note_on_c, 1, 53, 80
3, 142399, Note_on_c, 1, 53, 0
3, 142400, Note_on_c, 1, 53, 80
3, 142559, Note_on_c, 1, 53, 0
3, 142560, Note_on_c, 1, 55, 80
3, 142879, Note_on_c, 1, 55, 0
3, 142880, Note_on_c, 1, 57, 80
3, 143039, Note_on_c, 1, 57, 0
3, 143040, Note_on_c, 1, 55, 80
3, 143359, Note_on_c, 1, 55, 0
3, 143360, Note_on_c, 1, 53, 80
3, 143519, Note_on_c, 1, 53, 0
3, 143520, Note_on_c, 1, 50, 80
3, 143999, Note_on_c, 1, 50, 0
3, 144000, Note_on_c, 1, 48, 80
3, 144479, Note_on_c, 1, 48, 0
3, 144480, Note_on_c, 1, 60, 80
3, 144959, Note_on_c, 1, 60, 0
3, 144960, Note_on_c, 1, 59, 80
3, 145439, Note_on_c, 1, 59, 0
3, 145440, Note_on_c, 1, 57, 80
3, 146399, Note_on_c, 1, 57, 0
3, 146400, Note_on_c, 1, 52, 80
3, 146879, Note_on_c, 1, 52, 0
3, 146880, Note_on_c, 1, 50, 80
3, 147839, Note_on_c, 1, 50, 0
3, 147840, Note_on_c, 1, 53, 80
3, 148319, Note_on_c, 1, 53, 0
3, 148320, Note_on_c, 1, 55, 80
3, 148799, Note_on_c, 1, 55, 0
3, 148800, Note_on_c, 1, 60, 80
3, 149279, Note_on_c, 1, 60, 0
3, 149280, Note_on_c, 1, 62, 80
3, 149759, Note_on_c, 1, 62, 0
3, 149760, Note_on_c, 1, 60, 80
3, 150959, Note_on_c, 1, 60, 0
3, 151020, Note_on_c, 1, 59, 80
3, 151199, Note_on_c, 1, 59, 0
3, 151200, Note_on_c, 1, 57, 80
3, 152399, Note_on_c, 1, 57, 0
3, 152460, Note_on_c, 1, 55, 80
3, 152639, Note_on_c, 1, 55, 0
3, 152640, Note_on_c, 1, 53, 80
3, 154079, Note_on_c, 1, 53, 0
3, 154080, Note_on_c, 1, 53, 80
3, 155519, Note_on_c, 1, 53, 0
3, 155520, End_track
4, 0, Start_track
4, 0, Title_t, "Chimes, Bell\000"
4, 0, Key_signature, 0, "major"
4, 0, Control_c, 0, 121, 0
4, 0, Program_c, 0, 14
4, 0, Control_c, 0, 7, 100
4, 0, Control_c, 0, 10, 64
4, 0, Control_c, 0, 91, 0
4, 0, Control_c, 0, 93, 0
4, 0, MIDI_port, 0
4, 14400, Note_on_c, 0, 64, 80
4, 14879, Note_on_c, 0, 64, 0
4, 14880, Note_on_c, 0, 67, 80
4, 15359, Note_on_c, 0, 67, 0
4, 15360, Note_on_c, 0, 72, 80
4, 15839, Note_on_c, 0, 72, 0
4, 15840, Note_on_c, 0, 74, 80
4, 16159, Note_on_c, 0, 74, 0
4, 16160, Note_on_c, 0, 76, 80
4, 16319, Note_on_c, 0, 76, 0
4, 16320, Note_on_c, 0, 76, 80
4, 17279, Note_on_c, 0, 76, 0
4, 17280, Note_on_c, 0, 65, 80
4, 18079, Note_on_c, 0, 65, 0
4, 18080, Note_on_c, 0, 67, 80
4, 18239, Note_on_c, 0, 67, 0
4, 18240, Note_on_c, 0, 72, 80
4, 18559, Note_on_c, 0, 72, 0
4, 18560, Note_on_c, 0, 72, 80
4, 19039, Note_on_c, 0, 72, 0
4, 19040, Note_on_c, 0, 74, 80
4, 19679, Note_on_c, 0, 74, 0
4, 20000, Note_on_c, 0, 62, 80
4, 20159, Note_on_c, 0, 62, 0
4, 20160, Note_on_c, 0, 64, 80
4, 20639, Note_on_c, 0, 64, 0
4, 20640, Note_on_c, 0, 67, 80
4, 21119, Note_on_c, 0, 67, 0
4, 21120, Note_on_c, 0, 71, 80
4, 21599, Note_on_c, 0, 71, 0
4, 21600, Note_on_c, 0, 72, 80
4, 22559, Note_on_c, 0, 72, 0
4, 22560, Note_on_c, 0, 67, 80
4, 23039, Note_on_c, 0, 67, 0
4, 23040, Note_on_c, 0, 69, 80
4, 24479, Note_on_c, 0, 69, 0
4, 25920, Note_on_c, 0, 64, 80
4, 26399, Note_on_c, 0, 64, 0
4, 26400, Note_on_c, 0, 67, 80
4, 26879, Note_on_c, 0, 67, 0
4, 26880, Note_on_c, 0, 72, 80
4, 27199, Note_on_c, 0, 72, 0
4, 27200, Note_on_c, 0, 74, 80
4, 27679, Note_on_c, 0, 74, 0
4, 27680, Note_on_c, 0, 76, 80
4, 28319, Note_on_c, 0, 76, 0
4, 28640, Note_on_c, 0, 64, 80
4, 28799, Note_on_c, 0, 64, 0
4, 28800, Note_on_c, 0, 65, 80
4, 29599, Note_on_c, 0, 65, 0
4, 29600, Note_on_c, 0, 67, 80
4, 29759, Note_on_c, 0, 67, 0
4, 29760, Note_on_c, 0, 72, 80
4, 30079, Note_on_c, 0, 72, 0
4, 30080, Note_on_c, 0, 72, 80
4, 30559, Note_on_c, 0, 72, 0
4, 30560, Note_on_c, 0, 74, 80
4, 31199, Note_on_c, 0, 74, 0
4, 31520, Note_on_c, 0, 62, 80
4, 31679, Note_on_c, 0, 62, 0
4, 31680, Note_on_c, 0, 64, 80
4, 32159, Note_on_c, 0, 64, 0
4, 32160, Note_on_c, 0, 67, 80
4, 32639, Note_on_c, 0, 67, 0
4, 32640, Note_on_c, 0, 71, 80
4, 33119, Note_on_c, 0, 71, 0
4, 33120, Note_on_c, 0, 72, 80
4, 33439, Note_on_c, 0, 72, 0
4, 33440, Note_on_c, 0, 72, 80
4, 34079, Note_on_c, 0, 72, 0
4, 34080, Note_on_c, 0, 67, 80
4, 34559, Note_on_c, 0, 67, 0
4, 34560, Note_on_c, 0, 69, 80
4, 35999, Note_on_c, 0, 69, 0
4, 37440, Note_on_c, 0, 69, 80
4, 37919, Note_on_c, 0, 69, 0
4, 37920, Note_on_c, 0, 76, 80
4, 38399, Note_on_c, 0, 76, 0
4, 38400, Note_on_c, 0, 69, 80
4, 38879, Note_on_c, 0, 69, 0
4, 38880, Note_on_c, 0, 76, 80
4, 39359, Note_on_c, 0, 76, 0
4, 39360, Note_on_c, 0, 69, 80
4, 39839, Note_on_c, 0, 69, 0
4, 39840, Note_on_c, 0, 76, 80
4, 40319, Note_on_c, 0, 76, 0
4, 40320, Note_on_c, 0, 69, 80
4, 40799, Note_on_c, 0, 69, 0
4, 40800, Note_on_c, 0, 76, 80
4, 41279, Note_on_c, 0, 76, 0
4, 41280, Note_on_c, 0, 69, 80
4, 41759, Note_on_c, 0, 69, 0
4, 41760, Note_on_c, 0, 76, 80
4, 42239, Note_on_c, 0, 76, 0
4, 42240, Note_on_c, 0, 69, 80
4, 42719, Note_on_c, 0, 69, 0
4, 43200, Note_on_c, 0, 71, 80
4, 43679, Note_on_c, 0, 71, 0
4, 43680, Note_on_c, 0, 71, 80
4, 44159, Note_on_c, 0, 71, 0
4, 44160, Note_on_c, 0, 71, 80
4, 44639, Note_on_c, 0, 71, 0
4, 44640, Note_on_c, 0, 74, 80
4, 45119, Note_on_c, 0, 74, 0
4, 45120, Note_on_c, 0, 71, 80
4, 45599, Note_on_c, 0, 71, 0
4, 45600, Note_on_c, 0, 67, 80
4, 46079, Note_on_c, 0, 67, 0
4, 46080, Note_on_c, 0, 71, 80
4, 47519, Note_on_c, 0, 71, 0
4, 48960, Note_on_c, 0, 65, 80
4, 49439, Note_on_c, 0, 65, 0
4, 49440, Note_on_c, 0, 69, 80
4, 49919, Note_on_c, 0, 69, 0
4, 49920, Note_on_c, 0, 72, 80
4, 50399, Note_on_c, 0, 72, 0
4, 50400, Note_on_c, 0, 71, 80
4, 50879, Note_on_c, 0, 71, 0
4, 50880, Note_on_c, 0, 72, 80
4, 51359, Note_on_c, 0, 72, 0
4, 51680, Note_on_c, 0, 72, 80
4, 51839, Note_on_c, 0, 72, 0
4, 51840, Note_on_c, 0, 67, 80
4, 52319, Note_on_c, 0, 67, 0
4, 52320, Note_on_c, 0, 71, 80
4, 52799, Note_on_c, 0, 71, 0
4, 52800, Note_on_c, 0, 74, 80
4, 53279, Note_on_c, 0, 74, 0
4, 53280, Note_on_c, 0, 71, 80
4, 53599, Note_on_c, 0, 71, 0
4, 53600, Note_on_c, 0, 74, 80
4, 53759, Note_on_c, 0, 74, 0
4, 54560, Note_on_c, 0, 64, 80
4, 54719, Note_on_c, 0, 64, 0
4, 54720, Note_on_c, 0, 65, 80
4, 55039, Note_on_c, 0, 65, 0
4, 55040, Note_on_c, 0, 69, 80
4, 55679, Note_on_c, 0, 69, 0
4, 56000, Note_on_c, 0, 69, 80
4, 56159, Note_on_c, 0, 69, 0
4, 56160, Note_on_c, 0, 76, 80
4, 56479, Note_on_c, 0, 76, 0
4, 56480, Note_on_c, 0, 76, 80
4, 57119, Note_on_c, 0, 76, 0
4, 57120, Note_on_c, 0, 74, 80
4, 57599, Note_on_c, 0, 74, 0
4, 57600, Note_on_c, 0, 72, 80
4, 59039, Note_on_c, 0, 72, 0
4, 59040, Note_on_c, 0, 74, 80
4, 59839, Note_on_c, 0, 74, 0
4, 59840, Note_on_c, 0, 72, 80
4, 59999, Note_on_c, 0, 72, 0
4, 60000, Note_on_c, 0, 74, 80
4, 60479, Note_on_c, 0, 74, 0
4, 60480, Note_on_c, 0, 76, 80
4, 61279, Note_on_c, 0, 76, 0
4, 61280, Note_on_c, 0, 74, 80
4, 61439, Note_on_c, 0, 74, 0
4, 61440, Note_on_c, 0, 72, 80
4, 61919, Note_on_c, 0, 72, 0
4, 61920, Note_on_c, 0, 67, 80
4, 62399, Note_on_c, 0, 67, 0
4, 62880, Note_on_c, 0, 67, 80
4, 63359, Note_on_c, 0, 67, 0
4, 63360, Note_on_c, 0, 69, 80
4, 63839, Note_on_c, 0, 69, 0
4, 63840, Note_on_c, 0, 71, 80
4, 64319, Note_on_c, 0, 71, 0
4, 64320, Note_on_c, 0, 72, 80
4, 64799, Note_on_c, 0, 72, 0
4, 64800, Note_on_c, 0, 67, 80
4, 65279, Note_on_c, 0, 67, 0
4, 65280, Note_on_c, 0, 69, 80
4, 65759, Note_on_c, 0, 69, 0
4, 65760, Note_on_c, 0, 72, 80
4, 66239, Note_on_c, 0, 72, 0
4, 66240, Note_on_c, 0, 74, 80
4, 67679, Note_on_c, 0, 74, 0
4, 67680, Note_on_c, 0, 76, 80
4, 69119, Note_on_c, 0, 76, 0
4, 69120, Note_on_c, 0, 72, 80
4, 70559, Note_on_c, 0, 72, 0
4, 72000, Note_on_c, 0, 64, 80
4, 72479, Note_on_c, 0, 64, 0
4, 72480, Note_on_c, 0, 67, 80
4, 72959, Note_on_c, 0, 67, 0
4, 72960, Note_on_c, 0, 72, 80
4, 73439, Note_on_c, 0, 72, 0
4, 73440, Note_on_c, 0, 74, 80
4, 73759, Note_on_c, 0, 74, 0
4, 73760, Note_on_c, 0, 76, 80
4, 73919, Note_on_c, 0, 76, 0
4, 73920, Note_on_c, 0, 76, 80
4, 74399, Note_on_c, 0, 76, 0
4, 74880, Note_on_c, 0, 65, 80
4, 75359, Note_on_c, 0, 65, 0
4, 75360, Note_on_c, 0, 67, 80
4, 75839, Note_on_c, 0, 67, 0
4, 75840, Note_on_c, 0, 72, 80
4, 76159, Note_on_c, 0, 72, 0
4, 76160, Note_on_c, 0, 72, 80
4, 76639, Note_on_c, 0, 72, 0
4, 76640, Note_on_c, 0, 74, 80
4, 77279, Note_on_c, 0, 74, 0
4, 77760, Note_on_c, 0, 64, 80
4, 78239, Note_on_c, 0, 64, 0
4, 78240, Note_on_c, 0, 67, 80
4, 78719, Note_on_c, 0, 67, 0
4, 78720, Note_on_c, 0, 71, 80
4, 79199, Note_on_c, 0, 71, 0
4, 79200, Note_on_c, 0, 72, 80
4, 79519, Note_on_c, 0, 72, 0
4, 79520, Note_on_c, 0, 72, 80
4, 80159, Note_on_c, 0, 72, 0
4, 80160, Note_on_c, 0, 71, 80
4, 80639, Note_on_c, 0, 71, 0
4, 80640, Note_on_c, 0, 69, 80
4, 82079, Note_on_c, 0, 69, 0
4, 83520, Note_on_c, 0, 64, 80
4, 83999, Note_on_c, 0, 64, 0
4, 84000, Note_on_c, 0, 67, 80
4, 84479, Note_on_c, 0, 67, 0
4, 84480, Note_on_c, 0, 72, 80
4, 84959, Note_on_c, 0, 72, 0
4, 84960, Note_on_c, 0, 74, 80
4, 85439, Note_on_c, 0, 74, 0
4, 85440, Note_on_c, 0, 76, 80
4, 85919, Note_on_c, 0, 76, 0
4, 86240, Note_on_c, 0, 64, 80
4, 86399, Note_on_c, 0, 64, 0
4, 86400, Note_on_c, 0, 65, 80
4, 86879, Note_on_c, 0, 65, 0
4, 86880, Note_on_c, 0, 67, 80
4, 87359, Note_on_c, 0, 67, 0
4, 87360, Note_on_c, 0, 72, 80
4, 87839, Note_on_c, 0, 72, 0
4, 87840, Note_on_c, 0, 72, 80
4, 88319, Note_on_c, 0, 72, 0
4, 88320, Note_on_c, 0, 74, 80
4, 88799, Note_on_c, 0, 74, 0
4, 89120, Note_on_c, 0, 62, 80
4, 89279, Note_on_c, 0, 62, 0
4, 89280, Note_on_c, 0, 64, 80
4, 89759, Note_on_c, 0, 64, 0
4, 89760, Note_on_c, 0, 67, 80
4, 90239, Note_on_c, 0, 67, 0
4, 90240, Note_on_c, 0, 71, 80
4, 90719, Note_on_c, 0, 71, 0
4, 90720, Note_on_c, 0, 72, 80
4, 91199, Note_on_c, 0, 72, 0
4, 91200, Note_on_c, 0, 72, 80
4, 91679, Note_on_c, 0, 72, 0
4, 91680, Note_on_c, 0, 71, 80
4, 92159, Note_on_c, 0, 71, 0
4, 92160, Note_on_c, 0, 69, 80
4, 93599, Note_on_c, 0, 69, 0
4, 95040, Note_on_c, 0, 69, 80
4, 95519, Note_on_c, 0, 69, 0
4, 95520, Note_on_c, 0, 76, 80
4, 95999, Note_on_c, 0, 76, 0
4, 96000, Note_on_c, 0, 69, 80
4, 96479, Note_on_c, 0, 69, 0
4, 96480, Note_on_c, 0, 76, 80
4, 96959, Note_on_c, 0, 76, 0
4, 96960, Note_on_c, 0, 69, 80
4, 97439, Note_on_c, 0, 69, 0
4, 97440, Note_on_c, 0, 76, 80
4, 97919, Note_on_c, 0, 76, 0
4, 97920, Note_on_c, 0, 69, 80
4, 98399, Note_on_c, 0, 69, 0
4, 98400, Note_on_c, 0, 76, 80
4, 98879, Note_on_c, 0, 76, 0
4, 98880, Note_on_c, 0, 69, 80
4, 99359, Note_on_c, 0, 69, 0
4, 99360, Note_on_c, 0, 76, 80
4, 99839, Note_on_c, 0, 76, 0
4, 99840, Note_on_c, 0, 69, 80
4, 100319, Note_on_c, 0, 69, 0
4, 100640, Note_on_c, 0, 69, 80
4, 100799, Note_on_c, 0, 69, 0
4, 100800, Note_on_c, 0, 71, 80
4, 101119, Note_on_c, 0, 71, 0
4, 101120, Note_on_c, 0, 71, 80
4, 101759, Note_on_c, 0, 71, 0
4, 102080, Note_on_c, 0, 71, 80
4, 102239, Note_on_c, 0, 71, 0
4, 102240, Note_on_c, 0, 74, 80
4, 102719, Note_on_c, 0, 74, 0
4, 102720, Note_on_c, 0, 71, 80
4, 103199, Note_on_c, 0, 71, 0
4, 103200, Note_on_c, 0, 67, 80
4, 103519, Note_on_c, 0, 67, 0
4, 103520, Note_on_c, 0, 71, 80
4, 105119, Note_on_c, 0, 71, 0
4, 105120, Note_on_c, 0, 69, 80
4, 106079, Note_on_c, 0, 69, 0
4, 106560, Note_on_c, 0, 65, 80
4, 107039, Note_on_c, 0, 65, 0
4, 107040, Note_on_c, 0, 69, 80
4, 107519, Note_on_c, 0, 69, 0
4, 107520, Note_on_c, 0, 72, 80
4, 107999, Note_on_c, 0, 72, 0
4, 108000, Note_on_c, 0, 71, 80
4, 108479, Note_on_c, 0, 71, 0
4, 108480, Note_on_c, 0, 72, 80
4, 108959, Note_on_c, 0, 72, 0
4, 109280, Note_on_c, 0, 72, 80
4, 109439, Note_on_c, 0, 72, 0
4, 109440, Note_on_c, 0, 67, 80
4, 109919, Note_on_c, 0, 67, 0
4, 109920, Note_on_c, 0, 71, 80
4, 110399, Note_on_c, 0, 71, 0
4, 110400, Note_on_c, 0, 74, 80
4, 110719, Note_on_c, 0, 74, 0
4, 110720, Note_on_c, 0, 71, 80
4, 110879, Note_on_c, 0, 71, 0
4, 110880, Note_on_c, 0, 71, 80
4, 111199, Note_on_c, 0, 71, 0
4, 111200, Note_on_c, 0, 74, 80
4, 111359, Note_on_c, 0, 74, 0
4, 112160, Note_on_c, 0, 64, 80
4, 112319, Note_on_c, 0, 64, 0
4, 112320, Note_on_c, 0, 65, 80
4, 112639, Note_on_c, 0, 65, 0
4, 112640, Note_on_c, 0, 69, 80
4, 113279, Note_on_c, 0, 69, 0
4, 113600, Note_on_c, 0, 72, 80
4, 113759, Note_on_c, 0, 72, 0
4, 113760, Note_on_c, 0, 76, 80
4, 114079, Note_on_c, 0, 76, 0
4, 114080, Note_on_c, 0, 76, 80
4, 114719, Note_on_c, 0, 76, 0
4, 114720, Note_on_c, 0, 74, 80
4, 115199, Note_on_c, 0, 74, 0
4, 115200, Note_on_c, 0, 72, 80
4, 116639, Note_on_c, 0, 72, 0
4, 116640, Note_on_c, 0, 74, 80
4, 117439, Note_on_c, 0, 74, 0
4, 117440, Note_on_c, 0, 72, 80
4, 117599, Note_on_c, 0, 72, 0
4, 117600, Note_on_c, 0, 74, 80
4, 118079, Note_on_c, 0, 74, 0
4, 118080, Note_on_c, 0, 76, 80
4, 118879, Note_on_c, 0, 76, 0
4, 118880, Note_on_c, 0, 74, 80
4, 119039, Note_on_c, 0, 74, 0
4, 119040, Note_on_c, 0, 72, 80
4, 119519, Note_on_c, 0, 72, 0
4, 119520, Note_on_c, 0, 67, 80
4, 119999, Note_on_c, 0, 67, 0
4, 120480, Note_on_c, 0, 67, 80
4, 120959, Note_on_c, 0, 67, 0
4, 120960, Note_on_c, 0, 69, 80
4, 121439, Note_on_c, 0, 69, 0
4, 121440, Note_on_c, 0, 71, 80
4, 121919, Note_on_c, 0, 71, 0
4, 121920, Note_on_c, 0, 72, 80
4, 122399, Note_on_c, 0, 72, 0
4, 122400, Note_on_c, 0, 67, 80
4, 122879, Note_on_c, 0, 67, 0
4, 122880, Note_on_c, 0, 72, 80
4, 123359, Note_on_c, 0, 72, 0
4, 123360, Note_on_c, 0, 71, 80
4, 123839, Note_on_c, 0, 71, 0
4, 123840, Note_on_c, 0, 72, 80
4, 126719, Note_on_c, 0, 72, 0
4, 132480, Note_on_c, 0, 64, 80
4, 132959, Note_on_c, 0, 64, 0
4, 132960, Note_on_c, 0, 67, 80
4, 133439, Note_on_c, 0, 67, 0
4, 133440, Note_on_c, 0, 72, 80
4, 133919, Note_on_c, 0, 72, 0
4, 133920, Note_on_c, 0, 74, 80
4, 134239, Note_on_c, 0, 74, 0
4, 134240, Note_on_c, 0, 76, 80
4, 134399, Note_on_c, 0, 76, 0
4, 134400, Note_on_c, 0, 76, 80
4, 134879, Note_on_c, 0, 76, 0
4, 135200, Note_on_c, 0, 64, 80
4, 135359, Note_on_c, 0, 64, 0
4, 135360, Note_on_c, 0, 65, 80
4, 136159, Note_on_c, 0, 65, 0
4, 136160, Note_on_c, 0, 67, 80
4, 136319, Note_on_c, 0, 67, 0
4, 136320, Note_on_c, 0, 72, 80
4, 136639, Note_on_c, 0, 72, 0
4, 136640, Note_on_c, 0, 72, 80
4, 137119, Note_on_c, 0, 72, 0
4, 137120, Note_on_c, 0, 74, 80
4, 137759, Note_on_c, 0, 74, 0
4, 138080, Note_on_c, 0, 62, 80
4, 138239, Note_on_c, 0, 62, 0
4, 138240, Note_on_c, 0, 64, 80
4, 138719, Note_on_c, 0, 64, 0
4, 138720, Note_on_c, 0, 67, 80
4, 139199, Note_on_c, 0, 67, 0
4, 139200, Note_on_c, 0, 71, 80
4, 139679, Note_on_c, 0, 71, 0
4, 139680, Note_on_c, 0, 72, 80
4, 140639, Note_on_c, 0, 72, 0
4, 140640, Note_on_c, 0, 67, 80
4, 141119, Note_on_c, 0, 67, 0
4, 141120, Note_on_c, 0, 69, 80
4, 142559, Note_on_c, 0, 69, 0
4, 144000, Note_on_c, 0, 64, 80
4, 144479, Note_on_c, 0, 64, 0
4, 144480, Note_on_c, 0, 67, 80
4, 144959, Note_on_c, 0, 67, 0
4, 144960, Note_on_c, 0, 72, 80
4, 145439, Note_on_c, 0, 72, 0
4, 145440, Note_on_c, 0, 74, 80
4, 145759, Note_on_c, 0, 74, 0
4, 145760, Note_on_c, 0, 76, 80
4, 146399, Note_on_c, 0, 76, 0
4, 146880, Note_on_c, 0, 65, 80
4, 147359, Note_on_c, 0, 65, 0
4, 147360, Note_on_c, 0, 67, 80
4, 147839, Note_on_c, 0, 67, 0
4, 147840, Note_on_c, 0, 72, 80
4, 148319, Note_on_c, 0, 72, 0
4, 148320, Note_on_c, 0, 72, 80
4, 148639, Note_on_c, 0, 72, 0
4, 148640, Note_on_c, 0, 74, 80
4, 149279, Note_on_c, 0, 74, 0
4, 149600, Note_on_c, 0, 62, 80
4, 149759, Note_on_c, 0, 62, 0
4, 149760, Note_on_c, 0, 64, 80
4, 150239, Note_on_c, 0, 64, 0
4, 150240, Note_on_c, 0, 67, 80
4, 150719, Note_on_c, 0, 67, 0
4, 150720, Note_on_c, 0, 71, 80
4, 151199, Note_on_c, 0, 71, 0
4, 151200, Note_on_c, 0, 72, 80
4, 152159, Note_on_c, 0, 72, 0
4, 152160, Note_on_c, 0, 71, 80
4, 152639, Note_on_c, 0, 71, 0
4, 152640, Note_on_c, 0, 69, 80
4, 154079, Note_on_c, 0, 69, 0
4, 154080, End_track
5, 0, Start_track
5, 0, Title_t, "Classical Guitar, Lute\000"
5, 0, Key_signature, 0, "major"
5, 0, Control_c, 1, 121, 0
5, 0, Program_c, 1, 24
5, 0, Control_c, 1, 7, 100
5, 0, Control_c, 1, 10, 64
5, 0, Control_c, 1, 91, 0
5, 0, Control_c, 1, 93, 0
5, 0, MIDI_port, 0
5, 0, Note_on_c, 1, 48, 80
5, 0, Control_c, 8, 121, 0
5, 0, Program_c, 8, 28
5, 0, Control_c, 8, 7, 100
5, 0, Control_c, 8, 10, 64
5, 0, Control_c, 8, 91, 0
5, 0, Control_c, 8, 93, 0
5, 0, MIDI_port, 0
5, 320, Note_on_c, 1, 55, 80
5, 479, Note_on_c, 1, 55, 0
5, 480, Note_on_c, 1, 60, 80
5, 480, Note_on_c, 1, 64, 80
5, 799, Note_on_c, 1, 60, 0
5, 799, Note_on_c, 1, 64, 0
5, 800, Note_on_c, 1, 55, 80
5, 959, Note_on_c, 1, 55, 0
5, 960, Note_on_c, 1, 60, 80
5, 960, Note_on_c, 1, 64, 80
5, 1279, Note_on_c, 1, 60, 0
5, 1279, Note_on_c, 1, 64, 0
5, 1280, Note_on_c, 1, 55, 80
5, 1439, Note_on_c, 1, 48, 0
5, 1439, Note_on_c, 1, 55, 0
5, 1440, Note_on_c, 1, 48, 80
5, 1760, Note_on_c, 1, 57, 80
5, 1920, Note_on_c, 1, 60, 80
5, 1920, Note_on_c, 1, 65, 80
5, 3839, Note_on_c, 1, 48, 0
5, 3839, Note_on_c, 1, 57, 0
5, 3839, Note_on_c, 1, 60, 0
5, 3839, Note_on_c, 1, 65, 0
5, 4320, Note_on_c, 1, 48, 80
5, 4640, Note_on_c, 1, 55, 80
5, 4799, Note_on_c, 1, 55, 0
5, 4800, Note_on_c, 1, 60, 80
5, 4800, Note_on_c, 1, 64, 80
5, 5119, Note_on_c, 1, 60, 0
5, 5119, Note_on_c, 1, 64, 0
5, 5120, Note_on_c, 1, 55, 80
5, 5279, Note_on_c, 1, 55, 0
5, 5280, Note_on_c, 1, 60, 80
5, 5280, Note_on_c, 1, 64, 80
5, 5599, Note_on_c, 1, 60, 0
5, 5599, Note_on_c, 1, 64, 0
5, 5600, Note_on_c, 1, 55, 80
5, 5759, Note_on_c, 1, 48, 0
5, 5759, Note_on_c, 1, 55, 0
5, 5760, Note_on_c, 1, 48, 80
5, 6080, Note_on_c, 1, 57, 80
5, 6240, Note_on_c, 1, 60, 80
5, 6240, Note_on_c, 1, 65, 80
5, 8159, Note_on_c, 1, 48, 0
5, 8159, Note_on_c, 1, 57, 0
5, 8159, Note_on_c, 1, 60, 0
5, 8159, Note_on_c, 1, 65, 0
5, 8640, Note_on_c, 1, 48, 80
5, 8960, Note_on_c, 1, 55, 80
5, 9119, Note_on_c, 1, 55, 0
5, 9120, Note_on_c, 1, 60, 80
5, 9120, Note_on_c, 1, 64, 80
5, 9439, Note_on_c, 1, 60, 0
5, 9439, Note_on_c, 1, 64, 0
5, 9440, Note_on_c, 1, 55, 80
5, 9599, Note_on_c, 1, 55, 0
5, 9600, Note_on_c, 1, 60, 80
5, 9600, Note_on_c, 1, 64, 80
5, 9919, Note_on_c, 1, 60, 0
5, 9919, Note_on_c, 1, 64, 0
5, 9920, Note_on_c, 1, 55, 80
5, 10079, Note_on_c, 1, 48, 0
5, 10079, Note_on_c, 1, 55, 0
5, 10080, Note_on_c, 1, 48, 80
5, 10400, Note_on_c, 1, 57, 80
5, 10560, Note_on_c, 1, 60, 80
5, 10560, Note_on_c, 1, 65, 80
5, 10799, Note_on_c, 1, 60, 0
5, 10799, Note_on_c, 1, 65, 0
5, 11040, Note_on_c, 1, 65, 80
5, 11199, Note_on_c, 1, 65, 0
5, 11200, Note_on_c, 1, 64, 80
5, 11359, Note_on_c, 1, 64, 0
5, 11360, Note_on_c, 1, 60, 80
5, 11519, Note_on_c, 1, 48, 0
5, 11519, Note_on_c, 1, 57, 0
5, 11519, Note_on_c, 1, 60, 0
5, 11520, Note_on_c, 1, 48, 80
5, 11840, Note_on_c, 1, 55, 80
5, 11999, Note_on_c, 1, 55, 0
5, 12000, Note_on_c, 1, 60, 80
5, 12000, Note_on_c, 1, 64, 80
5, 12319, Note_on_c, 1, 60, 0
5, 12319, Note_on_c, 1, 64, 0
5, 12320, Note_on_c, 1, 55, 80
5, 12479, Note_on_c, 1, 55, 0
5, 12480, Note_on_c, 1, 60, 80
5, 12480, Note_on_c, 1, 64, 80
5, 12799, Note_on_c, 1, 60, 0
5, 12799, Note_on_c, 1, 64, 0
5, 12800, Note_on_c, 1, 55, 80
5, 12959, Note_on_c, 1, 48, 0
5, 12959, Note_on_c, 1, 55, 0
5, 12960, Note_on_c, 1, 48, 80
5, 13280, Note_on_c, 1, 57, 80
5, 13440, Note_on_c, 1, 60, 80
5, 13440, Note_on_c, 1, 65, 80
5, 14399, Note_on_c, 1, 48, 0
5, 14399, Note_on_c, 1, 57, 0
5, 14399, Note_on_c, 1, 60, 0
5, 14399, Note_on_c, 1, 65, 0
5, 14400, Note_on_c, 1, 48, 80
5, 14400, Note_on_c, 1, 55, 80
5, 14400, Note_on_c, 1, 59, 80
5, 15199, Note_on_c, 1, 48, 0
5, 15199, Note_on_c, 1, 55, 0
5, 15199, Note_on_c, 1, 59, 0
5, 15200, Note_on_c, 1, 48, 80
5, 15360, Note_on_c, 1, 55, 80
5, 15360, Note_on_c, 1, 59, 80
5, 15839, Note_on_c, 1, 48, 0
5, 15839, Note_on_c, 1, 55, 0
5, 15839, Note_on_c, 1, 59, 0
5, 15840, Note_on_c, 1, 60, 80
5, 15840, Note_on_c, 1, 52, 80
5, 15840, Note_on_c, 1, 57, 80
5, 16640, Note_on_c, 1, 60, 0
5, 16640, Note_on_c, 1, 60, 80
5, 16640, Note_on_c, 8, 60, 0
5, 17279, Note_on_c, 1, 52, 0
5, 17279, Note_on_c, 1, 57, 0
5, 17279, Note_on_c, 1, 60, 0
5, 17280, Note_on_c, 1, 50, 80
5, 17280, Note_on_c, 1, 57, 80
5, 17280, Note_on_c, 1, 60, 80
5, 18079, Note_on_c, 1, 50, 0
5, 18079, Note_on_c, 1, 57, 0
5, 18079, Note_on_c, 1, 60, 0
5, 18080, Note_on_c, 1, 50, 80
5, 18240, Note_on_c, 1, 57, 80
5, 18240, Note_on_c, 1, 60, 80
5, 18719, Note_on_c, 1, 50, 0
5, 18719, Note_on_c, 1, 57, 0
5, 18719, Note_on_c, 1, 60, 0
5, 18720, Note_on_c, 1, 50, 80
5, 18720, Note_on_c, 1, 55, 80
5, 18720, Note_on_c, 1, 60, 80
5, 20159, Note_on_c, 1, 50, 0
5, 20159, Note_on_c, 1, 55, 0
5, 20159, Note_on_c, 1, 60, 0
5, 20160, Note_on_c, 1, 48, 80
5, 20160, Note_on_c, 1, 55, 80
5, 20160, Note_on_c, 1, 59, 80
5, 20959, Note_on_c, 1, 48, 0
5, 20959, Note_on_c, 1, 55, 0
5, 20959, Note_on_c, 1, 59, 0
5, 20960, Note_on_c, 1, 48, 80
5, 21120, Note_on_c, 1, 55, 80
5, 21120, Note_on_c, 1, 59, 80
5, 21599, Note_on_c, 1, 48, 0
5, 21599, Note_on_c, 1, 55, 0
5, 21599, Note_on_c, 1, 59, 0
5, 21600, Note_on_c, 1, 60, 80
5, 21600, Note_on_c, 1, 52, 80
5, 21600, Note_on_c, 1, 57, 80
5, 22400, Note_on_c, 1, 60, 0
5, 22400, Note_on_c, 1, 60, 80
5, 22400, Note_on_c, 8, 60, 0
5, 23039, Note_on_c, 1, 52, 0
5, 23039, Note_on_c, 1, 57, 0
5, 23039, Note_on_c, 1, 60, 0
5, 23040, Note_on_c, 1, 53, 80
5, 23040, Note_on_c, 1, 60, 80
5, 23040, Note_on_c, 1, 64, 80
5, 24479, Note_on_c, 1, 53, 0
5, 24479, Note_on_c, 1, 60, 0
5, 24479, Note_on_c, 1, 64, 0
5, 24480, Note_on_c, 1, 50, 80
5, 24480, Note_on_c, 1, 55, 80
5, 24480, Note_on_c, 1, 60, 80
5, 25919, Note_on_c, 1, 50, 0
5, 25919, Note_on_c, 1, 55, 0
5, 25919, Note_on_c, 1, 60, 0
5, 25920, Note_on_c, 1, 48, 80
5, 25920, Note_on_c, 1, 55, 80
5, 25920, Note_on_c, 1, 59, 80
5, 26719, Note_on_c, 1, 48, 0
5, 26719, Note_on_c, 1, 55, 0
5, 26719, Note_on_c, 1, 59, 0
5, 26720, Note_on_c, 1, 48, 80
5, 26880, Note_on_c, 1, 55, 80
5, 26880, Note_on_c, 1, 59, 80
5, 27359, Note_on_c, 1, 48, 0
5, 27359, Note_on_c, 1, 55, 0
5, 27359, Note_on_c, 1, 59, 0
5, 27360, Note_on_c, 1, 60, 80
5, 27360, Note_on_c, 1, 52, 80
5, 27360, Note_on_c, 1, 57, 80
5, 28160, Note_on_c, 1, 60, 0
5, 28160, Note_on_c, 1, 60, 80
5, 28160, Note_on_c, 8, 60, 0
5, 28799, Note_on_c, 1, 52, 0
5, 28799, Note_on_c, 1, 57, 0
5, 28799, Note_on_c, 1, 60, 0
5, 28800, Note_on_c, 1, 50, 80
5, 28800, Note_on_c, 1, 57, 80
5, 28800, Note_on_c, 1, 60, 80
5, 29599, Note_on_c, 1, 50, 0
5, 29599, Note_on_c, 1, 57, 0
5, 29599, Note_on_c, 1, 60, 0
5, 29600, Note_on_c, 1, 50, 80
5, 29760, Note_on_c, 1, 57, 80
5, 29760, Note_on_c, 1, 60, 80
5, 30239, Note_on_c, 1, 50, 0
5, 30239, Note_on_c, 1, 57, 0
5, 30239, Note_on_c, 1, 60, 0
5, 30240, Note_on_c, 1, 50, 80
5, 30240, Note_on_c, 1, 55, 80
5, 30240, Note_on_c, 1, 60, 80
5, 31679, Note_on_c, 1, 50, 0
5, 31679, Note_on_c, 1, 55, 0
5, 31679, Note_on_c, 1, 60, 0
5, 31680, Note_on_c, 1, 48, 80
5, 31680, Note_on_c, 1, 55, 80
5, 31680, Note_on_c, 1, 59, 80
5, 32479, Note_on_c, 1, 48, 0
5, 32479, Note_on_c, 1, 55, 0
5, 32479, Note_on_c, 1, 59, 0
5, 32480, Note_on_c, 1, 48, 80
5, 32640, Note_on_c, 1, 55, 80
5, 32640, Note_on_c, 1, 59, 80
5, 33119, Note_on_c, 1, 48, 0
5, 33119, Note_on_c, 1, 55, 0
5, 33119, Note_on_c, 1, 59, 0
5, 33120, Note_on_c, 1, 60, 80
5, 33120, Note_on_c, 1, 52, 80
5, 33120, Note_on_c, 1, 57, 80
5, 33920, Note_on_c, 1, 60, 0
5, 33920, Note_on_c, 1, 60, 80
5, 33920, Note_on_c, 8, 60, 0
5, 34559, Note_on_c, 1, 52, 0
5, 34559, Note_on_c, 1, 57, 0
5, 34559, Note_on_c, 1, 60, 0
5, 34560, Note_on_c, 1, 53, 80
5, 34560, Note_on_c, 1, 60, 80
5, 34560, Note_on_c, 1, 64, 80
5, 35999, Note_on_c, 1, 53, 0
5, 35999, Note_on_c, 1, 60, 0
5, 35999, Note_on_c, 1, 64, 0
5, 36000, Note_on_c, 1, 53, 80
5, 36000, Note_on_c, 1, 60, 80
5, 36000, Note_on_c, 1, 64, 80
5, 36959, Note_on_c, 1, 53, 0
5, 36959, Note_on_c, 1, 60, 0
5, 36959, Note_on_c, 1, 64, 0
5, 37440, Note_on_c, 1, 53, 80
5, 37440, Note_on_c, 1, 60, 80
5, 37440, Note_on_c, 1, 64, 80
5, 40319, Note_on_c, 1, 53, 0
5, 40319, Note_on_c, 1, 60, 0
5, 40319, Note_on_c, 1, 64, 0
5, 40320, Note_on_c, 1, 53, 80
5, 40320, Note_on_c, 1, 60, 80
5, 40320, Note_on_c, 1, 64, 80
5, 42559, Note_on_c, 1, 53, 0
5, 42559, Note_on_c, 1, 60, 0
5, 42559, Note_on_c, 1, 64, 0
5, 42560, Note_on_c, 1, 53, 80
5, 42720, Note_on_c, 1, 60, 80
5, 42720, Note_on_c, 1, 64, 80
5, 42959, Note_on_c, 1, 53, 0
5, 43199, Note_on_c, 1, 60, 0
5, 43199, Note_on_c, 1, 64, 0
5, 43200, Note_on_c, 1, 52, 80
5, 43200, Note_on_c, 1, 59, 80
5, 43200, Note_on_c, 1, 62, 80
5, 44639, Note_on_c, 1, 52, 0
5, 44639, Note_on_c, 1, 59, 0
5, 44639, Note_on_c, 1, 62, 0
5, 44640, Note_on_c, 1, 52, 80
5, 44640, Note_on_c, 1, 59, 80
5, 44640, Note_on_c, 1, 62, 80
5, 45439, Note_on_c, 1, 52, 0
5, 45439, Note_on_c, 1, 59, 0
5, 45439, Note_on_c, 1, 62, 0
5, 45440, Note_on_c, 1, 52, 80
5, 45600, Note_on_c, 1, 59, 80
5, 45600, Note_on_c, 1, 62, 80
5, 46079, Note_on_c, 1, 52, 0
5, 46079, Note_on_c, 1, 59, 0
5, 46079, Note_on_c, 1, 62, 0
5, 46080, Note_on_c, 1, 62, 80
5, 46080, Note_on_c, 1, 52, 80
5, 46080, Note_on_c, 1, 57, 80
5, 47039, Note_on_c, 1, 62, 0
5, 47040, Note_on_c, 1, 59, 80
5, 47519, Note_on_c, 1, 59, 0
5, 48000, Note_on_c, 1, 60, 80
5, 48319, Note_on_c, 1, 52, 0
5, 48319, Note_on_c, 1, 57, 0
5, 48319, Note_on_c, 1, 60, 0
5, 48320, Note_on_c, 1, 52, 80
5, 48480, Note_on_c, 1, 57, 80
5, 48480, Note_on_c, 1, 60, 80
5, 48959, Note_on_c, 1, 52, 0
5, 48959, Note_on_c, 1, 57, 0
5, 48959, Note_on_c, 1, 60, 0
5, 48960, Note_on_c, 1, 50, 80
5, 48960, Note_on_c, 1, 57, 80
5, 48960, Note_on_c, 1, 60, 80
5, 49759, Note_on_c, 1, 50, 0
5, 49759, Note_on_c, 1, 57, 0
5, 49759, Note_on_c, 1, 60, 0
5, 49760, Note_on_c, 1, 50, 80
5, 49920, Note_on_c, 1, 57, 80
5, 49920, Note_on_c, 1, 60, 80
5, 50399, Note_on_c, 1, 50, 0
5, 50399, Note_on_c, 1, 57, 0
5, 50399, Note_on_c, 1, 60, 0
5, 50400, Note_on_c, 1, 59, 80
5, 50400, Note_on_c, 1, 50, 80
5, 50400, Note_on_c, 1, 55, 80
5, 51200, Note_on_c, 1, 59, 0
5, 51200, Note_on_c, 1, 59, 80
5, 51200, Note_on_c, 8, 59, 0
5, 51839, Note_on_c, 1, 50, 0
5, 51839, Note_on_c, 1, 55, 0
5, 51839, Note_on_c, 1, 59, 0
5, 51840, Note_on_c, 1, 52, 80
5, 51840, Note_on_c, 1, 59, 80
5, 51840, Note_on_c, 1, 62, 80
5, 52639, Note_on_c, 1, 52, 0
5, 52639, Note_on_c, 1, 59, 0
5, 52639, Note_on_c, 1, 62, 0
5, 52640, Note_on_c, 1, 52, 80
5, 52800, Note_on_c, 1, 59, 80
5, 52800, Note_on_c, 1, 62, 80
5, 53279, Note_on_c, 1, 52, 0
5, 53279, Note_on_c, 1, 59, 0
5, 53279, Note_on_c, 1, 62, 0
5, 53280, Note_on_c, 1, 57, 80
5, 53280, Note_on_c, 1, 52, 80
5, 54080, Note_on_c, 1, 57, 0
5, 54080, Note_on_c, 1, 57, 80
5, 54080, Note_on_c, 8, 57, 0
5, 54719, Note_on_c, 1, 52, 0
5, 54719, Note_on_c, 1, 57, 0
5, 54720, Note_on_c, 1, 50, 80
5, 54720, Note_on_c, 1, 57, 80
5, 54720, Note_on_c, 1, 60, 80
5, 56159, Note_on_c, 1, 50, 0
5, 56159, Note_on_c, 1, 57, 0
5, 56159, Note_on_c, 1, 60, 0
5, 56160, Note_on_c, 1, 50, 80
5, 56160, Note_on_c, 1, 55, 80
5, 56160, Note_on_c, 1, 59, 80
5, 57599, Note_on_c, 1, 50, 0
5, 57599, Note_on_c, 1, 55, 0
5, 57599, Note_on_c, 1, 59, 0
5, 57600, Note_on_c, 1, 48, 80
5, 57600, Note_on_c, 1, 55, 80
5, 57600, Note_on_c, 1, 59, 80
5, 59039, Note_on_c, 1, 48, 0
5, 59039, Note_on_c, 1, 55, 0
5, 59039, Note_on_c, 1, 59, 0
5, 59040, Note_on_c, 1, 50, 80
5, 59040, Note_on_c, 1, 55, 80
5, 59040, Note_on_c, 1, 59, 80
5, 60479, Note_on_c, 1, 50, 0
5, 60479, Note_on_c, 1, 55, 0
5, 60479, Note_on_c, 1, 59, 0
5, 60480, Note_on_c, 1, 52, 80
5, 60480, Note_on_c, 1, 57, 80
5, 60480, Note_on_c, 1, 60, 80
5, 61919, Note_on_c, 1, 52, 0
5, 61919, Note_on_c, 1, 57, 0
5, 61919, Note_on_c, 1, 60, 0
5, 61920, Note_on_c, 1, 55, 80
5, 61920, Note_on_c, 1, 60, 80
5, 61920, Note_on_c, 1, 64, 80
5, 63359, Note_on_c, 1, 55, 0
5, 63359, Note_on_c, 1, 60, 0
5, 63359, Note_on_c, 1, 64, 0
5, 63360, Note_on_c, 1, 53, 80
5, 63360, Note_on_c, 1, 60, 80
5, 63360, Note_on_c, 1, 64, 80
5, 64799, Note_on_c, 1, 53, 0
5, 64799, Note_on_c, 1, 60, 0
5, 64799, Note_on_c, 1, 64, 0
5, 64800, Note_on_c, 1, 52, 80
5, 64800, Note_on_c, 1, 55, 80
5, 64800, Note_on_c, 1, 60, 80
5, 66239, Note_on_c, 1, 52, 0
5, 66239, Note_on_c, 1, 55, 0
5, 66239, Note_on_c, 1, 60, 0
5, 66240, Note_on_c, 1, 50, 80
5, 66240, Note_on_c, 1, 55, 80
5, 66240, Note_on_c, 1, 60, 80
5, 67679, Note_on_c, 1, 50, 0
5, 67679, Note_on_c, 1, 55, 0
5, 67679, Note_on_c, 1, 60, 0
5, 67680, Note_on_c, 1, 52, 80
5, 67680, Note_on_c, 1, 57, 80
5, 67680, Note_on_c, 1, 62, 80
5, 69119, Note_on_c, 1, 52, 0
5, 69119, Note_on_c, 1, 57, 0
5, 69119, Note_on_c, 1, 62, 0
5, 69120, Note_on_c, 1, 48, 80
5, 69120, Note_on_c, 1, 55, 80
5, 69120, Note_on_c, 1, 59, 80
5, 70559, Note_on_c, 1, 48, 0
5, 70559, Note_on_c, 1, 55, 0
5, 70559, Note_on_c, 1, 59, 0
5, 116640, Note_on_c, 1, 59, 80
5, 116640, Note_on_c, 1, 65, 80
5, 118079, Note_on_c, 1, 59, 0
5, 118079, Note_on_c, 1, 65, 0
5, 118080, Note_on_c, 1, 57, 80
5, 118080, Note_on_c, 1, 64, 80
5, 119519, Note_on_c, 1, 57, 0
5, 119519, Note_on_c, 1, 64, 0
5, 119520, Note_on_c, 1, 55, 80
5, 119520, Note_on_c, 1, 60, 80
5, 120959, Note_on_c, 1, 55, 0
5, 120959, Note_on_c, 1, 60, 0
5, 120960, Note_on_c, 1, 53, 80
5, 120960, Note_on_c, 1, 60, 80
5, 122399, Note_on_c, 1, 53, 0
5, 122399, Note_on_c, 1, 60, 0
5, 122400, Note_on_c, 1, 53, 80
5, 122400, Note_on_c, 1, 59, 80
5, 122879, Note_on_c, 1, 53, 0
5, 122879, Note_on_c, 1, 59, 0
5, 122880, Note_on_c, 1, 55, 80
5, 122880, Note_on_c, 1, 60, 80
5, 123359, Note_on_c, 1, 55, 0
5, 123359, Note_on_c, 1, 60, 0
5, 123360, Note_on_c, 1, 57, 80
5, 123360, Note_on_c, 1, 62, 80
5, 123839, Note_on_c, 1, 57, 0
5, 123839, Note_on_c, 1, 62, 0
5, 123840, Note_on_c, 1, 59, 80
5, 123840, Note_on_c, 1, 64, 80
5, 126719, Note_on_c, 1, 59, 0
5, 126719, Note_on_c, 1, 64, 0
5, 126720, Note_on_c, 1, 48, 80
5, 127040, Note_on_c, 1, 55, 80
5, 127199, Note_on_c, 1, 55, 0
5, 127200, Note_on_c, 1, 60, 80
5, 127200, Note_on_c, 1, 64, 80
5, 127519, Note_on_c, 1, 60, 0
5, 127519, Note_on_c, 1, 64, 0
5, 127520, Note_on_c, 1, 55, 80
5, 127679, Note_on_c, 1, 55, 0
5, 127680, Note_on_c, 1, 60, 80
5, 127680, Note_on_c, 1, 64, 80
5, 127999, Note_on_c, 1, 60, 0
5, 127999, Note_on_c, 1, 64, 0
5, 128000, Note_on_c, 1, 55, 80
5, 128159, Note_on_c, 1, 48, 0
5, 128159, Note_on_c, 1, 55, 0
5, 128160, Note_on_c, 1, 48, 80
5, 128480, Note_on_c, 1, 57, 80
5, 128640, Note_on_c, 1, 60, 80
5, 128640, Note_on_c, 1, 65, 80
5, 129599, Note_on_c, 1, 48, 0
5, 129599, Note_on_c, 1, 57, 0
5, 129599, Note_on_c, 1, 60, 0
5, 129599, Note_on_c, 1, 65, 0
5, 129600, Note_on_c, 1, 48, 80
5, 129920, Note_on_c, 1, 55, 80
5, 130079, Note_on_c, 1, 55, 0
5, 130080, Note_on_c, 1, 60, 80
5, 130080, Note_on_c, 1, 64, 80
5, 130399, Note_on_c, 1, 60, 0
5, 130399, Note_on_c, 1, 64, 0
5, 130400, Note_on_c, 1, 55, 80
5, 130559, Note_on_c, 1, 55, 0
5, 130560, Note_on_c, 1, 60, 80
5, 130560, Note_on_c, 1, 64, 80
5, 130879, Note_on_c, 1, 60, 0
5, 130879, Note_on_c, 1, 64, 0
5, 130880, Note_on_c, 1, 55, 80
5, 131039, Note_on_c, 1, 48, 0
5, 131039, Note_on_c, 1, 55, 0
5, 131040, Note_on_c, 1, 48, 80
5, 131360, Note_on_c, 1, 57, 80
5, 131520, Note_on_c, 1, 60, 80
5, 131520, Note_on_c, 1, 65, 80
5, 132479, Note_on_c, 1, 48, 0
5, 132479, Note_on_c, 1, 57, 0
5, 132479, Note_on_c, 1, 60, 0
5, 132479, Note_on_c, 1, 65, 0
5, 132480, Note_on_c, 1, 55, 80
5, 132480, Note_on_c, 1, 59, 80
5, 132480, Note_on_c, 1, 64, 80
5, 133439, Note_on_c, 1, 55, 0
5, 133439, Note_on_c, 1, 59, 0
5, 133439, Note_on_c, 1, 64, 0
5, 133440, Note_on_c, 1, 55, 80
5, 133440, Note_on_c, 1, 59, 80
5, 133440, Note_on_c, 1, 64, 80
5, 133919, Note_on_c, 1, 55, 0
5, 133919, Note_on_c, 1, 59, 0
5, 133919, Note_on_c, 1, 64, 0
5, 133920, Note_on_c, 1, 55, 80
5, 133920, Note_on_c, 1, 64, 80
5, 133920, Note_on_c, 1, 59, 80
5, 134399, Note_on_c, 1, 59, 0
5, 134400, Note_on_c, 1, 60, 80
5, 134879, Note_on_c, 1, 60, 0
5, 134880, Note_on_c, 1, 59, 80
5, 135359, Note_on_c, 1, 55, 0
5, 135359, Note_on_c, 1, 64, 0
5, 135359, Note_on_c, 1, 59, 0
5, 135360, Note_on_c, 1, 53, 80
5, 135360, Note_on_c, 1, 57, 80
5, 135360, Note_on_c, 1, 62, 80
5, 136319, Note_on_c, 1, 53, 0
5, 136319, Note_on_c, 1, 57, 0
5, 136319, Note_on_c, 1, 62, 0
5, 136320, Note_on_c, 1, 53, 80
5, 136320, Note_on_c, 1, 57, 80
5, 136320, Note_on_c, 1, 62, 80
5, 136799, Note_on_c, 1, 53, 0
5, 136799, Note_on_c, 1, 57, 0
5, 136799, Note_on_c, 1, 62, 0
5, 136800, Note_on_c, 1, 53, 80
5, 136800, Note_on_c, 1, 57, 80
5, 136800, Note_on_c, 1, 62, 80
5, 137759, Note_on_c, 1, 53, 0
5, 137759, Note_on_c, 1, 57, 0
5, 137759, Note_on_c, 1, 62, 0
5, 137760, Note_on_c, 1, 53, 80
5, 137760, Note_on_c, 1, 57, 80
5, 137760, Note_on_c, 1, 62, 80
5, 138239, Note_on_c, 1, 53, 0
5, 138239, Note_on_c, 1, 57, 0
5, 138239, Note_on_c, 1, 62, 0
5, 138240, Note_on_c, 1, 52, 80
5, 138240, Note_on_c, 1, 55, 80
5, 138240, Note_on_c, 1, 60, 80
5, 139199, Note_on_c, 1, 52, 0
5, 139199, Note_on_c, 1, 55, 0
5, 139199, Note_on_c, 1, 60, 0
5, 139200, Note_on_c, 1, 52, 80
5, 139200, Note_on_c, 1, 55, 80
5, 139200, Note_on_c, 1, 60, 80
5, 139679, Note_on_c, 1, 52, 0
5, 139679, Note_on_c, 1, 55, 0
5, 139679, Note_on_c, 1, 60, 0
5, 139680, Note_on_c, 1, 52, 80
5, 139680, Note_on_c, 1, 60, 80
5, 139680, Note_on_c, 1, 55, 80
5, 140159, Note_on_c, 1, 55, 0
5, 140160, Note_on_c, 1, 57, 80
5, 140639, Note_on_c, 1, 57, 0
5, 140640, Note_on_c, 1, 55, 80
5, 141119, Note_on_c, 1, 52, 0
5, 141119, Note_on_c, 1, 60, 0
5, 141119, Note_on_c, 1, 55, 0
5, 141120, Note_on_c, 1, 57, 80
5, 141120, Note_on_c, 1, 60, 80
5, 142559, Note_on_c, 1, 57, 0
5, 142559, Note_on_c, 1, 60, 0
5, 142560, Note_on_c, 1, 53, 80
5, 142560, Note_on_c, 1, 57, 80
5, 142560, Note_on_c, 1, 62, 80
5, 143519, Note_on_c, 1, 53, 0
5, 143519, Note_on_c, 1, 57, 0
5, 143519, Note_on_c, 1, 62, 0
5, 143520, Note_on_c, 1, 53, 80
5, 143520, Note_on_c, 1, 57, 80
5, 143520, Note_on_c, 1, 62, 80
5, 143999, Note_on_c, 1, 53, 0
5, 143999, Note_on_c, 1, 57, 0
5, 143999, Note_on_c, 1, 62, 0
5, 144000, Note_on_c, 1, 55, 80
5, 144000, Note_on_c, 1, 59, 80
5, 144000, Note_on_c, 1, 64, 80
5, 144959, Note_on_c, 1, 55, 0
5, 144959, Note_on_c, 1, 59, 0
5, 144959, Note_on_c, 1, 64, 0
5, 144960, Note_on_c, 1, 55, 80
5, 144960, Note_on_c, 1, 59, 80
5, 144960, Note_on_c, 1, 64, 80
5, 145439, Note_on_c, 1, 55, 0
5, 145439, Note_on_c, 1, 59, 0
5, 145439, Note_on_c, 1, 64, 0
5, 145440, Note_on_c, 1, 55, 80
5, 145440, Note_on_c, 1, 64, 80
5, 145440, Note_on_c, 1, 59, 80
5, 145919, Note_on_c, 1, 59, 0
5, 145920, Note_on_c, 1, 60, 80
5, 146399, Note_on_c, 1, 60, 0
5, 146400, Note_on_c, 1, 59, 80
5, 146879, Note_on_c, 1, 55, 0
5, 146879, Note_on_c, 1, 64, 0
5, 146879, Note_on_c, 1, 59, 0
5, 146880, Note_on_c, 1, 53, 80
5, 146880, Note_on_c, 1, 57, 80
5, 146880, Note_on_c, 1, 62, 80
5, 147839, Note_on_c, 1, 53, 0
5, 147839, Note_on_c, 1, 57, 0
5, 147839, Note_on_c, 1, 62, 0
5, 147840, Note_on_c, 1, 53, 80
5, 147840, Note_on_c, 1, 57, 80
5, 147840, Note_on_c, 1, 62, 80
5, 148319, Note_on_c, 1, 53, 0
5, 148319, Note_on_c, 1, 57, 0
5, 148319, Note_on_c, 1, 62, 0
5, 148320, Note_on_c, 1, 53, 80
5, 148320, Note_on_c, 1, 57, 80
5, 148320, Note_on_c, 1, 62, 80
5, 149279, Note_on_c, 1, 53, 0
5, 149279, Note_on_c, 1, 57, 0
5, 149279, Note_on_c, 1, 62, 0
5, 149280, Note_on_c, 1, 53, 80
5, 149280, Note_on_c, 1, 57, 80
5, 149280, Note_on_c, 1, 62, 80
5, 149759, Note_on_c, 1, 53, 0
5, 149759, Note_on_c, 1, 57, 0
5, 149759, Note_on_c, 1, 62, 0
5, 149760, Note_on_c, 1, 52, 80
5, 149760, Note_on_c, 1, 55, 80
5, 149760, Note_on_c, 1, 60, 80
5, 150719, Note_on_c, 1, 52, 0
5, 150719, Note_on_c, 1, 55, 0
5, 150719, Note_on_c, 1, 60, 0
5, 150720, Note_on_c, 1, 52, 80
5, 150720, Note_on_c, 1, 55, 80
5, 150720, Note_on_c, 1, 60, 80
5, 151199, Note_on_c, 1, 52, 0
5, 151199, Note_on_c, 1, 55, 0
5, 151199, Note_on_c, 1, 60, 0
5, 151200, Note_on_c, 1, 52, 80
5, 151200, Note_on_c, 1, 60, 80
5, 151200, Note_on_c, 1, 55, 80
5, 151679, Note_on_c, 1, 55, 0
5, 151680, Note_on_c, 1, 57, 80
5, 152159, Note_on_c, 1, 57, 0
5, 152160, Note_on_c, 1, 55, 80
5, 152639, Note_on_c, 1, 52, 0
5, 152639, Note_on_c, 1, 60, 0
5, 152639, Note_on_c, 1, 55, 0
5, 152640, Note_on_c, 1, 57, 80
5, 152640, Note_on_c, 1, 60, 80
5, 154079, Note_on_c, 1, 57, 0
5, 154079, Note_on_c, 1, 60, 0
5, 154080, Note_on_c, 1, 57, 80
5, 154080, Note_on_c, 1, 60, 80
5, 155039, Note_on_c, 1, 57, 0
5, 155039, Note_on_c, 1, 60, 0
5, 155040, End_track
0, 0, End_of_file
