0, 0, Header, 1, 5, 480
1, 0, Start_track
1, 0, Title_t, "Piano, Minstrel\000"
1, 0, Time_signature, 4, 2, 24, 8
1, 0, Key_signature, 0, "major"
1, 0, Tempo, 555556
1, 0, Control_c, 4, 121, 0
1, 0, Program_c, 4, 0
1, 0, Control_c, 4, 7, 100
1, 0, Control_c, 4, 10, 64
1, 0, Control_c, 4, 91, 0
1, 0, Control_c, 4, 93, 0
1, 0, MIDI_port, 1
1, 330, Note_on_c, 4, 67, 80
1, 330, Note_on_c, 4, 72, 80
1, 330, Note_on_c, 4, 76, 80
1, 414, Note_on_c, 4, 67, 0
1, 414, Note_on_c, 4, 72, 0
1, 414, Note_on_c, 4, 76, 0
1, 480, Note_on_c, 4, 67, 80
1, 480, Note_on_c, 4, 71, 80
1, 480, Note_on_c, 4, 74, 80
1, 719, Note_on_c, 4, 67, 0
1, 719, Note_on_c, 4, 71, 0
1, 719, Note_on_c, 4, 74, 0
1, 960, Note_on_c, 4, 67, 80
1, 960, Note_on_c, 4, 69, 80
1, 960, Note_on_c, 4, 72, 80
1, 1199, Note_on_c, 4, 67, 0
1, 1199, Note_on_c, 4, 69, 0
1, 1199, Note_on_c, 4, 72, 0
1, 1440, Note_on_c, 4, 67, 80
1, 1440, Note_on_c, 4, 71, 80
1, 1440, Note_on_c, 4, 74, 80
1, 1679, Note_on_c, 4, 67, 0
1, 1679, Note_on_c, 4, 71, 0
1, 1679, Note_on_c, 4, 74, 0
1, 1920, Note_on_c, 4, 72, 80
1, 1920, Note_on_c, 4, 76, 80
1, 1920, Note_on_c, 4, 67, 80
1, 2375, Note_on_c, 4, 72, 0
1, 2375, Note_on_c, 4, 76, 0
1, 2527, Note_on_c, 4, 67, 0
1, 2720, Note_on_c, 4, 67, 80
1, 2720, Note_on_c, 4, 71, 80
1, 2720, Note_on_c, 4, 74, 80
1, 3783, Note_on_c, 4, 67, 0
1, 3783, Note_on_c, 4, 71, 0
1, 3783, Note_on_c, 4, 74, 0
1, 4170, Note_on_c, 4, 67, 80
1, 4170, Note_on_c, 4, 72, 80
1, 4170, Note_on_c, 4, 76, 80
1, 4254, Note_on_c, 4, 67, 0
1, 4254, Note_on_c, 4, 72, 0
1, 4254, Note_on_c, 4, 76, 0
1, 4320, Note_on_c, 4, 67, 80
1, 4320, Note_on_c, 4, 71, 80
1, 4320, Note_on_c, 4, 74, 80
1, 4559, Note_on_c, 4, 67, 0
1, 4559, Note_on_c, 4, 71, 0
1, 4559, Note_on_c, 4, 74, 0
1, 4800, Note_on_c, 4, 67, 80
1, 4800, Note_on_c, 4, 69, 80
1, 4800, Note_on_c, 4, 72, 80
1, 5039, Note_on_c, 4, 67, 0
1, 5039, Note_on_c, 4, 69, 0
1, 5039, Note_on_c, 4, 72, 0
1, 5280, Note_on_c, 4, 67, 80
1, 5280, Note_on_c, 4, 71, 80
1, 5280, Note_on_c, 4, 74, 80
1, 5519, Note_on_c, 4, 67, 0
1, 5519, Note_on_c, 4, 71, 0
1, 5519, Note_on_c, 4, 74, 0
1, 5760, Note_on_c, 4, 72, 80
1, 5760, Note_on_c, 4, 76, 80
1, 5760, Note_on_c, 4, 67, 80
1, 6215, Note_on_c, 4, 72, 0
1, 6215, Note_on_c, 4, 76, 0
1, 6367, Note_on_c, 4, 67, 0
1, 6560, Note_on_c, 4, 69, 80
1, 6560, Note_on_c, 4, 72, 80
1, 6560, Note_on_c, 4, 77, 80
1, 7623, Note_on_c, 4, 69, 0
1, 7623, Note_on_c, 4, 72, 0
1, 7623, Note_on_c, 4, 77, 0
1, 7680, Note_on_c, 4, 72, 80
1, 7983, Note_on_c, 4, 72, 0
1, 8000, Note_on_c, 4, 72, 80
1, 8079, Note_on_c, 4, 72, 0
1, 8160, Note_on_c, 4, 72, 80
1, 8615, Note_on_c, 4, 72, 0
1, 8640, Note_on_c, 4, 71, 80
1, 8943, Note_on_c, 4, 71, 0
1, 8960, Note_on_c, 4, 71, 80
1, 9039, Note_on_c, 4, 71, 0
1, 9120, Note_on_c, 4, 71, 80
1, 9575, Note_on_c, 4, 71, 0
1, 9600, Note_on_c, 4, 69, 80
1, 9827, Note_on_c, 4, 69, 0
1, 9900, Note_on_c, 4, 71, 80
1, 10070, Note_on_c, 4, 71, 0
1, 10080, Note_on_c, 4, 69, 80
1, 10383, Note_on_c, 4, 69, 0
1, 10400, Note_on_c, 4, 64, 80
1, 11463, Note_on_c, 4, 64, 0
1, 11520, Note_on_c, 4, 69, 80
1, 11747, Note_on_c, 4, 69, 0
1, 11820, Note_on_c, 4, 71, 80
1, 11990, Note_on_c, 4, 71, 0
1, 12000, Note_on_c, 4, 69, 80
1, 12455, Note_on_c, 4, 69, 0
1, 12480, Note_on_c, 4, 64, 80
1, 12935, Note_on_c, 4, 64, 0
1, 12960, Note_on_c, 4, 67, 80
1, 13415, Note_on_c, 4, 67, 0
1, 13440, Note_on_c, 4, 69, 80
1, 13667, Note_on_c, 4, 69, 0
1, 13740, Note_on_c, 4, 71, 80
1, 13910, Note_on_c, 4, 71, 0
1, 13920, Note_on_c, 4, 69, 80
1, 14375, Note_on_c, 4, 69, 0
1, 14400, Note_on_c, 4, 65, 80
1, 14855, Note_on_c, 4, 65, 0
1, 15360, Note_on_c, 4, 62, 80
1, 15663, Note_on_c, 4, 62, 0
1, 15680, Note_on_c, 4, 64, 80
1, 15831, Note_on_c, 4, 64, 0
1, 16140, Note_on_c, 4, 65, 80
1, 16310, Note_on_c, 4, 65, 0
1, 16320, Note_on_c, 4, 67, 80
1, 16623, Note_on_c, 4, 67, 0
1, 16640, Note_on_c, 4, 69, 80
1, 17133, Note_on_c, 4, 69, 0
1, 17160, Note_on_c, 4, 67, 80
1, 17273, Note_on_c, 4, 67, 0
1, 17280, Note_on_c, 4, 62, 80
1, 17583, Note_on_c, 4, 62, 0
1, 17600, Note_on_c, 4, 64, 80
1, 17679, Note_on_c, 4, 64, 0
1, 17760, Note_on_c, 4, 65, 80
1, 18215, Note_on_c, 4, 65, 0
1, 18240, Note_on_c, 4, 67, 80
1, 19151, Note_on_c, 4, 67, 0
1, 19680, Note_on_c, 4, 69, 80
1, 19983, Note_on_c, 4, 69, 0
1, 20000, Note_on_c, 4, 67, 80
1, 20151, Note_on_c, 4, 67, 0
1, 20160, Note_on_c, 4, 69, 80
1, 20463, Note_on_c, 4, 69, 0
1, 20480, Note_on_c, 4, 67, 80
1, 20559, Note_on_c, 4, 67, 0
1, 20640, Note_on_c, 4, 69, 80
1, 21095, Note_on_c, 4, 69, 0
1, 21120, Note_on_c, 4, 69, 80
1, 21423, Note_on_c, 4, 69, 0
1, 21440, Note_on_c, 4, 67, 80
1, 21591, Note_on_c, 4, 67, 0
1, 21960, Note_on_c, 4, 64, 80
1, 22757, Note_on_c, 4, 64, 0
1, 23040, Note_on_c, 4, 72, 80
1, 23343, Note_on_c, 4, 72, 0
1, 23360, Note_on_c, 4, 72, 80
1, 23439, Note_on_c, 4, 72, 0
1, 23520, Note_on_c, 4, 72, 80
1, 23975, Note_on_c, 4, 72, 0
1, 24000, Note_on_c, 4, 71, 80
1, 24303, Note_on_c, 4, 71, 0
1, 24320, Note_on_c, 4, 71, 80
1, 24399, Note_on_c, 4, 71, 0
1, 24480, Note_on_c, 4, 71, 80
1, 24935, Note_on_c, 4, 71, 0
1, 24960, Note_on_c, 4, 69, 80
1, 25187, Note_on_c, 4, 69, 0
1, 25260, Note_on_c, 4, 71, 80
1, 25430, Note_on_c, 4, 71, 0
1, 25440, Note_on_c, 4, 69, 80
1, 25743, Note_on_c, 4, 69, 0
1, 25760, Note_on_c, 4, 64, 80
1, 26823, Note_on_c, 4, 64, 0
1, 26880, Note_on_c, 4, 69, 80
1, 27107, Note_on_c, 4, 69, 0
1, 27180, Note_on_c, 4, 71, 80
1, 27350, Note_on_c, 4, 71, 0
1, 27360, Note_on_c, 4, 69, 80
1, 27815, Note_on_c, 4, 69, 0
1, 27840, Note_on_c, 4, 64, 80
1, 28295, Note_on_c, 4, 64, 0
1, 28320, Note_on_c, 4, 67, 80
1, 28775, Note_on_c, 4, 67, 0
1, 28800, Note_on_c, 4, 69, 80
1, 29027, Note_on_c, 4, 69, 0
1, 29100, Note_on_c, 4, 71, 80
1, 29270, Note_on_c, 4, 71, 0
1, 29280, Note_on_c, 4, 69, 80
1, 29735, Note_on_c, 4, 69, 0
1, 29760, Note_on_c, 4, 65, 80
1, 30215, Note_on_c, 4, 65, 0
1, 30720, Note_on_c, 4, 62, 80
1, 31023, Note_on_c, 4, 62, 0
1, 31040, Note_on_c, 4, 64, 80
1, 31191, Note_on_c, 4, 64, 0
1, 31500, Note_on_c, 4, 65, 80
1, 31670, Note_on_c, 4, 65, 0
1, 31680, Note_on_c, 4, 67, 80
1, 31983, Note_on_c, 4, 67, 0
1, 32000, Note_on_c, 4, 69, 80
1, 32379, Note_on_c, 4, 69, 0
1, 32400, Note_on_c, 4, 67, 80
1, 32627, Note_on_c, 4, 67, 0
1, 32640, Note_on_c, 4, 62, 80
1, 32943, Note_on_c, 4, 62, 0
1, 32960, Note_on_c, 4, 64, 80
1, 33039, Note_on_c, 4, 64, 0
1, 33120, Note_on_c, 4, 65, 80
1, 33575, Note_on_c, 4, 65, 0
1, 33600, Note_on_c, 4, 67, 80
1, 34511, Note_on_c, 4, 67, 0
1, 35040, Note_on_c, 4, 69, 80
1, 35267, Note_on_c, 4, 69, 0
1, 35340, Note_on_c, 4, 69, 80
1, 35510, Note_on_c, 4, 69, 0
1, 35520, Note_on_c, 4, 71, 80
1, 35823, Note_on_c, 4, 71, 0
1, 35840, Note_on_c, 4, 67, 80
1, 36219, Note_on_c, 4, 67, 0
1, 36240, Note_on_c, 4, 72, 80
1, 37835, Note_on_c, 4, 72, 0
1, 37920, Note_on_c, 4, 72, 80
1, 38147, Note_on_c, 4, 72, 0
1, 38220, Note_on_c, 4, 72, 80
1, 38309, Note_on_c, 4, 72, 0
1, 38400, Note_on_c, 4, 72, 80
1, 38551, Note_on_c, 4, 72, 0
1, 38720, Note_on_c, 4, 74, 80
1, 39099, Note_on_c, 4, 74, 0
1, 39120, Note_on_c, 4, 72, 80
1, 39803, Note_on_c, 4, 72, 0
1, 39840, Note_on_c, 4, 69, 80
1, 40143, Note_on_c, 4, 69, 0
1, 40160, Note_on_c, 4, 72, 80
1, 40239, Note_on_c, 4, 72, 0
1, 40320, Note_on_c, 4, 72, 80
1, 40623, Note_on_c, 4, 72, 0
1, 40640, Note_on_c, 4, 74, 80
1, 41019, Note_on_c, 4, 74, 0
1, 41040, Note_on_c, 4, 72, 80
1, 41837, Note_on_c, 4, 72, 0
1, 42060, Note_on_c, 4, 72, 80
1, 42149, Note_on_c, 4, 72, 0
1, 42240, Note_on_c, 4, 72, 80
1, 42695, Note_on_c, 4, 72, 0
1, 42720, Note_on_c, 4, 71, 80
1, 43175, Note_on_c, 4, 71, 0
1, 43200, Note_on_c, 4, 69, 80
1, 43655, Note_on_c, 4, 69, 0
1, 43680, Note_on_c, 4, 67, 80
1, 44135, Note_on_c, 4, 67, 0
1, 44160, Note_on_c, 4, 64, 80
1, 45527, Note_on_c, 4, 64, 0
1, 45600, Note_on_c, 4, 72, 80
1, 45920, Note_on_c, 4, 72, 0
1, 45920, Note_on_c, 4, 72, 80
1, 46071, Note_on_c, 4, 72, 0
1, 46080, Note_on_c, 4, 72, 80
1, 46383, Note_on_c, 4, 72, 0
1, 46400, Note_on_c, 4, 74, 80
1, 46893, Note_on_c, 4, 74, 0
1, 46920, Note_on_c, 4, 72, 80
1, 47489, Note_on_c, 4, 72, 0
1, 47520, Note_on_c, 4, 69, 80
1, 47747, Note_on_c, 4, 69, 0
1, 47820, Note_on_c, 4, 72, 80
1, 47990, Note_on_c, 4, 72, 0
1, 48000, Note_on_c, 4, 74, 80
1, 48607, Note_on_c, 4, 74, 0
1, 48800, Note_on_c, 4, 72, 80
1, 49407, Note_on_c, 4, 72, 0
1, 50240, Note_on_c, 4, 67, 80
1, 50315, Note_on_c, 4, 67, 0
1, 50400, Note_on_c, 4, 67, 80
1, 50639, Note_on_c, 4, 67, 0
1, 50880, Note_on_c, 4, 69, 80
1, 51183, Note_on_c, 4, 69, 0
1, 51200, Note_on_c, 4, 69, 80
1, 51279, Note_on_c, 4, 69, 0
1, 51360, Note_on_c, 4, 69, 80
1, 51587, Note_on_c, 4, 69, 0
1, 51660, Note_on_c, 4, 69, 80
1, 51830, Note_on_c, 4, 69, 0
1, 51840, Note_on_c, 4, 64, 80
1, 51840, Note_on_c, 4, 67, 80
1, 51840, Note_on_c, 4, 71, 80
1, 52143, Note_on_c, 4, 64, 0
1, 52143, Note_on_c, 4, 67, 0
1, 52143, Note_on_c, 4, 71, 0
1, 52160, Note_on_c, 4, 69, 80
1, 52539, Note_on_c, 4, 69, 0
1, 52560, Note_on_c, 4, 67, 80
1, 53471, Note_on_c, 4, 67, 0
1, 54090, Note_on_c, 4, 67, 80
1, 54090, Note_on_c, 4, 72, 80
1, 54090, Note_on_c, 4, 76, 80
1, 54174, Note_on_c, 4, 67, 0
1, 54174, Note_on_c, 4, 72, 0
1, 54174, Note_on_c, 4, 76, 0
1, 54240, Note_on_c, 4, 67, 80
1, 54240, Note_on_c, 4, 71, 80
1, 54240, Note_on_c, 4, 74, 80
1, 54479, Note_on_c, 4, 67, 0
1, 54479, Note_on_c, 4, 71, 0
1, 54479, Note_on_c, 4, 74, 0
1, 54720, Note_on_c, 4, 67, 80
1, 54720, Note_on_c, 4, 69, 80
1, 54720, Note_on_c, 4, 72, 80
1, 54959, Note_on_c, 4, 67, 0
1, 54959, Note_on_c, 4, 69, 0
1, 54959, Note_on_c, 4, 72, 0
1, 55200, Note_on_c, 4, 67, 80
1, 55200, Note_on_c, 4, 71, 80
1, 55200, Note_on_c, 4, 74, 80
1, 55439, Note_on_c, 4, 67, 0
1, 55439, Note_on_c, 4, 71, 0
1, 55439, Note_on_c, 4, 74, 0
1, 55680, Note_on_c, 4, 72, 80
1, 55680, Note_on_c, 4, 76, 80
1, 55680, Note_on_c, 4, 67, 80
1, 56135, Note_on_c, 4, 72, 0
1, 56135, Note_on_c, 4, 76, 0
1, 56287, Note_on_c, 4, 67, 0
1, 56480, Note_on_c, 4, 67, 80
1, 56480, Note_on_c, 4, 71, 80
1, 56480, Note_on_c, 4, 74, 80
1, 57543, Note_on_c, 4, 67, 0
1, 57543, Note_on_c, 4, 71, 0
1, 57543, Note_on_c, 4, 74, 0
1, 57930, Note_on_c, 4, 67, 80
1, 57930, Note_on_c, 4, 72, 80
1, 57930, Note_on_c, 4, 76, 80
1, 58014, Note_on_c, 4, 67, 0
1, 58014, Note_on_c, 4, 72, 0
1, 58014, Note_on_c, 4, 76, 0
1, 58080, Note_on_c, 4, 67, 80
1, 58080, Note_on_c, 4, 71, 80
1, 58080, Note_on_c, 4, 74, 80
1, 58319, Note_on_c, 4, 67, 0
1, 58319, Note_on_c, 4, 71, 0
1, 58319, Note_on_c, 4, 74, 0
1, 58560, Note_on_c, 4, 67, 80
1, 58560, Note_on_c, 4, 69, 80
1, 58560, Note_on_c, 4, 72, 80
1, 58799, Note_on_c, 4, 67, 0
1, 58799, Note_on_c, 4, 69, 0
1, 58799, Note_on_c, 4, 72, 0
1, 59040, Note_on_c, 4, 67, 80
1, 59040, Note_on_c, 4, 71, 80
1, 59040, Note_on_c, 4, 74, 80
1, 59279, Note_on_c, 4, 67, 0
1, 59279, Note_on_c, 4, 71, 0
1, 59279, Note_on_c, 4, 74, 0
1, 59520, Note_on_c, 4, 72, 80
1, 59520, Note_on_c, 4, 76, 80
1, 59520, Note_on_c, 4, 67, 80
1, 59975, Note_on_c, 4, 72, 0
1, 59975, Note_on_c, 4, 76, 0
1, 60127, Note_on_c, 4, 67, 0
1, 60320, Note_on_c, 4, 67, 80
1, 60320, Note_on_c, 4, 71, 80
1, 60320, Note_on_c, 4, 74, 80
1, 61383, Note_on_c, 4, 67, 0
1, 61383, Note_on_c, 4, 71, 0
1, 61383, Note_on_c, 4, 74, 0
1, 61440, Note_on_c, 4, 72, 80
1, 61743, Note_on_c, 4, 72, 0
1, 61760, Note_on_c, 4, 72, 80
1, 61839, Note_on_c, 4, 72, 0
1, 61920, Note_on_c, 4, 72, 80
1, 62375, Note_on_c, 4, 72, 0
1, 62400, Note_on_c, 4, 71, 80
1, 62703, Note_on_c, 4, 71, 0
1, 62720, Note_on_c, 4, 71, 80
1, 62799, Note_on_c, 4, 71, 0
1, 62880, Note_on_c, 4, 71, 80
1, 63335, Note_on_c, 4, 71, 0
1, 63360, Note_on_c, 4, 69, 80
1, 63587, Note_on_c, 4, 69, 0
1, 63660, Note_on_c, 4, 71, 80
1, 63830, Note_on_c, 4, 71, 0
1, 63840, Note_on_c, 4, 69, 80
1, 64143, Note_on_c, 4, 69, 0
1, 64160, Note_on_c, 4, 64, 80
1, 65223, Note_on_c, 4, 64, 0
1, 65280, Note_on_c, 4, 69, 80
1, 65507, Note_on_c, 4, 69, 0
1, 65580, Note_on_c, 4, 71, 80
1, 65750, Note_on_c, 4, 71, 0
1, 65760, Note_on_c, 4, 69, 80
1, 66215, Note_on_c, 4, 69, 0
1, 66240, Note_on_c, 4, 64, 80
1, 66695, Note_on_c, 4, 64, 0
1, 66720, Note_on_c, 4, 67, 80
1, 67175, Note_on_c, 4, 67, 0
1, 67200, Note_on_c, 4, 69, 80
1, 67427, Note_on_c, 4, 69, 0
1, 67500, Note_on_c, 4, 71, 80
1, 67670, Note_on_c, 4, 71, 0
1, 67680, Note_on_c, 4, 69, 80
1, 68135, Note_on_c, 4, 69, 0
1, 68160, Note_on_c, 4, 65, 80
1, 68615, Note_on_c, 4, 65, 0
1, 69120, Note_on_c, 4, 62, 80
1, 69423, Note_on_c, 4, 62, 0
1, 69440, Note_on_c, 4, 64, 80
1, 69591, Note_on_c, 4, 64, 0
1, 69900, Note_on_c, 4, 65, 80
1, 70070, Note_on_c, 4, 65, 0
1, 70080, Note_on_c, 4, 67, 80
1, 70383, Note_on_c, 4, 67, 0
1, 70400, Note_on_c, 4, 69, 80
1, 70779, Note_on_c, 4, 69, 0
1, 70800, Note_on_c, 4, 67, 80
1, 71027, Note_on_c, 4, 67, 0
1, 71040, Note_on_c, 4, 62, 80
1, 71343, Note_on_c, 4, 62, 0
1, 71360, Note_on_c, 4, 64, 80
1, 71439, Note_on_c, 4, 64, 0
1, 71520, Note_on_c, 4, 65, 80
1, 71975, Note_on_c, 4, 65, 0
1, 72000, Note_on_c, 4, 67, 80
1, 72911, Note_on_c, 4, 67, 0
1, 73440, Note_on_c, 4, 69, 80
1, 73743, Note_on_c, 4, 69, 0
1, 73760, Note_on_c, 4, 67, 80
1, 73911, Note_on_c, 4, 67, 0
1, 73920, Note_on_c, 4, 69, 80
1, 74223, Note_on_c, 4, 69, 0
1, 74240, Note_on_c, 4, 67, 80
1, 74319, Note_on_c, 4, 67, 0
1, 74400, Note_on_c, 4, 69, 80
1, 74855, Note_on_c, 4, 69, 0
1, 74880, Note_on_c, 4, 69, 80
1, 75183, Note_on_c, 4, 69, 0
1, 75200, Note_on_c, 4, 67, 80
1, 75351, Note_on_c, 4, 67, 0
1, 75720, Note_on_c, 4, 64, 80
1, 76517, Note_on_c, 4, 64, 0
1, 76800, Note_on_c, 4, 72, 80
1, 77103, Note_on_c, 4, 72, 0
1, 77120, Note_on_c, 4, 72, 80
1, 77199, Note_on_c, 4, 72, 0
1, 77280, Note_on_c, 4, 72, 80
1, 77735, Note_on_c, 4, 72, 0
1, 77760, Note_on_c, 4, 71, 80
1, 78063, Note_on_c, 4, 71, 0
1, 78080, Note_on_c, 4, 71, 80
1, 78159, Note_on_c, 4, 71, 0
1, 78240, Note_on_c, 4, 71, 80
1, 78695, Note_on_c, 4, 71, 0
1, 78720, Note_on_c, 4, 69, 80
1, 78947, Note_on_c, 4, 69, 0
1, 79020, Note_on_c, 4, 71, 80
1, 79190, Note_on_c, 4, 71, 0
1, 79200, Note_on_c, 4, 69, 80
1, 79503, Note_on_c, 4, 69, 0
1, 79520, Note_on_c, 4, 64, 80
1, 80583, Note_on_c, 4, 64, 0
1, 80640, Note_on_c, 4, 69, 80
1, 80867, Note_on_c, 4, 69, 0
1, 80940, Note_on_c, 4, 71, 80
1, 81110, Note_on_c, 4, 71, 0
1, 81120, Note_on_c, 4, 69, 80
1, 81575, Note_on_c, 4, 69, 0
1, 81600, Note_on_c, 4, 64, 80
1, 82055, Note_on_c, 4, 64, 0
1, 82080, Note_on_c, 4, 67, 80
1, 82535, Note_on_c, 4, 67, 0
1, 82560, Note_on_c, 4, 69, 80
1, 82787, Note_on_c, 4, 69, 0
1, 82860, Note_on_c, 4, 71, 80
1, 83030, Note_on_c, 4, 71, 0
1, 83040, Note_on_c, 4, 69, 80
1, 83495, Note_on_c, 4, 69, 0
1, 83520, Note_on_c, 4, 65, 80
1, 83975, Note_on_c, 4, 65, 0
1, 84480, Note_on_c, 4, 62, 80
1, 84783, Note_on_c, 4, 62, 0
1, 84800, Note_on_c, 4, 64, 80
1, 84951, Note_on_c, 4, 64, 0
1, 85260, Note_on_c, 4, 65, 80
1, 85430, Note_on_c, 4, 65, 0
1, 85440, Note_on_c, 4, 67, 80
1, 85743, Note_on_c, 4, 67, 0
1, 85760, Note_on_c, 4, 69, 80
1, 86139, Note_on_c, 4, 69, 0
1, 86160, Note_on_c, 4, 67, 80
1, 86387, Note_on_c, 4, 67, 0
1, 86400, Note_on_c, 4, 62, 80
1, 86703, Note_on_c, 4, 62, 0
1, 86720, Note_on_c, 4, 64, 80
1, 86799, Note_on_c, 4, 64, 0
1, 86880, Note_on_c, 4, 65, 80
1, 87335, Note_on_c, 4, 65, 0
1, 87360, Note_on_c, 4, 67, 80
1, 88271, Note_on_c, 4, 67, 0
1, 88800, Note_on_c, 4, 69, 80
1, 89027, Note_on_c, 4, 69, 0
1, 89100, Note_on_c, 4, 69, 80
1, 89270, Note_on_c, 4, 69, 0
1, 89280, Note_on_c, 4, 71, 80
1, 89583, Note_on_c, 4, 71, 0
1, 89600, Note_on_c, 4, 67, 80
1, 89979, Note_on_c, 4, 67, 0
1, 90000, Note_on_c, 4, 72, 80
1, 91595, Note_on_c, 4, 72, 0
1, 91680, Note_on_c, 4, 72, 80
1, 91907, Note_on_c, 4, 72, 0
1, 91980, Note_on_c, 4, 72, 80
1, 92069, Note_on_c, 4, 72, 0
1, 92160, Note_on_c, 4, 72, 80
1, 92311, Note_on_c, 4, 72, 0
1, 92480, Note_on_c, 4, 74, 80
1, 92859, Note_on_c, 4, 74, 0
1, 92880, Note_on_c, 4, 72, 80
1, 93563, Note_on_c, 4, 72, 0
1, 93600, Note_on_c, 4, 69, 80
1, 93903, Note_on_c, 4, 69, 0
1, 93920, Note_on_c, 4, 72, 80
1, 93999, Note_on_c, 4, 72, 0
1, 94080, Note_on_c, 4, 72, 80
1, 94383, Note_on_c, 4, 72, 0
1, 94400, Note_on_c, 4, 74, 80
1, 94779, Note_on_c, 4, 74, 0
1, 94800, Note_on_c, 4, 72, 80
1, 95597, Note_on_c, 4, 72, 0
1, 95820, Note_on_c, 4, 72, 80
1, 95909, Note_on_c, 4, 72, 0
1, 96000, Note_on_c, 4, 72, 80
1, 96455, Note_on_c, 4, 72, 0
1, 96480, Note_on_c, 4, 71, 80
1, 96935, Note_on_c, 4, 71, 0
1, 96960, Note_on_c, 4, 69, 80
1, 97415, Note_on_c, 4, 69, 0
1, 97440, Note_on_c, 4, 67, 80
1, 97895, Note_on_c, 4, 67, 0
1, 97920, Note_on_c, 4, 64, 80
1, 99287, Note_on_c, 4, 64, 0
1, 99360, Note_on_c, 4, 72, 80
1, 99680, Note_on_c, 4, 72, 0
1, 99680, Note_on_c, 4, 72, 80
1, 99831, Note_on_c, 4, 72, 0
1, 99840, Note_on_c, 4, 72, 80
1, 100143, Note_on_c, 4, 72, 0
1, 100160, Note_on_c, 4, 74, 80
1, 100653, Note_on_c, 4, 74, 0
1, 100680, Note_on_c, 4, 72, 80
1, 101249, Note_on_c, 4, 72, 0
1, 101280, Note_on_c, 4, 69, 80
1, 101507, Note_on_c, 4, 69, 0
1, 101580, Note_on_c, 4, 72, 80
1, 101750, Note_on_c, 4, 72, 0
1, 101760, Note_on_c, 4, 74, 80
1, 102367, Note_on_c, 4, 74, 0
1, 102560, Note_on_c, 4, 72, 80
1, 103167, Note_on_c, 4, 72, 0
1, 104000, Note_on_c, 4, 67, 80
1, 104075, Note_on_c, 4, 67, 0
1, 104160, Note_on_c, 4, 67, 80
1, 104399, Note_on_c, 4, 67, 0
1, 104640, Note_on_c, 4, 69, 80
1, 104943, Note_on_c, 4, 69, 0
1, 104960, Note_on_c, 4, 69, 80
1, 105039, Note_on_c, 4, 69, 0
1, 105120, Note_on_c, 4, 69, 80
1, 105347, Note_on_c, 4, 69, 0
1, 105420, Note_on_c, 4, 69, 80
1, 105590, Note_on_c, 4, 69, 0
1, 105600, Note_on_c, 4, 64, 80
1, 105600, Note_on_c, 4, 67, 80
1, 105600, Note_on_c, 4, 71, 80
1, 105903, Note_on_c, 4, 64, 0
1, 105903, Note_on_c, 4, 67, 0
1, 105903, Note_on_c, 4, 71, 0
1, 105920, Note_on_c, 4, 69, 80
1, 106299, Note_on_c, 4, 69, 0
1, 106320, Note_on_c, 4, 67, 80
1, 107231, Note_on_c, 4, 67, 0
1, 107520, Note_on_c, 4, 72, 80
1, 107520, Note_on_c, 4, 76, 80
1, 107823, Note_on_c, 4, 72, 0
1, 107823, Note_on_c, 4, 76, 0
1, 107840, Note_on_c, 4, 72, 80
1, 107919, Note_on_c, 4, 72, 0
1, 108000, Note_on_c, 4, 72, 80
1, 108455, Note_on_c, 4, 72, 0
1, 108480, Note_on_c, 4, 71, 80
1, 108783, Note_on_c, 4, 71, 0
1, 108800, Note_on_c, 4, 71, 80
1, 108879, Note_on_c, 4, 71, 0
1, 108960, Note_on_c, 4, 71, 80
1, 109415, Note_on_c, 4, 71, 0
1, 109440, Note_on_c, 4, 69, 80
1, 109667, Note_on_c, 4, 69, 0
1, 109740, Note_on_c, 4, 71, 80
1, 109910, Note_on_c, 4, 71, 0
1, 109920, Note_on_c, 4, 69, 80
1, 110223, Note_on_c, 4, 69, 0
1, 110240, Note_on_c, 4, 64, 80
1, 111303, Note_on_c, 4, 64, 0
1, 111360, Note_on_c, 4, 69, 80
1, 111360, Note_on_c, 4, 76, 80
1, 111587, Note_on_c, 4, 69, 0
1, 111587, Note_on_c, 4, 76, 0
1, 111660, Note_on_c, 4, 71, 80
1, 111830, Note_on_c, 4, 71, 0
1, 111840, Note_on_c, 4, 69, 80
1, 112295, Note_on_c, 4, 69, 0
1, 112320, Note_on_c, 4, 79, 80
1, 112775, Note_on_c, 4, 79, 0
1, 112800, Note_on_c, 4, 67, 80
1, 113255, Note_on_c, 4, 67, 0
1, 113280, Note_on_c, 4, 77, 80
1, 114191, Note_on_c, 4, 77, 0
1, 114240, Note_on_c, 4, 76, 80
1, 114695, Note_on_c, 4, 76, 0
1, 115200, Note_on_c, 4, 69, 80
1, 115200, Note_on_c, 4, 72, 80
1, 115200, Note_on_c, 4, 77, 80
1, 115439, Note_on_c, 4, 69, 0
1, 115439, Note_on_c, 4, 72, 0
1, 115439, Note_on_c, 4, 77, 0
1, 115680, Note_on_c, 4, 72, 80
1, 116135, Note_on_c, 4, 72, 0
1, 116160, Note_on_c, 4, 74, 80
1, 116387, Note_on_c, 4, 74, 0
1, 116460, Note_on_c, 4, 74, 80
1, 116630, Note_on_c, 4, 74, 0
1, 116640, Note_on_c, 4, 72, 80
1, 116867, Note_on_c, 4, 72, 0
1, 116940, Note_on_c, 4, 72, 80
1, 117110, Note_on_c, 4, 72, 0
1, 117120, Note_on_c, 4, 72, 80
1, 117120, Note_on_c, 4, 74, 80
1, 117359, Note_on_c, 4, 72, 0
1, 117359, Note_on_c, 4, 74, 0
1, 117600, Note_on_c, 4, 72, 80
1, 117903, Note_on_c, 4, 72, 0
1, 117920, Note_on_c, 4, 74, 80
1, 118983, Note_on_c, 4, 74, 0
1, 119040, Note_on_c, 4, 69, 80
1, 119040, Note_on_c, 4, 74, 80
1, 119495, Note_on_c, 4, 69, 0
1, 119495, Note_on_c, 4, 74, 0
1, 119520, Note_on_c, 4, 72, 80
1, 119747, Note_on_c, 4, 72, 0
1, 119820, Note_on_c, 4, 69, 80
1, 119990, Note_on_c, 4, 69, 0
1, 120000, Note_on_c, 4, 71, 80
1, 120000, Note_on_c, 4, 77, 80
1, 120227, Note_on_c, 4, 71, 0
1, 120227, Note_on_c, 4, 77, 0
1, 120300, Note_on_c, 4, 69, 80
1, 120470, Note_on_c, 4, 69, 0
1, 120480, Note_on_c, 4, 67, 80
1, 120719, Note_on_c, 4, 67, 0
1, 120960, Note_on_c, 4, 65, 80
1, 120960, Note_on_c, 4, 69, 80
1, 120960, Note_on_c, 4, 72, 80
1, 121415, Note_on_c, 4, 65, 0
1, 121415, Note_on_c, 4, 69, 0
1, 121415, Note_on_c, 4, 72, 0
1, 121440, Note_on_c, 4, 72, 80
1, 121667, Note_on_c, 4, 72, 0
1, 121740, Note_on_c, 4, 69, 80
1, 121910, Note_on_c, 4, 69, 0
1, 121920, Note_on_c, 4, 71, 80
1, 121920, Note_on_c, 4, 74, 80
1, 122147, Note_on_c, 4, 71, 0
1, 122147, Note_on_c, 4, 74, 0
1, 122220, Note_on_c, 4, 69, 80
1, 122390, Note_on_c, 4, 69, 0
1, 122400, Note_on_c, 4, 67, 80
1, 122639, Note_on_c, 4, 67, 0
1, 122880, Note_on_c, 4, 65, 80
1, 122880, Note_on_c, 4, 69, 80
1, 122880, Note_on_c, 4, 72, 80
1, 123335, Note_on_c, 4, 65, 0
1, 123335, Note_on_c, 4, 69, 0
1, 123335, Note_on_c, 4, 72, 0
1, 123360, Note_on_c, 4, 72, 80
1, 123587, Note_on_c, 4, 72, 0
1, 123660, Note_on_c, 4, 69, 80
1, 123830, Note_on_c, 4, 69, 0
1, 123840, Note_on_c, 4, 71, 80
1, 123840, Note_on_c, 4, 74, 80
1, 124067, Note_on_c, 4, 71, 0
1, 124067, Note_on_c, 4, 74, 0
1, 124140, Note_on_c, 4, 72, 80
1, 124310, Note_on_c, 4, 72, 0
1, 124320, Note_on_c, 4, 74, 80
1, 124559, Note_on_c, 4, 74, 0
1, 124800, Note_on_c, 4, 76, 80
1, 124800, Note_on_c, 4, 72, 80
1, 125039, Note_on_c, 4, 76, 0
1, 125103, Note_on_c, 4, 72, 0
1, 125120, Note_on_c, 4, 69, 80
1, 125271, Note_on_c, 4, 69, 0
1, 125280, Note_on_c, 4, 67, 80
1, 125600, Note_on_c, 4, 60, 80
1, 125751, Note_on_c, 4, 60, 0
1, 126623, Note_on_c, 4, 67, 0
1, 126624, End_track
2, 0, Start_track
2, 0, Title_t, "Piano, Minstrel\000"
2, 0, Key_signature, 0, "major"
2, 0, MIDI_port, 1
2, 7680, Note_on_c, 4, 64, 80
2, 7680, Note_on_c, 4, 69, 80
2, 7983, Note_on_c, 4, 64, 0
2, 7983, Note_on_c, 4, 69, 0
2, 8000, Note_on_c, 4, 64, 80
2, 8000, Note_on_c, 4, 69, 80
2, 8151, Note_on_c, 4, 64, 0
2, 8151, Note_on_c, 4, 69, 0
2, 8160, Note_on_c, 4, 64, 80
2, 8160, Note_on_c, 4, 69, 80
2, 8615, Note_on_c, 4, 64, 0
2, 8615, Note_on_c, 4, 69, 0
2, 8640, Note_on_c, 4, 64, 80
2, 8640, Note_on_c, 4, 67, 80
2, 8943, Note_on_c, 4, 64, 0
2, 8943, Note_on_c, 4, 67, 0
2, 8960, Note_on_c, 4, 64, 80
2, 8960, Note_on_c, 4, 67, 80
2, 9111, Note_on_c, 4, 64, 0
2, 9111, Note_on_c, 4, 67, 0
2, 9120, Note_on_c, 4, 64, 80
2, 9120, Note_on_c, 4, 67, 80
2, 9575, Note_on_c, 4, 64, 0
2, 9575, Note_on_c, 4, 67, 0
2, 9600, Note_on_c, 4, 64, 80
2, 9600, Note_on_c, 4, 67, 80
2, 9903, Note_on_c, 4, 64, 0
2, 9903, Note_on_c, 4, 67, 0
2, 9920, Note_on_c, 4, 62, 80
2, 9920, Note_on_c, 4, 64, 80
2, 9920, Note_on_c, 4, 67, 80
2, 10071, Note_on_c, 4, 62, 0
2, 10071, Note_on_c, 4, 64, 0
2, 10071, Note_on_c, 4, 67, 0
2, 10080, Note_on_c, 4, 64, 80
2, 10080, Note_on_c, 4, 67, 80
2, 10383, Note_on_c, 4, 64, 0
2, 10383, Note_on_c, 4, 67, 0
2, 10400, Note_on_c, 4, 55, 80
2, 10400, Note_on_c, 4, 57, 80
2, 10400, Note_on_c, 4, 60, 80
2, 11463, Note_on_c, 4, 55, 0
2, 11463, Note_on_c, 4, 57, 0
2, 11463, Note_on_c, 4, 60, 0
2, 11520, Note_on_c, 4, 60, 80
2, 11520, Note_on_c, 4, 64, 80
2, 11520, Note_on_c, 4, 67, 80
2, 11823, Note_on_c, 4, 60, 0
2, 11823, Note_on_c, 4, 64, 0
2, 11823, Note_on_c, 4, 67, 0
2, 11840, Note_on_c, 4, 62, 80
2, 11840, Note_on_c, 4, 64, 80
2, 11840, Note_on_c, 4, 67, 80
2, 11991, Note_on_c, 4, 62, 0
2, 11991, Note_on_c, 4, 64, 0
2, 11991, Note_on_c, 4, 67, 0
2, 12000, Note_on_c, 4, 60, 80
2, 12000, Note_on_c, 4, 64, 80
2, 12000, Note_on_c, 4, 67, 80
2, 12455, Note_on_c, 4, 60, 0
2, 12455, Note_on_c, 4, 64, 0
2, 12455, Note_on_c, 4, 67, 0
2, 12480, Note_on_c, 4, 55, 80
2, 12480, Note_on_c, 4, 60, 80
2, 12935, Note_on_c, 4, 55, 0
2, 12935, Note_on_c, 4, 60, 0
2, 12960, Note_on_c, 4, 55, 80
2, 12960, Note_on_c, 4, 64, 80
2, 13199, Note_on_c, 4, 55, 0
2, 13199, Note_on_c, 4, 64, 0
2, 13440, Note_on_c, 4, 60, 80
2, 13440, Note_on_c, 4, 62, 80
2, 13440, Note_on_c, 4, 65, 80
2, 13743, Note_on_c, 4, 60, 0
2, 13743, Note_on_c, 4, 62, 0
2, 13743, Note_on_c, 4, 65, 0
2, 13760, Note_on_c, 4, 64, 80
2, 13760, Note_on_c, 4, 67, 80
2, 13911, Note_on_c, 4, 64, 0
2, 13911, Note_on_c, 4, 67, 0
2, 13920, Note_on_c, 4, 60, 80
2, 13920, Note_on_c, 4, 62, 80
2, 13920, Note_on_c, 4, 65, 80
2, 14375, Note_on_c, 4, 60, 0
2, 14375, Note_on_c, 4, 62, 0
2, 14375, Note_on_c, 4, 65, 0
2, 14400, Note_on_c, 4, 55, 80
2, 14400, Note_on_c, 4, 59, 80
2, 14400, Note_on_c, 4, 62, 80
2, 15311, Note_on_c, 4, 55, 0
2, 15311, Note_on_c, 4, 59, 0
2, 15311, Note_on_c, 4, 62, 0
2, 15360, Note_on_c, 4, 53, 80
2, 15360, Note_on_c, 4, 57, 80
2, 15360, Note_on_c, 4, 60, 80
2, 15663, Note_on_c, 4, 53, 0
2, 15663, Note_on_c, 4, 57, 0
2, 15663, Note_on_c, 4, 60, 0
2, 15680, Note_on_c, 4, 53, 80
2, 15680, Note_on_c, 4, 57, 80
2, 15680, Note_on_c, 4, 60, 80
2, 16173, Note_on_c, 4, 53, 0
2, 16173, Note_on_c, 4, 57, 0
2, 16173, Note_on_c, 4, 60, 0
2, 16200, Note_on_c, 4, 57, 80
2, 16200, Note_on_c, 4, 62, 80
2, 16313, Note_on_c, 4, 57, 0
2, 16313, Note_on_c, 4, 62, 0
2, 16320, Note_on_c, 4, 59, 80
2, 16320, Note_on_c, 4, 62, 80
2, 16320, Note_on_c, 4, 64, 80
2, 16623, Note_on_c, 4, 59, 0
2, 16623, Note_on_c, 4, 62, 0
2, 16623, Note_on_c, 4, 64, 0
2, 16640, Note_on_c, 4, 60, 80
2, 16640, Note_on_c, 4, 62, 80
2, 16640, Note_on_c, 4, 65, 80
2, 17133, Note_on_c, 4, 60, 0
2, 17133, Note_on_c, 4, 62, 0
2, 17133, Note_on_c, 4, 65, 0
2, 17160, Note_on_c, 4, 59, 80
2, 17160, Note_on_c, 4, 62, 80
2, 17160, Note_on_c, 4, 64, 80
2, 17273, Note_on_c, 4, 59, 0
2, 17273, Note_on_c, 4, 62, 0
2, 17273, Note_on_c, 4, 64, 0
2, 17280, Note_on_c, 4, 53, 80
2, 17280, Note_on_c, 4, 57, 80
2, 17583, Note_on_c, 4, 53, 0
2, 17583, Note_on_c, 4, 57, 0
2, 17600, Note_on_c, 4, 57, 80
2, 17600, Note_on_c, 4, 60, 80
2, 17751, Note_on_c, 4, 57, 0
2, 17751, Note_on_c, 4, 60, 0
2, 17760, Note_on_c, 4, 57, 80
2, 17760, Note_on_c, 4, 60, 80
2, 17760, Note_on_c, 4, 62, 80
2, 18215, Note_on_c, 4, 57, 0
2, 18215, Note_on_c, 4, 60, 0
2, 18215, Note_on_c, 4, 62, 0
2, 18240, Note_on_c, 4, 53, 80
2, 18240, Note_on_c, 4, 59, 80
2, 18240, Note_on_c, 4, 64, 80
2, 19151, Note_on_c, 4, 53, 0
2, 19151, Note_on_c, 4, 59, 0
2, 19151, Note_on_c, 4, 64, 0
2, 19680, Note_on_c, 4, 60, 80
2, 19680, Note_on_c, 4, 62, 80
2, 19680, Note_on_c, 4, 65, 80
2, 19983, Note_on_c, 4, 60, 0
2, 19983, Note_on_c, 4, 62, 0
2, 19983, Note_on_c, 4, 65, 0
2, 20000, Note_on_c, 4, 59, 80
2, 20000, Note_on_c, 4, 64, 80
2, 20151, Note_on_c, 4, 59, 0
2, 20151, Note_on_c, 4, 64, 0
2, 20160, Note_on_c, 4, 60, 80
2, 20160, Note_on_c, 4, 62, 80
2, 20160, Note_on_c, 4, 65, 80
2, 20463, Note_on_c, 4, 60, 0
2, 20463, Note_on_c, 4, 62, 0
2, 20463, Note_on_c, 4, 65, 0
2, 20480, Note_on_c, 4, 59, 80
2, 20480, Note_on_c, 4, 64, 80
2, 20631, Note_on_c, 4, 59, 0
2, 20631, Note_on_c, 4, 64, 0
2, 20640, Note_on_c, 4, 60, 80
2, 20640, Note_on_c, 4, 65, 80
2, 21095, Note_on_c, 4, 60, 0
2, 21095, Note_on_c, 4, 65, 0
2, 21120, Note_on_c, 4, 59, 80
2, 21120, Note_on_c, 4, 65, 80
2, 21423, Note_on_c, 4, 59, 0
2, 21423, Note_on_c, 4, 65, 0
2, 21440, Note_on_c, 4, 53, 80
2, 21440, Note_on_c, 4, 57, 80
2, 21440, Note_on_c, 4, 59, 80
2, 21933, Note_on_c, 4, 53, 0
2, 21933, Note_on_c, 4, 57, 0
2, 21933, Note_on_c, 4, 59, 0
2, 21960, Note_on_c, 4, 53, 80
2, 21960, Note_on_c, 4, 59, 80
2, 22871, Note_on_c, 4, 53, 0
2, 22871, Note_on_c, 4, 59, 0
2, 23040, Note_on_c, 4, 64, 80
2, 23040, Note_on_c, 4, 67, 80
2, 23040, Note_on_c, 4, 69, 80
2, 23343, Note_on_c, 4, 64, 0
2, 23343, Note_on_c, 4, 67, 0
2, 23343, Note_on_c, 4, 69, 0
2, 23360, Note_on_c, 4, 64, 80
2, 23360, Note_on_c, 4, 69, 80
2, 23511, Note_on_c, 4, 64, 0
2, 23511, Note_on_c, 4, 69, 0
2, 23520, Note_on_c, 4, 64, 80
2, 23520, Note_on_c, 4, 69, 80
2, 23975, Note_on_c, 4, 64, 0
2, 23975, Note_on_c, 4, 69, 0
2, 24000, Note_on_c, 4, 62, 80
2, 24000, Note_on_c, 4, 64, 80
2, 24000, Note_on_c, 4, 67, 80
2, 24303, Note_on_c, 4, 62, 0
2, 24303, Note_on_c, 4, 64, 0
2, 24303, Note_on_c, 4, 67, 0
2, 24320, Note_on_c, 4, 64, 80
2, 24320, Note_on_c, 4, 67, 80
2, 24471, Note_on_c, 4, 64, 0
2, 24471, Note_on_c, 4, 67, 0
2, 24480, Note_on_c, 4, 64, 80
2, 24480, Note_on_c, 4, 67, 80
2, 24935, Note_on_c, 4, 64, 0
2, 24935, Note_on_c, 4, 67, 0
2, 24960, Note_on_c, 4, 60, 80
2, 24960, Note_on_c, 4, 64, 80
2, 25263, Note_on_c, 4, 60, 0
2, 25263, Note_on_c, 4, 64, 0
2, 25280, Note_on_c, 4, 62, 80
2, 25280, Note_on_c, 4, 64, 80
2, 25280, Note_on_c, 4, 67, 80
2, 25431, Note_on_c, 4, 62, 0
2, 25431, Note_on_c, 4, 64, 0
2, 25431, Note_on_c, 4, 67, 0
2, 25440, Note_on_c, 4, 60, 80
2, 25440, Note_on_c, 4, 64, 80
2, 25440, Note_on_c, 4, 67, 80
2, 25743, Note_on_c, 4, 60, 0
2, 25743, Note_on_c, 4, 64, 0
2, 25743, Note_on_c, 4, 67, 0
2, 25760, Note_on_c, 4, 55, 80
2, 25760, Note_on_c, 4, 57, 80
2, 25760, Note_on_c, 4, 60, 80
2, 26823, Note_on_c, 4, 55, 0
2, 26823, Note_on_c, 4, 57, 0
2, 26823, Note_on_c, 4, 60, 0
2, 26880, Note_on_c, 4, 60, 80
2, 26880, Note_on_c, 4, 64, 80
2, 26880, Note_on_c, 4, 67, 80
2, 27183, Note_on_c, 4, 60, 0
2, 27183, Note_on_c, 4, 64, 0
2, 27183, Note_on_c, 4, 67, 0
2, 27200, Note_on_c, 4, 62, 80
2, 27200, Note_on_c, 4, 64, 80
2, 27200, Note_on_c, 4, 67, 80
2, 27351, Note_on_c, 4, 62, 0
2, 27351, Note_on_c, 4, 64, 0
2, 27351, Note_on_c, 4, 67, 0
2, 27360, Note_on_c, 4, 60, 80
2, 27360, Note_on_c, 4, 64, 80
2, 27360, Note_on_c, 4, 67, 80
2, 27815, Note_on_c, 4, 60, 0
2, 27815, Note_on_c, 4, 64, 0
2, 27815, Note_on_c, 4, 67, 0
2, 27840, Note_on_c, 4, 55, 80
2, 27840, Note_on_c, 4, 59, 80
2, 28295, Note_on_c, 4, 55, 0
2, 28295, Note_on_c, 4, 59, 0
2, 28320, Note_on_c, 4, 59, 80
2, 28320, Note_on_c, 4, 64, 80
2, 28775, Note_on_c, 4, 59, 0
2, 28775, Note_on_c, 4, 64, 0
2, 28800, Note_on_c, 4, 60, 80
2, 28800, Note_on_c, 4, 62, 80
2, 28800, Note_on_c, 4, 65, 80
2, 29103, Note_on_c, 4, 60, 0
2, 29103, Note_on_c, 4, 62, 0
2, 29103, Note_on_c, 4, 65, 0
2, 29120, Note_on_c, 4, 62, 80
2, 29120, Note_on_c, 4, 64, 80
2, 29120, Note_on_c, 4, 67, 80
2, 29271, Note_on_c, 4, 62, 0
2, 29271, Note_on_c, 4, 64, 0
2, 29271, Note_on_c, 4, 67, 0
2, 29280, Note_on_c, 4, 60, 80
2, 29280, Note_on_c, 4, 62, 80
2, 29280, Note_on_c, 4, 65, 80
2, 29735, Note_on_c, 4, 60, 0
2, 29735, Note_on_c, 4, 62, 0
2, 29735, Note_on_c, 4, 65, 0
2, 29760, Note_on_c, 4, 55, 80
2, 29760, Note_on_c, 4, 59, 80
2, 29760, Note_on_c, 4, 62, 80
2, 30671, Note_on_c, 4, 55, 0
2, 30671, Note_on_c, 4, 59, 0
2, 30671, Note_on_c, 4, 62, 0
2, 30720, Note_on_c, 4, 53, 80
2, 30720, Note_on_c, 4, 57, 80
2, 30720, Note_on_c, 4, 60, 80
2, 31023, Note_on_c, 4, 53, 0
2, 31023, Note_on_c, 4, 57, 0
2, 31023, Note_on_c, 4, 60, 0
2, 31040, Note_on_c, 4, 53, 80
2, 31040, Note_on_c, 4, 57, 80
2, 31040, Note_on_c, 4, 60, 80
2, 31533, Note_on_c, 4, 53, 0
2, 31533, Note_on_c, 4, 57, 0
2, 31533, Note_on_c, 4, 60, 0
2, 31560, Note_on_c, 4, 57, 80
2, 31560, Note_on_c, 4, 60, 80
2, 31560, Note_on_c, 4, 62, 80
2, 31673, Note_on_c, 4, 57, 0
2, 31673, Note_on_c, 4, 60, 0
2, 31673, Note_on_c, 4, 62, 0
2, 31680, Note_on_c, 4, 59, 80
2, 31680, Note_on_c, 4, 64, 80
2, 31983, Note_on_c, 4, 59, 0
2, 31983, Note_on_c, 4, 64, 0
2, 32000, Note_on_c, 4, 60, 80
2, 32000, Note_on_c, 4, 62, 80
2, 32000, Note_on_c, 4, 65, 80
2, 32493, Note_on_c, 4, 60, 0
2, 32493, Note_on_c, 4, 62, 0
2, 32493, Note_on_c, 4, 65, 0
2, 32520, Note_on_c, 4, 59, 80
2, 32520, Note_on_c, 4, 62, 80
2, 32520, Note_on_c, 4, 64, 80
2, 32633, Note_on_c, 4, 59, 0
2, 32633, Note_on_c, 4, 62, 0
2, 32633, Note_on_c, 4, 64, 0
2, 32640, Note_on_c, 4, 53, 80
2, 32640, Note_on_c, 4, 57, 80
2, 32943, Note_on_c, 4, 53, 0
2, 32943, Note_on_c, 4, 57, 0
2, 32960, Note_on_c, 4, 57, 80
2, 32960, Note_on_c, 4, 60, 80
2, 33111, Note_on_c, 4, 57, 0
2, 33111, Note_on_c, 4, 60, 0
2, 33120, Note_on_c, 4, 57, 80
2, 33120, Note_on_c, 4, 60, 80
2, 33120, Note_on_c, 4, 62, 80
2, 33575, Note_on_c, 4, 57, 0
2, 33575, Note_on_c, 4, 60, 0
2, 33575, Note_on_c, 4, 62, 0
2, 33600, Note_on_c, 4, 53, 80
2, 33600, Note_on_c, 4, 59, 80
2, 33600, Note_on_c, 4, 64, 80
2, 34511, Note_on_c, 4, 53, 0
2, 34511, Note_on_c, 4, 59, 0
2, 34511, Note_on_c, 4, 64, 0
2, 35040, Note_on_c, 4, 60, 80
2, 35040, Note_on_c, 4, 62, 80
2, 35040, Note_on_c, 4, 65, 80
2, 35343, Note_on_c, 4, 60, 0
2, 35343, Note_on_c, 4, 62, 0
2, 35343, Note_on_c, 4, 65, 0
2, 35360, Note_on_c, 4, 60, 80
2, 35360, Note_on_c, 4, 62, 80
2, 35360, Note_on_c, 4, 65, 80
2, 35511, Note_on_c, 4, 60, 0
2, 35511, Note_on_c, 4, 62, 0
2, 35511, Note_on_c, 4, 65, 0
2, 35520, Note_on_c, 4, 64, 80
2, 35520, Note_on_c, 4, 67, 80
2, 35823, Note_on_c, 4, 64, 0
2, 35823, Note_on_c, 4, 67, 0
2, 35840, Note_on_c, 4, 59, 80
2, 35840, Note_on_c, 4, 62, 80
2, 35840, Note_on_c, 4, 65, 80
2, 36219, Note_on_c, 4, 59, 0
2, 36219, Note_on_c, 4, 62, 0
2, 36219, Note_on_c, 4, 65, 0
2, 36240, Note_on_c, 4, 55, 80
2, 36240, Note_on_c, 4, 64, 80
2, 36359, Note_on_c, 4, 55, 0
2, 36359, Note_on_c, 4, 64, 0
2, 36480, Note_on_c, 4, 55, 80
2, 36480, Note_on_c, 4, 64, 80
2, 36935, Note_on_c, 4, 55, 0
2, 36935, Note_on_c, 4, 64, 0
2, 36960, Note_on_c, 4, 53, 80
2, 36960, Note_on_c, 4, 62, 80
2, 37415, Note_on_c, 4, 53, 0
2, 37415, Note_on_c, 4, 62, 0
2, 37440, Note_on_c, 4, 55, 80
2, 37440, Note_on_c, 4, 64, 80
2, 37895, Note_on_c, 4, 55, 0
2, 37895, Note_on_c, 4, 64, 0
2, 38400, Note_on_c, 4, 60, 80
2, 38400, Note_on_c, 4, 65, 80
2, 38400, Note_on_c, 4, 69, 80
2, 38855, Note_on_c, 4, 60, 0
2, 38855, Note_on_c, 4, 65, 0
2, 38855, Note_on_c, 4, 69, 0
2, 40320, Note_on_c, 4, 60, 80
2, 40320, Note_on_c, 4, 65, 80
2, 40320, Note_on_c, 4, 69, 80
2, 40775, Note_on_c, 4, 60, 0
2, 40775, Note_on_c, 4, 65, 0
2, 40775, Note_on_c, 4, 69, 0
2, 42240, Note_on_c, 4, 60, 80
2, 42240, Note_on_c, 4, 64, 80
2, 42240, Note_on_c, 4, 67, 80
2, 42695, Note_on_c, 4, 60, 0
2, 42695, Note_on_c, 4, 64, 0
2, 42695, Note_on_c, 4, 67, 0
2, 44160, Note_on_c, 4, 67, 80
2, 44160, Note_on_c, 4, 72, 80
2, 45600, Note_on_c, 4, 72, 0
2, 45983, Note_on_c, 4, 67, 0
2, 46080, Note_on_c, 4, 60, 80
2, 46080, Note_on_c, 4, 64, 80
2, 46080, Note_on_c, 4, 67, 80
2, 47903, Note_on_c, 4, 60, 0
2, 47903, Note_on_c, 4, 64, 0
2, 47903, Note_on_c, 4, 67, 0
2, 48000, Note_on_c, 4, 60, 80
2, 48000, Note_on_c, 4, 64, 80
2, 48000, Note_on_c, 4, 71, 80
2, 48455, Note_on_c, 4, 60, 0
2, 48455, Note_on_c, 4, 64, 0
2, 48455, Note_on_c, 4, 71, 0
2, 48960, Note_on_c, 4, 69, 80
2, 49871, Note_on_c, 4, 69, 0
2, 49920, Note_on_c, 4, 57, 80
2, 49920, Note_on_c, 4, 60, 80
2, 49920, Note_on_c, 4, 65, 80
2, 51743, Note_on_c, 4, 57, 0
2, 51743, Note_on_c, 4, 60, 0
2, 51743, Note_on_c, 4, 65, 0
2, 51840, Note_on_c, 4, 53, 80
2, 51840, Note_on_c, 4, 59, 80
2, 53663, Note_on_c, 4, 53, 0
2, 53663, Note_on_c, 4, 59, 0
2, 61440, Note_on_c, 4, 64, 80
2, 61440, Note_on_c, 4, 69, 80
2, 61743, Note_on_c, 4, 64, 0
2, 61743, Note_on_c, 4, 69, 0
2, 61760, Note_on_c, 4, 64, 80
2, 61760, Note_on_c, 4, 69, 80
2, 61911, Note_on_c, 4, 64, 0
2, 61911, Note_on_c, 4, 69, 0
2, 61920, Note_on_c, 4, 64, 80
2, 61920, Note_on_c, 4, 69, 80
2, 62375, Note_on_c, 4, 64, 0
2, 62375, Note_on_c, 4, 69, 0
2, 62400, Note_on_c, 4, 64, 80
2, 62400, Note_on_c, 4, 67, 80
2, 62703, Note_on_c, 4, 64, 0
2, 62703, Note_on_c, 4, 67, 0
2, 62720, Note_on_c, 4, 64, 80
2, 62720, Note_on_c, 4, 67, 80
2, 62871, Note_on_c, 4, 64, 0
2, 62871, Note_on_c, 4, 67, 0
2, 62880, Note_on_c, 4, 64, 80
2, 62880, Note_on_c, 4, 67, 80
2, 63335, Note_on_c, 4, 64, 0
2, 63335, Note_on_c, 4, 67, 0
2, 63360, Note_on_c, 4, 60, 80
2, 63360, Note_on_c, 4, 64, 80
2, 63360, Note_on_c, 4, 67, 80
2, 63663, Note_on_c, 4, 60, 0
2, 63663, Note_on_c, 4, 64, 0
2, 63663, Note_on_c, 4, 67, 0
2, 63680, Note_on_c, 4, 62, 80
2, 63680, Note_on_c, 4, 67, 80
2, 63831, Note_on_c, 4, 62, 0
2, 63831, Note_on_c, 4, 67, 0
2, 63840, Note_on_c, 4, 60, 80
2, 63840, Note_on_c, 4, 64, 80
2, 63840, Note_on_c, 4, 67, 80
2, 64143, Note_on_c, 4, 60, 0
2, 64143, Note_on_c, 4, 64, 0
2, 64143, Note_on_c, 4, 67, 0
2, 64160, Note_on_c, 4, 55, 80
2, 64160, Note_on_c, 4, 57, 80
2, 64160, Note_on_c, 4, 60, 80
2, 65223, Note_on_c, 4, 55, 0
2, 65223, Note_on_c, 4, 57, 0
2, 65223, Note_on_c, 4, 60, 0
2, 65280, Note_on_c, 4, 60, 80
2, 65280, Note_on_c, 4, 64, 80
2, 65280, Note_on_c, 4, 67, 80
2, 65583, Note_on_c, 4, 60, 0
2, 65583, Note_on_c, 4, 64, 0
2, 65583, Note_on_c, 4, 67, 0
2, 65600, Note_on_c, 4, 62, 80
2, 65600, Note_on_c, 4, 67, 80
2, 65751, Note_on_c, 4, 62, 0
2, 65751, Note_on_c, 4, 67, 0
2, 65760, Note_on_c, 4, 60, 80
2, 65760, Note_on_c, 4, 64, 80
2, 65760, Note_on_c, 4, 67, 80
2, 66215, Note_on_c, 4, 60, 0
2, 66215, Note_on_c, 4, 64, 0
2, 66215, Note_on_c, 4, 67, 0
2, 66240, Note_on_c, 4, 55, 80
2, 66240, Note_on_c, 4, 60, 80
2, 66695, Note_on_c, 4, 55, 0
2, 66695, Note_on_c, 4, 60, 0
2, 66720, Note_on_c, 4, 55, 80
2, 66720, Note_on_c, 4, 64, 80
2, 66959, Note_on_c, 4, 55, 0
2, 66959, Note_on_c, 4, 64, 0
2, 67200, Note_on_c, 4, 60, 80
2, 67200, Note_on_c, 4, 62, 80
2, 67200, Note_on_c, 4, 65, 80
2, 67503, Note_on_c, 4, 60, 0
2, 67503, Note_on_c, 4, 62, 0
2, 67503, Note_on_c, 4, 65, 0
2, 67520, Note_on_c, 4, 62, 80
2, 67520, Note_on_c, 4, 64, 80
2, 67520, Note_on_c, 4, 67, 80
2, 67671, Note_on_c, 4, 62, 0
2, 67671, Note_on_c, 4, 64, 0
2, 67671, Note_on_c, 4, 67, 0
2, 67680, Note_on_c, 4, 60, 80
2, 67680, Note_on_c, 4, 65, 80
2, 68135, Note_on_c, 4, 60, 0
2, 68135, Note_on_c, 4, 65, 0
2, 68160, Note_on_c, 4, 55, 80
2, 68160, Note_on_c, 4, 59, 80
2, 68160, Note_on_c, 4, 62, 80
2, 69071, Note_on_c, 4, 55, 0
2, 69071, Note_on_c, 4, 59, 0
2, 69071, Note_on_c, 4, 62, 0
2, 69120, Note_on_c, 4, 53, 80
2, 69120, Note_on_c, 4, 57, 80
2, 69423, Note_on_c, 4, 53, 0
2, 69423, Note_on_c, 4, 57, 0
2, 69440, Note_on_c, 4, 57, 80
2, 69440, Note_on_c, 4, 60, 80
2, 69933, Note_on_c, 4, 57, 0
2, 69933, Note_on_c, 4, 60, 0
2, 69960, Note_on_c, 4, 57, 80
2, 69960, Note_on_c, 4, 60, 80
2, 69960, Note_on_c, 4, 62, 80
2, 70073, Note_on_c, 4, 57, 0
2, 70073, Note_on_c, 4, 60, 0
2, 70073, Note_on_c, 4, 62, 0
2, 70080, Note_on_c, 4, 59, 80
2, 70080, Note_on_c, 4, 62, 80
2, 70080, Note_on_c, 4, 64, 80
2, 70383, Note_on_c, 4, 59, 0
2, 70383, Note_on_c, 4, 62, 0
2, 70383, Note_on_c, 4, 64, 0
2, 70400, Note_on_c, 4, 60, 80
2, 70400, Note_on_c, 4, 65, 80
2, 70893, Note_on_c, 4, 60, 0
2, 70893, Note_on_c, 4, 65, 0
2, 70920, Note_on_c, 4, 59, 80
2, 70920, Note_on_c, 4, 64, 80
2, 71033, Note_on_c, 4, 59, 0
2, 71033, Note_on_c, 4, 64, 0
2, 71040, Note_on_c, 4, 57, 80
2, 71040, Note_on_c, 4, 60, 80
2, 71343, Note_on_c, 4, 57, 0
2, 71343, Note_on_c, 4, 60, 0
2, 71360, Note_on_c, 4, 60, 80
2, 71511, Note_on_c, 4, 60, 0
2, 71520, Note_on_c, 4, 60, 80
2, 71520, Note_on_c, 4, 62, 80
2, 71975, Note_on_c, 4, 60, 0
2, 71975, Note_on_c, 4, 62, 0
2, 72000, Note_on_c, 4, 53, 80
2, 72000, Note_on_c, 4, 59, 80
2, 72000, Note_on_c, 4, 64, 80
2, 72911, Note_on_c, 4, 53, 0
2, 72911, Note_on_c, 4, 59, 0
2, 72911, Note_on_c, 4, 64, 0
2, 73440, Note_on_c, 4, 60, 80
2, 73440, Note_on_c, 4, 65, 80
2, 73743, Note_on_c, 4, 60, 0
2, 73743, Note_on_c, 4, 65, 0
2, 73760, Note_on_c, 4, 59, 80
2, 73760, Note_on_c, 4, 64, 80
2, 73911, Note_on_c, 4, 59, 0
2, 73911, Note_on_c, 4, 64, 0
2, 73920, Note_on_c, 4, 60, 80
2, 73920, Note_on_c, 4, 65, 80
2, 74223, Note_on_c, 4, 60, 0
2, 74223, Note_on_c, 4, 65, 0
2, 74240, Note_on_c, 4, 59, 80
2, 74240, Note_on_c, 4, 64, 80
2, 74391, Note_on_c, 4, 59, 0
2, 74391, Note_on_c, 4, 64, 0
2, 74400, Note_on_c, 4, 60, 80
2, 74400, Note_on_c, 4, 65, 80
2, 74855, Note_on_c, 4, 60, 0
2, 74855, Note_on_c, 4, 65, 0
2, 74880, Note_on_c, 4, 59, 80
2, 74880, Note_on_c, 4, 65, 80
2, 75183, Note_on_c, 4, 59, 0
2, 75183, Note_on_c, 4, 65, 0
2, 75200, Note_on_c, 4, 53, 80
2, 75200, Note_on_c, 4, 57, 80
2, 75200, Note_on_c, 4, 59, 80
2, 75693, Note_on_c, 4, 53, 0
2, 75693, Note_on_c, 4, 57, 0
2, 75693, Note_on_c, 4, 59, 0
2, 75720, Note_on_c, 4, 53, 80
2, 75720, Note_on_c, 4, 59, 80
2, 76631, Note_on_c, 4, 53, 0
2, 76631, Note_on_c, 4, 59, 0
2, 76800, Note_on_c, 4, 64, 80
2, 76800, Note_on_c, 4, 69, 80
2, 77103, Note_on_c, 4, 64, 0
2, 77103, Note_on_c, 4, 69, 0
2, 77120, Note_on_c, 4, 64, 80
2, 77120, Note_on_c, 4, 69, 80
2, 77271, Note_on_c, 4, 64, 0
2, 77271, Note_on_c, 4, 69, 0
2, 77280, Note_on_c, 4, 64, 80
2, 77280, Note_on_c, 4, 69, 80
2, 77735, Note_on_c, 4, 64, 0
2, 77735, Note_on_c, 4, 69, 0
2, 77760, Note_on_c, 4, 62, 80
2, 77760, Note_on_c, 4, 67, 80
2, 78063, Note_on_c, 4, 62, 0
2, 78063, Note_on_c, 4, 67, 0
2, 78080, Note_on_c, 4, 64, 80
2, 78080, Note_on_c, 4, 67, 80
2, 78231, Note_on_c, 4, 64, 0
2, 78231, Note_on_c, 4, 67, 0
2, 78240, Note_on_c, 4, 64, 80
2, 78240, Note_on_c, 4, 67, 80
2, 78695, Note_on_c, 4, 64, 0
2, 78695, Note_on_c, 4, 67, 0
2, 78720, Note_on_c, 4, 60, 80
2, 78720, Note_on_c, 4, 64, 80
2, 78720, Note_on_c, 4, 67, 80
2, 79023, Note_on_c, 4, 60, 0
2, 79023, Note_on_c, 4, 64, 0
2, 79023, Note_on_c, 4, 67, 0
2, 79040, Note_on_c, 4, 62, 80
2, 79040, Note_on_c, 4, 67, 80
2, 79191, Note_on_c, 4, 62, 0
2, 79191, Note_on_c, 4, 67, 0
2, 79200, Note_on_c, 4, 60, 80
2, 79200, Note_on_c, 4, 64, 80
2, 79200, Note_on_c, 4, 67, 80
2, 79503, Note_on_c, 4, 60, 0
2, 79503, Note_on_c, 4, 64, 0
2, 79503, Note_on_c, 4, 67, 0
2, 79520, Note_on_c, 4, 55, 80
2, 79520, Note_on_c, 4, 57, 80
2, 79520, Note_on_c, 4, 60, 80
2, 80583, Note_on_c, 4, 55, 0
2, 80583, Note_on_c, 4, 57, 0
2, 80583, Note_on_c, 4, 60, 0
2, 80640, Note_on_c, 4, 60, 80
2, 80640, Note_on_c, 4, 64, 80
2, 80640, Note_on_c, 4, 67, 80
2, 80943, Note_on_c, 4, 60, 0
2, 80943, Note_on_c, 4, 64, 0
2, 80943, Note_on_c, 4, 67, 0
2, 80960, Note_on_c, 4, 62, 80
2, 80960, Note_on_c, 4, 67, 80
2, 81111, Note_on_c, 4, 62, 0
2, 81111, Note_on_c, 4, 67, 0
2, 81120, Note_on_c, 4, 60, 80
2, 81120, Note_on_c, 4, 64, 80
2, 81120, Note_on_c, 4, 67, 80
2, 81575, Note_on_c, 4, 60, 0
2, 81575, Note_on_c, 4, 64, 0
2, 81575, Note_on_c, 4, 67, 0
2, 81600, Note_on_c, 4, 55, 80
2, 81600, Note_on_c, 4, 59, 80
2, 82055, Note_on_c, 4, 55, 0
2, 82055, Note_on_c, 4, 59, 0
2, 82080, Note_on_c, 4, 59, 80
2, 82080, Note_on_c, 4, 64, 80
2, 82535, Note_on_c, 4, 59, 0
2, 82535, Note_on_c, 4, 64, 0
2, 82560, Note_on_c, 4, 60, 80
2, 82560, Note_on_c, 4, 62, 80
2, 82560, Note_on_c, 4, 65, 80
2, 82863, Note_on_c, 4, 60, 0
2, 82863, Note_on_c, 4, 62, 0
2, 82863, Note_on_c, 4, 65, 0
2, 82880, Note_on_c, 4, 62, 80
2, 82880, Note_on_c, 4, 64, 80
2, 82880, Note_on_c, 4, 67, 80
2, 83031, Note_on_c, 4, 62, 0
2, 83031, Note_on_c, 4, 64, 0
2, 83031, Note_on_c, 4, 67, 0
2, 83040, Note_on_c, 4, 60, 80
2, 83040, Note_on_c, 4, 65, 80
2, 83495, Note_on_c, 4, 60, 0
2, 83495, Note_on_c, 4, 65, 0
2, 83520, Note_on_c, 4, 55, 80
2, 83520, Note_on_c, 4, 59, 80
2, 83520, Note_on_c, 4, 62, 80
2, 84431, Note_on_c, 4, 55, 0
2, 84431, Note_on_c, 4, 59, 0
2, 84431, Note_on_c, 4, 62, 0
2, 84480, Note_on_c, 4, 53, 80
2, 84480, Note_on_c, 4, 57, 80
2, 84783, Note_on_c, 4, 53, 0
2, 84783, Note_on_c, 4, 57, 0
2, 84800, Note_on_c, 4, 57, 80
2, 84800, Note_on_c, 4, 60, 80
2, 85293, Note_on_c, 4, 57, 0
2, 85293, Note_on_c, 4, 60, 0
2, 85320, Note_on_c, 4, 57, 80
2, 85320, Note_on_c, 4, 62, 80
2, 85433, Note_on_c, 4, 57, 0
2, 85433, Note_on_c, 4, 62, 0
2, 85440, Note_on_c, 4, 59, 80
2, 85440, Note_on_c, 4, 64, 80
2, 85743, Note_on_c, 4, 59, 0
2, 85743, Note_on_c, 4, 64, 0
2, 85760, Note_on_c, 4, 60, 80
2, 85760, Note_on_c, 4, 65, 80
2, 86253, Note_on_c, 4, 60, 0
2, 86253, Note_on_c, 4, 65, 0
2, 86280, Note_on_c, 4, 59, 80
2, 86280, Note_on_c, 4, 64, 80
2, 86393, Note_on_c, 4, 59, 0
2, 86393, Note_on_c, 4, 64, 0
2, 86400, Note_on_c, 4, 53, 80
2, 86400, Note_on_c, 4, 57, 80
2, 86703, Note_on_c, 4, 53, 0
2, 86703, Note_on_c, 4, 57, 0
2, 86720, Note_on_c, 4, 57, 80
2, 86720, Note_on_c, 4, 60, 80
2, 86871, Note_on_c, 4, 57, 0
2, 86871, Note_on_c, 4, 60, 0
2, 86880, Note_on_c, 4, 57, 80
2, 86880, Note_on_c, 4, 62, 80
2, 87335, Note_on_c, 4, 57, 0
2, 87335, Note_on_c, 4, 62, 0
2, 87360, Note_on_c, 4, 59, 80
2, 87360, Note_on_c, 4, 64, 80
2, 88271, Note_on_c, 4, 59, 0
2, 88271, Note_on_c, 4, 64, 0
2, 88800, Note_on_c, 4, 60, 80
2, 88800, Note_on_c, 4, 62, 80
2, 88800, Note_on_c, 4, 65, 80
2, 89103, Note_on_c, 4, 60, 0
2, 89103, Note_on_c, 4, 62, 0
2, 89103, Note_on_c, 4, 65, 0
2, 89120, Note_on_c, 4, 60, 80
2, 89120, Note_on_c, 4, 65, 80
2, 89271, Note_on_c, 4, 60, 0
2, 89271, Note_on_c, 4, 65, 0
2, 89280, Note_on_c, 4, 64, 80
2, 89280, Note_on_c, 4, 67, 80
2, 89583, Note_on_c, 4, 64, 0
2, 89583, Note_on_c, 4, 67, 0
2, 89600, Note_on_c, 4, 62, 80
2, 89600, Note_on_c, 4, 65, 80
2, 89979, Note_on_c, 4, 62, 0
2, 89979, Note_on_c, 4, 65, 0
2, 90000, Note_on_c, 4, 55, 80
2, 90000, Note_on_c, 4, 64, 80
2, 90119, Note_on_c, 4, 55, 0
2, 90119, Note_on_c, 4, 64, 0
2, 90240, Note_on_c, 4, 55, 80
2, 90240, Note_on_c, 4, 64, 80
2, 90695, Note_on_c, 4, 55, 0
2, 90695, Note_on_c, 4, 64, 0
2, 90720, Note_on_c, 4, 53, 80
2, 90720, Note_on_c, 4, 62, 80
2, 91175, Note_on_c, 4, 53, 0
2, 91175, Note_on_c, 4, 62, 0
2, 91200, Note_on_c, 4, 55, 80
2, 91200, Note_on_c, 4, 64, 80
2, 91655, Note_on_c, 4, 55, 0
2, 91655, Note_on_c, 4, 64, 0
2, 92160, Note_on_c, 4, 60, 80
2, 92160, Note_on_c, 4, 65, 80
2, 92160, Note_on_c, 4, 69, 80
2, 92615, Note_on_c, 4, 60, 0
2, 92615, Note_on_c, 4, 65, 0
2, 92615, Note_on_c, 4, 69, 0
2, 94080, Note_on_c, 4, 60, 80
2, 94080, Note_on_c, 4, 65, 80
2, 94080, Note_on_c, 4, 69, 80
2, 94535, Note_on_c, 4, 60, 0
2, 94535, Note_on_c, 4, 65, 0
2, 94535, Note_on_c, 4, 69, 0
2, 96000, Note_on_c, 4, 60, 80
2, 96000, Note_on_c, 4, 64, 80
2, 96000, Note_on_c, 4, 67, 80
2, 96455, Note_on_c, 4, 60, 0
2, 96455, Note_on_c, 4, 64, 0
2, 96455, Note_on_c, 4, 67, 0
2, 97920, Note_on_c, 4, 67, 80
2, 97920, Note_on_c, 4, 72, 80
2, 99360, Note_on_c, 4, 72, 0
2, 99743, Note_on_c, 4, 67, 0
2, 99840, Note_on_c, 4, 60, 80
2, 99840, Note_on_c, 4, 64, 80
2, 99840, Note_on_c, 4, 67, 80
2, 101663, Note_on_c, 4, 60, 0
2, 101663, Note_on_c, 4, 64, 0
2, 101663, Note_on_c, 4, 67, 0
2, 101760, Note_on_c, 4, 60, 80
2, 101760, Note_on_c, 4, 64, 80
2, 101760, Note_on_c, 4, 71, 80
2, 102215, Note_on_c, 4, 60, 0
2, 102215, Note_on_c, 4, 64, 0
2, 102215, Note_on_c, 4, 71, 0
2, 102720, Note_on_c, 4, 69, 80
2, 103631, Note_on_c, 4, 69, 0
2, 103680, Note_on_c, 4, 57, 80
2, 103680, Note_on_c, 4, 60, 80
2, 103680, Note_on_c, 4, 65, 80
2, 105503, Note_on_c, 4, 57, 0
2, 105503, Note_on_c, 4, 60, 0
2, 105503, Note_on_c, 4, 65, 0
2, 105600, Note_on_c, 4, 53, 80
2, 105600, Note_on_c, 4, 59, 80
2, 107423, Note_on_c, 4, 53, 0
2, 107423, Note_on_c, 4, 59, 0
2, 107520, Note_on_c, 4, 64, 80
2, 107520, Note_on_c, 4, 69, 80
2, 107823, Note_on_c, 4, 64, 0
2, 107823, Note_on_c, 4, 69, 0
2, 107840, Note_on_c, 4, 64, 80
2, 107840, Note_on_c, 4, 69, 80
2, 107991, Note_on_c, 4, 64, 0
2, 107991, Note_on_c, 4, 69, 0
2, 108000, Note_on_c, 4, 64, 80
2, 108000, Note_on_c, 4, 69, 80
2, 108455, Note_on_c, 4, 64, 0
2, 108455, Note_on_c, 4, 69, 0
2, 108480, Note_on_c, 4, 64, 80
2, 108480, Note_on_c, 4, 67, 80
2, 108783, Note_on_c, 4, 64, 0
2, 108783, Note_on_c, 4, 67, 0
2, 108800, Note_on_c, 4, 64, 80
2, 108800, Note_on_c, 4, 67, 80
2, 108951, Note_on_c, 4, 64, 0
2, 108951, Note_on_c, 4, 67, 0
2, 108960, Note_on_c, 4, 64, 80
2, 108960, Note_on_c, 4, 67, 80
2, 109415, Note_on_c, 4, 64, 0
2, 109415, Note_on_c, 4, 67, 0
2, 109440, Note_on_c, 4, 64, 80
2, 109440, Note_on_c, 4, 67, 80
2, 109743, Note_on_c, 4, 64, 0
2, 109743, Note_on_c, 4, 67, 0
2, 109760, Note_on_c, 4, 62, 80
2, 109760, Note_on_c, 4, 64, 80
2, 109760, Note_on_c, 4, 67, 80
2, 109911, Note_on_c, 4, 62, 0
2, 109911, Note_on_c, 4, 64, 0
2, 109911, Note_on_c, 4, 67, 0
2, 109920, Note_on_c, 4, 64, 80
2, 109920, Note_on_c, 4, 67, 80
2, 110223, Note_on_c, 4, 64, 0
2, 110223, Note_on_c, 4, 67, 0
2, 110240, Note_on_c, 4, 55, 80
2, 110240, Note_on_c, 4, 57, 80
2, 110240, Note_on_c, 4, 60, 80
2, 111303, Note_on_c, 4, 55, 0
2, 111303, Note_on_c, 4, 57, 0
2, 111303, Note_on_c, 4, 60, 0
2, 111360, Note_on_c, 4, 60, 80
2, 111360, Note_on_c, 4, 64, 80
2, 111360, Note_on_c, 4, 67, 80
2, 111663, Note_on_c, 4, 60, 0
2, 111663, Note_on_c, 4, 64, 0
2, 111663, Note_on_c, 4, 67, 0
2, 111680, Note_on_c, 4, 62, 80
2, 111680, Note_on_c, 4, 64, 80
2, 111680, Note_on_c, 4, 67, 80
2, 111831, Note_on_c, 4, 62, 0
2, 111831, Note_on_c, 4, 64, 0
2, 111831, Note_on_c, 4, 67, 0
2, 111840, Note_on_c, 4, 60, 80
2, 111840, Note_on_c, 4, 64, 80
2, 111840, Note_on_c, 4, 67, 80
2, 112295, Note_on_c, 4, 60, 0
2, 112295, Note_on_c, 4, 64, 0
2, 112295, Note_on_c, 4, 67, 0
2, 112320, Note_on_c, 4, 59, 80
2, 112320, Note_on_c, 4, 67, 80
2, 112775, Note_on_c, 4, 59, 0
2, 112775, Note_on_c, 4, 67, 0
2, 112800, Note_on_c, 4, 59, 80
2, 112800, Note_on_c, 4, 64, 80
2, 113255, Note_on_c, 4, 59, 0
2, 113255, Note_on_c, 4, 64, 0
2, 113280, Note_on_c, 4, 69, 80
2, 113280, Note_on_c, 4, 65, 80
2, 114191, Note_on_c, 4, 65, 0
2, 114240, Note_on_c, 4, 64, 80
2, 115103, Note_on_c, 4, 69, 0
2, 115151, Note_on_c, 4, 64, 0
2, 115200, Note_on_c, 4, 60, 80
2, 115200, Note_on_c, 4, 62, 80
2, 115200, Note_on_c, 4, 65, 80
2, 115655, Note_on_c, 4, 60, 0
2, 115655, Note_on_c, 4, 62, 0
2, 115655, Note_on_c, 4, 65, 0
2, 115680, Note_on_c, 4, 65, 80
2, 115680, Note_on_c, 4, 69, 80
2, 116135, Note_on_c, 4, 65, 0
2, 116135, Note_on_c, 4, 69, 0
2, 116160, Note_on_c, 4, 69, 80
2, 116160, Note_on_c, 4, 72, 80
2, 116463, Note_on_c, 4, 69, 0
2, 116463, Note_on_c, 4, 72, 0
2, 116480, Note_on_c, 4, 69, 80
2, 116480, Note_on_c, 4, 72, 80
2, 116631, Note_on_c, 4, 69, 0
2, 116631, Note_on_c, 4, 72, 0
2, 116640, Note_on_c, 4, 65, 80
2, 116640, Note_on_c, 4, 69, 80
2, 116943, Note_on_c, 4, 65, 0
2, 116943, Note_on_c, 4, 69, 0
2, 116960, Note_on_c, 4, 65, 80
2, 116960, Note_on_c, 4, 69, 80
2, 117111, Note_on_c, 4, 65, 0
2, 117111, Note_on_c, 4, 69, 0
2, 117120, Note_on_c, 4, 60, 80
2, 117120, Note_on_c, 4, 62, 80
2, 117120, Note_on_c, 4, 65, 80
2, 117271, Note_on_c, 4, 65, 0
2, 117423, Note_on_c, 4, 60, 0
2, 117423, Note_on_c, 4, 62, 0
2, 117440, Note_on_c, 4, 60, 80
2, 117440, Note_on_c, 4, 62, 80
2, 117440, Note_on_c, 4, 65, 80
2, 117591, Note_on_c, 4, 60, 0
2, 117591, Note_on_c, 4, 62, 0
2, 117591, Note_on_c, 4, 65, 0
2, 117600, Note_on_c, 4, 62, 80
2, 117600, Note_on_c, 4, 65, 80
2, 117903, Note_on_c, 4, 62, 0
2, 117903, Note_on_c, 4, 65, 0
2, 117920, Note_on_c, 4, 65, 80
2, 117920, Note_on_c, 4, 72, 80
2, 118983, Note_on_c, 4, 65, 0
2, 118983, Note_on_c, 4, 72, 0
2, 119520, Note_on_c, 4, 69, 80
2, 119520, Note_on_c, 4, 62, 80
2, 119520, Note_on_c, 4, 65, 80
2, 119820, Note_on_c, 4, 69, 0
2, 119823, Note_on_c, 4, 62, 0
2, 119823, Note_on_c, 4, 65, 0
2, 119840, Note_on_c, 4, 60, 80
2, 119840, Note_on_c, 4, 62, 80
2, 119840, Note_on_c, 4, 65, 80
2, 119991, Note_on_c, 4, 60, 0
2, 119991, Note_on_c, 4, 62, 0
2, 119991, Note_on_c, 4, 65, 0
2, 120000, Note_on_c, 4, 65, 80
2, 120000, Note_on_c, 4, 67, 80
2, 120303, Note_on_c, 4, 65, 0
2, 120303, Note_on_c, 4, 67, 0
2, 120320, Note_on_c, 4, 60, 80
2, 120320, Note_on_c, 4, 62, 80
2, 120320, Note_on_c, 4, 65, 80
2, 120471, Note_on_c, 4, 60, 0
2, 120471, Note_on_c, 4, 62, 0
2, 120471, Note_on_c, 4, 65, 0
2, 120480, Note_on_c, 4, 59, 80
2, 120480, Note_on_c, 4, 64, 80
2, 120935, Note_on_c, 4, 59, 0
2, 120935, Note_on_c, 4, 64, 0
2, 121440, Note_on_c, 4, 69, 80
2, 121440, Note_on_c, 4, 62, 80
2, 121740, Note_on_c, 4, 69, 0
2, 121743, Note_on_c, 4, 62, 0
2, 121760, Note_on_c, 4, 60, 80
2, 121760, Note_on_c, 4, 62, 80
2, 121911, Note_on_c, 4, 60, 0
2, 121911, Note_on_c, 4, 62, 0
2, 121920, Note_on_c, 4, 62, 80
2, 121920, Note_on_c, 4, 65, 80
2, 121920, Note_on_c, 4, 67, 80
2, 122071, Note_on_c, 4, 62, 0
2, 122223, Note_on_c, 4, 65, 0
2, 122223, Note_on_c, 4, 67, 0
2, 122240, Note_on_c, 4, 60, 80
2, 122240, Note_on_c, 4, 62, 80
2, 122240, Note_on_c, 4, 65, 80
2, 122391, Note_on_c, 4, 60, 0
2, 122391, Note_on_c, 4, 62, 0
2, 122391, Note_on_c, 4, 65, 0
2, 122400, Note_on_c, 4, 59, 80
2, 122400, Note_on_c, 4, 62, 80
2, 122855, Note_on_c, 4, 59, 0
2, 122855, Note_on_c, 4, 62, 0
2, 123360, Note_on_c, 4, 69, 80
2, 123360, Note_on_c, 4, 62, 80
2, 123660, Note_on_c, 4, 69, 0
2, 123663, Note_on_c, 4, 62, 0
2, 123680, Note_on_c, 4, 60, 80
2, 123680, Note_on_c, 4, 62, 80
2, 123831, Note_on_c, 4, 60, 0
2, 123831, Note_on_c, 4, 62, 0
2, 123840, Note_on_c, 4, 62, 80
2, 123840, Note_on_c, 4, 65, 80
2, 123840, Note_on_c, 4, 67, 80
2, 123991, Note_on_c, 4, 62, 0
2, 124143, Note_on_c, 4, 65, 0
2, 124143, Note_on_c, 4, 67, 0
2, 124160, Note_on_c, 4, 60, 80
2, 124160, Note_on_c, 4, 62, 80
2, 124160, Note_on_c, 4, 65, 80
2, 124311, Note_on_c, 4, 60, 0
2, 124311, Note_on_c, 4, 62, 0
2, 124311, Note_on_c, 4, 65, 0
2, 124320, Note_on_c, 4, 59, 80
2, 124320, Note_on_c, 4, 62, 80
2, 124775, Note_on_c, 4, 59, 0
2, 124775, Note_on_c, 4, 62, 0
2, 124800, Note_on_c, 4, 57, 80
2, 124800, Note_on_c, 4, 64, 80
2, 124800, Note_on_c, 4, 67, 80
2, 125280, Note_on_c, 4, 67, 0
2, 126623, Note_on_c, 4, 57, 0
2, 126623, Note_on_c, 4, 64, 0
2, 126624, End_track
3, 0, Start_track
3, 0, Title_t, "Electric Bass, Bass\000"
3, 0, Key_signature, 0, "major"
3, 0, Control_c, 1, 121, 0
3, 0, Program_c, 1, 33
3, 0, Control_c, 1, 7, 100
3, 0, Control_c, 1, 10, 64
3, 0, Control_c, 1, 91, 0
3, 0, Control_c, 1, 93, 0
3, 0, MIDI_port, 0
3, 0, Note_on_c, 1, 48, 80
3, 0, Control_c, 0, 121, 0
3, 0, Program_c, 0, 36
3, 0, Control_c, 0, 7, 100
3, 0, Control_c, 0, 10, 64
3, 0, Control_c, 0, 91, 0
3, 0, Control_c, 0, 93, 0
3, 0, MIDI_port, 0
3, 0, Control_c, 4, 121, 0
3, 0, Program_c, 4, 37
3, 0, Control_c, 4, 7, 100
3, 0, Control_c, 4, 10, 64
3, 0, Control_c, 4, 91, 0
3, 0, Control_c, 4, 93, 0
3, 0, MIDI_port, 0
3, 3119, Note_on_c, 1, 48, 0
3, 3200, Note_on_c, 1, 55, 80
3, 3359, Note_on_c, 1, 55, 0
3, 3360, Note_on_c, 1, 60, 80
3, 3519, Note_on_c, 1, 60, 0
3, 3520, Note_on_c, 1, 55, 80
3, 3599, Note_on_c, 1, 55, 0
3, 3680, Note_on_c, 1, 52, 80
3, 3759, Note_on_c, 1, 52, 0
3, 3840, Note_on_c, 1, 53, 80
3, 5279, Note_on_c, 1, 53, 0
3, 5280, Note_on_c, 1, 53, 80
3, 5519, Note_on_c, 1, 53, 0
3, 5760, Note_on_c, 1, 55, 80
3, 6719, Note_on_c, 1, 55, 0
3, 6880, Note_on_c, 1, 55, 80
3, 7039, Note_on_c, 1, 55, 0
3, 7040, Note_on_c, 1, 57, 80
3, 7199, Note_on_c, 1, 57, 0
3, 7200, Note_on_c, 1, 55, 80
3, 7359, Note_on_c, 1, 55, 0
3, 7360, Note_on_c, 1, 53, 80
3, 7519, Note_on_c, 1, 53, 0
3, 7520, Note_on_c, 1, 50, 80
3, 7679, Note_on_c, 1, 50, 0
3, 7680, Note_on_c, 1, 48, 80
3, 8399, Note_on_c, 1, 48, 0
3, 8480, Note_on_c, 1, 48, 80
3, 8559, Note_on_c, 1, 48, 0
3, 8640, Note_on_c, 1, 55, 80
3, 9199, Note_on_c, 1, 55, 0
3, 9440, Note_on_c, 1, 55, 80
3, 9599, Note_on_c, 1, 55, 0
3, 9600, Note_on_c, 1, 48, 80
3, 10239, Note_on_c, 1, 48, 0
3, 10440, Note_on_c, 1, 55, 80
3, 10679, Note_on_c, 1, 55, 0
3, 10880, Note_on_c, 1, 55, 80
3, 11199, Note_on_c, 1, 55, 0
3, 11400, Note_on_c, 1, 55, 80
3, 11519, Note_on_c, 1, 55, 0
3, 11520, Note_on_c, 1, 48, 80
3, 12239, Note_on_c, 1, 48, 0
3, 12320, Note_on_c, 1, 48, 80
3, 12479, Note_on_c, 1, 48, 0
3, 12480, Note_on_c, 1, 50, 80
3, 12959, Note_on_c, 1, 50, 0
3, 13280, Note_on_c, 1, 50, 80
3, 13439, Note_on_c, 1, 50, 0
3, 13440, Note_on_c, 1, 50, 80
3, 14159, Note_on_c, 1, 50, 0
3, 14250, Note_on_c, 1, 57, 80
3, 14339, Note_on_c, 1, 57, 0
3, 14400, Note_on_c, 1, 55, 80
3, 14559, Note_on_c, 1, 55, 0
3, 14560, Note_on_c, 1, 53, 80
3, 14599, Note_on_c, 1, 53, 0
3, 14700, Note_on_c, 1, 50, 80
3, 14789, Note_on_c, 1, 50, 0
3, 14880, Note_on_c, 1, 55, 80
3, 15359, Note_on_c, 1, 55, 0
3, 15360, Note_on_c, 1, 50, 80
3, 15839, Note_on_c, 1, 50, 0
3, 16160, Note_on_c, 1, 50, 80
3, 16319, Note_on_c, 1, 50, 0
3, 16320, Note_on_c, 1, 55, 80
3, 16959, Note_on_c, 1, 55, 0
3, 17120, Note_on_c, 1, 55, 80
3, 17279, Note_on_c, 1, 55, 0
3, 17280, Note_on_c, 1, 50, 80
3, 17759, Note_on_c, 1, 50, 0
3, 18000, Note_on_c, 1, 55, 80
3, 18359, Note_on_c, 1, 55, 0
3, 18560, Note_on_c, 1, 55, 80
3, 19079, Note_on_c, 1, 55, 0
3, 19080, Note_on_c, 1, 55, 80
3, 19199, Note_on_c, 1, 55, 0
3, 19200, Note_on_c, 1, 50, 80
3, 19679, Note_on_c, 1, 50, 0
3, 20000, Note_on_c, 1, 50, 80
3, 20079, Note_on_c, 1, 50, 0
3, 20160, Note_on_c, 1, 50, 80
3, 20799, Note_on_c, 1, 50, 0
3, 20960, Note_on_c, 1, 55, 80
3, 21119, Note_on_c, 1, 55, 0
3, 21120, Note_on_c, 1, 55, 80
3, 21359, Note_on_c, 1, 55, 0
3, 21450, Note_on_c, 1, 55, 80
3, 21539, Note_on_c, 1, 55, 0
3, 21600, Note_on_c, 1, 55, 80
3, 22079, Note_on_c, 1, 55, 0
3, 22080, Note_on_c, 1, 55, 80
3, 22559, Note_on_c, 1, 55, 0
3, 22560, Note_on_c, 1, 55, 80
3, 23039, Note_on_c, 1, 55, 0
3, 23040, Note_on_c, 1, 48, 80
3, 23840, Note_on_c, 1, 48, 0
3, 23840, Note_on_c, 1, 48, 80
3, 23840, Note_on_c, 0, 48, 0
3, 23840, Note_on_c, 4, 48, 0
3, 23999, Note_on_c, 1, 48, 0
3, 24000, Note_on_c, 1, 55, 80
3, 24719, Note_on_c, 1, 55, 0
3, 24800, Note_on_c, 1, 55, 80
3, 24959, Note_on_c, 1, 55, 0
3, 24960, Note_on_c, 1, 48, 80
3, 25680, Note_on_c, 1, 55, 80
3, 25919, Note_on_c, 1, 48, 0
3, 26039, Note_on_c, 1, 55, 0
3, 26240, Note_on_c, 1, 55, 80
3, 26319, Note_on_c, 1, 55, 0
3, 26400, Note_on_c, 1, 55, 80
3, 26559, Note_on_c, 1, 55, 0
3, 26560, Note_on_c, 1, 57, 80
3, 26639, Note_on_c, 1, 57, 0
3, 26720, Note_on_c, 1, 55, 80
3, 26879, Note_on_c, 1, 55, 0
3, 26880, Note_on_c, 1, 48, 80
3, 27359, Note_on_c, 1, 48, 0
3, 27520, Note_on_c, 1, 55, 80
3, 27679, Note_on_c, 1, 55, 0
3, 27680, Note_on_c, 1, 48, 80
3, 27759, Note_on_c, 1, 48, 0
3, 27840, Note_on_c, 1, 55, 80
3, 28479, Note_on_c, 1, 55, 0
3, 28480, Note_on_c, 1, 55, 80
3, 28640, Note_on_c, 1, 52, 80
3, 28799, Note_on_c, 1, 55, 0
3, 28799, Note_on_c, 1, 52, 0
3, 28800, Note_on_c, 1, 50, 80
3, 29519, Note_on_c, 1, 50, 0
3, 29600, Note_on_c, 1, 50, 80
3, 29679, Note_on_c, 1, 50, 0
3, 29760, Note_on_c, 1, 55, 80
3, 29919, Note_on_c, 1, 55, 0
3, 29920, Note_on_c, 1, 53, 80
3, 29999, Note_on_c, 1, 53, 0
3, 30080, Note_on_c, 1, 50, 80
3, 30239, Note_on_c, 1, 50, 0
3, 30240, Note_on_c, 1, 55, 80
3, 30719, Note_on_c, 1, 55, 0
3, 30720, Note_on_c, 1, 50, 80
3, 31520, Note_on_c, 1, 50, 0
3, 31520, Note_on_c, 1, 50, 80
3, 31520, Note_on_c, 0, 50, 0
3, 31520, Note_on_c, 4, 50, 0
3, 31679, Note_on_c, 1, 50, 0
3, 31680, Note_on_c, 1, 55, 80
3, 32239, Note_on_c, 1, 55, 0
3, 32320, Note_on_c, 1, 57, 80
3, 32479, Note_on_c, 1, 57, 0
3, 32480, Note_on_c, 1, 55, 80
3, 32559, Note_on_c, 1, 55, 0
3, 32640, Note_on_c, 1, 50, 80
3, 33359, Note_on_c, 1, 50, 0
3, 33440, Note_on_c, 1, 57, 80
3, 33599, Note_on_c, 1, 57, 0
3, 33600, Note_on_c, 1, 55, 80
3, 34319, Note_on_c, 1, 55, 0
3, 34400, Note_on_c, 1, 55, 80
3, 34479, Note_on_c, 1, 55, 0
3, 34560, Note_on_c, 1, 50, 80
3, 35279, Note_on_c, 1, 50, 0
3, 35360, Note_on_c, 1, 50, 80
3, 35439, Note_on_c, 1, 50, 0
3, 35520, Note_on_c, 1, 55, 80
3, 36159, Note_on_c, 1, 55, 0
3, 36320, Note_on_c, 1, 55, 80
3, 36479, Note_on_c, 1, 55, 0
3, 36480, Note_on_c, 1, 48, 80
3, 36959, Note_on_c, 1, 48, 0
3, 36960, Note_on_c, 1, 55, 80
3, 37439, Note_on_c, 1, 55, 0
3, 37440, Note_on_c, 1, 48, 80
3, 37679, Note_on_c, 1, 48, 0
3, 37920, Note_on_c, 1, 48, 80
3, 38399, Note_on_c, 1, 48, 0
3, 38400, Note_on_c, 1, 53, 80
3, 38879, Note_on_c, 1, 53, 0
3, 39120, Note_on_c, 1, 53, 80
3, 39479, Note_on_c, 1, 53, 0
3, 39680, Note_on_c, 1, 48, 80
3, 39839, Note_on_c, 1, 48, 0
3, 39840, Note_on_c, 1, 53, 80
3, 40079, Note_on_c, 1, 53, 0
3, 40320, Note_on_c, 1, 53, 80
3, 40639, Note_on_c, 1, 53, 0
3, 40640, Note_on_c, 1, 53, 80
3, 41759, Note_on_c, 1, 53, 0
3, 41760, Note_on_c, 1, 53, 80
3, 41839, Note_on_c, 1, 53, 0
3, 41920, Note_on_c, 1, 48, 80
3, 42079, Note_on_c, 1, 48, 0
3, 42080, Note_on_c, 1, 53, 80
3, 42159, Note_on_c, 1, 53, 0
3, 42240, Note_on_c, 1, 55, 80
3, 42879, Note_on_c, 1, 55, 0
3, 42960, Note_on_c, 1, 55, 80
3, 43439, Note_on_c, 1, 55, 0
3, 43520, Note_on_c, 1, 57, 80
3, 43679, Note_on_c, 1, 57, 0
3, 43680, Note_on_c, 1, 55, 80
3, 44159, Note_on_c, 1, 55, 0
3, 44160, Note_on_c, 1, 48, 80
3, 44479, Note_on_c, 1, 48, 0
3, 44480, Note_on_c, 1, 48, 80
3, 45359, Note_on_c, 1, 48, 0
3, 45480, Note_on_c, 1, 52, 80
3, 45539, Note_on_c, 1, 52, 0
3, 45600, Note_on_c, 1, 55, 80
3, 46079, Note_on_c, 1, 55, 0
3, 46080, Note_on_c, 1, 57, 80
3, 46559, Note_on_c, 1, 57, 0
3, 46920, Note_on_c, 1, 57, 80
3, 47159, Note_on_c, 1, 57, 0
3, 47360, Note_on_c, 1, 55, 80
3, 47520, Note_on_c, 1, 52, 80
3, 47759, Note_on_c, 1, 52, 0
3, 47999, Note_on_c, 1, 55, 0
3, 48000, Note_on_c, 1, 50, 80
3, 48319, Note_on_c, 1, 50, 0
3, 48320, Note_on_c, 1, 50, 80
3, 49439, Note_on_c, 1, 50, 0
3, 49440, Note_on_c, 1, 50, 80
3, 49519, Note_on_c, 1, 50, 0
3, 49600, Note_on_c, 1, 52, 80
3, 49759, Note_on_c, 1, 52, 0
3, 49760, Note_on_c, 1, 50, 80
3, 49919, Note_on_c, 1, 50, 0
3, 49920, Note_on_c, 1, 55, 80
3, 51839, Note_on_c, 1, 55, 0
3, 51840, Note_on_c, 1, 55, 80
3, 51999, Note_on_c, 1, 55, 0
3, 52000, Note_on_c, 1, 50, 80
3, 52079, Note_on_c, 1, 50, 0
3, 52160, Note_on_c, 1, 55, 80
3, 52239, Note_on_c, 1, 55, 0
3, 52320, Note_on_c, 1, 53, 80
3, 52799, Note_on_c, 1, 53, 0
3, 52800, Note_on_c, 1, 52, 80
3, 52879, Note_on_c, 1, 52, 0
3, 52960, Note_on_c, 1, 48, 80
3, 53039, Note_on_c, 1, 48, 0
3, 53120, Note_on_c, 1, 52, 80
3, 53279, Note_on_c, 1, 52, 0
3, 53280, Note_on_c, 1, 50, 80
3, 53759, Note_on_c, 1, 50, 0
3, 53760, Note_on_c, 1, 48, 80
3, 56879, Note_on_c, 1, 48, 0
3, 56960, Note_on_c, 1, 55, 80
3, 57119, Note_on_c, 1, 55, 0
3, 57120, Note_on_c, 1, 60, 80
3, 57279, Note_on_c, 1, 60, 0
3, 57280, Note_on_c, 1, 55, 80
3, 57359, Note_on_c, 1, 55, 0
3, 57440, Note_on_c, 1, 52, 80
3, 57519, Note_on_c, 1, 52, 0
3, 57600, Note_on_c, 1, 53, 80
3, 59039, Note_on_c, 1, 53, 0
3, 59520, Note_on_c, 1, 55, 80
3, 60479, Note_on_c, 1, 55, 0
3, 60640, Note_on_c, 1, 55, 80
3, 60799, Note_on_c, 1, 55, 0
3, 60800, Note_on_c, 1, 57, 80
3, 60959, Note_on_c, 1, 57, 0
3, 60960, Note_on_c, 1, 55, 80
3, 61119, Note_on_c, 1, 55, 0
3, 61120, Note_on_c, 1, 52, 80
3, 61279, Note_on_c, 1, 52, 0
3, 61280, Note_on_c, 1, 50, 80
3, 61439, Note_on_c, 1, 50, 0
3, 61440, Note_on_c, 1, 48, 80
3, 62159, Note_on_c, 1, 48, 0
3, 62240, Note_on_c, 1, 48, 80
3, 62319, Note_on_c, 1, 48, 0
3, 62400, Note_on_c, 1, 55, 80
3, 62959, Note_on_c, 1, 55, 0
3, 63200, Note_on_c, 1, 55, 80
3, 63359, Note_on_c, 1, 55, 0
3, 63360, Note_on_c, 1, 48, 80
3, 63999, Note_on_c, 1, 48, 0
3, 64200, Note_on_c, 1, 55, 80
3, 64439, Note_on_c, 1, 55, 0
3, 64640, Note_on_c, 1, 55, 80
3, 64959, Note_on_c, 1, 55, 0
3, 65160, Note_on_c, 1, 55, 80
3, 65279, Note_on_c, 1, 55, 0
3, 65280, Note_on_c, 1, 48, 80
3, 65919, Note_on_c, 1, 48, 0
3, 66120, Note_on_c, 1, 55, 80
3, 66359, Note_on_c, 1, 55, 0
3, 66560, Note_on_c, 1, 55, 80
3, 66879, Note_on_c, 1, 55, 0
3, 67080, Note_on_c, 1, 55, 80
3, 67199, Note_on_c, 1, 55, 0
3, 67200, Note_on_c, 1, 50, 80
3, 67919, Note_on_c, 1, 50, 0
3, 68010, Note_on_c, 1, 57, 80
3, 68099, Note_on_c, 1, 57, 0
3, 68160, Note_on_c, 1, 55, 80
3, 68319, Note_on_c, 1, 55, 0
3, 68320, Note_on_c, 1, 53, 80
3, 68359, Note_on_c, 1, 53, 0
3, 68460, Note_on_c, 1, 50, 80
3, 68549, Note_on_c, 1, 50, 0
3, 68640, Note_on_c, 1, 55, 80
3, 69119, Note_on_c, 1, 55, 0
3, 69120, Note_on_c, 1, 50, 80
3, 69599, Note_on_c, 1, 50, 0
3, 69920, Note_on_c, 1, 50, 80
3, 70079, Note_on_c, 1, 50, 0
3, 70080, Note_on_c, 1, 55, 80
3, 70719, Note_on_c, 1, 55, 0
3, 70880, Note_on_c, 1, 55, 80
3, 71039, Note_on_c, 1, 55, 0
3, 71040, Note_on_c, 1, 50, 80
3, 71519, Note_on_c, 1, 50, 0
3, 71760, Note_on_c, 1, 55, 80
3, 72119, Note_on_c, 1, 55, 0
3, 72320, Note_on_c, 1, 55, 80
3, 72839, Note_on_c, 1, 55, 0
3, 72840, Note_on_c, 1, 55, 80
3, 72959, Note_on_c, 1, 55, 0
3, 72960, Note_on_c, 1, 50, 80
3, 73439, Note_on_c, 1, 50, 0
3, 73760, Note_on_c, 1, 50, 80
3, 73839, Note_on_c, 1, 50, 0
3, 73920, Note_on_c, 1, 50, 80
3, 74559, Note_on_c, 1, 50, 0
3, 74720, Note_on_c, 1, 55, 80
3, 75119, Note_on_c, 1, 55, 0
3, 75210, Note_on_c, 1, 55, 80
3, 75299, Note_on_c, 1, 55, 0
3, 75360, Note_on_c, 1, 55, 80
3, 75839, Note_on_c, 1, 55, 0
3, 75840, Note_on_c, 1, 55, 80
3, 76319, Note_on_c, 1, 55, 0
3, 76320, Note_on_c, 1, 59, 80
3, 76799, Note_on_c, 1, 59, 0
3, 76800, Note_on_c, 1, 48, 80
3, 77600, Note_on_c, 1, 48, 0
3, 77600, Note_on_c, 1, 48, 80
3, 77600, Note_on_c, 0, 48, 0
3, 77600, Note_on_c, 4, 48, 0
3, 77759, Note_on_c, 1, 48, 0
3, 77760, Note_on_c, 1, 55, 80
3, 78479, Note_on_c, 1, 55, 0
3, 78560, Note_on_c, 1, 55, 80
3, 78719, Note_on_c, 1, 55, 0
3, 78720, Note_on_c, 1, 48, 80
3, 79440, Note_on_c, 1, 55, 80
3, 79679, Note_on_c, 1, 48, 0
3, 79799, Note_on_c, 1, 55, 0
3, 80000, Note_on_c, 1, 55, 80
3, 80079, Note_on_c, 1, 55, 0
3, 80160, Note_on_c, 1, 55, 80
3, 80319, Note_on_c, 1, 55, 0
3, 80320, Note_on_c, 1, 57, 80
3, 80399, Note_on_c, 1, 57, 0
3, 80480, Note_on_c, 1, 55, 80
3, 80639, Note_on_c, 1, 55, 0
3, 80640, Note_on_c, 1, 48, 80
3, 81119, Note_on_c, 1, 48, 0
3, 81280, Note_on_c, 1, 55, 80
3, 81439, Note_on_c, 1, 55, 0
3, 81440, Note_on_c, 1, 48, 80
3, 81519, Note_on_c, 1, 48, 0
3, 81600, Note_on_c, 1, 55, 80
3, 82239, Note_on_c, 1, 55, 0
3, 82240, Note_on_c, 1, 55, 80
3, 82400, Note_on_c, 1, 52, 80
3, 82559, Note_on_c, 1, 55, 0
3, 82559, Note_on_c, 1, 52, 0
3, 82560, Note_on_c, 1, 50, 80
3, 83279, Note_on_c, 1, 50, 0
3, 83360, Note_on_c, 1, 50, 80
3, 83439, Note_on_c, 1, 50, 0
3, 83520, Note_on_c, 1, 55, 80
3, 83679, Note_on_c, 1, 55, 0
3, 83680, Note_on_c, 1, 53, 80
3, 83759, Note_on_c, 1, 53, 0
3, 83840, Note_on_c, 1, 50, 80
3, 83999, Note_on_c, 1, 50, 0
3, 84000, Note_on_c, 1, 55, 80
3, 84479, Note_on_c, 1, 55, 0
3, 84480, Note_on_c, 1, 50, 80
3, 85280, Note_on_c, 1, 50, 0
3, 85280, Note_on_c, 1, 50, 80
3, 85280, Note_on_c, 0, 50, 0
3, 85280, Note_on_c, 4, 50, 0
3, 85439, Note_on_c, 1, 50, 0
3, 85440, Note_on_c, 1, 55, 80
3, 85999, Note_on_c, 1, 55, 0
3, 86080, Note_on_c, 1, 57, 80
3, 86239, Note_on_c, 1, 57, 0
3, 86240, Note_on_c, 1, 55, 80
3, 86319, Note_on_c, 1, 55, 0
3, 86400, Note_on_c, 1, 50, 80
3, 87119, Note_on_c, 1, 50, 0
3, 87200, Note_on_c, 1, 57, 80
3, 87359, Note_on_c, 1, 57, 0
3, 87360, Note_on_c, 1, 55, 80
3, 88079, Note_on_c, 1, 55, 0
3, 88160, Note_on_c, 1, 55, 80
3, 88239, Note_on_c, 1, 55, 0
3, 88320, Note_on_c, 1, 50, 80
3, 89039, Note_on_c, 1, 50, 0
3, 89120, Note_on_c, 1, 50, 80
3, 89199, Note_on_c, 1, 50, 0
3, 89280, Note_on_c, 1, 55, 80
3, 89919, Note_on_c, 1, 55, 0
3, 90080, Note_on_c, 1, 55, 80
3, 90239, Note_on_c, 1, 55, 0
3, 90240, Note_on_c, 1, 48, 80
3, 90719, Note_on_c, 1, 48, 0
3, 90720, Note_on_c, 1, 55, 80
3, 91199, Note_on_c, 1, 55, 0
3, 91200, Note_on_c, 1, 48, 80
3, 91439, Note_on_c, 1, 48, 0
3, 91680, Note_on_c, 1, 48, 80
3, 92159, Note_on_c, 1, 48, 0
3, 92160, Note_on_c, 1, 53, 80
3, 92639, Note_on_c, 1, 53, 0
3, 92880, Note_on_c, 1, 53, 80
3, 93239, Note_on_c, 1, 53, 0
3, 93440, Note_on_c, 1, 48, 80
3, 93599, Note_on_c, 1, 48, 0
3, 93600, Note_on_c, 1, 53, 80
3, 93839, Note_on_c, 1, 53, 0
3, 94080, Note_on_c, 1, 53, 80
3, 94399, Note_on_c, 1, 53, 0
3, 94400, Note_on_c, 1, 53, 80
3, 95519, Note_on_c, 1, 53, 0
3, 95520, Note_on_c, 1, 53, 80
3, 95599, Note_on_c, 1, 53, 0
3, 95680, Note_on_c, 1, 48, 80
3, 95839, Note_on_c, 1, 48, 0
3, 95840, Note_on_c, 1, 53, 80
3, 95919, Note_on_c, 1, 53, 0
3, 96000, Note_on_c, 1, 55, 80
3, 96639, Note_on_c, 1, 55, 0
3, 96720, Note_on_c, 1, 55, 80
3, 97199, Note_on_c, 1, 55, 0
3, 97280, Note_on_c, 1, 57, 80
3, 97439, Note_on_c, 1, 57, 0
3, 97440, Note_on_c, 1, 55, 80
3, 97919, Note_on_c, 1, 55, 0
3, 97920, Note_on_c, 1, 48, 80
3, 98239, Note_on_c, 1, 48, 0
3, 98240, Note_on_c, 1, 48, 80
3, 99119, Note_on_c, 1, 48, 0
3, 99240, Note_on_c, 1, 52, 80
3, 99299, Note_on_c, 1, 52, 0
3, 99360, Note_on_c, 1, 55, 80
3, 99839, Note_on_c, 1, 55, 0
3, 99840, Note_on_c, 1, 57, 80
3, 100319, Note_on_c, 1, 57, 0
3, 100680, Note_on_c, 1, 57, 80
3, 100919, Note_on_c, 1, 57, 0
3, 101120, Note_on_c, 1, 55, 80
3, 101280, Note_on_c, 1, 52, 80
3, 101519, Note_on_c, 1, 52, 0
3, 101759, Note_on_c, 1, 55, 0
3, 101760, Note_on_c, 1, 50, 80
3, 102079, Note_on_c, 1, 50, 0
3, 102080, Note_on_c, 1, 50, 80
3, 103199, Note_on_c, 1, 50, 0
3, 103200, Note_on_c, 1, 50, 80
3, 103279, Note_on_c, 1, 50, 0
3, 103360, Note_on_c, 1, 52, 80
3, 103519, Note_on_c, 1, 52, 0
3, 103520, Note_on_c, 1, 50, 80
3, 103679, Note_on_c, 1, 50, 0
3, 103680, Note_on_c, 1, 55, 80
3, 105599, Note_on_c, 1, 55, 0
3, 105600, Note_on_c, 1, 55, 80
3, 105759, Note_on_c, 1, 55, 0
3, 105760, Note_on_c, 1, 50, 80
3, 105839, Note_on_c, 1, 50, 0
3, 105920, Note_on_c, 1, 55, 80
3, 105999, Note_on_c, 1, 55, 0
3, 106080, Note_on_c, 1, 53, 80
3, 106559, Note_on_c, 1, 53, 0
3, 106560, Note_on_c, 1, 52, 80
3, 106639, Note_on_c, 1, 52, 0
3, 106720, Note_on_c, 1, 48, 80
3, 106799, Note_on_c, 1, 48, 0
3, 106880, Note_on_c, 1, 52, 80
3, 107039, Note_on_c, 1, 52, 0
3, 107040, Note_on_c, 1, 50, 80
3, 107519, Note_on_c, 1, 50, 0
3, 107520, Note_on_c, 1, 48, 80
3, 108239, Note_on_c, 1, 48, 0
3, 108320, Note_on_c, 1, 48, 80
3, 108399, Note_on_c, 1, 48, 0
3, 108480, Note_on_c, 1, 55, 80
3, 109039, Note_on_c, 1, 55, 0
3, 109280, Note_on_c, 1, 55, 80
3, 109439, Note_on_c, 1, 55, 0
3, 109440, Note_on_c, 1, 48, 80
3, 109759, Note_on_c, 1, 48, 0
3, 110160, Note_on_c, 1, 55, 80
3, 110519, Note_on_c, 1, 55, 0
3, 110720, Note_on_c, 1, 55, 80
3, 111039, Note_on_c, 1, 55, 0
3, 111240, Note_on_c, 1, 55, 80
3, 111359, Note_on_c, 1, 55, 0
3, 111360, Note_on_c, 1, 48, 80
3, 111839, Note_on_c, 1, 48, 0
3, 112000, Note_on_c, 1, 55, 80
3, 112159, Note_on_c, 1, 55, 0
3, 112160, Note_on_c, 1, 48, 80
3, 112239, Note_on_c, 1, 48, 0
3, 112320, Note_on_c, 1, 55, 80
3, 112959, Note_on_c, 1, 55, 0
3, 112960, Note_on_c, 1, 55, 80
3, 113120, Note_on_c, 1, 52, 80
3, 113279, Note_on_c, 1, 55, 0
3, 113279, Note_on_c, 1, 52, 0
3, 113280, Note_on_c, 1, 57, 80
3, 113759, Note_on_c, 1, 57, 0
3, 113920, Note_on_c, 1, 52, 80
3, 113999, Note_on_c, 1, 52, 0
3, 114080, Note_on_c, 1, 55, 80
3, 114159, Note_on_c, 1, 55, 0
3, 114240, Note_on_c, 1, 57, 80
3, 114319, Note_on_c, 1, 57, 0
3, 114400, Note_on_c, 1, 55, 80
3, 114479, Note_on_c, 1, 55, 0
3, 114560, Note_on_c, 1, 52, 80
3, 114639, Note_on_c, 1, 52, 0
3, 114720, Note_on_c, 1, 57, 80
3, 114959, Note_on_c, 1, 57, 0
3, 115200, Note_on_c, 1, 53, 80
3, 115679, Note_on_c, 1, 53, 0
3, 115680, Note_on_c, 1, 57, 80
3, 116159, Note_on_c, 1, 57, 0
3, 116160, Note_on_c, 1, 60, 80
3, 116639, Note_on_c, 1, 60, 0
3, 116640, Note_on_c, 1, 57, 80
3, 116959, Note_on_c, 1, 57, 0
3, 116960, Note_on_c, 1, 57, 80
3, 117039, Note_on_c, 1, 57, 0
3, 117120, Note_on_c, 1, 53, 80
3, 117439, Note_on_c, 1, 53, 0
3, 117440, Note_on_c, 1, 53, 80
3, 117599, Note_on_c, 1, 53, 0
3, 117600, Note_on_c, 1, 53, 80
3, 118079, Note_on_c, 1, 53, 0
3, 118080, Note_on_c, 1, 60, 80
3, 118559, Note_on_c, 1, 60, 0
3, 118560, Note_on_c, 1, 53, 80
3, 118879, Note_on_c, 1, 53, 0
3, 118880, Note_on_c, 1, 52, 80
3, 119039, Note_on_c, 1, 52, 0
3, 119040, Note_on_c, 1, 50, 80
3, 119519, Note_on_c, 1, 50, 0
3, 119520, Note_on_c, 1, 57, 80
3, 119999, Note_on_c, 1, 57, 0
3, 120000, Note_on_c, 1, 55, 80
3, 120159, Note_on_c, 1, 55, 0
3, 120320, Note_on_c, 1, 55, 80
3, 120479, Note_on_c, 1, 55, 0
3, 120480, Note_on_c, 1, 55, 80
3, 120959, Note_on_c, 1, 55, 0
3, 120960, Note_on_c, 1, 50, 80
3, 121439, Note_on_c, 1, 50, 0
3, 121440, Note_on_c, 1, 57, 80
3, 121919, Note_on_c, 1, 57, 0
3, 121920, Note_on_c, 1, 55, 80
3, 122079, Note_on_c, 1, 55, 0
3, 122240, Note_on_c, 1, 55, 80
3, 122399, Note_on_c, 1, 55, 0
3, 122400, Note_on_c, 1, 55, 80
3, 122879, Note_on_c, 1, 55, 0
3, 122880, Note_on_c, 1, 62, 80
3, 123359, Note_on_c, 1, 62, 0
3, 123360, Note_on_c, 1, 57, 80
3, 123839, Note_on_c, 1, 57, 0
3, 123840, Note_on_c, 1, 55, 80
3, 123999, Note_on_c, 1, 55, 0
3, 124160, Note_on_c, 1, 67, 80
3, 124319, Note_on_c, 1, 67, 0
3, 124320, Note_on_c, 1, 55, 80
3, 124799, Note_on_c, 1, 55, 0
3, 124800, Note_on_c, 1, 48, 80
3, 125119, Note_on_c, 1, 48, 0
3, 125120, Note_on_c, 1, 57, 80
3, 125199, Note_on_c, 1, 57, 0
3, 125280, Note_on_c, 1, 55, 80
3, 125599, Note_on_c, 1, 55, 0
3, 125600, Note_on_c, 1, 48, 80
3, 126239, Note_on_c, 1, 48, 0
3, 126240, End_track
4, 0, Start_track
4, 0, Title_t, "Bell, Bell\000"
4, 0, Key_signature, 0, "major"
4, 0, Control_c, 2, 121, 0
4, 0, Program_c, 2, 14
4, 0, Control_c, 2, 7, 100
4, 0, Control_c, 2, 10, 64
4, 0, Control_c, 2, 91, 0
4, 0, Control_c, 2, 93, 0
4, 0, MIDI_port, 0
4, 2720, Note_on_c, 2, 72, 80
4, 2720, Control_c, 2, 2, 80
4, 2879, Note_on_c, 2, 72, 0
4, 2880, Note_on_c, 2, 67, 80
4, 3016, Note_on_c, 2, 67, 0
4, 3017, Note_on_c, 2, 69, 80
4, 3153, Note_on_c, 2, 69, 0
4, 3154, Note_on_c, 2, 67, 80
4, 3187, Note_on_c, 2, 67, 0
4, 3223, Note_on_c, 2, 64, 80
4, 3291, Note_on_c, 2, 64, 0
4, 3360, Note_on_c, 2, 62, 80
4, 3702, Note_on_c, 2, 62, 0
4, 3703, Note_on_c, 2, 60, 80
4, 5759, Note_on_c, 2, 60, 0
4, 6560, Note_on_c, 2, 62, 80
4, 6639, Note_on_c, 2, 62, 0
4, 6720, Note_on_c, 2, 64, 80
4, 7039, Note_on_c, 2, 64, 0
4, 7040, Note_on_c, 2, 67, 80
4, 7119, Note_on_c, 2, 67, 0
4, 7200, Note_on_c, 2, 69, 80
4, 7519, Note_on_c, 2, 69, 0
4, 7520, Note_on_c, 2, 72, 80
4, 7919, Note_on_c, 2, 72, 0
4, 38720, Note_on_c, 2, 65, 80
4, 38879, Note_on_c, 2, 65, 0
4, 38880, Note_on_c, 2, 69, 80
4, 39199, Note_on_c, 2, 69, 0
4, 39200, Note_on_c, 2, 72, 80
4, 39839, Note_on_c, 2, 72, 0
4, 39840, Note_on_c, 2, 69, 80
4, 40079, Note_on_c, 2, 69, 0
4, 40640, Note_on_c, 2, 64, 80
4, 40799, Note_on_c, 2, 64, 0
4, 40800, Note_on_c, 2, 69, 80
4, 41119, Note_on_c, 2, 69, 0
4, 41120, Note_on_c, 2, 72, 80
4, 41759, Note_on_c, 2, 72, 0
4, 41760, Note_on_c, 2, 69, 80
4, 41999, Note_on_c, 2, 69, 0
4, 42560, Note_on_c, 2, 67, 80
4, 42719, Note_on_c, 2, 67, 0
4, 42720, Note_on_c, 2, 72, 80
4, 43039, Note_on_c, 2, 72, 0
4, 43040, Note_on_c, 2, 76, 80
4, 43679, Note_on_c, 2, 76, 0
4, 43680, Note_on_c, 2, 72, 80
4, 43919, Note_on_c, 2, 72, 0
4, 44460, Note_on_c, 2, 60, 80
4, 44549, Note_on_c, 2, 60, 0
4, 44640, Note_on_c, 2, 64, 80
4, 44959, Note_on_c, 2, 64, 0
4, 44960, Note_on_c, 2, 67, 80
4, 45599, Note_on_c, 2, 67, 0
4, 45600, Note_on_c, 2, 64, 80
4, 45839, Note_on_c, 2, 64, 0
4, 46080, Note_on_c, 2, 69, 80
4, 47039, Note_on_c, 2, 69, 0
4, 47040, Note_on_c, 2, 67, 80
4, 47999, Note_on_c, 2, 67, 0
4, 48000, Note_on_c, 2, 62, 80
4, 48959, Note_on_c, 2, 62, 0
4, 48960, Note_on_c, 2, 64, 80
4, 49919, Note_on_c, 2, 64, 0
4, 49920, Note_on_c, 2, 65, 80
4, 51839, Note_on_c, 2, 65, 0
4, 51840, Note_on_c, 2, 64, 80
4, 52799, Note_on_c, 2, 64, 0
4, 52800, Note_on_c, 2, 62, 80
4, 53759, Note_on_c, 2, 62, 0
4, 56480, Note_on_c, 2, 72, 80
4, 56639, Note_on_c, 2, 72, 0
4, 56640, Note_on_c, 2, 67, 80
4, 56776, Note_on_c, 2, 67, 0
4, 56777, Note_on_c, 2, 69, 80
4, 56913, Note_on_c, 2, 69, 0
4, 56914, Note_on_c, 2, 67, 80
4, 56947, Note_on_c, 2, 67, 0
4, 56983, Note_on_c, 2, 64, 80
4, 57051, Note_on_c, 2, 64, 0
4, 57120, Note_on_c, 2, 62, 80
4, 57462, Note_on_c, 2, 62, 0
4, 57463, Note_on_c, 2, 60, 80
4, 59519, Note_on_c, 2, 60, 0
4, 60320, Note_on_c, 2, 62, 80
4, 60399, Note_on_c, 2, 62, 0
4, 60480, Note_on_c, 2, 64, 80
4, 60799, Note_on_c, 2, 64, 0
4, 60800, Note_on_c, 2, 67, 80
4, 60879, Note_on_c, 2, 67, 0
4, 60960, Note_on_c, 2, 69, 80
4, 61279, Note_on_c, 2, 69, 0
4, 61280, Note_on_c, 2, 72, 80
4, 61439, Note_on_c, 2, 72, 0
4, 61440, Note_on_c, 2, 72, 80
4, 61759, Note_on_c, 2, 72, 0
4, 61760, Note_on_c, 2, 72, 80
4, 61839, Note_on_c, 2, 72, 0
4, 61920, Note_on_c, 2, 72, 80
4, 62399, Note_on_c, 2, 72, 0
4, 62400, Note_on_c, 2, 71, 80
4, 62719, Note_on_c, 2, 71, 0
4, 62720, Note_on_c, 2, 71, 80
4, 62799, Note_on_c, 2, 71, 0
4, 62880, Note_on_c, 2, 71, 80
4, 63359, Note_on_c, 2, 71, 0
4, 63360, Note_on_c, 2, 69, 80
4, 63599, Note_on_c, 2, 69, 0
4, 63660, Note_on_c, 2, 71, 80
4, 63839, Note_on_c, 2, 71, 0
4, 63840, Note_on_c, 2, 69, 80
4, 64159, Note_on_c, 2, 69, 0
4, 64160, Note_on_c, 2, 64, 80
4, 65279, Note_on_c, 2, 64, 0
4, 65280, Note_on_c, 2, 69, 80
4, 65519, Note_on_c, 2, 69, 0
4, 65580, Note_on_c, 2, 71, 80
4, 65759, Note_on_c, 2, 71, 0
4, 65760, Note_on_c, 2, 69, 80
4, 66239, Note_on_c, 2, 69, 0
4, 66240, Note_on_c, 2, 64, 80
4, 66719, Note_on_c, 2, 64, 0
4, 66720, Note_on_c, 2, 67, 80
4, 67199, Note_on_c, 2, 67, 0
4, 67200, Note_on_c, 2, 69, 80
4, 67439, Note_on_c, 2, 69, 0
4, 67500, Note_on_c, 2, 71, 80
4, 67679, Note_on_c, 2, 71, 0
4, 67680, Note_on_c, 2, 69, 80
4, 68159, Note_on_c, 2, 69, 0
4, 68160, Note_on_c, 2, 65, 80
4, 68639, Note_on_c, 2, 65, 0
4, 69120, Note_on_c, 2, 62, 80
4, 69439, Note_on_c, 2, 62, 0
4, 69440, Note_on_c, 2, 64, 80
4, 69599, Note_on_c, 2, 64, 0
4, 69900, Note_on_c, 2, 65, 80
4, 70079, Note_on_c, 2, 65, 0
4, 70080, Note_on_c, 2, 67, 80
4, 70399, Note_on_c, 2, 67, 0
4, 70400, Note_on_c, 2, 69, 80
4, 70799, Note_on_c, 2, 69, 0
4, 70800, Note_on_c, 2, 67, 80
4, 71039, Note_on_c, 2, 67, 0
4, 71040, Note_on_c, 2, 62, 80
4, 71359, Note_on_c, 2, 62, 0
4, 71360, Note_on_c, 2, 64, 80
4, 71439, Note_on_c, 2, 64, 0
4, 71520, Note_on_c, 2, 65, 80
4, 71999, Note_on_c, 2, 65, 0
4, 72000, Note_on_c, 2, 67, 80
4, 72959, Note_on_c, 2, 67, 0
4, 73440, Note_on_c, 2, 69, 80
4, 73759, Note_on_c, 2, 69, 0
4, 73760, Note_on_c, 2, 67, 80
4, 73919, Note_on_c, 2, 67, 0
4, 73920, Note_on_c, 2, 69, 80
4, 74239, Note_on_c, 2, 69, 0
4, 74240, Note_on_c, 2, 67, 80
4, 74319, Note_on_c, 2, 67, 0
4, 74400, Note_on_c, 2, 69, 80
4, 74879, Note_on_c, 2, 69, 0
4, 74880, Note_on_c, 2, 69, 80
4, 75199, Note_on_c, 2, 69, 0
4, 75200, Note_on_c, 2, 67, 80
4, 75359, Note_on_c, 2, 67, 0
4, 75720, Note_on_c, 2, 64, 80
4, 76559, Note_on_c, 2, 64, 0
4, 76800, Note_on_c, 2, 72, 80
4, 77119, Note_on_c, 2, 72, 0
4, 77120, Note_on_c, 2, 72, 80
4, 77199, Note_on_c, 2, 72, 0
4, 77280, Note_on_c, 2, 72, 80
4, 77759, Note_on_c, 2, 72, 0
4, 77760, Note_on_c, 2, 71, 80
4, 78079, Note_on_c, 2, 71, 0
4, 78080, Note_on_c, 2, 71, 80
4, 78159, Note_on_c, 2, 71, 0
4, 78240, Note_on_c, 2, 71, 80
4, 78719, Note_on_c, 2, 71, 0
4, 78720, Note_on_c, 2, 69, 80
4, 78959, Note_on_c, 2, 69, 0
4, 79020, Note_on_c, 2, 71, 80
4, 79199, Note_on_c, 2, 71, 0
4, 79200, Note_on_c, 2, 69, 80
4, 79519, Note_on_c, 2, 69, 0
4, 79520, Note_on_c, 2, 64, 80
4, 80639, Note_on_c, 2, 64, 0
4, 80640, Note_on_c, 2, 69, 80
4, 80879, Note_on_c, 2, 69, 0
4, 80940, Note_on_c, 2, 71, 80
4, 81119, Note_on_c, 2, 71, 0
4, 81120, Note_on_c, 2, 69, 80
4, 81599, Note_on_c, 2, 69, 0
4, 81600, Note_on_c, 2, 64, 80
4, 82079, Note_on_c, 2, 64, 0
4, 82080, Note_on_c, 2, 67, 80
4, 82559, Note_on_c, 2, 67, 0
4, 82560, Note_on_c, 2, 69, 80
4, 82799, Note_on_c, 2, 69, 0
4, 82860, Note_on_c, 2, 71, 80
4, 83039, Note_on_c, 2, 71, 0
4, 83040, Note_on_c, 2, 69, 80
4, 83519, Note_on_c, 2, 69, 0
4, 83520, Note_on_c, 2, 65, 80
4, 83999, Note_on_c, 2, 65, 0
4, 84480, Note_on_c, 2, 62, 80
4, 84799, Note_on_c, 2, 62, 0
4, 84800, Note_on_c, 2, 64, 80
4, 84959, Note_on_c, 2, 64, 0
4, 85260, Note_on_c, 2, 65, 80
4, 85439, Note_on_c, 2, 65, 0
4, 85440, Note_on_c, 2, 67, 80
4, 85759, Note_on_c, 2, 67, 0
4, 85760, Note_on_c, 2, 69, 80
4, 86159, Note_on_c, 2, 69, 0
4, 86160, Note_on_c, 2, 67, 80
4, 86399, Note_on_c, 2, 67, 0
4, 86400, Note_on_c, 2, 62, 80
4, 86719, Note_on_c, 2, 62, 0
4, 86720, Note_on_c, 2, 64, 80
4, 86799, Note_on_c, 2, 64, 0
4, 86880, Note_on_c, 2, 65, 80
4, 87359, Note_on_c, 2, 65, 0
4, 87360, Note_on_c, 2, 67, 80
4, 88319, Note_on_c, 2, 67, 0
4, 88800, Note_on_c, 2, 69, 80
4, 89039, Note_on_c, 2, 69, 0
4, 89100, Note_on_c, 2, 69, 80
4, 89279, Note_on_c, 2, 69, 0
4, 89280, Note_on_c, 2, 71, 80
4, 89599, Note_on_c, 2, 71, 0
4, 89600, Note_on_c, 2, 67, 80
4, 89999, Note_on_c, 2, 67, 0
4, 90000, Note_on_c, 2, 72, 80
4, 91679, Note_on_c, 2, 72, 0
4, 91680, Note_on_c, 2, 72, 80
4, 91919, Note_on_c, 2, 72, 0
4, 91980, Note_on_c, 2, 72, 80
4, 92069, Note_on_c, 2, 72, 0
4, 92480, Note_on_c, 2, 65, 80
4, 92639, Note_on_c, 2, 65, 0
4, 92640, Note_on_c, 2, 69, 80
4, 92959, Note_on_c, 2, 69, 0
4, 92960, Note_on_c, 2, 72, 80
4, 93599, Note_on_c, 2, 72, 0
4, 93600, Note_on_c, 2, 69, 80
4, 93839, Note_on_c, 2, 69, 0
4, 94400, Note_on_c, 2, 64, 80
4, 94559, Note_on_c, 2, 64, 0
4, 94560, Note_on_c, 2, 69, 80
4, 94879, Note_on_c, 2, 69, 0
4, 94880, Note_on_c, 2, 72, 80
4, 95519, Note_on_c, 2, 72, 0
4, 95520, Note_on_c, 2, 69, 80
4, 95759, Note_on_c, 2, 69, 0
4, 96320, Note_on_c, 2, 67, 80
4, 96479, Note_on_c, 2, 67, 0
4, 96480, Note_on_c, 2, 72, 80
4, 96799, Note_on_c, 2, 72, 0
4, 96800, Note_on_c, 2, 76, 80
4, 97439, Note_on_c, 2, 76, 0
4, 97440, Note_on_c, 2, 72, 80
4, 97679, Note_on_c, 2, 72, 0
4, 98220, Note_on_c, 2, 72, 80
4, 98309, Note_on_c, 2, 72, 0
4, 98400, Note_on_c, 2, 76, 80
4, 98719, Note_on_c, 2, 76, 0
4, 98720, Note_on_c, 2, 79, 80
4, 99359, Note_on_c, 2, 79, 0
4, 99360, Note_on_c, 2, 76, 80
4, 99599, Note_on_c, 2, 76, 0
4, 99840, Note_on_c, 2, 81, 80
4, 100799, Note_on_c, 2, 81, 0
4, 100800, Note_on_c, 2, 79, 80
4, 101759, Note_on_c, 2, 79, 0
4, 101760, Note_on_c, 2, 74, 80
4, 102719, Note_on_c, 2, 74, 0
4, 102720, Note_on_c, 2, 76, 80
4, 103679, Note_on_c, 2, 76, 0
4, 103680, Note_on_c, 2, 77, 80
4, 105599, Note_on_c, 2, 77, 0
4, 105600, Note_on_c, 2, 76, 80
4, 106559, Note_on_c, 2, 76, 0
4, 106560, Note_on_c, 2, 74, 80
4, 107519, Note_on_c, 2, 74, 0
4, 107520, Note_on_c, 2, 72, 80
4, 107759, Note_on_c, 2, 72, 0
4, 107760, End_track
5, 0, Start_track
5, 0, Title_t, "Classical Guitar, Lute\000"
5, 0, Key_signature, 0, "major"
5, 0, Control_c, 3, 121, 0
5, 0, Program_c, 3, 24
5, 0, Control_c, 3, 7, 100
5, 0, Control_c, 3, 10, 64
5, 0, Control_c, 3, 91, 0
5, 0, Control_c, 3, 93, 0
5, 0, MIDI_port, 0
5, 0, Control_c, 5, 121, 0
5, 0, Program_c, 5, 28
5, 0, Control_c, 5, 7, 100
5, 0, Control_c, 5, 10, 64
5, 0, Control_c, 5, 91, 0
5, 0, Control_c, 5, 93, 0
5, 0, MIDI_port, 0
5, 7680, Note_on_c, 3, 55, 80
5, 7680, Note_on_c, 3, 60, 80
5, 7680, Note_on_c, 3, 64, 80
5, 8159, Note_on_c, 3, 55, 0
5, 8159, Note_on_c, 3, 60, 0
5, 8159, Note_on_c, 3, 64, 0
5, 8160, Note_on_c, 3, 60, 80
5, 8160, Note_on_c, 3, 64, 80
5, 8639, Note_on_c, 3, 60, 0
5, 8639, Note_on_c, 3, 64, 0
5, 8640, Note_on_c, 3, 55, 80
5, 8640, Note_on_c, 3, 59, 80
5, 8640, Note_on_c, 3, 64, 80
5, 9119, Note_on_c, 3, 55, 0
5, 9119, Note_on_c, 3, 59, 0
5, 9119, Note_on_c, 3, 64, 0
5, 9120, Note_on_c, 3, 59, 80
5, 9120, Note_on_c, 3, 64, 80
5, 9359, Note_on_c, 3, 59, 0
5, 9359, Note_on_c, 3, 64, 0
5, 9600, Note_on_c, 3, 55, 80
5, 9600, Note_on_c, 3, 57, 80
5, 9600, Note_on_c, 3, 64, 80
5, 10079, Note_on_c, 3, 55, 0
5, 10079, Note_on_c, 3, 57, 0
5, 10079, Note_on_c, 3, 64, 0
5, 10080, Note_on_c, 3, 57, 80
5, 10080, Note_on_c, 3, 64, 80
5, 10319, Note_on_c, 3, 57, 0
5, 10319, Note_on_c, 3, 64, 0
5, 10560, Note_on_c, 3, 55, 80
5, 10560, Note_on_c, 3, 59, 80
5, 10560, Note_on_c, 3, 64, 80
5, 10799, Note_on_c, 3, 55, 0
5, 10799, Note_on_c, 3, 59, 0
5, 10799, Note_on_c, 3, 64, 0
5, 11040, Note_on_c, 3, 59, 80
5, 11040, Note_on_c, 3, 64, 80
5, 11519, Note_on_c, 3, 59, 0
5, 11519, Note_on_c, 3, 64, 0
5, 11520, Note_on_c, 3, 55, 80
5, 11520, Note_on_c, 3, 60, 80
5, 11520, Note_on_c, 3, 64, 80
5, 11999, Note_on_c, 3, 55, 0
5, 11999, Note_on_c, 3, 60, 0
5, 11999, Note_on_c, 3, 64, 0
5, 12000, Note_on_c, 3, 60, 80
5, 12000, Note_on_c, 3, 64, 80
5, 12479, Note_on_c, 3, 60, 0
5, 12479, Note_on_c, 3, 64, 0
5, 12480, Note_on_c, 3, 55, 80
5, 12480, Note_on_c, 3, 60, 80
5, 12480, Note_on_c, 3, 64, 80
5, 12959, Note_on_c, 3, 55, 0
5, 12959, Note_on_c, 3, 60, 0
5, 12959, Note_on_c, 3, 64, 0
5, 12960, Note_on_c, 3, 60, 80
5, 12960, Note_on_c, 3, 64, 80
5, 13199, Note_on_c, 3, 60, 0
5, 13199, Note_on_c, 3, 64, 0
5, 13440, Note_on_c, 3, 57, 80
5, 13440, Note_on_c, 3, 60, 80
5, 13440, Note_on_c, 3, 65, 80
5, 13679, Note_on_c, 3, 57, 0
5, 13679, Note_on_c, 3, 60, 0
5, 13679, Note_on_c, 3, 65, 0
5, 13920, Note_on_c, 3, 60, 80
5, 13920, Note_on_c, 3, 65, 80
5, 14399, Note_on_c, 3, 60, 0
5, 14399, Note_on_c, 3, 65, 0
5, 14400, Note_on_c, 3, 59, 80
5, 14400, Note_on_c, 3, 62, 80
5, 14400, Note_on_c, 3, 65, 80
5, 14879, Note_on_c, 3, 59, 0
5, 14879, Note_on_c, 3, 62, 0
5, 14879, Note_on_c, 3, 65, 0
5, 14880, Note_on_c, 3, 59, 80
5, 14880, Note_on_c, 3, 62, 80
5, 14880, Note_on_c, 3, 65, 80
5, 15359, Note_on_c, 3, 59, 0
5, 15359, Note_on_c, 3, 62, 0
5, 15359, Note_on_c, 3, 65, 0
5, 15360, Note_on_c, 3, 57, 80
5, 15360, Note_on_c, 3, 60, 80
5, 15360, Note_on_c, 3, 65, 80
5, 15839, Note_on_c, 3, 57, 0
5, 15839, Note_on_c, 3, 60, 0
5, 15839, Note_on_c, 3, 65, 0
5, 15840, Note_on_c, 3, 60, 80
5, 15840, Note_on_c, 3, 65, 80
5, 16079, Note_on_c, 3, 60, 0
5, 16079, Note_on_c, 3, 65, 0
5, 16320, Note_on_c, 3, 59, 80
5, 16320, Note_on_c, 3, 62, 80
5, 16320, Note_on_c, 3, 67, 80
5, 16799, Note_on_c, 3, 59, 0
5, 16799, Note_on_c, 3, 62, 0
5, 16799, Note_on_c, 3, 67, 0
5, 16800, Note_on_c, 3, 62, 80
5, 16800, Note_on_c, 3, 67, 80
5, 17039, Note_on_c, 3, 62, 0
5, 17039, Note_on_c, 3, 67, 0
5, 17280, Note_on_c, 3, 57, 80
5, 17280, Note_on_c, 3, 60, 80
5, 17280, Note_on_c, 3, 65, 80
5, 17519, Note_on_c, 3, 57, 0
5, 17519, Note_on_c, 3, 60, 0
5, 17519, Note_on_c, 3, 65, 0
5, 17760, Note_on_c, 3, 60, 80
5, 17760, Note_on_c, 3, 65, 80
5, 18239, Note_on_c, 3, 60, 0
5, 18239, Note_on_c, 3, 65, 0
5, 18240, Note_on_c, 3, 53, 80
5, 18240, Note_on_c, 3, 59, 80
5, 18240, Note_on_c, 3, 67, 80
5, 18479, Note_on_c, 3, 53, 0
5, 18479, Note_on_c, 3, 59, 0
5, 18479, Note_on_c, 3, 67, 0
5, 18720, Note_on_c, 3, 59, 80
5, 18720, Note_on_c, 3, 67, 80
5, 18959, Note_on_c, 3, 59, 0
5, 18959, Note_on_c, 3, 67, 0
5, 19200, Note_on_c, 3, 57, 80
5, 19200, Note_on_c, 3, 60, 80
5, 19200, Note_on_c, 3, 65, 80
5, 19439, Note_on_c, 3, 57, 0
5, 19439, Note_on_c, 3, 60, 0
5, 19439, Note_on_c, 3, 65, 0
5, 19680, Note_on_c, 3, 60, 80
5, 19680, Note_on_c, 3, 65, 80
5, 20159, Note_on_c, 3, 60, 0
5, 20159, Note_on_c, 3, 65, 0
5, 20160, Note_on_c, 3, 57, 80
5, 20160, Note_on_c, 3, 60, 80
5, 20160, Note_on_c, 3, 65, 80
5, 20399, Note_on_c, 3, 57, 0
5, 20399, Note_on_c, 3, 60, 0
5, 20399, Note_on_c, 3, 65, 0
5, 20640, Note_on_c, 3, 60, 80
5, 20640, Note_on_c, 3, 65, 80
5, 20879, Note_on_c, 3, 60, 0
5, 20879, Note_on_c, 3, 65, 0
5, 21120, Note_on_c, 3, 53, 80
5, 21120, Note_on_c, 3, 57, 80
5, 21120, Note_on_c, 3, 59, 80
5, 21359, Note_on_c, 3, 53, 0
5, 21359, Note_on_c, 3, 57, 0
5, 21359, Note_on_c, 3, 59, 0
5, 21600, Note_on_c, 3, 53, 80
5, 21600, Note_on_c, 3, 59, 80
5, 22079, Note_on_c, 3, 53, 0
5, 22079, Note_on_c, 3, 59, 0
5, 22080, Note_on_c, 3, 53, 80
5, 22080, Note_on_c, 3, 59, 80
5, 22559, Note_on_c, 3, 53, 0
5, 22559, Note_on_c, 3, 59, 0
5, 22560, Note_on_c, 3, 53, 80
5, 22560, Note_on_c, 3, 59, 80
5, 23039, Note_on_c, 3, 53, 0
5, 23039, Note_on_c, 3, 59, 0
5, 23040, Note_on_c, 3, 55, 80
5, 23040, Note_on_c, 3, 60, 80
5, 23040, Note_on_c, 3, 64, 80
5, 23519, Note_on_c, 3, 55, 0
5, 23519, Note_on_c, 3, 60, 0
5, 23519, Note_on_c, 3, 64, 0
5, 23520, Note_on_c, 3, 60, 80
5, 23520, Note_on_c, 3, 64, 80
5, 23999, Note_on_c, 3, 60, 0
5, 23999, Note_on_c, 3, 64, 0
5, 24000, Note_on_c, 3, 55, 80
5, 24000, Note_on_c, 3, 59, 80
5, 24000, Note_on_c, 3, 64, 80
5, 24479, Note_on_c, 3, 55, 0
5, 24479, Note_on_c, 3, 59, 0
5, 24479, Note_on_c, 3, 64, 0
5, 24480, Note_on_c, 3, 59, 80
5, 24480, Note_on_c, 3, 64, 80
5, 24719, Note_on_c, 3, 59, 0
5, 24719, Note_on_c, 3, 64, 0
5, 24960, Note_on_c, 3, 55, 80
5, 24960, Note_on_c, 3, 57, 80
5, 24960, Note_on_c, 3, 64, 80
5, 25439, Note_on_c, 3, 55, 0
5, 25439, Note_on_c, 3, 57, 0
5, 25439, Note_on_c, 3, 64, 0
5, 25440, Note_on_c, 3, 57, 80
5, 25440, Note_on_c, 3, 64, 80
5, 25679, Note_on_c, 3, 57, 0
5, 25679, Note_on_c, 3, 64, 0
5, 25920, Note_on_c, 3, 55, 80
5, 25920, Note_on_c, 3, 59, 80
5, 25920, Note_on_c, 3, 64, 80
5, 26159, Note_on_c, 3, 55, 0
5, 26159, Note_on_c, 3, 59, 0
5, 26159, Note_on_c, 3, 64, 0
5, 26400, Note_on_c, 3, 59, 80
5, 26400, Note_on_c, 3, 64, 80
5, 26879, Note_on_c, 3, 59, 0
5, 26879, Note_on_c, 3, 64, 0
5, 26880, Note_on_c, 3, 55, 80
5, 26880, Note_on_c, 3, 60, 80
5, 26880, Note_on_c, 3, 64, 80
5, 27359, Note_on_c, 3, 55, 0
5, 27359, Note_on_c, 3, 60, 0
5, 27359, Note_on_c, 3, 64, 0
5, 27360, Note_on_c, 3, 60, 80
5, 27360, Note_on_c, 3, 64, 80
5, 27839, Note_on_c, 3, 60, 0
5, 27839, Note_on_c, 3, 64, 0
5, 27840, Note_on_c, 3, 55, 80
5, 27840, Note_on_c, 3, 59, 80
5, 27840, Note_on_c, 3, 64, 80
5, 28079, Note_on_c, 3, 55, 0
5, 28079, Note_on_c, 3, 59, 0
5, 28079, Note_on_c, 3, 64, 0
5, 28320, Note_on_c, 3, 59, 80
5, 28320, Note_on_c, 3, 64, 80
5, 28799, Note_on_c, 3, 59, 0
5, 28799, Note_on_c, 3, 64, 0
5, 28800, Note_on_c, 3, 57, 80
5, 28800, Note_on_c, 3, 60, 80
5, 28800, Note_on_c, 3, 65, 80
5, 29039, Note_on_c, 3, 57, 0
5, 29039, Note_on_c, 3, 60, 0
5, 29039, Note_on_c, 3, 65, 0
5, 29280, Note_on_c, 3, 60, 80
5, 29280, Note_on_c, 3, 65, 80
5, 29759, Note_on_c, 3, 60, 0
5, 29759, Note_on_c, 3, 65, 0
5, 29760, Note_on_c, 3, 59, 80
5, 29760, Note_on_c, 3, 62, 80
5, 29760, Note_on_c, 3, 65, 80
5, 30239, Note_on_c, 3, 59, 0
5, 30239, Note_on_c, 3, 62, 0
5, 30239, Note_on_c, 3, 65, 0
5, 30240, Note_on_c, 3, 62, 80
5, 30240, Note_on_c, 3, 65, 80
5, 30719, Note_on_c, 3, 62, 0
5, 30719, Note_on_c, 3, 65, 0
5, 30720, Note_on_c, 3, 57, 80
5, 30720, Note_on_c, 3, 60, 80
5, 30720, Note_on_c, 3, 65, 80
5, 31199, Note_on_c, 3, 57, 0
5, 31199, Note_on_c, 3, 60, 0
5, 31199, Note_on_c, 3, 65, 0
5, 31200, Note_on_c, 3, 60, 80
5, 31200, Note_on_c, 3, 65, 80
5, 31439, Note_on_c, 3, 60, 0
5, 31439, Note_on_c, 3, 65, 0
5, 31680, Note_on_c, 3, 59, 80
5, 31680, Note_on_c, 3, 62, 80
5, 31680, Note_on_c, 3, 65, 80
5, 32159, Note_on_c, 3, 59, 0
5, 32159, Note_on_c, 3, 62, 0
5, 32159, Note_on_c, 3, 65, 0
5, 32160, Note_on_c, 3, 62, 80
5, 32160, Note_on_c, 3, 65, 80
5, 32639, Note_on_c, 3, 62, 0
5, 32639, Note_on_c, 3, 65, 0
5, 32640, Note_on_c, 3, 57, 80
5, 32640, Note_on_c, 3, 60, 80
5, 32640, Note_on_c, 3, 65, 80
5, 32879, Note_on_c, 3, 57, 0
5, 32879, Note_on_c, 3, 60, 0
5, 32879, Note_on_c, 3, 65, 0
5, 33120, Note_on_c, 3, 60, 80
5, 33120, Note_on_c, 3, 65, 80
5, 33599, Note_on_c, 3, 60, 0
5, 33599, Note_on_c, 3, 65, 0
5, 33600, Note_on_c, 3, 59, 80
5, 33600, Note_on_c, 3, 62, 80
5, 33600, Note_on_c, 3, 65, 80
5, 34079, Note_on_c, 3, 59, 0
5, 34079, Note_on_c, 3, 62, 0
5, 34079, Note_on_c, 3, 65, 0
5, 34080, Note_on_c, 3, 62, 80
5, 34080, Note_on_c, 3, 65, 80
5, 34559, Note_on_c, 3, 62, 0
5, 34559, Note_on_c, 3, 65, 0
5, 34560, Note_on_c, 3, 57, 80
5, 34560, Note_on_c, 3, 60, 80
5, 34560, Note_on_c, 3, 65, 80
5, 34799, Note_on_c, 3, 57, 0
5, 34799, Note_on_c, 3, 60, 0
5, 34799, Note_on_c, 3, 65, 0
5, 35040, Note_on_c, 3, 60, 80
5, 35040, Note_on_c, 3, 65, 80
5, 35519, Note_on_c, 3, 60, 0
5, 35519, Note_on_c, 3, 65, 0
5, 35520, Note_on_c, 3, 59, 80
5, 35520, Note_on_c, 3, 62, 80
5, 35520, Note_on_c, 3, 65, 80
5, 35759, Note_on_c, 3, 59, 0
5, 35759, Note_on_c, 3, 62, 0
5, 35759, Note_on_c, 3, 65, 0
5, 36000, Note_on_c, 3, 62, 80
5, 36000, Note_on_c, 3, 65, 80
5, 36239, Note_on_c, 3, 62, 0
5, 36239, Note_on_c, 3, 65, 0
5, 36480, Note_on_c, 3, 55, 80
5, 36480, Note_on_c, 3, 60, 80
5, 36480, Note_on_c, 3, 64, 80
5, 36959, Note_on_c, 3, 55, 0
5, 36959, Note_on_c, 3, 60, 0
5, 36959, Note_on_c, 3, 64, 0
5, 36960, Note_on_c, 3, 57, 80
5, 36960, Note_on_c, 3, 60, 80
5, 36960, Note_on_c, 3, 65, 80
5, 37439, Note_on_c, 3, 57, 0
5, 37439, Note_on_c, 3, 60, 0
5, 37439, Note_on_c, 3, 65, 0
5, 37440, Note_on_c, 3, 55, 80
5, 37440, Note_on_c, 3, 64, 80
5, 37440, Note_on_c, 3, 60, 80
5, 37919, Note_on_c, 3, 60, 0
5, 38399, Note_on_c, 3, 55, 0
5, 38399, Note_on_c, 3, 64, 0
5, 61440, Note_on_c, 3, 55, 80
5, 61440, Note_on_c, 3, 60, 80
5, 61440, Note_on_c, 3, 64, 80
5, 61919, Note_on_c, 3, 55, 0
5, 61919, Note_on_c, 3, 60, 0
5, 61919, Note_on_c, 3, 64, 0
5, 61920, Note_on_c, 3, 60, 80
5, 61920, Note_on_c, 3, 64, 80
5, 62399, Note_on_c, 3, 60, 0
5, 62399, Note_on_c, 3, 64, 0
5, 62400, Note_on_c, 3, 59, 80
5, 62400, Note_on_c, 3, 64, 80
5, 62879, Note_on_c, 3, 59, 0
5, 62879, Note_on_c, 3, 64, 0
5, 62880, Note_on_c, 3, 59, 80
5, 62880, Note_on_c, 3, 64, 80
5, 63359, Note_on_c, 3, 59, 0
5, 63359, Note_on_c, 3, 64, 0
5, 63360, Note_on_c, 3, 55, 80
5, 63360, Note_on_c, 3, 57, 80
5, 63360, Note_on_c, 3, 64, 80
5, 63839, Note_on_c, 3, 55, 0
5, 63839, Note_on_c, 3, 57, 0
5, 63839, Note_on_c, 3, 64, 0
5, 63840, Note_on_c, 3, 57, 80
5, 63840, Note_on_c, 3, 64, 80
5, 64079, Note_on_c, 3, 57, 0
5, 64079, Note_on_c, 3, 64, 0
5, 64320, Note_on_c, 3, 59, 80
5, 64320, Note_on_c, 3, 64, 80
5, 64559, Note_on_c, 3, 59, 0
5, 64559, Note_on_c, 3, 64, 0
5, 64800, Note_on_c, 3, 59, 80
5, 64800, Note_on_c, 3, 64, 80
5, 65279, Note_on_c, 3, 59, 0
5, 65279, Note_on_c, 3, 64, 0
5, 65280, Note_on_c, 3, 55, 80
5, 65280, Note_on_c, 3, 60, 80
5, 65280, Note_on_c, 3, 64, 80
5, 65759, Note_on_c, 3, 55, 0
5, 65759, Note_on_c, 3, 60, 0
5, 65759, Note_on_c, 3, 64, 0
5, 65760, Note_on_c, 3, 60, 80
5, 65760, Note_on_c, 3, 64, 80
5, 66239, Note_on_c, 3, 60, 0
5, 66239, Note_on_c, 3, 64, 0
5, 66240, Note_on_c, 3, 60, 80
5, 66240, Note_on_c, 3, 64, 80
5, 66719, Note_on_c, 3, 60, 0
5, 66719, Note_on_c, 3, 64, 0
5, 66720, Note_on_c, 3, 60, 80
5, 66720, Note_on_c, 3, 64, 80
5, 66959, Note_on_c, 3, 60, 0
5, 66959, Note_on_c, 3, 64, 0
5, 67200, Note_on_c, 3, 57, 80
5, 67200, Note_on_c, 3, 60, 80
5, 67200, Note_on_c, 3, 65, 80
5, 67439, Note_on_c, 3, 57, 0
5, 67439, Note_on_c, 3, 60, 0
5, 67439, Note_on_c, 3, 65, 0
5, 67680, Note_on_c, 3, 60, 80
5, 67680, Note_on_c, 3, 65, 80
5, 68159, Note_on_c, 3, 60, 0
5, 68159, Note_on_c, 3, 65, 0
5, 68160, Note_on_c, 3, 62, 80
5, 68160, Note_on_c, 3, 65, 80
5, 68639, Note_on_c, 3, 62, 0
5, 68639, Note_on_c, 3, 65, 0
5, 68640, Note_on_c, 3, 62, 80
5, 68640, Note_on_c, 3, 65, 80
5, 69119, Note_on_c, 3, 62, 0
5, 69119, Note_on_c, 3, 65, 0
5, 69120, Note_on_c, 3, 57, 80
5, 69120, Note_on_c, 3, 60, 80
5, 69120, Note_on_c, 3, 65, 80
5, 69599, Note_on_c, 3, 57, 0
5, 69599, Note_on_c, 3, 60, 0
5, 69599, Note_on_c, 3, 65, 0
5, 69600, Note_on_c, 3, 60, 80
5, 69600, Note_on_c, 3, 65, 80
5, 69839, Note_on_c, 3, 60, 0
5, 69839, Note_on_c, 3, 65, 0
5, 70080, Note_on_c, 3, 62, 80
5, 70080, Note_on_c, 3, 65, 80
5, 70559, Note_on_c, 3, 62, 0
5, 70559, Note_on_c, 3, 65, 0
5, 70560, Note_on_c, 3, 62, 80
5, 70560, Note_on_c, 3, 65, 80
5, 71039, Note_on_c, 3, 62, 0
5, 71039, Note_on_c, 3, 65, 0
5, 71040, Note_on_c, 3, 57, 80
5, 71040, Note_on_c, 3, 60, 80
5, 71040, Note_on_c, 3, 65, 80
5, 71279, Note_on_c, 3, 57, 0
5, 71279, Note_on_c, 3, 60, 0
5, 71279, Note_on_c, 3, 65, 0
5, 71520, Note_on_c, 3, 60, 80
5, 71520, Note_on_c, 3, 65, 80
5, 71999, Note_on_c, 3, 60, 0
5, 71999, Note_on_c, 3, 65, 0
5, 72000, Note_on_c, 3, 62, 80
5, 72000, Note_on_c, 3, 67, 80
5, 72479, Note_on_c, 3, 62, 0
5, 72479, Note_on_c, 3, 67, 0
5, 72480, Note_on_c, 3, 62, 80
5, 72480, Note_on_c, 3, 67, 80
5, 72959, Note_on_c, 3, 62, 0
5, 72959, Note_on_c, 3, 67, 0
5, 72960, Note_on_c, 3, 57, 80
5, 72960, Note_on_c, 3, 60, 80
5, 72960, Note_on_c, 3, 65, 80
5, 73199, Note_on_c, 3, 57, 0
5, 73199, Note_on_c, 3, 60, 0
5, 73199, Note_on_c, 3, 65, 0
5, 73440, Note_on_c, 3, 60, 80
5, 73440, Note_on_c, 3, 65, 80
5, 73919, Note_on_c, 3, 60, 0
5, 73919, Note_on_c, 3, 65, 0
5, 73920, Note_on_c, 3, 60, 80
5, 73920, Note_on_c, 3, 65, 80
5, 74159, Note_on_c, 3, 60, 0
5, 74159, Note_on_c, 3, 65, 0
5, 74400, Note_on_c, 3, 60, 80
5, 74400, Note_on_c, 3, 65, 80
5, 74639, Note_on_c, 3, 60, 0
5, 74639, Note_on_c, 3, 65, 0
5, 74880, Note_on_c, 3, 53, 80
5, 74880, Note_on_c, 3, 57, 80
5, 74880, Note_on_c, 3, 59, 80
5, 75119, Note_on_c, 3, 53, 0
5, 75119, Note_on_c, 3, 57, 0
5, 75119, Note_on_c, 3, 59, 0
5, 75360, Note_on_c, 3, 53, 80
5, 75360, Note_on_c, 3, 59, 80
5, 75839, Note_on_c, 3, 53, 0
5, 75839, Note_on_c, 3, 59, 0
5, 75840, Note_on_c, 3, 53, 80
5, 75840, Note_on_c, 3, 59, 80
5, 76319, Note_on_c, 3, 53, 0
5, 76319, Note_on_c, 3, 59, 0
5, 76320, Note_on_c, 3, 53, 80
5, 76320, Note_on_c, 3, 59, 80
5, 76799, Note_on_c, 3, 53, 0
5, 76799, Note_on_c, 3, 59, 0
5, 76800, Note_on_c, 3, 55, 80
5, 76800, Note_on_c, 3, 60, 80
5, 76800, Note_on_c, 3, 64, 80
5, 77279, Note_on_c, 3, 55, 0
5, 77279, Note_on_c, 3, 60, 0
5, 77279, Note_on_c, 3, 64, 0
5, 77280, Note_on_c, 3, 60, 80
5, 77280, Note_on_c, 3, 64, 80
5, 77759, Note_on_c, 3, 60, 0
5, 77759, Note_on_c, 3, 64, 0
5, 77760, Note_on_c, 3, 59, 80
5, 77760, Note_on_c, 3, 64, 80
5, 78239, Note_on_c, 3, 59, 0
5, 78239, Note_on_c, 3, 64, 0
5, 78240, Note_on_c, 3, 59, 80
5, 78240, Note_on_c, 3, 64, 80
5, 78479, Note_on_c, 3, 59, 0
5, 78479, Note_on_c, 3, 64, 0
5, 78720, Note_on_c, 3, 55, 80
5, 78720, Note_on_c, 3, 57, 80
5, 78720, Note_on_c, 3, 64, 80
5, 79199, Note_on_c, 3, 55, 0
5, 79199, Note_on_c, 3, 57, 0
5, 79199, Note_on_c, 3, 64, 0
5, 79200, Note_on_c, 3, 57, 80
5, 79200, Note_on_c, 3, 64, 80
5, 79439, Note_on_c, 3, 57, 0
5, 79439, Note_on_c, 3, 64, 0
5, 79680, Note_on_c, 3, 59, 80
5, 79680, Note_on_c, 3, 64, 80
5, 79919, Note_on_c, 3, 59, 0
5, 79919, Note_on_c, 3, 64, 0
5, 80160, Note_on_c, 3, 59, 80
5, 80160, Note_on_c, 3, 64, 80
5, 80639, Note_on_c, 3, 59, 0
5, 80639, Note_on_c, 3, 64, 0
5, 80640, Note_on_c, 3, 55, 80
5, 80640, Note_on_c, 3, 60, 80
5, 80640, Note_on_c, 3, 64, 80
5, 81119, Note_on_c, 3, 55, 0
5, 81119, Note_on_c, 3, 60, 0
5, 81119, Note_on_c, 3, 64, 0
5, 81120, Note_on_c, 3, 60, 80
5, 81120, Note_on_c, 3, 64, 80
5, 81599, Note_on_c, 3, 60, 0
5, 81599, Note_on_c, 3, 64, 0
5, 81600, Note_on_c, 3, 59, 80
5, 81600, Note_on_c, 3, 64, 80
5, 81839, Note_on_c, 3, 59, 0
5, 81839, Note_on_c, 3, 64, 0
5, 82080, Note_on_c, 3, 59, 80
5, 82080, Note_on_c, 3, 64, 80
5, 82559, Note_on_c, 3, 59, 0
5, 82559, Note_on_c, 3, 64, 0
5, 82560, Note_on_c, 3, 57, 80
5, 82560, Note_on_c, 3, 60, 80
5, 82560, Note_on_c, 3, 65, 80
5, 82799, Note_on_c, 3, 57, 0
5, 82799, Note_on_c, 3, 60, 0
5, 82799, Note_on_c, 3, 65, 0
5, 83040, Note_on_c, 3, 60, 80
5, 83040, Note_on_c, 3, 65, 80
5, 83519, Note_on_c, 3, 60, 0
5, 83519, Note_on_c, 3, 65, 0
5, 83520, Note_on_c, 3, 62, 80
5, 83520, Note_on_c, 3, 65, 80
5, 83999, Note_on_c, 3, 62, 0
5, 83999, Note_on_c, 3, 65, 0
5, 84000, Note_on_c, 3, 62, 80
5, 84000, Note_on_c, 3, 65, 80
5, 84479, Note_on_c, 3, 62, 0
5, 84479, Note_on_c, 3, 65, 0
5, 84480, Note_on_c, 3, 57, 80
5, 84480, Note_on_c, 3, 60, 80
5, 84480, Note_on_c, 3, 65, 80
5, 84959, Note_on_c, 3, 57, 0
5, 84959, Note_on_c, 3, 60, 0
5, 84959, Note_on_c, 3, 65, 0
5, 84960, Note_on_c, 3, 60, 80
5, 84960, Note_on_c, 3, 65, 80
5, 85199, Note_on_c, 3, 60, 0
5, 85199, Note_on_c, 3, 65, 0
5, 85440, Note_on_c, 3, 59, 80
5, 85440, Note_on_c, 3, 62, 80
5, 85440, Note_on_c, 3, 65, 80
5, 85919, Note_on_c, 3, 59, 0
5, 85919, Note_on_c, 3, 62, 0
5, 85919, Note_on_c, 3, 65, 0
5, 85920, Note_on_c, 3, 62, 80
5, 85920, Note_on_c, 3, 65, 80
5, 86399, Note_on_c, 3, 62, 0
5, 86399, Note_on_c, 3, 65, 0
5, 86400, Note_on_c, 3, 57, 80
5, 86400, Note_on_c, 3, 60, 80
5, 86400, Note_on_c, 3, 65, 80
5, 86639, Note_on_c, 3, 57, 0
5, 86639, Note_on_c, 3, 60, 0
5, 86639, Note_on_c, 3, 65, 0
5, 86880, Note_on_c, 3, 60, 80
5, 86880, Note_on_c, 3, 65, 80
5, 87359, Note_on_c, 3, 60, 0
5, 87359, Note_on_c, 3, 65, 0
5, 87360, Note_on_c, 3, 59, 80
5, 87360, Note_on_c, 3, 62, 80
5, 87360, Note_on_c, 3, 65, 80
5, 87839, Note_on_c, 3, 59, 0
5, 87839, Note_on_c, 3, 62, 0
5, 87839, Note_on_c, 3, 65, 0
5, 87840, Note_on_c, 3, 62, 80
5, 87840, Note_on_c, 3, 65, 80
5, 88319, Note_on_c, 3, 62, 0
5, 88319, Note_on_c, 3, 65, 0
5, 88320, Note_on_c, 3, 57, 80
5, 88320, Note_on_c, 3, 60, 80
5, 88320, Note_on_c, 3, 65, 80
5, 88559, Note_on_c, 3, 57, 0
5, 88559, Note_on_c, 3, 60, 0
5, 88559, Note_on_c, 3, 65, 0
5, 88800, Note_on_c, 3, 60, 80
5, 88800, Note_on_c, 3, 65, 80
5, 89279, Note_on_c, 3, 60, 0
5, 89279, Note_on_c, 3, 65, 0
5, 89280, Note_on_c, 3, 59, 80
5, 89280, Note_on_c, 3, 62, 80
5, 89280, Note_on_c, 3, 65, 80
5, 89519, Note_on_c, 3, 59, 0
5, 89519, Note_on_c, 3, 62, 0
5, 89519, Note_on_c, 3, 65, 0
5, 89760, Note_on_c, 3, 62, 80
5, 89760, Note_on_c, 3, 65, 80
5, 89999, Note_on_c, 3, 62, 0
5, 89999, Note_on_c, 3, 65, 0
5, 90240, Note_on_c, 3, 55, 80
5, 90240, Note_on_c, 3, 60, 80
5, 90240, Note_on_c, 3, 64, 80
5, 90719, Note_on_c, 3, 55, 0
5, 90719, Note_on_c, 3, 60, 0
5, 90719, Note_on_c, 3, 64, 0
5, 90720, Note_on_c, 3, 57, 80
5, 90720, Note_on_c, 3, 60, 80
5, 90720, Note_on_c, 3, 65, 80
5, 91199, Note_on_c, 3, 57, 0
5, 91199, Note_on_c, 3, 60, 0
5, 91199, Note_on_c, 3, 65, 0
5, 91200, Note_on_c, 3, 55, 80
5, 91200, Note_on_c, 3, 64, 80
5, 91200, Note_on_c, 3, 60, 80
5, 91679, Note_on_c, 3, 60, 0
5, 92159, Note_on_c, 3, 55, 0
5, 92159, Note_on_c, 3, 64, 0
5, 107520, Note_on_c, 3, 55, 80
5, 107520, Note_on_c, 3, 60, 80
5, 107520, Note_on_c, 3, 64, 80
5, 107999, Note_on_c, 3, 55, 0
5, 107999, Note_on_c, 3, 60, 0
5, 107999, Note_on_c, 3, 64, 0
5, 108000, Note_on_c, 3, 60, 80
5, 108000, Note_on_c, 3, 64, 80
5, 108479, Note_on_c, 3, 60, 0
5, 108479, Note_on_c, 3, 64, 0
5, 108480, Note_on_c, 3, 55, 80
5, 108480, Note_on_c, 3, 59, 80
5, 108480, Note_on_c, 3, 64, 80
5, 108959, Note_on_c, 3, 55, 0
5, 108959, Note_on_c, 3, 59, 0
5, 108959, Note_on_c, 3, 64, 0
5, 108960, Note_on_c, 3, 59, 80
5, 108960, Note_on_c, 3, 64, 80
5, 109199, Note_on_c, 3, 59, 0
5, 109199, Note_on_c, 3, 64, 0
5, 109440, Note_on_c, 3, 55, 80
5, 109440, Note_on_c, 3, 57, 80
5, 109440, Note_on_c, 3, 64, 80
5, 109919, Note_on_c, 3, 55, 0
5, 109919, Note_on_c, 3, 57, 0
5, 109919, Note_on_c, 3, 64, 0
5, 109920, Note_on_c, 3, 57, 80
5, 109920, Note_on_c, 3, 64, 80
5, 110159, Note_on_c, 3, 57, 0
5, 110159, Note_on_c, 3, 64, 0
5, 110400, Note_on_c, 3, 55, 80
5, 110400, Note_on_c, 3, 59, 80
5, 110400, Note_on_c, 3, 64, 80
5, 110639, Note_on_c, 3, 55, 0
5, 110639, Note_on_c, 3, 59, 0
5, 110639, Note_on_c, 3, 64, 0
5, 110880, Note_on_c, 3, 59, 80
5, 110880, Note_on_c, 3, 64, 80
5, 111359, Note_on_c, 3, 59, 0
5, 111359, Note_on_c, 3, 64, 0
5, 111360, Note_on_c, 3, 55, 80
5, 111360, Note_on_c, 3, 60, 80
5, 111360, Note_on_c, 3, 64, 80
5, 111839, Note_on_c, 3, 55, 0
5, 111839, Note_on_c, 3, 60, 0
5, 111839, Note_on_c, 3, 64, 0
5, 111840, Note_on_c, 3, 60, 80
5, 111840, Note_on_c, 3, 64, 80
5, 112319, Note_on_c, 3, 60, 0
5, 112319, Note_on_c, 3, 64, 0
5, 112320, Note_on_c, 3, 59, 80
5, 112320, Note_on_c, 3, 64, 80
5, 112559, Note_on_c, 3, 59, 0
5, 112559, Note_on_c, 3, 64, 0
5, 112800, Note_on_c, 3, 59, 80
5, 112800, Note_on_c, 3, 64, 80
5, 113279, Note_on_c, 3, 59, 0
5, 113279, Note_on_c, 3, 64, 0
5, 113280, Note_on_c, 3, 55, 80
5, 113280, Note_on_c, 3, 65, 80
5, 113519, Note_on_c, 3, 55, 0
5, 113519, Note_on_c, 3, 65, 0
5, 113760, Note_on_c, 3, 55, 80
5, 113760, Note_on_c, 3, 65, 80
5, 113999, Note_on_c, 3, 55, 0
5, 113999, Note_on_c, 3, 65, 0
5, 114240, Note_on_c, 3, 55, 80
5, 114240, Note_on_c, 3, 64, 80
5, 114479, Note_on_c, 3, 55, 0
5, 114479, Note_on_c, 3, 64, 0
5, 114720, Note_on_c, 3, 55, 80
5, 114720, Note_on_c, 3, 64, 80
5, 114959, Note_on_c, 3, 55, 0
5, 114959, Note_on_c, 3, 64, 0
5, 115200, Note_on_c, 3, 57, 80
5, 115200, Note_on_c, 3, 60, 80
5, 115200, Note_on_c, 3, 65, 80
5, 115439, Note_on_c, 3, 57, 0
5, 115439, Note_on_c, 3, 60, 0
5, 115439, Note_on_c, 3, 65, 0
5, 115680, Note_on_c, 3, 60, 80
5, 115680, Note_on_c, 3, 65, 80
5, 116159, Note_on_c, 3, 60, 0
5, 116159, Note_on_c, 3, 65, 0
5, 116160, Note_on_c, 3, 60, 80
5, 116160, Note_on_c, 3, 65, 80
5, 116639, Note_on_c, 3, 60, 0
5, 116639, Note_on_c, 3, 65, 0
5, 116640, Note_on_c, 3, 60, 80
5, 116640, Note_on_c, 3, 65, 80
5, 117119, Note_on_c, 3, 60, 0
5, 117119, Note_on_c, 3, 65, 0
5, 117120, Note_on_c, 3, 60, 80
5, 117120, Note_on_c, 3, 62, 80
5, 117120, Note_on_c, 3, 65, 80
5, 117359, Note_on_c, 3, 60, 0
5, 117359, Note_on_c, 3, 62, 0
5, 117359, Note_on_c, 3, 65, 0
5, 117600, Note_on_c, 3, 62, 80
5, 117600, Note_on_c, 3, 65, 80
5, 117839, Note_on_c, 3, 62, 0
5, 117839, Note_on_c, 3, 65, 0
5, 118080, Note_on_c, 3, 62, 80
5, 118080, Note_on_c, 3, 65, 80
5, 118319, Note_on_c, 3, 62, 0
5, 118319, Note_on_c, 3, 65, 0
5, 118560, Note_on_c, 3, 62, 80
5, 118560, Note_on_c, 3, 65, 80
5, 118799, Note_on_c, 3, 62, 0
5, 118799, Note_on_c, 3, 65, 0
5, 119040, Note_on_c, 3, 57, 80
5, 119040, Note_on_c, 3, 60, 80
5, 119279, Note_on_c, 3, 57, 0
5, 119279, Note_on_c, 3, 60, 0
5, 119520, Note_on_c, 3, 57, 80
5, 119520, Note_on_c, 3, 60, 80
5, 119999, Note_on_c, 3, 57, 0
5, 119999, Note_on_c, 3, 60, 0
5, 120000, Note_on_c, 3, 59, 80
5, 120000, Note_on_c, 3, 62, 80
5, 120239, Note_on_c, 3, 59, 0
5, 120239, Note_on_c, 3, 62, 0
5, 120480, Note_on_c, 3, 59, 80
5, 120480, Note_on_c, 3, 62, 80
5, 120719, Note_on_c, 3, 59, 0
5, 120719, Note_on_c, 3, 62, 0
5, 120960, Note_on_c, 3, 57, 80
5, 120960, Note_on_c, 3, 60, 80
5, 121199, Note_on_c, 3, 57, 0
5, 121199, Note_on_c, 3, 60, 0
5, 121440, Note_on_c, 3, 57, 80
5, 121440, Note_on_c, 3, 60, 80
5, 121919, Note_on_c, 3, 57, 0
5, 121919, Note_on_c, 3, 60, 0
5, 121920, Note_on_c, 3, 59, 80
5, 121920, Note_on_c, 3, 62, 80
5, 122159, Note_on_c, 3, 59, 0
5, 122159, Note_on_c, 3, 62, 0
5, 122400, Note_on_c, 3, 59, 80
5, 122400, Note_on_c, 3, 62, 80
5, 122639, Note_on_c, 3, 59, 0
5, 122639, Note_on_c, 3, 62, 0
5, 122880, Note_on_c, 3, 57, 80
5, 122880, Note_on_c, 3, 60, 80
5, 123119, Note_on_c, 3, 57, 0
5, 123119, Note_on_c, 3, 60, 0
5, 123360, Note_on_c, 3, 57, 80
5, 123360, Note_on_c, 3, 60, 80
5, 123839, Note_on_c, 3, 57, 0
5, 123839, Note_on_c, 3, 60, 0
5, 123840, Note_on_c, 3, 59, 80
5, 123840, Note_on_c, 3, 62, 80
5, 124079, Note_on_c, 3, 59, 0
5, 124079, Note_on_c, 3, 62, 0
5, 124320, Note_on_c, 3, 59, 80
5, 124320, Note_on_c, 3, 62, 80
5, 124559, Note_on_c, 3, 59, 0
5, 124559, Note_on_c, 3, 62, 0
5, 124800, Note_on_c, 3, 60, 80
5, 124800, Note_on_c, 3, 64, 80
5, 124800, Note_on_c, 3, 67, 80
5, 125039, Note_on_c, 3, 60, 0
5, 125039, Note_on_c, 3, 64, 0
5, 125039, Note_on_c, 3, 67, 0
5, 125040, End_track
0, 0, End_of_file
