0, 0, Header, 1, 4, 480
1, 0, Start_track
1, 0, Title_t, "Minstrel\000"
1, 0, Time_signature, 4, 2, 24, 8
1, 0, Key_signature, 0, "major"
1, 0, Tempo, 821916
1, 0, Control_c, 0, 121, 0
1, 0, Program_c, 0, 0
1, 0, Control_c, 0, 7, 100
1, 0, Control_c, 0, 10, 64
1, 0, Control_c, 0, 91, 0
1, 0, Control_c, 0, 93, 0
1, 0, MIDI_port, 0
1, 2, Control_c, 0, 64, 127
1, 8040, Note_on_c, 0, 67, 80
1, 8040, Control_c, 0, 2, 80
1, 8159, Note_on_c, 0, 67, 0
1, 8160, Note_on_c, 0, 67, 80
1, 8279, Note_on_c, 0, 67, 0
1, 8280, Note_on_c, 0, 67, 80
1, 8280, Control_c, 0, 2, 80
1, 8639, Note_on_c, 0, 67, 0
1, 8640, Note_on_c, 0, 67, 80
1, 8640, Control_c, 0, 2, 80
1, 9119, Note_on_c, 0, 67, 0
1, 9120, Note_on_c, 0, 71, 80
1, 9120, Control_c, 0, 2, 80
1, 9359, Note_on_c, 0, 71, 0
1, 9360, Note_on_c, 0, 71, 80
1, 9360, Control_c, 0, 2, 80
1, 9479, Note_on_c, 0, 71, 0
1, 9480, Note_on_c, 0, 69, 80
1, 9480, Control_c, 0, 2, 80
1, 9839, Note_on_c, 0, 69, 0
1, 11880, Note_on_c, 0, 67, 80
1, 11880, Control_c, 0, 2, 80
1, 11999, Note_on_c, 0, 67, 0
1, 12000, Note_on_c, 0, 67, 80
1, 12239, Note_on_c, 0, 67, 0
1, 12240, Note_on_c, 0, 67, 80
1, 12240, Control_c, 0, 2, 80
1, 12479, Note_on_c, 0, 67, 0
1, 12480, Note_on_c, 0, 67, 80
1, 12480, Control_c, 0, 2, 80
1, 12719, Note_on_c, 0, 67, 0
1, 12720, Note_on_c, 0, 71, 80
1, 12720, Control_c, 0, 2, 80
1, 13199, Note_on_c, 0, 71, 0
1, 13200, Note_on_c, 0, 71, 80
1, 13200, Control_c, 0, 2, 80
1, 13319, Note_on_c, 0, 71, 0
1, 13320, Note_on_c, 0, 69, 80
1, 13320, Control_c, 0, 2, 80
1, 13919, Note_on_c, 0, 69, 0
1, 15840, Note_on_c, 0, 67, 80
1, 15840, Control_c, 0, 2, 80
1, 16079, Note_on_c, 0, 67, 0
1, 16080, Note_on_c, 0, 67, 80
1, 16080, Control_c, 0, 2, 80
1, 16320, Control_c, 0, 2, 80
1, 16799, Note_on_c, 0, 67, 0
1, 16800, Note_on_c, 0, 71, 80
1, 16800, Control_c, 0, 2, 80
1, 17039, Note_on_c, 0, 71, 0
1, 17040, Note_on_c, 0, 71, 80
1, 17040, Control_c, 0, 2, 80
1, 17159, Note_on_c, 0, 71, 0
1, 17160, Note_on_c, 0, 69, 80
1, 17160, Control_c, 0, 2, 80
1, 17759, Note_on_c, 0, 69, 0
1, 20040, Note_on_c, 0, 67, 80
1, 20040, Control_c, 0, 2, 80
1, 20159, Note_on_c, 0, 67, 0
1, 20160, Note_on_c, 0, 67, 80
1, 20279, Note_on_c, 0, 67, 0
1, 20280, Note_on_c, 0, 67, 80
1, 20280, Control_c, 0, 2, 80
1, 20639, Note_on_c, 0, 67, 0
1, 20640, Note_on_c, 0, 71, 80
1, 20640, Control_c, 0, 2, 80
1, 20879, Note_on_c, 0, 71, 0
1, 20880, Note_on_c, 0, 71, 80
1, 20880, Control_c, 0, 2, 80
1, 20999, Note_on_c, 0, 71, 0
1, 21000, Note_on_c, 0, 69, 80
1, 21000, Control_c, 0, 2, 80
1, 21599, Note_on_c, 0, 69, 0
1, 23400, Note_on_c, 0, 69, 80
1, 23400, Control_c, 0, 2, 80
1, 23519, Note_on_c, 0, 69, 0
1, 23520, Note_on_c, 0, 72, 80
1, 23639, Note_on_c, 0, 72, 0
1, 23640, Note_on_c, 0, 69, 80
1, 23879, Note_on_c, 0, 69, 0
1, 23880, Note_on_c, 0, 72, 80
1, 24479, Note_on_c, 0, 72, 0
1, 24480, Note_on_c, 0, 76, 80
1, 24480, Control_c, 0, 2, 80
1, 24719, Note_on_c, 0, 76, 0
1, 24720, Note_on_c, 0, 76, 80
1, 24959, Note_on_c, 0, 76, 0
1, 24960, Note_on_c, 0, 74, 80
1, 25079, Note_on_c, 0, 74, 0
1, 25080, Note_on_c, 0, 72, 80
1, 25080, Control_c, 0, 2, 80
1, 25199, Note_on_c, 0, 72, 0
1, 25200, Note_on_c, 0, 69, 80
1, 25439, Note_on_c, 0, 69, 0
1, 26880, Note_on_c, 0, 71, 80
1, 26880, Control_c, 0, 2, 80
1, 27119, Note_on_c, 0, 71, 0
1, 27120, Note_on_c, 0, 71, 80
1, 27120, Control_c, 0, 2, 80
1, 27839, Note_on_c, 0, 71, 0
1, 27840, Note_on_c, 0, 71, 80
1, 28319, Note_on_c, 0, 71, 0
1, 28320, Note_on_c, 0, 72, 80
1, 28559, Note_on_c, 0, 72, 0
1, 28560, Note_on_c, 0, 74, 80
1, 28560, Control_c, 0, 2, 80
1, 29759, Note_on_c, 0, 74, 0
1, 29760, Note_on_c, 0, 76, 80
1, 29760, Control_c, 0, 2, 80
1, 29999, Note_on_c, 0, 76, 0
1, 30000, Note_on_c, 0, 79, 80
1, 30479, Note_on_c, 0, 79, 0
1, 30480, Note_on_c, 0, 76, 80
1, 30599, Note_on_c, 0, 76, 0
1, 30600, Note_on_c, 0, 74, 80
1, 30719, Note_on_c, 0, 74, 0
1, 30720, Note_on_c, 0, 72, 80
1, 31199, Note_on_c, 0, 72, 0
1, 31320, Note_on_c, 0, 67, 80
1, 31320, Control_c, 0, 2, 80
1, 31439, Note_on_c, 0, 67, 0
1, 31440, Note_on_c, 0, 67, 80
1, 31559, Note_on_c, 0, 67, 0
1, 31560, Note_on_c, 0, 67, 80
1, 31560, Control_c, 0, 2, 80
1, 31679, Note_on_c, 0, 67, 0
1, 31680, Note_on_c, 0, 67, 80
1, 32159, Note_on_c, 0, 67, 0
1, 32160, Note_on_c, 0, 71, 80
1, 32160, Control_c, 0, 2, 80
1, 32399, Note_on_c, 0, 71, 0
1, 32400, Note_on_c, 0, 71, 80
1, 32400, Control_c, 0, 2, 80
1, 32639, Note_on_c, 0, 71, 0
1, 32640, Note_on_c, 0, 69, 80
1, 32640, Control_c, 0, 2, 80
1, 33119, Note_on_c, 0, 69, 0
1, 34920, Note_on_c, 0, 67, 80
1, 34920, Control_c, 0, 2, 80
1, 35039, Note_on_c, 0, 67, 0
1, 35040, Note_on_c, 0, 67, 80
1, 35159, Note_on_c, 0, 67, 0
1, 35160, Note_on_c, 0, 67, 80
1, 35160, Control_c, 0, 2, 80
1, 35279, Note_on_c, 0, 67, 0
1, 35280, Note_on_c, 0, 67, 80
1, 35520, Control_c, 0, 2, 80
1, 35759, Note_on_c, 0, 67, 0
1, 36000, Note_on_c, 0, 71, 80
1, 36000, Control_c, 0, 2, 80
1, 36239, Note_on_c, 0, 71, 0
1, 36240, Note_on_c, 0, 71, 80
1, 36240, Control_c, 0, 2, 80
1, 36359, Note_on_c, 0, 71, 0
1, 36360, Note_on_c, 0, 69, 80
1, 36360, Control_c, 0, 2, 80
1, 36959, Note_on_c, 0, 69, 0
1, 38880, Note_on_c, 0, 67, 80
1, 38880, Control_c, 0, 2, 80
1, 38999, Note_on_c, 0, 67, 0
1, 39000, Note_on_c, 0, 67, 80
1, 39000, Control_c, 0, 2, 80
1, 39119, Note_on_c, 0, 67, 0
1, 39120, Note_on_c, 0, 67, 80
1, 39239, Note_on_c, 0, 67, 0
1, 39240, Note_on_c, 0, 67, 80
1, 39240, Control_c, 0, 2, 80
1, 39839, Note_on_c, 0, 67, 0
1, 39840, Note_on_c, 0, 71, 80
1, 39840, Control_c, 0, 2, 80
1, 40079, Note_on_c, 0, 71, 0
1, 40080, Note_on_c, 0, 71, 80
1, 40080, Control_c, 0, 2, 80
1, 40199, Note_on_c, 0, 71, 0
1, 40200, Note_on_c, 0, 69, 80
1, 40200, Control_c, 0, 2, 80
1, 40559, Note_on_c, 0, 69, 0
1, 40560, Note_on_c, 0, 69, 80
1, 40560, Control_c, 0, 2, 80
1, 40799, Note_on_c, 0, 69, 0
1, 42720, Note_on_c, 0, 67, 80
1, 42720, Control_c, 0, 2, 80
1, 42879, Note_on_c, 0, 67, 0
1, 42880, Note_on_c, 0, 67, 80
1, 42880, Control_c, 0, 2, 80
1, 43039, Note_on_c, 0, 67, 0
1, 43040, Note_on_c, 0, 67, 80
1, 43040, Control_c, 0, 2, 80
1, 43439, Note_on_c, 0, 67, 0
1, 43440, Note_on_c, 0, 71, 80
1, 43440, Control_c, 0, 2, 80
1, 43919, Note_on_c, 0, 71, 0
1, 43920, Note_on_c, 0, 71, 80
1, 43920, Control_c, 0, 2, 80
1, 44039, Note_on_c, 0, 71, 0
1, 44040, Note_on_c, 0, 69, 80
1, 44040, Control_c, 0, 2, 80
1, 44639, Note_on_c, 0, 69, 0
1, 46440, Note_on_c, 0, 69, 80
1, 46440, Control_c, 0, 2, 80
1, 46559, Note_on_c, 0, 69, 0
1, 46560, Note_on_c, 0, 72, 80
1, 46679, Note_on_c, 0, 72, 0
1, 46680, Note_on_c, 0, 69, 80
1, 46680, Control_c, 0, 2, 80
1, 46919, Note_on_c, 0, 69, 0
1, 46920, Note_on_c, 0, 72, 80
1, 46920, Control_c, 0, 2, 80
1, 47519, Note_on_c, 0, 72, 0
1, 47520, Note_on_c, 0, 76, 80
1, 47520, Control_c, 0, 2, 80
1, 47759, Note_on_c, 0, 76, 0
1, 47760, Note_on_c, 0, 76, 80
1, 47999, Note_on_c, 0, 76, 0
1, 48000, Note_on_c, 0, 74, 80
1, 48119, Note_on_c, 0, 74, 0
1, 48120, Note_on_c, 0, 72, 80
1, 48239, Note_on_c, 0, 72, 0
1, 48240, Note_on_c, 0, 69, 80
1, 48479, Note_on_c, 0, 69, 0
1, 49920, Note_on_c, 0, 71, 80
1, 49920, Control_c, 0, 2, 80
1, 50159, Note_on_c, 0, 71, 0
1, 50160, Note_on_c, 0, 71, 80
1, 50160, Control_c, 0, 2, 80
1, 50879, Note_on_c, 0, 71, 0
1, 50880, Note_on_c, 0, 71, 80
1, 51359, Note_on_c, 0, 71, 0
1, 51360, Note_on_c, 0, 72, 80
1, 51599, Note_on_c, 0, 72, 0
1, 51600, Note_on_c, 0, 74, 80
1, 51600, Control_c, 0, 2, 80
1, 52799, Note_on_c, 0, 74, 0
1, 52800, Note_on_c, 0, 76, 80
1, 52800, Control_c, 0, 2, 80
1, 53039, Note_on_c, 0, 76, 0
1, 53040, Note_on_c, 0, 79, 80
1, 53519, Note_on_c, 0, 79, 0
1, 53520, Note_on_c, 0, 76, 80
1, 53639, Note_on_c, 0, 76, 0
1, 53640, Note_on_c, 0, 74, 80
1, 53759, Note_on_c, 0, 74, 0
1, 53760, Note_on_c, 0, 72, 80
1, 54239, Note_on_c, 0, 72, 0
1, 54360, Note_on_c, 0, 69, 80
1, 54360, Control_c, 0, 2, 80
1, 54479, Note_on_c, 0, 69, 0
1, 54480, Note_on_c, 0, 72, 80
1, 54719, Note_on_c, 0, 72, 0
1, 54720, Note_on_c, 0, 71, 80
1, 54959, Note_on_c, 0, 71, 0
1, 54960, Note_on_c, 0, 72, 80
1, 54960, Control_c, 0, 2, 80
1, 55079, Note_on_c, 0, 72, 0
1, 55080, Note_on_c, 0, 71, 80
1, 55199, Note_on_c, 0, 71, 0
1, 55200, Note_on_c, 0, 69, 80
1, 55439, Note_on_c, 0, 69, 0
1, 55440, Note_on_c, 0, 69, 80
1, 55559, Note_on_c, 0, 69, 0
1, 55560, Note_on_c, 0, 71, 80
1, 55679, Note_on_c, 0, 71, 0
1, 55680, Note_on_c, 0, 72, 80
1, 55919, Note_on_c, 0, 72, 0
1, 55920, Note_on_c, 0, 72, 80
1, 55920, Control_c, 0, 2, 80
1, 56159, Note_on_c, 0, 72, 0
1, 58200, Note_on_c, 0, 69, 80
1, 58200, Control_c, 0, 2, 80
1, 58319, Note_on_c, 0, 69, 0
1, 58320, Note_on_c, 0, 72, 80
1, 58559, Note_on_c, 0, 72, 0
1, 58560, Note_on_c, 0, 71, 80
1, 58799, Note_on_c, 0, 71, 0
1, 58800, Note_on_c, 0, 71, 80
1, 58800, Control_c, 0, 2, 80
1, 58919, Note_on_c, 0, 71, 0
1, 58920, Note_on_c, 0, 69, 80
1, 59159, Note_on_c, 0, 69, 0
1, 59160, Note_on_c, 0, 69, 80
1, 59279, Note_on_c, 0, 69, 0
1, 59280, Note_on_c, 0, 64, 80
1, 59999, Note_on_c, 0, 64, 0
1, 61800, Note_on_c, 0, 69, 80
1, 61800, Control_c, 0, 2, 80
1, 61919, Note_on_c, 0, 69, 0
1, 61920, Note_on_c, 0, 69, 80
1, 62159, Note_on_c, 0, 69, 0
1, 62160, Note_on_c, 0, 72, 80
1, 62160, Control_c, 0, 2, 80
1, 62399, Note_on_c, 0, 72, 0
1, 62400, Note_on_c, 0, 71, 80
1, 62639, Note_on_c, 0, 71, 0
1, 62640, Note_on_c, 0, 72, 80
1, 62640, Control_c, 0, 2, 80
1, 62759, Note_on_c, 0, 72, 0
1, 62760, Note_on_c, 0, 71, 80
1, 62879, Note_on_c, 0, 71, 0
1, 62880, Note_on_c, 0, 69, 80
1, 63119, Note_on_c, 0, 69, 0
1, 63120, Note_on_c, 0, 71, 80
1, 63359, Note_on_c, 0, 71, 0
1, 63360, Note_on_c, 0, 72, 80
1, 63599, Note_on_c, 0, 72, 0
1, 63600, Note_on_c, 0, 72, 80
1, 63600, Control_c, 0, 2, 80
1, 63719, Note_on_c, 0, 72, 0
1, 63720, Note_on_c, 0, 71, 80
1, 63839, Note_on_c, 0, 71, 0
1, 63840, Note_on_c, 0, 69, 80
1, 64319, Note_on_c, 0, 69, 0
1, 66000, Note_on_c, 0, 72, 80
1, 66000, Control_c, 0, 2, 80
1, 66119, Note_on_c, 0, 72, 0
1, 66120, Note_on_c, 0, 72, 80
1, 66239, Note_on_c, 0, 72, 0
1, 66240, Note_on_c, 0, 74, 80
1, 66479, Note_on_c, 0, 74, 0
1, 66480, Note_on_c, 0, 76, 80
1, 66480, Control_c, 0, 2, 80
1, 66599, Note_on_c, 0, 76, 0
1, 66600, Note_on_c, 0, 74, 80
1, 66719, Note_on_c, 0, 74, 0
1, 66720, Note_on_c, 0, 72, 80
1, 66959, Note_on_c, 0, 72, 0
1, 66960, Note_on_c, 0, 74, 80
1, 67199, Note_on_c, 0, 74, 0
1, 67200, Note_on_c, 0, 76, 80
1, 67319, Note_on_c, 0, 76, 0
1, 67320, Note_on_c, 0, 74, 80
1, 67439, Note_on_c, 0, 74, 0
1, 67440, Note_on_c, 0, 72, 80
1, 68159, Note_on_c, 0, 72, 0
1, 69480, Note_on_c, 0, 67, 80
1, 69480, Control_c, 0, 2, 80
1, 69599, Note_on_c, 0, 67, 0
1, 69600, Note_on_c, 0, 67, 80
1, 69719, Note_on_c, 0, 67, 0
1, 69720, Note_on_c, 0, 67, 80
1, 69720, Control_c, 0, 2, 80
1, 69959, Note_on_c, 0, 67, 0
1, 69960, Note_on_c, 0, 67, 80
1, 69960, Control_c, 0, 2, 80
1, 70559, Note_on_c, 0, 67, 0
1, 70560, Note_on_c, 0, 71, 80
1, 70560, Control_c, 0, 2, 80
1, 70799, Note_on_c, 0, 71, 0
1, 70800, Note_on_c, 0, 71, 80
1, 70800, Control_c, 0, 2, 80
1, 71039, Note_on_c, 0, 71, 0
1, 71040, Note_on_c, 0, 69, 80
1, 71040, Control_c, 0, 2, 80
1, 71399, Note_on_c, 0, 69, 0
1, 71400, Note_on_c, 0, 64, 80
1, 71400, Control_c, 0, 2, 80
1, 71519, Note_on_c, 0, 64, 0
1, 71520, Note_on_c, 0, 65, 80
1, 71999, Note_on_c, 0, 65, 0
1, 72960, Note_on_c, 0, 62, 80
1, 72960, Control_c, 0, 2, 80
1, 72960, Note_on_c, 0, 64, 80
1, 73319, Note_on_c, 0, 62, 0
1, 73319, Note_on_c, 0, 64, 0
1, 73320, Note_on_c, 0, 67, 80
1, 73320, Control_c, 0, 2, 80
1, 73439, Note_on_c, 0, 67, 0
1, 73440, Note_on_c, 0, 64, 80
1, 73559, Note_on_c, 0, 64, 0
1, 73560, Note_on_c, 0, 67, 80
1, 73560, Control_c, 0, 2, 80
1, 73679, Note_on_c, 0, 67, 0
1, 73680, Note_on_c, 0, 67, 80
1, 73799, Note_on_c, 0, 67, 0
1, 73800, Note_on_c, 0, 67, 80
1, 73800, Control_c, 0, 2, 80
1, 73919, Note_on_c, 0, 67, 0
1, 73920, Note_on_c, 0, 67, 80
1, 74159, Note_on_c, 0, 67, 0
1, 74160, Note_on_c, 0, 71, 80
1, 74160, Control_c, 0, 2, 80
1, 74639, Note_on_c, 0, 71, 0
1, 74640, Note_on_c, 0, 71, 80
1, 74640, Control_c, 0, 2, 80
1, 74759, Note_on_c, 0, 71, 0
1, 74760, Note_on_c, 0, 69, 80
1, 74760, Control_c, 0, 2, 80
1, 74879, Note_on_c, 0, 69, 0
1, 75240, Note_on_c, 0, 64, 80
1, 75240, Control_c, 0, 2, 80
1, 75359, Note_on_c, 0, 64, 0
1, 75360, Note_on_c, 0, 65, 80
1, 75839, Note_on_c, 0, 65, 0
1, 76800, Note_on_c, 0, 62, 80
1, 76800, Control_c, 0, 2, 80
1, 76800, Note_on_c, 0, 64, 80
1, 77039, Note_on_c, 0, 62, 0
1, 77039, Note_on_c, 0, 64, 0
1, 77160, Note_on_c, 0, 67, 80
1, 77160, Control_c, 0, 2, 80
1, 77279, Note_on_c, 0, 67, 0
1, 77280, Note_on_c, 0, 67, 80
1, 77519, Note_on_c, 0, 67, 0
1, 77520, Note_on_c, 0, 67, 80
1, 77520, Control_c, 0, 2, 80
1, 77639, Note_on_c, 0, 67, 0
1, 77640, Note_on_c, 0, 67, 80
1, 77640, Control_c, 0, 2, 80
1, 77759, Note_on_c, 0, 67, 0
1, 77760, Note_on_c, 0, 67, 80
1, 78239, Note_on_c, 0, 67, 0
1, 78240, Note_on_c, 0, 71, 80
1, 78240, Control_c, 0, 2, 80
1, 78479, Note_on_c, 0, 71, 0
1, 78480, Note_on_c, 0, 71, 80
1, 78480, Control_c, 0, 2, 80
1, 78599, Note_on_c, 0, 71, 0
1, 78600, Note_on_c, 0, 69, 80
1, 78600, Control_c, 0, 2, 80
1, 78719, Note_on_c, 0, 69, 0
1, 78720, Note_on_c, 0, 69, 80
1, 78959, Note_on_c, 0, 69, 0
1, 78960, Note_on_c, 0, 69, 80
1, 78960, Control_c, 0, 2, 80
1, 79199, Note_on_c, 0, 69, 0
1, 79200, Note_on_c, 0, 65, 80
1, 79200, Control_c, 0, 2, 80
1, 79679, Note_on_c, 0, 65, 0
1, 80640, Note_on_c, 0, 62, 80
1, 80640, Control_c, 0, 2, 80
1, 80640, Note_on_c, 0, 64, 80
1, 80879, Note_on_c, 0, 62, 0
1, 80879, Note_on_c, 0, 64, 0
1, 81000, Note_on_c, 0, 67, 80
1, 81000, Control_c, 0, 2, 80
1, 81119, Note_on_c, 0, 67, 0
1, 81120, Note_on_c, 0, 64, 80
1, 81120, Note_on_c, 0, 67, 80
1, 81279, Note_on_c, 0, 64, 0
1, 81279, Note_on_c, 0, 67, 0
1, 81280, Note_on_c, 0, 64, 80
1, 81280, Control_c, 0, 2, 80
1, 81280, Note_on_c, 0, 67, 80
1, 81439, Note_on_c, 0, 64, 0
1, 81439, Note_on_c, 0, 67, 0
1, 81440, Note_on_c, 0, 64, 80
1, 81440, Control_c, 0, 2, 80
1, 81440, Note_on_c, 0, 67, 80
1, 81599, Note_on_c, 0, 64, 0
1, 81599, Note_on_c, 0, 67, 0
1, 81600, Note_on_c, 0, 64, 80
1, 81600, Note_on_c, 0, 67, 80
1, 81839, Note_on_c, 0, 64, 0
1, 81839, Note_on_c, 0, 67, 0
1, 81960, Note_on_c, 0, 64, 80
1, 81960, Control_c, 0, 2, 80
1, 82079, Note_on_c, 0, 64, 0
1, 82080, Note_on_c, 0, 67, 80
1, 82199, Note_on_c, 0, 67, 0
1, 82320, Note_on_c, 0, 71, 80
1, 82320, Control_c, 0, 2, 80
1, 82439, Note_on_c, 0, 71, 0
1, 82440, Note_on_c, 0, 69, 80
1, 82440, Control_c, 0, 2, 80
1, 82559, Note_on_c, 0, 69, 0
1, 82560, Note_on_c, 0, 65, 80
1, 82919, Note_on_c, 0, 65, 0
1, 83040, Note_on_c, 0, 65, 80
1, 83040, Control_c, 0, 2, 80
1, 83519, Note_on_c, 0, 65, 0
1, 83520, Note_on_c, 0, 65, 80
1, 83520, Control_c, 0, 2, 80
1, 83879, Note_on_c, 0, 65, 0
1, 83880, Note_on_c, 0, 65, 80
1, 83880, Control_c, 0, 2, 80
1, 83999, Note_on_c, 0, 65, 0
1, 84000, Note_on_c, 0, 65, 80
1, 84000, Note_on_c, 0, 69, 80
1, 84479, Note_on_c, 0, 65, 0
1, 84479, Note_on_c, 0, 69, 0
1, 84480, Note_on_c, 0, 53, 80
1, 84480, Control_c, 0, 2, 80
1, 84505, Note_on_c, 0, 60, 80
1, 84530, Note_on_c, 0, 65, 80
1, 84556, Note_on_c, 0, 69, 80
1, 84582, Note_on_c, 0, 72, 80
1, 84718, Note_on_c, 0, 60, 0
1, 84718, Note_on_c, 0, 65, 0
1, 84718, Note_on_c, 0, 69, 0
1, 84719, Note_on_c, 0, 53, 0
1, 84719, Note_on_c, 0, 72, 0
1, 84840, Note_on_c, 0, 69, 80
1, 84840, Control_c, 0, 2, 80
1, 84959, Note_on_c, 0, 69, 0
1, 84960, Note_on_c, 0, 72, 80
1, 85079, Note_on_c, 0, 72, 0
1, 85080, Note_on_c, 0, 69, 80
1, 85080, Control_c, 0, 2, 80
1, 85319, Note_on_c, 0, 69, 0
1, 85320, Note_on_c, 0, 72, 80
1, 85320, Control_c, 0, 2, 80
1, 85919, Note_on_c, 0, 72, 0
1, 85920, Note_on_c, 0, 76, 80
1, 85920, Control_c, 0, 2, 80
1, 86159, Note_on_c, 0, 76, 0
1, 86160, Note_on_c, 0, 76, 80
1, 86399, Note_on_c, 0, 76, 0
1, 86520, Note_on_c, 0, 72, 80
1, 86639, Note_on_c, 0, 72, 0
1, 86640, Note_on_c, 0, 69, 80
1, 86879, Note_on_c, 0, 69, 0
1, 88320, Note_on_c, 0, 55, 80
1, 88320, Control_c, 0, 2, 80
1, 88345, Note_on_c, 0, 62, 80
1, 88370, Note_on_c, 0, 67, 80
1, 88396, Note_on_c, 0, 71, 80
1, 88558, Note_on_c, 0, 62, 0
1, 88558, Note_on_c, 0, 67, 0
1, 88558, Note_on_c, 0, 71, 0
1, 88559, Note_on_c, 0, 55, 0
1, 88560, Note_on_c, 0, 71, 80
1, 89279, Note_on_c, 0, 71, 0
1, 89280, Note_on_c, 0, 71, 80
1, 89759, Note_on_c, 0, 71, 0
1, 89760, Note_on_c, 0, 72, 80
1, 89999, Note_on_c, 0, 72, 0
1, 90000, Note_on_c, 0, 74, 80
1, 90000, Control_c, 0, 2, 80
1, 91199, Note_on_c, 0, 74, 0
1, 91200, Note_on_c, 0, 74, 80
1, 91239, Note_on_c, 0, 74, 0
1, 91240, Note_on_c, 0, 76, 80
1, 91439, Note_on_c, 0, 76, 0
1, 91440, Note_on_c, 0, 79, 80
1, 91679, Note_on_c, 0, 79, 0
1, 91920, Note_on_c, 0, 76, 80
1, 92039, Note_on_c, 0, 76, 0
1, 92040, Note_on_c, 0, 74, 80
1, 92159, Note_on_c, 0, 74, 0
1, 92160, Note_on_c, 0, 72, 80
1, 92639, Note_on_c, 0, 72, 0
1, 92760, Note_on_c, 0, 69, 80
1, 92879, Note_on_c, 0, 69, 0
1, 92880, Note_on_c, 0, 72, 80
1, 93119, Note_on_c, 0, 72, 0
1, 93120, Note_on_c, 0, 71, 80
1, 93359, Note_on_c, 0, 71, 0
1, 93360, Note_on_c, 0, 72, 80
1, 93479, Note_on_c, 0, 72, 0
1, 93480, Note_on_c, 0, 71, 80
1, 93599, Note_on_c, 0, 71, 0
1, 93600, Note_on_c, 0, 69, 80
1, 93839, Note_on_c, 0, 69, 0
1, 93840, Note_on_c, 0, 69, 80
1, 93959, Note_on_c, 0, 69, 0
1, 93960, Note_on_c, 0, 71, 80
1, 94079, Note_on_c, 0, 71, 0
1, 94080, Note_on_c, 0, 72, 80
1, 94319, Note_on_c, 0, 72, 0
1, 94320, Note_on_c, 0, 72, 80
1, 94559, Note_on_c, 0, 72, 0
1, 96600, Note_on_c, 0, 69, 80
1, 96719, Note_on_c, 0, 69, 0
1, 96720, Note_on_c, 0, 72, 80
1, 96959, Note_on_c, 0, 72, 0
1, 96960, Note_on_c, 0, 71, 80
1, 97199, Note_on_c, 0, 71, 0
1, 97200, Note_on_c, 0, 71, 80
1, 97319, Note_on_c, 0, 71, 0
1, 97320, Note_on_c, 0, 69, 80
1, 97559, Note_on_c, 0, 69, 0
1, 97560, Note_on_c, 0, 69, 80
1, 97679, Note_on_c, 0, 69, 0
1, 97680, Note_on_c, 0, 64, 80
1, 98399, Note_on_c, 0, 64, 0
1, 100200, Note_on_c, 0, 69, 80
1, 100319, Note_on_c, 0, 69, 0
1, 100320, Note_on_c, 0, 69, 80
1, 100559, Note_on_c, 0, 69, 0
1, 100560, Note_on_c, 0, 72, 80
1, 100799, Note_on_c, 0, 72, 0
1, 100800, Note_on_c, 0, 71, 80
1, 101039, Note_on_c, 0, 71, 0
1, 101040, Note_on_c, 0, 72, 80
1, 101159, Note_on_c, 0, 72, 0
1, 101160, Note_on_c, 0, 71, 80
1, 101279, Note_on_c, 0, 71, 0
1, 101280, Note_on_c, 0, 69, 80
1, 101519, Note_on_c, 0, 69, 0
1, 101520, Note_on_c, 0, 71, 80
1, 101759, Note_on_c, 0, 71, 0
1, 101760, Note_on_c, 0, 72, 80
1, 101999, Note_on_c, 0, 72, 0
1, 102000, Note_on_c, 0, 72, 80
1, 102119, Note_on_c, 0, 72, 0
1, 102120, Note_on_c, 0, 71, 80
1, 102239, Note_on_c, 0, 71, 0
1, 102240, Note_on_c, 0, 69, 80
1, 102719, Note_on_c, 0, 69, 0
1, 103680, Tempo, 857143
1, 104160, Tempo, 882353
1, 104400, Note_on_c, 0, 72, 80
1, 104519, Note_on_c, 0, 72, 0
1, 104520, Note_on_c, 0, 72, 80
1, 104639, Note_on_c, 0, 72, 0
1, 104640, Tempo, 923077
1, 104640, Note_on_c, 0, 74, 80
1, 104879, Note_on_c, 0, 74, 0
1, 104880, Note_on_c, 0, 76, 80
1, 104999, Note_on_c, 0, 76, 0
1, 105000, Note_on_c, 0, 74, 80
1, 105119, Note_on_c, 0, 74, 0
1, 105120, Tempo, 952381
1, 105120, Note_on_c, 0, 72, 80
1, 105359, Note_on_c, 0, 72, 0
1, 105360, Note_on_c, 0, 74, 80
1, 105599, Note_on_c, 0, 74, 0
1, 105600, Tempo, 1034483
1, 105600, Note_on_c, 0, 76, 80
1, 105719, Note_on_c, 0, 76, 0
1, 105720, Note_on_c, 0, 72, 80
1, 105839, Note_on_c, 0, 72, 0
1, 105840, Note_on_c, 0, 72, 80
1, 106559, Note_on_c, 0, 72, 0
1, 107520, Control_c, 0, 64, 0
1, 107521, End_track
2, 0, Start_track
2, 0, Title_t, "Piano\000"
2, 0, Key_signature, 0, "major"
2, 0, Control_c, 1, 121, 0
2, 0, Program_c, 1, 0
2, 0, Control_c, 1, 7, 100
2, 0, Control_c, 1, 10, 64
2, 0, Control_c, 1, 91, 0
2, 0, Control_c, 1, 93, 0
2, 0, MIDI_port, 0
2, 0, Note_on_c, 1, 52, 80
2, 0, Note_on_c, 1, 55, 80
2, 2, Control_c, 1, 64, 127
2, 227, Note_on_c, 1, 52, 0
2, 227, Note_on_c, 1, 55, 0
2, 240, Note_on_c, 1, 48, 80
2, 467, Note_on_c, 1, 48, 0
2, 480, Note_on_c, 1, 52, 80
2, 480, Note_on_c, 1, 55, 80
2, 707, Note_on_c, 1, 52, 0
2, 707, Note_on_c, 1, 55, 0
2, 720, Note_on_c, 1, 48, 80
2, 947, Note_on_c, 1, 48, 0
2, 960, Note_on_c, 1, 52, 80
2, 960, Note_on_c, 1, 55, 80
2, 1187, Note_on_c, 1, 52, 0
2, 1187, Note_on_c, 1, 55, 0
2, 1200, Note_on_c, 1, 48, 80
2, 1427, Note_on_c, 1, 48, 0
2, 1440, Note_on_c, 1, 52, 80
2, 1440, Note_on_c, 1, 55, 80
2, 1440, Note_on_c, 1, 59, 80
2, 1667, Note_on_c, 1, 52, 0
2, 1667, Note_on_c, 1, 55, 0
2, 1667, Note_on_c, 1, 59, 0
2, 1680, Note_on_c, 1, 48, 80
2, 1907, Note_on_c, 1, 48, 0
2, 1920, Note_on_c, 1, 53, 80
2, 1920, Note_on_c, 1, 57, 80
2, 2147, Note_on_c, 1, 53, 0
2, 2147, Note_on_c, 1, 57, 0
2, 2160, Note_on_c, 1, 48, 80
2, 2387, Note_on_c, 1, 48, 0
2, 2400, Note_on_c, 1, 53, 80
2, 2400, Note_on_c, 1, 57, 80
2, 2627, Note_on_c, 1, 53, 0
2, 2627, Note_on_c, 1, 57, 0
2, 2640, Note_on_c, 1, 48, 80
2, 2867, Note_on_c, 1, 48, 0
2, 2880, Note_on_c, 1, 53, 80
2, 2880, Note_on_c, 1, 57, 80
2, 3107, Note_on_c, 1, 53, 0
2, 3107, Note_on_c, 1, 57, 0
2, 3120, Note_on_c, 1, 48, 80
2, 3347, Note_on_c, 1, 48, 0
2, 3360, Note_on_c, 1, 57, 80
2, 3360, Note_on_c, 1, 53, 80
2, 3473, Note_on_c, 1, 57, 0
2, 3480, Note_on_c, 1, 57, 80
2, 3593, Note_on_c, 1, 57, 0
2, 3600, Note_on_c, 1, 59, 80
2, 3815, Note_on_c, 1, 53, 0
2, 3827, Note_on_c, 1, 59, 0
2, 3840, Note_on_c, 1, 52, 80
2, 3840, Note_on_c, 1, 55, 80
2, 4067, Note_on_c, 1, 52, 0
2, 4067, Note_on_c, 1, 55, 0
2, 4080, Note_on_c, 1, 48, 80
2, 4307, Note_on_c, 1, 48, 0
2, 4320, Note_on_c, 1, 52, 80
2, 4320, Note_on_c, 1, 55, 80
2, 4547, Note_on_c, 1, 52, 0
2, 4547, Note_on_c, 1, 55, 0
2, 4560, Note_on_c, 1, 48, 80
2, 4787, Note_on_c, 1, 48, 0
2, 4800, Note_on_c, 1, 52, 80
2, 4800, Note_on_c, 1, 55, 80
2, 5027, Note_on_c, 1, 52, 0
2, 5027, Note_on_c, 1, 55, 0
2, 5040, Note_on_c, 1, 48, 80
2, 5267, Note_on_c, 1, 48, 0
2, 5280, Note_on_c, 1, 52, 80
2, 5280, Note_on_c, 1, 55, 80
2, 5280, Note_on_c, 1, 59, 80
2, 5507, Note_on_c, 1, 52, 0
2, 5507, Note_on_c, 1, 55, 0
2, 5507, Note_on_c, 1, 59, 0
2, 5520, Note_on_c, 1, 48, 80
2, 5747, Note_on_c, 1, 48, 0
2, 5760, Note_on_c, 1, 53, 80
2, 5760, Note_on_c, 1, 57, 80
2, 5987, Note_on_c, 1, 53, 0
2, 5987, Note_on_c, 1, 57, 0
2, 6000, Note_on_c, 1, 48, 80
2, 6227, Note_on_c, 1, 48, 0
2, 6240, Note_on_c, 1, 53, 80
2, 6240, Note_on_c, 1, 57, 80
2, 6467, Note_on_c, 1, 53, 0
2, 6467, Note_on_c, 1, 57, 0
2, 6480, Note_on_c, 1, 48, 80
2, 6707, Note_on_c, 1, 48, 0
2, 6720, Note_on_c, 1, 53, 80
2, 6720, Note_on_c, 1, 57, 80
2, 6947, Note_on_c, 1, 53, 0
2, 6947, Note_on_c, 1, 57, 0
2, 6960, Note_on_c, 1, 48, 80
2, 7187, Note_on_c, 1, 48, 0
2, 7200, Note_on_c, 1, 57, 80
2, 7200, Note_on_c, 1, 53, 80
2, 7313, Note_on_c, 1, 57, 0
2, 7320, Note_on_c, 1, 57, 80
2, 7433, Note_on_c, 1, 57, 0
2, 7440, Note_on_c, 1, 59, 80
2, 7655, Note_on_c, 1, 53, 0
2, 7667, Note_on_c, 1, 59, 0
2, 7680, Note_on_c, 1, 55, 80
2, 7680, Note_on_c, 1, 62, 80
2, 7680, Note_on_c, 1, 64, 80
2, 8135, Note_on_c, 1, 55, 0
2, 8135, Note_on_c, 1, 62, 0
2, 8135, Note_on_c, 1, 64, 0
2, 8160, Note_on_c, 1, 60, 80
2, 8160, Note_on_c, 1, 64, 80
2, 8615, Note_on_c, 1, 60, 0
2, 8615, Note_on_c, 1, 64, 0
2, 8640, Note_on_c, 1, 60, 80
2, 8640, Note_on_c, 1, 64, 80
2, 9095, Note_on_c, 1, 60, 0
2, 9095, Note_on_c, 1, 64, 0
2, 9120, Note_on_c, 1, 59, 80
2, 9120, Note_on_c, 1, 64, 80
2, 9575, Note_on_c, 1, 59, 0
2, 9575, Note_on_c, 1, 64, 0
2, 9600, Note_on_c, 1, 57, 80
2, 9600, Note_on_c, 1, 60, 80
2, 10055, Note_on_c, 1, 57, 0
2, 10055, Note_on_c, 1, 60, 0
2, 10080, Note_on_c, 1, 57, 80
2, 10080, Note_on_c, 1, 60, 80
2, 10535, Note_on_c, 1, 57, 0
2, 10535, Note_on_c, 1, 60, 0
2, 10560, Note_on_c, 1, 57, 80
2, 10560, Note_on_c, 1, 60, 80
2, 11015, Note_on_c, 1, 57, 0
2, 11015, Note_on_c, 1, 60, 0
2, 11040, Note_on_c, 1, 53, 80
2, 11040, Note_on_c, 1, 57, 80
2, 11153, Note_on_c, 1, 53, 0
2, 11153, Note_on_c, 1, 57, 0
2, 11160, Note_on_c, 1, 57, 80
2, 11273, Note_on_c, 1, 57, 0
2, 11280, Note_on_c, 1, 59, 80
2, 11507, Note_on_c, 1, 59, 0
2, 11520, Note_on_c, 1, 55, 80
2, 11520, Note_on_c, 1, 62, 80
2, 11520, Note_on_c, 1, 64, 80
2, 11975, Note_on_c, 1, 55, 0
2, 11975, Note_on_c, 1, 62, 0
2, 11975, Note_on_c, 1, 64, 0
2, 12000, Note_on_c, 1, 60, 80
2, 12000, Note_on_c, 1, 64, 80
2, 12455, Note_on_c, 1, 60, 0
2, 12455, Note_on_c, 1, 64, 0
2, 12480, Note_on_c, 1, 60, 80
2, 12480, Note_on_c, 1, 64, 80
2, 12935, Note_on_c, 1, 60, 0
2, 12935, Note_on_c, 1, 64, 0
2, 12960, Note_on_c, 1, 59, 80
2, 12960, Note_on_c, 1, 64, 80
2, 13415, Note_on_c, 1, 59, 0
2, 13415, Note_on_c, 1, 64, 0
2, 13440, Note_on_c, 1, 57, 80
2, 13440, Note_on_c, 1, 60, 80
2, 13895, Note_on_c, 1, 57, 0
2, 13895, Note_on_c, 1, 60, 0
2, 13920, Note_on_c, 1, 57, 80
2, 13920, Note_on_c, 1, 60, 80
2, 14375, Note_on_c, 1, 57, 0
2, 14375, Note_on_c, 1, 60, 0
2, 14400, Note_on_c, 1, 57, 80
2, 14400, Note_on_c, 1, 60, 80
2, 14855, Note_on_c, 1, 57, 0
2, 14855, Note_on_c, 1, 60, 0
2, 14880, Note_on_c, 1, 53, 80
2, 14880, Note_on_c, 1, 57, 80
2, 14993, Note_on_c, 1, 53, 0
2, 14993, Note_on_c, 1, 57, 0
2, 15000, Note_on_c, 1, 57, 80
2, 15113, Note_on_c, 1, 57, 0
2, 15120, Note_on_c, 1, 59, 80
2, 15347, Note_on_c, 1, 59, 0
2, 15360, Note_on_c, 1, 55, 80
2, 15360, Note_on_c, 1, 62, 80
2, 15360, Note_on_c, 1, 64, 80
2, 15815, Note_on_c, 1, 55, 0
2, 15815, Note_on_c, 1, 62, 0
2, 15815, Note_on_c, 1, 64, 0
2, 15840, Note_on_c, 1, 60, 80
2, 15840, Note_on_c, 1, 64, 80
2, 16295, Note_on_c, 1, 60, 0
2, 16295, Note_on_c, 1, 64, 0
2, 16320, Note_on_c, 1, 60, 80
2, 16320, Note_on_c, 1, 64, 80
2, 16775, Note_on_c, 1, 60, 0
2, 16775, Note_on_c, 1, 64, 0
2, 16800, Note_on_c, 1, 59, 80
2, 16800, Note_on_c, 1, 64, 80
2, 17255, Note_on_c, 1, 59, 0
2, 17255, Note_on_c, 1, 64, 0
2, 17280, Note_on_c, 1, 57, 80
2, 17280, Note_on_c, 1, 60, 80
2, 17735, Note_on_c, 1, 57, 0
2, 17735, Note_on_c, 1, 60, 0
2, 17760, Note_on_c, 1, 57, 80
2, 17760, Note_on_c, 1, 60, 80
2, 18215, Note_on_c, 1, 57, 0
2, 18215, Note_on_c, 1, 60, 0
2, 18240, Note_on_c, 1, 57, 80
2, 18240, Note_on_c, 1, 60, 80
2, 18695, Note_on_c, 1, 57, 0
2, 18695, Note_on_c, 1, 60, 0
2, 18720, Note_on_c, 1, 53, 80
2, 18720, Note_on_c, 1, 57, 80
2, 18833, Note_on_c, 1, 53, 0
2, 18833, Note_on_c, 1, 57, 0
2, 18840, Note_on_c, 1, 57, 80
2, 18953, Note_on_c, 1, 57, 0
2, 18960, Note_on_c, 1, 59, 80
2, 19187, Note_on_c, 1, 59, 0
2, 19200, Note_on_c, 1, 55, 80
2, 19200, Note_on_c, 1, 62, 80
2, 19200, Note_on_c, 1, 64, 80
2, 19655, Note_on_c, 1, 55, 0
2, 19655, Note_on_c, 1, 62, 0
2, 19655, Note_on_c, 1, 64, 0
2, 19680, Note_on_c, 1, 60, 80
2, 19680, Note_on_c, 1, 64, 80
2, 20135, Note_on_c, 1, 60, 0
2, 20135, Note_on_c, 1, 64, 0
2, 20160, Note_on_c, 1, 60, 80
2, 20160, Note_on_c, 1, 64, 80
2, 20615, Note_on_c, 1, 60, 0
2, 20615, Note_on_c, 1, 64, 0
2, 20640, Note_on_c, 1, 59, 80
2, 20640, Note_on_c, 1, 64, 80
2, 21095, Note_on_c, 1, 59, 0
2, 21095, Note_on_c, 1, 64, 0
2, 21120, Note_on_c, 1, 57, 80
2, 21120, Note_on_c, 1, 60, 80
2, 21575, Note_on_c, 1, 57, 0
2, 21575, Note_on_c, 1, 60, 0
2, 21600, Note_on_c, 1, 57, 80
2, 21600, Note_on_c, 1, 60, 80
2, 22055, Note_on_c, 1, 57, 0
2, 22055, Note_on_c, 1, 60, 0
2, 22080, Note_on_c, 1, 57, 80
2, 22080, Note_on_c, 1, 60, 80
2, 22535, Note_on_c, 1, 57, 0
2, 22535, Note_on_c, 1, 60, 0
2, 22560, Note_on_c, 1, 57, 80
2, 22560, Note_on_c, 1, 60, 80
2, 23015, Note_on_c, 1, 57, 0
2, 23015, Note_on_c, 1, 60, 0
2, 23040, Note_on_c, 1, 60, 80
2, 23040, Note_on_c, 1, 65, 80
2, 23267, Note_on_c, 1, 60, 0
2, 23267, Note_on_c, 1, 65, 0
2, 23280, Note_on_c, 1, 65, 80
2, 23507, Note_on_c, 1, 65, 0
2, 23520, Note_on_c, 1, 60, 80
2, 23520, Note_on_c, 1, 65, 80
2, 23747, Note_on_c, 1, 60, 0
2, 23747, Note_on_c, 1, 65, 0
2, 23760, Note_on_c, 1, 65, 80
2, 23987, Note_on_c, 1, 65, 0
2, 24000, Note_on_c, 1, 64, 80
2, 24000, Note_on_c, 1, 69, 80
2, 24227, Note_on_c, 1, 64, 0
2, 24227, Note_on_c, 1, 69, 0
2, 24240, Note_on_c, 1, 64, 80
2, 24467, Note_on_c, 1, 64, 0
2, 24480, Note_on_c, 1, 64, 80
2, 24480, Note_on_c, 1, 69, 80
2, 24480, Note_on_c, 1, 72, 80
2, 24707, Note_on_c, 1, 64, 0
2, 24707, Note_on_c, 1, 69, 0
2, 24707, Note_on_c, 1, 72, 0
2, 24720, Note_on_c, 1, 64, 80
2, 24947, Note_on_c, 1, 64, 0
2, 24960, Note_on_c, 1, 60, 80
2, 24960, Note_on_c, 1, 62, 80
2, 24960, Note_on_c, 1, 65, 80
2, 25187, Note_on_c, 1, 60, 0
2, 25187, Note_on_c, 1, 62, 0
2, 25187, Note_on_c, 1, 65, 0
2, 25200, Note_on_c, 1, 62, 80
2, 25427, Note_on_c, 1, 62, 0
2, 25440, Note_on_c, 1, 60, 80
2, 25440, Note_on_c, 1, 62, 80
2, 25440, Note_on_c, 1, 65, 80
2, 25667, Note_on_c, 1, 60, 0
2, 25667, Note_on_c, 1, 62, 0
2, 25667, Note_on_c, 1, 65, 0
2, 25680, Note_on_c, 1, 62, 80
2, 25907, Note_on_c, 1, 62, 0
2, 25920, Note_on_c, 1, 57, 80
2, 25920, Note_on_c, 1, 60, 80
2, 25920, Note_on_c, 1, 65, 80
2, 26147, Note_on_c, 1, 57, 0
2, 26147, Note_on_c, 1, 60, 0
2, 26147, Note_on_c, 1, 65, 0
2, 26160, Note_on_c, 1, 60, 80
2, 26387, Note_on_c, 1, 60, 0
2, 26400, Note_on_c, 1, 57, 80
2, 26400, Note_on_c, 1, 60, 80
2, 26400, Note_on_c, 1, 65, 80
2, 26627, Note_on_c, 1, 57, 0
2, 26627, Note_on_c, 1, 60, 0
2, 26627, Note_on_c, 1, 65, 0
2, 26640, Note_on_c, 1, 60, 80
2, 26867, Note_on_c, 1, 60, 0
2, 26880, Note_on_c, 1, 62, 80
2, 26880, Note_on_c, 1, 67, 80
2, 27107, Note_on_c, 1, 62, 0
2, 27107, Note_on_c, 1, 67, 0
2, 27120, Note_on_c, 1, 62, 80
2, 27347, Note_on_c, 1, 62, 0
2, 27360, Note_on_c, 1, 67, 80
2, 27587, Note_on_c, 1, 67, 0
2, 27600, Note_on_c, 1, 62, 80
2, 27827, Note_on_c, 1, 62, 0
2, 27840, Note_on_c, 1, 67, 80
2, 28067, Note_on_c, 1, 67, 0
2, 28080, Note_on_c, 1, 62, 80
2, 28307, Note_on_c, 1, 62, 0
2, 28320, Note_on_c, 1, 64, 80
2, 28320, Note_on_c, 1, 67, 80
2, 28775, Note_on_c, 1, 64, 0
2, 28775, Note_on_c, 1, 67, 0
2, 28800, Note_on_c, 1, 65, 80
2, 28800, Note_on_c, 1, 71, 80
2, 30167, Note_on_c, 1, 65, 0
2, 30167, Note_on_c, 1, 71, 0
2, 30720, Note_on_c, 1, 64, 80
2, 30720, Note_on_c, 1, 67, 80
2, 31175, Note_on_c, 1, 64, 0
2, 31175, Note_on_c, 1, 67, 0
2, 31200, Note_on_c, 1, 60, 80
2, 31200, Note_on_c, 1, 64, 80
2, 31655, Note_on_c, 1, 60, 0
2, 31655, Note_on_c, 1, 64, 0
2, 31680, Note_on_c, 1, 60, 80
2, 31680, Note_on_c, 1, 64, 80
2, 32135, Note_on_c, 1, 60, 0
2, 32135, Note_on_c, 1, 64, 0
2, 32160, Note_on_c, 1, 59, 80
2, 32160, Note_on_c, 1, 64, 80
2, 32615, Note_on_c, 1, 59, 0
2, 32615, Note_on_c, 1, 64, 0
2, 32640, Note_on_c, 1, 57, 80
2, 32640, Note_on_c, 1, 60, 80
2, 33095, Note_on_c, 1, 57, 0
2, 33095, Note_on_c, 1, 60, 0
2, 33120, Note_on_c, 1, 57, 80
2, 33120, Note_on_c, 1, 60, 80
2, 33575, Note_on_c, 1, 57, 0
2, 33575, Note_on_c, 1, 60, 0
2, 33600, Note_on_c, 1, 57, 80
2, 33600, Note_on_c, 1, 60, 80
2, 34055, Note_on_c, 1, 57, 0
2, 34055, Note_on_c, 1, 60, 0
2, 34080, Note_on_c, 1, 53, 80
2, 34080, Note_on_c, 1, 57, 80
2, 34193, Note_on_c, 1, 53, 0
2, 34193, Note_on_c, 1, 57, 0
2, 34200, Note_on_c, 1, 57, 80
2, 34313, Note_on_c, 1, 57, 0
2, 34320, Note_on_c, 1, 59, 80
2, 34547, Note_on_c, 1, 59, 0
2, 34560, Note_on_c, 1, 55, 80
2, 34560, Note_on_c, 1, 62, 80
2, 34560, Note_on_c, 1, 64, 80
2, 35015, Note_on_c, 1, 55, 0
2, 35015, Note_on_c, 1, 62, 0
2, 35015, Note_on_c, 1, 64, 0
2, 35040, Note_on_c, 1, 60, 80
2, 35040, Note_on_c, 1, 64, 80
2, 35495, Note_on_c, 1, 60, 0
2, 35495, Note_on_c, 1, 64, 0
2, 35520, Note_on_c, 1, 60, 80
2, 35520, Note_on_c, 1, 64, 80
2, 35975, Note_on_c, 1, 60, 0
2, 35975, Note_on_c, 1, 64, 0
2, 36000, Note_on_c, 1, 59, 80
2, 36000, Note_on_c, 1, 64, 80
2, 36455, Note_on_c, 1, 59, 0
2, 36455, Note_on_c, 1, 64, 0
2, 36480, Note_on_c, 1, 57, 80
2, 36480, Note_on_c, 1, 60, 80
2, 36935, Note_on_c, 1, 57, 0
2, 36935, Note_on_c, 1, 60, 0
2, 36960, Note_on_c, 1, 57, 80
2, 36960, Note_on_c, 1, 60, 80
2, 37415, Note_on_c, 1, 57, 0
2, 37415, Note_on_c, 1, 60, 0
2, 37440, Note_on_c, 1, 57, 80
2, 37440, Note_on_c, 1, 60, 80
2, 37895, Note_on_c, 1, 57, 0
2, 37895, Note_on_c, 1, 60, 0
2, 37920, Note_on_c, 1, 53, 80
2, 37920, Note_on_c, 1, 57, 80
2, 38033, Note_on_c, 1, 53, 0
2, 38033, Note_on_c, 1, 57, 0
2, 38040, Note_on_c, 1, 57, 80
2, 38153, Note_on_c, 1, 57, 0
2, 38160, Note_on_c, 1, 59, 80
2, 38387, Note_on_c, 1, 59, 0
2, 38400, Note_on_c, 1, 55, 80
2, 38400, Note_on_c, 1, 62, 80
2, 38400, Note_on_c, 1, 64, 80
2, 38855, Note_on_c, 1, 55, 0
2, 38855, Note_on_c, 1, 62, 0
2, 38855, Note_on_c, 1, 64, 0
2, 38880, Note_on_c, 1, 60, 80
2, 38880, Note_on_c, 1, 64, 80
2, 39335, Note_on_c, 1, 60, 0
2, 39335, Note_on_c, 1, 64, 0
2, 39360, Note_on_c, 1, 60, 80
2, 39360, Note_on_c, 1, 64, 80
2, 39815, Note_on_c, 1, 60, 0
2, 39815, Note_on_c, 1, 64, 0
2, 39840, Note_on_c, 1, 59, 80
2, 39840, Note_on_c, 1, 64, 80
2, 40295, Note_on_c, 1, 59, 0
2, 40295, Note_on_c, 1, 64, 0
2, 40320, Note_on_c, 1, 57, 80
2, 40320, Note_on_c, 1, 60, 80
2, 40775, Note_on_c, 1, 57, 0
2, 40775, Note_on_c, 1, 60, 0
2, 40800, Note_on_c, 1, 57, 80
2, 40800, Note_on_c, 1, 60, 80
2, 41255, Note_on_c, 1, 57, 0
2, 41255, Note_on_c, 1, 60, 0
2, 41280, Note_on_c, 1, 57, 80
2, 41280, Note_on_c, 1, 60, 80
2, 41735, Note_on_c, 1, 57, 0
2, 41735, Note_on_c, 1, 60, 0
2, 41760, Note_on_c, 1, 53, 80
2, 41760, Note_on_c, 1, 57, 80
2, 41873, Note_on_c, 1, 53, 0
2, 41873, Note_on_c, 1, 57, 0
2, 41880, Note_on_c, 1, 57, 80
2, 41993, Note_on_c, 1, 57, 0
2, 42000, Note_on_c, 1, 59, 80
2, 42227, Note_on_c, 1, 59, 0
2, 42240, Note_on_c, 1, 55, 80
2, 42240, Note_on_c, 1, 62, 80
2, 42240, Note_on_c, 1, 64, 80
2, 42695, Note_on_c, 1, 55, 0
2, 42695, Note_on_c, 1, 62, 0
2, 42695, Note_on_c, 1, 64, 0
2, 42720, Note_on_c, 1, 60, 80
2, 42720, Note_on_c, 1, 64, 80
2, 43175, Note_on_c, 1, 60, 0
2, 43175, Note_on_c, 1, 64, 0
2, 43200, Note_on_c, 1, 60, 80
2, 43200, Note_on_c, 1, 64, 80
2, 43655, Note_on_c, 1, 60, 0
2, 43655, Note_on_c, 1, 64, 0
2, 43680, Note_on_c, 1, 59, 80
2, 43680, Note_on_c, 1, 64, 80
2, 44135, Note_on_c, 1, 59, 0
2, 44135, Note_on_c, 1, 64, 0
2, 44160, Note_on_c, 1, 57, 80
2, 44160, Note_on_c, 1, 60, 80
2, 44615, Note_on_c, 1, 57, 0
2, 44615, Note_on_c, 1, 60, 0
2, 44640, Note_on_c, 1, 57, 80
2, 44640, Note_on_c, 1, 60, 80
2, 45095, Note_on_c, 1, 57, 0
2, 45095, Note_on_c, 1, 60, 0
2, 45120, Note_on_c, 1, 57, 80
2, 45120, Note_on_c, 1, 60, 80
2, 45575, Note_on_c, 1, 57, 0
2, 45575, Note_on_c, 1, 60, 0
2, 45600, Note_on_c, 1, 57, 80
2, 45600, Note_on_c, 1, 60, 80
2, 46055, Note_on_c, 1, 57, 0
2, 46055, Note_on_c, 1, 60, 0
2, 46080, Note_on_c, 1, 60, 80
2, 46080, Note_on_c, 1, 65, 80
2, 46421, Note_on_c, 1, 60, 0
2, 46421, Note_on_c, 1, 65, 0
2, 46440, Note_on_c, 1, 60, 80
2, 46440, Note_on_c, 1, 65, 80
2, 46553, Note_on_c, 1, 60, 0
2, 46553, Note_on_c, 1, 65, 0
2, 46560, Note_on_c, 1, 60, 80
2, 46560, Note_on_c, 1, 65, 80
2, 47015, Note_on_c, 1, 60, 0
2, 47015, Note_on_c, 1, 65, 0
2, 47040, Note_on_c, 1, 64, 80
2, 47040, Note_on_c, 1, 69, 80
2, 47495, Note_on_c, 1, 64, 0
2, 47495, Note_on_c, 1, 69, 0
2, 47520, Note_on_c, 1, 64, 80
2, 47520, Note_on_c, 1, 69, 80
2, 47520, Note_on_c, 1, 72, 80
2, 47747, Note_on_c, 1, 64, 0
2, 47747, Note_on_c, 1, 69, 0
2, 47747, Note_on_c, 1, 72, 0
2, 47760, Note_on_c, 1, 64, 80
2, 47760, Note_on_c, 1, 69, 80
2, 47760, Note_on_c, 1, 72, 80
2, 47987, Note_on_c, 1, 64, 0
2, 47987, Note_on_c, 1, 69, 0
2, 47987, Note_on_c, 1, 72, 0
2, 48000, Note_on_c, 1, 60, 80
2, 48000, Note_on_c, 1, 65, 80
2, 48455, Note_on_c, 1, 60, 0
2, 48455, Note_on_c, 1, 65, 0
2, 48480, Note_on_c, 1, 60, 80
2, 48480, Note_on_c, 1, 65, 80
2, 48935, Note_on_c, 1, 60, 0
2, 48935, Note_on_c, 1, 65, 0
2, 48960, Note_on_c, 1, 57, 80
2, 48960, Note_on_c, 1, 60, 80
2, 48960, Note_on_c, 1, 65, 80
2, 49415, Note_on_c, 1, 57, 0
2, 49415, Note_on_c, 1, 60, 0
2, 49415, Note_on_c, 1, 65, 0
2, 49440, Note_on_c, 1, 60, 80
2, 49440, Note_on_c, 1, 65, 80
2, 49440, Note_on_c, 1, 69, 80
2, 49895, Note_on_c, 1, 60, 0
2, 49895, Note_on_c, 1, 65, 0
2, 49895, Note_on_c, 1, 69, 0
2, 49920, Note_on_c, 1, 62, 80
2, 49920, Note_on_c, 1, 67, 80
2, 50147, Note_on_c, 1, 62, 0
2, 50147, Note_on_c, 1, 67, 0
2, 50160, Note_on_c, 1, 62, 80
2, 50160, Note_on_c, 1, 67, 80
2, 50387, Note_on_c, 1, 62, 0
2, 50387, Note_on_c, 1, 67, 0
2, 50400, Note_on_c, 1, 67, 80
2, 50627, Note_on_c, 1, 67, 0
2, 50640, Note_on_c, 1, 62, 80
2, 50867, Note_on_c, 1, 62, 0
2, 50880, Note_on_c, 1, 62, 80
2, 50880, Note_on_c, 1, 67, 80
2, 51107, Note_on_c, 1, 62, 0
2, 51107, Note_on_c, 1, 67, 0
2, 51120, Note_on_c, 1, 62, 80
2, 51347, Note_on_c, 1, 62, 0
2, 51360, Note_on_c, 1, 64, 80
2, 51360, Note_on_c, 1, 67, 80
2, 51587, Note_on_c, 1, 64, 0
2, 51587, Note_on_c, 1, 67, 0
2, 51600, Note_on_c, 1, 64, 80
2, 51600, Note_on_c, 1, 67, 80
2, 51600, Note_on_c, 1, 71, 80
2, 51827, Note_on_c, 1, 64, 0
2, 51827, Note_on_c, 1, 67, 0
2, 51827, Note_on_c, 1, 71, 0
2, 51840, Note_on_c, 1, 65, 80
2, 51840, Note_on_c, 1, 71, 80
2, 53207, Note_on_c, 1, 65, 0
2, 53207, Note_on_c, 1, 71, 0
2, 53760, Note_on_c, 1, 65, 80
2, 53760, Note_on_c, 1, 69, 80
2, 54000, Note_on_c, 1, 60, 80
2, 54227, Note_on_c, 1, 60, 0
2, 54240, Note_on_c, 1, 65, 0
2, 54240, Note_on_c, 1, 65, 80
2, 54443, Note_on_c, 1, 69, 0
2, 54467, Note_on_c, 1, 65, 0
2, 54480, Note_on_c, 1, 60, 80
2, 54480, Note_on_c, 1, 65, 80
2, 54480, Note_on_c, 1, 69, 80
2, 54707, Note_on_c, 1, 60, 0
2, 54707, Note_on_c, 1, 65, 0
2, 54707, Note_on_c, 1, 69, 0
2, 54720, Note_on_c, 1, 62, 80
2, 54720, Note_on_c, 1, 67, 80
2, 54960, Note_on_c, 1, 62, 0
2, 54960, Note_on_c, 1, 62, 80
2, 55200, Note_on_c, 1, 67, 0
2, 55200, Note_on_c, 1, 67, 80
2, 55403, Note_on_c, 1, 62, 0
2, 55427, Note_on_c, 1, 67, 0
2, 55440, Note_on_c, 1, 62, 80
2, 55667, Note_on_c, 1, 62, 0
2, 55680, Note_on_c, 1, 64, 80
2, 55680, Note_on_c, 1, 67, 80
2, 55907, Note_on_c, 1, 64, 0
2, 55907, Note_on_c, 1, 67, 0
2, 55920, Note_on_c, 1, 55, 80
2, 56147, Note_on_c, 1, 55, 0
2, 56160, Note_on_c, 1, 55, 80
2, 56160, Note_on_c, 1, 59, 80
2, 56387, Note_on_c, 1, 55, 0
2, 56387, Note_on_c, 1, 59, 0
2, 56400, Note_on_c, 1, 55, 80
2, 56400, Note_on_c, 1, 60, 80
2, 56627, Note_on_c, 1, 55, 0
2, 56627, Note_on_c, 1, 60, 0
2, 56640, Note_on_c, 1, 59, 80
2, 56640, Note_on_c, 1, 64, 80
2, 56867, Note_on_c, 1, 59, 0
2, 56867, Note_on_c, 1, 64, 0
2, 56880, Note_on_c, 1, 59, 80
2, 57107, Note_on_c, 1, 59, 0
2, 57120, Note_on_c, 1, 59, 80
2, 57120, Note_on_c, 1, 62, 80
2, 57347, Note_on_c, 1, 59, 0
2, 57347, Note_on_c, 1, 62, 0
2, 57360, Note_on_c, 1, 59, 80
2, 57587, Note_on_c, 1, 59, 0
2, 57600, Note_on_c, 1, 57, 80
2, 57600, Note_on_c, 1, 60, 80
2, 57600, Note_on_c, 1, 65, 80
2, 57827, Note_on_c, 1, 57, 0
2, 57827, Note_on_c, 1, 60, 0
2, 57827, Note_on_c, 1, 65, 0
2, 57840, Note_on_c, 1, 60, 80
2, 58067, Note_on_c, 1, 60, 0
2, 58080, Note_on_c, 1, 57, 80
2, 58080, Note_on_c, 1, 60, 80
2, 58080, Note_on_c, 1, 65, 80
2, 58307, Note_on_c, 1, 57, 0
2, 58307, Note_on_c, 1, 60, 0
2, 58307, Note_on_c, 1, 65, 0
2, 58320, Note_on_c, 1, 60, 80
2, 58547, Note_on_c, 1, 60, 0
2, 58560, Note_on_c, 1, 59, 80
2, 58560, Note_on_c, 1, 62, 80
2, 58560, Note_on_c, 1, 67, 80
2, 58787, Note_on_c, 1, 59, 0
2, 58787, Note_on_c, 1, 62, 0
2, 58787, Note_on_c, 1, 67, 0
2, 58800, Note_on_c, 1, 62, 80
2, 59027, Note_on_c, 1, 62, 0
2, 59040, Note_on_c, 1, 67, 80
2, 59267, Note_on_c, 1, 67, 0
2, 59280, Note_on_c, 1, 59, 80
2, 59280, Note_on_c, 1, 62, 80
2, 59507, Note_on_c, 1, 59, 0
2, 59507, Note_on_c, 1, 62, 0
2, 59520, Note_on_c, 1, 60, 80
2, 59747, Note_on_c, 1, 60, 0
2, 59760, Note_on_c, 1, 55, 80
2, 59987, Note_on_c, 1, 55, 0
2, 60000, Note_on_c, 1, 55, 80
2, 60000, Note_on_c, 1, 59, 80
2, 60227, Note_on_c, 1, 55, 0
2, 60227, Note_on_c, 1, 59, 0
2, 60240, Note_on_c, 1, 55, 80
2, 60240, Note_on_c, 1, 60, 80
2, 60467, Note_on_c, 1, 55, 0
2, 60467, Note_on_c, 1, 60, 0
2, 60480, Note_on_c, 1, 59, 80
2, 60480, Note_on_c, 1, 64, 80
2, 60707, Note_on_c, 1, 59, 0
2, 60707, Note_on_c, 1, 64, 0
2, 60720, Note_on_c, 1, 59, 80
2, 60947, Note_on_c, 1, 59, 0
2, 60960, Note_on_c, 1, 59, 80
2, 60960, Note_on_c, 1, 62, 80
2, 61187, Note_on_c, 1, 59, 0
2, 61187, Note_on_c, 1, 62, 0
2, 61200, Note_on_c, 1, 59, 80
2, 61427, Note_on_c, 1, 59, 0
2, 61440, Note_on_c, 1, 57, 80
2, 61440, Note_on_c, 1, 60, 80
2, 61440, Note_on_c, 1, 65, 80
2, 61667, Note_on_c, 1, 57, 0
2, 61667, Note_on_c, 1, 60, 0
2, 61667, Note_on_c, 1, 65, 0
2, 61680, Note_on_c, 1, 60, 80
2, 61907, Note_on_c, 1, 60, 0
2, 61920, Note_on_c, 1, 60, 80
2, 61920, Note_on_c, 1, 65, 80
2, 62147, Note_on_c, 1, 60, 0
2, 62147, Note_on_c, 1, 65, 0
2, 62160, Note_on_c, 1, 60, 80
2, 62387, Note_on_c, 1, 60, 0
2, 62400, Note_on_c, 1, 59, 80
2, 62400, Note_on_c, 1, 62, 80
2, 62400, Note_on_c, 1, 67, 80
2, 62627, Note_on_c, 1, 59, 0
2, 62627, Note_on_c, 1, 62, 0
2, 62627, Note_on_c, 1, 67, 0
2, 62640, Note_on_c, 1, 62, 80
2, 62867, Note_on_c, 1, 62, 0
2, 62880, Note_on_c, 1, 67, 80
2, 63107, Note_on_c, 1, 67, 0
2, 63120, Note_on_c, 1, 59, 80
2, 63120, Note_on_c, 1, 62, 80
2, 63347, Note_on_c, 1, 59, 0
2, 63347, Note_on_c, 1, 62, 0
2, 63360, Note_on_c, 1, 55, 80
2, 63360, Note_on_c, 1, 60, 80
2, 63587, Note_on_c, 1, 55, 0
2, 63587, Note_on_c, 1, 60, 0
2, 63600, Note_on_c, 1, 55, 80
2, 63827, Note_on_c, 1, 55, 0
2, 63840, Note_on_c, 1, 55, 80
2, 63840, Note_on_c, 1, 59, 80
2, 64067, Note_on_c, 1, 55, 0
2, 64067, Note_on_c, 1, 59, 0
2, 64080, Note_on_c, 1, 55, 80
2, 64080, Note_on_c, 1, 60, 80
2, 64307, Note_on_c, 1, 55, 0
2, 64307, Note_on_c, 1, 60, 0
2, 64320, Note_on_c, 1, 59, 80
2, 64320, Note_on_c, 1, 64, 80
2, 64547, Note_on_c, 1, 59, 0
2, 64547, Note_on_c, 1, 64, 0
2, 64560, Note_on_c, 1, 59, 80
2, 64787, Note_on_c, 1, 59, 0
2, 64800, Note_on_c, 1, 59, 80
2, 64800, Note_on_c, 1, 62, 80
2, 65027, Note_on_c, 1, 59, 0
2, 65027, Note_on_c, 1, 62, 0
2, 65040, Note_on_c, 1, 59, 80
2, 65267, Note_on_c, 1, 59, 0
2, 65280, Note_on_c, 1, 57, 80
2, 65280, Note_on_c, 1, 60, 80
2, 65280, Note_on_c, 1, 65, 80
2, 65507, Note_on_c, 1, 57, 0
2, 65507, Note_on_c, 1, 60, 0
2, 65507, Note_on_c, 1, 65, 0
2, 65520, Note_on_c, 1, 60, 80
2, 65747, Note_on_c, 1, 60, 0
2, 65760, Note_on_c, 1, 65, 80
2, 65760, Note_on_c, 1, 69, 80
2, 65987, Note_on_c, 1, 65, 0
2, 65987, Note_on_c, 1, 69, 0
2, 66000, Note_on_c, 1, 60, 80
2, 66227, Note_on_c, 1, 60, 0
2, 66240, Note_on_c, 1, 67, 80
2, 66240, Note_on_c, 1, 71, 80
2, 66467, Note_on_c, 1, 67, 0
2, 66467, Note_on_c, 1, 71, 0
2, 66480, Note_on_c, 1, 62, 80
2, 66707, Note_on_c, 1, 62, 0
2, 66720, Note_on_c, 1, 67, 80
2, 66947, Note_on_c, 1, 67, 0
2, 66960, Note_on_c, 1, 62, 80
2, 67187, Note_on_c, 1, 62, 0
2, 67200, Note_on_c, 1, 64, 80
2, 67200, Note_on_c, 1, 67, 80
2, 67427, Note_on_c, 1, 64, 0
2, 67427, Note_on_c, 1, 67, 0
2, 67440, Note_on_c, 1, 60, 80
2, 67667, Note_on_c, 1, 60, 0
2, 67680, Note_on_c, 1, 55, 80
2, 67907, Note_on_c, 1, 55, 0
2, 67920, Note_on_c, 1, 60, 80
2, 68147, Note_on_c, 1, 60, 0
2, 68160, Note_on_c, 1, 57, 80
2, 68387, Note_on_c, 1, 57, 0
2, 68400, Note_on_c, 1, 60, 80
2, 68627, Note_on_c, 1, 60, 0
2, 68640, Note_on_c, 1, 59, 80
2, 68867, Note_on_c, 1, 59, 0
2, 68880, Note_on_c, 1, 60, 80
2, 69107, Note_on_c, 1, 60, 0
2, 69120, Note_on_c, 1, 64, 80
2, 69120, Note_on_c, 1, 67, 80
2, 69120, Note_on_c, 1, 72, 80
2, 69461, Note_on_c, 1, 64, 0
2, 69461, Note_on_c, 1, 67, 0
2, 69461, Note_on_c, 1, 72, 0
2, 69480, Note_on_c, 1, 64, 80
2, 69593, Note_on_c, 1, 64, 0
2, 69600, Note_on_c, 1, 60, 80
2, 69600, Note_on_c, 1, 64, 80
2, 70055, Note_on_c, 1, 60, 0
2, 70055, Note_on_c, 1, 64, 0
2, 70080, Note_on_c, 1, 60, 80
2, 70080, Note_on_c, 1, 64, 80
2, 70080, Note_on_c, 1, 67, 80
2, 70535, Note_on_c, 1, 60, 0
2, 70535, Note_on_c, 1, 64, 0
2, 70535, Note_on_c, 1, 67, 0
2, 70560, Note_on_c, 1, 59, 80
2, 70560, Note_on_c, 1, 64, 80
2, 70560, Note_on_c, 1, 67, 80
2, 70787, Note_on_c, 1, 59, 0
2, 70787, Note_on_c, 1, 64, 0
2, 70787, Note_on_c, 1, 67, 0
2, 70800, Note_on_c, 1, 67, 80
2, 71027, Note_on_c, 1, 67, 0
2, 71040, Note_on_c, 1, 57, 80
2, 71040, Note_on_c, 1, 60, 80
2, 71040, Note_on_c, 1, 64, 80
2, 71381, Note_on_c, 1, 57, 0
2, 71381, Note_on_c, 1, 60, 0
2, 71381, Note_on_c, 1, 64, 0
2, 71400, Note_on_c, 1, 57, 80
2, 71400, Note_on_c, 1, 60, 80
2, 71513, Note_on_c, 1, 57, 0
2, 71513, Note_on_c, 1, 60, 0
2, 71520, Note_on_c, 1, 57, 80
2, 71520, Note_on_c, 1, 60, 80
2, 71861, Note_on_c, 1, 57, 0
2, 71861, Note_on_c, 1, 60, 0
2, 71880, Note_on_c, 1, 57, 80
2, 71880, Note_on_c, 1, 60, 80
2, 71993, Note_on_c, 1, 57, 0
2, 71993, Note_on_c, 1, 60, 0
2, 72000, Note_on_c, 1, 57, 80
2, 72000, Note_on_c, 1, 60, 80
2, 72455, Note_on_c, 1, 57, 0
2, 72455, Note_on_c, 1, 60, 0
2, 72480, Note_on_c, 1, 57, 80
2, 72593, Note_on_c, 1, 57, 0
2, 72600, Note_on_c, 1, 57, 80
2, 72713, Note_on_c, 1, 57, 0
2, 72720, Note_on_c, 1, 59, 80
2, 72947, Note_on_c, 1, 59, 0
2, 72960, Note_on_c, 1, 55, 80
2, 73301, Note_on_c, 1, 55, 0
2, 73320, Note_on_c, 1, 64, 80
2, 73433, Note_on_c, 1, 64, 0
2, 73440, Note_on_c, 1, 60, 80
2, 73895, Note_on_c, 1, 60, 0
2, 73920, Note_on_c, 1, 60, 80
2, 73920, Note_on_c, 1, 64, 80
2, 74261, Note_on_c, 1, 60, 0
2, 74261, Note_on_c, 1, 64, 0
2, 74280, Note_on_c, 1, 64, 80
2, 74393, Note_on_c, 1, 64, 0
2, 74400, Note_on_c, 1, 59, 80
2, 74400, Note_on_c, 1, 64, 80
2, 74855, Note_on_c, 1, 59, 0
2, 74855, Note_on_c, 1, 64, 0
2, 74880, Note_on_c, 1, 57, 80
2, 74880, Note_on_c, 1, 60, 80
2, 74880, Note_on_c, 1, 64, 80
2, 75221, Note_on_c, 1, 57, 0
2, 75221, Note_on_c, 1, 60, 0
2, 75221, Note_on_c, 1, 64, 0
2, 75240, Note_on_c, 1, 57, 80
2, 75240, Note_on_c, 1, 60, 80
2, 75353, Note_on_c, 1, 57, 0
2, 75353, Note_on_c, 1, 60, 0
2, 75360, Note_on_c, 1, 57, 80
2, 75360, Note_on_c, 1, 60, 80
2, 75701, Note_on_c, 1, 57, 0
2, 75701, Note_on_c, 1, 60, 0
2, 75720, Note_on_c, 1, 57, 80
2, 75720, Note_on_c, 1, 60, 80
2, 75833, Note_on_c, 1, 57, 0
2, 75833, Note_on_c, 1, 60, 0
2, 75840, Note_on_c, 1, 57, 80
2, 75840, Note_on_c, 1, 60, 80
2, 76295, Note_on_c, 1, 57, 0
2, 76295, Note_on_c, 1, 60, 0
2, 76320, Note_on_c, 1, 57, 80
2, 76433, Note_on_c, 1, 57, 0
2, 76440, Note_on_c, 1, 57, 80
2, 76553, Note_on_c, 1, 57, 0
2, 76560, Note_on_c, 1, 59, 80
2, 76787, Note_on_c, 1, 59, 0
2, 76800, Note_on_c, 1, 55, 80
2, 77141, Note_on_c, 1, 55, 0
2, 77160, Note_on_c, 1, 64, 80
2, 77273, Note_on_c, 1, 64, 0
2, 77280, Note_on_c, 1, 60, 80
2, 77280, Note_on_c, 1, 64, 80
2, 77735, Note_on_c, 1, 60, 0
2, 77735, Note_on_c, 1, 64, 0
2, 77760, Note_on_c, 1, 60, 80
2, 77760, Note_on_c, 1, 64, 80
2, 78101, Note_on_c, 1, 60, 0
2, 78101, Note_on_c, 1, 64, 0
2, 78120, Note_on_c, 1, 64, 80
2, 78233, Note_on_c, 1, 64, 0
2, 78240, Note_on_c, 1, 59, 80
2, 78240, Note_on_c, 1, 64, 80
2, 78240, Note_on_c, 1, 67, 80
2, 78695, Note_on_c, 1, 59, 0
2, 78695, Note_on_c, 1, 64, 0
2, 78695, Note_on_c, 1, 67, 0
2, 78720, Note_on_c, 1, 57, 80
2, 78720, Note_on_c, 1, 60, 80
2, 78720, Note_on_c, 1, 64, 80
2, 79061, Note_on_c, 1, 57, 0
2, 79061, Note_on_c, 1, 60, 0
2, 79061, Note_on_c, 1, 64, 0
2, 79080, Note_on_c, 1, 57, 80
2, 79080, Note_on_c, 1, 60, 80
2, 79193, Note_on_c, 1, 57, 0
2, 79193, Note_on_c, 1, 60, 0
2, 79200, Note_on_c, 1, 57, 80
2, 79200, Note_on_c, 1, 60, 80
2, 79541, Note_on_c, 1, 57, 0
2, 79541, Note_on_c, 1, 60, 0
2, 79560, Note_on_c, 1, 57, 80
2, 79560, Note_on_c, 1, 60, 80
2, 79673, Note_on_c, 1, 57, 0
2, 79673, Note_on_c, 1, 60, 0
2, 79680, Note_on_c, 1, 57, 80
2, 79680, Note_on_c, 1, 60, 80
2, 80135, Note_on_c, 1, 57, 0
2, 80135, Note_on_c, 1, 60, 0
2, 80160, Note_on_c, 1, 57, 80
2, 80273, Note_on_c, 1, 57, 0
2, 80280, Note_on_c, 1, 57, 80
2, 80393, Note_on_c, 1, 57, 0
2, 80400, Note_on_c, 1, 59, 80
2, 80627, Note_on_c, 1, 59, 0
2, 80640, Note_on_c, 1, 55, 80
2, 80981, Note_on_c, 1, 55, 0
2, 81000, Note_on_c, 1, 64, 80
2, 81113, Note_on_c, 1, 64, 0
2, 81120, Note_on_c, 1, 60, 80
2, 81575, Note_on_c, 1, 60, 0
2, 81600, Note_on_c, 1, 60, 80
2, 81941, Note_on_c, 1, 60, 0
2, 82080, Note_on_c, 1, 59, 80
2, 82080, Note_on_c, 1, 64, 80
2, 82535, Note_on_c, 1, 59, 0
2, 82535, Note_on_c, 1, 64, 0
2, 82560, Note_on_c, 1, 57, 80
2, 82560, Note_on_c, 1, 60, 80
2, 82901, Note_on_c, 1, 57, 0
2, 82901, Note_on_c, 1, 60, 0
2, 82920, Note_on_c, 1, 57, 80
2, 82920, Note_on_c, 1, 60, 80
2, 83033, Note_on_c, 1, 57, 0
2, 83033, Note_on_c, 1, 60, 0
2, 83040, Note_on_c, 1, 57, 80
2, 83040, Note_on_c, 1, 60, 80
2, 83495, Note_on_c, 1, 57, 0
2, 83495, Note_on_c, 1, 60, 0
2, 83520, Note_on_c, 1, 57, 80
2, 83520, Note_on_c, 1, 60, 80
2, 83861, Note_on_c, 1, 57, 0
2, 83861, Note_on_c, 1, 60, 0
2, 83880, Note_on_c, 1, 57, 80
2, 83880, Note_on_c, 1, 60, 80
2, 83993, Note_on_c, 1, 57, 0
2, 83993, Note_on_c, 1, 60, 0
2, 84000, Note_on_c, 1, 57, 80
2, 84000, Note_on_c, 1, 60, 80
2, 84113, Note_on_c, 1, 57, 0
2, 84113, Note_on_c, 1, 60, 0
2, 84120, Note_on_c, 1, 57, 80
2, 84233, Note_on_c, 1, 57, 0
2, 84240, Note_on_c, 1, 59, 80
2, 84353, Note_on_c, 1, 59, 0
2, 84960, Note_on_c, 1, 60, 80
2, 84960, Note_on_c, 1, 65, 80
2, 84960, Note_on_c, 1, 69, 80
2, 85301, Note_on_c, 1, 60, 0
2, 85301, Note_on_c, 1, 65, 0
2, 85301, Note_on_c, 1, 69, 0
2, 85320, Note_on_c, 1, 65, 80
2, 85320, Note_on_c, 1, 69, 80
2, 85433, Note_on_c, 1, 65, 0
2, 85433, Note_on_c, 1, 69, 0
2, 85440, Note_on_c, 1, 64, 80
2, 85440, Note_on_c, 1, 69, 80
2, 85895, Note_on_c, 1, 64, 0
2, 85895, Note_on_c, 1, 69, 0
2, 85920, Note_on_c, 1, 69, 80
2, 85920, Note_on_c, 1, 72, 80
2, 86147, Note_on_c, 1, 69, 0
2, 86147, Note_on_c, 1, 72, 0
2, 86160, Note_on_c, 1, 69, 80
2, 86160, Note_on_c, 1, 72, 80
2, 86387, Note_on_c, 1, 69, 0
2, 86387, Note_on_c, 1, 72, 0
2, 86400, Note_on_c, 1, 60, 80
2, 86400, Note_on_c, 1, 65, 80
2, 86400, Note_on_c, 1, 69, 80
2, 86400, Note_on_c, 1, 74, 80
2, 86741, Note_on_c, 1, 60, 0
2, 86741, Note_on_c, 1, 65, 0
2, 86741, Note_on_c, 1, 69, 0
2, 86741, Note_on_c, 1, 74, 0
2, 86760, Note_on_c, 1, 60, 80
2, 86760, Note_on_c, 1, 65, 80
2, 86760, Note_on_c, 1, 69, 80
2, 86873, Note_on_c, 1, 60, 0
2, 86873, Note_on_c, 1, 65, 0
2, 86873, Note_on_c, 1, 69, 0
2, 86880, Note_on_c, 1, 60, 80
2, 86880, Note_on_c, 1, 65, 80
2, 87335, Note_on_c, 1, 60, 0
2, 87335, Note_on_c, 1, 65, 0
2, 87360, Note_on_c, 1, 57, 80
2, 87360, Note_on_c, 1, 60, 80
2, 87360, Note_on_c, 1, 65, 80
2, 87701, Note_on_c, 1, 57, 0
2, 87701, Note_on_c, 1, 60, 0
2, 87701, Note_on_c, 1, 65, 0
2, 87720, Note_on_c, 1, 57, 80
2, 87720, Note_on_c, 1, 60, 80
2, 87720, Note_on_c, 1, 65, 80
2, 87833, Note_on_c, 1, 57, 0
2, 87833, Note_on_c, 1, 60, 0
2, 87833, Note_on_c, 1, 65, 0
2, 87840, Note_on_c, 1, 60, 80
2, 87840, Note_on_c, 1, 65, 80
2, 87840, Note_on_c, 1, 72, 80
2, 88295, Note_on_c, 1, 60, 0
2, 88295, Note_on_c, 1, 65, 0
2, 88295, Note_on_c, 1, 72, 0
2, 88560, Note_on_c, 1, 50, 80
2, 88787, Note_on_c, 1, 50, 0
2, 88800, Note_on_c, 1, 55, 80
2, 89027, Note_on_c, 1, 55, 0
2, 89040, Note_on_c, 1, 50, 80
2, 89267, Note_on_c, 1, 50, 0
2, 89280, Note_on_c, 1, 55, 80
2, 89507, Note_on_c, 1, 55, 0
2, 89520, Note_on_c, 1, 50, 80
2, 89747, Note_on_c, 1, 50, 0
2, 89760, Note_on_c, 1, 64, 80
2, 89760, Note_on_c, 1, 67, 80
2, 89987, Note_on_c, 1, 64, 0
2, 89987, Note_on_c, 1, 67, 0
2, 90000, Note_on_c, 1, 71, 80
2, 90227, Note_on_c, 1, 71, 0
2, 90240, Note_on_c, 1, 71, 80
2, 90240, Note_on_c, 1, 65, 80
2, 91151, Note_on_c, 1, 71, 0
2, 92063, Note_on_c, 1, 65, 0
2, 92160, Note_on_c, 1, 53, 80
2, 92387, Note_on_c, 1, 53, 0
2, 92400, Note_on_c, 1, 57, 80
2, 92627, Note_on_c, 1, 57, 0
2, 92640, Note_on_c, 1, 60, 80
2, 92867, Note_on_c, 1, 60, 0
2, 92880, Note_on_c, 1, 65, 80
2, 93107, Note_on_c, 1, 65, 0
2, 93120, Note_on_c, 1, 55, 80
2, 93347, Note_on_c, 1, 55, 0
2, 93360, Note_on_c, 1, 59, 80
2, 93587, Note_on_c, 1, 59, 0
2, 93600, Note_on_c, 1, 62, 80
2, 93827, Note_on_c, 1, 62, 0
2, 93840, Note_on_c, 1, 59, 80
2, 94067, Note_on_c, 1, 59, 0
2, 94080, Note_on_c, 1, 48, 80
2, 94307, Note_on_c, 1, 48, 0
2, 94320, Note_on_c, 1, 55, 80
2, 94547, Note_on_c, 1, 55, 0
2, 94560, Note_on_c, 1, 60, 80
2, 94787, Note_on_c, 1, 60, 0
2, 94800, Note_on_c, 1, 64, 80
2, 95027, Note_on_c, 1, 64, 0
2, 95040, Note_on_c, 1, 52, 80
2, 95267, Note_on_c, 1, 52, 0
2, 95280, Note_on_c, 1, 59, 80
2, 95507, Note_on_c, 1, 59, 0
2, 95520, Note_on_c, 1, 64, 80
2, 95747, Note_on_c, 1, 64, 0
2, 95760, Note_on_c, 1, 67, 80
2, 95987, Note_on_c, 1, 67, 0
2, 96000, Note_on_c, 1, 53, 80
2, 96227, Note_on_c, 1, 53, 0
2, 96240, Note_on_c, 1, 57, 80
2, 96467, Note_on_c, 1, 57, 0
2, 96480, Note_on_c, 1, 60, 80
2, 96707, Note_on_c, 1, 60, 0
2, 96720, Note_on_c, 1, 65, 80
2, 96947, Note_on_c, 1, 65, 0
2, 96960, Note_on_c, 1, 55, 80
2, 97187, Note_on_c, 1, 55, 0
2, 97200, Note_on_c, 1, 59, 80
2, 97427, Note_on_c, 1, 59, 0
2, 97440, Note_on_c, 1, 62, 80
2, 97667, Note_on_c, 1, 62, 0
2, 97680, Note_on_c, 1, 59, 80
2, 97907, Note_on_c, 1, 59, 0
2, 97920, Note_on_c, 1, 48, 80
2, 98147, Note_on_c, 1, 48, 0
2, 98160, Note_on_c, 1, 55, 80
2, 98387, Note_on_c, 1, 55, 0
2, 98400, Note_on_c, 1, 60, 80
2, 98627, Note_on_c, 1, 60, 0
2, 98640, Note_on_c, 1, 64, 80
2, 98867, Note_on_c, 1, 64, 0
2, 98880, Note_on_c, 1, 67, 80
2, 99107, Note_on_c, 1, 67, 0
2, 99120, Note_on_c, 1, 64, 80
2, 99347, Note_on_c, 1, 64, 0
2, 99360, Note_on_c, 1, 59, 80
2, 99587, Note_on_c, 1, 59, 0
2, 99600, Note_on_c, 1, 55, 80
2, 99827, Note_on_c, 1, 55, 0
2, 99840, Note_on_c, 1, 53, 80
2, 100067, Note_on_c, 1, 53, 0
2, 100080, Note_on_c, 1, 57, 80
2, 100307, Note_on_c, 1, 57, 0
2, 100320, Note_on_c, 1, 60, 80
2, 100547, Note_on_c, 1, 60, 0
2, 100560, Note_on_c, 1, 65, 80
2, 100787, Note_on_c, 1, 65, 0
2, 100800, Note_on_c, 1, 55, 80
2, 101027, Note_on_c, 1, 55, 0
2, 101040, Note_on_c, 1, 59, 80
2, 101267, Note_on_c, 1, 59, 0
2, 101280, Note_on_c, 1, 62, 80
2, 101507, Note_on_c, 1, 62, 0
2, 101520, Note_on_c, 1, 59, 80
2, 101747, Note_on_c, 1, 59, 0
2, 101760, Note_on_c, 1, 48, 80
2, 101987, Note_on_c, 1, 48, 0
2, 102000, Note_on_c, 1, 55, 80
2, 102227, Note_on_c, 1, 55, 0
2, 102240, Note_on_c, 1, 60, 80
2, 102467, Note_on_c, 1, 60, 0
2, 102480, Note_on_c, 1, 64, 80
2, 102707, Note_on_c, 1, 64, 0
2, 102720, Note_on_c, 1, 52, 80
2, 102947, Note_on_c, 1, 52, 0
2, 102960, Note_on_c, 1, 59, 80
2, 103187, Note_on_c, 1, 59, 0
2, 103200, Note_on_c, 1, 64, 80
2, 103427, Note_on_c, 1, 64, 0
2, 103440, Note_on_c, 1, 67, 80
2, 103667, Note_on_c, 1, 67, 0
2, 103680, Note_on_c, 1, 53, 80
2, 103907, Note_on_c, 1, 53, 0
2, 103920, Note_on_c, 1, 57, 80
2, 104147, Note_on_c, 1, 57, 0
2, 104160, Note_on_c, 1, 60, 80
2, 104387, Note_on_c, 1, 60, 0
2, 104400, Note_on_c, 1, 65, 80
2, 104627, Note_on_c, 1, 65, 0
2, 107520, Control_c, 1, 64, 0
2, 107521, End_track
3, 0, Start_track
3, 0, Title_t, "Harp\000"
3, 0, Key_signature, 0, "major"
3, 0, Control_c, 2, 121, 0
3, 0, Program_c, 2, 46
3, 0, Control_c, 2, 7, 100
3, 0, Control_c, 2, 10, 64
3, 0, Control_c, 2, 91, 0
3, 0, Control_c, 2, 93, 0
3, 0, MIDI_port, 0
3, 2, Control_c, 2, 64, 127
3, 7680, Note_on_c, 2, 48, 80
3, 7680, Control_c, 2, 2, 80
3, 7919, Note_on_c, 2, 48, 0
3, 7920, Note_on_c, 2, 60, 80
3, 8159, Note_on_c, 2, 60, 0
3, 8160, Note_on_c, 2, 48, 80
3, 8160, Control_c, 2, 2, 80
3, 8399, Note_on_c, 2, 48, 0
3, 8400, Note_on_c, 2, 60, 80
3, 8400, Control_c, 2, 2, 80
3, 8639, Note_on_c, 2, 60, 0
3, 8640, Note_on_c, 2, 48, 80
3, 8640, Control_c, 2, 2, 80
3, 8879, Note_on_c, 2, 48, 0
3, 8880, Note_on_c, 2, 60, 80
3, 9119, Note_on_c, 2, 60, 0
3, 9120, Note_on_c, 2, 48, 80
3, 9120, Control_c, 2, 2, 80
3, 9359, Note_on_c, 2, 48, 0
3, 9360, Note_on_c, 2, 60, 80
3, 9360, Control_c, 2, 2, 80
3, 9599, Note_on_c, 2, 60, 0
3, 9600, Note_on_c, 2, 53, 80
3, 9600, Control_c, 2, 2, 80
3, 9839, Note_on_c, 2, 53, 0
3, 9840, Note_on_c, 2, 60, 80
3, 10079, Note_on_c, 2, 60, 0
3, 10080, Note_on_c, 2, 53, 80
3, 10319, Note_on_c, 2, 53, 0
3, 10320, Note_on_c, 2, 60, 80
3, 10559, Note_on_c, 2, 60, 0
3, 10560, Note_on_c, 2, 53, 80
3, 10799, Note_on_c, 2, 53, 0
3, 10800, Note_on_c, 2, 60, 80
3, 11519, Note_on_c, 2, 60, 0
3, 11520, Note_on_c, 2, 48, 80
3, 11759, Note_on_c, 2, 48, 0
3, 11760, Note_on_c, 2, 60, 80
3, 11999, Note_on_c, 2, 60, 0
3, 12000, Note_on_c, 2, 48, 80
3, 12000, Control_c, 2, 2, 80
3, 12239, Note_on_c, 2, 48, 0
3, 12240, Note_on_c, 2, 60, 80
3, 12240, Control_c, 2, 2, 80
3, 12479, Note_on_c, 2, 60, 0
3, 12480, Note_on_c, 2, 48, 80
3, 12480, Control_c, 2, 2, 80
3, 12719, Note_on_c, 2, 48, 0
3, 12720, Note_on_c, 2, 60, 80
3, 12720, Control_c, 2, 2, 80
3, 12959, Note_on_c, 2, 60, 0
3, 12960, Note_on_c, 2, 48, 80
3, 13199, Note_on_c, 2, 48, 0
3, 13200, Note_on_c, 2, 60, 80
3, 13200, Control_c, 2, 2, 80
3, 13439, Note_on_c, 2, 60, 0
3, 13440, Note_on_c, 2, 53, 80
3, 13440, Control_c, 2, 2, 80
3, 13679, Note_on_c, 2, 53, 0
3, 13680, Note_on_c, 2, 60, 80
3, 13919, Note_on_c, 2, 60, 0
3, 13920, Note_on_c, 2, 53, 80
3, 14159, Note_on_c, 2, 53, 0
3, 14160, Note_on_c, 2, 60, 80
3, 14399, Note_on_c, 2, 60, 0
3, 14400, Note_on_c, 2, 53, 80
3, 14639, Note_on_c, 2, 53, 0
3, 14640, Note_on_c, 2, 60, 80
3, 15359, Note_on_c, 2, 60, 0
3, 15360, Note_on_c, 2, 48, 80
3, 15599, Note_on_c, 2, 48, 0
3, 15600, Note_on_c, 2, 60, 80
3, 15839, Note_on_c, 2, 60, 0
3, 15840, Note_on_c, 2, 48, 80
3, 15840, Control_c, 2, 2, 80
3, 16079, Note_on_c, 2, 48, 0
3, 16080, Note_on_c, 2, 60, 80
3, 16080, Control_c, 2, 2, 80
3, 16319, Note_on_c, 2, 60, 0
3, 16320, Note_on_c, 2, 48, 80
3, 16320, Control_c, 2, 2, 80
3, 16559, Note_on_c, 2, 48, 0
3, 16560, Note_on_c, 2, 60, 80
3, 16799, Note_on_c, 2, 60, 0
3, 16800, Note_on_c, 2, 48, 80
3, 16800, Control_c, 2, 2, 80
3, 17039, Note_on_c, 2, 48, 0
3, 17040, Note_on_c, 2, 60, 80
3, 17040, Control_c, 2, 2, 80
3, 17279, Note_on_c, 2, 60, 0
3, 17280, Note_on_c, 2, 53, 80
3, 17280, Control_c, 2, 2, 80
3, 17519, Note_on_c, 2, 53, 0
3, 17520, Note_on_c, 2, 60, 80
3, 17759, Note_on_c, 2, 60, 0
3, 17760, Note_on_c, 2, 53, 80
3, 17999, Note_on_c, 2, 53, 0
3, 18000, Note_on_c, 2, 60, 80
3, 18239, Note_on_c, 2, 60, 0
3, 18240, Note_on_c, 2, 53, 80
3, 18479, Note_on_c, 2, 53, 0
3, 18480, Note_on_c, 2, 60, 80
3, 19199, Note_on_c, 2, 60, 0
3, 19200, Note_on_c, 2, 48, 80
3, 19439, Note_on_c, 2, 48, 0
3, 19440, Note_on_c, 2, 60, 80
3, 19679, Note_on_c, 2, 60, 0
3, 19680, Note_on_c, 2, 48, 80
3, 19919, Note_on_c, 2, 48, 0
3, 19920, Note_on_c, 2, 60, 80
3, 20159, Note_on_c, 2, 60, 0
3, 20160, Note_on_c, 2, 48, 80
3, 20160, Control_c, 2, 2, 80
3, 20399, Note_on_c, 2, 48, 0
3, 20400, Note_on_c, 2, 60, 80
3, 20400, Control_c, 2, 2, 80
3, 20639, Note_on_c, 2, 60, 0
3, 20640, Note_on_c, 2, 48, 80
3, 20640, Control_c, 2, 2, 80
3, 20879, Note_on_c, 2, 48, 0
3, 20880, Note_on_c, 2, 60, 80
3, 20880, Control_c, 2, 2, 80
3, 21119, Note_on_c, 2, 60, 0
3, 21120, Note_on_c, 2, 53, 80
3, 21120, Control_c, 2, 2, 80
3, 21359, Note_on_c, 2, 53, 0
3, 21360, Note_on_c, 2, 60, 80
3, 21599, Note_on_c, 2, 60, 0
3, 21600, Note_on_c, 2, 53, 80
3, 21839, Note_on_c, 2, 53, 0
3, 21840, Note_on_c, 2, 60, 80
3, 22079, Note_on_c, 2, 60, 0
3, 22080, Note_on_c, 2, 53, 80
3, 22319, Note_on_c, 2, 53, 0
3, 22320, Note_on_c, 2, 60, 80
3, 22559, Note_on_c, 2, 60, 0
3, 22560, Note_on_c, 2, 53, 80
3, 22799, Note_on_c, 2, 53, 0
3, 22800, Note_on_c, 2, 60, 80
3, 23039, Note_on_c, 2, 60, 0
3, 23040, Note_on_c, 2, 53, 80
3, 23519, Note_on_c, 2, 53, 0
3, 24000, Note_on_c, 2, 52, 80
3, 24000, Control_c, 2, 2, 80
3, 24479, Note_on_c, 2, 52, 0
3, 24960, Note_on_c, 2, 50, 80
3, 24960, Control_c, 2, 2, 80
3, 25919, Note_on_c, 2, 50, 0
3, 25920, Note_on_c, 2, 48, 80
3, 25920, Control_c, 2, 2, 80
3, 26399, Note_on_c, 2, 48, 0
3, 26880, Note_on_c, 2, 55, 80
3, 26880, Control_c, 2, 2, 80
3, 27359, Note_on_c, 2, 55, 0
3, 28320, Note_on_c, 2, 55, 80
3, 28320, Control_c, 2, 2, 80
3, 28799, Note_on_c, 2, 55, 0
3, 28800, Note_on_c, 2, 55, 80
3, 28800, Control_c, 2, 2, 80
3, 30239, Note_on_c, 2, 55, 0
3, 30720, Note_on_c, 2, 48, 80
3, 30720, Control_c, 2, 2, 80
3, 30959, Note_on_c, 2, 48, 0
3, 30960, Note_on_c, 2, 60, 80
3, 31199, Note_on_c, 2, 60, 0
3, 31200, Note_on_c, 2, 48, 80
3, 31439, Note_on_c, 2, 48, 0
3, 31440, Note_on_c, 2, 60, 80
3, 31440, Control_c, 2, 2, 80
3, 31679, Note_on_c, 2, 60, 0
3, 31680, Note_on_c, 2, 48, 80
3, 31680, Control_c, 2, 2, 80
3, 31919, Note_on_c, 2, 48, 0
3, 31920, Note_on_c, 2, 60, 80
3, 32159, Note_on_c, 2, 60, 0
3, 32160, Note_on_c, 2, 48, 80
3, 32160, Control_c, 2, 2, 80
3, 32399, Note_on_c, 2, 48, 0
3, 32400, Note_on_c, 2, 60, 80
3, 32400, Control_c, 2, 2, 80
3, 32639, Note_on_c, 2, 60, 0
3, 32640, Note_on_c, 2, 53, 80
3, 32640, Control_c, 2, 2, 80
3, 32879, Note_on_c, 2, 53, 0
3, 32880, Note_on_c, 2, 60, 80
3, 33119, Note_on_c, 2, 60, 0
3, 33120, Note_on_c, 2, 53, 80
3, 33359, Note_on_c, 2, 53, 0
3, 33360, Note_on_c, 2, 60, 80
3, 33599, Note_on_c, 2, 60, 0
3, 33600, Note_on_c, 2, 53, 80
3, 33839, Note_on_c, 2, 53, 0
3, 33840, Note_on_c, 2, 60, 80
3, 34559, Note_on_c, 2, 60, 0
3, 34560, Note_on_c, 2, 48, 80
3, 34799, Note_on_c, 2, 48, 0
3, 34800, Note_on_c, 2, 60, 80
3, 35039, Note_on_c, 2, 60, 0
3, 35040, Note_on_c, 2, 48, 80
3, 35040, Control_c, 2, 2, 80
3, 35279, Note_on_c, 2, 48, 0
3, 35280, Note_on_c, 2, 60, 80
3, 35280, Control_c, 2, 2, 80
3, 35519, Note_on_c, 2, 60, 0
3, 35520, Note_on_c, 2, 48, 80
3, 35520, Control_c, 2, 2, 80
3, 35759, Note_on_c, 2, 48, 0
3, 35760, Note_on_c, 2, 60, 80
3, 35999, Note_on_c, 2, 60, 0
3, 36000, Note_on_c, 2, 48, 80
3, 36000, Control_c, 2, 2, 80
3, 36239, Note_on_c, 2, 48, 0
3, 36240, Note_on_c, 2, 60, 80
3, 36240, Control_c, 2, 2, 80
3, 36479, Note_on_c, 2, 60, 0
3, 36480, Note_on_c, 2, 53, 80
3, 36480, Control_c, 2, 2, 80
3, 36719, Note_on_c, 2, 53, 0
3, 36720, Note_on_c, 2, 60, 80
3, 36959, Note_on_c, 2, 60, 0
3, 36960, Note_on_c, 2, 53, 80
3, 37199, Note_on_c, 2, 53, 0
3, 37200, Note_on_c, 2, 60, 80
3, 37439, Note_on_c, 2, 60, 0
3, 37440, Note_on_c, 2, 53, 80
3, 37679, Note_on_c, 2, 53, 0
3, 37680, Note_on_c, 2, 60, 80
3, 38399, Note_on_c, 2, 60, 0
3, 38400, Note_on_c, 2, 48, 80
3, 38639, Note_on_c, 2, 48, 0
3, 38640, Note_on_c, 2, 60, 80
3, 38879, Note_on_c, 2, 60, 0
3, 38880, Note_on_c, 2, 48, 80
3, 38880, Control_c, 2, 2, 80
3, 39119, Note_on_c, 2, 48, 0
3, 39120, Note_on_c, 2, 60, 80
3, 39120, Control_c, 2, 2, 80
3, 39359, Note_on_c, 2, 60, 0
3, 39360, Note_on_c, 2, 48, 80
3, 39360, Control_c, 2, 2, 80
3, 39599, Note_on_c, 2, 48, 0
3, 39600, Note_on_c, 2, 60, 80
3, 39839, Note_on_c, 2, 60, 0
3, 39840, Note_on_c, 2, 48, 80
3, 39840, Control_c, 2, 2, 80
3, 40079, Note_on_c, 2, 48, 0
3, 40080, Note_on_c, 2, 60, 80
3, 40080, Control_c, 2, 2, 80
3, 40319, Note_on_c, 2, 60, 0
3, 40320, Note_on_c, 2, 53, 80
3, 40320, Control_c, 2, 2, 80
3, 40559, Note_on_c, 2, 53, 0
3, 40560, Note_on_c, 2, 60, 80
3, 40560, Control_c, 2, 2, 80
3, 40799, Note_on_c, 2, 60, 0
3, 40800, Note_on_c, 2, 53, 80
3, 41039, Note_on_c, 2, 53, 0
3, 41040, Note_on_c, 2, 60, 80
3, 41279, Note_on_c, 2, 60, 0
3, 41280, Note_on_c, 2, 53, 80
3, 41519, Note_on_c, 2, 53, 0
3, 41520, Note_on_c, 2, 60, 80
3, 42239, Note_on_c, 2, 60, 0
3, 42240, Note_on_c, 2, 48, 80
3, 42479, Note_on_c, 2, 48, 0
3, 42480, Note_on_c, 2, 60, 80
3, 42719, Note_on_c, 2, 60, 0
3, 42720, Note_on_c, 2, 48, 80
3, 42720, Control_c, 2, 2, 80
3, 42959, Note_on_c, 2, 48, 0
3, 42960, Note_on_c, 2, 60, 80
3, 42960, Control_c, 2, 2, 80
3, 43199, Note_on_c, 2, 60, 0
3, 43200, Note_on_c, 2, 48, 80
3, 43200, Control_c, 2, 2, 80
3, 43439, Note_on_c, 2, 48, 0
3, 43440, Note_on_c, 2, 60, 80
3, 43440, Control_c, 2, 2, 80
3, 43679, Note_on_c, 2, 60, 0
3, 43680, Note_on_c, 2, 48, 80
3, 43919, Note_on_c, 2, 48, 0
3, 43920, Note_on_c, 2, 60, 80
3, 43920, Control_c, 2, 2, 80
3, 44159, Note_on_c, 2, 60, 0
3, 44160, Note_on_c, 2, 53, 80
3, 44160, Control_c, 2, 2, 80
3, 44399, Note_on_c, 2, 53, 0
3, 44400, Note_on_c, 2, 60, 80
3, 44639, Note_on_c, 2, 60, 0
3, 44640, Note_on_c, 2, 53, 80
3, 44879, Note_on_c, 2, 53, 0
3, 44880, Note_on_c, 2, 60, 80
3, 45119, Note_on_c, 2, 60, 0
3, 45120, Note_on_c, 2, 53, 80
3, 45359, Note_on_c, 2, 53, 0
3, 45360, Note_on_c, 2, 60, 80
3, 45599, Note_on_c, 2, 60, 0
3, 45600, Note_on_c, 2, 53, 80
3, 45839, Note_on_c, 2, 53, 0
3, 45840, Note_on_c, 2, 60, 80
3, 46079, Note_on_c, 2, 60, 0
3, 46080, Note_on_c, 2, 53, 80
3, 46319, Note_on_c, 2, 53, 0
3, 46320, Note_on_c, 2, 53, 80
3, 46559, Note_on_c, 2, 53, 0
3, 46560, Note_on_c, 2, 53, 80
3, 46560, Control_c, 2, 2, 80
3, 46799, Note_on_c, 2, 53, 0
3, 46800, Note_on_c, 2, 53, 80
3, 46800, Control_c, 2, 2, 80
3, 47039, Note_on_c, 2, 53, 0
3, 47040, Note_on_c, 2, 52, 80
3, 47040, Control_c, 2, 2, 80
3, 47279, Note_on_c, 2, 52, 0
3, 47280, Note_on_c, 2, 52, 80
3, 47519, Note_on_c, 2, 52, 0
3, 48240, Note_on_c, 2, 50, 80
3, 48240, Control_c, 2, 2, 80
3, 48479, Note_on_c, 2, 50, 0
3, 48480, Note_on_c, 2, 50, 80
3, 48719, Note_on_c, 2, 50, 0
3, 48720, Note_on_c, 2, 50, 80
3, 48959, Note_on_c, 2, 50, 0
3, 48960, Note_on_c, 2, 48, 80
3, 49199, Note_on_c, 2, 48, 0
3, 49200, Note_on_c, 2, 48, 80
3, 49439, Note_on_c, 2, 48, 0
3, 49440, Note_on_c, 2, 48, 80
3, 49679, Note_on_c, 2, 48, 0
3, 49680, Note_on_c, 2, 48, 80
3, 49919, Note_on_c, 2, 48, 0
3, 49920, Note_on_c, 2, 55, 80
3, 49920, Control_c, 2, 2, 80
3, 51359, Note_on_c, 2, 55, 0
3, 51360, Note_on_c, 2, 55, 80
3, 51360, Control_c, 2, 2, 80
3, 51839, Note_on_c, 2, 55, 0
3, 51840, Note_on_c, 2, 55, 80
3, 51840, Control_c, 2, 2, 80
3, 51840, Note_on_c, 2, 59, 80
3, 53279, Note_on_c, 2, 55, 0
3, 53279, Note_on_c, 2, 59, 0
3, 53760, Note_on_c, 2, 53, 80
3, 53760, Control_c, 2, 2, 80
3, 53760, Note_on_c, 2, 57, 80
3, 54719, Note_on_c, 2, 53, 0
3, 54719, Note_on_c, 2, 57, 0
3, 54720, Note_on_c, 2, 55, 80
3, 54720, Control_c, 2, 2, 80
3, 55679, Note_on_c, 2, 55, 0
3, 55680, Note_on_c, 2, 48, 80
3, 55680, Control_c, 2, 2, 80
3, 55680, Note_on_c, 2, 55, 80
3, 56159, Note_on_c, 2, 48, 0
3, 56159, Note_on_c, 2, 55, 0
3, 56640, Note_on_c, 2, 52, 80
3, 56640, Control_c, 2, 2, 80
3, 57119, Note_on_c, 2, 52, 0
3, 57120, Note_on_c, 2, 50, 80
3, 57599, Note_on_c, 2, 50, 0
3, 57600, Note_on_c, 2, 48, 80
3, 57600, Note_on_c, 2, 53, 80
3, 58079, Note_on_c, 2, 48, 0
3, 58079, Note_on_c, 2, 53, 0
3, 58080, Note_on_c, 2, 53, 80
3, 58559, Note_on_c, 2, 53, 0
3, 58560, Note_on_c, 2, 50, 80
3, 58560, Control_c, 2, 2, 80
3, 58560, Note_on_c, 2, 55, 80
3, 59519, Note_on_c, 2, 50, 0
3, 59519, Note_on_c, 2, 55, 0
3, 59520, Note_on_c, 2, 48, 80
3, 59520, Control_c, 2, 2, 80
3, 59520, Note_on_c, 2, 55, 80
3, 59999, Note_on_c, 2, 48, 0
3, 59999, Note_on_c, 2, 55, 0
3, 60240, Note_on_c, 2, 48, 80
3, 60479, Note_on_c, 2, 48, 0
3, 60480, Note_on_c, 2, 52, 80
3, 60959, Note_on_c, 2, 52, 0
3, 60960, Note_on_c, 2, 50, 80
3, 61439, Note_on_c, 2, 50, 0
3, 61440, Note_on_c, 2, 48, 80
3, 61440, Note_on_c, 2, 53, 80
3, 61919, Note_on_c, 2, 48, 0
3, 61919, Note_on_c, 2, 53, 0
3, 61920, Note_on_c, 2, 53, 80
3, 61920, Control_c, 2, 2, 80
3, 62399, Note_on_c, 2, 53, 0
3, 62400, Note_on_c, 2, 50, 80
3, 62400, Control_c, 2, 2, 80
3, 62400, Note_on_c, 2, 55, 80
3, 63359, Note_on_c, 2, 50, 0
3, 63359, Note_on_c, 2, 55, 0
3, 63360, Note_on_c, 2, 48, 80
3, 63360, Control_c, 2, 2, 80
3, 63360, Note_on_c, 2, 55, 80
3, 63839, Note_on_c, 2, 48, 0
3, 63839, Note_on_c, 2, 55, 0
3, 64080, Note_on_c, 2, 48, 80
3, 64080, Control_c, 2, 2, 80
3, 64319, Note_on_c, 2, 48, 0
3, 64320, Note_on_c, 2, 52, 80
3, 64799, Note_on_c, 2, 52, 0
3, 64800, Note_on_c, 2, 50, 80
3, 65279, Note_on_c, 2, 50, 0
3, 65280, Note_on_c, 2, 48, 80
3, 65280, Note_on_c, 2, 53, 80
3, 65759, Note_on_c, 2, 48, 0
3, 65759, Note_on_c, 2, 53, 0
3, 65760, Note_on_c, 2, 53, 80
3, 66239, Note_on_c, 2, 53, 0
3, 66240, Note_on_c, 2, 62, 80
3, 66240, Control_c, 2, 2, 80
3, 67199, Note_on_c, 2, 62, 0
3, 69120, Note_on_c, 2, 48, 80
3, 69120, Control_c, 2, 2, 80
3, 69359, Note_on_c, 2, 48, 0
3, 69360, Note_on_c, 2, 60, 80
3, 69599, Note_on_c, 2, 60, 0
3, 69600, Note_on_c, 2, 48, 80
3, 69600, Control_c, 2, 2, 80
3, 69839, Note_on_c, 2, 48, 0
3, 69840, Note_on_c, 2, 60, 80
3, 69840, Control_c, 2, 2, 80
3, 70079, Note_on_c, 2, 60, 0
3, 70080, Note_on_c, 2, 48, 80
3, 70080, Control_c, 2, 2, 80
3, 70319, Note_on_c, 2, 48, 0
3, 70320, Note_on_c, 2, 60, 80
3, 70559, Note_on_c, 2, 60, 0
3, 70560, Note_on_c, 2, 48, 80
3, 70560, Control_c, 2, 2, 80
3, 70799, Note_on_c, 2, 48, 0
3, 70800, Note_on_c, 2, 60, 80
3, 70800, Control_c, 2, 2, 80
3, 71039, Note_on_c, 2, 60, 0
3, 71040, Note_on_c, 2, 53, 80
3, 71040, Control_c, 2, 2, 80
3, 71279, Note_on_c, 2, 53, 0
3, 71280, Note_on_c, 2, 60, 80
3, 71519, Note_on_c, 2, 60, 0
3, 71520, Note_on_c, 2, 53, 80
3, 71520, Control_c, 2, 2, 80
3, 71759, Note_on_c, 2, 53, 0
3, 71760, Note_on_c, 2, 60, 80
3, 71999, Note_on_c, 2, 60, 0
3, 72000, Note_on_c, 2, 53, 80
3, 72239, Note_on_c, 2, 53, 0
3, 72240, Note_on_c, 2, 60, 80
3, 72479, Note_on_c, 2, 60, 0
3, 72480, Note_on_c, 2, 53, 80
3, 72959, Note_on_c, 2, 53, 0
3, 72960, Note_on_c, 2, 48, 80
3, 72960, Control_c, 2, 2, 80
3, 73199, Note_on_c, 2, 48, 0
3, 73200, Note_on_c, 2, 60, 80
3, 73439, Note_on_c, 2, 60, 0
3, 73440, Note_on_c, 2, 48, 80
3, 73440, Control_c, 2, 2, 80
3, 73679, Note_on_c, 2, 48, 0
3, 73680, Note_on_c, 2, 60, 80
3, 73680, Control_c, 2, 2, 80
3, 73919, Note_on_c, 2, 60, 0
3, 73920, Note_on_c, 2, 48, 80
3, 73920, Control_c, 2, 2, 80
3, 74159, Note_on_c, 2, 48, 0
3, 74160, Note_on_c, 2, 60, 80
3, 74160, Control_c, 2, 2, 80
3, 74399, Note_on_c, 2, 60, 0
3, 74400, Note_on_c, 2, 48, 80
3, 74639, Note_on_c, 2, 48, 0
3, 74640, Note_on_c, 2, 60, 80
3, 74640, Control_c, 2, 2, 80
3, 74879, Note_on_c, 2, 60, 0
3, 74880, Note_on_c, 2, 53, 80
3, 74880, Control_c, 2, 2, 80
3, 75119, Note_on_c, 2, 53, 0
3, 75120, Note_on_c, 2, 60, 80
3, 75359, Note_on_c, 2, 60, 0
3, 75360, Note_on_c, 2, 53, 80
3, 75360, Control_c, 2, 2, 80
3, 75599, Note_on_c, 2, 53, 0
3, 75600, Note_on_c, 2, 60, 80
3, 75839, Note_on_c, 2, 60, 0
3, 75840, Note_on_c, 2, 53, 80
3, 76079, Note_on_c, 2, 53, 0
3, 76080, Note_on_c, 2, 60, 80
3, 76319, Note_on_c, 2, 60, 0
3, 76320, Note_on_c, 2, 53, 80
3, 76799, Note_on_c, 2, 53, 0
3, 76800, Note_on_c, 2, 48, 80
3, 76800, Control_c, 2, 2, 80
3, 77039, Note_on_c, 2, 48, 0
3, 77040, Note_on_c, 2, 60, 80
3, 77279, Note_on_c, 2, 60, 0
3, 77280, Note_on_c, 2, 48, 80
3, 77280, Control_c, 2, 2, 80
3, 77519, Note_on_c, 2, 48, 0
3, 77520, Note_on_c, 2, 60, 80
3, 77520, Control_c, 2, 2, 80
3, 77759, Note_on_c, 2, 60, 0
3, 77760, Note_on_c, 2, 48, 80
3, 77760, Control_c, 2, 2, 80
3, 77999, Note_on_c, 2, 48, 0
3, 78000, Note_on_c, 2, 60, 80
3, 78239, Note_on_c, 2, 60, 0
3, 78240, Note_on_c, 2, 48, 80
3, 78240, Control_c, 2, 2, 80
3, 78479, Note_on_c, 2, 48, 0
3, 78480, Note_on_c, 2, 60, 80
3, 78480, Control_c, 2, 2, 80
3, 78719, Note_on_c, 2, 60, 0
3, 78720, Note_on_c, 2, 53, 80
3, 78720, Control_c, 2, 2, 80
3, 78959, Note_on_c, 2, 53, 0
3, 78960, Note_on_c, 2, 60, 80
3, 78960, Control_c, 2, 2, 80
3, 79199, Note_on_c, 2, 60, 0
3, 79200, Note_on_c, 2, 53, 80
3, 79200, Control_c, 2, 2, 80
3, 79439, Note_on_c, 2, 53, 0
3, 79440, Note_on_c, 2, 60, 80
3, 79679, Note_on_c, 2, 60, 0
3, 79680, Note_on_c, 2, 53, 80
3, 79919, Note_on_c, 2, 53, 0
3, 79920, Note_on_c, 2, 60, 80
3, 80159, Note_on_c, 2, 60, 0
3, 80160, Note_on_c, 2, 53, 80
3, 80639, Note_on_c, 2, 53, 0
3, 80640, Note_on_c, 2, 48, 80
3, 80640, Control_c, 2, 2, 80
3, 80879, Note_on_c, 2, 48, 0
3, 80880, Note_on_c, 2, 60, 80
3, 81119, Note_on_c, 2, 60, 0
3, 81120, Note_on_c, 2, 48, 80
3, 81120, Control_c, 2, 2, 80
3, 81359, Note_on_c, 2, 48, 0
3, 81360, Note_on_c, 2, 60, 80
3, 81360, Control_c, 2, 2, 80
3, 81599, Note_on_c, 2, 60, 0
3, 81600, Note_on_c, 2, 48, 80
3, 81600, Control_c, 2, 2, 80
3, 81839, Note_on_c, 2, 48, 0
3, 81840, Note_on_c, 2, 60, 80
3, 82079, Note_on_c, 2, 60, 0
3, 82080, Note_on_c, 2, 48, 80
3, 82080, Control_c, 2, 2, 80
3, 82319, Note_on_c, 2, 48, 0
3, 82320, Note_on_c, 2, 60, 80
3, 82320, Control_c, 2, 2, 80
3, 82559, Note_on_c, 2, 60, 0
3, 82560, Note_on_c, 2, 53, 80
3, 82560, Control_c, 2, 2, 80
3, 82799, Note_on_c, 2, 53, 0
3, 82800, Note_on_c, 2, 60, 80
3, 83039, Note_on_c, 2, 60, 0
3, 83040, Note_on_c, 2, 53, 80
3, 83040, Control_c, 2, 2, 80
3, 83279, Note_on_c, 2, 53, 0
3, 83280, Note_on_c, 2, 60, 80
3, 83519, Note_on_c, 2, 60, 0
3, 83520, Note_on_c, 2, 53, 80
3, 83520, Control_c, 2, 2, 80
3, 83759, Note_on_c, 2, 53, 0
3, 83760, Note_on_c, 2, 60, 80
3, 83999, Note_on_c, 2, 60, 0
3, 84000, Note_on_c, 2, 53, 80
3, 84000, Control_c, 2, 2, 80
3, 84239, Note_on_c, 2, 53, 0
3, 84720, Note_on_c, 2, 53, 80
3, 84720, Control_c, 2, 2, 80
3, 84959, Note_on_c, 2, 53, 0
3, 84960, Note_on_c, 2, 53, 80
3, 84960, Control_c, 2, 2, 80
3, 85199, Note_on_c, 2, 53, 0
3, 85200, Note_on_c, 2, 53, 80
3, 85200, Control_c, 2, 2, 80
3, 85439, Note_on_c, 2, 53, 0
3, 85440, Note_on_c, 2, 52, 80
3, 85440, Control_c, 2, 2, 80
3, 85679, Note_on_c, 2, 52, 0
3, 85680, Note_on_c, 2, 52, 80
3, 85919, Note_on_c, 2, 52, 0
3, 86640, Note_on_c, 2, 50, 80
3, 86640, Control_c, 2, 2, 80
3, 86879, Note_on_c, 2, 50, 0
3, 86880, Note_on_c, 2, 50, 80
3, 87119, Note_on_c, 2, 50, 0
3, 87120, Note_on_c, 2, 50, 80
3, 87359, Note_on_c, 2, 50, 0
3, 87360, Note_on_c, 2, 48, 80
3, 87599, Note_on_c, 2, 48, 0
3, 87600, Note_on_c, 2, 48, 80
3, 87839, Note_on_c, 2, 48, 0
3, 87840, Note_on_c, 2, 48, 80
3, 88079, Note_on_c, 2, 48, 0
3, 88080, Note_on_c, 2, 48, 80
3, 88319, Note_on_c, 2, 48, 0
3, 89760, Note_on_c, 2, 55, 80
3, 89760, Control_c, 2, 2, 80
3, 89760, Note_on_c, 2, 60, 80
3, 90239, Note_on_c, 2, 55, 0
3, 90239, Note_on_c, 2, 60, 0
3, 107520, Control_c, 2, 64, 0
3, 107521, End_track
4, 0, Start_track
4, 0, Title_t, "Bass\000"
4, 0, Key_signature, 0, "major"
4, 0, Control_c, 8, 121, 0
4, 0, Program_c, 8, 33
4, 0, Control_c, 8, 7, 100
4, 0, Control_c, 8, 10, 64
4, 0, Control_c, 8, 91, 0
4, 0, Control_c, 8, 93, 0
4, 0, MIDI_port, 0
4, 1, End_track
0, 0, End_of_file
