0, 0, Header, 1, 5, 480
1, 0, Start_track
1, 0, Title_t, "Brass Synthesizer, Brass Synthesizer\000"
1, 0, Time_signature, 4, 2, 24, 8
1, 0, Key_signature, 0, "major"
1, 0, Tempo, 666667
1, 0, Control_c, 0, 121, 0
1, 0, Program_c, 0, 62
1, 0, Control_c, 0, 7, 100
1, 0, Control_c, 0, 10, 64
1, 0, Control_c, 0, 91, 0
1, 0, Control_c, 0, 93, 0
1, 0, MIDI_port, 0
1, 0, Control_c, 1, 121, 0
1, 0, Program_c, 1, 63
1, 0, Control_c, 1, 7, 100
1, 0, Control_c, 1, 10, 64
1, 0, Control_c, 1, 91, 0
1, 0, Control_c, 1, 93, 0
1, 0, MIDI_port, 0
1, 960, Note_on_c, 0, 64, 80
1, 960, Control_c, 0, 2, 80
1, 960, Note_on_c, 0, 67, 80
1, 960, Note_on_c, 0, 71, 80
1, 1920, Control_c, 0, 2, 80
1, 3839, Note_on_c, 0, 64, 0
1, 3839, Note_on_c, 0, 67, 0
1, 3839, Note_on_c, 0, 71, 0
1, 4800, Note_on_c, 0, 60, 80
1, 4800, Control_c, 0, 2, 80
1, 4800, Note_on_c, 0, 64, 80
1, 4800, Note_on_c, 0, 67, 80
1, 5760, Control_c, 0, 2, 80
1, 7679, Note_on_c, 0, 60, 0
1, 7679, Note_on_c, 0, 64, 0
1, 7679, Note_on_c, 0, 67, 0
1, 8640, Note_on_c, 0, 60, 80
1, 8640, Control_c, 0, 2, 80
1, 8640, Note_on_c, 0, 65, 80
1, 8640, Note_on_c, 0, 69, 80
1, 9600, Control_c, 0, 2, 80
1, 11519, Note_on_c, 0, 60, 0
1, 11519, Note_on_c, 0, 65, 0
1, 11519, Note_on_c, 0, 69, 0
1, 12480, Note_on_c, 0, 62, 80
1, 12480, Control_c, 0, 2, 80
1, 12480, Note_on_c, 0, 67, 80
1, 12480, Note_on_c, 0, 71, 80
1, 12959, Note_on_c, 0, 62, 0
1, 12959, Note_on_c, 0, 67, 0
1, 12959, Note_on_c, 0, 71, 0
1, 15840, Note_on_c, 0, 76, 80
1, 15840, Control_c, 0, 2, 80
1, 15959, Note_on_c, 0, 76, 0
1, 15960, Note_on_c, 0, 74, 80
1, 15960, Control_c, 0, 2, 80
1, 16079, Note_on_c, 0, 74, 0
1, 16080, Note_on_c, 0, 76, 80
1, 16199, Note_on_c, 0, 76, 0
1, 16200, Note_on_c, 0, 74, 80
1, 16200, Control_c, 0, 2, 80
1, 16319, Note_on_c, 0, 74, 0
1, 16320, Note_on_c, 0, 76, 80
1, 17279, Note_on_c, 0, 76, 0
1, 18000, Note_on_c, 0, 72, 80
1, 18000, Control_c, 0, 2, 80
1, 18239, Note_on_c, 0, 72, 0
1, 18240, Note_on_c, 0, 76, 80
1, 18240, Control_c, 0, 2, 80
1, 18479, Note_on_c, 0, 76, 0
1, 18480, Note_on_c, 0, 79, 80
1, 18480, Control_c, 0, 2, 80
1, 18959, Note_on_c, 0, 79, 0
1, 18960, Note_on_c, 0, 72, 80
1, 18960, Control_c, 0, 2, 80
1, 18960, Note_on_c, 0, 76, 80
1, 18990, Note_on_c, 0, 83, 80
1, 18990, Control_c, 0, 2, 80
1, 19679, Note_on_c, 0, 72, 0
1, 19679, Note_on_c, 0, 76, 0
1, 19679, Note_on_c, 0, 83, 0
1, 19680, Note_on_c, 0, 79, 80
1, 19680, Control_c, 0, 2, 80
1, 19919, Note_on_c, 0, 79, 0
1, 19920, Note_on_c, 0, 72, 80
1, 19920, Control_c, 0, 2, 80
1, 19920, Note_on_c, 0, 79, 80
1, 20160, Control_c, 0, 2, 80
1, 21120, Control_c, 0, 2, 80
1, 22079, Note_on_c, 0, 72, 0
1, 22079, Note_on_c, 0, 79, 0
1, 22080, Note_on_c, 0, 69, 80
1, 22080, Control_c, 0, 2, 80
1, 22140, Note_on_c, 0, 72, 80
1, 22140, Control_c, 0, 2, 80
1, 22170, Note_on_c, 0, 79, 80
1, 22319, Note_on_c, 0, 69, 0
1, 22319, Note_on_c, 0, 72, 0
1, 22319, Note_on_c, 0, 79, 0
1, 22320, Note_on_c, 0, 77, 80
1, 22559, Note_on_c, 0, 77, 0
1, 22560, Note_on_c, 0, 76, 80
1, 22560, Control_c, 0, 2, 80
1, 22799, Note_on_c, 0, 76, 0
1, 22800, Note_on_c, 0, 65, 80
1, 22800, Control_c, 0, 2, 80
1, 22800, Note_on_c, 0, 69, 80
1, 22800, Note_on_c, 0, 74, 80
1, 23040, Control_c, 0, 2, 80
1, 23279, Note_on_c, 0, 65, 0
1, 23279, Note_on_c, 0, 69, 0
1, 23279, Note_on_c, 0, 74, 0
1, 23280, Note_on_c, 0, 76, 80
1, 23280, Control_c, 0, 2, 80
1, 24000, Control_c, 0, 2, 80
1, 24960, Control_c, 0, 2, 80
1, 25919, Note_on_c, 0, 76, 0
1, 25920, Note_on_c, 0, 69, 80
1, 25920, Control_c, 0, 2, 80
1, 25980, Note_on_c, 0, 72, 80
1, 25980, Control_c, 0, 2, 80
1, 26010, Note_on_c, 0, 79, 80
1, 26159, Note_on_c, 0, 69, 0
1, 26159, Note_on_c, 0, 72, 0
1, 26159, Note_on_c, 0, 79, 0
1, 26160, Note_on_c, 0, 77, 80
1, 26399, Note_on_c, 0, 77, 0
1, 26400, Note_on_c, 0, 76, 80
1, 26400, Control_c, 0, 2, 80
1, 26639, Note_on_c, 0, 76, 0
1, 26640, Note_on_c, 0, 67, 80
1, 26640, Control_c, 0, 2, 80
1, 26640, Note_on_c, 0, 74, 80
1, 26880, Control_c, 0, 2, 80
1, 27119, Note_on_c, 0, 67, 0
1, 27119, Note_on_c, 0, 74, 0
1, 27600, Note_on_c, 0, 76, 80
1, 27600, Control_c, 0, 2, 80
1, 27839, Note_on_c, 0, 76, 0
1, 28800, Note_on_c, 0, 71, 80
1, 28800, Control_c, 0, 2, 80
1, 28800, Note_on_c, 0, 74, 80
1, 29039, Note_on_c, 0, 71, 0
1, 29039, Note_on_c, 0, 74, 0
1, 30000, Note_on_c, 0, 72, 80
1, 30000, Control_c, 0, 2, 80
1, 30119, Note_on_c, 0, 72, 0
1, 30120, Note_on_c, 0, 72, 80
1, 30120, Control_c, 0, 2, 80
1, 30239, Note_on_c, 0, 72, 0
1, 30240, Note_on_c, 0, 72, 80
1, 30359, Note_on_c, 0, 72, 0
1, 30360, Note_on_c, 0, 72, 80
1, 30360, Control_c, 0, 2, 80
1, 30479, Note_on_c, 0, 72, 0
1, 30480, Note_on_c, 0, 74, 80
1, 30719, Note_on_c, 0, 74, 0
1, 32400, Note_on_c, 0, 72, 80
1, 32400, Control_c, 0, 2, 80
1, 32639, Note_on_c, 0, 72, 0
1, 32640, Note_on_c, 0, 72, 80
1, 32640, Control_c, 0, 2, 80
1, 32640, Note_on_c, 0, 81, 80
1, 32999, Note_on_c, 0, 72, 0
1, 32999, Note_on_c, 0, 81, 0
1, 33000, Note_on_c, 0, 72, 80
1, 33000, Control_c, 0, 2, 80
1, 33000, Note_on_c, 0, 79, 80
1, 33119, Note_on_c, 0, 72, 0
1, 33119, Note_on_c, 0, 79, 0
1, 33120, Note_on_c, 0, 72, 80
1, 33120, Note_on_c, 0, 79, 80
1, 33479, Note_on_c, 0, 72, 0
1, 33479, Note_on_c, 0, 79, 0
1, 33480, Note_on_c, 0, 77, 80
1, 33480, Control_c, 0, 2, 80
1, 33599, Note_on_c, 0, 77, 0
1, 33600, Note_on_c, 0, 77, 80
1, 33959, Note_on_c, 0, 77, 0
1, 33960, Note_on_c, 0, 76, 80
1, 33960, Control_c, 0, 2, 80
1, 34079, Note_on_c, 0, 76, 0
1, 34080, Note_on_c, 0, 76, 80
1, 34439, Note_on_c, 0, 76, 0
1, 34440, Note_on_c, 0, 77, 80
1, 34440, Control_c, 0, 2, 80
1, 34559, Note_on_c, 0, 77, 0
1, 34560, Note_on_c, 0, 76, 80
1, 34560, Note_on_c, 0, 67, 80
1, 34799, Note_on_c, 0, 67, 0
1, 35999, Note_on_c, 0, 76, 0
1, 36240, Note_on_c, 0, 72, 80
1, 36240, Control_c, 0, 2, 80
1, 36479, Note_on_c, 0, 72, 0
1, 36480, Note_on_c, 0, 72, 80
1, 36480, Control_c, 0, 2, 80
1, 36480, Note_on_c, 0, 81, 80
1, 36839, Note_on_c, 0, 72, 0
1, 36839, Note_on_c, 0, 81, 0
1, 36840, Note_on_c, 0, 79, 80
1, 36840, Control_c, 0, 2, 80
1, 36959, Note_on_c, 0, 79, 0
1, 36960, Note_on_c, 0, 77, 80
1, 37319, Note_on_c, 0, 77, 0
1, 37320, Note_on_c, 0, 76, 80
1, 37320, Control_c, 0, 2, 80
1, 37439, Note_on_c, 0, 76, 0
1, 37440, Note_on_c, 0, 76, 80
1, 37799, Note_on_c, 0, 76, 0
1, 37800, Note_on_c, 0, 76, 80
1, 37800, Control_c, 0, 2, 80
1, 37919, Note_on_c, 0, 76, 0
1, 37920, Note_on_c, 0, 76, 80
1, 38279, Note_on_c, 0, 76, 0
1, 38280, Note_on_c, 0, 77, 80
1, 38280, Control_c, 0, 2, 80
1, 38399, Note_on_c, 0, 77, 0
1, 38400, Note_on_c, 0, 65, 80
1, 38400, Note_on_c, 0, 69, 80
1, 38400, Note_on_c, 0, 74, 80
1, 39120, Note_on_c, 0, 65, 0
1, 39120, Note_on_c, 1, 65, 0
1, 39359, Note_on_c, 0, 69, 0
1, 39359, Note_on_c, 0, 74, 0
1, 39600, Note_on_c, 0, 72, 80
1, 39600, Control_c, 0, 2, 80
1, 39719, Note_on_c, 0, 72, 0
1, 39720, Note_on_c, 0, 72, 80
1, 39720, Control_c, 0, 2, 80
1, 39839, Note_on_c, 0, 72, 0
1, 39840, Note_on_c, 0, 72, 80
1, 39959, Note_on_c, 0, 72, 0
1, 39960, Note_on_c, 0, 72, 80
1, 39960, Control_c, 0, 2, 80
1, 40079, Note_on_c, 0, 72, 0
1, 40080, Note_on_c, 0, 74, 80
1, 40319, Note_on_c, 0, 74, 0
1, 40320, Note_on_c, 0, 62, 80
1, 40320, Control_c, 0, 2, 80
1, 40799, Note_on_c, 0, 62, 0
1, 41520, Note_on_c, 0, 72, 80
1, 41520, Control_c, 0, 2, 80
1, 41639, Note_on_c, 0, 72, 0
1, 41640, Note_on_c, 0, 72, 80
1, 41640, Control_c, 0, 2, 80
1, 41759, Note_on_c, 0, 72, 0
1, 41760, Note_on_c, 0, 72, 80
1, 41879, Note_on_c, 0, 72, 0
1, 41880, Note_on_c, 0, 72, 80
1, 41880, Control_c, 0, 2, 80
1, 41999, Note_on_c, 0, 72, 0
1, 42000, Note_on_c, 0, 74, 80
1, 42239, Note_on_c, 0, 74, 0
1, 42240, Note_on_c, 0, 62, 80
1, 42240, Control_c, 0, 2, 80
1, 43199, Note_on_c, 0, 62, 0
1, 43440, Note_on_c, 0, 72, 80
1, 43440, Control_c, 0, 2, 80
1, 43559, Note_on_c, 0, 72, 0
1, 43560, Note_on_c, 0, 72, 80
1, 43560, Control_c, 0, 2, 80
1, 43679, Note_on_c, 0, 72, 0
1, 43680, Note_on_c, 0, 72, 80
1, 43799, Note_on_c, 0, 72, 0
1, 43800, Note_on_c, 0, 72, 80
1, 43800, Control_c, 0, 2, 80
1, 43919, Note_on_c, 0, 72, 0
1, 43920, Note_on_c, 0, 74, 80
1, 44159, Note_on_c, 0, 74, 0
1, 44160, Note_on_c, 0, 62, 80
1, 44160, Control_c, 0, 2, 80
1, 45599, Note_on_c, 0, 62, 0
1, 48000, Note_on_c, 0, 64, 80
1, 48000, Control_c, 0, 2, 80
1, 48000, Note_on_c, 0, 67, 80
1, 48000, Note_on_c, 0, 74, 80
1, 48359, Note_on_c, 0, 64, 0
1, 48359, Note_on_c, 0, 67, 0
1, 48359, Note_on_c, 0, 74, 0
1, 48360, Note_on_c, 0, 72, 80
1, 48360, Control_c, 0, 2, 80
1, 48479, Note_on_c, 0, 72, 0
1, 48480, Note_on_c, 0, 64, 80
1, 48480, Note_on_c, 0, 72, 80
1, 48839, Note_on_c, 0, 64, 0
1, 48839, Note_on_c, 0, 72, 0
1, 48840, Note_on_c, 0, 71, 80
1, 48840, Control_c, 0, 2, 80
1, 48959, Note_on_c, 0, 71, 0
1, 48960, Note_on_c, 0, 60, 80
1, 48960, Note_on_c, 0, 64, 80
1, 48960, Note_on_c, 0, 71, 80
1, 49320, Note_on_c, 0, 69, 80
1, 49320, Control_c, 0, 2, 80
1, 49439, Note_on_c, 0, 60, 0
1, 49439, Note_on_c, 0, 64, 0
1, 49439, Note_on_c, 0, 71, 0
1, 49439, Note_on_c, 0, 69, 0
1, 49440, Note_on_c, 0, 64, 80
1, 49440, Note_on_c, 0, 71, 80
1, 49799, Note_on_c, 0, 64, 0
1, 49799, Note_on_c, 0, 71, 0
1, 49800, Note_on_c, 0, 72, 80
1, 49800, Control_c, 0, 2, 80
1, 49919, Note_on_c, 0, 72, 0
1, 49920, Note_on_c, 0, 62, 80
1, 49920, Note_on_c, 0, 65, 80
1, 49920, Note_on_c, 0, 69, 80
1, 51839, Note_on_c, 0, 62, 0
1, 51839, Note_on_c, 0, 65, 0
1, 51839, Note_on_c, 0, 69, 0
1, 51840, Note_on_c, 0, 67, 80
1, 51840, Control_c, 0, 2, 80
1, 51840, Note_on_c, 0, 74, 80
1, 52199, Note_on_c, 0, 67, 0
1, 52199, Note_on_c, 0, 74, 0
1, 52200, Note_on_c, 0, 72, 80
1, 52200, Control_c, 0, 2, 80
1, 52319, Note_on_c, 0, 72, 0
1, 52320, Note_on_c, 0, 72, 80
1, 52679, Note_on_c, 0, 72, 0
1, 52680, Note_on_c, 0, 71, 80
1, 52680, Control_c, 0, 2, 80
1, 52799, Note_on_c, 0, 71, 0
1, 52800, Note_on_c, 0, 71, 80
1, 53159, Note_on_c, 0, 71, 0
1, 53160, Note_on_c, 0, 69, 80
1, 53160, Control_c, 0, 2, 80
1, 53279, Note_on_c, 0, 69, 0
1, 53280, Note_on_c, 0, 65, 80
1, 53280, Note_on_c, 0, 69, 80
1, 53280, Note_on_c, 0, 76, 80
1, 53640, Note_on_c, 0, 72, 80
1, 53640, Control_c, 0, 2, 80
1, 53759, Note_on_c, 0, 65, 0
1, 53759, Note_on_c, 0, 69, 0
1, 53759, Note_on_c, 0, 76, 0
1, 53759, Note_on_c, 0, 72, 0
1, 53760, Note_on_c, 0, 60, 80
1, 53760, Note_on_c, 0, 64, 80
1, 53760, Note_on_c, 0, 71, 80
1, 53999, Note_on_c, 0, 60, 0
1, 53999, Note_on_c, 0, 64, 0
1, 53999, Note_on_c, 0, 71, 0
1, 54000, Note_on_c, 0, 69, 80
1, 54000, Control_c, 0, 2, 80
1, 54720, Control_c, 0, 2, 80
1, 55079, Note_on_c, 0, 69, 0
1, 55440, Note_on_c, 0, 62, 80
1, 55440, Control_c, 0, 2, 80
1, 55679, Note_on_c, 0, 62, 0
1, 55680, Note_on_c, 0, 64, 80
1, 55680, Control_c, 0, 2, 80
1, 55680, Note_on_c, 0, 67, 80
1, 55680, Note_on_c, 0, 74, 80
1, 56039, Note_on_c, 0, 64, 0
1, 56039, Note_on_c, 0, 67, 0
1, 56039, Note_on_c, 0, 74, 0
1, 56040, Note_on_c, 0, 72, 80
1, 56040, Control_c, 0, 2, 80
1, 56159, Note_on_c, 0, 72, 0
1, 56160, Note_on_c, 0, 64, 80
1, 56160, Note_on_c, 0, 72, 80
1, 56519, Note_on_c, 0, 64, 0
1, 56519, Note_on_c, 0, 72, 0
1, 56520, Note_on_c, 0, 71, 80
1, 56520, Control_c, 0, 2, 80
1, 56639, Note_on_c, 0, 71, 0
1, 56640, Note_on_c, 0, 71, 80
1, 56819, Note_on_c, 0, 71, 0
1, 57000, Note_on_c, 0, 67, 80
1, 57000, Control_c, 0, 2, 80
1, 57119, Note_on_c, 0, 67, 0
1, 57120, Note_on_c, 0, 67, 80
1, 57479, Note_on_c, 0, 67, 0
1, 57480, Note_on_c, 0, 69, 80
1, 57480, Control_c, 0, 2, 80
1, 57599, Note_on_c, 0, 69, 0
1, 57600, Note_on_c, 0, 62, 80
1, 57600, Note_on_c, 0, 65, 80
1, 57600, Note_on_c, 0, 69, 80
1, 59040, Control_c, 0, 2, 80
1, 59159, Note_on_c, 0, 62, 0
1, 59159, Note_on_c, 0, 65, 0
1, 59159, Note_on_c, 0, 69, 0
1, 59280, Note_on_c, 0, 69, 80
1, 59280, Control_c, 0, 2, 80
1, 59519, Note_on_c, 0, 69, 0
1, 59520, Note_on_c, 0, 69, 80
1, 59520, Control_c, 0, 2, 80
1, 59879, Note_on_c, 0, 69, 0
1, 59880, Note_on_c, 0, 71, 80
1, 59880, Control_c, 0, 2, 80
1, 60239, Note_on_c, 0, 71, 0
1, 60480, Note_on_c, 0, 65, 80
1, 60480, Control_c, 0, 2, 80
1, 60480, Note_on_c, 0, 69, 80
1, 60480, Note_on_c, 0, 76, 80
1, 60959, Note_on_c, 0, 65, 0
1, 60959, Note_on_c, 0, 69, 0
1, 60959, Note_on_c, 0, 76, 0
1, 60960, Note_on_c, 0, 65, 80
1, 60960, Control_c, 0, 2, 80
1, 60960, Note_on_c, 0, 72, 80
1, 61439, Note_on_c, 0, 65, 0
1, 61439, Note_on_c, 0, 72, 0
1, 61440, Note_on_c, 0, 64, 80
1, 61440, Control_c, 0, 2, 80
1, 61440, Note_on_c, 0, 67, 80
1, 61440, Note_on_c, 0, 71, 80
1, 61440, Note_on_c, 0, 60, 80
1, 62399, Note_on_c, 0, 60, 0
1, 63359, Note_on_c, 0, 64, 0
1, 63359, Note_on_c, 0, 67, 0
1, 63359, Note_on_c, 0, 71, 0
1, 64320, Note_on_c, 0, 79, 80
1, 64320, Control_c, 0, 2, 80
1, 64679, Note_on_c, 0, 79, 0
1, 64680, Note_on_c, 0, 81, 80
1, 64680, Control_c, 0, 2, 80
1, 64799, Note_on_c, 0, 81, 0
1, 64800, Note_on_c, 0, 76, 80
1, 65039, Note_on_c, 0, 76, 0
1, 65040, Note_on_c, 0, 74, 80
1, 65040, Control_c, 0, 2, 80
1, 65279, Note_on_c, 0, 74, 0
1, 65280, Note_on_c, 0, 65, 80
1, 65280, Control_c, 0, 2, 80
1, 65280, Note_on_c, 0, 69, 80
1, 65280, Note_on_c, 0, 74, 80
1, 65519, Note_on_c, 0, 65, 0
1, 65519, Note_on_c, 0, 69, 0
1, 65519, Note_on_c, 0, 74, 0
1, 65520, Note_on_c, 0, 65, 80
1, 65520, Control_c, 0, 2, 80
1, 65520, Note_on_c, 0, 76, 80
1, 66240, Control_c, 0, 2, 80
1, 67200, Control_c, 0, 2, 80
1, 68159, Note_on_c, 0, 65, 0
1, 68159, Note_on_c, 0, 76, 0
1, 68160, Note_on_c, 0, 65, 80
1, 68160, Control_c, 0, 2, 80
1, 68160, Note_on_c, 0, 72, 80
1, 68639, Note_on_c, 0, 65, 0
1, 68639, Note_on_c, 0, 72, 0
1, 68640, Note_on_c, 0, 65, 80
1, 68640, Control_c, 0, 2, 80
1, 68640, Note_on_c, 0, 71, 80
1, 69119, Note_on_c, 0, 65, 0
1, 69119, Note_on_c, 0, 71, 0
1, 69120, Note_on_c, 0, 64, 80
1, 69120, Control_c, 0, 2, 80
1, 69180, Note_on_c, 0, 67, 80
1, 69210, Note_on_c, 0, 76, 80
1, 69359, Note_on_c, 0, 64, 0
1, 69359, Note_on_c, 0, 67, 0
1, 69359, Note_on_c, 0, 76, 0
1, 71040, Note_on_c, 0, 64, 80
1, 71100, Note_on_c, 0, 67, 80
1, 71130, Note_on_c, 0, 74, 80
1, 71279, Note_on_c, 0, 64, 0
1, 71279, Note_on_c, 0, 67, 0
1, 71279, Note_on_c, 0, 74, 0
1, 72960, Note_on_c, 0, 67, 80
1, 73020, Note_on_c, 0, 72, 80
1, 73050, Note_on_c, 0, 76, 80
1, 73199, Note_on_c, 0, 67, 0
1, 73199, Note_on_c, 0, 72, 0
1, 73199, Note_on_c, 0, 76, 0
1, 74880, Note_on_c, 0, 65, 80
1, 74910, Note_on_c, 0, 69, 80
1, 74940, Note_on_c, 0, 72, 80
1, 74970, Note_on_c, 0, 74, 80
1, 75119, Note_on_c, 0, 65, 0
1, 75119, Note_on_c, 0, 69, 0
1, 75119, Note_on_c, 0, 72, 0
1, 75119, Note_on_c, 0, 74, 0
1, 77280, Note_on_c, 0, 64, 80
1, 77399, Note_on_c, 0, 64, 0
1, 77400, Note_on_c, 0, 62, 80
1, 77519, Note_on_c, 0, 62, 0
1, 77520, Note_on_c, 0, 64, 80
1, 77639, Note_on_c, 0, 64, 0
1, 77640, Note_on_c, 0, 62, 80
1, 77759, Note_on_c, 0, 62, 0
1, 77760, Note_on_c, 0, 64, 80
1, 78719, Note_on_c, 0, 64, 0
1, 79440, Note_on_c, 0, 60, 80
1, 79679, Note_on_c, 0, 60, 0
1, 79680, Note_on_c, 0, 64, 80
1, 79799, Note_on_c, 0, 64, 0
1, 79920, Note_on_c, 0, 67, 80
1, 80399, Note_on_c, 0, 67, 0
1, 80400, Note_on_c, 0, 60, 80
1, 80400, Note_on_c, 0, 64, 80
1, 80400, Note_on_c, 0, 71, 80
1, 81119, Note_on_c, 0, 60, 0
1, 81119, Note_on_c, 0, 64, 0
1, 81119, Note_on_c, 0, 71, 0
1, 81120, Note_on_c, 0, 67, 80
1, 81359, Note_on_c, 0, 67, 0
1, 81360, Note_on_c, 0, 67, 80
1, 83519, Note_on_c, 0, 67, 0
1, 83520, Note_on_c, 0, 60, 80
1, 83520, Note_on_c, 0, 71, 80
1, 83759, Note_on_c, 0, 60, 0
1, 83759, Note_on_c, 0, 71, 0
1, 83760, Note_on_c, 0, 69, 80
1, 83999, Note_on_c, 0, 69, 0
1, 84000, Note_on_c, 0, 71, 80
1, 84239, Note_on_c, 0, 71, 0
1, 84240, Note_on_c, 0, 62, 80
1, 84240, Note_on_c, 0, 65, 80
1, 84240, Note_on_c, 0, 72, 80
1, 84959, Note_on_c, 0, 62, 0
1, 84959, Note_on_c, 0, 65, 0
1, 84959, Note_on_c, 0, 72, 0
1, 84960, Note_on_c, 0, 69, 80
1, 85199, Note_on_c, 0, 69, 0
1, 85200, Note_on_c, 0, 65, 80
1, 85200, Note_on_c, 0, 69, 80
1, 86279, Note_on_c, 0, 65, 0
1, 86279, Note_on_c, 0, 69, 0
1, 87360, Note_on_c, 0, 71, 80
1, 87599, Note_on_c, 0, 71, 0
1, 87600, Note_on_c, 0, 69, 80
1, 87839, Note_on_c, 0, 69, 0
1, 87840, Note_on_c, 0, 71, 80
1, 88079, Note_on_c, 0, 71, 0
1, 88080, Note_on_c, 0, 67, 80
1, 88080, Note_on_c, 0, 72, 80
1, 88080, Note_on_c, 0, 64, 80
1, 88799, Note_on_c, 0, 64, 0
1, 89040, Note_on_c, 0, 67, 0
1, 89040, Note_on_c, 1, 67, 0
1, 89759, Note_on_c, 0, 72, 0
1, 89760, Note_on_c, 0, 67, 80
1, 89760, Note_on_c, 0, 72, 80
1, 89999, Note_on_c, 0, 67, 0
1, 89999, Note_on_c, 0, 72, 0
1, 90000, Note_on_c, 0, 74, 80
1, 90000, Note_on_c, 0, 64, 80
1, 90719, Note_on_c, 0, 64, 0
1, 92159, Note_on_c, 0, 74, 0
1, 94080, Note_on_c, 0, 64, 80
1, 94080, Control_c, 0, 2, 80
1, 94080, Note_on_c, 0, 67, 80
1, 94080, Note_on_c, 0, 74, 80
1, 94439, Note_on_c, 0, 64, 0
1, 94439, Note_on_c, 0, 67, 0
1, 94439, Note_on_c, 0, 74, 0
1, 94440, Note_on_c, 0, 72, 80
1, 94440, Control_c, 0, 2, 80
1, 94559, Note_on_c, 0, 72, 0
1, 94560, Note_on_c, 0, 64, 80
1, 94560, Control_c, 0, 2, 80
1, 94560, Note_on_c, 0, 72, 80
1, 94919, Note_on_c, 0, 64, 0
1, 94919, Note_on_c, 0, 72, 0
1, 94920, Note_on_c, 0, 71, 80
1, 94920, Control_c, 0, 2, 80
1, 95039, Note_on_c, 0, 71, 0
1, 95040, Note_on_c, 0, 60, 80
1, 95040, Control_c, 0, 2, 80
1, 95040, Note_on_c, 0, 64, 80
1, 95040, Note_on_c, 0, 71, 80
1, 95400, Note_on_c, 0, 69, 80
1, 95400, Control_c, 0, 2, 80
1, 95519, Note_on_c, 0, 60, 0
1, 95519, Note_on_c, 0, 64, 0
1, 95519, Note_on_c, 0, 71, 0
1, 95519, Note_on_c, 0, 69, 0
1, 95520, Note_on_c, 0, 64, 80
1, 95520, Control_c, 0, 2, 80
1, 95520, Note_on_c, 0, 71, 80
1, 95879, Note_on_c, 0, 64, 0
1, 95879, Note_on_c, 0, 71, 0
1, 95880, Note_on_c, 0, 72, 80
1, 95880, Control_c, 0, 2, 80
1, 95999, Note_on_c, 0, 72, 0
1, 96000, Note_on_c, 0, 62, 80
1, 96000, Control_c, 0, 2, 80
1, 96000, Note_on_c, 0, 65, 80
1, 96000, Note_on_c, 0, 69, 80
1, 97919, Note_on_c, 0, 62, 0
1, 97919, Note_on_c, 0, 65, 0
1, 97919, Note_on_c, 0, 69, 0
1, 97920, Note_on_c, 0, 67, 80
1, 97920, Control_c, 0, 2, 80
1, 97920, Note_on_c, 0, 74, 80
1, 98279, Note_on_c, 0, 67, 0
1, 98279, Note_on_c, 0, 74, 0
1, 98280, Note_on_c, 0, 72, 80
1, 98280, Control_c, 0, 2, 80
1, 98399, Note_on_c, 0, 72, 0
1, 98400, Note_on_c, 0, 72, 80
1, 98400, Control_c, 0, 2, 80
1, 98759, Note_on_c, 0, 72, 0
1, 98760, Note_on_c, 0, 71, 80
1, 98760, Control_c, 0, 2, 80
1, 98879, Note_on_c, 0, 71, 0
1, 98880, Note_on_c, 0, 71, 80
1, 98880, Control_c, 0, 2, 80
1, 99239, Note_on_c, 0, 71, 0
1, 99240, Note_on_c, 0, 69, 80
1, 99240, Control_c, 0, 2, 80
1, 99359, Note_on_c, 0, 69, 0
1, 99360, Note_on_c, 0, 65, 80
1, 99360, Control_c, 0, 2, 80
1, 99360, Note_on_c, 0, 69, 80
1, 99360, Note_on_c, 0, 76, 80
1, 99720, Note_on_c, 0, 72, 80
1, 99720, Control_c, 0, 2, 80
1, 99839, Note_on_c, 0, 65, 0
1, 99839, Note_on_c, 0, 69, 0
1, 99839, Note_on_c, 0, 76, 0
1, 99839, Note_on_c, 0, 72, 0
1, 99840, Note_on_c, 0, 60, 80
1, 99840, Control_c, 0, 2, 80
1, 99840, Note_on_c, 0, 64, 80
1, 99840, Note_on_c, 0, 71, 80
1, 100079, Note_on_c, 0, 60, 0
1, 100079, Note_on_c, 0, 64, 0
1, 100079, Note_on_c, 0, 71, 0
1, 100080, Note_on_c, 0, 69, 80
1, 100080, Control_c, 0, 2, 80
1, 100800, Control_c, 0, 2, 80
1, 101159, Note_on_c, 0, 69, 0
1, 101520, Note_on_c, 0, 62, 80
1, 101520, Control_c, 0, 2, 80
1, 101759, Note_on_c, 0, 62, 0
1, 101760, Note_on_c, 0, 64, 80
1, 101760, Control_c, 0, 2, 80
1, 101760, Note_on_c, 0, 67, 80
1, 101760, Note_on_c, 0, 74, 80
1, 102119, Note_on_c, 0, 64, 0
1, 102119, Note_on_c, 0, 67, 0
1, 102119, Note_on_c, 0, 74, 0
1, 102120, Note_on_c, 0, 72, 80
1, 102120, Control_c, 0, 2, 80
1, 102239, Note_on_c, 0, 72, 0
1, 102240, Note_on_c, 0, 64, 80
1, 102240, Control_c, 0, 2, 80
1, 102240, Note_on_c, 0, 72, 80
1, 102599, Note_on_c, 0, 64, 0
1, 102599, Note_on_c, 0, 72, 0
1, 102600, Note_on_c, 0, 71, 80
1, 102600, Control_c, 0, 2, 80
1, 102719, Note_on_c, 0, 71, 0
1, 102720, Note_on_c, 0, 71, 80
1, 102720, Control_c, 0, 2, 80
1, 102899, Note_on_c, 0, 71, 0
1, 103080, Note_on_c, 0, 67, 80
1, 103080, Control_c, 0, 2, 80
1, 103199, Note_on_c, 0, 67, 0
1, 103200, Note_on_c, 0, 67, 80
1, 103200, Control_c, 0, 2, 80
1, 103559, Note_on_c, 0, 67, 0
1, 103560, Note_on_c, 0, 69, 80
1, 103560, Control_c, 0, 2, 80
1, 103679, Note_on_c, 0, 69, 0
1, 103680, Note_on_c, 0, 62, 80
1, 103680, Control_c, 0, 2, 80
1, 103680, Note_on_c, 0, 65, 80
1, 103680, Note_on_c, 0, 69, 80
1, 105120, Control_c, 0, 2, 80
1, 105239, Note_on_c, 0, 62, 0
1, 105239, Note_on_c, 0, 65, 0
1, 105239, Note_on_c, 0, 69, 0
1, 105360, Note_on_c, 0, 69, 80
1, 105360, Control_c, 0, 2, 80
1, 105599, Note_on_c, 0, 69, 0
1, 105600, Note_on_c, 0, 69, 80
1, 105600, Control_c, 0, 2, 80
1, 105959, Note_on_c, 0, 69, 0
1, 105960, Note_on_c, 0, 71, 80
1, 105960, Control_c, 0, 2, 80
1, 106080, Control_c, 0, 2, 80
1, 106319, Note_on_c, 0, 71, 0
1, 106560, Note_on_c, 0, 65, 80
1, 106560, Control_c, 0, 2, 80
1, 106560, Note_on_c, 0, 69, 80
1, 106560, Note_on_c, 0, 76, 80
1, 107039, Note_on_c, 0, 65, 0
1, 107039, Note_on_c, 0, 69, 0
1, 107039, Note_on_c, 0, 76, 0
1, 107040, Note_on_c, 0, 65, 80
1, 107040, Control_c, 0, 2, 80
1, 107040, Note_on_c, 0, 72, 80
1, 107519, Note_on_c, 0, 65, 0
1, 107519, Note_on_c, 0, 72, 0
1, 107520, Note_on_c, 0, 64, 80
1, 107520, Control_c, 0, 2, 80
1, 107520, Note_on_c, 0, 67, 80
1, 107520, Note_on_c, 0, 71, 80
1, 107520, Note_on_c, 0, 60, 80
1, 108479, Note_on_c, 0, 60, 0
1, 109439, Note_on_c, 0, 64, 0
1, 109439, Note_on_c, 0, 67, 0
1, 109439, Note_on_c, 0, 71, 0
1, 110400, Note_on_c, 0, 79, 80
1, 110400, Control_c, 0, 2, 80
1, 110759, Note_on_c, 0, 79, 0
1, 110760, Note_on_c, 0, 81, 80
1, 110760, Control_c, 0, 2, 80
1, 110879, Note_on_c, 0, 81, 0
1, 110880, Note_on_c, 0, 76, 80
1, 110880, Control_c, 0, 2, 80
1, 111119, Note_on_c, 0, 76, 0
1, 111120, Note_on_c, 0, 74, 80
1, 111120, Control_c, 0, 2, 80
1, 111359, Note_on_c, 0, 74, 0
1, 111360, Note_on_c, 0, 65, 80
1, 111360, Control_c, 0, 2, 80
1, 111360, Note_on_c, 0, 69, 80
1, 111360, Note_on_c, 0, 74, 80
1, 111599, Note_on_c, 0, 65, 0
1, 111599, Note_on_c, 0, 69, 0
1, 111599, Note_on_c, 0, 74, 0
1, 111600, Note_on_c, 0, 65, 80
1, 111600, Control_c, 0, 2, 80
1, 111600, Note_on_c, 0, 76, 80
1, 112320, Control_c, 0, 2, 80
1, 113280, Control_c, 0, 2, 80
1, 114239, Note_on_c, 0, 65, 0
1, 114239, Note_on_c, 0, 76, 0
1, 114240, Note_on_c, 0, 65, 80
1, 114240, Control_c, 0, 2, 80
1, 114240, Note_on_c, 0, 72, 80
1, 114719, Note_on_c, 0, 65, 0
1, 114719, Note_on_c, 0, 72, 0
1, 114720, Note_on_c, 0, 65, 80
1, 114720, Control_c, 0, 2, 80
1, 114720, Note_on_c, 0, 71, 80
1, 115199, Note_on_c, 0, 65, 0
1, 115199, Note_on_c, 0, 71, 0
1, 115200, Note_on_c, 0, 64, 80
1, 115200, Control_c, 0, 2, 80
1, 115260, Note_on_c, 0, 67, 80
1, 115260, Control_c, 0, 2, 80
1, 115290, Note_on_c, 0, 76, 80
1, 115439, Note_on_c, 0, 64, 0
1, 115439, Note_on_c, 0, 67, 0
1, 115439, Note_on_c, 0, 76, 0
1, 117120, Note_on_c, 0, 64, 80
1, 117180, Note_on_c, 0, 67, 80
1, 117180, Control_c, 0, 2, 80
1, 117210, Note_on_c, 0, 74, 80
1, 117359, Note_on_c, 0, 64, 0
1, 117359, Note_on_c, 0, 67, 0
1, 117359, Note_on_c, 0, 74, 0
1, 119040, Note_on_c, 0, 67, 80
1, 119100, Note_on_c, 0, 72, 80
1, 119100, Control_c, 0, 2, 80
1, 119130, Note_on_c, 0, 76, 80
1, 119279, Note_on_c, 0, 67, 0
1, 119279, Note_on_c, 0, 72, 0
1, 119279, Note_on_c, 0, 76, 0
1, 120960, Note_on_c, 0, 65, 64
1, 120990, Note_on_c, 0, 69, 64
1, 120990, Control_c, 0, 2, 80
1, 121020, Note_on_c, 0, 72, 64
1, 121050, Note_on_c, 0, 74, 64
1, 121199, Note_on_c, 0, 65, 0
1, 121199, Note_on_c, 0, 69, 0
1, 121199, Note_on_c, 0, 72, 0
1, 121199, Note_on_c, 0, 74, 0
1, 121920, Note_on_c, 0, 65, 80
1, 121920, Note_on_c, 0, 72, 80
1, 122159, Note_on_c, 0, 65, 0
1, 122159, Note_on_c, 0, 72, 0
1, 122400, Note_on_c, 0, 71, 88
1, 122639, Note_on_c, 0, 71, 0
1, 122880, Note_on_c, 0, 64, 80
1, 122940, Note_on_c, 0, 67, 80
1, 122970, Note_on_c, 0, 76, 80
1, 123119, Note_on_c, 0, 64, 0
1, 123119, Note_on_c, 0, 67, 0
1, 123119, Note_on_c, 0, 76, 0
1, 124800, Note_on_c, 0, 64, 80
1, 124860, Note_on_c, 0, 67, 80
1, 124890, Note_on_c, 0, 74, 80
1, 125039, Note_on_c, 0, 64, 0
1, 125039, Note_on_c, 0, 67, 0
1, 125039, Note_on_c, 0, 74, 0
1, 126720, Note_on_c, 0, 67, 80
1, 126780, Note_on_c, 0, 72, 80
1, 126810, Note_on_c, 0, 76, 80
1, 126959, Note_on_c, 0, 67, 0
1, 126959, Note_on_c, 0, 72, 0
1, 126959, Note_on_c, 0, 76, 0
1, 128640, Note_on_c, 0, 65, 64
1, 128670, Note_on_c, 0, 69, 64
1, 128700, Note_on_c, 0, 72, 64
1, 128730, Note_on_c, 0, 74, 64
1, 128879, Note_on_c, 0, 65, 0
1, 128879, Note_on_c, 0, 69, 0
1, 128879, Note_on_c, 0, 72, 0
1, 128879, Note_on_c, 0, 74, 0
1, 129600, Note_on_c, 0, 65, 80
1, 129600, Note_on_c, 0, 72, 80
1, 129839, Note_on_c, 0, 65, 0
1, 129839, Note_on_c, 0, 72, 0
1, 130080, Note_on_c, 0, 71, 88
1, 130559, Note_on_c, 0, 71, 0
1, 131520, Note_on_c, 0, 64, 80
1, 131520, Control_c, 0, 2, 80
1, 131520, Note_on_c, 0, 67, 80
1, 131520, Note_on_c, 0, 71, 80
1, 132480, Control_c, 0, 2, 80
1, 134399, Note_on_c, 0, 64, 0
1, 134399, Note_on_c, 0, 67, 0
1, 134399, Note_on_c, 0, 71, 0
1, 135360, Note_on_c, 0, 60, 80
1, 135360, Control_c, 0, 2, 80
1, 135360, Note_on_c, 0, 64, 80
1, 135360, Note_on_c, 0, 67, 80
1, 136320, Control_c, 0, 2, 80
1, 138239, Note_on_c, 0, 60, 0
1, 138239, Note_on_c, 0, 64, 0
1, 138239, Note_on_c, 0, 67, 0
1, 139200, Note_on_c, 0, 60, 80
1, 139200, Control_c, 0, 2, 80
1, 139200, Note_on_c, 0, 65, 80
1, 139200, Note_on_c, 0, 69, 80
1, 140160, Control_c, 0, 2, 80
1, 142079, Note_on_c, 0, 60, 0
1, 142079, Note_on_c, 0, 65, 0
1, 142079, Note_on_c, 0, 69, 0
1, 143040, Note_on_c, 0, 62, 80
1, 143040, Control_c, 0, 2, 80
1, 143040, Note_on_c, 0, 67, 80
1, 143040, Note_on_c, 0, 71, 80
1, 143519, Note_on_c, 0, 62, 0
1, 143519, Note_on_c, 0, 67, 0
1, 143519, Note_on_c, 0, 71, 0
1, 143520, End_track
2, 0, Start_track
2, 0, Title_t, "Brass Synthesizer, Brass Synthesizer\000"
2, 0, Key_signature, 0, "major"
2, 0, MIDI_port, 0
2, 0, MIDI_port, 0
2, 15360, Note_on_c, 0, 48, 80
2, 15360, Control_c, 0, 2, 80
2, 15599, Note_on_c, 0, 48, 0
2, 15600, Note_on_c, 0, 55, 80
2, 15600, Control_c, 0, 2, 80
2, 15839, Note_on_c, 0, 55, 0
2, 15840, Note_on_c, 0, 60, 80
2, 15840, Note_on_c, 0, 67, 80
2, 16079, Note_on_c, 0, 60, 0
2, 16079, Note_on_c, 0, 67, 0
2, 16080, Note_on_c, 0, 64, 80
2, 16319, Note_on_c, 0, 64, 0
2, 16320, Note_on_c, 0, 60, 80
2, 16320, Note_on_c, 0, 64, 80
2, 16320, Note_on_c, 0, 67, 80
2, 16799, Note_on_c, 0, 60, 0
2, 16799, Note_on_c, 0, 64, 0
2, 16799, Note_on_c, 0, 67, 0
2, 17040, Note_on_c, 0, 55, 80
2, 17040, Control_c, 0, 2, 80
2, 17279, Note_on_c, 0, 55, 0
2, 17280, Note_on_c, 0, 48, 80
2, 17280, Control_c, 0, 2, 80
2, 17519, Note_on_c, 0, 48, 0
2, 17520, Note_on_c, 0, 55, 80
2, 17520, Control_c, 0, 2, 80
2, 17759, Note_on_c, 0, 55, 0
2, 17760, Note_on_c, 0, 60, 80
2, 17760, Control_c, 0, 2, 80
2, 17999, Note_on_c, 0, 60, 0
2, 18000, Note_on_c, 0, 55, 80
2, 18239, Note_on_c, 0, 55, 0
2, 18240, Note_on_c, 0, 60, 80
2, 18240, Note_on_c, 0, 64, 80
2, 18240, Note_on_c, 0, 67, 80
2, 18719, Note_on_c, 0, 60, 0
2, 18719, Note_on_c, 0, 64, 0
2, 18719, Note_on_c, 0, 67, 0
2, 18720, Note_on_c, 0, 59, 80
2, 18720, Control_c, 0, 2, 80
2, 19199, Note_on_c, 0, 59, 0
2, 19200, Note_on_c, 0, 52, 80
2, 19439, Note_on_c, 0, 52, 0
2, 19440, Note_on_c, 0, 57, 80
2, 19440, Control_c, 0, 2, 80
2, 19679, Note_on_c, 0, 57, 0
2, 19680, Note_on_c, 0, 60, 80
2, 19919, Note_on_c, 0, 60, 0
2, 19920, Note_on_c, 0, 64, 80
2, 20159, Note_on_c, 0, 64, 0
2, 20160, Note_on_c, 0, 60, 80
2, 20160, Note_on_c, 0, 64, 80
2, 20160, Note_on_c, 0, 69, 80
2, 21119, Note_on_c, 0, 60, 0
2, 21119, Note_on_c, 0, 64, 0
2, 21119, Note_on_c, 0, 69, 0
2, 21120, Note_on_c, 0, 52, 80
2, 21359, Note_on_c, 0, 52, 0
2, 21360, Note_on_c, 0, 55, 80
2, 21360, Control_c, 0, 2, 80
2, 21599, Note_on_c, 0, 55, 0
2, 21600, Note_on_c, 0, 60, 80
2, 21600, Control_c, 0, 2, 80
2, 21839, Note_on_c, 0, 60, 0
2, 21840, Note_on_c, 0, 64, 80
2, 21840, Control_c, 0, 2, 80
2, 22079, Note_on_c, 0, 64, 0
2, 22080, Note_on_c, 0, 55, 80
2, 22559, Note_on_c, 0, 55, 0
2, 22560, Note_on_c, 0, 52, 80
2, 23039, Note_on_c, 0, 52, 0
2, 23040, Note_on_c, 0, 50, 80
2, 23279, Note_on_c, 0, 50, 0
2, 23280, Note_on_c, 0, 57, 80
2, 23519, Note_on_c, 0, 57, 0
2, 23520, Note_on_c, 0, 62, 80
2, 23520, Control_c, 0, 2, 80
2, 23759, Note_on_c, 0, 62, 0
2, 23760, Note_on_c, 0, 65, 80
2, 23760, Control_c, 0, 2, 80
2, 23999, Note_on_c, 0, 65, 0
2, 24000, Note_on_c, 0, 60, 80
2, 24000, Note_on_c, 0, 65, 80
2, 24000, Note_on_c, 0, 69, 80
2, 24479, Note_on_c, 0, 60, 0
2, 24479, Note_on_c, 0, 65, 0
2, 24479, Note_on_c, 0, 69, 0
2, 24720, Note_on_c, 0, 57, 80
2, 24720, Control_c, 0, 2, 80
2, 24959, Note_on_c, 0, 57, 0
2, 24960, Note_on_c, 0, 50, 80
2, 25199, Note_on_c, 0, 50, 0
2, 25200, Note_on_c, 0, 57, 80
2, 25200, Control_c, 0, 2, 80
2, 25439, Note_on_c, 0, 57, 0
2, 25440, Note_on_c, 0, 62, 80
2, 25440, Control_c, 0, 2, 80
2, 25679, Note_on_c, 0, 62, 0
2, 25680, Note_on_c, 0, 65, 80
2, 25680, Control_c, 0, 2, 80
2, 25919, Note_on_c, 0, 65, 0
2, 26400, Note_on_c, 0, 50, 80
2, 26879, Note_on_c, 0, 50, 0
2, 26880, Note_on_c, 0, 52, 80
2, 27119, Note_on_c, 0, 52, 0
2, 27120, Note_on_c, 0, 59, 80
2, 27120, Control_c, 0, 2, 80
2, 27359, Note_on_c, 0, 59, 0
2, 27360, Note_on_c, 0, 64, 80
2, 27360, Control_c, 0, 2, 80
2, 27599, Note_on_c, 0, 64, 0
2, 27600, Note_on_c, 0, 67, 80
2, 27839, Note_on_c, 0, 67, 0
2, 27840, Note_on_c, 0, 71, 80
2, 27840, Control_c, 0, 2, 80
2, 28079, Note_on_c, 0, 71, 0
2, 28080, Note_on_c, 0, 67, 80
2, 28080, Control_c, 0, 2, 80
2, 28319, Note_on_c, 0, 67, 0
2, 28320, Note_on_c, 0, 64, 80
2, 28320, Control_c, 0, 2, 80
2, 28559, Note_on_c, 0, 64, 0
2, 28560, Note_on_c, 0, 59, 80
2, 28560, Control_c, 0, 2, 80
2, 28799, Note_on_c, 0, 59, 0
2, 28800, Note_on_c, 0, 52, 80
2, 29039, Note_on_c, 0, 52, 0
2, 29040, Note_on_c, 0, 59, 80
2, 29040, Control_c, 0, 2, 80
2, 29279, Note_on_c, 0, 59, 0
2, 29280, Note_on_c, 0, 64, 80
2, 29280, Control_c, 0, 2, 80
2, 29519, Note_on_c, 0, 64, 0
2, 29520, Note_on_c, 0, 67, 80
2, 29520, Control_c, 0, 2, 80
2, 29759, Note_on_c, 0, 67, 0
2, 29760, Note_on_c, 0, 71, 80
2, 29760, Control_c, 0, 2, 80
2, 29999, Note_on_c, 0, 71, 0
2, 30000, Note_on_c, 0, 67, 80
2, 30239, Note_on_c, 0, 67, 0
2, 30240, Note_on_c, 0, 64, 80
2, 30479, Note_on_c, 0, 64, 0
2, 30480, Note_on_c, 0, 59, 80
2, 30719, Note_on_c, 0, 59, 0
2, 30720, Note_on_c, 0, 48, 80
2, 30720, Control_c, 0, 2, 80
2, 30960, Note_on_c, 0, 55, 80
2, 30960, Control_c, 0, 2, 80
2, 31199, Note_on_c, 0, 55, 0
2, 31200, Note_on_c, 0, 60, 80
2, 31200, Control_c, 0, 2, 80
2, 31439, Note_on_c, 0, 60, 0
2, 31440, Note_on_c, 0, 64, 80
2, 31440, Control_c, 0, 2, 80
2, 31679, Note_on_c, 0, 64, 0
2, 31680, Note_on_c, 0, 67, 80
2, 31680, Control_c, 0, 2, 80
2, 32399, Note_on_c, 0, 67, 0
2, 32400, Note_on_c, 0, 55, 80
2, 32639, Note_on_c, 0, 48, 0
2, 32639, Note_on_c, 0, 55, 0
2, 32640, Note_on_c, 0, 48, 80
2, 32880, Note_on_c, 0, 55, 80
2, 32880, Control_c, 0, 2, 80
2, 33119, Note_on_c, 0, 55, 0
2, 33120, Note_on_c, 0, 60, 80
2, 33359, Note_on_c, 0, 60, 0
2, 33360, Note_on_c, 0, 64, 80
2, 33360, Control_c, 0, 2, 80
2, 33599, Note_on_c, 0, 64, 0
2, 33600, Note_on_c, 0, 67, 80
2, 34079, Note_on_c, 0, 67, 0
2, 34080, Note_on_c, 0, 60, 80
2, 34559, Note_on_c, 0, 48, 0
2, 34559, Note_on_c, 0, 60, 0
2, 34560, Note_on_c, 0, 57, 80
2, 34799, Note_on_c, 0, 57, 0
2, 34800, Note_on_c, 0, 52, 80
2, 34800, Control_c, 0, 2, 80
2, 35039, Note_on_c, 0, 52, 0
2, 35040, Note_on_c, 0, 57, 80
2, 35040, Control_c, 0, 2, 80
2, 35279, Note_on_c, 0, 57, 0
2, 35280, Note_on_c, 0, 60, 80
2, 35280, Control_c, 0, 2, 80
2, 35519, Note_on_c, 0, 60, 0
2, 35520, Note_on_c, 0, 64, 80
2, 35520, Control_c, 0, 2, 80
2, 36239, Note_on_c, 0, 64, 0
2, 36240, Note_on_c, 0, 52, 80
2, 36479, Note_on_c, 0, 52, 0
2, 36480, Note_on_c, 0, 57, 80
2, 36719, Note_on_c, 0, 57, 0
2, 36720, Note_on_c, 0, 57, 80
2, 36720, Control_c, 0, 2, 80
2, 36959, Note_on_c, 0, 57, 0
2, 36960, Note_on_c, 0, 60, 80
2, 37199, Note_on_c, 0, 60, 0
2, 37200, Note_on_c, 0, 64, 80
2, 37200, Control_c, 0, 2, 80
2, 37439, Note_on_c, 0, 64, 0
2, 37440, Note_on_c, 0, 67, 80
2, 37919, Note_on_c, 0, 67, 0
2, 37920, Note_on_c, 0, 57, 80
2, 38399, Note_on_c, 0, 57, 0
2, 38400, Note_on_c, 0, 50, 80
2, 38400, Note_on_c, 0, 53, 80
2, 38639, Note_on_c, 0, 50, 0
2, 38639, Note_on_c, 0, 53, 0
2, 38640, Note_on_c, 0, 57, 80
2, 38640, Control_c, 0, 2, 80
2, 38879, Note_on_c, 0, 57, 0
2, 38880, Note_on_c, 0, 62, 80
2, 38880, Control_c, 0, 2, 80
2, 39119, Note_on_c, 0, 62, 0
2, 39120, Note_on_c, 0, 65, 80
2, 39120, Control_c, 0, 2, 80
2, 39359, Note_on_c, 0, 65, 0
2, 39360, Note_on_c, 0, 69, 80
2, 39360, Control_c, 0, 2, 80
2, 39839, Note_on_c, 0, 69, 0
2, 39840, Note_on_c, 0, 57, 80
2, 40319, Note_on_c, 0, 57, 0
2, 40320, Note_on_c, 0, 50, 80
2, 40320, Note_on_c, 0, 53, 80
2, 40320, Note_on_c, 0, 57, 80
2, 40559, Note_on_c, 0, 50, 0
2, 40559, Note_on_c, 0, 53, 0
2, 40559, Note_on_c, 0, 57, 0
2, 40560, Note_on_c, 0, 57, 80
2, 40560, Control_c, 0, 2, 80
2, 40799, Note_on_c, 0, 57, 0
2, 40800, Note_on_c, 0, 62, 80
2, 40800, Control_c, 0, 2, 80
2, 41040, Note_on_c, 0, 65, 80
2, 41040, Control_c, 0, 2, 80
2, 41279, Note_on_c, 0, 62, 0
2, 41279, Note_on_c, 0, 65, 0
2, 41280, Note_on_c, 0, 69, 80
2, 41280, Control_c, 0, 2, 80
2, 41759, Note_on_c, 0, 69, 0
2, 41760, Note_on_c, 0, 50, 80
2, 42239, Note_on_c, 0, 50, 0
2, 42240, Note_on_c, 0, 52, 80
2, 42240, Note_on_c, 0, 55, 80
2, 42240, Note_on_c, 0, 59, 80
2, 42479, Note_on_c, 0, 52, 0
2, 42479, Note_on_c, 0, 55, 0
2, 42479, Note_on_c, 0, 59, 0
2, 42480, Note_on_c, 0, 59, 80
2, 42480, Control_c, 0, 2, 80
2, 42719, Note_on_c, 0, 59, 0
2, 42720, Note_on_c, 0, 64, 80
2, 42720, Control_c, 0, 2, 80
2, 42959, Note_on_c, 0, 64, 0
2, 42960, Note_on_c, 0, 67, 80
2, 42960, Control_c, 0, 2, 80
2, 43199, Note_on_c, 0, 67, 0
2, 43200, Note_on_c, 0, 71, 80
2, 43200, Control_c, 0, 2, 80
2, 43679, Note_on_c, 0, 71, 0
2, 43680, Note_on_c, 0, 52, 80
2, 44159, Note_on_c, 0, 52, 0
2, 44160, Note_on_c, 0, 52, 80
2, 44160, Note_on_c, 0, 59, 80
2, 44399, Note_on_c, 0, 52, 0
2, 44399, Note_on_c, 0, 59, 0
2, 44400, Note_on_c, 0, 59, 80
2, 44400, Control_c, 0, 2, 80
2, 44639, Note_on_c, 0, 59, 0
2, 44640, Note_on_c, 0, 64, 80
2, 44640, Control_c, 0, 2, 80
2, 44879, Note_on_c, 0, 64, 0
2, 44880, Note_on_c, 0, 67, 80
2, 44880, Control_c, 0, 2, 80
2, 45119, Note_on_c, 0, 67, 0
2, 45120, Note_on_c, 0, 71, 80
2, 45120, Control_c, 0, 2, 80
2, 45599, Note_on_c, 0, 71, 0
2, 46080, Note_on_c, 0, 48, 80
2, 46080, Control_c, 0, 2, 80
2, 46799, Note_on_c, 0, 48, 0
2, 46800, Note_on_c, 0, 48, 80
2, 46800, Control_c, 0, 2, 80
2, 46800, Note_on_c, 0, 52, 80
2, 46800, Note_on_c, 0, 55, 80
2, 47039, Note_on_c, 0, 48, 0
2, 47039, Note_on_c, 0, 52, 0
2, 47039, Note_on_c, 0, 55, 0
2, 47040, Note_on_c, 0, 60, 80
2, 47040, Control_c, 0, 2, 80
2, 47759, Note_on_c, 0, 60, 0
2, 47760, Note_on_c, 0, 48, 80
2, 47760, Control_c, 0, 2, 80
2, 47999, Note_on_c, 0, 48, 0
2, 48000, Note_on_c, 0, 48, 80
2, 48719, Note_on_c, 0, 48, 0
2, 48720, Note_on_c, 0, 48, 80
2, 48720, Control_c, 0, 2, 80
2, 48720, Note_on_c, 0, 52, 80
2, 48720, Note_on_c, 0, 55, 80
2, 48959, Note_on_c, 0, 48, 0
2, 48959, Note_on_c, 0, 52, 0
2, 48959, Note_on_c, 0, 55, 0
2, 49440, Note_on_c, 0, 48, 80
2, 49440, Note_on_c, 0, 52, 80
2, 49440, Note_on_c, 0, 55, 80
2, 49919, Note_on_c, 0, 48, 0
2, 49919, Note_on_c, 0, 52, 0
2, 49919, Note_on_c, 0, 55, 0
2, 49920, Note_on_c, 0, 50, 80
2, 50639, Note_on_c, 0, 50, 0
2, 50640, Note_on_c, 0, 50, 80
2, 50640, Control_c, 0, 2, 80
2, 50640, Note_on_c, 0, 53, 80
2, 50640, Note_on_c, 0, 57, 80
2, 50879, Note_on_c, 0, 50, 0
2, 50879, Note_on_c, 0, 53, 0
2, 50879, Note_on_c, 0, 57, 0
2, 50880, Note_on_c, 0, 60, 80
2, 50880, Control_c, 0, 2, 80
2, 50880, Note_on_c, 0, 64, 80
2, 51839, Note_on_c, 0, 60, 0
2, 51839, Note_on_c, 0, 64, 0
2, 51840, Note_on_c, 0, 50, 80
2, 52559, Note_on_c, 0, 50, 0
2, 52560, Note_on_c, 0, 53, 80
2, 52560, Control_c, 0, 2, 80
2, 52560, Note_on_c, 0, 57, 80
2, 52799, Note_on_c, 0, 53, 0
2, 52799, Note_on_c, 0, 57, 0
2, 52800, Note_on_c, 0, 60, 80
2, 53279, Note_on_c, 0, 60, 0
2, 53280, Note_on_c, 0, 50, 80
2, 53280, Note_on_c, 0, 53, 80
2, 53280, Note_on_c, 0, 57, 80
2, 53759, Note_on_c, 0, 50, 0
2, 53759, Note_on_c, 0, 53, 0
2, 53759, Note_on_c, 0, 57, 0
2, 53760, Note_on_c, 0, 48, 80
2, 54479, Note_on_c, 0, 48, 0
2, 54480, Note_on_c, 0, 48, 80
2, 54480, Control_c, 0, 2, 80
2, 54480, Note_on_c, 0, 52, 80
2, 54480, Note_on_c, 0, 55, 80
2, 54719, Note_on_c, 0, 48, 0
2, 54719, Note_on_c, 0, 52, 0
2, 54719, Note_on_c, 0, 55, 0
2, 54720, Note_on_c, 0, 60, 80
2, 55199, Note_on_c, 0, 60, 0
2, 55200, Note_on_c, 0, 48, 80
2, 55200, Control_c, 0, 2, 80
2, 55200, Note_on_c, 0, 52, 80
2, 55200, Note_on_c, 0, 55, 80
2, 55679, Note_on_c, 0, 48, 0
2, 55679, Note_on_c, 0, 52, 0
2, 55679, Note_on_c, 0, 55, 0
2, 55680, Note_on_c, 0, 48, 80
2, 56399, Note_on_c, 0, 48, 0
2, 56400, Note_on_c, 0, 48, 80
2, 56400, Control_c, 0, 2, 80
2, 56400, Note_on_c, 0, 52, 80
2, 56400, Note_on_c, 0, 55, 80
2, 56639, Note_on_c, 0, 48, 0
2, 56639, Note_on_c, 0, 52, 0
2, 56639, Note_on_c, 0, 55, 0
2, 56640, Note_on_c, 0, 60, 80
2, 57119, Note_on_c, 0, 60, 0
2, 57120, Note_on_c, 0, 48, 80
2, 57599, Note_on_c, 0, 48, 0
2, 57600, Note_on_c, 0, 50, 80
2, 58319, Note_on_c, 0, 50, 0
2, 58320, Note_on_c, 0, 50, 80
2, 58320, Control_c, 0, 2, 80
2, 58320, Note_on_c, 0, 53, 80
2, 58320, Note_on_c, 0, 57, 80
2, 58559, Note_on_c, 0, 50, 0
2, 58559, Note_on_c, 0, 53, 0
2, 58559, Note_on_c, 0, 57, 0
2, 58560, Note_on_c, 0, 60, 80
2, 58560, Control_c, 0, 2, 80
2, 59039, Note_on_c, 0, 60, 0
2, 59040, Note_on_c, 0, 50, 80
2, 59040, Note_on_c, 0, 53, 80
2, 59040, Note_on_c, 0, 57, 80
2, 59519, Note_on_c, 0, 50, 0
2, 59519, Note_on_c, 0, 53, 0
2, 59519, Note_on_c, 0, 57, 0
2, 59520, Note_on_c, 0, 50, 80
2, 60239, Note_on_c, 0, 50, 0
2, 60240, Note_on_c, 0, 50, 80
2, 60240, Control_c, 0, 2, 80
2, 60240, Note_on_c, 0, 53, 80
2, 60240, Note_on_c, 0, 57, 80
2, 60479, Note_on_c, 0, 50, 0
2, 60479, Note_on_c, 0, 53, 0
2, 60479, Note_on_c, 0, 57, 0
2, 60480, Note_on_c, 0, 60, 80
2, 60959, Note_on_c, 0, 60, 0
2, 60960, Note_on_c, 0, 50, 80
2, 60960, Note_on_c, 0, 53, 80
2, 60960, Note_on_c, 0, 57, 80
2, 61439, Note_on_c, 0, 50, 0
2, 61439, Note_on_c, 0, 53, 0
2, 61439, Note_on_c, 0, 57, 0
2, 61440, Note_on_c, 0, 48, 80
2, 62159, Note_on_c, 0, 48, 0
2, 62160, Note_on_c, 0, 48, 80
2, 62160, Control_c, 0, 2, 80
2, 62160, Note_on_c, 0, 52, 80
2, 62160, Note_on_c, 0, 55, 80
2, 62399, Note_on_c, 0, 48, 0
2, 62399, Note_on_c, 0, 52, 0
2, 62399, Note_on_c, 0, 55, 0
2, 62400, Note_on_c, 0, 60, 80
2, 62400, Control_c, 0, 2, 80
2, 62880, Note_on_c, 0, 48, 80
2, 62880, Control_c, 0, 2, 80
2, 62880, Note_on_c, 0, 52, 80
2, 62880, Note_on_c, 0, 55, 80
2, 63359, Note_on_c, 0, 60, 0
2, 63359, Note_on_c, 0, 48, 0
2, 63359, Note_on_c, 0, 52, 0
2, 63359, Note_on_c, 0, 55, 0
2, 63360, Note_on_c, 0, 48, 80
2, 63360, Control_c, 0, 2, 80
2, 64079, Note_on_c, 0, 48, 0
2, 64080, Note_on_c, 0, 48, 80
2, 64080, Control_c, 0, 2, 80
2, 64080, Note_on_c, 0, 52, 80
2, 64080, Note_on_c, 0, 55, 80
2, 64319, Note_on_c, 0, 48, 0
2, 64319, Note_on_c, 0, 52, 0
2, 64319, Note_on_c, 0, 55, 0
2, 64320, Note_on_c, 0, 60, 80
2, 64320, Note_on_c, 0, 65, 80
2, 64499, Note_on_c, 0, 60, 0
2, 64499, Note_on_c, 0, 65, 0
2, 64680, Note_on_c, 0, 65, 80
2, 64799, Note_on_c, 0, 65, 0
2, 64800, Note_on_c, 0, 48, 80
2, 64800, Note_on_c, 0, 52, 80
2, 64800, Note_on_c, 0, 55, 80
2, 65039, Note_on_c, 0, 48, 0
2, 65039, Note_on_c, 0, 52, 0
2, 65039, Note_on_c, 0, 55, 0
2, 65040, Note_on_c, 0, 65, 80
2, 65279, Note_on_c, 0, 65, 0
2, 65280, Note_on_c, 0, 50, 80
2, 65999, Note_on_c, 0, 50, 0
2, 66000, Note_on_c, 0, 50, 80
2, 66000, Control_c, 0, 2, 80
2, 66000, Note_on_c, 0, 53, 80
2, 66000, Note_on_c, 0, 57, 80
2, 66239, Note_on_c, 0, 50, 0
2, 66239, Note_on_c, 0, 53, 0
2, 66239, Note_on_c, 0, 57, 0
2, 66240, Note_on_c, 0, 60, 80
2, 66719, Note_on_c, 0, 60, 0
2, 66720, Note_on_c, 0, 50, 80
2, 66720, Control_c, 0, 2, 80
2, 66720, Note_on_c, 0, 53, 80
2, 66720, Note_on_c, 0, 57, 80
2, 67199, Note_on_c, 0, 50, 0
2, 67199, Note_on_c, 0, 53, 0
2, 67199, Note_on_c, 0, 57, 0
2, 67200, Note_on_c, 0, 50, 80
2, 67919, Note_on_c, 0, 50, 0
2, 67920, Note_on_c, 0, 50, 80
2, 67920, Control_c, 0, 2, 80
2, 67920, Note_on_c, 0, 53, 80
2, 67920, Note_on_c, 0, 57, 80
2, 68159, Note_on_c, 0, 50, 0
2, 68159, Note_on_c, 0, 53, 0
2, 68159, Note_on_c, 0, 57, 0
2, 68160, Note_on_c, 0, 60, 80
2, 68639, Note_on_c, 0, 60, 0
2, 68640, Note_on_c, 0, 50, 80
2, 69119, Note_on_c, 0, 50, 0
2, 69120, Note_on_c, 0, 48, 80
2, 69359, Note_on_c, 0, 48, 0
2, 69360, Note_on_c, 0, 55, 80
2, 69599, Note_on_c, 0, 55, 0
2, 69600, Note_on_c, 0, 60, 80
2, 69839, Note_on_c, 0, 60, 0
2, 69840, Note_on_c, 0, 64, 80
2, 70079, Note_on_c, 0, 64, 0
2, 70080, Note_on_c, 0, 67, 80
2, 70319, Note_on_c, 0, 67, 0
2, 70320, Note_on_c, 0, 64, 80
2, 70559, Note_on_c, 0, 64, 0
2, 70560, Note_on_c, 0, 60, 80
2, 70799, Note_on_c, 0, 60, 0
2, 70800, Note_on_c, 0, 55, 80
2, 71039, Note_on_c, 0, 55, 0
2, 71040, Note_on_c, 0, 48, 80
2, 71279, Note_on_c, 0, 48, 0
2, 71280, Note_on_c, 0, 55, 80
2, 71519, Note_on_c, 0, 55, 0
2, 71520, Note_on_c, 0, 60, 80
2, 71759, Note_on_c, 0, 60, 0
2, 71760, Note_on_c, 0, 64, 80
2, 71999, Note_on_c, 0, 64, 0
2, 72000, Note_on_c, 0, 67, 80
2, 72239, Note_on_c, 0, 67, 0
2, 72240, Note_on_c, 0, 64, 80
2, 72479, Note_on_c, 0, 64, 0
2, 72480, Note_on_c, 0, 60, 80
2, 72719, Note_on_c, 0, 60, 0
2, 72720, Note_on_c, 0, 55, 80
2, 72959, Note_on_c, 0, 55, 0
2, 72960, Note_on_c, 0, 50, 80
2, 73199, Note_on_c, 0, 50, 0
2, 73200, Note_on_c, 0, 57, 80
2, 73439, Note_on_c, 0, 57, 0
2, 73440, Note_on_c, 0, 62, 80
2, 73679, Note_on_c, 0, 62, 0
2, 73680, Note_on_c, 0, 65, 80
2, 73919, Note_on_c, 0, 65, 0
2, 73920, Note_on_c, 0, 69, 80
2, 74159, Note_on_c, 0, 69, 0
2, 74160, Note_on_c, 0, 65, 80
2, 74399, Note_on_c, 0, 65, 0
2, 74400, Note_on_c, 0, 62, 80
2, 74639, Note_on_c, 0, 62, 0
2, 74640, Note_on_c, 0, 57, 80
2, 74879, Note_on_c, 0, 57, 0
2, 74880, Note_on_c, 0, 50, 80
2, 75119, Note_on_c, 0, 50, 0
2, 75120, Note_on_c, 0, 57, 80
2, 75359, Note_on_c, 0, 57, 0
2, 75360, Note_on_c, 0, 62, 80
2, 75599, Note_on_c, 0, 62, 0
2, 75600, Note_on_c, 0, 65, 80
2, 75839, Note_on_c, 0, 65, 0
2, 75840, Note_on_c, 0, 69, 80
2, 76079, Note_on_c, 0, 69, 0
2, 76080, Note_on_c, 0, 65, 80
2, 76319, Note_on_c, 0, 65, 0
2, 76320, Note_on_c, 0, 62, 80
2, 76559, Note_on_c, 0, 62, 0
2, 76560, Note_on_c, 0, 57, 80
2, 76799, Note_on_c, 0, 57, 0
2, 76800, Note_on_c, 0, 48, 80
2, 77039, Note_on_c, 0, 48, 0
2, 77040, Note_on_c, 0, 55, 80
2, 77279, Note_on_c, 0, 55, 0
2, 77280, Note_on_c, 0, 60, 80
2, 77519, Note_on_c, 0, 60, 0
2, 77520, Note_on_c, 0, 55, 80
2, 77759, Note_on_c, 0, 55, 0
2, 77760, Note_on_c, 0, 60, 80
2, 78239, Note_on_c, 0, 60, 0
2, 78480, Note_on_c, 0, 55, 80
2, 78719, Note_on_c, 0, 55, 0
2, 78720, Note_on_c, 0, 48, 80
2, 78959, Note_on_c, 0, 48, 0
2, 78960, Note_on_c, 0, 55, 80
2, 79199, Note_on_c, 0, 55, 0
2, 79200, Note_on_c, 0, 60, 80
2, 79439, Note_on_c, 0, 60, 0
2, 79440, Note_on_c, 0, 55, 80
2, 79679, Note_on_c, 0, 55, 0
2, 79680, Note_on_c, 0, 60, 80
2, 80159, Note_on_c, 0, 60, 0
2, 80160, Note_on_c, 0, 59, 80
2, 80639, Note_on_c, 0, 59, 0
2, 80640, Note_on_c, 0, 57, 80
2, 80879, Note_on_c, 0, 57, 0
2, 80880, Note_on_c, 0, 52, 80
2, 81119, Note_on_c, 0, 52, 0
2, 81120, Note_on_c, 0, 57, 80
2, 81359, Note_on_c, 0, 57, 0
2, 81360, Note_on_c, 0, 60, 80
2, 81599, Note_on_c, 0, 60, 0
2, 81600, Note_on_c, 0, 64, 80
2, 81839, Note_on_c, 0, 64, 0
2, 82080, Note_on_c, 0, 60, 80
2, 82559, Note_on_c, 0, 60, 0
2, 82560, Note_on_c, 0, 57, 80
2, 82799, Note_on_c, 0, 57, 0
2, 82800, Note_on_c, 0, 52, 80
2, 83039, Note_on_c, 0, 52, 0
2, 83040, Note_on_c, 0, 57, 80
2, 83279, Note_on_c, 0, 57, 0
2, 83280, Note_on_c, 0, 60, 80
2, 83519, Note_on_c, 0, 60, 0
2, 83520, Note_on_c, 0, 64, 80
2, 83999, Note_on_c, 0, 64, 0
2, 84000, Note_on_c, 0, 57, 80
2, 84479, Note_on_c, 0, 57, 0
2, 84480, Note_on_c, 0, 50, 80
2, 84719, Note_on_c, 0, 50, 0
2, 84720, Note_on_c, 0, 57, 80
2, 84959, Note_on_c, 0, 57, 0
2, 84960, Note_on_c, 0, 62, 80
2, 85199, Note_on_c, 0, 62, 0
2, 85200, Note_on_c, 0, 57, 80
2, 85439, Note_on_c, 0, 57, 0
2, 85440, Note_on_c, 0, 62, 80
2, 85919, Note_on_c, 0, 62, 0
2, 85920, Note_on_c, 0, 57, 80
2, 86399, Note_on_c, 0, 57, 0
2, 86400, Note_on_c, 0, 50, 80
2, 86639, Note_on_c, 0, 50, 0
2, 86640, Note_on_c, 0, 57, 80
2, 86879, Note_on_c, 0, 57, 0
2, 86880, Note_on_c, 0, 62, 80
2, 87119, Note_on_c, 0, 62, 0
2, 87120, Note_on_c, 0, 65, 80
2, 87359, Note_on_c, 0, 65, 0
2, 87360, Note_on_c, 0, 62, 80
2, 87839, Note_on_c, 0, 62, 0
2, 87840, Note_on_c, 0, 52, 80
2, 88319, Note_on_c, 0, 52, 0
2, 88320, Note_on_c, 0, 52, 80
2, 88559, Note_on_c, 0, 52, 0
2, 88560, Note_on_c, 0, 59, 80
2, 88799, Note_on_c, 0, 59, 0
2, 88800, Note_on_c, 0, 64, 80
2, 89040, Note_on_c, 0, 67, 80
2, 89280, Note_on_c, 0, 71, 80
2, 89519, Note_on_c, 0, 67, 0
2, 89519, Note_on_c, 0, 71, 0
2, 89520, Note_on_c, 0, 67, 80
2, 89759, Note_on_c, 0, 64, 0
2, 89759, Note_on_c, 0, 67, 0
2, 89760, Note_on_c, 0, 64, 80
2, 89999, Note_on_c, 0, 64, 0
2, 90000, Note_on_c, 0, 59, 80
2, 90239, Note_on_c, 0, 59, 0
2, 90240, Note_on_c, 0, 52, 80
2, 90479, Note_on_c, 0, 52, 0
2, 90480, Note_on_c, 0, 59, 80
2, 90719, Note_on_c, 0, 59, 0
2, 90720, Note_on_c, 0, 64, 80
2, 90960, Note_on_c, 0, 67, 80
2, 91199, Note_on_c, 0, 67, 0
2, 91200, Note_on_c, 0, 71, 80
2, 91439, Note_on_c, 0, 71, 0
2, 91440, Note_on_c, 0, 67, 80
2, 91679, Note_on_c, 0, 64, 0
2, 91679, Note_on_c, 0, 67, 0
2, 91680, Note_on_c, 0, 64, 80
2, 91920, Note_on_c, 0, 59, 80
2, 92159, Note_on_c, 0, 64, 0
2, 92159, Note_on_c, 0, 59, 0
2, 92160, Note_on_c, 0, 48, 80
2, 92879, Note_on_c, 0, 48, 0
2, 92880, Note_on_c, 0, 48, 80
2, 92880, Control_c, 0, 2, 80
2, 92880, Note_on_c, 0, 52, 80
2, 92880, Note_on_c, 0, 55, 80
2, 93119, Note_on_c, 0, 48, 0
2, 93119, Note_on_c, 0, 52, 0
2, 93119, Note_on_c, 0, 55, 0
2, 93120, Note_on_c, 0, 60, 80
2, 93120, Control_c, 0, 2, 80
2, 93839, Note_on_c, 0, 60, 0
2, 93840, Note_on_c, 0, 48, 80
2, 93840, Control_c, 0, 2, 80
2, 94079, Note_on_c, 0, 48, 0
2, 94080, Note_on_c, 0, 48, 80
2, 94799, Note_on_c, 0, 48, 0
2, 94800, Note_on_c, 0, 48, 80
2, 94800, Control_c, 0, 2, 80
2, 94800, Note_on_c, 0, 52, 80
2, 94800, Note_on_c, 0, 55, 80
2, 95039, Note_on_c, 0, 48, 0
2, 95039, Note_on_c, 0, 52, 0
2, 95039, Note_on_c, 0, 55, 0
2, 95520, Note_on_c, 0, 48, 80
2, 95520, Note_on_c, 0, 52, 80
2, 95520, Note_on_c, 0, 55, 80
2, 95999, Note_on_c, 0, 48, 0
2, 95999, Note_on_c, 0, 52, 0
2, 95999, Note_on_c, 0, 55, 0
2, 96000, Note_on_c, 0, 50, 80
2, 96719, Note_on_c, 0, 50, 0
2, 96720, Note_on_c, 0, 50, 80
2, 96720, Control_c, 0, 2, 80
2, 96720, Note_on_c, 0, 53, 80
2, 96720, Note_on_c, 0, 57, 80
2, 96959, Note_on_c, 0, 50, 0
2, 96959, Note_on_c, 0, 53, 0
2, 96959, Note_on_c, 0, 57, 0
2, 96960, Note_on_c, 0, 60, 80
2, 96960, Control_c, 0, 2, 80
2, 96960, Note_on_c, 0, 64, 80
2, 97919, Note_on_c, 0, 60, 0
2, 97919, Note_on_c, 0, 64, 0
2, 97920, Note_on_c, 0, 50, 80
2, 98639, Note_on_c, 0, 50, 0
2, 98640, Note_on_c, 0, 53, 80
2, 98640, Control_c, 0, 2, 80
2, 98640, Note_on_c, 0, 57, 80
2, 98879, Note_on_c, 0, 53, 0
2, 98879, Note_on_c, 0, 57, 0
2, 98880, Note_on_c, 0, 60, 80
2, 99359, Note_on_c, 0, 60, 0
2, 99360, Note_on_c, 0, 50, 80
2, 99360, Note_on_c, 0, 53, 80
2, 99360, Note_on_c, 0, 57, 80
2, 99839, Note_on_c, 0, 50, 0
2, 99839, Note_on_c, 0, 53, 0
2, 99839, Note_on_c, 0, 57, 0
2, 99840, Note_on_c, 0, 48, 80
2, 100559, Note_on_c, 0, 48, 0
2, 100560, Note_on_c, 0, 48, 80
2, 100560, Control_c, 0, 2, 80
2, 100560, Note_on_c, 0, 52, 80
2, 100560, Note_on_c, 0, 55, 80
2, 100799, Note_on_c, 0, 48, 0
2, 100799, Note_on_c, 0, 52, 0
2, 100799, Note_on_c, 0, 55, 0
2, 100800, Note_on_c, 0, 60, 80
2, 101279, Note_on_c, 0, 60, 0
2, 101280, Note_on_c, 0, 48, 80
2, 101280, Control_c, 0, 2, 80
2, 101280, Note_on_c, 0, 52, 80
2, 101280, Note_on_c, 0, 55, 80
2, 101759, Note_on_c, 0, 48, 0
2, 101759, Note_on_c, 0, 52, 0
2, 101759, Note_on_c, 0, 55, 0
2, 101760, Note_on_c, 0, 48, 80
2, 102479, Note_on_c, 0, 48, 0
2, 102480, Note_on_c, 0, 48, 80
2, 102480, Control_c, 0, 2, 80
2, 102480, Note_on_c, 0, 52, 80
2, 102480, Note_on_c, 0, 55, 80
2, 102719, Note_on_c, 0, 48, 0
2, 102719, Note_on_c, 0, 52, 0
2, 102719, Note_on_c, 0, 55, 0
2, 102720, Note_on_c, 0, 60, 80
2, 103199, Note_on_c, 0, 60, 0
2, 103200, Note_on_c, 0, 48, 80
2, 103679, Note_on_c, 0, 48, 0
2, 103680, Note_on_c, 0, 50, 80
2, 104399, Note_on_c, 0, 50, 0
2, 104400, Note_on_c, 0, 50, 80
2, 104400, Control_c, 0, 2, 80
2, 104400, Note_on_c, 0, 53, 80
2, 104400, Note_on_c, 0, 57, 80
2, 104639, Note_on_c, 0, 50, 0
2, 104639, Note_on_c, 0, 53, 0
2, 104639, Note_on_c, 0, 57, 0
2, 104640, Note_on_c, 0, 60, 80
2, 104640, Control_c, 0, 2, 80
2, 105119, Note_on_c, 0, 60, 0
2, 105120, Note_on_c, 0, 50, 80
2, 105120, Note_on_c, 0, 53, 80
2, 105120, Note_on_c, 0, 57, 80
2, 105599, Note_on_c, 0, 50, 0
2, 105599, Note_on_c, 0, 53, 0
2, 105599, Note_on_c, 0, 57, 0
2, 105600, Note_on_c, 0, 50, 80
2, 106319, Note_on_c, 0, 50, 0
2, 106320, Note_on_c, 0, 50, 80
2, 106320, Control_c, 0, 2, 80
2, 106320, Note_on_c, 0, 53, 80
2, 106320, Note_on_c, 0, 57, 80
2, 106559, Note_on_c, 0, 50, 0
2, 106559, Note_on_c, 0, 53, 0
2, 106559, Note_on_c, 0, 57, 0
2, 106560, Note_on_c, 0, 60, 80
2, 107039, Note_on_c, 0, 60, 0
2, 107040, Note_on_c, 0, 50, 80
2, 107040, Note_on_c, 0, 53, 80
2, 107040, Note_on_c, 0, 57, 80
2, 107519, Note_on_c, 0, 50, 0
2, 107519, Note_on_c, 0, 53, 0
2, 107519, Note_on_c, 0, 57, 0
2, 107520, Note_on_c, 0, 48, 80
2, 108239, Note_on_c, 0, 48, 0
2, 108240, Note_on_c, 0, 48, 80
2, 108240, Control_c, 0, 2, 80
2, 108240, Note_on_c, 0, 52, 80
2, 108240, Note_on_c, 0, 55, 80
2, 108479, Note_on_c, 0, 48, 0
2, 108479, Note_on_c, 0, 52, 0
2, 108479, Note_on_c, 0, 55, 0
2, 108480, Note_on_c, 0, 60, 80
2, 108480, Control_c, 0, 2, 80
2, 108960, Note_on_c, 0, 48, 80
2, 108960, Control_c, 0, 2, 80
2, 108960, Note_on_c, 0, 52, 80
2, 108960, Note_on_c, 0, 55, 80
2, 109439, Note_on_c, 0, 60, 0
2, 109439, Note_on_c, 0, 48, 0
2, 109439, Note_on_c, 0, 52, 0
2, 109439, Note_on_c, 0, 55, 0
2, 109440, Note_on_c, 0, 48, 80
2, 109440, Control_c, 0, 2, 80
2, 110159, Note_on_c, 0, 48, 0
2, 110160, Note_on_c, 0, 48, 80
2, 110160, Control_c, 0, 2, 80
2, 110160, Note_on_c, 0, 52, 80
2, 110160, Note_on_c, 0, 55, 80
2, 110399, Note_on_c, 0, 48, 0
2, 110399, Note_on_c, 0, 52, 0
2, 110399, Note_on_c, 0, 55, 0
2, 110400, Note_on_c, 0, 60, 80
2, 110400, Note_on_c, 0, 65, 80
2, 110579, Note_on_c, 0, 60, 0
2, 110579, Note_on_c, 0, 65, 0
2, 110760, Note_on_c, 0, 65, 80
2, 110879, Note_on_c, 0, 65, 0
2, 110880, Note_on_c, 0, 48, 80
2, 110880, Note_on_c, 0, 52, 80
2, 110880, Note_on_c, 0, 55, 80
2, 111119, Note_on_c, 0, 48, 0
2, 111119, Note_on_c, 0, 52, 0
2, 111119, Note_on_c, 0, 55, 0
2, 111120, Note_on_c, 0, 65, 80
2, 111359, Note_on_c, 0, 65, 0
2, 111360, Note_on_c, 0, 50, 80
2, 112079, Note_on_c, 0, 50, 0
2, 112080, Note_on_c, 0, 50, 80
2, 112080, Control_c, 0, 2, 80
2, 112080, Note_on_c, 0, 53, 80
2, 112080, Note_on_c, 0, 57, 80
2, 112319, Note_on_c, 0, 50, 0
2, 112319, Note_on_c, 0, 53, 0
2, 112319, Note_on_c, 0, 57, 0
2, 112320, Note_on_c, 0, 60, 80
2, 112799, Note_on_c, 0, 60, 0
2, 112800, Note_on_c, 0, 50, 80
2, 112800, Control_c, 0, 2, 80
2, 112800, Note_on_c, 0, 53, 80
2, 112800, Note_on_c, 0, 57, 80
2, 113279, Note_on_c, 0, 50, 0
2, 113279, Note_on_c, 0, 53, 0
2, 113279, Note_on_c, 0, 57, 0
2, 113280, Note_on_c, 0, 50, 80
2, 113999, Note_on_c, 0, 50, 0
2, 114000, Note_on_c, 0, 50, 80
2, 114000, Control_c, 0, 2, 80
2, 114000, Note_on_c, 0, 53, 80
2, 114000, Note_on_c, 0, 57, 80
2, 114239, Note_on_c, 0, 50, 0
2, 114239, Note_on_c, 0, 53, 0
2, 114239, Note_on_c, 0, 57, 0
2, 114240, Note_on_c, 0, 60, 80
2, 114719, Note_on_c, 0, 60, 0
2, 114720, Note_on_c, 0, 50, 80
2, 115199, Note_on_c, 0, 50, 0
2, 115200, Note_on_c, 0, 48, 80
2, 115439, Note_on_c, 0, 48, 0
2, 115440, Note_on_c, 0, 55, 80
2, 115679, Note_on_c, 0, 55, 0
2, 115680, Note_on_c, 0, 60, 80
2, 115919, Note_on_c, 0, 60, 0
2, 115920, Note_on_c, 0, 64, 80
2, 116159, Note_on_c, 0, 64, 0
2, 116160, Note_on_c, 0, 67, 80
2, 116399, Note_on_c, 0, 67, 0
2, 116400, Note_on_c, 0, 64, 80
2, 116639, Note_on_c, 0, 64, 0
2, 116640, Note_on_c, 0, 60, 80
2, 116879, Note_on_c, 0, 60, 0
2, 116880, Note_on_c, 0, 55, 80
2, 117119, Note_on_c, 0, 55, 0
2, 117120, Note_on_c, 0, 48, 80
2, 117359, Note_on_c, 0, 48, 0
2, 117360, Note_on_c, 0, 55, 80
2, 117599, Note_on_c, 0, 55, 0
2, 117600, Note_on_c, 0, 60, 80
2, 117839, Note_on_c, 0, 60, 0
2, 117840, Note_on_c, 0, 64, 80
2, 118079, Note_on_c, 0, 64, 0
2, 118080, Note_on_c, 0, 67, 80
2, 118319, Note_on_c, 0, 67, 0
2, 118320, Note_on_c, 0, 64, 80
2, 118559, Note_on_c, 0, 64, 0
2, 118560, Note_on_c, 0, 60, 80
2, 118799, Note_on_c, 0, 60, 0
2, 118800, Note_on_c, 0, 55, 80
2, 119039, Note_on_c, 0, 55, 0
2, 119040, Note_on_c, 0, 50, 80
2, 119279, Note_on_c, 0, 50, 0
2, 119280, Note_on_c, 0, 57, 80
2, 119519, Note_on_c, 0, 57, 0
2, 119520, Note_on_c, 0, 62, 80
2, 119759, Note_on_c, 0, 62, 0
2, 119760, Note_on_c, 0, 65, 80
2, 119999, Note_on_c, 0, 65, 0
2, 120000, Note_on_c, 0, 69, 80
2, 120239, Note_on_c, 0, 69, 0
2, 120240, Note_on_c, 0, 65, 80
2, 120479, Note_on_c, 0, 65, 0
2, 120480, Note_on_c, 0, 62, 80
2, 120719, Note_on_c, 0, 62, 0
2, 120720, Note_on_c, 0, 57, 80
2, 120959, Note_on_c, 0, 57, 0
2, 120960, Note_on_c, 0, 50, 80
2, 121199, Note_on_c, 0, 50, 0
2, 121200, Note_on_c, 0, 57, 80
2, 121439, Note_on_c, 0, 57, 0
2, 121440, Note_on_c, 0, 62, 80
2, 121679, Note_on_c, 0, 62, 0
2, 121680, Note_on_c, 0, 65, 80
2, 121919, Note_on_c, 0, 65, 0
2, 121920, Note_on_c, 0, 69, 80
2, 122159, Note_on_c, 0, 69, 0
2, 122160, Note_on_c, 0, 65, 80
2, 122160, Control_c, 0, 2, 80
2, 122399, Note_on_c, 0, 65, 0
2, 122400, Note_on_c, 0, 62, 80
2, 122639, Note_on_c, 0, 62, 0
2, 122640, Note_on_c, 0, 57, 80
2, 122640, Control_c, 0, 2, 80
2, 122879, Note_on_c, 0, 57, 0
2, 122880, Note_on_c, 0, 48, 80
2, 123119, Note_on_c, 0, 48, 0
2, 123120, Note_on_c, 0, 55, 80
2, 123359, Note_on_c, 0, 55, 0
2, 123360, Note_on_c, 0, 60, 80
2, 123599, Note_on_c, 0, 60, 0
2, 123600, Note_on_c, 0, 64, 80
2, 123839, Note_on_c, 0, 64, 0
2, 123840, Note_on_c, 0, 67, 80
2, 124079, Note_on_c, 0, 67, 0
2, 124080, Note_on_c, 0, 64, 80
2, 124319, Note_on_c, 0, 64, 0
2, 124320, Note_on_c, 0, 60, 80
2, 124559, Note_on_c, 0, 60, 0
2, 124560, Note_on_c, 0, 55, 80
2, 124799, Note_on_c, 0, 55, 0
2, 124800, Note_on_c, 0, 48, 80
2, 125039, Note_on_c, 0, 48, 0
2, 125040, Note_on_c, 0, 55, 80
2, 125279, Note_on_c, 0, 55, 0
2, 125280, Note_on_c, 0, 60, 80
2, 125519, Note_on_c, 0, 60, 0
2, 125520, Note_on_c, 0, 64, 80
2, 125759, Note_on_c, 0, 64, 0
2, 125760, Note_on_c, 0, 67, 80
2, 125999, Note_on_c, 0, 67, 0
2, 126000, Note_on_c, 0, 64, 80
2, 126239, Note_on_c, 0, 64, 0
2, 126240, Note_on_c, 0, 60, 80
2, 126479, Note_on_c, 0, 60, 0
2, 126480, Note_on_c, 0, 55, 80
2, 126719, Note_on_c, 0, 55, 0
2, 126720, Note_on_c, 0, 50, 80
2, 126959, Note_on_c, 0, 50, 0
2, 126960, Note_on_c, 0, 57, 80
2, 127199, Note_on_c, 0, 57, 0
2, 127200, Note_on_c, 0, 62, 80
2, 127439, Note_on_c, 0, 62, 0
2, 127440, Note_on_c, 0, 65, 80
2, 127679, Note_on_c, 0, 65, 0
2, 127680, Note_on_c, 0, 69, 80
2, 127919, Note_on_c, 0, 69, 0
2, 127920, Note_on_c, 0, 65, 80
2, 128159, Note_on_c, 0, 65, 0
2, 128160, Note_on_c, 0, 62, 80
2, 128399, Note_on_c, 0, 62, 0
2, 128400, Note_on_c, 0, 57, 80
2, 128639, Note_on_c, 0, 57, 0
2, 128640, Note_on_c, 0, 50, 80
2, 128879, Note_on_c, 0, 50, 0
2, 128880, Note_on_c, 0, 57, 80
2, 129119, Note_on_c, 0, 57, 0
2, 129120, Note_on_c, 0, 62, 80
2, 129359, Note_on_c, 0, 62, 0
2, 129360, Note_on_c, 0, 65, 80
2, 129599, Note_on_c, 0, 65, 0
2, 129600, Note_on_c, 0, 69, 80
2, 129839, Note_on_c, 0, 69, 0
2, 129840, Note_on_c, 0, 65, 80
2, 130079, Note_on_c, 0, 65, 0
2, 130080, Note_on_c, 0, 62, 80
2, 130319, Note_on_c, 0, 62, 0
2, 130320, Note_on_c, 0, 57, 80
2, 130559, Note_on_c, 0, 57, 0
2, 130560, End_track
3, 0, Start_track
3, 0, Title_t, "Electric Bass, Bass\000"
3, 0, Key_signature, 0, "major"
3, 0, Control_c, 6, 121, 0
3, 0, Program_c, 6, 33
3, 0, Control_c, 6, 7, 100
3, 0, Control_c, 6, 10, 64
3, 0, Control_c, 6, 91, 0
3, 0, Control_c, 6, 93, 0
3, 0, MIDI_port, 0
3, 0, Note_on_c, 6, 48, 80
3, 0, Control_c, 2, 121, 0
3, 0, Program_c, 2, 36
3, 0, Control_c, 2, 7, 100
3, 0, Control_c, 2, 10, 64
3, 0, Control_c, 2, 91, 0
3, 0, Control_c, 2, 93, 0
3, 0, MIDI_port, 0
3, 0, Control_c, 3, 121, 0
3, 0, Program_c, 3, 37
3, 0, Control_c, 3, 7, 100
3, 0, Control_c, 3, 10, 64
3, 0, Control_c, 3, 91, 0
3, 0, Control_c, 3, 93, 0
3, 0, MIDI_port, 0
3, 959, Note_on_c, 6, 48, 0
3, 960, Note_on_c, 6, 48, 80
3, 3839, Note_on_c, 6, 48, 0
3, 3840, Note_on_c, 6, 57, 80
3, 4799, Note_on_c, 6, 57, 0
3, 4800, Note_on_c, 6, 57, 80
3, 7679, Note_on_c, 6, 57, 0
3, 7680, Note_on_c, 6, 50, 80
3, 8639, Note_on_c, 6, 50, 0
3, 8640, Note_on_c, 6, 50, 80
3, 11519, Note_on_c, 6, 50, 0
3, 11520, Note_on_c, 6, 52, 80
3, 13439, Note_on_c, 6, 52, 0
3, 13440, Note_on_c, 6, 52, 80
3, 14879, Note_on_c, 6, 52, 0
3, 15360, Note_on_c, 6, 60, 80
3, 16799, Note_on_c, 6, 60, 0
3, 17040, Note_on_c, 6, 55, 80
3, 17279, Note_on_c, 6, 55, 0
3, 17280, Note_on_c, 6, 60, 80
3, 18719, Note_on_c, 6, 60, 0
3, 18720, Note_on_c, 6, 59, 80
3, 19199, Note_on_c, 6, 59, 0
3, 19200, Note_on_c, 6, 57, 80
3, 21119, Note_on_c, 6, 57, 0
3, 21120, Note_on_c, 6, 57, 80
3, 22559, Note_on_c, 6, 57, 0
3, 22560, Note_on_c, 6, 52, 80
3, 23039, Note_on_c, 6, 52, 0
3, 23040, Note_on_c, 6, 50, 80
3, 24479, Note_on_c, 6, 50, 0
3, 24720, Note_on_c, 6, 57, 80
3, 24959, Note_on_c, 6, 57, 0
3, 24960, Note_on_c, 6, 50, 80
3, 26399, Note_on_c, 6, 50, 0
3, 26400, Note_on_c, 6, 50, 80
3, 26879, Note_on_c, 6, 50, 0
3, 26880, Note_on_c, 6, 52, 80
3, 28799, Note_on_c, 6, 52, 0
3, 28800, Note_on_c, 6, 52, 80
3, 30239, Note_on_c, 6, 52, 0
3, 30240, Note_on_c, 6, 52, 80
3, 30719, Note_on_c, 6, 52, 0
3, 30720, Note_on_c, 6, 60, 80
3, 32159, Note_on_c, 6, 60, 0
3, 32400, Note_on_c, 6, 67, 80
3, 32639, Note_on_c, 6, 67, 0
3, 32640, Note_on_c, 6, 60, 80
3, 34559, Note_on_c, 6, 60, 0
3, 34560, Note_on_c, 6, 57, 80
3, 35999, Note_on_c, 6, 57, 0
3, 36000, Note_on_c, 6, 64, 80
3, 36479, Note_on_c, 6, 64, 0
3, 36480, Note_on_c, 6, 57, 80
3, 37919, Note_on_c, 6, 57, 0
3, 37920, Note_on_c, 6, 57, 80
3, 38399, Note_on_c, 6, 57, 0
3, 38400, Note_on_c, 6, 50, 80
3, 39839, Note_on_c, 6, 50, 0
3, 39840, Note_on_c, 6, 57, 80
3, 40319, Note_on_c, 6, 57, 0
3, 40320, Note_on_c, 6, 50, 80
3, 41759, Note_on_c, 6, 50, 0
3, 41760, Note_on_c, 6, 50, 80
3, 42239, Note_on_c, 6, 50, 0
3, 42240, Note_on_c, 6, 52, 80
3, 43679, Note_on_c, 6, 52, 0
3, 43680, Note_on_c, 6, 52, 80
3, 44159, Note_on_c, 6, 52, 0
3, 44160, Note_on_c, 6, 52, 80
3, 46079, Note_on_c, 6, 52, 0
3, 46080, Note_on_c, 6, 48, 80
3, 46799, Note_on_c, 6, 48, 0
3, 46800, Note_on_c, 6, 48, 80
3, 47759, Note_on_c, 6, 48, 0
3, 47760, Note_on_c, 6, 48, 80
3, 47999, Note_on_c, 6, 48, 0
3, 48000, Note_on_c, 6, 48, 80
3, 48719, Note_on_c, 6, 48, 0
3, 48720, Note_on_c, 6, 48, 80
3, 49439, Note_on_c, 6, 48, 0
3, 49440, Note_on_c, 6, 48, 80
3, 49919, Note_on_c, 6, 48, 0
3, 49920, Note_on_c, 6, 50, 80
3, 50639, Note_on_c, 6, 50, 0
3, 50640, Note_on_c, 6, 50, 80
3, 51359, Note_on_c, 6, 50, 0
3, 51360, Note_on_c, 6, 50, 80
3, 51839, Note_on_c, 6, 50, 0
3, 51840, Note_on_c, 6, 50, 80
3, 52559, Note_on_c, 6, 50, 0
3, 52560, Note_on_c, 6, 50, 80
3, 53279, Note_on_c, 6, 50, 0
3, 53280, Note_on_c, 6, 50, 80
3, 53759, Note_on_c, 6, 50, 0
3, 53760, Note_on_c, 6, 48, 80
3, 54479, Note_on_c, 6, 48, 0
3, 54480, Note_on_c, 6, 48, 80
3, 55199, Note_on_c, 6, 48, 0
3, 55200, Note_on_c, 6, 48, 80
3, 55679, Note_on_c, 6, 48, 0
3, 55680, Note_on_c, 6, 48, 80
3, 56399, Note_on_c, 6, 48, 0
3, 56400, Note_on_c, 6, 48, 80
3, 57119, Note_on_c, 6, 48, 0
3, 57120, Note_on_c, 6, 48, 80
3, 57599, Note_on_c, 6, 48, 0
3, 57600, Note_on_c, 6, 50, 80
3, 58319, Note_on_c, 6, 50, 0
3, 58320, Note_on_c, 6, 50, 80
3, 59039, Note_on_c, 6, 50, 0
3, 59040, Note_on_c, 6, 50, 80
3, 59519, Note_on_c, 6, 50, 0
3, 59520, Note_on_c, 6, 50, 80
3, 60239, Note_on_c, 6, 50, 0
3, 60240, Note_on_c, 6, 50, 80
3, 60959, Note_on_c, 6, 50, 0
3, 60960, Note_on_c, 6, 50, 80
3, 61439, Note_on_c, 6, 50, 0
3, 61440, Note_on_c, 6, 48, 80
3, 62159, Note_on_c, 6, 48, 0
3, 62160, Note_on_c, 6, 48, 80
3, 62879, Note_on_c, 6, 48, 0
3, 62880, Note_on_c, 6, 48, 80
3, 63359, Note_on_c, 6, 48, 0
3, 63360, Note_on_c, 6, 48, 80
3, 64079, Note_on_c, 6, 48, 0
3, 64080, Note_on_c, 6, 48, 80
3, 64799, Note_on_c, 6, 48, 0
3, 64800, Note_on_c, 6, 48, 80
3, 65279, Note_on_c, 6, 48, 0
3, 65280, Note_on_c, 6, 50, 80
3, 65999, Note_on_c, 6, 50, 0
3, 66000, Note_on_c, 6, 50, 80
3, 66719, Note_on_c, 6, 50, 0
3, 66720, Note_on_c, 6, 50, 80
3, 67199, Note_on_c, 6, 50, 0
3, 67200, Note_on_c, 6, 50, 80
3, 67919, Note_on_c, 6, 50, 0
3, 67920, Note_on_c, 6, 50, 80
3, 68639, Note_on_c, 6, 50, 0
3, 68640, Note_on_c, 6, 50, 80
3, 69119, Note_on_c, 6, 50, 0
3, 69120, Note_on_c, 6, 48, 80
3, 71039, Note_on_c, 6, 48, 0
3, 71040, Note_on_c, 6, 48, 80
3, 72959, Note_on_c, 6, 48, 0
3, 72960, Note_on_c, 6, 50, 80
3, 74879, Note_on_c, 6, 50, 0
3, 74880, Note_on_c, 6, 50, 80
3, 76799, Note_on_c, 6, 50, 0
3, 76800, Note_on_c, 6, 60, 80
3, 78239, Note_on_c, 6, 60, 0
3, 78480, Note_on_c, 6, 55, 80
3, 78719, Note_on_c, 6, 55, 0
3, 78720, Note_on_c, 6, 60, 80
3, 80159, Note_on_c, 6, 60, 0
3, 80160, Note_on_c, 6, 59, 80
3, 80639, Note_on_c, 6, 59, 0
3, 80640, Note_on_c, 6, 57, 80
3, 82079, Note_on_c, 6, 57, 0
3, 82080, Note_on_c, 6, 57, 80
3, 82559, Note_on_c, 6, 57, 0
3, 82560, Note_on_c, 6, 57, 80
3, 83999, Note_on_c, 6, 57, 0
3, 84000, Note_on_c, 6, 57, 80
3, 84479, Note_on_c, 6, 57, 0
3, 84480, Note_on_c, 6, 62, 80
3, 85919, Note_on_c, 6, 62, 0
3, 85920, Note_on_c, 6, 57, 80
3, 86399, Note_on_c, 6, 57, 0
3, 86400, Note_on_c, 6, 62, 80
3, 87839, Note_on_c, 6, 62, 0
3, 87840, Note_on_c, 6, 64, 80
3, 88319, Note_on_c, 6, 64, 0
3, 88320, Note_on_c, 6, 64, 80
3, 90239, Note_on_c, 6, 64, 0
3, 90240, Note_on_c, 6, 64, 80
3, 91679, Note_on_c, 6, 64, 0
3, 91680, Note_on_c, 6, 64, 80
3, 92159, Note_on_c, 6, 64, 0
3, 92160, Note_on_c, 6, 48, 80
3, 92879, Note_on_c, 6, 48, 0
3, 92880, Note_on_c, 6, 48, 80
3, 93839, Note_on_c, 6, 48, 0
3, 93840, Note_on_c, 6, 48, 80
3, 94079, Note_on_c, 6, 48, 0
3, 94080, Note_on_c, 6, 48, 80
3, 94799, Note_on_c, 6, 48, 0
3, 94800, Note_on_c, 6, 48, 80
3, 95519, Note_on_c, 6, 48, 0
3, 95520, Note_on_c, 6, 48, 80
3, 95999, Note_on_c, 6, 48, 0
3, 96000, Note_on_c, 6, 50, 80
3, 96719, Note_on_c, 6, 50, 0
3, 96720, Note_on_c, 6, 50, 80
3, 97439, Note_on_c, 6, 50, 0
3, 97440, Note_on_c, 6, 50, 80
3, 97919, Note_on_c, 6, 50, 0
3, 97920, Note_on_c, 6, 50, 80
3, 98639, Note_on_c, 6, 50, 0
3, 98640, Note_on_c, 6, 50, 80
3, 99359, Note_on_c, 6, 50, 0
3, 99360, Note_on_c, 6, 50, 80
3, 99839, Note_on_c, 6, 50, 0
3, 99840, Note_on_c, 6, 48, 80
3, 100559, Note_on_c, 6, 48, 0
3, 100560, Note_on_c, 6, 48, 80
3, 101279, Note_on_c, 6, 48, 0
3, 101280, Note_on_c, 6, 48, 80
3, 101759, Note_on_c, 6, 48, 0
3, 101760, Note_on_c, 6, 48, 80
3, 102479, Note_on_c, 6, 48, 0
3, 102480, Note_on_c, 6, 48, 80
3, 103199, Note_on_c, 6, 48, 0
3, 103200, Note_on_c, 6, 48, 80
3, 103679, Note_on_c, 6, 48, 0
3, 103680, Note_on_c, 6, 50, 80
3, 104399, Note_on_c, 6, 50, 0
3, 104400, Note_on_c, 6, 50, 80
3, 105119, Note_on_c, 6, 50, 0
3, 105120, Note_on_c, 6, 50, 80
3, 105599, Note_on_c, 6, 50, 0
3, 105600, Note_on_c, 6, 50, 80
3, 106319, Note_on_c, 6, 50, 0
3, 106320, Note_on_c, 6, 50, 80
3, 107039, Note_on_c, 6, 50, 0
3, 107040, Note_on_c, 6, 50, 80
3, 107519, Note_on_c, 6, 50, 0
3, 107520, Note_on_c, 6, 48, 80
3, 108239, Note_on_c, 6, 48, 0
3, 108240, Note_on_c, 6, 48, 80
3, 108959, Note_on_c, 6, 48, 0
3, 108960, Note_on_c, 6, 48, 80
3, 109439, Note_on_c, 6, 48, 0
3, 109440, Note_on_c, 6, 48, 80
3, 110159, Note_on_c, 6, 48, 0
3, 110160, Note_on_c, 6, 48, 80
3, 110879, Note_on_c, 6, 48, 0
3, 110880, Note_on_c, 6, 48, 80
3, 111359, Note_on_c, 6, 48, 0
3, 111360, Note_on_c, 6, 50, 80
3, 112079, Note_on_c, 6, 50, 0
3, 112080, Note_on_c, 6, 50, 80
3, 112799, Note_on_c, 6, 50, 0
3, 112800, Note_on_c, 6, 50, 80
3, 113279, Note_on_c, 6, 50, 0
3, 113280, Note_on_c, 6, 50, 80
3, 113999, Note_on_c, 6, 50, 0
3, 114000, Note_on_c, 6, 50, 80
3, 114719, Note_on_c, 6, 50, 0
3, 114720, Note_on_c, 6, 50, 80
3, 115199, Note_on_c, 6, 50, 0
3, 115200, Note_on_c, 6, 48, 80
3, 117119, Note_on_c, 6, 48, 0
3, 117120, Note_on_c, 6, 48, 80
3, 119039, Note_on_c, 6, 48, 0
3, 119040, Note_on_c, 6, 50, 80
3, 120959, Note_on_c, 6, 50, 0
3, 120960, Note_on_c, 6, 50, 80
3, 122879, Note_on_c, 6, 50, 0
3, 122880, Note_on_c, 6, 48, 80
3, 124799, Note_on_c, 6, 48, 0
3, 124800, Note_on_c, 6, 48, 80
3, 126719, Note_on_c, 6, 48, 0
3, 126720, Note_on_c, 6, 50, 80
3, 128639, Note_on_c, 6, 50, 0
3, 128640, Note_on_c, 6, 50, 80
3, 130559, Note_on_c, 6, 50, 0
3, 130560, Note_on_c, 6, 48, 80
3, 131519, Note_on_c, 6, 48, 0
3, 131520, Note_on_c, 6, 48, 80
3, 134399, Note_on_c, 6, 48, 0
3, 134400, Note_on_c, 6, 57, 80
3, 135359, Note_on_c, 6, 57, 0
3, 135360, Note_on_c, 6, 57, 80
3, 138239, Note_on_c, 6, 57, 0
3, 138240, Note_on_c, 6, 50, 80
3, 139199, Note_on_c, 6, 50, 0
3, 139200, Note_on_c, 6, 50, 80
3, 142079, Note_on_c, 6, 50, 0
3, 142080, Note_on_c, 6, 52, 80
3, 143999, Note_on_c, 6, 52, 0
3, 144000, End_track
4, 0, Start_track
4, 0, Title_t, "Bell, Bell\000"
4, 0, Key_signature, 0, "major"
4, 0, Control_c, 5, 121, 0
4, 0, Program_c, 5, 14
4, 0, Control_c, 5, 7, 100
4, 0, Control_c, 5, 10, 64
4, 0, Control_c, 5, 91, 0
4, 0, Control_c, 5, 93, 0
4, 0, MIDI_port, 0
4, 94080, Note_on_c, 5, 74, 80
4, 94080, Control_c, 5, 2, 80
4, 94439, Note_on_c, 5, 74, 0
4, 94440, Note_on_c, 5, 72, 80
4, 94440, Control_c, 5, 2, 80
4, 94559, Note_on_c, 5, 72, 0
4, 94560, Note_on_c, 5, 72, 80
4, 94560, Control_c, 5, 2, 80
4, 94919, Note_on_c, 5, 72, 0
4, 94920, Note_on_c, 5, 71, 80
4, 94920, Control_c, 5, 2, 80
4, 95039, Note_on_c, 5, 71, 0
4, 95040, Note_on_c, 5, 71, 80
4, 95040, Control_c, 5, 2, 80
4, 95400, Note_on_c, 5, 69, 80
4, 95400, Control_c, 5, 2, 80
4, 95519, Note_on_c, 5, 71, 0
4, 95519, Note_on_c, 5, 69, 0
4, 95520, Note_on_c, 5, 71, 80
4, 95520, Control_c, 5, 2, 80
4, 95879, Note_on_c, 5, 71, 0
4, 95880, Note_on_c, 5, 72, 80
4, 95880, Control_c, 5, 2, 80
4, 95999, Note_on_c, 5, 72, 0
4, 96000, Note_on_c, 5, 69, 80
4, 96000, Control_c, 5, 2, 80
4, 97919, Note_on_c, 5, 69, 0
4, 97920, Note_on_c, 5, 74, 80
4, 97920, Control_c, 5, 2, 80
4, 98279, Note_on_c, 5, 74, 0
4, 98280, Note_on_c, 5, 72, 80
4, 98280, Control_c, 5, 2, 80
4, 98399, Note_on_c, 5, 72, 0
4, 98400, Note_on_c, 5, 72, 80
4, 98400, Control_c, 5, 2, 80
4, 98759, Note_on_c, 5, 72, 0
4, 98760, Note_on_c, 5, 71, 80
4, 98760, Control_c, 5, 2, 80
4, 98879, Note_on_c, 5, 71, 0
4, 98880, Note_on_c, 5, 71, 80
4, 98880, Control_c, 5, 2, 80
4, 99239, Note_on_c, 5, 71, 0
4, 99240, Note_on_c, 5, 69, 80
4, 99240, Control_c, 5, 2, 80
4, 99359, Note_on_c, 5, 69, 0
4, 99360, Note_on_c, 5, 76, 80
4, 99360, Control_c, 5, 2, 80
4, 99720, Note_on_c, 5, 72, 80
4, 99720, Control_c, 5, 2, 80
4, 99839, Note_on_c, 5, 76, 0
4, 99839, Note_on_c, 5, 72, 0
4, 99840, Note_on_c, 5, 71, 80
4, 99840, Control_c, 5, 2, 80
4, 100079, Note_on_c, 5, 71, 0
4, 100080, Note_on_c, 5, 69, 80
4, 100080, Control_c, 5, 2, 80
4, 100800, Control_c, 5, 2, 80
4, 101159, Note_on_c, 5, 69, 0
4, 101520, Note_on_c, 5, 74, 80
4, 101520, Control_c, 5, 2, 80
4, 101759, Note_on_c, 5, 74, 0
4, 101760, Note_on_c, 5, 74, 80
4, 101760, Control_c, 5, 2, 80
4, 102119, Note_on_c, 5, 74, 0
4, 102120, Note_on_c, 5, 72, 80
4, 102120, Control_c, 5, 2, 80
4, 102239, Note_on_c, 5, 72, 0
4, 102240, Note_on_c, 5, 72, 80
4, 102240, Control_c, 5, 2, 80
4, 102599, Note_on_c, 5, 72, 0
4, 102600, Note_on_c, 5, 71, 80
4, 102600, Control_c, 5, 2, 80
4, 102719, Note_on_c, 5, 71, 0
4, 102720, Note_on_c, 5, 71, 80
4, 102720, Control_c, 5, 2, 80
4, 102899, Note_on_c, 5, 71, 0
4, 103080, Note_on_c, 5, 67, 80
4, 103080, Control_c, 5, 2, 80
4, 103199, Note_on_c, 5, 67, 0
4, 103200, Note_on_c, 5, 67, 80
4, 103200, Control_c, 5, 2, 80
4, 103559, Note_on_c, 5, 67, 0
4, 103560, Note_on_c, 5, 69, 80
4, 103560, Control_c, 5, 2, 80
4, 103679, Note_on_c, 5, 69, 0
4, 103680, Note_on_c, 5, 69, 80
4, 103680, Control_c, 5, 2, 80
4, 105120, Control_c, 5, 2, 80
4, 105239, Note_on_c, 5, 69, 0
4, 105360, Note_on_c, 5, 69, 80
4, 105360, Control_c, 5, 2, 80
4, 105599, Note_on_c, 5, 69, 0
4, 105600, Note_on_c, 5, 69, 80
4, 105600, Control_c, 5, 2, 80
4, 105959, Note_on_c, 5, 69, 0
4, 105960, Note_on_c, 5, 71, 80
4, 105960, Control_c, 5, 2, 80
4, 106080, Control_c, 5, 2, 80
4, 106319, Note_on_c, 5, 71, 0
4, 106560, Note_on_c, 5, 76, 80
4, 106560, Control_c, 5, 2, 80
4, 107039, Note_on_c, 5, 76, 0
4, 107040, Note_on_c, 5, 72, 80
4, 107040, Control_c, 5, 2, 80
4, 107519, Note_on_c, 5, 72, 0
4, 107520, Note_on_c, 5, 71, 80
4, 107520, Control_c, 5, 2, 80
4, 109439, Note_on_c, 5, 71, 0
4, 110400, Note_on_c, 5, 79, 80
4, 110400, Control_c, 5, 2, 80
4, 110759, Note_on_c, 5, 79, 0
4, 110760, Note_on_c, 5, 81, 80
4, 110760, Control_c, 5, 2, 80
4, 110879, Note_on_c, 5, 81, 0
4, 110880, Note_on_c, 5, 76, 80
4, 110880, Control_c, 5, 2, 80
4, 111119, Note_on_c, 5, 76, 0
4, 111120, Note_on_c, 5, 74, 80
4, 111120, Control_c, 5, 2, 80
4, 111359, Note_on_c, 5, 74, 0
4, 111360, Note_on_c, 5, 74, 80
4, 111360, Control_c, 5, 2, 80
4, 111599, Note_on_c, 5, 74, 0
4, 111600, Note_on_c, 5, 76, 80
4, 111600, Control_c, 5, 2, 80
4, 112320, Control_c, 5, 2, 80
4, 113280, Control_c, 5, 2, 80
4, 114239, Note_on_c, 5, 76, 0
4, 114240, Note_on_c, 5, 72, 80
4, 114240, Control_c, 5, 2, 80
4, 114719, Note_on_c, 5, 72, 0
4, 114720, Note_on_c, 5, 71, 80
4, 114720, Control_c, 5, 2, 80
4, 115199, Note_on_c, 5, 71, 0
4, 115200, Note_on_c, 5, 76, 80
4, 115200, Control_c, 5, 2, 80
4, 117119, Note_on_c, 5, 76, 0
4, 117120, Note_on_c, 5, 74, 80
4, 117120, Control_c, 5, 2, 80
4, 119039, Note_on_c, 5, 74, 0
4, 119040, Note_on_c, 5, 76, 80
4, 119040, Control_c, 5, 2, 80
4, 120959, Note_on_c, 5, 76, 0
4, 120960, Note_on_c, 5, 74, 64
4, 120960, Control_c, 5, 2, 80
4, 121919, Note_on_c, 5, 74, 0
4, 121920, Note_on_c, 5, 72, 80
4, 121920, Control_c, 5, 2, 80
4, 122399, Note_on_c, 5, 72, 0
4, 122400, Note_on_c, 5, 71, 88
4, 122400, Control_c, 5, 2, 80
4, 122879, Note_on_c, 5, 71, 0
4, 122880, End_track
5, 0, Start_track
5, 0, Title_t, "Lute, Lute\000"
5, 0, Key_signature, 0, "major"
5, 0, Control_c, 4, 121, 0
5, 0, Program_c, 4, 24
5, 0, Control_c, 4, 7, 100
5, 0, Control_c, 4, 10, 64
5, 0, Control_c, 4, 91, 0
5, 0, Control_c, 4, 93, 0
5, 0, MIDI_port, 0
5, 0, Note_on_c, 4, 60, 80
5, 0, Control_c, 4, 2, 80
5, 239, Note_on_c, 4, 60, 0
5, 240, Note_on_c, 4, 64, 80
5, 479, Note_on_c, 4, 64, 0
5, 480, Note_on_c, 4, 67, 80
5, 719, Note_on_c, 4, 67, 0
5, 720, Note_on_c, 4, 72, 80
5, 959, Note_on_c, 4, 72, 0
5, 960, Note_on_c, 4, 76, 80
5, 960, Control_c, 4, 2, 80
5, 1199, Note_on_c, 4, 76, 0
5, 1200, Note_on_c, 4, 79, 80
5, 1439, Note_on_c, 4, 79, 0
5, 1440, Note_on_c, 4, 83, 80
5, 1679, Note_on_c, 4, 83, 0
5, 1680, Note_on_c, 4, 84, 80
5, 1919, Note_on_c, 4, 84, 0
5, 1920, Note_on_c, 4, 79, 80
5, 1920, Control_c, 4, 2, 80
5, 2159, Note_on_c, 4, 79, 0
5, 2160, Note_on_c, 4, 76, 80
5, 2399, Note_on_c, 4, 76, 0
5, 2400, Note_on_c, 4, 72, 80
5, 2639, Note_on_c, 4, 72, 0
5, 2640, Note_on_c, 4, 67, 80
5, 2879, Note_on_c, 4, 67, 0
5, 2880, Note_on_c, 4, 64, 80
5, 3119, Note_on_c, 4, 64, 0
5, 3120, Note_on_c, 4, 60, 80
5, 3359, Note_on_c, 4, 60, 0
5, 3360, Note_on_c, 4, 57, 80
5, 3599, Note_on_c, 4, 57, 0
5, 3600, Note_on_c, 4, 64, 80
5, 3839, Note_on_c, 4, 64, 0
5, 3840, Note_on_c, 4, 57, 80
5, 4079, Note_on_c, 4, 57, 0
5, 4080, Note_on_c, 4, 64, 80
5, 4319, Note_on_c, 4, 64, 0
5, 4320, Note_on_c, 4, 69, 80
5, 4559, Note_on_c, 4, 69, 0
5, 4560, Note_on_c, 4, 72, 80
5, 4799, Note_on_c, 4, 72, 0
5, 4800, Note_on_c, 4, 76, 80
5, 4800, Control_c, 4, 2, 80
5, 5039, Note_on_c, 4, 76, 0
5, 5040, Note_on_c, 4, 79, 80
5, 5279, Note_on_c, 4, 79, 0
5, 5280, Note_on_c, 4, 83, 80
5, 5519, Note_on_c, 4, 83, 0
5, 5520, Note_on_c, 4, 84, 80
5, 5759, Note_on_c, 4, 84, 0
5, 5760, Note_on_c, 4, 79, 80
5, 5760, Control_c, 4, 2, 80
5, 5999, Note_on_c, 4, 79, 0
5, 6000, Note_on_c, 4, 76, 80
5, 6239, Note_on_c, 4, 76, 0
5, 6240, Note_on_c, 4, 72, 80
5, 6479, Note_on_c, 4, 72, 0
5, 6480, Note_on_c, 4, 69, 80
5, 6719, Note_on_c, 4, 69, 0
5, 6720, Note_on_c, 4, 64, 80
5, 6959, Note_on_c, 4, 64, 0
5, 6960, Note_on_c, 4, 60, 80
5, 7199, Note_on_c, 4, 60, 0
5, 7200, Note_on_c, 4, 57, 80
5, 7439, Note_on_c, 4, 57, 0
5, 7440, Note_on_c, 4, 64, 80
5, 7679, Note_on_c, 4, 64, 0
5, 7680, Note_on_c, 4, 62, 80
5, 7919, Note_on_c, 4, 62, 0
5, 7920, Note_on_c, 4, 65, 80
5, 8159, Note_on_c, 4, 65, 0
5, 8160, Note_on_c, 4, 69, 80
5, 8399, Note_on_c, 4, 69, 0
5, 8400, Note_on_c, 4, 72, 80
5, 8639, Note_on_c, 4, 72, 0
5, 8640, Note_on_c, 4, 76, 80
5, 8640, Control_c, 4, 2, 80
5, 8879, Note_on_c, 4, 76, 0
5, 8880, Note_on_c, 4, 79, 80
5, 9119, Note_on_c, 4, 79, 0
5, 9120, Note_on_c, 4, 83, 80
5, 9359, Note_on_c, 4, 83, 0
5, 9360, Note_on_c, 4, 84, 80
5, 9599, Note_on_c, 4, 84, 0
5, 9600, Note_on_c, 4, 79, 80
5, 9600, Control_c, 4, 2, 80
5, 9839, Note_on_c, 4, 79, 0
5, 9840, Note_on_c, 4, 76, 80
5, 10079, Note_on_c, 4, 76, 0
5, 10080, Note_on_c, 4, 72, 80
5, 10319, Note_on_c, 4, 72, 0
5, 10320, Note_on_c, 4, 67, 80
5, 10559, Note_on_c, 4, 67, 0
5, 10560, Note_on_c, 4, 64, 80
5, 10799, Note_on_c, 4, 64, 0
5, 10800, Note_on_c, 4, 60, 80
5, 11039, Note_on_c, 4, 60, 0
5, 11040, Note_on_c, 4, 57, 80
5, 11279, Note_on_c, 4, 57, 0
5, 11280, Note_on_c, 4, 60, 80
5, 11519, Note_on_c, 4, 60, 0
5, 11520, Note_on_c, 4, 57, 80
5, 11759, Note_on_c, 4, 57, 0
5, 11760, Note_on_c, 4, 64, 80
5, 11999, Note_on_c, 4, 64, 0
5, 12000, Note_on_c, 4, 67, 80
5, 12239, Note_on_c, 4, 67, 0
5, 12240, Note_on_c, 4, 71, 80
5, 12479, Note_on_c, 4, 71, 0
5, 12480, Note_on_c, 4, 74, 80
5, 12480, Control_c, 4, 2, 80
5, 12719, Note_on_c, 4, 74, 0
5, 12720, Note_on_c, 4, 76, 80
5, 12959, Note_on_c, 4, 76, 0
5, 12960, Note_on_c, 4, 71, 80
5, 13199, Note_on_c, 4, 71, 0
5, 13200, Note_on_c, 4, 67, 80
5, 13439, Note_on_c, 4, 67, 0
5, 13440, Note_on_c, 4, 64, 80
5, 13679, Note_on_c, 4, 64, 0
5, 13680, Note_on_c, 4, 67, 80
5, 13919, Note_on_c, 4, 67, 0
5, 13920, Note_on_c, 4, 71, 80
5, 14159, Note_on_c, 4, 71, 0
5, 14160, Note_on_c, 4, 74, 80
5, 14399, Note_on_c, 4, 74, 0
5, 14400, Note_on_c, 4, 76, 80
5, 14639, Note_on_c, 4, 76, 0
5, 15360, Note_on_c, 4, 60, 80
5, 15360, Control_c, 4, 2, 80
5, 15599, Note_on_c, 4, 60, 0
5, 15600, Note_on_c, 4, 64, 80
5, 15600, Control_c, 4, 2, 80
5, 15839, Note_on_c, 4, 64, 0
5, 15840, Note_on_c, 4, 67, 80
5, 15840, Control_c, 4, 2, 80
5, 16079, Note_on_c, 4, 67, 0
5, 16080, Note_on_c, 4, 72, 80
5, 16080, Control_c, 4, 2, 80
5, 16319, Note_on_c, 4, 72, 0
5, 16320, Note_on_c, 4, 76, 80
5, 16320, Control_c, 4, 2, 80
5, 16559, Note_on_c, 4, 76, 0
5, 16560, Note_on_c, 4, 72, 80
5, 16799, Note_on_c, 4, 72, 0
5, 16800, Note_on_c, 4, 67, 80
5, 17039, Note_on_c, 4, 67, 0
5, 17040, Note_on_c, 4, 64, 80
5, 17040, Control_c, 4, 2, 80
5, 17279, Note_on_c, 4, 64, 0
5, 17280, Note_on_c, 4, 60, 80
5, 17280, Control_c, 4, 2, 80
5, 17519, Note_on_c, 4, 60, 0
5, 17520, Note_on_c, 4, 64, 80
5, 17520, Control_c, 4, 2, 80
5, 17759, Note_on_c, 4, 64, 0
5, 17760, Note_on_c, 4, 67, 80
5, 17760, Control_c, 4, 2, 80
5, 17999, Note_on_c, 4, 67, 0
5, 18000, Note_on_c, 4, 72, 80
5, 18000, Control_c, 4, 2, 80
5, 18239, Note_on_c, 4, 72, 0
5, 18240, Note_on_c, 4, 76, 80
5, 18240, Control_c, 4, 2, 80
5, 18479, Note_on_c, 4, 76, 0
5, 18480, Note_on_c, 4, 72, 80
5, 18480, Control_c, 4, 2, 80
5, 18719, Note_on_c, 4, 72, 0
5, 18720, Note_on_c, 4, 67, 80
5, 18720, Control_c, 4, 2, 80
5, 18959, Note_on_c, 4, 67, 0
5, 18960, Note_on_c, 4, 64, 80
5, 18960, Control_c, 4, 2, 80
5, 19199, Note_on_c, 4, 64, 0
5, 19200, Note_on_c, 4, 57, 80
5, 19200, Control_c, 4, 2, 80
5, 19439, Note_on_c, 4, 57, 0
5, 19440, Note_on_c, 4, 64, 80
5, 19440, Control_c, 4, 2, 80
5, 19679, Note_on_c, 4, 64, 0
5, 19680, Note_on_c, 4, 69, 80
5, 19680, Control_c, 4, 2, 80
5, 19919, Note_on_c, 4, 69, 0
5, 19920, Note_on_c, 4, 72, 80
5, 19920, Control_c, 4, 2, 80
5, 20159, Note_on_c, 4, 72, 0
5, 20160, Note_on_c, 4, 76, 80
5, 20160, Control_c, 4, 2, 80
5, 20399, Note_on_c, 4, 76, 0
5, 20400, Note_on_c, 4, 72, 80
5, 20639, Note_on_c, 4, 72, 0
5, 20640, Note_on_c, 4, 69, 80
5, 20879, Note_on_c, 4, 69, 0
5, 20880, Note_on_c, 4, 64, 80
5, 21119, Note_on_c, 4, 64, 0
5, 21120, Note_on_c, 4, 57, 80
5, 21120, Control_c, 4, 2, 80
5, 21359, Note_on_c, 4, 57, 0
5, 21360, Note_on_c, 4, 64, 80
5, 21360, Control_c, 4, 2, 80
5, 21599, Note_on_c, 4, 64, 0
5, 21600, Note_on_c, 4, 69, 80
5, 21600, Control_c, 4, 2, 80
5, 21839, Note_on_c, 4, 69, 0
5, 21840, Note_on_c, 4, 72, 80
5, 21840, Control_c, 4, 2, 80
5, 22079, Note_on_c, 4, 72, 0
5, 22080, Note_on_c, 4, 72, 80
5, 22080, Control_c, 4, 2, 80
5, 22319, Note_on_c, 4, 72, 0
5, 22320, Note_on_c, 4, 69, 80
5, 22320, Control_c, 4, 2, 80
5, 22559, Note_on_c, 4, 69, 0
5, 22560, Note_on_c, 4, 67, 80
5, 22560, Control_c, 4, 2, 80
5, 22799, Note_on_c, 4, 67, 0
5, 22800, Note_on_c, 4, 64, 80
5, 22800, Control_c, 4, 2, 80
5, 23039, Note_on_c, 4, 64, 0
5, 23040, Note_on_c, 4, 62, 80
5, 23040, Control_c, 4, 2, 80
5, 23279, Note_on_c, 4, 62, 0
5, 23280, Note_on_c, 4, 65, 80
5, 23280, Control_c, 4, 2, 80
5, 23519, Note_on_c, 4, 65, 0
5, 23520, Note_on_c, 4, 69, 80
5, 23520, Control_c, 4, 2, 80
5, 23759, Note_on_c, 4, 69, 0
5, 23760, Note_on_c, 4, 72, 80
5, 23760, Control_c, 4, 2, 80
5, 23999, Note_on_c, 4, 72, 0
5, 24000, Note_on_c, 4, 76, 80
5, 24000, Control_c, 4, 2, 80
5, 24239, Note_on_c, 4, 76, 0
5, 24240, Note_on_c, 4, 72, 80
5, 24479, Note_on_c, 4, 72, 0
5, 24480, Note_on_c, 4, 69, 80
5, 24719, Note_on_c, 4, 69, 0
5, 24720, Note_on_c, 4, 65, 80
5, 24720, Control_c, 4, 2, 80
5, 24959, Note_on_c, 4, 65, 0
5, 24960, Note_on_c, 4, 62, 80
5, 24960, Control_c, 4, 2, 80
5, 25199, Note_on_c, 4, 62, 0
5, 25200, Note_on_c, 4, 65, 80
5, 25200, Control_c, 4, 2, 80
5, 25439, Note_on_c, 4, 65, 0
5, 25440, Note_on_c, 4, 69, 80
5, 25440, Control_c, 4, 2, 80
5, 25679, Note_on_c, 4, 69, 0
5, 25680, Note_on_c, 4, 72, 80
5, 25680, Control_c, 4, 2, 80
5, 25919, Note_on_c, 4, 72, 0
5, 25920, Note_on_c, 4, 76, 80
5, 25920, Control_c, 4, 2, 80
5, 26159, Note_on_c, 4, 76, 0
5, 26160, Note_on_c, 4, 72, 80
5, 26160, Control_c, 4, 2, 80
5, 26399, Note_on_c, 4, 72, 0
5, 26400, Note_on_c, 4, 69, 80
5, 26400, Control_c, 4, 2, 80
5, 26639, Note_on_c, 4, 69, 0
5, 26640, Note_on_c, 4, 65, 80
5, 26640, Control_c, 4, 2, 80
5, 26879, Note_on_c, 4, 65, 0
5, 26880, Note_on_c, 4, 59, 80
5, 26880, Control_c, 4, 2, 80
5, 27119, Note_on_c, 4, 59, 0
5, 27120, Note_on_c, 4, 64, 80
5, 27120, Control_c, 4, 2, 80
5, 27359, Note_on_c, 4, 64, 0
5, 27360, Note_on_c, 4, 67, 80
5, 27360, Control_c, 4, 2, 80
5, 27599, Note_on_c, 4, 67, 0
5, 27600, Note_on_c, 4, 71, 80
5, 27600, Control_c, 4, 2, 80
5, 27839, Note_on_c, 4, 71, 0
5, 27840, Note_on_c, 4, 74, 80
5, 27840, Control_c, 4, 2, 80
5, 28079, Note_on_c, 4, 74, 0
5, 28080, Note_on_c, 4, 71, 80
5, 28080, Control_c, 4, 2, 80
5, 28319, Note_on_c, 4, 71, 0
5, 28320, Note_on_c, 4, 67, 80
5, 28320, Control_c, 4, 2, 80
5, 28559, Note_on_c, 4, 67, 0
5, 28560, Note_on_c, 4, 64, 80
5, 28560, Control_c, 4, 2, 80
5, 28799, Note_on_c, 4, 64, 0
5, 28800, Note_on_c, 4, 52, 80
5, 28800, Control_c, 4, 2, 80
5, 29039, Note_on_c, 4, 52, 0
5, 29040, Note_on_c, 4, 59, 80
5, 29040, Control_c, 4, 2, 80
5, 29279, Note_on_c, 4, 59, 0
5, 29280, Note_on_c, 4, 64, 80
5, 29280, Control_c, 4, 2, 80
5, 29519, Note_on_c, 4, 64, 0
5, 29520, Note_on_c, 4, 67, 80
5, 29520, Control_c, 4, 2, 80
5, 29759, Note_on_c, 4, 67, 0
5, 29760, Note_on_c, 4, 71, 80
5, 29760, Control_c, 4, 2, 80
5, 29999, Note_on_c, 4, 71, 0
5, 30000, Note_on_c, 4, 67, 80
5, 30000, Control_c, 4, 2, 80
5, 30239, Note_on_c, 4, 67, 0
5, 30240, Note_on_c, 4, 64, 80
5, 30240, Control_c, 4, 2, 80
5, 30479, Note_on_c, 4, 64, 0
5, 30480, Note_on_c, 4, 59, 80
5, 30480, Control_c, 4, 2, 80
5, 30719, Note_on_c, 4, 59, 0
5, 30720, Note_on_c, 4, 60, 80
5, 30720, Control_c, 4, 2, 80
5, 30959, Note_on_c, 4, 60, 0
5, 30960, Note_on_c, 4, 64, 80
5, 30960, Control_c, 4, 2, 80
5, 31199, Note_on_c, 4, 64, 0
5, 31200, Note_on_c, 4, 67, 80
5, 31200, Control_c, 4, 2, 80
5, 31439, Note_on_c, 4, 67, 0
5, 31440, Note_on_c, 4, 72, 80
5, 31440, Control_c, 4, 2, 80
5, 31679, Note_on_c, 4, 72, 0
5, 31680, Note_on_c, 4, 76, 80
5, 31680, Control_c, 4, 2, 80
5, 31919, Note_on_c, 4, 76, 0
5, 31920, Note_on_c, 4, 72, 80
5, 32159, Note_on_c, 4, 72, 0
5, 32160, Note_on_c, 4, 67, 80
5, 32399, Note_on_c, 4, 67, 0
5, 32400, Note_on_c, 4, 64, 80
5, 32400, Control_c, 4, 2, 80
5, 32639, Note_on_c, 4, 64, 0
5, 32640, Note_on_c, 4, 60, 80
5, 32640, Control_c, 4, 2, 80
5, 32879, Note_on_c, 4, 60, 0
5, 32880, Note_on_c, 4, 64, 80
5, 32880, Control_c, 4, 2, 80
5, 33119, Note_on_c, 4, 64, 0
5, 33120, Note_on_c, 4, 67, 80
5, 33120, Control_c, 4, 2, 80
5, 33359, Note_on_c, 4, 67, 0
5, 33360, Note_on_c, 4, 72, 80
5, 33360, Control_c, 4, 2, 80
5, 33599, Note_on_c, 4, 72, 0
5, 33600, Note_on_c, 4, 76, 80
5, 33600, Control_c, 4, 2, 80
5, 33839, Note_on_c, 4, 76, 0
5, 33840, Note_on_c, 4, 72, 80
5, 34079, Note_on_c, 4, 72, 0
5, 34080, Note_on_c, 4, 67, 80
5, 34080, Control_c, 4, 2, 80
5, 34319, Note_on_c, 4, 67, 0
5, 34320, Note_on_c, 4, 64, 80
5, 34559, Note_on_c, 4, 64, 0
5, 34560, Note_on_c, 4, 57, 80
5, 34560, Control_c, 4, 2, 80
5, 34799, Note_on_c, 4, 57, 0
5, 34800, Note_on_c, 4, 64, 80
5, 34800, Control_c, 4, 2, 80
5, 35039, Note_on_c, 4, 64, 0
5, 35040, Note_on_c, 4, 69, 80
5, 35040, Control_c, 4, 2, 80
5, 35279, Note_on_c, 4, 69, 0
5, 35280, Note_on_c, 4, 72, 80
5, 35280, Control_c, 4, 2, 80
5, 35519, Note_on_c, 4, 72, 0
5, 35520, Note_on_c, 4, 76, 80
5, 35520, Control_c, 4, 2, 80
5, 35759, Note_on_c, 4, 76, 0
5, 35760, Note_on_c, 4, 72, 80
5, 35999, Note_on_c, 4, 72, 0
5, 36000, Note_on_c, 4, 69, 80
5, 36239, Note_on_c, 4, 69, 0
5, 36240, Note_on_c, 4, 64, 80
5, 36240, Control_c, 4, 2, 80
5, 36479, Note_on_c, 4, 64, 0
5, 36480, Note_on_c, 4, 60, 80
5, 36480, Control_c, 4, 2, 80
5, 36719, Note_on_c, 4, 60, 0
5, 36720, Note_on_c, 4, 64, 80
5, 36720, Control_c, 4, 2, 80
5, 36959, Note_on_c, 4, 64, 0
5, 36960, Note_on_c, 4, 67, 80
5, 36960, Control_c, 4, 2, 80
5, 37199, Note_on_c, 4, 67, 0
5, 37200, Note_on_c, 4, 72, 80
5, 37200, Control_c, 4, 2, 80
5, 37439, Note_on_c, 4, 72, 0
5, 37440, Note_on_c, 4, 76, 80
5, 37440, Control_c, 4, 2, 80
5, 37679, Note_on_c, 4, 76, 0
5, 37680, Note_on_c, 4, 72, 80
5, 37919, Note_on_c, 4, 72, 0
5, 37920, Note_on_c, 4, 67, 80
5, 37920, Control_c, 4, 2, 80
5, 38159, Note_on_c, 4, 67, 0
5, 38160, Note_on_c, 4, 64, 80
5, 38399, Note_on_c, 4, 64, 0
5, 38400, Note_on_c, 4, 62, 80
5, 38400, Control_c, 4, 2, 80
5, 38639, Note_on_c, 4, 62, 0
5, 38640, Note_on_c, 4, 65, 80
5, 38640, Control_c, 4, 2, 80
5, 38879, Note_on_c, 4, 65, 0
5, 38880, Note_on_c, 4, 69, 80
5, 38880, Control_c, 4, 2, 80
5, 39119, Note_on_c, 4, 69, 0
5, 39120, Note_on_c, 4, 72, 80
5, 39120, Control_c, 4, 2, 80
5, 39359, Note_on_c, 4, 72, 0
5, 39360, Note_on_c, 4, 76, 80
5, 39360, Control_c, 4, 2, 80
5, 39599, Note_on_c, 4, 76, 0
5, 39600, Note_on_c, 4, 72, 80
5, 39600, Control_c, 4, 2, 80
5, 39839, Note_on_c, 4, 72, 0
5, 39840, Note_on_c, 4, 69, 80
5, 39840, Control_c, 4, 2, 80
5, 40079, Note_on_c, 4, 69, 0
5, 40080, Note_on_c, 4, 65, 80
5, 40080, Control_c, 4, 2, 80
5, 40319, Note_on_c, 4, 65, 0
5, 40320, Note_on_c, 4, 62, 80
5, 40320, Control_c, 4, 2, 80
5, 40559, Note_on_c, 4, 62, 0
5, 40560, Note_on_c, 4, 65, 80
5, 40560, Control_c, 4, 2, 80
5, 40799, Note_on_c, 4, 65, 0
5, 40800, Note_on_c, 4, 69, 80
5, 40800, Control_c, 4, 2, 80
5, 41039, Note_on_c, 4, 69, 0
5, 41040, Note_on_c, 4, 72, 80
5, 41040, Control_c, 4, 2, 80
5, 41279, Note_on_c, 4, 72, 0
5, 41280, Note_on_c, 4, 76, 80
5, 41280, Control_c, 4, 2, 80
5, 41519, Note_on_c, 4, 76, 0
5, 41520, Note_on_c, 4, 72, 80
5, 41520, Control_c, 4, 2, 80
5, 41759, Note_on_c, 4, 72, 0
5, 41760, Note_on_c, 4, 69, 80
5, 41760, Control_c, 4, 2, 80
5, 41999, Note_on_c, 4, 69, 0
5, 42000, Note_on_c, 4, 72, 80
5, 42000, Control_c, 4, 2, 80
5, 42239, Note_on_c, 4, 72, 0
5, 42240, Note_on_c, 4, 59, 80
5, 42240, Control_c, 4, 2, 80
5, 42479, Note_on_c, 4, 59, 0
5, 42480, Note_on_c, 4, 64, 80
5, 42480, Control_c, 4, 2, 80
5, 42719, Note_on_c, 4, 64, 0
5, 42720, Note_on_c, 4, 67, 80
5, 42720, Control_c, 4, 2, 80
5, 42959, Note_on_c, 4, 67, 0
5, 42960, Note_on_c, 4, 71, 80
5, 42960, Control_c, 4, 2, 80
5, 43199, Note_on_c, 4, 71, 0
5, 43200, Note_on_c, 4, 74, 80
5, 43200, Control_c, 4, 2, 80
5, 43439, Note_on_c, 4, 74, 0
5, 43440, Note_on_c, 4, 71, 80
5, 43440, Control_c, 4, 2, 80
5, 43679, Note_on_c, 4, 71, 0
5, 43680, Note_on_c, 4, 67, 80
5, 43680, Control_c, 4, 2, 80
5, 43919, Note_on_c, 4, 67, 0
5, 43920, Note_on_c, 4, 64, 80
5, 43920, Control_c, 4, 2, 80
5, 44159, Note_on_c, 4, 64, 0
5, 44160, Note_on_c, 4, 52, 80
5, 44160, Control_c, 4, 2, 80
5, 44399, Note_on_c, 4, 52, 0
5, 44400, Note_on_c, 4, 59, 80
5, 44400, Control_c, 4, 2, 80
5, 44639, Note_on_c, 4, 59, 0
5, 44640, Note_on_c, 4, 64, 80
5, 44640, Control_c, 4, 2, 80
5, 44879, Note_on_c, 4, 64, 0
5, 44880, Note_on_c, 4, 67, 80
5, 44880, Control_c, 4, 2, 80
5, 45119, Note_on_c, 4, 67, 0
5, 45120, Note_on_c, 4, 71, 80
5, 45120, Control_c, 4, 2, 80
5, 45359, Note_on_c, 4, 71, 0
5, 45360, Note_on_c, 4, 67, 80
5, 45599, Note_on_c, 4, 67, 0
5, 45600, Note_on_c, 4, 64, 80
5, 45839, Note_on_c, 4, 64, 0
5, 45840, Note_on_c, 4, 59, 80
5, 46079, Note_on_c, 4, 59, 0
5, 46080, Note_on_c, 4, 60, 80
5, 46080, Control_c, 4, 2, 80
5, 46319, Note_on_c, 4, 60, 0
5, 46320, Note_on_c, 4, 64, 80
5, 46559, Note_on_c, 4, 64, 0
5, 46560, Note_on_c, 4, 67, 80
5, 46799, Note_on_c, 4, 67, 0
5, 46800, Note_on_c, 4, 72, 80
5, 46800, Control_c, 4, 2, 80
5, 47039, Note_on_c, 4, 72, 0
5, 47040, Note_on_c, 4, 76, 80
5, 47040, Control_c, 4, 2, 80
5, 47279, Note_on_c, 4, 76, 0
5, 47280, Note_on_c, 4, 72, 80
5, 47519, Note_on_c, 4, 72, 0
5, 47520, Note_on_c, 4, 67, 80
5, 47759, Note_on_c, 4, 67, 0
5, 47760, Note_on_c, 4, 64, 80
5, 47760, Control_c, 4, 2, 80
5, 47999, Note_on_c, 4, 64, 0
5, 48000, Note_on_c, 4, 60, 80
5, 48000, Control_c, 4, 2, 80
5, 48239, Note_on_c, 4, 60, 0
5, 48240, Note_on_c, 4, 64, 80
5, 48479, Note_on_c, 4, 64, 0
5, 48480, Note_on_c, 4, 67, 80
5, 48480, Control_c, 4, 2, 80
5, 48719, Note_on_c, 4, 67, 0
5, 48720, Note_on_c, 4, 72, 80
5, 48720, Control_c, 4, 2, 80
5, 48959, Note_on_c, 4, 72, 0
5, 48960, Note_on_c, 4, 76, 80
5, 48960, Control_c, 4, 2, 80
5, 49199, Note_on_c, 4, 76, 0
5, 49200, Note_on_c, 4, 72, 80
5, 49439, Note_on_c, 4, 72, 0
5, 49440, Note_on_c, 4, 67, 80
5, 49440, Control_c, 4, 2, 80
5, 49679, Note_on_c, 4, 67, 0
5, 49680, Note_on_c, 4, 64, 80
5, 49919, Note_on_c, 4, 64, 0
5, 49920, Note_on_c, 4, 57, 80
5, 49920, Control_c, 4, 2, 80
5, 50159, Note_on_c, 4, 57, 0
5, 50160, Note_on_c, 4, 64, 80
5, 50399, Note_on_c, 4, 64, 0
5, 50400, Note_on_c, 4, 69, 80
5, 50639, Note_on_c, 4, 69, 0
5, 50640, Note_on_c, 4, 72, 80
5, 50640, Control_c, 4, 2, 80
5, 50879, Note_on_c, 4, 72, 0
5, 50880, Note_on_c, 4, 76, 80
5, 50880, Control_c, 4, 2, 80
5, 51119, Note_on_c, 4, 76, 0
5, 51120, Note_on_c, 4, 72, 80
5, 51359, Note_on_c, 4, 72, 0
5, 51360, Note_on_c, 4, 69, 80
5, 51599, Note_on_c, 4, 69, 0
5, 51600, Note_on_c, 4, 64, 80
5, 51839, Note_on_c, 4, 64, 0
5, 51840, Note_on_c, 4, 57, 80
5, 51840, Control_c, 4, 2, 80
5, 52079, Note_on_c, 4, 57, 0
5, 52080, Note_on_c, 4, 64, 80
5, 52319, Note_on_c, 4, 64, 0
5, 52320, Note_on_c, 4, 69, 80
5, 52320, Control_c, 4, 2, 80
5, 52559, Note_on_c, 4, 69, 0
5, 52560, Note_on_c, 4, 72, 80
5, 52560, Control_c, 4, 2, 80
5, 52799, Note_on_c, 4, 72, 0
5, 52800, Note_on_c, 4, 76, 80
5, 52800, Control_c, 4, 2, 80
5, 53039, Note_on_c, 4, 76, 0
5, 53040, Note_on_c, 4, 72, 80
5, 53279, Note_on_c, 4, 72, 0
5, 53280, Note_on_c, 4, 69, 80
5, 53280, Control_c, 4, 2, 80
5, 53519, Note_on_c, 4, 69, 0
5, 53520, Note_on_c, 4, 64, 80
5, 53759, Note_on_c, 4, 64, 0
5, 53760, Note_on_c, 4, 60, 80
5, 53760, Control_c, 4, 2, 80
5, 53999, Note_on_c, 4, 60, 0
5, 54000, Note_on_c, 4, 64, 80
5, 54000, Control_c, 4, 2, 80
5, 54239, Note_on_c, 4, 64, 0
5, 54240, Note_on_c, 4, 67, 80
5, 54479, Note_on_c, 4, 67, 0
5, 54480, Note_on_c, 4, 72, 80
5, 54480, Control_c, 4, 2, 80
5, 54719, Note_on_c, 4, 72, 0
5, 54720, Note_on_c, 4, 76, 80
5, 54720, Control_c, 4, 2, 80
5, 54959, Note_on_c, 4, 76, 0
5, 54960, Note_on_c, 4, 72, 80
5, 55199, Note_on_c, 4, 72, 0
5, 55200, Note_on_c, 4, 67, 80
5, 55200, Control_c, 4, 2, 80
5, 55439, Note_on_c, 4, 67, 0
5, 55440, Note_on_c, 4, 64, 80
5, 55440, Control_c, 4, 2, 80
5, 55679, Note_on_c, 4, 64, 0
5, 55680, Note_on_c, 4, 60, 80
5, 55680, Control_c, 4, 2, 80
5, 55919, Note_on_c, 4, 60, 0
5, 55920, Note_on_c, 4, 64, 80
5, 56159, Note_on_c, 4, 64, 0
5, 56160, Note_on_c, 4, 67, 80
5, 56160, Control_c, 4, 2, 80
5, 56399, Note_on_c, 4, 67, 0
5, 56400, Note_on_c, 4, 72, 80
5, 56400, Control_c, 4, 2, 80
5, 56639, Note_on_c, 4, 72, 0
5, 56640, Note_on_c, 4, 76, 80
5, 56640, Control_c, 4, 2, 80
5, 56879, Note_on_c, 4, 76, 0
5, 56880, Note_on_c, 4, 72, 80
5, 57119, Note_on_c, 4, 72, 0
5, 57120, Note_on_c, 4, 67, 80
5, 57120, Control_c, 4, 2, 80
5, 57359, Note_on_c, 4, 67, 0
5, 57360, Note_on_c, 4, 64, 80
5, 57599, Note_on_c, 4, 64, 0
5, 57600, Note_on_c, 4, 57, 80
5, 57600, Control_c, 4, 2, 80
5, 57839, Note_on_c, 4, 57, 0
5, 57840, Note_on_c, 4, 64, 80
5, 58079, Note_on_c, 4, 64, 0
5, 58080, Note_on_c, 4, 69, 80
5, 58319, Note_on_c, 4, 69, 0
5, 58320, Note_on_c, 4, 72, 80
5, 58320, Control_c, 4, 2, 80
5, 58559, Note_on_c, 4, 72, 0
5, 58560, Note_on_c, 4, 76, 80
5, 58560, Control_c, 4, 2, 80
5, 58799, Note_on_c, 4, 76, 0
5, 58800, Note_on_c, 4, 72, 80
5, 59039, Note_on_c, 4, 72, 0
5, 59040, Note_on_c, 4, 69, 80
5, 59040, Control_c, 4, 2, 80
5, 59279, Note_on_c, 4, 69, 0
5, 59280, Note_on_c, 4, 64, 80
5, 59280, Control_c, 4, 2, 80
5, 59519, Note_on_c, 4, 64, 0
5, 59520, Note_on_c, 4, 57, 80
5, 59520, Control_c, 4, 2, 80
5, 59759, Note_on_c, 4, 57, 0
5, 59760, Note_on_c, 4, 64, 80
5, 59999, Note_on_c, 4, 64, 0
5, 60000, Note_on_c, 4, 69, 80
5, 60000, Control_c, 4, 2, 80
5, 60239, Note_on_c, 4, 69, 0
5, 60240, Note_on_c, 4, 72, 80
5, 60240, Control_c, 4, 2, 80
5, 60479, Note_on_c, 4, 72, 0
5, 60480, Note_on_c, 4, 76, 80
5, 60480, Control_c, 4, 2, 80
5, 60719, Note_on_c, 4, 76, 0
5, 60720, Note_on_c, 4, 72, 80
5, 60959, Note_on_c, 4, 72, 0
5, 60960, Note_on_c, 4, 69, 80
5, 60960, Control_c, 4, 2, 80
5, 61199, Note_on_c, 4, 69, 0
5, 61200, Note_on_c, 4, 64, 80
5, 61439, Note_on_c, 4, 64, 0
5, 61440, Note_on_c, 4, 60, 80
5, 61440, Control_c, 4, 2, 80
5, 61679, Note_on_c, 4, 60, 0
5, 61680, Note_on_c, 4, 64, 80
5, 61919, Note_on_c, 4, 64, 0
5, 61920, Note_on_c, 4, 67, 80
5, 62159, Note_on_c, 4, 67, 0
5, 62160, Note_on_c, 4, 72, 80
5, 62160, Control_c, 4, 2, 80
5, 62399, Note_on_c, 4, 72, 0
5, 62400, Note_on_c, 4, 76, 80
5, 62400, Control_c, 4, 2, 80
5, 62639, Note_on_c, 4, 76, 0
5, 62640, Note_on_c, 4, 72, 80
5, 62879, Note_on_c, 4, 72, 0
5, 62880, Note_on_c, 4, 67, 80
5, 62880, Control_c, 4, 2, 80
5, 63119, Note_on_c, 4, 67, 0
5, 63120, Note_on_c, 4, 64, 80
5, 63359, Note_on_c, 4, 64, 0
5, 63360, Note_on_c, 4, 60, 80
5, 63360, Control_c, 4, 2, 80
5, 63599, Note_on_c, 4, 60, 0
5, 63600, Note_on_c, 4, 64, 80
5, 63839, Note_on_c, 4, 64, 0
5, 63840, Note_on_c, 4, 67, 80
5, 64079, Note_on_c, 4, 67, 0
5, 64080, Note_on_c, 4, 72, 80
5, 64080, Control_c, 4, 2, 80
5, 64319, Note_on_c, 4, 72, 0
5, 64320, Note_on_c, 4, 76, 80
5, 64320, Control_c, 4, 2, 80
5, 64559, Note_on_c, 4, 76, 0
5, 64560, Note_on_c, 4, 72, 80
5, 64799, Note_on_c, 4, 72, 0
5, 64800, Note_on_c, 4, 67, 80
5, 64800, Control_c, 4, 2, 80
5, 65039, Note_on_c, 4, 67, 0
5, 65040, Note_on_c, 4, 64, 80
5, 65040, Control_c, 4, 2, 80
5, 65279, Note_on_c, 4, 64, 0
5, 65280, Note_on_c, 4, 57, 80
5, 65280, Control_c, 4, 2, 80
5, 65519, Note_on_c, 4, 57, 0
5, 65520, Note_on_c, 4, 64, 80
5, 65520, Control_c, 4, 2, 80
5, 65759, Note_on_c, 4, 64, 0
5, 65760, Note_on_c, 4, 69, 80
5, 65999, Note_on_c, 4, 69, 0
5, 66000, Note_on_c, 4, 72, 80
5, 66000, Control_c, 4, 2, 80
5, 66239, Note_on_c, 4, 72, 0
5, 66240, Note_on_c, 4, 76, 80
5, 66240, Control_c, 4, 2, 80
5, 66479, Note_on_c, 4, 76, 0
5, 66480, Note_on_c, 4, 72, 80
5, 66719, Note_on_c, 4, 72, 0
5, 66720, Note_on_c, 4, 69, 80
5, 66720, Control_c, 4, 2, 80
5, 66959, Note_on_c, 4, 69, 0
5, 66960, Note_on_c, 4, 64, 80
5, 67199, Note_on_c, 4, 64, 0
5, 67200, Note_on_c, 4, 57, 80
5, 67200, Control_c, 4, 2, 80
5, 67439, Note_on_c, 4, 57, 0
5, 67440, Note_on_c, 4, 64, 80
5, 67679, Note_on_c, 4, 64, 0
5, 67680, Note_on_c, 4, 69, 80
5, 67919, Note_on_c, 4, 69, 0
5, 67920, Note_on_c, 4, 72, 80
5, 67920, Control_c, 4, 2, 80
5, 68159, Note_on_c, 4, 72, 0
5, 68160, Note_on_c, 4, 76, 80
5, 68160, Control_c, 4, 2, 80
5, 68399, Note_on_c, 4, 76, 0
5, 68400, Note_on_c, 4, 72, 80
5, 68639, Note_on_c, 4, 72, 0
5, 68640, Note_on_c, 4, 69, 80
5, 68640, Control_c, 4, 2, 80
5, 68879, Note_on_c, 4, 69, 0
5, 68880, Note_on_c, 4, 64, 80
5, 69119, Note_on_c, 4, 64, 0
5, 92160, Note_on_c, 4, 60, 80
5, 92160, Control_c, 4, 2, 80
5, 92399, Note_on_c, 4, 60, 0
5, 92400, Note_on_c, 4, 64, 80
5, 92639, Note_on_c, 4, 64, 0
5, 92640, Note_on_c, 4, 67, 80
5, 92879, Note_on_c, 4, 67, 0
5, 92880, Note_on_c, 4, 72, 80
5, 92880, Control_c, 4, 2, 80
5, 93119, Note_on_c, 4, 72, 0
5, 93120, Note_on_c, 4, 76, 80
5, 93120, Control_c, 4, 2, 80
5, 93359, Note_on_c, 4, 76, 0
5, 93360, Note_on_c, 4, 72, 80
5, 93599, Note_on_c, 4, 72, 0
5, 93600, Note_on_c, 4, 67, 80
5, 93839, Note_on_c, 4, 67, 0
5, 93840, Note_on_c, 4, 64, 80
5, 93840, Control_c, 4, 2, 80
5, 94079, Note_on_c, 4, 64, 0
5, 94080, Note_on_c, 4, 60, 80
5, 94080, Control_c, 4, 2, 80
5, 94319, Note_on_c, 4, 60, 0
5, 94320, Note_on_c, 4, 64, 80
5, 94559, Note_on_c, 4, 64, 0
5, 94560, Note_on_c, 4, 67, 80
5, 94560, Control_c, 4, 2, 80
5, 94799, Note_on_c, 4, 67, 0
5, 94800, Note_on_c, 4, 72, 80
5, 94800, Control_c, 4, 2, 80
5, 95039, Note_on_c, 4, 72, 0
5, 95040, Note_on_c, 4, 76, 80
5, 95040, Control_c, 4, 2, 80
5, 95279, Note_on_c, 4, 76, 0
5, 95280, Note_on_c, 4, 72, 80
5, 95519, Note_on_c, 4, 72, 0
5, 95520, Note_on_c, 4, 67, 80
5, 95520, Control_c, 4, 2, 80
5, 95759, Note_on_c, 4, 67, 0
5, 95760, Note_on_c, 4, 64, 80
5, 95999, Note_on_c, 4, 64, 0
5, 96000, Note_on_c, 4, 57, 80
5, 96000, Control_c, 4, 2, 80
5, 96239, Note_on_c, 4, 57, 0
5, 96240, Note_on_c, 4, 64, 80
5, 96479, Note_on_c, 4, 64, 0
5, 96480, Note_on_c, 4, 69, 80
5, 96719, Note_on_c, 4, 69, 0
5, 96720, Note_on_c, 4, 72, 80
5, 96720, Control_c, 4, 2, 80
5, 96959, Note_on_c, 4, 72, 0
5, 96960, Note_on_c, 4, 76, 80
5, 96960, Control_c, 4, 2, 80
5, 97199, Note_on_c, 4, 76, 0
5, 97200, Note_on_c, 4, 72, 80
5, 97439, Note_on_c, 4, 72, 0
5, 97440, Note_on_c, 4, 69, 80
5, 97679, Note_on_c, 4, 69, 0
5, 97680, Note_on_c, 4, 64, 80
5, 97919, Note_on_c, 4, 64, 0
5, 97920, Note_on_c, 4, 57, 80
5, 97920, Control_c, 4, 2, 80
5, 98159, Note_on_c, 4, 57, 0
5, 98160, Note_on_c, 4, 64, 80
5, 98399, Note_on_c, 4, 64, 0
5, 98400, Note_on_c, 4, 69, 80
5, 98400, Control_c, 4, 2, 80
5, 98639, Note_on_c, 4, 69, 0
5, 98640, Note_on_c, 4, 72, 80
5, 98640, Control_c, 4, 2, 80
5, 98879, Note_on_c, 4, 72, 0
5, 98880, Note_on_c, 4, 76, 80
5, 98880, Control_c, 4, 2, 80
5, 99119, Note_on_c, 4, 76, 0
5, 99120, Note_on_c, 4, 72, 80
5, 99359, Note_on_c, 4, 72, 0
5, 99360, Note_on_c, 4, 69, 80
5, 99360, Control_c, 4, 2, 80
5, 99599, Note_on_c, 4, 69, 0
5, 99600, Note_on_c, 4, 64, 80
5, 99839, Note_on_c, 4, 64, 0
5, 99840, Note_on_c, 4, 60, 80
5, 99840, Control_c, 4, 2, 80
5, 100079, Note_on_c, 4, 60, 0
5, 100080, Note_on_c, 4, 64, 80
5, 100080, Control_c, 4, 2, 80
5, 100319, Note_on_c, 4, 64, 0
5, 100320, Note_on_c, 4, 67, 80
5, 100559, Note_on_c, 4, 67, 0
5, 100560, Note_on_c, 4, 72, 80
5, 100560, Control_c, 4, 2, 80
5, 100799, Note_on_c, 4, 72, 0
5, 100800, Note_on_c, 4, 76, 80
5, 100800, Control_c, 4, 2, 80
5, 101039, Note_on_c, 4, 76, 0
5, 101040, Note_on_c, 4, 72, 80
5, 101279, Note_on_c, 4, 72, 0
5, 101280, Note_on_c, 4, 67, 80
5, 101280, Control_c, 4, 2, 80
5, 101519, Note_on_c, 4, 67, 0
5, 101520, Note_on_c, 4, 64, 80
5, 101520, Control_c, 4, 2, 80
5, 101759, Note_on_c, 4, 64, 0
5, 101760, Note_on_c, 4, 60, 80
5, 101760, Control_c, 4, 2, 80
5, 101999, Note_on_c, 4, 60, 0
5, 102000, Note_on_c, 4, 64, 80
5, 102239, Note_on_c, 4, 64, 0
5, 102240, Note_on_c, 4, 67, 80
5, 102240, Control_c, 4, 2, 80
5, 102479, Note_on_c, 4, 67, 0
5, 102480, Note_on_c, 4, 72, 80
5, 102480, Control_c, 4, 2, 80
5, 102719, Note_on_c, 4, 72, 0
5, 102720, Note_on_c, 4, 76, 80
5, 102720, Control_c, 4, 2, 80
5, 102959, Note_on_c, 4, 76, 0
5, 102960, Note_on_c, 4, 72, 80
5, 103199, Note_on_c, 4, 72, 0
5, 103200, Note_on_c, 4, 67, 80
5, 103200, Control_c, 4, 2, 80
5, 103439, Note_on_c, 4, 67, 0
5, 103440, Note_on_c, 4, 64, 80
5, 103679, Note_on_c, 4, 64, 0
5, 103680, Note_on_c, 4, 57, 80
5, 103680, Control_c, 4, 2, 80
5, 103919, Note_on_c, 4, 57, 0
5, 103920, Note_on_c, 4, 64, 80
5, 104159, Note_on_c, 4, 64, 0
5, 104160, Note_on_c, 4, 69, 80
5, 104399, Note_on_c, 4, 69, 0
5, 104400, Note_on_c, 4, 72, 80
5, 104400, Control_c, 4, 2, 80
5, 104639, Note_on_c, 4, 72, 0
5, 104640, Note_on_c, 4, 76, 80
5, 104640, Control_c, 4, 2, 80
5, 104879, Note_on_c, 4, 76, 0
5, 104880, Note_on_c, 4, 72, 80
5, 105119, Note_on_c, 4, 72, 0
5, 105120, Note_on_c, 4, 69, 80
5, 105120, Control_c, 4, 2, 80
5, 105359, Note_on_c, 4, 69, 0
5, 105360, Note_on_c, 4, 64, 80
5, 105360, Control_c, 4, 2, 80
5, 105599, Note_on_c, 4, 64, 0
5, 105600, Note_on_c, 4, 57, 80
5, 105600, Control_c, 4, 2, 80
5, 105839, Note_on_c, 4, 57, 0
5, 105840, Note_on_c, 4, 64, 80
5, 106079, Note_on_c, 4, 64, 0
5, 106080, Note_on_c, 4, 69, 80
5, 106080, Control_c, 4, 2, 80
5, 106319, Note_on_c, 4, 69, 0
5, 106320, Note_on_c, 4, 72, 80
5, 106320, Control_c, 4, 2, 80
5, 106559, Note_on_c, 4, 72, 0
5, 106560, Note_on_c, 4, 76, 80
5, 106560, Control_c, 4, 2, 80
5, 106799, Note_on_c, 4, 76, 0
5, 106800, Note_on_c, 4, 72, 80
5, 107039, Note_on_c, 4, 72, 0
5, 107040, Note_on_c, 4, 69, 80
5, 107040, Control_c, 4, 2, 80
5, 107279, Note_on_c, 4, 69, 0
5, 107280, Note_on_c, 4, 64, 80
5, 107519, Note_on_c, 4, 64, 0
5, 107520, Note_on_c, 4, 60, 80
5, 107520, Control_c, 4, 2, 80
5, 107759, Note_on_c, 4, 60, 0
5, 107760, Note_on_c, 4, 64, 80
5, 107999, Note_on_c, 4, 64, 0
5, 108000, Note_on_c, 4, 67, 80
5, 108239, Note_on_c, 4, 67, 0
5, 108240, Note_on_c, 4, 72, 80
5, 108240, Control_c, 4, 2, 80
5, 108479, Note_on_c, 4, 72, 0
5, 108480, Note_on_c, 4, 76, 80
5, 108480, Control_c, 4, 2, 80
5, 108719, Note_on_c, 4, 76, 0
5, 108720, Note_on_c, 4, 72, 80
5, 108959, Note_on_c, 4, 72, 0
5, 108960, Note_on_c, 4, 67, 80
5, 108960, Control_c, 4, 2, 80
5, 109199, Note_on_c, 4, 67, 0
5, 109200, Note_on_c, 4, 64, 80
5, 109439, Note_on_c, 4, 64, 0
5, 109440, Note_on_c, 4, 60, 80
5, 109440, Control_c, 4, 2, 80
5, 109679, Note_on_c, 4, 60, 0
5, 109680, Note_on_c, 4, 64, 80
5, 109919, Note_on_c, 4, 64, 0
5, 109920, Note_on_c, 4, 67, 80
5, 110159, Note_on_c, 4, 67, 0
5, 110160, Note_on_c, 4, 72, 80
5, 110160, Control_c, 4, 2, 80
5, 110399, Note_on_c, 4, 72, 0
5, 110400, Note_on_c, 4, 76, 80
5, 110400, Control_c, 4, 2, 80
5, 110639, Note_on_c, 4, 76, 0
5, 110640, Note_on_c, 4, 72, 80
5, 110879, Note_on_c, 4, 72, 0
5, 110880, Note_on_c, 4, 67, 80
5, 110880, Control_c, 4, 2, 80
5, 111119, Note_on_c, 4, 67, 0
5, 111120, Note_on_c, 4, 64, 80
5, 111120, Control_c, 4, 2, 80
5, 111359, Note_on_c, 4, 64, 0
5, 111360, Note_on_c, 4, 57, 80
5, 111360, Control_c, 4, 2, 80
5, 111599, Note_on_c, 4, 57, 0
5, 111600, Note_on_c, 4, 64, 80
5, 111600, Control_c, 4, 2, 80
5, 111839, Note_on_c, 4, 64, 0
5, 111840, Note_on_c, 4, 69, 80
5, 112079, Note_on_c, 4, 69, 0
5, 112080, Note_on_c, 4, 72, 80
5, 112080, Control_c, 4, 2, 80
5, 112319, Note_on_c, 4, 72, 0
5, 112320, Note_on_c, 4, 76, 80
5, 112320, Control_c, 4, 2, 80
5, 112559, Note_on_c, 4, 76, 0
5, 112560, Note_on_c, 4, 72, 80
5, 112799, Note_on_c, 4, 72, 0
5, 112800, Note_on_c, 4, 69, 80
5, 112800, Control_c, 4, 2, 80
5, 113039, Note_on_c, 4, 69, 0
5, 113040, Note_on_c, 4, 64, 80
5, 113279, Note_on_c, 4, 64, 0
5, 113280, Note_on_c, 4, 57, 80
5, 113280, Control_c, 4, 2, 80
5, 113519, Note_on_c, 4, 57, 0
5, 113520, Note_on_c, 4, 64, 80
5, 113759, Note_on_c, 4, 64, 0
5, 113760, Note_on_c, 4, 69, 80
5, 113999, Note_on_c, 4, 69, 0
5, 114000, Note_on_c, 4, 72, 80
5, 114000, Control_c, 4, 2, 80
5, 114239, Note_on_c, 4, 72, 0
5, 114240, Note_on_c, 4, 76, 80
5, 114240, Control_c, 4, 2, 80
5, 114479, Note_on_c, 4, 76, 0
5, 114480, Note_on_c, 4, 72, 80
5, 114719, Note_on_c, 4, 72, 0
5, 114720, Note_on_c, 4, 69, 80
5, 114720, Control_c, 4, 2, 80
5, 114959, Note_on_c, 4, 69, 0
5, 114960, Note_on_c, 4, 64, 80
5, 115199, Note_on_c, 4, 64, 0
5, 130560, Note_on_c, 4, 60, 80
5, 130560, Control_c, 4, 2, 80
5, 130799, Note_on_c, 4, 60, 0
5, 130800, Note_on_c, 4, 64, 80
5, 131039, Note_on_c, 4, 64, 0
5, 131040, Note_on_c, 4, 67, 80
5, 131279, Note_on_c, 4, 67, 0
5, 131280, Note_on_c, 4, 72, 80
5, 131519, Note_on_c, 4, 72, 0
5, 131520, Note_on_c, 4, 76, 80
5, 131520, Control_c, 4, 2, 80
5, 131759, Note_on_c, 4, 76, 0
5, 131760, Note_on_c, 4, 79, 80
5, 131999, Note_on_c, 4, 79, 0
5, 132000, Note_on_c, 4, 83, 80
5, 132239, Note_on_c, 4, 83, 0
5, 132240, Note_on_c, 4, 84, 80
5, 132479, Note_on_c, 4, 84, 0
5, 132480, Note_on_c, 4, 79, 80
5, 132480, Control_c, 4, 2, 80
5, 132719, Note_on_c, 4, 79, 0
5, 132720, Note_on_c, 4, 76, 80
5, 132959, Note_on_c, 4, 76, 0
5, 132960, Note_on_c, 4, 72, 80
5, 133199, Note_on_c, 4, 72, 0
5, 133200, Note_on_c, 4, 67, 80
5, 133439, Note_on_c, 4, 67, 0
5, 133440, Note_on_c, 4, 64, 80
5, 133679, Note_on_c, 4, 64, 0
5, 133680, Note_on_c, 4, 60, 80
5, 133919, Note_on_c, 4, 60, 0
5, 133920, Note_on_c, 4, 57, 80
5, 134159, Note_on_c, 4, 57, 0
5, 134160, Note_on_c, 4, 64, 80
5, 134399, Note_on_c, 4, 64, 0
5, 134400, Note_on_c, 4, 57, 80
5, 134639, Note_on_c, 4, 57, 0
5, 134640, Note_on_c, 4, 64, 80
5, 134879, Note_on_c, 4, 64, 0
5, 134880, Note_on_c, 4, 69, 80
5, 135119, Note_on_c, 4, 69, 0
5, 135120, Note_on_c, 4, 72, 80
5, 135359, Note_on_c, 4, 72, 0
5, 135360, Note_on_c, 4, 76, 80
5, 135360, Control_c, 4, 2, 80
5, 135599, Note_on_c, 4, 76, 0
5, 135600, Note_on_c, 4, 79, 80
5, 135839, Note_on_c, 4, 79, 0
5, 135840, Note_on_c, 4, 83, 80
5, 136079, Note_on_c, 4, 83, 0
5, 136080, Note_on_c, 4, 84, 80
5, 136319, Note_on_c, 4, 84, 0
5, 136320, Note_on_c, 4, 79, 80
5, 136320, Control_c, 4, 2, 80
5, 136559, Note_on_c, 4, 79, 0
5, 136560, Note_on_c, 4, 76, 80
5, 136799, Note_on_c, 4, 76, 0
5, 136800, Note_on_c, 4, 72, 80
5, 137039, Note_on_c, 4, 72, 0
5, 137040, Note_on_c, 4, 69, 80
5, 137279, Note_on_c, 4, 69, 0
5, 137280, Note_on_c, 4, 64, 80
5, 137519, Note_on_c, 4, 64, 0
5, 137520, Note_on_c, 4, 60, 80
5, 137759, Note_on_c, 4, 60, 0
5, 137760, Note_on_c, 4, 57, 80
5, 137999, Note_on_c, 4, 57, 0
5, 138000, Note_on_c, 4, 64, 80
5, 138239, Note_on_c, 4, 64, 0
5, 138240, Note_on_c, 4, 62, 80
5, 138479, Note_on_c, 4, 62, 0
5, 138480, Note_on_c, 4, 65, 80
5, 138719, Note_on_c, 4, 65, 0
5, 138720, Note_on_c, 4, 69, 80
5, 138959, Note_on_c, 4, 69, 0
5, 138960, Note_on_c, 4, 72, 80
5, 139199, Note_on_c, 4, 72, 0
5, 139200, Note_on_c, 4, 76, 80
5, 139200, Control_c, 4, 2, 80
5, 139439, Note_on_c, 4, 76, 0
5, 139440, Note_on_c, 4, 79, 80
5, 139679, Note_on_c, 4, 79, 0
5, 139680, Note_on_c, 4, 83, 80
5, 139919, Note_on_c, 4, 83, 0
5, 139920, Note_on_c, 4, 84, 80
5, 140159, Note_on_c, 4, 84, 0
5, 140160, Note_on_c, 4, 79, 80
5, 140160, Control_c, 4, 2, 80
5, 140399, Note_on_c, 4, 79, 0
5, 140400, Note_on_c, 4, 76, 80
5, 140639, Note_on_c, 4, 76, 0
5, 140640, Note_on_c, 4, 72, 80
5, 140879, Note_on_c, 4, 72, 0
5, 140880, Note_on_c, 4, 67, 80
5, 141119, Note_on_c, 4, 67, 0
5, 141120, Note_on_c, 4, 64, 80
5, 141359, Note_on_c, 4, 64, 0
5, 141360, Note_on_c, 4, 60, 80
5, 141599, Note_on_c, 4, 60, 0
5, 141600, Note_on_c, 4, 57, 80
5, 141839, Note_on_c, 4, 57, 0
5, 141840, Note_on_c, 4, 60, 80
5, 142079, Note_on_c, 4, 60, 0
5, 142080, Note_on_c, 4, 57, 80
5, 142319, Note_on_c, 4, 57, 0
5, 142320, Note_on_c, 4, 64, 80
5, 142559, Note_on_c, 4, 64, 0
5, 142560, Note_on_c, 4, 67, 80
5, 142799, Note_on_c, 4, 67, 0
5, 142800, Note_on_c, 4, 71, 80
5, 143039, Note_on_c, 4, 71, 0
5, 143040, Note_on_c, 4, 74, 80
5, 143040, Control_c, 4, 2, 80
5, 143279, Note_on_c, 4, 74, 0
5, 143280, Note_on_c, 4, 76, 80
5, 143519, Note_on_c, 4, 76, 0
5, 143520, Note_on_c, 4, 79, 80
5, 143759, Note_on_c, 4, 79, 0
5, 143760, Note_on_c, 4, 83, 80
5, 143999, Note_on_c, 4, 83, 0
5, 144000, Note_on_c, 4, 79, 80
5, 144239, Note_on_c, 4, 79, 0
5, 144240, Note_on_c, 4, 76, 80
5, 144479, Note_on_c, 4, 76, 0
5, 144480, Note_on_c, 4, 74, 80
5, 144719, Note_on_c, 4, 74, 0
5, 144720, Note_on_c, 4, 71, 80
5, 144959, Note_on_c, 4, 71, 0
5, 144960, Note_on_c, 4, 67, 80
5, 145199, Note_on_c, 4, 67, 0
5, 145200, Note_on_c, 4, 64, 80
5, 145439, Note_on_c, 4, 64, 0
5, 145440, Note_on_c, 4, 60, 80
5, 145919, Note_on_c, 4, 60, 0
5, 145920, End_track
0, 0, End_of_file
