0, 0, Header, 1, 5, 480
1, 0, Start_track
1, 0, Title_t, "Piano, Piano\000"
1, 0, Time_signature, 4, 2, 24, 8
1, 0, Key_signature, 0, "major"
1, 0, Tempo, 705882
1, 0, Control_c, 0, 121, 0
1, 0, Program_c, 0, 0
1, 0, Control_c, 0, 7, 100
1, 0, Control_c, 0, 10, 64
1, 0, Control_c, 0, 91, 0
1, 0, Control_c, 0, 93, 0
1, 0, MIDI_port, 0
1, 720, Note_on_c, 0, 79, 80
1, 947, Note_on_c, 0, 79, 0
1, 960, Note_on_c, 0, 79, 80
1, 1301, Note_on_c, 0, 79, 0
1, 1320, Note_on_c, 0, 76, 80
1, 1661, Note_on_c, 0, 76, 0
1, 1680, Note_on_c, 0, 76, 80
1, 2477, Note_on_c, 0, 76, 0
1, 2520, Note_on_c, 0, 81, 80
1, 2861, Note_on_c, 0, 81, 0
1, 2880, Note_on_c, 0, 79, 80
1, 3221, Note_on_c, 0, 79, 0
1, 3240, Note_on_c, 0, 76, 80
1, 3581, Note_on_c, 0, 76, 0
1, 3600, Note_on_c, 0, 76, 80
1, 3827, Note_on_c, 0, 76, 0
1, 3840, Note_on_c, 0, 76, 80
1, 4523, Note_on_c, 0, 76, 0
1, 4560, Note_on_c, 0, 79, 80
1, 4787, Note_on_c, 0, 79, 0
1, 4800, Note_on_c, 0, 76, 80
1, 5141, Note_on_c, 0, 76, 0
1, 5160, Note_on_c, 0, 79, 80
1, 5501, Note_on_c, 0, 79, 0
1, 5520, Note_on_c, 0, 69, 80
1, 6960, Note_on_c, 0, 72, 80
1, 7001, Note_on_c, 0, 69, 0
1, 7080, Note_on_c, 0, 69, 80
1, 7187, Note_on_c, 0, 72, 0
1, 7200, Note_on_c, 0, 72, 80
1, 7320, Note_on_c, 0, 74, 80
1, 7433, Note_on_c, 0, 74, 0
1, 7440, Note_on_c, 0, 76, 80
1, 7535, Note_on_c, 0, 69, 0
1, 7655, Note_on_c, 0, 72, 0
1, 7667, Note_on_c, 0, 76, 0
1, 7680, Note_on_c, 0, 72, 80
1, 7680, Note_on_c, 0, 76, 80
1, 8400, Note_on_c, 0, 79, 80
1, 8591, Note_on_c, 0, 72, 0
1, 8591, Note_on_c, 0, 76, 0
1, 8627, Note_on_c, 0, 79, 0
1, 8640, Note_on_c, 0, 79, 80
1, 8880, Note_on_c, 0, 72, 80
1, 8993, Note_on_c, 0, 72, 0
1, 9000, Note_on_c, 0, 69, 80
1, 9095, Note_on_c, 0, 79, 0
1, 9113, Note_on_c, 0, 69, 0
1, 9120, Note_on_c, 0, 72, 80
1, 9233, Note_on_c, 0, 72, 0
1, 9240, Note_on_c, 0, 74, 80
1, 9353, Note_on_c, 0, 74, 0
1, 9360, Note_on_c, 0, 76, 80
1, 9587, Note_on_c, 0, 76, 0
1, 9600, Note_on_c, 0, 69, 80
1, 9600, Note_on_c, 0, 72, 80
1, 9600, Note_on_c, 0, 76, 80
1, 10200, Note_on_c, 0, 81, 80
1, 10511, Note_on_c, 0, 69, 0
1, 10511, Note_on_c, 0, 72, 0
1, 10511, Note_on_c, 0, 76, 0
1, 10541, Note_on_c, 0, 81, 0
1, 10560, Note_on_c, 0, 79, 80
1, 10800, Note_on_c, 0, 72, 80
1, 10913, Note_on_c, 0, 72, 0
1, 10920, Note_on_c, 0, 69, 80
1, 11015, Note_on_c, 0, 79, 0
1, 11033, Note_on_c, 0, 69, 0
1, 11040, Note_on_c, 0, 72, 80
1, 11153, Note_on_c, 0, 72, 0
1, 11160, Note_on_c, 0, 74, 80
1, 11273, Note_on_c, 0, 74, 0
1, 11280, Note_on_c, 0, 76, 80
1, 11507, Note_on_c, 0, 76, 0
1, 11520, Note_on_c, 0, 67, 80
1, 11520, Note_on_c, 0, 74, 80
1, 12240, Note_on_c, 0, 79, 80
1, 12431, Note_on_c, 0, 67, 0
1, 12431, Note_on_c, 0, 74, 0
1, 12467, Note_on_c, 0, 79, 0
1, 12480, Note_on_c, 0, 76, 80
1, 12720, Note_on_c, 0, 74, 80
1, 12935, Note_on_c, 0, 76, 0
1, 12947, Note_on_c, 0, 74, 0
1, 12960, Note_on_c, 0, 74, 80
1, 13187, Note_on_c, 0, 74, 0
1, 13200, Note_on_c, 0, 76, 80
1, 13427, Note_on_c, 0, 76, 0
1, 13440, Note_on_c, 0, 69, 80
1, 13440, Note_on_c, 0, 72, 80
1, 13440, Note_on_c, 0, 76, 80
1, 14351, Note_on_c, 0, 69, 0
1, 14351, Note_on_c, 0, 72, 0
1, 14351, Note_on_c, 0, 76, 0
1, 14640, Note_on_c, 0, 72, 80
1, 14753, Note_on_c, 0, 72, 0
1, 14760, Note_on_c, 0, 69, 80
1, 14873, Note_on_c, 0, 69, 0
1, 14880, Note_on_c, 0, 72, 80
1, 14993, Note_on_c, 0, 72, 0
1, 15000, Note_on_c, 0, 74, 80
1, 15113, Note_on_c, 0, 74, 0
1, 15120, Note_on_c, 0, 76, 80
1, 15347, Note_on_c, 0, 76, 0
1, 15360, Note_on_c, 0, 67, 80
1, 15360, Note_on_c, 0, 72, 80
1, 15360, Note_on_c, 0, 76, 80
1, 15960, Note_on_c, 0, 79, 80
1, 16271, Note_on_c, 0, 67, 0
1, 16271, Note_on_c, 0, 72, 0
1, 16271, Note_on_c, 0, 76, 0
1, 16301, Note_on_c, 0, 79, 0
1, 16320, Note_on_c, 0, 79, 80
1, 16560, Note_on_c, 0, 72, 80
1, 16673, Note_on_c, 0, 72, 0
1, 16680, Note_on_c, 0, 69, 80
1, 16775, Note_on_c, 0, 79, 0
1, 16793, Note_on_c, 0, 69, 0
1, 16800, Note_on_c, 0, 72, 80
1, 16913, Note_on_c, 0, 72, 0
1, 16920, Note_on_c, 0, 74, 80
1, 17033, Note_on_c, 0, 74, 0
1, 17040, Note_on_c, 0, 76, 80
1, 17267, Note_on_c, 0, 76, 0
1, 17280, Note_on_c, 0, 69, 80
1, 17280, Note_on_c, 0, 72, 80
1, 17280, Note_on_c, 0, 76, 80
1, 17880, Note_on_c, 0, 81, 80
1, 18191, Note_on_c, 0, 69, 0
1, 18191, Note_on_c, 0, 72, 0
1, 18191, Note_on_c, 0, 76, 0
1, 18221, Note_on_c, 0, 81, 0
1, 18240, Note_on_c, 0, 79, 80
1, 18480, Note_on_c, 0, 72, 80
1, 18593, Note_on_c, 0, 72, 0
1, 18600, Note_on_c, 0, 69, 80
1, 18695, Note_on_c, 0, 79, 0
1, 18713, Note_on_c, 0, 69, 0
1, 18720, Note_on_c, 0, 72, 80
1, 18833, Note_on_c, 0, 72, 0
1, 18840, Note_on_c, 0, 74, 80
1, 18953, Note_on_c, 0, 74, 0
1, 18960, Note_on_c, 0, 76, 80
1, 19187, Note_on_c, 0, 76, 0
1, 19200, Note_on_c, 0, 67, 80
1, 19200, Note_on_c, 0, 74, 80
1, 19920, Note_on_c, 0, 79, 80
1, 20111, Note_on_c, 0, 67, 0
1, 20111, Note_on_c, 0, 74, 0
1, 20147, Note_on_c, 0, 79, 0
1, 20160, Note_on_c, 0, 76, 80
1, 20400, Note_on_c, 0, 72, 80
1, 20513, Note_on_c, 0, 72, 0
1, 20520, Note_on_c, 0, 69, 80
1, 20615, Note_on_c, 0, 76, 0
1, 20633, Note_on_c, 0, 69, 0
1, 20640, Note_on_c, 0, 72, 80
1, 20753, Note_on_c, 0, 72, 0
1, 20760, Note_on_c, 0, 74, 80
1, 20873, Note_on_c, 0, 74, 0
1, 20880, Note_on_c, 0, 76, 80
1, 21107, Note_on_c, 0, 76, 0
1, 21120, Note_on_c, 0, 69, 80
1, 21120, Note_on_c, 0, 72, 80
1, 21120, Note_on_c, 0, 76, 80
1, 22031, Note_on_c, 0, 69, 0
1, 22031, Note_on_c, 0, 72, 0
1, 22031, Note_on_c, 0, 76, 0
1, 22320, Note_on_c, 0, 74, 80
1, 22547, Note_on_c, 0, 74, 0
1, 22560, Note_on_c, 0, 74, 80
1, 22787, Note_on_c, 0, 74, 0
1, 22800, Note_on_c, 0, 76, 80
1, 23027, Note_on_c, 0, 76, 0
1, 23040, Note_on_c, 0, 67, 80
1, 23040, Note_on_c, 0, 72, 80
1, 23040, Note_on_c, 0, 76, 80
1, 23640, Note_on_c, 0, 79, 80
1, 23951, Note_on_c, 0, 67, 0
1, 23951, Note_on_c, 0, 72, 0
1, 23951, Note_on_c, 0, 76, 0
1, 23981, Note_on_c, 0, 79, 0
1, 24000, Note_on_c, 0, 79, 80
1, 24240, Note_on_c, 0, 72, 80
1, 24353, Note_on_c, 0, 72, 0
1, 24360, Note_on_c, 0, 72, 80
1, 24455, Note_on_c, 0, 79, 0
1, 24473, Note_on_c, 0, 72, 0
1, 24480, Note_on_c, 0, 72, 80
1, 24593, Note_on_c, 0, 72, 0
1, 24600, Note_on_c, 0, 74, 80
1, 24713, Note_on_c, 0, 74, 0
1, 24720, Note_on_c, 0, 76, 80
1, 24947, Note_on_c, 0, 76, 0
1, 24960, Note_on_c, 0, 69, 80
1, 24960, Note_on_c, 0, 72, 80
1, 24960, Note_on_c, 0, 76, 80
1, 25560, Note_on_c, 0, 81, 80
1, 25871, Note_on_c, 0, 69, 0
1, 25871, Note_on_c, 0, 72, 0
1, 25871, Note_on_c, 0, 76, 0
1, 25901, Note_on_c, 0, 81, 0
1, 25920, Note_on_c, 0, 79, 80
1, 26160, Note_on_c, 0, 72, 80
1, 26273, Note_on_c, 0, 72, 0
1, 26280, Note_on_c, 0, 72, 80
1, 26375, Note_on_c, 0, 79, 0
1, 26393, Note_on_c, 0, 72, 0
1, 26400, Note_on_c, 0, 72, 80
1, 26513, Note_on_c, 0, 72, 0
1, 26520, Note_on_c, 0, 74, 80
1, 26633, Note_on_c, 0, 74, 0
1, 26640, Note_on_c, 0, 76, 80
1, 26867, Note_on_c, 0, 76, 0
1, 26880, Note_on_c, 0, 67, 80
1, 26880, Note_on_c, 0, 76, 80
1, 26993, Note_on_c, 0, 67, 0
1, 26993, Note_on_c, 0, 76, 0
1, 27000, Note_on_c, 0, 74, 80
1, 27341, Note_on_c, 0, 74, 0
1, 27600, Note_on_c, 0, 79, 80
1, 27827, Note_on_c, 0, 79, 0
1, 27840, Note_on_c, 0, 76, 80
1, 28080, Note_on_c, 0, 74, 80
1, 28193, Note_on_c, 0, 74, 0
1, 28200, Note_on_c, 0, 74, 80
1, 28295, Note_on_c, 0, 76, 0
1, 28313, Note_on_c, 0, 74, 0
1, 28320, Note_on_c, 0, 74, 80
1, 28433, Note_on_c, 0, 74, 0
1, 28440, Note_on_c, 0, 74, 80
1, 28553, Note_on_c, 0, 74, 0
1, 28560, Note_on_c, 0, 76, 80
1, 28787, Note_on_c, 0, 76, 0
1, 28800, Note_on_c, 0, 69, 80
1, 28800, Note_on_c, 0, 72, 80
1, 28800, Note_on_c, 0, 76, 80
1, 29711, Note_on_c, 0, 69, 0
1, 29711, Note_on_c, 0, 72, 0
1, 29711, Note_on_c, 0, 76, 0
1, 30000, Note_on_c, 0, 74, 80
1, 30113, Note_on_c, 0, 74, 0
1, 30120, Note_on_c, 0, 74, 80
1, 30233, Note_on_c, 0, 74, 0
1, 30240, Note_on_c, 0, 74, 80
1, 30353, Note_on_c, 0, 74, 0
1, 30360, Note_on_c, 0, 74, 80
1, 30473, Note_on_c, 0, 74, 0
1, 30480, Note_on_c, 0, 76, 80
1, 30707, Note_on_c, 0, 76, 0
1, 30720, Note_on_c, 0, 69, 80
1, 30720, Note_on_c, 0, 72, 80
1, 30720, Note_on_c, 0, 76, 80
1, 31631, Note_on_c, 0, 69, 0
1, 31631, Note_on_c, 0, 72, 0
1, 31631, Note_on_c, 0, 76, 0
1, 31920, Note_on_c, 0, 74, 80
1, 32147, Note_on_c, 0, 74, 0
1, 32160, Note_on_c, 0, 74, 80
1, 32387, Note_on_c, 0, 74, 0
1, 32400, Note_on_c, 0, 76, 80
1, 32627, Note_on_c, 0, 76, 0
1, 32640, Note_on_c, 0, 72, 80
1, 32640, Note_on_c, 0, 76, 80
1, 32640, Note_on_c, 0, 67, 80
1, 33360, Note_on_c, 0, 79, 80
1, 33360, Note_on_c, 0, 67, 0
1, 33587, Note_on_c, 0, 79, 0
1, 33600, Note_on_c, 0, 79, 80
1, 33779, Note_on_c, 0, 76, 0
1, 33941, Note_on_c, 0, 79, 0
1, 33960, Note_on_c, 0, 76, 80
1, 34301, Note_on_c, 0, 76, 0
1, 34320, Note_on_c, 0, 76, 80
1, 34463, Note_on_c, 0, 72, 0
1, 35117, Note_on_c, 0, 76, 0
1, 35160, Note_on_c, 0, 81, 80
1, 35501, Note_on_c, 0, 81, 0
1, 35520, Note_on_c, 0, 79, 80
1, 35760, Note_on_c, 0, 74, 80
1, 35975, Note_on_c, 0, 79, 0
1, 35987, Note_on_c, 0, 74, 0
1, 36000, Note_on_c, 0, 74, 80
1, 36227, Note_on_c, 0, 74, 0
1, 36240, Note_on_c, 0, 76, 80
1, 36467, Note_on_c, 0, 76, 0
1, 36480, Note_on_c, 0, 67, 80
1, 36480, Note_on_c, 0, 76, 80
1, 37200, Note_on_c, 0, 79, 80
1, 37391, Note_on_c, 0, 67, 0
1, 37391, Note_on_c, 0, 76, 0
1, 37427, Note_on_c, 0, 79, 0
1, 37440, Note_on_c, 0, 76, 80
1, 37680, Note_on_c, 0, 74, 80
1, 37895, Note_on_c, 0, 76, 0
1, 37907, Note_on_c, 0, 74, 0
1, 37920, Note_on_c, 0, 74, 80
1, 38147, Note_on_c, 0, 74, 0
1, 38160, Note_on_c, 0, 76, 80
1, 38387, Note_on_c, 0, 76, 0
1, 38400, Note_on_c, 0, 69, 80
1, 38400, Note_on_c, 0, 72, 80
1, 38400, Note_on_c, 0, 76, 80
1, 39767, Note_on_c, 0, 69, 0
1, 39767, Note_on_c, 0, 72, 0
1, 39767, Note_on_c, 0, 76, 0
1, 40080, Note_on_c, 0, 72, 80
1, 40193, Note_on_c, 0, 72, 0
1, 40200, Note_on_c, 0, 72, 80
1, 40313, Note_on_c, 0, 72, 0
1, 40320, Note_on_c, 0, 72, 80
1, 40433, Note_on_c, 0, 72, 0
1, 40440, Note_on_c, 0, 71, 80
1, 40553, Note_on_c, 0, 71, 0
1, 40560, Note_on_c, 0, 71, 80
1, 40673, Note_on_c, 0, 71, 0
1, 40680, Note_on_c, 0, 69, 80
1, 40793, Note_on_c, 0, 69, 0
1, 40800, Note_on_c, 0, 69, 80
1, 40913, Note_on_c, 0, 69, 0
1, 40920, Note_on_c, 0, 67, 80
1, 41033, Note_on_c, 0, 67, 0
1, 41040, Note_on_c, 0, 67, 80
1, 41153, Note_on_c, 0, 67, 0
1, 41160, Note_on_c, 0, 64, 80
1, 41273, Note_on_c, 0, 64, 0
1, 41280, Note_on_c, 0, 64, 80
1, 41393, Note_on_c, 0, 64, 0
1, 41400, Note_on_c, 0, 64, 80
1, 41513, Note_on_c, 0, 64, 0
1, 41520, Note_on_c, 0, 64, 80
1, 41633, Note_on_c, 0, 64, 0
1, 41640, Note_on_c, 0, 64, 80
1, 41753, Note_on_c, 0, 64, 0
1, 41760, Note_on_c, 0, 64, 80
1, 41873, Note_on_c, 0, 64, 0
1, 41880, Note_on_c, 0, 64, 80
1, 41993, Note_on_c, 0, 64, 0
1, 42000, Note_on_c, 0, 67, 80
1, 42227, Note_on_c, 0, 67, 0
1, 42240, Note_on_c, 0, 62, 80
1, 42240, Note_on_c, 0, 64, 80
1, 42240, Note_on_c, 0, 67, 80
1, 43607, Note_on_c, 0, 62, 0
1, 43607, Note_on_c, 0, 64, 0
1, 43607, Note_on_c, 0, 67, 0
1, 43920, Note_on_c, 0, 72, 80
1, 44033, Note_on_c, 0, 72, 0
1, 44040, Note_on_c, 0, 72, 80
1, 44153, Note_on_c, 0, 72, 0
1, 44160, Note_on_c, 0, 72, 80
1, 44273, Note_on_c, 0, 72, 0
1, 44280, Note_on_c, 0, 71, 80
1, 44393, Note_on_c, 0, 71, 0
1, 44400, Note_on_c, 0, 71, 80
1, 44513, Note_on_c, 0, 71, 0
1, 44520, Note_on_c, 0, 69, 80
1, 44633, Note_on_c, 0, 69, 0
1, 44640, Note_on_c, 0, 69, 80
1, 44753, Note_on_c, 0, 69, 0
1, 44760, Note_on_c, 0, 67, 80
1, 44873, Note_on_c, 0, 67, 0
1, 44880, Note_on_c, 0, 67, 80
1, 44993, Note_on_c, 0, 67, 0
1, 45000, Note_on_c, 0, 64, 80
1, 45113, Note_on_c, 0, 64, 0
1, 45120, Note_on_c, 0, 64, 80
1, 45233, Note_on_c, 0, 64, 0
1, 45240, Note_on_c, 0, 64, 80
1, 45353, Note_on_c, 0, 64, 0
1, 45360, Note_on_c, 0, 64, 80
1, 45473, Note_on_c, 0, 64, 0
1, 45480, Note_on_c, 0, 64, 80
1, 45593, Note_on_c, 0, 64, 0
1, 45600, Note_on_c, 0, 64, 80
1, 45713, Note_on_c, 0, 64, 0
1, 45720, Note_on_c, 0, 64, 80
1, 45833, Note_on_c, 0, 64, 0
1, 45840, Note_on_c, 0, 67, 80
1, 46067, Note_on_c, 0, 67, 0
1, 46080, Note_on_c, 0, 62, 80
1, 47447, Note_on_c, 0, 62, 0
1, 47760, Note_on_c, 0, 72, 80
1, 47873, Note_on_c, 0, 72, 0
1, 47880, Note_on_c, 0, 72, 80
1, 47993, Note_on_c, 0, 72, 0
1, 48000, Note_on_c, 0, 72, 80
1, 48113, Note_on_c, 0, 72, 0
1, 48120, Note_on_c, 0, 71, 80
1, 48233, Note_on_c, 0, 71, 0
1, 48240, Note_on_c, 0, 71, 80
1, 48353, Note_on_c, 0, 71, 0
1, 48360, Note_on_c, 0, 69, 80
1, 48473, Note_on_c, 0, 69, 0
1, 48480, Note_on_c, 0, 69, 80
1, 48593, Note_on_c, 0, 69, 0
1, 48600, Note_on_c, 0, 67, 80
1, 48713, Note_on_c, 0, 67, 0
1, 48720, Note_on_c, 0, 67, 80
1, 48833, Note_on_c, 0, 67, 0
1, 48840, Note_on_c, 0, 64, 80
1, 48953, Note_on_c, 0, 64, 0
1, 48960, Note_on_c, 0, 64, 80
1, 49073, Note_on_c, 0, 64, 0
1, 49080, Note_on_c, 0, 64, 80
1, 49193, Note_on_c, 0, 64, 0
1, 49200, Note_on_c, 0, 64, 80
1, 49313, Note_on_c, 0, 64, 0
1, 49320, Note_on_c, 0, 64, 80
1, 49433, Note_on_c, 0, 64, 0
1, 49440, Note_on_c, 0, 64, 80
1, 49553, Note_on_c, 0, 64, 0
1, 49560, Note_on_c, 0, 64, 80
1, 49673, Note_on_c, 0, 64, 0
1, 49680, Note_on_c, 0, 67, 80
1, 49907, Note_on_c, 0, 67, 0
1, 49920, Note_on_c, 0, 62, 80
1, 49920, Note_on_c, 0, 64, 80
1, 49920, Note_on_c, 0, 67, 80
1, 50831, Note_on_c, 0, 62, 0
1, 50831, Note_on_c, 0, 64, 0
1, 50831, Note_on_c, 0, 67, 0
1, 51120, Note_on_c, 0, 72, 80
1, 51233, Note_on_c, 0, 72, 0
1, 51240, Note_on_c, 0, 69, 80
1, 51353, Note_on_c, 0, 69, 0
1, 51360, Note_on_c, 0, 72, 80
1, 51473, Note_on_c, 0, 72, 0
1, 51480, Note_on_c, 0, 74, 80
1, 51593, Note_on_c, 0, 74, 0
1, 51600, Note_on_c, 0, 76, 80
1, 51827, Note_on_c, 0, 76, 0
1, 51840, Note_on_c, 0, 67, 80
1, 51840, Note_on_c, 0, 74, 80
1, 52865, Note_on_c, 0, 67, 0
1, 52865, Note_on_c, 0, 74, 0
1, 53040, Note_on_c, 0, 74, 80
1, 53153, Note_on_c, 0, 74, 0
1, 53160, Note_on_c, 0, 74, 80
1, 53273, Note_on_c, 0, 74, 0
1, 53280, Note_on_c, 0, 74, 80
1, 53393, Note_on_c, 0, 74, 0
1, 53400, Note_on_c, 0, 74, 80
1, 53513, Note_on_c, 0, 74, 0
1, 53520, Note_on_c, 0, 74, 80
1, 53633, Note_on_c, 0, 74, 0
1, 53640, Note_on_c, 0, 76, 80
1, 53753, Note_on_c, 0, 76, 0
1, 53760, Note_on_c, 0, 69, 80
1, 53760, Note_on_c, 0, 72, 80
1, 53760, Note_on_c, 0, 76, 80
1, 54671, Note_on_c, 0, 69, 0
1, 54671, Note_on_c, 0, 72, 0
1, 54671, Note_on_c, 0, 76, 0
1, 54960, Note_on_c, 0, 72, 80
1, 55073, Note_on_c, 0, 72, 0
1, 55080, Note_on_c, 0, 69, 80
1, 55193, Note_on_c, 0, 69, 0
1, 55200, Note_on_c, 0, 72, 80
1, 55313, Note_on_c, 0, 72, 0
1, 55320, Note_on_c, 0, 74, 80
1, 55433, Note_on_c, 0, 74, 0
1, 55440, Note_on_c, 0, 76, 80
1, 55667, Note_on_c, 0, 76, 0
1, 55680, Note_on_c, 0, 67, 80
1, 55680, Note_on_c, 0, 72, 80
1, 55680, Note_on_c, 0, 76, 80
1, 56705, Note_on_c, 0, 67, 0
1, 56705, Note_on_c, 0, 72, 0
1, 56705, Note_on_c, 0, 76, 0
1, 56880, Note_on_c, 0, 72, 80
1, 56993, Note_on_c, 0, 72, 0
1, 57000, Note_on_c, 0, 69, 80
1, 57113, Note_on_c, 0, 69, 0
1, 57120, Note_on_c, 0, 72, 80
1, 57233, Note_on_c, 0, 72, 0
1, 57240, Note_on_c, 0, 74, 80
1, 57353, Note_on_c, 0, 74, 0
1, 57360, Note_on_c, 0, 76, 80
1, 57587, Note_on_c, 0, 76, 0
1, 57600, Note_on_c, 0, 67, 80
1, 57600, Note_on_c, 0, 72, 80
1, 57600, Note_on_c, 0, 76, 80
1, 58625, Note_on_c, 0, 67, 0
1, 58625, Note_on_c, 0, 72, 0
1, 58625, Note_on_c, 0, 76, 0
1, 58800, Note_on_c, 0, 72, 80
1, 58913, Note_on_c, 0, 72, 0
1, 58920, Note_on_c, 0, 69, 80
1, 59033, Note_on_c, 0, 69, 0
1, 59040, Note_on_c, 0, 72, 80
1, 59153, Note_on_c, 0, 72, 0
1, 59160, Note_on_c, 0, 74, 80
1, 59273, Note_on_c, 0, 74, 0
1, 59280, Note_on_c, 0, 76, 80
1, 59507, Note_on_c, 0, 76, 0
1, 59520, Note_on_c, 0, 76, 80
1, 59520, Note_on_c, 0, 67, 80
1, 59975, Note_on_c, 0, 67, 0
1, 60600, Note_on_c, 0, 74, 80
1, 60713, Note_on_c, 0, 74, 0
1, 60720, Note_on_c, 0, 74, 80
1, 60833, Note_on_c, 0, 74, 0
1, 60840, Note_on_c, 0, 74, 80
1, 60887, Note_on_c, 0, 76, 0
1, 60953, Note_on_c, 0, 74, 0
1, 60960, Note_on_c, 0, 74, 80
1, 61073, Note_on_c, 0, 74, 0
1, 61080, Note_on_c, 0, 74, 80
1, 61193, Note_on_c, 0, 74, 0
1, 61200, Note_on_c, 0, 76, 80
1, 61427, Note_on_c, 0, 76, 0
1, 61440, Note_on_c, 0, 67, 80
1, 61440, Note_on_c, 0, 72, 80
1, 61440, Note_on_c, 0, 76, 80
1, 62465, Note_on_c, 0, 67, 0
1, 62465, Note_on_c, 0, 72, 0
1, 62465, Note_on_c, 0, 76, 0
1, 62640, Note_on_c, 0, 74, 80
1, 62867, Note_on_c, 0, 74, 0
1, 62880, Note_on_c, 0, 74, 80
1, 63107, Note_on_c, 0, 74, 0
1, 63120, Note_on_c, 0, 76, 80
1, 63347, Note_on_c, 0, 76, 0
1, 63360, Note_on_c, 0, 67, 80
1, 63360, Note_on_c, 0, 72, 80
1, 63360, Note_on_c, 0, 76, 80
1, 63960, Note_on_c, 0, 79, 80
1, 64271, Note_on_c, 0, 67, 0
1, 64271, Note_on_c, 0, 72, 0
1, 64271, Note_on_c, 0, 76, 0
1, 64301, Note_on_c, 0, 79, 0
1, 64320, Note_on_c, 0, 79, 80
1, 64560, Note_on_c, 0, 74, 80
1, 64673, Note_on_c, 0, 74, 0
1, 64680, Note_on_c, 0, 74, 80
1, 64775, Note_on_c, 0, 79, 0
1, 64793, Note_on_c, 0, 74, 0
1, 64800, Note_on_c, 0, 74, 80
1, 64913, Note_on_c, 0, 74, 0
1, 64920, Note_on_c, 0, 72, 80
1, 65033, Note_on_c, 0, 72, 0
1, 65040, Note_on_c, 0, 71, 80
1, 65267, Note_on_c, 0, 71, 0
1, 65280, Note_on_c, 0, 69, 80
1, 65280, Note_on_c, 0, 71, 80
1, 65880, Note_on_c, 0, 81, 80
1, 66191, Note_on_c, 0, 69, 0
1, 66191, Note_on_c, 0, 71, 0
1, 66221, Note_on_c, 0, 81, 0
1, 66240, Note_on_c, 0, 79, 80
1, 66480, Note_on_c, 0, 74, 80
1, 66593, Note_on_c, 0, 74, 0
1, 66600, Note_on_c, 0, 74, 80
1, 66695, Note_on_c, 0, 79, 0
1, 66713, Note_on_c, 0, 74, 0
1, 66720, Note_on_c, 0, 74, 80
1, 66833, Note_on_c, 0, 74, 0
1, 66840, Note_on_c, 0, 72, 80
1, 66953, Note_on_c, 0, 72, 0
1, 66960, Note_on_c, 0, 71, 80
1, 67187, Note_on_c, 0, 71, 0
1, 67200, Note_on_c, 0, 67, 80
1, 67200, Note_on_c, 0, 72, 80
1, 67920, Note_on_c, 0, 79, 80
1, 68111, Note_on_c, 0, 67, 0
1, 68111, Note_on_c, 0, 72, 0
1, 68147, Note_on_c, 0, 79, 0
1, 68160, Note_on_c, 0, 76, 80
1, 68400, Note_on_c, 0, 74, 80
1, 68513, Note_on_c, 0, 74, 0
1, 68520, Note_on_c, 0, 74, 80
1, 68615, Note_on_c, 0, 76, 0
1, 68633, Note_on_c, 0, 74, 0
1, 68640, Note_on_c, 0, 74, 80
1, 68753, Note_on_c, 0, 74, 0
1, 68760, Note_on_c, 0, 72, 80
1, 68873, Note_on_c, 0, 72, 0
1, 68880, Note_on_c, 0, 71, 80
1, 69107, Note_on_c, 0, 71, 0
1, 69120, Note_on_c, 0, 65, 80
1, 69120, Note_on_c, 0, 69, 80
1, 69120, Note_on_c, 0, 72, 80
1, 69840, Note_on_c, 0, 65, 0
1, 70031, Note_on_c, 0, 69, 0
1, 70031, Note_on_c, 0, 72, 0
1, 70320, Note_on_c, 0, 74, 80
1, 70547, Note_on_c, 0, 74, 0
1, 70560, Note_on_c, 0, 74, 80
1, 70787, Note_on_c, 0, 74, 0
1, 70800, Note_on_c, 0, 76, 80
1, 71027, Note_on_c, 0, 76, 0
1, 71040, Note_on_c, 0, 67, 80
1, 71040, Note_on_c, 0, 72, 80
1, 71040, Note_on_c, 0, 76, 80
1, 71640, Note_on_c, 0, 79, 80
1, 71951, Note_on_c, 0, 67, 0
1, 71951, Note_on_c, 0, 72, 0
1, 71951, Note_on_c, 0, 76, 0
1, 71981, Note_on_c, 0, 79, 0
1, 72000, Note_on_c, 0, 79, 80
1, 72120, Note_on_c, 0, 72, 80
1, 72233, Note_on_c, 0, 72, 0
1, 72240, Note_on_c, 0, 72, 80
1, 72353, Note_on_c, 0, 72, 0
1, 72360, Note_on_c, 0, 72, 80
1, 72455, Note_on_c, 0, 79, 0
1, 72473, Note_on_c, 0, 72, 0
1, 72480, Note_on_c, 0, 72, 80
1, 72593, Note_on_c, 0, 72, 0
1, 72600, Note_on_c, 0, 74, 80
1, 72713, Note_on_c, 0, 74, 0
1, 72720, Note_on_c, 0, 76, 80
1, 72947, Note_on_c, 0, 76, 0
1, 72960, Note_on_c, 0, 69, 80
1, 72960, Note_on_c, 0, 76, 80
1, 73560, Note_on_c, 0, 81, 80
1, 73871, Note_on_c, 0, 69, 0
1, 73871, Note_on_c, 0, 76, 0
1, 73901, Note_on_c, 0, 81, 0
1, 73920, Note_on_c, 0, 79, 80
1, 74160, Note_on_c, 0, 74, 80
1, 74273, Note_on_c, 0, 74, 0
1, 74280, Note_on_c, 0, 74, 80
1, 74375, Note_on_c, 0, 79, 0
1, 74393, Note_on_c, 0, 74, 0
1, 74400, Note_on_c, 0, 74, 80
1, 74513, Note_on_c, 0, 74, 0
1, 74520, Note_on_c, 0, 72, 80
1, 74633, Note_on_c, 0, 72, 0
1, 74640, Note_on_c, 0, 71, 80
1, 74867, Note_on_c, 0, 71, 0
1, 74880, Note_on_c, 0, 67, 80
1, 74880, Note_on_c, 0, 71, 80
1, 75600, Note_on_c, 0, 79, 80
1, 75791, Note_on_c, 0, 67, 0
1, 75791, Note_on_c, 0, 71, 0
1, 75827, Note_on_c, 0, 79, 0
1, 75840, Note_on_c, 0, 76, 80
1, 76080, Note_on_c, 0, 74, 80
1, 76193, Note_on_c, 0, 74, 0
1, 76200, Note_on_c, 0, 74, 80
1, 76295, Note_on_c, 0, 76, 0
1, 76313, Note_on_c, 0, 74, 0
1, 76320, Note_on_c, 0, 74, 80
1, 76433, Note_on_c, 0, 74, 0
1, 76440, Note_on_c, 0, 72, 80
1, 76553, Note_on_c, 0, 72, 0
1, 76560, Note_on_c, 0, 71, 80
1, 76787, Note_on_c, 0, 71, 0
1, 76800, Note_on_c, 0, 69, 80
1, 76800, Note_on_c, 0, 60, 80
1, 77160, Note_on_c, 0, 60, 0
1, 78167, Note_on_c, 0, 69, 0
1, 78480, Note_on_c, 0, 72, 80
1, 78593, Note_on_c, 0, 72, 0
1, 78600, Note_on_c, 0, 72, 80
1, 78713, Note_on_c, 0, 72, 0
1, 78720, Note_on_c, 0, 72, 80
1, 78833, Note_on_c, 0, 72, 0
1, 78840, Note_on_c, 0, 71, 80
1, 78953, Note_on_c, 0, 71, 0
1, 78960, Note_on_c, 0, 71, 80
1, 79073, Note_on_c, 0, 71, 0
1, 79080, Note_on_c, 0, 69, 80
1, 79193, Note_on_c, 0, 69, 0
1, 79200, Note_on_c, 0, 69, 80
1, 79313, Note_on_c, 0, 69, 0
1, 79320, Note_on_c, 0, 67, 80
1, 79433, Note_on_c, 0, 67, 0
1, 79440, Note_on_c, 0, 67, 80
1, 79553, Note_on_c, 0, 67, 0
1, 79560, Note_on_c, 0, 64, 80
1, 79673, Note_on_c, 0, 64, 0
1, 79680, Note_on_c, 0, 64, 80
1, 79793, Note_on_c, 0, 64, 0
1, 79800, Note_on_c, 0, 64, 80
1, 79913, Note_on_c, 0, 64, 0
1, 79920, Note_on_c, 0, 64, 80
1, 80033, Note_on_c, 0, 64, 0
1, 80040, Note_on_c, 0, 64, 80
1, 80153, Note_on_c, 0, 64, 0
1, 80160, Note_on_c, 0, 64, 80
1, 80273, Note_on_c, 0, 64, 0
1, 80280, Note_on_c, 0, 64, 80
1, 80393, Note_on_c, 0, 64, 0
1, 80400, Note_on_c, 0, 67, 80
1, 80627, Note_on_c, 0, 67, 0
1, 80640, Note_on_c, 0, 67, 80
1, 82007, Note_on_c, 0, 67, 0
1, 82320, Note_on_c, 0, 72, 80
1, 82433, Note_on_c, 0, 72, 0
1, 82440, Note_on_c, 0, 72, 80
1, 82553, Note_on_c, 0, 72, 0
1, 82560, Note_on_c, 0, 72, 80
1, 82673, Note_on_c, 0, 72, 0
1, 82680, Note_on_c, 0, 71, 80
1, 82793, Note_on_c, 0, 71, 0
1, 82800, Note_on_c, 0, 71, 80
1, 82913, Note_on_c, 0, 71, 0
1, 82920, Note_on_c, 0, 69, 80
1, 83033, Note_on_c, 0, 69, 0
1, 83040, Note_on_c, 0, 69, 80
1, 83153, Note_on_c, 0, 69, 0
1, 83160, Note_on_c, 0, 67, 80
1, 83273, Note_on_c, 0, 67, 0
1, 83280, Note_on_c, 0, 67, 80
1, 83393, Note_on_c, 0, 67, 0
1, 83400, Note_on_c, 0, 64, 80
1, 83513, Note_on_c, 0, 64, 0
1, 83520, Note_on_c, 0, 64, 80
1, 83633, Note_on_c, 0, 64, 0
1, 83640, Note_on_c, 0, 64, 80
1, 83753, Note_on_c, 0, 64, 0
1, 83760, Note_on_c, 0, 64, 80
1, 83873, Note_on_c, 0, 64, 0
1, 83880, Note_on_c, 0, 64, 80
1, 83993, Note_on_c, 0, 64, 0
1, 84000, Note_on_c, 0, 64, 80
1, 84113, Note_on_c, 0, 64, 0
1, 84120, Note_on_c, 0, 64, 80
1, 84233, Note_on_c, 0, 64, 0
1, 84240, Note_on_c, 0, 67, 80
1, 84467, Note_on_c, 0, 67, 0
1, 84480, Note_on_c, 0, 62, 80
1, 85847, Note_on_c, 0, 62, 0
1, 86160, Note_on_c, 0, 72, 80
1, 86273, Note_on_c, 0, 72, 0
1, 86280, Note_on_c, 0, 72, 80
1, 86393, Note_on_c, 0, 72, 0
1, 86400, Note_on_c, 0, 72, 80
1, 86513, Note_on_c, 0, 72, 0
1, 86520, Note_on_c, 0, 71, 80
1, 86633, Note_on_c, 0, 71, 0
1, 86640, Note_on_c, 0, 71, 80
1, 86753, Note_on_c, 0, 71, 0
1, 86760, Note_on_c, 0, 69, 80
1, 86873, Note_on_c, 0, 69, 0
1, 86880, Note_on_c, 0, 69, 80
1, 86993, Note_on_c, 0, 69, 0
1, 87000, Note_on_c, 0, 67, 80
1, 87113, Note_on_c, 0, 67, 0
1, 87120, Note_on_c, 0, 67, 80
1, 87233, Note_on_c, 0, 67, 0
1, 87240, Note_on_c, 0, 64, 80
1, 87353, Note_on_c, 0, 64, 0
1, 87360, Note_on_c, 0, 64, 80
1, 87473, Note_on_c, 0, 64, 0
1, 87480, Note_on_c, 0, 64, 80
1, 87593, Note_on_c, 0, 64, 0
1, 87600, Note_on_c, 0, 64, 80
1, 87713, Note_on_c, 0, 64, 0
1, 87720, Note_on_c, 0, 64, 80
1, 87833, Note_on_c, 0, 64, 0
1, 87840, Note_on_c, 0, 64, 80
1, 87953, Note_on_c, 0, 64, 0
1, 87960, Note_on_c, 0, 64, 80
1, 88073, Note_on_c, 0, 64, 0
1, 88080, Note_on_c, 0, 67, 80
1, 88193, Note_on_c, 0, 67, 0
1, 88200, Note_on_c, 0, 67, 80
1, 88313, Note_on_c, 0, 67, 0
1, 88320, Note_on_c, 0, 67, 80
1, 89231, Note_on_c, 0, 67, 0
1, 89520, Note_on_c, 0, 72, 80
1, 89633, Note_on_c, 0, 72, 0
1, 89640, Note_on_c, 0, 69, 80
1, 89753, Note_on_c, 0, 69, 0
1, 89760, Note_on_c, 0, 72, 80
1, 89873, Note_on_c, 0, 72, 0
1, 89880, Note_on_c, 0, 74, 80
1, 89993, Note_on_c, 0, 74, 0
1, 90000, Note_on_c, 0, 76, 80
1, 90227, Note_on_c, 0, 76, 0
1, 90240, Note_on_c, 0, 67, 80
1, 90240, Note_on_c, 0, 74, 80
1, 91265, Note_on_c, 0, 67, 0
1, 91265, Note_on_c, 0, 74, 0
1, 91440, Note_on_c, 0, 74, 80
1, 91553, Note_on_c, 0, 74, 0
1, 91560, Note_on_c, 0, 74, 80
1, 91673, Note_on_c, 0, 74, 0
1, 91680, Note_on_c, 0, 74, 80
1, 91793, Note_on_c, 0, 74, 0
1, 91800, Note_on_c, 0, 74, 80
1, 91913, Note_on_c, 0, 74, 0
1, 91920, Note_on_c, 0, 74, 80
1, 92033, Note_on_c, 0, 74, 0
1, 92040, Note_on_c, 0, 76, 80
1, 92153, Note_on_c, 0, 76, 0
1, 92160, Note_on_c, 0, 69, 80
1, 92160, Note_on_c, 0, 72, 80
1, 92160, Note_on_c, 0, 76, 80
1, 93983, Note_on_c, 0, 69, 0
1, 93983, Note_on_c, 0, 72, 0
1, 93983, Note_on_c, 0, 76, 0
1, 94800, Note_on_c, 0, 79, 80
1, 95027, Note_on_c, 0, 79, 0
1, 95040, Note_on_c, 0, 79, 80
1, 95381, Note_on_c, 0, 79, 0
1, 95400, Note_on_c, 0, 76, 80
1, 95741, Note_on_c, 0, 76, 0
1, 95760, Note_on_c, 0, 76, 80
1, 95987, Note_on_c, 0, 76, 0
1, 96600, Note_on_c, 0, 81, 80
1, 96941, Note_on_c, 0, 81, 0
1, 96960, Note_on_c, 0, 79, 80
1, 97301, Note_on_c, 0, 79, 0
1, 97320, Note_on_c, 0, 76, 80
1, 97661, Note_on_c, 0, 76, 0
1, 97680, Note_on_c, 0, 76, 80
1, 97907, Note_on_c, 0, 76, 0
1, 97920, Note_on_c, 0, 76, 80
1, 98603, Note_on_c, 0, 76, 0
1, 98640, Note_on_c, 0, 79, 80
1, 98867, Note_on_c, 0, 79, 0
1, 98880, Note_on_c, 0, 76, 80
1, 99221, Note_on_c, 0, 76, 0
1, 99240, Note_on_c, 0, 79, 80
1, 99581, Note_on_c, 0, 79, 0
1, 99600, Note_on_c, 0, 69, 80
1, 101651, Note_on_c, 0, 69, 0
1, 102480, Note_on_c, 0, 79, 80
1, 102707, Note_on_c, 0, 79, 0
1, 102720, Note_on_c, 0, 79, 80
1, 103061, Note_on_c, 0, 79, 0
1, 103080, Note_on_c, 0, 76, 80
1, 103421, Note_on_c, 0, 76, 0
1, 103440, Note_on_c, 0, 76, 80
1, 103667, Note_on_c, 0, 76, 0
1, 104280, Note_on_c, 0, 81, 80
1, 104621, Note_on_c, 0, 81, 0
1, 104640, Note_on_c, 0, 79, 80
1, 104981, Note_on_c, 0, 79, 0
1, 105000, Note_on_c, 0, 76, 80
1, 105341, Note_on_c, 0, 76, 0
1, 105360, Note_on_c, 0, 76, 80
1, 105587, Note_on_c, 0, 76, 0
1, 105600, Note_on_c, 0, 76, 80
1, 106283, Note_on_c, 0, 76, 0
1, 106320, Note_on_c, 0, 79, 80
1, 106547, Note_on_c, 0, 79, 0
1, 106560, Note_on_c, 0, 76, 80
1, 106901, Note_on_c, 0, 76, 0
1, 106920, Note_on_c, 0, 79, 80
1, 107261, Note_on_c, 0, 79, 0
1, 107280, Note_on_c, 0, 69, 80
1, 109331, Note_on_c, 0, 69, 0
1, 110160, Note_on_c, 0, 79, 80
1, 110387, Note_on_c, 0, 79, 0
1, 110400, Note_on_c, 0, 79, 80
1, 110741, Note_on_c, 0, 79, 0
1, 110760, Note_on_c, 0, 76, 80
1, 111101, Note_on_c, 0, 76, 0
1, 111120, Note_on_c, 0, 76, 80
1, 111917, Note_on_c, 0, 76, 0
1, 111960, Note_on_c, 0, 81, 80
1, 112301, Note_on_c, 0, 81, 0
1, 112320, Note_on_c, 0, 79, 80
1, 112661, Note_on_c, 0, 79, 0
1, 112680, Note_on_c, 0, 76, 80
1, 113021, Note_on_c, 0, 76, 0
1, 113040, Note_on_c, 0, 76, 80
1, 113267, Note_on_c, 0, 76, 0
1, 113280, Note_on_c, 0, 76, 80
1, 113963, Note_on_c, 0, 76, 0
1, 114000, Note_on_c, 0, 79, 80
1, 114227, Note_on_c, 0, 79, 0
1, 114240, Note_on_c, 0, 76, 80
1, 114581, Note_on_c, 0, 76, 0
1, 114600, Note_on_c, 0, 79, 80
1, 114941, Note_on_c, 0, 79, 0
1, 114960, Note_on_c, 0, 69, 80
1, 117695, Note_on_c, 0, 69, 0
1, 117840, Note_on_c, 0, 79, 80
1, 118067, Note_on_c, 0, 79, 0
1, 118080, Note_on_c, 0, 79, 80
1, 118421, Note_on_c, 0, 79, 0
1, 118440, Note_on_c, 0, 76, 80
1, 118781, Note_on_c, 0, 76, 0
1, 118800, Note_on_c, 0, 76, 80
1, 119597, Note_on_c, 0, 76, 0
1, 119640, Note_on_c, 0, 81, 80
1, 119981, Note_on_c, 0, 81, 0
1, 120000, Note_on_c, 0, 79, 80
1, 120341, Note_on_c, 0, 79, 0
1, 120360, Note_on_c, 0, 76, 80
1, 120701, Note_on_c, 0, 76, 0
1, 120720, Note_on_c, 0, 76, 80
1, 120947, Note_on_c, 0, 76, 0
1, 120960, Note_on_c, 0, 76, 80
1, 121643, Note_on_c, 0, 76, 0
1, 121680, Note_on_c, 0, 79, 80
1, 121907, Note_on_c, 0, 79, 0
1, 121920, Note_on_c, 0, 76, 80
1, 122261, Note_on_c, 0, 76, 0
1, 122280, Note_on_c, 0, 79, 80
1, 122621, Note_on_c, 0, 79, 0
1, 122640, Note_on_c, 0, 69, 80
1, 124691, Note_on_c, 0, 69, 0
1, 124692, End_track
2, 0, Start_track
2, 0, Title_t, "Piano, Piano\000"
2, 0, Key_signature, 0, "major"
2, 0, MIDI_port, 0
2, 0, Note_on_c, 0, 60, 80
2, 0, Note_on_c, 0, 64, 80
2, 0, Note_on_c, 0, 67, 80
2, 1823, Note_on_c, 0, 60, 0
2, 1823, Note_on_c, 0, 64, 0
2, 1823, Note_on_c, 0, 67, 0
2, 1920, Note_on_c, 0, 57, 80
2, 1920, Note_on_c, 0, 60, 80
2, 1920, Note_on_c, 0, 64, 80
2, 3743, Note_on_c, 0, 57, 0
2, 3743, Note_on_c, 0, 60, 0
2, 3743, Note_on_c, 0, 64, 0
2, 3840, Note_on_c, 0, 55, 80
2, 3840, Note_on_c, 0, 59, 80
2, 3840, Note_on_c, 0, 62, 80
2, 5663, Note_on_c, 0, 55, 0
2, 5663, Note_on_c, 0, 59, 0
2, 5663, Note_on_c, 0, 62, 0
2, 5760, Note_on_c, 0, 57, 80
2, 5760, Note_on_c, 0, 60, 80
2, 5760, Note_on_c, 0, 53, 80
2, 7127, Note_on_c, 0, 57, 0
2, 7127, Note_on_c, 0, 60, 0
2, 7583, Note_on_c, 0, 53, 0
2, 7680, Note_on_c, 0, 60, 80
2, 8021, Note_on_c, 0, 60, 0
2, 8040, Note_on_c, 0, 64, 80
2, 8381, Note_on_c, 0, 64, 0
2, 8400, Note_on_c, 0, 67, 80
2, 8627, Note_on_c, 0, 67, 0
2, 8880, Note_on_c, 0, 60, 80
2, 9107, Note_on_c, 0, 60, 0
2, 9120, Note_on_c, 0, 67, 80
2, 9347, Note_on_c, 0, 67, 0
2, 9360, Note_on_c, 0, 60, 80
2, 9587, Note_on_c, 0, 60, 0
2, 9600, Note_on_c, 0, 57, 80
2, 9941, Note_on_c, 0, 57, 0
2, 9960, Note_on_c, 0, 60, 80
2, 10301, Note_on_c, 0, 60, 0
2, 10320, Note_on_c, 0, 64, 80
2, 10547, Note_on_c, 0, 64, 0
2, 10560, Note_on_c, 0, 67, 80
2, 11015, Note_on_c, 0, 67, 0
2, 11040, Note_on_c, 0, 60, 80
2, 11267, Note_on_c, 0, 60, 0
2, 11280, Note_on_c, 0, 57, 80
2, 11507, Note_on_c, 0, 57, 0
2, 11520, Note_on_c, 0, 52, 80
2, 11861, Note_on_c, 0, 52, 0
2, 11880, Note_on_c, 0, 59, 80
2, 12221, Note_on_c, 0, 59, 0
2, 12240, Note_on_c, 0, 62, 80
2, 12467, Note_on_c, 0, 62, 0
2, 12480, Note_on_c, 0, 59, 80
2, 12935, Note_on_c, 0, 59, 0
2, 12960, Note_on_c, 0, 62, 80
2, 13187, Note_on_c, 0, 62, 0
2, 13200, Note_on_c, 0, 52, 80
2, 13427, Note_on_c, 0, 52, 0
2, 13440, Note_on_c, 0, 53, 80
2, 13781, Note_on_c, 0, 53, 0
2, 13800, Note_on_c, 0, 60, 80
2, 14141, Note_on_c, 0, 60, 0
2, 14160, Note_on_c, 0, 64, 80
2, 14615, Note_on_c, 0, 64, 0
2, 14640, Note_on_c, 0, 60, 80
2, 14867, Note_on_c, 0, 60, 0
2, 14880, Note_on_c, 0, 64, 80
2, 15107, Note_on_c, 0, 64, 0
2, 15120, Note_on_c, 0, 53, 80
2, 15347, Note_on_c, 0, 53, 0
2, 15360, Note_on_c, 0, 48, 80
2, 15701, Note_on_c, 0, 48, 0
2, 15720, Note_on_c, 0, 55, 80
2, 15720, Note_on_c, 0, 60, 80
2, 16061, Note_on_c, 0, 55, 0
2, 16061, Note_on_c, 0, 60, 0
2, 16080, Note_on_c, 0, 60, 80
2, 16307, Note_on_c, 0, 60, 0
2, 16320, Note_on_c, 0, 64, 80
2, 16547, Note_on_c, 0, 64, 0
2, 16560, Note_on_c, 0, 55, 80
2, 16787, Note_on_c, 0, 55, 0
2, 16800, Note_on_c, 0, 60, 80
2, 17027, Note_on_c, 0, 60, 0
2, 17040, Note_on_c, 0, 48, 80
2, 17267, Note_on_c, 0, 48, 0
2, 17280, Note_on_c, 0, 57, 80
2, 17621, Note_on_c, 0, 57, 0
2, 17640, Note_on_c, 0, 52, 80
2, 17867, Note_on_c, 0, 52, 0
2, 17880, Note_on_c, 0, 57, 80
2, 18221, Note_on_c, 0, 57, 0
2, 18240, Note_on_c, 0, 60, 80
2, 18467, Note_on_c, 0, 60, 0
2, 18480, Note_on_c, 0, 52, 80
2, 18707, Note_on_c, 0, 52, 0
2, 18720, Note_on_c, 0, 57, 80
2, 18947, Note_on_c, 0, 57, 0
2, 18960, Note_on_c, 0, 52, 80
2, 19187, Note_on_c, 0, 52, 0
2, 19200, Note_on_c, 0, 52, 80
2, 19541, Note_on_c, 0, 52, 0
2, 19560, Note_on_c, 0, 52, 80
2, 19560, Note_on_c, 0, 55, 80
2, 19560, Note_on_c, 0, 59, 80
2, 19901, Note_on_c, 0, 52, 0
2, 19901, Note_on_c, 0, 55, 0
2, 19901, Note_on_c, 0, 59, 0
2, 19920, Note_on_c, 0, 62, 80
2, 20147, Note_on_c, 0, 62, 0
2, 20160, Note_on_c, 0, 55, 80
2, 20160, Note_on_c, 0, 59, 80
2, 20615, Note_on_c, 0, 55, 0
2, 20615, Note_on_c, 0, 59, 0
2, 20640, Note_on_c, 0, 52, 80
2, 20640, Note_on_c, 0, 55, 80
2, 20640, Note_on_c, 0, 59, 80
2, 20867, Note_on_c, 0, 52, 0
2, 20867, Note_on_c, 0, 55, 0
2, 20867, Note_on_c, 0, 59, 0
2, 20880, Note_on_c, 0, 52, 80
2, 21107, Note_on_c, 0, 52, 0
2, 21120, Note_on_c, 0, 53, 80
2, 21461, Note_on_c, 0, 53, 0
2, 21480, Note_on_c, 0, 53, 80
2, 21480, Note_on_c, 0, 57, 80
2, 21480, Note_on_c, 0, 60, 80
2, 21821, Note_on_c, 0, 53, 0
2, 21821, Note_on_c, 0, 57, 0
2, 21821, Note_on_c, 0, 60, 0
2, 21840, Note_on_c, 0, 57, 80
2, 21840, Note_on_c, 0, 60, 80
2, 21840, Note_on_c, 0, 65, 80
2, 22295, Note_on_c, 0, 57, 0
2, 22295, Note_on_c, 0, 60, 0
2, 22295, Note_on_c, 0, 65, 0
2, 22320, Note_on_c, 0, 53, 80
2, 22320, Note_on_c, 0, 60, 80
2, 22547, Note_on_c, 0, 53, 0
2, 22547, Note_on_c, 0, 60, 0
2, 22560, Note_on_c, 0, 65, 80
2, 22787, Note_on_c, 0, 65, 0
2, 22800, Note_on_c, 0, 53, 80
2, 22800, Note_on_c, 0, 60, 80
2, 23027, Note_on_c, 0, 53, 0
2, 23027, Note_on_c, 0, 60, 0
2, 23040, Note_on_c, 0, 48, 80
2, 23381, Note_on_c, 0, 48, 0
2, 23400, Note_on_c, 0, 55, 80
2, 23400, Note_on_c, 0, 60, 80
2, 23741, Note_on_c, 0, 55, 0
2, 23741, Note_on_c, 0, 60, 0
2, 23760, Note_on_c, 0, 60, 80
2, 23987, Note_on_c, 0, 60, 0
2, 24000, Note_on_c, 0, 64, 80
2, 24227, Note_on_c, 0, 64, 0
2, 24240, Note_on_c, 0, 55, 80
2, 24467, Note_on_c, 0, 55, 0
2, 24480, Note_on_c, 0, 60, 80
2, 24707, Note_on_c, 0, 60, 0
2, 24720, Note_on_c, 0, 48, 80
2, 24947, Note_on_c, 0, 48, 0
2, 24960, Note_on_c, 0, 57, 80
2, 25301, Note_on_c, 0, 57, 0
2, 25320, Note_on_c, 0, 52, 80
2, 25547, Note_on_c, 0, 52, 0
2, 25560, Note_on_c, 0, 57, 80
2, 25901, Note_on_c, 0, 57, 0
2, 25920, Note_on_c, 0, 60, 80
2, 26147, Note_on_c, 0, 60, 0
2, 26160, Note_on_c, 0, 52, 80
2, 26387, Note_on_c, 0, 52, 0
2, 26400, Note_on_c, 0, 57, 80
2, 26627, Note_on_c, 0, 57, 0
2, 26640, Note_on_c, 0, 52, 80
2, 26867, Note_on_c, 0, 52, 0
2, 26880, Note_on_c, 0, 52, 80
2, 27221, Note_on_c, 0, 52, 0
2, 27240, Note_on_c, 0, 55, 80
2, 27240, Note_on_c, 0, 59, 80
2, 27581, Note_on_c, 0, 55, 0
2, 27581, Note_on_c, 0, 59, 0
2, 27600, Note_on_c, 0, 62, 80
2, 27827, Note_on_c, 0, 62, 0
2, 27840, Note_on_c, 0, 55, 80
2, 27840, Note_on_c, 0, 59, 80
2, 28067, Note_on_c, 0, 55, 0
2, 28067, Note_on_c, 0, 59, 0
2, 28080, Note_on_c, 0, 62, 80
2, 28307, Note_on_c, 0, 62, 0
2, 28320, Note_on_c, 0, 52, 80
2, 28320, Note_on_c, 0, 55, 80
2, 28320, Note_on_c, 0, 59, 80
2, 28547, Note_on_c, 0, 52, 0
2, 28547, Note_on_c, 0, 55, 0
2, 28547, Note_on_c, 0, 59, 0
2, 28560, Note_on_c, 0, 52, 80
2, 28787, Note_on_c, 0, 52, 0
2, 28800, Note_on_c, 0, 53, 80
2, 29141, Note_on_c, 0, 53, 0
2, 29160, Note_on_c, 0, 53, 80
2, 29160, Note_on_c, 0, 57, 80
2, 29160, Note_on_c, 0, 60, 80
2, 29501, Note_on_c, 0, 53, 0
2, 29501, Note_on_c, 0, 57, 0
2, 29501, Note_on_c, 0, 60, 0
2, 29520, Note_on_c, 0, 60, 80
2, 29520, Note_on_c, 0, 65, 80
2, 29975, Note_on_c, 0, 60, 0
2, 29975, Note_on_c, 0, 65, 0
2, 30000, Note_on_c, 0, 53, 80
2, 30000, Note_on_c, 0, 60, 80
2, 30227, Note_on_c, 0, 53, 0
2, 30227, Note_on_c, 0, 60, 0
2, 30240, Note_on_c, 0, 65, 80
2, 30467, Note_on_c, 0, 65, 0
2, 30480, Note_on_c, 0, 53, 80
2, 30480, Note_on_c, 0, 60, 80
2, 30707, Note_on_c, 0, 53, 0
2, 30707, Note_on_c, 0, 60, 0
2, 32640, Note_on_c, 0, 48, 80
2, 32981, Note_on_c, 0, 48, 0
2, 33000, Note_on_c, 0, 55, 80
2, 33000, Note_on_c, 0, 60, 80
2, 33341, Note_on_c, 0, 55, 0
2, 33341, Note_on_c, 0, 60, 0
2, 33360, Note_on_c, 0, 60, 80
2, 33360, Note_on_c, 0, 67, 80
2, 33587, Note_on_c, 0, 60, 0
2, 33960, Note_on_c, 0, 48, 80
2, 33960, Note_on_c, 0, 55, 80
2, 34301, Note_on_c, 0, 48, 0
2, 34301, Note_on_c, 0, 55, 0
2, 34320, Note_on_c, 0, 60, 80
2, 34385, Note_on_c, 0, 67, 0
2, 34547, Note_on_c, 0, 60, 0
2, 34560, Note_on_c, 0, 57, 80
2, 34901, Note_on_c, 0, 57, 0
2, 34920, Note_on_c, 0, 52, 80
2, 35261, Note_on_c, 0, 52, 0
2, 35280, Note_on_c, 0, 52, 80
2, 35280, Note_on_c, 0, 57, 80
2, 35507, Note_on_c, 0, 52, 0
2, 35507, Note_on_c, 0, 57, 0
2, 35520, Note_on_c, 0, 60, 80
2, 35747, Note_on_c, 0, 60, 0
2, 35760, Note_on_c, 0, 55, 80
2, 35987, Note_on_c, 0, 55, 0
2, 36000, Note_on_c, 0, 57, 80
2, 36227, Note_on_c, 0, 57, 0
2, 36240, Note_on_c, 0, 55, 80
2, 36467, Note_on_c, 0, 55, 0
2, 36480, Note_on_c, 0, 52, 80
2, 36821, Note_on_c, 0, 52, 0
2, 36840, Note_on_c, 0, 55, 80
2, 36840, Note_on_c, 0, 59, 80
2, 37181, Note_on_c, 0, 55, 0
2, 37181, Note_on_c, 0, 59, 0
2, 37200, Note_on_c, 0, 62, 80
2, 37427, Note_on_c, 0, 62, 0
2, 37440, Note_on_c, 0, 55, 80
2, 37440, Note_on_c, 0, 59, 80
2, 37895, Note_on_c, 0, 55, 0
2, 37895, Note_on_c, 0, 59, 0
2, 37920, Note_on_c, 0, 55, 80
2, 37920, Note_on_c, 0, 59, 80
2, 38147, Note_on_c, 0, 55, 0
2, 38147, Note_on_c, 0, 59, 0
2, 38160, Note_on_c, 0, 52, 80
2, 38387, Note_on_c, 0, 52, 0
2, 38400, Note_on_c, 0, 53, 80
2, 38741, Note_on_c, 0, 53, 0
2, 38760, Note_on_c, 0, 53, 80
2, 38760, Note_on_c, 0, 60, 80
2, 39101, Note_on_c, 0, 53, 0
2, 39101, Note_on_c, 0, 60, 0
2, 39120, Note_on_c, 0, 60, 80
2, 39120, Note_on_c, 0, 65, 80
2, 39575, Note_on_c, 0, 60, 0
2, 39575, Note_on_c, 0, 65, 0
2, 39600, Note_on_c, 0, 53, 80
2, 39600, Note_on_c, 0, 60, 80
2, 39827, Note_on_c, 0, 53, 0
2, 39827, Note_on_c, 0, 60, 0
2, 39840, Note_on_c, 0, 65, 80
2, 40067, Note_on_c, 0, 65, 0
2, 40080, Note_on_c, 0, 53, 80
2, 40307, Note_on_c, 0, 53, 0
2, 40320, Note_on_c, 0, 48, 80
2, 40680, Note_on_c, 0, 52, 80
2, 40775, Note_on_c, 0, 48, 0
2, 40800, Note_on_c, 0, 60, 80
2, 41021, Note_on_c, 0, 52, 0
2, 41027, Note_on_c, 0, 60, 0
2, 41040, Note_on_c, 0, 60, 80
2, 41267, Note_on_c, 0, 60, 0
2, 41280, Note_on_c, 0, 48, 80
2, 41280, Note_on_c, 0, 55, 80
2, 41621, Note_on_c, 0, 48, 0
2, 41621, Note_on_c, 0, 55, 0
2, 41640, Note_on_c, 0, 48, 80
2, 41640, Note_on_c, 0, 55, 80
2, 41753, Note_on_c, 0, 48, 0
2, 41753, Note_on_c, 0, 55, 0
2, 41760, Note_on_c, 0, 60, 80
2, 41987, Note_on_c, 0, 60, 0
2, 42000, Note_on_c, 0, 48, 80
2, 42227, Note_on_c, 0, 48, 0
2, 42240, Note_on_c, 0, 57, 80
2, 42581, Note_on_c, 0, 57, 0
2, 42600, Note_on_c, 0, 52, 80
2, 42941, Note_on_c, 0, 52, 0
2, 42960, Note_on_c, 0, 52, 80
2, 42960, Note_on_c, 0, 57, 80
2, 43415, Note_on_c, 0, 52, 0
2, 43415, Note_on_c, 0, 57, 0
2, 43440, Note_on_c, 0, 52, 80
2, 43667, Note_on_c, 0, 52, 0
2, 43680, Note_on_c, 0, 60, 80
2, 43907, Note_on_c, 0, 60, 0
2, 43920, Note_on_c, 0, 52, 80
2, 44147, Note_on_c, 0, 52, 0
2, 44160, Note_on_c, 0, 52, 80
2, 44501, Note_on_c, 0, 52, 0
2, 44520, Note_on_c, 0, 52, 80
2, 44520, Note_on_c, 0, 55, 80
2, 44520, Note_on_c, 0, 59, 80
2, 44861, Note_on_c, 0, 52, 0
2, 44861, Note_on_c, 0, 55, 0
2, 44861, Note_on_c, 0, 59, 0
2, 44880, Note_on_c, 0, 62, 80
2, 45107, Note_on_c, 0, 62, 0
2, 45120, Note_on_c, 0, 55, 80
2, 45120, Note_on_c, 0, 59, 80
2, 45461, Note_on_c, 0, 55, 0
2, 45461, Note_on_c, 0, 59, 0
2, 45480, Note_on_c, 0, 52, 80
2, 45480, Note_on_c, 0, 55, 80
2, 45480, Note_on_c, 0, 59, 80
2, 45821, Note_on_c, 0, 52, 0
2, 45821, Note_on_c, 0, 55, 0
2, 45821, Note_on_c, 0, 59, 0
2, 45840, Note_on_c, 0, 52, 80
2, 45840, Note_on_c, 0, 55, 80
2, 45840, Note_on_c, 0, 59, 80
2, 46067, Note_on_c, 0, 52, 0
2, 46067, Note_on_c, 0, 55, 0
2, 46067, Note_on_c, 0, 59, 0
2, 46080, Note_on_c, 0, 53, 80
2, 46421, Note_on_c, 0, 53, 0
2, 46440, Note_on_c, 0, 53, 80
2, 46440, Note_on_c, 0, 57, 80
2, 46440, Note_on_c, 0, 60, 80
2, 46781, Note_on_c, 0, 53, 0
2, 46781, Note_on_c, 0, 57, 0
2, 46781, Note_on_c, 0, 60, 0
2, 46800, Note_on_c, 0, 57, 80
2, 46800, Note_on_c, 0, 60, 80
2, 47255, Note_on_c, 0, 57, 0
2, 47255, Note_on_c, 0, 60, 0
2, 47280, Note_on_c, 0, 57, 80
2, 47280, Note_on_c, 0, 60, 80
2, 47507, Note_on_c, 0, 57, 0
2, 47507, Note_on_c, 0, 60, 0
2, 47520, Note_on_c, 0, 65, 80
2, 47747, Note_on_c, 0, 65, 0
2, 47760, Note_on_c, 0, 53, 80
2, 47760, Note_on_c, 0, 57, 80
2, 47987, Note_on_c, 0, 53, 0
2, 47987, Note_on_c, 0, 57, 0
2, 48000, Note_on_c, 0, 48, 80
2, 48341, Note_on_c, 0, 48, 0
2, 48360, Note_on_c, 0, 55, 80
2, 48360, Note_on_c, 0, 60, 80
2, 48701, Note_on_c, 0, 55, 0
2, 48701, Note_on_c, 0, 60, 0
2, 48720, Note_on_c, 0, 55, 80
2, 48720, Note_on_c, 0, 60, 80
2, 48947, Note_on_c, 0, 55, 0
2, 48947, Note_on_c, 0, 60, 0
2, 48960, Note_on_c, 0, 60, 80
2, 49301, Note_on_c, 0, 60, 0
2, 49320, Note_on_c, 0, 55, 80
2, 49433, Note_on_c, 0, 55, 0
2, 49440, Note_on_c, 0, 60, 80
2, 49667, Note_on_c, 0, 60, 0
2, 49680, Note_on_c, 0, 48, 80
2, 49907, Note_on_c, 0, 48, 0
2, 49920, Note_on_c, 0, 57, 80
2, 50261, Note_on_c, 0, 57, 0
2, 50280, Note_on_c, 0, 52, 80
2, 50280, Note_on_c, 0, 57, 80
2, 50621, Note_on_c, 0, 52, 0
2, 50621, Note_on_c, 0, 57, 0
2, 50640, Note_on_c, 0, 52, 80
2, 50640, Note_on_c, 0, 60, 80
2, 51095, Note_on_c, 0, 52, 0
2, 51095, Note_on_c, 0, 60, 0
2, 51120, Note_on_c, 0, 52, 80
2, 51120, Note_on_c, 0, 57, 80
2, 51347, Note_on_c, 0, 52, 0
2, 51347, Note_on_c, 0, 57, 0
2, 51360, Note_on_c, 0, 60, 80
2, 51587, Note_on_c, 0, 60, 0
2, 51600, Note_on_c, 0, 52, 80
2, 51600, Note_on_c, 0, 57, 80
2, 51827, Note_on_c, 0, 52, 0
2, 51827, Note_on_c, 0, 57, 0
2, 51840, Note_on_c, 0, 52, 80
2, 52181, Note_on_c, 0, 52, 0
2, 52200, Note_on_c, 0, 55, 80
2, 52200, Note_on_c, 0, 59, 80
2, 52541, Note_on_c, 0, 55, 0
2, 52541, Note_on_c, 0, 59, 0
2, 52560, Note_on_c, 0, 55, 80
2, 52560, Note_on_c, 0, 59, 80
2, 53015, Note_on_c, 0, 55, 0
2, 53015, Note_on_c, 0, 59, 0
2, 53040, Note_on_c, 0, 55, 80
2, 53040, Note_on_c, 0, 59, 80
2, 53267, Note_on_c, 0, 55, 0
2, 53267, Note_on_c, 0, 59, 0
2, 53280, Note_on_c, 0, 62, 80
2, 53507, Note_on_c, 0, 62, 0
2, 53520, Note_on_c, 0, 52, 80
2, 53520, Note_on_c, 0, 55, 80
2, 53520, Note_on_c, 0, 59, 80
2, 53747, Note_on_c, 0, 52, 0
2, 53747, Note_on_c, 0, 55, 0
2, 53747, Note_on_c, 0, 59, 0
2, 53760, Note_on_c, 0, 53, 80
2, 54101, Note_on_c, 0, 53, 0
2, 54120, Note_on_c, 0, 53, 80
2, 54120, Note_on_c, 0, 57, 80
2, 54120, Note_on_c, 0, 60, 80
2, 54461, Note_on_c, 0, 53, 0
2, 54461, Note_on_c, 0, 57, 0
2, 54461, Note_on_c, 0, 60, 0
2, 54480, Note_on_c, 0, 57, 80
2, 54480, Note_on_c, 0, 60, 80
2, 54935, Note_on_c, 0, 57, 0
2, 54935, Note_on_c, 0, 60, 0
2, 54960, Note_on_c, 0, 57, 80
2, 54960, Note_on_c, 0, 60, 80
2, 55187, Note_on_c, 0, 57, 0
2, 55187, Note_on_c, 0, 60, 0
2, 55200, Note_on_c, 0, 65, 80
2, 55427, Note_on_c, 0, 65, 0
2, 55440, Note_on_c, 0, 53, 80
2, 55440, Note_on_c, 0, 57, 80
2, 55667, Note_on_c, 0, 53, 0
2, 55667, Note_on_c, 0, 57, 0
2, 55680, Note_on_c, 0, 48, 80
2, 56135, Note_on_c, 0, 48, 0
2, 56160, Note_on_c, 0, 55, 80
2, 56160, Note_on_c, 0, 60, 80
2, 56160, Note_on_c, 0, 64, 80
2, 57527, Note_on_c, 0, 55, 0
2, 57527, Note_on_c, 0, 60, 0
2, 57527, Note_on_c, 0, 64, 0
2, 57600, Note_on_c, 0, 57, 80
2, 58055, Note_on_c, 0, 57, 0
2, 58080, Note_on_c, 0, 57, 80
2, 58080, Note_on_c, 0, 60, 80
2, 58080, Note_on_c, 0, 64, 80
2, 59447, Note_on_c, 0, 57, 0
2, 59447, Note_on_c, 0, 60, 0
2, 59447, Note_on_c, 0, 64, 0
2, 59520, Note_on_c, 0, 52, 80
2, 59975, Note_on_c, 0, 52, 0
2, 60000, Note_on_c, 0, 59, 80
2, 60000, Note_on_c, 0, 62, 80
2, 60000, Note_on_c, 0, 67, 80
2, 61367, Note_on_c, 0, 59, 0
2, 61367, Note_on_c, 0, 62, 0
2, 61367, Note_on_c, 0, 67, 0
2, 61440, Note_on_c, 0, 53, 80
2, 61895, Note_on_c, 0, 53, 0
2, 61920, Note_on_c, 0, 57, 80
2, 61920, Note_on_c, 0, 60, 80
2, 61920, Note_on_c, 0, 65, 80
2, 63287, Note_on_c, 0, 57, 0
2, 63287, Note_on_c, 0, 60, 0
2, 63287, Note_on_c, 0, 65, 0
2, 63360, Note_on_c, 0, 48, 80
2, 63701, Note_on_c, 0, 48, 0
2, 63720, Note_on_c, 0, 55, 80
2, 63720, Note_on_c, 0, 60, 80
2, 64061, Note_on_c, 0, 55, 0
2, 64061, Note_on_c, 0, 60, 0
2, 64080, Note_on_c, 0, 55, 80
2, 64080, Note_on_c, 0, 60, 80
2, 64535, Note_on_c, 0, 55, 0
2, 64535, Note_on_c, 0, 60, 0
2, 64560, Note_on_c, 0, 48, 80
2, 64787, Note_on_c, 0, 48, 0
2, 64800, Note_on_c, 0, 60, 80
2, 65027, Note_on_c, 0, 60, 0
2, 65040, Note_on_c, 0, 48, 80
2, 65267, Note_on_c, 0, 48, 0
2, 65280, Note_on_c, 0, 57, 80
2, 65621, Note_on_c, 0, 57, 0
2, 65640, Note_on_c, 0, 52, 80
2, 65640, Note_on_c, 0, 57, 80
2, 65867, Note_on_c, 0, 52, 0
2, 65867, Note_on_c, 0, 57, 0
2, 65880, Note_on_c, 0, 52, 80
2, 65880, Note_on_c, 0, 57, 80
2, 66221, Note_on_c, 0, 52, 0
2, 66221, Note_on_c, 0, 57, 0
2, 66240, Note_on_c, 0, 60, 80
2, 66467, Note_on_c, 0, 60, 0
2, 66480, Note_on_c, 0, 52, 80
2, 66707, Note_on_c, 0, 52, 0
2, 66720, Note_on_c, 0, 57, 80
2, 66947, Note_on_c, 0, 57, 0
2, 66960, Note_on_c, 0, 52, 80
2, 67187, Note_on_c, 0, 52, 0
2, 67200, Note_on_c, 0, 52, 80
2, 67541, Note_on_c, 0, 52, 0
2, 67560, Note_on_c, 0, 52, 80
2, 67560, Note_on_c, 0, 55, 80
2, 67560, Note_on_c, 0, 59, 80
2, 67901, Note_on_c, 0, 52, 0
2, 67901, Note_on_c, 0, 55, 0
2, 67901, Note_on_c, 0, 59, 0
2, 67920, Note_on_c, 0, 62, 80
2, 68375, Note_on_c, 0, 62, 0
2, 68400, Note_on_c, 0, 52, 80
2, 68400, Note_on_c, 0, 55, 80
2, 68400, Note_on_c, 0, 59, 80
2, 68627, Note_on_c, 0, 52, 0
2, 68627, Note_on_c, 0, 55, 0
2, 68627, Note_on_c, 0, 59, 0
2, 68640, Note_on_c, 0, 62, 80
2, 68867, Note_on_c, 0, 62, 0
2, 68880, Note_on_c, 0, 52, 80
2, 69107, Note_on_c, 0, 52, 0
2, 69120, Note_on_c, 0, 53, 80
2, 69461, Note_on_c, 0, 53, 0
2, 69480, Note_on_c, 0, 53, 80
2, 69480, Note_on_c, 0, 57, 80
2, 69480, Note_on_c, 0, 60, 80
2, 69821, Note_on_c, 0, 53, 0
2, 69821, Note_on_c, 0, 57, 0
2, 69821, Note_on_c, 0, 60, 0
2, 69840, Note_on_c, 0, 57, 80
2, 69840, Note_on_c, 0, 60, 80
2, 69840, Note_on_c, 0, 65, 80
2, 70295, Note_on_c, 0, 57, 0
2, 70295, Note_on_c, 0, 60, 0
2, 70295, Note_on_c, 0, 65, 0
2, 70320, Note_on_c, 0, 53, 80
2, 70320, Note_on_c, 0, 57, 80
2, 70320, Note_on_c, 0, 60, 80
2, 70547, Note_on_c, 0, 53, 0
2, 70547, Note_on_c, 0, 57, 0
2, 70547, Note_on_c, 0, 60, 0
2, 70800, Note_on_c, 0, 53, 80
2, 70800, Note_on_c, 0, 57, 80
2, 70800, Note_on_c, 0, 60, 80
2, 71027, Note_on_c, 0, 53, 0
2, 71027, Note_on_c, 0, 57, 0
2, 71027, Note_on_c, 0, 60, 0
2, 71040, Note_on_c, 0, 48, 80
2, 71381, Note_on_c, 0, 48, 0
2, 71400, Note_on_c, 0, 55, 80
2, 71400, Note_on_c, 0, 60, 80
2, 71741, Note_on_c, 0, 55, 0
2, 71741, Note_on_c, 0, 60, 0
2, 71760, Note_on_c, 0, 55, 80
2, 71760, Note_on_c, 0, 60, 80
2, 72215, Note_on_c, 0, 55, 0
2, 72215, Note_on_c, 0, 60, 0
2, 72240, Note_on_c, 0, 48, 80
2, 72467, Note_on_c, 0, 48, 0
2, 72480, Note_on_c, 0, 60, 80
2, 72707, Note_on_c, 0, 60, 0
2, 72720, Note_on_c, 0, 48, 80
2, 72947, Note_on_c, 0, 48, 0
2, 72960, Note_on_c, 0, 57, 80
2, 73301, Note_on_c, 0, 57, 0
2, 73320, Note_on_c, 0, 52, 80
2, 73320, Note_on_c, 0, 57, 80
2, 73547, Note_on_c, 0, 52, 0
2, 73547, Note_on_c, 0, 57, 0
2, 73560, Note_on_c, 0, 52, 80
2, 73560, Note_on_c, 0, 57, 80
2, 73901, Note_on_c, 0, 52, 0
2, 73901, Note_on_c, 0, 57, 0
2, 73920, Note_on_c, 0, 60, 80
2, 74147, Note_on_c, 0, 60, 0
2, 74160, Note_on_c, 0, 52, 80
2, 74387, Note_on_c, 0, 52, 0
2, 74400, Note_on_c, 0, 57, 80
2, 74627, Note_on_c, 0, 57, 0
2, 74640, Note_on_c, 0, 52, 80
2, 74867, Note_on_c, 0, 52, 0
2, 74880, Note_on_c, 0, 52, 80
2, 75221, Note_on_c, 0, 52, 0
2, 75240, Note_on_c, 0, 52, 80
2, 75240, Note_on_c, 0, 55, 80
2, 75240, Note_on_c, 0, 59, 80
2, 75581, Note_on_c, 0, 52, 0
2, 75581, Note_on_c, 0, 55, 0
2, 75581, Note_on_c, 0, 59, 0
2, 75600, Note_on_c, 0, 62, 80
2, 76055, Note_on_c, 0, 62, 0
2, 76080, Note_on_c, 0, 52, 80
2, 76080, Note_on_c, 0, 55, 80
2, 76080, Note_on_c, 0, 59, 80
2, 76307, Note_on_c, 0, 52, 0
2, 76307, Note_on_c, 0, 55, 0
2, 76307, Note_on_c, 0, 59, 0
2, 76320, Note_on_c, 0, 62, 80
2, 76547, Note_on_c, 0, 62, 0
2, 76560, Note_on_c, 0, 52, 80
2, 76787, Note_on_c, 0, 52, 0
2, 76800, Note_on_c, 0, 53, 80
2, 77141, Note_on_c, 0, 53, 0
2, 77160, Note_on_c, 0, 53, 80
2, 77160, Note_on_c, 0, 57, 80
2, 77160, Note_on_c, 0, 60, 80
2, 77501, Note_on_c, 0, 53, 0
2, 77501, Note_on_c, 0, 57, 0
2, 77501, Note_on_c, 0, 60, 0
2, 77520, Note_on_c, 0, 57, 80
2, 77520, Note_on_c, 0, 60, 80
2, 77975, Note_on_c, 0, 57, 0
2, 77975, Note_on_c, 0, 60, 0
2, 78000, Note_on_c, 0, 57, 80
2, 78000, Note_on_c, 0, 60, 80
2, 78227, Note_on_c, 0, 57, 0
2, 78227, Note_on_c, 0, 60, 0
2, 78240, Note_on_c, 0, 65, 80
2, 78467, Note_on_c, 0, 65, 0
2, 78480, Note_on_c, 0, 53, 80
2, 78480, Note_on_c, 0, 57, 80
2, 78707, Note_on_c, 0, 53, 0
2, 78707, Note_on_c, 0, 57, 0
2, 78720, Note_on_c, 0, 48, 80
2, 79080, Note_on_c, 0, 52, 80
2, 79175, Note_on_c, 0, 48, 0
2, 79200, Note_on_c, 0, 60, 80
2, 79421, Note_on_c, 0, 52, 0
2, 79427, Note_on_c, 0, 60, 0
2, 79440, Note_on_c, 0, 60, 80
2, 79667, Note_on_c, 0, 60, 0
2, 79680, Note_on_c, 0, 48, 80
2, 79680, Note_on_c, 0, 55, 80
2, 80021, Note_on_c, 0, 48, 0
2, 80021, Note_on_c, 0, 55, 0
2, 80040, Note_on_c, 0, 48, 80
2, 80040, Note_on_c, 0, 55, 80
2, 80153, Note_on_c, 0, 48, 0
2, 80153, Note_on_c, 0, 55, 0
2, 80160, Note_on_c, 0, 60, 80
2, 80387, Note_on_c, 0, 60, 0
2, 80400, Note_on_c, 0, 48, 80
2, 80627, Note_on_c, 0, 48, 0
2, 80640, Note_on_c, 0, 57, 80
2, 80981, Note_on_c, 0, 57, 0
2, 81000, Note_on_c, 0, 52, 80
2, 81000, Note_on_c, 0, 57, 80
2, 81341, Note_on_c, 0, 52, 0
2, 81341, Note_on_c, 0, 57, 0
2, 81360, Note_on_c, 0, 52, 80
2, 81360, Note_on_c, 0, 57, 80
2, 81815, Note_on_c, 0, 52, 0
2, 81815, Note_on_c, 0, 57, 0
2, 81840, Note_on_c, 0, 52, 80
2, 82067, Note_on_c, 0, 52, 0
2, 82080, Note_on_c, 0, 60, 80
2, 82307, Note_on_c, 0, 60, 0
2, 82320, Note_on_c, 0, 52, 80
2, 82547, Note_on_c, 0, 52, 0
2, 82560, Note_on_c, 0, 52, 80
2, 82901, Note_on_c, 0, 52, 0
2, 82920, Note_on_c, 0, 55, 80
2, 82920, Note_on_c, 0, 59, 80
2, 83261, Note_on_c, 0, 55, 0
2, 83261, Note_on_c, 0, 59, 0
2, 83280, Note_on_c, 0, 62, 80
2, 83507, Note_on_c, 0, 62, 0
2, 83520, Note_on_c, 0, 59, 80
2, 83861, Note_on_c, 0, 59, 0
2, 83880, Note_on_c, 0, 55, 80
2, 83880, Note_on_c, 0, 59, 80
2, 84221, Note_on_c, 0, 55, 0
2, 84221, Note_on_c, 0, 59, 0
2, 84240, Note_on_c, 0, 55, 80
2, 84240, Note_on_c, 0, 59, 80
2, 84467, Note_on_c, 0, 55, 0
2, 84467, Note_on_c, 0, 59, 0
2, 84480, Note_on_c, 0, 53, 80
2, 84821, Note_on_c, 0, 53, 0
2, 84840, Note_on_c, 0, 53, 80
2, 84840, Note_on_c, 0, 57, 80
2, 84840, Note_on_c, 0, 60, 80
2, 85181, Note_on_c, 0, 53, 0
2, 85181, Note_on_c, 0, 57, 0
2, 85181, Note_on_c, 0, 60, 0
2, 85200, Note_on_c, 0, 57, 80
2, 85200, Note_on_c, 0, 60, 80
2, 85655, Note_on_c, 0, 57, 0
2, 85655, Note_on_c, 0, 60, 0
2, 85680, Note_on_c, 0, 57, 80
2, 85680, Note_on_c, 0, 60, 80
2, 85907, Note_on_c, 0, 57, 0
2, 85907, Note_on_c, 0, 60, 0
2, 85920, Note_on_c, 0, 65, 80
2, 86147, Note_on_c, 0, 65, 0
2, 86160, Note_on_c, 0, 53, 80
2, 86160, Note_on_c, 0, 57, 80
2, 86387, Note_on_c, 0, 53, 0
2, 86387, Note_on_c, 0, 57, 0
2, 86400, Note_on_c, 0, 48, 80
2, 86741, Note_on_c, 0, 48, 0
2, 86760, Note_on_c, 0, 55, 80
2, 86760, Note_on_c, 0, 60, 80
2, 87101, Note_on_c, 0, 55, 0
2, 87101, Note_on_c, 0, 60, 0
2, 87120, Note_on_c, 0, 55, 80
2, 87120, Note_on_c, 0, 60, 80
2, 87347, Note_on_c, 0, 55, 0
2, 87347, Note_on_c, 0, 60, 0
2, 87360, Note_on_c, 0, 60, 80
2, 87701, Note_on_c, 0, 60, 0
2, 87720, Note_on_c, 0, 55, 80
2, 87833, Note_on_c, 0, 55, 0
2, 87840, Note_on_c, 0, 60, 80
2, 88067, Note_on_c, 0, 60, 0
2, 88080, Note_on_c, 0, 48, 80
2, 88307, Note_on_c, 0, 48, 0
2, 88320, Note_on_c, 0, 57, 80
2, 88661, Note_on_c, 0, 57, 0
2, 88680, Note_on_c, 0, 52, 80
2, 88680, Note_on_c, 0, 57, 80
2, 89021, Note_on_c, 0, 52, 0
2, 89021, Note_on_c, 0, 57, 0
2, 89040, Note_on_c, 0, 52, 80
2, 89040, Note_on_c, 0, 60, 80
2, 89495, Note_on_c, 0, 52, 0
2, 89495, Note_on_c, 0, 60, 0
2, 89520, Note_on_c, 0, 52, 80
2, 89747, Note_on_c, 0, 52, 0
2, 89760, Note_on_c, 0, 60, 80
2, 89987, Note_on_c, 0, 60, 0
2, 90000, Note_on_c, 0, 52, 80
2, 90227, Note_on_c, 0, 52, 0
2, 90240, Note_on_c, 0, 52, 80
2, 90581, Note_on_c, 0, 52, 0
2, 90600, Note_on_c, 0, 52, 80
2, 90600, Note_on_c, 0, 55, 80
2, 90600, Note_on_c, 0, 59, 80
2, 90941, Note_on_c, 0, 52, 0
2, 90941, Note_on_c, 0, 55, 0
2, 90941, Note_on_c, 0, 59, 0
2, 90960, Note_on_c, 0, 55, 80
2, 90960, Note_on_c, 0, 59, 80
2, 91415, Note_on_c, 0, 55, 0
2, 91415, Note_on_c, 0, 59, 0
2, 91440, Note_on_c, 0, 55, 80
2, 91440, Note_on_c, 0, 59, 80
2, 91667, Note_on_c, 0, 55, 0
2, 91667, Note_on_c, 0, 59, 0
2, 91680, Note_on_c, 0, 62, 80
2, 91907, Note_on_c, 0, 62, 0
2, 91920, Note_on_c, 0, 55, 80
2, 91920, Note_on_c, 0, 59, 80
2, 92147, Note_on_c, 0, 55, 0
2, 92147, Note_on_c, 0, 59, 0
2, 92160, Note_on_c, 0, 53, 80
2, 92501, Note_on_c, 0, 53, 0
2, 92520, Note_on_c, 0, 53, 80
2, 92520, Note_on_c, 0, 57, 80
2, 92520, Note_on_c, 0, 60, 80
2, 92861, Note_on_c, 0, 53, 0
2, 92861, Note_on_c, 0, 57, 0
2, 92861, Note_on_c, 0, 60, 0
2, 92880, Note_on_c, 0, 57, 80
2, 92880, Note_on_c, 0, 60, 80
2, 93335, Note_on_c, 0, 57, 0
2, 93335, Note_on_c, 0, 60, 0
2, 93360, Note_on_c, 0, 57, 80
2, 93360, Note_on_c, 0, 60, 80
2, 93587, Note_on_c, 0, 57, 0
2, 93587, Note_on_c, 0, 60, 0
2, 93600, Note_on_c, 0, 65, 80
2, 93827, Note_on_c, 0, 65, 0
2, 93840, Note_on_c, 0, 53, 80
2, 93840, Note_on_c, 0, 60, 80
2, 94067, Note_on_c, 0, 53, 0
2, 94067, Note_on_c, 0, 60, 0
2, 94080, Note_on_c, 0, 48, 80
2, 94421, Note_on_c, 0, 48, 0
2, 94440, Note_on_c, 0, 55, 80
2, 94440, Note_on_c, 0, 60, 80
2, 94781, Note_on_c, 0, 55, 0
2, 94781, Note_on_c, 0, 60, 0
2, 94800, Note_on_c, 0, 55, 80
2, 94800, Note_on_c, 0, 60, 80
2, 95027, Note_on_c, 0, 55, 0
2, 95027, Note_on_c, 0, 60, 0
2, 95400, Note_on_c, 0, 55, 80
2, 95741, Note_on_c, 0, 55, 0
2, 95760, Note_on_c, 0, 48, 80
2, 95987, Note_on_c, 0, 48, 0
2, 96000, Note_on_c, 0, 57, 80
2, 96341, Note_on_c, 0, 57, 0
2, 96360, Note_on_c, 0, 52, 80
2, 96360, Note_on_c, 0, 57, 80
2, 96701, Note_on_c, 0, 52, 0
2, 96701, Note_on_c, 0, 57, 0
2, 96720, Note_on_c, 0, 52, 80
2, 96720, Note_on_c, 0, 57, 80
2, 96947, Note_on_c, 0, 52, 0
2, 96947, Note_on_c, 0, 57, 0
2, 96960, Note_on_c, 0, 60, 80
2, 97301, Note_on_c, 0, 60, 0
2, 97320, Note_on_c, 0, 52, 80
2, 97661, Note_on_c, 0, 52, 0
2, 97680, Note_on_c, 0, 57, 80
2, 97907, Note_on_c, 0, 57, 0
2, 97920, Note_on_c, 0, 52, 80
2, 98261, Note_on_c, 0, 52, 0
2, 98280, Note_on_c, 0, 52, 80
2, 98280, Note_on_c, 0, 55, 80
2, 98280, Note_on_c, 0, 59, 80
2, 98621, Note_on_c, 0, 52, 0
2, 98621, Note_on_c, 0, 55, 0
2, 98621, Note_on_c, 0, 59, 0
2, 98640, Note_on_c, 0, 62, 80
2, 98867, Note_on_c, 0, 62, 0
2, 98880, Note_on_c, 0, 55, 80
2, 98880, Note_on_c, 0, 59, 80
2, 99221, Note_on_c, 0, 55, 0
2, 99221, Note_on_c, 0, 59, 0
2, 99240, Note_on_c, 0, 62, 80
2, 99581, Note_on_c, 0, 62, 0
2, 99600, Note_on_c, 0, 52, 80
2, 99600, Note_on_c, 0, 55, 80
2, 99600, Note_on_c, 0, 59, 80
2, 99827, Note_on_c, 0, 52, 0
2, 99827, Note_on_c, 0, 55, 0
2, 99827, Note_on_c, 0, 59, 0
2, 99840, Note_on_c, 0, 53, 80
2, 100181, Note_on_c, 0, 53, 0
2, 100200, Note_on_c, 0, 53, 80
2, 100200, Note_on_c, 0, 57, 80
2, 100200, Note_on_c, 0, 60, 80
2, 100541, Note_on_c, 0, 53, 0
2, 100541, Note_on_c, 0, 57, 0
2, 100541, Note_on_c, 0, 60, 0
2, 100560, Note_on_c, 0, 57, 80
2, 100560, Note_on_c, 0, 60, 80
2, 100560, Note_on_c, 0, 65, 80
2, 101015, Note_on_c, 0, 57, 0
2, 101015, Note_on_c, 0, 60, 0
2, 101015, Note_on_c, 0, 65, 0
2, 101040, Note_on_c, 0, 53, 80
2, 101040, Note_on_c, 0, 57, 80
2, 101040, Note_on_c, 0, 60, 80
2, 101267, Note_on_c, 0, 53, 0
2, 101267, Note_on_c, 0, 57, 0
2, 101267, Note_on_c, 0, 60, 0
2, 101280, Note_on_c, 0, 65, 80
2, 101507, Note_on_c, 0, 65, 0
2, 101520, Note_on_c, 0, 53, 80
2, 101747, Note_on_c, 0, 53, 0
2, 101760, Note_on_c, 0, 48, 80
2, 102101, Note_on_c, 0, 48, 0
2, 102120, Note_on_c, 0, 55, 80
2, 102461, Note_on_c, 0, 55, 0
2, 102480, Note_on_c, 0, 60, 80
2, 102707, Note_on_c, 0, 60, 0
2, 102720, Note_on_c, 0, 64, 80
2, 103061, Note_on_c, 0, 64, 0
2, 103080, Note_on_c, 0, 55, 80
2, 103421, Note_on_c, 0, 55, 0
2, 103440, Note_on_c, 0, 48, 80
2, 103667, Note_on_c, 0, 48, 0
2, 103680, Note_on_c, 0, 57, 80
2, 104021, Note_on_c, 0, 57, 0
2, 104040, Note_on_c, 0, 52, 80
2, 104381, Note_on_c, 0, 52, 0
2, 104400, Note_on_c, 0, 57, 80
2, 104627, Note_on_c, 0, 57, 0
2, 104640, Note_on_c, 0, 60, 80
2, 104981, Note_on_c, 0, 60, 0
2, 105000, Note_on_c, 0, 52, 80
2, 105341, Note_on_c, 0, 52, 0
2, 105360, Note_on_c, 0, 57, 80
2, 105587, Note_on_c, 0, 57, 0
2, 105600, Note_on_c, 0, 52, 80
2, 105941, Note_on_c, 0, 52, 0
2, 105960, Note_on_c, 0, 55, 80
2, 105960, Note_on_c, 0, 59, 80
2, 106301, Note_on_c, 0, 55, 0
2, 106301, Note_on_c, 0, 59, 0
2, 106320, Note_on_c, 0, 62, 80
2, 106547, Note_on_c, 0, 62, 0
2, 106560, Note_on_c, 0, 55, 80
2, 106560, Note_on_c, 0, 59, 80
2, 106901, Note_on_c, 0, 55, 0
2, 106901, Note_on_c, 0, 59, 0
2, 106920, Note_on_c, 0, 62, 80
2, 107261, Note_on_c, 0, 62, 0
2, 107280, Note_on_c, 0, 55, 80
2, 107280, Note_on_c, 0, 59, 80
2, 107507, Note_on_c, 0, 55, 0
2, 107507, Note_on_c, 0, 59, 0
2, 107520, Note_on_c, 0, 53, 80
2, 107861, Note_on_c, 0, 53, 0
2, 107880, Note_on_c, 0, 57, 80
2, 107880, Note_on_c, 0, 60, 80
2, 108221, Note_on_c, 0, 57, 0
2, 108221, Note_on_c, 0, 60, 0
2, 108240, Note_on_c, 0, 60, 80
2, 108240, Note_on_c, 0, 65, 80
2, 108695, Note_on_c, 0, 60, 0
2, 108695, Note_on_c, 0, 65, 0
2, 108720, Note_on_c, 0, 57, 80
2, 108720, Note_on_c, 0, 60, 80
2, 108947, Note_on_c, 0, 57, 0
2, 108947, Note_on_c, 0, 60, 0
2, 108960, Note_on_c, 0, 65, 80
2, 109187, Note_on_c, 0, 65, 0
2, 109200, Note_on_c, 0, 53, 80
2, 109427, Note_on_c, 0, 53, 0
2, 109440, Note_on_c, 0, 48, 80
2, 109781, Note_on_c, 0, 48, 0
2, 109800, Note_on_c, 0, 55, 80
2, 110141, Note_on_c, 0, 55, 0
2, 110160, Note_on_c, 0, 60, 80
2, 110387, Note_on_c, 0, 60, 0
2, 110400, Note_on_c, 0, 64, 80
2, 110741, Note_on_c, 0, 64, 0
2, 110760, Note_on_c, 0, 55, 80
2, 111101, Note_on_c, 0, 55, 0
2, 111120, Note_on_c, 0, 48, 80
2, 111347, Note_on_c, 0, 48, 0
2, 111360, Note_on_c, 0, 57, 80
2, 111701, Note_on_c, 0, 57, 0
2, 111720, Note_on_c, 0, 52, 80
2, 112061, Note_on_c, 0, 52, 0
2, 112080, Note_on_c, 0, 57, 80
2, 112307, Note_on_c, 0, 57, 0
2, 112320, Note_on_c, 0, 60, 80
2, 112661, Note_on_c, 0, 60, 0
2, 112680, Note_on_c, 0, 52, 80
2, 113021, Note_on_c, 0, 52, 0
2, 113040, Note_on_c, 0, 57, 80
2, 113267, Note_on_c, 0, 57, 0
2, 113280, Note_on_c, 0, 52, 80
2, 113621, Note_on_c, 0, 52, 0
2, 113640, Note_on_c, 0, 55, 80
2, 113640, Note_on_c, 0, 59, 80
2, 113981, Note_on_c, 0, 55, 0
2, 113981, Note_on_c, 0, 59, 0
2, 114000, Note_on_c, 0, 62, 80
2, 114227, Note_on_c, 0, 62, 0
2, 114240, Note_on_c, 0, 55, 80
2, 114240, Note_on_c, 0, 59, 80
2, 114581, Note_on_c, 0, 55, 0
2, 114581, Note_on_c, 0, 59, 0
2, 114600, Note_on_c, 0, 62, 80
2, 114941, Note_on_c, 0, 62, 0
2, 114960, Note_on_c, 0, 55, 80
2, 114960, Note_on_c, 0, 59, 80
2, 115187, Note_on_c, 0, 55, 0
2, 115187, Note_on_c, 0, 59, 0
2, 115200, Note_on_c, 0, 53, 80
2, 115541, Note_on_c, 0, 53, 0
2, 115560, Note_on_c, 0, 57, 80
2, 115560, Note_on_c, 0, 60, 80
2, 115901, Note_on_c, 0, 57, 0
2, 115901, Note_on_c, 0, 60, 0
2, 115920, Note_on_c, 0, 60, 80
2, 115920, Note_on_c, 0, 65, 80
2, 116831, Note_on_c, 0, 60, 0
2, 116831, Note_on_c, 0, 65, 0
2, 117120, Note_on_c, 0, 60, 80
2, 117120, Note_on_c, 0, 64, 80
2, 117120, Note_on_c, 0, 67, 80
2, 118943, Note_on_c, 0, 60, 0
2, 118943, Note_on_c, 0, 64, 0
2, 118943, Note_on_c, 0, 67, 0
2, 119040, Note_on_c, 0, 57, 80
2, 119040, Note_on_c, 0, 60, 80
2, 119040, Note_on_c, 0, 64, 80
2, 120863, Note_on_c, 0, 57, 0
2, 120863, Note_on_c, 0, 60, 0
2, 120863, Note_on_c, 0, 64, 0
2, 120960, Note_on_c, 0, 55, 80
2, 120960, Note_on_c, 0, 59, 80
2, 120960, Note_on_c, 0, 62, 80
2, 122783, Note_on_c, 0, 55, 0
2, 122783, Note_on_c, 0, 59, 0
2, 122783, Note_on_c, 0, 62, 0
2, 122880, Note_on_c, 0, 57, 80
2, 122880, Note_on_c, 0, 60, 80
2, 122880, Note_on_c, 0, 53, 80
2, 124247, Note_on_c, 0, 57, 0
2, 124247, Note_on_c, 0, 60, 0
2, 124703, Note_on_c, 0, 53, 0
2, 124704, End_track
3, 0, Start_track
3, 0, Title_t, "Electric Bass, Bass\000"
3, 0, Key_signature, 0, "major"
3, 0, Control_c, 1, 121, 0
3, 0, Program_c, 1, 33
3, 0, Control_c, 1, 7, 100
3, 0, Control_c, 1, 10, 64
3, 0, Control_c, 1, 91, 0
3, 0, Control_c, 1, 93, 0
3, 0, MIDI_port, 0
3, 0, Control_c, 4, 121, 0
3, 0, Program_c, 4, 36
3, 0, Control_c, 4, 7, 100
3, 0, Control_c, 4, 10, 64
3, 0, Control_c, 4, 91, 0
3, 0, Control_c, 4, 93, 0
3, 0, MIDI_port, 0
3, 0, Control_c, 5, 121, 0
3, 0, Program_c, 5, 37
3, 0, Control_c, 5, 7, 100
3, 0, Control_c, 5, 10, 64
3, 0, Control_c, 5, 91, 0
3, 0, Control_c, 5, 93, 0
3, 0, MIDI_port, 0
3, 15360, Note_on_c, 1, 60, 80
3, 17279, Note_on_c, 1, 60, 0
3, 17280, Note_on_c, 1, 57, 80
3, 19199, Note_on_c, 1, 57, 0
3, 19200, Note_on_c, 1, 52, 80
3, 21119, Note_on_c, 1, 52, 0
3, 21120, Note_on_c, 1, 53, 80
3, 23039, Note_on_c, 1, 53, 0
3, 23040, Note_on_c, 1, 60, 80
3, 23399, Note_on_c, 1, 60, 0
3, 23400, Note_on_c, 1, 60, 80
3, 23879, Note_on_c, 1, 60, 0
3, 24000, Note_on_c, 1, 60, 80
3, 24359, Note_on_c, 1, 60, 0
3, 24360, Note_on_c, 1, 60, 80
3, 24719, Note_on_c, 1, 60, 0
3, 24720, Note_on_c, 1, 60, 80
3, 24959, Note_on_c, 1, 60, 0
3, 24960, Note_on_c, 1, 57, 80
3, 25319, Note_on_c, 1, 57, 0
3, 25320, Note_on_c, 1, 57, 80
3, 25799, Note_on_c, 1, 57, 0
3, 25920, Note_on_c, 1, 57, 80
3, 26879, Note_on_c, 1, 57, 0
3, 26880, Note_on_c, 1, 52, 80
3, 27239, Note_on_c, 1, 52, 0
3, 27240, Note_on_c, 1, 52, 80
3, 27719, Note_on_c, 1, 52, 0
3, 27840, Note_on_c, 1, 52, 80
3, 28799, Note_on_c, 1, 52, 0
3, 28800, Note_on_c, 1, 53, 80
3, 29159, Note_on_c, 1, 53, 0
3, 29160, Note_on_c, 1, 53, 80
3, 29639, Note_on_c, 1, 53, 0
3, 29760, Note_on_c, 1, 53, 80
3, 30719, Note_on_c, 1, 53, 0
3, 32640, Note_on_c, 1, 60, 80
3, 32999, Note_on_c, 1, 60, 0
3, 33000, Note_on_c, 1, 60, 80
3, 33479, Note_on_c, 1, 60, 0
3, 33600, Note_on_c, 1, 60, 80
3, 34559, Note_on_c, 1, 60, 0
3, 34560, Note_on_c, 1, 57, 80
3, 34919, Note_on_c, 1, 57, 0
3, 34920, Note_on_c, 1, 57, 80
3, 35399, Note_on_c, 1, 57, 0
3, 35520, Note_on_c, 1, 57, 80
3, 36479, Note_on_c, 1, 57, 0
3, 36480, Note_on_c, 1, 52, 80
3, 36839, Note_on_c, 1, 52, 0
3, 36840, Note_on_c, 1, 52, 80
3, 37319, Note_on_c, 1, 52, 0
3, 37440, Note_on_c, 1, 52, 80
3, 38399, Note_on_c, 1, 52, 0
3, 38400, Note_on_c, 1, 53, 80
3, 38759, Note_on_c, 1, 53, 0
3, 38760, Note_on_c, 1, 53, 80
3, 39239, Note_on_c, 1, 53, 0
3, 39360, Note_on_c, 1, 53, 80
3, 40319, Note_on_c, 1, 53, 0
3, 40320, Note_on_c, 1, 60, 80
3, 40679, Note_on_c, 1, 60, 0
3, 40680, Note_on_c, 1, 60, 80
3, 41159, Note_on_c, 1, 60, 0
3, 41280, Note_on_c, 1, 60, 80
3, 41639, Note_on_c, 1, 60, 0
3, 41640, Note_on_c, 1, 60, 80
3, 42119, Note_on_c, 1, 60, 0
3, 42240, Note_on_c, 1, 57, 80
3, 42599, Note_on_c, 1, 57, 0
3, 42600, Note_on_c, 1, 57, 80
3, 43079, Note_on_c, 1, 57, 0
3, 43200, Note_on_c, 1, 57, 80
3, 43559, Note_on_c, 1, 57, 0
3, 43560, Note_on_c, 1, 57, 80
3, 44039, Note_on_c, 1, 57, 0
3, 44160, Note_on_c, 1, 52, 80
3, 44519, Note_on_c, 1, 52, 0
3, 44520, Note_on_c, 1, 52, 80
3, 44999, Note_on_c, 1, 52, 0
3, 45120, Note_on_c, 1, 52, 80
3, 45479, Note_on_c, 1, 52, 0
3, 45480, Note_on_c, 1, 52, 80
3, 45959, Note_on_c, 1, 52, 0
3, 46080, Note_on_c, 1, 53, 80
3, 46439, Note_on_c, 1, 53, 0
3, 46440, Note_on_c, 1, 53, 80
3, 46919, Note_on_c, 1, 53, 0
3, 47040, Note_on_c, 1, 53, 80
3, 47399, Note_on_c, 1, 53, 0
3, 47400, Note_on_c, 1, 53, 80
3, 47879, Note_on_c, 1, 53, 0
3, 48000, Note_on_c, 1, 60, 80
3, 48359, Note_on_c, 1, 60, 0
3, 48360, Note_on_c, 1, 60, 80
3, 48839, Note_on_c, 1, 60, 0
3, 48960, Note_on_c, 1, 60, 80
3, 49319, Note_on_c, 1, 60, 0
3, 49320, Note_on_c, 1, 60, 80
3, 49799, Note_on_c, 1, 60, 0
3, 49920, Note_on_c, 1, 57, 80
3, 50279, Note_on_c, 1, 57, 0
3, 50280, Note_on_c, 1, 57, 80
3, 50759, Note_on_c, 1, 57, 0
3, 50880, Note_on_c, 1, 57, 80
3, 51239, Note_on_c, 1, 57, 0
3, 51240, Note_on_c, 1, 57, 80
3, 51719, Note_on_c, 1, 57, 0
3, 51840, Note_on_c, 1, 52, 80
3, 52199, Note_on_c, 1, 52, 0
3, 52200, Note_on_c, 1, 52, 80
3, 52679, Note_on_c, 1, 52, 0
3, 52800, Note_on_c, 1, 52, 80
3, 53159, Note_on_c, 1, 52, 0
3, 53160, Note_on_c, 1, 52, 80
3, 53639, Note_on_c, 1, 52, 0
3, 53760, Note_on_c, 1, 53, 80
3, 54119, Note_on_c, 1, 53, 0
3, 54120, Note_on_c, 1, 53, 80
3, 54599, Note_on_c, 1, 53, 0
3, 54720, Note_on_c, 1, 53, 80
3, 55079, Note_on_c, 1, 53, 0
3, 55080, Note_on_c, 1, 53, 80
3, 55559, Note_on_c, 1, 53, 0
3, 55680, Note_on_c, 1, 60, 80
3, 57599, Note_on_c, 1, 60, 0
3, 57600, Note_on_c, 1, 57, 80
3, 59519, Note_on_c, 1, 57, 0
3, 59520, Note_on_c, 1, 52, 80
3, 61439, Note_on_c, 1, 52, 0
3, 61440, Note_on_c, 1, 53, 80
3, 63359, Note_on_c, 1, 53, 0
3, 63360, Note_on_c, 1, 60, 80
3, 63719, Note_on_c, 1, 60, 0
3, 63720, Note_on_c, 1, 60, 80
3, 64199, Note_on_c, 1, 60, 0
3, 64320, Note_on_c, 1, 60, 80
3, 64679, Note_on_c, 1, 60, 0
3, 64680, Note_on_c, 1, 60, 80
3, 65039, Note_on_c, 1, 60, 0
3, 65040, Note_on_c, 1, 60, 80
3, 65279, Note_on_c, 1, 60, 0
3, 65280, Note_on_c, 1, 57, 80
3, 65639, Note_on_c, 1, 57, 0
3, 65640, Note_on_c, 1, 57, 80
3, 66119, Note_on_c, 1, 57, 0
3, 66240, Note_on_c, 1, 57, 80
3, 66599, Note_on_c, 1, 57, 0
3, 66600, Note_on_c, 1, 57, 80
3, 66959, Note_on_c, 1, 57, 0
3, 66960, Note_on_c, 1, 57, 80
3, 67199, Note_on_c, 1, 57, 0
3, 67200, Note_on_c, 1, 52, 80
3, 67559, Note_on_c, 1, 52, 0
3, 67560, Note_on_c, 1, 52, 80
3, 68039, Note_on_c, 1, 52, 0
3, 68160, Note_on_c, 1, 52, 80
3, 68519, Note_on_c, 1, 52, 0
3, 68520, Note_on_c, 1, 52, 80
3, 68879, Note_on_c, 1, 52, 0
3, 68880, Note_on_c, 1, 52, 80
3, 69119, Note_on_c, 1, 52, 0
3, 69120, Note_on_c, 1, 53, 80
3, 69479, Note_on_c, 1, 53, 0
3, 69480, Note_on_c, 1, 53, 80
3, 69959, Note_on_c, 1, 53, 0
3, 70080, Note_on_c, 1, 53, 80
3, 70439, Note_on_c, 1, 53, 0
3, 70440, Note_on_c, 1, 53, 80
3, 70919, Note_on_c, 1, 53, 0
3, 71040, Note_on_c, 1, 60, 80
3, 71399, Note_on_c, 1, 60, 0
3, 71400, Note_on_c, 1, 60, 80
3, 71879, Note_on_c, 1, 60, 0
3, 72000, Note_on_c, 1, 60, 80
3, 72359, Note_on_c, 1, 60, 0
3, 72360, Note_on_c, 1, 60, 80
3, 72719, Note_on_c, 1, 60, 0
3, 72720, Note_on_c, 1, 60, 80
3, 72959, Note_on_c, 1, 60, 0
3, 72960, Note_on_c, 1, 57, 80
3, 73319, Note_on_c, 1, 57, 0
3, 73320, Note_on_c, 1, 57, 80
3, 73799, Note_on_c, 1, 57, 0
3, 73920, Note_on_c, 1, 57, 80
3, 74279, Note_on_c, 1, 57, 0
3, 74280, Note_on_c, 1, 57, 80
3, 74639, Note_on_c, 1, 57, 0
3, 74640, Note_on_c, 1, 57, 80
3, 74879, Note_on_c, 1, 57, 0
3, 74880, Note_on_c, 1, 52, 80
3, 75239, Note_on_c, 1, 52, 0
3, 75240, Note_on_c, 1, 52, 80
3, 75719, Note_on_c, 1, 52, 0
3, 75840, Note_on_c, 1, 52, 80
3, 76199, Note_on_c, 1, 52, 0
3, 76200, Note_on_c, 1, 52, 80
3, 76559, Note_on_c, 1, 52, 0
3, 76560, Note_on_c, 1, 52, 80
3, 76799, Note_on_c, 1, 52, 0
3, 76800, Note_on_c, 1, 53, 80
3, 77159, Note_on_c, 1, 53, 0
3, 77160, Note_on_c, 1, 53, 80
3, 77639, Note_on_c, 1, 53, 0
3, 77760, Note_on_c, 1, 53, 80
3, 78119, Note_on_c, 1, 53, 0
3, 78120, Note_on_c, 1, 53, 80
3, 78599, Note_on_c, 1, 53, 0
3, 78720, Note_on_c, 1, 60, 80
3, 79079, Note_on_c, 1, 60, 0
3, 79080, Note_on_c, 1, 60, 80
3, 79559, Note_on_c, 1, 60, 0
3, 79680, Note_on_c, 1, 60, 80
3, 80039, Note_on_c, 1, 60, 0
3, 80040, Note_on_c, 1, 60, 80
3, 80399, Note_on_c, 1, 60, 0
3, 80400, Note_on_c, 1, 60, 80
3, 80639, Note_on_c, 1, 60, 0
3, 80640, Note_on_c, 1, 57, 80
3, 80999, Note_on_c, 1, 57, 0
3, 81000, Note_on_c, 1, 57, 80
3, 81479, Note_on_c, 1, 57, 0
3, 81600, Note_on_c, 1, 57, 80
3, 81959, Note_on_c, 1, 57, 0
3, 81960, Note_on_c, 1, 57, 80
3, 82319, Note_on_c, 1, 57, 0
3, 82320, Note_on_c, 1, 57, 80
3, 82559, Note_on_c, 1, 57, 0
3, 82560, Note_on_c, 1, 52, 80
3, 82919, Note_on_c, 1, 52, 0
3, 82920, Note_on_c, 1, 52, 80
3, 83399, Note_on_c, 1, 52, 0
3, 83520, Note_on_c, 1, 52, 80
3, 83879, Note_on_c, 1, 52, 0
3, 83880, Note_on_c, 1, 52, 80
3, 84239, Note_on_c, 1, 52, 0
3, 84240, Note_on_c, 1, 52, 80
3, 84479, Note_on_c, 1, 52, 0
3, 84480, Note_on_c, 1, 53, 80
3, 84839, Note_on_c, 1, 53, 0
3, 84840, Note_on_c, 1, 53, 80
3, 85319, Note_on_c, 1, 53, 0
3, 85440, Note_on_c, 1, 53, 80
3, 85799, Note_on_c, 1, 53, 0
3, 85800, Note_on_c, 1, 53, 80
3, 86279, Note_on_c, 1, 53, 0
3, 86400, Note_on_c, 1, 60, 80
3, 86759, Note_on_c, 1, 60, 0
3, 86760, Note_on_c, 1, 60, 80
3, 87239, Note_on_c, 1, 60, 0
3, 87360, Note_on_c, 1, 60, 80
3, 87719, Note_on_c, 1, 60, 0
3, 87720, Note_on_c, 1, 60, 80
3, 88079, Note_on_c, 1, 60, 0
3, 88080, Note_on_c, 1, 60, 80
3, 88319, Note_on_c, 1, 60, 0
3, 88320, Note_on_c, 1, 57, 80
3, 88679, Note_on_c, 1, 57, 0
3, 88680, Note_on_c, 1, 57, 80
3, 89159, Note_on_c, 1, 57, 0
3, 89280, Note_on_c, 1, 57, 80
3, 89639, Note_on_c, 1, 57, 0
3, 89640, Note_on_c, 1, 57, 80
3, 89999, Note_on_c, 1, 57, 0
3, 90000, Note_on_c, 1, 57, 80
3, 90239, Note_on_c, 1, 57, 0
3, 90240, Note_on_c, 1, 52, 80
3, 90599, Note_on_c, 1, 52, 0
3, 90600, Note_on_c, 1, 52, 80
3, 91079, Note_on_c, 1, 52, 0
3, 91200, Note_on_c, 1, 52, 80
3, 91559, Note_on_c, 1, 52, 0
3, 91560, Note_on_c, 1, 52, 80
3, 91919, Note_on_c, 1, 52, 0
3, 91920, Note_on_c, 1, 52, 80
3, 92159, Note_on_c, 1, 52, 0
3, 92160, Note_on_c, 1, 53, 80
3, 92519, Note_on_c, 1, 53, 0
3, 92520, Note_on_c, 1, 53, 80
3, 92999, Note_on_c, 1, 53, 0
3, 93120, Note_on_c, 1, 53, 80
3, 93479, Note_on_c, 1, 53, 0
3, 93480, Note_on_c, 1, 53, 80
3, 93959, Note_on_c, 1, 53, 0
3, 94080, Note_on_c, 1, 60, 80
3, 95039, Note_on_c, 1, 60, 0
3, 95040, Note_on_c, 1, 60, 80
3, 95759, Note_on_c, 1, 60, 0
3, 95760, Note_on_c, 1, 60, 80
3, 95999, Note_on_c, 1, 60, 0
3, 96000, Note_on_c, 1, 57, 80
3, 96959, Note_on_c, 1, 57, 0
3, 96960, Note_on_c, 1, 57, 80
3, 97679, Note_on_c, 1, 57, 0
3, 97680, Note_on_c, 1, 57, 80
3, 97919, Note_on_c, 1, 57, 0
3, 97920, Note_on_c, 1, 52, 80
3, 98879, Note_on_c, 1, 52, 0
3, 98880, Note_on_c, 1, 52, 80
3, 99839, Note_on_c, 1, 52, 0
3, 99840, Note_on_c, 1, 53, 80
3, 101759, Note_on_c, 1, 53, 0
3, 101760, Note_on_c, 1, 60, 80
3, 102719, Note_on_c, 1, 60, 0
3, 102720, Note_on_c, 1, 60, 80
3, 103439, Note_on_c, 1, 60, 0
3, 103440, Note_on_c, 1, 60, 80
3, 103679, Note_on_c, 1, 60, 0
3, 103680, Note_on_c, 1, 57, 80
3, 104639, Note_on_c, 1, 57, 0
3, 104640, Note_on_c, 1, 57, 80
3, 105359, Note_on_c, 1, 57, 0
3, 105360, Note_on_c, 1, 57, 80
3, 105599, Note_on_c, 1, 57, 0
3, 105600, Note_on_c, 1, 52, 80
3, 106559, Note_on_c, 1, 52, 0
3, 106560, Note_on_c, 1, 52, 80
3, 107519, Note_on_c, 1, 52, 0
3, 107520, Note_on_c, 1, 53, 80
3, 109439, Note_on_c, 1, 53, 0
3, 109440, Note_on_c, 1, 60, 80
3, 111359, Note_on_c, 1, 60, 0
3, 111360, Note_on_c, 1, 57, 80
3, 113279, Note_on_c, 1, 57, 0
3, 113280, Note_on_c, 1, 52, 80
3, 115199, Note_on_c, 1, 52, 0
3, 115200, Note_on_c, 1, 53, 80
3, 117119, Note_on_c, 1, 53, 0
3, 117120, End_track
4, 0, Start_track
4, 0, Title_t, "Bell, Bell\000"
4, 0, Key_signature, 0, "major"
4, 0, Control_c, 3, 121, 0
4, 0, Program_c, 3, 14
4, 0, Control_c, 3, 7, 100
4, 0, Control_c, 3, 10, 64
4, 0, Control_c, 3, 91, 0
4, 0, Control_c, 3, 93, 0
4, 0, MIDI_port, 0
4, 33360, Note_on_c, 3, 79, 80
4, 33360, Control_c, 3, 2, 80
4, 33599, Note_on_c, 3, 79, 0
4, 33600, Note_on_c, 3, 79, 80
4, 33959, Note_on_c, 3, 79, 0
4, 33960, Note_on_c, 3, 76, 80
4, 34199, Note_on_c, 3, 76, 0
4, 34320, Note_on_c, 3, 76, 80
4, 34559, Note_on_c, 3, 76, 0
4, 35160, Note_on_c, 3, 81, 80
4, 35519, Note_on_c, 3, 81, 0
4, 35520, Note_on_c, 3, 79, 80
4, 35759, Note_on_c, 3, 79, 0
4, 36000, Note_on_c, 3, 74, 80
4, 36239, Note_on_c, 3, 74, 0
4, 36240, Note_on_c, 3, 76, 80
4, 36479, Note_on_c, 3, 76, 0
4, 36480, Note_on_c, 3, 76, 80
4, 36959, Note_on_c, 3, 76, 0
4, 37200, Note_on_c, 3, 79, 80
4, 37439, Note_on_c, 3, 79, 0
4, 37440, Note_on_c, 3, 76, 80
4, 37679, Note_on_c, 3, 76, 0
4, 38400, Note_on_c, 3, 76, 80
4, 38879, Note_on_c, 3, 76, 0
4, 63960, Note_on_c, 3, 79, 80
4, 64319, Note_on_c, 3, 79, 0
4, 64320, Note_on_c, 3, 79, 80
4, 64799, Note_on_c, 3, 79, 0
4, 65880, Note_on_c, 3, 81, 80
4, 66239, Note_on_c, 3, 81, 0
4, 66240, Note_on_c, 3, 79, 80
4, 66719, Note_on_c, 3, 79, 0
4, 67920, Note_on_c, 3, 79, 80
4, 68159, Note_on_c, 3, 79, 0
4, 68160, Note_on_c, 3, 76, 80
4, 68639, Note_on_c, 3, 76, 0
4, 71640, Note_on_c, 3, 79, 80
4, 71999, Note_on_c, 3, 79, 0
4, 72000, Note_on_c, 3, 79, 80
4, 72479, Note_on_c, 3, 79, 0
4, 73560, Note_on_c, 3, 81, 80
4, 73919, Note_on_c, 3, 81, 0
4, 73920, Note_on_c, 3, 79, 80
4, 74399, Note_on_c, 3, 79, 0
4, 75600, Note_on_c, 3, 79, 80
4, 75839, Note_on_c, 3, 79, 0
4, 75840, Note_on_c, 3, 76, 80
4, 76319, Note_on_c, 3, 76, 0
4, 94800, Note_on_c, 3, 79, 80
4, 95039, Note_on_c, 3, 79, 0
4, 95040, Note_on_c, 3, 79, 80
4, 95399, Note_on_c, 3, 79, 0
4, 95400, Note_on_c, 3, 76, 80
4, 95759, Note_on_c, 3, 76, 0
4, 95760, Note_on_c, 3, 76, 80
4, 95999, Note_on_c, 3, 76, 0
4, 96600, Note_on_c, 3, 81, 80
4, 96959, Note_on_c, 3, 81, 0
4, 96960, Note_on_c, 3, 79, 80
4, 97319, Note_on_c, 3, 79, 0
4, 97320, Note_on_c, 3, 76, 80
4, 97679, Note_on_c, 3, 76, 0
4, 97680, Note_on_c, 3, 76, 80
4, 97919, Note_on_c, 3, 76, 0
4, 97920, Note_on_c, 3, 76, 80
4, 98639, Note_on_c, 3, 76, 0
4, 98640, Note_on_c, 3, 79, 80
4, 98879, Note_on_c, 3, 79, 0
4, 98880, Note_on_c, 3, 76, 80
4, 99239, Note_on_c, 3, 76, 0
4, 99240, Note_on_c, 3, 79, 80
4, 99599, Note_on_c, 3, 79, 0
4, 99600, Note_on_c, 3, 69, 80
4, 99839, Note_on_c, 3, 69, 0
4, 102480, Note_on_c, 3, 79, 80
4, 102719, Note_on_c, 3, 79, 0
4, 102720, Note_on_c, 3, 79, 80
4, 103079, Note_on_c, 3, 79, 0
4, 103080, Note_on_c, 3, 76, 80
4, 103439, Note_on_c, 3, 76, 0
4, 103440, Note_on_c, 3, 76, 80
4, 103679, Note_on_c, 3, 76, 0
4, 104280, Note_on_c, 3, 81, 80
4, 104639, Note_on_c, 3, 81, 0
4, 104640, Note_on_c, 3, 79, 80
4, 104999, Note_on_c, 3, 79, 0
4, 105000, Note_on_c, 3, 76, 80
4, 105359, Note_on_c, 3, 76, 0
4, 105360, Note_on_c, 3, 76, 80
4, 105599, Note_on_c, 3, 76, 0
4, 105600, Note_on_c, 3, 76, 80
4, 106319, Note_on_c, 3, 76, 0
4, 106320, Note_on_c, 3, 79, 80
4, 106559, Note_on_c, 3, 79, 0
4, 106560, Note_on_c, 3, 76, 80
4, 106919, Note_on_c, 3, 76, 0
4, 106920, Note_on_c, 3, 79, 80
4, 107279, Note_on_c, 3, 79, 0
4, 107280, Note_on_c, 3, 69, 80
4, 109439, Note_on_c, 3, 69, 0
4, 109440, End_track
5, 0, Start_track
5, 0, Title_t, "Classical Guitar, Lute\000"
5, 0, Key_signature, 0, "major"
5, 0, Control_c, 2, 121, 0
5, 0, Program_c, 2, 24
5, 0, Control_c, 2, 7, 100
5, 0, Control_c, 2, 10, 64
5, 0, Control_c, 2, 91, 0
5, 0, Control_c, 2, 93, 0
5, 0, MIDI_port, 0
5, 0, Control_c, 6, 121, 0
5, 0, Program_c, 6, 28
5, 0, Control_c, 6, 7, 100
5, 0, Control_c, 6, 10, 64
5, 0, Control_c, 6, 91, 0
5, 0, Control_c, 6, 93, 0
5, 0, MIDI_port, 0
5, 32640, Note_on_c, 2, 60, 80
5, 32640, Note_on_c, 2, 64, 80
5, 33119, Note_on_c, 2, 60, 0
5, 33119, Note_on_c, 2, 64, 0
5, 33120, Note_on_c, 2, 60, 80
5, 33120, Note_on_c, 2, 64, 80
5, 33599, Note_on_c, 2, 60, 0
5, 33599, Note_on_c, 2, 64, 0
5, 33600, Note_on_c, 2, 60, 80
5, 33600, Note_on_c, 2, 64, 80
5, 34079, Note_on_c, 2, 60, 0
5, 34079, Note_on_c, 2, 64, 0
5, 34080, Note_on_c, 2, 60, 80
5, 34080, Note_on_c, 2, 64, 80
5, 34559, Note_on_c, 2, 60, 0
5, 34559, Note_on_c, 2, 64, 0
5, 34560, Note_on_c, 2, 60, 80
5, 34560, Note_on_c, 2, 64, 80
5, 35039, Note_on_c, 2, 60, 0
5, 35039, Note_on_c, 2, 64, 0
5, 35040, Note_on_c, 2, 60, 80
5, 35040, Note_on_c, 2, 64, 80
5, 35519, Note_on_c, 2, 60, 0
5, 35519, Note_on_c, 2, 64, 0
5, 35520, Note_on_c, 2, 60, 80
5, 35520, Note_on_c, 2, 64, 80
5, 35999, Note_on_c, 2, 60, 0
5, 35999, Note_on_c, 2, 64, 0
5, 36000, Note_on_c, 2, 60, 80
5, 36000, Note_on_c, 2, 64, 80
5, 36479, Note_on_c, 2, 60, 0
5, 36479, Note_on_c, 2, 64, 0
5, 36480, Note_on_c, 2, 59, 80
5, 36480, Note_on_c, 2, 64, 80
5, 36959, Note_on_c, 2, 59, 0
5, 36959, Note_on_c, 2, 64, 0
5, 36960, Note_on_c, 2, 59, 80
5, 36960, Note_on_c, 2, 64, 80
5, 37439, Note_on_c, 2, 59, 0
5, 37439, Note_on_c, 2, 64, 0
5, 37440, Note_on_c, 2, 59, 80
5, 37440, Note_on_c, 2, 64, 80
5, 37919, Note_on_c, 2, 59, 0
5, 37919, Note_on_c, 2, 64, 0
5, 37920, Note_on_c, 2, 59, 80
5, 37920, Note_on_c, 2, 64, 80
5, 38399, Note_on_c, 2, 59, 0
5, 38399, Note_on_c, 2, 64, 0
5, 38400, Note_on_c, 2, 60, 80
5, 38400, Note_on_c, 2, 64, 80
5, 38879, Note_on_c, 2, 60, 0
5, 38879, Note_on_c, 2, 64, 0
5, 38880, Note_on_c, 2, 60, 80
5, 38880, Note_on_c, 2, 64, 80
5, 39359, Note_on_c, 2, 60, 0
5, 39359, Note_on_c, 2, 64, 0
5, 39360, Note_on_c, 2, 60, 80
5, 39360, Note_on_c, 2, 64, 80
5, 39839, Note_on_c, 2, 60, 0
5, 39839, Note_on_c, 2, 64, 0
5, 39840, Note_on_c, 2, 60, 80
5, 39840, Note_on_c, 2, 64, 80
5, 40319, Note_on_c, 2, 60, 0
5, 40319, Note_on_c, 2, 64, 0
5, 40320, Note_on_c, 2, 55, 80
5, 40559, Note_on_c, 2, 55, 0
5, 40560, Note_on_c, 2, 60, 80
5, 40560, Note_on_c, 2, 64, 80
5, 40679, Note_on_c, 2, 60, 0
5, 40679, Note_on_c, 2, 64, 0
5, 40680, Note_on_c, 2, 55, 80
5, 40919, Note_on_c, 2, 55, 0
5, 40920, Note_on_c, 2, 60, 80
5, 40920, Note_on_c, 2, 64, 80
5, 41099, Note_on_c, 2, 60, 0
5, 41099, Note_on_c, 2, 64, 0
5, 41280, Note_on_c, 2, 55, 80
5, 41519, Note_on_c, 2, 55, 0
5, 41520, Note_on_c, 2, 60, 80
5, 41520, Note_on_c, 2, 64, 80
5, 41639, Note_on_c, 2, 60, 0
5, 41639, Note_on_c, 2, 64, 0
5, 41640, Note_on_c, 2, 55, 80
5, 41879, Note_on_c, 2, 55, 0
5, 41880, Note_on_c, 2, 60, 80
5, 41880, Note_on_c, 2, 64, 80
5, 42059, Note_on_c, 2, 60, 0
5, 42059, Note_on_c, 2, 64, 0
5, 42240, Note_on_c, 2, 57, 80
5, 42479, Note_on_c, 2, 57, 0
5, 42480, Note_on_c, 2, 60, 80
5, 42480, Note_on_c, 2, 64, 80
5, 42599, Note_on_c, 2, 60, 0
5, 42599, Note_on_c, 2, 64, 0
5, 42600, Note_on_c, 2, 57, 80
5, 42839, Note_on_c, 2, 57, 0
5, 42840, Note_on_c, 2, 60, 80
5, 42840, Note_on_c, 2, 64, 80
5, 43019, Note_on_c, 2, 60, 0
5, 43019, Note_on_c, 2, 64, 0
5, 43200, Note_on_c, 2, 57, 80
5, 43439, Note_on_c, 2, 57, 0
5, 43440, Note_on_c, 2, 60, 80
5, 43440, Note_on_c, 2, 64, 80
5, 43559, Note_on_c, 2, 60, 0
5, 43559, Note_on_c, 2, 64, 0
5, 43560, Note_on_c, 2, 57, 80
5, 43799, Note_on_c, 2, 57, 0
5, 43800, Note_on_c, 2, 60, 80
5, 43800, Note_on_c, 2, 64, 80
5, 43979, Note_on_c, 2, 60, 0
5, 43979, Note_on_c, 2, 64, 0
5, 44160, Note_on_c, 2, 55, 80
5, 44399, Note_on_c, 2, 55, 0
5, 44400, Note_on_c, 2, 59, 80
5, 44400, Note_on_c, 2, 64, 80
5, 44759, Note_on_c, 2, 59, 0
5, 44759, Note_on_c, 2, 64, 0
5, 44760, Note_on_c, 2, 59, 80
5, 44760, Note_on_c, 2, 64, 80
5, 44939, Note_on_c, 2, 59, 0
5, 44939, Note_on_c, 2, 64, 0
5, 45120, Note_on_c, 2, 55, 80
5, 45359, Note_on_c, 2, 55, 0
5, 45360, Note_on_c, 2, 59, 80
5, 45360, Note_on_c, 2, 64, 80
5, 45719, Note_on_c, 2, 59, 0
5, 45719, Note_on_c, 2, 64, 0
5, 45720, Note_on_c, 2, 59, 80
5, 45720, Note_on_c, 2, 64, 80
5, 45899, Note_on_c, 2, 59, 0
5, 45899, Note_on_c, 2, 64, 0
5, 46080, Note_on_c, 2, 57, 80
5, 46319, Note_on_c, 2, 57, 0
5, 46320, Note_on_c, 2, 60, 80
5, 46320, Note_on_c, 2, 64, 80
5, 46439, Note_on_c, 2, 60, 0
5, 46439, Note_on_c, 2, 64, 0
5, 46440, Note_on_c, 2, 57, 80
5, 46679, Note_on_c, 2, 57, 0
5, 46680, Note_on_c, 2, 60, 80
5, 46680, Note_on_c, 2, 64, 80
5, 46859, Note_on_c, 2, 60, 0
5, 46859, Note_on_c, 2, 64, 0
5, 47040, Note_on_c, 2, 57, 80
5, 47279, Note_on_c, 2, 57, 0
5, 47280, Note_on_c, 2, 60, 80
5, 47280, Note_on_c, 2, 64, 80
5, 47399, Note_on_c, 2, 60, 0
5, 47399, Note_on_c, 2, 64, 0
5, 47400, Note_on_c, 2, 57, 80
5, 47639, Note_on_c, 2, 57, 0
5, 47640, Note_on_c, 2, 60, 80
5, 47640, Note_on_c, 2, 64, 80
5, 47819, Note_on_c, 2, 60, 0
5, 47819, Note_on_c, 2, 64, 0
5, 48000, Note_on_c, 2, 55, 80
5, 48239, Note_on_c, 2, 55, 0
5, 48240, Note_on_c, 2, 60, 80
5, 48240, Note_on_c, 2, 64, 80
5, 48359, Note_on_c, 2, 60, 0
5, 48359, Note_on_c, 2, 64, 0
5, 48360, Note_on_c, 2, 55, 80
5, 48599, Note_on_c, 2, 55, 0
5, 48600, Note_on_c, 2, 60, 80
5, 48600, Note_on_c, 2, 64, 80
5, 48779, Note_on_c, 2, 60, 0
5, 48779, Note_on_c, 2, 64, 0
5, 48960, Note_on_c, 2, 55, 80
5, 49199, Note_on_c, 2, 55, 0
5, 49200, Note_on_c, 2, 60, 80
5, 49200, Note_on_c, 2, 64, 80
5, 49319, Note_on_c, 2, 60, 0
5, 49319, Note_on_c, 2, 64, 0
5, 49320, Note_on_c, 2, 55, 80
5, 49559, Note_on_c, 2, 55, 0
5, 49560, Note_on_c, 2, 60, 80
5, 49560, Note_on_c, 2, 64, 80
5, 49739, Note_on_c, 2, 60, 0
5, 49739, Note_on_c, 2, 64, 0
5, 49920, Note_on_c, 2, 57, 80
5, 50159, Note_on_c, 2, 57, 0
5, 50160, Note_on_c, 2, 60, 80
5, 50160, Note_on_c, 2, 64, 80
5, 50279, Note_on_c, 2, 60, 0
5, 50279, Note_on_c, 2, 64, 0
5, 50280, Note_on_c, 2, 57, 80
5, 50519, Note_on_c, 2, 57, 0
5, 50520, Note_on_c, 2, 60, 80
5, 50520, Note_on_c, 2, 64, 80
5, 50699, Note_on_c, 2, 60, 0
5, 50699, Note_on_c, 2, 64, 0
5, 50880, Note_on_c, 2, 57, 80
5, 51119, Note_on_c, 2, 57, 0
5, 51120, Note_on_c, 2, 60, 80
5, 51120, Note_on_c, 2, 64, 80
5, 51239, Note_on_c, 2, 60, 0
5, 51239, Note_on_c, 2, 64, 0
5, 51240, Note_on_c, 2, 57, 80
5, 51479, Note_on_c, 2, 57, 0
5, 51480, Note_on_c, 2, 60, 80
5, 51480, Note_on_c, 2, 64, 80
5, 51659, Note_on_c, 2, 60, 0
5, 51659, Note_on_c, 2, 64, 0
5, 51840, Note_on_c, 2, 55, 80
5, 52079, Note_on_c, 2, 55, 0
5, 52080, Note_on_c, 2, 59, 80
5, 52080, Note_on_c, 2, 64, 80
5, 52439, Note_on_c, 2, 59, 0
5, 52439, Note_on_c, 2, 64, 0
5, 52440, Note_on_c, 2, 59, 80
5, 52440, Note_on_c, 2, 64, 80
5, 52619, Note_on_c, 2, 59, 0
5, 52619, Note_on_c, 2, 64, 0
5, 52800, Note_on_c, 2, 55, 80
5, 53039, Note_on_c, 2, 55, 0
5, 53040, Note_on_c, 2, 59, 80
5, 53040, Note_on_c, 2, 64, 80
5, 53399, Note_on_c, 2, 59, 0
5, 53399, Note_on_c, 2, 64, 0
5, 53400, Note_on_c, 2, 59, 80
5, 53400, Note_on_c, 2, 64, 80
5, 53579, Note_on_c, 2, 59, 0
5, 53579, Note_on_c, 2, 64, 0
5, 53760, Note_on_c, 2, 57, 80
5, 53999, Note_on_c, 2, 57, 0
5, 54000, Note_on_c, 2, 60, 80
5, 54000, Note_on_c, 2, 64, 80
5, 54119, Note_on_c, 2, 60, 0
5, 54119, Note_on_c, 2, 64, 0
5, 54120, Note_on_c, 2, 57, 80
5, 54359, Note_on_c, 2, 57, 0
5, 54360, Note_on_c, 2, 60, 80
5, 54360, Note_on_c, 2, 64, 80
5, 54539, Note_on_c, 2, 60, 0
5, 54539, Note_on_c, 2, 64, 0
5, 54720, Note_on_c, 2, 57, 80
5, 54959, Note_on_c, 2, 57, 0
5, 54960, Note_on_c, 2, 60, 80
5, 54960, Note_on_c, 2, 64, 80
5, 55079, Note_on_c, 2, 60, 0
5, 55079, Note_on_c, 2, 64, 0
5, 55080, Note_on_c, 2, 57, 80
5, 55319, Note_on_c, 2, 57, 0
5, 55320, Note_on_c, 2, 60, 80
5, 55320, Note_on_c, 2, 64, 80
5, 55499, Note_on_c, 2, 60, 0
5, 55499, Note_on_c, 2, 64, 0
5, 64560, Note_on_c, 2, 62, 80
5, 64679, Note_on_c, 2, 62, 0
5, 64680, Note_on_c, 2, 62, 80
5, 64799, Note_on_c, 2, 62, 0
5, 64800, Note_on_c, 2, 62, 80
5, 64919, Note_on_c, 2, 62, 0
5, 64920, Note_on_c, 2, 60, 80
5, 65039, Note_on_c, 2, 60, 0
5, 65040, Note_on_c, 2, 59, 80
5, 65279, Note_on_c, 2, 59, 0
5, 65280, Note_on_c, 2, 57, 80
5, 65759, Note_on_c, 2, 57, 0
5, 66480, Note_on_c, 2, 62, 80
5, 66599, Note_on_c, 2, 62, 0
5, 66600, Note_on_c, 2, 62, 80
5, 66719, Note_on_c, 2, 62, 0
5, 66720, Note_on_c, 2, 62, 80
5, 66839, Note_on_c, 2, 62, 0
5, 66840, Note_on_c, 2, 60, 80
5, 66959, Note_on_c, 2, 60, 0
5, 66960, Note_on_c, 2, 59, 80
5, 67199, Note_on_c, 2, 59, 0
5, 67200, Note_on_c, 2, 60, 80
5, 67679, Note_on_c, 2, 60, 0
5, 68400, Note_on_c, 2, 62, 80
5, 68519, Note_on_c, 2, 62, 0
5, 68520, Note_on_c, 2, 62, 80
5, 68639, Note_on_c, 2, 62, 0
5, 68640, Note_on_c, 2, 62, 80
5, 68759, Note_on_c, 2, 62, 0
5, 68760, Note_on_c, 2, 60, 80
5, 68879, Note_on_c, 2, 60, 0
5, 68880, Note_on_c, 2, 59, 80
5, 69119, Note_on_c, 2, 59, 0
5, 69120, Note_on_c, 2, 60, 80
5, 69599, Note_on_c, 2, 60, 0
5, 70320, Note_on_c, 2, 62, 80
5, 70559, Note_on_c, 2, 62, 0
5, 70560, Note_on_c, 2, 62, 80
5, 70799, Note_on_c, 2, 62, 0
5, 70800, Note_on_c, 2, 64, 80
5, 71039, Note_on_c, 2, 64, 0
5, 71040, Note_on_c, 2, 64, 80
5, 71519, Note_on_c, 2, 64, 0
5, 72120, Note_on_c, 2, 60, 80
5, 72239, Note_on_c, 2, 60, 0
5, 72240, Note_on_c, 2, 60, 80
5, 72359, Note_on_c, 2, 60, 0
5, 72360, Note_on_c, 2, 60, 80
5, 72479, Note_on_c, 2, 60, 0
5, 72480, Note_on_c, 2, 60, 80
5, 72599, Note_on_c, 2, 60, 0
5, 72600, Note_on_c, 2, 62, 80
5, 72719, Note_on_c, 2, 62, 0
5, 72720, Note_on_c, 2, 64, 80
5, 72959, Note_on_c, 2, 64, 0
5, 72960, Note_on_c, 2, 64, 80
5, 73439, Note_on_c, 2, 64, 0
5, 74160, Note_on_c, 2, 62, 80
5, 74279, Note_on_c, 2, 62, 0
5, 74280, Note_on_c, 2, 62, 80
5, 74399, Note_on_c, 2, 62, 0
5, 74400, Note_on_c, 2, 62, 80
5, 74519, Note_on_c, 2, 62, 0
5, 74520, Note_on_c, 2, 60, 80
5, 74639, Note_on_c, 2, 60, 0
5, 74640, Note_on_c, 2, 59, 80
5, 74879, Note_on_c, 2, 59, 0
5, 74880, Note_on_c, 2, 59, 80
5, 75359, Note_on_c, 2, 59, 0
5, 76080, Note_on_c, 2, 62, 80
5, 76199, Note_on_c, 2, 62, 0
5, 76200, Note_on_c, 2, 62, 80
5, 76319, Note_on_c, 2, 62, 0
5, 76320, Note_on_c, 2, 62, 80
5, 76439, Note_on_c, 2, 62, 0
5, 76440, Note_on_c, 2, 60, 80
5, 76559, Note_on_c, 2, 60, 0
5, 76560, Note_on_c, 2, 59, 80
5, 76799, Note_on_c, 2, 59, 0
5, 76800, Note_on_c, 2, 57, 80
5, 77279, Note_on_c, 2, 57, 0
5, 78480, Note_on_c, 2, 72, 80
5, 78599, Note_on_c, 2, 72, 0
5, 78600, Note_on_c, 2, 72, 80
5, 78719, Note_on_c, 2, 72, 0
5, 78720, Note_on_c, 2, 72, 80
5, 78839, Note_on_c, 2, 72, 0
5, 78840, Note_on_c, 2, 71, 80
5, 78959, Note_on_c, 2, 71, 0
5, 78960, Note_on_c, 2, 71, 80
5, 79079, Note_on_c, 2, 71, 0
5, 79080, Note_on_c, 2, 69, 80
5, 79199, Note_on_c, 2, 69, 0
5, 79200, Note_on_c, 2, 69, 80
5, 79319, Note_on_c, 2, 69, 0
5, 79320, Note_on_c, 2, 67, 80
5, 79439, Note_on_c, 2, 67, 0
5, 79440, Note_on_c, 2, 67, 80
5, 79559, Note_on_c, 2, 67, 0
5, 79560, Note_on_c, 2, 64, 80
5, 79679, Note_on_c, 2, 64, 0
5, 79680, Note_on_c, 2, 64, 80
5, 79799, Note_on_c, 2, 64, 0
5, 79800, Note_on_c, 2, 64, 80
5, 79919, Note_on_c, 2, 64, 0
5, 79920, Note_on_c, 2, 64, 80
5, 80039, Note_on_c, 2, 64, 0
5, 80040, Note_on_c, 2, 64, 80
5, 80159, Note_on_c, 2, 64, 0
5, 80160, Note_on_c, 2, 64, 80
5, 80279, Note_on_c, 2, 64, 0
5, 80280, Note_on_c, 2, 64, 80
5, 80399, Note_on_c, 2, 64, 0
5, 80400, Note_on_c, 2, 67, 80
5, 80639, Note_on_c, 2, 67, 0
5, 80640, Note_on_c, 2, 67, 80
5, 82079, Note_on_c, 2, 67, 0
5, 82320, Note_on_c, 2, 72, 80
5, 82439, Note_on_c, 2, 72, 0
5, 82440, Note_on_c, 2, 72, 80
5, 82559, Note_on_c, 2, 72, 0
5, 82560, Note_on_c, 2, 72, 80
5, 82679, Note_on_c, 2, 72, 0
5, 82680, Note_on_c, 2, 71, 80
5, 82799, Note_on_c, 2, 71, 0
5, 82800, Note_on_c, 2, 71, 80
5, 82919, Note_on_c, 2, 71, 0
5, 82920, Note_on_c, 2, 69, 80
5, 83039, Note_on_c, 2, 69, 0
5, 83040, Note_on_c, 2, 69, 80
5, 83159, Note_on_c, 2, 69, 0
5, 83160, Note_on_c, 2, 67, 80
5, 83279, Note_on_c, 2, 67, 0
5, 83280, Note_on_c, 2, 67, 80
5, 83399, Note_on_c, 2, 67, 0
5, 83400, Note_on_c, 2, 64, 80
5, 83519, Note_on_c, 2, 64, 0
5, 83520, Note_on_c, 2, 64, 80
5, 83639, Note_on_c, 2, 64, 0
5, 83640, Note_on_c, 2, 64, 80
5, 83759, Note_on_c, 2, 64, 0
5, 83760, Note_on_c, 2, 64, 80
5, 83879, Note_on_c, 2, 64, 0
5, 83880, Note_on_c, 2, 64, 80
5, 83999, Note_on_c, 2, 64, 0
5, 84000, Note_on_c, 2, 64, 80
5, 84119, Note_on_c, 2, 64, 0
5, 84120, Note_on_c, 2, 64, 80
5, 84239, Note_on_c, 2, 64, 0
5, 84240, Note_on_c, 2, 67, 80
5, 84479, Note_on_c, 2, 67, 0
5, 84480, Note_on_c, 2, 62, 80
5, 84719, Note_on_c, 2, 62, 0
5, 86160, Note_on_c, 2, 72, 80
5, 86279, Note_on_c, 2, 72, 0
5, 86280, Note_on_c, 2, 72, 80
5, 86399, Note_on_c, 2, 72, 0
5, 86400, Note_on_c, 2, 72, 80
5, 86519, Note_on_c, 2, 72, 0
5, 86520, Note_on_c, 2, 71, 80
5, 86639, Note_on_c, 2, 71, 0
5, 86640, Note_on_c, 2, 71, 80
5, 86759, Note_on_c, 2, 71, 0
5, 86760, Note_on_c, 2, 69, 80
5, 86879, Note_on_c, 2, 69, 0
5, 86880, Note_on_c, 2, 69, 80
5, 86999, Note_on_c, 2, 69, 0
5, 87000, Note_on_c, 2, 67, 80
5, 87119, Note_on_c, 2, 67, 0
5, 87120, Note_on_c, 2, 67, 80
5, 87239, Note_on_c, 2, 67, 0
5, 87240, Note_on_c, 2, 64, 80
5, 87359, Note_on_c, 2, 64, 0
5, 87360, Note_on_c, 2, 64, 80
5, 87479, Note_on_c, 2, 64, 0
5, 87480, Note_on_c, 2, 64, 80
5, 87599, Note_on_c, 2, 64, 0
5, 87600, Note_on_c, 2, 64, 80
5, 87719, Note_on_c, 2, 64, 0
5, 87720, Note_on_c, 2, 64, 80
5, 87839, Note_on_c, 2, 64, 0
5, 87840, Note_on_c, 2, 64, 80
5, 87959, Note_on_c, 2, 64, 0
5, 87960, Note_on_c, 2, 64, 80
5, 88079, Note_on_c, 2, 64, 0
5, 88080, Note_on_c, 2, 67, 80
5, 88199, Note_on_c, 2, 67, 0
5, 88200, Note_on_c, 2, 67, 80
5, 88319, Note_on_c, 2, 67, 0
5, 88320, Note_on_c, 2, 67, 80
5, 89279, Note_on_c, 2, 67, 0
5, 89520, Note_on_c, 2, 60, 80
5, 89639, Note_on_c, 2, 60, 0
5, 89640, Note_on_c, 2, 57, 80
5, 89759, Note_on_c, 2, 57, 0
5, 89760, Note_on_c, 2, 60, 80
5, 89879, Note_on_c, 2, 60, 0
5, 89880, Note_on_c, 2, 62, 80
5, 89999, Note_on_c, 2, 62, 0
5, 90000, Note_on_c, 2, 64, 80
5, 90239, Note_on_c, 2, 64, 0
5, 90240, Note_on_c, 2, 62, 80
5, 91319, Note_on_c, 2, 62, 0
5, 91440, Note_on_c, 2, 62, 80
5, 91559, Note_on_c, 2, 62, 0
5, 91560, Note_on_c, 2, 62, 80
5, 91679, Note_on_c, 2, 62, 0
5, 91680, Note_on_c, 2, 62, 80
5, 91799, Note_on_c, 2, 62, 0
5, 91800, Note_on_c, 2, 62, 80
5, 91919, Note_on_c, 2, 62, 0
5, 91920, Note_on_c, 2, 62, 80
5, 92039, Note_on_c, 2, 62, 0
5, 92040, Note_on_c, 2, 64, 80
5, 92159, Note_on_c, 2, 64, 0
5, 92160, Note_on_c, 2, 64, 80
5, 94079, Note_on_c, 2, 64, 0
5, 94080, Note_on_c, 2, 55, 80
5, 94080, Note_on_c, 2, 60, 80
5, 94080, Note_on_c, 2, 64, 80
5, 95999, Note_on_c, 2, 55, 0
5, 95999, Note_on_c, 2, 60, 0
5, 95999, Note_on_c, 2, 64, 0
5, 96000, Note_on_c, 2, 57, 80
5, 96000, Note_on_c, 2, 60, 80
5, 96000, Note_on_c, 2, 64, 80
5, 97919, Note_on_c, 2, 57, 0
5, 97919, Note_on_c, 2, 60, 0
5, 97919, Note_on_c, 2, 64, 0
5, 97920, Note_on_c, 2, 55, 80
5, 97920, Note_on_c, 2, 59, 80
5, 97920, Note_on_c, 2, 62, 80
5, 99839, Note_on_c, 2, 55, 0
5, 99839, Note_on_c, 2, 59, 0
5, 99839, Note_on_c, 2, 62, 0
5, 99840, Note_on_c, 2, 57, 80
5, 99840, Note_on_c, 2, 60, 80
5, 99840, Note_on_c, 2, 53, 80
5, 101279, Note_on_c, 2, 57, 0
5, 101279, Note_on_c, 2, 60, 0
5, 101759, Note_on_c, 2, 53, 0
5, 101760, End_track
0, 0, End_of_file
