0, 0, Header, 1, 3, 480
1, 0, Start_track
1, 0, Title_t, "Piano, Piano, Piano\000"
1, 0, Time_signature, 4, 2, 24, 8
1, 0, Key_signature, 0, "major"
1, 0, Tempo, 458015
1, 0, Control_c, 0, 121, 0
1, 0, Program_c, 0, 0
1, 0, Control_c, 0, 7, 100
1, 0, Control_c, 0, 10, 64
1, 0, Control_c, 0, 91, 0
1, 0, Control_c, 0, 93, 0
1, 0, MIDI_port, 0
1, 0, Note_on_c, 0, 69, 80
1, 227, Note_on_c, 0, 69, 0
1, 240, Note_on_c, 0, 57, 80
1, 467, Note_on_c, 0, 57, 0
1, 480, Note_on_c, 0, 64, 80
1, 707, Note_on_c, 0, 64, 0
1, 720, Note_on_c, 0, 57, 80
1, 947, Note_on_c, 0, 57, 0
1, 960, Note_on_c, 0, 71, 80
1, 1187, Note_on_c, 0, 71, 0
1, 1200, Note_on_c, 0, 57, 80
1, 1427, Note_on_c, 0, 57, 0
1, 1440, Note_on_c, 0, 64, 80
1, 1667, Note_on_c, 0, 64, 0
1, 1680, Note_on_c, 0, 57, 80
1, 1907, Note_on_c, 0, 57, 0
1, 1920, Note_on_c, 0, 72, 80
1, 2147, Note_on_c, 0, 72, 0
1, 2160, Note_on_c, 0, 57, 80
1, 2387, Note_on_c, 0, 57, 0
1, 2400, Note_on_c, 0, 64, 80
1, 2627, Note_on_c, 0, 64, 0
1, 2640, Note_on_c, 0, 57, 80
1, 2867, Note_on_c, 0, 57, 0
1, 2880, Note_on_c, 0, 64, 80
1, 3107, Note_on_c, 0, 64, 0
1, 3120, Note_on_c, 0, 57, 80
1, 3347, Note_on_c, 0, 57, 0
1, 3360, Note_on_c, 0, 64, 80
1, 3587, Note_on_c, 0, 64, 0
1, 3600, Note_on_c, 0, 57, 80
1, 3827, Note_on_c, 0, 57, 0
1, 3840, Note_on_c, 0, 69, 80
1, 4067, Note_on_c, 0, 69, 0
1, 4080, Note_on_c, 0, 57, 80
1, 4307, Note_on_c, 0, 57, 0
1, 4320, Note_on_c, 0, 64, 80
1, 4547, Note_on_c, 0, 64, 0
1, 4560, Note_on_c, 0, 57, 80
1, 4787, Note_on_c, 0, 57, 0
1, 4800, Note_on_c, 0, 71, 80
1, 5027, Note_on_c, 0, 71, 0
1, 5040, Note_on_c, 0, 57, 80
1, 5267, Note_on_c, 0, 57, 0
1, 5280, Note_on_c, 0, 64, 80
1, 5507, Note_on_c, 0, 64, 0
1, 5520, Note_on_c, 0, 57, 80
1, 5747, Note_on_c, 0, 57, 0
1, 5760, Note_on_c, 0, 72, 80
1, 5987, Note_on_c, 0, 72, 0
1, 6000, Note_on_c, 0, 57, 80
1, 6227, Note_on_c, 0, 57, 0
1, 6240, Note_on_c, 0, 64, 80
1, 6467, Note_on_c, 0, 64, 0
1, 6480, Note_on_c, 0, 57, 80
1, 6707, Note_on_c, 0, 57, 0
1, 6720, Note_on_c, 0, 64, 80
1, 6947, Note_on_c, 0, 64, 0
1, 6960, Note_on_c, 0, 57, 80
1, 7187, Note_on_c, 0, 57, 0
1, 7200, Note_on_c, 0, 64, 80
1, 7427, Note_on_c, 0, 64, 0
1, 7440, Note_on_c, 0, 57, 80
1, 7667, Note_on_c, 0, 57, 0
1, 7680, Note_on_c, 0, 69, 80
1, 7907, Note_on_c, 0, 69, 0
1, 7920, Note_on_c, 0, 57, 80
1, 8147, Note_on_c, 0, 57, 0
1, 8160, Note_on_c, 0, 64, 80
1, 8387, Note_on_c, 0, 64, 0
1, 8400, Note_on_c, 0, 57, 80
1, 8627, Note_on_c, 0, 57, 0
1, 8640, Note_on_c, 0, 71, 80
1, 8867, Note_on_c, 0, 71, 0
1, 8880, Note_on_c, 0, 57, 80
1, 9107, Note_on_c, 0, 57, 0
1, 9120, Note_on_c, 0, 64, 80
1, 9347, Note_on_c, 0, 64, 0
1, 9360, Note_on_c, 0, 57, 80
1, 9587, Note_on_c, 0, 57, 0
1, 9600, Note_on_c, 0, 72, 80
1, 9827, Note_on_c, 0, 72, 0
1, 9840, Note_on_c, 0, 57, 80
1, 10067, Note_on_c, 0, 57, 0
1, 10080, Note_on_c, 0, 64, 80
1, 10307, Note_on_c, 0, 64, 0
1, 10320, Note_on_c, 0, 57, 80
1, 10547, Note_on_c, 0, 57, 0
1, 10560, Note_on_c, 0, 64, 80
1, 10787, Note_on_c, 0, 64, 0
1, 10800, Note_on_c, 0, 57, 80
1, 11027, Note_on_c, 0, 57, 0
1, 11040, Note_on_c, 0, 64, 80
1, 11267, Note_on_c, 0, 64, 0
1, 11280, Note_on_c, 0, 57, 80
1, 11507, Note_on_c, 0, 57, 0
1, 11520, Note_on_c, 0, 69, 80
1, 11747, Note_on_c, 0, 69, 0
1, 11760, Note_on_c, 0, 57, 80
1, 11987, Note_on_c, 0, 57, 0
1, 12000, Note_on_c, 0, 64, 80
1, 12227, Note_on_c, 0, 64, 0
1, 12240, Note_on_c, 0, 57, 80
1, 12467, Note_on_c, 0, 57, 0
1, 12480, Note_on_c, 0, 71, 80
1, 12707, Note_on_c, 0, 71, 0
1, 12720, Note_on_c, 0, 57, 80
1, 12947, Note_on_c, 0, 57, 0
1, 12960, Note_on_c, 0, 64, 80
1, 13187, Note_on_c, 0, 64, 0
1, 13200, Note_on_c, 0, 57, 80
1, 13200, Note_on_c, 0, 57, 0
1, 13440, Note_on_c, 0, 72, 80
1, 13667, Note_on_c, 0, 72, 0
1, 13680, Note_on_c, 0, 57, 80
1, 13907, Note_on_c, 0, 57, 0
1, 13920, Note_on_c, 0, 64, 80
1, 14147, Note_on_c, 0, 64, 0
1, 14160, Note_on_c, 0, 57, 80
1, 14387, Note_on_c, 0, 57, 0
1, 14400, Note_on_c, 0, 64, 80
1, 14627, Note_on_c, 0, 64, 0
1, 14640, Note_on_c, 0, 57, 80
1, 14867, Note_on_c, 0, 57, 0
1, 14880, Note_on_c, 0, 64, 80
1, 15107, Note_on_c, 0, 64, 0
1, 15120, Note_on_c, 0, 57, 80
1, 15347, Note_on_c, 0, 57, 0
1, 15360, Note_on_c, 0, 64, 80
1, 15360, Note_on_c, 0, 69, 80
1, 15360, Note_on_c, 0, 72, 80
1, 16727, Note_on_c, 0, 64, 0
1, 16727, Note_on_c, 0, 69, 0
1, 16727, Note_on_c, 0, 72, 0
1, 17040, Note_on_c, 0, 62, 80
1, 17040, Note_on_c, 0, 67, 80
1, 17040, Note_on_c, 0, 71, 80
1, 19091, Note_on_c, 0, 62, 0
1, 19091, Note_on_c, 0, 67, 0
1, 19091, Note_on_c, 0, 71, 0
1, 19200, Note_on_c, 0, 60, 80
1, 19200, Note_on_c, 0, 65, 80
1, 19200, Note_on_c, 0, 69, 80
1, 22391, Note_on_c, 0, 60, 0
1, 22391, Note_on_c, 0, 65, 0
1, 22391, Note_on_c, 0, 69, 0
1, 22560, Note_on_c, 0, 60, 80
1, 22673, Note_on_c, 0, 60, 0
1, 22680, Note_on_c, 0, 65, 80
1, 22793, Note_on_c, 0, 65, 0
1, 22800, Note_on_c, 0, 69, 80
1, 23027, Note_on_c, 0, 69, 0
1, 23040, Note_on_c, 0, 64, 80
1, 23040, Note_on_c, 0, 69, 80
1, 23040, Note_on_c, 0, 72, 80
1, 24407, Note_on_c, 0, 64, 0
1, 24407, Note_on_c, 0, 69, 0
1, 24407, Note_on_c, 0, 72, 0
1, 24720, Note_on_c, 0, 62, 80
1, 24720, Note_on_c, 0, 67, 80
1, 24720, Note_on_c, 0, 71, 80
1, 26771, Note_on_c, 0, 62, 0
1, 26771, Note_on_c, 0, 67, 0
1, 26771, Note_on_c, 0, 71, 0
1, 26880, Note_on_c, 0, 60, 80
1, 26880, Note_on_c, 0, 65, 80
1, 26880, Note_on_c, 0, 69, 80
1, 30071, Note_on_c, 0, 60, 0
1, 30071, Note_on_c, 0, 65, 0
1, 30071, Note_on_c, 0, 69, 0
1, 30240, Note_on_c, 0, 60, 80
1, 30353, Note_on_c, 0, 60, 0
1, 30360, Note_on_c, 0, 65, 80
1, 30473, Note_on_c, 0, 65, 0
1, 30480, Note_on_c, 0, 69, 80
1, 30707, Note_on_c, 0, 69, 0
1, 30720, Note_on_c, 0, 64, 80
1, 30720, Note_on_c, 0, 69, 80
1, 30720, Note_on_c, 0, 72, 80
1, 31631, Note_on_c, 0, 64, 0
1, 31631, Note_on_c, 0, 69, 0
1, 31631, Note_on_c, 0, 72, 0
1, 31680, Note_on_c, 0, 64, 80
1, 31907, Note_on_c, 0, 64, 0
1, 31920, Note_on_c, 0, 69, 80
1, 32375, Note_on_c, 0, 69, 0
1, 32400, Note_on_c, 0, 62, 80
1, 32400, Note_on_c, 0, 67, 80
1, 32400, Note_on_c, 0, 71, 80
1, 34451, Note_on_c, 0, 62, 0
1, 34451, Note_on_c, 0, 67, 0
1, 34451, Note_on_c, 0, 71, 0
1, 34560, Note_on_c, 0, 60, 80
1, 34560, Note_on_c, 0, 65, 80
1, 34560, Note_on_c, 0, 69, 80
1, 35471, Note_on_c, 0, 60, 0
1, 35471, Note_on_c, 0, 65, 0
1, 35471, Note_on_c, 0, 69, 0
1, 35520, Note_on_c, 0, 64, 80
1, 35747, Note_on_c, 0, 64, 0
1, 35760, Note_on_c, 0, 69, 80
1, 36215, Note_on_c, 0, 69, 0
1, 36240, Note_on_c, 0, 60, 80
1, 36240, Note_on_c, 0, 65, 80
1, 36240, Note_on_c, 0, 71, 80
1, 36695, Note_on_c, 0, 60, 0
1, 36695, Note_on_c, 0, 65, 0
1, 36695, Note_on_c, 0, 71, 0
1, 36720, Note_on_c, 0, 72, 80
1, 37175, Note_on_c, 0, 72, 0
1, 37200, Note_on_c, 0, 65, 80
1, 37200, Note_on_c, 0, 69, 80
1, 37200, Note_on_c, 0, 74, 80
1, 37655, Note_on_c, 0, 65, 0
1, 37655, Note_on_c, 0, 69, 0
1, 37655, Note_on_c, 0, 74, 0
1, 37680, Note_on_c, 0, 72, 80
1, 37907, Note_on_c, 0, 72, 0
1, 37920, Note_on_c, 0, 65, 80
1, 37920, Note_on_c, 0, 69, 80
1, 37920, Note_on_c, 0, 74, 80
1, 38147, Note_on_c, 0, 65, 0
1, 38147, Note_on_c, 0, 69, 0
1, 38147, Note_on_c, 0, 74, 0
1, 38220, Note_on_c, 0, 64, 80
1, 38276, Note_on_c, 0, 64, 0
1, 38280, Note_on_c, 0, 69, 80
1, 38336, Note_on_c, 0, 69, 0
1, 38340, Note_on_c, 0, 72, 80
1, 38396, Note_on_c, 0, 72, 0
1, 38400, Note_on_c, 0, 76, 80
1, 38639, Note_on_c, 0, 76, 0
1, 39900, Note_on_c, 0, 62, 80
1, 39956, Note_on_c, 0, 62, 0
1, 39960, Note_on_c, 0, 67, 80
1, 40016, Note_on_c, 0, 67, 0
1, 40020, Note_on_c, 0, 71, 80
1, 40076, Note_on_c, 0, 71, 0
1, 40080, Note_on_c, 0, 74, 80
1, 40199, Note_on_c, 0, 74, 0
1, 42060, Note_on_c, 0, 60, 80
1, 42116, Note_on_c, 0, 60, 0
1, 42120, Note_on_c, 0, 65, 80
1, 42176, Note_on_c, 0, 65, 0
1, 42180, Note_on_c, 0, 69, 80
1, 42236, Note_on_c, 0, 69, 0
1, 42240, Note_on_c, 0, 72, 80
1, 42479, Note_on_c, 0, 72, 0
1, 44640, Note_on_c, 0, 65, 80
1, 44640, Note_on_c, 0, 72, 80
1, 45095, Note_on_c, 0, 65, 0
1, 45095, Note_on_c, 0, 72, 0
1, 45120, Note_on_c, 0, 65, 80
1, 45120, Note_on_c, 0, 71, 80
1, 45575, Note_on_c, 0, 65, 0
1, 45575, Note_on_c, 0, 71, 0
1, 45600, Note_on_c, 0, 65, 80
1, 45600, Note_on_c, 0, 67, 80
1, 46055, Note_on_c, 0, 65, 0
1, 46055, Note_on_c, 0, 67, 0
1, 46080, Note_on_c, 0, 60, 80
1, 46080, Note_on_c, 0, 64, 80
1, 46080, Note_on_c, 0, 69, 80
1, 46991, Note_on_c, 0, 60, 0
1, 46991, Note_on_c, 0, 64, 0
1, 46991, Note_on_c, 0, 69, 0
1, 47040, Note_on_c, 0, 64, 80
1, 47267, Note_on_c, 0, 64, 0
1, 47280, Note_on_c, 0, 69, 80
1, 47735, Note_on_c, 0, 69, 0
1, 47760, Note_on_c, 0, 62, 80
1, 47760, Note_on_c, 0, 67, 80
1, 47760, Note_on_c, 0, 71, 80
1, 49811, Note_on_c, 0, 62, 0
1, 49811, Note_on_c, 0, 67, 0
1, 49811, Note_on_c, 0, 71, 0
1, 49920, Note_on_c, 0, 60, 80
1, 49920, Note_on_c, 0, 65, 80
1, 49920, Note_on_c, 0, 69, 80
1, 50831, Note_on_c, 0, 60, 0
1, 50831, Note_on_c, 0, 65, 0
1, 50831, Note_on_c, 0, 69, 0
1, 50880, Note_on_c, 0, 64, 80
1, 51107, Note_on_c, 0, 64, 0
1, 51120, Note_on_c, 0, 69, 80
1, 51575, Note_on_c, 0, 69, 0
1, 51600, Note_on_c, 0, 60, 80
1, 51600, Note_on_c, 0, 65, 80
1, 51600, Note_on_c, 0, 71, 80
1, 51827, Note_on_c, 0, 60, 0
1, 51827, Note_on_c, 0, 65, 0
1, 51827, Note_on_c, 0, 71, 0
1, 52080, Note_on_c, 0, 72, 80
1, 52535, Note_on_c, 0, 72, 0
1, 52560, Note_on_c, 0, 65, 80
1, 52560, Note_on_c, 0, 69, 80
1, 52560, Note_on_c, 0, 74, 80
1, 53015, Note_on_c, 0, 65, 0
1, 53015, Note_on_c, 0, 69, 0
1, 53015, Note_on_c, 0, 74, 0
1, 53040, Note_on_c, 0, 72, 80
1, 53267, Note_on_c, 0, 72, 0
1, 53280, Note_on_c, 0, 65, 80
1, 53280, Note_on_c, 0, 69, 80
1, 53280, Note_on_c, 0, 74, 80
1, 53507, Note_on_c, 0, 65, 0
1, 53507, Note_on_c, 0, 69, 0
1, 53507, Note_on_c, 0, 74, 0
1, 53580, Note_on_c, 0, 64, 80
1, 53636, Note_on_c, 0, 64, 0
1, 53640, Note_on_c, 0, 69, 80
1, 53696, Note_on_c, 0, 69, 0
1, 53700, Note_on_c, 0, 72, 80
1, 53756, Note_on_c, 0, 72, 0
1, 53760, Note_on_c, 0, 76, 80
1, 53999, Note_on_c, 0, 76, 0
1, 55260, Note_on_c, 0, 62, 80
1, 55316, Note_on_c, 0, 62, 0
1, 55320, Note_on_c, 0, 67, 80
1, 55376, Note_on_c, 0, 67, 0
1, 55380, Note_on_c, 0, 71, 80
1, 55436, Note_on_c, 0, 71, 0
1, 55440, Note_on_c, 0, 74, 80
1, 55559, Note_on_c, 0, 74, 0
1, 57420, Note_on_c, 0, 60, 80
1, 57476, Note_on_c, 0, 60, 0
1, 57480, Note_on_c, 0, 65, 80
1, 57536, Note_on_c, 0, 65, 0
1, 57540, Note_on_c, 0, 69, 80
1, 57596, Note_on_c, 0, 69, 0
1, 57600, Note_on_c, 0, 72, 80
1, 57839, Note_on_c, 0, 72, 0
1, 59520, Note_on_c, 0, 65, 80
1, 59520, Note_on_c, 0, 69, 80
1, 59520, Note_on_c, 0, 72, 80
1, 60431, Note_on_c, 0, 65, 0
1, 60431, Note_on_c, 0, 69, 0
1, 60431, Note_on_c, 0, 72, 0
1, 60480, Note_on_c, 0, 65, 80
1, 60480, Note_on_c, 0, 69, 80
1, 60480, Note_on_c, 0, 72, 80
1, 60707, Note_on_c, 0, 65, 0
1, 60707, Note_on_c, 0, 69, 0
1, 60707, Note_on_c, 0, 72, 0
1, 60720, Note_on_c, 0, 72, 80
1, 60947, Note_on_c, 0, 72, 0
1, 60960, Note_on_c, 0, 67, 80
1, 60960, Note_on_c, 0, 71, 80
1, 60960, Note_on_c, 0, 74, 80
1, 61187, Note_on_c, 0, 67, 0
1, 61187, Note_on_c, 0, 71, 0
1, 61187, Note_on_c, 0, 74, 0
1, 61200, Note_on_c, 0, 72, 80
1, 61427, Note_on_c, 0, 72, 0
1, 61440, Note_on_c, 0, 67, 80
1, 61440, Note_on_c, 0, 72, 80
1, 61440, Note_on_c, 0, 76, 80
1, 62807, Note_on_c, 0, 67, 0
1, 62807, Note_on_c, 0, 72, 0
1, 62807, Note_on_c, 0, 76, 0
1, 63120, Note_on_c, 0, 67, 80
1, 63120, Note_on_c, 0, 71, 80
1, 63120, Note_on_c, 0, 74, 80
1, 64715, Note_on_c, 0, 67, 0
1, 64715, Note_on_c, 0, 71, 0
1, 64715, Note_on_c, 0, 74, 0
1, 64800, Note_on_c, 0, 67, 80
1, 64800, Note_on_c, 0, 71, 80
1, 64800, Note_on_c, 0, 74, 80
1, 65027, Note_on_c, 0, 67, 0
1, 65027, Note_on_c, 0, 71, 0
1, 65027, Note_on_c, 0, 74, 0
1, 65040, Note_on_c, 0, 71, 80
1, 65040, Note_on_c, 0, 74, 80
1, 65495, Note_on_c, 0, 71, 0
1, 65495, Note_on_c, 0, 74, 0
1, 65520, Note_on_c, 0, 65, 80
1, 65520, Note_on_c, 0, 69, 80
1, 65520, Note_on_c, 0, 72, 80
1, 65747, Note_on_c, 0, 65, 0
1, 65747, Note_on_c, 0, 69, 0
1, 65747, Note_on_c, 0, 72, 0
1, 65760, Note_on_c, 0, 65, 80
1, 65760, Note_on_c, 0, 69, 80
1, 65760, Note_on_c, 0, 72, 80
1, 68039, Note_on_c, 0, 65, 0
1, 68039, Note_on_c, 0, 69, 0
1, 68039, Note_on_c, 0, 72, 0
1, 68160, Note_on_c, 0, 65, 80
1, 68160, Note_on_c, 0, 69, 80
1, 68160, Note_on_c, 0, 72, 80
1, 68387, Note_on_c, 0, 65, 0
1, 68387, Note_on_c, 0, 69, 0
1, 68387, Note_on_c, 0, 72, 0
1, 68400, Note_on_c, 0, 72, 80
1, 68627, Note_on_c, 0, 72, 0
1, 68640, Note_on_c, 0, 67, 80
1, 68640, Note_on_c, 0, 71, 80
1, 68640, Note_on_c, 0, 74, 80
1, 68867, Note_on_c, 0, 67, 0
1, 68867, Note_on_c, 0, 71, 0
1, 68867, Note_on_c, 0, 74, 0
1, 68880, Note_on_c, 0, 72, 80
1, 69107, Note_on_c, 0, 72, 0
1, 69120, Note_on_c, 0, 67, 80
1, 69120, Note_on_c, 0, 72, 80
1, 69120, Note_on_c, 0, 76, 80
1, 70400, Note_on_c, 0, 74, 80
1, 70400, Note_on_c, 0, 77, 80
1, 70487, Note_on_c, 0, 67, 0
1, 70487, Note_on_c, 0, 72, 0
1, 70487, Note_on_c, 0, 76, 0
1, 70703, Note_on_c, 0, 74, 0
1, 70703, Note_on_c, 0, 77, 0
1, 70720, Note_on_c, 0, 72, 80
1, 70720, Note_on_c, 0, 76, 80
1, 71023, Note_on_c, 0, 72, 0
1, 71023, Note_on_c, 0, 76, 0
1, 71040, Note_on_c, 0, 67, 80
1, 71040, Note_on_c, 0, 71, 80
1, 71040, Note_on_c, 0, 74, 80
1, 72407, Note_on_c, 0, 67, 0
1, 72407, Note_on_c, 0, 71, 0
1, 72407, Note_on_c, 0, 74, 0
1, 72480, Note_on_c, 0, 67, 80
1, 72480, Note_on_c, 0, 71, 80
1, 72480, Note_on_c, 0, 74, 80
1, 72707, Note_on_c, 0, 67, 0
1, 72707, Note_on_c, 0, 71, 0
1, 72707, Note_on_c, 0, 74, 0
1, 72720, Note_on_c, 0, 71, 80
1, 72720, Note_on_c, 0, 74, 80
1, 73175, Note_on_c, 0, 71, 0
1, 73175, Note_on_c, 0, 74, 0
1, 73200, Note_on_c, 0, 65, 80
1, 73200, Note_on_c, 0, 69, 80
1, 73200, Note_on_c, 0, 72, 80
1, 73427, Note_on_c, 0, 65, 0
1, 73427, Note_on_c, 0, 69, 0
1, 73427, Note_on_c, 0, 72, 0
1, 73440, Note_on_c, 0, 65, 80
1, 73440, Note_on_c, 0, 69, 80
1, 73440, Note_on_c, 0, 72, 80
1, 74465, Note_on_c, 0, 65, 0
1, 74465, Note_on_c, 0, 69, 0
1, 74465, Note_on_c, 0, 72, 0
1, 74640, Note_on_c, 0, 67, 80
1, 74640, Note_on_c, 0, 71, 80
1, 74640, Note_on_c, 0, 74, 80
1, 75095, Note_on_c, 0, 67, 0
1, 75095, Note_on_c, 0, 71, 0
1, 75095, Note_on_c, 0, 74, 0
1, 75120, Note_on_c, 0, 67, 80
1, 75120, Note_on_c, 0, 72, 80
1, 75120, Note_on_c, 0, 76, 80
1, 75347, Note_on_c, 0, 67, 0
1, 75347, Note_on_c, 0, 72, 0
1, 75347, Note_on_c, 0, 76, 0
1, 75360, Note_on_c, 0, 67, 80
1, 75360, Note_on_c, 0, 72, 80
1, 75360, Note_on_c, 0, 76, 80
1, 75815, Note_on_c, 0, 67, 0
1, 75815, Note_on_c, 0, 72, 0
1, 75815, Note_on_c, 0, 76, 0
1, 75840, Note_on_c, 0, 67, 80
1, 75953, Note_on_c, 0, 67, 0
1, 75960, Note_on_c, 0, 64, 80
1, 76073, Note_on_c, 0, 64, 0
1, 76080, Note_on_c, 0, 60, 80
1, 76193, Note_on_c, 0, 60, 0
1, 76200, Note_on_c, 0, 55, 80
1, 76313, Note_on_c, 0, 55, 0
1, 76320, Note_on_c, 0, 72, 80
1, 76433, Note_on_c, 0, 72, 0
1, 76440, Note_on_c, 0, 67, 80
1, 76553, Note_on_c, 0, 67, 0
1, 76560, Note_on_c, 0, 64, 80
1, 76673, Note_on_c, 0, 64, 0
1, 76680, Note_on_c, 0, 60, 80
1, 76793, Note_on_c, 0, 60, 0
1, 76800, Note_on_c, 0, 76, 80
1, 76913, Note_on_c, 0, 76, 0
1, 76920, Note_on_c, 0, 72, 80
1, 77033, Note_on_c, 0, 72, 0
1, 77040, Note_on_c, 0, 67, 80
1, 77153, Note_on_c, 0, 67, 0
1, 77160, Note_on_c, 0, 64, 80
1, 77273, Note_on_c, 0, 64, 0
1, 77280, Note_on_c, 0, 79, 80
1, 77393, Note_on_c, 0, 79, 0
1, 77400, Note_on_c, 0, 76, 80
1, 77513, Note_on_c, 0, 76, 0
1, 77520, Note_on_c, 0, 72, 80
1, 77633, Note_on_c, 0, 72, 0
1, 77640, Note_on_c, 0, 67, 80
1, 77753, Note_on_c, 0, 67, 0
1, 77760, Note_on_c, 0, 84, 80
1, 77873, Note_on_c, 0, 84, 0
1, 77880, Note_on_c, 0, 79, 80
1, 77993, Note_on_c, 0, 79, 0
1, 78000, Note_on_c, 0, 76, 80
1, 78113, Note_on_c, 0, 76, 0
1, 78120, Note_on_c, 0, 72, 80
1, 78233, Note_on_c, 0, 72, 0
1, 78240, Note_on_c, 0, 76, 80
1, 78240, Note_on_c, 0, 83, 80
1, 78695, Note_on_c, 0, 76, 0
1, 78695, Note_on_c, 0, 83, 0
1, 80640, Note_on_c, 0, 60, 80
1, 80640, Note_on_c, 0, 64, 80
1, 80640, Note_on_c, 0, 69, 80
1, 81095, Note_on_c, 0, 60, 0
1, 81095, Note_on_c, 0, 64, 0
1, 81095, Note_on_c, 0, 69, 0
1, 81120, Note_on_c, 0, 64, 80
1, 81120, Note_on_c, 0, 69, 80
1, 81120, Note_on_c, 0, 74, 80
1, 81575, Note_on_c, 0, 64, 0
1, 81575, Note_on_c, 0, 69, 0
1, 81575, Note_on_c, 0, 74, 0
1, 81600, Note_on_c, 0, 64, 80
1, 81600, Note_on_c, 0, 69, 80
1, 81600, Note_on_c, 0, 72, 80
1, 82283, Note_on_c, 0, 64, 0
1, 82283, Note_on_c, 0, 69, 0
1, 82283, Note_on_c, 0, 72, 0
1, 82320, Note_on_c, 0, 64, 80
1, 82320, Note_on_c, 0, 71, 80
1, 82775, Note_on_c, 0, 64, 0
1, 82775, Note_on_c, 0, 71, 0
1, 82800, Note_on_c, 0, 60, 80
1, 82800, Note_on_c, 0, 64, 80
1, 82800, Note_on_c, 0, 69, 80
1, 83255, Note_on_c, 0, 60, 0
1, 83255, Note_on_c, 0, 64, 0
1, 83255, Note_on_c, 0, 69, 0
1, 83280, Note_on_c, 0, 64, 80
1, 83280, Note_on_c, 0, 71, 80
1, 83735, Note_on_c, 0, 64, 0
1, 83735, Note_on_c, 0, 71, 0
1, 83760, Note_on_c, 0, 64, 80
1, 83760, Note_on_c, 0, 69, 80
1, 83760, Note_on_c, 0, 72, 80
1, 84443, Note_on_c, 0, 64, 0
1, 84443, Note_on_c, 0, 69, 0
1, 84443, Note_on_c, 0, 72, 0
1, 84480, Note_on_c, 0, 60, 80
1, 84480, Note_on_c, 0, 64, 80
1, 84480, Note_on_c, 0, 69, 80
1, 84935, Note_on_c, 0, 60, 0
1, 84935, Note_on_c, 0, 64, 0
1, 84935, Note_on_c, 0, 69, 0
1, 84960, Note_on_c, 0, 64, 80
1, 84960, Note_on_c, 0, 69, 80
1, 84960, Note_on_c, 0, 74, 80
1, 85415, Note_on_c, 0, 64, 0
1, 85415, Note_on_c, 0, 69, 0
1, 85415, Note_on_c, 0, 74, 0
1, 85440, Note_on_c, 0, 64, 80
1, 85440, Note_on_c, 0, 69, 80
1, 85440, Note_on_c, 0, 72, 80
1, 86123, Note_on_c, 0, 64, 0
1, 86123, Note_on_c, 0, 69, 0
1, 86123, Note_on_c, 0, 72, 0
1, 86160, Note_on_c, 0, 64, 80
1, 86160, Note_on_c, 0, 71, 80
1, 86615, Note_on_c, 0, 64, 0
1, 86615, Note_on_c, 0, 71, 0
1, 86640, Note_on_c, 0, 64, 80
1, 86640, Note_on_c, 0, 69, 80
1, 86640, Note_on_c, 0, 72, 80
1, 86867, Note_on_c, 0, 64, 0
1, 86867, Note_on_c, 0, 69, 0
1, 86867, Note_on_c, 0, 72, 0
1, 87000, Note_on_c, 0, 69, 80
1, 87056, Note_on_c, 0, 69, 0
1, 87060, Note_on_c, 0, 72, 80
1, 87116, Note_on_c, 0, 72, 0
1, 87120, Note_on_c, 0, 76, 80
1, 87575, Note_on_c, 0, 76, 0
1, 87600, Note_on_c, 0, 74, 80
1, 87827, Note_on_c, 0, 74, 0
1, 87840, Note_on_c, 0, 64, 80
1, 87840, Note_on_c, 0, 69, 80
1, 87840, Note_on_c, 0, 72, 80
1, 88295, Note_on_c, 0, 64, 0
1, 88295, Note_on_c, 0, 69, 0
1, 88295, Note_on_c, 0, 72, 0
1, 88320, Note_on_c, 0, 60, 80
1, 88320, Note_on_c, 0, 64, 80
1, 88320, Note_on_c, 0, 69, 80
1, 88775, Note_on_c, 0, 60, 0
1, 88775, Note_on_c, 0, 64, 0
1, 88775, Note_on_c, 0, 69, 0
1, 88800, Note_on_c, 0, 64, 80
1, 88800, Note_on_c, 0, 69, 80
1, 88800, Note_on_c, 0, 74, 80
1, 89255, Note_on_c, 0, 64, 0
1, 89255, Note_on_c, 0, 69, 0
1, 89255, Note_on_c, 0, 74, 0
1, 89280, Note_on_c, 0, 64, 80
1, 89280, Note_on_c, 0, 69, 80
1, 89280, Note_on_c, 0, 72, 80
1, 89963, Note_on_c, 0, 64, 0
1, 89963, Note_on_c, 0, 69, 0
1, 89963, Note_on_c, 0, 72, 0
1, 90000, Note_on_c, 0, 64, 80
1, 90000, Note_on_c, 0, 71, 80
1, 90455, Note_on_c, 0, 64, 0
1, 90455, Note_on_c, 0, 71, 0
1, 90480, Note_on_c, 0, 60, 80
1, 90480, Note_on_c, 0, 64, 80
1, 90480, Note_on_c, 0, 69, 80
1, 90935, Note_on_c, 0, 60, 0
1, 90935, Note_on_c, 0, 64, 0
1, 90935, Note_on_c, 0, 69, 0
1, 90960, Note_on_c, 0, 64, 80
1, 90960, Note_on_c, 0, 71, 80
1, 91415, Note_on_c, 0, 64, 0
1, 91415, Note_on_c, 0, 71, 0
1, 91440, Note_on_c, 0, 64, 80
1, 91440, Note_on_c, 0, 69, 80
1, 91440, Note_on_c, 0, 72, 80
1, 92123, Note_on_c, 0, 64, 0
1, 92123, Note_on_c, 0, 69, 0
1, 92123, Note_on_c, 0, 72, 0
1, 92160, Note_on_c, 0, 69, 80
1, 92160, Note_on_c, 0, 76, 80
1, 92615, Note_on_c, 0, 69, 0
1, 92615, Note_on_c, 0, 76, 0
1, 92640, Note_on_c, 0, 74, 80
1, 92867, Note_on_c, 0, 74, 0
1, 92880, Note_on_c, 0, 65, 80
1, 92880, Note_on_c, 0, 69, 80
1, 92880, Note_on_c, 0, 74, 80
1, 93335, Note_on_c, 0, 65, 0
1, 93335, Note_on_c, 0, 69, 0
1, 93335, Note_on_c, 0, 74, 0
1, 93360, Note_on_c, 0, 65, 80
1, 93360, Note_on_c, 0, 69, 80
1, 93360, Note_on_c, 0, 72, 80
1, 93815, Note_on_c, 0, 65, 0
1, 93815, Note_on_c, 0, 69, 0
1, 93815, Note_on_c, 0, 72, 0
1, 93840, Note_on_c, 0, 62, 80
1, 93840, Note_on_c, 0, 67, 80
1, 93840, Note_on_c, 0, 71, 80
1, 94295, Note_on_c, 0, 62, 0
1, 94295, Note_on_c, 0, 67, 0
1, 94295, Note_on_c, 0, 71, 0
1, 94320, Note_on_c, 0, 62, 80
1, 94320, Note_on_c, 0, 67, 80
1, 94320, Note_on_c, 0, 71, 80
1, 94775, Note_on_c, 0, 62, 0
1, 94775, Note_on_c, 0, 67, 0
1, 94775, Note_on_c, 0, 71, 0
1, 94800, Note_on_c, 0, 62, 80
1, 94800, Note_on_c, 0, 67, 80
1, 94800, Note_on_c, 0, 71, 80
1, 95255, Note_on_c, 0, 62, 0
1, 95255, Note_on_c, 0, 67, 0
1, 95255, Note_on_c, 0, 71, 0
1, 95280, Note_on_c, 0, 60, 80
1, 95280, Note_on_c, 0, 69, 80
1, 95280, Note_on_c, 0, 72, 80
1, 95507, Note_on_c, 0, 60, 0
1, 95507, Note_on_c, 0, 69, 0
1, 95507, Note_on_c, 0, 72, 0
1, 95520, Note_on_c, 0, 60, 80
1, 95520, Note_on_c, 0, 69, 80
1, 95520, Note_on_c, 0, 72, 80
1, 95975, Note_on_c, 0, 60, 0
1, 95975, Note_on_c, 0, 69, 0
1, 95975, Note_on_c, 0, 72, 0
1, 96000, Note_on_c, 0, 60, 80
1, 96000, Note_on_c, 0, 64, 80
1, 96000, Note_on_c, 0, 69, 80
1, 96455, Note_on_c, 0, 60, 0
1, 96455, Note_on_c, 0, 64, 0
1, 96455, Note_on_c, 0, 69, 0
1, 96480, Note_on_c, 0, 64, 80
1, 96480, Note_on_c, 0, 69, 80
1, 96480, Note_on_c, 0, 74, 80
1, 96935, Note_on_c, 0, 64, 0
1, 96935, Note_on_c, 0, 69, 0
1, 96935, Note_on_c, 0, 74, 0
1, 96960, Note_on_c, 0, 64, 80
1, 96960, Note_on_c, 0, 69, 80
1, 96960, Note_on_c, 0, 72, 80
1, 97643, Note_on_c, 0, 64, 0
1, 97643, Note_on_c, 0, 69, 0
1, 97643, Note_on_c, 0, 72, 0
1, 97680, Note_on_c, 0, 64, 80
1, 97680, Note_on_c, 0, 71, 80
1, 98135, Note_on_c, 0, 64, 0
1, 98135, Note_on_c, 0, 71, 0
1, 98160, Note_on_c, 0, 60, 80
1, 98160, Note_on_c, 0, 64, 80
1, 98160, Note_on_c, 0, 69, 80
1, 98615, Note_on_c, 0, 60, 0
1, 98615, Note_on_c, 0, 64, 0
1, 98615, Note_on_c, 0, 69, 0
1, 98640, Note_on_c, 0, 64, 80
1, 98640, Note_on_c, 0, 71, 80
1, 99095, Note_on_c, 0, 64, 0
1, 99095, Note_on_c, 0, 71, 0
1, 99120, Note_on_c, 0, 64, 80
1, 99120, Note_on_c, 0, 69, 80
1, 99120, Note_on_c, 0, 72, 80
1, 99803, Note_on_c, 0, 64, 0
1, 99803, Note_on_c, 0, 69, 0
1, 99803, Note_on_c, 0, 72, 0
1, 99840, Note_on_c, 0, 60, 80
1, 99840, Note_on_c, 0, 64, 80
1, 99840, Note_on_c, 0, 69, 80
1, 100295, Note_on_c, 0, 60, 0
1, 100295, Note_on_c, 0, 64, 0
1, 100295, Note_on_c, 0, 69, 0
1, 100320, Note_on_c, 0, 64, 80
1, 100320, Note_on_c, 0, 69, 80
1, 100320, Note_on_c, 0, 74, 80
1, 100775, Note_on_c, 0, 64, 0
1, 100775, Note_on_c, 0, 69, 0
1, 100775, Note_on_c, 0, 74, 0
1, 100800, Note_on_c, 0, 64, 80
1, 100800, Note_on_c, 0, 69, 80
1, 100800, Note_on_c, 0, 72, 80
1, 101483, Note_on_c, 0, 64, 0
1, 101483, Note_on_c, 0, 69, 0
1, 101483, Note_on_c, 0, 72, 0
1, 101520, Note_on_c, 0, 64, 80
1, 101520, Note_on_c, 0, 71, 80
1, 101975, Note_on_c, 0, 64, 0
1, 101975, Note_on_c, 0, 71, 0
1, 102000, Note_on_c, 0, 64, 80
1, 102000, Note_on_c, 0, 69, 80
1, 102000, Note_on_c, 0, 72, 80
1, 102227, Note_on_c, 0, 64, 0
1, 102227, Note_on_c, 0, 69, 0
1, 102227, Note_on_c, 0, 72, 0
1, 102360, Note_on_c, 0, 69, 80
1, 102416, Note_on_c, 0, 69, 0
1, 102420, Note_on_c, 0, 72, 80
1, 102476, Note_on_c, 0, 72, 0
1, 102480, Note_on_c, 0, 76, 80
1, 102935, Note_on_c, 0, 76, 0
1, 102960, Note_on_c, 0, 74, 80
1, 103187, Note_on_c, 0, 74, 0
1, 103200, Note_on_c, 0, 64, 80
1, 103200, Note_on_c, 0, 69, 80
1, 103200, Note_on_c, 0, 72, 80
1, 103655, Note_on_c, 0, 64, 0
1, 103655, Note_on_c, 0, 69, 0
1, 103655, Note_on_c, 0, 72, 0
1, 103680, Note_on_c, 0, 60, 80
1, 103680, Note_on_c, 0, 64, 80
1, 103680, Note_on_c, 0, 69, 80
1, 104135, Note_on_c, 0, 60, 0
1, 104135, Note_on_c, 0, 64, 0
1, 104135, Note_on_c, 0, 69, 0
1, 104160, Note_on_c, 0, 64, 80
1, 104160, Note_on_c, 0, 69, 80
1, 104160, Note_on_c, 0, 74, 80
1, 104615, Note_on_c, 0, 64, 0
1, 104615, Note_on_c, 0, 69, 0
1, 104615, Note_on_c, 0, 74, 0
1, 104640, Note_on_c, 0, 64, 80
1, 104640, Note_on_c, 0, 69, 80
1, 104640, Note_on_c, 0, 72, 80
1, 105323, Note_on_c, 0, 64, 0
1, 105323, Note_on_c, 0, 69, 0
1, 105323, Note_on_c, 0, 72, 0
1, 105360, Note_on_c, 0, 64, 80
1, 105360, Note_on_c, 0, 71, 80
1, 105815, Note_on_c, 0, 64, 0
1, 105815, Note_on_c, 0, 71, 0
1, 105840, Note_on_c, 0, 60, 80
1, 105840, Note_on_c, 0, 64, 80
1, 105840, Note_on_c, 0, 69, 80
1, 106295, Note_on_c, 0, 60, 0
1, 106295, Note_on_c, 0, 64, 0
1, 106295, Note_on_c, 0, 69, 0
1, 106320, Note_on_c, 0, 64, 80
1, 106320, Note_on_c, 0, 71, 80
1, 106775, Note_on_c, 0, 64, 0
1, 106775, Note_on_c, 0, 71, 0
1, 106800, Note_on_c, 0, 64, 80
1, 106800, Note_on_c, 0, 69, 80
1, 106800, Note_on_c, 0, 72, 80
1, 107027, Note_on_c, 0, 64, 0
1, 107027, Note_on_c, 0, 69, 0
1, 107027, Note_on_c, 0, 72, 0
1, 107340, Note_on_c, 0, 65, 80
1, 107396, Note_on_c, 0, 65, 0
1, 107400, Note_on_c, 0, 69, 80
1, 107456, Note_on_c, 0, 69, 0
1, 107460, Note_on_c, 0, 72, 80
1, 107516, Note_on_c, 0, 72, 0
1, 107520, Note_on_c, 0, 76, 80
1, 107975, Note_on_c, 0, 76, 0
1, 108000, Note_on_c, 0, 74, 80
1, 108227, Note_on_c, 0, 74, 0
1, 108240, Note_on_c, 0, 65, 80
1, 108240, Note_on_c, 0, 69, 80
1, 108240, Note_on_c, 0, 74, 80
1, 108695, Note_on_c, 0, 65, 0
1, 108695, Note_on_c, 0, 69, 0
1, 108695, Note_on_c, 0, 74, 0
1, 108720, Note_on_c, 0, 65, 80
1, 108720, Note_on_c, 0, 69, 80
1, 108720, Note_on_c, 0, 72, 80
1, 109175, Note_on_c, 0, 65, 0
1, 109175, Note_on_c, 0, 69, 0
1, 109175, Note_on_c, 0, 72, 0
1, 109200, Note_on_c, 0, 62, 80
1, 109200, Note_on_c, 0, 67, 80
1, 109200, Note_on_c, 0, 71, 80
1, 109655, Note_on_c, 0, 62, 0
1, 109655, Note_on_c, 0, 67, 0
1, 109655, Note_on_c, 0, 71, 0
1, 109680, Note_on_c, 0, 62, 80
1, 109680, Note_on_c, 0, 67, 80
1, 109680, Note_on_c, 0, 71, 80
1, 110135, Note_on_c, 0, 62, 0
1, 110135, Note_on_c, 0, 67, 0
1, 110135, Note_on_c, 0, 71, 0
1, 110160, Note_on_c, 0, 62, 80
1, 110160, Note_on_c, 0, 67, 80
1, 110160, Note_on_c, 0, 71, 80
1, 110615, Note_on_c, 0, 62, 0
1, 110615, Note_on_c, 0, 67, 0
1, 110615, Note_on_c, 0, 71, 0
1, 110640, Note_on_c, 0, 60, 80
1, 110640, Note_on_c, 0, 69, 80
1, 110640, Note_on_c, 0, 72, 80
1, 110867, Note_on_c, 0, 60, 0
1, 110867, Note_on_c, 0, 69, 0
1, 110867, Note_on_c, 0, 72, 0
1, 110880, Note_on_c, 0, 60, 80
1, 110880, Note_on_c, 0, 69, 80
1, 110880, Note_on_c, 0, 72, 80
1, 111335, Note_on_c, 0, 60, 0
1, 111335, Note_on_c, 0, 69, 0
1, 111335, Note_on_c, 0, 72, 0
1, 111360, Note_on_c, 0, 60, 80
1, 111360, Note_on_c, 0, 64, 80
1, 112271, Note_on_c, 0, 60, 0
1, 112271, Note_on_c, 0, 64, 0
1, 112320, Note_on_c, 0, 60, 80
1, 112320, Note_on_c, 0, 64, 80
1, 112320, Note_on_c, 0, 69, 80
1, 114143, Note_on_c, 0, 60, 0
1, 114143, Note_on_c, 0, 64, 0
1, 114143, Note_on_c, 0, 69, 0
1, 114240, Note_on_c, 0, 60, 80
1, 114240, Note_on_c, 0, 64, 80
1, 114240, Note_on_c, 0, 71, 80
1, 114695, Note_on_c, 0, 60, 0
1, 114695, Note_on_c, 0, 64, 0
1, 114695, Note_on_c, 0, 71, 0
1, 114720, Note_on_c, 0, 64, 80
1, 114720, Note_on_c, 0, 69, 80
1, 114720, Note_on_c, 0, 72, 80
1, 115175, Note_on_c, 0, 64, 0
1, 115175, Note_on_c, 0, 69, 0
1, 115175, Note_on_c, 0, 72, 0
1, 115200, Note_on_c, 0, 60, 80
1, 115200, Note_on_c, 0, 64, 80
1, 116111, Note_on_c, 0, 60, 0
1, 116111, Note_on_c, 0, 64, 0
1, 116160, Note_on_c, 0, 60, 80
1, 116160, Note_on_c, 0, 64, 80
1, 116160, Note_on_c, 0, 69, 80
1, 117983, Note_on_c, 0, 60, 0
1, 117983, Note_on_c, 0, 64, 0
1, 117983, Note_on_c, 0, 69, 0
1, 118080, Note_on_c, 0, 60, 80
1, 118080, Note_on_c, 0, 64, 80
1, 118080, Note_on_c, 0, 71, 80
1, 118535, Note_on_c, 0, 60, 0
1, 118535, Note_on_c, 0, 64, 0
1, 118535, Note_on_c, 0, 71, 0
1, 118560, Note_on_c, 0, 64, 80
1, 118560, Note_on_c, 0, 69, 80
1, 118560, Note_on_c, 0, 72, 80
1, 118787, Note_on_c, 0, 64, 0
1, 118787, Note_on_c, 0, 69, 0
1, 118787, Note_on_c, 0, 72, 0
1, 118860, Note_on_c, 0, 62, 80
1, 118916, Note_on_c, 0, 62, 0
1, 118920, Note_on_c, 0, 64, 80
1, 118976, Note_on_c, 0, 64, 0
1, 118980, Note_on_c, 0, 69, 80
1, 119036, Note_on_c, 0, 69, 0
1, 119040, Note_on_c, 0, 74, 80
1, 119951, Note_on_c, 0, 74, 0
1, 120000, Note_on_c, 0, 60, 80
1, 120000, Note_on_c, 0, 64, 80
1, 120000, Note_on_c, 0, 69, 80
1, 121823, Note_on_c, 0, 60, 0
1, 121823, Note_on_c, 0, 64, 0
1, 121823, Note_on_c, 0, 69, 0
1, 121920, Note_on_c, 0, 60, 80
1, 121920, Note_on_c, 0, 65, 80
1, 121920, Note_on_c, 0, 71, 80
1, 122375, Note_on_c, 0, 60, 0
1, 122375, Note_on_c, 0, 65, 0
1, 122375, Note_on_c, 0, 71, 0
1, 122400, Note_on_c, 0, 65, 80
1, 122400, Note_on_c, 0, 69, 80
1, 122400, Note_on_c, 0, 72, 80
1, 122855, Note_on_c, 0, 65, 0
1, 122855, Note_on_c, 0, 69, 0
1, 122855, Note_on_c, 0, 72, 0
1, 122880, Note_on_c, 0, 65, 80
1, 122880, Note_on_c, 0, 69, 80
1, 122880, Note_on_c, 0, 74, 80
1, 122993, Note_on_c, 0, 65, 0
1, 122993, Note_on_c, 0, 69, 0
1, 122993, Note_on_c, 0, 74, 0
1, 123000, Note_on_c, 0, 76, 80
1, 123113, Note_on_c, 0, 76, 0
1, 123120, Note_on_c, 0, 74, 80
1, 123233, Note_on_c, 0, 74, 0
1, 123240, Note_on_c, 0, 72, 80
1, 123353, Note_on_c, 0, 72, 0
1, 123360, Note_on_c, 0, 65, 80
1, 123360, Note_on_c, 0, 69, 80
1, 123360, Note_on_c, 0, 74, 80
1, 124271, Note_on_c, 0, 65, 0
1, 124271, Note_on_c, 0, 69, 0
1, 124271, Note_on_c, 0, 74, 0
1, 124320, Note_on_c, 0, 62, 80
1, 124320, Note_on_c, 0, 72, 80
1, 124547, Note_on_c, 0, 62, 0
1, 124547, Note_on_c, 0, 72, 0
1, 124560, Note_on_c, 0, 62, 80
1, 124560, Note_on_c, 0, 67, 80
1, 124560, Note_on_c, 0, 71, 80
1, 125015, Note_on_c, 0, 62, 0
1, 125015, Note_on_c, 0, 67, 0
1, 125015, Note_on_c, 0, 71, 0
1, 125040, Note_on_c, 0, 72, 80
1, 125267, Note_on_c, 0, 72, 0
1, 125280, Note_on_c, 0, 62, 80
1, 125280, Note_on_c, 0, 69, 80
1, 125507, Note_on_c, 0, 62, 0
1, 125507, Note_on_c, 0, 69, 0
1, 125520, Note_on_c, 0, 65, 80
1, 125747, Note_on_c, 0, 65, 0
1, 125760, Note_on_c, 0, 64, 80
1, 126215, Note_on_c, 0, 64, 0
1, 126240, Note_on_c, 0, 69, 80
1, 126695, Note_on_c, 0, 69, 0
1, 126720, Note_on_c, 0, 60, 80
1, 126720, Note_on_c, 0, 64, 80
1, 127631, Note_on_c, 0, 60, 0
1, 127631, Note_on_c, 0, 64, 0
1, 127680, Note_on_c, 0, 60, 80
1, 127680, Note_on_c, 0, 64, 80
1, 127680, Note_on_c, 0, 69, 80
1, 129503, Note_on_c, 0, 60, 0
1, 129503, Note_on_c, 0, 64, 0
1, 129503, Note_on_c, 0, 69, 0
1, 129600, Note_on_c, 0, 60, 80
1, 129600, Note_on_c, 0, 64, 80
1, 129600, Note_on_c, 0, 71, 80
1, 130055, Note_on_c, 0, 60, 0
1, 130055, Note_on_c, 0, 64, 0
1, 130055, Note_on_c, 0, 71, 0
1, 130080, Note_on_c, 0, 60, 80
1, 130080, Note_on_c, 0, 64, 80
1, 130080, Note_on_c, 0, 69, 80
1, 130080, Note_on_c, 0, 72, 80
1, 130535, Note_on_c, 0, 60, 0
1, 130535, Note_on_c, 0, 64, 0
1, 130535, Note_on_c, 0, 69, 0
1, 130535, Note_on_c, 0, 72, 0
1, 130560, Note_on_c, 0, 60, 80
1, 130560, Note_on_c, 0, 64, 80
1, 131471, Note_on_c, 0, 60, 0
1, 131471, Note_on_c, 0, 64, 0
1, 131520, Note_on_c, 0, 60, 80
1, 131520, Note_on_c, 0, 64, 80
1, 131520, Note_on_c, 0, 69, 80
1, 133343, Note_on_c, 0, 60, 0
1, 133343, Note_on_c, 0, 64, 0
1, 133343, Note_on_c, 0, 69, 0
1, 133440, Note_on_c, 0, 60, 80
1, 133440, Note_on_c, 0, 64, 80
1, 133440, Note_on_c, 0, 71, 80
1, 133895, Note_on_c, 0, 60, 0
1, 133895, Note_on_c, 0, 64, 0
1, 133895, Note_on_c, 0, 71, 0
1, 133920, Note_on_c, 0, 60, 80
1, 133920, Note_on_c, 0, 64, 80
1, 133920, Note_on_c, 0, 69, 80
1, 133920, Note_on_c, 0, 72, 80
1, 134375, Note_on_c, 0, 60, 0
1, 134375, Note_on_c, 0, 64, 0
1, 134375, Note_on_c, 0, 69, 0
1, 134375, Note_on_c, 0, 72, 0
1, 134400, Note_on_c, 0, 64, 80
1, 134400, Note_on_c, 0, 69, 80
1, 134400, Note_on_c, 0, 74, 80
1, 135083, Note_on_c, 0, 64, 0
1, 135083, Note_on_c, 0, 69, 0
1, 135083, Note_on_c, 0, 74, 0
1, 135120, Note_on_c, 0, 72, 80
1, 135347, Note_on_c, 0, 72, 0
1, 135360, Note_on_c, 0, 60, 80
1, 135360, Note_on_c, 0, 64, 80
1, 135360, Note_on_c, 0, 69, 80
1, 135587, Note_on_c, 0, 60, 0
1, 135587, Note_on_c, 0, 64, 0
1, 135587, Note_on_c, 0, 69, 0
1, 135600, Note_on_c, 0, 65, 80
1, 135713, Note_on_c, 0, 65, 0
1, 135720, Note_on_c, 0, 69, 80
1, 135833, Note_on_c, 0, 69, 0
1, 135840, Note_on_c, 0, 74, 80
1, 135953, Note_on_c, 0, 74, 0
1, 135960, Note_on_c, 0, 72, 80
1, 136073, Note_on_c, 0, 72, 0
1, 136080, Note_on_c, 0, 71, 80
1, 136193, Note_on_c, 0, 71, 0
1, 136200, Note_on_c, 0, 72, 80
1, 136313, Note_on_c, 0, 72, 0
1, 136320, Note_on_c, 0, 74, 80
1, 136433, Note_on_c, 0, 74, 0
1, 136440, Note_on_c, 0, 72, 80
1, 136553, Note_on_c, 0, 72, 0
1, 136560, Note_on_c, 0, 71, 80
1, 136673, Note_on_c, 0, 71, 0
1, 136680, Note_on_c, 0, 72, 80
1, 136793, Note_on_c, 0, 72, 0
1, 136800, Note_on_c, 0, 76, 80
1, 136919, Note_on_c, 0, 76, 0
1, 137040, Note_on_c, 0, 76, 80
1, 137159, Note_on_c, 0, 76, 0
1, 137280, Note_on_c, 0, 76, 80
1, 137393, Note_on_c, 0, 76, 0
1, 137400, Note_on_c, 0, 74, 80
1, 137513, Note_on_c, 0, 74, 0
1, 137520, Note_on_c, 0, 72, 80
1, 137633, Note_on_c, 0, 72, 0
1, 137640, Note_on_c, 0, 71, 80
1, 137753, Note_on_c, 0, 71, 0
1, 137760, Note_on_c, 0, 65, 80
1, 137760, Note_on_c, 0, 72, 80
1, 137873, Note_on_c, 0, 65, 0
1, 137873, Note_on_c, 0, 72, 0
1, 137880, Note_on_c, 0, 71, 80
1, 137993, Note_on_c, 0, 71, 0
1, 138000, Note_on_c, 0, 69, 80
1, 138113, Note_on_c, 0, 69, 0
1, 138120, Note_on_c, 0, 67, 80
1, 138233, Note_on_c, 0, 67, 0
1, 138240, Note_on_c, 0, 62, 80
1, 138240, Note_on_c, 0, 67, 80
1, 138467, Note_on_c, 0, 62, 0
1, 138467, Note_on_c, 0, 67, 0
1, 138480, Note_on_c, 0, 57, 80
1, 138707, Note_on_c, 0, 57, 0
1, 138720, Note_on_c, 0, 67, 80
1, 138833, Note_on_c, 0, 67, 0
1, 138840, Note_on_c, 0, 65, 80
1, 138953, Note_on_c, 0, 65, 0
1, 138960, Note_on_c, 0, 64, 80
1, 139073, Note_on_c, 0, 64, 0
1, 139080, Note_on_c, 0, 62, 80
1, 139193, Note_on_c, 0, 62, 0
1, 139200, Note_on_c, 0, 60, 80
1, 139313, Note_on_c, 0, 60, 0
1, 139320, Note_on_c, 0, 65, 80
1, 139433, Note_on_c, 0, 65, 0
1, 139440, Note_on_c, 0, 64, 80
1, 139553, Note_on_c, 0, 64, 0
1, 139560, Note_on_c, 0, 62, 80
1, 139673, Note_on_c, 0, 62, 0
1, 139680, Note_on_c, 0, 60, 80
1, 139793, Note_on_c, 0, 60, 0
1, 139800, Note_on_c, 0, 59, 80
1, 139913, Note_on_c, 0, 59, 0
1, 139920, Note_on_c, 0, 57, 80
1, 140033, Note_on_c, 0, 57, 0
1, 140040, Note_on_c, 0, 60, 80
1, 140153, Note_on_c, 0, 60, 0
1, 140160, Note_on_c, 0, 62, 80
1, 140160, Note_on_c, 0, 67, 80
1, 140339, Note_on_c, 0, 62, 0
1, 140339, Note_on_c, 0, 67, 0
1, 140520, Note_on_c, 0, 62, 80
1, 140633, Note_on_c, 0, 62, 0
1, 140640, Note_on_c, 0, 67, 80
1, 140753, Note_on_c, 0, 67, 0
1, 140760, Note_on_c, 0, 62, 80
1, 140879, Note_on_c, 0, 62, 0
1, 141000, Note_on_c, 0, 62, 80
1, 141113, Note_on_c, 0, 62, 0
1, 141120, Note_on_c, 0, 62, 80
1, 141120, Note_on_c, 0, 67, 80
1, 141347, Note_on_c, 0, 62, 0
1, 141347, Note_on_c, 0, 67, 0
1, 141360, Note_on_c, 0, 67, 80
1, 141473, Note_on_c, 0, 67, 0
1, 141480, Note_on_c, 0, 62, 80
1, 141593, Note_on_c, 0, 62, 0
1, 141600, Note_on_c, 0, 67, 80
1, 141713, Note_on_c, 0, 67, 0
1, 141720, Note_on_c, 0, 62, 80
1, 141839, Note_on_c, 0, 62, 0
1, 141960, Note_on_c, 0, 62, 80
1, 142073, Note_on_c, 0, 62, 0
1, 142080, Note_on_c, 0, 60, 80
1, 142080, Note_on_c, 0, 64, 80
1, 142080, Note_on_c, 0, 69, 80
1, 142307, Note_on_c, 0, 60, 0
1, 142307, Note_on_c, 0, 64, 0
1, 142307, Note_on_c, 0, 69, 0
1, 142320, Note_on_c, 0, 69, 80
1, 142547, Note_on_c, 0, 69, 0
1, 142560, Note_on_c, 0, 76, 80
1, 142787, Note_on_c, 0, 76, 0
1, 142800, Note_on_c, 0, 69, 80
1, 143027, Note_on_c, 0, 69, 0
1, 143040, Note_on_c, 0, 83, 80
1, 143267, Note_on_c, 0, 83, 0
1, 143280, Note_on_c, 0, 69, 80
1, 143507, Note_on_c, 0, 69, 0
1, 143520, Note_on_c, 0, 76, 80
1, 143747, Note_on_c, 0, 76, 0
1, 143760, Note_on_c, 0, 69, 80
1, 143987, Note_on_c, 0, 69, 0
1, 144000, Note_on_c, 0, 84, 80
1, 144227, Note_on_c, 0, 84, 0
1, 144240, Note_on_c, 0, 69, 80
1, 144467, Note_on_c, 0, 69, 0
1, 144480, Note_on_c, 0, 76, 80
1, 144707, Note_on_c, 0, 76, 0
1, 144720, Note_on_c, 0, 69, 80
1, 144947, Note_on_c, 0, 69, 0
1, 144960, Note_on_c, 0, 76, 80
1, 145187, Note_on_c, 0, 76, 0
1, 145200, Note_on_c, 0, 69, 80
1, 145427, Note_on_c, 0, 69, 0
1, 145440, Note_on_c, 0, 76, 80
1, 145667, Note_on_c, 0, 76, 0
1, 145680, Note_on_c, 0, 69, 80
1, 145907, Note_on_c, 0, 69, 0
1, 145920, Note_on_c, 0, 81, 80
1, 146147, Note_on_c, 0, 81, 0
1, 146160, Note_on_c, 0, 69, 80
1, 146387, Note_on_c, 0, 69, 0
1, 146400, Note_on_c, 0, 76, 80
1, 146627, Note_on_c, 0, 76, 0
1, 146640, Note_on_c, 0, 69, 80
1, 146867, Note_on_c, 0, 69, 0
1, 146880, Note_on_c, 0, 83, 80
1, 147107, Note_on_c, 0, 83, 0
1, 147120, Note_on_c, 0, 69, 80
1, 147347, Note_on_c, 0, 69, 0
1, 147360, Note_on_c, 0, 76, 80
1, 147587, Note_on_c, 0, 76, 0
1, 147600, Note_on_c, 0, 69, 80
1, 147827, Note_on_c, 0, 69, 0
1, 147840, Note_on_c, 0, 84, 80
1, 148067, Note_on_c, 0, 84, 0
1, 148080, Note_on_c, 0, 69, 80
1, 148307, Note_on_c, 0, 69, 0
1, 148320, Note_on_c, 0, 76, 80
1, 148547, Note_on_c, 0, 76, 0
1, 148560, Note_on_c, 0, 69, 80
1, 148787, Note_on_c, 0, 69, 0
1, 148800, Note_on_c, 0, 76, 80
1, 149027, Note_on_c, 0, 76, 0
1, 149040, Note_on_c, 0, 69, 80
1, 149267, Note_on_c, 0, 69, 0
1, 149280, Note_on_c, 0, 76, 80
1, 149507, Note_on_c, 0, 76, 0
1, 149520, Note_on_c, 0, 69, 80
1, 149747, Note_on_c, 0, 69, 0
1, 149760, Note_on_c, 0, 81, 80
1, 149987, Note_on_c, 0, 81, 0
1, 150000, Note_on_c, 0, 69, 80
1, 150227, Note_on_c, 0, 69, 0
1, 150240, Note_on_c, 0, 76, 80
1, 150467, Note_on_c, 0, 76, 0
1, 150480, Note_on_c, 0, 69, 80
1, 150707, Note_on_c, 0, 69, 0
1, 150720, Note_on_c, 0, 83, 80
1, 150947, Note_on_c, 0, 83, 0
1, 150960, Note_on_c, 0, 69, 80
1, 151187, Note_on_c, 0, 69, 0
1, 151200, Note_on_c, 0, 76, 80
1, 151427, Note_on_c, 0, 76, 0
1, 151440, Note_on_c, 0, 69, 80
1, 151667, Note_on_c, 0, 69, 0
1, 151680, Note_on_c, 0, 84, 80
1, 151907, Note_on_c, 0, 84, 0
1, 151920, Note_on_c, 0, 69, 80
1, 152147, Note_on_c, 0, 69, 0
1, 152160, Note_on_c, 0, 76, 80
1, 152387, Note_on_c, 0, 76, 0
1, 152400, Note_on_c, 0, 69, 80
1, 152627, Note_on_c, 0, 69, 0
1, 152640, Note_on_c, 0, 76, 80
1, 152867, Note_on_c, 0, 76, 0
1, 152880, Note_on_c, 0, 69, 80
1, 153107, Note_on_c, 0, 69, 0
1, 153120, Note_on_c, 0, 76, 80
1, 153347, Note_on_c, 0, 76, 0
1, 153360, Note_on_c, 0, 69, 80
1, 153587, Note_on_c, 0, 69, 0
1, 153600, Note_on_c, 0, 81, 80
1, 153827, Note_on_c, 0, 81, 0
1, 153840, Note_on_c, 0, 69, 80
1, 154067, Note_on_c, 0, 69, 0
1, 154080, Note_on_c, 0, 76, 80
1, 154307, Note_on_c, 0, 76, 0
1, 154320, Note_on_c, 0, 69, 80
1, 154547, Note_on_c, 0, 69, 0
1, 154560, Note_on_c, 0, 83, 80
1, 154787, Note_on_c, 0, 83, 0
1, 154800, Note_on_c, 0, 69, 80
1, 155027, Note_on_c, 0, 69, 0
1, 155040, Note_on_c, 0, 76, 80
1, 155267, Note_on_c, 0, 76, 0
1, 155280, Note_on_c, 0, 69, 80
1, 155507, Note_on_c, 0, 69, 0
1, 155520, Note_on_c, 0, 84, 80
1, 155747, Note_on_c, 0, 84, 0
1, 155760, Note_on_c, 0, 69, 80
1, 155987, Note_on_c, 0, 69, 0
1, 156000, Note_on_c, 0, 76, 80
1, 156227, Note_on_c, 0, 76, 0
1, 156240, Note_on_c, 0, 69, 80
1, 156467, Note_on_c, 0, 69, 0
1, 156480, Note_on_c, 0, 76, 80
1, 156707, Note_on_c, 0, 76, 0
1, 156720, Note_on_c, 0, 69, 80
1, 156947, Note_on_c, 0, 69, 0
1, 156960, Note_on_c, 0, 76, 80
1, 157187, Note_on_c, 0, 76, 0
1, 157200, Note_on_c, 0, 69, 80
1, 157427, Note_on_c, 0, 69, 0
1, 157440, Note_on_c, 0, 81, 80
1, 157667, Note_on_c, 0, 81, 0
1, 157680, Note_on_c, 0, 69, 80
1, 157907, Note_on_c, 0, 69, 0
1, 157920, Note_on_c, 0, 76, 80
1, 158147, Note_on_c, 0, 76, 0
1, 158160, Note_on_c, 0, 69, 80
1, 158387, Note_on_c, 0, 69, 0
1, 158400, Note_on_c, 0, 83, 80
1, 158627, Note_on_c, 0, 83, 0
1, 158640, Note_on_c, 0, 69, 80
1, 158867, Note_on_c, 0, 69, 0
1, 158880, Note_on_c, 0, 76, 80
1, 159107, Note_on_c, 0, 76, 0
1, 159120, Note_on_c, 0, 69, 80
1, 159347, Note_on_c, 0, 69, 0
1, 159360, Note_on_c, 0, 84, 80
1, 159587, Note_on_c, 0, 84, 0
1, 159600, Note_on_c, 0, 69, 80
1, 159827, Note_on_c, 0, 69, 0
1, 159840, Note_on_c, 0, 76, 80
1, 160067, Note_on_c, 0, 76, 0
1, 160080, Note_on_c, 0, 69, 80
1, 160307, Note_on_c, 0, 69, 0
1, 160320, Note_on_c, 0, 76, 80
1, 160547, Note_on_c, 0, 76, 0
1, 160560, Note_on_c, 0, 69, 80
1, 160787, Note_on_c, 0, 69, 0
1, 160800, Note_on_c, 0, 76, 80
1, 161027, Note_on_c, 0, 76, 0
1, 161040, Note_on_c, 0, 69, 80
1, 161267, Note_on_c, 0, 69, 0
1, 161280, Note_on_c, 0, 81, 80
1, 161507, Note_on_c, 0, 81, 0
1, 161520, Note_on_c, 0, 69, 80
1, 161747, Note_on_c, 0, 69, 0
1, 161760, Note_on_c, 0, 76, 80
1, 161987, Note_on_c, 0, 76, 0
1, 162000, Note_on_c, 0, 69, 80
1, 162227, Note_on_c, 0, 69, 0
1, 162240, Note_on_c, 0, 83, 80
1, 162467, Note_on_c, 0, 83, 0
1, 162480, Note_on_c, 0, 69, 80
1, 162707, Note_on_c, 0, 69, 0
1, 162720, Note_on_c, 0, 76, 80
1, 162947, Note_on_c, 0, 76, 0
1, 162960, Note_on_c, 0, 69, 80
1, 163187, Note_on_c, 0, 69, 0
1, 163200, Note_on_c, 0, 84, 80
1, 163427, Note_on_c, 0, 84, 0
1, 163440, Note_on_c, 0, 69, 80
1, 163667, Note_on_c, 0, 69, 0
1, 163680, Note_on_c, 0, 76, 80
1, 163907, Note_on_c, 0, 76, 0
1, 163920, Note_on_c, 0, 69, 80
1, 164147, Note_on_c, 0, 69, 0
1, 164160, Note_on_c, 0, 76, 80
1, 164387, Note_on_c, 0, 76, 0
1, 164400, Note_on_c, 0, 69, 80
1, 164627, Note_on_c, 0, 69, 0
1, 164640, Note_on_c, 0, 76, 80
1, 164867, Note_on_c, 0, 76, 0
1, 164880, Note_on_c, 0, 69, 80
1, 165107, Note_on_c, 0, 69, 0
1, 165120, Note_on_c, 0, 81, 80
1, 165347, Note_on_c, 0, 81, 0
1, 165360, Note_on_c, 0, 69, 80
1, 165587, Note_on_c, 0, 69, 0
1, 165600, Note_on_c, 0, 76, 80
1, 165827, Note_on_c, 0, 76, 0
1, 165840, Note_on_c, 0, 69, 80
1, 166067, Note_on_c, 0, 69, 0
1, 166080, Note_on_c, 0, 83, 80
1, 166307, Note_on_c, 0, 83, 0
1, 166320, Note_on_c, 0, 69, 80
1, 166547, Note_on_c, 0, 69, 0
1, 166560, Note_on_c, 0, 76, 80
1, 166787, Note_on_c, 0, 76, 0
1, 166800, Note_on_c, 0, 69, 80
1, 167027, Note_on_c, 0, 69, 0
1, 167040, Note_on_c, 0, 84, 80
1, 167267, Note_on_c, 0, 84, 0
1, 167280, Note_on_c, 0, 69, 80
1, 167507, Note_on_c, 0, 69, 0
1, 167520, Note_on_c, 0, 76, 80
1, 167747, Note_on_c, 0, 76, 0
1, 167760, Note_on_c, 0, 69, 80
1, 167987, Note_on_c, 0, 69, 0
1, 168000, Note_on_c, 0, 76, 80
1, 168227, Note_on_c, 0, 76, 0
1, 168240, Note_on_c, 0, 69, 80
1, 168467, Note_on_c, 0, 69, 0
1, 168480, Note_on_c, 0, 76, 80
1, 168707, Note_on_c, 0, 76, 0
1, 168720, Note_on_c, 0, 69, 80
1, 168947, Note_on_c, 0, 69, 0
1, 168960, Note_on_c, 0, 71, 80
1, 168960, Note_on_c, 0, 76, 80
1, 169187, Note_on_c, 0, 71, 0
1, 169187, Note_on_c, 0, 76, 0
1, 169200, Note_on_c, 0, 71, 80
1, 169427, Note_on_c, 0, 71, 0
1, 169440, Note_on_c, 0, 76, 80
1, 169667, Note_on_c, 0, 76, 0
1, 169680, Note_on_c, 0, 71, 80
1, 169907, Note_on_c, 0, 71, 0
1, 169920, Note_on_c, 0, 81, 80
1, 170147, Note_on_c, 0, 81, 0
1, 170160, Note_on_c, 0, 71, 80
1, 170387, Note_on_c, 0, 71, 0
1, 170400, Note_on_c, 0, 76, 80
1, 170627, Note_on_c, 0, 76, 0
1, 170640, Note_on_c, 0, 71, 80
1, 170867, Note_on_c, 0, 71, 0
1, 170880, Note_on_c, 0, 83, 80
1, 171107, Note_on_c, 0, 83, 0
1, 171120, Note_on_c, 0, 71, 80
1, 171347, Note_on_c, 0, 71, 0
1, 171360, Note_on_c, 0, 76, 80
1, 171587, Note_on_c, 0, 76, 0
1, 171600, Note_on_c, 0, 71, 80
1, 171827, Note_on_c, 0, 71, 0
1, 171840, Note_on_c, 0, 83, 80
1, 172067, Note_on_c, 0, 83, 0
1, 172080, Note_on_c, 0, 71, 80
1, 172307, Note_on_c, 0, 71, 0
1, 172320, Note_on_c, 0, 71, 80
1, 172320, Note_on_c, 0, 76, 80
1, 172775, Note_on_c, 0, 71, 0
1, 172775, Note_on_c, 0, 76, 0
1, 172800, Note_on_c, 0, 60, 80
1, 172800, Note_on_c, 0, 64, 80
1, 172800, Note_on_c, 0, 69, 80
1, 173255, Note_on_c, 0, 60, 0
1, 173255, Note_on_c, 0, 64, 0
1, 173255, Note_on_c, 0, 69, 0
1, 173280, Note_on_c, 0, 64, 80
1, 173280, Note_on_c, 0, 69, 80
1, 173280, Note_on_c, 0, 74, 80
1, 173735, Note_on_c, 0, 64, 0
1, 173735, Note_on_c, 0, 69, 0
1, 173735, Note_on_c, 0, 74, 0
1, 173760, Note_on_c, 0, 64, 80
1, 173760, Note_on_c, 0, 69, 80
1, 173760, Note_on_c, 0, 72, 80
1, 174443, Note_on_c, 0, 64, 0
1, 174443, Note_on_c, 0, 69, 0
1, 174443, Note_on_c, 0, 72, 0
1, 174480, Note_on_c, 0, 64, 80
1, 174480, Note_on_c, 0, 71, 80
1, 174935, Note_on_c, 0, 64, 0
1, 174935, Note_on_c, 0, 71, 0
1, 174960, Note_on_c, 0, 60, 80
1, 174960, Note_on_c, 0, 64, 80
1, 174960, Note_on_c, 0, 69, 80
1, 175415, Note_on_c, 0, 60, 0
1, 175415, Note_on_c, 0, 64, 0
1, 175415, Note_on_c, 0, 69, 0
1, 175440, Note_on_c, 0, 64, 80
1, 175440, Note_on_c, 0, 71, 80
1, 175895, Note_on_c, 0, 64, 0
1, 175895, Note_on_c, 0, 71, 0
1, 175920, Note_on_c, 0, 60, 80
1, 175920, Note_on_c, 0, 64, 80
1, 175920, Note_on_c, 0, 69, 80
1, 175920, Note_on_c, 0, 72, 80
1, 176603, Note_on_c, 0, 60, 0
1, 176603, Note_on_c, 0, 64, 0
1, 176603, Note_on_c, 0, 69, 0
1, 176603, Note_on_c, 0, 72, 0
1, 176640, Note_on_c, 0, 60, 80
1, 176640, Note_on_c, 0, 64, 80
1, 176640, Note_on_c, 0, 69, 80
1, 177095, Note_on_c, 0, 60, 0
1, 177095, Note_on_c, 0, 64, 0
1, 177095, Note_on_c, 0, 69, 0
1, 177120, Note_on_c, 0, 64, 80
1, 177120, Note_on_c, 0, 69, 80
1, 177120, Note_on_c, 0, 74, 80
1, 177575, Note_on_c, 0, 64, 0
1, 177575, Note_on_c, 0, 69, 0
1, 177575, Note_on_c, 0, 74, 0
1, 177600, Note_on_c, 0, 64, 80
1, 177600, Note_on_c, 0, 69, 80
1, 177600, Note_on_c, 0, 72, 80
1, 178283, Note_on_c, 0, 64, 0
1, 178283, Note_on_c, 0, 69, 0
1, 178283, Note_on_c, 0, 72, 0
1, 178320, Note_on_c, 0, 64, 80
1, 178320, Note_on_c, 0, 71, 80
1, 178775, Note_on_c, 0, 64, 0
1, 178775, Note_on_c, 0, 71, 0
1, 178800, Note_on_c, 0, 60, 80
1, 178800, Note_on_c, 0, 64, 80
1, 178800, Note_on_c, 0, 69, 80
1, 178800, Note_on_c, 0, 72, 80
1, 179255, Note_on_c, 0, 60, 0
1, 179255, Note_on_c, 0, 64, 0
1, 179255, Note_on_c, 0, 69, 0
1, 179255, Note_on_c, 0, 72, 0
1, 179280, Note_on_c, 0, 69, 80
1, 179280, Note_on_c, 0, 72, 80
1, 179280, Note_on_c, 0, 76, 80
1, 179735, Note_on_c, 0, 69, 0
1, 179735, Note_on_c, 0, 72, 0
1, 179735, Note_on_c, 0, 76, 0
1, 179760, Note_on_c, 0, 74, 80
1, 179987, Note_on_c, 0, 74, 0
1, 180000, Note_on_c, 0, 64, 80
1, 180000, Note_on_c, 0, 69, 80
1, 180000, Note_on_c, 0, 72, 80
1, 180455, Note_on_c, 0, 64, 0
1, 180455, Note_on_c, 0, 69, 0
1, 180455, Note_on_c, 0, 72, 0
1, 180480, Note_on_c, 0, 60, 80
1, 180480, Note_on_c, 0, 64, 80
1, 180480, Note_on_c, 0, 69, 80
1, 180935, Note_on_c, 0, 60, 0
1, 180935, Note_on_c, 0, 64, 0
1, 180935, Note_on_c, 0, 69, 0
1, 180960, Note_on_c, 0, 64, 80
1, 180960, Note_on_c, 0, 69, 80
1, 180960, Note_on_c, 0, 74, 80
1, 181415, Note_on_c, 0, 64, 0
1, 181415, Note_on_c, 0, 69, 0
1, 181415, Note_on_c, 0, 74, 0
1, 181440, Note_on_c, 0, 64, 80
1, 181440, Note_on_c, 0, 69, 80
1, 181440, Note_on_c, 0, 72, 80
1, 182123, Note_on_c, 0, 64, 0
1, 182123, Note_on_c, 0, 69, 0
1, 182123, Note_on_c, 0, 72, 0
1, 182160, Note_on_c, 0, 64, 80
1, 182160, Note_on_c, 0, 71, 80
1, 182615, Note_on_c, 0, 64, 0
1, 182615, Note_on_c, 0, 71, 0
1, 182640, Note_on_c, 0, 60, 80
1, 182640, Note_on_c, 0, 64, 80
1, 182640, Note_on_c, 0, 69, 80
1, 183095, Note_on_c, 0, 60, 0
1, 183095, Note_on_c, 0, 64, 0
1, 183095, Note_on_c, 0, 69, 0
1, 183120, Note_on_c, 0, 64, 80
1, 183120, Note_on_c, 0, 71, 80
1, 183575, Note_on_c, 0, 64, 0
1, 183575, Note_on_c, 0, 71, 0
1, 183600, Note_on_c, 0, 60, 80
1, 183600, Note_on_c, 0, 64, 80
1, 183600, Note_on_c, 0, 69, 80
1, 183600, Note_on_c, 0, 72, 80
1, 184283, Note_on_c, 0, 60, 0
1, 184283, Note_on_c, 0, 64, 0
1, 184283, Note_on_c, 0, 69, 0
1, 184283, Note_on_c, 0, 72, 0
1, 184320, Note_on_c, 0, 62, 80
1, 184320, Note_on_c, 0, 65, 80
1, 184320, Note_on_c, 0, 69, 80
1, 184320, Note_on_c, 0, 72, 80
1, 186143, Note_on_c, 0, 62, 0
1, 186143, Note_on_c, 0, 65, 0
1, 186143, Note_on_c, 0, 69, 0
1, 186143, Note_on_c, 0, 72, 0
1, 186240, Note_on_c, 0, 62, 80
1, 186240, Note_on_c, 0, 67, 80
1, 186240, Note_on_c, 0, 71, 80
1, 187151, Note_on_c, 0, 62, 0
1, 187151, Note_on_c, 0, 67, 0
1, 187151, Note_on_c, 0, 71, 0
1, 187200, Note_on_c, 0, 62, 80
1, 187200, Note_on_c, 0, 67, 80
1, 187200, Note_on_c, 0, 71, 80
1, 188111, Note_on_c, 0, 62, 0
1, 188111, Note_on_c, 0, 67, 0
1, 188111, Note_on_c, 0, 71, 0
1, 188160, Note_on_c, 0, 60, 80
1, 188160, Note_on_c, 0, 64, 80
1, 188160, Note_on_c, 0, 69, 80
1, 188615, Note_on_c, 0, 60, 0
1, 188615, Note_on_c, 0, 64, 0
1, 188615, Note_on_c, 0, 69, 0
1, 188640, Note_on_c, 0, 64, 80
1, 188640, Note_on_c, 0, 69, 80
1, 188640, Note_on_c, 0, 74, 80
1, 189095, Note_on_c, 0, 64, 0
1, 189095, Note_on_c, 0, 69, 0
1, 189095, Note_on_c, 0, 74, 0
1, 189120, Note_on_c, 0, 64, 80
1, 189120, Note_on_c, 0, 69, 80
1, 189120, Note_on_c, 0, 72, 80
1, 189803, Note_on_c, 0, 64, 0
1, 189803, Note_on_c, 0, 69, 0
1, 189803, Note_on_c, 0, 72, 0
1, 189840, Note_on_c, 0, 64, 80
1, 189840, Note_on_c, 0, 71, 80
1, 190295, Note_on_c, 0, 64, 0
1, 190295, Note_on_c, 0, 71, 0
1, 190320, Note_on_c, 0, 60, 80
1, 190320, Note_on_c, 0, 64, 80
1, 190320, Note_on_c, 0, 69, 80
1, 190775, Note_on_c, 0, 60, 0
1, 190775, Note_on_c, 0, 64, 0
1, 190775, Note_on_c, 0, 69, 0
1, 190800, Note_on_c, 0, 64, 80
1, 190800, Note_on_c, 0, 71, 80
1, 191255, Note_on_c, 0, 64, 0
1, 191255, Note_on_c, 0, 71, 0
1, 191280, Note_on_c, 0, 60, 80
1, 191280, Note_on_c, 0, 64, 80
1, 191280, Note_on_c, 0, 69, 80
1, 191280, Note_on_c, 0, 72, 80
1, 191963, Note_on_c, 0, 60, 0
1, 191963, Note_on_c, 0, 64, 0
1, 191963, Note_on_c, 0, 69, 0
1, 191963, Note_on_c, 0, 72, 0
1, 192000, Note_on_c, 0, 60, 80
1, 192000, Note_on_c, 0, 64, 80
1, 192000, Note_on_c, 0, 69, 80
1, 192455, Note_on_c, 0, 60, 0
1, 192455, Note_on_c, 0, 64, 0
1, 192455, Note_on_c, 0, 69, 0
1, 192480, Note_on_c, 0, 64, 80
1, 192480, Note_on_c, 0, 69, 80
1, 192480, Note_on_c, 0, 74, 80
1, 192935, Note_on_c, 0, 64, 0
1, 192935, Note_on_c, 0, 69, 0
1, 192935, Note_on_c, 0, 74, 0
1, 192960, Note_on_c, 0, 64, 80
1, 192960, Note_on_c, 0, 69, 80
1, 192960, Note_on_c, 0, 72, 80
1, 193643, Note_on_c, 0, 64, 0
1, 193643, Note_on_c, 0, 69, 0
1, 193643, Note_on_c, 0, 72, 0
1, 193680, Note_on_c, 0, 64, 80
1, 193680, Note_on_c, 0, 71, 80
1, 194135, Note_on_c, 0, 64, 0
1, 194135, Note_on_c, 0, 71, 0
1, 194160, Note_on_c, 0, 60, 80
1, 194160, Note_on_c, 0, 64, 80
1, 194160, Note_on_c, 0, 69, 80
1, 194160, Note_on_c, 0, 72, 80
1, 194615, Note_on_c, 0, 60, 0
1, 194615, Note_on_c, 0, 64, 0
1, 194615, Note_on_c, 0, 69, 0
1, 194615, Note_on_c, 0, 72, 0
1, 194640, Note_on_c, 0, 69, 80
1, 194640, Note_on_c, 0, 72, 80
1, 194640, Note_on_c, 0, 76, 80
1, 195095, Note_on_c, 0, 69, 0
1, 195095, Note_on_c, 0, 72, 0
1, 195095, Note_on_c, 0, 76, 0
1, 195120, Note_on_c, 0, 74, 80
1, 195347, Note_on_c, 0, 74, 0
1, 195360, Note_on_c, 0, 60, 80
1, 195360, Note_on_c, 0, 64, 80
1, 195360, Note_on_c, 0, 69, 80
1, 195360, Note_on_c, 0, 72, 80
1, 195815, Note_on_c, 0, 60, 0
1, 195815, Note_on_c, 0, 64, 0
1, 195815, Note_on_c, 0, 69, 0
1, 195815, Note_on_c, 0, 72, 0
1, 195840, Note_on_c, 0, 60, 80
1, 195840, Note_on_c, 0, 64, 80
1, 195840, Note_on_c, 0, 69, 80
1, 196295, Note_on_c, 0, 60, 0
1, 196295, Note_on_c, 0, 64, 0
1, 196295, Note_on_c, 0, 69, 0
1, 196320, Note_on_c, 0, 64, 80
1, 196320, Note_on_c, 0, 69, 80
1, 196320, Note_on_c, 0, 74, 80
1, 196775, Note_on_c, 0, 64, 0
1, 196775, Note_on_c, 0, 69, 0
1, 196775, Note_on_c, 0, 74, 0
1, 196800, Note_on_c, 0, 64, 80
1, 196800, Note_on_c, 0, 69, 80
1, 196800, Note_on_c, 0, 72, 80
1, 197483, Note_on_c, 0, 64, 0
1, 197483, Note_on_c, 0, 69, 0
1, 197483, Note_on_c, 0, 72, 0
1, 197520, Note_on_c, 0, 64, 80
1, 197520, Note_on_c, 0, 71, 80
1, 197975, Note_on_c, 0, 64, 0
1, 197975, Note_on_c, 0, 71, 0
1, 198000, Note_on_c, 0, 60, 80
1, 198000, Note_on_c, 0, 64, 80
1, 198000, Note_on_c, 0, 69, 80
1, 198455, Note_on_c, 0, 60, 0
1, 198455, Note_on_c, 0, 64, 0
1, 198455, Note_on_c, 0, 69, 0
1, 198480, Note_on_c, 0, 64, 80
1, 198480, Note_on_c, 0, 71, 80
1, 198935, Note_on_c, 0, 64, 0
1, 198935, Note_on_c, 0, 71, 0
1, 198960, Note_on_c, 0, 60, 80
1, 198960, Note_on_c, 0, 64, 80
1, 198960, Note_on_c, 0, 69, 80
1, 198960, Note_on_c, 0, 72, 80
1, 199643, Note_on_c, 0, 60, 0
1, 199643, Note_on_c, 0, 64, 0
1, 199643, Note_on_c, 0, 69, 0
1, 199643, Note_on_c, 0, 72, 0
1, 199680, Note_on_c, 0, 62, 80
1, 199680, Note_on_c, 0, 65, 80
1, 199680, Note_on_c, 0, 69, 80
1, 199680, Note_on_c, 0, 72, 80
1, 201503, Note_on_c, 0, 62, 0
1, 201503, Note_on_c, 0, 65, 0
1, 201503, Note_on_c, 0, 69, 0
1, 201503, Note_on_c, 0, 72, 0
1, 201600, Note_on_c, 0, 62, 80
1, 201600, Note_on_c, 0, 67, 80
1, 201600, Note_on_c, 0, 71, 80
1, 201903, Note_on_c, 0, 62, 0
1, 201903, Note_on_c, 0, 67, 0
1, 201903, Note_on_c, 0, 71, 0
1, 201920, Note_on_c, 0, 62, 80
1, 201920, Note_on_c, 0, 67, 80
1, 201920, Note_on_c, 0, 71, 80
1, 202223, Note_on_c, 0, 62, 0
1, 202223, Note_on_c, 0, 67, 0
1, 202223, Note_on_c, 0, 71, 0
1, 202240, Note_on_c, 0, 62, 80
1, 202240, Note_on_c, 0, 67, 80
1, 202240, Note_on_c, 0, 71, 80
1, 202543, Note_on_c, 0, 62, 0
1, 202543, Note_on_c, 0, 67, 0
1, 202543, Note_on_c, 0, 71, 0
1, 202560, Note_on_c, 0, 62, 80
1, 202560, Note_on_c, 0, 67, 80
1, 202560, Note_on_c, 0, 71, 80
1, 202863, Note_on_c, 0, 62, 0
1, 202863, Note_on_c, 0, 67, 0
1, 202863, Note_on_c, 0, 71, 0
1, 202880, Note_on_c, 0, 62, 80
1, 202880, Note_on_c, 0, 67, 80
1, 202880, Note_on_c, 0, 71, 80
1, 203183, Note_on_c, 0, 62, 0
1, 203183, Note_on_c, 0, 67, 0
1, 203183, Note_on_c, 0, 71, 0
1, 203200, Note_on_c, 0, 62, 80
1, 203200, Note_on_c, 0, 67, 80
1, 203200, Note_on_c, 0, 71, 80
1, 203503, Note_on_c, 0, 62, 0
1, 203503, Note_on_c, 0, 67, 0
1, 203503, Note_on_c, 0, 71, 0
1, 203520, Note_on_c, 0, 69, 80
1, 203520, Note_on_c, 0, 72, 80
1, 203520, Note_on_c, 0, 76, 80
1, 204431, Note_on_c, 0, 69, 0
1, 204431, Note_on_c, 0, 72, 0
1, 204431, Note_on_c, 0, 76, 0
1, 204480, Note_on_c, 0, 60, 80
1, 204480, Note_on_c, 0, 64, 80
1, 204480, Note_on_c, 0, 69, 80
1, 204707, Note_on_c, 0, 60, 0
1, 204707, Note_on_c, 0, 64, 0
1, 204707, Note_on_c, 0, 69, 0
1, 204720, Note_on_c, 0, 76, 80
1, 205175, Note_on_c, 0, 76, 0
1, 205200, Note_on_c, 0, 76, 80
1, 205427, Note_on_c, 0, 76, 0
1, 205440, Note_on_c, 0, 69, 80
1, 205440, Note_on_c, 0, 72, 80
1, 205440, Note_on_c, 0, 76, 80
1, 205895, Note_on_c, 0, 69, 0
1, 205895, Note_on_c, 0, 72, 0
1, 205895, Note_on_c, 0, 76, 0
1, 205920, Note_on_c, 0, 60, 80
1, 205920, Note_on_c, 0, 72, 80
1, 206147, Note_on_c, 0, 60, 0
1, 206147, Note_on_c, 0, 72, 0
1, 206160, Note_on_c, 0, 60, 80
1, 206160, Note_on_c, 0, 64, 80
1, 206160, Note_on_c, 0, 69, 80
1, 206160, Note_on_c, 0, 72, 80
1, 206387, Note_on_c, 0, 60, 0
1, 206387, Note_on_c, 0, 64, 0
1, 206387, Note_on_c, 0, 69, 0
1, 206387, Note_on_c, 0, 72, 0
1, 206400, Note_on_c, 0, 64, 80
1, 206855, Note_on_c, 0, 64, 0
1, 206880, Note_on_c, 0, 64, 80
1, 207335, Note_on_c, 0, 64, 0
1, 207360, Note_on_c, 0, 60, 80
1, 207360, Note_on_c, 0, 64, 80
1, 208271, Note_on_c, 0, 60, 0
1, 208271, Note_on_c, 0, 64, 0
1, 208320, Note_on_c, 0, 60, 80
1, 208320, Note_on_c, 0, 64, 80
1, 208320, Note_on_c, 0, 69, 80
1, 208559, Note_on_c, 0, 60, 0
1, 208559, Note_on_c, 0, 64, 0
1, 208559, Note_on_c, 0, 69, 0
1, 208560, Note_on_c, 0, 76, 80
1, 208919, Note_on_c, 0, 76, 0
1, 208960, Note_on_c, 0, 76, 80
1, 209111, Note_on_c, 0, 76, 0
1, 209120, Note_on_c, 0, 76, 80
1, 209271, Note_on_c, 0, 76, 0
1, 209280, Note_on_c, 0, 72, 80
1, 209280, Note_on_c, 0, 76, 80
1, 209280, Note_on_c, 0, 79, 80
1, 209735, Note_on_c, 0, 72, 0
1, 209735, Note_on_c, 0, 76, 0
1, 209735, Note_on_c, 0, 79, 0
1, 209760, Note_on_c, 0, 77, 80
1, 209987, Note_on_c, 0, 77, 0
1, 210000, Note_on_c, 0, 67, 80
1, 210000, Note_on_c, 0, 71, 80
1, 210000, Note_on_c, 0, 76, 80
1, 210455, Note_on_c, 0, 67, 0
1, 210455, Note_on_c, 0, 71, 0
1, 210455, Note_on_c, 0, 76, 0
1, 210480, Note_on_c, 0, 74, 80
1, 211163, Note_on_c, 0, 74, 0
1, 211200, Note_on_c, 0, 64, 80
1, 211200, Note_on_c, 0, 69, 80
1, 211200, Note_on_c, 0, 74, 80
1, 211883, Note_on_c, 0, 64, 0
1, 211883, Note_on_c, 0, 69, 0
1, 211883, Note_on_c, 0, 74, 0
1, 211920, Note_on_c, 0, 60, 80
1, 211920, Note_on_c, 0, 72, 80
1, 212147, Note_on_c, 0, 60, 0
1, 212147, Note_on_c, 0, 72, 0
1, 212160, Note_on_c, 0, 60, 80
1, 212160, Note_on_c, 0, 64, 80
1, 212160, Note_on_c, 0, 69, 80
1, 213983, Note_on_c, 0, 60, 0
1, 213983, Note_on_c, 0, 64, 0
1, 213983, Note_on_c, 0, 69, 0
1, 214080, Note_on_c, 0, 60, 80
1, 214080, Note_on_c, 0, 65, 80
1, 214080, Note_on_c, 0, 71, 80
1, 214535, Note_on_c, 0, 60, 0
1, 214535, Note_on_c, 0, 65, 0
1, 214535, Note_on_c, 0, 71, 0
1, 214560, Note_on_c, 0, 65, 80
1, 214560, Note_on_c, 0, 69, 80
1, 214560, Note_on_c, 0, 72, 80
1, 215015, Note_on_c, 0, 65, 0
1, 215015, Note_on_c, 0, 69, 0
1, 215015, Note_on_c, 0, 72, 0
1, 215040, Note_on_c, 0, 65, 80
1, 215040, Note_on_c, 0, 69, 80
1, 215040, Note_on_c, 0, 74, 80
1, 215153, Note_on_c, 0, 65, 0
1, 215153, Note_on_c, 0, 69, 0
1, 215153, Note_on_c, 0, 74, 0
1, 215160, Note_on_c, 0, 76, 80
1, 215273, Note_on_c, 0, 76, 0
1, 215280, Note_on_c, 0, 74, 80
1, 215393, Note_on_c, 0, 74, 0
1, 215400, Note_on_c, 0, 72, 80
1, 215513, Note_on_c, 0, 72, 0
1, 215520, Note_on_c, 0, 65, 80
1, 215520, Note_on_c, 0, 69, 80
1, 215520, Note_on_c, 0, 74, 80
1, 216431, Note_on_c, 0, 65, 0
1, 216431, Note_on_c, 0, 69, 0
1, 216431, Note_on_c, 0, 74, 0
1, 216480, Note_on_c, 0, 62, 80
1, 216480, Note_on_c, 0, 72, 80
1, 216707, Note_on_c, 0, 62, 0
1, 216707, Note_on_c, 0, 72, 0
1, 216720, Note_on_c, 0, 62, 80
1, 216720, Note_on_c, 0, 67, 80
1, 216720, Note_on_c, 0, 71, 80
1, 217175, Note_on_c, 0, 62, 0
1, 217175, Note_on_c, 0, 67, 0
1, 217175, Note_on_c, 0, 71, 0
1, 217200, Note_on_c, 0, 72, 80
1, 217427, Note_on_c, 0, 72, 0
1, 217440, Note_on_c, 0, 62, 80
1, 217440, Note_on_c, 0, 69, 80
1, 217667, Note_on_c, 0, 62, 0
1, 217667, Note_on_c, 0, 69, 0
1, 217680, Note_on_c, 0, 65, 80
1, 217907, Note_on_c, 0, 65, 0
1, 217920, Note_on_c, 0, 65, 80
1, 217920, Note_on_c, 0, 71, 80
1, 217920, Note_on_c, 0, 74, 80
1, 218375, Note_on_c, 0, 65, 0
1, 218375, Note_on_c, 0, 71, 0
1, 218375, Note_on_c, 0, 74, 0
1, 218400, Note_on_c, 0, 65, 80
1, 218400, Note_on_c, 0, 71, 80
1, 218855, Note_on_c, 0, 65, 0
1, 218855, Note_on_c, 0, 71, 0
1, 218880, Note_on_c, 0, 60, 80
1, 218880, Note_on_c, 0, 64, 80
1, 219107, Note_on_c, 0, 60, 0
1, 219107, Note_on_c, 0, 64, 0
1, 219120, Note_on_c, 0, 69, 80
1, 219120, Note_on_c, 0, 72, 80
1, 219120, Note_on_c, 0, 76, 80
1, 219575, Note_on_c, 0, 69, 0
1, 219575, Note_on_c, 0, 72, 0
1, 219575, Note_on_c, 0, 76, 0
1, 219600, Note_on_c, 0, 69, 80
1, 219600, Note_on_c, 0, 72, 80
1, 219600, Note_on_c, 0, 76, 80
1, 220055, Note_on_c, 0, 69, 0
1, 220055, Note_on_c, 0, 72, 0
1, 220055, Note_on_c, 0, 76, 0
1, 220080, Note_on_c, 0, 69, 80
1, 220080, Note_on_c, 0, 72, 80
1, 220080, Note_on_c, 0, 76, 80
1, 220535, Note_on_c, 0, 69, 0
1, 220535, Note_on_c, 0, 72, 0
1, 220535, Note_on_c, 0, 76, 0
1, 220560, Note_on_c, 0, 69, 80
1, 220560, Note_on_c, 0, 72, 80
1, 220560, Note_on_c, 0, 76, 80
1, 221015, Note_on_c, 0, 69, 0
1, 221015, Note_on_c, 0, 72, 0
1, 221015, Note_on_c, 0, 76, 0
1, 221040, Note_on_c, 0, 69, 80
1, 221040, Note_on_c, 0, 72, 80
1, 221040, Note_on_c, 0, 76, 80
1, 221495, Note_on_c, 0, 69, 0
1, 221495, Note_on_c, 0, 72, 0
1, 221495, Note_on_c, 0, 76, 0
1, 221520, Note_on_c, 0, 69, 80
1, 221520, Note_on_c, 0, 71, 80
1, 221520, Note_on_c, 0, 76, 80
1, 221975, Note_on_c, 0, 69, 0
1, 221975, Note_on_c, 0, 71, 0
1, 221975, Note_on_c, 0, 76, 0
1, 222000, Note_on_c, 0, 72, 80
1, 222000, Note_on_c, 0, 76, 80
1, 222683, Note_on_c, 0, 72, 0
1, 222683, Note_on_c, 0, 76, 0
1, 222720, Note_on_c, 0, 60, 80
1, 222720, Note_on_c, 0, 64, 80
1, 223403, Note_on_c, 0, 60, 0
1, 223403, Note_on_c, 0, 64, 0
1, 223440, Note_on_c, 0, 71, 80
1, 223440, Note_on_c, 0, 72, 80
1, 223440, Note_on_c, 0, 76, 80
1, 223895, Note_on_c, 0, 71, 0
1, 223895, Note_on_c, 0, 72, 0
1, 223895, Note_on_c, 0, 76, 0
1, 223920, Note_on_c, 0, 69, 80
1, 223920, Note_on_c, 0, 72, 80
1, 223920, Note_on_c, 0, 76, 80
1, 224375, Note_on_c, 0, 69, 0
1, 224375, Note_on_c, 0, 72, 0
1, 224375, Note_on_c, 0, 76, 0
1, 224400, Note_on_c, 0, 69, 80
1, 224400, Note_on_c, 0, 72, 80
1, 224400, Note_on_c, 0, 76, 80
1, 224855, Note_on_c, 0, 69, 0
1, 224855, Note_on_c, 0, 72, 0
1, 224855, Note_on_c, 0, 76, 0
1, 224880, Note_on_c, 0, 72, 80
1, 224880, Note_on_c, 0, 76, 80
1, 224880, Note_on_c, 0, 81, 80
1, 225335, Note_on_c, 0, 72, 0
1, 225335, Note_on_c, 0, 76, 0
1, 225335, Note_on_c, 0, 81, 0
1, 225360, Note_on_c, 0, 71, 80
1, 225360, Note_on_c, 0, 76, 80
1, 225360, Note_on_c, 0, 81, 80
1, 225815, Note_on_c, 0, 71, 0
1, 225815, Note_on_c, 0, 76, 0
1, 225815, Note_on_c, 0, 81, 0
1, 225840, Note_on_c, 0, 74, 80
1, 225840, Note_on_c, 0, 76, 80
1, 225840, Note_on_c, 0, 83, 80
1, 226523, Note_on_c, 0, 74, 0
1, 226523, Note_on_c, 0, 76, 0
1, 226523, Note_on_c, 0, 83, 0
1, 226560, Note_on_c, 0, 64, 80
1, 226560, Note_on_c, 0, 69, 80
1, 226560, Note_on_c, 0, 74, 80
1, 227471, Note_on_c, 0, 64, 0
1, 227471, Note_on_c, 0, 69, 0
1, 227471, Note_on_c, 0, 74, 0
1, 227520, Note_on_c, 0, 60, 80
1, 227520, Note_on_c, 0, 64, 80
1, 227520, Note_on_c, 0, 69, 80
1, 229343, Note_on_c, 0, 60, 0
1, 229343, Note_on_c, 0, 64, 0
1, 229343, Note_on_c, 0, 69, 0
1, 229440, Note_on_c, 0, 60, 80
1, 229440, Note_on_c, 0, 65, 80
1, 229440, Note_on_c, 0, 71, 80
1, 229895, Note_on_c, 0, 60, 0
1, 229895, Note_on_c, 0, 65, 0
1, 229895, Note_on_c, 0, 71, 0
1, 229920, Note_on_c, 0, 60, 80
1, 229920, Note_on_c, 0, 65, 80
1, 229920, Note_on_c, 0, 69, 80
1, 229920, Note_on_c, 0, 72, 80
1, 230375, Note_on_c, 0, 60, 0
1, 230375, Note_on_c, 0, 65, 0
1, 230375, Note_on_c, 0, 69, 0
1, 230375, Note_on_c, 0, 72, 0
1, 230400, Note_on_c, 0, 65, 80
1, 230400, Note_on_c, 0, 69, 80
1, 230400, Note_on_c, 0, 74, 80
1, 230513, Note_on_c, 0, 65, 0
1, 230513, Note_on_c, 0, 69, 0
1, 230513, Note_on_c, 0, 74, 0
1, 230520, Note_on_c, 0, 76, 80
1, 230633, Note_on_c, 0, 76, 0
1, 230640, Note_on_c, 0, 74, 80
1, 230753, Note_on_c, 0, 74, 0
1, 230760, Note_on_c, 0, 72, 80
1, 230873, Note_on_c, 0, 72, 0
1, 230880, Note_on_c, 0, 65, 80
1, 230880, Note_on_c, 0, 69, 80
1, 230880, Note_on_c, 0, 74, 80
1, 231791, Note_on_c, 0, 65, 0
1, 231791, Note_on_c, 0, 69, 0
1, 231791, Note_on_c, 0, 74, 0
1, 231840, Note_on_c, 0, 62, 80
1, 231840, Note_on_c, 0, 65, 80
1, 231840, Note_on_c, 0, 72, 80
1, 232295, Note_on_c, 0, 62, 0
1, 232295, Note_on_c, 0, 65, 0
1, 232295, Note_on_c, 0, 72, 0
1, 232320, Note_on_c, 0, 62, 80
1, 232320, Note_on_c, 0, 67, 80
1, 232320, Note_on_c, 0, 71, 80
1, 232623, Note_on_c, 0, 62, 0
1, 232623, Note_on_c, 0, 67, 0
1, 232623, Note_on_c, 0, 71, 0
1, 232640, Note_on_c, 0, 62, 80
1, 232640, Note_on_c, 0, 67, 80
1, 232640, Note_on_c, 0, 71, 80
1, 232943, Note_on_c, 0, 62, 0
1, 232943, Note_on_c, 0, 67, 0
1, 232943, Note_on_c, 0, 71, 0
1, 232960, Note_on_c, 0, 62, 80
1, 232960, Note_on_c, 0, 67, 80
1, 232960, Note_on_c, 0, 71, 80
1, 233263, Note_on_c, 0, 62, 0
1, 233263, Note_on_c, 0, 67, 0
1, 233263, Note_on_c, 0, 71, 0
1, 233280, Note_on_c, 0, 62, 80
1, 233280, Note_on_c, 0, 67, 80
1, 233280, Note_on_c, 0, 72, 80
1, 233583, Note_on_c, 0, 62, 0
1, 233583, Note_on_c, 0, 67, 0
1, 233583, Note_on_c, 0, 72, 0
1, 233600, Note_on_c, 0, 62, 80
1, 233600, Note_on_c, 0, 67, 80
1, 233600, Note_on_c, 0, 72, 80
1, 233903, Note_on_c, 0, 62, 0
1, 233903, Note_on_c, 0, 67, 0
1, 233903, Note_on_c, 0, 72, 0
1, 233920, Note_on_c, 0, 62, 80
1, 233920, Note_on_c, 0, 67, 80
1, 233920, Note_on_c, 0, 72, 80
1, 234223, Note_on_c, 0, 62, 0
1, 234223, Note_on_c, 0, 67, 0
1, 234223, Note_on_c, 0, 72, 0
1, 234240, Note_on_c, 0, 60, 80
1, 234240, Note_on_c, 0, 64, 80
1, 234479, Note_on_c, 0, 60, 0
1, 234479, Note_on_c, 0, 64, 0
1, 234480, Note_on_c, 0, 57, 80
1, 234720, Note_on_c, 0, 64, 80
1, 234935, Note_on_c, 0, 57, 0
1, 234959, Note_on_c, 0, 64, 0
1, 234960, Note_on_c, 0, 57, 80
1, 235200, Note_on_c, 0, 71, 80
1, 235415, Note_on_c, 0, 57, 0
1, 235439, Note_on_c, 0, 71, 0
1, 235440, Note_on_c, 0, 57, 80
1, 235680, Note_on_c, 0, 64, 80
1, 235895, Note_on_c, 0, 57, 0
1, 235919, Note_on_c, 0, 64, 0
1, 235920, Note_on_c, 0, 57, 80
1, 236160, Note_on_c, 0, 72, 80
1, 236375, Note_on_c, 0, 57, 0
1, 236399, Note_on_c, 0, 72, 0
1, 236400, Note_on_c, 0, 57, 80
1, 236640, Note_on_c, 0, 64, 80
1, 236855, Note_on_c, 0, 57, 0
1, 236879, Note_on_c, 0, 64, 0
1, 236880, Note_on_c, 0, 57, 80
1, 237120, Note_on_c, 0, 64, 80
1, 237335, Note_on_c, 0, 57, 0
1, 237347, Note_on_c, 0, 64, 0
1, 237360, Note_on_c, 0, 57, 80
1, 237587, Note_on_c, 0, 57, 0
1, 237600, Note_on_c, 0, 64, 80
1, 237827, Note_on_c, 0, 64, 0
1, 237840, Note_on_c, 0, 57, 80
1, 238067, Note_on_c, 0, 57, 0
1, 238080, Note_on_c, 0, 69, 80
1, 238307, Note_on_c, 0, 69, 0
1, 238320, Note_on_c, 0, 57, 80
1, 238547, Note_on_c, 0, 57, 0
1, 238560, Note_on_c, 0, 64, 80
1, 238787, Note_on_c, 0, 64, 0
1, 238800, Note_on_c, 0, 57, 80
1, 239027, Note_on_c, 0, 57, 0
1, 239040, Note_on_c, 0, 71, 80
1, 239267, Note_on_c, 0, 71, 0
1, 239280, Note_on_c, 0, 57, 80
1, 239507, Note_on_c, 0, 57, 0
1, 239520, Note_on_c, 0, 64, 80
1, 239747, Note_on_c, 0, 64, 0
1, 239760, Note_on_c, 0, 57, 80
1, 239987, Note_on_c, 0, 57, 0
1, 240000, Note_on_c, 0, 72, 80
1, 240227, Note_on_c, 0, 72, 0
1, 240240, Note_on_c, 0, 57, 80
1, 240467, Note_on_c, 0, 57, 0
1, 240480, Note_on_c, 0, 64, 80
1, 240707, Note_on_c, 0, 64, 0
1, 240720, Note_on_c, 0, 57, 80
1, 240947, Note_on_c, 0, 57, 0
1, 240960, Note_on_c, 0, 64, 80
1, 241187, Note_on_c, 0, 64, 0
1, 241200, Note_on_c, 0, 57, 80
1, 241427, Note_on_c, 0, 57, 0
1, 241440, Note_on_c, 0, 64, 80
1, 241667, Note_on_c, 0, 64, 0
1, 241680, Note_on_c, 0, 57, 80
1, 241907, Note_on_c, 0, 57, 0
1, 241920, Note_on_c, 0, 60, 80
1, 241920, Note_on_c, 0, 64, 80
1, 242159, Note_on_c, 0, 60, 0
1, 242159, Note_on_c, 0, 64, 0
1, 242160, Note_on_c, 0, 57, 80
1, 242400, Note_on_c, 0, 64, 80
1, 242615, Note_on_c, 0, 57, 0
1, 242639, Note_on_c, 0, 64, 0
1, 242640, Note_on_c, 0, 57, 80
1, 242880, Note_on_c, 0, 71, 80
1, 243095, Note_on_c, 0, 57, 0
1, 243119, Note_on_c, 0, 71, 0
1, 243120, Note_on_c, 0, 57, 80
1, 243360, Note_on_c, 0, 64, 80
1, 243575, Note_on_c, 0, 57, 0
1, 243599, Note_on_c, 0, 64, 0
1, 243600, Note_on_c, 0, 57, 80
1, 243840, Note_on_c, 0, 72, 80
1, 244055, Note_on_c, 0, 57, 0
1, 244079, Note_on_c, 0, 72, 0
1, 244080, Note_on_c, 0, 57, 80
1, 244320, Note_on_c, 0, 64, 80
1, 244535, Note_on_c, 0, 57, 0
1, 244559, Note_on_c, 0, 64, 0
1, 244560, Note_on_c, 0, 57, 80
1, 244800, Note_on_c, 0, 64, 80
1, 245015, Note_on_c, 0, 57, 0
1, 245027, Note_on_c, 0, 64, 0
1, 245040, Note_on_c, 0, 57, 80
1, 245267, Note_on_c, 0, 57, 0
1, 245280, Note_on_c, 0, 60, 80
1, 245280, Note_on_c, 0, 64, 80
1, 245280, Note_on_c, 0, 69, 80
1, 245507, Note_on_c, 0, 60, 0
1, 245507, Note_on_c, 0, 64, 0
1, 245507, Note_on_c, 0, 69, 0
1, 245520, Note_on_c, 0, 60, 80
1, 245520, Note_on_c, 0, 64, 80
1, 245520, Note_on_c, 0, 69, 80
1, 245975, Note_on_c, 0, 60, 0
1, 245975, Note_on_c, 0, 64, 0
1, 245975, Note_on_c, 0, 69, 0
1, 245976, End_track
2, 0, Start_track
2, 0, Title_t, "Piano, Piano, Piano\000"
2, 0, Key_signature, 0, "major"
2, 0, MIDI_port, 0
2, 7680, Note_on_c, 0, 52, 80
2, 7680, Note_on_c, 0, 57, 80
2, 7919, Note_on_c, 0, 52, 0
2, 7919, Note_on_c, 0, 57, 0
2, 8160, Note_on_c, 0, 52, 80
2, 8160, Note_on_c, 0, 57, 80
2, 8399, Note_on_c, 0, 52, 0
2, 8399, Note_on_c, 0, 57, 0
2, 8640, Note_on_c, 0, 52, 80
2, 8640, Note_on_c, 0, 57, 80
2, 8867, Note_on_c, 0, 52, 0
2, 8867, Note_on_c, 0, 57, 0
2, 8880, Note_on_c, 0, 52, 80
2, 9335, Note_on_c, 0, 52, 0
2, 9360, Note_on_c, 0, 52, 80
2, 9815, Note_on_c, 0, 52, 0
2, 10080, Note_on_c, 0, 52, 80
2, 10080, Note_on_c, 0, 57, 80
2, 10319, Note_on_c, 0, 52, 0
2, 10319, Note_on_c, 0, 57, 0
2, 10560, Note_on_c, 0, 52, 80
2, 10560, Note_on_c, 0, 57, 80
2, 10799, Note_on_c, 0, 52, 0
2, 10799, Note_on_c, 0, 57, 0
2, 11040, Note_on_c, 0, 52, 80
2, 11040, Note_on_c, 0, 57, 80
2, 11279, Note_on_c, 0, 52, 0
2, 11279, Note_on_c, 0, 57, 0
2, 11520, Note_on_c, 0, 52, 80
2, 11520, Note_on_c, 0, 57, 80
2, 11759, Note_on_c, 0, 52, 0
2, 11759, Note_on_c, 0, 57, 0
2, 12000, Note_on_c, 0, 52, 80
2, 12000, Note_on_c, 0, 57, 80
2, 12239, Note_on_c, 0, 52, 0
2, 12239, Note_on_c, 0, 57, 0
2, 12480, Note_on_c, 0, 52, 80
2, 12480, Note_on_c, 0, 57, 80
2, 12707, Note_on_c, 0, 52, 0
2, 12707, Note_on_c, 0, 57, 0
2, 12720, Note_on_c, 0, 52, 80
2, 13175, Note_on_c, 0, 52, 0
2, 13200, Note_on_c, 0, 52, 80
2, 13200, Note_on_c, 0, 57, 80
2, 13655, Note_on_c, 0, 52, 0
2, 13655, Note_on_c, 0, 57, 0
2, 13920, Note_on_c, 0, 52, 80
2, 13920, Note_on_c, 0, 57, 80
2, 14159, Note_on_c, 0, 52, 0
2, 14159, Note_on_c, 0, 57, 0
2, 14400, Note_on_c, 0, 52, 80
2, 14400, Note_on_c, 0, 57, 80
2, 14639, Note_on_c, 0, 52, 0
2, 14639, Note_on_c, 0, 57, 0
2, 14880, Note_on_c, 0, 52, 80
2, 14880, Note_on_c, 0, 57, 80
2, 15119, Note_on_c, 0, 52, 0
2, 15119, Note_on_c, 0, 57, 0
2, 15360, Note_on_c, 0, 52, 80
2, 15360, Note_on_c, 0, 57, 80
2, 15815, Note_on_c, 0, 52, 0
2, 15815, Note_on_c, 0, 57, 0
2, 15840, Note_on_c, 0, 52, 80
2, 15840, Note_on_c, 0, 57, 80
2, 16295, Note_on_c, 0, 52, 0
2, 16295, Note_on_c, 0, 57, 0
2, 16320, Note_on_c, 0, 52, 80
2, 16320, Note_on_c, 0, 57, 80
2, 16547, Note_on_c, 0, 52, 0
2, 16547, Note_on_c, 0, 57, 0
2, 16560, Note_on_c, 0, 52, 80
2, 16560, Note_on_c, 0, 57, 80
2, 17015, Note_on_c, 0, 52, 0
2, 17015, Note_on_c, 0, 57, 0
2, 17040, Note_on_c, 0, 52, 80
2, 17040, Note_on_c, 0, 57, 80
2, 17495, Note_on_c, 0, 52, 0
2, 17495, Note_on_c, 0, 57, 0
2, 17760, Note_on_c, 0, 52, 80
2, 17760, Note_on_c, 0, 57, 80
2, 17999, Note_on_c, 0, 52, 0
2, 17999, Note_on_c, 0, 57, 0
2, 18240, Note_on_c, 0, 52, 80
2, 18240, Note_on_c, 0, 57, 80
2, 18479, Note_on_c, 0, 52, 0
2, 18479, Note_on_c, 0, 57, 0
2, 18720, Note_on_c, 0, 52, 80
2, 18720, Note_on_c, 0, 57, 80
2, 19175, Note_on_c, 0, 52, 0
2, 19175, Note_on_c, 0, 57, 0
2, 19200, Note_on_c, 0, 53, 80
2, 19200, Note_on_c, 0, 57, 80
2, 19655, Note_on_c, 0, 53, 0
2, 19655, Note_on_c, 0, 57, 0
2, 19680, Note_on_c, 0, 53, 80
2, 19680, Note_on_c, 0, 57, 80
2, 20135, Note_on_c, 0, 53, 0
2, 20135, Note_on_c, 0, 57, 0
2, 20160, Note_on_c, 0, 53, 80
2, 20160, Note_on_c, 0, 57, 80
2, 20387, Note_on_c, 0, 53, 0
2, 20387, Note_on_c, 0, 57, 0
2, 20400, Note_on_c, 0, 53, 80
2, 20400, Note_on_c, 0, 57, 80
2, 20855, Note_on_c, 0, 53, 0
2, 20855, Note_on_c, 0, 57, 0
2, 20880, Note_on_c, 0, 53, 80
2, 20880, Note_on_c, 0, 57, 80
2, 21335, Note_on_c, 0, 53, 0
2, 21335, Note_on_c, 0, 57, 0
2, 21600, Note_on_c, 0, 53, 80
2, 21600, Note_on_c, 0, 57, 80
2, 21839, Note_on_c, 0, 53, 0
2, 21839, Note_on_c, 0, 57, 0
2, 22080, Note_on_c, 0, 53, 80
2, 22080, Note_on_c, 0, 57, 80
2, 22319, Note_on_c, 0, 53, 0
2, 22319, Note_on_c, 0, 57, 0
2, 22560, Note_on_c, 0, 53, 80
2, 22560, Note_on_c, 0, 57, 80
2, 23015, Note_on_c, 0, 53, 0
2, 23015, Note_on_c, 0, 57, 0
2, 23040, Note_on_c, 0, 52, 80
2, 23040, Note_on_c, 0, 57, 80
2, 23495, Note_on_c, 0, 52, 0
2, 23495, Note_on_c, 0, 57, 0
2, 23520, Note_on_c, 0, 52, 80
2, 23520, Note_on_c, 0, 57, 80
2, 23975, Note_on_c, 0, 52, 0
2, 23975, Note_on_c, 0, 57, 0
2, 24000, Note_on_c, 0, 52, 80
2, 24000, Note_on_c, 0, 57, 80
2, 24227, Note_on_c, 0, 52, 0
2, 24227, Note_on_c, 0, 57, 0
2, 24240, Note_on_c, 0, 52, 80
2, 24240, Note_on_c, 0, 57, 80
2, 24695, Note_on_c, 0, 52, 0
2, 24695, Note_on_c, 0, 57, 0
2, 24720, Note_on_c, 0, 52, 80
2, 24720, Note_on_c, 0, 57, 80
2, 25175, Note_on_c, 0, 52, 0
2, 25175, Note_on_c, 0, 57, 0
2, 25440, Note_on_c, 0, 52, 80
2, 25440, Note_on_c, 0, 57, 80
2, 25679, Note_on_c, 0, 52, 0
2, 25679, Note_on_c, 0, 57, 0
2, 25920, Note_on_c, 0, 52, 80
2, 25920, Note_on_c, 0, 57, 80
2, 26159, Note_on_c, 0, 52, 0
2, 26159, Note_on_c, 0, 57, 0
2, 26400, Note_on_c, 0, 52, 80
2, 26400, Note_on_c, 0, 57, 80
2, 26855, Note_on_c, 0, 52, 0
2, 26855, Note_on_c, 0, 57, 0
2, 26880, Note_on_c, 0, 53, 80
2, 26880, Note_on_c, 0, 57, 80
2, 27335, Note_on_c, 0, 53, 0
2, 27335, Note_on_c, 0, 57, 0
2, 27360, Note_on_c, 0, 53, 80
2, 27360, Note_on_c, 0, 57, 80
2, 27815, Note_on_c, 0, 53, 0
2, 27815, Note_on_c, 0, 57, 0
2, 27840, Note_on_c, 0, 53, 80
2, 27840, Note_on_c, 0, 57, 80
2, 28067, Note_on_c, 0, 53, 0
2, 28067, Note_on_c, 0, 57, 0
2, 28080, Note_on_c, 0, 53, 80
2, 28080, Note_on_c, 0, 57, 80
2, 28535, Note_on_c, 0, 53, 0
2, 28535, Note_on_c, 0, 57, 0
2, 28560, Note_on_c, 0, 53, 80
2, 28560, Note_on_c, 0, 57, 80
2, 29015, Note_on_c, 0, 53, 0
2, 29015, Note_on_c, 0, 57, 0
2, 29280, Note_on_c, 0, 53, 80
2, 29280, Note_on_c, 0, 57, 80
2, 29519, Note_on_c, 0, 53, 0
2, 29519, Note_on_c, 0, 57, 0
2, 29760, Note_on_c, 0, 53, 80
2, 29760, Note_on_c, 0, 57, 80
2, 29999, Note_on_c, 0, 53, 0
2, 29999, Note_on_c, 0, 57, 0
2, 30240, Note_on_c, 0, 53, 80
2, 30240, Note_on_c, 0, 57, 80
2, 30695, Note_on_c, 0, 53, 0
2, 30695, Note_on_c, 0, 57, 0
2, 30720, Note_on_c, 0, 52, 80
2, 30720, Note_on_c, 0, 57, 80
2, 31175, Note_on_c, 0, 52, 0
2, 31175, Note_on_c, 0, 57, 0
2, 31200, Note_on_c, 0, 52, 80
2, 31200, Note_on_c, 0, 57, 80
2, 31655, Note_on_c, 0, 52, 0
2, 31655, Note_on_c, 0, 57, 0
2, 31680, Note_on_c, 0, 52, 80
2, 31680, Note_on_c, 0, 57, 80
2, 31907, Note_on_c, 0, 52, 0
2, 31907, Note_on_c, 0, 57, 0
2, 31920, Note_on_c, 0, 52, 80
2, 31920, Note_on_c, 0, 57, 80
2, 32375, Note_on_c, 0, 52, 0
2, 32375, Note_on_c, 0, 57, 0
2, 32400, Note_on_c, 0, 52, 80
2, 32400, Note_on_c, 0, 57, 80
2, 32855, Note_on_c, 0, 52, 0
2, 32855, Note_on_c, 0, 57, 0
2, 33120, Note_on_c, 0, 52, 80
2, 33120, Note_on_c, 0, 57, 80
2, 33359, Note_on_c, 0, 52, 0
2, 33359, Note_on_c, 0, 57, 0
2, 33600, Note_on_c, 0, 52, 80
2, 33600, Note_on_c, 0, 57, 80
2, 33839, Note_on_c, 0, 52, 0
2, 33839, Note_on_c, 0, 57, 0
2, 34080, Note_on_c, 0, 52, 80
2, 34080, Note_on_c, 0, 57, 80
2, 34535, Note_on_c, 0, 52, 0
2, 34535, Note_on_c, 0, 57, 0
2, 34560, Note_on_c, 0, 53, 80
2, 34560, Note_on_c, 0, 57, 80
2, 35015, Note_on_c, 0, 53, 0
2, 35015, Note_on_c, 0, 57, 0
2, 35040, Note_on_c, 0, 53, 80
2, 35040, Note_on_c, 0, 57, 80
2, 35495, Note_on_c, 0, 53, 0
2, 35495, Note_on_c, 0, 57, 0
2, 35520, Note_on_c, 0, 53, 80
2, 35520, Note_on_c, 0, 57, 80
2, 35747, Note_on_c, 0, 53, 0
2, 35747, Note_on_c, 0, 57, 0
2, 35760, Note_on_c, 0, 53, 80
2, 35760, Note_on_c, 0, 57, 80
2, 36215, Note_on_c, 0, 53, 0
2, 36215, Note_on_c, 0, 57, 0
2, 36240, Note_on_c, 0, 53, 80
2, 36240, Note_on_c, 0, 57, 80
2, 36695, Note_on_c, 0, 53, 0
2, 36695, Note_on_c, 0, 57, 0
2, 36960, Note_on_c, 0, 53, 80
2, 36960, Note_on_c, 0, 57, 80
2, 37199, Note_on_c, 0, 53, 0
2, 37199, Note_on_c, 0, 57, 0
2, 37440, Note_on_c, 0, 53, 80
2, 37440, Note_on_c, 0, 57, 80
2, 37679, Note_on_c, 0, 53, 0
2, 37679, Note_on_c, 0, 57, 0
2, 37920, Note_on_c, 0, 53, 80
2, 37920, Note_on_c, 0, 57, 80
2, 38375, Note_on_c, 0, 53, 0
2, 38375, Note_on_c, 0, 57, 0
2, 38400, Note_on_c, 0, 52, 80
2, 38400, Note_on_c, 0, 57, 80
2, 38855, Note_on_c, 0, 52, 0
2, 38855, Note_on_c, 0, 57, 0
2, 38880, Note_on_c, 0, 52, 80
2, 38880, Note_on_c, 0, 57, 80
2, 39335, Note_on_c, 0, 52, 0
2, 39335, Note_on_c, 0, 57, 0
2, 39360, Note_on_c, 0, 52, 80
2, 39360, Note_on_c, 0, 57, 80
2, 39587, Note_on_c, 0, 52, 0
2, 39587, Note_on_c, 0, 57, 0
2, 39600, Note_on_c, 0, 52, 80
2, 39600, Note_on_c, 0, 57, 80
2, 40055, Note_on_c, 0, 52, 0
2, 40055, Note_on_c, 0, 57, 0
2, 40080, Note_on_c, 0, 52, 80
2, 40080, Note_on_c, 0, 57, 80
2, 40535, Note_on_c, 0, 52, 0
2, 40535, Note_on_c, 0, 57, 0
2, 40800, Note_on_c, 0, 52, 80
2, 40800, Note_on_c, 0, 57, 80
2, 41039, Note_on_c, 0, 52, 0
2, 41039, Note_on_c, 0, 57, 0
2, 41280, Note_on_c, 0, 52, 80
2, 41280, Note_on_c, 0, 57, 80
2, 41519, Note_on_c, 0, 52, 0
2, 41519, Note_on_c, 0, 57, 0
2, 41760, Note_on_c, 0, 52, 80
2, 41760, Note_on_c, 0, 57, 80
2, 42215, Note_on_c, 0, 52, 0
2, 42215, Note_on_c, 0, 57, 0
2, 42240, Note_on_c, 0, 53, 80
2, 42240, Note_on_c, 0, 57, 80
2, 42695, Note_on_c, 0, 53, 0
2, 42695, Note_on_c, 0, 57, 0
2, 42720, Note_on_c, 0, 53, 80
2, 42720, Note_on_c, 0, 57, 80
2, 43175, Note_on_c, 0, 53, 0
2, 43175, Note_on_c, 0, 57, 0
2, 43200, Note_on_c, 0, 53, 80
2, 43200, Note_on_c, 0, 57, 80
2, 43427, Note_on_c, 0, 53, 0
2, 43427, Note_on_c, 0, 57, 0
2, 43440, Note_on_c, 0, 53, 80
2, 43440, Note_on_c, 0, 57, 80
2, 43895, Note_on_c, 0, 53, 0
2, 43895, Note_on_c, 0, 57, 0
2, 43920, Note_on_c, 0, 53, 80
2, 43920, Note_on_c, 0, 57, 80
2, 44375, Note_on_c, 0, 53, 0
2, 44375, Note_on_c, 0, 57, 0
2, 44640, Note_on_c, 0, 53, 80
2, 44640, Note_on_c, 0, 57, 80
2, 44879, Note_on_c, 0, 53, 0
2, 44879, Note_on_c, 0, 57, 0
2, 45120, Note_on_c, 0, 53, 80
2, 45120, Note_on_c, 0, 57, 80
2, 45359, Note_on_c, 0, 53, 0
2, 45359, Note_on_c, 0, 57, 0
2, 45600, Note_on_c, 0, 53, 80
2, 45600, Note_on_c, 0, 57, 80
2, 46055, Note_on_c, 0, 53, 0
2, 46055, Note_on_c, 0, 57, 0
2, 46080, Note_on_c, 0, 52, 80
2, 46080, Note_on_c, 0, 57, 80
2, 46535, Note_on_c, 0, 52, 0
2, 46535, Note_on_c, 0, 57, 0
2, 46560, Note_on_c, 0, 52, 80
2, 46560, Note_on_c, 0, 57, 80
2, 47015, Note_on_c, 0, 52, 0
2, 47015, Note_on_c, 0, 57, 0
2, 47040, Note_on_c, 0, 52, 80
2, 47040, Note_on_c, 0, 57, 80
2, 47267, Note_on_c, 0, 52, 0
2, 47267, Note_on_c, 0, 57, 0
2, 47280, Note_on_c, 0, 52, 80
2, 47280, Note_on_c, 0, 57, 80
2, 47735, Note_on_c, 0, 52, 0
2, 47735, Note_on_c, 0, 57, 0
2, 47760, Note_on_c, 0, 52, 80
2, 47760, Note_on_c, 0, 57, 80
2, 48215, Note_on_c, 0, 52, 0
2, 48215, Note_on_c, 0, 57, 0
2, 48480, Note_on_c, 0, 52, 80
2, 48480, Note_on_c, 0, 57, 80
2, 48719, Note_on_c, 0, 52, 0
2, 48719, Note_on_c, 0, 57, 0
2, 48960, Note_on_c, 0, 52, 80
2, 48960, Note_on_c, 0, 57, 80
2, 49199, Note_on_c, 0, 52, 0
2, 49199, Note_on_c, 0, 57, 0
2, 49440, Note_on_c, 0, 52, 80
2, 49440, Note_on_c, 0, 57, 80
2, 49895, Note_on_c, 0, 52, 0
2, 49895, Note_on_c, 0, 57, 0
2, 49920, Note_on_c, 0, 53, 80
2, 49920, Note_on_c, 0, 57, 80
2, 50375, Note_on_c, 0, 53, 0
2, 50375, Note_on_c, 0, 57, 0
2, 50400, Note_on_c, 0, 53, 80
2, 50400, Note_on_c, 0, 57, 80
2, 50855, Note_on_c, 0, 53, 0
2, 50855, Note_on_c, 0, 57, 0
2, 50880, Note_on_c, 0, 53, 80
2, 50880, Note_on_c, 0, 57, 80
2, 51107, Note_on_c, 0, 53, 0
2, 51107, Note_on_c, 0, 57, 0
2, 51120, Note_on_c, 0, 53, 80
2, 51120, Note_on_c, 0, 57, 80
2, 51575, Note_on_c, 0, 53, 0
2, 51575, Note_on_c, 0, 57, 0
2, 51600, Note_on_c, 0, 53, 80
2, 51600, Note_on_c, 0, 57, 80
2, 52055, Note_on_c, 0, 53, 0
2, 52055, Note_on_c, 0, 57, 0
2, 52320, Note_on_c, 0, 53, 80
2, 52320, Note_on_c, 0, 57, 80
2, 52559, Note_on_c, 0, 53, 0
2, 52559, Note_on_c, 0, 57, 0
2, 52800, Note_on_c, 0, 53, 80
2, 52800, Note_on_c, 0, 57, 80
2, 53039, Note_on_c, 0, 53, 0
2, 53039, Note_on_c, 0, 57, 0
2, 53280, Note_on_c, 0, 53, 80
2, 53280, Note_on_c, 0, 57, 80
2, 53735, Note_on_c, 0, 53, 0
2, 53735, Note_on_c, 0, 57, 0
2, 53760, Note_on_c, 0, 52, 80
2, 53760, Note_on_c, 0, 57, 80
2, 54215, Note_on_c, 0, 52, 0
2, 54215, Note_on_c, 0, 57, 0
2, 54240, Note_on_c, 0, 52, 80
2, 54240, Note_on_c, 0, 57, 80
2, 54695, Note_on_c, 0, 52, 0
2, 54695, Note_on_c, 0, 57, 0
2, 54720, Note_on_c, 0, 52, 80
2, 54720, Note_on_c, 0, 57, 80
2, 54947, Note_on_c, 0, 52, 0
2, 54947, Note_on_c, 0, 57, 0
2, 54960, Note_on_c, 0, 52, 80
2, 54960, Note_on_c, 0, 57, 80
2, 55415, Note_on_c, 0, 52, 0
2, 55415, Note_on_c, 0, 57, 0
2, 55440, Note_on_c, 0, 52, 80
2, 55440, Note_on_c, 0, 57, 80
2, 55895, Note_on_c, 0, 52, 0
2, 55895, Note_on_c, 0, 57, 0
2, 56160, Note_on_c, 0, 52, 80
2, 56160, Note_on_c, 0, 57, 80
2, 56399, Note_on_c, 0, 52, 0
2, 56399, Note_on_c, 0, 57, 0
2, 56640, Note_on_c, 0, 52, 80
2, 56640, Note_on_c, 0, 57, 80
2, 56879, Note_on_c, 0, 52, 0
2, 56879, Note_on_c, 0, 57, 0
2, 57120, Note_on_c, 0, 52, 80
2, 57120, Note_on_c, 0, 57, 80
2, 57575, Note_on_c, 0, 52, 0
2, 57575, Note_on_c, 0, 57, 0
2, 57600, Note_on_c, 0, 53, 80
2, 57600, Note_on_c, 0, 57, 80
2, 58055, Note_on_c, 0, 53, 0
2, 58055, Note_on_c, 0, 57, 0
2, 58080, Note_on_c, 0, 53, 80
2, 58080, Note_on_c, 0, 57, 80
2, 58535, Note_on_c, 0, 53, 0
2, 58535, Note_on_c, 0, 57, 0
2, 58560, Note_on_c, 0, 53, 80
2, 58560, Note_on_c, 0, 57, 80
2, 58787, Note_on_c, 0, 53, 0
2, 58787, Note_on_c, 0, 57, 0
2, 58800, Note_on_c, 0, 53, 80
2, 58800, Note_on_c, 0, 57, 80
2, 59255, Note_on_c, 0, 53, 0
2, 59255, Note_on_c, 0, 57, 0
2, 59280, Note_on_c, 0, 53, 80
2, 59280, Note_on_c, 0, 57, 80
2, 59735, Note_on_c, 0, 53, 0
2, 59735, Note_on_c, 0, 57, 0
2, 60000, Note_on_c, 0, 53, 80
2, 60000, Note_on_c, 0, 57, 80
2, 60239, Note_on_c, 0, 53, 0
2, 60239, Note_on_c, 0, 57, 0
2, 60480, Note_on_c, 0, 50, 80
2, 60935, Note_on_c, 0, 50, 0
2, 60960, Note_on_c, 0, 52, 80
2, 61415, Note_on_c, 0, 52, 0
2, 61440, Note_on_c, 0, 53, 80
2, 61895, Note_on_c, 0, 53, 0
2, 61920, Note_on_c, 0, 53, 80
2, 62375, Note_on_c, 0, 53, 0
2, 62400, Note_on_c, 0, 53, 80
2, 62855, Note_on_c, 0, 53, 0
2, 62880, Note_on_c, 0, 53, 80
2, 63107, Note_on_c, 0, 53, 0
2, 63120, Note_on_c, 0, 55, 80
2, 63575, Note_on_c, 0, 55, 0
2, 63600, Note_on_c, 0, 55, 80
2, 63827, Note_on_c, 0, 55, 0
2, 63840, Note_on_c, 0, 50, 80
2, 63840, Note_on_c, 0, 55, 80
2, 64067, Note_on_c, 0, 50, 0
2, 64067, Note_on_c, 0, 55, 0
2, 64080, Note_on_c, 0, 55, 80
2, 64307, Note_on_c, 0, 55, 0
2, 64320, Note_on_c, 0, 50, 80
2, 64320, Note_on_c, 0, 55, 80
2, 64775, Note_on_c, 0, 50, 0
2, 64775, Note_on_c, 0, 55, 0
2, 64800, Note_on_c, 0, 50, 80
2, 64800, Note_on_c, 0, 55, 80
2, 65027, Note_on_c, 0, 50, 0
2, 65027, Note_on_c, 0, 55, 0
2, 65040, Note_on_c, 0, 55, 80
2, 65495, Note_on_c, 0, 55, 0
2, 65520, Note_on_c, 0, 50, 80
2, 65747, Note_on_c, 0, 50, 0
2, 65760, Note_on_c, 0, 50, 80
2, 66215, Note_on_c, 0, 50, 0
2, 66240, Note_on_c, 0, 50, 80
2, 66695, Note_on_c, 0, 50, 0
2, 66720, Note_on_c, 0, 50, 80
2, 66947, Note_on_c, 0, 50, 0
2, 66960, Note_on_c, 0, 50, 80
2, 66960, Note_on_c, 0, 57, 80
2, 67415, Note_on_c, 0, 50, 0
2, 67415, Note_on_c, 0, 57, 0
2, 67440, Note_on_c, 0, 50, 80
2, 67667, Note_on_c, 0, 50, 0
2, 67680, Note_on_c, 0, 50, 80
2, 67680, Note_on_c, 0, 57, 80
2, 67907, Note_on_c, 0, 50, 0
2, 67907, Note_on_c, 0, 57, 0
2, 67920, Note_on_c, 0, 50, 80
2, 68147, Note_on_c, 0, 50, 0
2, 68160, Note_on_c, 0, 50, 80
2, 68615, Note_on_c, 0, 50, 0
2, 68640, Note_on_c, 0, 52, 80
2, 69095, Note_on_c, 0, 52, 0
2, 69120, Note_on_c, 0, 53, 80
2, 69575, Note_on_c, 0, 53, 0
2, 69600, Note_on_c, 0, 53, 80
2, 70055, Note_on_c, 0, 53, 0
2, 70080, Note_on_c, 0, 53, 80
2, 70535, Note_on_c, 0, 53, 0
2, 70560, Note_on_c, 0, 53, 80
2, 70787, Note_on_c, 0, 53, 0
2, 70800, Note_on_c, 0, 55, 80
2, 71255, Note_on_c, 0, 55, 0
2, 71520, Note_on_c, 0, 50, 80
2, 71520, Note_on_c, 0, 55, 80
2, 71759, Note_on_c, 0, 50, 0
2, 71759, Note_on_c, 0, 55, 0
2, 72000, Note_on_c, 0, 50, 80
2, 72000, Note_on_c, 0, 55, 80
2, 72455, Note_on_c, 0, 50, 0
2, 72455, Note_on_c, 0, 55, 0
2, 72480, Note_on_c, 0, 50, 80
2, 72480, Note_on_c, 0, 55, 80
2, 72707, Note_on_c, 0, 50, 0
2, 72707, Note_on_c, 0, 55, 0
2, 72720, Note_on_c, 0, 55, 80
2, 73175, Note_on_c, 0, 55, 0
2, 73200, Note_on_c, 0, 50, 80
2, 73427, Note_on_c, 0, 50, 0
2, 73440, Note_on_c, 0, 50, 80
2, 73895, Note_on_c, 0, 50, 0
2, 73920, Note_on_c, 0, 50, 80
2, 74375, Note_on_c, 0, 50, 0
2, 74400, Note_on_c, 0, 50, 80
2, 74627, Note_on_c, 0, 50, 0
2, 74640, Note_on_c, 0, 52, 80
2, 75095, Note_on_c, 0, 52, 0
2, 75120, Note_on_c, 0, 53, 80
2, 75347, Note_on_c, 0, 53, 0
2, 75360, Note_on_c, 0, 53, 80
2, 75815, Note_on_c, 0, 53, 0
2, 75840, Note_on_c, 0, 53, 80
2, 76295, Note_on_c, 0, 53, 0
2, 76320, Note_on_c, 0, 53, 80
2, 76775, Note_on_c, 0, 53, 0
2, 76800, Note_on_c, 0, 53, 80
2, 77255, Note_on_c, 0, 53, 0
2, 77280, Note_on_c, 0, 53, 80
2, 77735, Note_on_c, 0, 53, 0
2, 77760, Note_on_c, 0, 53, 80
2, 78215, Note_on_c, 0, 53, 0
2, 78240, Note_on_c, 0, 52, 80
2, 78695, Note_on_c, 0, 52, 0
2, 80640, Note_on_c, 0, 57, 80
2, 81095, Note_on_c, 0, 57, 0
2, 81120, Note_on_c, 0, 57, 80
2, 81575, Note_on_c, 0, 57, 0
2, 81600, Note_on_c, 0, 57, 80
2, 82055, Note_on_c, 0, 57, 0
2, 82320, Note_on_c, 0, 52, 80
2, 82320, Note_on_c, 0, 57, 80
2, 82775, Note_on_c, 0, 52, 0
2, 82775, Note_on_c, 0, 57, 0
2, 82800, Note_on_c, 0, 57, 80
2, 83027, Note_on_c, 0, 57, 0
2, 83040, Note_on_c, 0, 52, 80
2, 83040, Note_on_c, 0, 57, 80
2, 83267, Note_on_c, 0, 52, 0
2, 83267, Note_on_c, 0, 57, 0
2, 83280, Note_on_c, 0, 57, 80
2, 83507, Note_on_c, 0, 57, 0
2, 83520, Note_on_c, 0, 57, 80
2, 83975, Note_on_c, 0, 57, 0
2, 84000, Note_on_c, 0, 57, 80
2, 84455, Note_on_c, 0, 57, 0
2, 84480, Note_on_c, 0, 55, 80
2, 84935, Note_on_c, 0, 55, 0
2, 84960, Note_on_c, 0, 55, 80
2, 85415, Note_on_c, 0, 55, 0
2, 85440, Note_on_c, 0, 55, 80
2, 85895, Note_on_c, 0, 55, 0
2, 86160, Note_on_c, 0, 50, 80
2, 86160, Note_on_c, 0, 55, 80
2, 86615, Note_on_c, 0, 50, 0
2, 86615, Note_on_c, 0, 55, 0
2, 86640, Note_on_c, 0, 55, 80
2, 86867, Note_on_c, 0, 55, 0
2, 86880, Note_on_c, 0, 50, 80
2, 86880, Note_on_c, 0, 55, 80
2, 87107, Note_on_c, 0, 50, 0
2, 87107, Note_on_c, 0, 55, 0
2, 87120, Note_on_c, 0, 55, 80
2, 87347, Note_on_c, 0, 55, 0
2, 87360, Note_on_c, 0, 55, 80
2, 87815, Note_on_c, 0, 55, 0
2, 87840, Note_on_c, 0, 55, 80
2, 88295, Note_on_c, 0, 55, 0
2, 88320, Note_on_c, 0, 53, 80
2, 88775, Note_on_c, 0, 53, 0
2, 88800, Note_on_c, 0, 53, 80
2, 89255, Note_on_c, 0, 53, 0
2, 89280, Note_on_c, 0, 53, 80
2, 89735, Note_on_c, 0, 53, 0
2, 90000, Note_on_c, 0, 48, 80
2, 90000, Note_on_c, 0, 53, 80
2, 90455, Note_on_c, 0, 48, 0
2, 90455, Note_on_c, 0, 53, 0
2, 90480, Note_on_c, 0, 53, 80
2, 90707, Note_on_c, 0, 53, 0
2, 90720, Note_on_c, 0, 53, 80
2, 90947, Note_on_c, 0, 53, 0
2, 90960, Note_on_c, 0, 53, 80
2, 91187, Note_on_c, 0, 53, 0
2, 91200, Note_on_c, 0, 53, 80
2, 91655, Note_on_c, 0, 53, 0
2, 91680, Note_on_c, 0, 53, 80
2, 92135, Note_on_c, 0, 53, 0
2, 92160, Note_on_c, 0, 50, 80
2, 92615, Note_on_c, 0, 50, 0
2, 92640, Note_on_c, 0, 50, 80
2, 93095, Note_on_c, 0, 50, 0
2, 93120, Note_on_c, 0, 50, 80
2, 93575, Note_on_c, 0, 50, 0
2, 93600, Note_on_c, 0, 50, 80
2, 94055, Note_on_c, 0, 50, 0
2, 94080, Note_on_c, 0, 55, 80
2, 94535, Note_on_c, 0, 55, 0
2, 94560, Note_on_c, 0, 55, 80
2, 95015, Note_on_c, 0, 55, 0
2, 95040, Note_on_c, 0, 57, 80
2, 95495, Note_on_c, 0, 57, 0
2, 95520, Note_on_c, 0, 57, 80
2, 95975, Note_on_c, 0, 57, 0
2, 96000, Note_on_c, 0, 57, 80
2, 96455, Note_on_c, 0, 57, 0
2, 96480, Note_on_c, 0, 57, 80
2, 96480, Note_on_c, 0, 62, 80
2, 96935, Note_on_c, 0, 57, 0
2, 96935, Note_on_c, 0, 62, 0
2, 96960, Note_on_c, 0, 57, 80
2, 96960, Note_on_c, 0, 60, 80
2, 97415, Note_on_c, 0, 57, 0
2, 97415, Note_on_c, 0, 60, 0
2, 97440, Note_on_c, 0, 57, 80
2, 97667, Note_on_c, 0, 57, 0
2, 97680, Note_on_c, 0, 59, 80
2, 97680, Note_on_c, 0, 52, 80
2, 97680, Note_on_c, 0, 57, 80
2, 97907, Note_on_c, 0, 59, 0
2, 98135, Note_on_c, 0, 52, 0
2, 98135, Note_on_c, 0, 57, 0
2, 98160, Note_on_c, 0, 57, 80
2, 98387, Note_on_c, 0, 57, 0
2, 98400, Note_on_c, 0, 52, 80
2, 98400, Note_on_c, 0, 57, 80
2, 98627, Note_on_c, 0, 52, 0
2, 98627, Note_on_c, 0, 57, 0
2, 98640, Note_on_c, 0, 57, 80
2, 98640, Note_on_c, 0, 59, 80
2, 98867, Note_on_c, 0, 57, 0
2, 98867, Note_on_c, 0, 59, 0
2, 98880, Note_on_c, 0, 57, 80
2, 99107, Note_on_c, 0, 57, 0
2, 99120, Note_on_c, 0, 60, 80
2, 99347, Note_on_c, 0, 60, 0
2, 99360, Note_on_c, 0, 57, 80
2, 99815, Note_on_c, 0, 57, 0
2, 99840, Note_on_c, 0, 55, 80
2, 100295, Note_on_c, 0, 55, 0
2, 100320, Note_on_c, 0, 55, 80
2, 100320, Note_on_c, 0, 62, 80
2, 100775, Note_on_c, 0, 55, 0
2, 100775, Note_on_c, 0, 62, 0
2, 100800, Note_on_c, 0, 55, 80
2, 100800, Note_on_c, 0, 60, 80
2, 101255, Note_on_c, 0, 55, 0
2, 101255, Note_on_c, 0, 60, 0
2, 101520, Note_on_c, 0, 59, 80
2, 101520, Note_on_c, 0, 50, 80
2, 101520, Note_on_c, 0, 55, 80
2, 101747, Note_on_c, 0, 59, 0
2, 101975, Note_on_c, 0, 50, 0
2, 101975, Note_on_c, 0, 55, 0
2, 102000, Note_on_c, 0, 55, 80
2, 102000, Note_on_c, 0, 60, 80
2, 102227, Note_on_c, 0, 55, 0
2, 102227, Note_on_c, 0, 60, 0
2, 102240, Note_on_c, 0, 50, 80
2, 102240, Note_on_c, 0, 55, 80
2, 102467, Note_on_c, 0, 50, 0
2, 102467, Note_on_c, 0, 55, 0
2, 102480, Note_on_c, 0, 55, 80
2, 102480, Note_on_c, 0, 64, 80
2, 102707, Note_on_c, 0, 55, 0
2, 102707, Note_on_c, 0, 64, 0
2, 102720, Note_on_c, 0, 55, 80
2, 102947, Note_on_c, 0, 55, 0
2, 102960, Note_on_c, 0, 62, 80
2, 103187, Note_on_c, 0, 62, 0
2, 103200, Note_on_c, 0, 55, 80
2, 103200, Note_on_c, 0, 60, 80
2, 103655, Note_on_c, 0, 55, 0
2, 103655, Note_on_c, 0, 60, 0
2, 103680, Note_on_c, 0, 53, 80
2, 104135, Note_on_c, 0, 53, 0
2, 104160, Note_on_c, 0, 53, 80
2, 104160, Note_on_c, 0, 62, 80
2, 104615, Note_on_c, 0, 53, 0
2, 104615, Note_on_c, 0, 62, 0
2, 104640, Note_on_c, 0, 53, 80
2, 104640, Note_on_c, 0, 60, 80
2, 105095, Note_on_c, 0, 53, 0
2, 105095, Note_on_c, 0, 60, 0
2, 105360, Note_on_c, 0, 59, 80
2, 105360, Note_on_c, 0, 48, 80
2, 105360, Note_on_c, 0, 53, 80
2, 105587, Note_on_c, 0, 59, 0
2, 105815, Note_on_c, 0, 48, 0
2, 105815, Note_on_c, 0, 53, 0
2, 105840, Note_on_c, 0, 53, 80
2, 105840, Note_on_c, 0, 57, 80
2, 106295, Note_on_c, 0, 53, 0
2, 106295, Note_on_c, 0, 57, 0
2, 106320, Note_on_c, 0, 53, 80
2, 106320, Note_on_c, 0, 59, 80
2, 106547, Note_on_c, 0, 53, 0
2, 106547, Note_on_c, 0, 59, 0
2, 106560, Note_on_c, 0, 53, 80
2, 106787, Note_on_c, 0, 53, 0
2, 106800, Note_on_c, 0, 60, 80
2, 107027, Note_on_c, 0, 60, 0
2, 107040, Note_on_c, 0, 53, 80
2, 107495, Note_on_c, 0, 53, 0
2, 107520, Note_on_c, 0, 50, 80
2, 107975, Note_on_c, 0, 50, 0
2, 108000, Note_on_c, 0, 50, 80
2, 108227, Note_on_c, 0, 50, 0
2, 108240, Note_on_c, 0, 62, 80
2, 108467, Note_on_c, 0, 62, 0
2, 108480, Note_on_c, 0, 50, 80
2, 108707, Note_on_c, 0, 50, 0
2, 108720, Note_on_c, 0, 60, 80
2, 108947, Note_on_c, 0, 60, 0
2, 108960, Note_on_c, 0, 50, 80
2, 109187, Note_on_c, 0, 50, 0
2, 109200, Note_on_c, 0, 59, 80
2, 109427, Note_on_c, 0, 59, 0
2, 109440, Note_on_c, 0, 55, 80
2, 109667, Note_on_c, 0, 55, 0
2, 109680, Note_on_c, 0, 59, 80
2, 109907, Note_on_c, 0, 59, 0
2, 109920, Note_on_c, 0, 55, 80
2, 110147, Note_on_c, 0, 55, 0
2, 110160, Note_on_c, 0, 59, 80
2, 110387, Note_on_c, 0, 59, 0
2, 110400, Note_on_c, 0, 57, 80
2, 110855, Note_on_c, 0, 57, 0
2, 110880, Note_on_c, 0, 57, 80
2, 111335, Note_on_c, 0, 57, 0
2, 111360, Note_on_c, 0, 52, 80
2, 111360, Note_on_c, 0, 57, 80
2, 111815, Note_on_c, 0, 52, 0
2, 111815, Note_on_c, 0, 57, 0
2, 111840, Note_on_c, 0, 52, 80
2, 111840, Note_on_c, 0, 57, 80
2, 112295, Note_on_c, 0, 52, 0
2, 112295, Note_on_c, 0, 57, 0
2, 112320, Note_on_c, 0, 57, 80
2, 112775, Note_on_c, 0, 57, 0
2, 113040, Note_on_c, 0, 52, 80
2, 113040, Note_on_c, 0, 59, 80
2, 113495, Note_on_c, 0, 52, 0
2, 113495, Note_on_c, 0, 59, 0
2, 113520, Note_on_c, 0, 52, 80
2, 113747, Note_on_c, 0, 52, 0
2, 113760, Note_on_c, 0, 57, 80
2, 113987, Note_on_c, 0, 57, 0
2, 114000, Note_on_c, 0, 52, 80
2, 114227, Note_on_c, 0, 52, 0
2, 114240, Note_on_c, 0, 57, 80
2, 114240, Note_on_c, 0, 59, 80
2, 114695, Note_on_c, 0, 57, 0
2, 114695, Note_on_c, 0, 59, 0
2, 114720, Note_on_c, 0, 57, 80
2, 114720, Note_on_c, 0, 60, 80
2, 115175, Note_on_c, 0, 57, 0
2, 115175, Note_on_c, 0, 60, 0
2, 115200, Note_on_c, 0, 52, 80
2, 115200, Note_on_c, 0, 55, 80
2, 115200, Note_on_c, 0, 57, 80
2, 115655, Note_on_c, 0, 52, 0
2, 115655, Note_on_c, 0, 55, 0
2, 115655, Note_on_c, 0, 57, 0
2, 115680, Note_on_c, 0, 50, 80
2, 115680, Note_on_c, 0, 55, 80
2, 116135, Note_on_c, 0, 50, 0
2, 116135, Note_on_c, 0, 55, 0
2, 116160, Note_on_c, 0, 55, 80
2, 116160, Note_on_c, 0, 57, 80
2, 116615, Note_on_c, 0, 55, 0
2, 116615, Note_on_c, 0, 57, 0
2, 116640, Note_on_c, 0, 50, 80
2, 116867, Note_on_c, 0, 50, 0
2, 116880, Note_on_c, 0, 59, 80
2, 117335, Note_on_c, 0, 59, 0
2, 117360, Note_on_c, 0, 50, 80
2, 117587, Note_on_c, 0, 50, 0
2, 117600, Note_on_c, 0, 50, 80
2, 117600, Note_on_c, 0, 57, 80
2, 117827, Note_on_c, 0, 50, 0
2, 117827, Note_on_c, 0, 57, 0
2, 117840, Note_on_c, 0, 50, 80
2, 118067, Note_on_c, 0, 50, 0
2, 118080, Note_on_c, 0, 55, 80
2, 118080, Note_on_c, 0, 59, 80
2, 118535, Note_on_c, 0, 55, 0
2, 118535, Note_on_c, 0, 59, 0
2, 118560, Note_on_c, 0, 55, 80
2, 118560, Note_on_c, 0, 60, 80
2, 119015, Note_on_c, 0, 55, 0
2, 119015, Note_on_c, 0, 60, 0
2, 119040, Note_on_c, 0, 53, 80
2, 119495, Note_on_c, 0, 53, 0
2, 119520, Note_on_c, 0, 48, 80
2, 119520, Note_on_c, 0, 53, 80
2, 119975, Note_on_c, 0, 48, 0
2, 119975, Note_on_c, 0, 53, 0
2, 120000, Note_on_c, 0, 53, 80
2, 120000, Note_on_c, 0, 57, 80
2, 120455, Note_on_c, 0, 53, 0
2, 120455, Note_on_c, 0, 57, 0
2, 120720, Note_on_c, 0, 48, 80
2, 120720, Note_on_c, 0, 53, 80
2, 121175, Note_on_c, 0, 48, 0
2, 121175, Note_on_c, 0, 53, 0
2, 121440, Note_on_c, 0, 48, 80
2, 121440, Note_on_c, 0, 53, 80
2, 121679, Note_on_c, 0, 48, 0
2, 121679, Note_on_c, 0, 53, 0
2, 121920, Note_on_c, 0, 53, 80
2, 121920, Note_on_c, 0, 59, 80
2, 122375, Note_on_c, 0, 53, 0
2, 122375, Note_on_c, 0, 59, 0
2, 122400, Note_on_c, 0, 53, 80
2, 122400, Note_on_c, 0, 60, 80
2, 122855, Note_on_c, 0, 53, 0
2, 122855, Note_on_c, 0, 60, 0
2, 122880, Note_on_c, 0, 50, 80
2, 123335, Note_on_c, 0, 50, 0
2, 123360, Note_on_c, 0, 50, 80
2, 123815, Note_on_c, 0, 50, 0
2, 123840, Note_on_c, 0, 50, 80
2, 124295, Note_on_c, 0, 50, 0
2, 124320, Note_on_c, 0, 50, 80
2, 124775, Note_on_c, 0, 50, 0
2, 124800, Note_on_c, 0, 55, 80
2, 125255, Note_on_c, 0, 55, 0
2, 125280, Note_on_c, 0, 55, 80
2, 125280, Note_on_c, 0, 59, 80
2, 125735, Note_on_c, 0, 55, 0
2, 125735, Note_on_c, 0, 59, 0
2, 125760, Note_on_c, 0, 57, 80
2, 126215, Note_on_c, 0, 57, 0
2, 126240, Note_on_c, 0, 57, 80
2, 126695, Note_on_c, 0, 57, 0
2, 126720, Note_on_c, 0, 52, 80
2, 126720, Note_on_c, 0, 57, 80
2, 127175, Note_on_c, 0, 52, 0
2, 127175, Note_on_c, 0, 57, 0
2, 127200, Note_on_c, 0, 52, 80
2, 127200, Note_on_c, 0, 57, 80
2, 127655, Note_on_c, 0, 52, 0
2, 127655, Note_on_c, 0, 57, 0
2, 127680, Note_on_c, 0, 57, 80
2, 128135, Note_on_c, 0, 57, 0
2, 128400, Note_on_c, 0, 52, 80
2, 128400, Note_on_c, 0, 59, 80
2, 128855, Note_on_c, 0, 52, 0
2, 128855, Note_on_c, 0, 59, 0
2, 129120, Note_on_c, 0, 52, 80
2, 129120, Note_on_c, 0, 57, 80
2, 129359, Note_on_c, 0, 52, 0
2, 129359, Note_on_c, 0, 57, 0
2, 129600, Note_on_c, 0, 57, 80
2, 129600, Note_on_c, 0, 59, 80
2, 130055, Note_on_c, 0, 57, 0
2, 130055, Note_on_c, 0, 59, 0
2, 130080, Note_on_c, 0, 57, 80
2, 130535, Note_on_c, 0, 57, 0
2, 130560, Note_on_c, 0, 52, 80
2, 130560, Note_on_c, 0, 55, 80
2, 130560, Note_on_c, 0, 57, 80
2, 131015, Note_on_c, 0, 52, 0
2, 131015, Note_on_c, 0, 55, 0
2, 131015, Note_on_c, 0, 57, 0
2, 131040, Note_on_c, 0, 50, 80
2, 131040, Note_on_c, 0, 55, 80
2, 131495, Note_on_c, 0, 50, 0
2, 131495, Note_on_c, 0, 55, 0
2, 131520, Note_on_c, 0, 55, 80
2, 131520, Note_on_c, 0, 57, 80
2, 131975, Note_on_c, 0, 55, 0
2, 131975, Note_on_c, 0, 57, 0
2, 132240, Note_on_c, 0, 50, 80
2, 132240, Note_on_c, 0, 59, 80
2, 132695, Note_on_c, 0, 50, 0
2, 132695, Note_on_c, 0, 59, 0
2, 132960, Note_on_c, 0, 50, 80
2, 132960, Note_on_c, 0, 57, 80
2, 133199, Note_on_c, 0, 50, 0
2, 133199, Note_on_c, 0, 57, 0
2, 133440, Note_on_c, 0, 55, 80
2, 133440, Note_on_c, 0, 59, 80
2, 133895, Note_on_c, 0, 55, 0
2, 133895, Note_on_c, 0, 59, 0
2, 133920, Note_on_c, 0, 55, 80
2, 134375, Note_on_c, 0, 55, 0
2, 134400, Note_on_c, 0, 53, 80
2, 134400, Note_on_c, 0, 62, 80
2, 134855, Note_on_c, 0, 53, 0
2, 134855, Note_on_c, 0, 62, 0
2, 134880, Note_on_c, 0, 48, 80
2, 134880, Note_on_c, 0, 53, 80
2, 135335, Note_on_c, 0, 48, 0
2, 135335, Note_on_c, 0, 53, 0
2, 135360, Note_on_c, 0, 53, 80
2, 135815, Note_on_c, 0, 53, 0
2, 136080, Note_on_c, 0, 48, 80
2, 136080, Note_on_c, 0, 53, 80
2, 136307, Note_on_c, 0, 48, 0
2, 136307, Note_on_c, 0, 53, 0
2, 136320, Note_on_c, 0, 65, 80
2, 136320, Note_on_c, 0, 69, 80
2, 136559, Note_on_c, 0, 65, 0
2, 136559, Note_on_c, 0, 69, 0
2, 136800, Note_on_c, 0, 48, 80
2, 136800, Note_on_c, 0, 53, 80
2, 136913, Note_on_c, 0, 48, 0
2, 136913, Note_on_c, 0, 53, 0
2, 136920, Note_on_c, 0, 65, 80
2, 137039, Note_on_c, 0, 65, 0
2, 137160, Note_on_c, 0, 65, 80
2, 137273, Note_on_c, 0, 65, 0
2, 137280, Note_on_c, 0, 53, 80
2, 137735, Note_on_c, 0, 53, 0
2, 137760, Note_on_c, 0, 53, 80
2, 138215, Note_on_c, 0, 53, 0
2, 138240, Note_on_c, 0, 50, 80
2, 138695, Note_on_c, 0, 50, 0
2, 138720, Note_on_c, 0, 50, 80
2, 139175, Note_on_c, 0, 50, 0
2, 139200, Note_on_c, 0, 50, 80
2, 139200, Note_on_c, 0, 57, 80
2, 139655, Note_on_c, 0, 50, 0
2, 139655, Note_on_c, 0, 57, 0
2, 139680, Note_on_c, 0, 50, 80
2, 139919, Note_on_c, 0, 50, 0
2, 140160, Note_on_c, 0, 55, 80
2, 140160, Note_on_c, 0, 59, 80
2, 140279, Note_on_c, 0, 55, 0
2, 140279, Note_on_c, 0, 59, 0
2, 140400, Note_on_c, 0, 59, 80
2, 140627, Note_on_c, 0, 59, 0
2, 140640, Note_on_c, 0, 55, 80
2, 140867, Note_on_c, 0, 55, 0
2, 140880, Note_on_c, 0, 59, 80
2, 141107, Note_on_c, 0, 59, 0
2, 141120, Note_on_c, 0, 55, 80
2, 141120, Note_on_c, 0, 59, 80
2, 141575, Note_on_c, 0, 55, 0
2, 141575, Note_on_c, 0, 59, 0
2, 141600, Note_on_c, 0, 55, 80
2, 141827, Note_on_c, 0, 55, 0
2, 141840, Note_on_c, 0, 59, 80
2, 142067, Note_on_c, 0, 59, 0
2, 142080, Note_on_c, 0, 52, 80
2, 142080, Note_on_c, 0, 57, 80
2, 145727, Note_on_c, 0, 52, 0
2, 145727, Note_on_c, 0, 57, 0
2, 145920, Note_on_c, 0, 50, 80
2, 145920, Note_on_c, 0, 55, 80
2, 149567, Note_on_c, 0, 50, 0
2, 149567, Note_on_c, 0, 55, 0
2, 149760, Note_on_c, 0, 48, 80
2, 149760, Note_on_c, 0, 53, 80
2, 153407, Note_on_c, 0, 48, 0
2, 153407, Note_on_c, 0, 53, 0
2, 153600, Note_on_c, 0, 50, 80
2, 153600, Note_on_c, 0, 57, 80
2, 155423, Note_on_c, 0, 50, 0
2, 155423, Note_on_c, 0, 57, 0
2, 155520, Note_on_c, 0, 62, 80
2, 155975, Note_on_c, 0, 62, 0
2, 156000, Note_on_c, 0, 60, 80
2, 156455, Note_on_c, 0, 60, 0
2, 156480, Note_on_c, 0, 59, 80
2, 156935, Note_on_c, 0, 59, 0
2, 156960, Note_on_c, 0, 57, 80
2, 157415, Note_on_c, 0, 57, 0
2, 157440, Note_on_c, 0, 52, 80
2, 157440, Note_on_c, 0, 57, 80
2, 158400, Note_on_c, 0, 64, 80
2, 160223, Note_on_c, 0, 64, 0
2, 160320, Note_on_c, 0, 62, 80
2, 160775, Note_on_c, 0, 62, 0
2, 160800, Note_on_c, 0, 60, 80
2, 161087, Note_on_c, 0, 52, 0
2, 161087, Note_on_c, 0, 57, 0
2, 161255, Note_on_c, 0, 60, 0
2, 161280, Note_on_c, 0, 52, 80
2, 161280, Note_on_c, 0, 55, 80
2, 162240, Note_on_c, 0, 64, 80
2, 164063, Note_on_c, 0, 64, 0
2, 164160, Note_on_c, 0, 62, 80
2, 164615, Note_on_c, 0, 62, 0
2, 164640, Note_on_c, 0, 60, 80
2, 164927, Note_on_c, 0, 52, 0
2, 164927, Note_on_c, 0, 55, 0
2, 165095, Note_on_c, 0, 60, 0
2, 165120, Note_on_c, 0, 48, 80
2, 165120, Note_on_c, 0, 53, 80
2, 166080, Note_on_c, 0, 64, 80
2, 167903, Note_on_c, 0, 64, 0
2, 168000, Note_on_c, 0, 62, 80
2, 168455, Note_on_c, 0, 62, 0
2, 168480, Note_on_c, 0, 60, 80
2, 168767, Note_on_c, 0, 48, 0
2, 168767, Note_on_c, 0, 53, 0
2, 168935, Note_on_c, 0, 60, 0
2, 168960, Note_on_c, 0, 52, 80
2, 168960, Note_on_c, 0, 59, 80
2, 169187, Note_on_c, 0, 52, 0
2, 169187, Note_on_c, 0, 59, 0
2, 169200, Note_on_c, 0, 52, 80
2, 169427, Note_on_c, 0, 52, 0
2, 169440, Note_on_c, 0, 52, 80
2, 169667, Note_on_c, 0, 52, 0
2, 169680, Note_on_c, 0, 52, 80
2, 169907, Note_on_c, 0, 52, 0
2, 169920, Note_on_c, 0, 52, 80
2, 169920, Note_on_c, 0, 59, 80
2, 170147, Note_on_c, 0, 52, 0
2, 170147, Note_on_c, 0, 59, 0
2, 170160, Note_on_c, 0, 52, 80
2, 170387, Note_on_c, 0, 52, 0
2, 170400, Note_on_c, 0, 52, 80
2, 170627, Note_on_c, 0, 52, 0
2, 170640, Note_on_c, 0, 52, 80
2, 170867, Note_on_c, 0, 52, 0
2, 170880, Note_on_c, 0, 52, 80
2, 171107, Note_on_c, 0, 52, 0
2, 171120, Note_on_c, 0, 52, 80
2, 171120, Note_on_c, 0, 59, 80
2, 171575, Note_on_c, 0, 52, 0
2, 171575, Note_on_c, 0, 59, 0
2, 171600, Note_on_c, 0, 52, 80
2, 171600, Note_on_c, 0, 59, 80
2, 171827, Note_on_c, 0, 52, 0
2, 171827, Note_on_c, 0, 59, 0
2, 171840, Note_on_c, 0, 52, 80
2, 171840, Note_on_c, 0, 59, 80
2, 172067, Note_on_c, 0, 52, 0
2, 172067, Note_on_c, 0, 59, 0
2, 172080, Note_on_c, 0, 52, 80
2, 172307, Note_on_c, 0, 52, 0
2, 172320, Note_on_c, 0, 52, 80
2, 172320, Note_on_c, 0, 59, 80
2, 172775, Note_on_c, 0, 52, 0
2, 172775, Note_on_c, 0, 59, 0
2, 172800, Note_on_c, 0, 57, 80
2, 173255, Note_on_c, 0, 57, 0
2, 173280, Note_on_c, 0, 57, 80
2, 173280, Note_on_c, 0, 62, 80
2, 173735, Note_on_c, 0, 57, 0
2, 173735, Note_on_c, 0, 62, 0
2, 173760, Note_on_c, 0, 57, 80
2, 173760, Note_on_c, 0, 60, 80
2, 174215, Note_on_c, 0, 57, 0
2, 174215, Note_on_c, 0, 60, 0
2, 174480, Note_on_c, 0, 59, 80
2, 174480, Note_on_c, 0, 52, 80
2, 174480, Note_on_c, 0, 57, 80
2, 174707, Note_on_c, 0, 59, 0
2, 174935, Note_on_c, 0, 52, 0
2, 174935, Note_on_c, 0, 57, 0
2, 174960, Note_on_c, 0, 57, 80
2, 175187, Note_on_c, 0, 57, 0
2, 175200, Note_on_c, 0, 52, 80
2, 175200, Note_on_c, 0, 57, 80
2, 175427, Note_on_c, 0, 52, 0
2, 175427, Note_on_c, 0, 57, 0
2, 175440, Note_on_c, 0, 59, 80
2, 175667, Note_on_c, 0, 59, 0
2, 175680, Note_on_c, 0, 57, 80
2, 176135, Note_on_c, 0, 57, 0
2, 176160, Note_on_c, 0, 57, 80
2, 176615, Note_on_c, 0, 57, 0
2, 176640, Note_on_c, 0, 55, 80
2, 177095, Note_on_c, 0, 55, 0
2, 177120, Note_on_c, 0, 55, 80
2, 177120, Note_on_c, 0, 62, 80
2, 177575, Note_on_c, 0, 55, 0
2, 177575, Note_on_c, 0, 62, 0
2, 177600, Note_on_c, 0, 55, 80
2, 177600, Note_on_c, 0, 60, 80
2, 178055, Note_on_c, 0, 55, 0
2, 178055, Note_on_c, 0, 60, 0
2, 178320, Note_on_c, 0, 59, 80
2, 178320, Note_on_c, 0, 50, 80
2, 178320, Note_on_c, 0, 55, 80
2, 178547, Note_on_c, 0, 59, 0
2, 178775, Note_on_c, 0, 50, 0
2, 178775, Note_on_c, 0, 55, 0
2, 179040, Note_on_c, 0, 50, 80
2, 179040, Note_on_c, 0, 55, 80
2, 179267, Note_on_c, 0, 50, 0
2, 179267, Note_on_c, 0, 55, 0
2, 179280, Note_on_c, 0, 64, 80
2, 179507, Note_on_c, 0, 64, 0
2, 179520, Note_on_c, 0, 55, 80
2, 179747, Note_on_c, 0, 55, 0
2, 179760, Note_on_c, 0, 62, 80
2, 179987, Note_on_c, 0, 62, 0
2, 180000, Note_on_c, 0, 55, 80
2, 180000, Note_on_c, 0, 60, 80
2, 180455, Note_on_c, 0, 55, 0
2, 180455, Note_on_c, 0, 60, 0
2, 180480, Note_on_c, 0, 53, 80
2, 180935, Note_on_c, 0, 53, 0
2, 180960, Note_on_c, 0, 53, 80
2, 180960, Note_on_c, 0, 62, 80
2, 181415, Note_on_c, 0, 53, 0
2, 181415, Note_on_c, 0, 62, 0
2, 181440, Note_on_c, 0, 53, 80
2, 181440, Note_on_c, 0, 60, 80
2, 181895, Note_on_c, 0, 53, 0
2, 181895, Note_on_c, 0, 60, 0
2, 182160, Note_on_c, 0, 59, 80
2, 182160, Note_on_c, 0, 48, 80
2, 182160, Note_on_c, 0, 53, 80
2, 182387, Note_on_c, 0, 59, 0
2, 182615, Note_on_c, 0, 48, 0
2, 182615, Note_on_c, 0, 53, 0
2, 182640, Note_on_c, 0, 57, 80
2, 182867, Note_on_c, 0, 57, 0
2, 182880, Note_on_c, 0, 48, 80
2, 182880, Note_on_c, 0, 53, 80
2, 183107, Note_on_c, 0, 48, 0
2, 183107, Note_on_c, 0, 53, 0
2, 183120, Note_on_c, 0, 59, 80
2, 183347, Note_on_c, 0, 59, 0
2, 183360, Note_on_c, 0, 53, 80
2, 183815, Note_on_c, 0, 53, 0
2, 183840, Note_on_c, 0, 53, 80
2, 184295, Note_on_c, 0, 53, 0
2, 184320, Note_on_c, 0, 50, 80
2, 184775, Note_on_c, 0, 50, 0
2, 184800, Note_on_c, 0, 50, 80
2, 185255, Note_on_c, 0, 50, 0
2, 185280, Note_on_c, 0, 50, 80
2, 185735, Note_on_c, 0, 50, 0
2, 185760, Note_on_c, 0, 50, 80
2, 186215, Note_on_c, 0, 50, 0
2, 186240, Note_on_c, 0, 55, 80
2, 186240, Note_on_c, 0, 59, 80
2, 186695, Note_on_c, 0, 55, 0
2, 186695, Note_on_c, 0, 59, 0
2, 186720, Note_on_c, 0, 55, 80
2, 187175, Note_on_c, 0, 55, 0
2, 187200, Note_on_c, 0, 55, 80
2, 187200, Note_on_c, 0, 59, 80
2, 187655, Note_on_c, 0, 55, 0
2, 187655, Note_on_c, 0, 59, 0
2, 187680, Note_on_c, 0, 55, 80
2, 188135, Note_on_c, 0, 55, 0
2, 188160, Note_on_c, 0, 57, 80
2, 188615, Note_on_c, 0, 57, 0
2, 188640, Note_on_c, 0, 57, 80
2, 188640, Note_on_c, 0, 62, 80
2, 189095, Note_on_c, 0, 57, 0
2, 189095, Note_on_c, 0, 62, 0
2, 189120, Note_on_c, 0, 57, 80
2, 189120, Note_on_c, 0, 60, 80
2, 189575, Note_on_c, 0, 57, 0
2, 189575, Note_on_c, 0, 60, 0
2, 189840, Note_on_c, 0, 59, 80
2, 189840, Note_on_c, 0, 52, 80
2, 189840, Note_on_c, 0, 57, 80
2, 190067, Note_on_c, 0, 59, 0
2, 190295, Note_on_c, 0, 52, 0
2, 190295, Note_on_c, 0, 57, 0
2, 190320, Note_on_c, 0, 57, 80
2, 190547, Note_on_c, 0, 57, 0
2, 190560, Note_on_c, 0, 52, 80
2, 190560, Note_on_c, 0, 57, 80
2, 190787, Note_on_c, 0, 52, 0
2, 190787, Note_on_c, 0, 57, 0
2, 190800, Note_on_c, 0, 59, 80
2, 191027, Note_on_c, 0, 59, 0
2, 191040, Note_on_c, 0, 57, 80
2, 191495, Note_on_c, 0, 57, 0
2, 191520, Note_on_c, 0, 57, 80
2, 191975, Note_on_c, 0, 57, 0
2, 192000, Note_on_c, 0, 55, 80
2, 192455, Note_on_c, 0, 55, 0
2, 192480, Note_on_c, 0, 55, 80
2, 192480, Note_on_c, 0, 62, 80
2, 192935, Note_on_c, 0, 55, 0
2, 192935, Note_on_c, 0, 62, 0
2, 192960, Note_on_c, 0, 55, 80
2, 192960, Note_on_c, 0, 60, 80
2, 193415, Note_on_c, 0, 55, 0
2, 193415, Note_on_c, 0, 60, 0
2, 193680, Note_on_c, 0, 59, 80
2, 193680, Note_on_c, 0, 50, 80
2, 193680, Note_on_c, 0, 55, 80
2, 193907, Note_on_c, 0, 59, 0
2, 194135, Note_on_c, 0, 50, 0
2, 194135, Note_on_c, 0, 55, 0
2, 194400, Note_on_c, 0, 50, 80
2, 194400, Note_on_c, 0, 55, 80
2, 194627, Note_on_c, 0, 50, 0
2, 194627, Note_on_c, 0, 55, 0
2, 194640, Note_on_c, 0, 64, 80
2, 194867, Note_on_c, 0, 64, 0
2, 194880, Note_on_c, 0, 55, 80
2, 195107, Note_on_c, 0, 55, 0
2, 195120, Note_on_c, 0, 62, 80
2, 195347, Note_on_c, 0, 62, 0
2, 195360, Note_on_c, 0, 55, 80
2, 195815, Note_on_c, 0, 55, 0
2, 195840, Note_on_c, 0, 53, 80
2, 196295, Note_on_c, 0, 53, 0
2, 196320, Note_on_c, 0, 53, 80
2, 196320, Note_on_c, 0, 62, 80
2, 196775, Note_on_c, 0, 53, 0
2, 196775, Note_on_c, 0, 62, 0
2, 196800, Note_on_c, 0, 53, 80
2, 196800, Note_on_c, 0, 60, 80
2, 197255, Note_on_c, 0, 53, 0
2, 197255, Note_on_c, 0, 60, 0
2, 197520, Note_on_c, 0, 59, 80
2, 197520, Note_on_c, 0, 48, 80
2, 197520, Note_on_c, 0, 53, 80
2, 197747, Note_on_c, 0, 59, 0
2, 197975, Note_on_c, 0, 48, 0
2, 197975, Note_on_c, 0, 53, 0
2, 198000, Note_on_c, 0, 57, 80
2, 198227, Note_on_c, 0, 57, 0
2, 198240, Note_on_c, 0, 48, 80
2, 198240, Note_on_c, 0, 53, 80
2, 198467, Note_on_c, 0, 48, 0
2, 198467, Note_on_c, 0, 53, 0
2, 198480, Note_on_c, 0, 59, 80
2, 198707, Note_on_c, 0, 59, 0
2, 198720, Note_on_c, 0, 53, 80
2, 199175, Note_on_c, 0, 53, 0
2, 199200, Note_on_c, 0, 53, 80
2, 199655, Note_on_c, 0, 53, 0
2, 199680, Note_on_c, 0, 50, 80
2, 200135, Note_on_c, 0, 50, 0
2, 200160, Note_on_c, 0, 50, 80
2, 200615, Note_on_c, 0, 50, 0
2, 200640, Note_on_c, 0, 50, 80
2, 201095, Note_on_c, 0, 50, 0
2, 201120, Note_on_c, 0, 50, 80
2, 201575, Note_on_c, 0, 50, 0
2, 201600, Note_on_c, 0, 55, 80
2, 201600, Note_on_c, 0, 59, 80
2, 201903, Note_on_c, 0, 55, 0
2, 201903, Note_on_c, 0, 59, 0
2, 201920, Note_on_c, 0, 55, 80
2, 201920, Note_on_c, 0, 59, 80
2, 202223, Note_on_c, 0, 55, 0
2, 202223, Note_on_c, 0, 59, 0
2, 202240, Note_on_c, 0, 55, 80
2, 202240, Note_on_c, 0, 59, 80
2, 202543, Note_on_c, 0, 55, 0
2, 202543, Note_on_c, 0, 59, 0
2, 202560, Note_on_c, 0, 55, 80
2, 202560, Note_on_c, 0, 59, 80
2, 202863, Note_on_c, 0, 55, 0
2, 202863, Note_on_c, 0, 59, 0
2, 202880, Note_on_c, 0, 55, 80
2, 202880, Note_on_c, 0, 59, 80
2, 203183, Note_on_c, 0, 55, 0
2, 203183, Note_on_c, 0, 59, 0
2, 203200, Note_on_c, 0, 55, 80
2, 203200, Note_on_c, 0, 59, 80
2, 203503, Note_on_c, 0, 55, 0
2, 203503, Note_on_c, 0, 59, 0
2, 203520, Note_on_c, 0, 57, 80
2, 203520, Note_on_c, 0, 64, 80
2, 203975, Note_on_c, 0, 57, 0
2, 203975, Note_on_c, 0, 64, 0
2, 204000, Note_on_c, 0, 52, 80
2, 204000, Note_on_c, 0, 57, 80
2, 204455, Note_on_c, 0, 52, 0
2, 204455, Note_on_c, 0, 57, 0
2, 204480, Note_on_c, 0, 57, 80
2, 204707, Note_on_c, 0, 57, 0
2, 204720, Note_on_c, 0, 64, 80
2, 204947, Note_on_c, 0, 64, 0
2, 205200, Note_on_c, 0, 59, 80
2, 205200, Note_on_c, 0, 64, 80
2, 205427, Note_on_c, 0, 59, 0
2, 205427, Note_on_c, 0, 64, 0
2, 205440, Note_on_c, 0, 64, 80
2, 205679, Note_on_c, 0, 64, 0
2, 205920, Note_on_c, 0, 52, 80
2, 205920, Note_on_c, 0, 57, 80
2, 206147, Note_on_c, 0, 52, 0
2, 206147, Note_on_c, 0, 57, 0
2, 206160, Note_on_c, 0, 57, 80
2, 206387, Note_on_c, 0, 57, 0
2, 206400, Note_on_c, 0, 59, 80
2, 206400, Note_on_c, 0, 60, 80
2, 206855, Note_on_c, 0, 59, 0
2, 206855, Note_on_c, 0, 60, 0
2, 206880, Note_on_c, 0, 57, 80
2, 206880, Note_on_c, 0, 60, 80
2, 207335, Note_on_c, 0, 57, 0
2, 207335, Note_on_c, 0, 60, 0
2, 207360, Note_on_c, 0, 52, 80
2, 207360, Note_on_c, 0, 55, 80
2, 207360, Note_on_c, 0, 57, 80
2, 207815, Note_on_c, 0, 52, 0
2, 207815, Note_on_c, 0, 55, 0
2, 207815, Note_on_c, 0, 57, 0
2, 207840, Note_on_c, 0, 50, 80
2, 207840, Note_on_c, 0, 55, 80
2, 208295, Note_on_c, 0, 50, 0
2, 208295, Note_on_c, 0, 55, 0
2, 208320, Note_on_c, 0, 55, 80
2, 208320, Note_on_c, 0, 57, 80
2, 208547, Note_on_c, 0, 55, 0
2, 208547, Note_on_c, 0, 57, 0
2, 208560, Note_on_c, 0, 64, 80
2, 208787, Note_on_c, 0, 64, 0
2, 208960, Note_on_c, 0, 64, 80
2, 209111, Note_on_c, 0, 64, 0
2, 209120, Note_on_c, 0, 64, 80
2, 209271, Note_on_c, 0, 64, 0
2, 209280, Note_on_c, 0, 67, 80
2, 209519, Note_on_c, 0, 67, 0
2, 209760, Note_on_c, 0, 50, 80
2, 209760, Note_on_c, 0, 57, 80
2, 209760, Note_on_c, 0, 65, 80
2, 209987, Note_on_c, 0, 50, 0
2, 209987, Note_on_c, 0, 57, 0
2, 209987, Note_on_c, 0, 65, 0
2, 210000, Note_on_c, 0, 64, 80
2, 210227, Note_on_c, 0, 64, 0
2, 210240, Note_on_c, 0, 55, 80
2, 210467, Note_on_c, 0, 55, 0
2, 210480, Note_on_c, 0, 62, 80
2, 210707, Note_on_c, 0, 62, 0
2, 210720, Note_on_c, 0, 55, 80
2, 211175, Note_on_c, 0, 55, 0
2, 211200, Note_on_c, 0, 53, 80
2, 211200, Note_on_c, 0, 62, 80
2, 211655, Note_on_c, 0, 53, 0
2, 211655, Note_on_c, 0, 62, 0
2, 211680, Note_on_c, 0, 48, 80
2, 211680, Note_on_c, 0, 53, 80
2, 212135, Note_on_c, 0, 48, 0
2, 212135, Note_on_c, 0, 53, 0
2, 212160, Note_on_c, 0, 53, 80
2, 212160, Note_on_c, 0, 57, 80
2, 212615, Note_on_c, 0, 53, 0
2, 212615, Note_on_c, 0, 57, 0
2, 212880, Note_on_c, 0, 48, 80
2, 212880, Note_on_c, 0, 53, 80
2, 213335, Note_on_c, 0, 48, 0
2, 213335, Note_on_c, 0, 53, 0
2, 213600, Note_on_c, 0, 48, 80
2, 213600, Note_on_c, 0, 53, 80
2, 213839, Note_on_c, 0, 48, 0
2, 213839, Note_on_c, 0, 53, 0
2, 214080, Note_on_c, 0, 53, 80
2, 214080, Note_on_c, 0, 59, 80
2, 214535, Note_on_c, 0, 53, 0
2, 214535, Note_on_c, 0, 59, 0
2, 214560, Note_on_c, 0, 53, 80
2, 214560, Note_on_c, 0, 60, 80
2, 215015, Note_on_c, 0, 53, 0
2, 215015, Note_on_c, 0, 60, 0
2, 215040, Note_on_c, 0, 50, 80
2, 215495, Note_on_c, 0, 50, 0
2, 215520, Note_on_c, 0, 50, 80
2, 215975, Note_on_c, 0, 50, 0
2, 216000, Note_on_c, 0, 50, 80
2, 216455, Note_on_c, 0, 50, 0
2, 216480, Note_on_c, 0, 50, 80
2, 216935, Note_on_c, 0, 50, 0
2, 216960, Note_on_c, 0, 55, 80
2, 217415, Note_on_c, 0, 55, 0
2, 217440, Note_on_c, 0, 55, 80
2, 217440, Note_on_c, 0, 59, 80
2, 217895, Note_on_c, 0, 55, 0
2, 217895, Note_on_c, 0, 59, 0
2, 217920, Note_on_c, 0, 55, 80
2, 218375, Note_on_c, 0, 55, 0
2, 218400, Note_on_c, 0, 55, 80
2, 218855, Note_on_c, 0, 55, 0
2, 218880, Note_on_c, 0, 52, 80
2, 218880, Note_on_c, 0, 57, 80
2, 219107, Note_on_c, 0, 52, 0
2, 219107, Note_on_c, 0, 57, 0
2, 219120, Note_on_c, 0, 64, 80
2, 219347, Note_on_c, 0, 64, 0
2, 219360, Note_on_c, 0, 57, 80
2, 219587, Note_on_c, 0, 57, 0
2, 219600, Note_on_c, 0, 64, 80
2, 219827, Note_on_c, 0, 64, 0
2, 219840, Note_on_c, 0, 57, 80
2, 220067, Note_on_c, 0, 57, 0
2, 220080, Note_on_c, 0, 64, 80
2, 220307, Note_on_c, 0, 64, 0
2, 220560, Note_on_c, 0, 57, 80
2, 220560, Note_on_c, 0, 64, 80
2, 221015, Note_on_c, 0, 57, 0
2, 221015, Note_on_c, 0, 64, 0
2, 221040, Note_on_c, 0, 64, 80
2, 221267, Note_on_c, 0, 64, 0
2, 221280, Note_on_c, 0, 52, 80
2, 221280, Note_on_c, 0, 57, 80
2, 221507, Note_on_c, 0, 52, 0
2, 221507, Note_on_c, 0, 57, 0
2, 221520, Note_on_c, 0, 64, 80
2, 221747, Note_on_c, 0, 64, 0
2, 221760, Note_on_c, 0, 57, 80
2, 221760, Note_on_c, 0, 64, 80
2, 221987, Note_on_c, 0, 57, 0
2, 221987, Note_on_c, 0, 64, 0
2, 222000, Note_on_c, 0, 64, 80
2, 222227, Note_on_c, 0, 64, 0
2, 222240, Note_on_c, 0, 57, 80
2, 222695, Note_on_c, 0, 57, 0
2, 222720, Note_on_c, 0, 52, 80
2, 222720, Note_on_c, 0, 55, 80
2, 222720, Note_on_c, 0, 57, 80
2, 223175, Note_on_c, 0, 52, 0
2, 223175, Note_on_c, 0, 55, 0
2, 223175, Note_on_c, 0, 57, 0
2, 223200, Note_on_c, 0, 55, 80
2, 223427, Note_on_c, 0, 55, 0
2, 223440, Note_on_c, 0, 64, 80
2, 223667, Note_on_c, 0, 64, 0
2, 223680, Note_on_c, 0, 55, 80
2, 223907, Note_on_c, 0, 55, 0
2, 223920, Note_on_c, 0, 64, 80
2, 224147, Note_on_c, 0, 64, 0
2, 224400, Note_on_c, 0, 64, 80
2, 224400, Note_on_c, 0, 50, 80
2, 224400, Note_on_c, 0, 55, 80
2, 224627, Note_on_c, 0, 64, 0
2, 224855, Note_on_c, 0, 50, 0
2, 224855, Note_on_c, 0, 55, 0
2, 224880, Note_on_c, 0, 69, 80
2, 225107, Note_on_c, 0, 69, 0
2, 225120, Note_on_c, 0, 50, 80
2, 225120, Note_on_c, 0, 55, 80
2, 225347, Note_on_c, 0, 50, 0
2, 225347, Note_on_c, 0, 55, 0
2, 225360, Note_on_c, 0, 67, 80
2, 225587, Note_on_c, 0, 67, 0
2, 225600, Note_on_c, 0, 55, 80
2, 225827, Note_on_c, 0, 55, 0
2, 225840, Note_on_c, 0, 69, 80
2, 226067, Note_on_c, 0, 69, 0
2, 226080, Note_on_c, 0, 55, 80
2, 226535, Note_on_c, 0, 55, 0
2, 226560, Note_on_c, 0, 53, 80
2, 226560, Note_on_c, 0, 62, 80
2, 227015, Note_on_c, 0, 53, 0
2, 227015, Note_on_c, 0, 62, 0
2, 227040, Note_on_c, 0, 53, 80
2, 227495, Note_on_c, 0, 53, 0
2, 227520, Note_on_c, 0, 53, 80
2, 227520, Note_on_c, 0, 57, 80
2, 227975, Note_on_c, 0, 53, 0
2, 227975, Note_on_c, 0, 57, 0
2, 228240, Note_on_c, 0, 53, 80
2, 228695, Note_on_c, 0, 53, 0
2, 228960, Note_on_c, 0, 53, 80
2, 229199, Note_on_c, 0, 53, 0
2, 229440, Note_on_c, 0, 53, 80
2, 229440, Note_on_c, 0, 59, 80
2, 229895, Note_on_c, 0, 53, 0
2, 229895, Note_on_c, 0, 59, 0
2, 229920, Note_on_c, 0, 53, 80
2, 230375, Note_on_c, 0, 53, 0
2, 230400, Note_on_c, 0, 50, 80
2, 230855, Note_on_c, 0, 50, 0
2, 230880, Note_on_c, 0, 50, 80
2, 231335, Note_on_c, 0, 50, 0
2, 231360, Note_on_c, 0, 50, 80
2, 231815, Note_on_c, 0, 50, 0
2, 231840, Note_on_c, 0, 50, 80
2, 232295, Note_on_c, 0, 50, 0
2, 232320, Note_on_c, 0, 55, 80
2, 232623, Note_on_c, 0, 55, 0
2, 232640, Note_on_c, 0, 55, 80
2, 232943, Note_on_c, 0, 55, 0
2, 232960, Note_on_c, 0, 55, 80
2, 233263, Note_on_c, 0, 55, 0
2, 233280, Note_on_c, 0, 55, 80
2, 233583, Note_on_c, 0, 55, 0
2, 233600, Note_on_c, 0, 55, 80
2, 233903, Note_on_c, 0, 55, 0
2, 233920, Note_on_c, 0, 55, 80
2, 234223, Note_on_c, 0, 55, 0
2, 234240, Note_on_c, 0, 57, 80
2, 234240, Note_on_c, 0, 52, 80
2, 234479, Note_on_c, 0, 57, 0
2, 237431, Note_on_c, 0, 52, 0
2, 241920, Note_on_c, 0, 57, 80
2, 241920, Note_on_c, 0, 52, 80
2, 242159, Note_on_c, 0, 57, 0
2, 245111, Note_on_c, 0, 52, 0
2, 245280, Note_on_c, 0, 57, 80
2, 245507, Note_on_c, 0, 57, 0
2, 245520, Note_on_c, 0, 57, 80
2, 245747, Note_on_c, 0, 57, 0
2, 245748, End_track
3, 0, Start_track
3, 0, Title_t, "6-str. Electric Bass, Bass\000"
3, 0, Key_signature, 0, "major"
3, 0, Control_c, 1, 121, 0
3, 0, Program_c, 1, 33
3, 0, Control_c, 1, 7, 100
3, 0, Control_c, 1, 10, 64
3, 0, Control_c, 1, 91, 0
3, 0, Control_c, 1, 93, 0
3, 0, MIDI_port, 0
3, 0, Control_c, 2, 121, 0
3, 0, Program_c, 2, 36
3, 0, Control_c, 2, 7, 100
3, 0, Control_c, 2, 10, 64
3, 0, Control_c, 2, 91, 0
3, 0, Control_c, 2, 93, 0
3, 0, MIDI_port, 0
3, 0, Control_c, 3, 121, 0
3, 0, Program_c, 3, 37
3, 0, Control_c, 3, 7, 100
3, 0, Control_c, 3, 10, 64
3, 0, Control_c, 3, 91, 0
3, 0, Control_c, 3, 93, 0
3, 0, MIDI_port, 0
3, 7680, Note_on_c, 1, 57, 96
3, 7919, Note_on_c, 1, 57, 0
3, 8160, Note_on_c, 1, 57, 96
3, 8339, Note_on_c, 1, 57, 0
3, 8520, Note_on_c, 1, 57, 96
3, 8639, Note_on_c, 1, 57, 0
3, 8640, Note_on_c, 1, 57, 96
3, 8879, Note_on_c, 1, 57, 0
3, 8880, Note_on_c, 1, 57, 96
3, 9119, Note_on_c, 1, 57, 0
3, 9360, Note_on_c, 1, 57, 96
3, 9599, Note_on_c, 1, 57, 0
3, 9840, Note_on_c, 1, 57, 96
3, 10079, Note_on_c, 1, 57, 0
3, 10080, Note_on_c, 1, 57, 96
3, 10259, Note_on_c, 1, 57, 0
3, 10440, Note_on_c, 1, 57, 96
3, 10559, Note_on_c, 1, 57, 0
3, 10560, Note_on_c, 1, 57, 96
3, 10679, Note_on_c, 1, 57, 0
3, 10680, Note_on_c, 1, 60, 96
3, 10799, Note_on_c, 1, 60, 0
3, 10800, Note_on_c, 1, 57, 96
3, 11039, Note_on_c, 1, 57, 0
3, 11040, Note_on_c, 1, 60, 96
3, 11279, Note_on_c, 1, 60, 0
3, 11280, Note_on_c, 1, 57, 96
3, 11399, Note_on_c, 1, 57, 0
3, 11400, Note_on_c, 1, 57, 96
3, 11519, Note_on_c, 1, 57, 0
3, 11520, Note_on_c, 1, 57, 96
3, 11759, Note_on_c, 1, 57, 0
3, 12000, Note_on_c, 1, 57, 96
3, 12179, Note_on_c, 1, 57, 0
3, 12360, Note_on_c, 1, 57, 96
3, 12479, Note_on_c, 1, 57, 0
3, 12480, Note_on_c, 1, 57, 96
3, 12719, Note_on_c, 1, 57, 0
3, 12720, Note_on_c, 1, 57, 96
3, 12959, Note_on_c, 1, 57, 0
3, 13200, Note_on_c, 1, 57, 96
3, 13439, Note_on_c, 1, 57, 0
3, 13680, Note_on_c, 1, 57, 96
3, 13919, Note_on_c, 1, 57, 0
3, 13920, Note_on_c, 1, 57, 96
3, 14099, Note_on_c, 1, 57, 0
3, 14280, Note_on_c, 1, 57, 96
3, 14399, Note_on_c, 1, 57, 0
3, 14400, Note_on_c, 1, 57, 96
3, 14519, Note_on_c, 1, 57, 0
3, 14520, Note_on_c, 1, 60, 96
3, 14639, Note_on_c, 1, 60, 0
3, 14640, Note_on_c, 1, 57, 96
3, 14879, Note_on_c, 1, 57, 0
3, 14880, Note_on_c, 1, 60, 96
3, 15119, Note_on_c, 1, 60, 0
3, 15120, Note_on_c, 1, 57, 96
3, 15239, Note_on_c, 1, 57, 0
3, 15240, Note_on_c, 1, 57, 96
3, 15359, Note_on_c, 1, 57, 0
3, 15360, Note_on_c, 1, 57, 96
3, 15599, Note_on_c, 1, 57, 0
3, 15840, Note_on_c, 1, 57, 96
3, 16019, Note_on_c, 1, 57, 0
3, 16200, Note_on_c, 1, 57, 96
3, 16319, Note_on_c, 1, 57, 0
3, 16320, Note_on_c, 1, 57, 96
3, 16559, Note_on_c, 1, 57, 0
3, 16560, Note_on_c, 1, 57, 96
3, 16799, Note_on_c, 1, 57, 0
3, 17040, Note_on_c, 1, 57, 96
3, 17279, Note_on_c, 1, 57, 0
3, 17520, Note_on_c, 1, 57, 96
3, 17759, Note_on_c, 1, 57, 0
3, 17760, Note_on_c, 1, 57, 96
3, 17939, Note_on_c, 1, 57, 0
3, 18120, Note_on_c, 1, 57, 96
3, 18239, Note_on_c, 1, 57, 0
3, 18240, Note_on_c, 1, 57, 96
3, 18359, Note_on_c, 1, 57, 0
3, 18360, Note_on_c, 1, 60, 96
3, 18479, Note_on_c, 1, 60, 0
3, 18480, Note_on_c, 1, 57, 96
3, 18719, Note_on_c, 1, 57, 0
3, 18720, Note_on_c, 1, 60, 96
3, 18959, Note_on_c, 1, 60, 0
3, 18960, Note_on_c, 1, 57, 96
3, 19079, Note_on_c, 1, 57, 0
3, 19080, Note_on_c, 1, 57, 96
3, 19199, Note_on_c, 1, 57, 0
3, 19200, Note_on_c, 1, 57, 96
3, 19439, Note_on_c, 1, 57, 0
3, 19680, Note_on_c, 1, 57, 96
3, 19859, Note_on_c, 1, 57, 0
3, 20040, Note_on_c, 1, 57, 96
3, 20159, Note_on_c, 1, 57, 0
3, 20160, Note_on_c, 1, 57, 96
3, 20399, Note_on_c, 1, 57, 0
3, 20400, Note_on_c, 1, 57, 96
3, 20639, Note_on_c, 1, 57, 0
3, 20880, Note_on_c, 1, 57, 96
3, 21119, Note_on_c, 1, 57, 0
3, 21360, Note_on_c, 1, 57, 96
3, 21599, Note_on_c, 1, 57, 0
3, 21600, Note_on_c, 1, 57, 96
3, 21779, Note_on_c, 1, 57, 0
3, 21960, Note_on_c, 1, 57, 96
3, 22079, Note_on_c, 1, 57, 0
3, 22080, Note_on_c, 1, 57, 96
3, 22199, Note_on_c, 1, 57, 0
3, 22200, Note_on_c, 1, 60, 96
3, 22319, Note_on_c, 1, 60, 0
3, 22320, Note_on_c, 1, 57, 96
3, 22559, Note_on_c, 1, 57, 0
3, 22560, Note_on_c, 1, 60, 96
3, 22799, Note_on_c, 1, 60, 0
3, 22800, Note_on_c, 1, 57, 96
3, 22919, Note_on_c, 1, 57, 0
3, 22920, Note_on_c, 1, 57, 96
3, 23039, Note_on_c, 1, 57, 0
3, 23040, Note_on_c, 1, 57, 96
3, 23279, Note_on_c, 1, 57, 0
3, 23520, Note_on_c, 1, 57, 96
3, 23699, Note_on_c, 1, 57, 0
3, 23880, Note_on_c, 1, 57, 96
3, 23999, Note_on_c, 1, 57, 0
3, 24000, Note_on_c, 1, 57, 96
3, 24239, Note_on_c, 1, 57, 0
3, 24240, Note_on_c, 1, 57, 96
3, 24479, Note_on_c, 1, 57, 0
3, 24720, Note_on_c, 1, 57, 96
3, 24959, Note_on_c, 1, 57, 0
3, 25200, Note_on_c, 1, 57, 96
3, 25439, Note_on_c, 1, 57, 0
3, 25440, Note_on_c, 1, 57, 96
3, 25619, Note_on_c, 1, 57, 0
3, 25800, Note_on_c, 1, 57, 96
3, 25919, Note_on_c, 1, 57, 0
3, 25920, Note_on_c, 1, 57, 96
3, 26039, Note_on_c, 1, 57, 0
3, 26040, Note_on_c, 1, 60, 96
3, 26159, Note_on_c, 1, 60, 0
3, 26160, Note_on_c, 1, 57, 96
3, 26399, Note_on_c, 1, 57, 0
3, 26400, Note_on_c, 1, 60, 96
3, 26639, Note_on_c, 1, 60, 0
3, 26640, Note_on_c, 1, 57, 96
3, 26759, Note_on_c, 1, 57, 0
3, 26760, Note_on_c, 1, 57, 96
3, 26879, Note_on_c, 1, 57, 0
3, 26880, Note_on_c, 1, 57, 96
3, 27119, Note_on_c, 1, 57, 0
3, 27360, Note_on_c, 1, 57, 96
3, 27539, Note_on_c, 1, 57, 0
3, 27720, Note_on_c, 1, 57, 96
3, 27839, Note_on_c, 1, 57, 0
3, 27840, Note_on_c, 1, 57, 96
3, 28079, Note_on_c, 1, 57, 0
3, 28080, Note_on_c, 1, 57, 96
3, 28319, Note_on_c, 1, 57, 0
3, 28560, Note_on_c, 1, 57, 96
3, 28799, Note_on_c, 1, 57, 0
3, 29040, Note_on_c, 1, 57, 96
3, 29279, Note_on_c, 1, 57, 0
3, 29280, Note_on_c, 1, 57, 96
3, 29459, Note_on_c, 1, 57, 0
3, 29640, Note_on_c, 1, 57, 96
3, 29759, Note_on_c, 1, 57, 0
3, 29760, Note_on_c, 1, 57, 96
3, 29879, Note_on_c, 1, 57, 0
3, 29880, Note_on_c, 1, 60, 96
3, 29999, Note_on_c, 1, 60, 0
3, 30000, Note_on_c, 1, 57, 96
3, 30239, Note_on_c, 1, 57, 0
3, 30240, Note_on_c, 1, 60, 96
3, 30479, Note_on_c, 1, 60, 0
3, 30480, Note_on_c, 1, 57, 96
3, 30599, Note_on_c, 1, 57, 0
3, 30600, Note_on_c, 1, 57, 96
3, 30719, Note_on_c, 1, 57, 0
3, 30720, Note_on_c, 1, 57, 96
3, 30959, Note_on_c, 1, 57, 0
3, 31200, Note_on_c, 1, 57, 96
3, 31379, Note_on_c, 1, 57, 0
3, 31560, Note_on_c, 1, 57, 96
3, 31679, Note_on_c, 1, 57, 0
3, 31680, Note_on_c, 1, 57, 96
3, 31919, Note_on_c, 1, 57, 0
3, 31920, Note_on_c, 1, 57, 96
3, 32159, Note_on_c, 1, 57, 0
3, 32400, Note_on_c, 1, 57, 96
3, 32639, Note_on_c, 1, 57, 0
3, 32880, Note_on_c, 1, 57, 96
3, 33119, Note_on_c, 1, 57, 0
3, 33120, Note_on_c, 1, 57, 96
3, 33299, Note_on_c, 1, 57, 0
3, 33480, Note_on_c, 1, 57, 96
3, 33599, Note_on_c, 1, 57, 0
3, 33600, Note_on_c, 1, 57, 96
3, 33719, Note_on_c, 1, 57, 0
3, 33720, Note_on_c, 1, 60, 96
3, 33839, Note_on_c, 1, 60, 0
3, 33840, Note_on_c, 1, 57, 96
3, 34079, Note_on_c, 1, 57, 0
3, 34080, Note_on_c, 1, 60, 96
3, 34319, Note_on_c, 1, 60, 0
3, 34320, Note_on_c, 1, 57, 96
3, 34439, Note_on_c, 1, 57, 0
3, 34440, Note_on_c, 1, 57, 96
3, 34559, Note_on_c, 1, 57, 0
3, 34560, Note_on_c, 1, 57, 96
3, 34799, Note_on_c, 1, 57, 0
3, 35040, Note_on_c, 1, 57, 96
3, 35219, Note_on_c, 1, 57, 0
3, 35400, Note_on_c, 1, 57, 96
3, 35519, Note_on_c, 1, 57, 0
3, 35520, Note_on_c, 1, 57, 96
3, 35759, Note_on_c, 1, 57, 0
3, 35760, Note_on_c, 1, 57, 96
3, 35999, Note_on_c, 1, 57, 0
3, 36240, Note_on_c, 1, 57, 96
3, 36479, Note_on_c, 1, 57, 0
3, 36720, Note_on_c, 1, 57, 96
3, 36959, Note_on_c, 1, 57, 0
3, 36960, Note_on_c, 1, 57, 96
3, 37139, Note_on_c, 1, 57, 0
3, 37320, Note_on_c, 1, 57, 96
3, 37439, Note_on_c, 1, 57, 0
3, 37440, Note_on_c, 1, 57, 96
3, 37559, Note_on_c, 1, 57, 0
3, 37560, Note_on_c, 1, 60, 96
3, 37679, Note_on_c, 1, 60, 0
3, 37680, Note_on_c, 1, 57, 96
3, 37919, Note_on_c, 1, 57, 0
3, 37920, Note_on_c, 1, 60, 96
3, 38159, Note_on_c, 1, 60, 0
3, 38160, Note_on_c, 1, 57, 96
3, 38279, Note_on_c, 1, 57, 0
3, 38280, Note_on_c, 1, 57, 96
3, 38399, Note_on_c, 1, 57, 0
3, 38400, Note_on_c, 1, 57, 96
3, 38639, Note_on_c, 1, 57, 0
3, 38880, Note_on_c, 1, 57, 96
3, 39059, Note_on_c, 1, 57, 0
3, 39240, Note_on_c, 1, 57, 96
3, 39359, Note_on_c, 1, 57, 0
3, 39360, Note_on_c, 1, 57, 96
3, 39599, Note_on_c, 1, 57, 0
3, 39600, Note_on_c, 1, 57, 96
3, 39839, Note_on_c, 1, 57, 0
3, 40080, Note_on_c, 1, 57, 96
3, 40319, Note_on_c, 1, 57, 0
3, 40560, Note_on_c, 1, 57, 96
3, 40799, Note_on_c, 1, 57, 0
3, 40800, Note_on_c, 1, 57, 96
3, 40979, Note_on_c, 1, 57, 0
3, 41160, Note_on_c, 1, 57, 96
3, 41279, Note_on_c, 1, 57, 0
3, 41280, Note_on_c, 1, 57, 96
3, 41399, Note_on_c, 1, 57, 0
3, 41400, Note_on_c, 1, 60, 96
3, 41519, Note_on_c, 1, 60, 0
3, 41520, Note_on_c, 1, 57, 96
3, 41759, Note_on_c, 1, 57, 0
3, 41760, Note_on_c, 1, 60, 96
3, 41999, Note_on_c, 1, 60, 0
3, 42000, Note_on_c, 1, 57, 96
3, 42119, Note_on_c, 1, 57, 0
3, 42120, Note_on_c, 1, 57, 96
3, 42239, Note_on_c, 1, 57, 0
3, 42240, Note_on_c, 1, 57, 96
3, 42479, Note_on_c, 1, 57, 0
3, 42720, Note_on_c, 1, 57, 96
3, 42899, Note_on_c, 1, 57, 0
3, 43080, Note_on_c, 1, 57, 96
3, 43199, Note_on_c, 1, 57, 0
3, 43200, Note_on_c, 1, 57, 96
3, 43439, Note_on_c, 1, 57, 0
3, 43440, Note_on_c, 1, 57, 96
3, 43679, Note_on_c, 1, 57, 0
3, 43920, Note_on_c, 1, 57, 96
3, 44159, Note_on_c, 1, 57, 0
3, 44400, Note_on_c, 1, 57, 96
3, 44639, Note_on_c, 1, 57, 0
3, 44640, Note_on_c, 1, 57, 96
3, 44819, Note_on_c, 1, 57, 0
3, 45000, Note_on_c, 1, 57, 96
3, 45119, Note_on_c, 1, 57, 0
3, 45120, Note_on_c, 1, 57, 96
3, 45239, Note_on_c, 1, 57, 0
3, 45240, Note_on_c, 1, 60, 96
3, 45359, Note_on_c, 1, 60, 0
3, 45360, Note_on_c, 1, 57, 96
3, 45599, Note_on_c, 1, 57, 0
3, 45600, Note_on_c, 1, 60, 96
3, 45839, Note_on_c, 1, 60, 0
3, 45840, Note_on_c, 1, 57, 96
3, 45959, Note_on_c, 1, 57, 0
3, 45960, Note_on_c, 1, 57, 96
3, 46079, Note_on_c, 1, 57, 0
3, 46080, Note_on_c, 1, 57, 96
3, 46319, Note_on_c, 1, 57, 0
3, 46560, Note_on_c, 1, 57, 96
3, 46739, Note_on_c, 1, 57, 0
3, 46920, Note_on_c, 1, 57, 96
3, 47039, Note_on_c, 1, 57, 0
3, 47040, Note_on_c, 1, 57, 96
3, 47279, Note_on_c, 1, 57, 0
3, 47280, Note_on_c, 1, 57, 96
3, 47519, Note_on_c, 1, 57, 0
3, 47760, Note_on_c, 1, 57, 96
3, 47999, Note_on_c, 1, 57, 0
3, 48240, Note_on_c, 1, 57, 96
3, 48479, Note_on_c, 1, 57, 0
3, 48480, Note_on_c, 1, 57, 96
3, 48659, Note_on_c, 1, 57, 0
3, 48840, Note_on_c, 1, 57, 96
3, 48959, Note_on_c, 1, 57, 0
3, 48960, Note_on_c, 1, 57, 96
3, 49079, Note_on_c, 1, 57, 0
3, 49080, Note_on_c, 1, 60, 96
3, 49199, Note_on_c, 1, 60, 0
3, 49200, Note_on_c, 1, 57, 96
3, 49439, Note_on_c, 1, 57, 0
3, 49440, Note_on_c, 1, 60, 96
3, 49679, Note_on_c, 1, 60, 0
3, 49680, Note_on_c, 1, 57, 96
3, 49799, Note_on_c, 1, 57, 0
3, 49800, Note_on_c, 1, 57, 96
3, 49919, Note_on_c, 1, 57, 0
3, 49920, Note_on_c, 1, 57, 96
3, 50159, Note_on_c, 1, 57, 0
3, 50400, Note_on_c, 1, 57, 96
3, 50579, Note_on_c, 1, 57, 0
3, 50760, Note_on_c, 1, 57, 96
3, 50879, Note_on_c, 1, 57, 0
3, 50880, Note_on_c, 1, 57, 96
3, 51119, Note_on_c, 1, 57, 0
3, 51120, Note_on_c, 1, 57, 96
3, 51359, Note_on_c, 1, 57, 0
3, 51600, Note_on_c, 1, 57, 96
3, 51839, Note_on_c, 1, 57, 0
3, 52080, Note_on_c, 1, 57, 96
3, 52319, Note_on_c, 1, 57, 0
3, 52320, Note_on_c, 1, 57, 96
3, 52499, Note_on_c, 1, 57, 0
3, 52680, Note_on_c, 1, 57, 96
3, 52799, Note_on_c, 1, 57, 0
3, 52800, Note_on_c, 1, 57, 96
3, 52919, Note_on_c, 1, 57, 0
3, 52920, Note_on_c, 1, 60, 96
3, 53039, Note_on_c, 1, 60, 0
3, 53040, Note_on_c, 1, 57, 96
3, 53279, Note_on_c, 1, 57, 0
3, 53280, Note_on_c, 1, 60, 96
3, 53519, Note_on_c, 1, 60, 0
3, 53520, Note_on_c, 1, 57, 96
3, 53639, Note_on_c, 1, 57, 0
3, 53640, Note_on_c, 1, 57, 96
3, 53759, Note_on_c, 1, 57, 0
3, 53760, Note_on_c, 1, 57, 96
3, 53999, Note_on_c, 1, 57, 0
3, 54240, Note_on_c, 1, 57, 96
3, 54419, Note_on_c, 1, 57, 0
3, 54600, Note_on_c, 1, 57, 96
3, 54719, Note_on_c, 1, 57, 0
3, 54720, Note_on_c, 1, 57, 96
3, 54959, Note_on_c, 1, 57, 0
3, 54960, Note_on_c, 1, 57, 96
3, 55199, Note_on_c, 1, 57, 0
3, 55440, Note_on_c, 1, 57, 96
3, 55679, Note_on_c, 1, 57, 0
3, 55920, Note_on_c, 1, 57, 96
3, 56159, Note_on_c, 1, 57, 0
3, 56160, Note_on_c, 1, 57, 96
3, 56339, Note_on_c, 1, 57, 0
3, 56520, Note_on_c, 1, 57, 96
3, 56639, Note_on_c, 1, 57, 0
3, 56640, Note_on_c, 1, 57, 96
3, 56759, Note_on_c, 1, 57, 0
3, 56760, Note_on_c, 1, 60, 96
3, 56879, Note_on_c, 1, 60, 0
3, 56880, Note_on_c, 1, 57, 96
3, 57119, Note_on_c, 1, 57, 0
3, 57120, Note_on_c, 1, 60, 96
3, 57359, Note_on_c, 1, 60, 0
3, 57360, Note_on_c, 1, 57, 96
3, 57479, Note_on_c, 1, 57, 0
3, 57480, Note_on_c, 1, 57, 96
3, 57599, Note_on_c, 1, 57, 0
3, 57600, Note_on_c, 1, 57, 96
3, 57839, Note_on_c, 1, 57, 0
3, 58080, Note_on_c, 1, 57, 96
3, 58259, Note_on_c, 1, 57, 0
3, 58440, Note_on_c, 1, 57, 96
3, 58559, Note_on_c, 1, 57, 0
3, 58560, Note_on_c, 1, 57, 96
3, 58799, Note_on_c, 1, 57, 0
3, 58800, Note_on_c, 1, 57, 96
3, 59039, Note_on_c, 1, 57, 0
3, 59280, Note_on_c, 1, 57, 96
3, 59519, Note_on_c, 1, 57, 0
3, 59760, Note_on_c, 1, 57, 96
3, 59999, Note_on_c, 1, 57, 0
3, 60000, Note_on_c, 1, 57, 96
3, 60239, Note_on_c, 1, 57, 0
3, 60240, Note_on_c, 1, 57, 96
3, 60359, Note_on_c, 1, 57, 0
3, 60360, Note_on_c, 1, 57, 96
3, 60479, Note_on_c, 1, 57, 0
3, 60480, Note_on_c, 1, 62, 96
3, 60959, Note_on_c, 1, 62, 0
3, 60960, Note_on_c, 1, 64, 96
3, 61439, Note_on_c, 1, 64, 0
3, 61440, Note_on_c, 1, 65, 96
3, 61919, Note_on_c, 1, 65, 0
3, 61920, Note_on_c, 1, 65, 96
3, 62399, Note_on_c, 1, 65, 0
3, 62400, Note_on_c, 1, 65, 96
3, 62639, Note_on_c, 1, 65, 0
3, 62640, Note_on_c, 1, 65, 96
3, 62879, Note_on_c, 1, 65, 0
3, 62880, Note_on_c, 1, 65, 96
3, 63119, Note_on_c, 1, 65, 0
3, 63120, Note_on_c, 1, 67, 96
3, 63599, Note_on_c, 1, 67, 0
3, 63600, Note_on_c, 1, 67, 96
3, 63839, Note_on_c, 1, 67, 0
3, 63840, Note_on_c, 1, 67, 96
3, 64319, Note_on_c, 1, 67, 0
3, 64320, Note_on_c, 1, 67, 96
3, 64559, Note_on_c, 1, 67, 0
3, 64560, Note_on_c, 1, 67, 96
3, 64799, Note_on_c, 1, 67, 0
3, 64800, Note_on_c, 1, 67, 96
3, 65039, Note_on_c, 1, 67, 0
3, 65040, Note_on_c, 1, 67, 96
3, 65519, Note_on_c, 1, 67, 0
3, 65520, Note_on_c, 1, 62, 96
3, 65759, Note_on_c, 1, 62, 0
3, 65760, Note_on_c, 1, 62, 96
3, 66239, Note_on_c, 1, 62, 0
3, 66240, Note_on_c, 1, 62, 96
3, 66719, Note_on_c, 1, 62, 0
3, 66720, Note_on_c, 1, 62, 96
3, 67199, Note_on_c, 1, 62, 0
3, 67200, Note_on_c, 1, 62, 96
3, 67679, Note_on_c, 1, 62, 0
3, 67680, Note_on_c, 1, 62, 96
3, 68159, Note_on_c, 1, 62, 0
3, 68160, Note_on_c, 1, 62, 96
3, 68639, Note_on_c, 1, 62, 0
3, 68640, Note_on_c, 1, 64, 96
3, 69119, Note_on_c, 1, 64, 0
3, 69120, Note_on_c, 1, 65, 96
3, 69599, Note_on_c, 1, 65, 0
3, 69600, Note_on_c, 1, 65, 96
3, 70079, Note_on_c, 1, 65, 0
3, 70080, Note_on_c, 1, 65, 96
3, 70319, Note_on_c, 1, 65, 0
3, 70320, Note_on_c, 1, 65, 96
3, 70559, Note_on_c, 1, 65, 0
3, 70560, Note_on_c, 1, 65, 96
3, 70799, Note_on_c, 1, 65, 0
3, 70800, Note_on_c, 1, 67, 96
3, 71279, Note_on_c, 1, 67, 0
3, 71280, Note_on_c, 1, 67, 96
3, 71519, Note_on_c, 1, 67, 0
3, 71520, Note_on_c, 1, 67, 96
3, 71999, Note_on_c, 1, 67, 0
3, 72000, Note_on_c, 1, 67, 96
3, 72239, Note_on_c, 1, 67, 0
3, 72240, Note_on_c, 1, 67, 96
3, 72479, Note_on_c, 1, 67, 0
3, 72480, Note_on_c, 1, 67, 96
3, 72719, Note_on_c, 1, 67, 0
3, 72720, Note_on_c, 1, 67, 96
3, 73199, Note_on_c, 1, 67, 0
3, 73200, Note_on_c, 1, 62, 96
3, 73439, Note_on_c, 1, 62, 0
3, 73440, Note_on_c, 1, 62, 96
3, 73919, Note_on_c, 1, 62, 0
3, 74640, Note_on_c, 1, 67, 96
3, 75119, Note_on_c, 1, 67, 0
3, 75120, Note_on_c, 1, 65, 96
3, 75359, Note_on_c, 1, 65, 0
3, 75360, Note_on_c, 1, 65, 96
3, 75599, Note_on_c, 1, 65, 0
3, 80640, Note_on_c, 1, 57, 96
3, 80879, Note_on_c, 1, 57, 0
3, 81120, Note_on_c, 1, 57, 96
3, 81359, Note_on_c, 1, 57, 0
3, 81600, Note_on_c, 1, 57, 96
3, 81839, Note_on_c, 1, 57, 0
3, 82080, Note_on_c, 1, 57, 96
3, 82319, Note_on_c, 1, 57, 0
3, 82560, Note_on_c, 1, 57, 96
3, 82799, Note_on_c, 1, 57, 0
3, 82800, Note_on_c, 1, 57, 96
3, 83039, Note_on_c, 1, 57, 0
3, 83040, Note_on_c, 1, 57, 96
3, 83279, Note_on_c, 1, 57, 0
3, 83520, Note_on_c, 1, 57, 96
3, 83759, Note_on_c, 1, 57, 0
3, 83760, Note_on_c, 1, 57, 96
3, 83999, Note_on_c, 1, 57, 0
3, 84000, Note_on_c, 1, 57, 96
3, 84239, Note_on_c, 1, 57, 0
3, 84240, Note_on_c, 1, 62, 96
3, 84479, Note_on_c, 1, 62, 0
3, 84480, Note_on_c, 1, 67, 96
3, 84719, Note_on_c, 1, 67, 0
3, 84960, Note_on_c, 1, 67, 96
3, 85199, Note_on_c, 1, 67, 0
3, 85440, Note_on_c, 1, 67, 96
3, 85679, Note_on_c, 1, 67, 0
3, 85920, Note_on_c, 1, 67, 96
3, 86159, Note_on_c, 1, 67, 0
3, 86400, Note_on_c, 1, 67, 96
3, 86639, Note_on_c, 1, 67, 0
3, 86880, Note_on_c, 1, 67, 96
3, 87119, Note_on_c, 1, 67, 0
3, 87120, Note_on_c, 1, 67, 96
3, 87359, Note_on_c, 1, 67, 0
3, 87360, Note_on_c, 1, 67, 96
3, 87599, Note_on_c, 1, 67, 0
3, 87840, Note_on_c, 1, 67, 96
3, 88079, Note_on_c, 1, 67, 0
3, 88080, Note_on_c, 1, 62, 96
3, 88319, Note_on_c, 1, 62, 0
3, 88320, Note_on_c, 1, 65, 96
3, 88559, Note_on_c, 1, 65, 0
3, 88800, Note_on_c, 1, 65, 96
3, 89039, Note_on_c, 1, 65, 0
3, 89280, Note_on_c, 1, 65, 96
3, 89519, Note_on_c, 1, 65, 0
3, 89760, Note_on_c, 1, 65, 96
3, 89999, Note_on_c, 1, 65, 0
3, 90000, Note_on_c, 1, 62, 96
3, 90239, Note_on_c, 1, 62, 0
3, 90240, Note_on_c, 1, 65, 96
3, 90479, Note_on_c, 1, 65, 0
3, 90720, Note_on_c, 1, 65, 96
3, 90959, Note_on_c, 1, 65, 0
3, 91200, Note_on_c, 1, 65, 96
3, 91439, Note_on_c, 1, 65, 0
3, 91680, Note_on_c, 1, 65, 96
3, 91919, Note_on_c, 1, 65, 0
3, 92160, Note_on_c, 1, 62, 96
3, 92399, Note_on_c, 1, 62, 0
3, 92640, Note_on_c, 1, 62, 96
3, 92879, Note_on_c, 1, 62, 0
3, 93120, Note_on_c, 1, 62, 96
3, 93359, Note_on_c, 1, 62, 0
3, 93600, Note_on_c, 1, 62, 96
3, 93839, Note_on_c, 1, 62, 0
3, 94080, Note_on_c, 1, 67, 96
3, 94319, Note_on_c, 1, 67, 0
3, 94320, Note_on_c, 1, 67, 96
3, 94559, Note_on_c, 1, 67, 0
3, 94560, Note_on_c, 1, 67, 96
3, 94799, Note_on_c, 1, 67, 0
3, 95040, Note_on_c, 1, 69, 96
3, 95279, Note_on_c, 1, 69, 0
3, 95280, Note_on_c, 1, 69, 96
3, 95519, Note_on_c, 1, 69, 0
3, 95520, Note_on_c, 1, 69, 96
3, 95759, Note_on_c, 1, 69, 0
3, 96000, Note_on_c, 1, 57, 96
3, 96239, Note_on_c, 1, 57, 0
3, 96480, Note_on_c, 1, 57, 96
3, 96719, Note_on_c, 1, 57, 0
3, 96960, Note_on_c, 1, 57, 96
3, 97199, Note_on_c, 1, 57, 0
3, 97440, Note_on_c, 1, 57, 96
3, 97679, Note_on_c, 1, 57, 0
3, 97920, Note_on_c, 1, 57, 96
3, 98159, Note_on_c, 1, 57, 0
3, 98400, Note_on_c, 1, 57, 96
3, 98639, Note_on_c, 1, 57, 0
3, 98880, Note_on_c, 1, 57, 96
3, 99119, Note_on_c, 1, 57, 0
3, 99360, Note_on_c, 1, 57, 96
3, 99599, Note_on_c, 1, 57, 0
3, 99600, Note_on_c, 1, 64, 96
3, 99839, Note_on_c, 1, 64, 0
3, 99840, Note_on_c, 1, 67, 96
3, 100079, Note_on_c, 1, 67, 0
3, 100320, Note_on_c, 1, 67, 96
3, 100559, Note_on_c, 1, 67, 0
3, 100800, Note_on_c, 1, 67, 96
3, 101039, Note_on_c, 1, 67, 0
3, 101280, Note_on_c, 1, 67, 96
3, 101519, Note_on_c, 1, 67, 0
3, 101760, Note_on_c, 1, 67, 96
3, 101999, Note_on_c, 1, 67, 0
3, 102240, Note_on_c, 1, 67, 96
3, 102479, Note_on_c, 1, 67, 0
3, 102720, Note_on_c, 1, 67, 96
3, 102959, Note_on_c, 1, 67, 0
3, 103200, Note_on_c, 1, 67, 96
3, 103439, Note_on_c, 1, 67, 0
3, 103440, Note_on_c, 1, 62, 96
3, 103679, Note_on_c, 1, 62, 0
3, 103680, Note_on_c, 1, 65, 96
3, 103919, Note_on_c, 1, 65, 0
3, 104160, Note_on_c, 1, 65, 96
3, 104399, Note_on_c, 1, 65, 0
3, 104640, Note_on_c, 1, 65, 96
3, 104879, Note_on_c, 1, 65, 0
3, 105120, Note_on_c, 1, 65, 96
3, 105359, Note_on_c, 1, 65, 0
3, 105600, Note_on_c, 1, 65, 96
3, 105839, Note_on_c, 1, 65, 0
3, 106080, Note_on_c, 1, 65, 96
3, 106319, Note_on_c, 1, 65, 0
3, 106560, Note_on_c, 1, 65, 96
3, 106799, Note_on_c, 1, 65, 0
3, 107040, Note_on_c, 1, 65, 96
3, 107279, Note_on_c, 1, 65, 0
3, 107280, Note_on_c, 1, 62, 96
3, 107519, Note_on_c, 1, 62, 0
3, 107520, Note_on_c, 1, 62, 96
3, 107759, Note_on_c, 1, 62, 0
3, 108000, Note_on_c, 1, 62, 96
3, 108239, Note_on_c, 1, 62, 0
3, 108480, Note_on_c, 1, 62, 96
3, 108719, Note_on_c, 1, 62, 0
3, 108960, Note_on_c, 1, 62, 96
3, 109199, Note_on_c, 1, 62, 0
3, 109200, Note_on_c, 1, 65, 96
3, 109439, Note_on_c, 1, 65, 0
3, 109440, Note_on_c, 1, 67, 96
3, 109679, Note_on_c, 1, 67, 0
3, 109920, Note_on_c, 1, 67, 96
3, 110159, Note_on_c, 1, 67, 0
3, 110400, Note_on_c, 1, 69, 96
3, 110639, Note_on_c, 1, 69, 0
3, 110880, Note_on_c, 1, 69, 96
3, 111119, Note_on_c, 1, 69, 0
3, 111360, Note_on_c, 1, 57, 96
3, 111599, Note_on_c, 1, 57, 0
3, 111840, Note_on_c, 1, 57, 96
3, 112019, Note_on_c, 1, 57, 0
3, 112200, Note_on_c, 1, 57, 96
3, 112319, Note_on_c, 1, 57, 0
3, 112320, Note_on_c, 1, 57, 96
3, 112559, Note_on_c, 1, 57, 0
3, 112560, Note_on_c, 1, 57, 96
3, 112799, Note_on_c, 1, 57, 0
3, 113040, Note_on_c, 1, 57, 96
3, 113279, Note_on_c, 1, 57, 0
3, 113520, Note_on_c, 1, 57, 96
3, 113759, Note_on_c, 1, 57, 0
3, 113760, Note_on_c, 1, 57, 96
3, 113999, Note_on_c, 1, 57, 0
3, 114240, Note_on_c, 1, 57, 96
3, 114479, Note_on_c, 1, 57, 0
3, 114480, Note_on_c, 1, 57, 96
3, 114719, Note_on_c, 1, 57, 0
3, 114720, Note_on_c, 1, 57, 96
3, 114959, Note_on_c, 1, 57, 0
3, 114960, Note_on_c, 1, 62, 96
3, 115199, Note_on_c, 1, 62, 0
3, 115200, Note_on_c, 1, 67, 96
3, 115439, Note_on_c, 1, 67, 0
3, 115680, Note_on_c, 1, 67, 96
3, 115859, Note_on_c, 1, 67, 0
3, 116040, Note_on_c, 1, 67, 96
3, 116159, Note_on_c, 1, 67, 0
3, 116160, Note_on_c, 1, 67, 96
3, 116399, Note_on_c, 1, 67, 0
3, 116400, Note_on_c, 1, 67, 96
3, 116639, Note_on_c, 1, 67, 0
3, 116880, Note_on_c, 1, 67, 96
3, 117119, Note_on_c, 1, 67, 0
3, 117360, Note_on_c, 1, 67, 96
3, 117599, Note_on_c, 1, 67, 0
3, 117600, Note_on_c, 1, 67, 96
3, 117839, Note_on_c, 1, 67, 0
3, 118080, Note_on_c, 1, 67, 96
3, 118319, Note_on_c, 1, 67, 0
3, 118320, Note_on_c, 1, 67, 96
3, 118559, Note_on_c, 1, 67, 0
3, 118560, Note_on_c, 1, 67, 96
3, 118799, Note_on_c, 1, 67, 0
3, 118800, Note_on_c, 1, 62, 96
3, 119039, Note_on_c, 1, 62, 0
3, 119040, Note_on_c, 1, 65, 96
3, 119279, Note_on_c, 1, 65, 0
3, 119520, Note_on_c, 1, 65, 96
3, 119699, Note_on_c, 1, 65, 0
3, 119880, Note_on_c, 1, 65, 96
3, 119999, Note_on_c, 1, 65, 0
3, 120000, Note_on_c, 1, 65, 96
3, 120239, Note_on_c, 1, 65, 0
3, 120240, Note_on_c, 1, 65, 96
3, 120479, Note_on_c, 1, 65, 0
3, 120720, Note_on_c, 1, 65, 96
3, 120959, Note_on_c, 1, 65, 0
3, 121200, Note_on_c, 1, 65, 96
3, 121439, Note_on_c, 1, 65, 0
3, 121440, Note_on_c, 1, 65, 96
3, 121679, Note_on_c, 1, 65, 0
3, 121920, Note_on_c, 1, 65, 96
3, 122159, Note_on_c, 1, 65, 0
3, 122160, Note_on_c, 1, 65, 96
3, 122399, Note_on_c, 1, 65, 0
3, 122400, Note_on_c, 1, 65, 96
3, 122639, Note_on_c, 1, 65, 0
3, 122640, Note_on_c, 1, 62, 96
3, 122879, Note_on_c, 1, 62, 0
3, 122880, Note_on_c, 1, 62, 96
3, 123119, Note_on_c, 1, 62, 0
3, 123360, Note_on_c, 1, 62, 96
3, 123599, Note_on_c, 1, 62, 0
3, 123840, Note_on_c, 1, 62, 96
3, 124079, Note_on_c, 1, 62, 0
3, 124320, Note_on_c, 1, 62, 96
3, 124559, Note_on_c, 1, 62, 0
3, 124800, Note_on_c, 1, 55, 96
3, 125279, Note_on_c, 1, 55, 0
3, 125280, Note_on_c, 1, 55, 96
3, 125759, Note_on_c, 1, 55, 0
3, 125760, Note_on_c, 1, 57, 96
3, 126719, Note_on_c, 1, 57, 0
3, 126720, Note_on_c, 1, 57, 96
3, 126959, Note_on_c, 1, 57, 0
3, 127200, Note_on_c, 1, 57, 96
3, 127379, Note_on_c, 1, 57, 0
3, 127560, Note_on_c, 1, 57, 96
3, 127679, Note_on_c, 1, 57, 0
3, 127680, Note_on_c, 1, 57, 96
3, 127919, Note_on_c, 1, 57, 0
3, 127920, Note_on_c, 1, 57, 96
3, 128159, Note_on_c, 1, 57, 0
3, 128400, Note_on_c, 1, 57, 96
3, 128639, Note_on_c, 1, 57, 0
3, 128880, Note_on_c, 1, 57, 96
3, 129119, Note_on_c, 1, 57, 0
3, 129120, Note_on_c, 1, 57, 96
3, 129359, Note_on_c, 1, 57, 0
3, 129600, Note_on_c, 1, 57, 96
3, 129839, Note_on_c, 1, 57, 0
3, 129840, Note_on_c, 1, 57, 96
3, 130079, Note_on_c, 1, 57, 0
3, 130080, Note_on_c, 1, 57, 96
3, 130319, Note_on_c, 1, 57, 0
3, 130320, Note_on_c, 1, 62, 96
3, 130559, Note_on_c, 1, 62, 0
3, 130560, Note_on_c, 1, 67, 96
3, 130799, Note_on_c, 1, 67, 0
3, 131040, Note_on_c, 1, 67, 96
3, 131219, Note_on_c, 1, 67, 0
3, 131400, Note_on_c, 1, 67, 96
3, 131519, Note_on_c, 1, 67, 0
3, 131520, Note_on_c, 1, 67, 96
3, 131759, Note_on_c, 1, 67, 0
3, 131760, Note_on_c, 1, 67, 96
3, 131999, Note_on_c, 1, 67, 0
3, 132240, Note_on_c, 1, 67, 96
3, 132479, Note_on_c, 1, 67, 0
3, 132720, Note_on_c, 1, 67, 96
3, 132959, Note_on_c, 1, 67, 0
3, 132960, Note_on_c, 1, 67, 96
3, 133199, Note_on_c, 1, 67, 0
3, 133440, Note_on_c, 1, 67, 96
3, 133679, Note_on_c, 1, 67, 0
3, 133680, Note_on_c, 1, 67, 96
3, 133919, Note_on_c, 1, 67, 0
3, 133920, Note_on_c, 1, 67, 96
3, 134159, Note_on_c, 1, 67, 0
3, 134160, Note_on_c, 1, 62, 96
3, 134399, Note_on_c, 1, 62, 0
3, 134400, Note_on_c, 1, 65, 96
3, 134639, Note_on_c, 1, 65, 0
3, 134880, Note_on_c, 1, 65, 96
3, 135059, Note_on_c, 1, 65, 0
3, 135240, Note_on_c, 1, 65, 96
3, 135359, Note_on_c, 1, 65, 0
3, 135360, Note_on_c, 1, 65, 96
3, 135599, Note_on_c, 1, 65, 0
3, 135600, Note_on_c, 1, 65, 96
3, 135839, Note_on_c, 1, 65, 0
3, 136080, Note_on_c, 1, 65, 96
3, 136319, Note_on_c, 1, 65, 0
3, 136560, Note_on_c, 1, 65, 96
3, 136799, Note_on_c, 1, 65, 0
3, 136800, Note_on_c, 1, 65, 96
3, 137039, Note_on_c, 1, 65, 0
3, 137280, Note_on_c, 1, 65, 96
3, 137519, Note_on_c, 1, 65, 0
3, 137520, Note_on_c, 1, 65, 96
3, 137759, Note_on_c, 1, 65, 0
3, 137760, Note_on_c, 1, 65, 96
3, 137999, Note_on_c, 1, 65, 0
3, 138000, Note_on_c, 1, 62, 96
3, 138239, Note_on_c, 1, 62, 0
3, 138240, Note_on_c, 1, 62, 96
3, 138479, Note_on_c, 1, 62, 0
3, 138720, Note_on_c, 1, 62, 96
3, 138959, Note_on_c, 1, 62, 0
3, 139200, Note_on_c, 1, 62, 96
3, 139439, Note_on_c, 1, 62, 0
3, 139680, Note_on_c, 1, 62, 96
3, 139919, Note_on_c, 1, 62, 0
3, 140160, Note_on_c, 1, 67, 96
3, 140639, Note_on_c, 1, 67, 0
3, 140640, Note_on_c, 1, 67, 96
3, 141119, Note_on_c, 1, 67, 0
3, 141120, Note_on_c, 1, 67, 96
3, 141599, Note_on_c, 1, 67, 0
3, 141600, Note_on_c, 1, 67, 96
3, 142079, Note_on_c, 1, 67, 0
3, 142080, Note_on_c, 1, 57, 80
3, 145919, Note_on_c, 1, 57, 0
3, 145920, Note_on_c, 1, 55, 80
3, 147839, Note_on_c, 1, 55, 0
3, 149760, Note_on_c, 1, 53, 80
3, 151679, Note_on_c, 1, 53, 0
3, 153600, Note_on_c, 1, 50, 80
3, 155519, Note_on_c, 1, 50, 0
3, 157440, Note_on_c, 1, 57, 80
3, 161279, Note_on_c, 1, 57, 0
3, 161280, Note_on_c, 1, 55, 80
3, 163199, Note_on_c, 1, 55, 0
3, 165120, Note_on_c, 1, 53, 80
3, 167039, Note_on_c, 1, 53, 0
3, 168960, Note_on_c, 1, 52, 80
3, 169919, Note_on_c, 1, 52, 0
3, 169920, Note_on_c, 1, 52, 80
3, 170879, Note_on_c, 1, 52, 0
3, 170880, Note_on_c, 1, 52, 80
3, 171359, Note_on_c, 1, 52, 0
3, 171360, Note_on_c, 1, 52, 80
3, 171839, Note_on_c, 1, 52, 0
3, 171840, Note_on_c, 1, 52, 80
3, 172319, Note_on_c, 1, 52, 0
3, 172320, Note_on_c, 1, 52, 80
3, 172799, Note_on_c, 1, 52, 0
3, 172800, Note_on_c, 1, 57, 96
3, 173039, Note_on_c, 1, 57, 0
3, 173280, Note_on_c, 1, 57, 96
3, 173519, Note_on_c, 1, 57, 0
3, 173760, Note_on_c, 1, 57, 96
3, 173999, Note_on_c, 1, 57, 0
3, 174240, Note_on_c, 1, 57, 96
3, 174479, Note_on_c, 1, 57, 0
3, 174720, Note_on_c, 1, 57, 96
3, 174959, Note_on_c, 1, 57, 0
3, 174960, Note_on_c, 1, 57, 96
3, 175199, Note_on_c, 1, 57, 0
3, 175200, Note_on_c, 1, 57, 96
3, 175439, Note_on_c, 1, 57, 0
3, 175680, Note_on_c, 1, 57, 96
3, 175919, Note_on_c, 1, 57, 0
3, 175920, Note_on_c, 1, 57, 96
3, 176159, Note_on_c, 1, 57, 0
3, 176160, Note_on_c, 1, 57, 96
3, 176399, Note_on_c, 1, 57, 0
3, 176400, Note_on_c, 1, 62, 96
3, 176639, Note_on_c, 1, 62, 0
3, 176640, Note_on_c, 1, 67, 96
3, 176879, Note_on_c, 1, 67, 0
3, 177120, Note_on_c, 1, 67, 96
3, 177359, Note_on_c, 1, 67, 0
3, 177600, Note_on_c, 1, 67, 96
3, 177839, Note_on_c, 1, 67, 0
3, 178080, Note_on_c, 1, 67, 96
3, 178319, Note_on_c, 1, 67, 0
3, 178560, Note_on_c, 1, 67, 96
3, 178799, Note_on_c, 1, 67, 0
3, 179040, Note_on_c, 1, 67, 96
3, 179279, Note_on_c, 1, 67, 0
3, 179280, Note_on_c, 1, 67, 96
3, 179519, Note_on_c, 1, 67, 0
3, 179520, Note_on_c, 1, 67, 96
3, 179759, Note_on_c, 1, 67, 0
3, 180000, Note_on_c, 1, 67, 96
3, 180239, Note_on_c, 1, 67, 0
3, 180240, Note_on_c, 1, 62, 96
3, 180479, Note_on_c, 1, 62, 0
3, 180480, Note_on_c, 1, 65, 96
3, 180719, Note_on_c, 1, 65, 0
3, 180960, Note_on_c, 1, 65, 96
3, 181199, Note_on_c, 1, 65, 0
3, 181440, Note_on_c, 1, 65, 96
3, 181679, Note_on_c, 1, 65, 0
3, 181920, Note_on_c, 1, 65, 96
3, 182159, Note_on_c, 1, 65, 0
3, 182160, Note_on_c, 1, 62, 96
3, 182399, Note_on_c, 1, 62, 0
3, 182400, Note_on_c, 1, 65, 96
3, 182639, Note_on_c, 1, 65, 0
3, 182880, Note_on_c, 1, 65, 96
3, 183119, Note_on_c, 1, 65, 0
3, 183360, Note_on_c, 1, 65, 96
3, 183599, Note_on_c, 1, 65, 0
3, 183840, Note_on_c, 1, 65, 96
3, 184079, Note_on_c, 1, 65, 0
3, 184320, Note_on_c, 1, 62, 96
3, 184559, Note_on_c, 1, 62, 0
3, 184800, Note_on_c, 1, 62, 96
3, 185039, Note_on_c, 1, 62, 0
3, 185280, Note_on_c, 1, 62, 96
3, 185519, Note_on_c, 1, 62, 0
3, 185760, Note_on_c, 1, 62, 96
3, 185999, Note_on_c, 1, 62, 0
3, 186240, Note_on_c, 1, 55, 96
3, 186479, Note_on_c, 1, 55, 0
3, 186480, Note_on_c, 1, 55, 96
3, 186719, Note_on_c, 1, 55, 0
3, 186720, Note_on_c, 1, 55, 96
3, 186959, Note_on_c, 1, 55, 0
3, 187200, Note_on_c, 1, 55, 96
3, 188159, Note_on_c, 1, 55, 0
3, 188160, Note_on_c, 1, 57, 96
3, 188399, Note_on_c, 1, 57, 0
3, 188640, Note_on_c, 1, 57, 96
3, 188879, Note_on_c, 1, 57, 0
3, 189120, Note_on_c, 1, 57, 96
3, 189359, Note_on_c, 1, 57, 0
3, 189600, Note_on_c, 1, 57, 96
3, 189839, Note_on_c, 1, 57, 0
3, 190080, Note_on_c, 1, 57, 96
3, 190319, Note_on_c, 1, 57, 0
3, 190560, Note_on_c, 1, 57, 96
3, 190799, Note_on_c, 1, 57, 0
3, 191040, Note_on_c, 1, 57, 96
3, 191279, Note_on_c, 1, 57, 0
3, 191520, Note_on_c, 1, 57, 96
3, 191759, Note_on_c, 1, 57, 0
3, 191760, Note_on_c, 1, 64, 96
3, 191999, Note_on_c, 1, 64, 0
3, 192000, Note_on_c, 1, 67, 96
3, 192239, Note_on_c, 1, 67, 0
3, 192480, Note_on_c, 1, 67, 96
3, 192719, Note_on_c, 1, 67, 0
3, 192960, Note_on_c, 1, 67, 96
3, 193199, Note_on_c, 1, 67, 0
3, 193440, Note_on_c, 1, 67, 96
3, 193679, Note_on_c, 1, 67, 0
3, 193920, Note_on_c, 1, 67, 96
3, 194159, Note_on_c, 1, 67, 0
3, 194400, Note_on_c, 1, 67, 96
3, 194639, Note_on_c, 1, 67, 0
3, 194880, Note_on_c, 1, 67, 96
3, 195119, Note_on_c, 1, 67, 0
3, 195360, Note_on_c, 1, 67, 96
3, 195599, Note_on_c, 1, 67, 0
3, 195600, Note_on_c, 1, 62, 96
3, 195839, Note_on_c, 1, 62, 0
3, 195840, Note_on_c, 1, 65, 96
3, 196079, Note_on_c, 1, 65, 0
3, 196320, Note_on_c, 1, 65, 96
3, 196559, Note_on_c, 1, 65, 0
3, 196800, Note_on_c, 1, 65, 96
3, 197039, Note_on_c, 1, 65, 0
3, 197280, Note_on_c, 1, 65, 96
3, 197519, Note_on_c, 1, 65, 0
3, 197760, Note_on_c, 1, 65, 96
3, 197999, Note_on_c, 1, 65, 0
3, 198240, Note_on_c, 1, 65, 96
3, 198479, Note_on_c, 1, 65, 0
3, 198720, Note_on_c, 1, 65, 96
3, 198959, Note_on_c, 1, 65, 0
3, 199200, Note_on_c, 1, 65, 96
3, 199439, Note_on_c, 1, 65, 0
3, 199440, Note_on_c, 1, 62, 96
3, 199679, Note_on_c, 1, 62, 0
3, 199680, Note_on_c, 1, 62, 96
3, 199919, Note_on_c, 1, 62, 0
3, 200160, Note_on_c, 1, 62, 96
3, 200399, Note_on_c, 1, 62, 0
3, 200640, Note_on_c, 1, 62, 96
3, 200879, Note_on_c, 1, 62, 0
3, 201120, Note_on_c, 1, 62, 96
3, 201359, Note_on_c, 1, 62, 0
3, 201360, Note_on_c, 1, 65, 96
3, 201599, Note_on_c, 1, 65, 0
3, 201600, Note_on_c, 1, 67, 96
3, 201839, Note_on_c, 1, 67, 0
3, 202080, Note_on_c, 1, 67, 96
3, 202319, Note_on_c, 1, 67, 0
3, 202560, Note_on_c, 1, 67, 96
3, 202799, Note_on_c, 1, 67, 0
3, 203040, Note_on_c, 1, 67, 96
3, 203279, Note_on_c, 1, 67, 0
3, 203520, Note_on_c, 1, 57, 96
3, 203759, Note_on_c, 1, 57, 0
3, 204000, Note_on_c, 1, 57, 96
3, 204239, Note_on_c, 1, 57, 0
3, 204480, Note_on_c, 1, 57, 96
3, 204719, Note_on_c, 1, 57, 0
3, 204960, Note_on_c, 1, 57, 96
3, 205199, Note_on_c, 1, 57, 0
3, 205440, Note_on_c, 1, 57, 96
3, 205679, Note_on_c, 1, 57, 0
3, 205680, Note_on_c, 1, 57, 96
3, 205919, Note_on_c, 1, 57, 0
3, 205920, Note_on_c, 1, 57, 96
3, 206159, Note_on_c, 1, 57, 0
3, 206400, Note_on_c, 1, 57, 96
3, 206639, Note_on_c, 1, 57, 0
3, 206640, Note_on_c, 1, 57, 96
3, 206879, Note_on_c, 1, 57, 0
3, 206880, Note_on_c, 1, 57, 96
3, 207119, Note_on_c, 1, 57, 0
3, 207120, Note_on_c, 1, 62, 96
3, 207359, Note_on_c, 1, 62, 0
3, 207360, Note_on_c, 1, 67, 96
3, 207599, Note_on_c, 1, 67, 0
3, 207840, Note_on_c, 1, 67, 96
3, 208079, Note_on_c, 1, 67, 0
3, 208320, Note_on_c, 1, 67, 96
3, 208559, Note_on_c, 1, 67, 0
3, 208800, Note_on_c, 1, 67, 96
3, 209039, Note_on_c, 1, 67, 0
3, 209280, Note_on_c, 1, 67, 96
3, 209519, Note_on_c, 1, 67, 0
3, 209760, Note_on_c, 1, 67, 96
3, 209999, Note_on_c, 1, 67, 0
3, 210000, Note_on_c, 1, 67, 96
3, 210239, Note_on_c, 1, 67, 0
3, 210240, Note_on_c, 1, 67, 96
3, 210479, Note_on_c, 1, 67, 0
3, 210720, Note_on_c, 1, 67, 96
3, 210959, Note_on_c, 1, 67, 0
3, 210960, Note_on_c, 1, 62, 96
3, 211199, Note_on_c, 1, 62, 0
3, 211200, Note_on_c, 1, 65, 96
3, 211439, Note_on_c, 1, 65, 0
3, 211680, Note_on_c, 1, 65, 96
3, 211919, Note_on_c, 1, 65, 0
3, 212160, Note_on_c, 1, 65, 96
3, 212399, Note_on_c, 1, 65, 0
3, 212640, Note_on_c, 1, 65, 96
3, 212879, Note_on_c, 1, 65, 0
3, 212880, Note_on_c, 1, 62, 96
3, 213119, Note_on_c, 1, 62, 0
3, 213120, Note_on_c, 1, 65, 96
3, 213359, Note_on_c, 1, 65, 0
3, 213600, Note_on_c, 1, 65, 96
3, 213839, Note_on_c, 1, 65, 0
3, 214080, Note_on_c, 1, 65, 96
3, 214319, Note_on_c, 1, 65, 0
3, 214560, Note_on_c, 1, 65, 96
3, 214799, Note_on_c, 1, 65, 0
3, 215040, Note_on_c, 1, 62, 96
3, 215279, Note_on_c, 1, 62, 0
3, 215520, Note_on_c, 1, 62, 96
3, 215759, Note_on_c, 1, 62, 0
3, 216000, Note_on_c, 1, 62, 96
3, 216239, Note_on_c, 1, 62, 0
3, 216480, Note_on_c, 1, 62, 96
3, 216719, Note_on_c, 1, 62, 0
3, 216960, Note_on_c, 1, 55, 96
3, 217199, Note_on_c, 1, 55, 0
3, 217200, Note_on_c, 1, 55, 96
3, 217439, Note_on_c, 1, 55, 0
3, 217440, Note_on_c, 1, 55, 96
3, 217679, Note_on_c, 1, 55, 0
3, 217920, Note_on_c, 1, 55, 96
3, 218879, Note_on_c, 1, 55, 0
3, 218880, Note_on_c, 1, 57, 96
3, 219119, Note_on_c, 1, 57, 0
3, 219360, Note_on_c, 1, 57, 96
3, 219599, Note_on_c, 1, 57, 0
3, 219840, Note_on_c, 1, 57, 96
3, 220079, Note_on_c, 1, 57, 0
3, 220320, Note_on_c, 1, 57, 96
3, 220559, Note_on_c, 1, 57, 0
3, 220800, Note_on_c, 1, 57, 96
3, 221039, Note_on_c, 1, 57, 0
3, 221040, Note_on_c, 1, 57, 96
3, 221279, Note_on_c, 1, 57, 0
3, 221280, Note_on_c, 1, 57, 96
3, 221519, Note_on_c, 1, 57, 0
3, 221760, Note_on_c, 1, 57, 96
3, 221999, Note_on_c, 1, 57, 0
3, 222000, Note_on_c, 1, 57, 96
3, 222239, Note_on_c, 1, 57, 0
3, 222240, Note_on_c, 1, 57, 96
3, 222479, Note_on_c, 1, 57, 0
3, 222480, Note_on_c, 1, 62, 96
3, 222719, Note_on_c, 1, 62, 0
3, 222720, Note_on_c, 1, 67, 96
3, 222959, Note_on_c, 1, 67, 0
3, 223200, Note_on_c, 1, 67, 96
3, 223439, Note_on_c, 1, 67, 0
3, 223680, Note_on_c, 1, 67, 96
3, 223919, Note_on_c, 1, 67, 0
3, 224160, Note_on_c, 1, 67, 96
3, 224399, Note_on_c, 1, 67, 0
3, 224640, Note_on_c, 1, 67, 96
3, 224879, Note_on_c, 1, 67, 0
3, 225120, Note_on_c, 1, 67, 96
3, 225359, Note_on_c, 1, 67, 0
3, 225360, Note_on_c, 1, 67, 96
3, 225599, Note_on_c, 1, 67, 0
3, 225600, Note_on_c, 1, 67, 96
3, 225839, Note_on_c, 1, 67, 0
3, 226080, Note_on_c, 1, 67, 96
3, 226319, Note_on_c, 1, 67, 0
3, 226320, Note_on_c, 1, 62, 96
3, 226559, Note_on_c, 1, 62, 0
3, 226560, Note_on_c, 1, 65, 96
3, 226799, Note_on_c, 1, 65, 0
3, 227040, Note_on_c, 1, 65, 96
3, 227279, Note_on_c, 1, 65, 0
3, 227520, Note_on_c, 1, 65, 96
3, 227759, Note_on_c, 1, 65, 0
3, 228000, Note_on_c, 1, 65, 96
3, 228239, Note_on_c, 1, 65, 0
3, 228240, Note_on_c, 1, 62, 96
3, 228479, Note_on_c, 1, 62, 0
3, 228480, Note_on_c, 1, 65, 96
3, 228719, Note_on_c, 1, 65, 0
3, 228960, Note_on_c, 1, 65, 96
3, 229199, Note_on_c, 1, 65, 0
3, 229440, Note_on_c, 1, 65, 96
3, 229679, Note_on_c, 1, 65, 0
3, 229920, Note_on_c, 1, 65, 96
3, 230159, Note_on_c, 1, 65, 0
3, 230400, Note_on_c, 1, 62, 96
3, 230639, Note_on_c, 1, 62, 0
3, 230880, Note_on_c, 1, 62, 96
3, 231119, Note_on_c, 1, 62, 0
3, 231360, Note_on_c, 1, 62, 96
3, 231599, Note_on_c, 1, 62, 0
3, 231840, Note_on_c, 1, 62, 96
3, 232079, Note_on_c, 1, 62, 0
3, 232320, Note_on_c, 1, 55, 96
3, 232559, Note_on_c, 1, 55, 0
3, 232560, Note_on_c, 1, 55, 96
3, 232799, Note_on_c, 1, 55, 0
3, 232800, Note_on_c, 1, 55, 96
3, 233039, Note_on_c, 1, 55, 0
3, 233280, Note_on_c, 1, 55, 96
3, 234239, Note_on_c, 1, 55, 0
3, 234240, Note_on_c, 1, 57, 80
3, 236159, Note_on_c, 1, 57, 0
3, 237600, Note_on_c, 1, 57, 80
3, 237839, Note_on_c, 1, 57, 0
3, 237840, Note_on_c, 1, 57, 80
3, 239999, Note_on_c, 1, 57, 0
3, 241920, Note_on_c, 1, 57, 80
3, 243839, Note_on_c, 1, 57, 0
3, 245280, Note_on_c, 1, 57, 80
3, 245519, Note_on_c, 1, 57, 0
3, 245520, Note_on_c, 1, 57, 80
3, 245759, Note_on_c, 1, 57, 0
3, 245760, End_track
0, 0, End_of_file
