0, 0, Header, 1, 2, 480
1, 0, Start_track
1, 0, Title_t, "Klavier\000"
1, 0, Time_signature, 4, 2, 24, 8
1, 0, Key_signature, 0, "major"
1, 0, Tempo, 599999
1, 0, Control_c, 0, 121, 0
1, 0, Program_c, 0, 0
1, 0, Control_c, 0, 7, 100
1, 0, Control_c, 0, 10, 64
1, 0, Control_c, 0, 91, 0
1, 0, Control_c, 0, 93, 0
1, 0, MIDI_port, 0
1, 0, Note_on_c, 0, 57, 64
1, 0, Control_c, 0, 2, 64
1, 2, Control_c, 0, 64, 127
1, 240, Note_on_c, 0, 64, 64
1, 240, Control_c, 0, 2, 64
1, 467, Note_on_c, 0, 64, 0
1, 480, Note_on_c, 0, 69, 64
1, 707, Note_on_c, 0, 69, 0
1, 720, Note_on_c, 0, 72, 64
1, 911, Note_on_c, 0, 57, 0
1, 1175, Note_on_c, 0, 72, 0
1, 1200, Note_on_c, 0, 69, 64
1, 1427, Note_on_c, 0, 69, 0
1, 1440, Note_on_c, 0, 64, 64
1, 1667, Note_on_c, 0, 64, 0
1, 1680, Note_on_c, 0, 65, 64
1, 1920, Note_on_c, 0, 53, 64
1, 1921, Control_c, 0, 64, 0
1, 1922, Control_c, 0, 64, 127
1, 2147, Note_on_c, 0, 53, 0
1, 2160, Note_on_c, 0, 57, 64
1, 2160, Control_c, 0, 2, 64
1, 2387, Note_on_c, 0, 57, 0
1, 2400, Note_on_c, 0, 60, 64
1, 2591, Note_on_c, 0, 65, 0
1, 2640, Note_on_c, 0, 65, 64
1, 2855, Note_on_c, 0, 60, 0
1, 2867, Note_on_c, 0, 65, 0
1, 2880, Note_on_c, 0, 55, 64
1, 2880, Note_on_c, 0, 67, 64
1, 3107, Note_on_c, 0, 55, 0
1, 3120, Note_on_c, 0, 62, 64
1, 3335, Note_on_c, 0, 67, 0
1, 3360, Note_on_c, 0, 67, 64
1, 3587, Note_on_c, 0, 67, 0
1, 3600, Note_on_c, 0, 69, 64
1, 3803, Note_on_c, 0, 62, 0
1, 3827, Note_on_c, 0, 69, 0
1, 3840, Note_on_c, 0, 57, 64
1, 3841, Control_c, 0, 64, 0
1, 3842, Control_c, 0, 64, 127
1, 4080, Note_on_c, 0, 64, 64
1, 4080, Control_c, 0, 2, 64
1, 4307, Note_on_c, 0, 64, 0
1, 4320, Note_on_c, 0, 69, 64
1, 4547, Note_on_c, 0, 69, 0
1, 4560, Note_on_c, 0, 72, 64
1, 4751, Note_on_c, 0, 57, 0
1, 5015, Note_on_c, 0, 72, 0
1, 5040, Note_on_c, 0, 69, 64
1, 5267, Note_on_c, 0, 69, 0
1, 5280, Note_on_c, 0, 64, 64
1, 5507, Note_on_c, 0, 64, 0
1, 5520, Note_on_c, 0, 65, 64
1, 5760, Note_on_c, 0, 53, 64
1, 5761, Control_c, 0, 64, 0
1, 5762, Control_c, 0, 64, 127
1, 5987, Note_on_c, 0, 53, 0
1, 6000, Note_on_c, 0, 57, 64
1, 6000, Control_c, 0, 2, 64
1, 6227, Note_on_c, 0, 57, 0
1, 6240, Note_on_c, 0, 60, 64
1, 6431, Note_on_c, 0, 65, 0
1, 6480, Note_on_c, 0, 65, 64
1, 6695, Note_on_c, 0, 60, 0
1, 6707, Note_on_c, 0, 65, 0
1, 6720, Note_on_c, 0, 55, 64
1, 6720, Note_on_c, 0, 67, 64
1, 6947, Note_on_c, 0, 55, 0
1, 6960, Note_on_c, 0, 62, 64
1, 7175, Note_on_c, 0, 67, 0
1, 7200, Note_on_c, 0, 67, 64
1, 7427, Note_on_c, 0, 67, 0
1, 7440, Note_on_c, 0, 69, 64
1, 7643, Note_on_c, 0, 62, 0
1, 7667, Note_on_c, 0, 69, 0
1, 7680, Note_on_c, 0, 57, 64
1, 7680, Note_on_c, 0, 72, 64
1, 7680, Note_on_c, 0, 76, 64
1, 7681, Control_c, 0, 64, 0
1, 7682, Control_c, 0, 64, 127
1, 7907, Note_on_c, 0, 57, 0
1, 7920, Note_on_c, 0, 64, 64
1, 7920, Control_c, 0, 2, 64
1, 8135, Note_on_c, 0, 72, 0
1, 8135, Note_on_c, 0, 76, 0
1, 8160, Note_on_c, 0, 69, 64
1, 8387, Note_on_c, 0, 69, 0
1, 8400, Note_on_c, 0, 72, 64
1, 8603, Note_on_c, 0, 64, 0
1, 8855, Note_on_c, 0, 72, 0
1, 8880, Note_on_c, 0, 69, 64
1, 9107, Note_on_c, 0, 69, 0
1, 9120, Note_on_c, 0, 64, 64
1, 9347, Note_on_c, 0, 64, 0
1, 9360, Note_on_c, 0, 65, 64
1, 9600, Note_on_c, 0, 53, 64
1, 9600, Note_on_c, 0, 69, 64
1, 9600, Note_on_c, 0, 72, 64
1, 9601, Control_c, 0, 64, 0
1, 9602, Control_c, 0, 64, 127
1, 9827, Note_on_c, 0, 53, 0
1, 9840, Note_on_c, 0, 57, 64
1, 9840, Control_c, 0, 2, 64
1, 10067, Note_on_c, 0, 57, 0
1, 10080, Note_on_c, 0, 60, 64
1, 10271, Note_on_c, 0, 65, 0
1, 10283, Note_on_c, 0, 69, 0
1, 10283, Note_on_c, 0, 72, 0
1, 10320, Note_on_c, 0, 65, 64
1, 10535, Note_on_c, 0, 60, 0
1, 10547, Note_on_c, 0, 65, 0
1, 10560, Note_on_c, 0, 55, 64
1, 10560, Note_on_c, 0, 67, 64
1, 10560, Note_on_c, 0, 71, 64
1, 10560, Note_on_c, 0, 74, 64
1, 10787, Note_on_c, 0, 55, 0
1, 10800, Note_on_c, 0, 62, 64
1, 11015, Note_on_c, 0, 67, 0
1, 11015, Note_on_c, 0, 71, 0
1, 11015, Note_on_c, 0, 74, 0
1, 11040, Note_on_c, 0, 67, 64
1, 11267, Note_on_c, 0, 67, 0
1, 11280, Note_on_c, 0, 69, 64
1, 11483, Note_on_c, 0, 62, 0
1, 11507, Note_on_c, 0, 69, 0
1, 11520, Note_on_c, 0, 69, 64
1, 11520, Note_on_c, 0, 72, 64
1, 11520, Note_on_c, 0, 76, 64
1, 11521, Control_c, 0, 64, 0
1, 11522, Control_c, 0, 64, 127
1, 11747, Note_on_c, 0, 69, 0
1, 11760, Note_on_c, 0, 64, 64
1, 11760, Control_c, 0, 2, 64
1, 11975, Note_on_c, 0, 72, 0
1, 11975, Note_on_c, 0, 76, 0
1, 12000, Note_on_c, 0, 69, 64
1, 12227, Note_on_c, 0, 69, 0
1, 12240, Note_on_c, 0, 72, 64
1, 12443, Note_on_c, 0, 64, 0
1, 12695, Note_on_c, 0, 72, 0
1, 12720, Note_on_c, 0, 69, 64
1, 12947, Note_on_c, 0, 69, 0
1, 12960, Note_on_c, 0, 64, 64
1, 13187, Note_on_c, 0, 64, 0
1, 13200, Note_on_c, 0, 65, 64
1, 13440, Note_on_c, 0, 53, 64
1, 13440, Note_on_c, 0, 69, 64
1, 13440, Note_on_c, 0, 72, 64
1, 13441, Control_c, 0, 64, 0
1, 13442, Control_c, 0, 64, 127
1, 13667, Note_on_c, 0, 53, 0
1, 13680, Note_on_c, 0, 60, 64
1, 13680, Control_c, 0, 2, 64
1, 13883, Note_on_c, 0, 65, 0
1, 13895, Note_on_c, 0, 69, 0
1, 13895, Note_on_c, 0, 72, 0
1, 13920, Note_on_c, 0, 65, 64
1, 14147, Note_on_c, 0, 65, 0
1, 14160, Note_on_c, 0, 69, 64
1, 14363, Note_on_c, 0, 60, 0
1, 14387, Note_on_c, 0, 69, 0
1, 14400, Note_on_c, 0, 55, 64
1, 14400, Note_on_c, 0, 67, 64
1, 14627, Note_on_c, 0, 55, 0
1, 14627, Note_on_c, 0, 67, 0
1, 14640, Note_on_c, 0, 62, 64
1, 14640, Note_on_c, 0, 74, 64
1, 14867, Note_on_c, 0, 74, 0
1, 14880, Note_on_c, 0, 69, 64
1, 15107, Note_on_c, 0, 69, 0
1, 15120, Note_on_c, 0, 65, 64
1, 15323, Note_on_c, 0, 62, 0
1, 15347, Note_on_c, 0, 65, 0
1, 15360, Note_on_c, 0, 57, 64
1, 15360, Note_on_c, 0, 60, 64
1, 15360, Note_on_c, 0, 64, 64
1, 15361, Control_c, 0, 64, 0
1, 15362, Control_c, 0, 64, 127
1, 15587, Note_on_c, 0, 60, 0
1, 15587, Note_on_c, 0, 64, 0
1, 15600, Note_on_c, 0, 69, 64
1, 15600, Control_c, 0, 2, 64
1, 15827, Note_on_c, 0, 69, 0
1, 15840, Note_on_c, 0, 69, 64
1, 16067, Note_on_c, 0, 69, 0
1, 16080, Note_on_c, 0, 71, 64
1, 16193, Note_on_c, 0, 71, 0
1, 16200, Note_on_c, 0, 69, 64
1, 16200, Note_on_c, 0, 72, 64
1, 16541, Note_on_c, 0, 69, 0
1, 16541, Note_on_c, 0, 72, 0
1, 16560, Note_on_c, 0, 69, 64
1, 16787, Note_on_c, 0, 69, 0
1, 16800, Note_on_c, 0, 69, 64
1, 17027, Note_on_c, 0, 69, 0
1, 17040, Note_on_c, 0, 67, 64
1, 17183, Note_on_c, 0, 57, 0
1, 17267, Note_on_c, 0, 67, 0
1, 17280, Note_on_c, 0, 53, 64
1, 17280, Note_on_c, 0, 60, 64
1, 17280, Note_on_c, 0, 67, 64
1, 17281, Control_c, 0, 64, 0
1, 17282, Control_c, 0, 64, 127
1, 17507, Note_on_c, 0, 60, 0
1, 17507, Note_on_c, 0, 67, 0
1, 17520, Note_on_c, 0, 67, 64
1, 17520, Control_c, 0, 2, 64
1, 17747, Note_on_c, 0, 67, 0
1, 17760, Note_on_c, 0, 67, 64
1, 17987, Note_on_c, 0, 67, 0
1, 18000, Note_on_c, 0, 67, 64
1, 18191, Note_on_c, 0, 53, 0
1, 18227, Note_on_c, 0, 67, 0
1, 18240, Note_on_c, 0, 55, 64
1, 18240, Note_on_c, 0, 62, 64
1, 18240, Note_on_c, 0, 67, 64
1, 18353, Note_on_c, 0, 62, 0
1, 18353, Note_on_c, 0, 67, 0
1, 18360, Note_on_c, 0, 67, 64
1, 18587, Note_on_c, 0, 67, 0
1, 18600, Note_on_c, 0, 69, 64
1, 19151, Note_on_c, 0, 55, 0
1, 19169, Note_on_c, 0, 69, 0
1, 19200, Note_on_c, 0, 57, 64
1, 19200, Note_on_c, 0, 60, 64
1, 19200, Note_on_c, 0, 64, 64
1, 19201, Control_c, 0, 64, 0
1, 19427, Note_on_c, 0, 60, 0
1, 19427, Note_on_c, 0, 64, 0
1, 19440, Note_on_c, 0, 69, 64
1, 19440, Control_c, 0, 2, 64
1, 19667, Note_on_c, 0, 69, 0
1, 19680, Note_on_c, 0, 69, 64
1, 19907, Note_on_c, 0, 69, 0
1, 19920, Note_on_c, 0, 69, 64
1, 20147, Note_on_c, 0, 69, 0
1, 20160, Note_on_c, 0, 69, 64
1, 20160, Note_on_c, 0, 72, 64
1, 20273, Note_on_c, 0, 69, 0
1, 20273, Note_on_c, 0, 72, 0
1, 20280, Note_on_c, 0, 72, 64
1, 20621, Note_on_c, 0, 72, 0
1, 20640, Note_on_c, 0, 72, 64
1, 20867, Note_on_c, 0, 72, 0
1, 20880, Note_on_c, 0, 72, 64
1, 21023, Note_on_c, 0, 57, 0
1, 21107, Note_on_c, 0, 72, 0
1, 21120, Note_on_c, 0, 53, 64
1, 21120, Note_on_c, 0, 65, 64
1, 21120, Note_on_c, 0, 69, 64
1, 21120, Note_on_c, 0, 72, 64
1, 21233, Note_on_c, 0, 65, 0
1, 21233, Note_on_c, 0, 69, 0
1, 21233, Note_on_c, 0, 72, 0
1, 21240, Note_on_c, 0, 72, 64
1, 21581, Note_on_c, 0, 72, 0
1, 21600, Note_on_c, 0, 72, 64
1, 21827, Note_on_c, 0, 72, 0
1, 21840, Note_on_c, 0, 71, 64
1, 22031, Note_on_c, 0, 53, 0
1, 22067, Note_on_c, 0, 71, 0
1, 22080, Note_on_c, 0, 55, 64
1, 22080, Note_on_c, 0, 62, 64
1, 22080, Note_on_c, 0, 67, 64
1, 22080, Note_on_c, 0, 71, 64
1, 22307, Note_on_c, 0, 62, 0
1, 22307, Note_on_c, 0, 67, 0
1, 22307, Note_on_c, 0, 71, 0
1, 22320, Note_on_c, 0, 71, 64
1, 22433, Note_on_c, 0, 71, 0
1, 22440, Note_on_c, 0, 71, 64
1, 22553, Note_on_c, 0, 71, 0
1, 22560, Note_on_c, 0, 69, 64
1, 22991, Note_on_c, 0, 55, 0
1, 23015, Note_on_c, 0, 69, 0
1, 23040, Note_on_c, 0, 57, 64
1, 23040, Note_on_c, 0, 60, 64
1, 23040, Note_on_c, 0, 64, 64
1, 23042, Control_c, 0, 64, 127
1, 23153, Note_on_c, 0, 60, 0
1, 23153, Note_on_c, 0, 64, 0
1, 23160, Note_on_c, 0, 69, 64
1, 23160, Control_c, 0, 2, 64
1, 23273, Note_on_c, 0, 69, 0
1, 23280, Note_on_c, 0, 69, 64
1, 23507, Note_on_c, 0, 69, 0
1, 23520, Note_on_c, 0, 69, 64
1, 23747, Note_on_c, 0, 69, 0
1, 23760, Note_on_c, 0, 69, 64
1, 23873, Note_on_c, 0, 69, 0
1, 23880, Note_on_c, 0, 69, 64
1, 23880, Note_on_c, 0, 72, 64
1, 24221, Note_on_c, 0, 69, 0
1, 24221, Note_on_c, 0, 72, 0
1, 24240, Note_on_c, 0, 69, 64
1, 24467, Note_on_c, 0, 69, 0
1, 24480, Note_on_c, 0, 69, 64
1, 24707, Note_on_c, 0, 69, 0
1, 24720, Note_on_c, 0, 67, 64
1, 24863, Note_on_c, 0, 57, 0
1, 24947, Note_on_c, 0, 67, 0
1, 24960, Note_on_c, 0, 53, 64
1, 24960, Note_on_c, 0, 60, 64
1, 24960, Note_on_c, 0, 67, 64
1, 24961, Control_c, 0, 64, 0
1, 24962, Control_c, 0, 64, 127
1, 25187, Note_on_c, 0, 60, 0
1, 25187, Note_on_c, 0, 67, 0
1, 25200, Note_on_c, 0, 67, 64
1, 25200, Control_c, 0, 2, 64
1, 25427, Note_on_c, 0, 67, 0
1, 25440, Note_on_c, 0, 67, 64
1, 25553, Note_on_c, 0, 67, 0
1, 25560, Note_on_c, 0, 67, 64
1, 25871, Note_on_c, 0, 53, 0
1, 25901, Note_on_c, 0, 67, 0
1, 25920, Note_on_c, 0, 55, 64
1, 25920, Note_on_c, 0, 62, 64
1, 25920, Note_on_c, 0, 69, 64
1, 26831, Note_on_c, 0, 55, 0
1, 26831, Note_on_c, 0, 62, 0
1, 26831, Note_on_c, 0, 69, 0
1, 26880, Note_on_c, 0, 57, 64
1, 26880, Note_on_c, 0, 60, 64
1, 26880, Note_on_c, 0, 64, 64
1, 26881, Control_c, 0, 64, 0
1, 26882, Control_c, 0, 64, 127
1, 27107, Note_on_c, 0, 60, 0
1, 27107, Note_on_c, 0, 64, 0
1, 27120, Note_on_c, 0, 69, 64
1, 27120, Control_c, 0, 2, 64
1, 27347, Note_on_c, 0, 69, 0
1, 27360, Note_on_c, 0, 69, 64
1, 27587, Note_on_c, 0, 69, 0
1, 27600, Note_on_c, 0, 69, 64
1, 27827, Note_on_c, 0, 69, 0
1, 27840, Note_on_c, 0, 69, 64
1, 27953, Note_on_c, 0, 69, 0
1, 27960, Note_on_c, 0, 69, 64
1, 28187, Note_on_c, 0, 69, 0
1, 28200, Note_on_c, 0, 69, 64
1, 28427, Note_on_c, 0, 69, 0
1, 28440, Note_on_c, 0, 69, 64
1, 28667, Note_on_c, 0, 69, 0
1, 28680, Note_on_c, 0, 69, 64
1, 28703, Note_on_c, 0, 57, 0
1, 28793, Note_on_c, 0, 69, 0
1, 28800, Note_on_c, 0, 53, 64
1, 28800, Note_on_c, 0, 60, 64
1, 28800, Note_on_c, 0, 67, 64
1, 28801, Control_c, 0, 64, 0
1, 28802, Control_c, 0, 64, 127
1, 29711, Note_on_c, 0, 53, 0
1, 29711, Note_on_c, 0, 60, 0
1, 29711, Note_on_c, 0, 67, 0
1, 29760, Note_on_c, 0, 55, 64
1, 29760, Control_c, 0, 2, 64
1, 29760, Note_on_c, 0, 62, 64
1, 29760, Note_on_c, 0, 67, 64
1, 30671, Note_on_c, 0, 55, 0
1, 30671, Note_on_c, 0, 62, 0
1, 30671, Note_on_c, 0, 67, 0
1, 30720, Control_c, 0, 2, 80
1, 30720, Note_on_c, 0, 69, 80
1, 30720, Note_on_c, 0, 79, 80
1, 30721, Control_c, 0, 64, 0
1, 30722, Control_c, 0, 64, 127
1, 30947, Note_on_c, 0, 69, 0
1, 30947, Note_on_c, 0, 79, 0
1, 30960, Note_on_c, 0, 64, 80
1, 30960, Control_c, 0, 2, 80
1, 30960, Note_on_c, 0, 69, 80
1, 30960, Note_on_c, 0, 72, 80
1, 31301, Note_on_c, 0, 64, 0
1, 31301, Note_on_c, 0, 69, 0
1, 31301, Note_on_c, 0, 72, 0
1, 31320, Note_on_c, 0, 64, 80
1, 31320, Note_on_c, 0, 69, 80
1, 31320, Note_on_c, 0, 72, 80
1, 31661, Note_on_c, 0, 64, 0
1, 31661, Note_on_c, 0, 69, 0
1, 31661, Note_on_c, 0, 72, 0
1, 31680, Note_on_c, 0, 57, 80
1, 31907, Note_on_c, 0, 57, 0
1, 31920, Note_on_c, 0, 64, 80
1, 31920, Note_on_c, 0, 69, 80
1, 31920, Note_on_c, 0, 72, 80
1, 32261, Note_on_c, 0, 64, 0
1, 32261, Note_on_c, 0, 69, 0
1, 32261, Note_on_c, 0, 72, 0
1, 32280, Note_on_c, 0, 64, 80
1, 32280, Note_on_c, 0, 69, 80
1, 32280, Note_on_c, 0, 72, 80
1, 32621, Note_on_c, 0, 64, 0
1, 32621, Note_on_c, 0, 69, 0
1, 32621, Note_on_c, 0, 72, 0
1, 32640, Note_on_c, 0, 53, 80
1, 32641, Control_c, 0, 64, 0
1, 32642, Control_c, 0, 64, 127
1, 32867, Note_on_c, 0, 53, 0
1, 32880, Note_on_c, 0, 65, 80
1, 32880, Control_c, 0, 2, 80
1, 32880, Note_on_c, 0, 69, 80
1, 32880, Note_on_c, 0, 72, 80
1, 33221, Note_on_c, 0, 65, 0
1, 33221, Note_on_c, 0, 69, 0
1, 33221, Note_on_c, 0, 72, 0
1, 33240, Note_on_c, 0, 65, 80
1, 33240, Note_on_c, 0, 69, 80
1, 33240, Note_on_c, 0, 72, 80
1, 33581, Note_on_c, 0, 65, 0
1, 33581, Note_on_c, 0, 69, 0
1, 33581, Note_on_c, 0, 72, 0
1, 33600, Note_on_c, 0, 55, 80
1, 33827, Note_on_c, 0, 55, 0
1, 33840, Note_on_c, 0, 67, 80
1, 33840, Note_on_c, 0, 71, 80
1, 33840, Note_on_c, 0, 74, 80
1, 34181, Note_on_c, 0, 67, 0
1, 34181, Note_on_c, 0, 71, 0
1, 34181, Note_on_c, 0, 74, 0
1, 34200, Note_on_c, 0, 67, 80
1, 34200, Note_on_c, 0, 71, 80
1, 34200, Note_on_c, 0, 74, 80
1, 34541, Note_on_c, 0, 67, 0
1, 34541, Note_on_c, 0, 71, 0
1, 34541, Note_on_c, 0, 74, 0
1, 34560, Note_on_c, 0, 57, 80
1, 34561, Control_c, 0, 64, 0
1, 34562, Control_c, 0, 64, 127
1, 34787, Note_on_c, 0, 57, 0
1, 34800, Note_on_c, 0, 64, 80
1, 34800, Control_c, 0, 2, 80
1, 34800, Note_on_c, 0, 69, 80
1, 34800, Note_on_c, 0, 72, 80
1, 35141, Note_on_c, 0, 64, 0
1, 35141, Note_on_c, 0, 69, 0
1, 35141, Note_on_c, 0, 72, 0
1, 35160, Note_on_c, 0, 64, 80
1, 35160, Note_on_c, 0, 69, 80
1, 35160, Note_on_c, 0, 72, 80
1, 35501, Note_on_c, 0, 64, 0
1, 35501, Note_on_c, 0, 69, 0
1, 35501, Note_on_c, 0, 72, 0
1, 35520, Note_on_c, 0, 57, 80
1, 35747, Note_on_c, 0, 57, 0
1, 35760, Note_on_c, 0, 64, 80
1, 35760, Note_on_c, 0, 69, 80
1, 35760, Note_on_c, 0, 72, 80
1, 36101, Note_on_c, 0, 64, 0
1, 36101, Note_on_c, 0, 69, 0
1, 36101, Note_on_c, 0, 72, 0
1, 36120, Note_on_c, 0, 64, 80
1, 36120, Note_on_c, 0, 69, 80
1, 36120, Note_on_c, 0, 72, 80
1, 36461, Note_on_c, 0, 64, 0
1, 36461, Note_on_c, 0, 69, 0
1, 36461, Note_on_c, 0, 72, 0
1, 36480, Note_on_c, 0, 53, 80
1, 36481, Control_c, 0, 64, 0
1, 36482, Control_c, 0, 64, 127
1, 36707, Note_on_c, 0, 53, 0
1, 36720, Note_on_c, 0, 65, 80
1, 36720, Control_c, 0, 2, 80
1, 36720, Note_on_c, 0, 69, 80
1, 36720, Note_on_c, 0, 72, 80
1, 37061, Note_on_c, 0, 65, 0
1, 37061, Note_on_c, 0, 69, 0
1, 37061, Note_on_c, 0, 72, 0
1, 37080, Note_on_c, 0, 65, 80
1, 37080, Note_on_c, 0, 69, 80
1, 37080, Note_on_c, 0, 72, 80
1, 37421, Note_on_c, 0, 65, 0
1, 37421, Note_on_c, 0, 69, 0
1, 37421, Note_on_c, 0, 72, 0
1, 37440, Note_on_c, 0, 55, 80
1, 37667, Note_on_c, 0, 55, 0
1, 37680, Note_on_c, 0, 67, 80
1, 37680, Note_on_c, 0, 71, 80
1, 37680, Note_on_c, 0, 74, 80
1, 38021, Note_on_c, 0, 67, 0
1, 38021, Note_on_c, 0, 71, 0
1, 38021, Note_on_c, 0, 74, 0
1, 38040, Note_on_c, 0, 67, 80
1, 38040, Note_on_c, 0, 71, 80
1, 38040, Note_on_c, 0, 74, 80
1, 38381, Note_on_c, 0, 67, 0
1, 38381, Note_on_c, 0, 71, 0
1, 38381, Note_on_c, 0, 74, 0
1, 38400, Note_on_c, 0, 69, 80
1, 38400, Note_on_c, 0, 72, 80
1, 38400, Note_on_c, 0, 76, 80
1, 38401, Control_c, 0, 64, 0
1, 38402, Control_c, 0, 64, 127
1, 38627, Note_on_c, 0, 72, 0
1, 38627, Note_on_c, 0, 76, 0
1, 38640, Note_on_c, 0, 81, 80
1, 38640, Control_c, 0, 2, 80
1, 38867, Note_on_c, 0, 81, 0
1, 38880, Note_on_c, 0, 81, 80
1, 39107, Note_on_c, 0, 81, 0
1, 39120, Note_on_c, 0, 81, 80
1, 39233, Note_on_c, 0, 81, 0
1, 39240, Note_on_c, 0, 81, 80
1, 39581, Note_on_c, 0, 81, 0
1, 39600, Note_on_c, 0, 79, 80
1, 39827, Note_on_c, 0, 79, 0
1, 39840, Note_on_c, 0, 79, 80
1, 40067, Note_on_c, 0, 79, 0
1, 40080, Note_on_c, 0, 77, 80
1, 40223, Note_on_c, 0, 69, 0
1, 40307, Note_on_c, 0, 77, 0
1, 40320, Note_on_c, 0, 65, 80
1, 40320, Note_on_c, 0, 72, 80
1, 40320, Note_on_c, 0, 79, 80
1, 40321, Control_c, 0, 64, 0
1, 40322, Control_c, 0, 64, 127
1, 40547, Note_on_c, 0, 72, 0
1, 40547, Note_on_c, 0, 79, 0
1, 40560, Note_on_c, 0, 79, 80
1, 40560, Control_c, 0, 2, 80
1, 40787, Note_on_c, 0, 79, 0
1, 40800, Note_on_c, 0, 79, 80
1, 41027, Note_on_c, 0, 79, 0
1, 41040, Note_on_c, 0, 79, 80
1, 41153, Note_on_c, 0, 79, 0
1, 41160, Note_on_c, 0, 79, 80
1, 41231, Note_on_c, 0, 65, 0
1, 41280, Note_on_c, 0, 67, 80
1, 41280, Note_on_c, 0, 71, 80
1, 41280, Note_on_c, 0, 74, 80
1, 42185, Note_on_c, 0, 79, 0
1, 42191, Note_on_c, 0, 67, 0
1, 42191, Note_on_c, 0, 71, 0
1, 42191, Note_on_c, 0, 74, 0
1, 42240, Note_on_c, 0, 69, 80
1, 42240, Note_on_c, 0, 72, 80
1, 42240, Note_on_c, 0, 76, 80
1, 42241, Control_c, 0, 64, 0
1, 42242, Control_c, 0, 64, 127
1, 42695, Note_on_c, 0, 72, 0
1, 42695, Note_on_c, 0, 76, 0
1, 42720, Note_on_c, 0, 76, 80
1, 42720, Control_c, 0, 2, 80
1, 42947, Note_on_c, 0, 76, 0
1, 42960, Note_on_c, 0, 76, 80
1, 43073, Note_on_c, 0, 76, 0
1, 43080, Note_on_c, 0, 79, 80
1, 43307, Note_on_c, 0, 79, 0
1, 43320, Note_on_c, 0, 79, 80
1, 43547, Note_on_c, 0, 79, 0
1, 43560, Note_on_c, 0, 79, 80
1, 43787, Note_on_c, 0, 79, 0
1, 43800, Note_on_c, 0, 79, 80
1, 43913, Note_on_c, 0, 79, 0
1, 43920, Note_on_c, 0, 79, 80
1, 44033, Note_on_c, 0, 79, 0
1, 44040, Note_on_c, 0, 79, 80
1, 44063, Note_on_c, 0, 69, 0
1, 44153, Note_on_c, 0, 79, 0
1, 44160, Note_on_c, 0, 65, 80
1, 44160, Note_on_c, 0, 72, 80
1, 44160, Note_on_c, 0, 81, 80
1, 44161, Control_c, 0, 64, 0
1, 44162, Control_c, 0, 64, 127
1, 44387, Note_on_c, 0, 72, 0
1, 44387, Note_on_c, 0, 81, 0
1, 44400, Note_on_c, 0, 79, 80
1, 44400, Control_c, 0, 2, 80
1, 44627, Note_on_c, 0, 79, 0
1, 44640, Note_on_c, 0, 79, 80
1, 44981, Note_on_c, 0, 79, 0
1, 45000, Note_on_c, 0, 79, 80
1, 45071, Note_on_c, 0, 65, 0
1, 45113, Note_on_c, 0, 79, 0
1, 45120, Note_on_c, 0, 67, 80
1, 45120, Note_on_c, 0, 71, 80
1, 45120, Note_on_c, 0, 74, 80
1, 45347, Note_on_c, 0, 71, 0
1, 45347, Note_on_c, 0, 74, 0
1, 45360, Note_on_c, 0, 74, 80
1, 45587, Note_on_c, 0, 74, 0
1, 45600, Note_on_c, 0, 74, 80
1, 45827, Note_on_c, 0, 74, 0
1, 45840, Note_on_c, 0, 72, 80
1, 46031, Note_on_c, 0, 67, 0
1, 46067, Note_on_c, 0, 72, 0
1, 46080, Note_on_c, 0, 69, 80
1, 46080, Note_on_c, 0, 72, 80
1, 46080, Note_on_c, 0, 76, 80
1, 46081, Control_c, 0, 64, 0
1, 46082, Control_c, 0, 64, 127
1, 46307, Note_on_c, 0, 72, 0
1, 46307, Note_on_c, 0, 76, 0
1, 46320, Note_on_c, 0, 79, 80
1, 46320, Control_c, 0, 2, 80
1, 46547, Note_on_c, 0, 79, 0
1, 46560, Note_on_c, 0, 79, 80
1, 46673, Note_on_c, 0, 79, 0
1, 46680, Note_on_c, 0, 79, 80
1, 47021, Note_on_c, 0, 79, 0
1, 47040, Note_on_c, 0, 76, 80
1, 47040, Note_on_c, 0, 81, 80
1, 47267, Note_on_c, 0, 76, 0
1, 47267, Note_on_c, 0, 81, 0
1, 47280, Note_on_c, 0, 79, 80
1, 47735, Note_on_c, 0, 79, 0
1, 47760, Note_on_c, 0, 79, 80
1, 47903, Note_on_c, 0, 69, 0
1, 47987, Note_on_c, 0, 79, 0
1, 48000, Note_on_c, 0, 65, 80
1, 48000, Note_on_c, 0, 72, 80
1, 48000, Note_on_c, 0, 79, 80
1, 48001, Control_c, 0, 64, 0
1, 48002, Control_c, 0, 64, 127
1, 48113, Note_on_c, 0, 72, 0
1, 48113, Note_on_c, 0, 79, 0
1, 48120, Note_on_c, 0, 79, 80
1, 48120, Control_c, 0, 2, 80
1, 48461, Note_on_c, 0, 79, 0
1, 48480, Note_on_c, 0, 79, 80
1, 48707, Note_on_c, 0, 79, 0
1, 48720, Note_on_c, 0, 79, 80
1, 48911, Note_on_c, 0, 65, 0
1, 48947, Note_on_c, 0, 79, 0
1, 48960, Note_on_c, 0, 67, 80
1, 48960, Note_on_c, 0, 74, 80
1, 48960, Note_on_c, 0, 81, 80
1, 49415, Note_on_c, 0, 74, 0
1, 49415, Note_on_c, 0, 81, 0
1, 49680, Note_on_c, 0, 74, 80
1, 49680, Note_on_c, 0, 79, 80
1, 49871, Note_on_c, 0, 67, 0
1, 49907, Note_on_c, 0, 74, 0
1, 49907, Note_on_c, 0, 79, 0
1, 49920, Note_on_c, 0, 69, 80
1, 49920, Note_on_c, 0, 76, 80
1, 49920, Note_on_c, 0, 81, 80
1, 49921, Control_c, 0, 64, 0
1, 49922, Control_c, 0, 64, 127
1, 50147, Note_on_c, 0, 76, 0
1, 50147, Note_on_c, 0, 81, 0
1, 50160, Note_on_c, 0, 76, 80
1, 50160, Control_c, 0, 2, 80
1, 50160, Note_on_c, 0, 81, 80
1, 50387, Note_on_c, 0, 76, 0
1, 50387, Note_on_c, 0, 81, 0
1, 50400, Note_on_c, 0, 76, 80
1, 50400, Note_on_c, 0, 81, 80
1, 50627, Note_on_c, 0, 76, 0
1, 50627, Note_on_c, 0, 81, 0
1, 50640, Note_on_c, 0, 76, 80
1, 50640, Note_on_c, 0, 84, 80
1, 51095, Note_on_c, 0, 76, 0
1, 51095, Note_on_c, 0, 84, 0
1, 51120, Note_on_c, 0, 76, 80
1, 51120, Note_on_c, 0, 84, 80
1, 51575, Note_on_c, 0, 76, 0
1, 51575, Note_on_c, 0, 84, 0
1, 51600, Note_on_c, 0, 77, 80
1, 51600, Note_on_c, 0, 81, 80
1, 51600, Note_on_c, 0, 84, 80
1, 51743, Note_on_c, 0, 69, 0
1, 51840, Note_on_c, 0, 65, 80
1, 51841, Control_c, 0, 64, 0
1, 51842, Control_c, 0, 64, 127
1, 52055, Note_on_c, 0, 77, 0
1, 52055, Note_on_c, 0, 81, 0
1, 52055, Note_on_c, 0, 84, 0
1, 52080, Note_on_c, 0, 83, 80
1, 52080, Control_c, 0, 2, 80
1, 52307, Note_on_c, 0, 83, 0
1, 52320, Note_on_c, 0, 81, 80
1, 52547, Note_on_c, 0, 81, 0
1, 52560, Note_on_c, 0, 84, 80
1, 52751, Note_on_c, 0, 65, 0
1, 52787, Note_on_c, 0, 84, 0
1, 52800, Note_on_c, 0, 67, 80
1, 52800, Note_on_c, 0, 74, 80
1, 52800, Note_on_c, 0, 81, 80
1, 53711, Note_on_c, 0, 67, 0
1, 53711, Note_on_c, 0, 74, 0
1, 53711, Note_on_c, 0, 81, 0
1, 53760, Control_c, 0, 2, 96
1, 53760, Note_on_c, 0, 57, 96
1, 53760, Note_on_c, 0, 64, 96
1, 53760, Note_on_c, 0, 64, 0
1, 53760, Note_on_c, 0, 64, 96
1, 53761, Control_c, 0, 64, 0
1, 53762, Control_c, 0, 64, 127
1, 53987, Note_on_c, 0, 57, 0
1, 53987, Note_on_c, 0, 64, 0
1, 54000, Note_on_c, 0, 64, 96
1, 54000, Control_c, 0, 2, 96
1, 54000, Note_on_c, 0, 64, 0
1, 54000, Note_on_c, 0, 64, 96
1, 54000, Note_on_c, 0, 69, 96
1, 54227, Note_on_c, 0, 64, 0
1, 54227, Note_on_c, 0, 69, 0
1, 54240, Note_on_c, 0, 64, 96
1, 54240, Note_on_c, 0, 64, 0
1, 54240, Note_on_c, 0, 64, 96
1, 54240, Note_on_c, 0, 69, 96
1, 54467, Note_on_c, 0, 64, 0
1, 54467, Note_on_c, 0, 69, 0
1, 54480, Note_on_c, 0, 64, 96
1, 54480, Note_on_c, 0, 64, 0
1, 54480, Note_on_c, 0, 64, 96
1, 54480, Note_on_c, 0, 69, 96
1, 54707, Note_on_c, 0, 64, 0
1, 54707, Note_on_c, 0, 69, 0
1, 54720, Note_on_c, 0, 57, 96
1, 54720, Note_on_c, 0, 64, 96
1, 54720, Note_on_c, 0, 64, 0
1, 54720, Note_on_c, 0, 64, 96
1, 54720, Note_on_c, 0, 72, 96
1, 54947, Note_on_c, 0, 57, 0
1, 54947, Note_on_c, 0, 64, 0
1, 54947, Note_on_c, 0, 72, 0
1, 54960, Note_on_c, 0, 64, 96
1, 54960, Note_on_c, 0, 64, 0
1, 54960, Note_on_c, 0, 64, 96
1, 54960, Note_on_c, 0, 69, 96
1, 55187, Note_on_c, 0, 64, 0
1, 55187, Note_on_c, 0, 69, 0
1, 55200, Note_on_c, 0, 64, 96
1, 55200, Note_on_c, 0, 64, 0
1, 55200, Note_on_c, 0, 64, 96
1, 55200, Note_on_c, 0, 69, 96
1, 55427, Note_on_c, 0, 64, 0
1, 55427, Note_on_c, 0, 69, 0
1, 55440, Note_on_c, 0, 64, 96
1, 55440, Note_on_c, 0, 64, 0
1, 55440, Note_on_c, 0, 64, 96
1, 55440, Note_on_c, 0, 69, 96
1, 55667, Note_on_c, 0, 64, 0
1, 55667, Note_on_c, 0, 69, 0
1, 55680, Note_on_c, 0, 53, 96
1, 55680, Note_on_c, 0, 60, 96
1, 55680, Note_on_c, 0, 65, 96
1, 55680, Note_on_c, 0, 72, 96
1, 55681, Control_c, 0, 64, 0
1, 55682, Control_c, 0, 64, 127
1, 55907, Note_on_c, 0, 53, 0
1, 55907, Note_on_c, 0, 60, 0
1, 55907, Note_on_c, 0, 65, 0
1, 55907, Note_on_c, 0, 72, 0
1, 55920, Note_on_c, 0, 60, 96
1, 55920, Control_c, 0, 2, 96
1, 55920, Note_on_c, 0, 65, 96
1, 55920, Note_on_c, 0, 72, 96
1, 56147, Note_on_c, 0, 60, 0
1, 56147, Note_on_c, 0, 65, 0
1, 56147, Note_on_c, 0, 72, 0
1, 56160, Note_on_c, 0, 60, 96
1, 56160, Note_on_c, 0, 65, 96
1, 56160, Note_on_c, 0, 72, 96
1, 56387, Note_on_c, 0, 60, 0
1, 56387, Note_on_c, 0, 65, 0
1, 56387, Note_on_c, 0, 72, 0
1, 56400, Note_on_c, 0, 60, 96
1, 56400, Note_on_c, 0, 65, 96
1, 56400, Note_on_c, 0, 72, 96
1, 56627, Note_on_c, 0, 60, 0
1, 56627, Note_on_c, 0, 65, 0
1, 56627, Note_on_c, 0, 72, 0
1, 56640, Note_on_c, 0, 55, 96
1, 56640, Note_on_c, 0, 62, 96
1, 56640, Note_on_c, 0, 67, 96
1, 56640, Note_on_c, 0, 71, 96
1, 56867, Note_on_c, 0, 55, 0
1, 56867, Note_on_c, 0, 62, 0
1, 56867, Note_on_c, 0, 67, 0
1, 56867, Note_on_c, 0, 71, 0
1, 56880, Note_on_c, 0, 62, 96
1, 56880, Note_on_c, 0, 67, 96
1, 56880, Note_on_c, 0, 71, 96
1, 56993, Note_on_c, 0, 67, 0
1, 56993, Note_on_c, 0, 71, 0
1, 57000, Note_on_c, 0, 67, 96
1, 57000, Note_on_c, 0, 72, 96
1, 57107, Note_on_c, 0, 62, 0
1, 57120, Note_on_c, 0, 55, 96
1, 57347, Note_on_c, 0, 55, 0
1, 57360, Note_on_c, 0, 55, 96
1, 57569, Note_on_c, 0, 67, 0
1, 57569, Note_on_c, 0, 72, 0
1, 57587, Note_on_c, 0, 55, 0
1, 57600, Note_on_c, 0, 57, 96
1, 57600, Note_on_c, 0, 64, 96
1, 57600, Note_on_c, 0, 64, 0
1, 57600, Note_on_c, 0, 64, 96
1, 57601, Control_c, 0, 64, 0
1, 57602, Control_c, 0, 64, 127
1, 57827, Note_on_c, 0, 57, 0
1, 57827, Note_on_c, 0, 64, 0
1, 57840, Note_on_c, 0, 64, 96
1, 57840, Control_c, 0, 2, 96
1, 57840, Note_on_c, 0, 64, 0
1, 57840, Note_on_c, 0, 64, 96
1, 57840, Note_on_c, 0, 69, 96
1, 58067, Note_on_c, 0, 64, 0
1, 58067, Note_on_c, 0, 69, 0
1, 58080, Note_on_c, 0, 64, 96
1, 58080, Note_on_c, 0, 64, 0
1, 58080, Note_on_c, 0, 64, 96
1, 58080, Note_on_c, 0, 69, 96
1, 58307, Note_on_c, 0, 64, 0
1, 58307, Note_on_c, 0, 69, 0
1, 58320, Note_on_c, 0, 64, 96
1, 58320, Note_on_c, 0, 64, 0
1, 58320, Note_on_c, 0, 64, 96
1, 58320, Note_on_c, 0, 69, 96
1, 58433, Note_on_c, 0, 69, 0
1, 58440, Note_on_c, 0, 64, 0
1, 58440, Note_on_c, 0, 64, 96
1, 58440, Note_on_c, 0, 72, 96
1, 58560, Note_on_c, 0, 57, 96
1, 58781, Note_on_c, 0, 64, 0
1, 58781, Note_on_c, 0, 72, 0
1, 58787, Note_on_c, 0, 57, 0
1, 58800, Note_on_c, 0, 64, 96
1, 58800, Note_on_c, 0, 64, 0
1, 58800, Note_on_c, 0, 64, 96
1, 58800, Note_on_c, 0, 69, 96
1, 59027, Note_on_c, 0, 64, 0
1, 59027, Note_on_c, 0, 69, 0
1, 59040, Note_on_c, 0, 64, 96
1, 59040, Note_on_c, 0, 64, 0
1, 59040, Note_on_c, 0, 64, 96
1, 59040, Note_on_c, 0, 69, 96
1, 59267, Note_on_c, 0, 64, 0
1, 59267, Note_on_c, 0, 69, 0
1, 59280, Note_on_c, 0, 64, 96
1, 59280, Note_on_c, 0, 64, 0
1, 59280, Note_on_c, 0, 64, 96
1, 59280, Note_on_c, 0, 69, 96
1, 59507, Note_on_c, 0, 64, 0
1, 59507, Note_on_c, 0, 69, 0
1, 59520, Note_on_c, 0, 50, 96
1, 59520, Note_on_c, 0, 57, 96
1, 59520, Note_on_c, 0, 69, 96
1, 59520, Note_on_c, 0, 72, 96
1, 59521, Control_c, 0, 64, 0
1, 59522, Control_c, 0, 64, 127
1, 59747, Note_on_c, 0, 50, 0
1, 59747, Note_on_c, 0, 57, 0
1, 59747, Note_on_c, 0, 69, 0
1, 59747, Note_on_c, 0, 72, 0
1, 59760, Note_on_c, 0, 69, 96
1, 59760, Control_c, 0, 2, 96
1, 59760, Note_on_c, 0, 72, 96
1, 59987, Note_on_c, 0, 69, 0
1, 59987, Note_on_c, 0, 72, 0
1, 60000, Note_on_c, 0, 69, 96
1, 60000, Note_on_c, 0, 72, 96
1, 60240, Note_on_c, 0, 50, 96
1, 60240, Note_on_c, 0, 57, 96
1, 60455, Note_on_c, 0, 69, 0
1, 60455, Note_on_c, 0, 72, 0
1, 60467, Note_on_c, 0, 50, 0
1, 60467, Note_on_c, 0, 57, 0
1, 60480, Note_on_c, 0, 52, 96
1, 60480, Note_on_c, 0, 59, 96
1, 60480, Note_on_c, 0, 64, 96
1, 60480, Note_on_c, 0, 71, 96
1, 60707, Note_on_c, 0, 52, 0
1, 60707, Note_on_c, 0, 59, 0
1, 60707, Note_on_c, 0, 64, 0
1, 60707, Note_on_c, 0, 71, 0
1, 60720, Note_on_c, 0, 64, 96
1, 60720, Note_on_c, 0, 71, 96
1, 60947, Note_on_c, 0, 64, 0
1, 60947, Note_on_c, 0, 71, 0
1, 60960, Note_on_c, 0, 64, 96
1, 60960, Note_on_c, 0, 71, 96
1, 61187, Note_on_c, 0, 64, 0
1, 61187, Note_on_c, 0, 71, 0
1, 61200, Note_on_c, 0, 64, 96
1, 61200, Note_on_c, 0, 72, 96
1, 61427, Note_on_c, 0, 64, 0
1, 61427, Note_on_c, 0, 72, 0
1, 61440, Note_on_c, 0, 57, 96
1, 61440, Note_on_c, 0, 64, 96
1, 61441, Control_c, 0, 64, 0
1, 61442, Control_c, 0, 64, 127
1, 61667, Note_on_c, 0, 57, 0
1, 61667, Note_on_c, 0, 64, 0
1, 61680, Note_on_c, 0, 64, 96
1, 61680, Control_c, 0, 2, 96
1, 61680, Note_on_c, 0, 64, 0
1, 61680, Note_on_c, 0, 64, 96
1, 61680, Note_on_c, 0, 69, 96
1, 61907, Note_on_c, 0, 64, 0
1, 61907, Note_on_c, 0, 69, 0
1, 61920, Note_on_c, 0, 64, 96
1, 61920, Note_on_c, 0, 64, 0
1, 61920, Note_on_c, 0, 64, 96
1, 61920, Note_on_c, 0, 69, 96
1, 62147, Note_on_c, 0, 64, 0
1, 62147, Note_on_c, 0, 69, 0
1, 62160, Note_on_c, 0, 64, 96
1, 62160, Note_on_c, 0, 64, 0
1, 62160, Note_on_c, 0, 64, 96
1, 62160, Note_on_c, 0, 69, 96
1, 62387, Note_on_c, 0, 64, 0
1, 62387, Note_on_c, 0, 69, 0
1, 62400, Note_on_c, 0, 57, 96
1, 62400, Note_on_c, 0, 64, 96
1, 62400, Note_on_c, 0, 64, 0
1, 62400, Note_on_c, 0, 64, 96
1, 62400, Note_on_c, 0, 72, 96
1, 62627, Note_on_c, 0, 57, 0
1, 62627, Note_on_c, 0, 64, 0
1, 62627, Note_on_c, 0, 72, 0
1, 62640, Note_on_c, 0, 64, 96
1, 62640, Note_on_c, 0, 64, 0
1, 62640, Note_on_c, 0, 64, 96
1, 62640, Note_on_c, 0, 69, 96
1, 62867, Note_on_c, 0, 64, 0
1, 62867, Note_on_c, 0, 69, 0
1, 62880, Note_on_c, 0, 64, 96
1, 62880, Note_on_c, 0, 64, 0
1, 62880, Note_on_c, 0, 64, 96
1, 62880, Note_on_c, 0, 69, 96
1, 63107, Note_on_c, 0, 64, 0
1, 63107, Note_on_c, 0, 69, 0
1, 63120, Note_on_c, 0, 64, 96
1, 63120, Note_on_c, 0, 64, 0
1, 63120, Note_on_c, 0, 64, 96
1, 63120, Note_on_c, 0, 67, 96
1, 63347, Note_on_c, 0, 64, 0
1, 63347, Note_on_c, 0, 67, 0
1, 63360, Note_on_c, 0, 53, 96
1, 63360, Note_on_c, 0, 60, 96
1, 63360, Note_on_c, 0, 65, 96
1, 63360, Note_on_c, 0, 72, 96
1, 63361, Control_c, 0, 64, 0
1, 63362, Control_c, 0, 64, 127
1, 63587, Note_on_c, 0, 53, 0
1, 63587, Note_on_c, 0, 60, 0
1, 63587, Note_on_c, 0, 65, 0
1, 63587, Note_on_c, 0, 72, 0
1, 63600, Note_on_c, 0, 60, 96
1, 63600, Control_c, 0, 2, 96
1, 63600, Note_on_c, 0, 65, 96
1, 63600, Note_on_c, 0, 72, 96
1, 63827, Note_on_c, 0, 60, 0
1, 63827, Note_on_c, 0, 65, 0
1, 63827, Note_on_c, 0, 72, 0
1, 63840, Note_on_c, 0, 60, 96
1, 63840, Note_on_c, 0, 65, 96
1, 63840, Note_on_c, 0, 72, 96
1, 64067, Note_on_c, 0, 60, 0
1, 64067, Note_on_c, 0, 65, 0
1, 64067, Note_on_c, 0, 72, 0
1, 64080, Note_on_c, 0, 60, 96
1, 64080, Note_on_c, 0, 65, 96
1, 64080, Note_on_c, 0, 71, 96
1, 64307, Note_on_c, 0, 60, 0
1, 64320, Note_on_c, 0, 55, 96
1, 64320, Note_on_c, 0, 62, 96
1, 64535, Note_on_c, 0, 65, 0
1, 64535, Note_on_c, 0, 71, 0
1, 64547, Note_on_c, 0, 55, 0
1, 64547, Note_on_c, 0, 62, 0
1, 64560, Note_on_c, 0, 62, 96
1, 64560, Note_on_c, 0, 67, 96
1, 64560, Note_on_c, 0, 71, 96
1, 64787, Note_on_c, 0, 62, 0
1, 64787, Note_on_c, 0, 67, 0
1, 64787, Note_on_c, 0, 71, 0
1, 64800, Note_on_c, 0, 55, 96
1, 64800, Note_on_c, 0, 62, 96
1, 65027, Note_on_c, 0, 55, 0
1, 65027, Note_on_c, 0, 62, 0
1, 65040, Note_on_c, 0, 62, 96
1, 65040, Note_on_c, 0, 67, 96
1, 65040, Note_on_c, 0, 71, 96
1, 65153, Note_on_c, 0, 67, 0
1, 65153, Note_on_c, 0, 71, 0
1, 65160, Note_on_c, 0, 67, 96
1, 65160, Note_on_c, 0, 72, 96
1, 65267, Note_on_c, 0, 62, 0
1, 65280, Note_on_c, 0, 57, 96
1, 65281, Control_c, 0, 64, 0
1, 65282, Control_c, 0, 64, 127
1, 65501, Note_on_c, 0, 67, 0
1, 65501, Note_on_c, 0, 72, 0
1, 65507, Note_on_c, 0, 57, 0
1, 65520, Note_on_c, 0, 64, 96
1, 65520, Control_c, 0, 2, 96
1, 65747, Note_on_c, 0, 64, 0
1, 65760, Note_on_c, 0, 64, 96
1, 65760, Note_on_c, 0, 69, 96
1, 65760, Note_on_c, 0, 72, 96
1, 65987, Note_on_c, 0, 64, 0
1, 65987, Note_on_c, 0, 69, 0
1, 65987, Note_on_c, 0, 72, 0
1, 66000, Note_on_c, 0, 64, 96
1, 66000, Note_on_c, 0, 69, 96
1, 66113, Note_on_c, 0, 69, 0
1, 66120, Note_on_c, 0, 64, 0
1, 66120, Note_on_c, 0, 64, 96
1, 66120, Note_on_c, 0, 67, 96
1, 66240, Note_on_c, 0, 57, 96
1, 66240, Note_on_c, 0, 64, 0
1, 66240, Note_on_c, 0, 64, 96
1, 66467, Note_on_c, 0, 57, 0
1, 66480, Note_on_c, 0, 64, 0
1, 66480, Note_on_c, 0, 64, 96
1, 66720, Note_on_c, 0, 64, 0
1, 66720, Note_on_c, 0, 64, 96
1, 66960, Note_on_c, 0, 64, 0
1, 66960, Note_on_c, 0, 64, 96
1, 67145, Note_on_c, 0, 67, 0
1, 67187, Note_on_c, 0, 64, 0
1, 67200, Note_on_c, 0, 50, 96
1, 67200, Note_on_c, 0, 57, 96
1, 67200, Note_on_c, 0, 62, 96
1, 67200, Note_on_c, 0, 69, 96
1, 67201, Control_c, 0, 64, 0
1, 67202, Control_c, 0, 64, 127
1, 67427, Note_on_c, 0, 50, 0
1, 67427, Note_on_c, 0, 57, 0
1, 67427, Note_on_c, 0, 62, 0
1, 67427, Note_on_c, 0, 69, 0
1, 67440, Note_on_c, 0, 62, 96
1, 67440, Control_c, 0, 2, 96
1, 67440, Note_on_c, 0, 69, 96
1, 67667, Note_on_c, 0, 62, 0
1, 67667, Note_on_c, 0, 69, 0
1, 67680, Note_on_c, 0, 62, 96
1, 67680, Note_on_c, 0, 69, 96
1, 67907, Note_on_c, 0, 62, 0
1, 67907, Note_on_c, 0, 69, 0
1, 67920, Note_on_c, 0, 62, 96
1, 67920, Note_on_c, 0, 69, 96
1, 68147, Note_on_c, 0, 62, 0
1, 68147, Note_on_c, 0, 69, 0
1, 68160, Note_on_c, 0, 52, 96
1, 68160, Note_on_c, 0, 59, 96
1, 68160, Note_on_c, 0, 64, 96
1, 68160, Note_on_c, 0, 71, 96
1, 68387, Note_on_c, 0, 52, 0
1, 68387, Note_on_c, 0, 59, 0
1, 68387, Note_on_c, 0, 64, 0
1, 68387, Note_on_c, 0, 71, 0
1, 68400, Note_on_c, 0, 64, 96
1, 68400, Note_on_c, 0, 71, 96
1, 68627, Note_on_c, 0, 64, 0
1, 68627, Note_on_c, 0, 71, 0
1, 68640, Note_on_c, 0, 64, 96
1, 68640, Note_on_c, 0, 71, 96
1, 68867, Note_on_c, 0, 64, 0
1, 68867, Note_on_c, 0, 71, 0
1, 68880, Note_on_c, 0, 64, 96
1, 68880, Note_on_c, 0, 71, 96
1, 69107, Note_on_c, 0, 64, 0
1, 69107, Note_on_c, 0, 71, 0
1, 69120, Control_c, 0, 2, 80
1, 69120, Note_on_c, 0, 57, 80
1, 69120, Note_on_c, 0, 69, 80
1, 69121, Control_c, 0, 64, 0
1, 69122, Control_c, 0, 64, 127
1, 69347, Note_on_c, 0, 69, 0
1, 69360, Note_on_c, 0, 64, 80
1, 69360, Control_c, 0, 2, 80
1, 69587, Note_on_c, 0, 64, 0
1, 69600, Note_on_c, 0, 69, 80
1, 69827, Note_on_c, 0, 69, 0
1, 69840, Note_on_c, 0, 71, 80
1, 70295, Note_on_c, 0, 71, 0
1, 70320, Note_on_c, 0, 72, 80
1, 70775, Note_on_c, 0, 72, 0
1, 70800, Note_on_c, 0, 74, 80
1, 70943, Note_on_c, 0, 57, 0
1, 71040, Note_on_c, 0, 53, 80
1, 71041, Control_c, 0, 64, 0
1, 71042, Control_c, 0, 64, 127
1, 71255, Note_on_c, 0, 74, 0
1, 71280, Note_on_c, 0, 72, 80
1, 71280, Control_c, 0, 2, 80
1, 71735, Note_on_c, 0, 72, 0
1, 71760, Note_on_c, 0, 71, 80
1, 71951, Note_on_c, 0, 53, 0
1, 72000, Note_on_c, 0, 55, 80
1, 72215, Note_on_c, 0, 71, 0
1, 72240, Note_on_c, 0, 62, 80
1, 72467, Note_on_c, 0, 62, 0
1, 72480, Note_on_c, 0, 67, 80
1, 72707, Note_on_c, 0, 67, 0
1, 72720, Note_on_c, 0, 71, 80
1, 72911, Note_on_c, 0, 55, 0
1, 72947, Note_on_c, 0, 71, 0
1, 72960, Note_on_c, 0, 57, 80
1, 72960, Note_on_c, 0, 69, 80
1, 72961, Control_c, 0, 64, 0
1, 72962, Control_c, 0, 64, 127
1, 73187, Note_on_c, 0, 69, 0
1, 73200, Note_on_c, 0, 64, 80
1, 73200, Control_c, 0, 2, 80
1, 73427, Note_on_c, 0, 64, 0
1, 73440, Note_on_c, 0, 69, 80
1, 73667, Note_on_c, 0, 69, 0
1, 73680, Note_on_c, 0, 71, 80
1, 74135, Note_on_c, 0, 71, 0
1, 74160, Note_on_c, 0, 72, 80
1, 74615, Note_on_c, 0, 72, 0
1, 74640, Note_on_c, 0, 79, 80
1, 74783, Note_on_c, 0, 57, 0
1, 74880, Note_on_c, 0, 53, 80
1, 74881, Control_c, 0, 64, 0
1, 74882, Control_c, 0, 64, 127
1, 75095, Note_on_c, 0, 79, 0
1, 75120, Note_on_c, 0, 77, 80
1, 75120, Control_c, 0, 2, 80
1, 75575, Note_on_c, 0, 77, 0
1, 75600, Note_on_c, 0, 76, 80
1, 75791, Note_on_c, 0, 53, 0
1, 75840, Note_on_c, 0, 55, 80
1, 76055, Note_on_c, 0, 76, 0
1, 76080, Note_on_c, 0, 71, 80
1, 76307, Note_on_c, 0, 71, 0
1, 76320, Note_on_c, 0, 74, 80
1, 76547, Note_on_c, 0, 74, 0
1, 76560, Note_on_c, 0, 76, 80
1, 76751, Note_on_c, 0, 55, 0
1, 76787, Note_on_c, 0, 76, 0
1, 76800, Note_on_c, 0, 69, 80
1, 76800, Note_on_c, 0, 72, 80
1, 76800, Note_on_c, 0, 76, 80
1, 76801, Control_c, 0, 64, 0
1, 76802, Control_c, 0, 64, 127
1, 77027, Note_on_c, 0, 72, 0
1, 77027, Note_on_c, 0, 76, 0
1, 77040, Note_on_c, 0, 81, 80
1, 77040, Control_c, 0, 2, 80
1, 77267, Note_on_c, 0, 81, 0
1, 77280, Note_on_c, 0, 81, 80
1, 77507, Note_on_c, 0, 81, 0
1, 77520, Note_on_c, 0, 81, 80
1, 77633, Note_on_c, 0, 81, 0
1, 77640, Note_on_c, 0, 76, 80
1, 77640, Note_on_c, 0, 81, 80
1, 77981, Note_on_c, 0, 76, 0
1, 77981, Note_on_c, 0, 81, 0
1, 78000, Note_on_c, 0, 79, 80
1, 78227, Note_on_c, 0, 79, 0
1, 78240, Note_on_c, 0, 79, 80
1, 78467, Note_on_c, 0, 79, 0
1, 78480, Note_on_c, 0, 79, 80
1, 78593, Note_on_c, 0, 79, 0
1, 78600, Note_on_c, 0, 79, 80
1, 78623, Note_on_c, 0, 69, 0
1, 78720, Note_on_c, 0, 65, 80
1, 78720, Note_on_c, 0, 72, 80
1, 78721, Control_c, 0, 64, 0
1, 78722, Control_c, 0, 64, 127
1, 78941, Note_on_c, 0, 79, 0
1, 78947, Note_on_c, 0, 72, 0
1, 78960, Note_on_c, 0, 79, 80
1, 78960, Control_c, 0, 2, 80
1, 79187, Note_on_c, 0, 79, 0
1, 79200, Note_on_c, 0, 79, 80
1, 79427, Note_on_c, 0, 79, 0
1, 79440, Note_on_c, 0, 79, 80
1, 79631, Note_on_c, 0, 65, 0
1, 79667, Note_on_c, 0, 79, 0
1, 79680, Note_on_c, 0, 67, 80
1, 79680, Note_on_c, 0, 74, 80
1, 79680, Note_on_c, 0, 79, 80
1, 79793, Note_on_c, 0, 74, 0
1, 79793, Note_on_c, 0, 79, 0
1, 79800, Note_on_c, 0, 79, 80
1, 80027, Note_on_c, 0, 79, 0
1, 80040, Note_on_c, 0, 79, 80
1, 80267, Note_on_c, 0, 79, 0
1, 80280, Note_on_c, 0, 79, 80
1, 80507, Note_on_c, 0, 79, 0
1, 80520, Note_on_c, 0, 79, 80
1, 80591, Note_on_c, 0, 67, 0
1, 80633, Note_on_c, 0, 79, 0
1, 80640, Note_on_c, 0, 69, 80
1, 80640, Note_on_c, 0, 72, 80
1, 80640, Note_on_c, 0, 76, 80
1, 80641, Control_c, 0, 64, 0
1, 80642, Control_c, 0, 64, 127
1, 80867, Note_on_c, 0, 72, 0
1, 80867, Note_on_c, 0, 76, 0
1, 80880, Note_on_c, 0, 76, 80
1, 80880, Control_c, 0, 2, 80
1, 81107, Note_on_c, 0, 76, 0
1, 81120, Note_on_c, 0, 76, 80
1, 81347, Note_on_c, 0, 76, 0
1, 81360, Note_on_c, 0, 76, 80
1, 81587, Note_on_c, 0, 76, 0
1, 81600, Note_on_c, 0, 79, 80
1, 81713, Note_on_c, 0, 79, 0
1, 81720, Note_on_c, 0, 79, 80
1, 81833, Note_on_c, 0, 79, 0
1, 81960, Note_on_c, 0, 79, 80
1, 82301, Note_on_c, 0, 79, 0
1, 82320, Note_on_c, 0, 79, 80
1, 82433, Note_on_c, 0, 79, 0
1, 82440, Note_on_c, 0, 81, 80
1, 82463, Note_on_c, 0, 69, 0
1, 82560, Note_on_c, 0, 65, 80
1, 82560, Note_on_c, 0, 72, 80
1, 82561, Control_c, 0, 64, 0
1, 82562, Control_c, 0, 64, 127
1, 82781, Note_on_c, 0, 81, 0
1, 82787, Note_on_c, 0, 72, 0
1, 82800, Note_on_c, 0, 79, 80
1, 82800, Control_c, 0, 2, 80
1, 83027, Note_on_c, 0, 79, 0
1, 83040, Note_on_c, 0, 79, 80
1, 83267, Note_on_c, 0, 79, 0
1, 83280, Note_on_c, 0, 79, 80
1, 83471, Note_on_c, 0, 65, 0
1, 83507, Note_on_c, 0, 79, 0
1, 83520, Note_on_c, 0, 67, 80
1, 83520, Note_on_c, 0, 74, 80
1, 83520, Note_on_c, 0, 79, 80
1, 83633, Note_on_c, 0, 74, 0
1, 83633, Note_on_c, 0, 79, 0
1, 83640, Note_on_c, 0, 79, 80
1, 83867, Note_on_c, 0, 79, 0
1, 83880, Note_on_c, 0, 81, 80
1, 84221, Note_on_c, 0, 81, 0
1, 84431, Note_on_c, 0, 67, 0
1, 84480, Note_on_c, 0, 69, 80
1, 84480, Note_on_c, 0, 72, 80
1, 84480, Note_on_c, 0, 76, 80
1, 84481, Control_c, 0, 64, 0
1, 84482, Control_c, 0, 64, 127
1, 84707, Note_on_c, 0, 72, 0
1, 84707, Note_on_c, 0, 76, 0
1, 84720, Note_on_c, 0, 81, 80
1, 84720, Control_c, 0, 2, 80
1, 84947, Note_on_c, 0, 81, 0
1, 84960, Note_on_c, 0, 81, 80
1, 85073, Note_on_c, 0, 81, 0
1, 85080, Note_on_c, 0, 81, 80
1, 85307, Note_on_c, 0, 81, 0
1, 85320, Note_on_c, 0, 76, 80
1, 85320, Note_on_c, 0, 81, 80
1, 85661, Note_on_c, 0, 76, 0
1, 85661, Note_on_c, 0, 81, 0
1, 85680, Note_on_c, 0, 79, 80
1, 85907, Note_on_c, 0, 79, 0
1, 85920, Note_on_c, 0, 79, 80
1, 86033, Note_on_c, 0, 79, 0
1, 86040, Note_on_c, 0, 79, 80
1, 86267, Note_on_c, 0, 79, 0
1, 86280, Note_on_c, 0, 79, 80
1, 86303, Note_on_c, 0, 69, 0
1, 86400, Note_on_c, 0, 65, 80
1, 86401, Control_c, 0, 64, 0
1, 86402, Control_c, 0, 64, 127
1, 86621, Note_on_c, 0, 79, 0
1, 86640, Note_on_c, 0, 79, 80
1, 86640, Control_c, 0, 2, 80
1, 86867, Note_on_c, 0, 79, 0
1, 86880, Note_on_c, 0, 79, 80
1, 86993, Note_on_c, 0, 79, 0
1, 87000, Note_on_c, 0, 79, 80
1, 87227, Note_on_c, 0, 79, 0
1, 87240, Note_on_c, 0, 74, 80
1, 87240, Note_on_c, 0, 79, 80
1, 87311, Note_on_c, 0, 65, 0
1, 87360, Note_on_c, 0, 67, 80
1, 87581, Note_on_c, 0, 74, 0
1, 87581, Note_on_c, 0, 79, 0
1, 87600, Note_on_c, 0, 79, 80
1, 87827, Note_on_c, 0, 79, 0
1, 87840, Note_on_c, 0, 79, 80
1, 87953, Note_on_c, 0, 79, 0
1, 87960, Note_on_c, 0, 79, 80
1, 88187, Note_on_c, 0, 79, 0
1, 88200, Note_on_c, 0, 76, 80
1, 88271, Note_on_c, 0, 67, 0
1, 88320, Note_on_c, 0, 57, 80
1, 88321, Control_c, 0, 64, 0
1, 88322, Control_c, 0, 64, 127
1, 88427, Note_on_c, 0, 76, 0
1, 88560, Note_on_c, 0, 76, 80
1, 88560, Control_c, 0, 2, 80
1, 88787, Note_on_c, 0, 76, 0
1, 88800, Note_on_c, 0, 76, 80
1, 89027, Note_on_c, 0, 76, 0
1, 89040, Note_on_c, 0, 76, 80
1, 89153, Note_on_c, 0, 76, 0
1, 89160, Note_on_c, 0, 76, 80
1, 89501, Note_on_c, 0, 76, 0
1, 89520, Note_on_c, 0, 76, 80
1, 89747, Note_on_c, 0, 76, 0
1, 89760, Note_on_c, 0, 76, 80
1, 89987, Note_on_c, 0, 76, 0
1, 90000, Note_on_c, 0, 76, 80
1, 90143, Note_on_c, 0, 57, 0
1, 90227, Note_on_c, 0, 76, 0
1, 90240, Note_on_c, 0, 65, 80
1, 90240, Note_on_c, 0, 77, 80
1, 90240, Note_on_c, 0, 81, 80
1, 90240, Note_on_c, 0, 84, 80
1, 90241, Control_c, 0, 64, 0
1, 90242, Control_c, 0, 64, 127
1, 90353, Note_on_c, 0, 77, 0
1, 90353, Note_on_c, 0, 81, 0
1, 90353, Note_on_c, 0, 84, 0
1, 90360, Control_c, 0, 2, 81
1, 90360, Note_on_c, 0, 84, 81
1, 90480, Control_c, 0, 2, 82
1, 90600, Control_c, 0, 2, 83
1, 90701, Note_on_c, 0, 84, 0
1, 90720, Control_c, 0, 2, 84
1, 90720, Note_on_c, 0, 84, 84
1, 90833, Note_on_c, 0, 84, 0
1, 90840, Control_c, 0, 2, 85
1, 90840, Note_on_c, 0, 84, 85
1, 90960, Control_c, 0, 2, 86
1, 91067, Note_on_c, 0, 84, 0
1, 91080, Control_c, 0, 2, 87
1, 91080, Note_on_c, 0, 84, 87
1, 91151, Note_on_c, 0, 65, 0
1, 91193, Note_on_c, 0, 84, 0
1, 91200, Control_c, 0, 2, 88
1, 91200, Note_on_c, 0, 67, 88
1, 91200, Note_on_c, 0, 74, 88
1, 91200, Note_on_c, 0, 79, 88
1, 91200, Note_on_c, 0, 83, 88
1, 91320, Control_c, 0, 2, 89
1, 91440, Control_c, 0, 2, 90
1, 91560, Control_c, 0, 2, 91
1, 91655, Note_on_c, 0, 74, 0
1, 91655, Note_on_c, 0, 79, 0
1, 91655, Note_on_c, 0, 83, 0
1, 91680, Control_c, 0, 2, 92
1, 91800, Control_c, 0, 2, 93
1, 91920, Control_c, 0, 2, 94
1, 92040, Control_c, 0, 2, 95
1, 92111, Note_on_c, 0, 67, 0
1, 92160, Control_c, 0, 2, 96
1, 92160, Note_on_c, 0, 57, 96
1, 92160, Note_on_c, 0, 64, 96
1, 92160, Note_on_c, 0, 64, 0
1, 92160, Note_on_c, 0, 64, 96
1, 92161, Control_c, 0, 64, 0
1, 92162, Control_c, 0, 64, 127
1, 92387, Note_on_c, 0, 57, 0
1, 92387, Note_on_c, 0, 64, 0
1, 92400, Note_on_c, 0, 64, 96
1, 92400, Control_c, 0, 2, 96
1, 92400, Note_on_c, 0, 64, 0
1, 92400, Note_on_c, 0, 64, 96
1, 92400, Note_on_c, 0, 69, 96
1, 92627, Note_on_c, 0, 64, 0
1, 92627, Note_on_c, 0, 69, 0
1, 92640, Note_on_c, 0, 64, 96
1, 92640, Note_on_c, 0, 64, 0
1, 92640, Note_on_c, 0, 64, 96
1, 92640, Note_on_c, 0, 69, 96
1, 92867, Note_on_c, 0, 64, 0
1, 92867, Note_on_c, 0, 69, 0
1, 92880, Note_on_c, 0, 64, 96
1, 92880, Note_on_c, 0, 64, 0
1, 92880, Note_on_c, 0, 64, 96
1, 92880, Note_on_c, 0, 69, 96
1, 93107, Note_on_c, 0, 64, 0
1, 93107, Note_on_c, 0, 69, 0
1, 93120, Note_on_c, 0, 57, 96
1, 93120, Note_on_c, 0, 64, 96
1, 93120, Note_on_c, 0, 64, 0
1, 93120, Note_on_c, 0, 64, 96
1, 93120, Note_on_c, 0, 72, 96
1, 93347, Note_on_c, 0, 57, 0
1, 93347, Note_on_c, 0, 64, 0
1, 93347, Note_on_c, 0, 72, 0
1, 93360, Note_on_c, 0, 64, 96
1, 93360, Note_on_c, 0, 64, 0
1, 93360, Note_on_c, 0, 64, 96
1, 93360, Note_on_c, 0, 69, 96
1, 93587, Note_on_c, 0, 64, 0
1, 93587, Note_on_c, 0, 69, 0
1, 93600, Note_on_c, 0, 64, 96
1, 93600, Note_on_c, 0, 64, 0
1, 93600, Note_on_c, 0, 64, 96
1, 93600, Note_on_c, 0, 69, 96
1, 93827, Note_on_c, 0, 64, 0
1, 93827, Note_on_c, 0, 69, 0
1, 93840, Note_on_c, 0, 64, 96
1, 93840, Note_on_c, 0, 64, 0
1, 93840, Note_on_c, 0, 64, 96
1, 93840, Note_on_c, 0, 69, 96
1, 94067, Note_on_c, 0, 64, 0
1, 94067, Note_on_c, 0, 69, 0
1, 94080, Note_on_c, 0, 53, 96
1, 94080, Note_on_c, 0, 60, 96
1, 94080, Note_on_c, 0, 65, 96
1, 94080, Note_on_c, 0, 72, 96
1, 94081, Control_c, 0, 64, 0
1, 94082, Control_c, 0, 64, 127
1, 94307, Note_on_c, 0, 53, 0
1, 94307, Note_on_c, 0, 60, 0
1, 94307, Note_on_c, 0, 65, 0
1, 94307, Note_on_c, 0, 72, 0
1, 94320, Note_on_c, 0, 60, 96
1, 94320, Control_c, 0, 2, 96
1, 94320, Note_on_c, 0, 65, 96
1, 94320, Note_on_c, 0, 72, 96
1, 94547, Note_on_c, 0, 60, 0
1, 94547, Note_on_c, 0, 65, 0
1, 94547, Note_on_c, 0, 72, 0
1, 94560, Note_on_c, 0, 60, 96
1, 94560, Note_on_c, 0, 65, 96
1, 94560, Note_on_c, 0, 72, 96
1, 94787, Note_on_c, 0, 60, 0
1, 94787, Note_on_c, 0, 65, 0
1, 94787, Note_on_c, 0, 72, 0
1, 94800, Note_on_c, 0, 60, 96
1, 94800, Note_on_c, 0, 65, 96
1, 94800, Note_on_c, 0, 72, 96
1, 95027, Note_on_c, 0, 60, 0
1, 95027, Note_on_c, 0, 65, 0
1, 95027, Note_on_c, 0, 72, 0
1, 95040, Note_on_c, 0, 55, 96
1, 95040, Note_on_c, 0, 62, 96
1, 95040, Note_on_c, 0, 67, 96
1, 95040, Note_on_c, 0, 71, 96
1, 95267, Note_on_c, 0, 55, 0
1, 95267, Note_on_c, 0, 62, 0
1, 95267, Note_on_c, 0, 67, 0
1, 95267, Note_on_c, 0, 71, 0
1, 95280, Note_on_c, 0, 62, 96
1, 95280, Note_on_c, 0, 67, 96
1, 95280, Note_on_c, 0, 71, 96
1, 95393, Note_on_c, 0, 67, 0
1, 95393, Note_on_c, 0, 71, 0
1, 95400, Note_on_c, 0, 67, 96
1, 95400, Note_on_c, 0, 72, 96
1, 95507, Note_on_c, 0, 62, 0
1, 95520, Note_on_c, 0, 55, 96
1, 95747, Note_on_c, 0, 55, 0
1, 95760, Note_on_c, 0, 55, 96
1, 95760, Note_on_c, 0, 62, 96
1, 95969, Note_on_c, 0, 67, 0
1, 95969, Note_on_c, 0, 72, 0
1, 95987, Note_on_c, 0, 55, 0
1, 95987, Note_on_c, 0, 62, 0
1, 96000, Note_on_c, 0, 57, 96
1, 96000, Note_on_c, 0, 64, 96
1, 96000, Note_on_c, 0, 64, 0
1, 96000, Note_on_c, 0, 64, 96
1, 96001, Control_c, 0, 64, 0
1, 96002, Control_c, 0, 64, 127
1, 96227, Note_on_c, 0, 57, 0
1, 96227, Note_on_c, 0, 64, 0
1, 96240, Note_on_c, 0, 64, 96
1, 96240, Control_c, 0, 2, 96
1, 96240, Note_on_c, 0, 64, 0
1, 96240, Note_on_c, 0, 64, 96
1, 96240, Note_on_c, 0, 69, 96
1, 96467, Note_on_c, 0, 64, 0
1, 96467, Note_on_c, 0, 69, 0
1, 96480, Note_on_c, 0, 64, 96
1, 96480, Note_on_c, 0, 64, 0
1, 96480, Note_on_c, 0, 64, 96
1, 96480, Note_on_c, 0, 69, 96
1, 96707, Note_on_c, 0, 64, 0
1, 96707, Note_on_c, 0, 69, 0
1, 96720, Note_on_c, 0, 64, 96
1, 96720, Note_on_c, 0, 64, 0
1, 96720, Note_on_c, 0, 64, 96
1, 96720, Note_on_c, 0, 69, 96
1, 96833, Note_on_c, 0, 69, 0
1, 96840, Note_on_c, 0, 64, 0
1, 96840, Note_on_c, 0, 64, 96
1, 96840, Note_on_c, 0, 72, 96
1, 96960, Note_on_c, 0, 57, 96
1, 97181, Note_on_c, 0, 64, 0
1, 97181, Note_on_c, 0, 72, 0
1, 97187, Note_on_c, 0, 57, 0
1, 97200, Note_on_c, 0, 64, 96
1, 97200, Note_on_c, 0, 64, 0
1, 97200, Note_on_c, 0, 64, 96
1, 97200, Note_on_c, 0, 69, 96
1, 97427, Note_on_c, 0, 64, 0
1, 97427, Note_on_c, 0, 69, 0
1, 97440, Note_on_c, 0, 64, 96
1, 97440, Note_on_c, 0, 64, 0
1, 97440, Note_on_c, 0, 64, 96
1, 97440, Note_on_c, 0, 69, 96
1, 97667, Note_on_c, 0, 64, 0
1, 97667, Note_on_c, 0, 69, 0
1, 97680, Note_on_c, 0, 64, 96
1, 97680, Note_on_c, 0, 64, 0
1, 97680, Note_on_c, 0, 64, 96
1, 97680, Note_on_c, 0, 69, 96
1, 97907, Note_on_c, 0, 64, 0
1, 97907, Note_on_c, 0, 69, 0
1, 97920, Note_on_c, 0, 50, 96
1, 97920, Note_on_c, 0, 57, 96
1, 97920, Note_on_c, 0, 69, 96
1, 97920, Note_on_c, 0, 72, 96
1, 97921, Control_c, 0, 64, 0
1, 97922, Control_c, 0, 64, 127
1, 98147, Note_on_c, 0, 50, 0
1, 98147, Note_on_c, 0, 57, 0
1, 98147, Note_on_c, 0, 69, 0
1, 98147, Note_on_c, 0, 72, 0
1, 98160, Note_on_c, 0, 69, 96
1, 98160, Control_c, 0, 2, 96
1, 98160, Note_on_c, 0, 72, 96
1, 98387, Note_on_c, 0, 69, 0
1, 98387, Note_on_c, 0, 72, 0
1, 98400, Note_on_c, 0, 69, 96
1, 98400, Note_on_c, 0, 72, 96
1, 98640, Note_on_c, 0, 50, 96
1, 98640, Note_on_c, 0, 57, 96
1, 98855, Note_on_c, 0, 69, 0
1, 98855, Note_on_c, 0, 72, 0
1, 98867, Note_on_c, 0, 50, 0
1, 98867, Note_on_c, 0, 57, 0
1, 98880, Note_on_c, 0, 52, 96
1, 98880, Note_on_c, 0, 59, 96
1, 98880, Note_on_c, 0, 64, 96
1, 98880, Note_on_c, 0, 71, 96
1, 99107, Note_on_c, 0, 52, 0
1, 99107, Note_on_c, 0, 59, 0
1, 99107, Note_on_c, 0, 64, 0
1, 99107, Note_on_c, 0, 71, 0
1, 99120, Note_on_c, 0, 64, 96
1, 99120, Note_on_c, 0, 71, 96
1, 99347, Note_on_c, 0, 64, 0
1, 99347, Note_on_c, 0, 71, 0
1, 99360, Note_on_c, 0, 64, 96
1, 99360, Note_on_c, 0, 71, 96
1, 99587, Note_on_c, 0, 64, 0
1, 99587, Note_on_c, 0, 71, 0
1, 99600, Note_on_c, 0, 64, 96
1, 99600, Note_on_c, 0, 72, 96
1, 99827, Note_on_c, 0, 64, 0
1, 99827, Note_on_c, 0, 72, 0
1, 99840, Note_on_c, 0, 57, 96
1, 99840, Note_on_c, 0, 64, 96
1, 99841, Control_c, 0, 64, 0
1, 99842, Control_c, 0, 64, 127
1, 100067, Note_on_c, 0, 57, 0
1, 100067, Note_on_c, 0, 64, 0
1, 100080, Note_on_c, 0, 64, 96
1, 100080, Control_c, 0, 2, 96
1, 100080, Note_on_c, 0, 64, 0
1, 100080, Note_on_c, 0, 64, 96
1, 100080, Note_on_c, 0, 69, 96
1, 100307, Note_on_c, 0, 64, 0
1, 100307, Note_on_c, 0, 69, 0
1, 100320, Note_on_c, 0, 64, 96
1, 100320, Note_on_c, 0, 64, 0
1, 100320, Note_on_c, 0, 64, 96
1, 100320, Note_on_c, 0, 69, 96
1, 100547, Note_on_c, 0, 64, 0
1, 100547, Note_on_c, 0, 69, 0
1, 100560, Note_on_c, 0, 64, 96
1, 100560, Note_on_c, 0, 64, 0
1, 100560, Note_on_c, 0, 64, 96
1, 100560, Note_on_c, 0, 69, 96
1, 100787, Note_on_c, 0, 64, 0
1, 100787, Note_on_c, 0, 69, 0
1, 100800, Note_on_c, 0, 57, 96
1, 100800, Note_on_c, 0, 64, 96
1, 100800, Note_on_c, 0, 64, 0
1, 100800, Note_on_c, 0, 64, 96
1, 100800, Note_on_c, 0, 72, 96
1, 101027, Note_on_c, 0, 57, 0
1, 101027, Note_on_c, 0, 64, 0
1, 101027, Note_on_c, 0, 72, 0
1, 101040, Note_on_c, 0, 64, 96
1, 101040, Note_on_c, 0, 64, 0
1, 101040, Note_on_c, 0, 64, 96
1, 101040, Note_on_c, 0, 69, 96
1, 101267, Note_on_c, 0, 64, 0
1, 101267, Note_on_c, 0, 69, 0
1, 101280, Note_on_c, 0, 64, 96
1, 101280, Note_on_c, 0, 64, 0
1, 101280, Note_on_c, 0, 64, 96
1, 101280, Note_on_c, 0, 69, 96
1, 101507, Note_on_c, 0, 64, 0
1, 101507, Note_on_c, 0, 69, 0
1, 101520, Note_on_c, 0, 64, 96
1, 101520, Note_on_c, 0, 64, 0
1, 101520, Note_on_c, 0, 64, 96
1, 101520, Note_on_c, 0, 67, 96
1, 101747, Note_on_c, 0, 64, 0
1, 101747, Note_on_c, 0, 67, 0
1, 101760, Note_on_c, 0, 53, 96
1, 101760, Note_on_c, 0, 60, 96
1, 101760, Note_on_c, 0, 65, 96
1, 101760, Note_on_c, 0, 72, 96
1, 101761, Control_c, 0, 64, 0
1, 101762, Control_c, 0, 64, 127
1, 101987, Note_on_c, 0, 53, 0
1, 101987, Note_on_c, 0, 60, 0
1, 101987, Note_on_c, 0, 65, 0
1, 101987, Note_on_c, 0, 72, 0
1, 102000, Note_on_c, 0, 60, 96
1, 102000, Control_c, 0, 2, 96
1, 102000, Note_on_c, 0, 65, 96
1, 102000, Note_on_c, 0, 72, 96
1, 102227, Note_on_c, 0, 60, 0
1, 102227, Note_on_c, 0, 65, 0
1, 102227, Note_on_c, 0, 72, 0
1, 102240, Note_on_c, 0, 60, 96
1, 102240, Note_on_c, 0, 65, 96
1, 102240, Note_on_c, 0, 72, 96
1, 102467, Note_on_c, 0, 60, 0
1, 102467, Note_on_c, 0, 65, 0
1, 102467, Note_on_c, 0, 72, 0
1, 102480, Note_on_c, 0, 60, 96
1, 102480, Note_on_c, 0, 65, 96
1, 102480, Note_on_c, 0, 71, 96
1, 102707, Note_on_c, 0, 60, 0
1, 102720, Note_on_c, 0, 55, 96
1, 102720, Note_on_c, 0, 62, 96
1, 102935, Note_on_c, 0, 65, 0
1, 102935, Note_on_c, 0, 71, 0
1, 102947, Note_on_c, 0, 55, 0
1, 102947, Note_on_c, 0, 62, 0
1, 102960, Note_on_c, 0, 62, 96
1, 102960, Note_on_c, 0, 67, 96
1, 102960, Note_on_c, 0, 71, 96
1, 103187, Note_on_c, 0, 62, 0
1, 103187, Note_on_c, 0, 67, 0
1, 103187, Note_on_c, 0, 71, 0
1, 103200, Note_on_c, 0, 55, 96
1, 103200, Note_on_c, 0, 62, 96
1, 103427, Note_on_c, 0, 55, 0
1, 103427, Note_on_c, 0, 62, 0
1, 103440, Note_on_c, 0, 62, 96
1, 103440, Note_on_c, 0, 67, 96
1, 103440, Note_on_c, 0, 71, 96
1, 103553, Note_on_c, 0, 67, 0
1, 103553, Note_on_c, 0, 71, 0
1, 103560, Note_on_c, 0, 67, 96
1, 103560, Note_on_c, 0, 72, 96
1, 103667, Note_on_c, 0, 62, 0
1, 103680, Note_on_c, 0, 57, 96
1, 103681, Control_c, 0, 64, 0
1, 103682, Control_c, 0, 64, 127
1, 103901, Note_on_c, 0, 67, 0
1, 103901, Note_on_c, 0, 72, 0
1, 103907, Note_on_c, 0, 57, 0
1, 103920, Note_on_c, 0, 64, 96
1, 103920, Control_c, 0, 2, 96
1, 104147, Note_on_c, 0, 64, 0
1, 104160, Note_on_c, 0, 64, 96
1, 104160, Note_on_c, 0, 69, 96
1, 104160, Note_on_c, 0, 72, 96
1, 104387, Note_on_c, 0, 64, 0
1, 104387, Note_on_c, 0, 69, 0
1, 104387, Note_on_c, 0, 72, 0
1, 104400, Note_on_c, 0, 64, 96
1, 104400, Note_on_c, 0, 69, 96
1, 104513, Note_on_c, 0, 69, 0
1, 104520, Note_on_c, 0, 64, 0
1, 104520, Note_on_c, 0, 64, 96
1, 104520, Note_on_c, 0, 67, 96
1, 104640, Note_on_c, 0, 57, 96
1, 104640, Note_on_c, 0, 64, 0
1, 104640, Note_on_c, 0, 64, 96
1, 104867, Note_on_c, 0, 57, 0
1, 104880, Note_on_c, 0, 64, 0
1, 104880, Note_on_c, 0, 64, 96
1, 105120, Note_on_c, 0, 64, 0
1, 105120, Note_on_c, 0, 64, 96
1, 105360, Note_on_c, 0, 64, 0
1, 105360, Note_on_c, 0, 64, 96
1, 105545, Note_on_c, 0, 67, 0
1, 105587, Note_on_c, 0, 64, 0
1, 105600, Note_on_c, 0, 50, 96
1, 105600, Note_on_c, 0, 57, 96
1, 105600, Note_on_c, 0, 62, 96
1, 105600, Note_on_c, 0, 69, 96
1, 105601, Control_c, 0, 64, 0
1, 105602, Control_c, 0, 64, 127
1, 105827, Note_on_c, 0, 62, 0
1, 105827, Note_on_c, 0, 69, 0
1, 105840, Note_on_c, 0, 62, 96
1, 105840, Control_c, 0, 2, 96
1, 105840, Note_on_c, 0, 69, 96
1, 106067, Note_on_c, 0, 62, 0
1, 106067, Note_on_c, 0, 69, 0
1, 106080, Note_on_c, 0, 62, 96
1, 106080, Note_on_c, 0, 69, 96
1, 106307, Note_on_c, 0, 62, 0
1, 106307, Note_on_c, 0, 69, 0
1, 106320, Note_on_c, 0, 62, 96
1, 106320, Note_on_c, 0, 69, 96
1, 106511, Note_on_c, 0, 50, 0
1, 106511, Note_on_c, 0, 57, 0
1, 106547, Note_on_c, 0, 62, 0
1, 106547, Note_on_c, 0, 69, 0
1, 106560, Note_on_c, 0, 52, 96
1, 106560, Note_on_c, 0, 59, 96
1, 106560, Note_on_c, 0, 64, 96
1, 106560, Note_on_c, 0, 71, 96
1, 106787, Note_on_c, 0, 64, 0
1, 106787, Note_on_c, 0, 71, 0
1, 106800, Note_on_c, 0, 64, 96
1, 106800, Note_on_c, 0, 71, 96
1, 107027, Note_on_c, 0, 64, 0
1, 107027, Note_on_c, 0, 71, 0
1, 107040, Note_on_c, 0, 64, 96
1, 107040, Note_on_c, 0, 71, 96
1, 107267, Note_on_c, 0, 64, 0
1, 107267, Note_on_c, 0, 71, 0
1, 107280, Note_on_c, 0, 64, 96
1, 107280, Note_on_c, 0, 71, 96
1, 107471, Note_on_c, 0, 52, 0
1, 107471, Note_on_c, 0, 59, 0
1, 107507, Note_on_c, 0, 64, 0
1, 107507, Note_on_c, 0, 71, 0
1, 107520, Note_on_c, 0, 57, 96
1, 107520, Note_on_c, 0, 69, 96
1, 107521, Control_c, 0, 64, 0
1, 107522, Control_c, 0, 64, 127
1, 107747, Note_on_c, 0, 57, 0
1, 107760, Note_on_c, 0, 57, 96
1, 107760, Control_c, 0, 2, 96
1, 107861, Note_on_c, 0, 69, 0
1, 107880, Note_on_c, 0, 71, 96
1, 107987, Note_on_c, 0, 57, 0
1, 108000, Note_on_c, 0, 57, 96
1, 108221, Note_on_c, 0, 71, 0
1, 108227, Note_on_c, 0, 57, 0
1, 108240, Note_on_c, 0, 57, 96
1, 108240, Note_on_c, 0, 72, 96
1, 108467, Note_on_c, 0, 57, 0
1, 108480, Note_on_c, 0, 57, 96
1, 108695, Note_on_c, 0, 72, 0
1, 108707, Note_on_c, 0, 57, 0
1, 108720, Note_on_c, 0, 57, 96
1, 108720, Note_on_c, 0, 71, 96
1, 108947, Note_on_c, 0, 57, 0
1, 108947, Note_on_c, 0, 71, 0
1, 108960, Note_on_c, 0, 57, 96
1, 108960, Note_on_c, 0, 72, 96
1, 109187, Note_on_c, 0, 57, 0
1, 109187, Note_on_c, 0, 72, 0
1, 109200, Note_on_c, 0, 57, 96
1, 109200, Note_on_c, 0, 71, 96
1, 109427, Note_on_c, 0, 57, 0
1, 109427, Note_on_c, 0, 71, 0
1, 109440, Note_on_c, 0, 69, 96
1, 109440, Note_on_c, 0, 74, 96
1, 109441, Control_c, 0, 64, 0
1, 109442, Control_c, 0, 64, 127
1, 109680, Note_on_c, 0, 53, 96
1, 109680, Control_c, 0, 2, 96
1, 109781, Note_on_c, 0, 69, 0
1, 109781, Note_on_c, 0, 74, 0
1, 109800, Note_on_c, 0, 72, 96
1, 109907, Note_on_c, 0, 53, 0
1, 109920, Note_on_c, 0, 53, 96
1, 110141, Note_on_c, 0, 72, 0
1, 110147, Note_on_c, 0, 53, 0
1, 110160, Note_on_c, 0, 53, 96
1, 110160, Note_on_c, 0, 71, 96
1, 110387, Note_on_c, 0, 53, 0
1, 110400, Note_on_c, 0, 55, 96
1, 110615, Note_on_c, 0, 71, 0
1, 110627, Note_on_c, 0, 55, 0
1, 110640, Note_on_c, 0, 55, 96
1, 110640, Note_on_c, 0, 72, 96
1, 110867, Note_on_c, 0, 55, 0
1, 110867, Note_on_c, 0, 72, 0
1, 110880, Note_on_c, 0, 55, 96
1, 110880, Note_on_c, 0, 71, 96
1, 111107, Note_on_c, 0, 55, 0
1, 111107, Note_on_c, 0, 71, 0
1, 111120, Note_on_c, 0, 55, 96
1, 111120, Note_on_c, 0, 67, 96
1, 111347, Note_on_c, 0, 55, 0
1, 111347, Note_on_c, 0, 67, 0
1, 111360, Note_on_c, 0, 57, 96
1, 111360, Note_on_c, 0, 69, 96
1, 111361, Control_c, 0, 64, 0
1, 111362, Control_c, 0, 64, 127
1, 111587, Note_on_c, 0, 57, 0
1, 111600, Note_on_c, 0, 57, 96
1, 111600, Control_c, 0, 2, 96
1, 111701, Note_on_c, 0, 69, 0
1, 111720, Note_on_c, 0, 67, 96
1, 111827, Note_on_c, 0, 57, 0
1, 111840, Note_on_c, 0, 57, 96
1, 112061, Note_on_c, 0, 67, 0
1, 112067, Note_on_c, 0, 57, 0
1, 112080, Note_on_c, 0, 57, 96
1, 112080, Note_on_c, 0, 69, 96
1, 112307, Note_on_c, 0, 57, 0
1, 112320, Note_on_c, 0, 57, 96
1, 112535, Note_on_c, 0, 69, 0
1, 112547, Note_on_c, 0, 57, 0
1, 112560, Note_on_c, 0, 57, 96
1, 112560, Note_on_c, 0, 67, 96
1, 112787, Note_on_c, 0, 57, 0
1, 112787, Note_on_c, 0, 67, 0
1, 112800, Note_on_c, 0, 57, 96
1, 112800, Note_on_c, 0, 69, 96
1, 113027, Note_on_c, 0, 57, 0
1, 113027, Note_on_c, 0, 69, 0
1, 113040, Note_on_c, 0, 57, 96
1, 113040, Note_on_c, 0, 67, 96
1, 113267, Note_on_c, 0, 57, 0
1, 113267, Note_on_c, 0, 67, 0
1, 113280, Note_on_c, 0, 62, 96
1, 113280, Note_on_c, 0, 74, 96
1, 113281, Control_c, 0, 64, 0
1, 113282, Control_c, 0, 64, 127
1, 113507, Note_on_c, 0, 62, 0
1, 113507, Note_on_c, 0, 74, 0
1, 113520, Note_on_c, 0, 62, 96
1, 113520, Control_c, 0, 2, 96
1, 113520, Note_on_c, 0, 77, 96
1, 113747, Note_on_c, 0, 62, 0
1, 113760, Note_on_c, 0, 62, 96
1, 113975, Note_on_c, 0, 77, 0
1, 113987, Note_on_c, 0, 62, 0
1, 114000, Note_on_c, 0, 62, 96
1, 114000, Note_on_c, 0, 76, 96
1, 114227, Note_on_c, 0, 62, 0
1, 114240, Note_on_c, 0, 64, 96
1, 114455, Note_on_c, 0, 76, 0
1, 114467, Note_on_c, 0, 64, 0
1, 114480, Note_on_c, 0, 64, 96
1, 114480, Note_on_c, 0, 71, 96
1, 114707, Note_on_c, 0, 64, 0
1, 114707, Note_on_c, 0, 71, 0
1, 114720, Note_on_c, 0, 64, 96
1, 114720, Note_on_c, 0, 74, 96
1, 114947, Note_on_c, 0, 64, 0
1, 114947, Note_on_c, 0, 74, 0
1, 114960, Note_on_c, 0, 64, 96
1, 114960, Note_on_c, 0, 76, 96
1, 115187, Note_on_c, 0, 64, 0
1, 115187, Note_on_c, 0, 76, 0
1, 115200, Note_on_c, 0, 69, 96
1, 115201, Control_c, 0, 64, 0
1, 115202, Control_c, 0, 64, 127
1, 115440, Note_on_c, 0, 57, 96
1, 115440, Control_c, 0, 2, 96
1, 115541, Note_on_c, 0, 69, 0
1, 115560, Note_on_c, 0, 71, 96
1, 115667, Note_on_c, 0, 57, 0
1, 115680, Note_on_c, 0, 57, 96
1, 115901, Note_on_c, 0, 71, 0
1, 115907, Note_on_c, 0, 57, 0
1, 115920, Note_on_c, 0, 57, 96
1, 115920, Note_on_c, 0, 72, 96
1, 116147, Note_on_c, 0, 57, 0
1, 116160, Note_on_c, 0, 57, 96
1, 116375, Note_on_c, 0, 72, 0
1, 116387, Note_on_c, 0, 57, 0
1, 116400, Note_on_c, 0, 57, 96
1, 116400, Note_on_c, 0, 71, 96
1, 116627, Note_on_c, 0, 57, 0
1, 116627, Note_on_c, 0, 71, 0
1, 116640, Note_on_c, 0, 57, 96
1, 116640, Note_on_c, 0, 72, 96
1, 116867, Note_on_c, 0, 57, 0
1, 116867, Note_on_c, 0, 72, 0
1, 116880, Note_on_c, 0, 57, 96
1, 116880, Note_on_c, 0, 71, 96
1, 117107, Note_on_c, 0, 57, 0
1, 117107, Note_on_c, 0, 71, 0
1, 117120, Note_on_c, 0, 69, 96
1, 117120, Note_on_c, 0, 74, 96
1, 117121, Control_c, 0, 64, 0
1, 117122, Control_c, 0, 64, 127
1, 117360, Note_on_c, 0, 53, 96
1, 117360, Control_c, 0, 2, 96
1, 117461, Note_on_c, 0, 69, 0
1, 117461, Note_on_c, 0, 74, 0
1, 117480, Note_on_c, 0, 72, 96
1, 117587, Note_on_c, 0, 53, 0
1, 117600, Note_on_c, 0, 53, 96
1, 117821, Note_on_c, 0, 72, 0
1, 117827, Note_on_c, 0, 53, 0
1, 117840, Note_on_c, 0, 53, 96
1, 117840, Note_on_c, 0, 71, 96
1, 118067, Note_on_c, 0, 53, 0
1, 118080, Note_on_c, 0, 55, 96
1, 118295, Note_on_c, 0, 71, 0
1, 118307, Note_on_c, 0, 55, 0
1, 118320, Note_on_c, 0, 55, 96
1, 118320, Note_on_c, 0, 72, 96
1, 118547, Note_on_c, 0, 55, 0
1, 118547, Note_on_c, 0, 72, 0
1, 118560, Note_on_c, 0, 55, 96
1, 118560, Note_on_c, 0, 71, 96
1, 118787, Note_on_c, 0, 55, 0
1, 118787, Note_on_c, 0, 71, 0
1, 118800, Note_on_c, 0, 55, 96
1, 118800, Note_on_c, 0, 67, 96
1, 119027, Note_on_c, 0, 55, 0
1, 119027, Note_on_c, 0, 67, 0
1, 119040, Note_on_c, 0, 57, 96
1, 119040, Note_on_c, 0, 69, 96
1, 119041, Control_c, 0, 64, 0
1, 119042, Control_c, 0, 64, 127
1, 119267, Note_on_c, 0, 57, 0
1, 119280, Note_on_c, 0, 57, 96
1, 119280, Control_c, 0, 2, 96
1, 119381, Note_on_c, 0, 69, 0
1, 119400, Note_on_c, 0, 67, 96
1, 119507, Note_on_c, 0, 57, 0
1, 119520, Note_on_c, 0, 57, 96
1, 119741, Note_on_c, 0, 67, 0
1, 119747, Note_on_c, 0, 57, 0
1, 119760, Note_on_c, 0, 57, 96
1, 119760, Note_on_c, 0, 69, 96
1, 119987, Note_on_c, 0, 57, 0
1, 120000, Note_on_c, 0, 57, 96
1, 120215, Note_on_c, 0, 69, 0
1, 120227, Note_on_c, 0, 57, 0
1, 120240, Note_on_c, 0, 57, 96
1, 120240, Note_on_c, 0, 67, 96
1, 120467, Note_on_c, 0, 57, 0
1, 120467, Note_on_c, 0, 67, 0
1, 120480, Note_on_c, 0, 57, 96
1, 120480, Note_on_c, 0, 69, 96
1, 120707, Note_on_c, 0, 57, 0
1, 120707, Note_on_c, 0, 69, 0
1, 120720, Note_on_c, 0, 57, 96
1, 120720, Note_on_c, 0, 67, 96
1, 120947, Note_on_c, 0, 57, 0
1, 120947, Note_on_c, 0, 67, 0
1, 120960, Note_on_c, 0, 62, 96
1, 120960, Note_on_c, 0, 74, 96
1, 120961, Control_c, 0, 64, 0
1, 120962, Control_c, 0, 64, 127
1, 121187, Note_on_c, 0, 62, 0
1, 121187, Note_on_c, 0, 74, 0
1, 121200, Note_on_c, 0, 62, 96
1, 121200, Control_c, 0, 2, 96
1, 121200, Note_on_c, 0, 77, 96
1, 121427, Note_on_c, 0, 62, 0
1, 121440, Note_on_c, 0, 62, 96
1, 121655, Note_on_c, 0, 77, 0
1, 121667, Note_on_c, 0, 62, 0
1, 121680, Note_on_c, 0, 62, 96
1, 121680, Note_on_c, 0, 76, 96
1, 121907, Note_on_c, 0, 62, 0
1, 121920, Note_on_c, 0, 64, 96
1, 122135, Note_on_c, 0, 76, 0
1, 122147, Note_on_c, 0, 64, 0
1, 122160, Note_on_c, 0, 64, 96
1, 122160, Note_on_c, 0, 71, 96
1, 122387, Note_on_c, 0, 64, 0
1, 122387, Note_on_c, 0, 71, 0
1, 122400, Note_on_c, 0, 64, 96
1, 122400, Note_on_c, 0, 74, 96
1, 122627, Note_on_c, 0, 64, 0
1, 122627, Note_on_c, 0, 74, 0
1, 122640, Note_on_c, 0, 64, 96
1, 122640, Note_on_c, 0, 76, 96
1, 122867, Note_on_c, 0, 64, 0
1, 122867, Note_on_c, 0, 76, 0
1, 122880, Control_c, 0, 2, 64
1, 122880, Note_on_c, 0, 57, 64
1, 122880, Note_on_c, 0, 69, 64
1, 122881, Control_c, 0, 64, 0
1, 122882, Control_c, 0, 64, 127
1, 123107, Note_on_c, 0, 69, 0
1, 123120, Note_on_c, 0, 64, 64
1, 123120, Control_c, 0, 2, 64
1, 123347, Note_on_c, 0, 64, 0
1, 123360, Note_on_c, 0, 69, 64
1, 123587, Note_on_c, 0, 69, 0
1, 123600, Note_on_c, 0, 72, 64
1, 124055, Note_on_c, 0, 72, 0
1, 124080, Note_on_c, 0, 71, 64
1, 124535, Note_on_c, 0, 71, 0
1, 124560, Note_on_c, 0, 67, 64
1, 124703, Note_on_c, 0, 57, 0
1, 124800, Note_on_c, 0, 67, 0
1, 124800, Note_on_c, 0, 67, 64
1, 124801, Control_c, 0, 64, 0
1, 124802, Control_c, 0, 64, 127
1, 125040, Note_on_c, 0, 74, 64
1, 125040, Control_c, 0, 2, 64
1, 125267, Note_on_c, 0, 74, 0
1, 125280, Note_on_c, 0, 71, 64
1, 125507, Note_on_c, 0, 71, 0
1, 125520, Note_on_c, 0, 67, 0
1, 125520, Note_on_c, 0, 67, 64
1, 125747, Note_on_c, 0, 67, 0
1, 125760, Note_on_c, 0, 53, 64
1, 125760, Note_on_c, 0, 65, 64
1, 125987, Note_on_c, 0, 65, 0
1, 126000, Note_on_c, 0, 72, 64
1, 126227, Note_on_c, 0, 72, 0
1, 126240, Note_on_c, 0, 69, 64
1, 126467, Note_on_c, 0, 69, 0
1, 126480, Note_on_c, 0, 65, 64
1, 126671, Note_on_c, 0, 53, 0
1, 126707, Note_on_c, 0, 65, 0
1, 126720, Note_on_c, 0, 57, 64
1, 126720, Note_on_c, 0, 69, 64
1, 126721, Control_c, 0, 64, 0
1, 126722, Control_c, 0, 64, 127
1, 126947, Note_on_c, 0, 69, 0
1, 126960, Note_on_c, 0, 64, 64
1, 126960, Control_c, 0, 2, 64
1, 127187, Note_on_c, 0, 64, 0
1, 127200, Note_on_c, 0, 69, 64
1, 127427, Note_on_c, 0, 69, 0
1, 127440, Note_on_c, 0, 72, 64
1, 127895, Note_on_c, 0, 72, 0
1, 127920, Note_on_c, 0, 71, 64
1, 128375, Note_on_c, 0, 71, 0
1, 128400, Note_on_c, 0, 67, 64
1, 128543, Note_on_c, 0, 57, 0
1, 128640, Note_on_c, 0, 67, 0
1, 128640, Note_on_c, 0, 67, 64
1, 128641, Control_c, 0, 64, 0
1, 128642, Control_c, 0, 64, 127
1, 128880, Note_on_c, 0, 74, 64
1, 128880, Control_c, 0, 2, 64
1, 129107, Note_on_c, 0, 74, 0
1, 129120, Note_on_c, 0, 71, 64
1, 129347, Note_on_c, 0, 71, 0
1, 129360, Note_on_c, 0, 67, 0
1, 129360, Note_on_c, 0, 67, 64
1, 129587, Note_on_c, 0, 67, 0
1, 129600, Note_on_c, 0, 53, 64
1, 129600, Note_on_c, 0, 65, 64
1, 129827, Note_on_c, 0, 65, 0
1, 129840, Note_on_c, 0, 72, 64
1, 130067, Note_on_c, 0, 72, 0
1, 130080, Note_on_c, 0, 69, 64
1, 130307, Note_on_c, 0, 69, 0
1, 130320, Note_on_c, 0, 65, 64
1, 130511, Note_on_c, 0, 53, 0
1, 130547, Note_on_c, 0, 65, 0
1, 130560, Note_on_c, 0, 69, 64
1, 130560, Note_on_c, 0, 72, 64
1, 130560, Note_on_c, 0, 76, 64
1, 130561, Control_c, 0, 64, 0
1, 130562, Control_c, 0, 64, 127
1, 130787, Note_on_c, 0, 72, 0
1, 130787, Note_on_c, 0, 76, 0
1, 130800, Note_on_c, 0, 81, 64
1, 130800, Control_c, 0, 2, 64
1, 131027, Note_on_c, 0, 81, 0
1, 131040, Note_on_c, 0, 81, 64
1, 131267, Note_on_c, 0, 81, 0
1, 131280, Note_on_c, 0, 81, 64
1, 131507, Note_on_c, 0, 81, 0
1, 131520, Note_on_c, 0, 81, 64
1, 131747, Note_on_c, 0, 81, 0
1, 131760, Note_on_c, 0, 79, 64
1, 131987, Note_on_c, 0, 79, 0
1, 132000, Note_on_c, 0, 79, 64
1, 132227, Note_on_c, 0, 79, 0
1, 132240, Note_on_c, 0, 79, 64
1, 132383, Note_on_c, 0, 69, 0
1, 132467, Note_on_c, 0, 79, 0
1, 132480, Note_on_c, 0, 67, 64
1, 132480, Note_on_c, 0, 74, 64
1, 132480, Note_on_c, 0, 79, 64
1, 132481, Control_c, 0, 64, 0
1, 132482, Control_c, 0, 64, 127
1, 132707, Note_on_c, 0, 74, 0
1, 132707, Note_on_c, 0, 79, 0
1, 132720, Note_on_c, 0, 79, 64
1, 132720, Control_c, 0, 2, 64
1, 132947, Note_on_c, 0, 79, 0
1, 132960, Note_on_c, 0, 79, 64
1, 133187, Note_on_c, 0, 79, 0
1, 133200, Note_on_c, 0, 79, 64
1, 133391, Note_on_c, 0, 67, 0
1, 133427, Note_on_c, 0, 79, 0
1, 133440, Note_on_c, 0, 65, 64
1, 133440, Note_on_c, 0, 72, 64
1, 133440, Note_on_c, 0, 79, 64
1, 133667, Note_on_c, 0, 72, 0
1, 133667, Note_on_c, 0, 79, 0
1, 133680, Note_on_c, 0, 79, 64
1, 133793, Note_on_c, 0, 79, 0
1, 133800, Note_on_c, 0, 79, 64
1, 134351, Note_on_c, 0, 65, 0
1, 134369, Note_on_c, 0, 79, 0
1, 134400, Note_on_c, 0, 69, 64
1, 134400, Note_on_c, 0, 72, 64
1, 134400, Note_on_c, 0, 76, 64
1, 134401, Control_c, 0, 64, 0
1, 134402, Control_c, 0, 64, 127
1, 134627, Note_on_c, 0, 72, 0
1, 134627, Note_on_c, 0, 76, 0
1, 134640, Note_on_c, 0, 76, 64
1, 134640, Control_c, 0, 2, 64
1, 134867, Note_on_c, 0, 76, 0
1, 134880, Note_on_c, 0, 76, 64
1, 135107, Note_on_c, 0, 76, 0
1, 135120, Note_on_c, 0, 76, 64
1, 135233, Note_on_c, 0, 76, 0
1, 135240, Note_on_c, 0, 79, 64
1, 135581, Note_on_c, 0, 79, 0
1, 135600, Note_on_c, 0, 79, 64
1, 135827, Note_on_c, 0, 79, 0
1, 135840, Note_on_c, 0, 79, 64
1, 136067, Note_on_c, 0, 79, 0
1, 136080, Note_on_c, 0, 79, 64
1, 136223, Note_on_c, 0, 69, 0
1, 136307, Note_on_c, 0, 79, 0
1, 136320, Note_on_c, 0, 67, 64
1, 136320, Note_on_c, 0, 74, 64
1, 136320, Note_on_c, 0, 81, 64
1, 136321, Control_c, 0, 64, 0
1, 136322, Control_c, 0, 64, 127
1, 136547, Note_on_c, 0, 74, 0
1, 136547, Note_on_c, 0, 81, 0
1, 136560, Note_on_c, 0, 81, 64
1, 136560, Control_c, 0, 2, 64
1, 136787, Note_on_c, 0, 81, 0
1, 136800, Note_on_c, 0, 81, 64
1, 137231, Note_on_c, 0, 67, 0
1, 137255, Note_on_c, 0, 81, 0
1, 137280, Note_on_c, 0, 65, 64
1, 137280, Note_on_c, 0, 77, 64
1, 137280, Note_on_c, 0, 84, 64
1, 137507, Note_on_c, 0, 77, 0
1, 137507, Note_on_c, 0, 84, 0
1, 137520, Note_on_c, 0, 81, 64
1, 137747, Note_on_c, 0, 81, 0
1, 137760, Note_on_c, 0, 81, 64
1, 137987, Note_on_c, 0, 81, 0
1, 138000, Note_on_c, 0, 81, 64
1, 138191, Note_on_c, 0, 65, 0
1, 138227, Note_on_c, 0, 81, 0
1, 138240, Note_on_c, 0, 69, 64
1, 138240, Note_on_c, 0, 79, 64
1, 138241, Control_c, 0, 64, 0
1, 138242, Control_c, 0, 64, 127
1, 138467, Note_on_c, 0, 79, 0
1, 138480, Note_on_c, 0, 79, 64
1, 138480, Control_c, 0, 2, 64
1, 138707, Note_on_c, 0, 79, 0
1, 138720, Note_on_c, 0, 79, 64
1, 138947, Note_on_c, 0, 79, 0
1, 138960, Note_on_c, 0, 79, 64
1, 139187, Note_on_c, 0, 79, 0
1, 139200, Note_on_c, 0, 79, 64
1, 139427, Note_on_c, 0, 79, 0
1, 139440, Note_on_c, 0, 79, 64
1, 139667, Note_on_c, 0, 79, 0
1, 139680, Note_on_c, 0, 79, 64
1, 139907, Note_on_c, 0, 79, 0
1, 139920, Note_on_c, 0, 79, 64
1, 140063, Note_on_c, 0, 69, 0
1, 140147, Note_on_c, 0, 79, 0
1, 140160, Note_on_c, 0, 67, 64
1, 140160, Note_on_c, 0, 74, 64
1, 140160, Note_on_c, 0, 79, 64
1, 140161, Control_c, 0, 64, 0
1, 140162, Control_c, 0, 64, 127
1, 140387, Note_on_c, 0, 74, 0
1, 140387, Note_on_c, 0, 79, 0
1, 140400, Note_on_c, 0, 79, 64
1, 140400, Control_c, 0, 2, 64
1, 140627, Note_on_c, 0, 79, 0
1, 140640, Note_on_c, 0, 79, 64
1, 140867, Note_on_c, 0, 79, 0
1, 140880, Note_on_c, 0, 79, 64
1, 141071, Note_on_c, 0, 67, 0
1, 141120, Note_on_c, 0, 65, 64
1, 141120, Note_on_c, 0, 72, 64
1, 141335, Note_on_c, 0, 79, 0
1, 141347, Note_on_c, 0, 72, 0
1, 141360, Note_on_c, 0, 79, 64
1, 141587, Note_on_c, 0, 79, 0
1, 141840, Note_on_c, 0, 81, 64
1, 142031, Note_on_c, 0, 65, 0
1, 142080, Note_on_c, 0, 69, 64
1, 142081, Control_c, 0, 64, 0
1, 142082, Control_c, 0, 64, 127
1, 142295, Note_on_c, 0, 81, 0
1, 142560, Note_on_c, 0, 84, 64
1, 142560, Control_c, 0, 2, 64
1, 142787, Note_on_c, 0, 84, 0
1, 142800, Note_on_c, 0, 81, 64
1, 142913, Note_on_c, 0, 81, 0
1, 142920, Note_on_c, 0, 84, 64
1, 143489, Note_on_c, 0, 84, 0
1, 143903, Note_on_c, 0, 69, 0
1, 144000, Note_on_c, 0, 69, 64
1, 144000, Note_on_c, 0, 76, 64
1, 144001, Control_c, 0, 64, 0
1, 145823, Note_on_c, 0, 69, 0
1, 145823, Note_on_c, 0, 76, 0
1, 145824, End_track
2, 0, Start_track
2, 0, Title_t, "Klavier\000"
2, 0, Key_signature, 0, "major"
2, 0, MIDI_port, 0
2, 1, End_track
0, 0, End_of_file
