0, 0, Header, 1, 5, 480
1, 0, Start_track
1, 0, Title_t, "Piano, Minstrel\000"
1, 0, Time_signature, 6, 3, 24, 8
1, 0, Key_signature, 0, "major"
1, 0, Tempo, 750000
1, 0, Control_c, 0, 121, 0
1, 0, Program_c, 0, 0
1, 0, Control_c, 0, 7, 100
1, 0, Control_c, 0, 10, 64
1, 0, Control_c, 0, 91, 0
1, 0, Control_c, 0, 93, 0
1, 0, MIDI_port, 0
1, 11280, Note_on_c, 0, 71, 80
1, 11507, Note_on_c, 0, 71, 0
1, 11520, Note_on_c, 0, 74, 80
1, 11975, Note_on_c, 0, 74, 0
1, 12000, Note_on_c, 0, 74, 80
1, 12227, Note_on_c, 0, 74, 0
1, 12240, Note_on_c, 0, 74, 80
1, 12695, Note_on_c, 0, 74, 0
1, 12720, Note_on_c, 0, 74, 80
1, 12947, Note_on_c, 0, 74, 0
1, 12960, Note_on_c, 0, 76, 80
1, 13187, Note_on_c, 0, 76, 0
1, 13200, Note_on_c, 0, 76, 80
1, 13427, Note_on_c, 0, 76, 0
1, 13440, Note_on_c, 0, 76, 80
1, 13895, Note_on_c, 0, 76, 0
1, 14160, Note_on_c, 0, 71, 80
1, 14387, Note_on_c, 0, 71, 0
1, 14400, Note_on_c, 0, 74, 80
1, 14627, Note_on_c, 0, 74, 0
1, 14640, Note_on_c, 0, 74, 80
1, 14867, Note_on_c, 0, 74, 0
1, 14880, Note_on_c, 0, 74, 80
1, 15335, Note_on_c, 0, 74, 0
1, 15360, Note_on_c, 0, 74, 80
1, 15587, Note_on_c, 0, 74, 0
1, 15600, Note_on_c, 0, 74, 80
1, 15827, Note_on_c, 0, 74, 0
1, 15840, Note_on_c, 0, 76, 80
1, 16295, Note_on_c, 0, 76, 0
1, 16320, Note_on_c, 0, 76, 80
1, 16547, Note_on_c, 0, 76, 0
1, 16560, Note_on_c, 0, 76, 80
1, 16787, Note_on_c, 0, 76, 0
1, 16800, Note_on_c, 0, 74, 80
1, 17027, Note_on_c, 0, 74, 0
1, 17040, Note_on_c, 0, 74, 80
1, 17267, Note_on_c, 0, 74, 0
1, 17280, Note_on_c, 0, 76, 80
1, 17507, Note_on_c, 0, 76, 0
1, 17520, Note_on_c, 0, 76, 80
1, 18203, Note_on_c, 0, 76, 0
1, 18240, Note_on_c, 0, 76, 80
1, 18467, Note_on_c, 0, 76, 0
1, 18480, Note_on_c, 0, 76, 80
1, 18707, Note_on_c, 0, 76, 0
1, 18720, Note_on_c, 0, 76, 80
1, 19175, Note_on_c, 0, 76, 0
1, 19200, Note_on_c, 0, 74, 80
1, 19427, Note_on_c, 0, 74, 0
1, 19440, Note_on_c, 0, 74, 80
1, 19667, Note_on_c, 0, 74, 0
1, 19680, Note_on_c, 0, 72, 80
1, 20135, Note_on_c, 0, 72, 0
1, 20160, Note_on_c, 0, 74, 80
1, 20387, Note_on_c, 0, 74, 0
1, 20400, Note_on_c, 0, 74, 80
1, 21539, Note_on_c, 0, 74, 0
1, 22800, Note_on_c, 0, 67, 80
1, 22913, Note_on_c, 0, 67, 0
1, 22920, Note_on_c, 0, 69, 80
1, 23033, Note_on_c, 0, 69, 0
1, 23040, Note_on_c, 0, 67, 80
1, 23040, Note_on_c, 0, 71, 80
1, 23495, Note_on_c, 0, 67, 0
1, 23495, Note_on_c, 0, 71, 0
1, 23520, Note_on_c, 0, 67, 80
1, 23520, Note_on_c, 0, 71, 80
1, 23747, Note_on_c, 0, 67, 0
1, 23747, Note_on_c, 0, 71, 0
1, 23760, Note_on_c, 0, 67, 80
1, 23760, Note_on_c, 0, 71, 80
1, 24215, Note_on_c, 0, 67, 0
1, 24215, Note_on_c, 0, 71, 0
1, 24240, Note_on_c, 0, 69, 80
1, 24353, Note_on_c, 0, 69, 0
1, 24360, Note_on_c, 0, 71, 80
1, 24473, Note_on_c, 0, 71, 0
1, 24480, Note_on_c, 0, 67, 80
1, 24480, Note_on_c, 0, 72, 80
1, 24935, Note_on_c, 0, 67, 0
1, 24935, Note_on_c, 0, 72, 0
1, 24960, Note_on_c, 0, 67, 80
1, 24960, Note_on_c, 0, 72, 80
1, 25187, Note_on_c, 0, 67, 0
1, 25187, Note_on_c, 0, 72, 0
1, 25200, Note_on_c, 0, 69, 80
1, 25200, Note_on_c, 0, 74, 80
1, 25439, Note_on_c, 0, 69, 0
1, 25439, Note_on_c, 0, 74, 0
1, 25680, Note_on_c, 0, 69, 80
1, 25680, Note_on_c, 0, 74, 80
1, 25907, Note_on_c, 0, 69, 0
1, 25907, Note_on_c, 0, 74, 0
1, 25920, Note_on_c, 0, 71, 80
1, 25920, Note_on_c, 0, 76, 80
1, 26147, Note_on_c, 0, 71, 0
1, 26147, Note_on_c, 0, 76, 0
1, 26160, Note_on_c, 0, 71, 80
1, 26160, Note_on_c, 0, 79, 80
1, 26387, Note_on_c, 0, 71, 0
1, 26387, Note_on_c, 0, 79, 0
1, 26400, Note_on_c, 0, 79, 80
1, 26400, Note_on_c, 0, 71, 80
1, 26627, Note_on_c, 0, 71, 0
1, 27083, Note_on_c, 0, 79, 0
1, 27120, Note_on_c, 0, 71, 80
1, 27120, Note_on_c, 0, 76, 80
1, 27347, Note_on_c, 0, 71, 0
1, 27347, Note_on_c, 0, 76, 0
1, 27360, Note_on_c, 0, 72, 80
1, 27360, Note_on_c, 0, 79, 80
1, 27587, Note_on_c, 0, 72, 0
1, 27587, Note_on_c, 0, 79, 0
1, 27600, Note_on_c, 0, 72, 80
1, 27600, Note_on_c, 0, 79, 80
1, 27827, Note_on_c, 0, 72, 0
1, 27827, Note_on_c, 0, 79, 0
1, 27840, Note_on_c, 0, 81, 80
1, 27840, Note_on_c, 0, 72, 80
1, 28067, Note_on_c, 0, 72, 0
1, 28295, Note_on_c, 0, 81, 0
1, 28560, Note_on_c, 0, 72, 80
1, 28560, Note_on_c, 0, 79, 80
1, 28787, Note_on_c, 0, 72, 0
1, 28787, Note_on_c, 0, 79, 0
1, 28800, Note_on_c, 0, 81, 80
1, 29255, Note_on_c, 0, 81, 0
1, 29280, Note_on_c, 0, 81, 80
1, 29963, Note_on_c, 0, 81, 0
1, 30000, Note_on_c, 0, 81, 80
1, 30227, Note_on_c, 0, 81, 0
1, 30240, Note_on_c, 0, 74, 80
1, 30240, Note_on_c, 0, 83, 80
1, 30695, Note_on_c, 0, 74, 0
1, 30695, Note_on_c, 0, 83, 0
1, 30720, Note_on_c, 0, 83, 80
1, 31175, Note_on_c, 0, 83, 0
1, 31200, Note_on_c, 0, 83, 80
1, 31427, Note_on_c, 0, 83, 0
1, 31440, Note_on_c, 0, 81, 80
1, 31667, Note_on_c, 0, 81, 0
1, 31680, Note_on_c, 0, 81, 80
1, 31907, Note_on_c, 0, 81, 0
1, 31920, Note_on_c, 0, 79, 80
1, 32159, Note_on_c, 0, 79, 0
1, 33840, Note_on_c, 0, 71, 80
1, 34295, Note_on_c, 0, 71, 0
1, 34320, Note_on_c, 0, 74, 80
1, 34547, Note_on_c, 0, 74, 0
1, 34560, Note_on_c, 0, 76, 80
1, 35243, Note_on_c, 0, 76, 0
1, 35280, Note_on_c, 0, 76, 80
1, 36647, Note_on_c, 0, 76, 0
1, 36720, Note_on_c, 0, 76, 80
1, 37175, Note_on_c, 0, 76, 0
1, 37200, Note_on_c, 0, 74, 80
1, 37427, Note_on_c, 0, 74, 0
1, 37440, Note_on_c, 0, 71, 80
1, 38123, Note_on_c, 0, 71, 0
1, 38160, Note_on_c, 0, 71, 80
1, 38843, Note_on_c, 0, 71, 0
1, 39600, Note_on_c, 0, 71, 80
1, 40055, Note_on_c, 0, 71, 0
1, 40080, Note_on_c, 0, 74, 80
1, 40307, Note_on_c, 0, 74, 0
1, 40320, Note_on_c, 0, 76, 80
1, 41003, Note_on_c, 0, 76, 0
1, 41040, Note_on_c, 0, 76, 80
1, 42407, Note_on_c, 0, 76, 0
1, 42480, Note_on_c, 0, 76, 80
1, 42935, Note_on_c, 0, 76, 0
1, 42960, Note_on_c, 0, 74, 80
1, 43187, Note_on_c, 0, 74, 0
1, 43200, Note_on_c, 0, 71, 80
1, 44111, Note_on_c, 0, 71, 0
1, 44160, Note_on_c, 0, 72, 80
1, 44387, Note_on_c, 0, 72, 0
1, 44400, Note_on_c, 0, 71, 80
1, 44627, Note_on_c, 0, 71, 0
1, 44640, Note_on_c, 0, 69, 80
1, 45779, Note_on_c, 0, 69, 0
1, 45840, Note_on_c, 0, 67, 80
1, 46067, Note_on_c, 0, 67, 0
1, 46080, Note_on_c, 0, 67, 80
1, 47447, Note_on_c, 0, 67, 0
1, 47520, Note_on_c, 0, 69, 80
1, 48659, Note_on_c, 0, 69, 0
1, 48720, Note_on_c, 0, 67, 80
1, 48947, Note_on_c, 0, 67, 0
1, 48960, Note_on_c, 0, 71, 80
1, 49319, Note_on_c, 0, 71, 0
1, 50160, Note_on_c, 0, 71, 80
1, 50273, Note_on_c, 0, 71, 0
1, 50280, Note_on_c, 0, 62, 80
1, 50317, Note_on_c, 0, 62, 0
1, 50320, Note_on_c, 0, 67, 80
1, 50357, Note_on_c, 0, 67, 0
1, 50360, Note_on_c, 0, 71, 80
1, 50397, Note_on_c, 0, 71, 0
1, 50400, Note_on_c, 0, 74, 80
1, 50855, Note_on_c, 0, 74, 0
1, 50880, Note_on_c, 0, 71, 80
1, 50880, Note_on_c, 0, 74, 80
1, 51107, Note_on_c, 0, 71, 0
1, 51107, Note_on_c, 0, 74, 0
1, 51120, Note_on_c, 0, 71, 80
1, 51120, Note_on_c, 0, 74, 80
1, 51575, Note_on_c, 0, 71, 0
1, 51575, Note_on_c, 0, 74, 0
1, 51600, Note_on_c, 0, 71, 80
1, 51600, Note_on_c, 0, 74, 80
1, 51713, Note_on_c, 0, 71, 0
1, 51713, Note_on_c, 0, 74, 0
1, 51720, Note_on_c, 0, 64, 80
1, 51757, Note_on_c, 0, 64, 0
1, 51760, Note_on_c, 0, 67, 80
1, 51797, Note_on_c, 0, 67, 0
1, 51800, Note_on_c, 0, 71, 80
1, 51837, Note_on_c, 0, 71, 0
1, 51840, Note_on_c, 0, 76, 80
1, 52067, Note_on_c, 0, 76, 0
1, 52080, Note_on_c, 0, 71, 80
1, 52080, Note_on_c, 0, 76, 80
1, 52307, Note_on_c, 0, 71, 0
1, 52307, Note_on_c, 0, 76, 0
1, 52320, Note_on_c, 0, 76, 80
1, 52320, Note_on_c, 0, 71, 80
1, 52547, Note_on_c, 0, 71, 0
1, 52775, Note_on_c, 0, 76, 0
1, 53040, Note_on_c, 0, 71, 80
1, 53153, Note_on_c, 0, 71, 0
1, 53160, Note_on_c, 0, 62, 80
1, 53197, Note_on_c, 0, 62, 0
1, 53200, Note_on_c, 0, 67, 80
1, 53237, Note_on_c, 0, 67, 0
1, 53240, Note_on_c, 0, 71, 80
1, 53277, Note_on_c, 0, 71, 0
1, 53280, Note_on_c, 0, 74, 80
1, 53507, Note_on_c, 0, 74, 0
1, 53520, Note_on_c, 0, 71, 80
1, 53520, Note_on_c, 0, 74, 80
1, 53747, Note_on_c, 0, 71, 0
1, 53747, Note_on_c, 0, 74, 0
1, 53760, Note_on_c, 0, 74, 80
1, 53760, Note_on_c, 0, 71, 80
1, 53987, Note_on_c, 0, 71, 0
1, 54215, Note_on_c, 0, 74, 0
1, 54240, Note_on_c, 0, 71, 80
1, 54240, Note_on_c, 0, 74, 80
1, 54467, Note_on_c, 0, 71, 0
1, 54467, Note_on_c, 0, 74, 0
1, 54480, Note_on_c, 0, 71, 80
1, 54480, Note_on_c, 0, 74, 80
1, 54593, Note_on_c, 0, 71, 0
1, 54593, Note_on_c, 0, 74, 0
1, 54600, Note_on_c, 0, 64, 80
1, 54637, Note_on_c, 0, 64, 0
1, 54640, Note_on_c, 0, 67, 80
1, 54677, Note_on_c, 0, 67, 0
1, 54680, Note_on_c, 0, 71, 80
1, 54717, Note_on_c, 0, 71, 0
1, 54720, Note_on_c, 0, 76, 80
1, 55175, Note_on_c, 0, 76, 0
1, 55200, Note_on_c, 0, 71, 80
1, 55200, Note_on_c, 0, 76, 80
1, 55427, Note_on_c, 0, 71, 0
1, 55427, Note_on_c, 0, 76, 0
1, 55440, Note_on_c, 0, 71, 80
1, 55440, Note_on_c, 0, 76, 80
1, 55667, Note_on_c, 0, 71, 0
1, 55667, Note_on_c, 0, 76, 0
1, 55680, Note_on_c, 0, 71, 80
1, 55680, Note_on_c, 0, 74, 80
1, 55907, Note_on_c, 0, 71, 0
1, 55907, Note_on_c, 0, 74, 0
1, 55920, Note_on_c, 0, 71, 80
1, 55920, Note_on_c, 0, 74, 80
1, 56033, Note_on_c, 0, 71, 0
1, 56033, Note_on_c, 0, 74, 0
1, 56040, Note_on_c, 0, 64, 80
1, 56077, Note_on_c, 0, 64, 0
1, 56080, Note_on_c, 0, 67, 80
1, 56117, Note_on_c, 0, 67, 0
1, 56120, Note_on_c, 0, 72, 80
1, 56157, Note_on_c, 0, 72, 0
1, 56160, Note_on_c, 0, 76, 80
1, 56387, Note_on_c, 0, 76, 0
1, 56400, Note_on_c, 0, 76, 80
1, 56400, Note_on_c, 0, 72, 80
1, 56855, Note_on_c, 0, 72, 0
1, 57083, Note_on_c, 0, 76, 0
1, 57120, Note_on_c, 0, 72, 80
1, 57120, Note_on_c, 0, 76, 80
1, 57347, Note_on_c, 0, 72, 0
1, 57347, Note_on_c, 0, 76, 0
1, 57360, Note_on_c, 0, 72, 80
1, 57360, Note_on_c, 0, 76, 80
1, 57473, Note_on_c, 0, 72, 0
1, 57473, Note_on_c, 0, 76, 0
1, 57520, Note_on_c, 0, 62, 80
1, 57557, Note_on_c, 0, 62, 0
1, 57560, Note_on_c, 0, 69, 80
1, 57597, Note_on_c, 0, 69, 0
1, 57600, Note_on_c, 0, 76, 80
1, 58055, Note_on_c, 0, 76, 0
1, 58080, Note_on_c, 0, 69, 80
1, 58080, Note_on_c, 0, 74, 80
1, 58307, Note_on_c, 0, 69, 0
1, 58307, Note_on_c, 0, 74, 0
1, 58320, Note_on_c, 0, 69, 80
1, 58320, Note_on_c, 0, 74, 80
1, 58547, Note_on_c, 0, 69, 0
1, 58547, Note_on_c, 0, 74, 0
1, 58560, Note_on_c, 0, 69, 80
1, 58560, Note_on_c, 0, 72, 80
1, 58739, Note_on_c, 0, 69, 0
1, 58739, Note_on_c, 0, 72, 0
1, 58920, Note_on_c, 0, 62, 80
1, 58957, Note_on_c, 0, 62, 0
1, 58960, Note_on_c, 0, 67, 80
1, 58997, Note_on_c, 0, 67, 0
1, 59000, Note_on_c, 0, 71, 80
1, 59037, Note_on_c, 0, 71, 0
1, 59040, Note_on_c, 0, 74, 80
1, 59267, Note_on_c, 0, 74, 0
1, 59280, Note_on_c, 0, 74, 80
1, 59280, Note_on_c, 0, 71, 80
1, 59735, Note_on_c, 0, 71, 0
1, 60419, Note_on_c, 0, 74, 0
1, 61680, Note_on_c, 0, 67, 80
1, 61793, Note_on_c, 0, 67, 0
1, 61840, Note_on_c, 0, 62, 80
1, 61877, Note_on_c, 0, 62, 0
1, 61880, Note_on_c, 0, 67, 80
1, 61917, Note_on_c, 0, 67, 0
1, 61920, Note_on_c, 0, 71, 80
1, 62375, Note_on_c, 0, 71, 0
1, 62400, Note_on_c, 0, 67, 80
1, 62400, Note_on_c, 0, 71, 80
1, 62627, Note_on_c, 0, 67, 0
1, 62627, Note_on_c, 0, 71, 0
1, 62640, Note_on_c, 0, 67, 80
1, 62640, Note_on_c, 0, 71, 80
1, 63095, Note_on_c, 0, 67, 0
1, 63095, Note_on_c, 0, 71, 0
1, 63120, Note_on_c, 0, 67, 80
1, 63120, Note_on_c, 0, 71, 80
1, 63233, Note_on_c, 0, 67, 0
1, 63233, Note_on_c, 0, 71, 0
1, 63240, Note_on_c, 0, 60, 80
1, 63277, Note_on_c, 0, 60, 0
1, 63280, Note_on_c, 0, 64, 80
1, 63317, Note_on_c, 0, 64, 0
1, 63320, Note_on_c, 0, 67, 80
1, 63357, Note_on_c, 0, 67, 0
1, 63360, Note_on_c, 0, 72, 80
1, 63815, Note_on_c, 0, 72, 0
1, 63840, Note_on_c, 0, 67, 80
1, 63840, Note_on_c, 0, 72, 80
1, 64067, Note_on_c, 0, 67, 0
1, 64067, Note_on_c, 0, 72, 0
1, 64080, Note_on_c, 0, 69, 80
1, 64080, Note_on_c, 0, 74, 80
1, 64319, Note_on_c, 0, 69, 0
1, 64319, Note_on_c, 0, 74, 0
1, 64560, Note_on_c, 0, 74, 80
1, 64673, Note_on_c, 0, 74, 0
1, 64680, Note_on_c, 0, 64, 80
1, 64717, Note_on_c, 0, 64, 0
1, 64720, Note_on_c, 0, 67, 80
1, 64757, Note_on_c, 0, 67, 0
1, 64760, Note_on_c, 0, 71, 80
1, 64797, Note_on_c, 0, 71, 0
1, 64800, Note_on_c, 0, 76, 80
1, 65027, Note_on_c, 0, 76, 0
1, 65040, Note_on_c, 0, 71, 80
1, 65040, Note_on_c, 0, 79, 80
1, 65267, Note_on_c, 0, 71, 0
1, 65267, Note_on_c, 0, 79, 0
1, 65280, Note_on_c, 0, 79, 80
1, 65280, Note_on_c, 0, 71, 80
1, 65507, Note_on_c, 0, 71, 0
1, 65963, Note_on_c, 0, 79, 0
1, 66000, Note_on_c, 0, 71, 80
1, 66000, Note_on_c, 0, 76, 80
1, 66113, Note_on_c, 0, 71, 0
1, 66113, Note_on_c, 0, 76, 0
1, 66120, Note_on_c, 0, 64, 80
1, 66157, Note_on_c, 0, 64, 0
1, 66160, Note_on_c, 0, 67, 80
1, 66197, Note_on_c, 0, 67, 0
1, 66200, Note_on_c, 0, 72, 80
1, 66237, Note_on_c, 0, 72, 0
1, 66240, Note_on_c, 0, 72, 80
1, 66240, Note_on_c, 0, 79, 80
1, 66467, Note_on_c, 0, 72, 0
1, 66467, Note_on_c, 0, 79, 0
1, 66480, Note_on_c, 0, 72, 80
1, 66480, Note_on_c, 0, 79, 80
1, 66707, Note_on_c, 0, 72, 0
1, 66707, Note_on_c, 0, 79, 0
1, 66720, Note_on_c, 0, 81, 80
1, 66720, Note_on_c, 0, 72, 80
1, 66947, Note_on_c, 0, 72, 0
1, 67175, Note_on_c, 0, 81, 0
1, 67440, Note_on_c, 0, 72, 80
1, 67440, Note_on_c, 0, 79, 80
1, 67553, Note_on_c, 0, 72, 0
1, 67553, Note_on_c, 0, 79, 0
1, 67560, Note_on_c, 0, 62, 80
1, 67597, Note_on_c, 0, 62, 0
1, 67600, Note_on_c, 0, 69, 80
1, 67637, Note_on_c, 0, 69, 0
1, 67640, Note_on_c, 0, 74, 80
1, 67677, Note_on_c, 0, 74, 0
1, 67680, Note_on_c, 0, 81, 80
1, 67907, Note_on_c, 0, 81, 0
1, 67920, Note_on_c, 0, 81, 80
1, 68147, Note_on_c, 0, 81, 0
1, 68160, Note_on_c, 0, 81, 80
1, 68843, Note_on_c, 0, 81, 0
1, 68880, Note_on_c, 0, 81, 80
1, 68993, Note_on_c, 0, 81, 0
1, 69000, Note_on_c, 0, 62, 80
1, 69037, Note_on_c, 0, 62, 0
1, 69040, Note_on_c, 0, 71, 80
1, 69077, Note_on_c, 0, 71, 0
1, 69080, Note_on_c, 0, 74, 80
1, 69117, Note_on_c, 0, 74, 0
1, 69120, Note_on_c, 0, 83, 80
1, 69575, Note_on_c, 0, 83, 0
1, 69600, Note_on_c, 0, 83, 80
1, 70055, Note_on_c, 0, 83, 0
1, 70080, Note_on_c, 0, 83, 80
1, 70307, Note_on_c, 0, 83, 0
1, 70320, Note_on_c, 0, 81, 80
1, 70547, Note_on_c, 0, 81, 0
1, 70560, Note_on_c, 0, 81, 80
1, 70787, Note_on_c, 0, 81, 0
1, 70800, Note_on_c, 0, 79, 80
1, 71039, Note_on_c, 0, 79, 0
1, 72720, Note_on_c, 0, 71, 80
1, 73175, Note_on_c, 0, 71, 0
1, 73200, Note_on_c, 0, 74, 80
1, 73313, Note_on_c, 0, 74, 0
1, 73320, Note_on_c, 0, 64, 80
1, 73357, Note_on_c, 0, 64, 0
1, 73360, Note_on_c, 0, 67, 80
1, 73397, Note_on_c, 0, 67, 0
1, 73400, Note_on_c, 0, 72, 80
1, 73437, Note_on_c, 0, 72, 0
1, 73440, Note_on_c, 0, 76, 80
1, 74123, Note_on_c, 0, 76, 0
1, 74160, Note_on_c, 0, 72, 80
1, 74160, Note_on_c, 0, 76, 80
1, 74843, Note_on_c, 0, 72, 0
1, 74843, Note_on_c, 0, 76, 0
1, 75480, Note_on_c, 0, 64, 80
1, 75517, Note_on_c, 0, 64, 0
1, 75520, Note_on_c, 0, 67, 80
1, 75557, Note_on_c, 0, 67, 0
1, 75560, Note_on_c, 0, 72, 80
1, 75597, Note_on_c, 0, 72, 0
1, 75600, Note_on_c, 0, 76, 80
1, 76055, Note_on_c, 0, 76, 0
1, 76080, Note_on_c, 0, 71, 80
1, 76080, Note_on_c, 0, 74, 80
1, 76193, Note_on_c, 0, 71, 0
1, 76193, Note_on_c, 0, 74, 0
1, 76240, Note_on_c, 0, 64, 80
1, 76277, Note_on_c, 0, 64, 0
1, 76280, Note_on_c, 0, 67, 80
1, 76317, Note_on_c, 0, 67, 0
1, 76320, Note_on_c, 0, 71, 80
1, 77003, Note_on_c, 0, 71, 0
1, 77040, Note_on_c, 0, 71, 80
1, 78407, Note_on_c, 0, 71, 0
1, 78480, Note_on_c, 0, 71, 80
1, 78719, Note_on_c, 0, 71, 0
1, 78960, Note_on_c, 0, 74, 80
1, 79073, Note_on_c, 0, 74, 0
1, 79080, Note_on_c, 0, 64, 80
1, 79117, Note_on_c, 0, 64, 0
1, 79120, Note_on_c, 0, 67, 80
1, 79157, Note_on_c, 0, 67, 0
1, 79160, Note_on_c, 0, 72, 80
1, 79197, Note_on_c, 0, 72, 0
1, 79200, Note_on_c, 0, 76, 80
1, 79883, Note_on_c, 0, 76, 0
1, 79920, Note_on_c, 0, 76, 80
1, 81059, Note_on_c, 0, 76, 0
1, 81240, Note_on_c, 0, 64, 80
1, 81277, Note_on_c, 0, 64, 0
1, 81280, Note_on_c, 0, 67, 80
1, 81317, Note_on_c, 0, 67, 0
1, 81320, Note_on_c, 0, 72, 80
1, 81357, Note_on_c, 0, 72, 0
1, 81360, Note_on_c, 0, 76, 80
1, 81599, Note_on_c, 0, 76, 0
1, 81840, Note_on_c, 0, 74, 80
1, 81953, Note_on_c, 0, 74, 0
1, 82000, Note_on_c, 0, 62, 80
1, 82037, Note_on_c, 0, 62, 0
1, 82040, Note_on_c, 0, 67, 80
1, 82077, Note_on_c, 0, 67, 0
1, 82080, Note_on_c, 0, 71, 80
1, 82991, Note_on_c, 0, 71, 0
1, 83040, Note_on_c, 0, 69, 80
1, 83040, Note_on_c, 0, 72, 80
1, 83267, Note_on_c, 0, 69, 0
1, 83267, Note_on_c, 0, 72, 0
1, 83280, Note_on_c, 0, 67, 80
1, 83280, Note_on_c, 0, 71, 80
1, 83507, Note_on_c, 0, 67, 0
1, 83507, Note_on_c, 0, 71, 0
1, 83520, Note_on_c, 0, 69, 80
1, 83520, Note_on_c, 0, 62, 80
1, 84203, Note_on_c, 0, 62, 0
1, 84720, Note_on_c, 0, 67, 80
1, 84887, Note_on_c, 0, 69, 0
1, 84947, Note_on_c, 0, 67, 0
1, 84960, Note_on_c, 0, 67, 80
1, 86327, Note_on_c, 0, 67, 0
1, 86328, End_track
2, 0, Start_track
2, 0, Title_t, "Piano, Piano\000"
2, 0, Key_signature, 0, "major"
2, 0, Control_c, 1, 121, 0
2, 0, Program_c, 1, 0
2, 0, Control_c, 1, 7, 100
2, 0, Control_c, 1, 10, 64
2, 0, Control_c, 1, 91, 0
2, 0, Control_c, 1, 93, 0
2, 0, MIDI_port, 1
2, 0, Note_on_c, 1, 59, 80
2, 113, Note_on_c, 1, 59, 0
2, 120, Note_on_c, 1, 50, 80
2, 233, Note_on_c, 1, 50, 0
2, 240, Note_on_c, 1, 55, 80
2, 353, Note_on_c, 1, 55, 0
2, 360, Note_on_c, 1, 59, 80
2, 473, Note_on_c, 1, 59, 0
2, 480, Note_on_c, 1, 62, 80
2, 593, Note_on_c, 1, 62, 0
2, 600, Note_on_c, 1, 67, 80
2, 713, Note_on_c, 1, 67, 0
2, 720, Note_on_c, 1, 59, 80
2, 833, Note_on_c, 1, 59, 0
2, 840, Note_on_c, 1, 50, 80
2, 953, Note_on_c, 1, 50, 0
2, 960, Note_on_c, 1, 55, 80
2, 1073, Note_on_c, 1, 55, 0
2, 1080, Note_on_c, 1, 59, 80
2, 1193, Note_on_c, 1, 59, 0
2, 1200, Note_on_c, 1, 62, 80
2, 1313, Note_on_c, 1, 62, 0
2, 1320, Note_on_c, 1, 67, 80
2, 1433, Note_on_c, 1, 67, 0
2, 1440, Note_on_c, 1, 59, 80
2, 1553, Note_on_c, 1, 59, 0
2, 1560, Note_on_c, 1, 52, 80
2, 1673, Note_on_c, 1, 52, 0
2, 1680, Note_on_c, 1, 55, 80
2, 1793, Note_on_c, 1, 55, 0
2, 1800, Note_on_c, 1, 59, 80
2, 1913, Note_on_c, 1, 59, 0
2, 1920, Note_on_c, 1, 62, 80
2, 2033, Note_on_c, 1, 62, 0
2, 2040, Note_on_c, 1, 64, 80
2, 2153, Note_on_c, 1, 64, 0
2, 2160, Note_on_c, 1, 59, 80
2, 2273, Note_on_c, 1, 59, 0
2, 2280, Note_on_c, 1, 52, 80
2, 2393, Note_on_c, 1, 52, 0
2, 2400, Note_on_c, 1, 55, 80
2, 2513, Note_on_c, 1, 55, 0
2, 2520, Note_on_c, 1, 59, 80
2, 2633, Note_on_c, 1, 59, 0
2, 2640, Note_on_c, 1, 62, 80
2, 2753, Note_on_c, 1, 62, 0
2, 2760, Note_on_c, 1, 64, 80
2, 2873, Note_on_c, 1, 64, 0
2, 2880, Note_on_c, 1, 59, 80
2, 2993, Note_on_c, 1, 59, 0
2, 3000, Note_on_c, 1, 50, 80
2, 3113, Note_on_c, 1, 50, 0
2, 3120, Note_on_c, 1, 55, 80
2, 3233, Note_on_c, 1, 55, 0
2, 3240, Note_on_c, 1, 59, 80
2, 3353, Note_on_c, 1, 59, 0
2, 3360, Note_on_c, 1, 62, 80
2, 3473, Note_on_c, 1, 62, 0
2, 3480, Note_on_c, 1, 67, 80
2, 3593, Note_on_c, 1, 67, 0
2, 3600, Note_on_c, 1, 59, 80
2, 3713, Note_on_c, 1, 59, 0
2, 3720, Note_on_c, 1, 50, 80
2, 3833, Note_on_c, 1, 50, 0
2, 3840, Note_on_c, 1, 55, 80
2, 3953, Note_on_c, 1, 55, 0
2, 3960, Note_on_c, 1, 59, 80
2, 4073, Note_on_c, 1, 59, 0
2, 4080, Note_on_c, 1, 62, 80
2, 4193, Note_on_c, 1, 62, 0
2, 4200, Note_on_c, 1, 67, 80
2, 4313, Note_on_c, 1, 67, 0
2, 4320, Note_on_c, 1, 59, 80
2, 4433, Note_on_c, 1, 59, 0
2, 4440, Note_on_c, 1, 52, 80
2, 4553, Note_on_c, 1, 52, 0
2, 4560, Note_on_c, 1, 55, 80
2, 4673, Note_on_c, 1, 55, 0
2, 4680, Note_on_c, 1, 59, 80
2, 4793, Note_on_c, 1, 59, 0
2, 4800, Note_on_c, 1, 62, 80
2, 4913, Note_on_c, 1, 62, 0
2, 4920, Note_on_c, 1, 64, 80
2, 5033, Note_on_c, 1, 64, 0
2, 5040, Note_on_c, 1, 59, 80
2, 5153, Note_on_c, 1, 59, 0
2, 5160, Note_on_c, 1, 52, 80
2, 5273, Note_on_c, 1, 52, 0
2, 5280, Note_on_c, 1, 55, 80
2, 5393, Note_on_c, 1, 55, 0
2, 5400, Note_on_c, 1, 59, 80
2, 5513, Note_on_c, 1, 59, 0
2, 5520, Note_on_c, 1, 62, 80
2, 5633, Note_on_c, 1, 62, 0
2, 5640, Note_on_c, 1, 64, 80
2, 5753, Note_on_c, 1, 64, 0
2, 5760, Note_on_c, 1, 59, 80
2, 5873, Note_on_c, 1, 59, 0
2, 5880, Note_on_c, 1, 50, 80
2, 5993, Note_on_c, 1, 50, 0
2, 6000, Note_on_c, 1, 55, 80
2, 6113, Note_on_c, 1, 55, 0
2, 6120, Note_on_c, 1, 59, 80
2, 6233, Note_on_c, 1, 59, 0
2, 6240, Note_on_c, 1, 62, 80
2, 6353, Note_on_c, 1, 62, 0
2, 6360, Note_on_c, 1, 67, 80
2, 6473, Note_on_c, 1, 67, 0
2, 6480, Note_on_c, 1, 59, 80
2, 6593, Note_on_c, 1, 59, 0
2, 6600, Note_on_c, 1, 50, 80
2, 6713, Note_on_c, 1, 50, 0
2, 6720, Note_on_c, 1, 55, 80
2, 6833, Note_on_c, 1, 55, 0
2, 6840, Note_on_c, 1, 59, 80
2, 6953, Note_on_c, 1, 59, 0
2, 6960, Note_on_c, 1, 62, 80
2, 7073, Note_on_c, 1, 62, 0
2, 7080, Note_on_c, 1, 67, 80
2, 7193, Note_on_c, 1, 67, 0
2, 7200, Note_on_c, 1, 59, 80
2, 7313, Note_on_c, 1, 59, 0
2, 7320, Note_on_c, 1, 52, 80
2, 7433, Note_on_c, 1, 52, 0
2, 7440, Note_on_c, 1, 55, 80
2, 7553, Note_on_c, 1, 55, 0
2, 7560, Note_on_c, 1, 59, 80
2, 7673, Note_on_c, 1, 59, 0
2, 7680, Note_on_c, 1, 62, 80
2, 7793, Note_on_c, 1, 62, 0
2, 7800, Note_on_c, 1, 64, 80
2, 7913, Note_on_c, 1, 64, 0
2, 7920, Note_on_c, 1, 59, 80
2, 8033, Note_on_c, 1, 59, 0
2, 8040, Note_on_c, 1, 52, 80
2, 8153, Note_on_c, 1, 52, 0
2, 8160, Note_on_c, 1, 55, 80
2, 8273, Note_on_c, 1, 55, 0
2, 8280, Note_on_c, 1, 59, 80
2, 8393, Note_on_c, 1, 59, 0
2, 8400, Note_on_c, 1, 62, 80
2, 8513, Note_on_c, 1, 62, 0
2, 8520, Note_on_c, 1, 64, 80
2, 8633, Note_on_c, 1, 64, 0
2, 8640, Note_on_c, 1, 59, 80
2, 8753, Note_on_c, 1, 59, 0
2, 8760, Note_on_c, 1, 50, 80
2, 8873, Note_on_c, 1, 50, 0
2, 8880, Note_on_c, 1, 55, 80
2, 8993, Note_on_c, 1, 55, 0
2, 9000, Note_on_c, 1, 59, 80
2, 9113, Note_on_c, 1, 59, 0
2, 9120, Note_on_c, 1, 62, 80
2, 9233, Note_on_c, 1, 62, 0
2, 9240, Note_on_c, 1, 67, 80
2, 9353, Note_on_c, 1, 67, 0
2, 9360, Note_on_c, 1, 59, 80
2, 9473, Note_on_c, 1, 59, 0
2, 9480, Note_on_c, 1, 50, 80
2, 9593, Note_on_c, 1, 50, 0
2, 9600, Note_on_c, 1, 55, 80
2, 9713, Note_on_c, 1, 55, 0
2, 9720, Note_on_c, 1, 59, 80
2, 9833, Note_on_c, 1, 59, 0
2, 9840, Note_on_c, 1, 62, 80
2, 9953, Note_on_c, 1, 62, 0
2, 9960, Note_on_c, 1, 67, 80
2, 10073, Note_on_c, 1, 67, 0
2, 10080, Note_on_c, 1, 59, 80
2, 10193, Note_on_c, 1, 59, 0
2, 10200, Note_on_c, 1, 52, 80
2, 10313, Note_on_c, 1, 52, 0
2, 10320, Note_on_c, 1, 55, 80
2, 10433, Note_on_c, 1, 55, 0
2, 10440, Note_on_c, 1, 59, 80
2, 10553, Note_on_c, 1, 59, 0
2, 10560, Note_on_c, 1, 62, 80
2, 10673, Note_on_c, 1, 62, 0
2, 10680, Note_on_c, 1, 64, 80
2, 10793, Note_on_c, 1, 64, 0
2, 10800, Note_on_c, 1, 59, 80
2, 10913, Note_on_c, 1, 59, 0
2, 10920, Note_on_c, 1, 52, 80
2, 11033, Note_on_c, 1, 52, 0
2, 11040, Note_on_c, 1, 55, 80
2, 11153, Note_on_c, 1, 55, 0
2, 11160, Note_on_c, 1, 59, 80
2, 11273, Note_on_c, 1, 59, 0
2, 11280, Note_on_c, 1, 62, 80
2, 11393, Note_on_c, 1, 62, 0
2, 11400, Note_on_c, 1, 64, 80
2, 11513, Note_on_c, 1, 64, 0
2, 11520, Note_on_c, 1, 59, 80
2, 11633, Note_on_c, 1, 59, 0
2, 11640, Note_on_c, 1, 50, 80
2, 11753, Note_on_c, 1, 50, 0
2, 11760, Note_on_c, 1, 55, 80
2, 11873, Note_on_c, 1, 55, 0
2, 11880, Note_on_c, 1, 59, 80
2, 11993, Note_on_c, 1, 59, 0
2, 12000, Note_on_c, 1, 62, 80
2, 12113, Note_on_c, 1, 62, 0
2, 12120, Note_on_c, 1, 67, 80
2, 12233, Note_on_c, 1, 67, 0
2, 12240, Note_on_c, 1, 59, 80
2, 12353, Note_on_c, 1, 59, 0
2, 12360, Note_on_c, 1, 50, 80
2, 12473, Note_on_c, 1, 50, 0
2, 12480, Note_on_c, 1, 55, 80
2, 12593, Note_on_c, 1, 55, 0
2, 12600, Note_on_c, 1, 59, 80
2, 12713, Note_on_c, 1, 59, 0
2, 12720, Note_on_c, 1, 62, 80
2, 12833, Note_on_c, 1, 62, 0
2, 12840, Note_on_c, 1, 67, 80
2, 12953, Note_on_c, 1, 67, 0
2, 12960, Note_on_c, 1, 59, 80
2, 13073, Note_on_c, 1, 59, 0
2, 13080, Note_on_c, 1, 52, 80
2, 13193, Note_on_c, 1, 52, 0
2, 13200, Note_on_c, 1, 55, 80
2, 13313, Note_on_c, 1, 55, 0
2, 13320, Note_on_c, 1, 59, 80
2, 13433, Note_on_c, 1, 59, 0
2, 13440, Note_on_c, 1, 62, 80
2, 13553, Note_on_c, 1, 62, 0
2, 13560, Note_on_c, 1, 64, 80
2, 13673, Note_on_c, 1, 64, 0
2, 13680, Note_on_c, 1, 59, 80
2, 13793, Note_on_c, 1, 59, 0
2, 13800, Note_on_c, 1, 52, 80
2, 13913, Note_on_c, 1, 52, 0
2, 13920, Note_on_c, 1, 55, 80
2, 14033, Note_on_c, 1, 55, 0
2, 14040, Note_on_c, 1, 59, 80
2, 14153, Note_on_c, 1, 59, 0
2, 14160, Note_on_c, 1, 62, 80
2, 14273, Note_on_c, 1, 62, 0
2, 14280, Note_on_c, 1, 64, 80
2, 14393, Note_on_c, 1, 64, 0
2, 14400, Note_on_c, 1, 59, 80
2, 14513, Note_on_c, 1, 59, 0
2, 14520, Note_on_c, 1, 50, 80
2, 14633, Note_on_c, 1, 50, 0
2, 14640, Note_on_c, 1, 55, 80
2, 14753, Note_on_c, 1, 55, 0
2, 14760, Note_on_c, 1, 59, 80
2, 14873, Note_on_c, 1, 59, 0
2, 14880, Note_on_c, 1, 62, 80
2, 14993, Note_on_c, 1, 62, 0
2, 15000, Note_on_c, 1, 67, 80
2, 15113, Note_on_c, 1, 67, 0
2, 15120, Note_on_c, 1, 59, 80
2, 15233, Note_on_c, 1, 59, 0
2, 15240, Note_on_c, 1, 50, 80
2, 15353, Note_on_c, 1, 50, 0
2, 15360, Note_on_c, 1, 55, 80
2, 15473, Note_on_c, 1, 55, 0
2, 15480, Note_on_c, 1, 59, 80
2, 15593, Note_on_c, 1, 59, 0
2, 15600, Note_on_c, 1, 62, 80
2, 15713, Note_on_c, 1, 62, 0
2, 15720, Note_on_c, 1, 67, 80
2, 15833, Note_on_c, 1, 67, 0
2, 15840, Note_on_c, 1, 59, 80
2, 15953, Note_on_c, 1, 59, 0
2, 15960, Note_on_c, 1, 52, 80
2, 16073, Note_on_c, 1, 52, 0
2, 16080, Note_on_c, 1, 55, 80
2, 16193, Note_on_c, 1, 55, 0
2, 16200, Note_on_c, 1, 59, 80
2, 16313, Note_on_c, 1, 59, 0
2, 16320, Note_on_c, 1, 62, 80
2, 16433, Note_on_c, 1, 62, 0
2, 16440, Note_on_c, 1, 64, 80
2, 16553, Note_on_c, 1, 64, 0
2, 16560, Note_on_c, 1, 59, 80
2, 16673, Note_on_c, 1, 59, 0
2, 16680, Note_on_c, 1, 52, 80
2, 16793, Note_on_c, 1, 52, 0
2, 16800, Note_on_c, 1, 55, 80
2, 16913, Note_on_c, 1, 55, 0
2, 16920, Note_on_c, 1, 59, 80
2, 17033, Note_on_c, 1, 59, 0
2, 17040, Note_on_c, 1, 62, 80
2, 17153, Note_on_c, 1, 62, 0
2, 17160, Note_on_c, 1, 64, 80
2, 17273, Note_on_c, 1, 64, 0
2, 17280, Note_on_c, 1, 60, 80
2, 17393, Note_on_c, 1, 60, 0
2, 17400, Note_on_c, 1, 52, 80
2, 17513, Note_on_c, 1, 52, 0
2, 17520, Note_on_c, 1, 55, 80
2, 17633, Note_on_c, 1, 55, 0
2, 17640, Note_on_c, 1, 60, 80
2, 17753, Note_on_c, 1, 60, 0
2, 17760, Note_on_c, 1, 64, 80
2, 17873, Note_on_c, 1, 64, 0
2, 17880, Note_on_c, 1, 67, 80
2, 17993, Note_on_c, 1, 67, 0
2, 18000, Note_on_c, 1, 60, 80
2, 18113, Note_on_c, 1, 60, 0
2, 18120, Note_on_c, 1, 52, 80
2, 18233, Note_on_c, 1, 52, 0
2, 18240, Note_on_c, 1, 55, 80
2, 18353, Note_on_c, 1, 55, 0
2, 18360, Note_on_c, 1, 60, 80
2, 18473, Note_on_c, 1, 60, 0
2, 18480, Note_on_c, 1, 64, 80
2, 18593, Note_on_c, 1, 64, 0
2, 18600, Note_on_c, 1, 67, 80
2, 18713, Note_on_c, 1, 67, 0
2, 18720, Note_on_c, 1, 50, 80
2, 18833, Note_on_c, 1, 50, 0
2, 18840, Note_on_c, 1, 57, 80
2, 18953, Note_on_c, 1, 57, 0
2, 18960, Note_on_c, 1, 62, 80
2, 19073, Note_on_c, 1, 62, 0
2, 19080, Note_on_c, 1, 57, 80
2, 19193, Note_on_c, 1, 57, 0
2, 19200, Note_on_c, 1, 62, 80
2, 19313, Note_on_c, 1, 62, 0
2, 19320, Note_on_c, 1, 69, 80
2, 19433, Note_on_c, 1, 69, 0
2, 19440, Note_on_c, 1, 50, 80
2, 19553, Note_on_c, 1, 50, 0
2, 19560, Note_on_c, 1, 57, 80
2, 19673, Note_on_c, 1, 57, 0
2, 19680, Note_on_c, 1, 62, 80
2, 19793, Note_on_c, 1, 62, 0
2, 19800, Note_on_c, 1, 57, 80
2, 19913, Note_on_c, 1, 57, 0
2, 19920, Note_on_c, 1, 62, 80
2, 20033, Note_on_c, 1, 62, 0
2, 20040, Note_on_c, 1, 69, 80
2, 20153, Note_on_c, 1, 69, 0
2, 20160, Note_on_c, 1, 59, 80
2, 20273, Note_on_c, 1, 59, 0
2, 20280, Note_on_c, 1, 50, 80
2, 20393, Note_on_c, 1, 50, 0
2, 20400, Note_on_c, 1, 55, 80
2, 20513, Note_on_c, 1, 55, 0
2, 20520, Note_on_c, 1, 59, 80
2, 20633, Note_on_c, 1, 59, 0
2, 20640, Note_on_c, 1, 62, 80
2, 20753, Note_on_c, 1, 62, 0
2, 20760, Note_on_c, 1, 67, 80
2, 20873, Note_on_c, 1, 67, 0
2, 20880, Note_on_c, 1, 59, 80
2, 20993, Note_on_c, 1, 59, 0
2, 21000, Note_on_c, 1, 50, 80
2, 21113, Note_on_c, 1, 50, 0
2, 21120, Note_on_c, 1, 55, 80
2, 21233, Note_on_c, 1, 55, 0
2, 21240, Note_on_c, 1, 59, 80
2, 21353, Note_on_c, 1, 59, 0
2, 21360, Note_on_c, 1, 62, 80
2, 21473, Note_on_c, 1, 62, 0
2, 21480, Note_on_c, 1, 67, 80
2, 21593, Note_on_c, 1, 67, 0
2, 21600, Note_on_c, 1, 50, 80
2, 21713, Note_on_c, 1, 50, 0
2, 21720, Note_on_c, 1, 57, 80
2, 21833, Note_on_c, 1, 57, 0
2, 21840, Note_on_c, 1, 62, 80
2, 21953, Note_on_c, 1, 62, 0
2, 21960, Note_on_c, 1, 57, 80
2, 22073, Note_on_c, 1, 57, 0
2, 22080, Note_on_c, 1, 62, 80
2, 22193, Note_on_c, 1, 62, 0
2, 22200, Note_on_c, 1, 69, 80
2, 22313, Note_on_c, 1, 69, 0
2, 22320, Note_on_c, 1, 50, 80
2, 22433, Note_on_c, 1, 50, 0
2, 22440, Note_on_c, 1, 57, 80
2, 22553, Note_on_c, 1, 57, 0
2, 22560, Note_on_c, 1, 62, 80
2, 22673, Note_on_c, 1, 62, 0
2, 22680, Note_on_c, 1, 57, 80
2, 22793, Note_on_c, 1, 57, 0
2, 22800, Note_on_c, 1, 62, 80
2, 23027, Note_on_c, 1, 62, 0
2, 23040, Note_on_c, 1, 55, 80
2, 23153, Note_on_c, 1, 55, 0
2, 23160, Note_on_c, 1, 50, 80
2, 23273, Note_on_c, 1, 50, 0
2, 23280, Note_on_c, 1, 55, 80
2, 23393, Note_on_c, 1, 55, 0
2, 23400, Note_on_c, 1, 59, 80
2, 23513, Note_on_c, 1, 59, 0
2, 23520, Note_on_c, 1, 62, 80
2, 23633, Note_on_c, 1, 62, 0
2, 23640, Note_on_c, 1, 59, 80
2, 23753, Note_on_c, 1, 59, 0
2, 23760, Note_on_c, 1, 55, 80
2, 23873, Note_on_c, 1, 55, 0
2, 23880, Note_on_c, 1, 50, 80
2, 23993, Note_on_c, 1, 50, 0
2, 24000, Note_on_c, 1, 55, 80
2, 24113, Note_on_c, 1, 55, 0
2, 24120, Note_on_c, 1, 59, 80
2, 24233, Note_on_c, 1, 59, 0
2, 24240, Note_on_c, 1, 62, 80
2, 24353, Note_on_c, 1, 62, 0
2, 24360, Note_on_c, 1, 59, 80
2, 24473, Note_on_c, 1, 59, 0
2, 24480, Note_on_c, 1, 48, 80
2, 24593, Note_on_c, 1, 48, 0
2, 24600, Note_on_c, 1, 55, 80
2, 24713, Note_on_c, 1, 55, 0
2, 24720, Note_on_c, 1, 60, 80
2, 24833, Note_on_c, 1, 60, 0
2, 24840, Note_on_c, 1, 55, 80
2, 24953, Note_on_c, 1, 55, 0
2, 24960, Note_on_c, 1, 60, 80
2, 25073, Note_on_c, 1, 60, 0
2, 25080, Note_on_c, 1, 64, 80
2, 25193, Note_on_c, 1, 64, 0
2, 25200, Note_on_c, 1, 50, 80
2, 25313, Note_on_c, 1, 50, 0
2, 25320, Note_on_c, 1, 57, 80
2, 25433, Note_on_c, 1, 57, 0
2, 25440, Note_on_c, 1, 62, 80
2, 25553, Note_on_c, 1, 62, 0
2, 25560, Note_on_c, 1, 57, 80
2, 25673, Note_on_c, 1, 57, 0
2, 25680, Note_on_c, 1, 60, 80
2, 25793, Note_on_c, 1, 60, 0
2, 25800, Note_on_c, 1, 64, 80
2, 25913, Note_on_c, 1, 64, 0
2, 25920, Note_on_c, 1, 59, 80
2, 26033, Note_on_c, 1, 59, 0
2, 26040, Note_on_c, 1, 52, 80
2, 26153, Note_on_c, 1, 52, 0
2, 26160, Note_on_c, 1, 55, 80
2, 26273, Note_on_c, 1, 55, 0
2, 26280, Note_on_c, 1, 59, 80
2, 26393, Note_on_c, 1, 59, 0
2, 26400, Note_on_c, 1, 64, 80
2, 26513, Note_on_c, 1, 64, 0
2, 26520, Note_on_c, 1, 67, 80
2, 26633, Note_on_c, 1, 67, 0
2, 26640, Note_on_c, 1, 59, 80
2, 26753, Note_on_c, 1, 59, 0
2, 26760, Note_on_c, 1, 52, 80
2, 26873, Note_on_c, 1, 52, 0
2, 26880, Note_on_c, 1, 55, 80
2, 26993, Note_on_c, 1, 55, 0
2, 27000, Note_on_c, 1, 59, 80
2, 27113, Note_on_c, 1, 59, 0
2, 27120, Note_on_c, 1, 64, 80
2, 27233, Note_on_c, 1, 64, 0
2, 27240, Note_on_c, 1, 67, 80
2, 27353, Note_on_c, 1, 67, 0
2, 27360, Note_on_c, 1, 60, 80
2, 27473, Note_on_c, 1, 60, 0
2, 27480, Note_on_c, 1, 52, 80
2, 27593, Note_on_c, 1, 52, 0
2, 27600, Note_on_c, 1, 55, 80
2, 27713, Note_on_c, 1, 55, 0
2, 27720, Note_on_c, 1, 60, 80
2, 27833, Note_on_c, 1, 60, 0
2, 27840, Note_on_c, 1, 64, 80
2, 27953, Note_on_c, 1, 64, 0
2, 27960, Note_on_c, 1, 67, 80
2, 28073, Note_on_c, 1, 67, 0
2, 28080, Note_on_c, 1, 60, 80
2, 28193, Note_on_c, 1, 60, 0
2, 28200, Note_on_c, 1, 52, 80
2, 28313, Note_on_c, 1, 52, 0
2, 28320, Note_on_c, 1, 55, 80
2, 28433, Note_on_c, 1, 55, 0
2, 28440, Note_on_c, 1, 60, 80
2, 28553, Note_on_c, 1, 60, 0
2, 28560, Note_on_c, 1, 64, 80
2, 28673, Note_on_c, 1, 64, 0
2, 28680, Note_on_c, 1, 67, 80
2, 28793, Note_on_c, 1, 67, 0
2, 28800, Note_on_c, 1, 50, 80
2, 28913, Note_on_c, 1, 50, 0
2, 28920, Note_on_c, 1, 57, 80
2, 29033, Note_on_c, 1, 57, 0
2, 29040, Note_on_c, 1, 62, 80
2, 29153, Note_on_c, 1, 62, 0
2, 29160, Note_on_c, 1, 57, 80
2, 29273, Note_on_c, 1, 57, 0
2, 29280, Note_on_c, 1, 62, 80
2, 29393, Note_on_c, 1, 62, 0
2, 29400, Note_on_c, 1, 69, 80
2, 29513, Note_on_c, 1, 69, 0
2, 29520, Note_on_c, 1, 50, 80
2, 29633, Note_on_c, 1, 50, 0
2, 29640, Note_on_c, 1, 57, 80
2, 29753, Note_on_c, 1, 57, 0
2, 29760, Note_on_c, 1, 62, 80
2, 29873, Note_on_c, 1, 62, 0
2, 29880, Note_on_c, 1, 57, 80
2, 29993, Note_on_c, 1, 57, 0
2, 30000, Note_on_c, 1, 62, 80
2, 30113, Note_on_c, 1, 62, 0
2, 30120, Note_on_c, 1, 69, 80
2, 30233, Note_on_c, 1, 69, 0
2, 30240, Note_on_c, 1, 50, 80
2, 30353, Note_on_c, 1, 50, 0
2, 30360, Note_on_c, 1, 57, 80
2, 30473, Note_on_c, 1, 57, 0
2, 30480, Note_on_c, 1, 62, 80
2, 30593, Note_on_c, 1, 62, 0
2, 30600, Note_on_c, 1, 57, 80
2, 30713, Note_on_c, 1, 57, 0
2, 30720, Note_on_c, 1, 62, 80
2, 30833, Note_on_c, 1, 62, 0
2, 30840, Note_on_c, 1, 69, 80
2, 30953, Note_on_c, 1, 69, 0
2, 30960, Note_on_c, 1, 50, 80
2, 31073, Note_on_c, 1, 50, 0
2, 31080, Note_on_c, 1, 57, 80
2, 31193, Note_on_c, 1, 57, 0
2, 31200, Note_on_c, 1, 62, 80
2, 31313, Note_on_c, 1, 62, 0
2, 31320, Note_on_c, 1, 57, 80
2, 31433, Note_on_c, 1, 57, 0
2, 31440, Note_on_c, 1, 62, 80
2, 31553, Note_on_c, 1, 62, 0
2, 31560, Note_on_c, 1, 69, 80
2, 31673, Note_on_c, 1, 69, 0
2, 31680, Note_on_c, 1, 59, 80
2, 31793, Note_on_c, 1, 59, 0
2, 31800, Note_on_c, 1, 52, 80
2, 31913, Note_on_c, 1, 52, 0
2, 31920, Note_on_c, 1, 55, 80
2, 32033, Note_on_c, 1, 55, 0
2, 32040, Note_on_c, 1, 59, 80
2, 32153, Note_on_c, 1, 59, 0
2, 32160, Note_on_c, 1, 64, 80
2, 32273, Note_on_c, 1, 64, 0
2, 32280, Note_on_c, 1, 67, 80
2, 32393, Note_on_c, 1, 67, 0
2, 32400, Note_on_c, 1, 59, 80
2, 32513, Note_on_c, 1, 59, 0
2, 32520, Note_on_c, 1, 52, 80
2, 32633, Note_on_c, 1, 52, 0
2, 32640, Note_on_c, 1, 55, 80
2, 32753, Note_on_c, 1, 55, 0
2, 32760, Note_on_c, 1, 59, 80
2, 32873, Note_on_c, 1, 59, 0
2, 32880, Note_on_c, 1, 64, 80
2, 32993, Note_on_c, 1, 64, 0
2, 33000, Note_on_c, 1, 67, 80
2, 33113, Note_on_c, 1, 67, 0
2, 33120, Note_on_c, 1, 59, 80
2, 33233, Note_on_c, 1, 59, 0
2, 33240, Note_on_c, 1, 64, 80
2, 33353, Note_on_c, 1, 64, 0
2, 33360, Note_on_c, 1, 67, 80
2, 33473, Note_on_c, 1, 67, 0
2, 33480, Note_on_c, 1, 71, 80
2, 33593, Note_on_c, 1, 71, 0
2, 33600, Note_on_c, 1, 76, 80
2, 33713, Note_on_c, 1, 76, 0
2, 33720, Note_on_c, 1, 79, 80
2, 33833, Note_on_c, 1, 79, 0
2, 33840, Note_on_c, 1, 83, 80
2, 34067, Note_on_c, 1, 83, 0
2, 34080, Note_on_c, 1, 64, 80
2, 34307, Note_on_c, 1, 64, 0
2, 34320, Note_on_c, 1, 59, 80
2, 34547, Note_on_c, 1, 59, 0
2, 34560, Note_on_c, 1, 52, 80
2, 34673, Note_on_c, 1, 52, 0
2, 34680, Note_on_c, 1, 55, 80
2, 34793, Note_on_c, 1, 55, 0
2, 34800, Note_on_c, 1, 60, 80
2, 34913, Note_on_c, 1, 60, 0
2, 34920, Note_on_c, 1, 64, 80
2, 35033, Note_on_c, 1, 64, 0
2, 35040, Note_on_c, 1, 60, 80
2, 35153, Note_on_c, 1, 60, 0
2, 35160, Note_on_c, 1, 55, 80
2, 35273, Note_on_c, 1, 55, 0
2, 35280, Note_on_c, 1, 52, 80
2, 35393, Note_on_c, 1, 52, 0
2, 35400, Note_on_c, 1, 55, 80
2, 35513, Note_on_c, 1, 55, 0
2, 35520, Note_on_c, 1, 60, 80
2, 35633, Note_on_c, 1, 60, 0
2, 35640, Note_on_c, 1, 64, 80
2, 35753, Note_on_c, 1, 64, 0
2, 35760, Note_on_c, 1, 60, 80
2, 35873, Note_on_c, 1, 60, 0
2, 35880, Note_on_c, 1, 55, 80
2, 35993, Note_on_c, 1, 55, 0
2, 36000, Note_on_c, 1, 52, 80
2, 36113, Note_on_c, 1, 52, 0
2, 36120, Note_on_c, 1, 55, 80
2, 36233, Note_on_c, 1, 55, 0
2, 36240, Note_on_c, 1, 60, 80
2, 36353, Note_on_c, 1, 60, 0
2, 36360, Note_on_c, 1, 64, 80
2, 36473, Note_on_c, 1, 64, 0
2, 36480, Note_on_c, 1, 60, 80
2, 36593, Note_on_c, 1, 60, 0
2, 36600, Note_on_c, 1, 55, 80
2, 36713, Note_on_c, 1, 55, 0
2, 36720, Note_on_c, 1, 52, 80
2, 36833, Note_on_c, 1, 52, 0
2, 36840, Note_on_c, 1, 55, 80
2, 36953, Note_on_c, 1, 55, 0
2, 36960, Note_on_c, 1, 60, 80
2, 37073, Note_on_c, 1, 60, 0
2, 37080, Note_on_c, 1, 62, 80
2, 37193, Note_on_c, 1, 62, 0
2, 37200, Note_on_c, 1, 60, 80
2, 37313, Note_on_c, 1, 60, 0
2, 37320, Note_on_c, 1, 55, 80
2, 37433, Note_on_c, 1, 55, 0
2, 37440, Note_on_c, 1, 52, 80
2, 37553, Note_on_c, 1, 52, 0
2, 37560, Note_on_c, 1, 55, 80
2, 37673, Note_on_c, 1, 55, 0
2, 37680, Note_on_c, 1, 59, 80
2, 37793, Note_on_c, 1, 59, 0
2, 37800, Note_on_c, 1, 64, 80
2, 37913, Note_on_c, 1, 64, 0
2, 37920, Note_on_c, 1, 59, 80
2, 38033, Note_on_c, 1, 59, 0
2, 38040, Note_on_c, 1, 55, 80
2, 38153, Note_on_c, 1, 55, 0
2, 38160, Note_on_c, 1, 52, 80
2, 38273, Note_on_c, 1, 52, 0
2, 38280, Note_on_c, 1, 55, 80
2, 38393, Note_on_c, 1, 55, 0
2, 38400, Note_on_c, 1, 59, 80
2, 38513, Note_on_c, 1, 59, 0
2, 38520, Note_on_c, 1, 64, 80
2, 38633, Note_on_c, 1, 64, 0
2, 38640, Note_on_c, 1, 59, 80
2, 38753, Note_on_c, 1, 59, 0
2, 38760, Note_on_c, 1, 55, 80
2, 38873, Note_on_c, 1, 55, 0
2, 38880, Note_on_c, 1, 52, 80
2, 38993, Note_on_c, 1, 52, 0
2, 39000, Note_on_c, 1, 55, 80
2, 39113, Note_on_c, 1, 55, 0
2, 39120, Note_on_c, 1, 59, 80
2, 39233, Note_on_c, 1, 59, 0
2, 39240, Note_on_c, 1, 64, 80
2, 39353, Note_on_c, 1, 64, 0
2, 39360, Note_on_c, 1, 59, 80
2, 39473, Note_on_c, 1, 59, 0
2, 39480, Note_on_c, 1, 55, 80
2, 39593, Note_on_c, 1, 55, 0
2, 39600, Note_on_c, 1, 52, 80
2, 39713, Note_on_c, 1, 52, 0
2, 39720, Note_on_c, 1, 55, 80
2, 39833, Note_on_c, 1, 55, 0
2, 39840, Note_on_c, 1, 59, 80
2, 39953, Note_on_c, 1, 59, 0
2, 39960, Note_on_c, 1, 64, 80
2, 40073, Note_on_c, 1, 64, 0
2, 40080, Note_on_c, 1, 59, 80
2, 40193, Note_on_c, 1, 59, 0
2, 40200, Note_on_c, 1, 55, 80
2, 40313, Note_on_c, 1, 55, 0
2, 40320, Note_on_c, 1, 52, 80
2, 40433, Note_on_c, 1, 52, 0
2, 40440, Note_on_c, 1, 55, 80
2, 40553, Note_on_c, 1, 55, 0
2, 40560, Note_on_c, 1, 60, 80
2, 40673, Note_on_c, 1, 60, 0
2, 40680, Note_on_c, 1, 64, 80
2, 40793, Note_on_c, 1, 64, 0
2, 40800, Note_on_c, 1, 60, 80
2, 40913, Note_on_c, 1, 60, 0
2, 40920, Note_on_c, 1, 55, 80
2, 41033, Note_on_c, 1, 55, 0
2, 41040, Note_on_c, 1, 52, 80
2, 41153, Note_on_c, 1, 52, 0
2, 41160, Note_on_c, 1, 55, 80
2, 41273, Note_on_c, 1, 55, 0
2, 41280, Note_on_c, 1, 60, 80
2, 41393, Note_on_c, 1, 60, 0
2, 41400, Note_on_c, 1, 64, 80
2, 41513, Note_on_c, 1, 64, 0
2, 41520, Note_on_c, 1, 60, 80
2, 41633, Note_on_c, 1, 60, 0
2, 41640, Note_on_c, 1, 55, 80
2, 41753, Note_on_c, 1, 55, 0
2, 41760, Note_on_c, 1, 52, 80
2, 41873, Note_on_c, 1, 52, 0
2, 41880, Note_on_c, 1, 55, 80
2, 41993, Note_on_c, 1, 55, 0
2, 42000, Note_on_c, 1, 60, 80
2, 42113, Note_on_c, 1, 60, 0
2, 42120, Note_on_c, 1, 64, 80
2, 42233, Note_on_c, 1, 64, 0
2, 42240, Note_on_c, 1, 60, 80
2, 42353, Note_on_c, 1, 60, 0
2, 42360, Note_on_c, 1, 55, 80
2, 42473, Note_on_c, 1, 55, 0
2, 42480, Note_on_c, 1, 52, 80
2, 42593, Note_on_c, 1, 52, 0
2, 42600, Note_on_c, 1, 55, 80
2, 42713, Note_on_c, 1, 55, 0
2, 42720, Note_on_c, 1, 60, 80
2, 42833, Note_on_c, 1, 60, 0
2, 42840, Note_on_c, 1, 64, 80
2, 42953, Note_on_c, 1, 64, 0
2, 42960, Note_on_c, 1, 60, 80
2, 43073, Note_on_c, 1, 60, 0
2, 43080, Note_on_c, 1, 55, 80
2, 43193, Note_on_c, 1, 55, 0
2, 43200, Note_on_c, 1, 50, 80
2, 43313, Note_on_c, 1, 50, 0
2, 43320, Note_on_c, 1, 55, 80
2, 43433, Note_on_c, 1, 55, 0
2, 43440, Note_on_c, 1, 59, 80
2, 43553, Note_on_c, 1, 59, 0
2, 43560, Note_on_c, 1, 62, 80
2, 43673, Note_on_c, 1, 62, 0
2, 43680, Note_on_c, 1, 59, 80
2, 43793, Note_on_c, 1, 59, 0
2, 43800, Note_on_c, 1, 55, 80
2, 43913, Note_on_c, 1, 55, 0
2, 43920, Note_on_c, 1, 50, 80
2, 44033, Note_on_c, 1, 50, 0
2, 44040, Note_on_c, 1, 55, 80
2, 44153, Note_on_c, 1, 55, 0
2, 44160, Note_on_c, 1, 59, 80
2, 44273, Note_on_c, 1, 59, 0
2, 44280, Note_on_c, 1, 62, 80
2, 44393, Note_on_c, 1, 62, 0
2, 44400, Note_on_c, 1, 59, 80
2, 44513, Note_on_c, 1, 59, 0
2, 44520, Note_on_c, 1, 55, 80
2, 44633, Note_on_c, 1, 55, 0
2, 44640, Note_on_c, 1, 50, 80
2, 44753, Note_on_c, 1, 50, 0
2, 44760, Note_on_c, 1, 57, 80
2, 44873, Note_on_c, 1, 57, 0
2, 44880, Note_on_c, 1, 62, 80
2, 44993, Note_on_c, 1, 62, 0
2, 45000, Note_on_c, 1, 57, 80
2, 45113, Note_on_c, 1, 57, 0
2, 45120, Note_on_c, 1, 62, 80
2, 45233, Note_on_c, 1, 62, 0
2, 45240, Note_on_c, 1, 57, 80
2, 45353, Note_on_c, 1, 57, 0
2, 45360, Note_on_c, 1, 50, 80
2, 45473, Note_on_c, 1, 50, 0
2, 45480, Note_on_c, 1, 57, 80
2, 45593, Note_on_c, 1, 57, 0
2, 45600, Note_on_c, 1, 62, 80
2, 45713, Note_on_c, 1, 62, 0
2, 45720, Note_on_c, 1, 57, 80
2, 45833, Note_on_c, 1, 57, 0
2, 45840, Note_on_c, 1, 62, 80
2, 45953, Note_on_c, 1, 62, 0
2, 45960, Note_on_c, 1, 57, 80
2, 46073, Note_on_c, 1, 57, 0
2, 46080, Note_on_c, 1, 50, 80
2, 46193, Note_on_c, 1, 50, 0
2, 46200, Note_on_c, 1, 55, 80
2, 46313, Note_on_c, 1, 55, 0
2, 46320, Note_on_c, 1, 59, 80
2, 46433, Note_on_c, 1, 59, 0
2, 46440, Note_on_c, 1, 62, 80
2, 46553, Note_on_c, 1, 62, 0
2, 46560, Note_on_c, 1, 59, 80
2, 46673, Note_on_c, 1, 59, 0
2, 46680, Note_on_c, 1, 55, 80
2, 46793, Note_on_c, 1, 55, 0
2, 46800, Note_on_c, 1, 50, 80
2, 46913, Note_on_c, 1, 50, 0
2, 46920, Note_on_c, 1, 55, 80
2, 47033, Note_on_c, 1, 55, 0
2, 47040, Note_on_c, 1, 59, 80
2, 47153, Note_on_c, 1, 59, 0
2, 47160, Note_on_c, 1, 62, 80
2, 47273, Note_on_c, 1, 62, 0
2, 47280, Note_on_c, 1, 59, 80
2, 47393, Note_on_c, 1, 59, 0
2, 47400, Note_on_c, 1, 55, 80
2, 47513, Note_on_c, 1, 55, 0
2, 47520, Note_on_c, 1, 50, 80
2, 47633, Note_on_c, 1, 50, 0
2, 47640, Note_on_c, 1, 57, 80
2, 47753, Note_on_c, 1, 57, 0
2, 47760, Note_on_c, 1, 62, 80
2, 47873, Note_on_c, 1, 62, 0
2, 47880, Note_on_c, 1, 57, 80
2, 47993, Note_on_c, 1, 57, 0
2, 48000, Note_on_c, 1, 62, 80
2, 48113, Note_on_c, 1, 62, 0
2, 48120, Note_on_c, 1, 57, 80
2, 48233, Note_on_c, 1, 57, 0
2, 48240, Note_on_c, 1, 50, 80
2, 48353, Note_on_c, 1, 50, 0
2, 48360, Note_on_c, 1, 57, 80
2, 48473, Note_on_c, 1, 57, 0
2, 48480, Note_on_c, 1, 62, 80
2, 48593, Note_on_c, 1, 62, 0
2, 48600, Note_on_c, 1, 57, 80
2, 48713, Note_on_c, 1, 57, 0
2, 48720, Note_on_c, 1, 62, 80
2, 48833, Note_on_c, 1, 62, 0
2, 48840, Note_on_c, 1, 57, 80
2, 48953, Note_on_c, 1, 57, 0
2, 48960, Note_on_c, 1, 52, 80
2, 49073, Note_on_c, 1, 52, 0
2, 49080, Note_on_c, 1, 55, 80
2, 49193, Note_on_c, 1, 55, 0
2, 49200, Note_on_c, 1, 59, 80
2, 49313, Note_on_c, 1, 59, 0
2, 49320, Note_on_c, 1, 64, 80
2, 49433, Note_on_c, 1, 64, 0
2, 49440, Note_on_c, 1, 59, 80
2, 49553, Note_on_c, 1, 59, 0
2, 49560, Note_on_c, 1, 55, 80
2, 49673, Note_on_c, 1, 55, 0
2, 49680, Note_on_c, 1, 52, 80
2, 50135, Note_on_c, 1, 52, 0
2, 50160, Note_on_c, 1, 59, 80
2, 50387, Note_on_c, 1, 59, 0
2, 50400, Note_on_c, 1, 59, 80
2, 50640, Note_on_c, 1, 50, 80
2, 50867, Note_on_c, 1, 50, 0
2, 50880, Note_on_c, 1, 55, 80
2, 51083, Note_on_c, 1, 59, 0
2, 51107, Note_on_c, 1, 55, 0
2, 51120, Note_on_c, 1, 62, 80
2, 51360, Note_on_c, 1, 59, 80
2, 51587, Note_on_c, 1, 59, 0
2, 51600, Note_on_c, 1, 55, 80
2, 51803, Note_on_c, 1, 62, 0
2, 51827, Note_on_c, 1, 55, 0
2, 51840, Note_on_c, 1, 59, 80
2, 52080, Note_on_c, 1, 52, 80
2, 52307, Note_on_c, 1, 52, 0
2, 52320, Note_on_c, 1, 55, 80
2, 52523, Note_on_c, 1, 59, 0
2, 52547, Note_on_c, 1, 55, 0
2, 52560, Note_on_c, 1, 64, 80
2, 52800, Note_on_c, 1, 59, 80
2, 53027, Note_on_c, 1, 59, 0
2, 53040, Note_on_c, 1, 55, 80
2, 53243, Note_on_c, 1, 64, 0
2, 53267, Note_on_c, 1, 55, 0
2, 53280, Note_on_c, 1, 59, 80
2, 53520, Note_on_c, 1, 50, 80
2, 53747, Note_on_c, 1, 50, 0
2, 53760, Note_on_c, 1, 55, 80
2, 53963, Note_on_c, 1, 59, 0
2, 53987, Note_on_c, 1, 55, 0
2, 54000, Note_on_c, 1, 62, 80
2, 54240, Note_on_c, 1, 59, 80
2, 54467, Note_on_c, 1, 59, 0
2, 54480, Note_on_c, 1, 55, 80
2, 54683, Note_on_c, 1, 62, 0
2, 54707, Note_on_c, 1, 55, 0
2, 54720, Note_on_c, 1, 59, 80
2, 54960, Note_on_c, 1, 52, 80
2, 55187, Note_on_c, 1, 52, 0
2, 55200, Note_on_c, 1, 55, 80
2, 55403, Note_on_c, 1, 59, 0
2, 55427, Note_on_c, 1, 55, 0
2, 55440, Note_on_c, 1, 64, 80
2, 55680, Note_on_c, 1, 59, 80
2, 55907, Note_on_c, 1, 59, 0
2, 55920, Note_on_c, 1, 55, 80
2, 56123, Note_on_c, 1, 64, 0
2, 56147, Note_on_c, 1, 55, 0
2, 56160, Note_on_c, 1, 60, 80
2, 56400, Note_on_c, 1, 52, 80
2, 56627, Note_on_c, 1, 52, 0
2, 56640, Note_on_c, 1, 55, 80
2, 56843, Note_on_c, 1, 60, 0
2, 56867, Note_on_c, 1, 55, 0
2, 56880, Note_on_c, 1, 64, 80
2, 57120, Note_on_c, 1, 60, 80
2, 57347, Note_on_c, 1, 60, 0
2, 57360, Note_on_c, 1, 55, 80
2, 57563, Note_on_c, 1, 64, 0
2, 57587, Note_on_c, 1, 55, 0
2, 57600, Note_on_c, 1, 50, 80
2, 57827, Note_on_c, 1, 50, 0
2, 57840, Note_on_c, 1, 57, 80
2, 58067, Note_on_c, 1, 57, 0
2, 58080, Note_on_c, 1, 62, 80
2, 58307, Note_on_c, 1, 62, 0
2, 58320, Note_on_c, 1, 50, 80
2, 58547, Note_on_c, 1, 50, 0
2, 58560, Note_on_c, 1, 57, 80
2, 58787, Note_on_c, 1, 57, 0
2, 58800, Note_on_c, 1, 62, 80
2, 59027, Note_on_c, 1, 62, 0
2, 59040, Note_on_c, 1, 59, 80
2, 59280, Note_on_c, 1, 50, 80
2, 59507, Note_on_c, 1, 50, 0
2, 59520, Note_on_c, 1, 55, 80
2, 59723, Note_on_c, 1, 59, 0
2, 59747, Note_on_c, 1, 55, 0
2, 59760, Note_on_c, 1, 62, 80
2, 60000, Note_on_c, 1, 59, 80
2, 60227, Note_on_c, 1, 59, 0
2, 60240, Note_on_c, 1, 55, 80
2, 60443, Note_on_c, 1, 62, 0
2, 60467, Note_on_c, 1, 55, 0
2, 60480, Note_on_c, 1, 50, 80
2, 60707, Note_on_c, 1, 50, 0
2, 60720, Note_on_c, 1, 57, 80
2, 60947, Note_on_c, 1, 57, 0
2, 60960, Note_on_c, 1, 62, 80
2, 61187, Note_on_c, 1, 62, 0
2, 61200, Note_on_c, 1, 50, 80
2, 61427, Note_on_c, 1, 50, 0
2, 61440, Note_on_c, 1, 57, 80
2, 61667, Note_on_c, 1, 57, 0
2, 61680, Note_on_c, 1, 62, 80
2, 61793, Note_on_c, 1, 62, 0
2, 61800, Note_on_c, 1, 59, 80
2, 61859, Note_on_c, 1, 59, 0
2, 62160, Note_on_c, 1, 50, 80
2, 62387, Note_on_c, 1, 50, 0
2, 62400, Note_on_c, 1, 55, 80
2, 62627, Note_on_c, 1, 55, 0
2, 62640, Note_on_c, 1, 62, 80
2, 62880, Note_on_c, 1, 59, 80
2, 63107, Note_on_c, 1, 59, 0
2, 63120, Note_on_c, 1, 55, 80
2, 63323, Note_on_c, 1, 62, 0
2, 63347, Note_on_c, 1, 55, 0
2, 63360, Note_on_c, 1, 60, 80
2, 63600, Note_on_c, 1, 55, 80
2, 63719, Note_on_c, 1, 60, 0
2, 63827, Note_on_c, 1, 55, 0
2, 63840, Note_on_c, 1, 60, 80
2, 64067, Note_on_c, 1, 60, 0
2, 64080, Note_on_c, 1, 62, 80
2, 64307, Note_on_c, 1, 62, 0
2, 64320, Note_on_c, 1, 57, 80
2, 64547, Note_on_c, 1, 57, 0
2, 64560, Note_on_c, 1, 62, 80
2, 64787, Note_on_c, 1, 62, 0
2, 64800, Note_on_c, 1, 59, 80
2, 65040, Note_on_c, 1, 52, 80
2, 65267, Note_on_c, 1, 52, 0
2, 65280, Note_on_c, 1, 55, 80
2, 65483, Note_on_c, 1, 59, 0
2, 65507, Note_on_c, 1, 55, 0
2, 65520, Note_on_c, 1, 64, 80
2, 65760, Note_on_c, 1, 59, 80
2, 65987, Note_on_c, 1, 59, 0
2, 66000, Note_on_c, 1, 55, 80
2, 66203, Note_on_c, 1, 64, 0
2, 66227, Note_on_c, 1, 55, 0
2, 66240, Note_on_c, 1, 60, 80
2, 66480, Note_on_c, 1, 52, 80
2, 66707, Note_on_c, 1, 52, 0
2, 66720, Note_on_c, 1, 55, 80
2, 66923, Note_on_c, 1, 60, 0
2, 66947, Note_on_c, 1, 55, 0
2, 66960, Note_on_c, 1, 64, 80
2, 67200, Note_on_c, 1, 60, 80
2, 67427, Note_on_c, 1, 60, 0
2, 67440, Note_on_c, 1, 55, 80
2, 67643, Note_on_c, 1, 64, 0
2, 67667, Note_on_c, 1, 55, 0
2, 67680, Note_on_c, 1, 50, 80
2, 67907, Note_on_c, 1, 50, 0
2, 67920, Note_on_c, 1, 57, 80
2, 68147, Note_on_c, 1, 57, 0
2, 68160, Note_on_c, 1, 62, 80
2, 68387, Note_on_c, 1, 62, 0
2, 68400, Note_on_c, 1, 50, 80
2, 68627, Note_on_c, 1, 50, 0
2, 68640, Note_on_c, 1, 57, 80
2, 68867, Note_on_c, 1, 57, 0
2, 68880, Note_on_c, 1, 62, 80
2, 69107, Note_on_c, 1, 62, 0
2, 69120, Note_on_c, 1, 50, 80
2, 69347, Note_on_c, 1, 50, 0
2, 69360, Note_on_c, 1, 57, 80
2, 69587, Note_on_c, 1, 57, 0
2, 69600, Note_on_c, 1, 62, 80
2, 69827, Note_on_c, 1, 62, 0
2, 69840, Note_on_c, 1, 50, 80
2, 70067, Note_on_c, 1, 50, 0
2, 70080, Note_on_c, 1, 57, 80
2, 70307, Note_on_c, 1, 57, 0
2, 70320, Note_on_c, 1, 62, 80
2, 70547, Note_on_c, 1, 62, 0
2, 70560, Note_on_c, 1, 59, 80
2, 70800, Note_on_c, 1, 52, 80
2, 71027, Note_on_c, 1, 52, 0
2, 71040, Note_on_c, 1, 55, 80
2, 71243, Note_on_c, 1, 59, 0
2, 71267, Note_on_c, 1, 55, 0
2, 71280, Note_on_c, 1, 64, 80
2, 71520, Note_on_c, 1, 55, 80
2, 71747, Note_on_c, 1, 55, 0
2, 71760, Note_on_c, 1, 52, 80
2, 71963, Note_on_c, 1, 64, 0
2, 71987, Note_on_c, 1, 52, 0
2, 72000, Note_on_c, 1, 59, 80
2, 72683, Note_on_c, 1, 59, 0
2, 73440, Note_on_c, 1, 60, 70
2, 73667, Note_on_c, 1, 60, 0
2, 73680, Note_on_c, 1, 52, 80
2, 73907, Note_on_c, 1, 52, 0
2, 73920, Note_on_c, 1, 55, 80
2, 74147, Note_on_c, 1, 55, 0
2, 74160, Note_on_c, 1, 64, 70
2, 74400, Note_on_c, 1, 60, 70
2, 74627, Note_on_c, 1, 60, 0
2, 74640, Note_on_c, 1, 55, 70
2, 74843, Note_on_c, 1, 64, 0
2, 74867, Note_on_c, 1, 55, 0
2, 74880, Note_on_c, 1, 60, 70
2, 75120, Note_on_c, 1, 52, 70
2, 75347, Note_on_c, 1, 52, 0
2, 75360, Note_on_c, 1, 55, 70
2, 75563, Note_on_c, 1, 60, 0
2, 75587, Note_on_c, 1, 55, 0
2, 75600, Note_on_c, 1, 64, 70
2, 75840, Note_on_c, 1, 60, 70
2, 76067, Note_on_c, 1, 60, 0
2, 76080, Note_on_c, 1, 55, 70
2, 76283, Note_on_c, 1, 64, 0
2, 76307, Note_on_c, 1, 55, 0
2, 76320, Note_on_c, 1, 59, 70
2, 76560, Note_on_c, 1, 52, 70
2, 76787, Note_on_c, 1, 52, 0
2, 76800, Note_on_c, 1, 55, 70
2, 77003, Note_on_c, 1, 59, 0
2, 77027, Note_on_c, 1, 55, 0
2, 77040, Note_on_c, 1, 64, 70
2, 77280, Note_on_c, 1, 59, 70
2, 77507, Note_on_c, 1, 59, 0
2, 77520, Note_on_c, 1, 55, 70
2, 77723, Note_on_c, 1, 64, 0
2, 77747, Note_on_c, 1, 55, 0
2, 77760, Note_on_c, 1, 59, 70
2, 78000, Note_on_c, 1, 52, 70
2, 78227, Note_on_c, 1, 52, 0
2, 78240, Note_on_c, 1, 55, 70
2, 78443, Note_on_c, 1, 59, 0
2, 78467, Note_on_c, 1, 55, 0
2, 78480, Note_on_c, 1, 64, 70
2, 78720, Note_on_c, 1, 59, 70
2, 78947, Note_on_c, 1, 59, 0
2, 78960, Note_on_c, 1, 55, 70
2, 79163, Note_on_c, 1, 64, 0
2, 79187, Note_on_c, 1, 55, 0
2, 79200, Note_on_c, 1, 60, 70
2, 79440, Note_on_c, 1, 52, 70
2, 79667, Note_on_c, 1, 52, 0
2, 79680, Note_on_c, 1, 55, 70
2, 79883, Note_on_c, 1, 60, 0
2, 79907, Note_on_c, 1, 55, 0
2, 79920, Note_on_c, 1, 64, 70
2, 80160, Note_on_c, 1, 60, 70
2, 80387, Note_on_c, 1, 60, 0
2, 80400, Note_on_c, 1, 55, 70
2, 80603, Note_on_c, 1, 64, 0
2, 80627, Note_on_c, 1, 55, 0
2, 80640, Note_on_c, 1, 60, 70
2, 80880, Note_on_c, 1, 52, 70
2, 81107, Note_on_c, 1, 52, 0
2, 81120, Note_on_c, 1, 55, 70
2, 81323, Note_on_c, 1, 60, 0
2, 81347, Note_on_c, 1, 55, 0
2, 81360, Note_on_c, 1, 64, 70
2, 81600, Note_on_c, 1, 60, 70
2, 81827, Note_on_c, 1, 60, 0
2, 81840, Note_on_c, 1, 55, 70
2, 82043, Note_on_c, 1, 64, 0
2, 82067, Note_on_c, 1, 55, 0
2, 82080, Note_on_c, 1, 59, 80
2, 82307, Note_on_c, 1, 59, 0
2, 82320, Note_on_c, 1, 50, 80
2, 82547, Note_on_c, 1, 50, 0
2, 82560, Note_on_c, 1, 55, 80
2, 82787, Note_on_c, 1, 55, 0
2, 82800, Note_on_c, 1, 62, 80
2, 83027, Note_on_c, 1, 62, 0
2, 83040, Note_on_c, 1, 55, 80
2, 83267, Note_on_c, 1, 55, 0
2, 83280, Note_on_c, 1, 50, 80
2, 83507, Note_on_c, 1, 50, 0
2, 83520, Note_on_c, 1, 50, 80
2, 83760, Note_on_c, 1, 57, 80
2, 83987, Note_on_c, 1, 57, 0
2, 84000, Note_on_c, 1, 62, 80
2, 84203, Note_on_c, 1, 50, 0
2, 84227, Note_on_c, 1, 62, 0
2, 84240, Note_on_c, 1, 50, 80
2, 84467, Note_on_c, 1, 50, 0
2, 84480, Note_on_c, 1, 57, 80
2, 84707, Note_on_c, 1, 57, 0
2, 84720, Note_on_c, 1, 62, 80
2, 84947, Note_on_c, 1, 62, 0
2, 84960, Note_on_c, 1, 59, 70
2, 85200, Note_on_c, 1, 50, 70
2, 85427, Note_on_c, 1, 50, 0
2, 85440, Note_on_c, 1, 55, 70
2, 85643, Note_on_c, 1, 59, 0
2, 85667, Note_on_c, 1, 55, 0
2, 85680, Note_on_c, 1, 62, 70
2, 85920, Note_on_c, 1, 59, 70
2, 86147, Note_on_c, 1, 59, 0
2, 86160, Note_on_c, 1, 55, 70
2, 86363, Note_on_c, 1, 62, 0
2, 86387, Note_on_c, 1, 55, 0
2, 86400, Note_on_c, 1, 50, 80
2, 86640, Note_on_c, 1, 57, 80
2, 86867, Note_on_c, 1, 57, 0
2, 86880, Note_on_c, 1, 62, 80
2, 87083, Note_on_c, 1, 50, 0
2, 87107, Note_on_c, 1, 62, 0
2, 87120, Note_on_c, 1, 50, 80
2, 87347, Note_on_c, 1, 50, 0
2, 87360, Note_on_c, 1, 57, 80
2, 87587, Note_on_c, 1, 57, 0
2, 87600, Note_on_c, 1, 62, 80
2, 87827, Note_on_c, 1, 62, 0
2, 87840, Note_on_c, 1, 55, 80
2, 87840, Note_on_c, 1, 59, 80
2, 87840, Note_on_c, 1, 62, 80
2, 89207, Note_on_c, 1, 55, 0
2, 89207, Note_on_c, 1, 59, 0
2, 89207, Note_on_c, 1, 62, 0
2, 89208, End_track
3, 0, Start_track
3, 0, Title_t, "Electric Bass, Bass\000"
3, 0, Key_signature, 0, "major"
3, 0, Control_c, 2, 121, 0
3, 0, Program_c, 2, 33
3, 0, Control_c, 2, 7, 100
3, 0, Control_c, 2, 10, 64
3, 0, Control_c, 2, 91, 0
3, 0, Control_c, 2, 93, 0
3, 0, MIDI_port, 0
3, 0, Control_c, 1, 121, 0
3, 0, Program_c, 1, 36
3, 0, Control_c, 1, 7, 100
3, 0, Control_c, 1, 10, 64
3, 0, Control_c, 1, 91, 0
3, 0, Control_c, 1, 93, 0
3, 0, MIDI_port, 0
3, 0, Control_c, 4, 121, 0
3, 0, Program_c, 4, 37
3, 0, Control_c, 4, 7, 100
3, 0, Control_c, 4, 10, 64
3, 0, Control_c, 4, 91, 0
3, 0, Control_c, 4, 93, 0
3, 0, MIDI_port, 0
3, 5760, Note_on_c, 2, 55, 80
3, 6959, Note_on_c, 2, 55, 0
3, 6960, Note_on_c, 2, 59, 80
3, 7199, Note_on_c, 2, 59, 0
3, 7200, Note_on_c, 2, 64, 80
3, 8399, Note_on_c, 2, 64, 0
3, 8400, Note_on_c, 2, 62, 80
3, 8639, Note_on_c, 2, 62, 0
3, 8640, Note_on_c, 2, 55, 80
3, 9839, Note_on_c, 2, 55, 0
3, 9840, Note_on_c, 2, 59, 80
3, 10079, Note_on_c, 2, 59, 0
3, 10080, Note_on_c, 2, 64, 80
3, 11039, Note_on_c, 2, 64, 0
3, 11040, Note_on_c, 2, 64, 80
3, 11279, Note_on_c, 2, 64, 0
3, 11280, Note_on_c, 2, 62, 80
3, 11519, Note_on_c, 2, 62, 0
3, 11520, Note_on_c, 2, 55, 80
3, 12719, Note_on_c, 2, 55, 0
3, 12720, Note_on_c, 2, 59, 80
3, 12959, Note_on_c, 2, 59, 0
3, 12960, Note_on_c, 2, 64, 80
3, 14159, Note_on_c, 2, 64, 0
3, 14160, Note_on_c, 2, 62, 80
3, 14399, Note_on_c, 2, 62, 0
3, 14400, Note_on_c, 2, 55, 80
3, 15599, Note_on_c, 2, 55, 0
3, 15600, Note_on_c, 2, 59, 80
3, 15839, Note_on_c, 2, 59, 0
3, 15840, Note_on_c, 2, 64, 80
3, 17039, Note_on_c, 2, 64, 0
3, 17040, Note_on_c, 2, 62, 80
3, 17279, Note_on_c, 2, 62, 0
3, 17280, Note_on_c, 2, 60, 80
3, 18479, Note_on_c, 2, 60, 0
3, 18480, Note_on_c, 2, 64, 80
3, 18719, Note_on_c, 2, 64, 0
3, 18720, Note_on_c, 2, 62, 80
3, 19919, Note_on_c, 2, 62, 0
3, 19920, Note_on_c, 2, 62, 80
3, 20159, Note_on_c, 2, 62, 0
3, 20160, Note_on_c, 2, 55, 80
3, 21359, Note_on_c, 2, 55, 0
3, 21360, Note_on_c, 2, 59, 80
3, 21599, Note_on_c, 2, 59, 0
3, 21600, Note_on_c, 2, 62, 80
3, 22799, Note_on_c, 2, 62, 0
3, 22800, Note_on_c, 2, 62, 80
3, 23039, Note_on_c, 2, 62, 0
3, 23040, Note_on_c, 2, 55, 80
3, 24239, Note_on_c, 2, 55, 0
3, 24240, Note_on_c, 2, 55, 80
3, 24479, Note_on_c, 2, 55, 0
3, 24480, Note_on_c, 2, 60, 80
3, 25199, Note_on_c, 2, 60, 0
3, 25200, Note_on_c, 2, 62, 80
3, 25919, Note_on_c, 2, 62, 0
3, 25920, Note_on_c, 2, 64, 80
3, 27119, Note_on_c, 2, 64, 0
3, 27120, Note_on_c, 2, 59, 80
3, 27359, Note_on_c, 2, 59, 0
3, 27360, Note_on_c, 2, 60, 80
3, 28559, Note_on_c, 2, 60, 0
3, 28560, Note_on_c, 2, 64, 80
3, 28799, Note_on_c, 2, 64, 0
3, 28800, Note_on_c, 2, 62, 80
3, 29999, Note_on_c, 2, 62, 0
3, 30000, Note_on_c, 2, 62, 80
3, 30239, Note_on_c, 2, 62, 0
3, 30240, Note_on_c, 2, 59, 80
3, 31439, Note_on_c, 2, 59, 0
3, 31440, Note_on_c, 2, 62, 80
3, 31679, Note_on_c, 2, 62, 0
3, 31680, Note_on_c, 2, 64, 80
3, 32879, Note_on_c, 2, 64, 0
3, 32880, Note_on_c, 2, 64, 80
3, 33119, Note_on_c, 2, 64, 0
3, 33120, Note_on_c, 2, 64, 80
3, 33839, Note_on_c, 2, 64, 0
3, 34560, Note_on_c, 2, 60, 80
3, 35759, Note_on_c, 2, 60, 0
3, 35760, Note_on_c, 2, 60, 80
3, 35999, Note_on_c, 2, 60, 0
3, 36000, Note_on_c, 2, 60, 80
3, 37199, Note_on_c, 2, 60, 0
3, 37200, Note_on_c, 2, 60, 80
3, 37439, Note_on_c, 2, 60, 0
3, 37440, Note_on_c, 2, 64, 80
3, 38639, Note_on_c, 2, 64, 0
3, 38640, Note_on_c, 2, 59, 80
3, 38879, Note_on_c, 2, 59, 0
3, 38880, Note_on_c, 2, 64, 80
3, 40079, Note_on_c, 2, 64, 0
3, 40080, Note_on_c, 2, 62, 80
3, 40319, Note_on_c, 2, 62, 0
3, 40320, Note_on_c, 2, 60, 80
3, 41519, Note_on_c, 2, 60, 0
3, 41520, Note_on_c, 2, 64, 80
3, 41759, Note_on_c, 2, 64, 0
3, 41760, Note_on_c, 2, 60, 80
3, 42959, Note_on_c, 2, 60, 0
3, 42960, Note_on_c, 2, 64, 80
3, 43199, Note_on_c, 2, 64, 0
3, 43200, Note_on_c, 2, 55, 80
3, 44399, Note_on_c, 2, 55, 0
3, 44400, Note_on_c, 2, 55, 80
3, 44639, Note_on_c, 2, 55, 0
3, 44640, Note_on_c, 2, 62, 80
3, 45839, Note_on_c, 2, 62, 0
3, 45840, Note_on_c, 2, 62, 80
3, 46079, Note_on_c, 2, 62, 0
3, 46080, Note_on_c, 2, 55, 80
3, 47279, Note_on_c, 2, 55, 0
3, 47280, Note_on_c, 2, 59, 80
3, 47519, Note_on_c, 2, 59, 0
3, 47520, Note_on_c, 2, 50, 80
3, 48719, Note_on_c, 2, 50, 0
3, 48720, Note_on_c, 2, 50, 80
3, 48959, Note_on_c, 2, 50, 0
3, 48960, Note_on_c, 2, 52, 80
3, 50159, Note_on_c, 2, 52, 0
3, 50160, Note_on_c, 2, 52, 80
3, 50399, Note_on_c, 2, 52, 0
3, 50400, Note_on_c, 2, 55, 80
3, 51599, Note_on_c, 2, 55, 0
3, 51600, Note_on_c, 2, 59, 80
3, 51839, Note_on_c, 2, 59, 0
3, 51840, Note_on_c, 2, 64, 80
3, 53039, Note_on_c, 2, 64, 0
3, 53040, Note_on_c, 2, 62, 80
3, 53279, Note_on_c, 2, 62, 0
3, 53280, Note_on_c, 2, 55, 80
3, 54479, Note_on_c, 2, 55, 0
3, 54480, Note_on_c, 2, 59, 80
3, 54719, Note_on_c, 2, 59, 0
3, 54720, Note_on_c, 2, 64, 80
3, 55919, Note_on_c, 2, 64, 0
3, 55920, Note_on_c, 2, 64, 80
3, 56159, Note_on_c, 2, 64, 0
3, 56160, Note_on_c, 2, 60, 80
3, 57359, Note_on_c, 2, 60, 0
3, 57360, Note_on_c, 2, 64, 80
3, 57599, Note_on_c, 2, 64, 0
3, 57600, Note_on_c, 2, 62, 80
3, 58799, Note_on_c, 2, 62, 0
3, 58800, Note_on_c, 2, 62, 80
3, 59039, Note_on_c, 2, 62, 0
3, 59040, Note_on_c, 2, 55, 80
3, 60239, Note_on_c, 2, 55, 0
3, 60240, Note_on_c, 2, 59, 80
3, 60479, Note_on_c, 2, 59, 0
3, 60480, Note_on_c, 2, 62, 80
3, 61679, Note_on_c, 2, 62, 0
3, 61680, Note_on_c, 2, 62, 80
3, 61919, Note_on_c, 2, 62, 0
3, 61920, Note_on_c, 2, 67, 80
3, 63119, Note_on_c, 2, 67, 0
3, 63120, Note_on_c, 2, 62, 80
3, 63359, Note_on_c, 2, 62, 0
3, 63360, Note_on_c, 2, 60, 80
3, 64079, Note_on_c, 2, 60, 0
3, 64080, Note_on_c, 2, 62, 80
3, 64799, Note_on_c, 2, 62, 0
3, 64800, Note_on_c, 2, 64, 80
3, 65999, Note_on_c, 2, 64, 0
3, 66000, Note_on_c, 2, 62, 80
3, 66239, Note_on_c, 2, 62, 0
3, 66240, Note_on_c, 2, 60, 80
3, 67439, Note_on_c, 2, 60, 0
3, 67440, Note_on_c, 2, 64, 80
3, 67679, Note_on_c, 2, 64, 0
3, 67680, Note_on_c, 2, 62, 80
3, 68879, Note_on_c, 2, 62, 0
3, 68880, Note_on_c, 2, 62, 80
3, 69119, Note_on_c, 2, 62, 0
3, 69120, Note_on_c, 2, 59, 80
3, 70319, Note_on_c, 2, 59, 0
3, 70320, Note_on_c, 2, 62, 80
3, 70559, Note_on_c, 2, 62, 0
3, 70560, Note_on_c, 2, 64, 80
3, 71759, Note_on_c, 2, 64, 0
3, 71760, Note_on_c, 2, 64, 80
3, 71999, Note_on_c, 2, 64, 0
3, 72000, Note_on_c, 2, 59, 80
3, 72719, Note_on_c, 2, 59, 0
3, 73440, Note_on_c, 2, 48, 76
3, 74639, Note_on_c, 2, 48, 0
3, 74640, Note_on_c, 2, 52, 76
3, 74879, Note_on_c, 2, 52, 0
3, 74880, Note_on_c, 2, 48, 76
3, 76079, Note_on_c, 2, 48, 0
3, 76080, Note_on_c, 2, 52, 76
3, 76319, Note_on_c, 2, 52, 0
3, 76320, Note_on_c, 2, 52, 76
3, 77519, Note_on_c, 2, 52, 0
3, 77520, Note_on_c, 2, 55, 80
3, 77759, Note_on_c, 2, 55, 0
3, 77760, Note_on_c, 2, 52, 76
3, 78959, Note_on_c, 2, 52, 0
3, 78960, Note_on_c, 2, 55, 80
3, 79199, Note_on_c, 2, 55, 0
3, 79200, Note_on_c, 2, 48, 76
3, 80399, Note_on_c, 2, 48, 0
3, 80400, Note_on_c, 2, 52, 76
3, 80639, Note_on_c, 2, 52, 0
3, 80640, Note_on_c, 2, 48, 76
3, 81839, Note_on_c, 2, 48, 0
3, 81840, Note_on_c, 2, 52, 76
3, 82079, Note_on_c, 2, 52, 0
3, 82080, Note_on_c, 2, 55, 76
3, 83279, Note_on_c, 2, 55, 0
3, 83280, Note_on_c, 2, 55, 76
3, 83519, Note_on_c, 2, 55, 0
3, 83520, Note_on_c, 2, 50, 80
3, 84719, Note_on_c, 2, 50, 0
3, 84720, Note_on_c, 2, 50, 80
3, 84959, Note_on_c, 2, 50, 0
3, 84960, Note_on_c, 2, 55, 80
3, 86159, Note_on_c, 2, 55, 0
3, 86160, Note_on_c, 2, 55, 80
3, 86399, Note_on_c, 2, 55, 0
3, 86400, Note_on_c, 2, 50, 80
3, 87599, Note_on_c, 2, 50, 0
3, 87600, Note_on_c, 2, 50, 80
3, 87839, Note_on_c, 2, 50, 0
3, 87840, Note_on_c, 2, 55, 80
3, 89279, Note_on_c, 2, 55, 0
3, 89280, End_track
4, 0, Start_track
4, 0, Title_t, "Bell\000"
4, 0, Key_signature, 0, "major"
4, 0, Control_c, 6, 121, 0
4, 0, Program_c, 6, 14
4, 0, Control_c, 6, 7, 100
4, 0, Control_c, 6, 10, 64
4, 0, Control_c, 6, 91, 0
4, 0, Control_c, 6, 93, 0
4, 0, MIDI_port, 0
4, 1, End_track
5, 0, Start_track
5, 0, Title_t, "Classical Guitar, Classical Guitar\000"
5, 0, Key_signature, 0, "major"
5, 0, Control_c, 3, 121, 0
5, 0, Program_c, 3, 24
5, 0, Control_c, 3, 7, 80
5, 0, Control_c, 3, 10, 64
5, 0, Control_c, 3, 91, 0
5, 0, Control_c, 3, 93, 0
5, 0, MIDI_port, 0
5, 0, Control_c, 5, 121, 0
5, 0, Program_c, 5, 28
5, 0, Control_c, 5, 7, 100
5, 0, Control_c, 5, 10, 64
5, 0, Control_c, 5, 91, 0
5, 0, Control_c, 5, 93, 0
5, 0, MIDI_port, 0
5, 5760, Note_on_c, 3, 50, 80
5, 5760, Note_on_c, 3, 55, 80
5, 5760, Note_on_c, 3, 59, 80
5, 6239, Note_on_c, 3, 50, 0
5, 6239, Note_on_c, 3, 55, 0
5, 6239, Note_on_c, 3, 59, 0
5, 6240, Note_on_c, 3, 50, 80
5, 6240, Note_on_c, 3, 55, 80
5, 6240, Note_on_c, 3, 59, 80
5, 6479, Note_on_c, 3, 50, 0
5, 6479, Note_on_c, 3, 55, 0
5, 6479, Note_on_c, 3, 59, 0
5, 6480, Note_on_c, 3, 50, 80
5, 6480, Note_on_c, 3, 55, 80
5, 6480, Note_on_c, 3, 59, 80
5, 6959, Note_on_c, 3, 50, 0
5, 6959, Note_on_c, 3, 55, 0
5, 6959, Note_on_c, 3, 59, 0
5, 6960, Note_on_c, 3, 50, 80
5, 6960, Note_on_c, 3, 55, 80
5, 6960, Note_on_c, 3, 59, 80
5, 7199, Note_on_c, 3, 50, 0
5, 7199, Note_on_c, 3, 55, 0
5, 7199, Note_on_c, 3, 59, 0
5, 7200, Note_on_c, 3, 52, 80
5, 7200, Note_on_c, 3, 55, 80
5, 7200, Note_on_c, 3, 59, 80
5, 7679, Note_on_c, 3, 52, 0
5, 7679, Note_on_c, 3, 55, 0
5, 7679, Note_on_c, 3, 59, 0
5, 7680, Note_on_c, 3, 52, 80
5, 7680, Note_on_c, 3, 55, 80
5, 7680, Note_on_c, 3, 59, 80
5, 7919, Note_on_c, 3, 52, 0
5, 7919, Note_on_c, 3, 55, 0
5, 7919, Note_on_c, 3, 59, 0
5, 7920, Note_on_c, 3, 52, 80
5, 7920, Note_on_c, 3, 55, 80
5, 7920, Note_on_c, 3, 59, 80
5, 8399, Note_on_c, 3, 52, 0
5, 8399, Note_on_c, 3, 55, 0
5, 8399, Note_on_c, 3, 59, 0
5, 8400, Note_on_c, 3, 52, 80
5, 8400, Note_on_c, 3, 55, 80
5, 8400, Note_on_c, 3, 59, 80
5, 8639, Note_on_c, 3, 52, 0
5, 8639, Note_on_c, 3, 55, 0
5, 8639, Note_on_c, 3, 59, 0
5, 8640, Note_on_c, 3, 50, 80
5, 8640, Note_on_c, 3, 55, 80
5, 8640, Note_on_c, 3, 59, 80
5, 9119, Note_on_c, 3, 50, 0
5, 9119, Note_on_c, 3, 55, 0
5, 9119, Note_on_c, 3, 59, 0
5, 9120, Note_on_c, 3, 50, 80
5, 9120, Note_on_c, 3, 55, 80
5, 9120, Note_on_c, 3, 59, 80
5, 9359, Note_on_c, 3, 50, 0
5, 9359, Note_on_c, 3, 55, 0
5, 9359, Note_on_c, 3, 59, 0
5, 9360, Note_on_c, 3, 50, 80
5, 9360, Note_on_c, 3, 55, 80
5, 9360, Note_on_c, 3, 59, 80
5, 9839, Note_on_c, 3, 50, 0
5, 9839, Note_on_c, 3, 55, 0
5, 9839, Note_on_c, 3, 59, 0
5, 9840, Note_on_c, 3, 50, 80
5, 9840, Note_on_c, 3, 55, 80
5, 9840, Note_on_c, 3, 59, 80
5, 10079, Note_on_c, 3, 50, 0
5, 10079, Note_on_c, 3, 55, 0
5, 10079, Note_on_c, 3, 59, 0
5, 10080, Note_on_c, 3, 52, 80
5, 10080, Note_on_c, 3, 55, 80
5, 10080, Note_on_c, 3, 59, 80
5, 10559, Note_on_c, 3, 52, 0
5, 10559, Note_on_c, 3, 55, 0
5, 10559, Note_on_c, 3, 59, 0
5, 10560, Note_on_c, 3, 52, 80
5, 10560, Note_on_c, 3, 55, 80
5, 10560, Note_on_c, 3, 59, 80
5, 10799, Note_on_c, 3, 52, 0
5, 10799, Note_on_c, 3, 55, 0
5, 10799, Note_on_c, 3, 59, 0
5, 10800, Note_on_c, 3, 52, 80
5, 10800, Note_on_c, 3, 55, 80
5, 10800, Note_on_c, 3, 59, 80
5, 11279, Note_on_c, 3, 52, 0
5, 11279, Note_on_c, 3, 55, 0
5, 11279, Note_on_c, 3, 59, 0
5, 11280, Note_on_c, 3, 52, 80
5, 11280, Note_on_c, 3, 55, 80
5, 11280, Note_on_c, 3, 59, 80
5, 11519, Note_on_c, 3, 52, 0
5, 11519, Note_on_c, 3, 55, 0
5, 11519, Note_on_c, 3, 59, 0
5, 11520, Note_on_c, 3, 50, 80
5, 11520, Note_on_c, 3, 55, 80
5, 11520, Note_on_c, 3, 59, 80
5, 11999, Note_on_c, 3, 50, 0
5, 11999, Note_on_c, 3, 55, 0
5, 11999, Note_on_c, 3, 59, 0
5, 12000, Note_on_c, 3, 50, 80
5, 12000, Note_on_c, 3, 55, 80
5, 12000, Note_on_c, 3, 59, 80
5, 12239, Note_on_c, 3, 50, 0
5, 12239, Note_on_c, 3, 55, 0
5, 12239, Note_on_c, 3, 59, 0
5, 12240, Note_on_c, 3, 50, 80
5, 12240, Note_on_c, 3, 55, 80
5, 12240, Note_on_c, 3, 59, 80
5, 12719, Note_on_c, 3, 50, 0
5, 12719, Note_on_c, 3, 55, 0
5, 12719, Note_on_c, 3, 59, 0
5, 12720, Note_on_c, 3, 50, 80
5, 12720, Note_on_c, 3, 55, 80
5, 12720, Note_on_c, 3, 59, 80
5, 12959, Note_on_c, 3, 50, 0
5, 12959, Note_on_c, 3, 55, 0
5, 12959, Note_on_c, 3, 59, 0
5, 12960, Note_on_c, 3, 52, 80
5, 12960, Note_on_c, 3, 55, 80
5, 12960, Note_on_c, 3, 59, 80
5, 13439, Note_on_c, 3, 52, 0
5, 13439, Note_on_c, 3, 55, 0
5, 13439, Note_on_c, 3, 59, 0
5, 13440, Note_on_c, 3, 52, 80
5, 13440, Note_on_c, 3, 55, 80
5, 13440, Note_on_c, 3, 59, 80
5, 13679, Note_on_c, 3, 52, 0
5, 13679, Note_on_c, 3, 55, 0
5, 13679, Note_on_c, 3, 59, 0
5, 13680, Note_on_c, 3, 52, 80
5, 13680, Note_on_c, 3, 55, 80
5, 13680, Note_on_c, 3, 59, 80
5, 14159, Note_on_c, 3, 52, 0
5, 14159, Note_on_c, 3, 55, 0
5, 14159, Note_on_c, 3, 59, 0
5, 14160, Note_on_c, 3, 52, 80
5, 14160, Note_on_c, 3, 55, 80
5, 14160, Note_on_c, 3, 59, 80
5, 14399, Note_on_c, 3, 52, 0
5, 14399, Note_on_c, 3, 55, 0
5, 14399, Note_on_c, 3, 59, 0
5, 14400, Note_on_c, 3, 50, 80
5, 14400, Note_on_c, 3, 55, 80
5, 14400, Note_on_c, 3, 59, 80
5, 14879, Note_on_c, 3, 50, 0
5, 14879, Note_on_c, 3, 55, 0
5, 14879, Note_on_c, 3, 59, 0
5, 14880, Note_on_c, 3, 50, 80
5, 14880, Note_on_c, 3, 55, 80
5, 14880, Note_on_c, 3, 59, 80
5, 15119, Note_on_c, 3, 50, 0
5, 15119, Note_on_c, 3, 55, 0
5, 15119, Note_on_c, 3, 59, 0
5, 15120, Note_on_c, 3, 50, 80
5, 15120, Note_on_c, 3, 55, 80
5, 15120, Note_on_c, 3, 59, 80
5, 15599, Note_on_c, 3, 50, 0
5, 15599, Note_on_c, 3, 55, 0
5, 15599, Note_on_c, 3, 59, 0
5, 15600, Note_on_c, 3, 50, 80
5, 15600, Note_on_c, 3, 55, 80
5, 15600, Note_on_c, 3, 59, 80
5, 15839, Note_on_c, 3, 50, 0
5, 15839, Note_on_c, 3, 55, 0
5, 15839, Note_on_c, 3, 59, 0
5, 15840, Note_on_c, 3, 52, 80
5, 15840, Note_on_c, 3, 55, 80
5, 15840, Note_on_c, 3, 59, 80
5, 16319, Note_on_c, 3, 52, 0
5, 16319, Note_on_c, 3, 55, 0
5, 16319, Note_on_c, 3, 59, 0
5, 16320, Note_on_c, 3, 52, 80
5, 16320, Note_on_c, 3, 55, 80
5, 16320, Note_on_c, 3, 59, 80
5, 16559, Note_on_c, 3, 52, 0
5, 16559, Note_on_c, 3, 55, 0
5, 16559, Note_on_c, 3, 59, 0
5, 16560, Note_on_c, 3, 52, 80
5, 16560, Note_on_c, 3, 55, 80
5, 16560, Note_on_c, 3, 59, 80
5, 17039, Note_on_c, 3, 52, 0
5, 17039, Note_on_c, 3, 55, 0
5, 17039, Note_on_c, 3, 59, 0
5, 17040, Note_on_c, 3, 52, 80
5, 17040, Note_on_c, 3, 55, 80
5, 17040, Note_on_c, 3, 59, 80
5, 17279, Note_on_c, 3, 52, 0
5, 17279, Note_on_c, 3, 55, 0
5, 17279, Note_on_c, 3, 59, 0
5, 17280, Note_on_c, 3, 52, 80
5, 17280, Note_on_c, 3, 55, 80
5, 17280, Note_on_c, 3, 60, 80
5, 17759, Note_on_c, 3, 52, 0
5, 17759, Note_on_c, 3, 55, 0
5, 17759, Note_on_c, 3, 60, 0
5, 17760, Note_on_c, 3, 52, 80
5, 17760, Note_on_c, 3, 55, 80
5, 17760, Note_on_c, 3, 60, 80
5, 17999, Note_on_c, 3, 52, 0
5, 17999, Note_on_c, 3, 55, 0
5, 17999, Note_on_c, 3, 60, 0
5, 18000, Note_on_c, 3, 52, 80
5, 18000, Note_on_c, 3, 55, 80
5, 18000, Note_on_c, 3, 60, 80
5, 18479, Note_on_c, 3, 52, 0
5, 18479, Note_on_c, 3, 55, 0
5, 18479, Note_on_c, 3, 60, 0
5, 18480, Note_on_c, 3, 55, 80
5, 18480, Note_on_c, 3, 60, 80
5, 18719, Note_on_c, 3, 55, 0
5, 18719, Note_on_c, 3, 60, 0
5, 18720, Note_on_c, 3, 57, 80
5, 18720, Note_on_c, 3, 62, 80
5, 19199, Note_on_c, 3, 57, 0
5, 19199, Note_on_c, 3, 62, 0
5, 19200, Note_on_c, 3, 57, 80
5, 19200, Note_on_c, 3, 62, 80
5, 19439, Note_on_c, 3, 57, 0
5, 19439, Note_on_c, 3, 62, 0
5, 19440, Note_on_c, 3, 57, 80
5, 19440, Note_on_c, 3, 62, 80
5, 19919, Note_on_c, 3, 57, 0
5, 19919, Note_on_c, 3, 62, 0
5, 19920, Note_on_c, 3, 57, 80
5, 19920, Note_on_c, 3, 62, 80
5, 20159, Note_on_c, 3, 57, 0
5, 20159, Note_on_c, 3, 62, 0
5, 20160, Note_on_c, 3, 50, 80
5, 20160, Note_on_c, 3, 55, 80
5, 20160, Note_on_c, 3, 59, 80
5, 20639, Note_on_c, 3, 50, 0
5, 20639, Note_on_c, 3, 55, 0
5, 20639, Note_on_c, 3, 59, 0
5, 20640, Note_on_c, 3, 50, 80
5, 20640, Note_on_c, 3, 55, 80
5, 20640, Note_on_c, 3, 59, 80
5, 20879, Note_on_c, 3, 50, 0
5, 20879, Note_on_c, 3, 55, 0
5, 20879, Note_on_c, 3, 59, 0
5, 20880, Note_on_c, 3, 50, 80
5, 20880, Note_on_c, 3, 55, 80
5, 20880, Note_on_c, 3, 59, 80
5, 21359, Note_on_c, 3, 50, 0
5, 21359, Note_on_c, 3, 55, 0
5, 21359, Note_on_c, 3, 59, 0
5, 21360, Note_on_c, 3, 50, 80
5, 21360, Note_on_c, 3, 55, 80
5, 21360, Note_on_c, 3, 59, 80
5, 21599, Note_on_c, 3, 50, 0
5, 21599, Note_on_c, 3, 55, 0
5, 21599, Note_on_c, 3, 59, 0
5, 21600, Note_on_c, 3, 50, 80
5, 21600, Note_on_c, 3, 57, 80
5, 22079, Note_on_c, 3, 50, 0
5, 22079, Note_on_c, 3, 57, 0
5, 22080, Note_on_c, 3, 50, 80
5, 22080, Note_on_c, 3, 57, 80
5, 22319, Note_on_c, 3, 50, 0
5, 22319, Note_on_c, 3, 57, 0
5, 22320, Note_on_c, 3, 50, 80
5, 22320, Note_on_c, 3, 57, 80
5, 22799, Note_on_c, 3, 50, 0
5, 22799, Note_on_c, 3, 57, 0
5, 22800, Note_on_c, 3, 50, 80
5, 22800, Note_on_c, 3, 57, 80
5, 23039, Note_on_c, 3, 50, 0
5, 23039, Note_on_c, 3, 57, 0
5, 23040, Note_on_c, 3, 50, 80
5, 23040, Note_on_c, 3, 55, 80
5, 23040, Note_on_c, 3, 59, 80
5, 23519, Note_on_c, 3, 50, 0
5, 23519, Note_on_c, 3, 55, 0
5, 23519, Note_on_c, 3, 59, 0
5, 23520, Note_on_c, 3, 50, 80
5, 23520, Note_on_c, 3, 55, 80
5, 23520, Note_on_c, 3, 59, 80
5, 23759, Note_on_c, 3, 50, 0
5, 23759, Note_on_c, 3, 55, 0
5, 23759, Note_on_c, 3, 59, 0
5, 23760, Note_on_c, 3, 50, 80
5, 23760, Note_on_c, 3, 55, 80
5, 23760, Note_on_c, 3, 59, 80
5, 24239, Note_on_c, 3, 50, 0
5, 24239, Note_on_c, 3, 55, 0
5, 24239, Note_on_c, 3, 59, 0
5, 24240, Note_on_c, 3, 50, 80
5, 24240, Note_on_c, 3, 55, 80
5, 24240, Note_on_c, 3, 59, 80
5, 24479, Note_on_c, 3, 50, 0
5, 24479, Note_on_c, 3, 55, 0
5, 24479, Note_on_c, 3, 59, 0
5, 24480, Note_on_c, 3, 52, 80
5, 24480, Note_on_c, 3, 55, 80
5, 24480, Note_on_c, 3, 60, 80
5, 24959, Note_on_c, 3, 52, 0
5, 24959, Note_on_c, 3, 55, 0
5, 24959, Note_on_c, 3, 60, 0
5, 24960, Note_on_c, 3, 52, 80
5, 24960, Note_on_c, 3, 55, 80
5, 24960, Note_on_c, 3, 60, 80
5, 25079, Note_on_c, 3, 52, 0
5, 25079, Note_on_c, 3, 55, 0
5, 25079, Note_on_c, 3, 60, 0
5, 25200, Note_on_c, 3, 50, 80
5, 25200, Note_on_c, 3, 57, 80
5, 25679, Note_on_c, 3, 50, 0
5, 25679, Note_on_c, 3, 57, 0
5, 25680, Note_on_c, 3, 50, 80
5, 25680, Note_on_c, 3, 57, 80
5, 25919, Note_on_c, 3, 50, 0
5, 25919, Note_on_c, 3, 57, 0
5, 25920, Note_on_c, 3, 52, 80
5, 25920, Note_on_c, 3, 55, 80
5, 25920, Note_on_c, 3, 59, 80
5, 26399, Note_on_c, 3, 52, 0
5, 26399, Note_on_c, 3, 55, 0
5, 26399, Note_on_c, 3, 59, 0
5, 26400, Note_on_c, 3, 52, 80
5, 26400, Note_on_c, 3, 55, 80
5, 26400, Note_on_c, 3, 59, 80
5, 26639, Note_on_c, 3, 52, 0
5, 26639, Note_on_c, 3, 55, 0
5, 26639, Note_on_c, 3, 59, 0
5, 26640, Note_on_c, 3, 52, 80
5, 26640, Note_on_c, 3, 55, 80
5, 26640, Note_on_c, 3, 59, 80
5, 27119, Note_on_c, 3, 52, 0
5, 27119, Note_on_c, 3, 55, 0
5, 27119, Note_on_c, 3, 59, 0
5, 27120, Note_on_c, 3, 52, 80
5, 27120, Note_on_c, 3, 55, 80
5, 27120, Note_on_c, 3, 59, 80
5, 27359, Note_on_c, 3, 52, 0
5, 27359, Note_on_c, 3, 55, 0
5, 27359, Note_on_c, 3, 59, 0
5, 27360, Note_on_c, 3, 52, 80
5, 27360, Note_on_c, 3, 55, 80
5, 27360, Note_on_c, 3, 60, 80
5, 27839, Note_on_c, 3, 52, 0
5, 27839, Note_on_c, 3, 55, 0
5, 27839, Note_on_c, 3, 60, 0
5, 27840, Note_on_c, 3, 52, 80
5, 27840, Note_on_c, 3, 55, 80
5, 27840, Note_on_c, 3, 60, 80
5, 28079, Note_on_c, 3, 52, 0
5, 28079, Note_on_c, 3, 55, 0
5, 28079, Note_on_c, 3, 60, 0
5, 28080, Note_on_c, 3, 52, 80
5, 28080, Note_on_c, 3, 55, 80
5, 28080, Note_on_c, 3, 60, 80
5, 28559, Note_on_c, 3, 52, 0
5, 28559, Note_on_c, 3, 55, 0
5, 28559, Note_on_c, 3, 60, 0
5, 28560, Note_on_c, 3, 52, 80
5, 28560, Note_on_c, 3, 55, 80
5, 28560, Note_on_c, 3, 60, 80
5, 28799, Note_on_c, 3, 52, 0
5, 28799, Note_on_c, 3, 55, 0
5, 28799, Note_on_c, 3, 60, 0
5, 28800, Note_on_c, 3, 57, 80
5, 28800, Note_on_c, 3, 62, 80
5, 29279, Note_on_c, 3, 57, 0
5, 29279, Note_on_c, 3, 62, 0
5, 29280, Note_on_c, 3, 57, 80
5, 29280, Note_on_c, 3, 62, 80
5, 29519, Note_on_c, 3, 57, 0
5, 29519, Note_on_c, 3, 62, 0
5, 29520, Note_on_c, 3, 57, 80
5, 29520, Note_on_c, 3, 62, 80
5, 29999, Note_on_c, 3, 57, 0
5, 29999, Note_on_c, 3, 62, 0
5, 30000, Note_on_c, 3, 57, 80
5, 30000, Note_on_c, 3, 62, 80
5, 30239, Note_on_c, 3, 57, 0
5, 30239, Note_on_c, 3, 62, 0
5, 30240, Note_on_c, 3, 50, 80
5, 30240, Note_on_c, 3, 59, 80
5, 30719, Note_on_c, 3, 50, 0
5, 30719, Note_on_c, 3, 59, 0
5, 30720, Note_on_c, 3, 50, 80
5, 30720, Note_on_c, 3, 59, 80
5, 30959, Note_on_c, 3, 50, 0
5, 30959, Note_on_c, 3, 59, 0
5, 30960, Note_on_c, 3, 50, 80
5, 30960, Note_on_c, 3, 59, 80
5, 31439, Note_on_c, 3, 50, 0
5, 31439, Note_on_c, 3, 59, 0
5, 31440, Note_on_c, 3, 50, 80
5, 31440, Note_on_c, 3, 59, 80
5, 31679, Note_on_c, 3, 50, 0
5, 31679, Note_on_c, 3, 59, 0
5, 31680, Note_on_c, 3, 52, 80
5, 31680, Note_on_c, 3, 55, 80
5, 31680, Note_on_c, 3, 59, 80
5, 32159, Note_on_c, 3, 52, 0
5, 32159, Note_on_c, 3, 55, 0
5, 32159, Note_on_c, 3, 59, 0
5, 32160, Note_on_c, 3, 52, 80
5, 32160, Note_on_c, 3, 55, 80
5, 32160, Note_on_c, 3, 59, 80
5, 32399, Note_on_c, 3, 52, 0
5, 32399, Note_on_c, 3, 55, 0
5, 32399, Note_on_c, 3, 59, 0
5, 32400, Note_on_c, 3, 52, 80
5, 32400, Note_on_c, 3, 55, 80
5, 32400, Note_on_c, 3, 59, 80
5, 32879, Note_on_c, 3, 52, 0
5, 32879, Note_on_c, 3, 55, 0
5, 32879, Note_on_c, 3, 59, 0
5, 32880, Note_on_c, 3, 52, 80
5, 32880, Note_on_c, 3, 55, 80
5, 32880, Note_on_c, 3, 59, 80
5, 33119, Note_on_c, 3, 52, 0
5, 33119, Note_on_c, 3, 55, 0
5, 33119, Note_on_c, 3, 59, 0
5, 33120, Note_on_c, 3, 52, 80
5, 33120, Note_on_c, 3, 55, 80
5, 33120, Note_on_c, 3, 59, 80
5, 33599, Note_on_c, 3, 52, 0
5, 33599, Note_on_c, 3, 55, 0
5, 33599, Note_on_c, 3, 59, 0
5, 33600, Note_on_c, 3, 52, 80
5, 33600, Note_on_c, 3, 55, 80
5, 33600, Note_on_c, 3, 59, 80
5, 33839, Note_on_c, 3, 52, 0
5, 33839, Note_on_c, 3, 55, 0
5, 33839, Note_on_c, 3, 59, 0
5, 33840, Note_on_c, 3, 52, 80
5, 33840, Note_on_c, 3, 55, 80
5, 33840, Note_on_c, 3, 59, 80
5, 34319, Note_on_c, 3, 52, 0
5, 34319, Note_on_c, 3, 55, 0
5, 34319, Note_on_c, 3, 59, 0
5, 34320, Note_on_c, 3, 52, 80
5, 34320, Note_on_c, 3, 55, 80
5, 34320, Note_on_c, 3, 59, 80
5, 34559, Note_on_c, 3, 52, 0
5, 34559, Note_on_c, 3, 55, 0
5, 34559, Note_on_c, 3, 59, 0
5, 34560, Note_on_c, 3, 55, 80
5, 34560, Note_on_c, 3, 60, 80
5, 35039, Note_on_c, 3, 55, 0
5, 35039, Note_on_c, 3, 60, 0
5, 35040, Note_on_c, 3, 55, 80
5, 35040, Note_on_c, 3, 60, 80
5, 35279, Note_on_c, 3, 55, 0
5, 35279, Note_on_c, 3, 60, 0
5, 35280, Note_on_c, 3, 55, 80
5, 35280, Note_on_c, 3, 60, 80
5, 35759, Note_on_c, 3, 55, 0
5, 35759, Note_on_c, 3, 60, 0
5, 35760, Note_on_c, 3, 55, 80
5, 35760, Note_on_c, 3, 60, 80
5, 35999, Note_on_c, 3, 55, 0
5, 35999, Note_on_c, 3, 60, 0
5, 36000, Note_on_c, 3, 55, 80
5, 36000, Note_on_c, 3, 60, 80
5, 36479, Note_on_c, 3, 55, 0
5, 36479, Note_on_c, 3, 60, 0
5, 36480, Note_on_c, 3, 55, 80
5, 36480, Note_on_c, 3, 60, 80
5, 36719, Note_on_c, 3, 55, 0
5, 36719, Note_on_c, 3, 60, 0
5, 36720, Note_on_c, 3, 55, 80
5, 36720, Note_on_c, 3, 60, 80
5, 37199, Note_on_c, 3, 55, 0
5, 37199, Note_on_c, 3, 60, 0
5, 37200, Note_on_c, 3, 55, 80
5, 37200, Note_on_c, 3, 60, 80
5, 37439, Note_on_c, 3, 55, 0
5, 37439, Note_on_c, 3, 60, 0
5, 37440, Note_on_c, 3, 52, 80
5, 37440, Note_on_c, 3, 55, 80
5, 37440, Note_on_c, 3, 59, 80
5, 37919, Note_on_c, 3, 52, 0
5, 37919, Note_on_c, 3, 55, 0
5, 37919, Note_on_c, 3, 59, 0
5, 37920, Note_on_c, 3, 52, 80
5, 37920, Note_on_c, 3, 55, 80
5, 37920, Note_on_c, 3, 59, 80
5, 38159, Note_on_c, 3, 52, 0
5, 38159, Note_on_c, 3, 55, 0
5, 38159, Note_on_c, 3, 59, 0
5, 38160, Note_on_c, 3, 52, 80
5, 38160, Note_on_c, 3, 55, 80
5, 38160, Note_on_c, 3, 59, 80
5, 38639, Note_on_c, 3, 52, 0
5, 38639, Note_on_c, 3, 55, 0
5, 38639, Note_on_c, 3, 59, 0
5, 38640, Note_on_c, 3, 52, 80
5, 38640, Note_on_c, 3, 55, 80
5, 38640, Note_on_c, 3, 59, 80
5, 38879, Note_on_c, 3, 52, 0
5, 38879, Note_on_c, 3, 55, 0
5, 38879, Note_on_c, 3, 59, 0
5, 38880, Note_on_c, 3, 52, 80
5, 38880, Note_on_c, 3, 55, 80
5, 38880, Note_on_c, 3, 59, 80
5, 39359, Note_on_c, 3, 52, 0
5, 39359, Note_on_c, 3, 55, 0
5, 39359, Note_on_c, 3, 59, 0
5, 39360, Note_on_c, 3, 52, 80
5, 39360, Note_on_c, 3, 55, 80
5, 39360, Note_on_c, 3, 59, 80
5, 39599, Note_on_c, 3, 52, 0
5, 39599, Note_on_c, 3, 55, 0
5, 39599, Note_on_c, 3, 59, 0
5, 39600, Note_on_c, 3, 52, 80
5, 39600, Note_on_c, 3, 55, 80
5, 39600, Note_on_c, 3, 59, 80
5, 40079, Note_on_c, 3, 52, 0
5, 40079, Note_on_c, 3, 55, 0
5, 40079, Note_on_c, 3, 59, 0
5, 40080, Note_on_c, 3, 52, 80
5, 40080, Note_on_c, 3, 55, 80
5, 40080, Note_on_c, 3, 59, 80
5, 40319, Note_on_c, 3, 52, 0
5, 40319, Note_on_c, 3, 55, 0
5, 40319, Note_on_c, 3, 59, 0
5, 40320, Note_on_c, 3, 52, 80
5, 40320, Note_on_c, 3, 55, 80
5, 40320, Note_on_c, 3, 60, 80
5, 40559, Note_on_c, 3, 52, 0
5, 40559, Note_on_c, 3, 55, 0
5, 40559, Note_on_c, 3, 60, 0
5, 40800, Note_on_c, 3, 52, 80
5, 40800, Note_on_c, 3, 55, 80
5, 40800, Note_on_c, 3, 60, 80
5, 41039, Note_on_c, 3, 52, 0
5, 41039, Note_on_c, 3, 55, 0
5, 41039, Note_on_c, 3, 60, 0
5, 41040, Note_on_c, 3, 52, 80
5, 41040, Note_on_c, 3, 55, 80
5, 41040, Note_on_c, 3, 60, 80
5, 41519, Note_on_c, 3, 52, 0
5, 41519, Note_on_c, 3, 55, 0
5, 41519, Note_on_c, 3, 60, 0
5, 41520, Note_on_c, 3, 52, 80
5, 41520, Note_on_c, 3, 55, 80
5, 41520, Note_on_c, 3, 60, 80
5, 41759, Note_on_c, 3, 52, 0
5, 41759, Note_on_c, 3, 55, 0
5, 41759, Note_on_c, 3, 60, 0
5, 41760, Note_on_c, 3, 52, 80
5, 41760, Note_on_c, 3, 55, 80
5, 41760, Note_on_c, 3, 60, 80
5, 41999, Note_on_c, 3, 52, 0
5, 41999, Note_on_c, 3, 55, 0
5, 41999, Note_on_c, 3, 60, 0
5, 42240, Note_on_c, 3, 52, 80
5, 42240, Note_on_c, 3, 55, 80
5, 42240, Note_on_c, 3, 60, 80
5, 42479, Note_on_c, 3, 52, 0
5, 42479, Note_on_c, 3, 55, 0
5, 42479, Note_on_c, 3, 60, 0
5, 42480, Note_on_c, 3, 52, 80
5, 42480, Note_on_c, 3, 55, 80
5, 42480, Note_on_c, 3, 60, 80
5, 42959, Note_on_c, 3, 52, 0
5, 42959, Note_on_c, 3, 55, 0
5, 42959, Note_on_c, 3, 60, 0
5, 42960, Note_on_c, 3, 52, 80
5, 42960, Note_on_c, 3, 55, 80
5, 42960, Note_on_c, 3, 60, 80
5, 43199, Note_on_c, 3, 52, 0
5, 43199, Note_on_c, 3, 55, 0
5, 43199, Note_on_c, 3, 60, 0
5, 43200, Note_on_c, 3, 50, 80
5, 43200, Note_on_c, 3, 55, 80
5, 43200, Note_on_c, 3, 59, 80
5, 43679, Note_on_c, 3, 50, 0
5, 43679, Note_on_c, 3, 55, 0
5, 43679, Note_on_c, 3, 59, 0
5, 43680, Note_on_c, 3, 50, 80
5, 43680, Note_on_c, 3, 55, 80
5, 43680, Note_on_c, 3, 59, 80
5, 43919, Note_on_c, 3, 50, 0
5, 43919, Note_on_c, 3, 55, 0
5, 43919, Note_on_c, 3, 59, 0
5, 43920, Note_on_c, 3, 50, 80
5, 43920, Note_on_c, 3, 55, 80
5, 43920, Note_on_c, 3, 59, 80
5, 44399, Note_on_c, 3, 50, 0
5, 44399, Note_on_c, 3, 55, 0
5, 44399, Note_on_c, 3, 59, 0
5, 44400, Note_on_c, 3, 50, 80
5, 44400, Note_on_c, 3, 55, 80
5, 44400, Note_on_c, 3, 59, 80
5, 44639, Note_on_c, 3, 50, 0
5, 44639, Note_on_c, 3, 55, 0
5, 44639, Note_on_c, 3, 59, 0
5, 44640, Note_on_c, 3, 50, 80
5, 44640, Note_on_c, 3, 57, 80
5, 45119, Note_on_c, 3, 50, 0
5, 45119, Note_on_c, 3, 57, 0
5, 45120, Note_on_c, 3, 50, 80
5, 45120, Note_on_c, 3, 57, 80
5, 45359, Note_on_c, 3, 50, 0
5, 45359, Note_on_c, 3, 57, 0
5, 45360, Note_on_c, 3, 50, 80
5, 45360, Note_on_c, 3, 57, 80
5, 45839, Note_on_c, 3, 50, 0
5, 45839, Note_on_c, 3, 57, 0
5, 45840, Note_on_c, 3, 50, 80
5, 45840, Note_on_c, 3, 57, 80
5, 46079, Note_on_c, 3, 50, 0
5, 46079, Note_on_c, 3, 57, 0
5, 46080, Note_on_c, 3, 50, 80
5, 46080, Note_on_c, 3, 55, 80
5, 46080, Note_on_c, 3, 59, 80
5, 46559, Note_on_c, 3, 50, 0
5, 46559, Note_on_c, 3, 55, 0
5, 46559, Note_on_c, 3, 59, 0
5, 46560, Note_on_c, 3, 50, 80
5, 46560, Note_on_c, 3, 55, 80
5, 46560, Note_on_c, 3, 59, 80
5, 46799, Note_on_c, 3, 50, 0
5, 46799, Note_on_c, 3, 55, 0
5, 46799, Note_on_c, 3, 59, 0
5, 46800, Note_on_c, 3, 50, 80
5, 46800, Note_on_c, 3, 55, 80
5, 46800, Note_on_c, 3, 59, 80
5, 47279, Note_on_c, 3, 50, 0
5, 47279, Note_on_c, 3, 55, 0
5, 47279, Note_on_c, 3, 59, 0
5, 47280, Note_on_c, 3, 50, 80
5, 47280, Note_on_c, 3, 55, 80
5, 47280, Note_on_c, 3, 59, 80
5, 47519, Note_on_c, 3, 50, 0
5, 47519, Note_on_c, 3, 55, 0
5, 47519, Note_on_c, 3, 59, 0
5, 47520, Note_on_c, 3, 50, 80
5, 47520, Note_on_c, 3, 57, 80
5, 47999, Note_on_c, 3, 50, 0
5, 47999, Note_on_c, 3, 57, 0
5, 48000, Note_on_c, 3, 50, 80
5, 48000, Note_on_c, 3, 57, 80
5, 48239, Note_on_c, 3, 50, 0
5, 48239, Note_on_c, 3, 57, 0
5, 48240, Note_on_c, 3, 50, 80
5, 48240, Note_on_c, 3, 57, 80
5, 48719, Note_on_c, 3, 50, 0
5, 48719, Note_on_c, 3, 57, 0
5, 48720, Note_on_c, 3, 50, 80
5, 48720, Note_on_c, 3, 57, 80
5, 48959, Note_on_c, 3, 50, 0
5, 48959, Note_on_c, 3, 57, 0
5, 48960, Note_on_c, 3, 52, 80
5, 48960, Note_on_c, 3, 55, 80
5, 48960, Note_on_c, 3, 59, 80
5, 49439, Note_on_c, 3, 52, 0
5, 49439, Note_on_c, 3, 55, 0
5, 49439, Note_on_c, 3, 59, 0
5, 49440, Note_on_c, 3, 52, 80
5, 49440, Note_on_c, 3, 55, 80
5, 49440, Note_on_c, 3, 59, 80
5, 49679, Note_on_c, 3, 52, 0
5, 49679, Note_on_c, 3, 55, 0
5, 49679, Note_on_c, 3, 59, 0
5, 49680, Note_on_c, 3, 52, 80
5, 49680, Note_on_c, 3, 55, 80
5, 49680, Note_on_c, 3, 59, 80
5, 50159, Note_on_c, 3, 52, 0
5, 50159, Note_on_c, 3, 55, 0
5, 50159, Note_on_c, 3, 59, 0
5, 50160, Note_on_c, 3, 52, 80
5, 50160, Note_on_c, 3, 55, 80
5, 50160, Note_on_c, 3, 59, 80
5, 50399, Note_on_c, 3, 52, 0
5, 50399, Note_on_c, 3, 55, 0
5, 50399, Note_on_c, 3, 59, 0
5, 50400, Note_on_c, 3, 50, 80
5, 50400, Note_on_c, 3, 55, 80
5, 50400, Note_on_c, 3, 59, 80
5, 50879, Note_on_c, 3, 50, 0
5, 50879, Note_on_c, 3, 55, 0
5, 50879, Note_on_c, 3, 59, 0
5, 50880, Note_on_c, 3, 50, 80
5, 50880, Note_on_c, 3, 55, 80
5, 50880, Note_on_c, 3, 59, 80
5, 51119, Note_on_c, 3, 50, 0
5, 51119, Note_on_c, 3, 55, 0
5, 51119, Note_on_c, 3, 59, 0
5, 51120, Note_on_c, 3, 50, 80
5, 51120, Note_on_c, 3, 55, 80
5, 51120, Note_on_c, 3, 59, 80
5, 51599, Note_on_c, 3, 50, 0
5, 51599, Note_on_c, 3, 55, 0
5, 51599, Note_on_c, 3, 59, 0
5, 51600, Note_on_c, 3, 50, 80
5, 51600, Note_on_c, 3, 55, 80
5, 51600, Note_on_c, 3, 59, 80
5, 51839, Note_on_c, 3, 50, 0
5, 51839, Note_on_c, 3, 55, 0
5, 51839, Note_on_c, 3, 59, 0
5, 51840, Note_on_c, 3, 52, 80
5, 51840, Note_on_c, 3, 55, 80
5, 51840, Note_on_c, 3, 59, 80
5, 52319, Note_on_c, 3, 52, 0
5, 52319, Note_on_c, 3, 55, 0
5, 52319, Note_on_c, 3, 59, 0
5, 52320, Note_on_c, 3, 52, 80
5, 52320, Note_on_c, 3, 55, 80
5, 52320, Note_on_c, 3, 59, 80
5, 52559, Note_on_c, 3, 52, 0
5, 52559, Note_on_c, 3, 55, 0
5, 52559, Note_on_c, 3, 59, 0
5, 52560, Note_on_c, 3, 52, 80
5, 52560, Note_on_c, 3, 55, 80
5, 52560, Note_on_c, 3, 59, 80
5, 53039, Note_on_c, 3, 52, 0
5, 53039, Note_on_c, 3, 55, 0
5, 53039, Note_on_c, 3, 59, 0
5, 53040, Note_on_c, 3, 52, 80
5, 53040, Note_on_c, 3, 55, 80
5, 53040, Note_on_c, 3, 59, 80
5, 53279, Note_on_c, 3, 52, 0
5, 53279, Note_on_c, 3, 55, 0
5, 53279, Note_on_c, 3, 59, 0
5, 53280, Note_on_c, 3, 50, 80
5, 53280, Note_on_c, 3, 55, 80
5, 53280, Note_on_c, 3, 59, 80
5, 53759, Note_on_c, 3, 50, 0
5, 53759, Note_on_c, 3, 55, 0
5, 53759, Note_on_c, 3, 59, 0
5, 53760, Note_on_c, 3, 50, 80
5, 53760, Note_on_c, 3, 55, 80
5, 53760, Note_on_c, 3, 59, 80
5, 53999, Note_on_c, 3, 50, 0
5, 53999, Note_on_c, 3, 55, 0
5, 53999, Note_on_c, 3, 59, 0
5, 54000, Note_on_c, 3, 50, 80
5, 54000, Note_on_c, 3, 55, 80
5, 54000, Note_on_c, 3, 59, 80
5, 54479, Note_on_c, 3, 50, 0
5, 54479, Note_on_c, 3, 55, 0
5, 54479, Note_on_c, 3, 59, 0
5, 54480, Note_on_c, 3, 50, 80
5, 54480, Note_on_c, 3, 55, 80
5, 54480, Note_on_c, 3, 59, 80
5, 54719, Note_on_c, 3, 50, 0
5, 54719, Note_on_c, 3, 55, 0
5, 54719, Note_on_c, 3, 59, 0
5, 54720, Note_on_c, 3, 52, 80
5, 54720, Note_on_c, 3, 55, 80
5, 54720, Note_on_c, 3, 59, 80
5, 55199, Note_on_c, 3, 52, 0
5, 55199, Note_on_c, 3, 55, 0
5, 55199, Note_on_c, 3, 59, 0
5, 55200, Note_on_c, 3, 52, 80
5, 55200, Note_on_c, 3, 55, 80
5, 55200, Note_on_c, 3, 59, 80
5, 55439, Note_on_c, 3, 52, 0
5, 55439, Note_on_c, 3, 55, 0
5, 55439, Note_on_c, 3, 59, 0
5, 55440, Note_on_c, 3, 52, 80
5, 55440, Note_on_c, 3, 55, 80
5, 55440, Note_on_c, 3, 59, 80
5, 55919, Note_on_c, 3, 52, 0
5, 55919, Note_on_c, 3, 55, 0
5, 55919, Note_on_c, 3, 59, 0
5, 55920, Note_on_c, 3, 52, 80
5, 55920, Note_on_c, 3, 55, 80
5, 55920, Note_on_c, 3, 59, 80
5, 56159, Note_on_c, 3, 52, 0
5, 56159, Note_on_c, 3, 55, 0
5, 56159, Note_on_c, 3, 59, 0
5, 56160, Note_on_c, 3, 52, 80
5, 56160, Note_on_c, 3, 55, 80
5, 56160, Note_on_c, 3, 60, 80
5, 56399, Note_on_c, 3, 52, 0
5, 56399, Note_on_c, 3, 55, 0
5, 56399, Note_on_c, 3, 60, 0
5, 56640, Note_on_c, 3, 52, 80
5, 56640, Note_on_c, 3, 55, 80
5, 56640, Note_on_c, 3, 60, 80
5, 56879, Note_on_c, 3, 52, 0
5, 56879, Note_on_c, 3, 55, 0
5, 56879, Note_on_c, 3, 60, 0
5, 56880, Note_on_c, 3, 52, 80
5, 56880, Note_on_c, 3, 55, 80
5, 56880, Note_on_c, 3, 60, 80
5, 57359, Note_on_c, 3, 52, 0
5, 57359, Note_on_c, 3, 55, 0
5, 57359, Note_on_c, 3, 60, 0
5, 57360, Note_on_c, 3, 52, 80
5, 57360, Note_on_c, 3, 55, 80
5, 57360, Note_on_c, 3, 60, 80
5, 57599, Note_on_c, 3, 52, 0
5, 57599, Note_on_c, 3, 55, 0
5, 57599, Note_on_c, 3, 60, 0
5, 57600, Note_on_c, 3, 57, 80
5, 57600, Note_on_c, 3, 62, 80
5, 58079, Note_on_c, 3, 57, 0
5, 58079, Note_on_c, 3, 62, 0
5, 58080, Note_on_c, 3, 57, 80
5, 58080, Note_on_c, 3, 62, 80
5, 58319, Note_on_c, 3, 57, 0
5, 58319, Note_on_c, 3, 62, 0
5, 58320, Note_on_c, 3, 57, 80
5, 58320, Note_on_c, 3, 62, 80
5, 58799, Note_on_c, 3, 57, 0
5, 58799, Note_on_c, 3, 62, 0
5, 58800, Note_on_c, 3, 57, 80
5, 58800, Note_on_c, 3, 62, 80
5, 59039, Note_on_c, 3, 57, 0
5, 59039, Note_on_c, 3, 62, 0
5, 59040, Note_on_c, 3, 50, 80
5, 59040, Note_on_c, 3, 55, 80
5, 59040, Note_on_c, 3, 59, 80
5, 59519, Note_on_c, 3, 50, 0
5, 59519, Note_on_c, 3, 55, 0
5, 59519, Note_on_c, 3, 59, 0
5, 59520, Note_on_c, 3, 50, 80
5, 59520, Note_on_c, 3, 55, 80
5, 59520, Note_on_c, 3, 59, 80
5, 59759, Note_on_c, 3, 50, 0
5, 59759, Note_on_c, 3, 55, 0
5, 59759, Note_on_c, 3, 59, 0
5, 59760, Note_on_c, 3, 50, 80
5, 59760, Note_on_c, 3, 55, 80
5, 59760, Note_on_c, 3, 59, 80
5, 60239, Note_on_c, 3, 50, 0
5, 60239, Note_on_c, 3, 55, 0
5, 60239, Note_on_c, 3, 59, 0
5, 60240, Note_on_c, 3, 50, 80
5, 60240, Note_on_c, 3, 55, 80
5, 60240, Note_on_c, 3, 59, 80
5, 60479, Note_on_c, 3, 50, 0
5, 60479, Note_on_c, 3, 55, 0
5, 60479, Note_on_c, 3, 59, 0
5, 60480, Note_on_c, 3, 50, 80
5, 60480, Note_on_c, 3, 57, 80
5, 60959, Note_on_c, 3, 50, 0
5, 60959, Note_on_c, 3, 57, 0
5, 60960, Note_on_c, 3, 50, 80
5, 60960, Note_on_c, 3, 57, 80
5, 61199, Note_on_c, 3, 50, 0
5, 61199, Note_on_c, 3, 57, 0
5, 61200, Note_on_c, 3, 50, 80
5, 61200, Note_on_c, 3, 57, 80
5, 61679, Note_on_c, 3, 50, 0
5, 61679, Note_on_c, 3, 57, 0
5, 61680, Note_on_c, 3, 50, 80
5, 61680, Note_on_c, 3, 57, 80
5, 61919, Note_on_c, 3, 50, 0
5, 61919, Note_on_c, 3, 57, 0
5, 61920, Note_on_c, 3, 50, 80
5, 61920, Note_on_c, 3, 55, 80
5, 61920, Note_on_c, 3, 59, 80
5, 62399, Note_on_c, 3, 50, 0
5, 62399, Note_on_c, 3, 55, 0
5, 62399, Note_on_c, 3, 59, 0
5, 62400, Note_on_c, 3, 50, 80
5, 62400, Note_on_c, 3, 55, 80
5, 62400, Note_on_c, 3, 59, 80
5, 62639, Note_on_c, 3, 50, 0
5, 62639, Note_on_c, 3, 55, 0
5, 62639, Note_on_c, 3, 59, 0
5, 62640, Note_on_c, 3, 50, 80
5, 62640, Note_on_c, 3, 55, 80
5, 62640, Note_on_c, 3, 59, 80
5, 63119, Note_on_c, 3, 50, 0
5, 63119, Note_on_c, 3, 55, 0
5, 63119, Note_on_c, 3, 59, 0
5, 63120, Note_on_c, 3, 50, 80
5, 63120, Note_on_c, 3, 55, 80
5, 63120, Note_on_c, 3, 59, 80
5, 63359, Note_on_c, 3, 50, 0
5, 63359, Note_on_c, 3, 55, 0
5, 63359, Note_on_c, 3, 59, 0
5, 63360, Note_on_c, 3, 52, 80
5, 63360, Note_on_c, 3, 55, 80
5, 63360, Note_on_c, 3, 60, 80
5, 63599, Note_on_c, 3, 52, 0
5, 63599, Note_on_c, 3, 55, 0
5, 63599, Note_on_c, 3, 60, 0
5, 63840, Note_on_c, 3, 52, 80
5, 63840, Note_on_c, 3, 55, 80
5, 63840, Note_on_c, 3, 60, 80
5, 64079, Note_on_c, 3, 52, 0
5, 64079, Note_on_c, 3, 55, 0
5, 64079, Note_on_c, 3, 60, 0
5, 64080, Note_on_c, 3, 50, 80
5, 64080, Note_on_c, 3, 57, 80
5, 64799, Note_on_c, 3, 50, 0
5, 64799, Note_on_c, 3, 57, 0
5, 64800, Note_on_c, 3, 52, 80
5, 64800, Note_on_c, 3, 55, 80
5, 64800, Note_on_c, 3, 59, 80
5, 65279, Note_on_c, 3, 52, 0
5, 65279, Note_on_c, 3, 55, 0
5, 65279, Note_on_c, 3, 59, 0
5, 65280, Note_on_c, 3, 52, 80
5, 65280, Note_on_c, 3, 55, 80
5, 65280, Note_on_c, 3, 59, 80
5, 65519, Note_on_c, 3, 52, 0
5, 65519, Note_on_c, 3, 55, 0
5, 65519, Note_on_c, 3, 59, 0
5, 65520, Note_on_c, 3, 52, 80
5, 65520, Note_on_c, 3, 55, 80
5, 65520, Note_on_c, 3, 59, 80
5, 65999, Note_on_c, 3, 52, 0
5, 65999, Note_on_c, 3, 55, 0
5, 65999, Note_on_c, 3, 59, 0
5, 66000, Note_on_c, 3, 52, 80
5, 66000, Note_on_c, 3, 55, 80
5, 66000, Note_on_c, 3, 59, 80
5, 66239, Note_on_c, 3, 52, 0
5, 66239, Note_on_c, 3, 55, 0
5, 66239, Note_on_c, 3, 59, 0
5, 66240, Note_on_c, 3, 52, 80
5, 66240, Note_on_c, 3, 55, 80
5, 66240, Note_on_c, 3, 60, 80
5, 66479, Note_on_c, 3, 52, 0
5, 66479, Note_on_c, 3, 55, 0
5, 66479, Note_on_c, 3, 60, 0
5, 66720, Note_on_c, 3, 52, 80
5, 66720, Note_on_c, 3, 55, 80
5, 66720, Note_on_c, 3, 60, 80
5, 66959, Note_on_c, 3, 52, 0
5, 66959, Note_on_c, 3, 55, 0
5, 66959, Note_on_c, 3, 60, 0
5, 66960, Note_on_c, 3, 52, 80
5, 66960, Note_on_c, 3, 55, 80
5, 66960, Note_on_c, 3, 60, 80
5, 67439, Note_on_c, 3, 52, 0
5, 67439, Note_on_c, 3, 55, 0
5, 67439, Note_on_c, 3, 60, 0
5, 67440, Note_on_c, 3, 52, 80
5, 67440, Note_on_c, 3, 55, 80
5, 67440, Note_on_c, 3, 60, 80
5, 67679, Note_on_c, 3, 52, 0
5, 67679, Note_on_c, 3, 55, 0
5, 67679, Note_on_c, 3, 60, 0
5, 67680, Note_on_c, 3, 50, 80
5, 67680, Note_on_c, 3, 57, 80
5, 68159, Note_on_c, 3, 50, 0
5, 68159, Note_on_c, 3, 57, 0
5, 68160, Note_on_c, 3, 50, 80
5, 68160, Note_on_c, 3, 57, 80
5, 68399, Note_on_c, 3, 50, 0
5, 68399, Note_on_c, 3, 57, 0
5, 68400, Note_on_c, 3, 50, 80
5, 68400, Note_on_c, 3, 57, 80
5, 68879, Note_on_c, 3, 50, 0
5, 68879, Note_on_c, 3, 57, 0
5, 68880, Note_on_c, 3, 50, 80
5, 68880, Note_on_c, 3, 57, 80
5, 69119, Note_on_c, 3, 50, 0
5, 69119, Note_on_c, 3, 57, 0
5, 69120, Note_on_c, 3, 50, 80
5, 69120, Note_on_c, 3, 59, 80
5, 69599, Note_on_c, 3, 50, 0
5, 69599, Note_on_c, 3, 59, 0
5, 69600, Note_on_c, 3, 50, 80
5, 69600, Note_on_c, 3, 59, 80
5, 69839, Note_on_c, 3, 50, 0
5, 69839, Note_on_c, 3, 59, 0
5, 69840, Note_on_c, 3, 50, 80
5, 69840, Note_on_c, 3, 59, 80
5, 70319, Note_on_c, 3, 50, 0
5, 70319, Note_on_c, 3, 59, 0
5, 70320, Note_on_c, 3, 50, 80
5, 70320, Note_on_c, 3, 59, 80
5, 70559, Note_on_c, 3, 50, 0
5, 70559, Note_on_c, 3, 59, 0
5, 70560, Note_on_c, 3, 52, 80
5, 70560, Note_on_c, 3, 55, 80
5, 70560, Note_on_c, 3, 59, 80
5, 71039, Note_on_c, 3, 52, 0
5, 71039, Note_on_c, 3, 55, 0
5, 71039, Note_on_c, 3, 59, 0
5, 71040, Note_on_c, 3, 52, 80
5, 71040, Note_on_c, 3, 55, 80
5, 71040, Note_on_c, 3, 59, 80
5, 71279, Note_on_c, 3, 52, 0
5, 71279, Note_on_c, 3, 55, 0
5, 71279, Note_on_c, 3, 59, 0
5, 71280, Note_on_c, 3, 52, 80
5, 71280, Note_on_c, 3, 55, 80
5, 71280, Note_on_c, 3, 59, 80
5, 71759, Note_on_c, 3, 52, 0
5, 71759, Note_on_c, 3, 55, 0
5, 71759, Note_on_c, 3, 59, 0
5, 71760, Note_on_c, 3, 52, 80
5, 71760, Note_on_c, 3, 55, 80
5, 71760, Note_on_c, 3, 59, 80
5, 71999, Note_on_c, 3, 52, 0
5, 71999, Note_on_c, 3, 55, 0
5, 71999, Note_on_c, 3, 59, 0
5, 72000, Note_on_c, 3, 52, 80
5, 72000, Note_on_c, 3, 55, 80
5, 72000, Note_on_c, 3, 59, 80
5, 72479, Note_on_c, 3, 52, 0
5, 72479, Note_on_c, 3, 55, 0
5, 72479, Note_on_c, 3, 59, 0
5, 72480, Note_on_c, 3, 52, 80
5, 72480, Note_on_c, 3, 55, 80
5, 72480, Note_on_c, 3, 59, 80
5, 72719, Note_on_c, 3, 52, 0
5, 72719, Note_on_c, 3, 55, 0
5, 72719, Note_on_c, 3, 59, 0
5, 72720, Note_on_c, 3, 52, 80
5, 72720, Note_on_c, 3, 55, 80
5, 72720, Note_on_c, 3, 59, 80
5, 73199, Note_on_c, 3, 52, 0
5, 73199, Note_on_c, 3, 55, 0
5, 73199, Note_on_c, 3, 59, 0
5, 73200, Note_on_c, 3, 52, 80
5, 73200, Note_on_c, 3, 55, 80
5, 73200, Note_on_c, 3, 59, 80
5, 73439, Note_on_c, 3, 52, 0
5, 73439, Note_on_c, 3, 55, 0
5, 73439, Note_on_c, 3, 59, 0
5, 73440, Note_on_c, 3, 52, 80
5, 73440, Note_on_c, 3, 55, 80
5, 73440, Note_on_c, 3, 60, 80
5, 73919, Note_on_c, 3, 52, 0
5, 73919, Note_on_c, 3, 55, 0
5, 73919, Note_on_c, 3, 60, 0
5, 73920, Note_on_c, 3, 52, 80
5, 73920, Note_on_c, 3, 55, 80
5, 73920, Note_on_c, 3, 60, 80
5, 74159, Note_on_c, 3, 52, 0
5, 74159, Note_on_c, 3, 55, 0
5, 74159, Note_on_c, 3, 60, 0
5, 74160, Note_on_c, 3, 52, 80
5, 74160, Note_on_c, 3, 55, 80
5, 74160, Note_on_c, 3, 60, 80
5, 74639, Note_on_c, 3, 52, 0
5, 74639, Note_on_c, 3, 55, 0
5, 74639, Note_on_c, 3, 60, 0
5, 74640, Note_on_c, 3, 52, 80
5, 74640, Note_on_c, 3, 55, 80
5, 74640, Note_on_c, 3, 60, 80
5, 74879, Note_on_c, 3, 52, 0
5, 74879, Note_on_c, 3, 55, 0
5, 74879, Note_on_c, 3, 60, 0
5, 74880, Note_on_c, 3, 52, 80
5, 74880, Note_on_c, 3, 55, 80
5, 74880, Note_on_c, 3, 60, 80
5, 75359, Note_on_c, 3, 52, 0
5, 75359, Note_on_c, 3, 55, 0
5, 75359, Note_on_c, 3, 60, 0
5, 75360, Note_on_c, 3, 52, 80
5, 75360, Note_on_c, 3, 55, 80
5, 75360, Note_on_c, 3, 60, 80
5, 75599, Note_on_c, 3, 52, 0
5, 75599, Note_on_c, 3, 55, 0
5, 75599, Note_on_c, 3, 60, 0
5, 75600, Note_on_c, 3, 52, 80
5, 75600, Note_on_c, 3, 55, 80
5, 75600, Note_on_c, 3, 60, 80
5, 76079, Note_on_c, 3, 52, 0
5, 76079, Note_on_c, 3, 55, 0
5, 76079, Note_on_c, 3, 60, 0
5, 76080, Note_on_c, 3, 52, 80
5, 76080, Note_on_c, 3, 55, 80
5, 76080, Note_on_c, 3, 60, 80
5, 76319, Note_on_c, 3, 52, 0
5, 76319, Note_on_c, 3, 55, 0
5, 76319, Note_on_c, 3, 60, 0
5, 76320, Note_on_c, 3, 52, 80
5, 76320, Note_on_c, 3, 55, 80
5, 76320, Note_on_c, 3, 59, 80
5, 76799, Note_on_c, 3, 52, 0
5, 76799, Note_on_c, 3, 55, 0
5, 76799, Note_on_c, 3, 59, 0
5, 76800, Note_on_c, 3, 52, 80
5, 76800, Note_on_c, 3, 55, 80
5, 76800, Note_on_c, 3, 59, 80
5, 77039, Note_on_c, 3, 52, 0
5, 77039, Note_on_c, 3, 55, 0
5, 77039, Note_on_c, 3, 59, 0
5, 77040, Note_on_c, 3, 52, 80
5, 77040, Note_on_c, 3, 55, 80
5, 77040, Note_on_c, 3, 59, 80
5, 77519, Note_on_c, 3, 52, 0
5, 77519, Note_on_c, 3, 55, 0
5, 77519, Note_on_c, 3, 59, 0
5, 77520, Note_on_c, 3, 52, 80
5, 77520, Note_on_c, 3, 55, 80
5, 77520, Note_on_c, 3, 59, 80
5, 77759, Note_on_c, 3, 52, 0
5, 77759, Note_on_c, 3, 55, 0
5, 77759, Note_on_c, 3, 59, 0
5, 77760, Note_on_c, 3, 52, 80
5, 77760, Note_on_c, 3, 55, 80
5, 77760, Note_on_c, 3, 59, 80
5, 78239, Note_on_c, 3, 52, 0
5, 78239, Note_on_c, 3, 55, 0
5, 78239, Note_on_c, 3, 59, 0
5, 78240, Note_on_c, 3, 52, 80
5, 78240, Note_on_c, 3, 55, 80
5, 78240, Note_on_c, 3, 59, 80
5, 78479, Note_on_c, 3, 52, 0
5, 78479, Note_on_c, 3, 55, 0
5, 78479, Note_on_c, 3, 59, 0
5, 78480, Note_on_c, 3, 52, 80
5, 78480, Note_on_c, 3, 55, 80
5, 78480, Note_on_c, 3, 59, 80
5, 78959, Note_on_c, 3, 52, 0
5, 78959, Note_on_c, 3, 55, 0
5, 78959, Note_on_c, 3, 59, 0
5, 78960, Note_on_c, 3, 52, 80
5, 78960, Note_on_c, 3, 55, 80
5, 78960, Note_on_c, 3, 59, 80
5, 79199, Note_on_c, 3, 52, 0
5, 79199, Note_on_c, 3, 55, 0
5, 79199, Note_on_c, 3, 59, 0
5, 79200, Note_on_c, 3, 52, 80
5, 79200, Note_on_c, 3, 55, 80
5, 79200, Note_on_c, 3, 60, 80
5, 79439, Note_on_c, 3, 52, 0
5, 79439, Note_on_c, 3, 55, 0
5, 79439, Note_on_c, 3, 60, 0
5, 79680, Note_on_c, 3, 52, 80
5, 79680, Note_on_c, 3, 55, 80
5, 79680, Note_on_c, 3, 60, 80
5, 79919, Note_on_c, 3, 52, 0
5, 79919, Note_on_c, 3, 55, 0
5, 79919, Note_on_c, 3, 60, 0
5, 79920, Note_on_c, 3, 52, 80
5, 79920, Note_on_c, 3, 55, 80
5, 79920, Note_on_c, 3, 60, 80
5, 80399, Note_on_c, 3, 52, 0
5, 80399, Note_on_c, 3, 55, 0
5, 80399, Note_on_c, 3, 60, 0
5, 80400, Note_on_c, 3, 52, 80
5, 80400, Note_on_c, 3, 55, 80
5, 80400, Note_on_c, 3, 60, 80
5, 80639, Note_on_c, 3, 52, 0
5, 80639, Note_on_c, 3, 55, 0
5, 80639, Note_on_c, 3, 60, 0
5, 80640, Note_on_c, 3, 52, 80
5, 80640, Note_on_c, 3, 55, 80
5, 80640, Note_on_c, 3, 60, 80
5, 80879, Note_on_c, 3, 52, 0
5, 80879, Note_on_c, 3, 55, 0
5, 80879, Note_on_c, 3, 60, 0
5, 81120, Note_on_c, 3, 52, 80
5, 81120, Note_on_c, 3, 55, 80
5, 81120, Note_on_c, 3, 60, 80
5, 81359, Note_on_c, 3, 52, 0
5, 81359, Note_on_c, 3, 55, 0
5, 81359, Note_on_c, 3, 60, 0
5, 81360, Note_on_c, 3, 52, 80
5, 81360, Note_on_c, 3, 55, 80
5, 81360, Note_on_c, 3, 60, 80
5, 81839, Note_on_c, 3, 52, 0
5, 81839, Note_on_c, 3, 55, 0
5, 81839, Note_on_c, 3, 60, 0
5, 81840, Note_on_c, 3, 52, 80
5, 81840, Note_on_c, 3, 55, 80
5, 81840, Note_on_c, 3, 60, 80
5, 82079, Note_on_c, 3, 52, 0
5, 82079, Note_on_c, 3, 55, 0
5, 82079, Note_on_c, 3, 60, 0
5, 82080, Note_on_c, 3, 50, 80
5, 82080, Note_on_c, 3, 55, 80
5, 82080, Note_on_c, 3, 59, 80
5, 82559, Note_on_c, 3, 50, 0
5, 82559, Note_on_c, 3, 55, 0
5, 82559, Note_on_c, 3, 59, 0
5, 82560, Note_on_c, 3, 50, 80
5, 82560, Note_on_c, 3, 55, 80
5, 82560, Note_on_c, 3, 59, 80
5, 82799, Note_on_c, 3, 50, 0
5, 82799, Note_on_c, 3, 55, 0
5, 82799, Note_on_c, 3, 59, 0
5, 82800, Note_on_c, 3, 50, 80
5, 82800, Note_on_c, 3, 55, 80
5, 82800, Note_on_c, 3, 59, 80
5, 83279, Note_on_c, 3, 50, 0
5, 83279, Note_on_c, 3, 55, 0
5, 83279, Note_on_c, 3, 59, 0
5, 83280, Note_on_c, 3, 50, 80
5, 83280, Note_on_c, 3, 55, 80
5, 83280, Note_on_c, 3, 59, 80
5, 83519, Note_on_c, 3, 50, 0
5, 83519, Note_on_c, 3, 55, 0
5, 83519, Note_on_c, 3, 59, 0
5, 83520, Note_on_c, 3, 50, 80
5, 83520, Note_on_c, 3, 57, 80
5, 83999, Note_on_c, 3, 50, 0
5, 83999, Note_on_c, 3, 57, 0
5, 84000, Note_on_c, 3, 50, 80
5, 84000, Note_on_c, 3, 57, 80
5, 84239, Note_on_c, 3, 50, 0
5, 84239, Note_on_c, 3, 57, 0
5, 84240, Note_on_c, 3, 50, 80
5, 84240, Note_on_c, 3, 57, 80
5, 84719, Note_on_c, 3, 50, 0
5, 84719, Note_on_c, 3, 57, 0
5, 84720, Note_on_c, 3, 50, 80
5, 84720, Note_on_c, 3, 57, 80
5, 84959, Note_on_c, 3, 50, 0
5, 84959, Note_on_c, 3, 57, 0
5, 84960, Note_on_c, 3, 50, 80
5, 84960, Note_on_c, 3, 55, 80
5, 84960, Note_on_c, 3, 59, 80
5, 85439, Note_on_c, 3, 50, 0
5, 85439, Note_on_c, 3, 55, 0
5, 85439, Note_on_c, 3, 59, 0
5, 85440, Note_on_c, 3, 50, 80
5, 85440, Note_on_c, 3, 55, 80
5, 85440, Note_on_c, 3, 59, 80
5, 85679, Note_on_c, 3, 50, 0
5, 85679, Note_on_c, 3, 55, 0
5, 85679, Note_on_c, 3, 59, 0
5, 85680, Note_on_c, 3, 50, 80
5, 85680, Note_on_c, 3, 55, 80
5, 85680, Note_on_c, 3, 59, 80
5, 86159, Note_on_c, 3, 50, 0
5, 86159, Note_on_c, 3, 55, 0
5, 86159, Note_on_c, 3, 59, 0
5, 86160, Note_on_c, 3, 50, 80
5, 86160, Note_on_c, 3, 55, 80
5, 86160, Note_on_c, 3, 59, 80
5, 86399, Note_on_c, 3, 50, 0
5, 86399, Note_on_c, 3, 55, 0
5, 86399, Note_on_c, 3, 59, 0
5, 86400, Note_on_c, 3, 50, 80
5, 86400, Note_on_c, 3, 57, 80
5, 86879, Note_on_c, 3, 50, 0
5, 86879, Note_on_c, 3, 57, 0
5, 86880, Note_on_c, 3, 50, 80
5, 86880, Note_on_c, 3, 57, 80
5, 87119, Note_on_c, 3, 50, 0
5, 87119, Note_on_c, 3, 57, 0
5, 87120, Note_on_c, 3, 50, 80
5, 87120, Note_on_c, 3, 57, 80
5, 87599, Note_on_c, 3, 50, 0
5, 87599, Note_on_c, 3, 57, 0
5, 87600, Note_on_c, 3, 50, 80
5, 87600, Note_on_c, 3, 57, 80
5, 87839, Note_on_c, 3, 50, 0
5, 87839, Note_on_c, 3, 57, 0
5, 87840, Note_on_c, 3, 50, 80
5, 87840, Note_on_c, 3, 55, 80
5, 87840, Note_on_c, 3, 59, 80
5, 88199, Note_on_c, 3, 50, 0
5, 88199, Note_on_c, 3, 55, 0
5, 88199, Note_on_c, 3, 59, 0
5, 88200, End_track
0, 0, End_of_file
