0, 0, Header, 1, 5, 480
1, 0, Start_track
1, 0, Title_t, "Piano, Piano\000"
1, 0, Time_signature, 4, 2, 24, 8
1, 0, Key_signature, 0, "major"
1, 0, Tempo, 500000
1, 0, Control_c, 2, 121, 0
1, 0, Program_c, 2, 0
1, 0, Control_c, 2, 7, 127
1, 0, Control_c, 2, 10, 64
1, 0, Control_c, 2, 91, 0
1, 0, Control_c, 2, 93, 0
1, 0, MIDI_port, 0
1, 0, Note_on_c, 2, 67, 80
1, 0, Note_on_c, 2, 72, 80
1, 455, Note_on_c, 2, 67, 0
1, 455, Note_on_c, 2, 72, 0
1, 480, Note_on_c, 2, 67, 80
1, 480, Note_on_c, 2, 72, 80
1, 1391, Note_on_c, 2, 67, 0
1, 1391, Note_on_c, 2, 72, 0
1, 1440, Note_on_c, 2, 72, 80
1, 1743, Note_on_c, 2, 72, 0
1, 1760, Note_on_c, 2, 69, 80
1, 1911, Note_on_c, 2, 69, 0
1, 1920, Note_on_c, 2, 72, 80
1, 2223, Note_on_c, 2, 72, 0
1, 2240, Note_on_c, 2, 69, 80
1, 2391, Note_on_c, 2, 69, 0
1, 2400, Note_on_c, 2, 72, 80
1, 2627, Note_on_c, 2, 72, 0
1, 2640, Note_on_c, 2, 76, 80
1, 2759, Note_on_c, 2, 76, 0
1, 3680, Note_on_c, 2, 77, 80
1, 3680, Note_on_c, 2, 81, 80
1, 3831, Note_on_c, 2, 77, 0
1, 3831, Note_on_c, 2, 81, 0
1, 3840, Note_on_c, 2, 76, 80
1, 3840, Note_on_c, 2, 79, 80
1, 4067, Note_on_c, 2, 76, 0
1, 4067, Note_on_c, 2, 79, 0
1, 4080, Note_on_c, 2, 72, 80
1, 4193, Note_on_c, 2, 72, 0
1, 4200, Note_on_c, 2, 67, 80
1, 4313, Note_on_c, 2, 67, 0
1, 4320, Note_on_c, 2, 65, 80
1, 4623, Note_on_c, 2, 65, 0
1, 4640, Note_on_c, 2, 60, 80
1, 4640, Note_on_c, 2, 65, 80
1, 4791, Note_on_c, 2, 60, 0
1, 4791, Note_on_c, 2, 65, 0
1, 4800, Note_on_c, 2, 62, 80
1, 4890, Note_on_c, 2, 62, 0
1, 4896, Note_on_c, 2, 64, 80
1, 5077, Note_on_c, 2, 64, 0
1, 5088, Note_on_c, 2, 67, 80
1, 5269, Note_on_c, 2, 67, 0
1, 5280, Note_on_c, 2, 69, 80
1, 5583, Note_on_c, 2, 69, 0
1, 5600, Note_on_c, 2, 67, 80
1, 5751, Note_on_c, 2, 67, 0
1, 5760, Note_on_c, 2, 72, 80
1, 6063, Note_on_c, 2, 72, 0
1, 6080, Note_on_c, 2, 69, 80
1, 6231, Note_on_c, 2, 69, 0
1, 6240, Note_on_c, 2, 64, 80
1, 6543, Note_on_c, 2, 64, 0
1, 6560, Note_on_c, 2, 62, 80
1, 7167, Note_on_c, 2, 62, 0
1, 7520, Note_on_c, 2, 67, 80
1, 7671, Note_on_c, 2, 67, 0
1, 7680, Note_on_c, 2, 72, 80
1, 7680, Note_on_c, 2, 79, 80
1, 7983, Note_on_c, 2, 72, 0
1, 7983, Note_on_c, 2, 79, 0
1, 8000, Note_on_c, 2, 72, 80
1, 8000, Note_on_c, 2, 79, 80
1, 8151, Note_on_c, 2, 72, 0
1, 8151, Note_on_c, 2, 79, 0
1, 8160, Note_on_c, 2, 72, 80
1, 8160, Note_on_c, 2, 77, 80
1, 8399, Note_on_c, 2, 72, 0
1, 8399, Note_on_c, 2, 77, 0
1, 8640, Note_on_c, 2, 71, 80
1, 8640, Note_on_c, 2, 76, 80
1, 9095, Note_on_c, 2, 71, 0
1, 9095, Note_on_c, 2, 76, 0
1, 9120, Note_on_c, 2, 71, 80
1, 9120, Note_on_c, 2, 74, 80
1, 9359, Note_on_c, 2, 71, 0
1, 9359, Note_on_c, 2, 74, 0
1, 9600, Note_on_c, 2, 69, 80
1, 9600, Note_on_c, 2, 72, 80
1, 9903, Note_on_c, 2, 69, 0
1, 9903, Note_on_c, 2, 72, 0
1, 9920, Note_on_c, 2, 67, 80
1, 10071, Note_on_c, 2, 67, 0
1, 10880, Note_on_c, 2, 67, 80
1, 11031, Note_on_c, 2, 67, 0
1, 11040, Note_on_c, 2, 69, 80
1, 11343, Note_on_c, 2, 69, 0
1, 11360, Note_on_c, 2, 67, 80
1, 11511, Note_on_c, 2, 67, 0
1, 11520, Note_on_c, 2, 71, 80
1, 11520, Note_on_c, 2, 74, 80
1, 12203, Note_on_c, 2, 71, 0
1, 12203, Note_on_c, 2, 74, 0
1, 12320, Note_on_c, 2, 72, 80
1, 12471, Note_on_c, 2, 72, 0
1, 12480, Note_on_c, 2, 69, 80
1, 12480, Note_on_c, 2, 74, 80
1, 13280, Note_on_c, 2, 72, 80
1, 13391, Note_on_c, 2, 69, 0
1, 13391, Note_on_c, 2, 74, 0
1, 13431, Note_on_c, 2, 72, 0
1, 13440, Note_on_c, 2, 71, 80
1, 13743, Note_on_c, 2, 71, 0
1, 13760, Note_on_c, 2, 67, 80
1, 13911, Note_on_c, 2, 67, 0
1, 15200, Note_on_c, 2, 69, 80
1, 15351, Note_on_c, 2, 69, 0
1, 15360, Note_on_c, 2, 77, 80
1, 15360, Note_on_c, 2, 81, 80
1, 15663, Note_on_c, 2, 77, 0
1, 15663, Note_on_c, 2, 81, 0
1, 15680, Note_on_c, 2, 77, 80
1, 15680, Note_on_c, 2, 81, 80
1, 15831, Note_on_c, 2, 77, 0
1, 15831, Note_on_c, 2, 81, 0
1, 15840, Note_on_c, 2, 76, 80
1, 15840, Note_on_c, 2, 79, 80
1, 16079, Note_on_c, 2, 76, 0
1, 16079, Note_on_c, 2, 79, 0
1, 16320, Note_on_c, 2, 72, 80
1, 16320, Note_on_c, 2, 77, 80
1, 16775, Note_on_c, 2, 72, 0
1, 16775, Note_on_c, 2, 77, 0
1, 16800, Note_on_c, 2, 69, 80
1, 16800, Note_on_c, 2, 76, 80
1, 17103, Note_on_c, 2, 69, 0
1, 17103, Note_on_c, 2, 76, 0
1, 17120, Note_on_c, 2, 69, 80
1, 17120, Note_on_c, 2, 74, 80
1, 17271, Note_on_c, 2, 69, 0
1, 17271, Note_on_c, 2, 74, 0
1, 18560, Note_on_c, 2, 83, 80
1, 18711, Note_on_c, 2, 83, 0
1, 19040, Note_on_c, 2, 81, 80
1, 19191, Note_on_c, 2, 81, 0
1, 19200, Note_on_c, 2, 74, 80
1, 19200, Note_on_c, 2, 79, 80
1, 19503, Note_on_c, 2, 74, 0
1, 19503, Note_on_c, 2, 79, 0
1, 19520, Note_on_c, 2, 76, 80
1, 19671, Note_on_c, 2, 76, 0
1, 19680, Note_on_c, 2, 69, 80
1, 19680, Note_on_c, 2, 72, 80
1, 19983, Note_on_c, 2, 69, 0
1, 19983, Note_on_c, 2, 72, 0
1, 20000, Note_on_c, 2, 67, 80
1, 20151, Note_on_c, 2, 67, 0
1, 20160, Note_on_c, 2, 71, 80
1, 20160, Note_on_c, 2, 76, 80
1, 20399, Note_on_c, 2, 71, 0
1, 20399, Note_on_c, 2, 76, 0
1, 20640, Note_on_c, 2, 71, 80
1, 20640, Note_on_c, 2, 74, 80
1, 20943, Note_on_c, 2, 71, 0
1, 20943, Note_on_c, 2, 74, 0
1, 20960, Note_on_c, 2, 67, 80
1, 20960, Note_on_c, 2, 72, 80
1, 21111, Note_on_c, 2, 67, 0
1, 21111, Note_on_c, 2, 72, 0
1, 22880, Note_on_c, 2, 67, 80
1, 23031, Note_on_c, 2, 67, 0
1, 23040, Note_on_c, 2, 72, 80
1, 23040, Note_on_c, 2, 79, 80
1, 23343, Note_on_c, 2, 72, 0
1, 23343, Note_on_c, 2, 79, 0
1, 23360, Note_on_c, 2, 72, 80
1, 23360, Note_on_c, 2, 79, 80
1, 23511, Note_on_c, 2, 72, 0
1, 23511, Note_on_c, 2, 79, 0
1, 23520, Note_on_c, 2, 72, 80
1, 23520, Note_on_c, 2, 77, 80
1, 23759, Note_on_c, 2, 72, 0
1, 23759, Note_on_c, 2, 77, 0
1, 24000, Note_on_c, 2, 71, 80
1, 24000, Note_on_c, 2, 76, 80
1, 24455, Note_on_c, 2, 71, 0
1, 24455, Note_on_c, 2, 76, 0
1, 24480, Note_on_c, 2, 71, 80
1, 24480, Note_on_c, 2, 74, 80
1, 24783, Note_on_c, 2, 71, 0
1, 24783, Note_on_c, 2, 74, 0
1, 24800, Note_on_c, 2, 69, 80
1, 24800, Note_on_c, 2, 72, 80
1, 24951, Note_on_c, 2, 69, 0
1, 24951, Note_on_c, 2, 72, 0
1, 25280, Note_on_c, 2, 62, 80
1, 25280, Note_on_c, 2, 67, 80
1, 25431, Note_on_c, 2, 62, 0
1, 25431, Note_on_c, 2, 67, 0
1, 26160, Note_on_c, 2, 67, 80
1, 26519, Note_on_c, 2, 67, 0
1, 26560, Note_on_c, 2, 65, 80
1, 26711, Note_on_c, 2, 65, 0
1, 26720, Note_on_c, 2, 67, 80
1, 26871, Note_on_c, 2, 67, 0
1, 26880, Note_on_c, 2, 74, 80
1, 27183, Note_on_c, 2, 74, 0
1, 27200, Note_on_c, 2, 74, 80
1, 27503, Note_on_c, 2, 74, 0
1, 27520, Note_on_c, 2, 72, 80
1, 27823, Note_on_c, 2, 72, 0
1, 27840, Note_on_c, 2, 74, 80
1, 28143, Note_on_c, 2, 74, 0
1, 28160, Note_on_c, 2, 76, 80
1, 28235, Note_on_c, 2, 76, 0
1, 28240, Note_on_c, 2, 74, 80
1, 28315, Note_on_c, 2, 74, 0
1, 28320, Note_on_c, 2, 72, 80
1, 28559, Note_on_c, 2, 72, 0
1, 28800, Note_on_c, 2, 71, 80
1, 29103, Note_on_c, 2, 71, 0
1, 29120, Note_on_c, 2, 67, 80
1, 29271, Note_on_c, 2, 67, 0
1, 30560, Note_on_c, 2, 69, 80
1, 30711, Note_on_c, 2, 69, 0
1, 30720, Note_on_c, 2, 77, 80
1, 30720, Note_on_c, 2, 81, 80
1, 31023, Note_on_c, 2, 77, 0
1, 31023, Note_on_c, 2, 81, 0
1, 31040, Note_on_c, 2, 77, 80
1, 31040, Note_on_c, 2, 81, 80
1, 31191, Note_on_c, 2, 77, 0
1, 31191, Note_on_c, 2, 81, 0
1, 31200, Note_on_c, 2, 76, 80
1, 31200, Note_on_c, 2, 79, 80
1, 31439, Note_on_c, 2, 76, 0
1, 31439, Note_on_c, 2, 79, 0
1, 31680, Note_on_c, 2, 72, 80
1, 31680, Note_on_c, 2, 77, 80
1, 32135, Note_on_c, 2, 72, 0
1, 32135, Note_on_c, 2, 77, 0
1, 32160, Note_on_c, 2, 69, 80
1, 32160, Note_on_c, 2, 76, 80
1, 32463, Note_on_c, 2, 69, 0
1, 32463, Note_on_c, 2, 76, 0
1, 32480, Note_on_c, 2, 69, 80
1, 32480, Note_on_c, 2, 74, 80
1, 32631, Note_on_c, 2, 69, 0
1, 32631, Note_on_c, 2, 74, 0
1, 33920, Note_on_c, 2, 74, 80
1, 33920, Note_on_c, 2, 83, 80
1, 34071, Note_on_c, 2, 74, 0
1, 34071, Note_on_c, 2, 83, 0
1, 34400, Note_on_c, 2, 76, 80
1, 34400, Note_on_c, 2, 81, 80
1, 34551, Note_on_c, 2, 76, 0
1, 34551, Note_on_c, 2, 81, 0
1, 34560, Note_on_c, 2, 74, 80
1, 34560, Note_on_c, 2, 79, 80
1, 34863, Note_on_c, 2, 74, 0
1, 34863, Note_on_c, 2, 79, 0
1, 34880, Note_on_c, 2, 76, 80
1, 35031, Note_on_c, 2, 76, 0
1, 35040, Note_on_c, 2, 69, 80
1, 35040, Note_on_c, 2, 72, 80
1, 35343, Note_on_c, 2, 69, 0
1, 35343, Note_on_c, 2, 72, 0
1, 35360, Note_on_c, 2, 67, 80
1, 35511, Note_on_c, 2, 67, 0
1, 35520, Note_on_c, 2, 71, 80
1, 35520, Note_on_c, 2, 76, 80
1, 35759, Note_on_c, 2, 71, 0
1, 35759, Note_on_c, 2, 76, 0
1, 36000, Note_on_c, 2, 71, 80
1, 36000, Note_on_c, 2, 74, 80
1, 36303, Note_on_c, 2, 71, 0
1, 36303, Note_on_c, 2, 74, 0
1, 36320, Note_on_c, 2, 67, 80
1, 36320, Note_on_c, 2, 72, 80
1, 36471, Note_on_c, 2, 67, 0
1, 36471, Note_on_c, 2, 72, 0
1, 38400, Note_on_c, 2, 74, 80
1, 38703, Note_on_c, 2, 74, 0
1, 38720, Note_on_c, 2, 76, 80
1, 38871, Note_on_c, 2, 76, 0
1, 38880, Note_on_c, 2, 74, 80
1, 39335, Note_on_c, 2, 74, 0
1, 39360, Note_on_c, 2, 71, 80
1, 39815, Note_on_c, 2, 71, 0
1, 39840, Note_on_c, 2, 77, 80
1, 39915, Note_on_c, 2, 77, 0
1, 39920, Note_on_c, 2, 79, 80
1, 40071, Note_on_c, 2, 79, 0
1, 40080, Note_on_c, 2, 74, 80
1, 41219, Note_on_c, 2, 74, 0
1, 41600, Note_on_c, 2, 69, 80
1, 41751, Note_on_c, 2, 69, 0
1, 41760, Note_on_c, 2, 71, 80
1, 42063, Note_on_c, 2, 71, 0
1, 42080, Note_on_c, 2, 74, 80
1, 42231, Note_on_c, 2, 74, 0
1, 42240, Note_on_c, 2, 72, 80
1, 42695, Note_on_c, 2, 72, 0
1, 42720, Note_on_c, 2, 72, 80
1, 43023, Note_on_c, 2, 72, 0
1, 43040, Note_on_c, 2, 71, 80
1, 43191, Note_on_c, 2, 71, 0
1, 43200, Note_on_c, 2, 69, 80
1, 43313, Note_on_c, 2, 69, 0
1, 43320, Note_on_c, 2, 71, 80
1, 43433, Note_on_c, 2, 71, 0
1, 43440, Note_on_c, 2, 69, 80
1, 43553, Note_on_c, 2, 69, 0
1, 43560, Note_on_c, 2, 67, 80
1, 43673, Note_on_c, 2, 67, 0
1, 43680, Note_on_c, 2, 69, 80
1, 43983, Note_on_c, 2, 69, 0
1, 44000, Note_on_c, 2, 71, 80
1, 45063, Note_on_c, 2, 71, 0
1, 45440, Note_on_c, 2, 62, 80
1, 45591, Note_on_c, 2, 62, 0
1, 45600, Note_on_c, 2, 71, 80
1, 45903, Note_on_c, 2, 71, 0
1, 45920, Note_on_c, 2, 72, 80
1, 46071, Note_on_c, 2, 72, 0
1, 46080, Note_on_c, 2, 74, 80
1, 46383, Note_on_c, 2, 74, 0
1, 46400, Note_on_c, 2, 76, 80
1, 46551, Note_on_c, 2, 76, 0
1, 46560, Note_on_c, 2, 74, 80
1, 47015, Note_on_c, 2, 74, 0
1, 47040, Note_on_c, 2, 71, 80
1, 47343, Note_on_c, 2, 71, 0
1, 47360, Note_on_c, 2, 76, 80
1, 47435, Note_on_c, 2, 76, 0
1, 47440, Note_on_c, 2, 77, 80
1, 47515, Note_on_c, 2, 77, 0
1, 47520, Note_on_c, 2, 79, 80
1, 47823, Note_on_c, 2, 79, 0
1, 47840, Note_on_c, 2, 74, 80
1, 48903, Note_on_c, 2, 74, 0
1, 49760, Note_on_c, 2, 79, 80
1, 50215, Note_on_c, 2, 79, 0
1, 50240, Note_on_c, 2, 74, 80
1, 50391, Note_on_c, 2, 74, 0
1, 50400, Note_on_c, 2, 76, 80
1, 50703, Note_on_c, 2, 76, 0
1, 50720, Note_on_c, 2, 74, 80
1, 51099, Note_on_c, 2, 74, 0
1, 51120, Note_on_c, 2, 76, 80
1, 51347, Note_on_c, 2, 76, 0
1, 51360, Note_on_c, 2, 74, 80
1, 51663, Note_on_c, 2, 74, 0
1, 51680, Note_on_c, 2, 67, 80
1, 51831, Note_on_c, 2, 67, 0
1, 53600, Note_on_c, 2, 67, 80
1, 53751, Note_on_c, 2, 67, 0
1, 53760, Note_on_c, 2, 74, 80
1, 53760, Note_on_c, 2, 79, 80
1, 54063, Note_on_c, 2, 74, 0
1, 54063, Note_on_c, 2, 79, 0
1, 54080, Note_on_c, 2, 76, 80
1, 54231, Note_on_c, 2, 76, 0
1, 54240, Note_on_c, 2, 72, 80
1, 54240, Note_on_c, 2, 77, 80
1, 54543, Note_on_c, 2, 72, 0
1, 54543, Note_on_c, 2, 77, 0
1, 54560, Note_on_c, 2, 74, 80
1, 54711, Note_on_c, 2, 74, 0
1, 54720, Note_on_c, 2, 71, 80
1, 54720, Note_on_c, 2, 76, 80
1, 55023, Note_on_c, 2, 71, 0
1, 55023, Note_on_c, 2, 76, 0
1, 55040, Note_on_c, 2, 72, 80
1, 55191, Note_on_c, 2, 72, 0
1, 55200, Note_on_c, 2, 74, 80
1, 55503, Note_on_c, 2, 74, 0
1, 55520, Note_on_c, 2, 71, 80
1, 55671, Note_on_c, 2, 71, 0
1, 55680, Note_on_c, 2, 69, 80
1, 55680, Note_on_c, 2, 72, 80
1, 55983, Note_on_c, 2, 69, 0
1, 55983, Note_on_c, 2, 72, 0
1, 56000, Note_on_c, 2, 67, 80
1, 56151, Note_on_c, 2, 67, 0
1, 56960, Note_on_c, 2, 65, 80
1, 57263, Note_on_c, 2, 65, 0
1, 57280, Note_on_c, 2, 67, 80
1, 57583, Note_on_c, 2, 67, 0
1, 57600, Note_on_c, 2, 71, 80
1, 57600, Note_on_c, 2, 74, 80
1, 58283, Note_on_c, 2, 71, 0
1, 58283, Note_on_c, 2, 74, 0
1, 58400, Note_on_c, 2, 72, 80
1, 58551, Note_on_c, 2, 72, 0
1, 58560, Note_on_c, 2, 69, 80
1, 58560, Note_on_c, 2, 74, 80
1, 59360, Note_on_c, 2, 72, 80
1, 59471, Note_on_c, 2, 69, 0
1, 59471, Note_on_c, 2, 74, 0
1, 59511, Note_on_c, 2, 72, 0
1, 59520, Note_on_c, 2, 71, 80
1, 59823, Note_on_c, 2, 71, 0
1, 59840, Note_on_c, 2, 67, 80
1, 59991, Note_on_c, 2, 67, 0
1, 61280, Note_on_c, 2, 69, 80
1, 61431, Note_on_c, 2, 69, 0
1, 61440, Note_on_c, 2, 77, 80
1, 61440, Note_on_c, 2, 81, 80
1, 61743, Note_on_c, 2, 77, 0
1, 61743, Note_on_c, 2, 81, 0
1, 61760, Note_on_c, 2, 77, 80
1, 61760, Note_on_c, 2, 81, 80
1, 61911, Note_on_c, 2, 77, 0
1, 61911, Note_on_c, 2, 81, 0
1, 61920, Note_on_c, 2, 74, 80
1, 61920, Note_on_c, 2, 79, 80
1, 62159, Note_on_c, 2, 74, 0
1, 62159, Note_on_c, 2, 79, 0
1, 62400, Note_on_c, 2, 72, 80
1, 62400, Note_on_c, 2, 77, 80
1, 62855, Note_on_c, 2, 72, 0
1, 62855, Note_on_c, 2, 77, 0
1, 62880, Note_on_c, 2, 69, 80
1, 62880, Note_on_c, 2, 76, 80
1, 63183, Note_on_c, 2, 69, 0
1, 63183, Note_on_c, 2, 76, 0
1, 63200, Note_on_c, 2, 69, 80
1, 63200, Note_on_c, 2, 74, 80
1, 63351, Note_on_c, 2, 69, 0
1, 63351, Note_on_c, 2, 74, 0
1, 64640, Note_on_c, 2, 83, 80
1, 64791, Note_on_c, 2, 83, 0
1, 65120, Note_on_c, 2, 81, 80
1, 65271, Note_on_c, 2, 81, 0
1, 65280, Note_on_c, 2, 72, 80
1, 65280, Note_on_c, 2, 79, 80
1, 65583, Note_on_c, 2, 72, 0
1, 65583, Note_on_c, 2, 79, 0
1, 65600, Note_on_c, 2, 72, 80
1, 65600, Note_on_c, 2, 79, 80
1, 65751, Note_on_c, 2, 72, 0
1, 65751, Note_on_c, 2, 79, 0
1, 65760, Note_on_c, 2, 72, 80
1, 65760, Note_on_c, 2, 77, 80
1, 65999, Note_on_c, 2, 72, 0
1, 65999, Note_on_c, 2, 77, 0
1, 66240, Note_on_c, 2, 71, 80
1, 66240, Note_on_c, 2, 76, 80
1, 66543, Note_on_c, 2, 71, 0
1, 66543, Note_on_c, 2, 76, 0
1, 66560, Note_on_c, 2, 77, 80
1, 66635, Note_on_c, 2, 77, 0
1, 66640, Note_on_c, 2, 76, 80
1, 66715, Note_on_c, 2, 76, 0
1, 66720, Note_on_c, 2, 67, 80
1, 66720, Note_on_c, 2, 74, 80
1, 67023, Note_on_c, 2, 67, 0
1, 67023, Note_on_c, 2, 74, 0
1, 67040, Note_on_c, 2, 69, 80
1, 67040, Note_on_c, 2, 72, 80
1, 67191, Note_on_c, 2, 69, 0
1, 67191, Note_on_c, 2, 72, 0
1, 68040, Note_on_c, 2, 55, 80
1, 68160, Note_on_c, 2, 57, 80
1, 68463, Note_on_c, 2, 57, 0
1, 68480, Note_on_c, 2, 60, 80
1, 68631, Note_on_c, 2, 60, 0
1, 68640, Note_on_c, 2, 64, 80
1, 68943, Note_on_c, 2, 64, 0
1, 68960, Note_on_c, 2, 65, 80
1, 69065, Note_on_c, 2, 55, 0
1, 69111, Note_on_c, 2, 65, 0
1, 69120, Note_on_c, 2, 67, 80
1, 69120, Note_on_c, 2, 62, 80
1, 69359, Note_on_c, 2, 67, 0
1, 69423, Note_on_c, 2, 62, 0
1, 69440, Note_on_c, 2, 62, 80
1, 69440, Note_on_c, 2, 67, 80
1, 69591, Note_on_c, 2, 62, 0
1, 69591, Note_on_c, 2, 67, 0
1, 69600, Note_on_c, 2, 60, 80
1, 69600, Note_on_c, 2, 67, 80
1, 70055, Note_on_c, 2, 60, 0
1, 70055, Note_on_c, 2, 67, 0
1, 70080, Note_on_c, 2, 67, 80
1, 70080, Note_on_c, 2, 59, 80
1, 70319, Note_on_c, 2, 67, 0
1, 70383, Note_on_c, 2, 59, 0
1, 70400, Note_on_c, 2, 60, 80
1, 70400, Note_on_c, 2, 69, 80
1, 71919, Note_on_c, 2, 60, 0
1, 71919, Note_on_c, 2, 69, 0
1, 72320, Note_on_c, 2, 64, 80
1, 72471, Note_on_c, 2, 64, 0
1, 72480, Note_on_c, 2, 65, 80
1, 72783, Note_on_c, 2, 65, 0
1, 72800, Note_on_c, 2, 69, 80
1, 72951, Note_on_c, 2, 69, 0
1, 72960, Note_on_c, 2, 67, 80
1, 73263, Note_on_c, 2, 67, 0
1, 73280, Note_on_c, 2, 67, 80
1, 73280, Note_on_c, 2, 72, 80
1, 73659, Note_on_c, 2, 67, 0
1, 73659, Note_on_c, 2, 72, 0
1, 73680, Note_on_c, 2, 67, 80
1, 73907, Note_on_c, 2, 67, 0
1, 73920, Note_on_c, 2, 69, 80
1, 74223, Note_on_c, 2, 69, 0
1, 74240, Note_on_c, 2, 69, 80
1, 74240, Note_on_c, 2, 72, 80
1, 74619, Note_on_c, 2, 69, 0
1, 74619, Note_on_c, 2, 72, 0
1, 74640, Note_on_c, 2, 69, 80
1, 74867, Note_on_c, 2, 69, 0
1, 74880, Note_on_c, 2, 65, 80
1, 75183, Note_on_c, 2, 65, 0
1, 75200, Note_on_c, 2, 60, 80
1, 75351, Note_on_c, 2, 60, 0
1, 75360, Note_on_c, 2, 57, 80
1, 75663, Note_on_c, 2, 57, 0
1, 75680, Note_on_c, 2, 53, 80
1, 75831, Note_on_c, 2, 53, 0
1, 75840, Note_on_c, 2, 64, 80
1, 76143, Note_on_c, 2, 64, 0
1, 76160, Note_on_c, 2, 67, 80
1, 76311, Note_on_c, 2, 67, 0
1, 76640, Note_on_c, 2, 64, 80
1, 76640, Note_on_c, 2, 67, 80
1, 76791, Note_on_c, 2, 64, 0
1, 76791, Note_on_c, 2, 67, 0
1, 77120, Note_on_c, 2, 64, 80
1, 77120, Note_on_c, 2, 67, 80
1, 77271, Note_on_c, 2, 64, 0
1, 77271, Note_on_c, 2, 67, 0
1, 77600, Note_on_c, 2, 62, 80
1, 77600, Note_on_c, 2, 69, 80
1, 77751, Note_on_c, 2, 62, 0
1, 77751, Note_on_c, 2, 69, 0
1, 77760, Note_on_c, 2, 62, 80
1, 77760, Note_on_c, 2, 67, 80
1, 78215, Note_on_c, 2, 62, 0
1, 78215, Note_on_c, 2, 67, 0
1, 78240, Note_on_c, 2, 69, 80
1, 78240, Note_on_c, 2, 65, 80
1, 78479, Note_on_c, 2, 69, 0
1, 78543, Note_on_c, 2, 65, 0
1, 78560, Note_on_c, 2, 64, 80
1, 78711, Note_on_c, 2, 64, 0
1, 78720, Note_on_c, 2, 62, 80
1, 78720, Note_on_c, 2, 67, 80
1, 78959, Note_on_c, 2, 67, 0
1, 79023, Note_on_c, 2, 62, 0
1, 79040, Note_on_c, 2, 65, 80
1, 79191, Note_on_c, 2, 65, 0
1, 79200, Note_on_c, 2, 64, 80
1, 79503, Note_on_c, 2, 64, 0
1, 79520, Note_on_c, 2, 65, 80
1, 79671, Note_on_c, 2, 65, 0
1, 79680, Note_on_c, 2, 67, 80
1, 79983, Note_on_c, 2, 67, 0
1, 80000, Note_on_c, 2, 69, 80
1, 80151, Note_on_c, 2, 69, 0
1, 80160, Note_on_c, 2, 72, 80
1, 80463, Note_on_c, 2, 72, 0
1, 80480, Note_on_c, 2, 76, 80
1, 80631, Note_on_c, 2, 76, 0
1, 80640, Note_on_c, 2, 77, 80
1, 80867, Note_on_c, 2, 77, 0
1, 80880, Note_on_c, 2, 74, 80
1, 80993, Note_on_c, 2, 74, 0
1, 81000, Note_on_c, 2, 69, 80
1, 81113, Note_on_c, 2, 69, 0
1, 81120, Note_on_c, 2, 67, 80
1, 81423, Note_on_c, 2, 67, 0
1, 81440, Note_on_c, 2, 64, 80
1, 81591, Note_on_c, 2, 64, 0
1, 81600, Note_on_c, 2, 65, 80
1, 81903, Note_on_c, 2, 65, 0
1, 81920, Note_on_c, 2, 67, 80
1, 82071, Note_on_c, 2, 67, 0
1, 82080, Note_on_c, 2, 64, 80
1, 82383, Note_on_c, 2, 64, 0
1, 82400, Note_on_c, 2, 60, 80
1, 83919, Note_on_c, 2, 60, 0
1, 88160, Note_on_c, 2, 71, 80
1, 88160, Note_on_c, 2, 79, 80
1, 88615, Note_on_c, 2, 71, 0
1, 88615, Note_on_c, 2, 79, 0
1, 88640, Note_on_c, 2, 76, 80
1, 88791, Note_on_c, 2, 76, 0
1, 88800, Note_on_c, 2, 71, 80
1, 89103, Note_on_c, 2, 71, 0
1, 89120, Note_on_c, 2, 67, 80
1, 89271, Note_on_c, 2, 67, 0
1, 89280, Note_on_c, 2, 60, 80
1, 89280, Note_on_c, 2, 65, 80
1, 89519, Note_on_c, 2, 65, 0
1, 89583, Note_on_c, 2, 60, 0
1, 89600, Note_on_c, 2, 69, 80
1, 89751, Note_on_c, 2, 69, 0
1, 89760, Note_on_c, 2, 72, 80
1, 90063, Note_on_c, 2, 72, 0
1, 90080, Note_on_c, 2, 76, 80
1, 90231, Note_on_c, 2, 76, 0
1, 90240, Note_on_c, 2, 77, 80
1, 90543, Note_on_c, 2, 77, 0
1, 90560, Note_on_c, 2, 76, 80
1, 90711, Note_on_c, 2, 76, 0
1, 90720, Note_on_c, 2, 77, 80
1, 91023, Note_on_c, 2, 77, 0
1, 91040, Note_on_c, 2, 74, 80
1, 91040, Note_on_c, 2, 79, 80
1, 91191, Note_on_c, 2, 74, 0
1, 91191, Note_on_c, 2, 79, 0
1, 92000, Note_on_c, 2, 81, 80
1, 92151, Note_on_c, 2, 81, 0
1, 92160, Note_on_c, 2, 79, 80
1, 92160, Note_on_c, 2, 71, 80
1, 92399, Note_on_c, 2, 79, 0
1, 92463, Note_on_c, 2, 71, 0
1, 92480, Note_on_c, 2, 77, 80
1, 92631, Note_on_c, 2, 77, 0
1, 92640, Note_on_c, 2, 76, 80
1, 92943, Note_on_c, 2, 76, 0
1, 92960, Note_on_c, 2, 74, 80
1, 93111, Note_on_c, 2, 74, 0
1, 93120, Note_on_c, 2, 72, 80
1, 93423, Note_on_c, 2, 72, 0
1, 93440, Note_on_c, 2, 81, 80
1, 93591, Note_on_c, 2, 81, 0
1, 93920, Note_on_c, 2, 76, 80
1, 94071, Note_on_c, 2, 76, 0
1, 94080, Note_on_c, 2, 79, 80
1, 94080, Note_on_c, 2, 76, 80
1, 94319, Note_on_c, 2, 79, 0
1, 94383, Note_on_c, 2, 76, 0
1, 94400, Note_on_c, 2, 77, 80
1, 94551, Note_on_c, 2, 77, 0
1, 94560, Note_on_c, 2, 76, 80
1, 94863, Note_on_c, 2, 76, 0
1, 94880, Note_on_c, 2, 77, 80
1, 95031, Note_on_c, 2, 77, 0
1, 95280, Note_on_c, 2, 76, 80
1, 95393, Note_on_c, 2, 76, 0
1, 95400, Note_on_c, 2, 74, 80
1, 95513, Note_on_c, 2, 74, 0
1, 95520, Note_on_c, 2, 72, 80
1, 95823, Note_on_c, 2, 72, 0
1, 95840, Note_on_c, 2, 74, 80
1, 95991, Note_on_c, 2, 74, 0
1, 96000, Note_on_c, 2, 72, 80
1, 96303, Note_on_c, 2, 72, 0
1, 96320, Note_on_c, 2, 69, 80
1, 96471, Note_on_c, 2, 69, 0
1, 96480, Note_on_c, 2, 64, 80
1, 96631, Note_on_c, 2, 64, 0
1, 96640, Note_on_c, 2, 65, 80
1, 96791, Note_on_c, 2, 65, 0
1, 96800, Note_on_c, 2, 67, 80
1, 96951, Note_on_c, 2, 67, 0
1, 96960, Note_on_c, 2, 76, 80
1, 97111, Note_on_c, 2, 76, 0
1, 97120, Note_on_c, 2, 72, 80
1, 97271, Note_on_c, 2, 72, 0
1, 97280, Note_on_c, 2, 67, 80
1, 97431, Note_on_c, 2, 67, 0
1, 97440, Note_on_c, 2, 60, 80
1, 97440, Note_on_c, 2, 65, 80
1, 97679, Note_on_c, 2, 65, 0
1, 97743, Note_on_c, 2, 60, 0
1, 97760, Note_on_c, 2, 60, 80
1, 97760, Note_on_c, 2, 64, 80
1, 98519, Note_on_c, 2, 60, 0
1, 98519, Note_on_c, 2, 64, 0
1, 98720, Note_on_c, 2, 62, 80
1, 98720, Note_on_c, 2, 67, 80
1, 99099, Note_on_c, 2, 62, 0
1, 99099, Note_on_c, 2, 67, 0
1, 99680, Note_on_c, 2, 62, 80
1, 99831, Note_on_c, 2, 62, 0
1, 99840, Note_on_c, 2, 62, 80
1, 99840, Note_on_c, 2, 67, 80
1, 100295, Note_on_c, 2, 62, 0
1, 100319, Note_on_c, 2, 67, 0
1, 100480, Note_on_c, 2, 69, 80
1, 100631, Note_on_c, 2, 69, 0
1, 100640, Note_on_c, 2, 67, 80
1, 100791, Note_on_c, 2, 67, 0
1, 100800, Note_on_c, 2, 60, 80
1, 100800, Note_on_c, 2, 64, 80
1, 100800, Note_on_c, 2, 69, 80
1, 101103, Note_on_c, 2, 60, 0
1, 101103, Note_on_c, 2, 64, 0
1, 101103, Note_on_c, 2, 69, 0
1, 101120, Note_on_c, 2, 71, 80
1, 101271, Note_on_c, 2, 71, 0
1, 101600, Note_on_c, 2, 74, 80
1, 101751, Note_on_c, 2, 74, 0
1, 102080, Note_on_c, 2, 74, 80
1, 102231, Note_on_c, 2, 74, 0
1, 102560, Note_on_c, 2, 76, 80
1, 102711, Note_on_c, 2, 76, 0
1, 102720, Note_on_c, 2, 77, 80
1, 103023, Note_on_c, 2, 77, 0
1, 103040, Note_on_c, 2, 76, 80
1, 103191, Note_on_c, 2, 76, 0
1, 103200, Note_on_c, 2, 69, 80
1, 103351, Note_on_c, 2, 69, 0
1, 103360, Note_on_c, 2, 71, 80
1, 103511, Note_on_c, 2, 71, 0
1, 103520, Note_on_c, 2, 74, 80
1, 103671, Note_on_c, 2, 74, 0
1, 103680, Note_on_c, 2, 72, 80
1, 103983, Note_on_c, 2, 72, 0
1, 104000, Note_on_c, 2, 71, 80
1, 104151, Note_on_c, 2, 71, 0
1, 104160, Note_on_c, 2, 67, 80
1, 104463, Note_on_c, 2, 67, 0
1, 104480, Note_on_c, 2, 64, 80
1, 104631, Note_on_c, 2, 64, 0
1, 104640, Note_on_c, 2, 69, 80
1, 104730, Note_on_c, 2, 69, 0
1, 104736, Note_on_c, 2, 71, 80
1, 104917, Note_on_c, 2, 71, 0
1, 104928, Note_on_c, 2, 74, 80
1, 105109, Note_on_c, 2, 74, 0
1, 105120, Note_on_c, 2, 69, 80
1, 105210, Note_on_c, 2, 69, 0
1, 105216, Note_on_c, 2, 71, 80
1, 105397, Note_on_c, 2, 71, 0
1, 105408, Note_on_c, 2, 69, 80
1, 105589, Note_on_c, 2, 69, 0
1, 105600, Note_on_c, 2, 62, 80
1, 105600, Note_on_c, 2, 69, 80
1, 106055, Note_on_c, 2, 62, 0
1, 106055, Note_on_c, 2, 69, 0
1, 106080, Note_on_c, 2, 65, 80
1, 106170, Note_on_c, 2, 65, 0
1, 106176, Note_on_c, 2, 67, 80
1, 106357, Note_on_c, 2, 67, 0
1, 106368, Note_on_c, 2, 62, 80
1, 107461, Note_on_c, 2, 62, 0
1, 107520, Note_on_c, 2, 69, 80
1, 107823, Note_on_c, 2, 69, 0
1, 107840, Note_on_c, 2, 74, 80
1, 107991, Note_on_c, 2, 74, 0
1, 108000, Note_on_c, 2, 74, 80
1, 108151, Note_on_c, 2, 74, 0
1, 108320, Note_on_c, 2, 74, 80
1, 108471, Note_on_c, 2, 74, 0
1, 108480, Note_on_c, 2, 79, 80
1, 108783, Note_on_c, 2, 79, 0
1, 108800, Note_on_c, 2, 74, 80
1, 108951, Note_on_c, 2, 74, 0
1, 108960, Note_on_c, 2, 81, 80
1, 109111, Note_on_c, 2, 81, 0
1, 109120, Note_on_c, 2, 74, 80
1, 109271, Note_on_c, 2, 74, 0
1, 109280, Note_on_c, 2, 83, 80
1, 109431, Note_on_c, 2, 83, 0
1, 110160, Note_on_c, 2, 74, 80
1, 110273, Note_on_c, 2, 74, 0
1, 110280, Note_on_c, 2, 76, 80
1, 110393, Note_on_c, 2, 76, 0
1, 110400, Note_on_c, 2, 77, 80
1, 110703, Note_on_c, 2, 77, 0
1, 110720, Note_on_c, 2, 76, 80
1, 110871, Note_on_c, 2, 76, 0
1, 110880, Note_on_c, 2, 79, 80
1, 111183, Note_on_c, 2, 79, 0
1, 111200, Note_on_c, 2, 76, 80
1, 111200, Note_on_c, 2, 79, 80
1, 111807, Note_on_c, 2, 76, 0
1, 111807, Note_on_c, 2, 79, 0
1, 111840, Note_on_c, 2, 76, 80
1, 112143, Note_on_c, 2, 76, 0
1, 112160, Note_on_c, 2, 74, 80
1, 112311, Note_on_c, 2, 74, 0
1, 112320, Note_on_c, 2, 74, 80
1, 112320, Note_on_c, 2, 79, 80
1, 112623, Note_on_c, 2, 74, 0
1, 112623, Note_on_c, 2, 79, 0
1, 112640, Note_on_c, 2, 74, 80
1, 112640, Note_on_c, 2, 79, 80
1, 112791, Note_on_c, 2, 74, 0
1, 112791, Note_on_c, 2, 79, 0
1, 113120, Note_on_c, 2, 74, 80
1, 113120, Note_on_c, 2, 79, 80
1, 113271, Note_on_c, 2, 74, 0
1, 113271, Note_on_c, 2, 79, 0
1, 113760, Note_on_c, 2, 74, 80
1, 113873, Note_on_c, 2, 74, 0
1, 113880, Note_on_c, 2, 72, 80
1, 113993, Note_on_c, 2, 72, 0
1, 114000, Note_on_c, 2, 69, 80
1, 114037, Note_on_c, 2, 69, 0
1, 114040, Note_on_c, 2, 67, 80
1, 114120, Note_on_c, 2, 69, 80
1, 114229, Note_on_c, 2, 67, 0
1, 114233, Note_on_c, 2, 69, 0
1, 114240, Note_on_c, 2, 71, 80
1, 114543, Note_on_c, 2, 71, 0
1, 114560, Note_on_c, 2, 74, 80
1, 114560, Note_on_c, 2, 79, 80
1, 114711, Note_on_c, 2, 74, 0
1, 114711, Note_on_c, 2, 79, 0
1, 115520, Note_on_c, 2, 69, 80
1, 115520, Note_on_c, 2, 74, 80
1, 115671, Note_on_c, 2, 69, 0
1, 115671, Note_on_c, 2, 74, 0
1, 116000, Note_on_c, 2, 76, 80
1, 116151, Note_on_c, 2, 76, 0
1, 116160, Note_on_c, 2, 71, 80
1, 116160, Note_on_c, 2, 74, 80
1, 116463, Note_on_c, 2, 71, 0
1, 116463, Note_on_c, 2, 74, 0
1, 116480, Note_on_c, 2, 71, 80
1, 116480, Note_on_c, 2, 74, 80
1, 116631, Note_on_c, 2, 71, 0
1, 116631, Note_on_c, 2, 74, 0
1, 116960, Note_on_c, 2, 67, 80
1, 116960, Note_on_c, 2, 74, 80
1, 117643, Note_on_c, 2, 67, 0
1, 117643, Note_on_c, 2, 74, 0
1, 117760, Note_on_c, 2, 74, 80
1, 117911, Note_on_c, 2, 74, 0
1, 117920, Note_on_c, 2, 76, 80
1, 118071, Note_on_c, 2, 76, 0
1, 118080, Note_on_c, 2, 79, 80
1, 118383, Note_on_c, 2, 79, 0
1, 118400, Note_on_c, 2, 67, 80
1, 118551, Note_on_c, 2, 67, 0
1, 119400, Note_on_c, 2, 83, 80
1, 120197, Note_on_c, 2, 83, 0
1, 120320, Note_on_c, 2, 84, 80
1, 120623, Note_on_c, 2, 84, 0
1, 120640, Note_on_c, 2, 81, 80
1, 120720, Note_on_c, 2, 83, 80
1, 120799, Note_on_c, 2, 81, 0
1, 120947, Note_on_c, 2, 83, 0
1, 120960, Note_on_c, 2, 79, 80
1, 121263, Note_on_c, 2, 79, 0
1, 121280, Note_on_c, 2, 67, 80
1, 121431, Note_on_c, 2, 67, 0
1, 121600, Note_on_c, 2, 72, 80
1, 121751, Note_on_c, 2, 72, 0
1, 121760, Note_on_c, 2, 65, 80
1, 121760, Note_on_c, 2, 69, 80
1, 121911, Note_on_c, 2, 65, 0
1, 121911, Note_on_c, 2, 69, 0
1, 121920, Note_on_c, 2, 74, 80
1, 122223, Note_on_c, 2, 74, 0
1, 122240, Note_on_c, 2, 71, 80
1, 122240, Note_on_c, 2, 77, 80
1, 122391, Note_on_c, 2, 71, 0
1, 122391, Note_on_c, 2, 77, 0
1, 122720, Note_on_c, 2, 71, 80
1, 122720, Note_on_c, 2, 77, 80
1, 122871, Note_on_c, 2, 71, 0
1, 122871, Note_on_c, 2, 77, 0
1, 124140, Note_on_c, 2, 67, 80
1, 124310, Note_on_c, 2, 67, 0
1, 124320, Note_on_c, 2, 69, 80
1, 124623, Note_on_c, 2, 69, 0
1, 124640, Note_on_c, 2, 72, 80
1, 124791, Note_on_c, 2, 72, 0
1, 124800, Note_on_c, 2, 76, 80
1, 125027, Note_on_c, 2, 76, 0
1, 125040, Note_on_c, 2, 72, 80
1, 125153, Note_on_c, 2, 72, 0
1, 125160, Note_on_c, 2, 67, 80
1, 125273, Note_on_c, 2, 67, 0
1, 125280, Note_on_c, 2, 65, 80
1, 125583, Note_on_c, 2, 65, 0
1, 125600, Note_on_c, 2, 64, 80
1, 125751, Note_on_c, 2, 64, 0
1, 125760, Note_on_c, 2, 65, 80
1, 125911, Note_on_c, 2, 65, 0
1, 125920, Note_on_c, 2, 64, 80
1, 126071, Note_on_c, 2, 64, 0
1, 126080, Note_on_c, 2, 67, 80
1, 126231, Note_on_c, 2, 67, 0
1, 126240, Note_on_c, 2, 62, 80
1, 126330, Note_on_c, 2, 62, 0
1, 126336, Note_on_c, 2, 64, 80
1, 126517, Note_on_c, 2, 64, 0
1, 126528, Note_on_c, 2, 62, 80
1, 127165, Note_on_c, 2, 62, 0
1, 127200, Note_on_c, 2, 71, 80
1, 127290, Note_on_c, 2, 71, 0
1, 127296, Note_on_c, 2, 72, 80
1, 127477, Note_on_c, 2, 72, 0
1, 127488, Note_on_c, 2, 71, 80
1, 128125, Note_on_c, 2, 71, 0
1, 128160, Note_on_c, 2, 67, 80
1, 128279, Note_on_c, 2, 67, 0
1, 128460, Note_on_c, 2, 64, 80
1, 128630, Note_on_c, 2, 64, 0
1, 128640, Note_on_c, 2, 62, 80
1, 128640, Note_on_c, 2, 65, 80
1, 129095, Note_on_c, 2, 62, 0
1, 129095, Note_on_c, 2, 65, 0
1, 129440, Note_on_c, 2, 64, 80
1, 129591, Note_on_c, 2, 64, 0
1, 129840, Note_on_c, 2, 67, 80
1, 130067, Note_on_c, 2, 67, 0
1, 130320, Note_on_c, 2, 69, 80
1, 130547, Note_on_c, 2, 69, 0
1, 131840, Note_on_c, 2, 60, 80
1, 131840, Note_on_c, 2, 64, 80
1, 131840, Note_on_c, 2, 67, 80
1, 131991, Note_on_c, 2, 60, 0
1, 131991, Note_on_c, 2, 64, 0
1, 131991, Note_on_c, 2, 67, 0
1, 132000, Note_on_c, 2, 69, 80
1, 132303, Note_on_c, 2, 69, 0
1, 132320, Note_on_c, 2, 72, 80
1, 133383, Note_on_c, 2, 72, 0
1, 133440, Note_on_c, 2, 76, 80
1, 133743, Note_on_c, 2, 76, 0
1, 133760, Note_on_c, 2, 76, 80
1, 133760, Note_on_c, 2, 79, 80
1, 133911, Note_on_c, 2, 76, 0
1, 133911, Note_on_c, 2, 79, 0
1, 133920, Note_on_c, 2, 81, 80
1, 133920, Note_on_c, 2, 76, 80
1, 134159, Note_on_c, 2, 81, 0
1, 134223, Note_on_c, 2, 76, 0
1, 134240, Note_on_c, 2, 74, 80
1, 134240, Note_on_c, 2, 81, 80
1, 134240, Note_on_c, 2, 84, 80
1, 135303, Note_on_c, 2, 74, 0
1, 135303, Note_on_c, 2, 81, 0
1, 135303, Note_on_c, 2, 84, 0
1, 136320, Note_on_c, 2, 65, 80
1, 136623, Note_on_c, 2, 65, 0
1, 136640, Note_on_c, 2, 64, 80
1, 136791, Note_on_c, 2, 64, 0
1, 136800, Note_on_c, 2, 65, 80
1, 137103, Note_on_c, 2, 65, 0
1, 137120, Note_on_c, 2, 69, 80
1, 137499, Note_on_c, 2, 69, 0
1, 137520, Note_on_c, 2, 72, 80
1, 138203, Note_on_c, 2, 72, 0
1, 138240, Note_on_c, 2, 72, 80
1, 138543, Note_on_c, 2, 72, 0
1, 138560, Note_on_c, 2, 64, 80
1, 139167, Note_on_c, 2, 64, 0
1, 139200, Note_on_c, 2, 65, 80
1, 139655, Note_on_c, 2, 65, 0
1, 139680, Note_on_c, 2, 69, 80
1, 140135, Note_on_c, 2, 69, 0
1, 140160, Note_on_c, 2, 67, 80
1, 140463, Note_on_c, 2, 67, 0
1, 140480, Note_on_c, 2, 69, 80
1, 140631, Note_on_c, 2, 69, 0
1, 140640, Note_on_c, 2, 71, 80
1, 140943, Note_on_c, 2, 71, 0
1, 140960, Note_on_c, 2, 72, 80
1, 141111, Note_on_c, 2, 72, 0
1, 141600, Note_on_c, 2, 62, 80
1, 143879, Note_on_c, 2, 62, 0
1, 143880, End_track
2, 0, Start_track
2, 0, Title_t, "Piano, Piano\000"
2, 0, Key_signature, 0, "major"
2, 0, MIDI_port, 0
2, 38400, Note_on_c, 2, 57, 80
2, 38400, Note_on_c, 2, 59, 80
2, 39311, Note_on_c, 2, 57, 0
2, 39311, Note_on_c, 2, 59, 0
2, 39360, Note_on_c, 2, 52, 80
2, 39360, Note_on_c, 2, 55, 80
2, 39360, Note_on_c, 2, 57, 80
2, 40043, Note_on_c, 2, 52, 0
2, 40043, Note_on_c, 2, 55, 0
2, 40043, Note_on_c, 2, 57, 0
2, 40160, Note_on_c, 2, 50, 80
2, 40160, Note_on_c, 2, 57, 80
2, 40919, Note_on_c, 2, 50, 0
2, 40919, Note_on_c, 2, 57, 0
2, 41120, Note_on_c, 2, 53, 80
2, 41120, Note_on_c, 2, 60, 80
2, 42183, Note_on_c, 2, 53, 0
2, 42183, Note_on_c, 2, 60, 0
2, 42240, Note_on_c, 2, 52, 80
2, 42240, Note_on_c, 2, 55, 80
2, 43151, Note_on_c, 2, 52, 0
2, 43151, Note_on_c, 2, 55, 0
2, 43200, Note_on_c, 2, 57, 80
2, 43200, Note_on_c, 2, 50, 80
2, 43200, Note_on_c, 2, 53, 80
2, 43655, Note_on_c, 2, 57, 0
2, 43883, Note_on_c, 2, 50, 0
2, 43883, Note_on_c, 2, 53, 0
2, 44000, Note_on_c, 2, 50, 80
2, 44000, Note_on_c, 2, 57, 80
2, 44759, Note_on_c, 2, 50, 0
2, 44759, Note_on_c, 2, 57, 0
2, 44960, Note_on_c, 2, 50, 80
2, 44960, Note_on_c, 2, 57, 80
2, 45111, Note_on_c, 2, 50, 0
2, 45111, Note_on_c, 2, 57, 0
2, 46080, Note_on_c, 2, 57, 80
2, 46080, Note_on_c, 2, 59, 80
2, 46991, Note_on_c, 2, 57, 0
2, 46991, Note_on_c, 2, 59, 0
2, 47040, Note_on_c, 2, 52, 80
2, 47040, Note_on_c, 2, 55, 80
2, 47040, Note_on_c, 2, 57, 80
2, 47723, Note_on_c, 2, 52, 0
2, 47723, Note_on_c, 2, 55, 0
2, 47723, Note_on_c, 2, 57, 0
2, 47840, Note_on_c, 2, 50, 80
2, 47840, Note_on_c, 2, 53, 80
2, 47840, Note_on_c, 2, 57, 80
2, 47991, Note_on_c, 2, 50, 0
2, 47991, Note_on_c, 2, 53, 0
2, 47991, Note_on_c, 2, 57, 0
2, 48800, Note_on_c, 2, 53, 80
2, 48800, Note_on_c, 2, 60, 80
2, 49635, Note_on_c, 2, 53, 0
2, 49635, Note_on_c, 2, 60, 0
2, 49680, Note_on_c, 2, 52, 80
2, 49680, Note_on_c, 2, 55, 80
2, 49680, Note_on_c, 2, 59, 80
2, 49907, Note_on_c, 2, 52, 0
2, 49907, Note_on_c, 2, 55, 0
2, 49907, Note_on_c, 2, 59, 0
2, 50720, Note_on_c, 2, 52, 80
2, 50720, Note_on_c, 2, 57, 80
2, 50720, Note_on_c, 2, 60, 80
2, 50871, Note_on_c, 2, 52, 0
2, 50871, Note_on_c, 2, 57, 0
2, 50871, Note_on_c, 2, 60, 0
2, 51680, Note_on_c, 2, 53, 80
2, 51680, Note_on_c, 2, 57, 80
2, 51680, Note_on_c, 2, 60, 80
2, 52439, Note_on_c, 2, 53, 0
2, 52439, Note_on_c, 2, 57, 0
2, 52439, Note_on_c, 2, 60, 0
2, 52640, Note_on_c, 2, 53, 80
2, 52640, Note_on_c, 2, 55, 80
2, 52640, Note_on_c, 2, 59, 80
2, 53703, Note_on_c, 2, 53, 0
2, 53703, Note_on_c, 2, 55, 0
2, 53703, Note_on_c, 2, 59, 0
2, 69120, Note_on_c, 2, 53, 80
2, 69120, Note_on_c, 2, 57, 80
2, 70031, Note_on_c, 2, 53, 0
2, 70031, Note_on_c, 2, 57, 0
2, 70080, Note_on_c, 2, 53, 80
2, 70991, Note_on_c, 2, 53, 0
2, 71040, Note_on_c, 2, 55, 80
2, 71040, Note_on_c, 2, 62, 80
2, 71495, Note_on_c, 2, 55, 0
2, 71495, Note_on_c, 2, 62, 0
2, 71840, Note_on_c, 2, 57, 80
2, 71840, Note_on_c, 2, 62, 80
2, 72903, Note_on_c, 2, 57, 0
2, 72903, Note_on_c, 2, 62, 0
2, 73280, Note_on_c, 2, 52, 80
2, 73280, Note_on_c, 2, 59, 80
2, 73887, Note_on_c, 2, 52, 0
2, 73887, Note_on_c, 2, 59, 0
2, 74240, Note_on_c, 2, 53, 80
2, 74240, Note_on_c, 2, 59, 80
2, 74847, Note_on_c, 2, 53, 0
2, 74847, Note_on_c, 2, 59, 0
2, 75200, Note_on_c, 2, 53, 80
2, 75200, Note_on_c, 2, 57, 80
2, 75351, Note_on_c, 2, 53, 0
2, 75351, Note_on_c, 2, 57, 0
2, 75840, Note_on_c, 2, 59, 80
2, 75840, Note_on_c, 2, 53, 80
2, 76079, Note_on_c, 2, 59, 0
2, 76143, Note_on_c, 2, 53, 0
2, 76160, Note_on_c, 2, 53, 80
2, 76160, Note_on_c, 2, 59, 80
2, 76311, Note_on_c, 2, 53, 0
2, 76311, Note_on_c, 2, 59, 0
2, 76800, Note_on_c, 2, 50, 80
2, 76800, Note_on_c, 2, 55, 80
2, 76800, Note_on_c, 2, 59, 80
2, 77711, Note_on_c, 2, 50, 0
2, 77711, Note_on_c, 2, 55, 0
2, 77711, Note_on_c, 2, 59, 0
2, 77760, Note_on_c, 2, 50, 80
2, 77760, Note_on_c, 2, 55, 80
2, 77760, Note_on_c, 2, 59, 80
2, 78671, Note_on_c, 2, 50, 0
2, 78671, Note_on_c, 2, 55, 0
2, 78671, Note_on_c, 2, 59, 0
2, 78720, Note_on_c, 2, 50, 80
2, 78720, Note_on_c, 2, 53, 80
2, 78720, Note_on_c, 2, 57, 80
2, 79631, Note_on_c, 2, 50, 0
2, 79631, Note_on_c, 2, 53, 0
2, 79631, Note_on_c, 2, 57, 0
2, 79680, Note_on_c, 2, 52, 80
2, 79680, Note_on_c, 2, 55, 80
2, 79680, Note_on_c, 2, 59, 80
2, 80591, Note_on_c, 2, 52, 0
2, 80591, Note_on_c, 2, 55, 0
2, 80591, Note_on_c, 2, 59, 0
2, 80640, Note_on_c, 2, 53, 80
2, 80640, Note_on_c, 2, 57, 80
2, 80640, Note_on_c, 2, 60, 80
2, 81551, Note_on_c, 2, 53, 0
2, 81551, Note_on_c, 2, 57, 0
2, 81551, Note_on_c, 2, 60, 0
2, 81600, Note_on_c, 2, 53, 80
2, 81600, Note_on_c, 2, 59, 80
2, 82055, Note_on_c, 2, 53, 0
2, 82055, Note_on_c, 2, 59, 0
2, 82080, Note_on_c, 2, 59, 80
2, 82383, Note_on_c, 2, 59, 0
2, 82400, Note_on_c, 2, 50, 80
2, 82400, Note_on_c, 2, 52, 80
2, 82400, Note_on_c, 2, 55, 80
2, 83159, Note_on_c, 2, 50, 0
2, 83159, Note_on_c, 2, 52, 0
2, 83159, Note_on_c, 2, 55, 0
2, 83360, Note_on_c, 2, 50, 80
2, 83360, Note_on_c, 2, 52, 80
2, 83360, Note_on_c, 2, 55, 80
2, 83511, Note_on_c, 2, 50, 0
2, 83511, Note_on_c, 2, 52, 0
2, 83511, Note_on_c, 2, 55, 0
2, 83840, Note_on_c, 2, 50, 80
2, 83840, Note_on_c, 2, 52, 80
2, 83840, Note_on_c, 2, 55, 80
2, 83991, Note_on_c, 2, 50, 0
2, 83991, Note_on_c, 2, 52, 0
2, 83991, Note_on_c, 2, 55, 0
2, 84000, Note_on_c, 2, 67, 80
2, 84151, Note_on_c, 2, 67, 0
2, 84160, Note_on_c, 2, 67, 80
2, 84311, Note_on_c, 2, 67, 0
2, 84320, Note_on_c, 2, 67, 80
2, 84471, Note_on_c, 2, 67, 0
2, 84480, Note_on_c, 2, 57, 80
2, 84480, Note_on_c, 2, 60, 80
2, 84480, Note_on_c, 2, 64, 80
2, 84631, Note_on_c, 2, 57, 0
2, 84631, Note_on_c, 2, 60, 0
2, 84631, Note_on_c, 2, 64, 0
2, 84800, Note_on_c, 2, 67, 80
2, 84951, Note_on_c, 2, 67, 0
2, 85200, Note_on_c, 2, 67, 80
2, 85427, Note_on_c, 2, 67, 0
2, 85440, Note_on_c, 2, 53, 80
2, 85440, Note_on_c, 2, 59, 80
2, 85895, Note_on_c, 2, 53, 0
2, 85895, Note_on_c, 2, 59, 0
2, 85920, Note_on_c, 2, 67, 80
2, 86071, Note_on_c, 2, 67, 0
2, 86080, Note_on_c, 2, 67, 80
2, 86231, Note_on_c, 2, 67, 0
2, 86240, Note_on_c, 2, 67, 80
2, 86391, Note_on_c, 2, 67, 0
2, 86400, Note_on_c, 2, 57, 80
2, 86400, Note_on_c, 2, 64, 80
2, 86551, Note_on_c, 2, 57, 0
2, 86551, Note_on_c, 2, 64, 0
2, 86720, Note_on_c, 2, 67, 80
2, 86871, Note_on_c, 2, 67, 0
2, 87120, Note_on_c, 2, 69, 80
2, 87347, Note_on_c, 2, 69, 0
2, 88320, Note_on_c, 2, 50, 80
2, 88320, Note_on_c, 2, 55, 80
2, 88320, Note_on_c, 2, 59, 80
2, 89231, Note_on_c, 2, 50, 0
2, 89231, Note_on_c, 2, 55, 0
2, 89231, Note_on_c, 2, 59, 0
2, 89280, Note_on_c, 2, 50, 80
2, 89280, Note_on_c, 2, 53, 80
2, 89280, Note_on_c, 2, 57, 80
2, 90191, Note_on_c, 2, 50, 0
2, 90191, Note_on_c, 2, 53, 0
2, 90191, Note_on_c, 2, 57, 0
2, 90560, Note_on_c, 2, 53, 80
2, 90560, Note_on_c, 2, 57, 80
2, 90560, Note_on_c, 2, 60, 80
2, 90711, Note_on_c, 2, 53, 0
2, 90711, Note_on_c, 2, 57, 0
2, 90711, Note_on_c, 2, 60, 0
2, 91200, Note_on_c, 2, 64, 80
2, 91200, Note_on_c, 2, 59, 80
2, 91439, Note_on_c, 2, 64, 0
2, 91503, Note_on_c, 2, 59, 0
2, 91520, Note_on_c, 2, 59, 80
2, 91520, Note_on_c, 2, 64, 80
2, 91671, Note_on_c, 2, 59, 0
2, 91671, Note_on_c, 2, 64, 0
2, 92160, Note_on_c, 2, 50, 80
2, 92160, Note_on_c, 2, 55, 80
2, 92160, Note_on_c, 2, 59, 80
2, 93071, Note_on_c, 2, 50, 0
2, 93071, Note_on_c, 2, 55, 0
2, 93071, Note_on_c, 2, 59, 0
2, 93120, Note_on_c, 2, 55, 80
2, 93120, Note_on_c, 2, 60, 80
2, 94031, Note_on_c, 2, 55, 0
2, 94031, Note_on_c, 2, 60, 0
2, 94080, Note_on_c, 2, 50, 80
2, 94080, Note_on_c, 2, 53, 80
2, 94080, Note_on_c, 2, 57, 80
2, 94991, Note_on_c, 2, 50, 0
2, 94991, Note_on_c, 2, 53, 0
2, 94991, Note_on_c, 2, 57, 0
2, 95040, Note_on_c, 2, 55, 80
2, 95040, Note_on_c, 2, 59, 80
2, 95495, Note_on_c, 2, 55, 0
2, 95495, Note_on_c, 2, 59, 0
2, 96000, Note_on_c, 2, 53, 80
2, 96000, Note_on_c, 2, 57, 80
2, 96000, Note_on_c, 2, 60, 80
2, 96911, Note_on_c, 2, 53, 0
2, 96911, Note_on_c, 2, 57, 0
2, 96911, Note_on_c, 2, 60, 0
2, 96960, Note_on_c, 2, 53, 80
2, 96960, Note_on_c, 2, 59, 80
2, 97643, Note_on_c, 2, 53, 0
2, 97643, Note_on_c, 2, 59, 0
2, 97760, Note_on_c, 2, 52, 80
2, 97760, Note_on_c, 2, 55, 80
2, 97760, Note_on_c, 2, 57, 80
2, 99279, Note_on_c, 2, 52, 0
2, 99279, Note_on_c, 2, 55, 0
2, 99279, Note_on_c, 2, 57, 0
2, 99840, Note_on_c, 2, 50, 80
2, 99840, Note_on_c, 2, 57, 80
2, 100751, Note_on_c, 2, 50, 0
2, 100751, Note_on_c, 2, 57, 0
2, 100800, Note_on_c, 2, 52, 80
2, 100800, Note_on_c, 2, 55, 80
2, 100800, Note_on_c, 2, 59, 80
2, 101483, Note_on_c, 2, 52, 0
2, 101483, Note_on_c, 2, 55, 0
2, 101483, Note_on_c, 2, 59, 0
2, 101600, Note_on_c, 2, 50, 80
2, 101600, Note_on_c, 2, 53, 80
2, 101600, Note_on_c, 2, 59, 80
2, 101751, Note_on_c, 2, 50, 0
2, 101751, Note_on_c, 2, 53, 0
2, 101751, Note_on_c, 2, 59, 0
2, 102560, Note_on_c, 2, 60, 80
2, 102560, Note_on_c, 2, 65, 80
2, 103623, Note_on_c, 2, 60, 0
2, 103623, Note_on_c, 2, 65, 0
2, 104000, Note_on_c, 2, 48, 80
2, 104000, Note_on_c, 2, 57, 80
2, 104000, Note_on_c, 2, 60, 80
2, 104151, Note_on_c, 2, 48, 0
2, 104151, Note_on_c, 2, 57, 0
2, 104151, Note_on_c, 2, 60, 0
2, 104960, Note_on_c, 2, 50, 80
2, 104960, Note_on_c, 2, 60, 80
2, 105111, Note_on_c, 2, 50, 0
2, 105111, Note_on_c, 2, 60, 0
2, 105600, Note_on_c, 2, 50, 80
2, 105600, Note_on_c, 2, 55, 80
2, 106283, Note_on_c, 2, 50, 0
2, 106283, Note_on_c, 2, 55, 0
2, 106400, Note_on_c, 2, 50, 80
2, 106400, Note_on_c, 2, 55, 80
2, 106551, Note_on_c, 2, 50, 0
2, 106551, Note_on_c, 2, 55, 0
2, 107520, Note_on_c, 2, 50, 80
2, 107520, Note_on_c, 2, 57, 80
2, 107520, Note_on_c, 2, 59, 80
2, 108431, Note_on_c, 2, 50, 0
2, 108431, Note_on_c, 2, 57, 0
2, 108431, Note_on_c, 2, 59, 0
2, 108480, Note_on_c, 2, 59, 80
2, 108480, Note_on_c, 2, 60, 80
2, 108480, Note_on_c, 2, 64, 80
2, 108480, Note_on_c, 2, 67, 80
2, 109391, Note_on_c, 2, 59, 0
2, 109391, Note_on_c, 2, 60, 0
2, 109391, Note_on_c, 2, 64, 0
2, 109391, Note_on_c, 2, 67, 0
2, 110240, Note_on_c, 2, 50, 80
2, 110240, Note_on_c, 2, 60, 80
2, 110240, Note_on_c, 2, 65, 80
2, 110391, Note_on_c, 2, 50, 0
2, 110391, Note_on_c, 2, 60, 0
2, 110391, Note_on_c, 2, 65, 0
2, 111200, Note_on_c, 2, 57, 80
2, 111200, Note_on_c, 2, 59, 80
2, 111200, Note_on_c, 2, 64, 80
2, 111351, Note_on_c, 2, 57, 0
2, 111351, Note_on_c, 2, 59, 0
2, 111351, Note_on_c, 2, 64, 0
2, 112160, Note_on_c, 2, 57, 80
2, 112160, Note_on_c, 2, 60, 80
2, 112160, Note_on_c, 2, 64, 80
2, 112311, Note_on_c, 2, 60, 0
2, 112311, Note_on_c, 2, 64, 0
2, 113223, Note_on_c, 2, 57, 0
2, 113280, Note_on_c, 2, 55, 80
2, 113280, Note_on_c, 2, 59, 80
2, 113963, Note_on_c, 2, 55, 0
2, 113963, Note_on_c, 2, 59, 0
2, 114080, Note_on_c, 2, 55, 80
2, 114080, Note_on_c, 2, 59, 80
2, 115143, Note_on_c, 2, 55, 0
2, 115143, Note_on_c, 2, 59, 0
2, 115520, Note_on_c, 2, 55, 80
2, 115520, Note_on_c, 2, 60, 80
2, 115671, Note_on_c, 2, 55, 0
2, 115671, Note_on_c, 2, 60, 0
2, 116480, Note_on_c, 2, 55, 80
2, 116480, Note_on_c, 2, 65, 80
2, 116631, Note_on_c, 2, 55, 0
2, 116631, Note_on_c, 2, 65, 0
2, 117920, Note_on_c, 2, 55, 80
2, 117920, Note_on_c, 2, 57, 80
2, 117920, Note_on_c, 2, 62, 80
2, 118071, Note_on_c, 2, 55, 0
2, 118071, Note_on_c, 2, 57, 0
2, 118071, Note_on_c, 2, 62, 0
2, 118400, Note_on_c, 2, 55, 80
2, 118400, Note_on_c, 2, 57, 80
2, 118400, Note_on_c, 2, 62, 80
2, 119007, Note_on_c, 2, 55, 0
2, 119007, Note_on_c, 2, 57, 0
2, 119007, Note_on_c, 2, 62, 0
2, 119360, Note_on_c, 2, 50, 80
2, 119360, Note_on_c, 2, 55, 80
2, 119360, Note_on_c, 2, 59, 80
2, 119360, Note_on_c, 2, 64, 80
2, 119511, Note_on_c, 2, 59, 0
2, 119511, Note_on_c, 2, 64, 0
2, 119967, Note_on_c, 2, 50, 0
2, 119967, Note_on_c, 2, 55, 0
2, 120000, Note_on_c, 2, 48, 80
2, 120000, Note_on_c, 2, 53, 80
2, 120000, Note_on_c, 2, 57, 80
2, 120000, Note_on_c, 2, 60, 80
2, 120911, Note_on_c, 2, 48, 0
2, 120911, Note_on_c, 2, 53, 0
2, 120911, Note_on_c, 2, 57, 0
2, 120911, Note_on_c, 2, 60, 0
2, 121760, Note_on_c, 2, 50, 80
2, 121760, Note_on_c, 2, 53, 80
2, 121911, Note_on_c, 2, 50, 0
2, 121911, Note_on_c, 2, 53, 0
2, 122240, Note_on_c, 2, 50, 80
2, 122240, Note_on_c, 2, 53, 80
2, 122847, Note_on_c, 2, 50, 0
2, 122847, Note_on_c, 2, 53, 0
2, 122880, Note_on_c, 2, 50, 80
2, 122880, Note_on_c, 2, 55, 80
2, 123791, Note_on_c, 2, 50, 0
2, 123791, Note_on_c, 2, 55, 0
2, 124800, Note_on_c, 2, 50, 80
2, 124800, Note_on_c, 2, 53, 80
2, 124800, Note_on_c, 2, 57, 80
2, 125483, Note_on_c, 2, 50, 0
2, 125483, Note_on_c, 2, 53, 0
2, 125483, Note_on_c, 2, 57, 0
2, 125600, Note_on_c, 2, 50, 80
2, 125600, Note_on_c, 2, 53, 80
2, 125600, Note_on_c, 2, 57, 80
2, 125751, Note_on_c, 2, 50, 0
2, 125751, Note_on_c, 2, 53, 0
2, 125751, Note_on_c, 2, 57, 0
2, 126080, Note_on_c, 2, 50, 80
2, 126080, Note_on_c, 2, 53, 80
2, 126080, Note_on_c, 2, 57, 80
2, 126231, Note_on_c, 2, 50, 0
2, 126231, Note_on_c, 2, 53, 0
2, 126231, Note_on_c, 2, 57, 0
2, 127040, Note_on_c, 2, 53, 80
2, 127040, Note_on_c, 2, 57, 80
2, 127040, Note_on_c, 2, 60, 80
2, 127040, Note_on_c, 2, 65, 80
2, 127191, Note_on_c, 2, 53, 0
2, 127191, Note_on_c, 2, 57, 0
2, 127191, Note_on_c, 2, 60, 0
2, 127191, Note_on_c, 2, 65, 0
2, 127680, Note_on_c, 2, 53, 80
2, 127680, Note_on_c, 2, 57, 80
2, 128591, Note_on_c, 2, 53, 0
2, 128591, Note_on_c, 2, 57, 0
2, 128640, Note_on_c, 2, 50, 80
2, 128640, Note_on_c, 2, 53, 80
2, 128640, Note_on_c, 2, 57, 80
2, 129551, Note_on_c, 2, 50, 0
2, 129551, Note_on_c, 2, 53, 0
2, 129551, Note_on_c, 2, 57, 0
2, 129600, Note_on_c, 2, 48, 80
2, 129600, Note_on_c, 2, 53, 80
2, 130511, Note_on_c, 2, 48, 0
2, 130511, Note_on_c, 2, 53, 0
2, 130880, Note_on_c, 2, 53, 80
2, 130880, Note_on_c, 2, 57, 80
2, 130880, Note_on_c, 2, 60, 80
2, 130880, Note_on_c, 2, 64, 80
2, 131487, Note_on_c, 2, 53, 0
2, 131487, Note_on_c, 2, 57, 0
2, 131487, Note_on_c, 2, 60, 0
2, 131487, Note_on_c, 2, 64, 0
2, 131520, Note_on_c, 2, 60, 80
2, 131520, Note_on_c, 2, 64, 80
2, 131520, Note_on_c, 2, 57, 80
2, 131759, Note_on_c, 2, 60, 0
2, 131759, Note_on_c, 2, 64, 0
2, 131823, Note_on_c, 2, 57, 0
2, 131840, Note_on_c, 2, 57, 80
2, 131991, Note_on_c, 2, 57, 0
2, 132800, Note_on_c, 2, 53, 80
2, 132800, Note_on_c, 2, 57, 80
2, 132800, Note_on_c, 2, 62, 80
2, 133407, Note_on_c, 2, 53, 0
2, 133407, Note_on_c, 2, 57, 0
2, 133407, Note_on_c, 2, 62, 0
2, 133440, Note_on_c, 2, 57, 80
2, 133440, Note_on_c, 2, 62, 80
2, 133440, Note_on_c, 2, 53, 80
2, 133679, Note_on_c, 2, 57, 0
2, 133679, Note_on_c, 2, 62, 0
2, 133743, Note_on_c, 2, 53, 0
2, 133760, Note_on_c, 2, 53, 80
2, 133760, Note_on_c, 2, 57, 80
2, 133760, Note_on_c, 2, 62, 80
2, 133911, Note_on_c, 2, 53, 0
2, 133911, Note_on_c, 2, 57, 0
2, 133911, Note_on_c, 2, 62, 0
2, 134880, Note_on_c, 2, 52, 80
2, 134880, Note_on_c, 2, 55, 80
2, 134880, Note_on_c, 2, 60, 80
2, 135335, Note_on_c, 2, 52, 0
2, 135335, Note_on_c, 2, 55, 0
2, 135335, Note_on_c, 2, 60, 0
2, 135360, Note_on_c, 2, 55, 80
2, 135360, Note_on_c, 2, 60, 80
2, 135360, Note_on_c, 2, 52, 80
2, 135599, Note_on_c, 2, 55, 0
2, 135599, Note_on_c, 2, 60, 0
2, 135663, Note_on_c, 2, 52, 0
2, 135680, Note_on_c, 2, 52, 80
2, 135680, Note_on_c, 2, 55, 80
2, 135680, Note_on_c, 2, 60, 80
2, 135831, Note_on_c, 2, 52, 0
2, 135831, Note_on_c, 2, 55, 0
2, 135831, Note_on_c, 2, 60, 0
2, 136320, Note_on_c, 2, 53, 80
2, 136320, Note_on_c, 2, 57, 80
2, 136320, Note_on_c, 2, 60, 80
2, 136775, Note_on_c, 2, 53, 0
2, 136775, Note_on_c, 2, 57, 0
2, 136775, Note_on_c, 2, 60, 0
2, 137600, Note_on_c, 2, 52, 80
2, 137600, Note_on_c, 2, 55, 80
2, 137600, Note_on_c, 2, 60, 80
2, 138207, Note_on_c, 2, 52, 0
2, 138207, Note_on_c, 2, 55, 0
2, 138207, Note_on_c, 2, 60, 0
2, 138240, Note_on_c, 2, 52, 80
2, 138240, Note_on_c, 2, 55, 80
2, 138240, Note_on_c, 2, 60, 80
2, 138695, Note_on_c, 2, 52, 0
2, 138695, Note_on_c, 2, 55, 0
2, 138695, Note_on_c, 2, 60, 0
2, 141600, Note_on_c, 2, 57, 80
2, 141600, Note_on_c, 2, 52, 80
2, 141600, Note_on_c, 2, 55, 80
2, 142055, Note_on_c, 2, 57, 0
2, 143879, Note_on_c, 2, 52, 0
2, 143879, Note_on_c, 2, 55, 0
2, 143880, End_track
3, 0, Start_track
3, 0, Title_t, "Electric Bass, Bass\000"
3, 0, Key_signature, 0, "major"
3, 0, Control_c, 3, 121, 0
3, 0, Program_c, 3, 33
3, 0, Control_c, 3, 7, 100
3, 0, Control_c, 3, 10, 64
3, 0, Control_c, 3, 91, 0
3, 0, Control_c, 3, 93, 0
3, 0, MIDI_port, 0
3, 0, Note_on_c, 3, 60, 80
3, 0, Control_c, 0, 121, 0
3, 0, Program_c, 0, 36
3, 0, Control_c, 0, 7, 100
3, 0, Control_c, 0, 10, 64
3, 0, Control_c, 0, 91, 0
3, 0, Control_c, 0, 93, 0
3, 0, MIDI_port, 0
3, 0, Control_c, 4, 121, 0
3, 0, Program_c, 4, 37
3, 0, Control_c, 4, 7, 100
3, 0, Control_c, 4, 10, 64
3, 0, Control_c, 4, 91, 0
3, 0, Control_c, 4, 93, 0
3, 0, MIDI_port, 0
3, 479, Note_on_c, 3, 60, 0
3, 480, Note_on_c, 3, 59, 80
3, 959, Note_on_c, 3, 59, 0
3, 960, Note_on_c, 3, 57, 80
3, 1439, Note_on_c, 3, 57, 0
3, 1440, Note_on_c, 3, 59, 80
3, 1919, Note_on_c, 3, 59, 0
3, 1920, Note_on_c, 3, 62, 80
3, 2399, Note_on_c, 3, 62, 0
3, 2400, Note_on_c, 3, 64, 80
3, 2879, Note_on_c, 3, 64, 0
3, 2880, Note_on_c, 3, 67, 80
3, 3199, Note_on_c, 3, 67, 0
3, 3200, Note_on_c, 3, 62, 80
3, 3359, Note_on_c, 3, 62, 0
3, 3360, Note_on_c, 3, 55, 80
3, 3839, Note_on_c, 3, 55, 0
3, 3840, Note_on_c, 3, 60, 80
3, 4319, Note_on_c, 3, 60, 0
3, 4320, Note_on_c, 3, 55, 80
3, 4799, Note_on_c, 3, 55, 0
3, 4800, Note_on_c, 3, 57, 80
3, 5279, Note_on_c, 3, 57, 0
3, 5280, Note_on_c, 3, 60, 80
3, 5759, Note_on_c, 3, 60, 0
3, 5760, Note_on_c, 3, 62, 80
3, 6239, Note_on_c, 3, 62, 0
3, 6240, Note_on_c, 3, 65, 80
3, 6719, Note_on_c, 3, 65, 0
3, 6720, Note_on_c, 3, 67, 80
3, 7199, Note_on_c, 3, 67, 0
3, 7200, Note_on_c, 3, 55, 80
3, 7679, Note_on_c, 3, 55, 0
3, 7680, Note_on_c, 3, 62, 80
3, 8159, Note_on_c, 3, 62, 0
3, 8160, Note_on_c, 3, 65, 80
3, 8639, Note_on_c, 3, 65, 0
3, 8640, Note_on_c, 3, 67, 80
3, 9119, Note_on_c, 3, 67, 0
3, 9120, Note_on_c, 3, 55, 80
3, 9599, Note_on_c, 3, 55, 0
3, 9600, Note_on_c, 3, 60, 80
3, 10079, Note_on_c, 3, 60, 0
3, 10080, Note_on_c, 3, 67, 80
3, 10559, Note_on_c, 3, 67, 0
3, 10560, Note_on_c, 3, 64, 80
3, 11039, Note_on_c, 3, 64, 0
3, 11040, Note_on_c, 3, 60, 80
3, 11519, Note_on_c, 3, 60, 0
3, 11520, Note_on_c, 3, 64, 80
3, 11999, Note_on_c, 3, 64, 0
3, 12000, Note_on_c, 3, 64, 80
3, 12479, Note_on_c, 3, 64, 0
3, 12480, Note_on_c, 3, 62, 80
3, 12959, Note_on_c, 3, 62, 0
3, 12960, Note_on_c, 3, 62, 80
3, 13439, Note_on_c, 3, 62, 0
3, 13440, Note_on_c, 3, 62, 80
3, 13919, Note_on_c, 3, 62, 0
3, 13920, Note_on_c, 3, 57, 80
3, 14399, Note_on_c, 3, 57, 0
3, 14400, Note_on_c, 3, 55, 80
3, 14879, Note_on_c, 3, 55, 0
3, 14880, Note_on_c, 3, 62, 80
3, 15359, Note_on_c, 3, 62, 0
3, 15360, Note_on_c, 3, 64, 80
3, 15839, Note_on_c, 3, 64, 0
3, 15840, Note_on_c, 3, 52, 80
3, 16319, Note_on_c, 3, 52, 0
3, 16320, Note_on_c, 3, 57, 80
3, 16799, Note_on_c, 3, 57, 0
3, 16800, Note_on_c, 3, 59, 80
3, 17279, Note_on_c, 3, 59, 0
3, 17280, Note_on_c, 3, 62, 64
3, 17759, Note_on_c, 3, 62, 0
3, 17760, Note_on_c, 3, 62, 80
3, 18239, Note_on_c, 3, 62, 0
3, 18240, Note_on_c, 3, 57, 80
3, 18719, Note_on_c, 3, 57, 0
3, 18720, Note_on_c, 3, 57, 80
3, 19199, Note_on_c, 3, 57, 0
3, 19200, Note_on_c, 3, 62, 80
3, 19679, Note_on_c, 3, 62, 0
3, 19680, Note_on_c, 3, 53, 80
3, 20159, Note_on_c, 3, 53, 0
3, 20160, Note_on_c, 3, 55, 80
3, 20639, Note_on_c, 3, 55, 0
3, 20640, Note_on_c, 3, 59, 80
3, 21119, Note_on_c, 3, 59, 0
3, 21120, Note_on_c, 3, 60, 80
3, 21599, Note_on_c, 3, 60, 0
3, 21600, Note_on_c, 3, 55, 80
3, 22079, Note_on_c, 3, 55, 0
3, 22080, Note_on_c, 3, 57, 80
3, 22559, Note_on_c, 3, 57, 0
3, 22560, Note_on_c, 3, 64, 80
3, 23039, Note_on_c, 3, 64, 0
3, 23040, Note_on_c, 3, 62, 80
3, 23519, Note_on_c, 3, 62, 0
3, 23520, Note_on_c, 3, 65, 80
3, 23999, Note_on_c, 3, 65, 0
3, 24000, Note_on_c, 3, 67, 80
3, 24319, Note_on_c, 3, 67, 0
3, 24320, Note_on_c, 3, 62, 80
3, 24479, Note_on_c, 3, 62, 0
3, 24480, Note_on_c, 3, 55, 80
3, 24959, Note_on_c, 3, 55, 0
3, 24960, Note_on_c, 3, 60, 80
3, 25439, Note_on_c, 3, 60, 0
3, 25440, Note_on_c, 3, 59, 80
3, 25919, Note_on_c, 3, 59, 0
3, 25920, Note_on_c, 3, 57, 80
3, 26399, Note_on_c, 3, 57, 0
3, 26400, Note_on_c, 3, 52, 80
3, 26719, Note_on_c, 3, 52, 0
3, 26720, Note_on_c, 3, 50, 80
3, 26879, Note_on_c, 3, 50, 0
3, 26880, Note_on_c, 3, 52, 80
3, 27359, Note_on_c, 3, 52, 0
3, 27360, Note_on_c, 3, 64, 80
3, 27839, Note_on_c, 3, 64, 0
3, 27840, Note_on_c, 3, 60, 80
3, 28159, Note_on_c, 3, 60, 0
3, 28160, Note_on_c, 3, 57, 80
3, 28319, Note_on_c, 3, 57, 0
3, 28320, Note_on_c, 3, 52, 80
3, 28799, Note_on_c, 3, 52, 0
3, 28800, Note_on_c, 3, 50, 80
3, 29279, Note_on_c, 3, 50, 0
3, 29280, Note_on_c, 3, 57, 80
3, 29759, Note_on_c, 3, 57, 0
3, 29760, Note_on_c, 3, 55, 80
3, 30239, Note_on_c, 3, 55, 0
3, 30240, Note_on_c, 3, 62, 80
3, 30719, Note_on_c, 3, 62, 0
3, 30720, Note_on_c, 3, 64, 80
3, 31199, Note_on_c, 3, 64, 0
3, 31200, Note_on_c, 3, 52, 80
3, 31679, Note_on_c, 3, 52, 0
3, 31680, Note_on_c, 3, 57, 80
3, 32159, Note_on_c, 3, 57, 0
3, 32160, Note_on_c, 3, 59, 80
3, 32639, Note_on_c, 3, 59, 0
3, 32640, Note_on_c, 3, 62, 64
3, 33119, Note_on_c, 3, 62, 0
3, 33120, Note_on_c, 3, 62, 80
3, 33599, Note_on_c, 3, 62, 0
3, 33600, Note_on_c, 3, 57, 80
3, 34079, Note_on_c, 3, 57, 0
3, 34080, Note_on_c, 3, 57, 80
3, 34559, Note_on_c, 3, 57, 0
3, 34560, Note_on_c, 3, 62, 80
3, 35039, Note_on_c, 3, 62, 0
3, 35040, Note_on_c, 3, 53, 80
3, 35519, Note_on_c, 3, 53, 0
3, 35520, Note_on_c, 3, 55, 80
3, 35999, Note_on_c, 3, 55, 0
3, 36000, Note_on_c, 3, 59, 80
3, 36479, Note_on_c, 3, 59, 0
3, 36480, Note_on_c, 3, 60, 80
3, 36959, Note_on_c, 3, 60, 0
3, 36960, Note_on_c, 3, 59, 80
3, 37439, Note_on_c, 3, 59, 0
3, 37440, Note_on_c, 3, 57, 80
3, 37919, Note_on_c, 3, 57, 0
3, 37920, Note_on_c, 3, 55, 80
3, 38399, Note_on_c, 3, 55, 0
3, 38400, Note_on_c, 3, 55, 80
3, 38879, Note_on_c, 3, 55, 0
3, 38880, Note_on_c, 3, 55, 80
3, 39359, Note_on_c, 3, 55, 0
3, 39360, Note_on_c, 3, 57, 80
3, 39839, Note_on_c, 3, 57, 0
3, 39840, Note_on_c, 3, 55, 80
3, 40159, Note_on_c, 3, 55, 0
3, 40160, Note_on_c, 3, 52, 80
3, 40319, Note_on_c, 3, 52, 0
3, 40320, Note_on_c, 3, 59, 80
3, 40799, Note_on_c, 3, 59, 0
3, 40800, Note_on_c, 3, 65, 80
3, 41279, Note_on_c, 3, 65, 0
3, 41280, Note_on_c, 3, 64, 80
3, 41759, Note_on_c, 3, 64, 0
3, 41760, Note_on_c, 3, 60, 80
3, 42239, Note_on_c, 3, 60, 0
3, 42240, Note_on_c, 3, 57, 80
3, 42719, Note_on_c, 3, 57, 0
3, 42720, Note_on_c, 3, 64, 80
3, 43039, Note_on_c, 3, 64, 0
3, 43040, Note_on_c, 3, 57, 80
3, 43199, Note_on_c, 3, 57, 0
3, 43200, Note_on_c, 3, 62, 80
3, 43679, Note_on_c, 3, 62, 0
3, 43680, Note_on_c, 3, 60, 80
3, 44159, Note_on_c, 3, 60, 0
3, 44160, Note_on_c, 3, 67, 80
3, 44639, Note_on_c, 3, 67, 0
3, 44640, Note_on_c, 3, 62, 80
3, 45119, Note_on_c, 3, 62, 0
3, 45120, Note_on_c, 3, 64, 80
3, 45599, Note_on_c, 3, 64, 0
3, 45600, Note_on_c, 3, 64, 80
3, 46079, Note_on_c, 3, 64, 0
3, 46080, Note_on_c, 3, 67, 80
3, 46559, Note_on_c, 3, 67, 0
3, 46560, Note_on_c, 3, 55, 80
3, 47039, Note_on_c, 3, 55, 0
3, 47040, Note_on_c, 3, 57, 80
3, 47519, Note_on_c, 3, 57, 0
3, 47520, Note_on_c, 3, 55, 80
3, 47999, Note_on_c, 3, 55, 0
3, 48000, Note_on_c, 3, 59, 80
3, 48479, Note_on_c, 3, 59, 0
3, 48480, Note_on_c, 3, 65, 80
3, 48959, Note_on_c, 3, 65, 0
3, 48960, Note_on_c, 3, 64, 80
3, 49439, Note_on_c, 3, 64, 0
3, 49440, Note_on_c, 3, 55, 80
3, 49919, Note_on_c, 3, 55, 0
3, 49920, Note_on_c, 3, 57, 80
3, 50399, Note_on_c, 3, 57, 0
3, 50400, Note_on_c, 3, 64, 80
3, 50879, Note_on_c, 3, 64, 0
3, 50880, Note_on_c, 3, 62, 80
3, 51359, Note_on_c, 3, 62, 0
3, 51360, Note_on_c, 3, 64, 80
3, 51839, Note_on_c, 3, 64, 0
3, 51840, Note_on_c, 3, 67, 80
3, 52319, Note_on_c, 3, 67, 0
3, 52320, Note_on_c, 3, 65, 80
3, 52799, Note_on_c, 3, 65, 0
3, 52800, Note_on_c, 3, 64, 80
3, 53279, Note_on_c, 3, 64, 0
3, 53280, Note_on_c, 3, 64, 80
3, 53759, Note_on_c, 3, 64, 0
3, 53760, Note_on_c, 3, 62, 80
3, 54239, Note_on_c, 3, 62, 0
3, 54240, Note_on_c, 3, 65, 80
3, 54719, Note_on_c, 3, 65, 0
3, 54720, Note_on_c, 3, 67, 80
3, 55199, Note_on_c, 3, 67, 0
3, 55200, Note_on_c, 3, 55, 80
3, 55679, Note_on_c, 3, 55, 0
3, 55680, Note_on_c, 3, 60, 80
3, 56159, Note_on_c, 3, 60, 0
3, 56160, Note_on_c, 3, 55, 80
3, 56639, Note_on_c, 3, 55, 0
3, 56640, Note_on_c, 3, 48, 80
3, 57119, Note_on_c, 3, 48, 0
3, 57120, Note_on_c, 3, 62, 80
3, 57599, Note_on_c, 3, 62, 0
3, 57600, Note_on_c, 3, 64, 80
3, 58079, Note_on_c, 3, 64, 0
3, 58080, Note_on_c, 3, 64, 80
3, 58559, Note_on_c, 3, 64, 0
3, 58560, Note_on_c, 3, 62, 80
3, 59039, Note_on_c, 3, 62, 0
3, 59040, Note_on_c, 3, 62, 80
3, 59519, Note_on_c, 3, 62, 0
3, 59520, Note_on_c, 3, 62, 80
3, 59999, Note_on_c, 3, 62, 0
3, 60000, Note_on_c, 3, 57, 80
3, 60479, Note_on_c, 3, 57, 0
3, 60480, Note_on_c, 3, 55, 80
3, 60959, Note_on_c, 3, 55, 0
3, 60960, Note_on_c, 3, 62, 80
3, 61439, Note_on_c, 3, 62, 0
3, 61440, Note_on_c, 3, 64, 80
3, 61919, Note_on_c, 3, 64, 0
3, 61920, Note_on_c, 3, 52, 80
3, 62399, Note_on_c, 3, 52, 0
3, 62400, Note_on_c, 3, 57, 80
3, 62879, Note_on_c, 3, 57, 0
3, 62880, Note_on_c, 3, 59, 80
3, 63359, Note_on_c, 3, 59, 0
3, 63360, Note_on_c, 3, 62, 64
3, 63839, Note_on_c, 3, 62, 0
3, 63840, Note_on_c, 3, 62, 80
3, 64319, Note_on_c, 3, 62, 0
3, 64320, Note_on_c, 3, 57, 80
3, 64799, Note_on_c, 3, 57, 0
3, 64800, Note_on_c, 3, 57, 80
3, 65279, Note_on_c, 3, 57, 0
3, 65280, Note_on_c, 3, 62, 80
3, 65759, Note_on_c, 3, 62, 0
3, 65760, Note_on_c, 3, 53, 80
3, 66239, Note_on_c, 3, 53, 0
3, 66240, Note_on_c, 3, 55, 80
3, 66719, Note_on_c, 3, 55, 0
3, 66720, Note_on_c, 3, 59, 80
3, 67199, Note_on_c, 3, 59, 0
3, 67200, Note_on_c, 3, 60, 80
3, 67679, Note_on_c, 3, 60, 0
3, 67680, Note_on_c, 3, 55, 80
3, 68159, Note_on_c, 3, 55, 0
3, 68160, Note_on_c, 3, 57, 80
3, 68639, Note_on_c, 3, 57, 0
3, 68640, Note_on_c, 3, 59, 80
3, 69119, Note_on_c, 3, 59, 0
3, 69120, Note_on_c, 3, 62, 80
3, 69599, Note_on_c, 3, 62, 0
3, 69600, Note_on_c, 3, 65, 80
3, 70079, Note_on_c, 3, 65, 0
3, 70080, Note_on_c, 3, 67, 80
3, 70399, Note_on_c, 3, 67, 0
3, 70400, Note_on_c, 3, 62, 80
3, 70559, Note_on_c, 3, 62, 0
3, 70560, Note_on_c, 3, 55, 80
3, 71039, Note_on_c, 3, 55, 0
3, 71040, Note_on_c, 3, 48, 80
3, 71519, Note_on_c, 3, 48, 0
3, 71520, Note_on_c, 3, 55, 80
3, 71999, Note_on_c, 3, 55, 0
3, 72000, Note_on_c, 3, 60, 80
3, 72319, Note_on_c, 3, 60, 0
3, 72320, Note_on_c, 3, 55, 80
3, 72479, Note_on_c, 3, 55, 0
3, 72480, Note_on_c, 3, 62, 80
3, 72799, Note_on_c, 3, 62, 0
3, 72800, Note_on_c, 3, 62, 80
3, 72959, Note_on_c, 3, 62, 0
3, 72960, Note_on_c, 3, 64, 80
3, 73439, Note_on_c, 3, 64, 0
3, 73440, Note_on_c, 3, 64, 80
3, 73919, Note_on_c, 3, 64, 0
3, 73920, Note_on_c, 3, 62, 80
3, 74399, Note_on_c, 3, 62, 0
3, 74400, Note_on_c, 3, 62, 80
3, 74879, Note_on_c, 3, 62, 0
3, 74880, Note_on_c, 3, 62, 80
3, 75359, Note_on_c, 3, 62, 0
3, 75360, Note_on_c, 3, 50, 80
3, 75839, Note_on_c, 3, 50, 0
3, 75840, Note_on_c, 3, 55, 80
3, 76319, Note_on_c, 3, 55, 0
3, 76320, Note_on_c, 3, 62, 80
3, 76799, Note_on_c, 3, 62, 0
3, 76800, Note_on_c, 3, 64, 80
3, 77279, Note_on_c, 3, 64, 0
3, 77280, Note_on_c, 3, 52, 80
3, 77759, Note_on_c, 3, 52, 0
3, 77760, Note_on_c, 3, 57, 80
3, 78239, Note_on_c, 3, 57, 0
3, 78240, Note_on_c, 3, 59, 80
3, 78719, Note_on_c, 3, 59, 0
3, 78720, Note_on_c, 3, 62, 80
3, 79199, Note_on_c, 3, 62, 0
3, 79200, Note_on_c, 3, 62, 80
3, 79679, Note_on_c, 3, 62, 0
3, 79680, Note_on_c, 3, 64, 80
3, 80159, Note_on_c, 3, 64, 0
3, 80160, Note_on_c, 3, 64, 80
3, 80639, Note_on_c, 3, 64, 0
3, 80640, Note_on_c, 3, 62, 80
3, 81119, Note_on_c, 3, 62, 0
3, 81120, Note_on_c, 3, 53, 80
3, 81439, Note_on_c, 3, 53, 0
3, 81440, Note_on_c, 3, 50, 80
3, 81599, Note_on_c, 3, 50, 0
3, 81600, Note_on_c, 3, 55, 80
3, 82079, Note_on_c, 3, 55, 0
3, 82080, Note_on_c, 3, 59, 80
3, 82559, Note_on_c, 3, 59, 0
3, 82560, Note_on_c, 3, 60, 80
3, 83039, Note_on_c, 3, 60, 0
3, 83040, Note_on_c, 3, 65, 80
3, 83519, Note_on_c, 3, 65, 0
3, 83520, Note_on_c, 3, 64, 80
3, 83999, Note_on_c, 3, 64, 0
3, 84000, Note_on_c, 3, 62, 80
3, 84479, Note_on_c, 3, 62, 0
3, 84480, Note_on_c, 3, 62, 80
3, 84959, Note_on_c, 3, 62, 0
3, 84960, Note_on_c, 3, 65, 80
3, 85439, Note_on_c, 3, 65, 0
3, 85440, Note_on_c, 3, 67, 80
3, 85919, Note_on_c, 3, 67, 0
3, 85920, Note_on_c, 3, 59, 80
3, 86399, Note_on_c, 3, 59, 0
3, 86400, Note_on_c, 3, 60, 80
3, 86879, Note_on_c, 3, 60, 0
3, 86880, Note_on_c, 3, 55, 80
3, 87359, Note_on_c, 3, 55, 0
3, 87360, Note_on_c, 3, 52, 80
3, 87839, Note_on_c, 3, 52, 0
3, 87840, Note_on_c, 3, 48, 80
3, 88319, Note_on_c, 3, 48, 0
3, 88320, Note_on_c, 3, 52, 80
3, 88799, Note_on_c, 3, 52, 0
3, 88800, Note_on_c, 3, 52, 80
3, 89279, Note_on_c, 3, 52, 0
3, 89280, Note_on_c, 3, 50, 80
3, 89759, Note_on_c, 3, 50, 0
3, 89760, Note_on_c, 3, 50, 80
3, 90239, Note_on_c, 3, 50, 0
3, 90240, Note_on_c, 3, 50, 80
3, 90719, Note_on_c, 3, 50, 0
3, 90720, Note_on_c, 3, 62, 80
3, 91199, Note_on_c, 3, 62, 0
3, 91200, Note_on_c, 3, 67, 80
3, 91679, Note_on_c, 3, 67, 0
3, 91680, Note_on_c, 3, 62, 80
3, 92159, Note_on_c, 3, 62, 0
3, 92160, Note_on_c, 3, 64, 80
3, 92639, Note_on_c, 3, 64, 0
3, 92640, Note_on_c, 3, 52, 80
3, 93119, Note_on_c, 3, 52, 0
3, 93120, Note_on_c, 3, 57, 80
3, 93599, Note_on_c, 3, 57, 0
3, 93600, Note_on_c, 3, 59, 80
3, 93919, Note_on_c, 3, 59, 0
3, 93920, Note_on_c, 3, 57, 80
3, 94079, Note_on_c, 3, 57, 0
3, 94080, Note_on_c, 3, 62, 80
3, 94559, Note_on_c, 3, 62, 0
3, 94560, Note_on_c, 3, 62, 80
3, 95039, Note_on_c, 3, 62, 0
3, 95040, Note_on_c, 3, 59, 80
3, 95519, Note_on_c, 3, 59, 0
3, 95520, Note_on_c, 3, 57, 80
3, 95999, Note_on_c, 3, 57, 0
3, 96000, Note_on_c, 3, 50, 80
3, 96479, Note_on_c, 3, 50, 0
3, 96480, Note_on_c, 3, 53, 80
3, 96959, Note_on_c, 3, 53, 0
3, 96960, Note_on_c, 3, 55, 80
3, 97439, Note_on_c, 3, 55, 0
3, 97440, Note_on_c, 3, 59, 80
3, 97919, Note_on_c, 3, 59, 0
3, 97920, Note_on_c, 3, 60, 80
3, 98399, Note_on_c, 3, 60, 0
3, 98400, Note_on_c, 3, 64, 80
3, 98879, Note_on_c, 3, 64, 0
3, 98880, Note_on_c, 3, 65, 80
3, 99359, Note_on_c, 3, 65, 0
3, 99360, Note_on_c, 3, 64, 80
3, 99839, Note_on_c, 3, 64, 0
3, 99840, Note_on_c, 3, 67, 80
3, 100319, Note_on_c, 3, 67, 0
3, 100320, Note_on_c, 3, 55, 80
3, 100799, Note_on_c, 3, 55, 0
3, 100800, Note_on_c, 3, 57, 80
3, 101279, Note_on_c, 3, 57, 0
3, 101280, Note_on_c, 3, 59, 80
3, 101759, Note_on_c, 3, 59, 0
3, 101760, Note_on_c, 3, 59, 80
3, 102239, Note_on_c, 3, 59, 0
3, 102240, Note_on_c, 3, 65, 80
3, 102719, Note_on_c, 3, 65, 0
3, 102720, Note_on_c, 3, 64, 80
3, 103199, Note_on_c, 3, 64, 0
3, 103200, Note_on_c, 3, 60, 80
3, 103679, Note_on_c, 3, 60, 0
3, 103680, Note_on_c, 3, 57, 80
3, 104159, Note_on_c, 3, 57, 0
3, 104160, Note_on_c, 3, 64, 80
3, 104639, Note_on_c, 3, 64, 0
3, 104640, Note_on_c, 3, 62, 80
3, 105119, Note_on_c, 3, 62, 0
3, 105120, Note_on_c, 3, 65, 80
3, 105599, Note_on_c, 3, 65, 0
3, 105600, Note_on_c, 3, 67, 80
3, 106079, Note_on_c, 3, 67, 0
3, 106080, Note_on_c, 3, 62, 80
3, 106559, Note_on_c, 3, 62, 0
3, 106560, Note_on_c, 3, 64, 80
3, 107039, Note_on_c, 3, 64, 0
3, 107040, Note_on_c, 3, 65, 80
3, 107519, Note_on_c, 3, 65, 0
3, 107520, Note_on_c, 3, 67, 80
3, 107999, Note_on_c, 3, 67, 0
3, 108000, Note_on_c, 3, 55, 80
3, 108479, Note_on_c, 3, 55, 0
3, 108480, Note_on_c, 3, 57, 80
3, 108959, Note_on_c, 3, 57, 0
3, 108960, Note_on_c, 3, 59, 80
3, 109439, Note_on_c, 3, 59, 0
3, 109440, Note_on_c, 3, 59, 80
3, 109919, Note_on_c, 3, 59, 0
3, 109920, Note_on_c, 3, 65, 80
3, 110399, Note_on_c, 3, 65, 0
3, 110400, Note_on_c, 3, 64, 80
3, 110879, Note_on_c, 3, 64, 0
3, 110880, Note_on_c, 3, 52, 80
3, 111359, Note_on_c, 3, 52, 0
3, 111360, Note_on_c, 3, 57, 80
3, 111839, Note_on_c, 3, 57, 0
3, 111840, Note_on_c, 3, 64, 80
3, 112319, Note_on_c, 3, 64, 0
3, 112320, Note_on_c, 3, 62, 80
3, 112799, Note_on_c, 3, 62, 0
3, 112800, Note_on_c, 3, 67, 80
3, 113279, Note_on_c, 3, 67, 0
3, 113280, Note_on_c, 3, 67, 80
3, 113759, Note_on_c, 3, 67, 0
3, 113760, Note_on_c, 3, 65, 80
3, 114239, Note_on_c, 3, 65, 0
3, 114240, Note_on_c, 3, 64, 80
3, 114719, Note_on_c, 3, 64, 0
3, 114720, Note_on_c, 3, 64, 80
3, 115199, Note_on_c, 3, 64, 0
3, 115200, Note_on_c, 3, 62, 80
3, 115679, Note_on_c, 3, 62, 0
3, 115680, Note_on_c, 3, 65, 80
3, 116159, Note_on_c, 3, 65, 0
3, 116160, Note_on_c, 3, 67, 80
3, 116479, Note_on_c, 3, 67, 0
3, 116480, Note_on_c, 3, 62, 80
3, 116639, Note_on_c, 3, 62, 0
3, 116640, Note_on_c, 3, 55, 80
3, 117119, Note_on_c, 3, 55, 0
3, 117120, Note_on_c, 3, 60, 80
3, 117599, Note_on_c, 3, 60, 0
3, 117600, Note_on_c, 3, 48, 80
3, 118079, Note_on_c, 3, 48, 0
3, 118080, Note_on_c, 3, 55, 80
3, 118559, Note_on_c, 3, 55, 0
3, 118560, Note_on_c, 3, 60, 80
3, 119039, Note_on_c, 3, 60, 0
3, 119040, Note_on_c, 3, 64, 80
3, 119519, Note_on_c, 3, 64, 0
3, 119520, Note_on_c, 3, 52, 80
3, 119999, Note_on_c, 3, 52, 0
3, 120000, Note_on_c, 3, 62, 80
3, 120479, Note_on_c, 3, 62, 0
3, 120480, Note_on_c, 3, 50, 80
3, 120959, Note_on_c, 3, 50, 0
3, 120960, Note_on_c, 3, 50, 80
3, 121439, Note_on_c, 3, 50, 0
3, 121440, Note_on_c, 3, 57, 80
3, 121919, Note_on_c, 3, 57, 0
3, 121920, Note_on_c, 3, 55, 80
3, 122399, Note_on_c, 3, 55, 0
3, 122400, Note_on_c, 3, 62, 80
3, 122879, Note_on_c, 3, 62, 0
3, 122880, Note_on_c, 3, 64, 80
3, 123359, Note_on_c, 3, 64, 0
3, 123360, Note_on_c, 3, 52, 80
3, 123839, Note_on_c, 3, 52, 0
3, 123840, Note_on_c, 3, 57, 80
3, 124319, Note_on_c, 3, 57, 0
3, 124320, Note_on_c, 3, 59, 80
3, 124799, Note_on_c, 3, 59, 0
3, 124800, Note_on_c, 3, 62, 80
3, 125279, Note_on_c, 3, 62, 0
3, 125280, Note_on_c, 3, 62, 80
3, 125759, Note_on_c, 3, 62, 0
3, 125760, Note_on_c, 3, 62, 80
3, 126239, Note_on_c, 3, 62, 0
3, 126240, Note_on_c, 3, 62, 80
3, 126719, Note_on_c, 3, 62, 0
3, 126720, Note_on_c, 3, 62, 80
3, 127199, Note_on_c, 3, 62, 0
3, 127200, Note_on_c, 3, 59, 80
3, 127679, Note_on_c, 3, 59, 0
3, 127680, Note_on_c, 3, 55, 80
3, 128159, Note_on_c, 3, 55, 0
3, 128160, Note_on_c, 3, 59, 80
3, 128639, Note_on_c, 3, 59, 0
3, 128640, Note_on_c, 3, 59, 80
3, 129119, Note_on_c, 3, 59, 0
3, 129120, Note_on_c, 3, 59, 80
3, 129599, Note_on_c, 3, 59, 0
3, 129600, Note_on_c, 3, 57, 80
3, 130079, Note_on_c, 3, 57, 0
3, 130080, Note_on_c, 3, 57, 80
3, 130559, Note_on_c, 3, 57, 0
3, 130560, Note_on_c, 3, 62, 80
3, 131039, Note_on_c, 3, 62, 0
3, 131040, Note_on_c, 3, 64, 80
3, 131519, Note_on_c, 3, 64, 0
3, 131520, Note_on_c, 3, 65, 80
3, 131839, Note_on_c, 3, 65, 0
3, 131840, Note_on_c, 3, 62, 80
3, 131999, Note_on_c, 3, 62, 0
3, 132000, Note_on_c, 3, 64, 80
3, 132319, Note_on_c, 3, 64, 0
3, 132320, Note_on_c, 3, 62, 80
3, 132479, Note_on_c, 3, 62, 0
3, 132480, Note_on_c, 3, 67, 80
3, 132799, Note_on_c, 3, 67, 0
3, 132800, Note_on_c, 3, 67, 80
3, 132959, Note_on_c, 3, 67, 0
3, 132960, Note_on_c, 3, 65, 80
3, 133439, Note_on_c, 3, 65, 0
3, 133440, Note_on_c, 3, 64, 80
3, 133919, Note_on_c, 3, 64, 0
3, 133920, Note_on_c, 3, 62, 80
3, 134399, Note_on_c, 3, 62, 0
3, 134400, Note_on_c, 3, 60, 80
3, 134879, Note_on_c, 3, 60, 0
3, 134880, Note_on_c, 3, 60, 80
3, 135359, Note_on_c, 3, 60, 0
3, 135360, Note_on_c, 3, 59, 80
3, 135839, Note_on_c, 3, 59, 0
3, 135840, Note_on_c, 3, 59, 80
3, 136319, Note_on_c, 3, 59, 0
3, 136320, Note_on_c, 3, 57, 80
3, 136799, Note_on_c, 3, 57, 0
3, 136800, Note_on_c, 3, 57, 80
3, 137279, Note_on_c, 3, 57, 0
3, 137280, Note_on_c, 3, 55, 80
3, 138239, Note_on_c, 3, 55, 0
3, 138240, Note_on_c, 3, 60, 80
3, 138719, Note_on_c, 3, 60, 0
3, 141600, Note_on_c, 3, 60, 80
3, 143999, Note_on_c, 3, 60, 0
3, 144000, End_track
4, 0, Start_track
4, 0, Title_t, "Bell\000"
4, 0, Key_signature, 0, "major"
4, 0, Control_c, 6, 121, 0
4, 0, Program_c, 6, 14
4, 0, Control_c, 6, 7, 100
4, 0, Control_c, 6, 10, 64
4, 0, Control_c, 6, 91, 0
4, 0, Control_c, 6, 93, 0
4, 0, MIDI_port, 0
4, 1, End_track
5, 0, Start_track
5, 0, Title_t, "Classical Guitar, Lute\000"
5, 0, Key_signature, 0, "major"
5, 0, Control_c, 1, 121, 0
5, 0, Program_c, 1, 24
5, 0, Control_c, 1, 7, 100
5, 0, Control_c, 1, 10, 64
5, 0, Control_c, 1, 91, 0
5, 0, Control_c, 1, 93, 0
5, 0, MIDI_port, 0
5, 0, Note_on_c, 1, 52, 80
5, 0, Note_on_c, 1, 57, 80
5, 0, Note_on_c, 1, 60, 80
5, 0, Control_c, 5, 121, 0
5, 0, Program_c, 5, 28
5, 0, Control_c, 5, 7, 100
5, 0, Control_c, 5, 10, 64
5, 0, Control_c, 5, 91, 0
5, 0, Control_c, 5, 93, 0
5, 0, MIDI_port, 0
5, 479, Note_on_c, 1, 52, 0
5, 479, Note_on_c, 1, 57, 0
5, 479, Note_on_c, 1, 60, 0
5, 480, Note_on_c, 1, 52, 80
5, 480, Note_on_c, 1, 57, 80
5, 480, Note_on_c, 1, 60, 80
5, 959, Note_on_c, 1, 52, 0
5, 959, Note_on_c, 1, 57, 0
5, 959, Note_on_c, 1, 60, 0
5, 960, Note_on_c, 1, 52, 80
5, 960, Note_on_c, 1, 55, 80
5, 960, Note_on_c, 1, 59, 80
5, 1439, Note_on_c, 1, 52, 0
5, 1439, Note_on_c, 1, 55, 0
5, 1439, Note_on_c, 1, 59, 0
5, 1440, Note_on_c, 1, 52, 80
5, 1440, Note_on_c, 1, 55, 80
5, 1440, Note_on_c, 1, 59, 80
5, 1919, Note_on_c, 1, 52, 0
5, 1919, Note_on_c, 1, 55, 0
5, 1919, Note_on_c, 1, 59, 0
5, 1920, Note_on_c, 1, 52, 80
5, 1920, Note_on_c, 1, 53, 80
5, 1920, Note_on_c, 1, 57, 80
5, 1920, Note_on_c, 1, 60, 80
5, 2399, Note_on_c, 1, 52, 0
5, 2399, Note_on_c, 1, 53, 0
5, 2399, Note_on_c, 1, 57, 0
5, 2399, Note_on_c, 1, 60, 0
5, 2400, Note_on_c, 1, 52, 80
5, 2400, Note_on_c, 1, 53, 80
5, 2400, Note_on_c, 1, 57, 80
5, 2400, Note_on_c, 1, 60, 80
5, 2879, Note_on_c, 1, 52, 0
5, 2879, Note_on_c, 1, 53, 0
5, 2879, Note_on_c, 1, 57, 0
5, 2879, Note_on_c, 1, 60, 0
5, 2880, Note_on_c, 1, 50, 80
5, 2880, Note_on_c, 1, 53, 80
5, 2880, Note_on_c, 1, 55, 80
5, 2880, Note_on_c, 1, 59, 80
5, 3359, Note_on_c, 1, 50, 0
5, 3359, Note_on_c, 1, 53, 0
5, 3359, Note_on_c, 1, 55, 0
5, 3359, Note_on_c, 1, 59, 0
5, 3360, Note_on_c, 1, 50, 80
5, 3360, Note_on_c, 1, 53, 80
5, 3360, Note_on_c, 1, 55, 80
5, 3360, Note_on_c, 1, 59, 80
5, 3839, Note_on_c, 1, 50, 0
5, 3839, Note_on_c, 1, 53, 0
5, 3839, Note_on_c, 1, 55, 0
5, 3839, Note_on_c, 1, 59, 0
5, 3840, Note_on_c, 1, 48, 80
5, 3840, Note_on_c, 1, 52, 80
5, 3840, Note_on_c, 1, 57, 80
5, 4319, Note_on_c, 1, 48, 0
5, 4319, Note_on_c, 1, 52, 0
5, 4319, Note_on_c, 1, 57, 0
5, 4320, Note_on_c, 1, 48, 80
5, 4320, Note_on_c, 1, 52, 80
5, 4320, Note_on_c, 1, 57, 80
5, 4799, Note_on_c, 1, 48, 0
5, 4799, Note_on_c, 1, 52, 0
5, 4799, Note_on_c, 1, 57, 0
5, 4800, Note_on_c, 1, 52, 80
5, 4800, Note_on_c, 1, 55, 80
5, 4800, Note_on_c, 1, 59, 80
5, 5279, Note_on_c, 1, 52, 0
5, 5279, Note_on_c, 1, 55, 0
5, 5279, Note_on_c, 1, 59, 0
5, 5280, Note_on_c, 1, 52, 80
5, 5280, Note_on_c, 1, 55, 80
5, 5280, Note_on_c, 1, 59, 80
5, 5759, Note_on_c, 1, 52, 0
5, 5759, Note_on_c, 1, 55, 0
5, 5759, Note_on_c, 1, 59, 0
5, 5760, Note_on_c, 1, 48, 80
5, 5760, Note_on_c, 1, 52, 80
5, 5760, Note_on_c, 1, 53, 80
5, 5760, Note_on_c, 1, 57, 80
5, 6239, Note_on_c, 1, 48, 0
5, 6239, Note_on_c, 1, 52, 0
5, 6239, Note_on_c, 1, 53, 0
5, 6239, Note_on_c, 1, 57, 0
5, 6240, Note_on_c, 1, 48, 80
5, 6240, Note_on_c, 1, 52, 80
5, 6240, Note_on_c, 1, 53, 80
5, 6240, Note_on_c, 1, 57, 80
5, 6719, Note_on_c, 1, 48, 0
5, 6719, Note_on_c, 1, 52, 0
5, 6719, Note_on_c, 1, 53, 0
5, 6719, Note_on_c, 1, 57, 0
5, 6720, Note_on_c, 1, 50, 80
5, 6720, Note_on_c, 1, 53, 80
5, 6720, Note_on_c, 1, 55, 80
5, 7199, Note_on_c, 1, 50, 0
5, 7199, Note_on_c, 1, 53, 0
5, 7199, Note_on_c, 1, 55, 0
5, 7200, Note_on_c, 1, 50, 80
5, 7200, Note_on_c, 1, 53, 80
5, 7200, Note_on_c, 1, 55, 80
5, 7679, Note_on_c, 1, 50, 0
5, 7679, Note_on_c, 1, 53, 0
5, 7679, Note_on_c, 1, 55, 0
5, 7680, Note_on_c, 1, 48, 80
5, 7680, Note_on_c, 1, 52, 80
5, 7680, Note_on_c, 1, 53, 80
5, 7680, Note_on_c, 1, 57, 80
5, 8159, Note_on_c, 1, 48, 0
5, 8159, Note_on_c, 1, 52, 0
5, 8159, Note_on_c, 1, 53, 0
5, 8159, Note_on_c, 1, 57, 0
5, 8160, Note_on_c, 1, 48, 80
5, 8160, Note_on_c, 1, 52, 80
5, 8160, Note_on_c, 1, 53, 80
5, 8160, Note_on_c, 1, 57, 80
5, 8639, Note_on_c, 1, 48, 0
5, 8639, Note_on_c, 1, 52, 0
5, 8639, Note_on_c, 1, 53, 0
5, 8639, Note_on_c, 1, 57, 0
5, 8640, Note_on_c, 1, 50, 80
5, 8640, Note_on_c, 1, 53, 80
5, 8640, Note_on_c, 1, 59, 80
5, 9119, Note_on_c, 1, 50, 0
5, 9119, Note_on_c, 1, 53, 0
5, 9119, Note_on_c, 1, 59, 0
5, 9120, Note_on_c, 1, 50, 80
5, 9120, Note_on_c, 1, 53, 80
5, 9120, Note_on_c, 1, 59, 80
5, 9599, Note_on_c, 1, 50, 0
5, 9599, Note_on_c, 1, 53, 0
5, 9599, Note_on_c, 1, 59, 0
5, 9600, Note_on_c, 1, 52, 80
5, 9600, Note_on_c, 1, 55, 80
5, 9600, Note_on_c, 1, 60, 80
5, 10079, Note_on_c, 1, 52, 0
5, 10079, Note_on_c, 1, 55, 0
5, 10079, Note_on_c, 1, 60, 0
5, 10080, Note_on_c, 1, 52, 80
5, 10080, Note_on_c, 1, 55, 80
5, 10080, Note_on_c, 1, 60, 80
5, 10559, Note_on_c, 1, 52, 0
5, 10559, Note_on_c, 1, 55, 0
5, 10559, Note_on_c, 1, 60, 0
5, 10560, Note_on_c, 1, 52, 80
5, 10560, Note_on_c, 1, 55, 80
5, 10560, Note_on_c, 1, 60, 80
5, 11039, Note_on_c, 1, 52, 0
5, 11039, Note_on_c, 1, 55, 0
5, 11039, Note_on_c, 1, 60, 0
5, 11040, Note_on_c, 1, 52, 80
5, 11040, Note_on_c, 1, 55, 80
5, 11040, Note_on_c, 1, 60, 80
5, 11519, Note_on_c, 1, 52, 0
5, 11519, Note_on_c, 1, 55, 0
5, 11519, Note_on_c, 1, 60, 0
5, 11520, Note_on_c, 1, 50, 80
5, 11520, Note_on_c, 1, 55, 80
5, 11520, Note_on_c, 1, 59, 80
5, 11999, Note_on_c, 1, 50, 0
5, 11999, Note_on_c, 1, 55, 0
5, 11999, Note_on_c, 1, 59, 0
5, 12000, Note_on_c, 1, 50, 80
5, 12000, Note_on_c, 1, 55, 80
5, 12000, Note_on_c, 1, 59, 80
5, 12479, Note_on_c, 1, 50, 0
5, 12479, Note_on_c, 1, 55, 0
5, 12479, Note_on_c, 1, 59, 0
5, 12480, Note_on_c, 1, 53, 80
5, 12480, Note_on_c, 1, 57, 80
5, 12480, Note_on_c, 1, 60, 80
5, 12959, Note_on_c, 1, 53, 0
5, 12959, Note_on_c, 1, 57, 0
5, 12959, Note_on_c, 1, 60, 0
5, 12960, Note_on_c, 1, 53, 80
5, 12960, Note_on_c, 1, 57, 80
5, 12960, Note_on_c, 1, 60, 80
5, 13439, Note_on_c, 1, 53, 0
5, 13439, Note_on_c, 1, 57, 0
5, 13439, Note_on_c, 1, 60, 0
5, 13440, Note_on_c, 1, 52, 80
5, 13440, Note_on_c, 1, 53, 80
5, 13440, Note_on_c, 1, 57, 80
5, 13440, Note_on_c, 1, 60, 80
5, 13919, Note_on_c, 1, 52, 0
5, 13919, Note_on_c, 1, 53, 0
5, 13919, Note_on_c, 1, 57, 0
5, 13919, Note_on_c, 1, 60, 0
5, 13920, Note_on_c, 1, 52, 80
5, 13920, Note_on_c, 1, 53, 80
5, 13920, Note_on_c, 1, 57, 80
5, 13920, Note_on_c, 1, 60, 80
5, 14399, Note_on_c, 1, 52, 0
5, 14399, Note_on_c, 1, 53, 0
5, 14399, Note_on_c, 1, 57, 0
5, 14399, Note_on_c, 1, 60, 0
5, 14400, Note_on_c, 1, 50, 80
5, 14400, Note_on_c, 1, 53, 80
5, 14400, Note_on_c, 1, 55, 80
5, 14400, Note_on_c, 1, 59, 80
5, 14879, Note_on_c, 1, 50, 0
5, 14879, Note_on_c, 1, 53, 0
5, 14879, Note_on_c, 1, 55, 0
5, 14879, Note_on_c, 1, 59, 0
5, 14880, Note_on_c, 1, 50, 80
5, 14880, Note_on_c, 1, 53, 80
5, 14880, Note_on_c, 1, 55, 80
5, 14880, Note_on_c, 1, 59, 80
5, 15359, Note_on_c, 1, 50, 0
5, 15359, Note_on_c, 1, 53, 0
5, 15359, Note_on_c, 1, 55, 0
5, 15359, Note_on_c, 1, 59, 0
5, 15360, Note_on_c, 1, 52, 80
5, 15360, Note_on_c, 1, 55, 80
5, 15360, Note_on_c, 1, 59, 80
5, 15839, Note_on_c, 1, 52, 0
5, 15839, Note_on_c, 1, 55, 0
5, 15839, Note_on_c, 1, 59, 0
5, 15840, Note_on_c, 1, 52, 80
5, 15840, Note_on_c, 1, 55, 80
5, 15840, Note_on_c, 1, 59, 80
5, 16319, Note_on_c, 1, 52, 0
5, 16319, Note_on_c, 1, 55, 0
5, 16319, Note_on_c, 1, 59, 0
5, 16320, Note_on_c, 1, 53, 80
5, 16320, Note_on_c, 1, 55, 80
5, 16320, Note_on_c, 1, 60, 80
5, 16799, Note_on_c, 1, 53, 0
5, 16799, Note_on_c, 1, 55, 0
5, 16799, Note_on_c, 1, 60, 0
5, 16800, Note_on_c, 1, 53, 80
5, 16800, Note_on_c, 1, 55, 80
5, 16800, Note_on_c, 1, 60, 80
5, 17279, Note_on_c, 1, 53, 0
5, 17279, Note_on_c, 1, 55, 0
5, 17279, Note_on_c, 1, 60, 0
5, 17280, Note_on_c, 1, 53, 80
5, 17280, Note_on_c, 1, 57, 80
5, 17280, Note_on_c, 1, 60, 80
5, 17759, Note_on_c, 1, 53, 0
5, 17759, Note_on_c, 1, 57, 0
5, 17759, Note_on_c, 1, 60, 0
5, 17760, Note_on_c, 1, 53, 80
5, 17760, Note_on_c, 1, 57, 80
5, 17760, Note_on_c, 1, 60, 80
5, 18239, Note_on_c, 1, 53, 0
5, 18239, Note_on_c, 1, 57, 0
5, 18239, Note_on_c, 1, 60, 0
5, 18240, Note_on_c, 1, 53, 80
5, 18240, Note_on_c, 1, 57, 80
5, 18240, Note_on_c, 1, 60, 80
5, 18719, Note_on_c, 1, 53, 0
5, 18719, Note_on_c, 1, 57, 0
5, 18719, Note_on_c, 1, 60, 0
5, 18720, Note_on_c, 1, 53, 80
5, 18720, Note_on_c, 1, 57, 80
5, 18720, Note_on_c, 1, 60, 80
5, 19199, Note_on_c, 1, 53, 0
5, 19199, Note_on_c, 1, 57, 0
5, 19199, Note_on_c, 1, 60, 0
5, 19200, Note_on_c, 1, 48, 80
5, 19200, Note_on_c, 1, 52, 80
5, 19200, Note_on_c, 1, 53, 80
5, 19200, Note_on_c, 1, 57, 80
5, 19679, Note_on_c, 1, 48, 0
5, 19679, Note_on_c, 1, 52, 0
5, 19679, Note_on_c, 1, 53, 0
5, 19679, Note_on_c, 1, 57, 0
5, 19680, Note_on_c, 1, 48, 80
5, 19680, Note_on_c, 1, 52, 80
5, 19680, Note_on_c, 1, 53, 80
5, 19680, Note_on_c, 1, 57, 80
5, 20159, Note_on_c, 1, 48, 0
5, 20159, Note_on_c, 1, 52, 0
5, 20159, Note_on_c, 1, 53, 0
5, 20159, Note_on_c, 1, 57, 0
5, 20160, Note_on_c, 1, 50, 80
5, 20160, Note_on_c, 1, 53, 80
5, 20160, Note_on_c, 1, 59, 80
5, 20639, Note_on_c, 1, 50, 0
5, 20639, Note_on_c, 1, 53, 0
5, 20639, Note_on_c, 1, 59, 0
5, 20640, Note_on_c, 1, 50, 80
5, 20640, Note_on_c, 1, 53, 80
5, 20640, Note_on_c, 1, 59, 80
5, 21119, Note_on_c, 1, 50, 0
5, 21119, Note_on_c, 1, 53, 0
5, 21119, Note_on_c, 1, 59, 0
5, 21120, Note_on_c, 1, 52, 80
5, 21120, Note_on_c, 1, 55, 80
5, 21120, Note_on_c, 1, 57, 80
5, 21599, Note_on_c, 1, 52, 0
5, 21599, Note_on_c, 1, 55, 0
5, 21599, Note_on_c, 1, 57, 0
5, 21600, Note_on_c, 1, 52, 80
5, 21600, Note_on_c, 1, 55, 80
5, 21600, Note_on_c, 1, 57, 80
5, 22079, Note_on_c, 1, 52, 0
5, 22079, Note_on_c, 1, 55, 0
5, 22079, Note_on_c, 1, 57, 0
5, 22080, Note_on_c, 1, 52, 80
5, 22080, Note_on_c, 1, 55, 80
5, 22080, Note_on_c, 1, 57, 80
5, 22559, Note_on_c, 1, 52, 0
5, 22559, Note_on_c, 1, 55, 0
5, 22559, Note_on_c, 1, 57, 0
5, 22560, Note_on_c, 1, 52, 80
5, 22560, Note_on_c, 1, 55, 80
5, 22560, Note_on_c, 1, 57, 80
5, 23039, Note_on_c, 1, 52, 0
5, 23039, Note_on_c, 1, 55, 0
5, 23039, Note_on_c, 1, 57, 0
5, 23040, Note_on_c, 1, 48, 80
5, 23040, Note_on_c, 1, 52, 80
5, 23040, Note_on_c, 1, 53, 80
5, 23040, Note_on_c, 1, 57, 80
5, 23519, Note_on_c, 1, 48, 0
5, 23519, Note_on_c, 1, 52, 0
5, 23519, Note_on_c, 1, 53, 0
5, 23519, Note_on_c, 1, 57, 0
5, 23520, Note_on_c, 1, 48, 80
5, 23520, Note_on_c, 1, 52, 80
5, 23520, Note_on_c, 1, 53, 80
5, 23520, Note_on_c, 1, 57, 80
5, 23999, Note_on_c, 1, 48, 0
5, 23999, Note_on_c, 1, 52, 0
5, 23999, Note_on_c, 1, 53, 0
5, 23999, Note_on_c, 1, 57, 0
5, 24000, Note_on_c, 1, 50, 80
5, 24000, Note_on_c, 1, 53, 80
5, 24000, Note_on_c, 1, 59, 80
5, 24479, Note_on_c, 1, 50, 0
5, 24479, Note_on_c, 1, 53, 0
5, 24479, Note_on_c, 1, 59, 0
5, 24480, Note_on_c, 1, 50, 80
5, 24480, Note_on_c, 1, 53, 80
5, 24480, Note_on_c, 1, 59, 80
5, 24959, Note_on_c, 1, 50, 0
5, 24959, Note_on_c, 1, 53, 0
5, 24959, Note_on_c, 1, 59, 0
5, 24960, Note_on_c, 1, 52, 80
5, 24960, Note_on_c, 1, 55, 80
5, 24960, Note_on_c, 1, 60, 80
5, 25439, Note_on_c, 1, 52, 0
5, 25439, Note_on_c, 1, 55, 0
5, 25439, Note_on_c, 1, 60, 0
5, 25440, Note_on_c, 1, 52, 80
5, 25440, Note_on_c, 1, 55, 80
5, 25440, Note_on_c, 1, 60, 80
5, 25919, Note_on_c, 1, 52, 0
5, 25919, Note_on_c, 1, 55, 0
5, 25919, Note_on_c, 1, 60, 0
5, 25920, Note_on_c, 1, 52, 80
5, 25920, Note_on_c, 1, 55, 80
5, 25920, Note_on_c, 1, 60, 80
5, 26399, Note_on_c, 1, 52, 0
5, 26399, Note_on_c, 1, 55, 0
5, 26399, Note_on_c, 1, 60, 0
5, 26400, Note_on_c, 1, 52, 80
5, 26400, Note_on_c, 1, 55, 80
5, 26400, Note_on_c, 1, 60, 80
5, 26879, Note_on_c, 1, 52, 0
5, 26879, Note_on_c, 1, 55, 0
5, 26879, Note_on_c, 1, 60, 0
5, 26880, Note_on_c, 1, 50, 80
5, 26880, Note_on_c, 1, 55, 80
5, 26880, Note_on_c, 1, 59, 80
5, 27359, Note_on_c, 1, 50, 0
5, 27359, Note_on_c, 1, 55, 0
5, 27359, Note_on_c, 1, 59, 0
5, 27360, Note_on_c, 1, 50, 80
5, 27360, Note_on_c, 1, 55, 80
5, 27360, Note_on_c, 1, 59, 80
5, 27839, Note_on_c, 1, 50, 0
5, 27839, Note_on_c, 1, 55, 0
5, 27839, Note_on_c, 1, 59, 0
5, 27840, Note_on_c, 1, 53, 80
5, 27840, Note_on_c, 1, 57, 80
5, 27840, Note_on_c, 1, 60, 80
5, 28319, Note_on_c, 1, 53, 0
5, 28319, Note_on_c, 1, 57, 0
5, 28319, Note_on_c, 1, 60, 0
5, 28320, Note_on_c, 1, 53, 80
5, 28320, Note_on_c, 1, 57, 80
5, 28320, Note_on_c, 1, 60, 80
5, 28799, Note_on_c, 1, 53, 0
5, 28799, Note_on_c, 1, 57, 0
5, 28799, Note_on_c, 1, 60, 0
5, 28800, Note_on_c, 1, 48, 80
5, 28800, Note_on_c, 1, 52, 80
5, 28800, Note_on_c, 1, 53, 80
5, 28800, Note_on_c, 1, 57, 80
5, 29279, Note_on_c, 1, 48, 0
5, 29279, Note_on_c, 1, 52, 0
5, 29279, Note_on_c, 1, 53, 0
5, 29279, Note_on_c, 1, 57, 0
5, 29280, Note_on_c, 1, 48, 80
5, 29280, Note_on_c, 1, 52, 80
5, 29280, Note_on_c, 1, 53, 80
5, 29280, Note_on_c, 1, 57, 80
5, 29759, Note_on_c, 1, 48, 0
5, 29759, Note_on_c, 1, 52, 0
5, 29759, Note_on_c, 1, 53, 0
5, 29759, Note_on_c, 1, 57, 0
5, 29760, Note_on_c, 1, 50, 80
5, 29760, Note_on_c, 1, 53, 80
5, 29760, Note_on_c, 1, 55, 80
5, 30239, Note_on_c, 1, 50, 0
5, 30239, Note_on_c, 1, 53, 0
5, 30239, Note_on_c, 1, 55, 0
5, 30240, Note_on_c, 1, 50, 80
5, 30240, Note_on_c, 1, 53, 80
5, 30240, Note_on_c, 1, 55, 80
5, 30719, Note_on_c, 1, 50, 0
5, 30719, Note_on_c, 1, 53, 0
5, 30719, Note_on_c, 1, 55, 0
5, 30720, Note_on_c, 1, 52, 80
5, 30720, Note_on_c, 1, 55, 80
5, 30720, Note_on_c, 1, 59, 80
5, 31199, Note_on_c, 1, 52, 0
5, 31199, Note_on_c, 1, 55, 0
5, 31199, Note_on_c, 1, 59, 0
5, 31200, Note_on_c, 1, 52, 80
5, 31200, Note_on_c, 1, 55, 80
5, 31200, Note_on_c, 1, 59, 80
5, 31679, Note_on_c, 1, 52, 0
5, 31679, Note_on_c, 1, 55, 0
5, 31679, Note_on_c, 1, 59, 0
5, 31680, Note_on_c, 1, 53, 80
5, 31680, Note_on_c, 1, 55, 80
5, 31680, Note_on_c, 1, 60, 80
5, 32159, Note_on_c, 1, 53, 0
5, 32159, Note_on_c, 1, 55, 0
5, 32159, Note_on_c, 1, 60, 0
5, 32160, Note_on_c, 1, 53, 80
5, 32160, Note_on_c, 1, 55, 80
5, 32160, Note_on_c, 1, 60, 80
5, 32639, Note_on_c, 1, 53, 0
5, 32639, Note_on_c, 1, 55, 0
5, 32639, Note_on_c, 1, 60, 0
5, 32640, Note_on_c, 1, 48, 80
5, 32640, Note_on_c, 1, 53, 80
5, 32640, Note_on_c, 1, 57, 80
5, 33119, Note_on_c, 1, 48, 0
5, 33119, Note_on_c, 1, 53, 0
5, 33119, Note_on_c, 1, 57, 0
5, 33120, Note_on_c, 1, 48, 80
5, 33120, Note_on_c, 1, 53, 80
5, 33120, Note_on_c, 1, 57, 80
5, 33599, Note_on_c, 1, 48, 0
5, 33599, Note_on_c, 1, 53, 0
5, 33599, Note_on_c, 1, 57, 0
5, 33600, Note_on_c, 1, 48, 80
5, 33600, Note_on_c, 1, 53, 80
5, 33600, Note_on_c, 1, 57, 80
5, 34079, Note_on_c, 1, 48, 0
5, 34079, Note_on_c, 1, 53, 0
5, 34079, Note_on_c, 1, 57, 0
5, 34080, Note_on_c, 1, 48, 80
5, 34080, Note_on_c, 1, 53, 80
5, 34080, Note_on_c, 1, 57, 80
5, 34559, Note_on_c, 1, 48, 0
5, 34559, Note_on_c, 1, 53, 0
5, 34559, Note_on_c, 1, 57, 0
5, 34560, Note_on_c, 1, 48, 80
5, 34560, Note_on_c, 1, 52, 80
5, 34560, Note_on_c, 1, 53, 80
5, 34560, Note_on_c, 1, 57, 80
5, 35039, Note_on_c, 1, 48, 0
5, 35039, Note_on_c, 1, 52, 0
5, 35039, Note_on_c, 1, 53, 0
5, 35039, Note_on_c, 1, 57, 0
5, 35040, Note_on_c, 1, 48, 80
5, 35040, Note_on_c, 1, 52, 80
5, 35040, Note_on_c, 1, 53, 80
5, 35040, Note_on_c, 1, 57, 80
5, 35519, Note_on_c, 1, 48, 0
5, 35519, Note_on_c, 1, 52, 0
5, 35519, Note_on_c, 1, 53, 0
5, 35519, Note_on_c, 1, 57, 0
5, 35520, Note_on_c, 1, 50, 80
5, 35520, Note_on_c, 1, 53, 80
5, 35520, Note_on_c, 1, 59, 80
5, 35999, Note_on_c, 1, 50, 0
5, 35999, Note_on_c, 1, 53, 0
5, 35999, Note_on_c, 1, 59, 0
5, 36000, Note_on_c, 1, 50, 80
5, 36000, Note_on_c, 1, 53, 80
5, 36000, Note_on_c, 1, 59, 80
5, 36479, Note_on_c, 1, 50, 0
5, 36479, Note_on_c, 1, 53, 0
5, 36479, Note_on_c, 1, 59, 0
5, 36480, Note_on_c, 1, 50, 80
5, 36480, Note_on_c, 1, 52, 80
5, 36480, Note_on_c, 1, 55, 80
5, 36480, Note_on_c, 1, 57, 80
5, 36959, Note_on_c, 1, 50, 0
5, 36959, Note_on_c, 1, 52, 0
5, 36959, Note_on_c, 1, 55, 0
5, 36959, Note_on_c, 1, 57, 0
5, 36960, Note_on_c, 1, 50, 80
5, 36960, Note_on_c, 1, 52, 80
5, 36960, Note_on_c, 1, 55, 80
5, 36960, Note_on_c, 1, 57, 80
5, 37439, Note_on_c, 1, 50, 0
5, 37439, Note_on_c, 1, 52, 0
5, 37439, Note_on_c, 1, 55, 0
5, 37439, Note_on_c, 1, 57, 0
5, 37440, Note_on_c, 1, 50, 80
5, 37440, Note_on_c, 1, 52, 80
5, 37440, Note_on_c, 1, 55, 80
5, 37440, Note_on_c, 1, 57, 80
5, 37919, Note_on_c, 1, 50, 0
5, 37919, Note_on_c, 1, 52, 0
5, 37919, Note_on_c, 1, 55, 0
5, 37919, Note_on_c, 1, 57, 0
5, 37920, Note_on_c, 1, 50, 80
5, 37920, Note_on_c, 1, 52, 80
5, 37920, Note_on_c, 1, 55, 80
5, 37920, Note_on_c, 1, 57, 80
5, 38399, Note_on_c, 1, 50, 0
5, 38399, Note_on_c, 1, 52, 0
5, 38399, Note_on_c, 1, 55, 0
5, 38399, Note_on_c, 1, 57, 0
5, 38400, Note_on_c, 1, 50, 80
5, 38400, Note_on_c, 1, 57, 80
5, 38400, Note_on_c, 1, 59, 80
5, 38879, Note_on_c, 1, 50, 0
5, 38879, Note_on_c, 1, 57, 0
5, 38879, Note_on_c, 1, 59, 0
5, 38880, Note_on_c, 1, 50, 80
5, 38880, Note_on_c, 1, 57, 80
5, 38880, Note_on_c, 1, 59, 80
5, 39359, Note_on_c, 1, 50, 0
5, 39359, Note_on_c, 1, 57, 0
5, 39359, Note_on_c, 1, 59, 0
5, 39360, Note_on_c, 1, 52, 80
5, 39360, Note_on_c, 1, 55, 80
5, 39360, Note_on_c, 1, 59, 80
5, 39839, Note_on_c, 1, 52, 0
5, 39839, Note_on_c, 1, 55, 0
5, 39839, Note_on_c, 1, 59, 0
5, 39840, Note_on_c, 1, 52, 80
5, 39840, Note_on_c, 1, 55, 80
5, 39840, Note_on_c, 1, 59, 80
5, 40319, Note_on_c, 1, 52, 0
5, 40319, Note_on_c, 1, 55, 0
5, 40319, Note_on_c, 1, 59, 0
5, 40320, Note_on_c, 1, 50, 80
5, 40320, Note_on_c, 1, 53, 80
5, 40320, Note_on_c, 1, 59, 80
5, 40799, Note_on_c, 1, 50, 0
5, 40799, Note_on_c, 1, 53, 0
5, 40799, Note_on_c, 1, 59, 0
5, 40800, Note_on_c, 1, 50, 80
5, 40800, Note_on_c, 1, 53, 80
5, 40800, Note_on_c, 1, 59, 80
5, 41279, Note_on_c, 1, 50, 0
5, 41279, Note_on_c, 1, 53, 0
5, 41279, Note_on_c, 1, 59, 0
5, 41280, Note_on_c, 1, 50, 80
5, 41280, Note_on_c, 1, 53, 80
5, 41280, Note_on_c, 1, 60, 80
5, 41759, Note_on_c, 1, 50, 0
5, 41759, Note_on_c, 1, 53, 0
5, 41759, Note_on_c, 1, 60, 0
5, 41760, Note_on_c, 1, 50, 80
5, 41760, Note_on_c, 1, 53, 80
5, 41760, Note_on_c, 1, 60, 80
5, 42239, Note_on_c, 1, 50, 0
5, 42239, Note_on_c, 1, 53, 0
5, 42239, Note_on_c, 1, 60, 0
5, 42240, Note_on_c, 1, 48, 80
5, 42240, Note_on_c, 1, 52, 80
5, 42240, Note_on_c, 1, 55, 80
5, 42240, Note_on_c, 1, 57, 80
5, 42719, Note_on_c, 1, 48, 0
5, 42719, Note_on_c, 1, 52, 0
5, 42719, Note_on_c, 1, 55, 0
5, 42719, Note_on_c, 1, 57, 0
5, 42720, Note_on_c, 1, 48, 80
5, 42720, Note_on_c, 1, 52, 80
5, 42720, Note_on_c, 1, 55, 80
5, 42720, Note_on_c, 1, 57, 80
5, 43199, Note_on_c, 1, 48, 0
5, 43199, Note_on_c, 1, 52, 0
5, 43199, Note_on_c, 1, 55, 0
5, 43199, Note_on_c, 1, 57, 0
5, 43200, Note_on_c, 1, 48, 80
5, 43200, Note_on_c, 1, 57, 80
5, 43679, Note_on_c, 1, 48, 0
5, 43679, Note_on_c, 1, 57, 0
5, 43680, Note_on_c, 1, 48, 80
5, 43680, Note_on_c, 1, 57, 80
5, 44159, Note_on_c, 1, 48, 0
5, 44159, Note_on_c, 1, 57, 0
5, 44160, Note_on_c, 1, 50, 80
5, 44160, Note_on_c, 1, 57, 80
5, 44160, Note_on_c, 1, 59, 80
5, 44639, Note_on_c, 1, 50, 0
5, 44639, Note_on_c, 1, 57, 0
5, 44639, Note_on_c, 1, 59, 0
5, 44640, Note_on_c, 1, 50, 80
5, 44640, Note_on_c, 1, 57, 80
5, 44640, Note_on_c, 1, 59, 80
5, 45119, Note_on_c, 1, 50, 0
5, 45119, Note_on_c, 1, 57, 0
5, 45119, Note_on_c, 1, 59, 0
5, 45120, Note_on_c, 1, 50, 80
5, 45120, Note_on_c, 1, 55, 80
5, 45120, Note_on_c, 1, 59, 80
5, 45599, Note_on_c, 1, 50, 0
5, 45599, Note_on_c, 1, 55, 0
5, 45599, Note_on_c, 1, 59, 0
5, 45600, Note_on_c, 1, 50, 80
5, 45600, Note_on_c, 1, 55, 80
5, 45600, Note_on_c, 1, 59, 80
5, 46079, Note_on_c, 1, 50, 0
5, 46079, Note_on_c, 1, 55, 0
5, 46079, Note_on_c, 1, 59, 0
5, 46080, Note_on_c, 1, 50, 80
5, 46080, Note_on_c, 1, 57, 80
5, 46080, Note_on_c, 1, 59, 80
5, 46559, Note_on_c, 1, 50, 0
5, 46559, Note_on_c, 1, 57, 0
5, 46559, Note_on_c, 1, 59, 0
5, 46560, Note_on_c, 1, 50, 80
5, 46560, Note_on_c, 1, 57, 80
5, 46560, Note_on_c, 1, 59, 80
5, 47039, Note_on_c, 1, 50, 0
5, 47039, Note_on_c, 1, 57, 0
5, 47039, Note_on_c, 1, 59, 0
5, 47040, Note_on_c, 1, 52, 80
5, 47040, Note_on_c, 1, 55, 80
5, 47040, Note_on_c, 1, 59, 80
5, 47519, Note_on_c, 1, 52, 0
5, 47519, Note_on_c, 1, 55, 0
5, 47519, Note_on_c, 1, 59, 0
5, 47520, Note_on_c, 1, 52, 80
5, 47520, Note_on_c, 1, 55, 80
5, 47520, Note_on_c, 1, 59, 80
5, 47999, Note_on_c, 1, 52, 0
5, 47999, Note_on_c, 1, 55, 0
5, 47999, Note_on_c, 1, 59, 0
5, 48000, Note_on_c, 1, 50, 80
5, 48000, Note_on_c, 1, 53, 80
5, 48000, Note_on_c, 1, 59, 80
5, 48479, Note_on_c, 1, 50, 0
5, 48479, Note_on_c, 1, 53, 0
5, 48479, Note_on_c, 1, 59, 0
5, 48480, Note_on_c, 1, 50, 80
5, 48480, Note_on_c, 1, 53, 80
5, 48480, Note_on_c, 1, 59, 80
5, 48959, Note_on_c, 1, 50, 0
5, 48959, Note_on_c, 1, 53, 0
5, 48959, Note_on_c, 1, 59, 0
5, 48960, Note_on_c, 1, 50, 80
5, 48960, Note_on_c, 1, 53, 80
5, 48960, Note_on_c, 1, 60, 80
5, 49439, Note_on_c, 1, 50, 0
5, 49439, Note_on_c, 1, 53, 0
5, 49439, Note_on_c, 1, 60, 0
5, 49440, Note_on_c, 1, 50, 80
5, 49440, Note_on_c, 1, 53, 80
5, 49440, Note_on_c, 1, 60, 80
5, 49919, Note_on_c, 1, 50, 0
5, 49919, Note_on_c, 1, 53, 0
5, 49919, Note_on_c, 1, 60, 0
5, 49920, Note_on_c, 1, 52, 80
5, 49920, Note_on_c, 1, 55, 80
5, 49920, Note_on_c, 1, 59, 80
5, 50399, Note_on_c, 1, 52, 0
5, 50399, Note_on_c, 1, 55, 0
5, 50399, Note_on_c, 1, 59, 0
5, 50400, Note_on_c, 1, 52, 80
5, 50400, Note_on_c, 1, 55, 80
5, 50400, Note_on_c, 1, 59, 80
5, 50879, Note_on_c, 1, 52, 0
5, 50879, Note_on_c, 1, 55, 0
5, 50879, Note_on_c, 1, 59, 0
5, 50880, Note_on_c, 1, 48, 80
5, 50880, Note_on_c, 1, 52, 80
5, 50880, Note_on_c, 1, 57, 80
5, 51359, Note_on_c, 1, 48, 0
5, 51359, Note_on_c, 1, 52, 0
5, 51359, Note_on_c, 1, 57, 0
5, 51360, Note_on_c, 1, 48, 80
5, 51360, Note_on_c, 1, 52, 80
5, 51360, Note_on_c, 1, 57, 80
5, 51839, Note_on_c, 1, 48, 0
5, 51839, Note_on_c, 1, 52, 0
5, 51839, Note_on_c, 1, 57, 0
5, 51840, Note_on_c, 1, 48, 80
5, 51840, Note_on_c, 1, 50, 80
5, 51840, Note_on_c, 1, 53, 80
5, 51840, Note_on_c, 1, 57, 80
5, 52319, Note_on_c, 1, 48, 0
5, 52319, Note_on_c, 1, 50, 0
5, 52319, Note_on_c, 1, 53, 0
5, 52319, Note_on_c, 1, 57, 0
5, 52320, Note_on_c, 1, 48, 80
5, 52320, Note_on_c, 1, 50, 80
5, 52320, Note_on_c, 1, 53, 80
5, 52320, Note_on_c, 1, 57, 80
5, 52799, Note_on_c, 1, 48, 0
5, 52799, Note_on_c, 1, 50, 0
5, 52799, Note_on_c, 1, 53, 0
5, 52799, Note_on_c, 1, 57, 0
5, 52800, Note_on_c, 1, 48, 80
5, 52800, Note_on_c, 1, 50, 80
5, 52800, Note_on_c, 1, 53, 80
5, 52800, Note_on_c, 1, 59, 80
5, 53279, Note_on_c, 1, 48, 0
5, 53279, Note_on_c, 1, 50, 0
5, 53279, Note_on_c, 1, 53, 0
5, 53279, Note_on_c, 1, 59, 0
5, 53280, Note_on_c, 1, 48, 80
5, 53280, Note_on_c, 1, 50, 80
5, 53280, Note_on_c, 1, 53, 80
5, 53280, Note_on_c, 1, 59, 80
5, 53759, Note_on_c, 1, 48, 0
5, 53759, Note_on_c, 1, 50, 0
5, 53759, Note_on_c, 1, 53, 0
5, 53759, Note_on_c, 1, 59, 0
5, 53760, Note_on_c, 1, 48, 80
5, 53760, Note_on_c, 1, 52, 80
5, 53760, Note_on_c, 1, 53, 80
5, 53760, Note_on_c, 1, 57, 80
5, 54239, Note_on_c, 1, 48, 0
5, 54239, Note_on_c, 1, 52, 0
5, 54239, Note_on_c, 1, 53, 0
5, 54239, Note_on_c, 1, 57, 0
5, 54240, Note_on_c, 1, 48, 80
5, 54240, Note_on_c, 1, 52, 80
5, 54240, Note_on_c, 1, 53, 80
5, 54240, Note_on_c, 1, 57, 80
5, 54719, Note_on_c, 1, 48, 0
5, 54719, Note_on_c, 1, 52, 0
5, 54719, Note_on_c, 1, 53, 0
5, 54719, Note_on_c, 1, 57, 0
5, 54720, Note_on_c, 1, 50, 80
5, 54720, Note_on_c, 1, 53, 80
5, 54720, Note_on_c, 1, 59, 80
5, 55199, Note_on_c, 1, 50, 0
5, 55199, Note_on_c, 1, 53, 0
5, 55199, Note_on_c, 1, 59, 0
5, 55200, Note_on_c, 1, 50, 80
5, 55200, Note_on_c, 1, 53, 80
5, 55200, Note_on_c, 1, 59, 80
5, 55679, Note_on_c, 1, 50, 0
5, 55679, Note_on_c, 1, 53, 0
5, 55679, Note_on_c, 1, 59, 0
5, 55680, Note_on_c, 1, 52, 80
5, 55680, Note_on_c, 1, 55, 80
5, 55680, Note_on_c, 1, 60, 80
5, 56159, Note_on_c, 1, 52, 0
5, 56159, Note_on_c, 1, 55, 0
5, 56159, Note_on_c, 1, 60, 0
5, 56160, Note_on_c, 1, 52, 80
5, 56160, Note_on_c, 1, 55, 80
5, 56160, Note_on_c, 1, 60, 80
5, 56639, Note_on_c, 1, 52, 0
5, 56639, Note_on_c, 1, 55, 0
5, 56639, Note_on_c, 1, 60, 0
5, 56640, Note_on_c, 1, 52, 80
5, 56640, Note_on_c, 1, 55, 80
5, 56640, Note_on_c, 1, 60, 80
5, 57119, Note_on_c, 1, 52, 0
5, 57119, Note_on_c, 1, 55, 0
5, 57119, Note_on_c, 1, 60, 0
5, 57120, Note_on_c, 1, 52, 80
5, 57120, Note_on_c, 1, 55, 80
5, 57120, Note_on_c, 1, 60, 80
5, 57599, Note_on_c, 1, 52, 0
5, 57599, Note_on_c, 1, 55, 0
5, 57599, Note_on_c, 1, 60, 0
5, 57600, Note_on_c, 1, 50, 80
5, 57600, Note_on_c, 1, 55, 80
5, 57600, Note_on_c, 1, 59, 80
5, 58079, Note_on_c, 1, 50, 0
5, 58079, Note_on_c, 1, 55, 0
5, 58079, Note_on_c, 1, 59, 0
5, 58080, Note_on_c, 1, 50, 80
5, 58080, Note_on_c, 1, 55, 80
5, 58080, Note_on_c, 1, 59, 80
5, 58559, Note_on_c, 1, 50, 0
5, 58559, Note_on_c, 1, 55, 0
5, 58559, Note_on_c, 1, 59, 0
5, 58560, Note_on_c, 1, 53, 80
5, 58560, Note_on_c, 1, 57, 80
5, 58560, Note_on_c, 1, 60, 80
5, 59039, Note_on_c, 1, 53, 0
5, 59039, Note_on_c, 1, 57, 0
5, 59039, Note_on_c, 1, 60, 0
5, 59040, Note_on_c, 1, 53, 80
5, 59040, Note_on_c, 1, 57, 80
5, 59040, Note_on_c, 1, 60, 80
5, 59519, Note_on_c, 1, 53, 0
5, 59519, Note_on_c, 1, 57, 0
5, 59519, Note_on_c, 1, 60, 0
5, 59520, Note_on_c, 1, 48, 80
5, 59520, Note_on_c, 1, 52, 80
5, 59520, Note_on_c, 1, 53, 80
5, 59520, Note_on_c, 1, 57, 80
5, 59999, Note_on_c, 1, 48, 0
5, 59999, Note_on_c, 1, 52, 0
5, 59999, Note_on_c, 1, 53, 0
5, 59999, Note_on_c, 1, 57, 0
5, 60000, Note_on_c, 1, 48, 80
5, 60000, Note_on_c, 1, 52, 80
5, 60000, Note_on_c, 1, 53, 80
5, 60000, Note_on_c, 1, 57, 80
5, 60479, Note_on_c, 1, 48, 0
5, 60479, Note_on_c, 1, 52, 0
5, 60479, Note_on_c, 1, 53, 0
5, 60479, Note_on_c, 1, 57, 0
5, 60480, Note_on_c, 1, 50, 80
5, 60480, Note_on_c, 1, 53, 80
5, 60480, Note_on_c, 1, 55, 80
5, 60480, Note_on_c, 1, 59, 80
5, 60959, Note_on_c, 1, 50, 0
5, 60959, Note_on_c, 1, 53, 0
5, 60959, Note_on_c, 1, 55, 0
5, 60959, Note_on_c, 1, 59, 0
5, 60960, Note_on_c, 1, 50, 80
5, 60960, Note_on_c, 1, 53, 80
5, 60960, Note_on_c, 1, 55, 80
5, 60960, Note_on_c, 1, 59, 80
5, 61439, Note_on_c, 1, 50, 0
5, 61439, Note_on_c, 1, 53, 0
5, 61439, Note_on_c, 1, 55, 0
5, 61439, Note_on_c, 1, 59, 0
5, 61440, Note_on_c, 1, 52, 80
5, 61440, Note_on_c, 1, 55, 80
5, 61440, Note_on_c, 1, 59, 80
5, 61919, Note_on_c, 1, 52, 0
5, 61919, Note_on_c, 1, 55, 0
5, 61919, Note_on_c, 1, 59, 0
5, 61920, Note_on_c, 1, 52, 80
5, 61920, Note_on_c, 1, 55, 80
5, 61920, Note_on_c, 1, 59, 80
5, 62399, Note_on_c, 1, 52, 0
5, 62399, Note_on_c, 1, 55, 0
5, 62399, Note_on_c, 1, 59, 0
5, 62400, Note_on_c, 1, 53, 80
5, 62400, Note_on_c, 1, 55, 80
5, 62400, Note_on_c, 1, 60, 80
5, 62879, Note_on_c, 1, 53, 0
5, 62879, Note_on_c, 1, 55, 0
5, 62879, Note_on_c, 1, 60, 0
5, 62880, Note_on_c, 1, 53, 80
5, 62880, Note_on_c, 1, 55, 80
5, 62880, Note_on_c, 1, 60, 80
5, 63359, Note_on_c, 1, 53, 0
5, 63359, Note_on_c, 1, 55, 0
5, 63359, Note_on_c, 1, 60, 0
5, 63360, Note_on_c, 1, 53, 80
5, 63360, Note_on_c, 1, 57, 80
5, 63360, Note_on_c, 1, 60, 80
5, 63839, Note_on_c, 1, 53, 0
5, 63839, Note_on_c, 1, 57, 0
5, 63839, Note_on_c, 1, 60, 0
5, 63840, Note_on_c, 1, 53, 80
5, 63840, Note_on_c, 1, 57, 80
5, 63840, Note_on_c, 1, 60, 80
5, 64319, Note_on_c, 1, 53, 0
5, 64319, Note_on_c, 1, 57, 0
5, 64319, Note_on_c, 1, 60, 0
5, 64320, Note_on_c, 1, 53, 80
5, 64320, Note_on_c, 1, 57, 80
5, 64320, Note_on_c, 1, 60, 80
5, 64799, Note_on_c, 1, 53, 0
5, 64799, Note_on_c, 1, 57, 0
5, 64799, Note_on_c, 1, 60, 0
5, 64800, Note_on_c, 1, 53, 80
5, 64800, Note_on_c, 1, 57, 80
5, 64800, Note_on_c, 1, 60, 80
5, 65279, Note_on_c, 1, 53, 0
5, 65279, Note_on_c, 1, 57, 0
5, 65279, Note_on_c, 1, 60, 0
5, 65280, Note_on_c, 1, 48, 80
5, 65280, Note_on_c, 1, 52, 80
5, 65280, Note_on_c, 1, 53, 80
5, 65280, Note_on_c, 1, 57, 80
5, 65759, Note_on_c, 1, 48, 0
5, 65759, Note_on_c, 1, 52, 0
5, 65759, Note_on_c, 1, 53, 0
5, 65759, Note_on_c, 1, 57, 0
5, 65760, Note_on_c, 1, 48, 80
5, 65760, Note_on_c, 1, 52, 80
5, 65760, Note_on_c, 1, 53, 80
5, 65760, Note_on_c, 1, 57, 80
5, 66239, Note_on_c, 1, 48, 0
5, 66239, Note_on_c, 1, 52, 0
5, 66239, Note_on_c, 1, 53, 0
5, 66239, Note_on_c, 1, 57, 0
5, 66240, Note_on_c, 1, 50, 80
5, 66240, Note_on_c, 1, 53, 80
5, 66240, Note_on_c, 1, 59, 80
5, 66719, Note_on_c, 1, 50, 0
5, 66719, Note_on_c, 1, 53, 0
5, 66719, Note_on_c, 1, 59, 0
5, 66720, Note_on_c, 1, 50, 80
5, 66720, Note_on_c, 1, 53, 80
5, 66720, Note_on_c, 1, 59, 80
5, 67199, Note_on_c, 1, 50, 0
5, 67199, Note_on_c, 1, 53, 0
5, 67199, Note_on_c, 1, 59, 0
5, 67200, Note_on_c, 1, 55, 80
5, 67200, Note_on_c, 1, 57, 80
5, 67200, Note_on_c, 1, 60, 80
5, 67679, Note_on_c, 1, 55, 0
5, 67679, Note_on_c, 1, 57, 0
5, 67679, Note_on_c, 1, 60, 0
5, 67680, Note_on_c, 1, 55, 80
5, 67680, Note_on_c, 1, 57, 80
5, 67680, Note_on_c, 1, 60, 80
5, 68159, Note_on_c, 1, 55, 0
5, 68159, Note_on_c, 1, 57, 0
5, 68159, Note_on_c, 1, 60, 0
5, 68160, Note_on_c, 1, 52, 80
5, 68160, Note_on_c, 1, 55, 80
5, 68160, Note_on_c, 1, 57, 80
5, 68639, Note_on_c, 1, 52, 0
5, 68639, Note_on_c, 1, 55, 0
5, 68639, Note_on_c, 1, 57, 0
5, 68640, Note_on_c, 1, 52, 80
5, 68640, Note_on_c, 1, 55, 80
5, 68640, Note_on_c, 1, 57, 80
5, 69119, Note_on_c, 1, 52, 0
5, 69119, Note_on_c, 1, 55, 0
5, 69119, Note_on_c, 1, 57, 0
5, 69120, Note_on_c, 1, 52, 80
5, 69120, Note_on_c, 1, 57, 80
5, 69120, Note_on_c, 1, 60, 80
5, 69599, Note_on_c, 1, 52, 0
5, 69599, Note_on_c, 1, 57, 0
5, 69599, Note_on_c, 1, 60, 0
5, 69600, Note_on_c, 1, 52, 80
5, 69600, Note_on_c, 1, 57, 80
5, 69600, Note_on_c, 1, 60, 80
5, 70079, Note_on_c, 1, 52, 0
5, 70079, Note_on_c, 1, 57, 0
5, 70079, Note_on_c, 1, 60, 0
5, 70080, Note_on_c, 1, 50, 80
5, 70080, Note_on_c, 1, 53, 80
5, 70080, Note_on_c, 1, 59, 80
5, 70559, Note_on_c, 1, 50, 0
5, 70559, Note_on_c, 1, 53, 0
5, 70559, Note_on_c, 1, 59, 0
5, 70560, Note_on_c, 1, 50, 80
5, 70560, Note_on_c, 1, 53, 80
5, 70560, Note_on_c, 1, 59, 80
5, 71039, Note_on_c, 1, 50, 0
5, 71039, Note_on_c, 1, 53, 0
5, 71039, Note_on_c, 1, 59, 0
5, 71040, Note_on_c, 1, 55, 80
5, 71040, Note_on_c, 1, 57, 80
5, 71040, Note_on_c, 1, 60, 80
5, 71519, Note_on_c, 1, 55, 0
5, 71519, Note_on_c, 1, 57, 0
5, 71519, Note_on_c, 1, 60, 0
5, 71520, Note_on_c, 1, 55, 80
5, 71520, Note_on_c, 1, 57, 80
5, 71520, Note_on_c, 1, 60, 80
5, 71999, Note_on_c, 1, 55, 0
5, 71999, Note_on_c, 1, 57, 0
5, 71999, Note_on_c, 1, 60, 0
5, 72000, Note_on_c, 1, 55, 80
5, 72000, Note_on_c, 1, 57, 80
5, 72000, Note_on_c, 1, 60, 80
5, 72479, Note_on_c, 1, 55, 0
5, 72479, Note_on_c, 1, 57, 0
5, 72479, Note_on_c, 1, 60, 0
5, 72480, Note_on_c, 1, 55, 80
5, 72480, Note_on_c, 1, 57, 80
5, 72480, Note_on_c, 1, 60, 80
5, 72959, Note_on_c, 1, 55, 0
5, 72959, Note_on_c, 1, 57, 0
5, 72959, Note_on_c, 1, 60, 0
5, 72960, Note_on_c, 1, 50, 80
5, 72960, Note_on_c, 1, 55, 80
5, 72960, Note_on_c, 1, 59, 80
5, 73439, Note_on_c, 1, 50, 0
5, 73439, Note_on_c, 1, 55, 0
5, 73439, Note_on_c, 1, 59, 0
5, 73440, Note_on_c, 1, 50, 80
5, 73440, Note_on_c, 1, 55, 80
5, 73440, Note_on_c, 1, 59, 80
5, 73919, Note_on_c, 1, 50, 0
5, 73919, Note_on_c, 1, 55, 0
5, 73919, Note_on_c, 1, 59, 0
5, 73920, Note_on_c, 1, 50, 80
5, 73920, Note_on_c, 1, 53, 80
5, 73920, Note_on_c, 1, 59, 80
5, 74399, Note_on_c, 1, 50, 0
5, 74399, Note_on_c, 1, 53, 0
5, 74399, Note_on_c, 1, 59, 0
5, 74400, Note_on_c, 1, 50, 80
5, 74400, Note_on_c, 1, 53, 80
5, 74400, Note_on_c, 1, 59, 80
5, 74879, Note_on_c, 1, 50, 0
5, 74879, Note_on_c, 1, 53, 0
5, 74879, Note_on_c, 1, 59, 0
5, 74880, Note_on_c, 1, 52, 80
5, 74880, Note_on_c, 1, 53, 80
5, 74880, Note_on_c, 1, 57, 80
5, 75359, Note_on_c, 1, 52, 0
5, 75359, Note_on_c, 1, 53, 0
5, 75359, Note_on_c, 1, 57, 0
5, 75360, Note_on_c, 1, 52, 80
5, 75360, Note_on_c, 1, 53, 80
5, 75360, Note_on_c, 1, 57, 80
5, 75839, Note_on_c, 1, 52, 0
5, 75839, Note_on_c, 1, 53, 0
5, 75839, Note_on_c, 1, 57, 0
5, 75840, Note_on_c, 1, 50, 80
5, 75840, Note_on_c, 1, 53, 80
5, 75840, Note_on_c, 1, 55, 80
5, 76319, Note_on_c, 1, 50, 0
5, 76319, Note_on_c, 1, 53, 0
5, 76319, Note_on_c, 1, 55, 0
5, 76320, Note_on_c, 1, 50, 80
5, 76320, Note_on_c, 1, 53, 80
5, 76320, Note_on_c, 1, 55, 80
5, 76799, Note_on_c, 1, 50, 0
5, 76799, Note_on_c, 1, 53, 0
5, 76799, Note_on_c, 1, 55, 0
5, 76800, Note_on_c, 1, 52, 80
5, 76800, Note_on_c, 1, 55, 80
5, 76800, Note_on_c, 1, 59, 80
5, 77279, Note_on_c, 1, 52, 0
5, 77279, Note_on_c, 1, 55, 0
5, 77279, Note_on_c, 1, 59, 0
5, 77280, Note_on_c, 1, 52, 80
5, 77280, Note_on_c, 1, 55, 80
5, 77280, Note_on_c, 1, 59, 80
5, 77759, Note_on_c, 1, 52, 0
5, 77759, Note_on_c, 1, 55, 0
5, 77759, Note_on_c, 1, 59, 0
5, 77760, Note_on_c, 1, 52, 80
5, 77760, Note_on_c, 1, 55, 80
5, 77760, Note_on_c, 1, 59, 80
5, 78239, Note_on_c, 1, 52, 0
5, 78239, Note_on_c, 1, 55, 0
5, 78239, Note_on_c, 1, 59, 0
5, 78240, Note_on_c, 1, 52, 80
5, 78240, Note_on_c, 1, 55, 80
5, 78240, Note_on_c, 1, 59, 80
5, 78719, Note_on_c, 1, 52, 0
5, 78719, Note_on_c, 1, 55, 0
5, 78719, Note_on_c, 1, 59, 0
5, 78720, Note_on_c, 1, 52, 80
5, 78720, Note_on_c, 1, 53, 80
5, 78720, Note_on_c, 1, 57, 80
5, 79199, Note_on_c, 1, 52, 0
5, 79199, Note_on_c, 1, 53, 0
5, 79199, Note_on_c, 1, 57, 0
5, 79200, Note_on_c, 1, 52, 80
5, 79200, Note_on_c, 1, 53, 80
5, 79200, Note_on_c, 1, 57, 80
5, 79679, Note_on_c, 1, 52, 0
5, 79679, Note_on_c, 1, 53, 0
5, 79679, Note_on_c, 1, 57, 0
5, 79680, Note_on_c, 1, 52, 80
5, 79680, Note_on_c, 1, 55, 80
5, 80159, Note_on_c, 1, 52, 0
5, 80159, Note_on_c, 1, 55, 0
5, 80160, Note_on_c, 1, 52, 80
5, 80160, Note_on_c, 1, 55, 80
5, 80639, Note_on_c, 1, 52, 0
5, 80639, Note_on_c, 1, 55, 0
5, 80640, Note_on_c, 1, 52, 80
5, 80640, Note_on_c, 1, 53, 80
5, 80640, Note_on_c, 1, 57, 80
5, 81119, Note_on_c, 1, 52, 0
5, 81119, Note_on_c, 1, 53, 0
5, 81119, Note_on_c, 1, 57, 0
5, 81120, Note_on_c, 1, 52, 80
5, 81120, Note_on_c, 1, 53, 80
5, 81120, Note_on_c, 1, 57, 80
5, 81599, Note_on_c, 1, 52, 0
5, 81599, Note_on_c, 1, 53, 0
5, 81599, Note_on_c, 1, 57, 0
5, 81600, Note_on_c, 1, 50, 80
5, 81600, Note_on_c, 1, 53, 80
5, 82079, Note_on_c, 1, 50, 0
5, 82079, Note_on_c, 1, 53, 0
5, 82080, Note_on_c, 1, 50, 80
5, 82080, Note_on_c, 1, 53, 80
5, 82559, Note_on_c, 1, 50, 0
5, 82559, Note_on_c, 1, 53, 0
5, 82560, Note_on_c, 1, 50, 80
5, 82560, Note_on_c, 1, 57, 80
5, 82560, Note_on_c, 1, 60, 80
5, 83039, Note_on_c, 1, 50, 0
5, 83039, Note_on_c, 1, 57, 0
5, 83039, Note_on_c, 1, 60, 0
5, 83040, Note_on_c, 1, 55, 80
5, 83040, Note_on_c, 1, 57, 80
5, 83040, Note_on_c, 1, 60, 80
5, 83519, Note_on_c, 1, 55, 0
5, 83519, Note_on_c, 1, 57, 0
5, 83519, Note_on_c, 1, 60, 0
5, 83520, Note_on_c, 1, 55, 80
5, 83520, Note_on_c, 1, 57, 80
5, 83520, Note_on_c, 1, 60, 80
5, 83999, Note_on_c, 1, 55, 0
5, 83999, Note_on_c, 1, 57, 0
5, 83999, Note_on_c, 1, 60, 0
5, 84000, Note_on_c, 1, 55, 80
5, 84000, Note_on_c, 1, 57, 80
5, 84000, Note_on_c, 1, 60, 80
5, 84479, Note_on_c, 1, 55, 0
5, 84479, Note_on_c, 1, 57, 0
5, 84479, Note_on_c, 1, 60, 0
5, 84480, Note_on_c, 1, 52, 80
5, 84480, Note_on_c, 1, 57, 80
5, 84480, Note_on_c, 1, 60, 80
5, 84959, Note_on_c, 1, 52, 0
5, 84959, Note_on_c, 1, 57, 0
5, 84959, Note_on_c, 1, 60, 0
5, 84960, Note_on_c, 1, 52, 80
5, 84960, Note_on_c, 1, 57, 80
5, 84960, Note_on_c, 1, 60, 80
5, 85439, Note_on_c, 1, 52, 0
5, 85439, Note_on_c, 1, 57, 0
5, 85439, Note_on_c, 1, 60, 0
5, 85440, Note_on_c, 1, 50, 80
5, 85440, Note_on_c, 1, 53, 80
5, 85440, Note_on_c, 1, 59, 80
5, 85919, Note_on_c, 1, 50, 0
5, 85919, Note_on_c, 1, 53, 0
5, 85919, Note_on_c, 1, 59, 0
5, 85920, Note_on_c, 1, 50, 80
5, 85920, Note_on_c, 1, 53, 80
5, 85920, Note_on_c, 1, 59, 80
5, 86399, Note_on_c, 1, 50, 0
5, 86399, Note_on_c, 1, 53, 0
5, 86399, Note_on_c, 1, 59, 0
5, 86400, Note_on_c, 1, 55, 80
5, 86400, Note_on_c, 1, 57, 80
5, 86400, Note_on_c, 1, 60, 80
5, 86879, Note_on_c, 1, 55, 0
5, 86879, Note_on_c, 1, 57, 0
5, 86879, Note_on_c, 1, 60, 0
5, 86880, Note_on_c, 1, 55, 80
5, 86880, Note_on_c, 1, 57, 80
5, 86880, Note_on_c, 1, 60, 80
5, 87359, Note_on_c, 1, 55, 0
5, 87359, Note_on_c, 1, 57, 0
5, 87359, Note_on_c, 1, 60, 0
5, 87360, Note_on_c, 1, 55, 80
5, 87360, Note_on_c, 1, 57, 80
5, 87360, Note_on_c, 1, 60, 80
5, 87839, Note_on_c, 1, 55, 0
5, 87839, Note_on_c, 1, 57, 0
5, 87839, Note_on_c, 1, 60, 0
5, 87840, Note_on_c, 1, 55, 80
5, 87840, Note_on_c, 1, 57, 80
5, 87840, Note_on_c, 1, 60, 80
5, 88319, Note_on_c, 1, 55, 0
5, 88319, Note_on_c, 1, 57, 0
5, 88319, Note_on_c, 1, 60, 0
5, 88320, Note_on_c, 1, 52, 80
5, 88320, Note_on_c, 1, 55, 80
5, 88320, Note_on_c, 1, 59, 80
5, 88799, Note_on_c, 1, 52, 0
5, 88799, Note_on_c, 1, 55, 0
5, 88799, Note_on_c, 1, 59, 0
5, 88800, Note_on_c, 1, 52, 80
5, 88800, Note_on_c, 1, 55, 80
5, 88800, Note_on_c, 1, 59, 80
5, 89279, Note_on_c, 1, 52, 0
5, 89279, Note_on_c, 1, 55, 0
5, 89279, Note_on_c, 1, 59, 0
5, 89280, Note_on_c, 1, 50, 80
5, 89280, Note_on_c, 1, 53, 80
5, 89280, Note_on_c, 1, 57, 80
5, 89759, Note_on_c, 1, 50, 0
5, 89759, Note_on_c, 1, 53, 0
5, 89759, Note_on_c, 1, 57, 0
5, 89760, Note_on_c, 1, 50, 80
5, 89760, Note_on_c, 1, 53, 80
5, 89760, Note_on_c, 1, 57, 80
5, 90239, Note_on_c, 1, 50, 0
5, 90239, Note_on_c, 1, 53, 0
5, 90239, Note_on_c, 1, 57, 0
5, 90240, Note_on_c, 1, 52, 80
5, 90240, Note_on_c, 1, 53, 80
5, 90240, Note_on_c, 1, 57, 80
5, 90719, Note_on_c, 1, 52, 0
5, 90719, Note_on_c, 1, 53, 0
5, 90719, Note_on_c, 1, 57, 0
5, 90720, Note_on_c, 1, 52, 80
5, 90720, Note_on_c, 1, 53, 80
5, 90720, Note_on_c, 1, 57, 80
5, 91199, Note_on_c, 1, 52, 0
5, 91199, Note_on_c, 1, 53, 0
5, 91199, Note_on_c, 1, 57, 0
5, 91200, Note_on_c, 1, 50, 80
5, 91200, Note_on_c, 1, 53, 80
5, 91200, Note_on_c, 1, 55, 80
5, 91679, Note_on_c, 1, 50, 0
5, 91679, Note_on_c, 1, 53, 0
5, 91679, Note_on_c, 1, 55, 0
5, 91680, Note_on_c, 1, 50, 80
5, 91680, Note_on_c, 1, 53, 80
5, 91680, Note_on_c, 1, 55, 80
5, 92159, Note_on_c, 1, 50, 0
5, 92159, Note_on_c, 1, 53, 0
5, 92159, Note_on_c, 1, 55, 0
5, 92160, Note_on_c, 1, 52, 80
5, 92160, Note_on_c, 1, 55, 80
5, 92160, Note_on_c, 1, 59, 80
5, 92639, Note_on_c, 1, 52, 0
5, 92639, Note_on_c, 1, 55, 0
5, 92639, Note_on_c, 1, 59, 0
5, 92640, Note_on_c, 1, 52, 80
5, 92640, Note_on_c, 1, 55, 80
5, 92640, Note_on_c, 1, 59, 80
5, 93119, Note_on_c, 1, 52, 0
5, 93119, Note_on_c, 1, 55, 0
5, 93119, Note_on_c, 1, 59, 0
5, 93120, Note_on_c, 1, 52, 80
5, 93120, Note_on_c, 1, 55, 80
5, 93120, Note_on_c, 1, 60, 80
5, 93599, Note_on_c, 1, 52, 0
5, 93599, Note_on_c, 1, 55, 0
5, 93599, Note_on_c, 1, 60, 0
5, 93600, Note_on_c, 1, 52, 80
5, 93600, Note_on_c, 1, 55, 80
5, 93600, Note_on_c, 1, 60, 80
5, 94079, Note_on_c, 1, 52, 0
5, 94079, Note_on_c, 1, 55, 0
5, 94079, Note_on_c, 1, 60, 0
5, 94080, Note_on_c, 1, 52, 80
5, 94080, Note_on_c, 1, 53, 80
5, 94080, Note_on_c, 1, 57, 80
5, 94559, Note_on_c, 1, 52, 0
5, 94559, Note_on_c, 1, 53, 0
5, 94559, Note_on_c, 1, 57, 0
5, 94560, Note_on_c, 1, 52, 80
5, 94560, Note_on_c, 1, 53, 80
5, 94560, Note_on_c, 1, 57, 80
5, 95039, Note_on_c, 1, 52, 0
5, 95039, Note_on_c, 1, 53, 0
5, 95039, Note_on_c, 1, 57, 0
5, 95040, Note_on_c, 1, 50, 80
5, 95040, Note_on_c, 1, 55, 80
5, 95040, Note_on_c, 1, 59, 80
5, 95519, Note_on_c, 1, 50, 0
5, 95519, Note_on_c, 1, 55, 0
5, 95519, Note_on_c, 1, 59, 0
5, 95520, Note_on_c, 1, 48, 80
5, 95520, Note_on_c, 1, 57, 80
5, 95999, Note_on_c, 1, 48, 0
5, 95999, Note_on_c, 1, 57, 0
5, 96000, Note_on_c, 1, 52, 80
5, 96000, Note_on_c, 1, 53, 80
5, 96000, Note_on_c, 1, 57, 80
5, 96479, Note_on_c, 1, 52, 0
5, 96479, Note_on_c, 1, 53, 0
5, 96479, Note_on_c, 1, 57, 0
5, 96480, Note_on_c, 1, 52, 80
5, 96480, Note_on_c, 1, 53, 80
5, 96480, Note_on_c, 1, 57, 80
5, 96959, Note_on_c, 1, 52, 0
5, 96959, Note_on_c, 1, 53, 0
5, 96959, Note_on_c, 1, 57, 0
5, 96960, Note_on_c, 1, 50, 80
5, 96960, Note_on_c, 1, 53, 80
5, 97439, Note_on_c, 1, 50, 0
5, 97439, Note_on_c, 1, 53, 0
5, 97440, Note_on_c, 1, 50, 80
5, 97440, Note_on_c, 1, 53, 80
5, 97919, Note_on_c, 1, 50, 0
5, 97919, Note_on_c, 1, 53, 0
5, 97920, Note_on_c, 1, 55, 80
5, 97920, Note_on_c, 1, 57, 80
5, 97920, Note_on_c, 1, 60, 80
5, 98399, Note_on_c, 1, 55, 0
5, 98399, Note_on_c, 1, 57, 0
5, 98399, Note_on_c, 1, 60, 0
5, 98400, Note_on_c, 1, 55, 80
5, 98400, Note_on_c, 1, 57, 80
5, 98400, Note_on_c, 1, 60, 80
5, 98879, Note_on_c, 1, 55, 0
5, 98879, Note_on_c, 1, 57, 0
5, 98879, Note_on_c, 1, 60, 0
5, 98880, Note_on_c, 1, 55, 80
5, 98880, Note_on_c, 1, 57, 80
5, 98880, Note_on_c, 1, 60, 80
5, 99359, Note_on_c, 1, 55, 0
5, 99359, Note_on_c, 1, 57, 0
5, 99359, Note_on_c, 1, 60, 0
5, 99360, Note_on_c, 1, 55, 80
5, 99360, Note_on_c, 1, 57, 80
5, 99360, Note_on_c, 1, 60, 80
5, 99839, Note_on_c, 1, 55, 0
5, 99839, Note_on_c, 1, 57, 0
5, 99839, Note_on_c, 1, 60, 0
5, 99840, Note_on_c, 1, 50, 80
5, 99840, Note_on_c, 1, 57, 80
5, 100319, Note_on_c, 1, 50, 0
5, 100319, Note_on_c, 1, 57, 0
5, 100320, Note_on_c, 1, 50, 80
5, 100320, Note_on_c, 1, 57, 80
5, 100799, Note_on_c, 1, 50, 0
5, 100799, Note_on_c, 1, 57, 0
5, 100800, Note_on_c, 1, 52, 80
5, 100800, Note_on_c, 1, 55, 80
5, 100800, Note_on_c, 1, 59, 80
5, 101279, Note_on_c, 1, 52, 0
5, 101279, Note_on_c, 1, 55, 0
5, 101279, Note_on_c, 1, 59, 0
5, 101280, Note_on_c, 1, 52, 80
5, 101280, Note_on_c, 1, 55, 80
5, 101280, Note_on_c, 1, 59, 80
5, 101759, Note_on_c, 1, 52, 0
5, 101759, Note_on_c, 1, 55, 0
5, 101759, Note_on_c, 1, 59, 0
5, 101760, Note_on_c, 1, 50, 80
5, 101760, Note_on_c, 1, 53, 80
5, 101760, Note_on_c, 1, 57, 80
5, 102239, Note_on_c, 1, 50, 0
5, 102239, Note_on_c, 1, 53, 0
5, 102239, Note_on_c, 1, 57, 0
5, 102240, Note_on_c, 1, 50, 80
5, 102240, Note_on_c, 1, 53, 80
5, 102240, Note_on_c, 1, 57, 80
5, 102719, Note_on_c, 1, 50, 0
5, 102719, Note_on_c, 1, 53, 0
5, 102719, Note_on_c, 1, 57, 0
5, 102720, Note_on_c, 1, 50, 80
5, 102720, Note_on_c, 1, 53, 80
5, 102720, Note_on_c, 1, 60, 80
5, 103199, Note_on_c, 1, 50, 0
5, 103199, Note_on_c, 1, 53, 0
5, 103199, Note_on_c, 1, 60, 0
5, 103200, Note_on_c, 1, 50, 80
5, 103200, Note_on_c, 1, 53, 80
5, 103200, Note_on_c, 1, 60, 80
5, 103679, Note_on_c, 1, 50, 0
5, 103679, Note_on_c, 1, 53, 0
5, 103679, Note_on_c, 1, 60, 0
5, 103680, Note_on_c, 1, 52, 80
5, 103680, Note_on_c, 1, 55, 80
5, 103680, Note_on_c, 1, 57, 80
5, 104159, Note_on_c, 1, 52, 0
5, 104159, Note_on_c, 1, 55, 0
5, 104159, Note_on_c, 1, 57, 0
5, 104160, Note_on_c, 1, 52, 80
5, 104160, Note_on_c, 1, 55, 80
5, 104160, Note_on_c, 1, 57, 80
5, 104639, Note_on_c, 1, 52, 0
5, 104639, Note_on_c, 1, 55, 0
5, 104639, Note_on_c, 1, 57, 0
5, 104640, Note_on_c, 1, 48, 80
5, 104640, Note_on_c, 1, 52, 80
5, 104640, Note_on_c, 1, 57, 80
5, 105119, Note_on_c, 1, 48, 0
5, 105119, Note_on_c, 1, 52, 0
5, 105119, Note_on_c, 1, 57, 0
5, 105120, Note_on_c, 1, 48, 80
5, 105120, Note_on_c, 1, 52, 80
5, 105120, Note_on_c, 1, 57, 80
5, 105599, Note_on_c, 1, 48, 0
5, 105599, Note_on_c, 1, 52, 0
5, 105599, Note_on_c, 1, 57, 0
5, 105600, Note_on_c, 1, 50, 80
5, 105600, Note_on_c, 1, 57, 80
5, 106079, Note_on_c, 1, 50, 0
5, 106079, Note_on_c, 1, 57, 0
5, 106080, Note_on_c, 1, 50, 80
5, 106080, Note_on_c, 1, 57, 80
5, 106559, Note_on_c, 1, 50, 0
5, 106559, Note_on_c, 1, 57, 0
5, 106560, Note_on_c, 1, 50, 80
5, 106560, Note_on_c, 1, 55, 80
5, 107039, Note_on_c, 1, 50, 0
5, 107039, Note_on_c, 1, 55, 0
5, 107040, Note_on_c, 1, 50, 80
5, 107040, Note_on_c, 1, 55, 80
5, 107519, Note_on_c, 1, 50, 0
5, 107519, Note_on_c, 1, 55, 0
5, 107520, Note_on_c, 1, 50, 80
5, 107520, Note_on_c, 1, 57, 80
5, 107999, Note_on_c, 1, 50, 0
5, 107999, Note_on_c, 1, 57, 0
5, 108000, Note_on_c, 1, 50, 80
5, 108000, Note_on_c, 1, 57, 80
5, 108479, Note_on_c, 1, 50, 0
5, 108479, Note_on_c, 1, 57, 0
5, 108480, Note_on_c, 1, 48, 80
5, 108480, Note_on_c, 1, 52, 80
5, 108480, Note_on_c, 1, 55, 80
5, 108959, Note_on_c, 1, 48, 0
5, 108959, Note_on_c, 1, 52, 0
5, 108959, Note_on_c, 1, 55, 0
5, 108960, Note_on_c, 1, 48, 80
5, 108960, Note_on_c, 1, 52, 80
5, 108960, Note_on_c, 1, 55, 80
5, 109439, Note_on_c, 1, 48, 0
5, 109439, Note_on_c, 1, 52, 0
5, 109439, Note_on_c, 1, 55, 0
5, 109440, Note_on_c, 1, 50, 80
5, 109440, Note_on_c, 1, 53, 80
5, 109440, Note_on_c, 1, 57, 80
5, 109919, Note_on_c, 1, 50, 0
5, 109919, Note_on_c, 1, 53, 0
5, 109919, Note_on_c, 1, 57, 0
5, 109920, Note_on_c, 1, 50, 80
5, 109920, Note_on_c, 1, 53, 80
5, 109920, Note_on_c, 1, 57, 80
5, 110399, Note_on_c, 1, 50, 0
5, 110399, Note_on_c, 1, 53, 0
5, 110399, Note_on_c, 1, 57, 0
5, 110400, Note_on_c, 1, 50, 80
5, 110400, Note_on_c, 1, 53, 80
5, 110400, Note_on_c, 1, 60, 80
5, 110879, Note_on_c, 1, 50, 0
5, 110879, Note_on_c, 1, 53, 0
5, 110879, Note_on_c, 1, 60, 0
5, 110880, Note_on_c, 1, 50, 80
5, 110880, Note_on_c, 1, 53, 80
5, 110880, Note_on_c, 1, 60, 80
5, 111359, Note_on_c, 1, 50, 0
5, 111359, Note_on_c, 1, 53, 0
5, 111359, Note_on_c, 1, 60, 0
5, 111360, Note_on_c, 1, 52, 80
5, 111360, Note_on_c, 1, 55, 80
5, 111360, Note_on_c, 1, 59, 80
5, 111839, Note_on_c, 1, 52, 0
5, 111839, Note_on_c, 1, 55, 0
5, 111839, Note_on_c, 1, 59, 0
5, 111840, Note_on_c, 1, 52, 80
5, 111840, Note_on_c, 1, 55, 80
5, 111840, Note_on_c, 1, 59, 80
5, 112319, Note_on_c, 1, 52, 0
5, 112319, Note_on_c, 1, 55, 0
5, 112319, Note_on_c, 1, 59, 0
5, 112320, Note_on_c, 1, 48, 80
5, 112320, Note_on_c, 1, 52, 80
5, 112320, Note_on_c, 1, 57, 80
5, 112799, Note_on_c, 1, 48, 0
5, 112799, Note_on_c, 1, 52, 0
5, 112799, Note_on_c, 1, 57, 0
5, 112800, Note_on_c, 1, 48, 80
5, 112800, Note_on_c, 1, 52, 80
5, 112800, Note_on_c, 1, 57, 80
5, 113279, Note_on_c, 1, 48, 0
5, 113279, Note_on_c, 1, 52, 0
5, 113279, Note_on_c, 1, 57, 0
5, 113280, Note_on_c, 1, 50, 80
5, 113280, Note_on_c, 1, 53, 80
5, 113280, Note_on_c, 1, 57, 80
5, 113759, Note_on_c, 1, 50, 0
5, 113759, Note_on_c, 1, 53, 0
5, 113759, Note_on_c, 1, 57, 0
5, 113760, Note_on_c, 1, 50, 80
5, 113760, Note_on_c, 1, 53, 80
5, 113760, Note_on_c, 1, 57, 80
5, 114239, Note_on_c, 1, 50, 0
5, 114239, Note_on_c, 1, 53, 0
5, 114239, Note_on_c, 1, 57, 0
5, 114240, Note_on_c, 1, 50, 80
5, 114240, Note_on_c, 1, 53, 80
5, 114240, Note_on_c, 1, 59, 80
5, 114719, Note_on_c, 1, 50, 0
5, 114719, Note_on_c, 1, 53, 0
5, 114719, Note_on_c, 1, 59, 0
5, 114720, Note_on_c, 1, 50, 80
5, 114720, Note_on_c, 1, 53, 80
5, 114720, Note_on_c, 1, 59, 80
5, 115199, Note_on_c, 1, 50, 0
5, 115199, Note_on_c, 1, 53, 0
5, 115199, Note_on_c, 1, 59, 0
5, 115200, Note_on_c, 1, 48, 80
5, 115200, Note_on_c, 1, 52, 80
5, 115200, Note_on_c, 1, 57, 80
5, 115679, Note_on_c, 1, 48, 0
5, 115679, Note_on_c, 1, 52, 0
5, 115679, Note_on_c, 1, 57, 0
5, 115680, Note_on_c, 1, 48, 80
5, 115680, Note_on_c, 1, 52, 80
5, 115680, Note_on_c, 1, 57, 80
5, 116159, Note_on_c, 1, 48, 0
5, 116159, Note_on_c, 1, 52, 0
5, 116159, Note_on_c, 1, 57, 0
5, 116160, Note_on_c, 1, 50, 80
5, 116160, Note_on_c, 1, 53, 80
5, 116160, Note_on_c, 1, 59, 80
5, 116639, Note_on_c, 1, 50, 0
5, 116639, Note_on_c, 1, 53, 0
5, 116639, Note_on_c, 1, 59, 0
5, 116640, Note_on_c, 1, 50, 80
5, 116640, Note_on_c, 1, 53, 80
5, 116640, Note_on_c, 1, 59, 80
5, 117119, Note_on_c, 1, 50, 0
5, 117119, Note_on_c, 1, 53, 0
5, 117119, Note_on_c, 1, 59, 0
5, 117120, Note_on_c, 1, 50, 80
5, 117120, Note_on_c, 1, 52, 80
5, 117120, Note_on_c, 1, 57, 80
5, 117599, Note_on_c, 1, 50, 0
5, 117599, Note_on_c, 1, 52, 0
5, 117599, Note_on_c, 1, 57, 0
5, 117600, Note_on_c, 1, 50, 80
5, 117600, Note_on_c, 1, 52, 80
5, 117600, Note_on_c, 1, 57, 80
5, 118079, Note_on_c, 1, 50, 0
5, 118079, Note_on_c, 1, 52, 0
5, 118079, Note_on_c, 1, 57, 0
5, 118080, Note_on_c, 1, 50, 80
5, 118080, Note_on_c, 1, 52, 80
5, 118080, Note_on_c, 1, 57, 80
5, 118559, Note_on_c, 1, 50, 0
5, 118559, Note_on_c, 1, 52, 0
5, 118559, Note_on_c, 1, 57, 0
5, 118560, Note_on_c, 1, 50, 80
5, 118560, Note_on_c, 1, 52, 80
5, 118560, Note_on_c, 1, 57, 80
5, 119039, Note_on_c, 1, 50, 0
5, 119039, Note_on_c, 1, 52, 0
5, 119039, Note_on_c, 1, 57, 0
5, 119040, Note_on_c, 1, 50, 80
5, 119040, Note_on_c, 1, 55, 80
5, 119040, Note_on_c, 1, 59, 80
5, 119519, Note_on_c, 1, 50, 0
5, 119519, Note_on_c, 1, 55, 0
5, 119519, Note_on_c, 1, 59, 0
5, 119520, Note_on_c, 1, 50, 80
5, 119520, Note_on_c, 1, 55, 80
5, 119520, Note_on_c, 1, 59, 80
5, 119999, Note_on_c, 1, 50, 0
5, 119999, Note_on_c, 1, 55, 0
5, 119999, Note_on_c, 1, 59, 0
5, 120000, Note_on_c, 1, 48, 80
5, 120000, Note_on_c, 1, 53, 80
5, 120000, Note_on_c, 1, 57, 80
5, 120479, Note_on_c, 1, 48, 0
5, 120479, Note_on_c, 1, 53, 0
5, 120479, Note_on_c, 1, 57, 0
5, 120480, Note_on_c, 1, 48, 80
5, 120480, Note_on_c, 1, 53, 80
5, 120480, Note_on_c, 1, 57, 80
5, 120959, Note_on_c, 1, 48, 0
5, 120959, Note_on_c, 1, 53, 0
5, 120959, Note_on_c, 1, 57, 0
5, 120960, Note_on_c, 1, 48, 80
5, 120960, Note_on_c, 1, 52, 80
5, 120960, Note_on_c, 1, 57, 80
5, 121439, Note_on_c, 1, 48, 0
5, 121439, Note_on_c, 1, 52, 0
5, 121439, Note_on_c, 1, 57, 0
5, 121440, Note_on_c, 1, 48, 80
5, 121440, Note_on_c, 1, 52, 80
5, 121440, Note_on_c, 1, 57, 80
5, 121919, Note_on_c, 1, 48, 0
5, 121919, Note_on_c, 1, 52, 0
5, 121919, Note_on_c, 1, 57, 0
5, 121920, Note_on_c, 1, 50, 80
5, 121920, Note_on_c, 1, 53, 80
5, 121920, Note_on_c, 1, 55, 80
5, 122399, Note_on_c, 1, 50, 0
5, 122399, Note_on_c, 1, 53, 0
5, 122399, Note_on_c, 1, 55, 0
5, 122400, Note_on_c, 1, 50, 80
5, 122400, Note_on_c, 1, 53, 80
5, 122400, Note_on_c, 1, 55, 80
5, 122879, Note_on_c, 1, 50, 0
5, 122879, Note_on_c, 1, 53, 0
5, 122879, Note_on_c, 1, 55, 0
5, 122880, Note_on_c, 1, 50, 80
5, 122880, Note_on_c, 1, 55, 80
5, 122880, Note_on_c, 1, 59, 80
5, 123359, Note_on_c, 1, 50, 0
5, 123359, Note_on_c, 1, 55, 0
5, 123359, Note_on_c, 1, 59, 0
5, 123360, Note_on_c, 1, 50, 80
5, 123360, Note_on_c, 1, 55, 80
5, 123360, Note_on_c, 1, 59, 80
5, 123839, Note_on_c, 1, 50, 0
5, 123839, Note_on_c, 1, 55, 0
5, 123839, Note_on_c, 1, 59, 0
5, 123840, Note_on_c, 1, 53, 80
5, 123840, Note_on_c, 1, 55, 80
5, 123840, Note_on_c, 1, 60, 80
5, 124319, Note_on_c, 1, 53, 0
5, 124319, Note_on_c, 1, 55, 0
5, 124319, Note_on_c, 1, 60, 0
5, 124320, Note_on_c, 1, 53, 80
5, 124320, Note_on_c, 1, 55, 80
5, 124320, Note_on_c, 1, 60, 80
5, 124799, Note_on_c, 1, 53, 0
5, 124799, Note_on_c, 1, 55, 0
5, 124799, Note_on_c, 1, 60, 0
5, 124800, Note_on_c, 1, 52, 80
5, 124800, Note_on_c, 1, 53, 80
5, 124800, Note_on_c, 1, 57, 80
5, 125279, Note_on_c, 1, 52, 0
5, 125279, Note_on_c, 1, 53, 0
5, 125279, Note_on_c, 1, 57, 0
5, 125280, Note_on_c, 1, 52, 80
5, 125280, Note_on_c, 1, 53, 80
5, 125280, Note_on_c, 1, 57, 80
5, 125759, Note_on_c, 1, 52, 0
5, 125759, Note_on_c, 1, 53, 0
5, 125759, Note_on_c, 1, 57, 0
5, 125760, Note_on_c, 1, 52, 80
5, 125760, Note_on_c, 1, 53, 80
5, 125760, Note_on_c, 1, 57, 80
5, 126239, Note_on_c, 1, 52, 0
5, 126239, Note_on_c, 1, 53, 0
5, 126239, Note_on_c, 1, 57, 0
5, 126240, Note_on_c, 1, 52, 80
5, 126240, Note_on_c, 1, 53, 80
5, 126240, Note_on_c, 1, 57, 80
5, 126719, Note_on_c, 1, 52, 0
5, 126719, Note_on_c, 1, 53, 0
5, 126719, Note_on_c, 1, 57, 0
5, 126720, Note_on_c, 1, 52, 80
5, 126720, Note_on_c, 1, 53, 80
5, 126720, Note_on_c, 1, 57, 80
5, 127199, Note_on_c, 1, 52, 0
5, 127199, Note_on_c, 1, 53, 0
5, 127199, Note_on_c, 1, 57, 0
5, 127200, Note_on_c, 1, 52, 80
5, 127200, Note_on_c, 1, 53, 80
5, 127200, Note_on_c, 1, 57, 80
5, 127679, Note_on_c, 1, 52, 0
5, 127679, Note_on_c, 1, 53, 0
5, 127679, Note_on_c, 1, 57, 0
5, 127680, Note_on_c, 1, 50, 80
5, 127680, Note_on_c, 1, 53, 80
5, 128159, Note_on_c, 1, 50, 0
5, 128159, Note_on_c, 1, 53, 0
5, 128160, Note_on_c, 1, 50, 80
5, 128160, Note_on_c, 1, 53, 80
5, 128639, Note_on_c, 1, 50, 0
5, 128639, Note_on_c, 1, 53, 0
5, 128640, Note_on_c, 1, 50, 80
5, 128640, Note_on_c, 1, 52, 80
5, 128640, Note_on_c, 1, 57, 80
5, 129119, Note_on_c, 1, 50, 0
5, 129119, Note_on_c, 1, 52, 0
5, 129119, Note_on_c, 1, 57, 0
5, 129120, Note_on_c, 1, 50, 80
5, 129120, Note_on_c, 1, 52, 80
5, 129120, Note_on_c, 1, 57, 80
5, 129599, Note_on_c, 1, 50, 0
5, 129599, Note_on_c, 1, 52, 0
5, 129599, Note_on_c, 1, 57, 0
5, 129600, Note_on_c, 1, 52, 80
5, 129600, Note_on_c, 1, 55, 80
5, 129600, Note_on_c, 1, 57, 80
5, 130079, Note_on_c, 1, 52, 0
5, 130079, Note_on_c, 1, 55, 0
5, 130079, Note_on_c, 1, 57, 0
5, 130080, Note_on_c, 1, 52, 80
5, 130080, Note_on_c, 1, 55, 80
5, 130080, Note_on_c, 1, 57, 80
5, 130559, Note_on_c, 1, 52, 0
5, 130559, Note_on_c, 1, 55, 0
5, 130559, Note_on_c, 1, 57, 0
5, 130560, Note_on_c, 1, 52, 80
5, 130560, Note_on_c, 1, 53, 80
5, 130560, Note_on_c, 1, 57, 80
5, 131039, Note_on_c, 1, 52, 0
5, 131039, Note_on_c, 1, 53, 0
5, 131039, Note_on_c, 1, 57, 0
5, 131040, Note_on_c, 1, 52, 80
5, 131040, Note_on_c, 1, 53, 80
5, 131040, Note_on_c, 1, 57, 80
5, 131519, Note_on_c, 1, 52, 0
5, 131519, Note_on_c, 1, 53, 0
5, 131519, Note_on_c, 1, 57, 0
5, 131520, Note_on_c, 1, 52, 80
5, 131520, Note_on_c, 1, 53, 80
5, 131520, Note_on_c, 1, 57, 80
5, 131999, Note_on_c, 1, 52, 0
5, 131999, Note_on_c, 1, 53, 0
5, 131999, Note_on_c, 1, 57, 0
5, 132000, Note_on_c, 1, 52, 80
5, 132000, Note_on_c, 1, 53, 80
5, 132000, Note_on_c, 1, 57, 80
5, 132479, Note_on_c, 1, 52, 0
5, 132479, Note_on_c, 1, 53, 0
5, 132479, Note_on_c, 1, 57, 0
5, 132480, Note_on_c, 1, 50, 80
5, 132480, Note_on_c, 1, 53, 80
5, 132480, Note_on_c, 1, 55, 80
5, 132959, Note_on_c, 1, 50, 0
5, 132959, Note_on_c, 1, 53, 0
5, 132959, Note_on_c, 1, 55, 0
5, 132960, Note_on_c, 1, 50, 80
5, 132960, Note_on_c, 1, 53, 80
5, 132960, Note_on_c, 1, 55, 80
5, 133439, Note_on_c, 1, 50, 0
5, 133439, Note_on_c, 1, 53, 0
5, 133439, Note_on_c, 1, 55, 0
5, 133440, Note_on_c, 1, 50, 80
5, 133440, Note_on_c, 1, 53, 80
5, 133440, Note_on_c, 1, 55, 80
5, 133919, Note_on_c, 1, 50, 0
5, 133919, Note_on_c, 1, 53, 0
5, 133919, Note_on_c, 1, 55, 0
5, 133920, Note_on_c, 1, 50, 80
5, 133920, Note_on_c, 1, 53, 80
5, 133920, Note_on_c, 1, 55, 80
5, 134399, Note_on_c, 1, 50, 0
5, 134399, Note_on_c, 1, 53, 0
5, 134399, Note_on_c, 1, 55, 0
5, 134400, Note_on_c, 1, 48, 80
5, 134400, Note_on_c, 1, 52, 80
5, 134400, Note_on_c, 1, 55, 80
5, 134879, Note_on_c, 1, 48, 0
5, 134879, Note_on_c, 1, 52, 0
5, 134879, Note_on_c, 1, 55, 0
5, 134880, Note_on_c, 1, 48, 80
5, 134880, Note_on_c, 1, 52, 80
5, 134880, Note_on_c, 1, 55, 80
5, 135359, Note_on_c, 1, 48, 0
5, 135359, Note_on_c, 1, 52, 0
5, 135359, Note_on_c, 1, 55, 0
5, 135360, Note_on_c, 1, 48, 80
5, 135360, Note_on_c, 1, 52, 80
5, 135360, Note_on_c, 1, 55, 80
5, 135839, Note_on_c, 1, 48, 0
5, 135839, Note_on_c, 1, 52, 0
5, 135839, Note_on_c, 1, 55, 0
5, 135840, Note_on_c, 1, 48, 80
5, 135840, Note_on_c, 1, 52, 80
5, 135840, Note_on_c, 1, 55, 80
5, 136319, Note_on_c, 1, 48, 0
5, 136319, Note_on_c, 1, 52, 0
5, 136319, Note_on_c, 1, 55, 0
5, 136320, Note_on_c, 1, 48, 80
5, 136320, Note_on_c, 1, 52, 80
5, 136320, Note_on_c, 1, 57, 80
5, 136799, Note_on_c, 1, 48, 0
5, 136799, Note_on_c, 1, 52, 0
5, 136799, Note_on_c, 1, 57, 0
5, 136800, Note_on_c, 1, 48, 80
5, 136800, Note_on_c, 1, 52, 80
5, 136800, Note_on_c, 1, 57, 80
5, 137279, Note_on_c, 1, 48, 0
5, 137279, Note_on_c, 1, 52, 0
5, 137279, Note_on_c, 1, 57, 0
5, 137280, Note_on_c, 1, 52, 80
5, 137280, Note_on_c, 1, 55, 80
5, 137280, Note_on_c, 1, 60, 80
5, 137759, Note_on_c, 1, 52, 0
5, 137759, Note_on_c, 1, 55, 0
5, 137759, Note_on_c, 1, 60, 0
5, 137760, Note_on_c, 1, 52, 80
5, 137760, Note_on_c, 1, 55, 80
5, 137760, Note_on_c, 1, 60, 80
5, 138239, Note_on_c, 1, 52, 0
5, 138239, Note_on_c, 1, 55, 0
5, 138239, Note_on_c, 1, 60, 0
5, 138240, Note_on_c, 1, 48, 80
5, 138240, Note_on_c, 1, 52, 80
5, 138240, Note_on_c, 1, 55, 80
5, 138719, Note_on_c, 1, 48, 0
5, 138719, Note_on_c, 1, 52, 0
5, 138719, Note_on_c, 1, 55, 0
5, 141600, Note_on_c, 1, 50, 80
5, 141600, Note_on_c, 1, 55, 80
5, 141600, Note_on_c, 1, 60, 80
5, 143999, Note_on_c, 1, 50, 0
5, 143999, Note_on_c, 1, 55, 0
5, 143999, Note_on_c, 1, 60, 0
5, 144000, End_track
0, 0, End_of_file
