0, 0, Header, 1, 3, 480
1, 0, Start_track
1, 0, Title_t, "Piano, Piano, Piano\000"
1, 0, Time_signature, 4, 2, 24, 8
1, 0, Key_signature, 0, "major"
1, 0, Tempo, 750000
1, 0, Control_c, 0, 121, 0
1, 0, Program_c, 0, 0
1, 0, Control_c, 0, 7, 100
1, 0, Control_c, 0, 10, 64
1, 0, Control_c, 0, 91, 0
1, 0, Control_c, 0, 93, 0
1, 0, MIDI_port, 0
1, 7560, Note_on_c, 0, 69, 80
1, 7673, Note_on_c, 0, 69, 0
1, 7680, Note_on_c, 0, 64, 80
1, 7907, Note_on_c, 0, 64, 0
1, 7920, Note_on_c, 0, 69, 80
1, 8147, Note_on_c, 0, 69, 0
1, 8160, Note_on_c, 0, 69, 80
1, 8501, Note_on_c, 0, 69, 0
1, 8520, Note_on_c, 0, 71, 80
1, 8633, Note_on_c, 0, 71, 0
1, 8640, Note_on_c, 0, 72, 80
1, 8753, Note_on_c, 0, 72, 0
1, 8760, Note_on_c, 0, 72, 80
1, 8873, Note_on_c, 0, 72, 0
1, 8880, Note_on_c, 0, 69, 80
1, 8993, Note_on_c, 0, 69, 0
1, 9000, Note_on_c, 0, 69, 80
1, 9113, Note_on_c, 0, 69, 0
1, 9120, Note_on_c, 0, 69, 80
1, 9347, Note_on_c, 0, 69, 0
1, 9360, Note_on_c, 0, 69, 80
1, 9473, Note_on_c, 0, 69, 0
1, 9480, Note_on_c, 0, 72, 80
1, 9593, Note_on_c, 0, 72, 0
1, 9600, Note_on_c, 0, 71, 80
1, 9827, Note_on_c, 0, 71, 0
1, 9840, Note_on_c, 0, 67, 80
1, 10067, Note_on_c, 0, 67, 0
1, 10080, Note_on_c, 0, 67, 80
1, 10307, Note_on_c, 0, 67, 0
1, 10320, Note_on_c, 0, 71, 80
1, 10547, Note_on_c, 0, 71, 0
1, 10560, Note_on_c, 0, 72, 80
1, 10787, Note_on_c, 0, 72, 0
1, 10800, Note_on_c, 0, 69, 80
1, 11027, Note_on_c, 0, 69, 0
1, 11040, Note_on_c, 0, 69, 80
1, 11267, Note_on_c, 0, 69, 0
1, 11280, Note_on_c, 0, 69, 80
1, 11393, Note_on_c, 0, 69, 0
1, 11400, Note_on_c, 0, 69, 80
1, 11513, Note_on_c, 0, 69, 0
1, 11520, Note_on_c, 0, 64, 80
1, 11747, Note_on_c, 0, 64, 0
1, 11760, Note_on_c, 0, 69, 80
1, 11987, Note_on_c, 0, 69, 0
1, 12000, Note_on_c, 0, 69, 80
1, 12341, Note_on_c, 0, 69, 0
1, 12360, Note_on_c, 0, 71, 80
1, 12473, Note_on_c, 0, 71, 0
1, 12480, Note_on_c, 0, 72, 80
1, 12707, Note_on_c, 0, 72, 0
1, 12720, Note_on_c, 0, 69, 80
1, 12833, Note_on_c, 0, 69, 0
1, 12840, Note_on_c, 0, 69, 80
1, 13067, Note_on_c, 0, 69, 0
1, 13080, Note_on_c, 0, 69, 80
1, 13193, Note_on_c, 0, 69, 0
1, 13200, Note_on_c, 0, 69, 80
1, 13313, Note_on_c, 0, 69, 0
1, 13320, Note_on_c, 0, 72, 80
1, 13433, Note_on_c, 0, 72, 0
1, 13440, Note_on_c, 0, 76, 80
1, 13553, Note_on_c, 0, 76, 0
1, 13560, Note_on_c, 0, 76, 80
1, 13673, Note_on_c, 0, 76, 0
1, 13680, Note_on_c, 0, 76, 80
1, 13793, Note_on_c, 0, 76, 0
1, 13800, Note_on_c, 0, 74, 80
1, 13913, Note_on_c, 0, 74, 0
1, 13920, Note_on_c, 0, 72, 80
1, 14033, Note_on_c, 0, 72, 0
1, 14040, Note_on_c, 0, 72, 80
1, 14153, Note_on_c, 0, 72, 0
1, 14160, Note_on_c, 0, 71, 80
1, 14273, Note_on_c, 0, 71, 0
1, 14280, Note_on_c, 0, 71, 80
1, 14393, Note_on_c, 0, 71, 0
1, 14400, Note_on_c, 0, 72, 80
1, 14627, Note_on_c, 0, 72, 0
1, 14640, Note_on_c, 0, 69, 80
1, 14867, Note_on_c, 0, 69, 0
1, 14880, Note_on_c, 0, 69, 80
1, 15107, Note_on_c, 0, 69, 0
1, 15120, Note_on_c, 0, 69, 80
1, 15233, Note_on_c, 0, 69, 0
1, 15240, Note_on_c, 0, 72, 80
1, 15353, Note_on_c, 0, 72, 0
1, 15360, Note_on_c, 0, 76, 80
1, 15587, Note_on_c, 0, 76, 0
1, 15600, Note_on_c, 0, 76, 80
1, 15827, Note_on_c, 0, 76, 0
1, 15840, Note_on_c, 0, 74, 80
1, 16067, Note_on_c, 0, 74, 0
1, 16080, Note_on_c, 0, 72, 80
1, 16307, Note_on_c, 0, 72, 0
1, 16320, Note_on_c, 0, 71, 80
1, 16547, Note_on_c, 0, 71, 0
1, 16560, Note_on_c, 0, 67, 80
1, 16673, Note_on_c, 0, 67, 0
1, 16680, Note_on_c, 0, 67, 80
1, 16907, Note_on_c, 0, 67, 0
1, 16920, Note_on_c, 0, 67, 80
1, 17033, Note_on_c, 0, 67, 0
1, 17040, Note_on_c, 0, 67, 80
1, 17153, Note_on_c, 0, 67, 0
1, 17160, Note_on_c, 0, 71, 80
1, 17273, Note_on_c, 0, 71, 0
1, 17280, Note_on_c, 0, 74, 80
1, 17393, Note_on_c, 0, 74, 0
1, 17400, Note_on_c, 0, 74, 80
1, 17513, Note_on_c, 0, 74, 0
1, 17520, Note_on_c, 0, 74, 80
1, 17633, Note_on_c, 0, 74, 0
1, 17640, Note_on_c, 0, 74, 80
1, 17753, Note_on_c, 0, 74, 0
1, 17760, Note_on_c, 0, 72, 80
1, 17873, Note_on_c, 0, 72, 0
1, 17880, Note_on_c, 0, 72, 80
1, 17993, Note_on_c, 0, 72, 0
1, 18000, Note_on_c, 0, 71, 80
1, 18113, Note_on_c, 0, 71, 0
1, 18120, Note_on_c, 0, 71, 80
1, 18233, Note_on_c, 0, 71, 0
1, 18240, Note_on_c, 0, 72, 80
1, 18467, Note_on_c, 0, 72, 0
1, 18480, Note_on_c, 0, 69, 80
1, 18593, Note_on_c, 0, 69, 0
1, 18600, Note_on_c, 0, 69, 80
1, 19055, Note_on_c, 0, 69, 0
1, 19080, Note_on_c, 0, 72, 80
1, 19193, Note_on_c, 0, 72, 0
1, 19200, Note_on_c, 0, 76, 80
1, 19427, Note_on_c, 0, 76, 0
1, 19440, Note_on_c, 0, 76, 80
1, 19667, Note_on_c, 0, 76, 0
1, 19680, Note_on_c, 0, 74, 80
1, 19907, Note_on_c, 0, 74, 0
1, 19920, Note_on_c, 0, 72, 80
1, 20147, Note_on_c, 0, 72, 0
1, 20160, Note_on_c, 0, 71, 80
1, 20387, Note_on_c, 0, 71, 0
1, 20400, Note_on_c, 0, 67, 80
1, 20627, Note_on_c, 0, 67, 0
1, 20640, Note_on_c, 0, 67, 80
1, 20753, Note_on_c, 0, 67, 0
1, 20760, Note_on_c, 0, 71, 80
1, 20873, Note_on_c, 0, 71, 0
1, 20880, Note_on_c, 0, 71, 80
1, 20993, Note_on_c, 0, 71, 0
1, 21000, Note_on_c, 0, 71, 80
1, 21113, Note_on_c, 0, 71, 0
1, 21120, Note_on_c, 0, 74, 80
1, 21233, Note_on_c, 0, 74, 0
1, 21240, Note_on_c, 0, 74, 80
1, 21353, Note_on_c, 0, 74, 0
1, 21360, Note_on_c, 0, 74, 80
1, 21473, Note_on_c, 0, 74, 0
1, 21480, Note_on_c, 0, 74, 80
1, 21593, Note_on_c, 0, 74, 0
1, 21600, Note_on_c, 0, 72, 80
1, 21713, Note_on_c, 0, 72, 0
1, 21720, Note_on_c, 0, 72, 80
1, 21833, Note_on_c, 0, 72, 0
1, 21840, Note_on_c, 0, 71, 80
1, 21953, Note_on_c, 0, 71, 0
1, 21960, Note_on_c, 0, 71, 80
1, 22073, Note_on_c, 0, 71, 0
1, 22080, Note_on_c, 0, 72, 80
1, 22307, Note_on_c, 0, 72, 0
1, 22320, Note_on_c, 0, 69, 80
1, 22433, Note_on_c, 0, 69, 0
1, 22440, Note_on_c, 0, 69, 80
1, 22895, Note_on_c, 0, 69, 0
1, 22920, Note_on_c, 0, 69, 80
1, 23033, Note_on_c, 0, 69, 0
1, 23040, Note_on_c, 0, 64, 80
1, 23040, Note_on_c, 0, 60, 80
1, 23279, Note_on_c, 0, 64, 0
1, 23280, Note_on_c, 0, 69, 80
1, 23507, Note_on_c, 0, 69, 0
1, 23520, Note_on_c, 0, 69, 80
1, 23747, Note_on_c, 0, 69, 0
1, 23760, Note_on_c, 0, 69, 80
1, 23873, Note_on_c, 0, 69, 0
1, 23880, Note_on_c, 0, 71, 80
1, 23993, Note_on_c, 0, 71, 0
1, 24000, Note_on_c, 0, 72, 80
1, 24227, Note_on_c, 0, 72, 0
1, 24240, Note_on_c, 0, 69, 80
1, 24315, Note_on_c, 0, 69, 0
1, 24320, Note_on_c, 0, 72, 80
1, 24395, Note_on_c, 0, 72, 0
1, 24400, Note_on_c, 0, 71, 80
1, 24475, Note_on_c, 0, 71, 0
1, 24480, Note_on_c, 0, 69, 80
1, 24707, Note_on_c, 0, 69, 0
1, 24720, Note_on_c, 0, 69, 80
1, 24833, Note_on_c, 0, 69, 0
1, 24840, Note_on_c, 0, 72, 80
1, 24863, Note_on_c, 0, 60, 0
1, 24953, Note_on_c, 0, 72, 0
1, 24960, Note_on_c, 0, 71, 80
1, 25187, Note_on_c, 0, 71, 0
1, 25200, Note_on_c, 0, 67, 80
1, 25427, Note_on_c, 0, 67, 0
1, 25440, Note_on_c, 0, 67, 80
1, 25667, Note_on_c, 0, 67, 0
1, 25680, Note_on_c, 0, 67, 80
1, 25793, Note_on_c, 0, 67, 0
1, 25800, Note_on_c, 0, 71, 80
1, 25913, Note_on_c, 0, 71, 0
1, 25920, Note_on_c, 0, 72, 80
1, 26147, Note_on_c, 0, 72, 0
1, 26160, Note_on_c, 0, 69, 80
1, 26387, Note_on_c, 0, 69, 0
1, 26400, Note_on_c, 0, 69, 80
1, 26627, Note_on_c, 0, 69, 0
1, 26640, Note_on_c, 0, 71, 80
1, 26715, Note_on_c, 0, 71, 0
1, 26720, Note_on_c, 0, 69, 80
1, 26795, Note_on_c, 0, 69, 0
1, 26800, Note_on_c, 0, 71, 80
1, 26875, Note_on_c, 0, 71, 0
1, 26880, Note_on_c, 0, 64, 80
1, 27107, Note_on_c, 0, 64, 0
1, 27120, Note_on_c, 0, 69, 80
1, 27347, Note_on_c, 0, 69, 0
1, 27360, Note_on_c, 0, 69, 80
1, 27587, Note_on_c, 0, 69, 0
1, 27600, Note_on_c, 0, 69, 80
1, 27713, Note_on_c, 0, 69, 0
1, 27720, Note_on_c, 0, 71, 80
1, 27833, Note_on_c, 0, 71, 0
1, 27840, Note_on_c, 0, 72, 80
1, 28067, Note_on_c, 0, 72, 0
1, 28080, Note_on_c, 0, 69, 80
1, 28307, Note_on_c, 0, 69, 0
1, 28320, Note_on_c, 0, 69, 80
1, 28547, Note_on_c, 0, 69, 0
1, 28560, Note_on_c, 0, 69, 80
1, 28673, Note_on_c, 0, 69, 0
1, 28680, Note_on_c, 0, 72, 80
1, 28793, Note_on_c, 0, 72, 0
1, 28800, Note_on_c, 0, 76, 80
1, 28920, Note_on_c, 0, 74, 80
1, 29033, Note_on_c, 0, 74, 0
1, 29039, Note_on_c, 0, 76, 0
1, 29040, Note_on_c, 0, 72, 80
1, 29153, Note_on_c, 0, 72, 0
1, 29160, Note_on_c, 0, 71, 80
1, 29273, Note_on_c, 0, 71, 0
1, 29280, Note_on_c, 0, 72, 80
1, 29355, Note_on_c, 0, 72, 0
1, 29360, Note_on_c, 0, 74, 80
1, 29435, Note_on_c, 0, 74, 0
1, 29440, Note_on_c, 0, 72, 80
1, 29515, Note_on_c, 0, 72, 0
1, 29520, Note_on_c, 0, 71, 80
1, 29595, Note_on_c, 0, 71, 0
1, 29600, Note_on_c, 0, 72, 80
1, 29675, Note_on_c, 0, 72, 0
1, 29680, Note_on_c, 0, 71, 80
1, 29755, Note_on_c, 0, 71, 0
1, 29760, Note_on_c, 0, 72, 80
1, 29987, Note_on_c, 0, 72, 0
1, 30000, Note_on_c, 0, 69, 80
1, 30227, Note_on_c, 0, 69, 0
1, 30240, Note_on_c, 0, 69, 80
1, 30467, Note_on_c, 0, 69, 0
1, 30480, Note_on_c, 0, 72, 80
1, 30555, Note_on_c, 0, 72, 0
1, 30560, Note_on_c, 0, 69, 80
1, 30635, Note_on_c, 0, 69, 0
1, 30640, Note_on_c, 0, 72, 80
1, 30715, Note_on_c, 0, 72, 0
1, 30720, Note_on_c, 0, 72, 80
1, 30720, Note_on_c, 0, 76, 80
1, 30947, Note_on_c, 0, 72, 0
1, 30947, Note_on_c, 0, 76, 0
1, 30960, Note_on_c, 0, 72, 80
1, 30960, Note_on_c, 0, 76, 80
1, 31187, Note_on_c, 0, 72, 0
1, 31187, Note_on_c, 0, 76, 0
1, 31200, Note_on_c, 0, 71, 80
1, 31200, Note_on_c, 0, 74, 80
1, 31427, Note_on_c, 0, 71, 0
1, 31427, Note_on_c, 0, 74, 0
1, 31440, Note_on_c, 0, 69, 80
1, 31440, Note_on_c, 0, 72, 80
1, 31667, Note_on_c, 0, 69, 0
1, 31667, Note_on_c, 0, 72, 0
1, 31680, Note_on_c, 0, 67, 80
1, 31680, Note_on_c, 0, 71, 80
1, 31907, Note_on_c, 0, 67, 0
1, 31907, Note_on_c, 0, 71, 0
1, 31920, Note_on_c, 0, 64, 80
1, 31920, Note_on_c, 0, 67, 80
1, 32147, Note_on_c, 0, 64, 0
1, 32147, Note_on_c, 0, 67, 0
1, 32160, Note_on_c, 0, 64, 80
1, 32160, Note_on_c, 0, 67, 80
1, 32399, Note_on_c, 0, 67, 0
1, 32400, Note_on_c, 0, 67, 80
1, 32400, Note_on_c, 0, 71, 80
1, 32615, Note_on_c, 0, 64, 0
1, 32627, Note_on_c, 0, 67, 0
1, 32627, Note_on_c, 0, 71, 0
1, 32640, Note_on_c, 0, 71, 80
1, 32640, Note_on_c, 0, 74, 80
1, 32867, Note_on_c, 0, 71, 0
1, 32867, Note_on_c, 0, 74, 0
1, 32880, Note_on_c, 0, 74, 80
1, 32955, Note_on_c, 0, 74, 0
1, 32960, Note_on_c, 0, 76, 80
1, 33035, Note_on_c, 0, 76, 0
1, 33040, Note_on_c, 0, 74, 80
1, 33115, Note_on_c, 0, 74, 0
1, 33120, Note_on_c, 0, 69, 80
1, 33120, Note_on_c, 0, 72, 80
1, 33347, Note_on_c, 0, 69, 0
1, 33347, Note_on_c, 0, 72, 0
1, 33360, Note_on_c, 0, 67, 80
1, 33360, Note_on_c, 0, 71, 80
1, 33587, Note_on_c, 0, 67, 0
1, 33587, Note_on_c, 0, 71, 0
1, 33600, Note_on_c, 0, 69, 80
1, 33600, Note_on_c, 0, 72, 80
1, 33827, Note_on_c, 0, 69, 0
1, 33827, Note_on_c, 0, 72, 0
1, 33840, Note_on_c, 0, 64, 80
1, 33840, Note_on_c, 0, 69, 80
1, 34067, Note_on_c, 0, 64, 0
1, 34067, Note_on_c, 0, 69, 0
1, 34080, Note_on_c, 0, 64, 80
1, 34080, Note_on_c, 0, 69, 80
1, 34307, Note_on_c, 0, 64, 0
1, 34307, Note_on_c, 0, 69, 0
1, 34320, Note_on_c, 0, 69, 80
1, 34320, Note_on_c, 0, 72, 80
1, 34547, Note_on_c, 0, 69, 0
1, 34547, Note_on_c, 0, 72, 0
1, 34560, Note_on_c, 0, 72, 80
1, 34560, Note_on_c, 0, 76, 80
1, 34787, Note_on_c, 0, 72, 0
1, 34787, Note_on_c, 0, 76, 0
1, 34800, Note_on_c, 0, 72, 80
1, 34800, Note_on_c, 0, 76, 80
1, 35027, Note_on_c, 0, 72, 0
1, 35027, Note_on_c, 0, 76, 0
1, 35040, Note_on_c, 0, 71, 80
1, 35040, Note_on_c, 0, 74, 80
1, 35267, Note_on_c, 0, 71, 0
1, 35267, Note_on_c, 0, 74, 0
1, 35280, Note_on_c, 0, 69, 80
1, 35280, Note_on_c, 0, 72, 80
1, 35507, Note_on_c, 0, 69, 0
1, 35507, Note_on_c, 0, 72, 0
1, 35520, Note_on_c, 0, 67, 80
1, 35520, Note_on_c, 0, 71, 80
1, 35747, Note_on_c, 0, 67, 0
1, 35747, Note_on_c, 0, 71, 0
1, 35760, Note_on_c, 0, 64, 80
1, 35760, Note_on_c, 0, 67, 80
1, 35987, Note_on_c, 0, 64, 0
1, 35987, Note_on_c, 0, 67, 0
1, 36000, Note_on_c, 0, 64, 80
1, 36000, Note_on_c, 0, 67, 80
1, 36227, Note_on_c, 0, 64, 0
1, 36227, Note_on_c, 0, 67, 0
1, 36240, Note_on_c, 0, 67, 80
1, 36240, Note_on_c, 0, 71, 80
1, 36467, Note_on_c, 0, 67, 0
1, 36467, Note_on_c, 0, 71, 0
1, 36480, Note_on_c, 0, 71, 96
1, 36480, Note_on_c, 0, 74, 96
1, 36707, Note_on_c, 0, 71, 0
1, 36707, Note_on_c, 0, 74, 0
1, 36720, Note_on_c, 0, 74, 96
1, 36795, Note_on_c, 0, 74, 0
1, 36800, Note_on_c, 0, 76, 96
1, 36875, Note_on_c, 0, 76, 0
1, 36880, Note_on_c, 0, 74, 96
1, 36955, Note_on_c, 0, 74, 0
1, 36960, Note_on_c, 0, 69, 96
1, 36960, Note_on_c, 0, 72, 96
1, 37187, Note_on_c, 0, 69, 0
1, 37187, Note_on_c, 0, 72, 0
1, 37200, Note_on_c, 0, 67, 96
1, 37200, Note_on_c, 0, 71, 96
1, 37427, Note_on_c, 0, 67, 0
1, 37427, Note_on_c, 0, 71, 0
1, 37440, Note_on_c, 0, 64, 96
1, 37440, Note_on_c, 0, 69, 96
1, 37895, Note_on_c, 0, 64, 0
1, 37895, Note_on_c, 0, 69, 0
1, 37920, Note_on_c, 0, 69, 96
1, 37920, Note_on_c, 0, 72, 96
1, 37920, Note_on_c, 0, 76, 96
1, 37920, Note_on_c, 0, 81, 96
1, 38375, Note_on_c, 0, 69, 0
1, 38375, Note_on_c, 0, 72, 0
1, 38375, Note_on_c, 0, 76, 0
1, 38375, Note_on_c, 0, 81, 0
1, 38400, Note_on_c, 0, 64, 80
1, 38627, Note_on_c, 0, 64, 0
1, 38640, Note_on_c, 0, 69, 80
1, 38867, Note_on_c, 0, 69, 0
1, 38880, Note_on_c, 0, 69, 80
1, 39221, Note_on_c, 0, 69, 0
1, 39240, Note_on_c, 0, 71, 80
1, 39353, Note_on_c, 0, 71, 0
1, 39360, Note_on_c, 0, 72, 80
1, 39473, Note_on_c, 0, 72, 0
1, 39480, Note_on_c, 0, 72, 80
1, 39593, Note_on_c, 0, 72, 0
1, 39600, Note_on_c, 0, 69, 80
1, 39713, Note_on_c, 0, 69, 0
1, 39720, Note_on_c, 0, 69, 80
1, 39833, Note_on_c, 0, 69, 0
1, 39840, Note_on_c, 0, 69, 80
1, 40067, Note_on_c, 0, 69, 0
1, 40080, Note_on_c, 0, 69, 80
1, 40193, Note_on_c, 0, 69, 0
1, 40200, Note_on_c, 0, 72, 80
1, 40313, Note_on_c, 0, 72, 0
1, 40320, Note_on_c, 0, 71, 80
1, 40547, Note_on_c, 0, 71, 0
1, 40560, Note_on_c, 0, 67, 80
1, 40787, Note_on_c, 0, 67, 0
1, 40800, Note_on_c, 0, 67, 80
1, 41027, Note_on_c, 0, 67, 0
1, 41040, Note_on_c, 0, 71, 80
1, 41267, Note_on_c, 0, 71, 0
1, 41280, Note_on_c, 0, 72, 80
1, 41393, Note_on_c, 0, 72, 0
1, 41400, Note_on_c, 0, 72, 80
1, 41513, Note_on_c, 0, 72, 0
1, 41520, Note_on_c, 0, 69, 80
1, 41747, Note_on_c, 0, 69, 0
1, 41760, Note_on_c, 0, 69, 80
1, 42101, Note_on_c, 0, 69, 0
1, 42120, Note_on_c, 0, 69, 80
1, 42233, Note_on_c, 0, 69, 0
1, 42240, Note_on_c, 0, 64, 80
1, 42467, Note_on_c, 0, 64, 0
1, 42480, Note_on_c, 0, 69, 80
1, 42707, Note_on_c, 0, 69, 0
1, 42720, Note_on_c, 0, 69, 80
1, 43061, Note_on_c, 0, 69, 0
1, 43080, Note_on_c, 0, 71, 80
1, 43193, Note_on_c, 0, 71, 0
1, 43200, Note_on_c, 0, 72, 80
1, 43427, Note_on_c, 0, 72, 0
1, 43440, Note_on_c, 0, 69, 80
1, 43553, Note_on_c, 0, 69, 0
1, 43560, Note_on_c, 0, 69, 80
1, 43787, Note_on_c, 0, 69, 0
1, 43800, Note_on_c, 0, 69, 80
1, 43913, Note_on_c, 0, 69, 0
1, 43920, Note_on_c, 0, 69, 80
1, 44033, Note_on_c, 0, 69, 0
1, 44040, Note_on_c, 0, 72, 80
1, 44153, Note_on_c, 0, 72, 0
1, 44160, Note_on_c, 0, 76, 80
1, 44273, Note_on_c, 0, 76, 0
1, 44280, Note_on_c, 0, 76, 80
1, 44393, Note_on_c, 0, 76, 0
1, 44400, Note_on_c, 0, 76, 80
1, 44513, Note_on_c, 0, 76, 0
1, 44520, Note_on_c, 0, 74, 80
1, 44633, Note_on_c, 0, 74, 0
1, 44640, Note_on_c, 0, 72, 80
1, 44753, Note_on_c, 0, 72, 0
1, 44760, Note_on_c, 0, 72, 80
1, 44873, Note_on_c, 0, 72, 0
1, 44880, Note_on_c, 0, 71, 80
1, 44993, Note_on_c, 0, 71, 0
1, 45000, Note_on_c, 0, 71, 80
1, 45113, Note_on_c, 0, 71, 0
1, 45120, Note_on_c, 0, 72, 80
1, 45347, Note_on_c, 0, 72, 0
1, 45360, Note_on_c, 0, 69, 80
1, 45473, Note_on_c, 0, 69, 0
1, 45480, Note_on_c, 0, 69, 80
1, 45593, Note_on_c, 0, 69, 0
1, 45600, Note_on_c, 0, 69, 80
1, 45827, Note_on_c, 0, 69, 0
1, 45840, Note_on_c, 0, 69, 80
1, 45953, Note_on_c, 0, 69, 0
1, 45960, Note_on_c, 0, 72, 80
1, 46073, Note_on_c, 0, 72, 0
1, 46080, Note_on_c, 0, 76, 80
1, 46307, Note_on_c, 0, 76, 0
1, 46320, Note_on_c, 0, 76, 80
1, 46547, Note_on_c, 0, 76, 0
1, 46560, Note_on_c, 0, 74, 80
1, 46787, Note_on_c, 0, 74, 0
1, 46800, Note_on_c, 0, 72, 80
1, 47027, Note_on_c, 0, 72, 0
1, 47040, Note_on_c, 0, 71, 80
1, 47267, Note_on_c, 0, 71, 0
1, 47280, Note_on_c, 0, 67, 80
1, 47393, Note_on_c, 0, 67, 0
1, 47400, Note_on_c, 0, 67, 80
1, 47513, Note_on_c, 0, 67, 0
1, 47520, Note_on_c, 0, 67, 80
1, 47747, Note_on_c, 0, 67, 0
1, 47760, Note_on_c, 0, 67, 80
1, 47873, Note_on_c, 0, 67, 0
1, 47880, Note_on_c, 0, 71, 80
1, 47993, Note_on_c, 0, 71, 0
1, 48000, Note_on_c, 0, 74, 80
1, 48113, Note_on_c, 0, 74, 0
1, 48120, Note_on_c, 0, 74, 80
1, 48233, Note_on_c, 0, 74, 0
1, 48240, Note_on_c, 0, 74, 80
1, 48353, Note_on_c, 0, 74, 0
1, 48360, Note_on_c, 0, 74, 80
1, 48473, Note_on_c, 0, 74, 0
1, 48480, Note_on_c, 0, 72, 80
1, 48593, Note_on_c, 0, 72, 0
1, 48600, Note_on_c, 0, 72, 80
1, 48713, Note_on_c, 0, 72, 0
1, 48720, Note_on_c, 0, 71, 80
1, 48833, Note_on_c, 0, 71, 0
1, 48840, Note_on_c, 0, 71, 80
1, 48953, Note_on_c, 0, 71, 0
1, 48960, Note_on_c, 0, 72, 80
1, 49187, Note_on_c, 0, 72, 0
1, 49200, Note_on_c, 0, 69, 80
1, 49313, Note_on_c, 0, 69, 0
1, 49320, Note_on_c, 0, 69, 80
1, 49433, Note_on_c, 0, 69, 0
1, 49440, Note_on_c, 0, 69, 80
1, 49781, Note_on_c, 0, 69, 0
1, 49800, Note_on_c, 0, 69, 80
1, 49913, Note_on_c, 0, 69, 0
1, 49920, Note_on_c, 0, 76, 80
1, 50147, Note_on_c, 0, 76, 0
1, 50160, Note_on_c, 0, 76, 80
1, 50387, Note_on_c, 0, 76, 0
1, 50400, Note_on_c, 0, 74, 80
1, 50627, Note_on_c, 0, 74, 0
1, 50640, Note_on_c, 0, 72, 80
1, 50867, Note_on_c, 0, 72, 0
1, 50880, Note_on_c, 0, 71, 80
1, 51107, Note_on_c, 0, 71, 0
1, 51120, Note_on_c, 0, 67, 80
1, 51233, Note_on_c, 0, 67, 0
1, 51240, Note_on_c, 0, 67, 80
1, 51353, Note_on_c, 0, 67, 0
1, 51360, Note_on_c, 0, 67, 80
1, 51587, Note_on_c, 0, 67, 0
1, 51600, Note_on_c, 0, 67, 80
1, 51713, Note_on_c, 0, 67, 0
1, 51720, Note_on_c, 0, 71, 80
1, 51833, Note_on_c, 0, 71, 0
1, 51840, Note_on_c, 0, 74, 80
1, 51953, Note_on_c, 0, 74, 0
1, 51960, Note_on_c, 0, 74, 80
1, 52073, Note_on_c, 0, 74, 0
1, 52080, Note_on_c, 0, 74, 80
1, 52193, Note_on_c, 0, 74, 0
1, 52200, Note_on_c, 0, 74, 80
1, 52313, Note_on_c, 0, 74, 0
1, 52320, Note_on_c, 0, 72, 80
1, 52433, Note_on_c, 0, 72, 0
1, 52440, Note_on_c, 0, 72, 80
1, 52553, Note_on_c, 0, 72, 0
1, 52560, Note_on_c, 0, 71, 80
1, 52673, Note_on_c, 0, 71, 0
1, 52680, Note_on_c, 0, 71, 80
1, 52793, Note_on_c, 0, 71, 0
1, 52800, Note_on_c, 0, 72, 80
1, 53027, Note_on_c, 0, 72, 0
1, 53040, Note_on_c, 0, 69, 80
1, 53153, Note_on_c, 0, 69, 0
1, 53160, Note_on_c, 0, 69, 80
1, 53273, Note_on_c, 0, 69, 0
1, 53280, Note_on_c, 0, 69, 80
1, 53735, Note_on_c, 0, 69, 0
1, 53736, End_track
2, 0, Start_track
2, 0, Title_t, "Classical Guitar, Lute\000"
2, 0, Key_signature, 0, "major"
2, 0, Control_c, 1, 121, 0
2, 0, Program_c, 1, 24
2, 0, Control_c, 1, 7, 100
2, 0, Control_c, 1, 10, 64
2, 0, Control_c, 1, 91, 0
2, 0, Control_c, 1, 93, 0
2, 0, MIDI_port, 0
2, 0, Note_on_c, 1, 57, 80
2, 0, Control_c, 3, 121, 0
2, 0, Program_c, 3, 28
2, 0, Control_c, 3, 7, 100
2, 0, Control_c, 3, 10, 64
2, 0, Control_c, 3, 91, 0
2, 0, Control_c, 3, 93, 0
2, 0, MIDI_port, 0
2, 239, Note_on_c, 1, 57, 0
2, 240, Note_on_c, 1, 57, 80
2, 240, Note_on_c, 1, 60, 80
2, 240, Note_on_c, 1, 64, 80
2, 359, Note_on_c, 1, 57, 0
2, 359, Note_on_c, 1, 60, 0
2, 359, Note_on_c, 1, 64, 0
2, 480, Note_on_c, 1, 52, 80
2, 719, Note_on_c, 1, 52, 0
2, 720, Note_on_c, 1, 57, 80
2, 720, Note_on_c, 1, 60, 80
2, 720, Note_on_c, 1, 64, 80
2, 839, Note_on_c, 1, 57, 0
2, 839, Note_on_c, 1, 60, 0
2, 839, Note_on_c, 1, 64, 0
2, 960, Note_on_c, 1, 57, 80
2, 1199, Note_on_c, 1, 57, 0
2, 1200, Note_on_c, 1, 57, 80
2, 1200, Note_on_c, 1, 60, 80
2, 1200, Note_on_c, 1, 64, 80
2, 1319, Note_on_c, 1, 57, 0
2, 1319, Note_on_c, 1, 60, 0
2, 1319, Note_on_c, 1, 64, 0
2, 1440, Note_on_c, 1, 52, 80
2, 1679, Note_on_c, 1, 52, 0
2, 1680, Note_on_c, 1, 57, 80
2, 1680, Note_on_c, 1, 60, 80
2, 1680, Note_on_c, 1, 64, 80
2, 1799, Note_on_c, 1, 57, 0
2, 1799, Note_on_c, 1, 60, 0
2, 1799, Note_on_c, 1, 64, 0
2, 1920, Note_on_c, 1, 57, 80
2, 2159, Note_on_c, 1, 57, 0
2, 2160, Note_on_c, 1, 57, 80
2, 2160, Note_on_c, 1, 60, 80
2, 2160, Note_on_c, 1, 64, 80
2, 2279, Note_on_c, 1, 57, 0
2, 2279, Note_on_c, 1, 60, 0
2, 2279, Note_on_c, 1, 64, 0
2, 2400, Note_on_c, 1, 52, 80
2, 2639, Note_on_c, 1, 52, 0
2, 2640, Note_on_c, 1, 57, 80
2, 2640, Note_on_c, 1, 60, 80
2, 2640, Note_on_c, 1, 64, 80
2, 2759, Note_on_c, 1, 57, 0
2, 2759, Note_on_c, 1, 60, 0
2, 2759, Note_on_c, 1, 64, 0
2, 2880, Note_on_c, 1, 57, 80
2, 3119, Note_on_c, 1, 57, 0
2, 3120, Note_on_c, 1, 57, 80
2, 3120, Note_on_c, 1, 60, 80
2, 3120, Note_on_c, 1, 64, 80
2, 3239, Note_on_c, 1, 57, 0
2, 3239, Note_on_c, 1, 60, 0
2, 3239, Note_on_c, 1, 64, 0
2, 3360, Note_on_c, 1, 52, 80
2, 3599, Note_on_c, 1, 52, 0
2, 3600, Note_on_c, 1, 57, 80
2, 3600, Note_on_c, 1, 60, 80
2, 3600, Note_on_c, 1, 64, 80
2, 3719, Note_on_c, 1, 57, 0
2, 3719, Note_on_c, 1, 60, 0
2, 3719, Note_on_c, 1, 64, 0
2, 3840, Note_on_c, 1, 57, 80
2, 4079, Note_on_c, 1, 57, 0
2, 4080, Note_on_c, 1, 57, 80
2, 4080, Note_on_c, 1, 60, 80
2, 4080, Note_on_c, 1, 64, 80
2, 4199, Note_on_c, 1, 57, 0
2, 4199, Note_on_c, 1, 60, 0
2, 4199, Note_on_c, 1, 64, 0
2, 4320, Note_on_c, 1, 52, 80
2, 4559, Note_on_c, 1, 52, 0
2, 4560, Note_on_c, 1, 57, 80
2, 4560, Note_on_c, 1, 60, 80
2, 4560, Note_on_c, 1, 64, 80
2, 4679, Note_on_c, 1, 57, 0
2, 4679, Note_on_c, 1, 60, 0
2, 4679, Note_on_c, 1, 64, 0
2, 4800, Note_on_c, 1, 57, 80
2, 5039, Note_on_c, 1, 57, 0
2, 5040, Note_on_c, 1, 57, 80
2, 5040, Note_on_c, 1, 60, 80
2, 5040, Note_on_c, 1, 64, 80
2, 5159, Note_on_c, 1, 57, 0
2, 5159, Note_on_c, 1, 60, 0
2, 5159, Note_on_c, 1, 64, 0
2, 5280, Note_on_c, 1, 52, 80
2, 5519, Note_on_c, 1, 52, 0
2, 5520, Note_on_c, 1, 57, 80
2, 5520, Note_on_c, 1, 60, 80
2, 5520, Note_on_c, 1, 64, 80
2, 5639, Note_on_c, 1, 57, 0
2, 5639, Note_on_c, 1, 60, 0
2, 5639, Note_on_c, 1, 64, 0
2, 5760, Note_on_c, 1, 57, 80
2, 5999, Note_on_c, 1, 57, 0
2, 6000, Note_on_c, 1, 57, 80
2, 6000, Note_on_c, 1, 60, 80
2, 6000, Note_on_c, 1, 64, 80
2, 6119, Note_on_c, 1, 57, 0
2, 6119, Note_on_c, 1, 60, 0
2, 6119, Note_on_c, 1, 64, 0
2, 6240, Note_on_c, 1, 52, 80
2, 6479, Note_on_c, 1, 52, 0
2, 6480, Note_on_c, 1, 57, 80
2, 6480, Note_on_c, 1, 60, 80
2, 6480, Note_on_c, 1, 64, 80
2, 6599, Note_on_c, 1, 57, 0
2, 6599, Note_on_c, 1, 60, 0
2, 6599, Note_on_c, 1, 64, 0
2, 6720, Note_on_c, 1, 57, 80
2, 6720, Note_on_c, 1, 60, 80
2, 6720, Note_on_c, 1, 64, 80
2, 6959, Note_on_c, 1, 57, 0
2, 6959, Note_on_c, 1, 60, 0
2, 6959, Note_on_c, 1, 64, 0
2, 7680, Note_on_c, 1, 57, 80
2, 7919, Note_on_c, 1, 57, 0
2, 7920, Note_on_c, 1, 57, 80
2, 7920, Note_on_c, 1, 60, 80
2, 7920, Note_on_c, 1, 64, 80
2, 8039, Note_on_c, 1, 57, 0
2, 8039, Note_on_c, 1, 60, 0
2, 8039, Note_on_c, 1, 64, 0
2, 8160, Note_on_c, 1, 52, 80
2, 8399, Note_on_c, 1, 52, 0
2, 8400, Note_on_c, 1, 57, 80
2, 8400, Note_on_c, 1, 60, 80
2, 8400, Note_on_c, 1, 64, 80
2, 8519, Note_on_c, 1, 57, 0
2, 8519, Note_on_c, 1, 60, 0
2, 8519, Note_on_c, 1, 64, 0
2, 8640, Note_on_c, 1, 57, 80
2, 8879, Note_on_c, 1, 57, 0
2, 8880, Note_on_c, 1, 57, 80
2, 8880, Note_on_c, 1, 60, 80
2, 8880, Note_on_c, 1, 64, 80
2, 8999, Note_on_c, 1, 57, 0
2, 8999, Note_on_c, 1, 60, 0
2, 8999, Note_on_c, 1, 64, 0
2, 9120, Note_on_c, 1, 52, 80
2, 9359, Note_on_c, 1, 52, 0
2, 9360, Note_on_c, 1, 57, 80
2, 9360, Note_on_c, 1, 60, 80
2, 9360, Note_on_c, 1, 64, 80
2, 9479, Note_on_c, 1, 57, 0
2, 9479, Note_on_c, 1, 60, 0
2, 9479, Note_on_c, 1, 64, 0
2, 9600, Note_on_c, 1, 55, 80
2, 9839, Note_on_c, 1, 55, 0
2, 9840, Note_on_c, 1, 55, 80
2, 9840, Note_on_c, 1, 59, 80
2, 9840, Note_on_c, 1, 64, 80
2, 9959, Note_on_c, 1, 55, 0
2, 9959, Note_on_c, 1, 59, 0
2, 9959, Note_on_c, 1, 64, 0
2, 10080, Note_on_c, 1, 52, 80
2, 10319, Note_on_c, 1, 52, 0
2, 10320, Note_on_c, 1, 55, 80
2, 10320, Note_on_c, 1, 59, 80
2, 10320, Note_on_c, 1, 64, 80
2, 10439, Note_on_c, 1, 55, 0
2, 10439, Note_on_c, 1, 59, 0
2, 10439, Note_on_c, 1, 64, 0
2, 10560, Note_on_c, 1, 57, 80
2, 10799, Note_on_c, 1, 57, 0
2, 10800, Note_on_c, 1, 57, 80
2, 10800, Note_on_c, 1, 60, 80
2, 10800, Note_on_c, 1, 64, 80
2, 10919, Note_on_c, 1, 57, 0
2, 10919, Note_on_c, 1, 60, 0
2, 10919, Note_on_c, 1, 64, 0
2, 11040, Note_on_c, 1, 52, 80
2, 11279, Note_on_c, 1, 52, 0
2, 11280, Note_on_c, 1, 57, 80
2, 11280, Note_on_c, 1, 60, 80
2, 11280, Note_on_c, 1, 64, 80
2, 11399, Note_on_c, 1, 57, 0
2, 11399, Note_on_c, 1, 60, 0
2, 11399, Note_on_c, 1, 64, 0
2, 11520, Note_on_c, 1, 57, 80
2, 11759, Note_on_c, 1, 57, 0
2, 11760, Note_on_c, 1, 57, 80
2, 11760, Note_on_c, 1, 60, 80
2, 11760, Note_on_c, 1, 64, 80
2, 11879, Note_on_c, 1, 57, 0
2, 11879, Note_on_c, 1, 60, 0
2, 11879, Note_on_c, 1, 64, 0
2, 12000, Note_on_c, 1, 52, 80
2, 12239, Note_on_c, 1, 52, 0
2, 12240, Note_on_c, 1, 57, 80
2, 12240, Note_on_c, 1, 60, 80
2, 12240, Note_on_c, 1, 64, 80
2, 12359, Note_on_c, 1, 57, 0
2, 12359, Note_on_c, 1, 60, 0
2, 12359, Note_on_c, 1, 64, 0
2, 12480, Note_on_c, 1, 57, 80
2, 12719, Note_on_c, 1, 57, 0
2, 12720, Note_on_c, 1, 57, 80
2, 12720, Note_on_c, 1, 60, 80
2, 12720, Note_on_c, 1, 64, 80
2, 12839, Note_on_c, 1, 57, 0
2, 12839, Note_on_c, 1, 60, 0
2, 12839, Note_on_c, 1, 64, 0
2, 12960, Note_on_c, 1, 52, 80
2, 13199, Note_on_c, 1, 52, 0
2, 13200, Note_on_c, 1, 57, 80
2, 13200, Note_on_c, 1, 60, 80
2, 13200, Note_on_c, 1, 64, 80
2, 13319, Note_on_c, 1, 57, 0
2, 13319, Note_on_c, 1, 60, 0
2, 13319, Note_on_c, 1, 64, 0
2, 13440, Note_on_c, 1, 55, 80
2, 13679, Note_on_c, 1, 55, 0
2, 13680, Note_on_c, 1, 55, 80
2, 13680, Note_on_c, 1, 59, 80
2, 13680, Note_on_c, 1, 64, 80
2, 13799, Note_on_c, 1, 55, 0
2, 13799, Note_on_c, 1, 59, 0
2, 13799, Note_on_c, 1, 64, 0
2, 13920, Note_on_c, 1, 52, 80
2, 14159, Note_on_c, 1, 52, 0
2, 14160, Note_on_c, 1, 55, 80
2, 14160, Note_on_c, 1, 59, 80
2, 14160, Note_on_c, 1, 64, 80
2, 14279, Note_on_c, 1, 55, 0
2, 14279, Note_on_c, 1, 59, 0
2, 14279, Note_on_c, 1, 64, 0
2, 14400, Note_on_c, 1, 57, 80
2, 14639, Note_on_c, 1, 57, 0
2, 14640, Note_on_c, 1, 57, 80
2, 14640, Note_on_c, 1, 60, 80
2, 14640, Note_on_c, 1, 64, 80
2, 14759, Note_on_c, 1, 57, 0
2, 14759, Note_on_c, 1, 60, 0
2, 14759, Note_on_c, 1, 64, 0
2, 14880, Note_on_c, 1, 52, 80
2, 15119, Note_on_c, 1, 52, 0
2, 15120, Note_on_c, 1, 57, 80
2, 15120, Note_on_c, 1, 60, 80
2, 15120, Note_on_c, 1, 64, 80
2, 15239, Note_on_c, 1, 57, 0
2, 15239, Note_on_c, 1, 60, 0
2, 15239, Note_on_c, 1, 64, 0
2, 15360, Note_on_c, 1, 57, 80
2, 15599, Note_on_c, 1, 57, 0
2, 15600, Note_on_c, 1, 57, 80
2, 15600, Note_on_c, 1, 60, 80
2, 15600, Note_on_c, 1, 64, 80
2, 15719, Note_on_c, 1, 57, 0
2, 15719, Note_on_c, 1, 60, 0
2, 15719, Note_on_c, 1, 64, 0
2, 15840, Note_on_c, 1, 52, 80
2, 16079, Note_on_c, 1, 52, 0
2, 16080, Note_on_c, 1, 57, 80
2, 16080, Note_on_c, 1, 60, 80
2, 16080, Note_on_c, 1, 64, 80
2, 16199, Note_on_c, 1, 57, 0
2, 16199, Note_on_c, 1, 60, 0
2, 16199, Note_on_c, 1, 64, 0
2, 16320, Note_on_c, 1, 55, 80
2, 16559, Note_on_c, 1, 55, 0
2, 16560, Note_on_c, 1, 55, 80
2, 16560, Note_on_c, 1, 59, 80
2, 16560, Note_on_c, 1, 64, 80
2, 16679, Note_on_c, 1, 55, 0
2, 16679, Note_on_c, 1, 59, 0
2, 16679, Note_on_c, 1, 64, 0
2, 16800, Note_on_c, 1, 52, 80
2, 17039, Note_on_c, 1, 52, 0
2, 17040, Note_on_c, 1, 55, 80
2, 17040, Note_on_c, 1, 59, 80
2, 17040, Note_on_c, 1, 64, 80
2, 17159, Note_on_c, 1, 55, 0
2, 17159, Note_on_c, 1, 59, 0
2, 17159, Note_on_c, 1, 64, 0
2, 17280, Note_on_c, 1, 55, 80
2, 17519, Note_on_c, 1, 55, 0
2, 17520, Note_on_c, 1, 55, 80
2, 17520, Note_on_c, 1, 59, 80
2, 17520, Note_on_c, 1, 64, 80
2, 17639, Note_on_c, 1, 55, 0
2, 17639, Note_on_c, 1, 59, 0
2, 17639, Note_on_c, 1, 64, 0
2, 17760, Note_on_c, 1, 52, 80
2, 17999, Note_on_c, 1, 52, 0
2, 18000, Note_on_c, 1, 55, 80
2, 18000, Note_on_c, 1, 59, 80
2, 18000, Note_on_c, 1, 64, 80
2, 18119, Note_on_c, 1, 55, 0
2, 18119, Note_on_c, 1, 59, 0
2, 18119, Note_on_c, 1, 64, 0
2, 18240, Note_on_c, 1, 57, 80
2, 18479, Note_on_c, 1, 57, 0
2, 18480, Note_on_c, 1, 57, 80
2, 18480, Note_on_c, 1, 60, 80
2, 18480, Note_on_c, 1, 64, 80
2, 18599, Note_on_c, 1, 57, 0
2, 18599, Note_on_c, 1, 60, 0
2, 18599, Note_on_c, 1, 64, 0
2, 18720, Note_on_c, 1, 52, 80
2, 18959, Note_on_c, 1, 52, 0
2, 18960, Note_on_c, 1, 57, 80
2, 18960, Note_on_c, 1, 60, 80
2, 18960, Note_on_c, 1, 64, 80
2, 19079, Note_on_c, 1, 57, 0
2, 19079, Note_on_c, 1, 60, 0
2, 19079, Note_on_c, 1, 64, 0
2, 19200, Note_on_c, 1, 57, 80
2, 19439, Note_on_c, 1, 57, 0
2, 19440, Note_on_c, 1, 57, 80
2, 19440, Note_on_c, 1, 60, 80
2, 19440, Note_on_c, 1, 64, 80
2, 19559, Note_on_c, 1, 57, 0
2, 19559, Note_on_c, 1, 60, 0
2, 19559, Note_on_c, 1, 64, 0
2, 19680, Note_on_c, 1, 52, 80
2, 19919, Note_on_c, 1, 52, 0
2, 19920, Note_on_c, 1, 57, 80
2, 19920, Note_on_c, 1, 60, 80
2, 19920, Note_on_c, 1, 64, 80
2, 20039, Note_on_c, 1, 57, 0
2, 20039, Note_on_c, 1, 60, 0
2, 20039, Note_on_c, 1, 64, 0
2, 20160, Note_on_c, 1, 55, 80
2, 20399, Note_on_c, 1, 55, 0
2, 20400, Note_on_c, 1, 55, 80
2, 20400, Note_on_c, 1, 59, 80
2, 20400, Note_on_c, 1, 64, 80
2, 20519, Note_on_c, 1, 55, 0
2, 20519, Note_on_c, 1, 59, 0
2, 20519, Note_on_c, 1, 64, 0
2, 20640, Note_on_c, 1, 52, 80
2, 20879, Note_on_c, 1, 52, 0
2, 20880, Note_on_c, 1, 55, 80
2, 20880, Note_on_c, 1, 59, 80
2, 20880, Note_on_c, 1, 64, 80
2, 20999, Note_on_c, 1, 55, 0
2, 20999, Note_on_c, 1, 59, 0
2, 20999, Note_on_c, 1, 64, 0
2, 21120, Note_on_c, 1, 52, 80
2, 21359, Note_on_c, 1, 52, 0
2, 21360, Note_on_c, 1, 55, 80
2, 21360, Note_on_c, 1, 59, 80
2, 21360, Note_on_c, 1, 62, 80
2, 21479, Note_on_c, 1, 55, 0
2, 21479, Note_on_c, 1, 59, 0
2, 21479, Note_on_c, 1, 62, 0
2, 21600, Note_on_c, 1, 52, 80
2, 21839, Note_on_c, 1, 52, 0
2, 21840, Note_on_c, 1, 55, 80
2, 21840, Note_on_c, 1, 59, 80
2, 21840, Note_on_c, 1, 62, 80
2, 21959, Note_on_c, 1, 55, 0
2, 21959, Note_on_c, 1, 59, 0
2, 21959, Note_on_c, 1, 62, 0
2, 22080, Note_on_c, 1, 57, 80
2, 22080, Note_on_c, 1, 60, 80
2, 22080, Note_on_c, 1, 64, 80
2, 22559, Note_on_c, 1, 57, 0
2, 22559, Note_on_c, 1, 60, 0
2, 22559, Note_on_c, 1, 64, 0
2, 23040, Note_on_c, 1, 57, 80
2, 23279, Note_on_c, 1, 57, 0
2, 23280, Note_on_c, 1, 57, 80
2, 23280, Note_on_c, 1, 60, 80
2, 23280, Note_on_c, 1, 64, 80
2, 23399, Note_on_c, 1, 57, 0
2, 23399, Note_on_c, 1, 60, 0
2, 23399, Note_on_c, 1, 64, 0
2, 23520, Note_on_c, 1, 52, 80
2, 23759, Note_on_c, 1, 52, 0
2, 23760, Note_on_c, 1, 57, 80
2, 23760, Note_on_c, 1, 60, 80
2, 23760, Note_on_c, 1, 64, 80
2, 23879, Note_on_c, 1, 57, 0
2, 23879, Note_on_c, 1, 60, 0
2, 23879, Note_on_c, 1, 64, 0
2, 24000, Note_on_c, 1, 57, 80
2, 24239, Note_on_c, 1, 57, 0
2, 24240, Note_on_c, 1, 57, 80
2, 24240, Note_on_c, 1, 60, 80
2, 24240, Note_on_c, 1, 64, 80
2, 24359, Note_on_c, 1, 57, 0
2, 24359, Note_on_c, 1, 60, 0
2, 24359, Note_on_c, 1, 64, 0
2, 24480, Note_on_c, 1, 52, 80
2, 24719, Note_on_c, 1, 52, 0
2, 24720, Note_on_c, 1, 57, 80
2, 24720, Note_on_c, 1, 60, 80
2, 24720, Note_on_c, 1, 64, 80
2, 24839, Note_on_c, 1, 57, 0
2, 24839, Note_on_c, 1, 60, 0
2, 24839, Note_on_c, 1, 64, 0
2, 24960, Note_on_c, 1, 55, 80
2, 25199, Note_on_c, 1, 55, 0
2, 25200, Note_on_c, 1, 55, 80
2, 25200, Note_on_c, 1, 59, 80
2, 25200, Note_on_c, 1, 64, 80
2, 25319, Note_on_c, 1, 55, 0
2, 25319, Note_on_c, 1, 59, 0
2, 25319, Note_on_c, 1, 64, 0
2, 25440, Note_on_c, 1, 52, 80
2, 25679, Note_on_c, 1, 52, 0
2, 25680, Note_on_c, 1, 55, 80
2, 25680, Note_on_c, 1, 59, 80
2, 25680, Note_on_c, 1, 64, 80
2, 25799, Note_on_c, 1, 55, 0
2, 25799, Note_on_c, 1, 59, 0
2, 25799, Note_on_c, 1, 64, 0
2, 25920, Note_on_c, 1, 57, 80
2, 26159, Note_on_c, 1, 57, 0
2, 26160, Note_on_c, 1, 57, 80
2, 26160, Note_on_c, 1, 60, 80
2, 26160, Note_on_c, 1, 64, 80
2, 26279, Note_on_c, 1, 57, 0
2, 26279, Note_on_c, 1, 60, 0
2, 26279, Note_on_c, 1, 64, 0
2, 26400, Note_on_c, 1, 52, 80
2, 26639, Note_on_c, 1, 52, 0
2, 26640, Note_on_c, 1, 57, 80
2, 26640, Note_on_c, 1, 60, 80
2, 26640, Note_on_c, 1, 64, 80
2, 26759, Note_on_c, 1, 57, 0
2, 26759, Note_on_c, 1, 60, 0
2, 26759, Note_on_c, 1, 64, 0
2, 26880, Note_on_c, 1, 57, 80
2, 27119, Note_on_c, 1, 57, 0
2, 27120, Note_on_c, 1, 57, 80
2, 27120, Note_on_c, 1, 60, 80
2, 27120, Note_on_c, 1, 64, 80
2, 27239, Note_on_c, 1, 57, 0
2, 27239, Note_on_c, 1, 60, 0
2, 27239, Note_on_c, 1, 64, 0
2, 27360, Note_on_c, 1, 52, 80
2, 27599, Note_on_c, 1, 52, 0
2, 27600, Note_on_c, 1, 57, 80
2, 27600, Note_on_c, 1, 60, 80
2, 27600, Note_on_c, 1, 64, 80
2, 27719, Note_on_c, 1, 57, 0
2, 27719, Note_on_c, 1, 60, 0
2, 27719, Note_on_c, 1, 64, 0
2, 27840, Note_on_c, 1, 57, 80
2, 28079, Note_on_c, 1, 57, 0
2, 28080, Note_on_c, 1, 57, 80
2, 28080, Note_on_c, 1, 60, 80
2, 28080, Note_on_c, 1, 64, 80
2, 28199, Note_on_c, 1, 57, 0
2, 28199, Note_on_c, 1, 60, 0
2, 28199, Note_on_c, 1, 64, 0
2, 28320, Note_on_c, 1, 52, 80
2, 28559, Note_on_c, 1, 52, 0
2, 28560, Note_on_c, 1, 57, 80
2, 28560, Note_on_c, 1, 60, 80
2, 28560, Note_on_c, 1, 64, 80
2, 28679, Note_on_c, 1, 57, 0
2, 28679, Note_on_c, 1, 60, 0
2, 28679, Note_on_c, 1, 64, 0
2, 28800, Note_on_c, 1, 55, 80
2, 29039, Note_on_c, 1, 55, 0
2, 29040, Note_on_c, 1, 55, 80
2, 29040, Note_on_c, 1, 59, 80
2, 29040, Note_on_c, 1, 64, 80
2, 29159, Note_on_c, 1, 55, 0
2, 29159, Note_on_c, 1, 59, 0
2, 29159, Note_on_c, 1, 64, 0
2, 29280, Note_on_c, 1, 52, 80
2, 29519, Note_on_c, 1, 52, 0
2, 29520, Note_on_c, 1, 55, 80
2, 29520, Note_on_c, 1, 59, 80
2, 29520, Note_on_c, 1, 64, 80
2, 29639, Note_on_c, 1, 55, 0
2, 29639, Note_on_c, 1, 59, 0
2, 29639, Note_on_c, 1, 64, 0
2, 29760, Note_on_c, 1, 57, 80
2, 29999, Note_on_c, 1, 57, 0
2, 30000, Note_on_c, 1, 57, 80
2, 30000, Note_on_c, 1, 60, 80
2, 30000, Note_on_c, 1, 64, 80
2, 30119, Note_on_c, 1, 57, 0
2, 30119, Note_on_c, 1, 60, 0
2, 30119, Note_on_c, 1, 64, 0
2, 30240, Note_on_c, 1, 52, 80
2, 30479, Note_on_c, 1, 52, 0
2, 30480, Note_on_c, 1, 57, 80
2, 30480, Note_on_c, 1, 60, 80
2, 30480, Note_on_c, 1, 64, 80
2, 30599, Note_on_c, 1, 57, 0
2, 30599, Note_on_c, 1, 60, 0
2, 30599, Note_on_c, 1, 64, 0
2, 30720, Note_on_c, 1, 57, 80
2, 30959, Note_on_c, 1, 57, 0
2, 30960, Note_on_c, 1, 57, 80
2, 30960, Note_on_c, 1, 60, 80
2, 30960, Note_on_c, 1, 64, 80
2, 31079, Note_on_c, 1, 57, 0
2, 31079, Note_on_c, 1, 60, 0
2, 31079, Note_on_c, 1, 64, 0
2, 31200, Note_on_c, 1, 52, 80
2, 31439, Note_on_c, 1, 52, 0
2, 31440, Note_on_c, 1, 57, 80
2, 31440, Note_on_c, 1, 60, 80
2, 31440, Note_on_c, 1, 64, 80
2, 31559, Note_on_c, 1, 57, 0
2, 31559, Note_on_c, 1, 60, 0
2, 31559, Note_on_c, 1, 64, 0
2, 31680, Note_on_c, 1, 55, 80
2, 31919, Note_on_c, 1, 55, 0
2, 31920, Note_on_c, 1, 55, 80
2, 31920, Note_on_c, 1, 59, 80
2, 31920, Note_on_c, 1, 64, 80
2, 32039, Note_on_c, 1, 55, 0
2, 32039, Note_on_c, 1, 59, 0
2, 32039, Note_on_c, 1, 64, 0
2, 32160, Note_on_c, 1, 52, 80
2, 32399, Note_on_c, 1, 52, 0
2, 32400, Note_on_c, 1, 55, 80
2, 32400, Note_on_c, 1, 59, 80
2, 32400, Note_on_c, 1, 64, 80
2, 32519, Note_on_c, 1, 55, 0
2, 32519, Note_on_c, 1, 59, 0
2, 32519, Note_on_c, 1, 64, 0
2, 32640, Note_on_c, 1, 55, 80
2, 32879, Note_on_c, 1, 55, 0
2, 32880, Note_on_c, 1, 55, 80
2, 32880, Note_on_c, 1, 59, 80
2, 32880, Note_on_c, 1, 64, 80
2, 32999, Note_on_c, 1, 55, 0
2, 32999, Note_on_c, 1, 59, 0
2, 32999, Note_on_c, 1, 64, 0
2, 33120, Note_on_c, 1, 52, 80
2, 33359, Note_on_c, 1, 52, 0
2, 33360, Note_on_c, 1, 55, 80
2, 33360, Note_on_c, 1, 59, 80
2, 33360, Note_on_c, 1, 64, 80
2, 33479, Note_on_c, 1, 55, 0
2, 33479, Note_on_c, 1, 59, 0
2, 33479, Note_on_c, 1, 64, 0
2, 33600, Note_on_c, 1, 57, 80
2, 33839, Note_on_c, 1, 57, 0
2, 33840, Note_on_c, 1, 57, 80
2, 33840, Note_on_c, 1, 60, 80
2, 33840, Note_on_c, 1, 64, 80
2, 33959, Note_on_c, 1, 57, 0
2, 33959, Note_on_c, 1, 60, 0
2, 33959, Note_on_c, 1, 64, 0
2, 34080, Note_on_c, 1, 52, 80
2, 34319, Note_on_c, 1, 52, 0
2, 34320, Note_on_c, 1, 57, 80
2, 34320, Note_on_c, 1, 60, 80
2, 34320, Note_on_c, 1, 64, 80
2, 34439, Note_on_c, 1, 57, 0
2, 34439, Note_on_c, 1, 60, 0
2, 34439, Note_on_c, 1, 64, 0
2, 34560, Note_on_c, 1, 57, 80
2, 34799, Note_on_c, 1, 57, 0
2, 34800, Note_on_c, 1, 57, 80
2, 34800, Note_on_c, 1, 60, 80
2, 34800, Note_on_c, 1, 64, 80
2, 34919, Note_on_c, 1, 57, 0
2, 34919, Note_on_c, 1, 60, 0
2, 34919, Note_on_c, 1, 64, 0
2, 35040, Note_on_c, 1, 52, 80
2, 35279, Note_on_c, 1, 52, 0
2, 35280, Note_on_c, 1, 57, 80
2, 35280, Note_on_c, 1, 60, 80
2, 35280, Note_on_c, 1, 64, 80
2, 35399, Note_on_c, 1, 57, 0
2, 35399, Note_on_c, 1, 60, 0
2, 35399, Note_on_c, 1, 64, 0
2, 35520, Note_on_c, 1, 55, 80
2, 35759, Note_on_c, 1, 55, 0
2, 35760, Note_on_c, 1, 55, 80
2, 35760, Note_on_c, 1, 59, 80
2, 35760, Note_on_c, 1, 64, 80
2, 35879, Note_on_c, 1, 55, 0
2, 35879, Note_on_c, 1, 59, 0
2, 35879, Note_on_c, 1, 64, 0
2, 36000, Note_on_c, 1, 52, 80
2, 36239, Note_on_c, 1, 52, 0
2, 36240, Note_on_c, 1, 55, 80
2, 36240, Note_on_c, 1, 59, 80
2, 36240, Note_on_c, 1, 64, 80
2, 36359, Note_on_c, 1, 55, 0
2, 36359, Note_on_c, 1, 59, 0
2, 36359, Note_on_c, 1, 64, 0
2, 36480, Note_on_c, 1, 52, 80
2, 36719, Note_on_c, 1, 52, 0
2, 36720, Note_on_c, 1, 55, 80
2, 36720, Note_on_c, 1, 59, 80
2, 36720, Note_on_c, 1, 62, 80
2, 36839, Note_on_c, 1, 55, 0
2, 36839, Note_on_c, 1, 59, 0
2, 36839, Note_on_c, 1, 62, 0
2, 36960, Note_on_c, 1, 52, 80
2, 37199, Note_on_c, 1, 52, 0
2, 37200, Note_on_c, 1, 55, 80
2, 37200, Note_on_c, 1, 59, 80
2, 37200, Note_on_c, 1, 62, 80
2, 37319, Note_on_c, 1, 55, 0
2, 37319, Note_on_c, 1, 59, 0
2, 37319, Note_on_c, 1, 62, 0
2, 37440, Note_on_c, 1, 57, 80
2, 37440, Note_on_c, 1, 60, 80
2, 37440, Note_on_c, 1, 64, 80
2, 37919, Note_on_c, 1, 57, 0
2, 37919, Note_on_c, 1, 60, 0
2, 37919, Note_on_c, 1, 64, 0
2, 38400, Note_on_c, 1, 57, 80
2, 38879, Note_on_c, 1, 57, 0
2, 38880, Note_on_c, 1, 52, 80
2, 39119, Note_on_c, 1, 52, 0
2, 39120, Note_on_c, 1, 55, 80
2, 39359, Note_on_c, 1, 55, 0
2, 39360, Note_on_c, 1, 57, 80
2, 39839, Note_on_c, 1, 57, 0
2, 39840, Note_on_c, 1, 52, 80
2, 40079, Note_on_c, 1, 52, 0
2, 40080, Note_on_c, 1, 55, 80
2, 40319, Note_on_c, 1, 55, 0
2, 40320, Note_on_c, 1, 52, 80
2, 40799, Note_on_c, 1, 52, 0
2, 40800, Note_on_c, 1, 55, 80
2, 41039, Note_on_c, 1, 55, 0
2, 41040, Note_on_c, 1, 52, 80
2, 41279, Note_on_c, 1, 52, 0
2, 41280, Note_on_c, 1, 57, 80
2, 41759, Note_on_c, 1, 57, 0
2, 41760, Note_on_c, 1, 52, 80
2, 41999, Note_on_c, 1, 52, 0
2, 42000, Note_on_c, 1, 55, 80
2, 42239, Note_on_c, 1, 55, 0
2, 42240, Note_on_c, 1, 57, 80
2, 42719, Note_on_c, 1, 57, 0
2, 42720, Note_on_c, 1, 52, 80
2, 42959, Note_on_c, 1, 52, 0
2, 42960, Note_on_c, 1, 55, 80
2, 43199, Note_on_c, 1, 55, 0
2, 43200, Note_on_c, 1, 57, 80
2, 43679, Note_on_c, 1, 57, 0
2, 43680, Note_on_c, 1, 52, 80
2, 43919, Note_on_c, 1, 52, 0
2, 43920, Note_on_c, 1, 55, 80
2, 44159, Note_on_c, 1, 55, 0
2, 44160, Note_on_c, 1, 52, 80
2, 44639, Note_on_c, 1, 52, 0
2, 44640, Note_on_c, 1, 55, 80
2, 44879, Note_on_c, 1, 55, 0
2, 44880, Note_on_c, 1, 52, 80
2, 45119, Note_on_c, 1, 52, 0
2, 45120, Note_on_c, 1, 57, 80
2, 45599, Note_on_c, 1, 57, 0
2, 45600, Note_on_c, 1, 52, 80
2, 45839, Note_on_c, 1, 52, 0
2, 45840, Note_on_c, 1, 55, 80
2, 46079, Note_on_c, 1, 55, 0
2, 46080, Note_on_c, 1, 57, 80
2, 46559, Note_on_c, 1, 57, 0
2, 46560, Note_on_c, 1, 52, 80
2, 46799, Note_on_c, 1, 52, 0
2, 46800, Note_on_c, 1, 55, 80
2, 47039, Note_on_c, 1, 55, 0
2, 47040, Note_on_c, 1, 52, 80
2, 47519, Note_on_c, 1, 52, 0
2, 47520, Note_on_c, 1, 52, 80
2, 47759, Note_on_c, 1, 52, 0
2, 47760, Note_on_c, 1, 55, 80
2, 47999, Note_on_c, 1, 55, 0
2, 48000, Note_on_c, 1, 52, 80
2, 48479, Note_on_c, 1, 52, 0
2, 48480, Note_on_c, 1, 55, 80
2, 48719, Note_on_c, 1, 55, 0
2, 48720, Note_on_c, 1, 52, 80
2, 48959, Note_on_c, 1, 52, 0
2, 48960, Note_on_c, 1, 57, 80
2, 49439, Note_on_c, 1, 57, 0
2, 49440, Note_on_c, 1, 52, 80
2, 49679, Note_on_c, 1, 52, 0
2, 49680, Note_on_c, 1, 55, 80
2, 49919, Note_on_c, 1, 55, 0
2, 49920, Note_on_c, 1, 57, 80
2, 50399, Note_on_c, 1, 57, 0
2, 50400, Note_on_c, 1, 52, 80
2, 50639, Note_on_c, 1, 52, 0
2, 50640, Note_on_c, 1, 55, 80
2, 50879, Note_on_c, 1, 55, 0
2, 50880, Note_on_c, 1, 52, 80
2, 51359, Note_on_c, 1, 52, 0
2, 51360, Note_on_c, 1, 52, 80
2, 51599, Note_on_c, 1, 52, 0
2, 51600, Note_on_c, 1, 55, 80
2, 51839, Note_on_c, 1, 55, 0
2, 51840, Note_on_c, 1, 52, 80
2, 52319, Note_on_c, 1, 52, 0
2, 52320, Note_on_c, 1, 55, 80
2, 52559, Note_on_c, 1, 55, 0
2, 52560, Note_on_c, 1, 52, 80
2, 52799, Note_on_c, 1, 52, 0
2, 52800, Note_on_c, 1, 57, 80
2, 53279, Note_on_c, 1, 57, 0
2, 53280, End_track
3, 0, Start_track
3, 0, Title_t, "Electric Bass, Bass\000"
3, 0, Key_signature, 0, "major"
3, 0, Control_c, 2, 121, 0
3, 0, Program_c, 2, 33
3, 0, Control_c, 2, 7, 100
3, 0, Control_c, 2, 10, 64
3, 0, Control_c, 2, 91, 0
3, 0, Control_c, 2, 93, 0
3, 0, MIDI_port, 0
3, 0, Note_on_c, 2, 57, 80
3, 0, Control_c, 4, 121, 0
3, 0, Program_c, 4, 36
3, 0, Control_c, 4, 7, 100
3, 0, Control_c, 4, 10, 64
3, 0, Control_c, 4, 91, 0
3, 0, Control_c, 4, 93, 0
3, 0, MIDI_port, 0
3, 0, Control_c, 5, 121, 0
3, 0, Program_c, 5, 37
3, 0, Control_c, 5, 7, 100
3, 0, Control_c, 5, 10, 64
3, 0, Control_c, 5, 91, 0
3, 0, Control_c, 5, 93, 0
3, 0, MIDI_port, 0
3, 479, Note_on_c, 2, 57, 0
3, 480, Note_on_c, 2, 52, 80
3, 959, Note_on_c, 2, 52, 0
3, 960, Note_on_c, 2, 57, 80
3, 1439, Note_on_c, 2, 57, 0
3, 1440, Note_on_c, 2, 52, 80
3, 1679, Note_on_c, 2, 52, 0
3, 1680, Note_on_c, 2, 55, 80
3, 1919, Note_on_c, 2, 55, 0
3, 1920, Note_on_c, 2, 57, 80
3, 2399, Note_on_c, 2, 57, 0
3, 2400, Note_on_c, 2, 52, 80
3, 2879, Note_on_c, 2, 52, 0
3, 2880, Note_on_c, 2, 57, 80
3, 3359, Note_on_c, 2, 57, 0
3, 3360, Note_on_c, 2, 52, 80
3, 3599, Note_on_c, 2, 52, 0
3, 3600, Note_on_c, 2, 55, 80
3, 3839, Note_on_c, 2, 55, 0
3, 3840, Note_on_c, 2, 57, 80
3, 4319, Note_on_c, 2, 57, 0
3, 4320, Note_on_c, 2, 52, 80
3, 4799, Note_on_c, 2, 52, 0
3, 4800, Note_on_c, 2, 57, 80
3, 5279, Note_on_c, 2, 57, 0
3, 5280, Note_on_c, 2, 52, 80
3, 5519, Note_on_c, 2, 52, 0
3, 5520, Note_on_c, 2, 55, 80
3, 5759, Note_on_c, 2, 55, 0
3, 5760, Note_on_c, 2, 57, 80
3, 6239, Note_on_c, 2, 57, 0
3, 6240, Note_on_c, 2, 52, 80
3, 6719, Note_on_c, 2, 52, 0
3, 6720, Note_on_c, 2, 57, 80
3, 7199, Note_on_c, 2, 57, 0
3, 7200, Note_on_c, 2, 52, 80
3, 7439, Note_on_c, 2, 52, 0
3, 7440, Note_on_c, 2, 55, 80
3, 7679, Note_on_c, 2, 55, 0
3, 7680, Note_on_c, 2, 57, 80
3, 8159, Note_on_c, 2, 57, 0
3, 8160, Note_on_c, 2, 52, 80
3, 8639, Note_on_c, 2, 52, 0
3, 8640, Note_on_c, 2, 57, 80
3, 9119, Note_on_c, 2, 57, 0
3, 9120, Note_on_c, 2, 52, 80
3, 9359, Note_on_c, 2, 52, 0
3, 9360, Note_on_c, 2, 55, 80
3, 9599, Note_on_c, 2, 55, 0
3, 9600, Note_on_c, 2, 55, 80
3, 10079, Note_on_c, 2, 55, 0
3, 10080, Note_on_c, 2, 52, 80
3, 10559, Note_on_c, 2, 52, 0
3, 10560, Note_on_c, 2, 57, 80
3, 11039, Note_on_c, 2, 57, 0
3, 11040, Note_on_c, 2, 52, 80
3, 11279, Note_on_c, 2, 52, 0
3, 11280, Note_on_c, 2, 55, 80
3, 11519, Note_on_c, 2, 55, 0
3, 11520, Note_on_c, 2, 57, 80
3, 11999, Note_on_c, 2, 57, 0
3, 12000, Note_on_c, 2, 52, 80
3, 12479, Note_on_c, 2, 52, 0
3, 12480, Note_on_c, 2, 57, 80
3, 12959, Note_on_c, 2, 57, 0
3, 12960, Note_on_c, 2, 52, 80
3, 13199, Note_on_c, 2, 52, 0
3, 13200, Note_on_c, 2, 55, 80
3, 13439, Note_on_c, 2, 55, 0
3, 13440, Note_on_c, 2, 55, 80
3, 13919, Note_on_c, 2, 55, 0
3, 13920, Note_on_c, 2, 52, 80
3, 14159, Note_on_c, 2, 52, 0
3, 14160, Note_on_c, 2, 55, 80
3, 14399, Note_on_c, 2, 55, 0
3, 14400, Note_on_c, 2, 57, 80
3, 14879, Note_on_c, 2, 57, 0
3, 14880, Note_on_c, 2, 52, 80
3, 15359, Note_on_c, 2, 52, 0
3, 15360, Note_on_c, 2, 57, 80
3, 15839, Note_on_c, 2, 57, 0
3, 15840, Note_on_c, 2, 52, 80
3, 16079, Note_on_c, 2, 52, 0
3, 16080, Note_on_c, 2, 57, 80
3, 16319, Note_on_c, 2, 57, 0
3, 16320, Note_on_c, 2, 55, 80
3, 16799, Note_on_c, 2, 55, 0
3, 16800, Note_on_c, 2, 52, 80
3, 17039, Note_on_c, 2, 52, 0
3, 17040, Note_on_c, 2, 55, 80
3, 17279, Note_on_c, 2, 55, 0
3, 17280, Note_on_c, 2, 55, 80
3, 17759, Note_on_c, 2, 55, 0
3, 17760, Note_on_c, 2, 52, 80
3, 17999, Note_on_c, 2, 52, 0
3, 18000, Note_on_c, 2, 55, 80
3, 18239, Note_on_c, 2, 55, 0
3, 18240, Note_on_c, 2, 57, 80
3, 18719, Note_on_c, 2, 57, 0
3, 18720, Note_on_c, 2, 52, 80
3, 18959, Note_on_c, 2, 52, 0
3, 18960, Note_on_c, 2, 55, 80
3, 19199, Note_on_c, 2, 55, 0
3, 19200, Note_on_c, 2, 57, 80
3, 19679, Note_on_c, 2, 57, 0
3, 19680, Note_on_c, 2, 52, 80
3, 19919, Note_on_c, 2, 52, 0
3, 19920, Note_on_c, 2, 57, 80
3, 20159, Note_on_c, 2, 57, 0
3, 20160, Note_on_c, 2, 55, 80
3, 20639, Note_on_c, 2, 55, 0
3, 20640, Note_on_c, 2, 52, 80
3, 20879, Note_on_c, 2, 52, 0
3, 20880, Note_on_c, 2, 55, 80
3, 21119, Note_on_c, 2, 55, 0
3, 21120, Note_on_c, 2, 52, 80
3, 21599, Note_on_c, 2, 52, 0
3, 21600, Note_on_c, 2, 55, 80
3, 21839, Note_on_c, 2, 55, 0
3, 21840, Note_on_c, 2, 52, 80
3, 22079, Note_on_c, 2, 52, 0
3, 22080, Note_on_c, 2, 57, 80
3, 22559, Note_on_c, 2, 57, 0
3, 22560, Note_on_c, 2, 52, 80
3, 22799, Note_on_c, 2, 52, 0
3, 22800, Note_on_c, 2, 55, 80
3, 23039, Note_on_c, 2, 55, 0
3, 23040, Note_on_c, 2, 57, 80
3, 23519, Note_on_c, 2, 57, 0
3, 23520, Note_on_c, 2, 52, 80
3, 23759, Note_on_c, 2, 52, 0
3, 23760, Note_on_c, 2, 55, 80
3, 23999, Note_on_c, 2, 55, 0
3, 24000, Note_on_c, 2, 57, 80
3, 24479, Note_on_c, 2, 57, 0
3, 24480, Note_on_c, 2, 52, 80
3, 24719, Note_on_c, 2, 52, 0
3, 24720, Note_on_c, 2, 55, 80
3, 24959, Note_on_c, 2, 55, 0
3, 24960, Note_on_c, 2, 55, 80
3, 25439, Note_on_c, 2, 55, 0
3, 25440, Note_on_c, 2, 52, 80
3, 25679, Note_on_c, 2, 52, 0
3, 25680, Note_on_c, 2, 55, 80
3, 25919, Note_on_c, 2, 55, 0
3, 25920, Note_on_c, 2, 57, 80
3, 26399, Note_on_c, 2, 57, 0
3, 26400, Note_on_c, 2, 52, 80
3, 26639, Note_on_c, 2, 52, 0
3, 26640, Note_on_c, 2, 55, 80
3, 26879, Note_on_c, 2, 55, 0
3, 26880, Note_on_c, 2, 57, 80
3, 27359, Note_on_c, 2, 57, 0
3, 27360, Note_on_c, 2, 52, 80
3, 27599, Note_on_c, 2, 52, 0
3, 27600, Note_on_c, 2, 55, 80
3, 27839, Note_on_c, 2, 55, 0
3, 27840, Note_on_c, 2, 57, 80
3, 28319, Note_on_c, 2, 57, 0
3, 28320, Note_on_c, 2, 52, 80
3, 28559, Note_on_c, 2, 52, 0
3, 28560, Note_on_c, 2, 55, 80
3, 28799, Note_on_c, 2, 55, 0
3, 28800, Note_on_c, 2, 52, 80
3, 29279, Note_on_c, 2, 52, 0
3, 29280, Note_on_c, 2, 52, 80
3, 29519, Note_on_c, 2, 52, 0
3, 29520, Note_on_c, 2, 55, 80
3, 29759, Note_on_c, 2, 55, 0
3, 29760, Note_on_c, 2, 57, 80
3, 30239, Note_on_c, 2, 57, 0
3, 30720, Note_on_c, 2, 57, 80
3, 31199, Note_on_c, 2, 57, 0
3, 31200, Note_on_c, 2, 52, 80
3, 31439, Note_on_c, 2, 52, 0
3, 31440, Note_on_c, 2, 57, 80
3, 31679, Note_on_c, 2, 57, 0
3, 31680, Note_on_c, 2, 55, 80
3, 32159, Note_on_c, 2, 55, 0
3, 32160, Note_on_c, 2, 52, 80
3, 32399, Note_on_c, 2, 52, 0
3, 32400, Note_on_c, 2, 55, 80
3, 32639, Note_on_c, 2, 55, 0
3, 32640, Note_on_c, 2, 55, 80
3, 33119, Note_on_c, 2, 55, 0
3, 33120, Note_on_c, 2, 52, 80
3, 33359, Note_on_c, 2, 52, 0
3, 33360, Note_on_c, 2, 55, 80
3, 33599, Note_on_c, 2, 55, 0
3, 33600, Note_on_c, 2, 57, 80
3, 34079, Note_on_c, 2, 57, 0
3, 34080, Note_on_c, 2, 52, 80
3, 34319, Note_on_c, 2, 52, 0
3, 34320, Note_on_c, 2, 55, 80
3, 34559, Note_on_c, 2, 55, 0
3, 34560, Note_on_c, 2, 57, 80
3, 35039, Note_on_c, 2, 57, 0
3, 35040, Note_on_c, 2, 52, 80
3, 35279, Note_on_c, 2, 52, 0
3, 35280, Note_on_c, 2, 57, 80
3, 35519, Note_on_c, 2, 57, 0
3, 35520, Note_on_c, 2, 55, 80
3, 35999, Note_on_c, 2, 55, 0
3, 36000, Note_on_c, 2, 52, 80
3, 36239, Note_on_c, 2, 52, 0
3, 36240, Note_on_c, 2, 55, 80
3, 36479, Note_on_c, 2, 55, 0
3, 36480, Note_on_c, 2, 52, 80
3, 36959, Note_on_c, 2, 52, 0
3, 36960, Note_on_c, 2, 55, 80
3, 37199, Note_on_c, 2, 55, 0
3, 37200, Note_on_c, 2, 52, 80
3, 37439, Note_on_c, 2, 52, 0
3, 37440, Note_on_c, 2, 57, 80
3, 38399, Note_on_c, 2, 57, 0
3, 38400, End_track
0, 0, End_of_file
