0, 0, Header, 1, 5, 480
1, 0, Start_track
1, 0, Title_t, "Violin, Violin, Violin\000"
1, 0, Time_signature, 4, 2, 24, 8
1, 0, Key_signature, 0, "major"
1, 0, Tempo, 550459
1, 0, Control_c, 0, 121, 0
1, 0, Program_c, 0, 40
1, 0, Control_c, 0, 7, 100
1, 0, Control_c, 0, 10, 64
1, 0, Control_c, 0, 91, 0
1, 0, Control_c, 0, 93, 0
1, 0, MIDI_port, 0
1, 0, Control_c, 1, 121, 0
1, 0, Program_c, 1, 45
1, 0, Control_c, 1, 7, 100
1, 0, Control_c, 1, 10, 64
1, 0, Control_c, 1, 91, 0
1, 0, Control_c, 1, 93, 0
1, 0, MIDI_port, 0
1, 0, Control_c, 2, 121, 0
1, 0, Program_c, 2, 44
1, 0, Control_c, 2, 7, 100
1, 0, Control_c, 2, 10, 64
1, 0, Control_c, 2, 91, 0
1, 0, Control_c, 2, 93, 0
1, 0, MIDI_port, 0
1, 9360, Note_on_c, 0, 72, 80
1, 9360, Control_c, 0, 2, 80
1, 9599, Note_on_c, 0, 72, 0
1, 9600, Note_on_c, 0, 76, 80
1, 9959, Note_on_c, 0, 76, 0
1, 9960, Note_on_c, 0, 76, 80
1, 10079, Note_on_c, 0, 76, 0
1, 10320, Note_on_c, 0, 72, 80
1, 10559, Note_on_c, 0, 72, 0
1, 10560, Note_on_c, 0, 76, 80
1, 11039, Note_on_c, 0, 76, 0
1, 11280, Note_on_c, 0, 72, 80
1, 11399, Note_on_c, 0, 72, 0
1, 11400, Note_on_c, 0, 69, 80
1, 11519, Note_on_c, 0, 69, 0
1, 11520, Note_on_c, 0, 76, 80
1, 11999, Note_on_c, 0, 76, 0
1, 12000, Note_on_c, 0, 72, 80
1, 12119, Note_on_c, 0, 72, 0
1, 12120, Note_on_c, 0, 69, 80
1, 12479, Note_on_c, 0, 69, 0
1, 13200, Note_on_c, 0, 72, 80
1, 13439, Note_on_c, 0, 72, 0
1, 13440, Note_on_c, 0, 76, 80
1, 13799, Note_on_c, 0, 76, 0
1, 13800, Note_on_c, 0, 76, 80
1, 13919, Note_on_c, 0, 76, 0
1, 14160, Note_on_c, 0, 72, 80
1, 14399, Note_on_c, 0, 72, 0
1, 14400, Note_on_c, 0, 76, 80
1, 14879, Note_on_c, 0, 76, 0
1, 15120, Note_on_c, 0, 72, 80
1, 15239, Note_on_c, 0, 72, 0
1, 15240, Note_on_c, 0, 69, 80
1, 15359, Note_on_c, 0, 69, 0
1, 15360, Note_on_c, 0, 76, 80
1, 15839, Note_on_c, 0, 76, 0
1, 15840, Note_on_c, 0, 72, 80
1, 15959, Note_on_c, 0, 72, 0
1, 15960, Note_on_c, 0, 69, 80
1, 16319, Note_on_c, 0, 69, 0
1, 17160, Note_on_c, 0, 69, 80
1, 17279, Note_on_c, 0, 69, 0
1, 17280, Note_on_c, 0, 79, 80
1, 17399, Note_on_c, 0, 79, 0
1, 17400, Note_on_c, 0, 79, 80
1, 17519, Note_on_c, 0, 79, 0
1, 17520, Note_on_c, 0, 79, 80
1, 17639, Note_on_c, 0, 79, 0
1, 17640, Note_on_c, 0, 79, 80
1, 17759, Note_on_c, 0, 79, 0
1, 17760, Note_on_c, 0, 77, 80
1, 17879, Note_on_c, 0, 77, 0
1, 17880, Note_on_c, 0, 77, 80
1, 17999, Note_on_c, 0, 77, 0
1, 18000, Note_on_c, 0, 77, 80
1, 18119, Note_on_c, 0, 77, 0
1, 18120, Note_on_c, 0, 77, 80
1, 18239, Note_on_c, 0, 77, 0
1, 18240, Note_on_c, 0, 76, 80
1, 18479, Note_on_c, 0, 76, 0
1, 18480, Note_on_c, 0, 74, 80
1, 18719, Note_on_c, 0, 74, 0
1, 19080, Note_on_c, 0, 69, 80
1, 19199, Note_on_c, 0, 69, 0
1, 19200, Note_on_c, 0, 79, 80
1, 19319, Note_on_c, 0, 79, 0
1, 19320, Note_on_c, 0, 79, 80
1, 19439, Note_on_c, 0, 79, 0
1, 19440, Note_on_c, 0, 79, 80
1, 19559, Note_on_c, 0, 79, 0
1, 19560, Note_on_c, 0, 79, 80
1, 19679, Note_on_c, 0, 79, 0
1, 19680, Note_on_c, 0, 77, 80
1, 19799, Note_on_c, 0, 77, 0
1, 19800, Note_on_c, 0, 77, 80
1, 19919, Note_on_c, 0, 77, 0
1, 19920, Note_on_c, 0, 77, 80
1, 20039, Note_on_c, 0, 77, 0
1, 20040, Note_on_c, 0, 77, 80
1, 20159, Note_on_c, 0, 77, 0
1, 20160, Note_on_c, 0, 76, 80
1, 20399, Note_on_c, 0, 76, 0
1, 20400, Note_on_c, 0, 74, 80
1, 20639, Note_on_c, 0, 74, 0
1, 21000, Note_on_c, 0, 69, 80
1, 21119, Note_on_c, 0, 69, 0
1, 21120, Note_on_c, 0, 79, 80
1, 21239, Note_on_c, 0, 79, 0
1, 21240, Note_on_c, 0, 79, 80
1, 21359, Note_on_c, 0, 79, 0
1, 21360, Note_on_c, 0, 79, 80
1, 21479, Note_on_c, 0, 79, 0
1, 21480, Note_on_c, 0, 79, 80
1, 21599, Note_on_c, 0, 79, 0
1, 21600, Note_on_c, 0, 77, 80
1, 21719, Note_on_c, 0, 77, 0
1, 21720, Note_on_c, 0, 77, 80
1, 21839, Note_on_c, 0, 77, 0
1, 21840, Note_on_c, 0, 77, 80
1, 21959, Note_on_c, 0, 77, 0
1, 21960, Note_on_c, 0, 77, 80
1, 22079, Note_on_c, 0, 77, 0
1, 22080, Note_on_c, 0, 76, 80
1, 22319, Note_on_c, 0, 76, 0
1, 22320, Note_on_c, 0, 74, 80
1, 22559, Note_on_c, 0, 74, 0
1, 22800, Note_on_c, 0, 72, 80
1, 22919, Note_on_c, 0, 72, 0
1, 22920, Note_on_c, 0, 74, 80
1, 23039, Note_on_c, 0, 74, 0
1, 23040, Note_on_c, 0, 76, 80
1, 23279, Note_on_c, 0, 76, 0
1, 23280, Note_on_c, 0, 74, 80
1, 23519, Note_on_c, 0, 74, 0
1, 23760, Note_on_c, 0, 72, 80
1, 23879, Note_on_c, 0, 72, 0
1, 23880, Note_on_c, 0, 74, 80
1, 23999, Note_on_c, 0, 74, 0
1, 24000, Note_on_c, 0, 76, 80
1, 24239, Note_on_c, 0, 76, 0
1, 24240, Note_on_c, 0, 72, 80
1, 24479, Note_on_c, 0, 72, 0
1, 24480, Note_on_c, 0, 72, 80
1, 24959, Note_on_c, 0, 72, 0
1, 25440, Note_on_c, 0, 79, 80
1, 26639, Note_on_c, 0, 79, 0
1, 26640, Note_on_c, 0, 79, 80
1, 26759, Note_on_c, 0, 79, 0
1, 26760, Note_on_c, 0, 79, 80
1, 27119, Note_on_c, 0, 79, 0
1, 27120, Note_on_c, 0, 77, 80
1, 27359, Note_on_c, 0, 77, 0
1, 27360, Note_on_c, 0, 77, 80
1, 27599, Note_on_c, 0, 77, 0
1, 27600, Note_on_c, 0, 76, 80
1, 27719, Note_on_c, 0, 76, 0
1, 27720, Note_on_c, 0, 74, 80
1, 28079, Note_on_c, 0, 74, 0
1, 28080, Note_on_c, 0, 72, 80
1, 28319, Note_on_c, 0, 72, 0
1, 28320, Note_on_c, 0, 74, 80
1, 28559, Note_on_c, 0, 74, 0
1, 28560, Note_on_c, 0, 76, 80
1, 29039, Note_on_c, 0, 76, 0
1, 30480, Note_on_c, 0, 79, 80
1, 30599, Note_on_c, 0, 79, 0
1, 30600, Note_on_c, 0, 79, 80
1, 30959, Note_on_c, 0, 79, 0
1, 30960, Note_on_c, 0, 77, 80
1, 31199, Note_on_c, 0, 77, 0
1, 31200, Note_on_c, 0, 77, 80
1, 31439, Note_on_c, 0, 77, 0
1, 31440, Note_on_c, 0, 76, 80
1, 31559, Note_on_c, 0, 76, 0
1, 31560, Note_on_c, 0, 74, 80
1, 31919, Note_on_c, 0, 74, 0
1, 31920, Note_on_c, 0, 72, 80
1, 32159, Note_on_c, 0, 72, 0
1, 32160, Note_on_c, 0, 74, 80
1, 32399, Note_on_c, 0, 74, 0
1, 32400, Note_on_c, 0, 69, 80
1, 32879, Note_on_c, 0, 69, 0
1, 33120, Note_on_c, 0, 79, 80
1, 34319, Note_on_c, 0, 79, 0
1, 34320, Note_on_c, 0, 79, 80
1, 34439, Note_on_c, 0, 79, 0
1, 34440, Note_on_c, 0, 79, 80
1, 34799, Note_on_c, 0, 79, 0
1, 34800, Note_on_c, 0, 77, 80
1, 35039, Note_on_c, 0, 77, 0
1, 35040, Note_on_c, 0, 77, 80
1, 35279, Note_on_c, 0, 77, 0
1, 35280, Note_on_c, 0, 76, 80
1, 35399, Note_on_c, 0, 76, 0
1, 35400, Note_on_c, 0, 74, 80
1, 35759, Note_on_c, 0, 74, 0
1, 35760, Note_on_c, 0, 72, 80
1, 35999, Note_on_c, 0, 72, 0
1, 36000, Note_on_c, 0, 74, 80
1, 36239, Note_on_c, 0, 74, 0
1, 36240, Note_on_c, 0, 79, 80
1, 36479, Note_on_c, 0, 79, 0
1, 36480, Note_on_c, 0, 76, 80
1, 38399, Note_on_c, 0, 76, 0
1, 39120, Note_on_c, 0, 72, 80
1, 39239, Note_on_c, 0, 72, 0
1, 39240, Note_on_c, 0, 74, 80
1, 39359, Note_on_c, 0, 74, 0
1, 39360, Note_on_c, 0, 76, 80
1, 39599, Note_on_c, 0, 76, 0
1, 39600, Note_on_c, 0, 72, 80
1, 39839, Note_on_c, 0, 72, 0
1, 39840, Note_on_c, 0, 74, 80
1, 40079, Note_on_c, 0, 74, 0
1, 40080, Note_on_c, 0, 76, 80
1, 40319, Note_on_c, 0, 76, 0
1, 40560, Note_on_c, 0, 76, 80
1, 40799, Note_on_c, 0, 76, 0
1, 40800, Note_on_c, 0, 76, 80
1, 41039, Note_on_c, 0, 76, 0
1, 41040, Note_on_c, 0, 74, 80
1, 41159, Note_on_c, 0, 74, 0
1, 41160, Note_on_c, 0, 76, 80
1, 41399, Note_on_c, 0, 76, 0
1, 41400, Note_on_c, 0, 74, 80
1, 41759, Note_on_c, 0, 74, 0
1, 42480, Note_on_c, 0, 76, 80
1, 42719, Note_on_c, 0, 76, 0
1, 42720, Note_on_c, 0, 76, 80
1, 42959, Note_on_c, 0, 76, 0
1, 42960, Note_on_c, 0, 74, 80
1, 43079, Note_on_c, 0, 74, 0
1, 43080, Note_on_c, 0, 76, 80
1, 43439, Note_on_c, 0, 76, 0
1, 44400, Note_on_c, 0, 76, 80
1, 44639, Note_on_c, 0, 76, 0
1, 44640, Note_on_c, 0, 76, 80
1, 44879, Note_on_c, 0, 76, 0
1, 44880, Note_on_c, 0, 74, 80
1, 44999, Note_on_c, 0, 74, 0
1, 45000, Note_on_c, 0, 76, 80
1, 45239, Note_on_c, 0, 76, 0
1, 45240, Note_on_c, 0, 74, 80
1, 45599, Note_on_c, 0, 74, 0
1, 45840, Note_on_c, 0, 79, 80
1, 46319, Note_on_c, 0, 79, 0
1, 46320, Note_on_c, 0, 77, 80
1, 46439, Note_on_c, 0, 77, 0
1, 46440, Note_on_c, 0, 77, 80
1, 46559, Note_on_c, 0, 77, 0
1, 46560, Note_on_c, 0, 76, 80
1, 46799, Note_on_c, 0, 76, 0
1, 46800, Note_on_c, 0, 74, 80
1, 46919, Note_on_c, 0, 74, 0
1, 46920, Note_on_c, 0, 76, 80
1, 47519, Note_on_c, 0, 76, 0
1, 47520, Note_on_c, 0, 76, 80
1, 47999, Note_on_c, 0, 76, 0
1, 48000, Note_on_c, 0, 74, 80
1, 48959, Note_on_c, 0, 74, 0
1, 49440, Note_on_c, 0, 76, 80
1, 49919, Note_on_c, 0, 76, 0
1, 49920, Note_on_c, 0, 74, 80
1, 50639, Note_on_c, 0, 74, 0
1, 50640, Note_on_c, 0, 72, 80
1, 50759, Note_on_c, 0, 72, 0
1, 50760, Note_on_c, 0, 74, 80
1, 50879, Note_on_c, 0, 74, 0
1, 50880, Note_on_c, 0, 76, 80
1, 51119, Note_on_c, 0, 76, 0
1, 51120, Note_on_c, 0, 76, 80
1, 51359, Note_on_c, 0, 76, 0
1, 51360, Note_on_c, 0, 76, 80
1, 51839, Note_on_c, 0, 76, 0
1, 52080, Note_on_c, 0, 76, 80
1, 52319, Note_on_c, 0, 76, 0
1, 52320, Note_on_c, 0, 76, 80
1, 52559, Note_on_c, 0, 76, 0
1, 52560, Note_on_c, 0, 74, 80
1, 52679, Note_on_c, 0, 74, 0
1, 52680, Note_on_c, 0, 76, 80
1, 52919, Note_on_c, 0, 76, 0
1, 52920, Note_on_c, 0, 74, 80
1, 53279, Note_on_c, 0, 74, 0
1, 54000, Note_on_c, 0, 76, 80
1, 54239, Note_on_c, 0, 76, 0
1, 54240, Note_on_c, 0, 76, 80
1, 54479, Note_on_c, 0, 76, 0
1, 54480, Note_on_c, 0, 74, 80
1, 54599, Note_on_c, 0, 74, 0
1, 54600, Note_on_c, 0, 76, 80
1, 54959, Note_on_c, 0, 76, 0
1, 55920, Note_on_c, 0, 76, 80
1, 56159, Note_on_c, 0, 76, 0
1, 56160, Note_on_c, 0, 76, 80
1, 56399, Note_on_c, 0, 76, 0
1, 56400, Note_on_c, 0, 74, 80
1, 56519, Note_on_c, 0, 74, 0
1, 56520, Note_on_c, 0, 76, 80
1, 56759, Note_on_c, 0, 76, 0
1, 56760, Note_on_c, 0, 74, 80
1, 57119, Note_on_c, 0, 74, 0
1, 57360, Note_on_c, 0, 79, 80
1, 57839, Note_on_c, 0, 79, 0
1, 57840, Note_on_c, 0, 77, 80
1, 57959, Note_on_c, 0, 77, 0
1, 57960, Note_on_c, 0, 77, 80
1, 58079, Note_on_c, 0, 77, 0
1, 58080, Note_on_c, 0, 76, 80
1, 58319, Note_on_c, 0, 76, 0
1, 58320, Note_on_c, 0, 74, 80
1, 58439, Note_on_c, 0, 74, 0
1, 58440, Note_on_c, 0, 76, 80
1, 59039, Note_on_c, 0, 76, 0
1, 59040, Note_on_c, 0, 76, 80
1, 59519, Note_on_c, 0, 76, 0
1, 59520, Note_on_c, 0, 74, 80
1, 60479, Note_on_c, 0, 74, 0
1, 60960, Note_on_c, 0, 76, 80
1, 61439, Note_on_c, 0, 76, 0
1, 61440, Note_on_c, 0, 74, 80
1, 62159, Note_on_c, 0, 74, 0
1, 62160, Note_on_c, 0, 72, 80
1, 62279, Note_on_c, 0, 72, 0
1, 62280, Note_on_c, 0, 74, 80
1, 62399, Note_on_c, 0, 74, 0
1, 62400, Note_on_c, 0, 76, 80
1, 62639, Note_on_c, 0, 76, 0
1, 62640, Note_on_c, 0, 76, 80
1, 62879, Note_on_c, 0, 76, 0
1, 62880, Note_on_c, 0, 76, 80
1, 63359, Note_on_c, 0, 76, 0
1, 63360, Note_on_c, 0, 76, 80
1, 63719, Note_on_c, 0, 76, 0
1, 63720, Note_on_c, 0, 76, 80
1, 63839, Note_on_c, 0, 76, 0
1, 64080, Note_on_c, 0, 72, 80
1, 64319, Note_on_c, 0, 72, 0
1, 64320, Note_on_c, 0, 76, 80
1, 64799, Note_on_c, 0, 76, 0
1, 65040, Note_on_c, 0, 72, 80
1, 65159, Note_on_c, 0, 72, 0
1, 65160, Note_on_c, 0, 69, 80
1, 65279, Note_on_c, 0, 69, 0
1, 65280, Note_on_c, 0, 76, 80
1, 65759, Note_on_c, 0, 76, 0
1, 65760, Note_on_c, 0, 72, 80
1, 65879, Note_on_c, 0, 72, 0
1, 65880, Note_on_c, 0, 69, 80
1, 66239, Note_on_c, 0, 69, 0
1, 66960, Note_on_c, 0, 72, 80
1, 67199, Note_on_c, 0, 72, 0
1, 67200, Note_on_c, 0, 76, 80
1, 67559, Note_on_c, 0, 76, 0
1, 67560, Note_on_c, 0, 76, 80
1, 67679, Note_on_c, 0, 76, 0
1, 67920, Note_on_c, 0, 72, 80
1, 68159, Note_on_c, 0, 72, 0
1, 68160, Note_on_c, 0, 76, 80
1, 68639, Note_on_c, 0, 76, 0
1, 68880, Note_on_c, 0, 72, 80
1, 68999, Note_on_c, 0, 72, 0
1, 69000, Note_on_c, 0, 69, 80
1, 69119, Note_on_c, 0, 69, 0
1, 69120, Note_on_c, 0, 76, 80
1, 69599, Note_on_c, 0, 76, 0
1, 69600, Note_on_c, 0, 72, 80
1, 69719, Note_on_c, 0, 72, 0
1, 69720, Note_on_c, 0, 69, 80
1, 70079, Note_on_c, 0, 69, 0
1, 70920, Note_on_c, 0, 69, 80
1, 71039, Note_on_c, 0, 69, 0
1, 71040, Note_on_c, 0, 79, 80
1, 71159, Note_on_c, 0, 79, 0
1, 71160, Note_on_c, 0, 79, 80
1, 71279, Note_on_c, 0, 79, 0
1, 71280, Note_on_c, 0, 79, 80
1, 71399, Note_on_c, 0, 79, 0
1, 71400, Note_on_c, 0, 79, 80
1, 71519, Note_on_c, 0, 79, 0
1, 71520, Note_on_c, 0, 77, 80
1, 71639, Note_on_c, 0, 77, 0
1, 71640, Note_on_c, 0, 77, 80
1, 71759, Note_on_c, 0, 77, 0
1, 71760, Note_on_c, 0, 77, 80
1, 71879, Note_on_c, 0, 77, 0
1, 71880, Note_on_c, 0, 77, 80
1, 71999, Note_on_c, 0, 77, 0
1, 72000, Note_on_c, 0, 76, 80
1, 72239, Note_on_c, 0, 76, 0
1, 72240, Note_on_c, 0, 74, 80
1, 72479, Note_on_c, 0, 74, 0
1, 72840, Note_on_c, 0, 69, 80
1, 72959, Note_on_c, 0, 69, 0
1, 72960, Note_on_c, 0, 79, 80
1, 73079, Note_on_c, 0, 79, 0
1, 73080, Note_on_c, 0, 79, 80
1, 73199, Note_on_c, 0, 79, 0
1, 73200, Note_on_c, 0, 79, 80
1, 73319, Note_on_c, 0, 79, 0
1, 73320, Note_on_c, 0, 79, 80
1, 73439, Note_on_c, 0, 79, 0
1, 73440, Note_on_c, 0, 77, 80
1, 73559, Note_on_c, 0, 77, 0
1, 73560, Note_on_c, 0, 77, 80
1, 73679, Note_on_c, 0, 77, 0
1, 73680, Note_on_c, 0, 77, 80
1, 73799, Note_on_c, 0, 77, 0
1, 73800, Note_on_c, 0, 77, 80
1, 73919, Note_on_c, 0, 77, 0
1, 73920, Note_on_c, 0, 76, 80
1, 74159, Note_on_c, 0, 76, 0
1, 74160, Note_on_c, 0, 74, 80
1, 74399, Note_on_c, 0, 74, 0
1, 74760, Note_on_c, 0, 69, 80
1, 74879, Note_on_c, 0, 69, 0
1, 74880, Note_on_c, 0, 79, 80
1, 74999, Note_on_c, 0, 79, 0
1, 75000, Note_on_c, 0, 79, 80
1, 75119, Note_on_c, 0, 79, 0
1, 75120, Note_on_c, 0, 79, 80
1, 75239, Note_on_c, 0, 79, 0
1, 75240, Note_on_c, 0, 79, 80
1, 75359, Note_on_c, 0, 79, 0
1, 75360, Note_on_c, 0, 77, 80
1, 75479, Note_on_c, 0, 77, 0
1, 75480, Note_on_c, 0, 77, 80
1, 75599, Note_on_c, 0, 77, 0
1, 75600, Note_on_c, 0, 77, 80
1, 75719, Note_on_c, 0, 77, 0
1, 75720, Note_on_c, 0, 77, 80
1, 75839, Note_on_c, 0, 77, 0
1, 75840, Note_on_c, 0, 76, 80
1, 76079, Note_on_c, 0, 76, 0
1, 76080, Note_on_c, 0, 74, 80
1, 76319, Note_on_c, 0, 74, 0
1, 76560, Note_on_c, 0, 72, 80
1, 76679, Note_on_c, 0, 72, 0
1, 76680, Note_on_c, 0, 74, 80
1, 76799, Note_on_c, 0, 74, 0
1, 76800, Note_on_c, 0, 76, 80
1, 77039, Note_on_c, 0, 76, 0
1, 77040, Note_on_c, 0, 74, 80
1, 77279, Note_on_c, 0, 74, 0
1, 77520, Note_on_c, 0, 72, 80
1, 77639, Note_on_c, 0, 72, 0
1, 77640, Note_on_c, 0, 74, 80
1, 77759, Note_on_c, 0, 74, 0
1, 77760, Note_on_c, 0, 76, 80
1, 77999, Note_on_c, 0, 76, 0
1, 78000, Note_on_c, 0, 72, 80
1, 78239, Note_on_c, 0, 72, 0
1, 78240, Note_on_c, 0, 72, 80
1, 78719, Note_on_c, 0, 72, 0
1, 79200, Note_on_c, 0, 79, 80
1, 80399, Note_on_c, 0, 79, 0
1, 80400, Note_on_c, 0, 79, 80
1, 80519, Note_on_c, 0, 79, 0
1, 80520, Note_on_c, 0, 79, 80
1, 80879, Note_on_c, 0, 79, 0
1, 80880, Note_on_c, 0, 77, 80
1, 81119, Note_on_c, 0, 77, 0
1, 81120, Note_on_c, 0, 77, 80
1, 81359, Note_on_c, 0, 77, 0
1, 81360, Note_on_c, 0, 76, 80
1, 81479, Note_on_c, 0, 76, 0
1, 81480, Note_on_c, 0, 74, 80
1, 81839, Note_on_c, 0, 74, 0
1, 81840, Note_on_c, 0, 72, 80
1, 82079, Note_on_c, 0, 72, 0
1, 82080, Note_on_c, 0, 74, 80
1, 82319, Note_on_c, 0, 74, 0
1, 82320, Note_on_c, 0, 76, 80
1, 82799, Note_on_c, 0, 76, 0
1, 84240, Note_on_c, 0, 79, 80
1, 84359, Note_on_c, 0, 79, 0
1, 84360, Note_on_c, 0, 79, 80
1, 84719, Note_on_c, 0, 79, 0
1, 84720, Note_on_c, 0, 77, 80
1, 84959, Note_on_c, 0, 77, 0
1, 84960, Note_on_c, 0, 77, 80
1, 85199, Note_on_c, 0, 77, 0
1, 85200, Note_on_c, 0, 76, 80
1, 85319, Note_on_c, 0, 76, 0
1, 85320, Note_on_c, 0, 74, 80
1, 85679, Note_on_c, 0, 74, 0
1, 85680, Note_on_c, 0, 72, 80
1, 85919, Note_on_c, 0, 72, 0
1, 85920, Note_on_c, 0, 74, 80
1, 86159, Note_on_c, 0, 74, 0
1, 86160, Note_on_c, 0, 69, 80
1, 86639, Note_on_c, 0, 69, 0
1, 86880, Note_on_c, 0, 79, 80
1, 88079, Note_on_c, 0, 79, 0
1, 88080, Note_on_c, 0, 79, 80
1, 88199, Note_on_c, 0, 79, 0
1, 88200, Note_on_c, 0, 79, 80
1, 88559, Note_on_c, 0, 79, 0
1, 88560, Note_on_c, 0, 77, 80
1, 88799, Note_on_c, 0, 77, 0
1, 88800, Note_on_c, 0, 77, 80
1, 89039, Note_on_c, 0, 77, 0
1, 89040, Note_on_c, 0, 76, 80
1, 89159, Note_on_c, 0, 76, 0
1, 89160, Note_on_c, 0, 74, 80
1, 89519, Note_on_c, 0, 74, 0
1, 89520, Note_on_c, 0, 72, 80
1, 89759, Note_on_c, 0, 72, 0
1, 89760, Note_on_c, 0, 74, 80
1, 89999, Note_on_c, 0, 74, 0
1, 90000, Note_on_c, 0, 79, 80
1, 90239, Note_on_c, 0, 79, 0
1, 90240, Note_on_c, 0, 76, 80
1, 92159, Note_on_c, 0, 76, 0
1, 92880, Note_on_c, 0, 72, 80
1, 92999, Note_on_c, 0, 72, 0
1, 93000, Note_on_c, 0, 74, 80
1, 93119, Note_on_c, 0, 74, 0
1, 93120, Note_on_c, 0, 76, 80
1, 93359, Note_on_c, 0, 76, 0
1, 93360, Note_on_c, 0, 72, 80
1, 93599, Note_on_c, 0, 72, 0
1, 93600, Note_on_c, 0, 74, 80
1, 93839, Note_on_c, 0, 74, 0
1, 93840, Note_on_c, 0, 76, 80
1, 94079, Note_on_c, 0, 76, 0
1, 94320, Note_on_c, 0, 76, 80
1, 94559, Note_on_c, 0, 76, 0
1, 94560, Note_on_c, 0, 76, 80
1, 94799, Note_on_c, 0, 76, 0
1, 94800, Note_on_c, 0, 74, 80
1, 94919, Note_on_c, 0, 74, 0
1, 94920, Note_on_c, 0, 76, 80
1, 95159, Note_on_c, 0, 76, 0
1, 95160, Note_on_c, 0, 74, 80
1, 95519, Note_on_c, 0, 74, 0
1, 96240, Note_on_c, 0, 76, 80
1, 96479, Note_on_c, 0, 76, 0
1, 96480, Note_on_c, 0, 76, 80
1, 96719, Note_on_c, 0, 76, 0
1, 96720, Note_on_c, 0, 74, 80
1, 96839, Note_on_c, 0, 74, 0
1, 96840, Note_on_c, 0, 76, 80
1, 97199, Note_on_c, 0, 76, 0
1, 98160, Note_on_c, 0, 76, 80
1, 98399, Note_on_c, 0, 76, 0
1, 98400, Note_on_c, 0, 76, 80
1, 98639, Note_on_c, 0, 76, 0
1, 98640, Note_on_c, 0, 74, 80
1, 98759, Note_on_c, 0, 74, 0
1, 98760, Note_on_c, 0, 76, 80
1, 98999, Note_on_c, 0, 76, 0
1, 99000, Note_on_c, 0, 74, 80
1, 99359, Note_on_c, 0, 74, 0
1, 99600, Note_on_c, 0, 79, 80
1, 100079, Note_on_c, 0, 79, 0
1, 100080, Note_on_c, 0, 77, 80
1, 100199, Note_on_c, 0, 77, 0
1, 100200, Note_on_c, 0, 77, 80
1, 100319, Note_on_c, 0, 77, 0
1, 100320, Note_on_c, 0, 76, 80
1, 100559, Note_on_c, 0, 76, 0
1, 100560, Note_on_c, 0, 74, 80
1, 100679, Note_on_c, 0, 74, 0
1, 100680, Note_on_c, 0, 76, 80
1, 101279, Note_on_c, 0, 76, 0
1, 101280, Note_on_c, 0, 76, 80
1, 101759, Note_on_c, 0, 76, 0
1, 101760, Note_on_c, 0, 74, 80
1, 102719, Note_on_c, 0, 74, 0
1, 103200, Note_on_c, 0, 76, 80
1, 103679, Note_on_c, 0, 76, 0
1, 103680, Note_on_c, 0, 74, 80
1, 104399, Note_on_c, 0, 74, 0
1, 104400, Note_on_c, 0, 72, 80
1, 104519, Note_on_c, 0, 72, 0
1, 104520, Note_on_c, 0, 74, 80
1, 104639, Note_on_c, 0, 74, 0
1, 104640, Note_on_c, 0, 76, 80
1, 104879, Note_on_c, 0, 76, 0
1, 104880, Note_on_c, 0, 76, 80
1, 105119, Note_on_c, 0, 76, 0
1, 105120, Note_on_c, 0, 76, 80
1, 105599, Note_on_c, 0, 76, 0
1, 105840, Note_on_c, 0, 76, 80
1, 106079, Note_on_c, 0, 76, 0
1, 106080, Note_on_c, 0, 76, 80
1, 106319, Note_on_c, 0, 76, 0
1, 106320, Note_on_c, 0, 74, 80
1, 106439, Note_on_c, 0, 74, 0
1, 106440, Note_on_c, 0, 76, 80
1, 106679, Note_on_c, 0, 76, 0
1, 106680, Note_on_c, 0, 74, 80
1, 107039, Note_on_c, 0, 74, 0
1, 107760, Note_on_c, 0, 76, 80
1, 107999, Note_on_c, 0, 76, 0
1, 108000, Note_on_c, 0, 76, 80
1, 108239, Note_on_c, 0, 76, 0
1, 108240, Note_on_c, 0, 74, 80
1, 108359, Note_on_c, 0, 74, 0
1, 108360, Note_on_c, 0, 76, 80
1, 108719, Note_on_c, 0, 76, 0
1, 109680, Note_on_c, 0, 76, 80
1, 109919, Note_on_c, 0, 76, 0
1, 109920, Note_on_c, 0, 76, 80
1, 110159, Note_on_c, 0, 76, 0
1, 110160, Note_on_c, 0, 74, 80
1, 110279, Note_on_c, 0, 74, 0
1, 110280, Note_on_c, 0, 76, 80
1, 110519, Note_on_c, 0, 76, 0
1, 110520, Note_on_c, 0, 74, 80
1, 110879, Note_on_c, 0, 74, 0
1, 111120, Note_on_c, 0, 79, 80
1, 111599, Note_on_c, 0, 79, 0
1, 111600, Note_on_c, 0, 77, 80
1, 111719, Note_on_c, 0, 77, 0
1, 111720, Note_on_c, 0, 77, 80
1, 111839, Note_on_c, 0, 77, 0
1, 111840, Note_on_c, 0, 76, 80
1, 112079, Note_on_c, 0, 76, 0
1, 112080, Note_on_c, 0, 74, 80
1, 112199, Note_on_c, 0, 74, 0
1, 112200, Note_on_c, 0, 76, 80
1, 112799, Note_on_c, 0, 76, 0
1, 112800, Note_on_c, 0, 76, 80
1, 113279, Note_on_c, 0, 76, 0
1, 113280, Note_on_c, 0, 74, 80
1, 113759, Note_on_c, 0, 74, 0
1, 113760, Note_on_c, 0, 64, 80
1, 114239, Note_on_c, 0, 64, 0
1, 114240, Note_on_c, 0, 62, 80
1, 115199, Note_on_c, 0, 62, 0
1, 115200, Note_on_c, 0, 74, 80
1, 115919, Note_on_c, 0, 74, 0
1, 115920, Note_on_c, 0, 72, 80
1, 116039, Note_on_c, 0, 72, 0
1, 116040, Note_on_c, 0, 74, 80
1, 116159, Note_on_c, 0, 74, 0
1, 116160, Note_on_c, 0, 76, 80
1, 116399, Note_on_c, 0, 76, 0
1, 116400, Note_on_c, 0, 76, 80
1, 116639, Note_on_c, 0, 76, 0
1, 116640, Note_on_c, 0, 76, 80
1, 117119, Note_on_c, 0, 76, 0
1, 117120, End_track
2, 0, Start_track
2, 0, Title_t, "Piano, Minstrel\000"
2, 0, Key_signature, 0, "major"
2, 0, Control_c, 6, 121, 0
2, 0, Program_c, 6, 0
2, 0, Control_c, 6, 7, 100
2, 0, Control_c, 6, 10, 64
2, 0, Control_c, 6, 91, 0
2, 0, Control_c, 6, 93, 0
2, 0, MIDI_port, 0
2, 40320, Note_on_c, 6, 57, 80
2, 40547, Note_on_c, 6, 57, 0
2, 40560, Note_on_c, 6, 60, 80
2, 40560, Note_on_c, 6, 64, 80
2, 40787, Note_on_c, 6, 60, 0
2, 40787, Note_on_c, 6, 64, 0
2, 40800, Note_on_c, 6, 57, 80
2, 40913, Note_on_c, 6, 57, 0
2, 40920, Note_on_c, 6, 60, 80
2, 40920, Note_on_c, 6, 64, 80
2, 41099, Note_on_c, 6, 60, 0
2, 41099, Note_on_c, 6, 64, 0
2, 41280, Note_on_c, 6, 57, 80
2, 41507, Note_on_c, 6, 57, 0
2, 41520, Note_on_c, 6, 60, 80
2, 41520, Note_on_c, 6, 64, 80
2, 41747, Note_on_c, 6, 60, 0
2, 41747, Note_on_c, 6, 64, 0
2, 41760, Note_on_c, 6, 57, 80
2, 41873, Note_on_c, 6, 57, 0
2, 41880, Note_on_c, 6, 60, 80
2, 41880, Note_on_c, 6, 64, 80
2, 42059, Note_on_c, 6, 60, 0
2, 42059, Note_on_c, 6, 64, 0
2, 42240, Note_on_c, 6, 57, 80
2, 42467, Note_on_c, 6, 57, 0
2, 42480, Note_on_c, 6, 60, 80
2, 42480, Note_on_c, 6, 64, 80
2, 42707, Note_on_c, 6, 60, 0
2, 42707, Note_on_c, 6, 64, 0
2, 42720, Note_on_c, 6, 57, 80
2, 42833, Note_on_c, 6, 57, 0
2, 42840, Note_on_c, 6, 60, 80
2, 42840, Note_on_c, 6, 64, 80
2, 43019, Note_on_c, 6, 60, 0
2, 43019, Note_on_c, 6, 64, 0
2, 43200, Note_on_c, 6, 57, 80
2, 43427, Note_on_c, 6, 57, 0
2, 43440, Note_on_c, 6, 60, 80
2, 43440, Note_on_c, 6, 64, 80
2, 43667, Note_on_c, 6, 60, 0
2, 43667, Note_on_c, 6, 64, 0
2, 43680, Note_on_c, 6, 57, 80
2, 43793, Note_on_c, 6, 57, 0
2, 43800, Note_on_c, 6, 60, 80
2, 43800, Note_on_c, 6, 64, 80
2, 43979, Note_on_c, 6, 60, 0
2, 43979, Note_on_c, 6, 64, 0
2, 44160, Note_on_c, 6, 57, 80
2, 44387, Note_on_c, 6, 57, 0
2, 44400, Note_on_c, 6, 60, 80
2, 44400, Note_on_c, 6, 64, 80
2, 44627, Note_on_c, 6, 60, 0
2, 44627, Note_on_c, 6, 64, 0
2, 44640, Note_on_c, 6, 57, 80
2, 44753, Note_on_c, 6, 57, 0
2, 44760, Note_on_c, 6, 60, 80
2, 44760, Note_on_c, 6, 64, 80
2, 44939, Note_on_c, 6, 60, 0
2, 44939, Note_on_c, 6, 64, 0
2, 45120, Note_on_c, 6, 57, 80
2, 45347, Note_on_c, 6, 57, 0
2, 45360, Note_on_c, 6, 60, 80
2, 45360, Note_on_c, 6, 64, 80
2, 45587, Note_on_c, 6, 60, 0
2, 45587, Note_on_c, 6, 64, 0
2, 45600, Note_on_c, 6, 57, 80
2, 45713, Note_on_c, 6, 57, 0
2, 45720, Note_on_c, 6, 60, 80
2, 45720, Note_on_c, 6, 64, 80
2, 45899, Note_on_c, 6, 60, 0
2, 45899, Note_on_c, 6, 64, 0
2, 46080, Note_on_c, 6, 57, 80
2, 46307, Note_on_c, 6, 57, 0
2, 46320, Note_on_c, 6, 60, 80
2, 46320, Note_on_c, 6, 64, 80
2, 46547, Note_on_c, 6, 60, 0
2, 46547, Note_on_c, 6, 64, 0
2, 46560, Note_on_c, 6, 57, 80
2, 46673, Note_on_c, 6, 57, 0
2, 46680, Note_on_c, 6, 60, 80
2, 46680, Note_on_c, 6, 64, 80
2, 46859, Note_on_c, 6, 60, 0
2, 46859, Note_on_c, 6, 64, 0
2, 47040, Note_on_c, 6, 57, 80
2, 47267, Note_on_c, 6, 57, 0
2, 47280, Note_on_c, 6, 60, 80
2, 47280, Note_on_c, 6, 64, 80
2, 47507, Note_on_c, 6, 60, 0
2, 47507, Note_on_c, 6, 64, 0
2, 47520, Note_on_c, 6, 57, 80
2, 47633, Note_on_c, 6, 57, 0
2, 47640, Note_on_c, 6, 60, 80
2, 47640, Note_on_c, 6, 64, 80
2, 47819, Note_on_c, 6, 60, 0
2, 47819, Note_on_c, 6, 64, 0
2, 50880, Note_on_c, 6, 64, 80
2, 50880, Note_on_c, 6, 69, 80
2, 51107, Note_on_c, 6, 64, 0
2, 51107, Note_on_c, 6, 69, 0
2, 51120, Note_on_c, 6, 64, 80
2, 51120, Note_on_c, 6, 69, 80
2, 51347, Note_on_c, 6, 64, 0
2, 51347, Note_on_c, 6, 69, 0
2, 51360, Note_on_c, 6, 64, 80
2, 51360, Note_on_c, 6, 69, 80
2, 51599, Note_on_c, 6, 64, 0
2, 51599, Note_on_c, 6, 69, 0
2, 51840, Note_on_c, 6, 57, 80
2, 52067, Note_on_c, 6, 57, 0
2, 52080, Note_on_c, 6, 60, 80
2, 52080, Note_on_c, 6, 64, 80
2, 52307, Note_on_c, 6, 60, 0
2, 52307, Note_on_c, 6, 64, 0
2, 52320, Note_on_c, 6, 57, 80
2, 52433, Note_on_c, 6, 57, 0
2, 52440, Note_on_c, 6, 60, 80
2, 52440, Note_on_c, 6, 64, 80
2, 52619, Note_on_c, 6, 60, 0
2, 52619, Note_on_c, 6, 64, 0
2, 52800, Note_on_c, 6, 57, 80
2, 53027, Note_on_c, 6, 57, 0
2, 53040, Note_on_c, 6, 60, 80
2, 53040, Note_on_c, 6, 64, 80
2, 53267, Note_on_c, 6, 60, 0
2, 53267, Note_on_c, 6, 64, 0
2, 53280, Note_on_c, 6, 57, 80
2, 53393, Note_on_c, 6, 57, 0
2, 53400, Note_on_c, 6, 60, 80
2, 53400, Note_on_c, 6, 64, 80
2, 53579, Note_on_c, 6, 60, 0
2, 53579, Note_on_c, 6, 64, 0
2, 53760, Note_on_c, 6, 57, 80
2, 53987, Note_on_c, 6, 57, 0
2, 54000, Note_on_c, 6, 60, 80
2, 54000, Note_on_c, 6, 64, 80
2, 54227, Note_on_c, 6, 60, 0
2, 54227, Note_on_c, 6, 64, 0
2, 54240, Note_on_c, 6, 57, 80
2, 54353, Note_on_c, 6, 57, 0
2, 54360, Note_on_c, 6, 60, 80
2, 54360, Note_on_c, 6, 64, 80
2, 54539, Note_on_c, 6, 60, 0
2, 54539, Note_on_c, 6, 64, 0
2, 54720, Note_on_c, 6, 57, 80
2, 54947, Note_on_c, 6, 57, 0
2, 54960, Note_on_c, 6, 60, 80
2, 54960, Note_on_c, 6, 64, 80
2, 55187, Note_on_c, 6, 60, 0
2, 55187, Note_on_c, 6, 64, 0
2, 55200, Note_on_c, 6, 57, 80
2, 55313, Note_on_c, 6, 57, 0
2, 55320, Note_on_c, 6, 60, 80
2, 55320, Note_on_c, 6, 64, 80
2, 55499, Note_on_c, 6, 60, 0
2, 55499, Note_on_c, 6, 64, 0
2, 55680, Note_on_c, 6, 57, 80
2, 55907, Note_on_c, 6, 57, 0
2, 55920, Note_on_c, 6, 60, 80
2, 55920, Note_on_c, 6, 64, 80
2, 56147, Note_on_c, 6, 60, 0
2, 56147, Note_on_c, 6, 64, 0
2, 56160, Note_on_c, 6, 57, 80
2, 56273, Note_on_c, 6, 57, 0
2, 56280, Note_on_c, 6, 60, 80
2, 56280, Note_on_c, 6, 64, 80
2, 56459, Note_on_c, 6, 60, 0
2, 56459, Note_on_c, 6, 64, 0
2, 56640, Note_on_c, 6, 57, 80
2, 56867, Note_on_c, 6, 57, 0
2, 56880, Note_on_c, 6, 60, 80
2, 56880, Note_on_c, 6, 64, 80
2, 57107, Note_on_c, 6, 60, 0
2, 57107, Note_on_c, 6, 64, 0
2, 57120, Note_on_c, 6, 57, 80
2, 57233, Note_on_c, 6, 57, 0
2, 57240, Note_on_c, 6, 60, 80
2, 57240, Note_on_c, 6, 64, 80
2, 57419, Note_on_c, 6, 60, 0
2, 57419, Note_on_c, 6, 64, 0
2, 57600, Note_on_c, 6, 57, 80
2, 57827, Note_on_c, 6, 57, 0
2, 57840, Note_on_c, 6, 60, 80
2, 57840, Note_on_c, 6, 64, 80
2, 58067, Note_on_c, 6, 60, 0
2, 58067, Note_on_c, 6, 64, 0
2, 58080, Note_on_c, 6, 57, 80
2, 58193, Note_on_c, 6, 57, 0
2, 58200, Note_on_c, 6, 60, 80
2, 58200, Note_on_c, 6, 64, 80
2, 58379, Note_on_c, 6, 60, 0
2, 58379, Note_on_c, 6, 64, 0
2, 58560, Note_on_c, 6, 57, 80
2, 58787, Note_on_c, 6, 57, 0
2, 58800, Note_on_c, 6, 60, 80
2, 58800, Note_on_c, 6, 64, 80
2, 59027, Note_on_c, 6, 60, 0
2, 59027, Note_on_c, 6, 64, 0
2, 59040, Note_on_c, 6, 57, 80
2, 59153, Note_on_c, 6, 57, 0
2, 59160, Note_on_c, 6, 60, 80
2, 59160, Note_on_c, 6, 64, 80
2, 59339, Note_on_c, 6, 60, 0
2, 59339, Note_on_c, 6, 64, 0
2, 78720, Note_on_c, 6, 57, 80
2, 78833, Note_on_c, 6, 57, 0
2, 78840, Note_on_c, 6, 60, 80
2, 78953, Note_on_c, 6, 60, 0
2, 78960, Note_on_c, 6, 64, 80
2, 78960, Note_on_c, 6, 67, 80
2, 79301, Note_on_c, 6, 64, 0
2, 79301, Note_on_c, 6, 67, 0
2, 79320, Note_on_c, 6, 64, 80
2, 79320, Note_on_c, 6, 67, 80
2, 79547, Note_on_c, 6, 64, 0
2, 79547, Note_on_c, 6, 67, 0
2, 79560, Note_on_c, 6, 60, 80
2, 79673, Note_on_c, 6, 60, 0
2, 79680, Note_on_c, 6, 62, 80
2, 79680, Note_on_c, 6, 67, 80
2, 80021, Note_on_c, 6, 62, 0
2, 80021, Note_on_c, 6, 67, 0
2, 80040, Note_on_c, 6, 62, 80
2, 80040, Note_on_c, 6, 67, 80
2, 80381, Note_on_c, 6, 62, 0
2, 80381, Note_on_c, 6, 67, 0
2, 80400, Note_on_c, 6, 62, 80
2, 80400, Note_on_c, 6, 67, 80
2, 80627, Note_on_c, 6, 62, 0
2, 80627, Note_on_c, 6, 67, 0
2, 80640, Note_on_c, 6, 57, 80
2, 80867, Note_on_c, 6, 57, 0
2, 80880, Note_on_c, 6, 60, 80
2, 80880, Note_on_c, 6, 67, 80
2, 81107, Note_on_c, 6, 60, 0
2, 81107, Note_on_c, 6, 67, 0
2, 81240, Note_on_c, 6, 60, 80
2, 81240, Note_on_c, 6, 67, 80
2, 81467, Note_on_c, 6, 60, 0
2, 81467, Note_on_c, 6, 67, 0
2, 81480, Note_on_c, 6, 57, 80
2, 81593, Note_on_c, 6, 57, 0
2, 81600, Note_on_c, 6, 60, 80
2, 81600, Note_on_c, 6, 67, 80
2, 81779, Note_on_c, 6, 60, 0
2, 81779, Note_on_c, 6, 67, 0
2, 81960, Note_on_c, 6, 60, 80
2, 81960, Note_on_c, 6, 67, 80
2, 82301, Note_on_c, 6, 60, 0
2, 82301, Note_on_c, 6, 67, 0
2, 82320, Note_on_c, 6, 60, 80
2, 82547, Note_on_c, 6, 60, 0
2, 82560, Note_on_c, 6, 57, 80
2, 82673, Note_on_c, 6, 57, 0
2, 82680, Note_on_c, 6, 60, 80
2, 82793, Note_on_c, 6, 60, 0
2, 82800, Note_on_c, 6, 64, 80
2, 82800, Note_on_c, 6, 67, 80
2, 83141, Note_on_c, 6, 64, 0
2, 83141, Note_on_c, 6, 67, 0
2, 83160, Note_on_c, 6, 64, 80
2, 83160, Note_on_c, 6, 67, 80
2, 83387, Note_on_c, 6, 64, 0
2, 83387, Note_on_c, 6, 67, 0
2, 83400, Note_on_c, 6, 60, 80
2, 83513, Note_on_c, 6, 60, 0
2, 83520, Note_on_c, 6, 62, 80
2, 83520, Note_on_c, 6, 67, 80
2, 83861, Note_on_c, 6, 62, 0
2, 83861, Note_on_c, 6, 67, 0
2, 83880, Note_on_c, 6, 62, 80
2, 83880, Note_on_c, 6, 67, 80
2, 84221, Note_on_c, 6, 62, 0
2, 84221, Note_on_c, 6, 67, 0
2, 84240, Note_on_c, 6, 62, 80
2, 84240, Note_on_c, 6, 67, 80
2, 84467, Note_on_c, 6, 62, 0
2, 84467, Note_on_c, 6, 67, 0
2, 84480, Note_on_c, 6, 57, 80
2, 84707, Note_on_c, 6, 57, 0
2, 84720, Note_on_c, 6, 60, 80
2, 84720, Note_on_c, 6, 67, 80
2, 84947, Note_on_c, 6, 60, 0
2, 84947, Note_on_c, 6, 67, 0
2, 85080, Note_on_c, 6, 60, 80
2, 85080, Note_on_c, 6, 67, 80
2, 85307, Note_on_c, 6, 60, 0
2, 85307, Note_on_c, 6, 67, 0
2, 85320, Note_on_c, 6, 57, 80
2, 85433, Note_on_c, 6, 57, 0
2, 85440, Note_on_c, 6, 60, 80
2, 85440, Note_on_c, 6, 67, 80
2, 85619, Note_on_c, 6, 60, 0
2, 85619, Note_on_c, 6, 67, 0
2, 85800, Note_on_c, 6, 60, 80
2, 85800, Note_on_c, 6, 67, 80
2, 86141, Note_on_c, 6, 60, 0
2, 86141, Note_on_c, 6, 67, 0
2, 86160, Note_on_c, 6, 60, 80
2, 86387, Note_on_c, 6, 60, 0
2, 86400, Note_on_c, 6, 57, 80
2, 86513, Note_on_c, 6, 57, 0
2, 86520, Note_on_c, 6, 60, 80
2, 86633, Note_on_c, 6, 60, 0
2, 86640, Note_on_c, 6, 64, 80
2, 86640, Note_on_c, 6, 67, 80
2, 86981, Note_on_c, 6, 64, 0
2, 86981, Note_on_c, 6, 67, 0
2, 87000, Note_on_c, 6, 64, 80
2, 87000, Note_on_c, 6, 67, 80
2, 87227, Note_on_c, 6, 64, 0
2, 87227, Note_on_c, 6, 67, 0
2, 87240, Note_on_c, 6, 60, 80
2, 87353, Note_on_c, 6, 60, 0
2, 87360, Note_on_c, 6, 62, 80
2, 87360, Note_on_c, 6, 67, 80
2, 87701, Note_on_c, 6, 62, 0
2, 87701, Note_on_c, 6, 67, 0
2, 87720, Note_on_c, 6, 62, 80
2, 87720, Note_on_c, 6, 67, 80
2, 88061, Note_on_c, 6, 62, 0
2, 88061, Note_on_c, 6, 67, 0
2, 88080, Note_on_c, 6, 62, 80
2, 88080, Note_on_c, 6, 67, 80
2, 88307, Note_on_c, 6, 62, 0
2, 88307, Note_on_c, 6, 67, 0
2, 88320, Note_on_c, 6, 57, 80
2, 88547, Note_on_c, 6, 57, 0
2, 88560, Note_on_c, 6, 60, 80
2, 88560, Note_on_c, 6, 67, 80
2, 88787, Note_on_c, 6, 60, 0
2, 88787, Note_on_c, 6, 67, 0
2, 88920, Note_on_c, 6, 60, 80
2, 88920, Note_on_c, 6, 67, 80
2, 89147, Note_on_c, 6, 60, 0
2, 89147, Note_on_c, 6, 67, 0
2, 89160, Note_on_c, 6, 57, 80
2, 89273, Note_on_c, 6, 57, 0
2, 89280, Note_on_c, 6, 60, 80
2, 89280, Note_on_c, 6, 67, 80
2, 89459, Note_on_c, 6, 60, 0
2, 89459, Note_on_c, 6, 67, 0
2, 89640, Note_on_c, 6, 60, 80
2, 89640, Note_on_c, 6, 67, 80
2, 89981, Note_on_c, 6, 60, 0
2, 89981, Note_on_c, 6, 67, 0
2, 90000, Note_on_c, 6, 60, 80
2, 90227, Note_on_c, 6, 60, 0
2, 90240, Note_on_c, 6, 59, 80
2, 90240, Note_on_c, 6, 64, 80
2, 90695, Note_on_c, 6, 59, 0
2, 90695, Note_on_c, 6, 64, 0
2, 94080, Note_on_c, 6, 60, 80
2, 94080, Note_on_c, 6, 64, 80
2, 94535, Note_on_c, 6, 60, 0
2, 94535, Note_on_c, 6, 64, 0
2, 94560, Note_on_c, 6, 60, 80
2, 94560, Note_on_c, 6, 64, 80
2, 95015, Note_on_c, 6, 60, 0
2, 95015, Note_on_c, 6, 64, 0
2, 95040, Note_on_c, 6, 60, 80
2, 95040, Note_on_c, 6, 64, 80
2, 95495, Note_on_c, 6, 60, 0
2, 95495, Note_on_c, 6, 64, 0
2, 95520, Note_on_c, 6, 60, 80
2, 95520, Note_on_c, 6, 64, 80
2, 95975, Note_on_c, 6, 60, 0
2, 95975, Note_on_c, 6, 64, 0
2, 96000, Note_on_c, 6, 60, 80
2, 96000, Note_on_c, 6, 64, 80
2, 96455, Note_on_c, 6, 60, 0
2, 96455, Note_on_c, 6, 64, 0
2, 96480, Note_on_c, 6, 60, 80
2, 96480, Note_on_c, 6, 64, 80
2, 96935, Note_on_c, 6, 60, 0
2, 96935, Note_on_c, 6, 64, 0
2, 96960, Note_on_c, 6, 60, 80
2, 96960, Note_on_c, 6, 64, 80
2, 97415, Note_on_c, 6, 60, 0
2, 97415, Note_on_c, 6, 64, 0
2, 97440, Note_on_c, 6, 60, 80
2, 97440, Note_on_c, 6, 64, 80
2, 97895, Note_on_c, 6, 60, 0
2, 97895, Note_on_c, 6, 64, 0
2, 97920, Note_on_c, 6, 60, 80
2, 97920, Note_on_c, 6, 64, 80
2, 98375, Note_on_c, 6, 60, 0
2, 98375, Note_on_c, 6, 64, 0
2, 98400, Note_on_c, 6, 60, 80
2, 98400, Note_on_c, 6, 64, 80
2, 98855, Note_on_c, 6, 60, 0
2, 98855, Note_on_c, 6, 64, 0
2, 98880, Note_on_c, 6, 60, 80
2, 98880, Note_on_c, 6, 64, 80
2, 99335, Note_on_c, 6, 60, 0
2, 99335, Note_on_c, 6, 64, 0
2, 99360, Note_on_c, 6, 60, 80
2, 99360, Note_on_c, 6, 64, 80
2, 99815, Note_on_c, 6, 60, 0
2, 99815, Note_on_c, 6, 64, 0
2, 99840, Note_on_c, 6, 60, 80
2, 99840, Note_on_c, 6, 64, 80
2, 100295, Note_on_c, 6, 60, 0
2, 100295, Note_on_c, 6, 64, 0
2, 100320, Note_on_c, 6, 60, 80
2, 100320, Note_on_c, 6, 64, 80
2, 100775, Note_on_c, 6, 60, 0
2, 100775, Note_on_c, 6, 64, 0
2, 100800, Note_on_c, 6, 60, 80
2, 100800, Note_on_c, 6, 64, 80
2, 101255, Note_on_c, 6, 60, 0
2, 101255, Note_on_c, 6, 64, 0
2, 101280, Note_on_c, 6, 60, 80
2, 101280, Note_on_c, 6, 64, 80
2, 101735, Note_on_c, 6, 60, 0
2, 101735, Note_on_c, 6, 64, 0
2, 101736, End_track
3, 0, Start_track
3, 0, Title_t, "Electric Bass, Bass\000"
3, 0, Key_signature, 0, "major"
3, 0, Control_c, 3, 121, 0
3, 0, Program_c, 3, 33
3, 0, Control_c, 3, 7, 100
3, 0, Control_c, 3, 10, 64
3, 0, Control_c, 3, 91, 0
3, 0, Control_c, 3, 93, 0
3, 0, MIDI_port, 0
3, 0, Control_c, 7, 121, 0
3, 0, Program_c, 7, 36
3, 0, Control_c, 7, 7, 100
3, 0, Control_c, 7, 10, 64
3, 0, Control_c, 7, 91, 0
3, 0, Control_c, 7, 93, 0
3, 0, MIDI_port, 0
3, 0, Control_c, 8, 121, 0
3, 0, Program_c, 8, 37
3, 0, Control_c, 8, 7, 100
3, 0, Control_c, 8, 10, 64
3, 0, Control_c, 8, 91, 0
3, 0, Control_c, 8, 93, 0
3, 0, MIDI_port, 0
3, 1680, Note_on_c, 3, 60, 80
3, 1799, Note_on_c, 3, 60, 0
3, 1800, Note_on_c, 3, 62, 80
3, 1919, Note_on_c, 3, 62, 0
3, 1920, Note_on_c, 3, 50, 80
3, 2399, Note_on_c, 3, 50, 0
3, 2400, Note_on_c, 3, 50, 80
3, 2879, Note_on_c, 3, 50, 0
3, 2880, Note_on_c, 3, 50, 80
3, 3359, Note_on_c, 3, 50, 0
3, 3360, Note_on_c, 3, 50, 80
3, 3839, Note_on_c, 3, 50, 0
3, 3840, Note_on_c, 3, 50, 80
3, 4319, Note_on_c, 3, 50, 0
3, 4320, Note_on_c, 3, 50, 80
3, 4679, Note_on_c, 3, 50, 0
3, 4680, Note_on_c, 3, 60, 80
3, 4799, Note_on_c, 3, 60, 0
3, 4800, Note_on_c, 3, 65, 80
3, 4919, Note_on_c, 3, 65, 0
3, 4920, Note_on_c, 3, 65, 80
3, 5039, Note_on_c, 3, 65, 0
3, 5040, Note_on_c, 3, 64, 80
3, 5279, Note_on_c, 3, 64, 0
3, 5280, Note_on_c, 3, 62, 80
3, 5519, Note_on_c, 3, 62, 0
3, 5520, Note_on_c, 3, 60, 80
3, 5639, Note_on_c, 3, 60, 0
3, 5640, Note_on_c, 3, 62, 80
3, 5759, Note_on_c, 3, 62, 0
3, 5760, Note_on_c, 3, 50, 80
3, 6239, Note_on_c, 3, 50, 0
3, 6240, Note_on_c, 3, 50, 80
3, 6719, Note_on_c, 3, 50, 0
3, 6720, Note_on_c, 3, 50, 80
3, 7199, Note_on_c, 3, 50, 0
3, 7200, Note_on_c, 3, 50, 80
3, 7679, Note_on_c, 3, 50, 0
3, 7680, Note_on_c, 3, 50, 80
3, 8159, Note_on_c, 3, 50, 0
3, 8160, Note_on_c, 3, 50, 80
3, 8399, Note_on_c, 3, 50, 0
3, 8400, Note_on_c, 3, 50, 80
3, 8519, Note_on_c, 3, 50, 0
3, 8520, Note_on_c, 3, 55, 80
3, 8639, Note_on_c, 3, 55, 0
3, 8640, Note_on_c, 3, 57, 80
3, 8879, Note_on_c, 3, 57, 0
3, 8880, Note_on_c, 3, 57, 80
3, 9119, Note_on_c, 3, 57, 0
3, 9120, Note_on_c, 3, 57, 80
3, 9599, Note_on_c, 3, 57, 0
3, 9600, Note_on_c, 3, 57, 80
3, 10079, Note_on_c, 3, 57, 0
3, 10080, Note_on_c, 3, 57, 80
3, 10559, Note_on_c, 3, 57, 0
3, 10560, Note_on_c, 3, 57, 80
3, 11039, Note_on_c, 3, 57, 0
3, 11040, Note_on_c, 3, 57, 80
3, 11519, Note_on_c, 3, 57, 0
3, 11520, Note_on_c, 3, 57, 80
3, 11999, Note_on_c, 3, 57, 0
3, 12000, Note_on_c, 3, 57, 80
3, 12479, Note_on_c, 3, 57, 0
3, 12480, Note_on_c, 3, 57, 80
3, 12959, Note_on_c, 3, 57, 0
3, 12960, Note_on_c, 3, 57, 80
3, 13439, Note_on_c, 3, 57, 0
3, 13440, Note_on_c, 3, 57, 80
3, 13919, Note_on_c, 3, 57, 0
3, 13920, Note_on_c, 3, 57, 80
3, 14399, Note_on_c, 3, 57, 0
3, 14400, Note_on_c, 3, 57, 80
3, 14879, Note_on_c, 3, 57, 0
3, 14880, Note_on_c, 3, 57, 80
3, 15359, Note_on_c, 3, 57, 0
3, 15360, Note_on_c, 3, 57, 80
3, 15839, Note_on_c, 3, 57, 0
3, 15840, Note_on_c, 3, 57, 80
3, 16319, Note_on_c, 3, 57, 0
3, 16320, Note_on_c, 3, 57, 80
3, 16559, Note_on_c, 3, 57, 0
3, 16560, Note_on_c, 3, 57, 80
3, 16799, Note_on_c, 3, 57, 0
3, 16800, Note_on_c, 3, 57, 80
3, 17279, Note_on_c, 3, 57, 0
3, 17280, Note_on_c, 3, 50, 80
3, 17759, Note_on_c, 3, 50, 0
3, 17760, Note_on_c, 3, 50, 80
3, 18239, Note_on_c, 3, 50, 0
3, 18240, Note_on_c, 3, 50, 80
3, 18719, Note_on_c, 3, 50, 0
3, 18720, Note_on_c, 3, 50, 80
3, 19199, Note_on_c, 3, 50, 0
3, 19200, Note_on_c, 3, 50, 80
3, 19679, Note_on_c, 3, 50, 0
3, 19680, Note_on_c, 3, 50, 80
3, 20159, Note_on_c, 3, 50, 0
3, 20160, Note_on_c, 3, 50, 80
3, 20639, Note_on_c, 3, 50, 0
3, 20640, Note_on_c, 3, 50, 80
3, 21119, Note_on_c, 3, 50, 0
3, 21120, Note_on_c, 3, 50, 80
3, 21599, Note_on_c, 3, 50, 0
3, 21600, Note_on_c, 3, 50, 80
3, 22079, Note_on_c, 3, 50, 0
3, 22080, Note_on_c, 3, 50, 80
3, 22559, Note_on_c, 3, 50, 0
3, 22560, Note_on_c, 3, 50, 80
3, 23039, Note_on_c, 3, 50, 0
3, 23040, Note_on_c, 3, 50, 80
3, 23519, Note_on_c, 3, 50, 0
3, 23520, Note_on_c, 3, 50, 80
3, 23999, Note_on_c, 3, 50, 0
3, 24000, Note_on_c, 3, 57, 80
3, 24239, Note_on_c, 3, 57, 0
3, 24240, Note_on_c, 3, 57, 80
3, 24479, Note_on_c, 3, 57, 0
3, 24480, Note_on_c, 3, 57, 80
3, 24959, Note_on_c, 3, 57, 0
3, 24960, Note_on_c, 3, 53, 80
3, 25199, Note_on_c, 3, 53, 0
3, 25200, Note_on_c, 3, 53, 80
3, 25439, Note_on_c, 3, 53, 0
3, 25560, Note_on_c, 3, 53, 80
3, 25919, Note_on_c, 3, 53, 0
3, 25920, Note_on_c, 3, 52, 80
3, 26279, Note_on_c, 3, 52, 0
3, 26280, Note_on_c, 3, 52, 80
3, 26399, Note_on_c, 3, 52, 0
3, 26880, Note_on_c, 3, 50, 80
3, 27119, Note_on_c, 3, 50, 0
3, 27120, Note_on_c, 3, 50, 80
3, 27359, Note_on_c, 3, 50, 0
3, 27480, Note_on_c, 3, 50, 80
3, 27839, Note_on_c, 3, 50, 0
3, 27840, Note_on_c, 3, 50, 80
3, 28199, Note_on_c, 3, 50, 0
3, 28200, Note_on_c, 3, 50, 80
3, 28319, Note_on_c, 3, 50, 0
3, 28800, Note_on_c, 3, 53, 80
3, 29039, Note_on_c, 3, 53, 0
3, 29040, Note_on_c, 3, 53, 80
3, 29279, Note_on_c, 3, 53, 0
3, 29400, Note_on_c, 3, 53, 80
3, 29759, Note_on_c, 3, 53, 0
3, 29760, Note_on_c, 3, 52, 80
3, 30119, Note_on_c, 3, 52, 0
3, 30120, Note_on_c, 3, 52, 80
3, 30239, Note_on_c, 3, 52, 0
3, 30720, Note_on_c, 3, 50, 80
3, 30959, Note_on_c, 3, 50, 0
3, 30960, Note_on_c, 3, 50, 80
3, 31199, Note_on_c, 3, 50, 0
3, 31320, Note_on_c, 3, 50, 80
3, 31679, Note_on_c, 3, 50, 0
3, 31680, Note_on_c, 3, 50, 80
3, 32039, Note_on_c, 3, 50, 0
3, 32040, Note_on_c, 3, 50, 80
3, 32159, Note_on_c, 3, 50, 0
3, 32640, Note_on_c, 3, 53, 80
3, 32879, Note_on_c, 3, 53, 0
3, 32880, Note_on_c, 3, 53, 80
3, 33119, Note_on_c, 3, 53, 0
3, 33240, Note_on_c, 3, 53, 80
3, 33599, Note_on_c, 3, 53, 0
3, 33600, Note_on_c, 3, 52, 80
3, 33959, Note_on_c, 3, 52, 0
3, 33960, Note_on_c, 3, 52, 80
3, 34079, Note_on_c, 3, 52, 0
3, 34560, Note_on_c, 3, 50, 80
3, 34799, Note_on_c, 3, 50, 0
3, 34800, Note_on_c, 3, 50, 80
3, 35039, Note_on_c, 3, 50, 0
3, 35160, Note_on_c, 3, 50, 80
3, 35519, Note_on_c, 3, 50, 0
3, 35520, Note_on_c, 3, 50, 80
3, 35879, Note_on_c, 3, 50, 0
3, 35880, Note_on_c, 3, 50, 80
3, 35999, Note_on_c, 3, 50, 0
3, 36480, Note_on_c, 3, 60, 80
3, 38399, Note_on_c, 3, 60, 0
3, 40080, Note_on_c, 3, 60, 80
3, 40199, Note_on_c, 3, 60, 0
3, 40200, Note_on_c, 3, 62, 80
3, 40319, Note_on_c, 3, 62, 0
3, 40320, Note_on_c, 3, 50, 80
3, 40799, Note_on_c, 3, 50, 0
3, 40800, Note_on_c, 3, 50, 80
3, 41279, Note_on_c, 3, 50, 0
3, 41280, Note_on_c, 3, 50, 80
3, 41759, Note_on_c, 3, 50, 0
3, 41760, Note_on_c, 3, 50, 80
3, 42239, Note_on_c, 3, 50, 0
3, 42240, Note_on_c, 3, 50, 80
3, 42719, Note_on_c, 3, 50, 0
3, 42720, Note_on_c, 3, 50, 80
3, 43079, Note_on_c, 3, 50, 0
3, 43080, Note_on_c, 3, 60, 80
3, 43199, Note_on_c, 3, 60, 0
3, 43200, Note_on_c, 3, 65, 80
3, 43319, Note_on_c, 3, 65, 0
3, 43320, Note_on_c, 3, 65, 80
3, 43439, Note_on_c, 3, 65, 0
3, 43440, Note_on_c, 3, 64, 80
3, 43679, Note_on_c, 3, 64, 0
3, 43680, Note_on_c, 3, 62, 80
3, 43919, Note_on_c, 3, 62, 0
3, 43920, Note_on_c, 3, 60, 80
3, 44039, Note_on_c, 3, 60, 0
3, 44040, Note_on_c, 3, 62, 80
3, 44159, Note_on_c, 3, 62, 0
3, 44160, Note_on_c, 3, 50, 80
3, 44639, Note_on_c, 3, 50, 0
3, 44640, Note_on_c, 3, 50, 80
3, 45119, Note_on_c, 3, 50, 0
3, 45120, Note_on_c, 3, 50, 80
3, 45599, Note_on_c, 3, 50, 0
3, 45600, Note_on_c, 3, 50, 80
3, 46079, Note_on_c, 3, 50, 0
3, 46080, Note_on_c, 3, 50, 80
3, 46559, Note_on_c, 3, 50, 0
3, 46560, Note_on_c, 3, 50, 80
3, 47039, Note_on_c, 3, 50, 0
3, 47040, Note_on_c, 3, 50, 80
3, 47519, Note_on_c, 3, 50, 0
3, 47520, Note_on_c, 3, 50, 80
3, 47999, Note_on_c, 3, 50, 0
3, 48000, Note_on_c, 3, 53, 80
3, 49919, Note_on_c, 3, 53, 0
3, 49920, Note_on_c, 3, 55, 80
3, 50399, Note_on_c, 3, 55, 0
3, 50880, Note_on_c, 3, 57, 80
3, 51119, Note_on_c, 3, 57, 0
3, 51120, Note_on_c, 3, 57, 80
3, 51359, Note_on_c, 3, 57, 0
3, 51360, Note_on_c, 3, 57, 80
3, 51839, Note_on_c, 3, 57, 0
3, 51840, Note_on_c, 3, 50, 80
3, 52319, Note_on_c, 3, 50, 0
3, 52320, Note_on_c, 3, 50, 80
3, 52799, Note_on_c, 3, 50, 0
3, 52800, Note_on_c, 3, 50, 80
3, 53279, Note_on_c, 3, 50, 0
3, 53280, Note_on_c, 3, 50, 80
3, 53759, Note_on_c, 3, 50, 0
3, 53760, Note_on_c, 3, 50, 80
3, 54239, Note_on_c, 3, 50, 0
3, 54240, Note_on_c, 3, 50, 80
3, 54599, Note_on_c, 3, 50, 0
3, 54600, Note_on_c, 3, 60, 80
3, 54719, Note_on_c, 3, 60, 0
3, 54720, Note_on_c, 3, 65, 80
3, 54839, Note_on_c, 3, 65, 0
3, 54840, Note_on_c, 3, 65, 80
3, 54959, Note_on_c, 3, 65, 0
3, 54960, Note_on_c, 3, 64, 80
3, 55199, Note_on_c, 3, 64, 0
3, 55200, Note_on_c, 3, 62, 80
3, 55439, Note_on_c, 3, 62, 0
3, 55440, Note_on_c, 3, 60, 80
3, 55559, Note_on_c, 3, 60, 0
3, 55560, Note_on_c, 3, 62, 80
3, 55679, Note_on_c, 3, 62, 0
3, 55680, Note_on_c, 3, 50, 80
3, 56159, Note_on_c, 3, 50, 0
3, 56160, Note_on_c, 3, 50, 80
3, 56639, Note_on_c, 3, 50, 0
3, 56640, Note_on_c, 3, 50, 80
3, 57119, Note_on_c, 3, 50, 0
3, 57120, Note_on_c, 3, 50, 80
3, 57599, Note_on_c, 3, 50, 0
3, 57600, Note_on_c, 3, 50, 80
3, 58079, Note_on_c, 3, 50, 0
3, 58080, Note_on_c, 3, 50, 80
3, 58559, Note_on_c, 3, 50, 0
3, 58560, Note_on_c, 3, 50, 80
3, 59039, Note_on_c, 3, 50, 0
3, 59040, Note_on_c, 3, 50, 80
3, 59519, Note_on_c, 3, 50, 0
3, 59520, Note_on_c, 3, 53, 80
3, 61439, Note_on_c, 3, 53, 0
3, 61440, Note_on_c, 3, 55, 80
3, 61919, Note_on_c, 3, 55, 0
3, 62400, Note_on_c, 3, 57, 80
3, 62639, Note_on_c, 3, 57, 0
3, 62640, Note_on_c, 3, 57, 80
3, 62879, Note_on_c, 3, 57, 0
3, 62880, Note_on_c, 3, 57, 80
3, 63359, Note_on_c, 3, 57, 0
3, 63360, Note_on_c, 3, 57, 80
3, 63839, Note_on_c, 3, 57, 0
3, 63840, Note_on_c, 3, 57, 80
3, 64319, Note_on_c, 3, 57, 0
3, 64320, Note_on_c, 3, 57, 80
3, 64799, Note_on_c, 3, 57, 0
3, 64800, Note_on_c, 3, 57, 80
3, 65279, Note_on_c, 3, 57, 0
3, 65280, Note_on_c, 3, 57, 80
3, 65759, Note_on_c, 3, 57, 0
3, 65760, Note_on_c, 3, 57, 80
3, 66239, Note_on_c, 3, 57, 0
3, 66240, Note_on_c, 3, 57, 80
3, 66719, Note_on_c, 3, 57, 0
3, 66720, Note_on_c, 3, 57, 80
3, 67199, Note_on_c, 3, 57, 0
3, 67200, Note_on_c, 3, 57, 80
3, 67679, Note_on_c, 3, 57, 0
3, 67680, Note_on_c, 3, 57, 80
3, 68159, Note_on_c, 3, 57, 0
3, 68160, Note_on_c, 3, 57, 80
3, 68639, Note_on_c, 3, 57, 0
3, 68640, Note_on_c, 3, 57, 80
3, 69119, Note_on_c, 3, 57, 0
3, 69120, Note_on_c, 3, 57, 80
3, 69599, Note_on_c, 3, 57, 0
3, 69600, Note_on_c, 3, 57, 80
3, 70079, Note_on_c, 3, 57, 0
3, 70080, Note_on_c, 3, 57, 80
3, 70319, Note_on_c, 3, 57, 0
3, 70320, Note_on_c, 3, 57, 80
3, 70559, Note_on_c, 3, 57, 0
3, 70560, Note_on_c, 3, 57, 80
3, 71039, Note_on_c, 3, 57, 0
3, 71040, Note_on_c, 3, 50, 80
3, 71519, Note_on_c, 3, 50, 0
3, 71520, Note_on_c, 3, 50, 80
3, 71999, Note_on_c, 3, 50, 0
3, 72000, Note_on_c, 3, 50, 80
3, 72479, Note_on_c, 3, 50, 0
3, 72480, Note_on_c, 3, 50, 80
3, 72959, Note_on_c, 3, 50, 0
3, 72960, Note_on_c, 3, 50, 80
3, 73439, Note_on_c, 3, 50, 0
3, 73440, Note_on_c, 3, 50, 80
3, 73919, Note_on_c, 3, 50, 0
3, 73920, Note_on_c, 3, 50, 80
3, 74399, Note_on_c, 3, 50, 0
3, 74400, Note_on_c, 3, 50, 80
3, 74879, Note_on_c, 3, 50, 0
3, 74880, Note_on_c, 3, 50, 80
3, 75359, Note_on_c, 3, 50, 0
3, 75360, Note_on_c, 3, 50, 80
3, 75839, Note_on_c, 3, 50, 0
3, 75840, Note_on_c, 3, 50, 80
3, 76319, Note_on_c, 3, 50, 0
3, 76320, Note_on_c, 3, 50, 80
3, 76799, Note_on_c, 3, 50, 0
3, 76800, Note_on_c, 3, 50, 80
3, 77279, Note_on_c, 3, 50, 0
3, 77280, Note_on_c, 3, 50, 80
3, 77759, Note_on_c, 3, 50, 0
3, 77760, Note_on_c, 3, 57, 80
3, 77999, Note_on_c, 3, 57, 0
3, 78000, Note_on_c, 3, 57, 80
3, 78239, Note_on_c, 3, 57, 0
3, 78240, Note_on_c, 3, 57, 80
3, 78719, Note_on_c, 3, 57, 0
3, 78720, Note_on_c, 3, 53, 80
3, 78959, Note_on_c, 3, 53, 0
3, 78960, Note_on_c, 3, 53, 80
3, 79199, Note_on_c, 3, 53, 0
3, 79320, Note_on_c, 3, 53, 80
3, 79679, Note_on_c, 3, 53, 0
3, 79680, Note_on_c, 3, 52, 80
3, 80039, Note_on_c, 3, 52, 0
3, 80040, Note_on_c, 3, 52, 80
3, 80159, Note_on_c, 3, 52, 0
3, 80640, Note_on_c, 3, 50, 80
3, 80879, Note_on_c, 3, 50, 0
3, 80880, Note_on_c, 3, 50, 80
3, 81119, Note_on_c, 3, 50, 0
3, 81240, Note_on_c, 3, 50, 80
3, 81599, Note_on_c, 3, 50, 0
3, 81600, Note_on_c, 3, 50, 80
3, 81959, Note_on_c, 3, 50, 0
3, 81960, Note_on_c, 3, 50, 80
3, 82079, Note_on_c, 3, 50, 0
3, 82560, Note_on_c, 3, 53, 80
3, 82799, Note_on_c, 3, 53, 0
3, 82800, Note_on_c, 3, 53, 80
3, 83039, Note_on_c, 3, 53, 0
3, 83160, Note_on_c, 3, 53, 80
3, 83519, Note_on_c, 3, 53, 0
3, 83520, Note_on_c, 3, 52, 80
3, 83879, Note_on_c, 3, 52, 0
3, 83880, Note_on_c, 3, 52, 80
3, 83999, Note_on_c, 3, 52, 0
3, 84480, Note_on_c, 3, 50, 80
3, 84719, Note_on_c, 3, 50, 0
3, 84720, Note_on_c, 3, 50, 80
3, 84959, Note_on_c, 3, 50, 0
3, 85080, Note_on_c, 3, 50, 80
3, 85439, Note_on_c, 3, 50, 0
3, 85440, Note_on_c, 3, 50, 80
3, 85799, Note_on_c, 3, 50, 0
3, 85800, Note_on_c, 3, 50, 80
3, 85919, Note_on_c, 3, 50, 0
3, 86400, Note_on_c, 3, 53, 80
3, 86639, Note_on_c, 3, 53, 0
3, 86640, Note_on_c, 3, 53, 80
3, 86879, Note_on_c, 3, 53, 0
3, 87000, Note_on_c, 3, 53, 80
3, 87359, Note_on_c, 3, 53, 0
3, 87360, Note_on_c, 3, 52, 80
3, 87719, Note_on_c, 3, 52, 0
3, 87720, Note_on_c, 3, 52, 80
3, 87839, Note_on_c, 3, 52, 0
3, 88320, Note_on_c, 3, 50, 80
3, 88559, Note_on_c, 3, 50, 0
3, 88560, Note_on_c, 3, 50, 80
3, 88799, Note_on_c, 3, 50, 0
3, 88920, Note_on_c, 3, 50, 80
3, 89279, Note_on_c, 3, 50, 0
3, 89280, Note_on_c, 3, 50, 80
3, 89639, Note_on_c, 3, 50, 0
3, 89640, Note_on_c, 3, 50, 80
3, 89759, Note_on_c, 3, 50, 0
3, 90240, Note_on_c, 3, 60, 80
3, 92159, Note_on_c, 3, 60, 0
3, 94080, Note_on_c, 3, 50, 80
3, 94559, Note_on_c, 3, 50, 0
3, 94560, Note_on_c, 3, 50, 80
3, 95039, Note_on_c, 3, 50, 0
3, 95040, Note_on_c, 3, 50, 80
3, 95519, Note_on_c, 3, 50, 0
3, 95520, Note_on_c, 3, 50, 80
3, 95999, Note_on_c, 3, 50, 0
3, 96000, Note_on_c, 3, 50, 80
3, 96479, Note_on_c, 3, 50, 0
3, 96480, Note_on_c, 3, 50, 80
3, 96959, Note_on_c, 3, 50, 0
3, 96960, Note_on_c, 3, 50, 80
3, 97439, Note_on_c, 3, 50, 0
3, 97440, Note_on_c, 3, 50, 80
3, 97919, Note_on_c, 3, 50, 0
3, 97920, Note_on_c, 3, 50, 80
3, 98399, Note_on_c, 3, 50, 0
3, 98400, Note_on_c, 3, 50, 80
3, 98879, Note_on_c, 3, 50, 0
3, 98880, Note_on_c, 3, 50, 80
3, 99359, Note_on_c, 3, 50, 0
3, 99360, Note_on_c, 3, 50, 80
3, 99839, Note_on_c, 3, 50, 0
3, 99840, Note_on_c, 3, 50, 80
3, 100319, Note_on_c, 3, 50, 0
3, 100320, Note_on_c, 3, 50, 80
3, 100799, Note_on_c, 3, 50, 0
3, 100800, Note_on_c, 3, 50, 80
3, 101279, Note_on_c, 3, 50, 0
3, 101280, Note_on_c, 3, 50, 80
3, 101759, Note_on_c, 3, 50, 0
3, 101760, Note_on_c, 3, 53, 80
3, 103679, Note_on_c, 3, 53, 0
3, 103680, Note_on_c, 3, 55, 80
3, 104159, Note_on_c, 3, 55, 0
3, 104640, Note_on_c, 3, 57, 80
3, 104879, Note_on_c, 3, 57, 0
3, 104880, Note_on_c, 3, 57, 80
3, 105119, Note_on_c, 3, 57, 0
3, 105120, Note_on_c, 3, 57, 80
3, 105599, Note_on_c, 3, 57, 0
3, 105600, Note_on_c, 3, 50, 80
3, 106079, Note_on_c, 3, 50, 0
3, 106080, Note_on_c, 3, 50, 80
3, 106559, Note_on_c, 3, 50, 0
3, 106560, Note_on_c, 3, 50, 80
3, 107039, Note_on_c, 3, 50, 0
3, 107040, Note_on_c, 3, 50, 80
3, 107519, Note_on_c, 3, 50, 0
3, 107520, Note_on_c, 3, 50, 80
3, 107999, Note_on_c, 3, 50, 0
3, 108000, Note_on_c, 3, 50, 80
3, 108479, Note_on_c, 3, 50, 0
3, 108480, Note_on_c, 3, 50, 80
3, 108959, Note_on_c, 3, 50, 0
3, 108960, Note_on_c, 3, 50, 80
3, 109439, Note_on_c, 3, 50, 0
3, 109440, Note_on_c, 3, 50, 80
3, 109919, Note_on_c, 3, 50, 0
3, 109920, Note_on_c, 3, 50, 80
3, 110399, Note_on_c, 3, 50, 0
3, 110400, Note_on_c, 3, 50, 80
3, 110879, Note_on_c, 3, 50, 0
3, 110880, Note_on_c, 3, 50, 80
3, 111359, Note_on_c, 3, 50, 0
3, 111360, Note_on_c, 3, 50, 80
3, 111839, Note_on_c, 3, 50, 0
3, 111840, Note_on_c, 3, 50, 80
3, 112319, Note_on_c, 3, 50, 0
3, 112320, Note_on_c, 3, 50, 80
3, 112799, Note_on_c, 3, 50, 0
3, 112800, Note_on_c, 3, 50, 80
3, 113279, Note_on_c, 3, 50, 0
3, 113280, Note_on_c, 3, 53, 80
3, 115199, Note_on_c, 3, 53, 0
3, 115200, Note_on_c, 3, 55, 80
3, 117119, Note_on_c, 3, 55, 0
3, 117120, End_track
4, 0, Start_track
4, 0, Title_t, "Chimes, Bell\000"
4, 0, Key_signature, 0, "major"
4, 0, Control_c, 4, 121, 0
4, 0, Program_c, 4, 14
4, 0, Control_c, 4, 7, 100
4, 0, Control_c, 4, 10, 64
4, 0, Control_c, 4, 91, 0
4, 0, Control_c, 4, 93, 0
4, 0, MIDI_port, 0
4, 1, End_track
5, 0, Start_track
5, 0, Title_t, "Classical Guitar, Piano, Piano\000"
5, 0, Key_signature, 0, "major"
5, 0, Control_c, 5, 121, 0
5, 0, Program_c, 5, 24
5, 0, Control_c, 5, 7, 100
5, 0, Control_c, 5, 10, 64
5, 0, Control_c, 5, 91, 0
5, 0, Control_c, 5, 93, 0
5, 0, MIDI_port, 0
5, 0, Control_c, 10, 121, 0
5, 0, Program_c, 10, 28
5, 0, Control_c, 10, 7, 100
5, 0, Control_c, 10, 10, 64
5, 0, Control_c, 10, 91, 0
5, 0, Control_c, 10, 93, 0
5, 0, MIDI_port, 0
5, 2160, Note_on_c, 5, 57, 80
5, 2160, Note_on_c, 5, 60, 80
5, 2160, Note_on_c, 5, 64, 80
5, 2399, Note_on_c, 5, 57, 0
5, 2399, Note_on_c, 5, 60, 0
5, 2399, Note_on_c, 5, 64, 0
5, 2520, Note_on_c, 5, 57, 80
5, 2520, Note_on_c, 5, 60, 80
5, 2520, Note_on_c, 5, 64, 80
5, 2879, Note_on_c, 5, 57, 0
5, 2879, Note_on_c, 5, 60, 0
5, 2879, Note_on_c, 5, 64, 0
5, 2880, Note_on_c, 5, 57, 80
5, 2880, Note_on_c, 5, 60, 80
5, 2880, Note_on_c, 5, 64, 80
5, 3239, Note_on_c, 5, 57, 0
5, 3239, Note_on_c, 5, 60, 0
5, 3239, Note_on_c, 5, 64, 0
5, 3240, Note_on_c, 5, 57, 80
5, 3240, Note_on_c, 5, 60, 80
5, 3240, Note_on_c, 5, 64, 80
5, 3359, Note_on_c, 5, 57, 0
5, 3359, Note_on_c, 5, 60, 0
5, 3359, Note_on_c, 5, 64, 0
5, 4080, Note_on_c, 5, 57, 80
5, 4080, Note_on_c, 5, 60, 80
5, 4080, Note_on_c, 5, 64, 80
5, 4319, Note_on_c, 5, 57, 0
5, 4319, Note_on_c, 5, 60, 0
5, 4319, Note_on_c, 5, 64, 0
5, 4440, Note_on_c, 5, 57, 80
5, 4440, Note_on_c, 5, 60, 80
5, 4440, Note_on_c, 5, 64, 80
5, 4799, Note_on_c, 5, 57, 0
5, 4799, Note_on_c, 5, 60, 0
5, 4799, Note_on_c, 5, 64, 0
5, 4800, Note_on_c, 5, 57, 80
5, 4800, Note_on_c, 5, 60, 80
5, 4800, Note_on_c, 5, 64, 80
5, 5159, Note_on_c, 5, 57, 0
5, 5159, Note_on_c, 5, 60, 0
5, 5159, Note_on_c, 5, 64, 0
5, 5160, Note_on_c, 5, 57, 80
5, 5160, Note_on_c, 5, 60, 80
5, 5160, Note_on_c, 5, 64, 80
5, 5279, Note_on_c, 5, 57, 0
5, 5279, Note_on_c, 5, 60, 0
5, 5279, Note_on_c, 5, 64, 0
5, 6000, Note_on_c, 5, 57, 80
5, 6000, Note_on_c, 5, 60, 80
5, 6000, Note_on_c, 5, 64, 80
5, 6239, Note_on_c, 5, 57, 0
5, 6239, Note_on_c, 5, 60, 0
5, 6239, Note_on_c, 5, 64, 0
5, 6360, Note_on_c, 5, 57, 80
5, 6360, Note_on_c, 5, 60, 80
5, 6360, Note_on_c, 5, 64, 80
5, 6719, Note_on_c, 5, 57, 0
5, 6719, Note_on_c, 5, 60, 0
5, 6719, Note_on_c, 5, 64, 0
5, 6720, Note_on_c, 5, 57, 80
5, 6720, Note_on_c, 5, 60, 80
5, 6720, Note_on_c, 5, 64, 80
5, 7079, Note_on_c, 5, 57, 0
5, 7079, Note_on_c, 5, 60, 0
5, 7079, Note_on_c, 5, 64, 0
5, 7080, Note_on_c, 5, 57, 80
5, 7080, Note_on_c, 5, 60, 80
5, 7080, Note_on_c, 5, 64, 80
5, 7199, Note_on_c, 5, 57, 0
5, 7199, Note_on_c, 5, 60, 0
5, 7199, Note_on_c, 5, 64, 0
5, 7920, Note_on_c, 5, 57, 80
5, 7920, Note_on_c, 5, 60, 80
5, 7920, Note_on_c, 5, 64, 80
5, 8159, Note_on_c, 5, 57, 0
5, 8159, Note_on_c, 5, 60, 0
5, 8159, Note_on_c, 5, 64, 0
5, 8280, Note_on_c, 5, 57, 80
5, 8280, Note_on_c, 5, 60, 80
5, 8280, Note_on_c, 5, 64, 80
5, 8639, Note_on_c, 5, 57, 0
5, 8639, Note_on_c, 5, 60, 0
5, 8639, Note_on_c, 5, 64, 0
5, 8640, Note_on_c, 5, 69, 80
5, 8640, Note_on_c, 5, 72, 80
5, 8879, Note_on_c, 5, 69, 0
5, 8879, Note_on_c, 5, 72, 0
5, 8880, Note_on_c, 5, 69, 80
5, 8880, Note_on_c, 5, 72, 80
5, 9119, Note_on_c, 5, 69, 0
5, 9119, Note_on_c, 5, 72, 0
5, 9120, Note_on_c, 5, 69, 80
5, 9120, Note_on_c, 5, 72, 80
5, 9599, Note_on_c, 5, 69, 0
5, 9599, Note_on_c, 5, 72, 0
5, 9840, Note_on_c, 5, 57, 80
5, 9840, Note_on_c, 5, 60, 80
5, 9840, Note_on_c, 5, 64, 80
5, 10079, Note_on_c, 5, 57, 0
5, 10079, Note_on_c, 5, 60, 0
5, 10079, Note_on_c, 5, 64, 0
5, 10200, Note_on_c, 5, 57, 80
5, 10200, Note_on_c, 5, 60, 80
5, 10200, Note_on_c, 5, 64, 80
5, 10559, Note_on_c, 5, 57, 0
5, 10559, Note_on_c, 5, 60, 0
5, 10559, Note_on_c, 5, 64, 0
5, 10560, Note_on_c, 5, 57, 80
5, 10560, Note_on_c, 5, 60, 80
5, 10560, Note_on_c, 5, 64, 80
5, 10919, Note_on_c, 5, 57, 0
5, 10919, Note_on_c, 5, 60, 0
5, 10919, Note_on_c, 5, 64, 0
5, 10920, Note_on_c, 5, 57, 80
5, 10920, Note_on_c, 5, 60, 80
5, 10920, Note_on_c, 5, 64, 80
5, 11039, Note_on_c, 5, 57, 0
5, 11039, Note_on_c, 5, 60, 0
5, 11039, Note_on_c, 5, 64, 0
5, 11760, Note_on_c, 5, 57, 80
5, 11760, Note_on_c, 5, 60, 80
5, 11760, Note_on_c, 5, 64, 80
5, 11999, Note_on_c, 5, 57, 0
5, 11999, Note_on_c, 5, 60, 0
5, 11999, Note_on_c, 5, 64, 0
5, 12120, Note_on_c, 5, 57, 80
5, 12120, Note_on_c, 5, 60, 80
5, 12120, Note_on_c, 5, 64, 80
5, 12479, Note_on_c, 5, 57, 0
5, 12479, Note_on_c, 5, 60, 0
5, 12479, Note_on_c, 5, 64, 0
5, 12480, Note_on_c, 5, 57, 80
5, 12480, Note_on_c, 5, 60, 80
5, 12480, Note_on_c, 5, 64, 80
5, 12839, Note_on_c, 5, 57, 0
5, 12839, Note_on_c, 5, 60, 0
5, 12839, Note_on_c, 5, 64, 0
5, 12840, Note_on_c, 5, 57, 80
5, 12840, Note_on_c, 5, 60, 80
5, 12840, Note_on_c, 5, 64, 80
5, 12959, Note_on_c, 5, 57, 0
5, 12959, Note_on_c, 5, 60, 0
5, 12959, Note_on_c, 5, 64, 0
5, 13680, Note_on_c, 5, 57, 80
5, 13680, Note_on_c, 5, 60, 80
5, 13680, Note_on_c, 5, 64, 80
5, 13919, Note_on_c, 5, 57, 0
5, 13919, Note_on_c, 5, 60, 0
5, 13919, Note_on_c, 5, 64, 0
5, 14040, Note_on_c, 5, 57, 80
5, 14040, Note_on_c, 5, 60, 80
5, 14040, Note_on_c, 5, 64, 80
5, 14399, Note_on_c, 5, 57, 0
5, 14399, Note_on_c, 5, 60, 0
5, 14399, Note_on_c, 5, 64, 0
5, 14400, Note_on_c, 5, 57, 80
5, 14400, Note_on_c, 5, 60, 80
5, 14400, Note_on_c, 5, 64, 80
5, 14759, Note_on_c, 5, 57, 0
5, 14759, Note_on_c, 5, 60, 0
5, 14759, Note_on_c, 5, 64, 0
5, 14760, Note_on_c, 5, 57, 80
5, 14760, Note_on_c, 5, 60, 80
5, 14760, Note_on_c, 5, 64, 80
5, 14879, Note_on_c, 5, 57, 0
5, 14879, Note_on_c, 5, 60, 0
5, 14879, Note_on_c, 5, 64, 0
5, 15600, Note_on_c, 5, 57, 80
5, 15600, Note_on_c, 5, 60, 80
5, 15600, Note_on_c, 5, 64, 80
5, 15839, Note_on_c, 5, 57, 0
5, 15839, Note_on_c, 5, 60, 0
5, 15839, Note_on_c, 5, 64, 0
5, 15960, Note_on_c, 5, 57, 80
5, 15960, Note_on_c, 5, 60, 80
5, 15960, Note_on_c, 5, 64, 80
5, 16319, Note_on_c, 5, 57, 0
5, 16319, Note_on_c, 5, 60, 0
5, 16319, Note_on_c, 5, 64, 0
5, 16320, Note_on_c, 5, 69, 80
5, 16320, Note_on_c, 5, 72, 80
5, 16320, Note_on_c, 5, 76, 80
5, 16559, Note_on_c, 5, 69, 0
5, 16559, Note_on_c, 5, 72, 0
5, 16559, Note_on_c, 5, 76, 0
5, 16560, Note_on_c, 5, 69, 80
5, 16560, Note_on_c, 5, 72, 80
5, 16560, Note_on_c, 5, 76, 80
5, 16799, Note_on_c, 5, 69, 0
5, 16799, Note_on_c, 5, 72, 0
5, 16799, Note_on_c, 5, 76, 0
5, 16800, Note_on_c, 5, 69, 80
5, 16800, Note_on_c, 5, 72, 80
5, 16800, Note_on_c, 5, 76, 80
5, 17279, Note_on_c, 5, 69, 0
5, 17279, Note_on_c, 5, 72, 0
5, 17279, Note_on_c, 5, 76, 0
5, 17520, Note_on_c, 5, 57, 80
5, 17520, Note_on_c, 5, 60, 80
5, 17520, Note_on_c, 5, 64, 80
5, 17759, Note_on_c, 5, 57, 0
5, 17759, Note_on_c, 5, 60, 0
5, 17759, Note_on_c, 5, 64, 0
5, 17880, Note_on_c, 5, 57, 80
5, 17880, Note_on_c, 5, 60, 80
5, 17880, Note_on_c, 5, 64, 80
5, 18239, Note_on_c, 5, 57, 0
5, 18239, Note_on_c, 5, 60, 0
5, 18239, Note_on_c, 5, 64, 0
5, 18240, Note_on_c, 5, 57, 80
5, 18240, Note_on_c, 5, 60, 80
5, 18240, Note_on_c, 5, 64, 80
5, 18599, Note_on_c, 5, 57, 0
5, 18599, Note_on_c, 5, 60, 0
5, 18599, Note_on_c, 5, 64, 0
5, 18600, Note_on_c, 5, 57, 80
5, 18600, Note_on_c, 5, 60, 80
5, 18600, Note_on_c, 5, 64, 80
5, 18719, Note_on_c, 5, 57, 0
5, 18719, Note_on_c, 5, 60, 0
5, 18719, Note_on_c, 5, 64, 0
5, 19440, Note_on_c, 5, 57, 80
5, 19440, Note_on_c, 5, 60, 80
5, 19440, Note_on_c, 5, 64, 80
5, 19679, Note_on_c, 5, 57, 0
5, 19679, Note_on_c, 5, 60, 0
5, 19679, Note_on_c, 5, 64, 0
5, 19800, Note_on_c, 5, 57, 80
5, 19800, Note_on_c, 5, 60, 80
5, 19800, Note_on_c, 5, 64, 80
5, 20159, Note_on_c, 5, 57, 0
5, 20159, Note_on_c, 5, 60, 0
5, 20159, Note_on_c, 5, 64, 0
5, 20160, Note_on_c, 5, 57, 80
5, 20160, Note_on_c, 5, 60, 80
5, 20160, Note_on_c, 5, 64, 80
5, 20519, Note_on_c, 5, 57, 0
5, 20519, Note_on_c, 5, 60, 0
5, 20519, Note_on_c, 5, 64, 0
5, 20520, Note_on_c, 5, 57, 80
5, 20520, Note_on_c, 5, 60, 80
5, 20520, Note_on_c, 5, 64, 80
5, 20639, Note_on_c, 5, 57, 0
5, 20639, Note_on_c, 5, 60, 0
5, 20639, Note_on_c, 5, 64, 0
5, 21360, Note_on_c, 5, 57, 80
5, 21360, Note_on_c, 5, 60, 80
5, 21360, Note_on_c, 5, 64, 80
5, 21599, Note_on_c, 5, 57, 0
5, 21599, Note_on_c, 5, 60, 0
5, 21599, Note_on_c, 5, 64, 0
5, 21720, Note_on_c, 5, 57, 80
5, 21720, Note_on_c, 5, 60, 80
5, 21720, Note_on_c, 5, 64, 80
5, 22079, Note_on_c, 5, 57, 0
5, 22079, Note_on_c, 5, 60, 0
5, 22079, Note_on_c, 5, 64, 0
5, 22080, Note_on_c, 5, 57, 80
5, 22080, Note_on_c, 5, 60, 80
5, 22080, Note_on_c, 5, 64, 80
5, 22439, Note_on_c, 5, 57, 0
5, 22439, Note_on_c, 5, 60, 0
5, 22439, Note_on_c, 5, 64, 0
5, 22440, Note_on_c, 5, 57, 80
5, 22440, Note_on_c, 5, 60, 80
5, 22440, Note_on_c, 5, 64, 80
5, 22559, Note_on_c, 5, 57, 0
5, 22559, Note_on_c, 5, 60, 0
5, 22559, Note_on_c, 5, 64, 0
5, 23280, Note_on_c, 5, 57, 80
5, 23280, Note_on_c, 5, 60, 80
5, 23280, Note_on_c, 5, 64, 80
5, 23519, Note_on_c, 5, 57, 0
5, 23519, Note_on_c, 5, 60, 0
5, 23519, Note_on_c, 5, 64, 0
5, 23640, Note_on_c, 5, 57, 80
5, 23640, Note_on_c, 5, 60, 80
5, 23640, Note_on_c, 5, 64, 80
5, 23999, Note_on_c, 5, 57, 0
5, 23999, Note_on_c, 5, 60, 0
5, 23999, Note_on_c, 5, 64, 0
5, 24000, Note_on_c, 5, 69, 80
5, 24000, Note_on_c, 5, 72, 80
5, 24239, Note_on_c, 5, 69, 0
5, 24239, Note_on_c, 5, 72, 0
5, 24240, Note_on_c, 5, 69, 80
5, 24240, Note_on_c, 5, 72, 80
5, 24479, Note_on_c, 5, 69, 0
5, 24479, Note_on_c, 5, 72, 0
5, 24480, Note_on_c, 5, 69, 80
5, 24480, Note_on_c, 5, 72, 80
5, 24959, Note_on_c, 5, 69, 0
5, 24959, Note_on_c, 5, 72, 0
5, 25200, Note_on_c, 5, 60, 80
5, 25200, Note_on_c, 5, 64, 80
5, 25200, Note_on_c, 5, 67, 80
5, 25439, Note_on_c, 5, 60, 0
5, 25439, Note_on_c, 5, 64, 0
5, 25439, Note_on_c, 5, 67, 0
5, 25560, Note_on_c, 5, 60, 80
5, 25560, Note_on_c, 5, 64, 80
5, 25560, Note_on_c, 5, 67, 80
5, 25919, Note_on_c, 5, 60, 0
5, 25919, Note_on_c, 5, 64, 0
5, 25919, Note_on_c, 5, 67, 0
5, 25920, Note_on_c, 5, 59, 80
5, 25920, Note_on_c, 5, 62, 80
5, 25920, Note_on_c, 5, 67, 80
5, 26279, Note_on_c, 5, 59, 0
5, 26279, Note_on_c, 5, 62, 0
5, 26279, Note_on_c, 5, 67, 0
5, 26280, Note_on_c, 5, 59, 80
5, 26280, Note_on_c, 5, 62, 80
5, 26280, Note_on_c, 5, 67, 80
5, 26399, Note_on_c, 5, 59, 0
5, 26399, Note_on_c, 5, 62, 0
5, 26399, Note_on_c, 5, 67, 0
5, 27120, Note_on_c, 5, 57, 80
5, 27120, Note_on_c, 5, 60, 80
5, 27120, Note_on_c, 5, 67, 80
5, 27359, Note_on_c, 5, 57, 0
5, 27359, Note_on_c, 5, 60, 0
5, 27359, Note_on_c, 5, 67, 0
5, 27480, Note_on_c, 5, 57, 80
5, 27480, Note_on_c, 5, 60, 80
5, 27480, Note_on_c, 5, 67, 80
5, 27839, Note_on_c, 5, 57, 0
5, 27839, Note_on_c, 5, 60, 0
5, 27839, Note_on_c, 5, 67, 0
5, 27840, Note_on_c, 5, 57, 80
5, 27840, Note_on_c, 5, 60, 80
5, 27840, Note_on_c, 5, 67, 80
5, 28199, Note_on_c, 5, 57, 0
5, 28199, Note_on_c, 5, 60, 0
5, 28199, Note_on_c, 5, 67, 0
5, 28200, Note_on_c, 5, 57, 80
5, 28200, Note_on_c, 5, 60, 80
5, 28200, Note_on_c, 5, 67, 80
5, 28319, Note_on_c, 5, 57, 0
5, 28319, Note_on_c, 5, 60, 0
5, 28319, Note_on_c, 5, 67, 0
5, 29040, Note_on_c, 5, 60, 80
5, 29040, Note_on_c, 5, 64, 80
5, 29040, Note_on_c, 5, 67, 80
5, 29279, Note_on_c, 5, 60, 0
5, 29279, Note_on_c, 5, 64, 0
5, 29279, Note_on_c, 5, 67, 0
5, 29400, Note_on_c, 5, 60, 80
5, 29400, Note_on_c, 5, 64, 80
5, 29400, Note_on_c, 5, 67, 80
5, 29759, Note_on_c, 5, 60, 0
5, 29759, Note_on_c, 5, 64, 0
5, 29759, Note_on_c, 5, 67, 0
5, 29760, Note_on_c, 5, 59, 80
5, 29760, Note_on_c, 5, 62, 80
5, 29760, Note_on_c, 5, 67, 80
5, 30119, Note_on_c, 5, 59, 0
5, 30119, Note_on_c, 5, 62, 0
5, 30119, Note_on_c, 5, 67, 0
5, 30120, Note_on_c, 5, 59, 80
5, 30120, Note_on_c, 5, 62, 80
5, 30120, Note_on_c, 5, 67, 80
5, 30239, Note_on_c, 5, 59, 0
5, 30239, Note_on_c, 5, 62, 0
5, 30239, Note_on_c, 5, 67, 0
5, 30960, Note_on_c, 5, 57, 80
5, 30960, Note_on_c, 5, 60, 80
5, 30960, Note_on_c, 5, 67, 80
5, 31199, Note_on_c, 5, 57, 0
5, 31199, Note_on_c, 5, 60, 0
5, 31199, Note_on_c, 5, 67, 0
5, 31320, Note_on_c, 5, 57, 80
5, 31320, Note_on_c, 5, 60, 80
5, 31320, Note_on_c, 5, 67, 80
5, 31679, Note_on_c, 5, 57, 0
5, 31679, Note_on_c, 5, 60, 0
5, 31679, Note_on_c, 5, 67, 0
5, 31680, Note_on_c, 5, 57, 80
5, 31680, Note_on_c, 5, 60, 80
5, 31680, Note_on_c, 5, 67, 80
5, 32039, Note_on_c, 5, 57, 0
5, 32039, Note_on_c, 5, 60, 0
5, 32039, Note_on_c, 5, 67, 0
5, 32040, Note_on_c, 5, 57, 80
5, 32040, Note_on_c, 5, 60, 80
5, 32040, Note_on_c, 5, 67, 80
5, 32159, Note_on_c, 5, 57, 0
5, 32159, Note_on_c, 5, 60, 0
5, 32159, Note_on_c, 5, 67, 0
5, 32880, Note_on_c, 5, 60, 80
5, 32880, Note_on_c, 5, 64, 80
5, 32880, Note_on_c, 5, 67, 80
5, 33119, Note_on_c, 5, 60, 0
5, 33119, Note_on_c, 5, 64, 0
5, 33119, Note_on_c, 5, 67, 0
5, 33240, Note_on_c, 5, 60, 80
5, 33240, Note_on_c, 5, 64, 80
5, 33240, Note_on_c, 5, 67, 80
5, 33599, Note_on_c, 5, 60, 0
5, 33599, Note_on_c, 5, 64, 0
5, 33599, Note_on_c, 5, 67, 0
5, 33600, Note_on_c, 5, 59, 80
5, 33600, Note_on_c, 5, 62, 80
5, 33600, Note_on_c, 5, 67, 80
5, 33959, Note_on_c, 5, 59, 0
5, 33959, Note_on_c, 5, 62, 0
5, 33959, Note_on_c, 5, 67, 0
5, 33960, Note_on_c, 5, 59, 80
5, 33960, Note_on_c, 5, 62, 80
5, 33960, Note_on_c, 5, 67, 80
5, 34079, Note_on_c, 5, 59, 0
5, 34079, Note_on_c, 5, 62, 0
5, 34079, Note_on_c, 5, 67, 0
5, 34800, Note_on_c, 5, 57, 80
5, 34800, Note_on_c, 5, 60, 80
5, 34800, Note_on_c, 5, 67, 80
5, 35039, Note_on_c, 5, 57, 0
5, 35039, Note_on_c, 5, 60, 0
5, 35039, Note_on_c, 5, 67, 0
5, 35160, Note_on_c, 5, 57, 80
5, 35160, Note_on_c, 5, 60, 80
5, 35160, Note_on_c, 5, 67, 80
5, 35519, Note_on_c, 5, 57, 0
5, 35519, Note_on_c, 5, 60, 0
5, 35519, Note_on_c, 5, 67, 0
5, 35520, Note_on_c, 5, 57, 80
5, 35520, Note_on_c, 5, 60, 80
5, 35520, Note_on_c, 5, 67, 80
5, 35879, Note_on_c, 5, 57, 0
5, 35879, Note_on_c, 5, 60, 0
5, 35879, Note_on_c, 5, 67, 0
5, 35880, Note_on_c, 5, 57, 80
5, 35880, Note_on_c, 5, 60, 80
5, 35880, Note_on_c, 5, 67, 80
5, 35999, Note_on_c, 5, 57, 0
5, 35999, Note_on_c, 5, 60, 0
5, 35999, Note_on_c, 5, 67, 0
5, 36480, Note_on_c, 5, 55, 80
5, 36480, Note_on_c, 5, 59, 80
5, 36480, Note_on_c, 5, 64, 80
5, 38399, Note_on_c, 5, 55, 0
5, 38399, Note_on_c, 5, 59, 0
5, 38399, Note_on_c, 5, 64, 0
5, 40560, Note_on_c, 5, 60, 80
5, 40560, Note_on_c, 5, 64, 80
5, 40799, Note_on_c, 5, 60, 0
5, 40799, Note_on_c, 5, 64, 0
5, 40920, Note_on_c, 5, 60, 80
5, 40920, Note_on_c, 5, 64, 80
5, 41279, Note_on_c, 5, 60, 0
5, 41279, Note_on_c, 5, 64, 0
5, 41280, Note_on_c, 5, 60, 80
5, 41280, Note_on_c, 5, 64, 80
5, 41639, Note_on_c, 5, 60, 0
5, 41639, Note_on_c, 5, 64, 0
5, 41640, Note_on_c, 5, 60, 80
5, 41640, Note_on_c, 5, 64, 80
5, 41759, Note_on_c, 5, 60, 0
5, 41759, Note_on_c, 5, 64, 0
5, 42480, Note_on_c, 5, 60, 80
5, 42480, Note_on_c, 5, 64, 80
5, 42719, Note_on_c, 5, 60, 0
5, 42719, Note_on_c, 5, 64, 0
5, 42840, Note_on_c, 5, 60, 80
5, 42840, Note_on_c, 5, 64, 80
5, 43199, Note_on_c, 5, 60, 0
5, 43199, Note_on_c, 5, 64, 0
5, 43200, Note_on_c, 5, 60, 80
5, 43200, Note_on_c, 5, 64, 80
5, 43559, Note_on_c, 5, 60, 0
5, 43559, Note_on_c, 5, 64, 0
5, 43560, Note_on_c, 5, 60, 80
5, 43560, Note_on_c, 5, 64, 80
5, 43679, Note_on_c, 5, 60, 0
5, 43679, Note_on_c, 5, 64, 0
5, 44400, Note_on_c, 5, 60, 80
5, 44400, Note_on_c, 5, 64, 80
5, 44639, Note_on_c, 5, 60, 0
5, 44639, Note_on_c, 5, 64, 0
5, 44760, Note_on_c, 5, 60, 80
5, 44760, Note_on_c, 5, 64, 80
5, 45119, Note_on_c, 5, 60, 0
5, 45119, Note_on_c, 5, 64, 0
5, 45120, Note_on_c, 5, 60, 80
5, 45120, Note_on_c, 5, 64, 80
5, 45479, Note_on_c, 5, 60, 0
5, 45479, Note_on_c, 5, 64, 0
5, 45480, Note_on_c, 5, 60, 80
5, 45480, Note_on_c, 5, 64, 80
5, 45599, Note_on_c, 5, 60, 0
5, 45599, Note_on_c, 5, 64, 0
5, 46320, Note_on_c, 5, 60, 80
5, 46320, Note_on_c, 5, 64, 80
5, 46559, Note_on_c, 5, 60, 0
5, 46559, Note_on_c, 5, 64, 0
5, 46680, Note_on_c, 5, 60, 80
5, 46680, Note_on_c, 5, 64, 80
5, 47039, Note_on_c, 5, 60, 0
5, 47039, Note_on_c, 5, 64, 0
5, 47040, Note_on_c, 5, 60, 80
5, 47040, Note_on_c, 5, 64, 80
5, 47399, Note_on_c, 5, 60, 0
5, 47399, Note_on_c, 5, 64, 0
5, 47400, Note_on_c, 5, 60, 80
5, 47400, Note_on_c, 5, 64, 80
5, 47519, Note_on_c, 5, 60, 0
5, 47519, Note_on_c, 5, 64, 0
5, 48000, Note_on_c, 5, 60, 80
5, 48000, Note_on_c, 5, 64, 80
5, 48000, Note_on_c, 5, 69, 80
5, 48479, Note_on_c, 5, 60, 0
5, 48479, Note_on_c, 5, 64, 0
5, 48479, Note_on_c, 5, 69, 0
5, 48480, Note_on_c, 5, 64, 80
5, 48959, Note_on_c, 5, 64, 0
5, 48960, Note_on_c, 5, 62, 80
5, 49919, Note_on_c, 5, 62, 0
5, 49920, Note_on_c, 5, 62, 80
5, 49920, Note_on_c, 5, 71, 80
5, 50879, Note_on_c, 5, 62, 0
5, 50879, Note_on_c, 5, 71, 0
5, 50880, Note_on_c, 5, 69, 80
5, 50880, Note_on_c, 5, 72, 80
5, 51119, Note_on_c, 5, 69, 0
5, 51119, Note_on_c, 5, 72, 0
5, 51120, Note_on_c, 5, 69, 80
5, 51120, Note_on_c, 5, 72, 80
5, 51359, Note_on_c, 5, 69, 0
5, 51359, Note_on_c, 5, 72, 0
5, 51360, Note_on_c, 5, 69, 80
5, 51360, Note_on_c, 5, 72, 80
5, 51839, Note_on_c, 5, 69, 0
5, 51839, Note_on_c, 5, 72, 0
5, 52080, Note_on_c, 5, 60, 80
5, 52080, Note_on_c, 5, 64, 80
5, 52319, Note_on_c, 5, 60, 0
5, 52319, Note_on_c, 5, 64, 0
5, 52440, Note_on_c, 5, 60, 80
5, 52440, Note_on_c, 5, 64, 80
5, 52799, Note_on_c, 5, 60, 0
5, 52799, Note_on_c, 5, 64, 0
5, 52800, Note_on_c, 5, 60, 80
5, 52800, Note_on_c, 5, 64, 80
5, 53159, Note_on_c, 5, 60, 0
5, 53159, Note_on_c, 5, 64, 0
5, 53160, Note_on_c, 5, 60, 80
5, 53160, Note_on_c, 5, 64, 80
5, 53279, Note_on_c, 5, 60, 0
5, 53279, Note_on_c, 5, 64, 0
5, 54000, Note_on_c, 5, 60, 80
5, 54000, Note_on_c, 5, 64, 80
5, 54239, Note_on_c, 5, 60, 0
5, 54239, Note_on_c, 5, 64, 0
5, 54360, Note_on_c, 5, 60, 80
5, 54360, Note_on_c, 5, 64, 80
5, 54719, Note_on_c, 5, 60, 0
5, 54719, Note_on_c, 5, 64, 0
5, 54720, Note_on_c, 5, 60, 80
5, 54720, Note_on_c, 5, 64, 80
5, 55079, Note_on_c, 5, 60, 0
5, 55079, Note_on_c, 5, 64, 0
5, 55080, Note_on_c, 5, 60, 80
5, 55080, Note_on_c, 5, 64, 80
5, 55199, Note_on_c, 5, 60, 0
5, 55199, Note_on_c, 5, 64, 0
5, 55920, Note_on_c, 5, 60, 80
5, 55920, Note_on_c, 5, 64, 80
5, 56159, Note_on_c, 5, 60, 0
5, 56159, Note_on_c, 5, 64, 0
5, 56280, Note_on_c, 5, 60, 80
5, 56280, Note_on_c, 5, 64, 80
5, 56639, Note_on_c, 5, 60, 0
5, 56639, Note_on_c, 5, 64, 0
5, 56640, Note_on_c, 5, 60, 80
5, 56640, Note_on_c, 5, 64, 80
5, 56999, Note_on_c, 5, 60, 0
5, 56999, Note_on_c, 5, 64, 0
5, 57000, Note_on_c, 5, 60, 80
5, 57000, Note_on_c, 5, 64, 80
5, 57119, Note_on_c, 5, 60, 0
5, 57119, Note_on_c, 5, 64, 0
5, 57840, Note_on_c, 5, 60, 80
5, 57840, Note_on_c, 5, 64, 80
5, 58079, Note_on_c, 5, 60, 0
5, 58079, Note_on_c, 5, 64, 0
5, 58200, Note_on_c, 5, 60, 80
5, 58200, Note_on_c, 5, 64, 80
5, 58559, Note_on_c, 5, 60, 0
5, 58559, Note_on_c, 5, 64, 0
5, 58560, Note_on_c, 5, 60, 80
5, 58560, Note_on_c, 5, 64, 80
5, 58919, Note_on_c, 5, 60, 0
5, 58919, Note_on_c, 5, 64, 0
5, 58920, Note_on_c, 5, 60, 80
5, 58920, Note_on_c, 5, 64, 80
5, 59039, Note_on_c, 5, 60, 0
5, 59039, Note_on_c, 5, 64, 0
5, 59520, Note_on_c, 5, 60, 80
5, 59520, Note_on_c, 5, 64, 80
5, 59520, Note_on_c, 5, 69, 80
5, 59999, Note_on_c, 5, 60, 0
5, 59999, Note_on_c, 5, 64, 0
5, 59999, Note_on_c, 5, 69, 0
5, 60000, Note_on_c, 5, 64, 80
5, 60479, Note_on_c, 5, 64, 0
5, 60480, Note_on_c, 5, 62, 80
5, 61439, Note_on_c, 5, 62, 0
5, 61440, Note_on_c, 5, 62, 80
5, 61440, Note_on_c, 5, 71, 80
5, 62399, Note_on_c, 5, 62, 0
5, 62399, Note_on_c, 5, 71, 0
5, 62400, Note_on_c, 5, 69, 80
5, 62400, Note_on_c, 5, 72, 80
5, 62639, Note_on_c, 5, 69, 0
5, 62639, Note_on_c, 5, 72, 0
5, 62640, Note_on_c, 5, 69, 80
5, 62640, Note_on_c, 5, 72, 80
5, 62879, Note_on_c, 5, 69, 0
5, 62879, Note_on_c, 5, 72, 0
5, 62880, Note_on_c, 5, 69, 80
5, 62880, Note_on_c, 5, 72, 80
5, 63359, Note_on_c, 5, 69, 0
5, 63359, Note_on_c, 5, 72, 0
5, 63600, Note_on_c, 5, 57, 80
5, 63600, Note_on_c, 5, 60, 80
5, 63600, Note_on_c, 5, 64, 80
5, 63839, Note_on_c, 5, 57, 0
5, 63839, Note_on_c, 5, 60, 0
5, 63839, Note_on_c, 5, 64, 0
5, 63960, Note_on_c, 5, 57, 80
5, 63960, Note_on_c, 5, 60, 80
5, 63960, Note_on_c, 5, 64, 80
5, 64319, Note_on_c, 5, 57, 0
5, 64319, Note_on_c, 5, 60, 0
5, 64319, Note_on_c, 5, 64, 0
5, 64320, Note_on_c, 5, 57, 80
5, 64320, Note_on_c, 5, 60, 80
5, 64320, Note_on_c, 5, 64, 80
5, 64679, Note_on_c, 5, 57, 0
5, 64679, Note_on_c, 5, 60, 0
5, 64679, Note_on_c, 5, 64, 0
5, 64680, Note_on_c, 5, 57, 80
5, 64680, Note_on_c, 5, 60, 80
5, 64680, Note_on_c, 5, 64, 80
5, 64799, Note_on_c, 5, 57, 0
5, 64799, Note_on_c, 5, 60, 0
5, 64799, Note_on_c, 5, 64, 0
5, 65520, Note_on_c, 5, 57, 80
5, 65520, Note_on_c, 5, 60, 80
5, 65520, Note_on_c, 5, 64, 80
5, 65759, Note_on_c, 5, 57, 0
5, 65759, Note_on_c, 5, 60, 0
5, 65759, Note_on_c, 5, 64, 0
5, 65880, Note_on_c, 5, 57, 80
5, 65880, Note_on_c, 5, 60, 80
5, 65880, Note_on_c, 5, 64, 80
5, 66239, Note_on_c, 5, 57, 0
5, 66239, Note_on_c, 5, 60, 0
5, 66239, Note_on_c, 5, 64, 0
5, 66240, Note_on_c, 5, 57, 80
5, 66240, Note_on_c, 5, 60, 80
5, 66240, Note_on_c, 5, 64, 80
5, 66599, Note_on_c, 5, 57, 0
5, 66599, Note_on_c, 5, 60, 0
5, 66599, Note_on_c, 5, 64, 0
5, 66600, Note_on_c, 5, 57, 80
5, 66600, Note_on_c, 5, 60, 80
5, 66600, Note_on_c, 5, 64, 80
5, 66719, Note_on_c, 5, 57, 0
5, 66719, Note_on_c, 5, 60, 0
5, 66719, Note_on_c, 5, 64, 0
5, 67440, Note_on_c, 5, 57, 80
5, 67440, Note_on_c, 5, 60, 80
5, 67440, Note_on_c, 5, 64, 80
5, 67679, Note_on_c, 5, 57, 0
5, 67679, Note_on_c, 5, 60, 0
5, 67679, Note_on_c, 5, 64, 0
5, 67800, Note_on_c, 5, 57, 80
5, 67800, Note_on_c, 5, 60, 80
5, 67800, Note_on_c, 5, 64, 80
5, 68159, Note_on_c, 5, 57, 0
5, 68159, Note_on_c, 5, 60, 0
5, 68159, Note_on_c, 5, 64, 0
5, 68160, Note_on_c, 5, 57, 80
5, 68160, Note_on_c, 5, 60, 80
5, 68160, Note_on_c, 5, 64, 80
5, 68519, Note_on_c, 5, 57, 0
5, 68519, Note_on_c, 5, 60, 0
5, 68519, Note_on_c, 5, 64, 0
5, 68520, Note_on_c, 5, 57, 80
5, 68520, Note_on_c, 5, 60, 80
5, 68520, Note_on_c, 5, 64, 80
5, 68639, Note_on_c, 5, 57, 0
5, 68639, Note_on_c, 5, 60, 0
5, 68639, Note_on_c, 5, 64, 0
5, 69360, Note_on_c, 5, 57, 80
5, 69360, Note_on_c, 5, 60, 80
5, 69360, Note_on_c, 5, 64, 80
5, 69599, Note_on_c, 5, 57, 0
5, 69599, Note_on_c, 5, 60, 0
5, 69599, Note_on_c, 5, 64, 0
5, 69720, Note_on_c, 5, 57, 80
5, 69720, Note_on_c, 5, 60, 80
5, 69720, Note_on_c, 5, 64, 80
5, 70079, Note_on_c, 5, 57, 0
5, 70079, Note_on_c, 5, 60, 0
5, 70079, Note_on_c, 5, 64, 0
5, 70080, Note_on_c, 5, 69, 80
5, 70080, Note_on_c, 5, 72, 80
5, 70319, Note_on_c, 5, 69, 0
5, 70319, Note_on_c, 5, 72, 0
5, 70320, Note_on_c, 5, 69, 80
5, 70320, Note_on_c, 5, 72, 80
5, 70559, Note_on_c, 5, 69, 0
5, 70559, Note_on_c, 5, 72, 0
5, 70560, Note_on_c, 5, 69, 80
5, 70560, Note_on_c, 5, 72, 80
5, 71039, Note_on_c, 5, 69, 0
5, 71039, Note_on_c, 5, 72, 0
5, 71280, Note_on_c, 5, 57, 80
5, 71280, Note_on_c, 5, 60, 80
5, 71280, Note_on_c, 5, 64, 80
5, 71519, Note_on_c, 5, 57, 0
5, 71519, Note_on_c, 5, 60, 0
5, 71519, Note_on_c, 5, 64, 0
5, 71640, Note_on_c, 5, 57, 80
5, 71640, Note_on_c, 5, 60, 80
5, 71640, Note_on_c, 5, 64, 80
5, 71999, Note_on_c, 5, 57, 0
5, 71999, Note_on_c, 5, 60, 0
5, 71999, Note_on_c, 5, 64, 0
5, 72000, Note_on_c, 5, 57, 80
5, 72000, Note_on_c, 5, 60, 80
5, 72000, Note_on_c, 5, 64, 80
5, 72359, Note_on_c, 5, 57, 0
5, 72359, Note_on_c, 5, 60, 0
5, 72359, Note_on_c, 5, 64, 0
5, 72360, Note_on_c, 5, 57, 80
5, 72360, Note_on_c, 5, 60, 80
5, 72360, Note_on_c, 5, 64, 80
5, 72479, Note_on_c, 5, 57, 0
5, 72479, Note_on_c, 5, 60, 0
5, 72479, Note_on_c, 5, 64, 0
5, 73200, Note_on_c, 5, 57, 80
5, 73200, Note_on_c, 5, 60, 80
5, 73200, Note_on_c, 5, 64, 80
5, 73439, Note_on_c, 5, 57, 0
5, 73439, Note_on_c, 5, 60, 0
5, 73439, Note_on_c, 5, 64, 0
5, 73560, Note_on_c, 5, 57, 80
5, 73560, Note_on_c, 5, 60, 80
5, 73560, Note_on_c, 5, 64, 80
5, 73919, Note_on_c, 5, 57, 0
5, 73919, Note_on_c, 5, 60, 0
5, 73919, Note_on_c, 5, 64, 0
5, 73920, Note_on_c, 5, 57, 80
5, 73920, Note_on_c, 5, 60, 80
5, 73920, Note_on_c, 5, 64, 80
5, 74279, Note_on_c, 5, 57, 0
5, 74279, Note_on_c, 5, 60, 0
5, 74279, Note_on_c, 5, 64, 0
5, 74280, Note_on_c, 5, 57, 80
5, 74280, Note_on_c, 5, 60, 80
5, 74280, Note_on_c, 5, 64, 80
5, 74399, Note_on_c, 5, 57, 0
5, 74399, Note_on_c, 5, 60, 0
5, 74399, Note_on_c, 5, 64, 0
5, 75120, Note_on_c, 5, 57, 80
5, 75120, Note_on_c, 5, 60, 80
5, 75120, Note_on_c, 5, 64, 80
5, 75359, Note_on_c, 5, 57, 0
5, 75359, Note_on_c, 5, 60, 0
5, 75359, Note_on_c, 5, 64, 0
5, 75480, Note_on_c, 5, 57, 80
5, 75480, Note_on_c, 5, 60, 80
5, 75480, Note_on_c, 5, 64, 80
5, 75839, Note_on_c, 5, 57, 0
5, 75839, Note_on_c, 5, 60, 0
5, 75839, Note_on_c, 5, 64, 0
5, 75840, Note_on_c, 5, 57, 80
5, 75840, Note_on_c, 5, 60, 80
5, 75840, Note_on_c, 5, 64, 80
5, 76199, Note_on_c, 5, 57, 0
5, 76199, Note_on_c, 5, 60, 0
5, 76199, Note_on_c, 5, 64, 0
5, 76200, Note_on_c, 5, 57, 80
5, 76200, Note_on_c, 5, 60, 80
5, 76200, Note_on_c, 5, 64, 80
5, 76319, Note_on_c, 5, 57, 0
5, 76319, Note_on_c, 5, 60, 0
5, 76319, Note_on_c, 5, 64, 0
5, 77040, Note_on_c, 5, 57, 80
5, 77040, Note_on_c, 5, 60, 80
5, 77040, Note_on_c, 5, 64, 80
5, 77279, Note_on_c, 5, 57, 0
5, 77279, Note_on_c, 5, 60, 0
5, 77279, Note_on_c, 5, 64, 0
5, 77400, Note_on_c, 5, 57, 80
5, 77400, Note_on_c, 5, 60, 80
5, 77400, Note_on_c, 5, 64, 80
5, 77759, Note_on_c, 5, 57, 0
5, 77759, Note_on_c, 5, 60, 0
5, 77759, Note_on_c, 5, 64, 0
5, 77760, Note_on_c, 5, 69, 80
5, 77760, Note_on_c, 5, 72, 80
5, 77999, Note_on_c, 5, 69, 0
5, 77999, Note_on_c, 5, 72, 0
5, 78000, Note_on_c, 5, 69, 80
5, 78000, Note_on_c, 5, 72, 80
5, 78239, Note_on_c, 5, 69, 0
5, 78239, Note_on_c, 5, 72, 0
5, 78240, Note_on_c, 5, 69, 80
5, 78240, Note_on_c, 5, 72, 80
5, 78719, Note_on_c, 5, 69, 0
5, 78719, Note_on_c, 5, 72, 0
5, 78960, Note_on_c, 5, 64, 80
5, 78960, Note_on_c, 5, 67, 80
5, 79199, Note_on_c, 5, 64, 0
5, 79199, Note_on_c, 5, 67, 0
5, 79320, Note_on_c, 5, 64, 80
5, 79320, Note_on_c, 5, 67, 80
5, 79679, Note_on_c, 5, 64, 0
5, 79679, Note_on_c, 5, 67, 0
5, 79680, Note_on_c, 5, 62, 80
5, 79680, Note_on_c, 5, 67, 80
5, 80039, Note_on_c, 5, 62, 0
5, 80039, Note_on_c, 5, 67, 0
5, 80040, Note_on_c, 5, 62, 80
5, 80040, Note_on_c, 5, 67, 80
5, 80159, Note_on_c, 5, 62, 0
5, 80159, Note_on_c, 5, 67, 0
5, 80880, Note_on_c, 5, 60, 80
5, 80880, Note_on_c, 5, 67, 80
5, 81119, Note_on_c, 5, 60, 0
5, 81119, Note_on_c, 5, 67, 0
5, 81240, Note_on_c, 5, 60, 80
5, 81240, Note_on_c, 5, 67, 80
5, 81599, Note_on_c, 5, 60, 0
5, 81599, Note_on_c, 5, 67, 0
5, 81600, Note_on_c, 5, 60, 80
5, 81600, Note_on_c, 5, 67, 80
5, 81959, Note_on_c, 5, 60, 0
5, 81959, Note_on_c, 5, 67, 0
5, 81960, Note_on_c, 5, 60, 80
5, 81960, Note_on_c, 5, 67, 80
5, 82079, Note_on_c, 5, 60, 0
5, 82079, Note_on_c, 5, 67, 0
5, 82800, Note_on_c, 5, 64, 80
5, 82800, Note_on_c, 5, 67, 80
5, 83039, Note_on_c, 5, 64, 0
5, 83039, Note_on_c, 5, 67, 0
5, 83160, Note_on_c, 5, 64, 80
5, 83160, Note_on_c, 5, 67, 80
5, 83519, Note_on_c, 5, 64, 0
5, 83519, Note_on_c, 5, 67, 0
5, 83520, Note_on_c, 5, 62, 80
5, 83520, Note_on_c, 5, 67, 80
5, 83879, Note_on_c, 5, 62, 0
5, 83879, Note_on_c, 5, 67, 0
5, 83880, Note_on_c, 5, 62, 80
5, 83880, Note_on_c, 5, 67, 80
5, 83999, Note_on_c, 5, 62, 0
5, 83999, Note_on_c, 5, 67, 0
5, 84720, Note_on_c, 5, 60, 80
5, 84720, Note_on_c, 5, 67, 80
5, 84959, Note_on_c, 5, 60, 0
5, 84959, Note_on_c, 5, 67, 0
5, 85080, Note_on_c, 5, 60, 80
5, 85080, Note_on_c, 5, 67, 80
5, 85439, Note_on_c, 5, 60, 0
5, 85439, Note_on_c, 5, 67, 0
5, 85440, Note_on_c, 5, 60, 80
5, 85440, Note_on_c, 5, 67, 80
5, 85799, Note_on_c, 5, 60, 0
5, 85799, Note_on_c, 5, 67, 0
5, 85800, Note_on_c, 5, 60, 80
5, 85800, Note_on_c, 5, 67, 80
5, 85919, Note_on_c, 5, 60, 0
5, 85919, Note_on_c, 5, 67, 0
5, 86640, Note_on_c, 5, 64, 80
5, 86640, Note_on_c, 5, 67, 80
5, 86879, Note_on_c, 5, 64, 0
5, 86879, Note_on_c, 5, 67, 0
5, 87000, Note_on_c, 5, 64, 80
5, 87000, Note_on_c, 5, 67, 80
5, 87359, Note_on_c, 5, 64, 0
5, 87359, Note_on_c, 5, 67, 0
5, 87360, Note_on_c, 5, 62, 80
5, 87360, Note_on_c, 5, 67, 80
5, 87719, Note_on_c, 5, 62, 0
5, 87719, Note_on_c, 5, 67, 0
5, 87720, Note_on_c, 5, 62, 80
5, 87720, Note_on_c, 5, 67, 80
5, 87839, Note_on_c, 5, 62, 0
5, 87839, Note_on_c, 5, 67, 0
5, 88560, Note_on_c, 5, 60, 80
5, 88560, Note_on_c, 5, 67, 80
5, 88799, Note_on_c, 5, 60, 0
5, 88799, Note_on_c, 5, 67, 0
5, 88920, Note_on_c, 5, 60, 80
5, 88920, Note_on_c, 5, 67, 80
5, 89279, Note_on_c, 5, 60, 0
5, 89279, Note_on_c, 5, 67, 0
5, 89280, Note_on_c, 5, 60, 80
5, 89280, Note_on_c, 5, 67, 80
5, 89639, Note_on_c, 5, 60, 0
5, 89639, Note_on_c, 5, 67, 0
5, 89640, Note_on_c, 5, 60, 80
5, 89640, Note_on_c, 5, 67, 80
5, 89759, Note_on_c, 5, 60, 0
5, 89759, Note_on_c, 5, 67, 0
5, 90240, Note_on_c, 5, 55, 80
5, 90240, Note_on_c, 5, 59, 80
5, 90240, Note_on_c, 5, 64, 80
5, 92159, Note_on_c, 5, 55, 0
5, 92159, Note_on_c, 5, 59, 0
5, 92159, Note_on_c, 5, 64, 0
5, 94320, Note_on_c, 5, 57, 80
5, 94320, Note_on_c, 5, 60, 80
5, 94320, Note_on_c, 5, 64, 80
5, 94559, Note_on_c, 5, 57, 0
5, 94559, Note_on_c, 5, 60, 0
5, 94559, Note_on_c, 5, 64, 0
5, 94680, Note_on_c, 5, 57, 80
5, 94680, Note_on_c, 5, 60, 80
5, 94680, Note_on_c, 5, 64, 80
5, 95039, Note_on_c, 5, 57, 0
5, 95039, Note_on_c, 5, 60, 0
5, 95039, Note_on_c, 5, 64, 0
5, 95040, Note_on_c, 5, 57, 80
5, 95040, Note_on_c, 5, 60, 80
5, 95040, Note_on_c, 5, 64, 80
5, 95399, Note_on_c, 5, 57, 0
5, 95399, Note_on_c, 5, 60, 0
5, 95399, Note_on_c, 5, 64, 0
5, 95400, Note_on_c, 5, 57, 80
5, 95400, Note_on_c, 5, 60, 80
5, 95400, Note_on_c, 5, 64, 80
5, 95519, Note_on_c, 5, 57, 0
5, 95519, Note_on_c, 5, 60, 0
5, 95519, Note_on_c, 5, 64, 0
5, 96240, Note_on_c, 5, 57, 80
5, 96240, Note_on_c, 5, 60, 80
5, 96240, Note_on_c, 5, 64, 80
5, 96479, Note_on_c, 5, 57, 0
5, 96479, Note_on_c, 5, 60, 0
5, 96479, Note_on_c, 5, 64, 0
5, 96600, Note_on_c, 5, 57, 80
5, 96600, Note_on_c, 5, 60, 80
5, 96600, Note_on_c, 5, 64, 80
5, 96959, Note_on_c, 5, 57, 0
5, 96959, Note_on_c, 5, 60, 0
5, 96959, Note_on_c, 5, 64, 0
5, 96960, Note_on_c, 5, 57, 80
5, 96960, Note_on_c, 5, 60, 80
5, 96960, Note_on_c, 5, 64, 80
5, 97319, Note_on_c, 5, 57, 0
5, 97319, Note_on_c, 5, 60, 0
5, 97319, Note_on_c, 5, 64, 0
5, 97320, Note_on_c, 5, 57, 80
5, 97320, Note_on_c, 5, 60, 80
5, 97320, Note_on_c, 5, 64, 80
5, 97439, Note_on_c, 5, 57, 0
5, 97439, Note_on_c, 5, 60, 0
5, 97439, Note_on_c, 5, 64, 0
5, 98160, Note_on_c, 5, 57, 80
5, 98160, Note_on_c, 5, 60, 80
5, 98160, Note_on_c, 5, 64, 80
5, 98399, Note_on_c, 5, 57, 0
5, 98399, Note_on_c, 5, 60, 0
5, 98399, Note_on_c, 5, 64, 0
5, 98520, Note_on_c, 5, 57, 80
5, 98520, Note_on_c, 5, 60, 80
5, 98520, Note_on_c, 5, 64, 80
5, 98879, Note_on_c, 5, 57, 0
5, 98879, Note_on_c, 5, 60, 0
5, 98879, Note_on_c, 5, 64, 0
5, 98880, Note_on_c, 5, 57, 80
5, 98880, Note_on_c, 5, 60, 80
5, 98880, Note_on_c, 5, 64, 80
5, 99239, Note_on_c, 5, 57, 0
5, 99239, Note_on_c, 5, 60, 0
5, 99239, Note_on_c, 5, 64, 0
5, 99240, Note_on_c, 5, 57, 80
5, 99240, Note_on_c, 5, 60, 80
5, 99240, Note_on_c, 5, 64, 80
5, 99359, Note_on_c, 5, 57, 0
5, 99359, Note_on_c, 5, 60, 0
5, 99359, Note_on_c, 5, 64, 0
5, 100080, Note_on_c, 5, 57, 80
5, 100080, Note_on_c, 5, 60, 80
5, 100080, Note_on_c, 5, 64, 80
5, 100319, Note_on_c, 5, 57, 0
5, 100319, Note_on_c, 5, 60, 0
5, 100319, Note_on_c, 5, 64, 0
5, 100440, Note_on_c, 5, 57, 80
5, 100440, Note_on_c, 5, 60, 80
5, 100440, Note_on_c, 5, 64, 80
5, 100799, Note_on_c, 5, 57, 0
5, 100799, Note_on_c, 5, 60, 0
5, 100799, Note_on_c, 5, 64, 0
5, 100800, Note_on_c, 5, 57, 80
5, 100800, Note_on_c, 5, 60, 80
5, 100800, Note_on_c, 5, 64, 80
5, 101159, Note_on_c, 5, 57, 0
5, 101159, Note_on_c, 5, 60, 0
5, 101159, Note_on_c, 5, 64, 0
5, 101160, Note_on_c, 5, 57, 80
5, 101160, Note_on_c, 5, 60, 80
5, 101160, Note_on_c, 5, 64, 80
5, 101279, Note_on_c, 5, 57, 0
5, 101279, Note_on_c, 5, 60, 0
5, 101279, Note_on_c, 5, 64, 0
5, 101760, Note_on_c, 5, 60, 80
5, 101760, Note_on_c, 5, 64, 80
5, 101760, Note_on_c, 5, 69, 80
5, 102239, Note_on_c, 5, 60, 0
5, 102239, Note_on_c, 5, 64, 0
5, 102239, Note_on_c, 5, 69, 0
5, 102240, Note_on_c, 5, 64, 80
5, 102719, Note_on_c, 5, 64, 0
5, 102720, Note_on_c, 5, 62, 80
5, 103679, Note_on_c, 5, 62, 0
5, 103680, Note_on_c, 5, 62, 80
5, 103680, Note_on_c, 5, 71, 80
5, 104639, Note_on_c, 5, 62, 0
5, 104639, Note_on_c, 5, 71, 0
5, 104640, Note_on_c, 5, 69, 80
5, 104640, Note_on_c, 5, 72, 80
5, 104879, Note_on_c, 5, 69, 0
5, 104879, Note_on_c, 5, 72, 0
5, 104880, Note_on_c, 5, 69, 80
5, 104880, Note_on_c, 5, 72, 80
5, 105119, Note_on_c, 5, 69, 0
5, 105119, Note_on_c, 5, 72, 0
5, 105120, Note_on_c, 5, 69, 80
5, 105120, Note_on_c, 5, 72, 80
5, 105599, Note_on_c, 5, 69, 0
5, 105599, Note_on_c, 5, 72, 0
5, 105840, Note_on_c, 5, 57, 80
5, 105840, Note_on_c, 5, 60, 80
5, 105840, Note_on_c, 5, 64, 80
5, 106079, Note_on_c, 5, 57, 0
5, 106079, Note_on_c, 5, 60, 0
5, 106079, Note_on_c, 5, 64, 0
5, 106200, Note_on_c, 5, 57, 80
5, 106200, Note_on_c, 5, 60, 80
5, 106200, Note_on_c, 5, 64, 80
5, 106559, Note_on_c, 5, 57, 0
5, 106559, Note_on_c, 5, 60, 0
5, 106559, Note_on_c, 5, 64, 0
5, 106560, Note_on_c, 5, 57, 80
5, 106560, Note_on_c, 5, 60, 80
5, 106560, Note_on_c, 5, 64, 80
5, 106919, Note_on_c, 5, 57, 0
5, 106919, Note_on_c, 5, 60, 0
5, 106919, Note_on_c, 5, 64, 0
5, 106920, Note_on_c, 5, 57, 80
5, 106920, Note_on_c, 5, 60, 80
5, 106920, Note_on_c, 5, 64, 80
5, 107039, Note_on_c, 5, 57, 0
5, 107039, Note_on_c, 5, 60, 0
5, 107039, Note_on_c, 5, 64, 0
5, 107760, Note_on_c, 5, 57, 80
5, 107760, Note_on_c, 5, 60, 80
5, 107760, Note_on_c, 5, 64, 80
5, 107999, Note_on_c, 5, 57, 0
5, 107999, Note_on_c, 5, 60, 0
5, 107999, Note_on_c, 5, 64, 0
5, 108120, Note_on_c, 5, 57, 80
5, 108120, Note_on_c, 5, 60, 80
5, 108120, Note_on_c, 5, 64, 80
5, 108479, Note_on_c, 5, 57, 0
5, 108479, Note_on_c, 5, 60, 0
5, 108479, Note_on_c, 5, 64, 0
5, 108480, Note_on_c, 5, 57, 80
5, 108480, Note_on_c, 5, 60, 80
5, 108480, Note_on_c, 5, 64, 80
5, 108839, Note_on_c, 5, 57, 0
5, 108839, Note_on_c, 5, 60, 0
5, 108839, Note_on_c, 5, 64, 0
5, 108840, Note_on_c, 5, 57, 80
5, 108840, Note_on_c, 5, 60, 80
5, 108840, Note_on_c, 5, 64, 80
5, 108959, Note_on_c, 5, 57, 0
5, 108959, Note_on_c, 5, 60, 0
5, 108959, Note_on_c, 5, 64, 0
5, 109680, Note_on_c, 5, 57, 80
5, 109680, Note_on_c, 5, 60, 80
5, 109680, Note_on_c, 5, 64, 80
5, 109919, Note_on_c, 5, 57, 0
5, 109919, Note_on_c, 5, 60, 0
5, 109919, Note_on_c, 5, 64, 0
5, 110040, Note_on_c, 5, 57, 80
5, 110040, Note_on_c, 5, 60, 80
5, 110040, Note_on_c, 5, 64, 80
5, 110399, Note_on_c, 5, 57, 0
5, 110399, Note_on_c, 5, 60, 0
5, 110399, Note_on_c, 5, 64, 0
5, 110400, Note_on_c, 5, 57, 80
5, 110400, Note_on_c, 5, 60, 80
5, 110400, Note_on_c, 5, 64, 80
5, 110759, Note_on_c, 5, 57, 0
5, 110759, Note_on_c, 5, 60, 0
5, 110759, Note_on_c, 5, 64, 0
5, 110760, Note_on_c, 5, 57, 80
5, 110760, Note_on_c, 5, 60, 80
5, 110760, Note_on_c, 5, 64, 80
5, 110879, Note_on_c, 5, 57, 0
5, 110879, Note_on_c, 5, 60, 0
5, 110879, Note_on_c, 5, 64, 0
5, 111600, Note_on_c, 5, 57, 80
5, 111600, Note_on_c, 5, 60, 80
5, 111600, Note_on_c, 5, 64, 80
5, 111839, Note_on_c, 5, 57, 0
5, 111839, Note_on_c, 5, 60, 0
5, 111839, Note_on_c, 5, 64, 0
5, 111960, Note_on_c, 5, 57, 80
5, 111960, Note_on_c, 5, 60, 80
5, 111960, Note_on_c, 5, 64, 80
5, 112319, Note_on_c, 5, 57, 0
5, 112319, Note_on_c, 5, 60, 0
5, 112319, Note_on_c, 5, 64, 0
5, 112320, Note_on_c, 5, 57, 80
5, 112320, Note_on_c, 5, 60, 80
5, 112320, Note_on_c, 5, 64, 80
5, 112679, Note_on_c, 5, 57, 0
5, 112679, Note_on_c, 5, 60, 0
5, 112679, Note_on_c, 5, 64, 0
5, 112680, Note_on_c, 5, 57, 80
5, 112680, Note_on_c, 5, 60, 80
5, 112680, Note_on_c, 5, 64, 80
5, 112799, Note_on_c, 5, 57, 0
5, 112799, Note_on_c, 5, 60, 0
5, 112799, Note_on_c, 5, 64, 0
5, 113280, Note_on_c, 5, 60, 80
5, 113280, Note_on_c, 5, 64, 80
5, 113280, Note_on_c, 5, 69, 80
5, 113759, Note_on_c, 5, 60, 0
5, 113759, Note_on_c, 5, 64, 0
5, 113759, Note_on_c, 5, 69, 0
5, 115200, Note_on_c, 5, 62, 80
5, 115200, Note_on_c, 5, 71, 80
5, 116159, Note_on_c, 5, 62, 0
5, 116159, Note_on_c, 5, 71, 0
5, 116160, End_track
0, 0, End_of_file
