0, 0, Header, 1, 4, 480
1, 0, Start_track
1, 0, Title_t, "Piano, Piano, Piano, Primo I\000"
1, 0, Time_signature, 12, 3, 24, 8
1, 0, Key_signature, 0, "major"
1, 0, Tempo, 600000
1, 0, Control_c, 0, 121, 0
1, 0, Program_c, 0, 0
1, 0, Control_c, 0, 7, 100
1, 0, Control_c, 0, 10, 64
1, 0, Control_c, 0, 91, 0
1, 0, Control_c, 0, 93, 0
1, 0, MIDI_port, 0
1, 0, Note_on_c, 0, 67, 80
1, 0, Note_on_c, 0, 72, 80
1, 2, Control_c, 0, 64, 127
1, 119, Note_on_c, 0, 67, 0
1, 119, Note_on_c, 0, 72, 0
1, 240, Note_on_c, 0, 67, 80
1, 240, Note_on_c, 0, 72, 80
1, 353, Note_on_c, 0, 67, 0
1, 353, Note_on_c, 0, 72, 0
1, 360, Note_on_c, 0, 67, 80
1, 360, Note_on_c, 0, 72, 80
1, 479, Note_on_c, 0, 67, 0
1, 479, Note_on_c, 0, 72, 0
1, 600, Note_on_c, 0, 67, 80
1, 600, Note_on_c, 0, 72, 80
1, 713, Note_on_c, 0, 67, 0
1, 713, Note_on_c, 0, 72, 0
1, 720, Note_on_c, 0, 67, 80
1, 720, Note_on_c, 0, 72, 80
1, 839, Note_on_c, 0, 67, 0
1, 839, Note_on_c, 0, 72, 0
1, 960, Note_on_c, 0, 67, 80
1, 960, Note_on_c, 0, 72, 80
1, 1073, Note_on_c, 0, 67, 0
1, 1073, Note_on_c, 0, 72, 0
1, 1080, Note_on_c, 0, 67, 80
1, 1080, Note_on_c, 0, 72, 80
1, 1199, Note_on_c, 0, 67, 0
1, 1199, Note_on_c, 0, 72, 0
1, 1320, Note_on_c, 0, 67, 80
1, 1320, Note_on_c, 0, 72, 80
1, 1433, Note_on_c, 0, 67, 0
1, 1433, Note_on_c, 0, 72, 0
1, 1440, Note_on_c, 0, 64, 80
1, 1440, Note_on_c, 0, 69, 80
1, 1440, Note_on_c, 0, 72, 80
1, 1559, Note_on_c, 0, 64, 0
1, 1559, Note_on_c, 0, 69, 0
1, 1559, Note_on_c, 0, 72, 0
1, 1680, Note_on_c, 0, 69, 80
1, 1680, Note_on_c, 0, 72, 80
1, 1793, Note_on_c, 0, 69, 0
1, 1793, Note_on_c, 0, 72, 0
1, 1800, Note_on_c, 0, 69, 80
1, 1800, Note_on_c, 0, 72, 80
1, 1919, Note_on_c, 0, 69, 0
1, 1919, Note_on_c, 0, 72, 0
1, 2040, Note_on_c, 0, 69, 80
1, 2040, Note_on_c, 0, 72, 80
1, 2153, Note_on_c, 0, 69, 0
1, 2153, Note_on_c, 0, 72, 0
1, 2160, Note_on_c, 0, 69, 80
1, 2160, Note_on_c, 0, 72, 80
1, 2279, Note_on_c, 0, 69, 0
1, 2279, Note_on_c, 0, 72, 0
1, 2400, Note_on_c, 0, 69, 80
1, 2400, Note_on_c, 0, 72, 80
1, 2513, Note_on_c, 0, 69, 0
1, 2513, Note_on_c, 0, 72, 0
1, 2520, Note_on_c, 0, 69, 80
1, 2520, Note_on_c, 0, 72, 80
1, 2639, Note_on_c, 0, 69, 0
1, 2639, Note_on_c, 0, 72, 0
1, 2760, Note_on_c, 0, 69, 80
1, 2760, Note_on_c, 0, 72, 80
1, 2873, Note_on_c, 0, 69, 0
1, 2873, Note_on_c, 0, 72, 0
1, 2880, Note_on_c, 0, 65, 80
1, 2880, Note_on_c, 0, 69, 80
1, 2880, Note_on_c, 0, 72, 80
1, 2999, Note_on_c, 0, 65, 0
1, 2999, Note_on_c, 0, 69, 0
1, 2999, Note_on_c, 0, 72, 0
1, 3120, Note_on_c, 0, 69, 80
1, 3120, Note_on_c, 0, 72, 80
1, 3233, Note_on_c, 0, 69, 0
1, 3233, Note_on_c, 0, 72, 0
1, 3240, Note_on_c, 0, 69, 80
1, 3240, Note_on_c, 0, 72, 80
1, 3359, Note_on_c, 0, 69, 0
1, 3359, Note_on_c, 0, 72, 0
1, 3480, Note_on_c, 0, 69, 80
1, 3480, Note_on_c, 0, 72, 80
1, 3593, Note_on_c, 0, 69, 0
1, 3593, Note_on_c, 0, 72, 0
1, 3600, Note_on_c, 0, 69, 80
1, 3600, Note_on_c, 0, 72, 80
1, 3719, Note_on_c, 0, 69, 0
1, 3719, Note_on_c, 0, 72, 0
1, 3840, Note_on_c, 0, 69, 80
1, 3840, Note_on_c, 0, 72, 80
1, 3953, Note_on_c, 0, 69, 0
1, 3953, Note_on_c, 0, 72, 0
1, 3960, Note_on_c, 0, 69, 80
1, 3960, Note_on_c, 0, 72, 80
1, 4079, Note_on_c, 0, 69, 0
1, 4079, Note_on_c, 0, 72, 0
1, 4200, Note_on_c, 0, 69, 80
1, 4200, Note_on_c, 0, 72, 80
1, 4313, Note_on_c, 0, 69, 0
1, 4313, Note_on_c, 0, 72, 0
1, 4560, Note_on_c, 0, 79, 80
1, 4673, Note_on_c, 0, 79, 0
1, 4680, Note_on_c, 0, 79, 80
1, 4799, Note_on_c, 0, 79, 0
1, 4920, Note_on_c, 0, 79, 80
1, 5033, Note_on_c, 0, 79, 0
1, 5040, Note_on_c, 0, 79, 80
1, 5159, Note_on_c, 0, 79, 0
1, 5280, Note_on_c, 0, 79, 80
1, 5393, Note_on_c, 0, 79, 0
1, 5400, Note_on_c, 0, 79, 80
1, 5519, Note_on_c, 0, 79, 0
1, 5640, Note_on_c, 0, 79, 80
1, 5753, Note_on_c, 0, 79, 0
1, 5760, Note_on_c, 0, 60, 80
1, 6101, Note_on_c, 0, 60, 0
1, 6120, Note_on_c, 0, 60, 80
1, 6120, Note_on_c, 0, 64, 80
1, 6461, Note_on_c, 0, 60, 0
1, 6461, Note_on_c, 0, 64, 0
1, 6480, Note_on_c, 0, 60, 80
1, 6480, Note_on_c, 0, 64, 80
1, 6480, Note_on_c, 0, 67, 80
1, 6821, Note_on_c, 0, 60, 0
1, 6821, Note_on_c, 0, 64, 0
1, 6821, Note_on_c, 0, 67, 0
1, 6840, Note_on_c, 0, 64, 80
1, 6840, Note_on_c, 0, 67, 80
1, 6840, Note_on_c, 0, 71, 80
1, 7067, Note_on_c, 0, 64, 0
1, 7067, Note_on_c, 0, 67, 0
1, 7067, Note_on_c, 0, 71, 0
1, 7080, Note_on_c, 0, 64, 80
1, 7080, Note_on_c, 0, 67, 80
1, 7080, Note_on_c, 0, 72, 80
1, 7139, Note_on_c, 0, 64, 0
1, 7139, Note_on_c, 0, 67, 0
1, 7139, Note_on_c, 0, 72, 0
1, 7440, Note_on_c, 0, 64, 80
1, 7440, Note_on_c, 0, 67, 80
1, 7440, Note_on_c, 0, 71, 80
1, 7619, Note_on_c, 0, 64, 0
1, 7619, Note_on_c, 0, 67, 0
1, 7619, Note_on_c, 0, 71, 0
1, 7800, Note_on_c, 0, 64, 80
1, 7800, Note_on_c, 0, 69, 80
1, 7859, Note_on_c, 0, 64, 0
1, 7859, Note_on_c, 0, 69, 0
1, 8160, Note_on_c, 0, 64, 80
1, 8160, Note_on_c, 0, 67, 80
1, 8615, Note_on_c, 0, 64, 0
1, 8615, Note_on_c, 0, 67, 0
1, 8640, Note_on_c, 0, 64, 80
1, 8640, Note_on_c, 0, 67, 80
1, 8640, Note_on_c, 0, 74, 80
1, 8981, Note_on_c, 0, 64, 0
1, 8981, Note_on_c, 0, 67, 0
1, 8981, Note_on_c, 0, 74, 0
1, 9000, Note_on_c, 0, 64, 80
1, 9000, Note_on_c, 0, 67, 80
1, 9000, Note_on_c, 0, 72, 80
1, 9341, Note_on_c, 0, 64, 0
1, 9341, Note_on_c, 0, 67, 0
1, 9341, Note_on_c, 0, 72, 0
1, 9360, Note_on_c, 0, 64, 80
1, 9360, Note_on_c, 0, 67, 80
1, 9360, Note_on_c, 0, 72, 80
1, 9587, Note_on_c, 0, 64, 0
1, 9587, Note_on_c, 0, 67, 0
1, 9587, Note_on_c, 0, 72, 0
1, 9600, Note_on_c, 0, 64, 80
1, 9600, Note_on_c, 0, 67, 80
1, 9600, Note_on_c, 0, 71, 80
1, 9941, Note_on_c, 0, 64, 0
1, 9941, Note_on_c, 0, 67, 0
1, 9941, Note_on_c, 0, 71, 0
1, 9960, Note_on_c, 0, 64, 80
1, 9960, Note_on_c, 0, 67, 80
1, 9960, Note_on_c, 0, 72, 80
1, 10019, Note_on_c, 0, 64, 0
1, 10019, Note_on_c, 0, 67, 0
1, 10019, Note_on_c, 0, 72, 0
1, 10320, Note_on_c, 0, 64, 80
1, 10320, Note_on_c, 0, 67, 80
1, 10320, Note_on_c, 0, 71, 80
1, 10499, Note_on_c, 0, 64, 0
1, 10499, Note_on_c, 0, 67, 0
1, 10499, Note_on_c, 0, 71, 0
1, 10680, Note_on_c, 0, 64, 80
1, 10680, Note_on_c, 0, 69, 80
1, 10739, Note_on_c, 0, 64, 0
1, 10739, Note_on_c, 0, 69, 0
1, 11040, Note_on_c, 0, 64, 80
1, 11040, Note_on_c, 0, 67, 80
1, 11495, Note_on_c, 0, 64, 0
1, 11495, Note_on_c, 0, 67, 0
1, 11520, Note_on_c, 0, 60, 80
1, 11520, Note_on_c, 0, 65, 80
1, 11861, Note_on_c, 0, 60, 0
1, 11861, Note_on_c, 0, 65, 0
1, 11880, Note_on_c, 0, 60, 80
1, 11880, Note_on_c, 0, 65, 80
1, 11880, Note_on_c, 0, 69, 80
1, 12221, Note_on_c, 0, 60, 0
1, 12221, Note_on_c, 0, 65, 0
1, 12221, Note_on_c, 0, 69, 0
1, 12240, Note_on_c, 0, 65, 80
1, 12240, Note_on_c, 0, 69, 80
1, 12240, Note_on_c, 0, 72, 80
1, 12581, Note_on_c, 0, 65, 0
1, 12581, Note_on_c, 0, 69, 0
1, 12581, Note_on_c, 0, 72, 0
1, 12600, Note_on_c, 0, 65, 80
1, 12600, Note_on_c, 0, 69, 80
1, 12600, Note_on_c, 0, 74, 80
1, 12827, Note_on_c, 0, 65, 0
1, 12827, Note_on_c, 0, 69, 0
1, 12827, Note_on_c, 0, 74, 0
1, 12840, Note_on_c, 0, 69, 80
1, 12840, Note_on_c, 0, 72, 80
1, 12840, Note_on_c, 0, 76, 80
1, 12899, Note_on_c, 0, 69, 0
1, 12899, Note_on_c, 0, 72, 0
1, 12899, Note_on_c, 0, 76, 0
1, 13200, Note_on_c, 0, 65, 80
1, 13200, Note_on_c, 0, 69, 80
1, 13200, Note_on_c, 0, 74, 80
1, 13379, Note_on_c, 0, 65, 0
1, 13379, Note_on_c, 0, 69, 0
1, 13379, Note_on_c, 0, 74, 0
1, 13560, Note_on_c, 0, 65, 80
1, 13560, Note_on_c, 0, 69, 80
1, 13560, Note_on_c, 0, 72, 80
1, 13619, Note_on_c, 0, 65, 0
1, 13619, Note_on_c, 0, 69, 0
1, 13619, Note_on_c, 0, 72, 0
1, 13920, Note_on_c, 0, 65, 80
1, 13920, Note_on_c, 0, 69, 80
1, 14375, Note_on_c, 0, 65, 0
1, 14375, Note_on_c, 0, 69, 0
1, 14400, Note_on_c, 0, 60, 80
1, 14400, Note_on_c, 0, 65, 80
1, 14741, Note_on_c, 0, 60, 0
1, 14741, Note_on_c, 0, 65, 0
1, 14760, Note_on_c, 0, 60, 80
1, 14760, Note_on_c, 0, 69, 80
1, 14987, Note_on_c, 0, 60, 0
1, 14987, Note_on_c, 0, 69, 0
1, 15000, Note_on_c, 0, 65, 80
1, 15000, Note_on_c, 0, 72, 80
1, 15455, Note_on_c, 0, 65, 0
1, 15455, Note_on_c, 0, 72, 0
1, 15480, Note_on_c, 0, 65, 80
1, 15480, Note_on_c, 0, 72, 80
1, 15707, Note_on_c, 0, 65, 0
1, 15707, Note_on_c, 0, 72, 0
1, 15720, Note_on_c, 0, 65, 80
1, 15720, Note_on_c, 0, 74, 80
1, 15779, Note_on_c, 0, 65, 0
1, 15779, Note_on_c, 0, 74, 0
1, 16080, Note_on_c, 0, 65, 80
1, 16080, Note_on_c, 0, 74, 80
1, 16259, Note_on_c, 0, 65, 0
1, 16259, Note_on_c, 0, 74, 0
1, 16440, Note_on_c, 0, 65, 80
1, 16440, Note_on_c, 0, 72, 80
1, 16499, Note_on_c, 0, 65, 0
1, 16499, Note_on_c, 0, 72, 0
1, 16800, Note_on_c, 0, 67, 80
1, 17255, Note_on_c, 0, 67, 0
1, 17280, Note_on_c, 0, 64, 80
1, 17280, Note_on_c, 0, 67, 80
1, 17280, Note_on_c, 0, 74, 80
1, 17621, Note_on_c, 0, 64, 0
1, 17621, Note_on_c, 0, 67, 0
1, 17621, Note_on_c, 0, 74, 0
1, 17640, Note_on_c, 0, 64, 80
1, 17640, Note_on_c, 0, 67, 80
1, 17640, Note_on_c, 0, 72, 80
1, 17981, Note_on_c, 0, 64, 0
1, 17981, Note_on_c, 0, 67, 0
1, 17981, Note_on_c, 0, 72, 0
1, 18000, Note_on_c, 0, 64, 80
1, 18000, Note_on_c, 0, 67, 80
1, 18000, Note_on_c, 0, 72, 80
1, 18341, Note_on_c, 0, 64, 0
1, 18341, Note_on_c, 0, 67, 0
1, 18341, Note_on_c, 0, 72, 0
1, 18360, Note_on_c, 0, 64, 80
1, 18360, Note_on_c, 0, 67, 80
1, 18360, Note_on_c, 0, 71, 80
1, 18587, Note_on_c, 0, 64, 0
1, 18587, Note_on_c, 0, 67, 0
1, 18587, Note_on_c, 0, 71, 0
1, 18600, Note_on_c, 0, 64, 80
1, 18600, Note_on_c, 0, 67, 80
1, 18600, Note_on_c, 0, 72, 80
1, 18659, Note_on_c, 0, 64, 0
1, 18659, Note_on_c, 0, 67, 0
1, 18659, Note_on_c, 0, 72, 0
1, 18960, Note_on_c, 0, 64, 80
1, 18960, Note_on_c, 0, 67, 80
1, 18960, Note_on_c, 0, 71, 80
1, 19139, Note_on_c, 0, 64, 0
1, 19139, Note_on_c, 0, 67, 0
1, 19139, Note_on_c, 0, 71, 0
1, 19320, Note_on_c, 0, 64, 80
1, 19320, Note_on_c, 0, 69, 80
1, 19379, Note_on_c, 0, 64, 0
1, 19379, Note_on_c, 0, 69, 0
1, 19680, Note_on_c, 0, 64, 80
1, 19680, Note_on_c, 0, 67, 80
1, 20135, Note_on_c, 0, 64, 0
1, 20135, Note_on_c, 0, 67, 0
1, 20160, Note_on_c, 0, 60, 80
1, 20501, Note_on_c, 0, 60, 0
1, 20520, Note_on_c, 0, 60, 80
1, 20520, Note_on_c, 0, 64, 80
1, 20747, Note_on_c, 0, 60, 0
1, 20747, Note_on_c, 0, 64, 0
1, 20760, Note_on_c, 0, 64, 80
1, 20760, Note_on_c, 0, 67, 80
1, 21101, Note_on_c, 0, 64, 0
1, 21101, Note_on_c, 0, 67, 0
1, 21120, Note_on_c, 0, 64, 80
1, 21120, Note_on_c, 0, 67, 80
1, 21120, Note_on_c, 0, 71, 80
1, 21461, Note_on_c, 0, 64, 0
1, 21461, Note_on_c, 0, 67, 0
1, 21461, Note_on_c, 0, 71, 0
1, 21480, Note_on_c, 0, 64, 80
1, 21480, Note_on_c, 0, 67, 80
1, 21480, Note_on_c, 0, 72, 80
1, 21539, Note_on_c, 0, 64, 0
1, 21539, Note_on_c, 0, 67, 0
1, 21539, Note_on_c, 0, 72, 0
1, 21840, Note_on_c, 0, 64, 80
1, 21840, Note_on_c, 0, 67, 80
1, 21840, Note_on_c, 0, 71, 80
1, 22019, Note_on_c, 0, 64, 0
1, 22019, Note_on_c, 0, 67, 0
1, 22019, Note_on_c, 0, 71, 0
1, 22200, Note_on_c, 0, 64, 80
1, 22200, Note_on_c, 0, 69, 80
1, 22259, Note_on_c, 0, 64, 0
1, 22259, Note_on_c, 0, 69, 0
1, 22560, Note_on_c, 0, 64, 80
1, 22560, Note_on_c, 0, 67, 80
1, 23015, Note_on_c, 0, 64, 0
1, 23015, Note_on_c, 0, 67, 0
1, 23400, Note_on_c, 0, 65, 80
1, 23400, Note_on_c, 0, 69, 80
1, 23400, Note_on_c, 0, 76, 80
1, 23627, Note_on_c, 0, 65, 0
1, 23627, Note_on_c, 0, 69, 0
1, 23627, Note_on_c, 0, 76, 0
1, 23640, Note_on_c, 0, 65, 80
1, 23640, Note_on_c, 0, 69, 80
1, 23640, Note_on_c, 0, 74, 80
1, 23753, Note_on_c, 0, 65, 0
1, 23753, Note_on_c, 0, 69, 0
1, 23753, Note_on_c, 0, 74, 0
1, 23760, Note_on_c, 0, 65, 80
1, 23760, Note_on_c, 0, 69, 80
1, 23760, Note_on_c, 0, 76, 80
1, 24101, Note_on_c, 0, 65, 0
1, 24101, Note_on_c, 0, 69, 0
1, 24101, Note_on_c, 0, 76, 0
1, 24120, Note_on_c, 0, 65, 80
1, 24120, Note_on_c, 0, 69, 80
1, 24120, Note_on_c, 0, 74, 80
1, 24347, Note_on_c, 0, 65, 0
1, 24347, Note_on_c, 0, 69, 0
1, 24347, Note_on_c, 0, 74, 0
1, 24360, Note_on_c, 0, 65, 80
1, 24360, Note_on_c, 0, 69, 80
1, 24360, Note_on_c, 0, 76, 80
1, 24419, Note_on_c, 0, 65, 0
1, 24419, Note_on_c, 0, 69, 0
1, 24419, Note_on_c, 0, 76, 0
1, 24720, Note_on_c, 0, 65, 80
1, 24720, Note_on_c, 0, 69, 80
1, 24720, Note_on_c, 0, 74, 80
1, 24899, Note_on_c, 0, 65, 0
1, 24899, Note_on_c, 0, 69, 0
1, 24899, Note_on_c, 0, 74, 0
1, 25080, Note_on_c, 0, 65, 80
1, 25080, Note_on_c, 0, 69, 80
1, 25080, Note_on_c, 0, 72, 80
1, 25139, Note_on_c, 0, 65, 0
1, 25139, Note_on_c, 0, 69, 0
1, 25139, Note_on_c, 0, 72, 0
1, 25440, Note_on_c, 0, 65, 80
1, 25440, Note_on_c, 0, 69, 80
1, 25895, Note_on_c, 0, 65, 0
1, 25895, Note_on_c, 0, 69, 0
1, 25920, Note_on_c, 0, 60, 80
1, 25920, Note_on_c, 0, 65, 80
1, 26261, Note_on_c, 0, 60, 0
1, 26261, Note_on_c, 0, 65, 0
1, 26280, Note_on_c, 0, 60, 80
1, 26280, Note_on_c, 0, 69, 80
1, 26507, Note_on_c, 0, 60, 0
1, 26507, Note_on_c, 0, 69, 0
1, 26520, Note_on_c, 0, 65, 80
1, 26520, Note_on_c, 0, 72, 80
1, 26975, Note_on_c, 0, 65, 0
1, 26975, Note_on_c, 0, 72, 0
1, 27000, Note_on_c, 0, 65, 80
1, 27000, Note_on_c, 0, 72, 80
1, 27227, Note_on_c, 0, 65, 0
1, 27227, Note_on_c, 0, 72, 0
1, 27240, Note_on_c, 0, 65, 80
1, 27240, Note_on_c, 0, 74, 80
1, 27299, Note_on_c, 0, 65, 0
1, 27299, Note_on_c, 0, 74, 0
1, 27600, Note_on_c, 0, 65, 80
1, 27600, Note_on_c, 0, 74, 80
1, 27779, Note_on_c, 0, 65, 0
1, 27779, Note_on_c, 0, 74, 0
1, 27960, Note_on_c, 0, 65, 80
1, 27960, Note_on_c, 0, 72, 80
1, 28019, Note_on_c, 0, 65, 0
1, 28019, Note_on_c, 0, 72, 0
1, 28320, Note_on_c, 0, 67, 80
1, 28775, Note_on_c, 0, 67, 0
1, 28800, Note_on_c, 0, 64, 80
1, 28800, Note_on_c, 0, 67, 80
1, 28800, Note_on_c, 0, 72, 80
1, 29141, Note_on_c, 0, 64, 0
1, 29141, Note_on_c, 0, 67, 0
1, 29141, Note_on_c, 0, 72, 0
1, 29160, Note_on_c, 0, 64, 80
1, 29160, Note_on_c, 0, 67, 80
1, 29160, Note_on_c, 0, 74, 80
1, 29501, Note_on_c, 0, 64, 0
1, 29501, Note_on_c, 0, 67, 0
1, 29501, Note_on_c, 0, 74, 0
1, 29520, Note_on_c, 0, 64, 80
1, 29520, Note_on_c, 0, 67, 80
1, 29520, Note_on_c, 0, 71, 80
1, 29861, Note_on_c, 0, 64, 0
1, 29861, Note_on_c, 0, 67, 0
1, 29861, Note_on_c, 0, 71, 0
1, 29880, Note_on_c, 0, 64, 80
1, 29880, Note_on_c, 0, 67, 80
1, 29880, Note_on_c, 0, 72, 80
1, 30107, Note_on_c, 0, 64, 0
1, 30107, Note_on_c, 0, 67, 0
1, 30107, Note_on_c, 0, 72, 0
1, 30120, Note_on_c, 0, 64, 80
1, 30120, Note_on_c, 0, 69, 80
1, 30179, Note_on_c, 0, 64, 0
1, 30179, Note_on_c, 0, 69, 0
1, 30480, Note_on_c, 0, 64, 80
1, 30480, Note_on_c, 0, 71, 80
1, 30659, Note_on_c, 0, 64, 0
1, 30659, Note_on_c, 0, 71, 0
1, 30840, Note_on_c, 0, 64, 80
1, 30840, Note_on_c, 0, 69, 80
1, 30899, Note_on_c, 0, 64, 0
1, 30899, Note_on_c, 0, 69, 0
1, 31200, Note_on_c, 0, 64, 80
1, 31313, Note_on_c, 0, 64, 0
1, 31320, Note_on_c, 0, 64, 80
1, 31439, Note_on_c, 0, 64, 0
1, 31560, Note_on_c, 0, 64, 80
1, 31673, Note_on_c, 0, 64, 0
1, 31680, Note_on_c, 0, 64, 80
1, 31680, Note_on_c, 0, 69, 80
1, 31680, Note_on_c, 0, 72, 80
1, 32021, Note_on_c, 0, 64, 0
1, 32021, Note_on_c, 0, 69, 0
1, 32021, Note_on_c, 0, 72, 0
1, 32040, Note_on_c, 0, 64, 80
1, 32040, Note_on_c, 0, 69, 80
1, 32040, Note_on_c, 0, 74, 80
1, 32381, Note_on_c, 0, 64, 0
1, 32381, Note_on_c, 0, 69, 0
1, 32381, Note_on_c, 0, 74, 0
1, 32400, Note_on_c, 0, 64, 80
1, 32400, Note_on_c, 0, 69, 80
1, 32400, Note_on_c, 0, 71, 80
1, 32741, Note_on_c, 0, 64, 0
1, 32741, Note_on_c, 0, 69, 0
1, 32741, Note_on_c, 0, 71, 0
1, 32760, Note_on_c, 0, 64, 80
1, 32760, Note_on_c, 0, 69, 80
1, 32760, Note_on_c, 0, 72, 80
1, 32987, Note_on_c, 0, 64, 0
1, 32987, Note_on_c, 0, 69, 0
1, 32987, Note_on_c, 0, 72, 0
1, 33000, Note_on_c, 0, 64, 80
1, 33000, Note_on_c, 0, 69, 80
1, 33059, Note_on_c, 0, 64, 0
1, 33059, Note_on_c, 0, 69, 0
1, 33360, Note_on_c, 0, 64, 80
1, 33360, Note_on_c, 0, 71, 80
1, 33539, Note_on_c, 0, 64, 0
1, 33539, Note_on_c, 0, 71, 0
1, 33720, Note_on_c, 0, 65, 80
1, 33720, Note_on_c, 0, 69, 80
1, 33779, Note_on_c, 0, 65, 0
1, 33779, Note_on_c, 0, 69, 0
1, 34080, Note_on_c, 0, 64, 80
1, 34193, Note_on_c, 0, 64, 0
1, 34200, Note_on_c, 0, 64, 80
1, 34319, Note_on_c, 0, 64, 0
1, 34440, Note_on_c, 0, 64, 80
1, 34553, Note_on_c, 0, 64, 0
1, 34560, Note_on_c, 0, 60, 80
1, 34560, Note_on_c, 0, 64, 80
1, 34560, Note_on_c, 0, 67, 80
1, 34901, Note_on_c, 0, 60, 0
1, 34901, Note_on_c, 0, 64, 0
1, 34901, Note_on_c, 0, 67, 0
1, 34920, Note_on_c, 0, 60, 80
1, 34920, Note_on_c, 0, 64, 80
1, 34920, Note_on_c, 0, 69, 80
1, 35261, Note_on_c, 0, 60, 0
1, 35261, Note_on_c, 0, 64, 0
1, 35261, Note_on_c, 0, 69, 0
1, 35280, Note_on_c, 0, 64, 80
1, 35280, Note_on_c, 0, 67, 80
1, 35280, Note_on_c, 0, 72, 80
1, 35507, Note_on_c, 0, 64, 0
1, 35507, Note_on_c, 0, 67, 0
1, 35507, Note_on_c, 0, 72, 0
1, 35520, Note_on_c, 0, 72, 80
1, 35520, Note_on_c, 0, 76, 80
1, 35520, Note_on_c, 0, 79, 80
1, 35975, Note_on_c, 0, 72, 0
1, 35975, Note_on_c, 0, 76, 0
1, 35975, Note_on_c, 0, 79, 0
1, 36000, Note_on_c, 0, 69, 80
1, 36000, Note_on_c, 0, 79, 80
1, 36455, Note_on_c, 0, 69, 0
1, 36455, Note_on_c, 0, 79, 0
1, 36480, Note_on_c, 0, 81, 80
1, 36593, Note_on_c, 0, 81, 0
1, 36600, Note_on_c, 0, 79, 80
1, 36713, Note_on_c, 0, 79, 0
1, 36720, Note_on_c, 0, 77, 80
1, 37079, Note_on_c, 0, 77, 0
1, 37440, Note_on_c, 0, 65, 80
1, 37440, Note_on_c, 0, 69, 80
1, 37440, Note_on_c, 0, 76, 80
1, 37781, Note_on_c, 0, 65, 0
1, 37781, Note_on_c, 0, 69, 0
1, 37781, Note_on_c, 0, 76, 0
1, 37800, Note_on_c, 0, 65, 80
1, 37800, Note_on_c, 0, 69, 80
1, 37800, Note_on_c, 0, 74, 80
1, 37913, Note_on_c, 0, 65, 0
1, 37913, Note_on_c, 0, 69, 0
1, 37913, Note_on_c, 0, 74, 0
1, 37920, Note_on_c, 0, 72, 80
1, 38033, Note_on_c, 0, 72, 0
1, 38040, Note_on_c, 0, 69, 80
1, 38153, Note_on_c, 0, 69, 0
1, 38160, Note_on_c, 0, 65, 80
1, 38160, Note_on_c, 0, 69, 80
1, 38160, Note_on_c, 0, 72, 80
1, 38501, Note_on_c, 0, 65, 0
1, 38501, Note_on_c, 0, 69, 0
1, 38501, Note_on_c, 0, 72, 0
1, 38520, Note_on_c, 0, 60, 80
1, 38520, Note_on_c, 0, 65, 80
1, 38520, Note_on_c, 0, 69, 80
1, 38861, Note_on_c, 0, 60, 0
1, 38861, Note_on_c, 0, 65, 0
1, 38861, Note_on_c, 0, 69, 0
1, 38880, Note_on_c, 0, 60, 80
1, 38880, Note_on_c, 0, 65, 80
1, 39221, Note_on_c, 0, 60, 0
1, 39221, Note_on_c, 0, 65, 0
1, 39240, Note_on_c, 0, 65, 80
1, 39240, Note_on_c, 0, 74, 80
1, 39923, Note_on_c, 0, 65, 0
1, 39923, Note_on_c, 0, 74, 0
1, 39960, Note_on_c, 0, 65, 80
1, 39960, Note_on_c, 0, 76, 80
1, 40301, Note_on_c, 0, 65, 0
1, 40301, Note_on_c, 0, 76, 0
1, 40320, Note_on_c, 0, 64, 80
1, 40320, Note_on_c, 0, 67, 80
1, 40320, Note_on_c, 0, 74, 80
1, 40547, Note_on_c, 0, 64, 0
1, 40547, Note_on_c, 0, 67, 0
1, 40547, Note_on_c, 0, 74, 0
1, 40560, Note_on_c, 0, 64, 80
1, 40560, Note_on_c, 0, 67, 80
1, 40560, Note_on_c, 0, 72, 80
1, 41015, Note_on_c, 0, 64, 0
1, 41015, Note_on_c, 0, 67, 0
1, 41015, Note_on_c, 0, 72, 0
1, 41280, Note_on_c, 0, 64, 80
1, 41393, Note_on_c, 0, 64, 0
1, 41400, Note_on_c, 0, 67, 80
1, 41627, Note_on_c, 0, 67, 0
1, 41640, Note_on_c, 0, 72, 80
1, 41753, Note_on_c, 0, 72, 0
1, 41760, Note_on_c, 0, 64, 80
1, 41760, Note_on_c, 0, 69, 80
1, 41760, Note_on_c, 0, 74, 80
1, 42215, Note_on_c, 0, 64, 0
1, 42215, Note_on_c, 0, 69, 0
1, 42215, Note_on_c, 0, 74, 0
1, 42360, Note_on_c, 0, 64, 80
1, 42360, Note_on_c, 0, 69, 80
1, 42360, Note_on_c, 0, 72, 80
1, 42701, Note_on_c, 0, 64, 0
1, 42701, Note_on_c, 0, 69, 0
1, 42701, Note_on_c, 0, 72, 0
1, 43200, Note_on_c, 0, 65, 80
1, 43200, Note_on_c, 0, 69, 80
1, 43200, Note_on_c, 0, 76, 80
1, 43997, Note_on_c, 0, 65, 0
1, 43997, Note_on_c, 0, 69, 0
1, 43997, Note_on_c, 0, 76, 0
1, 44160, Note_on_c, 0, 79, 80
1, 44273, Note_on_c, 0, 79, 0
1, 44280, Note_on_c, 0, 65, 80
1, 44280, Note_on_c, 0, 69, 80
1, 44280, Note_on_c, 0, 76, 80
1, 44459, Note_on_c, 0, 65, 0
1, 44459, Note_on_c, 0, 69, 0
1, 44459, Note_on_c, 0, 76, 0
1, 44640, Note_on_c, 0, 67, 80
1, 44640, Note_on_c, 0, 71, 80
1, 44640, Note_on_c, 0, 76, 80
1, 45095, Note_on_c, 0, 67, 0
1, 45095, Note_on_c, 0, 71, 0
1, 45095, Note_on_c, 0, 76, 0
1, 45240, Note_on_c, 0, 71, 80
1, 45240, Note_on_c, 0, 74, 80
1, 45581, Note_on_c, 0, 71, 0
1, 45581, Note_on_c, 0, 74, 0
1, 46080, Note_on_c, 0, 60, 80
1, 46421, Note_on_c, 0, 60, 0
1, 46440, Note_on_c, 0, 60, 80
1, 46440, Note_on_c, 0, 64, 80
1, 46781, Note_on_c, 0, 60, 0
1, 46781, Note_on_c, 0, 64, 0
1, 46800, Note_on_c, 0, 60, 80
1, 46800, Note_on_c, 0, 64, 80
1, 46800, Note_on_c, 0, 67, 80
1, 47141, Note_on_c, 0, 60, 0
1, 47141, Note_on_c, 0, 64, 0
1, 47141, Note_on_c, 0, 67, 0
1, 47160, Note_on_c, 0, 64, 80
1, 47160, Note_on_c, 0, 67, 80
1, 47160, Note_on_c, 0, 71, 80
1, 47387, Note_on_c, 0, 64, 0
1, 47387, Note_on_c, 0, 67, 0
1, 47387, Note_on_c, 0, 71, 0
1, 47400, Note_on_c, 0, 64, 80
1, 47400, Note_on_c, 0, 67, 80
1, 47400, Note_on_c, 0, 72, 80
1, 47459, Note_on_c, 0, 64, 0
1, 47459, Note_on_c, 0, 67, 0
1, 47459, Note_on_c, 0, 72, 0
1, 47760, Note_on_c, 0, 64, 80
1, 47760, Note_on_c, 0, 67, 80
1, 47760, Note_on_c, 0, 71, 80
1, 47939, Note_on_c, 0, 64, 0
1, 47939, Note_on_c, 0, 67, 0
1, 47939, Note_on_c, 0, 71, 0
1, 48120, Note_on_c, 0, 64, 80
1, 48120, Note_on_c, 0, 69, 80
1, 48179, Note_on_c, 0, 64, 0
1, 48179, Note_on_c, 0, 69, 0
1, 48480, Note_on_c, 0, 64, 80
1, 48480, Note_on_c, 0, 67, 80
1, 48935, Note_on_c, 0, 64, 0
1, 48935, Note_on_c, 0, 67, 0
1, 48960, Note_on_c, 0, 64, 80
1, 48960, Note_on_c, 0, 67, 80
1, 48960, Note_on_c, 0, 74, 80
1, 49301, Note_on_c, 0, 64, 0
1, 49301, Note_on_c, 0, 67, 0
1, 49301, Note_on_c, 0, 74, 0
1, 49320, Note_on_c, 0, 64, 80
1, 49320, Note_on_c, 0, 67, 80
1, 49320, Note_on_c, 0, 72, 80
1, 49661, Note_on_c, 0, 64, 0
1, 49661, Note_on_c, 0, 67, 0
1, 49661, Note_on_c, 0, 72, 0
1, 49680, Note_on_c, 0, 64, 80
1, 49680, Note_on_c, 0, 67, 80
1, 49680, Note_on_c, 0, 72, 80
1, 49907, Note_on_c, 0, 64, 0
1, 49907, Note_on_c, 0, 67, 0
1, 49907, Note_on_c, 0, 72, 0
1, 49920, Note_on_c, 0, 64, 80
1, 49920, Note_on_c, 0, 67, 80
1, 49920, Note_on_c, 0, 71, 80
1, 50261, Note_on_c, 0, 64, 0
1, 50261, Note_on_c, 0, 67, 0
1, 50261, Note_on_c, 0, 71, 0
1, 50280, Note_on_c, 0, 64, 80
1, 50280, Note_on_c, 0, 67, 80
1, 50280, Note_on_c, 0, 72, 80
1, 50339, Note_on_c, 0, 64, 0
1, 50339, Note_on_c, 0, 67, 0
1, 50339, Note_on_c, 0, 72, 0
1, 50640, Note_on_c, 0, 64, 80
1, 50640, Note_on_c, 0, 67, 80
1, 50640, Note_on_c, 0, 71, 80
1, 50819, Note_on_c, 0, 64, 0
1, 50819, Note_on_c, 0, 67, 0
1, 50819, Note_on_c, 0, 71, 0
1, 51000, Note_on_c, 0, 64, 80
1, 51000, Note_on_c, 0, 69, 80
1, 51059, Note_on_c, 0, 64, 0
1, 51059, Note_on_c, 0, 69, 0
1, 51360, Note_on_c, 0, 64, 80
1, 51360, Note_on_c, 0, 67, 80
1, 51815, Note_on_c, 0, 64, 0
1, 51815, Note_on_c, 0, 67, 0
1, 51840, Note_on_c, 0, 60, 80
1, 51840, Note_on_c, 0, 65, 80
1, 52181, Note_on_c, 0, 60, 0
1, 52181, Note_on_c, 0, 65, 0
1, 52200, Note_on_c, 0, 60, 80
1, 52200, Note_on_c, 0, 65, 80
1, 52200, Note_on_c, 0, 69, 80
1, 52541, Note_on_c, 0, 60, 0
1, 52541, Note_on_c, 0, 65, 0
1, 52541, Note_on_c, 0, 69, 0
1, 52560, Note_on_c, 0, 65, 80
1, 52560, Note_on_c, 0, 69, 80
1, 52560, Note_on_c, 0, 72, 80
1, 52901, Note_on_c, 0, 65, 0
1, 52901, Note_on_c, 0, 69, 0
1, 52901, Note_on_c, 0, 72, 0
1, 52920, Note_on_c, 0, 65, 80
1, 52920, Note_on_c, 0, 69, 80
1, 52920, Note_on_c, 0, 74, 80
1, 53147, Note_on_c, 0, 65, 0
1, 53147, Note_on_c, 0, 69, 0
1, 53147, Note_on_c, 0, 74, 0
1, 53160, Note_on_c, 0, 69, 80
1, 53160, Note_on_c, 0, 72, 80
1, 53160, Note_on_c, 0, 76, 80
1, 53219, Note_on_c, 0, 69, 0
1, 53219, Note_on_c, 0, 72, 0
1, 53219, Note_on_c, 0, 76, 0
1, 53520, Note_on_c, 0, 65, 80
1, 53520, Note_on_c, 0, 69, 80
1, 53520, Note_on_c, 0, 74, 80
1, 53699, Note_on_c, 0, 65, 0
1, 53699, Note_on_c, 0, 69, 0
1, 53699, Note_on_c, 0, 74, 0
1, 53880, Note_on_c, 0, 65, 80
1, 53880, Note_on_c, 0, 69, 80
1, 53880, Note_on_c, 0, 72, 80
1, 53939, Note_on_c, 0, 65, 0
1, 53939, Note_on_c, 0, 69, 0
1, 53939, Note_on_c, 0, 72, 0
1, 54240, Note_on_c, 0, 65, 80
1, 54240, Note_on_c, 0, 69, 80
1, 54695, Note_on_c, 0, 65, 0
1, 54695, Note_on_c, 0, 69, 0
1, 54720, Note_on_c, 0, 60, 80
1, 54720, Note_on_c, 0, 65, 80
1, 55061, Note_on_c, 0, 60, 0
1, 55061, Note_on_c, 0, 65, 0
1, 55080, Note_on_c, 0, 60, 80
1, 55080, Note_on_c, 0, 69, 80
1, 55307, Note_on_c, 0, 60, 0
1, 55307, Note_on_c, 0, 69, 0
1, 55320, Note_on_c, 0, 65, 80
1, 55320, Note_on_c, 0, 72, 80
1, 55775, Note_on_c, 0, 65, 0
1, 55775, Note_on_c, 0, 72, 0
1, 55800, Note_on_c, 0, 65, 80
1, 55800, Note_on_c, 0, 72, 80
1, 56027, Note_on_c, 0, 65, 0
1, 56027, Note_on_c, 0, 72, 0
1, 56040, Note_on_c, 0, 65, 80
1, 56040, Note_on_c, 0, 74, 80
1, 56099, Note_on_c, 0, 65, 0
1, 56099, Note_on_c, 0, 74, 0
1, 56400, Note_on_c, 0, 65, 80
1, 56400, Note_on_c, 0, 74, 80
1, 56579, Note_on_c, 0, 65, 0
1, 56579, Note_on_c, 0, 74, 0
1, 56760, Note_on_c, 0, 65, 80
1, 56760, Note_on_c, 0, 72, 80
1, 56819, Note_on_c, 0, 65, 0
1, 56819, Note_on_c, 0, 72, 0
1, 57120, Note_on_c, 0, 67, 80
1, 57575, Note_on_c, 0, 67, 0
1, 57600, Note_on_c, 0, 64, 80
1, 57600, Note_on_c, 0, 67, 80
1, 57600, Note_on_c, 0, 74, 80
1, 57941, Note_on_c, 0, 64, 0
1, 57941, Note_on_c, 0, 67, 0
1, 57941, Note_on_c, 0, 74, 0
1, 57960, Note_on_c, 0, 64, 80
1, 57960, Note_on_c, 0, 67, 80
1, 57960, Note_on_c, 0, 72, 80
1, 58301, Note_on_c, 0, 64, 0
1, 58301, Note_on_c, 0, 67, 0
1, 58301, Note_on_c, 0, 72, 0
1, 58320, Note_on_c, 0, 64, 80
1, 58320, Note_on_c, 0, 67, 80
1, 58320, Note_on_c, 0, 72, 80
1, 58661, Note_on_c, 0, 64, 0
1, 58661, Note_on_c, 0, 67, 0
1, 58661, Note_on_c, 0, 72, 0
1, 58680, Note_on_c, 0, 64, 80
1, 58680, Note_on_c, 0, 67, 80
1, 58680, Note_on_c, 0, 71, 80
1, 58907, Note_on_c, 0, 64, 0
1, 58907, Note_on_c, 0, 67, 0
1, 58907, Note_on_c, 0, 71, 0
1, 58920, Note_on_c, 0, 64, 80
1, 58920, Note_on_c, 0, 67, 80
1, 58920, Note_on_c, 0, 72, 80
1, 58979, Note_on_c, 0, 64, 0
1, 58979, Note_on_c, 0, 67, 0
1, 58979, Note_on_c, 0, 72, 0
1, 59280, Note_on_c, 0, 64, 80
1, 59280, Note_on_c, 0, 67, 80
1, 59280, Note_on_c, 0, 71, 80
1, 59459, Note_on_c, 0, 64, 0
1, 59459, Note_on_c, 0, 67, 0
1, 59459, Note_on_c, 0, 71, 0
1, 59640, Note_on_c, 0, 64, 80
1, 59640, Note_on_c, 0, 69, 80
1, 59699, Note_on_c, 0, 64, 0
1, 59699, Note_on_c, 0, 69, 0
1, 60000, Note_on_c, 0, 64, 80
1, 60000, Note_on_c, 0, 67, 80
1, 60455, Note_on_c, 0, 64, 0
1, 60455, Note_on_c, 0, 67, 0
1, 60480, Note_on_c, 0, 60, 80
1, 60821, Note_on_c, 0, 60, 0
1, 60840, Note_on_c, 0, 60, 80
1, 60840, Note_on_c, 0, 64, 80
1, 61067, Note_on_c, 0, 60, 0
1, 61067, Note_on_c, 0, 64, 0
1, 61080, Note_on_c, 0, 64, 80
1, 61080, Note_on_c, 0, 67, 80
1, 61421, Note_on_c, 0, 64, 0
1, 61421, Note_on_c, 0, 67, 0
1, 61440, Note_on_c, 0, 64, 80
1, 61440, Note_on_c, 0, 67, 80
1, 61440, Note_on_c, 0, 71, 80
1, 61781, Note_on_c, 0, 64, 0
1, 61781, Note_on_c, 0, 67, 0
1, 61781, Note_on_c, 0, 71, 0
1, 61800, Note_on_c, 0, 64, 80
1, 61800, Note_on_c, 0, 67, 80
1, 61800, Note_on_c, 0, 72, 80
1, 61859, Note_on_c, 0, 64, 0
1, 61859, Note_on_c, 0, 67, 0
1, 61859, Note_on_c, 0, 72, 0
1, 62160, Note_on_c, 0, 64, 80
1, 62160, Note_on_c, 0, 67, 80
1, 62160, Note_on_c, 0, 71, 80
1, 62339, Note_on_c, 0, 64, 0
1, 62339, Note_on_c, 0, 67, 0
1, 62339, Note_on_c, 0, 71, 0
1, 62520, Note_on_c, 0, 64, 80
1, 62520, Note_on_c, 0, 69, 80
1, 62579, Note_on_c, 0, 64, 0
1, 62579, Note_on_c, 0, 69, 0
1, 62880, Note_on_c, 0, 64, 80
1, 62880, Note_on_c, 0, 67, 80
1, 63335, Note_on_c, 0, 64, 0
1, 63335, Note_on_c, 0, 67, 0
1, 63720, Note_on_c, 0, 65, 80
1, 63720, Note_on_c, 0, 69, 80
1, 63720, Note_on_c, 0, 76, 80
1, 63947, Note_on_c, 0, 65, 0
1, 63947, Note_on_c, 0, 69, 0
1, 63947, Note_on_c, 0, 76, 0
1, 63960, Note_on_c, 0, 65, 80
1, 63960, Note_on_c, 0, 69, 80
1, 63960, Note_on_c, 0, 74, 80
1, 64073, Note_on_c, 0, 65, 0
1, 64073, Note_on_c, 0, 69, 0
1, 64073, Note_on_c, 0, 74, 0
1, 64080, Note_on_c, 0, 65, 80
1, 64080, Note_on_c, 0, 69, 80
1, 64080, Note_on_c, 0, 76, 80
1, 64421, Note_on_c, 0, 65, 0
1, 64421, Note_on_c, 0, 69, 0
1, 64421, Note_on_c, 0, 76, 0
1, 64440, Note_on_c, 0, 65, 80
1, 64440, Note_on_c, 0, 69, 80
1, 64440, Note_on_c, 0, 74, 80
1, 64667, Note_on_c, 0, 65, 0
1, 64667, Note_on_c, 0, 69, 0
1, 64667, Note_on_c, 0, 74, 0
1, 64680, Note_on_c, 0, 65, 80
1, 64680, Note_on_c, 0, 69, 80
1, 64680, Note_on_c, 0, 76, 80
1, 64739, Note_on_c, 0, 65, 0
1, 64739, Note_on_c, 0, 69, 0
1, 64739, Note_on_c, 0, 76, 0
1, 65040, Note_on_c, 0, 65, 80
1, 65040, Note_on_c, 0, 69, 80
1, 65040, Note_on_c, 0, 74, 80
1, 65219, Note_on_c, 0, 65, 0
1, 65219, Note_on_c, 0, 69, 0
1, 65219, Note_on_c, 0, 74, 0
1, 65400, Note_on_c, 0, 65, 80
1, 65400, Note_on_c, 0, 69, 80
1, 65400, Note_on_c, 0, 72, 80
1, 65459, Note_on_c, 0, 65, 0
1, 65459, Note_on_c, 0, 69, 0
1, 65459, Note_on_c, 0, 72, 0
1, 65760, Note_on_c, 0, 65, 80
1, 65760, Note_on_c, 0, 69, 80
1, 66215, Note_on_c, 0, 65, 0
1, 66215, Note_on_c, 0, 69, 0
1, 66240, Note_on_c, 0, 60, 80
1, 66240, Note_on_c, 0, 65, 80
1, 66581, Note_on_c, 0, 60, 0
1, 66581, Note_on_c, 0, 65, 0
1, 66600, Note_on_c, 0, 60, 80
1, 66600, Note_on_c, 0, 69, 80
1, 66827, Note_on_c, 0, 60, 0
1, 66827, Note_on_c, 0, 69, 0
1, 66840, Note_on_c, 0, 65, 80
1, 66840, Note_on_c, 0, 72, 80
1, 67295, Note_on_c, 0, 65, 0
1, 67295, Note_on_c, 0, 72, 0
1, 67320, Note_on_c, 0, 65, 80
1, 67320, Note_on_c, 0, 72, 80
1, 67547, Note_on_c, 0, 65, 0
1, 67547, Note_on_c, 0, 72, 0
1, 67560, Note_on_c, 0, 65, 80
1, 67560, Note_on_c, 0, 74, 80
1, 67619, Note_on_c, 0, 65, 0
1, 67619, Note_on_c, 0, 74, 0
1, 67920, Note_on_c, 0, 65, 80
1, 67920, Note_on_c, 0, 74, 80
1, 68099, Note_on_c, 0, 65, 0
1, 68099, Note_on_c, 0, 74, 0
1, 68280, Note_on_c, 0, 65, 80
1, 68280, Note_on_c, 0, 72, 80
1, 68339, Note_on_c, 0, 65, 0
1, 68339, Note_on_c, 0, 72, 0
1, 68640, Note_on_c, 0, 67, 80
1, 69095, Note_on_c, 0, 67, 0
1, 69120, Note_on_c, 0, 64, 80
1, 69120, Note_on_c, 0, 67, 80
1, 69120, Note_on_c, 0, 72, 80
1, 69461, Note_on_c, 0, 64, 0
1, 69461, Note_on_c, 0, 67, 0
1, 69461, Note_on_c, 0, 72, 0
1, 69480, Note_on_c, 0, 64, 80
1, 69480, Note_on_c, 0, 67, 80
1, 69480, Note_on_c, 0, 74, 80
1, 69821, Note_on_c, 0, 64, 0
1, 69821, Note_on_c, 0, 67, 0
1, 69821, Note_on_c, 0, 74, 0
1, 69840, Note_on_c, 0, 64, 80
1, 69840, Note_on_c, 0, 67, 80
1, 69840, Note_on_c, 0, 71, 80
1, 70181, Note_on_c, 0, 64, 0
1, 70181, Note_on_c, 0, 67, 0
1, 70181, Note_on_c, 0, 71, 0
1, 70200, Note_on_c, 0, 64, 80
1, 70200, Note_on_c, 0, 67, 80
1, 70200, Note_on_c, 0, 72, 80
1, 70427, Note_on_c, 0, 64, 0
1, 70427, Note_on_c, 0, 67, 0
1, 70427, Note_on_c, 0, 72, 0
1, 70440, Note_on_c, 0, 64, 80
1, 70440, Note_on_c, 0, 69, 80
1, 70499, Note_on_c, 0, 64, 0
1, 70499, Note_on_c, 0, 69, 0
1, 70800, Note_on_c, 0, 64, 80
1, 70800, Note_on_c, 0, 71, 80
1, 70979, Note_on_c, 0, 64, 0
1, 70979, Note_on_c, 0, 71, 0
1, 71160, Note_on_c, 0, 64, 80
1, 71160, Note_on_c, 0, 69, 80
1, 71219, Note_on_c, 0, 64, 0
1, 71219, Note_on_c, 0, 69, 0
1, 71520, Note_on_c, 0, 64, 80
1, 71633, Note_on_c, 0, 64, 0
1, 71640, Note_on_c, 0, 64, 80
1, 71759, Note_on_c, 0, 64, 0
1, 71880, Note_on_c, 0, 64, 80
1, 71993, Note_on_c, 0, 64, 0
1, 72000, Note_on_c, 0, 64, 80
1, 72000, Note_on_c, 0, 69, 80
1, 72000, Note_on_c, 0, 72, 80
1, 72341, Note_on_c, 0, 64, 0
1, 72341, Note_on_c, 0, 69, 0
1, 72341, Note_on_c, 0, 72, 0
1, 72360, Note_on_c, 0, 64, 80
1, 72360, Note_on_c, 0, 69, 80
1, 72360, Note_on_c, 0, 74, 80
1, 72701, Note_on_c, 0, 64, 0
1, 72701, Note_on_c, 0, 69, 0
1, 72701, Note_on_c, 0, 74, 0
1, 72720, Note_on_c, 0, 64, 80
1, 72720, Note_on_c, 0, 69, 80
1, 72720, Note_on_c, 0, 71, 80
1, 73061, Note_on_c, 0, 64, 0
1, 73061, Note_on_c, 0, 69, 0
1, 73061, Note_on_c, 0, 71, 0
1, 73080, Note_on_c, 0, 64, 80
1, 73080, Note_on_c, 0, 69, 80
1, 73080, Note_on_c, 0, 72, 80
1, 73307, Note_on_c, 0, 64, 0
1, 73307, Note_on_c, 0, 69, 0
1, 73307, Note_on_c, 0, 72, 0
1, 73320, Note_on_c, 0, 64, 80
1, 73320, Note_on_c, 0, 69, 80
1, 73379, Note_on_c, 0, 64, 0
1, 73379, Note_on_c, 0, 69, 0
1, 73680, Note_on_c, 0, 64, 80
1, 73680, Note_on_c, 0, 71, 80
1, 74021, Note_on_c, 0, 64, 0
1, 74021, Note_on_c, 0, 71, 0
1, 74040, Note_on_c, 0, 65, 80
1, 74040, Note_on_c, 0, 69, 80
1, 74099, Note_on_c, 0, 65, 0
1, 74099, Note_on_c, 0, 69, 0
1, 74400, Note_on_c, 0, 64, 80
1, 74513, Note_on_c, 0, 64, 0
1, 74520, Note_on_c, 0, 64, 80
1, 74639, Note_on_c, 0, 64, 0
1, 74760, Note_on_c, 0, 64, 80
1, 74873, Note_on_c, 0, 64, 0
1, 74880, Note_on_c, 0, 60, 80
1, 74880, Note_on_c, 0, 64, 80
1, 74880, Note_on_c, 0, 67, 80
1, 75221, Note_on_c, 0, 60, 0
1, 75221, Note_on_c, 0, 64, 0
1, 75221, Note_on_c, 0, 67, 0
1, 75240, Note_on_c, 0, 60, 80
1, 75240, Note_on_c, 0, 64, 80
1, 75240, Note_on_c, 0, 69, 80
1, 75581, Note_on_c, 0, 60, 0
1, 75581, Note_on_c, 0, 64, 0
1, 75581, Note_on_c, 0, 69, 0
1, 75600, Note_on_c, 0, 64, 80
1, 75600, Note_on_c, 0, 67, 80
1, 75600, Note_on_c, 0, 72, 80
1, 75827, Note_on_c, 0, 64, 0
1, 75827, Note_on_c, 0, 67, 0
1, 75827, Note_on_c, 0, 72, 0
1, 75840, Note_on_c, 0, 72, 80
1, 75840, Note_on_c, 0, 76, 80
1, 75840, Note_on_c, 0, 79, 80
1, 76295, Note_on_c, 0, 72, 0
1, 76295, Note_on_c, 0, 76, 0
1, 76295, Note_on_c, 0, 79, 0
1, 76320, Note_on_c, 0, 69, 80
1, 76320, Note_on_c, 0, 79, 80
1, 76775, Note_on_c, 0, 69, 0
1, 76775, Note_on_c, 0, 79, 0
1, 76800, Note_on_c, 0, 81, 80
1, 76913, Note_on_c, 0, 81, 0
1, 76920, Note_on_c, 0, 79, 80
1, 77033, Note_on_c, 0, 79, 0
1, 77040, Note_on_c, 0, 77, 80
1, 77399, Note_on_c, 0, 77, 0
1, 77760, Note_on_c, 0, 65, 80
1, 77760, Note_on_c, 0, 69, 80
1, 77760, Note_on_c, 0, 76, 80
1, 78101, Note_on_c, 0, 65, 0
1, 78101, Note_on_c, 0, 69, 0
1, 78101, Note_on_c, 0, 76, 0
1, 78120, Note_on_c, 0, 65, 80
1, 78120, Note_on_c, 0, 69, 80
1, 78120, Note_on_c, 0, 74, 80
1, 78233, Note_on_c, 0, 65, 0
1, 78233, Note_on_c, 0, 69, 0
1, 78233, Note_on_c, 0, 74, 0
1, 78240, Note_on_c, 0, 72, 80
1, 78353, Note_on_c, 0, 72, 0
1, 78360, Note_on_c, 0, 69, 80
1, 78473, Note_on_c, 0, 69, 0
1, 78480, Note_on_c, 0, 65, 80
1, 78480, Note_on_c, 0, 69, 80
1, 78480, Note_on_c, 0, 72, 80
1, 78821, Note_on_c, 0, 65, 0
1, 78821, Note_on_c, 0, 69, 0
1, 78821, Note_on_c, 0, 72, 0
1, 78840, Note_on_c, 0, 60, 80
1, 78840, Note_on_c, 0, 65, 80
1, 78840, Note_on_c, 0, 69, 80
1, 79181, Note_on_c, 0, 60, 0
1, 79181, Note_on_c, 0, 65, 0
1, 79181, Note_on_c, 0, 69, 0
1, 79200, Note_on_c, 0, 60, 80
1, 79200, Note_on_c, 0, 65, 80
1, 79541, Note_on_c, 0, 60, 0
1, 79541, Note_on_c, 0, 65, 0
1, 79560, Note_on_c, 0, 65, 80
1, 79560, Note_on_c, 0, 74, 80
1, 80243, Note_on_c, 0, 65, 0
1, 80243, Note_on_c, 0, 74, 0
1, 80280, Note_on_c, 0, 65, 80
1, 80280, Note_on_c, 0, 76, 80
1, 80621, Note_on_c, 0, 65, 0
1, 80621, Note_on_c, 0, 76, 0
1, 80640, Note_on_c, 0, 64, 80
1, 80640, Note_on_c, 0, 67, 80
1, 80640, Note_on_c, 0, 72, 80
1, 80981, Note_on_c, 0, 64, 0
1, 80981, Note_on_c, 0, 67, 0
1, 80981, Note_on_c, 0, 72, 0
1, 81000, Note_on_c, 0, 64, 80
1, 81000, Note_on_c, 0, 67, 80
1, 81455, Note_on_c, 0, 64, 0
1, 81455, Note_on_c, 0, 67, 0
1, 81720, Note_on_c, 0, 64, 80
1, 81720, Note_on_c, 0, 67, 80
1, 81899, Note_on_c, 0, 64, 0
1, 81899, Note_on_c, 0, 67, 0
1, 82440, Note_on_c, 0, 64, 80
1, 82440, Note_on_c, 0, 69, 80
1, 82619, Note_on_c, 0, 64, 0
1, 82619, Note_on_c, 0, 69, 0
1, 83160, Note_on_c, 0, 64, 80
1, 83160, Note_on_c, 0, 69, 80
1, 83501, Note_on_c, 0, 64, 0
1, 83501, Note_on_c, 0, 69, 0
1, 83520, Note_on_c, 0, 69, 80
1, 83520, Note_on_c, 0, 72, 80
1, 83520, Note_on_c, 0, 76, 80
1, 83861, Note_on_c, 0, 69, 0
1, 83861, Note_on_c, 0, 72, 0
1, 83861, Note_on_c, 0, 76, 0
1, 83880, Note_on_c, 0, 65, 80
1, 83880, Note_on_c, 0, 69, 80
1, 83880, Note_on_c, 0, 72, 80
1, 84221, Note_on_c, 0, 65, 0
1, 84221, Note_on_c, 0, 69, 0
1, 84221, Note_on_c, 0, 72, 0
1, 84240, Note_on_c, 0, 60, 80
1, 84240, Note_on_c, 0, 64, 80
1, 84240, Note_on_c, 0, 69, 80
1, 84581, Note_on_c, 0, 60, 0
1, 84581, Note_on_c, 0, 64, 0
1, 84581, Note_on_c, 0, 69, 0
1, 84600, Note_on_c, 0, 60, 80
1, 84600, Note_on_c, 0, 64, 80
1, 84941, Note_on_c, 0, 60, 0
1, 84941, Note_on_c, 0, 64, 0
1, 84960, Note_on_c, 0, 64, 80
1, 85643, Note_on_c, 0, 64, 0
1, 85680, Note_on_c, 0, 59, 80
1, 85680, Note_on_c, 0, 62, 80
1, 86039, Note_on_c, 0, 59, 0
1, 86039, Note_on_c, 0, 62, 0
1, 86760, Note_on_c, 0, 64, 80
1, 86760, Note_on_c, 0, 67, 80
1, 86939, Note_on_c, 0, 64, 0
1, 86939, Note_on_c, 0, 67, 0
1, 87480, Note_on_c, 0, 64, 80
1, 87480, Note_on_c, 0, 67, 80
1, 87659, Note_on_c, 0, 64, 0
1, 87659, Note_on_c, 0, 67, 0
1, 88200, Note_on_c, 0, 64, 80
1, 88200, Note_on_c, 0, 69, 80
1, 88379, Note_on_c, 0, 64, 0
1, 88379, Note_on_c, 0, 69, 0
1, 88920, Note_on_c, 0, 64, 80
1, 88920, Note_on_c, 0, 69, 80
1, 89099, Note_on_c, 0, 64, 0
1, 89099, Note_on_c, 0, 69, 0
1, 89280, Note_on_c, 0, 69, 80
1, 89280, Note_on_c, 0, 72, 80
1, 89280, Note_on_c, 0, 76, 80
1, 89621, Note_on_c, 0, 69, 0
1, 89621, Note_on_c, 0, 72, 0
1, 89621, Note_on_c, 0, 76, 0
1, 89640, Note_on_c, 0, 65, 80
1, 89640, Note_on_c, 0, 69, 80
1, 89640, Note_on_c, 0, 72, 80
1, 89981, Note_on_c, 0, 65, 0
1, 89981, Note_on_c, 0, 69, 0
1, 89981, Note_on_c, 0, 72, 0
1, 90000, Note_on_c, 0, 60, 80
1, 90000, Note_on_c, 0, 64, 80
1, 90000, Note_on_c, 0, 69, 80
1, 90341, Note_on_c, 0, 60, 0
1, 90341, Note_on_c, 0, 64, 0
1, 90341, Note_on_c, 0, 69, 0
1, 90360, Note_on_c, 0, 57, 80
1, 90360, Note_on_c, 0, 60, 80
1, 90360, Note_on_c, 0, 64, 80
1, 90701, Note_on_c, 0, 57, 0
1, 90701, Note_on_c, 0, 60, 0
1, 90701, Note_on_c, 0, 64, 0
1, 90720, Note_on_c, 0, 59, 80
1, 90720, Note_on_c, 0, 64, 80
1, 91403, Note_on_c, 0, 59, 0
1, 91403, Note_on_c, 0, 64, 0
1, 91440, Note_on_c, 0, 59, 80
1, 91440, Note_on_c, 0, 62, 80
1, 91799, Note_on_c, 0, 59, 0
1, 91799, Note_on_c, 0, 62, 0
1, 92160, Note_on_c, 0, 60, 80
1, 92160, Note_on_c, 0, 64, 80
1, 92160, Note_on_c, 0, 72, 80
1, 92519, Note_on_c, 0, 60, 0
1, 92519, Note_on_c, 0, 64, 0
1, 92519, Note_on_c, 0, 72, 0
1, 93840, Note_on_c, 0, 67, 80
1, 93953, Note_on_c, 0, 67, 0
1, 93960, Note_on_c, 0, 67, 80
1, 94079, Note_on_c, 0, 67, 0
1, 94200, Note_on_c, 0, 67, 80
1, 94313, Note_on_c, 0, 67, 0
1, 94320, Note_on_c, 0, 67, 80
1, 94439, Note_on_c, 0, 67, 0
1, 94560, Note_on_c, 0, 67, 80
1, 94673, Note_on_c, 0, 67, 0
1, 94680, Note_on_c, 0, 67, 80
1, 94799, Note_on_c, 0, 67, 0
1, 94920, Note_on_c, 0, 67, 80
1, 95033, Note_on_c, 0, 67, 0
1, 95040, Note_on_c, 0, 60, 80
1, 95040, Note_on_c, 0, 64, 80
1, 95040, Note_on_c, 0, 67, 80
1, 95040, Note_on_c, 0, 72, 80
1, 95399, Note_on_c, 0, 60, 0
1, 95399, Note_on_c, 0, 64, 0
1, 95399, Note_on_c, 0, 67, 0
1, 95399, Note_on_c, 0, 72, 0
1, 97920, Control_c, 0, 64, 0
1, 97921, End_track
2, 0, Start_track
2, 0, Title_t, "Piano, Piano, Piano, Secondo I\000"
2, 0, Key_signature, 0, "major"
2, 0, Control_c, 1, 121, 0
2, 0, Program_c, 1, 0
2, 0, Control_c, 1, 7, 100
2, 0, Control_c, 1, 10, 64
2, 0, Control_c, 1, 91, 0
2, 0, Control_c, 1, 93, 0
2, 0, MIDI_port, 0
2, 2, Control_c, 1, 64, 127
2, 4560, Note_on_c, 1, 67, 80
2, 4673, Note_on_c, 1, 67, 0
2, 4680, Note_on_c, 1, 67, 80
2, 4799, Note_on_c, 1, 67, 0
2, 4920, Note_on_c, 1, 67, 80
2, 5033, Note_on_c, 1, 67, 0
2, 5040, Note_on_c, 1, 67, 80
2, 5159, Note_on_c, 1, 67, 0
2, 5280, Note_on_c, 1, 67, 80
2, 5393, Note_on_c, 1, 67, 0
2, 5400, Note_on_c, 1, 67, 80
2, 5519, Note_on_c, 1, 67, 0
2, 5640, Note_on_c, 1, 67, 80
2, 5753, Note_on_c, 1, 67, 0
2, 5760, Note_on_c, 1, 48, 80
2, 5987, Note_on_c, 1, 48, 0
2, 6000, Note_on_c, 1, 60, 80
2, 6113, Note_on_c, 1, 60, 0
2, 6120, Note_on_c, 1, 48, 80
2, 6347, Note_on_c, 1, 48, 0
2, 6360, Note_on_c, 1, 60, 80
2, 6473, Note_on_c, 1, 60, 0
2, 6480, Note_on_c, 1, 48, 80
2, 6707, Note_on_c, 1, 48, 0
2, 6720, Note_on_c, 1, 60, 80
2, 6833, Note_on_c, 1, 60, 0
2, 6840, Note_on_c, 1, 48, 80
2, 7067, Note_on_c, 1, 48, 0
2, 7080, Note_on_c, 1, 60, 80
2, 7193, Note_on_c, 1, 60, 0
2, 7200, Note_on_c, 1, 48, 80
2, 7427, Note_on_c, 1, 48, 0
2, 7440, Note_on_c, 1, 60, 80
2, 7553, Note_on_c, 1, 60, 0
2, 7560, Note_on_c, 1, 48, 80
2, 7787, Note_on_c, 1, 48, 0
2, 7800, Note_on_c, 1, 60, 80
2, 7913, Note_on_c, 1, 60, 0
2, 7920, Note_on_c, 1, 48, 80
2, 8147, Note_on_c, 1, 48, 0
2, 8160, Note_on_c, 1, 60, 80
2, 8273, Note_on_c, 1, 60, 0
2, 8280, Note_on_c, 1, 48, 80
2, 8507, Note_on_c, 1, 48, 0
2, 8520, Note_on_c, 1, 60, 80
2, 8633, Note_on_c, 1, 60, 0
2, 8640, Note_on_c, 1, 48, 80
2, 8867, Note_on_c, 1, 48, 0
2, 8880, Note_on_c, 1, 60, 80
2, 8993, Note_on_c, 1, 60, 0
2, 9000, Note_on_c, 1, 48, 80
2, 9227, Note_on_c, 1, 48, 0
2, 9240, Note_on_c, 1, 60, 80
2, 9353, Note_on_c, 1, 60, 0
2, 9360, Note_on_c, 1, 48, 80
2, 9587, Note_on_c, 1, 48, 0
2, 9600, Note_on_c, 1, 60, 80
2, 9713, Note_on_c, 1, 60, 0
2, 9720, Note_on_c, 1, 48, 80
2, 9947, Note_on_c, 1, 48, 0
2, 9960, Note_on_c, 1, 60, 80
2, 10073, Note_on_c, 1, 60, 0
2, 10080, Note_on_c, 1, 48, 80
2, 10307, Note_on_c, 1, 48, 0
2, 10320, Note_on_c, 1, 60, 80
2, 10433, Note_on_c, 1, 60, 0
2, 10440, Note_on_c, 1, 48, 80
2, 10667, Note_on_c, 1, 48, 0
2, 10680, Note_on_c, 1, 60, 80
2, 10793, Note_on_c, 1, 60, 0
2, 10800, Note_on_c, 1, 48, 80
2, 11027, Note_on_c, 1, 48, 0
2, 11040, Note_on_c, 1, 60, 80
2, 11153, Note_on_c, 1, 60, 0
2, 11160, Note_on_c, 1, 48, 80
2, 11387, Note_on_c, 1, 48, 0
2, 11400, Note_on_c, 1, 60, 80
2, 11513, Note_on_c, 1, 60, 0
2, 11520, Note_on_c, 1, 53, 80
2, 11747, Note_on_c, 1, 53, 0
2, 11760, Note_on_c, 1, 60, 80
2, 11873, Note_on_c, 1, 60, 0
2, 11880, Note_on_c, 1, 53, 80
2, 12107, Note_on_c, 1, 53, 0
2, 12120, Note_on_c, 1, 60, 80
2, 12233, Note_on_c, 1, 60, 0
2, 12240, Note_on_c, 1, 53, 80
2, 12467, Note_on_c, 1, 53, 0
2, 12480, Note_on_c, 1, 60, 80
2, 12593, Note_on_c, 1, 60, 0
2, 12600, Note_on_c, 1, 53, 80
2, 12827, Note_on_c, 1, 53, 0
2, 12840, Note_on_c, 1, 60, 80
2, 12953, Note_on_c, 1, 60, 0
2, 12960, Note_on_c, 1, 53, 80
2, 13187, Note_on_c, 1, 53, 0
2, 13200, Note_on_c, 1, 60, 80
2, 13313, Note_on_c, 1, 60, 0
2, 13320, Note_on_c, 1, 53, 80
2, 13547, Note_on_c, 1, 53, 0
2, 13560, Note_on_c, 1, 60, 80
2, 13673, Note_on_c, 1, 60, 0
2, 13680, Note_on_c, 1, 53, 80
2, 13907, Note_on_c, 1, 53, 0
2, 13920, Note_on_c, 1, 60, 80
2, 14033, Note_on_c, 1, 60, 0
2, 14040, Note_on_c, 1, 53, 80
2, 14267, Note_on_c, 1, 53, 0
2, 14280, Note_on_c, 1, 60, 80
2, 14393, Note_on_c, 1, 60, 0
2, 14400, Note_on_c, 1, 48, 80
2, 14627, Note_on_c, 1, 48, 0
2, 14640, Note_on_c, 1, 60, 80
2, 14753, Note_on_c, 1, 60, 0
2, 14760, Note_on_c, 1, 48, 80
2, 14987, Note_on_c, 1, 48, 0
2, 15000, Note_on_c, 1, 60, 80
2, 15113, Note_on_c, 1, 60, 0
2, 15120, Note_on_c, 1, 48, 80
2, 15347, Note_on_c, 1, 48, 0
2, 15360, Note_on_c, 1, 60, 80
2, 15473, Note_on_c, 1, 60, 0
2, 15480, Note_on_c, 1, 48, 80
2, 15707, Note_on_c, 1, 48, 0
2, 15720, Note_on_c, 1, 60, 80
2, 15833, Note_on_c, 1, 60, 0
2, 15840, Note_on_c, 1, 48, 80
2, 16067, Note_on_c, 1, 48, 0
2, 16080, Note_on_c, 1, 60, 80
2, 16193, Note_on_c, 1, 60, 0
2, 16200, Note_on_c, 1, 48, 80
2, 16427, Note_on_c, 1, 48, 0
2, 16440, Note_on_c, 1, 60, 80
2, 16553, Note_on_c, 1, 60, 0
2, 16560, Note_on_c, 1, 48, 80
2, 16787, Note_on_c, 1, 48, 0
2, 16800, Note_on_c, 1, 60, 80
2, 16913, Note_on_c, 1, 60, 0
2, 16920, Note_on_c, 1, 48, 80
2, 17147, Note_on_c, 1, 48, 0
2, 17160, Note_on_c, 1, 60, 80
2, 17273, Note_on_c, 1, 60, 0
2, 17280, Note_on_c, 1, 48, 80
2, 17507, Note_on_c, 1, 48, 0
2, 17520, Note_on_c, 1, 60, 80
2, 17633, Note_on_c, 1, 60, 0
2, 17640, Note_on_c, 1, 48, 80
2, 17867, Note_on_c, 1, 48, 0
2, 17880, Note_on_c, 1, 60, 80
2, 17993, Note_on_c, 1, 60, 0
2, 18000, Note_on_c, 1, 48, 80
2, 18227, Note_on_c, 1, 48, 0
2, 18240, Note_on_c, 1, 60, 80
2, 18353, Note_on_c, 1, 60, 0
2, 18360, Note_on_c, 1, 48, 80
2, 18587, Note_on_c, 1, 48, 0
2, 18600, Note_on_c, 1, 60, 80
2, 18713, Note_on_c, 1, 60, 0
2, 18720, Note_on_c, 1, 48, 80
2, 18947, Note_on_c, 1, 48, 0
2, 18960, Note_on_c, 1, 60, 80
2, 19073, Note_on_c, 1, 60, 0
2, 19080, Note_on_c, 1, 48, 80
2, 19307, Note_on_c, 1, 48, 0
2, 19320, Note_on_c, 1, 60, 80
2, 19433, Note_on_c, 1, 60, 0
2, 19440, Note_on_c, 1, 48, 80
2, 19667, Note_on_c, 1, 48, 0
2, 19680, Note_on_c, 1, 60, 80
2, 19793, Note_on_c, 1, 60, 0
2, 19800, Note_on_c, 1, 48, 80
2, 20027, Note_on_c, 1, 48, 0
2, 20040, Note_on_c, 1, 60, 80
2, 20153, Note_on_c, 1, 60, 0
2, 20160, Note_on_c, 1, 48, 80
2, 20387, Note_on_c, 1, 48, 0
2, 20400, Note_on_c, 1, 60, 80
2, 20513, Note_on_c, 1, 60, 0
2, 20520, Note_on_c, 1, 48, 80
2, 20747, Note_on_c, 1, 48, 0
2, 20760, Note_on_c, 1, 60, 80
2, 20873, Note_on_c, 1, 60, 0
2, 20880, Note_on_c, 1, 48, 80
2, 21107, Note_on_c, 1, 48, 0
2, 21120, Note_on_c, 1, 60, 80
2, 21233, Note_on_c, 1, 60, 0
2, 21240, Note_on_c, 1, 48, 80
2, 21467, Note_on_c, 1, 48, 0
2, 21480, Note_on_c, 1, 60, 80
2, 21593, Note_on_c, 1, 60, 0
2, 21600, Note_on_c, 1, 48, 80
2, 21827, Note_on_c, 1, 48, 0
2, 21840, Note_on_c, 1, 60, 80
2, 21953, Note_on_c, 1, 60, 0
2, 21960, Note_on_c, 1, 48, 80
2, 22187, Note_on_c, 1, 48, 0
2, 22200, Note_on_c, 1, 60, 80
2, 22313, Note_on_c, 1, 60, 0
2, 22320, Note_on_c, 1, 48, 80
2, 22547, Note_on_c, 1, 48, 0
2, 22560, Note_on_c, 1, 60, 80
2, 22673, Note_on_c, 1, 60, 0
2, 22680, Note_on_c, 1, 48, 80
2, 22907, Note_on_c, 1, 48, 0
2, 22920, Note_on_c, 1, 60, 80
2, 23033, Note_on_c, 1, 60, 0
2, 23040, Note_on_c, 1, 53, 80
2, 23267, Note_on_c, 1, 53, 0
2, 23280, Note_on_c, 1, 60, 80
2, 23393, Note_on_c, 1, 60, 0
2, 23400, Note_on_c, 1, 53, 80
2, 23627, Note_on_c, 1, 53, 0
2, 23640, Note_on_c, 1, 60, 80
2, 23753, Note_on_c, 1, 60, 0
2, 23760, Note_on_c, 1, 53, 80
2, 23987, Note_on_c, 1, 53, 0
2, 24000, Note_on_c, 1, 60, 80
2, 24113, Note_on_c, 1, 60, 0
2, 24120, Note_on_c, 1, 53, 80
2, 24347, Note_on_c, 1, 53, 0
2, 24360, Note_on_c, 1, 60, 80
2, 24473, Note_on_c, 1, 60, 0
2, 24480, Note_on_c, 1, 53, 80
2, 24707, Note_on_c, 1, 53, 0
2, 24720, Note_on_c, 1, 60, 80
2, 24833, Note_on_c, 1, 60, 0
2, 24840, Note_on_c, 1, 53, 80
2, 25067, Note_on_c, 1, 53, 0
2, 25080, Note_on_c, 1, 60, 80
2, 25193, Note_on_c, 1, 60, 0
2, 25200, Note_on_c, 1, 53, 80
2, 25427, Note_on_c, 1, 53, 0
2, 25440, Note_on_c, 1, 60, 80
2, 25553, Note_on_c, 1, 60, 0
2, 25560, Note_on_c, 1, 53, 80
2, 25787, Note_on_c, 1, 53, 0
2, 25800, Note_on_c, 1, 60, 80
2, 25913, Note_on_c, 1, 60, 0
2, 25920, Note_on_c, 1, 48, 80
2, 26147, Note_on_c, 1, 48, 0
2, 26160, Note_on_c, 1, 60, 80
2, 26273, Note_on_c, 1, 60, 0
2, 26280, Note_on_c, 1, 48, 80
2, 26507, Note_on_c, 1, 48, 0
2, 26520, Note_on_c, 1, 60, 80
2, 26633, Note_on_c, 1, 60, 0
2, 26640, Note_on_c, 1, 48, 80
2, 26867, Note_on_c, 1, 48, 0
2, 26880, Note_on_c, 1, 60, 80
2, 26993, Note_on_c, 1, 60, 0
2, 27000, Note_on_c, 1, 48, 80
2, 27227, Note_on_c, 1, 48, 0
2, 27240, Note_on_c, 1, 60, 80
2, 27353, Note_on_c, 1, 60, 0
2, 27360, Note_on_c, 1, 48, 80
2, 27587, Note_on_c, 1, 48, 0
2, 27600, Note_on_c, 1, 60, 80
2, 27713, Note_on_c, 1, 60, 0
2, 27720, Note_on_c, 1, 48, 80
2, 27947, Note_on_c, 1, 48, 0
2, 27960, Note_on_c, 1, 60, 80
2, 28073, Note_on_c, 1, 60, 0
2, 28080, Note_on_c, 1, 48, 80
2, 28307, Note_on_c, 1, 48, 0
2, 28320, Note_on_c, 1, 60, 80
2, 28433, Note_on_c, 1, 60, 0
2, 28440, Note_on_c, 1, 48, 80
2, 28667, Note_on_c, 1, 48, 0
2, 28680, Note_on_c, 1, 60, 80
2, 28793, Note_on_c, 1, 60, 0
2, 28800, Note_on_c, 1, 48, 80
2, 29027, Note_on_c, 1, 48, 0
2, 29040, Note_on_c, 1, 60, 80
2, 29153, Note_on_c, 1, 60, 0
2, 29160, Note_on_c, 1, 48, 80
2, 29387, Note_on_c, 1, 48, 0
2, 29400, Note_on_c, 1, 60, 80
2, 29513, Note_on_c, 1, 60, 0
2, 29520, Note_on_c, 1, 48, 80
2, 29747, Note_on_c, 1, 48, 0
2, 29760, Note_on_c, 1, 60, 80
2, 29873, Note_on_c, 1, 60, 0
2, 29880, Note_on_c, 1, 48, 80
2, 30107, Note_on_c, 1, 48, 0
2, 30120, Note_on_c, 1, 60, 80
2, 30233, Note_on_c, 1, 60, 0
2, 30240, Note_on_c, 1, 48, 80
2, 30467, Note_on_c, 1, 48, 0
2, 30480, Note_on_c, 1, 60, 80
2, 30593, Note_on_c, 1, 60, 0
2, 30600, Note_on_c, 1, 48, 80
2, 30827, Note_on_c, 1, 48, 0
2, 30840, Note_on_c, 1, 59, 80
2, 30840, Note_on_c, 1, 60, 80
2, 30953, Note_on_c, 1, 59, 0
2, 30953, Note_on_c, 1, 60, 0
2, 30960, Note_on_c, 1, 48, 80
2, 31187, Note_on_c, 1, 48, 0
2, 31200, Note_on_c, 1, 60, 80
2, 31313, Note_on_c, 1, 60, 0
2, 31320, Note_on_c, 1, 48, 80
2, 31547, Note_on_c, 1, 48, 0
2, 31560, Note_on_c, 1, 60, 80
2, 31673, Note_on_c, 1, 60, 0
2, 31680, Note_on_c, 1, 57, 80
2, 31907, Note_on_c, 1, 57, 0
2, 31920, Note_on_c, 1, 60, 80
2, 32033, Note_on_c, 1, 60, 0
2, 32040, Note_on_c, 1, 57, 80
2, 32267, Note_on_c, 1, 57, 0
2, 32280, Note_on_c, 1, 60, 80
2, 32393, Note_on_c, 1, 60, 0
2, 32400, Note_on_c, 1, 57, 80
2, 32627, Note_on_c, 1, 57, 0
2, 32640, Note_on_c, 1, 60, 80
2, 32753, Note_on_c, 1, 60, 0
2, 32760, Note_on_c, 1, 57, 80
2, 32987, Note_on_c, 1, 57, 0
2, 33000, Note_on_c, 1, 60, 80
2, 33113, Note_on_c, 1, 60, 0
2, 33120, Note_on_c, 1, 57, 80
2, 33347, Note_on_c, 1, 57, 0
2, 33360, Note_on_c, 1, 60, 80
2, 33473, Note_on_c, 1, 60, 0
2, 33480, Note_on_c, 1, 57, 80
2, 33707, Note_on_c, 1, 57, 0
2, 33720, Note_on_c, 1, 60, 80
2, 33833, Note_on_c, 1, 60, 0
2, 33840, Note_on_c, 1, 57, 80
2, 34067, Note_on_c, 1, 57, 0
2, 34080, Note_on_c, 1, 60, 80
2, 34193, Note_on_c, 1, 60, 0
2, 34200, Note_on_c, 1, 57, 80
2, 34427, Note_on_c, 1, 57, 0
2, 34440, Note_on_c, 1, 60, 80
2, 34553, Note_on_c, 1, 60, 0
2, 37440, Note_on_c, 1, 50, 80
2, 37667, Note_on_c, 1, 50, 0
2, 37680, Note_on_c, 1, 62, 80
2, 37793, Note_on_c, 1, 62, 0
2, 37800, Note_on_c, 1, 50, 80
2, 38027, Note_on_c, 1, 50, 0
2, 38040, Note_on_c, 1, 62, 80
2, 38153, Note_on_c, 1, 62, 0
2, 38160, Note_on_c, 1, 50, 80
2, 38387, Note_on_c, 1, 50, 0
2, 38400, Note_on_c, 1, 62, 80
2, 38513, Note_on_c, 1, 62, 0
2, 38520, Note_on_c, 1, 50, 80
2, 38747, Note_on_c, 1, 50, 0
2, 38760, Note_on_c, 1, 62, 80
2, 38873, Note_on_c, 1, 62, 0
2, 38880, Note_on_c, 1, 53, 80
2, 39107, Note_on_c, 1, 53, 0
2, 39120, Note_on_c, 1, 62, 80
2, 39233, Note_on_c, 1, 62, 0
2, 39240, Note_on_c, 1, 53, 80
2, 39467, Note_on_c, 1, 53, 0
2, 39480, Note_on_c, 1, 62, 80
2, 39593, Note_on_c, 1, 62, 0
2, 39600, Note_on_c, 1, 53, 80
2, 39827, Note_on_c, 1, 53, 0
2, 39840, Note_on_c, 1, 62, 80
2, 39953, Note_on_c, 1, 62, 0
2, 39960, Note_on_c, 1, 53, 80
2, 40187, Note_on_c, 1, 53, 0
2, 40200, Note_on_c, 1, 62, 80
2, 40313, Note_on_c, 1, 62, 0
2, 40320, Note_on_c, 1, 48, 80
2, 40547, Note_on_c, 1, 48, 0
2, 40560, Note_on_c, 1, 60, 80
2, 40673, Note_on_c, 1, 60, 0
2, 40680, Note_on_c, 1, 48, 80
2, 40907, Note_on_c, 1, 48, 0
2, 40920, Note_on_c, 1, 60, 80
2, 41033, Note_on_c, 1, 60, 0
2, 41040, Note_on_c, 1, 48, 80
2, 41267, Note_on_c, 1, 48, 0
2, 41280, Note_on_c, 1, 60, 80
2, 41393, Note_on_c, 1, 60, 0
2, 41400, Note_on_c, 1, 48, 80
2, 41627, Note_on_c, 1, 48, 0
2, 41640, Note_on_c, 1, 60, 80
2, 41753, Note_on_c, 1, 60, 0
2, 41760, Note_on_c, 1, 57, 80
2, 41987, Note_on_c, 1, 57, 0
2, 42000, Note_on_c, 1, 60, 80
2, 42113, Note_on_c, 1, 60, 0
2, 42120, Note_on_c, 1, 57, 80
2, 42347, Note_on_c, 1, 57, 0
2, 42360, Note_on_c, 1, 60, 80
2, 42473, Note_on_c, 1, 60, 0
2, 42480, Note_on_c, 1, 57, 80
2, 42707, Note_on_c, 1, 57, 0
2, 42720, Note_on_c, 1, 60, 80
2, 42833, Note_on_c, 1, 60, 0
2, 42840, Note_on_c, 1, 57, 80
2, 43067, Note_on_c, 1, 57, 0
2, 43080, Note_on_c, 1, 60, 80
2, 43193, Note_on_c, 1, 60, 0
2, 43200, Note_on_c, 1, 50, 80
2, 43427, Note_on_c, 1, 50, 0
2, 43440, Note_on_c, 1, 60, 80
2, 43553, Note_on_c, 1, 60, 0
2, 43560, Note_on_c, 1, 50, 80
2, 43787, Note_on_c, 1, 50, 0
2, 43800, Note_on_c, 1, 60, 80
2, 43913, Note_on_c, 1, 60, 0
2, 43920, Note_on_c, 1, 50, 80
2, 44147, Note_on_c, 1, 50, 0
2, 44160, Note_on_c, 1, 60, 80
2, 44273, Note_on_c, 1, 60, 0
2, 44280, Note_on_c, 1, 50, 80
2, 44507, Note_on_c, 1, 50, 0
2, 44520, Note_on_c, 1, 60, 80
2, 44633, Note_on_c, 1, 60, 0
2, 44880, Note_on_c, 1, 67, 80
2, 44993, Note_on_c, 1, 67, 0
2, 45000, Note_on_c, 1, 67, 80
2, 45119, Note_on_c, 1, 67, 0
2, 45240, Note_on_c, 1, 67, 80
2, 45353, Note_on_c, 1, 67, 0
2, 45360, Note_on_c, 1, 67, 80
2, 45479, Note_on_c, 1, 67, 0
2, 45600, Note_on_c, 1, 67, 80
2, 45713, Note_on_c, 1, 67, 0
2, 45720, Note_on_c, 1, 67, 80
2, 45839, Note_on_c, 1, 67, 0
2, 45960, Note_on_c, 1, 67, 80
2, 46073, Note_on_c, 1, 67, 0
2, 46080, Note_on_c, 1, 48, 80
2, 46307, Note_on_c, 1, 48, 0
2, 46320, Note_on_c, 1, 60, 80
2, 46433, Note_on_c, 1, 60, 0
2, 46440, Note_on_c, 1, 48, 80
2, 46667, Note_on_c, 1, 48, 0
2, 46680, Note_on_c, 1, 60, 80
2, 46793, Note_on_c, 1, 60, 0
2, 46800, Note_on_c, 1, 48, 80
2, 47027, Note_on_c, 1, 48, 0
2, 47040, Note_on_c, 1, 60, 80
2, 47153, Note_on_c, 1, 60, 0
2, 47160, Note_on_c, 1, 48, 80
2, 47387, Note_on_c, 1, 48, 0
2, 47400, Note_on_c, 1, 60, 80
2, 47513, Note_on_c, 1, 60, 0
2, 47520, Note_on_c, 1, 48, 80
2, 47747, Note_on_c, 1, 48, 0
2, 47760, Note_on_c, 1, 60, 80
2, 47873, Note_on_c, 1, 60, 0
2, 47880, Note_on_c, 1, 48, 80
2, 48107, Note_on_c, 1, 48, 0
2, 48120, Note_on_c, 1, 60, 80
2, 48233, Note_on_c, 1, 60, 0
2, 48240, Note_on_c, 1, 48, 80
2, 48467, Note_on_c, 1, 48, 0
2, 48480, Note_on_c, 1, 60, 80
2, 48593, Note_on_c, 1, 60, 0
2, 48600, Note_on_c, 1, 48, 80
2, 48827, Note_on_c, 1, 48, 0
2, 48840, Note_on_c, 1, 60, 80
2, 48953, Note_on_c, 1, 60, 0
2, 48960, Note_on_c, 1, 48, 80
2, 49187, Note_on_c, 1, 48, 0
2, 49200, Note_on_c, 1, 60, 80
2, 49313, Note_on_c, 1, 60, 0
2, 49320, Note_on_c, 1, 48, 80
2, 49547, Note_on_c, 1, 48, 0
2, 49560, Note_on_c, 1, 60, 80
2, 49673, Note_on_c, 1, 60, 0
2, 49680, Note_on_c, 1, 48, 80
2, 49907, Note_on_c, 1, 48, 0
2, 49920, Note_on_c, 1, 60, 80
2, 50033, Note_on_c, 1, 60, 0
2, 50040, Note_on_c, 1, 48, 80
2, 50267, Note_on_c, 1, 48, 0
2, 50280, Note_on_c, 1, 60, 80
2, 50393, Note_on_c, 1, 60, 0
2, 50400, Note_on_c, 1, 48, 80
2, 50627, Note_on_c, 1, 48, 0
2, 50640, Note_on_c, 1, 60, 80
2, 50753, Note_on_c, 1, 60, 0
2, 50760, Note_on_c, 1, 48, 80
2, 50987, Note_on_c, 1, 48, 0
2, 51000, Note_on_c, 1, 60, 80
2, 51113, Note_on_c, 1, 60, 0
2, 51120, Note_on_c, 1, 48, 80
2, 51347, Note_on_c, 1, 48, 0
2, 51360, Note_on_c, 1, 60, 80
2, 51473, Note_on_c, 1, 60, 0
2, 51480, Note_on_c, 1, 48, 80
2, 51707, Note_on_c, 1, 48, 0
2, 51720, Note_on_c, 1, 60, 80
2, 51833, Note_on_c, 1, 60, 0
2, 51840, Note_on_c, 1, 53, 80
2, 52067, Note_on_c, 1, 53, 0
2, 52080, Note_on_c, 1, 60, 80
2, 52193, Note_on_c, 1, 60, 0
2, 52200, Note_on_c, 1, 53, 80
2, 52427, Note_on_c, 1, 53, 0
2, 52440, Note_on_c, 1, 60, 80
2, 52553, Note_on_c, 1, 60, 0
2, 52560, Note_on_c, 1, 53, 80
2, 52787, Note_on_c, 1, 53, 0
2, 52800, Note_on_c, 1, 60, 80
2, 52913, Note_on_c, 1, 60, 0
2, 52920, Note_on_c, 1, 53, 80
2, 53147, Note_on_c, 1, 53, 0
2, 53160, Note_on_c, 1, 60, 80
2, 53273, Note_on_c, 1, 60, 0
2, 53280, Note_on_c, 1, 53, 80
2, 53507, Note_on_c, 1, 53, 0
2, 53520, Note_on_c, 1, 60, 80
2, 53633, Note_on_c, 1, 60, 0
2, 53640, Note_on_c, 1, 53, 80
2, 53867, Note_on_c, 1, 53, 0
2, 53880, Note_on_c, 1, 60, 80
2, 53993, Note_on_c, 1, 60, 0
2, 54000, Note_on_c, 1, 53, 80
2, 54227, Note_on_c, 1, 53, 0
2, 54240, Note_on_c, 1, 60, 80
2, 54353, Note_on_c, 1, 60, 0
2, 54360, Note_on_c, 1, 53, 80
2, 54587, Note_on_c, 1, 53, 0
2, 54600, Note_on_c, 1, 60, 80
2, 54713, Note_on_c, 1, 60, 0
2, 54720, Note_on_c, 1, 48, 80
2, 54947, Note_on_c, 1, 48, 0
2, 54960, Note_on_c, 1, 60, 80
2, 55073, Note_on_c, 1, 60, 0
2, 55080, Note_on_c, 1, 48, 80
2, 55307, Note_on_c, 1, 48, 0
2, 55320, Note_on_c, 1, 60, 80
2, 55433, Note_on_c, 1, 60, 0
2, 55440, Note_on_c, 1, 48, 80
2, 55667, Note_on_c, 1, 48, 0
2, 55680, Note_on_c, 1, 60, 80
2, 55793, Note_on_c, 1, 60, 0
2, 55800, Note_on_c, 1, 48, 80
2, 56027, Note_on_c, 1, 48, 0
2, 56040, Note_on_c, 1, 60, 80
2, 56153, Note_on_c, 1, 60, 0
2, 56160, Note_on_c, 1, 48, 80
2, 56387, Note_on_c, 1, 48, 0
2, 56400, Note_on_c, 1, 60, 80
2, 56513, Note_on_c, 1, 60, 0
2, 56520, Note_on_c, 1, 48, 80
2, 56747, Note_on_c, 1, 48, 0
2, 56760, Note_on_c, 1, 60, 80
2, 56873, Note_on_c, 1, 60, 0
2, 56880, Note_on_c, 1, 48, 80
2, 57107, Note_on_c, 1, 48, 0
2, 57120, Note_on_c, 1, 60, 80
2, 57233, Note_on_c, 1, 60, 0
2, 57240, Note_on_c, 1, 48, 80
2, 57467, Note_on_c, 1, 48, 0
2, 57480, Note_on_c, 1, 60, 80
2, 57593, Note_on_c, 1, 60, 0
2, 57600, Note_on_c, 1, 48, 80
2, 57827, Note_on_c, 1, 48, 0
2, 57840, Note_on_c, 1, 60, 80
2, 57953, Note_on_c, 1, 60, 0
2, 57960, Note_on_c, 1, 48, 80
2, 58187, Note_on_c, 1, 48, 0
2, 58200, Note_on_c, 1, 60, 80
2, 58313, Note_on_c, 1, 60, 0
2, 58320, Note_on_c, 1, 48, 80
2, 58547, Note_on_c, 1, 48, 0
2, 58560, Note_on_c, 1, 60, 80
2, 58673, Note_on_c, 1, 60, 0
2, 58680, Note_on_c, 1, 48, 80
2, 58907, Note_on_c, 1, 48, 0
2, 58920, Note_on_c, 1, 60, 80
2, 59033, Note_on_c, 1, 60, 0
2, 59040, Note_on_c, 1, 48, 80
2, 59267, Note_on_c, 1, 48, 0
2, 59280, Note_on_c, 1, 60, 80
2, 59393, Note_on_c, 1, 60, 0
2, 59400, Note_on_c, 1, 48, 80
2, 59627, Note_on_c, 1, 48, 0
2, 59640, Note_on_c, 1, 60, 80
2, 59753, Note_on_c, 1, 60, 0
2, 59760, Note_on_c, 1, 48, 80
2, 59987, Note_on_c, 1, 48, 0
2, 60000, Note_on_c, 1, 60, 80
2, 60113, Note_on_c, 1, 60, 0
2, 60120, Note_on_c, 1, 48, 80
2, 60347, Note_on_c, 1, 48, 0
2, 60360, Note_on_c, 1, 60, 80
2, 60473, Note_on_c, 1, 60, 0
2, 60480, Note_on_c, 1, 48, 80
2, 60707, Note_on_c, 1, 48, 0
2, 60720, Note_on_c, 1, 60, 80
2, 60833, Note_on_c, 1, 60, 0
2, 60840, Note_on_c, 1, 48, 80
2, 61067, Note_on_c, 1, 48, 0
2, 61080, Note_on_c, 1, 60, 80
2, 61193, Note_on_c, 1, 60, 0
2, 61200, Note_on_c, 1, 48, 80
2, 61427, Note_on_c, 1, 48, 0
2, 61440, Note_on_c, 1, 60, 80
2, 61553, Note_on_c, 1, 60, 0
2, 61560, Note_on_c, 1, 48, 80
2, 61787, Note_on_c, 1, 48, 0
2, 61800, Note_on_c, 1, 60, 80
2, 61913, Note_on_c, 1, 60, 0
2, 61920, Note_on_c, 1, 48, 80
2, 62147, Note_on_c, 1, 48, 0
2, 62160, Note_on_c, 1, 60, 80
2, 62273, Note_on_c, 1, 60, 0
2, 62280, Note_on_c, 1, 48, 80
2, 62507, Note_on_c, 1, 48, 0
2, 62520, Note_on_c, 1, 60, 80
2, 62633, Note_on_c, 1, 60, 0
2, 62640, Note_on_c, 1, 48, 80
2, 62867, Note_on_c, 1, 48, 0
2, 62880, Note_on_c, 1, 60, 80
2, 62993, Note_on_c, 1, 60, 0
2, 63000, Note_on_c, 1, 48, 80
2, 63227, Note_on_c, 1, 48, 0
2, 63240, Note_on_c, 1, 60, 80
2, 63353, Note_on_c, 1, 60, 0
2, 63360, Note_on_c, 1, 53, 80
2, 63587, Note_on_c, 1, 53, 0
2, 63600, Note_on_c, 1, 60, 80
2, 63713, Note_on_c, 1, 60, 0
2, 63720, Note_on_c, 1, 53, 80
2, 63947, Note_on_c, 1, 53, 0
2, 63960, Note_on_c, 1, 60, 80
2, 64073, Note_on_c, 1, 60, 0
2, 64080, Note_on_c, 1, 53, 80
2, 64307, Note_on_c, 1, 53, 0
2, 64320, Note_on_c, 1, 60, 80
2, 64433, Note_on_c, 1, 60, 0
2, 64440, Note_on_c, 1, 53, 80
2, 64667, Note_on_c, 1, 53, 0
2, 64680, Note_on_c, 1, 60, 80
2, 64793, Note_on_c, 1, 60, 0
2, 64800, Note_on_c, 1, 53, 80
2, 65027, Note_on_c, 1, 53, 0
2, 65040, Note_on_c, 1, 60, 80
2, 65153, Note_on_c, 1, 60, 0
2, 65160, Note_on_c, 1, 53, 80
2, 65387, Note_on_c, 1, 53, 0
2, 65400, Note_on_c, 1, 60, 80
2, 65513, Note_on_c, 1, 60, 0
2, 65520, Note_on_c, 1, 53, 80
2, 65747, Note_on_c, 1, 53, 0
2, 65760, Note_on_c, 1, 60, 80
2, 65873, Note_on_c, 1, 60, 0
2, 65880, Note_on_c, 1, 53, 80
2, 66107, Note_on_c, 1, 53, 0
2, 66120, Note_on_c, 1, 60, 80
2, 66233, Note_on_c, 1, 60, 0
2, 66240, Note_on_c, 1, 48, 80
2, 66467, Note_on_c, 1, 48, 0
2, 66480, Note_on_c, 1, 60, 80
2, 66593, Note_on_c, 1, 60, 0
2, 66600, Note_on_c, 1, 48, 80
2, 66827, Note_on_c, 1, 48, 0
2, 66840, Note_on_c, 1, 60, 80
2, 66953, Note_on_c, 1, 60, 0
2, 66960, Note_on_c, 1, 48, 80
2, 67187, Note_on_c, 1, 48, 0
2, 67200, Note_on_c, 1, 60, 80
2, 67313, Note_on_c, 1, 60, 0
2, 67320, Note_on_c, 1, 48, 80
2, 67547, Note_on_c, 1, 48, 0
2, 67560, Note_on_c, 1, 60, 80
2, 67673, Note_on_c, 1, 60, 0
2, 67680, Note_on_c, 1, 48, 80
2, 67907, Note_on_c, 1, 48, 0
2, 67920, Note_on_c, 1, 60, 80
2, 68033, Note_on_c, 1, 60, 0
2, 68040, Note_on_c, 1, 48, 80
2, 68267, Note_on_c, 1, 48, 0
2, 68280, Note_on_c, 1, 60, 80
2, 68393, Note_on_c, 1, 60, 0
2, 68400, Note_on_c, 1, 48, 80
2, 68627, Note_on_c, 1, 48, 0
2, 68640, Note_on_c, 1, 60, 80
2, 68753, Note_on_c, 1, 60, 0
2, 68760, Note_on_c, 1, 48, 80
2, 68987, Note_on_c, 1, 48, 0
2, 69000, Note_on_c, 1, 60, 80
2, 69113, Note_on_c, 1, 60, 0
2, 69120, Note_on_c, 1, 48, 80
2, 69347, Note_on_c, 1, 48, 0
2, 69360, Note_on_c, 1, 60, 80
2, 69473, Note_on_c, 1, 60, 0
2, 69480, Note_on_c, 1, 48, 80
2, 69707, Note_on_c, 1, 48, 0
2, 69720, Note_on_c, 1, 60, 80
2, 69833, Note_on_c, 1, 60, 0
2, 69840, Note_on_c, 1, 48, 80
2, 70067, Note_on_c, 1, 48, 0
2, 70080, Note_on_c, 1, 60, 80
2, 70193, Note_on_c, 1, 60, 0
2, 70200, Note_on_c, 1, 48, 80
2, 70427, Note_on_c, 1, 48, 0
2, 70440, Note_on_c, 1, 60, 80
2, 70553, Note_on_c, 1, 60, 0
2, 70560, Note_on_c, 1, 48, 80
2, 70787, Note_on_c, 1, 48, 0
2, 70800, Note_on_c, 1, 60, 80
2, 70913, Note_on_c, 1, 60, 0
2, 70920, Note_on_c, 1, 48, 80
2, 71147, Note_on_c, 1, 48, 0
2, 71160, Note_on_c, 1, 59, 80
2, 71160, Note_on_c, 1, 60, 80
2, 71273, Note_on_c, 1, 59, 0
2, 71273, Note_on_c, 1, 60, 0
2, 71280, Note_on_c, 1, 48, 80
2, 71507, Note_on_c, 1, 48, 0
2, 71520, Note_on_c, 1, 60, 80
2, 71633, Note_on_c, 1, 60, 0
2, 71640, Note_on_c, 1, 48, 80
2, 71867, Note_on_c, 1, 48, 0
2, 71880, Note_on_c, 1, 60, 80
2, 71993, Note_on_c, 1, 60, 0
2, 72000, Note_on_c, 1, 57, 80
2, 72227, Note_on_c, 1, 57, 0
2, 72240, Note_on_c, 1, 60, 80
2, 72353, Note_on_c, 1, 60, 0
2, 72360, Note_on_c, 1, 57, 80
2, 72587, Note_on_c, 1, 57, 0
2, 72600, Note_on_c, 1, 60, 80
2, 72713, Note_on_c, 1, 60, 0
2, 72720, Note_on_c, 1, 57, 80
2, 72947, Note_on_c, 1, 57, 0
2, 72960, Note_on_c, 1, 60, 80
2, 73073, Note_on_c, 1, 60, 0
2, 73080, Note_on_c, 1, 57, 80
2, 73307, Note_on_c, 1, 57, 0
2, 73320, Note_on_c, 1, 60, 80
2, 73433, Note_on_c, 1, 60, 0
2, 73440, Note_on_c, 1, 57, 80
2, 73667, Note_on_c, 1, 57, 0
2, 73680, Note_on_c, 1, 60, 80
2, 73793, Note_on_c, 1, 60, 0
2, 73800, Note_on_c, 1, 57, 80
2, 74027, Note_on_c, 1, 57, 0
2, 74040, Note_on_c, 1, 60, 80
2, 74153, Note_on_c, 1, 60, 0
2, 74160, Note_on_c, 1, 57, 80
2, 74387, Note_on_c, 1, 57, 0
2, 74400, Note_on_c, 1, 60, 80
2, 74513, Note_on_c, 1, 60, 0
2, 74520, Note_on_c, 1, 57, 80
2, 74747, Note_on_c, 1, 57, 0
2, 74760, Note_on_c, 1, 60, 80
2, 74873, Note_on_c, 1, 60, 0
2, 77760, Note_on_c, 1, 50, 80
2, 77987, Note_on_c, 1, 50, 0
2, 78000, Note_on_c, 1, 62, 80
2, 78113, Note_on_c, 1, 62, 0
2, 78120, Note_on_c, 1, 50, 80
2, 78347, Note_on_c, 1, 50, 0
2, 78360, Note_on_c, 1, 62, 80
2, 78473, Note_on_c, 1, 62, 0
2, 78480, Note_on_c, 1, 50, 80
2, 78707, Note_on_c, 1, 50, 0
2, 78720, Note_on_c, 1, 62, 80
2, 78833, Note_on_c, 1, 62, 0
2, 78840, Note_on_c, 1, 50, 80
2, 79067, Note_on_c, 1, 50, 0
2, 79080, Note_on_c, 1, 62, 80
2, 79193, Note_on_c, 1, 62, 0
2, 79200, Note_on_c, 1, 53, 80
2, 79427, Note_on_c, 1, 53, 0
2, 79440, Note_on_c, 1, 62, 80
2, 79553, Note_on_c, 1, 62, 0
2, 79560, Note_on_c, 1, 53, 80
2, 79787, Note_on_c, 1, 53, 0
2, 79800, Note_on_c, 1, 62, 80
2, 79913, Note_on_c, 1, 62, 0
2, 79920, Note_on_c, 1, 53, 80
2, 80147, Note_on_c, 1, 53, 0
2, 80160, Note_on_c, 1, 62, 80
2, 80273, Note_on_c, 1, 62, 0
2, 80280, Note_on_c, 1, 53, 80
2, 80507, Note_on_c, 1, 53, 0
2, 80520, Note_on_c, 1, 62, 80
2, 80633, Note_on_c, 1, 62, 0
2, 80640, Note_on_c, 1, 48, 80
2, 80867, Note_on_c, 1, 48, 0
2, 80880, Note_on_c, 1, 60, 80
2, 80993, Note_on_c, 1, 60, 0
2, 81000, Note_on_c, 1, 48, 80
2, 81227, Note_on_c, 1, 48, 0
2, 81240, Note_on_c, 1, 60, 80
2, 81353, Note_on_c, 1, 60, 0
2, 81360, Note_on_c, 1, 48, 80
2, 81587, Note_on_c, 1, 48, 0
2, 81600, Note_on_c, 1, 60, 80
2, 81713, Note_on_c, 1, 60, 0
2, 81720, Note_on_c, 1, 48, 80
2, 81947, Note_on_c, 1, 48, 0
2, 81960, Note_on_c, 1, 60, 80
2, 82073, Note_on_c, 1, 60, 0
2, 82080, Note_on_c, 1, 57, 80
2, 82307, Note_on_c, 1, 57, 0
2, 82320, Note_on_c, 1, 60, 80
2, 82433, Note_on_c, 1, 60, 0
2, 82440, Note_on_c, 1, 57, 80
2, 82667, Note_on_c, 1, 57, 0
2, 82680, Note_on_c, 1, 60, 80
2, 82793, Note_on_c, 1, 60, 0
2, 82800, Note_on_c, 1, 57, 80
2, 83027, Note_on_c, 1, 57, 0
2, 83040, Note_on_c, 1, 60, 80
2, 83153, Note_on_c, 1, 60, 0
2, 83160, Note_on_c, 1, 57, 80
2, 83387, Note_on_c, 1, 57, 0
2, 83400, Note_on_c, 1, 60, 80
2, 83513, Note_on_c, 1, 60, 0
2, 83520, Note_on_c, 1, 50, 80
2, 83747, Note_on_c, 1, 50, 0
2, 83760, Note_on_c, 1, 60, 80
2, 83873, Note_on_c, 1, 60, 0
2, 83880, Note_on_c, 1, 50, 80
2, 84107, Note_on_c, 1, 50, 0
2, 84120, Note_on_c, 1, 60, 80
2, 84233, Note_on_c, 1, 60, 0
2, 84240, Note_on_c, 1, 50, 80
2, 84467, Note_on_c, 1, 50, 0
2, 84480, Note_on_c, 1, 60, 80
2, 84593, Note_on_c, 1, 60, 0
2, 84600, Note_on_c, 1, 50, 80
2, 84600, Note_on_c, 1, 57, 80
2, 84827, Note_on_c, 1, 50, 0
2, 84827, Note_on_c, 1, 57, 0
2, 84840, Note_on_c, 1, 60, 80
2, 84953, Note_on_c, 1, 60, 0
2, 84960, Note_on_c, 1, 55, 80
2, 84960, Note_on_c, 1, 59, 80
2, 85319, Note_on_c, 1, 55, 0
2, 85319, Note_on_c, 1, 59, 0
2, 86400, Note_on_c, 1, 48, 80
2, 86627, Note_on_c, 1, 48, 0
2, 86640, Note_on_c, 1, 60, 80
2, 86753, Note_on_c, 1, 60, 0
2, 86760, Note_on_c, 1, 48, 80
2, 86987, Note_on_c, 1, 48, 0
2, 87000, Note_on_c, 1, 60, 80
2, 87113, Note_on_c, 1, 60, 0
2, 87120, Note_on_c, 1, 48, 80
2, 87347, Note_on_c, 1, 48, 0
2, 87360, Note_on_c, 1, 60, 80
2, 87473, Note_on_c, 1, 60, 0
2, 87480, Note_on_c, 1, 48, 80
2, 87707, Note_on_c, 1, 48, 0
2, 87720, Note_on_c, 1, 60, 80
2, 87833, Note_on_c, 1, 60, 0
2, 87840, Note_on_c, 1, 57, 80
2, 88067, Note_on_c, 1, 57, 0
2, 88080, Note_on_c, 1, 60, 80
2, 88193, Note_on_c, 1, 60, 0
2, 88200, Note_on_c, 1, 57, 80
2, 88427, Note_on_c, 1, 57, 0
2, 88440, Note_on_c, 1, 60, 80
2, 88553, Note_on_c, 1, 60, 0
2, 88560, Note_on_c, 1, 57, 80
2, 88787, Note_on_c, 1, 57, 0
2, 88800, Note_on_c, 1, 60, 80
2, 88913, Note_on_c, 1, 60, 0
2, 88920, Note_on_c, 1, 57, 80
2, 89147, Note_on_c, 1, 57, 0
2, 89160, Note_on_c, 1, 60, 80
2, 89273, Note_on_c, 1, 60, 0
2, 89280, Note_on_c, 1, 50, 80
2, 89507, Note_on_c, 1, 50, 0
2, 89520, Note_on_c, 1, 60, 80
2, 89633, Note_on_c, 1, 60, 0
2, 89640, Note_on_c, 1, 50, 80
2, 89867, Note_on_c, 1, 50, 0
2, 89880, Note_on_c, 1, 60, 80
2, 89993, Note_on_c, 1, 60, 0
2, 90000, Note_on_c, 1, 50, 80
2, 90227, Note_on_c, 1, 50, 0
2, 90240, Note_on_c, 1, 60, 80
2, 90353, Note_on_c, 1, 60, 0
2, 90360, Note_on_c, 1, 50, 80
2, 90587, Note_on_c, 1, 50, 0
2, 90600, Note_on_c, 1, 60, 80
2, 90713, Note_on_c, 1, 60, 0
2, 90720, Note_on_c, 1, 55, 80
2, 91079, Note_on_c, 1, 55, 0
2, 92160, Note_on_c, 1, 48, 80
2, 92339, Note_on_c, 1, 48, 0
2, 92520, Note_on_c, 1, 48, 80
2, 92699, Note_on_c, 1, 48, 0
2, 92880, Note_on_c, 1, 48, 80
2, 93059, Note_on_c, 1, 48, 0
2, 93240, Note_on_c, 1, 48, 80
2, 93419, Note_on_c, 1, 48, 0
2, 93840, Note_on_c, 1, 55, 80
2, 93953, Note_on_c, 1, 55, 0
2, 93960, Note_on_c, 1, 55, 80
2, 94079, Note_on_c, 1, 55, 0
2, 94200, Note_on_c, 1, 55, 80
2, 94313, Note_on_c, 1, 55, 0
2, 94320, Note_on_c, 1, 55, 80
2, 94439, Note_on_c, 1, 55, 0
2, 94560, Note_on_c, 1, 55, 80
2, 94673, Note_on_c, 1, 55, 0
2, 94680, Note_on_c, 1, 55, 80
2, 94799, Note_on_c, 1, 55, 0
2, 94920, Note_on_c, 1, 55, 80
2, 95033, Note_on_c, 1, 55, 0
2, 95040, Note_on_c, 1, 48, 80
2, 95399, Note_on_c, 1, 48, 0
2, 97920, Control_c, 1, 64, 0
2, 97921, End_track
3, 0, Start_track
3, 0, Title_t, "Electric Bass\000"
3, 0, Key_signature, 0, "major"
3, 0, Control_c, 4, 121, 0
3, 0, Program_c, 4, 33
3, 0, Control_c, 4, 7, 100
3, 0, Control_c, 4, 10, 64
3, 0, Control_c, 4, 91, 0
3, 0, Control_c, 4, 93, 0
3, 0, MIDI_port, 0
3, 0, Control_c, 2, 121, 0
3, 0, Program_c, 2, 36
3, 0, Control_c, 2, 7, 100
3, 0, Control_c, 2, 10, 64
3, 0, Control_c, 2, 91, 0
3, 0, Control_c, 2, 93, 0
3, 0, MIDI_port, 0
3, 0, Control_c, 3, 121, 0
3, 0, Program_c, 3, 37
3, 0, Control_c, 3, 7, 100
3, 0, Control_c, 3, 10, 64
3, 0, Control_c, 3, 91, 0
3, 0, Control_c, 3, 93, 0
3, 0, MIDI_port, 0
3, 5760, Note_on_c, 4, 48, 80
3, 6119, Note_on_c, 4, 48, 0
3, 6120, Note_on_c, 4, 48, 80
3, 6479, Note_on_c, 4, 48, 0
3, 6480, Note_on_c, 4, 48, 80
3, 6839, Note_on_c, 4, 48, 0
3, 6840, Note_on_c, 4, 48, 80
3, 7199, Note_on_c, 4, 48, 0
3, 7200, Note_on_c, 4, 48, 80
3, 7559, Note_on_c, 4, 48, 0
3, 7560, Note_on_c, 4, 48, 80
3, 7919, Note_on_c, 4, 48, 0
3, 7920, Note_on_c, 4, 48, 80
3, 8159, Note_on_c, 4, 48, 0
3, 8160, Note_on_c, 4, 48, 80
3, 8279, Note_on_c, 4, 48, 0
3, 8280, Note_on_c, 4, 48, 80
3, 8519, Note_on_c, 4, 48, 0
3, 8520, Note_on_c, 4, 50, 80
3, 8639, Note_on_c, 4, 50, 0
3, 8640, Note_on_c, 4, 48, 80
3, 8999, Note_on_c, 4, 48, 0
3, 9000, Note_on_c, 4, 48, 80
3, 9359, Note_on_c, 4, 48, 0
3, 9360, Note_on_c, 4, 48, 80
3, 9719, Note_on_c, 4, 48, 0
3, 9720, Note_on_c, 4, 48, 80
3, 10079, Note_on_c, 4, 48, 0
3, 10080, Note_on_c, 4, 48, 80
3, 10439, Note_on_c, 4, 48, 0
3, 10440, Note_on_c, 4, 48, 80
3, 10799, Note_on_c, 4, 48, 0
3, 10800, Note_on_c, 4, 48, 80
3, 11159, Note_on_c, 4, 48, 0
3, 11160, Note_on_c, 4, 60, 80
3, 11279, Note_on_c, 4, 60, 0
3, 11280, Note_on_c, 4, 55, 80
3, 11399, Note_on_c, 4, 55, 0
3, 11400, Note_on_c, 4, 52, 80
3, 11519, Note_on_c, 4, 52, 0
3, 11520, Note_on_c, 4, 53, 80
3, 11879, Note_on_c, 4, 53, 0
3, 11880, Note_on_c, 4, 53, 80
3, 12239, Note_on_c, 4, 53, 0
3, 12240, Note_on_c, 4, 53, 80
3, 12599, Note_on_c, 4, 53, 0
3, 12600, Note_on_c, 4, 53, 80
3, 12959, Note_on_c, 4, 53, 0
3, 12960, Note_on_c, 4, 53, 80
3, 13319, Note_on_c, 4, 53, 0
3, 13320, Note_on_c, 4, 53, 80
3, 13679, Note_on_c, 4, 53, 0
3, 13680, Note_on_c, 4, 53, 80
3, 13919, Note_on_c, 4, 53, 0
3, 13920, Note_on_c, 4, 52, 80
3, 14039, Note_on_c, 4, 52, 0
3, 14040, Note_on_c, 4, 53, 80
3, 14279, Note_on_c, 4, 53, 0
3, 14280, Note_on_c, 4, 55, 80
3, 14399, Note_on_c, 4, 55, 0
3, 14400, Note_on_c, 4, 53, 80
3, 14759, Note_on_c, 4, 53, 0
3, 14760, Note_on_c, 4, 53, 80
3, 15119, Note_on_c, 4, 53, 0
3, 15120, Note_on_c, 4, 53, 80
3, 15479, Note_on_c, 4, 53, 0
3, 15480, Note_on_c, 4, 53, 80
3, 15839, Note_on_c, 4, 53, 0
3, 15840, Note_on_c, 4, 53, 80
3, 16199, Note_on_c, 4, 53, 0
3, 16200, Note_on_c, 4, 53, 80
3, 16559, Note_on_c, 4, 53, 0
3, 16560, Note_on_c, 4, 53, 80
3, 16919, Note_on_c, 4, 53, 0
3, 16920, Note_on_c, 4, 60, 80
3, 17039, Note_on_c, 4, 60, 0
3, 17040, Note_on_c, 4, 55, 80
3, 17159, Note_on_c, 4, 55, 0
3, 17160, Note_on_c, 4, 52, 80
3, 17279, Note_on_c, 4, 52, 0
3, 17280, Note_on_c, 4, 48, 80
3, 17639, Note_on_c, 4, 48, 0
3, 17640, Note_on_c, 4, 48, 80
3, 17999, Note_on_c, 4, 48, 0
3, 18000, Note_on_c, 4, 48, 80
3, 18359, Note_on_c, 4, 48, 0
3, 18360, Note_on_c, 4, 48, 80
3, 18719, Note_on_c, 4, 48, 0
3, 18720, Note_on_c, 4, 48, 80
3, 19079, Note_on_c, 4, 48, 0
3, 19080, Note_on_c, 4, 48, 80
3, 19439, Note_on_c, 4, 48, 0
3, 19440, Note_on_c, 4, 48, 80
3, 19679, Note_on_c, 4, 48, 0
3, 19680, Note_on_c, 4, 48, 80
3, 19799, Note_on_c, 4, 48, 0
3, 19800, Note_on_c, 4, 60, 80
3, 20039, Note_on_c, 4, 60, 0
3, 20040, Note_on_c, 4, 55, 80
3, 20159, Note_on_c, 4, 55, 0
3, 20160, Note_on_c, 4, 48, 80
3, 20519, Note_on_c, 4, 48, 0
3, 20520, Note_on_c, 4, 48, 80
3, 20879, Note_on_c, 4, 48, 0
3, 20880, Note_on_c, 4, 48, 80
3, 21239, Note_on_c, 4, 48, 0
3, 21240, Note_on_c, 4, 48, 80
3, 21599, Note_on_c, 4, 48, 0
3, 21600, Note_on_c, 4, 48, 80
3, 21959, Note_on_c, 4, 48, 0
3, 21960, Note_on_c, 4, 48, 80
3, 22319, Note_on_c, 4, 48, 0
3, 22320, Note_on_c, 4, 48, 80
3, 22679, Note_on_c, 4, 48, 0
3, 22680, Note_on_c, 4, 60, 80
3, 22799, Note_on_c, 4, 60, 0
3, 22800, Note_on_c, 4, 55, 80
3, 22919, Note_on_c, 4, 55, 0
3, 22920, Note_on_c, 4, 52, 80
3, 23039, Note_on_c, 4, 52, 0
3, 23040, Note_on_c, 4, 53, 80
3, 23399, Note_on_c, 4, 53, 0
3, 23400, Note_on_c, 4, 53, 80
3, 23759, Note_on_c, 4, 53, 0
3, 23760, Note_on_c, 4, 53, 80
3, 24119, Note_on_c, 4, 53, 0
3, 24120, Note_on_c, 4, 53, 80
3, 24479, Note_on_c, 4, 53, 0
3, 24480, Note_on_c, 4, 53, 80
3, 24839, Note_on_c, 4, 53, 0
3, 24840, Note_on_c, 4, 53, 80
3, 25199, Note_on_c, 4, 53, 0
3, 25200, Note_on_c, 4, 53, 80
3, 25439, Note_on_c, 4, 53, 0
3, 25440, Note_on_c, 4, 52, 80
3, 25559, Note_on_c, 4, 52, 0
3, 25560, Note_on_c, 4, 53, 80
3, 25799, Note_on_c, 4, 53, 0
3, 25800, Note_on_c, 4, 55, 80
3, 25919, Note_on_c, 4, 55, 0
3, 25920, Note_on_c, 4, 53, 80
3, 26279, Note_on_c, 4, 53, 0
3, 26280, Note_on_c, 4, 53, 80
3, 26639, Note_on_c, 4, 53, 0
3, 26640, Note_on_c, 4, 53, 80
3, 26999, Note_on_c, 4, 53, 0
3, 27000, Note_on_c, 4, 53, 80
3, 27359, Note_on_c, 4, 53, 0
3, 27360, Note_on_c, 4, 53, 80
3, 27719, Note_on_c, 4, 53, 0
3, 27720, Note_on_c, 4, 53, 80
3, 28079, Note_on_c, 4, 53, 0
3, 28080, Note_on_c, 4, 53, 80
3, 28439, Note_on_c, 4, 53, 0
3, 28440, Note_on_c, 4, 60, 80
3, 28559, Note_on_c, 4, 60, 0
3, 28560, Note_on_c, 4, 55, 80
3, 28679, Note_on_c, 4, 55, 0
3, 28680, Note_on_c, 4, 52, 80
3, 28799, Note_on_c, 4, 52, 0
3, 28800, Note_on_c, 4, 48, 80
3, 29159, Note_on_c, 4, 48, 0
3, 29160, Note_on_c, 4, 48, 80
3, 29519, Note_on_c, 4, 48, 0
3, 29520, Note_on_c, 4, 48, 80
3, 29879, Note_on_c, 4, 48, 0
3, 29880, Note_on_c, 4, 48, 80
3, 30239, Note_on_c, 4, 48, 0
3, 30240, Note_on_c, 4, 48, 80
3, 30599, Note_on_c, 4, 48, 0
3, 30600, Note_on_c, 4, 48, 80
3, 30959, Note_on_c, 4, 48, 0
3, 30960, Note_on_c, 4, 48, 80
3, 31199, Note_on_c, 4, 48, 0
3, 31200, Note_on_c, 4, 48, 80
3, 31319, Note_on_c, 4, 48, 0
3, 31320, Note_on_c, 4, 48, 80
3, 31559, Note_on_c, 4, 48, 0
3, 31560, Note_on_c, 4, 50, 80
3, 31679, Note_on_c, 4, 50, 0
3, 31680, Note_on_c, 4, 57, 80
3, 32039, Note_on_c, 4, 57, 0
3, 32040, Note_on_c, 4, 57, 80
3, 32399, Note_on_c, 4, 57, 0
3, 32400, Note_on_c, 4, 57, 80
3, 32759, Note_on_c, 4, 57, 0
3, 32760, Note_on_c, 4, 57, 80
3, 33119, Note_on_c, 4, 57, 0
3, 33120, Note_on_c, 4, 57, 80
3, 33479, Note_on_c, 4, 57, 0
3, 33480, Note_on_c, 4, 57, 80
3, 33839, Note_on_c, 4, 57, 0
3, 33840, Note_on_c, 4, 57, 80
3, 34199, Note_on_c, 4, 57, 0
3, 34200, Note_on_c, 4, 64, 80
3, 34319, Note_on_c, 4, 64, 0
3, 34320, Note_on_c, 4, 60, 80
3, 34439, Note_on_c, 4, 60, 0
3, 34440, Note_on_c, 4, 59, 80
3, 34559, Note_on_c, 4, 59, 0
3, 34560, Note_on_c, 4, 55, 80
3, 34919, Note_on_c, 4, 55, 0
3, 34920, Note_on_c, 4, 55, 80
3, 35279, Note_on_c, 4, 55, 0
3, 35280, Note_on_c, 4, 55, 80
3, 35639, Note_on_c, 4, 55, 0
3, 35640, Note_on_c, 4, 55, 80
3, 35999, Note_on_c, 4, 55, 0
3, 36000, Note_on_c, 4, 57, 80
3, 36359, Note_on_c, 4, 57, 0
3, 36360, Note_on_c, 4, 57, 80
3, 36719, Note_on_c, 4, 57, 0
3, 36720, Note_on_c, 4, 57, 80
3, 37079, Note_on_c, 4, 57, 0
3, 37080, Note_on_c, 4, 57, 80
3, 37439, Note_on_c, 4, 57, 0
3, 37440, Note_on_c, 4, 62, 80
3, 37799, Note_on_c, 4, 62, 0
3, 37800, Note_on_c, 4, 62, 80
3, 38159, Note_on_c, 4, 62, 0
3, 38160, Note_on_c, 4, 62, 80
3, 38519, Note_on_c, 4, 62, 0
3, 38520, Note_on_c, 4, 62, 80
3, 38879, Note_on_c, 4, 62, 0
3, 38880, Note_on_c, 4, 65, 80
3, 39239, Note_on_c, 4, 65, 0
3, 39240, Note_on_c, 4, 65, 80
3, 39599, Note_on_c, 4, 65, 0
3, 39600, Note_on_c, 4, 65, 80
3, 39959, Note_on_c, 4, 65, 0
3, 39960, Note_on_c, 4, 65, 80
3, 40319, Note_on_c, 4, 65, 0
3, 40320, Note_on_c, 4, 48, 80
3, 40679, Note_on_c, 4, 48, 0
3, 40680, Note_on_c, 4, 48, 80
3, 41039, Note_on_c, 4, 48, 0
3, 41040, Note_on_c, 4, 48, 80
3, 41399, Note_on_c, 4, 48, 0
3, 41400, Note_on_c, 4, 48, 80
3, 41759, Note_on_c, 4, 48, 0
3, 41760, Note_on_c, 4, 57, 80
3, 42119, Note_on_c, 4, 57, 0
3, 42120, Note_on_c, 4, 57, 80
3, 42479, Note_on_c, 4, 57, 0
3, 42480, Note_on_c, 4, 57, 80
3, 42839, Note_on_c, 4, 57, 0
3, 42840, Note_on_c, 4, 57, 80
3, 43199, Note_on_c, 4, 57, 0
3, 43200, Note_on_c, 4, 50, 80
3, 43559, Note_on_c, 4, 50, 0
3, 43560, Note_on_c, 4, 50, 80
3, 43919, Note_on_c, 4, 50, 0
3, 43920, Note_on_c, 4, 50, 80
3, 44279, Note_on_c, 4, 50, 0
3, 44280, Note_on_c, 4, 50, 80
3, 44639, Note_on_c, 4, 50, 0
3, 46080, Note_on_c, 4, 48, 80
3, 46439, Note_on_c, 4, 48, 0
3, 46440, Note_on_c, 4, 48, 80
3, 46799, Note_on_c, 4, 48, 0
3, 46800, Note_on_c, 4, 48, 80
3, 47159, Note_on_c, 4, 48, 0
3, 47160, Note_on_c, 4, 48, 80
3, 47519, Note_on_c, 4, 48, 0
3, 47520, Note_on_c, 4, 48, 80
3, 47879, Note_on_c, 4, 48, 0
3, 47880, Note_on_c, 4, 48, 80
3, 48239, Note_on_c, 4, 48, 0
3, 48240, Note_on_c, 4, 48, 80
3, 48479, Note_on_c, 4, 48, 0
3, 48480, Note_on_c, 4, 48, 80
3, 48599, Note_on_c, 4, 48, 0
3, 48600, Note_on_c, 4, 48, 80
3, 48839, Note_on_c, 4, 48, 0
3, 48840, Note_on_c, 4, 50, 80
3, 48959, Note_on_c, 4, 50, 0
3, 48960, Note_on_c, 4, 48, 80
3, 49319, Note_on_c, 4, 48, 0
3, 49320, Note_on_c, 4, 48, 80
3, 49679, Note_on_c, 4, 48, 0
3, 49680, Note_on_c, 4, 48, 80
3, 50039, Note_on_c, 4, 48, 0
3, 50040, Note_on_c, 4, 48, 80
3, 50399, Note_on_c, 4, 48, 0
3, 50400, Note_on_c, 4, 48, 80
3, 50759, Note_on_c, 4, 48, 0
3, 50760, Note_on_c, 4, 48, 80
3, 51119, Note_on_c, 4, 48, 0
3, 51120, Note_on_c, 4, 48, 80
3, 51479, Note_on_c, 4, 48, 0
3, 51480, Note_on_c, 4, 60, 80
3, 51599, Note_on_c, 4, 60, 0
3, 51600, Note_on_c, 4, 55, 80
3, 51719, Note_on_c, 4, 55, 0
3, 51720, Note_on_c, 4, 52, 80
3, 51839, Note_on_c, 4, 52, 0
3, 51840, Note_on_c, 4, 53, 80
3, 52199, Note_on_c, 4, 53, 0
3, 52200, Note_on_c, 4, 53, 80
3, 52559, Note_on_c, 4, 53, 0
3, 52560, Note_on_c, 4, 53, 80
3, 52919, Note_on_c, 4, 53, 0
3, 52920, Note_on_c, 4, 53, 80
3, 53279, Note_on_c, 4, 53, 0
3, 53280, Note_on_c, 4, 53, 80
3, 53639, Note_on_c, 4, 53, 0
3, 53640, Note_on_c, 4, 53, 80
3, 53999, Note_on_c, 4, 53, 0
3, 54000, Note_on_c, 4, 53, 80
3, 54239, Note_on_c, 4, 53, 0
3, 54240, Note_on_c, 4, 52, 80
3, 54359, Note_on_c, 4, 52, 0
3, 54360, Note_on_c, 4, 53, 80
3, 54599, Note_on_c, 4, 53, 0
3, 54600, Note_on_c, 4, 55, 80
3, 54719, Note_on_c, 4, 55, 0
3, 54720, Note_on_c, 4, 53, 80
3, 55079, Note_on_c, 4, 53, 0
3, 55080, Note_on_c, 4, 53, 80
3, 55439, Note_on_c, 4, 53, 0
3, 55440, Note_on_c, 4, 53, 80
3, 55799, Note_on_c, 4, 53, 0
3, 55800, Note_on_c, 4, 53, 80
3, 56159, Note_on_c, 4, 53, 0
3, 56160, Note_on_c, 4, 53, 80
3, 56519, Note_on_c, 4, 53, 0
3, 56520, Note_on_c, 4, 53, 80
3, 56879, Note_on_c, 4, 53, 0
3, 56880, Note_on_c, 4, 53, 80
3, 57239, Note_on_c, 4, 53, 0
3, 57240, Note_on_c, 4, 60, 80
3, 57359, Note_on_c, 4, 60, 0
3, 57360, Note_on_c, 4, 55, 80
3, 57479, Note_on_c, 4, 55, 0
3, 57480, Note_on_c, 4, 52, 80
3, 57599, Note_on_c, 4, 52, 0
3, 57600, Note_on_c, 4, 48, 80
3, 57959, Note_on_c, 4, 48, 0
3, 57960, Note_on_c, 4, 48, 80
3, 58319, Note_on_c, 4, 48, 0
3, 58320, Note_on_c, 4, 48, 80
3, 58679, Note_on_c, 4, 48, 0
3, 58680, Note_on_c, 4, 48, 80
3, 59039, Note_on_c, 4, 48, 0
3, 59040, Note_on_c, 4, 48, 80
3, 59399, Note_on_c, 4, 48, 0
3, 59400, Note_on_c, 4, 48, 80
3, 59759, Note_on_c, 4, 48, 0
3, 59760, Note_on_c, 4, 48, 80
3, 59999, Note_on_c, 4, 48, 0
3, 60000, Note_on_c, 4, 48, 80
3, 60119, Note_on_c, 4, 48, 0
3, 60120, Note_on_c, 4, 60, 80
3, 60359, Note_on_c, 4, 60, 0
3, 60360, Note_on_c, 4, 55, 80
3, 60479, Note_on_c, 4, 55, 0
3, 60480, Note_on_c, 4, 48, 80
3, 60839, Note_on_c, 4, 48, 0
3, 60840, Note_on_c, 4, 48, 80
3, 61199, Note_on_c, 4, 48, 0
3, 61200, Note_on_c, 4, 48, 80
3, 61559, Note_on_c, 4, 48, 0
3, 61560, Note_on_c, 4, 48, 80
3, 61919, Note_on_c, 4, 48, 0
3, 61920, Note_on_c, 4, 48, 80
3, 62279, Note_on_c, 4, 48, 0
3, 62280, Note_on_c, 4, 48, 80
3, 62639, Note_on_c, 4, 48, 0
3, 62640, Note_on_c, 4, 48, 80
3, 62999, Note_on_c, 4, 48, 0
3, 63000, Note_on_c, 4, 60, 80
3, 63119, Note_on_c, 4, 60, 0
3, 63120, Note_on_c, 4, 55, 80
3, 63239, Note_on_c, 4, 55, 0
3, 63240, Note_on_c, 4, 52, 80
3, 63359, Note_on_c, 4, 52, 0
3, 63360, Note_on_c, 4, 53, 80
3, 63719, Note_on_c, 4, 53, 0
3, 63720, Note_on_c, 4, 53, 80
3, 64079, Note_on_c, 4, 53, 0
3, 64080, Note_on_c, 4, 53, 80
3, 64439, Note_on_c, 4, 53, 0
3, 64440, Note_on_c, 4, 53, 80
3, 64799, Note_on_c, 4, 53, 0
3, 64800, Note_on_c, 4, 53, 80
3, 65159, Note_on_c, 4, 53, 0
3, 65160, Note_on_c, 4, 53, 80
3, 65519, Note_on_c, 4, 53, 0
3, 65520, Note_on_c, 4, 53, 80
3, 65759, Note_on_c, 4, 53, 0
3, 65760, Note_on_c, 4, 52, 80
3, 65879, Note_on_c, 4, 52, 0
3, 65880, Note_on_c, 4, 53, 80
3, 66119, Note_on_c, 4, 53, 0
3, 66120, Note_on_c, 4, 55, 80
3, 66239, Note_on_c, 4, 55, 0
3, 66240, Note_on_c, 4, 53, 80
3, 66599, Note_on_c, 4, 53, 0
3, 66600, Note_on_c, 4, 53, 80
3, 66959, Note_on_c, 4, 53, 0
3, 66960, Note_on_c, 4, 53, 80
3, 67319, Note_on_c, 4, 53, 0
3, 67320, Note_on_c, 4, 53, 80
3, 67679, Note_on_c, 4, 53, 0
3, 67680, Note_on_c, 4, 53, 80
3, 68039, Note_on_c, 4, 53, 0
3, 68040, Note_on_c, 4, 53, 80
3, 68399, Note_on_c, 4, 53, 0
3, 68400, Note_on_c, 4, 53, 80
3, 68759, Note_on_c, 4, 53, 0
3, 68760, Note_on_c, 4, 60, 80
3, 68879, Note_on_c, 4, 60, 0
3, 68880, Note_on_c, 4, 55, 80
3, 68999, Note_on_c, 4, 55, 0
3, 69000, Note_on_c, 4, 52, 80
3, 69119, Note_on_c, 4, 52, 0
3, 69120, Note_on_c, 4, 48, 80
3, 69479, Note_on_c, 4, 48, 0
3, 69480, Note_on_c, 4, 48, 80
3, 69839, Note_on_c, 4, 48, 0
3, 69840, Note_on_c, 4, 48, 80
3, 70199, Note_on_c, 4, 48, 0
3, 70200, Note_on_c, 4, 48, 80
3, 70559, Note_on_c, 4, 48, 0
3, 70560, Note_on_c, 4, 48, 80
3, 70919, Note_on_c, 4, 48, 0
3, 70920, Note_on_c, 4, 48, 80
3, 71279, Note_on_c, 4, 48, 0
3, 71280, Note_on_c, 4, 48, 80
3, 71519, Note_on_c, 4, 48, 0
3, 71520, Note_on_c, 4, 48, 80
3, 71639, Note_on_c, 4, 48, 0
3, 71640, Note_on_c, 4, 48, 80
3, 71879, Note_on_c, 4, 48, 0
3, 71880, Note_on_c, 4, 50, 80
3, 71999, Note_on_c, 4, 50, 0
3, 72000, Note_on_c, 4, 57, 80
3, 72359, Note_on_c, 4, 57, 0
3, 72360, Note_on_c, 4, 57, 80
3, 72719, Note_on_c, 4, 57, 0
3, 72720, Note_on_c, 4, 57, 80
3, 73079, Note_on_c, 4, 57, 0
3, 73080, Note_on_c, 4, 57, 80
3, 73439, Note_on_c, 4, 57, 0
3, 73440, Note_on_c, 4, 57, 80
3, 73799, Note_on_c, 4, 57, 0
3, 73800, Note_on_c, 4, 57, 80
3, 74159, Note_on_c, 4, 57, 0
3, 74160, Note_on_c, 4, 57, 80
3, 74519, Note_on_c, 4, 57, 0
3, 74520, Note_on_c, 4, 64, 80
3, 74639, Note_on_c, 4, 64, 0
3, 74640, Note_on_c, 4, 60, 80
3, 74759, Note_on_c, 4, 60, 0
3, 74760, Note_on_c, 4, 59, 80
3, 74879, Note_on_c, 4, 59, 0
3, 74880, Note_on_c, 4, 55, 80
3, 75239, Note_on_c, 4, 55, 0
3, 75240, Note_on_c, 4, 55, 80
3, 75599, Note_on_c, 4, 55, 0
3, 75600, Note_on_c, 4, 55, 80
3, 75959, Note_on_c, 4, 55, 0
3, 75960, Note_on_c, 4, 55, 80
3, 76319, Note_on_c, 4, 55, 0
3, 76320, Note_on_c, 4, 57, 80
3, 76679, Note_on_c, 4, 57, 0
3, 76680, Note_on_c, 4, 57, 80
3, 77039, Note_on_c, 4, 57, 0
3, 77040, Note_on_c, 4, 57, 80
3, 77399, Note_on_c, 4, 57, 0
3, 77400, Note_on_c, 4, 57, 80
3, 77759, Note_on_c, 4, 57, 0
3, 77760, Note_on_c, 4, 62, 80
3, 78119, Note_on_c, 4, 62, 0
3, 78120, Note_on_c, 4, 62, 80
3, 78479, Note_on_c, 4, 62, 0
3, 78480, Note_on_c, 4, 62, 80
3, 78839, Note_on_c, 4, 62, 0
3, 78840, Note_on_c, 4, 62, 80
3, 79199, Note_on_c, 4, 62, 0
3, 79200, Note_on_c, 4, 65, 80
3, 79559, Note_on_c, 4, 65, 0
3, 79560, Note_on_c, 4, 65, 80
3, 79919, Note_on_c, 4, 65, 0
3, 79920, Note_on_c, 4, 65, 80
3, 80279, Note_on_c, 4, 65, 0
3, 80280, Note_on_c, 4, 65, 80
3, 80639, Note_on_c, 4, 65, 0
3, 80640, Note_on_c, 4, 48, 80
3, 80999, Note_on_c, 4, 48, 0
3, 81000, Note_on_c, 4, 48, 80
3, 81359, Note_on_c, 4, 48, 0
3, 81360, Note_on_c, 4, 48, 80
3, 81719, Note_on_c, 4, 48, 0
3, 81720, Note_on_c, 4, 48, 80
3, 82079, Note_on_c, 4, 48, 0
3, 82080, Note_on_c, 4, 57, 80
3, 82439, Note_on_c, 4, 57, 0
3, 82440, Note_on_c, 4, 57, 80
3, 82799, Note_on_c, 4, 57, 0
3, 82800, Note_on_c, 4, 57, 80
3, 83159, Note_on_c, 4, 57, 0
3, 83160, Note_on_c, 4, 57, 80
3, 83519, Note_on_c, 4, 57, 0
3, 83520, Note_on_c, 4, 50, 80
3, 83879, Note_on_c, 4, 50, 0
3, 83880, Note_on_c, 4, 50, 80
3, 84239, Note_on_c, 4, 50, 0
3, 84240, Note_on_c, 4, 50, 80
3, 84599, Note_on_c, 4, 50, 0
3, 84600, Note_on_c, 4, 50, 80
3, 84959, Note_on_c, 4, 50, 0
3, 84960, Note_on_c, 4, 55, 80
3, 85319, Note_on_c, 4, 55, 0
3, 85320, Note_on_c, 4, 55, 80
3, 85679, Note_on_c, 4, 55, 0
3, 85680, Note_on_c, 4, 55, 80
3, 86039, Note_on_c, 4, 55, 0
3, 86040, Note_on_c, 4, 55, 80
3, 86399, Note_on_c, 4, 55, 0
3, 86400, Note_on_c, 4, 48, 80
3, 86759, Note_on_c, 4, 48, 0
3, 86760, Note_on_c, 4, 48, 80
3, 87119, Note_on_c, 4, 48, 0
3, 87120, Note_on_c, 4, 48, 80
3, 87479, Note_on_c, 4, 48, 0
3, 87480, Note_on_c, 4, 48, 80
3, 87839, Note_on_c, 4, 48, 0
3, 87840, Note_on_c, 4, 57, 80
3, 88199, Note_on_c, 4, 57, 0
3, 88200, Note_on_c, 4, 57, 80
3, 88559, Note_on_c, 4, 57, 0
3, 88560, Note_on_c, 4, 57, 80
3, 88919, Note_on_c, 4, 57, 0
3, 88920, Note_on_c, 4, 57, 80
3, 89279, Note_on_c, 4, 57, 0
3, 89280, Note_on_c, 4, 50, 80
3, 89639, Note_on_c, 4, 50, 0
3, 89640, Note_on_c, 4, 50, 80
3, 89999, Note_on_c, 4, 50, 0
3, 90000, Note_on_c, 4, 50, 80
3, 90359, Note_on_c, 4, 50, 0
3, 90360, Note_on_c, 4, 50, 80
3, 90719, Note_on_c, 4, 50, 0
3, 90720, Note_on_c, 4, 55, 80
3, 91079, Note_on_c, 4, 55, 0
3, 91080, Note_on_c, 4, 55, 80
3, 91439, Note_on_c, 4, 55, 0
3, 91440, Note_on_c, 4, 55, 80
3, 91799, Note_on_c, 4, 55, 0
3, 91800, Note_on_c, 4, 55, 80
3, 92159, Note_on_c, 4, 55, 0
3, 92160, Note_on_c, 4, 36, 80
3, 92519, Note_on_c, 4, 36, 0
3, 92520, Note_on_c, 4, 36, 80
3, 92879, Note_on_c, 4, 36, 0
3, 92880, Note_on_c, 4, 36, 80
3, 93239, Note_on_c, 4, 36, 0
3, 93240, Note_on_c, 4, 36, 80
3, 93599, Note_on_c, 4, 36, 0
3, 93600, Note_on_c, 4, 43, 80
3, 93959, Note_on_c, 4, 43, 0
3, 93960, Note_on_c, 4, 43, 80
3, 94319, Note_on_c, 4, 43, 0
3, 94320, Note_on_c, 4, 43, 80
3, 94679, Note_on_c, 4, 43, 0
3, 94680, Note_on_c, 4, 43, 80
3, 95039, Note_on_c, 4, 43, 0
3, 95040, Note_on_c, 4, 48, 80
3, 96479, Note_on_c, 4, 48, 0
3, 96480, End_track
4, 0, Start_track
4, 0, Title_t, "Bell, Bell, Bell\000"
4, 0, Key_signature, 0, "major"
4, 0, Control_c, 5, 121, 0
4, 0, Program_c, 5, 14
4, 0, Control_c, 5, 7, 100
4, 0, Control_c, 5, 10, 64
4, 0, Control_c, 5, 91, 0
4, 0, Control_c, 5, 93, 0
4, 0, MIDI_port, 0
4, 0, Note_on_c, 5, 84, 80
4, 0, Control_c, 5, 2, 80
4, 2, Control_c, 5, 64, 127
4, 359, Note_on_c, 5, 84, 0
4, 360, Note_on_c, 5, 79, 80
4, 360, Control_c, 5, 2, 80
4, 719, Note_on_c, 5, 79, 0
4, 720, Note_on_c, 5, 76, 80
4, 1079, Note_on_c, 5, 76, 0
4, 1080, Note_on_c, 5, 72, 80
4, 1439, Note_on_c, 5, 72, 0
4, 1440, Note_on_c, 5, 81, 80
4, 1799, Note_on_c, 5, 81, 0
4, 1800, Note_on_c, 5, 76, 80
4, 2159, Note_on_c, 5, 76, 0
4, 2160, Note_on_c, 5, 72, 80
4, 2519, Note_on_c, 5, 72, 0
4, 2520, Note_on_c, 5, 69, 80
4, 2879, Note_on_c, 5, 69, 0
4, 2880, Note_on_c, 5, 77, 80
4, 3239, Note_on_c, 5, 77, 0
4, 3240, Note_on_c, 5, 72, 80
4, 3599, Note_on_c, 5, 72, 0
4, 3600, Note_on_c, 5, 69, 80
4, 3959, Note_on_c, 5, 69, 0
4, 3960, Note_on_c, 5, 65, 80
4, 4319, Note_on_c, 5, 65, 0
4, 4560, Note_on_c, 5, 67, 80
4, 4679, Note_on_c, 5, 67, 0
4, 4680, Note_on_c, 5, 67, 80
4, 4799, Note_on_c, 5, 67, 0
4, 4920, Note_on_c, 5, 67, 80
4, 5039, Note_on_c, 5, 67, 0
4, 5040, Note_on_c, 5, 67, 80
4, 5159, Note_on_c, 5, 67, 0
4, 5280, Note_on_c, 5, 67, 80
4, 5399, Note_on_c, 5, 67, 0
4, 5400, Note_on_c, 5, 67, 80
4, 5519, Note_on_c, 5, 67, 0
4, 5640, Note_on_c, 5, 67, 80
4, 5759, Note_on_c, 5, 67, 0
4, 28800, Note_on_c, 5, 72, 80
4, 29159, Note_on_c, 5, 72, 0
4, 29160, Note_on_c, 5, 74, 80
4, 29519, Note_on_c, 5, 74, 0
4, 29520, Note_on_c, 5, 71, 80
4, 29879, Note_on_c, 5, 71, 0
4, 29880, Note_on_c, 5, 72, 80
4, 30119, Note_on_c, 5, 72, 0
4, 30120, Note_on_c, 5, 69, 80
4, 30179, Note_on_c, 5, 69, 0
4, 30480, Note_on_c, 5, 71, 80
4, 30659, Note_on_c, 5, 71, 0
4, 30840, Note_on_c, 5, 69, 80
4, 30899, Note_on_c, 5, 69, 0
4, 31200, Note_on_c, 5, 67, 80
4, 31679, Note_on_c, 5, 67, 0
4, 31680, Note_on_c, 5, 72, 80
4, 32039, Note_on_c, 5, 72, 0
4, 32040, Note_on_c, 5, 74, 80
4, 32399, Note_on_c, 5, 74, 0
4, 32400, Note_on_c, 5, 71, 80
4, 32759, Note_on_c, 5, 71, 0
4, 32760, Note_on_c, 5, 72, 80
4, 32999, Note_on_c, 5, 72, 0
4, 33000, Note_on_c, 5, 69, 80
4, 33059, Note_on_c, 5, 69, 0
4, 33360, Note_on_c, 5, 71, 80
4, 33539, Note_on_c, 5, 71, 0
4, 33720, Note_on_c, 5, 69, 80
4, 33779, Note_on_c, 5, 69, 0
4, 34080, Note_on_c, 5, 71, 80
4, 34319, Note_on_c, 5, 71, 0
4, 34560, Note_on_c, 5, 67, 80
4, 34919, Note_on_c, 5, 67, 0
4, 34920, Note_on_c, 5, 69, 80
4, 35279, Note_on_c, 5, 69, 0
4, 35280, Note_on_c, 5, 72, 80
4, 35519, Note_on_c, 5, 72, 0
4, 35520, Note_on_c, 5, 79, 80
4, 35999, Note_on_c, 5, 79, 0
4, 36000, Note_on_c, 5, 79, 80
4, 36479, Note_on_c, 5, 79, 0
4, 36480, Note_on_c, 5, 81, 80
4, 36599, Note_on_c, 5, 81, 0
4, 36600, Note_on_c, 5, 79, 80
4, 36719, Note_on_c, 5, 79, 0
4, 36720, Note_on_c, 5, 77, 80
4, 37079, Note_on_c, 5, 77, 0
4, 37440, Note_on_c, 5, 76, 80
4, 37799, Note_on_c, 5, 76, 0
4, 37800, Note_on_c, 5, 74, 80
4, 37979, Note_on_c, 5, 74, 0
4, 38160, Note_on_c, 5, 72, 80
4, 38519, Note_on_c, 5, 72, 0
4, 38520, Note_on_c, 5, 69, 80
4, 38879, Note_on_c, 5, 69, 0
4, 38880, Note_on_c, 5, 65, 80
4, 39239, Note_on_c, 5, 65, 0
4, 39240, Note_on_c, 5, 74, 80
4, 39959, Note_on_c, 5, 74, 0
4, 39960, Note_on_c, 5, 76, 80
4, 40319, Note_on_c, 5, 76, 0
4, 40320, Note_on_c, 5, 74, 80
4, 40559, Note_on_c, 5, 74, 0
4, 40560, Note_on_c, 5, 72, 80
4, 41039, Note_on_c, 5, 72, 0
4, 44880, Note_on_c, 5, 79, 80
4, 44999, Note_on_c, 5, 79, 0
4, 45000, Note_on_c, 5, 79, 80
4, 45119, Note_on_c, 5, 79, 0
4, 45240, Note_on_c, 5, 79, 80
4, 45359, Note_on_c, 5, 79, 0
4, 45360, Note_on_c, 5, 79, 80
4, 45479, Note_on_c, 5, 79, 0
4, 45600, Note_on_c, 5, 79, 80
4, 45719, Note_on_c, 5, 79, 0
4, 45720, Note_on_c, 5, 79, 80
4, 45839, Note_on_c, 5, 79, 0
4, 45960, Note_on_c, 5, 79, 80
4, 46079, Note_on_c, 5, 79, 0
4, 46080, Note_on_c, 5, 60, 80
4, 46439, Note_on_c, 5, 60, 0
4, 46440, Note_on_c, 5, 64, 80
4, 46799, Note_on_c, 5, 64, 0
4, 46800, Note_on_c, 5, 67, 80
4, 47159, Note_on_c, 5, 67, 0
4, 47160, Note_on_c, 5, 71, 80
4, 47399, Note_on_c, 5, 71, 0
4, 47400, Note_on_c, 5, 72, 80
4, 47459, Note_on_c, 5, 72, 0
4, 47760, Note_on_c, 5, 71, 80
4, 47939, Note_on_c, 5, 71, 0
4, 48120, Note_on_c, 5, 69, 80
4, 48179, Note_on_c, 5, 69, 0
4, 48480, Note_on_c, 5, 67, 80
4, 48959, Note_on_c, 5, 67, 0
4, 48960, Note_on_c, 5, 74, 80
4, 49319, Note_on_c, 5, 74, 0
4, 49320, Note_on_c, 5, 72, 80
4, 49679, Note_on_c, 5, 72, 0
4, 49680, Note_on_c, 5, 72, 80
4, 49919, Note_on_c, 5, 72, 0
4, 49920, Note_on_c, 5, 71, 80
4, 50279, Note_on_c, 5, 71, 0
4, 50280, Note_on_c, 5, 72, 80
4, 50339, Note_on_c, 5, 72, 0
4, 50640, Note_on_c, 5, 71, 80
4, 50819, Note_on_c, 5, 71, 0
4, 51000, Note_on_c, 5, 69, 80
4, 51059, Note_on_c, 5, 69, 0
4, 51360, Note_on_c, 5, 67, 80
4, 51839, Note_on_c, 5, 67, 0
4, 51840, Note_on_c, 5, 65, 80
4, 52199, Note_on_c, 5, 65, 0
4, 52200, Note_on_c, 5, 69, 80
4, 52559, Note_on_c, 5, 69, 0
4, 52560, Note_on_c, 5, 72, 80
4, 52919, Note_on_c, 5, 72, 0
4, 52920, Note_on_c, 5, 74, 80
4, 53159, Note_on_c, 5, 74, 0
4, 53160, Note_on_c, 5, 76, 80
4, 53219, Note_on_c, 5, 76, 0
4, 53520, Note_on_c, 5, 74, 80
4, 53699, Note_on_c, 5, 74, 0
4, 53880, Note_on_c, 5, 72, 80
4, 53939, Note_on_c, 5, 72, 0
4, 54240, Note_on_c, 5, 69, 80
4, 54719, Note_on_c, 5, 69, 0
4, 54720, Note_on_c, 5, 65, 80
4, 55079, Note_on_c, 5, 65, 0
4, 55080, Note_on_c, 5, 69, 80
4, 55319, Note_on_c, 5, 69, 0
4, 55320, Note_on_c, 5, 72, 80
4, 55799, Note_on_c, 5, 72, 0
4, 55800, Note_on_c, 5, 72, 80
4, 56039, Note_on_c, 5, 72, 0
4, 56040, Note_on_c, 5, 74, 80
4, 56099, Note_on_c, 5, 74, 0
4, 56400, Note_on_c, 5, 74, 80
4, 56579, Note_on_c, 5, 74, 0
4, 56760, Note_on_c, 5, 72, 80
4, 56819, Note_on_c, 5, 72, 0
4, 57120, Note_on_c, 5, 67, 80
4, 57599, Note_on_c, 5, 67, 0
4, 57600, Note_on_c, 5, 74, 80
4, 57959, Note_on_c, 5, 74, 0
4, 57960, Note_on_c, 5, 72, 80
4, 58319, Note_on_c, 5, 72, 0
4, 58320, Note_on_c, 5, 72, 80
4, 58679, Note_on_c, 5, 72, 0
4, 58680, Note_on_c, 5, 71, 80
4, 58919, Note_on_c, 5, 71, 0
4, 58920, Note_on_c, 5, 72, 80
4, 58979, Note_on_c, 5, 72, 0
4, 59280, Note_on_c, 5, 71, 80
4, 59459, Note_on_c, 5, 71, 0
4, 59640, Note_on_c, 5, 69, 80
4, 59699, Note_on_c, 5, 69, 0
4, 60000, Note_on_c, 5, 67, 80
4, 60479, Note_on_c, 5, 67, 0
4, 60480, Note_on_c, 5, 60, 80
4, 60839, Note_on_c, 5, 60, 0
4, 60840, Note_on_c, 5, 64, 80
4, 61079, Note_on_c, 5, 64, 0
4, 61080, Note_on_c, 5, 67, 80
4, 61439, Note_on_c, 5, 67, 0
4, 61440, Note_on_c, 5, 71, 80
4, 61799, Note_on_c, 5, 71, 0
4, 61800, Note_on_c, 5, 72, 80
4, 61859, Note_on_c, 5, 72, 0
4, 62160, Note_on_c, 5, 71, 80
4, 62339, Note_on_c, 5, 71, 0
4, 62520, Note_on_c, 5, 69, 80
4, 62579, Note_on_c, 5, 69, 0
4, 62880, Note_on_c, 5, 67, 80
4, 63359, Note_on_c, 5, 67, 0
4, 63720, Note_on_c, 5, 76, 80
4, 63959, Note_on_c, 5, 76, 0
4, 63960, Note_on_c, 5, 74, 80
4, 64079, Note_on_c, 5, 74, 0
4, 64080, Note_on_c, 5, 76, 80
4, 64439, Note_on_c, 5, 76, 0
4, 64440, Note_on_c, 5, 74, 80
4, 64679, Note_on_c, 5, 74, 0
4, 64680, Note_on_c, 5, 76, 80
4, 64739, Note_on_c, 5, 76, 0
4, 65040, Note_on_c, 5, 74, 80
4, 65219, Note_on_c, 5, 74, 0
4, 65400, Note_on_c, 5, 72, 80
4, 65459, Note_on_c, 5, 72, 0
4, 65760, Note_on_c, 5, 69, 80
4, 66239, Note_on_c, 5, 69, 0
4, 66240, Note_on_c, 5, 65, 80
4, 66599, Note_on_c, 5, 65, 0
4, 66600, Note_on_c, 5, 69, 80
4, 66839, Note_on_c, 5, 69, 0
4, 66840, Note_on_c, 5, 72, 80
4, 67319, Note_on_c, 5, 72, 0
4, 67320, Note_on_c, 5, 72, 80
4, 67559, Note_on_c, 5, 72, 0
4, 67560, Note_on_c, 5, 74, 80
4, 67619, Note_on_c, 5, 74, 0
4, 67920, Note_on_c, 5, 74, 80
4, 68099, Note_on_c, 5, 74, 0
4, 68280, Note_on_c, 5, 72, 80
4, 68339, Note_on_c, 5, 72, 0
4, 68640, Note_on_c, 5, 67, 80
4, 69119, Note_on_c, 5, 67, 0
4, 69120, Note_on_c, 5, 72, 80
4, 69479, Note_on_c, 5, 72, 0
4, 69480, Note_on_c, 5, 74, 80
4, 69839, Note_on_c, 5, 74, 0
4, 69840, Note_on_c, 5, 71, 80
4, 70199, Note_on_c, 5, 71, 0
4, 70200, Note_on_c, 5, 72, 80
4, 70439, Note_on_c, 5, 72, 0
4, 70440, Note_on_c, 5, 69, 80
4, 70499, Note_on_c, 5, 69, 0
4, 70800, Note_on_c, 5, 71, 80
4, 70979, Note_on_c, 5, 71, 0
4, 71160, Note_on_c, 5, 69, 80
4, 71219, Note_on_c, 5, 69, 0
4, 71520, Note_on_c, 5, 67, 80
4, 71999, Note_on_c, 5, 67, 0
4, 72000, Note_on_c, 5, 72, 80
4, 72359, Note_on_c, 5, 72, 0
4, 72360, Note_on_c, 5, 74, 80
4, 72719, Note_on_c, 5, 74, 0
4, 72720, Note_on_c, 5, 71, 80
4, 73079, Note_on_c, 5, 71, 0
4, 73080, Note_on_c, 5, 72, 80
4, 73319, Note_on_c, 5, 72, 0
4, 73320, Note_on_c, 5, 69, 80
4, 73379, Note_on_c, 5, 69, 0
4, 73680, Note_on_c, 5, 71, 80
4, 73859, Note_on_c, 5, 71, 0
4, 74040, Note_on_c, 5, 69, 80
4, 74099, Note_on_c, 5, 69, 0
4, 74400, Note_on_c, 5, 71, 80
4, 74639, Note_on_c, 5, 71, 0
4, 74880, Note_on_c, 5, 67, 80
4, 75239, Note_on_c, 5, 67, 0
4, 75240, Note_on_c, 5, 69, 80
4, 75599, Note_on_c, 5, 69, 0
4, 75600, Note_on_c, 5, 72, 80
4, 75839, Note_on_c, 5, 72, 0
4, 75840, Note_on_c, 5, 79, 80
4, 76319, Note_on_c, 5, 79, 0
4, 76320, Note_on_c, 5, 79, 80
4, 76799, Note_on_c, 5, 79, 0
4, 76800, Note_on_c, 5, 81, 80
4, 76919, Note_on_c, 5, 81, 0
4, 76920, Note_on_c, 5, 79, 80
4, 77039, Note_on_c, 5, 79, 0
4, 77040, Note_on_c, 5, 77, 80
4, 77399, Note_on_c, 5, 77, 0
4, 77760, Note_on_c, 5, 76, 80
4, 78119, Note_on_c, 5, 76, 0
4, 78120, Note_on_c, 5, 74, 80
4, 78299, Note_on_c, 5, 74, 0
4, 78480, Note_on_c, 5, 72, 80
4, 78839, Note_on_c, 5, 72, 0
4, 78840, Note_on_c, 5, 69, 80
4, 79199, Note_on_c, 5, 69, 0
4, 79200, Note_on_c, 5, 65, 80
4, 79559, Note_on_c, 5, 65, 0
4, 79560, Note_on_c, 5, 74, 80
4, 80279, Note_on_c, 5, 74, 0
4, 80280, Note_on_c, 5, 76, 80
4, 80639, Note_on_c, 5, 76, 0
4, 80640, Note_on_c, 5, 72, 80
4, 80819, Note_on_c, 5, 72, 0
4, 81000, Note_on_c, 5, 64, 80
4, 81000, Note_on_c, 5, 67, 80
4, 81000, Note_on_c, 5, 72, 80
4, 81719, Note_on_c, 5, 64, 0
4, 81719, Note_on_c, 5, 67, 0
4, 81719, Note_on_c, 5, 72, 0
4, 82440, Note_on_c, 5, 64, 80
4, 82440, Note_on_c, 5, 69, 80
4, 82440, Note_on_c, 5, 72, 80
4, 83159, Note_on_c, 5, 64, 0
4, 83159, Note_on_c, 5, 69, 0
4, 83159, Note_on_c, 5, 72, 0
4, 86400, Note_on_c, 5, 60, 80
4, 86579, Note_on_c, 5, 60, 0
4, 86760, Note_on_c, 5, 64, 80
4, 86760, Note_on_c, 5, 67, 80
4, 86760, Note_on_c, 5, 72, 80
4, 87479, Note_on_c, 5, 64, 0
4, 87479, Note_on_c, 5, 67, 0
4, 87479, Note_on_c, 5, 72, 0
4, 88200, Note_on_c, 5, 64, 80
4, 88200, Note_on_c, 5, 69, 80
4, 88200, Note_on_c, 5, 72, 80
4, 88919, Note_on_c, 5, 64, 0
4, 88919, Note_on_c, 5, 69, 0
4, 88919, Note_on_c, 5, 72, 0
4, 89280, Note_on_c, 5, 76, 80
4, 89639, Note_on_c, 5, 76, 0
4, 89640, Note_on_c, 5, 72, 80
4, 89999, Note_on_c, 5, 72, 0
4, 90000, Note_on_c, 5, 69, 80
4, 90359, Note_on_c, 5, 69, 0
4, 90360, Note_on_c, 5, 64, 80
4, 90719, Note_on_c, 5, 64, 0
4, 90720, Note_on_c, 5, 64, 80
4, 91439, Note_on_c, 5, 64, 0
4, 91440, Note_on_c, 5, 62, 80
4, 92159, Note_on_c, 5, 62, 0
4, 97920, Control_c, 5, 64, 0
4, 97921, End_track
0, 0, End_of_file
