0, 0, Header, 1, 3, 480
1, 0, Start_track
1, 0, Title_t, "Piano, Piano\000"
1, 0, Time_signature, 2, 2, 24, 8
1, 0, Key_signature, 0, "major"
1, 0, Tempo, 487805
1, 0, Control_c, 0, 121, 0
1, 0, Program_c, 0, 0
1, 0, Control_c, 0, 7, 100
1, 0, Control_c, 0, 10, 64
1, 0, Control_c, 0, 91, 0
1, 0, Control_c, 0, 93, 0
1, 0, MIDI_port, 0
1, 0, Note_on_c, 0, 76, 80
1, 0, Note_on_c, 0, 79, 80
1, 2, Control_c, 0, 64, 127
1, 151, Note_on_c, 0, 76, 0
1, 151, Note_on_c, 0, 79, 0
1, 160, Note_on_c, 0, 74, 80
1, 160, Note_on_c, 0, 77, 80
1, 311, Note_on_c, 0, 74, 0
1, 311, Note_on_c, 0, 77, 0
1, 320, Note_on_c, 0, 76, 80
1, 320, Note_on_c, 0, 79, 80
1, 471, Note_on_c, 0, 76, 0
1, 471, Note_on_c, 0, 79, 0
1, 480, Note_on_c, 0, 77, 80
1, 480, Note_on_c, 0, 81, 80
1, 719, Note_on_c, 0, 77, 0
1, 719, Note_on_c, 0, 81, 0
1, 960, Note_on_c, 0, 74, 80
1, 960, Note_on_c, 0, 77, 80
1, 1111, Note_on_c, 0, 74, 0
1, 1111, Note_on_c, 0, 77, 0
1, 1120, Note_on_c, 0, 72, 80
1, 1120, Note_on_c, 0, 76, 80
1, 1271, Note_on_c, 0, 72, 0
1, 1271, Note_on_c, 0, 76, 0
1, 1280, Note_on_c, 0, 74, 80
1, 1280, Note_on_c, 0, 77, 80
1, 1431, Note_on_c, 0, 74, 0
1, 1431, Note_on_c, 0, 77, 0
1, 1440, Note_on_c, 0, 76, 80
1, 1440, Note_on_c, 0, 79, 80
1, 1679, Note_on_c, 0, 76, 0
1, 1679, Note_on_c, 0, 79, 0
1, 1920, Note_on_c, 0, 72, 80
1, 1920, Note_on_c, 0, 76, 80
1, 2071, Note_on_c, 0, 72, 0
1, 2071, Note_on_c, 0, 76, 0
1, 2080, Note_on_c, 0, 71, 80
1, 2080, Note_on_c, 0, 74, 80
1, 2231, Note_on_c, 0, 71, 0
1, 2231, Note_on_c, 0, 74, 0
1, 2240, Note_on_c, 0, 72, 80
1, 2240, Note_on_c, 0, 76, 80
1, 2391, Note_on_c, 0, 72, 0
1, 2391, Note_on_c, 0, 76, 0
1, 2400, Note_on_c, 0, 74, 80
1, 2400, Note_on_c, 0, 77, 80
1, 2639, Note_on_c, 0, 74, 0
1, 2639, Note_on_c, 0, 77, 0
1, 2880, Note_on_c, 0, 65, 80
1, 2880, Note_on_c, 0, 67, 80
1, 2880, Note_on_c, 0, 71, 80
1, 2880, Note_on_c, 0, 74, 80
1, 3791, Note_on_c, 0, 65, 0
1, 3791, Note_on_c, 0, 67, 0
1, 3791, Note_on_c, 0, 71, 0
1, 3791, Note_on_c, 0, 74, 0
1, 3840, Note_on_c, 0, 72, 80
1, 3840, Note_on_c, 0, 76, 80
1, 4295, Note_on_c, 0, 72, 0
1, 4295, Note_on_c, 0, 76, 0
1, 4560, Note_on_c, 0, 72, 80
1, 4560, Note_on_c, 0, 76, 80
1, 4787, Note_on_c, 0, 72, 0
1, 4787, Note_on_c, 0, 76, 0
1, 5040, Note_on_c, 0, 76, 80
1, 5040, Note_on_c, 0, 79, 80
1, 5267, Note_on_c, 0, 76, 0
1, 5267, Note_on_c, 0, 79, 0
1, 5280, Note_on_c, 0, 76, 80
1, 5280, Note_on_c, 0, 81, 80
1, 5507, Note_on_c, 0, 76, 0
1, 5507, Note_on_c, 0, 81, 0
1, 5520, Note_on_c, 0, 76, 80
1, 5520, Note_on_c, 0, 79, 80
1, 5747, Note_on_c, 0, 76, 0
1, 5747, Note_on_c, 0, 79, 0
1, 5760, Note_on_c, 0, 64, 80
1, 5760, Note_on_c, 0, 72, 80
1, 6215, Note_on_c, 0, 64, 0
1, 6215, Note_on_c, 0, 72, 0
1, 6240, Note_on_c, 0, 76, 80
1, 6480, Note_on_c, 0, 64, 80
1, 6695, Note_on_c, 0, 76, 0
1, 6720, Note_on_c, 0, 74, 80
1, 7175, Note_on_c, 0, 74, 0
1, 7200, Note_on_c, 0, 72, 80
1, 7619, Note_on_c, 0, 64, 0
1, 7655, Note_on_c, 0, 72, 0
1, 7680, Note_on_c, 0, 65, 80
1, 7680, Note_on_c, 0, 69, 80
1, 7919, Note_on_c, 0, 65, 0
1, 7919, Note_on_c, 0, 69, 0
1, 8400, Note_on_c, 0, 65, 80
1, 8400, Note_on_c, 0, 69, 80
1, 8855, Note_on_c, 0, 65, 0
1, 8855, Note_on_c, 0, 69, 0
1, 8880, Note_on_c, 0, 65, 80
1, 8880, Note_on_c, 0, 72, 80
1, 9107, Note_on_c, 0, 65, 0
1, 9107, Note_on_c, 0, 72, 0
1, 9120, Note_on_c, 0, 65, 80
1, 9120, Note_on_c, 0, 69, 80
1, 9120, Note_on_c, 0, 74, 80
1, 9347, Note_on_c, 0, 65, 0
1, 9347, Note_on_c, 0, 69, 0
1, 9347, Note_on_c, 0, 74, 0
1, 9360, Note_on_c, 0, 65, 80
1, 9360, Note_on_c, 0, 72, 80
1, 9587, Note_on_c, 0, 65, 0
1, 9587, Note_on_c, 0, 72, 0
1, 9600, Note_on_c, 0, 65, 80
1, 9600, Note_on_c, 0, 69, 80
1, 10055, Note_on_c, 0, 69, 0
1, 10080, Note_on_c, 0, 74, 80
1, 10535, Note_on_c, 0, 74, 0
1, 10560, Note_on_c, 0, 72, 80
1, 10967, Note_on_c, 0, 65, 0
1, 11015, Note_on_c, 0, 72, 0
1, 11040, Note_on_c, 0, 71, 80
1, 11267, Note_on_c, 0, 71, 0
1, 11280, Note_on_c, 0, 69, 80
1, 11507, Note_on_c, 0, 69, 0
1, 11520, Note_on_c, 0, 64, 80
1, 11520, Note_on_c, 0, 67, 80
1, 11975, Note_on_c, 0, 64, 0
1, 11975, Note_on_c, 0, 67, 0
1, 12240, Note_on_c, 0, 64, 80
1, 12240, Note_on_c, 0, 67, 80
1, 12809, Note_on_c, 0, 64, 0
1, 12809, Note_on_c, 0, 67, 0
1, 12840, Note_on_c, 0, 69, 80
1, 12896, Note_on_c, 0, 69, 0
1, 12900, Note_on_c, 0, 71, 80
1, 12956, Note_on_c, 0, 71, 0
1, 12960, Note_on_c, 0, 72, 80
1, 13016, Note_on_c, 0, 72, 0
1, 13020, Note_on_c, 0, 74, 80
1, 13076, Note_on_c, 0, 74, 0
1, 13080, Note_on_c, 0, 76, 80
1, 13136, Note_on_c, 0, 76, 0
1, 13140, Note_on_c, 0, 77, 80
1, 13196, Note_on_c, 0, 77, 0
1, 13200, Note_on_c, 0, 79, 80
1, 13427, Note_on_c, 0, 79, 0
1, 13680, Note_on_c, 0, 64, 80
1, 13680, Note_on_c, 0, 67, 80
1, 14591, Note_on_c, 0, 64, 0
1, 14591, Note_on_c, 0, 67, 0
1, 14880, Note_on_c, 0, 64, 80
1, 14880, Note_on_c, 0, 67, 80
1, 15107, Note_on_c, 0, 64, 0
1, 15107, Note_on_c, 0, 67, 0
1, 15120, Note_on_c, 0, 76, 80
1, 15120, Note_on_c, 0, 79, 80
1, 15347, Note_on_c, 0, 76, 0
1, 15347, Note_on_c, 0, 79, 0
1, 15600, Note_on_c, 0, 64, 80
1, 15600, Note_on_c, 0, 67, 80
1, 16283, Note_on_c, 0, 64, 0
1, 16283, Note_on_c, 0, 67, 0
1, 16320, Note_on_c, 0, 64, 80
1, 16320, Note_on_c, 0, 67, 80
1, 16775, Note_on_c, 0, 64, 0
1, 16775, Note_on_c, 0, 67, 0
1, 16800, Note_on_c, 0, 72, 80
1, 16800, Note_on_c, 0, 79, 80
1, 17255, Note_on_c, 0, 72, 0
1, 17255, Note_on_c, 0, 79, 0
1, 17280, Note_on_c, 0, 71, 80
1, 17280, Note_on_c, 0, 74, 80
1, 17520, Note_on_c, 0, 79, 80
1, 17747, Note_on_c, 0, 79, 0
1, 17760, Note_on_c, 0, 81, 80
1, 17987, Note_on_c, 0, 81, 0
1, 18000, Note_on_c, 0, 79, 80
1, 18191, Note_on_c, 0, 71, 0
1, 18191, Note_on_c, 0, 74, 0
1, 18227, Note_on_c, 0, 79, 0
1, 18240, Note_on_c, 0, 83, 80
1, 18240, Note_on_c, 0, 71, 80
1, 18240, Note_on_c, 0, 74, 80
1, 18467, Note_on_c, 0, 83, 0
1, 18480, Note_on_c, 0, 81, 80
1, 18695, Note_on_c, 0, 71, 0
1, 18695, Note_on_c, 0, 74, 0
1, 18707, Note_on_c, 0, 81, 0
1, 18720, Note_on_c, 0, 79, 80
1, 18947, Note_on_c, 0, 79, 0
1, 18960, Note_on_c, 0, 77, 80
1, 19187, Note_on_c, 0, 77, 0
1, 19200, Note_on_c, 0, 72, 80
1, 19200, Note_on_c, 0, 76, 80
1, 19655, Note_on_c, 0, 72, 0
1, 19655, Note_on_c, 0, 76, 0
1, 19920, Note_on_c, 0, 72, 80
1, 19920, Note_on_c, 0, 76, 80
1, 20147, Note_on_c, 0, 72, 0
1, 20147, Note_on_c, 0, 76, 0
1, 20400, Note_on_c, 0, 76, 80
1, 20400, Note_on_c, 0, 79, 80
1, 20627, Note_on_c, 0, 76, 0
1, 20627, Note_on_c, 0, 79, 0
1, 20640, Note_on_c, 0, 81, 80
1, 20640, Note_on_c, 0, 76, 80
1, 20867, Note_on_c, 0, 81, 0
1, 20880, Note_on_c, 0, 79, 80
1, 21095, Note_on_c, 0, 76, 0
1, 21107, Note_on_c, 0, 79, 0
1, 21120, Note_on_c, 0, 64, 80
1, 21120, Note_on_c, 0, 76, 80
1, 21120, Note_on_c, 0, 79, 80
1, 21575, Note_on_c, 0, 64, 0
1, 21575, Note_on_c, 0, 76, 0
1, 21575, Note_on_c, 0, 79, 0
1, 21600, Note_on_c, 0, 76, 80
1, 21827, Note_on_c, 0, 76, 0
1, 21840, Note_on_c, 0, 76, 80
1, 22067, Note_on_c, 0, 76, 0
1, 22080, Note_on_c, 0, 74, 80
1, 22080, Note_on_c, 0, 64, 80
1, 22535, Note_on_c, 0, 74, 0
1, 22560, Note_on_c, 0, 72, 80
1, 22991, Note_on_c, 0, 64, 0
1, 23015, Note_on_c, 0, 72, 0
1, 23040, Note_on_c, 0, 57, 86
1, 23040, Note_on_c, 0, 65, 75
1, 23040, Note_on_c, 0, 69, 81
1, 23495, Note_on_c, 0, 57, 0
1, 23760, Note_on_c, 0, 65, 0
1, 23760, Note_on_c, 0, 65, 80
1, 23760, Note_on_c, 0, 69, 0
1, 23760, Note_on_c, 0, 69, 90
1, 24215, Note_on_c, 0, 65, 0
1, 24215, Note_on_c, 0, 69, 0
1, 24240, Note_on_c, 0, 69, 80
1, 24240, Note_on_c, 0, 72, 94
1, 24359, Note_on_c, 0, 69, 0
1, 24359, Note_on_c, 0, 72, 0
1, 24480, Note_on_c, 0, 69, 81
1, 24480, Note_on_c, 0, 74, 95
1, 24599, Note_on_c, 0, 69, 0
1, 24599, Note_on_c, 0, 74, 0
1, 24720, Note_on_c, 0, 69, 80
1, 24720, Note_on_c, 0, 72, 94
1, 24839, Note_on_c, 0, 69, 0
1, 24839, Note_on_c, 0, 72, 0
1, 24960, Note_on_c, 0, 62, 80
1, 24960, Note_on_c, 0, 69, 80
1, 25415, Note_on_c, 0, 62, 0
1, 25415, Note_on_c, 0, 69, 0
1, 25440, Note_on_c, 0, 69, 80
1, 25440, Note_on_c, 0, 74, 80
1, 25667, Note_on_c, 0, 69, 0
1, 25667, Note_on_c, 0, 74, 0
1, 25680, Note_on_c, 0, 74, 80
1, 25907, Note_on_c, 0, 74, 0
1, 25920, Note_on_c, 0, 69, 80
1, 25920, Note_on_c, 0, 72, 80
1, 26375, Note_on_c, 0, 69, 0
1, 26375, Note_on_c, 0, 72, 0
1, 26400, Note_on_c, 0, 65, 80
1, 26400, Note_on_c, 0, 71, 80
1, 26627, Note_on_c, 0, 65, 0
1, 26627, Note_on_c, 0, 71, 0
1, 26640, Note_on_c, 0, 62, 80
1, 26640, Note_on_c, 0, 69, 80
1, 26867, Note_on_c, 0, 62, 0
1, 26867, Note_on_c, 0, 69, 0
1, 26880, Note_on_c, 0, 64, 80
1, 26880, Note_on_c, 0, 67, 80
1, 27335, Note_on_c, 0, 64, 0
1, 27335, Note_on_c, 0, 67, 0
1, 27600, Note_on_c, 0, 76, 80
1, 27600, Note_on_c, 0, 79, 80
1, 28055, Note_on_c, 0, 76, 0
1, 28055, Note_on_c, 0, 79, 0
1, 28080, Note_on_c, 0, 79, 80
1, 28136, Note_on_c, 0, 79, 0
1, 28140, Note_on_c, 0, 77, 80
1, 28196, Note_on_c, 0, 77, 0
1, 28200, Note_on_c, 0, 76, 80
1, 28256, Note_on_c, 0, 76, 0
1, 28260, Note_on_c, 0, 72, 80
1, 28316, Note_on_c, 0, 72, 0
1, 28320, Note_on_c, 0, 69, 80
1, 28775, Note_on_c, 0, 69, 0
1, 28800, Note_on_c, 0, 76, 80
1, 28800, Note_on_c, 0, 79, 80
1, 29255, Note_on_c, 0, 76, 0
1, 29255, Note_on_c, 0, 79, 0
1, 29520, Note_on_c, 0, 76, 80
1, 29520, Note_on_c, 0, 79, 80
1, 29747, Note_on_c, 0, 76, 0
1, 29747, Note_on_c, 0, 79, 0
1, 29760, Note_on_c, 0, 67, 80
1, 30240, Note_on_c, 0, 71, 80
1, 30240, Note_on_c, 0, 76, 80
1, 30671, Note_on_c, 0, 67, 0
1, 30695, Note_on_c, 0, 71, 0
1, 30695, Note_on_c, 0, 76, 0
1, 30720, Note_on_c, 0, 64, 80
1, 30720, Note_on_c, 0, 67, 80
1, 30720, Note_on_c, 0, 72, 80
1, 31631, Note_on_c, 0, 64, 0
1, 31631, Note_on_c, 0, 67, 0
1, 31631, Note_on_c, 0, 72, 0
1, 32640, Note_on_c, 0, 60, 80
1, 32867, Note_on_c, 0, 60, 0
1, 32880, Note_on_c, 0, 60, 80
1, 33107, Note_on_c, 0, 60, 0
1, 33120, Note_on_c, 0, 62, 80
1, 33347, Note_on_c, 0, 62, 0
1, 33360, Note_on_c, 0, 64, 80
1, 33587, Note_on_c, 0, 64, 0
1, 33600, Note_on_c, 0, 65, 80
1, 33827, Note_on_c, 0, 65, 0
1, 33840, Note_on_c, 0, 67, 80
1, 34067, Note_on_c, 0, 67, 0
1, 34080, Note_on_c, 0, 69, 80
1, 34307, Note_on_c, 0, 69, 0
1, 34320, Note_on_c, 0, 71, 80
1, 34547, Note_on_c, 0, 71, 0
1, 34560, Tempo, 480000
1, 34560, Note_on_c, 0, 72, 80
1, 34560, Note_on_c, 0, 76, 80
1, 35015, Note_on_c, 0, 72, 0
1, 35015, Note_on_c, 0, 76, 0
1, 35280, Note_on_c, 0, 72, 80
1, 35280, Note_on_c, 0, 76, 80
1, 35507, Note_on_c, 0, 72, 0
1, 35507, Note_on_c, 0, 76, 0
1, 35640, Note_on_c, 0, 76, 80
1, 35640, Note_on_c, 0, 72, 80
1, 35640, Note_on_c, 0, 79, 80
1, 35867, Note_on_c, 0, 76, 0
1, 35880, Note_on_c, 0, 76, 80
1, 35981, Note_on_c, 0, 72, 0
1, 35981, Note_on_c, 0, 79, 0
1, 36000, Note_on_c, 0, 72, 80
1, 36000, Note_on_c, 0, 81, 80
1, 36221, Note_on_c, 0, 76, 0
1, 36227, Note_on_c, 0, 72, 0
1, 36227, Note_on_c, 0, 81, 0
1, 36240, Note_on_c, 0, 67, 80
1, 36240, Note_on_c, 0, 72, 80
1, 36240, Note_on_c, 0, 76, 80
1, 36467, Note_on_c, 0, 67, 0
1, 36467, Note_on_c, 0, 72, 0
1, 36467, Note_on_c, 0, 76, 0
1, 36480, Note_on_c, 0, 67, 80
1, 36480, Note_on_c, 0, 72, 80
1, 36935, Note_on_c, 0, 67, 0
1, 36935, Note_on_c, 0, 72, 0
1, 36960, Note_on_c, 0, 72, 80
1, 37073, Note_on_c, 0, 72, 0
1, 37080, Note_on_c, 0, 71, 80
1, 37193, Note_on_c, 0, 71, 0
1, 37200, Note_on_c, 0, 72, 80
1, 37313, Note_on_c, 0, 72, 0
1, 37320, Note_on_c, 0, 74, 80
1, 37433, Note_on_c, 0, 74, 0
1, 37440, Note_on_c, 0, 76, 80
1, 37553, Note_on_c, 0, 76, 0
1, 37560, Note_on_c, 0, 74, 80
1, 37673, Note_on_c, 0, 74, 0
1, 37680, Note_on_c, 0, 72, 80
1, 37793, Note_on_c, 0, 72, 0
1, 37800, Note_on_c, 0, 76, 80
1, 37913, Note_on_c, 0, 76, 0
1, 37920, Note_on_c, 0, 74, 80
1, 38033, Note_on_c, 0, 74, 0
1, 38040, Note_on_c, 0, 72, 80
1, 38153, Note_on_c, 0, 72, 0
1, 38160, Note_on_c, 0, 69, 80
1, 38273, Note_on_c, 0, 69, 0
1, 38280, Note_on_c, 0, 67, 80
1, 38393, Note_on_c, 0, 67, 0
1, 38400, Note_on_c, 0, 65, 80
1, 38400, Note_on_c, 0, 69, 80
1, 38855, Note_on_c, 0, 65, 0
1, 38855, Note_on_c, 0, 69, 0
1, 39120, Note_on_c, 0, 65, 80
1, 39120, Note_on_c, 0, 69, 80
1, 39347, Note_on_c, 0, 65, 0
1, 39347, Note_on_c, 0, 69, 0
1, 39480, Note_on_c, 0, 72, 80
1, 39480, Note_on_c, 0, 65, 80
1, 39659, Note_on_c, 0, 65, 0
1, 39720, Note_on_c, 0, 65, 80
1, 39821, Note_on_c, 0, 72, 0
1, 39840, Note_on_c, 0, 69, 80
1, 39840, Note_on_c, 0, 74, 80
1, 40061, Note_on_c, 0, 65, 0
1, 40067, Note_on_c, 0, 69, 0
1, 40067, Note_on_c, 0, 74, 0
1, 40080, Note_on_c, 0, 65, 80
1, 40080, Note_on_c, 0, 72, 80
1, 40307, Note_on_c, 0, 65, 0
1, 40307, Note_on_c, 0, 72, 0
1, 40320, Note_on_c, 0, 65, 80
1, 40320, Note_on_c, 0, 69, 80
1, 40775, Note_on_c, 0, 65, 0
1, 40775, Note_on_c, 0, 69, 0
1, 40800, Note_on_c, 0, 69, 80
1, 40913, Note_on_c, 0, 69, 0
1, 40920, Note_on_c, 0, 64, 80
1, 41033, Note_on_c, 0, 64, 0
1, 41040, Note_on_c, 0, 69, 80
1, 41153, Note_on_c, 0, 69, 0
1, 41160, Note_on_c, 0, 71, 80
1, 41273, Note_on_c, 0, 71, 0
1, 41280, Note_on_c, 0, 72, 80
1, 41393, Note_on_c, 0, 72, 0
1, 41400, Note_on_c, 0, 74, 80
1, 41513, Note_on_c, 0, 74, 0
1, 41520, Note_on_c, 0, 72, 80
1, 41633, Note_on_c, 0, 72, 0
1, 41640, Note_on_c, 0, 71, 80
1, 41753, Note_on_c, 0, 71, 0
1, 41760, Note_on_c, 0, 69, 80
1, 41873, Note_on_c, 0, 69, 0
1, 41880, Note_on_c, 0, 64, 80
1, 41993, Note_on_c, 0, 64, 0
1, 42000, Note_on_c, 0, 69, 80
1, 42113, Note_on_c, 0, 69, 0
1, 42120, Note_on_c, 0, 71, 80
1, 42233, Note_on_c, 0, 71, 0
1, 42240, Note_on_c, 0, 64, 80
1, 42240, Note_on_c, 0, 67, 80
1, 42695, Note_on_c, 0, 64, 0
1, 42695, Note_on_c, 0, 67, 0
1, 42960, Note_on_c, 0, 64, 80
1, 42960, Note_on_c, 0, 67, 80
1, 43415, Note_on_c, 0, 64, 0
1, 43415, Note_on_c, 0, 67, 0
1, 43440, Note_on_c, 0, 67, 80
1, 43496, Note_on_c, 0, 67, 0
1, 43500, Note_on_c, 0, 69, 80
1, 43556, Note_on_c, 0, 69, 0
1, 43560, Note_on_c, 0, 71, 80
1, 43616, Note_on_c, 0, 71, 0
1, 43620, Note_on_c, 0, 72, 80
1, 43676, Note_on_c, 0, 72, 0
1, 43680, Note_on_c, 0, 74, 80
1, 43736, Note_on_c, 0, 74, 0
1, 43740, Note_on_c, 0, 76, 80
1, 43796, Note_on_c, 0, 76, 0
1, 43800, Note_on_c, 0, 77, 80
1, 43856, Note_on_c, 0, 77, 0
1, 43860, Note_on_c, 0, 79, 80
1, 43916, Note_on_c, 0, 79, 0
1, 44400, Note_on_c, 0, 64, 80
1, 44400, Note_on_c, 0, 67, 80
1, 44855, Note_on_c, 0, 64, 0
1, 44855, Note_on_c, 0, 67, 0
1, 44880, Note_on_c, 0, 64, 80
1, 44880, Note_on_c, 0, 67, 80
1, 45221, Note_on_c, 0, 64, 0
1, 45221, Note_on_c, 0, 67, 0
1, 45240, Note_on_c, 0, 72, 80
1, 45353, Note_on_c, 0, 72, 0
1, 45360, Note_on_c, 0, 74, 80
1, 45473, Note_on_c, 0, 74, 0
1, 45480, Note_on_c, 0, 72, 80
1, 45593, Note_on_c, 0, 72, 0
1, 45600, Note_on_c, 0, 64, 80
1, 45600, Note_on_c, 0, 67, 80
1, 45827, Note_on_c, 0, 64, 0
1, 45827, Note_on_c, 0, 67, 0
1, 45840, Note_on_c, 0, 76, 80
1, 45840, Note_on_c, 0, 79, 80
1, 46067, Note_on_c, 0, 76, 0
1, 46067, Note_on_c, 0, 79, 0
1, 46560, Note_on_c, 0, 64, 80
1, 46560, Note_on_c, 0, 67, 80
1, 47015, Note_on_c, 0, 64, 0
1, 47015, Note_on_c, 0, 67, 0
1, 47280, Note_on_c, 0, 64, 80
1, 47280, Note_on_c, 0, 67, 80
1, 47507, Note_on_c, 0, 64, 0
1, 47507, Note_on_c, 0, 67, 0
1, 47520, Note_on_c, 0, 74, 80
1, 47520, Note_on_c, 0, 79, 80
1, 47975, Note_on_c, 0, 74, 0
1, 47975, Note_on_c, 0, 79, 0
1, 48000, Note_on_c, 0, 71, 80
1, 48000, Note_on_c, 0, 74, 80
1, 48227, Note_on_c, 0, 71, 0
1, 48227, Note_on_c, 0, 74, 0
1, 48240, Note_on_c, 0, 79, 80
1, 48467, Note_on_c, 0, 79, 0
1, 48480, Note_on_c, 0, 81, 80
1, 48707, Note_on_c, 0, 81, 0
1, 48720, Note_on_c, 0, 79, 80
1, 48947, Note_on_c, 0, 79, 0
1, 48960, Note_on_c, 0, 83, 80
1, 49200, Note_on_c, 0, 81, 80
1, 49313, Note_on_c, 0, 81, 0
1, 49320, Note_on_c, 0, 79, 80
1, 49415, Note_on_c, 0, 83, 0
1, 49547, Note_on_c, 0, 79, 0
1, 49560, Note_on_c, 0, 79, 80
1, 49673, Note_on_c, 0, 79, 0
1, 49680, Note_on_c, 0, 77, 80
1, 49907, Note_on_c, 0, 77, 0
1, 49920, Tempo, 468750
1, 49920, Note_on_c, 0, 67, 80
1, 49920, Note_on_c, 0, 72, 80
1, 49920, Note_on_c, 0, 76, 80
1, 50375, Note_on_c, 0, 67, 0
1, 50375, Note_on_c, 0, 72, 0
1, 50375, Note_on_c, 0, 76, 0
1, 50640, Note_on_c, 0, 67, 80
1, 50640, Note_on_c, 0, 72, 80
1, 50640, Note_on_c, 0, 76, 80
1, 50867, Note_on_c, 0, 67, 0
1, 50867, Note_on_c, 0, 72, 0
1, 50867, Note_on_c, 0, 76, 0
1, 51000, Note_on_c, 0, 72, 80
1, 51000, Note_on_c, 0, 79, 80
1, 51000, Note_on_c, 0, 76, 80
1, 51227, Note_on_c, 0, 76, 0
1, 51240, Note_on_c, 0, 76, 80
1, 51341, Note_on_c, 0, 72, 0
1, 51341, Note_on_c, 0, 79, 0
1, 51360, Note_on_c, 0, 81, 80
1, 51581, Note_on_c, 0, 76, 0
1, 51587, Note_on_c, 0, 81, 0
1, 51600, Note_on_c, 0, 72, 80
1, 51600, Note_on_c, 0, 79, 80
1, 51827, Note_on_c, 0, 72, 0
1, 51827, Note_on_c, 0, 79, 0
1, 51840, Note_on_c, 0, 67, 80
1, 51840, Note_on_c, 0, 72, 80
1, 52067, Note_on_c, 0, 67, 0
1, 52067, Note_on_c, 0, 72, 0
1, 52080, Note_on_c, 0, 67, 80
1, 52193, Note_on_c, 0, 67, 0
1, 52200, Note_on_c, 0, 64, 80
1, 52200, Note_on_c, 0, 69, 80
1, 52427, Note_on_c, 0, 64, 0
1, 52427, Note_on_c, 0, 69, 0
1, 52440, Note_on_c, 0, 67, 80
1, 52553, Note_on_c, 0, 67, 0
1, 52560, Note_on_c, 0, 64, 80
1, 52560, Note_on_c, 0, 69, 80
1, 52787, Note_on_c, 0, 64, 0
1, 52787, Note_on_c, 0, 69, 0
1, 52800, Note_on_c, 0, 67, 80
1, 52913, Note_on_c, 0, 67, 0
1, 52920, Note_on_c, 0, 64, 80
1, 52920, Note_on_c, 0, 69, 80
1, 53147, Note_on_c, 0, 64, 0
1, 53147, Note_on_c, 0, 69, 0
1, 53160, Note_on_c, 0, 67, 80
1, 53273, Note_on_c, 0, 67, 0
1, 53280, Note_on_c, 0, 69, 80
1, 53393, Note_on_c, 0, 69, 0
1, 53400, Note_on_c, 0, 67, 80
1, 53513, Note_on_c, 0, 67, 0
1, 53520, Note_on_c, 0, 64, 80
1, 53633, Note_on_c, 0, 64, 0
1, 53640, Note_on_c, 0, 62, 80
1, 53753, Note_on_c, 0, 62, 0
1, 53760, Note_on_c, 0, 65, 80
1, 53760, Note_on_c, 0, 69, 80
1, 54215, Note_on_c, 0, 65, 0
1, 54215, Note_on_c, 0, 69, 0
1, 54480, Note_on_c, 0, 62, 80
1, 54480, Note_on_c, 0, 65, 80
1, 54480, Note_on_c, 0, 69, 80
1, 54480, Note_on_c, 0, 62, 0
1, 54935, Note_on_c, 0, 65, 0
1, 54935, Note_on_c, 0, 69, 0
1, 54960, Note_on_c, 0, 65, 80
1, 54960, Note_on_c, 0, 69, 80
1, 54960, Note_on_c, 0, 72, 80
1, 55187, Note_on_c, 0, 65, 0
1, 55187, Note_on_c, 0, 69, 0
1, 55187, Note_on_c, 0, 72, 0
1, 55200, Note_on_c, 0, 65, 80
1, 55200, Note_on_c, 0, 69, 80
1, 55200, Note_on_c, 0, 74, 80
1, 55427, Note_on_c, 0, 65, 0
1, 55427, Note_on_c, 0, 69, 0
1, 55427, Note_on_c, 0, 74, 0
1, 55440, Note_on_c, 0, 72, 80
1, 55667, Note_on_c, 0, 72, 0
1, 55680, Note_on_c, 0, 72, 80
1, 55907, Note_on_c, 0, 72, 0
1, 55920, Note_on_c, 0, 69, 80
1, 56033, Note_on_c, 0, 69, 0
1, 56040, Note_on_c, 0, 71, 80
1, 56267, Note_on_c, 0, 71, 0
1, 56280, Note_on_c, 0, 69, 80
1, 56393, Note_on_c, 0, 69, 0
1, 56400, Note_on_c, 0, 72, 80
1, 56627, Note_on_c, 0, 72, 0
1, 56640, Note_on_c, 0, 69, 80
1, 56753, Note_on_c, 0, 69, 0
1, 56760, Note_on_c, 0, 71, 80
1, 56987, Note_on_c, 0, 71, 0
1, 57000, Note_on_c, 0, 69, 80
1, 57113, Note_on_c, 0, 69, 0
1, 57120, Note_on_c, 0, 72, 80
1, 57233, Note_on_c, 0, 72, 0
1, 57240, Note_on_c, 0, 69, 80
1, 57353, Note_on_c, 0, 69, 0
1, 57360, Note_on_c, 0, 67, 80
1, 57473, Note_on_c, 0, 67, 0
1, 57480, Note_on_c, 0, 64, 80
1, 57593, Note_on_c, 0, 64, 0
1, 57600, Note_on_c, 0, 76, 80
1, 57600, Note_on_c, 0, 79, 80
1, 58055, Note_on_c, 0, 76, 0
1, 58055, Note_on_c, 0, 79, 0
1, 58320, Note_on_c, 0, 76, 80
1, 58320, Note_on_c, 0, 79, 80
1, 58775, Note_on_c, 0, 76, 0
1, 58775, Note_on_c, 0, 79, 0
1, 58800, Note_on_c, 0, 79, 80
1, 58875, Note_on_c, 0, 79, 0
1, 58880, Note_on_c, 0, 77, 80
1, 58955, Note_on_c, 0, 77, 0
1, 58960, Note_on_c, 0, 76, 80
1, 59035, Note_on_c, 0, 76, 0
1, 59040, Note_on_c, 0, 67, 80
1, 59495, Note_on_c, 0, 67, 0
1, 59520, Note_on_c, 0, 76, 80
1, 59520, Note_on_c, 0, 79, 80
1, 59975, Note_on_c, 0, 76, 0
1, 59975, Note_on_c, 0, 79, 0
1, 60240, Note_on_c, 0, 76, 80
1, 60240, Note_on_c, 0, 79, 80
1, 60467, Note_on_c, 0, 76, 0
1, 60467, Note_on_c, 0, 79, 0
1, 60480, Note_on_c, 0, 67, 80
1, 60960, Note_on_c, 0, 71, 80
1, 60960, Note_on_c, 0, 76, 80
1, 61391, Note_on_c, 0, 67, 0
1, 61415, Note_on_c, 0, 71, 0
1, 61415, Note_on_c, 0, 76, 0
1, 61440, Note_on_c, 0, 71, 80
1, 61470, Note_on_c, 0, 64, 80
1, 61470, Note_on_c, 0, 67, 80
1, 61470, Note_on_c, 0, 72, 80
1, 61895, Note_on_c, 0, 71, 0
1, 62124, Note_on_c, 0, 64, 0
1, 62124, Note_on_c, 0, 67, 0
1, 62124, Note_on_c, 0, 72, 0
1, 62160, Note_on_c, 0, 67, 80
1, 62387, Note_on_c, 0, 67, 0
1, 62400, Note_on_c, 0, 69, 80
1, 62627, Note_on_c, 0, 69, 0
1, 62640, Note_on_c, 0, 71, 80
1, 62867, Note_on_c, 0, 71, 0
1, 62880, Note_on_c, 0, 72, 80
1, 63107, Note_on_c, 0, 72, 0
1, 63120, Note_on_c, 0, 74, 80
1, 63347, Note_on_c, 0, 74, 0
1, 63360, Note_on_c, 0, 64, 80
1, 63360, Note_on_c, 0, 67, 80
1, 63360, Note_on_c, 0, 72, 80
1, 63587, Note_on_c, 0, 64, 0
1, 63587, Note_on_c, 0, 67, 0
1, 63587, Note_on_c, 0, 72, 0
1, 63600, Note_on_c, 0, 60, 80
1, 63827, Note_on_c, 0, 60, 0
1, 63840, Note_on_c, 0, 62, 80
1, 64067, Note_on_c, 0, 62, 0
1, 64080, Note_on_c, 0, 64, 80
1, 64307, Note_on_c, 0, 64, 0
1, 64320, Note_on_c, 0, 62, 80
1, 64547, Note_on_c, 0, 62, 0
1, 64560, Note_on_c, 0, 60, 80
1, 64787, Note_on_c, 0, 60, 0
1, 64800, Note_on_c, 0, 57, 80
1, 65027, Note_on_c, 0, 57, 0
1, 65040, Note_on_c, 0, 55, 80
1, 65267, Note_on_c, 0, 55, 0
1, 65280, Note_on_c, 0, 69, 80
1, 65340, Note_on_c, 0, 77, 80
1, 65400, Note_on_c, 0, 81, 80
1, 66419, Note_on_c, 0, 69, 0
1, 66422, Note_on_c, 0, 77, 0
1, 66425, Note_on_c, 0, 81, 0
1, 66480, Note_on_c, 0, 69, 80
1, 66935, Note_on_c, 0, 69, 0
1, 66960, Note_on_c, 0, 81, 80
1, 67187, Note_on_c, 0, 81, 0
1, 67200, Note_on_c, 0, 67, 80
1, 67260, Note_on_c, 0, 72, 80
1, 67320, Note_on_c, 0, 76, 80
1, 67440, Note_on_c, 0, 79, 80
1, 68111, Note_on_c, 0, 67, 0
1, 68114, Note_on_c, 0, 72, 0
1, 68117, Note_on_c, 0, 76, 0
1, 68123, Note_on_c, 0, 79, 0
1, 68160, Note_on_c, 0, 81, 80
1, 68640, Note_on_c, 0, 72, 80
1, 68640, Note_on_c, 0, 76, 80
1, 69071, Note_on_c, 0, 81, 0
1, 69095, Note_on_c, 0, 72, 0
1, 69095, Note_on_c, 0, 76, 0
1, 69120, Note_on_c, 0, 77, 80
1, 69840, Note_on_c, 0, 71, 80
1, 70031, Note_on_c, 0, 77, 0
1, 70560, Note_on_c, 0, 77, 80
1, 70979, Note_on_c, 0, 71, 0
1, 71015, Note_on_c, 0, 77, 0
1, 71040, Note_on_c, 0, 67, 80
1, 71040, Note_on_c, 0, 72, 80
1, 71040, Note_on_c, 0, 76, 80
1, 71951, Note_on_c, 0, 67, 0
1, 71951, Note_on_c, 0, 72, 0
1, 71951, Note_on_c, 0, 76, 0
1, 72480, Note_on_c, 0, 76, 80
1, 72631, Note_on_c, 0, 76, 0
1, 72640, Note_on_c, 0, 77, 80
1, 72791, Note_on_c, 0, 77, 0
1, 72800, Note_on_c, 0, 79, 80
1, 72951, Note_on_c, 0, 79, 0
1, 72960, Note_on_c, 0, 77, 80
1, 72960, Note_on_c, 0, 81, 80
1, 73643, Note_on_c, 0, 77, 0
1, 73643, Note_on_c, 0, 81, 0
1, 73680, Note_on_c, 0, 72, 80
1, 74135, Note_on_c, 0, 72, 0
1, 74160, Note_on_c, 0, 69, 80
1, 74400, Note_on_c, 0, 77, 80
1, 74400, Note_on_c, 0, 81, 80
1, 74519, Note_on_c, 0, 69, 0
1, 74640, Note_on_c, 0, 69, 80
1, 74855, Note_on_c, 0, 77, 0
1, 74855, Note_on_c, 0, 81, 0
1, 74867, Note_on_c, 0, 69, 0
1, 74880, Note_on_c, 0, 76, 80
1, 74880, Note_on_c, 0, 79, 80
1, 75600, Note_on_c, 0, 67, 80
1, 75791, Note_on_c, 0, 76, 0
1, 75791, Note_on_c, 0, 79, 0
1, 75840, Note_on_c, 0, 72, 80
1, 75840, Note_on_c, 0, 76, 80
1, 75840, Note_on_c, 0, 81, 80
1, 76283, Note_on_c, 0, 67, 0
1, 76295, Note_on_c, 0, 72, 0
1, 76295, Note_on_c, 0, 76, 0
1, 76295, Note_on_c, 0, 81, 0
1, 76320, Note_on_c, 0, 72, 80
1, 76320, Note_on_c, 0, 76, 80
1, 76320, Note_on_c, 0, 79, 80
1, 76775, Note_on_c, 0, 72, 0
1, 76775, Note_on_c, 0, 76, 0
1, 76775, Note_on_c, 0, 79, 0
1, 76800, Note_on_c, 0, 74, 80
1, 76800, Note_on_c, 0, 77, 80
1, 77483, Note_on_c, 0, 74, 0
1, 77483, Note_on_c, 0, 77, 0
1, 77520, Note_on_c, 0, 76, 80
1, 78203, Note_on_c, 0, 76, 0
1, 78240, Note_on_c, 0, 65, 80
1, 78240, Note_on_c, 0, 71, 80
1, 78240, Note_on_c, 0, 74, 80
1, 78695, Note_on_c, 0, 65, 0
1, 78695, Note_on_c, 0, 71, 0
1, 78695, Note_on_c, 0, 74, 0
1, 78720, Note_on_c, 0, 64, 80
1, 78720, Note_on_c, 0, 67, 80
1, 78720, Note_on_c, 0, 72, 80
1, 79631, Note_on_c, 0, 64, 0
1, 79631, Note_on_c, 0, 67, 0
1, 79631, Note_on_c, 0, 72, 0
1, 79632, End_track
2, 0, Start_track
2, 0, Title_t, "Piano, Piano\000"
2, 0, Key_signature, 0, "major"
2, 0, MIDI_port, 0
2, 1, Control_c, 0, 64, 0
2, 3120, Note_on_c, 0, 55, 80
2, 3347, Note_on_c, 0, 55, 0
2, 3360, Note_on_c, 0, 57, 80
2, 3587, Note_on_c, 0, 57, 0
2, 3600, Note_on_c, 0, 59, 80
2, 3659, Note_on_c, 0, 59, 0
2, 3720, Note_on_c, 0, 48, 80
2, 3833, Note_on_c, 0, 48, 0
2, 3840, Note_on_c, 0, 52, 80
2, 4067, Note_on_c, 0, 52, 0
2, 4080, Note_on_c, 0, 60, 80
2, 4080, Note_on_c, 0, 64, 80
2, 4307, Note_on_c, 0, 60, 0
2, 4307, Note_on_c, 0, 64, 0
2, 4320, Note_on_c, 0, 55, 80
2, 4547, Note_on_c, 0, 55, 0
2, 4560, Note_on_c, 0, 60, 80
2, 4560, Note_on_c, 0, 64, 80
2, 4787, Note_on_c, 0, 60, 0
2, 4787, Note_on_c, 0, 64, 0
2, 4800, Note_on_c, 0, 48, 80
2, 5027, Note_on_c, 0, 48, 0
2, 5040, Note_on_c, 0, 60, 80
2, 5040, Note_on_c, 0, 64, 80
2, 5267, Note_on_c, 0, 60, 0
2, 5267, Note_on_c, 0, 64, 0
2, 5280, Note_on_c, 0, 55, 80
2, 5507, Note_on_c, 0, 55, 0
2, 5520, Note_on_c, 0, 60, 80
2, 5520, Note_on_c, 0, 64, 80
2, 5747, Note_on_c, 0, 60, 0
2, 5747, Note_on_c, 0, 64, 0
2, 5760, Note_on_c, 0, 48, 80
2, 5987, Note_on_c, 0, 48, 0
2, 6000, Note_on_c, 0, 55, 80
2, 6000, Note_on_c, 0, 60, 80
2, 6227, Note_on_c, 0, 55, 0
2, 6227, Note_on_c, 0, 60, 0
2, 6240, Note_on_c, 0, 55, 80
2, 6467, Note_on_c, 0, 55, 0
2, 6480, Note_on_c, 0, 55, 80
2, 6480, Note_on_c, 0, 60, 80
2, 6707, Note_on_c, 0, 55, 0
2, 6707, Note_on_c, 0, 60, 0
2, 6720, Note_on_c, 0, 48, 80
2, 6947, Note_on_c, 0, 48, 0
2, 6960, Note_on_c, 0, 48, 80
2, 7187, Note_on_c, 0, 48, 0
2, 7200, Note_on_c, 0, 50, 80
2, 7427, Note_on_c, 0, 50, 0
2, 7440, Note_on_c, 0, 52, 80
2, 7667, Note_on_c, 0, 52, 0
2, 7680, Note_on_c, 0, 48, 80
2, 7680, Note_on_c, 0, 53, 80
2, 7907, Note_on_c, 0, 48, 0
2, 7907, Note_on_c, 0, 53, 0
2, 7920, Note_on_c, 0, 57, 80
2, 7920, Note_on_c, 0, 60, 80
2, 8147, Note_on_c, 0, 57, 0
2, 8147, Note_on_c, 0, 60, 0
2, 8160, Note_on_c, 0, 48, 80
2, 8387, Note_on_c, 0, 48, 0
2, 8400, Note_on_c, 0, 57, 80
2, 8400, Note_on_c, 0, 60, 80
2, 8627, Note_on_c, 0, 57, 0
2, 8627, Note_on_c, 0, 60, 0
2, 8640, Note_on_c, 0, 48, 80
2, 8640, Note_on_c, 0, 53, 80
2, 8867, Note_on_c, 0, 48, 0
2, 8867, Note_on_c, 0, 53, 0
2, 8880, Note_on_c, 0, 57, 80
2, 8880, Note_on_c, 0, 60, 80
2, 9107, Note_on_c, 0, 57, 0
2, 9107, Note_on_c, 0, 60, 0
2, 9120, Note_on_c, 0, 48, 80
2, 9347, Note_on_c, 0, 48, 0
2, 9360, Note_on_c, 0, 57, 80
2, 9360, Note_on_c, 0, 60, 80
2, 9587, Note_on_c, 0, 57, 0
2, 9587, Note_on_c, 0, 60, 0
2, 9600, Note_on_c, 0, 53, 80
2, 9827, Note_on_c, 0, 53, 0
2, 9840, Note_on_c, 0, 57, 80
2, 9840, Note_on_c, 0, 60, 80
2, 10067, Note_on_c, 0, 57, 0
2, 10067, Note_on_c, 0, 60, 0
2, 10080, Note_on_c, 0, 50, 80
2, 10307, Note_on_c, 0, 50, 0
2, 10320, Note_on_c, 0, 57, 80
2, 10320, Note_on_c, 0, 60, 80
2, 10547, Note_on_c, 0, 57, 0
2, 10547, Note_on_c, 0, 60, 0
2, 10560, Note_on_c, 0, 53, 80
2, 10787, Note_on_c, 0, 53, 0
2, 10800, Note_on_c, 0, 57, 80
2, 10800, Note_on_c, 0, 60, 80
2, 11027, Note_on_c, 0, 57, 0
2, 11027, Note_on_c, 0, 60, 0
2, 11040, Note_on_c, 0, 50, 80
2, 11267, Note_on_c, 0, 50, 0
2, 11280, Note_on_c, 0, 57, 80
2, 11280, Note_on_c, 0, 60, 80
2, 11507, Note_on_c, 0, 57, 0
2, 11507, Note_on_c, 0, 60, 0
2, 11520, Note_on_c, 0, 52, 80
2, 11747, Note_on_c, 0, 52, 0
2, 11760, Note_on_c, 0, 55, 80
2, 11760, Note_on_c, 0, 59, 80
2, 11760, Note_on_c, 0, 62, 80
2, 11987, Note_on_c, 0, 55, 0
2, 11987, Note_on_c, 0, 59, 0
2, 11987, Note_on_c, 0, 62, 0
2, 12000, Note_on_c, 0, 59, 80
2, 12227, Note_on_c, 0, 59, 0
2, 12240, Note_on_c, 0, 55, 80
2, 12240, Note_on_c, 0, 59, 80
2, 12240, Note_on_c, 0, 62, 80
2, 12467, Note_on_c, 0, 55, 0
2, 12467, Note_on_c, 0, 59, 0
2, 12467, Note_on_c, 0, 62, 0
2, 12480, Note_on_c, 0, 52, 80
2, 12707, Note_on_c, 0, 52, 0
2, 12720, Note_on_c, 0, 59, 80
2, 12720, Note_on_c, 0, 62, 80
2, 12947, Note_on_c, 0, 59, 0
2, 12947, Note_on_c, 0, 62, 0
2, 12960, Note_on_c, 0, 59, 80
2, 13187, Note_on_c, 0, 59, 0
2, 13200, Note_on_c, 0, 59, 80
2, 13200, Note_on_c, 0, 62, 80
2, 13427, Note_on_c, 0, 59, 0
2, 13427, Note_on_c, 0, 62, 0
2, 13440, Note_on_c, 0, 52, 80
2, 13667, Note_on_c, 0, 52, 0
2, 13680, Note_on_c, 0, 55, 80
2, 13680, Note_on_c, 0, 59, 80
2, 13680, Note_on_c, 0, 62, 80
2, 13907, Note_on_c, 0, 55, 0
2, 13907, Note_on_c, 0, 59, 0
2, 13907, Note_on_c, 0, 62, 0
2, 13920, Note_on_c, 0, 59, 80
2, 14147, Note_on_c, 0, 59, 0
2, 14160, Note_on_c, 0, 55, 80
2, 14160, Note_on_c, 0, 59, 80
2, 14160, Note_on_c, 0, 62, 80
2, 14387, Note_on_c, 0, 55, 0
2, 14387, Note_on_c, 0, 59, 0
2, 14387, Note_on_c, 0, 62, 0
2, 14400, Note_on_c, 0, 52, 80
2, 14627, Note_on_c, 0, 52, 0
2, 14640, Note_on_c, 0, 55, 80
2, 14640, Note_on_c, 0, 59, 80
2, 14640, Note_on_c, 0, 62, 80
2, 14867, Note_on_c, 0, 55, 0
2, 14867, Note_on_c, 0, 59, 0
2, 14867, Note_on_c, 0, 62, 0
2, 14880, Note_on_c, 0, 59, 80
2, 15107, Note_on_c, 0, 59, 0
2, 15120, Note_on_c, 0, 55, 80
2, 15120, Note_on_c, 0, 59, 80
2, 15120, Note_on_c, 0, 62, 80
2, 15347, Note_on_c, 0, 55, 0
2, 15347, Note_on_c, 0, 59, 0
2, 15347, Note_on_c, 0, 62, 0
2, 15360, Note_on_c, 0, 50, 80
2, 15587, Note_on_c, 0, 50, 0
2, 15600, Note_on_c, 0, 53, 80
2, 15600, Note_on_c, 0, 57, 80
2, 15600, Note_on_c, 0, 60, 80
2, 15827, Note_on_c, 0, 53, 0
2, 15827, Note_on_c, 0, 57, 0
2, 15827, Note_on_c, 0, 60, 0
2, 15840, Note_on_c, 0, 57, 80
2, 16067, Note_on_c, 0, 57, 0
2, 16080, Note_on_c, 0, 53, 80
2, 16080, Note_on_c, 0, 57, 80
2, 16080, Note_on_c, 0, 60, 80
2, 16307, Note_on_c, 0, 53, 0
2, 16307, Note_on_c, 0, 57, 0
2, 16307, Note_on_c, 0, 60, 0
2, 16320, Note_on_c, 0, 50, 80
2, 16547, Note_on_c, 0, 50, 0
2, 16560, Note_on_c, 0, 53, 80
2, 16560, Note_on_c, 0, 57, 80
2, 16560, Note_on_c, 0, 60, 80
2, 16787, Note_on_c, 0, 53, 0
2, 16787, Note_on_c, 0, 57, 0
2, 16787, Note_on_c, 0, 60, 0
2, 16800, Note_on_c, 0, 50, 80
2, 17027, Note_on_c, 0, 50, 0
2, 17040, Note_on_c, 0, 53, 80
2, 17040, Note_on_c, 0, 57, 80
2, 17040, Note_on_c, 0, 60, 80
2, 17267, Note_on_c, 0, 53, 0
2, 17267, Note_on_c, 0, 57, 0
2, 17267, Note_on_c, 0, 60, 0
2, 17280, Note_on_c, 0, 55, 80
2, 17507, Note_on_c, 0, 55, 0
2, 17520, Note_on_c, 0, 59, 80
2, 17520, Note_on_c, 0, 62, 80
2, 17520, Note_on_c, 0, 65, 80
2, 17747, Note_on_c, 0, 59, 0
2, 17747, Note_on_c, 0, 62, 0
2, 17747, Note_on_c, 0, 65, 0
2, 17760, Note_on_c, 0, 55, 80
2, 17987, Note_on_c, 0, 55, 0
2, 18000, Note_on_c, 0, 59, 80
2, 18000, Note_on_c, 0, 62, 80
2, 18000, Note_on_c, 0, 65, 80
2, 18227, Note_on_c, 0, 59, 0
2, 18227, Note_on_c, 0, 62, 0
2, 18227, Note_on_c, 0, 65, 0
2, 18240, Note_on_c, 0, 55, 80
2, 18467, Note_on_c, 0, 55, 0
2, 18480, Note_on_c, 0, 55, 80
2, 18707, Note_on_c, 0, 55, 0
2, 18720, Note_on_c, 0, 57, 80
2, 18959, Note_on_c, 0, 57, 0
2, 18960, Note_on_c, 0, 59, 80
2, 19080, Note_on_c, 0, 48, 80
2, 19187, Note_on_c, 0, 59, 0
2, 19200, Note_on_c, 0, 52, 80
2, 19421, Note_on_c, 0, 48, 0
2, 19427, Note_on_c, 0, 52, 0
2, 19440, Note_on_c, 0, 55, 80
2, 19440, Note_on_c, 0, 60, 80
2, 19440, Note_on_c, 0, 64, 80
2, 19667, Note_on_c, 0, 55, 0
2, 19667, Note_on_c, 0, 60, 0
2, 19667, Note_on_c, 0, 64, 0
2, 19680, Note_on_c, 0, 55, 80
2, 19907, Note_on_c, 0, 55, 0
2, 19920, Note_on_c, 0, 55, 80
2, 19920, Note_on_c, 0, 60, 80
2, 19920, Note_on_c, 0, 64, 80
2, 20147, Note_on_c, 0, 55, 0
2, 20147, Note_on_c, 0, 60, 0
2, 20147, Note_on_c, 0, 64, 0
2, 20160, Note_on_c, 0, 48, 80
2, 20387, Note_on_c, 0, 48, 0
2, 20400, Note_on_c, 0, 55, 80
2, 20400, Note_on_c, 0, 60, 80
2, 20400, Note_on_c, 0, 64, 80
2, 20627, Note_on_c, 0, 55, 0
2, 20627, Note_on_c, 0, 60, 0
2, 20627, Note_on_c, 0, 64, 0
2, 20640, Note_on_c, 0, 43, 80
2, 20867, Note_on_c, 0, 43, 0
2, 20880, Note_on_c, 0, 55, 80
2, 20880, Note_on_c, 0, 60, 80
2, 20880, Note_on_c, 0, 64, 80
2, 21107, Note_on_c, 0, 55, 0
2, 21107, Note_on_c, 0, 60, 0
2, 21107, Note_on_c, 0, 64, 0
2, 21120, Note_on_c, 0, 48, 80
2, 21347, Note_on_c, 0, 48, 0
2, 21360, Note_on_c, 0, 55, 80
2, 21360, Note_on_c, 0, 60, 80
2, 21587, Note_on_c, 0, 55, 0
2, 21587, Note_on_c, 0, 60, 0
2, 21600, Note_on_c, 0, 55, 80
2, 21827, Note_on_c, 0, 55, 0
2, 21840, Note_on_c, 0, 55, 80
2, 21840, Note_on_c, 0, 60, 80
2, 22067, Note_on_c, 0, 55, 0
2, 22067, Note_on_c, 0, 60, 0
2, 22080, Note_on_c, 0, 48, 80
2, 22307, Note_on_c, 0, 48, 0
2, 22320, Note_on_c, 0, 52, 80
2, 22320, Note_on_c, 0, 55, 80
2, 22320, Note_on_c, 0, 60, 80
2, 22547, Note_on_c, 0, 52, 0
2, 22547, Note_on_c, 0, 55, 0
2, 22547, Note_on_c, 0, 60, 0
2, 22560, Note_on_c, 0, 48, 80
2, 22787, Note_on_c, 0, 48, 0
2, 22800, Note_on_c, 0, 52, 80
2, 22800, Note_on_c, 0, 55, 80
2, 22800, Note_on_c, 0, 60, 80
2, 23027, Note_on_c, 0, 52, 0
2, 23027, Note_on_c, 0, 55, 0
2, 23027, Note_on_c, 0, 60, 0
2, 23040, Note_on_c, 0, 50, 80
2, 23267, Note_on_c, 0, 50, 0
2, 23280, Note_on_c, 0, 53, 80
2, 23399, Note_on_c, 0, 53, 0
2, 23520, Note_on_c, 0, 57, 89
2, 23747, Note_on_c, 0, 57, 0
2, 23760, Note_on_c, 0, 53, 80
2, 23760, Note_on_c, 0, 57, 80
2, 23760, Note_on_c, 0, 60, 94
2, 23879, Note_on_c, 0, 53, 0
2, 23879, Note_on_c, 0, 57, 0
2, 23879, Note_on_c, 0, 60, 0
2, 24000, Note_on_c, 0, 50, 91
2, 24227, Note_on_c, 0, 50, 0
2, 24240, Note_on_c, 0, 57, 80
2, 24240, Note_on_c, 0, 60, 94
2, 24359, Note_on_c, 0, 57, 0
2, 24359, Note_on_c, 0, 60, 0
2, 24480, Note_on_c, 0, 57, 89
2, 24707, Note_on_c, 0, 57, 0
2, 24720, Note_on_c, 0, 57, 80
2, 24720, Note_on_c, 0, 60, 94
2, 24839, Note_on_c, 0, 57, 0
2, 24839, Note_on_c, 0, 60, 0
2, 24960, Note_on_c, 0, 50, 80
2, 25187, Note_on_c, 0, 50, 0
2, 25200, Note_on_c, 0, 57, 80
2, 25200, Note_on_c, 0, 60, 80
2, 25427, Note_on_c, 0, 57, 0
2, 25427, Note_on_c, 0, 60, 0
2, 25440, Note_on_c, 0, 50, 80
2, 25667, Note_on_c, 0, 50, 0
2, 25680, Note_on_c, 0, 57, 80
2, 25680, Note_on_c, 0, 60, 80
2, 25907, Note_on_c, 0, 57, 0
2, 25907, Note_on_c, 0, 60, 0
2, 25920, Note_on_c, 0, 48, 80
2, 26147, Note_on_c, 0, 48, 0
2, 26160, Note_on_c, 0, 57, 80
2, 26160, Note_on_c, 0, 60, 80
2, 26387, Note_on_c, 0, 57, 0
2, 26387, Note_on_c, 0, 60, 0
2, 26400, Note_on_c, 0, 57, 80
2, 26627, Note_on_c, 0, 57, 0
2, 26640, Note_on_c, 0, 57, 80
2, 26640, Note_on_c, 0, 60, 80
2, 26867, Note_on_c, 0, 57, 0
2, 26867, Note_on_c, 0, 60, 0
2, 26880, Note_on_c, 0, 52, 80
2, 27107, Note_on_c, 0, 52, 0
2, 27120, Note_on_c, 0, 55, 80
2, 27120, Note_on_c, 0, 59, 80
2, 27120, Note_on_c, 0, 62, 80
2, 27347, Note_on_c, 0, 55, 0
2, 27347, Note_on_c, 0, 59, 0
2, 27347, Note_on_c, 0, 62, 0
2, 27360, Note_on_c, 0, 59, 80
2, 27587, Note_on_c, 0, 59, 0
2, 27600, Note_on_c, 0, 55, 80
2, 27600, Note_on_c, 0, 59, 80
2, 27600, Note_on_c, 0, 62, 80
2, 27827, Note_on_c, 0, 55, 0
2, 27827, Note_on_c, 0, 59, 0
2, 27827, Note_on_c, 0, 62, 0
2, 27840, Note_on_c, 0, 52, 80
2, 28067, Note_on_c, 0, 52, 0
2, 28080, Note_on_c, 0, 55, 80
2, 28080, Note_on_c, 0, 59, 80
2, 28080, Note_on_c, 0, 62, 80
2, 28307, Note_on_c, 0, 55, 0
2, 28307, Note_on_c, 0, 59, 0
2, 28307, Note_on_c, 0, 62, 0
2, 28320, Note_on_c, 0, 52, 80
2, 28547, Note_on_c, 0, 52, 0
2, 28560, Note_on_c, 0, 55, 80
2, 28560, Note_on_c, 0, 59, 80
2, 28560, Note_on_c, 0, 62, 80
2, 28787, Note_on_c, 0, 55, 0
2, 28787, Note_on_c, 0, 59, 0
2, 28787, Note_on_c, 0, 62, 0
2, 28800, Note_on_c, 0, 50, 80
2, 29027, Note_on_c, 0, 50, 0
2, 29040, Note_on_c, 0, 53, 80
2, 29040, Note_on_c, 0, 57, 80
2, 29040, Note_on_c, 0, 60, 80
2, 29267, Note_on_c, 0, 53, 0
2, 29267, Note_on_c, 0, 57, 0
2, 29267, Note_on_c, 0, 60, 0
2, 29280, Note_on_c, 0, 50, 80
2, 29507, Note_on_c, 0, 50, 0
2, 29520, Note_on_c, 0, 53, 80
2, 29520, Note_on_c, 0, 57, 80
2, 29520, Note_on_c, 0, 60, 80
2, 29747, Note_on_c, 0, 53, 0
2, 29747, Note_on_c, 0, 57, 0
2, 29747, Note_on_c, 0, 60, 0
2, 29760, Note_on_c, 0, 55, 80
2, 29987, Note_on_c, 0, 55, 0
2, 30000, Note_on_c, 0, 55, 80
2, 30000, Note_on_c, 0, 59, 80
2, 30000, Note_on_c, 0, 62, 80
2, 30227, Note_on_c, 0, 55, 0
2, 30227, Note_on_c, 0, 59, 0
2, 30227, Note_on_c, 0, 62, 0
2, 30240, Note_on_c, 0, 52, 80
2, 30467, Note_on_c, 0, 52, 0
2, 30480, Note_on_c, 0, 55, 80
2, 30480, Note_on_c, 0, 59, 80
2, 30480, Note_on_c, 0, 62, 80
2, 30707, Note_on_c, 0, 55, 0
2, 30707, Note_on_c, 0, 59, 0
2, 30707, Note_on_c, 0, 62, 0
2, 30720, Note_on_c, 0, 48, 80
2, 30947, Note_on_c, 0, 48, 0
2, 30960, Note_on_c, 0, 52, 80
2, 30960, Note_on_c, 0, 55, 80
2, 30960, Note_on_c, 0, 60, 80
2, 31187, Note_on_c, 0, 52, 0
2, 31187, Note_on_c, 0, 55, 0
2, 31187, Note_on_c, 0, 60, 0
2, 31200, Note_on_c, 0, 55, 80
2, 31427, Note_on_c, 0, 55, 0
2, 31440, Note_on_c, 0, 52, 80
2, 31440, Note_on_c, 0, 55, 80
2, 31440, Note_on_c, 0, 60, 80
2, 31667, Note_on_c, 0, 52, 0
2, 31667, Note_on_c, 0, 55, 0
2, 31667, Note_on_c, 0, 60, 0
2, 31680, Note_on_c, 0, 60, 80
2, 31907, Note_on_c, 0, 60, 0
2, 31920, Note_on_c, 0, 55, 80
2, 32147, Note_on_c, 0, 55, 0
2, 32160, Note_on_c, 0, 57, 80
2, 32387, Note_on_c, 0, 57, 0
2, 32400, Note_on_c, 0, 59, 80
2, 32627, Note_on_c, 0, 59, 0
2, 34440, Note_on_c, 0, 48, 80
2, 34553, Note_on_c, 0, 48, 0
2, 34560, Note_on_c, 0, 52, 80
2, 34787, Note_on_c, 0, 52, 0
2, 34800, Note_on_c, 0, 60, 80
2, 34800, Note_on_c, 0, 64, 80
2, 35027, Note_on_c, 0, 60, 0
2, 35027, Note_on_c, 0, 64, 0
2, 35040, Note_on_c, 0, 55, 80
2, 35267, Note_on_c, 0, 55, 0
2, 35280, Note_on_c, 0, 60, 80
2, 35280, Note_on_c, 0, 64, 80
2, 35507, Note_on_c, 0, 60, 0
2, 35507, Note_on_c, 0, 64, 0
2, 35520, Note_on_c, 0, 48, 80
2, 35747, Note_on_c, 0, 48, 0
2, 35760, Note_on_c, 0, 60, 80
2, 35760, Note_on_c, 0, 64, 80
2, 35987, Note_on_c, 0, 60, 0
2, 35987, Note_on_c, 0, 64, 0
2, 36000, Note_on_c, 0, 55, 80
2, 36239, Note_on_c, 0, 55, 0
2, 36240, Note_on_c, 0, 60, 80
2, 36240, Note_on_c, 0, 64, 80
2, 36360, Note_on_c, 0, 48, 80
2, 36467, Note_on_c, 0, 60, 0
2, 36467, Note_on_c, 0, 64, 0
2, 36480, Note_on_c, 0, 52, 80
2, 36701, Note_on_c, 0, 48, 0
2, 36707, Note_on_c, 0, 52, 0
2, 36720, Note_on_c, 0, 55, 80
2, 36720, Note_on_c, 0, 60, 80
2, 36947, Note_on_c, 0, 55, 0
2, 36947, Note_on_c, 0, 60, 0
2, 36960, Note_on_c, 0, 55, 80
2, 37187, Note_on_c, 0, 55, 0
2, 37200, Note_on_c, 0, 55, 80
2, 37200, Note_on_c, 0, 60, 80
2, 37427, Note_on_c, 0, 55, 0
2, 37427, Note_on_c, 0, 60, 0
2, 37440, Note_on_c, 0, 48, 80
2, 37667, Note_on_c, 0, 48, 0
2, 37680, Note_on_c, 0, 48, 80
2, 37907, Note_on_c, 0, 48, 0
2, 37920, Note_on_c, 0, 50, 80
2, 38147, Note_on_c, 0, 50, 0
2, 38160, Note_on_c, 0, 52, 80
2, 38387, Note_on_c, 0, 52, 0
2, 38400, Note_on_c, 0, 48, 80
2, 38400, Note_on_c, 0, 53, 80
2, 38627, Note_on_c, 0, 48, 0
2, 38627, Note_on_c, 0, 53, 0
2, 38640, Note_on_c, 0, 57, 80
2, 38640, Note_on_c, 0, 60, 80
2, 38867, Note_on_c, 0, 57, 0
2, 38867, Note_on_c, 0, 60, 0
2, 38880, Note_on_c, 0, 48, 80
2, 39107, Note_on_c, 0, 48, 0
2, 39120, Note_on_c, 0, 57, 80
2, 39120, Note_on_c, 0, 60, 80
2, 39347, Note_on_c, 0, 57, 0
2, 39347, Note_on_c, 0, 60, 0
2, 39360, Note_on_c, 0, 53, 80
2, 39587, Note_on_c, 0, 53, 0
2, 39600, Note_on_c, 0, 57, 80
2, 39600, Note_on_c, 0, 60, 80
2, 39827, Note_on_c, 0, 57, 0
2, 39827, Note_on_c, 0, 60, 0
2, 39840, Note_on_c, 0, 48, 80
2, 40067, Note_on_c, 0, 48, 0
2, 40080, Note_on_c, 0, 57, 80
2, 40080, Note_on_c, 0, 60, 80
2, 40307, Note_on_c, 0, 57, 0
2, 40307, Note_on_c, 0, 60, 0
2, 40320, Note_on_c, 0, 53, 80
2, 40547, Note_on_c, 0, 53, 0
2, 40560, Note_on_c, 0, 57, 80
2, 40560, Note_on_c, 0, 60, 80
2, 40787, Note_on_c, 0, 57, 0
2, 40787, Note_on_c, 0, 60, 0
2, 40800, Note_on_c, 0, 48, 80
2, 41027, Note_on_c, 0, 48, 0
2, 41040, Note_on_c, 0, 57, 80
2, 41040, Note_on_c, 0, 60, 80
2, 41267, Note_on_c, 0, 57, 0
2, 41267, Note_on_c, 0, 60, 0
2, 41280, Note_on_c, 0, 52, 80
2, 41507, Note_on_c, 0, 52, 0
2, 41520, Note_on_c, 0, 57, 80
2, 41520, Note_on_c, 0, 60, 80
2, 41747, Note_on_c, 0, 57, 0
2, 41747, Note_on_c, 0, 60, 0
2, 41760, Note_on_c, 0, 50, 80
2, 41987, Note_on_c, 0, 50, 0
2, 42000, Note_on_c, 0, 57, 80
2, 42000, Note_on_c, 0, 60, 80
2, 42227, Note_on_c, 0, 57, 0
2, 42227, Note_on_c, 0, 60, 0
2, 42240, Note_on_c, 0, 52, 80
2, 42467, Note_on_c, 0, 52, 0
2, 42480, Note_on_c, 0, 55, 80
2, 42480, Note_on_c, 0, 59, 80
2, 42480, Note_on_c, 0, 62, 80
2, 42707, Note_on_c, 0, 55, 0
2, 42707, Note_on_c, 0, 59, 0
2, 42707, Note_on_c, 0, 62, 0
2, 42720, Note_on_c, 0, 47, 80
2, 42947, Note_on_c, 0, 47, 0
2, 42960, Note_on_c, 0, 55, 80
2, 42960, Note_on_c, 0, 59, 80
2, 42960, Note_on_c, 0, 62, 80
2, 43187, Note_on_c, 0, 55, 0
2, 43187, Note_on_c, 0, 59, 0
2, 43187, Note_on_c, 0, 62, 0
2, 43200, Note_on_c, 0, 52, 80
2, 43427, Note_on_c, 0, 52, 0
2, 43440, Note_on_c, 0, 59, 80
2, 43440, Note_on_c, 0, 62, 80
2, 43667, Note_on_c, 0, 59, 0
2, 43667, Note_on_c, 0, 62, 0
2, 43680, Note_on_c, 0, 52, 80
2, 43907, Note_on_c, 0, 52, 0
2, 43920, Note_on_c, 0, 59, 80
2, 43920, Note_on_c, 0, 62, 80
2, 44147, Note_on_c, 0, 59, 0
2, 44147, Note_on_c, 0, 62, 0
2, 44160, Note_on_c, 0, 50, 80
2, 44387, Note_on_c, 0, 50, 0
2, 44400, Note_on_c, 0, 53, 80
2, 44400, Note_on_c, 0, 60, 80
2, 44627, Note_on_c, 0, 53, 0
2, 44627, Note_on_c, 0, 60, 0
2, 44640, Note_on_c, 0, 50, 80
2, 44867, Note_on_c, 0, 50, 0
2, 44880, Note_on_c, 0, 53, 80
2, 44880, Note_on_c, 0, 60, 80
2, 45107, Note_on_c, 0, 53, 0
2, 45107, Note_on_c, 0, 60, 0
2, 45120, Note_on_c, 0, 50, 80
2, 45347, Note_on_c, 0, 50, 0
2, 45360, Note_on_c, 0, 52, 80
2, 45360, Note_on_c, 0, 60, 80
2, 45587, Note_on_c, 0, 52, 0
2, 45587, Note_on_c, 0, 60, 0
2, 45600, Note_on_c, 0, 52, 80
2, 45827, Note_on_c, 0, 52, 0
2, 45840, Note_on_c, 0, 53, 80
2, 45840, Note_on_c, 0, 60, 80
2, 46067, Note_on_c, 0, 53, 0
2, 46067, Note_on_c, 0, 60, 0
2, 46080, Note_on_c, 0, 50, 80
2, 46307, Note_on_c, 0, 50, 0
2, 46320, Note_on_c, 0, 53, 80
2, 46320, Note_on_c, 0, 57, 80
2, 46320, Note_on_c, 0, 60, 80
2, 46547, Note_on_c, 0, 53, 0
2, 46547, Note_on_c, 0, 57, 0
2, 46547, Note_on_c, 0, 60, 0
2, 46560, Note_on_c, 0, 57, 80
2, 46787, Note_on_c, 0, 57, 0
2, 46800, Note_on_c, 0, 53, 80
2, 46800, Note_on_c, 0, 57, 80
2, 46800, Note_on_c, 0, 60, 80
2, 47027, Note_on_c, 0, 53, 0
2, 47027, Note_on_c, 0, 57, 0
2, 47027, Note_on_c, 0, 60, 0
2, 47040, Note_on_c, 0, 50, 80
2, 47267, Note_on_c, 0, 50, 0
2, 47280, Note_on_c, 0, 53, 80
2, 47280, Note_on_c, 0, 57, 80
2, 47280, Note_on_c, 0, 60, 80
2, 47507, Note_on_c, 0, 53, 0
2, 47507, Note_on_c, 0, 57, 0
2, 47507, Note_on_c, 0, 60, 0
2, 47520, Note_on_c, 0, 57, 80
2, 47747, Note_on_c, 0, 57, 0
2, 47760, Note_on_c, 0, 53, 80
2, 47760, Note_on_c, 0, 57, 80
2, 47760, Note_on_c, 0, 60, 80
2, 47987, Note_on_c, 0, 53, 0
2, 47987, Note_on_c, 0, 57, 0
2, 47987, Note_on_c, 0, 60, 0
2, 48000, Note_on_c, 0, 55, 80
2, 48227, Note_on_c, 0, 55, 0
2, 48240, Note_on_c, 0, 67, 80
2, 48467, Note_on_c, 0, 67, 0
2, 48480, Note_on_c, 0, 69, 80
2, 48707, Note_on_c, 0, 69, 0
2, 48720, Note_on_c, 0, 67, 80
2, 48947, Note_on_c, 0, 67, 0
2, 48960, Note_on_c, 0, 71, 80
2, 49200, Note_on_c, 0, 69, 80
2, 49313, Note_on_c, 0, 69, 0
2, 49320, Note_on_c, 0, 67, 80
2, 49415, Note_on_c, 0, 71, 0
2, 49547, Note_on_c, 0, 67, 0
2, 49560, Note_on_c, 0, 67, 80
2, 49680, Note_on_c, 0, 65, 80
2, 49739, Note_on_c, 0, 67, 0
2, 49800, Note_on_c, 0, 48, 80
2, 49907, Note_on_c, 0, 65, 0
2, 49920, Note_on_c, 0, 52, 80
2, 50141, Note_on_c, 0, 48, 0
2, 50147, Note_on_c, 0, 52, 0
2, 50160, Note_on_c, 0, 55, 80
2, 50160, Note_on_c, 0, 60, 80
2, 50160, Note_on_c, 0, 64, 80
2, 50387, Note_on_c, 0, 55, 0
2, 50387, Note_on_c, 0, 60, 0
2, 50387, Note_on_c, 0, 64, 0
2, 50400, Note_on_c, 0, 55, 80
2, 50627, Note_on_c, 0, 55, 0
2, 50640, Note_on_c, 0, 55, 80
2, 50640, Note_on_c, 0, 60, 80
2, 50640, Note_on_c, 0, 64, 80
2, 50867, Note_on_c, 0, 55, 0
2, 50867, Note_on_c, 0, 60, 0
2, 50867, Note_on_c, 0, 64, 0
2, 50880, Note_on_c, 0, 48, 80
2, 51107, Note_on_c, 0, 48, 0
2, 51120, Note_on_c, 0, 60, 80
2, 51120, Note_on_c, 0, 64, 80
2, 51347, Note_on_c, 0, 60, 0
2, 51347, Note_on_c, 0, 64, 0
2, 51360, Note_on_c, 0, 55, 80
2, 51587, Note_on_c, 0, 55, 0
2, 51600, Note_on_c, 0, 60, 80
2, 51600, Note_on_c, 0, 64, 80
2, 51827, Note_on_c, 0, 60, 0
2, 51827, Note_on_c, 0, 64, 0
2, 51840, Note_on_c, 0, 48, 80
2, 52181, Note_on_c, 0, 48, 0
2, 52200, Note_on_c, 0, 55, 80
2, 52200, Note_on_c, 0, 60, 80
2, 52313, Note_on_c, 0, 55, 0
2, 52313, Note_on_c, 0, 60, 0
2, 52560, Note_on_c, 0, 55, 80
2, 52560, Note_on_c, 0, 60, 80
2, 52787, Note_on_c, 0, 55, 0
2, 52787, Note_on_c, 0, 60, 0
2, 52920, Note_on_c, 0, 55, 80
2, 52920, Note_on_c, 0, 60, 80
2, 53261, Note_on_c, 0, 55, 0
2, 53261, Note_on_c, 0, 60, 0
2, 53280, Note_on_c, 0, 55, 80
2, 53280, Note_on_c, 0, 60, 80
2, 53640, Note_on_c, 0, 38, 80
2, 53735, Note_on_c, 0, 55, 0
2, 53735, Note_on_c, 0, 60, 0
2, 53753, Note_on_c, 0, 38, 0
2, 53760, Note_on_c, 0, 53, 80
2, 53760, Note_on_c, 0, 57, 80
2, 53987, Note_on_c, 0, 53, 0
2, 53987, Note_on_c, 0, 57, 0
2, 54000, Note_on_c, 0, 57, 80
2, 54000, Note_on_c, 0, 62, 80
2, 54227, Note_on_c, 0, 57, 0
2, 54227, Note_on_c, 0, 62, 0
2, 54240, Note_on_c, 0, 57, 80
2, 54467, Note_on_c, 0, 57, 0
2, 54480, Note_on_c, 0, 62, 80
2, 54480, Note_on_c, 0, 57, 80
2, 54707, Note_on_c, 0, 57, 0
2, 54720, Note_on_c, 0, 50, 80
2, 54935, Note_on_c, 0, 62, 0
2, 54947, Note_on_c, 0, 50, 0
2, 54960, Note_on_c, 0, 57, 80
2, 54960, Note_on_c, 0, 62, 80
2, 55187, Note_on_c, 0, 57, 0
2, 55187, Note_on_c, 0, 62, 0
2, 55200, Note_on_c, 0, 57, 80
2, 55427, Note_on_c, 0, 57, 0
2, 55440, Note_on_c, 0, 57, 80
2, 55440, Note_on_c, 0, 60, 80
2, 55440, Note_on_c, 0, 62, 80
2, 55667, Note_on_c, 0, 57, 0
2, 55667, Note_on_c, 0, 60, 0
2, 55667, Note_on_c, 0, 62, 0
2, 55680, Note_on_c, 0, 57, 80
2, 55680, Note_on_c, 0, 60, 80
2, 55680, Note_on_c, 0, 62, 80
2, 56021, Note_on_c, 0, 57, 0
2, 56021, Note_on_c, 0, 60, 0
2, 56021, Note_on_c, 0, 62, 0
2, 56040, Note_on_c, 0, 60, 80
2, 56040, Note_on_c, 0, 62, 80
2, 56153, Note_on_c, 0, 60, 0
2, 56153, Note_on_c, 0, 62, 0
2, 56400, Note_on_c, 0, 60, 80
2, 56400, Note_on_c, 0, 62, 80
2, 56627, Note_on_c, 0, 60, 0
2, 56627, Note_on_c, 0, 62, 0
2, 56760, Note_on_c, 0, 60, 80
2, 56760, Note_on_c, 0, 62, 80
2, 57101, Note_on_c, 0, 60, 0
2, 57101, Note_on_c, 0, 62, 0
2, 57120, Note_on_c, 0, 60, 80
2, 57120, Note_on_c, 0, 62, 80
2, 57480, Note_on_c, 0, 40, 80
2, 57575, Note_on_c, 0, 60, 0
2, 57575, Note_on_c, 0, 62, 0
2, 57593, Note_on_c, 0, 40, 0
2, 57600, Note_on_c, 0, 55, 80
2, 57827, Note_on_c, 0, 55, 0
2, 57840, Note_on_c, 0, 55, 80
2, 57840, Note_on_c, 0, 59, 80
2, 57840, Note_on_c, 0, 62, 80
2, 58067, Note_on_c, 0, 55, 0
2, 58067, Note_on_c, 0, 59, 0
2, 58067, Note_on_c, 0, 62, 0
2, 58080, Note_on_c, 0, 59, 80
2, 58307, Note_on_c, 0, 59, 0
2, 58320, Note_on_c, 0, 55, 80
2, 58320, Note_on_c, 0, 59, 80
2, 58320, Note_on_c, 0, 62, 80
2, 58547, Note_on_c, 0, 55, 0
2, 58547, Note_on_c, 0, 59, 0
2, 58547, Note_on_c, 0, 62, 0
2, 58560, Note_on_c, 0, 52, 80
2, 58787, Note_on_c, 0, 52, 0
2, 58800, Note_on_c, 0, 55, 80
2, 58800, Note_on_c, 0, 59, 80
2, 58800, Note_on_c, 0, 62, 80
2, 59027, Note_on_c, 0, 55, 0
2, 59027, Note_on_c, 0, 59, 0
2, 59027, Note_on_c, 0, 62, 0
2, 59040, Note_on_c, 0, 52, 80
2, 59267, Note_on_c, 0, 52, 0
2, 59280, Note_on_c, 0, 55, 80
2, 59280, Note_on_c, 0, 59, 80
2, 59280, Note_on_c, 0, 62, 80
2, 59507, Note_on_c, 0, 55, 0
2, 59507, Note_on_c, 0, 59, 0
2, 59507, Note_on_c, 0, 62, 0
2, 59520, Note_on_c, 0, 50, 80
2, 59747, Note_on_c, 0, 50, 0
2, 59760, Note_on_c, 0, 53, 80
2, 59760, Note_on_c, 0, 57, 80
2, 59760, Note_on_c, 0, 60, 80
2, 59987, Note_on_c, 0, 53, 0
2, 59987, Note_on_c, 0, 57, 0
2, 59987, Note_on_c, 0, 60, 0
2, 60000, Note_on_c, 0, 57, 80
2, 60227, Note_on_c, 0, 57, 0
2, 60240, Note_on_c, 0, 53, 80
2, 60240, Note_on_c, 0, 57, 80
2, 60240, Note_on_c, 0, 60, 80
2, 60467, Note_on_c, 0, 53, 0
2, 60467, Note_on_c, 0, 57, 0
2, 60467, Note_on_c, 0, 60, 0
2, 60480, Note_on_c, 0, 50, 80
2, 60707, Note_on_c, 0, 50, 0
2, 60720, Note_on_c, 0, 50, 80
2, 60720, Note_on_c, 0, 53, 80
2, 60720, Note_on_c, 0, 55, 80
2, 60720, Note_on_c, 0, 59, 80
2, 60947, Note_on_c, 0, 50, 0
2, 60947, Note_on_c, 0, 53, 0
2, 60947, Note_on_c, 0, 55, 0
2, 60947, Note_on_c, 0, 59, 0
2, 60960, Note_on_c, 0, 55, 80
2, 61187, Note_on_c, 0, 55, 0
2, 61200, Note_on_c, 0, 50, 80
2, 61200, Note_on_c, 0, 53, 80
2, 61200, Note_on_c, 0, 55, 80
2, 61200, Note_on_c, 0, 59, 80
2, 61427, Note_on_c, 0, 50, 0
2, 61427, Note_on_c, 0, 53, 0
2, 61427, Note_on_c, 0, 55, 0
2, 61427, Note_on_c, 0, 59, 0
2, 61440, Note_on_c, 0, 48, 80
2, 61667, Note_on_c, 0, 48, 0
2, 61680, Note_on_c, 0, 52, 80
2, 61680, Note_on_c, 0, 55, 80
2, 61680, Note_on_c, 0, 60, 80
2, 61907, Note_on_c, 0, 52, 0
2, 61907, Note_on_c, 0, 55, 0
2, 61907, Note_on_c, 0, 60, 0
2, 61920, Note_on_c, 0, 55, 80
2, 62147, Note_on_c, 0, 55, 0
2, 62160, Note_on_c, 0, 52, 80
2, 62160, Note_on_c, 0, 55, 80
2, 62160, Note_on_c, 0, 60, 80
2, 62387, Note_on_c, 0, 52, 0
2, 62387, Note_on_c, 0, 55, 0
2, 62387, Note_on_c, 0, 60, 0
2, 62400, Note_on_c, 0, 48, 80
2, 62627, Note_on_c, 0, 48, 0
2, 62640, Note_on_c, 0, 52, 80
2, 62640, Note_on_c, 0, 55, 80
2, 62640, Note_on_c, 0, 60, 80
2, 62867, Note_on_c, 0, 52, 0
2, 62867, Note_on_c, 0, 55, 0
2, 62867, Note_on_c, 0, 60, 0
2, 62880, Note_on_c, 0, 55, 80
2, 63107, Note_on_c, 0, 55, 0
2, 63120, Note_on_c, 0, 52, 80
2, 63120, Note_on_c, 0, 55, 80
2, 63120, Note_on_c, 0, 60, 80
2, 63347, Note_on_c, 0, 52, 0
2, 63347, Note_on_c, 0, 55, 0
2, 63347, Note_on_c, 0, 60, 0
2, 65280, Note_on_c, 0, 53, 80
2, 65507, Note_on_c, 0, 53, 0
2, 65520, Note_on_c, 0, 57, 80
2, 65747, Note_on_c, 0, 57, 0
2, 65760, Note_on_c, 0, 60, 80
2, 65987, Note_on_c, 0, 60, 0
2, 66000, Note_on_c, 0, 65, 80
2, 67139, Note_on_c, 0, 65, 0
2, 67200, Note_on_c, 0, 52, 80
2, 67427, Note_on_c, 0, 52, 0
2, 67440, Note_on_c, 0, 55, 80
2, 67667, Note_on_c, 0, 55, 0
2, 67680, Note_on_c, 0, 60, 80
2, 67907, Note_on_c, 0, 60, 0
2, 67920, Note_on_c, 0, 64, 80
2, 68147, Note_on_c, 0, 64, 0
2, 68160, Note_on_c, 0, 69, 80
2, 69071, Note_on_c, 0, 69, 0
2, 69120, Note_on_c, 0, 50, 80
2, 69120, Note_on_c, 0, 65, 80
2, 69347, Note_on_c, 0, 50, 0
2, 69347, Note_on_c, 0, 65, 0
2, 69360, Note_on_c, 0, 53, 80
2, 69587, Note_on_c, 0, 53, 0
2, 69600, Note_on_c, 0, 57, 80
2, 69827, Note_on_c, 0, 57, 0
2, 69840, Note_on_c, 0, 62, 80
2, 70067, Note_on_c, 0, 62, 0
2, 70080, Note_on_c, 0, 55, 80
2, 70307, Note_on_c, 0, 55, 0
2, 70320, Note_on_c, 0, 53, 80
2, 70547, Note_on_c, 0, 53, 0
2, 70560, Note_on_c, 0, 59, 80
2, 70560, Note_on_c, 0, 65, 80
2, 71015, Note_on_c, 0, 59, 0
2, 71015, Note_on_c, 0, 65, 0
2, 71040, Note_on_c, 0, 48, 80
2, 71267, Note_on_c, 0, 48, 0
2, 71280, Note_on_c, 0, 52, 80
2, 71507, Note_on_c, 0, 52, 0
2, 71520, Note_on_c, 0, 55, 80
2, 71747, Note_on_c, 0, 55, 0
2, 71760, Note_on_c, 0, 60, 80
2, 71987, Note_on_c, 0, 60, 0
2, 72480, Note_on_c, 0, 64, 80
2, 72631, Note_on_c, 0, 64, 0
2, 72640, Note_on_c, 0, 65, 80
2, 72791, Note_on_c, 0, 65, 0
2, 72800, Note_on_c, 0, 67, 80
2, 72951, Note_on_c, 0, 67, 0
2, 72960, Note_on_c, 0, 53, 80
2, 72960, Note_on_c, 0, 69, 80
2, 73187, Note_on_c, 0, 53, 0
2, 73187, Note_on_c, 0, 69, 0
2, 73200, Note_on_c, 0, 57, 80
2, 73427, Note_on_c, 0, 57, 0
2, 73440, Note_on_c, 0, 60, 80
2, 73667, Note_on_c, 0, 60, 0
2, 73680, Note_on_c, 0, 65, 80
2, 74819, Note_on_c, 0, 65, 0
2, 74880, Note_on_c, 0, 52, 80
2, 75107, Note_on_c, 0, 52, 0
2, 75120, Note_on_c, 0, 55, 80
2, 75347, Note_on_c, 0, 55, 0
2, 75360, Note_on_c, 0, 60, 80
2, 75587, Note_on_c, 0, 60, 0
2, 75600, Note_on_c, 0, 64, 80
2, 76739, Note_on_c, 0, 64, 0
2, 76800, Note_on_c, 0, 50, 80
2, 77027, Note_on_c, 0, 50, 0
2, 77040, Note_on_c, 0, 53, 80
2, 77267, Note_on_c, 0, 53, 0
2, 77280, Note_on_c, 0, 59, 80
2, 77507, Note_on_c, 0, 59, 0
2, 77520, Note_on_c, 0, 62, 80
2, 77747, Note_on_c, 0, 62, 0
2, 77760, Note_on_c, 0, 55, 80
2, 77987, Note_on_c, 0, 55, 0
2, 78000, Note_on_c, 0, 53, 80
2, 78227, Note_on_c, 0, 53, 0
2, 78240, Note_on_c, 0, 59, 80
2, 78695, Note_on_c, 0, 59, 0
2, 78720, Note_on_c, 0, 48, 80
2, 78959, Note_on_c, 0, 48, 0
2, 79680, Control_c, 0, 64, 0
2, 79681, End_track
3, 0, Start_track
3, 0, Title_t, "6-str. Electric Bass, Bass\000"
3, 0, Key_signature, 0, "major"
3, 0, Control_c, 2, 121, 0
3, 0, Program_c, 2, 33
3, 0, Control_c, 2, 7, 100
3, 0, Control_c, 2, 10, 64
3, 0, Control_c, 2, 91, 0
3, 0, Control_c, 2, 93, 0
3, 0, MIDI_port, 0
3, 0, Control_c, 1, 121, 0
3, 0, Program_c, 1, 36
3, 0, Control_c, 1, 7, 100
3, 0, Control_c, 1, 10, 64
3, 0, Control_c, 1, 91, 0
3, 0, Control_c, 1, 93, 0
3, 0, MIDI_port, 0
3, 0, Control_c, 3, 121, 0
3, 0, Program_c, 3, 37
3, 0, Control_c, 3, 7, 100
3, 0, Control_c, 3, 10, 64
3, 0, Control_c, 3, 91, 0
3, 0, Control_c, 3, 93, 0
3, 0, MIDI_port, 0
3, 3120, Note_on_c, 2, 55, 80
3, 3359, Note_on_c, 2, 55, 0
3, 3360, Note_on_c, 2, 57, 80
3, 3599, Note_on_c, 2, 57, 0
3, 3600, Note_on_c, 2, 59, 80
3, 3839, Note_on_c, 2, 59, 0
3, 3840, Note_on_c, 2, 60, 80
3, 4319, Note_on_c, 2, 60, 0
3, 4320, Note_on_c, 2, 55, 80
3, 4799, Note_on_c, 2, 55, 0
3, 4800, Note_on_c, 2, 60, 80
3, 5279, Note_on_c, 2, 60, 0
3, 5280, Note_on_c, 2, 55, 80
3, 5759, Note_on_c, 2, 55, 0
3, 5760, Note_on_c, 2, 60, 80
3, 6239, Note_on_c, 2, 60, 0
3, 6240, Note_on_c, 2, 55, 80
3, 6719, Note_on_c, 2, 55, 0
3, 6720, Note_on_c, 2, 48, 80
3, 6959, Note_on_c, 2, 48, 0
3, 6960, Note_on_c, 2, 48, 80
3, 7199, Note_on_c, 2, 48, 0
3, 7200, Note_on_c, 2, 50, 80
3, 7439, Note_on_c, 2, 50, 0
3, 7440, Note_on_c, 2, 52, 80
3, 7679, Note_on_c, 2, 52, 0
3, 7680, Note_on_c, 2, 65, 80
3, 8159, Note_on_c, 2, 65, 0
3, 8160, Note_on_c, 2, 60, 80
3, 8639, Note_on_c, 2, 60, 0
3, 8640, Note_on_c, 2, 65, 80
3, 9119, Note_on_c, 2, 65, 0
3, 9120, Note_on_c, 2, 60, 80
3, 9599, Note_on_c, 2, 60, 0
3, 9600, Note_on_c, 2, 65, 80
3, 10079, Note_on_c, 2, 65, 0
3, 10080, Note_on_c, 2, 62, 80
3, 10559, Note_on_c, 2, 62, 0
3, 10560, Note_on_c, 2, 65, 80
3, 11039, Note_on_c, 2, 65, 0
3, 11040, Note_on_c, 2, 62, 80
3, 11519, Note_on_c, 2, 62, 0
3, 11520, Note_on_c, 2, 64, 80
3, 11999, Note_on_c, 2, 64, 0
3, 12000, Note_on_c, 2, 59, 80
3, 12479, Note_on_c, 2, 59, 0
3, 12480, Note_on_c, 2, 64, 80
3, 12959, Note_on_c, 2, 64, 0
3, 12960, Note_on_c, 2, 59, 80
3, 13439, Note_on_c, 2, 59, 0
3, 13440, Note_on_c, 2, 64, 80
3, 13919, Note_on_c, 2, 64, 0
3, 13920, Note_on_c, 2, 59, 80
3, 14399, Note_on_c, 2, 59, 0
3, 14400, Note_on_c, 2, 64, 80
3, 14879, Note_on_c, 2, 64, 0
3, 14880, Note_on_c, 2, 59, 80
3, 15359, Note_on_c, 2, 59, 0
3, 15360, Note_on_c, 2, 62, 80
3, 15839, Note_on_c, 2, 62, 0
3, 15840, Note_on_c, 2, 57, 80
3, 16319, Note_on_c, 2, 57, 0
3, 16320, Note_on_c, 2, 62, 80
3, 16799, Note_on_c, 2, 62, 0
3, 16800, Note_on_c, 2, 62, 80
3, 17279, Note_on_c, 2, 62, 0
3, 17280, Note_on_c, 2, 55, 80
3, 17759, Note_on_c, 2, 55, 0
3, 17760, Note_on_c, 2, 67, 80
3, 18239, Note_on_c, 2, 67, 0
3, 18240, Note_on_c, 2, 55, 80
3, 18479, Note_on_c, 2, 55, 0
3, 18480, Note_on_c, 2, 55, 80
3, 18719, Note_on_c, 2, 55, 0
3, 18720, Note_on_c, 2, 57, 80
3, 18959, Note_on_c, 2, 57, 0
3, 18960, Note_on_c, 2, 59, 80
3, 19199, Note_on_c, 2, 59, 0
3, 19200, Note_on_c, 2, 60, 80
3, 19679, Note_on_c, 2, 60, 0
3, 19680, Note_on_c, 2, 55, 80
3, 20159, Note_on_c, 2, 55, 0
3, 20160, Note_on_c, 2, 60, 80
3, 20639, Note_on_c, 2, 60, 0
3, 20640, Note_on_c, 2, 55, 80
3, 21119, Note_on_c, 2, 55, 0
3, 21120, Note_on_c, 2, 60, 80
3, 21599, Note_on_c, 2, 60, 0
3, 21600, Note_on_c, 2, 55, 80
3, 22079, Note_on_c, 2, 55, 0
3, 22080, Note_on_c, 2, 60, 80
3, 22559, Note_on_c, 2, 60, 0
3, 22560, Note_on_c, 2, 60, 80
3, 23039, Note_on_c, 2, 60, 0
3, 23040, Note_on_c, 2, 62, 80
3, 23519, Note_on_c, 2, 62, 0
3, 23520, Note_on_c, 2, 57, 80
3, 23999, Note_on_c, 2, 57, 0
3, 24000, Note_on_c, 2, 62, 80
3, 24479, Note_on_c, 2, 62, 0
3, 24480, Note_on_c, 2, 57, 80
3, 24959, Note_on_c, 2, 57, 0
3, 24960, Note_on_c, 2, 62, 80
3, 25439, Note_on_c, 2, 62, 0
3, 25440, Note_on_c, 2, 62, 80
3, 25919, Note_on_c, 2, 62, 0
3, 25920, Note_on_c, 2, 60, 80
3, 26399, Note_on_c, 2, 60, 0
3, 26400, Note_on_c, 2, 57, 80
3, 26879, Note_on_c, 2, 57, 0
3, 26880, Note_on_c, 2, 64, 80
3, 27359, Note_on_c, 2, 64, 0
3, 27360, Note_on_c, 2, 59, 80
3, 27839, Note_on_c, 2, 59, 0
3, 27840, Note_on_c, 2, 64, 80
3, 28319, Note_on_c, 2, 64, 0
3, 28320, Note_on_c, 2, 64, 80
3, 28799, Note_on_c, 2, 64, 0
3, 28800, Note_on_c, 2, 62, 80
3, 29279, Note_on_c, 2, 62, 0
3, 29280, Note_on_c, 2, 62, 80
3, 29759, Note_on_c, 2, 62, 0
3, 29760, Note_on_c, 2, 55, 80
3, 30239, Note_on_c, 2, 55, 0
3, 30240, Note_on_c, 2, 64, 80
3, 30719, Note_on_c, 2, 64, 0
3, 30720, Note_on_c, 2, 60, 80
3, 31199, Note_on_c, 2, 60, 0
3, 31200, Note_on_c, 2, 55, 80
3, 31679, Note_on_c, 2, 55, 0
3, 31680, Note_on_c, 2, 60, 80
3, 31919, Note_on_c, 2, 60, 0
3, 31920, Note_on_c, 2, 55, 80
3, 32159, Note_on_c, 2, 55, 0
3, 32160, Note_on_c, 2, 57, 80
3, 32399, Note_on_c, 2, 57, 0
3, 32400, Note_on_c, 2, 59, 80
3, 32639, Note_on_c, 2, 59, 0
3, 32640, Note_on_c, 2, 60, 80
3, 32879, Note_on_c, 2, 60, 0
3, 32880, Note_on_c, 2, 60, 80
3, 33119, Note_on_c, 2, 60, 0
3, 33120, Note_on_c, 2, 62, 80
3, 33359, Note_on_c, 2, 62, 0
3, 33360, Note_on_c, 2, 64, 80
3, 33599, Note_on_c, 2, 64, 0
3, 33600, Note_on_c, 2, 65, 80
3, 33839, Note_on_c, 2, 65, 0
3, 33840, Note_on_c, 2, 67, 80
3, 34079, Note_on_c, 2, 67, 0
3, 34080, Note_on_c, 2, 69, 80
3, 34319, Note_on_c, 2, 69, 0
3, 34320, Note_on_c, 2, 71, 80
3, 34559, Note_on_c, 2, 71, 0
3, 34560, Note_on_c, 2, 60, 80
3, 35039, Note_on_c, 2, 60, 0
3, 35040, Note_on_c, 2, 55, 80
3, 35519, Note_on_c, 2, 55, 0
3, 35520, Note_on_c, 2, 60, 80
3, 35999, Note_on_c, 2, 60, 0
3, 36000, Note_on_c, 2, 55, 80
3, 36479, Note_on_c, 2, 55, 0
3, 36480, Note_on_c, 2, 60, 80
3, 36959, Note_on_c, 2, 60, 0
3, 36960, Note_on_c, 2, 55, 80
3, 37439, Note_on_c, 2, 55, 0
3, 37440, Note_on_c, 2, 60, 80
3, 37679, Note_on_c, 2, 60, 0
3, 37680, Note_on_c, 2, 60, 80
3, 37919, Note_on_c, 2, 60, 0
3, 37920, Note_on_c, 2, 62, 80
3, 38159, Note_on_c, 2, 62, 0
3, 38160, Note_on_c, 2, 64, 80
3, 38399, Note_on_c, 2, 64, 0
3, 38400, Note_on_c, 2, 65, 80
3, 38879, Note_on_c, 2, 65, 0
3, 38880, Note_on_c, 2, 60, 80
3, 39359, Note_on_c, 2, 60, 0
3, 39360, Note_on_c, 2, 65, 80
3, 39839, Note_on_c, 2, 65, 0
3, 39840, Note_on_c, 2, 60, 80
3, 40319, Note_on_c, 2, 60, 0
3, 40320, Note_on_c, 2, 65, 80
3, 40799, Note_on_c, 2, 65, 0
3, 40800, Note_on_c, 2, 60, 80
3, 41279, Note_on_c, 2, 60, 0
3, 41280, Note_on_c, 2, 65, 80
3, 41759, Note_on_c, 2, 65, 0
3, 41760, Note_on_c, 2, 62, 80
3, 42239, Note_on_c, 2, 62, 0
3, 42240, Note_on_c, 2, 64, 80
3, 42719, Note_on_c, 2, 64, 0
3, 42720, Note_on_c, 2, 59, 80
3, 43199, Note_on_c, 2, 59, 0
3, 43200, Note_on_c, 2, 64, 80
3, 43679, Note_on_c, 2, 64, 0
3, 43680, Note_on_c, 2, 64, 80
3, 44159, Note_on_c, 2, 64, 0
3, 44160, Note_on_c, 2, 62, 80
3, 44639, Note_on_c, 2, 62, 0
3, 44640, Note_on_c, 2, 62, 80
3, 45119, Note_on_c, 2, 62, 0
3, 45120, Note_on_c, 2, 62, 80
3, 45599, Note_on_c, 2, 62, 0
3, 45600, Note_on_c, 2, 64, 80
3, 46079, Note_on_c, 2, 64, 0
3, 46080, Note_on_c, 2, 62, 80
3, 46559, Note_on_c, 2, 62, 0
3, 46560, Note_on_c, 2, 57, 80
3, 47039, Note_on_c, 2, 57, 0
3, 47040, Note_on_c, 2, 62, 80
3, 47519, Note_on_c, 2, 62, 0
3, 47520, Note_on_c, 2, 57, 80
3, 47999, Note_on_c, 2, 57, 0
3, 48000, Note_on_c, 2, 55, 80
3, 48239, Note_on_c, 2, 55, 0
3, 48240, Note_on_c, 2, 67, 80
3, 48479, Note_on_c, 2, 67, 0
3, 48480, Note_on_c, 2, 69, 80
3, 48719, Note_on_c, 2, 69, 0
3, 48720, Note_on_c, 2, 67, 80
3, 48959, Note_on_c, 2, 67, 0
3, 48960, Note_on_c, 2, 71, 80
3, 49200, Note_on_c, 2, 69, 80
3, 49319, Note_on_c, 2, 69, 0
3, 49320, Note_on_c, 2, 67, 80
3, 49439, Note_on_c, 2, 71, 0
3, 49559, Note_on_c, 2, 67, 0
3, 49560, Note_on_c, 2, 67, 80
3, 49679, Note_on_c, 2, 67, 0
3, 49680, Note_on_c, 2, 65, 80
3, 49919, Note_on_c, 2, 65, 0
3, 49920, Note_on_c, 2, 60, 80
3, 50399, Note_on_c, 2, 60, 0
3, 50400, Note_on_c, 2, 55, 80
3, 50879, Note_on_c, 2, 55, 0
3, 50880, Note_on_c, 2, 60, 80
3, 51359, Note_on_c, 2, 60, 0
3, 51360, Note_on_c, 2, 55, 80
3, 51839, Note_on_c, 2, 55, 0
3, 51840, Note_on_c, 2, 60, 80
3, 53759, Note_on_c, 2, 60, 0
3, 53760, Note_on_c, 2, 50, 80
3, 54239, Note_on_c, 2, 50, 0
3, 54240, Note_on_c, 2, 57, 80
3, 54719, Note_on_c, 2, 57, 0
3, 54720, Note_on_c, 2, 62, 80
3, 55199, Note_on_c, 2, 62, 0
3, 55200, Note_on_c, 2, 57, 80
3, 55679, Note_on_c, 2, 57, 0
3, 55680, Note_on_c, 2, 50, 80
3, 57599, Note_on_c, 2, 50, 0
3, 57600, Note_on_c, 2, 52, 80
3, 58079, Note_on_c, 2, 52, 0
3, 58080, Note_on_c, 2, 59, 80
3, 58559, Note_on_c, 2, 59, 0
3, 58560, Note_on_c, 2, 64, 80
3, 59039, Note_on_c, 2, 64, 0
3, 59040, Note_on_c, 2, 64, 80
3, 59519, Note_on_c, 2, 64, 0
3, 59520, Note_on_c, 2, 62, 80
3, 59999, Note_on_c, 2, 62, 0
3, 60000, Note_on_c, 2, 57, 80
3, 60479, Note_on_c, 2, 57, 0
3, 60480, Note_on_c, 2, 62, 80
3, 60959, Note_on_c, 2, 62, 0
3, 60960, Note_on_c, 2, 55, 80
3, 61439, Note_on_c, 2, 55, 0
3, 61440, Note_on_c, 2, 60, 80
3, 61919, Note_on_c, 2, 60, 0
3, 61920, Note_on_c, 2, 55, 80
3, 62399, Note_on_c, 2, 55, 0
3, 62400, Note_on_c, 2, 60, 80
3, 62879, Note_on_c, 2, 60, 0
3, 62880, Note_on_c, 2, 55, 80
3, 63359, Note_on_c, 2, 55, 0
3, 63360, End_track
0, 0, End_of_file
