0, 0, Header, 1, 3, 480
1, 0, Start_track
1, 0, Title_t, "Piano, Piano, Piano, Piano\000"
1, 0, Time_signature, 6, 3, 24, 8
1, 0, Key_signature, 0, "major"
1, 0, Tempo, 714286
1, 0, Control_c, 0, 121, 0
1, 0, Program_c, 0, 0
1, 0, Control_c, 0, 7, 100
1, 0, Control_c, 0, 10, 64
1, 0, Control_c, 0, 91, 0
1, 0, Control_c, 0, 93, 0
1, 0, MIDI_port, 0
1, 720, Tempo, 697674
1, 1440, Tempo, 681818
1, 2160, Tempo, 666667
1, 10800, Note_on_c, 0, 64, 80
1, 11027, Note_on_c, 0, 64, 0
1, 11040, Note_on_c, 0, 69, 80
1, 11267, Note_on_c, 0, 69, 0
1, 11280, Note_on_c, 0, 72, 80
1, 11507, Note_on_c, 0, 72, 0
1, 11520, Note_on_c, 0, 76, 80
1, 12545, Note_on_c, 0, 76, 0
1, 12720, Note_on_c, 0, 76, 80
1, 12947, Note_on_c, 0, 76, 0
1, 12960, Note_on_c, 0, 74, 80
1, 13016, Note_on_c, 0, 74, 0
1, 13020, Note_on_c, 0, 76, 80
1, 13076, Note_on_c, 0, 76, 0
1, 13080, Note_on_c, 0, 74, 80
1, 13877, Note_on_c, 0, 74, 0
1, 13920, Note_on_c, 0, 72, 80
1, 14147, Note_on_c, 0, 72, 0
1, 14160, Note_on_c, 0, 71, 80
1, 14387, Note_on_c, 0, 71, 0
1, 14400, Note_on_c, 0, 72, 80
1, 15767, Note_on_c, 0, 72, 0
1, 16560, Note_on_c, 0, 69, 80
1, 16787, Note_on_c, 0, 69, 0
1, 16800, Note_on_c, 0, 72, 80
1, 17027, Note_on_c, 0, 72, 0
1, 17040, Note_on_c, 0, 76, 80
1, 17267, Note_on_c, 0, 76, 0
1, 17280, Note_on_c, 0, 81, 80
1, 18305, Note_on_c, 0, 81, 0
1, 18480, Note_on_c, 0, 81, 80
1, 18707, Note_on_c, 0, 81, 0
1, 18720, Note_on_c, 0, 81, 80
1, 19631, Note_on_c, 0, 81, 0
1, 19680, Note_on_c, 0, 79, 80
1, 19907, Note_on_c, 0, 79, 0
1, 19920, Note_on_c, 0, 77, 80
1, 20147, Note_on_c, 0, 77, 0
1, 20160, Note_on_c, 0, 79, 80
1, 20843, Note_on_c, 0, 79, 0
1, 20880, Note_on_c, 0, 74, 80
1, 21107, Note_on_c, 0, 74, 0
1, 21120, Note_on_c, 0, 77, 80
1, 21347, Note_on_c, 0, 77, 0
1, 21360, Note_on_c, 0, 76, 80
1, 21587, Note_on_c, 0, 76, 0
1, 21600, Note_on_c, 0, 76, 80
1, 22283, Note_on_c, 0, 76, 0
1, 22320, Note_on_c, 0, 71, 80
1, 22547, Note_on_c, 0, 71, 0
1, 22560, Note_on_c, 0, 76, 80
1, 22787, Note_on_c, 0, 76, 0
1, 22800, Note_on_c, 0, 79, 80
1, 23027, Note_on_c, 0, 79, 0
1, 23040, Note_on_c, 0, 83, 80
1, 23723, Note_on_c, 0, 83, 0
1, 23760, Note_on_c, 0, 81, 80
1, 25127, Note_on_c, 0, 81, 0
1, 25200, Note_on_c, 0, 79, 80
1, 25427, Note_on_c, 0, 79, 0
1, 25440, Note_on_c, 0, 77, 80
1, 25667, Note_on_c, 0, 77, 0
1, 25680, Note_on_c, 0, 76, 80
1, 25793, Note_on_c, 0, 76, 0
1, 25800, Note_on_c, 0, 77, 80
1, 25913, Note_on_c, 0, 77, 0
1, 25920, Note_on_c, 0, 81, 80
1, 26603, Note_on_c, 0, 81, 0
1, 26640, Note_on_c, 0, 79, 80
1, 28007, Note_on_c, 0, 79, 0
1, 28320, Note_on_c, 0, 72, 80
1, 28547, Note_on_c, 0, 72, 0
1, 28560, Note_on_c, 0, 76, 80
1, 28787, Note_on_c, 0, 76, 0
1, 28800, Note_on_c, 0, 76, 80
1, 29711, Note_on_c, 0, 76, 0
1, 29760, Note_on_c, 0, 74, 80
1, 29987, Note_on_c, 0, 74, 0
1, 30000, Note_on_c, 0, 72, 80
1, 30227, Note_on_c, 0, 72, 0
1, 30240, Tempo, 697674
1, 30240, Note_on_c, 0, 71, 80
1, 30960, Tempo, 731707
1, 31151, Note_on_c, 0, 71, 0
1, 31200, Tempo, 769231
1, 31200, Note_on_c, 0, 72, 80
1, 31427, Note_on_c, 0, 72, 0
1, 31440, Tempo, 810811
1, 31440, Note_on_c, 0, 74, 80
1, 31667, Note_on_c, 0, 74, 0
1, 31680, Tempo, 882353
1, 31680, Note_on_c, 0, 76, 80
1, 31907, Note_on_c, 0, 76, 0
1, 31920, Tempo, 750000
1, 31920, Note_on_c, 0, 64, 80
1, 32147, Note_on_c, 0, 64, 0
1, 32160, Tempo, 666667
1, 32160, Note_on_c, 0, 67, 80
1, 32387, Note_on_c, 0, 67, 0
1, 32400, Tempo, 638298
1, 32400, Note_on_c, 0, 76, 80
1, 32627, Note_on_c, 0, 76, 0
1, 32640, Note_on_c, 0, 64, 80
1, 32867, Note_on_c, 0, 64, 0
1, 32880, Note_on_c, 0, 67, 80
1, 33107, Note_on_c, 0, 67, 0
1, 33120, Tempo, 612245
1, 33120, Note_on_c, 0, 76, 80
1, 33347, Note_on_c, 0, 76, 0
1, 33360, Note_on_c, 0, 64, 80
1, 33587, Note_on_c, 0, 64, 0
1, 33600, Note_on_c, 0, 67, 80
1, 33827, Note_on_c, 0, 67, 0
1, 33840, Note_on_c, 0, 76, 80
1, 34067, Note_on_c, 0, 76, 0
1, 34080, Note_on_c, 0, 64, 80
1, 34307, Note_on_c, 0, 64, 0
1, 34320, Note_on_c, 0, 67, 80
1, 34547, Note_on_c, 0, 67, 0
1, 34560, Tempo, 588235
1, 34560, Note_on_c, 0, 76, 80
1, 34787, Note_on_c, 0, 76, 0
1, 34800, Note_on_c, 0, 64, 80
1, 35027, Note_on_c, 0, 64, 0
1, 35040, Note_on_c, 0, 67, 80
1, 35267, Note_on_c, 0, 67, 0
1, 35280, Note_on_c, 0, 76, 80
1, 35507, Note_on_c, 0, 76, 0
1, 35520, Note_on_c, 0, 64, 80
1, 35747, Note_on_c, 0, 64, 0
1, 35760, Note_on_c, 0, 67, 80
1, 35987, Note_on_c, 0, 67, 0
1, 36000, Tempo, 560748
1, 36000, Note_on_c, 0, 76, 80
1, 36227, Note_on_c, 0, 76, 0
1, 36240, Note_on_c, 0, 64, 80
1, 36467, Note_on_c, 0, 64, 0
1, 36480, Note_on_c, 0, 67, 80
1, 36707, Note_on_c, 0, 67, 0
1, 36720, Note_on_c, 0, 76, 80
1, 36947, Note_on_c, 0, 76, 0
1, 36960, Note_on_c, 0, 64, 80
1, 37187, Note_on_c, 0, 64, 0
1, 37200, Note_on_c, 0, 67, 80
1, 37427, Note_on_c, 0, 67, 0
1, 37440, Tempo, 545455
1, 37440, Note_on_c, 0, 76, 80
1, 37667, Note_on_c, 0, 76, 0
1, 37680, Note_on_c, 0, 64, 80
1, 37907, Note_on_c, 0, 64, 0
1, 37920, Note_on_c, 0, 67, 80
1, 38147, Note_on_c, 0, 67, 0
1, 38160, Note_on_c, 0, 76, 80
1, 38387, Note_on_c, 0, 76, 0
1, 38400, Note_on_c, 0, 64, 80
1, 38627, Note_on_c, 0, 64, 0
1, 38640, Note_on_c, 0, 67, 80
1, 38867, Note_on_c, 0, 67, 0
1, 38880, Tempo, 566038
1, 38880, Note_on_c, 0, 76, 80
1, 39107, Note_on_c, 0, 76, 0
1, 39120, Tempo, 588235
1, 39120, Note_on_c, 0, 64, 80
1, 39347, Note_on_c, 0, 64, 0
1, 39360, Tempo, 612245
1, 39360, Note_on_c, 0, 67, 80
1, 39587, Note_on_c, 0, 67, 0
1, 39600, Tempo, 638298
1, 39600, Note_on_c, 0, 76, 80
1, 39827, Note_on_c, 0, 76, 0
1, 39840, Note_on_c, 0, 64, 80
1, 40067, Note_on_c, 0, 64, 0
1, 40080, Note_on_c, 0, 67, 80
1, 40307, Note_on_c, 0, 67, 0
1, 40320, Note_on_c, 0, 64, 80
1, 40350, Note_on_c, 0, 69, 80
1, 40380, Note_on_c, 0, 72, 80
1, 40410, Note_on_c, 0, 76, 80
1, 40560, Tempo, 612245
1, 40560, Note_on_c, 0, 64, 0
1, 40800, Tempo, 576923
1, 41460, Note_on_c, 0, 69, 0
1, 41462, Note_on_c, 0, 72, 0
1, 41463, Note_on_c, 0, 76, 0
1, 41520, Note_on_c, 0, 76, 80
1, 41747, Note_on_c, 0, 76, 0
1, 41760, Note_on_c, 0, 74, 80
1, 41816, Note_on_c, 0, 74, 0
1, 41820, Note_on_c, 0, 76, 80
1, 41876, Note_on_c, 0, 76, 0
1, 41880, Note_on_c, 0, 74, 80
1, 42677, Note_on_c, 0, 74, 0
1, 42720, Note_on_c, 0, 72, 80
1, 42947, Note_on_c, 0, 72, 0
1, 42960, Note_on_c, 0, 71, 80
1, 43187, Note_on_c, 0, 71, 0
1, 43200, Note_on_c, 0, 72, 80
1, 44111, Note_on_c, 0, 72, 0
1, 44160, Note_on_c, 0, 59, 80
1, 44387, Note_on_c, 0, 59, 0
1, 44400, Note_on_c, 0, 57, 80
1, 44627, Note_on_c, 0, 57, 0
1, 44640, Note_on_c, 0, 55, 80
1, 45323, Note_on_c, 0, 55, 0
1, 45360, Note_on_c, 0, 69, 80
1, 45587, Note_on_c, 0, 69, 0
1, 45600, Note_on_c, 0, 72, 80
1, 45827, Note_on_c, 0, 72, 0
1, 45840, Note_on_c, 0, 76, 80
1, 46067, Note_on_c, 0, 76, 0
1, 46080, Note_on_c, 0, 69, 80
1, 46110, Note_on_c, 0, 72, 80
1, 46140, Note_on_c, 0, 81, 80
1, 46320, Note_on_c, 0, 69, 0
1, 47220, Note_on_c, 0, 72, 0
1, 47222, Note_on_c, 0, 81, 0
1, 47280, Note_on_c, 0, 81, 80
1, 47507, Note_on_c, 0, 81, 0
1, 47520, Note_on_c, 0, 81, 80
1, 48431, Note_on_c, 0, 81, 0
1, 48480, Note_on_c, 0, 79, 80
1, 48707, Note_on_c, 0, 79, 0
1, 48720, Note_on_c, 0, 77, 80
1, 48947, Note_on_c, 0, 77, 0
1, 48960, Note_on_c, 0, 79, 80
1, 49643, Note_on_c, 0, 79, 0
1, 49680, Note_on_c, 0, 74, 80
1, 49907, Note_on_c, 0, 74, 0
1, 49920, Note_on_c, 0, 77, 80
1, 50147, Note_on_c, 0, 77, 0
1, 50160, Note_on_c, 0, 76, 80
1, 50387, Note_on_c, 0, 76, 0
1, 50400, Note_on_c, 0, 76, 80
1, 51083, Note_on_c, 0, 76, 0
1, 51120, Note_on_c, 0, 71, 80
1, 51347, Note_on_c, 0, 71, 0
1, 51360, Note_on_c, 0, 76, 80
1, 51587, Note_on_c, 0, 76, 0
1, 51600, Note_on_c, 0, 79, 80
1, 51827, Note_on_c, 0, 79, 0
1, 51840, Note_on_c, 0, 83, 80
1, 52523, Note_on_c, 0, 83, 0
1, 52560, Note_on_c, 0, 81, 80
1, 53927, Note_on_c, 0, 81, 0
1, 54000, Note_on_c, 0, 79, 80
1, 54227, Note_on_c, 0, 79, 0
1, 54240, Note_on_c, 0, 77, 80
1, 54467, Note_on_c, 0, 77, 0
1, 54480, Note_on_c, 0, 76, 80
1, 54593, Note_on_c, 0, 76, 0
1, 54600, Note_on_c, 0, 77, 80
1, 54713, Note_on_c, 0, 77, 0
1, 54720, Note_on_c, 0, 81, 80
1, 55403, Note_on_c, 0, 81, 0
1, 55440, Note_on_c, 0, 79, 80
1, 56807, Note_on_c, 0, 79, 0
1, 57120, Note_on_c, 0, 77, 80
1, 57347, Note_on_c, 0, 77, 0
1, 57360, Note_on_c, 0, 76, 80
1, 57587, Note_on_c, 0, 76, 0
1, 57600, Note_on_c, 0, 76, 80
1, 58511, Note_on_c, 0, 76, 0
1, 58560, Note_on_c, 0, 74, 80
1, 58787, Note_on_c, 0, 74, 0
1, 58800, Note_on_c, 0, 72, 80
1, 59027, Note_on_c, 0, 72, 0
1, 59040, Note_on_c, 0, 71, 80
1, 59951, Note_on_c, 0, 71, 0
1, 60000, Note_on_c, 0, 72, 80
1, 60227, Note_on_c, 0, 72, 0
1, 60240, Note_on_c, 0, 74, 80
1, 60467, Note_on_c, 0, 74, 0
1, 60480, Tempo, 612245
1, 60480, Note_on_c, 0, 76, 80
1, 61200, Tempo, 638298
1, 61391, Note_on_c, 0, 76, 0
1, 61440, Tempo, 666667
1, 61440, Note_on_c, 0, 72, 80
1, 61667, Note_on_c, 0, 72, 0
1, 61680, Tempo, 697674
1, 61680, Note_on_c, 0, 71, 80
1, 61907, Note_on_c, 0, 71, 0
1, 61920, Note_on_c, 0, 69, 80
1, 62160, Tempo, 638298
1, 62400, Tempo, 588235
1, 62640, Tempo, 576923
1, 63287, Note_on_c, 0, 69, 0
1, 64320, Note_on_c, 0, 72, 80
1, 64547, Note_on_c, 0, 72, 0
1, 64560, Note_on_c, 0, 71, 80
1, 64787, Note_on_c, 0, 71, 0
1, 64800, Note_on_c, 0, 69, 80
1, 66167, Note_on_c, 0, 69, 0
1, 66960, Tempo, 625000
1, 67440, Note_on_c, 0, 76, 80
1, 67667, Note_on_c, 0, 76, 0
1, 67680, Tempo, 666667
1, 67680, Note_on_c, 0, 77, 80
1, 67920, Tempo, 576923
1, 68135, Note_on_c, 0, 77, 0
1, 68160, Note_on_c, 0, 76, 80
1, 68235, Note_on_c, 0, 76, 0
1, 68240, Note_on_c, 0, 77, 80
1, 68315, Note_on_c, 0, 77, 0
1, 68320, Note_on_c, 0, 76, 80
1, 68395, Note_on_c, 0, 76, 0
1, 68400, Note_on_c, 0, 74, 80
1, 68627, Note_on_c, 0, 74, 0
1, 68640, Note_on_c, 0, 72, 80
1, 68867, Note_on_c, 0, 72, 0
1, 68880, Note_on_c, 0, 71, 80
1, 69107, Note_on_c, 0, 71, 0
1, 69120, Note_on_c, 0, 72, 80
1, 69347, Note_on_c, 0, 72, 0
1, 69360, Note_on_c, 0, 74, 80
1, 69587, Note_on_c, 0, 74, 0
1, 69600, Note_on_c, 0, 76, 80
1, 69827, Note_on_c, 0, 76, 0
1, 69840, Note_on_c, 0, 67, 80
1, 70295, Note_on_c, 0, 67, 0
1, 70320, Note_on_c, 0, 67, 80
1, 70547, Note_on_c, 0, 67, 0
1, 70560, Tempo, 555556
1, 70560, Note_on_c, 0, 77, 80
1, 71015, Note_on_c, 0, 77, 0
1, 71040, Note_on_c, 0, 76, 80
1, 71115, Note_on_c, 0, 76, 0
1, 71120, Note_on_c, 0, 77, 80
1, 71195, Note_on_c, 0, 77, 0
1, 71200, Note_on_c, 0, 76, 80
1, 71275, Note_on_c, 0, 76, 0
1, 71280, Tempo, 545455
1, 71280, Note_on_c, 0, 74, 80
1, 71507, Note_on_c, 0, 74, 0
1, 71520, Note_on_c, 0, 72, 80
1, 71747, Note_on_c, 0, 72, 0
1, 71760, Note_on_c, 0, 74, 80
1, 71987, Note_on_c, 0, 74, 0
1, 72000, Tempo, 535714
1, 72000, Note_on_c, 0, 76, 80
1, 72683, Note_on_c, 0, 76, 0
1, 73200, Note_on_c, 0, 76, 80
1, 73427, Note_on_c, 0, 76, 0
1, 73440, Note_on_c, 0, 76, 80
1, 73515, Note_on_c, 0, 76, 0
1, 73520, Note_on_c, 0, 77, 80
1, 73595, Note_on_c, 0, 77, 0
1, 73600, Note_on_c, 0, 76, 80
1, 73675, Note_on_c, 0, 76, 0
1, 73680, Note_on_c, 0, 74, 80
1, 73907, Note_on_c, 0, 74, 0
1, 73920, Note_on_c, 0, 76, 80
1, 74147, Note_on_c, 0, 76, 0
1, 74160, Note_on_c, 0, 77, 80
1, 74387, Note_on_c, 0, 77, 0
1, 74400, Note_on_c, 0, 79, 80
1, 74627, Note_on_c, 0, 79, 0
1, 74640, Note_on_c, 0, 77, 80
1, 74867, Note_on_c, 0, 77, 0
1, 74880, Note_on_c, 0, 76, 80
1, 75335, Note_on_c, 0, 76, 0
1, 75360, Note_on_c, 0, 79, 80
1, 75587, Note_on_c, 0, 79, 0
1, 75600, Note_on_c, 0, 72, 80
1, 76055, Note_on_c, 0, 72, 0
1, 76080, Note_on_c, 0, 72, 80
1, 76307, Note_on_c, 0, 72, 0
1, 76320, Note_on_c, 0, 71, 80
1, 76380, Note_on_c, 0, 76, 80
1, 76440, Note_on_c, 0, 83, 80
1, 76679, Note_on_c, 0, 71, 0
1, 76778, Note_on_c, 0, 76, 0
1, 76781, Note_on_c, 0, 83, 0
1, 76800, Note_on_c, 0, 83, 80
1, 77027, Note_on_c, 0, 83, 0
1, 77040, Note_on_c, 0, 84, 80
1, 77096, Note_on_c, 0, 84, 0
1, 77100, Note_on_c, 0, 83, 80
1, 77270, Note_on_c, 0, 83, 0
1, 77280, Note_on_c, 0, 81, 80
1, 77507, Note_on_c, 0, 81, 0
1, 77520, Note_on_c, 0, 84, 80
1, 77747, Note_on_c, 0, 84, 0
1, 77760, Note_on_c, 0, 83, 80
1, 78443, Note_on_c, 0, 83, 0
1, 79200, Tempo, 612245
1, 79440, Tempo, 535714
1, 79440, Note_on_c, 0, 64, 80
1, 79667, Note_on_c, 0, 64, 0
1, 79680, Note_on_c, 0, 64, 80
1, 79907, Note_on_c, 0, 64, 0
1, 79920, Note_on_c, 0, 64, 80
1, 80147, Note_on_c, 0, 64, 0
1, 80160, Note_on_c, 0, 64, 80
1, 80160, Note_on_c, 0, 69, 80
1, 80387, Note_on_c, 0, 64, 0
1, 80387, Note_on_c, 0, 69, 0
1, 80400, Note_on_c, 0, 64, 80
1, 80400, Note_on_c, 0, 71, 80
1, 80627, Note_on_c, 0, 64, 0
1, 80627, Note_on_c, 0, 71, 0
1, 80640, Note_on_c, 0, 69, 80
1, 80640, Note_on_c, 0, 72, 80
1, 81095, Note_on_c, 0, 69, 0
1, 81095, Note_on_c, 0, 72, 0
1, 81120, Note_on_c, 0, 69, 80
1, 81120, Note_on_c, 0, 72, 80
1, 81347, Note_on_c, 0, 69, 0
1, 81347, Note_on_c, 0, 72, 0
1, 81360, Note_on_c, 0, 69, 80
1, 81360, Note_on_c, 0, 72, 80
1, 81587, Note_on_c, 0, 69, 0
1, 81587, Note_on_c, 0, 72, 0
1, 81600, Note_on_c, 0, 69, 80
1, 81827, Note_on_c, 0, 69, 0
1, 81840, Note_on_c, 0, 67, 80
1, 82067, Note_on_c, 0, 67, 0
1, 82080, Note_on_c, 0, 62, 80
1, 82080, Note_on_c, 0, 69, 80
1, 82535, Note_on_c, 0, 62, 0
1, 82535, Note_on_c, 0, 69, 0
1, 82560, Note_on_c, 0, 62, 80
1, 82560, Note_on_c, 0, 69, 80
1, 82787, Note_on_c, 0, 62, 0
1, 82787, Note_on_c, 0, 69, 0
1, 82800, Note_on_c, 0, 62, 80
1, 82800, Note_on_c, 0, 69, 80
1, 83027, Note_on_c, 0, 62, 0
1, 83027, Note_on_c, 0, 69, 0
1, 83040, Note_on_c, 0, 62, 80
1, 83040, Note_on_c, 0, 67, 80
1, 83267, Note_on_c, 0, 62, 0
1, 83267, Note_on_c, 0, 67, 0
1, 83280, Note_on_c, 0, 62, 80
1, 83280, Note_on_c, 0, 69, 80
1, 83507, Note_on_c, 0, 62, 0
1, 83507, Note_on_c, 0, 69, 0
1, 83520, Note_on_c, 0, 62, 80
1, 83520, Note_on_c, 0, 67, 80
1, 83520, Note_on_c, 0, 71, 80
1, 83759, Note_on_c, 0, 62, 0
1, 83759, Note_on_c, 0, 67, 0
1, 83759, Note_on_c, 0, 71, 0
1, 84000, Note_on_c, 0, 62, 80
1, 84000, Note_on_c, 0, 67, 80
1, 84000, Note_on_c, 0, 71, 80
1, 84119, Note_on_c, 0, 62, 0
1, 84119, Note_on_c, 0, 67, 0
1, 84119, Note_on_c, 0, 71, 0
1, 84240, Tempo, 576923
1, 84240, Note_on_c, 0, 62, 80
1, 84240, Note_on_c, 0, 67, 80
1, 84240, Note_on_c, 0, 71, 80
1, 84359, Note_on_c, 0, 62, 0
1, 84359, Note_on_c, 0, 67, 0
1, 84359, Note_on_c, 0, 71, 0
1, 84480, Tempo, 625000
1, 84480, Note_on_c, 0, 62, 80
1, 84480, Note_on_c, 0, 69, 80
1, 84480, Note_on_c, 0, 62, 0
1, 84599, Note_on_c, 0, 69, 0
1, 84720, Tempo, 652174
1, 84720, Note_on_c, 0, 62, 80
1, 84720, Note_on_c, 0, 67, 80
1, 84720, Note_on_c, 0, 62, 0
1, 84839, Note_on_c, 0, 67, 0
1, 84960, Tempo, 612245
1, 84960, Note_on_c, 0, 62, 80
1, 84960, Note_on_c, 0, 69, 80
1, 85199, Note_on_c, 0, 62, 0
1, 85199, Note_on_c, 0, 69, 0
1, 85200, Tempo, 535714
1, 85440, Note_on_c, 0, 69, 80
1, 85667, Note_on_c, 0, 69, 0
1, 85680, Note_on_c, 0, 69, 80
1, 85907, Note_on_c, 0, 69, 0
1, 85920, Note_on_c, 0, 67, 80
1, 86147, Note_on_c, 0, 67, 0
1, 86160, Note_on_c, 0, 69, 80
1, 86387, Note_on_c, 0, 69, 0
1, 86400, Note_on_c, 0, 62, 80
1, 86400, Note_on_c, 0, 67, 80
1, 87083, Note_on_c, 0, 62, 0
1, 87083, Note_on_c, 0, 67, 0
1, 87120, Note_on_c, 0, 64, 80
1, 87360, Note_on_c, 0, 67, 80
1, 87479, Note_on_c, 0, 64, 0
1, 87587, Note_on_c, 0, 67, 0
1, 87600, Note_on_c, 0, 71, 80
1, 87827, Note_on_c, 0, 71, 0
1, 87840, Note_on_c, 0, 74, 80
1, 88295, Note_on_c, 0, 74, 0
1, 88320, Note_on_c, 0, 72, 80
1, 88547, Note_on_c, 0, 72, 0
1, 88560, Note_on_c, 0, 71, 80
1, 89015, Note_on_c, 0, 71, 0
1, 89040, Note_on_c, 0, 69, 80
1, 89267, Note_on_c, 0, 69, 0
1, 89280, Note_on_c, 0, 71, 80
1, 89507, Note_on_c, 0, 71, 0
1, 89520, Note_on_c, 0, 64, 80
1, 89747, Note_on_c, 0, 64, 0
1, 89760, Note_on_c, 0, 67, 80
1, 89987, Note_on_c, 0, 67, 0
1, 90000, Note_on_c, 0, 76, 80
1, 90227, Note_on_c, 0, 76, 0
1, 90240, Note_on_c, 0, 64, 80
1, 90467, Note_on_c, 0, 64, 0
1, 90480, Note_on_c, 0, 67, 80
1, 90707, Note_on_c, 0, 67, 0
1, 90720, Tempo, 530973
1, 90720, Note_on_c, 0, 76, 80
1, 90947, Note_on_c, 0, 76, 0
1, 90960, Note_on_c, 0, 64, 80
1, 91187, Note_on_c, 0, 64, 0
1, 91200, Note_on_c, 0, 67, 80
1, 91427, Note_on_c, 0, 67, 0
1, 91440, Note_on_c, 0, 76, 80
1, 91667, Note_on_c, 0, 76, 0
1, 91680, Note_on_c, 0, 64, 80
1, 91907, Note_on_c, 0, 64, 0
1, 91920, Note_on_c, 0, 67, 80
1, 92147, Note_on_c, 0, 67, 0
1, 92160, Tempo, 526316
1, 92160, Note_on_c, 0, 76, 80
1, 92387, Note_on_c, 0, 76, 0
1, 92400, Note_on_c, 0, 64, 80
1, 92627, Note_on_c, 0, 64, 0
1, 92640, Note_on_c, 0, 67, 80
1, 92867, Note_on_c, 0, 67, 0
1, 92880, Note_on_c, 0, 76, 80
1, 93107, Note_on_c, 0, 76, 0
1, 93120, Note_on_c, 0, 64, 80
1, 93347, Note_on_c, 0, 64, 0
1, 93360, Note_on_c, 0, 67, 80
1, 93587, Note_on_c, 0, 67, 0
1, 93600, Tempo, 521739
1, 93600, Note_on_c, 0, 76, 80
1, 93827, Note_on_c, 0, 76, 0
1, 93840, Note_on_c, 0, 64, 80
1, 94067, Note_on_c, 0, 64, 0
1, 94080, Note_on_c, 0, 67, 80
1, 94307, Note_on_c, 0, 67, 0
1, 94320, Note_on_c, 0, 76, 80
1, 94547, Note_on_c, 0, 76, 0
1, 94560, Note_on_c, 0, 64, 80
1, 94787, Note_on_c, 0, 64, 0
1, 94800, Note_on_c, 0, 67, 80
1, 95027, Note_on_c, 0, 67, 0
1, 95040, Tempo, 517241
1, 95040, Note_on_c, 0, 76, 80
1, 95267, Note_on_c, 0, 76, 0
1, 95280, Note_on_c, 0, 64, 80
1, 95507, Note_on_c, 0, 64, 0
1, 95520, Note_on_c, 0, 67, 80
1, 95747, Note_on_c, 0, 67, 0
1, 95760, Note_on_c, 0, 76, 80
1, 95987, Note_on_c, 0, 76, 0
1, 96000, Note_on_c, 0, 64, 80
1, 96227, Note_on_c, 0, 64, 0
1, 96240, Note_on_c, 0, 67, 80
1, 96467, Note_on_c, 0, 67, 0
1, 96480, Tempo, 512821
1, 96480, Note_on_c, 0, 76, 80
1, 96707, Note_on_c, 0, 76, 0
1, 96720, Note_on_c, 0, 64, 80
1, 96947, Note_on_c, 0, 64, 0
1, 96960, Note_on_c, 0, 67, 80
1, 97187, Note_on_c, 0, 67, 0
1, 97200, Note_on_c, 0, 76, 80
1, 97427, Note_on_c, 0, 76, 0
1, 97440, Note_on_c, 0, 64, 80
1, 97667, Note_on_c, 0, 64, 0
1, 97680, Note_on_c, 0, 67, 80
1, 97907, Note_on_c, 0, 67, 0
1, 97920, Tempo, 508475
1, 98160, Note_on_c, 0, 71, 80
1, 98160, Note_on_c, 0, 76, 80
1, 98387, Note_on_c, 0, 71, 0
1, 98387, Note_on_c, 0, 76, 0
1, 98400, Note_on_c, 0, 71, 80
1, 98400, Note_on_c, 0, 76, 80
1, 98627, Note_on_c, 0, 71, 0
1, 98627, Note_on_c, 0, 76, 0
1, 98880, Note_on_c, 0, 71, 80
1, 98880, Note_on_c, 0, 76, 80
1, 99107, Note_on_c, 0, 71, 0
1, 99107, Note_on_c, 0, 76, 0
1, 99120, Note_on_c, 0, 71, 80
1, 99120, Note_on_c, 0, 76, 80
1, 99347, Note_on_c, 0, 71, 0
1, 99347, Note_on_c, 0, 76, 0
1, 99600, Note_on_c, 0, 71, 80
1, 99600, Note_on_c, 0, 76, 80
1, 99827, Note_on_c, 0, 71, 0
1, 99827, Note_on_c, 0, 76, 0
1, 99840, Note_on_c, 0, 71, 80
1, 99840, Note_on_c, 0, 76, 80
1, 100067, Note_on_c, 0, 71, 0
1, 100067, Note_on_c, 0, 76, 0
1, 100080, Tempo, 600000
1, 100320, Tempo, 681818
1, 100320, Note_on_c, 0, 71, 80
1, 100320, Note_on_c, 0, 76, 80
1, 100547, Note_on_c, 0, 71, 0
1, 100547, Note_on_c, 0, 76, 0
1, 100560, Tempo, 789474
1, 100560, Note_on_c, 0, 71, 80
1, 100560, Note_on_c, 0, 76, 80
1, 100787, Note_on_c, 0, 71, 0
1, 100787, Note_on_c, 0, 76, 0
1, 100800, Tempo, 612245
1, 100800, Note_on_c, 0, 71, 80
1, 101027, Note_on_c, 0, 71, 0
1, 101040, Tempo, 566038
1, 101040, Note_on_c, 0, 64, 80
1, 101267, Note_on_c, 0, 64, 0
1, 101280, Tempo, 526316
1, 101280, Note_on_c, 0, 67, 80
1, 101507, Note_on_c, 0, 67, 0
1, 101520, Note_on_c, 0, 71, 80
1, 101747, Note_on_c, 0, 71, 0
1, 101760, Note_on_c, 0, 64, 80
1, 101987, Note_on_c, 0, 64, 0
1, 102000, Note_on_c, 0, 67, 80
1, 102227, Note_on_c, 0, 67, 0
1, 102240, Tempo, 517241
1, 102240, Note_on_c, 0, 71, 80
1, 102467, Note_on_c, 0, 71, 0
1, 102480, Note_on_c, 0, 64, 80
1, 102707, Note_on_c, 0, 64, 0
1, 102720, Note_on_c, 0, 69, 80
1, 102947, Note_on_c, 0, 69, 0
1, 102960, Note_on_c, 0, 72, 80
1, 103187, Note_on_c, 0, 72, 0
1, 103200, Note_on_c, 0, 74, 80
1, 103427, Note_on_c, 0, 74, 0
1, 103440, Note_on_c, 0, 72, 80
1, 103667, Note_on_c, 0, 72, 0
1, 103680, Tempo, 508475
1, 103680, Note_on_c, 0, 71, 80
1, 103907, Note_on_c, 0, 71, 0
1, 103920, Note_on_c, 0, 67, 80
1, 104147, Note_on_c, 0, 67, 0
1, 104160, Note_on_c, 0, 71, 80
1, 104387, Note_on_c, 0, 71, 0
1, 104400, Note_on_c, 0, 74, 80
1, 104627, Note_on_c, 0, 74, 0
1, 104640, Note_on_c, 0, 76, 80
1, 104867, Note_on_c, 0, 76, 0
1, 104880, Note_on_c, 0, 77, 80
1, 105107, Note_on_c, 0, 77, 0
1, 105120, Note_on_c, 0, 76, 80
1, 105347, Note_on_c, 0, 76, 0
1, 105360, Note_on_c, 0, 74, 80
1, 105587, Note_on_c, 0, 74, 0
1, 105600, Note_on_c, 0, 72, 80
1, 105827, Note_on_c, 0, 72, 0
1, 105840, Note_on_c, 0, 69, 80
1, 106067, Note_on_c, 0, 69, 0
1, 106080, Note_on_c, 0, 76, 80
1, 106307, Note_on_c, 0, 76, 0
1, 106320, Note_on_c, 0, 74, 80
1, 106547, Note_on_c, 0, 74, 0
1, 106560, Note_on_c, 0, 72, 80
1, 106787, Note_on_c, 0, 72, 0
1, 106800, Note_on_c, 0, 69, 80
1, 107027, Note_on_c, 0, 69, 0
1, 107040, Note_on_c, 0, 72, 80
1, 107267, Note_on_c, 0, 72, 0
1, 107280, Note_on_c, 0, 76, 80
1, 107507, Note_on_c, 0, 76, 0
1, 107520, Note_on_c, 0, 79, 80
1, 107747, Note_on_c, 0, 79, 0
1, 107760, Note_on_c, 0, 81, 80
1, 107987, Note_on_c, 0, 81, 0
1, 108000, Note_on_c, 0, 67, 80
1, 108060, Note_on_c, 0, 79, 80
1, 108683, Note_on_c, 0, 67, 0
1, 108686, Note_on_c, 0, 79, 0
1, 108720, Note_on_c, 0, 69, 80
1, 108780, Note_on_c, 0, 81, 80
1, 109403, Note_on_c, 0, 69, 0
1, 109406, Note_on_c, 0, 81, 0
1, 109440, Note_on_c, 0, 71, 80
1, 109500, Note_on_c, 0, 83, 80
1, 110123, Note_on_c, 0, 71, 0
1, 110126, Note_on_c, 0, 83, 0
1, 110400, Note_on_c, 0, 81, 80
1, 110627, Note_on_c, 0, 81, 0
1, 110640, Note_on_c, 0, 83, 80
1, 110867, Note_on_c, 0, 83, 0
1, 110880, Note_on_c, 0, 77, 80
1, 111563, Note_on_c, 0, 77, 0
1, 111600, Note_on_c, 0, 76, 80
1, 112283, Note_on_c, 0, 76, 0
1, 112560, Note_on_c, 0, 64, 80
1, 112560, Note_on_c, 0, 69, 80
1, 112787, Note_on_c, 0, 64, 0
1, 112787, Note_on_c, 0, 69, 0
1, 112800, Note_on_c, 0, 64, 80
1, 112800, Note_on_c, 0, 69, 80
1, 113027, Note_on_c, 0, 64, 0
1, 113027, Note_on_c, 0, 69, 0
1, 113280, Note_on_c, 0, 64, 80
1, 113280, Note_on_c, 0, 69, 80
1, 113507, Note_on_c, 0, 64, 0
1, 113507, Note_on_c, 0, 69, 0
1, 113520, Note_on_c, 0, 64, 80
1, 113520, Note_on_c, 0, 69, 80
1, 113747, Note_on_c, 0, 64, 0
1, 113747, Note_on_c, 0, 69, 0
1, 114000, Tempo, 500000
1, 114000, Note_on_c, 0, 62, 80
1, 114000, Note_on_c, 0, 65, 80
1, 114000, Note_on_c, 0, 71, 80
1, 114227, Note_on_c, 0, 62, 0
1, 114227, Note_on_c, 0, 65, 0
1, 114227, Note_on_c, 0, 71, 0
1, 114240, Note_on_c, 0, 62, 80
1, 114240, Note_on_c, 0, 65, 80
1, 114240, Note_on_c, 0, 71, 80
1, 114467, Note_on_c, 0, 62, 0
1, 114467, Note_on_c, 0, 65, 0
1, 114467, Note_on_c, 0, 71, 0
1, 114720, Note_on_c, 0, 62, 80
1, 114720, Note_on_c, 0, 65, 80
1, 114720, Note_on_c, 0, 71, 80
1, 114947, Note_on_c, 0, 62, 0
1, 114947, Note_on_c, 0, 65, 0
1, 114947, Note_on_c, 0, 71, 0
1, 114960, Note_on_c, 0, 62, 80
1, 114960, Note_on_c, 0, 65, 80
1, 114960, Note_on_c, 0, 71, 80
1, 115187, Note_on_c, 0, 62, 0
1, 115187, Note_on_c, 0, 65, 0
1, 115187, Note_on_c, 0, 71, 0
1, 115200, Tempo, 491803
1, 115440, Note_on_c, 0, 64, 80
1, 115440, Note_on_c, 0, 67, 80
1, 115440, Note_on_c, 0, 72, 80
1, 115667, Note_on_c, 0, 64, 0
1, 115667, Note_on_c, 0, 67, 0
1, 115667, Note_on_c, 0, 72, 0
1, 115680, Note_on_c, 0, 64, 80
1, 115680, Note_on_c, 0, 67, 80
1, 115680, Note_on_c, 0, 72, 80
1, 115907, Note_on_c, 0, 64, 0
1, 115907, Note_on_c, 0, 67, 0
1, 115907, Note_on_c, 0, 72, 0
1, 115920, Note_on_c, 0, 64, 80
1, 115920, Note_on_c, 0, 67, 80
1, 115920, Note_on_c, 0, 72, 80
1, 116147, Note_on_c, 0, 64, 0
1, 116147, Note_on_c, 0, 67, 0
1, 116147, Note_on_c, 0, 72, 0
1, 116160, Note_on_c, 0, 64, 80
1, 116160, Note_on_c, 0, 67, 80
1, 116160, Note_on_c, 0, 72, 80
1, 116387, Note_on_c, 0, 64, 0
1, 116387, Note_on_c, 0, 67, 0
1, 116387, Note_on_c, 0, 72, 0
1, 116400, Note_on_c, 0, 64, 80
1, 116400, Note_on_c, 0, 67, 80
1, 116400, Note_on_c, 0, 72, 80
1, 116627, Note_on_c, 0, 64, 0
1, 116627, Note_on_c, 0, 67, 0
1, 116627, Note_on_c, 0, 72, 0
1, 116640, Tempo, 487805
1, 116880, Note_on_c, 0, 64, 80
1, 116880, Note_on_c, 0, 67, 80
1, 116880, Note_on_c, 0, 72, 80
1, 117107, Note_on_c, 0, 64, 0
1, 117107, Note_on_c, 0, 67, 0
1, 117107, Note_on_c, 0, 72, 0
1, 117120, Note_on_c, 0, 64, 80
1, 117120, Note_on_c, 0, 67, 80
1, 117120, Note_on_c, 0, 72, 80
1, 117347, Note_on_c, 0, 64, 0
1, 117347, Note_on_c, 0, 67, 0
1, 117347, Note_on_c, 0, 72, 0
1, 117360, Note_on_c, 0, 64, 80
1, 117360, Note_on_c, 0, 67, 80
1, 117360, Note_on_c, 0, 72, 80
1, 117587, Note_on_c, 0, 64, 0
1, 117587, Note_on_c, 0, 67, 0
1, 117587, Note_on_c, 0, 72, 0
1, 117600, Note_on_c, 0, 74, 80
1, 117827, Note_on_c, 0, 74, 0
1, 117840, Note_on_c, 0, 76, 80
1, 118067, Note_on_c, 0, 76, 0
1, 118080, Tempo, 483871
1, 118320, Note_on_c, 0, 74, 80
1, 118547, Note_on_c, 0, 74, 0
1, 118560, Note_on_c, 0, 74, 80
1, 118787, Note_on_c, 0, 74, 0
1, 119040, Note_on_c, 0, 74, 80
1, 119267, Note_on_c, 0, 74, 0
1, 119280, Note_on_c, 0, 74, 80
1, 119507, Note_on_c, 0, 74, 0
1, 119520, Tempo, 480000
1, 119760, Note_on_c, 0, 74, 80
1, 119987, Note_on_c, 0, 74, 0
1, 120000, Note_on_c, 0, 74, 80
1, 120227, Note_on_c, 0, 74, 0
1, 120240, Note_on_c, 0, 74, 80
1, 120467, Note_on_c, 0, 74, 0
1, 120480, Note_on_c, 0, 74, 80
1, 120707, Note_on_c, 0, 74, 0
1, 120720, Note_on_c, 0, 74, 80
1, 120947, Note_on_c, 0, 74, 0
1, 120960, Tempo, 476190
1, 121200, Note_on_c, 0, 64, 80
1, 121427, Note_on_c, 0, 64, 0
1, 121440, Note_on_c, 0, 69, 80
1, 121667, Note_on_c, 0, 69, 0
1, 121680, Note_on_c, 0, 71, 80
1, 121907, Note_on_c, 0, 71, 0
1, 121920, Note_on_c, 0, 74, 80
1, 122147, Note_on_c, 0, 74, 0
1, 122160, Note_on_c, 0, 77, 80
1, 122387, Note_on_c, 0, 77, 0
1, 122400, Tempo, 468750
1, 122400, Note_on_c, 0, 76, 80
1, 122627, Note_on_c, 0, 76, 0
1, 122640, Note_on_c, 0, 62, 80
1, 122867, Note_on_c, 0, 62, 0
1, 122880, Note_on_c, 0, 60, 80
1, 123107, Note_on_c, 0, 60, 0
1, 123120, Tempo, 461538
1, 123120, Note_on_c, 0, 62, 80
1, 123347, Note_on_c, 0, 62, 0
1, 123360, Note_on_c, 0, 60, 80
1, 123587, Note_on_c, 0, 60, 0
1, 123600, Note_on_c, 0, 59, 80
1, 123827, Note_on_c, 0, 59, 0
1, 123840, Note_on_c, 0, 57, 80
1, 124199, Note_on_c, 0, 57, 0
1, 127440, Tempo, 731707
1, 127440, Note_on_c, 0, 64, 80
1, 127680, Note_on_c, 0, 69, 80
1, 127920, Note_on_c, 0, 72, 80
1, 128147, Note_on_c, 0, 72, 0
1, 128160, Tempo, 1071429
1, 128160, Note_on_c, 0, 76, 80
1, 128615, Note_on_c, 0, 76, 0
1, 128640, Note_on_c, 0, 76, 80
1, 128867, Note_on_c, 0, 76, 0
1, 128880, Tempo, 1111111
1, 128880, Note_on_c, 0, 74, 80
1, 129107, Note_on_c, 0, 74, 0
1, 129120, Tempo, 1200000
1, 129120, Note_on_c, 0, 72, 80
1, 129347, Note_on_c, 0, 72, 0
1, 129360, Tempo, 2000000
1, 129360, Note_on_c, 0, 71, 80
1, 129491, Note_on_c, 0, 64, 0
1, 129503, Note_on_c, 0, 69, 0
1, 129587, Note_on_c, 0, 71, 0
1, 129600, Tempo, 6000000
1, 129600, Note_on_c, 0, 69, 80
1, 129959, Note_on_c, 0, 69, 0
1, 131039, Tempo, 3000000
1, 131040, End_track
2, 0, Start_track
2, 0, Title_t, "Piano, Piano, Piano, Piano\000"
2, 0, Key_signature, 0, "major"
2, 0, MIDI_port, 0
2, 0, Note_on_c, 0, 57, 80
2, 227, Note_on_c, 0, 57, 0
2, 240, Note_on_c, 0, 60, 80
2, 467, Note_on_c, 0, 60, 0
2, 480, Note_on_c, 0, 64, 80
2, 707, Note_on_c, 0, 64, 0
2, 720, Note_on_c, 0, 57, 80
2, 947, Note_on_c, 0, 57, 0
2, 960, Note_on_c, 0, 60, 80
2, 1187, Note_on_c, 0, 60, 0
2, 1200, Note_on_c, 0, 64, 80
2, 1427, Note_on_c, 0, 64, 0
2, 1440, Note_on_c, 0, 59, 80
2, 1667, Note_on_c, 0, 59, 0
2, 1680, Note_on_c, 0, 62, 80
2, 1907, Note_on_c, 0, 62, 0
2, 1920, Note_on_c, 0, 65, 80
2, 2147, Note_on_c, 0, 65, 0
2, 2160, Note_on_c, 0, 59, 80
2, 2387, Note_on_c, 0, 59, 0
2, 2400, Note_on_c, 0, 62, 80
2, 2627, Note_on_c, 0, 62, 0
2, 2640, Note_on_c, 0, 65, 80
2, 2867, Note_on_c, 0, 65, 0
2, 2880, Note_on_c, 0, 60, 80
2, 3107, Note_on_c, 0, 60, 0
2, 3120, Note_on_c, 0, 64, 80
2, 3347, Note_on_c, 0, 64, 0
2, 3360, Note_on_c, 0, 67, 80
2, 3587, Note_on_c, 0, 67, 0
2, 3600, Note_on_c, 0, 60, 80
2, 3827, Note_on_c, 0, 60, 0
2, 3840, Note_on_c, 0, 64, 80
2, 4067, Note_on_c, 0, 64, 0
2, 4080, Note_on_c, 0, 67, 80
2, 4307, Note_on_c, 0, 67, 0
2, 4320, Note_on_c, 0, 60, 80
2, 4547, Note_on_c, 0, 60, 0
2, 4560, Note_on_c, 0, 64, 80
2, 4787, Note_on_c, 0, 64, 0
2, 4800, Note_on_c, 0, 67, 80
2, 5027, Note_on_c, 0, 67, 0
2, 5040, Note_on_c, 0, 60, 80
2, 5267, Note_on_c, 0, 60, 0
2, 5280, Note_on_c, 0, 64, 80
2, 5507, Note_on_c, 0, 64, 0
2, 5520, Note_on_c, 0, 67, 80
2, 5747, Note_on_c, 0, 67, 0
2, 5760, Note_on_c, 0, 62, 80
2, 5987, Note_on_c, 0, 62, 0
2, 6000, Note_on_c, 0, 65, 80
2, 6227, Note_on_c, 0, 65, 0
2, 6240, Note_on_c, 0, 69, 80
2, 6467, Note_on_c, 0, 69, 0
2, 6480, Note_on_c, 0, 62, 80
2, 6707, Note_on_c, 0, 62, 0
2, 6720, Note_on_c, 0, 65, 80
2, 6947, Note_on_c, 0, 65, 0
2, 6960, Note_on_c, 0, 69, 80
2, 7187, Note_on_c, 0, 69, 0
2, 7200, Note_on_c, 0, 59, 80
2, 7427, Note_on_c, 0, 59, 0
2, 7440, Note_on_c, 0, 62, 80
2, 7667, Note_on_c, 0, 62, 0
2, 7680, Note_on_c, 0, 65, 80
2, 7907, Note_on_c, 0, 65, 0
2, 7920, Note_on_c, 0, 59, 80
2, 8147, Note_on_c, 0, 59, 0
2, 8160, Note_on_c, 0, 62, 80
2, 8387, Note_on_c, 0, 62, 0
2, 8400, Note_on_c, 0, 65, 80
2, 8627, Note_on_c, 0, 65, 0
2, 8640, Note_on_c, 0, 64, 80
2, 8867, Note_on_c, 0, 64, 0
2, 8880, Note_on_c, 0, 69, 80
2, 9107, Note_on_c, 0, 69, 0
2, 9120, Note_on_c, 0, 71, 80
2, 9347, Note_on_c, 0, 71, 0
2, 9360, Note_on_c, 0, 62, 80
2, 9587, Note_on_c, 0, 62, 0
2, 9600, Note_on_c, 0, 69, 80
2, 9827, Note_on_c, 0, 69, 0
2, 9840, Note_on_c, 0, 71, 80
2, 10067, Note_on_c, 0, 71, 0
2, 10080, Note_on_c, 0, 60, 80
2, 10307, Note_on_c, 0, 60, 0
2, 10320, Note_on_c, 0, 69, 80
2, 10547, Note_on_c, 0, 69, 0
2, 10560, Note_on_c, 0, 71, 80
2, 10787, Note_on_c, 0, 71, 0
2, 10800, Note_on_c, 0, 59, 80
2, 11027, Note_on_c, 0, 59, 0
2, 11040, Note_on_c, 0, 57, 80
2, 11267, Note_on_c, 0, 57, 0
2, 11280, Note_on_c, 0, 53, 80
2, 11507, Note_on_c, 0, 53, 0
2, 11520, Note_on_c, 0, 52, 80
2, 11747, Note_on_c, 0, 52, 0
2, 11760, Note_on_c, 0, 60, 80
2, 11987, Note_on_c, 0, 60, 0
2, 12000, Note_on_c, 0, 64, 80
2, 12227, Note_on_c, 0, 64, 0
2, 12240, Note_on_c, 0, 57, 80
2, 12467, Note_on_c, 0, 57, 0
2, 12480, Note_on_c, 0, 60, 80
2, 12707, Note_on_c, 0, 60, 0
2, 12720, Note_on_c, 0, 64, 80
2, 12947, Note_on_c, 0, 64, 0
2, 12960, Note_on_c, 0, 59, 80
2, 13187, Note_on_c, 0, 59, 0
2, 13200, Note_on_c, 0, 62, 80
2, 13427, Note_on_c, 0, 62, 0
2, 13440, Note_on_c, 0, 65, 80
2, 13667, Note_on_c, 0, 65, 0
2, 13680, Note_on_c, 0, 59, 80
2, 13907, Note_on_c, 0, 59, 0
2, 13920, Note_on_c, 0, 62, 80
2, 14147, Note_on_c, 0, 62, 0
2, 14160, Note_on_c, 0, 65, 80
2, 14387, Note_on_c, 0, 65, 0
2, 14400, Note_on_c, 0, 60, 80
2, 14627, Note_on_c, 0, 60, 0
2, 14640, Note_on_c, 0, 64, 80
2, 14867, Note_on_c, 0, 64, 0
2, 14880, Note_on_c, 0, 67, 80
2, 15107, Note_on_c, 0, 67, 0
2, 15120, Note_on_c, 0, 60, 80
2, 15347, Note_on_c, 0, 60, 0
2, 15360, Note_on_c, 0, 64, 80
2, 15587, Note_on_c, 0, 64, 0
2, 15600, Note_on_c, 0, 67, 80
2, 15827, Note_on_c, 0, 67, 0
2, 15840, Note_on_c, 0, 60, 80
2, 16067, Note_on_c, 0, 60, 0
2, 16080, Note_on_c, 0, 64, 80
2, 16307, Note_on_c, 0, 64, 0
2, 16320, Note_on_c, 0, 67, 80
2, 16547, Note_on_c, 0, 67, 0
2, 16560, Note_on_c, 0, 60, 80
2, 16787, Note_on_c, 0, 60, 0
2, 16800, Note_on_c, 0, 64, 80
2, 17027, Note_on_c, 0, 64, 0
2, 17040, Note_on_c, 0, 67, 80
2, 17267, Note_on_c, 0, 67, 0
2, 17280, Note_on_c, 0, 62, 80
2, 17507, Note_on_c, 0, 62, 0
2, 17520, Note_on_c, 0, 65, 80
2, 17747, Note_on_c, 0, 65, 0
2, 17760, Note_on_c, 0, 69, 80
2, 17987, Note_on_c, 0, 69, 0
2, 18000, Note_on_c, 0, 62, 80
2, 18227, Note_on_c, 0, 62, 0
2, 18240, Note_on_c, 0, 65, 80
2, 18467, Note_on_c, 0, 65, 0
2, 18480, Note_on_c, 0, 69, 80
2, 18707, Note_on_c, 0, 69, 0
2, 18720, Note_on_c, 0, 59, 80
2, 18947, Note_on_c, 0, 59, 0
2, 18960, Note_on_c, 0, 62, 80
2, 19187, Note_on_c, 0, 62, 0
2, 19200, Note_on_c, 0, 65, 80
2, 19427, Note_on_c, 0, 65, 0
2, 19440, Note_on_c, 0, 59, 80
2, 19667, Note_on_c, 0, 59, 0
2, 19680, Note_on_c, 0, 62, 80
2, 19907, Note_on_c, 0, 62, 0
2, 19920, Note_on_c, 0, 65, 80
2, 20147, Note_on_c, 0, 65, 0
2, 20160, Note_on_c, 0, 64, 80
2, 20387, Note_on_c, 0, 64, 0
2, 20400, Note_on_c, 0, 69, 80
2, 20627, Note_on_c, 0, 69, 0
2, 20640, Note_on_c, 0, 71, 80
2, 20867, Note_on_c, 0, 71, 0
2, 20880, Note_on_c, 0, 64, 80
2, 21107, Note_on_c, 0, 64, 0
2, 21120, Note_on_c, 0, 69, 80
2, 21347, Note_on_c, 0, 69, 0
2, 21360, Note_on_c, 0, 71, 80
2, 21587, Note_on_c, 0, 71, 0
2, 21600, Note_on_c, 0, 64, 80
2, 21827, Note_on_c, 0, 64, 0
2, 21840, Note_on_c, 0, 69, 80
2, 22067, Note_on_c, 0, 69, 0
2, 22080, Note_on_c, 0, 71, 80
2, 22307, Note_on_c, 0, 71, 0
2, 22320, Note_on_c, 0, 64, 80
2, 22547, Note_on_c, 0, 64, 0
2, 22560, Note_on_c, 0, 60, 80
2, 22787, Note_on_c, 0, 60, 0
2, 22800, Note_on_c, 0, 59, 80
2, 23027, Note_on_c, 0, 59, 0
2, 23040, Note_on_c, 0, 57, 80
2, 23267, Note_on_c, 0, 57, 0
2, 23280, Note_on_c, 0, 60, 80
2, 23507, Note_on_c, 0, 60, 0
2, 23520, Note_on_c, 0, 64, 80
2, 23747, Note_on_c, 0, 64, 0
2, 23760, Note_on_c, 0, 57, 80
2, 23987, Note_on_c, 0, 57, 0
2, 24000, Note_on_c, 0, 60, 80
2, 24227, Note_on_c, 0, 60, 0
2, 24240, Note_on_c, 0, 64, 80
2, 24467, Note_on_c, 0, 64, 0
2, 24480, Note_on_c, 0, 59, 80
2, 24707, Note_on_c, 0, 59, 0
2, 24720, Note_on_c, 0, 62, 80
2, 24947, Note_on_c, 0, 62, 0
2, 24960, Note_on_c, 0, 65, 80
2, 25187, Note_on_c, 0, 65, 0
2, 25200, Note_on_c, 0, 59, 80
2, 25427, Note_on_c, 0, 59, 0
2, 25440, Note_on_c, 0, 62, 80
2, 25667, Note_on_c, 0, 62, 0
2, 25680, Note_on_c, 0, 65, 80
2, 25907, Note_on_c, 0, 65, 0
2, 25920, Note_on_c, 0, 60, 80
2, 26147, Note_on_c, 0, 60, 0
2, 26160, Note_on_c, 0, 64, 80
2, 26387, Note_on_c, 0, 64, 0
2, 26400, Note_on_c, 0, 67, 80
2, 26627, Note_on_c, 0, 67, 0
2, 26640, Note_on_c, 0, 60, 80
2, 26867, Note_on_c, 0, 60, 0
2, 26880, Note_on_c, 0, 64, 80
2, 27107, Note_on_c, 0, 64, 0
2, 27120, Note_on_c, 0, 67, 80
2, 27347, Note_on_c, 0, 67, 0
2, 27360, Note_on_c, 0, 60, 80
2, 27587, Note_on_c, 0, 60, 0
2, 27600, Note_on_c, 0, 64, 80
2, 27827, Note_on_c, 0, 64, 0
2, 27840, Note_on_c, 0, 67, 80
2, 28067, Note_on_c, 0, 67, 0
2, 28080, Note_on_c, 0, 60, 80
2, 28307, Note_on_c, 0, 60, 0
2, 28320, Note_on_c, 0, 64, 80
2, 28547, Note_on_c, 0, 64, 0
2, 28560, Note_on_c, 0, 67, 80
2, 28787, Note_on_c, 0, 67, 0
2, 28800, Note_on_c, 0, 62, 80
2, 29027, Note_on_c, 0, 62, 0
2, 29040, Note_on_c, 0, 65, 80
2, 29267, Note_on_c, 0, 65, 0
2, 29280, Note_on_c, 0, 69, 80
2, 29507, Note_on_c, 0, 69, 0
2, 29520, Note_on_c, 0, 62, 80
2, 29747, Note_on_c, 0, 62, 0
2, 29760, Note_on_c, 0, 65, 80
2, 29987, Note_on_c, 0, 65, 0
2, 30000, Note_on_c, 0, 69, 80
2, 30227, Note_on_c, 0, 69, 0
2, 30240, Note_on_c, 0, 62, 80
2, 30467, Note_on_c, 0, 62, 0
2, 30480, Note_on_c, 0, 65, 80
2, 30707, Note_on_c, 0, 65, 0
2, 30720, Note_on_c, 0, 69, 80
2, 30947, Note_on_c, 0, 69, 0
2, 30960, Note_on_c, 0, 62, 80
2, 31187, Note_on_c, 0, 62, 0
2, 31200, Note_on_c, 0, 65, 80
2, 31427, Note_on_c, 0, 65, 0
2, 31440, Note_on_c, 0, 62, 80
2, 31667, Note_on_c, 0, 62, 0
2, 31680, Note_on_c, 0, 52, 80
2, 31907, Note_on_c, 0, 52, 0
2, 31920, Note_on_c, 0, 55, 80
2, 32147, Note_on_c, 0, 55, 0
2, 32160, Note_on_c, 0, 59, 80
2, 32387, Note_on_c, 0, 59, 0
2, 32400, Note_on_c, 0, 50, 80
2, 32627, Note_on_c, 0, 50, 0
2, 32640, Note_on_c, 0, 55, 80
2, 32867, Note_on_c, 0, 55, 0
2, 32880, Note_on_c, 0, 59, 80
2, 33107, Note_on_c, 0, 59, 0
2, 33120, Note_on_c, 0, 48, 80
2, 33347, Note_on_c, 0, 48, 0
2, 33360, Note_on_c, 0, 55, 80
2, 33587, Note_on_c, 0, 55, 0
2, 33600, Note_on_c, 0, 59, 80
2, 33827, Note_on_c, 0, 59, 0
2, 33840, Note_on_c, 0, 59, 80
2, 34067, Note_on_c, 0, 59, 0
2, 34080, Note_on_c, 0, 55, 80
2, 34307, Note_on_c, 0, 55, 0
2, 34320, Note_on_c, 0, 59, 80
2, 34547, Note_on_c, 0, 59, 0
2, 34560, Note_on_c, 0, 52, 80
2, 34787, Note_on_c, 0, 52, 0
2, 34800, Note_on_c, 0, 55, 80
2, 35027, Note_on_c, 0, 55, 0
2, 35040, Note_on_c, 0, 59, 80
2, 35267, Note_on_c, 0, 59, 0
2, 35280, Note_on_c, 0, 50, 80
2, 35507, Note_on_c, 0, 50, 0
2, 35520, Note_on_c, 0, 55, 80
2, 35747, Note_on_c, 0, 55, 0
2, 35760, Note_on_c, 0, 59, 80
2, 35987, Note_on_c, 0, 59, 0
2, 36000, Note_on_c, 0, 48, 80
2, 36227, Note_on_c, 0, 48, 0
2, 36240, Note_on_c, 0, 55, 80
2, 36467, Note_on_c, 0, 55, 0
2, 36480, Note_on_c, 0, 59, 80
2, 36707, Note_on_c, 0, 59, 0
2, 36720, Note_on_c, 0, 59, 80
2, 36947, Note_on_c, 0, 59, 0
2, 36960, Note_on_c, 0, 55, 80
2, 37187, Note_on_c, 0, 55, 0
2, 37200, Note_on_c, 0, 59, 80
2, 37427, Note_on_c, 0, 59, 0
2, 37440, Note_on_c, 0, 52, 80
2, 37667, Note_on_c, 0, 52, 0
2, 37680, Note_on_c, 0, 55, 80
2, 37907, Note_on_c, 0, 55, 0
2, 37920, Note_on_c, 0, 59, 80
2, 38147, Note_on_c, 0, 59, 0
2, 38160, Note_on_c, 0, 50, 80
2, 38387, Note_on_c, 0, 50, 0
2, 38400, Note_on_c, 0, 55, 80
2, 38627, Note_on_c, 0, 55, 0
2, 38640, Note_on_c, 0, 59, 80
2, 38867, Note_on_c, 0, 59, 0
2, 38880, Note_on_c, 0, 48, 80
2, 39107, Note_on_c, 0, 48, 0
2, 39120, Note_on_c, 0, 55, 80
2, 39347, Note_on_c, 0, 55, 0
2, 39360, Note_on_c, 0, 59, 80
2, 39587, Note_on_c, 0, 59, 0
2, 39600, Note_on_c, 0, 59, 80
2, 39827, Note_on_c, 0, 59, 0
2, 39840, Note_on_c, 0, 55, 80
2, 40067, Note_on_c, 0, 55, 0
2, 40080, Note_on_c, 0, 59, 80
2, 40307, Note_on_c, 0, 59, 0
2, 40320, Note_on_c, 0, 57, 80
2, 40547, Note_on_c, 0, 57, 0
2, 40560, Note_on_c, 0, 57, 80
2, 40560, Note_on_c, 0, 60, 80
2, 40560, Note_on_c, 0, 64, 80
2, 40787, Note_on_c, 0, 57, 0
2, 40787, Note_on_c, 0, 60, 0
2, 40787, Note_on_c, 0, 64, 0
2, 40800, Note_on_c, 0, 64, 80
2, 40800, Note_on_c, 0, 57, 80
2, 40800, Note_on_c, 0, 60, 80
2, 41027, Note_on_c, 0, 57, 0
2, 41027, Note_on_c, 0, 60, 0
2, 41040, Note_on_c, 0, 57, 80
2, 41255, Note_on_c, 0, 64, 0
2, 41267, Note_on_c, 0, 57, 0
2, 41280, Note_on_c, 0, 57, 80
2, 41280, Note_on_c, 0, 60, 80
2, 41280, Note_on_c, 0, 64, 80
2, 41507, Note_on_c, 0, 57, 0
2, 41507, Note_on_c, 0, 60, 0
2, 41507, Note_on_c, 0, 64, 0
2, 41520, Note_on_c, 0, 57, 80
2, 41520, Note_on_c, 0, 60, 80
2, 41520, Note_on_c, 0, 64, 80
2, 41747, Note_on_c, 0, 57, 0
2, 41747, Note_on_c, 0, 60, 0
2, 41747, Note_on_c, 0, 64, 0
2, 41760, Note_on_c, 0, 59, 80
2, 41987, Note_on_c, 0, 59, 0
2, 42000, Note_on_c, 0, 59, 80
2, 42000, Note_on_c, 0, 62, 80
2, 42000, Note_on_c, 0, 65, 80
2, 42227, Note_on_c, 0, 59, 0
2, 42227, Note_on_c, 0, 62, 0
2, 42227, Note_on_c, 0, 65, 0
2, 42240, Note_on_c, 0, 59, 80
2, 42240, Note_on_c, 0, 62, 80
2, 42240, Note_on_c, 0, 65, 80
2, 42467, Note_on_c, 0, 59, 0
2, 42467, Note_on_c, 0, 62, 0
2, 42467, Note_on_c, 0, 65, 0
2, 42480, Note_on_c, 0, 59, 80
2, 42707, Note_on_c, 0, 59, 0
2, 42720, Note_on_c, 0, 59, 80
2, 42720, Note_on_c, 0, 62, 80
2, 42720, Note_on_c, 0, 65, 80
2, 42947, Note_on_c, 0, 59, 0
2, 42947, Note_on_c, 0, 62, 0
2, 42947, Note_on_c, 0, 65, 0
2, 42960, Note_on_c, 0, 59, 80
2, 42960, Note_on_c, 0, 62, 80
2, 42960, Note_on_c, 0, 65, 80
2, 43187, Note_on_c, 0, 59, 0
2, 43187, Note_on_c, 0, 62, 0
2, 43187, Note_on_c, 0, 65, 0
2, 43200, Note_on_c, 0, 60, 80
2, 43427, Note_on_c, 0, 60, 0
2, 43440, Note_on_c, 0, 60, 80
2, 43440, Note_on_c, 0, 64, 80
2, 43440, Note_on_c, 0, 67, 80
2, 43667, Note_on_c, 0, 60, 0
2, 43667, Note_on_c, 0, 64, 0
2, 43667, Note_on_c, 0, 67, 0
2, 43680, Note_on_c, 0, 60, 80
2, 43680, Note_on_c, 0, 64, 80
2, 43680, Note_on_c, 0, 67, 80
2, 43907, Note_on_c, 0, 60, 0
2, 43907, Note_on_c, 0, 64, 0
2, 43907, Note_on_c, 0, 67, 0
2, 43920, Note_on_c, 0, 60, 80
2, 44147, Note_on_c, 0, 60, 0
2, 44160, Note_on_c, 0, 60, 80
2, 44160, Note_on_c, 0, 64, 80
2, 44160, Note_on_c, 0, 67, 80
2, 44387, Note_on_c, 0, 60, 0
2, 44387, Note_on_c, 0, 64, 0
2, 44387, Note_on_c, 0, 67, 0
2, 44400, Note_on_c, 0, 60, 80
2, 44400, Note_on_c, 0, 64, 80
2, 44400, Note_on_c, 0, 67, 80
2, 44627, Note_on_c, 0, 60, 0
2, 44627, Note_on_c, 0, 64, 0
2, 44627, Note_on_c, 0, 67, 0
2, 44640, Note_on_c, 0, 48, 80
2, 44867, Note_on_c, 0, 48, 0
2, 44880, Note_on_c, 0, 60, 80
2, 44880, Note_on_c, 0, 64, 80
2, 44880, Note_on_c, 0, 67, 80
2, 45107, Note_on_c, 0, 60, 0
2, 45107, Note_on_c, 0, 64, 0
2, 45107, Note_on_c, 0, 67, 0
2, 45120, Note_on_c, 0, 60, 80
2, 45120, Note_on_c, 0, 64, 80
2, 45120, Note_on_c, 0, 67, 80
2, 45347, Note_on_c, 0, 60, 0
2, 45347, Note_on_c, 0, 64, 0
2, 45347, Note_on_c, 0, 67, 0
2, 45360, Note_on_c, 0, 60, 80
2, 45587, Note_on_c, 0, 60, 0
2, 45600, Note_on_c, 0, 60, 80
2, 45600, Note_on_c, 0, 64, 80
2, 45600, Note_on_c, 0, 67, 80
2, 45827, Note_on_c, 0, 60, 0
2, 45827, Note_on_c, 0, 64, 0
2, 45827, Note_on_c, 0, 67, 0
2, 45840, Note_on_c, 0, 60, 80
2, 45840, Note_on_c, 0, 64, 80
2, 45840, Note_on_c, 0, 67, 80
2, 46067, Note_on_c, 0, 60, 0
2, 46067, Note_on_c, 0, 64, 0
2, 46067, Note_on_c, 0, 67, 0
2, 46080, Note_on_c, 0, 62, 80
2, 46307, Note_on_c, 0, 62, 0
2, 46320, Note_on_c, 0, 62, 80
2, 46320, Note_on_c, 0, 65, 80
2, 46320, Note_on_c, 0, 69, 80
2, 46547, Note_on_c, 0, 62, 0
2, 46547, Note_on_c, 0, 65, 0
2, 46547, Note_on_c, 0, 69, 0
2, 46560, Note_on_c, 0, 69, 80
2, 46560, Note_on_c, 0, 62, 80
2, 46560, Note_on_c, 0, 65, 80
2, 46787, Note_on_c, 0, 62, 0
2, 46787, Note_on_c, 0, 65, 0
2, 46800, Note_on_c, 0, 62, 80
2, 47015, Note_on_c, 0, 69, 0
2, 47027, Note_on_c, 0, 62, 0
2, 47040, Note_on_c, 0, 62, 80
2, 47040, Note_on_c, 0, 65, 80
2, 47040, Note_on_c, 0, 69, 80
2, 47267, Note_on_c, 0, 62, 0
2, 47267, Note_on_c, 0, 65, 0
2, 47267, Note_on_c, 0, 69, 0
2, 47280, Note_on_c, 0, 62, 80
2, 47280, Note_on_c, 0, 65, 80
2, 47280, Note_on_c, 0, 69, 80
2, 47507, Note_on_c, 0, 62, 0
2, 47507, Note_on_c, 0, 65, 0
2, 47507, Note_on_c, 0, 69, 0
2, 47520, Note_on_c, 0, 59, 80
2, 47747, Note_on_c, 0, 59, 0
2, 47760, Note_on_c, 0, 59, 80
2, 47760, Note_on_c, 0, 62, 80
2, 47760, Note_on_c, 0, 65, 80
2, 47987, Note_on_c, 0, 59, 0
2, 47987, Note_on_c, 0, 62, 0
2, 47987, Note_on_c, 0, 65, 0
2, 48000, Note_on_c, 0, 59, 80
2, 48000, Note_on_c, 0, 62, 80
2, 48000, Note_on_c, 0, 65, 80
2, 48227, Note_on_c, 0, 59, 0
2, 48227, Note_on_c, 0, 62, 0
2, 48227, Note_on_c, 0, 65, 0
2, 48240, Note_on_c, 0, 59, 80
2, 48467, Note_on_c, 0, 59, 0
2, 48480, Note_on_c, 0, 59, 80
2, 48480, Note_on_c, 0, 62, 80
2, 48480, Note_on_c, 0, 65, 80
2, 48707, Note_on_c, 0, 59, 0
2, 48707, Note_on_c, 0, 62, 0
2, 48707, Note_on_c, 0, 65, 0
2, 48720, Note_on_c, 0, 59, 80
2, 48720, Note_on_c, 0, 62, 80
2, 48720, Note_on_c, 0, 65, 80
2, 48947, Note_on_c, 0, 59, 0
2, 48947, Note_on_c, 0, 62, 0
2, 48947, Note_on_c, 0, 65, 0
2, 48960, Note_on_c, 0, 60, 80
2, 49187, Note_on_c, 0, 60, 0
2, 49200, Note_on_c, 0, 60, 80
2, 49200, Note_on_c, 0, 64, 80
2, 49200, Note_on_c, 0, 67, 80
2, 49427, Note_on_c, 0, 60, 0
2, 49427, Note_on_c, 0, 64, 0
2, 49427, Note_on_c, 0, 67, 0
2, 49440, Note_on_c, 0, 60, 80
2, 49440, Note_on_c, 0, 64, 80
2, 49440, Note_on_c, 0, 67, 80
2, 49667, Note_on_c, 0, 60, 0
2, 49667, Note_on_c, 0, 64, 0
2, 49667, Note_on_c, 0, 67, 0
2, 49680, Note_on_c, 0, 60, 80
2, 49907, Note_on_c, 0, 60, 0
2, 49920, Note_on_c, 0, 60, 80
2, 49920, Note_on_c, 0, 64, 80
2, 49920, Note_on_c, 0, 67, 80
2, 50147, Note_on_c, 0, 60, 0
2, 50147, Note_on_c, 0, 64, 0
2, 50147, Note_on_c, 0, 67, 0
2, 50160, Note_on_c, 0, 60, 80
2, 50160, Note_on_c, 0, 64, 80
2, 50160, Note_on_c, 0, 67, 80
2, 50387, Note_on_c, 0, 60, 0
2, 50387, Note_on_c, 0, 64, 0
2, 50387, Note_on_c, 0, 67, 0
2, 50400, Note_on_c, 0, 60, 80
2, 50627, Note_on_c, 0, 60, 0
2, 50640, Note_on_c, 0, 60, 80
2, 50640, Note_on_c, 0, 64, 80
2, 50640, Note_on_c, 0, 67, 80
2, 50867, Note_on_c, 0, 60, 0
2, 50867, Note_on_c, 0, 64, 0
2, 50867, Note_on_c, 0, 67, 0
2, 50880, Note_on_c, 0, 60, 80
2, 50880, Note_on_c, 0, 64, 80
2, 50880, Note_on_c, 0, 67, 80
2, 51107, Note_on_c, 0, 60, 0
2, 51107, Note_on_c, 0, 64, 0
2, 51107, Note_on_c, 0, 67, 0
2, 51120, Note_on_c, 0, 62, 80
2, 51347, Note_on_c, 0, 62, 0
2, 51360, Note_on_c, 0, 60, 80
2, 51587, Note_on_c, 0, 60, 0
2, 51600, Note_on_c, 0, 59, 80
2, 51827, Note_on_c, 0, 59, 0
2, 51840, Note_on_c, 0, 57, 80
2, 52067, Note_on_c, 0, 57, 0
2, 52080, Note_on_c, 0, 57, 80
2, 52080, Note_on_c, 0, 60, 80
2, 52080, Note_on_c, 0, 64, 80
2, 52307, Note_on_c, 0, 57, 0
2, 52307, Note_on_c, 0, 60, 0
2, 52307, Note_on_c, 0, 64, 0
2, 52320, Note_on_c, 0, 57, 80
2, 52320, Note_on_c, 0, 60, 80
2, 52320, Note_on_c, 0, 64, 80
2, 52547, Note_on_c, 0, 57, 0
2, 52547, Note_on_c, 0, 60, 0
2, 52547, Note_on_c, 0, 64, 0
2, 52560, Note_on_c, 0, 57, 80
2, 52787, Note_on_c, 0, 57, 0
2, 52800, Note_on_c, 0, 57, 80
2, 52800, Note_on_c, 0, 60, 80
2, 52800, Note_on_c, 0, 64, 80
2, 53027, Note_on_c, 0, 57, 0
2, 53027, Note_on_c, 0, 60, 0
2, 53027, Note_on_c, 0, 64, 0
2, 53040, Note_on_c, 0, 57, 80
2, 53040, Note_on_c, 0, 60, 80
2, 53040, Note_on_c, 0, 64, 80
2, 53267, Note_on_c, 0, 57, 0
2, 53267, Note_on_c, 0, 60, 0
2, 53267, Note_on_c, 0, 64, 0
2, 53280, Note_on_c, 0, 59, 80
2, 53507, Note_on_c, 0, 59, 0
2, 53520, Note_on_c, 0, 59, 80
2, 53520, Note_on_c, 0, 62, 80
2, 53520, Note_on_c, 0, 65, 80
2, 53747, Note_on_c, 0, 59, 0
2, 53747, Note_on_c, 0, 62, 0
2, 53747, Note_on_c, 0, 65, 0
2, 53760, Note_on_c, 0, 59, 80
2, 53760, Note_on_c, 0, 62, 80
2, 53760, Note_on_c, 0, 65, 80
2, 53987, Note_on_c, 0, 59, 0
2, 53987, Note_on_c, 0, 62, 0
2, 53987, Note_on_c, 0, 65, 0
2, 54000, Note_on_c, 0, 59, 80
2, 54227, Note_on_c, 0, 59, 0
2, 54240, Note_on_c, 0, 59, 80
2, 54240, Note_on_c, 0, 62, 80
2, 54240, Note_on_c, 0, 65, 80
2, 54467, Note_on_c, 0, 59, 0
2, 54467, Note_on_c, 0, 62, 0
2, 54467, Note_on_c, 0, 65, 0
2, 54480, Note_on_c, 0, 59, 80
2, 54480, Note_on_c, 0, 62, 80
2, 54480, Note_on_c, 0, 65, 80
2, 54707, Note_on_c, 0, 59, 0
2, 54707, Note_on_c, 0, 62, 0
2, 54707, Note_on_c, 0, 65, 0
2, 54720, Note_on_c, 0, 60, 80
2, 54947, Note_on_c, 0, 60, 0
2, 54960, Note_on_c, 0, 60, 80
2, 54960, Note_on_c, 0, 64, 80
2, 54960, Note_on_c, 0, 67, 80
2, 55187, Note_on_c, 0, 60, 0
2, 55187, Note_on_c, 0, 64, 0
2, 55187, Note_on_c, 0, 67, 0
2, 55200, Note_on_c, 0, 60, 80
2, 55200, Note_on_c, 0, 64, 80
2, 55200, Note_on_c, 0, 67, 80
2, 55427, Note_on_c, 0, 60, 0
2, 55427, Note_on_c, 0, 64, 0
2, 55427, Note_on_c, 0, 67, 0
2, 55440, Note_on_c, 0, 60, 80
2, 55667, Note_on_c, 0, 60, 0
2, 55680, Note_on_c, 0, 60, 80
2, 55680, Note_on_c, 0, 64, 80
2, 55680, Note_on_c, 0, 67, 80
2, 55907, Note_on_c, 0, 60, 0
2, 55907, Note_on_c, 0, 64, 0
2, 55907, Note_on_c, 0, 67, 0
2, 55920, Note_on_c, 0, 60, 80
2, 55920, Note_on_c, 0, 64, 80
2, 55920, Note_on_c, 0, 67, 80
2, 56147, Note_on_c, 0, 60, 0
2, 56147, Note_on_c, 0, 64, 0
2, 56147, Note_on_c, 0, 67, 0
2, 56160, Note_on_c, 0, 60, 80
2, 56387, Note_on_c, 0, 60, 0
2, 56400, Note_on_c, 0, 60, 80
2, 56400, Note_on_c, 0, 64, 80
2, 56400, Note_on_c, 0, 67, 80
2, 56627, Note_on_c, 0, 60, 0
2, 56627, Note_on_c, 0, 64, 0
2, 56627, Note_on_c, 0, 67, 0
2, 56640, Note_on_c, 0, 60, 80
2, 56640, Note_on_c, 0, 64, 80
2, 56640, Note_on_c, 0, 67, 80
2, 56867, Note_on_c, 0, 60, 0
2, 56867, Note_on_c, 0, 64, 0
2, 56867, Note_on_c, 0, 67, 0
2, 56880, Note_on_c, 0, 60, 80
2, 57107, Note_on_c, 0, 60, 0
2, 57120, Note_on_c, 0, 60, 80
2, 57120, Note_on_c, 0, 64, 80
2, 57120, Note_on_c, 0, 67, 80
2, 57347, Note_on_c, 0, 60, 0
2, 57347, Note_on_c, 0, 64, 0
2, 57347, Note_on_c, 0, 67, 0
2, 57360, Note_on_c, 0, 60, 80
2, 57360, Note_on_c, 0, 64, 80
2, 57360, Note_on_c, 0, 67, 80
2, 57587, Note_on_c, 0, 60, 0
2, 57587, Note_on_c, 0, 64, 0
2, 57587, Note_on_c, 0, 67, 0
2, 57600, Note_on_c, 0, 62, 80
2, 57827, Note_on_c, 0, 62, 0
2, 57840, Note_on_c, 0, 62, 80
2, 57840, Note_on_c, 0, 65, 80
2, 57840, Note_on_c, 0, 69, 80
2, 58067, Note_on_c, 0, 62, 0
2, 58067, Note_on_c, 0, 65, 0
2, 58067, Note_on_c, 0, 69, 0
2, 58080, Note_on_c, 0, 62, 80
2, 58080, Note_on_c, 0, 65, 80
2, 58080, Note_on_c, 0, 69, 80
2, 58307, Note_on_c, 0, 62, 0
2, 58307, Note_on_c, 0, 65, 0
2, 58307, Note_on_c, 0, 69, 0
2, 58320, Note_on_c, 0, 62, 80
2, 58547, Note_on_c, 0, 62, 0
2, 58560, Note_on_c, 0, 62, 80
2, 58560, Note_on_c, 0, 65, 80
2, 58560, Note_on_c, 0, 69, 80
2, 58787, Note_on_c, 0, 62, 0
2, 58787, Note_on_c, 0, 65, 0
2, 58787, Note_on_c, 0, 69, 0
2, 58800, Note_on_c, 0, 62, 80
2, 58800, Note_on_c, 0, 65, 80
2, 58800, Note_on_c, 0, 69, 80
2, 59027, Note_on_c, 0, 62, 0
2, 59027, Note_on_c, 0, 65, 0
2, 59027, Note_on_c, 0, 69, 0
2, 59040, Note_on_c, 0, 59, 80
2, 59267, Note_on_c, 0, 59, 0
2, 59280, Note_on_c, 0, 59, 80
2, 59280, Note_on_c, 0, 62, 80
2, 59280, Note_on_c, 0, 65, 80
2, 59507, Note_on_c, 0, 59, 0
2, 59507, Note_on_c, 0, 62, 0
2, 59507, Note_on_c, 0, 65, 0
2, 59520, Note_on_c, 0, 59, 80
2, 59520, Note_on_c, 0, 62, 80
2, 59520, Note_on_c, 0, 65, 80
2, 59747, Note_on_c, 0, 59, 0
2, 59747, Note_on_c, 0, 62, 0
2, 59747, Note_on_c, 0, 65, 0
2, 59760, Note_on_c, 0, 59, 80
2, 59987, Note_on_c, 0, 59, 0
2, 60000, Note_on_c, 0, 59, 80
2, 60000, Note_on_c, 0, 62, 80
2, 60000, Note_on_c, 0, 65, 80
2, 60227, Note_on_c, 0, 59, 0
2, 60227, Note_on_c, 0, 62, 0
2, 60227, Note_on_c, 0, 65, 0
2, 60240, Note_on_c, 0, 59, 80
2, 60240, Note_on_c, 0, 62, 80
2, 60240, Note_on_c, 0, 65, 80
2, 60467, Note_on_c, 0, 59, 0
2, 60467, Note_on_c, 0, 62, 0
2, 60467, Note_on_c, 0, 65, 0
2, 60480, Note_on_c, 0, 60, 80
2, 60707, Note_on_c, 0, 60, 0
2, 60720, Note_on_c, 0, 60, 80
2, 60720, Note_on_c, 0, 64, 80
2, 60720, Note_on_c, 0, 67, 80
2, 60947, Note_on_c, 0, 60, 0
2, 60947, Note_on_c, 0, 64, 0
2, 60947, Note_on_c, 0, 67, 0
2, 60960, Note_on_c, 0, 60, 80
2, 60960, Note_on_c, 0, 64, 80
2, 60960, Note_on_c, 0, 67, 80
2, 61187, Note_on_c, 0, 60, 0
2, 61187, Note_on_c, 0, 64, 0
2, 61187, Note_on_c, 0, 67, 0
2, 61200, Note_on_c, 0, 60, 80
2, 61427, Note_on_c, 0, 60, 0
2, 61440, Note_on_c, 0, 60, 80
2, 61440, Note_on_c, 0, 64, 80
2, 61440, Note_on_c, 0, 67, 80
2, 61667, Note_on_c, 0, 60, 0
2, 61667, Note_on_c, 0, 64, 0
2, 61667, Note_on_c, 0, 67, 0
2, 61680, Note_on_c, 0, 60, 80
2, 61680, Note_on_c, 0, 64, 80
2, 61680, Note_on_c, 0, 67, 80
2, 61907, Note_on_c, 0, 60, 0
2, 61907, Note_on_c, 0, 64, 0
2, 61907, Note_on_c, 0, 67, 0
2, 61920, Note_on_c, 0, 57, 80
2, 62147, Note_on_c, 0, 57, 0
2, 62160, Note_on_c, 0, 57, 80
2, 62160, Note_on_c, 0, 60, 80
2, 62160, Note_on_c, 0, 64, 80
2, 62387, Note_on_c, 0, 57, 0
2, 62387, Note_on_c, 0, 60, 0
2, 62387, Note_on_c, 0, 64, 0
2, 62400, Note_on_c, 0, 57, 80
2, 62400, Note_on_c, 0, 60, 80
2, 62400, Note_on_c, 0, 64, 80
2, 62627, Note_on_c, 0, 57, 0
2, 62627, Note_on_c, 0, 60, 0
2, 62627, Note_on_c, 0, 64, 0
2, 62640, Note_on_c, 0, 57, 80
2, 62867, Note_on_c, 0, 57, 0
2, 62880, Note_on_c, 0, 57, 80
2, 62880, Note_on_c, 0, 60, 80
2, 62880, Note_on_c, 0, 64, 80
2, 63107, Note_on_c, 0, 57, 0
2, 63107, Note_on_c, 0, 60, 0
2, 63107, Note_on_c, 0, 64, 0
2, 63120, Note_on_c, 0, 57, 80
2, 63120, Note_on_c, 0, 60, 80
2, 63120, Note_on_c, 0, 64, 80
2, 63347, Note_on_c, 0, 57, 0
2, 63347, Note_on_c, 0, 60, 0
2, 63347, Note_on_c, 0, 64, 0
2, 63360, Note_on_c, 0, 57, 80
2, 63587, Note_on_c, 0, 57, 0
2, 63600, Note_on_c, 0, 57, 80
2, 63600, Note_on_c, 0, 60, 80
2, 63600, Note_on_c, 0, 64, 80
2, 63827, Note_on_c, 0, 57, 0
2, 63827, Note_on_c, 0, 60, 0
2, 63827, Note_on_c, 0, 64, 0
2, 63840, Note_on_c, 0, 57, 80
2, 63840, Note_on_c, 0, 60, 80
2, 63840, Note_on_c, 0, 64, 80
2, 64067, Note_on_c, 0, 57, 0
2, 64067, Note_on_c, 0, 60, 0
2, 64067, Note_on_c, 0, 64, 0
2, 64080, Note_on_c, 0, 57, 80
2, 64307, Note_on_c, 0, 57, 0
2, 64320, Note_on_c, 0, 57, 80
2, 64320, Note_on_c, 0, 60, 80
2, 64320, Note_on_c, 0, 64, 80
2, 64547, Note_on_c, 0, 57, 0
2, 64547, Note_on_c, 0, 60, 0
2, 64547, Note_on_c, 0, 64, 0
2, 64560, Note_on_c, 0, 57, 80
2, 64560, Note_on_c, 0, 60, 80
2, 64560, Note_on_c, 0, 64, 80
2, 64787, Note_on_c, 0, 57, 0
2, 64787, Note_on_c, 0, 60, 0
2, 64787, Note_on_c, 0, 64, 0
2, 64800, Note_on_c, 0, 57, 80
2, 65027, Note_on_c, 0, 57, 0
2, 65040, Note_on_c, 0, 57, 80
2, 65040, Note_on_c, 0, 60, 80
2, 65040, Note_on_c, 0, 64, 80
2, 65267, Note_on_c, 0, 57, 0
2, 65267, Note_on_c, 0, 60, 0
2, 65267, Note_on_c, 0, 64, 0
2, 65280, Note_on_c, 0, 57, 80
2, 65280, Note_on_c, 0, 60, 80
2, 65280, Note_on_c, 0, 64, 80
2, 65507, Note_on_c, 0, 57, 0
2, 65507, Note_on_c, 0, 60, 0
2, 65507, Note_on_c, 0, 64, 0
2, 65520, Note_on_c, 0, 57, 80
2, 65747, Note_on_c, 0, 57, 0
2, 65760, Note_on_c, 0, 57, 80
2, 65760, Note_on_c, 0, 60, 80
2, 65760, Note_on_c, 0, 64, 80
2, 65987, Note_on_c, 0, 57, 0
2, 65987, Note_on_c, 0, 60, 0
2, 65987, Note_on_c, 0, 64, 0
2, 66000, Note_on_c, 0, 57, 80
2, 66000, Note_on_c, 0, 60, 80
2, 66000, Note_on_c, 0, 64, 80
2, 66227, Note_on_c, 0, 57, 0
2, 66227, Note_on_c, 0, 60, 0
2, 66227, Note_on_c, 0, 64, 0
2, 66240, Note_on_c, 0, 57, 80
2, 66467, Note_on_c, 0, 57, 0
2, 66480, Note_on_c, 0, 57, 80
2, 66480, Note_on_c, 0, 60, 80
2, 66480, Note_on_c, 0, 64, 80
2, 66707, Note_on_c, 0, 57, 0
2, 66707, Note_on_c, 0, 60, 0
2, 66707, Note_on_c, 0, 64, 0
2, 66720, Note_on_c, 0, 57, 80
2, 66720, Note_on_c, 0, 60, 80
2, 66720, Note_on_c, 0, 64, 80
2, 66947, Note_on_c, 0, 57, 0
2, 66947, Note_on_c, 0, 60, 0
2, 66947, Note_on_c, 0, 64, 0
2, 66960, Note_on_c, 0, 57, 80
2, 67187, Note_on_c, 0, 57, 0
2, 67200, Note_on_c, 0, 57, 80
2, 67200, Note_on_c, 0, 60, 80
2, 67200, Note_on_c, 0, 64, 80
2, 67427, Note_on_c, 0, 57, 0
2, 67427, Note_on_c, 0, 60, 0
2, 67427, Note_on_c, 0, 64, 0
2, 67440, Note_on_c, 0, 57, 80
2, 67440, Note_on_c, 0, 60, 80
2, 67440, Note_on_c, 0, 64, 80
2, 67667, Note_on_c, 0, 57, 0
2, 67667, Note_on_c, 0, 60, 0
2, 67667, Note_on_c, 0, 64, 0
2, 67680, Note_on_c, 0, 57, 80
2, 67907, Note_on_c, 0, 57, 0
2, 67920, Note_on_c, 0, 57, 80
2, 67920, Note_on_c, 0, 60, 80
2, 67920, Note_on_c, 0, 64, 80
2, 68147, Note_on_c, 0, 57, 0
2, 68147, Note_on_c, 0, 60, 0
2, 68147, Note_on_c, 0, 64, 0
2, 68160, Note_on_c, 0, 57, 80
2, 68160, Note_on_c, 0, 60, 80
2, 68160, Note_on_c, 0, 64, 80
2, 68387, Note_on_c, 0, 57, 0
2, 68387, Note_on_c, 0, 60, 0
2, 68387, Note_on_c, 0, 64, 0
2, 68400, Note_on_c, 0, 57, 80
2, 68627, Note_on_c, 0, 57, 0
2, 68640, Note_on_c, 0, 57, 80
2, 68640, Note_on_c, 0, 60, 80
2, 68640, Note_on_c, 0, 64, 80
2, 68867, Note_on_c, 0, 57, 0
2, 68867, Note_on_c, 0, 60, 0
2, 68867, Note_on_c, 0, 64, 0
2, 68880, Note_on_c, 0, 57, 80
2, 68880, Note_on_c, 0, 60, 80
2, 68880, Note_on_c, 0, 64, 80
2, 69107, Note_on_c, 0, 57, 0
2, 69107, Note_on_c, 0, 60, 0
2, 69107, Note_on_c, 0, 64, 0
2, 69120, Note_on_c, 0, 59, 80
2, 69347, Note_on_c, 0, 59, 0
2, 69360, Note_on_c, 0, 59, 80
2, 69360, Note_on_c, 0, 62, 80
2, 69360, Note_on_c, 0, 65, 80
2, 69587, Note_on_c, 0, 59, 0
2, 69587, Note_on_c, 0, 62, 0
2, 69587, Note_on_c, 0, 65, 0
2, 69600, Note_on_c, 0, 59, 80
2, 69600, Note_on_c, 0, 62, 80
2, 69600, Note_on_c, 0, 65, 80
2, 69827, Note_on_c, 0, 59, 0
2, 69827, Note_on_c, 0, 62, 0
2, 69827, Note_on_c, 0, 65, 0
2, 69840, Note_on_c, 0, 59, 80
2, 70067, Note_on_c, 0, 59, 0
2, 70080, Note_on_c, 0, 59, 80
2, 70080, Note_on_c, 0, 62, 80
2, 70080, Note_on_c, 0, 65, 80
2, 70307, Note_on_c, 0, 59, 0
2, 70307, Note_on_c, 0, 62, 0
2, 70307, Note_on_c, 0, 65, 0
2, 70320, Note_on_c, 0, 59, 80
2, 70320, Note_on_c, 0, 62, 80
2, 70320, Note_on_c, 0, 65, 80
2, 70547, Note_on_c, 0, 59, 0
2, 70547, Note_on_c, 0, 62, 0
2, 70547, Note_on_c, 0, 65, 0
2, 70560, Note_on_c, 0, 60, 80
2, 70787, Note_on_c, 0, 60, 0
2, 70800, Note_on_c, 0, 60, 80
2, 70800, Note_on_c, 0, 64, 80
2, 70800, Note_on_c, 0, 67, 80
2, 71027, Note_on_c, 0, 60, 0
2, 71027, Note_on_c, 0, 64, 0
2, 71027, Note_on_c, 0, 67, 0
2, 71040, Note_on_c, 0, 60, 80
2, 71040, Note_on_c, 0, 64, 80
2, 71040, Note_on_c, 0, 67, 80
2, 71267, Note_on_c, 0, 60, 0
2, 71267, Note_on_c, 0, 64, 0
2, 71267, Note_on_c, 0, 67, 0
2, 71280, Note_on_c, 0, 60, 80
2, 71507, Note_on_c, 0, 60, 0
2, 71520, Note_on_c, 0, 60, 80
2, 71520, Note_on_c, 0, 64, 80
2, 71520, Note_on_c, 0, 67, 80
2, 71747, Note_on_c, 0, 60, 0
2, 71747, Note_on_c, 0, 64, 0
2, 71747, Note_on_c, 0, 67, 0
2, 71760, Note_on_c, 0, 60, 80
2, 71760, Note_on_c, 0, 64, 80
2, 71760, Note_on_c, 0, 67, 80
2, 71987, Note_on_c, 0, 60, 0
2, 71987, Note_on_c, 0, 64, 0
2, 71987, Note_on_c, 0, 67, 0
2, 72000, Note_on_c, 0, 60, 80
2, 72227, Note_on_c, 0, 60, 0
2, 72240, Note_on_c, 0, 60, 80
2, 72240, Note_on_c, 0, 64, 80
2, 72240, Note_on_c, 0, 67, 80
2, 72467, Note_on_c, 0, 60, 0
2, 72467, Note_on_c, 0, 64, 0
2, 72467, Note_on_c, 0, 67, 0
2, 72480, Note_on_c, 0, 60, 80
2, 72480, Note_on_c, 0, 64, 80
2, 72480, Note_on_c, 0, 67, 80
2, 72707, Note_on_c, 0, 60, 0
2, 72707, Note_on_c, 0, 64, 0
2, 72707, Note_on_c, 0, 67, 0
2, 72720, Note_on_c, 0, 60, 80
2, 72947, Note_on_c, 0, 60, 0
2, 72960, Note_on_c, 0, 60, 80
2, 72960, Note_on_c, 0, 64, 80
2, 72960, Note_on_c, 0, 67, 80
2, 73187, Note_on_c, 0, 60, 0
2, 73187, Note_on_c, 0, 64, 0
2, 73187, Note_on_c, 0, 67, 0
2, 73200, Note_on_c, 0, 60, 80
2, 73200, Note_on_c, 0, 64, 80
2, 73200, Note_on_c, 0, 67, 80
2, 73427, Note_on_c, 0, 60, 0
2, 73427, Note_on_c, 0, 64, 0
2, 73427, Note_on_c, 0, 67, 0
2, 73440, Note_on_c, 0, 62, 80
2, 73667, Note_on_c, 0, 62, 0
2, 73680, Note_on_c, 0, 62, 80
2, 73680, Note_on_c, 0, 65, 80
2, 73680, Note_on_c, 0, 69, 80
2, 73907, Note_on_c, 0, 62, 0
2, 73907, Note_on_c, 0, 65, 0
2, 73907, Note_on_c, 0, 69, 0
2, 73920, Note_on_c, 0, 62, 80
2, 73920, Note_on_c, 0, 65, 80
2, 73920, Note_on_c, 0, 69, 80
2, 74147, Note_on_c, 0, 62, 0
2, 74147, Note_on_c, 0, 65, 0
2, 74147, Note_on_c, 0, 69, 0
2, 74160, Note_on_c, 0, 62, 80
2, 74387, Note_on_c, 0, 62, 0
2, 74400, Note_on_c, 0, 62, 80
2, 74400, Note_on_c, 0, 65, 80
2, 74400, Note_on_c, 0, 69, 80
2, 74627, Note_on_c, 0, 62, 0
2, 74627, Note_on_c, 0, 65, 0
2, 74627, Note_on_c, 0, 69, 0
2, 74640, Note_on_c, 0, 62, 80
2, 74640, Note_on_c, 0, 65, 80
2, 74640, Note_on_c, 0, 69, 80
2, 74867, Note_on_c, 0, 62, 0
2, 74867, Note_on_c, 0, 65, 0
2, 74867, Note_on_c, 0, 69, 0
2, 74880, Note_on_c, 0, 60, 80
2, 75107, Note_on_c, 0, 60, 0
2, 75120, Note_on_c, 0, 60, 80
2, 75120, Note_on_c, 0, 64, 80
2, 75120, Note_on_c, 0, 67, 80
2, 75347, Note_on_c, 0, 60, 0
2, 75347, Note_on_c, 0, 64, 0
2, 75347, Note_on_c, 0, 67, 0
2, 75360, Note_on_c, 0, 60, 80
2, 75360, Note_on_c, 0, 64, 80
2, 75360, Note_on_c, 0, 67, 80
2, 75587, Note_on_c, 0, 60, 0
2, 75587, Note_on_c, 0, 64, 0
2, 75587, Note_on_c, 0, 67, 0
2, 75600, Note_on_c, 0, 60, 80
2, 75827, Note_on_c, 0, 60, 0
2, 75840, Note_on_c, 0, 60, 80
2, 75840, Note_on_c, 0, 64, 80
2, 75840, Note_on_c, 0, 67, 80
2, 76067, Note_on_c, 0, 60, 0
2, 76067, Note_on_c, 0, 64, 0
2, 76067, Note_on_c, 0, 67, 0
2, 76080, Note_on_c, 0, 60, 80
2, 76080, Note_on_c, 0, 64, 80
2, 76080, Note_on_c, 0, 67, 80
2, 76307, Note_on_c, 0, 60, 0
2, 76307, Note_on_c, 0, 64, 0
2, 76307, Note_on_c, 0, 67, 0
2, 76320, Note_on_c, 0, 59, 80
2, 76547, Note_on_c, 0, 59, 0
2, 76560, Note_on_c, 0, 59, 80
2, 76560, Note_on_c, 0, 62, 80
2, 76560, Note_on_c, 0, 65, 80
2, 76787, Note_on_c, 0, 59, 0
2, 76787, Note_on_c, 0, 62, 0
2, 76787, Note_on_c, 0, 65, 0
2, 76800, Note_on_c, 0, 59, 80
2, 76800, Note_on_c, 0, 62, 80
2, 76800, Note_on_c, 0, 65, 80
2, 77027, Note_on_c, 0, 59, 0
2, 77027, Note_on_c, 0, 62, 0
2, 77027, Note_on_c, 0, 65, 0
2, 77040, Note_on_c, 0, 59, 80
2, 77267, Note_on_c, 0, 59, 0
2, 77280, Note_on_c, 0, 59, 80
2, 77280, Note_on_c, 0, 62, 80
2, 77280, Note_on_c, 0, 65, 80
2, 77507, Note_on_c, 0, 59, 0
2, 77507, Note_on_c, 0, 62, 0
2, 77507, Note_on_c, 0, 65, 0
2, 77520, Note_on_c, 0, 59, 80
2, 77520, Note_on_c, 0, 62, 80
2, 77520, Note_on_c, 0, 65, 80
2, 77747, Note_on_c, 0, 59, 0
2, 77747, Note_on_c, 0, 62, 0
2, 77747, Note_on_c, 0, 65, 0
2, 77760, Note_on_c, 0, 64, 80
2, 77987, Note_on_c, 0, 64, 0
2, 78000, Note_on_c, 0, 57, 80
2, 78227, Note_on_c, 0, 57, 0
2, 78240, Note_on_c, 0, 59, 80
2, 78467, Note_on_c, 0, 59, 0
2, 78480, Note_on_c, 0, 60, 80
2, 78707, Note_on_c, 0, 60, 0
2, 78720, Note_on_c, 0, 62, 80
2, 78947, Note_on_c, 0, 62, 0
2, 78960, Note_on_c, 0, 64, 80
2, 79187, Note_on_c, 0, 64, 0
2, 79200, Note_on_c, 0, 52, 80
2, 79427, Note_on_c, 0, 52, 0
2, 79440, Note_on_c, 0, 52, 80
2, 79440, Note_on_c, 0, 59, 80
2, 79667, Note_on_c, 0, 52, 0
2, 79667, Note_on_c, 0, 59, 0
2, 79680, Note_on_c, 0, 52, 80
2, 79680, Note_on_c, 0, 59, 80
2, 79907, Note_on_c, 0, 52, 0
2, 79907, Note_on_c, 0, 59, 0
2, 79920, Note_on_c, 0, 52, 80
2, 80147, Note_on_c, 0, 52, 0
2, 80160, Note_on_c, 0, 52, 80
2, 80160, Note_on_c, 0, 59, 80
2, 80387, Note_on_c, 0, 52, 0
2, 80387, Note_on_c, 0, 59, 0
2, 80400, Note_on_c, 0, 52, 80
2, 80400, Note_on_c, 0, 59, 80
2, 80627, Note_on_c, 0, 52, 0
2, 80627, Note_on_c, 0, 59, 0
2, 80640, Note_on_c, 0, 57, 80
2, 80867, Note_on_c, 0, 57, 0
2, 80880, Note_on_c, 0, 57, 80
2, 80880, Note_on_c, 0, 60, 80
2, 80880, Note_on_c, 0, 64, 80
2, 81107, Note_on_c, 0, 57, 0
2, 81107, Note_on_c, 0, 60, 0
2, 81107, Note_on_c, 0, 64, 0
2, 81120, Note_on_c, 0, 57, 80
2, 81120, Note_on_c, 0, 60, 80
2, 81120, Note_on_c, 0, 64, 80
2, 81347, Note_on_c, 0, 57, 0
2, 81347, Note_on_c, 0, 60, 0
2, 81347, Note_on_c, 0, 64, 0
2, 81360, Note_on_c, 0, 57, 80
2, 81587, Note_on_c, 0, 57, 0
2, 81600, Note_on_c, 0, 57, 80
2, 81600, Note_on_c, 0, 60, 80
2, 81600, Note_on_c, 0, 64, 80
2, 81827, Note_on_c, 0, 57, 0
2, 81827, Note_on_c, 0, 60, 0
2, 81827, Note_on_c, 0, 64, 0
2, 81840, Note_on_c, 0, 57, 80
2, 81840, Note_on_c, 0, 60, 80
2, 81840, Note_on_c, 0, 64, 80
2, 82067, Note_on_c, 0, 57, 0
2, 82067, Note_on_c, 0, 60, 0
2, 82067, Note_on_c, 0, 64, 0
2, 82080, Note_on_c, 0, 50, 80
2, 82307, Note_on_c, 0, 50, 0
2, 82320, Note_on_c, 0, 50, 80
2, 82320, Note_on_c, 0, 57, 80
2, 82547, Note_on_c, 0, 50, 0
2, 82547, Note_on_c, 0, 57, 0
2, 82560, Note_on_c, 0, 50, 80
2, 82560, Note_on_c, 0, 57, 80
2, 82787, Note_on_c, 0, 50, 0
2, 82787, Note_on_c, 0, 57, 0
2, 82800, Note_on_c, 0, 50, 80
2, 83027, Note_on_c, 0, 50, 0
2, 83040, Note_on_c, 0, 50, 80
2, 83040, Note_on_c, 0, 57, 80
2, 83267, Note_on_c, 0, 50, 0
2, 83267, Note_on_c, 0, 57, 0
2, 83280, Note_on_c, 0, 50, 80
2, 83280, Note_on_c, 0, 57, 80
2, 83507, Note_on_c, 0, 50, 0
2, 83507, Note_on_c, 0, 57, 0
2, 83520, Note_on_c, 0, 55, 80
2, 83747, Note_on_c, 0, 55, 0
2, 83760, Note_on_c, 0, 55, 80
2, 83760, Note_on_c, 0, 59, 80
2, 83760, Note_on_c, 0, 62, 80
2, 83987, Note_on_c, 0, 55, 0
2, 83987, Note_on_c, 0, 59, 0
2, 83987, Note_on_c, 0, 62, 0
2, 84000, Note_on_c, 0, 55, 80
2, 84000, Note_on_c, 0, 59, 80
2, 84227, Note_on_c, 0, 55, 0
2, 84227, Note_on_c, 0, 59, 0
2, 84240, Note_on_c, 0, 55, 80
2, 84467, Note_on_c, 0, 55, 0
2, 84480, Note_on_c, 0, 55, 80
2, 84480, Note_on_c, 0, 59, 80
2, 84480, Note_on_c, 0, 62, 80
2, 84707, Note_on_c, 0, 55, 0
2, 84707, Note_on_c, 0, 59, 0
2, 84707, Note_on_c, 0, 62, 0
2, 84720, Note_on_c, 0, 55, 80
2, 84720, Note_on_c, 0, 59, 80
2, 84720, Note_on_c, 0, 62, 80
2, 84947, Note_on_c, 0, 55, 0
2, 84947, Note_on_c, 0, 59, 0
2, 84947, Note_on_c, 0, 62, 0
2, 84960, Note_on_c, 0, 50, 80
2, 85187, Note_on_c, 0, 50, 0
2, 85200, Note_on_c, 0, 57, 80
2, 85200, Note_on_c, 0, 62, 80
2, 85427, Note_on_c, 0, 57, 0
2, 85427, Note_on_c, 0, 62, 0
2, 85440, Note_on_c, 0, 57, 80
2, 85440, Note_on_c, 0, 62, 80
2, 85667, Note_on_c, 0, 57, 0
2, 85667, Note_on_c, 0, 62, 0
2, 85680, Note_on_c, 0, 50, 80
2, 85907, Note_on_c, 0, 50, 0
2, 85920, Note_on_c, 0, 57, 80
2, 85920, Note_on_c, 0, 62, 80
2, 86147, Note_on_c, 0, 57, 0
2, 86147, Note_on_c, 0, 62, 0
2, 86160, Note_on_c, 0, 57, 80
2, 86160, Note_on_c, 0, 62, 80
2, 86387, Note_on_c, 0, 57, 0
2, 86387, Note_on_c, 0, 62, 0
2, 86400, Note_on_c, 0, 55, 80
2, 86627, Note_on_c, 0, 55, 0
2, 86640, Note_on_c, 0, 55, 80
2, 86640, Note_on_c, 0, 59, 80
2, 86867, Note_on_c, 0, 55, 0
2, 86867, Note_on_c, 0, 59, 0
2, 86880, Note_on_c, 0, 55, 80
2, 86880, Note_on_c, 0, 59, 80
2, 87107, Note_on_c, 0, 55, 0
2, 87107, Note_on_c, 0, 59, 0
2, 87360, Note_on_c, 0, 55, 80
2, 87360, Note_on_c, 0, 59, 80
2, 87587, Note_on_c, 0, 55, 0
2, 87587, Note_on_c, 0, 59, 0
2, 87600, Note_on_c, 0, 55, 80
2, 87600, Note_on_c, 0, 59, 80
2, 87600, Note_on_c, 0, 64, 80
2, 87827, Note_on_c, 0, 55, 0
2, 87827, Note_on_c, 0, 59, 0
2, 87827, Note_on_c, 0, 64, 0
2, 87840, Note_on_c, 0, 62, 80
2, 88067, Note_on_c, 0, 62, 0
2, 88080, Note_on_c, 0, 50, 80
2, 88080, Note_on_c, 0, 53, 80
2, 88080, Note_on_c, 0, 57, 80
2, 88307, Note_on_c, 0, 50, 0
2, 88307, Note_on_c, 0, 53, 0
2, 88307, Note_on_c, 0, 57, 0
2, 88320, Note_on_c, 0, 53, 80
2, 88320, Note_on_c, 0, 57, 80
2, 88320, Note_on_c, 0, 60, 80
2, 88547, Note_on_c, 0, 53, 0
2, 88547, Note_on_c, 0, 57, 0
2, 88547, Note_on_c, 0, 60, 0
2, 88560, Note_on_c, 0, 50, 80
2, 88560, Note_on_c, 0, 59, 80
2, 88787, Note_on_c, 0, 50, 0
2, 88787, Note_on_c, 0, 59, 0
2, 88800, Note_on_c, 0, 50, 80
2, 88800, Note_on_c, 0, 53, 80
2, 88800, Note_on_c, 0, 57, 80
2, 89027, Note_on_c, 0, 50, 0
2, 89027, Note_on_c, 0, 53, 0
2, 89027, Note_on_c, 0, 57, 0
2, 89040, Note_on_c, 0, 50, 80
2, 89040, Note_on_c, 0, 53, 80
2, 89040, Note_on_c, 0, 57, 80
2, 89267, Note_on_c, 0, 50, 0
2, 89267, Note_on_c, 0, 53, 0
2, 89267, Note_on_c, 0, 57, 0
2, 89280, Note_on_c, 0, 52, 80
2, 89507, Note_on_c, 0, 52, 0
2, 89520, Note_on_c, 0, 52, 80
2, 89520, Note_on_c, 0, 55, 80
2, 89520, Note_on_c, 0, 59, 80
2, 89747, Note_on_c, 0, 52, 0
2, 89747, Note_on_c, 0, 55, 0
2, 89747, Note_on_c, 0, 59, 0
2, 89760, Note_on_c, 0, 52, 80
2, 89760, Note_on_c, 0, 55, 80
2, 89760, Note_on_c, 0, 59, 80
2, 89987, Note_on_c, 0, 52, 0
2, 89987, Note_on_c, 0, 55, 0
2, 89987, Note_on_c, 0, 59, 0
2, 90000, Note_on_c, 0, 50, 80
2, 90227, Note_on_c, 0, 50, 0
2, 90240, Note_on_c, 0, 50, 80
2, 90240, Note_on_c, 0, 55, 80
2, 90240, Note_on_c, 0, 59, 80
2, 90467, Note_on_c, 0, 50, 0
2, 90467, Note_on_c, 0, 55, 0
2, 90467, Note_on_c, 0, 59, 0
2, 90480, Note_on_c, 0, 50, 80
2, 90480, Note_on_c, 0, 55, 80
2, 90480, Note_on_c, 0, 59, 80
2, 90707, Note_on_c, 0, 50, 0
2, 90707, Note_on_c, 0, 55, 0
2, 90707, Note_on_c, 0, 59, 0
2, 90720, Note_on_c, 0, 48, 80
2, 90947, Note_on_c, 0, 48, 0
2, 90960, Note_on_c, 0, 48, 80
2, 90960, Note_on_c, 0, 55, 80
2, 90960, Note_on_c, 0, 59, 80
2, 91187, Note_on_c, 0, 48, 0
2, 91187, Note_on_c, 0, 55, 0
2, 91187, Note_on_c, 0, 59, 0
2, 91200, Note_on_c, 0, 48, 80
2, 91200, Note_on_c, 0, 55, 80
2, 91200, Note_on_c, 0, 59, 80
2, 91427, Note_on_c, 0, 48, 0
2, 91427, Note_on_c, 0, 55, 0
2, 91427, Note_on_c, 0, 59, 0
2, 91440, Note_on_c, 0, 59, 80
2, 91667, Note_on_c, 0, 59, 0
2, 91680, Note_on_c, 0, 52, 80
2, 91680, Note_on_c, 0, 55, 80
2, 91680, Note_on_c, 0, 59, 80
2, 91907, Note_on_c, 0, 52, 0
2, 91907, Note_on_c, 0, 55, 0
2, 91907, Note_on_c, 0, 59, 0
2, 91920, Note_on_c, 0, 52, 80
2, 91920, Note_on_c, 0, 55, 80
2, 91920, Note_on_c, 0, 59, 80
2, 92147, Note_on_c, 0, 52, 0
2, 92147, Note_on_c, 0, 55, 0
2, 92147, Note_on_c, 0, 59, 0
2, 92160, Note_on_c, 0, 52, 80
2, 92387, Note_on_c, 0, 52, 0
2, 92400, Note_on_c, 0, 52, 80
2, 92400, Note_on_c, 0, 55, 80
2, 92400, Note_on_c, 0, 59, 80
2, 92627, Note_on_c, 0, 52, 0
2, 92627, Note_on_c, 0, 55, 0
2, 92627, Note_on_c, 0, 59, 0
2, 92640, Note_on_c, 0, 52, 80
2, 92640, Note_on_c, 0, 55, 80
2, 92640, Note_on_c, 0, 59, 80
2, 92867, Note_on_c, 0, 52, 0
2, 92867, Note_on_c, 0, 55, 0
2, 92867, Note_on_c, 0, 59, 0
2, 92880, Note_on_c, 0, 50, 80
2, 93107, Note_on_c, 0, 50, 0
2, 93120, Note_on_c, 0, 50, 80
2, 93120, Note_on_c, 0, 55, 80
2, 93120, Note_on_c, 0, 59, 80
2, 93347, Note_on_c, 0, 50, 0
2, 93347, Note_on_c, 0, 55, 0
2, 93347, Note_on_c, 0, 59, 0
2, 93360, Note_on_c, 0, 50, 80
2, 93360, Note_on_c, 0, 55, 80
2, 93360, Note_on_c, 0, 59, 80
2, 93587, Note_on_c, 0, 50, 0
2, 93587, Note_on_c, 0, 55, 0
2, 93587, Note_on_c, 0, 59, 0
2, 93600, Note_on_c, 0, 48, 80
2, 93827, Note_on_c, 0, 48, 0
2, 93840, Note_on_c, 0, 48, 80
2, 93840, Note_on_c, 0, 55, 80
2, 93840, Note_on_c, 0, 59, 80
2, 94067, Note_on_c, 0, 48, 0
2, 94067, Note_on_c, 0, 55, 0
2, 94067, Note_on_c, 0, 59, 0
2, 94080, Note_on_c, 0, 48, 80
2, 94080, Note_on_c, 0, 55, 80
2, 94080, Note_on_c, 0, 59, 80
2, 94307, Note_on_c, 0, 48, 0
2, 94307, Note_on_c, 0, 55, 0
2, 94307, Note_on_c, 0, 59, 0
2, 94320, Note_on_c, 0, 59, 80
2, 94547, Note_on_c, 0, 59, 0
2, 94560, Note_on_c, 0, 52, 80
2, 94560, Note_on_c, 0, 55, 80
2, 94560, Note_on_c, 0, 59, 80
2, 94787, Note_on_c, 0, 52, 0
2, 94787, Note_on_c, 0, 55, 0
2, 94787, Note_on_c, 0, 59, 0
2, 94800, Note_on_c, 0, 52, 80
2, 94800, Note_on_c, 0, 55, 80
2, 94800, Note_on_c, 0, 59, 80
2, 95027, Note_on_c, 0, 52, 0
2, 95027, Note_on_c, 0, 55, 0
2, 95027, Note_on_c, 0, 59, 0
2, 95040, Note_on_c, 0, 52, 80
2, 95267, Note_on_c, 0, 52, 0
2, 95280, Note_on_c, 0, 52, 80
2, 95280, Note_on_c, 0, 55, 80
2, 95280, Note_on_c, 0, 59, 80
2, 95507, Note_on_c, 0, 52, 0
2, 95507, Note_on_c, 0, 55, 0
2, 95507, Note_on_c, 0, 59, 0
2, 95520, Note_on_c, 0, 52, 80
2, 95520, Note_on_c, 0, 55, 80
2, 95520, Note_on_c, 0, 59, 80
2, 95747, Note_on_c, 0, 52, 0
2, 95747, Note_on_c, 0, 55, 0
2, 95747, Note_on_c, 0, 59, 0
2, 95760, Note_on_c, 0, 50, 80
2, 95987, Note_on_c, 0, 50, 0
2, 96000, Note_on_c, 0, 50, 80
2, 96000, Note_on_c, 0, 55, 80
2, 96000, Note_on_c, 0, 59, 80
2, 96227, Note_on_c, 0, 50, 0
2, 96227, Note_on_c, 0, 55, 0
2, 96227, Note_on_c, 0, 59, 0
2, 96240, Note_on_c, 0, 50, 80
2, 96240, Note_on_c, 0, 55, 80
2, 96240, Note_on_c, 0, 59, 80
2, 96467, Note_on_c, 0, 50, 0
2, 96467, Note_on_c, 0, 55, 0
2, 96467, Note_on_c, 0, 59, 0
2, 96480, Note_on_c, 0, 48, 80
2, 96707, Note_on_c, 0, 48, 0
2, 96720, Note_on_c, 0, 48, 80
2, 96720, Note_on_c, 0, 55, 80
2, 96720, Note_on_c, 0, 59, 80
2, 96947, Note_on_c, 0, 48, 0
2, 96947, Note_on_c, 0, 55, 0
2, 96947, Note_on_c, 0, 59, 0
2, 96960, Note_on_c, 0, 48, 80
2, 96960, Note_on_c, 0, 55, 80
2, 96960, Note_on_c, 0, 59, 80
2, 97187, Note_on_c, 0, 48, 0
2, 97187, Note_on_c, 0, 55, 0
2, 97187, Note_on_c, 0, 59, 0
2, 97200, Note_on_c, 0, 59, 80
2, 97427, Note_on_c, 0, 59, 0
2, 97440, Note_on_c, 0, 52, 80
2, 97440, Note_on_c, 0, 55, 80
2, 97440, Note_on_c, 0, 59, 80
2, 97667, Note_on_c, 0, 52, 0
2, 97667, Note_on_c, 0, 55, 0
2, 97667, Note_on_c, 0, 59, 0
2, 97680, Note_on_c, 0, 52, 80
2, 97680, Note_on_c, 0, 55, 80
2, 97680, Note_on_c, 0, 59, 80
2, 97907, Note_on_c, 0, 52, 0
2, 97907, Note_on_c, 0, 55, 0
2, 97907, Note_on_c, 0, 59, 0
2, 97920, Note_on_c, 0, 52, 80
2, 98147, Note_on_c, 0, 52, 0
2, 98160, Note_on_c, 0, 59, 80
2, 98160, Note_on_c, 0, 64, 80
2, 98387, Note_on_c, 0, 59, 0
2, 98387, Note_on_c, 0, 64, 0
2, 98400, Note_on_c, 0, 59, 80
2, 98400, Note_on_c, 0, 64, 80
2, 98627, Note_on_c, 0, 59, 0
2, 98627, Note_on_c, 0, 64, 0
2, 98640, Note_on_c, 0, 50, 80
2, 98867, Note_on_c, 0, 50, 0
2, 98880, Note_on_c, 0, 55, 80
2, 98880, Note_on_c, 0, 59, 80
2, 98880, Note_on_c, 0, 64, 80
2, 99107, Note_on_c, 0, 55, 0
2, 99107, Note_on_c, 0, 59, 0
2, 99107, Note_on_c, 0, 64, 0
2, 99120, Note_on_c, 0, 55, 80
2, 99120, Note_on_c, 0, 59, 80
2, 99120, Note_on_c, 0, 64, 80
2, 99347, Note_on_c, 0, 55, 0
2, 99347, Note_on_c, 0, 59, 0
2, 99347, Note_on_c, 0, 64, 0
2, 99360, Note_on_c, 0, 48, 80
2, 99587, Note_on_c, 0, 48, 0
2, 99600, Note_on_c, 0, 55, 80
2, 99600, Note_on_c, 0, 60, 80
2, 99600, Note_on_c, 0, 64, 80
2, 99827, Note_on_c, 0, 55, 0
2, 99827, Note_on_c, 0, 60, 0
2, 99827, Note_on_c, 0, 64, 0
2, 99840, Note_on_c, 0, 55, 80
2, 99840, Note_on_c, 0, 60, 80
2, 99840, Note_on_c, 0, 64, 80
2, 100067, Note_on_c, 0, 55, 0
2, 100067, Note_on_c, 0, 60, 0
2, 100067, Note_on_c, 0, 64, 0
2, 100080, Note_on_c, 0, 59, 80
2, 100307, Note_on_c, 0, 59, 0
2, 100320, Note_on_c, 0, 55, 80
2, 100320, Note_on_c, 0, 59, 80
2, 100320, Note_on_c, 0, 64, 80
2, 100547, Note_on_c, 0, 55, 0
2, 100547, Note_on_c, 0, 59, 0
2, 100547, Note_on_c, 0, 64, 0
2, 100560, Note_on_c, 0, 55, 80
2, 100560, Note_on_c, 0, 59, 80
2, 100787, Note_on_c, 0, 55, 0
2, 100787, Note_on_c, 0, 59, 0
2, 100800, Note_on_c, 0, 52, 80
2, 100800, Note_on_c, 0, 59, 80
2, 101027, Note_on_c, 0, 52, 0
2, 101027, Note_on_c, 0, 59, 0
2, 101040, Note_on_c, 0, 52, 80
2, 101040, Note_on_c, 0, 55, 80
2, 101040, Note_on_c, 0, 59, 80
2, 101267, Note_on_c, 0, 52, 0
2, 101267, Note_on_c, 0, 55, 0
2, 101267, Note_on_c, 0, 59, 0
2, 101280, Note_on_c, 0, 52, 80
2, 101280, Note_on_c, 0, 55, 80
2, 101280, Note_on_c, 0, 59, 80
2, 101507, Note_on_c, 0, 52, 0
2, 101507, Note_on_c, 0, 55, 0
2, 101507, Note_on_c, 0, 59, 0
2, 101520, Note_on_c, 0, 52, 80
2, 101520, Note_on_c, 0, 59, 80
2, 101747, Note_on_c, 0, 52, 0
2, 101747, Note_on_c, 0, 59, 0
2, 101760, Note_on_c, 0, 52, 80
2, 101760, Note_on_c, 0, 55, 80
2, 101760, Note_on_c, 0, 59, 80
2, 101987, Note_on_c, 0, 52, 0
2, 101987, Note_on_c, 0, 55, 0
2, 101987, Note_on_c, 0, 59, 0
2, 102000, Note_on_c, 0, 52, 80
2, 102000, Note_on_c, 0, 55, 80
2, 102000, Note_on_c, 0, 59, 80
2, 102227, Note_on_c, 0, 52, 0
2, 102227, Note_on_c, 0, 55, 0
2, 102227, Note_on_c, 0, 59, 0
2, 102240, Note_on_c, 0, 52, 80
2, 102240, Note_on_c, 0, 59, 80
2, 102467, Note_on_c, 0, 52, 0
2, 102467, Note_on_c, 0, 59, 0
2, 102480, Note_on_c, 0, 52, 80
2, 102480, Note_on_c, 0, 57, 80
2, 102480, Note_on_c, 0, 60, 80
2, 102707, Note_on_c, 0, 52, 0
2, 102707, Note_on_c, 0, 57, 0
2, 102707, Note_on_c, 0, 60, 0
2, 102720, Note_on_c, 0, 52, 80
2, 102720, Note_on_c, 0, 57, 80
2, 102720, Note_on_c, 0, 60, 80
2, 102947, Note_on_c, 0, 52, 0
2, 102947, Note_on_c, 0, 57, 0
2, 102947, Note_on_c, 0, 60, 0
2, 102960, Note_on_c, 0, 52, 80
2, 102960, Note_on_c, 0, 60, 80
2, 103187, Note_on_c, 0, 52, 0
2, 103187, Note_on_c, 0, 60, 0
2, 103200, Note_on_c, 0, 52, 80
2, 103200, Note_on_c, 0, 57, 80
2, 103200, Note_on_c, 0, 62, 80
2, 103427, Note_on_c, 0, 52, 0
2, 103427, Note_on_c, 0, 57, 0
2, 103427, Note_on_c, 0, 62, 0
2, 103440, Note_on_c, 0, 52, 80
2, 103440, Note_on_c, 0, 57, 80
2, 103440, Note_on_c, 0, 60, 80
2, 103667, Note_on_c, 0, 52, 0
2, 103667, Note_on_c, 0, 57, 0
2, 103667, Note_on_c, 0, 60, 0
2, 103680, Note_on_c, 0, 55, 80
2, 103680, Note_on_c, 0, 59, 80
2, 103907, Note_on_c, 0, 55, 0
2, 103907, Note_on_c, 0, 59, 0
2, 103920, Note_on_c, 0, 55, 80
2, 103920, Note_on_c, 0, 59, 80
2, 103920, Note_on_c, 0, 62, 80
2, 104147, Note_on_c, 0, 55, 0
2, 104147, Note_on_c, 0, 59, 0
2, 104147, Note_on_c, 0, 62, 0
2, 104160, Note_on_c, 0, 55, 80
2, 104160, Note_on_c, 0, 59, 80
2, 104160, Note_on_c, 0, 62, 80
2, 104387, Note_on_c, 0, 55, 0
2, 104387, Note_on_c, 0, 59, 0
2, 104387, Note_on_c, 0, 62, 0
2, 104400, Note_on_c, 0, 55, 80
2, 104400, Note_on_c, 0, 62, 80
2, 104627, Note_on_c, 0, 55, 0
2, 104627, Note_on_c, 0, 62, 0
2, 104640, Note_on_c, 0, 55, 80
2, 104640, Note_on_c, 0, 59, 80
2, 104640, Note_on_c, 0, 64, 80
2, 104867, Note_on_c, 0, 55, 0
2, 104867, Note_on_c, 0, 59, 0
2, 104867, Note_on_c, 0, 64, 0
2, 104880, Note_on_c, 0, 55, 80
2, 104880, Note_on_c, 0, 59, 80
2, 104880, Note_on_c, 0, 62, 80
2, 105107, Note_on_c, 0, 55, 0
2, 105107, Note_on_c, 0, 59, 0
2, 105107, Note_on_c, 0, 62, 0
2, 105120, Note_on_c, 0, 55, 80
2, 105120, Note_on_c, 0, 64, 80
2, 105347, Note_on_c, 0, 55, 0
2, 105347, Note_on_c, 0, 64, 0
2, 105360, Note_on_c, 0, 55, 80
2, 105360, Note_on_c, 0, 59, 80
2, 105360, Note_on_c, 0, 62, 80
2, 105587, Note_on_c, 0, 55, 0
2, 105587, Note_on_c, 0, 59, 0
2, 105587, Note_on_c, 0, 62, 0
2, 105600, Note_on_c, 0, 55, 80
2, 105600, Note_on_c, 0, 59, 80
2, 105600, Note_on_c, 0, 62, 80
2, 105827, Note_on_c, 0, 55, 0
2, 105827, Note_on_c, 0, 59, 0
2, 105827, Note_on_c, 0, 62, 0
2, 105840, Note_on_c, 0, 55, 80
2, 105840, Note_on_c, 0, 57, 80
2, 106067, Note_on_c, 0, 55, 0
2, 106067, Note_on_c, 0, 57, 0
2, 106080, Note_on_c, 0, 55, 80
2, 106080, Note_on_c, 0, 59, 80
2, 106080, Note_on_c, 0, 64, 80
2, 106307, Note_on_c, 0, 55, 0
2, 106307, Note_on_c, 0, 59, 0
2, 106307, Note_on_c, 0, 64, 0
2, 106320, Note_on_c, 0, 55, 80
2, 106320, Note_on_c, 0, 59, 80
2, 106320, Note_on_c, 0, 62, 80
2, 106547, Note_on_c, 0, 55, 0
2, 106547, Note_on_c, 0, 59, 0
2, 106547, Note_on_c, 0, 62, 0
2, 106560, Note_on_c, 0, 57, 80
2, 106560, Note_on_c, 0, 60, 80
2, 106787, Note_on_c, 0, 57, 0
2, 106787, Note_on_c, 0, 60, 0
2, 106800, Note_on_c, 0, 57, 80
2, 106800, Note_on_c, 0, 60, 80
2, 106800, Note_on_c, 0, 64, 80
2, 107027, Note_on_c, 0, 57, 0
2, 107027, Note_on_c, 0, 60, 0
2, 107027, Note_on_c, 0, 64, 0
2, 107040, Note_on_c, 0, 57, 80
2, 107040, Note_on_c, 0, 60, 80
2, 107040, Note_on_c, 0, 64, 80
2, 107267, Note_on_c, 0, 57, 0
2, 107267, Note_on_c, 0, 60, 0
2, 107267, Note_on_c, 0, 64, 0
2, 107280, Note_on_c, 0, 57, 80
2, 107280, Note_on_c, 0, 64, 80
2, 107507, Note_on_c, 0, 57, 0
2, 107507, Note_on_c, 0, 64, 0
2, 107520, Note_on_c, 0, 60, 80
2, 107520, Note_on_c, 0, 64, 80
2, 107520, Note_on_c, 0, 67, 80
2, 107747, Note_on_c, 0, 60, 0
2, 107747, Note_on_c, 0, 64, 0
2, 107747, Note_on_c, 0, 67, 0
2, 107760, Note_on_c, 0, 60, 80
2, 107760, Note_on_c, 0, 64, 80
2, 107760, Note_on_c, 0, 69, 80
2, 107987, Note_on_c, 0, 60, 0
2, 107987, Note_on_c, 0, 64, 0
2, 107987, Note_on_c, 0, 69, 0
2, 108000, Note_on_c, 0, 57, 80
2, 108227, Note_on_c, 0, 57, 0
2, 108240, Note_on_c, 0, 57, 80
2, 108240, Note_on_c, 0, 60, 80
2, 108240, Note_on_c, 0, 64, 80
2, 108467, Note_on_c, 0, 57, 0
2, 108467, Note_on_c, 0, 60, 0
2, 108467, Note_on_c, 0, 64, 0
2, 108480, Note_on_c, 0, 57, 80
2, 108480, Note_on_c, 0, 60, 80
2, 108480, Note_on_c, 0, 64, 80
2, 108707, Note_on_c, 0, 57, 0
2, 108707, Note_on_c, 0, 60, 0
2, 108707, Note_on_c, 0, 64, 0
2, 108720, Note_on_c, 0, 57, 80
2, 108947, Note_on_c, 0, 57, 0
2, 108960, Note_on_c, 0, 57, 80
2, 108960, Note_on_c, 0, 60, 80
2, 108960, Note_on_c, 0, 64, 80
2, 109187, Note_on_c, 0, 57, 0
2, 109187, Note_on_c, 0, 60, 0
2, 109187, Note_on_c, 0, 64, 0
2, 109200, Note_on_c, 0, 57, 80
2, 109200, Note_on_c, 0, 60, 80
2, 109200, Note_on_c, 0, 64, 80
2, 109427, Note_on_c, 0, 57, 0
2, 109427, Note_on_c, 0, 60, 0
2, 109427, Note_on_c, 0, 64, 0
2, 109440, Note_on_c, 0, 52, 80
2, 109667, Note_on_c, 0, 52, 0
2, 109680, Note_on_c, 0, 59, 80
2, 109680, Note_on_c, 0, 64, 80
2, 109907, Note_on_c, 0, 59, 0
2, 109907, Note_on_c, 0, 64, 0
2, 109920, Note_on_c, 0, 59, 80
2, 109920, Note_on_c, 0, 64, 80
2, 110147, Note_on_c, 0, 59, 0
2, 110147, Note_on_c, 0, 64, 0
2, 110160, Note_on_c, 0, 52, 80
2, 110387, Note_on_c, 0, 52, 0
2, 110400, Note_on_c, 0, 59, 80
2, 110400, Note_on_c, 0, 64, 80
2, 110400, Note_on_c, 0, 69, 80
2, 110627, Note_on_c, 0, 59, 0
2, 110627, Note_on_c, 0, 64, 0
2, 110627, Note_on_c, 0, 69, 0
2, 110640, Note_on_c, 0, 64, 80
2, 110640, Note_on_c, 0, 71, 80
2, 110867, Note_on_c, 0, 64, 0
2, 110867, Note_on_c, 0, 71, 0
2, 110880, Note_on_c, 0, 52, 80
2, 110880, Note_on_c, 0, 65, 80
2, 111107, Note_on_c, 0, 52, 0
2, 111107, Note_on_c, 0, 65, 0
2, 111120, Note_on_c, 0, 59, 80
2, 111120, Note_on_c, 0, 64, 80
2, 111347, Note_on_c, 0, 59, 0
2, 111347, Note_on_c, 0, 64, 0
2, 111360, Note_on_c, 0, 59, 80
2, 111360, Note_on_c, 0, 64, 80
2, 111587, Note_on_c, 0, 59, 0
2, 111587, Note_on_c, 0, 64, 0
2, 111600, Note_on_c, 0, 64, 80
2, 111827, Note_on_c, 0, 64, 0
2, 111840, Note_on_c, 0, 60, 80
2, 112067, Note_on_c, 0, 60, 0
2, 112080, Note_on_c, 0, 59, 80
2, 112307, Note_on_c, 0, 59, 0
2, 112320, Note_on_c, 0, 57, 80
2, 112547, Note_on_c, 0, 57, 0
2, 112560, Note_on_c, 0, 57, 80
2, 112560, Note_on_c, 0, 60, 80
2, 112787, Note_on_c, 0, 57, 0
2, 112787, Note_on_c, 0, 60, 0
2, 112800, Note_on_c, 0, 57, 80
2, 112800, Note_on_c, 0, 60, 80
2, 113027, Note_on_c, 0, 57, 0
2, 113027, Note_on_c, 0, 60, 0
2, 113040, Note_on_c, 0, 57, 80
2, 113267, Note_on_c, 0, 57, 0
2, 113280, Note_on_c, 0, 57, 80
2, 113280, Note_on_c, 0, 60, 80
2, 113507, Note_on_c, 0, 57, 0
2, 113507, Note_on_c, 0, 60, 0
2, 113520, Note_on_c, 0, 57, 80
2, 113520, Note_on_c, 0, 60, 80
2, 113747, Note_on_c, 0, 57, 0
2, 113747, Note_on_c, 0, 60, 0
2, 113760, Note_on_c, 0, 59, 80
2, 113987, Note_on_c, 0, 59, 0
2, 114000, Note_on_c, 0, 59, 80
2, 114227, Note_on_c, 0, 59, 0
2, 114240, Note_on_c, 0, 59, 80
2, 114467, Note_on_c, 0, 59, 0
2, 114480, Note_on_c, 0, 59, 80
2, 114707, Note_on_c, 0, 59, 0
2, 114720, Note_on_c, 0, 59, 80
2, 114947, Note_on_c, 0, 59, 0
2, 114960, Note_on_c, 0, 59, 80
2, 115187, Note_on_c, 0, 59, 0
2, 115200, Note_on_c, 0, 60, 80
2, 115427, Note_on_c, 0, 60, 0
2, 115440, Note_on_c, 0, 60, 80
2, 115667, Note_on_c, 0, 60, 0
2, 115680, Note_on_c, 0, 60, 80
2, 115907, Note_on_c, 0, 60, 0
2, 115920, Note_on_c, 0, 60, 80
2, 116147, Note_on_c, 0, 60, 0
2, 116160, Note_on_c, 0, 60, 80
2, 116387, Note_on_c, 0, 60, 0
2, 116400, Note_on_c, 0, 60, 80
2, 116627, Note_on_c, 0, 60, 0
2, 116640, Note_on_c, 0, 60, 80
2, 116867, Note_on_c, 0, 60, 0
2, 116880, Note_on_c, 0, 60, 80
2, 117107, Note_on_c, 0, 60, 0
2, 117120, Note_on_c, 0, 60, 80
2, 117347, Note_on_c, 0, 60, 0
2, 117360, Note_on_c, 0, 60, 80
2, 117587, Note_on_c, 0, 60, 0
2, 117600, Note_on_c, 0, 62, 80
2, 117827, Note_on_c, 0, 62, 0
2, 117840, Note_on_c, 0, 64, 80
2, 118067, Note_on_c, 0, 64, 0
2, 118080, Note_on_c, 0, 62, 80
2, 118307, Note_on_c, 0, 62, 0
2, 118320, Note_on_c, 0, 62, 80
2, 118320, Note_on_c, 0, 65, 80
2, 118320, Note_on_c, 0, 69, 80
2, 118547, Note_on_c, 0, 62, 0
2, 118547, Note_on_c, 0, 65, 0
2, 118547, Note_on_c, 0, 69, 0
2, 118560, Note_on_c, 0, 62, 80
2, 118560, Note_on_c, 0, 65, 80
2, 118560, Note_on_c, 0, 69, 80
2, 118787, Note_on_c, 0, 62, 0
2, 118787, Note_on_c, 0, 65, 0
2, 118787, Note_on_c, 0, 69, 0
2, 118800, Note_on_c, 0, 62, 80
2, 119027, Note_on_c, 0, 62, 0
2, 119040, Note_on_c, 0, 62, 80
2, 119040, Note_on_c, 0, 65, 80
2, 119040, Note_on_c, 0, 69, 80
2, 119267, Note_on_c, 0, 62, 0
2, 119267, Note_on_c, 0, 65, 0
2, 119267, Note_on_c, 0, 69, 0
2, 119280, Note_on_c, 0, 62, 80
2, 119280, Note_on_c, 0, 65, 80
2, 119280, Note_on_c, 0, 69, 80
2, 119507, Note_on_c, 0, 62, 0
2, 119507, Note_on_c, 0, 65, 0
2, 119507, Note_on_c, 0, 69, 0
2, 119520, Note_on_c, 0, 62, 80
2, 119747, Note_on_c, 0, 62, 0
2, 119760, Note_on_c, 0, 65, 80
2, 119760, Note_on_c, 0, 69, 80
2, 119987, Note_on_c, 0, 65, 0
2, 119987, Note_on_c, 0, 69, 0
2, 120000, Note_on_c, 0, 65, 80
2, 120000, Note_on_c, 0, 69, 80
2, 120227, Note_on_c, 0, 65, 0
2, 120227, Note_on_c, 0, 69, 0
2, 120240, Note_on_c, 0, 62, 80
2, 120467, Note_on_c, 0, 62, 0
2, 120480, Note_on_c, 0, 65, 80
2, 120480, Note_on_c, 0, 69, 80
2, 120707, Note_on_c, 0, 65, 0
2, 120707, Note_on_c, 0, 69, 0
2, 120720, Note_on_c, 0, 65, 80
2, 120720, Note_on_c, 0, 69, 80
2, 120947, Note_on_c, 0, 65, 0
2, 120947, Note_on_c, 0, 69, 0
2, 123840, Note_on_c, 0, 69, 80
2, 123840, Note_on_c, 0, 60, 80
2, 123840, Note_on_c, 0, 64, 80
2, 126575, Note_on_c, 0, 60, 0
2, 127031, Note_on_c, 0, 64, 0
2, 127680, Note_on_c, 0, 69, 0
2, 127681, End_track
3, 0, Start_track
3, 0, Title_t, "Electric Bass, Electric Bass, Bass\000"
3, 0, Key_signature, 0, "major"
3, 0, Control_c, 2, 121, 0
3, 0, Program_c, 2, 33
3, 0, Control_c, 2, 7, 100
3, 0, Control_c, 2, 10, 64
3, 0, Control_c, 2, 91, 0
3, 0, Control_c, 2, 93, 0
3, 0, MIDI_port, 0
3, 0, Control_c, 1, 121, 0
3, 0, Program_c, 1, 36
3, 0, Control_c, 1, 7, 100
3, 0, Control_c, 1, 10, 64
3, 0, Control_c, 1, 91, 0
3, 0, Control_c, 1, 93, 0
3, 0, MIDI_port, 0
3, 0, Control_c, 3, 121, 0
3, 0, Program_c, 3, 37
3, 0, Control_c, 3, 7, 100
3, 0, Control_c, 3, 10, 64
3, 0, Control_c, 3, 91, 0
3, 0, Control_c, 3, 93, 0
3, 0, MIDI_port, 0
3, 31680, Note_on_c, 2, 64, 80
3, 32399, Note_on_c, 2, 64, 0
3, 32400, Note_on_c, 2, 62, 80
3, 33119, Note_on_c, 2, 62, 0
3, 33120, Note_on_c, 2, 60, 80
3, 33839, Note_on_c, 2, 60, 0
3, 33840, Note_on_c, 2, 59, 80
3, 34559, Note_on_c, 2, 59, 0
3, 34560, Note_on_c, 2, 64, 80
3, 35279, Note_on_c, 2, 64, 0
3, 35280, Note_on_c, 2, 62, 80
3, 35999, Note_on_c, 2, 62, 0
3, 36000, Note_on_c, 2, 60, 80
3, 36719, Note_on_c, 2, 60, 0
3, 36720, Note_on_c, 2, 59, 80
3, 37439, Note_on_c, 2, 59, 0
3, 37440, Note_on_c, 2, 64, 80
3, 38159, Note_on_c, 2, 64, 0
3, 38160, Note_on_c, 2, 62, 80
3, 38879, Note_on_c, 2, 62, 0
3, 38880, Note_on_c, 2, 60, 80
3, 39599, Note_on_c, 2, 60, 0
3, 39600, Note_on_c, 2, 59, 80
3, 40319, Note_on_c, 2, 59, 0
3, 40320, Note_on_c, 2, 57, 80
3, 41039, Note_on_c, 2, 57, 0
3, 41040, Note_on_c, 2, 57, 80
3, 41759, Note_on_c, 2, 57, 0
3, 41760, Note_on_c, 2, 59, 80
3, 42479, Note_on_c, 2, 59, 0
3, 42480, Note_on_c, 2, 59, 80
3, 43199, Note_on_c, 2, 59, 0
3, 43200, Note_on_c, 2, 60, 80
3, 43919, Note_on_c, 2, 60, 0
3, 43920, Note_on_c, 2, 60, 80
3, 44639, Note_on_c, 2, 60, 0
3, 44640, Note_on_c, 2, 60, 80
3, 45359, Note_on_c, 2, 60, 0
3, 45360, Note_on_c, 2, 60, 80
3, 46079, Note_on_c, 2, 60, 0
3, 46080, Note_on_c, 2, 62, 80
3, 46799, Note_on_c, 2, 62, 0
3, 46800, Note_on_c, 2, 62, 80
3, 47519, Note_on_c, 2, 62, 0
3, 47520, Note_on_c, 2, 59, 80
3, 48239, Note_on_c, 2, 59, 0
3, 48240, Note_on_c, 2, 59, 80
3, 48959, Note_on_c, 2, 59, 0
3, 48960, Note_on_c, 2, 60, 80
3, 49679, Note_on_c, 2, 60, 0
3, 49680, Note_on_c, 2, 60, 80
3, 50399, Note_on_c, 2, 60, 0
3, 50400, Note_on_c, 2, 60, 80
3, 51119, Note_on_c, 2, 60, 0
3, 51120, Note_on_c, 2, 62, 80
3, 51359, Note_on_c, 2, 62, 0
3, 51360, Note_on_c, 2, 60, 80
3, 51599, Note_on_c, 2, 60, 0
3, 51600, Note_on_c, 2, 59, 80
3, 51839, Note_on_c, 2, 59, 0
3, 51840, Note_on_c, 2, 57, 80
3, 52559, Note_on_c, 2, 57, 0
3, 52560, Note_on_c, 2, 57, 80
3, 53279, Note_on_c, 2, 57, 0
3, 53280, Note_on_c, 2, 59, 80
3, 53999, Note_on_c, 2, 59, 0
3, 54000, Note_on_c, 2, 59, 80
3, 54719, Note_on_c, 2, 59, 0
3, 54720, Note_on_c, 2, 60, 80
3, 55439, Note_on_c, 2, 60, 0
3, 55440, Note_on_c, 2, 60, 80
3, 56159, Note_on_c, 2, 60, 0
3, 56160, Note_on_c, 2, 60, 80
3, 56879, Note_on_c, 2, 60, 0
3, 56880, Note_on_c, 2, 60, 80
3, 57599, Note_on_c, 2, 60, 0
3, 57600, Note_on_c, 2, 62, 80
3, 58319, Note_on_c, 2, 62, 0
3, 58320, Note_on_c, 2, 62, 80
3, 59039, Note_on_c, 2, 62, 0
3, 59040, Note_on_c, 2, 59, 80
3, 59759, Note_on_c, 2, 59, 0
3, 59760, Note_on_c, 2, 59, 80
3, 60479, Note_on_c, 2, 59, 0
3, 60480, Note_on_c, 2, 60, 80
3, 61199, Note_on_c, 2, 60, 0
3, 61200, Note_on_c, 2, 60, 80
3, 61919, Note_on_c, 2, 60, 0
3, 61920, Note_on_c, 2, 57, 80
3, 62639, Note_on_c, 2, 57, 0
3, 62640, Note_on_c, 2, 57, 80
3, 63359, Note_on_c, 2, 57, 0
3, 63360, Note_on_c, 2, 57, 80
3, 64079, Note_on_c, 2, 57, 0
3, 64080, Note_on_c, 2, 57, 80
3, 64799, Note_on_c, 2, 57, 0
3, 64800, Note_on_c, 2, 57, 80
3, 65519, Note_on_c, 2, 57, 0
3, 65520, Note_on_c, 2, 57, 80
3, 66239, Note_on_c, 2, 57, 0
3, 66240, Note_on_c, 2, 57, 80
3, 66959, Note_on_c, 2, 57, 0
3, 66960, Note_on_c, 2, 57, 80
3, 67679, Note_on_c, 2, 57, 0
3, 67680, Note_on_c, 2, 57, 80
3, 68399, Note_on_c, 2, 57, 0
3, 68400, Note_on_c, 2, 57, 80
3, 69119, Note_on_c, 2, 57, 0
3, 69120, Note_on_c, 2, 59, 80
3, 69839, Note_on_c, 2, 59, 0
3, 69840, Note_on_c, 2, 59, 80
3, 70559, Note_on_c, 2, 59, 0
3, 70560, Note_on_c, 2, 60, 80
3, 71279, Note_on_c, 2, 60, 0
3, 71280, Note_on_c, 2, 60, 80
3, 71999, Note_on_c, 2, 60, 0
3, 72000, Note_on_c, 2, 60, 80
3, 72719, Note_on_c, 2, 60, 0
3, 72720, Note_on_c, 2, 60, 80
3, 73439, Note_on_c, 2, 60, 0
3, 73440, Note_on_c, 2, 62, 80
3, 74159, Note_on_c, 2, 62, 0
3, 74160, Note_on_c, 2, 62, 80
3, 74879, Note_on_c, 2, 62, 0
3, 74880, Note_on_c, 2, 60, 80
3, 75599, Note_on_c, 2, 60, 0
3, 75600, Note_on_c, 2, 60, 80
3, 76319, Note_on_c, 2, 60, 0
3, 76320, Note_on_c, 2, 59, 80
3, 77039, Note_on_c, 2, 59, 0
3, 77040, Note_on_c, 2, 59, 80
3, 77759, Note_on_c, 2, 59, 0
3, 77760, Note_on_c, 2, 64, 80
3, 77999, Note_on_c, 2, 64, 0
3, 78000, Note_on_c, 2, 57, 80
3, 78239, Note_on_c, 2, 57, 0
3, 78240, Note_on_c, 2, 59, 80
3, 78479, Note_on_c, 2, 59, 0
3, 78480, Note_on_c, 2, 60, 80
3, 78719, Note_on_c, 2, 60, 0
3, 78720, Note_on_c, 2, 62, 80
3, 78959, Note_on_c, 2, 62, 0
3, 78960, Note_on_c, 2, 64, 80
3, 79199, Note_on_c, 2, 64, 0
3, 79200, Note_on_c, 2, 52, 80
3, 79919, Note_on_c, 2, 52, 0
3, 79920, Note_on_c, 2, 52, 80
3, 80639, Note_on_c, 2, 52, 0
3, 80640, Note_on_c, 2, 57, 80
3, 81359, Note_on_c, 2, 57, 0
3, 81360, Note_on_c, 2, 57, 80
3, 82079, Note_on_c, 2, 57, 0
3, 82080, Note_on_c, 2, 50, 80
3, 82799, Note_on_c, 2, 50, 0
3, 82800, Note_on_c, 2, 50, 80
3, 83519, Note_on_c, 2, 50, 0
3, 83520, Note_on_c, 2, 55, 80
3, 84239, Note_on_c, 2, 55, 0
3, 84240, Note_on_c, 2, 55, 80
3, 84959, Note_on_c, 2, 55, 0
3, 84960, Note_on_c, 2, 50, 80
3, 85679, Note_on_c, 2, 50, 0
3, 85680, Note_on_c, 2, 50, 80
3, 86399, Note_on_c, 2, 50, 0
3, 86400, Note_on_c, 2, 55, 80
3, 87119, Note_on_c, 2, 55, 0
3, 87120, Note_on_c, 2, 55, 80
3, 87839, Note_on_c, 2, 55, 0
3, 87840, Note_on_c, 2, 62, 80
3, 88559, Note_on_c, 2, 62, 0
3, 88560, Note_on_c, 2, 62, 80
3, 89279, Note_on_c, 2, 62, 0
3, 89280, Note_on_c, 2, 64, 80
3, 89999, Note_on_c, 2, 64, 0
3, 90000, Note_on_c, 2, 62, 80
3, 90719, Note_on_c, 2, 62, 0
3, 90720, Note_on_c, 2, 60, 80
3, 91439, Note_on_c, 2, 60, 0
3, 91440, Note_on_c, 2, 59, 80
3, 92159, Note_on_c, 2, 59, 0
3, 92160, Note_on_c, 2, 64, 80
3, 92879, Note_on_c, 2, 64, 0
3, 92880, Note_on_c, 2, 62, 80
3, 93599, Note_on_c, 2, 62, 0
3, 93600, Note_on_c, 2, 60, 80
3, 94319, Note_on_c, 2, 60, 0
3, 94320, Note_on_c, 2, 59, 80
3, 95039, Note_on_c, 2, 59, 0
3, 95040, Note_on_c, 2, 64, 80
3, 95759, Note_on_c, 2, 64, 0
3, 95760, Note_on_c, 2, 62, 80
3, 96479, Note_on_c, 2, 62, 0
3, 96480, Note_on_c, 2, 60, 80
3, 97199, Note_on_c, 2, 60, 0
3, 97200, Note_on_c, 2, 59, 80
3, 97919, Note_on_c, 2, 59, 0
3, 97920, Note_on_c, 2, 64, 80
3, 98639, Note_on_c, 2, 64, 0
3, 98640, Note_on_c, 2, 62, 80
3, 99359, Note_on_c, 2, 62, 0
3, 99360, Note_on_c, 2, 60, 80
3, 100079, Note_on_c, 2, 60, 0
3, 100080, Note_on_c, 2, 59, 80
3, 100559, Note_on_c, 2, 59, 0
3, 100560, Note_on_c, 2, 55, 80
3, 100799, Note_on_c, 2, 55, 0
3, 100800, Note_on_c, 2, 52, 80
3, 101519, Note_on_c, 2, 52, 0
3, 101520, Note_on_c, 2, 52, 80
3, 102239, Note_on_c, 2, 52, 0
3, 102240, Note_on_c, 2, 52, 80
3, 102959, Note_on_c, 2, 52, 0
3, 102960, Note_on_c, 2, 52, 80
3, 103679, Note_on_c, 2, 52, 0
3, 103680, Note_on_c, 2, 55, 80
3, 104399, Note_on_c, 2, 55, 0
3, 104400, Note_on_c, 2, 55, 80
3, 105119, Note_on_c, 2, 55, 0
3, 105120, Note_on_c, 2, 55, 80
3, 105839, Note_on_c, 2, 55, 0
3, 105840, Note_on_c, 2, 55, 80
3, 106559, Note_on_c, 2, 55, 0
3, 106560, Note_on_c, 2, 57, 80
3, 107279, Note_on_c, 2, 57, 0
3, 107280, Note_on_c, 2, 57, 80
3, 107999, Note_on_c, 2, 57, 0
3, 108000, Note_on_c, 2, 57, 80
3, 108719, Note_on_c, 2, 57, 0
3, 108720, Note_on_c, 2, 57, 80
3, 109439, Note_on_c, 2, 57, 0
3, 109440, Note_on_c, 2, 64, 80
3, 110159, Note_on_c, 2, 64, 0
3, 110160, Note_on_c, 2, 64, 80
3, 110879, Note_on_c, 2, 64, 0
3, 110880, Note_on_c, 2, 64, 80
3, 111599, Note_on_c, 2, 64, 0
3, 111600, Note_on_c, 2, 64, 80
3, 111839, Note_on_c, 2, 64, 0
3, 111840, Note_on_c, 2, 60, 80
3, 112079, Note_on_c, 2, 60, 0
3, 112080, Note_on_c, 2, 59, 80
3, 112319, Note_on_c, 2, 59, 0
3, 112320, Note_on_c, 2, 57, 80
3, 113039, Note_on_c, 2, 57, 0
3, 113040, Note_on_c, 2, 57, 80
3, 113759, Note_on_c, 2, 57, 0
3, 113760, Note_on_c, 2, 59, 80
3, 114479, Note_on_c, 2, 59, 0
3, 114480, Note_on_c, 2, 59, 80
3, 115199, Note_on_c, 2, 59, 0
3, 115200, Note_on_c, 2, 60, 80
3, 115919, Note_on_c, 2, 60, 0
3, 115920, Note_on_c, 2, 60, 80
3, 116639, Note_on_c, 2, 60, 0
3, 116640, Note_on_c, 2, 60, 80
3, 117359, Note_on_c, 2, 60, 0
3, 117360, Note_on_c, 2, 60, 80
3, 118079, Note_on_c, 2, 60, 0
3, 118080, Note_on_c, 2, 62, 80
3, 118799, Note_on_c, 2, 62, 0
3, 118800, Note_on_c, 2, 62, 80
3, 119519, Note_on_c, 2, 62, 0
3, 119520, Note_on_c, 2, 62, 80
3, 120239, Note_on_c, 2, 62, 0
3, 120240, Note_on_c, 2, 62, 80
3, 120959, Note_on_c, 2, 62, 0
3, 120960, Note_on_c, 2, 64, 80
3, 122399, Note_on_c, 2, 64, 0
3, 122400, Note_on_c, 2, 64, 80
3, 122639, Note_on_c, 2, 64, 0
3, 122640, Note_on_c, 2, 62, 80
3, 122879, Note_on_c, 2, 62, 0
3, 122880, Note_on_c, 2, 60, 80
3, 123119, Note_on_c, 2, 60, 0
3, 123120, Note_on_c, 2, 62, 80
3, 123359, Note_on_c, 2, 62, 0
3, 123360, Note_on_c, 2, 60, 80
3, 123599, Note_on_c, 2, 60, 0
3, 123600, Note_on_c, 2, 59, 80
3, 123839, Note_on_c, 2, 59, 0
3, 123840, Note_on_c, 2, 57, 80
3, 124199, Note_on_c, 2, 57, 0
3, 124200, End_track
0, 0, End_of_file
