0, 0, Header, 1, 3, 480
1, 0, Start_track
1, 0, Title_t, "Piano, Piano, Piano\000"
1, 0, Time_signature, 4, 2, 24, 8
1, 0, Key_signature, 0, "major"
1, 0, Tempo, 400000
1, 0, Control_c, 0, 121, 0
1, 0, Program_c, 0, 0
1, 0, Control_c, 0, 7, 100
1, 0, Control_c, 0, 10, 64
1, 0, Control_c, 0, 91, 0
1, 0, Control_c, 0, 93, 0
1, 0, MIDI_port, 0
1, 0, Note_on_c, 0, 79, 80
1, 455, Note_on_c, 0, 79, 0
1, 480, Note_on_c, 0, 81, 80
1, 935, Note_on_c, 0, 81, 0
1, 960, Note_on_c, 0, 76, 80
1, 1263, Note_on_c, 0, 76, 0
1, 1280, Note_on_c, 0, 76, 80
1, 1659, Note_on_c, 0, 76, 0
1, 1680, Note_on_c, 0, 72, 80
1, 1907, Note_on_c, 0, 72, 0
1, 1920, Note_on_c, 0, 76, 80
1, 2223, Note_on_c, 0, 76, 0
1, 2240, Note_on_c, 0, 74, 80
1, 2391, Note_on_c, 0, 74, 0
1, 2400, Note_on_c, 0, 72, 80
1, 2855, Note_on_c, 0, 72, 0
1, 2880, Note_on_c, 0, 72, 80
1, 3335, Note_on_c, 0, 72, 0
1, 3360, Note_on_c, 0, 74, 80
1, 3815, Note_on_c, 0, 74, 0
1, 3840, Note_on_c, 0, 76, 80
1, 4295, Note_on_c, 0, 76, 0
1, 4320, Note_on_c, 0, 76, 80
1, 4623, Note_on_c, 0, 76, 0
1, 4640, Note_on_c, 0, 74, 80
1, 4791, Note_on_c, 0, 74, 0
1, 4800, Note_on_c, 0, 72, 80
1, 5103, Note_on_c, 0, 72, 0
1, 5120, Note_on_c, 0, 74, 80
1, 5271, Note_on_c, 0, 74, 0
1, 5280, Note_on_c, 0, 76, 80
1, 5583, Note_on_c, 0, 76, 0
1, 5600, Note_on_c, 0, 79, 80
1, 5751, Note_on_c, 0, 79, 0
1, 5760, Note_on_c, 0, 81, 80
1, 6063, Note_on_c, 0, 81, 0
1, 6080, Note_on_c, 0, 76, 80
1, 6231, Note_on_c, 0, 76, 0
1, 6240, Note_on_c, 0, 79, 80
1, 6543, Note_on_c, 0, 79, 0
1, 6560, Note_on_c, 0, 74, 80
1, 6711, Note_on_c, 0, 74, 0
1, 6720, Note_on_c, 0, 76, 80
1, 7023, Note_on_c, 0, 76, 0
1, 7040, Note_on_c, 0, 72, 80
1, 7191, Note_on_c, 0, 72, 0
1, 7200, Note_on_c, 0, 74, 80
1, 7503, Note_on_c, 0, 74, 0
1, 7520, Note_on_c, 0, 72, 80
1, 7671, Note_on_c, 0, 72, 0
1, 7680, Note_on_c, 0, 76, 80
1, 8135, Note_on_c, 0, 76, 0
1, 8160, Note_on_c, 0, 79, 80
1, 8615, Note_on_c, 0, 79, 0
1, 8640, Note_on_c, 0, 81, 80
1, 8943, Note_on_c, 0, 81, 0
1, 8960, Note_on_c, 0, 76, 80
1, 9111, Note_on_c, 0, 76, 0
1, 9120, Note_on_c, 0, 79, 80
1, 9423, Note_on_c, 0, 79, 0
1, 9440, Note_on_c, 0, 74, 80
1, 9591, Note_on_c, 0, 74, 0
1, 9600, Note_on_c, 0, 76, 80
1, 9903, Note_on_c, 0, 76, 0
1, 9920, Note_on_c, 0, 72, 80
1, 10071, Note_on_c, 0, 72, 0
1, 10080, Note_on_c, 0, 74, 80
1, 10383, Note_on_c, 0, 74, 0
1, 10400, Note_on_c, 0, 76, 80
1, 10551, Note_on_c, 0, 76, 0
1, 10560, Note_on_c, 0, 74, 80
1, 10863, Note_on_c, 0, 74, 0
1, 10880, Note_on_c, 0, 74, 80
1, 11031, Note_on_c, 0, 74, 0
1, 11040, Note_on_c, 0, 72, 80
1, 11343, Note_on_c, 0, 72, 0
1, 11360, Note_on_c, 0, 74, 80
1, 11511, Note_on_c, 0, 74, 0
1, 11520, Note_on_c, 0, 76, 80
1, 11975, Note_on_c, 0, 76, 0
1, 12000, Note_on_c, 0, 72, 80
1, 12303, Note_on_c, 0, 72, 0
1, 12320, Note_on_c, 0, 74, 80
1, 12471, Note_on_c, 0, 74, 0
1, 12480, Note_on_c, 0, 76, 80
1, 12783, Note_on_c, 0, 76, 0
1, 12800, Note_on_c, 0, 79, 80
1, 12951, Note_on_c, 0, 79, 0
1, 12960, Note_on_c, 0, 74, 80
1, 13263, Note_on_c, 0, 74, 0
1, 13280, Note_on_c, 0, 76, 80
1, 13431, Note_on_c, 0, 76, 0
1, 13440, Note_on_c, 0, 74, 80
1, 13743, Note_on_c, 0, 74, 0
1, 13760, Note_on_c, 0, 72, 80
1, 13911, Note_on_c, 0, 72, 0
1, 13920, Note_on_c, 0, 74, 80
1, 14375, Note_on_c, 0, 74, 0
1, 14400, Note_on_c, 0, 72, 80
1, 14855, Note_on_c, 0, 72, 0
1, 14880, Note_on_c, 0, 74, 80
1, 15335, Note_on_c, 0, 74, 0
1, 15360, Note_on_c, 0, 72, 80
1, 15815, Note_on_c, 0, 72, 0
1, 15840, Note_on_c, 0, 67, 80
1, 16143, Note_on_c, 0, 67, 0
1, 16160, Note_on_c, 0, 69, 80
1, 16311, Note_on_c, 0, 69, 0
1, 16320, Note_on_c, 0, 72, 80
1, 16775, Note_on_c, 0, 72, 0
1, 16800, Note_on_c, 0, 67, 80
1, 17103, Note_on_c, 0, 67, 0
1, 17120, Note_on_c, 0, 69, 80
1, 17271, Note_on_c, 0, 69, 0
1, 17280, Note_on_c, 0, 72, 80
1, 17583, Note_on_c, 0, 72, 0
1, 17600, Note_on_c, 0, 74, 80
1, 17751, Note_on_c, 0, 74, 0
1, 17760, Note_on_c, 0, 76, 80
1, 18063, Note_on_c, 0, 76, 0
1, 18080, Note_on_c, 0, 72, 80
1, 18231, Note_on_c, 0, 72, 0
1, 18240, Note_on_c, 0, 77, 80
1, 18543, Note_on_c, 0, 77, 0
1, 18560, Note_on_c, 0, 76, 80
1, 18711, Note_on_c, 0, 76, 0
1, 18720, Note_on_c, 0, 77, 80
1, 19023, Note_on_c, 0, 77, 0
1, 19040, Note_on_c, 0, 79, 80
1, 19191, Note_on_c, 0, 79, 0
1, 19200, Note_on_c, 0, 72, 80
1, 19655, Note_on_c, 0, 72, 0
1, 19680, Note_on_c, 0, 72, 80
1, 20135, Note_on_c, 0, 72, 0
1, 20160, Note_on_c, 0, 67, 80
1, 20463, Note_on_c, 0, 67, 0
1, 20480, Note_on_c, 0, 69, 80
1, 20631, Note_on_c, 0, 69, 0
1, 20640, Note_on_c, 0, 72, 80
1, 20943, Note_on_c, 0, 72, 0
1, 20960, Note_on_c, 0, 67, 80
1, 21111, Note_on_c, 0, 67, 0
1, 21120, Note_on_c, 0, 77, 80
1, 21423, Note_on_c, 0, 77, 0
1, 21440, Note_on_c, 0, 76, 80
1, 21591, Note_on_c, 0, 76, 0
1, 21600, Note_on_c, 0, 74, 80
1, 21903, Note_on_c, 0, 74, 0
1, 21920, Note_on_c, 0, 72, 80
1, 22071, Note_on_c, 0, 72, 0
1, 22080, Note_on_c, 0, 67, 80
1, 22383, Note_on_c, 0, 67, 0
1, 22400, Note_on_c, 0, 64, 80
1, 22551, Note_on_c, 0, 64, 0
1, 22560, Note_on_c, 0, 65, 80
1, 22863, Note_on_c, 0, 65, 0
1, 22880, Note_on_c, 0, 67, 80
1, 23031, Note_on_c, 0, 67, 0
1, 23040, Note_on_c, 0, 72, 80
1, 23495, Note_on_c, 0, 72, 0
1, 23520, Note_on_c, 0, 67, 80
1, 23823, Note_on_c, 0, 67, 0
1, 23840, Note_on_c, 0, 69, 80
1, 23991, Note_on_c, 0, 69, 0
1, 24000, Note_on_c, 0, 72, 80
1, 24455, Note_on_c, 0, 72, 0
1, 24480, Note_on_c, 0, 67, 80
1, 24783, Note_on_c, 0, 67, 0
1, 24800, Note_on_c, 0, 69, 80
1, 24951, Note_on_c, 0, 69, 0
1, 24960, Note_on_c, 0, 72, 80
1, 25263, Note_on_c, 0, 72, 0
1, 25280, Note_on_c, 0, 72, 80
1, 25431, Note_on_c, 0, 72, 0
1, 25440, Note_on_c, 0, 74, 80
1, 25743, Note_on_c, 0, 74, 0
1, 25760, Note_on_c, 0, 76, 80
1, 25911, Note_on_c, 0, 76, 0
1, 25920, Note_on_c, 0, 72, 80
1, 26223, Note_on_c, 0, 72, 0
1, 26240, Note_on_c, 0, 67, 80
1, 26391, Note_on_c, 0, 67, 0
1, 26400, Note_on_c, 0, 69, 80
1, 26703, Note_on_c, 0, 69, 0
1, 26720, Note_on_c, 0, 67, 80
1, 26871, Note_on_c, 0, 67, 0
1, 26880, Note_on_c, 0, 72, 80
1, 27335, Note_on_c, 0, 72, 0
1, 27360, Note_on_c, 0, 72, 80
1, 27663, Note_on_c, 0, 72, 0
1, 27680, Note_on_c, 0, 71, 80
1, 27831, Note_on_c, 0, 71, 0
1, 27840, Note_on_c, 0, 72, 80
1, 28143, Note_on_c, 0, 72, 0
1, 28160, Note_on_c, 0, 67, 80
1, 28311, Note_on_c, 0, 67, 0
1, 28320, Note_on_c, 0, 69, 80
1, 28623, Note_on_c, 0, 69, 0
1, 28640, Note_on_c, 0, 72, 80
1, 28791, Note_on_c, 0, 72, 0
1, 28800, Note_on_c, 0, 77, 80
1, 29103, Note_on_c, 0, 77, 0
1, 29120, Note_on_c, 0, 76, 80
1, 29271, Note_on_c, 0, 76, 0
1, 29280, Note_on_c, 0, 77, 80
1, 29583, Note_on_c, 0, 77, 0
1, 29600, Note_on_c, 0, 79, 80
1, 29751, Note_on_c, 0, 79, 0
1, 29760, Note_on_c, 0, 72, 80
1, 30215, Note_on_c, 0, 72, 0
1, 30240, Note_on_c, 0, 74, 80
1, 30695, Note_on_c, 0, 74, 0
1, 30720, Note_on_c, 0, 79, 80
1, 30959, Note_on_c, 0, 79, 0
1, 31200, Note_on_c, 0, 81, 80
1, 31655, Note_on_c, 0, 81, 0
1, 31680, Note_on_c, 0, 76, 80
1, 31983, Note_on_c, 0, 76, 0
1, 32000, Note_on_c, 0, 76, 80
1, 32607, Note_on_c, 0, 76, 0
1, 32640, Note_on_c, 0, 76, 80
1, 32759, Note_on_c, 0, 76, 0
1, 32880, Note_on_c, 0, 74, 80
1, 33107, Note_on_c, 0, 74, 0
1, 33120, Note_on_c, 0, 72, 80
1, 33423, Note_on_c, 0, 72, 0
1, 33440, Note_on_c, 0, 72, 80
1, 33819, Note_on_c, 0, 72, 0
1, 33840, Note_on_c, 0, 74, 80
1, 34295, Note_on_c, 0, 74, 0
1, 34400, Note_on_c, 0, 72, 80
1, 34551, Note_on_c, 0, 72, 0
1, 34560, Note_on_c, 0, 76, 80
1, 34863, Note_on_c, 0, 76, 0
1, 34880, Note_on_c, 0, 74, 80
1, 35031, Note_on_c, 0, 74, 0
1, 35040, Note_on_c, 0, 72, 80
1, 35343, Note_on_c, 0, 72, 0
1, 35360, Note_on_c, 0, 72, 80
1, 35739, Note_on_c, 0, 72, 0
1, 35760, Note_on_c, 0, 74, 80
1, 35987, Note_on_c, 0, 74, 0
1, 36000, Note_on_c, 0, 76, 80
1, 36303, Note_on_c, 0, 76, 0
1, 36320, Note_on_c, 0, 79, 80
1, 36471, Note_on_c, 0, 79, 0
1, 36480, Note_on_c, 0, 81, 80
1, 36783, Note_on_c, 0, 81, 0
1, 36800, Note_on_c, 0, 74, 80
1, 36951, Note_on_c, 0, 74, 0
1, 36960, Note_on_c, 0, 76, 80
1, 37263, Note_on_c, 0, 76, 0
1, 37280, Note_on_c, 0, 72, 80
1, 37431, Note_on_c, 0, 72, 0
1, 37440, Note_on_c, 0, 74, 80
1, 37743, Note_on_c, 0, 74, 0
1, 37760, Note_on_c, 0, 76, 80
1, 37911, Note_on_c, 0, 76, 0
1, 37920, Note_on_c, 0, 74, 80
1, 38223, Note_on_c, 0, 74, 0
1, 38240, Note_on_c, 0, 72, 80
1, 38391, Note_on_c, 0, 72, 0
1, 38400, Note_on_c, 0, 72, 80
1, 38703, Note_on_c, 0, 72, 0
1, 38720, Note_on_c, 0, 76, 80
1, 38871, Note_on_c, 0, 76, 0
1, 38880, Note_on_c, 0, 79, 80
1, 39183, Note_on_c, 0, 79, 0
1, 39200, Note_on_c, 0, 76, 80
1, 39351, Note_on_c, 0, 76, 0
1, 39360, Note_on_c, 0, 81, 80
1, 39663, Note_on_c, 0, 81, 0
1, 39680, Note_on_c, 0, 76, 80
1, 39831, Note_on_c, 0, 76, 0
1, 39840, Note_on_c, 0, 79, 80
1, 40143, Note_on_c, 0, 79, 0
1, 40160, Note_on_c, 0, 74, 80
1, 40311, Note_on_c, 0, 74, 0
1, 40320, Note_on_c, 0, 76, 80
1, 40623, Note_on_c, 0, 76, 0
1, 40640, Note_on_c, 0, 72, 80
1, 40791, Note_on_c, 0, 72, 0
1, 40800, Note_on_c, 0, 74, 80
1, 41103, Note_on_c, 0, 74, 0
1, 41120, Note_on_c, 0, 76, 80
1, 41271, Note_on_c, 0, 76, 0
1, 41280, Note_on_c, 0, 72, 80
1, 41583, Note_on_c, 0, 72, 0
1, 41600, Note_on_c, 0, 74, 80
1, 41751, Note_on_c, 0, 74, 0
1, 41760, Note_on_c, 0, 72, 80
1, 42063, Note_on_c, 0, 72, 0
1, 42080, Note_on_c, 0, 74, 80
1, 42231, Note_on_c, 0, 74, 0
1, 42240, Note_on_c, 0, 76, 80
1, 42695, Note_on_c, 0, 76, 0
1, 42720, Note_on_c, 0, 74, 80
1, 43023, Note_on_c, 0, 74, 0
1, 43040, Note_on_c, 0, 72, 80
1, 43191, Note_on_c, 0, 72, 0
1, 43200, Note_on_c, 0, 76, 80
1, 43503, Note_on_c, 0, 76, 0
1, 43520, Note_on_c, 0, 79, 80
1, 43671, Note_on_c, 0, 79, 0
1, 43680, Note_on_c, 0, 74, 80
1, 43983, Note_on_c, 0, 74, 0
1, 44000, Note_on_c, 0, 76, 80
1, 44151, Note_on_c, 0, 76, 0
1, 44160, Note_on_c, 0, 74, 80
1, 44463, Note_on_c, 0, 74, 0
1, 44480, Note_on_c, 0, 72, 80
1, 44631, Note_on_c, 0, 72, 0
1, 44640, Note_on_c, 0, 74, 80
1, 44943, Note_on_c, 0, 74, 0
1, 44960, Note_on_c, 0, 72, 80
1, 45339, Note_on_c, 0, 72, 0
1, 45340, End_track
2, 0, Start_track
2, 0, Title_t, "Classical Guitar, Lute\000"
2, 0, Key_signature, 0, "major"
2, 0, Control_c, 2, 121, 0
2, 0, Program_c, 2, 24
2, 0, Control_c, 2, 7, 100
2, 0, Control_c, 2, 10, 64
2, 0, Control_c, 2, 91, 0
2, 0, Control_c, 2, 93, 0
2, 0, MIDI_port, 0
2, 0, Note_on_c, 2, 53, 80
2, 0, Control_c, 3, 121, 0
2, 0, Program_c, 3, 28
2, 0, Control_c, 3, 7, 100
2, 0, Control_c, 3, 10, 64
2, 0, Control_c, 3, 91, 0
2, 0, Control_c, 3, 93, 0
2, 0, MIDI_port, 0
2, 479, Note_on_c, 2, 53, 0
2, 480, Note_on_c, 2, 57, 80
2, 480, Note_on_c, 2, 60, 80
2, 480, Note_on_c, 2, 62, 80
2, 959, Note_on_c, 2, 57, 0
2, 959, Note_on_c, 2, 60, 0
2, 959, Note_on_c, 2, 62, 0
2, 960, Note_on_c, 2, 55, 80
2, 1439, Note_on_c, 2, 55, 0
2, 1440, Note_on_c, 2, 55, 80
2, 1440, Note_on_c, 2, 59, 80
2, 1440, Note_on_c, 2, 62, 80
2, 1919, Note_on_c, 2, 55, 0
2, 1919, Note_on_c, 2, 59, 0
2, 1919, Note_on_c, 2, 62, 0
2, 1920, Note_on_c, 2, 48, 80
2, 2399, Note_on_c, 2, 48, 0
2, 2400, Note_on_c, 2, 57, 80
2, 2400, Note_on_c, 2, 60, 80
2, 2400, Note_on_c, 2, 64, 80
2, 2879, Note_on_c, 2, 57, 0
2, 2879, Note_on_c, 2, 60, 0
2, 2879, Note_on_c, 2, 64, 0
2, 2880, Note_on_c, 2, 57, 80
2, 3359, Note_on_c, 2, 57, 0
2, 3360, Note_on_c, 2, 55, 80
2, 3360, Note_on_c, 2, 60, 80
2, 3360, Note_on_c, 2, 64, 80
2, 3839, Note_on_c, 2, 55, 0
2, 3839, Note_on_c, 2, 60, 0
2, 3839, Note_on_c, 2, 64, 0
2, 3840, Note_on_c, 2, 50, 80
2, 4319, Note_on_c, 2, 50, 0
2, 4320, Note_on_c, 2, 57, 80
2, 4320, Note_on_c, 2, 60, 80
2, 4320, Note_on_c, 2, 64, 80
2, 4799, Note_on_c, 2, 57, 0
2, 4799, Note_on_c, 2, 60, 0
2, 4799, Note_on_c, 2, 64, 0
2, 4800, Note_on_c, 2, 53, 80
2, 5279, Note_on_c, 2, 53, 0
2, 5280, Note_on_c, 2, 55, 80
2, 5280, Note_on_c, 2, 62, 80
2, 5280, Note_on_c, 2, 64, 80
2, 5759, Note_on_c, 2, 55, 0
2, 5759, Note_on_c, 2, 62, 0
2, 5759, Note_on_c, 2, 64, 0
2, 5760, Note_on_c, 2, 48, 80
2, 6239, Note_on_c, 2, 48, 0
2, 6240, Note_on_c, 2, 55, 80
2, 6240, Note_on_c, 2, 60, 80
2, 6240, Note_on_c, 2, 64, 80
2, 6719, Note_on_c, 2, 55, 0
2, 6719, Note_on_c, 2, 60, 0
2, 6719, Note_on_c, 2, 64, 0
2, 6720, Note_on_c, 2, 52, 80
2, 7199, Note_on_c, 2, 52, 0
2, 7200, Note_on_c, 2, 55, 80
2, 7200, Note_on_c, 2, 60, 80
2, 7200, Note_on_c, 2, 64, 80
2, 7679, Note_on_c, 2, 55, 0
2, 7679, Note_on_c, 2, 60, 0
2, 7679, Note_on_c, 2, 64, 0
2, 7680, Note_on_c, 2, 53, 80
2, 8159, Note_on_c, 2, 53, 0
2, 8160, Note_on_c, 2, 57, 80
2, 8160, Note_on_c, 2, 60, 80
2, 8160, Note_on_c, 2, 62, 80
2, 8639, Note_on_c, 2, 57, 0
2, 8639, Note_on_c, 2, 60, 0
2, 8639, Note_on_c, 2, 62, 0
2, 8640, Note_on_c, 2, 55, 80
2, 9119, Note_on_c, 2, 55, 0
2, 9120, Note_on_c, 2, 55, 80
2, 9120, Note_on_c, 2, 59, 80
2, 9120, Note_on_c, 2, 62, 80
2, 9599, Note_on_c, 2, 55, 0
2, 9599, Note_on_c, 2, 59, 0
2, 9599, Note_on_c, 2, 62, 0
2, 9600, Note_on_c, 2, 48, 80
2, 10079, Note_on_c, 2, 48, 0
2, 10080, Note_on_c, 2, 57, 80
2, 10080, Note_on_c, 2, 60, 80
2, 10080, Note_on_c, 2, 64, 80
2, 10559, Note_on_c, 2, 57, 0
2, 10559, Note_on_c, 2, 60, 0
2, 10559, Note_on_c, 2, 64, 0
2, 10560, Note_on_c, 2, 57, 80
2, 11039, Note_on_c, 2, 57, 0
2, 11040, Note_on_c, 2, 57, 80
2, 11040, Note_on_c, 2, 60, 80
2, 11040, Note_on_c, 2, 64, 80
2, 11040, Note_on_c, 2, 67, 80
2, 11519, Note_on_c, 2, 57, 0
2, 11519, Note_on_c, 2, 60, 0
2, 11519, Note_on_c, 2, 64, 0
2, 11519, Note_on_c, 2, 67, 0
2, 11520, Note_on_c, 2, 50, 80
2, 11999, Note_on_c, 2, 50, 0
2, 12000, Note_on_c, 2, 57, 80
2, 12000, Note_on_c, 2, 60, 80
2, 12000, Note_on_c, 2, 64, 80
2, 12479, Note_on_c, 2, 57, 0
2, 12479, Note_on_c, 2, 60, 0
2, 12479, Note_on_c, 2, 64, 0
2, 12480, Note_on_c, 2, 53, 80
2, 12959, Note_on_c, 2, 53, 0
2, 12960, Note_on_c, 2, 55, 80
2, 12960, Note_on_c, 2, 62, 80
2, 12960, Note_on_c, 2, 64, 80
2, 13439, Note_on_c, 2, 55, 0
2, 13439, Note_on_c, 2, 62, 0
2, 13439, Note_on_c, 2, 64, 0
2, 13440, Note_on_c, 2, 48, 80
2, 13919, Note_on_c, 2, 48, 0
2, 13920, Note_on_c, 2, 50, 80
2, 14399, Note_on_c, 2, 50, 0
2, 14400, Note_on_c, 2, 52, 80
2, 14879, Note_on_c, 2, 52, 0
2, 14880, Note_on_c, 2, 53, 80
2, 15359, Note_on_c, 2, 53, 0
2, 15360, Note_on_c, 2, 53, 80
2, 15839, Note_on_c, 2, 53, 0
2, 15840, Note_on_c, 2, 57, 80
2, 15840, Note_on_c, 2, 60, 80
2, 15840, Note_on_c, 2, 65, 80
2, 16319, Note_on_c, 2, 57, 0
2, 16319, Note_on_c, 2, 60, 0
2, 16319, Note_on_c, 2, 65, 0
2, 16320, Note_on_c, 2, 48, 80
2, 16799, Note_on_c, 2, 48, 0
2, 16800, Note_on_c, 2, 57, 80
2, 16800, Note_on_c, 2, 60, 80
2, 16800, Note_on_c, 2, 65, 80
2, 17279, Note_on_c, 2, 57, 0
2, 17279, Note_on_c, 2, 60, 0
2, 17279, Note_on_c, 2, 65, 0
2, 17280, Note_on_c, 2, 52, 80
2, 17759, Note_on_c, 2, 52, 0
2, 17760, Note_on_c, 2, 55, 80
2, 17760, Note_on_c, 2, 57, 80
2, 17760, Note_on_c, 2, 60, 80
2, 17760, Note_on_c, 2, 64, 80
2, 18239, Note_on_c, 2, 55, 0
2, 18239, Note_on_c, 2, 57, 0
2, 18239, Note_on_c, 2, 60, 0
2, 18239, Note_on_c, 2, 64, 0
2, 18240, Note_on_c, 2, 57, 80
2, 18719, Note_on_c, 2, 57, 0
2, 18720, Note_on_c, 2, 55, 80
2, 18720, Note_on_c, 2, 57, 80
2, 18720, Note_on_c, 2, 60, 80
2, 18720, Note_on_c, 2, 65, 80
2, 19199, Note_on_c, 2, 55, 0
2, 19199, Note_on_c, 2, 57, 0
2, 19199, Note_on_c, 2, 60, 0
2, 19199, Note_on_c, 2, 65, 0
2, 19200, Note_on_c, 2, 53, 80
2, 19679, Note_on_c, 2, 53, 0
2, 19680, Note_on_c, 2, 57, 80
2, 19680, Note_on_c, 2, 60, 80
2, 19680, Note_on_c, 2, 62, 80
2, 19680, Note_on_c, 2, 65, 80
2, 20159, Note_on_c, 2, 57, 0
2, 20159, Note_on_c, 2, 60, 0
2, 20159, Note_on_c, 2, 62, 0
2, 20159, Note_on_c, 2, 65, 0
2, 20160, Note_on_c, 2, 57, 80
2, 20639, Note_on_c, 2, 57, 0
2, 20640, Note_on_c, 2, 57, 80
2, 20640, Note_on_c, 2, 60, 80
2, 20640, Note_on_c, 2, 62, 80
2, 20640, Note_on_c, 2, 65, 80
2, 21119, Note_on_c, 2, 57, 0
2, 21119, Note_on_c, 2, 60, 0
2, 21119, Note_on_c, 2, 62, 0
2, 21119, Note_on_c, 2, 65, 0
2, 21120, Note_on_c, 2, 52, 80
2, 21599, Note_on_c, 2, 52, 0
2, 21600, Note_on_c, 2, 55, 80
2, 21600, Note_on_c, 2, 60, 80
2, 21600, Note_on_c, 2, 64, 80
2, 21839, Note_on_c, 2, 55, 0
2, 21839, Note_on_c, 2, 60, 0
2, 21839, Note_on_c, 2, 64, 0
2, 22080, Note_on_c, 2, 55, 80
2, 22559, Note_on_c, 2, 55, 0
2, 22560, Note_on_c, 2, 55, 80
2, 22560, Note_on_c, 2, 60, 80
2, 22799, Note_on_c, 2, 55, 0
2, 22799, Note_on_c, 2, 60, 0
2, 23040, Note_on_c, 2, 53, 80
2, 23519, Note_on_c, 2, 53, 0
2, 23520, Note_on_c, 2, 57, 80
2, 23520, Note_on_c, 2, 60, 80
2, 23520, Note_on_c, 2, 65, 80
2, 23759, Note_on_c, 2, 57, 0
2, 23759, Note_on_c, 2, 60, 0
2, 23759, Note_on_c, 2, 65, 0
2, 24000, Note_on_c, 2, 48, 80
2, 24479, Note_on_c, 2, 48, 0
2, 24480, Note_on_c, 2, 57, 80
2, 24480, Note_on_c, 2, 60, 80
2, 24480, Note_on_c, 2, 65, 80
2, 24719, Note_on_c, 2, 57, 0
2, 24719, Note_on_c, 2, 60, 0
2, 24719, Note_on_c, 2, 65, 0
2, 24960, Note_on_c, 2, 52, 80
2, 25439, Note_on_c, 2, 52, 0
2, 25440, Note_on_c, 2, 55, 80
2, 25440, Note_on_c, 2, 57, 80
2, 25440, Note_on_c, 2, 60, 80
2, 25440, Note_on_c, 2, 64, 80
2, 25679, Note_on_c, 2, 55, 0
2, 25679, Note_on_c, 2, 57, 0
2, 25679, Note_on_c, 2, 60, 0
2, 25679, Note_on_c, 2, 64, 0
2, 25920, Note_on_c, 2, 57, 80
2, 26399, Note_on_c, 2, 57, 0
2, 26400, Note_on_c, 2, 55, 80
2, 26400, Note_on_c, 2, 57, 80
2, 26400, Note_on_c, 2, 60, 80
2, 26400, Note_on_c, 2, 65, 80
2, 26639, Note_on_c, 2, 55, 0
2, 26639, Note_on_c, 2, 57, 0
2, 26639, Note_on_c, 2, 60, 0
2, 26639, Note_on_c, 2, 65, 0
2, 26880, Note_on_c, 2, 53, 80
2, 27359, Note_on_c, 2, 53, 0
2, 27360, Note_on_c, 2, 57, 80
2, 27360, Note_on_c, 2, 60, 80
2, 27360, Note_on_c, 2, 62, 80
2, 27360, Note_on_c, 2, 65, 80
2, 27599, Note_on_c, 2, 57, 0
2, 27599, Note_on_c, 2, 60, 0
2, 27599, Note_on_c, 2, 62, 0
2, 27599, Note_on_c, 2, 65, 0
2, 27840, Note_on_c, 2, 57, 80
2, 28319, Note_on_c, 2, 57, 0
2, 28320, Note_on_c, 2, 57, 80
2, 28320, Note_on_c, 2, 60, 80
2, 28320, Note_on_c, 2, 62, 80
2, 28320, Note_on_c, 2, 65, 80
2, 28559, Note_on_c, 2, 57, 0
2, 28559, Note_on_c, 2, 60, 0
2, 28559, Note_on_c, 2, 62, 0
2, 28559, Note_on_c, 2, 65, 0
2, 28800, Note_on_c, 2, 48, 80
2, 29279, Note_on_c, 2, 48, 0
2, 29280, Note_on_c, 2, 50, 80
2, 29759, Note_on_c, 2, 50, 0
2, 29760, Note_on_c, 2, 52, 80
2, 30239, Note_on_c, 2, 52, 0
2, 30240, Note_on_c, 2, 53, 80
2, 30719, Note_on_c, 2, 53, 0
2, 30720, Note_on_c, 2, 53, 80
2, 31199, Note_on_c, 2, 53, 0
2, 31200, Note_on_c, 2, 57, 80
2, 31200, Note_on_c, 2, 60, 80
2, 31200, Note_on_c, 2, 62, 80
2, 31200, Note_on_c, 2, 65, 80
2, 31679, Note_on_c, 2, 57, 0
2, 31679, Note_on_c, 2, 60, 0
2, 31679, Note_on_c, 2, 62, 0
2, 31679, Note_on_c, 2, 65, 0
2, 31680, Note_on_c, 2, 55, 80
2, 32159, Note_on_c, 2, 55, 0
2, 32160, Note_on_c, 2, 55, 80
2, 32160, Note_on_c, 2, 59, 80
2, 32160, Note_on_c, 2, 62, 80
2, 32639, Note_on_c, 2, 55, 0
2, 32639, Note_on_c, 2, 59, 0
2, 32639, Note_on_c, 2, 62, 0
2, 32640, Note_on_c, 2, 48, 80
2, 33119, Note_on_c, 2, 48, 0
2, 33120, Note_on_c, 2, 57, 80
2, 33120, Note_on_c, 2, 60, 80
2, 33120, Note_on_c, 2, 64, 80
2, 33599, Note_on_c, 2, 57, 0
2, 33599, Note_on_c, 2, 60, 0
2, 33599, Note_on_c, 2, 64, 0
2, 33600, Note_on_c, 2, 57, 80
2, 34079, Note_on_c, 2, 57, 0
2, 34080, Note_on_c, 2, 55, 80
2, 34080, Note_on_c, 2, 60, 80
2, 34080, Note_on_c, 2, 64, 80
2, 34559, Note_on_c, 2, 55, 0
2, 34559, Note_on_c, 2, 60, 0
2, 34559, Note_on_c, 2, 64, 0
2, 34560, Note_on_c, 2, 50, 80
2, 35039, Note_on_c, 2, 50, 0
2, 35040, Note_on_c, 2, 57, 80
2, 35040, Note_on_c, 2, 60, 80
2, 35040, Note_on_c, 2, 64, 80
2, 35279, Note_on_c, 2, 57, 0
2, 35279, Note_on_c, 2, 60, 0
2, 35279, Note_on_c, 2, 64, 0
2, 35520, Note_on_c, 2, 53, 80
2, 35999, Note_on_c, 2, 53, 0
2, 36000, Note_on_c, 2, 55, 80
2, 36000, Note_on_c, 2, 59, 80
2, 36000, Note_on_c, 2, 65, 80
2, 36239, Note_on_c, 2, 55, 0
2, 36239, Note_on_c, 2, 59, 0
2, 36239, Note_on_c, 2, 65, 0
2, 36480, Note_on_c, 2, 48, 80
2, 36959, Note_on_c, 2, 48, 0
2, 36960, Note_on_c, 2, 55, 80
2, 36960, Note_on_c, 2, 60, 80
2, 36960, Note_on_c, 2, 64, 80
2, 37199, Note_on_c, 2, 55, 0
2, 37199, Note_on_c, 2, 60, 0
2, 37199, Note_on_c, 2, 64, 0
2, 37440, Note_on_c, 2, 52, 80
2, 37919, Note_on_c, 2, 52, 0
2, 37920, Note_on_c, 2, 60, 80
2, 37920, Note_on_c, 2, 64, 80
2, 37920, Note_on_c, 2, 67, 80
2, 38159, Note_on_c, 2, 60, 0
2, 38159, Note_on_c, 2, 64, 0
2, 38159, Note_on_c, 2, 67, 0
2, 38400, Note_on_c, 2, 57, 80
2, 38879, Note_on_c, 2, 57, 0
2, 38880, Note_on_c, 2, 57, 80
2, 38880, Note_on_c, 2, 60, 80
2, 38880, Note_on_c, 2, 62, 80
2, 38880, Note_on_c, 2, 65, 80
2, 39119, Note_on_c, 2, 57, 0
2, 39119, Note_on_c, 2, 60, 0
2, 39119, Note_on_c, 2, 62, 0
2, 39119, Note_on_c, 2, 65, 0
2, 39360, Note_on_c, 2, 55, 80
2, 39839, Note_on_c, 2, 55, 0
2, 39840, Note_on_c, 2, 55, 80
2, 39840, Note_on_c, 2, 59, 80
2, 39840, Note_on_c, 2, 62, 80
2, 40079, Note_on_c, 2, 55, 0
2, 40079, Note_on_c, 2, 59, 0
2, 40079, Note_on_c, 2, 62, 0
2, 40320, Note_on_c, 2, 48, 80
2, 40799, Note_on_c, 2, 48, 0
2, 40800, Note_on_c, 2, 57, 80
2, 40800, Note_on_c, 2, 60, 80
2, 40800, Note_on_c, 2, 64, 80
2, 41279, Note_on_c, 2, 57, 0
2, 41279, Note_on_c, 2, 60, 0
2, 41279, Note_on_c, 2, 64, 0
2, 41280, Note_on_c, 2, 57, 80
2, 41759, Note_on_c, 2, 57, 0
2, 41760, Note_on_c, 2, 57, 80
2, 41760, Note_on_c, 2, 60, 80
2, 41760, Note_on_c, 2, 64, 80
2, 41760, Note_on_c, 2, 67, 80
2, 42239, Note_on_c, 2, 57, 0
2, 42239, Note_on_c, 2, 60, 0
2, 42239, Note_on_c, 2, 64, 0
2, 42239, Note_on_c, 2, 67, 0
2, 42240, Note_on_c, 2, 50, 80
2, 42719, Note_on_c, 2, 50, 0
2, 42720, Note_on_c, 2, 57, 80
2, 42720, Note_on_c, 2, 60, 80
2, 42720, Note_on_c, 2, 64, 80
2, 42959, Note_on_c, 2, 57, 0
2, 42959, Note_on_c, 2, 60, 0
2, 42959, Note_on_c, 2, 64, 0
2, 43200, Note_on_c, 2, 53, 80
2, 43679, Note_on_c, 2, 53, 0
2, 43680, Note_on_c, 2, 55, 80
2, 43680, Note_on_c, 2, 59, 80
2, 43680, Note_on_c, 2, 65, 80
2, 43919, Note_on_c, 2, 55, 0
2, 43919, Note_on_c, 2, 59, 0
2, 43919, Note_on_c, 2, 65, 0
2, 43920, End_track
3, 0, Start_track
3, 0, Title_t, "Electric Bass, Bass\000"
3, 0, Key_signature, 0, "major"
3, 0, Control_c, 1, 121, 0
3, 0, Program_c, 1, 33
3, 0, Control_c, 1, 7, 100
3, 0, Control_c, 1, 10, 64
3, 0, Control_c, 1, 91, 0
3, 0, Control_c, 1, 93, 0
3, 0, MIDI_port, 0
3, 0, Note_on_c, 1, 53, 80
3, 0, Control_c, 4, 121, 0
3, 0, Program_c, 4, 36
3, 0, Control_c, 4, 7, 100
3, 0, Control_c, 4, 10, 64
3, 0, Control_c, 4, 91, 0
3, 0, Control_c, 4, 93, 0
3, 0, MIDI_port, 0
3, 0, Control_c, 5, 121, 0
3, 0, Program_c, 5, 37
3, 0, Control_c, 5, 7, 100
3, 0, Control_c, 5, 10, 64
3, 0, Control_c, 5, 91, 0
3, 0, Control_c, 5, 93, 0
3, 0, MIDI_port, 0
3, 959, Note_on_c, 1, 53, 0
3, 960, Note_on_c, 1, 55, 80
3, 1919, Note_on_c, 1, 55, 0
3, 1920, Note_on_c, 1, 60, 80
3, 2879, Note_on_c, 1, 60, 0
3, 2880, Note_on_c, 1, 57, 80
3, 3839, Note_on_c, 1, 57, 0
3, 3840, Note_on_c, 1, 62, 80
3, 4799, Note_on_c, 1, 62, 0
3, 4800, Note_on_c, 1, 53, 80
3, 5759, Note_on_c, 1, 53, 0
3, 5760, Note_on_c, 1, 60, 80
3, 6719, Note_on_c, 1, 60, 0
3, 6720, Note_on_c, 1, 52, 80
3, 7679, Note_on_c, 1, 52, 0
3, 7680, Note_on_c, 1, 53, 80
3, 8639, Note_on_c, 1, 53, 0
3, 8640, Note_on_c, 1, 55, 80
3, 9599, Note_on_c, 1, 55, 0
3, 9600, Note_on_c, 1, 60, 80
3, 10559, Note_on_c, 1, 60, 0
3, 10560, Note_on_c, 1, 57, 80
3, 11519, Note_on_c, 1, 57, 0
3, 11520, Note_on_c, 1, 62, 80
3, 12479, Note_on_c, 1, 62, 0
3, 12480, Note_on_c, 1, 55, 80
3, 13439, Note_on_c, 1, 55, 0
3, 13440, Note_on_c, 1, 60, 80
3, 13919, Note_on_c, 1, 60, 0
3, 13920, Note_on_c, 1, 62, 80
3, 14399, Note_on_c, 1, 62, 0
3, 14400, Note_on_c, 1, 64, 80
3, 14879, Note_on_c, 1, 64, 0
3, 14880, Note_on_c, 1, 65, 80
3, 15359, Note_on_c, 1, 65, 0
3, 15360, Note_on_c, 1, 53, 80
3, 16319, Note_on_c, 1, 53, 0
3, 16320, Note_on_c, 1, 60, 80
3, 17279, Note_on_c, 1, 60, 0
3, 17280, Note_on_c, 1, 64, 80
3, 18239, Note_on_c, 1, 64, 0
3, 18240, Note_on_c, 1, 57, 80
3, 19199, Note_on_c, 1, 57, 0
3, 19200, Note_on_c, 1, 62, 80
3, 20159, Note_on_c, 1, 62, 0
3, 20160, Note_on_c, 1, 57, 80
3, 21119, Note_on_c, 1, 57, 0
3, 21120, Note_on_c, 1, 60, 80
3, 22079, Note_on_c, 1, 60, 0
3, 22080, Note_on_c, 1, 52, 80
3, 23039, Note_on_c, 1, 52, 0
3, 23040, Note_on_c, 1, 53, 80
3, 23999, Note_on_c, 1, 53, 0
3, 24000, Note_on_c, 1, 48, 80
3, 24959, Note_on_c, 1, 48, 0
3, 24960, Note_on_c, 1, 52, 80
3, 25919, Note_on_c, 1, 52, 0
3, 25920, Note_on_c, 1, 57, 80
3, 26879, Note_on_c, 1, 57, 0
3, 26880, Note_on_c, 1, 62, 80
3, 27839, Note_on_c, 1, 62, 0
3, 27840, Note_on_c, 1, 57, 80
3, 28799, Note_on_c, 1, 57, 0
3, 28800, Note_on_c, 1, 60, 80
3, 29279, Note_on_c, 1, 60, 0
3, 29280, Note_on_c, 1, 62, 80
3, 29759, Note_on_c, 1, 62, 0
3, 29760, Note_on_c, 1, 64, 80
3, 30239, Note_on_c, 1, 64, 0
3, 30240, Note_on_c, 1, 65, 80
3, 30719, Note_on_c, 1, 65, 0
3, 30720, Note_on_c, 1, 53, 80
3, 31679, Note_on_c, 1, 53, 0
3, 31680, Note_on_c, 1, 55, 80
3, 32639, Note_on_c, 1, 55, 0
3, 32640, Note_on_c, 1, 60, 80
3, 33599, Note_on_c, 1, 60, 0
3, 33600, Note_on_c, 1, 57, 80
3, 34559, Note_on_c, 1, 57, 0
3, 34560, Note_on_c, 1, 62, 80
3, 35519, Note_on_c, 1, 62, 0
3, 35520, Note_on_c, 1, 53, 80
3, 36479, Note_on_c, 1, 53, 0
3, 36480, Note_on_c, 1, 60, 80
3, 37439, Note_on_c, 1, 60, 0
3, 37440, Note_on_c, 1, 52, 80
3, 38399, Note_on_c, 1, 52, 0
3, 38400, Note_on_c, 1, 53, 80
3, 39359, Note_on_c, 1, 53, 0
3, 39360, Note_on_c, 1, 55, 80
3, 40319, Note_on_c, 1, 55, 0
3, 40320, Note_on_c, 1, 60, 80
3, 41279, Note_on_c, 1, 60, 0
3, 41280, Note_on_c, 1, 57, 80
3, 42239, Note_on_c, 1, 57, 0
3, 42240, Note_on_c, 1, 62, 80
3, 43199, Note_on_c, 1, 62, 0
3, 43200, Note_on_c, 1, 55, 80
3, 44159, Note_on_c, 1, 55, 0
3, 44160, Note_on_c, 1, 48, 80
3, 46079, Note_on_c, 1, 48, 0
3, 46080, End_track
0, 0, End_of_file
