0, 0, Header, 1, 5, 480
1, 0, Start_track
1, 0, Title_t, "Soprano, Soprano, Voice\000"
1, 0, Time_signature, 4, 2, 24, 8
1, 0, Key_signature, 0, "major"
1, 0, Tempo, 895522
1, 0, Control_c, 1, 121, 0
1, 0, Program_c, 1, 52
1, 0, Control_c, 1, 7, 100
1, 0, Control_c, 1, 10, 64
1, 0, Control_c, 1, 91, 0
1, 0, Control_c, 1, 93, 0
1, 0, MIDI_port, 0
1, 0, Note_on_c, 1, 71, 80
1, 0, Control_c, 1, 2, 80
1, 0, Note_on_c, 1, 76, 80
1, 800, Note_on_c, 1, 72, 80
1, 959, Note_on_c, 1, 71, 0
1, 959, Note_on_c, 1, 76, 0
1, 959, Note_on_c, 1, 72, 0
1, 960, Note_on_c, 1, 79, 80
1, 1679, Note_on_c, 1, 79, 0
1, 1760, Note_on_c, 1, 76, 80
1, 1919, Note_on_c, 1, 76, 0
1, 1920, Note_on_c, 1, 71, 80
1, 3479, Note_on_c, 1, 71, 0
1, 3600, Note_on_c, 1, 69, 80
1, 3839, Note_on_c, 1, 69, 0
1, 3840, Note_on_c, 1, 71, 80
1, 3840, Note_on_c, 1, 76, 80
1, 4640, Note_on_c, 1, 72, 80
1, 4799, Note_on_c, 1, 71, 0
1, 4799, Note_on_c, 1, 76, 0
1, 4799, Note_on_c, 1, 72, 0
1, 4800, Note_on_c, 1, 79, 80
1, 5519, Note_on_c, 1, 79, 0
1, 5600, Note_on_c, 1, 76, 80
1, 5759, Note_on_c, 1, 76, 0
1, 5760, Note_on_c, 1, 71, 80
1, 7199, Note_on_c, 1, 71, 0
1, 7200, Note_on_c, 1, 69, 80
1, 7439, Note_on_c, 1, 69, 0
1, 7440, Note_on_c, 1, 72, 80
1, 7519, Note_on_c, 1, 72, 0
1, 7520, Note_on_c, 1, 74, 80
1, 7599, Note_on_c, 1, 74, 0
1, 7600, Note_on_c, 1, 76, 80
1, 7919, Note_on_c, 1, 76, 0
1, 7920, Note_on_c, 1, 76, 80
1, 7979, Note_on_c, 1, 76, 0
1, 7980, Note_on_c, 1, 77, 80
1, 8159, Note_on_c, 1, 77, 0
1, 8160, Note_on_c, 1, 76, 80
1, 8399, Note_on_c, 1, 76, 0
1, 8400, Note_on_c, 1, 74, 80
1, 8459, Note_on_c, 1, 74, 0
1, 8460, Note_on_c, 1, 72, 80
1, 8639, Note_on_c, 1, 72, 0
1, 8640, Note_on_c, 1, 76, 80
1, 8819, Note_on_c, 1, 76, 0
1, 8820, Note_on_c, 1, 76, 80
1, 8879, Note_on_c, 1, 76, 0
1, 8880, Note_on_c, 1, 76, 80
1, 8999, Note_on_c, 1, 76, 0
1, 9000, Note_on_c, 1, 77, 80
1, 9119, Note_on_c, 1, 77, 0
1, 9120, Note_on_c, 1, 76, 80
1, 9299, Note_on_c, 1, 76, 0
1, 9480, Note_on_c, 1, 72, 80
1, 9599, Note_on_c, 1, 72, 0
1, 9600, Note_on_c, 1, 76, 80
1, 9839, Note_on_c, 1, 76, 0
1, 9840, Note_on_c, 1, 77, 80
1, 10199, Note_on_c, 1, 77, 0
1, 10200, Note_on_c, 1, 76, 80
1, 10319, Note_on_c, 1, 76, 0
1, 10320, Note_on_c, 1, 74, 80
1, 10559, Note_on_c, 1, 74, 0
1, 10560, Note_on_c, 1, 69, 80
1, 10799, Note_on_c, 1, 69, 0
1, 11280, Note_on_c, 1, 72, 80
1, 11359, Note_on_c, 1, 72, 0
1, 11360, Note_on_c, 1, 74, 80
1, 11439, Note_on_c, 1, 74, 0
1, 11440, Note_on_c, 1, 76, 80
1, 11759, Note_on_c, 1, 76, 0
1, 11760, Note_on_c, 1, 76, 80
1, 11819, Note_on_c, 1, 76, 0
1, 11820, Note_on_c, 1, 77, 80
1, 11999, Note_on_c, 1, 77, 0
1, 12000, Note_on_c, 1, 76, 80
1, 12239, Note_on_c, 1, 76, 0
1, 12240, Note_on_c, 1, 74, 80
1, 12319, Note_on_c, 1, 74, 0
1, 12320, Note_on_c, 1, 72, 80
1, 12399, Note_on_c, 1, 72, 0
1, 12400, Note_on_c, 1, 72, 80
1, 12479, Note_on_c, 1, 72, 0
1, 12480, Note_on_c, 1, 76, 80
1, 12539, Note_on_c, 1, 76, 0
1, 12540, Note_on_c, 1, 76, 80
1, 12599, Note_on_c, 1, 76, 0
1, 12600, Note_on_c, 1, 77, 80
1, 12959, Note_on_c, 1, 77, 0
1, 12960, Note_on_c, 1, 76, 80
1, 13199, Note_on_c, 1, 76, 0
1, 13200, Note_on_c, 1, 74, 80
1, 13319, Note_on_c, 1, 74, 0
1, 13320, Note_on_c, 1, 72, 80
1, 13679, Note_on_c, 1, 72, 0
1, 15120, Note_on_c, 1, 72, 80
1, 15199, Note_on_c, 1, 72, 0
1, 15200, Note_on_c, 1, 74, 80
1, 15279, Note_on_c, 1, 74, 0
1, 15280, Note_on_c, 1, 76, 80
1, 15599, Note_on_c, 1, 76, 0
1, 15600, Note_on_c, 1, 76, 80
1, 15659, Note_on_c, 1, 76, 0
1, 15660, Note_on_c, 1, 77, 80
1, 15839, Note_on_c, 1, 77, 0
1, 15840, Note_on_c, 1, 74, 80
1, 16079, Note_on_c, 1, 74, 0
1, 16080, Note_on_c, 1, 72, 80
1, 16199, Note_on_c, 1, 72, 0
1, 16200, Note_on_c, 1, 74, 80
1, 16319, Note_on_c, 1, 74, 0
1, 16320, Note_on_c, 1, 76, 80
1, 16439, Note_on_c, 1, 76, 0
1, 16440, Note_on_c, 1, 76, 80
1, 16559, Note_on_c, 1, 76, 0
1, 16560, Note_on_c, 1, 77, 80
1, 16679, Note_on_c, 1, 77, 0
1, 16680, Note_on_c, 1, 76, 80
1, 17039, Note_on_c, 1, 76, 0
1, 17160, Note_on_c, 1, 72, 80
1, 17279, Note_on_c, 1, 72, 0
1, 17280, Note_on_c, 1, 76, 80
1, 17519, Note_on_c, 1, 76, 0
1, 17520, Note_on_c, 1, 77, 80
1, 17759, Note_on_c, 1, 77, 0
1, 17880, Note_on_c, 1, 76, 80
1, 17999, Note_on_c, 1, 76, 0
1, 18000, Note_on_c, 1, 74, 80
1, 18239, Note_on_c, 1, 74, 0
1, 18240, Note_on_c, 1, 77, 80
1, 18479, Note_on_c, 1, 77, 0
1, 18960, Note_on_c, 1, 72, 80
1, 19039, Note_on_c, 1, 72, 0
1, 19040, Note_on_c, 1, 74, 80
1, 19119, Note_on_c, 1, 74, 0
1, 19120, Note_on_c, 1, 76, 80
1, 19319, Note_on_c, 1, 76, 0
1, 19320, Note_on_c, 1, 76, 80
1, 19439, Note_on_c, 1, 76, 0
1, 19440, Note_on_c, 1, 77, 80
1, 19679, Note_on_c, 1, 77, 0
1, 19680, Note_on_c, 1, 76, 80
1, 20039, Note_on_c, 1, 76, 0
1, 20040, Note_on_c, 1, 72, 80
1, 20099, Note_on_c, 1, 72, 0
1, 20100, Note_on_c, 1, 72, 80
1, 20159, Note_on_c, 1, 72, 0
1, 20160, Note_on_c, 1, 76, 80
1, 20339, Note_on_c, 1, 76, 0
1, 20340, Note_on_c, 1, 74, 80
1, 20519, Note_on_c, 1, 74, 0
1, 20520, Note_on_c, 1, 77, 80
1, 20639, Note_on_c, 1, 77, 0
1, 20640, Note_on_c, 1, 76, 80
1, 20819, Note_on_c, 1, 76, 0
1, 20820, Note_on_c, 1, 74, 80
1, 20999, Note_on_c, 1, 74, 0
1, 21000, Note_on_c, 1, 72, 80
1, 21479, Note_on_c, 1, 72, 0
1, 21480, Note_on_c, 1, 69, 80
1, 21839, Note_on_c, 1, 69, 0
1, 22800, Note_on_c, 1, 79, 80
1, 23039, Note_on_c, 1, 79, 0
1, 23040, Note_on_c, 1, 79, 80
1, 23399, Note_on_c, 1, 79, 0
1, 23400, Note_on_c, 1, 76, 80
1, 23759, Note_on_c, 1, 76, 0
1, 23760, Note_on_c, 1, 79, 80
1, 23879, Note_on_c, 1, 79, 0
1, 23880, Note_on_c, 1, 79, 80
1, 24239, Note_on_c, 1, 79, 0
1, 24240, Note_on_c, 1, 76, 80
1, 24479, Note_on_c, 1, 76, 0
1, 24480, Note_on_c, 1, 76, 80
1, 24719, Note_on_c, 1, 76, 0
1, 24720, Note_on_c, 1, 79, 80
1, 24959, Note_on_c, 1, 79, 0
1, 24960, Note_on_c, 1, 81, 80
1, 25439, Note_on_c, 1, 81, 0
1, 25440, Note_on_c, 1, 79, 80
1, 25679, Note_on_c, 1, 79, 0
1, 25680, Note_on_c, 1, 79, 80
1, 25739, Note_on_c, 1, 79, 0
1, 25800, Note_on_c, 1, 76, 80
1, 26159, Note_on_c, 1, 76, 0
1, 26520, Note_on_c, 1, 72, 80
1, 26639, Note_on_c, 1, 72, 0
1, 26640, Note_on_c, 1, 76, 80
1, 26759, Note_on_c, 1, 76, 0
1, 26760, Note_on_c, 1, 79, 80
1, 26879, Note_on_c, 1, 79, 0
1, 26880, Note_on_c, 1, 79, 80
1, 27239, Note_on_c, 1, 79, 0
1, 27240, Note_on_c, 1, 76, 80
1, 27599, Note_on_c, 1, 76, 0
1, 27600, Note_on_c, 1, 79, 80
1, 27719, Note_on_c, 1, 79, 0
1, 27720, Note_on_c, 1, 79, 80
1, 28079, Note_on_c, 1, 79, 0
1, 28080, Note_on_c, 1, 76, 80
1, 28199, Note_on_c, 1, 76, 0
1, 28200, Note_on_c, 1, 76, 80
1, 28559, Note_on_c, 1, 76, 0
1, 28560, Note_on_c, 1, 76, 80
1, 28799, Note_on_c, 1, 76, 0
1, 28800, Note_on_c, 1, 81, 80
1, 29039, Note_on_c, 1, 81, 0
1, 29040, Note_on_c, 1, 83, 80
1, 29279, Note_on_c, 1, 83, 0
1, 29280, Note_on_c, 1, 81, 80
1, 29399, Note_on_c, 1, 81, 0
1, 29400, Note_on_c, 1, 79, 80
1, 29639, Note_on_c, 1, 79, 0
1, 29640, Note_on_c, 1, 76, 80
1, 29819, Note_on_c, 1, 76, 0
1, 29820, Note_on_c, 1, 74, 80
1, 29879, Note_on_c, 1, 74, 0
1, 29880, Note_on_c, 1, 72, 80
1, 30059, Note_on_c, 1, 72, 0
1, 30400, Note_on_c, 1, 72, 80
1, 30559, Note_on_c, 1, 72, 0
1, 30560, Note_on_c, 1, 72, 80
1, 30719, Note_on_c, 1, 72, 0
1, 30720, Note_on_c, 1, 77, 80
1, 30879, Note_on_c, 1, 77, 0
1, 30880, Note_on_c, 1, 76, 80
1, 31039, Note_on_c, 1, 76, 0
1, 31040, Note_on_c, 1, 74, 80
1, 31199, Note_on_c, 1, 74, 0
1, 31200, Note_on_c, 1, 77, 80
1, 31359, Note_on_c, 1, 77, 0
1, 31360, Note_on_c, 1, 76, 80
1, 31519, Note_on_c, 1, 76, 0
1, 31520, Note_on_c, 1, 74, 80
1, 31679, Note_on_c, 1, 74, 0
1, 31680, Note_on_c, 1, 77, 80
1, 31839, Note_on_c, 1, 77, 0
1, 31840, Note_on_c, 1, 76, 80
1, 31999, Note_on_c, 1, 76, 0
1, 32000, Note_on_c, 1, 74, 80
1, 32159, Note_on_c, 1, 74, 0
1, 32160, Note_on_c, 1, 77, 80
1, 32399, Note_on_c, 1, 77, 0
1, 32400, Note_on_c, 1, 76, 80
1, 32759, Note_on_c, 1, 76, 0
1, 32760, Note_on_c, 1, 74, 80
1, 32999, Note_on_c, 1, 74, 0
1, 33000, Note_on_c, 1, 77, 80
1, 33599, Note_on_c, 1, 77, 0
1, 34240, Note_on_c, 1, 72, 80
1, 34399, Note_on_c, 1, 72, 0
1, 34400, Note_on_c, 1, 72, 80
1, 34559, Note_on_c, 1, 72, 0
1, 34560, Note_on_c, 1, 77, 80
1, 34719, Note_on_c, 1, 77, 0
1, 34720, Note_on_c, 1, 76, 80
1, 34879, Note_on_c, 1, 76, 0
1, 34880, Note_on_c, 1, 74, 80
1, 35039, Note_on_c, 1, 74, 0
1, 35040, Note_on_c, 1, 77, 80
1, 35199, Note_on_c, 1, 77, 0
1, 35200, Note_on_c, 1, 76, 80
1, 35359, Note_on_c, 1, 76, 0
1, 35360, Note_on_c, 1, 74, 80
1, 35519, Note_on_c, 1, 74, 0
1, 35520, Note_on_c, 1, 77, 80
1, 35679, Note_on_c, 1, 77, 0
1, 35680, Note_on_c, 1, 76, 80
1, 35839, Note_on_c, 1, 76, 0
1, 35840, Note_on_c, 1, 74, 80
1, 35999, Note_on_c, 1, 74, 0
1, 36000, Note_on_c, 1, 77, 80
1, 36159, Note_on_c, 1, 77, 0
1, 36160, Note_on_c, 1, 76, 80
1, 36319, Note_on_c, 1, 76, 0
1, 36320, Note_on_c, 1, 74, 80
1, 36959, Note_on_c, 1, 74, 0
1, 36960, Note_on_c, 1, 77, 80
1, 37439, Note_on_c, 1, 77, 0
1, 37440, Note_on_c, 1, 76, 80
1, 38159, Note_on_c, 1, 76, 0
1, 38160, Note_on_c, 1, 74, 80
1, 38399, Note_on_c, 1, 74, 0
1, 38400, Time_signature, 2, 2, 24, 8
1, 39040, Note_on_c, 1, 72, 80
1, 39119, Note_on_c, 1, 72, 0
1, 39120, Note_on_c, 1, 72, 80
1, 39199, Note_on_c, 1, 72, 0
1, 39200, Note_on_c, 1, 74, 80
1, 39279, Note_on_c, 1, 74, 0
1, 39280, Note_on_c, 1, 76, 80
1, 39360, Time_signature, 4, 2, 24, 8
1, 39599, Note_on_c, 1, 76, 0
1, 39600, Note_on_c, 1, 76, 80
1, 39659, Note_on_c, 1, 76, 0
1, 39660, Note_on_c, 1, 77, 80
1, 39839, Note_on_c, 1, 77, 0
1, 39840, Note_on_c, 1, 76, 80
1, 40079, Note_on_c, 1, 76, 0
1, 40080, Note_on_c, 1, 74, 80
1, 40199, Note_on_c, 1, 74, 0
1, 40200, Note_on_c, 1, 72, 80
1, 40259, Note_on_c, 1, 72, 0
1, 40260, Note_on_c, 1, 76, 80
1, 40559, Note_on_c, 1, 76, 0
1, 40560, Note_on_c, 1, 76, 80
1, 40679, Note_on_c, 1, 76, 0
1, 40680, Note_on_c, 1, 77, 80
1, 40799, Note_on_c, 1, 77, 0
1, 40800, Note_on_c, 1, 74, 80
1, 41039, Note_on_c, 1, 74, 0
1, 41040, Note_on_c, 1, 72, 80
1, 41159, Note_on_c, 1, 72, 0
1, 41160, Note_on_c, 1, 74, 80
1, 41279, Note_on_c, 1, 74, 0
1, 41280, Note_on_c, 1, 76, 80
1, 41399, Note_on_c, 1, 76, 0
1, 41400, Note_on_c, 1, 77, 80
1, 41879, Note_on_c, 1, 77, 0
1, 41880, Note_on_c, 1, 76, 80
1, 41999, Note_on_c, 1, 76, 0
1, 42000, Note_on_c, 1, 74, 80
1, 42239, Note_on_c, 1, 74, 0
1, 42240, Note_on_c, 1, 76, 80
1, 42479, Note_on_c, 1, 76, 0
1, 42960, Note_on_c, 1, 72, 80
1, 43079, Note_on_c, 1, 72, 0
1, 43080, Note_on_c, 1, 74, 80
1, 43199, Note_on_c, 1, 74, 0
1, 43200, Note_on_c, 1, 76, 80
1, 43379, Note_on_c, 1, 76, 0
1, 43380, Note_on_c, 1, 76, 80
1, 43559, Note_on_c, 1, 76, 0
1, 43560, Note_on_c, 1, 77, 80
1, 43679, Note_on_c, 1, 77, 0
1, 43680, Note_on_c, 1, 76, 80
1, 43859, Note_on_c, 1, 76, 0
1, 43860, Note_on_c, 1, 74, 80
1, 44039, Note_on_c, 1, 74, 0
1, 44040, Note_on_c, 1, 72, 80
1, 44159, Note_on_c, 1, 72, 0
1, 44160, Note_on_c, 1, 76, 80
1, 44339, Note_on_c, 1, 76, 0
1, 44340, Note_on_c, 1, 76, 80
1, 44519, Note_on_c, 1, 76, 0
1, 44520, Note_on_c, 1, 77, 80
1, 44639, Note_on_c, 1, 77, 0
1, 44640, Note_on_c, 1, 76, 80
1, 44819, Note_on_c, 1, 76, 0
1, 44820, Note_on_c, 1, 74, 80
1, 44999, Note_on_c, 1, 74, 0
1, 45000, Note_on_c, 1, 72, 80
1, 45479, Note_on_c, 1, 72, 0
1, 45480, Note_on_c, 1, 69, 80
1, 45599, Note_on_c, 1, 69, 0
1, 46720, Note_on_c, 1, 72, 80
1, 46799, Note_on_c, 1, 72, 0
1, 46800, Note_on_c, 1, 72, 80
1, 46879, Note_on_c, 1, 72, 0
1, 46880, Note_on_c, 1, 74, 80
1, 46959, Note_on_c, 1, 74, 0
1, 46960, Note_on_c, 1, 76, 80
1, 47279, Note_on_c, 1, 76, 0
1, 47280, Note_on_c, 1, 76, 80
1, 47399, Note_on_c, 1, 76, 0
1, 47400, Note_on_c, 1, 77, 80
1, 47519, Note_on_c, 1, 77, 0
1, 47520, Note_on_c, 1, 76, 80
1, 47759, Note_on_c, 1, 76, 0
1, 47760, Note_on_c, 1, 72, 80
1, 47879, Note_on_c, 1, 72, 0
1, 47880, Note_on_c, 1, 72, 80
1, 47999, Note_on_c, 1, 72, 0
1, 48000, Note_on_c, 1, 76, 80
1, 48179, Note_on_c, 1, 76, 0
1, 48180, Note_on_c, 1, 76, 80
1, 48359, Note_on_c, 1, 76, 0
1, 48360, Note_on_c, 1, 77, 80
1, 48479, Note_on_c, 1, 77, 0
1, 48480, Note_on_c, 1, 76, 80
1, 48659, Note_on_c, 1, 76, 0
1, 48660, Note_on_c, 1, 74, 80
1, 48839, Note_on_c, 1, 74, 0
1, 48840, Note_on_c, 1, 72, 80
1, 48899, Note_on_c, 1, 72, 0
1, 48900, Note_on_c, 1, 74, 80
1, 49199, Note_on_c, 1, 74, 0
1, 49200, Note_on_c, 1, 77, 80
1, 49559, Note_on_c, 1, 77, 0
1, 49620, Note_on_c, 1, 76, 80
1, 49679, Note_on_c, 1, 76, 0
1, 49680, Note_on_c, 1, 74, 80
1, 49919, Note_on_c, 1, 74, 0
1, 49920, Note_on_c, 1, 76, 80
1, 50399, Note_on_c, 1, 76, 0
1, 50640, Note_on_c, 1, 72, 80
1, 50759, Note_on_c, 1, 72, 0
1, 50760, Note_on_c, 1, 74, 80
1, 50879, Note_on_c, 1, 74, 0
1, 50880, Note_on_c, 1, 76, 80
1, 51059, Note_on_c, 1, 76, 0
1, 51060, Note_on_c, 1, 76, 80
1, 51239, Note_on_c, 1, 76, 0
1, 51240, Note_on_c, 1, 77, 80
1, 51359, Note_on_c, 1, 77, 0
1, 51360, Note_on_c, 1, 76, 80
1, 51539, Note_on_c, 1, 76, 0
1, 51540, Note_on_c, 1, 74, 80
1, 51719, Note_on_c, 1, 74, 0
1, 51720, Note_on_c, 1, 72, 80
1, 51839, Note_on_c, 1, 72, 0
1, 51840, Note_on_c, 1, 76, 80
1, 52019, Note_on_c, 1, 76, 0
1, 52020, Note_on_c, 1, 74, 80
1, 52079, Note_on_c, 1, 74, 0
1, 52080, Note_on_c, 1, 77, 80
1, 52199, Note_on_c, 1, 77, 0
1, 52200, Note_on_c, 1, 76, 80
1, 52439, Note_on_c, 1, 76, 0
1, 52500, Note_on_c, 1, 74, 80
1, 52679, Note_on_c, 1, 74, 0
1, 52680, Note_on_c, 1, 72, 80
1, 53159, Note_on_c, 1, 72, 0
1, 53160, Note_on_c, 1, 69, 80
1, 53519, Note_on_c, 1, 69, 0
1, 54480, Note_on_c, 1, 79, 80
1, 54719, Note_on_c, 1, 79, 0
1, 54720, Note_on_c, 1, 79, 80
1, 55079, Note_on_c, 1, 79, 0
1, 55080, Note_on_c, 1, 76, 80
1, 55439, Note_on_c, 1, 76, 0
1, 55440, Note_on_c, 1, 79, 80
1, 55559, Note_on_c, 1, 79, 0
1, 55560, Note_on_c, 1, 79, 80
1, 55919, Note_on_c, 1, 79, 0
1, 55920, Note_on_c, 1, 76, 80
1, 56159, Note_on_c, 1, 76, 0
1, 56160, Note_on_c, 1, 76, 80
1, 56399, Note_on_c, 1, 76, 0
1, 56400, Note_on_c, 1, 74, 80
1, 56639, Note_on_c, 1, 74, 0
1, 56640, Note_on_c, 1, 81, 80
1, 57119, Note_on_c, 1, 81, 0
1, 57120, Note_on_c, 1, 79, 80
1, 57359, Note_on_c, 1, 79, 0
1, 57360, Note_on_c, 1, 79, 80
1, 57419, Note_on_c, 1, 79, 0
1, 57480, Note_on_c, 1, 76, 80
1, 57839, Note_on_c, 1, 76, 0
1, 58200, Note_on_c, 1, 72, 80
1, 58319, Note_on_c, 1, 72, 0
1, 58320, Note_on_c, 1, 76, 80
1, 58439, Note_on_c, 1, 76, 0
1, 58440, Note_on_c, 1, 79, 80
1, 58559, Note_on_c, 1, 79, 0
1, 58560, Note_on_c, 1, 79, 80
1, 58919, Note_on_c, 1, 79, 0
1, 58920, Note_on_c, 1, 76, 80
1, 59279, Note_on_c, 1, 76, 0
1, 59280, Note_on_c, 1, 79, 80
1, 59399, Note_on_c, 1, 79, 0
1, 59400, Note_on_c, 1, 79, 80
1, 59759, Note_on_c, 1, 79, 0
1, 59760, Note_on_c, 1, 76, 80
1, 59879, Note_on_c, 1, 76, 0
1, 59880, Note_on_c, 1, 76, 80
1, 60239, Note_on_c, 1, 76, 0
1, 60240, Note_on_c, 1, 76, 80
1, 60479, Note_on_c, 1, 76, 0
1, 60480, Note_on_c, 1, 81, 80
1, 60719, Note_on_c, 1, 81, 0
1, 60720, Note_on_c, 1, 83, 80
1, 60959, Note_on_c, 1, 83, 0
1, 60960, Note_on_c, 1, 81, 80
1, 61079, Note_on_c, 1, 81, 0
1, 61080, Note_on_c, 1, 79, 80
1, 61319, Note_on_c, 1, 79, 0
1, 61320, Note_on_c, 1, 76, 80
1, 61499, Note_on_c, 1, 76, 0
1, 61500, Note_on_c, 1, 74, 80
1, 61559, Note_on_c, 1, 74, 0
1, 61560, Note_on_c, 1, 72, 80
1, 61739, Note_on_c, 1, 72, 0
1, 62080, Note_on_c, 1, 72, 80
1, 62239, Note_on_c, 1, 72, 0
1, 62240, Note_on_c, 1, 72, 80
1, 62399, Note_on_c, 1, 72, 0
1, 62400, Note_on_c, 1, 77, 80
1, 62559, Note_on_c, 1, 77, 0
1, 62560, Note_on_c, 1, 76, 80
1, 62719, Note_on_c, 1, 76, 0
1, 62720, Note_on_c, 1, 74, 80
1, 62879, Note_on_c, 1, 74, 0
1, 62880, Note_on_c, 1, 77, 80
1, 63039, Note_on_c, 1, 77, 0
1, 63040, Note_on_c, 1, 76, 80
1, 63199, Note_on_c, 1, 76, 0
1, 63200, Note_on_c, 1, 74, 80
1, 63359, Note_on_c, 1, 74, 0
1, 63360, Note_on_c, 1, 77, 80
1, 63519, Note_on_c, 1, 77, 0
1, 63520, Note_on_c, 1, 76, 80
1, 63679, Note_on_c, 1, 76, 0
1, 63680, Note_on_c, 1, 74, 80
1, 63839, Note_on_c, 1, 74, 0
1, 63840, Note_on_c, 1, 77, 80
1, 64079, Note_on_c, 1, 77, 0
1, 64080, Note_on_c, 1, 76, 80
1, 64439, Note_on_c, 1, 76, 0
1, 64440, Note_on_c, 1, 74, 80
1, 64679, Note_on_c, 1, 74, 0
1, 64680, Note_on_c, 1, 77, 80
1, 65279, Note_on_c, 1, 77, 0
1, 65920, Note_on_c, 1, 72, 80
1, 66079, Note_on_c, 1, 72, 0
1, 66080, Note_on_c, 1, 72, 80
1, 66239, Note_on_c, 1, 72, 0
1, 66240, Note_on_c, 1, 77, 80
1, 66399, Note_on_c, 1, 77, 0
1, 66400, Note_on_c, 1, 76, 80
1, 66559, Note_on_c, 1, 76, 0
1, 66560, Note_on_c, 1, 74, 80
1, 66719, Note_on_c, 1, 74, 0
1, 66720, Note_on_c, 1, 77, 80
1, 66879, Note_on_c, 1, 77, 0
1, 66880, Note_on_c, 1, 76, 80
1, 67039, Note_on_c, 1, 76, 0
1, 67040, Note_on_c, 1, 74, 80
1, 67199, Note_on_c, 1, 74, 0
1, 67200, Note_on_c, 1, 77, 80
1, 67359, Note_on_c, 1, 77, 0
1, 67360, Note_on_c, 1, 76, 80
1, 67519, Note_on_c, 1, 76, 0
1, 67520, Note_on_c, 1, 74, 80
1, 67679, Note_on_c, 1, 74, 0
1, 67680, Note_on_c, 1, 77, 80
1, 67839, Note_on_c, 1, 77, 0
1, 67840, Note_on_c, 1, 76, 80
1, 67999, Note_on_c, 1, 76, 0
1, 68000, Note_on_c, 1, 74, 80
1, 68639, Note_on_c, 1, 74, 0
1, 68640, Note_on_c, 1, 77, 80
1, 69119, Note_on_c, 1, 77, 0
1, 69120, Note_on_c, 1, 76, 80
1, 69839, Note_on_c, 1, 76, 0
1, 69840, Note_on_c, 1, 74, 80
1, 69959, Note_on_c, 1, 74, 0
1, 69960, Note_on_c, 1, 72, 80
1, 70079, Note_on_c, 1, 72, 0
1, 70080, Note_on_c, 1, 72, 80
1, 70080, Note_on_c, 1, 76, 80
1, 70319, Note_on_c, 1, 72, 0
1, 70319, Note_on_c, 1, 76, 0
1, 70320, Note_on_c, 1, 72, 80
1, 70320, Note_on_c, 1, 76, 80
1, 70559, Note_on_c, 1, 72, 0
1, 70559, Note_on_c, 1, 76, 0
1, 70560, Note_on_c, 1, 72, 80
1, 70560, Note_on_c, 1, 76, 80
1, 70679, Note_on_c, 1, 72, 0
1, 70679, Note_on_c, 1, 76, 0
1, 70680, Note_on_c, 1, 71, 80
1, 70680, Note_on_c, 1, 74, 80
1, 70799, Note_on_c, 1, 71, 0
1, 70799, Note_on_c, 1, 74, 0
1, 70800, Note_on_c, 1, 69, 80
1, 70800, Note_on_c, 1, 72, 80
1, 71039, Note_on_c, 1, 69, 0
1, 71039, Note_on_c, 1, 72, 0
1, 71040, Note_on_c, 1, 67, 80
1, 71040, Note_on_c, 1, 71, 80
1, 71159, Note_on_c, 1, 67, 0
1, 71159, Note_on_c, 1, 71, 0
1, 71280, Note_on_c, 1, 67, 80
1, 71280, Note_on_c, 1, 71, 80
1, 71519, Note_on_c, 1, 67, 0
1, 71519, Note_on_c, 1, 71, 0
1, 71520, Note_on_c, 1, 72, 80
1, 71520, Note_on_c, 1, 76, 80
1, 71759, Note_on_c, 1, 72, 0
1, 71759, Note_on_c, 1, 76, 0
1, 71760, Note_on_c, 1, 67, 80
1, 71760, Note_on_c, 1, 71, 80
1, 71999, Note_on_c, 1, 67, 0
1, 71999, Note_on_c, 1, 71, 0
1, 72000, Note_on_c, 1, 65, 80
1, 72000, Note_on_c, 1, 69, 80
1, 72119, Note_on_c, 1, 65, 0
1, 72119, Note_on_c, 1, 69, 0
1, 72240, Note_on_c, 1, 65, 80
1, 72240, Note_on_c, 1, 69, 80
1, 72479, Note_on_c, 1, 65, 0
1, 72479, Note_on_c, 1, 69, 0
1, 72480, Note_on_c, 1, 65, 80
1, 72480, Note_on_c, 1, 69, 80
1, 72599, Note_on_c, 1, 65, 0
1, 72599, Note_on_c, 1, 69, 0
1, 72600, Note_on_c, 1, 64, 80
1, 72600, Note_on_c, 1, 67, 80
1, 72719, Note_on_c, 1, 64, 0
1, 72719, Note_on_c, 1, 67, 0
1, 72720, Note_on_c, 1, 64, 80
1, 72720, Note_on_c, 1, 67, 80
1, 72959, Note_on_c, 1, 64, 0
1, 72959, Note_on_c, 1, 67, 0
1, 72960, Note_on_c, 1, 65, 80
1, 72960, Note_on_c, 1, 69, 80
1, 73199, Note_on_c, 1, 65, 0
1, 73199, Note_on_c, 1, 69, 0
1, 73200, Note_on_c, 1, 69, 80
1, 73200, Note_on_c, 1, 72, 80
1, 73439, Note_on_c, 1, 69, 0
1, 73439, Note_on_c, 1, 72, 0
1, 73440, Note_on_c, 1, 71, 80
1, 73440, Note_on_c, 1, 74, 80
1, 73679, Note_on_c, 1, 71, 0
1, 73679, Note_on_c, 1, 74, 0
1, 73680, Note_on_c, 1, 69, 80
1, 73680, Note_on_c, 1, 72, 80
1, 73919, Note_on_c, 1, 69, 0
1, 73919, Note_on_c, 1, 72, 0
1, 73920, Note_on_c, 1, 72, 80
1, 73920, Note_on_c, 1, 76, 80
1, 74159, Note_on_c, 1, 72, 0
1, 74159, Note_on_c, 1, 76, 0
1, 74160, Note_on_c, 1, 72, 80
1, 74160, Note_on_c, 1, 76, 80
1, 74399, Note_on_c, 1, 72, 0
1, 74399, Note_on_c, 1, 76, 0
1, 74400, Note_on_c, 1, 72, 80
1, 74400, Note_on_c, 1, 76, 80
1, 74519, Note_on_c, 1, 72, 0
1, 74519, Note_on_c, 1, 76, 0
1, 74520, Note_on_c, 1, 71, 80
1, 74520, Note_on_c, 1, 74, 80
1, 74639, Note_on_c, 1, 71, 0
1, 74639, Note_on_c, 1, 74, 0
1, 74640, Note_on_c, 1, 69, 80
1, 74640, Note_on_c, 1, 72, 80
1, 74879, Note_on_c, 1, 69, 0
1, 74879, Note_on_c, 1, 72, 0
1, 74880, Note_on_c, 1, 67, 80
1, 74880, Note_on_c, 1, 71, 80
1, 74999, Note_on_c, 1, 67, 0
1, 74999, Note_on_c, 1, 71, 0
1, 75120, Note_on_c, 1, 67, 80
1, 75120, Note_on_c, 1, 71, 80
1, 75359, Note_on_c, 1, 67, 0
1, 75359, Note_on_c, 1, 71, 0
1, 75360, Note_on_c, 1, 72, 80
1, 75360, Note_on_c, 1, 76, 80
1, 75599, Note_on_c, 1, 72, 0
1, 75599, Note_on_c, 1, 76, 0
1, 75600, Note_on_c, 1, 67, 80
1, 75600, Note_on_c, 1, 71, 80
1, 75839, Note_on_c, 1, 67, 0
1, 75839, Note_on_c, 1, 71, 0
1, 75840, Note_on_c, 1, 65, 80
1, 75840, Note_on_c, 1, 69, 80
1, 75959, Note_on_c, 1, 65, 0
1, 75959, Note_on_c, 1, 69, 0
1, 76080, Note_on_c, 1, 65, 80
1, 76080, Note_on_c, 1, 69, 80
1, 76319, Note_on_c, 1, 65, 0
1, 76319, Note_on_c, 1, 69, 0
1, 76320, Note_on_c, 1, 65, 80
1, 76320, Note_on_c, 1, 69, 80
1, 76439, Note_on_c, 1, 65, 0
1, 76439, Note_on_c, 1, 69, 0
1, 76440, Note_on_c, 1, 64, 80
1, 76440, Note_on_c, 1, 67, 80
1, 76559, Note_on_c, 1, 64, 0
1, 76559, Note_on_c, 1, 67, 0
1, 76560, Note_on_c, 1, 64, 80
1, 76560, Note_on_c, 1, 67, 80
1, 76799, Note_on_c, 1, 64, 0
1, 76799, Note_on_c, 1, 67, 0
1, 76800, Note_on_c, 1, 69, 80
1, 76859, Note_on_c, 1, 69, 0
1, 76860, Note_on_c, 1, 74, 80
1, 76919, Note_on_c, 1, 74, 0
1, 76920, Note_on_c, 1, 76, 80
1, 77279, Note_on_c, 1, 76, 0
1, 77280, Note_on_c, 1, 69, 80
1, 77280, Note_on_c, 1, 72, 80
1, 77519, Note_on_c, 1, 69, 0
1, 77519, Note_on_c, 1, 72, 0
1, 77520, Note_on_c, 1, 64, 80
1, 77520, Note_on_c, 1, 67, 80
1, 77759, Note_on_c, 1, 64, 0
1, 77759, Note_on_c, 1, 67, 0
1, 77760, Note_on_c, 1, 67, 80
1, 77760, Note_on_c, 1, 72, 80
1, 77760, Note_on_c, 1, 76, 80
1, 77999, Note_on_c, 1, 67, 0
1, 77999, Note_on_c, 1, 72, 0
1, 77999, Note_on_c, 1, 76, 0
1, 78000, Note_on_c, 1, 72, 80
1, 78000, Note_on_c, 1, 76, 80
1, 78239, Note_on_c, 1, 72, 0
1, 78239, Note_on_c, 1, 76, 0
1, 78240, Note_on_c, 1, 72, 80
1, 78240, Note_on_c, 1, 76, 80
1, 78359, Note_on_c, 1, 72, 0
1, 78359, Note_on_c, 1, 76, 0
1, 78360, Note_on_c, 1, 71, 80
1, 78360, Note_on_c, 1, 74, 80
1, 78479, Note_on_c, 1, 71, 0
1, 78479, Note_on_c, 1, 74, 0
1, 78480, Note_on_c, 1, 69, 80
1, 78480, Note_on_c, 1, 72, 80
1, 78719, Note_on_c, 1, 69, 0
1, 78719, Note_on_c, 1, 72, 0
1, 78720, Note_on_c, 1, 67, 80
1, 78720, Note_on_c, 1, 71, 80
1, 78839, Note_on_c, 1, 67, 0
1, 78839, Note_on_c, 1, 71, 0
1, 78960, Note_on_c, 1, 67, 80
1, 78960, Note_on_c, 1, 71, 80
1, 79199, Note_on_c, 1, 67, 0
1, 79199, Note_on_c, 1, 71, 0
1, 79200, Note_on_c, 1, 72, 80
1, 79200, Note_on_c, 1, 76, 80
1, 79439, Note_on_c, 1, 72, 0
1, 79439, Note_on_c, 1, 76, 0
1, 79440, Note_on_c, 1, 67, 80
1, 79440, Note_on_c, 1, 71, 80
1, 79679, Note_on_c, 1, 67, 0
1, 79679, Note_on_c, 1, 71, 0
1, 79680, Note_on_c, 1, 65, 80
1, 79680, Note_on_c, 1, 69, 80
1, 79799, Note_on_c, 1, 65, 0
1, 79799, Note_on_c, 1, 69, 0
1, 79920, Note_on_c, 1, 65, 80
1, 79920, Note_on_c, 1, 69, 80
1, 80159, Note_on_c, 1, 65, 0
1, 80159, Note_on_c, 1, 69, 0
1, 80160, Note_on_c, 1, 65, 80
1, 80160, Note_on_c, 1, 69, 80
1, 80279, Note_on_c, 1, 65, 0
1, 80279, Note_on_c, 1, 69, 0
1, 80280, Note_on_c, 1, 64, 80
1, 80280, Note_on_c, 1, 67, 80
1, 80399, Note_on_c, 1, 64, 0
1, 80399, Note_on_c, 1, 67, 0
1, 80400, Note_on_c, 1, 64, 80
1, 80400, Note_on_c, 1, 67, 80
1, 80639, Note_on_c, 1, 64, 0
1, 80639, Note_on_c, 1, 67, 0
1, 80640, Note_on_c, 1, 65, 80
1, 80640, Note_on_c, 1, 69, 80
1, 80879, Note_on_c, 1, 65, 0
1, 80879, Note_on_c, 1, 69, 0
1, 80880, Note_on_c, 1, 69, 80
1, 80880, Note_on_c, 1, 72, 80
1, 81119, Note_on_c, 1, 69, 0
1, 81119, Note_on_c, 1, 72, 0
1, 81120, Note_on_c, 1, 71, 80
1, 81120, Note_on_c, 1, 74, 80
1, 81359, Note_on_c, 1, 71, 0
1, 81359, Note_on_c, 1, 74, 0
1, 81360, Note_on_c, 1, 69, 80
1, 81360, Note_on_c, 1, 72, 80
1, 81599, Note_on_c, 1, 69, 0
1, 81599, Note_on_c, 1, 72, 0
1, 81600, Note_on_c, 1, 72, 80
1, 81600, Note_on_c, 1, 76, 80
1, 81839, Note_on_c, 1, 72, 0
1, 81839, Note_on_c, 1, 76, 0
1, 81840, Note_on_c, 1, 72, 80
1, 81840, Note_on_c, 1, 76, 80
1, 82079, Note_on_c, 1, 72, 0
1, 82079, Note_on_c, 1, 76, 0
1, 82080, Note_on_c, 1, 72, 80
1, 82080, Note_on_c, 1, 76, 80
1, 82199, Note_on_c, 1, 72, 0
1, 82199, Note_on_c, 1, 76, 0
1, 82200, Note_on_c, 1, 71, 80
1, 82200, Note_on_c, 1, 74, 80
1, 82319, Note_on_c, 1, 71, 0
1, 82319, Note_on_c, 1, 74, 0
1, 82320, Note_on_c, 1, 69, 80
1, 82320, Note_on_c, 1, 72, 80
1, 82559, Note_on_c, 1, 69, 0
1, 82559, Note_on_c, 1, 72, 0
1, 82560, Note_on_c, 1, 67, 80
1, 82560, Note_on_c, 1, 71, 80
1, 82679, Note_on_c, 1, 67, 0
1, 82679, Note_on_c, 1, 71, 0
1, 82800, Note_on_c, 1, 67, 80
1, 82800, Note_on_c, 1, 71, 80
1, 83039, Note_on_c, 1, 67, 0
1, 83039, Note_on_c, 1, 71, 0
1, 83040, Note_on_c, 1, 72, 80
1, 83040, Note_on_c, 1, 76, 80
1, 83279, Note_on_c, 1, 72, 0
1, 83279, Note_on_c, 1, 76, 0
1, 83280, Note_on_c, 1, 67, 80
1, 83280, Note_on_c, 1, 71, 80
1, 83519, Note_on_c, 1, 67, 0
1, 83519, Note_on_c, 1, 71, 0
1, 83520, Note_on_c, 1, 65, 80
1, 83520, Note_on_c, 1, 69, 80
1, 83639, Note_on_c, 1, 65, 0
1, 83639, Note_on_c, 1, 69, 0
1, 83760, Note_on_c, 1, 65, 80
1, 83760, Note_on_c, 1, 69, 80
1, 83999, Note_on_c, 1, 65, 0
1, 83999, Note_on_c, 1, 69, 0
1, 84000, Note_on_c, 1, 65, 80
1, 84000, Note_on_c, 1, 69, 80
1, 84119, Note_on_c, 1, 65, 0
1, 84119, Note_on_c, 1, 69, 0
1, 84120, Note_on_c, 1, 64, 80
1, 84120, Note_on_c, 1, 67, 80
1, 84239, Note_on_c, 1, 64, 0
1, 84239, Note_on_c, 1, 67, 0
1, 84240, Note_on_c, 1, 64, 80
1, 84240, Note_on_c, 1, 67, 80
1, 84479, Note_on_c, 1, 64, 0
1, 84479, Note_on_c, 1, 67, 0
1, 84480, Note_on_c, 1, 69, 80
1, 84539, Note_on_c, 1, 69, 0
1, 84540, Note_on_c, 1, 74, 80
1, 84599, Note_on_c, 1, 74, 0
1, 84600, Note_on_c, 1, 76, 80
1, 84959, Note_on_c, 1, 76, 0
1, 84960, Note_on_c, 1, 69, 80
1, 84960, Note_on_c, 1, 72, 80
1, 85199, Note_on_c, 1, 69, 0
1, 85199, Note_on_c, 1, 72, 0
1, 85200, Note_on_c, 1, 64, 80
1, 85200, Note_on_c, 1, 67, 80
1, 85439, Note_on_c, 1, 64, 0
1, 85439, Note_on_c, 1, 67, 0
1, 85440, Note_on_c, 1, 72, 80
1, 85440, Note_on_c, 1, 76, 80
1, 85679, Note_on_c, 1, 72, 0
1, 85679, Note_on_c, 1, 76, 0
1, 85680, Note_on_c, 1, 72, 80
1, 85680, Note_on_c, 1, 76, 80
1, 85919, Note_on_c, 1, 72, 0
1, 85919, Note_on_c, 1, 76, 0
1, 85920, Note_on_c, 1, 72, 80
1, 85920, Note_on_c, 1, 76, 80
1, 86039, Note_on_c, 1, 72, 0
1, 86039, Note_on_c, 1, 76, 0
1, 86040, Note_on_c, 1, 71, 80
1, 86040, Note_on_c, 1, 74, 80
1, 86159, Note_on_c, 1, 71, 0
1, 86159, Note_on_c, 1, 74, 0
1, 86160, Note_on_c, 1, 69, 80
1, 86160, Note_on_c, 1, 72, 80
1, 86399, Note_on_c, 1, 69, 0
1, 86399, Note_on_c, 1, 72, 0
1, 86400, Note_on_c, 1, 67, 80
1, 86400, Note_on_c, 1, 71, 80
1, 86519, Note_on_c, 1, 67, 0
1, 86519, Note_on_c, 1, 71, 0
1, 86640, Note_on_c, 1, 67, 80
1, 86640, Note_on_c, 1, 71, 80
1, 86879, Note_on_c, 1, 67, 0
1, 86879, Note_on_c, 1, 71, 0
1, 86880, Note_on_c, 1, 72, 80
1, 86880, Note_on_c, 1, 76, 80
1, 87119, Note_on_c, 1, 72, 0
1, 87119, Note_on_c, 1, 76, 0
1, 87120, Note_on_c, 1, 67, 80
1, 87120, Note_on_c, 1, 71, 80
1, 87359, Note_on_c, 1, 67, 0
1, 87359, Note_on_c, 1, 71, 0
1, 87360, Note_on_c, 1, 65, 80
1, 87360, Note_on_c, 1, 69, 80
1, 87479, Note_on_c, 1, 65, 0
1, 87479, Note_on_c, 1, 69, 0
1, 87600, Note_on_c, 1, 65, 80
1, 87600, Note_on_c, 1, 69, 80
1, 87839, Note_on_c, 1, 65, 0
1, 87839, Note_on_c, 1, 69, 0
1, 87840, Note_on_c, 1, 65, 80
1, 87840, Note_on_c, 1, 69, 80
1, 87959, Note_on_c, 1, 65, 0
1, 87959, Note_on_c, 1, 69, 0
1, 87960, Note_on_c, 1, 64, 80
1, 87960, Note_on_c, 1, 67, 80
1, 88079, Note_on_c, 1, 64, 0
1, 88079, Note_on_c, 1, 67, 0
1, 88080, Note_on_c, 1, 64, 80
1, 88080, Note_on_c, 1, 67, 80
1, 88319, Note_on_c, 1, 64, 0
1, 88319, Note_on_c, 1, 67, 0
1, 88320, Note_on_c, 1, 65, 80
1, 88320, Note_on_c, 1, 69, 80
1, 88559, Note_on_c, 1, 65, 0
1, 88559, Note_on_c, 1, 69, 0
1, 88560, Note_on_c, 1, 69, 80
1, 88560, Note_on_c, 1, 72, 80
1, 88799, Note_on_c, 1, 69, 0
1, 88799, Note_on_c, 1, 72, 0
1, 88800, Note_on_c, 1, 71, 80
1, 88800, Note_on_c, 1, 74, 80
1, 89039, Note_on_c, 1, 71, 0
1, 89039, Note_on_c, 1, 74, 0
1, 89040, Note_on_c, 1, 69, 80
1, 89040, Note_on_c, 1, 72, 80
1, 89279, Note_on_c, 1, 69, 0
1, 89279, Note_on_c, 1, 72, 0
1, 89280, Note_on_c, 1, 72, 80
1, 89280, Note_on_c, 1, 76, 80
1, 89519, Note_on_c, 1, 72, 0
1, 89519, Note_on_c, 1, 76, 0
1, 89520, Note_on_c, 1, 72, 80
1, 89520, Note_on_c, 1, 76, 80
1, 89759, Note_on_c, 1, 72, 0
1, 89759, Note_on_c, 1, 76, 0
1, 89760, Note_on_c, 1, 72, 80
1, 89760, Note_on_c, 1, 76, 80
1, 89879, Note_on_c, 1, 72, 0
1, 89879, Note_on_c, 1, 76, 0
1, 89880, Note_on_c, 1, 71, 80
1, 89880, Note_on_c, 1, 74, 80
1, 89999, Note_on_c, 1, 71, 0
1, 89999, Note_on_c, 1, 74, 0
1, 90000, Note_on_c, 1, 69, 80
1, 90000, Note_on_c, 1, 72, 80
1, 90239, Note_on_c, 1, 69, 0
1, 90239, Note_on_c, 1, 72, 0
1, 90240, Note_on_c, 1, 67, 80
1, 90240, Note_on_c, 1, 71, 80
1, 90359, Note_on_c, 1, 67, 0
1, 90359, Note_on_c, 1, 71, 0
1, 90480, Note_on_c, 1, 67, 80
1, 90480, Note_on_c, 1, 71, 80
1, 90719, Note_on_c, 1, 67, 0
1, 90719, Note_on_c, 1, 71, 0
1, 90720, Note_on_c, 1, 72, 80
1, 90720, Note_on_c, 1, 76, 80
1, 90959, Note_on_c, 1, 72, 0
1, 90959, Note_on_c, 1, 76, 0
1, 90960, Note_on_c, 1, 67, 80
1, 90960, Note_on_c, 1, 71, 80
1, 91199, Note_on_c, 1, 67, 0
1, 91199, Note_on_c, 1, 71, 0
1, 91200, Note_on_c, 1, 65, 80
1, 91200, Note_on_c, 1, 69, 80
1, 91319, Note_on_c, 1, 65, 0
1, 91319, Note_on_c, 1, 69, 0
1, 91440, Note_on_c, 1, 65, 80
1, 91440, Note_on_c, 1, 69, 80
1, 91679, Note_on_c, 1, 65, 0
1, 91679, Note_on_c, 1, 69, 0
1, 91680, Note_on_c, 1, 65, 80
1, 91680, Note_on_c, 1, 69, 80
1, 91799, Note_on_c, 1, 65, 0
1, 91799, Note_on_c, 1, 69, 0
1, 91800, Note_on_c, 1, 64, 80
1, 91800, Note_on_c, 1, 67, 80
1, 91919, Note_on_c, 1, 64, 0
1, 91919, Note_on_c, 1, 67, 0
1, 91920, Note_on_c, 1, 64, 80
1, 91920, Note_on_c, 1, 67, 80
1, 92159, Note_on_c, 1, 64, 0
1, 92159, Note_on_c, 1, 67, 0
1, 92160, Note_on_c, 1, 69, 80
1, 92219, Note_on_c, 1, 69, 0
1, 92220, Note_on_c, 1, 74, 80
1, 92279, Note_on_c, 1, 74, 0
1, 92280, Note_on_c, 1, 76, 80
1, 92639, Note_on_c, 1, 76, 0
1, 92640, Note_on_c, 1, 69, 80
1, 92640, Note_on_c, 1, 72, 80
1, 92879, Note_on_c, 1, 69, 0
1, 92879, Note_on_c, 1, 72, 0
1, 92880, Note_on_c, 1, 64, 80
1, 92880, Note_on_c, 1, 67, 80
1, 93119, Note_on_c, 1, 64, 0
1, 93119, Note_on_c, 1, 67, 0
1, 93120, Note_on_c, 1, 72, 80
1, 93120, Note_on_c, 1, 76, 80
1, 93359, Note_on_c, 1, 72, 0
1, 93359, Note_on_c, 1, 76, 0
1, 93360, Note_on_c, 1, 72, 80
1, 93360, Note_on_c, 1, 76, 80
1, 93599, Note_on_c, 1, 72, 0
1, 93599, Note_on_c, 1, 76, 0
1, 93600, Note_on_c, 1, 72, 80
1, 93600, Note_on_c, 1, 76, 80
1, 93719, Note_on_c, 1, 72, 0
1, 93719, Note_on_c, 1, 76, 0
1, 93720, Note_on_c, 1, 71, 80
1, 93720, Note_on_c, 1, 74, 80
1, 93839, Note_on_c, 1, 71, 0
1, 93839, Note_on_c, 1, 74, 0
1, 93840, Note_on_c, 1, 69, 80
1, 93840, Note_on_c, 1, 72, 80
1, 94079, Note_on_c, 1, 69, 0
1, 94079, Note_on_c, 1, 72, 0
1, 94080, Note_on_c, 1, 67, 80
1, 94080, Note_on_c, 1, 71, 80
1, 94199, Note_on_c, 1, 67, 0
1, 94199, Note_on_c, 1, 71, 0
1, 94320, Note_on_c, 1, 67, 80
1, 94320, Note_on_c, 1, 71, 80
1, 94559, Note_on_c, 1, 67, 0
1, 94559, Note_on_c, 1, 71, 0
1, 94560, Note_on_c, 1, 72, 80
1, 94560, Note_on_c, 1, 76, 80
1, 94799, Note_on_c, 1, 72, 0
1, 94799, Note_on_c, 1, 76, 0
1, 94800, Note_on_c, 1, 67, 80
1, 94800, Note_on_c, 1, 71, 80
1, 95039, Note_on_c, 1, 67, 0
1, 95039, Note_on_c, 1, 71, 0
1, 95040, Note_on_c, 1, 65, 80
1, 95040, Note_on_c, 1, 69, 80
1, 95159, Note_on_c, 1, 65, 0
1, 95159, Note_on_c, 1, 69, 0
1, 95280, Note_on_c, 1, 65, 80
1, 95280, Note_on_c, 1, 69, 80
1, 95519, Note_on_c, 1, 65, 0
1, 95519, Note_on_c, 1, 69, 0
1, 95520, Note_on_c, 1, 65, 80
1, 95520, Note_on_c, 1, 69, 80
1, 95639, Note_on_c, 1, 65, 0
1, 95639, Note_on_c, 1, 69, 0
1, 95640, Note_on_c, 1, 64, 80
1, 95640, Note_on_c, 1, 67, 80
1, 95759, Note_on_c, 1, 64, 0
1, 95759, Note_on_c, 1, 67, 0
1, 95760, Note_on_c, 1, 64, 80
1, 95760, Note_on_c, 1, 67, 80
1, 95999, Note_on_c, 1, 64, 0
1, 95999, Note_on_c, 1, 67, 0
1, 96000, Note_on_c, 1, 65, 80
1, 96000, Note_on_c, 1, 69, 80
1, 96239, Note_on_c, 1, 65, 0
1, 96239, Note_on_c, 1, 69, 0
1, 96240, Note_on_c, 1, 69, 80
1, 96240, Note_on_c, 1, 72, 80
1, 96479, Note_on_c, 1, 69, 0
1, 96479, Note_on_c, 1, 72, 0
1, 96480, Note_on_c, 1, 71, 80
1, 96480, Note_on_c, 1, 74, 80
1, 96719, Note_on_c, 1, 71, 0
1, 96719, Note_on_c, 1, 74, 0
1, 96720, Note_on_c, 1, 69, 80
1, 96720, Note_on_c, 1, 72, 80
1, 96959, Note_on_c, 1, 69, 0
1, 96959, Note_on_c, 1, 72, 0
1, 96960, Note_on_c, 1, 72, 80
1, 96960, Note_on_c, 1, 76, 80
1, 97199, Note_on_c, 1, 72, 0
1, 97199, Note_on_c, 1, 76, 0
1, 97200, Note_on_c, 1, 72, 80
1, 97200, Note_on_c, 1, 76, 80
1, 97439, Note_on_c, 1, 72, 0
1, 97439, Note_on_c, 1, 76, 0
1, 97440, Note_on_c, 1, 72, 80
1, 97440, Note_on_c, 1, 76, 80
1, 97559, Note_on_c, 1, 72, 0
1, 97559, Note_on_c, 1, 76, 0
1, 97560, Note_on_c, 1, 71, 80
1, 97560, Note_on_c, 1, 74, 80
1, 97679, Note_on_c, 1, 71, 0
1, 97679, Note_on_c, 1, 74, 0
1, 97680, Note_on_c, 1, 69, 80
1, 97680, Note_on_c, 1, 72, 80
1, 97919, Note_on_c, 1, 69, 0
1, 97919, Note_on_c, 1, 72, 0
1, 97920, Note_on_c, 1, 67, 80
1, 97920, Note_on_c, 1, 71, 80
1, 98039, Note_on_c, 1, 67, 0
1, 98039, Note_on_c, 1, 71, 0
1, 98160, Note_on_c, 1, 67, 80
1, 98160, Note_on_c, 1, 71, 80
1, 98399, Note_on_c, 1, 67, 0
1, 98399, Note_on_c, 1, 71, 0
1, 98400, Note_on_c, 1, 72, 80
1, 98400, Note_on_c, 1, 76, 80
1, 98639, Note_on_c, 1, 72, 0
1, 98639, Note_on_c, 1, 76, 0
1, 98640, Note_on_c, 1, 67, 80
1, 98640, Note_on_c, 1, 71, 80
1, 98879, Note_on_c, 1, 67, 0
1, 98879, Note_on_c, 1, 71, 0
1, 98880, Note_on_c, 1, 65, 80
1, 98880, Note_on_c, 1, 69, 80
1, 98999, Note_on_c, 1, 65, 0
1, 98999, Note_on_c, 1, 69, 0
1, 99120, Note_on_c, 1, 65, 80
1, 99120, Note_on_c, 1, 69, 80
1, 99359, Note_on_c, 1, 65, 0
1, 99359, Note_on_c, 1, 69, 0
1, 99360, Note_on_c, 1, 65, 80
1, 99360, Note_on_c, 1, 69, 80
1, 99479, Note_on_c, 1, 65, 0
1, 99479, Note_on_c, 1, 69, 0
1, 99480, Note_on_c, 1, 64, 80
1, 99480, Note_on_c, 1, 67, 80
1, 99599, Note_on_c, 1, 64, 0
1, 99599, Note_on_c, 1, 67, 0
1, 99600, Note_on_c, 1, 64, 80
1, 99600, Note_on_c, 1, 67, 80
1, 99839, Note_on_c, 1, 64, 0
1, 99839, Note_on_c, 1, 67, 0
1, 100320, Note_on_c, 1, 69, 80
1, 100320, Note_on_c, 1, 72, 80
1, 100559, Note_on_c, 1, 69, 0
1, 100559, Note_on_c, 1, 72, 0
1, 100560, Note_on_c, 1, 64, 80
1, 100560, Note_on_c, 1, 67, 80
1, 100799, Note_on_c, 1, 64, 0
1, 100799, Note_on_c, 1, 67, 0
1, 101280, Note_on_c, 1, 76, 80
1, 101759, Note_on_c, 1, 76, 0
1, 102240, Note_on_c, 1, 71, 80
1, 102719, Note_on_c, 1, 71, 0
1, 103200, Note_on_c, 1, 69, 80
1, 103679, Note_on_c, 1, 69, 0
1, 103680, Note_on_c, 1, 67, 80
1, 104159, Note_on_c, 1, 67, 0
1, 104400, Note_on_c, 1, 67, 80
1, 104639, Note_on_c, 1, 67, 0
1, 105120, Note_on_c, 1, 76, 80
1, 105599, Note_on_c, 1, 76, 0
1, 106080, Note_on_c, 1, 71, 80
1, 106559, Note_on_c, 1, 71, 0
1, 107040, Note_on_c, 1, 69, 80
1, 107519, Note_on_c, 1, 69, 0
1, 107520, Note_on_c, 1, 67, 80
1, 107999, Note_on_c, 1, 67, 0
1, 108240, Note_on_c, 1, 67, 80
1, 110399, Note_on_c, 1, 67, 0
1, 110400, End_track
2, 0, Start_track
2, 0, Title_t, "Piano, Oboe, Oboe\000"
2, 0, Key_signature, 0, "major"
2, 0, Control_c, 13, 121, 0
2, 0, Program_c, 13, 0
2, 0, Control_c, 13, 7, 100
2, 0, Control_c, 13, 10, 64
2, 0, Control_c, 13, 91, 0
2, 0, Control_c, 13, 93, 0
2, 0, MIDI_port, 0
2, 0, Note_on_c, 13, 48, 80
2, 0, Note_on_c, 13, 55, 80
2, 455, Note_on_c, 13, 48, 0
2, 455, Note_on_c, 13, 55, 0
2, 480, Note_on_c, 13, 55, 80
2, 935, Note_on_c, 13, 55, 0
2, 960, Note_on_c, 13, 57, 80
2, 960, Note_on_c, 13, 64, 80
2, 1415, Note_on_c, 13, 57, 0
2, 1415, Note_on_c, 13, 64, 0
2, 1440, Note_on_c, 13, 64, 80
2, 1895, Note_on_c, 13, 64, 0
2, 1920, Note_on_c, 13, 53, 80
2, 1920, Note_on_c, 13, 60, 80
2, 2375, Note_on_c, 13, 53, 0
2, 2375, Note_on_c, 13, 60, 0
2, 2400, Note_on_c, 13, 60, 80
2, 2855, Note_on_c, 13, 60, 0
2, 2880, Note_on_c, 13, 60, 80
2, 3335, Note_on_c, 13, 60, 0
2, 3360, Note_on_c, 13, 60, 80
2, 3815, Note_on_c, 13, 60, 0
2, 3840, Note_on_c, 13, 48, 80
2, 3840, Note_on_c, 13, 55, 80
2, 4295, Note_on_c, 13, 48, 0
2, 4295, Note_on_c, 13, 55, 0
2, 4320, Note_on_c, 13, 55, 80
2, 4775, Note_on_c, 13, 55, 0
2, 4800, Note_on_c, 13, 57, 80
2, 4800, Note_on_c, 13, 64, 80
2, 5255, Note_on_c, 13, 57, 0
2, 5255, Note_on_c, 13, 64, 0
2, 5280, Note_on_c, 13, 64, 80
2, 5735, Note_on_c, 13, 64, 0
2, 5760, Note_on_c, 13, 53, 80
2, 5760, Note_on_c, 13, 60, 80
2, 6215, Note_on_c, 13, 53, 0
2, 6215, Note_on_c, 13, 60, 0
2, 6240, Note_on_c, 13, 60, 80
2, 6695, Note_on_c, 13, 60, 0
2, 6720, Note_on_c, 13, 60, 80
2, 7403, Note_on_c, 13, 60, 0
2, 7440, Note_on_c, 13, 60, 80
2, 7667, Note_on_c, 13, 60, 0
2, 7680, Note_on_c, 13, 52, 80
2, 7680, Note_on_c, 13, 55, 80
2, 7680, Note_on_c, 13, 60, 80
2, 8135, Note_on_c, 13, 52, 0
2, 8135, Note_on_c, 13, 55, 0
2, 8135, Note_on_c, 13, 60, 0
2, 8160, Note_on_c, 13, 52, 80
2, 8160, Note_on_c, 13, 55, 80
2, 8160, Note_on_c, 13, 60, 80
2, 8615, Note_on_c, 13, 52, 0
2, 8615, Note_on_c, 13, 55, 0
2, 8615, Note_on_c, 13, 60, 0
2, 8640, Note_on_c, 13, 52, 80
2, 8640, Note_on_c, 13, 55, 80
2, 8640, Note_on_c, 13, 60, 80
2, 9095, Note_on_c, 13, 52, 0
2, 9095, Note_on_c, 13, 55, 0
2, 9095, Note_on_c, 13, 60, 0
2, 9120, Note_on_c, 13, 52, 80
2, 9120, Note_on_c, 13, 55, 80
2, 9120, Note_on_c, 13, 60, 80
2, 9575, Note_on_c, 13, 52, 0
2, 9575, Note_on_c, 13, 55, 0
2, 9575, Note_on_c, 13, 60, 0
2, 9600, Note_on_c, 13, 53, 80
2, 9600, Note_on_c, 13, 57, 80
2, 9600, Note_on_c, 13, 60, 80
2, 10055, Note_on_c, 13, 53, 0
2, 10055, Note_on_c, 13, 57, 0
2, 10055, Note_on_c, 13, 60, 0
2, 10080, Note_on_c, 13, 53, 80
2, 10080, Note_on_c, 13, 57, 80
2, 10080, Note_on_c, 13, 60, 80
2, 10535, Note_on_c, 13, 53, 0
2, 10535, Note_on_c, 13, 57, 0
2, 10535, Note_on_c, 13, 60, 0
2, 10560, Note_on_c, 13, 53, 80
2, 10560, Note_on_c, 13, 57, 80
2, 10560, Note_on_c, 13, 60, 80
2, 11015, Note_on_c, 13, 53, 0
2, 11015, Note_on_c, 13, 57, 0
2, 11015, Note_on_c, 13, 60, 0
2, 11040, Note_on_c, 13, 53, 80
2, 11040, Note_on_c, 13, 57, 80
2, 11040, Note_on_c, 13, 60, 80
2, 11495, Note_on_c, 13, 53, 0
2, 11495, Note_on_c, 13, 57, 0
2, 11495, Note_on_c, 13, 60, 0
2, 11520, Note_on_c, 13, 52, 80
2, 11520, Note_on_c, 13, 55, 80
2, 11520, Note_on_c, 13, 60, 80
2, 11975, Note_on_c, 13, 52, 0
2, 11975, Note_on_c, 13, 55, 0
2, 11975, Note_on_c, 13, 60, 0
2, 12000, Note_on_c, 13, 52, 80
2, 12000, Note_on_c, 13, 55, 80
2, 12000, Note_on_c, 13, 60, 80
2, 12455, Note_on_c, 13, 52, 0
2, 12455, Note_on_c, 13, 55, 0
2, 12455, Note_on_c, 13, 60, 0
2, 12480, Note_on_c, 13, 52, 80
2, 12480, Note_on_c, 13, 55, 80
2, 12480, Note_on_c, 13, 60, 80
2, 12935, Note_on_c, 13, 52, 0
2, 12935, Note_on_c, 13, 55, 0
2, 12935, Note_on_c, 13, 60, 0
2, 12960, Note_on_c, 13, 52, 80
2, 12960, Note_on_c, 13, 55, 80
2, 12960, Note_on_c, 13, 60, 80
2, 13415, Note_on_c, 13, 52, 0
2, 13415, Note_on_c, 13, 55, 0
2, 13415, Note_on_c, 13, 60, 0
2, 13440, Note_on_c, 13, 53, 80
2, 13440, Note_on_c, 13, 57, 80
2, 13440, Note_on_c, 13, 60, 80
2, 13895, Note_on_c, 13, 53, 0
2, 13895, Note_on_c, 13, 57, 0
2, 13895, Note_on_c, 13, 60, 0
2, 13920, Note_on_c, 13, 53, 80
2, 13920, Note_on_c, 13, 57, 80
2, 13920, Note_on_c, 13, 60, 80
2, 14375, Note_on_c, 13, 53, 0
2, 14375, Note_on_c, 13, 57, 0
2, 14375, Note_on_c, 13, 60, 0
2, 14400, Note_on_c, 13, 53, 80
2, 14400, Note_on_c, 13, 57, 80
2, 14400, Note_on_c, 13, 62, 80
2, 14855, Note_on_c, 13, 53, 0
2, 14855, Note_on_c, 13, 57, 0
2, 14855, Note_on_c, 13, 62, 0
2, 14880, Note_on_c, 13, 53, 80
2, 14880, Note_on_c, 13, 57, 80
2, 14880, Note_on_c, 13, 64, 80
2, 15335, Note_on_c, 13, 53, 0
2, 15335, Note_on_c, 13, 57, 0
2, 15335, Note_on_c, 13, 64, 0
2, 15360, Note_on_c, 13, 52, 80
2, 15360, Note_on_c, 13, 55, 80
2, 15360, Note_on_c, 13, 60, 80
2, 15815, Note_on_c, 13, 52, 0
2, 15815, Note_on_c, 13, 55, 0
2, 15815, Note_on_c, 13, 60, 0
2, 15840, Note_on_c, 13, 52, 80
2, 15840, Note_on_c, 13, 55, 80
2, 15840, Note_on_c, 13, 60, 80
2, 16295, Note_on_c, 13, 52, 0
2, 16295, Note_on_c, 13, 55, 0
2, 16295, Note_on_c, 13, 60, 0
2, 16320, Note_on_c, 13, 52, 80
2, 16320, Note_on_c, 13, 55, 80
2, 16320, Note_on_c, 13, 60, 80
2, 16775, Note_on_c, 13, 52, 0
2, 16775, Note_on_c, 13, 55, 0
2, 16775, Note_on_c, 13, 60, 0
2, 16800, Note_on_c, 13, 52, 80
2, 16800, Note_on_c, 13, 55, 80
2, 16800, Note_on_c, 13, 60, 80
2, 17255, Note_on_c, 13, 52, 0
2, 17255, Note_on_c, 13, 55, 0
2, 17255, Note_on_c, 13, 60, 0
2, 17280, Note_on_c, 13, 53, 80
2, 17280, Note_on_c, 13, 57, 80
2, 17280, Note_on_c, 13, 60, 80
2, 17735, Note_on_c, 13, 53, 0
2, 17735, Note_on_c, 13, 57, 0
2, 17735, Note_on_c, 13, 60, 0
2, 17760, Note_on_c, 13, 53, 80
2, 17760, Note_on_c, 13, 57, 80
2, 17760, Note_on_c, 13, 60, 80
2, 18215, Note_on_c, 13, 53, 0
2, 18215, Note_on_c, 13, 57, 0
2, 18215, Note_on_c, 13, 60, 0
2, 18240, Note_on_c, 13, 53, 80
2, 18240, Note_on_c, 13, 57, 80
2, 18240, Note_on_c, 13, 60, 80
2, 18695, Note_on_c, 13, 53, 0
2, 18695, Note_on_c, 13, 57, 0
2, 18695, Note_on_c, 13, 60, 0
2, 18720, Note_on_c, 13, 53, 80
2, 18720, Note_on_c, 13, 57, 80
2, 18720, Note_on_c, 13, 59, 80
2, 19175, Note_on_c, 13, 53, 0
2, 19175, Note_on_c, 13, 57, 0
2, 19175, Note_on_c, 13, 59, 0
2, 19200, Note_on_c, 13, 52, 80
2, 19200, Note_on_c, 13, 55, 80
2, 19200, Note_on_c, 13, 60, 80
2, 19655, Note_on_c, 13, 52, 0
2, 19655, Note_on_c, 13, 55, 0
2, 19655, Note_on_c, 13, 60, 0
2, 19680, Note_on_c, 13, 52, 80
2, 19680, Note_on_c, 13, 55, 80
2, 19680, Note_on_c, 13, 60, 80
2, 20135, Note_on_c, 13, 52, 0
2, 20135, Note_on_c, 13, 55, 0
2, 20135, Note_on_c, 13, 60, 0
2, 20160, Note_on_c, 13, 52, 80
2, 20160, Note_on_c, 13, 55, 80
2, 20160, Note_on_c, 13, 60, 80
2, 20615, Note_on_c, 13, 52, 0
2, 20615, Note_on_c, 13, 55, 0
2, 20615, Note_on_c, 13, 60, 0
2, 20640, Note_on_c, 13, 52, 80
2, 20640, Note_on_c, 13, 55, 80
2, 20640, Note_on_c, 13, 60, 80
2, 21095, Note_on_c, 13, 52, 0
2, 21095, Note_on_c, 13, 55, 0
2, 21095, Note_on_c, 13, 60, 0
2, 21120, Note_on_c, 13, 53, 80
2, 21120, Note_on_c, 13, 57, 80
2, 21120, Note_on_c, 13, 60, 80
2, 21575, Note_on_c, 13, 53, 0
2, 21575, Note_on_c, 13, 57, 0
2, 21575, Note_on_c, 13, 60, 0
2, 21600, Note_on_c, 13, 53, 80
2, 21600, Note_on_c, 13, 57, 80
2, 21600, Note_on_c, 13, 60, 80
2, 22055, Note_on_c, 13, 53, 0
2, 22055, Note_on_c, 13, 57, 0
2, 22055, Note_on_c, 13, 60, 0
2, 22080, Note_on_c, 13, 53, 80
2, 22080, Note_on_c, 13, 57, 80
2, 22080, Note_on_c, 13, 62, 80
2, 22535, Note_on_c, 13, 53, 0
2, 22535, Note_on_c, 13, 57, 0
2, 22535, Note_on_c, 13, 62, 0
2, 22560, Note_on_c, 13, 53, 80
2, 22560, Note_on_c, 13, 57, 80
2, 22560, Note_on_c, 13, 64, 80
2, 23015, Note_on_c, 13, 53, 0
2, 23015, Note_on_c, 13, 57, 0
2, 23015, Note_on_c, 13, 64, 0
2, 23040, Note_on_c, 13, 52, 80
2, 23040, Note_on_c, 13, 55, 80
2, 23040, Note_on_c, 13, 59, 80
2, 23495, Note_on_c, 13, 52, 0
2, 23495, Note_on_c, 13, 55, 0
2, 23495, Note_on_c, 13, 59, 0
2, 23520, Note_on_c, 13, 52, 80
2, 23520, Note_on_c, 13, 55, 80
2, 23520, Note_on_c, 13, 59, 80
2, 23975, Note_on_c, 13, 52, 0
2, 23975, Note_on_c, 13, 55, 0
2, 23975, Note_on_c, 13, 59, 0
2, 24000, Note_on_c, 13, 52, 80
2, 24000, Note_on_c, 13, 55, 80
2, 24000, Note_on_c, 13, 59, 80
2, 24455, Note_on_c, 13, 52, 0
2, 24455, Note_on_c, 13, 55, 0
2, 24455, Note_on_c, 13, 59, 0
2, 24480, Note_on_c, 13, 52, 80
2, 24480, Note_on_c, 13, 55, 80
2, 24480, Note_on_c, 13, 59, 80
2, 24935, Note_on_c, 13, 52, 0
2, 24935, Note_on_c, 13, 55, 0
2, 24935, Note_on_c, 13, 59, 0
2, 24960, Note_on_c, 13, 53, 80
2, 24960, Note_on_c, 13, 57, 80
2, 24960, Note_on_c, 13, 60, 80
2, 25415, Note_on_c, 13, 53, 0
2, 25415, Note_on_c, 13, 57, 0
2, 25415, Note_on_c, 13, 60, 0
2, 25440, Note_on_c, 13, 53, 80
2, 25440, Note_on_c, 13, 57, 80
2, 25440, Note_on_c, 13, 60, 80
2, 25895, Note_on_c, 13, 53, 0
2, 25895, Note_on_c, 13, 57, 0
2, 25895, Note_on_c, 13, 60, 0
2, 25920, Note_on_c, 13, 52, 80
2, 25920, Note_on_c, 13, 55, 80
2, 25920, Note_on_c, 13, 60, 80
2, 26375, Note_on_c, 13, 52, 0
2, 26375, Note_on_c, 13, 55, 0
2, 26375, Note_on_c, 13, 60, 0
2, 26400, Note_on_c, 13, 52, 80
2, 26400, Note_on_c, 13, 55, 80
2, 26400, Note_on_c, 13, 60, 80
2, 26855, Note_on_c, 13, 52, 0
2, 26855, Note_on_c, 13, 55, 0
2, 26855, Note_on_c, 13, 60, 0
2, 26880, Note_on_c, 13, 52, 80
2, 26880, Note_on_c, 13, 55, 80
2, 26880, Note_on_c, 13, 59, 80
2, 27335, Note_on_c, 13, 52, 0
2, 27335, Note_on_c, 13, 55, 0
2, 27335, Note_on_c, 13, 59, 0
2, 27360, Note_on_c, 13, 52, 80
2, 27360, Note_on_c, 13, 55, 80
2, 27360, Note_on_c, 13, 59, 80
2, 27815, Note_on_c, 13, 52, 0
2, 27815, Note_on_c, 13, 55, 0
2, 27815, Note_on_c, 13, 59, 0
2, 27840, Note_on_c, 13, 52, 80
2, 27840, Note_on_c, 13, 55, 80
2, 27840, Note_on_c, 13, 59, 80
2, 28295, Note_on_c, 13, 52, 0
2, 28295, Note_on_c, 13, 55, 0
2, 28295, Note_on_c, 13, 59, 0
2, 28320, Note_on_c, 13, 52, 80
2, 28320, Note_on_c, 13, 55, 80
2, 28320, Note_on_c, 13, 59, 80
2, 28775, Note_on_c, 13, 52, 0
2, 28775, Note_on_c, 13, 55, 0
2, 28775, Note_on_c, 13, 59, 0
2, 28800, Note_on_c, 13, 53, 80
2, 28800, Note_on_c, 13, 57, 80
2, 28800, Note_on_c, 13, 60, 80
2, 29255, Note_on_c, 13, 53, 0
2, 29255, Note_on_c, 13, 57, 0
2, 29255, Note_on_c, 13, 60, 0
2, 29280, Note_on_c, 13, 53, 80
2, 29280, Note_on_c, 13, 57, 80
2, 29280, Note_on_c, 13, 60, 80
2, 29735, Note_on_c, 13, 53, 0
2, 29735, Note_on_c, 13, 57, 0
2, 29735, Note_on_c, 13, 60, 0
2, 29760, Note_on_c, 13, 52, 80
2, 29760, Note_on_c, 13, 55, 80
2, 29760, Note_on_c, 13, 60, 80
2, 30215, Note_on_c, 13, 52, 0
2, 30215, Note_on_c, 13, 55, 0
2, 30215, Note_on_c, 13, 60, 0
2, 30240, Note_on_c, 13, 52, 80
2, 30240, Note_on_c, 13, 55, 80
2, 30240, Note_on_c, 13, 60, 80
2, 30695, Note_on_c, 13, 52, 0
2, 30695, Note_on_c, 13, 55, 0
2, 30695, Note_on_c, 13, 60, 0
2, 30720, Note_on_c, 13, 53, 80
2, 30720, Note_on_c, 13, 57, 80
2, 30720, Note_on_c, 13, 62, 80
2, 31175, Note_on_c, 13, 53, 0
2, 31175, Note_on_c, 13, 57, 0
2, 31175, Note_on_c, 13, 62, 0
2, 31200, Note_on_c, 13, 53, 80
2, 31200, Note_on_c, 13, 57, 80
2, 31200, Note_on_c, 13, 62, 80
2, 31655, Note_on_c, 13, 53, 0
2, 31655, Note_on_c, 13, 57, 0
2, 31655, Note_on_c, 13, 62, 0
2, 31680, Note_on_c, 13, 53, 80
2, 31680, Note_on_c, 13, 57, 80
2, 31680, Note_on_c, 13, 62, 80
2, 32135, Note_on_c, 13, 53, 0
2, 32135, Note_on_c, 13, 57, 0
2, 32135, Note_on_c, 13, 62, 0
2, 32160, Note_on_c, 13, 53, 80
2, 32160, Note_on_c, 13, 57, 80
2, 32160, Note_on_c, 13, 62, 80
2, 32615, Note_on_c, 13, 53, 0
2, 32615, Note_on_c, 13, 57, 0
2, 32615, Note_on_c, 13, 62, 0
2, 32640, Note_on_c, 13, 53, 80
2, 32640, Note_on_c, 13, 60, 80
2, 33095, Note_on_c, 13, 53, 0
2, 33095, Note_on_c, 13, 60, 0
2, 33120, Note_on_c, 13, 53, 80
2, 33120, Note_on_c, 13, 60, 80
2, 33575, Note_on_c, 13, 53, 0
2, 33575, Note_on_c, 13, 60, 0
2, 33600, Note_on_c, 13, 53, 80
2, 33600, Note_on_c, 13, 60, 80
2, 34055, Note_on_c, 13, 53, 0
2, 34055, Note_on_c, 13, 60, 0
2, 34080, Note_on_c, 13, 53, 80
2, 34080, Note_on_c, 13, 60, 80
2, 34535, Note_on_c, 13, 53, 0
2, 34535, Note_on_c, 13, 60, 0
2, 34560, Note_on_c, 13, 53, 80
2, 34560, Note_on_c, 13, 57, 80
2, 34560, Note_on_c, 13, 62, 80
2, 35015, Note_on_c, 13, 53, 0
2, 35015, Note_on_c, 13, 57, 0
2, 35015, Note_on_c, 13, 62, 0
2, 35040, Note_on_c, 13, 53, 80
2, 35040, Note_on_c, 13, 57, 80
2, 35040, Note_on_c, 13, 62, 80
2, 35495, Note_on_c, 13, 53, 0
2, 35495, Note_on_c, 13, 57, 0
2, 35495, Note_on_c, 13, 62, 0
2, 35520, Note_on_c, 13, 53, 80
2, 35520, Note_on_c, 13, 57, 80
2, 35520, Note_on_c, 13, 62, 80
2, 35975, Note_on_c, 13, 53, 0
2, 35975, Note_on_c, 13, 57, 0
2, 35975, Note_on_c, 13, 62, 0
2, 36000, Note_on_c, 13, 53, 80
2, 36000, Note_on_c, 13, 57, 80
2, 36000, Note_on_c, 13, 62, 80
2, 36455, Note_on_c, 13, 53, 0
2, 36455, Note_on_c, 13, 57, 0
2, 36455, Note_on_c, 13, 62, 0
2, 36480, Note_on_c, 13, 53, 80
2, 36480, Note_on_c, 13, 62, 80
2, 37391, Note_on_c, 13, 53, 0
2, 37391, Note_on_c, 13, 62, 0
2, 37440, Note_on_c, 13, 53, 80
2, 37440, Note_on_c, 13, 62, 80
2, 38351, Note_on_c, 13, 53, 0
2, 38351, Note_on_c, 13, 62, 0
2, 39360, Note_on_c, 13, 52, 80
2, 39360, Note_on_c, 13, 55, 80
2, 39360, Note_on_c, 13, 60, 80
2, 39815, Note_on_c, 13, 52, 0
2, 39815, Note_on_c, 13, 55, 0
2, 39815, Note_on_c, 13, 60, 0
2, 39840, Note_on_c, 13, 52, 80
2, 39840, Note_on_c, 13, 55, 80
2, 39840, Note_on_c, 13, 60, 80
2, 40295, Note_on_c, 13, 52, 0
2, 40295, Note_on_c, 13, 55, 0
2, 40295, Note_on_c, 13, 60, 0
2, 40320, Note_on_c, 13, 52, 80
2, 40320, Note_on_c, 13, 55, 80
2, 40320, Note_on_c, 13, 60, 80
2, 40775, Note_on_c, 13, 52, 0
2, 40775, Note_on_c, 13, 55, 0
2, 40775, Note_on_c, 13, 60, 0
2, 40800, Note_on_c, 13, 52, 80
2, 40800, Note_on_c, 13, 55, 80
2, 40800, Note_on_c, 13, 60, 80
2, 41255, Note_on_c, 13, 52, 0
2, 41255, Note_on_c, 13, 55, 0
2, 41255, Note_on_c, 13, 60, 0
2, 41280, Note_on_c, 13, 53, 80
2, 41280, Note_on_c, 13, 57, 80
2, 41280, Note_on_c, 13, 60, 80
2, 41735, Note_on_c, 13, 53, 0
2, 41735, Note_on_c, 13, 57, 0
2, 41735, Note_on_c, 13, 60, 0
2, 41760, Note_on_c, 13, 53, 80
2, 41760, Note_on_c, 13, 57, 80
2, 41760, Note_on_c, 13, 60, 80
2, 42215, Note_on_c, 13, 53, 0
2, 42215, Note_on_c, 13, 57, 0
2, 42215, Note_on_c, 13, 60, 0
2, 42240, Note_on_c, 13, 53, 80
2, 42240, Note_on_c, 13, 57, 80
2, 42240, Note_on_c, 13, 60, 80
2, 42695, Note_on_c, 13, 53, 0
2, 42695, Note_on_c, 13, 57, 0
2, 42695, Note_on_c, 13, 60, 0
2, 42720, Note_on_c, 13, 53, 80
2, 42720, Note_on_c, 13, 57, 80
2, 42720, Note_on_c, 13, 60, 80
2, 43175, Note_on_c, 13, 53, 0
2, 43175, Note_on_c, 13, 57, 0
2, 43175, Note_on_c, 13, 60, 0
2, 43200, Note_on_c, 13, 52, 80
2, 43200, Note_on_c, 13, 55, 80
2, 43200, Note_on_c, 13, 60, 80
2, 43655, Note_on_c, 13, 52, 0
2, 43655, Note_on_c, 13, 55, 0
2, 43655, Note_on_c, 13, 60, 0
2, 43680, Note_on_c, 13, 52, 80
2, 43680, Note_on_c, 13, 55, 80
2, 43680, Note_on_c, 13, 60, 80
2, 44135, Note_on_c, 13, 52, 0
2, 44135, Note_on_c, 13, 55, 0
2, 44135, Note_on_c, 13, 60, 0
2, 44160, Note_on_c, 13, 52, 80
2, 44160, Note_on_c, 13, 55, 80
2, 44160, Note_on_c, 13, 60, 80
2, 44615, Note_on_c, 13, 52, 0
2, 44615, Note_on_c, 13, 55, 0
2, 44615, Note_on_c, 13, 60, 0
2, 44640, Note_on_c, 13, 52, 80
2, 44640, Note_on_c, 13, 55, 80
2, 44640, Note_on_c, 13, 60, 80
2, 45095, Note_on_c, 13, 52, 0
2, 45095, Note_on_c, 13, 55, 0
2, 45095, Note_on_c, 13, 60, 0
2, 45120, Note_on_c, 13, 53, 80
2, 45120, Note_on_c, 13, 57, 80
2, 45120, Note_on_c, 13, 60, 80
2, 45575, Note_on_c, 13, 53, 0
2, 45575, Note_on_c, 13, 57, 0
2, 45575, Note_on_c, 13, 60, 0
2, 45600, Note_on_c, 13, 53, 80
2, 45600, Note_on_c, 13, 57, 80
2, 45600, Note_on_c, 13, 60, 80
2, 46055, Note_on_c, 13, 53, 0
2, 46055, Note_on_c, 13, 57, 0
2, 46055, Note_on_c, 13, 60, 0
2, 46080, Note_on_c, 13, 53, 80
2, 46080, Note_on_c, 13, 57, 80
2, 46080, Note_on_c, 13, 59, 80
2, 46535, Note_on_c, 13, 53, 0
2, 46535, Note_on_c, 13, 57, 0
2, 46535, Note_on_c, 13, 59, 0
2, 46560, Note_on_c, 13, 53, 80
2, 46560, Note_on_c, 13, 57, 80
2, 46560, Note_on_c, 13, 60, 80
2, 47015, Note_on_c, 13, 53, 0
2, 47015, Note_on_c, 13, 57, 0
2, 47015, Note_on_c, 13, 60, 0
2, 47040, Note_on_c, 13, 52, 80
2, 47040, Note_on_c, 13, 55, 80
2, 47040, Note_on_c, 13, 60, 80
2, 47495, Note_on_c, 13, 52, 0
2, 47495, Note_on_c, 13, 55, 0
2, 47495, Note_on_c, 13, 60, 0
2, 47520, Note_on_c, 13, 52, 80
2, 47520, Note_on_c, 13, 55, 80
2, 47520, Note_on_c, 13, 60, 80
2, 47975, Note_on_c, 13, 52, 0
2, 47975, Note_on_c, 13, 55, 0
2, 47975, Note_on_c, 13, 60, 0
2, 48000, Note_on_c, 13, 52, 80
2, 48000, Note_on_c, 13, 55, 80
2, 48000, Note_on_c, 13, 60, 80
2, 48455, Note_on_c, 13, 52, 0
2, 48455, Note_on_c, 13, 55, 0
2, 48455, Note_on_c, 13, 60, 0
2, 48480, Note_on_c, 13, 52, 80
2, 48480, Note_on_c, 13, 55, 80
2, 48480, Note_on_c, 13, 60, 80
2, 48935, Note_on_c, 13, 52, 0
2, 48935, Note_on_c, 13, 55, 0
2, 48935, Note_on_c, 13, 60, 0
2, 48960, Note_on_c, 13, 53, 80
2, 48960, Note_on_c, 13, 57, 80
2, 48960, Note_on_c, 13, 60, 80
2, 49415, Note_on_c, 13, 53, 0
2, 49415, Note_on_c, 13, 57, 0
2, 49415, Note_on_c, 13, 60, 0
2, 49440, Note_on_c, 13, 53, 80
2, 49440, Note_on_c, 13, 57, 80
2, 49440, Note_on_c, 13, 60, 80
2, 49895, Note_on_c, 13, 53, 0
2, 49895, Note_on_c, 13, 57, 0
2, 49895, Note_on_c, 13, 60, 0
2, 49920, Note_on_c, 13, 53, 80
2, 49920, Note_on_c, 13, 57, 80
2, 49920, Note_on_c, 13, 60, 80
2, 50375, Note_on_c, 13, 53, 0
2, 50375, Note_on_c, 13, 57, 0
2, 50375, Note_on_c, 13, 60, 0
2, 50400, Note_on_c, 13, 53, 80
2, 50400, Note_on_c, 13, 57, 80
2, 50400, Note_on_c, 13, 59, 80
2, 50520, Note_on_c, 13, 60, 80
2, 50639, Note_on_c, 13, 53, 0
2, 50639, Note_on_c, 13, 57, 0
2, 50639, Note_on_c, 13, 59, 0
2, 50861, Note_on_c, 13, 60, 0
2, 50880, Note_on_c, 13, 52, 80
2, 50880, Note_on_c, 13, 55, 80
2, 50880, Note_on_c, 13, 60, 80
2, 51335, Note_on_c, 13, 52, 0
2, 51335, Note_on_c, 13, 55, 0
2, 51335, Note_on_c, 13, 60, 0
2, 51360, Note_on_c, 13, 52, 80
2, 51360, Note_on_c, 13, 55, 80
2, 51360, Note_on_c, 13, 60, 80
2, 51815, Note_on_c, 13, 52, 0
2, 51815, Note_on_c, 13, 55, 0
2, 51815, Note_on_c, 13, 60, 0
2, 51840, Note_on_c, 13, 52, 80
2, 51840, Note_on_c, 13, 55, 80
2, 51840, Note_on_c, 13, 60, 80
2, 52295, Note_on_c, 13, 52, 0
2, 52295, Note_on_c, 13, 55, 0
2, 52295, Note_on_c, 13, 60, 0
2, 52320, Note_on_c, 13, 52, 80
2, 52320, Note_on_c, 13, 55, 80
2, 52320, Note_on_c, 13, 60, 80
2, 52775, Note_on_c, 13, 52, 0
2, 52775, Note_on_c, 13, 55, 0
2, 52775, Note_on_c, 13, 60, 0
2, 52800, Note_on_c, 13, 53, 80
2, 52800, Note_on_c, 13, 57, 80
2, 52800, Note_on_c, 13, 60, 80
2, 53255, Note_on_c, 13, 53, 0
2, 53255, Note_on_c, 13, 57, 0
2, 53255, Note_on_c, 13, 60, 0
2, 53280, Note_on_c, 13, 53, 80
2, 53280, Note_on_c, 13, 57, 80
2, 53280, Note_on_c, 13, 60, 80
2, 53735, Note_on_c, 13, 53, 0
2, 53735, Note_on_c, 13, 57, 0
2, 53735, Note_on_c, 13, 60, 0
2, 53760, Note_on_c, 13, 53, 80
2, 53760, Note_on_c, 13, 57, 80
2, 53760, Note_on_c, 13, 64, 80
2, 54215, Note_on_c, 13, 53, 0
2, 54215, Note_on_c, 13, 57, 0
2, 54215, Note_on_c, 13, 64, 0
2, 54240, Note_on_c, 13, 53, 80
2, 54240, Note_on_c, 13, 57, 80
2, 54240, Note_on_c, 13, 62, 80
2, 54695, Note_on_c, 13, 53, 0
2, 54695, Note_on_c, 13, 57, 0
2, 54695, Note_on_c, 13, 62, 0
2, 54720, Note_on_c, 13, 52, 80
2, 54720, Note_on_c, 13, 59, 80
2, 54720, Note_on_c, 13, 62, 80
2, 55175, Note_on_c, 13, 52, 0
2, 55175, Note_on_c, 13, 59, 0
2, 55175, Note_on_c, 13, 62, 0
2, 55200, Note_on_c, 13, 52, 80
2, 55200, Note_on_c, 13, 59, 80
2, 55200, Note_on_c, 13, 62, 80
2, 55655, Note_on_c, 13, 52, 0
2, 55655, Note_on_c, 13, 59, 0
2, 55655, Note_on_c, 13, 62, 0
2, 55680, Note_on_c, 13, 52, 80
2, 55680, Note_on_c, 13, 59, 80
2, 55680, Note_on_c, 13, 62, 80
2, 56135, Note_on_c, 13, 52, 0
2, 56135, Note_on_c, 13, 59, 0
2, 56135, Note_on_c, 13, 62, 0
2, 56160, Note_on_c, 13, 52, 80
2, 56160, Note_on_c, 13, 59, 80
2, 56160, Note_on_c, 13, 62, 80
2, 56615, Note_on_c, 13, 52, 0
2, 56615, Note_on_c, 13, 59, 0
2, 56615, Note_on_c, 13, 62, 0
2, 56640, Note_on_c, 13, 53, 80
2, 56640, Note_on_c, 13, 57, 80
2, 56640, Note_on_c, 13, 60, 80
2, 57095, Note_on_c, 13, 53, 0
2, 57095, Note_on_c, 13, 57, 0
2, 57095, Note_on_c, 13, 60, 0
2, 57120, Note_on_c, 13, 53, 80
2, 57120, Note_on_c, 13, 57, 80
2, 57120, Note_on_c, 13, 60, 80
2, 57575, Note_on_c, 13, 53, 0
2, 57575, Note_on_c, 13, 57, 0
2, 57575, Note_on_c, 13, 60, 0
2, 57600, Note_on_c, 13, 52, 80
2, 57600, Note_on_c, 13, 55, 80
2, 57600, Note_on_c, 13, 60, 80
2, 58055, Note_on_c, 13, 52, 0
2, 58055, Note_on_c, 13, 55, 0
2, 58055, Note_on_c, 13, 60, 0
2, 58080, Note_on_c, 13, 52, 80
2, 58080, Note_on_c, 13, 55, 80
2, 58080, Note_on_c, 13, 60, 80
2, 58535, Note_on_c, 13, 52, 0
2, 58535, Note_on_c, 13, 55, 0
2, 58535, Note_on_c, 13, 60, 0
2, 58560, Note_on_c, 13, 52, 80
2, 58560, Note_on_c, 13, 55, 80
2, 58560, Note_on_c, 13, 59, 80
2, 58560, Note_on_c, 13, 62, 80
2, 59015, Note_on_c, 13, 52, 0
2, 59015, Note_on_c, 13, 55, 0
2, 59015, Note_on_c, 13, 59, 0
2, 59015, Note_on_c, 13, 62, 0
2, 59040, Note_on_c, 13, 52, 80
2, 59040, Note_on_c, 13, 55, 80
2, 59040, Note_on_c, 13, 59, 80
2, 59495, Note_on_c, 13, 52, 0
2, 59495, Note_on_c, 13, 55, 0
2, 59495, Note_on_c, 13, 59, 0
2, 59520, Note_on_c, 13, 52, 80
2, 59520, Note_on_c, 13, 59, 80
2, 59975, Note_on_c, 13, 52, 0
2, 59975, Note_on_c, 13, 59, 0
2, 60000, Note_on_c, 13, 52, 80
2, 60000, Note_on_c, 13, 59, 80
2, 60455, Note_on_c, 13, 52, 0
2, 60455, Note_on_c, 13, 59, 0
2, 60480, Note_on_c, 13, 53, 80
2, 60480, Note_on_c, 13, 57, 80
2, 60480, Note_on_c, 13, 60, 80
2, 60935, Note_on_c, 13, 53, 0
2, 60935, Note_on_c, 13, 57, 0
2, 60935, Note_on_c, 13, 60, 0
2, 60960, Note_on_c, 13, 53, 80
2, 60960, Note_on_c, 13, 57, 80
2, 60960, Note_on_c, 13, 60, 80
2, 61415, Note_on_c, 13, 53, 0
2, 61415, Note_on_c, 13, 57, 0
2, 61415, Note_on_c, 13, 60, 0
2, 61440, Note_on_c, 13, 52, 80
2, 61440, Note_on_c, 13, 55, 80
2, 61440, Note_on_c, 13, 60, 80
2, 61895, Note_on_c, 13, 52, 0
2, 61895, Note_on_c, 13, 55, 0
2, 61895, Note_on_c, 13, 60, 0
2, 61920, Note_on_c, 13, 52, 80
2, 61920, Note_on_c, 13, 55, 80
2, 61920, Note_on_c, 13, 60, 80
2, 62375, Note_on_c, 13, 52, 0
2, 62375, Note_on_c, 13, 55, 0
2, 62375, Note_on_c, 13, 60, 0
2, 62400, Note_on_c, 13, 53, 80
2, 62400, Note_on_c, 13, 57, 80
2, 62400, Note_on_c, 13, 62, 80
2, 62855, Note_on_c, 13, 53, 0
2, 62855, Note_on_c, 13, 57, 0
2, 62855, Note_on_c, 13, 62, 0
2, 62880, Note_on_c, 13, 53, 80
2, 62880, Note_on_c, 13, 57, 80
2, 62880, Note_on_c, 13, 62, 80
2, 63335, Note_on_c, 13, 53, 0
2, 63335, Note_on_c, 13, 57, 0
2, 63335, Note_on_c, 13, 62, 0
2, 63360, Note_on_c, 13, 53, 80
2, 63360, Note_on_c, 13, 57, 80
2, 63360, Note_on_c, 13, 62, 80
2, 63815, Note_on_c, 13, 53, 0
2, 63815, Note_on_c, 13, 57, 0
2, 63815, Note_on_c, 13, 62, 0
2, 63840, Note_on_c, 13, 53, 80
2, 63840, Note_on_c, 13, 57, 80
2, 63840, Note_on_c, 13, 62, 80
2, 64295, Note_on_c, 13, 53, 0
2, 64295, Note_on_c, 13, 57, 0
2, 64295, Note_on_c, 13, 62, 0
2, 64320, Note_on_c, 13, 53, 80
2, 64320, Note_on_c, 13, 60, 80
2, 64775, Note_on_c, 13, 53, 0
2, 64775, Note_on_c, 13, 60, 0
2, 64800, Note_on_c, 13, 53, 80
2, 64800, Note_on_c, 13, 60, 80
2, 65255, Note_on_c, 13, 53, 0
2, 65255, Note_on_c, 13, 60, 0
2, 65280, Note_on_c, 13, 53, 80
2, 65280, Note_on_c, 13, 60, 80
2, 65735, Note_on_c, 13, 53, 0
2, 65735, Note_on_c, 13, 60, 0
2, 65760, Note_on_c, 13, 53, 80
2, 65760, Note_on_c, 13, 60, 80
2, 66215, Note_on_c, 13, 53, 0
2, 66215, Note_on_c, 13, 60, 0
2, 66240, Note_on_c, 13, 53, 80
2, 66240, Note_on_c, 13, 57, 80
2, 66240, Note_on_c, 13, 62, 80
2, 66695, Note_on_c, 13, 53, 0
2, 66695, Note_on_c, 13, 57, 0
2, 66695, Note_on_c, 13, 62, 0
2, 66720, Note_on_c, 13, 53, 80
2, 66720, Note_on_c, 13, 57, 80
2, 66720, Note_on_c, 13, 62, 80
2, 67175, Note_on_c, 13, 53, 0
2, 67175, Note_on_c, 13, 57, 0
2, 67175, Note_on_c, 13, 62, 0
2, 67200, Note_on_c, 13, 53, 80
2, 67200, Note_on_c, 13, 57, 80
2, 67200, Note_on_c, 13, 62, 80
2, 67655, Note_on_c, 13, 53, 0
2, 67655, Note_on_c, 13, 57, 0
2, 67655, Note_on_c, 13, 62, 0
2, 67680, Note_on_c, 13, 53, 80
2, 67680, Note_on_c, 13, 57, 80
2, 67680, Note_on_c, 13, 62, 80
2, 68135, Note_on_c, 13, 53, 0
2, 68135, Note_on_c, 13, 57, 0
2, 68135, Note_on_c, 13, 62, 0
2, 68160, Note_on_c, 13, 53, 80
2, 68160, Note_on_c, 13, 62, 80
2, 69071, Note_on_c, 13, 53, 0
2, 69071, Note_on_c, 13, 62, 0
2, 69120, Note_on_c, 13, 53, 80
2, 69120, Note_on_c, 13, 62, 80
2, 70031, Note_on_c, 13, 53, 0
2, 70031, Note_on_c, 13, 62, 0
2, 70080, Note_on_c, 13, 52, 80
2, 70080, Note_on_c, 13, 55, 80
2, 70080, Note_on_c, 13, 60, 80
2, 70535, Note_on_c, 13, 52, 0
2, 70535, Note_on_c, 13, 55, 0
2, 70535, Note_on_c, 13, 60, 0
2, 70560, Note_on_c, 13, 52, 80
2, 70560, Note_on_c, 13, 55, 80
2, 70560, Note_on_c, 13, 60, 80
2, 71015, Note_on_c, 13, 52, 0
2, 71015, Note_on_c, 13, 55, 0
2, 71015, Note_on_c, 13, 60, 0
2, 71040, Note_on_c, 13, 52, 80
2, 71040, Note_on_c, 13, 55, 80
2, 71040, Note_on_c, 13, 59, 80
2, 71495, Note_on_c, 13, 52, 0
2, 71495, Note_on_c, 13, 55, 0
2, 71495, Note_on_c, 13, 59, 0
2, 71520, Note_on_c, 13, 52, 80
2, 71520, Note_on_c, 13, 55, 80
2, 71520, Note_on_c, 13, 59, 80
2, 71975, Note_on_c, 13, 52, 0
2, 71975, Note_on_c, 13, 55, 0
2, 71975, Note_on_c, 13, 59, 0
2, 72000, Note_on_c, 13, 53, 80
2, 72000, Note_on_c, 13, 57, 80
2, 72000, Note_on_c, 13, 60, 80
2, 72455, Note_on_c, 13, 53, 0
2, 72455, Note_on_c, 13, 57, 0
2, 72455, Note_on_c, 13, 60, 0
2, 72480, Note_on_c, 13, 53, 80
2, 72480, Note_on_c, 13, 57, 80
2, 72480, Note_on_c, 13, 60, 80
2, 72935, Note_on_c, 13, 53, 0
2, 72935, Note_on_c, 13, 57, 0
2, 72935, Note_on_c, 13, 60, 0
2, 72960, Note_on_c, 13, 53, 80
2, 72960, Note_on_c, 13, 60, 80
2, 73415, Note_on_c, 13, 53, 0
2, 73415, Note_on_c, 13, 60, 0
2, 73440, Note_on_c, 13, 53, 80
2, 73440, Note_on_c, 13, 60, 80
2, 73895, Note_on_c, 13, 53, 0
2, 73895, Note_on_c, 13, 60, 0
2, 73920, Note_on_c, 13, 52, 80
2, 73920, Note_on_c, 13, 55, 80
2, 73920, Note_on_c, 13, 60, 80
2, 74375, Note_on_c, 13, 52, 0
2, 74375, Note_on_c, 13, 55, 0
2, 74375, Note_on_c, 13, 60, 0
2, 74400, Note_on_c, 13, 52, 80
2, 74400, Note_on_c, 13, 55, 80
2, 74400, Note_on_c, 13, 60, 80
2, 74855, Note_on_c, 13, 52, 0
2, 74855, Note_on_c, 13, 55, 0
2, 74855, Note_on_c, 13, 60, 0
2, 74880, Note_on_c, 13, 52, 80
2, 74880, Note_on_c, 13, 55, 80
2, 74880, Note_on_c, 13, 59, 80
2, 75335, Note_on_c, 13, 52, 0
2, 75335, Note_on_c, 13, 55, 0
2, 75335, Note_on_c, 13, 59, 0
2, 75360, Note_on_c, 13, 52, 80
2, 75360, Note_on_c, 13, 55, 80
2, 75360, Note_on_c, 13, 59, 80
2, 75815, Note_on_c, 13, 52, 0
2, 75815, Note_on_c, 13, 55, 0
2, 75815, Note_on_c, 13, 59, 0
2, 75840, Note_on_c, 13, 53, 80
2, 75840, Note_on_c, 13, 57, 80
2, 75840, Note_on_c, 13, 60, 80
2, 76295, Note_on_c, 13, 53, 0
2, 76295, Note_on_c, 13, 57, 0
2, 76295, Note_on_c, 13, 60, 0
2, 76320, Note_on_c, 13, 53, 80
2, 76320, Note_on_c, 13, 57, 80
2, 76320, Note_on_c, 13, 60, 80
2, 76775, Note_on_c, 13, 53, 0
2, 76775, Note_on_c, 13, 57, 0
2, 76775, Note_on_c, 13, 60, 0
2, 76800, Note_on_c, 13, 53, 80
2, 76800, Note_on_c, 13, 60, 80
2, 77255, Note_on_c, 13, 53, 0
2, 77255, Note_on_c, 13, 60, 0
2, 77280, Note_on_c, 13, 53, 80
2, 77280, Note_on_c, 13, 60, 80
2, 77735, Note_on_c, 13, 53, 0
2, 77735, Note_on_c, 13, 60, 0
2, 77760, Note_on_c, 13, 52, 80
2, 77760, Note_on_c, 13, 55, 80
2, 77760, Note_on_c, 13, 60, 80
2, 78215, Note_on_c, 13, 52, 0
2, 78215, Note_on_c, 13, 55, 0
2, 78215, Note_on_c, 13, 60, 0
2, 78240, Note_on_c, 13, 52, 80
2, 78240, Note_on_c, 13, 55, 80
2, 78240, Note_on_c, 13, 60, 80
2, 78353, Note_on_c, 13, 52, 0
2, 78353, Note_on_c, 13, 55, 0
2, 78353, Note_on_c, 13, 60, 0
2, 78360, Note_on_c, 13, 62, 80
2, 78587, Note_on_c, 13, 62, 0
2, 78600, Note_on_c, 13, 55, 80
2, 78713, Note_on_c, 13, 55, 0
2, 78720, Note_on_c, 13, 52, 80
2, 78720, Note_on_c, 13, 55, 80
2, 78720, Note_on_c, 13, 59, 80
2, 79175, Note_on_c, 13, 52, 0
2, 79175, Note_on_c, 13, 55, 0
2, 79175, Note_on_c, 13, 59, 0
2, 79200, Note_on_c, 13, 52, 80
2, 79200, Note_on_c, 13, 55, 80
2, 79200, Note_on_c, 13, 59, 80
2, 79313, Note_on_c, 13, 52, 0
2, 79313, Note_on_c, 13, 55, 0
2, 79313, Note_on_c, 13, 59, 0
2, 79320, Note_on_c, 13, 60, 80
2, 79547, Note_on_c, 13, 60, 0
2, 79560, Note_on_c, 13, 55, 80
2, 79673, Note_on_c, 13, 55, 0
2, 79680, Note_on_c, 13, 53, 80
2, 79680, Note_on_c, 13, 57, 80
2, 79680, Note_on_c, 13, 60, 80
2, 80135, Note_on_c, 13, 53, 0
2, 80135, Note_on_c, 13, 57, 0
2, 80135, Note_on_c, 13, 60, 0
2, 80160, Note_on_c, 13, 53, 80
2, 80160, Note_on_c, 13, 57, 80
2, 80160, Note_on_c, 13, 60, 80
2, 80273, Note_on_c, 13, 53, 0
2, 80273, Note_on_c, 13, 57, 0
2, 80273, Note_on_c, 13, 60, 0
2, 80280, Note_on_c, 13, 62, 80
2, 80507, Note_on_c, 13, 62, 0
2, 80520, Note_on_c, 13, 53, 80
2, 80633, Note_on_c, 13, 53, 0
2, 80640, Note_on_c, 13, 53, 80
2, 80640, Note_on_c, 13, 60, 80
2, 81095, Note_on_c, 13, 53, 0
2, 81095, Note_on_c, 13, 60, 0
2, 81120, Note_on_c, 13, 53, 80
2, 81120, Note_on_c, 13, 60, 80
2, 81233, Note_on_c, 13, 53, 0
2, 81233, Note_on_c, 13, 60, 0
2, 81240, Note_on_c, 13, 62, 80
2, 81467, Note_on_c, 13, 62, 0
2, 81480, Note_on_c, 13, 53, 80
2, 81593, Note_on_c, 13, 53, 0
2, 81600, Note_on_c, 13, 52, 80
2, 81600, Note_on_c, 13, 55, 80
2, 81600, Note_on_c, 13, 60, 80
2, 82055, Note_on_c, 13, 52, 0
2, 82055, Note_on_c, 13, 55, 0
2, 82055, Note_on_c, 13, 60, 0
2, 82080, Note_on_c, 13, 52, 80
2, 82080, Note_on_c, 13, 55, 80
2, 82080, Note_on_c, 13, 60, 80
2, 82193, Note_on_c, 13, 52, 0
2, 82193, Note_on_c, 13, 55, 0
2, 82193, Note_on_c, 13, 60, 0
2, 82200, Note_on_c, 13, 62, 80
2, 82427, Note_on_c, 13, 62, 0
2, 82440, Note_on_c, 13, 55, 80
2, 82553, Note_on_c, 13, 55, 0
2, 82560, Note_on_c, 13, 52, 80
2, 82560, Note_on_c, 13, 55, 80
2, 82560, Note_on_c, 13, 59, 80
2, 83015, Note_on_c, 13, 52, 0
2, 83015, Note_on_c, 13, 55, 0
2, 83015, Note_on_c, 13, 59, 0
2, 83040, Note_on_c, 13, 52, 80
2, 83040, Note_on_c, 13, 55, 80
2, 83040, Note_on_c, 13, 59, 80
2, 83153, Note_on_c, 13, 52, 0
2, 83153, Note_on_c, 13, 55, 0
2, 83153, Note_on_c, 13, 59, 0
2, 83160, Note_on_c, 13, 60, 80
2, 83387, Note_on_c, 13, 60, 0
2, 83400, Note_on_c, 13, 55, 80
2, 83513, Note_on_c, 13, 55, 0
2, 83520, Note_on_c, 13, 53, 80
2, 83520, Note_on_c, 13, 57, 80
2, 83520, Note_on_c, 13, 60, 80
2, 83975, Note_on_c, 13, 53, 0
2, 83975, Note_on_c, 13, 57, 0
2, 83975, Note_on_c, 13, 60, 0
2, 84000, Note_on_c, 13, 53, 80
2, 84000, Note_on_c, 13, 57, 80
2, 84000, Note_on_c, 13, 60, 80
2, 84113, Note_on_c, 13, 53, 0
2, 84113, Note_on_c, 13, 57, 0
2, 84113, Note_on_c, 13, 60, 0
2, 84120, Note_on_c, 13, 62, 80
2, 84347, Note_on_c, 13, 62, 0
2, 84360, Note_on_c, 13, 53, 80
2, 84473, Note_on_c, 13, 53, 0
2, 84480, Note_on_c, 13, 53, 80
2, 84480, Note_on_c, 13, 60, 80
2, 84935, Note_on_c, 13, 53, 0
2, 84935, Note_on_c, 13, 60, 0
2, 85440, Note_on_c, 13, 52, 80
2, 85440, Note_on_c, 13, 55, 80
2, 85440, Note_on_c, 13, 60, 80
2, 85667, Note_on_c, 13, 52, 0
2, 85667, Note_on_c, 13, 55, 0
2, 85667, Note_on_c, 13, 60, 0
2, 85680, Note_on_c, 13, 55, 80
2, 85680, Note_on_c, 13, 60, 80
2, 85793, Note_on_c, 13, 55, 0
2, 85793, Note_on_c, 13, 60, 0
2, 85800, Note_on_c, 13, 62, 80
2, 85913, Note_on_c, 13, 62, 0
2, 85920, Note_on_c, 13, 55, 80
2, 85920, Note_on_c, 13, 60, 80
2, 86033, Note_on_c, 13, 55, 0
2, 86033, Note_on_c, 13, 60, 0
2, 86040, Note_on_c, 13, 62, 80
2, 86267, Note_on_c, 13, 62, 0
2, 86280, Note_on_c, 13, 52, 80
2, 86393, Note_on_c, 13, 52, 0
2, 86400, Note_on_c, 13, 52, 80
2, 86400, Note_on_c, 13, 55, 80
2, 86400, Note_on_c, 13, 59, 80
2, 86627, Note_on_c, 13, 52, 0
2, 86627, Note_on_c, 13, 55, 0
2, 86627, Note_on_c, 13, 59, 0
2, 86640, Note_on_c, 13, 55, 80
2, 86640, Note_on_c, 13, 59, 80
2, 86867, Note_on_c, 13, 55, 0
2, 86867, Note_on_c, 13, 59, 0
2, 86880, Note_on_c, 13, 55, 80
2, 86880, Note_on_c, 13, 59, 80
2, 86993, Note_on_c, 13, 55, 0
2, 86993, Note_on_c, 13, 59, 0
2, 87000, Note_on_c, 13, 60, 80
2, 87113, Note_on_c, 13, 60, 0
2, 87120, Note_on_c, 13, 55, 80
2, 87120, Note_on_c, 13, 62, 80
2, 87347, Note_on_c, 13, 55, 0
2, 87347, Note_on_c, 13, 62, 0
2, 87360, Note_on_c, 13, 53, 80
2, 87360, Note_on_c, 13, 57, 80
2, 87360, Note_on_c, 13, 60, 80
2, 87587, Note_on_c, 13, 53, 0
2, 87587, Note_on_c, 13, 57, 0
2, 87587, Note_on_c, 13, 60, 0
2, 87600, Note_on_c, 13, 57, 80
2, 87600, Note_on_c, 13, 60, 80
2, 87827, Note_on_c, 13, 57, 0
2, 87827, Note_on_c, 13, 60, 0
2, 87840, Note_on_c, 13, 57, 80
2, 87840, Note_on_c, 13, 60, 80
2, 87953, Note_on_c, 13, 57, 0
2, 87953, Note_on_c, 13, 60, 0
2, 87960, Note_on_c, 13, 62, 80
2, 88073, Note_on_c, 13, 62, 0
2, 88080, Note_on_c, 13, 57, 80
2, 88080, Note_on_c, 13, 60, 80
2, 88307, Note_on_c, 13, 57, 0
2, 88307, Note_on_c, 13, 60, 0
2, 88320, Note_on_c, 13, 53, 80
2, 88320, Note_on_c, 13, 60, 80
2, 88547, Note_on_c, 13, 53, 0
2, 88547, Note_on_c, 13, 60, 0
2, 88560, Note_on_c, 13, 53, 80
2, 88560, Note_on_c, 13, 60, 80
2, 88787, Note_on_c, 13, 53, 0
2, 88787, Note_on_c, 13, 60, 0
2, 88800, Note_on_c, 13, 53, 80
2, 88800, Note_on_c, 13, 60, 80
2, 88913, Note_on_c, 13, 53, 0
2, 88913, Note_on_c, 13, 60, 0
2, 88920, Note_on_c, 13, 62, 80
2, 89033, Note_on_c, 13, 62, 0
2, 89040, Note_on_c, 13, 53, 80
2, 89040, Note_on_c, 13, 60, 80
2, 89267, Note_on_c, 13, 53, 0
2, 89267, Note_on_c, 13, 60, 0
2, 89280, Note_on_c, 13, 52, 80
2, 89280, Note_on_c, 13, 55, 80
2, 89280, Note_on_c, 13, 60, 80
2, 89507, Note_on_c, 13, 52, 0
2, 89507, Note_on_c, 13, 55, 0
2, 89507, Note_on_c, 13, 60, 0
2, 89520, Note_on_c, 13, 55, 80
2, 89520, Note_on_c, 13, 60, 80
2, 89633, Note_on_c, 13, 55, 0
2, 89633, Note_on_c, 13, 60, 0
2, 89640, Note_on_c, 13, 62, 80
2, 89753, Note_on_c, 13, 62, 0
2, 89760, Note_on_c, 13, 55, 80
2, 89760, Note_on_c, 13, 60, 80
2, 89873, Note_on_c, 13, 55, 0
2, 89873, Note_on_c, 13, 60, 0
2, 89880, Note_on_c, 13, 62, 80
2, 90107, Note_on_c, 13, 62, 0
2, 90120, Note_on_c, 13, 52, 80
2, 90233, Note_on_c, 13, 52, 0
2, 90240, Note_on_c, 13, 52, 80
2, 90240, Note_on_c, 13, 55, 80
2, 90240, Note_on_c, 13, 59, 80
2, 90467, Note_on_c, 13, 52, 0
2, 90467, Note_on_c, 13, 55, 0
2, 90467, Note_on_c, 13, 59, 0
2, 90480, Note_on_c, 13, 55, 80
2, 90480, Note_on_c, 13, 59, 80
2, 90707, Note_on_c, 13, 55, 0
2, 90707, Note_on_c, 13, 59, 0
2, 90720, Note_on_c, 13, 55, 80
2, 90720, Note_on_c, 13, 59, 80
2, 90833, Note_on_c, 13, 55, 0
2, 90833, Note_on_c, 13, 59, 0
2, 90840, Note_on_c, 13, 60, 80
2, 90953, Note_on_c, 13, 60, 0
2, 90960, Note_on_c, 13, 55, 80
2, 90960, Note_on_c, 13, 62, 80
2, 91187, Note_on_c, 13, 55, 0
2, 91187, Note_on_c, 13, 62, 0
2, 91200, Note_on_c, 13, 53, 80
2, 91200, Note_on_c, 13, 57, 80
2, 91200, Note_on_c, 13, 60, 80
2, 91427, Note_on_c, 13, 53, 0
2, 91427, Note_on_c, 13, 57, 0
2, 91427, Note_on_c, 13, 60, 0
2, 91440, Note_on_c, 13, 57, 80
2, 91440, Note_on_c, 13, 60, 80
2, 91667, Note_on_c, 13, 57, 0
2, 91667, Note_on_c, 13, 60, 0
2, 91680, Note_on_c, 13, 57, 80
2, 91680, Note_on_c, 13, 60, 80
2, 91793, Note_on_c, 13, 57, 0
2, 91793, Note_on_c, 13, 60, 0
2, 91800, Note_on_c, 13, 62, 80
2, 91913, Note_on_c, 13, 62, 0
2, 91920, Note_on_c, 13, 57, 80
2, 91920, Note_on_c, 13, 60, 80
2, 92147, Note_on_c, 13, 57, 0
2, 92147, Note_on_c, 13, 60, 0
2, 92160, Note_on_c, 13, 53, 80
2, 92160, Note_on_c, 13, 60, 80
2, 92387, Note_on_c, 13, 53, 0
2, 92387, Note_on_c, 13, 60, 0
2, 92400, Note_on_c, 13, 53, 80
2, 92400, Note_on_c, 13, 60, 80
2, 92627, Note_on_c, 13, 53, 0
2, 92627, Note_on_c, 13, 60, 0
2, 92640, Note_on_c, 13, 53, 80
2, 92640, Note_on_c, 13, 60, 80
2, 92753, Note_on_c, 13, 53, 0
2, 92753, Note_on_c, 13, 60, 0
2, 92760, Note_on_c, 13, 62, 80
2, 92873, Note_on_c, 13, 62, 0
2, 92880, Note_on_c, 13, 53, 80
2, 92880, Note_on_c, 13, 60, 80
2, 93107, Note_on_c, 13, 53, 0
2, 93107, Note_on_c, 13, 60, 0
2, 93120, Note_on_c, 13, 52, 80
2, 93120, Note_on_c, 13, 55, 80
2, 93120, Note_on_c, 13, 60, 80
2, 93347, Note_on_c, 13, 52, 0
2, 93347, Note_on_c, 13, 55, 0
2, 93347, Note_on_c, 13, 60, 0
2, 93360, Note_on_c, 13, 55, 80
2, 93360, Note_on_c, 13, 60, 80
2, 93473, Note_on_c, 13, 55, 0
2, 93473, Note_on_c, 13, 60, 0
2, 93480, Note_on_c, 13, 62, 80
2, 93593, Note_on_c, 13, 62, 0
2, 93600, Note_on_c, 13, 55, 80
2, 93600, Note_on_c, 13, 60, 80
2, 93713, Note_on_c, 13, 55, 0
2, 93713, Note_on_c, 13, 60, 0
2, 93720, Note_on_c, 13, 62, 80
2, 93947, Note_on_c, 13, 62, 0
2, 93960, Note_on_c, 13, 52, 80
2, 94073, Note_on_c, 13, 52, 0
2, 94080, Note_on_c, 13, 52, 80
2, 94080, Note_on_c, 13, 55, 80
2, 94080, Note_on_c, 13, 59, 80
2, 94307, Note_on_c, 13, 52, 0
2, 94307, Note_on_c, 13, 55, 0
2, 94307, Note_on_c, 13, 59, 0
2, 94320, Note_on_c, 13, 55, 80
2, 94320, Note_on_c, 13, 59, 80
2, 94547, Note_on_c, 13, 55, 0
2, 94547, Note_on_c, 13, 59, 0
2, 94560, Note_on_c, 13, 55, 80
2, 94560, Note_on_c, 13, 59, 80
2, 94673, Note_on_c, 13, 55, 0
2, 94673, Note_on_c, 13, 59, 0
2, 94680, Note_on_c, 13, 60, 80
2, 94793, Note_on_c, 13, 60, 0
2, 94800, Note_on_c, 13, 55, 80
2, 94800, Note_on_c, 13, 62, 80
2, 95027, Note_on_c, 13, 55, 0
2, 95027, Note_on_c, 13, 62, 0
2, 95040, Note_on_c, 13, 53, 80
2, 95040, Note_on_c, 13, 57, 80
2, 95040, Note_on_c, 13, 60, 80
2, 95267, Note_on_c, 13, 53, 0
2, 95267, Note_on_c, 13, 57, 0
2, 95267, Note_on_c, 13, 60, 0
2, 95280, Note_on_c, 13, 57, 80
2, 95280, Note_on_c, 13, 60, 80
2, 95507, Note_on_c, 13, 57, 0
2, 95507, Note_on_c, 13, 60, 0
2, 95520, Note_on_c, 13, 57, 80
2, 95520, Note_on_c, 13, 60, 80
2, 95633, Note_on_c, 13, 57, 0
2, 95633, Note_on_c, 13, 60, 0
2, 95640, Note_on_c, 13, 62, 80
2, 95753, Note_on_c, 13, 62, 0
2, 95760, Note_on_c, 13, 57, 80
2, 95760, Note_on_c, 13, 60, 80
2, 95987, Note_on_c, 13, 57, 0
2, 95987, Note_on_c, 13, 60, 0
2, 96000, Note_on_c, 13, 53, 80
2, 96000, Note_on_c, 13, 60, 80
2, 96227, Note_on_c, 13, 53, 0
2, 96227, Note_on_c, 13, 60, 0
2, 96240, Note_on_c, 13, 53, 80
2, 96240, Note_on_c, 13, 60, 80
2, 96467, Note_on_c, 13, 53, 0
2, 96467, Note_on_c, 13, 60, 0
2, 96480, Note_on_c, 13, 53, 80
2, 96480, Note_on_c, 13, 60, 80
2, 96593, Note_on_c, 13, 53, 0
2, 96593, Note_on_c, 13, 60, 0
2, 96600, Note_on_c, 13, 62, 80
2, 96713, Note_on_c, 13, 62, 0
2, 96720, Note_on_c, 13, 53, 80
2, 96720, Note_on_c, 13, 60, 80
2, 96947, Note_on_c, 13, 53, 0
2, 96947, Note_on_c, 13, 60, 0
2, 96960, Note_on_c, 13, 52, 80
2, 96960, Note_on_c, 13, 55, 80
2, 96960, Note_on_c, 13, 60, 80
2, 97187, Note_on_c, 13, 52, 0
2, 97187, Note_on_c, 13, 55, 0
2, 97187, Note_on_c, 13, 60, 0
2, 97200, Note_on_c, 13, 55, 80
2, 97200, Note_on_c, 13, 60, 80
2, 97313, Note_on_c, 13, 55, 0
2, 97313, Note_on_c, 13, 60, 0
2, 97320, Note_on_c, 13, 62, 80
2, 97433, Note_on_c, 13, 62, 0
2, 97440, Note_on_c, 13, 55, 80
2, 97440, Note_on_c, 13, 60, 80
2, 97553, Note_on_c, 13, 55, 0
2, 97553, Note_on_c, 13, 60, 0
2, 97560, Note_on_c, 13, 62, 80
2, 97787, Note_on_c, 13, 62, 0
2, 97800, Note_on_c, 13, 52, 80
2, 97913, Note_on_c, 13, 52, 0
2, 97920, Note_on_c, 13, 52, 80
2, 97920, Note_on_c, 13, 55, 80
2, 97920, Note_on_c, 13, 59, 80
2, 98147, Note_on_c, 13, 52, 0
2, 98147, Note_on_c, 13, 55, 0
2, 98147, Note_on_c, 13, 59, 0
2, 98160, Note_on_c, 13, 55, 80
2, 98160, Note_on_c, 13, 59, 80
2, 98387, Note_on_c, 13, 55, 0
2, 98387, Note_on_c, 13, 59, 0
2, 98400, Note_on_c, 13, 55, 80
2, 98400, Note_on_c, 13, 59, 80
2, 98513, Note_on_c, 13, 55, 0
2, 98513, Note_on_c, 13, 59, 0
2, 98520, Note_on_c, 13, 60, 80
2, 98633, Note_on_c, 13, 60, 0
2, 98640, Note_on_c, 13, 55, 80
2, 98640, Note_on_c, 13, 62, 80
2, 98867, Note_on_c, 13, 55, 0
2, 98867, Note_on_c, 13, 62, 0
2, 98880, Note_on_c, 13, 53, 80
2, 98880, Note_on_c, 13, 57, 80
2, 98880, Note_on_c, 13, 60, 80
2, 99107, Note_on_c, 13, 53, 0
2, 99107, Note_on_c, 13, 57, 0
2, 99107, Note_on_c, 13, 60, 0
2, 99120, Note_on_c, 13, 57, 80
2, 99120, Note_on_c, 13, 60, 80
2, 99347, Note_on_c, 13, 57, 0
2, 99347, Note_on_c, 13, 60, 0
2, 99360, Note_on_c, 13, 57, 80
2, 99360, Note_on_c, 13, 60, 80
2, 99473, Note_on_c, 13, 57, 0
2, 99473, Note_on_c, 13, 60, 0
2, 99480, Note_on_c, 13, 62, 80
2, 99593, Note_on_c, 13, 62, 0
2, 99600, Note_on_c, 13, 57, 80
2, 99600, Note_on_c, 13, 60, 80
2, 99827, Note_on_c, 13, 57, 0
2, 99827, Note_on_c, 13, 60, 0
2, 99840, Note_on_c, 13, 53, 80
2, 99840, Note_on_c, 13, 60, 80
2, 100067, Note_on_c, 13, 53, 0
2, 100067, Note_on_c, 13, 60, 0
2, 100080, Note_on_c, 13, 53, 80
2, 100080, Note_on_c, 13, 60, 80
2, 100307, Note_on_c, 13, 53, 0
2, 100307, Note_on_c, 13, 60, 0
2, 100320, Note_on_c, 13, 53, 80
2, 100320, Note_on_c, 13, 60, 80
2, 100433, Note_on_c, 13, 53, 0
2, 100433, Note_on_c, 13, 60, 0
2, 100440, Note_on_c, 13, 62, 80
2, 100553, Note_on_c, 13, 62, 0
2, 100560, Note_on_c, 13, 53, 80
2, 100560, Note_on_c, 13, 60, 80
2, 100787, Note_on_c, 13, 53, 0
2, 100787, Note_on_c, 13, 60, 0
2, 100800, Note_on_c, 13, 60, 80
2, 101711, Note_on_c, 13, 60, 0
2, 101760, Note_on_c, 13, 59, 80
2, 102671, Note_on_c, 13, 59, 0
2, 102720, Note_on_c, 13, 57, 80
2, 103631, Note_on_c, 13, 57, 0
2, 103680, Note_on_c, 13, 55, 80
2, 104135, Note_on_c, 13, 55, 0
2, 104640, Note_on_c, 13, 60, 80
2, 105551, Note_on_c, 13, 60, 0
2, 105600, Note_on_c, 13, 59, 80
2, 106511, Note_on_c, 13, 59, 0
2, 106560, Note_on_c, 13, 57, 80
2, 107471, Note_on_c, 13, 57, 0
2, 107520, Note_on_c, 13, 55, 80
2, 107975, Note_on_c, 13, 55, 0
2, 107976, End_track
3, 0, Start_track
3, 0, Title_t, "Electric Bass, Bass Guitar, Bass Guitar\000"
3, 0, Key_signature, 0, "major"
3, 0, Control_c, 10, 121, 0
3, 0, Program_c, 10, 33
3, 0, Control_c, 10, 7, 100
3, 0, Control_c, 10, 10, 64
3, 0, Control_c, 10, 91, 0
3, 0, Control_c, 10, 93, 0
3, 0, MIDI_port, 0
3, 0, Control_c, 0, 121, 0
3, 0, Program_c, 0, 36
3, 0, Control_c, 0, 7, 100
3, 0, Control_c, 0, 10, 64
3, 0, Control_c, 0, 91, 0
3, 0, Control_c, 0, 93, 0
3, 0, MIDI_port, 0
3, 0, Control_c, 3, 121, 0
3, 0, Program_c, 3, 37
3, 0, Control_c, 3, 7, 100
3, 0, Control_c, 3, 10, 64
3, 0, Control_c, 3, 91, 0
3, 0, Control_c, 3, 93, 0
3, 0, MIDI_port, 0
3, 23040, Note_on_c, 10, 52, 80
3, 23759, Note_on_c, 10, 52, 0
3, 23760, Note_on_c, 10, 52, 80
3, 23879, Note_on_c, 10, 52, 0
3, 24000, Note_on_c, 10, 52, 80
3, 24719, Note_on_c, 10, 52, 0
3, 24720, Note_on_c, 10, 52, 80
3, 24839, Note_on_c, 10, 52, 0
3, 24960, Note_on_c, 10, 53, 80
3, 25679, Note_on_c, 10, 53, 0
3, 25680, Note_on_c, 10, 53, 80
3, 25799, Note_on_c, 10, 53, 0
3, 25920, Note_on_c, 10, 48, 80
3, 26639, Note_on_c, 10, 48, 0
3, 26640, Note_on_c, 10, 48, 80
3, 26759, Note_on_c, 10, 48, 0
3, 26880, Note_on_c, 10, 52, 80
3, 27599, Note_on_c, 10, 52, 0
3, 27600, Note_on_c, 10, 52, 80
3, 27719, Note_on_c, 10, 52, 0
3, 27840, Note_on_c, 10, 52, 80
3, 28559, Note_on_c, 10, 52, 0
3, 28560, Note_on_c, 10, 52, 80
3, 28679, Note_on_c, 10, 52, 0
3, 28800, Note_on_c, 10, 53, 80
3, 29519, Note_on_c, 10, 53, 0
3, 29520, Note_on_c, 10, 53, 80
3, 29639, Note_on_c, 10, 53, 0
3, 29760, Note_on_c, 10, 48, 80
3, 30479, Note_on_c, 10, 48, 0
3, 30480, Note_on_c, 10, 48, 80
3, 30599, Note_on_c, 10, 48, 0
3, 30720, Note_on_c, 10, 50, 80
3, 32639, Note_on_c, 10, 50, 0
3, 32640, Note_on_c, 10, 53, 80
3, 34319, Note_on_c, 10, 53, 0
3, 34320, Note_on_c, 10, 53, 80
3, 34439, Note_on_c, 10, 53, 0
3, 34560, Note_on_c, 10, 50, 80
3, 36479, Note_on_c, 10, 50, 0
3, 39360, Note_on_c, 10, 60, 80
3, 39839, Note_on_c, 10, 60, 0
3, 40080, Note_on_c, 10, 60, 80
3, 40199, Note_on_c, 10, 60, 0
3, 40320, Note_on_c, 10, 57, 80
3, 40799, Note_on_c, 10, 57, 0
3, 41040, Note_on_c, 10, 57, 80
3, 41159, Note_on_c, 10, 57, 0
3, 41280, Note_on_c, 10, 53, 80
3, 41759, Note_on_c, 10, 53, 0
3, 42000, Note_on_c, 10, 53, 80
3, 42119, Note_on_c, 10, 53, 0
3, 42240, Note_on_c, 10, 53, 80
3, 42719, Note_on_c, 10, 53, 0
3, 42720, Note_on_c, 10, 53, 80
3, 43199, Note_on_c, 10, 53, 0
3, 43200, Note_on_c, 10, 60, 80
3, 43679, Note_on_c, 10, 60, 0
3, 43920, Note_on_c, 10, 60, 80
3, 44039, Note_on_c, 10, 60, 0
3, 44160, Note_on_c, 10, 57, 80
3, 44639, Note_on_c, 10, 57, 0
3, 44880, Note_on_c, 10, 57, 80
3, 44999, Note_on_c, 10, 57, 0
3, 45120, Note_on_c, 10, 53, 80
3, 45599, Note_on_c, 10, 53, 0
3, 45840, Note_on_c, 10, 53, 80
3, 45959, Note_on_c, 10, 53, 0
3, 46080, Note_on_c, 10, 53, 80
3, 46559, Note_on_c, 10, 53, 0
3, 46560, Note_on_c, 10, 65, 80
3, 47039, Note_on_c, 10, 65, 0
3, 47040, Note_on_c, 10, 60, 80
3, 47519, Note_on_c, 10, 60, 0
3, 47760, Note_on_c, 10, 60, 80
3, 47879, Note_on_c, 10, 60, 0
3, 48000, Note_on_c, 10, 57, 80
3, 48479, Note_on_c, 10, 57, 0
3, 48720, Note_on_c, 10, 57, 80
3, 48839, Note_on_c, 10, 57, 0
3, 48960, Note_on_c, 10, 53, 80
3, 49439, Note_on_c, 10, 53, 0
3, 49680, Note_on_c, 10, 53, 80
3, 49799, Note_on_c, 10, 53, 0
3, 49920, Note_on_c, 10, 53, 80
3, 50399, Note_on_c, 10, 53, 0
3, 50400, Note_on_c, 10, 53, 80
3, 50879, Note_on_c, 10, 53, 0
3, 50880, Note_on_c, 10, 60, 80
3, 51359, Note_on_c, 10, 60, 0
3, 51600, Note_on_c, 10, 60, 80
3, 51719, Note_on_c, 10, 60, 0
3, 51840, Note_on_c, 10, 57, 80
3, 52319, Note_on_c, 10, 57, 0
3, 52560, Note_on_c, 10, 57, 80
3, 52679, Note_on_c, 10, 57, 0
3, 52800, Note_on_c, 10, 53, 80
3, 53279, Note_on_c, 10, 53, 0
3, 53520, Note_on_c, 10, 53, 80
3, 53639, Note_on_c, 10, 53, 0
3, 53760, Note_on_c, 10, 53, 80
3, 54239, Note_on_c, 10, 53, 0
3, 54240, Note_on_c, 10, 65, 80
3, 54719, Note_on_c, 10, 65, 0
3, 54720, Note_on_c, 10, 52, 80
3, 55199, Note_on_c, 10, 52, 0
3, 55440, Note_on_c, 10, 52, 80
3, 55559, Note_on_c, 10, 52, 0
3, 55680, Note_on_c, 10, 52, 80
3, 56159, Note_on_c, 10, 52, 0
3, 56400, Note_on_c, 10, 52, 80
3, 56519, Note_on_c, 10, 52, 0
3, 56640, Note_on_c, 10, 53, 80
3, 57359, Note_on_c, 10, 53, 0
3, 57360, Note_on_c, 10, 53, 80
3, 57479, Note_on_c, 10, 53, 0
3, 57600, Note_on_c, 10, 48, 80
3, 58319, Note_on_c, 10, 48, 0
3, 58320, Note_on_c, 10, 55, 80
3, 58439, Note_on_c, 10, 55, 0
3, 58560, Note_on_c, 10, 52, 80
3, 59039, Note_on_c, 10, 52, 0
3, 59280, Note_on_c, 10, 52, 80
3, 59399, Note_on_c, 10, 52, 0
3, 59520, Note_on_c, 10, 52, 80
3, 59999, Note_on_c, 10, 52, 0
3, 60240, Note_on_c, 10, 52, 80
3, 60359, Note_on_c, 10, 52, 0
3, 60480, Note_on_c, 10, 53, 80
3, 60959, Note_on_c, 10, 53, 0
3, 61200, Note_on_c, 10, 53, 80
3, 61319, Note_on_c, 10, 53, 0
3, 61440, Note_on_c, 10, 48, 80
3, 61679, Note_on_c, 10, 48, 0
3, 61680, Note_on_c, 10, 55, 80
3, 61799, Note_on_c, 10, 55, 0
3, 61920, Note_on_c, 10, 55, 80
3, 62039, Note_on_c, 10, 55, 0
3, 62160, Note_on_c, 10, 53, 80
3, 62279, Note_on_c, 10, 53, 0
3, 62400, Note_on_c, 10, 50, 80
3, 64319, Note_on_c, 10, 50, 0
3, 64320, Note_on_c, 10, 53, 80
3, 65999, Note_on_c, 10, 53, 0
3, 66000, Note_on_c, 10, 53, 80
3, 66239, Note_on_c, 10, 53, 0
3, 66240, Note_on_c, 10, 50, 80
3, 68159, Note_on_c, 10, 50, 0
3, 77760, Note_on_c, 10, 48, 80
3, 78479, Note_on_c, 10, 48, 0
3, 78480, Note_on_c, 10, 48, 80
3, 78599, Note_on_c, 10, 48, 0
3, 78600, Note_on_c, 10, 50, 80
3, 78719, Note_on_c, 10, 50, 0
3, 78720, Note_on_c, 10, 52, 80
3, 79439, Note_on_c, 10, 52, 0
3, 79440, Note_on_c, 10, 52, 80
3, 79559, Note_on_c, 10, 52, 0
3, 79680, Note_on_c, 10, 53, 80
3, 80399, Note_on_c, 10, 53, 0
3, 80400, Note_on_c, 10, 53, 80
3, 80519, Note_on_c, 10, 53, 0
3, 80640, Note_on_c, 10, 53, 80
3, 81119, Note_on_c, 10, 53, 0
3, 81120, Note_on_c, 10, 52, 80
3, 81599, Note_on_c, 10, 52, 0
3, 81600, Note_on_c, 10, 48, 80
3, 82319, Note_on_c, 10, 48, 0
3, 82320, Note_on_c, 10, 48, 80
3, 82439, Note_on_c, 10, 48, 0
3, 82440, Note_on_c, 10, 50, 80
3, 82559, Note_on_c, 10, 50, 0
3, 82560, Note_on_c, 10, 52, 80
3, 83279, Note_on_c, 10, 52, 0
3, 83280, Note_on_c, 10, 52, 80
3, 83399, Note_on_c, 10, 52, 0
3, 83520, Note_on_c, 10, 53, 80
3, 84239, Note_on_c, 10, 53, 0
3, 84240, Note_on_c, 10, 53, 80
3, 84479, Note_on_c, 10, 53, 0
3, 84480, Note_on_c, 10, 53, 80
3, 85439, Note_on_c, 10, 53, 0
3, 85440, Note_on_c, 10, 48, 80
3, 85679, Note_on_c, 10, 48, 0
3, 85680, Note_on_c, 10, 48, 80
3, 85919, Note_on_c, 10, 48, 0
3, 85920, Note_on_c, 10, 48, 80
3, 86159, Note_on_c, 10, 48, 0
3, 86160, Note_on_c, 10, 48, 80
3, 86279, Note_on_c, 10, 48, 0
3, 86280, Note_on_c, 10, 50, 80
3, 86399, Note_on_c, 10, 50, 0
3, 86400, Note_on_c, 10, 52, 80
3, 86639, Note_on_c, 10, 52, 0
3, 86640, Note_on_c, 10, 52, 80
3, 86879, Note_on_c, 10, 52, 0
3, 86880, Note_on_c, 10, 52, 80
3, 87119, Note_on_c, 10, 52, 0
3, 87120, Note_on_c, 10, 52, 80
3, 87359, Note_on_c, 10, 52, 0
3, 87360, Note_on_c, 10, 53, 80
3, 87599, Note_on_c, 10, 53, 0
3, 87600, Note_on_c, 10, 53, 80
3, 87839, Note_on_c, 10, 53, 0
3, 87840, Note_on_c, 10, 53, 80
3, 88079, Note_on_c, 10, 53, 0
3, 88080, Note_on_c, 10, 53, 80
3, 88319, Note_on_c, 10, 53, 0
3, 88320, Note_on_c, 10, 53, 80
3, 88559, Note_on_c, 10, 53, 0
3, 88560, Note_on_c, 10, 53, 80
3, 88799, Note_on_c, 10, 53, 0
3, 88800, Note_on_c, 10, 52, 80
3, 89039, Note_on_c, 10, 52, 0
3, 89040, Note_on_c, 10, 52, 80
3, 89279, Note_on_c, 10, 52, 0
3, 89280, Note_on_c, 10, 48, 80
3, 89519, Note_on_c, 10, 48, 0
3, 89520, Note_on_c, 10, 48, 80
3, 89759, Note_on_c, 10, 48, 0
3, 89760, Note_on_c, 10, 48, 80
3, 89999, Note_on_c, 10, 48, 0
3, 90000, Note_on_c, 10, 48, 80
3, 90239, Note_on_c, 10, 48, 0
3, 90240, Note_on_c, 10, 52, 80
3, 90479, Note_on_c, 10, 52, 0
3, 90480, Note_on_c, 10, 52, 80
3, 90719, Note_on_c, 10, 52, 0
3, 90720, Note_on_c, 10, 52, 80
3, 90959, Note_on_c, 10, 52, 0
3, 90960, Note_on_c, 10, 52, 80
3, 91199, Note_on_c, 10, 52, 0
3, 91200, Note_on_c, 10, 53, 80
3, 91439, Note_on_c, 10, 53, 0
3, 91440, Note_on_c, 10, 53, 80
3, 91679, Note_on_c, 10, 53, 0
3, 91680, Note_on_c, 10, 53, 80
3, 91919, Note_on_c, 10, 53, 0
3, 91920, Note_on_c, 10, 53, 80
3, 92159, Note_on_c, 10, 53, 0
3, 92160, Note_on_c, 10, 53, 80
3, 92399, Note_on_c, 10, 53, 0
3, 92400, Note_on_c, 10, 53, 80
3, 92639, Note_on_c, 10, 53, 0
3, 92640, Note_on_c, 10, 52, 80
3, 92879, Note_on_c, 10, 52, 0
3, 92880, Note_on_c, 10, 52, 80
3, 93119, Note_on_c, 10, 52, 0
3, 93120, Note_on_c, 10, 48, 80
3, 93359, Note_on_c, 10, 48, 0
3, 93360, Note_on_c, 10, 48, 80
3, 93599, Note_on_c, 10, 48, 0
3, 93600, Note_on_c, 10, 48, 80
3, 93839, Note_on_c, 10, 48, 0
3, 93840, Note_on_c, 10, 48, 80
3, 94079, Note_on_c, 10, 48, 0
3, 94080, Note_on_c, 10, 52, 80
3, 94319, Note_on_c, 10, 52, 0
3, 94320, Note_on_c, 10, 52, 80
3, 94559, Note_on_c, 10, 52, 0
3, 94560, Note_on_c, 10, 52, 80
3, 94799, Note_on_c, 10, 52, 0
3, 94800, Note_on_c, 10, 52, 80
3, 95039, Note_on_c, 10, 52, 0
3, 95040, Note_on_c, 10, 53, 80
3, 95279, Note_on_c, 10, 53, 0
3, 95280, Note_on_c, 10, 53, 80
3, 95519, Note_on_c, 10, 53, 0
3, 95520, Note_on_c, 10, 53, 80
3, 95639, Note_on_c, 10, 53, 0
3, 95640, Note_on_c, 10, 53, 80
3, 95759, Note_on_c, 10, 53, 0
3, 95760, Note_on_c, 10, 53, 80
3, 95999, Note_on_c, 10, 53, 0
3, 96000, Note_on_c, 10, 53, 80
3, 96239, Note_on_c, 10, 53, 0
3, 96240, Note_on_c, 10, 53, 80
3, 96479, Note_on_c, 10, 53, 0
3, 96480, Note_on_c, 10, 52, 80
3, 96719, Note_on_c, 10, 52, 0
3, 96720, Note_on_c, 10, 52, 80
3, 96959, Note_on_c, 10, 52, 0
3, 96960, Note_on_c, 10, 48, 80
3, 97199, Note_on_c, 10, 48, 0
3, 97200, Note_on_c, 10, 48, 80
3, 97439, Note_on_c, 10, 48, 0
3, 97440, Note_on_c, 10, 48, 80
3, 97679, Note_on_c, 10, 48, 0
3, 97680, Note_on_c, 10, 48, 80
3, 97919, Note_on_c, 10, 48, 0
3, 97920, Note_on_c, 10, 52, 80
3, 98159, Note_on_c, 10, 52, 0
3, 98160, Note_on_c, 10, 52, 80
3, 98399, Note_on_c, 10, 52, 0
3, 98400, Note_on_c, 10, 52, 80
3, 98639, Note_on_c, 10, 52, 0
3, 98640, Note_on_c, 10, 52, 80
3, 98879, Note_on_c, 10, 52, 0
3, 98880, Note_on_c, 10, 53, 80
3, 98999, Note_on_c, 10, 53, 0
3, 99000, Note_on_c, 10, 53, 80
3, 99119, Note_on_c, 10, 53, 0
3, 99120, Note_on_c, 10, 53, 80
3, 99359, Note_on_c, 10, 53, 0
3, 99360, Note_on_c, 10, 53, 80
3, 99479, Note_on_c, 10, 53, 0
3, 99480, Note_on_c, 10, 53, 80
3, 99599, Note_on_c, 10, 53, 0
3, 99600, Note_on_c, 10, 53, 80
3, 99839, Note_on_c, 10, 53, 0
3, 99840, Note_on_c, 10, 53, 80
3, 99959, Note_on_c, 10, 53, 0
3, 99960, Note_on_c, 10, 53, 80
3, 100079, Note_on_c, 10, 53, 0
3, 100080, Note_on_c, 10, 53, 80
3, 100319, Note_on_c, 10, 53, 0
3, 100320, Note_on_c, 10, 52, 80
3, 100559, Note_on_c, 10, 52, 0
3, 100560, Note_on_c, 10, 52, 80
3, 100799, Note_on_c, 10, 52, 0
3, 100800, Note_on_c, 10, 60, 80
3, 101759, Note_on_c, 10, 60, 0
3, 101760, Note_on_c, 10, 59, 80
3, 102719, Note_on_c, 10, 59, 0
3, 102720, Note_on_c, 10, 57, 80
3, 103679, Note_on_c, 10, 57, 0
3, 103680, Note_on_c, 10, 55, 80
3, 104639, Note_on_c, 10, 55, 0
3, 104640, Note_on_c, 10, 60, 80
3, 105599, Note_on_c, 10, 60, 0
3, 105600, Note_on_c, 10, 59, 80
3, 106559, Note_on_c, 10, 59, 0
3, 106560, Note_on_c, 10, 57, 80
3, 107519, Note_on_c, 10, 57, 0
3, 107520, Note_on_c, 10, 55, 80
3, 110399, Note_on_c, 10, 55, 0
3, 110400, End_track
4, 0, Start_track
4, 0, Title_t, "Bell\000"
4, 0, Key_signature, 0, "major"
4, 0, Control_c, 5, 121, 0
4, 0, Program_c, 5, 14
4, 0, Control_c, 5, 7, 100
4, 0, Control_c, 5, 10, 64
4, 0, Control_c, 5, 91, 0
4, 0, Control_c, 5, 93, 0
4, 0, MIDI_port, 0
4, 1, End_track
5, 0, Start_track
5, 0, Title_t, "Classical Guitar, Piano, Piano\000"
5, 0, Key_signature, 0, "major"
5, 0, Control_c, 2, 121, 0
5, 0, Program_c, 2, 24
5, 0, Control_c, 2, 7, 100
5, 0, Control_c, 2, 10, 64
5, 0, Control_c, 2, 91, 0
5, 0, Control_c, 2, 93, 0
5, 0, MIDI_port, 0
5, 0, Control_c, 4, 121, 0
5, 0, Program_c, 4, 28
5, 0, Control_c, 4, 7, 100
5, 0, Control_c, 4, 10, 64
5, 0, Control_c, 4, 91, 0
5, 0, Control_c, 4, 93, 0
5, 0, MIDI_port, 0
5, 23040, Note_on_c, 2, 52, 80
5, 23040, Note_on_c, 2, 59, 80
5, 23759, Note_on_c, 2, 52, 0
5, 23759, Note_on_c, 2, 59, 0
5, 23760, Note_on_c, 2, 59, 80
5, 23999, Note_on_c, 2, 59, 0
5, 24000, Note_on_c, 2, 52, 80
5, 24000, Note_on_c, 2, 59, 80
5, 24719, Note_on_c, 2, 52, 0
5, 24719, Note_on_c, 2, 59, 0
5, 24720, Note_on_c, 2, 59, 80
5, 24959, Note_on_c, 2, 59, 0
5, 24960, Note_on_c, 2, 53, 80
5, 24960, Note_on_c, 2, 60, 80
5, 25679, Note_on_c, 2, 53, 0
5, 25679, Note_on_c, 2, 60, 0
5, 25680, Note_on_c, 2, 60, 80
5, 25919, Note_on_c, 2, 60, 0
5, 25920, Note_on_c, 2, 48, 80
5, 25920, Note_on_c, 2, 55, 80
5, 26639, Note_on_c, 2, 48, 0
5, 26639, Note_on_c, 2, 55, 0
5, 26640, Note_on_c, 2, 55, 80
5, 26879, Note_on_c, 2, 55, 0
5, 26880, Note_on_c, 2, 52, 80
5, 26880, Note_on_c, 2, 59, 80
5, 27599, Note_on_c, 2, 52, 0
5, 27599, Note_on_c, 2, 59, 0
5, 27600, Note_on_c, 2, 59, 80
5, 27839, Note_on_c, 2, 59, 0
5, 27840, Note_on_c, 2, 52, 80
5, 27840, Note_on_c, 2, 59, 80
5, 28559, Note_on_c, 2, 52, 0
5, 28559, Note_on_c, 2, 59, 0
5, 28560, Note_on_c, 2, 59, 80
5, 28799, Note_on_c, 2, 59, 0
5, 28800, Note_on_c, 2, 53, 80
5, 28800, Note_on_c, 2, 60, 80
5, 29519, Note_on_c, 2, 53, 0
5, 29519, Note_on_c, 2, 60, 0
5, 29520, Note_on_c, 2, 60, 80
5, 29759, Note_on_c, 2, 60, 0
5, 29760, Note_on_c, 2, 48, 80
5, 29760, Note_on_c, 2, 55, 80
5, 30479, Note_on_c, 2, 48, 0
5, 30479, Note_on_c, 2, 55, 0
5, 30480, Note_on_c, 2, 55, 80
5, 30719, Note_on_c, 2, 55, 0
5, 30720, Note_on_c, 2, 50, 80
5, 32639, Note_on_c, 2, 50, 0
5, 32640, Note_on_c, 2, 53, 80
5, 34319, Note_on_c, 2, 53, 0
5, 34320, Note_on_c, 2, 53, 80
5, 34439, Note_on_c, 2, 53, 0
5, 34560, Note_on_c, 2, 50, 80
5, 36479, Note_on_c, 2, 50, 0
5, 54720, Note_on_c, 2, 52, 80
5, 54720, Note_on_c, 2, 59, 80
5, 55439, Note_on_c, 2, 52, 0
5, 55439, Note_on_c, 2, 59, 0
5, 55440, Note_on_c, 2, 59, 80
5, 55679, Note_on_c, 2, 59, 0
5, 55680, Note_on_c, 2, 52, 80
5, 55680, Note_on_c, 2, 59, 80
5, 56399, Note_on_c, 2, 52, 0
5, 56399, Note_on_c, 2, 59, 0
5, 56400, Note_on_c, 2, 59, 80
5, 56639, Note_on_c, 2, 59, 0
5, 56640, Note_on_c, 2, 53, 80
5, 56640, Note_on_c, 2, 60, 80
5, 57359, Note_on_c, 2, 53, 0
5, 57359, Note_on_c, 2, 60, 0
5, 57360, Note_on_c, 2, 60, 80
5, 57599, Note_on_c, 2, 60, 0
5, 57600, Note_on_c, 2, 48, 80
5, 57600, Note_on_c, 2, 55, 80
5, 58319, Note_on_c, 2, 48, 0
5, 58319, Note_on_c, 2, 55, 0
5, 58320, Note_on_c, 2, 55, 80
5, 58559, Note_on_c, 2, 55, 0
5, 58560, Note_on_c, 2, 52, 80
5, 58560, Note_on_c, 2, 59, 80
5, 59279, Note_on_c, 2, 52, 0
5, 59279, Note_on_c, 2, 59, 0
5, 59280, Note_on_c, 2, 59, 80
5, 59519, Note_on_c, 2, 59, 0
5, 59520, Note_on_c, 2, 52, 80
5, 59520, Note_on_c, 2, 59, 80
5, 60239, Note_on_c, 2, 52, 0
5, 60239, Note_on_c, 2, 59, 0
5, 60240, Note_on_c, 2, 59, 80
5, 60479, Note_on_c, 2, 59, 0
5, 60480, Note_on_c, 2, 53, 80
5, 60480, Note_on_c, 2, 60, 80
5, 61199, Note_on_c, 2, 53, 0
5, 61199, Note_on_c, 2, 60, 0
5, 61200, Note_on_c, 2, 60, 80
5, 61439, Note_on_c, 2, 60, 0
5, 61440, Note_on_c, 2, 48, 80
5, 61440, Note_on_c, 2, 55, 80
5, 62159, Note_on_c, 2, 48, 0
5, 62159, Note_on_c, 2, 55, 0
5, 62160, Note_on_c, 2, 55, 80
5, 62399, Note_on_c, 2, 55, 0
5, 62400, Note_on_c, 2, 50, 80
5, 63959, Note_on_c, 2, 50, 0
5, 64080, Note_on_c, 2, 57, 80
5, 64319, Note_on_c, 2, 57, 0
5, 64320, Note_on_c, 2, 53, 80
5, 65879, Note_on_c, 2, 53, 0
5, 66000, Note_on_c, 2, 60, 80
5, 66239, Note_on_c, 2, 60, 0
5, 66240, Note_on_c, 2, 50, 80
5, 67319, Note_on_c, 2, 50, 0
5, 67440, Note_on_c, 2, 57, 80
5, 67919, Note_on_c, 2, 57, 0
5, 67920, Note_on_c, 2, 57, 80
5, 68159, Note_on_c, 2, 57, 0
5, 68160, Note_on_c, 2, 53, 80
5, 69119, Note_on_c, 2, 53, 0
5, 69120, Note_on_c, 2, 60, 80
5, 70079, Note_on_c, 2, 60, 0
5, 70080, Note_on_c, 2, 55, 80
5, 70080, Note_on_c, 2, 60, 80
5, 70799, Note_on_c, 2, 55, 0
5, 70799, Note_on_c, 2, 60, 0
5, 70800, Note_on_c, 2, 55, 80
5, 71039, Note_on_c, 2, 55, 0
5, 71040, Note_on_c, 2, 52, 80
5, 71040, Note_on_c, 2, 59, 80
5, 71759, Note_on_c, 2, 52, 0
5, 71759, Note_on_c, 2, 59, 0
5, 71760, Note_on_c, 2, 59, 80
5, 71999, Note_on_c, 2, 59, 0
5, 72000, Note_on_c, 2, 53, 80
5, 72000, Note_on_c, 2, 60, 80
5, 72959, Note_on_c, 2, 53, 0
5, 72959, Note_on_c, 2, 60, 0
5, 72960, Note_on_c, 2, 53, 80
5, 72960, Note_on_c, 2, 60, 80
5, 73679, Note_on_c, 2, 53, 0
5, 73679, Note_on_c, 2, 60, 0
5, 73680, Note_on_c, 2, 60, 80
5, 73919, Note_on_c, 2, 60, 0
5, 73920, Note_on_c, 2, 55, 80
5, 73920, Note_on_c, 2, 60, 80
5, 74639, Note_on_c, 2, 55, 0
5, 74639, Note_on_c, 2, 60, 0
5, 74640, Note_on_c, 2, 55, 80
5, 74879, Note_on_c, 2, 55, 0
5, 74880, Note_on_c, 2, 52, 80
5, 74880, Note_on_c, 2, 59, 80
5, 75599, Note_on_c, 2, 52, 0
5, 75599, Note_on_c, 2, 59, 0
5, 75600, Note_on_c, 2, 59, 80
5, 75839, Note_on_c, 2, 59, 0
5, 75840, Note_on_c, 2, 53, 80
5, 75840, Note_on_c, 2, 60, 80
5, 76799, Note_on_c, 2, 53, 0
5, 76799, Note_on_c, 2, 60, 0
5, 76800, Note_on_c, 2, 53, 80
5, 76800, Note_on_c, 2, 60, 80
5, 77519, Note_on_c, 2, 53, 0
5, 77519, Note_on_c, 2, 60, 0
5, 77520, Note_on_c, 2, 60, 80
5, 77759, Note_on_c, 2, 60, 0
5, 77760, Note_on_c, 2, 55, 80
5, 77760, Note_on_c, 2, 60, 80
5, 78479, Note_on_c, 2, 55, 0
5, 78479, Note_on_c, 2, 60, 0
5, 78480, Note_on_c, 2, 55, 80
5, 78719, Note_on_c, 2, 55, 0
5, 78720, Note_on_c, 2, 52, 80
5, 78720, Note_on_c, 2, 59, 80
5, 79439, Note_on_c, 2, 52, 0
5, 79439, Note_on_c, 2, 59, 0
5, 79440, Note_on_c, 2, 59, 80
5, 79679, Note_on_c, 2, 59, 0
5, 79680, Note_on_c, 2, 53, 80
5, 79680, Note_on_c, 2, 60, 80
5, 80399, Note_on_c, 2, 53, 0
5, 80399, Note_on_c, 2, 60, 0
5, 80400, Note_on_c, 2, 60, 80
5, 80639, Note_on_c, 2, 60, 0
5, 80640, Note_on_c, 2, 53, 80
5, 80640, Note_on_c, 2, 60, 80
5, 81359, Note_on_c, 2, 53, 0
5, 81359, Note_on_c, 2, 60, 0
5, 81360, Note_on_c, 2, 60, 80
5, 81599, Note_on_c, 2, 60, 0
5, 81600, Note_on_c, 2, 55, 80
5, 81600, Note_on_c, 2, 60, 80
5, 82319, Note_on_c, 2, 55, 0
5, 82319, Note_on_c, 2, 60, 0
5, 82320, Note_on_c, 2, 55, 80
5, 82559, Note_on_c, 2, 55, 0
5, 82560, Note_on_c, 2, 52, 80
5, 82560, Note_on_c, 2, 59, 80
5, 83279, Note_on_c, 2, 52, 0
5, 83279, Note_on_c, 2, 59, 0
5, 83280, Note_on_c, 2, 59, 80
5, 83519, Note_on_c, 2, 59, 0
5, 83520, Note_on_c, 2, 53, 80
5, 83520, Note_on_c, 2, 60, 80
5, 84239, Note_on_c, 2, 53, 0
5, 84239, Note_on_c, 2, 60, 0
5, 84240, Note_on_c, 2, 60, 80
5, 84479, Note_on_c, 2, 60, 0
5, 85440, Note_on_c, 2, 55, 80
5, 85440, Note_on_c, 2, 60, 80
5, 86159, Note_on_c, 2, 55, 0
5, 86159, Note_on_c, 2, 60, 0
5, 86160, Note_on_c, 2, 60, 80
5, 86399, Note_on_c, 2, 60, 0
5, 86400, Note_on_c, 2, 52, 80
5, 86400, Note_on_c, 2, 59, 80
5, 87119, Note_on_c, 2, 52, 0
5, 87119, Note_on_c, 2, 59, 0
5, 87120, Note_on_c, 2, 59, 80
5, 87239, Note_on_c, 2, 59, 0
5, 87240, Note_on_c, 2, 52, 80
5, 87359, Note_on_c, 2, 52, 0
5, 87360, Note_on_c, 2, 53, 80
5, 87360, Note_on_c, 2, 60, 80
5, 88079, Note_on_c, 2, 53, 0
5, 88079, Note_on_c, 2, 60, 0
5, 88080, Note_on_c, 2, 60, 80
5, 88199, Note_on_c, 2, 60, 0
5, 88200, Note_on_c, 2, 53, 80
5, 88319, Note_on_c, 2, 53, 0
5, 88320, Note_on_c, 2, 53, 80
5, 88320, Note_on_c, 2, 60, 80
5, 89039, Note_on_c, 2, 53, 0
5, 89039, Note_on_c, 2, 60, 0
5, 89040, Note_on_c, 2, 60, 80
5, 89159, Note_on_c, 2, 60, 0
5, 89160, Note_on_c, 2, 53, 80
5, 89279, Note_on_c, 2, 53, 0
5, 89280, Note_on_c, 2, 55, 80
5, 89280, Note_on_c, 2, 60, 80
5, 89999, Note_on_c, 2, 55, 0
5, 89999, Note_on_c, 2, 60, 0
5, 90000, Note_on_c, 2, 60, 80
5, 90239, Note_on_c, 2, 60, 0
5, 90240, Note_on_c, 2, 52, 80
5, 90240, Note_on_c, 2, 59, 80
5, 90959, Note_on_c, 2, 52, 0
5, 90959, Note_on_c, 2, 59, 0
5, 90960, Note_on_c, 2, 59, 80
5, 91079, Note_on_c, 2, 59, 0
5, 91080, Note_on_c, 2, 52, 80
5, 91199, Note_on_c, 2, 52, 0
5, 91200, Note_on_c, 2, 53, 80
5, 91200, Note_on_c, 2, 60, 80
5, 91919, Note_on_c, 2, 53, 0
5, 91919, Note_on_c, 2, 60, 0
5, 91920, Note_on_c, 2, 60, 80
5, 92039, Note_on_c, 2, 60, 0
5, 92040, Note_on_c, 2, 53, 80
5, 92159, Note_on_c, 2, 53, 0
5, 92160, Note_on_c, 2, 53, 80
5, 92160, Note_on_c, 2, 60, 80
5, 92879, Note_on_c, 2, 53, 0
5, 92879, Note_on_c, 2, 60, 0
5, 92880, Note_on_c, 2, 60, 80
5, 92999, Note_on_c, 2, 60, 0
5, 93000, Note_on_c, 2, 53, 80
5, 93119, Note_on_c, 2, 53, 0
5, 93120, Note_on_c, 2, 55, 80
5, 93120, Note_on_c, 2, 60, 80
5, 93839, Note_on_c, 2, 55, 0
5, 93839, Note_on_c, 2, 60, 0
5, 93840, Note_on_c, 2, 60, 80
5, 94079, Note_on_c, 2, 60, 0
5, 94080, Note_on_c, 2, 52, 80
5, 94080, Note_on_c, 2, 59, 80
5, 94799, Note_on_c, 2, 52, 0
5, 94799, Note_on_c, 2, 59, 0
5, 94800, Note_on_c, 2, 59, 80
5, 94919, Note_on_c, 2, 59, 0
5, 94920, Note_on_c, 2, 52, 80
5, 95039, Note_on_c, 2, 52, 0
5, 95040, Note_on_c, 2, 53, 80
5, 95040, Note_on_c, 2, 60, 80
5, 95759, Note_on_c, 2, 53, 0
5, 95759, Note_on_c, 2, 60, 0
5, 95760, Note_on_c, 2, 60, 80
5, 95879, Note_on_c, 2, 60, 0
5, 95880, Note_on_c, 2, 53, 80
5, 95999, Note_on_c, 2, 53, 0
5, 96000, Note_on_c, 2, 53, 80
5, 96000, Note_on_c, 2, 60, 80
5, 96719, Note_on_c, 2, 53, 0
5, 96719, Note_on_c, 2, 60, 0
5, 96720, Note_on_c, 2, 60, 80
5, 96839, Note_on_c, 2, 60, 0
5, 96840, Note_on_c, 2, 53, 80
5, 96959, Note_on_c, 2, 53, 0
5, 96960, Note_on_c, 2, 55, 80
5, 96960, Note_on_c, 2, 60, 80
5, 97679, Note_on_c, 2, 55, 0
5, 97679, Note_on_c, 2, 60, 0
5, 97680, Note_on_c, 2, 60, 80
5, 97919, Note_on_c, 2, 60, 0
5, 97920, Note_on_c, 2, 52, 80
5, 97920, Note_on_c, 2, 59, 80
5, 98639, Note_on_c, 2, 52, 0
5, 98639, Note_on_c, 2, 59, 0
5, 98640, Note_on_c, 2, 59, 80
5, 98759, Note_on_c, 2, 59, 0
5, 98760, Note_on_c, 2, 52, 80
5, 98879, Note_on_c, 2, 52, 0
5, 98880, Note_on_c, 2, 53, 80
5, 98880, Note_on_c, 2, 60, 80
5, 99599, Note_on_c, 2, 53, 0
5, 99599, Note_on_c, 2, 60, 0
5, 99600, Note_on_c, 2, 60, 80
5, 99719, Note_on_c, 2, 60, 0
5, 99720, Note_on_c, 2, 53, 80
5, 99839, Note_on_c, 2, 53, 0
5, 99840, Note_on_c, 2, 53, 80
5, 99840, Note_on_c, 2, 60, 80
5, 100559, Note_on_c, 2, 53, 0
5, 100559, Note_on_c, 2, 60, 0
5, 100560, Note_on_c, 2, 60, 80
5, 100679, Note_on_c, 2, 60, 0
5, 100680, Note_on_c, 2, 53, 80
5, 100799, Note_on_c, 2, 53, 0
5, 101040, Note_on_c, 2, 60, 80
5, 101519, Note_on_c, 2, 60, 0
5, 101520, Note_on_c, 2, 60, 80
5, 101999, Note_on_c, 2, 60, 0
5, 102000, Note_on_c, 2, 60, 80
5, 102479, Note_on_c, 2, 60, 0
5, 102480, Note_on_c, 2, 60, 80
5, 102959, Note_on_c, 2, 60, 0
5, 102960, Note_on_c, 2, 60, 80
5, 103439, Note_on_c, 2, 60, 0
5, 103440, Note_on_c, 2, 60, 80
5, 103919, Note_on_c, 2, 60, 0
5, 103920, Note_on_c, 2, 60, 80
5, 104399, Note_on_c, 2, 60, 0
5, 104400, Note_on_c, 2, 60, 80
5, 104879, Note_on_c, 2, 60, 0
5, 104880, Note_on_c, 2, 60, 80
5, 105359, Note_on_c, 2, 60, 0
5, 105360, Note_on_c, 2, 60, 80
5, 105839, Note_on_c, 2, 60, 0
5, 105840, Note_on_c, 2, 60, 80
5, 106319, Note_on_c, 2, 60, 0
5, 106320, Note_on_c, 2, 60, 80
5, 106799, Note_on_c, 2, 60, 0
5, 106800, Note_on_c, 2, 60, 80
5, 107279, Note_on_c, 2, 60, 0
5, 107280, Note_on_c, 2, 60, 80
5, 107759, Note_on_c, 2, 60, 0
5, 107760, Note_on_c, 2, 60, 80
5, 108239, Note_on_c, 2, 60, 0
5, 108240, Note_on_c, 2, 60, 80
5, 110399, Note_on_c, 2, 60, 0
5, 110400, End_track
0, 0, End_of_file
