0, 0, Header, 1, 4, 480
1, 0, Start_track
1, 0, Title_t, "Soprano, Soprano, Voice\000"
1, 0, Time_signature, 4, 2, 24, 8
1, 0, Key_signature, 0, "major"
1, 0, Tempo, 869565
1, 0, Control_c, 1, 121, 0
1, 0, Program_c, 1, 52
1, 0, Control_c, 1, 7, 100
1, 0, Control_c, 1, 10, 64
1, 0, Control_c, 1, 91, 0
1, 0, Control_c, 1, 93, 0
1, 0, MIDI_port, 1
1, 0, Note_on_c, 1, 60, 80
1, 0, Control_c, 1, 2, 80
1, 0, Note_on_c, 1, 64, 80
1, 479, Note_on_c, 1, 60, 0
1, 479, Note_on_c, 1, 64, 0
1, 480, Note_on_c, 1, 64, 80
1, 959, Note_on_c, 1, 64, 0
1, 960, Note_on_c, 1, 64, 80
1, 1439, Note_on_c, 1, 64, 0
1, 1440, Note_on_c, 1, 64, 80
1, 1559, Note_on_c, 1, 64, 0
1, 1560, Note_on_c, 1, 65, 80
1, 1679, Note_on_c, 1, 65, 0
1, 1680, Note_on_c, 1, 67, 80
1, 1919, Note_on_c, 1, 67, 0
1, 1920, Note_on_c, 1, 67, 80
1, 2399, Note_on_c, 1, 67, 0
1, 2400, Note_on_c, 1, 67, 80
1, 2879, Note_on_c, 1, 67, 0
1, 2880, Note_on_c, 1, 67, 80
1, 3359, Note_on_c, 1, 67, 0
1, 3360, Note_on_c, 1, 67, 80
1, 3479, Note_on_c, 1, 67, 0
1, 3480, Note_on_c, 1, 69, 80
1, 3599, Note_on_c, 1, 69, 0
1, 3600, Note_on_c, 1, 71, 80
1, 3839, Note_on_c, 1, 71, 0
1, 3840, Note_on_c, 1, 69, 80
1, 4319, Note_on_c, 1, 69, 0
1, 4320, Note_on_c, 1, 69, 80
1, 4799, Note_on_c, 1, 69, 0
1, 4800, Note_on_c, 1, 69, 80
1, 5279, Note_on_c, 1, 69, 0
1, 5280, Note_on_c, 1, 69, 80
1, 5759, Note_on_c, 1, 69, 0
1, 5760, Note_on_c, 1, 72, 80
1, 6239, Note_on_c, 1, 72, 0
1, 6240, Note_on_c, 1, 67, 80
1, 6719, Note_on_c, 1, 67, 0
1, 6720, Note_on_c, 1, 67, 80
1, 7199, Note_on_c, 1, 67, 0
1, 7200, Note_on_c, 1, 65, 80
1, 7679, Note_on_c, 1, 65, 0
1, 7920, Note_on_c, 1, 67, 80
1, 8079, Note_on_c, 1, 67, 0
1, 8080, Note_on_c, 1, 64, 80
1, 8159, Note_on_c, 1, 64, 0
1, 8160, Note_on_c, 1, 67, 80
1, 8319, Note_on_c, 1, 67, 0
1, 8320, Note_on_c, 1, 64, 80
1, 8399, Note_on_c, 1, 64, 0
1, 8400, Note_on_c, 1, 67, 80
1, 8559, Note_on_c, 1, 67, 0
1, 8560, Note_on_c, 1, 64, 80
1, 8639, Note_on_c, 1, 64, 0
1, 8640, Note_on_c, 1, 67, 80
1, 8799, Note_on_c, 1, 67, 0
1, 8800, Note_on_c, 1, 64, 80
1, 8879, Note_on_c, 1, 64, 0
1, 8880, Note_on_c, 1, 67, 80
1, 9039, Note_on_c, 1, 67, 0
1, 9040, Note_on_c, 1, 64, 80
1, 9119, Note_on_c, 1, 64, 0
1, 9120, Note_on_c, 1, 67, 80
1, 9279, Note_on_c, 1, 67, 0
1, 9280, Note_on_c, 1, 64, 80
1, 9359, Note_on_c, 1, 64, 0
1, 9360, Note_on_c, 1, 67, 80
1, 9439, Note_on_c, 1, 67, 0
1, 9440, Note_on_c, 1, 64, 80
1, 9519, Note_on_c, 1, 64, 0
1, 9520, Note_on_c, 1, 67, 80
1, 9839, Note_on_c, 1, 67, 0
1, 9840, Note_on_c, 1, 67, 80
1, 9999, Note_on_c, 1, 67, 0
1, 10000, Note_on_c, 1, 64, 80
1, 10079, Note_on_c, 1, 64, 0
1, 10080, Note_on_c, 1, 67, 80
1, 10239, Note_on_c, 1, 67, 0
1, 10240, Note_on_c, 1, 64, 80
1, 10319, Note_on_c, 1, 64, 0
1, 10320, Note_on_c, 1, 67, 80
1, 10479, Note_on_c, 1, 67, 0
1, 10480, Note_on_c, 1, 64, 80
1, 10559, Note_on_c, 1, 64, 0
1, 10560, Note_on_c, 1, 67, 80
1, 10719, Note_on_c, 1, 67, 0
1, 10720, Note_on_c, 1, 64, 80
1, 10799, Note_on_c, 1, 64, 0
1, 10800, Note_on_c, 1, 67, 80
1, 10959, Note_on_c, 1, 67, 0
1, 10960, Note_on_c, 1, 64, 80
1, 11039, Note_on_c, 1, 64, 0
1, 11040, Note_on_c, 1, 67, 80
1, 11199, Note_on_c, 1, 67, 0
1, 11200, Note_on_c, 1, 64, 80
1, 11279, Note_on_c, 1, 64, 0
1, 11280, Note_on_c, 1, 67, 80
1, 11359, Note_on_c, 1, 67, 0
1, 11360, Note_on_c, 1, 64, 80
1, 11439, Note_on_c, 1, 64, 0
1, 11440, Note_on_c, 1, 67, 80
1, 11599, Note_on_c, 1, 67, 0
1, 11680, Note_on_c, 1, 64, 80
1, 11759, Note_on_c, 1, 64, 0
1, 11760, Note_on_c, 1, 64, 80
1, 11919, Note_on_c, 1, 64, 0
1, 11920, Note_on_c, 1, 64, 80
1, 11999, Note_on_c, 1, 64, 0
1, 12000, Note_on_c, 1, 62, 80
1, 12159, Note_on_c, 1, 62, 0
1, 12160, Note_on_c, 1, 64, 80
1, 12239, Note_on_c, 1, 64, 0
1, 13280, Note_on_c, 1, 67, 80
1, 13359, Note_on_c, 1, 67, 0
1, 13360, Note_on_c, 1, 67, 80
1, 13439, Note_on_c, 1, 67, 0
1, 13440, Note_on_c, 1, 69, 80
1, 13559, Note_on_c, 1, 69, 0
1, 13560, Note_on_c, 1, 64, 80
1, 13799, Note_on_c, 1, 64, 0
1, 13800, Note_on_c, 1, 62, 80
1, 14039, Note_on_c, 1, 62, 0
1, 14040, Note_on_c, 1, 62, 80
1, 14159, Note_on_c, 1, 62, 0
1, 14160, Note_on_c, 1, 62, 80
1, 14279, Note_on_c, 1, 62, 0
1, 14280, Note_on_c, 1, 60, 80
1, 14639, Note_on_c, 1, 60, 0
1, 15520, Note_on_c, 1, 64, 80
1, 15599, Note_on_c, 1, 64, 0
1, 15600, Note_on_c, 1, 67, 80
1, 15759, Note_on_c, 1, 67, 0
1, 15760, Note_on_c, 1, 64, 80
1, 15839, Note_on_c, 1, 64, 0
1, 15840, Note_on_c, 1, 67, 80
1, 15999, Note_on_c, 1, 67, 0
1, 16000, Note_on_c, 1, 64, 80
1, 16079, Note_on_c, 1, 64, 0
1, 16080, Note_on_c, 1, 67, 80
1, 16159, Note_on_c, 1, 67, 0
1, 16160, Note_on_c, 1, 64, 80
1, 16239, Note_on_c, 1, 64, 0
1, 16240, Note_on_c, 1, 67, 80
1, 16439, Note_on_c, 1, 67, 0
1, 16500, Note_on_c, 1, 64, 80
1, 16559, Note_on_c, 1, 64, 0
1, 16560, Note_on_c, 1, 67, 80
1, 16719, Note_on_c, 1, 67, 0
1, 16720, Note_on_c, 1, 64, 80
1, 16799, Note_on_c, 1, 64, 0
1, 16800, Note_on_c, 1, 67, 80
1, 16959, Note_on_c, 1, 67, 0
1, 16960, Note_on_c, 1, 64, 80
1, 17039, Note_on_c, 1, 64, 0
1, 17040, Note_on_c, 1, 67, 80
1, 17119, Note_on_c, 1, 67, 0
1, 17120, Note_on_c, 1, 64, 80
1, 17199, Note_on_c, 1, 64, 0
1, 17200, Note_on_c, 1, 67, 80
1, 17439, Note_on_c, 1, 67, 0
1, 17440, Note_on_c, 1, 64, 80
1, 17519, Note_on_c, 1, 64, 0
1, 17520, Note_on_c, 1, 67, 80
1, 17599, Note_on_c, 1, 67, 0
1, 17600, Note_on_c, 1, 64, 80
1, 17679, Note_on_c, 1, 64, 0
1, 17680, Note_on_c, 1, 67, 80
1, 17879, Note_on_c, 1, 67, 0
1, 17940, Note_on_c, 1, 64, 80
1, 17999, Note_on_c, 1, 64, 0
1, 18000, Note_on_c, 1, 67, 80
1, 18119, Note_on_c, 1, 67, 0
1, 18120, Note_on_c, 1, 67, 80
1, 18399, Note_on_c, 1, 67, 0
1, 18400, Note_on_c, 1, 64, 80
1, 18479, Note_on_c, 1, 64, 0
1, 18480, Note_on_c, 1, 67, 80
1, 18639, Note_on_c, 1, 67, 0
1, 18640, Note_on_c, 1, 64, 80
1, 18719, Note_on_c, 1, 64, 0
1, 18720, Note_on_c, 1, 67, 80
1, 18879, Note_on_c, 1, 67, 0
1, 18880, Note_on_c, 1, 64, 80
1, 18959, Note_on_c, 1, 64, 0
1, 18960, Note_on_c, 1, 67, 80
1, 19039, Note_on_c, 1, 67, 0
1, 19040, Note_on_c, 1, 64, 80
1, 19119, Note_on_c, 1, 64, 0
1, 19120, Note_on_c, 1, 67, 80
1, 19359, Note_on_c, 1, 67, 0
1, 19360, Note_on_c, 1, 64, 80
1, 19439, Note_on_c, 1, 64, 0
1, 19440, Note_on_c, 1, 64, 80
1, 19599, Note_on_c, 1, 64, 0
1, 19600, Note_on_c, 1, 64, 80
1, 19679, Note_on_c, 1, 64, 0
1, 19680, Note_on_c, 1, 62, 80
1, 19839, Note_on_c, 1, 62, 0
1, 19840, Note_on_c, 1, 64, 80
1, 19919, Note_on_c, 1, 64, 0
1, 20800, Note_on_c, 1, 69, 80
1, 20879, Note_on_c, 1, 69, 0
1, 20880, Note_on_c, 1, 69, 80
1, 21039, Note_on_c, 1, 69, 0
1, 21040, Note_on_c, 1, 64, 80
1, 21119, Note_on_c, 1, 64, 0
1, 21120, Note_on_c, 1, 69, 80
1, 21239, Note_on_c, 1, 69, 0
1, 21240, Note_on_c, 1, 64, 80
1, 21359, Note_on_c, 1, 64, 0
1, 21360, Note_on_c, 1, 64, 80
1, 21479, Note_on_c, 1, 64, 0
1, 21480, Note_on_c, 1, 62, 80
1, 21599, Note_on_c, 1, 62, 0
1, 21600, Note_on_c, 1, 62, 80
1, 21719, Note_on_c, 1, 62, 0
1, 21720, Note_on_c, 1, 64, 80
1, 21839, Note_on_c, 1, 64, 0
1, 21840, Note_on_c, 1, 60, 80
1, 22079, Note_on_c, 1, 60, 0
1, 22260, Note_on_c, 1, 74, 80
1, 22319, Note_on_c, 1, 74, 0
1, 22320, Note_on_c, 1, 76, 80
1, 22559, Note_on_c, 1, 76, 0
1, 22560, Note_on_c, 1, 74, 80
1, 22799, Note_on_c, 1, 74, 0
1, 22800, Note_on_c, 1, 72, 80
1, 22919, Note_on_c, 1, 72, 0
1, 22920, Note_on_c, 1, 69, 80
1, 23279, Note_on_c, 1, 69, 0
1, 23280, Note_on_c, 1, 76, 80
1, 23519, Note_on_c, 1, 76, 0
1, 23520, Note_on_c, 1, 76, 80
1, 23759, Note_on_c, 1, 76, 0
1, 23760, Note_on_c, 1, 76, 80
1, 24119, Note_on_c, 1, 76, 0
1, 24180, Note_on_c, 1, 74, 80
1, 24239, Note_on_c, 1, 74, 0
1, 24240, Note_on_c, 1, 76, 80
1, 24359, Note_on_c, 1, 76, 0
1, 24360, Note_on_c, 1, 74, 80
1, 24719, Note_on_c, 1, 74, 0
1, 24720, Note_on_c, 1, 72, 80
1, 24839, Note_on_c, 1, 72, 0
1, 24840, Note_on_c, 1, 69, 80
1, 24959, Note_on_c, 1, 69, 0
1, 25200, Note_on_c, 1, 76, 80
1, 25439, Note_on_c, 1, 76, 0
1, 25440, Note_on_c, 1, 76, 80
1, 25679, Note_on_c, 1, 76, 0
1, 25680, Note_on_c, 1, 77, 80
1, 26159, Note_on_c, 1, 77, 0
1, 26160, Note_on_c, 1, 76, 80
1, 26399, Note_on_c, 1, 76, 0
1, 26400, Note_on_c, 1, 74, 80
1, 26639, Note_on_c, 1, 74, 0
1, 26640, Note_on_c, 1, 72, 80
1, 26879, Note_on_c, 1, 72, 0
1, 26880, Note_on_c, 1, 67, 80
1, 27119, Note_on_c, 1, 67, 0
1, 27120, Note_on_c, 1, 76, 80
1, 27359, Note_on_c, 1, 76, 0
1, 27360, Note_on_c, 1, 76, 80
1, 27599, Note_on_c, 1, 76, 0
1, 27600, Note_on_c, 1, 76, 80
1, 28079, Note_on_c, 1, 76, 0
1, 28080, Note_on_c, 1, 76, 80
1, 28199, Note_on_c, 1, 76, 0
1, 28200, Note_on_c, 1, 74, 80
1, 28559, Note_on_c, 1, 74, 0
1, 28560, Note_on_c, 1, 72, 80
1, 28799, Note_on_c, 1, 72, 0
1, 28800, Note_on_c, 1, 67, 80
1, 29039, Note_on_c, 1, 67, 0
1, 29040, Note_on_c, 1, 76, 80
1, 29279, Note_on_c, 1, 76, 0
1, 29280, Note_on_c, 1, 76, 80
1, 29519, Note_on_c, 1, 76, 0
1, 29520, Note_on_c, 1, 77, 80
1, 29999, Note_on_c, 1, 77, 0
1, 30000, Note_on_c, 1, 76, 80
1, 30239, Note_on_c, 1, 76, 0
1, 30240, Note_on_c, 1, 74, 80
1, 30479, Note_on_c, 1, 74, 0
1, 30480, Note_on_c, 1, 72, 80
1, 30599, Note_on_c, 1, 72, 0
1, 30600, Note_on_c, 1, 69, 80
1, 30959, Note_on_c, 1, 69, 0
1, 30960, Note_on_c, 1, 76, 80
1, 31199, Note_on_c, 1, 76, 0
1, 31200, Note_on_c, 1, 76, 80
1, 31439, Note_on_c, 1, 76, 0
1, 31440, Note_on_c, 1, 76, 80
1, 31799, Note_on_c, 1, 76, 0
1, 31860, Note_on_c, 1, 74, 80
1, 31919, Note_on_c, 1, 74, 0
1, 31920, Note_on_c, 1, 76, 80
1, 32039, Note_on_c, 1, 76, 0
1, 32040, Note_on_c, 1, 74, 80
1, 32399, Note_on_c, 1, 74, 0
1, 32400, Note_on_c, 1, 72, 80
1, 32639, Note_on_c, 1, 72, 0
1, 32640, Note_on_c, 1, 67, 80
1, 32879, Note_on_c, 1, 67, 0
1, 32880, Note_on_c, 1, 76, 80
1, 33119, Note_on_c, 1, 76, 0
1, 33120, Note_on_c, 1, 76, 80
1, 33359, Note_on_c, 1, 76, 0
1, 33360, Note_on_c, 1, 77, 80
1, 33839, Note_on_c, 1, 77, 0
1, 33840, Note_on_c, 1, 76, 80
1, 34079, Note_on_c, 1, 76, 0
1, 34080, Note_on_c, 1, 74, 80
1, 34319, Note_on_c, 1, 74, 0
1, 34320, Note_on_c, 1, 72, 80
1, 34559, Note_on_c, 1, 72, 0
1, 34560, Note_on_c, 1, 72, 80
1, 34560, Note_on_c, 1, 79, 80
1, 34799, Note_on_c, 1, 72, 0
1, 34799, Note_on_c, 1, 79, 0
1, 34800, Note_on_c, 1, 79, 80
1, 35039, Note_on_c, 1, 79, 0
1, 35040, Note_on_c, 1, 79, 80
1, 35279, Note_on_c, 1, 79, 0
1, 35280, Note_on_c, 1, 79, 80
1, 35759, Note_on_c, 1, 79, 0
1, 35760, Note_on_c, 1, 79, 80
1, 35999, Note_on_c, 1, 79, 0
1, 36000, Note_on_c, 1, 79, 80
1, 36239, Note_on_c, 1, 79, 0
1, 36240, Note_on_c, 1, 79, 80
1, 36479, Note_on_c, 1, 79, 0
1, 36480, Note_on_c, 1, 79, 80
1, 36719, Note_on_c, 1, 79, 0
1, 36720, Note_on_c, 1, 79, 80
1, 36959, Note_on_c, 1, 79, 0
1, 36960, Note_on_c, 1, 79, 80
1, 37199, Note_on_c, 1, 79, 0
1, 37200, Note_on_c, 1, 79, 80
1, 37679, Note_on_c, 1, 79, 0
1, 37680, Note_on_c, 1, 81, 80
1, 37919, Note_on_c, 1, 81, 0
1, 37920, Note_on_c, 1, 83, 80
1, 38159, Note_on_c, 1, 83, 0
1, 38160, Note_on_c, 1, 79, 80
1, 38399, Note_on_c, 1, 79, 0
1, 38400, Note_on_c, 1, 76, 80
1, 38879, Note_on_c, 1, 76, 0
1, 42240, Tempo, 666667
1, 42480, Note_on_c, 1, 60, 80
1, 42599, Note_on_c, 1, 60, 0
1, 42720, Note_on_c, 1, 67, 80
1, 42839, Note_on_c, 1, 67, 0
1, 42960, Note_on_c, 1, 64, 80
1, 43079, Note_on_c, 1, 64, 0
1, 43200, Note_on_c, 1, 67, 80
1, 43319, Note_on_c, 1, 67, 0
1, 43440, Note_on_c, 1, 64, 80
1, 43559, Note_on_c, 1, 64, 0
1, 43680, Note_on_c, 1, 67, 80
1, 43799, Note_on_c, 1, 67, 0
1, 43800, Note_on_c, 1, 64, 80
1, 43919, Note_on_c, 1, 64, 0
1, 44040, Note_on_c, 1, 67, 80
1, 44399, Note_on_c, 1, 67, 0
1, 44400, Note_on_c, 1, 64, 80
1, 44519, Note_on_c, 1, 64, 0
1, 44640, Note_on_c, 1, 67, 80
1, 44759, Note_on_c, 1, 67, 0
1, 44880, Note_on_c, 1, 64, 80
1, 44999, Note_on_c, 1, 64, 0
1, 45120, Note_on_c, 1, 67, 80
1, 45239, Note_on_c, 1, 67, 0
1, 45240, Note_on_c, 1, 64, 80
1, 45359, Note_on_c, 1, 64, 0
1, 45480, Note_on_c, 1, 67, 80
1, 45839, Note_on_c, 1, 67, 0
1, 45840, Note_on_c, 1, 67, 80
1, 45959, Note_on_c, 1, 67, 0
1, 46080, Note_on_c, 1, 67, 80
1, 46199, Note_on_c, 1, 67, 0
1, 46320, Note_on_c, 1, 64, 80
1, 46439, Note_on_c, 1, 64, 0
1, 46560, Note_on_c, 1, 67, 80
1, 46679, Note_on_c, 1, 67, 0
1, 46800, Note_on_c, 1, 64, 80
1, 46919, Note_on_c, 1, 64, 0
1, 47040, Note_on_c, 1, 67, 80
1, 47159, Note_on_c, 1, 67, 0
1, 47280, Note_on_c, 1, 64, 80
1, 47399, Note_on_c, 1, 64, 0
1, 47520, Note_on_c, 1, 67, 80
1, 47639, Note_on_c, 1, 67, 0
1, 47760, Note_on_c, 1, 64, 80
1, 47879, Note_on_c, 1, 64, 0
1, 48000, Note_on_c, 1, 67, 80
1, 48119, Note_on_c, 1, 67, 0
1, 48240, Note_on_c, 1, 64, 80
1, 48359, Note_on_c, 1, 64, 0
1, 48360, Note_on_c, 1, 67, 80
1, 48479, Note_on_c, 1, 67, 0
1, 48600, Note_on_c, 1, 67, 80
1, 48719, Note_on_c, 1, 67, 0
1, 48840, Note_on_c, 1, 67, 80
1, 49199, Note_on_c, 1, 67, 0
1, 49200, Note_on_c, 1, 67, 80
1, 49319, Note_on_c, 1, 67, 0
1, 49440, Note_on_c, 1, 67, 80
1, 49559, Note_on_c, 1, 67, 0
1, 49680, Note_on_c, 1, 67, 80
1, 49799, Note_on_c, 1, 67, 0
1, 49920, Note_on_c, 1, 69, 80
1, 50039, Note_on_c, 1, 69, 0
1, 50160, Note_on_c, 1, 64, 80
1, 50279, Note_on_c, 1, 64, 0
1, 50400, Note_on_c, 1, 64, 80
1, 50519, Note_on_c, 1, 64, 0
1, 50640, Note_on_c, 1, 64, 80
1, 50759, Note_on_c, 1, 64, 0
1, 50880, Note_on_c, 1, 62, 80
1, 51239, Note_on_c, 1, 62, 0
1, 51240, Note_on_c, 1, 64, 80
1, 51419, Note_on_c, 1, 64, 0
1, 53040, Note_on_c, 1, 65, 80
1, 53159, Note_on_c, 1, 65, 0
1, 53280, Note_on_c, 1, 69, 80
1, 53369, Note_on_c, 1, 69, 0
1, 53460, Note_on_c, 1, 69, 80
1, 53639, Note_on_c, 1, 69, 0
1, 53640, Note_on_c, 1, 69, 80
1, 53999, Note_on_c, 1, 69, 0
1, 54000, Note_on_c, 1, 64, 80
1, 54119, Note_on_c, 1, 64, 0
1, 54240, Note_on_c, 1, 64, 80
1, 54359, Note_on_c, 1, 64, 0
1, 54480, Note_on_c, 1, 62, 80
1, 54599, Note_on_c, 1, 62, 0
1, 54720, Note_on_c, 1, 62, 80
1, 54839, Note_on_c, 1, 62, 0
1, 54960, Note_on_c, 1, 72, 80
1, 54960, Note_on_c, 1, 76, 80
1, 55199, Note_on_c, 1, 72, 0
1, 55199, Note_on_c, 1, 76, 0
1, 55200, Note_on_c, 1, 72, 80
1, 55200, Note_on_c, 1, 76, 80
1, 55259, Note_on_c, 1, 72, 0
1, 55259, Note_on_c, 1, 76, 0
1, 55320, Note_on_c, 1, 72, 80
1, 55320, Note_on_c, 1, 76, 80
1, 55559, Note_on_c, 1, 72, 0
1, 55559, Note_on_c, 1, 76, 0
1, 55560, Note_on_c, 1, 72, 80
1, 55560, Note_on_c, 1, 76, 80
1, 55919, Note_on_c, 1, 72, 0
1, 55919, Note_on_c, 1, 76, 0
1, 55920, Note_on_c, 1, 71, 80
1, 55920, Note_on_c, 1, 74, 80
1, 56159, Note_on_c, 1, 71, 0
1, 56159, Note_on_c, 1, 74, 0
1, 56160, Note_on_c, 1, 71, 80
1, 56160, Note_on_c, 1, 74, 80
1, 56219, Note_on_c, 1, 71, 0
1, 56219, Note_on_c, 1, 74, 0
1, 56280, Note_on_c, 1, 71, 80
1, 56280, Note_on_c, 1, 74, 80
1, 56519, Note_on_c, 1, 71, 0
1, 56519, Note_on_c, 1, 74, 0
1, 56520, Note_on_c, 1, 71, 80
1, 56520, Note_on_c, 1, 74, 80
1, 56879, Note_on_c, 1, 71, 0
1, 56879, Note_on_c, 1, 74, 0
1, 56880, Note_on_c, 1, 71, 80
1, 56880, Note_on_c, 1, 74, 80
1, 57119, Note_on_c, 1, 71, 0
1, 57119, Note_on_c, 1, 74, 0
1, 57120, Note_on_c, 1, 71, 80
1, 57120, Note_on_c, 1, 74, 80
1, 57179, Note_on_c, 1, 71, 0
1, 57179, Note_on_c, 1, 74, 0
1, 57240, Note_on_c, 1, 71, 80
1, 57240, Note_on_c, 1, 74, 80
1, 57479, Note_on_c, 1, 71, 0
1, 57479, Note_on_c, 1, 74, 0
1, 57480, Note_on_c, 1, 69, 80
1, 57480, Note_on_c, 1, 72, 80
1, 57599, Note_on_c, 1, 69, 0
1, 57599, Note_on_c, 1, 72, 0
1, 57600, Note_on_c, 1, 67, 80
1, 58079, Note_on_c, 1, 67, 0
1, 58080, Note_on_c, 1, 67, 80
1, 58199, Note_on_c, 1, 67, 0
1, 58200, Note_on_c, 1, 67, 80
1, 58559, Note_on_c, 1, 67, 0
1, 58560, Note_on_c, 1, 67, 80
1, 58679, Note_on_c, 1, 67, 0
1, 58800, Note_on_c, 1, 64, 80
1, 58919, Note_on_c, 1, 64, 0
1, 59040, Note_on_c, 1, 67, 80
1, 59159, Note_on_c, 1, 67, 0
1, 59280, Note_on_c, 1, 64, 80
1, 59399, Note_on_c, 1, 64, 0
1, 59520, Note_on_c, 1, 67, 80
1, 59699, Note_on_c, 1, 67, 0
1, 59700, Note_on_c, 1, 67, 80
1, 59789, Note_on_c, 1, 67, 0
1, 59880, Note_on_c, 1, 67, 80
1, 59999, Note_on_c, 1, 67, 0
1, 60120, Note_on_c, 1, 67, 80
1, 60479, Note_on_c, 1, 67, 0
1, 60480, Note_on_c, 1, 67, 80
1, 60719, Note_on_c, 1, 67, 0
1, 60720, Note_on_c, 1, 64, 80
1, 60959, Note_on_c, 1, 64, 0
1, 60960, Note_on_c, 1, 67, 80
1, 61119, Note_on_c, 1, 67, 0
1, 61120, Note_on_c, 1, 64, 80
1, 61279, Note_on_c, 1, 64, 0
1, 61280, Note_on_c, 1, 76, 80
1, 61439, Note_on_c, 1, 76, 0
1, 61680, Note_on_c, 1, 74, 80
1, 61919, Note_on_c, 1, 74, 0
1, 61920, Note_on_c, 1, 72, 80
1, 62079, Note_on_c, 1, 72, 0
1, 62080, Note_on_c, 1, 74, 80
1, 62239, Note_on_c, 1, 74, 0
1, 62240, Note_on_c, 1, 76, 80
1, 62639, Note_on_c, 1, 76, 0
1, 62640, Note_on_c, 1, 74, 80
1, 62879, Note_on_c, 1, 74, 0
1, 62880, Note_on_c, 1, 72, 80
1, 63039, Note_on_c, 1, 72, 0
1, 63040, Note_on_c, 1, 74, 80
1, 63199, Note_on_c, 1, 74, 0
1, 63200, Note_on_c, 1, 76, 80
1, 63599, Note_on_c, 1, 76, 0
1, 63600, Note_on_c, 1, 74, 80
1, 63839, Note_on_c, 1, 74, 0
1, 63840, Note_on_c, 1, 72, 80
1, 63999, Note_on_c, 1, 72, 0
1, 64000, Note_on_c, 1, 74, 80
1, 64159, Note_on_c, 1, 74, 0
1, 64160, Note_on_c, 1, 76, 80
1, 64559, Note_on_c, 1, 76, 0
1, 64560, Note_on_c, 1, 74, 80
1, 64799, Note_on_c, 1, 74, 0
1, 64800, Note_on_c, 1, 72, 80
1, 65039, Note_on_c, 1, 72, 0
1, 65040, Note_on_c, 1, 74, 80
1, 65279, Note_on_c, 1, 74, 0
1, 65280, Note_on_c, 1, 74, 80
1, 65759, Note_on_c, 1, 74, 0
1, 65760, Note_on_c, 1, 77, 80
1, 65999, Note_on_c, 1, 77, 0
1, 66000, Note_on_c, 1, 77, 80
1, 66239, Note_on_c, 1, 77, 0
1, 66240, Note_on_c, 1, 77, 80
1, 66479, Note_on_c, 1, 77, 0
1, 66480, Note_on_c, 1, 76, 80
1, 66719, Note_on_c, 1, 76, 0
1, 66720, Note_on_c, 1, 74, 80
1, 67199, Note_on_c, 1, 74, 0
1, 67200, Note_on_c, 1, 74, 80
1, 67679, Note_on_c, 1, 74, 0
1, 68880, Note_on_c, 1, 64, 80
1, 69119, Note_on_c, 1, 64, 0
1, 69120, Note_on_c, 1, 65, 80
1, 69599, Note_on_c, 1, 65, 0
1, 69600, Note_on_c, 1, 64, 80
1, 70079, Note_on_c, 1, 64, 0
1, 70080, Note_on_c, 1, 62, 80
1, 70559, Note_on_c, 1, 62, 0
1, 70560, Note_on_c, 1, 62, 80
1, 71039, Note_on_c, 1, 62, 0
1, 71040, Note_on_c, 1, 62, 80
1, 71279, Note_on_c, 1, 62, 0
1, 71280, Note_on_c, 1, 60, 80
1, 71519, Note_on_c, 1, 60, 0
1, 71520, Note_on_c, 1, 76, 80
1, 71999, Note_on_c, 1, 76, 0
1, 72000, Note_on_c, 1, 74, 80
1, 72479, Note_on_c, 1, 74, 0
1, 72480, Note_on_c, 1, 72, 80
1, 72719, Note_on_c, 1, 72, 0
1, 72720, Note_on_c, 1, 69, 80
1, 73439, Note_on_c, 1, 69, 0
1, 73440, Note_on_c, 1, 76, 80
1, 73919, Note_on_c, 1, 76, 0
1, 73920, Note_on_c, 1, 76, 80
1, 74399, Note_on_c, 1, 76, 0
1, 74400, Note_on_c, 1, 76, 80
1, 75239, Note_on_c, 1, 76, 0
1, 75240, Note_on_c, 1, 74, 80
1, 75359, Note_on_c, 1, 74, 0
1, 75360, Note_on_c, 1, 76, 80
1, 75599, Note_on_c, 1, 76, 0
1, 75600, Note_on_c, 1, 74, 80
1, 76319, Note_on_c, 1, 74, 0
1, 76320, Note_on_c, 1, 72, 80
1, 76559, Note_on_c, 1, 72, 0
1, 76560, Note_on_c, 1, 69, 80
1, 77039, Note_on_c, 1, 69, 0
1, 77280, Note_on_c, 1, 76, 80
1, 77759, Note_on_c, 1, 76, 0
1, 77760, Note_on_c, 1, 76, 80
1, 78239, Note_on_c, 1, 76, 0
1, 78240, Note_on_c, 1, 76, 80
1, 79199, Note_on_c, 1, 76, 0
1, 79200, Note_on_c, 1, 76, 80
1, 79679, Note_on_c, 1, 76, 0
1, 79680, Note_on_c, 1, 74, 80
1, 80159, Note_on_c, 1, 74, 0
1, 80160, Note_on_c, 1, 72, 80
1, 80639, Note_on_c, 1, 72, 0
1, 80640, Note_on_c, 1, 67, 80
1, 81119, Note_on_c, 1, 67, 0
1, 81120, Note_on_c, 1, 76, 80
1, 81599, Note_on_c, 1, 76, 0
1, 81600, Note_on_c, 1, 76, 80
1, 82079, Note_on_c, 1, 76, 0
1, 82080, Note_on_c, 1, 76, 80
1, 83039, Note_on_c, 1, 76, 0
1, 83040, Note_on_c, 1, 76, 80
1, 83279, Note_on_c, 1, 76, 0
1, 83280, Note_on_c, 1, 74, 80
1, 83999, Note_on_c, 1, 74, 0
1, 84000, Note_on_c, 1, 72, 80
1, 84479, Note_on_c, 1, 72, 0
1, 84480, Note_on_c, 1, 67, 80
1, 84959, Note_on_c, 1, 67, 0
1, 84960, Note_on_c, 1, 76, 80
1, 85439, Note_on_c, 1, 76, 0
1, 85440, Note_on_c, 1, 76, 80
1, 85919, Note_on_c, 1, 76, 0
1, 85920, Note_on_c, 1, 77, 80
1, 86879, Note_on_c, 1, 77, 0
1, 86880, Note_on_c, 1, 76, 80
1, 87359, Note_on_c, 1, 76, 0
1, 87360, Note_on_c, 1, 74, 80
1, 87839, Note_on_c, 1, 74, 0
1, 87840, Note_on_c, 1, 72, 80
1, 88079, Note_on_c, 1, 72, 0
1, 88080, Note_on_c, 1, 69, 80
1, 88799, Note_on_c, 1, 69, 0
1, 88800, Note_on_c, 1, 72, 80
1, 88800, Note_on_c, 1, 76, 80
1, 89279, Note_on_c, 1, 72, 0
1, 89279, Note_on_c, 1, 76, 0
1, 89280, Note_on_c, 1, 72, 80
1, 89280, Note_on_c, 1, 76, 80
1, 89759, Note_on_c, 1, 72, 0
1, 89759, Note_on_c, 1, 76, 0
1, 89760, Note_on_c, 1, 76, 80
1, 89760, Note_on_c, 1, 72, 80
1, 90239, Note_on_c, 1, 72, 0
1, 90600, Note_on_c, 1, 71, 80
1, 90600, Note_on_c, 1, 74, 80
1, 90719, Note_on_c, 1, 76, 0
1, 90719, Note_on_c, 1, 71, 0
1, 90719, Note_on_c, 1, 74, 0
1, 90720, Note_on_c, 1, 72, 80
1, 90720, Note_on_c, 1, 76, 80
1, 90959, Note_on_c, 1, 72, 0
1, 90959, Note_on_c, 1, 76, 0
1, 90960, Note_on_c, 1, 74, 80
1, 90960, Note_on_c, 1, 71, 80
1, 91199, Note_on_c, 1, 71, 0
1, 91679, Note_on_c, 1, 74, 0
1, 91680, Note_on_c, 1, 69, 80
1, 91680, Note_on_c, 1, 72, 80
1, 92159, Note_on_c, 1, 69, 0
1, 92159, Note_on_c, 1, 72, 0
1, 92160, Note_on_c, 1, 67, 80
1, 92639, Note_on_c, 1, 67, 0
1, 92640, Note_on_c, 1, 72, 80
1, 92640, Note_on_c, 1, 76, 80
1, 93119, Note_on_c, 1, 72, 0
1, 93119, Note_on_c, 1, 76, 0
1, 93120, Note_on_c, 1, 72, 80
1, 93120, Note_on_c, 1, 76, 80
1, 93599, Note_on_c, 1, 72, 0
1, 93599, Note_on_c, 1, 76, 0
1, 93600, Note_on_c, 1, 76, 80
1, 93600, Note_on_c, 1, 72, 80
1, 94079, Note_on_c, 1, 72, 0
1, 94559, Note_on_c, 1, 76, 0
1, 94560, Note_on_c, 1, 72, 80
1, 94560, Note_on_c, 1, 76, 80
1, 95039, Note_on_c, 1, 72, 0
1, 95039, Note_on_c, 1, 76, 0
1, 95040, Note_on_c, 1, 71, 80
1, 95040, Note_on_c, 1, 74, 80
1, 95519, Note_on_c, 1, 71, 0
1, 95519, Note_on_c, 1, 74, 0
1, 95520, Note_on_c, 1, 69, 80
1, 95520, Note_on_c, 1, 72, 80
1, 95699, Note_on_c, 1, 69, 0
1, 95699, Note_on_c, 1, 72, 0
1, 95920, Note_on_c, 1, 67, 80
1, 95959, Note_on_c, 1, 67, 0
1, 95960, Note_on_c, 1, 72, 80
1, 95999, Note_on_c, 1, 72, 0
1, 96000, Note_on_c, 1, 79, 80
1, 96479, Note_on_c, 1, 79, 0
1, 96480, Note_on_c, 1, 72, 80
1, 96480, Note_on_c, 1, 79, 80
1, 96959, Note_on_c, 1, 72, 0
1, 96959, Note_on_c, 1, 79, 0
1, 96960, Note_on_c, 1, 72, 80
1, 96960, Note_on_c, 1, 79, 80
1, 97439, Note_on_c, 1, 72, 0
1, 97439, Note_on_c, 1, 79, 0
1, 97440, Note_on_c, 1, 79, 80
1, 97440, Note_on_c, 1, 72, 80
1, 97919, Note_on_c, 1, 72, 0
1, 98159, Note_on_c, 1, 79, 0
1, 98160, Note_on_c, 1, 72, 80
1, 98160, Note_on_c, 1, 76, 80
1, 98399, Note_on_c, 1, 72, 0
1, 98399, Note_on_c, 1, 76, 0
1, 98400, Note_on_c, 1, 72, 80
1, 98400, Note_on_c, 1, 79, 80
1, 98879, Note_on_c, 1, 72, 0
1, 98879, Note_on_c, 1, 79, 0
1, 98880, Note_on_c, 1, 72, 80
1, 98880, Note_on_c, 1, 79, 80
1, 99359, Note_on_c, 1, 72, 0
1, 99359, Note_on_c, 1, 79, 0
1, 99360, Note_on_c, 1, 72, 80
1, 99360, Note_on_c, 1, 79, 80
1, 99839, Note_on_c, 1, 72, 0
1, 99839, Note_on_c, 1, 79, 0
1, 99840, Note_on_c, 1, 72, 80
1, 99840, Note_on_c, 1, 79, 80
1, 100319, Note_on_c, 1, 72, 0
1, 100319, Note_on_c, 1, 79, 0
1, 100320, Note_on_c, 1, 72, 80
1, 100320, Note_on_c, 1, 79, 80
1, 100799, Note_on_c, 1, 72, 0
1, 100799, Note_on_c, 1, 79, 0
1, 100800, Note_on_c, 1, 72, 80
1, 100800, Note_on_c, 1, 79, 80
1, 101279, Note_on_c, 1, 72, 0
1, 101279, Note_on_c, 1, 79, 0
1, 101280, Note_on_c, 1, 79, 80
1, 101280, Note_on_c, 1, 72, 80
1, 101759, Note_on_c, 1, 72, 0
1, 102239, Note_on_c, 1, 79, 0
1, 102240, Note_on_c, 1, 72, 80
1, 102240, Note_on_c, 1, 81, 80
1, 102719, Note_on_c, 1, 72, 0
1, 102719, Note_on_c, 1, 81, 0
1, 102720, Note_on_c, 1, 74, 80
1, 102720, Note_on_c, 1, 83, 80
1, 103199, Note_on_c, 1, 74, 0
1, 103199, Note_on_c, 1, 83, 0
1, 103200, Note_on_c, 1, 71, 80
1, 103200, Note_on_c, 1, 79, 80
1, 103679, Note_on_c, 1, 71, 0
1, 103679, Note_on_c, 1, 79, 0
1, 103680, Note_on_c, 1, 76, 80
1, 104159, Note_on_c, 1, 76, 0
1, 110880, Note_on_c, 1, 84, 80
1, 110939, Note_on_c, 1, 84, 0
1, 110940, Note_on_c, 1, 83, 80
1, 110999, Note_on_c, 1, 83, 0
1, 111000, Note_on_c, 1, 81, 80
1, 111059, Note_on_c, 1, 81, 0
1, 111060, Note_on_c, 1, 79, 80
1, 111119, Note_on_c, 1, 79, 0
1, 111120, Note_on_c, 1, 77, 80
1, 111179, Note_on_c, 1, 77, 0
1, 111180, Note_on_c, 1, 76, 80
1, 111239, Note_on_c, 1, 76, 0
1, 111240, Note_on_c, 1, 74, 80
1, 111299, Note_on_c, 1, 74, 0
1, 111300, Note_on_c, 1, 72, 80
1, 111359, Note_on_c, 1, 72, 0
1, 111600, Note_on_c, 1, 69, 80
1, 111719, Note_on_c, 1, 69, 0
1, 111840, Note_on_c, 1, 69, 80
1, 111899, Note_on_c, 1, 69, 0
1, 111960, Note_on_c, 1, 69, 80
1, 112079, Note_on_c, 1, 69, 0
1, 112200, Note_on_c, 1, 69, 80
1, 112379, Note_on_c, 1, 69, 0
1, 112560, Note_on_c, 1, 71, 80
1, 112679, Note_on_c, 1, 71, 0
1, 112800, Note_on_c, 1, 72, 80
1, 113279, Note_on_c, 1, 72, 0
1, 113520, Note_on_c, 1, 72, 80
1, 113639, Note_on_c, 1, 72, 0
1, 113760, Note_on_c, 1, 72, 80
1, 113819, Note_on_c, 1, 72, 0
1, 113880, Note_on_c, 1, 72, 80
1, 113999, Note_on_c, 1, 72, 0
1, 114120, Note_on_c, 1, 72, 80
1, 114299, Note_on_c, 1, 72, 0
1, 114480, Note_on_c, 1, 74, 80
1, 114599, Note_on_c, 1, 74, 0
1, 114720, Note_on_c, 1, 76, 80
1, 115199, Note_on_c, 1, 76, 0
1, 115440, Note_on_c, 1, 76, 80
1, 115559, Note_on_c, 1, 76, 0
1, 115680, Note_on_c, 1, 76, 80
1, 115799, Note_on_c, 1, 76, 0
1, 115920, Note_on_c, 1, 76, 80
1, 116039, Note_on_c, 1, 76, 0
1, 116160, Note_on_c, 1, 76, 80
1, 116219, Note_on_c, 1, 76, 0
1, 116280, Note_on_c, 1, 74, 80
1, 116399, Note_on_c, 1, 74, 0
1, 116520, Note_on_c, 1, 74, 80
1, 116699, Note_on_c, 1, 74, 0
1, 116880, Note_on_c, 1, 74, 80
1, 116999, Note_on_c, 1, 74, 0
1, 117120, Note_on_c, 1, 74, 80
1, 117239, Note_on_c, 1, 74, 0
1, 117360, Note_on_c, 1, 74, 80
1, 117479, Note_on_c, 1, 74, 0
1, 117600, Note_on_c, 1, 74, 80
1, 117719, Note_on_c, 1, 74, 0
1, 117840, Note_on_c, 1, 72, 80
1, 117959, Note_on_c, 1, 72, 0
1, 118080, Note_on_c, 1, 74, 80
1, 118199, Note_on_c, 1, 74, 0
1, 118320, Note_on_c, 1, 72, 80
1, 118439, Note_on_c, 1, 72, 0
1, 118560, Note_on_c, 1, 72, 80
1, 119039, Note_on_c, 1, 72, 0
1, 119280, Note_on_c, 1, 69, 80
1, 119399, Note_on_c, 1, 69, 0
1, 119520, Note_on_c, 1, 69, 80
1, 119579, Note_on_c, 1, 69, 0
1, 119640, Note_on_c, 1, 69, 80
1, 119759, Note_on_c, 1, 69, 0
1, 119880, Note_on_c, 1, 69, 80
1, 120059, Note_on_c, 1, 69, 0
1, 120240, Note_on_c, 1, 71, 80
1, 120359, Note_on_c, 1, 71, 0
1, 120480, Note_on_c, 1, 72, 80
1, 120959, Note_on_c, 1, 72, 0
1, 121200, Note_on_c, 1, 72, 80
1, 121439, Note_on_c, 1, 72, 0
1, 121440, Note_on_c, 1, 72, 80
1, 121499, Note_on_c, 1, 72, 0
1, 121560, Note_on_c, 1, 72, 80
1, 121679, Note_on_c, 1, 72, 0
1, 121800, Note_on_c, 1, 72, 80
1, 121979, Note_on_c, 1, 72, 0
1, 122160, Note_on_c, 1, 74, 80
1, 122279, Note_on_c, 1, 74, 0
1, 122400, Note_on_c, 1, 76, 80
1, 122879, Note_on_c, 1, 76, 0
1, 123120, Note_on_c, 1, 76, 80
1, 123239, Note_on_c, 1, 76, 0
1, 123360, Note_on_c, 1, 76, 80
1, 123419, Note_on_c, 1, 76, 0
1, 123480, Note_on_c, 1, 76, 80
1, 123599, Note_on_c, 1, 76, 0
1, 123720, Note_on_c, 1, 76, 80
1, 123899, Note_on_c, 1, 76, 0
1, 124080, Note_on_c, 1, 74, 80
1, 124199, Note_on_c, 1, 74, 0
1, 124320, Note_on_c, 1, 74, 80
1, 124379, Note_on_c, 1, 74, 0
1, 124440, Note_on_c, 1, 74, 80
1, 124559, Note_on_c, 1, 74, 0
1, 124680, Note_on_c, 1, 74, 80
1, 125039, Note_on_c, 1, 74, 0
1, 125040, Note_on_c, 1, 74, 80
1, 125159, Note_on_c, 1, 74, 0
1, 125280, Note_on_c, 1, 74, 80
1, 125519, Note_on_c, 1, 74, 0
1, 125520, Note_on_c, 1, 76, 80
1, 125759, Note_on_c, 1, 76, 0
1, 125760, Note_on_c, 1, 71, 80
1, 125760, Note_on_c, 1, 74, 80
1, 126239, Note_on_c, 1, 71, 0
1, 126239, Note_on_c, 1, 74, 0
1, 126240, Note_on_c, 1, 69, 80
1, 126240, Note_on_c, 1, 72, 80
1, 126719, Note_on_c, 1, 69, 0
1, 126719, Note_on_c, 1, 72, 0
1, 126720, Note_on_c, 1, 67, 80
1, 126720, Note_on_c, 1, 71, 80
1, 126959, Note_on_c, 1, 67, 0
1, 126959, Note_on_c, 1, 71, 0
1, 126960, Note_on_c, 1, 71, 80
1, 126960, Note_on_c, 1, 74, 80
1, 127679, Note_on_c, 1, 71, 0
1, 127679, Note_on_c, 1, 74, 0
1, 127680, Note_on_c, 1, 72, 80
1, 128639, Note_on_c, 1, 72, 0
1, 128640, Note_on_c, 1, 72, 80
1, 128640, Note_on_c, 1, 76, 80
1, 129599, Note_on_c, 1, 72, 0
1, 129599, Note_on_c, 1, 76, 0
1, 129600, Note_on_c, 1, 71, 80
1, 129600, Note_on_c, 1, 74, 80
1, 130559, Note_on_c, 1, 71, 0
1, 130559, Note_on_c, 1, 74, 0
1, 130560, Note_on_c, 1, 74, 80
1, 130560, Note_on_c, 1, 77, 80
1, 131999, Note_on_c, 1, 74, 0
1, 131999, Note_on_c, 1, 77, 0
1, 132000, Note_on_c, 1, 76, 80
1, 132000, Note_on_c, 1, 79, 80
1, 132239, Note_on_c, 1, 76, 0
1, 132239, Note_on_c, 1, 79, 0
1, 132240, Note_on_c, 1, 71, 80
1, 132240, Note_on_c, 1, 74, 80
1, 132959, Note_on_c, 1, 71, 0
1, 132959, Note_on_c, 1, 74, 0
1, 132960, Note_on_c, 1, 76, 80
1, 133439, Note_on_c, 1, 76, 0
1, 133440, Note_on_c, 1, 74, 80
1, 133919, Note_on_c, 1, 74, 0
1, 133920, Note_on_c, 1, 72, 80
1, 134399, Note_on_c, 1, 72, 0
1, 134400, Note_on_c, 1, 69, 80
1, 134879, Note_on_c, 1, 69, 0
1, 134880, Note_on_c, 1, 76, 80
1, 135359, Note_on_c, 1, 76, 0
1, 135360, Note_on_c, 1, 76, 80
1, 135839, Note_on_c, 1, 76, 0
1, 135840, Note_on_c, 1, 76, 80
1, 136679, Note_on_c, 1, 76, 0
1, 136680, Note_on_c, 1, 74, 80
1, 136799, Note_on_c, 1, 74, 0
1, 136800, Note_on_c, 1, 76, 80
1, 137039, Note_on_c, 1, 76, 0
1, 137040, Note_on_c, 1, 74, 80
1, 137759, Note_on_c, 1, 74, 0
1, 137760, Note_on_c, 1, 72, 80
1, 137999, Note_on_c, 1, 72, 0
1, 138000, Note_on_c, 1, 69, 80
1, 138479, Note_on_c, 1, 69, 0
1, 138720, Note_on_c, 1, 76, 80
1, 139199, Note_on_c, 1, 76, 0
1, 139200, Note_on_c, 1, 76, 80
1, 139679, Note_on_c, 1, 76, 0
1, 139680, Note_on_c, 1, 76, 80
1, 140639, Note_on_c, 1, 76, 0
1, 140640, Note_on_c, 1, 76, 80
1, 141119, Note_on_c, 1, 76, 0
1, 141120, Note_on_c, 1, 74, 80
1, 141599, Note_on_c, 1, 74, 0
1, 141600, Note_on_c, 1, 72, 80
1, 142079, Note_on_c, 1, 72, 0
1, 142080, Note_on_c, 1, 67, 80
1, 142559, Note_on_c, 1, 67, 0
1, 142560, Note_on_c, 1, 76, 80
1, 143039, Note_on_c, 1, 76, 0
1, 143040, Note_on_c, 1, 76, 80
1, 143519, Note_on_c, 1, 76, 0
1, 143520, Note_on_c, 1, 76, 80
1, 144479, Note_on_c, 1, 76, 0
1, 144480, Note_on_c, 1, 76, 80
1, 144719, Note_on_c, 1, 76, 0
1, 144720, Note_on_c, 1, 74, 80
1, 145439, Note_on_c, 1, 74, 0
1, 145440, Note_on_c, 1, 72, 80
1, 145919, Note_on_c, 1, 72, 0
1, 145920, Note_on_c, 1, 67, 80
1, 146399, Note_on_c, 1, 67, 0
1, 146400, Note_on_c, 1, 76, 80
1, 146879, Note_on_c, 1, 76, 0
1, 146880, Note_on_c, 1, 76, 80
1, 147359, Note_on_c, 1, 76, 0
1, 147360, Note_on_c, 1, 76, 80
1, 147599, Note_on_c, 1, 76, 0
1, 147600, Note_on_c, 1, 77, 80
1, 147839, Note_on_c, 1, 77, 0
1, 148320, Note_on_c, 1, 76, 80
1, 148799, Note_on_c, 1, 76, 0
1, 148800, Note_on_c, 1, 74, 80
1, 149279, Note_on_c, 1, 74, 0
1, 149280, Note_on_c, 1, 72, 80
1, 149519, Note_on_c, 1, 72, 0
1, 149520, Note_on_c, 1, 69, 80
1, 150239, Note_on_c, 1, 69, 0
1, 150240, Note_on_c, 1, 72, 80
1, 150240, Note_on_c, 1, 76, 80
1, 150719, Note_on_c, 1, 72, 0
1, 150719, Note_on_c, 1, 76, 0
1, 150720, Note_on_c, 1, 72, 80
1, 150720, Note_on_c, 1, 76, 80
1, 151199, Note_on_c, 1, 72, 0
1, 151199, Note_on_c, 1, 76, 0
1, 151200, Note_on_c, 1, 76, 80
1, 151200, Note_on_c, 1, 72, 80
1, 151679, Note_on_c, 1, 72, 0
1, 152039, Note_on_c, 1, 76, 0
1, 152040, Note_on_c, 1, 71, 80
1, 152040, Note_on_c, 1, 74, 80
1, 152159, Note_on_c, 1, 71, 0
1, 152159, Note_on_c, 1, 74, 0
1, 152160, Note_on_c, 1, 72, 80
1, 152160, Note_on_c, 1, 76, 80
1, 152399, Note_on_c, 1, 72, 0
1, 152399, Note_on_c, 1, 76, 0
1, 152400, Note_on_c, 1, 74, 80
1, 152400, Note_on_c, 1, 71, 80
1, 152639, Note_on_c, 1, 71, 0
1, 153119, Note_on_c, 1, 74, 0
1, 153120, Note_on_c, 1, 69, 80
1, 153120, Note_on_c, 1, 72, 80
1, 153599, Note_on_c, 1, 69, 0
1, 153599, Note_on_c, 1, 72, 0
1, 153600, Note_on_c, 1, 67, 80
1, 154079, Note_on_c, 1, 67, 0
1, 154080, Note_on_c, 1, 72, 80
1, 154080, Note_on_c, 1, 76, 80
1, 154559, Note_on_c, 1, 72, 0
1, 154559, Note_on_c, 1, 76, 0
1, 154560, Note_on_c, 1, 72, 80
1, 154560, Note_on_c, 1, 76, 80
1, 155039, Note_on_c, 1, 72, 0
1, 155039, Note_on_c, 1, 76, 0
1, 155040, Note_on_c, 1, 72, 80
1, 155040, Note_on_c, 1, 76, 80
1, 155279, Note_on_c, 1, 72, 0
1, 155279, Note_on_c, 1, 76, 0
1, 155280, Note_on_c, 1, 74, 80
1, 155280, Note_on_c, 1, 77, 80
1, 155519, Note_on_c, 1, 74, 0
1, 155519, Note_on_c, 1, 77, 0
1, 156000, Note_on_c, 1, 72, 80
1, 156000, Note_on_c, 1, 76, 80
1, 156479, Note_on_c, 1, 72, 0
1, 156479, Note_on_c, 1, 76, 0
1, 156480, Note_on_c, 1, 71, 80
1, 156480, Note_on_c, 1, 74, 80
1, 156959, Note_on_c, 1, 71, 0
1, 156959, Note_on_c, 1, 74, 0
1, 156960, Note_on_c, 1, 69, 80
1, 156960, Note_on_c, 1, 72, 80
1, 157139, Note_on_c, 1, 69, 0
1, 157139, Note_on_c, 1, 72, 0
1, 157360, Note_on_c, 1, 67, 80
1, 157399, Note_on_c, 1, 67, 0
1, 157400, Note_on_c, 1, 72, 80
1, 157439, Note_on_c, 1, 72, 0
1, 157440, Note_on_c, 1, 79, 80
1, 157919, Note_on_c, 1, 79, 0
1, 157920, Note_on_c, 1, 72, 80
1, 157920, Note_on_c, 1, 79, 80
1, 158399, Note_on_c, 1, 72, 0
1, 158399, Note_on_c, 1, 79, 0
1, 158400, Note_on_c, 1, 72, 80
1, 158400, Note_on_c, 1, 79, 80
1, 158879, Note_on_c, 1, 72, 0
1, 158879, Note_on_c, 1, 79, 0
1, 158880, Note_on_c, 1, 79, 80
1, 158880, Note_on_c, 1, 72, 80
1, 159359, Note_on_c, 1, 72, 0
1, 159599, Note_on_c, 1, 79, 0
1, 159600, Note_on_c, 1, 72, 80
1, 159600, Note_on_c, 1, 76, 80
1, 159839, Note_on_c, 1, 72, 0
1, 159839, Note_on_c, 1, 76, 0
1, 159840, Note_on_c, 1, 72, 80
1, 159840, Note_on_c, 1, 79, 80
1, 160319, Note_on_c, 1, 72, 0
1, 160319, Note_on_c, 1, 79, 0
1, 160320, Note_on_c, 1, 72, 80
1, 160320, Note_on_c, 1, 79, 80
1, 160799, Note_on_c, 1, 72, 0
1, 160799, Note_on_c, 1, 79, 0
1, 160800, Note_on_c, 1, 72, 80
1, 160800, Note_on_c, 1, 79, 80
1, 161279, Note_on_c, 1, 72, 0
1, 161279, Note_on_c, 1, 79, 0
1, 161280, Note_on_c, 1, 71, 80
1, 161280, Note_on_c, 1, 79, 80
1, 161759, Note_on_c, 1, 71, 0
1, 161759, Note_on_c, 1, 79, 0
1, 161760, Note_on_c, 1, 71, 80
1, 161760, Note_on_c, 1, 79, 80
1, 162239, Note_on_c, 1, 71, 0
1, 162239, Note_on_c, 1, 79, 0
1, 162240, Note_on_c, 1, 71, 80
1, 162240, Note_on_c, 1, 79, 80
1, 162719, Note_on_c, 1, 71, 0
1, 162719, Note_on_c, 1, 79, 0
1, 162720, Note_on_c, 1, 79, 80
1, 162720, Note_on_c, 1, 71, 80
1, 163199, Note_on_c, 1, 71, 0
1, 163679, Note_on_c, 1, 79, 0
1, 163680, Note_on_c, 1, 72, 80
1, 163680, Note_on_c, 1, 81, 80
1, 164159, Note_on_c, 1, 72, 0
1, 164159, Note_on_c, 1, 81, 0
1, 164160, Note_on_c, 1, 74, 80
1, 164160, Note_on_c, 1, 83, 80
1, 164639, Note_on_c, 1, 74, 0
1, 164639, Note_on_c, 1, 83, 0
1, 164640, Note_on_c, 1, 71, 80
1, 164640, Note_on_c, 1, 79, 80
1, 165119, Note_on_c, 1, 71, 0
1, 165119, Note_on_c, 1, 79, 0
1, 165120, Note_on_c, 1, 76, 80
1, 165599, Note_on_c, 1, 76, 0
1, 165600, End_track
2, 0, Start_track
2, 0, Title_t, "Piano, Piano, Piano 2\000"
2, 0, Key_signature, 0, "major"
2, 0, Control_c, 2, 121, 0
2, 0, Program_c, 2, 0
2, 0, Control_c, 2, 7, 100
2, 0, Control_c, 2, 10, 64
2, 0, Control_c, 2, 91, 0
2, 0, Control_c, 2, 93, 0
2, 0, MIDI_port, 0
2, 0, Note_on_c, 2, 48, 80
2, 0, Note_on_c, 2, 55, 80
2, 1025, Note_on_c, 2, 48, 0
2, 1025, Note_on_c, 2, 55, 0
2, 1320, Note_on_c, 2, 55, 80
2, 1889, Note_on_c, 2, 55, 0
2, 1920, Note_on_c, 2, 52, 80
2, 1920, Note_on_c, 2, 59, 80
2, 2945, Note_on_c, 2, 52, 0
2, 2945, Note_on_c, 2, 59, 0
2, 3240, Note_on_c, 2, 52, 80
2, 3353, Note_on_c, 2, 52, 0
2, 3360, Note_on_c, 2, 59, 80
2, 3815, Note_on_c, 2, 59, 0
2, 3840, Note_on_c, 2, 53, 80
2, 3840, Note_on_c, 2, 60, 80
2, 4295, Note_on_c, 2, 53, 0
2, 4295, Note_on_c, 2, 60, 0
2, 4320, Note_on_c, 2, 53, 80
2, 4320, Note_on_c, 2, 60, 80
2, 4775, Note_on_c, 2, 53, 0
2, 4775, Note_on_c, 2, 60, 0
2, 4800, Note_on_c, 2, 53, 80
2, 4800, Note_on_c, 2, 60, 80
2, 5255, Note_on_c, 2, 53, 0
2, 5255, Note_on_c, 2, 60, 0
2, 5280, Note_on_c, 2, 53, 80
2, 5280, Note_on_c, 2, 60, 80
2, 5507, Note_on_c, 2, 53, 0
2, 5507, Note_on_c, 2, 60, 0
2, 5520, Note_on_c, 2, 53, 80
2, 5747, Note_on_c, 2, 53, 0
2, 5760, Note_on_c, 2, 53, 80
2, 5760, Note_on_c, 2, 60, 80
2, 6671, Note_on_c, 2, 53, 0
2, 6671, Note_on_c, 2, 60, 0
2, 6720, Note_on_c, 2, 53, 80
2, 6720, Note_on_c, 2, 60, 80
2, 7175, Note_on_c, 2, 53, 0
2, 7175, Note_on_c, 2, 60, 0
2, 7200, Note_on_c, 2, 53, 80
2, 7200, Note_on_c, 2, 60, 80
2, 7427, Note_on_c, 2, 53, 0
2, 7427, Note_on_c, 2, 60, 0
2, 7440, Note_on_c, 2, 53, 80
2, 7667, Note_on_c, 2, 53, 0
2, 7680, Note_on_c, 2, 55, 80
2, 7680, Note_on_c, 2, 60, 80
2, 7680, Note_on_c, 2, 48, 80
2, 8135, Note_on_c, 2, 55, 0
2, 8135, Note_on_c, 2, 60, 0
2, 8160, Note_on_c, 2, 55, 80
2, 8160, Note_on_c, 2, 60, 80
2, 8615, Note_on_c, 2, 55, 0
2, 8615, Note_on_c, 2, 60, 0
2, 8640, Note_on_c, 2, 55, 80
2, 8640, Note_on_c, 2, 60, 80
2, 9047, Note_on_c, 2, 48, 0
2, 9095, Note_on_c, 2, 55, 0
2, 9095, Note_on_c, 2, 60, 0
2, 9120, Note_on_c, 2, 60, 80
2, 9120, Note_on_c, 2, 48, 80
2, 9120, Note_on_c, 2, 55, 80
2, 9347, Note_on_c, 2, 48, 0
2, 9347, Note_on_c, 2, 55, 0
2, 9360, Note_on_c, 2, 55, 80
2, 9575, Note_on_c, 2, 60, 0
2, 9587, Note_on_c, 2, 55, 0
2, 9600, Note_on_c, 2, 55, 80
2, 9600, Note_on_c, 2, 59, 80
2, 9600, Note_on_c, 2, 52, 80
2, 10055, Note_on_c, 2, 55, 0
2, 10055, Note_on_c, 2, 59, 0
2, 10080, Note_on_c, 2, 55, 80
2, 10080, Note_on_c, 2, 59, 80
2, 10535, Note_on_c, 2, 55, 0
2, 10535, Note_on_c, 2, 59, 0
2, 10560, Note_on_c, 2, 55, 80
2, 10560, Note_on_c, 2, 59, 80
2, 10967, Note_on_c, 2, 52, 0
2, 11015, Note_on_c, 2, 55, 0
2, 11015, Note_on_c, 2, 59, 0
2, 11040, Note_on_c, 2, 55, 80
2, 11040, Note_on_c, 2, 59, 80
2, 11040, Note_on_c, 2, 52, 80
2, 11267, Note_on_c, 2, 52, 0
2, 11280, Note_on_c, 2, 52, 80
2, 11495, Note_on_c, 2, 55, 0
2, 11495, Note_on_c, 2, 59, 0
2, 11507, Note_on_c, 2, 52, 0
2, 11520, Note_on_c, 2, 60, 80
2, 11520, Note_on_c, 2, 53, 80
2, 11520, Note_on_c, 2, 57, 80
2, 11975, Note_on_c, 2, 53, 0
2, 11975, Note_on_c, 2, 57, 0
2, 12000, Note_on_c, 2, 53, 80
2, 12000, Note_on_c, 2, 57, 80
2, 12455, Note_on_c, 2, 53, 0
2, 12455, Note_on_c, 2, 57, 0
2, 12480, Note_on_c, 2, 53, 80
2, 12480, Note_on_c, 2, 57, 80
2, 12887, Note_on_c, 2, 60, 0
2, 12935, Note_on_c, 2, 53, 0
2, 12935, Note_on_c, 2, 57, 0
2, 12960, Note_on_c, 2, 53, 80
2, 12960, Note_on_c, 2, 60, 80
2, 12960, Note_on_c, 2, 57, 80
2, 13199, Note_on_c, 2, 53, 0
2, 13199, Note_on_c, 2, 60, 0
2, 13200, Note_on_c, 2, 53, 80
2, 13415, Note_on_c, 2, 57, 0
2, 13427, Note_on_c, 2, 53, 0
2, 13440, Note_on_c, 2, 53, 80
2, 13440, Note_on_c, 2, 60, 80
2, 13895, Note_on_c, 2, 53, 0
2, 13895, Note_on_c, 2, 60, 0
2, 13920, Note_on_c, 2, 53, 80
2, 13920, Note_on_c, 2, 55, 80
2, 13920, Note_on_c, 2, 60, 80
2, 14375, Note_on_c, 2, 53, 0
2, 14375, Note_on_c, 2, 55, 0
2, 14375, Note_on_c, 2, 60, 0
2, 14400, Note_on_c, 2, 53, 80
2, 14400, Note_on_c, 2, 55, 80
2, 14400, Note_on_c, 2, 60, 80
2, 14855, Note_on_c, 2, 53, 0
2, 14855, Note_on_c, 2, 55, 0
2, 14855, Note_on_c, 2, 60, 0
2, 14880, Note_on_c, 2, 53, 80
2, 14880, Note_on_c, 2, 60, 80
2, 15107, Note_on_c, 2, 53, 0
2, 15107, Note_on_c, 2, 60, 0
2, 15120, Note_on_c, 2, 53, 80
2, 15347, Note_on_c, 2, 53, 0
2, 15360, Note_on_c, 2, 55, 80
2, 15360, Note_on_c, 2, 60, 80
2, 15360, Note_on_c, 2, 48, 80
2, 15815, Note_on_c, 2, 55, 0
2, 15815, Note_on_c, 2, 60, 0
2, 15840, Note_on_c, 2, 55, 80
2, 15840, Note_on_c, 2, 60, 80
2, 16295, Note_on_c, 2, 55, 0
2, 16295, Note_on_c, 2, 60, 0
2, 16320, Note_on_c, 2, 55, 80
2, 16320, Note_on_c, 2, 60, 80
2, 16727, Note_on_c, 2, 48, 0
2, 16775, Note_on_c, 2, 55, 0
2, 16775, Note_on_c, 2, 60, 0
2, 16800, Note_on_c, 2, 60, 80
2, 16800, Note_on_c, 2, 48, 80
2, 16800, Note_on_c, 2, 55, 80
2, 17027, Note_on_c, 2, 48, 0
2, 17027, Note_on_c, 2, 55, 0
2, 17040, Note_on_c, 2, 55, 80
2, 17255, Note_on_c, 2, 60, 0
2, 17267, Note_on_c, 2, 55, 0
2, 17280, Note_on_c, 2, 55, 80
2, 17280, Note_on_c, 2, 59, 80
2, 17280, Note_on_c, 2, 52, 80
2, 17735, Note_on_c, 2, 55, 0
2, 17735, Note_on_c, 2, 59, 0
2, 17760, Note_on_c, 2, 55, 80
2, 17760, Note_on_c, 2, 59, 80
2, 18215, Note_on_c, 2, 55, 0
2, 18215, Note_on_c, 2, 59, 0
2, 18240, Note_on_c, 2, 55, 80
2, 18240, Note_on_c, 2, 59, 80
2, 18647, Note_on_c, 2, 52, 0
2, 18695, Note_on_c, 2, 55, 0
2, 18695, Note_on_c, 2, 59, 0
2, 18720, Note_on_c, 2, 55, 80
2, 18720, Note_on_c, 2, 59, 80
2, 18720, Note_on_c, 2, 52, 80
2, 18947, Note_on_c, 2, 52, 0
2, 18960, Note_on_c, 2, 52, 80
2, 19175, Note_on_c, 2, 55, 0
2, 19175, Note_on_c, 2, 59, 0
2, 19187, Note_on_c, 2, 52, 0
2, 19200, Note_on_c, 2, 53, 80
2, 19200, Note_on_c, 2, 57, 80
2, 19200, Note_on_c, 2, 48, 80
2, 19655, Note_on_c, 2, 53, 0
2, 19655, Note_on_c, 2, 57, 0
2, 19680, Note_on_c, 2, 53, 80
2, 19680, Note_on_c, 2, 57, 80
2, 20135, Note_on_c, 2, 53, 0
2, 20135, Note_on_c, 2, 57, 0
2, 20160, Note_on_c, 2, 53, 80
2, 20160, Note_on_c, 2, 57, 80
2, 20567, Note_on_c, 2, 48, 0
2, 20615, Note_on_c, 2, 53, 0
2, 20615, Note_on_c, 2, 57, 0
2, 20640, Note_on_c, 2, 57, 80
2, 20640, Note_on_c, 2, 48, 80
2, 20640, Note_on_c, 2, 53, 80
2, 20867, Note_on_c, 2, 48, 0
2, 20867, Note_on_c, 2, 53, 0
2, 20880, Note_on_c, 2, 53, 80
2, 21095, Note_on_c, 2, 57, 0
2, 21107, Note_on_c, 2, 53, 0
2, 21120, Note_on_c, 2, 48, 80
2, 21120, Note_on_c, 2, 53, 80
2, 21120, Note_on_c, 2, 60, 80
2, 21575, Note_on_c, 2, 48, 0
2, 21575, Note_on_c, 2, 53, 0
2, 21575, Note_on_c, 2, 60, 0
2, 21600, Note_on_c, 2, 48, 80
2, 21600, Note_on_c, 2, 53, 80
2, 21600, Note_on_c, 2, 55, 80
2, 22055, Note_on_c, 2, 48, 0
2, 22055, Note_on_c, 2, 53, 0
2, 22055, Note_on_c, 2, 55, 0
2, 22080, Note_on_c, 2, 48, 80
2, 22080, Note_on_c, 2, 53, 80
2, 22080, Note_on_c, 2, 55, 80
2, 22535, Note_on_c, 2, 48, 0
2, 22535, Note_on_c, 2, 53, 0
2, 22535, Note_on_c, 2, 55, 0
2, 22560, Note_on_c, 2, 48, 80
2, 22560, Note_on_c, 2, 53, 80
2, 22787, Note_on_c, 2, 48, 0
2, 22787, Note_on_c, 2, 53, 0
2, 22800, Note_on_c, 2, 53, 80
2, 23027, Note_on_c, 2, 53, 0
2, 23040, Note_on_c, 2, 62, 80
2, 23040, Note_on_c, 2, 65, 80
2, 23040, Note_on_c, 2, 72, 80
2, 23267, Note_on_c, 2, 62, 0
2, 23267, Note_on_c, 2, 65, 0
2, 23267, Note_on_c, 2, 72, 0
2, 23280, Note_on_c, 2, 62, 80
2, 23507, Note_on_c, 2, 62, 0
2, 23520, Note_on_c, 2, 65, 80
2, 23520, Note_on_c, 2, 72, 80
2, 23747, Note_on_c, 2, 65, 0
2, 23747, Note_on_c, 2, 72, 0
2, 23760, Note_on_c, 2, 62, 80
2, 23987, Note_on_c, 2, 62, 0
2, 24000, Note_on_c, 2, 65, 80
2, 24000, Note_on_c, 2, 72, 80
2, 24227, Note_on_c, 2, 65, 0
2, 24227, Note_on_c, 2, 72, 0
2, 24240, Note_on_c, 2, 62, 80
2, 24467, Note_on_c, 2, 62, 0
2, 24480, Note_on_c, 2, 62, 80
2, 24480, Note_on_c, 2, 69, 80
2, 24707, Note_on_c, 2, 62, 0
2, 24707, Note_on_c, 2, 69, 0
2, 24720, Note_on_c, 2, 62, 80
2, 24947, Note_on_c, 2, 62, 0
2, 24960, Note_on_c, 2, 65, 80
2, 24960, Note_on_c, 2, 71, 80
2, 25187, Note_on_c, 2, 65, 0
2, 25187, Note_on_c, 2, 71, 0
2, 25200, Note_on_c, 2, 62, 80
2, 25427, Note_on_c, 2, 62, 0
2, 25440, Note_on_c, 2, 65, 80
2, 25440, Note_on_c, 2, 71, 80
2, 25667, Note_on_c, 2, 65, 0
2, 25667, Note_on_c, 2, 71, 0
2, 25680, Note_on_c, 2, 62, 80
2, 25907, Note_on_c, 2, 62, 0
2, 25920, Note_on_c, 2, 65, 80
2, 25920, Note_on_c, 2, 72, 80
2, 26147, Note_on_c, 2, 65, 0
2, 26147, Note_on_c, 2, 72, 0
2, 26160, Note_on_c, 2, 62, 80
2, 26387, Note_on_c, 2, 62, 0
2, 26400, Note_on_c, 2, 65, 80
2, 26627, Note_on_c, 2, 65, 0
2, 26640, Note_on_c, 2, 62, 80
2, 26867, Note_on_c, 2, 62, 0
2, 26880, Note_on_c, 2, 60, 80
2, 26880, Note_on_c, 2, 64, 80
2, 26880, Note_on_c, 2, 72, 80
2, 27335, Note_on_c, 2, 60, 0
2, 27335, Note_on_c, 2, 64, 0
2, 27335, Note_on_c, 2, 72, 0
2, 27360, Note_on_c, 2, 60, 80
2, 27360, Note_on_c, 2, 64, 80
2, 27360, Note_on_c, 2, 67, 80
2, 27815, Note_on_c, 2, 60, 0
2, 27815, Note_on_c, 2, 64, 0
2, 27815, Note_on_c, 2, 67, 0
2, 27840, Note_on_c, 2, 60, 80
2, 27840, Note_on_c, 2, 64, 80
2, 27840, Note_on_c, 2, 67, 80
2, 28295, Note_on_c, 2, 60, 0
2, 28295, Note_on_c, 2, 64, 0
2, 28295, Note_on_c, 2, 67, 0
2, 28320, Note_on_c, 2, 60, 80
2, 28320, Note_on_c, 2, 64, 80
2, 28320, Note_on_c, 2, 67, 80
2, 28547, Note_on_c, 2, 60, 0
2, 28547, Note_on_c, 2, 64, 0
2, 28547, Note_on_c, 2, 67, 0
2, 28560, Note_on_c, 2, 60, 80
2, 28787, Note_on_c, 2, 60, 0
2, 28800, Note_on_c, 2, 64, 80
2, 28800, Note_on_c, 2, 71, 80
2, 29255, Note_on_c, 2, 64, 0
2, 29255, Note_on_c, 2, 71, 0
2, 29280, Note_on_c, 2, 64, 80
2, 29280, Note_on_c, 2, 67, 80
2, 29735, Note_on_c, 2, 64, 0
2, 29735, Note_on_c, 2, 67, 0
2, 29760, Note_on_c, 2, 64, 80
2, 29760, Note_on_c, 2, 69, 80
2, 30215, Note_on_c, 2, 64, 0
2, 30215, Note_on_c, 2, 69, 0
2, 30240, Note_on_c, 2, 64, 80
2, 30240, Note_on_c, 2, 71, 80
2, 30695, Note_on_c, 2, 64, 0
2, 30695, Note_on_c, 2, 71, 0
2, 30720, Note_on_c, 2, 65, 80
2, 30720, Note_on_c, 2, 69, 80
2, 30960, Note_on_c, 2, 64, 80
2, 31175, Note_on_c, 2, 65, 0
2, 31175, Note_on_c, 2, 69, 0
2, 31187, Note_on_c, 2, 64, 0
2, 31200, Note_on_c, 2, 65, 80
2, 31200, Note_on_c, 2, 69, 80
2, 31200, Note_on_c, 2, 64, 80
2, 31439, Note_on_c, 2, 64, 0
2, 31440, Note_on_c, 2, 64, 80
2, 31655, Note_on_c, 2, 65, 0
2, 31655, Note_on_c, 2, 69, 0
2, 31680, Note_on_c, 2, 65, 80
2, 31680, Note_on_c, 2, 71, 80
2, 31781, Note_on_c, 2, 64, 0
2, 31920, Note_on_c, 2, 64, 80
2, 32039, Note_on_c, 2, 64, 0
2, 32040, Note_on_c, 2, 62, 80
2, 32135, Note_on_c, 2, 65, 0
2, 32135, Note_on_c, 2, 71, 0
2, 32160, Note_on_c, 2, 65, 80
2, 32160, Note_on_c, 2, 72, 80
2, 32381, Note_on_c, 2, 62, 0
2, 32400, Note_on_c, 2, 60, 80
2, 32615, Note_on_c, 2, 65, 0
2, 32615, Note_on_c, 2, 72, 0
2, 32627, Note_on_c, 2, 60, 0
2, 32640, Note_on_c, 2, 55, 80
2, 32867, Note_on_c, 2, 55, 0
2, 32880, Note_on_c, 2, 64, 80
2, 33107, Note_on_c, 2, 64, 0
2, 33120, Note_on_c, 2, 60, 80
2, 33120, Note_on_c, 2, 67, 80
2, 33120, Note_on_c, 2, 64, 80
2, 33120, Note_on_c, 2, 65, 80
2, 33347, Note_on_c, 2, 64, 0
2, 33347, Note_on_c, 2, 65, 0
2, 33360, Note_on_c, 2, 65, 80
2, 33575, Note_on_c, 2, 60, 0
2, 33575, Note_on_c, 2, 67, 0
2, 33587, Note_on_c, 2, 65, 0
2, 33600, Note_on_c, 2, 60, 80
2, 33600, Note_on_c, 2, 65, 80
2, 33600, Note_on_c, 2, 67, 80
2, 33840, Note_on_c, 2, 64, 80
2, 34055, Note_on_c, 2, 60, 0
2, 34055, Note_on_c, 2, 65, 0
2, 34055, Note_on_c, 2, 67, 0
2, 34067, Note_on_c, 2, 64, 0
2, 34080, Note_on_c, 2, 60, 80
2, 34080, Note_on_c, 2, 62, 80
2, 34080, Note_on_c, 2, 65, 80
2, 34080, Note_on_c, 2, 67, 80
2, 34319, Note_on_c, 2, 60, 0
2, 34319, Note_on_c, 2, 62, 0
2, 34319, Note_on_c, 2, 65, 0
2, 34319, Note_on_c, 2, 67, 0
2, 34320, Note_on_c, 2, 60, 80
2, 34433, Note_on_c, 2, 60, 0
2, 34440, Note_on_c, 2, 60, 80
2, 34480, Note_on_c, 2, 64, 80
2, 34517, Note_on_c, 2, 64, 0
2, 34520, Note_on_c, 2, 67, 80
2, 34553, Note_on_c, 2, 60, 0
2, 34557, Note_on_c, 2, 67, 0
2, 35040, Note_on_c, 2, 67, 80
2, 35040, Note_on_c, 2, 60, 80
2, 35040, Note_on_c, 2, 64, 80
2, 35279, Note_on_c, 2, 67, 0
2, 35280, Note_on_c, 2, 67, 80
2, 35495, Note_on_c, 2, 60, 0
2, 35495, Note_on_c, 2, 64, 0
2, 35520, Note_on_c, 2, 60, 80
2, 35520, Note_on_c, 2, 64, 80
2, 35735, Note_on_c, 2, 67, 0
2, 35760, Note_on_c, 2, 67, 80
2, 35975, Note_on_c, 2, 60, 0
2, 35975, Note_on_c, 2, 64, 0
2, 35987, Note_on_c, 2, 67, 0
2, 36000, Note_on_c, 2, 67, 80
2, 36000, Note_on_c, 2, 60, 80
2, 36000, Note_on_c, 2, 64, 80
2, 36119, Note_on_c, 2, 67, 0
2, 36240, Note_on_c, 2, 67, 80
2, 36455, Note_on_c, 2, 60, 0
2, 36455, Note_on_c, 2, 64, 0
2, 36467, Note_on_c, 2, 67, 0
2, 36480, Note_on_c, 2, 67, 80
2, 36480, Note_on_c, 2, 64, 80
2, 36599, Note_on_c, 2, 67, 0
2, 36720, Note_on_c, 2, 67, 80
2, 36935, Note_on_c, 2, 64, 0
2, 36947, Note_on_c, 2, 67, 0
2, 36960, Note_on_c, 2, 67, 80
2, 36960, Note_on_c, 2, 64, 80
2, 37199, Note_on_c, 2, 67, 0
2, 37200, Note_on_c, 2, 67, 80
2, 37415, Note_on_c, 2, 64, 0
2, 37440, Note_on_c, 2, 69, 80
2, 37440, Note_on_c, 2, 64, 80
2, 37655, Note_on_c, 2, 67, 0
2, 37667, Note_on_c, 2, 69, 0
2, 37680, Note_on_c, 2, 69, 80
2, 37895, Note_on_c, 2, 64, 0
2, 37907, Note_on_c, 2, 69, 0
2, 37920, Note_on_c, 2, 71, 80
2, 37920, Note_on_c, 2, 64, 80
2, 38039, Note_on_c, 2, 71, 0
2, 38160, Note_on_c, 2, 67, 80
2, 38375, Note_on_c, 2, 64, 0
2, 38387, Note_on_c, 2, 67, 0
2, 38400, Note_on_c, 2, 60, 80
2, 38400, Note_on_c, 2, 72, 80
2, 39311, Note_on_c, 2, 60, 0
2, 39311, Note_on_c, 2, 72, 0
2, 39360, Note_on_c, 2, 60, 80
2, 39360, Note_on_c, 2, 67, 80
2, 40271, Note_on_c, 2, 60, 0
2, 40271, Note_on_c, 2, 67, 0
2, 42240, Note_on_c, 2, 52, 80
2, 42240, Note_on_c, 2, 55, 80
2, 42467, Note_on_c, 2, 52, 0
2, 42467, Note_on_c, 2, 55, 0
2, 42480, Note_on_c, 2, 48, 80
2, 42707, Note_on_c, 2, 48, 0
2, 42720, Note_on_c, 2, 52, 80
2, 42947, Note_on_c, 2, 52, 0
2, 42960, Note_on_c, 2, 48, 80
2, 43187, Note_on_c, 2, 48, 0
2, 43200, Note_on_c, 2, 52, 80
2, 43427, Note_on_c, 2, 52, 0
2, 43440, Note_on_c, 2, 48, 80
2, 43667, Note_on_c, 2, 48, 0
2, 43680, Note_on_c, 2, 52, 80
2, 43907, Note_on_c, 2, 52, 0
2, 43920, Note_on_c, 2, 48, 80
2, 44147, Note_on_c, 2, 48, 0
2, 44160, Note_on_c, 2, 52, 80
2, 44387, Note_on_c, 2, 52, 0
2, 44400, Note_on_c, 2, 48, 80
2, 44627, Note_on_c, 2, 48, 0
2, 44640, Note_on_c, 2, 52, 80
2, 44867, Note_on_c, 2, 52, 0
2, 44880, Note_on_c, 2, 48, 80
2, 45107, Note_on_c, 2, 48, 0
2, 45120, Note_on_c, 2, 52, 80
2, 45347, Note_on_c, 2, 52, 0
2, 45360, Note_on_c, 2, 48, 80
2, 45587, Note_on_c, 2, 48, 0
2, 45600, Note_on_c, 2, 52, 80
2, 45827, Note_on_c, 2, 52, 0
2, 45840, Note_on_c, 2, 48, 80
2, 46067, Note_on_c, 2, 48, 0
2, 46080, Note_on_c, 2, 59, 80
2, 46307, Note_on_c, 2, 59, 0
2, 46320, Note_on_c, 2, 52, 80
2, 46547, Note_on_c, 2, 52, 0
2, 46560, Note_on_c, 2, 59, 80
2, 46787, Note_on_c, 2, 59, 0
2, 46800, Note_on_c, 2, 52, 80
2, 46919, Note_on_c, 2, 52, 0
2, 47040, Note_on_c, 2, 59, 80
2, 47267, Note_on_c, 2, 59, 0
2, 47280, Note_on_c, 2, 52, 80
2, 47507, Note_on_c, 2, 52, 0
2, 47520, Note_on_c, 2, 59, 80
2, 47747, Note_on_c, 2, 59, 0
2, 47760, Note_on_c, 2, 52, 80
2, 47879, Note_on_c, 2, 52, 0
2, 48000, Note_on_c, 2, 59, 80
2, 48227, Note_on_c, 2, 59, 0
2, 48240, Note_on_c, 2, 52, 80
2, 48467, Note_on_c, 2, 52, 0
2, 48480, Note_on_c, 2, 59, 80
2, 48707, Note_on_c, 2, 59, 0
2, 48720, Note_on_c, 2, 52, 80
2, 48839, Note_on_c, 2, 52, 0
2, 48960, Note_on_c, 2, 59, 80
2, 49187, Note_on_c, 2, 59, 0
2, 49200, Note_on_c, 2, 52, 80
2, 49427, Note_on_c, 2, 52, 0
2, 49440, Note_on_c, 2, 59, 80
2, 49667, Note_on_c, 2, 59, 0
2, 49680, Note_on_c, 2, 52, 80
2, 49799, Note_on_c, 2, 52, 0
2, 49920, Note_on_c, 2, 53, 80
2, 49920, Note_on_c, 2, 57, 80
2, 50159, Note_on_c, 2, 53, 0
2, 50159, Note_on_c, 2, 57, 0
2, 50160, Note_on_c, 2, 48, 80
2, 50400, Note_on_c, 2, 53, 80
2, 50400, Note_on_c, 2, 57, 80
2, 50615, Note_on_c, 2, 48, 0
2, 50639, Note_on_c, 2, 53, 0
2, 50639, Note_on_c, 2, 57, 0
2, 50640, Note_on_c, 2, 48, 80
2, 50880, Note_on_c, 2, 53, 80
2, 50880, Note_on_c, 2, 57, 80
2, 51095, Note_on_c, 2, 48, 0
2, 51119, Note_on_c, 2, 53, 0
2, 51119, Note_on_c, 2, 57, 0
2, 51120, Note_on_c, 2, 48, 80
2, 51360, Note_on_c, 2, 53, 80
2, 51360, Note_on_c, 2, 57, 80
2, 51575, Note_on_c, 2, 48, 0
2, 51599, Note_on_c, 2, 53, 0
2, 51599, Note_on_c, 2, 57, 0
2, 51600, Note_on_c, 2, 48, 80
2, 51840, Note_on_c, 2, 53, 80
2, 51840, Note_on_c, 2, 57, 80
2, 52055, Note_on_c, 2, 48, 0
2, 52079, Note_on_c, 2, 53, 0
2, 52079, Note_on_c, 2, 57, 0
2, 52080, Note_on_c, 2, 48, 80
2, 52320, Note_on_c, 2, 53, 80
2, 52320, Note_on_c, 2, 57, 80
2, 52535, Note_on_c, 2, 48, 0
2, 52559, Note_on_c, 2, 53, 0
2, 52559, Note_on_c, 2, 57, 0
2, 52560, Note_on_c, 2, 48, 80
2, 52800, Note_on_c, 2, 53, 80
2, 52800, Note_on_c, 2, 57, 80
2, 53015, Note_on_c, 2, 48, 0
2, 53039, Note_on_c, 2, 53, 0
2, 53039, Note_on_c, 2, 57, 0
2, 53040, Note_on_c, 2, 48, 80
2, 53280, Note_on_c, 2, 53, 80
2, 53280, Note_on_c, 2, 57, 80
2, 53399, Note_on_c, 2, 48, 0
2, 53507, Note_on_c, 2, 53, 0
2, 53507, Note_on_c, 2, 57, 0
2, 53520, Note_on_c, 2, 48, 80
2, 53747, Note_on_c, 2, 48, 0
2, 53760, Note_on_c, 2, 53, 80
2, 53760, Note_on_c, 2, 55, 80
2, 53999, Note_on_c, 2, 53, 0
2, 53999, Note_on_c, 2, 55, 0
2, 54000, Note_on_c, 2, 48, 80
2, 54240, Note_on_c, 2, 53, 80
2, 54240, Note_on_c, 2, 55, 80
2, 54455, Note_on_c, 2, 48, 0
2, 54479, Note_on_c, 2, 53, 0
2, 54479, Note_on_c, 2, 55, 0
2, 54480, Note_on_c, 2, 48, 80
2, 54720, Note_on_c, 2, 53, 80
2, 54720, Note_on_c, 2, 55, 80
2, 54935, Note_on_c, 2, 48, 0
2, 54959, Note_on_c, 2, 53, 0
2, 54959, Note_on_c, 2, 55, 0
2, 54960, Note_on_c, 2, 48, 80
2, 55200, Note_on_c, 2, 53, 80
2, 55200, Note_on_c, 2, 55, 80
2, 55415, Note_on_c, 2, 48, 0
2, 55439, Note_on_c, 2, 53, 0
2, 55439, Note_on_c, 2, 55, 0
2, 55440, Note_on_c, 2, 48, 80
2, 55680, Note_on_c, 2, 53, 80
2, 55680, Note_on_c, 2, 55, 80
2, 55895, Note_on_c, 2, 48, 0
2, 55919, Note_on_c, 2, 53, 0
2, 55919, Note_on_c, 2, 55, 0
2, 55920, Note_on_c, 2, 48, 80
2, 56160, Note_on_c, 2, 53, 80
2, 56160, Note_on_c, 2, 55, 80
2, 56375, Note_on_c, 2, 48, 0
2, 56399, Note_on_c, 2, 53, 0
2, 56399, Note_on_c, 2, 55, 0
2, 56400, Note_on_c, 2, 48, 80
2, 56640, Note_on_c, 2, 53, 80
2, 56640, Note_on_c, 2, 55, 80
2, 56855, Note_on_c, 2, 48, 0
2, 56879, Note_on_c, 2, 53, 0
2, 56879, Note_on_c, 2, 55, 0
2, 56880, Note_on_c, 2, 48, 80
2, 57120, Note_on_c, 2, 53, 80
2, 57120, Note_on_c, 2, 55, 80
2, 57239, Note_on_c, 2, 48, 0
2, 57347, Note_on_c, 2, 53, 0
2, 57347, Note_on_c, 2, 55, 0
2, 57360, Note_on_c, 2, 48, 80
2, 57587, Note_on_c, 2, 48, 0
2, 57600, Note_on_c, 2, 52, 80
2, 57600, Note_on_c, 2, 55, 80
2, 57600, Note_on_c, 2, 60, 80
2, 57827, Note_on_c, 2, 52, 0
2, 57827, Note_on_c, 2, 55, 0
2, 57827, Note_on_c, 2, 60, 0
2, 57840, Note_on_c, 2, 48, 80
2, 58067, Note_on_c, 2, 48, 0
2, 58080, Note_on_c, 2, 52, 80
2, 58307, Note_on_c, 2, 52, 0
2, 58320, Note_on_c, 2, 48, 80
2, 58547, Note_on_c, 2, 48, 0
2, 58560, Note_on_c, 2, 52, 80
2, 58787, Note_on_c, 2, 52, 0
2, 58800, Note_on_c, 2, 48, 80
2, 59027, Note_on_c, 2, 48, 0
2, 59040, Note_on_c, 2, 52, 80
2, 59267, Note_on_c, 2, 52, 0
2, 59280, Note_on_c, 2, 48, 80
2, 59507, Note_on_c, 2, 48, 0
2, 59520, Note_on_c, 2, 52, 80
2, 59747, Note_on_c, 2, 52, 0
2, 59760, Note_on_c, 2, 48, 80
2, 59987, Note_on_c, 2, 48, 0
2, 60000, Note_on_c, 2, 52, 80
2, 60227, Note_on_c, 2, 52, 0
2, 60240, Note_on_c, 2, 48, 80
2, 60467, Note_on_c, 2, 48, 0
2, 60480, Note_on_c, 2, 52, 80
2, 60707, Note_on_c, 2, 52, 0
2, 60720, Note_on_c, 2, 48, 80
2, 60947, Note_on_c, 2, 48, 0
2, 60960, Note_on_c, 2, 52, 80
2, 61187, Note_on_c, 2, 52, 0
2, 61200, Note_on_c, 2, 48, 80
2, 61427, Note_on_c, 2, 48, 0
2, 61440, Note_on_c, 2, 52, 80
2, 61440, Note_on_c, 2, 55, 80
2, 61440, Note_on_c, 2, 59, 80
2, 61667, Note_on_c, 2, 52, 0
2, 61667, Note_on_c, 2, 55, 0
2, 61667, Note_on_c, 2, 59, 0
2, 61680, Note_on_c, 2, 52, 80
2, 61907, Note_on_c, 2, 52, 0
2, 61920, Note_on_c, 2, 59, 80
2, 62147, Note_on_c, 2, 59, 0
2, 62160, Note_on_c, 2, 52, 80
2, 62279, Note_on_c, 2, 52, 0
2, 62400, Note_on_c, 2, 59, 80
2, 62627, Note_on_c, 2, 59, 0
2, 62640, Note_on_c, 2, 52, 80
2, 62867, Note_on_c, 2, 52, 0
2, 62880, Note_on_c, 2, 59, 80
2, 63107, Note_on_c, 2, 59, 0
2, 63120, Note_on_c, 2, 52, 80
2, 63239, Note_on_c, 2, 52, 0
2, 63360, Note_on_c, 2, 59, 80
2, 63587, Note_on_c, 2, 59, 0
2, 63600, Note_on_c, 2, 52, 80
2, 63827, Note_on_c, 2, 52, 0
2, 63840, Note_on_c, 2, 59, 80
2, 64067, Note_on_c, 2, 59, 0
2, 64080, Note_on_c, 2, 52, 80
2, 64199, Note_on_c, 2, 52, 0
2, 64320, Note_on_c, 2, 59, 80
2, 64547, Note_on_c, 2, 59, 0
2, 64560, Note_on_c, 2, 52, 80
2, 64787, Note_on_c, 2, 52, 0
2, 64800, Note_on_c, 2, 59, 80
2, 65027, Note_on_c, 2, 59, 0
2, 65040, Note_on_c, 2, 52, 80
2, 65159, Note_on_c, 2, 52, 0
2, 65280, Note_on_c, 2, 53, 80
2, 65280, Note_on_c, 2, 57, 80
2, 65280, Note_on_c, 2, 60, 80
2, 65519, Note_on_c, 2, 53, 0
2, 65519, Note_on_c, 2, 57, 0
2, 65519, Note_on_c, 2, 60, 0
2, 65520, Note_on_c, 2, 48, 80
2, 65760, Note_on_c, 2, 53, 80
2, 65760, Note_on_c, 2, 57, 80
2, 65975, Note_on_c, 2, 48, 0
2, 65999, Note_on_c, 2, 53, 0
2, 65999, Note_on_c, 2, 57, 0
2, 66000, Note_on_c, 2, 48, 80
2, 66240, Note_on_c, 2, 53, 80
2, 66240, Note_on_c, 2, 57, 80
2, 66455, Note_on_c, 2, 48, 0
2, 66479, Note_on_c, 2, 53, 0
2, 66479, Note_on_c, 2, 57, 0
2, 66480, Note_on_c, 2, 48, 80
2, 66720, Note_on_c, 2, 53, 80
2, 66720, Note_on_c, 2, 57, 80
2, 66935, Note_on_c, 2, 48, 0
2, 66959, Note_on_c, 2, 53, 0
2, 66959, Note_on_c, 2, 57, 0
2, 66960, Note_on_c, 2, 48, 80
2, 67200, Note_on_c, 2, 53, 80
2, 67200, Note_on_c, 2, 57, 80
2, 67415, Note_on_c, 2, 48, 0
2, 67439, Note_on_c, 2, 53, 0
2, 67439, Note_on_c, 2, 57, 0
2, 67440, Note_on_c, 2, 48, 80
2, 67680, Note_on_c, 2, 53, 80
2, 67680, Note_on_c, 2, 57, 80
2, 67895, Note_on_c, 2, 48, 0
2, 67919, Note_on_c, 2, 53, 0
2, 67919, Note_on_c, 2, 57, 0
2, 67920, Note_on_c, 2, 48, 80
2, 68160, Note_on_c, 2, 53, 80
2, 68160, Note_on_c, 2, 57, 80
2, 68375, Note_on_c, 2, 48, 0
2, 68399, Note_on_c, 2, 53, 0
2, 68399, Note_on_c, 2, 57, 0
2, 68400, Note_on_c, 2, 48, 80
2, 68640, Note_on_c, 2, 53, 80
2, 68640, Note_on_c, 2, 57, 80
2, 68759, Note_on_c, 2, 48, 0
2, 68867, Note_on_c, 2, 53, 0
2, 68867, Note_on_c, 2, 57, 0
2, 68880, Note_on_c, 2, 48, 80
2, 69107, Note_on_c, 2, 48, 0
2, 69120, Note_on_c, 2, 53, 80
2, 69120, Note_on_c, 2, 55, 80
2, 69120, Note_on_c, 2, 48, 80
2, 69359, Note_on_c, 2, 48, 0
2, 70943, Note_on_c, 2, 53, 0
2, 70943, Note_on_c, 2, 55, 0
2, 72960, Note_on_c, 2, 53, 80
2, 72960, Note_on_c, 2, 57, 80
2, 73187, Note_on_c, 2, 53, 0
2, 73187, Note_on_c, 2, 57, 0
2, 73200, Note_on_c, 2, 53, 80
2, 73200, Note_on_c, 2, 57, 80
2, 73427, Note_on_c, 2, 53, 0
2, 73427, Note_on_c, 2, 57, 0
2, 73440, Note_on_c, 2, 53, 80
2, 73440, Note_on_c, 2, 57, 80
2, 73667, Note_on_c, 2, 53, 0
2, 73667, Note_on_c, 2, 57, 0
2, 73680, Note_on_c, 2, 53, 80
2, 73680, Note_on_c, 2, 57, 80
2, 73907, Note_on_c, 2, 53, 0
2, 73907, Note_on_c, 2, 57, 0
2, 73920, Note_on_c, 2, 53, 80
2, 73920, Note_on_c, 2, 57, 80
2, 74147, Note_on_c, 2, 53, 0
2, 74147, Note_on_c, 2, 57, 0
2, 74160, Note_on_c, 2, 53, 80
2, 74160, Note_on_c, 2, 57, 80
2, 74387, Note_on_c, 2, 53, 0
2, 74387, Note_on_c, 2, 57, 0
2, 74400, Note_on_c, 2, 53, 80
2, 74400, Note_on_c, 2, 57, 80
2, 74627, Note_on_c, 2, 53, 0
2, 74627, Note_on_c, 2, 57, 0
2, 74640, Note_on_c, 2, 53, 80
2, 74640, Note_on_c, 2, 57, 80
2, 74867, Note_on_c, 2, 53, 0
2, 74867, Note_on_c, 2, 57, 0
2, 74880, Note_on_c, 2, 53, 80
2, 74880, Note_on_c, 2, 57, 80
2, 75107, Note_on_c, 2, 53, 0
2, 75107, Note_on_c, 2, 57, 0
2, 75120, Note_on_c, 2, 53, 80
2, 75120, Note_on_c, 2, 57, 80
2, 75347, Note_on_c, 2, 53, 0
2, 75347, Note_on_c, 2, 57, 0
2, 75360, Note_on_c, 2, 53, 80
2, 75360, Note_on_c, 2, 57, 80
2, 75587, Note_on_c, 2, 53, 0
2, 75587, Note_on_c, 2, 57, 0
2, 75600, Note_on_c, 2, 53, 80
2, 75600, Note_on_c, 2, 57, 80
2, 75827, Note_on_c, 2, 53, 0
2, 75827, Note_on_c, 2, 57, 0
2, 75840, Note_on_c, 2, 53, 80
2, 75840, Note_on_c, 2, 57, 80
2, 76067, Note_on_c, 2, 53, 0
2, 76067, Note_on_c, 2, 57, 0
2, 76080, Note_on_c, 2, 53, 80
2, 76080, Note_on_c, 2, 57, 80
2, 76307, Note_on_c, 2, 53, 0
2, 76307, Note_on_c, 2, 57, 0
2, 76320, Note_on_c, 2, 53, 80
2, 76320, Note_on_c, 2, 57, 80
2, 76547, Note_on_c, 2, 53, 0
2, 76547, Note_on_c, 2, 57, 0
2, 76560, Note_on_c, 2, 53, 80
2, 76560, Note_on_c, 2, 57, 80
2, 76787, Note_on_c, 2, 53, 0
2, 76787, Note_on_c, 2, 57, 0
2, 76800, Note_on_c, 2, 53, 80
2, 76800, Note_on_c, 2, 59, 80
2, 77027, Note_on_c, 2, 53, 0
2, 77027, Note_on_c, 2, 59, 0
2, 77040, Note_on_c, 2, 53, 80
2, 77040, Note_on_c, 2, 59, 80
2, 77267, Note_on_c, 2, 53, 0
2, 77267, Note_on_c, 2, 59, 0
2, 77280, Note_on_c, 2, 53, 80
2, 77280, Note_on_c, 2, 59, 80
2, 77507, Note_on_c, 2, 53, 0
2, 77507, Note_on_c, 2, 59, 0
2, 77520, Note_on_c, 2, 53, 80
2, 77520, Note_on_c, 2, 59, 80
2, 77747, Note_on_c, 2, 53, 0
2, 77747, Note_on_c, 2, 59, 0
2, 77760, Note_on_c, 2, 53, 80
2, 77760, Note_on_c, 2, 59, 80
2, 77987, Note_on_c, 2, 53, 0
2, 77987, Note_on_c, 2, 59, 0
2, 78000, Note_on_c, 2, 53, 80
2, 78000, Note_on_c, 2, 59, 80
2, 78227, Note_on_c, 2, 53, 0
2, 78227, Note_on_c, 2, 59, 0
2, 78240, Note_on_c, 2, 53, 80
2, 78240, Note_on_c, 2, 59, 80
2, 78467, Note_on_c, 2, 53, 0
2, 78467, Note_on_c, 2, 59, 0
2, 78480, Note_on_c, 2, 53, 80
2, 78480, Note_on_c, 2, 59, 80
2, 78707, Note_on_c, 2, 53, 0
2, 78707, Note_on_c, 2, 59, 0
2, 78720, Note_on_c, 2, 53, 80
2, 78720, Note_on_c, 2, 60, 80
2, 78947, Note_on_c, 2, 53, 0
2, 78947, Note_on_c, 2, 60, 0
2, 78960, Note_on_c, 2, 53, 80
2, 78960, Note_on_c, 2, 60, 80
2, 79187, Note_on_c, 2, 53, 0
2, 79187, Note_on_c, 2, 60, 0
2, 79200, Note_on_c, 2, 53, 80
2, 79200, Note_on_c, 2, 60, 80
2, 79427, Note_on_c, 2, 53, 0
2, 79427, Note_on_c, 2, 60, 0
2, 79440, Note_on_c, 2, 53, 80
2, 79440, Note_on_c, 2, 60, 80
2, 79667, Note_on_c, 2, 53, 0
2, 79667, Note_on_c, 2, 60, 0
2, 79680, Note_on_c, 2, 53, 80
2, 79680, Note_on_c, 2, 62, 80
2, 79907, Note_on_c, 2, 53, 0
2, 79907, Note_on_c, 2, 62, 0
2, 79920, Note_on_c, 2, 53, 80
2, 79920, Note_on_c, 2, 62, 80
2, 80147, Note_on_c, 2, 53, 0
2, 80147, Note_on_c, 2, 62, 0
2, 80160, Note_on_c, 2, 53, 80
2, 80160, Note_on_c, 2, 62, 80
2, 80387, Note_on_c, 2, 53, 0
2, 80387, Note_on_c, 2, 62, 0
2, 80400, Note_on_c, 2, 53, 80
2, 80400, Note_on_c, 2, 62, 80
2, 80627, Note_on_c, 2, 53, 0
2, 80627, Note_on_c, 2, 62, 0
2, 80640, Note_on_c, 2, 55, 80
2, 80640, Note_on_c, 2, 60, 80
2, 80867, Note_on_c, 2, 55, 0
2, 80867, Note_on_c, 2, 60, 0
2, 80880, Note_on_c, 2, 55, 80
2, 80880, Note_on_c, 2, 60, 80
2, 81107, Note_on_c, 2, 55, 0
2, 81107, Note_on_c, 2, 60, 0
2, 81120, Note_on_c, 2, 55, 80
2, 81120, Note_on_c, 2, 60, 80
2, 81347, Note_on_c, 2, 55, 0
2, 81347, Note_on_c, 2, 60, 0
2, 81360, Note_on_c, 2, 55, 80
2, 81360, Note_on_c, 2, 60, 80
2, 81587, Note_on_c, 2, 55, 0
2, 81587, Note_on_c, 2, 60, 0
2, 81600, Note_on_c, 2, 55, 80
2, 81600, Note_on_c, 2, 60, 80
2, 81827, Note_on_c, 2, 55, 0
2, 81827, Note_on_c, 2, 60, 0
2, 81840, Note_on_c, 2, 55, 80
2, 81840, Note_on_c, 2, 60, 80
2, 82067, Note_on_c, 2, 55, 0
2, 82067, Note_on_c, 2, 60, 0
2, 82080, Note_on_c, 2, 55, 80
2, 82080, Note_on_c, 2, 60, 80
2, 82307, Note_on_c, 2, 55, 0
2, 82307, Note_on_c, 2, 60, 0
2, 82320, Note_on_c, 2, 55, 80
2, 82320, Note_on_c, 2, 60, 80
2, 82547, Note_on_c, 2, 55, 0
2, 82547, Note_on_c, 2, 60, 0
2, 82560, Note_on_c, 2, 55, 80
2, 82560, Note_on_c, 2, 60, 80
2, 82787, Note_on_c, 2, 55, 0
2, 82787, Note_on_c, 2, 60, 0
2, 82800, Note_on_c, 2, 55, 80
2, 82800, Note_on_c, 2, 60, 80
2, 83027, Note_on_c, 2, 55, 0
2, 83027, Note_on_c, 2, 60, 0
2, 83040, Note_on_c, 2, 55, 80
2, 83040, Note_on_c, 2, 60, 80
2, 83267, Note_on_c, 2, 55, 0
2, 83267, Note_on_c, 2, 60, 0
2, 83280, Note_on_c, 2, 55, 80
2, 83280, Note_on_c, 2, 60, 80
2, 83507, Note_on_c, 2, 55, 0
2, 83507, Note_on_c, 2, 60, 0
2, 83520, Note_on_c, 2, 55, 80
2, 83520, Note_on_c, 2, 60, 80
2, 83747, Note_on_c, 2, 55, 0
2, 83747, Note_on_c, 2, 60, 0
2, 83760, Note_on_c, 2, 55, 80
2, 83760, Note_on_c, 2, 60, 80
2, 83987, Note_on_c, 2, 55, 0
2, 83987, Note_on_c, 2, 60, 0
2, 84000, Note_on_c, 2, 55, 80
2, 84000, Note_on_c, 2, 60, 80
2, 84227, Note_on_c, 2, 55, 0
2, 84227, Note_on_c, 2, 60, 0
2, 84240, Note_on_c, 2, 55, 80
2, 84240, Note_on_c, 2, 60, 80
2, 84467, Note_on_c, 2, 55, 0
2, 84467, Note_on_c, 2, 60, 0
2, 84480, Note_on_c, 2, 55, 80
2, 84480, Note_on_c, 2, 59, 80
2, 84707, Note_on_c, 2, 55, 0
2, 84707, Note_on_c, 2, 59, 0
2, 84720, Note_on_c, 2, 55, 80
2, 84720, Note_on_c, 2, 59, 80
2, 84947, Note_on_c, 2, 55, 0
2, 84947, Note_on_c, 2, 59, 0
2, 84960, Note_on_c, 2, 55, 80
2, 84960, Note_on_c, 2, 59, 80
2, 85187, Note_on_c, 2, 55, 0
2, 85187, Note_on_c, 2, 59, 0
2, 85200, Note_on_c, 2, 55, 80
2, 85200, Note_on_c, 2, 59, 80
2, 85427, Note_on_c, 2, 55, 0
2, 85427, Note_on_c, 2, 59, 0
2, 85440, Note_on_c, 2, 55, 80
2, 85440, Note_on_c, 2, 59, 80
2, 85667, Note_on_c, 2, 55, 0
2, 85667, Note_on_c, 2, 59, 0
2, 85680, Note_on_c, 2, 55, 80
2, 85680, Note_on_c, 2, 59, 80
2, 85907, Note_on_c, 2, 55, 0
2, 85907, Note_on_c, 2, 59, 0
2, 85920, Note_on_c, 2, 55, 80
2, 85920, Note_on_c, 2, 59, 80
2, 86147, Note_on_c, 2, 55, 0
2, 86147, Note_on_c, 2, 59, 0
2, 86160, Note_on_c, 2, 55, 80
2, 86160, Note_on_c, 2, 59, 80
2, 86387, Note_on_c, 2, 55, 0
2, 86387, Note_on_c, 2, 59, 0
2, 86400, Note_on_c, 2, 55, 80
2, 86400, Note_on_c, 2, 59, 80
2, 86627, Note_on_c, 2, 55, 0
2, 86627, Note_on_c, 2, 59, 0
2, 86640, Note_on_c, 2, 55, 80
2, 86640, Note_on_c, 2, 59, 80
2, 86867, Note_on_c, 2, 55, 0
2, 86867, Note_on_c, 2, 59, 0
2, 86880, Note_on_c, 2, 55, 80
2, 86880, Note_on_c, 2, 59, 80
2, 87107, Note_on_c, 2, 55, 0
2, 87107, Note_on_c, 2, 59, 0
2, 87120, Note_on_c, 2, 55, 80
2, 87120, Note_on_c, 2, 59, 80
2, 87347, Note_on_c, 2, 55, 0
2, 87347, Note_on_c, 2, 59, 0
2, 87360, Note_on_c, 2, 55, 80
2, 87360, Note_on_c, 2, 59, 80
2, 87587, Note_on_c, 2, 55, 0
2, 87587, Note_on_c, 2, 59, 0
2, 87600, Note_on_c, 2, 55, 80
2, 87600, Note_on_c, 2, 59, 80
2, 87827, Note_on_c, 2, 55, 0
2, 87827, Note_on_c, 2, 59, 0
2, 87840, Note_on_c, 2, 55, 80
2, 87840, Note_on_c, 2, 59, 80
2, 88067, Note_on_c, 2, 55, 0
2, 88067, Note_on_c, 2, 59, 0
2, 88080, Note_on_c, 2, 55, 80
2, 88080, Note_on_c, 2, 59, 80
2, 88307, Note_on_c, 2, 55, 0
2, 88307, Note_on_c, 2, 59, 0
2, 88320, Note_on_c, 2, 57, 80
2, 88320, Note_on_c, 2, 60, 80
2, 88547, Note_on_c, 2, 57, 0
2, 88547, Note_on_c, 2, 60, 0
2, 88560, Note_on_c, 2, 57, 80
2, 88560, Note_on_c, 2, 60, 80
2, 88787, Note_on_c, 2, 57, 0
2, 88787, Note_on_c, 2, 60, 0
2, 88800, Note_on_c, 2, 57, 80
2, 88800, Note_on_c, 2, 60, 80
2, 89027, Note_on_c, 2, 57, 0
2, 89027, Note_on_c, 2, 60, 0
2, 89040, Note_on_c, 2, 57, 80
2, 89040, Note_on_c, 2, 60, 80
2, 89267, Note_on_c, 2, 57, 0
2, 89267, Note_on_c, 2, 60, 0
2, 89280, Note_on_c, 2, 57, 80
2, 89280, Note_on_c, 2, 60, 80
2, 89507, Note_on_c, 2, 57, 0
2, 89507, Note_on_c, 2, 60, 0
2, 89520, Note_on_c, 2, 57, 80
2, 89520, Note_on_c, 2, 60, 80
2, 89747, Note_on_c, 2, 57, 0
2, 89747, Note_on_c, 2, 60, 0
2, 89760, Note_on_c, 2, 57, 80
2, 89760, Note_on_c, 2, 60, 80
2, 89987, Note_on_c, 2, 57, 0
2, 89987, Note_on_c, 2, 60, 0
2, 90000, Note_on_c, 2, 57, 80
2, 90000, Note_on_c, 2, 60, 80
2, 90227, Note_on_c, 2, 57, 0
2, 90227, Note_on_c, 2, 60, 0
2, 90240, Note_on_c, 2, 57, 80
2, 90240, Note_on_c, 2, 60, 80
2, 90467, Note_on_c, 2, 57, 0
2, 90467, Note_on_c, 2, 60, 0
2, 90480, Note_on_c, 2, 57, 80
2, 90480, Note_on_c, 2, 60, 80
2, 90707, Note_on_c, 2, 57, 0
2, 90707, Note_on_c, 2, 60, 0
2, 90720, Note_on_c, 2, 57, 80
2, 90720, Note_on_c, 2, 60, 80
2, 90947, Note_on_c, 2, 57, 0
2, 90947, Note_on_c, 2, 60, 0
2, 90960, Note_on_c, 2, 57, 80
2, 90960, Note_on_c, 2, 60, 80
2, 91187, Note_on_c, 2, 57, 0
2, 91187, Note_on_c, 2, 60, 0
2, 91200, Note_on_c, 2, 57, 80
2, 91200, Note_on_c, 2, 60, 80
2, 91427, Note_on_c, 2, 57, 0
2, 91427, Note_on_c, 2, 60, 0
2, 91440, Note_on_c, 2, 57, 80
2, 91440, Note_on_c, 2, 60, 80
2, 91667, Note_on_c, 2, 57, 0
2, 91667, Note_on_c, 2, 60, 0
2, 91680, Note_on_c, 2, 57, 80
2, 91680, Note_on_c, 2, 60, 80
2, 91907, Note_on_c, 2, 57, 0
2, 91907, Note_on_c, 2, 60, 0
2, 91920, Note_on_c, 2, 57, 80
2, 91920, Note_on_c, 2, 60, 80
2, 92147, Note_on_c, 2, 57, 0
2, 92147, Note_on_c, 2, 60, 0
2, 92160, Note_on_c, 2, 55, 80
2, 92160, Note_on_c, 2, 60, 80
2, 92387, Note_on_c, 2, 55, 0
2, 92387, Note_on_c, 2, 60, 0
2, 92400, Note_on_c, 2, 55, 80
2, 92400, Note_on_c, 2, 60, 80
2, 92627, Note_on_c, 2, 55, 0
2, 92627, Note_on_c, 2, 60, 0
2, 92640, Note_on_c, 2, 55, 80
2, 92640, Note_on_c, 2, 60, 80
2, 92867, Note_on_c, 2, 55, 0
2, 92867, Note_on_c, 2, 60, 0
2, 92880, Note_on_c, 2, 55, 80
2, 92880, Note_on_c, 2, 60, 80
2, 93107, Note_on_c, 2, 55, 0
2, 93107, Note_on_c, 2, 60, 0
2, 93120, Note_on_c, 2, 55, 80
2, 93120, Note_on_c, 2, 60, 80
2, 93347, Note_on_c, 2, 55, 0
2, 93347, Note_on_c, 2, 60, 0
2, 93360, Note_on_c, 2, 55, 80
2, 93360, Note_on_c, 2, 60, 80
2, 93587, Note_on_c, 2, 55, 0
2, 93587, Note_on_c, 2, 60, 0
2, 93600, Note_on_c, 2, 55, 80
2, 93600, Note_on_c, 2, 60, 80
2, 93827, Note_on_c, 2, 55, 0
2, 93827, Note_on_c, 2, 60, 0
2, 93840, Note_on_c, 2, 55, 80
2, 93840, Note_on_c, 2, 60, 80
2, 94067, Note_on_c, 2, 55, 0
2, 94067, Note_on_c, 2, 60, 0
2, 94080, Note_on_c, 2, 55, 80
2, 94080, Note_on_c, 2, 60, 80
2, 94307, Note_on_c, 2, 55, 0
2, 94307, Note_on_c, 2, 60, 0
2, 94320, Note_on_c, 2, 55, 80
2, 94320, Note_on_c, 2, 60, 80
2, 94547, Note_on_c, 2, 55, 0
2, 94547, Note_on_c, 2, 60, 0
2, 94560, Note_on_c, 2, 55, 80
2, 94560, Note_on_c, 2, 60, 80
2, 94787, Note_on_c, 2, 55, 0
2, 94787, Note_on_c, 2, 60, 0
2, 94800, Note_on_c, 2, 55, 80
2, 94800, Note_on_c, 2, 60, 80
2, 95027, Note_on_c, 2, 55, 0
2, 95027, Note_on_c, 2, 60, 0
2, 95040, Note_on_c, 2, 55, 80
2, 95040, Note_on_c, 2, 60, 80
2, 95267, Note_on_c, 2, 55, 0
2, 95267, Note_on_c, 2, 60, 0
2, 95280, Note_on_c, 2, 55, 80
2, 95280, Note_on_c, 2, 60, 80
2, 95507, Note_on_c, 2, 55, 0
2, 95507, Note_on_c, 2, 60, 0
2, 95520, Note_on_c, 2, 55, 80
2, 95520, Note_on_c, 2, 60, 80
2, 95747, Note_on_c, 2, 55, 0
2, 95747, Note_on_c, 2, 60, 0
2, 95760, Note_on_c, 2, 55, 80
2, 95760, Note_on_c, 2, 60, 80
2, 95987, Note_on_c, 2, 55, 0
2, 95987, Note_on_c, 2, 60, 0
2, 96000, Note_on_c, 2, 60, 80
2, 96227, Note_on_c, 2, 60, 0
2, 96240, Note_on_c, 2, 55, 80
2, 96467, Note_on_c, 2, 55, 0
2, 96480, Note_on_c, 2, 67, 80
2, 96480, Note_on_c, 2, 60, 80
2, 96719, Note_on_c, 2, 60, 0
2, 96720, Note_on_c, 2, 55, 80
2, 96935, Note_on_c, 2, 67, 0
2, 96947, Note_on_c, 2, 55, 0
2, 96960, Note_on_c, 2, 67, 80
2, 96960, Note_on_c, 2, 60, 80
2, 97199, Note_on_c, 2, 60, 0
2, 97200, Note_on_c, 2, 55, 80
2, 97415, Note_on_c, 2, 67, 0
2, 97427, Note_on_c, 2, 55, 0
2, 97440, Note_on_c, 2, 67, 80
2, 97440, Note_on_c, 2, 60, 80
2, 97679, Note_on_c, 2, 60, 0
2, 97680, Note_on_c, 2, 55, 80
2, 97895, Note_on_c, 2, 67, 0
2, 97907, Note_on_c, 2, 55, 0
2, 97920, Note_on_c, 2, 60, 80
2, 97920, Note_on_c, 2, 67, 80
2, 98147, Note_on_c, 2, 60, 0
2, 98147, Note_on_c, 2, 67, 0
2, 98160, Note_on_c, 2, 55, 80
2, 98387, Note_on_c, 2, 55, 0
2, 98400, Note_on_c, 2, 67, 80
2, 98400, Note_on_c, 2, 60, 80
2, 98639, Note_on_c, 2, 60, 0
2, 98640, Note_on_c, 2, 55, 80
2, 98855, Note_on_c, 2, 67, 0
2, 98867, Note_on_c, 2, 55, 0
2, 98880, Note_on_c, 2, 67, 80
2, 98880, Note_on_c, 2, 60, 80
2, 99119, Note_on_c, 2, 60, 0
2, 99120, Note_on_c, 2, 55, 80
2, 99335, Note_on_c, 2, 67, 0
2, 99347, Note_on_c, 2, 55, 0
2, 99360, Note_on_c, 2, 67, 80
2, 99360, Note_on_c, 2, 60, 80
2, 99599, Note_on_c, 2, 60, 0
2, 99600, Note_on_c, 2, 55, 80
2, 99815, Note_on_c, 2, 67, 0
2, 99827, Note_on_c, 2, 55, 0
2, 99840, Note_on_c, 2, 67, 80
2, 99840, Note_on_c, 2, 59, 80
2, 100067, Note_on_c, 2, 59, 0
2, 100080, Note_on_c, 2, 55, 80
2, 100295, Note_on_c, 2, 67, 0
2, 100307, Note_on_c, 2, 55, 0
2, 100320, Note_on_c, 2, 67, 80
2, 100320, Note_on_c, 2, 59, 80
2, 100547, Note_on_c, 2, 59, 0
2, 100560, Note_on_c, 2, 55, 80
2, 100775, Note_on_c, 2, 67, 0
2, 100787, Note_on_c, 2, 55, 0
2, 100800, Note_on_c, 2, 67, 80
2, 100800, Note_on_c, 2, 59, 80
2, 101027, Note_on_c, 2, 59, 0
2, 101040, Note_on_c, 2, 55, 80
2, 101255, Note_on_c, 2, 67, 0
2, 101267, Note_on_c, 2, 55, 0
2, 101280, Note_on_c, 2, 67, 80
2, 101280, Note_on_c, 2, 59, 80
2, 101507, Note_on_c, 2, 59, 0
2, 101520, Note_on_c, 2, 55, 80
2, 101735, Note_on_c, 2, 67, 0
2, 101747, Note_on_c, 2, 55, 0
2, 101760, Note_on_c, 2, 67, 80
2, 101760, Note_on_c, 2, 59, 80
2, 101987, Note_on_c, 2, 59, 0
2, 102000, Note_on_c, 2, 55, 80
2, 102215, Note_on_c, 2, 67, 0
2, 102227, Note_on_c, 2, 55, 0
2, 102240, Note_on_c, 2, 69, 80
2, 102240, Note_on_c, 2, 59, 80
2, 102467, Note_on_c, 2, 59, 0
2, 102480, Note_on_c, 2, 55, 80
2, 102695, Note_on_c, 2, 69, 0
2, 102707, Note_on_c, 2, 55, 0
2, 102720, Note_on_c, 2, 71, 80
2, 102960, Note_on_c, 2, 55, 80
2, 103175, Note_on_c, 2, 71, 0
2, 103187, Note_on_c, 2, 55, 0
2, 103200, Note_on_c, 2, 67, 80
2, 103200, Note_on_c, 2, 59, 80
2, 103427, Note_on_c, 2, 59, 0
2, 103440, Note_on_c, 2, 55, 80
2, 103655, Note_on_c, 2, 67, 0
2, 103667, Note_on_c, 2, 55, 0
2, 103680, Note_on_c, 2, 60, 80
2, 103680, Note_on_c, 2, 72, 80
2, 105503, Note_on_c, 2, 60, 0
2, 105503, Note_on_c, 2, 72, 0
2, 105600, Note_on_c, 2, 60, 80
2, 105600, Note_on_c, 2, 67, 80
2, 107423, Note_on_c, 2, 60, 0
2, 107423, Note_on_c, 2, 67, 0
2, 109440, Note_on_c, 2, 52, 80
2, 109440, Note_on_c, 2, 55, 80
2, 109440, Note_on_c, 2, 60, 80
2, 109895, Note_on_c, 2, 52, 0
2, 109895, Note_on_c, 2, 55, 0
2, 109895, Note_on_c, 2, 60, 0
2, 109920, Note_on_c, 2, 52, 80
2, 109920, Note_on_c, 2, 55, 80
2, 109920, Note_on_c, 2, 60, 80
2, 110375, Note_on_c, 2, 52, 0
2, 110375, Note_on_c, 2, 55, 0
2, 110375, Note_on_c, 2, 60, 0
2, 110400, Note_on_c, 2, 52, 80
2, 110400, Note_on_c, 2, 55, 80
2, 110400, Note_on_c, 2, 60, 80
2, 110855, Note_on_c, 2, 52, 0
2, 110855, Note_on_c, 2, 55, 0
2, 110855, Note_on_c, 2, 60, 0
2, 111600, Note_on_c, 2, 57, 80
2, 111719, Note_on_c, 2, 57, 0
2, 111840, Note_on_c, 2, 57, 80
2, 111899, Note_on_c, 2, 57, 0
2, 111960, Note_on_c, 2, 57, 80
2, 112079, Note_on_c, 2, 57, 0
2, 112200, Note_on_c, 2, 57, 80
2, 112313, Note_on_c, 2, 57, 0
2, 112560, Note_on_c, 2, 59, 80
2, 112679, Note_on_c, 2, 59, 0
2, 112800, Note_on_c, 2, 60, 80
2, 113255, Note_on_c, 2, 60, 0
2, 113520, Note_on_c, 2, 60, 80
2, 113639, Note_on_c, 2, 60, 0
2, 113760, Note_on_c, 2, 60, 80
2, 113819, Note_on_c, 2, 60, 0
2, 113880, Note_on_c, 2, 60, 80
2, 113999, Note_on_c, 2, 60, 0
2, 114120, Note_on_c, 2, 60, 80
2, 114233, Note_on_c, 2, 60, 0
2, 114240, Note_on_c, 2, 60, 80
2, 114359, Note_on_c, 2, 60, 0
2, 114480, Note_on_c, 2, 62, 80
2, 114599, Note_on_c, 2, 62, 0
2, 114720, Note_on_c, 2, 64, 80
2, 115175, Note_on_c, 2, 64, 0
2, 115440, Note_on_c, 2, 64, 80
2, 115559, Note_on_c, 2, 64, 0
2, 115680, Note_on_c, 2, 64, 80
2, 115799, Note_on_c, 2, 64, 0
2, 115920, Note_on_c, 2, 64, 80
2, 116039, Note_on_c, 2, 64, 0
2, 116160, Note_on_c, 2, 64, 80
2, 116219, Note_on_c, 2, 64, 0
2, 116280, Note_on_c, 2, 62, 80
2, 116399, Note_on_c, 2, 62, 0
2, 116520, Note_on_c, 2, 62, 80
2, 116633, Note_on_c, 2, 62, 0
2, 116880, Note_on_c, 2, 62, 80
2, 116999, Note_on_c, 2, 62, 0
2, 117120, Note_on_c, 2, 62, 80
2, 117239, Note_on_c, 2, 62, 0
2, 117360, Note_on_c, 2, 62, 80
2, 117479, Note_on_c, 2, 62, 0
2, 117600, Note_on_c, 2, 62, 80
2, 117719, Note_on_c, 2, 62, 0
2, 117840, Note_on_c, 2, 60, 80
2, 117959, Note_on_c, 2, 60, 0
2, 118080, Note_on_c, 2, 62, 80
2, 118199, Note_on_c, 2, 62, 0
2, 118320, Note_on_c, 2, 60, 80
2, 118439, Note_on_c, 2, 60, 0
2, 118560, Note_on_c, 2, 60, 80
2, 119015, Note_on_c, 2, 60, 0
2, 119040, Note_on_c, 2, 60, 80
2, 119267, Note_on_c, 2, 60, 0
2, 119280, Note_on_c, 2, 62, 80
2, 119507, Note_on_c, 2, 62, 0
2, 119520, Note_on_c, 2, 64, 80
2, 119747, Note_on_c, 2, 64, 0
2, 119760, Note_on_c, 2, 67, 80
2, 119987, Note_on_c, 2, 67, 0
2, 120000, Note_on_c, 2, 69, 80
2, 120227, Note_on_c, 2, 69, 0
2, 120240, Note_on_c, 2, 64, 80
2, 120467, Note_on_c, 2, 64, 0
2, 120480, Note_on_c, 2, 62, 80
2, 120707, Note_on_c, 2, 62, 0
2, 120720, Note_on_c, 2, 60, 80
2, 120947, Note_on_c, 2, 60, 0
2, 120960, Note_on_c, 2, 60, 80
2, 121199, Note_on_c, 2, 60, 0
2, 121440, Note_on_c, 2, 64, 80
2, 121667, Note_on_c, 2, 64, 0
2, 121680, Note_on_c, 2, 67, 80
2, 121907, Note_on_c, 2, 67, 0
2, 121920, Note_on_c, 2, 67, 80
2, 122147, Note_on_c, 2, 67, 0
2, 122160, Note_on_c, 2, 64, 80
2, 122387, Note_on_c, 2, 64, 0
2, 122400, Note_on_c, 2, 62, 80
2, 122627, Note_on_c, 2, 62, 0
2, 122640, Note_on_c, 2, 60, 80
2, 122867, Note_on_c, 2, 60, 0
2, 122880, Note_on_c, 2, 60, 80
2, 123107, Note_on_c, 2, 60, 0
2, 123120, Note_on_c, 2, 62, 80
2, 123347, Note_on_c, 2, 62, 0
2, 123360, Note_on_c, 2, 64, 80
2, 123479, Note_on_c, 2, 64, 0
2, 123600, Note_on_c, 2, 67, 80
2, 123827, Note_on_c, 2, 67, 0
2, 123840, Note_on_c, 2, 67, 80
2, 124067, Note_on_c, 2, 67, 0
2, 124080, Note_on_c, 2, 64, 80
2, 124307, Note_on_c, 2, 64, 0
2, 124440, Note_on_c, 2, 62, 80
2, 124560, Note_on_c, 2, 60, 80
2, 124619, Note_on_c, 2, 62, 0
2, 124787, Note_on_c, 2, 60, 0
2, 125040, Note_on_c, 2, 59, 80
2, 125267, Note_on_c, 2, 59, 0
2, 125280, Note_on_c, 2, 62, 80
2, 125507, Note_on_c, 2, 62, 0
2, 125520, Note_on_c, 2, 67, 80
2, 125747, Note_on_c, 2, 67, 0
2, 126000, Note_on_c, 2, 67, 80
2, 126227, Note_on_c, 2, 67, 0
2, 126240, Note_on_c, 2, 62, 80
2, 126467, Note_on_c, 2, 62, 0
2, 126480, Note_on_c, 2, 59, 80
2, 126707, Note_on_c, 2, 59, 0
2, 126720, Note_on_c, 2, 60, 80
2, 126947, Note_on_c, 2, 60, 0
2, 126960, Note_on_c, 2, 62, 80
2, 127187, Note_on_c, 2, 62, 0
2, 127200, Note_on_c, 2, 64, 80
2, 127427, Note_on_c, 2, 64, 0
2, 127440, Note_on_c, 2, 67, 80
2, 127667, Note_on_c, 2, 67, 0
2, 127680, Note_on_c, 2, 69, 80
2, 127907, Note_on_c, 2, 69, 0
2, 127920, Note_on_c, 2, 64, 80
2, 128147, Note_on_c, 2, 64, 0
2, 128160, Note_on_c, 2, 62, 80
2, 128387, Note_on_c, 2, 62, 0
2, 128400, Note_on_c, 2, 60, 80
2, 128627, Note_on_c, 2, 60, 0
2, 128640, Note_on_c, 2, 60, 80
2, 128867, Note_on_c, 2, 60, 0
2, 128880, Note_on_c, 2, 62, 80
2, 129107, Note_on_c, 2, 62, 0
2, 129120, Note_on_c, 2, 64, 80
2, 129347, Note_on_c, 2, 64, 0
2, 129360, Note_on_c, 2, 67, 80
2, 129587, Note_on_c, 2, 67, 0
2, 129600, Note_on_c, 2, 67, 80
2, 129827, Note_on_c, 2, 67, 0
2, 129840, Note_on_c, 2, 64, 80
2, 130067, Note_on_c, 2, 64, 0
2, 130080, Note_on_c, 2, 62, 80
2, 130307, Note_on_c, 2, 62, 0
2, 130320, Note_on_c, 2, 60, 80
2, 130547, Note_on_c, 2, 60, 0
2, 130560, Note_on_c, 2, 55, 80
2, 130787, Note_on_c, 2, 55, 0
2, 130800, Note_on_c, 2, 60, 80
2, 131027, Note_on_c, 2, 60, 0
2, 131040, Note_on_c, 2, 64, 80
2, 131267, Note_on_c, 2, 64, 0
2, 131280, Note_on_c, 2, 67, 80
2, 131507, Note_on_c, 2, 67, 0
2, 131520, Note_on_c, 2, 67, 80
2, 131747, Note_on_c, 2, 67, 0
2, 131760, Note_on_c, 2, 64, 80
2, 131987, Note_on_c, 2, 64, 0
2, 132000, Note_on_c, 2, 60, 80
2, 132227, Note_on_c, 2, 60, 0
2, 132240, Note_on_c, 2, 55, 80
2, 132467, Note_on_c, 2, 55, 0
2, 132720, Note_on_c, 2, 59, 80
2, 132947, Note_on_c, 2, 59, 0
2, 132960, Note_on_c, 2, 64, 80
2, 133187, Note_on_c, 2, 64, 0
2, 133200, Note_on_c, 2, 67, 80
2, 133427, Note_on_c, 2, 67, 0
2, 133440, Note_on_c, 2, 71, 80
2, 133667, Note_on_c, 2, 71, 0
2, 133680, Note_on_c, 2, 67, 80
2, 133907, Note_on_c, 2, 67, 0
2, 133920, Note_on_c, 2, 62, 80
2, 134147, Note_on_c, 2, 62, 0
2, 134160, Note_on_c, 2, 59, 80
2, 134387, Note_on_c, 2, 59, 0
2, 134880, Note_on_c, 2, 64, 80
2, 135335, Note_on_c, 2, 64, 0
2, 135360, Note_on_c, 2, 64, 80
2, 135815, Note_on_c, 2, 64, 0
2, 135840, Note_on_c, 2, 64, 80
2, 136637, Note_on_c, 2, 64, 0
2, 136680, Note_on_c, 2, 62, 80
2, 136793, Note_on_c, 2, 62, 0
2, 136800, Note_on_c, 2, 64, 80
2, 137027, Note_on_c, 2, 64, 0
2, 137040, Note_on_c, 2, 62, 80
2, 137723, Note_on_c, 2, 62, 0
2, 137760, Note_on_c, 2, 60, 80
2, 137987, Note_on_c, 2, 60, 0
2, 138000, Note_on_c, 2, 57, 80
2, 138227, Note_on_c, 2, 57, 0
2, 138720, Note_on_c, 2, 64, 80
2, 139175, Note_on_c, 2, 64, 0
2, 139200, Note_on_c, 2, 64, 80
2, 139655, Note_on_c, 2, 64, 0
2, 139680, Note_on_c, 2, 64, 80
2, 140135, Note_on_c, 2, 64, 0
2, 140640, Note_on_c, 2, 64, 80
2, 141095, Note_on_c, 2, 64, 0
2, 141120, Note_on_c, 2, 62, 80
2, 141359, Note_on_c, 2, 62, 0
2, 141600, Note_on_c, 2, 60, 80
2, 142055, Note_on_c, 2, 60, 0
2, 142560, Note_on_c, 2, 64, 80
2, 143015, Note_on_c, 2, 64, 0
2, 143040, Note_on_c, 2, 64, 80
2, 143495, Note_on_c, 2, 64, 0
2, 143520, Note_on_c, 2, 64, 80
2, 143975, Note_on_c, 2, 64, 0
2, 144480, Note_on_c, 2, 64, 80
2, 144707, Note_on_c, 2, 64, 0
2, 144720, Note_on_c, 2, 62, 80
2, 145403, Note_on_c, 2, 62, 0
2, 145440, Note_on_c, 2, 60, 80
2, 145895, Note_on_c, 2, 60, 0
2, 146400, Note_on_c, 2, 64, 80
2, 146855, Note_on_c, 2, 64, 0
2, 146880, Note_on_c, 2, 64, 80
2, 147335, Note_on_c, 2, 64, 0
2, 147360, Note_on_c, 2, 64, 80
2, 147587, Note_on_c, 2, 64, 0
2, 147600, Note_on_c, 2, 65, 80
2, 147827, Note_on_c, 2, 65, 0
2, 148320, Note_on_c, 2, 64, 80
2, 148775, Note_on_c, 2, 64, 0
2, 148800, Note_on_c, 2, 62, 80
2, 149255, Note_on_c, 2, 62, 0
2, 149280, Note_on_c, 2, 60, 80
2, 149507, Note_on_c, 2, 60, 0
2, 149520, Note_on_c, 2, 57, 80
2, 149747, Note_on_c, 2, 57, 0
2, 149760, Note_on_c, 2, 53, 80
2, 149760, Note_on_c, 2, 60, 80
2, 149987, Note_on_c, 2, 53, 0
2, 149987, Note_on_c, 2, 60, 0
2, 150000, Note_on_c, 2, 53, 80
2, 150000, Note_on_c, 2, 60, 80
2, 150227, Note_on_c, 2, 53, 0
2, 150227, Note_on_c, 2, 60, 0
2, 150240, Note_on_c, 2, 53, 80
2, 150240, Note_on_c, 2, 60, 80
2, 150467, Note_on_c, 2, 53, 0
2, 150467, Note_on_c, 2, 60, 0
2, 150480, Note_on_c, 2, 53, 80
2, 150480, Note_on_c, 2, 60, 80
2, 150707, Note_on_c, 2, 53, 0
2, 150707, Note_on_c, 2, 60, 0
2, 150720, Note_on_c, 2, 53, 80
2, 150720, Note_on_c, 2, 60, 80
2, 150947, Note_on_c, 2, 53, 0
2, 150947, Note_on_c, 2, 60, 0
2, 150960, Note_on_c, 2, 53, 80
2, 150960, Note_on_c, 2, 60, 80
2, 151187, Note_on_c, 2, 53, 0
2, 151187, Note_on_c, 2, 60, 0
2, 151200, Note_on_c, 2, 53, 80
2, 151200, Note_on_c, 2, 60, 80
2, 151427, Note_on_c, 2, 53, 0
2, 151427, Note_on_c, 2, 60, 0
2, 151440, Note_on_c, 2, 53, 80
2, 151440, Note_on_c, 2, 60, 80
2, 151667, Note_on_c, 2, 53, 0
2, 151667, Note_on_c, 2, 60, 0
2, 151680, Note_on_c, 2, 53, 80
2, 151680, Note_on_c, 2, 60, 80
2, 151907, Note_on_c, 2, 53, 0
2, 151907, Note_on_c, 2, 60, 0
2, 151920, Note_on_c, 2, 53, 80
2, 151920, Note_on_c, 2, 60, 80
2, 152147, Note_on_c, 2, 53, 0
2, 152147, Note_on_c, 2, 60, 0
2, 152160, Note_on_c, 2, 53, 80
2, 152160, Note_on_c, 2, 60, 80
2, 152387, Note_on_c, 2, 53, 0
2, 152387, Note_on_c, 2, 60, 0
2, 152400, Note_on_c, 2, 53, 80
2, 152400, Note_on_c, 2, 60, 80
2, 152627, Note_on_c, 2, 53, 0
2, 152627, Note_on_c, 2, 60, 0
2, 152640, Note_on_c, 2, 53, 80
2, 152640, Note_on_c, 2, 60, 80
2, 152867, Note_on_c, 2, 53, 0
2, 152867, Note_on_c, 2, 60, 0
2, 152880, Note_on_c, 2, 53, 80
2, 152880, Note_on_c, 2, 60, 80
2, 153107, Note_on_c, 2, 53, 0
2, 153107, Note_on_c, 2, 60, 0
2, 153120, Note_on_c, 2, 53, 80
2, 153120, Note_on_c, 2, 60, 80
2, 153347, Note_on_c, 2, 53, 0
2, 153347, Note_on_c, 2, 60, 0
2, 153360, Note_on_c, 2, 53, 80
2, 153360, Note_on_c, 2, 60, 80
2, 153587, Note_on_c, 2, 53, 0
2, 153587, Note_on_c, 2, 60, 0
2, 153600, Note_on_c, 2, 55, 80
2, 153600, Note_on_c, 2, 60, 80
2, 153827, Note_on_c, 2, 55, 0
2, 153827, Note_on_c, 2, 60, 0
2, 153840, Note_on_c, 2, 55, 80
2, 153840, Note_on_c, 2, 60, 80
2, 154067, Note_on_c, 2, 55, 0
2, 154067, Note_on_c, 2, 60, 0
2, 154080, Note_on_c, 2, 55, 80
2, 154080, Note_on_c, 2, 60, 80
2, 154307, Note_on_c, 2, 55, 0
2, 154307, Note_on_c, 2, 60, 0
2, 154320, Note_on_c, 2, 55, 80
2, 154320, Note_on_c, 2, 60, 80
2, 154547, Note_on_c, 2, 55, 0
2, 154547, Note_on_c, 2, 60, 0
2, 154560, Note_on_c, 2, 55, 80
2, 154560, Note_on_c, 2, 60, 80
2, 154787, Note_on_c, 2, 55, 0
2, 154787, Note_on_c, 2, 60, 0
2, 154800, Note_on_c, 2, 55, 80
2, 154800, Note_on_c, 2, 60, 80
2, 155027, Note_on_c, 2, 55, 0
2, 155027, Note_on_c, 2, 60, 0
2, 155040, Note_on_c, 2, 55, 80
2, 155040, Note_on_c, 2, 60, 80
2, 155267, Note_on_c, 2, 55, 0
2, 155267, Note_on_c, 2, 60, 0
2, 155280, Note_on_c, 2, 55, 80
2, 155280, Note_on_c, 2, 60, 80
2, 155507, Note_on_c, 2, 55, 0
2, 155507, Note_on_c, 2, 60, 0
2, 155520, Note_on_c, 2, 53, 80
2, 155520, Note_on_c, 2, 60, 80
2, 155747, Note_on_c, 2, 53, 0
2, 155747, Note_on_c, 2, 60, 0
2, 155760, Note_on_c, 2, 53, 80
2, 155760, Note_on_c, 2, 60, 80
2, 155987, Note_on_c, 2, 53, 0
2, 155987, Note_on_c, 2, 60, 0
2, 156000, Note_on_c, 2, 53, 80
2, 156000, Note_on_c, 2, 60, 80
2, 156227, Note_on_c, 2, 53, 0
2, 156227, Note_on_c, 2, 60, 0
2, 156240, Note_on_c, 2, 53, 80
2, 156240, Note_on_c, 2, 60, 80
2, 156467, Note_on_c, 2, 53, 0
2, 156467, Note_on_c, 2, 60, 0
2, 156480, Note_on_c, 2, 53, 80
2, 156480, Note_on_c, 2, 60, 80
2, 156707, Note_on_c, 2, 53, 0
2, 156707, Note_on_c, 2, 60, 0
2, 156720, Note_on_c, 2, 53, 80
2, 156720, Note_on_c, 2, 60, 80
2, 156947, Note_on_c, 2, 53, 0
2, 156947, Note_on_c, 2, 60, 0
2, 156960, Note_on_c, 2, 53, 80
2, 156960, Note_on_c, 2, 60, 80
2, 157187, Note_on_c, 2, 53, 0
2, 157187, Note_on_c, 2, 60, 0
2, 157200, Note_on_c, 2, 53, 80
2, 157200, Note_on_c, 2, 60, 80
2, 157427, Note_on_c, 2, 53, 0
2, 157427, Note_on_c, 2, 60, 0
2, 157440, Note_on_c, 2, 55, 80
2, 157440, Note_on_c, 2, 60, 80
2, 157667, Note_on_c, 2, 55, 0
2, 157667, Note_on_c, 2, 60, 0
2, 157680, Note_on_c, 2, 55, 80
2, 157680, Note_on_c, 2, 60, 80
2, 157907, Note_on_c, 2, 55, 0
2, 157907, Note_on_c, 2, 60, 0
2, 157920, Note_on_c, 2, 55, 80
2, 157920, Note_on_c, 2, 60, 80
2, 158147, Note_on_c, 2, 55, 0
2, 158147, Note_on_c, 2, 60, 0
2, 158160, Note_on_c, 2, 55, 80
2, 158160, Note_on_c, 2, 60, 80
2, 158387, Note_on_c, 2, 55, 0
2, 158387, Note_on_c, 2, 60, 0
2, 158400, Note_on_c, 2, 55, 80
2, 158400, Note_on_c, 2, 60, 80
2, 158627, Note_on_c, 2, 55, 0
2, 158627, Note_on_c, 2, 60, 0
2, 158640, Note_on_c, 2, 55, 80
2, 158640, Note_on_c, 2, 60, 80
2, 158867, Note_on_c, 2, 55, 0
2, 158867, Note_on_c, 2, 60, 0
2, 158880, Note_on_c, 2, 55, 80
2, 158880, Note_on_c, 2, 60, 80
2, 159107, Note_on_c, 2, 55, 0
2, 159107, Note_on_c, 2, 60, 0
2, 159120, Note_on_c, 2, 55, 80
2, 159120, Note_on_c, 2, 60, 80
2, 159347, Note_on_c, 2, 55, 0
2, 159347, Note_on_c, 2, 60, 0
2, 159360, Note_on_c, 2, 55, 80
2, 159360, Note_on_c, 2, 60, 80
2, 159587, Note_on_c, 2, 55, 0
2, 159587, Note_on_c, 2, 60, 0
2, 159600, Note_on_c, 2, 55, 80
2, 159600, Note_on_c, 2, 60, 80
2, 159827, Note_on_c, 2, 55, 0
2, 159827, Note_on_c, 2, 60, 0
2, 159840, Note_on_c, 2, 55, 80
2, 159840, Note_on_c, 2, 60, 80
2, 160067, Note_on_c, 2, 55, 0
2, 160067, Note_on_c, 2, 60, 0
2, 160080, Note_on_c, 2, 55, 80
2, 160080, Note_on_c, 2, 60, 80
2, 160307, Note_on_c, 2, 55, 0
2, 160307, Note_on_c, 2, 60, 0
2, 160320, Note_on_c, 2, 55, 80
2, 160320, Note_on_c, 2, 60, 80
2, 160547, Note_on_c, 2, 55, 0
2, 160547, Note_on_c, 2, 60, 0
2, 160560, Note_on_c, 2, 55, 80
2, 160560, Note_on_c, 2, 60, 80
2, 160787, Note_on_c, 2, 55, 0
2, 160787, Note_on_c, 2, 60, 0
2, 160800, Note_on_c, 2, 55, 80
2, 160800, Note_on_c, 2, 60, 80
2, 161027, Note_on_c, 2, 55, 0
2, 161027, Note_on_c, 2, 60, 0
2, 161040, Note_on_c, 2, 55, 80
2, 161040, Note_on_c, 2, 60, 80
2, 161267, Note_on_c, 2, 55, 0
2, 161267, Note_on_c, 2, 60, 0
2, 161280, Note_on_c, 2, 55, 80
2, 161280, Note_on_c, 2, 59, 80
2, 161507, Note_on_c, 2, 55, 0
2, 161507, Note_on_c, 2, 59, 0
2, 161520, Note_on_c, 2, 55, 80
2, 161520, Note_on_c, 2, 59, 80
2, 161747, Note_on_c, 2, 55, 0
2, 161747, Note_on_c, 2, 59, 0
2, 161760, Note_on_c, 2, 55, 80
2, 161760, Note_on_c, 2, 59, 80
2, 161987, Note_on_c, 2, 55, 0
2, 161987, Note_on_c, 2, 59, 0
2, 162000, Note_on_c, 2, 55, 80
2, 162000, Note_on_c, 2, 59, 80
2, 162227, Note_on_c, 2, 55, 0
2, 162227, Note_on_c, 2, 59, 0
2, 162240, Note_on_c, 2, 55, 80
2, 162240, Note_on_c, 2, 59, 80
2, 162467, Note_on_c, 2, 55, 0
2, 162467, Note_on_c, 2, 59, 0
2, 162480, Note_on_c, 2, 55, 80
2, 162480, Note_on_c, 2, 59, 80
2, 162707, Note_on_c, 2, 55, 0
2, 162707, Note_on_c, 2, 59, 0
2, 162720, Note_on_c, 2, 55, 80
2, 162720, Note_on_c, 2, 59, 80
2, 162947, Note_on_c, 2, 55, 0
2, 162947, Note_on_c, 2, 59, 0
2, 162960, Note_on_c, 2, 55, 80
2, 162960, Note_on_c, 2, 59, 80
2, 163187, Note_on_c, 2, 55, 0
2, 163187, Note_on_c, 2, 59, 0
2, 163200, Note_on_c, 2, 55, 80
2, 163200, Note_on_c, 2, 59, 80
2, 163427, Note_on_c, 2, 55, 0
2, 163427, Note_on_c, 2, 59, 0
2, 163440, Note_on_c, 2, 55, 80
2, 163440, Note_on_c, 2, 59, 80
2, 163667, Note_on_c, 2, 55, 0
2, 163667, Note_on_c, 2, 59, 0
2, 163680, Note_on_c, 2, 55, 80
2, 163680, Note_on_c, 2, 59, 80
2, 163907, Note_on_c, 2, 55, 0
2, 163907, Note_on_c, 2, 59, 0
2, 163920, Note_on_c, 2, 55, 80
2, 163920, Note_on_c, 2, 59, 80
2, 164147, Note_on_c, 2, 55, 0
2, 164147, Note_on_c, 2, 59, 0
2, 164160, Note_on_c, 2, 55, 80
2, 164160, Note_on_c, 2, 59, 80
2, 164387, Note_on_c, 2, 55, 0
2, 164387, Note_on_c, 2, 59, 0
2, 164400, Note_on_c, 2, 55, 80
2, 164400, Note_on_c, 2, 59, 80
2, 164627, Note_on_c, 2, 55, 0
2, 164627, Note_on_c, 2, 59, 0
2, 164640, Note_on_c, 2, 55, 80
2, 164640, Note_on_c, 2, 59, 80
2, 164867, Note_on_c, 2, 55, 0
2, 164867, Note_on_c, 2, 59, 0
2, 164880, Note_on_c, 2, 55, 80
2, 164880, Note_on_c, 2, 59, 80
2, 165107, Note_on_c, 2, 55, 0
2, 165107, Note_on_c, 2, 59, 0
2, 165120, Note_on_c, 2, 60, 80
2, 165120, Note_on_c, 2, 72, 80
2, 166943, Note_on_c, 2, 60, 0
2, 166943, Note_on_c, 2, 72, 0
2, 167040, Note_on_c, 2, 60, 80
2, 167040, Note_on_c, 2, 67, 80
2, 168863, Note_on_c, 2, 60, 0
2, 168863, Note_on_c, 2, 67, 0
2, 168864, End_track
3, 0, Start_track
3, 0, Title_t, "Harp, Harp\000"
3, 0, Key_signature, 0, "major"
3, 0, Control_c, 11, 121, 0
3, 0, Program_c, 11, 46
3, 0, Control_c, 11, 7, 100
3, 0, Control_c, 11, 10, 64
3, 0, Control_c, 11, 91, 0
3, 0, Control_c, 11, 93, 0
3, 0, MIDI_port, 0
3, 0, Control_c, 0, 121, 0
3, 0, Program_c, 0, 45
3, 0, Control_c, 0, 7, 100
3, 0, Control_c, 0, 10, 64
3, 0, Control_c, 0, 91, 0
3, 0, Control_c, 0, 93, 0
3, 0, MIDI_port, 0
3, 0, Control_c, 1, 121, 0
3, 0, Program_c, 1, 11
3, 0, Control_c, 1, 7, 100
3, 0, Control_c, 1, 10, 64
3, 0, Control_c, 1, 91, 0
3, 0, Control_c, 1, 93, 0
3, 0, MIDI_port, 0
3, 23040, Note_on_c, 11, 50, 80
3, 23040, Note_on_c, 11, 57, 80
3, 23279, Note_on_c, 11, 50, 0
3, 23279, Note_on_c, 11, 57, 0
3, 24880, Note_on_c, 11, 55, 80
3, 24919, Note_on_c, 11, 55, 0
3, 24920, Note_on_c, 11, 59, 80
3, 24959, Note_on_c, 11, 59, 0
3, 24960, Note_on_c, 11, 62, 80
3, 25199, Note_on_c, 11, 62, 0
3, 26800, Note_on_c, 11, 48, 80
3, 26839, Note_on_c, 11, 48, 0
3, 26840, Note_on_c, 11, 52, 80
3, 26879, Note_on_c, 11, 52, 0
3, 26880, Note_on_c, 11, 55, 80
3, 28319, Note_on_c, 11, 55, 0
3, 28320, Note_on_c, 11, 48, 80
3, 28320, Note_on_c, 11, 52, 80
3, 28499, Note_on_c, 11, 48, 0
3, 28499, Note_on_c, 11, 52, 0
3, 28720, Note_on_c, 11, 52, 80
3, 28759, Note_on_c, 11, 52, 0
3, 28760, Note_on_c, 11, 55, 80
3, 28799, Note_on_c, 11, 55, 0
3, 28800, Note_on_c, 11, 59, 80
3, 29279, Note_on_c, 11, 59, 0
3, 29280, Note_on_c, 11, 52, 80
3, 29280, Note_on_c, 11, 59, 80
3, 29519, Note_on_c, 11, 52, 0
3, 29519, Note_on_c, 11, 59, 0
3, 29520, Note_on_c, 11, 52, 80
3, 29759, Note_on_c, 11, 52, 0
3, 29760, Note_on_c, 11, 52, 80
3, 29760, Note_on_c, 11, 59, 80
3, 29999, Note_on_c, 11, 52, 0
3, 29999, Note_on_c, 11, 59, 0
3, 30000, Note_on_c, 11, 52, 80
3, 30239, Note_on_c, 11, 52, 0
3, 30240, Note_on_c, 11, 52, 80
3, 30240, Note_on_c, 11, 59, 80
3, 30479, Note_on_c, 11, 52, 0
3, 30479, Note_on_c, 11, 59, 0
3, 30480, Note_on_c, 11, 52, 80
3, 30599, Note_on_c, 11, 52, 0
3, 30640, Note_on_c, 11, 53, 80
3, 30679, Note_on_c, 11, 53, 0
3, 30680, Note_on_c, 11, 57, 80
3, 30719, Note_on_c, 11, 57, 0
3, 30720, Note_on_c, 11, 60, 80
3, 30959, Note_on_c, 11, 60, 0
3, 31680, Note_on_c, 11, 53, 80
3, 31680, Note_on_c, 11, 60, 80
3, 31919, Note_on_c, 11, 53, 0
3, 31919, Note_on_c, 11, 60, 0
3, 31920, Note_on_c, 11, 53, 80
3, 32159, Note_on_c, 11, 53, 0
3, 32160, Note_on_c, 11, 53, 80
3, 32160, Note_on_c, 11, 60, 80
3, 32399, Note_on_c, 11, 53, 0
3, 32399, Note_on_c, 11, 60, 0
3, 32400, Note_on_c, 11, 53, 80
3, 32519, Note_on_c, 11, 53, 0
3, 32640, Note_on_c, 11, 48, 80
3, 32640, Note_on_c, 11, 53, 80
3, 33359, Note_on_c, 11, 48, 0
3, 33359, Note_on_c, 11, 53, 0
3, 33360, Note_on_c, 11, 53, 80
3, 33839, Note_on_c, 11, 53, 0
3, 33840, Note_on_c, 11, 53, 80
3, 34319, Note_on_c, 11, 53, 0
3, 34320, Note_on_c, 11, 53, 80
3, 34559, Note_on_c, 11, 53, 0
3, 34560, Note_on_c, 11, 48, 80
3, 34560, Note_on_c, 11, 55, 80
3, 35039, Note_on_c, 11, 48, 0
3, 35039, Note_on_c, 11, 55, 0
3, 35040, Note_on_c, 11, 48, 80
3, 35040, Note_on_c, 11, 55, 80
3, 35279, Note_on_c, 11, 48, 0
3, 35279, Note_on_c, 11, 55, 0
3, 35280, Note_on_c, 11, 48, 80
3, 35519, Note_on_c, 11, 48, 0
3, 35520, Note_on_c, 11, 48, 80
3, 35520, Note_on_c, 11, 55, 80
3, 35759, Note_on_c, 11, 48, 0
3, 35759, Note_on_c, 11, 55, 0
3, 35760, Note_on_c, 11, 48, 80
3, 35999, Note_on_c, 11, 48, 0
3, 36000, Note_on_c, 11, 48, 80
3, 36000, Note_on_c, 11, 55, 80
3, 36239, Note_on_c, 11, 48, 0
3, 36239, Note_on_c, 11, 55, 0
3, 36240, Note_on_c, 11, 55, 80
3, 36479, Note_on_c, 11, 55, 0
3, 36480, Note_on_c, 11, 52, 80
3, 36480, Note_on_c, 11, 59, 80
3, 36959, Note_on_c, 11, 52, 0
3, 36959, Note_on_c, 11, 59, 0
3, 36960, Note_on_c, 11, 52, 80
3, 36960, Note_on_c, 11, 59, 80
3, 37199, Note_on_c, 11, 52, 0
3, 37199, Note_on_c, 11, 59, 0
3, 37200, Note_on_c, 11, 52, 80
3, 37439, Note_on_c, 11, 52, 0
3, 37440, Note_on_c, 11, 52, 80
3, 37440, Note_on_c, 11, 59, 80
3, 37679, Note_on_c, 11, 52, 0
3, 37679, Note_on_c, 11, 59, 0
3, 37680, Note_on_c, 11, 52, 80
3, 37919, Note_on_c, 11, 52, 0
3, 37920, Note_on_c, 11, 52, 80
3, 37920, Note_on_c, 11, 59, 80
3, 38159, Note_on_c, 11, 52, 0
3, 38159, Note_on_c, 11, 59, 0
3, 38160, Note_on_c, 11, 52, 80
3, 38399, Note_on_c, 11, 52, 0
3, 38400, Note_on_c, 11, 53, 80
3, 40319, Note_on_c, 11, 53, 0
3, 72960, Note_on_c, 11, 50, 80
3, 73439, Note_on_c, 11, 50, 0
3, 73440, Note_on_c, 11, 50, 80
3, 73919, Note_on_c, 11, 50, 0
3, 73920, Note_on_c, 11, 50, 80
3, 74399, Note_on_c, 11, 50, 0
3, 74400, Note_on_c, 11, 50, 80
3, 74879, Note_on_c, 11, 50, 0
3, 74880, Note_on_c, 11, 50, 80
3, 75359, Note_on_c, 11, 50, 0
3, 75360, Note_on_c, 11, 50, 80
3, 75839, Note_on_c, 11, 50, 0
3, 75840, Note_on_c, 11, 50, 80
3, 76319, Note_on_c, 11, 50, 0
3, 76320, Note_on_c, 11, 50, 80
3, 76799, Note_on_c, 11, 50, 0
3, 76800, Note_on_c, 11, 50, 80
3, 77279, Note_on_c, 11, 50, 0
3, 77280, Note_on_c, 11, 50, 80
3, 77759, Note_on_c, 11, 50, 0
3, 77760, Note_on_c, 11, 50, 80
3, 78239, Note_on_c, 11, 50, 0
3, 78240, Note_on_c, 11, 50, 80
3, 78719, Note_on_c, 11, 50, 0
3, 78720, Note_on_c, 11, 50, 80
3, 79199, Note_on_c, 11, 50, 0
3, 79200, Note_on_c, 11, 50, 80
3, 79679, Note_on_c, 11, 50, 0
3, 79680, Note_on_c, 11, 50, 80
3, 80159, Note_on_c, 11, 50, 0
3, 80160, Note_on_c, 11, 50, 80
3, 80639, Note_on_c, 11, 50, 0
3, 80640, Note_on_c, 11, 48, 80
3, 81119, Note_on_c, 11, 48, 0
3, 81120, Note_on_c, 11, 48, 80
3, 81599, Note_on_c, 11, 48, 0
3, 81600, Note_on_c, 11, 48, 80
3, 82079, Note_on_c, 11, 48, 0
3, 82080, Note_on_c, 11, 48, 80
3, 82559, Note_on_c, 11, 48, 0
3, 82560, Note_on_c, 11, 48, 80
3, 83039, Note_on_c, 11, 48, 0
3, 83040, Note_on_c, 11, 48, 80
3, 83519, Note_on_c, 11, 48, 0
3, 83520, Note_on_c, 11, 48, 80
3, 83999, Note_on_c, 11, 48, 0
3, 84000, Note_on_c, 11, 48, 80
3, 84479, Note_on_c, 11, 48, 0
3, 84480, Note_on_c, 11, 52, 80
3, 84959, Note_on_c, 11, 52, 0
3, 84960, Note_on_c, 11, 52, 80
3, 85439, Note_on_c, 11, 52, 0
3, 85440, Note_on_c, 11, 52, 80
3, 85919, Note_on_c, 11, 52, 0
3, 85920, Note_on_c, 11, 52, 80
3, 86399, Note_on_c, 11, 52, 0
3, 86400, Note_on_c, 11, 52, 80
3, 86879, Note_on_c, 11, 52, 0
3, 86880, Note_on_c, 11, 52, 80
3, 87359, Note_on_c, 11, 52, 0
3, 87360, Note_on_c, 11, 52, 80
3, 87839, Note_on_c, 11, 52, 0
3, 87840, Note_on_c, 11, 52, 80
3, 88319, Note_on_c, 11, 52, 0
3, 88320, Note_on_c, 11, 53, 80
3, 88799, Note_on_c, 11, 53, 0
3, 88800, Note_on_c, 11, 53, 80
3, 89279, Note_on_c, 11, 53, 0
3, 89280, Note_on_c, 11, 53, 80
3, 89759, Note_on_c, 11, 53, 0
3, 89760, Note_on_c, 11, 53, 80
3, 90239, Note_on_c, 11, 53, 0
3, 90240, Note_on_c, 11, 53, 80
3, 90719, Note_on_c, 11, 53, 0
3, 90720, Note_on_c, 11, 53, 80
3, 91199, Note_on_c, 11, 53, 0
3, 91200, Note_on_c, 11, 53, 80
3, 91679, Note_on_c, 11, 53, 0
3, 91680, Note_on_c, 11, 53, 80
3, 92159, Note_on_c, 11, 53, 0
3, 92160, Note_on_c, 11, 53, 80
3, 92639, Note_on_c, 11, 53, 0
3, 92640, Note_on_c, 11, 53, 80
3, 93119, Note_on_c, 11, 53, 0
3, 93120, Note_on_c, 11, 53, 80
3, 93599, Note_on_c, 11, 53, 0
3, 93600, Note_on_c, 11, 53, 80
3, 94079, Note_on_c, 11, 53, 0
3, 94080, Note_on_c, 11, 53, 80
3, 94559, Note_on_c, 11, 53, 0
3, 94560, Note_on_c, 11, 53, 80
3, 95039, Note_on_c, 11, 53, 0
3, 95040, Note_on_c, 11, 53, 80
3, 95519, Note_on_c, 11, 53, 0
3, 95520, Note_on_c, 11, 53, 80
3, 95999, Note_on_c, 11, 53, 0
3, 96000, Note_on_c, 11, 48, 80
3, 96000, Note_on_c, 11, 55, 80
3, 96479, Note_on_c, 11, 48, 0
3, 96479, Note_on_c, 11, 55, 0
3, 96480, Note_on_c, 11, 48, 80
3, 96480, Note_on_c, 11, 55, 80
3, 96959, Note_on_c, 11, 48, 0
3, 96959, Note_on_c, 11, 55, 0
3, 96960, Note_on_c, 11, 48, 80
3, 96960, Note_on_c, 11, 55, 80
3, 97439, Note_on_c, 11, 48, 0
3, 97439, Note_on_c, 11, 55, 0
3, 97440, Note_on_c, 11, 48, 80
3, 97440, Note_on_c, 11, 55, 80
3, 97919, Note_on_c, 11, 48, 0
3, 97919, Note_on_c, 11, 55, 0
3, 97920, Note_on_c, 11, 48, 80
3, 97920, Note_on_c, 11, 55, 80
3, 98399, Note_on_c, 11, 48, 0
3, 98399, Note_on_c, 11, 55, 0
3, 98400, Note_on_c, 11, 48, 80
3, 98400, Note_on_c, 11, 55, 80
3, 98879, Note_on_c, 11, 48, 0
3, 98879, Note_on_c, 11, 55, 0
3, 98880, Note_on_c, 11, 48, 80
3, 98880, Note_on_c, 11, 55, 80
3, 99359, Note_on_c, 11, 48, 0
3, 99359, Note_on_c, 11, 55, 0
3, 99360, Note_on_c, 11, 48, 80
3, 99360, Note_on_c, 11, 55, 80
3, 99839, Note_on_c, 11, 48, 0
3, 99839, Note_on_c, 11, 55, 0
3, 99840, Note_on_c, 11, 52, 80
3, 99840, Note_on_c, 11, 55, 80
3, 100319, Note_on_c, 11, 52, 0
3, 100319, Note_on_c, 11, 55, 0
3, 100320, Note_on_c, 11, 52, 80
3, 100320, Note_on_c, 11, 55, 80
3, 100799, Note_on_c, 11, 52, 0
3, 100799, Note_on_c, 11, 55, 0
3, 100800, Note_on_c, 11, 52, 80
3, 100800, Note_on_c, 11, 55, 80
3, 101279, Note_on_c, 11, 52, 0
3, 101279, Note_on_c, 11, 55, 0
3, 101280, Note_on_c, 11, 52, 80
3, 101280, Note_on_c, 11, 55, 80
3, 101759, Note_on_c, 11, 52, 0
3, 101759, Note_on_c, 11, 55, 0
3, 101760, Note_on_c, 11, 52, 80
3, 101760, Note_on_c, 11, 55, 80
3, 102239, Note_on_c, 11, 52, 0
3, 102239, Note_on_c, 11, 55, 0
3, 102240, Note_on_c, 11, 52, 80
3, 102240, Note_on_c, 11, 55, 80
3, 102719, Note_on_c, 11, 52, 0
3, 102719, Note_on_c, 11, 55, 0
3, 102720, Note_on_c, 11, 52, 80
3, 102720, Note_on_c, 11, 59, 80
3, 103199, Note_on_c, 11, 52, 0
3, 103199, Note_on_c, 11, 59, 0
3, 103200, Note_on_c, 11, 52, 80
3, 103200, Note_on_c, 11, 55, 80
3, 103679, Note_on_c, 11, 52, 0
3, 103679, Note_on_c, 11, 55, 0
3, 103680, Note_on_c, 11, 53, 80
3, 105599, Note_on_c, 11, 53, 0
3, 105600, Note_on_c, 11, 53, 80
3, 107519, Note_on_c, 11, 53, 0
3, 111360, Note_on_c, 11, 53, 80
3, 111360, Note_on_c, 11, 57, 80
3, 111599, Note_on_c, 11, 53, 0
3, 111599, Note_on_c, 11, 57, 0
3, 111600, Note_on_c, 11, 53, 80
3, 111839, Note_on_c, 11, 53, 0
3, 111840, Note_on_c, 11, 53, 80
3, 112079, Note_on_c, 11, 53, 0
3, 112080, Note_on_c, 11, 53, 80
3, 112080, Note_on_c, 11, 57, 80
3, 112319, Note_on_c, 11, 53, 0
3, 112319, Note_on_c, 11, 57, 0
3, 112320, Note_on_c, 11, 53, 80
3, 112320, Note_on_c, 11, 57, 80
3, 112559, Note_on_c, 11, 53, 0
3, 112559, Note_on_c, 11, 57, 0
3, 112560, Note_on_c, 11, 53, 80
3, 112560, Note_on_c, 11, 57, 80
3, 112799, Note_on_c, 11, 53, 0
3, 112799, Note_on_c, 11, 57, 0
3, 112800, Note_on_c, 11, 53, 80
3, 112800, Note_on_c, 11, 57, 80
3, 113039, Note_on_c, 11, 53, 0
3, 113039, Note_on_c, 11, 57, 0
3, 113040, Note_on_c, 11, 53, 80
3, 113040, Note_on_c, 11, 57, 80
3, 113279, Note_on_c, 11, 53, 0
3, 113279, Note_on_c, 11, 57, 0
3, 113280, Note_on_c, 11, 53, 80
3, 113280, Note_on_c, 11, 55, 80
3, 113519, Note_on_c, 11, 53, 0
3, 113519, Note_on_c, 11, 55, 0
3, 113520, Note_on_c, 11, 53, 80
3, 113520, Note_on_c, 11, 55, 80
3, 113759, Note_on_c, 11, 53, 0
3, 113759, Note_on_c, 11, 55, 0
3, 113760, Note_on_c, 11, 53, 80
3, 113760, Note_on_c, 11, 55, 80
3, 113999, Note_on_c, 11, 53, 0
3, 113999, Note_on_c, 11, 55, 0
3, 114000, Note_on_c, 11, 53, 80
3, 114000, Note_on_c, 11, 55, 80
3, 114239, Note_on_c, 11, 53, 0
3, 114239, Note_on_c, 11, 55, 0
3, 114240, Note_on_c, 11, 53, 80
3, 114240, Note_on_c, 11, 55, 80
3, 114479, Note_on_c, 11, 53, 0
3, 114479, Note_on_c, 11, 55, 0
3, 114480, Note_on_c, 11, 53, 80
3, 114480, Note_on_c, 11, 55, 80
3, 114719, Note_on_c, 11, 53, 0
3, 114719, Note_on_c, 11, 55, 0
3, 114720, Note_on_c, 11, 53, 80
3, 114720, Note_on_c, 11, 55, 80
3, 114959, Note_on_c, 11, 53, 0
3, 114959, Note_on_c, 11, 55, 0
3, 114960, Note_on_c, 11, 53, 80
3, 114960, Note_on_c, 11, 55, 80
3, 115199, Note_on_c, 11, 53, 0
3, 115199, Note_on_c, 11, 55, 0
3, 115200, Note_on_c, 11, 52, 80
3, 115200, Note_on_c, 11, 55, 80
3, 115319, Note_on_c, 11, 52, 0
3, 115319, Note_on_c, 11, 55, 0
3, 115440, Note_on_c, 11, 52, 80
3, 115440, Note_on_c, 11, 55, 80
3, 115679, Note_on_c, 11, 52, 0
3, 115679, Note_on_c, 11, 55, 0
3, 115680, Note_on_c, 11, 52, 80
3, 115680, Note_on_c, 11, 55, 80
3, 115919, Note_on_c, 11, 52, 0
3, 115919, Note_on_c, 11, 55, 0
3, 115920, Note_on_c, 11, 52, 80
3, 115920, Note_on_c, 11, 55, 80
3, 116159, Note_on_c, 11, 52, 0
3, 116159, Note_on_c, 11, 55, 0
3, 116160, Note_on_c, 11, 52, 80
3, 116160, Note_on_c, 11, 55, 80
3, 116399, Note_on_c, 11, 52, 0
3, 116399, Note_on_c, 11, 55, 0
3, 116400, Note_on_c, 11, 52, 80
3, 116400, Note_on_c, 11, 55, 80
3, 116639, Note_on_c, 11, 52, 0
3, 116639, Note_on_c, 11, 55, 0
3, 116640, Note_on_c, 11, 52, 80
3, 116640, Note_on_c, 11, 55, 80
3, 116879, Note_on_c, 11, 52, 0
3, 116879, Note_on_c, 11, 55, 0
3, 116880, Note_on_c, 11, 52, 80
3, 116880, Note_on_c, 11, 55, 80
3, 117119, Note_on_c, 11, 52, 0
3, 117119, Note_on_c, 11, 55, 0
3, 117120, Note_on_c, 11, 50, 80
3, 117120, Note_on_c, 11, 55, 80
3, 117359, Note_on_c, 11, 50, 0
3, 117359, Note_on_c, 11, 55, 0
3, 117360, Note_on_c, 11, 50, 80
3, 117360, Note_on_c, 11, 55, 80
3, 117599, Note_on_c, 11, 50, 0
3, 117599, Note_on_c, 11, 55, 0
3, 117600, Note_on_c, 11, 50, 80
3, 117600, Note_on_c, 11, 55, 80
3, 117839, Note_on_c, 11, 50, 0
3, 117839, Note_on_c, 11, 55, 0
3, 117840, Note_on_c, 11, 50, 80
3, 117840, Note_on_c, 11, 55, 80
3, 118079, Note_on_c, 11, 50, 0
3, 118079, Note_on_c, 11, 55, 0
3, 118080, Note_on_c, 11, 50, 80
3, 118080, Note_on_c, 11, 55, 80
3, 118319, Note_on_c, 11, 50, 0
3, 118319, Note_on_c, 11, 55, 0
3, 118320, Note_on_c, 11, 50, 80
3, 118320, Note_on_c, 11, 55, 80
3, 118559, Note_on_c, 11, 50, 0
3, 118559, Note_on_c, 11, 55, 0
3, 118560, Note_on_c, 11, 50, 80
3, 118560, Note_on_c, 11, 55, 80
3, 118799, Note_on_c, 11, 50, 0
3, 118799, Note_on_c, 11, 55, 0
3, 118800, Note_on_c, 11, 50, 80
3, 118800, Note_on_c, 11, 55, 80
3, 119039, Note_on_c, 11, 50, 0
3, 119039, Note_on_c, 11, 55, 0
3, 119040, Note_on_c, 11, 53, 80
3, 119040, Note_on_c, 11, 57, 80
3, 119279, Note_on_c, 11, 53, 0
3, 119279, Note_on_c, 11, 57, 0
3, 119280, Note_on_c, 11, 53, 80
3, 119280, Note_on_c, 11, 57, 80
3, 119519, Note_on_c, 11, 53, 0
3, 119519, Note_on_c, 11, 57, 0
3, 119520, Note_on_c, 11, 53, 80
3, 119520, Note_on_c, 11, 57, 80
3, 119759, Note_on_c, 11, 53, 0
3, 119759, Note_on_c, 11, 57, 0
3, 119760, Note_on_c, 11, 53, 80
3, 119760, Note_on_c, 11, 57, 80
3, 119999, Note_on_c, 11, 53, 0
3, 119999, Note_on_c, 11, 57, 0
3, 120000, Note_on_c, 11, 53, 80
3, 120000, Note_on_c, 11, 57, 80
3, 120239, Note_on_c, 11, 53, 0
3, 120239, Note_on_c, 11, 57, 0
3, 120240, Note_on_c, 11, 53, 80
3, 120240, Note_on_c, 11, 57, 80
3, 120479, Note_on_c, 11, 53, 0
3, 120479, Note_on_c, 11, 57, 0
3, 120480, Note_on_c, 11, 53, 80
3, 120480, Note_on_c, 11, 57, 80
3, 120719, Note_on_c, 11, 53, 0
3, 120719, Note_on_c, 11, 57, 0
3, 120720, Note_on_c, 11, 53, 80
3, 120720, Note_on_c, 11, 57, 80
3, 120959, Note_on_c, 11, 53, 0
3, 120959, Note_on_c, 11, 57, 0
3, 120960, Note_on_c, 11, 53, 80
3, 120960, Note_on_c, 11, 55, 80
3, 121199, Note_on_c, 11, 53, 0
3, 121199, Note_on_c, 11, 55, 0
3, 121200, Note_on_c, 11, 53, 80
3, 121200, Note_on_c, 11, 55, 80
3, 121439, Note_on_c, 11, 53, 0
3, 121439, Note_on_c, 11, 55, 0
3, 121440, Note_on_c, 11, 53, 80
3, 121440, Note_on_c, 11, 55, 80
3, 121679, Note_on_c, 11, 53, 0
3, 121679, Note_on_c, 11, 55, 0
3, 121680, Note_on_c, 11, 53, 80
3, 121680, Note_on_c, 11, 55, 80
3, 121919, Note_on_c, 11, 53, 0
3, 121919, Note_on_c, 11, 55, 0
3, 121920, Note_on_c, 11, 53, 80
3, 121920, Note_on_c, 11, 55, 80
3, 122159, Note_on_c, 11, 53, 0
3, 122159, Note_on_c, 11, 55, 0
3, 122160, Note_on_c, 11, 53, 80
3, 122160, Note_on_c, 11, 55, 80
3, 122399, Note_on_c, 11, 53, 0
3, 122399, Note_on_c, 11, 55, 0
3, 122400, Note_on_c, 11, 53, 80
3, 122400, Note_on_c, 11, 55, 80
3, 122639, Note_on_c, 11, 53, 0
3, 122639, Note_on_c, 11, 55, 0
3, 122640, Note_on_c, 11, 53, 80
3, 122640, Note_on_c, 11, 55, 80
3, 122879, Note_on_c, 11, 53, 0
3, 122879, Note_on_c, 11, 55, 0
3, 122880, Note_on_c, 11, 52, 80
3, 122880, Note_on_c, 11, 55, 80
3, 122999, Note_on_c, 11, 52, 0
3, 122999, Note_on_c, 11, 55, 0
3, 123120, Note_on_c, 11, 52, 80
3, 123120, Note_on_c, 11, 55, 80
3, 123359, Note_on_c, 11, 52, 0
3, 123359, Note_on_c, 11, 55, 0
3, 123360, Note_on_c, 11, 52, 80
3, 123360, Note_on_c, 11, 55, 80
3, 123599, Note_on_c, 11, 52, 0
3, 123599, Note_on_c, 11, 55, 0
3, 123600, Note_on_c, 11, 52, 80
3, 123600, Note_on_c, 11, 55, 80
3, 123839, Note_on_c, 11, 52, 0
3, 123839, Note_on_c, 11, 55, 0
3, 123840, Note_on_c, 11, 52, 80
3, 123840, Note_on_c, 11, 55, 80
3, 124079, Note_on_c, 11, 52, 0
3, 124079, Note_on_c, 11, 55, 0
3, 124080, Note_on_c, 11, 52, 80
3, 124080, Note_on_c, 11, 55, 80
3, 124319, Note_on_c, 11, 52, 0
3, 124319, Note_on_c, 11, 55, 0
3, 124320, Note_on_c, 11, 52, 80
3, 124320, Note_on_c, 11, 55, 80
3, 124559, Note_on_c, 11, 52, 0
3, 124559, Note_on_c, 11, 55, 0
3, 124560, Note_on_c, 11, 52, 80
3, 124560, Note_on_c, 11, 55, 80
3, 124799, Note_on_c, 11, 52, 0
3, 124799, Note_on_c, 11, 55, 0
3, 124800, Note_on_c, 11, 55, 80
3, 124800, Note_on_c, 11, 59, 80
3, 125039, Note_on_c, 11, 55, 0
3, 125039, Note_on_c, 11, 59, 0
3, 125040, Note_on_c, 11, 50, 80
3, 125040, Note_on_c, 11, 55, 80
3, 125279, Note_on_c, 11, 50, 0
3, 125279, Note_on_c, 11, 55, 0
3, 125280, Note_on_c, 11, 50, 80
3, 125280, Note_on_c, 11, 55, 80
3, 125519, Note_on_c, 11, 50, 0
3, 125519, Note_on_c, 11, 55, 0
3, 125520, Note_on_c, 11, 50, 80
3, 125520, Note_on_c, 11, 55, 80
3, 125759, Note_on_c, 11, 50, 0
3, 125759, Note_on_c, 11, 55, 0
3, 125760, Note_on_c, 11, 50, 80
3, 125760, Note_on_c, 11, 55, 80
3, 125999, Note_on_c, 11, 50, 0
3, 125999, Note_on_c, 11, 55, 0
3, 126000, Note_on_c, 11, 50, 80
3, 126000, Note_on_c, 11, 55, 80
3, 126239, Note_on_c, 11, 50, 0
3, 126239, Note_on_c, 11, 55, 0
3, 126240, Note_on_c, 11, 50, 80
3, 126240, Note_on_c, 11, 55, 80
3, 126479, Note_on_c, 11, 50, 0
3, 126479, Note_on_c, 11, 55, 0
3, 126480, Note_on_c, 11, 50, 80
3, 126480, Note_on_c, 11, 55, 80
3, 126719, Note_on_c, 11, 50, 0
3, 126719, Note_on_c, 11, 55, 0
3, 126720, Note_on_c, 11, 48, 80
3, 126720, Note_on_c, 11, 53, 80
3, 126720, Note_on_c, 11, 57, 80
3, 126959, Note_on_c, 11, 48, 0
3, 126959, Note_on_c, 11, 53, 0
3, 126959, Note_on_c, 11, 57, 0
3, 126960, Note_on_c, 11, 53, 80
3, 126960, Note_on_c, 11, 57, 80
3, 127199, Note_on_c, 11, 53, 0
3, 127199, Note_on_c, 11, 57, 0
3, 127200, Note_on_c, 11, 53, 80
3, 127200, Note_on_c, 11, 57, 80
3, 127439, Note_on_c, 11, 53, 0
3, 127439, Note_on_c, 11, 57, 0
3, 127440, Note_on_c, 11, 53, 80
3, 127440, Note_on_c, 11, 57, 80
3, 127679, Note_on_c, 11, 53, 0
3, 127679, Note_on_c, 11, 57, 0
3, 127680, Note_on_c, 11, 53, 80
3, 127680, Note_on_c, 11, 57, 80
3, 127919, Note_on_c, 11, 53, 0
3, 127919, Note_on_c, 11, 57, 0
3, 127920, Note_on_c, 11, 53, 80
3, 127920, Note_on_c, 11, 57, 80
3, 128159, Note_on_c, 11, 53, 0
3, 128159, Note_on_c, 11, 57, 0
3, 128160, Note_on_c, 11, 53, 80
3, 128160, Note_on_c, 11, 57, 80
3, 128399, Note_on_c, 11, 53, 0
3, 128399, Note_on_c, 11, 57, 0
3, 128400, Note_on_c, 11, 53, 80
3, 128400, Note_on_c, 11, 57, 80
3, 128639, Note_on_c, 11, 53, 0
3, 128639, Note_on_c, 11, 57, 0
3, 128640, Note_on_c, 11, 48, 80
3, 128640, Note_on_c, 11, 53, 80
3, 128640, Note_on_c, 11, 55, 80
3, 128879, Note_on_c, 11, 48, 0
3, 128879, Note_on_c, 11, 53, 0
3, 128879, Note_on_c, 11, 55, 0
3, 128880, Note_on_c, 11, 53, 80
3, 128880, Note_on_c, 11, 55, 80
3, 129119, Note_on_c, 11, 53, 0
3, 129119, Note_on_c, 11, 55, 0
3, 129120, Note_on_c, 11, 53, 80
3, 129120, Note_on_c, 11, 55, 80
3, 129359, Note_on_c, 11, 53, 0
3, 129359, Note_on_c, 11, 55, 0
3, 129360, Note_on_c, 11, 53, 80
3, 129360, Note_on_c, 11, 55, 80
3, 129599, Note_on_c, 11, 53, 0
3, 129599, Note_on_c, 11, 55, 0
3, 129600, Note_on_c, 11, 53, 80
3, 129600, Note_on_c, 11, 55, 80
3, 129839, Note_on_c, 11, 53, 0
3, 129839, Note_on_c, 11, 55, 0
3, 129840, Note_on_c, 11, 53, 80
3, 129840, Note_on_c, 11, 55, 80
3, 130079, Note_on_c, 11, 53, 0
3, 130079, Note_on_c, 11, 55, 0
3, 130080, Note_on_c, 11, 53, 80
3, 130080, Note_on_c, 11, 55, 80
3, 130319, Note_on_c, 11, 53, 0
3, 130319, Note_on_c, 11, 55, 0
3, 130320, Note_on_c, 11, 53, 80
3, 130320, Note_on_c, 11, 55, 80
3, 130559, Note_on_c, 11, 53, 0
3, 130559, Note_on_c, 11, 55, 0
3, 130560, Note_on_c, 11, 48, 80
3, 130560, Note_on_c, 11, 52, 80
3, 130679, Note_on_c, 11, 48, 0
3, 130679, Note_on_c, 11, 52, 0
3, 130800, Note_on_c, 11, 52, 80
3, 130800, Note_on_c, 11, 55, 80
3, 131039, Note_on_c, 11, 52, 0
3, 131039, Note_on_c, 11, 55, 0
3, 131040, Note_on_c, 11, 52, 80
3, 131040, Note_on_c, 11, 55, 80
3, 131279, Note_on_c, 11, 52, 0
3, 131279, Note_on_c, 11, 55, 0
3, 131280, Note_on_c, 11, 52, 80
3, 131280, Note_on_c, 11, 55, 80
3, 131519, Note_on_c, 11, 52, 0
3, 131519, Note_on_c, 11, 55, 0
3, 131520, Note_on_c, 11, 52, 80
3, 131520, Note_on_c, 11, 55, 80
3, 131759, Note_on_c, 11, 52, 0
3, 131759, Note_on_c, 11, 55, 0
3, 131760, Note_on_c, 11, 52, 80
3, 131760, Note_on_c, 11, 55, 80
3, 131999, Note_on_c, 11, 52, 0
3, 131999, Note_on_c, 11, 55, 0
3, 132000, Note_on_c, 11, 52, 80
3, 132000, Note_on_c, 11, 55, 80
3, 132239, Note_on_c, 11, 52, 0
3, 132239, Note_on_c, 11, 55, 0
3, 132240, Note_on_c, 11, 52, 80
3, 132240, Note_on_c, 11, 55, 80
3, 132479, Note_on_c, 11, 52, 0
3, 132479, Note_on_c, 11, 55, 0
3, 132480, Note_on_c, 11, 50, 80
3, 132480, Note_on_c, 11, 55, 80
3, 132480, Note_on_c, 11, 59, 80
3, 132719, Note_on_c, 11, 50, 0
3, 132719, Note_on_c, 11, 55, 0
3, 132719, Note_on_c, 11, 59, 0
3, 132720, Note_on_c, 11, 50, 80
3, 132720, Note_on_c, 11, 55, 80
3, 132959, Note_on_c, 11, 50, 0
3, 132959, Note_on_c, 11, 55, 0
3, 132960, Note_on_c, 11, 50, 80
3, 132960, Note_on_c, 11, 55, 80
3, 133199, Note_on_c, 11, 50, 0
3, 133199, Note_on_c, 11, 55, 0
3, 133200, Note_on_c, 11, 50, 80
3, 133200, Note_on_c, 11, 55, 80
3, 133439, Note_on_c, 11, 50, 0
3, 133439, Note_on_c, 11, 55, 0
3, 133440, Note_on_c, 11, 50, 80
3, 133440, Note_on_c, 11, 55, 80
3, 133679, Note_on_c, 11, 50, 0
3, 133679, Note_on_c, 11, 55, 0
3, 133680, Note_on_c, 11, 50, 80
3, 133680, Note_on_c, 11, 55, 80
3, 133919, Note_on_c, 11, 50, 0
3, 133919, Note_on_c, 11, 55, 0
3, 133920, Note_on_c, 11, 50, 80
3, 133920, Note_on_c, 11, 55, 80
3, 134159, Note_on_c, 11, 50, 0
3, 134159, Note_on_c, 11, 55, 0
3, 134160, Note_on_c, 11, 50, 80
3, 134160, Note_on_c, 11, 55, 80
3, 134399, Note_on_c, 11, 50, 0
3, 134399, Note_on_c, 11, 55, 0
3, 134400, Note_on_c, 11, 53, 80
3, 134400, Note_on_c, 11, 57, 80
3, 134639, Note_on_c, 11, 53, 0
3, 134639, Note_on_c, 11, 57, 0
3, 134640, Note_on_c, 11, 53, 80
3, 134640, Note_on_c, 11, 57, 80
3, 134879, Note_on_c, 11, 53, 0
3, 134879, Note_on_c, 11, 57, 0
3, 134880, Note_on_c, 11, 53, 80
3, 134880, Note_on_c, 11, 57, 80
3, 135119, Note_on_c, 11, 53, 0
3, 135119, Note_on_c, 11, 57, 0
3, 135120, Note_on_c, 11, 53, 80
3, 135120, Note_on_c, 11, 57, 80
3, 135359, Note_on_c, 11, 53, 0
3, 135359, Note_on_c, 11, 57, 0
3, 135360, Note_on_c, 11, 53, 80
3, 135360, Note_on_c, 11, 57, 80
3, 135599, Note_on_c, 11, 53, 0
3, 135599, Note_on_c, 11, 57, 0
3, 135600, Note_on_c, 11, 53, 80
3, 135600, Note_on_c, 11, 57, 80
3, 135839, Note_on_c, 11, 53, 0
3, 135839, Note_on_c, 11, 57, 0
3, 135840, Note_on_c, 11, 53, 80
3, 135840, Note_on_c, 11, 57, 80
3, 136079, Note_on_c, 11, 53, 0
3, 136079, Note_on_c, 11, 57, 0
3, 136080, Note_on_c, 11, 53, 80
3, 136080, Note_on_c, 11, 57, 80
3, 136319, Note_on_c, 11, 53, 0
3, 136319, Note_on_c, 11, 57, 0
3, 136320, Note_on_c, 11, 53, 80
3, 136320, Note_on_c, 11, 57, 80
3, 136559, Note_on_c, 11, 53, 0
3, 136559, Note_on_c, 11, 57, 0
3, 136560, Note_on_c, 11, 53, 80
3, 136560, Note_on_c, 11, 57, 80
3, 136799, Note_on_c, 11, 53, 0
3, 136799, Note_on_c, 11, 57, 0
3, 136800, Note_on_c, 11, 53, 80
3, 136800, Note_on_c, 11, 57, 80
3, 137039, Note_on_c, 11, 53, 0
3, 137039, Note_on_c, 11, 57, 0
3, 137040, Note_on_c, 11, 53, 80
3, 137040, Note_on_c, 11, 57, 80
3, 137279, Note_on_c, 11, 53, 0
3, 137279, Note_on_c, 11, 57, 0
3, 137280, Note_on_c, 11, 53, 80
3, 137280, Note_on_c, 11, 57, 80
3, 137519, Note_on_c, 11, 53, 0
3, 137519, Note_on_c, 11, 57, 0
3, 137520, Note_on_c, 11, 53, 80
3, 137520, Note_on_c, 11, 57, 80
3, 137759, Note_on_c, 11, 53, 0
3, 137759, Note_on_c, 11, 57, 0
3, 137760, Note_on_c, 11, 53, 80
3, 137760, Note_on_c, 11, 57, 80
3, 137999, Note_on_c, 11, 53, 0
3, 137999, Note_on_c, 11, 57, 0
3, 138000, Note_on_c, 11, 53, 80
3, 138000, Note_on_c, 11, 57, 80
3, 138239, Note_on_c, 11, 53, 0
3, 138239, Note_on_c, 11, 57, 0
3, 138240, Note_on_c, 11, 53, 80
3, 138240, Note_on_c, 11, 59, 80
3, 138479, Note_on_c, 11, 53, 0
3, 138479, Note_on_c, 11, 59, 0
3, 138480, Note_on_c, 11, 53, 80
3, 138480, Note_on_c, 11, 59, 80
3, 138719, Note_on_c, 11, 53, 0
3, 138719, Note_on_c, 11, 59, 0
3, 138720, Note_on_c, 11, 53, 80
3, 138720, Note_on_c, 11, 59, 80
3, 138959, Note_on_c, 11, 53, 0
3, 138959, Note_on_c, 11, 59, 0
3, 138960, Note_on_c, 11, 53, 80
3, 138960, Note_on_c, 11, 59, 80
3, 139199, Note_on_c, 11, 53, 0
3, 139199, Note_on_c, 11, 59, 0
3, 139200, Note_on_c, 11, 53, 80
3, 139200, Note_on_c, 11, 59, 80
3, 139439, Note_on_c, 11, 53, 0
3, 139439, Note_on_c, 11, 59, 0
3, 139440, Note_on_c, 11, 53, 80
3, 139440, Note_on_c, 11, 59, 80
3, 139679, Note_on_c, 11, 53, 0
3, 139679, Note_on_c, 11, 59, 0
3, 139680, Note_on_c, 11, 53, 80
3, 139680, Note_on_c, 11, 59, 80
3, 139919, Note_on_c, 11, 53, 0
3, 139919, Note_on_c, 11, 59, 0
3, 139920, Note_on_c, 11, 53, 80
3, 139920, Note_on_c, 11, 59, 80
3, 140159, Note_on_c, 11, 53, 0
3, 140159, Note_on_c, 11, 59, 0
3, 140160, Note_on_c, 11, 53, 80
3, 140160, Note_on_c, 11, 60, 80
3, 140399, Note_on_c, 11, 53, 0
3, 140399, Note_on_c, 11, 60, 0
3, 140400, Note_on_c, 11, 53, 80
3, 140400, Note_on_c, 11, 60, 80
3, 140639, Note_on_c, 11, 53, 0
3, 140639, Note_on_c, 11, 60, 0
3, 140640, Note_on_c, 11, 53, 80
3, 140640, Note_on_c, 11, 60, 80
3, 140879, Note_on_c, 11, 53, 0
3, 140879, Note_on_c, 11, 60, 0
3, 140880, Note_on_c, 11, 53, 80
3, 140880, Note_on_c, 11, 60, 80
3, 141119, Note_on_c, 11, 53, 0
3, 141119, Note_on_c, 11, 60, 0
3, 141120, Note_on_c, 11, 53, 80
3, 141120, Note_on_c, 11, 62, 80
3, 141359, Note_on_c, 11, 53, 0
3, 141359, Note_on_c, 11, 62, 0
3, 141360, Note_on_c, 11, 53, 80
3, 141360, Note_on_c, 11, 62, 80
3, 141599, Note_on_c, 11, 53, 0
3, 141599, Note_on_c, 11, 62, 0
3, 141600, Note_on_c, 11, 53, 80
3, 141600, Note_on_c, 11, 62, 80
3, 141839, Note_on_c, 11, 53, 0
3, 141839, Note_on_c, 11, 62, 0
3, 141840, Note_on_c, 11, 53, 80
3, 141840, Note_on_c, 11, 62, 80
3, 142079, Note_on_c, 11, 53, 0
3, 142079, Note_on_c, 11, 62, 0
3, 142080, Note_on_c, 11, 55, 80
3, 142080, Note_on_c, 11, 60, 80
3, 142319, Note_on_c, 11, 55, 0
3, 142319, Note_on_c, 11, 60, 0
3, 142320, Note_on_c, 11, 55, 80
3, 142320, Note_on_c, 11, 60, 80
3, 142559, Note_on_c, 11, 55, 0
3, 142559, Note_on_c, 11, 60, 0
3, 142560, Note_on_c, 11, 55, 80
3, 142560, Note_on_c, 11, 60, 80
3, 142799, Note_on_c, 11, 55, 0
3, 142799, Note_on_c, 11, 60, 0
3, 142800, Note_on_c, 11, 55, 80
3, 142800, Note_on_c, 11, 60, 80
3, 143039, Note_on_c, 11, 55, 0
3, 143039, Note_on_c, 11, 60, 0
3, 143040, Note_on_c, 11, 55, 80
3, 143040, Note_on_c, 11, 60, 80
3, 143279, Note_on_c, 11, 55, 0
3, 143279, Note_on_c, 11, 60, 0
3, 143280, Note_on_c, 11, 55, 80
3, 143280, Note_on_c, 11, 60, 80
3, 143519, Note_on_c, 11, 55, 0
3, 143519, Note_on_c, 11, 60, 0
3, 143520, Note_on_c, 11, 55, 80
3, 143520, Note_on_c, 11, 60, 80
3, 143759, Note_on_c, 11, 55, 0
3, 143759, Note_on_c, 11, 60, 0
3, 143760, Note_on_c, 11, 55, 80
3, 143760, Note_on_c, 11, 60, 80
3, 143999, Note_on_c, 11, 55, 0
3, 143999, Note_on_c, 11, 60, 0
3, 144000, Note_on_c, 11, 55, 80
3, 144000, Note_on_c, 11, 60, 80
3, 144239, Note_on_c, 11, 55, 0
3, 144239, Note_on_c, 11, 60, 0
3, 144240, Note_on_c, 11, 55, 80
3, 144240, Note_on_c, 11, 60, 80
3, 144479, Note_on_c, 11, 55, 0
3, 144479, Note_on_c, 11, 60, 0
3, 144480, Note_on_c, 11, 55, 80
3, 144480, Note_on_c, 11, 60, 80
3, 144719, Note_on_c, 11, 55, 0
3, 144719, Note_on_c, 11, 60, 0
3, 144720, Note_on_c, 11, 55, 80
3, 144720, Note_on_c, 11, 60, 80
3, 144959, Note_on_c, 11, 55, 0
3, 144959, Note_on_c, 11, 60, 0
3, 144960, Note_on_c, 11, 55, 80
3, 144960, Note_on_c, 11, 60, 80
3, 145199, Note_on_c, 11, 55, 0
3, 145199, Note_on_c, 11, 60, 0
3, 145200, Note_on_c, 11, 55, 80
3, 145200, Note_on_c, 11, 60, 80
3, 145439, Note_on_c, 11, 55, 0
3, 145439, Note_on_c, 11, 60, 0
3, 145440, Note_on_c, 11, 55, 80
3, 145440, Note_on_c, 11, 60, 80
3, 145679, Note_on_c, 11, 55, 0
3, 145679, Note_on_c, 11, 60, 0
3, 145680, Note_on_c, 11, 55, 80
3, 145680, Note_on_c, 11, 60, 80
3, 145919, Note_on_c, 11, 55, 0
3, 145919, Note_on_c, 11, 60, 0
3, 145920, Note_on_c, 11, 55, 80
3, 145920, Note_on_c, 11, 59, 80
3, 146159, Note_on_c, 11, 55, 0
3, 146159, Note_on_c, 11, 59, 0
3, 146160, Note_on_c, 11, 55, 80
3, 146160, Note_on_c, 11, 59, 80
3, 146399, Note_on_c, 11, 55, 0
3, 146399, Note_on_c, 11, 59, 0
3, 146400, Note_on_c, 11, 55, 80
3, 146400, Note_on_c, 11, 59, 80
3, 146639, Note_on_c, 11, 55, 0
3, 146639, Note_on_c, 11, 59, 0
3, 146640, Note_on_c, 11, 55, 80
3, 146640, Note_on_c, 11, 59, 80
3, 146879, Note_on_c, 11, 55, 0
3, 146879, Note_on_c, 11, 59, 0
3, 146880, Note_on_c, 11, 55, 80
3, 146880, Note_on_c, 11, 59, 80
3, 147119, Note_on_c, 11, 55, 0
3, 147119, Note_on_c, 11, 59, 0
3, 147120, Note_on_c, 11, 55, 80
3, 147120, Note_on_c, 11, 59, 80
3, 147359, Note_on_c, 11, 55, 0
3, 147359, Note_on_c, 11, 59, 0
3, 147360, Note_on_c, 11, 55, 80
3, 147360, Note_on_c, 11, 59, 80
3, 147599, Note_on_c, 11, 55, 0
3, 147599, Note_on_c, 11, 59, 0
3, 147600, Note_on_c, 11, 55, 80
3, 147600, Note_on_c, 11, 59, 80
3, 147839, Note_on_c, 11, 55, 0
3, 147839, Note_on_c, 11, 59, 0
3, 147840, Note_on_c, 11, 55, 80
3, 147840, Note_on_c, 11, 59, 80
3, 148079, Note_on_c, 11, 55, 0
3, 148079, Note_on_c, 11, 59, 0
3, 148080, Note_on_c, 11, 55, 80
3, 148080, Note_on_c, 11, 59, 80
3, 148319, Note_on_c, 11, 55, 0
3, 148319, Note_on_c, 11, 59, 0
3, 148320, Note_on_c, 11, 55, 80
3, 148320, Note_on_c, 11, 59, 80
3, 148559, Note_on_c, 11, 55, 0
3, 148559, Note_on_c, 11, 59, 0
3, 148560, Note_on_c, 11, 55, 80
3, 148560, Note_on_c, 11, 59, 80
3, 148799, Note_on_c, 11, 55, 0
3, 148799, Note_on_c, 11, 59, 0
3, 148800, Note_on_c, 11, 55, 80
3, 148800, Note_on_c, 11, 59, 80
3, 149039, Note_on_c, 11, 55, 0
3, 149039, Note_on_c, 11, 59, 0
3, 149040, Note_on_c, 11, 55, 80
3, 149040, Note_on_c, 11, 59, 80
3, 149279, Note_on_c, 11, 55, 0
3, 149279, Note_on_c, 11, 59, 0
3, 149280, Note_on_c, 11, 55, 80
3, 149280, Note_on_c, 11, 59, 80
3, 149519, Note_on_c, 11, 55, 0
3, 149519, Note_on_c, 11, 59, 0
3, 149520, Note_on_c, 11, 55, 80
3, 149520, Note_on_c, 11, 59, 80
3, 149759, Note_on_c, 11, 55, 0
3, 149759, Note_on_c, 11, 59, 0
3, 149760, Note_on_c, 11, 48, 80
3, 150239, Note_on_c, 11, 48, 0
3, 150240, Note_on_c, 11, 48, 80
3, 150719, Note_on_c, 11, 48, 0
3, 150720, Note_on_c, 11, 48, 80
3, 151199, Note_on_c, 11, 48, 0
3, 151200, Note_on_c, 11, 48, 80
3, 151679, Note_on_c, 11, 48, 0
3, 151680, Note_on_c, 11, 48, 80
3, 152159, Note_on_c, 11, 48, 0
3, 152160, Note_on_c, 11, 48, 80
3, 152639, Note_on_c, 11, 48, 0
3, 152640, Note_on_c, 11, 48, 80
3, 153119, Note_on_c, 11, 48, 0
3, 153120, Note_on_c, 11, 48, 80
3, 153599, Note_on_c, 11, 48, 0
3, 153600, Note_on_c, 11, 48, 80
3, 154079, Note_on_c, 11, 48, 0
3, 154080, Note_on_c, 11, 48, 80
3, 154559, Note_on_c, 11, 48, 0
3, 154560, Note_on_c, 11, 48, 80
3, 155039, Note_on_c, 11, 48, 0
3, 155040, Note_on_c, 11, 48, 80
3, 155519, Note_on_c, 11, 48, 0
3, 155520, Note_on_c, 11, 48, 80
3, 155999, Note_on_c, 11, 48, 0
3, 156000, Note_on_c, 11, 48, 80
3, 156479, Note_on_c, 11, 48, 0
3, 156480, Note_on_c, 11, 48, 80
3, 156959, Note_on_c, 11, 48, 0
3, 156960, Note_on_c, 11, 48, 80
3, 157439, Note_on_c, 11, 48, 0
3, 157440, Note_on_c, 11, 48, 80
3, 157919, Note_on_c, 11, 48, 0
3, 157920, Note_on_c, 11, 48, 80
3, 158399, Note_on_c, 11, 48, 0
3, 158400, Note_on_c, 11, 48, 80
3, 158879, Note_on_c, 11, 48, 0
3, 158880, Note_on_c, 11, 48, 80
3, 159359, Note_on_c, 11, 48, 0
3, 159360, Note_on_c, 11, 48, 80
3, 159839, Note_on_c, 11, 48, 0
3, 159840, Note_on_c, 11, 48, 80
3, 160319, Note_on_c, 11, 48, 0
3, 160320, Note_on_c, 11, 48, 80
3, 160799, Note_on_c, 11, 48, 0
3, 160800, Note_on_c, 11, 48, 80
3, 161279, Note_on_c, 11, 48, 0
3, 161280, Note_on_c, 11, 52, 80
3, 161759, Note_on_c, 11, 52, 0
3, 161760, Note_on_c, 11, 52, 80
3, 162239, Note_on_c, 11, 52, 0
3, 162240, Note_on_c, 11, 52, 80
3, 162719, Note_on_c, 11, 52, 0
3, 162720, Note_on_c, 11, 52, 80
3, 163199, Note_on_c, 11, 52, 0
3, 163200, Note_on_c, 11, 52, 80
3, 163679, Note_on_c, 11, 52, 0
3, 163680, Note_on_c, 11, 52, 80
3, 164159, Note_on_c, 11, 52, 0
3, 164160, Note_on_c, 11, 52, 80
3, 164639, Note_on_c, 11, 52, 0
3, 164640, Note_on_c, 11, 52, 80
3, 165119, Note_on_c, 11, 52, 0
3, 165120, Note_on_c, 11, 53, 80
3, 167039, Note_on_c, 11, 53, 0
3, 167040, Note_on_c, 11, 53, 80
3, 168959, Note_on_c, 11, 53, 0
3, 168960, End_track
4, 0, Start_track
4, 0, Title_t, "Electric Bass, Bass\000"
4, 0, Key_signature, 0, "major"
4, 0, Control_c, 10, 121, 0
4, 0, Program_c, 10, 33
4, 0, Control_c, 10, 7, 100
4, 0, Control_c, 10, 10, 64
4, 0, Control_c, 10, 91, 0
4, 0, Control_c, 10, 93, 0
4, 0, MIDI_port, 0
4, 0, Control_c, 3, 121, 0
4, 0, Program_c, 3, 36
4, 0, Control_c, 3, 7, 100
4, 0, Control_c, 3, 10, 64
4, 0, Control_c, 3, 91, 0
4, 0, Control_c, 3, 93, 0
4, 0, MIDI_port, 0
4, 0, Control_c, 4, 121, 0
4, 0, Program_c, 4, 37
4, 0, Control_c, 4, 7, 100
4, 0, Control_c, 4, 10, 64
4, 0, Control_c, 4, 91, 0
4, 0, Control_c, 4, 93, 0
4, 0, MIDI_port, 0
4, 7680, Note_on_c, 10, 60, 80
4, 9119, Note_on_c, 10, 60, 0
4, 9120, Note_on_c, 10, 60, 80
4, 9599, Note_on_c, 10, 60, 0
4, 9600, Note_on_c, 10, 59, 80
4, 11039, Note_on_c, 10, 59, 0
4, 11040, Note_on_c, 10, 59, 80
4, 11519, Note_on_c, 10, 59, 0
4, 11520, Note_on_c, 10, 53, 80
4, 12959, Note_on_c, 10, 53, 0
4, 12960, Note_on_c, 10, 53, 80
4, 13439, Note_on_c, 10, 53, 0
4, 13440, Note_on_c, 10, 53, 80
4, 14879, Note_on_c, 10, 53, 0
4, 14880, Note_on_c, 10, 53, 80
4, 15359, Note_on_c, 10, 53, 0
4, 15360, Note_on_c, 10, 60, 80
4, 16799, Note_on_c, 10, 60, 0
4, 16800, Note_on_c, 10, 60, 80
4, 17279, Note_on_c, 10, 60, 0
4, 17280, Note_on_c, 10, 59, 80
4, 18719, Note_on_c, 10, 59, 0
4, 18720, Note_on_c, 10, 59, 80
4, 19199, Note_on_c, 10, 59, 0
4, 19200, Note_on_c, 10, 53, 80
4, 20639, Note_on_c, 10, 53, 0
4, 20640, Note_on_c, 10, 53, 80
4, 21119, Note_on_c, 10, 53, 0
4, 21120, Note_on_c, 10, 53, 80
4, 21599, Note_on_c, 10, 53, 0
4, 21600, Note_on_c, 10, 53, 80
4, 22079, Note_on_c, 10, 53, 0
4, 22080, Note_on_c, 10, 53, 80
4, 22559, Note_on_c, 10, 53, 0
4, 22560, Note_on_c, 10, 53, 80
4, 23039, Note_on_c, 10, 53, 0
4, 23040, Note_on_c, 10, 50, 80
4, 24959, Note_on_c, 10, 50, 0
4, 24960, Note_on_c, 10, 55, 80
4, 26879, Note_on_c, 10, 55, 0
4, 26880, Note_on_c, 10, 48, 80
4, 28799, Note_on_c, 10, 48, 0
4, 28800, Note_on_c, 10, 52, 80
4, 30719, Note_on_c, 10, 52, 0
4, 30720, Note_on_c, 10, 53, 80
4, 32639, Note_on_c, 10, 53, 0
4, 32640, Note_on_c, 10, 53, 80
4, 34559, Note_on_c, 10, 53, 0
4, 34560, Note_on_c, 10, 48, 80
4, 36479, Note_on_c, 10, 48, 0
4, 36480, Note_on_c, 10, 52, 80
4, 38399, Note_on_c, 10, 52, 0
4, 42240, Note_on_c, 10, 48, 80
4, 42479, Note_on_c, 10, 48, 0
4, 42480, Note_on_c, 10, 48, 80
4, 42719, Note_on_c, 10, 48, 0
4, 42720, Note_on_c, 10, 48, 80
4, 42959, Note_on_c, 10, 48, 0
4, 42960, Note_on_c, 10, 48, 80
4, 43199, Note_on_c, 10, 48, 0
4, 43200, Note_on_c, 10, 48, 80
4, 43439, Note_on_c, 10, 48, 0
4, 43440, Note_on_c, 10, 48, 80
4, 43679, Note_on_c, 10, 48, 0
4, 43680, Note_on_c, 10, 48, 80
4, 43919, Note_on_c, 10, 48, 0
4, 43920, Note_on_c, 10, 48, 80
4, 44159, Note_on_c, 10, 48, 0
4, 44160, Note_on_c, 10, 48, 80
4, 44399, Note_on_c, 10, 48, 0
4, 44400, Note_on_c, 10, 48, 80
4, 44639, Note_on_c, 10, 48, 0
4, 44640, Note_on_c, 10, 48, 80
4, 44879, Note_on_c, 10, 48, 0
4, 44880, Note_on_c, 10, 48, 80
4, 45119, Note_on_c, 10, 48, 0
4, 45120, Note_on_c, 10, 48, 80
4, 45359, Note_on_c, 10, 48, 0
4, 45360, Note_on_c, 10, 48, 80
4, 45599, Note_on_c, 10, 48, 0
4, 45600, Note_on_c, 10, 48, 80
4, 45839, Note_on_c, 10, 48, 0
4, 45840, Note_on_c, 10, 48, 80
4, 46079, Note_on_c, 10, 48, 0
4, 46080, Note_on_c, 10, 52, 80
4, 46319, Note_on_c, 10, 52, 0
4, 46320, Note_on_c, 10, 52, 80
4, 46559, Note_on_c, 10, 52, 0
4, 46560, Note_on_c, 10, 52, 80
4, 46799, Note_on_c, 10, 52, 0
4, 46800, Note_on_c, 10, 52, 80
4, 47039, Note_on_c, 10, 52, 0
4, 47040, Note_on_c, 10, 52, 80
4, 47279, Note_on_c, 10, 52, 0
4, 47280, Note_on_c, 10, 52, 80
4, 47519, Note_on_c, 10, 52, 0
4, 47520, Note_on_c, 10, 52, 80
4, 47759, Note_on_c, 10, 52, 0
4, 47760, Note_on_c, 10, 52, 80
4, 47999, Note_on_c, 10, 52, 0
4, 48000, Note_on_c, 10, 52, 80
4, 48239, Note_on_c, 10, 52, 0
4, 48240, Note_on_c, 10, 52, 80
4, 48479, Note_on_c, 10, 52, 0
4, 48480, Note_on_c, 10, 52, 80
4, 48719, Note_on_c, 10, 52, 0
4, 48720, Note_on_c, 10, 52, 80
4, 48959, Note_on_c, 10, 52, 0
4, 48960, Note_on_c, 10, 52, 80
4, 49199, Note_on_c, 10, 52, 0
4, 49200, Note_on_c, 10, 52, 80
4, 49439, Note_on_c, 10, 52, 0
4, 49440, Note_on_c, 10, 52, 80
4, 49679, Note_on_c, 10, 52, 0
4, 49680, Note_on_c, 10, 52, 80
4, 49919, Note_on_c, 10, 52, 0
4, 49920, Note_on_c, 10, 53, 80
4, 50159, Note_on_c, 10, 53, 0
4, 50160, Note_on_c, 10, 53, 80
4, 50399, Note_on_c, 10, 53, 0
4, 50400, Note_on_c, 10, 53, 80
4, 50639, Note_on_c, 10, 53, 0
4, 50640, Note_on_c, 10, 53, 80
4, 50879, Note_on_c, 10, 53, 0
4, 50880, Note_on_c, 10, 53, 80
4, 51119, Note_on_c, 10, 53, 0
4, 51120, Note_on_c, 10, 53, 80
4, 51359, Note_on_c, 10, 53, 0
4, 51360, Note_on_c, 10, 53, 80
4, 51599, Note_on_c, 10, 53, 0
4, 51600, Note_on_c, 10, 53, 80
4, 51839, Note_on_c, 10, 53, 0
4, 51840, Note_on_c, 10, 53, 80
4, 52079, Note_on_c, 10, 53, 0
4, 52080, Note_on_c, 10, 53, 80
4, 52319, Note_on_c, 10, 53, 0
4, 52320, Note_on_c, 10, 53, 80
4, 52559, Note_on_c, 10, 53, 0
4, 52560, Note_on_c, 10, 53, 80
4, 52799, Note_on_c, 10, 53, 0
4, 52800, Note_on_c, 10, 53, 80
4, 53039, Note_on_c, 10, 53, 0
4, 53040, Note_on_c, 10, 53, 80
4, 53279, Note_on_c, 10, 53, 0
4, 53280, Note_on_c, 10, 53, 80
4, 53519, Note_on_c, 10, 53, 0
4, 53520, Note_on_c, 10, 53, 80
4, 53759, Note_on_c, 10, 53, 0
4, 53760, Note_on_c, 10, 53, 80
4, 53999, Note_on_c, 10, 53, 0
4, 54000, Note_on_c, 10, 53, 80
4, 54239, Note_on_c, 10, 53, 0
4, 54240, Note_on_c, 10, 53, 80
4, 54479, Note_on_c, 10, 53, 0
4, 54480, Note_on_c, 10, 53, 80
4, 54719, Note_on_c, 10, 53, 0
4, 54720, Note_on_c, 10, 53, 80
4, 54959, Note_on_c, 10, 53, 0
4, 54960, Note_on_c, 10, 53, 80
4, 55199, Note_on_c, 10, 53, 0
4, 55200, Note_on_c, 10, 53, 80
4, 55439, Note_on_c, 10, 53, 0
4, 55440, Note_on_c, 10, 53, 80
4, 55679, Note_on_c, 10, 53, 0
4, 55680, Note_on_c, 10, 53, 80
4, 55919, Note_on_c, 10, 53, 0
4, 55920, Note_on_c, 10, 53, 80
4, 56159, Note_on_c, 10, 53, 0
4, 56160, Note_on_c, 10, 53, 80
4, 56399, Note_on_c, 10, 53, 0
4, 56400, Note_on_c, 10, 53, 80
4, 56639, Note_on_c, 10, 53, 0
4, 56640, Note_on_c, 10, 53, 80
4, 56879, Note_on_c, 10, 53, 0
4, 56880, Note_on_c, 10, 53, 80
4, 57119, Note_on_c, 10, 53, 0
4, 57120, Note_on_c, 10, 53, 80
4, 57359, Note_on_c, 10, 53, 0
4, 57360, Note_on_c, 10, 53, 80
4, 57599, Note_on_c, 10, 53, 0
4, 57600, Note_on_c, 10, 48, 80
4, 57839, Note_on_c, 10, 48, 0
4, 57840, Note_on_c, 10, 48, 80
4, 58079, Note_on_c, 10, 48, 0
4, 58080, Note_on_c, 10, 48, 80
4, 58319, Note_on_c, 10, 48, 0
4, 58320, Note_on_c, 10, 48, 80
4, 58559, Note_on_c, 10, 48, 0
4, 58560, Note_on_c, 10, 48, 80
4, 58799, Note_on_c, 10, 48, 0
4, 58800, Note_on_c, 10, 48, 80
4, 59039, Note_on_c, 10, 48, 0
4, 59040, Note_on_c, 10, 48, 80
4, 59279, Note_on_c, 10, 48, 0
4, 59280, Note_on_c, 10, 48, 80
4, 59519, Note_on_c, 10, 48, 0
4, 59520, Note_on_c, 10, 48, 80
4, 59759, Note_on_c, 10, 48, 0
4, 59760, Note_on_c, 10, 48, 80
4, 59999, Note_on_c, 10, 48, 0
4, 60000, Note_on_c, 10, 48, 80
4, 60239, Note_on_c, 10, 48, 0
4, 60240, Note_on_c, 10, 48, 80
4, 60479, Note_on_c, 10, 48, 0
4, 60480, Note_on_c, 10, 48, 80
4, 60719, Note_on_c, 10, 48, 0
4, 60720, Note_on_c, 10, 48, 80
4, 60959, Note_on_c, 10, 48, 0
4, 60960, Note_on_c, 10, 48, 80
4, 61199, Note_on_c, 10, 48, 0
4, 61200, Note_on_c, 10, 48, 80
4, 61439, Note_on_c, 10, 48, 0
4, 61440, Note_on_c, 10, 52, 80
4, 61679, Note_on_c, 10, 52, 0
4, 61680, Note_on_c, 10, 52, 80
4, 61919, Note_on_c, 10, 52, 0
4, 61920, Note_on_c, 10, 52, 80
4, 62159, Note_on_c, 10, 52, 0
4, 62160, Note_on_c, 10, 52, 80
4, 62399, Note_on_c, 10, 52, 0
4, 62400, Note_on_c, 10, 52, 80
4, 62639, Note_on_c, 10, 52, 0
4, 62640, Note_on_c, 10, 52, 80
4, 62879, Note_on_c, 10, 52, 0
4, 62880, Note_on_c, 10, 52, 80
4, 63119, Note_on_c, 10, 52, 0
4, 63120, Note_on_c, 10, 52, 80
4, 63359, Note_on_c, 10, 52, 0
4, 63360, Note_on_c, 10, 52, 80
4, 63599, Note_on_c, 10, 52, 0
4, 63600, Note_on_c, 10, 52, 80
4, 63839, Note_on_c, 10, 52, 0
4, 63840, Note_on_c, 10, 52, 80
4, 64079, Note_on_c, 10, 52, 0
4, 64080, Note_on_c, 10, 52, 80
4, 64319, Note_on_c, 10, 52, 0
4, 64320, Note_on_c, 10, 52, 80
4, 64559, Note_on_c, 10, 52, 0
4, 64560, Note_on_c, 10, 52, 80
4, 64799, Note_on_c, 10, 52, 0
4, 64800, Note_on_c, 10, 52, 80
4, 65039, Note_on_c, 10, 52, 0
4, 65040, Note_on_c, 10, 52, 80
4, 65279, Note_on_c, 10, 52, 0
4, 65280, Note_on_c, 10, 53, 80
4, 65519, Note_on_c, 10, 53, 0
4, 65520, Note_on_c, 10, 53, 80
4, 65759, Note_on_c, 10, 53, 0
4, 65760, Note_on_c, 10, 53, 80
4, 65999, Note_on_c, 10, 53, 0
4, 66000, Note_on_c, 10, 53, 80
4, 66239, Note_on_c, 10, 53, 0
4, 66240, Note_on_c, 10, 53, 80
4, 66479, Note_on_c, 10, 53, 0
4, 66480, Note_on_c, 10, 53, 80
4, 66719, Note_on_c, 10, 53, 0
4, 66720, Note_on_c, 10, 53, 80
4, 66959, Note_on_c, 10, 53, 0
4, 66960, Note_on_c, 10, 53, 80
4, 67199, Note_on_c, 10, 53, 0
4, 67200, Note_on_c, 10, 53, 80
4, 67439, Note_on_c, 10, 53, 0
4, 67440, Note_on_c, 10, 53, 80
4, 67679, Note_on_c, 10, 53, 0
4, 67680, Note_on_c, 10, 53, 80
4, 67919, Note_on_c, 10, 53, 0
4, 67920, Note_on_c, 10, 53, 80
4, 68159, Note_on_c, 10, 53, 0
4, 68160, Note_on_c, 10, 53, 80
4, 68399, Note_on_c, 10, 53, 0
4, 68400, Note_on_c, 10, 53, 80
4, 68639, Note_on_c, 10, 53, 0
4, 68640, Note_on_c, 10, 53, 80
4, 68879, Note_on_c, 10, 53, 0
4, 68880, Note_on_c, 10, 53, 80
4, 69119, Note_on_c, 10, 53, 0
4, 69120, Note_on_c, 10, 65, 80
4, 71999, Note_on_c, 10, 65, 0
4, 72960, Note_on_c, 10, 50, 80
4, 73199, Note_on_c, 10, 50, 0
4, 73200, Note_on_c, 10, 50, 80
4, 73439, Note_on_c, 10, 50, 0
4, 73440, Note_on_c, 10, 50, 80
4, 73679, Note_on_c, 10, 50, 0
4, 73680, Note_on_c, 10, 50, 80
4, 73919, Note_on_c, 10, 50, 0
4, 73920, Note_on_c, 10, 50, 80
4, 74159, Note_on_c, 10, 50, 0
4, 74160, Note_on_c, 10, 50, 80
4, 74399, Note_on_c, 10, 50, 0
4, 74400, Note_on_c, 10, 50, 80
4, 74639, Note_on_c, 10, 50, 0
4, 74640, Note_on_c, 10, 50, 80
4, 74879, Note_on_c, 10, 50, 0
4, 74880, Note_on_c, 10, 50, 80
4, 75119, Note_on_c, 10, 50, 0
4, 75120, Note_on_c, 10, 50, 80
4, 75359, Note_on_c, 10, 50, 0
4, 75360, Note_on_c, 10, 50, 80
4, 75599, Note_on_c, 10, 50, 0
4, 75600, Note_on_c, 10, 50, 80
4, 75839, Note_on_c, 10, 50, 0
4, 75840, Note_on_c, 10, 50, 80
4, 76079, Note_on_c, 10, 50, 0
4, 76080, Note_on_c, 10, 50, 80
4, 76319, Note_on_c, 10, 50, 0
4, 76320, Note_on_c, 10, 50, 80
4, 76559, Note_on_c, 10, 50, 0
4, 76560, Note_on_c, 10, 50, 80
4, 76799, Note_on_c, 10, 50, 0
4, 76800, Note_on_c, 10, 55, 80
4, 77039, Note_on_c, 10, 55, 0
4, 77040, Note_on_c, 10, 55, 80
4, 77279, Note_on_c, 10, 55, 0
4, 77280, Note_on_c, 10, 55, 80
4, 77519, Note_on_c, 10, 55, 0
4, 77520, Note_on_c, 10, 55, 80
4, 77759, Note_on_c, 10, 55, 0
4, 77760, Note_on_c, 10, 55, 80
4, 77999, Note_on_c, 10, 55, 0
4, 78000, Note_on_c, 10, 55, 80
4, 78239, Note_on_c, 10, 55, 0
4, 78240, Note_on_c, 10, 55, 80
4, 78479, Note_on_c, 10, 55, 0
4, 78480, Note_on_c, 10, 55, 80
4, 78719, Note_on_c, 10, 55, 0
4, 78720, Note_on_c, 10, 55, 80
4, 78959, Note_on_c, 10, 55, 0
4, 78960, Note_on_c, 10, 55, 80
4, 79199, Note_on_c, 10, 55, 0
4, 79200, Note_on_c, 10, 55, 80
4, 79439, Note_on_c, 10, 55, 0
4, 79440, Note_on_c, 10, 55, 80
4, 79679, Note_on_c, 10, 55, 0
4, 79680, Note_on_c, 10, 55, 80
4, 79919, Note_on_c, 10, 55, 0
4, 79920, Note_on_c, 10, 55, 80
4, 80159, Note_on_c, 10, 55, 0
4, 80160, Note_on_c, 10, 55, 80
4, 80399, Note_on_c, 10, 55, 0
4, 80400, Note_on_c, 10, 55, 80
4, 80639, Note_on_c, 10, 55, 0
4, 80640, Note_on_c, 10, 48, 80
4, 80879, Note_on_c, 10, 48, 0
4, 80880, Note_on_c, 10, 48, 80
4, 81119, Note_on_c, 10, 48, 0
4, 81120, Note_on_c, 10, 48, 80
4, 81359, Note_on_c, 10, 48, 0
4, 81360, Note_on_c, 10, 48, 80
4, 81599, Note_on_c, 10, 48, 0
4, 81600, Note_on_c, 10, 48, 80
4, 81839, Note_on_c, 10, 48, 0
4, 81840, Note_on_c, 10, 48, 80
4, 82079, Note_on_c, 10, 48, 0
4, 82080, Note_on_c, 10, 48, 80
4, 82319, Note_on_c, 10, 48, 0
4, 82320, Note_on_c, 10, 48, 80
4, 82559, Note_on_c, 10, 48, 0
4, 82560, Note_on_c, 10, 48, 80
4, 82799, Note_on_c, 10, 48, 0
4, 82800, Note_on_c, 10, 48, 80
4, 83039, Note_on_c, 10, 48, 0
4, 83040, Note_on_c, 10, 48, 80
4, 83279, Note_on_c, 10, 48, 0
4, 83280, Note_on_c, 10, 48, 80
4, 83519, Note_on_c, 10, 48, 0
4, 83520, Note_on_c, 10, 48, 80
4, 83759, Note_on_c, 10, 48, 0
4, 83760, Note_on_c, 10, 48, 80
4, 83999, Note_on_c, 10, 48, 0
4, 84000, Note_on_c, 10, 48, 80
4, 84239, Note_on_c, 10, 48, 0
4, 84240, Note_on_c, 10, 48, 80
4, 84479, Note_on_c, 10, 48, 0
4, 84480, Note_on_c, 10, 52, 80
4, 84719, Note_on_c, 10, 52, 0
4, 84720, Note_on_c, 10, 52, 80
4, 84959, Note_on_c, 10, 52, 0
4, 84960, Note_on_c, 10, 52, 80
4, 85199, Note_on_c, 10, 52, 0
4, 85200, Note_on_c, 10, 52, 80
4, 85439, Note_on_c, 10, 52, 0
4, 85440, Note_on_c, 10, 52, 80
4, 85679, Note_on_c, 10, 52, 0
4, 85680, Note_on_c, 10, 52, 80
4, 85919, Note_on_c, 10, 52, 0
4, 85920, Note_on_c, 10, 52, 80
4, 86159, Note_on_c, 10, 52, 0
4, 86160, Note_on_c, 10, 52, 80
4, 86399, Note_on_c, 10, 52, 0
4, 86400, Note_on_c, 10, 52, 80
4, 86639, Note_on_c, 10, 52, 0
4, 86640, Note_on_c, 10, 52, 80
4, 86879, Note_on_c, 10, 52, 0
4, 86880, Note_on_c, 10, 52, 80
4, 87119, Note_on_c, 10, 52, 0
4, 87120, Note_on_c, 10, 52, 80
4, 87359, Note_on_c, 10, 52, 0
4, 87360, Note_on_c, 10, 52, 80
4, 87599, Note_on_c, 10, 52, 0
4, 87600, Note_on_c, 10, 52, 80
4, 87839, Note_on_c, 10, 52, 0
4, 87840, Note_on_c, 10, 52, 80
4, 88079, Note_on_c, 10, 52, 0
4, 88080, Note_on_c, 10, 52, 80
4, 88319, Note_on_c, 10, 52, 0
4, 88320, Note_on_c, 10, 53, 80
4, 88559, Note_on_c, 10, 53, 0
4, 88560, Note_on_c, 10, 53, 80
4, 88799, Note_on_c, 10, 53, 0
4, 88800, Note_on_c, 10, 53, 80
4, 89039, Note_on_c, 10, 53, 0
4, 89040, Note_on_c, 10, 53, 80
4, 89279, Note_on_c, 10, 53, 0
4, 89280, Note_on_c, 10, 53, 80
4, 89519, Note_on_c, 10, 53, 0
4, 89520, Note_on_c, 10, 53, 80
4, 89759, Note_on_c, 10, 53, 0
4, 89760, Note_on_c, 10, 53, 80
4, 89999, Note_on_c, 10, 53, 0
4, 90000, Note_on_c, 10, 53, 80
4, 90239, Note_on_c, 10, 53, 0
4, 90240, Note_on_c, 10, 53, 80
4, 90479, Note_on_c, 10, 53, 0
4, 90480, Note_on_c, 10, 53, 80
4, 90719, Note_on_c, 10, 53, 0
4, 90720, Note_on_c, 10, 53, 80
4, 90959, Note_on_c, 10, 53, 0
4, 90960, Note_on_c, 10, 53, 80
4, 91199, Note_on_c, 10, 53, 0
4, 91200, Note_on_c, 10, 53, 80
4, 91439, Note_on_c, 10, 53, 0
4, 91440, Note_on_c, 10, 53, 80
4, 91679, Note_on_c, 10, 53, 0
4, 91680, Note_on_c, 10, 53, 80
4, 91919, Note_on_c, 10, 53, 0
4, 91920, Note_on_c, 10, 53, 80
4, 92159, Note_on_c, 10, 53, 0
4, 92160, Note_on_c, 10, 53, 80
4, 92399, Note_on_c, 10, 53, 0
4, 92400, Note_on_c, 10, 53, 80
4, 92639, Note_on_c, 10, 53, 0
4, 92640, Note_on_c, 10, 53, 80
4, 92879, Note_on_c, 10, 53, 0
4, 92880, Note_on_c, 10, 53, 80
4, 93119, Note_on_c, 10, 53, 0
4, 93120, Note_on_c, 10, 53, 80
4, 93359, Note_on_c, 10, 53, 0
4, 93360, Note_on_c, 10, 53, 80
4, 93599, Note_on_c, 10, 53, 0
4, 93600, Note_on_c, 10, 53, 80
4, 93839, Note_on_c, 10, 53, 0
4, 93840, Note_on_c, 10, 53, 80
4, 94079, Note_on_c, 10, 53, 0
4, 94080, Note_on_c, 10, 53, 80
4, 94319, Note_on_c, 10, 53, 0
4, 94320, Note_on_c, 10, 53, 80
4, 94559, Note_on_c, 10, 53, 0
4, 94560, Note_on_c, 10, 53, 80
4, 94799, Note_on_c, 10, 53, 0
4, 94800, Note_on_c, 10, 53, 80
4, 95039, Note_on_c, 10, 53, 0
4, 95040, Note_on_c, 10, 53, 80
4, 95279, Note_on_c, 10, 53, 0
4, 95280, Note_on_c, 10, 53, 80
4, 95519, Note_on_c, 10, 53, 0
4, 95520, Note_on_c, 10, 53, 80
4, 95759, Note_on_c, 10, 53, 0
4, 95760, Note_on_c, 10, 53, 80
4, 95999, Note_on_c, 10, 53, 0
4, 96000, Note_on_c, 10, 48, 80
4, 96239, Note_on_c, 10, 48, 0
4, 96240, Note_on_c, 10, 48, 80
4, 96479, Note_on_c, 10, 48, 0
4, 96480, Note_on_c, 10, 48, 80
4, 96719, Note_on_c, 10, 48, 0
4, 96720, Note_on_c, 10, 48, 80
4, 96959, Note_on_c, 10, 48, 0
4, 96960, Note_on_c, 10, 48, 80
4, 97199, Note_on_c, 10, 48, 0
4, 97200, Note_on_c, 10, 48, 80
4, 97439, Note_on_c, 10, 48, 0
4, 97440, Note_on_c, 10, 48, 80
4, 97679, Note_on_c, 10, 48, 0
4, 97680, Note_on_c, 10, 48, 80
4, 97919, Note_on_c, 10, 48, 0
4, 97920, Note_on_c, 10, 48, 80
4, 98159, Note_on_c, 10, 48, 0
4, 98160, Note_on_c, 10, 48, 80
4, 98399, Note_on_c, 10, 48, 0
4, 98400, Note_on_c, 10, 48, 80
4, 98639, Note_on_c, 10, 48, 0
4, 98640, Note_on_c, 10, 48, 80
4, 98879, Note_on_c, 10, 48, 0
4, 98880, Note_on_c, 10, 48, 80
4, 99119, Note_on_c, 10, 48, 0
4, 99120, Note_on_c, 10, 48, 80
4, 99359, Note_on_c, 10, 48, 0
4, 99360, Note_on_c, 10, 48, 80
4, 99599, Note_on_c, 10, 48, 0
4, 99600, Note_on_c, 10, 48, 80
4, 99839, Note_on_c, 10, 48, 0
4, 99840, Note_on_c, 10, 52, 80
4, 100079, Note_on_c, 10, 52, 0
4, 100080, Note_on_c, 10, 52, 80
4, 100319, Note_on_c, 10, 52, 0
4, 100320, Note_on_c, 10, 52, 80
4, 100559, Note_on_c, 10, 52, 0
4, 100560, Note_on_c, 10, 52, 80
4, 100799, Note_on_c, 10, 52, 0
4, 100800, Note_on_c, 10, 52, 80
4, 101039, Note_on_c, 10, 52, 0
4, 101040, Note_on_c, 10, 52, 80
4, 101279, Note_on_c, 10, 52, 0
4, 101280, Note_on_c, 10, 52, 80
4, 101519, Note_on_c, 10, 52, 0
4, 101520, Note_on_c, 10, 52, 80
4, 101759, Note_on_c, 10, 52, 0
4, 101760, Note_on_c, 10, 52, 80
4, 101999, Note_on_c, 10, 52, 0
4, 102000, Note_on_c, 10, 52, 80
4, 102239, Note_on_c, 10, 52, 0
4, 102240, Note_on_c, 10, 52, 80
4, 102479, Note_on_c, 10, 52, 0
4, 102480, Note_on_c, 10, 52, 80
4, 102719, Note_on_c, 10, 52, 0
4, 102720, Note_on_c, 10, 52, 80
4, 102959, Note_on_c, 10, 52, 0
4, 102960, Note_on_c, 10, 52, 80
4, 103199, Note_on_c, 10, 52, 0
4, 103200, Note_on_c, 10, 52, 80
4, 103439, Note_on_c, 10, 52, 0
4, 103440, Note_on_c, 10, 52, 80
4, 103679, Note_on_c, 10, 52, 0
4, 103680, Note_on_c, 10, 65, 80
4, 105599, Note_on_c, 10, 65, 0
4, 109440, Note_on_c, 10, 60, 80
4, 109919, Note_on_c, 10, 60, 0
4, 109920, Note_on_c, 10, 60, 80
4, 110399, Note_on_c, 10, 60, 0
4, 110400, Note_on_c, 10, 60, 80
4, 110879, Note_on_c, 10, 60, 0
4, 110880, Note_on_c, 10, 60, 80
4, 111359, Note_on_c, 10, 60, 0
4, 111360, Note_on_c, 10, 53, 80
4, 111599, Note_on_c, 10, 53, 0
4, 111600, Note_on_c, 10, 53, 80
4, 111839, Note_on_c, 10, 53, 0
4, 111840, Note_on_c, 10, 53, 80
4, 112079, Note_on_c, 10, 53, 0
4, 112080, Note_on_c, 10, 53, 80
4, 112319, Note_on_c, 10, 53, 0
4, 112320, Note_on_c, 10, 53, 80
4, 112559, Note_on_c, 10, 53, 0
4, 112560, Note_on_c, 10, 53, 80
4, 112799, Note_on_c, 10, 53, 0
4, 112800, Note_on_c, 10, 53, 80
4, 113039, Note_on_c, 10, 53, 0
4, 113040, Note_on_c, 10, 53, 80
4, 113279, Note_on_c, 10, 53, 0
4, 113280, Note_on_c, 10, 65, 80
4, 113519, Note_on_c, 10, 65, 0
4, 113520, Note_on_c, 10, 65, 80
4, 113759, Note_on_c, 10, 65, 0
4, 113760, Note_on_c, 10, 65, 80
4, 113999, Note_on_c, 10, 65, 0
4, 114000, Note_on_c, 10, 65, 80
4, 114239, Note_on_c, 10, 65, 0
4, 114240, Note_on_c, 10, 65, 80
4, 114479, Note_on_c, 10, 65, 0
4, 114480, Note_on_c, 10, 65, 80
4, 114719, Note_on_c, 10, 65, 0
4, 114720, Note_on_c, 10, 65, 80
4, 114959, Note_on_c, 10, 65, 0
4, 114960, Note_on_c, 10, 65, 80
4, 115199, Note_on_c, 10, 65, 0
4, 115200, Note_on_c, 10, 60, 80
4, 115439, Note_on_c, 10, 60, 0
4, 115440, Note_on_c, 10, 60, 80
4, 115679, Note_on_c, 10, 60, 0
4, 115680, Note_on_c, 10, 60, 80
4, 115919, Note_on_c, 10, 60, 0
4, 115920, Note_on_c, 10, 60, 80
4, 116159, Note_on_c, 10, 60, 0
4, 116160, Note_on_c, 10, 60, 80
4, 116399, Note_on_c, 10, 60, 0
4, 116400, Note_on_c, 10, 60, 80
4, 116639, Note_on_c, 10, 60, 0
4, 116640, Note_on_c, 10, 60, 80
4, 116879, Note_on_c, 10, 60, 0
4, 116880, Note_on_c, 10, 60, 80
4, 117119, Note_on_c, 10, 60, 0
4, 117120, Note_on_c, 10, 55, 80
4, 117359, Note_on_c, 10, 55, 0
4, 117360, Note_on_c, 10, 55, 80
4, 117599, Note_on_c, 10, 55, 0
4, 117600, Note_on_c, 10, 55, 80
4, 117839, Note_on_c, 10, 55, 0
4, 117840, Note_on_c, 10, 55, 80
4, 118079, Note_on_c, 10, 55, 0
4, 118080, Note_on_c, 10, 55, 80
4, 118319, Note_on_c, 10, 55, 0
4, 118320, Note_on_c, 10, 55, 80
4, 118559, Note_on_c, 10, 55, 0
4, 118560, Note_on_c, 10, 55, 80
4, 118799, Note_on_c, 10, 55, 0
4, 118800, Note_on_c, 10, 55, 80
4, 119039, Note_on_c, 10, 55, 0
4, 119040, Note_on_c, 10, 53, 80
4, 119279, Note_on_c, 10, 53, 0
4, 119280, Note_on_c, 10, 53, 80
4, 119519, Note_on_c, 10, 53, 0
4, 119520, Note_on_c, 10, 53, 80
4, 119759, Note_on_c, 10, 53, 0
4, 119760, Note_on_c, 10, 53, 80
4, 119999, Note_on_c, 10, 53, 0
4, 120000, Note_on_c, 10, 53, 80
4, 120239, Note_on_c, 10, 53, 0
4, 120240, Note_on_c, 10, 53, 80
4, 120479, Note_on_c, 10, 53, 0
4, 120480, Note_on_c, 10, 53, 80
4, 120719, Note_on_c, 10, 53, 0
4, 120720, Note_on_c, 10, 53, 80
4, 120959, Note_on_c, 10, 53, 0
4, 120960, Note_on_c, 10, 65, 80
4, 121199, Note_on_c, 10, 65, 0
4, 121200, Note_on_c, 10, 65, 80
4, 121439, Note_on_c, 10, 65, 0
4, 121440, Note_on_c, 10, 65, 80
4, 121679, Note_on_c, 10, 65, 0
4, 121680, Note_on_c, 10, 65, 80
4, 121919, Note_on_c, 10, 65, 0
4, 121920, Note_on_c, 10, 65, 80
4, 122159, Note_on_c, 10, 65, 0
4, 122160, Note_on_c, 10, 65, 80
4, 122399, Note_on_c, 10, 65, 0
4, 122400, Note_on_c, 10, 65, 80
4, 122639, Note_on_c, 10, 65, 0
4, 122640, Note_on_c, 10, 65, 80
4, 122879, Note_on_c, 10, 65, 0
4, 122880, Note_on_c, 10, 60, 80
4, 123119, Note_on_c, 10, 60, 0
4, 123120, Note_on_c, 10, 60, 80
4, 123359, Note_on_c, 10, 60, 0
4, 123360, Note_on_c, 10, 60, 80
4, 123599, Note_on_c, 10, 60, 0
4, 123600, Note_on_c, 10, 60, 80
4, 123839, Note_on_c, 10, 60, 0
4, 123840, Note_on_c, 10, 60, 80
4, 124079, Note_on_c, 10, 60, 0
4, 124080, Note_on_c, 10, 60, 80
4, 124319, Note_on_c, 10, 60, 0
4, 124320, Note_on_c, 10, 60, 80
4, 124559, Note_on_c, 10, 60, 0
4, 124560, Note_on_c, 10, 60, 80
4, 124799, Note_on_c, 10, 60, 0
4, 124800, Note_on_c, 10, 55, 80
4, 125039, Note_on_c, 10, 55, 0
4, 125040, Note_on_c, 10, 55, 80
4, 125279, Note_on_c, 10, 55, 0
4, 125280, Note_on_c, 10, 55, 80
4, 125519, Note_on_c, 10, 55, 0
4, 125520, Note_on_c, 10, 55, 80
4, 125759, Note_on_c, 10, 55, 0
4, 125760, Note_on_c, 10, 55, 80
4, 125999, Note_on_c, 10, 55, 0
4, 126000, Note_on_c, 10, 55, 80
4, 126239, Note_on_c, 10, 55, 0
4, 126240, Note_on_c, 10, 55, 80
4, 126479, Note_on_c, 10, 55, 0
4, 126480, Note_on_c, 10, 55, 80
4, 126719, Note_on_c, 10, 55, 0
4, 126720, Note_on_c, 10, 53, 80
4, 126959, Note_on_c, 10, 53, 0
4, 126960, Note_on_c, 10, 53, 80
4, 127199, Note_on_c, 10, 53, 0
4, 127200, Note_on_c, 10, 53, 80
4, 127439, Note_on_c, 10, 53, 0
4, 127440, Note_on_c, 10, 53, 80
4, 127679, Note_on_c, 10, 53, 0
4, 127680, Note_on_c, 10, 53, 80
4, 127919, Note_on_c, 10, 53, 0
4, 127920, Note_on_c, 10, 53, 80
4, 128159, Note_on_c, 10, 53, 0
4, 128160, Note_on_c, 10, 53, 80
4, 128399, Note_on_c, 10, 53, 0
4, 128400, Note_on_c, 10, 53, 80
4, 128639, Note_on_c, 10, 53, 0
4, 128640, Note_on_c, 10, 65, 80
4, 128879, Note_on_c, 10, 65, 0
4, 128880, Note_on_c, 10, 65, 80
4, 129119, Note_on_c, 10, 65, 0
4, 129120, Note_on_c, 10, 65, 80
4, 129359, Note_on_c, 10, 65, 0
4, 129360, Note_on_c, 10, 65, 80
4, 129599, Note_on_c, 10, 65, 0
4, 129600, Note_on_c, 10, 65, 80
4, 129839, Note_on_c, 10, 65, 0
4, 129840, Note_on_c, 10, 65, 80
4, 130079, Note_on_c, 10, 65, 0
4, 130080, Note_on_c, 10, 65, 80
4, 130319, Note_on_c, 10, 65, 0
4, 130320, Note_on_c, 10, 65, 80
4, 130559, Note_on_c, 10, 65, 0
4, 130560, Note_on_c, 10, 60, 80
4, 130799, Note_on_c, 10, 60, 0
4, 130800, Note_on_c, 10, 60, 80
4, 131039, Note_on_c, 10, 60, 0
4, 131040, Note_on_c, 10, 60, 80
4, 131279, Note_on_c, 10, 60, 0
4, 131280, Note_on_c, 10, 60, 80
4, 131519, Note_on_c, 10, 60, 0
4, 131520, Note_on_c, 10, 60, 80
4, 131759, Note_on_c, 10, 60, 0
4, 131760, Note_on_c, 10, 60, 80
4, 131999, Note_on_c, 10, 60, 0
4, 132000, Note_on_c, 10, 60, 80
4, 132239, Note_on_c, 10, 60, 0
4, 132240, Note_on_c, 10, 60, 80
4, 132479, Note_on_c, 10, 60, 0
4, 132480, Note_on_c, 10, 55, 80
4, 132719, Note_on_c, 10, 55, 0
4, 132720, Note_on_c, 10, 55, 80
4, 132959, Note_on_c, 10, 55, 0
4, 132960, Note_on_c, 10, 55, 80
4, 133199, Note_on_c, 10, 55, 0
4, 133200, Note_on_c, 10, 55, 80
4, 133439, Note_on_c, 10, 55, 0
4, 133440, Note_on_c, 10, 55, 80
4, 133679, Note_on_c, 10, 55, 0
4, 133680, Note_on_c, 10, 55, 80
4, 133919, Note_on_c, 10, 55, 0
4, 133920, Note_on_c, 10, 55, 80
4, 134159, Note_on_c, 10, 55, 0
4, 134160, Note_on_c, 10, 55, 80
4, 134399, Note_on_c, 10, 55, 0
4, 134400, Note_on_c, 10, 50, 80
4, 134639, Note_on_c, 10, 50, 0
4, 134640, Note_on_c, 10, 50, 80
4, 134879, Note_on_c, 10, 50, 0
4, 134880, Note_on_c, 10, 50, 80
4, 135119, Note_on_c, 10, 50, 0
4, 135120, Note_on_c, 10, 50, 80
4, 135359, Note_on_c, 10, 50, 0
4, 135360, Note_on_c, 10, 50, 80
4, 135599, Note_on_c, 10, 50, 0
4, 135600, Note_on_c, 10, 50, 80
4, 135839, Note_on_c, 10, 50, 0
4, 135840, Note_on_c, 10, 50, 80
4, 136079, Note_on_c, 10, 50, 0
4, 136080, Note_on_c, 10, 50, 80
4, 136319, Note_on_c, 10, 50, 0
4, 136320, Note_on_c, 10, 50, 80
4, 136559, Note_on_c, 10, 50, 0
4, 136560, Note_on_c, 10, 50, 80
4, 136799, Note_on_c, 10, 50, 0
4, 136800, Note_on_c, 10, 50, 80
4, 137039, Note_on_c, 10, 50, 0
4, 137040, Note_on_c, 10, 50, 80
4, 137279, Note_on_c, 10, 50, 0
4, 137280, Note_on_c, 10, 50, 80
4, 137519, Note_on_c, 10, 50, 0
4, 137520, Note_on_c, 10, 50, 80
4, 137759, Note_on_c, 10, 50, 0
4, 137760, Note_on_c, 10, 50, 80
4, 137999, Note_on_c, 10, 50, 0
4, 138000, Note_on_c, 10, 50, 80
4, 138239, Note_on_c, 10, 50, 0
4, 138240, Note_on_c, 10, 55, 80
4, 138479, Note_on_c, 10, 55, 0
4, 138480, Note_on_c, 10, 55, 80
4, 138719, Note_on_c, 10, 55, 0
4, 138720, Note_on_c, 10, 55, 80
4, 138959, Note_on_c, 10, 55, 0
4, 138960, Note_on_c, 10, 55, 80
4, 139199, Note_on_c, 10, 55, 0
4, 139200, Note_on_c, 10, 55, 80
4, 139439, Note_on_c, 10, 55, 0
4, 139440, Note_on_c, 10, 55, 80
4, 139679, Note_on_c, 10, 55, 0
4, 139680, Note_on_c, 10, 55, 80
4, 139919, Note_on_c, 10, 55, 0
4, 139920, Note_on_c, 10, 55, 80
4, 140159, Note_on_c, 10, 55, 0
4, 140160, Note_on_c, 10, 55, 80
4, 140399, Note_on_c, 10, 55, 0
4, 140400, Note_on_c, 10, 55, 80
4, 140639, Note_on_c, 10, 55, 0
4, 140640, Note_on_c, 10, 55, 80
4, 140879, Note_on_c, 10, 55, 0
4, 140880, Note_on_c, 10, 55, 80
4, 141119, Note_on_c, 10, 55, 0
4, 141120, Note_on_c, 10, 55, 80
4, 141359, Note_on_c, 10, 55, 0
4, 141360, Note_on_c, 10, 55, 80
4, 141599, Note_on_c, 10, 55, 0
4, 141600, Note_on_c, 10, 55, 80
4, 141839, Note_on_c, 10, 55, 0
4, 141840, Note_on_c, 10, 55, 80
4, 142079, Note_on_c, 10, 55, 0
4, 142080, Note_on_c, 10, 48, 80
4, 142319, Note_on_c, 10, 48, 0
4, 142320, Note_on_c, 10, 48, 80
4, 142559, Note_on_c, 10, 48, 0
4, 142560, Note_on_c, 10, 48, 80
4, 142799, Note_on_c, 10, 48, 0
4, 142800, Note_on_c, 10, 48, 80
4, 143039, Note_on_c, 10, 48, 0
4, 143040, Note_on_c, 10, 48, 80
4, 143279, Note_on_c, 10, 48, 0
4, 143280, Note_on_c, 10, 48, 80
4, 143519, Note_on_c, 10, 48, 0
4, 143520, Note_on_c, 10, 48, 80
4, 143759, Note_on_c, 10, 48, 0
4, 143760, Note_on_c, 10, 48, 80
4, 143999, Note_on_c, 10, 48, 0
4, 144000, Note_on_c, 10, 48, 80
4, 144239, Note_on_c, 10, 48, 0
4, 144240, Note_on_c, 10, 48, 80
4, 144479, Note_on_c, 10, 48, 0
4, 144480, Note_on_c, 10, 48, 80
4, 144719, Note_on_c, 10, 48, 0
4, 144720, Note_on_c, 10, 48, 80
4, 144959, Note_on_c, 10, 48, 0
4, 144960, Note_on_c, 10, 48, 80
4, 145199, Note_on_c, 10, 48, 0
4, 145200, Note_on_c, 10, 48, 80
4, 145439, Note_on_c, 10, 48, 0
4, 145440, Note_on_c, 10, 48, 80
4, 145679, Note_on_c, 10, 48, 0
4, 145680, Note_on_c, 10, 48, 80
4, 145919, Note_on_c, 10, 48, 0
4, 145920, Note_on_c, 10, 52, 80
4, 146159, Note_on_c, 10, 52, 0
4, 146160, Note_on_c, 10, 52, 80
4, 146399, Note_on_c, 10, 52, 0
4, 146400, Note_on_c, 10, 52, 80
4, 146639, Note_on_c, 10, 52, 0
4, 146640, Note_on_c, 10, 52, 80
4, 146879, Note_on_c, 10, 52, 0
4, 146880, Note_on_c, 10, 52, 80
4, 147119, Note_on_c, 10, 52, 0
4, 147120, Note_on_c, 10, 52, 80
4, 147359, Note_on_c, 10, 52, 0
4, 147360, Note_on_c, 10, 52, 80
4, 147599, Note_on_c, 10, 52, 0
4, 147600, Note_on_c, 10, 52, 80
4, 147839, Note_on_c, 10, 52, 0
4, 147840, Note_on_c, 10, 52, 80
4, 148079, Note_on_c, 10, 52, 0
4, 148080, Note_on_c, 10, 52, 80
4, 148319, Note_on_c, 10, 52, 0
4, 148320, Note_on_c, 10, 52, 80
4, 148559, Note_on_c, 10, 52, 0
4, 148560, Note_on_c, 10, 52, 80
4, 148799, Note_on_c, 10, 52, 0
4, 148800, Note_on_c, 10, 52, 80
4, 149039, Note_on_c, 10, 52, 0
4, 149040, Note_on_c, 10, 52, 80
4, 149279, Note_on_c, 10, 52, 0
4, 149280, Note_on_c, 10, 52, 80
4, 149519, Note_on_c, 10, 52, 0
4, 149520, Note_on_c, 10, 52, 80
4, 149759, Note_on_c, 10, 52, 0
4, 149760, Note_on_c, 10, 53, 80
4, 149999, Note_on_c, 10, 53, 0
4, 150000, Note_on_c, 10, 53, 80
4, 150239, Note_on_c, 10, 53, 0
4, 150240, Note_on_c, 10, 53, 80
4, 150479, Note_on_c, 10, 53, 0
4, 150480, Note_on_c, 10, 53, 80
4, 150719, Note_on_c, 10, 53, 0
4, 150720, Note_on_c, 10, 53, 80
4, 150959, Note_on_c, 10, 53, 0
4, 150960, Note_on_c, 10, 53, 80
4, 151199, Note_on_c, 10, 53, 0
4, 151200, Note_on_c, 10, 53, 80
4, 151439, Note_on_c, 10, 53, 0
4, 151440, Note_on_c, 10, 53, 80
4, 151679, Note_on_c, 10, 53, 0
4, 151680, Note_on_c, 10, 53, 80
4, 151919, Note_on_c, 10, 53, 0
4, 151920, Note_on_c, 10, 53, 80
4, 152159, Note_on_c, 10, 53, 0
4, 152160, Note_on_c, 10, 53, 80
4, 152399, Note_on_c, 10, 53, 0
4, 152400, Note_on_c, 10, 53, 80
4, 152639, Note_on_c, 10, 53, 0
4, 152640, Note_on_c, 10, 53, 80
4, 152879, Note_on_c, 10, 53, 0
4, 152880, Note_on_c, 10, 53, 80
4, 153119, Note_on_c, 10, 53, 0
4, 153120, Note_on_c, 10, 53, 80
4, 153359, Note_on_c, 10, 53, 0
4, 153360, Note_on_c, 10, 53, 80
4, 153599, Note_on_c, 10, 53, 0
4, 153600, Note_on_c, 10, 53, 80
4, 153839, Note_on_c, 10, 53, 0
4, 153840, Note_on_c, 10, 53, 80
4, 154079, Note_on_c, 10, 53, 0
4, 154080, Note_on_c, 10, 53, 80
4, 154319, Note_on_c, 10, 53, 0
4, 154320, Note_on_c, 10, 53, 80
4, 154559, Note_on_c, 10, 53, 0
4, 154560, Note_on_c, 10, 53, 80
4, 154799, Note_on_c, 10, 53, 0
4, 154800, Note_on_c, 10, 53, 80
4, 155039, Note_on_c, 10, 53, 0
4, 155040, Note_on_c, 10, 53, 80
4, 155279, Note_on_c, 10, 53, 0
4, 155280, Note_on_c, 10, 53, 80
4, 155519, Note_on_c, 10, 53, 0
4, 155520, Note_on_c, 10, 53, 80
4, 155759, Note_on_c, 10, 53, 0
4, 155760, Note_on_c, 10, 53, 80
4, 155999, Note_on_c, 10, 53, 0
4, 156000, Note_on_c, 10, 53, 80
4, 156239, Note_on_c, 10, 53, 0
4, 156240, Note_on_c, 10, 53, 80
4, 156479, Note_on_c, 10, 53, 0
4, 156480, Note_on_c, 10, 53, 80
4, 156719, Note_on_c, 10, 53, 0
4, 156720, Note_on_c, 10, 53, 80
4, 156959, Note_on_c, 10, 53, 0
4, 156960, Note_on_c, 10, 53, 80
4, 157199, Note_on_c, 10, 53, 0
4, 157200, Note_on_c, 10, 53, 80
4, 157439, Note_on_c, 10, 53, 0
4, 157440, Note_on_c, 10, 48, 80
4, 157679, Note_on_c, 10, 48, 0
4, 157680, Note_on_c, 10, 48, 80
4, 157919, Note_on_c, 10, 48, 0
4, 157920, Note_on_c, 10, 48, 80
4, 158159, Note_on_c, 10, 48, 0
4, 158160, Note_on_c, 10, 48, 80
4, 158399, Note_on_c, 10, 48, 0
4, 158400, Note_on_c, 10, 48, 80
4, 158639, Note_on_c, 10, 48, 0
4, 158640, Note_on_c, 10, 48, 80
4, 158879, Note_on_c, 10, 48, 0
4, 158880, Note_on_c, 10, 48, 80
4, 159119, Note_on_c, 10, 48, 0
4, 159120, Note_on_c, 10, 48, 80
4, 159359, Note_on_c, 10, 48, 0
4, 159360, Note_on_c, 10, 48, 80
4, 159599, Note_on_c, 10, 48, 0
4, 159600, Note_on_c, 10, 48, 80
4, 159839, Note_on_c, 10, 48, 0
4, 159840, Note_on_c, 10, 48, 80
4, 160079, Note_on_c, 10, 48, 0
4, 160080, Note_on_c, 10, 48, 80
4, 160319, Note_on_c, 10, 48, 0
4, 160320, Note_on_c, 10, 48, 80
4, 160559, Note_on_c, 10, 48, 0
4, 160560, Note_on_c, 10, 48, 80
4, 160799, Note_on_c, 10, 48, 0
4, 160800, Note_on_c, 10, 48, 80
4, 161039, Note_on_c, 10, 48, 0
4, 161040, Note_on_c, 10, 48, 80
4, 161279, Note_on_c, 10, 48, 0
4, 161280, Note_on_c, 10, 52, 80
4, 161519, Note_on_c, 10, 52, 0
4, 161520, Note_on_c, 10, 52, 80
4, 161759, Note_on_c, 10, 52, 0
4, 161760, Note_on_c, 10, 52, 80
4, 161999, Note_on_c, 10, 52, 0
4, 162000, Note_on_c, 10, 52, 80
4, 162239, Note_on_c, 10, 52, 0
4, 162240, Note_on_c, 10, 52, 80
4, 162479, Note_on_c, 10, 52, 0
4, 162480, Note_on_c, 10, 52, 80
4, 162719, Note_on_c, 10, 52, 0
4, 162720, Note_on_c, 10, 52, 80
4, 162959, Note_on_c, 10, 52, 0
4, 162960, Note_on_c, 10, 52, 80
4, 163199, Note_on_c, 10, 52, 0
4, 163200, Note_on_c, 10, 52, 80
4, 163439, Note_on_c, 10, 52, 0
4, 163440, Note_on_c, 10, 52, 80
4, 163679, Note_on_c, 10, 52, 0
4, 163680, Note_on_c, 10, 52, 80
4, 163919, Note_on_c, 10, 52, 0
4, 163920, Note_on_c, 10, 52, 80
4, 164159, Note_on_c, 10, 52, 0
4, 164160, Note_on_c, 10, 52, 80
4, 164399, Note_on_c, 10, 52, 0
4, 164400, Note_on_c, 10, 52, 80
4, 164639, Note_on_c, 10, 52, 0
4, 164640, Note_on_c, 10, 52, 80
4, 164879, Note_on_c, 10, 52, 0
4, 164880, Note_on_c, 10, 52, 80
4, 165119, Note_on_c, 10, 52, 0
4, 165120, Note_on_c, 10, 65, 80
4, 167039, Note_on_c, 10, 65, 0
4, 167040, End_track
0, 0, End_of_file
