0, 0, Header, 1, 3, 480
1, 0, Start_track
1, 0, Title_t, "Piano, Piano, Piano\000"
1, 0, Time_signature, 2, 2, 24, 8
1, 0, Key_signature, 0, "major"
1, 0, Tempo, 833333
1, 0, Control_c, 0, 121, 0
1, 0, Program_c, 0, 0
1, 0, Control_c, 0, 7, 100
1, 0, Control_c, 0, 10, 64
1, 0, Control_c, 0, 91, 0
1, 0, Control_c, 0, 93, 0
1, 0, MIDI_port, 0
1, 0, Note_on_c, 0, 79, 80
1, 0, Note_on_c, 0, 74, 80
1, 120, Note_on_c, 0, 67, 80
1, 179, Note_on_c, 0, 74, 0
1, 233, Note_on_c, 0, 67, 0
1, 240, Note_on_c, 0, 74, 80
1, 341, Note_on_c, 0, 79, 0
1, 353, Note_on_c, 0, 74, 0
1, 360, Note_on_c, 0, 79, 80
1, 360, Note_on_c, 0, 72, 80
1, 587, Note_on_c, 0, 72, 0
1, 600, Note_on_c, 0, 67, 80
1, 713, Note_on_c, 0, 67, 0
1, 720, Note_on_c, 0, 74, 80
1, 929, Note_on_c, 0, 79, 0
1, 947, Note_on_c, 0, 74, 0
1, 960, Note_on_c, 0, 79, 80
1, 960, Note_on_c, 0, 72, 80
1, 1080, Note_on_c, 0, 67, 80
1, 1139, Note_on_c, 0, 72, 0
1, 1193, Note_on_c, 0, 67, 0
1, 1200, Note_on_c, 0, 72, 80
1, 1301, Note_on_c, 0, 79, 0
1, 1313, Note_on_c, 0, 72, 0
1, 1320, Note_on_c, 0, 79, 80
1, 1320, Note_on_c, 0, 72, 80
1, 1547, Note_on_c, 0, 72, 0
1, 1560, Note_on_c, 0, 67, 80
1, 1673, Note_on_c, 0, 67, 0
1, 1680, Note_on_c, 0, 72, 80
1, 1889, Note_on_c, 0, 79, 0
1, 1907, Note_on_c, 0, 72, 0
1, 1920, Note_on_c, 0, 74, 80
1, 1920, Note_on_c, 0, 79, 80
1, 2040, Note_on_c, 0, 72, 80
1, 2153, Note_on_c, 0, 72, 0
1, 2159, Note_on_c, 0, 74, 0
1, 2159, Note_on_c, 0, 79, 0
1, 2160, Note_on_c, 0, 71, 80
1, 2273, Note_on_c, 0, 71, 0
1, 2280, Note_on_c, 0, 69, 80
1, 2507, Note_on_c, 0, 69, 0
1, 2520, Note_on_c, 0, 71, 80
1, 2633, Note_on_c, 0, 71, 0
1, 2640, Note_on_c, 0, 69, 80
1, 2867, Note_on_c, 0, 69, 0
1, 2880, Note_on_c, 0, 67, 80
1, 3335, Note_on_c, 0, 67, 0
1, 3360, Note_on_c, 0, 71, 80
1, 3360, Note_on_c, 0, 74, 80
1, 3360, Note_on_c, 0, 79, 80
1, 3815, Note_on_c, 0, 71, 0
1, 3815, Note_on_c, 0, 74, 0
1, 3815, Note_on_c, 0, 79, 0
1, 3840, Note_on_c, 0, 76, 80
1, 3840, Note_on_c, 0, 67, 80
1, 3840, Note_on_c, 0, 72, 80
1, 3953, Note_on_c, 0, 76, 0
1, 3960, Note_on_c, 0, 74, 80
1, 4073, Note_on_c, 0, 74, 0
1, 4080, Note_on_c, 0, 76, 80
1, 4193, Note_on_c, 0, 76, 0
1, 4200, Note_on_c, 0, 72, 0
1, 4200, Note_on_c, 0, 72, 80
1, 4200, Note_on_c, 0, 79, 80
1, 4295, Note_on_c, 0, 67, 0
1, 4427, Note_on_c, 0, 72, 0
1, 4427, Note_on_c, 0, 79, 0
1, 4440, Note_on_c, 0, 76, 80
1, 4553, Note_on_c, 0, 76, 0
1, 4560, Note_on_c, 0, 72, 80
1, 4673, Note_on_c, 0, 72, 0
1, 4680, Note_on_c, 0, 67, 80
1, 4793, Note_on_c, 0, 67, 0
1, 4800, Note_on_c, 0, 69, 80
1, 4913, Note_on_c, 0, 69, 0
1, 4920, Note_on_c, 0, 67, 80
1, 5033, Note_on_c, 0, 67, 0
1, 5040, Note_on_c, 0, 69, 80
1, 5153, Note_on_c, 0, 69, 0
1, 5160, Note_on_c, 0, 67, 80
1, 5160, Note_on_c, 0, 72, 80
1, 5160, Note_on_c, 0, 76, 80
1, 5729, Note_on_c, 0, 67, 0
1, 5729, Note_on_c, 0, 72, 0
1, 5729, Note_on_c, 0, 76, 0
1, 5760, Note_on_c, 0, 76, 80
1, 5760, Note_on_c, 0, 67, 80
1, 5760, Note_on_c, 0, 72, 80
1, 5873, Note_on_c, 0, 76, 0
1, 5880, Note_on_c, 0, 74, 80
1, 5999, Note_on_c, 0, 74, 0
1, 6000, Note_on_c, 0, 76, 80
1, 6120, Note_on_c, 0, 81, 80
1, 6215, Note_on_c, 0, 67, 0
1, 6215, Note_on_c, 0, 72, 0
1, 6347, Note_on_c, 0, 81, 0
1, 6360, Note_on_c, 0, 79, 80
1, 6455, Note_on_c, 0, 76, 0
1, 6473, Note_on_c, 0, 79, 0
1, 6480, Note_on_c, 0, 76, 80
1, 6599, Note_on_c, 0, 76, 0
1, 6600, Note_on_c, 0, 77, 80
1, 6720, Note_on_c, 0, 69, 80
1, 6720, Note_on_c, 0, 74, 80
1, 6840, Note_on_c, 0, 76, 80
1, 7067, Note_on_c, 0, 76, 0
1, 7080, Note_on_c, 0, 65, 80
1, 7080, Note_on_c, 0, 69, 0
1, 7080, Note_on_c, 0, 69, 80
1, 7080, Note_on_c, 0, 74, 0
1, 7080, Note_on_c, 0, 74, 80
1, 7169, Note_on_c, 0, 77, 0
1, 7649, Note_on_c, 0, 65, 0
1, 7649, Note_on_c, 0, 69, 0
1, 7649, Note_on_c, 0, 74, 0
1, 7680, Tempo, 821918
1, 7680, Note_on_c, 0, 77, 80
1, 7680, Note_on_c, 0, 69, 80
1, 7680, Note_on_c, 0, 74, 80
1, 7793, Note_on_c, 0, 77, 0
1, 7800, Note_on_c, 0, 76, 80
1, 7913, Note_on_c, 0, 76, 0
1, 7920, Note_on_c, 0, 77, 80
1, 8033, Note_on_c, 0, 77, 0
1, 8040, Note_on_c, 0, 81, 80
1, 8135, Note_on_c, 0, 69, 0
1, 8135, Note_on_c, 0, 74, 0
1, 8267, Note_on_c, 0, 81, 0
1, 8280, Note_on_c, 0, 77, 80
1, 8393, Note_on_c, 0, 77, 0
1, 8400, Note_on_c, 0, 74, 80
1, 8513, Note_on_c, 0, 74, 0
1, 8520, Note_on_c, 0, 69, 80
1, 8633, Note_on_c, 0, 69, 0
1, 8640, Note_on_c, 0, 72, 80
1, 8640, Note_on_c, 0, 65, 80
1, 8640, Note_on_c, 0, 69, 80
1, 8753, Note_on_c, 0, 72, 0
1, 8760, Note_on_c, 0, 71, 80
1, 8880, Note_on_c, 0, 72, 80
1, 8939, Note_on_c, 0, 71, 0
1, 8981, Note_on_c, 0, 65, 0
1, 8981, Note_on_c, 0, 69, 0
1, 9000, Note_on_c, 0, 69, 80
1, 9000, Note_on_c, 0, 77, 80
1, 9563, Note_on_c, 0, 72, 0
1, 9569, Note_on_c, 0, 69, 0
1, 9569, Note_on_c, 0, 77, 0
1, 9600, Note_on_c, 0, 65, 80
1, 9600, Note_on_c, 0, 69, 80
1, 9720, Note_on_c, 0, 67, 80
1, 9833, Note_on_c, 0, 67, 0
1, 9839, Note_on_c, 0, 65, 0
1, 9839, Note_on_c, 0, 69, 0
1, 9840, Note_on_c, 0, 69, 80
1, 9953, Note_on_c, 0, 69, 0
1, 9960, Note_on_c, 0, 77, 80
1, 10187, Note_on_c, 0, 77, 0
1, 10200, Note_on_c, 0, 74, 80
1, 10313, Note_on_c, 0, 74, 0
1, 10320, Note_on_c, 0, 71, 80
1, 10320, Note_on_c, 0, 76, 80
1, 10547, Note_on_c, 0, 71, 0
1, 10547, Note_on_c, 0, 76, 0
1, 10560, Note_on_c, 0, 64, 80
1, 10560, Note_on_c, 0, 67, 80
1, 10560, Note_on_c, 0, 72, 80
1, 10901, Note_on_c, 0, 64, 0
1, 10901, Note_on_c, 0, 67, 0
1, 10901, Note_on_c, 0, 72, 0
1, 10920, Note_on_c, 0, 64, 80
1, 10920, Note_on_c, 0, 67, 80
1, 11147, Note_on_c, 0, 64, 0
1, 11147, Note_on_c, 0, 67, 0
1, 11160, Note_on_c, 0, 64, 80
1, 11160, Note_on_c, 0, 67, 80
1, 11273, Note_on_c, 0, 64, 0
1, 11273, Note_on_c, 0, 67, 0
1, 11280, Note_on_c, 0, 62, 80
1, 11280, Note_on_c, 0, 65, 80
1, 11507, Note_on_c, 0, 62, 0
1, 11507, Note_on_c, 0, 65, 0
1, 11520, Note_on_c, 0, 76, 80
1, 11520, Note_on_c, 0, 67, 80
1, 11520, Note_on_c, 0, 72, 80
1, 11633, Note_on_c, 0, 76, 0
1, 11640, Note_on_c, 0, 74, 80
1, 11753, Note_on_c, 0, 74, 0
1, 11760, Note_on_c, 0, 76, 80
1, 11873, Note_on_c, 0, 76, 0
1, 11880, Note_on_c, 0, 79, 80
1, 11975, Note_on_c, 0, 67, 0
1, 11975, Note_on_c, 0, 72, 0
1, 12107, Note_on_c, 0, 79, 0
1, 12120, Note_on_c, 0, 76, 80
1, 12233, Note_on_c, 0, 76, 0
1, 12240, Note_on_c, 0, 72, 80
1, 12353, Note_on_c, 0, 72, 0
1, 12360, Note_on_c, 0, 67, 80
1, 12473, Note_on_c, 0, 67, 0
1, 12480, Note_on_c, 0, 69, 80
1, 12593, Note_on_c, 0, 69, 0
1, 12600, Note_on_c, 0, 67, 80
1, 12713, Note_on_c, 0, 67, 0
1, 12720, Note_on_c, 0, 69, 80
1, 12833, Note_on_c, 0, 69, 0
1, 12840, Note_on_c, 0, 67, 80
1, 12840, Note_on_c, 0, 72, 80
1, 12840, Note_on_c, 0, 76, 80
1, 13409, Note_on_c, 0, 67, 0
1, 13409, Note_on_c, 0, 72, 0
1, 13409, Note_on_c, 0, 76, 0
1, 13440, Note_on_c, 0, 76, 80
1, 13440, Note_on_c, 0, 67, 80
1, 13440, Note_on_c, 0, 72, 80
1, 13560, Note_on_c, 0, 74, 80
1, 13619, Note_on_c, 0, 76, 0
1, 13680, Note_on_c, 0, 76, 80
1, 13739, Note_on_c, 0, 74, 0
1, 13800, Note_on_c, 0, 81, 80
1, 13895, Note_on_c, 0, 67, 0
1, 13895, Note_on_c, 0, 72, 0
1, 14027, Note_on_c, 0, 81, 0
1, 14039, Note_on_c, 0, 76, 0
1, 14040, Note_on_c, 0, 79, 80
1, 14153, Note_on_c, 0, 79, 0
1, 14160, Note_on_c, 0, 76, 80
1, 14273, Note_on_c, 0, 76, 0
1, 14280, Note_on_c, 0, 79, 80
1, 14393, Note_on_c, 0, 79, 0
1, 14400, Note_on_c, 0, 69, 80
1, 14400, Note_on_c, 0, 74, 80
1, 14400, Note_on_c, 0, 77, 80
1, 14627, Note_on_c, 0, 69, 0
1, 14627, Note_on_c, 0, 74, 0
1, 14627, Note_on_c, 0, 77, 0
1, 14640, Note_on_c, 0, 65, 80
1, 14640, Note_on_c, 0, 69, 80
1, 14753, Note_on_c, 0, 65, 0
1, 14753, Note_on_c, 0, 69, 0
1, 14760, Note_on_c, 0, 69, 80
1, 14987, Note_on_c, 0, 69, 0
1, 15000, Note_on_c, 0, 71, 80
1, 15113, Note_on_c, 0, 71, 0
1, 15120, Note_on_c, 0, 72, 80
1, 15233, Note_on_c, 0, 72, 0
1, 15240, Note_on_c, 0, 74, 80
1, 15353, Note_on_c, 0, 74, 0
1, 15360, Note_on_c, 0, 72, 80
1, 15360, Note_on_c, 0, 76, 80
1, 15473, Note_on_c, 0, 72, 0
1, 15473, Note_on_c, 0, 76, 0
1, 15480, Note_on_c, 0, 67, 80
1, 15593, Note_on_c, 0, 67, 0
1, 15600, Note_on_c, 0, 69, 80
1, 15713, Note_on_c, 0, 69, 0
1, 15720, Note_on_c, 0, 76, 80
1, 15720, Note_on_c, 0, 79, 80
1, 15947, Note_on_c, 0, 76, 0
1, 15947, Note_on_c, 0, 79, 0
1, 15960, Note_on_c, 0, 67, 80
1, 16073, Note_on_c, 0, 67, 0
1, 16080, Note_on_c, 0, 69, 80
1, 16193, Note_on_c, 0, 69, 0
1, 16200, Note_on_c, 0, 76, 80
1, 16200, Note_on_c, 0, 79, 80
1, 16427, Note_on_c, 0, 76, 0
1, 16427, Note_on_c, 0, 79, 0
1, 16440, Note_on_c, 0, 67, 80
1, 16553, Note_on_c, 0, 67, 0
1, 16560, Note_on_c, 0, 74, 80
1, 16560, Note_on_c, 0, 77, 80
1, 16787, Note_on_c, 0, 74, 0
1, 16787, Note_on_c, 0, 77, 0
1, 16800, Note_on_c, 0, 69, 80
1, 16800, Note_on_c, 0, 72, 80
1, 16800, Note_on_c, 0, 76, 80
1, 17255, Note_on_c, 0, 69, 0
1, 17255, Note_on_c, 0, 72, 0
1, 17255, Note_on_c, 0, 76, 0
1, 17280, Note_on_c, 0, 67, 80
1, 17280, Note_on_c, 0, 72, 80
1, 17280, Note_on_c, 0, 74, 80
1, 17393, Note_on_c, 0, 67, 0
1, 17393, Note_on_c, 0, 72, 0
1, 17393, Note_on_c, 0, 74, 0
1, 17400, Note_on_c, 0, 74, 80
1, 17513, Note_on_c, 0, 74, 0
1, 17520, Note_on_c, 0, 72, 80
1, 17633, Note_on_c, 0, 72, 0
1, 17640, Note_on_c, 0, 67, 80
1, 17753, Note_on_c, 0, 67, 0
1, 17760, Note_on_c, 0, 65, 80
1, 17760, Note_on_c, 0, 69, 80
1, 17760, Note_on_c, 0, 72, 80
1, 17873, Note_on_c, 0, 65, 0
1, 17873, Note_on_c, 0, 69, 0
1, 17873, Note_on_c, 0, 72, 0
1, 17880, Note_on_c, 0, 65, 80
1, 17880, Note_on_c, 0, 69, 80
1, 17880, Note_on_c, 0, 72, 80
1, 18107, Note_on_c, 0, 65, 0
1, 18107, Note_on_c, 0, 69, 0
1, 18107, Note_on_c, 0, 72, 0
1, 18120, Note_on_c, 0, 64, 80
1, 18120, Note_on_c, 0, 67, 80
1, 18120, Note_on_c, 0, 72, 80
1, 18233, Note_on_c, 0, 64, 0
1, 18233, Note_on_c, 0, 67, 0
1, 18233, Note_on_c, 0, 72, 0
1, 19140, Note_on_c, 0, 72, 80
1, 19167, Note_on_c, 0, 72, 0
1, 19170, Note_on_c, 0, 74, 80
1, 19197, Note_on_c, 0, 74, 0
1, 19200, Note_on_c, 0, 67, 80
1, 19200, Note_on_c, 0, 72, 80
1, 19200, Note_on_c, 0, 76, 80
1, 19541, Note_on_c, 0, 67, 0
1, 19541, Note_on_c, 0, 72, 0
1, 19541, Note_on_c, 0, 76, 0
1, 19560, Note_on_c, 0, 72, 80
1, 19560, Note_on_c, 0, 79, 80
1, 19787, Note_on_c, 0, 72, 0
1, 19787, Note_on_c, 0, 79, 0
1, 19800, Note_on_c, 0, 76, 80
1, 19913, Note_on_c, 0, 76, 0
1, 19920, Note_on_c, 0, 72, 80
1, 20033, Note_on_c, 0, 72, 0
1, 20040, Note_on_c, 0, 67, 80
1, 20115, Note_on_c, 0, 67, 0
1, 20140, Note_on_c, 0, 67, 80
1, 20145, Note_on_c, 0, 69, 80
1, 20158, Note_on_c, 0, 67, 0
1, 20158, Note_on_c, 0, 69, 0
1, 20160, Note_on_c, 0, 69, 80
1, 20244, Note_on_c, 0, 69, 0
1, 20250, Note_on_c, 0, 67, 80
1, 20277, Note_on_c, 0, 67, 0
1, 20280, Note_on_c, 0, 69, 80
1, 20507, Note_on_c, 0, 69, 0
1, 20520, Note_on_c, 0, 72, 80
1, 20520, Note_on_c, 0, 67, 80
1, 20520, Note_on_c, 0, 76, 80
1, 20975, Note_on_c, 0, 72, 0
1, 21051, Note_on_c, 0, 67, 0
1, 21051, Note_on_c, 0, 76, 0
1, 21080, Note_on_c, 0, 72, 80
1, 21098, Note_on_c, 0, 72, 0
1, 21100, Note_on_c, 0, 74, 80
1, 21118, Note_on_c, 0, 74, 0
1, 21120, Note_on_c, 0, 76, 80
1, 21233, Note_on_c, 0, 76, 0
1, 21240, Note_on_c, 0, 79, 80
1, 21353, Note_on_c, 0, 79, 0
1, 21360, Note_on_c, 0, 76, 80
1, 21473, Note_on_c, 0, 76, 0
1, 21480, Note_on_c, 0, 79, 80
1, 21593, Note_on_c, 0, 79, 0
1, 21600, Note_on_c, 0, 76, 80
1, 21600, Note_on_c, 0, 81, 80
1, 21713, Note_on_c, 0, 76, 0
1, 21713, Note_on_c, 0, 81, 0
1, 21720, Note_on_c, 0, 79, 80
1, 21833, Note_on_c, 0, 79, 0
1, 21840, Note_on_c, 0, 76, 80
1, 21953, Note_on_c, 0, 76, 0
1, 21960, Note_on_c, 0, 79, 80
1, 22073, Note_on_c, 0, 79, 0
1, 22080, Note_on_c, 0, 69, 80
1, 22080, Note_on_c, 0, 74, 80
1, 22080, Note_on_c, 0, 77, 80
1, 22139, Note_on_c, 0, 69, 0
1, 22139, Note_on_c, 0, 74, 0
1, 22139, Note_on_c, 0, 77, 0
1, 22200, Note_on_c, 0, 67, 80
1, 22200, Note_on_c, 0, 76, 80
1, 22319, Note_on_c, 0, 67, 0
1, 22319, Note_on_c, 0, 76, 0
1, 22440, Note_on_c, 0, 65, 80
1, 22440, Note_on_c, 0, 69, 80
1, 22440, Note_on_c, 0, 74, 80
1, 22667, Note_on_c, 0, 65, 0
1, 22667, Note_on_c, 0, 69, 0
1, 22667, Note_on_c, 0, 74, 0
1, 22680, Note_on_c, 0, 71, 80
1, 22793, Note_on_c, 0, 71, 0
1, 22800, Note_on_c, 0, 69, 80
1, 22913, Note_on_c, 0, 69, 0
1, 22920, Note_on_c, 0, 65, 80
1, 23033, Note_on_c, 0, 65, 0
1, 23040, Note_on_c, 0, 69, 80
1, 23040, Note_on_c, 0, 74, 80
1, 23040, Note_on_c, 0, 77, 80
1, 23153, Note_on_c, 0, 69, 0
1, 23153, Note_on_c, 0, 74, 0
1, 23153, Note_on_c, 0, 77, 0
1, 23160, Note_on_c, 0, 76, 80
1, 23273, Note_on_c, 0, 76, 0
1, 23280, Note_on_c, 0, 77, 80
1, 23393, Note_on_c, 0, 77, 0
1, 23400, Note_on_c, 0, 81, 80
1, 23627, Note_on_c, 0, 81, 0
1, 23640, Note_on_c, 0, 77, 80
1, 23753, Note_on_c, 0, 77, 0
1, 23760, Note_on_c, 0, 74, 80
1, 23873, Note_on_c, 0, 74, 0
1, 23880, Note_on_c, 0, 69, 80
1, 23993, Note_on_c, 0, 69, 0
1, 24000, Note_on_c, 0, 65, 80
1, 24000, Note_on_c, 0, 72, 80
1, 24113, Note_on_c, 0, 65, 0
1, 24113, Note_on_c, 0, 72, 0
1, 24120, Note_on_c, 0, 71, 80
1, 24233, Note_on_c, 0, 71, 0
1, 24240, Note_on_c, 0, 72, 80
1, 24353, Note_on_c, 0, 72, 0
1, 24360, Note_on_c, 0, 69, 80
1, 24360, Note_on_c, 0, 77, 80
1, 24891, Note_on_c, 0, 69, 0
1, 24891, Note_on_c, 0, 77, 0
1, 24915, Note_on_c, 0, 65, 80
1, 24936, Note_on_c, 0, 65, 0
1, 24940, Note_on_c, 0, 67, 80
1, 24958, Note_on_c, 0, 67, 0
1, 24960, Note_on_c, 0, 69, 80
1, 25073, Note_on_c, 0, 69, 0
1, 25080, Note_on_c, 0, 67, 80
1, 25193, Note_on_c, 0, 67, 0
1, 25200, Note_on_c, 0, 69, 80
1, 25313, Note_on_c, 0, 69, 0
1, 25320, Note_on_c, 0, 69, 80
1, 25320, Note_on_c, 0, 77, 80
1, 25547, Note_on_c, 0, 69, 0
1, 25547, Note_on_c, 0, 77, 0
1, 25560, Note_on_c, 0, 74, 80
1, 25673, Note_on_c, 0, 74, 0
1, 25680, Note_on_c, 0, 76, 80
1, 25907, Note_on_c, 0, 76, 0
1, 25920, Note_on_c, 0, 64, 80
1, 25920, Note_on_c, 0, 67, 80
1, 25920, Note_on_c, 0, 72, 80
1, 26261, Note_on_c, 0, 64, 0
1, 26261, Note_on_c, 0, 67, 0
1, 26261, Note_on_c, 0, 72, 0
1, 26280, Note_on_c, 0, 64, 80
1, 26280, Note_on_c, 0, 67, 80
1, 26507, Note_on_c, 0, 64, 0
1, 26507, Note_on_c, 0, 67, 0
1, 26520, Note_on_c, 0, 64, 80
1, 26520, Note_on_c, 0, 67, 80
1, 26639, Note_on_c, 0, 64, 0
1, 26639, Note_on_c, 0, 67, 0
1, 26640, Note_on_c, 0, 62, 80
1, 26640, Note_on_c, 0, 65, 80
1, 26840, Note_on_c, 0, 72, 80
1, 26858, Note_on_c, 0, 72, 0
1, 26860, Note_on_c, 0, 74, 80
1, 26867, Note_on_c, 0, 62, 0
1, 26867, Note_on_c, 0, 65, 0
1, 26878, Note_on_c, 0, 74, 0
1, 26880, Note_on_c, 0, 76, 80
1, 26993, Note_on_c, 0, 76, 0
1, 27000, Note_on_c, 0, 74, 80
1, 27113, Note_on_c, 0, 74, 0
1, 27120, Note_on_c, 0, 76, 80
1, 27233, Note_on_c, 0, 76, 0
1, 27240, Note_on_c, 0, 72, 80
1, 27240, Note_on_c, 0, 79, 80
1, 27467, Note_on_c, 0, 72, 0
1, 27467, Note_on_c, 0, 79, 0
1, 27480, Note_on_c, 0, 76, 80
1, 27593, Note_on_c, 0, 76, 0
1, 27600, Note_on_c, 0, 72, 80
1, 27789, Note_on_c, 0, 72, 0
1, 27820, Note_on_c, 0, 67, 80
1, 27838, Note_on_c, 0, 67, 0
1, 27840, Note_on_c, 0, 69, 80
1, 27953, Note_on_c, 0, 69, 0
1, 27960, Note_on_c, 0, 67, 80
1, 28073, Note_on_c, 0, 67, 0
1, 28080, Note_on_c, 0, 69, 80
1, 28193, Note_on_c, 0, 69, 0
1, 28200, Note_on_c, 0, 72, 80
1, 28200, Note_on_c, 0, 67, 80
1, 28200, Note_on_c, 0, 76, 80
1, 28655, Note_on_c, 0, 72, 0
1, 28731, Note_on_c, 0, 67, 0
1, 28731, Note_on_c, 0, 76, 0
1, 28755, Note_on_c, 0, 72, 80
1, 28776, Note_on_c, 0, 72, 0
1, 28780, Note_on_c, 0, 74, 80
1, 28798, Note_on_c, 0, 74, 0
1, 28800, Note_on_c, 0, 76, 80
1, 28913, Note_on_c, 0, 76, 0
1, 28920, Note_on_c, 0, 74, 80
1, 29033, Note_on_c, 0, 74, 0
1, 29040, Note_on_c, 0, 76, 80
1, 29153, Note_on_c, 0, 76, 0
1, 29160, Note_on_c, 0, 81, 80
1, 29387, Note_on_c, 0, 81, 0
1, 29400, Note_on_c, 0, 79, 80
1, 29513, Note_on_c, 0, 79, 0
1, 29520, Note_on_c, 0, 76, 80
1, 29633, Note_on_c, 0, 76, 0
1, 29640, Note_on_c, 0, 79, 80
1, 29753, Note_on_c, 0, 79, 0
1, 29760, Note_on_c, 0, 69, 80
1, 29760, Note_on_c, 0, 74, 80
1, 29760, Note_on_c, 0, 77, 80
1, 29987, Note_on_c, 0, 69, 0
1, 29987, Note_on_c, 0, 74, 0
1, 29987, Note_on_c, 0, 77, 0
1, 30000, Note_on_c, 0, 69, 80
1, 30113, Note_on_c, 0, 69, 0
1, 30120, Note_on_c, 0, 69, 80
1, 30347, Note_on_c, 0, 69, 0
1, 30360, Note_on_c, 0, 71, 80
1, 30473, Note_on_c, 0, 71, 0
1, 30480, Note_on_c, 0, 72, 80
1, 30593, Note_on_c, 0, 72, 0
1, 30600, Note_on_c, 0, 74, 80
1, 30713, Note_on_c, 0, 74, 0
1, 30720, Note_on_c, 0, 72, 80
1, 30720, Note_on_c, 0, 76, 80
1, 30833, Note_on_c, 0, 72, 0
1, 30833, Note_on_c, 0, 76, 0
1, 30840, Note_on_c, 0, 67, 80
1, 30953, Note_on_c, 0, 67, 0
1, 30960, Note_on_c, 0, 69, 80
1, 31073, Note_on_c, 0, 69, 0
1, 31080, Note_on_c, 0, 76, 80
1, 31080, Note_on_c, 0, 79, 80
1, 31307, Note_on_c, 0, 76, 0
1, 31307, Note_on_c, 0, 79, 0
1, 31320, Note_on_c, 0, 67, 80
1, 31433, Note_on_c, 0, 67, 0
1, 31440, Note_on_c, 0, 69, 80
1, 31553, Note_on_c, 0, 69, 0
1, 31560, Note_on_c, 0, 76, 80
1, 31560, Note_on_c, 0, 79, 80
1, 31787, Note_on_c, 0, 76, 0
1, 31787, Note_on_c, 0, 79, 0
1, 31800, Note_on_c, 0, 67, 80
1, 31913, Note_on_c, 0, 67, 0
1, 31920, Note_on_c, 0, 74, 80
1, 31920, Note_on_c, 0, 77, 80
1, 32147, Note_on_c, 0, 74, 0
1, 32147, Note_on_c, 0, 77, 0
1, 32160, Note_on_c, 0, 69, 80
1, 32160, Note_on_c, 0, 72, 80
1, 32160, Note_on_c, 0, 76, 80
1, 32615, Note_on_c, 0, 69, 0
1, 32615, Note_on_c, 0, 72, 0
1, 32615, Note_on_c, 0, 76, 0
1, 32640, Note_on_c, 0, 67, 80
1, 32640, Note_on_c, 0, 72, 80
1, 32640, Note_on_c, 0, 74, 80
1, 32699, Note_on_c, 0, 67, 0
1, 32699, Note_on_c, 0, 72, 0
1, 32699, Note_on_c, 0, 74, 0
1, 32760, Note_on_c, 0, 74, 80
1, 32873, Note_on_c, 0, 74, 0
1, 32880, Note_on_c, 0, 72, 80
1, 32993, Note_on_c, 0, 72, 0
1, 33000, Note_on_c, 0, 67, 80
1, 33113, Note_on_c, 0, 67, 0
1, 33120, Note_on_c, 0, 65, 80
1, 33120, Note_on_c, 0, 69, 80
1, 33120, Note_on_c, 0, 72, 80
1, 33233, Note_on_c, 0, 65, 0
1, 33233, Note_on_c, 0, 69, 0
1, 33233, Note_on_c, 0, 72, 0
1, 33240, Note_on_c, 0, 65, 80
1, 33240, Note_on_c, 0, 69, 80
1, 33240, Note_on_c, 0, 72, 80
1, 33467, Note_on_c, 0, 65, 0
1, 33467, Note_on_c, 0, 69, 0
1, 33467, Note_on_c, 0, 72, 0
1, 33480, Note_on_c, 0, 64, 80
1, 33480, Note_on_c, 0, 67, 80
1, 33480, Note_on_c, 0, 72, 80
1, 33707, Note_on_c, 0, 64, 0
1, 33707, Note_on_c, 0, 67, 0
1, 33707, Note_on_c, 0, 72, 0
1, 33720, Note_on_c, 0, 60, 80
1, 33720, Note_on_c, 0, 64, 80
1, 33947, Note_on_c, 0, 60, 0
1, 33947, Note_on_c, 0, 64, 0
1, 33960, Note_on_c, 0, 60, 80
1, 34073, Note_on_c, 0, 60, 0
1, 34080, Note_on_c, 0, 62, 80
1, 34080, Note_on_c, 0, 65, 80
1, 34307, Note_on_c, 0, 62, 0
1, 34307, Note_on_c, 0, 65, 0
1, 34320, Note_on_c, 0, 64, 80
1, 34320, Note_on_c, 0, 67, 80
1, 34547, Note_on_c, 0, 64, 0
1, 34547, Note_on_c, 0, 67, 0
1, 34560, Note_on_c, 0, 76, 80
1, 34560, Note_on_c, 0, 79, 80
1, 34673, Note_on_c, 0, 76, 0
1, 34673, Note_on_c, 0, 79, 0
1, 34680, Note_on_c, 0, 67, 80
1, 34793, Note_on_c, 0, 67, 0
1, 34800, Note_on_c, 0, 69, 80
1, 34913, Note_on_c, 0, 69, 0
1, 34920, Note_on_c, 0, 76, 80
1, 34920, Note_on_c, 0, 79, 80
1, 35147, Note_on_c, 0, 76, 0
1, 35147, Note_on_c, 0, 79, 0
1, 35160, Note_on_c, 0, 67, 80
1, 35273, Note_on_c, 0, 67, 0
1, 35280, Note_on_c, 0, 69, 80
1, 35393, Note_on_c, 0, 69, 0
1, 35400, Note_on_c, 0, 76, 80
1, 35400, Note_on_c, 0, 79, 80
1, 35627, Note_on_c, 0, 76, 0
1, 35627, Note_on_c, 0, 79, 0
1, 35640, Note_on_c, 0, 67, 80
1, 35753, Note_on_c, 0, 67, 0
1, 35760, Note_on_c, 0, 74, 80
1, 35760, Note_on_c, 0, 77, 80
1, 35987, Note_on_c, 0, 74, 0
1, 35987, Note_on_c, 0, 77, 0
1, 36000, Note_on_c, 0, 69, 80
1, 36000, Note_on_c, 0, 72, 80
1, 36000, Note_on_c, 0, 76, 80
1, 36455, Note_on_c, 0, 69, 0
1, 36455, Note_on_c, 0, 72, 0
1, 36455, Note_on_c, 0, 76, 0
1, 36480, Note_on_c, 0, 72, 80
1, 36593, Note_on_c, 0, 72, 0
1, 36600, Note_on_c, 0, 74, 80
1, 36713, Note_on_c, 0, 74, 0
1, 36720, Note_on_c, 0, 72, 80
1, 36833, Note_on_c, 0, 72, 0
1, 36840, Note_on_c, 0, 67, 80
1, 36953, Note_on_c, 0, 67, 0
1, 36960, Note_on_c, 0, 65, 80
1, 36960, Note_on_c, 0, 69, 80
1, 36960, Note_on_c, 0, 72, 80
1, 37073, Note_on_c, 0, 65, 0
1, 37073, Note_on_c, 0, 69, 0
1, 37073, Note_on_c, 0, 72, 0
1, 37080, Note_on_c, 0, 65, 80
1, 37080, Note_on_c, 0, 69, 80
1, 37080, Note_on_c, 0, 72, 80
1, 37259, Note_on_c, 0, 65, 0
1, 37259, Note_on_c, 0, 69, 0
1, 37259, Note_on_c, 0, 72, 0
1, 37320, Note_on_c, 0, 67, 80
1, 37440, Note_on_c, 0, 64, 80
1, 37440, Note_on_c, 0, 72, 80
1, 37661, Note_on_c, 0, 67, 0
1, 37679, Note_on_c, 0, 64, 0
1, 37679, Note_on_c, 0, 72, 0
1, 38355, Note_on_c, 0, 69, 80
1, 38376, Note_on_c, 0, 69, 0
1, 38380, Note_on_c, 0, 71, 80
1, 38398, Note_on_c, 0, 71, 0
1, 38400, Note_on_c, 0, 72, 82
1, 38513, Note_on_c, 0, 72, 0
1, 38520, Note_on_c, 0, 65, 82
1, 38633, Note_on_c, 0, 65, 0
1, 38640, Note_on_c, 0, 69, 82
1, 38753, Note_on_c, 0, 69, 0
1, 38760, Note_on_c, 0, 72, 82
1, 38873, Note_on_c, 0, 72, 0
1, 38880, Note_on_c, 0, 71, 82
1, 38993, Note_on_c, 0, 71, 0
1, 39000, Note_on_c, 0, 64, 82
1, 39113, Note_on_c, 0, 64, 0
1, 39120, Note_on_c, 0, 69, 82
1, 39233, Note_on_c, 0, 69, 0
1, 39240, Note_on_c, 0, 71, 82
1, 39353, Note_on_c, 0, 71, 0
1, 39360, Note_on_c, 0, 69, 82
1, 39473, Note_on_c, 0, 69, 0
1, 39480, Note_on_c, 0, 64, 82
1, 39480, Note_on_c, 0, 67, 82
1, 39707, Note_on_c, 0, 64, 0
1, 39707, Note_on_c, 0, 67, 0
1, 39720, Note_on_c, 0, 67, 82
1, 39720, Note_on_c, 0, 72, 82
1, 39720, Note_on_c, 0, 76, 82
1, 39947, Note_on_c, 0, 67, 0
1, 39947, Note_on_c, 0, 72, 0
1, 39947, Note_on_c, 0, 76, 0
1, 39960, Note_on_c, 0, 67, 82
1, 40073, Note_on_c, 0, 67, 0
1, 40080, Note_on_c, 0, 72, 82
1, 40193, Note_on_c, 0, 72, 0
1, 40200, Note_on_c, 0, 76, 82
1, 40313, Note_on_c, 0, 76, 0
1, 40320, Note_on_c, 0, 71, 82
1, 40320, Note_on_c, 0, 77, 82
1, 40433, Note_on_c, 0, 71, 0
1, 40433, Note_on_c, 0, 77, 0
1, 40440, Note_on_c, 0, 65, 82
1, 40440, Note_on_c, 0, 71, 82
1, 40440, Note_on_c, 0, 74, 82
1, 40667, Note_on_c, 0, 65, 0
1, 40667, Note_on_c, 0, 71, 0
1, 40667, Note_on_c, 0, 74, 0
1, 40680, Note_on_c, 0, 71, 82
1, 40680, Note_on_c, 0, 74, 82
1, 40680, Note_on_c, 0, 79, 82
1, 40907, Note_on_c, 0, 71, 0
1, 40907, Note_on_c, 0, 74, 0
1, 40907, Note_on_c, 0, 79, 0
1, 40920, Note_on_c, 0, 67, 82
1, 41033, Note_on_c, 0, 67, 0
1, 41040, Note_on_c, 0, 71, 82
1, 41153, Note_on_c, 0, 71, 0
1, 41160, Note_on_c, 0, 74, 82
1, 41273, Note_on_c, 0, 74, 0
1, 41280, Note_on_c, 0, 79, 80
1, 41317, Note_on_c, 0, 79, 0
1, 41320, Note_on_c, 0, 81, 82
1, 41395, Note_on_c, 0, 81, 0
1, 41400, Note_on_c, 0, 76, 82
1, 41400, Note_on_c, 0, 79, 82
1, 41627, Note_on_c, 0, 76, 0
1, 41627, Note_on_c, 0, 79, 0
1, 41640, Note_on_c, 0, 76, 82
1, 41640, Note_on_c, 0, 67, 82
1, 41699, Note_on_c, 0, 76, 0
1, 41867, Note_on_c, 0, 67, 0
1, 41880, Note_on_c, 0, 74, 82
1, 41993, Note_on_c, 0, 74, 0
1, 42000, Note_on_c, 0, 67, 82
1, 42000, Note_on_c, 0, 72, 82
1, 42113, Note_on_c, 0, 67, 0
1, 42113, Note_on_c, 0, 72, 0
1, 42120, Note_on_c, 0, 65, 82
1, 42233, Note_on_c, 0, 65, 0
1, 42240, Note_on_c, 0, 69, 82
1, 42240, Note_on_c, 0, 72, 82
1, 42353, Note_on_c, 0, 69, 0
1, 42353, Note_on_c, 0, 72, 0
1, 42360, Note_on_c, 0, 65, 82
1, 42473, Note_on_c, 0, 65, 0
1, 42480, Note_on_c, 0, 69, 82
1, 42593, Note_on_c, 0, 69, 0
1, 42600, Note_on_c, 0, 74, 82
1, 42827, Note_on_c, 0, 74, 0
1, 42840, Note_on_c, 0, 69, 80
1, 42840, Note_on_c, 0, 72, 82
1, 42953, Note_on_c, 0, 69, 0
1, 42953, Note_on_c, 0, 72, 0
1, 42960, Note_on_c, 0, 74, 82
1, 43187, Note_on_c, 0, 74, 0
1, 43200, Note_on_c, 0, 76, 82
1, 43313, Note_on_c, 0, 76, 0
1, 43320, Note_on_c, 0, 67, 82
1, 43320, Note_on_c, 0, 72, 82
1, 43547, Note_on_c, 0, 67, 0
1, 43547, Note_on_c, 0, 72, 0
1, 43560, Note_on_c, 0, 72, 82
1, 43560, Note_on_c, 0, 76, 82
1, 43560, Note_on_c, 0, 81, 82
1, 43787, Note_on_c, 0, 72, 0
1, 43787, Note_on_c, 0, 76, 0
1, 43787, Note_on_c, 0, 81, 0
1, 43800, Note_on_c, 0, 69, 82
1, 43913, Note_on_c, 0, 69, 0
1, 43920, Note_on_c, 0, 72, 82
1, 44033, Note_on_c, 0, 72, 0
1, 44040, Note_on_c, 0, 76, 82
1, 44153, Note_on_c, 0, 76, 0
1, 44160, Note_on_c, 0, 83, 82
1, 44273, Note_on_c, 0, 83, 0
1, 44280, Note_on_c, 0, 79, 82
1, 44393, Note_on_c, 0, 79, 0
1, 44400, Note_on_c, 0, 76, 82
1, 44513, Note_on_c, 0, 76, 0
1, 44520, Note_on_c, 0, 79, 82
1, 44747, Note_on_c, 0, 79, 0
1, 44760, Note_on_c, 0, 76, 80
1, 44873, Note_on_c, 0, 76, 0
1, 44880, Note_on_c, 0, 71, 82
1, 44999, Note_on_c, 0, 71, 0
1, 45000, Note_on_c, 0, 67, 82
1, 45120, Note_on_c, 0, 71, 82
1, 45120, Note_on_c, 0, 76, 82
1, 45233, Note_on_c, 0, 71, 0
1, 45233, Note_on_c, 0, 76, 0
1, 45240, Note_on_c, 0, 76, 82
1, 45353, Note_on_c, 0, 76, 0
1, 45360, Note_on_c, 0, 74, 80
1, 45473, Note_on_c, 0, 74, 0
1, 45480, Note_on_c, 0, 76, 82
1, 45569, Note_on_c, 0, 67, 0
1, 45593, Note_on_c, 0, 76, 0
1, 45600, Note_on_c, 0, 79, 82
1, 45713, Note_on_c, 0, 79, 0
1, 45720, Note_on_c, 0, 76, 82
1, 45833, Note_on_c, 0, 76, 0
1, 45840, Note_on_c, 0, 72, 82
1, 45953, Note_on_c, 0, 72, 0
1, 45960, Note_on_c, 0, 69, 82
1, 46073, Note_on_c, 0, 69, 0
1, 46080, Note_on_c, 0, 65, 82
1, 46080, Note_on_c, 0, 69, 82
1, 46080, Note_on_c, 0, 74, 82
1, 46193, Note_on_c, 0, 65, 0
1, 46193, Note_on_c, 0, 69, 0
1, 46193, Note_on_c, 0, 74, 0
1, 46200, Note_on_c, 0, 65, 82
1, 46313, Note_on_c, 0, 65, 0
1, 46320, Note_on_c, 0, 69, 82
1, 46433, Note_on_c, 0, 69, 0
1, 46440, Note_on_c, 0, 71, 82
1, 46440, Note_on_c, 0, 76, 82
1, 46667, Note_on_c, 0, 71, 0
1, 46667, Note_on_c, 0, 76, 0
1, 46680, Note_on_c, 0, 65, 82
1, 46680, Note_on_c, 0, 74, 82
1, 46793, Note_on_c, 0, 65, 0
1, 46793, Note_on_c, 0, 74, 0
1, 46800, Note_on_c, 0, 71, 82
1, 46913, Note_on_c, 0, 71, 0
1, 46920, Note_on_c, 0, 67, 82
1, 47033, Note_on_c, 0, 67, 0
1, 47040, Note_on_c, 0, 72, 80
1, 47040, Note_on_c, 0, 76, 82
1, 47153, Note_on_c, 0, 72, 0
1, 47153, Note_on_c, 0, 76, 0
1, 47160, Note_on_c, 0, 76, 82
1, 47160, Note_on_c, 0, 72, 80
1, 47400, Note_on_c, 0, 79, 82
1, 47501, Note_on_c, 0, 72, 0
1, 47615, Note_on_c, 0, 76, 0
1, 47627, Note_on_c, 0, 79, 0
1, 47640, Note_on_c, 0, 67, 82
1, 47753, Note_on_c, 0, 67, 0
1, 47760, Note_on_c, 0, 72, 80
1, 47873, Note_on_c, 0, 72, 0
1, 47880, Note_on_c, 0, 79, 82
1, 47993, Note_on_c, 0, 79, 0
1, 48000, Note_on_c, 0, 74, 82
1, 48000, Note_on_c, 0, 77, 82
1, 48113, Note_on_c, 0, 74, 0
1, 48113, Note_on_c, 0, 77, 0
1, 48120, Note_on_c, 0, 74, 82
1, 48120, Note_on_c, 0, 77, 82
1, 48347, Note_on_c, 0, 74, 0
1, 48347, Note_on_c, 0, 77, 0
1, 48360, Note_on_c, 0, 83, 82
1, 48587, Note_on_c, 0, 83, 0
1, 48600, Note_on_c, 0, 71, 82
1, 48713, Note_on_c, 0, 71, 0
1, 48720, Note_on_c, 0, 81, 82
1, 48833, Note_on_c, 0, 81, 0
1, 48840, Note_on_c, 0, 83, 82
1, 48953, Note_on_c, 0, 83, 0
1, 48960, Note_on_c, 0, 72, 82
1, 48960, Note_on_c, 0, 76, 82
1, 48960, Note_on_c, 0, 79, 82
1, 49073, Note_on_c, 0, 72, 0
1, 49073, Note_on_c, 0, 76, 0
1, 49073, Note_on_c, 0, 79, 0
1, 49080, Note_on_c, 0, 72, 82
1, 49080, Note_on_c, 0, 76, 82
1, 49080, Note_on_c, 0, 79, 82
1, 49307, Note_on_c, 0, 72, 0
1, 49307, Note_on_c, 0, 76, 0
1, 49307, Note_on_c, 0, 79, 0
1, 49320, Note_on_c, 0, 76, 82
1, 49320, Note_on_c, 0, 84, 82
1, 49547, Note_on_c, 0, 76, 0
1, 49547, Note_on_c, 0, 84, 0
1, 49560, Note_on_c, 0, 72, 82
1, 49673, Note_on_c, 0, 72, 0
1, 49680, Note_on_c, 0, 76, 82
1, 49793, Note_on_c, 0, 76, 0
1, 49800, Note_on_c, 0, 79, 80
1, 49913, Note_on_c, 0, 79, 0
1, 49920, Note_on_c, 0, 74, 82
1, 49920, Note_on_c, 0, 77, 82
1, 49920, Note_on_c, 0, 83, 82
1, 50033, Note_on_c, 0, 74, 0
1, 50033, Note_on_c, 0, 77, 0
1, 50033, Note_on_c, 0, 83, 0
1, 50040, Note_on_c, 0, 84, 82
1, 50267, Note_on_c, 0, 84, 0
1, 50280, Note_on_c, 0, 83, 82
1, 50507, Note_on_c, 0, 83, 0
1, 50520, Note_on_c, 0, 84, 82
1, 50633, Note_on_c, 0, 84, 0
1, 50640, Note_on_c, 0, 81, 82
1, 50753, Note_on_c, 0, 81, 0
1, 50760, Note_on_c, 0, 76, 80
1, 50873, Note_on_c, 0, 76, 0
1, 50880, Note_on_c, 0, 79, 82
1, 51000, Note_on_c, 0, 72, 82
1, 51000, Note_on_c, 0, 76, 82
1, 51227, Note_on_c, 0, 72, 0
1, 51227, Note_on_c, 0, 76, 0
1, 51240, Note_on_c, 0, 77, 82
1, 51335, Note_on_c, 0, 79, 0
1, 51467, Note_on_c, 0, 77, 0
1, 51480, Note_on_c, 0, 76, 82
1, 51593, Note_on_c, 0, 76, 0
1, 51600, Note_on_c, 0, 69, 82
1, 51675, Note_on_c, 0, 69, 0
1, 51680, Note_on_c, 0, 67, 80
1, 51755, Note_on_c, 0, 67, 0
1, 51760, Note_on_c, 0, 65, 80
1, 51835, Note_on_c, 0, 65, 0
1, 51840, Note_on_c, 0, 64, 80
1, 51960, Note_on_c, 0, 69, 82
1, 51960, Note_on_c, 0, 72, 82
1, 51960, Note_on_c, 0, 76, 82
1, 52187, Note_on_c, 0, 69, 0
1, 52187, Note_on_c, 0, 72, 0
1, 52187, Note_on_c, 0, 76, 0
1, 52200, Note_on_c, 0, 65, 82
1, 52295, Note_on_c, 0, 64, 0
1, 52313, Note_on_c, 0, 65, 0
1, 52320, Note_on_c, 0, 74, 82
1, 52433, Note_on_c, 0, 74, 0
1, 52440, Note_on_c, 0, 71, 82
1, 52553, Note_on_c, 0, 71, 0
1, 52560, Note_on_c, 0, 67, 82
1, 52673, Note_on_c, 0, 67, 0
1, 52680, Note_on_c, 0, 74, 82
1, 52793, Note_on_c, 0, 74, 0
1, 52800, Note_on_c, 0, 69, 82
1, 52800, Note_on_c, 0, 72, 82
1, 53255, Note_on_c, 0, 69, 0
1, 53255, Note_on_c, 0, 72, 0
1, 53760, Tempo, 810811
1, 53760, Note_on_c, 0, 67, 82
1, 53760, Note_on_c, 0, 72, 82
1, 53760, Note_on_c, 0, 76, 82
1, 53873, Note_on_c, 0, 67, 0
1, 53873, Note_on_c, 0, 72, 0
1, 53873, Note_on_c, 0, 76, 0
1, 53880, Note_on_c, 0, 74, 80
1, 53993, Note_on_c, 0, 74, 0
1, 54000, Note_on_c, 0, 76, 82
1, 54113, Note_on_c, 0, 76, 0
1, 54120, Note_on_c, 0, 72, 82
1, 54120, Note_on_c, 0, 79, 82
1, 54347, Note_on_c, 0, 72, 0
1, 54347, Note_on_c, 0, 79, 0
1, 54360, Note_on_c, 0, 76, 82
1, 54473, Note_on_c, 0, 76, 0
1, 54480, Note_on_c, 0, 72, 82
1, 54593, Note_on_c, 0, 72, 0
1, 54600, Note_on_c, 0, 67, 82
1, 54656, Note_on_c, 0, 67, 0
1, 54690, Note_on_c, 0, 69, 80
1, 54717, Note_on_c, 0, 69, 0
1, 54840, Note_on_c, 0, 67, 82
1, 54953, Note_on_c, 0, 67, 0
1, 54960, Note_on_c, 0, 69, 82
1, 55079, Note_on_c, 0, 69, 0
1, 55080, Note_on_c, 0, 72, 82
1, 55080, Note_on_c, 0, 76, 82
1, 55080, Note_on_c, 0, 67, 82
1, 55307, Note_on_c, 0, 72, 0
1, 55307, Note_on_c, 0, 76, 0
1, 55340, Note_on_c, 0, 76, 82
1, 55360, Note_on_c, 0, 72, 82
1, 55400, Note_on_c, 0, 69, 82
1, 55421, Note_on_c, 0, 67, 0
1, 55437, Note_on_c, 0, 69, 0
1, 55440, Note_on_c, 0, 67, 82
1, 55662, Note_on_c, 0, 76, 0
1, 55663, Note_on_c, 0, 72, 0
1, 55667, Note_on_c, 0, 67, 0
1, 55680, Note_on_c, 0, 67, 82
1, 55680, Note_on_c, 0, 72, 82
1, 55680, Note_on_c, 0, 76, 82
1, 55793, Note_on_c, 0, 67, 0
1, 55793, Note_on_c, 0, 72, 0
1, 55793, Note_on_c, 0, 76, 0
1, 55800, Note_on_c, 0, 74, 80
1, 55913, Note_on_c, 0, 74, 0
1, 55920, Note_on_c, 0, 76, 82
1, 56033, Note_on_c, 0, 76, 0
1, 56040, Note_on_c, 0, 81, 82
1, 56267, Note_on_c, 0, 81, 0
1, 56280, Note_on_c, 0, 79, 82
1, 56393, Note_on_c, 0, 79, 0
1, 56400, Note_on_c, 0, 76, 82
1, 56513, Note_on_c, 0, 76, 0
1, 56520, Note_on_c, 0, 79, 82
1, 56633, Note_on_c, 0, 79, 0
1, 56640, Note_on_c, 0, 69, 82
1, 56640, Note_on_c, 0, 77, 82
1, 56753, Note_on_c, 0, 69, 0
1, 56753, Note_on_c, 0, 77, 0
1, 56760, Note_on_c, 0, 74, 82
1, 56873, Note_on_c, 0, 74, 0
1, 56880, Note_on_c, 0, 67, 82
1, 56880, Note_on_c, 0, 76, 82
1, 56999, Note_on_c, 0, 67, 0
1, 56999, Note_on_c, 0, 76, 0
1, 57000, Note_on_c, 0, 69, 82
1, 57000, Note_on_c, 0, 74, 82
1, 57000, Note_on_c, 0, 65, 82
1, 57227, Note_on_c, 0, 69, 0
1, 57227, Note_on_c, 0, 74, 0
1, 57260, Note_on_c, 0, 74, 82
1, 57269, Note_on_c, 0, 74, 0
1, 57280, Note_on_c, 0, 69, 82
1, 57320, Note_on_c, 0, 65, 0
1, 57320, Note_on_c, 0, 65, 82
1, 57360, Note_on_c, 0, 62, 82
1, 57473, Note_on_c, 0, 62, 0
1, 57525, Note_on_c, 0, 69, 0
1, 57525, Note_on_c, 0, 69, 82
1, 57555, Note_on_c, 0, 74, 82
1, 57568, Note_on_c, 0, 74, 0
1, 57570, Note_on_c, 0, 76, 82
1, 57583, Note_on_c, 0, 69, 0
1, 57585, Note_on_c, 0, 65, 0
1, 57597, Note_on_c, 0, 76, 0
1, 57600, Note_on_c, 0, 77, 82
1, 57713, Note_on_c, 0, 77, 0
1, 57720, Note_on_c, 0, 76, 82
1, 57833, Note_on_c, 0, 76, 0
1, 57840, Note_on_c, 0, 77, 82
1, 57953, Note_on_c, 0, 77, 0
1, 57960, Note_on_c, 0, 81, 82
1, 58187, Note_on_c, 0, 81, 0
1, 58200, Note_on_c, 0, 77, 82
1, 58313, Note_on_c, 0, 77, 0
1, 58320, Note_on_c, 0, 74, 80
1, 58433, Note_on_c, 0, 74, 0
1, 58440, Note_on_c, 0, 69, 82
1, 58553, Note_on_c, 0, 69, 0
1, 58560, Note_on_c, 0, 65, 82
1, 58560, Note_on_c, 0, 69, 82
1, 58560, Note_on_c, 0, 72, 82
1, 58673, Note_on_c, 0, 65, 0
1, 58673, Note_on_c, 0, 69, 0
1, 58673, Note_on_c, 0, 72, 0
1, 58680, Note_on_c, 0, 71, 82
1, 58793, Note_on_c, 0, 71, 0
1, 58800, Note_on_c, 0, 72, 82
1, 58913, Note_on_c, 0, 72, 0
1, 58920, Note_on_c, 0, 69, 82
1, 58920, Note_on_c, 0, 77, 82
1, 59147, Note_on_c, 0, 77, 0
1, 59160, Note_on_c, 0, 65, 82
1, 59261, Note_on_c, 0, 69, 0
1, 59280, Note_on_c, 0, 69, 82
1, 59280, Note_on_c, 0, 72, 82
1, 59280, Note_on_c, 0, 77, 82
1, 59501, Note_on_c, 0, 65, 0
1, 59507, Note_on_c, 0, 69, 0
1, 59507, Note_on_c, 0, 72, 0
1, 59507, Note_on_c, 0, 77, 0
1, 59520, Note_on_c, 0, 65, 82
1, 59520, Note_on_c, 0, 69, 82
1, 59633, Note_on_c, 0, 65, 0
1, 59633, Note_on_c, 0, 69, 0
1, 59640, Note_on_c, 0, 67, 80
1, 59753, Note_on_c, 0, 67, 0
1, 59760, Note_on_c, 0, 69, 82
1, 59873, Note_on_c, 0, 69, 0
1, 59880, Note_on_c, 0, 69, 82
1, 59880, Note_on_c, 0, 72, 82
1, 59880, Note_on_c, 0, 77, 82
1, 60107, Note_on_c, 0, 69, 0
1, 60107, Note_on_c, 0, 72, 0
1, 60107, Note_on_c, 0, 77, 0
1, 60120, Note_on_c, 0, 72, 80
1, 60233, Note_on_c, 0, 72, 0
1, 60240, Note_on_c, 0, 74, 82
1, 60353, Note_on_c, 0, 74, 0
1, 60360, Note_on_c, 0, 72, 80
1, 60473, Note_on_c, 0, 72, 0
1, 60480, Note_on_c, 0, 67, 82
1, 60480, Note_on_c, 0, 76, 82
1, 60593, Note_on_c, 0, 67, 0
1, 60593, Note_on_c, 0, 76, 0
1, 60600, Note_on_c, 0, 62, 82
1, 60600, Note_on_c, 0, 65, 82
1, 60713, Note_on_c, 0, 62, 0
1, 60713, Note_on_c, 0, 65, 0
1, 60720, Note_on_c, 0, 64, 82
1, 60720, Note_on_c, 0, 67, 82
1, 60833, Note_on_c, 0, 64, 0
1, 60833, Note_on_c, 0, 67, 0
1, 60840, Note_on_c, 0, 65, 82
1, 60840, Note_on_c, 0, 69, 82
1, 60953, Note_on_c, 0, 65, 0
1, 60953, Note_on_c, 0, 69, 0
1, 60960, Note_on_c, 0, 64, 82
1, 60960, Note_on_c, 0, 67, 82
1, 61073, Note_on_c, 0, 64, 0
1, 61073, Note_on_c, 0, 67, 0
1, 61080, Note_on_c, 0, 62, 82
1, 61080, Note_on_c, 0, 65, 82
1, 61193, Note_on_c, 0, 62, 0
1, 61193, Note_on_c, 0, 65, 0
1, 61200, Note_on_c, 0, 60, 82
1, 61200, Note_on_c, 0, 64, 82
1, 61319, Note_on_c, 0, 60, 0
1, 61319, Note_on_c, 0, 64, 0
1, 61320, Note_on_c, 0, 67, 82
1, 61440, Note_on_c, 0, 72, 82
1, 61440, Note_on_c, 0, 76, 82
1, 61553, Note_on_c, 0, 72, 0
1, 61553, Note_on_c, 0, 76, 0
1, 61560, Note_on_c, 0, 74, 80
1, 61673, Note_on_c, 0, 74, 0
1, 61680, Note_on_c, 0, 76, 82
1, 61793, Note_on_c, 0, 76, 0
1, 61800, Note_on_c, 0, 72, 82
1, 61800, Note_on_c, 0, 79, 82
1, 61889, Note_on_c, 0, 67, 0
1, 62027, Note_on_c, 0, 72, 0
1, 62027, Note_on_c, 0, 79, 0
1, 62040, Note_on_c, 0, 76, 82
1, 62153, Note_on_c, 0, 76, 0
1, 62160, Note_on_c, 0, 72, 82
1, 62273, Note_on_c, 0, 72, 0
1, 62280, Note_on_c, 0, 65, 82
1, 62336, Note_on_c, 0, 65, 0
1, 62340, Note_on_c, 0, 67, 82
1, 62396, Note_on_c, 0, 67, 0
1, 62400, Note_on_c, 0, 69, 82
1, 62513, Note_on_c, 0, 69, 0
1, 62520, Note_on_c, 0, 67, 80
1, 62633, Note_on_c, 0, 67, 0
1, 62640, Note_on_c, 0, 69, 82
1, 62753, Note_on_c, 0, 69, 0
1, 62760, Note_on_c, 0, 67, 82
1, 62760, Note_on_c, 0, 72, 82
1, 62760, Note_on_c, 0, 76, 82
1, 62987, Note_on_c, 0, 67, 0
1, 62987, Note_on_c, 0, 72, 0
1, 62987, Note_on_c, 0, 76, 0
1, 63000, Note_on_c, 0, 67, 82
1, 63113, Note_on_c, 0, 67, 0
1, 63120, Note_on_c, 0, 69, 82
1, 63233, Note_on_c, 0, 69, 0
1, 63240, Note_on_c, 0, 72, 82
1, 63353, Note_on_c, 0, 72, 0
1, 63360, Note_on_c, 0, 67, 82
1, 63360, Note_on_c, 0, 76, 82
1, 63473, Note_on_c, 0, 67, 0
1, 63473, Note_on_c, 0, 76, 0
1, 63480, Note_on_c, 0, 74, 80
1, 63593, Note_on_c, 0, 74, 0
1, 63600, Note_on_c, 0, 76, 82
1, 63713, Note_on_c, 0, 76, 0
1, 63720, Note_on_c, 0, 81, 82
1, 63947, Note_on_c, 0, 81, 0
1, 63960, Note_on_c, 0, 79, 82
1, 64073, Note_on_c, 0, 79, 0
1, 64080, Note_on_c, 0, 76, 82
1, 64193, Note_on_c, 0, 76, 0
1, 64200, Note_on_c, 0, 79, 82
1, 64313, Note_on_c, 0, 79, 0
1, 64320, Note_on_c, 0, 69, 82
1, 64320, Note_on_c, 0, 74, 82
1, 64320, Note_on_c, 0, 77, 82
1, 64433, Note_on_c, 0, 69, 0
1, 64433, Note_on_c, 0, 74, 0
1, 64433, Note_on_c, 0, 77, 0
1, 64440, Note_on_c, 0, 65, 82
1, 64440, Note_on_c, 0, 69, 82
1, 64559, Note_on_c, 0, 65, 0
1, 64559, Note_on_c, 0, 69, 0
1, 64680, Note_on_c, 0, 69, 82
1, 64680, Note_on_c, 0, 65, 80
1, 64793, Note_on_c, 0, 65, 0
1, 64907, Note_on_c, 0, 69, 0
1, 64920, Note_on_c, 0, 71, 82
1, 65033, Note_on_c, 0, 71, 0
1, 65040, Note_on_c, 0, 72, 82
1, 65153, Note_on_c, 0, 72, 0
1, 65160, Note_on_c, 0, 74, 82
1, 65273, Note_on_c, 0, 74, 0
1, 65280, Note_on_c, 0, 72, 82
1, 65280, Note_on_c, 0, 76, 82
1, 65393, Note_on_c, 0, 72, 0
1, 65393, Note_on_c, 0, 76, 0
1, 65400, Note_on_c, 0, 67, 82
1, 65513, Note_on_c, 0, 67, 0
1, 65520, Note_on_c, 0, 69, 82
1, 65633, Note_on_c, 0, 69, 0
1, 65640, Note_on_c, 0, 76, 82
1, 65640, Note_on_c, 0, 79, 82
1, 65867, Note_on_c, 0, 76, 0
1, 65867, Note_on_c, 0, 79, 0
1, 65880, Note_on_c, 0, 67, 82
1, 65993, Note_on_c, 0, 67, 0
1, 66000, Note_on_c, 0, 69, 82
1, 66113, Note_on_c, 0, 69, 0
1, 66120, Note_on_c, 0, 76, 82
1, 66120, Note_on_c, 0, 79, 82
1, 66347, Note_on_c, 0, 76, 0
1, 66347, Note_on_c, 0, 79, 0
1, 66360, Note_on_c, 0, 67, 82
1, 66473, Note_on_c, 0, 67, 0
1, 66480, Note_on_c, 0, 74, 82
1, 66480, Note_on_c, 0, 77, 82
1, 66707, Note_on_c, 0, 74, 0
1, 66707, Note_on_c, 0, 77, 0
1, 66720, Note_on_c, 0, 69, 82
1, 66720, Note_on_c, 0, 72, 82
1, 66720, Note_on_c, 0, 76, 82
1, 67175, Note_on_c, 0, 69, 0
1, 67175, Note_on_c, 0, 72, 0
1, 67175, Note_on_c, 0, 76, 0
1, 67200, Note_on_c, 0, 67, 80
1, 67200, Note_on_c, 0, 72, 80
1, 67200, Note_on_c, 0, 74, 80
1, 67259, Note_on_c, 0, 67, 0
1, 67259, Note_on_c, 0, 72, 0
1, 67259, Note_on_c, 0, 74, 0
1, 67320, Note_on_c, 0, 74, 82
1, 67433, Note_on_c, 0, 74, 0
1, 67440, Note_on_c, 0, 72, 82
1, 67553, Note_on_c, 0, 72, 0
1, 67560, Note_on_c, 0, 69, 80
1, 67673, Note_on_c, 0, 69, 0
1, 67680, Note_on_c, 0, 65, 82
1, 67680, Note_on_c, 0, 69, 82
1, 67680, Note_on_c, 0, 72, 82
1, 67793, Note_on_c, 0, 65, 0
1, 67793, Note_on_c, 0, 69, 0
1, 67793, Note_on_c, 0, 72, 0
1, 67800, Note_on_c, 0, 65, 82
1, 67800, Note_on_c, 0, 69, 82
1, 67800, Note_on_c, 0, 72, 82
1, 67979, Note_on_c, 0, 65, 0
1, 67979, Note_on_c, 0, 69, 0
1, 67979, Note_on_c, 0, 72, 0
1, 68040, Note_on_c, 0, 67, 82
1, 68160, Note_on_c, 0, 64, 82
1, 68160, Note_on_c, 0, 72, 82
1, 68381, Note_on_c, 0, 67, 0
1, 68399, Note_on_c, 0, 64, 0
1, 68399, Note_on_c, 0, 72, 0
1, 68640, Note_on_c, 0, 72, 82
1, 68640, Note_on_c, 0, 76, 82
1, 68640, Note_on_c, 0, 79, 82
1, 68640, Note_on_c, 0, 84, 82
1, 69095, Note_on_c, 0, 72, 0
1, 69095, Note_on_c, 0, 76, 0
1, 69095, Note_on_c, 0, 79, 0
1, 69095, Note_on_c, 0, 84, 0
1, 69096, End_track
2, 0, Start_track
2, 0, Title_t, "Classical Guitar, Lute\000"
2, 0, Key_signature, 0, "major"
2, 0, Control_c, 1, 121, 0
2, 0, Program_c, 1, 24
2, 0, Control_c, 1, 7, 100
2, 0, Control_c, 1, 10, 64
2, 0, Control_c, 1, 91, 0
2, 0, Control_c, 1, 93, 0
2, 0, MIDI_port, 0
2, 0, Note_on_c, 1, 59, 80
2, 0, Control_c, 3, 121, 0
2, 0, Program_c, 3, 28
2, 0, Control_c, 3, 7, 100
2, 0, Control_c, 3, 10, 64
2, 0, Control_c, 3, 91, 0
2, 0, Control_c, 3, 93, 0
2, 0, MIDI_port, 0
2, 359, Note_on_c, 1, 59, 0
2, 360, Note_on_c, 1, 60, 80
2, 959, Note_on_c, 1, 60, 0
2, 960, Note_on_c, 1, 57, 80
2, 1319, Note_on_c, 1, 57, 0
2, 1320, Note_on_c, 1, 59, 80
2, 1919, Note_on_c, 1, 59, 0
2, 1920, Note_on_c, 1, 59, 80
2, 2039, Note_on_c, 1, 59, 0
2, 2040, Note_on_c, 1, 57, 80
2, 2159, Note_on_c, 1, 57, 0
2, 2160, Note_on_c, 1, 55, 80
2, 2279, Note_on_c, 1, 55, 0
2, 2280, Note_on_c, 1, 53, 80
2, 2639, Note_on_c, 1, 53, 0
2, 2640, Note_on_c, 1, 53, 80
2, 2879, Note_on_c, 1, 53, 0
2, 2880, Note_on_c, 1, 55, 80
2, 3119, Note_on_c, 1, 55, 0
2, 3360, Note_on_c, 1, 55, 80
2, 3839, Note_on_c, 1, 55, 0
2, 3840, Note_on_c, 1, 52, 80
2, 4079, Note_on_c, 1, 52, 0
2, 4080, Note_on_c, 1, 55, 80
2, 4080, Note_on_c, 1, 60, 80
2, 4080, Note_on_c, 1, 64, 80
2, 4199, Note_on_c, 1, 55, 0
2, 4199, Note_on_c, 1, 60, 0
2, 4199, Note_on_c, 1, 64, 0
2, 4320, Note_on_c, 1, 55, 80
2, 4559, Note_on_c, 1, 55, 0
2, 4560, Note_on_c, 1, 55, 80
2, 4560, Note_on_c, 1, 60, 80
2, 4560, Note_on_c, 1, 64, 80
2, 4679, Note_on_c, 1, 55, 0
2, 4679, Note_on_c, 1, 60, 0
2, 4679, Note_on_c, 1, 64, 0
2, 4800, Note_on_c, 1, 48, 80
2, 5039, Note_on_c, 1, 48, 0
2, 5040, Note_on_c, 1, 55, 80
2, 5040, Note_on_c, 1, 60, 80
2, 5040, Note_on_c, 1, 64, 80
2, 5159, Note_on_c, 1, 55, 0
2, 5159, Note_on_c, 1, 60, 0
2, 5159, Note_on_c, 1, 64, 0
2, 5280, Note_on_c, 1, 55, 80
2, 5519, Note_on_c, 1, 55, 0
2, 5520, Note_on_c, 1, 55, 80
2, 5520, Note_on_c, 1, 60, 80
2, 5520, Note_on_c, 1, 64, 80
2, 5759, Note_on_c, 1, 55, 0
2, 5759, Note_on_c, 1, 60, 0
2, 5759, Note_on_c, 1, 64, 0
2, 5760, Note_on_c, 1, 52, 80
2, 5999, Note_on_c, 1, 52, 0
2, 6000, Note_on_c, 1, 55, 80
2, 6000, Note_on_c, 1, 60, 80
2, 6000, Note_on_c, 1, 64, 80
2, 6119, Note_on_c, 1, 55, 0
2, 6119, Note_on_c, 1, 60, 0
2, 6119, Note_on_c, 1, 64, 0
2, 6240, Note_on_c, 1, 55, 80
2, 6479, Note_on_c, 1, 55, 0
2, 6480, Note_on_c, 1, 55, 80
2, 6480, Note_on_c, 1, 57, 80
2, 6480, Note_on_c, 1, 60, 80
2, 6480, Note_on_c, 1, 64, 80
2, 6719, Note_on_c, 1, 55, 0
2, 6719, Note_on_c, 1, 57, 0
2, 6719, Note_on_c, 1, 60, 0
2, 6719, Note_on_c, 1, 64, 0
2, 6720, Note_on_c, 1, 53, 80
2, 6959, Note_on_c, 1, 53, 0
2, 6960, Note_on_c, 1, 53, 80
2, 6960, Note_on_c, 1, 57, 80
2, 6960, Note_on_c, 1, 62, 80
2, 7079, Note_on_c, 1, 53, 0
2, 7079, Note_on_c, 1, 57, 0
2, 7079, Note_on_c, 1, 62, 0
2, 7200, Note_on_c, 1, 57, 80
2, 7439, Note_on_c, 1, 57, 0
2, 7440, Note_on_c, 1, 53, 80
2, 7440, Note_on_c, 1, 57, 80
2, 7440, Note_on_c, 1, 62, 80
2, 7559, Note_on_c, 1, 53, 0
2, 7559, Note_on_c, 1, 57, 0
2, 7559, Note_on_c, 1, 62, 0
2, 7680, Note_on_c, 1, 53, 80
2, 7919, Note_on_c, 1, 53, 0
2, 7920, Note_on_c, 1, 53, 80
2, 7920, Note_on_c, 1, 57, 80
2, 7920, Note_on_c, 1, 62, 80
2, 8039, Note_on_c, 1, 53, 0
2, 8039, Note_on_c, 1, 57, 0
2, 8039, Note_on_c, 1, 62, 0
2, 8160, Note_on_c, 1, 57, 80
2, 8399, Note_on_c, 1, 57, 0
2, 8400, Note_on_c, 1, 53, 80
2, 8400, Note_on_c, 1, 57, 80
2, 8400, Note_on_c, 1, 62, 80
2, 8519, Note_on_c, 1, 53, 0
2, 8519, Note_on_c, 1, 57, 0
2, 8519, Note_on_c, 1, 62, 0
2, 8640, Note_on_c, 1, 53, 80
2, 8879, Note_on_c, 1, 53, 0
2, 8880, Note_on_c, 1, 53, 80
2, 8880, Note_on_c, 1, 57, 80
2, 8880, Note_on_c, 1, 62, 80
2, 8999, Note_on_c, 1, 53, 0
2, 8999, Note_on_c, 1, 57, 0
2, 8999, Note_on_c, 1, 62, 0
2, 9120, Note_on_c, 1, 57, 80
2, 9359, Note_on_c, 1, 57, 0
2, 9360, Note_on_c, 1, 53, 80
2, 9360, Note_on_c, 1, 57, 80
2, 9360, Note_on_c, 1, 62, 80
2, 9599, Note_on_c, 1, 53, 0
2, 9599, Note_on_c, 1, 57, 0
2, 9599, Note_on_c, 1, 62, 0
2, 9600, Note_on_c, 1, 53, 80
2, 9839, Note_on_c, 1, 53, 0
2, 9840, Note_on_c, 1, 53, 80
2, 9840, Note_on_c, 1, 57, 80
2, 9840, Note_on_c, 1, 62, 80
2, 9959, Note_on_c, 1, 53, 0
2, 9959, Note_on_c, 1, 57, 0
2, 9959, Note_on_c, 1, 62, 0
2, 10080, Note_on_c, 1, 55, 80
2, 10319, Note_on_c, 1, 55, 0
2, 10320, Note_on_c, 1, 50, 80
2, 10320, Note_on_c, 1, 53, 80
2, 10320, Note_on_c, 1, 55, 80
2, 10320, Note_on_c, 1, 59, 80
2, 10439, Note_on_c, 1, 50, 0
2, 10439, Note_on_c, 1, 53, 0
2, 10439, Note_on_c, 1, 55, 0
2, 10439, Note_on_c, 1, 59, 0
2, 10560, Note_on_c, 1, 52, 80
2, 10799, Note_on_c, 1, 52, 0
2, 10800, Note_on_c, 1, 52, 80
2, 10800, Note_on_c, 1, 55, 80
2, 10800, Note_on_c, 1, 60, 80
2, 10919, Note_on_c, 1, 52, 0
2, 10919, Note_on_c, 1, 55, 0
2, 10919, Note_on_c, 1, 60, 0
2, 10920, Note_on_c, 1, 55, 80
2, 11159, Note_on_c, 1, 55, 0
2, 11160, Note_on_c, 1, 57, 80
2, 11279, Note_on_c, 1, 57, 0
2, 11280, Note_on_c, 1, 59, 80
2, 11519, Note_on_c, 1, 59, 0
2, 11520, Note_on_c, 1, 52, 80
2, 11759, Note_on_c, 1, 52, 0
2, 11760, Note_on_c, 1, 55, 80
2, 11760, Note_on_c, 1, 60, 80
2, 11760, Note_on_c, 1, 64, 80
2, 11879, Note_on_c, 1, 55, 0
2, 11879, Note_on_c, 1, 60, 0
2, 11879, Note_on_c, 1, 64, 0
2, 12000, Note_on_c, 1, 55, 80
2, 12239, Note_on_c, 1, 55, 0
2, 12240, Note_on_c, 1, 55, 80
2, 12240, Note_on_c, 1, 60, 80
2, 12240, Note_on_c, 1, 64, 80
2, 12359, Note_on_c, 1, 55, 0
2, 12359, Note_on_c, 1, 60, 0
2, 12359, Note_on_c, 1, 64, 0
2, 12480, Note_on_c, 1, 48, 80
2, 12719, Note_on_c, 1, 48, 0
2, 12720, Note_on_c, 1, 55, 80
2, 12720, Note_on_c, 1, 60, 80
2, 12720, Note_on_c, 1, 64, 80
2, 12839, Note_on_c, 1, 55, 0
2, 12839, Note_on_c, 1, 60, 0
2, 12839, Note_on_c, 1, 64, 0
2, 12960, Note_on_c, 1, 55, 80
2, 13199, Note_on_c, 1, 55, 0
2, 13200, Note_on_c, 1, 55, 80
2, 13200, Note_on_c, 1, 60, 80
2, 13200, Note_on_c, 1, 64, 80
2, 13439, Note_on_c, 1, 55, 0
2, 13439, Note_on_c, 1, 60, 0
2, 13439, Note_on_c, 1, 64, 0
2, 13440, Note_on_c, 1, 52, 80
2, 13679, Note_on_c, 1, 52, 0
2, 13680, Note_on_c, 1, 55, 80
2, 13680, Note_on_c, 1, 60, 80
2, 13680, Note_on_c, 1, 64, 80
2, 13799, Note_on_c, 1, 55, 0
2, 13799, Note_on_c, 1, 60, 0
2, 13799, Note_on_c, 1, 64, 0
2, 13920, Note_on_c, 1, 55, 80
2, 14159, Note_on_c, 1, 55, 0
2, 14160, Note_on_c, 1, 55, 80
2, 14160, Note_on_c, 1, 57, 80
2, 14160, Note_on_c, 1, 60, 80
2, 14160, Note_on_c, 1, 64, 80
2, 14399, Note_on_c, 1, 55, 0
2, 14399, Note_on_c, 1, 57, 0
2, 14399, Note_on_c, 1, 60, 0
2, 14399, Note_on_c, 1, 64, 0
2, 14400, Note_on_c, 1, 53, 80
2, 14639, Note_on_c, 1, 53, 0
2, 14640, Note_on_c, 1, 53, 80
2, 14640, Note_on_c, 1, 57, 80
2, 14640, Note_on_c, 1, 62, 80
2, 14759, Note_on_c, 1, 53, 0
2, 14759, Note_on_c, 1, 57, 0
2, 14759, Note_on_c, 1, 62, 0
2, 14880, Note_on_c, 1, 57, 80
2, 15119, Note_on_c, 1, 57, 0
2, 15120, Note_on_c, 1, 57, 80
2, 15120, Note_on_c, 1, 60, 80
2, 15120, Note_on_c, 1, 65, 80
2, 15239, Note_on_c, 1, 57, 0
2, 15239, Note_on_c, 1, 60, 0
2, 15239, Note_on_c, 1, 65, 0
2, 15360, Note_on_c, 1, 55, 80
2, 15599, Note_on_c, 1, 55, 0
2, 15600, Note_on_c, 1, 55, 80
2, 15600, Note_on_c, 1, 60, 80
2, 15600, Note_on_c, 1, 64, 80
2, 15719, Note_on_c, 1, 55, 0
2, 15719, Note_on_c, 1, 60, 0
2, 15719, Note_on_c, 1, 64, 0
2, 15840, Note_on_c, 1, 53, 80
2, 16079, Note_on_c, 1, 53, 0
2, 16080, Note_on_c, 1, 53, 80
2, 16080, Note_on_c, 1, 57, 80
2, 16080, Note_on_c, 1, 62, 80
2, 16199, Note_on_c, 1, 53, 0
2, 16199, Note_on_c, 1, 57, 0
2, 16199, Note_on_c, 1, 62, 0
2, 16320, Note_on_c, 1, 55, 80
2, 16559, Note_on_c, 1, 55, 0
2, 16560, Note_on_c, 1, 55, 80
2, 16560, Note_on_c, 1, 60, 80
2, 16679, Note_on_c, 1, 55, 0
2, 16679, Note_on_c, 1, 60, 0
2, 16800, Note_on_c, 1, 57, 80
2, 17039, Note_on_c, 1, 57, 0
2, 17040, Note_on_c, 1, 55, 80
2, 17040, Note_on_c, 1, 60, 80
2, 17279, Note_on_c, 1, 55, 0
2, 17279, Note_on_c, 1, 60, 0
2, 17280, Note_on_c, 1, 50, 80
2, 17759, Note_on_c, 1, 50, 0
2, 17760, Note_on_c, 1, 55, 80
2, 17879, Note_on_c, 1, 55, 0
2, 17880, Note_on_c, 1, 55, 80
2, 18119, Note_on_c, 1, 55, 0
2, 18120, Note_on_c, 1, 48, 80
2, 18239, Note_on_c, 1, 48, 0
2, 18480, Note_on_c, 1, 55, 80
2, 18599, Note_on_c, 1, 55, 0
2, 18720, Note_on_c, 1, 57, 80
2, 18839, Note_on_c, 1, 57, 0
2, 18960, Note_on_c, 1, 59, 80
2, 19079, Note_on_c, 1, 59, 0
2, 19200, Note_on_c, 1, 52, 80
2, 19439, Note_on_c, 1, 52, 0
2, 19440, Note_on_c, 1, 55, 80
2, 19440, Note_on_c, 1, 60, 80
2, 19440, Note_on_c, 1, 64, 80
2, 19559, Note_on_c, 1, 55, 0
2, 19559, Note_on_c, 1, 60, 0
2, 19559, Note_on_c, 1, 64, 0
2, 19680, Note_on_c, 1, 55, 80
2, 19919, Note_on_c, 1, 55, 0
2, 19920, Note_on_c, 1, 55, 80
2, 19920, Note_on_c, 1, 60, 80
2, 19920, Note_on_c, 1, 64, 80
2, 20039, Note_on_c, 1, 55, 0
2, 20039, Note_on_c, 1, 60, 0
2, 20039, Note_on_c, 1, 64, 0
2, 20160, Note_on_c, 1, 48, 80
2, 20399, Note_on_c, 1, 48, 0
2, 20400, Note_on_c, 1, 55, 80
2, 20400, Note_on_c, 1, 60, 80
2, 20400, Note_on_c, 1, 64, 80
2, 20519, Note_on_c, 1, 55, 0
2, 20519, Note_on_c, 1, 60, 0
2, 20519, Note_on_c, 1, 64, 0
2, 20640, Note_on_c, 1, 55, 80
2, 20879, Note_on_c, 1, 55, 0
2, 20880, Note_on_c, 1, 55, 80
2, 20880, Note_on_c, 1, 60, 80
2, 20880, Note_on_c, 1, 64, 80
2, 21119, Note_on_c, 1, 55, 0
2, 21119, Note_on_c, 1, 60, 0
2, 21119, Note_on_c, 1, 64, 0
2, 21120, Note_on_c, 1, 52, 80
2, 21359, Note_on_c, 1, 52, 0
2, 21360, Note_on_c, 1, 55, 80
2, 21360, Note_on_c, 1, 60, 80
2, 21360, Note_on_c, 1, 64, 80
2, 21479, Note_on_c, 1, 55, 0
2, 21479, Note_on_c, 1, 60, 0
2, 21479, Note_on_c, 1, 64, 0
2, 21600, Note_on_c, 1, 55, 80
2, 21839, Note_on_c, 1, 55, 0
2, 21840, Note_on_c, 1, 55, 80
2, 21840, Note_on_c, 1, 57, 80
2, 21840, Note_on_c, 1, 60, 80
2, 21840, Note_on_c, 1, 64, 80
2, 22079, Note_on_c, 1, 55, 0
2, 22079, Note_on_c, 1, 57, 0
2, 22079, Note_on_c, 1, 60, 0
2, 22079, Note_on_c, 1, 64, 0
2, 22080, Note_on_c, 1, 53, 80
2, 22319, Note_on_c, 1, 53, 0
2, 22320, Note_on_c, 1, 53, 80
2, 22320, Note_on_c, 1, 57, 80
2, 22320, Note_on_c, 1, 62, 80
2, 22439, Note_on_c, 1, 53, 0
2, 22439, Note_on_c, 1, 57, 0
2, 22439, Note_on_c, 1, 62, 0
2, 22560, Note_on_c, 1, 57, 80
2, 22799, Note_on_c, 1, 57, 0
2, 22800, Note_on_c, 1, 53, 80
2, 22800, Note_on_c, 1, 57, 80
2, 22800, Note_on_c, 1, 62, 80
2, 22919, Note_on_c, 1, 53, 0
2, 22919, Note_on_c, 1, 57, 0
2, 22919, Note_on_c, 1, 62, 0
2, 23040, Note_on_c, 1, 53, 80
2, 23279, Note_on_c, 1, 53, 0
2, 23280, Note_on_c, 1, 53, 80
2, 23280, Note_on_c, 1, 57, 80
2, 23280, Note_on_c, 1, 62, 80
2, 23399, Note_on_c, 1, 53, 0
2, 23399, Note_on_c, 1, 57, 0
2, 23399, Note_on_c, 1, 62, 0
2, 23520, Note_on_c, 1, 57, 80
2, 23759, Note_on_c, 1, 57, 0
2, 23760, Note_on_c, 1, 53, 80
2, 23760, Note_on_c, 1, 57, 80
2, 23760, Note_on_c, 1, 62, 80
2, 23879, Note_on_c, 1, 53, 0
2, 23879, Note_on_c, 1, 57, 0
2, 23879, Note_on_c, 1, 62, 0
2, 24000, Note_on_c, 1, 53, 80
2, 24239, Note_on_c, 1, 53, 0
2, 24240, Note_on_c, 1, 53, 80
2, 24240, Note_on_c, 1, 57, 80
2, 24240, Note_on_c, 1, 62, 80
2, 24359, Note_on_c, 1, 53, 0
2, 24359, Note_on_c, 1, 57, 0
2, 24359, Note_on_c, 1, 62, 0
2, 24480, Note_on_c, 1, 57, 80
2, 24719, Note_on_c, 1, 57, 0
2, 24720, Note_on_c, 1, 53, 80
2, 24720, Note_on_c, 1, 57, 80
2, 24720, Note_on_c, 1, 62, 80
2, 24959, Note_on_c, 1, 53, 0
2, 24959, Note_on_c, 1, 57, 0
2, 24959, Note_on_c, 1, 62, 0
2, 24960, Note_on_c, 1, 53, 80
2, 25199, Note_on_c, 1, 53, 0
2, 25200, Note_on_c, 1, 53, 80
2, 25200, Note_on_c, 1, 57, 80
2, 25200, Note_on_c, 1, 62, 80
2, 25319, Note_on_c, 1, 53, 0
2, 25319, Note_on_c, 1, 57, 0
2, 25319, Note_on_c, 1, 62, 0
2, 25440, Note_on_c, 1, 55, 80
2, 25679, Note_on_c, 1, 55, 0
2, 25680, Note_on_c, 1, 50, 80
2, 25680, Note_on_c, 1, 53, 80
2, 25680, Note_on_c, 1, 55, 80
2, 25680, Note_on_c, 1, 59, 80
2, 25739, Note_on_c, 1, 50, 0
2, 25739, Note_on_c, 1, 53, 0
2, 25739, Note_on_c, 1, 55, 0
2, 25739, Note_on_c, 1, 59, 0
2, 25800, Note_on_c, 1, 48, 80
2, 25919, Note_on_c, 1, 48, 0
2, 25920, Note_on_c, 1, 52, 80
2, 25920, Note_on_c, 1, 60, 80
2, 26159, Note_on_c, 1, 52, 0
2, 26159, Note_on_c, 1, 60, 0
2, 26160, Note_on_c, 1, 52, 80
2, 26160, Note_on_c, 1, 55, 80
2, 26279, Note_on_c, 1, 52, 0
2, 26279, Note_on_c, 1, 55, 0
2, 26280, Note_on_c, 1, 55, 80
2, 26519, Note_on_c, 1, 55, 0
2, 26520, Note_on_c, 1, 57, 80
2, 26639, Note_on_c, 1, 57, 0
2, 26640, Note_on_c, 1, 59, 80
2, 26879, Note_on_c, 1, 59, 0
2, 26880, Note_on_c, 1, 52, 80
2, 27119, Note_on_c, 1, 52, 0
2, 27120, Note_on_c, 1, 55, 80
2, 27120, Note_on_c, 1, 60, 80
2, 27120, Note_on_c, 1, 64, 80
2, 27239, Note_on_c, 1, 55, 0
2, 27239, Note_on_c, 1, 60, 0
2, 27239, Note_on_c, 1, 64, 0
2, 27360, Note_on_c, 1, 55, 80
2, 27599, Note_on_c, 1, 55, 0
2, 27600, Note_on_c, 1, 55, 80
2, 27600, Note_on_c, 1, 60, 80
2, 27600, Note_on_c, 1, 64, 80
2, 27719, Note_on_c, 1, 55, 0
2, 27719, Note_on_c, 1, 60, 0
2, 27719, Note_on_c, 1, 64, 0
2, 27840, Note_on_c, 1, 48, 80
2, 28079, Note_on_c, 1, 48, 0
2, 28080, Note_on_c, 1, 55, 80
2, 28080, Note_on_c, 1, 60, 80
2, 28080, Note_on_c, 1, 64, 80
2, 28199, Note_on_c, 1, 55, 0
2, 28199, Note_on_c, 1, 60, 0
2, 28199, Note_on_c, 1, 64, 0
2, 28320, Note_on_c, 1, 55, 80
2, 28559, Note_on_c, 1, 55, 0
2, 28560, Note_on_c, 1, 55, 80
2, 28560, Note_on_c, 1, 60, 80
2, 28560, Note_on_c, 1, 64, 80
2, 28799, Note_on_c, 1, 55, 0
2, 28799, Note_on_c, 1, 60, 0
2, 28799, Note_on_c, 1, 64, 0
2, 28800, Note_on_c, 1, 52, 80
2, 29039, Note_on_c, 1, 52, 0
2, 29040, Note_on_c, 1, 55, 80
2, 29040, Note_on_c, 1, 60, 80
2, 29040, Note_on_c, 1, 64, 80
2, 29159, Note_on_c, 1, 55, 0
2, 29159, Note_on_c, 1, 60, 0
2, 29159, Note_on_c, 1, 64, 0
2, 29280, Note_on_c, 1, 55, 80
2, 29519, Note_on_c, 1, 55, 0
2, 29520, Note_on_c, 1, 55, 80
2, 29520, Note_on_c, 1, 57, 80
2, 29520, Note_on_c, 1, 60, 80
2, 29520, Note_on_c, 1, 64, 80
2, 29759, Note_on_c, 1, 55, 0
2, 29759, Note_on_c, 1, 57, 0
2, 29759, Note_on_c, 1, 60, 0
2, 29759, Note_on_c, 1, 64, 0
2, 29760, Note_on_c, 1, 53, 80
2, 29999, Note_on_c, 1, 53, 0
2, 30000, Note_on_c, 1, 53, 80
2, 30000, Note_on_c, 1, 57, 80
2, 30000, Note_on_c, 1, 62, 80
2, 30119, Note_on_c, 1, 53, 0
2, 30119, Note_on_c, 1, 57, 0
2, 30119, Note_on_c, 1, 62, 0
2, 30240, Note_on_c, 1, 57, 80
2, 30479, Note_on_c, 1, 57, 0
2, 30480, Note_on_c, 1, 57, 80
2, 30480, Note_on_c, 1, 60, 80
2, 30480, Note_on_c, 1, 65, 80
2, 30599, Note_on_c, 1, 57, 0
2, 30599, Note_on_c, 1, 60, 0
2, 30599, Note_on_c, 1, 65, 0
2, 30720, Note_on_c, 1, 55, 80
2, 30959, Note_on_c, 1, 55, 0
2, 30960, Note_on_c, 1, 55, 80
2, 30960, Note_on_c, 1, 60, 80
2, 30960, Note_on_c, 1, 64, 80
2, 31079, Note_on_c, 1, 55, 0
2, 31079, Note_on_c, 1, 60, 0
2, 31079, Note_on_c, 1, 64, 0
2, 31200, Note_on_c, 1, 53, 80
2, 31439, Note_on_c, 1, 53, 0
2, 31440, Note_on_c, 1, 53, 80
2, 31440, Note_on_c, 1, 57, 80
2, 31440, Note_on_c, 1, 62, 80
2, 31559, Note_on_c, 1, 53, 0
2, 31559, Note_on_c, 1, 57, 0
2, 31559, Note_on_c, 1, 62, 0
2, 31680, Note_on_c, 1, 55, 80
2, 31919, Note_on_c, 1, 55, 0
2, 31920, Note_on_c, 1, 55, 80
2, 31920, Note_on_c, 1, 60, 80
2, 32039, Note_on_c, 1, 55, 0
2, 32039, Note_on_c, 1, 60, 0
2, 32160, Note_on_c, 1, 57, 80
2, 32399, Note_on_c, 1, 57, 0
2, 32400, Note_on_c, 1, 55, 80
2, 32400, Note_on_c, 1, 60, 80
2, 32639, Note_on_c, 1, 55, 0
2, 32639, Note_on_c, 1, 60, 0
2, 32640, Note_on_c, 1, 50, 80
2, 33119, Note_on_c, 1, 50, 0
2, 33120, Note_on_c, 1, 55, 80
2, 33239, Note_on_c, 1, 55, 0
2, 33240, Note_on_c, 1, 55, 80
2, 33479, Note_on_c, 1, 55, 0
2, 33480, Note_on_c, 1, 48, 80
2, 33599, Note_on_c, 1, 48, 0
2, 33600, Note_on_c, 1, 52, 80
2, 33600, Note_on_c, 1, 55, 80
2, 33600, Note_on_c, 1, 60, 80
2, 33839, Note_on_c, 1, 52, 0
2, 33839, Note_on_c, 1, 55, 0
2, 33839, Note_on_c, 1, 60, 0
2, 33840, Note_on_c, 1, 48, 80
2, 34079, Note_on_c, 1, 48, 0
2, 34080, Note_on_c, 1, 50, 80
2, 34319, Note_on_c, 1, 50, 0
2, 34320, Note_on_c, 1, 52, 80
2, 34559, Note_on_c, 1, 52, 0
2, 34560, Note_on_c, 1, 55, 80
2, 34799, Note_on_c, 1, 55, 0
2, 34800, Note_on_c, 1, 55, 80
2, 34800, Note_on_c, 1, 60, 80
2, 34800, Note_on_c, 1, 64, 80
2, 34919, Note_on_c, 1, 55, 0
2, 34919, Note_on_c, 1, 60, 0
2, 34919, Note_on_c, 1, 64, 0
2, 35040, Note_on_c, 1, 53, 80
2, 35279, Note_on_c, 1, 53, 0
2, 35280, Note_on_c, 1, 53, 80
2, 35280, Note_on_c, 1, 57, 80
2, 35280, Note_on_c, 1, 62, 80
2, 35399, Note_on_c, 1, 53, 0
2, 35399, Note_on_c, 1, 57, 0
2, 35399, Note_on_c, 1, 62, 0
2, 35520, Note_on_c, 1, 55, 80
2, 35759, Note_on_c, 1, 55, 0
2, 35760, Note_on_c, 1, 55, 80
2, 35760, Note_on_c, 1, 60, 80
2, 35879, Note_on_c, 1, 55, 0
2, 35879, Note_on_c, 1, 60, 0
2, 36000, Note_on_c, 1, 57, 80
2, 36239, Note_on_c, 1, 57, 0
2, 36240, Note_on_c, 1, 55, 80
2, 36240, Note_on_c, 1, 60, 80
2, 36479, Note_on_c, 1, 55, 0
2, 36479, Note_on_c, 1, 60, 0
2, 36480, Note_on_c, 1, 53, 80
2, 36959, Note_on_c, 1, 53, 0
2, 36960, Note_on_c, 1, 55, 80
2, 37079, Note_on_c, 1, 55, 0
2, 37080, Note_on_c, 1, 55, 80
2, 37439, Note_on_c, 1, 55, 0
2, 37440, Note_on_c, 1, 55, 80
2, 37440, Note_on_c, 1, 48, 80
2, 37559, Note_on_c, 1, 55, 0
2, 37560, Note_on_c, 1, 55, 80
2, 37679, Note_on_c, 1, 55, 0
2, 37680, Note_on_c, 1, 57, 80
2, 37799, Note_on_c, 1, 57, 0
2, 37800, Note_on_c, 1, 55, 80
2, 37919, Note_on_c, 1, 48, 0
2, 37919, Note_on_c, 1, 55, 0
2, 37920, Note_on_c, 1, 52, 80
2, 38039, Note_on_c, 1, 52, 0
2, 38040, Note_on_c, 1, 50, 80
2, 38159, Note_on_c, 1, 50, 0
2, 38160, Note_on_c, 1, 48, 80
2, 38399, Note_on_c, 1, 48, 0
2, 38400, Note_on_c, 1, 48, 80
2, 38639, Note_on_c, 1, 48, 0
2, 38640, Note_on_c, 1, 53, 82
2, 38640, Note_on_c, 1, 57, 82
2, 38640, Note_on_c, 1, 60, 82
2, 38759, Note_on_c, 1, 53, 0
2, 38759, Note_on_c, 1, 57, 0
2, 38759, Note_on_c, 1, 60, 0
2, 38880, Note_on_c, 1, 59, 80
2, 39119, Note_on_c, 1, 59, 0
2, 39120, Note_on_c, 1, 57, 82
2, 39120, Note_on_c, 1, 60, 82
2, 39239, Note_on_c, 1, 57, 0
2, 39239, Note_on_c, 1, 60, 0
2, 39240, Note_on_c, 1, 55, 82
2, 39359, Note_on_c, 1, 55, 0
2, 39360, Note_on_c, 1, 52, 82
2, 39360, Note_on_c, 1, 55, 82
2, 39599, Note_on_c, 1, 52, 0
2, 39599, Note_on_c, 1, 55, 0
2, 39600, Note_on_c, 1, 52, 82
2, 39600, Note_on_c, 1, 55, 82
2, 39600, Note_on_c, 1, 60, 82
2, 39719, Note_on_c, 1, 52, 0
2, 39719, Note_on_c, 1, 55, 0
2, 39719, Note_on_c, 1, 60, 0
2, 39840, Note_on_c, 1, 48, 82
2, 40079, Note_on_c, 1, 48, 0
2, 40080, Note_on_c, 1, 52, 82
2, 40080, Note_on_c, 1, 55, 82
2, 40080, Note_on_c, 1, 60, 82
2, 40319, Note_on_c, 1, 52, 0
2, 40319, Note_on_c, 1, 55, 0
2, 40319, Note_on_c, 1, 60, 0
2, 40320, Note_on_c, 1, 55, 82
2, 40559, Note_on_c, 1, 55, 0
2, 40560, Note_on_c, 1, 50, 82
2, 40560, Note_on_c, 1, 53, 82
2, 40560, Note_on_c, 1, 55, 82
2, 40560, Note_on_c, 1, 59, 82
2, 40679, Note_on_c, 1, 50, 0
2, 40679, Note_on_c, 1, 53, 0
2, 40679, Note_on_c, 1, 55, 0
2, 40679, Note_on_c, 1, 59, 0
2, 40800, Note_on_c, 1, 55, 82
2, 41039, Note_on_c, 1, 55, 0
2, 41040, Note_on_c, 1, 50, 82
2, 41040, Note_on_c, 1, 53, 82
2, 41040, Note_on_c, 1, 55, 82
2, 41040, Note_on_c, 1, 59, 82
2, 41279, Note_on_c, 1, 50, 0
2, 41279, Note_on_c, 1, 53, 0
2, 41279, Note_on_c, 1, 55, 0
2, 41279, Note_on_c, 1, 59, 0
2, 41280, Note_on_c, 1, 52, 80
2, 41519, Note_on_c, 1, 52, 0
2, 41520, Note_on_c, 1, 55, 82
2, 41520, Note_on_c, 1, 60, 82
2, 41520, Note_on_c, 1, 64, 82
2, 41639, Note_on_c, 1, 55, 0
2, 41639, Note_on_c, 1, 60, 0
2, 41639, Note_on_c, 1, 64, 0
2, 41760, Note_on_c, 1, 48, 82
2, 41999, Note_on_c, 1, 48, 0
2, 42000, Note_on_c, 1, 55, 82
2, 42000, Note_on_c, 1, 60, 82
2, 42000, Note_on_c, 1, 64, 82
2, 42119, Note_on_c, 1, 55, 0
2, 42119, Note_on_c, 1, 60, 0
2, 42119, Note_on_c, 1, 64, 0
2, 42240, Note_on_c, 1, 57, 80
2, 42479, Note_on_c, 1, 57, 0
2, 42480, Note_on_c, 1, 53, 82
2, 42480, Note_on_c, 1, 57, 82
2, 42480, Note_on_c, 1, 60, 82
2, 42599, Note_on_c, 1, 53, 0
2, 42599, Note_on_c, 1, 57, 0
2, 42599, Note_on_c, 1, 60, 0
2, 42720, Note_on_c, 1, 57, 80
2, 42959, Note_on_c, 1, 57, 0
2, 42960, Note_on_c, 1, 53, 82
2, 42960, Note_on_c, 1, 57, 82
2, 42960, Note_on_c, 1, 60, 82
2, 43079, Note_on_c, 1, 53, 0
2, 43079, Note_on_c, 1, 57, 0
2, 43079, Note_on_c, 1, 60, 0
2, 43200, Note_on_c, 1, 52, 82
2, 43439, Note_on_c, 1, 52, 0
2, 43440, Note_on_c, 1, 55, 82
2, 43440, Note_on_c, 1, 60, 82
2, 43440, Note_on_c, 1, 64, 82
2, 43559, Note_on_c, 1, 55, 0
2, 43559, Note_on_c, 1, 60, 0
2, 43559, Note_on_c, 1, 64, 0
2, 43680, Note_on_c, 1, 57, 82
2, 43919, Note_on_c, 1, 57, 0
2, 43920, Note_on_c, 1, 57, 82
2, 43920, Note_on_c, 1, 60, 82
2, 43920, Note_on_c, 1, 64, 82
2, 44039, Note_on_c, 1, 57, 0
2, 44039, Note_on_c, 1, 60, 0
2, 44039, Note_on_c, 1, 64, 0
2, 44040, Note_on_c, 1, 59, 82
2, 44159, Note_on_c, 1, 59, 0
2, 44160, Note_on_c, 1, 52, 82
2, 44160, Note_on_c, 1, 55, 82
2, 44399, Note_on_c, 1, 52, 0
2, 44399, Note_on_c, 1, 55, 0
2, 44400, Note_on_c, 1, 55, 82
2, 44400, Note_on_c, 1, 59, 82
2, 44400, Note_on_c, 1, 64, 82
2, 44519, Note_on_c, 1, 55, 0
2, 44519, Note_on_c, 1, 59, 0
2, 44519, Note_on_c, 1, 64, 0
2, 44640, Note_on_c, 1, 59, 82
2, 44879, Note_on_c, 1, 59, 0
2, 44880, Note_on_c, 1, 55, 82
2, 44880, Note_on_c, 1, 59, 82
2, 44880, Note_on_c, 1, 64, 82
2, 44999, Note_on_c, 1, 55, 0
2, 44999, Note_on_c, 1, 59, 0
2, 44999, Note_on_c, 1, 64, 0
2, 45120, Note_on_c, 1, 52, 82
2, 45120, Note_on_c, 1, 59, 82
2, 45599, Note_on_c, 1, 52, 0
2, 45599, Note_on_c, 1, 59, 0
2, 45600, Note_on_c, 1, 55, 82
2, 46079, Note_on_c, 1, 55, 0
2, 46080, Note_on_c, 1, 53, 80
2, 46319, Note_on_c, 1, 53, 0
2, 46320, Note_on_c, 1, 53, 82
2, 46320, Note_on_c, 1, 57, 82
2, 46320, Note_on_c, 1, 62, 82
2, 46439, Note_on_c, 1, 53, 0
2, 46439, Note_on_c, 1, 57, 0
2, 46439, Note_on_c, 1, 62, 0
2, 46560, Note_on_c, 1, 50, 80
2, 46799, Note_on_c, 1, 50, 0
2, 46800, Note_on_c, 1, 50, 82
2, 46800, Note_on_c, 1, 53, 82
2, 46800, Note_on_c, 1, 55, 82
2, 46800, Note_on_c, 1, 59, 82
2, 47039, Note_on_c, 1, 50, 0
2, 47039, Note_on_c, 1, 53, 0
2, 47039, Note_on_c, 1, 55, 0
2, 47039, Note_on_c, 1, 59, 0
2, 47040, Note_on_c, 1, 52, 80
2, 47279, Note_on_c, 1, 52, 0
2, 47280, Note_on_c, 1, 55, 82
2, 47280, Note_on_c, 1, 60, 82
2, 47280, Note_on_c, 1, 64, 82
2, 47399, Note_on_c, 1, 55, 0
2, 47399, Note_on_c, 1, 60, 0
2, 47399, Note_on_c, 1, 64, 0
2, 47520, Note_on_c, 1, 48, 80
2, 47759, Note_on_c, 1, 48, 0
2, 47760, Note_on_c, 1, 55, 82
2, 47760, Note_on_c, 1, 60, 82
2, 47760, Note_on_c, 1, 64, 82
2, 47879, Note_on_c, 1, 55, 0
2, 47879, Note_on_c, 1, 60, 0
2, 47879, Note_on_c, 1, 64, 0
2, 48000, Note_on_c, 1, 53, 82
2, 48239, Note_on_c, 1, 53, 0
2, 48240, Note_on_c, 1, 59, 82
2, 48240, Note_on_c, 1, 62, 82
2, 48240, Note_on_c, 1, 65, 82
2, 48359, Note_on_c, 1, 59, 0
2, 48359, Note_on_c, 1, 62, 0
2, 48359, Note_on_c, 1, 65, 0
2, 48480, Note_on_c, 1, 53, 82
2, 48719, Note_on_c, 1, 53, 0
2, 48720, Note_on_c, 1, 59, 82
2, 48720, Note_on_c, 1, 62, 82
2, 48720, Note_on_c, 1, 65, 82
2, 48839, Note_on_c, 1, 59, 0
2, 48839, Note_on_c, 1, 62, 0
2, 48839, Note_on_c, 1, 65, 0
2, 48960, Note_on_c, 1, 55, 80
2, 49199, Note_on_c, 1, 55, 0
2, 49200, Note_on_c, 1, 55, 82
2, 49200, Note_on_c, 1, 60, 82
2, 49200, Note_on_c, 1, 64, 82
2, 49439, Note_on_c, 1, 55, 0
2, 49439, Note_on_c, 1, 60, 0
2, 49439, Note_on_c, 1, 64, 0
2, 49440, Note_on_c, 1, 52, 80
2, 49679, Note_on_c, 1, 52, 0
2, 49680, Note_on_c, 1, 55, 82
2, 49680, Note_on_c, 1, 60, 82
2, 49680, Note_on_c, 1, 64, 82
2, 49919, Note_on_c, 1, 55, 0
2, 49919, Note_on_c, 1, 60, 0
2, 49919, Note_on_c, 1, 64, 0
2, 49920, Note_on_c, 1, 53, 80
2, 50159, Note_on_c, 1, 53, 0
2, 50160, Note_on_c, 1, 53, 80
2, 50160, Note_on_c, 1, 57, 80
2, 50160, Note_on_c, 1, 62, 80
2, 50399, Note_on_c, 1, 53, 0
2, 50399, Note_on_c, 1, 57, 0
2, 50399, Note_on_c, 1, 62, 0
2, 50400, Note_on_c, 1, 53, 80
2, 50639, Note_on_c, 1, 53, 0
2, 50640, Note_on_c, 1, 53, 80
2, 50640, Note_on_c, 1, 57, 80
2, 50640, Note_on_c, 1, 62, 80
2, 50879, Note_on_c, 1, 53, 0
2, 50879, Note_on_c, 1, 57, 0
2, 50879, Note_on_c, 1, 62, 0
2, 50880, Note_on_c, 1, 52, 82
2, 51119, Note_on_c, 1, 52, 0
2, 51120, Note_on_c, 1, 55, 82
2, 51120, Note_on_c, 1, 60, 82
2, 51120, Note_on_c, 1, 64, 82
2, 51359, Note_on_c, 1, 55, 0
2, 51359, Note_on_c, 1, 60, 0
2, 51359, Note_on_c, 1, 64, 0
2, 51360, Note_on_c, 1, 52, 82
2, 51599, Note_on_c, 1, 52, 0
2, 51600, Note_on_c, 1, 55, 82
2, 51600, Note_on_c, 1, 57, 82
2, 51600, Note_on_c, 1, 60, 82
2, 51839, Note_on_c, 1, 55, 0
2, 51839, Note_on_c, 1, 57, 0
2, 51839, Note_on_c, 1, 60, 0
2, 51840, Note_on_c, 1, 57, 82
2, 52079, Note_on_c, 1, 57, 0
2, 52080, Note_on_c, 1, 57, 82
2, 52080, Note_on_c, 1, 60, 82
2, 52319, Note_on_c, 1, 57, 0
2, 52319, Note_on_c, 1, 60, 0
2, 52320, Note_on_c, 1, 50, 82
2, 52320, Note_on_c, 1, 53, 82
2, 52799, Note_on_c, 1, 50, 0
2, 52799, Note_on_c, 1, 53, 0
2, 52800, Note_on_c, 1, 60, 80
2, 52919, Note_on_c, 1, 60, 0
2, 52920, Note_on_c, 1, 67, 82
2, 53039, Note_on_c, 1, 67, 0
2, 53040, Note_on_c, 1, 69, 82
2, 53159, Note_on_c, 1, 69, 0
2, 53160, Note_on_c, 1, 67, 82
2, 53279, Note_on_c, 1, 67, 0
2, 53280, Note_on_c, 1, 65, 82
2, 53399, Note_on_c, 1, 65, 0
2, 53400, Note_on_c, 1, 62, 82
2, 53519, Note_on_c, 1, 62, 0
2, 53520, Note_on_c, 1, 59, 82
2, 53639, Note_on_c, 1, 59, 0
2, 53640, Note_on_c, 1, 55, 82
2, 53759, Note_on_c, 1, 55, 0
2, 53760, Note_on_c, 1, 52, 80
2, 53999, Note_on_c, 1, 52, 0
2, 54000, Note_on_c, 1, 55, 80
2, 54000, Note_on_c, 1, 60, 80
2, 54000, Note_on_c, 1, 64, 80
2, 54119, Note_on_c, 1, 55, 0
2, 54119, Note_on_c, 1, 60, 0
2, 54119, Note_on_c, 1, 64, 0
2, 54240, Note_on_c, 1, 55, 80
2, 54479, Note_on_c, 1, 55, 0
2, 54480, Note_on_c, 1, 55, 80
2, 54480, Note_on_c, 1, 60, 80
2, 54480, Note_on_c, 1, 64, 80
2, 54599, Note_on_c, 1, 55, 0
2, 54599, Note_on_c, 1, 60, 0
2, 54599, Note_on_c, 1, 64, 0
2, 54720, Note_on_c, 1, 48, 80
2, 54959, Note_on_c, 1, 48, 0
2, 54960, Note_on_c, 1, 55, 80
2, 54960, Note_on_c, 1, 60, 80
2, 54960, Note_on_c, 1, 64, 80
2, 55079, Note_on_c, 1, 55, 0
2, 55079, Note_on_c, 1, 60, 0
2, 55079, Note_on_c, 1, 64, 0
2, 55200, Note_on_c, 1, 55, 80
2, 55439, Note_on_c, 1, 55, 0
2, 55440, Note_on_c, 1, 55, 80
2, 55440, Note_on_c, 1, 60, 80
2, 55440, Note_on_c, 1, 64, 80
2, 55679, Note_on_c, 1, 55, 0
2, 55679, Note_on_c, 1, 60, 0
2, 55679, Note_on_c, 1, 64, 0
2, 55680, Note_on_c, 1, 52, 80
2, 55919, Note_on_c, 1, 52, 0
2, 55920, Note_on_c, 1, 55, 80
2, 55920, Note_on_c, 1, 60, 80
2, 55920, Note_on_c, 1, 64, 80
2, 56039, Note_on_c, 1, 55, 0
2, 56039, Note_on_c, 1, 60, 0
2, 56039, Note_on_c, 1, 64, 0
2, 56160, Note_on_c, 1, 55, 80
2, 56399, Note_on_c, 1, 55, 0
2, 56400, Note_on_c, 1, 55, 80
2, 56400, Note_on_c, 1, 57, 80
2, 56400, Note_on_c, 1, 60, 80
2, 56400, Note_on_c, 1, 64, 80
2, 56639, Note_on_c, 1, 55, 0
2, 56639, Note_on_c, 1, 57, 0
2, 56639, Note_on_c, 1, 60, 0
2, 56639, Note_on_c, 1, 64, 0
2, 56640, Note_on_c, 1, 53, 80
2, 56879, Note_on_c, 1, 53, 0
2, 56880, Note_on_c, 1, 53, 80
2, 56880, Note_on_c, 1, 57, 80
2, 56880, Note_on_c, 1, 62, 80
2, 56999, Note_on_c, 1, 53, 0
2, 56999, Note_on_c, 1, 57, 0
2, 56999, Note_on_c, 1, 62, 0
2, 57120, Note_on_c, 1, 57, 80
2, 57359, Note_on_c, 1, 57, 0
2, 57360, Note_on_c, 1, 53, 80
2, 57360, Note_on_c, 1, 57, 80
2, 57360, Note_on_c, 1, 62, 80
2, 57479, Note_on_c, 1, 53, 0
2, 57479, Note_on_c, 1, 57, 0
2, 57479, Note_on_c, 1, 62, 0
2, 57600, Note_on_c, 1, 53, 80
2, 57839, Note_on_c, 1, 53, 0
2, 57840, Note_on_c, 1, 53, 80
2, 57840, Note_on_c, 1, 57, 80
2, 57840, Note_on_c, 1, 62, 80
2, 57959, Note_on_c, 1, 53, 0
2, 57959, Note_on_c, 1, 57, 0
2, 57959, Note_on_c, 1, 62, 0
2, 58080, Note_on_c, 1, 57, 80
2, 58319, Note_on_c, 1, 57, 0
2, 58320, Note_on_c, 1, 53, 80
2, 58320, Note_on_c, 1, 57, 80
2, 58320, Note_on_c, 1, 62, 80
2, 58439, Note_on_c, 1, 53, 0
2, 58439, Note_on_c, 1, 57, 0
2, 58439, Note_on_c, 1, 62, 0
2, 58560, Note_on_c, 1, 53, 80
2, 58799, Note_on_c, 1, 53, 0
2, 58800, Note_on_c, 1, 53, 80
2, 58800, Note_on_c, 1, 57, 80
2, 58800, Note_on_c, 1, 62, 80
2, 58919, Note_on_c, 1, 53, 0
2, 58919, Note_on_c, 1, 57, 0
2, 58919, Note_on_c, 1, 62, 0
2, 59040, Note_on_c, 1, 57, 80
2, 59279, Note_on_c, 1, 57, 0
2, 59280, Note_on_c, 1, 53, 80
2, 59280, Note_on_c, 1, 57, 80
2, 59280, Note_on_c, 1, 62, 80
2, 59519, Note_on_c, 1, 53, 0
2, 59519, Note_on_c, 1, 57, 0
2, 59519, Note_on_c, 1, 62, 0
2, 59520, Note_on_c, 1, 53, 80
2, 59759, Note_on_c, 1, 53, 0
2, 59760, Note_on_c, 1, 53, 80
2, 59760, Note_on_c, 1, 57, 80
2, 59760, Note_on_c, 1, 62, 80
2, 59879, Note_on_c, 1, 53, 0
2, 59879, Note_on_c, 1, 57, 0
2, 59879, Note_on_c, 1, 62, 0
2, 60000, Note_on_c, 1, 55, 80
2, 60239, Note_on_c, 1, 55, 0
2, 60240, Note_on_c, 1, 50, 80
2, 60240, Note_on_c, 1, 53, 80
2, 60240, Note_on_c, 1, 55, 80
2, 60240, Note_on_c, 1, 59, 80
2, 60359, Note_on_c, 1, 50, 0
2, 60359, Note_on_c, 1, 53, 0
2, 60359, Note_on_c, 1, 55, 0
2, 60359, Note_on_c, 1, 59, 0
2, 60480, Note_on_c, 1, 52, 82
2, 60480, Note_on_c, 1, 55, 82
2, 60480, Note_on_c, 1, 60, 82
2, 60719, Note_on_c, 1, 52, 0
2, 60719, Note_on_c, 1, 55, 0
2, 60719, Note_on_c, 1, 60, 0
2, 61440, Note_on_c, 1, 52, 80
2, 61679, Note_on_c, 1, 52, 0
2, 61680, Note_on_c, 1, 55, 80
2, 61680, Note_on_c, 1, 60, 80
2, 61680, Note_on_c, 1, 64, 80
2, 61799, Note_on_c, 1, 55, 0
2, 61799, Note_on_c, 1, 60, 0
2, 61799, Note_on_c, 1, 64, 0
2, 61920, Note_on_c, 1, 55, 80
2, 62159, Note_on_c, 1, 55, 0
2, 62160, Note_on_c, 1, 55, 80
2, 62160, Note_on_c, 1, 60, 80
2, 62160, Note_on_c, 1, 64, 80
2, 62279, Note_on_c, 1, 55, 0
2, 62279, Note_on_c, 1, 60, 0
2, 62279, Note_on_c, 1, 64, 0
2, 62400, Note_on_c, 1, 48, 80
2, 62639, Note_on_c, 1, 48, 0
2, 62640, Note_on_c, 1, 55, 80
2, 62640, Note_on_c, 1, 60, 80
2, 62640, Note_on_c, 1, 64, 80
2, 62759, Note_on_c, 1, 55, 0
2, 62759, Note_on_c, 1, 60, 0
2, 62759, Note_on_c, 1, 64, 0
2, 62880, Note_on_c, 1, 55, 80
2, 63119, Note_on_c, 1, 55, 0
2, 63120, Note_on_c, 1, 55, 80
2, 63120, Note_on_c, 1, 60, 80
2, 63120, Note_on_c, 1, 64, 80
2, 63359, Note_on_c, 1, 55, 0
2, 63359, Note_on_c, 1, 60, 0
2, 63359, Note_on_c, 1, 64, 0
2, 63360, Note_on_c, 1, 52, 80
2, 63599, Note_on_c, 1, 52, 0
2, 63600, Note_on_c, 1, 55, 80
2, 63600, Note_on_c, 1, 60, 80
2, 63600, Note_on_c, 1, 64, 80
2, 63719, Note_on_c, 1, 55, 0
2, 63719, Note_on_c, 1, 60, 0
2, 63719, Note_on_c, 1, 64, 0
2, 63840, Note_on_c, 1, 55, 80
2, 64079, Note_on_c, 1, 55, 0
2, 64080, Note_on_c, 1, 55, 80
2, 64080, Note_on_c, 1, 57, 80
2, 64080, Note_on_c, 1, 60, 80
2, 64080, Note_on_c, 1, 64, 80
2, 64319, Note_on_c, 1, 55, 0
2, 64319, Note_on_c, 1, 57, 0
2, 64319, Note_on_c, 1, 60, 0
2, 64319, Note_on_c, 1, 64, 0
2, 64320, Note_on_c, 1, 53, 80
2, 64559, Note_on_c, 1, 53, 0
2, 64560, Note_on_c, 1, 53, 80
2, 64560, Note_on_c, 1, 57, 80
2, 64560, Note_on_c, 1, 62, 80
2, 64679, Note_on_c, 1, 53, 0
2, 64679, Note_on_c, 1, 57, 0
2, 64679, Note_on_c, 1, 62, 0
2, 64800, Note_on_c, 1, 57, 80
2, 65039, Note_on_c, 1, 57, 0
2, 65040, Note_on_c, 1, 57, 80
2, 65040, Note_on_c, 1, 60, 80
2, 65040, Note_on_c, 1, 65, 80
2, 65159, Note_on_c, 1, 57, 0
2, 65159, Note_on_c, 1, 60, 0
2, 65159, Note_on_c, 1, 65, 0
2, 65280, Note_on_c, 1, 55, 80
2, 65519, Note_on_c, 1, 55, 0
2, 65520, Note_on_c, 1, 55, 80
2, 65520, Note_on_c, 1, 60, 80
2, 65520, Note_on_c, 1, 64, 80
2, 65639, Note_on_c, 1, 55, 0
2, 65639, Note_on_c, 1, 60, 0
2, 65639, Note_on_c, 1, 64, 0
2, 65760, Note_on_c, 1, 53, 80
2, 65999, Note_on_c, 1, 53, 0
2, 66000, Note_on_c, 1, 53, 80
2, 66000, Note_on_c, 1, 57, 80
2, 66000, Note_on_c, 1, 62, 80
2, 66119, Note_on_c, 1, 53, 0
2, 66119, Note_on_c, 1, 57, 0
2, 66119, Note_on_c, 1, 62, 0
2, 66240, Note_on_c, 1, 55, 80
2, 66479, Note_on_c, 1, 55, 0
2, 66480, Note_on_c, 1, 55, 80
2, 66480, Note_on_c, 1, 60, 80
2, 66599, Note_on_c, 1, 55, 0
2, 66599, Note_on_c, 1, 60, 0
2, 66720, Note_on_c, 1, 57, 80
2, 66959, Note_on_c, 1, 57, 0
2, 66960, Note_on_c, 1, 55, 80
2, 66960, Note_on_c, 1, 60, 80
2, 67199, Note_on_c, 1, 55, 0
2, 67199, Note_on_c, 1, 60, 0
2, 67200, Note_on_c, 1, 50, 80
2, 67679, Note_on_c, 1, 50, 0
2, 67680, Note_on_c, 1, 55, 80
2, 67919, Note_on_c, 1, 55, 0
2, 67920, Note_on_c, 1, 55, 80
2, 68159, Note_on_c, 1, 55, 0
2, 68160, Note_on_c, 1, 60, 80
2, 68399, Note_on_c, 1, 60, 0
2, 68400, Note_on_c, 1, 55, 80
2, 68639, Note_on_c, 1, 55, 0
2, 68640, Note_on_c, 1, 48, 80
2, 68879, Note_on_c, 1, 48, 0
2, 68880, End_track
3, 0, Start_track
3, 0, Title_t, "Electric Bass, Bass\000"
3, 0, Key_signature, 0, "major"
3, 0, Control_c, 2, 121, 0
3, 0, Program_c, 2, 33
3, 0, Control_c, 2, 7, 100
3, 0, Control_c, 2, 10, 64
3, 0, Control_c, 2, 91, 0
3, 0, Control_c, 2, 93, 0
3, 0, MIDI_port, 0
3, 0, Control_c, 4, 121, 0
3, 0, Program_c, 4, 36
3, 0, Control_c, 4, 7, 100
3, 0, Control_c, 4, 10, 64
3, 0, Control_c, 4, 91, 0
3, 0, Control_c, 4, 93, 0
3, 0, MIDI_port, 0
3, 0, Control_c, 5, 121, 0
3, 0, Program_c, 5, 37
3, 0, Control_c, 5, 7, 100
3, 0, Control_c, 5, 10, 64
3, 0, Control_c, 5, 91, 0
3, 0, Control_c, 5, 93, 0
3, 0, MIDI_port, 0
3, 3360, Note_on_c, 2, 55, 80
3, 3839, Note_on_c, 2, 55, 0
3, 3840, Note_on_c, 2, 60, 80
3, 4319, Note_on_c, 2, 60, 0
3, 4320, Note_on_c, 2, 55, 80
3, 4799, Note_on_c, 2, 55, 0
3, 4800, Note_on_c, 2, 60, 80
3, 5279, Note_on_c, 2, 60, 0
3, 5280, Note_on_c, 2, 55, 80
3, 5759, Note_on_c, 2, 55, 0
3, 5760, Note_on_c, 2, 60, 80
3, 6239, Note_on_c, 2, 60, 0
3, 6240, Note_on_c, 2, 59, 80
3, 6479, Note_on_c, 2, 59, 0
3, 6480, Note_on_c, 2, 60, 80
3, 6719, Note_on_c, 2, 60, 0
3, 6720, Note_on_c, 2, 62, 80
3, 7199, Note_on_c, 2, 62, 0
3, 7200, Note_on_c, 2, 57, 80
3, 7679, Note_on_c, 2, 57, 0
3, 7680, Note_on_c, 2, 62, 80
3, 8159, Note_on_c, 2, 62, 0
3, 8160, Note_on_c, 2, 57, 80
3, 8639, Note_on_c, 2, 57, 0
3, 8640, Note_on_c, 2, 62, 80
3, 9119, Note_on_c, 2, 62, 0
3, 9120, Note_on_c, 2, 57, 80
3, 9599, Note_on_c, 2, 57, 0
3, 9600, Note_on_c, 2, 62, 80
3, 10079, Note_on_c, 2, 62, 0
3, 10080, Note_on_c, 2, 55, 80
3, 10319, Note_on_c, 2, 55, 0
3, 10320, Note_on_c, 2, 59, 80
3, 10559, Note_on_c, 2, 59, 0
3, 10560, Note_on_c, 2, 60, 80
3, 10919, Note_on_c, 2, 60, 0
3, 10920, Note_on_c, 2, 55, 80
3, 11159, Note_on_c, 2, 55, 0
3, 11160, Note_on_c, 2, 57, 80
3, 11279, Note_on_c, 2, 57, 0
3, 11280, Note_on_c, 2, 59, 80
3, 11519, Note_on_c, 2, 59, 0
3, 11520, Note_on_c, 2, 60, 80
3, 11999, Note_on_c, 2, 60, 0
3, 12000, Note_on_c, 2, 55, 80
3, 12479, Note_on_c, 2, 55, 0
3, 12480, Note_on_c, 2, 60, 80
3, 12959, Note_on_c, 2, 60, 0
3, 12960, Note_on_c, 2, 55, 80
3, 13439, Note_on_c, 2, 55, 0
3, 13440, Note_on_c, 2, 60, 80
3, 13919, Note_on_c, 2, 60, 0
3, 13920, Note_on_c, 2, 59, 80
3, 14159, Note_on_c, 2, 59, 0
3, 14160, Note_on_c, 2, 60, 80
3, 14399, Note_on_c, 2, 60, 0
3, 14400, Note_on_c, 2, 62, 80
3, 14879, Note_on_c, 2, 62, 0
3, 14880, Note_on_c, 2, 60, 80
3, 15359, Note_on_c, 2, 60, 0
3, 15360, Note_on_c, 2, 52, 80
3, 15839, Note_on_c, 2, 52, 0
3, 15840, Note_on_c, 2, 53, 80
3, 16319, Note_on_c, 2, 53, 0
3, 16320, Note_on_c, 2, 55, 80
3, 16799, Note_on_c, 2, 55, 0
3, 16800, Note_on_c, 2, 57, 80
3, 17279, Note_on_c, 2, 57, 0
3, 17280, Note_on_c, 2, 50, 80
3, 17759, Note_on_c, 2, 50, 0
3, 17760, Note_on_c, 2, 55, 80
3, 18119, Note_on_c, 2, 55, 0
3, 18120, Note_on_c, 2, 48, 80
3, 18239, Note_on_c, 2, 48, 0
3, 18480, Note_on_c, 2, 55, 80
3, 18599, Note_on_c, 2, 55, 0
3, 18720, Note_on_c, 2, 57, 80
3, 18839, Note_on_c, 2, 57, 0
3, 18960, Note_on_c, 2, 59, 80
3, 19079, Note_on_c, 2, 59, 0
3, 19200, Note_on_c, 2, 60, 80
3, 19679, Note_on_c, 2, 60, 0
3, 19680, Note_on_c, 2, 55, 80
3, 20159, Note_on_c, 2, 55, 0
3, 20160, Note_on_c, 2, 60, 80
3, 20639, Note_on_c, 2, 60, 0
3, 20640, Note_on_c, 2, 55, 80
3, 21119, Note_on_c, 2, 55, 0
3, 21120, Note_on_c, 2, 60, 80
3, 21599, Note_on_c, 2, 60, 0
3, 21600, Note_on_c, 2, 59, 80
3, 21839, Note_on_c, 2, 59, 0
3, 21840, Note_on_c, 2, 60, 80
3, 22079, Note_on_c, 2, 60, 0
3, 22080, Note_on_c, 2, 62, 80
3, 22559, Note_on_c, 2, 62, 0
3, 22560, Note_on_c, 2, 57, 80
3, 23039, Note_on_c, 2, 57, 0
3, 23040, Note_on_c, 2, 62, 80
3, 23519, Note_on_c, 2, 62, 0
3, 23520, Note_on_c, 2, 57, 80
3, 23999, Note_on_c, 2, 57, 0
3, 24000, Note_on_c, 2, 62, 80
3, 24479, Note_on_c, 2, 62, 0
3, 24480, Note_on_c, 2, 57, 80
3, 24959, Note_on_c, 2, 57, 0
3, 24960, Note_on_c, 2, 62, 80
3, 25439, Note_on_c, 2, 62, 0
3, 25440, Note_on_c, 2, 55, 80
3, 25919, Note_on_c, 2, 55, 0
3, 25920, Note_on_c, 2, 60, 80
3, 26279, Note_on_c, 2, 60, 0
3, 26280, Note_on_c, 2, 55, 80
3, 26519, Note_on_c, 2, 55, 0
3, 26520, Note_on_c, 2, 57, 80
3, 26639, Note_on_c, 2, 57, 0
3, 26640, Note_on_c, 2, 59, 80
3, 26879, Note_on_c, 2, 59, 0
3, 26880, Note_on_c, 2, 60, 80
3, 27359, Note_on_c, 2, 60, 0
3, 27360, Note_on_c, 2, 55, 80
3, 27839, Note_on_c, 2, 55, 0
3, 27840, Note_on_c, 2, 60, 80
3, 28319, Note_on_c, 2, 60, 0
3, 28320, Note_on_c, 2, 55, 80
3, 28799, Note_on_c, 2, 55, 0
3, 28800, Note_on_c, 2, 60, 80
3, 29279, Note_on_c, 2, 60, 0
3, 29280, Note_on_c, 2, 59, 80
3, 29519, Note_on_c, 2, 59, 0
3, 29520, Note_on_c, 2, 60, 80
3, 29759, Note_on_c, 2, 60, 0
3, 29760, Note_on_c, 2, 62, 80
3, 30239, Note_on_c, 2, 62, 0
3, 30240, Note_on_c, 2, 60, 80
3, 30719, Note_on_c, 2, 60, 0
3, 30720, Note_on_c, 2, 52, 80
3, 31199, Note_on_c, 2, 52, 0
3, 31200, Note_on_c, 2, 53, 80
3, 31679, Note_on_c, 2, 53, 0
3, 31680, Note_on_c, 2, 55, 80
3, 32159, Note_on_c, 2, 55, 0
3, 32160, Note_on_c, 2, 57, 80
3, 32639, Note_on_c, 2, 57, 0
3, 32640, Note_on_c, 2, 50, 80
3, 33119, Note_on_c, 2, 50, 0
3, 33120, Note_on_c, 2, 55, 80
3, 33599, Note_on_c, 2, 55, 0
3, 33600, Note_on_c, 2, 60, 80
3, 33839, Note_on_c, 2, 60, 0
3, 33840, Note_on_c, 2, 60, 80
3, 34079, Note_on_c, 2, 60, 0
3, 34080, Note_on_c, 2, 62, 80
3, 34319, Note_on_c, 2, 62, 0
3, 34320, Note_on_c, 2, 64, 80
3, 34559, Note_on_c, 2, 64, 0
3, 34560, Note_on_c, 2, 52, 80
3, 35039, Note_on_c, 2, 52, 0
3, 35040, Note_on_c, 2, 53, 80
3, 35519, Note_on_c, 2, 53, 0
3, 35520, Note_on_c, 2, 55, 80
3, 35999, Note_on_c, 2, 55, 0
3, 36000, Note_on_c, 2, 57, 80
3, 36479, Note_on_c, 2, 57, 0
3, 36480, Note_on_c, 2, 53, 80
3, 36959, Note_on_c, 2, 53, 0
3, 36960, Note_on_c, 2, 55, 80
3, 37079, Note_on_c, 2, 55, 0
3, 37080, Note_on_c, 2, 55, 80
3, 37439, Note_on_c, 2, 55, 0
3, 37440, Note_on_c, 2, 60, 80
3, 38399, Note_on_c, 2, 60, 0
3, 38400, Note_on_c, 2, 60, 80
3, 38879, Note_on_c, 2, 60, 0
3, 38880, Note_on_c, 2, 59, 80
3, 39359, Note_on_c, 2, 59, 0
3, 39360, Note_on_c, 2, 55, 80
3, 39839, Note_on_c, 2, 55, 0
3, 39840, Note_on_c, 2, 60, 80
3, 40319, Note_on_c, 2, 60, 0
3, 40320, Note_on_c, 2, 55, 80
3, 40799, Note_on_c, 2, 55, 0
3, 40800, Note_on_c, 2, 55, 80
3, 41279, Note_on_c, 2, 55, 0
3, 41280, Note_on_c, 2, 60, 80
3, 41759, Note_on_c, 2, 60, 0
3, 41760, Note_on_c, 2, 60, 80
3, 42239, Note_on_c, 2, 60, 0
3, 42240, Note_on_c, 2, 53, 80
3, 42719, Note_on_c, 2, 53, 0
3, 42720, Note_on_c, 2, 53, 80
3, 43199, Note_on_c, 2, 53, 0
3, 43200, Note_on_c, 2, 64, 80
3, 43679, Note_on_c, 2, 64, 0
3, 43680, Note_on_c, 2, 57, 80
3, 44159, Note_on_c, 2, 57, 0
3, 44160, Note_on_c, 2, 64, 80
3, 44639, Note_on_c, 2, 64, 0
3, 44640, Note_on_c, 2, 59, 80
3, 45119, Note_on_c, 2, 59, 0
3, 45120, Note_on_c, 2, 64, 80
3, 46079, Note_on_c, 2, 64, 0
3, 46080, Note_on_c, 2, 50, 80
3, 46559, Note_on_c, 2, 50, 0
3, 46560, Note_on_c, 2, 55, 80
3, 47039, Note_on_c, 2, 55, 0
3, 47040, Note_on_c, 2, 48, 80
3, 47519, Note_on_c, 2, 48, 0
3, 47520, Note_on_c, 2, 48, 80
3, 47999, Note_on_c, 2, 48, 0
3, 48000, Note_on_c, 2, 50, 80
3, 48479, Note_on_c, 2, 50, 0
3, 48480, Note_on_c, 2, 50, 80
3, 48959, Note_on_c, 2, 50, 0
3, 48960, Note_on_c, 2, 52, 80
3, 49439, Note_on_c, 2, 52, 0
3, 49440, Note_on_c, 2, 52, 80
3, 49919, Note_on_c, 2, 52, 0
3, 49920, Note_on_c, 2, 53, 80
3, 50399, Note_on_c, 2, 53, 0
3, 50400, Note_on_c, 2, 53, 80
3, 50879, Note_on_c, 2, 53, 0
3, 50880, Note_on_c, 2, 52, 80
3, 51359, Note_on_c, 2, 52, 0
3, 51360, Note_on_c, 2, 57, 80
3, 51839, Note_on_c, 2, 57, 0
3, 51840, Note_on_c, 2, 62, 80
3, 52319, Note_on_c, 2, 62, 0
3, 52320, Note_on_c, 2, 55, 80
3, 52799, Note_on_c, 2, 55, 0
3, 52800, Note_on_c, 2, 60, 80
3, 53279, Note_on_c, 2, 60, 0
3, 53760, Note_on_c, 2, 60, 80
3, 54239, Note_on_c, 2, 60, 0
3, 54240, Note_on_c, 2, 55, 80
3, 54719, Note_on_c, 2, 55, 0
3, 54720, Note_on_c, 2, 60, 80
3, 55199, Note_on_c, 2, 60, 0
3, 55200, Note_on_c, 2, 55, 80
3, 55679, Note_on_c, 2, 55, 0
3, 55680, Note_on_c, 2, 60, 80
3, 56159, Note_on_c, 2, 60, 0
3, 56160, Note_on_c, 2, 59, 80
3, 56399, Note_on_c, 2, 59, 0
3, 56400, Note_on_c, 2, 60, 80
3, 56639, Note_on_c, 2, 60, 0
3, 56640, Note_on_c, 2, 62, 80
3, 57119, Note_on_c, 2, 62, 0
3, 57120, Note_on_c, 2, 57, 80
3, 57599, Note_on_c, 2, 57, 0
3, 57600, Note_on_c, 2, 62, 80
3, 58079, Note_on_c, 2, 62, 0
3, 58080, Note_on_c, 2, 57, 80
3, 58559, Note_on_c, 2, 57, 0
3, 58560, Note_on_c, 2, 62, 80
3, 59039, Note_on_c, 2, 62, 0
3, 59040, Note_on_c, 2, 57, 80
3, 59519, Note_on_c, 2, 57, 0
3, 59520, Note_on_c, 2, 62, 80
3, 59999, Note_on_c, 2, 62, 0
3, 60000, Note_on_c, 2, 55, 80
3, 60239, Note_on_c, 2, 55, 0
3, 60240, Note_on_c, 2, 59, 80
3, 60479, Note_on_c, 2, 59, 0
3, 60480, Note_on_c, 2, 60, 80
3, 60719, Note_on_c, 2, 60, 0
3, 60720, Note_on_c, 2, 55, 82
3, 60959, Note_on_c, 2, 55, 0
3, 60960, Note_on_c, 2, 57, 82
3, 61199, Note_on_c, 2, 57, 0
3, 61200, Note_on_c, 2, 59, 82
3, 61439, Note_on_c, 2, 59, 0
3, 61440, Note_on_c, 2, 60, 80
3, 61919, Note_on_c, 2, 60, 0
3, 61920, Note_on_c, 2, 55, 80
3, 62399, Note_on_c, 2, 55, 0
3, 62400, Note_on_c, 2, 60, 80
3, 62879, Note_on_c, 2, 60, 0
3, 62880, Note_on_c, 2, 55, 80
3, 63359, Note_on_c, 2, 55, 0
3, 63360, Note_on_c, 2, 60, 80
3, 63839, Note_on_c, 2, 60, 0
3, 63840, Note_on_c, 2, 59, 80
3, 64079, Note_on_c, 2, 59, 0
3, 64080, Note_on_c, 2, 60, 80
3, 64319, Note_on_c, 2, 60, 0
3, 64320, Note_on_c, 2, 62, 80
3, 64799, Note_on_c, 2, 62, 0
3, 64800, Note_on_c, 2, 60, 80
3, 65279, Note_on_c, 2, 60, 0
3, 65280, Note_on_c, 2, 52, 80
3, 65759, Note_on_c, 2, 52, 0
3, 65760, Note_on_c, 2, 53, 80
3, 66239, Note_on_c, 2, 53, 0
3, 66240, Note_on_c, 2, 55, 80
3, 66719, Note_on_c, 2, 55, 0
3, 66720, Note_on_c, 2, 57, 80
3, 67199, Note_on_c, 2, 57, 0
3, 67200, Note_on_c, 2, 50, 80
3, 67679, Note_on_c, 2, 50, 0
3, 67680, Note_on_c, 2, 55, 80
3, 68159, Note_on_c, 2, 55, 0
3, 68160, Note_on_c, 2, 60, 80
3, 68399, Note_on_c, 2, 60, 0
3, 68400, Note_on_c, 2, 55, 80
3, 68639, Note_on_c, 2, 55, 0
3, 68640, Note_on_c, 2, 48, 80
3, 68879, Note_on_c, 2, 48, 0
3, 68880, End_track
0, 0, End_of_file
