0, 0, Header, 1, 5, 480
1, 0, Start_track
1, 0, Title_t, "Piano, Minstrel\000"
1, 0, Time_signature, 4, 2, 24, 8
1, 0, Key_signature, 0, "major"
1, 0, Tempo, 428571
1, 0, Control_c, 2, 121, 0
1, 0, Program_c, 2, 0
1, 0, Control_c, 2, 7, 100
1, 0, Control_c, 2, 10, 64
1, 0, Control_c, 2, 91, 0
1, 0, Control_c, 2, 93, 0
1, 0, MIDI_port, 0
1, 30720, Note_on_c, 2, 60, 80
1, 31175, Note_on_c, 2, 60, 0
1, 31440, Note_on_c, 2, 60, 80
1, 31895, Note_on_c, 2, 60, 0
1, 32160, Note_on_c, 2, 60, 80
1, 32615, Note_on_c, 2, 60, 0
1, 32880, Note_on_c, 2, 60, 80
1, 33239, Note_on_c, 2, 60, 0
1, 33840, Note_on_c, 2, 62, 80
1, 33953, Note_on_c, 2, 62, 0
1, 33960, Note_on_c, 2, 60, 80
1, 34073, Note_on_c, 2, 60, 0
1, 34080, Note_on_c, 2, 59, 80
1, 34307, Note_on_c, 2, 59, 0
1, 34320, Note_on_c, 2, 60, 80
1, 34547, Note_on_c, 2, 60, 0
1, 34560, Note_on_c, 2, 60, 80
1, 35015, Note_on_c, 2, 60, 0
1, 35280, Note_on_c, 2, 60, 80
1, 35735, Note_on_c, 2, 60, 0
1, 36000, Note_on_c, 2, 60, 80
1, 36455, Note_on_c, 2, 60, 0
1, 36720, Note_on_c, 2, 60, 80
1, 37079, Note_on_c, 2, 60, 0
1, 37680, Note_on_c, 2, 62, 80
1, 37793, Note_on_c, 2, 62, 0
1, 37800, Note_on_c, 2, 60, 80
1, 37913, Note_on_c, 2, 60, 0
1, 37920, Note_on_c, 2, 59, 80
1, 38147, Note_on_c, 2, 59, 0
1, 38160, Note_on_c, 2, 60, 80
1, 38387, Note_on_c, 2, 60, 0
1, 38400, Note_on_c, 2, 72, 80
1, 38400, Note_on_c, 2, 76, 80
1, 38400, Note_on_c, 2, 79, 80
1, 38627, Note_on_c, 2, 72, 0
1, 38627, Note_on_c, 2, 76, 0
1, 38627, Note_on_c, 2, 79, 0
1, 38640, Note_on_c, 2, 67, 80
1, 38640, Note_on_c, 2, 72, 80
1, 38640, Note_on_c, 2, 76, 80
1, 39323, Note_on_c, 2, 67, 0
1, 39323, Note_on_c, 2, 72, 0
1, 39323, Note_on_c, 2, 76, 0
1, 41040, Note_on_c, 2, 76, 80
1, 41267, Note_on_c, 2, 76, 0
1, 41280, Note_on_c, 2, 74, 80
1, 41507, Note_on_c, 2, 74, 0
1, 41520, Note_on_c, 2, 72, 80
1, 41747, Note_on_c, 2, 72, 0
1, 41760, Note_on_c, 2, 71, 80
1, 41987, Note_on_c, 2, 71, 0
1, 42000, Note_on_c, 2, 64, 80
1, 42000, Note_on_c, 2, 67, 80
1, 42000, Note_on_c, 2, 72, 80
1, 42341, Note_on_c, 2, 64, 0
1, 42341, Note_on_c, 2, 67, 0
1, 42341, Note_on_c, 2, 72, 0
1, 42360, Note_on_c, 2, 74, 80
1, 42473, Note_on_c, 2, 74, 0
1, 42480, Note_on_c, 2, 76, 80
1, 42707, Note_on_c, 2, 76, 0
1, 46080, Note_on_c, 2, 67, 80
1, 46080, Note_on_c, 2, 72, 80
1, 46307, Note_on_c, 2, 67, 0
1, 46307, Note_on_c, 2, 72, 0
1, 46320, Note_on_c, 2, 67, 80
1, 46320, Note_on_c, 2, 72, 80
1, 46547, Note_on_c, 2, 67, 0
1, 46547, Note_on_c, 2, 72, 0
1, 46560, Note_on_c, 2, 67, 80
1, 46560, Note_on_c, 2, 72, 80
1, 46787, Note_on_c, 2, 67, 0
1, 46787, Note_on_c, 2, 72, 0
1, 46800, Note_on_c, 2, 64, 80
1, 46800, Note_on_c, 2, 69, 80
1, 47255, Note_on_c, 2, 64, 0
1, 47255, Note_on_c, 2, 69, 0
1, 47280, Note_on_c, 2, 62, 80
1, 47280, Note_on_c, 2, 67, 80
1, 47963, Note_on_c, 2, 62, 0
1, 47963, Note_on_c, 2, 67, 0
1, 48720, Note_on_c, 2, 64, 80
1, 48720, Note_on_c, 2, 69, 80
1, 49175, Note_on_c, 2, 64, 0
1, 49175, Note_on_c, 2, 69, 0
1, 49200, Note_on_c, 2, 67, 80
1, 49427, Note_on_c, 2, 67, 0
1, 49440, Note_on_c, 2, 67, 80
1, 49667, Note_on_c, 2, 67, 0
1, 49680, Note_on_c, 2, 60, 80
1, 49680, Note_on_c, 2, 65, 80
1, 50135, Note_on_c, 2, 60, 0
1, 50135, Note_on_c, 2, 65, 0
1, 50160, Note_on_c, 2, 67, 80
1, 50387, Note_on_c, 2, 67, 0
1, 50400, Note_on_c, 2, 60, 80
1, 50400, Note_on_c, 2, 65, 80
1, 50627, Note_on_c, 2, 60, 0
1, 50627, Note_on_c, 2, 65, 0
1, 50640, Note_on_c, 2, 64, 80
1, 50867, Note_on_c, 2, 64, 0
1, 50880, Note_on_c, 2, 60, 80
1, 51335, Note_on_c, 2, 60, 0
1, 53760, Note_on_c, 2, 72, 80
1, 53760, Note_on_c, 2, 76, 80
1, 53760, Note_on_c, 2, 79, 80
1, 53987, Note_on_c, 2, 72, 0
1, 53987, Note_on_c, 2, 76, 0
1, 53987, Note_on_c, 2, 79, 0
1, 54000, Note_on_c, 2, 67, 80
1, 54000, Note_on_c, 2, 72, 80
1, 54000, Note_on_c, 2, 76, 80
1, 54683, Note_on_c, 2, 67, 0
1, 54683, Note_on_c, 2, 72, 0
1, 54683, Note_on_c, 2, 76, 0
1, 56400, Note_on_c, 2, 76, 80
1, 56627, Note_on_c, 2, 76, 0
1, 56640, Note_on_c, 2, 74, 80
1, 56867, Note_on_c, 2, 74, 0
1, 56880, Note_on_c, 2, 64, 80
1, 56880, Note_on_c, 2, 67, 80
1, 56880, Note_on_c, 2, 72, 80
1, 57335, Note_on_c, 2, 64, 0
1, 57335, Note_on_c, 2, 67, 0
1, 57335, Note_on_c, 2, 72, 0
1, 57360, Note_on_c, 2, 64, 80
1, 57360, Note_on_c, 2, 67, 80
1, 57360, Note_on_c, 2, 72, 80
1, 57815, Note_on_c, 2, 64, 0
1, 57815, Note_on_c, 2, 67, 0
1, 57815, Note_on_c, 2, 72, 0
1, 57840, Note_on_c, 2, 74, 80
1, 57899, Note_on_c, 2, 74, 0
1, 57960, Note_on_c, 2, 76, 80
1, 58073, Note_on_c, 2, 76, 0
1, 61200, Note_on_c, 2, 72, 80
1, 61427, Note_on_c, 2, 72, 0
1, 61440, Note_on_c, 2, 64, 80
1, 61440, Note_on_c, 2, 67, 80
1, 61440, Note_on_c, 2, 72, 80
1, 61667, Note_on_c, 2, 64, 0
1, 61667, Note_on_c, 2, 67, 0
1, 61667, Note_on_c, 2, 72, 0
1, 61680, Note_on_c, 2, 72, 80
1, 61907, Note_on_c, 2, 72, 0
1, 61920, Note_on_c, 2, 64, 80
1, 61920, Note_on_c, 2, 67, 80
1, 61920, Note_on_c, 2, 72, 80
1, 62147, Note_on_c, 2, 64, 0
1, 62147, Note_on_c, 2, 67, 0
1, 62147, Note_on_c, 2, 72, 0
1, 62160, Note_on_c, 2, 69, 80
1, 62387, Note_on_c, 2, 69, 0
1, 62400, Note_on_c, 2, 67, 80
1, 62639, Note_on_c, 2, 67, 0
1, 63840, Note_on_c, 2, 67, 80
1, 64067, Note_on_c, 2, 67, 0
1, 64080, Note_on_c, 2, 67, 80
1, 64307, Note_on_c, 2, 67, 0
1, 64320, Note_on_c, 2, 60, 80
1, 64320, Note_on_c, 2, 64, 80
1, 64320, Note_on_c, 2, 69, 80
1, 64547, Note_on_c, 2, 60, 0
1, 64547, Note_on_c, 2, 64, 0
1, 64547, Note_on_c, 2, 69, 0
1, 64560, Note_on_c, 2, 67, 80
1, 64787, Note_on_c, 2, 67, 0
1, 64800, Note_on_c, 2, 65, 80
1, 65027, Note_on_c, 2, 65, 0
1, 65040, Note_on_c, 2, 55, 80
1, 65040, Note_on_c, 2, 60, 80
1, 65040, Note_on_c, 2, 65, 80
1, 65495, Note_on_c, 2, 55, 0
1, 65495, Note_on_c, 2, 60, 0
1, 65495, Note_on_c, 2, 65, 0
1, 65520, Note_on_c, 2, 67, 80
1, 65747, Note_on_c, 2, 67, 0
1, 65760, Note_on_c, 2, 55, 80
1, 65760, Note_on_c, 2, 60, 80
1, 65760, Note_on_c, 2, 65, 80
1, 65987, Note_on_c, 2, 55, 0
1, 65987, Note_on_c, 2, 60, 0
1, 65987, Note_on_c, 2, 65, 0
1, 66000, Note_on_c, 2, 64, 80
1, 66227, Note_on_c, 2, 64, 0
1, 66240, Note_on_c, 2, 60, 80
1, 66695, Note_on_c, 2, 60, 0
1, 75840, Note_on_c, 2, 65, 80
1, 76295, Note_on_c, 2, 65, 0
1, 103440, Note_on_c, 2, 67, 80
1, 103440, Note_on_c, 2, 72, 80
1, 103667, Note_on_c, 2, 67, 0
1, 103667, Note_on_c, 2, 72, 0
1, 103680, Note_on_c, 2, 67, 80
1, 103680, Note_on_c, 2, 72, 80
1, 103907, Note_on_c, 2, 67, 0
1, 103907, Note_on_c, 2, 72, 0
1, 103920, Note_on_c, 2, 67, 80
1, 103920, Note_on_c, 2, 72, 80
1, 104147, Note_on_c, 2, 67, 0
1, 104147, Note_on_c, 2, 72, 0
1, 104160, Note_on_c, 2, 67, 80
1, 104160, Note_on_c, 2, 72, 80
1, 104387, Note_on_c, 2, 67, 0
1, 104387, Note_on_c, 2, 72, 0
1, 104400, Note_on_c, 2, 64, 80
1, 104400, Note_on_c, 2, 69, 80
1, 104855, Note_on_c, 2, 64, 0
1, 104855, Note_on_c, 2, 69, 0
1, 104880, Note_on_c, 2, 62, 80
1, 104880, Note_on_c, 2, 67, 80
1, 105563, Note_on_c, 2, 62, 0
1, 105563, Note_on_c, 2, 67, 0
1, 106320, Note_on_c, 2, 67, 80
1, 106547, Note_on_c, 2, 67, 0
1, 106560, Note_on_c, 2, 69, 80
1, 106787, Note_on_c, 2, 69, 0
1, 106800, Note_on_c, 2, 67, 80
1, 107027, Note_on_c, 2, 67, 0
1, 107040, Note_on_c, 2, 65, 80
1, 107267, Note_on_c, 2, 65, 0
1, 107280, Note_on_c, 2, 65, 80
1, 107735, Note_on_c, 2, 65, 0
1, 107760, Note_on_c, 2, 60, 80
1, 107760, Note_on_c, 2, 64, 80
1, 107760, Note_on_c, 2, 67, 80
1, 108443, Note_on_c, 2, 60, 0
1, 108443, Note_on_c, 2, 64, 0
1, 108443, Note_on_c, 2, 67, 0
1, 111120, Note_on_c, 2, 64, 80
1, 111120, Note_on_c, 2, 67, 80
1, 111347, Note_on_c, 2, 64, 0
1, 111347, Note_on_c, 2, 67, 0
1, 111360, Note_on_c, 2, 67, 80
1, 111360, Note_on_c, 2, 72, 80
1, 111587, Note_on_c, 2, 67, 0
1, 111587, Note_on_c, 2, 72, 0
1, 111600, Note_on_c, 2, 67, 80
1, 111600, Note_on_c, 2, 72, 80
1, 111827, Note_on_c, 2, 67, 0
1, 111827, Note_on_c, 2, 72, 0
1, 111840, Note_on_c, 2, 67, 80
1, 111840, Note_on_c, 2, 72, 80
1, 112067, Note_on_c, 2, 67, 0
1, 112067, Note_on_c, 2, 72, 0
1, 112080, Note_on_c, 2, 64, 80
1, 112080, Note_on_c, 2, 69, 80
1, 112535, Note_on_c, 2, 64, 0
1, 112535, Note_on_c, 2, 69, 0
1, 112560, Note_on_c, 2, 62, 80
1, 112560, Note_on_c, 2, 67, 80
1, 113243, Note_on_c, 2, 62, 0
1, 113243, Note_on_c, 2, 67, 0
1, 114000, Note_on_c, 2, 60, 80
1, 114000, Note_on_c, 2, 64, 80
1, 114000, Note_on_c, 2, 69, 80
1, 114455, Note_on_c, 2, 60, 0
1, 114455, Note_on_c, 2, 64, 0
1, 114455, Note_on_c, 2, 69, 0
1, 114480, Note_on_c, 2, 67, 80
1, 114707, Note_on_c, 2, 67, 0
1, 114720, Note_on_c, 2, 67, 80
1, 114947, Note_on_c, 2, 67, 0
1, 114960, Note_on_c, 2, 55, 80
1, 114960, Note_on_c, 2, 60, 80
1, 114960, Note_on_c, 2, 65, 80
1, 115415, Note_on_c, 2, 55, 0
1, 115415, Note_on_c, 2, 60, 0
1, 115415, Note_on_c, 2, 65, 0
1, 115440, Note_on_c, 2, 67, 80
1, 115667, Note_on_c, 2, 67, 0
1, 115680, Note_on_c, 2, 55, 80
1, 115680, Note_on_c, 2, 60, 80
1, 115680, Note_on_c, 2, 65, 80
1, 115907, Note_on_c, 2, 55, 0
1, 115907, Note_on_c, 2, 60, 0
1, 115907, Note_on_c, 2, 65, 0
1, 115920, Note_on_c, 2, 64, 80
1, 116147, Note_on_c, 2, 64, 0
1, 116160, Note_on_c, 2, 60, 80
1, 116615, Note_on_c, 2, 60, 0
1, 118800, Note_on_c, 2, 67, 80
1, 118800, Note_on_c, 2, 72, 80
1, 119027, Note_on_c, 2, 67, 0
1, 119027, Note_on_c, 2, 72, 0
1, 119040, Note_on_c, 2, 67, 80
1, 119040, Note_on_c, 2, 72, 80
1, 119267, Note_on_c, 2, 67, 0
1, 119267, Note_on_c, 2, 72, 0
1, 119280, Note_on_c, 2, 67, 80
1, 119280, Note_on_c, 2, 72, 80
1, 119507, Note_on_c, 2, 67, 0
1, 119507, Note_on_c, 2, 72, 0
1, 119520, Note_on_c, 2, 67, 80
1, 119520, Note_on_c, 2, 72, 80
1, 119747, Note_on_c, 2, 67, 0
1, 119747, Note_on_c, 2, 72, 0
1, 119760, Note_on_c, 2, 64, 80
1, 119760, Note_on_c, 2, 69, 80
1, 120215, Note_on_c, 2, 64, 0
1, 120215, Note_on_c, 2, 69, 0
1, 120240, Note_on_c, 2, 62, 80
1, 120240, Note_on_c, 2, 67, 80
1, 120923, Note_on_c, 2, 62, 0
1, 120923, Note_on_c, 2, 67, 0
1, 121680, Note_on_c, 2, 67, 80
1, 121907, Note_on_c, 2, 67, 0
1, 121920, Note_on_c, 2, 69, 80
1, 122147, Note_on_c, 2, 69, 0
1, 122160, Note_on_c, 2, 67, 80
1, 122387, Note_on_c, 2, 67, 0
1, 122400, Note_on_c, 2, 65, 80
1, 122627, Note_on_c, 2, 65, 0
1, 122640, Note_on_c, 2, 65, 80
1, 123095, Note_on_c, 2, 65, 0
1, 123120, Note_on_c, 2, 60, 80
1, 123120, Note_on_c, 2, 64, 80
1, 123120, Note_on_c, 2, 67, 80
1, 123803, Note_on_c, 2, 60, 0
1, 123803, Note_on_c, 2, 64, 0
1, 123803, Note_on_c, 2, 67, 0
1, 126720, Note_on_c, 2, 64, 80
1, 126720, Note_on_c, 2, 67, 80
1, 126720, Note_on_c, 2, 72, 80
1, 126947, Note_on_c, 2, 64, 0
1, 126947, Note_on_c, 2, 67, 0
1, 126947, Note_on_c, 2, 72, 0
1, 126960, Note_on_c, 2, 72, 80
1, 127187, Note_on_c, 2, 72, 0
1, 127200, Note_on_c, 2, 64, 80
1, 127200, Note_on_c, 2, 67, 80
1, 127200, Note_on_c, 2, 72, 80
1, 127427, Note_on_c, 2, 64, 0
1, 127427, Note_on_c, 2, 67, 0
1, 127427, Note_on_c, 2, 72, 0
1, 127440, Note_on_c, 2, 69, 80
1, 127895, Note_on_c, 2, 69, 0
1, 129360, Note_on_c, 2, 67, 80
1, 129587, Note_on_c, 2, 67, 0
1, 129600, Note_on_c, 2, 60, 80
1, 129600, Note_on_c, 2, 64, 80
1, 129600, Note_on_c, 2, 69, 80
1, 129827, Note_on_c, 2, 60, 0
1, 129827, Note_on_c, 2, 64, 0
1, 129827, Note_on_c, 2, 69, 0
1, 129840, Note_on_c, 2, 67, 80
1, 130067, Note_on_c, 2, 67, 0
1, 130080, Note_on_c, 2, 65, 80
1, 130307, Note_on_c, 2, 65, 0
1, 130320, Note_on_c, 2, 55, 80
1, 130320, Note_on_c, 2, 60, 80
1, 130320, Note_on_c, 2, 65, 80
1, 130775, Note_on_c, 2, 55, 0
1, 130775, Note_on_c, 2, 60, 0
1, 130775, Note_on_c, 2, 65, 0
1, 130800, Note_on_c, 2, 67, 80
1, 131027, Note_on_c, 2, 67, 0
1, 131040, Note_on_c, 2, 55, 80
1, 131040, Note_on_c, 2, 60, 80
1, 131040, Note_on_c, 2, 65, 80
1, 131267, Note_on_c, 2, 55, 0
1, 131267, Note_on_c, 2, 60, 0
1, 131267, Note_on_c, 2, 65, 0
1, 131280, Note_on_c, 2, 64, 80
1, 131507, Note_on_c, 2, 64, 0
1, 131520, Note_on_c, 2, 60, 80
1, 131975, Note_on_c, 2, 60, 0
1, 141120, Note_on_c, 2, 65, 80
1, 142031, Note_on_c, 2, 65, 0
1, 146400, Note_on_c, 2, 74, 80
1, 146519, Note_on_c, 2, 74, 0
1, 146640, Note_on_c, 2, 74, 80
1, 146759, Note_on_c, 2, 74, 0
1, 146880, Note_on_c, 2, 76, 80
1, 146936, Note_on_c, 2, 76, 0
1, 146940, Note_on_c, 2, 72, 80
1, 147029, Note_on_c, 2, 72, 0
1, 147120, Note_on_c, 2, 76, 80
1, 147176, Note_on_c, 2, 76, 0
1, 147180, Note_on_c, 2, 72, 80
1, 147269, Note_on_c, 2, 72, 0
1, 147360, Note_on_c, 2, 77, 80
1, 147416, Note_on_c, 2, 77, 0
1, 147420, Note_on_c, 2, 74, 80
1, 147509, Note_on_c, 2, 74, 0
1, 147600, Note_on_c, 2, 77, 80
1, 147656, Note_on_c, 2, 77, 0
1, 147660, Note_on_c, 2, 74, 80
1, 147749, Note_on_c, 2, 74, 0
1, 147840, Time_signature, 3, 2, 24, 8
1, 147900, Note_on_c, 2, 79, 80
1, 147956, Note_on_c, 2, 79, 0
1, 147960, Note_on_c, 2, 76, 80
1, 148016, Note_on_c, 2, 76, 0
1, 148020, Note_on_c, 2, 72, 80
1, 148133, Note_on_c, 2, 72, 0
1, 148140, Note_on_c, 2, 79, 80
1, 148196, Note_on_c, 2, 79, 0
1, 148200, Note_on_c, 2, 76, 80
1, 148256, Note_on_c, 2, 76, 0
1, 148260, Note_on_c, 2, 72, 80
1, 148373, Note_on_c, 2, 72, 0
1, 148380, Note_on_c, 2, 76, 80
1, 148469, Note_on_c, 2, 76, 0
1, 148500, Note_on_c, 2, 72, 80
1, 148560, Note_on_c, 2, 69, 80
1, 148613, Note_on_c, 2, 72, 0
1, 148679, Note_on_c, 2, 69, 0
1, 149280, Time_signature, 4, 2, 24, 8
1, 161280, Note_on_c, 2, 81, 80
1, 161735, Note_on_c, 2, 81, 0
1, 161760, Note_on_c, 2, 79, 80
1, 162215, Note_on_c, 2, 79, 0
1, 162240, Note_on_c, 2, 77, 80
1, 162695, Note_on_c, 2, 77, 0
1, 162720, Note_on_c, 2, 76, 80
1, 163175, Note_on_c, 2, 76, 0
1, 163200, Note_on_c, 2, 74, 80
1, 163655, Note_on_c, 2, 74, 0
1, 163680, Note_on_c, 2, 72, 80
1, 164135, Note_on_c, 2, 72, 0
1, 164160, Note_on_c, 2, 74, 80
1, 164615, Note_on_c, 2, 74, 0
1, 164640, Note_on_c, 2, 72, 80
1, 164640, Note_on_c, 2, 76, 80
1, 165095, Note_on_c, 2, 72, 0
1, 165095, Note_on_c, 2, 76, 0
1, 165120, Note_on_c, 2, 79, 80
1, 165347, Note_on_c, 2, 79, 0
1, 165360, Note_on_c, 2, 76, 80
1, 166043, Note_on_c, 2, 76, 0
1, 168960, Note_on_c, 2, 81, 80
1, 169415, Note_on_c, 2, 81, 0
1, 169440, Note_on_c, 2, 81, 80
1, 169895, Note_on_c, 2, 81, 0
1, 169920, Note_on_c, 2, 81, 80
1, 170375, Note_on_c, 2, 81, 0
1, 170400, Note_on_c, 2, 84, 80
1, 170855, Note_on_c, 2, 84, 0
1, 170880, Note_on_c, 2, 83, 80
1, 171335, Note_on_c, 2, 83, 0
1, 171360, Note_on_c, 2, 81, 80
1, 171815, Note_on_c, 2, 81, 0
1, 171840, Note_on_c, 2, 83, 80
1, 172295, Note_on_c, 2, 83, 0
1, 172320, Note_on_c, 2, 84, 80
1, 173040, Note_on_c, 2, 83, 80
1, 173231, Note_on_c, 2, 84, 0
1, 173267, Note_on_c, 2, 83, 0
1, 173280, Note_on_c, 2, 81, 80
1, 173735, Note_on_c, 2, 81, 0
1, 174240, Note_on_c, 2, 60, 80
1, 174240, Note_on_c, 2, 65, 80
1, 174240, Note_on_c, 2, 69, 80
1, 175151, Note_on_c, 2, 60, 0
1, 175151, Note_on_c, 2, 65, 0
1, 175151, Note_on_c, 2, 69, 0
1, 175200, Note_on_c, 2, 62, 80
1, 175200, Note_on_c, 2, 67, 80
1, 175200, Note_on_c, 2, 71, 80
1, 176111, Note_on_c, 2, 62, 0
1, 176111, Note_on_c, 2, 67, 0
1, 176111, Note_on_c, 2, 71, 0
1, 176580, Note_on_c, 2, 72, 80
1, 176636, Note_on_c, 2, 72, 0
1, 176640, Note_on_c, 2, 76, 80
1, 176696, Note_on_c, 2, 76, 0
1, 176700, Note_on_c, 2, 72, 80
1, 176813, Note_on_c, 2, 72, 0
1, 176820, Note_on_c, 2, 76, 80
1, 176876, Note_on_c, 2, 76, 0
1, 176880, Note_on_c, 2, 72, 80
1, 176969, Note_on_c, 2, 72, 0
1, 177060, Note_on_c, 2, 72, 80
1, 177116, Note_on_c, 2, 72, 0
1, 177120, Note_on_c, 2, 76, 80
1, 177176, Note_on_c, 2, 76, 0
1, 177180, Note_on_c, 2, 72, 80
1, 177293, Note_on_c, 2, 72, 0
1, 177300, Note_on_c, 2, 76, 80
1, 177356, Note_on_c, 2, 76, 0
1, 177360, Note_on_c, 2, 72, 80
1, 177449, Note_on_c, 2, 72, 0
1, 177540, Note_on_c, 2, 72, 80
1, 177596, Note_on_c, 2, 72, 0
1, 177600, Note_on_c, 2, 76, 80
1, 177656, Note_on_c, 2, 76, 0
1, 177660, Note_on_c, 2, 72, 80
1, 177773, Note_on_c, 2, 72, 0
1, 177780, Note_on_c, 2, 76, 80
1, 177836, Note_on_c, 2, 76, 0
1, 177840, Note_on_c, 2, 72, 80
1, 177929, Note_on_c, 2, 72, 0
1, 178020, Note_on_c, 2, 72, 80
1, 178076, Note_on_c, 2, 72, 0
1, 178080, Note_on_c, 2, 77, 80
1, 178155, Note_on_c, 2, 77, 0
1, 178160, Note_on_c, 2, 72, 80
1, 178235, Note_on_c, 2, 72, 0
1, 178240, Note_on_c, 2, 77, 80
1, 178315, Note_on_c, 2, 77, 0
1, 178320, Note_on_c, 2, 72, 80
1, 178395, Note_on_c, 2, 72, 0
1, 178480, Note_on_c, 2, 72, 80
1, 178555, Note_on_c, 2, 72, 0
1, 178560, Note_on_c, 2, 77, 80
1, 178635, Note_on_c, 2, 77, 0
1, 178640, Note_on_c, 2, 72, 80
1, 178715, Note_on_c, 2, 72, 0
1, 178720, Note_on_c, 2, 77, 80
1, 178795, Note_on_c, 2, 77, 0
1, 178800, Note_on_c, 2, 72, 80
1, 178875, Note_on_c, 2, 72, 0
1, 178960, Note_on_c, 2, 72, 80
1, 179035, Note_on_c, 2, 72, 0
1, 179040, Note_on_c, 2, 77, 80
1, 179115, Note_on_c, 2, 77, 0
1, 179120, Note_on_c, 2, 72, 80
1, 179195, Note_on_c, 2, 72, 0
1, 179200, Note_on_c, 2, 77, 80
1, 179275, Note_on_c, 2, 77, 0
1, 179280, Note_on_c, 2, 72, 80
1, 179355, Note_on_c, 2, 72, 0
1, 179440, Note_on_c, 2, 72, 80
1, 179515, Note_on_c, 2, 72, 0
1, 179520, Note_on_c, 2, 77, 80
1, 179633, Note_on_c, 2, 77, 0
1, 179640, Note_on_c, 2, 72, 80
1, 179819, Note_on_c, 2, 72, 0
1, 180000, Note_on_c, 2, 74, 80
1, 180090, Note_on_c, 2, 74, 0
1, 180192, Note_on_c, 2, 74, 80
1, 180282, Note_on_c, 2, 74, 0
1, 180384, Note_on_c, 2, 74, 80
1, 180474, Note_on_c, 2, 74, 0
1, 180560, Note_on_c, 2, 74, 80
1, 180711, Note_on_c, 2, 74, 0
1, 180780, Note_on_c, 2, 74, 80
1, 180869, Note_on_c, 2, 74, 0
1, 189600, Time_signature, 3, 2, 24, 8
1, 191040, Time_signature, 4, 2, 24, 8
1, 192960, Note_on_c, 2, 76, 80
1, 193073, Note_on_c, 2, 76, 0
1, 193080, Note_on_c, 2, 72, 80
1, 193193, Note_on_c, 2, 72, 0
1, 193200, Note_on_c, 2, 76, 80
1, 193313, Note_on_c, 2, 76, 0
1, 193320, Note_on_c, 2, 72, 80
1, 193433, Note_on_c, 2, 72, 0
1, 193440, Note_on_c, 2, 76, 80
1, 193530, Note_on_c, 2, 76, 0
1, 193536, Note_on_c, 2, 72, 80
1, 193626, Note_on_c, 2, 72, 0
1, 193632, Note_on_c, 2, 76, 80
1, 193722, Note_on_c, 2, 76, 0
1, 193728, Note_on_c, 2, 72, 80
1, 193818, Note_on_c, 2, 72, 0
1, 193824, Note_on_c, 2, 76, 80
1, 193914, Note_on_c, 2, 76, 0
1, 193920, Note_on_c, 2, 76, 80
1, 194010, Note_on_c, 2, 76, 0
1, 194016, Note_on_c, 2, 72, 80
1, 194106, Note_on_c, 2, 72, 0
1, 194112, Note_on_c, 2, 76, 80
1, 194202, Note_on_c, 2, 76, 0
1, 194208, Note_on_c, 2, 72, 80
1, 194298, Note_on_c, 2, 72, 0
1, 194304, Note_on_c, 2, 76, 80
1, 194394, Note_on_c, 2, 76, 0
1, 194400, Note_on_c, 2, 74, 80
1, 194489, Note_on_c, 2, 74, 0
1, 194580, Note_on_c, 2, 74, 80
1, 194693, Note_on_c, 2, 74, 0
1, 194880, Note_on_c, 2, 74, 80
1, 194999, Note_on_c, 2, 74, 0
1, 195120, Note_on_c, 2, 74, 80
1, 195239, Note_on_c, 2, 74, 0
1, 195360, Note_on_c, 2, 74, 80
1, 195479, Note_on_c, 2, 74, 0
1, 195600, Note_on_c, 2, 74, 80
1, 195719, Note_on_c, 2, 74, 0
1, 195840, Note_on_c, 2, 74, 80
1, 195959, Note_on_c, 2, 74, 0
1, 196080, Note_on_c, 2, 74, 80
1, 196199, Note_on_c, 2, 74, 0
1, 196440, Note_on_c, 2, 72, 80
1, 196619, Note_on_c, 2, 72, 0
1, 196620, End_track
2, 0, Start_track
2, 0, Title_t, "Piano, Piano, Crazy Train\000"
2, 0, Key_signature, 0, "major"
2, 0, Control_c, 0, 121, 0
2, 0, Program_c, 0, 0
2, 0, Control_c, 0, 7, 100
2, 0, Control_c, 0, 10, 64
2, 0, Control_c, 0, 91, 0
2, 0, Control_c, 0, 93, 0
2, 0, MIDI_port, 0
2, 0, Note_on_c, 0, 57, 80
2, 227, Note_on_c, 0, 57, 0
2, 240, Note_on_c, 0, 57, 80
2, 467, Note_on_c, 0, 57, 0
2, 1920, Note_on_c, 0, 60, 80
2, 2147, Note_on_c, 0, 60, 0
2, 2160, Note_on_c, 0, 60, 80
2, 2387, Note_on_c, 0, 60, 0
2, 2880, Note_on_c, 0, 55, 80
2, 3107, Note_on_c, 0, 55, 0
2, 3120, Note_on_c, 0, 55, 80
2, 3347, Note_on_c, 0, 55, 0
2, 3840, Note_on_c, 0, 57, 80
2, 4067, Note_on_c, 0, 57, 0
2, 4080, Note_on_c, 0, 57, 80
2, 4307, Note_on_c, 0, 57, 0
2, 5760, Note_on_c, 0, 65, 80
2, 5987, Note_on_c, 0, 65, 0
2, 6000, Note_on_c, 0, 65, 80
2, 6227, Note_on_c, 0, 65, 0
2, 6720, Note_on_c, 0, 55, 80
2, 6947, Note_on_c, 0, 55, 0
2, 6960, Note_on_c, 0, 55, 80
2, 7187, Note_on_c, 0, 55, 0
2, 7680, Note_on_c, 0, 57, 80
2, 7907, Note_on_c, 0, 57, 0
2, 7920, Note_on_c, 0, 57, 80
2, 8147, Note_on_c, 0, 57, 0
2, 9600, Note_on_c, 0, 60, 80
2, 9827, Note_on_c, 0, 60, 0
2, 9840, Note_on_c, 0, 60, 80
2, 10067, Note_on_c, 0, 60, 0
2, 10560, Note_on_c, 0, 55, 80
2, 10787, Note_on_c, 0, 55, 0
2, 10800, Note_on_c, 0, 55, 80
2, 11027, Note_on_c, 0, 55, 0
2, 11520, Note_on_c, 0, 57, 80
2, 11747, Note_on_c, 0, 57, 0
2, 11760, Note_on_c, 0, 57, 80
2, 11987, Note_on_c, 0, 57, 0
2, 13440, Note_on_c, 0, 65, 80
2, 13667, Note_on_c, 0, 65, 0
2, 13680, Note_on_c, 0, 65, 80
2, 13907, Note_on_c, 0, 65, 0
2, 14400, Note_on_c, 0, 55, 80
2, 14627, Note_on_c, 0, 55, 0
2, 14640, Note_on_c, 0, 55, 80
2, 14867, Note_on_c, 0, 55, 0
2, 15360, Note_on_c, 0, 57, 80
2, 15587, Note_on_c, 0, 57, 0
2, 15600, Note_on_c, 0, 57, 80
2, 15827, Note_on_c, 0, 57, 0
2, 15840, Note_on_c, 0, 64, 80
2, 16067, Note_on_c, 0, 64, 0
2, 16080, Note_on_c, 0, 57, 80
2, 16307, Note_on_c, 0, 57, 0
2, 16320, Note_on_c, 0, 65, 80
2, 16547, Note_on_c, 0, 65, 0
2, 16560, Note_on_c, 0, 57, 80
2, 16787, Note_on_c, 0, 57, 0
2, 16800, Note_on_c, 0, 64, 80
2, 17027, Note_on_c, 0, 64, 0
2, 17040, Note_on_c, 0, 57, 80
2, 17267, Note_on_c, 0, 57, 0
2, 17280, Note_on_c, 0, 62, 80
2, 17507, Note_on_c, 0, 62, 0
2, 17520, Note_on_c, 0, 60, 80
2, 17747, Note_on_c, 0, 60, 0
2, 17760, Note_on_c, 0, 59, 80
2, 17987, Note_on_c, 0, 59, 0
2, 18000, Note_on_c, 0, 60, 80
2, 18227, Note_on_c, 0, 60, 0
2, 18240, Note_on_c, 0, 62, 80
2, 18467, Note_on_c, 0, 62, 0
2, 18480, Note_on_c, 0, 60, 80
2, 18707, Note_on_c, 0, 60, 0
2, 18720, Note_on_c, 0, 59, 80
2, 18947, Note_on_c, 0, 59, 0
2, 18960, Note_on_c, 0, 55, 80
2, 19187, Note_on_c, 0, 55, 0
2, 19200, Note_on_c, 0, 57, 80
2, 19427, Note_on_c, 0, 57, 0
2, 19440, Note_on_c, 0, 57, 80
2, 19667, Note_on_c, 0, 57, 0
2, 19680, Note_on_c, 0, 64, 80
2, 19907, Note_on_c, 0, 64, 0
2, 19920, Note_on_c, 0, 57, 80
2, 20147, Note_on_c, 0, 57, 0
2, 20160, Note_on_c, 0, 65, 80
2, 20387, Note_on_c, 0, 65, 0
2, 20400, Note_on_c, 0, 57, 80
2, 20627, Note_on_c, 0, 57, 0
2, 20640, Note_on_c, 0, 64, 80
2, 20867, Note_on_c, 0, 64, 0
2, 20880, Note_on_c, 0, 57, 80
2, 21107, Note_on_c, 0, 57, 0
2, 21120, Note_on_c, 0, 62, 80
2, 21347, Note_on_c, 0, 62, 0
2, 21360, Note_on_c, 0, 60, 80
2, 21587, Note_on_c, 0, 60, 0
2, 21600, Note_on_c, 0, 59, 80
2, 21827, Note_on_c, 0, 59, 0
2, 21840, Note_on_c, 0, 60, 80
2, 22067, Note_on_c, 0, 60, 0
2, 22080, Note_on_c, 0, 62, 80
2, 22307, Note_on_c, 0, 62, 0
2, 22320, Note_on_c, 0, 60, 80
2, 22547, Note_on_c, 0, 60, 0
2, 22560, Note_on_c, 0, 59, 80
2, 22787, Note_on_c, 0, 59, 0
2, 22800, Note_on_c, 0, 55, 80
2, 23027, Note_on_c, 0, 55, 0
2, 23040, Note_on_c, 0, 57, 80
2, 23267, Note_on_c, 0, 57, 0
2, 23280, Note_on_c, 0, 57, 80
2, 23507, Note_on_c, 0, 57, 0
2, 23520, Note_on_c, 0, 64, 80
2, 23747, Note_on_c, 0, 64, 0
2, 23760, Note_on_c, 0, 57, 80
2, 23987, Note_on_c, 0, 57, 0
2, 24000, Note_on_c, 0, 65, 80
2, 24227, Note_on_c, 0, 65, 0
2, 24240, Note_on_c, 0, 57, 80
2, 24467, Note_on_c, 0, 57, 0
2, 24480, Note_on_c, 0, 64, 80
2, 24707, Note_on_c, 0, 64, 0
2, 24720, Note_on_c, 0, 57, 80
2, 24947, Note_on_c, 0, 57, 0
2, 24960, Note_on_c, 0, 62, 80
2, 25187, Note_on_c, 0, 62, 0
2, 25200, Note_on_c, 0, 60, 80
2, 25427, Note_on_c, 0, 60, 0
2, 25440, Note_on_c, 0, 59, 80
2, 25667, Note_on_c, 0, 59, 0
2, 25680, Note_on_c, 0, 60, 80
2, 25907, Note_on_c, 0, 60, 0
2, 25920, Note_on_c, 0, 62, 80
2, 26147, Note_on_c, 0, 62, 0
2, 26160, Note_on_c, 0, 60, 80
2, 26387, Note_on_c, 0, 60, 0
2, 26400, Note_on_c, 0, 59, 80
2, 26627, Note_on_c, 0, 59, 0
2, 26640, Note_on_c, 0, 55, 80
2, 26867, Note_on_c, 0, 55, 0
2, 26880, Note_on_c, 0, 57, 80
2, 27107, Note_on_c, 0, 57, 0
2, 27120, Note_on_c, 0, 57, 80
2, 27347, Note_on_c, 0, 57, 0
2, 27360, Note_on_c, 0, 64, 80
2, 27587, Note_on_c, 0, 64, 0
2, 27600, Note_on_c, 0, 57, 80
2, 27827, Note_on_c, 0, 57, 0
2, 27840, Note_on_c, 0, 65, 80
2, 28067, Note_on_c, 0, 65, 0
2, 28080, Note_on_c, 0, 57, 80
2, 28307, Note_on_c, 0, 57, 0
2, 28320, Note_on_c, 0, 64, 80
2, 28547, Note_on_c, 0, 64, 0
2, 28560, Note_on_c, 0, 57, 80
2, 28787, Note_on_c, 0, 57, 0
2, 28800, Note_on_c, 0, 57, 80
2, 28800, Note_on_c, 0, 60, 80
2, 28800, Note_on_c, 0, 65, 80
2, 29711, Note_on_c, 0, 57, 0
2, 29711, Note_on_c, 0, 60, 0
2, 29711, Note_on_c, 0, 65, 0
2, 29760, Note_on_c, 0, 59, 80
2, 29760, Note_on_c, 0, 62, 80
2, 29760, Note_on_c, 0, 67, 80
2, 30671, Note_on_c, 0, 59, 0
2, 30671, Note_on_c, 0, 62, 0
2, 30671, Note_on_c, 0, 67, 0
2, 31200, Note_on_c, 0, 55, 80
2, 31200, Note_on_c, 0, 60, 80
2, 31200, Note_on_c, 0, 64, 80
2, 31655, Note_on_c, 0, 55, 0
2, 31655, Note_on_c, 0, 60, 0
2, 31655, Note_on_c, 0, 64, 0
2, 31920, Note_on_c, 0, 59, 80
2, 31920, Note_on_c, 0, 62, 80
2, 31920, Note_on_c, 0, 67, 80
2, 32603, Note_on_c, 0, 59, 0
2, 32603, Note_on_c, 0, 62, 0
2, 32603, Note_on_c, 0, 67, 0
2, 32640, Note_on_c, 0, 57, 80
2, 32640, Note_on_c, 0, 60, 80
2, 32640, Note_on_c, 0, 65, 80
2, 33323, Note_on_c, 0, 57, 0
2, 33323, Note_on_c, 0, 60, 0
2, 33323, Note_on_c, 0, 65, 0
2, 33360, Note_on_c, 0, 55, 80
2, 33360, Note_on_c, 0, 60, 80
2, 33360, Note_on_c, 0, 64, 80
2, 34385, Note_on_c, 0, 55, 0
2, 34385, Note_on_c, 0, 60, 0
2, 34385, Note_on_c, 0, 64, 0
2, 35040, Note_on_c, 0, 55, 80
2, 35040, Note_on_c, 0, 60, 80
2, 35040, Note_on_c, 0, 64, 80
2, 35495, Note_on_c, 0, 55, 0
2, 35495, Note_on_c, 0, 60, 0
2, 35495, Note_on_c, 0, 64, 0
2, 35760, Note_on_c, 0, 59, 80
2, 35760, Note_on_c, 0, 62, 80
2, 35760, Note_on_c, 0, 67, 80
2, 36443, Note_on_c, 0, 59, 0
2, 36443, Note_on_c, 0, 62, 0
2, 36443, Note_on_c, 0, 67, 0
2, 36480, Note_on_c, 0, 57, 80
2, 36480, Note_on_c, 0, 60, 80
2, 36480, Note_on_c, 0, 65, 80
2, 37163, Note_on_c, 0, 57, 0
2, 37163, Note_on_c, 0, 60, 0
2, 37163, Note_on_c, 0, 65, 0
2, 37200, Note_on_c, 0, 55, 80
2, 37200, Note_on_c, 0, 60, 80
2, 37200, Note_on_c, 0, 64, 80
2, 38225, Note_on_c, 0, 55, 0
2, 38225, Note_on_c, 0, 60, 0
2, 38225, Note_on_c, 0, 64, 0
2, 39600, Note_on_c, 0, 59, 80
2, 39600, Note_on_c, 0, 62, 80
2, 39600, Note_on_c, 0, 67, 80
2, 40283, Note_on_c, 0, 59, 0
2, 40283, Note_on_c, 0, 62, 0
2, 40283, Note_on_c, 0, 67, 0
2, 40320, Note_on_c, 0, 57, 80
2, 40320, Note_on_c, 0, 60, 80
2, 40320, Note_on_c, 0, 65, 80
2, 41231, Note_on_c, 0, 57, 0
2, 41231, Note_on_c, 0, 60, 0
2, 41231, Note_on_c, 0, 65, 0
2, 42720, Note_on_c, 0, 55, 80
2, 42720, Note_on_c, 0, 60, 80
2, 42720, Note_on_c, 0, 64, 80
2, 43175, Note_on_c, 0, 55, 0
2, 43175, Note_on_c, 0, 60, 0
2, 43175, Note_on_c, 0, 64, 0
2, 43440, Note_on_c, 0, 59, 80
2, 43440, Note_on_c, 0, 62, 80
2, 43440, Note_on_c, 0, 67, 80
2, 44123, Note_on_c, 0, 59, 0
2, 44123, Note_on_c, 0, 62, 0
2, 44123, Note_on_c, 0, 67, 0
2, 44160, Note_on_c, 0, 57, 80
2, 44160, Note_on_c, 0, 60, 80
2, 44160, Note_on_c, 0, 65, 80
2, 44843, Note_on_c, 0, 57, 0
2, 44843, Note_on_c, 0, 60, 0
2, 44843, Note_on_c, 0, 65, 0
2, 44880, Note_on_c, 0, 55, 80
2, 44880, Note_on_c, 0, 60, 80
2, 44880, Note_on_c, 0, 64, 80
2, 45905, Note_on_c, 0, 55, 0
2, 45905, Note_on_c, 0, 60, 0
2, 45905, Note_on_c, 0, 64, 0
2, 48000, Note_on_c, 0, 57, 80
2, 48000, Note_on_c, 0, 60, 80
2, 48000, Note_on_c, 0, 65, 80
2, 48911, Note_on_c, 0, 57, 0
2, 48911, Note_on_c, 0, 60, 0
2, 48911, Note_on_c, 0, 65, 0
2, 51360, Note_on_c, 0, 59, 80
2, 51360, Note_on_c, 0, 62, 80
2, 51360, Note_on_c, 0, 67, 80
2, 51815, Note_on_c, 0, 59, 0
2, 51815, Note_on_c, 0, 62, 0
2, 51815, Note_on_c, 0, 67, 0
2, 51840, Note_on_c, 0, 57, 80
2, 51840, Note_on_c, 0, 60, 80
2, 51840, Note_on_c, 0, 65, 80
2, 52523, Note_on_c, 0, 57, 0
2, 52523, Note_on_c, 0, 60, 0
2, 52523, Note_on_c, 0, 65, 0
2, 52560, Note_on_c, 0, 55, 80
2, 52560, Note_on_c, 0, 60, 80
2, 52560, Note_on_c, 0, 64, 80
2, 53585, Note_on_c, 0, 55, 0
2, 53585, Note_on_c, 0, 60, 0
2, 53585, Note_on_c, 0, 64, 0
2, 54960, Note_on_c, 0, 59, 80
2, 54960, Note_on_c, 0, 62, 80
2, 54960, Note_on_c, 0, 67, 80
2, 55643, Note_on_c, 0, 59, 0
2, 55643, Note_on_c, 0, 62, 0
2, 55643, Note_on_c, 0, 67, 0
2, 55680, Note_on_c, 0, 57, 80
2, 55680, Note_on_c, 0, 60, 80
2, 55680, Note_on_c, 0, 65, 80
2, 56591, Note_on_c, 0, 57, 0
2, 56591, Note_on_c, 0, 60, 0
2, 56591, Note_on_c, 0, 65, 0
2, 58080, Note_on_c, 0, 55, 80
2, 58080, Note_on_c, 0, 60, 80
2, 58080, Note_on_c, 0, 64, 80
2, 58535, Note_on_c, 0, 55, 0
2, 58535, Note_on_c, 0, 60, 0
2, 58535, Note_on_c, 0, 64, 0
2, 58800, Note_on_c, 0, 59, 80
2, 58800, Note_on_c, 0, 62, 80
2, 58800, Note_on_c, 0, 67, 80
2, 59483, Note_on_c, 0, 59, 0
2, 59483, Note_on_c, 0, 62, 0
2, 59483, Note_on_c, 0, 67, 0
2, 59520, Note_on_c, 0, 57, 80
2, 59520, Note_on_c, 0, 60, 80
2, 59520, Note_on_c, 0, 65, 80
2, 60203, Note_on_c, 0, 57, 0
2, 60203, Note_on_c, 0, 60, 0
2, 60203, Note_on_c, 0, 65, 0
2, 60240, Note_on_c, 0, 55, 80
2, 60240, Note_on_c, 0, 60, 80
2, 60240, Note_on_c, 0, 64, 80
2, 61151, Note_on_c, 0, 55, 0
2, 61151, Note_on_c, 0, 60, 0
2, 61151, Note_on_c, 0, 64, 0
2, 62640, Note_on_c, 0, 59, 80
2, 62640, Note_on_c, 0, 62, 80
2, 62640, Note_on_c, 0, 67, 80
2, 63323, Note_on_c, 0, 59, 0
2, 63323, Note_on_c, 0, 62, 0
2, 63323, Note_on_c, 0, 67, 0
2, 63360, Note_on_c, 0, 57, 80
2, 63360, Note_on_c, 0, 60, 80
2, 63360, Note_on_c, 0, 65, 80
2, 63815, Note_on_c, 0, 57, 0
2, 63815, Note_on_c, 0, 60, 0
2, 63815, Note_on_c, 0, 65, 0
2, 66720, Note_on_c, 0, 59, 80
2, 66720, Note_on_c, 0, 62, 80
2, 66720, Note_on_c, 0, 67, 80
2, 67175, Note_on_c, 0, 59, 0
2, 67175, Note_on_c, 0, 62, 0
2, 67175, Note_on_c, 0, 67, 0
2, 67200, Note_on_c, 0, 57, 80
2, 67200, Note_on_c, 0, 60, 80
2, 67200, Note_on_c, 0, 65, 80
2, 67883, Note_on_c, 0, 57, 0
2, 67883, Note_on_c, 0, 60, 0
2, 67883, Note_on_c, 0, 65, 0
2, 67920, Note_on_c, 0, 55, 80
2, 67920, Note_on_c, 0, 60, 80
2, 67920, Note_on_c, 0, 64, 80
2, 68945, Note_on_c, 0, 55, 0
2, 68945, Note_on_c, 0, 60, 0
2, 68945, Note_on_c, 0, 64, 0
2, 69120, Note_on_c, 0, 60, 80
2, 69120, Note_on_c, 0, 64, 80
2, 69120, Note_on_c, 0, 69, 80
2, 69347, Note_on_c, 0, 60, 0
2, 69347, Note_on_c, 0, 64, 0
2, 69347, Note_on_c, 0, 69, 0
2, 69360, Note_on_c, 0, 59, 80
2, 69360, Note_on_c, 0, 62, 80
2, 69360, Note_on_c, 0, 67, 80
2, 69587, Note_on_c, 0, 59, 0
2, 69587, Note_on_c, 0, 62, 0
2, 69587, Note_on_c, 0, 67, 0
2, 69600, Note_on_c, 0, 60, 80
2, 69600, Note_on_c, 0, 64, 80
2, 69600, Note_on_c, 0, 69, 80
2, 70283, Note_on_c, 0, 60, 0
2, 70283, Note_on_c, 0, 64, 0
2, 70283, Note_on_c, 0, 69, 0
2, 70320, Note_on_c, 0, 62, 80
2, 70320, Note_on_c, 0, 67, 80
2, 70320, Note_on_c, 0, 71, 80
2, 70775, Note_on_c, 0, 62, 0
2, 70775, Note_on_c, 0, 67, 0
2, 70775, Note_on_c, 0, 71, 0
2, 70800, Note_on_c, 0, 65, 80
2, 70800, Note_on_c, 0, 69, 80
2, 70800, Note_on_c, 0, 72, 80
2, 71939, Note_on_c, 0, 65, 0
2, 71939, Note_on_c, 0, 69, 0
2, 71939, Note_on_c, 0, 72, 0
2, 72000, Note_on_c, 0, 60, 80
2, 72000, Note_on_c, 0, 65, 80
2, 72000, Note_on_c, 0, 69, 80
2, 72911, Note_on_c, 0, 60, 0
2, 72911, Note_on_c, 0, 65, 0
2, 72911, Note_on_c, 0, 69, 0
2, 72960, Note_on_c, 0, 60, 80
2, 72960, Note_on_c, 0, 64, 80
2, 72960, Note_on_c, 0, 69, 80
2, 73187, Note_on_c, 0, 60, 0
2, 73187, Note_on_c, 0, 64, 0
2, 73187, Note_on_c, 0, 69, 0
2, 73200, Note_on_c, 0, 59, 80
2, 73200, Note_on_c, 0, 62, 80
2, 73200, Note_on_c, 0, 67, 80
2, 73427, Note_on_c, 0, 59, 0
2, 73427, Note_on_c, 0, 62, 0
2, 73427, Note_on_c, 0, 67, 0
2, 73440, Note_on_c, 0, 60, 80
2, 73440, Note_on_c, 0, 64, 80
2, 73440, Note_on_c, 0, 69, 80
2, 74123, Note_on_c, 0, 60, 0
2, 74123, Note_on_c, 0, 64, 0
2, 74123, Note_on_c, 0, 69, 0
2, 74160, Note_on_c, 0, 62, 80
2, 74160, Note_on_c, 0, 67, 80
2, 74160, Note_on_c, 0, 71, 80
2, 74615, Note_on_c, 0, 62, 0
2, 74615, Note_on_c, 0, 67, 0
2, 74615, Note_on_c, 0, 71, 0
2, 74640, Note_on_c, 0, 65, 80
2, 74640, Note_on_c, 0, 69, 80
2, 74640, Note_on_c, 0, 72, 80
2, 74867, Note_on_c, 0, 65, 0
2, 74867, Note_on_c, 0, 69, 0
2, 74867, Note_on_c, 0, 72, 0
2, 75840, Note_on_c, 0, 57, 80
2, 75840, Note_on_c, 0, 60, 80
2, 75840, Note_on_c, 0, 53, 80
2, 76067, Note_on_c, 0, 53, 0
2, 76080, Note_on_c, 0, 53, 80
2, 76307, Note_on_c, 0, 53, 0
2, 76560, Note_on_c, 0, 60, 0
2, 76560, Note_on_c, 0, 60, 80
2, 76560, Note_on_c, 0, 67, 80
2, 76751, Note_on_c, 0, 57, 0
2, 76787, Note_on_c, 0, 60, 0
2, 76787, Note_on_c, 0, 67, 0
2, 76800, Note_on_c, 0, 64, 80
2, 76800, Note_on_c, 0, 67, 80
2, 76800, Note_on_c, 0, 72, 80
2, 77027, Note_on_c, 0, 64, 0
2, 77027, Note_on_c, 0, 67, 0
2, 77027, Note_on_c, 0, 72, 0
2, 77040, Note_on_c, 0, 64, 80
2, 77040, Note_on_c, 0, 67, 80
2, 77040, Note_on_c, 0, 72, 80
2, 77495, Note_on_c, 0, 64, 0
2, 77495, Note_on_c, 0, 67, 0
2, 77495, Note_on_c, 0, 72, 0
2, 77520, Note_on_c, 0, 64, 80
2, 77520, Note_on_c, 0, 67, 80
2, 77520, Note_on_c, 0, 72, 80
2, 77975, Note_on_c, 0, 64, 0
2, 77975, Note_on_c, 0, 67, 0
2, 77975, Note_on_c, 0, 72, 0
2, 78000, Note_on_c, 0, 64, 80
2, 78000, Note_on_c, 0, 67, 80
2, 78000, Note_on_c, 0, 72, 80
2, 78455, Note_on_c, 0, 64, 0
2, 78455, Note_on_c, 0, 67, 0
2, 78455, Note_on_c, 0, 72, 0
2, 78480, Note_on_c, 0, 62, 80
2, 78480, Note_on_c, 0, 67, 80
2, 78480, Note_on_c, 0, 71, 80
2, 79163, Note_on_c, 0, 62, 0
2, 79163, Note_on_c, 0, 67, 0
2, 79163, Note_on_c, 0, 71, 0
2, 79200, Note_on_c, 0, 62, 80
2, 79200, Note_on_c, 0, 67, 80
2, 79200, Note_on_c, 0, 71, 80
2, 79427, Note_on_c, 0, 62, 0
2, 79427, Note_on_c, 0, 67, 0
2, 79427, Note_on_c, 0, 71, 0
2, 79440, Note_on_c, 0, 62, 80
2, 79440, Note_on_c, 0, 67, 80
2, 79440, Note_on_c, 0, 71, 80
2, 79667, Note_on_c, 0, 62, 0
2, 79667, Note_on_c, 0, 67, 0
2, 79667, Note_on_c, 0, 71, 0
2, 79680, Note_on_c, 0, 62, 80
2, 79680, Note_on_c, 0, 67, 80
2, 79680, Note_on_c, 0, 71, 80
2, 79907, Note_on_c, 0, 62, 0
2, 79907, Note_on_c, 0, 67, 0
2, 79907, Note_on_c, 0, 71, 0
2, 79920, Note_on_c, 0, 62, 80
2, 79920, Note_on_c, 0, 67, 80
2, 79920, Note_on_c, 0, 71, 80
2, 80375, Note_on_c, 0, 62, 0
2, 80375, Note_on_c, 0, 67, 0
2, 80375, Note_on_c, 0, 71, 0
2, 80400, Note_on_c, 0, 62, 80
2, 80400, Note_on_c, 0, 67, 80
2, 80400, Note_on_c, 0, 71, 80
2, 80627, Note_on_c, 0, 62, 0
2, 80627, Note_on_c, 0, 67, 0
2, 80627, Note_on_c, 0, 71, 0
2, 80640, Note_on_c, 0, 60, 80
2, 80640, Note_on_c, 0, 64, 80
2, 80640, Note_on_c, 0, 69, 80
2, 80867, Note_on_c, 0, 60, 0
2, 80867, Note_on_c, 0, 64, 0
2, 80867, Note_on_c, 0, 69, 0
2, 80880, Note_on_c, 0, 81, 80
2, 80993, Note_on_c, 0, 81, 0
2, 81000, Note_on_c, 0, 76, 80
2, 81113, Note_on_c, 0, 76, 0
2, 81120, Note_on_c, 0, 77, 80
2, 81233, Note_on_c, 0, 77, 0
2, 81240, Note_on_c, 0, 76, 80
2, 81353, Note_on_c, 0, 76, 0
2, 81360, Note_on_c, 0, 74, 80
2, 81473, Note_on_c, 0, 74, 0
2, 81480, Note_on_c, 0, 76, 80
2, 81593, Note_on_c, 0, 76, 0
2, 81600, Note_on_c, 0, 74, 80
2, 81713, Note_on_c, 0, 74, 0
2, 81720, Note_on_c, 0, 72, 80
2, 81833, Note_on_c, 0, 72, 0
2, 81840, Note_on_c, 0, 71, 80
2, 81953, Note_on_c, 0, 71, 0
2, 81960, Note_on_c, 0, 69, 80
2, 82073, Note_on_c, 0, 69, 0
2, 82080, Note_on_c, 0, 72, 80
2, 82193, Note_on_c, 0, 72, 0
2, 82200, Note_on_c, 0, 69, 80
2, 82313, Note_on_c, 0, 69, 0
2, 82320, Note_on_c, 0, 67, 80
2, 82433, Note_on_c, 0, 67, 0
2, 82440, Note_on_c, 0, 69, 80
2, 82553, Note_on_c, 0, 69, 0
2, 82560, Note_on_c, 0, 67, 80
2, 82673, Note_on_c, 0, 67, 0
2, 82680, Note_on_c, 0, 64, 80
2, 82793, Note_on_c, 0, 64, 0
2, 82800, Note_on_c, 0, 62, 80
2, 82913, Note_on_c, 0, 62, 0
2, 82920, Note_on_c, 0, 64, 80
2, 83033, Note_on_c, 0, 64, 0
2, 83040, Note_on_c, 0, 62, 80
2, 83153, Note_on_c, 0, 62, 0
2, 83160, Note_on_c, 0, 62, 80
2, 83273, Note_on_c, 0, 62, 0
2, 83280, Note_on_c, 0, 60, 80
2, 83393, Note_on_c, 0, 60, 0
2, 83400, Note_on_c, 0, 62, 80
2, 83513, Note_on_c, 0, 62, 0
2, 83520, Note_on_c, 0, 64, 80
2, 83633, Note_on_c, 0, 64, 0
2, 83640, Note_on_c, 0, 67, 80
2, 83753, Note_on_c, 0, 67, 0
2, 83760, Note_on_c, 0, 69, 80
2, 83873, Note_on_c, 0, 69, 0
2, 83880, Note_on_c, 0, 67, 80
2, 83993, Note_on_c, 0, 67, 0
2, 84000, Note_on_c, 0, 72, 80
2, 84227, Note_on_c, 0, 72, 0
2, 84240, Note_on_c, 0, 67, 80
2, 84467, Note_on_c, 0, 67, 0
2, 84480, Note_on_c, 0, 64, 80
2, 84480, Note_on_c, 0, 67, 80
2, 84480, Note_on_c, 0, 72, 80
2, 84707, Note_on_c, 0, 64, 0
2, 84707, Note_on_c, 0, 67, 0
2, 84707, Note_on_c, 0, 72, 0
2, 84720, Note_on_c, 0, 64, 80
2, 84720, Note_on_c, 0, 67, 80
2, 84720, Note_on_c, 0, 72, 80
2, 85175, Note_on_c, 0, 64, 0
2, 85175, Note_on_c, 0, 67, 0
2, 85175, Note_on_c, 0, 72, 0
2, 85200, Note_on_c, 0, 64, 80
2, 85200, Note_on_c, 0, 67, 80
2, 85200, Note_on_c, 0, 72, 80
2, 85655, Note_on_c, 0, 64, 0
2, 85655, Note_on_c, 0, 67, 0
2, 85655, Note_on_c, 0, 72, 0
2, 85680, Note_on_c, 0, 64, 80
2, 85680, Note_on_c, 0, 67, 80
2, 85680, Note_on_c, 0, 72, 80
2, 86135, Note_on_c, 0, 64, 0
2, 86135, Note_on_c, 0, 67, 0
2, 86135, Note_on_c, 0, 72, 0
2, 86160, Note_on_c, 0, 62, 80
2, 86160, Note_on_c, 0, 67, 80
2, 86160, Note_on_c, 0, 71, 80
2, 86843, Note_on_c, 0, 62, 0
2, 86843, Note_on_c, 0, 67, 0
2, 86843, Note_on_c, 0, 71, 0
2, 86880, Note_on_c, 0, 62, 80
2, 86880, Note_on_c, 0, 67, 80
2, 86880, Note_on_c, 0, 71, 80
2, 87107, Note_on_c, 0, 62, 0
2, 87107, Note_on_c, 0, 67, 0
2, 87107, Note_on_c, 0, 71, 0
2, 87120, Note_on_c, 0, 62, 80
2, 87120, Note_on_c, 0, 67, 80
2, 87120, Note_on_c, 0, 71, 80
2, 87347, Note_on_c, 0, 62, 0
2, 87347, Note_on_c, 0, 67, 0
2, 87347, Note_on_c, 0, 71, 0
2, 87360, Note_on_c, 0, 62, 80
2, 87360, Note_on_c, 0, 67, 80
2, 87360, Note_on_c, 0, 71, 80
2, 87587, Note_on_c, 0, 62, 0
2, 87587, Note_on_c, 0, 67, 0
2, 87587, Note_on_c, 0, 71, 0
2, 87600, Note_on_c, 0, 62, 80
2, 87600, Note_on_c, 0, 67, 80
2, 87600, Note_on_c, 0, 71, 80
2, 88055, Note_on_c, 0, 62, 0
2, 88055, Note_on_c, 0, 67, 0
2, 88055, Note_on_c, 0, 71, 0
2, 88080, Note_on_c, 0, 62, 80
2, 88080, Note_on_c, 0, 67, 80
2, 88080, Note_on_c, 0, 71, 80
2, 88307, Note_on_c, 0, 62, 0
2, 88307, Note_on_c, 0, 67, 0
2, 88307, Note_on_c, 0, 71, 0
2, 88320, Note_on_c, 0, 60, 80
2, 88320, Note_on_c, 0, 64, 80
2, 88320, Note_on_c, 0, 69, 80
2, 88547, Note_on_c, 0, 60, 0
2, 88547, Note_on_c, 0, 64, 0
2, 88547, Note_on_c, 0, 69, 0
2, 88560, Note_on_c, 0, 67, 80
2, 88787, Note_on_c, 0, 67, 0
2, 88800, Note_on_c, 0, 60, 80
2, 88800, Note_on_c, 0, 64, 80
2, 88800, Note_on_c, 0, 69, 80
2, 89255, Note_on_c, 0, 60, 0
2, 89255, Note_on_c, 0, 64, 0
2, 89255, Note_on_c, 0, 69, 0
2, 89520, Note_on_c, 0, 60, 80
2, 89520, Note_on_c, 0, 64, 80
2, 89520, Note_on_c, 0, 69, 80
2, 89747, Note_on_c, 0, 60, 0
2, 89747, Note_on_c, 0, 64, 0
2, 89747, Note_on_c, 0, 69, 0
2, 89760, Note_on_c, 0, 71, 80
2, 89987, Note_on_c, 0, 71, 0
2, 90000, Note_on_c, 0, 64, 80
2, 90000, Note_on_c, 0, 67, 80
2, 90000, Note_on_c, 0, 72, 80
2, 90455, Note_on_c, 0, 64, 0
2, 90455, Note_on_c, 0, 67, 0
2, 90455, Note_on_c, 0, 72, 0
2, 90480, Note_on_c, 0, 71, 80
2, 90707, Note_on_c, 0, 71, 0
2, 90720, Note_on_c, 0, 69, 80
2, 90947, Note_on_c, 0, 69, 0
2, 90960, Note_on_c, 0, 59, 80
2, 90960, Note_on_c, 0, 62, 80
2, 90960, Note_on_c, 0, 67, 80
2, 91415, Note_on_c, 0, 59, 0
2, 91415, Note_on_c, 0, 62, 0
2, 91415, Note_on_c, 0, 67, 0
2, 91440, Note_on_c, 0, 69, 80
2, 91667, Note_on_c, 0, 69, 0
2, 91680, Note_on_c, 0, 71, 80
2, 92135, Note_on_c, 0, 71, 0
2, 92160, Note_on_c, 0, 60, 80
2, 92160, Note_on_c, 0, 64, 80
2, 92160, Note_on_c, 0, 69, 80
2, 92387, Note_on_c, 0, 60, 0
2, 92387, Note_on_c, 0, 64, 0
2, 92387, Note_on_c, 0, 69, 0
2, 92400, Note_on_c, 0, 67, 80
2, 92627, Note_on_c, 0, 67, 0
2, 92640, Note_on_c, 0, 60, 80
2, 92640, Note_on_c, 0, 64, 80
2, 92640, Note_on_c, 0, 69, 80
2, 93095, Note_on_c, 0, 60, 0
2, 93095, Note_on_c, 0, 64, 0
2, 93095, Note_on_c, 0, 69, 0
2, 93360, Note_on_c, 0, 60, 80
2, 93360, Note_on_c, 0, 64, 80
2, 93360, Note_on_c, 0, 69, 80
2, 93587, Note_on_c, 0, 60, 0
2, 93587, Note_on_c, 0, 64, 0
2, 93587, Note_on_c, 0, 69, 0
2, 93600, Note_on_c, 0, 71, 80
2, 93827, Note_on_c, 0, 71, 0
2, 93840, Note_on_c, 0, 65, 80
2, 93840, Note_on_c, 0, 69, 80
2, 93840, Note_on_c, 0, 72, 80
2, 94751, Note_on_c, 0, 65, 0
2, 94751, Note_on_c, 0, 69, 0
2, 94751, Note_on_c, 0, 72, 0
2, 94800, Note_on_c, 0, 67, 80
2, 94800, Note_on_c, 0, 71, 80
2, 94800, Note_on_c, 0, 74, 80
2, 95825, Note_on_c, 0, 67, 0
2, 95825, Note_on_c, 0, 71, 0
2, 95825, Note_on_c, 0, 74, 0
2, 96480, Note_on_c, 0, 55, 80
2, 96480, Note_on_c, 0, 60, 80
2, 96480, Note_on_c, 0, 64, 80
2, 96935, Note_on_c, 0, 55, 0
2, 96935, Note_on_c, 0, 60, 0
2, 96935, Note_on_c, 0, 64, 0
2, 97200, Note_on_c, 0, 59, 80
2, 97200, Note_on_c, 0, 62, 80
2, 97200, Note_on_c, 0, 67, 80
2, 97883, Note_on_c, 0, 59, 0
2, 97883, Note_on_c, 0, 62, 0
2, 97883, Note_on_c, 0, 67, 0
2, 97920, Note_on_c, 0, 57, 80
2, 97920, Note_on_c, 0, 60, 80
2, 97920, Note_on_c, 0, 65, 80
2, 98603, Note_on_c, 0, 57, 0
2, 98603, Note_on_c, 0, 60, 0
2, 98603, Note_on_c, 0, 65, 0
2, 98640, Note_on_c, 0, 55, 80
2, 98640, Note_on_c, 0, 60, 80
2, 98640, Note_on_c, 0, 64, 80
2, 99665, Note_on_c, 0, 55, 0
2, 99665, Note_on_c, 0, 60, 0
2, 99665, Note_on_c, 0, 64, 0
2, 100320, Note_on_c, 0, 55, 80
2, 100320, Note_on_c, 0, 60, 80
2, 100320, Note_on_c, 0, 64, 80
2, 100775, Note_on_c, 0, 55, 0
2, 100775, Note_on_c, 0, 60, 0
2, 100775, Note_on_c, 0, 64, 0
2, 101040, Note_on_c, 0, 59, 80
2, 101040, Note_on_c, 0, 62, 80
2, 101040, Note_on_c, 0, 67, 80
2, 101723, Note_on_c, 0, 59, 0
2, 101723, Note_on_c, 0, 62, 0
2, 101723, Note_on_c, 0, 67, 0
2, 101760, Note_on_c, 0, 57, 80
2, 101760, Note_on_c, 0, 60, 80
2, 101760, Note_on_c, 0, 65, 80
2, 102443, Note_on_c, 0, 57, 0
2, 102443, Note_on_c, 0, 60, 0
2, 102443, Note_on_c, 0, 65, 0
2, 102480, Note_on_c, 0, 55, 80
2, 102480, Note_on_c, 0, 60, 80
2, 102480, Note_on_c, 0, 64, 80
2, 103391, Note_on_c, 0, 55, 0
2, 103391, Note_on_c, 0, 60, 0
2, 103391, Note_on_c, 0, 64, 0
2, 105600, Note_on_c, 0, 57, 80
2, 105600, Note_on_c, 0, 60, 80
2, 105600, Note_on_c, 0, 65, 80
2, 106511, Note_on_c, 0, 57, 0
2, 106511, Note_on_c, 0, 60, 0
2, 106511, Note_on_c, 0, 65, 0
2, 108720, Note_on_c, 0, 59, 80
2, 108720, Note_on_c, 0, 62, 80
2, 108720, Note_on_c, 0, 67, 80
2, 109403, Note_on_c, 0, 59, 0
2, 109403, Note_on_c, 0, 62, 0
2, 109403, Note_on_c, 0, 67, 0
2, 109440, Note_on_c, 0, 57, 80
2, 109440, Note_on_c, 0, 60, 80
2, 109440, Note_on_c, 0, 65, 80
2, 110123, Note_on_c, 0, 57, 0
2, 110123, Note_on_c, 0, 60, 0
2, 110123, Note_on_c, 0, 65, 0
2, 110160, Note_on_c, 0, 55, 80
2, 110160, Note_on_c, 0, 60, 80
2, 110160, Note_on_c, 0, 64, 80
2, 111071, Note_on_c, 0, 55, 0
2, 111071, Note_on_c, 0, 60, 0
2, 111071, Note_on_c, 0, 64, 0
2, 113280, Note_on_c, 0, 57, 80
2, 113280, Note_on_c, 0, 60, 80
2, 113280, Note_on_c, 0, 65, 80
2, 114191, Note_on_c, 0, 57, 0
2, 114191, Note_on_c, 0, 60, 0
2, 114191, Note_on_c, 0, 65, 0
2, 116640, Note_on_c, 0, 59, 80
2, 116640, Note_on_c, 0, 62, 80
2, 116640, Note_on_c, 0, 67, 80
2, 117095, Note_on_c, 0, 59, 0
2, 117095, Note_on_c, 0, 62, 0
2, 117095, Note_on_c, 0, 67, 0
2, 117120, Note_on_c, 0, 57, 80
2, 117120, Note_on_c, 0, 60, 80
2, 117120, Note_on_c, 0, 65, 80
2, 117803, Note_on_c, 0, 57, 0
2, 117803, Note_on_c, 0, 60, 0
2, 117803, Note_on_c, 0, 65, 0
2, 117840, Note_on_c, 0, 55, 80
2, 117840, Note_on_c, 0, 60, 80
2, 117840, Note_on_c, 0, 64, 80
2, 118751, Note_on_c, 0, 55, 0
2, 118751, Note_on_c, 0, 60, 0
2, 118751, Note_on_c, 0, 64, 0
2, 120960, Note_on_c, 0, 57, 80
2, 120960, Note_on_c, 0, 60, 80
2, 120960, Note_on_c, 0, 65, 80
2, 121871, Note_on_c, 0, 57, 0
2, 121871, Note_on_c, 0, 60, 0
2, 121871, Note_on_c, 0, 65, 0
2, 124080, Note_on_c, 0, 59, 80
2, 124080, Note_on_c, 0, 62, 80
2, 124080, Note_on_c, 0, 67, 80
2, 124763, Note_on_c, 0, 59, 0
2, 124763, Note_on_c, 0, 62, 0
2, 124763, Note_on_c, 0, 67, 0
2, 124800, Note_on_c, 0, 57, 80
2, 124800, Note_on_c, 0, 60, 80
2, 124800, Note_on_c, 0, 65, 80
2, 125483, Note_on_c, 0, 57, 0
2, 125483, Note_on_c, 0, 60, 0
2, 125483, Note_on_c, 0, 65, 0
2, 125520, Note_on_c, 0, 55, 80
2, 125520, Note_on_c, 0, 60, 80
2, 125520, Note_on_c, 0, 64, 80
2, 126431, Note_on_c, 0, 55, 0
2, 126431, Note_on_c, 0, 60, 0
2, 126431, Note_on_c, 0, 64, 0
2, 127920, Note_on_c, 0, 59, 80
2, 127920, Note_on_c, 0, 62, 80
2, 127920, Note_on_c, 0, 67, 80
2, 128603, Note_on_c, 0, 59, 0
2, 128603, Note_on_c, 0, 62, 0
2, 128603, Note_on_c, 0, 67, 0
2, 128640, Note_on_c, 0, 57, 80
2, 128640, Note_on_c, 0, 60, 80
2, 128640, Note_on_c, 0, 65, 80
2, 129551, Note_on_c, 0, 57, 0
2, 129551, Note_on_c, 0, 60, 0
2, 129551, Note_on_c, 0, 65, 0
2, 132000, Note_on_c, 0, 59, 80
2, 132000, Note_on_c, 0, 62, 80
2, 132000, Note_on_c, 0, 67, 80
2, 132455, Note_on_c, 0, 59, 0
2, 132455, Note_on_c, 0, 62, 0
2, 132455, Note_on_c, 0, 67, 0
2, 132480, Note_on_c, 0, 57, 80
2, 132480, Note_on_c, 0, 60, 80
2, 132480, Note_on_c, 0, 65, 80
2, 133163, Note_on_c, 0, 57, 0
2, 133163, Note_on_c, 0, 60, 0
2, 133163, Note_on_c, 0, 65, 0
2, 133200, Note_on_c, 0, 55, 80
2, 133200, Note_on_c, 0, 60, 80
2, 133200, Note_on_c, 0, 64, 80
2, 133655, Note_on_c, 0, 55, 0
2, 133655, Note_on_c, 0, 60, 0
2, 133655, Note_on_c, 0, 64, 0
2, 133680, Note_on_c, 0, 62, 80
2, 133755, Note_on_c, 0, 62, 0
2, 133760, Note_on_c, 0, 60, 80
2, 133835, Note_on_c, 0, 60, 0
2, 133840, Note_on_c, 0, 59, 80
2, 133915, Note_on_c, 0, 59, 0
2, 133920, Note_on_c, 0, 57, 80
2, 133995, Note_on_c, 0, 57, 0
2, 134000, Note_on_c, 0, 55, 80
2, 134075, Note_on_c, 0, 55, 0
2, 134080, Note_on_c, 0, 53, 80
2, 134155, Note_on_c, 0, 53, 0
2, 134160, Note_on_c, 0, 52, 80
2, 134235, Note_on_c, 0, 52, 0
2, 134240, Note_on_c, 0, 50, 80
2, 134315, Note_on_c, 0, 50, 0
2, 134320, Note_on_c, 0, 48, 80
2, 134395, Note_on_c, 0, 48, 0
2, 134400, Note_on_c, 0, 60, 80
2, 134400, Note_on_c, 0, 64, 80
2, 134400, Note_on_c, 0, 69, 80
2, 134627, Note_on_c, 0, 60, 0
2, 134627, Note_on_c, 0, 64, 0
2, 134627, Note_on_c, 0, 69, 0
2, 134640, Note_on_c, 0, 59, 80
2, 134640, Note_on_c, 0, 62, 80
2, 134640, Note_on_c, 0, 67, 80
2, 134867, Note_on_c, 0, 59, 0
2, 134867, Note_on_c, 0, 62, 0
2, 134867, Note_on_c, 0, 67, 0
2, 134880, Note_on_c, 0, 60, 80
2, 134880, Note_on_c, 0, 64, 80
2, 134880, Note_on_c, 0, 69, 80
2, 135563, Note_on_c, 0, 60, 0
2, 135563, Note_on_c, 0, 64, 0
2, 135563, Note_on_c, 0, 69, 0
2, 135600, Note_on_c, 0, 67, 80
2, 135600, Note_on_c, 0, 71, 80
2, 136055, Note_on_c, 0, 67, 0
2, 136055, Note_on_c, 0, 71, 0
2, 136080, Note_on_c, 0, 65, 80
2, 136080, Note_on_c, 0, 69, 80
2, 136080, Note_on_c, 0, 72, 80
2, 137219, Note_on_c, 0, 65, 0
2, 137219, Note_on_c, 0, 69, 0
2, 137219, Note_on_c, 0, 72, 0
2, 137280, Note_on_c, 0, 60, 80
2, 137280, Note_on_c, 0, 65, 80
2, 137280, Note_on_c, 0, 69, 80
2, 138191, Note_on_c, 0, 60, 0
2, 138191, Note_on_c, 0, 65, 0
2, 138191, Note_on_c, 0, 69, 0
2, 138240, Note_on_c, 0, 60, 80
2, 138240, Note_on_c, 0, 64, 80
2, 138240, Note_on_c, 0, 69, 80
2, 138467, Note_on_c, 0, 60, 0
2, 138467, Note_on_c, 0, 64, 0
2, 138467, Note_on_c, 0, 69, 0
2, 138480, Note_on_c, 0, 59, 80
2, 138480, Note_on_c, 0, 62, 80
2, 138480, Note_on_c, 0, 67, 80
2, 138707, Note_on_c, 0, 59, 0
2, 138707, Note_on_c, 0, 62, 0
2, 138707, Note_on_c, 0, 67, 0
2, 138720, Note_on_c, 0, 60, 80
2, 138720, Note_on_c, 0, 64, 80
2, 138720, Note_on_c, 0, 69, 80
2, 139403, Note_on_c, 0, 60, 0
2, 139403, Note_on_c, 0, 64, 0
2, 139403, Note_on_c, 0, 69, 0
2, 139440, Note_on_c, 0, 67, 80
2, 139440, Note_on_c, 0, 71, 80
2, 139895, Note_on_c, 0, 67, 0
2, 139895, Note_on_c, 0, 71, 0
2, 139920, Note_on_c, 0, 65, 80
2, 139920, Note_on_c, 0, 69, 80
2, 139920, Note_on_c, 0, 72, 80
2, 141059, Note_on_c, 0, 65, 0
2, 141059, Note_on_c, 0, 69, 0
2, 141059, Note_on_c, 0, 72, 0
2, 141120, Note_on_c, 0, 53, 80
2, 141120, Note_on_c, 0, 57, 80
2, 141120, Note_on_c, 0, 60, 80
2, 141347, Note_on_c, 0, 53, 0
2, 141360, Note_on_c, 0, 53, 80
2, 141587, Note_on_c, 0, 53, 0
2, 141840, Note_on_c, 0, 60, 0
2, 141840, Note_on_c, 0, 60, 80
2, 141840, Note_on_c, 0, 67, 80
2, 142031, Note_on_c, 0, 57, 0
2, 142067, Note_on_c, 0, 60, 0
2, 142067, Note_on_c, 0, 67, 0
2, 142080, Note_on_c, 0, 64, 80
2, 142080, Note_on_c, 0, 67, 80
2, 142080, Note_on_c, 0, 72, 80
2, 142307, Note_on_c, 0, 64, 0
2, 142307, Note_on_c, 0, 67, 0
2, 142307, Note_on_c, 0, 72, 0
2, 142320, Note_on_c, 0, 64, 80
2, 142320, Note_on_c, 0, 67, 80
2, 142320, Note_on_c, 0, 72, 80
2, 142775, Note_on_c, 0, 64, 0
2, 142775, Note_on_c, 0, 67, 0
2, 142775, Note_on_c, 0, 72, 0
2, 142800, Note_on_c, 0, 64, 80
2, 142800, Note_on_c, 0, 67, 80
2, 142800, Note_on_c, 0, 72, 80
2, 143255, Note_on_c, 0, 64, 0
2, 143255, Note_on_c, 0, 67, 0
2, 143255, Note_on_c, 0, 72, 0
2, 143280, Note_on_c, 0, 64, 80
2, 143280, Note_on_c, 0, 67, 80
2, 143280, Note_on_c, 0, 72, 80
2, 143735, Note_on_c, 0, 64, 0
2, 143735, Note_on_c, 0, 67, 0
2, 143735, Note_on_c, 0, 72, 0
2, 143760, Note_on_c, 0, 62, 80
2, 143760, Note_on_c, 0, 67, 80
2, 143760, Note_on_c, 0, 71, 80
2, 144443, Note_on_c, 0, 62, 0
2, 144443, Note_on_c, 0, 67, 0
2, 144443, Note_on_c, 0, 71, 0
2, 144480, Note_on_c, 0, 62, 80
2, 144480, Note_on_c, 0, 67, 80
2, 144480, Note_on_c, 0, 71, 80
2, 144707, Note_on_c, 0, 62, 0
2, 144707, Note_on_c, 0, 67, 0
2, 144707, Note_on_c, 0, 71, 0
2, 144720, Note_on_c, 0, 62, 80
2, 144720, Note_on_c, 0, 67, 80
2, 144720, Note_on_c, 0, 71, 80
2, 144947, Note_on_c, 0, 62, 0
2, 144947, Note_on_c, 0, 67, 0
2, 144947, Note_on_c, 0, 71, 0
2, 144960, Note_on_c, 0, 62, 80
2, 144960, Note_on_c, 0, 67, 80
2, 144960, Note_on_c, 0, 71, 80
2, 145187, Note_on_c, 0, 62, 0
2, 145187, Note_on_c, 0, 67, 0
2, 145187, Note_on_c, 0, 71, 0
2, 145200, Note_on_c, 0, 62, 80
2, 145200, Note_on_c, 0, 67, 80
2, 145200, Note_on_c, 0, 71, 80
2, 145427, Note_on_c, 0, 62, 0
2, 145427, Note_on_c, 0, 67, 0
2, 145427, Note_on_c, 0, 71, 0
2, 145440, Note_on_c, 0, 62, 80
2, 145440, Note_on_c, 0, 67, 80
2, 145440, Note_on_c, 0, 71, 80
2, 145667, Note_on_c, 0, 62, 0
2, 145667, Note_on_c, 0, 67, 0
2, 145667, Note_on_c, 0, 71, 0
2, 145680, Note_on_c, 0, 60, 80
2, 145680, Note_on_c, 0, 64, 80
2, 145680, Note_on_c, 0, 69, 80
2, 145907, Note_on_c, 0, 60, 0
2, 145907, Note_on_c, 0, 64, 0
2, 145907, Note_on_c, 0, 69, 0
2, 145920, Note_on_c, 0, 72, 80
2, 145995, Note_on_c, 0, 72, 0
2, 146000, Note_on_c, 0, 69, 80
2, 146075, Note_on_c, 0, 69, 0
2, 146080, Note_on_c, 0, 64, 80
2, 146155, Note_on_c, 0, 64, 0
2, 146160, Note_on_c, 0, 72, 80
2, 146216, Note_on_c, 0, 72, 0
2, 146220, Note_on_c, 0, 69, 80
2, 146333, Note_on_c, 0, 69, 0
2, 146340, Note_on_c, 0, 64, 80
2, 146396, Note_on_c, 0, 64, 0
2, 146460, Note_on_c, 0, 71, 80
2, 146573, Note_on_c, 0, 71, 0
2, 146580, Note_on_c, 0, 67, 80
2, 146636, Note_on_c, 0, 67, 0
2, 146700, Note_on_c, 0, 71, 80
2, 146813, Note_on_c, 0, 71, 0
2, 146820, Note_on_c, 0, 67, 80
2, 146876, Note_on_c, 0, 67, 0
2, 147060, Note_on_c, 0, 69, 80
2, 147116, Note_on_c, 0, 69, 0
2, 147300, Note_on_c, 0, 69, 80
2, 147356, Note_on_c, 0, 69, 0
2, 147540, Note_on_c, 0, 71, 80
2, 147596, Note_on_c, 0, 71, 0
2, 147780, Note_on_c, 0, 71, 80
2, 147836, Note_on_c, 0, 71, 0
2, 148800, Note_on_c, 0, 64, 80
2, 149027, Note_on_c, 0, 64, 0
2, 149040, Note_on_c, 0, 60, 80
2, 149040, Note_on_c, 0, 67, 80
2, 149267, Note_on_c, 0, 60, 0
2, 149267, Note_on_c, 0, 67, 0
2, 149280, Note_on_c, 0, 64, 80
2, 149280, Note_on_c, 0, 67, 80
2, 149280, Note_on_c, 0, 72, 80
2, 149507, Note_on_c, 0, 64, 0
2, 149507, Note_on_c, 0, 67, 0
2, 149507, Note_on_c, 0, 72, 0
2, 149520, Note_on_c, 0, 64, 80
2, 149520, Note_on_c, 0, 67, 80
2, 149520, Note_on_c, 0, 72, 80
2, 149975, Note_on_c, 0, 64, 0
2, 149975, Note_on_c, 0, 67, 0
2, 149975, Note_on_c, 0, 72, 0
2, 150000, Note_on_c, 0, 64, 80
2, 150000, Note_on_c, 0, 67, 80
2, 150000, Note_on_c, 0, 72, 80
2, 150455, Note_on_c, 0, 64, 0
2, 150455, Note_on_c, 0, 67, 0
2, 150455, Note_on_c, 0, 72, 0
2, 150480, Note_on_c, 0, 64, 80
2, 150480, Note_on_c, 0, 67, 80
2, 150480, Note_on_c, 0, 72, 80
2, 150935, Note_on_c, 0, 64, 0
2, 150935, Note_on_c, 0, 67, 0
2, 150935, Note_on_c, 0, 72, 0
2, 150960, Note_on_c, 0, 62, 80
2, 150960, Note_on_c, 0, 67, 80
2, 150960, Note_on_c, 0, 71, 80
2, 151643, Note_on_c, 0, 62, 0
2, 151643, Note_on_c, 0, 67, 0
2, 151643, Note_on_c, 0, 71, 0
2, 151680, Note_on_c, 0, 62, 80
2, 151680, Note_on_c, 0, 67, 80
2, 151680, Note_on_c, 0, 71, 80
2, 151907, Note_on_c, 0, 62, 0
2, 151907, Note_on_c, 0, 67, 0
2, 151907, Note_on_c, 0, 71, 0
2, 151920, Note_on_c, 0, 62, 80
2, 151920, Note_on_c, 0, 67, 80
2, 151920, Note_on_c, 0, 71, 80
2, 152147, Note_on_c, 0, 62, 0
2, 152147, Note_on_c, 0, 67, 0
2, 152147, Note_on_c, 0, 71, 0
2, 152160, Note_on_c, 0, 62, 80
2, 152160, Note_on_c, 0, 67, 80
2, 152160, Note_on_c, 0, 71, 80
2, 152387, Note_on_c, 0, 62, 0
2, 152387, Note_on_c, 0, 67, 0
2, 152387, Note_on_c, 0, 71, 0
2, 152400, Note_on_c, 0, 62, 80
2, 152400, Note_on_c, 0, 67, 80
2, 152400, Note_on_c, 0, 71, 80
2, 152855, Note_on_c, 0, 62, 0
2, 152855, Note_on_c, 0, 67, 0
2, 152855, Note_on_c, 0, 71, 0
2, 152880, Note_on_c, 0, 62, 80
2, 152880, Note_on_c, 0, 67, 80
2, 152880, Note_on_c, 0, 71, 80
2, 153107, Note_on_c, 0, 62, 0
2, 153107, Note_on_c, 0, 67, 0
2, 153107, Note_on_c, 0, 71, 0
2, 153120, Note_on_c, 0, 60, 80
2, 153120, Note_on_c, 0, 64, 80
2, 153120, Note_on_c, 0, 69, 80
2, 153347, Note_on_c, 0, 60, 0
2, 153347, Note_on_c, 0, 64, 0
2, 153347, Note_on_c, 0, 69, 0
2, 153360, Note_on_c, 0, 67, 80
2, 153587, Note_on_c, 0, 67, 0
2, 153600, Note_on_c, 0, 60, 80
2, 153600, Note_on_c, 0, 64, 80
2, 153600, Note_on_c, 0, 69, 80
2, 154055, Note_on_c, 0, 60, 0
2, 154055, Note_on_c, 0, 64, 0
2, 154055, Note_on_c, 0, 69, 0
2, 154320, Note_on_c, 0, 60, 80
2, 154320, Note_on_c, 0, 64, 80
2, 154320, Note_on_c, 0, 69, 80
2, 154547, Note_on_c, 0, 60, 0
2, 154547, Note_on_c, 0, 64, 0
2, 154547, Note_on_c, 0, 69, 0
2, 154560, Note_on_c, 0, 71, 80
2, 154787, Note_on_c, 0, 71, 0
2, 154800, Note_on_c, 0, 64, 80
2, 154800, Note_on_c, 0, 67, 80
2, 154800, Note_on_c, 0, 72, 80
2, 155255, Note_on_c, 0, 64, 0
2, 155255, Note_on_c, 0, 67, 0
2, 155255, Note_on_c, 0, 72, 0
2, 155280, Note_on_c, 0, 71, 80
2, 155507, Note_on_c, 0, 71, 0
2, 155520, Note_on_c, 0, 69, 80
2, 155747, Note_on_c, 0, 69, 0
2, 155760, Note_on_c, 0, 59, 80
2, 155760, Note_on_c, 0, 62, 80
2, 155760, Note_on_c, 0, 67, 80
2, 156215, Note_on_c, 0, 59, 0
2, 156215, Note_on_c, 0, 62, 0
2, 156215, Note_on_c, 0, 67, 0
2, 156240, Note_on_c, 0, 69, 80
2, 156467, Note_on_c, 0, 69, 0
2, 156480, Note_on_c, 0, 71, 80
2, 156935, Note_on_c, 0, 71, 0
2, 156960, Note_on_c, 0, 60, 80
2, 156960, Note_on_c, 0, 64, 80
2, 156960, Note_on_c, 0, 69, 80
2, 157187, Note_on_c, 0, 60, 0
2, 157187, Note_on_c, 0, 64, 0
2, 157187, Note_on_c, 0, 69, 0
2, 157200, Note_on_c, 0, 67, 80
2, 157427, Note_on_c, 0, 67, 0
2, 157440, Note_on_c, 0, 60, 80
2, 157440, Note_on_c, 0, 64, 80
2, 157440, Note_on_c, 0, 69, 80
2, 157895, Note_on_c, 0, 60, 0
2, 157895, Note_on_c, 0, 64, 0
2, 157895, Note_on_c, 0, 69, 0
2, 158160, Note_on_c, 0, 60, 80
2, 158160, Note_on_c, 0, 64, 80
2, 158160, Note_on_c, 0, 69, 80
2, 158387, Note_on_c, 0, 60, 0
2, 158387, Note_on_c, 0, 64, 0
2, 158387, Note_on_c, 0, 69, 0
2, 158400, Note_on_c, 0, 71, 80
2, 158627, Note_on_c, 0, 71, 0
2, 158640, Note_on_c, 0, 65, 80
2, 158640, Note_on_c, 0, 69, 80
2, 158640, Note_on_c, 0, 72, 80
2, 159551, Note_on_c, 0, 65, 0
2, 159551, Note_on_c, 0, 69, 0
2, 159551, Note_on_c, 0, 72, 0
2, 159600, Note_on_c, 0, 67, 80
2, 159600, Note_on_c, 0, 71, 80
2, 159600, Note_on_c, 0, 74, 80
2, 160625, Note_on_c, 0, 67, 0
2, 160625, Note_on_c, 0, 71, 0
2, 160625, Note_on_c, 0, 74, 0
2, 160800, Note_on_c, 0, 52, 80
2, 160800, Note_on_c, 0, 57, 80
2, 161027, Note_on_c, 0, 52, 0
2, 161027, Note_on_c, 0, 57, 0
2, 161040, Note_on_c, 0, 52, 80
2, 161040, Note_on_c, 0, 57, 80
2, 161267, Note_on_c, 0, 52, 0
2, 161267, Note_on_c, 0, 57, 0
2, 162720, Note_on_c, 0, 55, 80
2, 162720, Note_on_c, 0, 60, 80
2, 162947, Note_on_c, 0, 55, 0
2, 162947, Note_on_c, 0, 60, 0
2, 162960, Note_on_c, 0, 55, 80
2, 162960, Note_on_c, 0, 60, 80
2, 163187, Note_on_c, 0, 55, 0
2, 163187, Note_on_c, 0, 60, 0
2, 163680, Note_on_c, 0, 50, 80
2, 163680, Note_on_c, 0, 55, 80
2, 163907, Note_on_c, 0, 50, 0
2, 163907, Note_on_c, 0, 55, 0
2, 163920, Note_on_c, 0, 50, 80
2, 163920, Note_on_c, 0, 55, 80
2, 164147, Note_on_c, 0, 50, 0
2, 164147, Note_on_c, 0, 55, 0
2, 164640, Note_on_c, 0, 52, 80
2, 164640, Note_on_c, 0, 57, 80
2, 164867, Note_on_c, 0, 52, 0
2, 164867, Note_on_c, 0, 57, 0
2, 164880, Note_on_c, 0, 52, 80
2, 164880, Note_on_c, 0, 57, 80
2, 165107, Note_on_c, 0, 52, 0
2, 165107, Note_on_c, 0, 57, 0
2, 166560, Note_on_c, 0, 48, 80
2, 166560, Note_on_c, 0, 53, 80
2, 166787, Note_on_c, 0, 48, 0
2, 166787, Note_on_c, 0, 53, 0
2, 166800, Note_on_c, 0, 48, 80
2, 166800, Note_on_c, 0, 53, 80
2, 167027, Note_on_c, 0, 48, 0
2, 167027, Note_on_c, 0, 53, 0
2, 167520, Note_on_c, 0, 50, 80
2, 167520, Note_on_c, 0, 55, 80
2, 167747, Note_on_c, 0, 50, 0
2, 167747, Note_on_c, 0, 55, 0
2, 167760, Note_on_c, 0, 50, 80
2, 167760, Note_on_c, 0, 55, 80
2, 167987, Note_on_c, 0, 50, 0
2, 167987, Note_on_c, 0, 55, 0
2, 168480, Note_on_c, 0, 52, 80
2, 168480, Note_on_c, 0, 57, 80
2, 168707, Note_on_c, 0, 52, 0
2, 168707, Note_on_c, 0, 57, 0
2, 168720, Note_on_c, 0, 52, 80
2, 168720, Note_on_c, 0, 57, 80
2, 168947, Note_on_c, 0, 52, 0
2, 168947, Note_on_c, 0, 57, 0
2, 170400, Note_on_c, 0, 55, 80
2, 170400, Note_on_c, 0, 60, 80
2, 170627, Note_on_c, 0, 55, 0
2, 170627, Note_on_c, 0, 60, 0
2, 170640, Note_on_c, 0, 55, 80
2, 170640, Note_on_c, 0, 60, 80
2, 170867, Note_on_c, 0, 55, 0
2, 170867, Note_on_c, 0, 60, 0
2, 171360, Note_on_c, 0, 50, 80
2, 171360, Note_on_c, 0, 55, 80
2, 171587, Note_on_c, 0, 50, 0
2, 171587, Note_on_c, 0, 55, 0
2, 171600, Note_on_c, 0, 50, 80
2, 171600, Note_on_c, 0, 55, 80
2, 171827, Note_on_c, 0, 50, 0
2, 171827, Note_on_c, 0, 55, 0
2, 172320, Note_on_c, 0, 52, 80
2, 172320, Note_on_c, 0, 57, 80
2, 172547, Note_on_c, 0, 52, 0
2, 172547, Note_on_c, 0, 57, 0
2, 172560, Note_on_c, 0, 52, 80
2, 172560, Note_on_c, 0, 57, 80
2, 172787, Note_on_c, 0, 52, 0
2, 172787, Note_on_c, 0, 57, 0
2, 176160, Note_on_c, 0, 69, 80
2, 176235, Note_on_c, 0, 69, 0
2, 176240, Note_on_c, 0, 72, 80
2, 176315, Note_on_c, 0, 72, 0
2, 176320, Note_on_c, 0, 69, 80
2, 176395, Note_on_c, 0, 69, 0
2, 176400, Note_on_c, 0, 72, 80
2, 176456, Note_on_c, 0, 72, 0
2, 176460, Note_on_c, 0, 69, 80
2, 176549, Note_on_c, 0, 69, 0
2, 176940, Note_on_c, 0, 69, 80
2, 177029, Note_on_c, 0, 69, 0
2, 177420, Note_on_c, 0, 69, 80
2, 177509, Note_on_c, 0, 69, 0
2, 177900, Note_on_c, 0, 69, 80
2, 177989, Note_on_c, 0, 69, 0
2, 178400, Note_on_c, 0, 69, 80
2, 178475, Note_on_c, 0, 69, 0
2, 178960, Note_on_c, 0, 69, 80
2, 179035, Note_on_c, 0, 69, 0
2, 179440, Note_on_c, 0, 69, 80
2, 179515, Note_on_c, 0, 69, 0
2, 179840, Note_on_c, 0, 69, 80
2, 179919, Note_on_c, 0, 69, 0
2, 179940, Note_on_c, 0, 71, 80
2, 180090, Note_on_c, 0, 71, 0
2, 180090, Note_on_c, 0, 71, 80
2, 180300, Note_on_c, 0, 71, 0
2, 180300, Note_on_c, 0, 71, 80
2, 180452, Note_on_c, 0, 71, 0
2, 180480, Note_on_c, 0, 71, 80
2, 180570, Note_on_c, 0, 71, 0
2, 180672, Note_on_c, 0, 71, 80
2, 180762, Note_on_c, 0, 71, 0
2, 180864, Note_on_c, 0, 71, 80
2, 180954, Note_on_c, 0, 71, 0
2, 180960, Note_on_c, 0, 72, 80
2, 181050, Note_on_c, 0, 72, 0
2, 181056, Note_on_c, 0, 71, 80
2, 181146, Note_on_c, 0, 71, 0
2, 181152, Note_on_c, 0, 72, 80
2, 181242, Note_on_c, 0, 72, 0
2, 181248, Note_on_c, 0, 71, 80
2, 181338, Note_on_c, 0, 71, 0
2, 181344, Note_on_c, 0, 72, 80
2, 181434, Note_on_c, 0, 72, 0
2, 181440, Note_on_c, 0, 71, 80
2, 181553, Note_on_c, 0, 71, 0
2, 181560, Note_on_c, 0, 71, 80
2, 181673, Note_on_c, 0, 71, 0
2, 181680, Note_on_c, 0, 69, 80
2, 181793, Note_on_c, 0, 69, 0
2, 181800, Note_on_c, 0, 65, 80
2, 181913, Note_on_c, 0, 65, 0
2, 181920, Note_on_c, 0, 67, 80
2, 181920, Note_on_c, 0, 69, 80
2, 182159, Note_on_c, 0, 67, 0
2, 182159, Note_on_c, 0, 69, 0
2, 182400, Note_on_c, 0, 72, 80
2, 182627, Note_on_c, 0, 72, 0
2, 182640, Note_on_c, 0, 69, 80
2, 182640, Note_on_c, 0, 67, 80
2, 182867, Note_on_c, 0, 67, 0
2, 183665, Note_on_c, 0, 69, 0
2, 183840, Note_on_c, 0, 72, 80
2, 184143, Note_on_c, 0, 72, 0
2, 184160, Note_on_c, 0, 71, 80
2, 184463, Note_on_c, 0, 71, 0
2, 184480, Note_on_c, 0, 69, 80
2, 184783, Note_on_c, 0, 69, 0
2, 184800, Note_on_c, 0, 69, 80
2, 185711, Note_on_c, 0, 69, 0
2, 185760, Note_on_c, 0, 69, 80
2, 186063, Note_on_c, 0, 69, 0
2, 186080, Note_on_c, 0, 71, 80
2, 186383, Note_on_c, 0, 71, 0
2, 186400, Note_on_c, 0, 72, 80
2, 186703, Note_on_c, 0, 72, 0
2, 186720, Note_on_c, 0, 74, 80
2, 187631, Note_on_c, 0, 74, 0
2, 187680, Note_on_c, 0, 69, 80
2, 187793, Note_on_c, 0, 69, 0
2, 187800, Note_on_c, 0, 72, 80
2, 187913, Note_on_c, 0, 72, 0
2, 187920, Note_on_c, 0, 69, 80
2, 188033, Note_on_c, 0, 69, 0
2, 188040, Note_on_c, 0, 67, 80
2, 188153, Note_on_c, 0, 67, 0
2, 188160, Note_on_c, 0, 69, 80
2, 188273, Note_on_c, 0, 69, 0
2, 188280, Note_on_c, 0, 67, 80
2, 188393, Note_on_c, 0, 67, 0
2, 188400, Note_on_c, 0, 65, 80
2, 188513, Note_on_c, 0, 65, 0
2, 188520, Note_on_c, 0, 64, 80
2, 188633, Note_on_c, 0, 64, 0
2, 188640, Note_on_c, 0, 65, 80
2, 188753, Note_on_c, 0, 65, 0
2, 188760, Note_on_c, 0, 64, 80
2, 188873, Note_on_c, 0, 64, 0
2, 188880, Note_on_c, 0, 62, 80
2, 188993, Note_on_c, 0, 62, 0
2, 189000, Note_on_c, 0, 64, 80
2, 189113, Note_on_c, 0, 64, 0
2, 189120, Note_on_c, 0, 62, 80
2, 189347, Note_on_c, 0, 62, 0
2, 189360, Note_on_c, 0, 64, 80
2, 189587, Note_on_c, 0, 64, 0
2, 189600, Note_on_c, 0, 67, 80
2, 189827, Note_on_c, 0, 67, 0
2, 189840, Note_on_c, 0, 60, 80
2, 190523, Note_on_c, 0, 60, 0
2, 190560, Note_on_c, 0, 67, 80
2, 190673, Note_on_c, 0, 67, 0
2, 190680, Note_on_c, 0, 69, 80
2, 190793, Note_on_c, 0, 69, 0
2, 190800, Note_on_c, 0, 72, 80
2, 190913, Note_on_c, 0, 72, 0
2, 190920, Note_on_c, 0, 69, 80
2, 191033, Note_on_c, 0, 69, 0
2, 191040, Note_on_c, 0, 69, 80
2, 191130, Note_on_c, 0, 69, 0
2, 191136, Note_on_c, 0, 72, 80
2, 191226, Note_on_c, 0, 72, 0
2, 191232, Note_on_c, 0, 69, 80
2, 191322, Note_on_c, 0, 69, 0
2, 191328, Note_on_c, 0, 72, 80
2, 191418, Note_on_c, 0, 72, 0
2, 191424, Note_on_c, 0, 69, 80
2, 191514, Note_on_c, 0, 69, 0
2, 191520, Note_on_c, 0, 72, 80
2, 191633, Note_on_c, 0, 72, 0
2, 191640, Note_on_c, 0, 69, 80
2, 191753, Note_on_c, 0, 69, 0
2, 191760, Note_on_c, 0, 72, 80
2, 191873, Note_on_c, 0, 72, 0
2, 191880, Note_on_c, 0, 69, 80
2, 191993, Note_on_c, 0, 69, 0
2, 192000, Note_on_c, 0, 72, 80
2, 192090, Note_on_c, 0, 72, 0
2, 192096, Note_on_c, 0, 69, 80
2, 192186, Note_on_c, 0, 69, 0
2, 192192, Note_on_c, 0, 72, 80
2, 192282, Note_on_c, 0, 72, 0
2, 192288, Note_on_c, 0, 69, 80
2, 192378, Note_on_c, 0, 69, 0
2, 192384, Note_on_c, 0, 72, 80
2, 192474, Note_on_c, 0, 72, 0
2, 192480, Note_on_c, 0, 69, 80
2, 192570, Note_on_c, 0, 69, 0
2, 192576, Note_on_c, 0, 72, 80
2, 192666, Note_on_c, 0, 72, 0
2, 192672, Note_on_c, 0, 69, 80
2, 192762, Note_on_c, 0, 69, 0
2, 192768, Note_on_c, 0, 72, 80
2, 192858, Note_on_c, 0, 72, 0
2, 192864, Note_on_c, 0, 69, 80
2, 192954, Note_on_c, 0, 69, 0
2, 194496, Note_on_c, 0, 71, 80
2, 194586, Note_on_c, 0, 71, 0
2, 194688, Note_on_c, 0, 71, 80
2, 194778, Note_on_c, 0, 71, 0
2, 194784, Note_on_c, 0, 71, 80
2, 194874, Note_on_c, 0, 71, 0
2, 195000, Note_on_c, 0, 71, 80
2, 195119, Note_on_c, 0, 71, 0
2, 195240, Note_on_c, 0, 71, 80
2, 195353, Note_on_c, 0, 71, 0
2, 195480, Note_on_c, 0, 71, 80
2, 195599, Note_on_c, 0, 71, 0
2, 195720, Note_on_c, 0, 71, 80
2, 195833, Note_on_c, 0, 71, 0
2, 195960, Note_on_c, 0, 71, 80
2, 196079, Note_on_c, 0, 71, 0
2, 196200, Note_on_c, 0, 71, 80
2, 196313, Note_on_c, 0, 71, 0
2, 196320, Note_on_c, 0, 69, 80
2, 196439, Note_on_c, 0, 69, 0
2, 196560, Note_on_c, 0, 69, 80
2, 196673, Note_on_c, 0, 69, 0
2, 196680, Note_on_c, 0, 67, 80
2, 196793, Note_on_c, 0, 67, 0
2, 196800, Note_on_c, 0, 67, 80
2, 196800, Note_on_c, 0, 69, 80
2, 197039, Note_on_c, 0, 67, 0
2, 197039, Note_on_c, 0, 69, 0
2, 197280, Note_on_c, 0, 72, 80
2, 197507, Note_on_c, 0, 72, 0
2, 197520, Note_on_c, 0, 69, 80
2, 197520, Note_on_c, 0, 67, 80
2, 197747, Note_on_c, 0, 67, 0
2, 197975, Note_on_c, 0, 69, 0
2, 198000, Note_on_c, 0, 65, 80
2, 198227, Note_on_c, 0, 65, 0
2, 198240, Note_on_c, 0, 64, 80
2, 198467, Note_on_c, 0, 64, 0
2, 198480, Note_on_c, 0, 62, 80
2, 198707, Note_on_c, 0, 62, 0
2, 198720, Note_on_c, 0, 72, 80
2, 198947, Note_on_c, 0, 72, 0
2, 198960, Note_on_c, 0, 69, 80
2, 199073, Note_on_c, 0, 69, 0
2, 199080, Note_on_c, 0, 67, 80
2, 199193, Note_on_c, 0, 67, 0
2, 199200, Note_on_c, 0, 72, 80
2, 199427, Note_on_c, 0, 72, 0
2, 199440, Note_on_c, 0, 69, 80
2, 199515, Note_on_c, 0, 69, 0
2, 199520, Note_on_c, 0, 67, 80
2, 199595, Note_on_c, 0, 67, 0
2, 199600, Note_on_c, 0, 69, 80
2, 199675, Note_on_c, 0, 69, 0
2, 199680, Note_on_c, 0, 72, 80
2, 199907, Note_on_c, 0, 72, 0
2, 199920, Note_on_c, 0, 69, 80
2, 199995, Note_on_c, 0, 69, 0
2, 200000, Note_on_c, 0, 67, 80
2, 200075, Note_on_c, 0, 67, 0
2, 200080, Note_on_c, 0, 69, 80
2, 200155, Note_on_c, 0, 69, 0
2, 200160, Note_on_c, 0, 72, 80
2, 200387, Note_on_c, 0, 72, 0
2, 200400, Note_on_c, 0, 69, 80
2, 200475, Note_on_c, 0, 69, 0
2, 200480, Note_on_c, 0, 67, 80
2, 200555, Note_on_c, 0, 67, 0
2, 200560, Note_on_c, 0, 69, 80
2, 200635, Note_on_c, 0, 69, 0
2, 200640, Note_on_c, 0, 71, 80
2, 200753, Note_on_c, 0, 71, 0
2, 200760, Note_on_c, 0, 72, 80
2, 200873, Note_on_c, 0, 72, 0
2, 200880, Note_on_c, 0, 71, 80
2, 200993, Note_on_c, 0, 71, 0
2, 201000, Note_on_c, 0, 72, 80
2, 201113, Note_on_c, 0, 72, 0
2, 201120, Note_on_c, 0, 71, 80
2, 201233, Note_on_c, 0, 71, 0
2, 201240, Note_on_c, 0, 72, 80
2, 201353, Note_on_c, 0, 72, 0
2, 201360, Note_on_c, 0, 71, 80
2, 201473, Note_on_c, 0, 71, 0
2, 201480, Note_on_c, 0, 72, 80
2, 201593, Note_on_c, 0, 72, 0
2, 201600, Note_on_c, 0, 74, 80
2, 202511, Note_on_c, 0, 74, 0
2, 202560, Note_on_c, 0, 50, 80
2, 202673, Note_on_c, 0, 50, 0
2, 202680, Note_on_c, 0, 55, 80
2, 202793, Note_on_c, 0, 55, 0
2, 202800, Note_on_c, 0, 57, 80
2, 202913, Note_on_c, 0, 57, 0
2, 202920, Note_on_c, 0, 59, 80
2, 203033, Note_on_c, 0, 59, 0
2, 203040, Note_on_c, 0, 60, 80
2, 203153, Note_on_c, 0, 60, 0
2, 203160, Note_on_c, 0, 62, 80
2, 203273, Note_on_c, 0, 62, 0
2, 203280, Note_on_c, 0, 64, 80
2, 203355, Note_on_c, 0, 64, 0
2, 203360, Note_on_c, 0, 65, 80
2, 203435, Note_on_c, 0, 65, 0
2, 203440, Note_on_c, 0, 67, 80
2, 203515, Note_on_c, 0, 67, 0
2, 203520, Note_on_c, 0, 62, 80
2, 203595, Note_on_c, 0, 62, 0
2, 203600, Note_on_c, 0, 67, 80
2, 203675, Note_on_c, 0, 67, 0
2, 203680, Note_on_c, 0, 69, 80
2, 203755, Note_on_c, 0, 69, 0
2, 203760, Note_on_c, 0, 71, 80
2, 203835, Note_on_c, 0, 71, 0
2, 203840, Note_on_c, 0, 72, 80
2, 203915, Note_on_c, 0, 72, 0
2, 203920, Note_on_c, 0, 74, 80
2, 203995, Note_on_c, 0, 74, 0
2, 204000, Note_on_c, 0, 76, 80
2, 204075, Note_on_c, 0, 76, 0
2, 204080, Note_on_c, 0, 79, 80
2, 204155, Note_on_c, 0, 79, 0
2, 204160, Note_on_c, 0, 81, 80
2, 204235, Note_on_c, 0, 81, 0
2, 204240, Note_on_c, 0, 79, 80
2, 204315, Note_on_c, 0, 79, 0
2, 204320, Note_on_c, 0, 81, 80
2, 204395, Note_on_c, 0, 81, 0
2, 204400, Note_on_c, 0, 84, 80
2, 204475, Note_on_c, 0, 84, 0
2, 204480, Note_on_c, 0, 76, 80
2, 205391, Note_on_c, 0, 76, 0
2, 205440, Note_on_c, 0, 74, 80
2, 206351, Note_on_c, 0, 74, 0
2, 206400, Note_on_c, 0, 57, 80
2, 206627, Note_on_c, 0, 57, 0
2, 206640, Note_on_c, 0, 57, 80
2, 206867, Note_on_c, 0, 57, 0
2, 206880, Note_on_c, 0, 64, 80
2, 207107, Note_on_c, 0, 64, 0
2, 207120, Note_on_c, 0, 57, 80
2, 207347, Note_on_c, 0, 57, 0
2, 207360, Note_on_c, 0, 65, 80
2, 207587, Note_on_c, 0, 65, 0
2, 207600, Note_on_c, 0, 57, 80
2, 207827, Note_on_c, 0, 57, 0
2, 207840, Note_on_c, 0, 64, 80
2, 208067, Note_on_c, 0, 64, 0
2, 208080, Note_on_c, 0, 57, 80
2, 208307, Note_on_c, 0, 57, 0
2, 208320, Note_on_c, 0, 62, 80
2, 208547, Note_on_c, 0, 62, 0
2, 208560, Note_on_c, 0, 60, 80
2, 208787, Note_on_c, 0, 60, 0
2, 208800, Note_on_c, 0, 59, 80
2, 209027, Note_on_c, 0, 59, 0
2, 209040, Note_on_c, 0, 60, 80
2, 209267, Note_on_c, 0, 60, 0
2, 209280, Note_on_c, 0, 62, 80
2, 209507, Note_on_c, 0, 62, 0
2, 209520, Note_on_c, 0, 60, 80
2, 209747, Note_on_c, 0, 60, 0
2, 209760, Note_on_c, 0, 59, 80
2, 209987, Note_on_c, 0, 59, 0
2, 210000, Note_on_c, 0, 55, 80
2, 210227, Note_on_c, 0, 55, 0
2, 210240, Note_on_c, 0, 57, 80
2, 210467, Note_on_c, 0, 57, 0
2, 210480, Note_on_c, 0, 57, 80
2, 210707, Note_on_c, 0, 57, 0
2, 210720, Note_on_c, 0, 64, 80
2, 210947, Note_on_c, 0, 64, 0
2, 210960, Note_on_c, 0, 57, 80
2, 211187, Note_on_c, 0, 57, 0
2, 211200, Note_on_c, 0, 65, 80
2, 211427, Note_on_c, 0, 65, 0
2, 211440, Note_on_c, 0, 57, 80
2, 211667, Note_on_c, 0, 57, 0
2, 211680, Note_on_c, 0, 64, 80
2, 211907, Note_on_c, 0, 64, 0
2, 211920, Note_on_c, 0, 57, 80
2, 212147, Note_on_c, 0, 57, 0
2, 212160, Note_on_c, 0, 62, 80
2, 212387, Note_on_c, 0, 62, 0
2, 212400, Note_on_c, 0, 60, 80
2, 212627, Note_on_c, 0, 60, 0
2, 212640, Note_on_c, 0, 59, 80
2, 212867, Note_on_c, 0, 59, 0
2, 212880, Note_on_c, 0, 60, 80
2, 213107, Note_on_c, 0, 60, 0
2, 213120, Note_on_c, 0, 62, 80
2, 213347, Note_on_c, 0, 62, 0
2, 213360, Note_on_c, 0, 60, 80
2, 213587, Note_on_c, 0, 60, 0
2, 213600, Note_on_c, 0, 59, 80
2, 213827, Note_on_c, 0, 59, 0
2, 213840, Note_on_c, 0, 55, 80
2, 214067, Note_on_c, 0, 55, 0
2, 214080, Note_on_c, 0, 57, 80
2, 214307, Note_on_c, 0, 57, 0
2, 214320, Note_on_c, 0, 57, 80
2, 214547, Note_on_c, 0, 57, 0
2, 214560, Note_on_c, 0, 64, 80
2, 214787, Note_on_c, 0, 64, 0
2, 214800, Note_on_c, 0, 57, 80
2, 215027, Note_on_c, 0, 57, 0
2, 215040, Note_on_c, 0, 65, 80
2, 215267, Note_on_c, 0, 65, 0
2, 215280, Note_on_c, 0, 57, 80
2, 215507, Note_on_c, 0, 57, 0
2, 215520, Note_on_c, 0, 64, 80
2, 215747, Note_on_c, 0, 64, 0
2, 215760, Note_on_c, 0, 57, 80
2, 215987, Note_on_c, 0, 57, 0
2, 216000, Note_on_c, 0, 62, 80
2, 216227, Note_on_c, 0, 62, 0
2, 216240, Note_on_c, 0, 60, 80
2, 216467, Note_on_c, 0, 60, 0
2, 216480, Note_on_c, 0, 59, 80
2, 216707, Note_on_c, 0, 59, 0
2, 216720, Note_on_c, 0, 60, 80
2, 216947, Note_on_c, 0, 60, 0
2, 216960, Note_on_c, 0, 62, 80
2, 217187, Note_on_c, 0, 62, 0
2, 217200, Note_on_c, 0, 60, 80
2, 217427, Note_on_c, 0, 60, 0
2, 217440, Note_on_c, 0, 59, 80
2, 217667, Note_on_c, 0, 59, 0
2, 217680, Note_on_c, 0, 55, 80
2, 217907, Note_on_c, 0, 55, 0
2, 217920, Note_on_c, 0, 57, 80
2, 218147, Note_on_c, 0, 57, 0
2, 218160, Note_on_c, 0, 57, 80
2, 218387, Note_on_c, 0, 57, 0
2, 218400, Note_on_c, 0, 64, 80
2, 218627, Note_on_c, 0, 64, 0
2, 218640, Note_on_c, 0, 57, 80
2, 218867, Note_on_c, 0, 57, 0
2, 218880, Note_on_c, 0, 65, 80
2, 219107, Note_on_c, 0, 65, 0
2, 219120, Note_on_c, 0, 57, 80
2, 219347, Note_on_c, 0, 57, 0
2, 219360, Note_on_c, 0, 64, 80
2, 219587, Note_on_c, 0, 64, 0
2, 219600, Note_on_c, 0, 57, 80
2, 219827, Note_on_c, 0, 57, 0
2, 219840, Note_on_c, 0, 57, 80
2, 219840, Note_on_c, 0, 60, 80
2, 219840, Note_on_c, 0, 65, 80
2, 220751, Note_on_c, 0, 57, 0
2, 220751, Note_on_c, 0, 60, 0
2, 220751, Note_on_c, 0, 65, 0
2, 220800, Note_on_c, 0, 59, 80
2, 220800, Note_on_c, 0, 62, 80
2, 220800, Note_on_c, 0, 67, 80
2, 221711, Note_on_c, 0, 59, 0
2, 221711, Note_on_c, 0, 62, 0
2, 221711, Note_on_c, 0, 67, 0
2, 221760, Note_on_c, 0, 60, 80
2, 221760, Note_on_c, 0, 64, 80
2, 221760, Note_on_c, 0, 69, 80
2, 221987, Note_on_c, 0, 60, 0
2, 221987, Note_on_c, 0, 64, 0
2, 221987, Note_on_c, 0, 69, 0
2, 222000, Note_on_c, 0, 60, 80
2, 222000, Note_on_c, 0, 64, 80
2, 222000, Note_on_c, 0, 69, 80
2, 222683, Note_on_c, 0, 60, 0
2, 222683, Note_on_c, 0, 64, 0
2, 222683, Note_on_c, 0, 69, 0
2, 223680, Note_on_c, 0, 64, 80
2, 223680, Note_on_c, 0, 67, 80
2, 223680, Note_on_c, 0, 72, 80
2, 223907, Note_on_c, 0, 64, 0
2, 223907, Note_on_c, 0, 67, 0
2, 223907, Note_on_c, 0, 72, 0
2, 223920, Note_on_c, 0, 64, 80
2, 223920, Note_on_c, 0, 67, 80
2, 223920, Note_on_c, 0, 72, 80
2, 224603, Note_on_c, 0, 64, 0
2, 224603, Note_on_c, 0, 67, 0
2, 224603, Note_on_c, 0, 72, 0
2, 224640, Note_on_c, 0, 59, 80
2, 224640, Note_on_c, 0, 62, 80
2, 224640, Note_on_c, 0, 67, 80
2, 224867, Note_on_c, 0, 59, 0
2, 224867, Note_on_c, 0, 62, 0
2, 224867, Note_on_c, 0, 67, 0
2, 224880, Note_on_c, 0, 59, 80
2, 224880, Note_on_c, 0, 62, 80
2, 224880, Note_on_c, 0, 67, 80
2, 225563, Note_on_c, 0, 59, 0
2, 225563, Note_on_c, 0, 62, 0
2, 225563, Note_on_c, 0, 67, 0
2, 225600, Note_on_c, 0, 60, 80
2, 225600, Note_on_c, 0, 64, 80
2, 225600, Note_on_c, 0, 69, 80
2, 225827, Note_on_c, 0, 60, 0
2, 225827, Note_on_c, 0, 64, 0
2, 225827, Note_on_c, 0, 69, 0
2, 225840, Note_on_c, 0, 60, 80
2, 225840, Note_on_c, 0, 64, 80
2, 225840, Note_on_c, 0, 69, 80
2, 226523, Note_on_c, 0, 60, 0
2, 226523, Note_on_c, 0, 64, 0
2, 226523, Note_on_c, 0, 69, 0
2, 227520, Note_on_c, 0, 57, 80
2, 227520, Note_on_c, 0, 60, 80
2, 227520, Note_on_c, 0, 65, 80
2, 227747, Note_on_c, 0, 57, 0
2, 227747, Note_on_c, 0, 60, 0
2, 227747, Note_on_c, 0, 65, 0
2, 227760, Note_on_c, 0, 57, 80
2, 227760, Note_on_c, 0, 60, 80
2, 227760, Note_on_c, 0, 65, 80
2, 228443, Note_on_c, 0, 57, 0
2, 228443, Note_on_c, 0, 60, 0
2, 228443, Note_on_c, 0, 65, 0
2, 228480, Note_on_c, 0, 59, 80
2, 228480, Note_on_c, 0, 62, 80
2, 228480, Note_on_c, 0, 67, 80
2, 228707, Note_on_c, 0, 59, 0
2, 228707, Note_on_c, 0, 62, 0
2, 228707, Note_on_c, 0, 67, 0
2, 228720, Note_on_c, 0, 59, 80
2, 228720, Note_on_c, 0, 62, 80
2, 228720, Note_on_c, 0, 67, 80
2, 229403, Note_on_c, 0, 59, 0
2, 229403, Note_on_c, 0, 62, 0
2, 229403, Note_on_c, 0, 67, 0
2, 229440, Note_on_c, 0, 60, 80
2, 229440, Note_on_c, 0, 64, 80
2, 229440, Note_on_c, 0, 69, 80
2, 229667, Note_on_c, 0, 60, 0
2, 229667, Note_on_c, 0, 64, 0
2, 229667, Note_on_c, 0, 69, 0
2, 229680, Note_on_c, 0, 60, 80
2, 229680, Note_on_c, 0, 64, 80
2, 229680, Note_on_c, 0, 69, 80
2, 230363, Note_on_c, 0, 60, 0
2, 230363, Note_on_c, 0, 64, 0
2, 230363, Note_on_c, 0, 69, 0
2, 231360, Note_on_c, 0, 64, 80
2, 231360, Note_on_c, 0, 67, 80
2, 231360, Note_on_c, 0, 72, 80
2, 231587, Note_on_c, 0, 64, 0
2, 231587, Note_on_c, 0, 67, 0
2, 231587, Note_on_c, 0, 72, 0
2, 231600, Note_on_c, 0, 64, 80
2, 231600, Note_on_c, 0, 67, 80
2, 231600, Note_on_c, 0, 72, 80
2, 232283, Note_on_c, 0, 64, 0
2, 232283, Note_on_c, 0, 67, 0
2, 232283, Note_on_c, 0, 72, 0
2, 232320, Note_on_c, 0, 59, 80
2, 232320, Note_on_c, 0, 62, 80
2, 232320, Note_on_c, 0, 67, 80
2, 232547, Note_on_c, 0, 59, 0
2, 232547, Note_on_c, 0, 62, 0
2, 232547, Note_on_c, 0, 67, 0
2, 232560, Note_on_c, 0, 59, 80
2, 232560, Note_on_c, 0, 62, 80
2, 232560, Note_on_c, 0, 67, 80
2, 233243, Note_on_c, 0, 59, 0
2, 233243, Note_on_c, 0, 62, 0
2, 233243, Note_on_c, 0, 67, 0
2, 233280, Note_on_c, 0, 60, 80
2, 233280, Note_on_c, 0, 64, 80
2, 233280, Note_on_c, 0, 69, 80
2, 233507, Note_on_c, 0, 60, 0
2, 233507, Note_on_c, 0, 64, 0
2, 233507, Note_on_c, 0, 69, 0
2, 233520, Note_on_c, 0, 60, 80
2, 233520, Note_on_c, 0, 64, 80
2, 233520, Note_on_c, 0, 69, 80
2, 234203, Note_on_c, 0, 60, 0
2, 234203, Note_on_c, 0, 64, 0
2, 234203, Note_on_c, 0, 69, 0
2, 235200, Note_on_c, 0, 57, 80
2, 235200, Note_on_c, 0, 60, 80
2, 235200, Note_on_c, 0, 65, 80
2, 235427, Note_on_c, 0, 57, 0
2, 235427, Note_on_c, 0, 60, 0
2, 235427, Note_on_c, 0, 65, 0
2, 235440, Note_on_c, 0, 57, 80
2, 235440, Note_on_c, 0, 60, 80
2, 235440, Note_on_c, 0, 65, 80
2, 236123, Note_on_c, 0, 57, 0
2, 236123, Note_on_c, 0, 60, 0
2, 236123, Note_on_c, 0, 65, 0
2, 236160, Note_on_c, 0, 59, 80
2, 236160, Note_on_c, 0, 62, 80
2, 236160, Note_on_c, 0, 67, 80
2, 236387, Note_on_c, 0, 59, 0
2, 236387, Note_on_c, 0, 62, 0
2, 236387, Note_on_c, 0, 67, 0
2, 236400, Note_on_c, 0, 59, 80
2, 236400, Note_on_c, 0, 62, 80
2, 236400, Note_on_c, 0, 67, 80
2, 237083, Note_on_c, 0, 59, 0
2, 237083, Note_on_c, 0, 62, 0
2, 237083, Note_on_c, 0, 67, 0
2, 237120, Note_on_c, 0, 60, 80
2, 237120, Note_on_c, 0, 64, 80
2, 237120, Note_on_c, 0, 69, 80
2, 237347, Note_on_c, 0, 60, 0
2, 237347, Note_on_c, 0, 64, 0
2, 237347, Note_on_c, 0, 69, 0
2, 237360, Note_on_c, 0, 60, 80
2, 237360, Note_on_c, 0, 64, 80
2, 237360, Note_on_c, 0, 69, 80
2, 238043, Note_on_c, 0, 60, 0
2, 238043, Note_on_c, 0, 64, 0
2, 238043, Note_on_c, 0, 69, 0
2, 239040, Note_on_c, 0, 64, 80
2, 239040, Note_on_c, 0, 67, 80
2, 239040, Note_on_c, 0, 72, 80
2, 239267, Note_on_c, 0, 64, 0
2, 239267, Note_on_c, 0, 67, 0
2, 239267, Note_on_c, 0, 72, 0
2, 239280, Note_on_c, 0, 64, 80
2, 239280, Note_on_c, 0, 67, 80
2, 239280, Note_on_c, 0, 72, 80
2, 239963, Note_on_c, 0, 64, 0
2, 239963, Note_on_c, 0, 67, 0
2, 239963, Note_on_c, 0, 72, 0
2, 240000, Note_on_c, 0, 59, 80
2, 240000, Note_on_c, 0, 62, 80
2, 240000, Note_on_c, 0, 67, 80
2, 240227, Note_on_c, 0, 59, 0
2, 240227, Note_on_c, 0, 62, 0
2, 240227, Note_on_c, 0, 67, 0
2, 240240, Note_on_c, 0, 59, 80
2, 240240, Note_on_c, 0, 62, 80
2, 240240, Note_on_c, 0, 67, 80
2, 240923, Note_on_c, 0, 59, 0
2, 240923, Note_on_c, 0, 62, 0
2, 240923, Note_on_c, 0, 67, 0
2, 240960, Note_on_c, 0, 60, 80
2, 240960, Note_on_c, 0, 64, 80
2, 240960, Note_on_c, 0, 69, 80
2, 241187, Note_on_c, 0, 60, 0
2, 241187, Note_on_c, 0, 64, 0
2, 241187, Note_on_c, 0, 69, 0
2, 241200, Note_on_c, 0, 60, 80
2, 241200, Note_on_c, 0, 64, 80
2, 241200, Note_on_c, 0, 69, 80
2, 241883, Note_on_c, 0, 60, 0
2, 241883, Note_on_c, 0, 64, 0
2, 241883, Note_on_c, 0, 69, 0
2, 242880, Note_on_c, 0, 57, 80
2, 242880, Note_on_c, 0, 60, 80
2, 242880, Note_on_c, 0, 65, 80
2, 243107, Note_on_c, 0, 57, 0
2, 243107, Note_on_c, 0, 60, 0
2, 243107, Note_on_c, 0, 65, 0
2, 243120, Note_on_c, 0, 57, 80
2, 243120, Note_on_c, 0, 60, 80
2, 243120, Note_on_c, 0, 65, 80
2, 243803, Note_on_c, 0, 57, 0
2, 243803, Note_on_c, 0, 60, 0
2, 243803, Note_on_c, 0, 65, 0
2, 243840, Note_on_c, 0, 59, 80
2, 243840, Note_on_c, 0, 62, 80
2, 243840, Note_on_c, 0, 67, 80
2, 244067, Note_on_c, 0, 59, 0
2, 244067, Note_on_c, 0, 62, 0
2, 244067, Note_on_c, 0, 67, 0
2, 244080, Note_on_c, 0, 59, 80
2, 244080, Note_on_c, 0, 62, 80
2, 244080, Note_on_c, 0, 67, 80
2, 244763, Note_on_c, 0, 59, 0
2, 244763, Note_on_c, 0, 62, 0
2, 244763, Note_on_c, 0, 67, 0
2, 244800, Note_on_c, 0, 60, 80
2, 244800, Note_on_c, 0, 64, 80
2, 244800, Note_on_c, 0, 69, 80
2, 245027, Note_on_c, 0, 60, 0
2, 245027, Note_on_c, 0, 64, 0
2, 245027, Note_on_c, 0, 69, 0
2, 245040, Note_on_c, 0, 60, 80
2, 245040, Note_on_c, 0, 64, 80
2, 245040, Note_on_c, 0, 69, 80
2, 245723, Note_on_c, 0, 60, 0
2, 245723, Note_on_c, 0, 64, 0
2, 245723, Note_on_c, 0, 69, 0
2, 245724, End_track
3, 0, Start_track
3, 0, Title_t, "6-str. Electric Bass, Bass\000"
3, 0, Key_signature, 0, "major"
3, 0, Control_c, 1, 121, 0
3, 0, Program_c, 1, 33
3, 0, Control_c, 1, 7, 100
3, 0, Control_c, 1, 10, 64
3, 0, Control_c, 1, 91, 0
3, 0, Control_c, 1, 93, 0
3, 0, MIDI_port, 0
3, 0, Note_on_c, 1, 57, 80
3, 0, Control_c, 4, 121, 0
3, 0, Program_c, 4, 36
3, 0, Control_c, 4, 7, 100
3, 0, Control_c, 4, 10, 64
3, 0, Control_c, 4, 91, 0
3, 0, Control_c, 4, 93, 0
3, 0, MIDI_port, 0
3, 0, Control_c, 5, 121, 0
3, 0, Program_c, 5, 37
3, 0, Control_c, 5, 7, 100
3, 0, Control_c, 5, 10, 64
3, 0, Control_c, 5, 91, 0
3, 0, Control_c, 5, 93, 0
3, 0, MIDI_port, 0
3, 239, Note_on_c, 1, 57, 0
3, 240, Note_on_c, 1, 57, 80
3, 479, Note_on_c, 1, 57, 0
3, 1920, Note_on_c, 1, 60, 80
3, 2159, Note_on_c, 1, 60, 0
3, 2160, Note_on_c, 1, 60, 80
3, 2399, Note_on_c, 1, 60, 0
3, 2880, Note_on_c, 1, 55, 80
3, 3119, Note_on_c, 1, 55, 0
3, 3120, Note_on_c, 1, 55, 80
3, 3359, Note_on_c, 1, 55, 0
3, 3840, Note_on_c, 1, 57, 80
3, 4079, Note_on_c, 1, 57, 0
3, 4080, Note_on_c, 1, 57, 80
3, 4319, Note_on_c, 1, 57, 0
3, 5760, Note_on_c, 1, 65, 80
3, 5999, Note_on_c, 1, 65, 0
3, 6000, Note_on_c, 1, 65, 80
3, 6239, Note_on_c, 1, 65, 0
3, 6720, Note_on_c, 1, 55, 80
3, 6959, Note_on_c, 1, 55, 0
3, 6960, Note_on_c, 1, 55, 80
3, 7199, Note_on_c, 1, 55, 0
3, 7680, Note_on_c, 1, 57, 80
3, 7919, Note_on_c, 1, 57, 0
3, 7920, Note_on_c, 1, 57, 80
3, 8159, Note_on_c, 1, 57, 0
3, 9600, Note_on_c, 1, 60, 80
3, 9839, Note_on_c, 1, 60, 0
3, 9840, Note_on_c, 1, 60, 80
3, 10079, Note_on_c, 1, 60, 0
3, 10560, Note_on_c, 1, 55, 80
3, 10799, Note_on_c, 1, 55, 0
3, 10800, Note_on_c, 1, 55, 80
3, 11039, Note_on_c, 1, 55, 0
3, 11520, Note_on_c, 1, 57, 80
3, 11759, Note_on_c, 1, 57, 0
3, 11760, Note_on_c, 1, 57, 80
3, 11999, Note_on_c, 1, 57, 0
3, 13440, Note_on_c, 1, 65, 80
3, 13679, Note_on_c, 1, 65, 0
3, 13680, Note_on_c, 1, 65, 80
3, 13919, Note_on_c, 1, 65, 0
3, 14400, Note_on_c, 1, 55, 80
3, 14639, Note_on_c, 1, 55, 0
3, 14640, Note_on_c, 1, 55, 80
3, 14879, Note_on_c, 1, 55, 0
3, 15360, Note_on_c, 1, 57, 80
3, 15599, Note_on_c, 1, 57, 0
3, 15600, Note_on_c, 1, 57, 80
3, 15839, Note_on_c, 1, 57, 0
3, 17280, Note_on_c, 1, 60, 80
3, 17519, Note_on_c, 1, 60, 0
3, 17520, Note_on_c, 1, 60, 80
3, 17759, Note_on_c, 1, 60, 0
3, 18240, Note_on_c, 1, 55, 80
3, 18479, Note_on_c, 1, 55, 0
3, 18480, Note_on_c, 1, 55, 80
3, 18719, Note_on_c, 1, 55, 0
3, 19200, Note_on_c, 1, 57, 80
3, 19439, Note_on_c, 1, 57, 0
3, 19440, Note_on_c, 1, 57, 80
3, 19679, Note_on_c, 1, 57, 0
3, 21120, Note_on_c, 1, 65, 80
3, 21359, Note_on_c, 1, 65, 0
3, 21360, Note_on_c, 1, 65, 80
3, 21599, Note_on_c, 1, 65, 0
3, 22080, Note_on_c, 1, 55, 80
3, 22319, Note_on_c, 1, 55, 0
3, 22320, Note_on_c, 1, 55, 80
3, 22559, Note_on_c, 1, 55, 0
3, 23040, Note_on_c, 1, 57, 80
3, 23279, Note_on_c, 1, 57, 0
3, 23280, Note_on_c, 1, 57, 80
3, 23519, Note_on_c, 1, 57, 0
3, 24960, Note_on_c, 1, 60, 80
3, 25199, Note_on_c, 1, 60, 0
3, 25200, Note_on_c, 1, 60, 80
3, 25439, Note_on_c, 1, 60, 0
3, 25920, Note_on_c, 1, 55, 80
3, 26159, Note_on_c, 1, 55, 0
3, 26160, Note_on_c, 1, 55, 80
3, 26399, Note_on_c, 1, 55, 0
3, 26880, Note_on_c, 1, 57, 80
3, 27119, Note_on_c, 1, 57, 0
3, 27120, Note_on_c, 1, 57, 80
3, 27359, Note_on_c, 1, 57, 0
3, 28800, Note_on_c, 1, 53, 80
3, 29039, Note_on_c, 1, 53, 0
3, 29040, Note_on_c, 1, 53, 80
3, 29279, Note_on_c, 1, 53, 0
3, 29280, Note_on_c, 1, 53, 80
3, 29759, Note_on_c, 1, 53, 0
3, 29760, Note_on_c, 1, 55, 80
3, 29999, Note_on_c, 1, 55, 0
3, 30000, Note_on_c, 1, 55, 80
3, 30239, Note_on_c, 1, 55, 0
3, 30240, Note_on_c, 1, 55, 80
3, 30719, Note_on_c, 1, 55, 0
3, 30720, Note_on_c, 1, 48, 80
3, 31199, Note_on_c, 1, 48, 0
3, 31200, Note_on_c, 1, 60, 80
3, 31439, Note_on_c, 1, 60, 0
3, 31440, Note_on_c, 1, 48, 80
3, 31919, Note_on_c, 1, 48, 0
3, 31920, Note_on_c, 1, 48, 80
3, 32159, Note_on_c, 1, 48, 0
3, 32160, Note_on_c, 1, 60, 80
3, 32399, Note_on_c, 1, 60, 0
3, 32400, Note_on_c, 1, 48, 80
3, 32879, Note_on_c, 1, 48, 0
3, 32880, Note_on_c, 1, 48, 80
3, 33119, Note_on_c, 1, 48, 0
3, 33120, Note_on_c, 1, 60, 80
3, 33359, Note_on_c, 1, 60, 0
3, 33360, Note_on_c, 1, 59, 80
3, 33599, Note_on_c, 1, 59, 0
3, 33600, Note_on_c, 1, 60, 80
3, 33839, Note_on_c, 1, 60, 0
3, 33840, Note_on_c, 1, 57, 80
3, 34079, Note_on_c, 1, 57, 0
3, 34080, Note_on_c, 1, 59, 80
3, 34319, Note_on_c, 1, 59, 0
3, 34320, Note_on_c, 1, 55, 80
3, 34559, Note_on_c, 1, 55, 0
3, 34560, Note_on_c, 1, 48, 80
3, 35039, Note_on_c, 1, 48, 0
3, 35040, Note_on_c, 1, 60, 80
3, 35279, Note_on_c, 1, 60, 0
3, 35280, Note_on_c, 1, 48, 80
3, 35759, Note_on_c, 1, 48, 0
3, 35760, Note_on_c, 1, 48, 80
3, 35999, Note_on_c, 1, 48, 0
3, 36000, Note_on_c, 1, 60, 80
3, 36239, Note_on_c, 1, 60, 0
3, 36240, Note_on_c, 1, 48, 80
3, 36719, Note_on_c, 1, 48, 0
3, 36720, Note_on_c, 1, 48, 80
3, 36959, Note_on_c, 1, 48, 0
3, 36960, Note_on_c, 1, 60, 80
3, 37199, Note_on_c, 1, 60, 0
3, 37200, Note_on_c, 1, 59, 80
3, 37439, Note_on_c, 1, 59, 0
3, 37440, Note_on_c, 1, 60, 80
3, 37679, Note_on_c, 1, 60, 0
3, 37680, Note_on_c, 1, 57, 80
3, 37919, Note_on_c, 1, 57, 0
3, 37920, Note_on_c, 1, 59, 80
3, 38159, Note_on_c, 1, 59, 0
3, 38160, Note_on_c, 1, 55, 80
3, 38399, Note_on_c, 1, 55, 0
3, 38400, Note_on_c, 1, 48, 80
3, 38879, Note_on_c, 1, 48, 0
3, 38880, Note_on_c, 1, 60, 80
3, 39119, Note_on_c, 1, 60, 0
3, 39120, Note_on_c, 1, 48, 80
3, 39599, Note_on_c, 1, 48, 0
3, 39600, Note_on_c, 1, 48, 80
3, 39839, Note_on_c, 1, 48, 0
3, 39840, Note_on_c, 1, 60, 80
3, 40079, Note_on_c, 1, 60, 0
3, 40080, Note_on_c, 1, 48, 80
3, 40559, Note_on_c, 1, 48, 0
3, 40560, Note_on_c, 1, 48, 80
3, 40799, Note_on_c, 1, 48, 0
3, 40800, Note_on_c, 1, 60, 80
3, 41039, Note_on_c, 1, 60, 0
3, 41040, Note_on_c, 1, 59, 80
3, 41279, Note_on_c, 1, 59, 0
3, 41280, Note_on_c, 1, 60, 80
3, 41519, Note_on_c, 1, 60, 0
3, 41520, Note_on_c, 1, 57, 80
3, 41759, Note_on_c, 1, 57, 0
3, 41760, Note_on_c, 1, 59, 80
3, 41999, Note_on_c, 1, 59, 0
3, 42000, Note_on_c, 1, 55, 80
3, 42239, Note_on_c, 1, 55, 0
3, 42240, Note_on_c, 1, 48, 80
3, 42479, Note_on_c, 1, 48, 0
3, 42720, Note_on_c, 1, 60, 80
3, 42959, Note_on_c, 1, 60, 0
3, 42960, Note_on_c, 1, 48, 80
3, 43439, Note_on_c, 1, 48, 0
3, 43440, Note_on_c, 1, 48, 80
3, 43679, Note_on_c, 1, 48, 0
3, 43680, Note_on_c, 1, 60, 80
3, 43919, Note_on_c, 1, 60, 0
3, 43920, Note_on_c, 1, 48, 80
3, 44399, Note_on_c, 1, 48, 0
3, 44400, Note_on_c, 1, 48, 80
3, 44639, Note_on_c, 1, 48, 0
3, 44640, Note_on_c, 1, 60, 80
3, 44879, Note_on_c, 1, 60, 0
3, 44880, Note_on_c, 1, 59, 80
3, 45119, Note_on_c, 1, 59, 0
3, 45120, Note_on_c, 1, 60, 80
3, 45359, Note_on_c, 1, 60, 0
3, 45360, Note_on_c, 1, 57, 80
3, 45599, Note_on_c, 1, 57, 0
3, 45600, Note_on_c, 1, 59, 80
3, 45839, Note_on_c, 1, 59, 0
3, 45840, Note_on_c, 1, 55, 80
3, 46079, Note_on_c, 1, 55, 0
3, 46080, Note_on_c, 1, 48, 80
3, 46559, Note_on_c, 1, 48, 0
3, 46560, Note_on_c, 1, 60, 80
3, 46799, Note_on_c, 1, 60, 0
3, 46800, Note_on_c, 1, 48, 80
3, 47279, Note_on_c, 1, 48, 0
3, 47280, Note_on_c, 1, 48, 80
3, 47519, Note_on_c, 1, 48, 0
3, 47520, Note_on_c, 1, 60, 80
3, 47759, Note_on_c, 1, 60, 0
3, 47760, Note_on_c, 1, 48, 80
3, 48239, Note_on_c, 1, 48, 0
3, 48240, Note_on_c, 1, 48, 80
3, 48479, Note_on_c, 1, 48, 0
3, 48480, Note_on_c, 1, 60, 80
3, 48719, Note_on_c, 1, 60, 0
3, 48720, Note_on_c, 1, 59, 80
3, 48959, Note_on_c, 1, 59, 0
3, 48960, Note_on_c, 1, 60, 80
3, 49199, Note_on_c, 1, 60, 0
3, 49200, Note_on_c, 1, 57, 80
3, 49439, Note_on_c, 1, 57, 0
3, 49440, Note_on_c, 1, 59, 80
3, 49679, Note_on_c, 1, 59, 0
3, 49680, Note_on_c, 1, 55, 80
3, 49919, Note_on_c, 1, 55, 0
3, 49920, Note_on_c, 1, 48, 80
3, 50399, Note_on_c, 1, 48, 0
3, 50400, Note_on_c, 1, 60, 80
3, 50639, Note_on_c, 1, 60, 0
3, 50640, Note_on_c, 1, 48, 80
3, 51119, Note_on_c, 1, 48, 0
3, 51120, Note_on_c, 1, 48, 80
3, 51359, Note_on_c, 1, 48, 0
3, 51360, Note_on_c, 1, 60, 80
3, 51599, Note_on_c, 1, 60, 0
3, 51600, Note_on_c, 1, 48, 80
3, 52079, Note_on_c, 1, 48, 0
3, 52080, Note_on_c, 1, 48, 80
3, 52319, Note_on_c, 1, 48, 0
3, 52320, Note_on_c, 1, 60, 80
3, 52559, Note_on_c, 1, 60, 0
3, 52560, Note_on_c, 1, 59, 80
3, 52799, Note_on_c, 1, 59, 0
3, 52800, Note_on_c, 1, 60, 80
3, 53039, Note_on_c, 1, 60, 0
3, 53040, Note_on_c, 1, 57, 80
3, 53279, Note_on_c, 1, 57, 0
3, 53280, Note_on_c, 1, 59, 80
3, 53519, Note_on_c, 1, 59, 0
3, 53520, Note_on_c, 1, 55, 80
3, 53759, Note_on_c, 1, 55, 0
3, 53760, Note_on_c, 1, 48, 80
3, 54239, Note_on_c, 1, 48, 0
3, 54240, Note_on_c, 1, 60, 80
3, 54479, Note_on_c, 1, 60, 0
3, 54480, Note_on_c, 1, 48, 80
3, 54959, Note_on_c, 1, 48, 0
3, 54960, Note_on_c, 1, 48, 80
3, 55199, Note_on_c, 1, 48, 0
3, 55200, Note_on_c, 1, 60, 80
3, 55439, Note_on_c, 1, 60, 0
3, 55440, Note_on_c, 1, 48, 80
3, 55919, Note_on_c, 1, 48, 0
3, 55920, Note_on_c, 1, 48, 80
3, 56159, Note_on_c, 1, 48, 0
3, 56160, Note_on_c, 1, 60, 80
3, 56399, Note_on_c, 1, 60, 0
3, 56400, Note_on_c, 1, 59, 80
3, 56639, Note_on_c, 1, 59, 0
3, 56640, Note_on_c, 1, 60, 80
3, 56879, Note_on_c, 1, 60, 0
3, 56880, Note_on_c, 1, 57, 80
3, 57119, Note_on_c, 1, 57, 0
3, 57120, Note_on_c, 1, 59, 80
3, 57359, Note_on_c, 1, 59, 0
3, 57360, Note_on_c, 1, 55, 80
3, 57599, Note_on_c, 1, 55, 0
3, 57600, Note_on_c, 1, 48, 80
3, 58079, Note_on_c, 1, 48, 0
3, 58080, Note_on_c, 1, 60, 80
3, 58319, Note_on_c, 1, 60, 0
3, 58320, Note_on_c, 1, 48, 80
3, 58799, Note_on_c, 1, 48, 0
3, 58800, Note_on_c, 1, 48, 80
3, 59039, Note_on_c, 1, 48, 0
3, 59040, Note_on_c, 1, 60, 80
3, 59279, Note_on_c, 1, 60, 0
3, 59280, Note_on_c, 1, 48, 80
3, 59759, Note_on_c, 1, 48, 0
3, 59760, Note_on_c, 1, 48, 80
3, 59999, Note_on_c, 1, 48, 0
3, 60000, Note_on_c, 1, 60, 80
3, 60239, Note_on_c, 1, 60, 0
3, 60240, Note_on_c, 1, 59, 80
3, 60479, Note_on_c, 1, 59, 0
3, 60480, Note_on_c, 1, 60, 80
3, 60719, Note_on_c, 1, 60, 0
3, 60720, Note_on_c, 1, 57, 80
3, 60959, Note_on_c, 1, 57, 0
3, 60960, Note_on_c, 1, 59, 80
3, 61199, Note_on_c, 1, 59, 0
3, 61200, Note_on_c, 1, 55, 80
3, 61439, Note_on_c, 1, 55, 0
3, 61440, Note_on_c, 1, 48, 80
3, 61919, Note_on_c, 1, 48, 0
3, 61920, Note_on_c, 1, 60, 80
3, 62159, Note_on_c, 1, 60, 0
3, 62160, Note_on_c, 1, 48, 80
3, 62639, Note_on_c, 1, 48, 0
3, 62640, Note_on_c, 1, 48, 80
3, 62879, Note_on_c, 1, 48, 0
3, 62880, Note_on_c, 1, 60, 80
3, 63119, Note_on_c, 1, 60, 0
3, 63120, Note_on_c, 1, 48, 80
3, 63599, Note_on_c, 1, 48, 0
3, 63600, Note_on_c, 1, 48, 80
3, 63839, Note_on_c, 1, 48, 0
3, 63840, Note_on_c, 1, 60, 80
3, 64079, Note_on_c, 1, 60, 0
3, 64080, Note_on_c, 1, 59, 80
3, 64319, Note_on_c, 1, 59, 0
3, 64320, Note_on_c, 1, 60, 80
3, 64559, Note_on_c, 1, 60, 0
3, 64560, Note_on_c, 1, 57, 80
3, 64799, Note_on_c, 1, 57, 0
3, 64800, Note_on_c, 1, 59, 80
3, 65039, Note_on_c, 1, 59, 0
3, 65040, Note_on_c, 1, 55, 80
3, 65279, Note_on_c, 1, 55, 0
3, 65280, Note_on_c, 1, 48, 80
3, 65759, Note_on_c, 1, 48, 0
3, 65760, Note_on_c, 1, 60, 80
3, 65999, Note_on_c, 1, 60, 0
3, 66000, Note_on_c, 1, 48, 80
3, 66479, Note_on_c, 1, 48, 0
3, 66480, Note_on_c, 1, 48, 80
3, 66719, Note_on_c, 1, 48, 0
3, 66720, Note_on_c, 1, 60, 80
3, 66959, Note_on_c, 1, 60, 0
3, 66960, Note_on_c, 1, 48, 80
3, 67439, Note_on_c, 1, 48, 0
3, 67440, Note_on_c, 1, 57, 80
3, 67679, Note_on_c, 1, 57, 0
3, 67680, Note_on_c, 1, 59, 80
3, 67919, Note_on_c, 1, 59, 0
3, 67920, Note_on_c, 1, 60, 80
3, 68159, Note_on_c, 1, 60, 0
3, 68160, Note_on_c, 1, 60, 80
3, 68399, Note_on_c, 1, 60, 0
3, 68400, Note_on_c, 1, 57, 80
3, 68639, Note_on_c, 1, 57, 0
3, 68640, Note_on_c, 1, 59, 80
3, 68879, Note_on_c, 1, 59, 0
3, 68880, Note_on_c, 1, 55, 80
3, 69119, Note_on_c, 1, 55, 0
3, 69120, Note_on_c, 1, 57, 80
3, 69359, Note_on_c, 1, 57, 0
3, 69360, Note_on_c, 1, 55, 80
3, 69599, Note_on_c, 1, 55, 0
3, 69600, Note_on_c, 1, 57, 80
3, 70319, Note_on_c, 1, 57, 0
3, 70320, Note_on_c, 1, 59, 80
3, 70799, Note_on_c, 1, 59, 0
3, 70800, Note_on_c, 1, 60, 80
3, 71279, Note_on_c, 1, 60, 0
3, 71280, Note_on_c, 1, 59, 80
3, 71519, Note_on_c, 1, 59, 0
3, 71520, Note_on_c, 1, 57, 80
3, 71759, Note_on_c, 1, 57, 0
3, 71760, Note_on_c, 1, 55, 80
3, 72239, Note_on_c, 1, 55, 0
3, 72240, Note_on_c, 1, 57, 80
3, 72479, Note_on_c, 1, 57, 0
3, 72480, Note_on_c, 1, 59, 80
3, 72719, Note_on_c, 1, 59, 0
3, 72960, Note_on_c, 1, 57, 80
3, 73199, Note_on_c, 1, 57, 0
3, 73200, Note_on_c, 1, 55, 80
3, 73439, Note_on_c, 1, 55, 0
3, 73440, Note_on_c, 1, 57, 80
3, 73919, Note_on_c, 1, 57, 0
3, 73920, Note_on_c, 1, 57, 80
3, 74159, Note_on_c, 1, 57, 0
3, 74160, Note_on_c, 1, 57, 80
3, 74399, Note_on_c, 1, 57, 0
3, 74400, Note_on_c, 1, 59, 80
3, 74639, Note_on_c, 1, 59, 0
3, 74640, Note_on_c, 1, 53, 80
3, 75119, Note_on_c, 1, 53, 0
3, 75360, Note_on_c, 1, 53, 80
3, 75839, Note_on_c, 1, 53, 0
3, 75840, Note_on_c, 1, 53, 80
3, 76319, Note_on_c, 1, 53, 0
3, 76320, Note_on_c, 1, 53, 80
3, 76559, Note_on_c, 1, 53, 0
3, 76560, Note_on_c, 1, 62, 80
3, 76799, Note_on_c, 1, 62, 0
3, 76800, Note_on_c, 1, 60, 80
3, 77279, Note_on_c, 1, 60, 0
3, 77280, Note_on_c, 1, 72, 80
3, 77759, Note_on_c, 1, 72, 0
3, 77760, Note_on_c, 1, 60, 80
3, 77999, Note_on_c, 1, 60, 0
3, 78000, Note_on_c, 1, 59, 80
3, 78239, Note_on_c, 1, 59, 0
3, 78240, Note_on_c, 1, 57, 80
3, 78479, Note_on_c, 1, 57, 0
3, 78480, Note_on_c, 1, 55, 80
3, 78959, Note_on_c, 1, 55, 0
3, 78960, Note_on_c, 1, 55, 80
3, 79199, Note_on_c, 1, 55, 0
3, 79200, Note_on_c, 1, 67, 80
3, 79439, Note_on_c, 1, 67, 0
3, 79440, Note_on_c, 1, 55, 80
3, 79919, Note_on_c, 1, 55, 0
3, 79920, Note_on_c, 1, 55, 80
3, 80159, Note_on_c, 1, 55, 0
3, 80160, Note_on_c, 1, 67, 80
3, 80399, Note_on_c, 1, 67, 0
3, 80400, Note_on_c, 1, 55, 80
3, 80639, Note_on_c, 1, 55, 0
3, 80640, Note_on_c, 1, 57, 80
3, 81119, Note_on_c, 1, 57, 0
3, 81120, Note_on_c, 1, 69, 80
3, 81359, Note_on_c, 1, 69, 0
3, 81360, Note_on_c, 1, 57, 80
3, 81839, Note_on_c, 1, 57, 0
3, 81840, Note_on_c, 1, 57, 80
3, 82079, Note_on_c, 1, 57, 0
3, 82080, Note_on_c, 1, 69, 80
3, 82319, Note_on_c, 1, 69, 0
3, 82320, Note_on_c, 1, 57, 80
3, 82559, Note_on_c, 1, 57, 0
3, 82560, Note_on_c, 1, 57, 80
3, 82799, Note_on_c, 1, 57, 0
3, 82800, Note_on_c, 1, 57, 80
3, 83039, Note_on_c, 1, 57, 0
3, 83040, Note_on_c, 1, 69, 80
3, 83279, Note_on_c, 1, 69, 0
3, 83280, Note_on_c, 1, 57, 80
3, 83519, Note_on_c, 1, 57, 0
3, 83520, Note_on_c, 1, 57, 80
3, 83759, Note_on_c, 1, 57, 0
3, 83760, Note_on_c, 1, 57, 80
3, 83999, Note_on_c, 1, 57, 0
3, 84000, Note_on_c, 1, 69, 80
3, 84239, Note_on_c, 1, 69, 0
3, 84240, Note_on_c, 1, 57, 80
3, 84479, Note_on_c, 1, 57, 0
3, 84480, Note_on_c, 1, 60, 80
3, 84959, Note_on_c, 1, 60, 0
3, 84960, Note_on_c, 1, 72, 80
3, 85439, Note_on_c, 1, 72, 0
3, 85440, Note_on_c, 1, 60, 80
3, 85679, Note_on_c, 1, 60, 0
3, 85680, Note_on_c, 1, 59, 80
3, 85919, Note_on_c, 1, 59, 0
3, 85920, Note_on_c, 1, 57, 80
3, 86159, Note_on_c, 1, 57, 0
3, 86160, Note_on_c, 1, 55, 80
3, 86639, Note_on_c, 1, 55, 0
3, 86640, Note_on_c, 1, 55, 80
3, 86879, Note_on_c, 1, 55, 0
3, 86880, Note_on_c, 1, 67, 80
3, 87119, Note_on_c, 1, 67, 0
3, 87120, Note_on_c, 1, 55, 80
3, 87359, Note_on_c, 1, 55, 0
3, 87360, Note_on_c, 1, 55, 80
3, 87599, Note_on_c, 1, 55, 0
3, 87600, Note_on_c, 1, 55, 80
3, 87839, Note_on_c, 1, 55, 0
3, 87840, Note_on_c, 1, 67, 80
3, 88079, Note_on_c, 1, 67, 0
3, 88080, Note_on_c, 1, 55, 80
3, 88319, Note_on_c, 1, 55, 0
3, 88320, Note_on_c, 1, 57, 80
3, 88559, Note_on_c, 1, 57, 0
3, 88560, Note_on_c, 1, 55, 80
3, 88799, Note_on_c, 1, 55, 0
3, 88800, Note_on_c, 1, 57, 80
3, 89279, Note_on_c, 1, 57, 0
3, 89520, Note_on_c, 1, 57, 80
3, 89759, Note_on_c, 1, 57, 0
3, 89760, Note_on_c, 1, 59, 80
3, 89999, Note_on_c, 1, 59, 0
3, 90000, Note_on_c, 1, 60, 80
3, 90479, Note_on_c, 1, 60, 0
3, 90480, Note_on_c, 1, 59, 80
3, 90719, Note_on_c, 1, 59, 0
3, 90720, Note_on_c, 1, 57, 80
3, 90959, Note_on_c, 1, 57, 0
3, 90960, Note_on_c, 1, 55, 80
3, 91439, Note_on_c, 1, 55, 0
3, 91440, Note_on_c, 1, 57, 80
3, 91679, Note_on_c, 1, 57, 0
3, 91680, Note_on_c, 1, 59, 80
3, 92159, Note_on_c, 1, 59, 0
3, 92160, Note_on_c, 1, 57, 80
3, 92399, Note_on_c, 1, 57, 0
3, 92400, Note_on_c, 1, 55, 80
3, 92639, Note_on_c, 1, 55, 0
3, 92640, Note_on_c, 1, 57, 80
3, 93119, Note_on_c, 1, 57, 0
3, 93360, Note_on_c, 1, 57, 80
3, 93599, Note_on_c, 1, 57, 0
3, 93600, Note_on_c, 1, 59, 80
3, 93839, Note_on_c, 1, 59, 0
3, 93840, Note_on_c, 1, 53, 80
3, 94319, Note_on_c, 1, 53, 0
3, 94320, Note_on_c, 1, 53, 80
3, 94559, Note_on_c, 1, 53, 0
3, 94560, Note_on_c, 1, 53, 80
3, 94799, Note_on_c, 1, 53, 0
3, 94800, Note_on_c, 1, 55, 80
3, 95279, Note_on_c, 1, 55, 0
3, 95280, Note_on_c, 1, 55, 80
3, 95519, Note_on_c, 1, 55, 0
3, 95520, Note_on_c, 1, 67, 80
3, 95639, Note_on_c, 1, 67, 0
3, 95640, Note_on_c, 1, 62, 80
3, 95759, Note_on_c, 1, 62, 0
3, 95760, Note_on_c, 1, 55, 80
3, 95999, Note_on_c, 1, 55, 0
3, 96000, Note_on_c, 1, 48, 80
3, 96239, Note_on_c, 1, 48, 0
3, 96240, Note_on_c, 1, 48, 80
3, 96479, Note_on_c, 1, 48, 0
3, 96480, Note_on_c, 1, 60, 80
3, 96719, Note_on_c, 1, 60, 0
3, 96720, Note_on_c, 1, 48, 80
3, 96959, Note_on_c, 1, 48, 0
3, 96960, Note_on_c, 1, 48, 80
3, 97199, Note_on_c, 1, 48, 0
3, 97200, Note_on_c, 1, 48, 80
3, 97439, Note_on_c, 1, 48, 0
3, 97440, Note_on_c, 1, 60, 80
3, 97679, Note_on_c, 1, 60, 0
3, 97680, Note_on_c, 1, 48, 80
3, 97919, Note_on_c, 1, 48, 0
3, 97920, Note_on_c, 1, 48, 80
3, 98159, Note_on_c, 1, 48, 0
3, 98160, Note_on_c, 1, 48, 80
3, 98399, Note_on_c, 1, 48, 0
3, 98400, Note_on_c, 1, 60, 80
3, 98639, Note_on_c, 1, 60, 0
3, 98640, Note_on_c, 1, 59, 80
3, 98879, Note_on_c, 1, 59, 0
3, 98880, Note_on_c, 1, 60, 80
3, 99119, Note_on_c, 1, 60, 0
3, 99120, Note_on_c, 1, 57, 80
3, 99359, Note_on_c, 1, 57, 0
3, 99360, Note_on_c, 1, 59, 80
3, 99599, Note_on_c, 1, 59, 0
3, 99600, Note_on_c, 1, 55, 80
3, 99839, Note_on_c, 1, 55, 0
3, 99840, Note_on_c, 1, 48, 80
3, 100079, Note_on_c, 1, 48, 0
3, 100080, Note_on_c, 1, 48, 80
3, 100319, Note_on_c, 1, 48, 0
3, 100320, Note_on_c, 1, 60, 80
3, 100559, Note_on_c, 1, 60, 0
3, 100560, Note_on_c, 1, 48, 80
3, 100799, Note_on_c, 1, 48, 0
3, 100800, Note_on_c, 1, 48, 80
3, 101039, Note_on_c, 1, 48, 0
3, 101040, Note_on_c, 1, 48, 80
3, 101279, Note_on_c, 1, 48, 0
3, 101280, Note_on_c, 1, 60, 80
3, 101519, Note_on_c, 1, 60, 0
3, 101520, Note_on_c, 1, 48, 80
3, 101759, Note_on_c, 1, 48, 0
3, 101760, Note_on_c, 1, 48, 80
3, 101999, Note_on_c, 1, 48, 0
3, 102000, Note_on_c, 1, 48, 80
3, 102239, Note_on_c, 1, 48, 0
3, 102240, Note_on_c, 1, 60, 80
3, 102479, Note_on_c, 1, 60, 0
3, 102480, Note_on_c, 1, 59, 80
3, 102719, Note_on_c, 1, 59, 0
3, 102720, Note_on_c, 1, 60, 80
3, 102959, Note_on_c, 1, 60, 0
3, 102960, Note_on_c, 1, 57, 80
3, 103199, Note_on_c, 1, 57, 0
3, 103200, Note_on_c, 1, 59, 80
3, 103439, Note_on_c, 1, 59, 0
3, 103440, Note_on_c, 1, 55, 80
3, 103679, Note_on_c, 1, 55, 0
3, 103680, Note_on_c, 1, 48, 80
3, 103919, Note_on_c, 1, 48, 0
3, 103920, Note_on_c, 1, 48, 80
3, 104159, Note_on_c, 1, 48, 0
3, 104160, Note_on_c, 1, 60, 80
3, 104399, Note_on_c, 1, 60, 0
3, 104400, Note_on_c, 1, 48, 80
3, 104639, Note_on_c, 1, 48, 0
3, 104640, Note_on_c, 1, 48, 80
3, 104879, Note_on_c, 1, 48, 0
3, 104880, Note_on_c, 1, 48, 80
3, 105119, Note_on_c, 1, 48, 0
3, 105120, Note_on_c, 1, 60, 80
3, 105359, Note_on_c, 1, 60, 0
3, 105360, Note_on_c, 1, 48, 80
3, 105599, Note_on_c, 1, 48, 0
3, 105600, Note_on_c, 1, 48, 80
3, 105839, Note_on_c, 1, 48, 0
3, 105840, Note_on_c, 1, 48, 80
3, 106079, Note_on_c, 1, 48, 0
3, 106080, Note_on_c, 1, 60, 80
3, 106319, Note_on_c, 1, 60, 0
3, 106320, Note_on_c, 1, 59, 80
3, 106559, Note_on_c, 1, 59, 0
3, 106560, Note_on_c, 1, 60, 80
3, 106799, Note_on_c, 1, 60, 0
3, 106800, Note_on_c, 1, 57, 80
3, 107039, Note_on_c, 1, 57, 0
3, 107040, Note_on_c, 1, 59, 80
3, 107279, Note_on_c, 1, 59, 0
3, 107280, Note_on_c, 1, 55, 80
3, 107519, Note_on_c, 1, 55, 0
3, 107520, Note_on_c, 1, 48, 80
3, 107759, Note_on_c, 1, 48, 0
3, 107760, Note_on_c, 1, 48, 80
3, 107999, Note_on_c, 1, 48, 0
3, 108000, Note_on_c, 1, 60, 80
3, 108239, Note_on_c, 1, 60, 0
3, 108240, Note_on_c, 1, 48, 80
3, 108479, Note_on_c, 1, 48, 0
3, 108480, Note_on_c, 1, 48, 80
3, 108719, Note_on_c, 1, 48, 0
3, 108720, Note_on_c, 1, 48, 80
3, 108959, Note_on_c, 1, 48, 0
3, 108960, Note_on_c, 1, 60, 80
3, 109199, Note_on_c, 1, 60, 0
3, 109200, Note_on_c, 1, 48, 80
3, 109439, Note_on_c, 1, 48, 0
3, 109440, Note_on_c, 1, 48, 80
3, 109679, Note_on_c, 1, 48, 0
3, 109680, Note_on_c, 1, 48, 80
3, 109919, Note_on_c, 1, 48, 0
3, 109920, Note_on_c, 1, 60, 80
3, 110159, Note_on_c, 1, 60, 0
3, 110160, Note_on_c, 1, 59, 80
3, 110399, Note_on_c, 1, 59, 0
3, 110400, Note_on_c, 1, 60, 80
3, 110639, Note_on_c, 1, 60, 0
3, 110640, Note_on_c, 1, 57, 80
3, 110879, Note_on_c, 1, 57, 0
3, 110880, Note_on_c, 1, 59, 80
3, 111119, Note_on_c, 1, 59, 0
3, 111120, Note_on_c, 1, 55, 80
3, 111359, Note_on_c, 1, 55, 0
3, 111360, Note_on_c, 1, 48, 80
3, 111599, Note_on_c, 1, 48, 0
3, 111600, Note_on_c, 1, 48, 80
3, 111839, Note_on_c, 1, 48, 0
3, 111840, Note_on_c, 1, 60, 80
3, 112079, Note_on_c, 1, 60, 0
3, 112080, Note_on_c, 1, 48, 80
3, 112319, Note_on_c, 1, 48, 0
3, 112320, Note_on_c, 1, 48, 80
3, 112559, Note_on_c, 1, 48, 0
3, 112560, Note_on_c, 1, 48, 80
3, 112799, Note_on_c, 1, 48, 0
3, 112800, Note_on_c, 1, 60, 80
3, 113039, Note_on_c, 1, 60, 0
3, 113040, Note_on_c, 1, 48, 80
3, 113279, Note_on_c, 1, 48, 0
3, 113280, Note_on_c, 1, 48, 80
3, 113519, Note_on_c, 1, 48, 0
3, 113520, Note_on_c, 1, 48, 80
3, 113759, Note_on_c, 1, 48, 0
3, 113760, Note_on_c, 1, 60, 80
3, 113999, Note_on_c, 1, 60, 0
3, 114000, Note_on_c, 1, 59, 80
3, 114239, Note_on_c, 1, 59, 0
3, 114240, Note_on_c, 1, 60, 80
3, 114479, Note_on_c, 1, 60, 0
3, 114480, Note_on_c, 1, 57, 80
3, 114719, Note_on_c, 1, 57, 0
3, 114720, Note_on_c, 1, 59, 80
3, 114959, Note_on_c, 1, 59, 0
3, 114960, Note_on_c, 1, 55, 80
3, 115199, Note_on_c, 1, 55, 0
3, 115200, Note_on_c, 1, 48, 80
3, 115439, Note_on_c, 1, 48, 0
3, 115440, Note_on_c, 1, 48, 80
3, 115679, Note_on_c, 1, 48, 0
3, 115680, Note_on_c, 1, 60, 80
3, 115919, Note_on_c, 1, 60, 0
3, 115920, Note_on_c, 1, 48, 80
3, 116159, Note_on_c, 1, 48, 0
3, 116160, Note_on_c, 1, 48, 80
3, 116399, Note_on_c, 1, 48, 0
3, 116400, Note_on_c, 1, 48, 80
3, 116639, Note_on_c, 1, 48, 0
3, 116640, Note_on_c, 1, 60, 80
3, 116879, Note_on_c, 1, 60, 0
3, 116880, Note_on_c, 1, 48, 80
3, 117119, Note_on_c, 1, 48, 0
3, 117120, Note_on_c, 1, 48, 80
3, 117359, Note_on_c, 1, 48, 0
3, 117360, Note_on_c, 1, 48, 80
3, 117599, Note_on_c, 1, 48, 0
3, 117600, Note_on_c, 1, 60, 80
3, 117839, Note_on_c, 1, 60, 0
3, 117840, Note_on_c, 1, 59, 80
3, 118079, Note_on_c, 1, 59, 0
3, 118080, Note_on_c, 1, 60, 80
3, 118319, Note_on_c, 1, 60, 0
3, 118320, Note_on_c, 1, 57, 80
3, 118559, Note_on_c, 1, 57, 0
3, 118560, Note_on_c, 1, 59, 80
3, 118799, Note_on_c, 1, 59, 0
3, 118800, Note_on_c, 1, 55, 80
3, 119039, Note_on_c, 1, 55, 0
3, 119040, Note_on_c, 1, 48, 80
3, 119279, Note_on_c, 1, 48, 0
3, 119280, Note_on_c, 1, 48, 80
3, 119519, Note_on_c, 1, 48, 0
3, 119520, Note_on_c, 1, 60, 80
3, 119759, Note_on_c, 1, 60, 0
3, 119760, Note_on_c, 1, 48, 80
3, 119999, Note_on_c, 1, 48, 0
3, 120000, Note_on_c, 1, 48, 80
3, 120239, Note_on_c, 1, 48, 0
3, 120240, Note_on_c, 1, 48, 80
3, 120479, Note_on_c, 1, 48, 0
3, 120480, Note_on_c, 1, 60, 80
3, 120719, Note_on_c, 1, 60, 0
3, 120720, Note_on_c, 1, 48, 80
3, 120959, Note_on_c, 1, 48, 0
3, 120960, Note_on_c, 1, 48, 80
3, 121199, Note_on_c, 1, 48, 0
3, 121200, Note_on_c, 1, 48, 80
3, 121439, Note_on_c, 1, 48, 0
3, 121440, Note_on_c, 1, 60, 80
3, 121679, Note_on_c, 1, 60, 0
3, 121680, Note_on_c, 1, 59, 80
3, 121919, Note_on_c, 1, 59, 0
3, 121920, Note_on_c, 1, 60, 80
3, 122159, Note_on_c, 1, 60, 0
3, 122160, Note_on_c, 1, 57, 80
3, 122399, Note_on_c, 1, 57, 0
3, 122400, Note_on_c, 1, 59, 80
3, 122639, Note_on_c, 1, 59, 0
3, 122640, Note_on_c, 1, 55, 80
3, 122879, Note_on_c, 1, 55, 0
3, 122880, Note_on_c, 1, 48, 80
3, 123119, Note_on_c, 1, 48, 0
3, 123120, Note_on_c, 1, 48, 80
3, 123359, Note_on_c, 1, 48, 0
3, 123360, Note_on_c, 1, 60, 80
3, 123599, Note_on_c, 1, 60, 0
3, 123600, Note_on_c, 1, 48, 80
3, 123839, Note_on_c, 1, 48, 0
3, 123840, Note_on_c, 1, 48, 80
3, 124079, Note_on_c, 1, 48, 0
3, 124080, Note_on_c, 1, 48, 80
3, 124319, Note_on_c, 1, 48, 0
3, 124320, Note_on_c, 1, 60, 80
3, 124559, Note_on_c, 1, 60, 0
3, 124560, Note_on_c, 1, 48, 80
3, 124799, Note_on_c, 1, 48, 0
3, 124800, Note_on_c, 1, 48, 80
3, 125039, Note_on_c, 1, 48, 0
3, 125040, Note_on_c, 1, 48, 80
3, 125279, Note_on_c, 1, 48, 0
3, 125280, Note_on_c, 1, 60, 80
3, 125519, Note_on_c, 1, 60, 0
3, 125520, Note_on_c, 1, 59, 80
3, 125759, Note_on_c, 1, 59, 0
3, 125760, Note_on_c, 1, 60, 80
3, 125999, Note_on_c, 1, 60, 0
3, 126000, Note_on_c, 1, 57, 80
3, 126239, Note_on_c, 1, 57, 0
3, 126240, Note_on_c, 1, 59, 80
3, 126479, Note_on_c, 1, 59, 0
3, 126480, Note_on_c, 1, 55, 80
3, 126719, Note_on_c, 1, 55, 0
3, 126720, Note_on_c, 1, 48, 80
3, 126959, Note_on_c, 1, 48, 0
3, 126960, Note_on_c, 1, 48, 80
3, 127199, Note_on_c, 1, 48, 0
3, 127200, Note_on_c, 1, 60, 80
3, 127439, Note_on_c, 1, 60, 0
3, 127440, Note_on_c, 1, 48, 80
3, 127679, Note_on_c, 1, 48, 0
3, 127680, Note_on_c, 1, 48, 80
3, 127919, Note_on_c, 1, 48, 0
3, 127920, Note_on_c, 1, 48, 80
3, 128159, Note_on_c, 1, 48, 0
3, 128160, Note_on_c, 1, 60, 80
3, 128399, Note_on_c, 1, 60, 0
3, 128400, Note_on_c, 1, 48, 80
3, 128639, Note_on_c, 1, 48, 0
3, 128640, Note_on_c, 1, 48, 80
3, 128879, Note_on_c, 1, 48, 0
3, 128880, Note_on_c, 1, 48, 80
3, 129119, Note_on_c, 1, 48, 0
3, 129120, Note_on_c, 1, 60, 80
3, 129359, Note_on_c, 1, 60, 0
3, 129360, Note_on_c, 1, 59, 80
3, 129599, Note_on_c, 1, 59, 0
3, 129600, Note_on_c, 1, 60, 80
3, 129839, Note_on_c, 1, 60, 0
3, 129840, Note_on_c, 1, 57, 80
3, 130079, Note_on_c, 1, 57, 0
3, 130080, Note_on_c, 1, 59, 80
3, 130319, Note_on_c, 1, 59, 0
3, 130320, Note_on_c, 1, 55, 80
3, 130559, Note_on_c, 1, 55, 0
3, 130560, Note_on_c, 1, 48, 80
3, 130799, Note_on_c, 1, 48, 0
3, 130800, Note_on_c, 1, 48, 80
3, 131039, Note_on_c, 1, 48, 0
3, 131040, Note_on_c, 1, 60, 80
3, 131279, Note_on_c, 1, 60, 0
3, 131280, Note_on_c, 1, 48, 80
3, 131519, Note_on_c, 1, 48, 0
3, 131520, Note_on_c, 1, 48, 80
3, 131759, Note_on_c, 1, 48, 0
3, 131760, Note_on_c, 1, 48, 80
3, 131999, Note_on_c, 1, 48, 0
3, 132000, Note_on_c, 1, 60, 80
3, 132239, Note_on_c, 1, 60, 0
3, 132240, Note_on_c, 1, 48, 80
3, 132479, Note_on_c, 1, 48, 0
3, 132480, Note_on_c, 1, 48, 80
3, 132719, Note_on_c, 1, 48, 0
3, 132720, Note_on_c, 1, 57, 80
3, 132959, Note_on_c, 1, 57, 0
3, 132960, Note_on_c, 1, 59, 80
3, 133199, Note_on_c, 1, 59, 0
3, 133200, Note_on_c, 1, 60, 80
3, 133439, Note_on_c, 1, 60, 0
3, 133440, Note_on_c, 1, 60, 80
3, 133679, Note_on_c, 1, 60, 0
3, 133680, Note_on_c, 1, 57, 80
3, 133919, Note_on_c, 1, 57, 0
3, 133920, Note_on_c, 1, 59, 80
3, 134159, Note_on_c, 1, 59, 0
3, 134160, Note_on_c, 1, 55, 80
3, 134399, Note_on_c, 1, 55, 0
3, 134400, Note_on_c, 1, 57, 80
3, 134639, Note_on_c, 1, 57, 0
3, 134640, Note_on_c, 1, 55, 80
3, 134879, Note_on_c, 1, 55, 0
3, 134880, Note_on_c, 1, 57, 80
3, 135599, Note_on_c, 1, 57, 0
3, 135600, Note_on_c, 1, 59, 80
3, 136079, Note_on_c, 1, 59, 0
3, 136080, Note_on_c, 1, 60, 80
3, 136559, Note_on_c, 1, 60, 0
3, 136560, Note_on_c, 1, 59, 80
3, 136799, Note_on_c, 1, 59, 0
3, 136800, Note_on_c, 1, 57, 80
3, 137039, Note_on_c, 1, 57, 0
3, 137040, Note_on_c, 1, 55, 80
3, 137519, Note_on_c, 1, 55, 0
3, 137520, Note_on_c, 1, 57, 80
3, 137759, Note_on_c, 1, 57, 0
3, 137760, Note_on_c, 1, 59, 80
3, 137999, Note_on_c, 1, 59, 0
3, 138240, Note_on_c, 1, 57, 80
3, 138479, Note_on_c, 1, 57, 0
3, 138480, Note_on_c, 1, 55, 80
3, 138719, Note_on_c, 1, 55, 0
3, 138720, Note_on_c, 1, 57, 80
3, 139199, Note_on_c, 1, 57, 0
3, 139200, Note_on_c, 1, 57, 80
3, 139439, Note_on_c, 1, 57, 0
3, 139440, Note_on_c, 1, 57, 80
3, 139679, Note_on_c, 1, 57, 0
3, 139680, Note_on_c, 1, 59, 80
3, 139919, Note_on_c, 1, 59, 0
3, 139920, Note_on_c, 1, 53, 80
3, 140399, Note_on_c, 1, 53, 0
3, 140640, Note_on_c, 1, 53, 80
3, 141119, Note_on_c, 1, 53, 0
3, 141120, Note_on_c, 1, 60, 80
3, 141359, Note_on_c, 1, 60, 0
3, 141360, Note_on_c, 1, 60, 80
3, 141599, Note_on_c, 1, 60, 0
3, 141600, Note_on_c, 1, 64, 80
3, 141839, Note_on_c, 1, 64, 0
3, 141840, Note_on_c, 1, 62, 80
3, 142079, Note_on_c, 1, 62, 0
3, 142080, Note_on_c, 1, 60, 80
3, 142559, Note_on_c, 1, 60, 0
3, 142560, Note_on_c, 1, 72, 80
3, 143039, Note_on_c, 1, 72, 0
3, 143040, Note_on_c, 1, 60, 80
3, 143279, Note_on_c, 1, 60, 0
3, 143280, Note_on_c, 1, 59, 80
3, 143519, Note_on_c, 1, 59, 0
3, 143520, Note_on_c, 1, 57, 80
3, 143759, Note_on_c, 1, 57, 0
3, 143760, Note_on_c, 1, 55, 80
3, 144239, Note_on_c, 1, 55, 0
3, 144240, Note_on_c, 1, 55, 80
3, 144479, Note_on_c, 1, 55, 0
3, 144480, Note_on_c, 1, 67, 80
3, 144719, Note_on_c, 1, 67, 0
3, 144720, Note_on_c, 1, 55, 80
3, 144959, Note_on_c, 1, 55, 0
3, 144960, Note_on_c, 1, 55, 80
3, 145199, Note_on_c, 1, 55, 0
3, 145200, Note_on_c, 1, 55, 80
3, 145439, Note_on_c, 1, 55, 0
3, 145440, Note_on_c, 1, 67, 80
3, 145679, Note_on_c, 1, 67, 0
3, 145680, Note_on_c, 1, 55, 80
3, 145919, Note_on_c, 1, 55, 0
3, 145920, Note_on_c, 1, 57, 80
3, 146159, Note_on_c, 1, 57, 0
3, 146160, Note_on_c, 1, 57, 80
3, 146399, Note_on_c, 1, 57, 0
3, 146400, Note_on_c, 1, 69, 80
3, 146639, Note_on_c, 1, 69, 0
3, 146640, Note_on_c, 1, 57, 80
3, 146879, Note_on_c, 1, 57, 0
3, 146880, Note_on_c, 1, 57, 80
3, 147119, Note_on_c, 1, 57, 0
3, 147120, Note_on_c, 1, 57, 80
3, 147359, Note_on_c, 1, 57, 0
3, 147360, Note_on_c, 1, 69, 80
3, 147599, Note_on_c, 1, 69, 0
3, 147600, Note_on_c, 1, 57, 80
3, 147839, Note_on_c, 1, 57, 0
3, 147840, Note_on_c, 1, 69, 80
3, 148079, Note_on_c, 1, 69, 0
3, 148080, Note_on_c, 1, 57, 80
3, 148319, Note_on_c, 1, 57, 0
3, 148320, Note_on_c, 1, 69, 80
3, 148559, Note_on_c, 1, 69, 0
3, 148560, Note_on_c, 1, 57, 80
3, 148799, Note_on_c, 1, 57, 0
3, 148800, Note_on_c, 1, 69, 80
3, 149039, Note_on_c, 1, 69, 0
3, 149040, Note_on_c, 1, 57, 80
3, 149279, Note_on_c, 1, 57, 0
3, 149280, Note_on_c, 1, 60, 80
3, 149519, Note_on_c, 1, 60, 0
3, 149520, Note_on_c, 1, 60, 80
3, 149759, Note_on_c, 1, 60, 0
3, 149760, Note_on_c, 1, 72, 80
3, 149999, Note_on_c, 1, 72, 0
3, 150000, Note_on_c, 1, 60, 80
3, 150239, Note_on_c, 1, 60, 0
3, 150240, Note_on_c, 1, 60, 80
3, 150479, Note_on_c, 1, 60, 0
3, 150480, Note_on_c, 1, 59, 80
3, 150719, Note_on_c, 1, 59, 0
3, 150720, Note_on_c, 1, 57, 80
3, 150959, Note_on_c, 1, 57, 0
3, 150960, Note_on_c, 1, 55, 80
3, 151439, Note_on_c, 1, 55, 0
3, 151440, Note_on_c, 1, 55, 80
3, 151679, Note_on_c, 1, 55, 0
3, 151680, Note_on_c, 1, 67, 80
3, 151919, Note_on_c, 1, 67, 0
3, 151920, Note_on_c, 1, 55, 80
3, 152159, Note_on_c, 1, 55, 0
3, 152160, Note_on_c, 1, 55, 80
3, 152399, Note_on_c, 1, 55, 0
3, 152400, Note_on_c, 1, 55, 80
3, 152639, Note_on_c, 1, 55, 0
3, 152640, Note_on_c, 1, 67, 80
3, 152879, Note_on_c, 1, 67, 0
3, 152880, Note_on_c, 1, 55, 80
3, 153119, Note_on_c, 1, 55, 0
3, 153120, Note_on_c, 1, 57, 80
3, 153359, Note_on_c, 1, 57, 0
3, 153360, Note_on_c, 1, 55, 80
3, 153599, Note_on_c, 1, 55, 0
3, 153600, Note_on_c, 1, 57, 80
3, 154079, Note_on_c, 1, 57, 0
3, 154320, Note_on_c, 1, 57, 80
3, 154559, Note_on_c, 1, 57, 0
3, 154560, Note_on_c, 1, 59, 80
3, 154799, Note_on_c, 1, 59, 0
3, 154800, Note_on_c, 1, 60, 80
3, 155279, Note_on_c, 1, 60, 0
3, 155280, Note_on_c, 1, 59, 80
3, 155519, Note_on_c, 1, 59, 0
3, 155520, Note_on_c, 1, 57, 80
3, 155759, Note_on_c, 1, 57, 0
3, 155760, Note_on_c, 1, 55, 80
3, 156239, Note_on_c, 1, 55, 0
3, 156240, Note_on_c, 1, 57, 80
3, 156479, Note_on_c, 1, 57, 0
3, 156480, Note_on_c, 1, 59, 80
3, 156959, Note_on_c, 1, 59, 0
3, 156960, Note_on_c, 1, 57, 80
3, 157199, Note_on_c, 1, 57, 0
3, 157200, Note_on_c, 1, 55, 80
3, 157439, Note_on_c, 1, 55, 0
3, 157440, Note_on_c, 1, 57, 80
3, 157919, Note_on_c, 1, 57, 0
3, 158160, Note_on_c, 1, 57, 80
3, 158399, Note_on_c, 1, 57, 0
3, 158400, Note_on_c, 1, 59, 80
3, 158639, Note_on_c, 1, 59, 0
3, 158640, Note_on_c, 1, 53, 80
3, 159119, Note_on_c, 1, 53, 0
3, 159120, Note_on_c, 1, 53, 80
3, 159359, Note_on_c, 1, 53, 0
3, 159360, Note_on_c, 1, 53, 80
3, 159599, Note_on_c, 1, 53, 0
3, 159600, Note_on_c, 1, 55, 80
3, 160079, Note_on_c, 1, 55, 0
3, 160080, Note_on_c, 1, 55, 80
3, 160319, Note_on_c, 1, 55, 0
3, 160320, Note_on_c, 1, 67, 80
3, 160439, Note_on_c, 1, 67, 0
3, 160440, Note_on_c, 1, 62, 80
3, 160559, Note_on_c, 1, 62, 0
3, 160560, Note_on_c, 1, 55, 80
3, 160799, Note_on_c, 1, 55, 0
3, 160800, Note_on_c, 1, 57, 80
3, 161039, Note_on_c, 1, 57, 0
3, 161040, Note_on_c, 1, 57, 80
3, 161279, Note_on_c, 1, 57, 0
3, 162720, Note_on_c, 1, 60, 80
3, 162959, Note_on_c, 1, 60, 0
3, 162960, Note_on_c, 1, 60, 80
3, 163199, Note_on_c, 1, 60, 0
3, 163680, Note_on_c, 1, 55, 80
3, 163919, Note_on_c, 1, 55, 0
3, 163920, Note_on_c, 1, 55, 80
3, 164159, Note_on_c, 1, 55, 0
3, 164640, Note_on_c, 1, 57, 80
3, 164879, Note_on_c, 1, 57, 0
3, 164880, Note_on_c, 1, 57, 80
3, 165119, Note_on_c, 1, 57, 0
3, 166560, Note_on_c, 1, 53, 80
3, 166799, Note_on_c, 1, 53, 0
3, 166800, Note_on_c, 1, 53, 80
3, 167039, Note_on_c, 1, 53, 0
3, 167520, Note_on_c, 1, 55, 80
3, 167759, Note_on_c, 1, 55, 0
3, 167760, Note_on_c, 1, 55, 80
3, 167999, Note_on_c, 1, 55, 0
3, 168480, Note_on_c, 1, 57, 80
3, 168719, Note_on_c, 1, 57, 0
3, 168720, Note_on_c, 1, 57, 80
3, 168959, Note_on_c, 1, 57, 0
3, 170400, Note_on_c, 1, 60, 80
3, 170639, Note_on_c, 1, 60, 0
3, 170640, Note_on_c, 1, 60, 80
3, 170879, Note_on_c, 1, 60, 0
3, 171360, Note_on_c, 1, 55, 80
3, 171599, Note_on_c, 1, 55, 0
3, 171600, Note_on_c, 1, 55, 80
3, 171839, Note_on_c, 1, 55, 0
3, 172320, Note_on_c, 1, 57, 80
3, 172559, Note_on_c, 1, 57, 0
3, 172560, Note_on_c, 1, 57, 80
3, 172799, Note_on_c, 1, 57, 0
3, 174240, Note_on_c, 1, 53, 80
3, 174479, Note_on_c, 1, 53, 0
3, 174480, Note_on_c, 1, 53, 80
3, 174719, Note_on_c, 1, 53, 0
3, 174720, Note_on_c, 1, 53, 80
3, 174959, Note_on_c, 1, 53, 0
3, 174960, Note_on_c, 1, 53, 80
3, 175199, Note_on_c, 1, 53, 0
3, 175200, Note_on_c, 1, 55, 80
3, 175439, Note_on_c, 1, 55, 0
3, 175440, Note_on_c, 1, 55, 80
3, 175679, Note_on_c, 1, 55, 0
3, 175680, Note_on_c, 1, 55, 80
3, 175919, Note_on_c, 1, 55, 0
3, 175920, Note_on_c, 1, 55, 80
3, 176159, Note_on_c, 1, 55, 0
3, 176160, Note_on_c, 1, 57, 80
3, 176399, Note_on_c, 1, 57, 0
3, 176400, Note_on_c, 1, 57, 80
3, 176639, Note_on_c, 1, 57, 0
3, 176640, Note_on_c, 1, 57, 80
3, 176879, Note_on_c, 1, 57, 0
3, 176880, Note_on_c, 1, 57, 80
3, 177119, Note_on_c, 1, 57, 0
3, 177120, Note_on_c, 1, 57, 80
3, 177359, Note_on_c, 1, 57, 0
3, 177360, Note_on_c, 1, 57, 80
3, 177599, Note_on_c, 1, 57, 0
3, 177600, Note_on_c, 1, 55, 80
3, 177839, Note_on_c, 1, 55, 0
3, 177840, Note_on_c, 1, 55, 80
3, 178079, Note_on_c, 1, 55, 0
3, 178080, Note_on_c, 1, 53, 80
3, 178319, Note_on_c, 1, 53, 0
3, 178320, Note_on_c, 1, 53, 80
3, 178559, Note_on_c, 1, 53, 0
3, 178560, Note_on_c, 1, 53, 80
3, 178799, Note_on_c, 1, 53, 0
3, 178800, Note_on_c, 1, 53, 80
3, 179039, Note_on_c, 1, 53, 0
3, 179040, Note_on_c, 1, 53, 80
3, 179279, Note_on_c, 1, 53, 0
3, 179280, Note_on_c, 1, 53, 80
3, 179519, Note_on_c, 1, 53, 0
3, 179520, Note_on_c, 1, 52, 80
3, 179759, Note_on_c, 1, 52, 0
3, 179760, Note_on_c, 1, 52, 80
3, 179999, Note_on_c, 1, 52, 0
3, 180000, Note_on_c, 1, 62, 80
3, 180239, Note_on_c, 1, 62, 0
3, 180240, Note_on_c, 1, 50, 80
3, 180479, Note_on_c, 1, 50, 0
3, 180480, Note_on_c, 1, 62, 80
3, 180719, Note_on_c, 1, 62, 0
3, 180720, Note_on_c, 1, 50, 80
3, 180959, Note_on_c, 1, 50, 0
3, 180960, Note_on_c, 1, 60, 80
3, 181199, Note_on_c, 1, 60, 0
3, 181200, Note_on_c, 1, 48, 80
3, 181439, Note_on_c, 1, 48, 0
3, 181440, Note_on_c, 1, 59, 80
3, 181679, Note_on_c, 1, 59, 0
3, 181680, Note_on_c, 1, 59, 80
3, 181919, Note_on_c, 1, 59, 0
3, 181920, Note_on_c, 1, 57, 80
3, 182399, Note_on_c, 1, 57, 0
3, 182400, Note_on_c, 1, 69, 80
3, 182639, Note_on_c, 1, 69, 0
3, 182640, Note_on_c, 1, 57, 80
3, 183599, Note_on_c, 1, 57, 0
3, 183840, Note_on_c, 1, 57, 80
3, 184079, Note_on_c, 1, 57, 0
3, 184080, Note_on_c, 1, 57, 80
3, 184799, Note_on_c, 1, 57, 0
3, 184800, Note_on_c, 1, 57, 80
3, 185759, Note_on_c, 1, 57, 0
3, 185760, Note_on_c, 1, 53, 80
3, 185999, Note_on_c, 1, 53, 0
3, 186000, Note_on_c, 1, 53, 80
3, 186719, Note_on_c, 1, 53, 0
3, 186720, Note_on_c, 1, 53, 80
3, 187199, Note_on_c, 1, 53, 0
3, 187200, Note_on_c, 1, 52, 80
3, 187679, Note_on_c, 1, 52, 0
3, 187680, Note_on_c, 1, 62, 80
3, 188159, Note_on_c, 1, 62, 0
3, 188160, Note_on_c, 1, 62, 80
3, 188639, Note_on_c, 1, 62, 0
3, 188640, Note_on_c, 1, 60, 80
3, 189119, Note_on_c, 1, 60, 0
3, 189120, Note_on_c, 1, 59, 80
3, 189599, Note_on_c, 1, 59, 0
3, 189600, Note_on_c, 1, 57, 80
3, 190079, Note_on_c, 1, 57, 0
3, 190080, Note_on_c, 1, 69, 80
3, 190319, Note_on_c, 1, 69, 0
3, 190320, Note_on_c, 1, 57, 80
3, 190799, Note_on_c, 1, 57, 0
3, 190800, Note_on_c, 1, 69, 80
3, 191039, Note_on_c, 1, 69, 0
3, 191040, Note_on_c, 1, 57, 80
3, 191279, Note_on_c, 1, 57, 0
3, 191280, Note_on_c, 1, 57, 80
3, 191519, Note_on_c, 1, 57, 0
3, 191520, Note_on_c, 1, 57, 80
3, 191759, Note_on_c, 1, 57, 0
3, 191760, Note_on_c, 1, 57, 80
3, 191999, Note_on_c, 1, 57, 0
3, 192000, Note_on_c, 1, 57, 80
3, 192239, Note_on_c, 1, 57, 0
3, 192240, Note_on_c, 1, 57, 80
3, 192479, Note_on_c, 1, 57, 0
3, 192480, Note_on_c, 1, 55, 80
3, 192719, Note_on_c, 1, 55, 0
3, 192720, Note_on_c, 1, 55, 80
3, 192959, Note_on_c, 1, 55, 0
3, 192960, Note_on_c, 1, 53, 80
3, 193199, Note_on_c, 1, 53, 0
3, 193200, Note_on_c, 1, 53, 80
3, 193439, Note_on_c, 1, 53, 0
3, 193440, Note_on_c, 1, 53, 80
3, 193679, Note_on_c, 1, 53, 0
3, 193680, Note_on_c, 1, 53, 80
3, 193919, Note_on_c, 1, 53, 0
3, 193920, Note_on_c, 1, 53, 80
3, 194159, Note_on_c, 1, 53, 0
3, 194160, Note_on_c, 1, 53, 80
3, 194399, Note_on_c, 1, 53, 0
3, 194400, Note_on_c, 1, 52, 80
3, 194639, Note_on_c, 1, 52, 0
3, 194640, Note_on_c, 1, 52, 80
3, 194879, Note_on_c, 1, 52, 0
3, 194880, Note_on_c, 1, 62, 80
3, 195119, Note_on_c, 1, 62, 0
3, 195120, Note_on_c, 1, 62, 80
3, 195359, Note_on_c, 1, 62, 0
3, 195360, Note_on_c, 1, 62, 80
3, 195599, Note_on_c, 1, 62, 0
3, 195600, Note_on_c, 1, 62, 80
3, 195839, Note_on_c, 1, 62, 0
3, 195840, Note_on_c, 1, 60, 80
3, 196079, Note_on_c, 1, 60, 0
3, 196080, Note_on_c, 1, 60, 80
3, 196319, Note_on_c, 1, 60, 0
3, 196320, Note_on_c, 1, 59, 80
3, 196559, Note_on_c, 1, 59, 0
3, 196560, Note_on_c, 1, 59, 80
3, 196799, Note_on_c, 1, 59, 0
3, 196800, Note_on_c, 1, 57, 80
3, 197279, Note_on_c, 1, 57, 0
3, 197280, Note_on_c, 1, 69, 80
3, 197519, Note_on_c, 1, 69, 0
3, 197520, Note_on_c, 1, 57, 80
3, 197999, Note_on_c, 1, 57, 0
3, 198000, Note_on_c, 1, 57, 80
3, 198239, Note_on_c, 1, 57, 0
3, 198240, Note_on_c, 1, 69, 80
3, 198479, Note_on_c, 1, 69, 0
3, 198480, Note_on_c, 1, 57, 80
3, 198719, Note_on_c, 1, 57, 0
3, 198720, Note_on_c, 1, 57, 80
3, 198959, Note_on_c, 1, 57, 0
3, 198960, Note_on_c, 1, 57, 80
3, 199199, Note_on_c, 1, 57, 0
3, 199200, Note_on_c, 1, 57, 80
3, 199439, Note_on_c, 1, 57, 0
3, 199440, Note_on_c, 1, 57, 80
3, 199679, Note_on_c, 1, 57, 0
3, 199680, Note_on_c, 1, 57, 80
3, 200159, Note_on_c, 1, 57, 0
3, 200160, Note_on_c, 1, 55, 80
3, 200399, Note_on_c, 1, 55, 0
3, 200400, Note_on_c, 1, 55, 80
3, 200639, Note_on_c, 1, 55, 0
3, 200640, Note_on_c, 1, 53, 80
3, 200879, Note_on_c, 1, 53, 0
3, 200880, Note_on_c, 1, 53, 80
3, 201119, Note_on_c, 1, 53, 0
3, 201120, Note_on_c, 1, 53, 80
3, 201359, Note_on_c, 1, 53, 0
3, 201360, Note_on_c, 1, 53, 80
3, 201599, Note_on_c, 1, 53, 0
3, 201600, Note_on_c, 1, 53, 80
3, 202079, Note_on_c, 1, 53, 0
3, 202080, Note_on_c, 1, 52, 80
3, 202319, Note_on_c, 1, 52, 0
3, 202320, Note_on_c, 1, 52, 80
3, 202559, Note_on_c, 1, 52, 0
3, 202560, Note_on_c, 1, 62, 80
3, 202799, Note_on_c, 1, 62, 0
3, 202800, Note_on_c, 1, 62, 80
3, 203039, Note_on_c, 1, 62, 0
3, 203040, Note_on_c, 1, 62, 80
3, 203279, Note_on_c, 1, 62, 0
3, 203280, Note_on_c, 1, 62, 80
3, 203519, Note_on_c, 1, 62, 0
3, 203520, Note_on_c, 1, 60, 80
3, 203759, Note_on_c, 1, 60, 0
3, 203760, Note_on_c, 1, 60, 80
3, 203999, Note_on_c, 1, 60, 0
3, 204000, Note_on_c, 1, 59, 80
3, 204239, Note_on_c, 1, 59, 0
3, 204240, Note_on_c, 1, 59, 80
3, 204479, Note_on_c, 1, 59, 0
3, 204480, Note_on_c, 1, 57, 80
3, 204719, Note_on_c, 1, 57, 0
3, 204720, Note_on_c, 1, 57, 80
3, 204959, Note_on_c, 1, 57, 0
3, 204960, Note_on_c, 1, 57, 80
3, 205199, Note_on_c, 1, 57, 0
3, 205200, Note_on_c, 1, 57, 80
3, 205439, Note_on_c, 1, 57, 0
3, 205440, Note_on_c, 1, 57, 80
3, 205679, Note_on_c, 1, 57, 0
3, 205680, Note_on_c, 1, 57, 80
3, 205919, Note_on_c, 1, 57, 0
3, 205920, Note_on_c, 1, 55, 80
3, 206159, Note_on_c, 1, 55, 0
3, 206160, Note_on_c, 1, 55, 80
3, 206399, Note_on_c, 1, 55, 0
3, 206400, Note_on_c, 1, 57, 80
3, 206639, Note_on_c, 1, 57, 0
3, 206640, Note_on_c, 1, 57, 80
3, 206879, Note_on_c, 1, 57, 0
3, 208320, Note_on_c, 1, 60, 80
3, 208559, Note_on_c, 1, 60, 0
3, 208560, Note_on_c, 1, 60, 80
3, 208799, Note_on_c, 1, 60, 0
3, 209280, Note_on_c, 1, 55, 80
3, 209519, Note_on_c, 1, 55, 0
3, 209520, Note_on_c, 1, 55, 80
3, 209759, Note_on_c, 1, 55, 0
3, 210240, Note_on_c, 1, 57, 80
3, 210479, Note_on_c, 1, 57, 0
3, 210480, Note_on_c, 1, 57, 80
3, 210719, Note_on_c, 1, 57, 0
3, 212160, Note_on_c, 1, 65, 80
3, 212399, Note_on_c, 1, 65, 0
3, 212400, Note_on_c, 1, 65, 80
3, 212639, Note_on_c, 1, 65, 0
3, 213120, Note_on_c, 1, 55, 80
3, 213359, Note_on_c, 1, 55, 0
3, 213360, Note_on_c, 1, 55, 80
3, 213599, Note_on_c, 1, 55, 0
3, 214080, Note_on_c, 1, 57, 80
3, 214319, Note_on_c, 1, 57, 0
3, 214320, Note_on_c, 1, 57, 80
3, 214559, Note_on_c, 1, 57, 0
3, 216000, Note_on_c, 1, 60, 80
3, 216239, Note_on_c, 1, 60, 0
3, 216240, Note_on_c, 1, 60, 80
3, 216479, Note_on_c, 1, 60, 0
3, 216960, Note_on_c, 1, 55, 80
3, 217199, Note_on_c, 1, 55, 0
3, 217200, Note_on_c, 1, 55, 80
3, 217439, Note_on_c, 1, 55, 0
3, 217920, Note_on_c, 1, 57, 80
3, 218159, Note_on_c, 1, 57, 0
3, 218160, Note_on_c, 1, 57, 80
3, 218399, Note_on_c, 1, 57, 0
3, 219840, Note_on_c, 1, 53, 80
3, 220079, Note_on_c, 1, 53, 0
3, 220080, Note_on_c, 1, 53, 80
3, 220319, Note_on_c, 1, 53, 0
3, 220320, Note_on_c, 1, 53, 80
3, 220559, Note_on_c, 1, 53, 0
3, 220560, Note_on_c, 1, 53, 80
3, 220799, Note_on_c, 1, 53, 0
3, 220800, Note_on_c, 1, 55, 80
3, 221039, Note_on_c, 1, 55, 0
3, 221040, Note_on_c, 1, 55, 80
3, 221279, Note_on_c, 1, 55, 0
3, 221280, Note_on_c, 1, 55, 80
3, 221519, Note_on_c, 1, 55, 0
3, 221520, Note_on_c, 1, 55, 80
3, 221759, Note_on_c, 1, 55, 0
3, 221760, Note_on_c, 1, 57, 80
3, 221999, Note_on_c, 1, 57, 0
3, 222000, Note_on_c, 1, 57, 80
3, 222719, Note_on_c, 1, 57, 0
3, 223680, Note_on_c, 1, 60, 80
3, 223919, Note_on_c, 1, 60, 0
3, 223920, Note_on_c, 1, 60, 80
3, 224159, Note_on_c, 1, 60, 0
3, 224160, Note_on_c, 1, 60, 80
3, 224399, Note_on_c, 1, 60, 0
3, 224400, Note_on_c, 1, 59, 80
3, 224639, Note_on_c, 1, 59, 0
3, 224640, Note_on_c, 1, 55, 80
3, 224879, Note_on_c, 1, 55, 0
3, 224880, Note_on_c, 1, 55, 80
3, 225119, Note_on_c, 1, 55, 0
3, 225120, Note_on_c, 1, 57, 80
3, 225359, Note_on_c, 1, 57, 0
3, 225360, Note_on_c, 1, 55, 80
3, 225599, Note_on_c, 1, 55, 0
3, 225600, Note_on_c, 1, 57, 80
3, 225839, Note_on_c, 1, 57, 0
3, 225840, Note_on_c, 1, 57, 80
3, 226559, Note_on_c, 1, 57, 0
3, 227520, Note_on_c, 1, 57, 80
3, 227759, Note_on_c, 1, 57, 0
3, 227760, Note_on_c, 1, 57, 80
3, 228479, Note_on_c, 1, 57, 0
3, 228480, Note_on_c, 1, 55, 80
3, 228719, Note_on_c, 1, 55, 0
3, 228720, Note_on_c, 1, 55, 80
3, 229439, Note_on_c, 1, 55, 0
3, 229440, Note_on_c, 1, 57, 80
3, 229679, Note_on_c, 1, 57, 0
3, 229680, Note_on_c, 1, 57, 80
3, 230399, Note_on_c, 1, 57, 0
3, 231360, Note_on_c, 1, 60, 80
3, 231599, Note_on_c, 1, 60, 0
3, 231600, Note_on_c, 1, 60, 80
3, 231839, Note_on_c, 1, 60, 0
3, 231840, Note_on_c, 1, 60, 80
3, 232079, Note_on_c, 1, 60, 0
3, 232080, Note_on_c, 1, 59, 80
3, 232319, Note_on_c, 1, 59, 0
3, 232320, Note_on_c, 1, 55, 80
3, 232559, Note_on_c, 1, 55, 0
3, 232560, Note_on_c, 1, 55, 80
3, 232799, Note_on_c, 1, 55, 0
3, 232800, Note_on_c, 1, 57, 80
3, 233039, Note_on_c, 1, 57, 0
3, 233040, Note_on_c, 1, 55, 80
3, 233279, Note_on_c, 1, 55, 0
3, 233280, Note_on_c, 1, 57, 80
3, 233519, Note_on_c, 1, 57, 0
3, 233520, Note_on_c, 1, 57, 80
3, 234239, Note_on_c, 1, 57, 0
3, 235200, Note_on_c, 1, 57, 80
3, 235439, Note_on_c, 1, 57, 0
3, 235440, Note_on_c, 1, 57, 80
3, 236159, Note_on_c, 1, 57, 0
3, 236160, Note_on_c, 1, 55, 80
3, 236399, Note_on_c, 1, 55, 0
3, 236400, Note_on_c, 1, 55, 80
3, 237119, Note_on_c, 1, 55, 0
3, 237120, Note_on_c, 1, 57, 80
3, 237359, Note_on_c, 1, 57, 0
3, 237360, Note_on_c, 1, 57, 80
3, 238079, Note_on_c, 1, 57, 0
3, 239040, Note_on_c, 1, 60, 80
3, 239279, Note_on_c, 1, 60, 0
3, 239280, Note_on_c, 1, 60, 80
3, 239999, Note_on_c, 1, 60, 0
3, 240000, Note_on_c, 1, 55, 80
3, 240239, Note_on_c, 1, 55, 0
3, 240240, Note_on_c, 1, 55, 80
3, 240959, Note_on_c, 1, 55, 0
3, 240960, Note_on_c, 1, 57, 80
3, 241199, Note_on_c, 1, 57, 0
3, 241200, Note_on_c, 1, 57, 80
3, 241919, Note_on_c, 1, 57, 0
3, 242880, Note_on_c, 1, 57, 80
3, 243119, Note_on_c, 1, 57, 0
3, 243120, Note_on_c, 1, 57, 80
3, 243839, Note_on_c, 1, 57, 0
3, 243840, Note_on_c, 1, 55, 80
3, 244079, Note_on_c, 1, 55, 0
3, 244080, Note_on_c, 1, 55, 80
3, 244799, Note_on_c, 1, 55, 0
3, 244800, Note_on_c, 1, 57, 80
3, 245039, Note_on_c, 1, 57, 0
3, 245040, Note_on_c, 1, 57, 80
3, 245759, Note_on_c, 1, 57, 0
3, 245760, End_track
4, 0, Start_track
4, 0, Title_t, "Bell\000"
4, 0, Key_signature, 0, "major"
4, 0, Control_c, 7, 121, 0
4, 0, Program_c, 7, 14
4, 0, Control_c, 7, 7, 100
4, 0, Control_c, 7, 10, 64
4, 0, Control_c, 7, 91, 0
4, 0, Control_c, 7, 93, 0
4, 0, MIDI_port, 0
4, 1, End_track
5, 0, Start_track
5, 0, Title_t, "Classical Guitar, Lute\000"
5, 0, Key_signature, 0, "major"
5, 0, Control_c, 3, 121, 0
5, 0, Program_c, 3, 24
5, 0, Control_c, 3, 7, 100
5, 0, Control_c, 3, 10, 64
5, 0, Control_c, 3, 91, 0
5, 0, Control_c, 3, 93, 0
5, 0, MIDI_port, 0
5, 0, Control_c, 6, 121, 0
5, 0, Program_c, 6, 28
5, 0, Control_c, 6, 7, 100
5, 0, Control_c, 6, 10, 64
5, 0, Control_c, 6, 91, 0
5, 0, Control_c, 6, 93, 0
5, 0, MIDI_port, 0
5, 15360, Note_on_c, 3, 57, 80
5, 15599, Note_on_c, 3, 57, 0
5, 15600, Note_on_c, 3, 57, 80
5, 15839, Note_on_c, 3, 57, 0
5, 15840, Note_on_c, 3, 64, 80
5, 16079, Note_on_c, 3, 64, 0
5, 16080, Note_on_c, 3, 57, 80
5, 16319, Note_on_c, 3, 57, 0
5, 16320, Note_on_c, 3, 65, 80
5, 16559, Note_on_c, 3, 65, 0
5, 16560, Note_on_c, 3, 57, 80
5, 16799, Note_on_c, 3, 57, 0
5, 16800, Note_on_c, 3, 64, 80
5, 17039, Note_on_c, 3, 64, 0
5, 17040, Note_on_c, 3, 57, 80
5, 17279, Note_on_c, 3, 57, 0
5, 17280, Note_on_c, 3, 62, 80
5, 17519, Note_on_c, 3, 62, 0
5, 17520, Note_on_c, 3, 60, 80
5, 17759, Note_on_c, 3, 60, 0
5, 17760, Note_on_c, 3, 59, 80
5, 17999, Note_on_c, 3, 59, 0
5, 18000, Note_on_c, 3, 60, 80
5, 18239, Note_on_c, 3, 60, 0
5, 18240, Note_on_c, 3, 62, 80
5, 18479, Note_on_c, 3, 62, 0
5, 18480, Note_on_c, 3, 60, 80
5, 18719, Note_on_c, 3, 60, 0
5, 18720, Note_on_c, 3, 59, 80
5, 18959, Note_on_c, 3, 59, 0
5, 18960, Note_on_c, 3, 55, 80
5, 19199, Note_on_c, 3, 55, 0
5, 19200, Note_on_c, 3, 57, 80
5, 19439, Note_on_c, 3, 57, 0
5, 19440, Note_on_c, 3, 57, 80
5, 19679, Note_on_c, 3, 57, 0
5, 19680, Note_on_c, 3, 64, 80
5, 19919, Note_on_c, 3, 64, 0
5, 19920, Note_on_c, 3, 57, 80
5, 20159, Note_on_c, 3, 57, 0
5, 20160, Note_on_c, 3, 65, 80
5, 20399, Note_on_c, 3, 65, 0
5, 20400, Note_on_c, 3, 57, 80
5, 20639, Note_on_c, 3, 57, 0
5, 20640, Note_on_c, 3, 64, 80
5, 20879, Note_on_c, 3, 64, 0
5, 20880, Note_on_c, 3, 57, 80
5, 21119, Note_on_c, 3, 57, 0
5, 21120, Note_on_c, 3, 62, 80
5, 21359, Note_on_c, 3, 62, 0
5, 21360, Note_on_c, 3, 60, 80
5, 21599, Note_on_c, 3, 60, 0
5, 21600, Note_on_c, 3, 59, 80
5, 21839, Note_on_c, 3, 59, 0
5, 21840, Note_on_c, 3, 60, 80
5, 22079, Note_on_c, 3, 60, 0
5, 22080, Note_on_c, 3, 62, 80
5, 22319, Note_on_c, 3, 62, 0
5, 22320, Note_on_c, 3, 60, 80
5, 22559, Note_on_c, 3, 60, 0
5, 22560, Note_on_c, 3, 59, 80
5, 22799, Note_on_c, 3, 59, 0
5, 22800, Note_on_c, 3, 55, 80
5, 23039, Note_on_c, 3, 55, 0
5, 23040, Note_on_c, 3, 57, 80
5, 23279, Note_on_c, 3, 57, 0
5, 23280, Note_on_c, 3, 57, 80
5, 23519, Note_on_c, 3, 57, 0
5, 23520, Note_on_c, 3, 64, 80
5, 23759, Note_on_c, 3, 64, 0
5, 23760, Note_on_c, 3, 57, 80
5, 23999, Note_on_c, 3, 57, 0
5, 24000, Note_on_c, 3, 65, 80
5, 24239, Note_on_c, 3, 65, 0
5, 24240, Note_on_c, 3, 57, 80
5, 24479, Note_on_c, 3, 57, 0
5, 24480, Note_on_c, 3, 64, 80
5, 24719, Note_on_c, 3, 64, 0
5, 24720, Note_on_c, 3, 57, 80
5, 24959, Note_on_c, 3, 57, 0
5, 24960, Note_on_c, 3, 62, 80
5, 25199, Note_on_c, 3, 62, 0
5, 25200, Note_on_c, 3, 60, 80
5, 25439, Note_on_c, 3, 60, 0
5, 25440, Note_on_c, 3, 59, 80
5, 25679, Note_on_c, 3, 59, 0
5, 25680, Note_on_c, 3, 60, 80
5, 25919, Note_on_c, 3, 60, 0
5, 25920, Note_on_c, 3, 62, 80
5, 26159, Note_on_c, 3, 62, 0
5, 26160, Note_on_c, 3, 60, 80
5, 26399, Note_on_c, 3, 60, 0
5, 26400, Note_on_c, 3, 59, 80
5, 26639, Note_on_c, 3, 59, 0
5, 26640, Note_on_c, 3, 55, 80
5, 26879, Note_on_c, 3, 55, 0
5, 26880, Note_on_c, 3, 57, 80
5, 27119, Note_on_c, 3, 57, 0
5, 27120, Note_on_c, 3, 57, 80
5, 27359, Note_on_c, 3, 57, 0
5, 27360, Note_on_c, 3, 64, 80
5, 27599, Note_on_c, 3, 64, 0
5, 27600, Note_on_c, 3, 57, 80
5, 27839, Note_on_c, 3, 57, 0
5, 27840, Note_on_c, 3, 65, 80
5, 28079, Note_on_c, 3, 65, 0
5, 28080, Note_on_c, 3, 57, 80
5, 28319, Note_on_c, 3, 57, 0
5, 28320, Note_on_c, 3, 64, 80
5, 28559, Note_on_c, 3, 64, 0
5, 28560, Note_on_c, 3, 57, 80
5, 28799, Note_on_c, 3, 57, 0
5, 28800, Note_on_c, 3, 57, 80
5, 28800, Note_on_c, 3, 60, 80
5, 28800, Note_on_c, 3, 65, 80
5, 29759, Note_on_c, 3, 57, 0
5, 29759, Note_on_c, 3, 60, 0
5, 29759, Note_on_c, 3, 65, 0
5, 29760, Note_on_c, 3, 59, 80
5, 29760, Note_on_c, 3, 62, 80
5, 29760, Note_on_c, 3, 67, 80
5, 30719, Note_on_c, 3, 59, 0
5, 30719, Note_on_c, 3, 62, 0
5, 30719, Note_on_c, 3, 67, 0
5, 30720, Note_on_c, 3, 48, 80
5, 30959, Note_on_c, 3, 48, 0
5, 30960, Note_on_c, 3, 48, 80
5, 31079, Note_on_c, 3, 48, 0
5, 31080, Note_on_c, 3, 48, 80
5, 31199, Note_on_c, 3, 48, 0
5, 31200, Note_on_c, 3, 60, 80
5, 31200, Note_on_c, 3, 64, 80
5, 31439, Note_on_c, 3, 60, 0
5, 31439, Note_on_c, 3, 64, 0
5, 31440, Note_on_c, 3, 48, 80
5, 31559, Note_on_c, 3, 48, 0
5, 31560, Note_on_c, 3, 48, 80
5, 31679, Note_on_c, 3, 48, 0
5, 31680, Note_on_c, 3, 48, 80
5, 31799, Note_on_c, 3, 48, 0
5, 31800, Note_on_c, 3, 48, 80
5, 31919, Note_on_c, 3, 48, 0
5, 31920, Note_on_c, 3, 62, 80
5, 31920, Note_on_c, 3, 67, 80
5, 32159, Note_on_c, 3, 62, 0
5, 32159, Note_on_c, 3, 67, 0
5, 32160, Note_on_c, 3, 48, 80
5, 32279, Note_on_c, 3, 48, 0
5, 32280, Note_on_c, 3, 48, 80
5, 32399, Note_on_c, 3, 48, 0
5, 32400, Note_on_c, 3, 48, 80
5, 32519, Note_on_c, 3, 48, 0
5, 32520, Note_on_c, 3, 48, 80
5, 32639, Note_on_c, 3, 48, 0
5, 32640, Note_on_c, 3, 60, 80
5, 32640, Note_on_c, 3, 65, 80
5, 32879, Note_on_c, 3, 60, 0
5, 32879, Note_on_c, 3, 65, 0
5, 32880, Note_on_c, 3, 48, 80
5, 32999, Note_on_c, 3, 48, 0
5, 33000, Note_on_c, 3, 48, 80
5, 33119, Note_on_c, 3, 48, 0
5, 33120, Note_on_c, 3, 48, 80
5, 33239, Note_on_c, 3, 48, 0
5, 33240, Note_on_c, 3, 48, 80
5, 33359, Note_on_c, 3, 48, 0
5, 33360, Note_on_c, 3, 60, 80
5, 33360, Note_on_c, 3, 64, 80
5, 34079, Note_on_c, 3, 60, 0
5, 34079, Note_on_c, 3, 64, 0
5, 34080, Note_on_c, 3, 48, 80
5, 34319, Note_on_c, 3, 48, 0
5, 34320, Note_on_c, 3, 55, 80
5, 34320, Note_on_c, 3, 60, 80
5, 34559, Note_on_c, 3, 55, 0
5, 34559, Note_on_c, 3, 60, 0
5, 34560, Note_on_c, 3, 48, 80
5, 34799, Note_on_c, 3, 48, 0
5, 34800, Note_on_c, 3, 48, 80
5, 34919, Note_on_c, 3, 48, 0
5, 34920, Note_on_c, 3, 48, 80
5, 35039, Note_on_c, 3, 48, 0
5, 35040, Note_on_c, 3, 60, 80
5, 35040, Note_on_c, 3, 64, 80
5, 35279, Note_on_c, 3, 60, 0
5, 35279, Note_on_c, 3, 64, 0
5, 35280, Note_on_c, 3, 48, 80
5, 35399, Note_on_c, 3, 48, 0
5, 35400, Note_on_c, 3, 48, 80
5, 35519, Note_on_c, 3, 48, 0
5, 35520, Note_on_c, 3, 48, 80
5, 35639, Note_on_c, 3, 48, 0
5, 35640, Note_on_c, 3, 48, 80
5, 35759, Note_on_c, 3, 48, 0
5, 35760, Note_on_c, 3, 62, 80
5, 35760, Note_on_c, 3, 67, 80
5, 35999, Note_on_c, 3, 62, 0
5, 35999, Note_on_c, 3, 67, 0
5, 36000, Note_on_c, 3, 48, 80
5, 36119, Note_on_c, 3, 48, 0
5, 36120, Note_on_c, 3, 48, 80
5, 36239, Note_on_c, 3, 48, 0
5, 36240, Note_on_c, 3, 48, 80
5, 36359, Note_on_c, 3, 48, 0
5, 36360, Note_on_c, 3, 48, 80
5, 36479, Note_on_c, 3, 48, 0
5, 36480, Note_on_c, 3, 60, 80
5, 36480, Note_on_c, 3, 65, 80
5, 36719, Note_on_c, 3, 60, 0
5, 36719, Note_on_c, 3, 65, 0
5, 36720, Note_on_c, 3, 48, 80
5, 36839, Note_on_c, 3, 48, 0
5, 36840, Note_on_c, 3, 48, 80
5, 36959, Note_on_c, 3, 48, 0
5, 36960, Note_on_c, 3, 48, 80
5, 37079, Note_on_c, 3, 48, 0
5, 37080, Note_on_c, 3, 48, 80
5, 37199, Note_on_c, 3, 48, 0
5, 37200, Note_on_c, 3, 60, 80
5, 37200, Note_on_c, 3, 64, 80
5, 37679, Note_on_c, 3, 60, 0
5, 37679, Note_on_c, 3, 64, 0
5, 37920, Note_on_c, 3, 55, 80
5, 38159, Note_on_c, 3, 55, 0
5, 38160, Note_on_c, 3, 55, 80
5, 38160, Note_on_c, 3, 60, 80
5, 38399, Note_on_c, 3, 55, 0
5, 38399, Note_on_c, 3, 60, 0
5, 38400, Note_on_c, 3, 48, 80
5, 38639, Note_on_c, 3, 48, 0
5, 38640, Note_on_c, 3, 48, 80
5, 38759, Note_on_c, 3, 48, 0
5, 38760, Note_on_c, 3, 48, 80
5, 38879, Note_on_c, 3, 48, 0
5, 38880, Note_on_c, 3, 60, 80
5, 38880, Note_on_c, 3, 64, 80
5, 39119, Note_on_c, 3, 60, 0
5, 39119, Note_on_c, 3, 64, 0
5, 39120, Note_on_c, 3, 48, 80
5, 39239, Note_on_c, 3, 48, 0
5, 39240, Note_on_c, 3, 48, 80
5, 39359, Note_on_c, 3, 48, 0
5, 39360, Note_on_c, 3, 48, 80
5, 39479, Note_on_c, 3, 48, 0
5, 39480, Note_on_c, 3, 48, 80
5, 39599, Note_on_c, 3, 48, 0
5, 39600, Note_on_c, 3, 62, 80
5, 39600, Note_on_c, 3, 67, 80
5, 39839, Note_on_c, 3, 62, 0
5, 39839, Note_on_c, 3, 67, 0
5, 39840, Note_on_c, 3, 48, 80
5, 39959, Note_on_c, 3, 48, 0
5, 39960, Note_on_c, 3, 48, 80
5, 40079, Note_on_c, 3, 48, 0
5, 40080, Note_on_c, 3, 48, 80
5, 40199, Note_on_c, 3, 48, 0
5, 40200, Note_on_c, 3, 48, 80
5, 40319, Note_on_c, 3, 48, 0
5, 40320, Note_on_c, 3, 60, 80
5, 40320, Note_on_c, 3, 65, 80
5, 40559, Note_on_c, 3, 60, 0
5, 40559, Note_on_c, 3, 65, 0
5, 40560, Note_on_c, 3, 48, 80
5, 40679, Note_on_c, 3, 48, 0
5, 40680, Note_on_c, 3, 48, 80
5, 40799, Note_on_c, 3, 48, 0
5, 40800, Note_on_c, 3, 48, 80
5, 40919, Note_on_c, 3, 48, 0
5, 40920, Note_on_c, 3, 48, 80
5, 41039, Note_on_c, 3, 48, 0
5, 41040, Note_on_c, 3, 60, 80
5, 41040, Note_on_c, 3, 64, 80
5, 41759, Note_on_c, 3, 60, 0
5, 41759, Note_on_c, 3, 64, 0
5, 41760, Note_on_c, 3, 48, 80
5, 41999, Note_on_c, 3, 48, 0
5, 42000, Note_on_c, 3, 55, 80
5, 42000, Note_on_c, 3, 60, 80
5, 42239, Note_on_c, 3, 55, 0
5, 42239, Note_on_c, 3, 60, 0
5, 42240, Note_on_c, 3, 48, 80
5, 42479, Note_on_c, 3, 48, 0
5, 42480, Note_on_c, 3, 48, 80
5, 42599, Note_on_c, 3, 48, 0
5, 42600, Note_on_c, 3, 48, 80
5, 42719, Note_on_c, 3, 48, 0
5, 42720, Note_on_c, 3, 60, 80
5, 42720, Note_on_c, 3, 64, 80
5, 42959, Note_on_c, 3, 60, 0
5, 42959, Note_on_c, 3, 64, 0
5, 42960, Note_on_c, 3, 48, 80
5, 43079, Note_on_c, 3, 48, 0
5, 43080, Note_on_c, 3, 48, 80
5, 43199, Note_on_c, 3, 48, 0
5, 43200, Note_on_c, 3, 48, 80
5, 43319, Note_on_c, 3, 48, 0
5, 43320, Note_on_c, 3, 48, 80
5, 43439, Note_on_c, 3, 48, 0
5, 43440, Note_on_c, 3, 62, 80
5, 43440, Note_on_c, 3, 67, 80
5, 43679, Note_on_c, 3, 62, 0
5, 43679, Note_on_c, 3, 67, 0
5, 43680, Note_on_c, 3, 48, 80
5, 43799, Note_on_c, 3, 48, 0
5, 43800, Note_on_c, 3, 48, 80
5, 43919, Note_on_c, 3, 48, 0
5, 43920, Note_on_c, 3, 48, 80
5, 44039, Note_on_c, 3, 48, 0
5, 44040, Note_on_c, 3, 48, 80
5, 44159, Note_on_c, 3, 48, 0
5, 44160, Note_on_c, 3, 60, 80
5, 44160, Note_on_c, 3, 65, 80
5, 44399, Note_on_c, 3, 60, 0
5, 44399, Note_on_c, 3, 65, 0
5, 44400, Note_on_c, 3, 48, 80
5, 44519, Note_on_c, 3, 48, 0
5, 44520, Note_on_c, 3, 48, 80
5, 44639, Note_on_c, 3, 48, 0
5, 44640, Note_on_c, 3, 48, 80
5, 44759, Note_on_c, 3, 48, 0
5, 44760, Note_on_c, 3, 48, 80
5, 44879, Note_on_c, 3, 48, 0
5, 44880, Note_on_c, 3, 60, 80
5, 44880, Note_on_c, 3, 64, 80
5, 45359, Note_on_c, 3, 60, 0
5, 45359, Note_on_c, 3, 64, 0
5, 45600, Note_on_c, 3, 55, 80
5, 45839, Note_on_c, 3, 55, 0
5, 45840, Note_on_c, 3, 55, 80
5, 45840, Note_on_c, 3, 60, 80
5, 46079, Note_on_c, 3, 55, 0
5, 46079, Note_on_c, 3, 60, 0
5, 46080, Note_on_c, 3, 48, 80
5, 46319, Note_on_c, 3, 48, 0
5, 46320, Note_on_c, 3, 48, 80
5, 46439, Note_on_c, 3, 48, 0
5, 46440, Note_on_c, 3, 48, 80
5, 46559, Note_on_c, 3, 48, 0
5, 46560, Note_on_c, 3, 60, 80
5, 46560, Note_on_c, 3, 64, 80
5, 46799, Note_on_c, 3, 60, 0
5, 46799, Note_on_c, 3, 64, 0
5, 46800, Note_on_c, 3, 48, 80
5, 46919, Note_on_c, 3, 48, 0
5, 46920, Note_on_c, 3, 48, 80
5, 47039, Note_on_c, 3, 48, 0
5, 47040, Note_on_c, 3, 48, 80
5, 47159, Note_on_c, 3, 48, 0
5, 47160, Note_on_c, 3, 48, 80
5, 47279, Note_on_c, 3, 48, 0
5, 47280, Note_on_c, 3, 62, 80
5, 47280, Note_on_c, 3, 67, 80
5, 47519, Note_on_c, 3, 62, 0
5, 47519, Note_on_c, 3, 67, 0
5, 47520, Note_on_c, 3, 48, 80
5, 47639, Note_on_c, 3, 48, 0
5, 47640, Note_on_c, 3, 48, 80
5, 47759, Note_on_c, 3, 48, 0
5, 47760, Note_on_c, 3, 48, 80
5, 47879, Note_on_c, 3, 48, 0
5, 47880, Note_on_c, 3, 48, 80
5, 47999, Note_on_c, 3, 48, 0
5, 48000, Note_on_c, 3, 60, 80
5, 48000, Note_on_c, 3, 65, 80
5, 48239, Note_on_c, 3, 60, 0
5, 48239, Note_on_c, 3, 65, 0
5, 48240, Note_on_c, 3, 48, 80
5, 48359, Note_on_c, 3, 48, 0
5, 48360, Note_on_c, 3, 48, 80
5, 48479, Note_on_c, 3, 48, 0
5, 48480, Note_on_c, 3, 48, 80
5, 48599, Note_on_c, 3, 48, 0
5, 48600, Note_on_c, 3, 48, 80
5, 48719, Note_on_c, 3, 48, 0
5, 48720, Note_on_c, 3, 60, 80
5, 48720, Note_on_c, 3, 64, 80
5, 49439, Note_on_c, 3, 60, 0
5, 49439, Note_on_c, 3, 64, 0
5, 49440, Note_on_c, 3, 48, 80
5, 49679, Note_on_c, 3, 48, 0
5, 49680, Note_on_c, 3, 55, 80
5, 49680, Note_on_c, 3, 60, 80
5, 49919, Note_on_c, 3, 55, 0
5, 49919, Note_on_c, 3, 60, 0
5, 49920, Note_on_c, 3, 48, 80
5, 50159, Note_on_c, 3, 48, 0
5, 50160, Note_on_c, 3, 48, 80
5, 50279, Note_on_c, 3, 48, 0
5, 50280, Note_on_c, 3, 48, 80
5, 50399, Note_on_c, 3, 48, 0
5, 50400, Note_on_c, 3, 60, 80
5, 50400, Note_on_c, 3, 64, 80
5, 50639, Note_on_c, 3, 60, 0
5, 50639, Note_on_c, 3, 64, 0
5, 50640, Note_on_c, 3, 48, 80
5, 50759, Note_on_c, 3, 48, 0
5, 50760, Note_on_c, 3, 48, 80
5, 50879, Note_on_c, 3, 48, 0
5, 50880, Note_on_c, 3, 48, 80
5, 50999, Note_on_c, 3, 48, 0
5, 51000, Note_on_c, 3, 48, 80
5, 51119, Note_on_c, 3, 48, 0
5, 51120, Note_on_c, 3, 62, 80
5, 51120, Note_on_c, 3, 67, 80
5, 51359, Note_on_c, 3, 62, 0
5, 51359, Note_on_c, 3, 67, 0
5, 51360, Note_on_c, 3, 48, 80
5, 51479, Note_on_c, 3, 48, 0
5, 51480, Note_on_c, 3, 48, 80
5, 51599, Note_on_c, 3, 48, 0
5, 51600, Note_on_c, 3, 48, 80
5, 51719, Note_on_c, 3, 48, 0
5, 51720, Note_on_c, 3, 48, 80
5, 51839, Note_on_c, 3, 48, 0
5, 51840, Note_on_c, 3, 60, 80
5, 51840, Note_on_c, 3, 65, 80
5, 52079, Note_on_c, 3, 60, 0
5, 52079, Note_on_c, 3, 65, 0
5, 52080, Note_on_c, 3, 48, 80
5, 52199, Note_on_c, 3, 48, 0
5, 52200, Note_on_c, 3, 48, 80
5, 52319, Note_on_c, 3, 48, 0
5, 52320, Note_on_c, 3, 48, 80
5, 52439, Note_on_c, 3, 48, 0
5, 52440, Note_on_c, 3, 48, 80
5, 52559, Note_on_c, 3, 48, 0
5, 52560, Note_on_c, 3, 60, 80
5, 52560, Note_on_c, 3, 64, 80
5, 53039, Note_on_c, 3, 60, 0
5, 53039, Note_on_c, 3, 64, 0
5, 53280, Note_on_c, 3, 55, 80
5, 53519, Note_on_c, 3, 55, 0
5, 53520, Note_on_c, 3, 55, 80
5, 53520, Note_on_c, 3, 60, 80
5, 53759, Note_on_c, 3, 55, 0
5, 53759, Note_on_c, 3, 60, 0
5, 53760, Note_on_c, 3, 48, 80
5, 53999, Note_on_c, 3, 48, 0
5, 54000, Note_on_c, 3, 48, 80
5, 54119, Note_on_c, 3, 48, 0
5, 54120, Note_on_c, 3, 48, 80
5, 54239, Note_on_c, 3, 48, 0
5, 54240, Note_on_c, 3, 60, 80
5, 54240, Note_on_c, 3, 64, 80
5, 54479, Note_on_c, 3, 60, 0
5, 54479, Note_on_c, 3, 64, 0
5, 54480, Note_on_c, 3, 48, 80
5, 54599, Note_on_c, 3, 48, 0
5, 54600, Note_on_c, 3, 48, 80
5, 54719, Note_on_c, 3, 48, 0
5, 54720, Note_on_c, 3, 48, 80
5, 54839, Note_on_c, 3, 48, 0
5, 54840, Note_on_c, 3, 48, 80
5, 54959, Note_on_c, 3, 48, 0
5, 54960, Note_on_c, 3, 62, 80
5, 54960, Note_on_c, 3, 67, 80
5, 55199, Note_on_c, 3, 62, 0
5, 55199, Note_on_c, 3, 67, 0
5, 55200, Note_on_c, 3, 48, 80
5, 55319, Note_on_c, 3, 48, 0
5, 55320, Note_on_c, 3, 48, 80
5, 55439, Note_on_c, 3, 48, 0
5, 55440, Note_on_c, 3, 48, 80
5, 55559, Note_on_c, 3, 48, 0
5, 55560, Note_on_c, 3, 48, 80
5, 55679, Note_on_c, 3, 48, 0
5, 55680, Note_on_c, 3, 60, 80
5, 55680, Note_on_c, 3, 65, 80
5, 55919, Note_on_c, 3, 60, 0
5, 55919, Note_on_c, 3, 65, 0
5, 55920, Note_on_c, 3, 48, 80
5, 56039, Note_on_c, 3, 48, 0
5, 56040, Note_on_c, 3, 48, 80
5, 56159, Note_on_c, 3, 48, 0
5, 56160, Note_on_c, 3, 48, 80
5, 56279, Note_on_c, 3, 48, 0
5, 56280, Note_on_c, 3, 48, 80
5, 56399, Note_on_c, 3, 48, 0
5, 56400, Note_on_c, 3, 60, 80
5, 56400, Note_on_c, 3, 64, 80
5, 57119, Note_on_c, 3, 60, 0
5, 57119, Note_on_c, 3, 64, 0
5, 57120, Note_on_c, 3, 48, 80
5, 57359, Note_on_c, 3, 48, 0
5, 57360, Note_on_c, 3, 55, 80
5, 57360, Note_on_c, 3, 60, 80
5, 57599, Note_on_c, 3, 55, 0
5, 57599, Note_on_c, 3, 60, 0
5, 57600, Note_on_c, 3, 48, 80
5, 57839, Note_on_c, 3, 48, 0
5, 57840, Note_on_c, 3, 48, 80
5, 57959, Note_on_c, 3, 48, 0
5, 57960, Note_on_c, 3, 48, 80
5, 58079, Note_on_c, 3, 48, 0
5, 58080, Note_on_c, 3, 60, 80
5, 58080, Note_on_c, 3, 64, 80
5, 58319, Note_on_c, 3, 60, 0
5, 58319, Note_on_c, 3, 64, 0
5, 58320, Note_on_c, 3, 48, 80
5, 58439, Note_on_c, 3, 48, 0
5, 58440, Note_on_c, 3, 48, 80
5, 58559, Note_on_c, 3, 48, 0
5, 58560, Note_on_c, 3, 48, 80
5, 58679, Note_on_c, 3, 48, 0
5, 58680, Note_on_c, 3, 48, 80
5, 58799, Note_on_c, 3, 48, 0
5, 58800, Note_on_c, 3, 62, 80
5, 58800, Note_on_c, 3, 67, 80
5, 59039, Note_on_c, 3, 62, 0
5, 59039, Note_on_c, 3, 67, 0
5, 59040, Note_on_c, 3, 48, 80
5, 59159, Note_on_c, 3, 48, 0
5, 59160, Note_on_c, 3, 48, 80
5, 59279, Note_on_c, 3, 48, 0
5, 59280, Note_on_c, 3, 48, 80
5, 59399, Note_on_c, 3, 48, 0
5, 59400, Note_on_c, 3, 48, 80
5, 59519, Note_on_c, 3, 48, 0
5, 59520, Note_on_c, 3, 60, 80
5, 59520, Note_on_c, 3, 65, 80
5, 59759, Note_on_c, 3, 60, 0
5, 59759, Note_on_c, 3, 65, 0
5, 59760, Note_on_c, 3, 48, 80
5, 59879, Note_on_c, 3, 48, 0
5, 59880, Note_on_c, 3, 48, 80
5, 59999, Note_on_c, 3, 48, 0
5, 60000, Note_on_c, 3, 48, 80
5, 60119, Note_on_c, 3, 48, 0
5, 60120, Note_on_c, 3, 48, 80
5, 60239, Note_on_c, 3, 48, 0
5, 60240, Note_on_c, 3, 60, 80
5, 60240, Note_on_c, 3, 64, 80
5, 60719, Note_on_c, 3, 60, 0
5, 60719, Note_on_c, 3, 64, 0
5, 60960, Note_on_c, 3, 55, 80
5, 61199, Note_on_c, 3, 55, 0
5, 61200, Note_on_c, 3, 55, 80
5, 61200, Note_on_c, 3, 60, 80
5, 61439, Note_on_c, 3, 55, 0
5, 61439, Note_on_c, 3, 60, 0
5, 61440, Note_on_c, 3, 48, 80
5, 61679, Note_on_c, 3, 48, 0
5, 61680, Note_on_c, 3, 48, 80
5, 61799, Note_on_c, 3, 48, 0
5, 61800, Note_on_c, 3, 48, 80
5, 61919, Note_on_c, 3, 48, 0
5, 61920, Note_on_c, 3, 60, 80
5, 61920, Note_on_c, 3, 64, 80
5, 62159, Note_on_c, 3, 60, 0
5, 62159, Note_on_c, 3, 64, 0
5, 62160, Note_on_c, 3, 48, 80
5, 62279, Note_on_c, 3, 48, 0
5, 62280, Note_on_c, 3, 48, 80
5, 62399, Note_on_c, 3, 48, 0
5, 62400, Note_on_c, 3, 48, 80
5, 62519, Note_on_c, 3, 48, 0
5, 62520, Note_on_c, 3, 48, 80
5, 62639, Note_on_c, 3, 48, 0
5, 62640, Note_on_c, 3, 62, 80
5, 62640, Note_on_c, 3, 67, 80
5, 62879, Note_on_c, 3, 62, 0
5, 62879, Note_on_c, 3, 67, 0
5, 62880, Note_on_c, 3, 48, 80
5, 62999, Note_on_c, 3, 48, 0
5, 63000, Note_on_c, 3, 48, 80
5, 63119, Note_on_c, 3, 48, 0
5, 63120, Note_on_c, 3, 48, 80
5, 63239, Note_on_c, 3, 48, 0
5, 63240, Note_on_c, 3, 48, 80
5, 63359, Note_on_c, 3, 48, 0
5, 63360, Note_on_c, 3, 60, 80
5, 63360, Note_on_c, 3, 65, 80
5, 63599, Note_on_c, 3, 60, 0
5, 63599, Note_on_c, 3, 65, 0
5, 63600, Note_on_c, 3, 48, 80
5, 63719, Note_on_c, 3, 48, 0
5, 63720, Note_on_c, 3, 48, 80
5, 63839, Note_on_c, 3, 48, 0
5, 63840, Note_on_c, 3, 48, 80
5, 63959, Note_on_c, 3, 48, 0
5, 63960, Note_on_c, 3, 48, 80
5, 64079, Note_on_c, 3, 48, 0
5, 64080, Note_on_c, 3, 60, 80
5, 64080, Note_on_c, 3, 64, 80
5, 64799, Note_on_c, 3, 60, 0
5, 64799, Note_on_c, 3, 64, 0
5, 64800, Note_on_c, 3, 48, 80
5, 65039, Note_on_c, 3, 48, 0
5, 65040, Note_on_c, 3, 55, 80
5, 65040, Note_on_c, 3, 60, 80
5, 65279, Note_on_c, 3, 55, 0
5, 65279, Note_on_c, 3, 60, 0
5, 65280, Note_on_c, 3, 48, 80
5, 65519, Note_on_c, 3, 48, 0
5, 65520, Note_on_c, 3, 48, 80
5, 65639, Note_on_c, 3, 48, 0
5, 65640, Note_on_c, 3, 48, 80
5, 65759, Note_on_c, 3, 48, 0
5, 65760, Note_on_c, 3, 60, 80
5, 65760, Note_on_c, 3, 64, 80
5, 65999, Note_on_c, 3, 60, 0
5, 65999, Note_on_c, 3, 64, 0
5, 66000, Note_on_c, 3, 48, 80
5, 66119, Note_on_c, 3, 48, 0
5, 66120, Note_on_c, 3, 48, 80
5, 66239, Note_on_c, 3, 48, 0
5, 66240, Note_on_c, 3, 48, 80
5, 66359, Note_on_c, 3, 48, 0
5, 66360, Note_on_c, 3, 48, 80
5, 66479, Note_on_c, 3, 48, 0
5, 66480, Note_on_c, 3, 62, 80
5, 66480, Note_on_c, 3, 67, 80
5, 66719, Note_on_c, 3, 62, 0
5, 66719, Note_on_c, 3, 67, 0
5, 66720, Note_on_c, 3, 48, 80
5, 66839, Note_on_c, 3, 48, 0
5, 66840, Note_on_c, 3, 48, 80
5, 66959, Note_on_c, 3, 48, 0
5, 66960, Note_on_c, 3, 48, 80
5, 67079, Note_on_c, 3, 48, 0
5, 67080, Note_on_c, 3, 48, 80
5, 67199, Note_on_c, 3, 48, 0
5, 67200, Note_on_c, 3, 60, 80
5, 67200, Note_on_c, 3, 65, 80
5, 67439, Note_on_c, 3, 60, 0
5, 67439, Note_on_c, 3, 65, 0
5, 67440, Note_on_c, 3, 48, 80
5, 67559, Note_on_c, 3, 48, 0
5, 67560, Note_on_c, 3, 48, 80
5, 67679, Note_on_c, 3, 48, 0
5, 67680, Note_on_c, 3, 48, 80
5, 67799, Note_on_c, 3, 48, 0
5, 67800, Note_on_c, 3, 48, 80
5, 67919, Note_on_c, 3, 48, 0
5, 67920, Note_on_c, 3, 60, 80
5, 67920, Note_on_c, 3, 64, 80
5, 68399, Note_on_c, 3, 60, 0
5, 68399, Note_on_c, 3, 64, 0
5, 68400, Note_on_c, 3, 62, 80
5, 68479, Note_on_c, 3, 62, 0
5, 68480, Note_on_c, 3, 60, 80
5, 68559, Note_on_c, 3, 60, 0
5, 68560, Note_on_c, 3, 59, 80
5, 68639, Note_on_c, 3, 59, 0
5, 68640, Note_on_c, 3, 57, 80
5, 68719, Note_on_c, 3, 57, 0
5, 68720, Note_on_c, 3, 55, 80
5, 68799, Note_on_c, 3, 55, 0
5, 68800, Note_on_c, 3, 53, 80
5, 68879, Note_on_c, 3, 53, 0
5, 68880, Note_on_c, 3, 52, 80
5, 68959, Note_on_c, 3, 52, 0
5, 68960, Note_on_c, 3, 50, 80
5, 69039, Note_on_c, 3, 50, 0
5, 69040, Note_on_c, 3, 48, 80
5, 69119, Note_on_c, 3, 48, 0
5, 69120, Note_on_c, 3, 52, 80
5, 69120, Note_on_c, 3, 57, 80
5, 69359, Note_on_c, 3, 52, 0
5, 69359, Note_on_c, 3, 57, 0
5, 69360, Note_on_c, 3, 52, 80
5, 69360, Note_on_c, 3, 59, 80
5, 69599, Note_on_c, 3, 52, 0
5, 69599, Note_on_c, 3, 59, 0
5, 69600, Note_on_c, 3, 57, 80
5, 69600, Note_on_c, 3, 52, 80
5, 70079, Note_on_c, 3, 57, 0
5, 70320, Note_on_c, 3, 52, 0
5, 70320, Note_on_c, 3, 52, 80
5, 70320, Note_on_c, 3, 59, 80
5, 70320, Note_on_c, 6, 52, 0
5, 70559, Note_on_c, 3, 52, 0
5, 70559, Note_on_c, 3, 59, 0
5, 70800, Note_on_c, 3, 53, 80
5, 70800, Note_on_c, 3, 60, 80
5, 72479, Note_on_c, 3, 53, 0
5, 72479, Note_on_c, 3, 60, 0
5, 72960, Note_on_c, 3, 52, 80
5, 72960, Note_on_c, 3, 57, 80
5, 73199, Note_on_c, 3, 52, 0
5, 73199, Note_on_c, 3, 57, 0
5, 73200, Note_on_c, 3, 52, 80
5, 73200, Note_on_c, 3, 59, 80
5, 73439, Note_on_c, 3, 52, 0
5, 73439, Note_on_c, 3, 59, 0
5, 73440, Note_on_c, 3, 57, 80
5, 73440, Note_on_c, 3, 52, 80
5, 73919, Note_on_c, 3, 57, 0
5, 74160, Note_on_c, 3, 52, 0
5, 74160, Note_on_c, 3, 52, 80
5, 74160, Note_on_c, 3, 59, 80
5, 74160, Note_on_c, 6, 52, 0
5, 74399, Note_on_c, 3, 52, 0
5, 74399, Note_on_c, 3, 59, 0
5, 74640, Note_on_c, 3, 53, 80
5, 74640, Note_on_c, 3, 60, 80
5, 74879, Note_on_c, 3, 53, 0
5, 74879, Note_on_c, 3, 60, 0
5, 76800, Note_on_c, 3, 55, 80
5, 76800, Note_on_c, 3, 60, 80
5, 77279, Note_on_c, 3, 55, 0
5, 77279, Note_on_c, 3, 60, 0
5, 77280, Note_on_c, 3, 55, 80
5, 77280, Note_on_c, 3, 60, 80
5, 77759, Note_on_c, 3, 55, 0
5, 77759, Note_on_c, 3, 60, 0
5, 77760, Note_on_c, 3, 55, 80
5, 77760, Note_on_c, 3, 60, 80
5, 77999, Note_on_c, 3, 55, 0
5, 77999, Note_on_c, 3, 60, 0
5, 78000, Note_on_c, 3, 59, 80
5, 78239, Note_on_c, 3, 59, 0
5, 78240, Note_on_c, 3, 57, 80
5, 78479, Note_on_c, 3, 57, 0
5, 78480, Note_on_c, 3, 50, 80
5, 78480, Note_on_c, 3, 55, 80
5, 78719, Note_on_c, 3, 50, 0
5, 78719, Note_on_c, 3, 55, 0
5, 79200, Note_on_c, 3, 55, 80
5, 79439, Note_on_c, 3, 55, 0
5, 79440, Note_on_c, 3, 55, 80
5, 79679, Note_on_c, 3, 55, 0
5, 79680, Note_on_c, 3, 55, 80
5, 79919, Note_on_c, 3, 55, 0
5, 79920, Note_on_c, 3, 55, 80
5, 80399, Note_on_c, 3, 55, 0
5, 80400, Note_on_c, 3, 55, 80
5, 80639, Note_on_c, 3, 55, 0
5, 80640, Note_on_c, 3, 57, 80
5, 81119, Note_on_c, 3, 57, 0
5, 84480, Note_on_c, 3, 55, 80
5, 84480, Note_on_c, 3, 60, 80
5, 84959, Note_on_c, 3, 55, 0
5, 84959, Note_on_c, 3, 60, 0
5, 84960, Note_on_c, 3, 55, 80
5, 84960, Note_on_c, 3, 60, 80
5, 85439, Note_on_c, 3, 55, 0
5, 85439, Note_on_c, 3, 60, 0
5, 85440, Note_on_c, 3, 55, 80
5, 85440, Note_on_c, 3, 60, 80
5, 85679, Note_on_c, 3, 55, 0
5, 85679, Note_on_c, 3, 60, 0
5, 85680, Note_on_c, 3, 59, 80
5, 85919, Note_on_c, 3, 59, 0
5, 85920, Note_on_c, 3, 57, 80
5, 86159, Note_on_c, 3, 57, 0
5, 86160, Note_on_c, 3, 50, 80
5, 86160, Note_on_c, 3, 55, 80
5, 86399, Note_on_c, 3, 50, 0
5, 86399, Note_on_c, 3, 55, 0
5, 86880, Note_on_c, 3, 55, 80
5, 87119, Note_on_c, 3, 55, 0
5, 87120, Note_on_c, 3, 55, 80
5, 87359, Note_on_c, 3, 55, 0
5, 87360, Note_on_c, 3, 55, 80
5, 87599, Note_on_c, 3, 55, 0
5, 87600, Note_on_c, 3, 55, 80
5, 88079, Note_on_c, 3, 55, 0
5, 88080, Note_on_c, 3, 55, 80
5, 88319, Note_on_c, 3, 55, 0
5, 88320, Note_on_c, 3, 57, 80
5, 88559, Note_on_c, 3, 57, 0
5, 88560, Note_on_c, 3, 55, 80
5, 88799, Note_on_c, 3, 55, 0
5, 88800, Note_on_c, 3, 57, 80
5, 89039, Note_on_c, 3, 57, 0
5, 89520, Note_on_c, 3, 57, 80
5, 89759, Note_on_c, 3, 57, 0
5, 89760, Note_on_c, 3, 59, 80
5, 89999, Note_on_c, 3, 59, 0
5, 90000, Note_on_c, 3, 60, 80
5, 90000, Note_on_c, 3, 67, 80
5, 90479, Note_on_c, 3, 60, 0
5, 90479, Note_on_c, 3, 67, 0
5, 90480, Note_on_c, 3, 59, 80
5, 90719, Note_on_c, 3, 59, 0
5, 90720, Note_on_c, 3, 57, 80
5, 90959, Note_on_c, 3, 57, 0
5, 90960, Note_on_c, 3, 55, 80
5, 90960, Note_on_c, 3, 62, 80
5, 91439, Note_on_c, 3, 55, 0
5, 91439, Note_on_c, 3, 62, 0
5, 91440, Note_on_c, 3, 57, 80
5, 91679, Note_on_c, 3, 57, 0
5, 91680, Note_on_c, 3, 59, 80
5, 92159, Note_on_c, 3, 59, 0
5, 92160, Note_on_c, 3, 57, 80
5, 92399, Note_on_c, 3, 57, 0
5, 92400, Note_on_c, 3, 55, 80
5, 92639, Note_on_c, 3, 55, 0
5, 92640, Note_on_c, 3, 57, 80
5, 92879, Note_on_c, 3, 57, 0
5, 93360, Note_on_c, 3, 57, 80
5, 93599, Note_on_c, 3, 57, 0
5, 93600, Note_on_c, 3, 59, 80
5, 93839, Note_on_c, 3, 59, 0
5, 93840, Note_on_c, 3, 60, 80
5, 93840, Note_on_c, 3, 65, 80
5, 94799, Note_on_c, 3, 60, 0
5, 94799, Note_on_c, 3, 65, 0
5, 94800, Note_on_c, 3, 62, 80
5, 94800, Note_on_c, 3, 67, 80
5, 94800, Note_on_c, 3, 71, 80
5, 95999, Note_on_c, 3, 62, 0
5, 95999, Note_on_c, 3, 67, 0
5, 95999, Note_on_c, 3, 71, 0
5, 96000, Note_on_c, 3, 48, 80
5, 96239, Note_on_c, 3, 48, 0
5, 96240, Note_on_c, 3, 48, 80
5, 96359, Note_on_c, 3, 48, 0
5, 96360, Note_on_c, 3, 48, 80
5, 96479, Note_on_c, 3, 48, 0
5, 96480, Note_on_c, 3, 60, 80
5, 96480, Note_on_c, 3, 64, 80
5, 96719, Note_on_c, 3, 60, 0
5, 96719, Note_on_c, 3, 64, 0
5, 96720, Note_on_c, 3, 48, 80
5, 96839, Note_on_c, 3, 48, 0
5, 96840, Note_on_c, 3, 48, 80
5, 96959, Note_on_c, 3, 48, 0
5, 96960, Note_on_c, 3, 48, 80
5, 97079, Note_on_c, 3, 48, 0
5, 97080, Note_on_c, 3, 48, 80
5, 97199, Note_on_c, 3, 48, 0
5, 97200, Note_on_c, 3, 62, 80
5, 97200, Note_on_c, 3, 67, 80
5, 97439, Note_on_c, 3, 62, 0
5, 97439, Note_on_c, 3, 67, 0
5, 97440, Note_on_c, 3, 48, 80
5, 97559, Note_on_c, 3, 48, 0
5, 97560, Note_on_c, 3, 48, 80
5, 97679, Note_on_c, 3, 48, 0
5, 97680, Note_on_c, 3, 48, 80
5, 97799, Note_on_c, 3, 48, 0
5, 97800, Note_on_c, 3, 48, 80
5, 97919, Note_on_c, 3, 48, 0
5, 97920, Note_on_c, 3, 60, 80
5, 97920, Note_on_c, 3, 65, 80
5, 98159, Note_on_c, 3, 60, 0
5, 98159, Note_on_c, 3, 65, 0
5, 98160, Note_on_c, 3, 48, 80
5, 98279, Note_on_c, 3, 48, 0
5, 98280, Note_on_c, 3, 48, 80
5, 98399, Note_on_c, 3, 48, 0
5, 98400, Note_on_c, 3, 48, 80
5, 98519, Note_on_c, 3, 48, 0
5, 98520, Note_on_c, 3, 48, 80
5, 98639, Note_on_c, 3, 48, 0
5, 98640, Note_on_c, 3, 60, 80
5, 98640, Note_on_c, 3, 64, 80
5, 99359, Note_on_c, 3, 60, 0
5, 99359, Note_on_c, 3, 64, 0
5, 99360, Note_on_c, 3, 48, 80
5, 99599, Note_on_c, 3, 48, 0
5, 99600, Note_on_c, 3, 55, 80
5, 99600, Note_on_c, 3, 60, 80
5, 99839, Note_on_c, 3, 55, 0
5, 99839, Note_on_c, 3, 60, 0
5, 99840, Note_on_c, 3, 48, 80
5, 100079, Note_on_c, 3, 48, 0
5, 100080, Note_on_c, 3, 48, 80
5, 100199, Note_on_c, 3, 48, 0
5, 100200, Note_on_c, 3, 48, 80
5, 100319, Note_on_c, 3, 48, 0
5, 100320, Note_on_c, 3, 60, 80
5, 100320, Note_on_c, 3, 64, 80
5, 100559, Note_on_c, 3, 60, 0
5, 100559, Note_on_c, 3, 64, 0
5, 100560, Note_on_c, 3, 48, 80
5, 100679, Note_on_c, 3, 48, 0
5, 100680, Note_on_c, 3, 48, 80
5, 100799, Note_on_c, 3, 48, 0
5, 100800, Note_on_c, 3, 48, 80
5, 100919, Note_on_c, 3, 48, 0
5, 100920, Note_on_c, 3, 48, 80
5, 101039, Note_on_c, 3, 48, 0
5, 101040, Note_on_c, 3, 62, 80
5, 101040, Note_on_c, 3, 67, 80
5, 101279, Note_on_c, 3, 62, 0
5, 101279, Note_on_c, 3, 67, 0
5, 101280, Note_on_c, 3, 48, 80
5, 101399, Note_on_c, 3, 48, 0
5, 101400, Note_on_c, 3, 48, 80
5, 101519, Note_on_c, 3, 48, 0
5, 101520, Note_on_c, 3, 48, 80
5, 101639, Note_on_c, 3, 48, 0
5, 101640, Note_on_c, 3, 48, 80
5, 101759, Note_on_c, 3, 48, 0
5, 101760, Note_on_c, 3, 60, 80
5, 101760, Note_on_c, 3, 65, 80
5, 101999, Note_on_c, 3, 60, 0
5, 101999, Note_on_c, 3, 65, 0
5, 102000, Note_on_c, 3, 48, 80
5, 102119, Note_on_c, 3, 48, 0
5, 102120, Note_on_c, 3, 48, 80
5, 102239, Note_on_c, 3, 48, 0
5, 102240, Note_on_c, 3, 48, 80
5, 102359, Note_on_c, 3, 48, 0
5, 102360, Note_on_c, 3, 48, 80
5, 102479, Note_on_c, 3, 48, 0
5, 102480, Note_on_c, 3, 60, 80
5, 102480, Note_on_c, 3, 64, 80
5, 102959, Note_on_c, 3, 60, 0
5, 102959, Note_on_c, 3, 64, 0
5, 103200, Note_on_c, 3, 55, 80
5, 103439, Note_on_c, 3, 55, 0
5, 103440, Note_on_c, 3, 55, 80
5, 103440, Note_on_c, 3, 60, 80
5, 103679, Note_on_c, 3, 55, 0
5, 103679, Note_on_c, 3, 60, 0
5, 103680, Note_on_c, 3, 48, 80
5, 103919, Note_on_c, 3, 48, 0
5, 103920, Note_on_c, 3, 48, 80
5, 104039, Note_on_c, 3, 48, 0
5, 104040, Note_on_c, 3, 48, 80
5, 104159, Note_on_c, 3, 48, 0
5, 104160, Note_on_c, 3, 60, 80
5, 104160, Note_on_c, 3, 64, 80
5, 104399, Note_on_c, 3, 60, 0
5, 104399, Note_on_c, 3, 64, 0
5, 104400, Note_on_c, 3, 48, 80
5, 104519, Note_on_c, 3, 48, 0
5, 104520, Note_on_c, 3, 48, 80
5, 104639, Note_on_c, 3, 48, 0
5, 104640, Note_on_c, 3, 48, 80
5, 104759, Note_on_c, 3, 48, 0
5, 104760, Note_on_c, 3, 48, 80
5, 104879, Note_on_c, 3, 48, 0
5, 104880, Note_on_c, 3, 62, 80
5, 104880, Note_on_c, 3, 67, 80
5, 105119, Note_on_c, 3, 62, 0
5, 105119, Note_on_c, 3, 67, 0
5, 105120, Note_on_c, 3, 48, 80
5, 105239, Note_on_c, 3, 48, 0
5, 105240, Note_on_c, 3, 48, 80
5, 105359, Note_on_c, 3, 48, 0
5, 105360, Note_on_c, 3, 48, 80
5, 105479, Note_on_c, 3, 48, 0
5, 105480, Note_on_c, 3, 48, 80
5, 105599, Note_on_c, 3, 48, 0
5, 105600, Note_on_c, 3, 60, 80
5, 105600, Note_on_c, 3, 65, 80
5, 105839, Note_on_c, 3, 60, 0
5, 105839, Note_on_c, 3, 65, 0
5, 105840, Note_on_c, 3, 48, 80
5, 105959, Note_on_c, 3, 48, 0
5, 105960, Note_on_c, 3, 48, 80
5, 106079, Note_on_c, 3, 48, 0
5, 106080, Note_on_c, 3, 48, 80
5, 106199, Note_on_c, 3, 48, 0
5, 106200, Note_on_c, 3, 48, 80
5, 106319, Note_on_c, 3, 48, 0
5, 106320, Note_on_c, 3, 60, 80
5, 106320, Note_on_c, 3, 64, 80
5, 107039, Note_on_c, 3, 60, 0
5, 107039, Note_on_c, 3, 64, 0
5, 107040, Note_on_c, 3, 48, 80
5, 107279, Note_on_c, 3, 48, 0
5, 107280, Note_on_c, 3, 55, 80
5, 107280, Note_on_c, 3, 60, 80
5, 107519, Note_on_c, 3, 55, 0
5, 107519, Note_on_c, 3, 60, 0
5, 107520, Note_on_c, 3, 48, 80
5, 107759, Note_on_c, 3, 48, 0
5, 107760, Note_on_c, 3, 48, 80
5, 107879, Note_on_c, 3, 48, 0
5, 107880, Note_on_c, 3, 48, 80
5, 107999, Note_on_c, 3, 48, 0
5, 108000, Note_on_c, 3, 60, 80
5, 108000, Note_on_c, 3, 64, 80
5, 108239, Note_on_c, 3, 60, 0
5, 108239, Note_on_c, 3, 64, 0
5, 108240, Note_on_c, 3, 48, 80
5, 108359, Note_on_c, 3, 48, 0
5, 108360, Note_on_c, 3, 48, 80
5, 108479, Note_on_c, 3, 48, 0
5, 108480, Note_on_c, 3, 48, 80
5, 108599, Note_on_c, 3, 48, 0
5, 108600, Note_on_c, 3, 48, 80
5, 108719, Note_on_c, 3, 48, 0
5, 108720, Note_on_c, 3, 62, 80
5, 108720, Note_on_c, 3, 67, 80
5, 108959, Note_on_c, 3, 62, 0
5, 108959, Note_on_c, 3, 67, 0
5, 108960, Note_on_c, 3, 48, 80
5, 109079, Note_on_c, 3, 48, 0
5, 109080, Note_on_c, 3, 48, 80
5, 109199, Note_on_c, 3, 48, 0
5, 109200, Note_on_c, 3, 48, 80
5, 109319, Note_on_c, 3, 48, 0
5, 109320, Note_on_c, 3, 48, 80
5, 109439, Note_on_c, 3, 48, 0
5, 109440, Note_on_c, 3, 60, 80
5, 109440, Note_on_c, 3, 65, 80
5, 109679, Note_on_c, 3, 60, 0
5, 109679, Note_on_c, 3, 65, 0
5, 109680, Note_on_c, 3, 48, 80
5, 109799, Note_on_c, 3, 48, 0
5, 109800, Note_on_c, 3, 48, 80
5, 109919, Note_on_c, 3, 48, 0
5, 109920, Note_on_c, 3, 48, 80
5, 110039, Note_on_c, 3, 48, 0
5, 110040, Note_on_c, 3, 48, 80
5, 110159, Note_on_c, 3, 48, 0
5, 110160, Note_on_c, 3, 60, 80
5, 110160, Note_on_c, 3, 64, 80
5, 110639, Note_on_c, 3, 60, 0
5, 110639, Note_on_c, 3, 64, 0
5, 110880, Note_on_c, 3, 55, 80
5, 111119, Note_on_c, 3, 55, 0
5, 111120, Note_on_c, 3, 55, 80
5, 111120, Note_on_c, 3, 60, 80
5, 111359, Note_on_c, 3, 55, 0
5, 111359, Note_on_c, 3, 60, 0
5, 111360, Note_on_c, 3, 48, 80
5, 111599, Note_on_c, 3, 48, 0
5, 111600, Note_on_c, 3, 48, 80
5, 111719, Note_on_c, 3, 48, 0
5, 111720, Note_on_c, 3, 48, 80
5, 111839, Note_on_c, 3, 48, 0
5, 111840, Note_on_c, 3, 60, 80
5, 111840, Note_on_c, 3, 64, 80
5, 112079, Note_on_c, 3, 60, 0
5, 112079, Note_on_c, 3, 64, 0
5, 112080, Note_on_c, 3, 48, 80
5, 112199, Note_on_c, 3, 48, 0
5, 112200, Note_on_c, 3, 48, 80
5, 112319, Note_on_c, 3, 48, 0
5, 112320, Note_on_c, 3, 48, 80
5, 112439, Note_on_c, 3, 48, 0
5, 112440, Note_on_c, 3, 48, 80
5, 112559, Note_on_c, 3, 48, 0
5, 112560, Note_on_c, 3, 62, 80
5, 112560, Note_on_c, 3, 67, 80
5, 112799, Note_on_c, 3, 62, 0
5, 112799, Note_on_c, 3, 67, 0
5, 112800, Note_on_c, 3, 48, 80
5, 112919, Note_on_c, 3, 48, 0
5, 112920, Note_on_c, 3, 48, 80
5, 113039, Note_on_c, 3, 48, 0
5, 113040, Note_on_c, 3, 48, 80
5, 113159, Note_on_c, 3, 48, 0
5, 113160, Note_on_c, 3, 48, 80
5, 113279, Note_on_c, 3, 48, 0
5, 113280, Note_on_c, 3, 60, 80
5, 113280, Note_on_c, 3, 65, 80
5, 113519, Note_on_c, 3, 60, 0
5, 113519, Note_on_c, 3, 65, 0
5, 113520, Note_on_c, 3, 48, 80
5, 113639, Note_on_c, 3, 48, 0
5, 113640, Note_on_c, 3, 48, 80
5, 113759, Note_on_c, 3, 48, 0
5, 113760, Note_on_c, 3, 48, 80
5, 113879, Note_on_c, 3, 48, 0
5, 113880, Note_on_c, 3, 48, 80
5, 113999, Note_on_c, 3, 48, 0
5, 114000, Note_on_c, 3, 60, 80
5, 114000, Note_on_c, 3, 64, 80
5, 114719, Note_on_c, 3, 60, 0
5, 114719, Note_on_c, 3, 64, 0
5, 114720, Note_on_c, 3, 48, 80
5, 114959, Note_on_c, 3, 48, 0
5, 114960, Note_on_c, 3, 55, 80
5, 114960, Note_on_c, 3, 60, 80
5, 115199, Note_on_c, 3, 55, 0
5, 115199, Note_on_c, 3, 60, 0
5, 115200, Note_on_c, 3, 48, 80
5, 115439, Note_on_c, 3, 48, 0
5, 115440, Note_on_c, 3, 48, 80
5, 115559, Note_on_c, 3, 48, 0
5, 115560, Note_on_c, 3, 48, 80
5, 115679, Note_on_c, 3, 48, 0
5, 115680, Note_on_c, 3, 60, 80
5, 115680, Note_on_c, 3, 64, 80
5, 115919, Note_on_c, 3, 60, 0
5, 115919, Note_on_c, 3, 64, 0
5, 115920, Note_on_c, 3, 48, 80
5, 116039, Note_on_c, 3, 48, 0
5, 116040, Note_on_c, 3, 48, 80
5, 116159, Note_on_c, 3, 48, 0
5, 116160, Note_on_c, 3, 48, 80
5, 116279, Note_on_c, 3, 48, 0
5, 116280, Note_on_c, 3, 48, 80
5, 116399, Note_on_c, 3, 48, 0
5, 116400, Note_on_c, 3, 62, 80
5, 116400, Note_on_c, 3, 67, 80
5, 116639, Note_on_c, 3, 62, 0
5, 116639, Note_on_c, 3, 67, 0
5, 116640, Note_on_c, 3, 48, 80
5, 116759, Note_on_c, 3, 48, 0
5, 116760, Note_on_c, 3, 48, 80
5, 116879, Note_on_c, 3, 48, 0
5, 116880, Note_on_c, 3, 48, 80
5, 116999, Note_on_c, 3, 48, 0
5, 117000, Note_on_c, 3, 48, 80
5, 117119, Note_on_c, 3, 48, 0
5, 117120, Note_on_c, 3, 60, 80
5, 117120, Note_on_c, 3, 65, 80
5, 117359, Note_on_c, 3, 60, 0
5, 117359, Note_on_c, 3, 65, 0
5, 117360, Note_on_c, 3, 48, 80
5, 117479, Note_on_c, 3, 48, 0
5, 117480, Note_on_c, 3, 48, 80
5, 117599, Note_on_c, 3, 48, 0
5, 117600, Note_on_c, 3, 48, 80
5, 117719, Note_on_c, 3, 48, 0
5, 117720, Note_on_c, 3, 48, 80
5, 117839, Note_on_c, 3, 48, 0
5, 117840, Note_on_c, 3, 60, 80
5, 117840, Note_on_c, 3, 64, 80
5, 118319, Note_on_c, 3, 60, 0
5, 118319, Note_on_c, 3, 64, 0
5, 118560, Note_on_c, 3, 55, 80
5, 118799, Note_on_c, 3, 55, 0
5, 118800, Note_on_c, 3, 55, 80
5, 118800, Note_on_c, 3, 60, 80
5, 119039, Note_on_c, 3, 55, 0
5, 119039, Note_on_c, 3, 60, 0
5, 119040, Note_on_c, 3, 48, 80
5, 119279, Note_on_c, 3, 48, 0
5, 119280, Note_on_c, 3, 48, 80
5, 119399, Note_on_c, 3, 48, 0
5, 119400, Note_on_c, 3, 48, 80
5, 119519, Note_on_c, 3, 48, 0
5, 119520, Note_on_c, 3, 60, 80
5, 119520, Note_on_c, 3, 64, 80
5, 119759, Note_on_c, 3, 60, 0
5, 119759, Note_on_c, 3, 64, 0
5, 119760, Note_on_c, 3, 48, 80
5, 119879, Note_on_c, 3, 48, 0
5, 119880, Note_on_c, 3, 48, 80
5, 119999, Note_on_c, 3, 48, 0
5, 120000, Note_on_c, 3, 48, 80
5, 120119, Note_on_c, 3, 48, 0
5, 120120, Note_on_c, 3, 48, 80
5, 120239, Note_on_c, 3, 48, 0
5, 120240, Note_on_c, 3, 62, 80
5, 120240, Note_on_c, 3, 67, 80
5, 120479, Note_on_c, 3, 62, 0
5, 120479, Note_on_c, 3, 67, 0
5, 120480, Note_on_c, 3, 48, 80
5, 120599, Note_on_c, 3, 48, 0
5, 120600, Note_on_c, 3, 48, 80
5, 120719, Note_on_c, 3, 48, 0
5, 120720, Note_on_c, 3, 48, 80
5, 120839, Note_on_c, 3, 48, 0
5, 120840, Note_on_c, 3, 48, 80
5, 120959, Note_on_c, 3, 48, 0
5, 120960, Note_on_c, 3, 60, 80
5, 120960, Note_on_c, 3, 65, 80
5, 121199, Note_on_c, 3, 60, 0
5, 121199, Note_on_c, 3, 65, 0
5, 121200, Note_on_c, 3, 48, 80
5, 121319, Note_on_c, 3, 48, 0
5, 121320, Note_on_c, 3, 48, 80
5, 121439, Note_on_c, 3, 48, 0
5, 121440, Note_on_c, 3, 48, 80
5, 121559, Note_on_c, 3, 48, 0
5, 121560, Note_on_c, 3, 48, 80
5, 121679, Note_on_c, 3, 48, 0
5, 121680, Note_on_c, 3, 60, 80
5, 121680, Note_on_c, 3, 64, 80
5, 122399, Note_on_c, 3, 60, 0
5, 122399, Note_on_c, 3, 64, 0
5, 122400, Note_on_c, 3, 48, 80
5, 122639, Note_on_c, 3, 48, 0
5, 122640, Note_on_c, 3, 55, 80
5, 122640, Note_on_c, 3, 60, 80
5, 122879, Note_on_c, 3, 55, 0
5, 122879, Note_on_c, 3, 60, 0
5, 122880, Note_on_c, 3, 48, 80
5, 123119, Note_on_c, 3, 48, 0
5, 123120, Note_on_c, 3, 48, 80
5, 123239, Note_on_c, 3, 48, 0
5, 123240, Note_on_c, 3, 48, 80
5, 123359, Note_on_c, 3, 48, 0
5, 123360, Note_on_c, 3, 60, 80
5, 123360, Note_on_c, 3, 64, 80
5, 123599, Note_on_c, 3, 60, 0
5, 123599, Note_on_c, 3, 64, 0
5, 123600, Note_on_c, 3, 48, 80
5, 123719, Note_on_c, 3, 48, 0
5, 123720, Note_on_c, 3, 48, 80
5, 123839, Note_on_c, 3, 48, 0
5, 123840, Note_on_c, 3, 48, 80
5, 123959, Note_on_c, 3, 48, 0
5, 123960, Note_on_c, 3, 48, 80
5, 124079, Note_on_c, 3, 48, 0
5, 124080, Note_on_c, 3, 62, 80
5, 124080, Note_on_c, 3, 67, 80
5, 124319, Note_on_c, 3, 62, 0
5, 124319, Note_on_c, 3, 67, 0
5, 124320, Note_on_c, 3, 48, 80
5, 124439, Note_on_c, 3, 48, 0
5, 124440, Note_on_c, 3, 48, 80
5, 124559, Note_on_c, 3, 48, 0
5, 124560, Note_on_c, 3, 48, 80
5, 124679, Note_on_c, 3, 48, 0
5, 124680, Note_on_c, 3, 48, 80
5, 124799, Note_on_c, 3, 48, 0
5, 124800, Note_on_c, 3, 60, 80
5, 124800, Note_on_c, 3, 65, 80
5, 125039, Note_on_c, 3, 60, 0
5, 125039, Note_on_c, 3, 65, 0
5, 125040, Note_on_c, 3, 48, 80
5, 125159, Note_on_c, 3, 48, 0
5, 125160, Note_on_c, 3, 48, 80
5, 125279, Note_on_c, 3, 48, 0
5, 125280, Note_on_c, 3, 48, 80
5, 125399, Note_on_c, 3, 48, 0
5, 125400, Note_on_c, 3, 48, 80
5, 125519, Note_on_c, 3, 48, 0
5, 125520, Note_on_c, 3, 60, 80
5, 125520, Note_on_c, 3, 64, 80
5, 125999, Note_on_c, 3, 60, 0
5, 125999, Note_on_c, 3, 64, 0
5, 126240, Note_on_c, 3, 55, 80
5, 126479, Note_on_c, 3, 55, 0
5, 126480, Note_on_c, 3, 55, 80
5, 126480, Note_on_c, 3, 60, 80
5, 126719, Note_on_c, 3, 55, 0
5, 126719, Note_on_c, 3, 60, 0
5, 126720, Note_on_c, 3, 48, 80
5, 126959, Note_on_c, 3, 48, 0
5, 126960, Note_on_c, 3, 48, 80
5, 127079, Note_on_c, 3, 48, 0
5, 127080, Note_on_c, 3, 48, 80
5, 127199, Note_on_c, 3, 48, 0
5, 127200, Note_on_c, 3, 60, 80
5, 127200, Note_on_c, 3, 64, 80
5, 127439, Note_on_c, 3, 60, 0
5, 127439, Note_on_c, 3, 64, 0
5, 127440, Note_on_c, 3, 48, 80
5, 127559, Note_on_c, 3, 48, 0
5, 127560, Note_on_c, 3, 48, 80
5, 127679, Note_on_c, 3, 48, 0
5, 127680, Note_on_c, 3, 48, 80
5, 127799, Note_on_c, 3, 48, 0
5, 127800, Note_on_c, 3, 48, 80
5, 127919, Note_on_c, 3, 48, 0
5, 127920, Note_on_c, 3, 62, 80
5, 127920, Note_on_c, 3, 67, 80
5, 128159, Note_on_c, 3, 62, 0
5, 128159, Note_on_c, 3, 67, 0
5, 128160, Note_on_c, 3, 48, 80
5, 128279, Note_on_c, 3, 48, 0
5, 128280, Note_on_c, 3, 48, 80
5, 128399, Note_on_c, 3, 48, 0
5, 128400, Note_on_c, 3, 48, 80
5, 128519, Note_on_c, 3, 48, 0
5, 128520, Note_on_c, 3, 48, 80
5, 128639, Note_on_c, 3, 48, 0
5, 128640, Note_on_c, 3, 60, 80
5, 128640, Note_on_c, 3, 65, 80
5, 128879, Note_on_c, 3, 60, 0
5, 128879, Note_on_c, 3, 65, 0
5, 128880, Note_on_c, 3, 48, 80
5, 128999, Note_on_c, 3, 48, 0
5, 129000, Note_on_c, 3, 48, 80
5, 129119, Note_on_c, 3, 48, 0
5, 129120, Note_on_c, 3, 48, 80
5, 129239, Note_on_c, 3, 48, 0
5, 129240, Note_on_c, 3, 48, 80
5, 129359, Note_on_c, 3, 48, 0
5, 129360, Note_on_c, 3, 60, 80
5, 129360, Note_on_c, 3, 64, 80
5, 130079, Note_on_c, 3, 60, 0
5, 130079, Note_on_c, 3, 64, 0
5, 130080, Note_on_c, 3, 48, 80
5, 130319, Note_on_c, 3, 48, 0
5, 130320, Note_on_c, 3, 55, 80
5, 130320, Note_on_c, 3, 60, 80
5, 130559, Note_on_c, 3, 55, 0
5, 130559, Note_on_c, 3, 60, 0
5, 130560, Note_on_c, 3, 48, 80
5, 130799, Note_on_c, 3, 48, 0
5, 130800, Note_on_c, 3, 48, 80
5, 130919, Note_on_c, 3, 48, 0
5, 130920, Note_on_c, 3, 48, 80
5, 131039, Note_on_c, 3, 48, 0
5, 131040, Note_on_c, 3, 60, 80
5, 131040, Note_on_c, 3, 64, 80
5, 131279, Note_on_c, 3, 60, 0
5, 131279, Note_on_c, 3, 64, 0
5, 131280, Note_on_c, 3, 48, 80
5, 131399, Note_on_c, 3, 48, 0
5, 131400, Note_on_c, 3, 48, 80
5, 131519, Note_on_c, 3, 48, 0
5, 131520, Note_on_c, 3, 48, 80
5, 131639, Note_on_c, 3, 48, 0
5, 131640, Note_on_c, 3, 48, 80
5, 131759, Note_on_c, 3, 48, 0
5, 131760, Note_on_c, 3, 62, 80
5, 131760, Note_on_c, 3, 67, 80
5, 131999, Note_on_c, 3, 62, 0
5, 131999, Note_on_c, 3, 67, 0
5, 132000, Note_on_c, 3, 48, 80
5, 132119, Note_on_c, 3, 48, 0
5, 132120, Note_on_c, 3, 48, 80
5, 132239, Note_on_c, 3, 48, 0
5, 132240, Note_on_c, 3, 48, 80
5, 132359, Note_on_c, 3, 48, 0
5, 132360, Note_on_c, 3, 48, 80
5, 132479, Note_on_c, 3, 48, 0
5, 132480, Note_on_c, 3, 60, 80
5, 132480, Note_on_c, 3, 65, 80
5, 132719, Note_on_c, 3, 60, 0
5, 132719, Note_on_c, 3, 65, 0
5, 132720, Note_on_c, 3, 48, 80
5, 132839, Note_on_c, 3, 48, 0
5, 132840, Note_on_c, 3, 48, 80
5, 132959, Note_on_c, 3, 48, 0
5, 132960, Note_on_c, 3, 48, 80
5, 133079, Note_on_c, 3, 48, 0
5, 133080, Note_on_c, 3, 48, 80
5, 133199, Note_on_c, 3, 48, 0
5, 133200, Note_on_c, 3, 60, 80
5, 133200, Note_on_c, 3, 64, 80
5, 133679, Note_on_c, 3, 60, 0
5, 133679, Note_on_c, 3, 64, 0
5, 133680, End_track
0, 0, End_of_file
