0, 0, Header, 1, 3, 480
1, 0, Start_track
1, 0, Title_t, "Piano, Piano, Piano\000"
1, 0, Time_signature, 2, 2, 24, 8
1, 0, Key_signature, 0, "major"
1, 0, Tempo, 857143
1, 0, Control_c, 0, 121, 0
1, 0, Program_c, 0, 0
1, 0, Control_c, 0, 7, 100
1, 0, Control_c, 0, 10, 64
1, 0, Control_c, 0, 91, 0
1, 0, Control_c, 0, 93, 0
1, 0, MIDI_port, 0
1, 960, Time_signature, 4, 2, 24, 8
1, 1680, Note_on_c, 0, 76, 80
1, 2363, Note_on_c, 0, 76, 0
1, 2400, Note_on_c, 0, 77, 80
1, 2551, Note_on_c, 0, 77, 0
1, 2560, Note_on_c, 0, 79, 80
1, 2711, Note_on_c, 0, 79, 0
1, 2720, Note_on_c, 0, 76, 80
1, 2871, Note_on_c, 0, 76, 0
1, 2880, Note_on_c, 0, 74, 80
1, 3791, Note_on_c, 0, 74, 0
1, 3840, Note_on_c, 0, 81, 80
1, 4181, Note_on_c, 0, 81, 0
1, 4200, Note_on_c, 0, 79, 80
1, 4541, Note_on_c, 0, 79, 0
1, 5040, Note_on_c, 0, 71, 80
1, 5267, Note_on_c, 0, 71, 0
1, 5280, Note_on_c, 0, 69, 80
1, 5393, Note_on_c, 0, 69, 0
1, 5400, Note_on_c, 0, 72, 80
1, 5513, Note_on_c, 0, 72, 0
1, 5520, Note_on_c, 0, 71, 80
1, 5633, Note_on_c, 0, 71, 0
1, 5640, Note_on_c, 0, 74, 80
1, 5753, Note_on_c, 0, 74, 0
1, 5760, Note_on_c, 0, 72, 80
1, 5873, Note_on_c, 0, 72, 0
1, 5880, Note_on_c, 0, 76, 80
1, 5993, Note_on_c, 0, 76, 0
1, 6000, Note_on_c, 0, 74, 80
1, 6113, Note_on_c, 0, 74, 0
1, 6120, Note_on_c, 0, 77, 80
1, 6233, Note_on_c, 0, 77, 0
1, 6240, Note_on_c, 0, 76, 80
1, 6353, Note_on_c, 0, 76, 0
1, 6360, Note_on_c, 0, 79, 80
1, 6701, Note_on_c, 0, 79, 0
1, 6720, Note_on_c, 0, 76, 80
1, 8087, Note_on_c, 0, 76, 0
1, 8160, Note_on_c, 0, 76, 80
1, 8387, Note_on_c, 0, 76, 0
1, 8400, Note_on_c, 0, 77, 80
1, 8627, Note_on_c, 0, 77, 0
1, 8640, Note_on_c, 0, 76, 80
1, 9095, Note_on_c, 0, 76, 0
1, 9120, Note_on_c, 0, 74, 80
1, 9210, Note_on_c, 0, 74, 0
1, 9216, Note_on_c, 0, 71, 80
1, 9306, Note_on_c, 0, 71, 0
1, 9312, Note_on_c, 0, 69, 80
1, 9402, Note_on_c, 0, 69, 0
1, 9408, Note_on_c, 0, 65, 80
1, 9498, Note_on_c, 0, 65, 0
1, 9504, Note_on_c, 0, 64, 80
1, 10278, Note_on_c, 0, 64, 0
1, 10320, Note_on_c, 0, 65, 80
1, 10395, Note_on_c, 0, 65, 0
1, 10400, Note_on_c, 0, 64, 80
1, 10475, Note_on_c, 0, 64, 0
1, 10480, Note_on_c, 0, 62, 80
1, 10555, Note_on_c, 0, 62, 0
1, 10560, Note_on_c, 0, 64, 80
1, 10787, Note_on_c, 0, 64, 0
1, 10800, Note_on_c, 0, 64, 80
1, 11027, Note_on_c, 0, 64, 0
1, 11040, Note_on_c, 0, 71, 80
1, 11267, Note_on_c, 0, 71, 0
1, 11280, Note_on_c, 0, 72, 80
1, 11507, Note_on_c, 0, 72, 0
1, 11520, Note_on_c, 0, 79, 80
1, 11747, Note_on_c, 0, 79, 0
1, 11760, Note_on_c, 0, 71, 80
1, 11987, Note_on_c, 0, 71, 0
1, 12000, Note_on_c, 0, 72, 80
1, 12227, Note_on_c, 0, 72, 0
1, 12240, Note_on_c, 0, 79, 80
1, 12467, Note_on_c, 0, 79, 0
1, 12480, Note_on_c, 0, 76, 80
1, 13391, Note_on_c, 0, 76, 0
1, 13760, Tempo, 789474
1, 13800, Note_on_c, 0, 67, 80
1, 13913, Note_on_c, 0, 67, 0
1, 13920, Note_on_c, 0, 72, 80
1, 14071, Note_on_c, 0, 72, 0
1, 14240, Note_on_c, 0, 74, 80
1, 14391, Note_on_c, 0, 74, 0
1, 14400, Note_on_c, 0, 69, 80
1, 14430, Note_on_c, 0, 72, 80
1, 14520, Note_on_c, 0, 76, 80
1, 14855, Note_on_c, 0, 69, 0
1, 14856, Note_on_c, 0, 72, 0
1, 14861, Note_on_c, 0, 76, 0
1, 15200, Note_on_c, 0, 69, 80
1, 15200, Note_on_c, 0, 72, 80
1, 15200, Note_on_c, 0, 76, 80
1, 15351, Note_on_c, 0, 69, 0
1, 15351, Note_on_c, 0, 72, 0
1, 15351, Note_on_c, 0, 76, 0
1, 15360, Note_on_c, 0, 69, 80
1, 15360, Note_on_c, 0, 72, 80
1, 15360, Note_on_c, 0, 76, 80
1, 15511, Note_on_c, 0, 69, 0
1, 15511, Note_on_c, 0, 72, 0
1, 15511, Note_on_c, 0, 76, 0
1, 15680, Note_on_c, 0, 77, 80
1, 15831, Note_on_c, 0, 77, 0
1, 16000, Note_on_c, 0, 74, 80
1, 16151, Note_on_c, 0, 74, 0
1, 16160, Note_on_c, 0, 72, 80
1, 16311, Note_on_c, 0, 72, 0
1, 16320, Note_on_c, 0, 69, 80
1, 16320, Note_on_c, 0, 74, 80
1, 17231, Note_on_c, 0, 69, 0
1, 17231, Note_on_c, 0, 74, 0
1, 17760, Note_on_c, 0, 67, 80
1, 17911, Note_on_c, 0, 67, 0
1, 17920, Note_on_c, 0, 71, 80
1, 18071, Note_on_c, 0, 71, 0
1, 18080, Note_on_c, 0, 72, 80
1, 18231, Note_on_c, 0, 72, 0
1, 18240, Note_on_c, 0, 67, 80
1, 18360, Note_on_c, 0, 74, 80
1, 18391, Note_on_c, 0, 67, 0
1, 18400, Note_on_c, 0, 71, 80
1, 18539, Note_on_c, 0, 74, 0
1, 18551, Note_on_c, 0, 71, 0
1, 18560, Note_on_c, 0, 67, 80
1, 18560, Note_on_c, 0, 71, 80
1, 18560, Note_on_c, 0, 74, 80
1, 18711, Note_on_c, 0, 67, 0
1, 18711, Note_on_c, 0, 71, 0
1, 18711, Note_on_c, 0, 74, 0
1, 19040, Note_on_c, 0, 67, 80
1, 19040, Note_on_c, 0, 71, 80
1, 19040, Note_on_c, 0, 74, 80
1, 19191, Note_on_c, 0, 67, 0
1, 19191, Note_on_c, 0, 71, 0
1, 19191, Note_on_c, 0, 74, 0
1, 19200, Note_on_c, 0, 67, 80
1, 19200, Note_on_c, 0, 71, 80
1, 19200, Note_on_c, 0, 74, 80
1, 19351, Note_on_c, 0, 67, 0
1, 19351, Note_on_c, 0, 71, 0
1, 19351, Note_on_c, 0, 74, 0
1, 19520, Note_on_c, 0, 76, 80
1, 19671, Note_on_c, 0, 76, 0
1, 19840, Note_on_c, 0, 72, 80
1, 19991, Note_on_c, 0, 72, 0
1, 20000, Note_on_c, 0, 71, 80
1, 20151, Note_on_c, 0, 71, 0
1, 20160, Note_on_c, 0, 64, 80
1, 20160, Note_on_c, 0, 69, 80
1, 20615, Note_on_c, 0, 64, 0
1, 20615, Note_on_c, 0, 69, 0
1, 20640, Note_on_c, 0, 71, 80
1, 20791, Note_on_c, 0, 71, 0
1, 20960, Note_on_c, 0, 72, 80
1, 21111, Note_on_c, 0, 72, 0
1, 21120, Note_on_c, 0, 65, 80
1, 21120, Note_on_c, 0, 69, 80
1, 21120, Note_on_c, 0, 74, 80
1, 21575, Note_on_c, 0, 65, 0
1, 21575, Note_on_c, 0, 69, 0
1, 21575, Note_on_c, 0, 74, 0
1, 21600, Note_on_c, 0, 67, 80
1, 21600, Note_on_c, 0, 71, 80
1, 21751, Note_on_c, 0, 67, 0
1, 21751, Note_on_c, 0, 71, 0
1, 21920, Note_on_c, 0, 69, 80
1, 22071, Note_on_c, 0, 69, 0
1, 22080, Note_on_c, 0, 64, 80
1, 22080, Note_on_c, 0, 67, 80
1, 22080, Note_on_c, 0, 71, 80
1, 22535, Note_on_c, 0, 64, 0
1, 22535, Note_on_c, 0, 67, 0
1, 22535, Note_on_c, 0, 71, 0
1, 22720, Note_on_c, 0, 64, 80
1, 22871, Note_on_c, 0, 64, 0
1, 22880, Note_on_c, 0, 71, 80
1, 23031, Note_on_c, 0, 71, 0
1, 23040, Note_on_c, 0, 64, 80
1, 23040, Note_on_c, 0, 69, 80
1, 23191, Note_on_c, 0, 64, 0
1, 23191, Note_on_c, 0, 69, 0
1, 23360, Note_on_c, 0, 64, 80
1, 23511, Note_on_c, 0, 64, 0
1, 23520, Note_on_c, 0, 76, 80
1, 23599, Note_on_c, 0, 76, 0
1, 23840, Note_on_c, 0, 74, 80
1, 23991, Note_on_c, 0, 74, 0
1, 24000, Note_on_c, 0, 69, 80
1, 24120, Note_on_c, 0, 76, 80
1, 24151, Note_on_c, 0, 69, 0
1, 24160, Note_on_c, 0, 72, 80
1, 24299, Note_on_c, 0, 76, 0
1, 24311, Note_on_c, 0, 72, 0
1, 24320, Note_on_c, 0, 69, 80
1, 24320, Note_on_c, 0, 72, 80
1, 24320, Note_on_c, 0, 76, 80
1, 24471, Note_on_c, 0, 69, 0
1, 24471, Note_on_c, 0, 72, 0
1, 24471, Note_on_c, 0, 76, 0
1, 24800, Note_on_c, 0, 69, 80
1, 24800, Note_on_c, 0, 72, 80
1, 24800, Note_on_c, 0, 76, 80
1, 24951, Note_on_c, 0, 69, 0
1, 24951, Note_on_c, 0, 72, 0
1, 24951, Note_on_c, 0, 76, 0
1, 24960, Note_on_c, 0, 69, 80
1, 24960, Note_on_c, 0, 72, 80
1, 24960, Note_on_c, 0, 76, 80
1, 25111, Note_on_c, 0, 69, 0
1, 25111, Note_on_c, 0, 72, 0
1, 25111, Note_on_c, 0, 76, 0
1, 25280, Note_on_c, 0, 77, 80
1, 25431, Note_on_c, 0, 77, 0
1, 25600, Note_on_c, 0, 74, 80
1, 25751, Note_on_c, 0, 74, 0
1, 25760, Note_on_c, 0, 72, 80
1, 25911, Note_on_c, 0, 72, 0
1, 25920, Note_on_c, 0, 69, 80
1, 25920, Note_on_c, 0, 74, 80
1, 26831, Note_on_c, 0, 69, 0
1, 26831, Note_on_c, 0, 74, 0
1, 27360, Note_on_c, 0, 67, 80
1, 27511, Note_on_c, 0, 67, 0
1, 27520, Note_on_c, 0, 71, 80
1, 27671, Note_on_c, 0, 71, 0
1, 27680, Note_on_c, 0, 72, 80
1, 27831, Note_on_c, 0, 72, 0
1, 27840, Note_on_c, 0, 67, 80
1, 27960, Note_on_c, 0, 74, 80
1, 27991, Note_on_c, 0, 67, 0
1, 28000, Note_on_c, 0, 71, 80
1, 28139, Note_on_c, 0, 74, 0
1, 28151, Note_on_c, 0, 71, 0
1, 28160, Note_on_c, 0, 67, 80
1, 28160, Note_on_c, 0, 71, 80
1, 28160, Note_on_c, 0, 74, 80
1, 28311, Note_on_c, 0, 67, 0
1, 28311, Note_on_c, 0, 71, 0
1, 28311, Note_on_c, 0, 74, 0
1, 28640, Note_on_c, 0, 67, 80
1, 28640, Note_on_c, 0, 71, 80
1, 28640, Note_on_c, 0, 74, 80
1, 28791, Note_on_c, 0, 67, 0
1, 28791, Note_on_c, 0, 71, 0
1, 28791, Note_on_c, 0, 74, 0
1, 28800, Note_on_c, 0, 67, 80
1, 28800, Note_on_c, 0, 71, 80
1, 28800, Note_on_c, 0, 74, 80
1, 28951, Note_on_c, 0, 67, 0
1, 28951, Note_on_c, 0, 71, 0
1, 28951, Note_on_c, 0, 74, 0
1, 29120, Note_on_c, 0, 76, 80
1, 29271, Note_on_c, 0, 76, 0
1, 29440, Note_on_c, 0, 72, 80
1, 29591, Note_on_c, 0, 72, 0
1, 29600, Note_on_c, 0, 71, 80
1, 29751, Note_on_c, 0, 71, 0
1, 29760, Note_on_c, 0, 64, 80
1, 29760, Note_on_c, 0, 69, 80
1, 30215, Note_on_c, 0, 64, 0
1, 30215, Note_on_c, 0, 69, 0
1, 30240, Note_on_c, 0, 71, 80
1, 30391, Note_on_c, 0, 71, 0
1, 30560, Note_on_c, 0, 72, 80
1, 30711, Note_on_c, 0, 72, 0
1, 30720, Note_on_c, 0, 65, 80
1, 30720, Note_on_c, 0, 69, 80
1, 30720, Note_on_c, 0, 74, 80
1, 31175, Note_on_c, 0, 65, 0
1, 31175, Note_on_c, 0, 69, 0
1, 31175, Note_on_c, 0, 74, 0
1, 31200, Note_on_c, 0, 67, 80
1, 31200, Note_on_c, 0, 71, 80
1, 31351, Note_on_c, 0, 67, 0
1, 31351, Note_on_c, 0, 71, 0
1, 31520, Note_on_c, 0, 69, 80
1, 31671, Note_on_c, 0, 69, 0
1, 31680, Note_on_c, 0, 64, 80
1, 31680, Note_on_c, 0, 67, 80
1, 32135, Note_on_c, 0, 64, 0
1, 32135, Note_on_c, 0, 67, 0
1, 32320, Note_on_c, 0, 64, 80
1, 32471, Note_on_c, 0, 64, 0
1, 32480, Note_on_c, 0, 67, 80
1, 32631, Note_on_c, 0, 67, 0
1, 32640, Note_on_c, 0, 64, 80
1, 32640, Note_on_c, 0, 69, 80
1, 32791, Note_on_c, 0, 64, 0
1, 32791, Note_on_c, 0, 69, 0
1, 32960, Note_on_c, 0, 67, 80
1, 33111, Note_on_c, 0, 67, 0
1, 33120, Note_on_c, 0, 76, 80
1, 33271, Note_on_c, 0, 76, 0
1, 33280, Note_on_c, 0, 77, 80
1, 33431, Note_on_c, 0, 77, 0
1, 33440, Note_on_c, 0, 79, 80
1, 33591, Note_on_c, 0, 79, 0
1, 33600, Note_on_c, 0, 69, 80
1, 33600, Note_on_c, 0, 79, 80
1, 33751, Note_on_c, 0, 69, 0
1, 33751, Note_on_c, 0, 79, 0
1, 33920, Note_on_c, 0, 69, 80
1, 33920, Note_on_c, 0, 77, 80
1, 34071, Note_on_c, 0, 69, 0
1, 34071, Note_on_c, 0, 77, 0
1, 34240, Note_on_c, 0, 69, 80
1, 34240, Note_on_c, 0, 77, 80
1, 34391, Note_on_c, 0, 69, 0
1, 34391, Note_on_c, 0, 77, 0
1, 34400, Note_on_c, 0, 76, 80
1, 34551, Note_on_c, 0, 76, 0
1, 34560, Note_on_c, 0, 69, 80
1, 34560, Note_on_c, 0, 77, 80
1, 35015, Note_on_c, 0, 69, 0
1, 35015, Note_on_c, 0, 77, 0
1, 35040, Note_on_c, 0, 69, 80
1, 35040, Note_on_c, 0, 77, 80
1, 35191, Note_on_c, 0, 69, 0
1, 35191, Note_on_c, 0, 77, 0
1, 35200, Note_on_c, 0, 79, 80
1, 35351, Note_on_c, 0, 79, 0
1, 35360, Note_on_c, 0, 81, 80
1, 35511, Note_on_c, 0, 81, 0
1, 35520, Note_on_c, 0, 71, 80
1, 35520, Note_on_c, 0, 74, 80
1, 35520, Note_on_c, 0, 81, 80
1, 35671, Note_on_c, 0, 71, 0
1, 35671, Note_on_c, 0, 74, 0
1, 35671, Note_on_c, 0, 81, 0
1, 35840, Note_on_c, 0, 71, 80
1, 35840, Note_on_c, 0, 79, 80
1, 35991, Note_on_c, 0, 71, 0
1, 35991, Note_on_c, 0, 79, 0
1, 36160, Note_on_c, 0, 71, 80
1, 36160, Note_on_c, 0, 79, 80
1, 36311, Note_on_c, 0, 71, 0
1, 36311, Note_on_c, 0, 79, 0
1, 36320, Note_on_c, 0, 81, 80
1, 36471, Note_on_c, 0, 81, 0
1, 36480, Note_on_c, 0, 71, 80
1, 36480, Note_on_c, 0, 79, 80
1, 36935, Note_on_c, 0, 71, 0
1, 36935, Note_on_c, 0, 79, 0
1, 36960, Note_on_c, 0, 79, 80
1, 37111, Note_on_c, 0, 79, 0
1, 37120, Note_on_c, 0, 81, 80
1, 37271, Note_on_c, 0, 81, 0
1, 37280, Note_on_c, 0, 83, 80
1, 37431, Note_on_c, 0, 83, 0
1, 37440, Note_on_c, 0, 72, 80
1, 37440, Note_on_c, 0, 76, 80
1, 37440, Note_on_c, 0, 83, 80
1, 37591, Note_on_c, 0, 72, 0
1, 37591, Note_on_c, 0, 76, 0
1, 37591, Note_on_c, 0, 83, 0
1, 37760, Note_on_c, 0, 72, 80
1, 37760, Note_on_c, 0, 81, 80
1, 37911, Note_on_c, 0, 72, 0
1, 37911, Note_on_c, 0, 81, 0
1, 38080, Note_on_c, 0, 72, 80
1, 38080, Note_on_c, 0, 81, 80
1, 38231, Note_on_c, 0, 72, 0
1, 38231, Note_on_c, 0, 81, 0
1, 38400, Note_on_c, 0, 72, 80
1, 38400, Note_on_c, 0, 76, 80
1, 38400, Note_on_c, 0, 81, 80
1, 38855, Note_on_c, 0, 72, 0
1, 38855, Note_on_c, 0, 76, 0
1, 38855, Note_on_c, 0, 81, 0
1, 38880, Note_on_c, 0, 74, 80
1, 39335, Note_on_c, 0, 74, 0
1, 39360, Note_on_c, 0, 71, 80
1, 39599, Note_on_c, 0, 71, 0
1, 39840, Note_on_c, 0, 77, 80
1, 40295, Note_on_c, 0, 77, 0
1, 40320, Note_on_c, 0, 76, 80
1, 40775, Note_on_c, 0, 76, 0
1, 41120, Note_on_c, 0, 76, 80
1, 41271, Note_on_c, 0, 76, 0
1, 41280, Note_on_c, 0, 69, 80
1, 41310, Note_on_c, 0, 72, 80
1, 41400, Note_on_c, 0, 76, 80
1, 41735, Note_on_c, 0, 69, 0
1, 41736, Note_on_c, 0, 72, 0
1, 41741, Note_on_c, 0, 76, 0
1, 42240, Note_on_c, 0, 69, 80
1, 42240, Note_on_c, 0, 74, 80
1, 42391, Note_on_c, 0, 69, 0
1, 42391, Note_on_c, 0, 74, 0
1, 42560, Note_on_c, 0, 69, 80
1, 42560, Note_on_c, 0, 76, 80
1, 42711, Note_on_c, 0, 69, 0
1, 42711, Note_on_c, 0, 76, 0
1, 42880, Note_on_c, 0, 72, 80
1, 42880, Note_on_c, 0, 79, 80
1, 43031, Note_on_c, 0, 72, 0
1, 43031, Note_on_c, 0, 79, 0
1, 43040, Note_on_c, 0, 69, 80
1, 43040, Note_on_c, 0, 76, 80
1, 43191, Note_on_c, 0, 69, 0
1, 43191, Note_on_c, 0, 76, 0
1, 43200, Note_on_c, 0, 67, 80
1, 43200, Note_on_c, 0, 74, 80
1, 43351, Note_on_c, 0, 67, 0
1, 43351, Note_on_c, 0, 74, 0
1, 43360, Note_on_c, 0, 67, 80
1, 43360, Note_on_c, 0, 72, 80
1, 43511, Note_on_c, 0, 67, 0
1, 43511, Note_on_c, 0, 72, 0
1, 43520, Note_on_c, 0, 67, 80
1, 43520, Note_on_c, 0, 72, 80
1, 43671, Note_on_c, 0, 67, 0
1, 43671, Note_on_c, 0, 72, 0
1, 44320, Note_on_c, 0, 76, 80
1, 44320, Note_on_c, 0, 79, 80
1, 44471, Note_on_c, 0, 76, 0
1, 44471, Note_on_c, 0, 79, 0
1, 44480, Note_on_c, 0, 79, 80
1, 44631, Note_on_c, 0, 79, 0
1, 44640, Note_on_c, 0, 79, 80
1, 44719, Note_on_c, 0, 79, 0
1, 44800, Note_on_c, 0, 67, 80
1, 44951, Note_on_c, 0, 67, 0
1, 44960, Note_on_c, 0, 76, 80
1, 45111, Note_on_c, 0, 76, 0
1, 45120, Note_on_c, 0, 69, 80
1, 45120, Note_on_c, 0, 72, 80
1, 45120, Note_on_c, 0, 76, 80
1, 45271, Note_on_c, 0, 69, 0
1, 45271, Note_on_c, 0, 72, 0
1, 45271, Note_on_c, 0, 76, 0
1, 45440, Note_on_c, 0, 69, 80
1, 45440, Note_on_c, 0, 72, 80
1, 45440, Note_on_c, 0, 76, 80
1, 45591, Note_on_c, 0, 69, 0
1, 45591, Note_on_c, 0, 72, 0
1, 45591, Note_on_c, 0, 76, 0
1, 45920, Note_on_c, 0, 69, 80
1, 45920, Note_on_c, 0, 72, 80
1, 45920, Note_on_c, 0, 76, 80
1, 46071, Note_on_c, 0, 69, 0
1, 46071, Note_on_c, 0, 72, 0
1, 46071, Note_on_c, 0, 76, 0
1, 46080, Note_on_c, 0, 69, 80
1, 46080, Note_on_c, 0, 74, 80
1, 46231, Note_on_c, 0, 69, 0
1, 46231, Note_on_c, 0, 74, 0
1, 46400, Note_on_c, 0, 69, 80
1, 46400, Note_on_c, 0, 76, 80
1, 46551, Note_on_c, 0, 69, 0
1, 46551, Note_on_c, 0, 76, 0
1, 46720, Note_on_c, 0, 72, 80
1, 46720, Note_on_c, 0, 79, 80
1, 46871, Note_on_c, 0, 72, 0
1, 46871, Note_on_c, 0, 79, 0
1, 46880, Note_on_c, 0, 69, 80
1, 46880, Note_on_c, 0, 76, 80
1, 47031, Note_on_c, 0, 69, 0
1, 47031, Note_on_c, 0, 76, 0
1, 47040, Note_on_c, 0, 67, 80
1, 47040, Note_on_c, 0, 74, 80
1, 47191, Note_on_c, 0, 67, 0
1, 47191, Note_on_c, 0, 74, 0
1, 47200, Note_on_c, 0, 67, 80
1, 47200, Note_on_c, 0, 72, 80
1, 47351, Note_on_c, 0, 67, 0
1, 47351, Note_on_c, 0, 72, 0
1, 47360, Note_on_c, 0, 67, 80
1, 47360, Note_on_c, 0, 72, 80
1, 47511, Note_on_c, 0, 67, 0
1, 47511, Note_on_c, 0, 72, 0
1, 48320, Note_on_c, 0, 79, 80
1, 48471, Note_on_c, 0, 79, 0
1, 48480, Note_on_c, 0, 84, 80
1, 48631, Note_on_c, 0, 84, 0
1, 48800, Note_on_c, 0, 83, 80
1, 48951, Note_on_c, 0, 83, 0
1, 48960, Note_on_c, 0, 81, 80
1, 49111, Note_on_c, 0, 81, 0
1, 49120, Note_on_c, 0, 79, 80
1, 49271, Note_on_c, 0, 79, 0
1, 49280, Note_on_c, 0, 81, 80
1, 49431, Note_on_c, 0, 81, 0
1, 49440, Note_on_c, 0, 65, 80
1, 49591, Note_on_c, 0, 65, 0
1, 49600, Note_on_c, 0, 69, 80
1, 49751, Note_on_c, 0, 69, 0
1, 49760, Note_on_c, 0, 65, 80
1, 49911, Note_on_c, 0, 65, 0
1, 49920, Note_on_c, 0, 74, 80
1, 50375, Note_on_c, 0, 74, 0
1, 50400, Note_on_c, 0, 81, 80
1, 50551, Note_on_c, 0, 81, 0
1, 50560, Note_on_c, 0, 79, 80
1, 50711, Note_on_c, 0, 79, 0
1, 50720, Note_on_c, 0, 77, 80
1, 50871, Note_on_c, 0, 77, 0
1, 50880, Note_on_c, 0, 71, 80
1, 50880, Note_on_c, 0, 79, 80
1, 51335, Note_on_c, 0, 71, 0
1, 51335, Note_on_c, 0, 79, 0
1, 51840, Note_on_c, 0, 69, 80
1, 51840, Note_on_c, 0, 77, 80
1, 52295, Note_on_c, 0, 69, 0
1, 52295, Note_on_c, 0, 77, 0
1, 52800, Note_on_c, 0, 67, 80
1, 52800, Note_on_c, 0, 76, 80
1, 52951, Note_on_c, 0, 67, 0
1, 52951, Note_on_c, 0, 76, 0
1, 53120, Note_on_c, 0, 67, 80
1, 53120, Note_on_c, 0, 76, 80
1, 53271, Note_on_c, 0, 67, 0
1, 53271, Note_on_c, 0, 76, 0
1, 53600, Note_on_c, 0, 67, 80
1, 53600, Note_on_c, 0, 76, 80
1, 53751, Note_on_c, 0, 67, 0
1, 53751, Note_on_c, 0, 76, 0
1, 53760, Note_on_c, 0, 67, 80
1, 53760, Note_on_c, 0, 76, 80
1, 53911, Note_on_c, 0, 67, 0
1, 53911, Note_on_c, 0, 76, 0
1, 54080, Note_on_c, 0, 77, 80
1, 54231, Note_on_c, 0, 77, 0
1, 54400, Note_on_c, 0, 74, 80
1, 54551, Note_on_c, 0, 74, 0
1, 54560, Note_on_c, 0, 72, 80
1, 54711, Note_on_c, 0, 72, 0
1, 54720, Note_on_c, 0, 67, 80
1, 54720, Note_on_c, 0, 74, 80
1, 55175, Note_on_c, 0, 67, 0
1, 55175, Note_on_c, 0, 74, 0
1, 56160, Note_on_c, 0, 67, 80
1, 56311, Note_on_c, 0, 67, 0
1, 56320, Note_on_c, 0, 62, 80
1, 56320, Note_on_c, 0, 71, 80
1, 56471, Note_on_c, 0, 71, 0
1, 56480, Note_on_c, 0, 60, 80
1, 56480, Note_on_c, 0, 64, 80
1, 56480, Note_on_c, 0, 72, 80
1, 56623, Note_on_c, 0, 62, 0
1, 56631, Note_on_c, 0, 60, 0
1, 56631, Note_on_c, 0, 64, 0
1, 56631, Note_on_c, 0, 72, 0
1, 56640, Note_on_c, 0, 67, 80
1, 56760, Note_on_c, 0, 74, 80
1, 56791, Note_on_c, 0, 67, 0
1, 56800, Note_on_c, 0, 71, 80
1, 56939, Note_on_c, 0, 74, 0
1, 56951, Note_on_c, 0, 71, 0
1, 56960, Note_on_c, 0, 67, 80
1, 56960, Note_on_c, 0, 71, 80
1, 56960, Note_on_c, 0, 74, 80
1, 57111, Note_on_c, 0, 67, 0
1, 57111, Note_on_c, 0, 71, 0
1, 57111, Note_on_c, 0, 74, 0
1, 57440, Note_on_c, 0, 67, 80
1, 57440, Note_on_c, 0, 71, 80
1, 57440, Note_on_c, 0, 74, 80
1, 57591, Note_on_c, 0, 67, 0
1, 57591, Note_on_c, 0, 71, 0
1, 57591, Note_on_c, 0, 74, 0
1, 57600, Note_on_c, 0, 67, 80
1, 57600, Note_on_c, 0, 74, 80
1, 57751, Note_on_c, 0, 67, 0
1, 57751, Note_on_c, 0, 74, 0
1, 57920, Note_on_c, 0, 76, 80
1, 58071, Note_on_c, 0, 76, 0
1, 58240, Note_on_c, 0, 60, 80
1, 58240, Note_on_c, 0, 64, 80
1, 58240, Note_on_c, 0, 72, 80
1, 58391, Note_on_c, 0, 60, 0
1, 58391, Note_on_c, 0, 64, 0
1, 58391, Note_on_c, 0, 72, 0
1, 58400, Note_on_c, 0, 71, 80
1, 58551, Note_on_c, 0, 71, 0
1, 58560, Note_on_c, 0, 62, 80
1, 58560, Note_on_c, 0, 69, 80
1, 59015, Note_on_c, 0, 62, 0
1, 59015, Note_on_c, 0, 69, 0
1, 59040, Note_on_c, 0, 71, 80
1, 59191, Note_on_c, 0, 71, 0
1, 59360, Note_on_c, 0, 60, 80
1, 59360, Note_on_c, 0, 72, 80
1, 59511, Note_on_c, 0, 60, 0
1, 59511, Note_on_c, 0, 72, 0
1, 59520, Note_on_c, 0, 67, 80
1, 59520, Note_on_c, 0, 74, 80
1, 59975, Note_on_c, 0, 67, 0
1, 59975, Note_on_c, 0, 74, 0
1, 60000, Note_on_c, 0, 71, 80
1, 60455, Note_on_c, 0, 71, 0
1, 60480, Note_on_c, 0, 60, 80
1, 60480, Note_on_c, 0, 64, 80
1, 60480, Note_on_c, 0, 69, 80
1, 61391, Note_on_c, 0, 60, 0
1, 61391, Note_on_c, 0, 64, 0
1, 61391, Note_on_c, 0, 69, 0
1, 61440, Note_on_c, 0, 64, 80
1, 61440, Note_on_c, 0, 67, 80
1, 62351, Note_on_c, 0, 64, 0
1, 62351, Note_on_c, 0, 67, 0
1, 62400, Time_signature, 3, 2, 24, 8
1, 62400, Note_on_c, 0, 69, 80
1, 62400, Note_on_c, 0, 76, 80
1, 63311, Note_on_c, 0, 69, 0
1, 63311, Note_on_c, 0, 76, 0
1, 63312, End_track
2, 0, Start_track
2, 0, Title_t, "Piano, Piano, Piano\000"
2, 0, Key_signature, 0, "major"
2, 0, MIDI_port, 0
2, 0, Note_on_c, 0, 53, 80
2, 0, Note_on_c, 0, 57, 80
2, 0, Note_on_c, 0, 60, 80
2, 0, Note_on_c, 0, 64, 80
2, 911, Note_on_c, 0, 53, 0
2, 911, Note_on_c, 0, 57, 0
2, 911, Note_on_c, 0, 60, 0
2, 911, Note_on_c, 0, 64, 0
2, 2880, Note_on_c, 0, 55, 80
2, 2880, Note_on_c, 0, 59, 80
2, 2880, Note_on_c, 0, 62, 80
2, 4247, Note_on_c, 0, 55, 0
2, 4247, Note_on_c, 0, 59, 0
2, 4247, Note_on_c, 0, 62, 0
2, 4560, Note_on_c, 0, 52, 80
2, 4560, Note_on_c, 0, 55, 80
2, 4560, Note_on_c, 0, 59, 80
2, 4560, Note_on_c, 0, 62, 80
2, 6611, Note_on_c, 0, 52, 0
2, 6611, Note_on_c, 0, 55, 0
2, 6611, Note_on_c, 0, 59, 0
2, 6611, Note_on_c, 0, 62, 0
2, 6720, Note_on_c, 0, 53, 80
2, 6720, Note_on_c, 0, 57, 80
2, 6720, Note_on_c, 0, 60, 80
2, 6720, Note_on_c, 0, 64, 80
2, 8087, Note_on_c, 0, 53, 0
2, 8087, Note_on_c, 0, 57, 0
2, 8087, Note_on_c, 0, 60, 0
2, 8087, Note_on_c, 0, 64, 0
2, 8640, Note_on_c, 0, 52, 80
2, 9095, Note_on_c, 0, 52, 0
2, 10560, Note_on_c, 0, 57, 80
2, 10799, Note_on_c, 0, 57, 0
2, 12480, Note_on_c, 0, 57, 80
2, 13391, Note_on_c, 0, 57, 0
2, 14400, Note_on_c, 0, 53, 80
2, 14855, Note_on_c, 0, 53, 0
2, 14880, Note_on_c, 0, 57, 80
2, 14880, Note_on_c, 0, 60, 80
2, 14880, Note_on_c, 0, 64, 80
2, 15335, Note_on_c, 0, 57, 0
2, 15335, Note_on_c, 0, 60, 0
2, 15335, Note_on_c, 0, 64, 0
2, 15360, Note_on_c, 0, 60, 80
2, 15815, Note_on_c, 0, 60, 0
2, 15840, Note_on_c, 0, 57, 80
2, 15840, Note_on_c, 0, 60, 80
2, 15840, Note_on_c, 0, 64, 80
2, 16295, Note_on_c, 0, 57, 0
2, 16295, Note_on_c, 0, 60, 0
2, 16295, Note_on_c, 0, 64, 0
2, 16320, Note_on_c, 0, 53, 80
2, 16775, Note_on_c, 0, 53, 0
2, 16800, Note_on_c, 0, 55, 80
2, 16800, Note_on_c, 0, 59, 80
2, 16800, Note_on_c, 0, 62, 80
2, 17255, Note_on_c, 0, 55, 0
2, 17255, Note_on_c, 0, 59, 0
2, 17255, Note_on_c, 0, 62, 0
2, 17280, Note_on_c, 0, 55, 80
2, 17735, Note_on_c, 0, 55, 0
2, 17760, Note_on_c, 0, 55, 80
2, 17760, Note_on_c, 0, 57, 80
2, 17760, Note_on_c, 0, 59, 80
2, 17760, Note_on_c, 0, 62, 80
2, 18215, Note_on_c, 0, 55, 0
2, 18215, Note_on_c, 0, 57, 0
2, 18215, Note_on_c, 0, 59, 0
2, 18215, Note_on_c, 0, 62, 0
2, 18240, Note_on_c, 0, 52, 80
2, 18695, Note_on_c, 0, 52, 0
2, 18720, Note_on_c, 0, 55, 80
2, 18720, Note_on_c, 0, 59, 80
2, 18720, Note_on_c, 0, 62, 80
2, 19175, Note_on_c, 0, 55, 0
2, 19175, Note_on_c, 0, 59, 0
2, 19175, Note_on_c, 0, 62, 0
2, 19200, Note_on_c, 0, 59, 80
2, 19655, Note_on_c, 0, 59, 0
2, 19680, Note_on_c, 0, 55, 80
2, 19680, Note_on_c, 0, 59, 80
2, 19680, Note_on_c, 0, 62, 80
2, 20135, Note_on_c, 0, 55, 0
2, 20135, Note_on_c, 0, 59, 0
2, 20135, Note_on_c, 0, 62, 0
2, 20160, Note_on_c, 0, 57, 80
2, 20615, Note_on_c, 0, 57, 0
2, 20640, Note_on_c, 0, 57, 80
2, 20640, Note_on_c, 0, 60, 80
2, 20640, Note_on_c, 0, 64, 80
2, 21095, Note_on_c, 0, 57, 0
2, 21095, Note_on_c, 0, 60, 0
2, 21095, Note_on_c, 0, 64, 0
2, 21120, Note_on_c, 0, 50, 80
2, 21120, Note_on_c, 0, 57, 80
2, 21120, Note_on_c, 0, 60, 80
2, 21575, Note_on_c, 0, 50, 0
2, 21575, Note_on_c, 0, 57, 0
2, 21575, Note_on_c, 0, 60, 0
2, 21600, Note_on_c, 0, 55, 80
2, 21600, Note_on_c, 0, 59, 80
2, 22055, Note_on_c, 0, 55, 0
2, 22055, Note_on_c, 0, 59, 0
2, 22080, Note_on_c, 0, 48, 80
2, 22535, Note_on_c, 0, 48, 0
2, 23040, Note_on_c, 0, 60, 80
2, 23495, Note_on_c, 0, 60, 0
2, 23520, Note_on_c, 0, 64, 80
2, 23975, Note_on_c, 0, 64, 0
2, 24000, Note_on_c, 0, 53, 80
2, 24455, Note_on_c, 0, 53, 0
2, 24480, Note_on_c, 0, 57, 80
2, 24480, Note_on_c, 0, 60, 80
2, 24480, Note_on_c, 0, 64, 80
2, 24935, Note_on_c, 0, 57, 0
2, 24935, Note_on_c, 0, 60, 0
2, 24935, Note_on_c, 0, 64, 0
2, 24960, Note_on_c, 0, 48, 80
2, 25415, Note_on_c, 0, 48, 0
2, 25440, Note_on_c, 0, 57, 80
2, 25440, Note_on_c, 0, 60, 80
2, 25440, Note_on_c, 0, 64, 80
2, 25895, Note_on_c, 0, 57, 0
2, 25895, Note_on_c, 0, 60, 0
2, 25895, Note_on_c, 0, 64, 0
2, 25920, Note_on_c, 0, 53, 80
2, 26375, Note_on_c, 0, 53, 0
2, 26400, Note_on_c, 0, 55, 80
2, 26400, Note_on_c, 0, 59, 80
2, 26400, Note_on_c, 0, 62, 80
2, 26855, Note_on_c, 0, 55, 0
2, 26855, Note_on_c, 0, 59, 0
2, 26855, Note_on_c, 0, 62, 0
2, 26880, Note_on_c, 0, 55, 80
2, 27335, Note_on_c, 0, 55, 0
2, 27360, Note_on_c, 0, 55, 80
2, 27360, Note_on_c, 0, 57, 80
2, 27360, Note_on_c, 0, 59, 80
2, 27360, Note_on_c, 0, 62, 80
2, 27815, Note_on_c, 0, 55, 0
2, 27815, Note_on_c, 0, 57, 0
2, 27815, Note_on_c, 0, 59, 0
2, 27815, Note_on_c, 0, 62, 0
2, 27840, Note_on_c, 0, 52, 80
2, 28295, Note_on_c, 0, 52, 0
2, 28320, Note_on_c, 0, 55, 80
2, 28320, Note_on_c, 0, 59, 80
2, 28320, Note_on_c, 0, 62, 80
2, 28775, Note_on_c, 0, 55, 0
2, 28775, Note_on_c, 0, 59, 0
2, 28775, Note_on_c, 0, 62, 0
2, 28800, Note_on_c, 0, 59, 80
2, 29255, Note_on_c, 0, 59, 0
2, 29280, Note_on_c, 0, 55, 80
2, 29280, Note_on_c, 0, 59, 80
2, 29280, Note_on_c, 0, 62, 80
2, 29735, Note_on_c, 0, 55, 0
2, 29735, Note_on_c, 0, 59, 0
2, 29735, Note_on_c, 0, 62, 0
2, 29760, Note_on_c, 0, 57, 80
2, 30215, Note_on_c, 0, 57, 0
2, 30240, Note_on_c, 0, 57, 80
2, 30240, Note_on_c, 0, 60, 80
2, 30240, Note_on_c, 0, 64, 80
2, 30695, Note_on_c, 0, 57, 0
2, 30695, Note_on_c, 0, 60, 0
2, 30695, Note_on_c, 0, 64, 0
2, 30720, Note_on_c, 0, 50, 80
2, 30720, Note_on_c, 0, 57, 80
2, 30720, Note_on_c, 0, 60, 80
2, 31175, Note_on_c, 0, 50, 0
2, 31175, Note_on_c, 0, 57, 0
2, 31175, Note_on_c, 0, 60, 0
2, 31200, Note_on_c, 0, 55, 80
2, 31655, Note_on_c, 0, 55, 0
2, 31680, Note_on_c, 0, 48, 80
2, 32591, Note_on_c, 0, 48, 0
2, 32640, Note_on_c, 0, 48, 80
2, 33095, Note_on_c, 0, 48, 0
2, 33120, Note_on_c, 0, 48, 80
2, 33575, Note_on_c, 0, 48, 0
2, 33600, Note_on_c, 0, 50, 80
2, 34055, Note_on_c, 0, 50, 0
2, 34080, Note_on_c, 0, 53, 80
2, 34080, Note_on_c, 0, 57, 80
2, 34080, Note_on_c, 0, 62, 80
2, 34535, Note_on_c, 0, 53, 0
2, 34535, Note_on_c, 0, 57, 0
2, 34535, Note_on_c, 0, 62, 0
2, 34560, Note_on_c, 0, 57, 80
2, 34560, Note_on_c, 0, 62, 80
2, 34560, Note_on_c, 0, 65, 80
2, 35015, Note_on_c, 0, 57, 0
2, 35015, Note_on_c, 0, 62, 0
2, 35015, Note_on_c, 0, 65, 0
2, 35040, Note_on_c, 0, 53, 80
2, 35040, Note_on_c, 0, 57, 80
2, 35040, Note_on_c, 0, 60, 80
2, 35495, Note_on_c, 0, 53, 0
2, 35495, Note_on_c, 0, 57, 0
2, 35495, Note_on_c, 0, 60, 0
2, 35520, Note_on_c, 0, 52, 80
2, 35975, Note_on_c, 0, 52, 0
2, 36000, Note_on_c, 0, 52, 80
2, 36000, Note_on_c, 0, 55, 80
2, 36000, Note_on_c, 0, 59, 80
2, 36000, Note_on_c, 0, 64, 80
2, 36455, Note_on_c, 0, 52, 0
2, 36455, Note_on_c, 0, 55, 0
2, 36455, Note_on_c, 0, 59, 0
2, 36455, Note_on_c, 0, 64, 0
2, 36480, Note_on_c, 0, 52, 80
2, 36480, Note_on_c, 0, 55, 80
2, 36480, Note_on_c, 0, 59, 80
2, 36935, Note_on_c, 0, 52, 0
2, 36935, Note_on_c, 0, 55, 0
2, 36935, Note_on_c, 0, 59, 0
2, 36960, Note_on_c, 0, 52, 80
2, 36960, Note_on_c, 0, 55, 80
2, 36960, Note_on_c, 0, 59, 80
2, 36960, Note_on_c, 0, 62, 80
2, 37415, Note_on_c, 0, 52, 0
2, 37415, Note_on_c, 0, 55, 0
2, 37415, Note_on_c, 0, 59, 0
2, 37415, Note_on_c, 0, 62, 0
2, 37440, Note_on_c, 0, 53, 80
2, 37895, Note_on_c, 0, 53, 0
2, 37920, Note_on_c, 0, 53, 80
2, 37920, Note_on_c, 0, 57, 80
2, 37920, Note_on_c, 0, 60, 80
2, 37920, Note_on_c, 0, 64, 80
2, 38375, Note_on_c, 0, 53, 0
2, 38375, Note_on_c, 0, 57, 0
2, 38375, Note_on_c, 0, 60, 0
2, 38375, Note_on_c, 0, 64, 0
2, 38400, Note_on_c, 0, 53, 80
2, 38400, Note_on_c, 0, 57, 80
2, 38400, Note_on_c, 0, 60, 80
2, 38855, Note_on_c, 0, 53, 0
2, 38855, Note_on_c, 0, 57, 0
2, 38855, Note_on_c, 0, 60, 0
2, 38880, Note_on_c, 0, 53, 80
2, 38880, Note_on_c, 0, 57, 80
2, 38880, Note_on_c, 0, 60, 80
2, 38880, Note_on_c, 0, 62, 80
2, 39335, Note_on_c, 0, 53, 0
2, 39335, Note_on_c, 0, 57, 0
2, 39335, Note_on_c, 0, 60, 0
2, 39335, Note_on_c, 0, 62, 0
2, 39360, Note_on_c, 0, 52, 80
2, 39599, Note_on_c, 0, 52, 0
2, 41280, Note_on_c, 0, 53, 80
2, 41735, Note_on_c, 0, 53, 0
2, 41760, Note_on_c, 0, 57, 80
2, 41760, Note_on_c, 0, 60, 80
2, 41760, Note_on_c, 0, 64, 80
2, 42215, Note_on_c, 0, 57, 0
2, 42215, Note_on_c, 0, 60, 0
2, 42215, Note_on_c, 0, 64, 0
2, 42240, Note_on_c, 0, 48, 80
2, 42695, Note_on_c, 0, 48, 0
2, 42720, Note_on_c, 0, 57, 80
2, 42720, Note_on_c, 0, 60, 80
2, 42720, Note_on_c, 0, 64, 80
2, 43175, Note_on_c, 0, 57, 0
2, 43175, Note_on_c, 0, 60, 0
2, 43175, Note_on_c, 0, 64, 0
2, 43200, Note_on_c, 0, 52, 80
2, 43655, Note_on_c, 0, 52, 0
2, 43680, Note_on_c, 0, 55, 80
2, 43680, Note_on_c, 0, 60, 80
2, 43680, Note_on_c, 0, 64, 80
2, 44135, Note_on_c, 0, 55, 0
2, 44135, Note_on_c, 0, 60, 0
2, 44135, Note_on_c, 0, 64, 0
2, 44160, Note_on_c, 0, 52, 80
2, 44615, Note_on_c, 0, 52, 0
2, 44640, Note_on_c, 0, 55, 80
2, 44640, Note_on_c, 0, 60, 80
2, 44640, Note_on_c, 0, 64, 80
2, 45095, Note_on_c, 0, 55, 0
2, 45095, Note_on_c, 0, 60, 0
2, 45095, Note_on_c, 0, 64, 0
2, 45120, Note_on_c, 0, 53, 80
2, 45575, Note_on_c, 0, 53, 0
2, 45600, Note_on_c, 0, 57, 80
2, 45600, Note_on_c, 0, 60, 80
2, 45600, Note_on_c, 0, 64, 80
2, 46055, Note_on_c, 0, 57, 0
2, 46055, Note_on_c, 0, 60, 0
2, 46055, Note_on_c, 0, 64, 0
2, 46080, Note_on_c, 0, 60, 80
2, 46535, Note_on_c, 0, 60, 0
2, 46560, Note_on_c, 0, 57, 80
2, 46560, Note_on_c, 0, 60, 80
2, 46560, Note_on_c, 0, 64, 80
2, 47015, Note_on_c, 0, 57, 0
2, 47015, Note_on_c, 0, 60, 0
2, 47015, Note_on_c, 0, 64, 0
2, 47040, Note_on_c, 0, 52, 80
2, 47495, Note_on_c, 0, 52, 0
2, 47520, Note_on_c, 0, 55, 80
2, 47520, Note_on_c, 0, 60, 80
2, 47520, Note_on_c, 0, 64, 80
2, 47975, Note_on_c, 0, 55, 0
2, 47975, Note_on_c, 0, 60, 0
2, 47975, Note_on_c, 0, 64, 0
2, 48000, Note_on_c, 0, 52, 80
2, 48455, Note_on_c, 0, 52, 0
2, 48480, Note_on_c, 0, 55, 80
2, 48480, Note_on_c, 0, 60, 80
2, 48480, Note_on_c, 0, 64, 80
2, 48935, Note_on_c, 0, 55, 0
2, 48935, Note_on_c, 0, 60, 0
2, 48935, Note_on_c, 0, 64, 0
2, 48960, Note_on_c, 0, 50, 80
2, 49415, Note_on_c, 0, 50, 0
2, 50880, Note_on_c, 0, 59, 80
2, 50880, Note_on_c, 0, 67, 80
2, 51335, Note_on_c, 0, 59, 0
2, 51335, Note_on_c, 0, 67, 0
2, 51360, Note_on_c, 0, 71, 80
2, 51815, Note_on_c, 0, 71, 0
2, 51840, Note_on_c, 0, 57, 80
2, 51840, Note_on_c, 0, 65, 80
2, 52295, Note_on_c, 0, 57, 0
2, 52295, Note_on_c, 0, 65, 0
2, 52320, Note_on_c, 0, 69, 80
2, 52775, Note_on_c, 0, 69, 0
2, 52800, Note_on_c, 0, 53, 80
2, 52800, Note_on_c, 0, 60, 80
2, 52800, Note_on_c, 0, 64, 80
2, 53255, Note_on_c, 0, 53, 0
2, 53255, Note_on_c, 0, 60, 0
2, 53255, Note_on_c, 0, 64, 0
2, 53280, Note_on_c, 0, 57, 80
2, 53280, Note_on_c, 0, 60, 80
2, 53280, Note_on_c, 0, 64, 80
2, 53735, Note_on_c, 0, 57, 0
2, 53735, Note_on_c, 0, 60, 0
2, 53735, Note_on_c, 0, 64, 0
2, 53760, Note_on_c, 0, 60, 80
2, 54215, Note_on_c, 0, 60, 0
2, 54240, Note_on_c, 0, 57, 80
2, 54240, Note_on_c, 0, 60, 80
2, 54240, Note_on_c, 0, 64, 80
2, 54695, Note_on_c, 0, 57, 0
2, 54695, Note_on_c, 0, 60, 0
2, 54695, Note_on_c, 0, 64, 0
2, 54720, Note_on_c, 0, 53, 80
2, 55175, Note_on_c, 0, 53, 0
2, 55200, Note_on_c, 0, 55, 80
2, 55200, Note_on_c, 0, 59, 80
2, 55200, Note_on_c, 0, 62, 80
2, 55655, Note_on_c, 0, 55, 0
2, 55655, Note_on_c, 0, 59, 0
2, 55655, Note_on_c, 0, 62, 0
2, 55680, Note_on_c, 0, 55, 80
2, 56135, Note_on_c, 0, 55, 0
2, 56160, Note_on_c, 0, 55, 80
2, 56160, Note_on_c, 0, 57, 80
2, 56160, Note_on_c, 0, 59, 80
2, 56160, Note_on_c, 0, 62, 80
2, 56320, Note_on_c, 0, 62, 0
2, 56399, Note_on_c, 0, 55, 0
2, 56399, Note_on_c, 0, 57, 0
2, 56399, Note_on_c, 0, 59, 0
2, 56640, Note_on_c, 0, 52, 80
2, 57095, Note_on_c, 0, 52, 0
2, 57120, Note_on_c, 0, 55, 80
2, 57120, Note_on_c, 0, 59, 80
2, 57120, Note_on_c, 0, 62, 80
2, 57575, Note_on_c, 0, 55, 0
2, 57575, Note_on_c, 0, 59, 0
2, 57575, Note_on_c, 0, 62, 0
2, 57600, Note_on_c, 0, 59, 80
2, 57600, Note_on_c, 0, 62, 80
2, 58055, Note_on_c, 0, 59, 0
2, 58055, Note_on_c, 0, 62, 0
2, 58560, Note_on_c, 0, 50, 80
2, 58560, Note_on_c, 0, 57, 80
2, 59015, Note_on_c, 0, 50, 0
2, 59015, Note_on_c, 0, 57, 0
2, 59040, Note_on_c, 0, 53, 80
2, 59040, Note_on_c, 0, 59, 80
2, 59495, Note_on_c, 0, 53, 0
2, 59495, Note_on_c, 0, 59, 0
2, 59520, Note_on_c, 0, 52, 80
2, 59520, Note_on_c, 0, 55, 80
2, 59520, Note_on_c, 0, 59, 80
2, 59520, Note_on_c, 0, 62, 80
2, 59975, Note_on_c, 0, 52, 0
2, 59975, Note_on_c, 0, 55, 0
2, 59975, Note_on_c, 0, 59, 0
2, 59975, Note_on_c, 0, 62, 0
2, 60000, Note_on_c, 0, 59, 80
2, 60455, Note_on_c, 0, 59, 0
2, 60480, Note_on_c, 0, 53, 80
2, 60480, Note_on_c, 0, 57, 80
2, 60935, Note_on_c, 0, 53, 0
2, 60935, Note_on_c, 0, 57, 0
2, 60960, Note_on_c, 0, 53, 80
2, 61415, Note_on_c, 0, 53, 0
2, 61440, Note_on_c, 0, 55, 80
2, 61440, Note_on_c, 0, 59, 80
2, 61895, Note_on_c, 0, 55, 0
2, 61895, Note_on_c, 0, 59, 0
2, 61920, Note_on_c, 0, 55, 80
2, 62375, Note_on_c, 0, 55, 0
2, 62400, Note_on_c, 0, 52, 80
2, 62400, Note_on_c, 0, 57, 80
2, 62855, Note_on_c, 0, 52, 0
2, 62855, Note_on_c, 0, 57, 0
2, 62856, End_track
3, 0, Start_track
3, 0, Title_t, "Electric Bass, Bass\000"
3, 0, Key_signature, 0, "major"
3, 0, Control_c, 1, 121, 0
3, 0, Program_c, 1, 33
3, 0, Control_c, 1, 7, 100
3, 0, Control_c, 1, 10, 64
3, 0, Control_c, 1, 91, 0
3, 0, Control_c, 1, 93, 0
3, 0, MIDI_port, 0
3, 0, Control_c, 2, 121, 0
3, 0, Program_c, 2, 36
3, 0, Control_c, 2, 7, 100
3, 0, Control_c, 2, 10, 64
3, 0, Control_c, 2, 91, 0
3, 0, Control_c, 2, 93, 0
3, 0, MIDI_port, 0
3, 0, Control_c, 3, 121, 0
3, 0, Program_c, 3, 37
3, 0, Control_c, 3, 7, 100
3, 0, Control_c, 3, 10, 64
3, 0, Control_c, 3, 91, 0
3, 0, Control_c, 3, 93, 0
3, 0, MIDI_port, 0
3, 14400, Note_on_c, 1, 65, 80
3, 15359, Note_on_c, 1, 65, 0
3, 15360, Note_on_c, 1, 60, 80
3, 16319, Note_on_c, 1, 60, 0
3, 16320, Note_on_c, 1, 65, 80
3, 17279, Note_on_c, 1, 65, 0
3, 17280, Note_on_c, 1, 59, 80
3, 18239, Note_on_c, 1, 59, 0
3, 18240, Note_on_c, 1, 64, 80
3, 19199, Note_on_c, 1, 64, 0
3, 19200, Note_on_c, 1, 59, 80
3, 20159, Note_on_c, 1, 59, 0
3, 20160, Note_on_c, 1, 57, 80
3, 21119, Note_on_c, 1, 57, 0
3, 21120, Note_on_c, 1, 62, 80
3, 22079, Note_on_c, 1, 62, 0
3, 22080, Note_on_c, 1, 60, 80
3, 23039, Note_on_c, 1, 60, 0
3, 24000, Note_on_c, 1, 65, 80
3, 24959, Note_on_c, 1, 65, 0
3, 24960, Note_on_c, 1, 60, 80
3, 25919, Note_on_c, 1, 60, 0
3, 25920, Note_on_c, 1, 65, 80
3, 26879, Note_on_c, 1, 65, 0
3, 26880, Note_on_c, 1, 59, 80
3, 27839, Note_on_c, 1, 59, 0
3, 27840, Note_on_c, 1, 64, 80
3, 28799, Note_on_c, 1, 64, 0
3, 28800, Note_on_c, 1, 59, 80
3, 29759, Note_on_c, 1, 59, 0
3, 29760, Note_on_c, 1, 57, 80
3, 30719, Note_on_c, 1, 57, 0
3, 30720, Note_on_c, 1, 62, 80
3, 31679, Note_on_c, 1, 62, 0
3, 31680, Note_on_c, 1, 60, 80
3, 32639, Note_on_c, 1, 60, 0
3, 32640, Note_on_c, 1, 60, 80
3, 33119, Note_on_c, 1, 60, 0
3, 33120, Note_on_c, 1, 60, 80
3, 33599, Note_on_c, 1, 60, 0
3, 33600, Note_on_c, 1, 62, 80
3, 34559, Note_on_c, 1, 62, 0
3, 34560, Note_on_c, 1, 57, 80
3, 35519, Note_on_c, 1, 57, 0
3, 35520, Note_on_c, 1, 64, 80
3, 36479, Note_on_c, 1, 64, 0
3, 36480, Note_on_c, 1, 59, 80
3, 37439, Note_on_c, 1, 59, 0
3, 37440, Note_on_c, 1, 65, 80
3, 38399, Note_on_c, 1, 65, 0
3, 38400, Note_on_c, 1, 60, 80
3, 39359, Note_on_c, 1, 60, 0
3, 39360, Note_on_c, 1, 64, 80
3, 40799, Note_on_c, 1, 64, 0
3, 40800, Note_on_c, 1, 64, 80
3, 41279, Note_on_c, 1, 64, 0
3, 41280, Note_on_c, 1, 65, 80
3, 42239, Note_on_c, 1, 65, 0
3, 42240, Note_on_c, 1, 60, 80
3, 43199, Note_on_c, 1, 60, 0
3, 43200, Note_on_c, 1, 64, 80
3, 44159, Note_on_c, 1, 64, 0
3, 44160, Note_on_c, 1, 64, 80
3, 45119, Note_on_c, 1, 64, 0
3, 45120, Note_on_c, 1, 65, 80
3, 46079, Note_on_c, 1, 65, 0
3, 46080, Note_on_c, 1, 60, 80
3, 47039, Note_on_c, 1, 60, 0
3, 47040, Note_on_c, 1, 64, 80
3, 47999, Note_on_c, 1, 64, 0
3, 48000, Note_on_c, 1, 64, 80
3, 48959, Note_on_c, 1, 64, 0
3, 48960, Note_on_c, 1, 62, 80
3, 49919, Note_on_c, 1, 62, 0
3, 50880, Note_on_c, 1, 59, 80
3, 51839, Note_on_c, 1, 59, 0
3, 51840, Note_on_c, 1, 57, 80
3, 52799, Note_on_c, 1, 57, 0
3, 52800, Note_on_c, 1, 65, 80
3, 53759, Note_on_c, 1, 65, 0
3, 53760, Note_on_c, 1, 60, 80
3, 54719, Note_on_c, 1, 60, 0
3, 54720, Note_on_c, 1, 65, 80
3, 55679, Note_on_c, 1, 65, 0
3, 55680, Note_on_c, 1, 67, 80
3, 56639, Note_on_c, 1, 67, 0
3, 56640, Note_on_c, 1, 64, 80
3, 57599, Note_on_c, 1, 64, 0
3, 57600, Note_on_c, 1, 59, 80
3, 58559, Note_on_c, 1, 59, 0
3, 58560, Note_on_c, 1, 62, 80
3, 59519, Note_on_c, 1, 62, 0
3, 59520, Note_on_c, 1, 64, 80
3, 60479, Note_on_c, 1, 64, 0
3, 60480, Note_on_c, 1, 65, 80
3, 61439, Note_on_c, 1, 65, 0
3, 61440, Note_on_c, 1, 67, 80
3, 62399, Note_on_c, 1, 67, 0
3, 62400, Note_on_c, 1, 57, 80
3, 63359, Note_on_c, 1, 57, 0
3, 63360, End_track
0, 0, End_of_file
