0, 0, Header, 1, 3, 480
1, 0, Start_track
1, 0, Title_t, "Piano, Piano, Piano\000"
1, 0, Time_signature, 1, 2, 24, 8
1, 0, Key_signature, 0, "major"
1, 0, Tempo, 681818
1, 0, Control_c, 0, 121, 0
1, 0, Program_c, 0, 0
1, 0, Control_c, 0, 7, 100
1, 0, Control_c, 0, 10, 64
1, 0, Control_c, 0, 91, 0
1, 0, Control_c, 0, 93, 0
1, 0, MIDI_port, 0
1, 240, Note_on_c, 0, 64, 80
1, 467, Note_on_c, 0, 64, 0
1, 480, Time_signature, 4, 2, 24, 8
1, 480, Note_on_c, 0, 72, 80
1, 1163, Note_on_c, 0, 72, 0
1, 1200, Note_on_c, 0, 64, 80
1, 1427, Note_on_c, 0, 64, 0
1, 1440, Note_on_c, 0, 71, 80
1, 2123, Note_on_c, 0, 71, 0
1, 2160, Note_on_c, 0, 64, 80
1, 2387, Note_on_c, 0, 64, 0
1, 2400, Note_on_c, 0, 72, 80
1, 2855, Note_on_c, 0, 72, 0
1, 2880, Note_on_c, 0, 74, 80
1, 3335, Note_on_c, 0, 74, 0
1, 3360, Note_on_c, 0, 71, 80
1, 4043, Note_on_c, 0, 71, 0
1, 4080, Note_on_c, 0, 64, 80
1, 4307, Note_on_c, 0, 64, 0
1, 4320, Note_on_c, 0, 74, 80
1, 4775, Note_on_c, 0, 74, 0
1, 4800, Note_on_c, 0, 72, 80
1, 5255, Note_on_c, 0, 72, 0
1, 5280, Note_on_c, 0, 71, 80
1, 5735, Note_on_c, 0, 71, 0
1, 5760, Note_on_c, 0, 69, 80
1, 6215, Note_on_c, 0, 69, 0
1, 6240, Note_on_c, 0, 71, 80
1, 7607, Note_on_c, 0, 71, 0
1, 7920, Note_on_c, 0, 67, 80
1, 8147, Note_on_c, 0, 67, 0
1, 8160, Note_on_c, 0, 76, 80
1, 8843, Note_on_c, 0, 76, 0
1, 8880, Note_on_c, 0, 77, 80
1, 9107, Note_on_c, 0, 77, 0
1, 9120, Note_on_c, 0, 74, 80
1, 9575, Note_on_c, 0, 74, 0
1, 9600, Note_on_c, 0, 67, 80
1, 9827, Note_on_c, 0, 67, 0
1, 9840, Note_on_c, 0, 67, 80
1, 10067, Note_on_c, 0, 67, 0
1, 10080, Note_on_c, 0, 76, 80
1, 10535, Note_on_c, 0, 76, 0
1, 10560, Note_on_c, 0, 77, 80
1, 11015, Note_on_c, 0, 77, 0
1, 11040, Note_on_c, 0, 74, 80
1, 11723, Note_on_c, 0, 74, 0
1, 11760, Note_on_c, 0, 76, 80
1, 11987, Note_on_c, 0, 76, 0
1, 12000, Note_on_c, 0, 77, 80
1, 12455, Note_on_c, 0, 77, 0
1, 12480, Note_on_c, 0, 76, 80
1, 12935, Note_on_c, 0, 76, 0
1, 12960, Note_on_c, 0, 74, 80
1, 13415, Note_on_c, 0, 74, 0
1, 13440, Note_on_c, 0, 72, 80
1, 13895, Note_on_c, 0, 72, 0
1, 13920, Note_on_c, 0, 71, 80
1, 15287, Note_on_c, 0, 71, 0
1, 15600, Note_on_c, 0, 64, 80
1, 15827, Note_on_c, 0, 64, 0
1, 15840, Tempo, 652174
1, 15840, Note_on_c, 0, 72, 80
1, 16523, Note_on_c, 0, 72, 0
1, 16560, Note_on_c, 0, 64, 80
1, 16787, Note_on_c, 0, 64, 0
1, 16800, Note_on_c, 0, 71, 80
1, 17483, Note_on_c, 0, 71, 0
1, 17520, Note_on_c, 0, 64, 80
1, 17747, Note_on_c, 0, 64, 0
1, 17760, Note_on_c, 0, 72, 80
1, 18215, Note_on_c, 0, 72, 0
1, 18240, Note_on_c, 0, 74, 80
1, 18695, Note_on_c, 0, 74, 0
1, 18720, Note_on_c, 0, 71, 80
1, 19403, Note_on_c, 0, 71, 0
1, 19440, Note_on_c, 0, 64, 80
1, 19667, Note_on_c, 0, 64, 0
1, 19680, Note_on_c, 0, 74, 80
1, 20135, Note_on_c, 0, 74, 0
1, 20160, Note_on_c, 0, 72, 80
1, 20615, Note_on_c, 0, 72, 0
1, 20640, Note_on_c, 0, 71, 80
1, 21095, Note_on_c, 0, 71, 0
1, 21120, Note_on_c, 0, 69, 80
1, 21575, Note_on_c, 0, 69, 0
1, 21600, Note_on_c, 0, 71, 80
1, 22967, Note_on_c, 0, 71, 0
1, 23280, Note_on_c, 0, 67, 80
1, 23507, Note_on_c, 0, 67, 0
1, 23520, Note_on_c, 0, 76, 80
1, 24203, Note_on_c, 0, 76, 0
1, 24240, Note_on_c, 0, 77, 80
1, 24467, Note_on_c, 0, 77, 0
1, 24480, Note_on_c, 0, 74, 80
1, 24935, Note_on_c, 0, 74, 0
1, 24960, Note_on_c, 0, 67, 80
1, 25187, Note_on_c, 0, 67, 0
1, 25200, Note_on_c, 0, 67, 80
1, 25427, Note_on_c, 0, 67, 0
1, 25440, Note_on_c, 0, 76, 80
1, 25895, Note_on_c, 0, 76, 0
1, 25920, Note_on_c, 0, 77, 80
1, 26375, Note_on_c, 0, 77, 0
1, 26400, Note_on_c, 0, 74, 80
1, 27083, Note_on_c, 0, 74, 0
1, 27120, Note_on_c, 0, 76, 80
1, 27347, Note_on_c, 0, 76, 0
1, 27360, Note_on_c, 0, 77, 80
1, 27815, Note_on_c, 0, 77, 0
1, 27840, Note_on_c, 0, 76, 80
1, 28295, Note_on_c, 0, 76, 0
1, 28320, Note_on_c, 0, 74, 80
1, 28775, Note_on_c, 0, 74, 0
1, 28800, Note_on_c, 0, 72, 80
1, 29255, Note_on_c, 0, 72, 0
1, 29280, Note_on_c, 0, 69, 80
1, 30647, Note_on_c, 0, 69, 0
1, 30720, Note_on_c, 0, 64, 80
1, 31175, Note_on_c, 0, 64, 0
1, 31200, Tempo, 625000
1, 31200, Note_on_c, 0, 71, 80
1, 31427, Note_on_c, 0, 71, 0
1, 31440, Note_on_c, 0, 72, 80
1, 31667, Note_on_c, 0, 72, 0
1, 31680, Note_on_c, 0, 69, 80
1, 32591, Note_on_c, 0, 69, 0
1, 32640, Note_on_c, 0, 72, 80
1, 33095, Note_on_c, 0, 72, 0
1, 33120, Note_on_c, 0, 72, 80
1, 33347, Note_on_c, 0, 72, 0
1, 33360, Note_on_c, 0, 71, 80
1, 33587, Note_on_c, 0, 71, 0
1, 33600, Note_on_c, 0, 64, 80
1, 34511, Note_on_c, 0, 64, 0
1, 34560, Note_on_c, 0, 64, 80
1, 35015, Note_on_c, 0, 64, 0
1, 35040, Note_on_c, 0, 71, 80
1, 35267, Note_on_c, 0, 71, 0
1, 35280, Note_on_c, 0, 72, 80
1, 35507, Note_on_c, 0, 72, 0
1, 35520, Note_on_c, 0, 69, 80
1, 36431, Note_on_c, 0, 69, 0
1, 36480, Note_on_c, 0, 71, 80
1, 36935, Note_on_c, 0, 71, 0
1, 36960, Note_on_c, 0, 72, 80
1, 37187, Note_on_c, 0, 72, 0
1, 37200, Note_on_c, 0, 71, 80
1, 38225, Note_on_c, 0, 71, 0
1, 38400, Note_on_c, 0, 64, 80
1, 38855, Note_on_c, 0, 64, 0
1, 38880, Note_on_c, 0, 71, 80
1, 39107, Note_on_c, 0, 71, 0
1, 39120, Note_on_c, 0, 72, 80
1, 39347, Note_on_c, 0, 72, 0
1, 39360, Note_on_c, 0, 69, 80
1, 40271, Note_on_c, 0, 69, 0
1, 40320, Note_on_c, 0, 76, 80
1, 40775, Note_on_c, 0, 76, 0
1, 40800, Note_on_c, 0, 76, 80
1, 41255, Note_on_c, 0, 76, 0
1, 41280, Note_on_c, 0, 74, 80
1, 41735, Note_on_c, 0, 74, 0
1, 41760, Note_on_c, 0, 69, 80
1, 42215, Note_on_c, 0, 69, 0
1, 42240, Note_on_c, 0, 72, 80
1, 42695, Note_on_c, 0, 72, 0
1, 42720, Note_on_c, 0, 72, 80
1, 43403, Note_on_c, 0, 72, 0
1, 43440, Note_on_c, 0, 69, 80
1, 43667, Note_on_c, 0, 69, 0
1, 43680, Note_on_c, 0, 71, 80
1, 44363, Note_on_c, 0, 71, 0
1, 44400, Note_on_c, 0, 72, 80
1, 44627, Note_on_c, 0, 72, 0
1, 44640, Note_on_c, 0, 69, 80
1, 46007, Note_on_c, 0, 69, 0
1, 46080, Note_on_c, 0, 55, 80
1, 46080, Note_on_c, 0, 64, 80
1, 46535, Note_on_c, 0, 55, 0
1, 46535, Note_on_c, 0, 64, 0
1, 46560, Note_on_c, 0, 62, 80
1, 46560, Note_on_c, 0, 71, 80
1, 46787, Note_on_c, 0, 62, 0
1, 46787, Note_on_c, 0, 71, 0
1, 46800, Note_on_c, 0, 64, 80
1, 46800, Note_on_c, 0, 72, 80
1, 47027, Note_on_c, 0, 64, 0
1, 47027, Note_on_c, 0, 72, 0
1, 47040, Note_on_c, 0, 60, 80
1, 47040, Note_on_c, 0, 69, 80
1, 47951, Note_on_c, 0, 60, 0
1, 47951, Note_on_c, 0, 69, 0
1, 48000, Note_on_c, 0, 67, 80
1, 48000, Note_on_c, 0, 76, 80
1, 48455, Note_on_c, 0, 67, 0
1, 48455, Note_on_c, 0, 76, 0
1, 48480, Note_on_c, 0, 67, 80
1, 48480, Note_on_c, 0, 76, 80
1, 48935, Note_on_c, 0, 67, 0
1, 48935, Note_on_c, 0, 76, 0
1, 48960, Note_on_c, 0, 65, 80
1, 48960, Note_on_c, 0, 74, 80
1, 49415, Note_on_c, 0, 65, 0
1, 49415, Note_on_c, 0, 74, 0
1, 49440, Note_on_c, 0, 60, 80
1, 49440, Note_on_c, 0, 69, 80
1, 49895, Note_on_c, 0, 60, 0
1, 49895, Note_on_c, 0, 69, 0
1, 49920, Note_on_c, 0, 64, 80
1, 49920, Note_on_c, 0, 72, 80
1, 50375, Note_on_c, 0, 64, 0
1, 50375, Note_on_c, 0, 72, 0
1, 50400, Note_on_c, 0, 64, 80
1, 50400, Note_on_c, 0, 72, 80
1, 51083, Note_on_c, 0, 64, 0
1, 51083, Note_on_c, 0, 72, 0
1, 51120, Note_on_c, 0, 69, 80
1, 51347, Note_on_c, 0, 69, 0
1, 51360, Note_on_c, 0, 76, 80
1, 51587, Note_on_c, 0, 76, 0
1, 51600, Note_on_c, 0, 74, 80
1, 51827, Note_on_c, 0, 74, 0
1, 51840, Note_on_c, 0, 71, 80
1, 52295, Note_on_c, 0, 71, 0
1, 52320, Note_on_c, 0, 69, 80
1, 53231, Note_on_c, 0, 69, 0
1, 54000, Note_on_c, 0, 64, 80
1, 54227, Note_on_c, 0, 64, 0
1, 54240, Note_on_c, 0, 72, 80
1, 54923, Note_on_c, 0, 72, 0
1, 54960, Note_on_c, 0, 64, 80
1, 55187, Note_on_c, 0, 64, 0
1, 55200, Note_on_c, 0, 71, 80
1, 55883, Note_on_c, 0, 71, 0
1, 55920, Note_on_c, 0, 64, 80
1, 56147, Note_on_c, 0, 64, 0
1, 56160, Note_on_c, 0, 72, 80
1, 56615, Note_on_c, 0, 72, 0
1, 56640, Note_on_c, 0, 74, 80
1, 57095, Note_on_c, 0, 74, 0
1, 57120, Note_on_c, 0, 71, 80
1, 57803, Note_on_c, 0, 71, 0
1, 57840, Note_on_c, 0, 64, 80
1, 58067, Note_on_c, 0, 64, 0
1, 58080, Note_on_c, 0, 74, 80
1, 58535, Note_on_c, 0, 74, 0
1, 58560, Note_on_c, 0, 72, 80
1, 59015, Note_on_c, 0, 72, 0
1, 59040, Note_on_c, 0, 71, 80
1, 59495, Note_on_c, 0, 71, 0
1, 59520, Note_on_c, 0, 69, 80
1, 59975, Note_on_c, 0, 69, 0
1, 60000, Note_on_c, 0, 71, 80
1, 61367, Note_on_c, 0, 71, 0
1, 61680, Note_on_c, 0, 67, 80
1, 61907, Note_on_c, 0, 67, 0
1, 61920, Note_on_c, 0, 76, 80
1, 62603, Note_on_c, 0, 76, 0
1, 62640, Note_on_c, 0, 77, 80
1, 62867, Note_on_c, 0, 77, 0
1, 62880, Note_on_c, 0, 74, 80
1, 63335, Note_on_c, 0, 74, 0
1, 63360, Note_on_c, 0, 67, 80
1, 63587, Note_on_c, 0, 67, 0
1, 63600, Note_on_c, 0, 67, 80
1, 63827, Note_on_c, 0, 67, 0
1, 63840, Note_on_c, 0, 76, 80
1, 64295, Note_on_c, 0, 76, 0
1, 64320, Note_on_c, 0, 77, 80
1, 64775, Note_on_c, 0, 77, 0
1, 64800, Note_on_c, 0, 74, 80
1, 65483, Note_on_c, 0, 74, 0
1, 65520, Note_on_c, 0, 76, 80
1, 65747, Note_on_c, 0, 76, 0
1, 65760, Note_on_c, 0, 77, 80
1, 66215, Note_on_c, 0, 77, 0
1, 66240, Note_on_c, 0, 76, 80
1, 66695, Note_on_c, 0, 76, 0
1, 66720, Note_on_c, 0, 74, 80
1, 67175, Note_on_c, 0, 74, 0
1, 67200, Note_on_c, 0, 72, 80
1, 67427, Note_on_c, 0, 72, 0
1, 67440, Note_on_c, 0, 72, 80
1, 67515, Note_on_c, 0, 72, 0
1, 67520, Note_on_c, 0, 74, 80
1, 67595, Note_on_c, 0, 74, 0
1, 67600, Note_on_c, 0, 72, 80
1, 67675, Note_on_c, 0, 72, 0
1, 67680, Note_on_c, 0, 71, 80
1, 68591, Note_on_c, 0, 71, 0
1, 68640, Note_on_c, 0, 71, 80
1, 69323, Note_on_c, 0, 71, 0
1, 69360, Note_on_c, 0, 64, 80
1, 69587, Note_on_c, 0, 64, 0
1, 69600, Note_on_c, 0, 72, 80
1, 70283, Note_on_c, 0, 72, 0
1, 70320, Note_on_c, 0, 64, 80
1, 70547, Note_on_c, 0, 64, 0
1, 70560, Note_on_c, 0, 71, 80
1, 71243, Note_on_c, 0, 71, 0
1, 71280, Note_on_c, 0, 64, 80
1, 71507, Note_on_c, 0, 64, 0
1, 71520, Note_on_c, 0, 72, 80
1, 71975, Note_on_c, 0, 72, 0
1, 72000, Note_on_c, 0, 74, 80
1, 72455, Note_on_c, 0, 74, 0
1, 72480, Note_on_c, 0, 71, 80
1, 73163, Note_on_c, 0, 71, 0
1, 73200, Note_on_c, 0, 64, 80
1, 73427, Note_on_c, 0, 64, 0
1, 73440, Note_on_c, 0, 74, 80
1, 73895, Note_on_c, 0, 74, 0
1, 73920, Note_on_c, 0, 72, 80
1, 74375, Note_on_c, 0, 72, 0
1, 74400, Note_on_c, 0, 71, 80
1, 74855, Note_on_c, 0, 71, 0
1, 74880, Note_on_c, 0, 69, 80
1, 75335, Note_on_c, 0, 69, 0
1, 75360, Note_on_c, 0, 71, 80
1, 76727, Note_on_c, 0, 71, 0
1, 77040, Note_on_c, 0, 67, 80
1, 77267, Note_on_c, 0, 67, 0
1, 77280, Note_on_c, 0, 76, 80
1, 77963, Note_on_c, 0, 76, 0
1, 78000, Note_on_c, 0, 77, 80
1, 78227, Note_on_c, 0, 77, 0
1, 78240, Note_on_c, 0, 74, 80
1, 78695, Note_on_c, 0, 74, 0
1, 78720, Note_on_c, 0, 67, 80
1, 78947, Note_on_c, 0, 67, 0
1, 78960, Note_on_c, 0, 67, 80
1, 79187, Note_on_c, 0, 67, 0
1, 79200, Note_on_c, 0, 76, 80
1, 79655, Note_on_c, 0, 76, 0
1, 79680, Note_on_c, 0, 77, 80
1, 80135, Note_on_c, 0, 77, 0
1, 80160, Note_on_c, 0, 74, 80
1, 80843, Note_on_c, 0, 74, 0
1, 80880, Note_on_c, 0, 76, 80
1, 81107, Note_on_c, 0, 76, 0
1, 81120, Note_on_c, 0, 77, 80
1, 81575, Note_on_c, 0, 77, 0
1, 81600, Note_on_c, 0, 76, 80
1, 82055, Note_on_c, 0, 76, 0
1, 82080, Note_on_c, 0, 74, 80
1, 82535, Note_on_c, 0, 74, 0
1, 82560, Note_on_c, 0, 72, 80
1, 82787, Note_on_c, 0, 72, 0
1, 82800, Note_on_c, 0, 72, 80
1, 82875, Note_on_c, 0, 72, 0
1, 82880, Note_on_c, 0, 74, 80
1, 82955, Note_on_c, 0, 74, 0
1, 82960, Note_on_c, 0, 72, 80
1, 83035, Note_on_c, 0, 72, 0
1, 83040, Note_on_c, 0, 69, 80
1, 84407, Note_on_c, 0, 69, 0
1, 84480, Note_on_c, 0, 60, 80
1, 84480, Note_on_c, 0, 64, 80
1, 84935, Note_on_c, 0, 60, 0
1, 84935, Note_on_c, 0, 64, 0
1, 84960, Note_on_c, 0, 64, 80
1, 84960, Note_on_c, 0, 71, 80
1, 85187, Note_on_c, 0, 64, 0
1, 85187, Note_on_c, 0, 71, 0
1, 85200, Note_on_c, 0, 64, 80
1, 85200, Note_on_c, 0, 72, 80
1, 85427, Note_on_c, 0, 64, 0
1, 85427, Note_on_c, 0, 72, 0
1, 85440, Note_on_c, 0, 64, 80
1, 85440, Note_on_c, 0, 69, 80
1, 86351, Note_on_c, 0, 64, 0
1, 86351, Note_on_c, 0, 69, 0
1, 86400, Note_on_c, 0, 64, 80
1, 86400, Note_on_c, 0, 72, 80
1, 86855, Note_on_c, 0, 64, 0
1, 86855, Note_on_c, 0, 72, 0
1, 86880, Note_on_c, 0, 64, 80
1, 86880, Note_on_c, 0, 72, 80
1, 87107, Note_on_c, 0, 64, 0
1, 87107, Note_on_c, 0, 72, 0
1, 87120, Note_on_c, 0, 64, 80
1, 87120, Note_on_c, 0, 71, 80
1, 87347, Note_on_c, 0, 64, 0
1, 87347, Note_on_c, 0, 71, 0
1, 87360, Note_on_c, 0, 64, 80
1, 88271, Note_on_c, 0, 64, 0
1, 88320, Note_on_c, 0, 64, 80
1, 88775, Note_on_c, 0, 64, 0
1, 88800, Note_on_c, 0, 64, 80
1, 88800, Note_on_c, 0, 71, 80
1, 89027, Note_on_c, 0, 64, 0
1, 89027, Note_on_c, 0, 71, 0
1, 89040, Note_on_c, 0, 64, 80
1, 89040, Note_on_c, 0, 72, 80
1, 89267, Note_on_c, 0, 64, 0
1, 89267, Note_on_c, 0, 72, 0
1, 89280, Note_on_c, 0, 64, 80
1, 89280, Note_on_c, 0, 69, 80
1, 90191, Note_on_c, 0, 64, 0
1, 90191, Note_on_c, 0, 69, 0
1, 90240, Note_on_c, 0, 64, 80
1, 90240, Note_on_c, 0, 71, 80
1, 90695, Note_on_c, 0, 64, 0
1, 90695, Note_on_c, 0, 71, 0
1, 90720, Note_on_c, 0, 64, 80
1, 90720, Note_on_c, 0, 72, 80
1, 90947, Note_on_c, 0, 64, 0
1, 90947, Note_on_c, 0, 72, 0
1, 90960, Note_on_c, 0, 64, 80
1, 90960, Note_on_c, 0, 71, 80
1, 91985, Note_on_c, 0, 64, 0
1, 91985, Note_on_c, 0, 71, 0
1, 92160, Note_on_c, 0, 64, 80
1, 92615, Note_on_c, 0, 64, 0
1, 92640, Note_on_c, 0, 64, 80
1, 92640, Note_on_c, 0, 71, 80
1, 92867, Note_on_c, 0, 64, 0
1, 92867, Note_on_c, 0, 71, 0
1, 92880, Note_on_c, 0, 64, 80
1, 92880, Note_on_c, 0, 72, 80
1, 93107, Note_on_c, 0, 64, 0
1, 93107, Note_on_c, 0, 72, 0
1, 93120, Note_on_c, 0, 64, 80
1, 93120, Note_on_c, 0, 69, 80
1, 94031, Note_on_c, 0, 64, 0
1, 94031, Note_on_c, 0, 69, 0
1, 94080, Note_on_c, 0, 76, 80
1, 94535, Note_on_c, 0, 76, 0
1, 94560, Note_on_c, 0, 76, 80
1, 95015, Note_on_c, 0, 76, 0
1, 95040, Note_on_c, 0, 74, 80
1, 95495, Note_on_c, 0, 74, 0
1, 95520, Note_on_c, 0, 69, 80
1, 95975, Note_on_c, 0, 69, 0
1, 96000, Note_on_c, 0, 72, 80
1, 96455, Note_on_c, 0, 72, 0
1, 96480, Note_on_c, 0, 72, 80
1, 97163, Note_on_c, 0, 72, 0
1, 97200, Note_on_c, 0, 69, 80
1, 97427, Note_on_c, 0, 69, 0
1, 97440, Note_on_c, 0, 71, 80
1, 98123, Note_on_c, 0, 71, 0
1, 98160, Note_on_c, 0, 72, 80
1, 98387, Note_on_c, 0, 72, 0
1, 98400, Note_on_c, 0, 69, 80
1, 99767, Note_on_c, 0, 69, 0
1, 99840, Note_on_c, 0, 64, 80
1, 100295, Note_on_c, 0, 64, 0
1, 100320, Note_on_c, 0, 64, 80
1, 100320, Note_on_c, 0, 71, 80
1, 100547, Note_on_c, 0, 64, 0
1, 100547, Note_on_c, 0, 71, 0
1, 100560, Note_on_c, 0, 64, 80
1, 100560, Note_on_c, 0, 72, 80
1, 100787, Note_on_c, 0, 64, 0
1, 100787, Note_on_c, 0, 72, 0
1, 100800, Note_on_c, 0, 64, 80
1, 100800, Note_on_c, 0, 69, 80
1, 101711, Note_on_c, 0, 64, 0
1, 101711, Note_on_c, 0, 69, 0
1, 101760, Note_on_c, 0, 65, 80
1, 101760, Note_on_c, 0, 76, 80
1, 102215, Note_on_c, 0, 65, 0
1, 102215, Note_on_c, 0, 76, 0
1, 102240, Note_on_c, 0, 65, 80
1, 102240, Note_on_c, 0, 76, 80
1, 102695, Note_on_c, 0, 65, 0
1, 102695, Note_on_c, 0, 76, 0
1, 102720, Note_on_c, 0, 65, 80
1, 102720, Note_on_c, 0, 74, 80
1, 103175, Note_on_c, 0, 65, 0
1, 103175, Note_on_c, 0, 74, 0
1, 103200, Note_on_c, 0, 65, 80
1, 103200, Note_on_c, 0, 69, 80
1, 103655, Note_on_c, 0, 65, 0
1, 103655, Note_on_c, 0, 69, 0
1, 103680, Note_on_c, 0, 65, 80
1, 103680, Note_on_c, 0, 72, 80
1, 104135, Note_on_c, 0, 65, 0
1, 104135, Note_on_c, 0, 72, 0
1, 104160, Note_on_c, 0, 65, 80
1, 104160, Note_on_c, 0, 72, 80
1, 104843, Note_on_c, 0, 65, 0
1, 104843, Note_on_c, 0, 72, 0
1, 104880, Note_on_c, 0, 69, 80
1, 105107, Note_on_c, 0, 69, 0
1, 105120, Note_on_c, 0, 69, 80
1, 105120, Note_on_c, 0, 76, 80
1, 105575, Note_on_c, 0, 69, 0
1, 105575, Note_on_c, 0, 76, 0
1, 105600, Note_on_c, 0, 74, 80
1, 106055, Note_on_c, 0, 74, 0
1, 106080, Note_on_c, 0, 71, 80
1, 106991, Note_on_c, 0, 71, 0
1, 107040, Note_on_c, 0, 72, 80
1, 107951, Note_on_c, 0, 72, 0
1, 108000, Tempo, 750000
1, 108000, Note_on_c, 0, 69, 80
1, 108480, Tempo, 731707
1, 108911, Note_on_c, 0, 69, 0
1, 108960, Tempo, 789474
1, 109440, Tempo, 857143
1, 109920, Tempo, 937500
1, 110400, Tempo, 1034483
1, 110880, Tempo, 2400000
1, 110881, End_track
2, 0, Start_track
2, 0, Title_t, "Classical Guitar, Lute\000"
2, 0, Key_signature, 0, "major"
2, 0, Control_c, 1, 121, 0
2, 0, Program_c, 1, 24
2, 0, Control_c, 1, 7, 100
2, 0, Control_c, 1, 10, 64
2, 0, Control_c, 1, 91, 0
2, 0, Control_c, 1, 93, 0
2, 0, MIDI_port, 0
2, 0, Control_c, 3, 121, 0
2, 0, Program_c, 3, 28
2, 0, Control_c, 3, 7, 100
2, 0, Control_c, 3, 10, 64
2, 0, Control_c, 3, 91, 0
2, 0, Control_c, 3, 93, 0
2, 0, MIDI_port, 0
2, 6240, Note_on_c, 1, 55, 80
2, 8159, Note_on_c, 1, 55, 0
2, 8160, Note_on_c, 1, 48, 80
2, 10079, Note_on_c, 1, 48, 0
2, 10080, Note_on_c, 1, 48, 80
2, 11999, Note_on_c, 1, 48, 0
2, 12000, Note_on_c, 1, 50, 80
2, 13919, Note_on_c, 1, 50, 0
2, 13920, Note_on_c, 1, 52, 80
2, 15839, Note_on_c, 1, 52, 0
2, 15840, Note_on_c, 1, 57, 80
2, 16079, Note_on_c, 1, 57, 0
2, 16080, Note_on_c, 1, 64, 80
2, 16319, Note_on_c, 1, 64, 0
2, 16320, Note_on_c, 1, 69, 80
2, 16559, Note_on_c, 1, 69, 0
2, 16560, Note_on_c, 1, 64, 80
2, 16799, Note_on_c, 1, 64, 0
2, 16800, Note_on_c, 1, 57, 80
2, 17039, Note_on_c, 1, 57, 0
2, 17040, Note_on_c, 1, 64, 80
2, 17279, Note_on_c, 1, 64, 0
2, 17280, Note_on_c, 1, 69, 80
2, 17759, Note_on_c, 1, 69, 0
2, 17760, Note_on_c, 1, 57, 80
2, 17999, Note_on_c, 1, 57, 0
2, 18000, Note_on_c, 1, 64, 80
2, 18239, Note_on_c, 1, 64, 0
2, 18240, Note_on_c, 1, 69, 80
2, 18479, Note_on_c, 1, 69, 0
2, 18480, Note_on_c, 1, 64, 80
2, 18719, Note_on_c, 1, 64, 0
2, 18720, Note_on_c, 1, 57, 80
2, 18959, Note_on_c, 1, 57, 0
2, 18960, Note_on_c, 1, 64, 80
2, 19199, Note_on_c, 1, 64, 0
2, 19200, Note_on_c, 1, 69, 80
2, 19679, Note_on_c, 1, 69, 0
2, 19680, Note_on_c, 1, 57, 80
2, 19919, Note_on_c, 1, 57, 0
2, 19920, Note_on_c, 1, 64, 80
2, 20159, Note_on_c, 1, 64, 0
2, 20160, Note_on_c, 1, 69, 80
2, 20399, Note_on_c, 1, 69, 0
2, 20400, Note_on_c, 1, 64, 80
2, 20639, Note_on_c, 1, 64, 0
2, 20640, Note_on_c, 1, 57, 80
2, 20879, Note_on_c, 1, 57, 0
2, 20880, Note_on_c, 1, 64, 80
2, 21119, Note_on_c, 1, 64, 0
2, 21120, Note_on_c, 1, 69, 80
2, 21359, Note_on_c, 1, 69, 0
2, 21360, Note_on_c, 1, 64, 80
2, 21599, Note_on_c, 1, 64, 0
2, 21600, Note_on_c, 1, 55, 80
2, 21839, Note_on_c, 1, 55, 0
2, 21840, Note_on_c, 1, 62, 80
2, 22079, Note_on_c, 1, 62, 0
2, 22080, Note_on_c, 1, 67, 80
2, 22319, Note_on_c, 1, 67, 0
2, 22320, Note_on_c, 1, 71, 80
2, 22559, Note_on_c, 1, 71, 0
2, 22560, Note_on_c, 1, 74, 80
2, 22799, Note_on_c, 1, 74, 0
2, 22800, Note_on_c, 1, 71, 80
2, 23039, Note_on_c, 1, 71, 0
2, 23040, Note_on_c, 1, 67, 80
2, 23279, Note_on_c, 1, 67, 0
2, 23280, Note_on_c, 1, 62, 80
2, 23519, Note_on_c, 1, 62, 0
2, 23520, Note_on_c, 1, 60, 80
2, 23759, Note_on_c, 1, 60, 0
2, 23760, Note_on_c, 1, 67, 80
2, 23999, Note_on_c, 1, 67, 0
2, 24000, Note_on_c, 1, 72, 80
2, 24239, Note_on_c, 1, 72, 0
2, 24240, Note_on_c, 1, 67, 80
2, 24479, Note_on_c, 1, 67, 0
2, 24480, Note_on_c, 1, 60, 80
2, 24719, Note_on_c, 1, 60, 0
2, 24720, Note_on_c, 1, 67, 80
2, 24959, Note_on_c, 1, 67, 0
2, 24960, Note_on_c, 1, 72, 80
2, 25199, Note_on_c, 1, 72, 0
2, 25200, Note_on_c, 1, 67, 80
2, 25439, Note_on_c, 1, 67, 0
2, 25440, Note_on_c, 1, 60, 80
2, 25679, Note_on_c, 1, 60, 0
2, 25680, Note_on_c, 1, 67, 80
2, 25919, Note_on_c, 1, 67, 0
2, 25920, Note_on_c, 1, 72, 80
2, 26159, Note_on_c, 1, 72, 0
2, 26160, Note_on_c, 1, 67, 80
2, 26399, Note_on_c, 1, 67, 0
2, 26400, Note_on_c, 1, 60, 80
2, 26639, Note_on_c, 1, 60, 0
2, 26640, Note_on_c, 1, 67, 80
2, 26879, Note_on_c, 1, 67, 0
2, 26880, Note_on_c, 1, 72, 80
2, 27119, Note_on_c, 1, 72, 0
2, 27120, Note_on_c, 1, 67, 80
2, 27359, Note_on_c, 1, 67, 0
2, 27360, Note_on_c, 1, 62, 80
2, 27599, Note_on_c, 1, 62, 0
2, 27600, Note_on_c, 1, 65, 80
2, 27839, Note_on_c, 1, 65, 0
2, 27840, Note_on_c, 1, 69, 80
2, 28079, Note_on_c, 1, 69, 0
2, 28080, Note_on_c, 1, 74, 80
2, 28319, Note_on_c, 1, 74, 0
2, 28320, Note_on_c, 1, 76, 80
2, 28799, Note_on_c, 1, 76, 0
2, 28800, Note_on_c, 1, 69, 80
2, 29279, Note_on_c, 1, 69, 0
2, 29280, Note_on_c, 1, 57, 80
2, 29519, Note_on_c, 1, 57, 0
2, 29520, Note_on_c, 1, 64, 80
2, 29759, Note_on_c, 1, 64, 0
2, 29760, Note_on_c, 1, 69, 80
2, 29999, Note_on_c, 1, 69, 0
2, 30000, Note_on_c, 1, 72, 80
2, 30239, Note_on_c, 1, 72, 0
2, 30240, Note_on_c, 1, 76, 80
2, 30719, Note_on_c, 1, 76, 0
2, 31200, Note_on_c, 1, 57, 80
2, 31439, Note_on_c, 1, 57, 0
2, 31440, Note_on_c, 1, 64, 80
2, 31679, Note_on_c, 1, 64, 0
2, 31680, Note_on_c, 1, 69, 80
2, 31919, Note_on_c, 1, 69, 0
2, 31920, Note_on_c, 1, 72, 80
2, 32159, Note_on_c, 1, 72, 0
2, 32160, Note_on_c, 1, 76, 80
2, 32399, Note_on_c, 1, 76, 0
2, 32400, Note_on_c, 1, 72, 80
2, 32639, Note_on_c, 1, 72, 0
2, 32640, Note_on_c, 1, 69, 80
2, 32879, Note_on_c, 1, 69, 0
2, 32880, Note_on_c, 1, 72, 80
2, 33119, Note_on_c, 1, 72, 0
2, 33120, Note_on_c, 1, 52, 80
2, 33359, Note_on_c, 1, 52, 0
2, 33360, Note_on_c, 1, 59, 80
2, 33599, Note_on_c, 1, 59, 0
2, 33600, Note_on_c, 1, 64, 80
2, 33839, Note_on_c, 1, 64, 0
2, 33840, Note_on_c, 1, 67, 80
2, 34079, Note_on_c, 1, 67, 0
2, 34080, Note_on_c, 1, 71, 80
2, 34319, Note_on_c, 1, 71, 0
2, 34320, Note_on_c, 1, 67, 80
2, 34559, Note_on_c, 1, 67, 0
2, 34560, Note_on_c, 1, 64, 80
2, 34799, Note_on_c, 1, 64, 0
2, 34800, Note_on_c, 1, 67, 80
2, 35039, Note_on_c, 1, 67, 0
2, 35040, Note_on_c, 1, 57, 80
2, 35279, Note_on_c, 1, 57, 0
2, 35280, Note_on_c, 1, 64, 80
2, 35519, Note_on_c, 1, 64, 0
2, 35520, Note_on_c, 1, 69, 80
2, 35759, Note_on_c, 1, 69, 0
2, 35760, Note_on_c, 1, 72, 80
2, 35999, Note_on_c, 1, 72, 0
2, 36000, Note_on_c, 1, 76, 80
2, 36239, Note_on_c, 1, 76, 0
2, 36240, Note_on_c, 1, 72, 80
2, 36479, Note_on_c, 1, 72, 0
2, 36480, Note_on_c, 1, 69, 80
2, 36719, Note_on_c, 1, 69, 0
2, 36720, Note_on_c, 1, 72, 80
2, 36959, Note_on_c, 1, 72, 0
2, 36960, Note_on_c, 1, 52, 80
2, 37199, Note_on_c, 1, 52, 0
2, 37200, Note_on_c, 1, 59, 80
2, 37439, Note_on_c, 1, 59, 0
2, 37440, Note_on_c, 1, 64, 80
2, 37679, Note_on_c, 1, 64, 0
2, 37680, Note_on_c, 1, 67, 80
2, 37919, Note_on_c, 1, 67, 0
2, 37920, Note_on_c, 1, 71, 80
2, 38159, Note_on_c, 1, 71, 0
2, 38160, Note_on_c, 1, 67, 80
2, 38399, Note_on_c, 1, 67, 0
2, 38400, Note_on_c, 1, 64, 80
2, 38639, Note_on_c, 1, 64, 0
2, 38640, Note_on_c, 1, 67, 80
2, 38879, Note_on_c, 1, 67, 0
2, 38880, Note_on_c, 1, 53, 80
2, 39119, Note_on_c, 1, 53, 0
2, 39120, Note_on_c, 1, 60, 80
2, 39359, Note_on_c, 1, 60, 0
2, 39360, Note_on_c, 1, 65, 80
2, 39599, Note_on_c, 1, 65, 0
2, 39600, Note_on_c, 1, 60, 80
2, 39839, Note_on_c, 1, 60, 0
2, 39840, Note_on_c, 1, 53, 80
2, 40079, Note_on_c, 1, 53, 0
2, 40080, Note_on_c, 1, 60, 80
2, 40319, Note_on_c, 1, 60, 0
2, 40320, Note_on_c, 1, 65, 80
2, 40559, Note_on_c, 1, 65, 0
2, 40560, Note_on_c, 1, 60, 80
2, 40799, Note_on_c, 1, 60, 0
2, 40800, Note_on_c, 1, 50, 80
2, 41039, Note_on_c, 1, 50, 0
2, 41040, Note_on_c, 1, 57, 80
2, 41279, Note_on_c, 1, 57, 0
2, 41280, Note_on_c, 1, 62, 80
2, 41519, Note_on_c, 1, 62, 0
2, 41520, Note_on_c, 1, 64, 80
2, 41759, Note_on_c, 1, 64, 0
2, 41760, Note_on_c, 1, 65, 80
2, 41999, Note_on_c, 1, 65, 0
2, 42000, Note_on_c, 1, 69, 80
2, 42239, Note_on_c, 1, 69, 0
2, 42240, Note_on_c, 1, 62, 80
2, 42479, Note_on_c, 1, 62, 0
2, 42480, Note_on_c, 1, 65, 80
2, 42719, Note_on_c, 1, 65, 0
2, 42720, Note_on_c, 1, 53, 80
2, 42959, Note_on_c, 1, 53, 0
2, 42960, Note_on_c, 1, 60, 80
2, 43199, Note_on_c, 1, 60, 0
2, 43200, Note_on_c, 1, 65, 80
2, 43439, Note_on_c, 1, 65, 0
2, 43440, Note_on_c, 1, 60, 80
2, 43679, Note_on_c, 1, 60, 0
2, 43680, Note_on_c, 1, 52, 80
2, 43919, Note_on_c, 1, 52, 0
2, 43920, Note_on_c, 1, 59, 80
2, 44159, Note_on_c, 1, 59, 0
2, 44160, Note_on_c, 1, 64, 80
2, 44399, Note_on_c, 1, 64, 0
2, 44400, Note_on_c, 1, 59, 80
2, 44639, Note_on_c, 1, 59, 0
2, 44640, Note_on_c, 1, 57, 80
2, 44879, Note_on_c, 1, 57, 0
2, 44880, Note_on_c, 1, 64, 80
2, 45119, Note_on_c, 1, 64, 0
2, 45120, Note_on_c, 1, 69, 80
2, 45359, Note_on_c, 1, 69, 0
2, 45360, Note_on_c, 1, 72, 80
2, 45599, Note_on_c, 1, 72, 0
2, 45600, Note_on_c, 1, 76, 80
2, 46079, Note_on_c, 1, 76, 0
2, 46560, Note_on_c, 1, 53, 80
2, 46799, Note_on_c, 1, 53, 0
2, 46800, Note_on_c, 1, 60, 80
2, 47039, Note_on_c, 1, 60, 0
2, 47040, Note_on_c, 1, 65, 80
2, 47279, Note_on_c, 1, 65, 0
2, 47280, Note_on_c, 1, 60, 80
2, 47519, Note_on_c, 1, 60, 0
2, 47520, Note_on_c, 1, 53, 80
2, 47759, Note_on_c, 1, 53, 0
2, 47760, Note_on_c, 1, 60, 80
2, 47999, Note_on_c, 1, 60, 0
2, 48000, Note_on_c, 1, 65, 80
2, 48239, Note_on_c, 1, 65, 0
2, 48240, Note_on_c, 1, 60, 80
2, 48479, Note_on_c, 1, 60, 0
2, 48480, Note_on_c, 1, 50, 80
2, 48719, Note_on_c, 1, 50, 0
2, 48720, Note_on_c, 1, 57, 80
2, 48959, Note_on_c, 1, 57, 0
2, 48960, Note_on_c, 1, 62, 80
2, 49199, Note_on_c, 1, 62, 0
2, 49200, Note_on_c, 1, 57, 80
2, 49439, Note_on_c, 1, 57, 0
2, 49440, Note_on_c, 1, 50, 80
2, 49679, Note_on_c, 1, 50, 0
2, 49680, Note_on_c, 1, 57, 80
2, 49919, Note_on_c, 1, 57, 0
2, 49920, Note_on_c, 1, 62, 80
2, 50159, Note_on_c, 1, 62, 0
2, 50160, Note_on_c, 1, 57, 80
2, 50399, Note_on_c, 1, 57, 0
2, 50400, Note_on_c, 1, 53, 80
2, 50639, Note_on_c, 1, 53, 0
2, 50640, Note_on_c, 1, 60, 80
2, 50879, Note_on_c, 1, 60, 0
2, 50880, Note_on_c, 1, 65, 80
2, 51119, Note_on_c, 1, 65, 0
2, 51120, Note_on_c, 1, 60, 80
2, 51359, Note_on_c, 1, 60, 0
2, 51360, Note_on_c, 1, 52, 80
2, 51599, Note_on_c, 1, 52, 0
2, 51600, Note_on_c, 1, 59, 80
2, 51839, Note_on_c, 1, 59, 0
2, 51840, Note_on_c, 1, 64, 80
2, 52079, Note_on_c, 1, 64, 0
2, 52080, Note_on_c, 1, 59, 80
2, 52319, Note_on_c, 1, 59, 0
2, 52320, Note_on_c, 1, 57, 80
2, 52559, Note_on_c, 1, 57, 0
2, 52560, Note_on_c, 1, 64, 80
2, 52799, Note_on_c, 1, 64, 0
2, 52800, Note_on_c, 1, 69, 80
2, 53039, Note_on_c, 1, 69, 0
2, 53040, Note_on_c, 1, 72, 80
2, 53279, Note_on_c, 1, 72, 0
2, 53280, Note_on_c, 1, 69, 80
2, 53519, Note_on_c, 1, 69, 0
2, 53520, Note_on_c, 1, 64, 80
2, 53759, Note_on_c, 1, 64, 0
2, 53760, Note_on_c, 1, 60, 80
2, 53999, Note_on_c, 1, 60, 0
2, 54000, Note_on_c, 1, 57, 80
2, 54239, Note_on_c, 1, 57, 0
2, 54240, Note_on_c, 1, 57, 80
2, 54479, Note_on_c, 1, 57, 0
2, 54480, Note_on_c, 1, 60, 80
2, 54719, Note_on_c, 1, 60, 0
2, 54720, Note_on_c, 1, 64, 80
2, 54959, Note_on_c, 1, 64, 0
2, 54960, Note_on_c, 1, 69, 80
2, 55199, Note_on_c, 1, 69, 0
2, 55200, Note_on_c, 1, 57, 80
2, 55439, Note_on_c, 1, 57, 0
2, 55440, Note_on_c, 1, 60, 80
2, 55679, Note_on_c, 1, 60, 0
2, 55680, Note_on_c, 1, 64, 80
2, 55919, Note_on_c, 1, 64, 0
2, 55920, Note_on_c, 1, 69, 80
2, 56159, Note_on_c, 1, 69, 0
2, 56160, Note_on_c, 1, 57, 80
2, 56399, Note_on_c, 1, 57, 0
2, 56400, Note_on_c, 1, 60, 80
2, 56639, Note_on_c, 1, 60, 0
2, 56640, Note_on_c, 1, 64, 80
2, 56879, Note_on_c, 1, 64, 0
2, 56880, Note_on_c, 1, 69, 80
2, 57119, Note_on_c, 1, 69, 0
2, 57120, Note_on_c, 1, 57, 80
2, 57359, Note_on_c, 1, 57, 0
2, 57360, Note_on_c, 1, 60, 80
2, 57599, Note_on_c, 1, 60, 0
2, 57600, Note_on_c, 1, 64, 80
2, 57839, Note_on_c, 1, 64, 0
2, 57840, Note_on_c, 1, 69, 80
2, 58079, Note_on_c, 1, 69, 0
2, 58080, Note_on_c, 1, 57, 80
2, 58319, Note_on_c, 1, 57, 0
2, 58320, Note_on_c, 1, 60, 80
2, 58559, Note_on_c, 1, 60, 0
2, 58560, Note_on_c, 1, 64, 80
2, 58799, Note_on_c, 1, 64, 0
2, 58800, Note_on_c, 1, 69, 80
2, 59039, Note_on_c, 1, 69, 0
2, 59040, Note_on_c, 1, 57, 80
2, 59279, Note_on_c, 1, 57, 0
2, 59280, Note_on_c, 1, 60, 80
2, 59519, Note_on_c, 1, 60, 0
2, 59520, Note_on_c, 1, 64, 80
2, 59759, Note_on_c, 1, 64, 0
2, 59760, Note_on_c, 1, 69, 80
2, 59999, Note_on_c, 1, 69, 0
2, 60000, Note_on_c, 1, 55, 80
2, 60239, Note_on_c, 1, 55, 0
2, 60240, Note_on_c, 1, 59, 80
2, 60479, Note_on_c, 1, 59, 0
2, 60480, Note_on_c, 1, 62, 80
2, 60719, Note_on_c, 1, 62, 0
2, 60720, Note_on_c, 1, 67, 80
2, 60959, Note_on_c, 1, 67, 0
2, 60960, Note_on_c, 1, 71, 80
2, 61199, Note_on_c, 1, 71, 0
2, 61200, Note_on_c, 1, 67, 80
2, 61439, Note_on_c, 1, 67, 0
2, 61440, Note_on_c, 1, 62, 80
2, 61679, Note_on_c, 1, 62, 0
2, 61680, Note_on_c, 1, 59, 80
2, 61919, Note_on_c, 1, 59, 0
2, 61920, Note_on_c, 1, 60, 80
2, 62159, Note_on_c, 1, 60, 0
2, 62160, Note_on_c, 1, 64, 80
2, 62399, Note_on_c, 1, 64, 0
2, 62400, Note_on_c, 1, 67, 80
2, 62639, Note_on_c, 1, 67, 0
2, 62640, Note_on_c, 1, 72, 80
2, 62879, Note_on_c, 1, 72, 0
2, 62880, Note_on_c, 1, 60, 80
2, 63119, Note_on_c, 1, 60, 0
2, 63120, Note_on_c, 1, 64, 80
2, 63359, Note_on_c, 1, 64, 0
2, 63360, Note_on_c, 1, 67, 80
2, 63599, Note_on_c, 1, 67, 0
2, 63600, Note_on_c, 1, 72, 80
2, 63839, Note_on_c, 1, 72, 0
2, 63840, Note_on_c, 1, 60, 80
2, 64079, Note_on_c, 1, 60, 0
2, 64080, Note_on_c, 1, 64, 80
2, 64319, Note_on_c, 1, 64, 0
2, 64320, Note_on_c, 1, 67, 80
2, 64559, Note_on_c, 1, 67, 0
2, 64560, Note_on_c, 1, 72, 80
2, 64799, Note_on_c, 1, 72, 0
2, 64800, Note_on_c, 1, 60, 80
2, 65039, Note_on_c, 1, 60, 0
2, 65040, Note_on_c, 1, 64, 80
2, 65279, Note_on_c, 1, 64, 0
2, 65280, Note_on_c, 1, 67, 80
2, 65519, Note_on_c, 1, 67, 0
2, 65520, Note_on_c, 1, 72, 80
2, 65759, Note_on_c, 1, 72, 0
2, 65760, Note_on_c, 1, 62, 80
2, 65999, Note_on_c, 1, 62, 0
2, 66000, Note_on_c, 1, 65, 80
2, 66239, Note_on_c, 1, 65, 0
2, 66240, Note_on_c, 1, 69, 80
2, 66479, Note_on_c, 1, 69, 0
2, 66480, Note_on_c, 1, 74, 80
2, 66719, Note_on_c, 1, 74, 0
2, 66720, Note_on_c, 1, 69, 80
2, 67199, Note_on_c, 1, 69, 0
2, 67200, Note_on_c, 1, 65, 80
2, 67679, Note_on_c, 1, 65, 0
2, 67680, Note_on_c, 1, 64, 80
2, 67919, Note_on_c, 1, 64, 0
2, 67920, Note_on_c, 1, 67, 80
2, 68159, Note_on_c, 1, 67, 0
2, 68160, Note_on_c, 1, 71, 80
2, 68399, Note_on_c, 1, 71, 0
2, 68400, Note_on_c, 1, 76, 80
2, 68639, Note_on_c, 1, 76, 0
2, 69600, Note_on_c, 1, 57, 80
2, 69839, Note_on_c, 1, 57, 0
2, 69840, Note_on_c, 1, 60, 80
2, 70079, Note_on_c, 1, 60, 0
2, 70080, Note_on_c, 1, 64, 80
2, 70319, Note_on_c, 1, 64, 0
2, 70320, Note_on_c, 1, 69, 80
2, 70559, Note_on_c, 1, 69, 0
2, 70560, Note_on_c, 1, 57, 80
2, 70799, Note_on_c, 1, 57, 0
2, 70800, Note_on_c, 1, 60, 80
2, 71039, Note_on_c, 1, 60, 0
2, 71040, Note_on_c, 1, 64, 80
2, 71279, Note_on_c, 1, 64, 0
2, 71280, Note_on_c, 1, 69, 80
2, 71519, Note_on_c, 1, 69, 0
2, 71520, Note_on_c, 1, 57, 80
2, 71759, Note_on_c, 1, 57, 0
2, 71760, Note_on_c, 1, 60, 80
2, 71999, Note_on_c, 1, 60, 0
2, 72000, Note_on_c, 1, 64, 80
2, 72239, Note_on_c, 1, 64, 0
2, 72240, Note_on_c, 1, 69, 80
2, 72479, Note_on_c, 1, 69, 0
2, 72480, Note_on_c, 1, 57, 80
2, 72719, Note_on_c, 1, 57, 0
2, 72720, Note_on_c, 1, 60, 80
2, 72959, Note_on_c, 1, 60, 0
2, 72960, Note_on_c, 1, 64, 80
2, 73199, Note_on_c, 1, 64, 0
2, 73200, Note_on_c, 1, 69, 80
2, 73439, Note_on_c, 1, 69, 0
2, 73440, Note_on_c, 1, 57, 80
2, 73679, Note_on_c, 1, 57, 0
2, 73680, Note_on_c, 1, 60, 80
2, 73919, Note_on_c, 1, 60, 0
2, 73920, Note_on_c, 1, 64, 80
2, 74159, Note_on_c, 1, 64, 0
2, 74160, Note_on_c, 1, 69, 80
2, 74399, Note_on_c, 1, 69, 0
2, 74400, Note_on_c, 1, 64, 80
2, 74639, Note_on_c, 1, 64, 0
2, 74640, Note_on_c, 1, 60, 80
2, 74879, Note_on_c, 1, 60, 0
2, 74880, Note_on_c, 1, 57, 80
2, 75119, Note_on_c, 1, 57, 0
2, 75120, Note_on_c, 1, 52, 80
2, 75359, Note_on_c, 1, 52, 0
2, 75360, Note_on_c, 1, 55, 80
2, 75599, Note_on_c, 1, 55, 0
2, 75600, Note_on_c, 1, 62, 80
2, 75839, Note_on_c, 1, 62, 0
2, 75840, Note_on_c, 1, 67, 80
2, 76079, Note_on_c, 1, 67, 0
2, 76080, Note_on_c, 1, 71, 80
2, 76319, Note_on_c, 1, 71, 0
2, 76320, Note_on_c, 1, 55, 80
2, 76559, Note_on_c, 1, 55, 0
2, 76560, Note_on_c, 1, 62, 80
2, 76799, Note_on_c, 1, 62, 0
2, 76800, Note_on_c, 1, 67, 80
2, 77039, Note_on_c, 1, 67, 0
2, 77040, Note_on_c, 1, 71, 80
2, 77279, Note_on_c, 1, 71, 0
2, 77280, Note_on_c, 1, 60, 80
2, 77519, Note_on_c, 1, 60, 0
2, 77520, Note_on_c, 1, 64, 80
2, 77759, Note_on_c, 1, 64, 0
2, 77760, Note_on_c, 1, 67, 80
2, 77999, Note_on_c, 1, 67, 0
2, 78000, Note_on_c, 1, 72, 80
2, 78239, Note_on_c, 1, 72, 0
2, 78240, Note_on_c, 1, 60, 80
2, 78479, Note_on_c, 1, 60, 0
2, 78480, Note_on_c, 1, 64, 80
2, 78719, Note_on_c, 1, 64, 0
2, 78720, Note_on_c, 1, 67, 80
2, 78959, Note_on_c, 1, 67, 0
2, 78960, Note_on_c, 1, 72, 80
2, 79199, Note_on_c, 1, 72, 0
2, 79200, Note_on_c, 1, 60, 80
2, 79439, Note_on_c, 1, 60, 0
2, 79440, Note_on_c, 1, 64, 80
2, 79679, Note_on_c, 1, 64, 0
2, 79680, Note_on_c, 1, 67, 80
2, 79919, Note_on_c, 1, 67, 0
2, 79920, Note_on_c, 1, 72, 80
2, 80159, Note_on_c, 1, 72, 0
2, 80160, Note_on_c, 1, 60, 80
2, 80399, Note_on_c, 1, 60, 0
2, 80400, Note_on_c, 1, 64, 80
2, 80639, Note_on_c, 1, 64, 0
2, 80640, Note_on_c, 1, 67, 80
2, 80879, Note_on_c, 1, 67, 0
2, 80880, Note_on_c, 1, 72, 80
2, 81119, Note_on_c, 1, 72, 0
2, 81120, Note_on_c, 1, 62, 80
2, 81359, Note_on_c, 1, 62, 0
2, 81360, Note_on_c, 1, 65, 80
2, 81599, Note_on_c, 1, 65, 0
2, 81600, Note_on_c, 1, 69, 80
2, 81839, Note_on_c, 1, 69, 0
2, 81840, Note_on_c, 1, 74, 80
2, 82079, Note_on_c, 1, 74, 0
2, 82080, Note_on_c, 1, 76, 80
2, 82559, Note_on_c, 1, 76, 0
2, 82560, Note_on_c, 1, 69, 80
2, 83039, Note_on_c, 1, 69, 0
2, 83040, Note_on_c, 1, 57, 80
2, 83279, Note_on_c, 1, 57, 0
2, 83280, Note_on_c, 1, 64, 80
2, 83519, Note_on_c, 1, 64, 0
2, 83520, Note_on_c, 1, 69, 80
2, 83759, Note_on_c, 1, 69, 0
2, 83760, Note_on_c, 1, 72, 80
2, 83999, Note_on_c, 1, 72, 0
2, 84000, Note_on_c, 1, 76, 80
2, 84479, Note_on_c, 1, 76, 0
2, 84480, Note_on_c, 1, 64, 80
2, 84959, Note_on_c, 1, 64, 0
2, 84960, Note_on_c, 1, 57, 80
2, 85199, Note_on_c, 1, 57, 0
2, 85200, Note_on_c, 1, 64, 80
2, 85439, Note_on_c, 1, 64, 0
2, 85440, Note_on_c, 1, 69, 80
2, 85679, Note_on_c, 1, 69, 0
2, 85680, Note_on_c, 1, 72, 80
2, 85919, Note_on_c, 1, 72, 0
2, 85920, Note_on_c, 1, 76, 80
2, 86159, Note_on_c, 1, 76, 0
2, 86160, Note_on_c, 1, 72, 80
2, 86399, Note_on_c, 1, 72, 0
2, 86400, Note_on_c, 1, 69, 80
2, 86639, Note_on_c, 1, 69, 0
2, 86640, Note_on_c, 1, 72, 80
2, 86879, Note_on_c, 1, 72, 0
2, 86880, Note_on_c, 1, 52, 80
2, 87119, Note_on_c, 1, 52, 0
2, 87120, Note_on_c, 1, 59, 80
2, 87359, Note_on_c, 1, 59, 0
2, 87360, Note_on_c, 1, 64, 80
2, 87599, Note_on_c, 1, 64, 0
2, 87600, Note_on_c, 1, 67, 80
2, 87839, Note_on_c, 1, 67, 0
2, 87840, Note_on_c, 1, 71, 80
2, 88079, Note_on_c, 1, 71, 0
2, 88080, Note_on_c, 1, 67, 80
2, 88319, Note_on_c, 1, 67, 0
2, 88320, Note_on_c, 1, 64, 80
2, 88559, Note_on_c, 1, 64, 0
2, 88560, Note_on_c, 1, 67, 80
2, 88799, Note_on_c, 1, 67, 0
2, 88800, Note_on_c, 1, 57, 80
2, 89039, Note_on_c, 1, 57, 0
2, 89040, Note_on_c, 1, 64, 80
2, 89279, Note_on_c, 1, 64, 0
2, 89280, Note_on_c, 1, 69, 80
2, 89519, Note_on_c, 1, 69, 0
2, 89520, Note_on_c, 1, 72, 80
2, 89759, Note_on_c, 1, 72, 0
2, 89760, Note_on_c, 1, 76, 80
2, 89999, Note_on_c, 1, 76, 0
2, 90000, Note_on_c, 1, 72, 80
2, 90239, Note_on_c, 1, 72, 0
2, 90240, Note_on_c, 1, 69, 80
2, 90479, Note_on_c, 1, 69, 0
2, 90480, Note_on_c, 1, 72, 80
2, 90719, Note_on_c, 1, 72, 0
2, 90720, Note_on_c, 1, 52, 80
2, 90959, Note_on_c, 1, 52, 0
2, 90960, Note_on_c, 1, 59, 80
2, 91199, Note_on_c, 1, 59, 0
2, 91200, Note_on_c, 1, 64, 80
2, 91439, Note_on_c, 1, 64, 0
2, 91440, Note_on_c, 1, 67, 80
2, 91679, Note_on_c, 1, 67, 0
2, 91680, Note_on_c, 1, 71, 80
2, 91919, Note_on_c, 1, 71, 0
2, 91920, Note_on_c, 1, 67, 80
2, 92159, Note_on_c, 1, 67, 0
2, 92160, Note_on_c, 1, 64, 80
2, 92399, Note_on_c, 1, 64, 0
2, 92400, Note_on_c, 1, 67, 80
2, 92639, Note_on_c, 1, 67, 0
2, 92640, Note_on_c, 1, 53, 80
2, 92879, Note_on_c, 1, 53, 0
2, 92880, Note_on_c, 1, 60, 80
2, 93119, Note_on_c, 1, 60, 0
2, 93120, Note_on_c, 1, 65, 80
2, 93359, Note_on_c, 1, 65, 0
2, 93360, Note_on_c, 1, 60, 80
2, 93599, Note_on_c, 1, 60, 0
2, 93600, Note_on_c, 1, 53, 80
2, 93839, Note_on_c, 1, 53, 0
2, 93840, Note_on_c, 1, 60, 80
2, 94079, Note_on_c, 1, 60, 0
2, 94080, Note_on_c, 1, 65, 80
2, 94319, Note_on_c, 1, 65, 0
2, 94320, Note_on_c, 1, 60, 80
2, 94559, Note_on_c, 1, 60, 0
2, 94560, Note_on_c, 1, 52, 80
2, 94799, Note_on_c, 1, 52, 0
2, 94800, Note_on_c, 1, 59, 80
2, 95039, Note_on_c, 1, 59, 0
2, 95040, Note_on_c, 1, 62, 80
2, 95279, Note_on_c, 1, 62, 0
2, 95280, Note_on_c, 1, 65, 80
2, 95519, Note_on_c, 1, 65, 0
2, 95520, Note_on_c, 1, 69, 80
2, 95759, Note_on_c, 1, 69, 0
2, 95760, Note_on_c, 1, 65, 80
2, 95999, Note_on_c, 1, 65, 0
2, 96000, Note_on_c, 1, 62, 80
2, 96239, Note_on_c, 1, 62, 0
2, 96240, Note_on_c, 1, 65, 80
2, 96479, Note_on_c, 1, 65, 0
2, 96480, Note_on_c, 1, 53, 80
2, 96719, Note_on_c, 1, 53, 0
2, 96720, Note_on_c, 1, 60, 80
2, 96959, Note_on_c, 1, 60, 0
2, 96960, Note_on_c, 1, 65, 80
2, 97199, Note_on_c, 1, 65, 0
2, 97200, Note_on_c, 1, 60, 80
2, 97439, Note_on_c, 1, 60, 0
2, 97440, Note_on_c, 1, 52, 80
2, 97679, Note_on_c, 1, 52, 0
2, 97680, Note_on_c, 1, 59, 80
2, 97919, Note_on_c, 1, 59, 0
2, 97920, Note_on_c, 1, 64, 80
2, 98159, Note_on_c, 1, 64, 0
2, 98160, Note_on_c, 1, 59, 80
2, 98399, Note_on_c, 1, 59, 0
2, 98400, Note_on_c, 1, 57, 80
2, 98639, Note_on_c, 1, 57, 0
2, 98640, Note_on_c, 1, 64, 80
2, 98879, Note_on_c, 1, 64, 0
2, 98880, Note_on_c, 1, 69, 80
2, 99119, Note_on_c, 1, 69, 0
2, 99120, Note_on_c, 1, 72, 80
2, 99359, Note_on_c, 1, 72, 0
2, 99360, Note_on_c, 1, 76, 80
2, 99839, Note_on_c, 1, 76, 0
2, 99840, Note_on_c, 1, 72, 80
2, 100319, Note_on_c, 1, 72, 0
2, 100320, Note_on_c, 1, 53, 80
2, 100559, Note_on_c, 1, 53, 0
2, 100560, Note_on_c, 1, 60, 80
2, 100799, Note_on_c, 1, 60, 0
2, 100800, Note_on_c, 1, 65, 80
2, 101039, Note_on_c, 1, 65, 0
2, 101040, Note_on_c, 1, 60, 80
2, 101279, Note_on_c, 1, 60, 0
2, 101280, Note_on_c, 1, 53, 80
2, 101519, Note_on_c, 1, 53, 0
2, 101520, Note_on_c, 1, 60, 80
2, 101759, Note_on_c, 1, 60, 0
2, 101760, Note_on_c, 1, 65, 80
2, 101999, Note_on_c, 1, 65, 0
2, 102000, Note_on_c, 1, 60, 80
2, 102239, Note_on_c, 1, 60, 0
2, 102240, Note_on_c, 1, 52, 80
2, 102479, Note_on_c, 1, 52, 0
2, 102480, Note_on_c, 1, 59, 80
2, 102719, Note_on_c, 1, 59, 0
2, 102720, Note_on_c, 1, 62, 80
2, 102959, Note_on_c, 1, 62, 0
2, 102960, Note_on_c, 1, 65, 80
2, 103199, Note_on_c, 1, 65, 0
2, 103200, Note_on_c, 1, 69, 80
2, 103439, Note_on_c, 1, 69, 0
2, 103440, Note_on_c, 1, 65, 80
2, 103679, Note_on_c, 1, 65, 0
2, 103680, Note_on_c, 1, 62, 80
2, 103919, Note_on_c, 1, 62, 0
2, 103920, Note_on_c, 1, 65, 80
2, 104159, Note_on_c, 1, 65, 0
2, 104160, Note_on_c, 1, 53, 80
2, 104399, Note_on_c, 1, 53, 0
2, 104400, Note_on_c, 1, 60, 80
2, 104639, Note_on_c, 1, 60, 0
2, 104640, Note_on_c, 1, 65, 80
2, 105119, Note_on_c, 1, 65, 0
2, 105120, Note_on_c, 1, 52, 80
2, 105599, Note_on_c, 1, 52, 0
2, 105600, Note_on_c, 1, 59, 80
2, 106079, Note_on_c, 1, 59, 0
2, 106080, Note_on_c, 1, 52, 80
2, 107999, Note_on_c, 1, 52, 0
2, 108000, Note_on_c, 1, 57, 80
2, 108479, Note_on_c, 1, 57, 0
2, 108480, Note_on_c, 1, 52, 80
2, 108719, Note_on_c, 1, 52, 0
2, 108720, Note_on_c, 1, 57, 80
2, 108959, Note_on_c, 1, 57, 0
2, 108960, Note_on_c, 1, 60, 80
2, 109199, Note_on_c, 1, 60, 0
2, 109200, Note_on_c, 1, 64, 80
2, 109439, Note_on_c, 1, 64, 0
2, 109440, Note_on_c, 1, 69, 80
2, 109679, Note_on_c, 1, 69, 0
2, 109680, Note_on_c, 1, 64, 80
2, 109919, Note_on_c, 1, 64, 0
2, 109920, Note_on_c, 1, 69, 80
2, 110159, Note_on_c, 1, 69, 0
2, 110160, Note_on_c, 1, 72, 80
2, 110399, Note_on_c, 1, 72, 0
2, 110400, Note_on_c, 1, 76, 80
2, 110639, Note_on_c, 1, 76, 0
2, 110640, Note_on_c, 1, 81, 80
2, 110879, Note_on_c, 1, 81, 0
2, 110880, End_track
3, 0, Start_track
3, 0, Title_t, "Chimes, Bell\000"
3, 0, Key_signature, 0, "major"
3, 0, Control_c, 2, 121, 0
3, 0, Program_c, 2, 14
3, 0, Control_c, 2, 7, 100
3, 0, Control_c, 2, 10, 64
3, 0, Control_c, 2, 91, 0
3, 0, Control_c, 2, 93, 0
3, 0, MIDI_port, 0
3, 54000, Note_on_c, 2, 64, 80
3, 54239, Note_on_c, 2, 64, 0
3, 54240, Note_on_c, 2, 72, 80
3, 54959, Note_on_c, 2, 72, 0
3, 54960, Note_on_c, 2, 64, 80
3, 55199, Note_on_c, 2, 64, 0
3, 55200, Note_on_c, 2, 71, 80
3, 55919, Note_on_c, 2, 71, 0
3, 55920, Note_on_c, 2, 64, 80
3, 56159, Note_on_c, 2, 64, 0
3, 56160, End_track
0, 0, End_of_file
