0, 0, Header, 1, 5, 480
1, 0, Start_track
1, 0, Title_t, "Piano, Piano, Piano\000"
1, 0, Time_signature, 4, 2, 24, 8
1, 0, Key_signature, 0, "major"
1, 0, Tempo, 512821
1, 0, Control_c, 0, 121, 0
1, 0, Program_c, 0, 0
1, 0, Control_c, 0, 7, 100
1, 0, Control_c, 0, 10, 64
1, 0, Control_c, 0, 91, 0
1, 0, Control_c, 0, 93, 0
1, 0, MIDI_port, 0
1, 0, Note_on_c, 0, 52, 96
1, 0, Note_on_c, 0, 55, 96
1, 0, Note_on_c, 0, 60, 96
1, 683, Note_on_c, 0, 52, 0
1, 683, Note_on_c, 0, 55, 0
1, 683, Note_on_c, 0, 60, 0
1, 800, Note_on_c, 0, 64, 96
1, 800, Note_on_c, 0, 67, 96
1, 800, Note_on_c, 0, 72, 96
1, 951, Note_on_c, 0, 64, 0
1, 951, Note_on_c, 0, 67, 0
1, 951, Note_on_c, 0, 72, 0
1, 960, Note_on_c, 0, 64, 96
1, 960, Note_on_c, 0, 67, 96
1, 960, Note_on_c, 0, 72, 96
1, 1871, Note_on_c, 0, 64, 0
1, 1871, Note_on_c, 0, 67, 0
1, 1871, Note_on_c, 0, 72, 0
1, 1920, Note_on_c, 0, 52, 96
1, 1920, Note_on_c, 0, 57, 96
1, 1920, Note_on_c, 0, 60, 96
1, 2603, Note_on_c, 0, 52, 0
1, 2603, Note_on_c, 0, 57, 0
1, 2603, Note_on_c, 0, 60, 0
1, 2720, Note_on_c, 0, 64, 96
1, 2720, Note_on_c, 0, 69, 96
1, 2720, Note_on_c, 0, 72, 96
1, 2871, Note_on_c, 0, 64, 0
1, 2871, Note_on_c, 0, 69, 0
1, 2871, Note_on_c, 0, 72, 0
1, 2880, Note_on_c, 0, 64, 96
1, 2880, Note_on_c, 0, 69, 96
1, 2880, Note_on_c, 0, 72, 96
1, 3791, Note_on_c, 0, 64, 0
1, 3791, Note_on_c, 0, 69, 0
1, 3791, Note_on_c, 0, 72, 0
1, 3840, Note_on_c, 0, 53, 96
1, 3840, Note_on_c, 0, 57, 96
1, 3840, Note_on_c, 0, 60, 96
1, 4523, Note_on_c, 0, 53, 0
1, 4523, Note_on_c, 0, 57, 0
1, 4523, Note_on_c, 0, 60, 0
1, 4640, Note_on_c, 0, 69, 96
1, 4640, Note_on_c, 0, 72, 96
1, 4791, Note_on_c, 0, 69, 0
1, 4791, Note_on_c, 0, 72, 0
1, 4800, Note_on_c, 0, 69, 96
1, 4800, Note_on_c, 0, 72, 96
1, 5103, Note_on_c, 0, 69, 0
1, 5103, Note_on_c, 0, 72, 0
1, 5120, Note_on_c, 0, 69, 96
1, 5120, Note_on_c, 0, 72, 96
1, 5271, Note_on_c, 0, 69, 0
1, 5271, Note_on_c, 0, 72, 0
1, 5280, Note_on_c, 0, 69, 96
1, 5280, Note_on_c, 0, 72, 96
1, 5583, Note_on_c, 0, 69, 0
1, 5583, Note_on_c, 0, 72, 0
1, 5600, Note_on_c, 0, 69, 96
1, 5600, Note_on_c, 0, 72, 96
1, 5751, Note_on_c, 0, 69, 0
1, 5751, Note_on_c, 0, 72, 0
1, 5760, Note_on_c, 0, 67, 96
1, 5760, Note_on_c, 0, 71, 96
1, 6063, Note_on_c, 0, 67, 0
1, 6063, Note_on_c, 0, 71, 0
1, 6080, Note_on_c, 0, 67, 96
1, 6080, Note_on_c, 0, 71, 96
1, 6231, Note_on_c, 0, 67, 0
1, 6231, Note_on_c, 0, 71, 0
1, 6240, Note_on_c, 0, 65, 96
1, 6240, Note_on_c, 0, 69, 96
1, 6543, Note_on_c, 0, 65, 0
1, 6543, Note_on_c, 0, 69, 0
1, 6560, Note_on_c, 0, 65, 96
1, 6560, Note_on_c, 0, 69, 96
1, 6711, Note_on_c, 0, 65, 0
1, 6711, Note_on_c, 0, 69, 0
1, 6720, Note_on_c, 0, 64, 96
1, 6720, Note_on_c, 0, 67, 96
1, 7023, Note_on_c, 0, 64, 0
1, 7023, Note_on_c, 0, 67, 0
1, 7040, Note_on_c, 0, 64, 96
1, 7040, Note_on_c, 0, 67, 96
1, 7191, Note_on_c, 0, 64, 0
1, 7191, Note_on_c, 0, 67, 0
1, 7200, Note_on_c, 0, 62, 96
1, 7200, Note_on_c, 0, 65, 96
1, 7655, Note_on_c, 0, 62, 0
1, 7655, Note_on_c, 0, 65, 0
1, 7680, Note_on_c, 0, 67, 96
1, 7983, Note_on_c, 0, 67, 0
1, 8000, Note_on_c, 0, 64, 96
1, 8151, Note_on_c, 0, 64, 0
1, 8160, Note_on_c, 0, 67, 96
1, 8463, Note_on_c, 0, 67, 0
1, 8480, Note_on_c, 0, 69, 96
1, 9087, Note_on_c, 0, 69, 0
1, 9440, Note_on_c, 0, 64, 96
1, 9591, Note_on_c, 0, 64, 0
1, 9600, Note_on_c, 0, 67, 96
1, 10055, Note_on_c, 0, 67, 0
1, 10080, Note_on_c, 0, 67, 96
1, 10383, Note_on_c, 0, 67, 0
1, 10400, Note_on_c, 0, 69, 96
1, 10779, Note_on_c, 0, 69, 0
1, 10800, Note_on_c, 0, 69, 96
1, 11331, Note_on_c, 0, 69, 0
1, 11360, Note_on_c, 0, 69, 96
1, 11511, Note_on_c, 0, 69, 0
1, 11520, Note_on_c, 0, 71, 96
1, 11975, Note_on_c, 0, 71, 0
1, 12000, Note_on_c, 0, 69, 96
1, 12455, Note_on_c, 0, 69, 0
1, 12480, Note_on_c, 0, 65, 96
1, 12631, Note_on_c, 0, 65, 0
1, 12640, Note_on_c, 0, 67, 96
1, 12791, Note_on_c, 0, 67, 0
1, 12800, Note_on_c, 0, 65, 96
1, 12951, Note_on_c, 0, 65, 0
1, 12960, Note_on_c, 0, 62, 96
1, 13263, Note_on_c, 0, 62, 0
1, 13280, Note_on_c, 0, 59, 96
1, 13431, Note_on_c, 0, 59, 0
1, 13760, Note_on_c, 0, 62, 96
1, 13760, Note_on_c, 0, 67, 96
1, 13760, Note_on_c, 0, 71, 96
1, 14367, Note_on_c, 0, 62, 0
1, 14367, Note_on_c, 0, 67, 0
1, 14367, Note_on_c, 0, 71, 0
1, 15360, Note_on_c, 0, 69, 96
1, 15663, Note_on_c, 0, 69, 0
1, 15680, Note_on_c, 0, 67, 96
1, 15831, Note_on_c, 0, 67, 0
1, 15840, Note_on_c, 0, 69, 96
1, 16143, Note_on_c, 0, 69, 0
1, 16160, Note_on_c, 0, 71, 96
1, 16767, Note_on_c, 0, 71, 0
1, 16800, Note_on_c, 0, 71, 96
1, 17255, Note_on_c, 0, 71, 0
1, 17280, Note_on_c, 0, 69, 96
1, 17583, Note_on_c, 0, 69, 0
1, 17600, Note_on_c, 0, 69, 96
1, 18000, Note_on_c, 0, 71, 96
1, 18207, Note_on_c, 0, 69, 0
1, 18227, Note_on_c, 0, 71, 0
1, 18560, Note_on_c, 0, 69, 96
1, 18939, Note_on_c, 0, 69, 0
1, 18960, Note_on_c, 0, 69, 96
1, 19187, Note_on_c, 0, 69, 0
1, 19200, Note_on_c, 0, 67, 96
1, 19351, Note_on_c, 0, 67, 0
1, 19520, Note_on_c, 0, 67, 96
1, 19671, Note_on_c, 0, 67, 0
1, 19680, Note_on_c, 0, 67, 96
1, 19983, Note_on_c, 0, 67, 0
1, 20000, Note_on_c, 0, 69, 96
1, 20379, Note_on_c, 0, 69, 0
1, 20400, Note_on_c, 0, 67, 96
1, 20627, Note_on_c, 0, 67, 0
1, 20640, Note_on_c, 0, 65, 96
1, 20943, Note_on_c, 0, 65, 0
1, 20960, Note_on_c, 0, 64, 96
1, 21111, Note_on_c, 0, 64, 0
1, 21440, Note_on_c, 0, 64, 96
1, 21440, Note_on_c, 0, 69, 96
1, 21591, Note_on_c, 0, 64, 0
1, 21591, Note_on_c, 0, 69, 0
1, 21920, Note_on_c, 0, 64, 96
1, 21920, Note_on_c, 0, 69, 96
1, 22071, Note_on_c, 0, 64, 0
1, 22071, Note_on_c, 0, 69, 0
1, 22400, Note_on_c, 0, 64, 96
1, 22400, Note_on_c, 0, 69, 96
1, 22551, Note_on_c, 0, 64, 0
1, 22551, Note_on_c, 0, 69, 0
1, 23040, Note_on_c, 0, 67, 96
1, 23343, Note_on_c, 0, 67, 0
1, 23360, Note_on_c, 0, 64, 96
1, 23511, Note_on_c, 0, 64, 0
1, 23520, Note_on_c, 0, 67, 96
1, 23823, Note_on_c, 0, 67, 0
1, 23840, Note_on_c, 0, 69, 96
1, 24447, Note_on_c, 0, 69, 0
1, 24800, Note_on_c, 0, 64, 96
1, 24951, Note_on_c, 0, 64, 0
1, 24960, Note_on_c, 0, 67, 96
1, 25415, Note_on_c, 0, 67, 0
1, 25440, Note_on_c, 0, 67, 96
1, 25743, Note_on_c, 0, 67, 0
1, 25760, Note_on_c, 0, 69, 96
1, 26139, Note_on_c, 0, 69, 0
1, 26160, Note_on_c, 0, 69, 96
1, 26691, Note_on_c, 0, 69, 0
1, 26720, Note_on_c, 0, 69, 96
1, 26871, Note_on_c, 0, 69, 0
1, 26880, Note_on_c, 0, 71, 96
1, 27335, Note_on_c, 0, 71, 0
1, 27360, Note_on_c, 0, 69, 96
1, 27815, Note_on_c, 0, 69, 0
1, 27840, Note_on_c, 0, 65, 96
1, 27991, Note_on_c, 0, 65, 0
1, 28000, Note_on_c, 0, 67, 96
1, 28151, Note_on_c, 0, 67, 0
1, 28160, Note_on_c, 0, 65, 96
1, 28311, Note_on_c, 0, 65, 0
1, 28320, Note_on_c, 0, 62, 96
1, 28623, Note_on_c, 0, 62, 0
1, 28640, Note_on_c, 0, 59, 96
1, 28791, Note_on_c, 0, 59, 0
1, 29120, Note_on_c, 0, 62, 96
1, 29120, Note_on_c, 0, 67, 96
1, 29120, Note_on_c, 0, 71, 96
1, 29499, Note_on_c, 0, 62, 0
1, 29499, Note_on_c, 0, 67, 0
1, 29499, Note_on_c, 0, 71, 0
1, 30720, Note_on_c, 0, 69, 96
1, 31023, Note_on_c, 0, 69, 0
1, 31040, Note_on_c, 0, 67, 96
1, 31191, Note_on_c, 0, 67, 0
1, 31200, Note_on_c, 0, 69, 96
1, 31503, Note_on_c, 0, 69, 0
1, 31520, Note_on_c, 0, 71, 96
1, 32127, Note_on_c, 0, 71, 0
1, 32160, Note_on_c, 0, 71, 96
1, 32615, Note_on_c, 0, 71, 0
1, 32640, Note_on_c, 0, 69, 96
1, 32943, Note_on_c, 0, 69, 0
1, 32960, Note_on_c, 0, 69, 96
1, 33360, Note_on_c, 0, 71, 96
1, 33567, Note_on_c, 0, 69, 0
1, 33587, Note_on_c, 0, 71, 0
1, 33920, Note_on_c, 0, 69, 96
1, 34299, Note_on_c, 0, 69, 0
1, 34320, Note_on_c, 0, 69, 96
1, 34547, Note_on_c, 0, 69, 0
1, 34560, Note_on_c, 0, 67, 96
1, 35015, Note_on_c, 0, 67, 0
1, 35040, Note_on_c, 0, 67, 96
1, 35495, Note_on_c, 0, 67, 0
1, 35520, Note_on_c, 0, 69, 96
1, 35975, Note_on_c, 0, 69, 0
1, 36000, Note_on_c, 0, 71, 96
1, 36151, Note_on_c, 0, 71, 0
1, 36320, Note_on_c, 0, 72, 96
1, 36471, Note_on_c, 0, 72, 0
1, 36800, Note_on_c, 0, 67, 96
1, 36800, Note_on_c, 0, 72, 96
1, 36951, Note_on_c, 0, 67, 0
1, 36951, Note_on_c, 0, 72, 0
1, 37280, Note_on_c, 0, 67, 96
1, 37280, Note_on_c, 0, 72, 96
1, 37431, Note_on_c, 0, 67, 0
1, 37431, Note_on_c, 0, 72, 0
1, 37760, Note_on_c, 0, 67, 96
1, 37760, Note_on_c, 0, 72, 96
1, 37911, Note_on_c, 0, 67, 0
1, 37911, Note_on_c, 0, 72, 0
1, 38400, Note_on_c, 0, 69, 96
1, 38855, Note_on_c, 0, 69, 0
1, 38880, Note_on_c, 0, 69, 96
1, 39335, Note_on_c, 0, 69, 0
1, 39360, Note_on_c, 0, 69, 96
1, 39815, Note_on_c, 0, 69, 0
1, 39840, Note_on_c, 0, 69, 96
1, 40295, Note_on_c, 0, 69, 0
1, 40320, Note_on_c, 0, 69, 96
1, 40775, Note_on_c, 0, 69, 0
1, 41280, Note_on_c, 0, 65, 96
1, 41583, Note_on_c, 0, 65, 0
1, 41600, Note_on_c, 0, 69, 96
1, 42000, Note_on_c, 0, 71, 96
1, 42207, Note_on_c, 0, 69, 0
1, 42455, Note_on_c, 0, 71, 0
1, 42560, Note_on_c, 0, 67, 96
1, 43167, Note_on_c, 0, 67, 0
1, 43520, Note_on_c, 0, 64, 96
1, 43671, Note_on_c, 0, 64, 0
1, 43680, Note_on_c, 0, 67, 96
1, 43983, Note_on_c, 0, 67, 0
1, 44000, Note_on_c, 0, 71, 96
1, 45063, Note_on_c, 0, 71, 0
1, 46080, Note_on_c, 0, 72, 96
1, 46535, Note_on_c, 0, 72, 0
1, 46560, Note_on_c, 0, 71, 96
1, 47015, Note_on_c, 0, 71, 0
1, 47040, Note_on_c, 0, 72, 96
1, 47495, Note_on_c, 0, 72, 0
1, 47520, Note_on_c, 0, 71, 96
1, 47975, Note_on_c, 0, 71, 0
1, 48000, Note_on_c, 0, 72, 96
1, 48455, Note_on_c, 0, 72, 0
1, 48480, Note_on_c, 0, 69, 96
1, 48783, Note_on_c, 0, 69, 0
1, 48800, Note_on_c, 0, 71, 96
1, 49179, Note_on_c, 0, 71, 0
1, 49200, Note_on_c, 0, 72, 96
1, 49883, Note_on_c, 0, 72, 0
1, 49920, Note_on_c, 0, 74, 96
1, 50375, Note_on_c, 0, 74, 0
1, 50720, Note_on_c, 0, 72, 96
1, 50871, Note_on_c, 0, 72, 0
1, 50880, Note_on_c, 0, 71, 96
1, 51335, Note_on_c, 0, 71, 0
1, 51360, Note_on_c, 0, 69, 96
1, 51663, Note_on_c, 0, 69, 0
1, 51680, Note_on_c, 0, 67, 96
1, 52287, Note_on_c, 0, 67, 0
1, 52320, Note_on_c, 0, 69, 96
1, 52623, Note_on_c, 0, 69, 0
1, 52640, Note_on_c, 0, 69, 96
1, 52791, Note_on_c, 0, 69, 0
1, 52800, Note_on_c, 0, 71, 96
1, 53103, Note_on_c, 0, 71, 0
1, 53120, Note_on_c, 0, 69, 96
1, 53271, Note_on_c, 0, 69, 0
1, 53280, Note_on_c, 0, 67, 96
1, 53583, Note_on_c, 0, 67, 0
1, 53600, Note_on_c, 0, 64, 96
1, 53751, Note_on_c, 0, 64, 0
1, 53760, Note_on_c, 0, 67, 96
1, 54063, Note_on_c, 0, 67, 0
1, 54080, Note_on_c, 0, 64, 96
1, 54231, Note_on_c, 0, 64, 0
1, 54240, Note_on_c, 0, 67, 96
1, 54543, Note_on_c, 0, 67, 0
1, 54560, Note_on_c, 0, 69, 96
1, 55167, Note_on_c, 0, 69, 0
1, 55520, Note_on_c, 0, 64, 96
1, 55671, Note_on_c, 0, 64, 0
1, 55680, Note_on_c, 0, 67, 96
1, 56135, Note_on_c, 0, 67, 0
1, 56160, Note_on_c, 0, 67, 96
1, 56463, Note_on_c, 0, 67, 0
1, 56480, Note_on_c, 0, 69, 96
1, 56859, Note_on_c, 0, 69, 0
1, 56880, Note_on_c, 0, 69, 96
1, 57411, Note_on_c, 0, 69, 0
1, 57440, Note_on_c, 0, 69, 96
1, 57591, Note_on_c, 0, 69, 0
1, 57600, Note_on_c, 0, 71, 96
1, 58055, Note_on_c, 0, 71, 0
1, 58080, Note_on_c, 0, 69, 96
1, 58535, Note_on_c, 0, 69, 0
1, 58560, Note_on_c, 0, 65, 96
1, 58711, Note_on_c, 0, 65, 0
1, 58720, Note_on_c, 0, 67, 96
1, 58871, Note_on_c, 0, 67, 0
1, 58880, Note_on_c, 0, 65, 96
1, 59031, Note_on_c, 0, 65, 0
1, 59040, Note_on_c, 0, 62, 96
1, 59343, Note_on_c, 0, 62, 0
1, 59360, Note_on_c, 0, 59, 96
1, 59511, Note_on_c, 0, 59, 0
1, 59840, Note_on_c, 0, 62, 96
1, 59840, Note_on_c, 0, 65, 96
1, 59840, Note_on_c, 0, 67, 96
1, 59840, Note_on_c, 0, 71, 96
1, 60447, Note_on_c, 0, 62, 0
1, 60447, Note_on_c, 0, 65, 0
1, 60447, Note_on_c, 0, 67, 0
1, 60447, Note_on_c, 0, 71, 0
1, 61440, Note_on_c, 0, 69, 96
1, 61743, Note_on_c, 0, 69, 0
1, 61760, Note_on_c, 0, 67, 96
1, 61911, Note_on_c, 0, 67, 0
1, 61920, Note_on_c, 0, 69, 96
1, 62223, Note_on_c, 0, 69, 0
1, 62240, Note_on_c, 0, 71, 96
1, 62847, Note_on_c, 0, 71, 0
1, 62880, Note_on_c, 0, 71, 96
1, 63335, Note_on_c, 0, 71, 0
1, 63360, Note_on_c, 0, 69, 96
1, 63663, Note_on_c, 0, 69, 0
1, 63680, Note_on_c, 0, 69, 96
1, 64080, Note_on_c, 0, 71, 96
1, 64287, Note_on_c, 0, 69, 0
1, 64307, Note_on_c, 0, 71, 0
1, 64640, Note_on_c, 0, 69, 96
1, 65019, Note_on_c, 0, 69, 0
1, 65040, Note_on_c, 0, 69, 96
1, 65267, Note_on_c, 0, 69, 0
1, 65280, Note_on_c, 0, 67, 96
1, 65735, Note_on_c, 0, 67, 0
1, 65760, Note_on_c, 0, 67, 96
1, 66215, Note_on_c, 0, 67, 0
1, 66240, Note_on_c, 0, 69, 96
1, 66695, Note_on_c, 0, 69, 0
1, 66720, Note_on_c, 0, 59, 96
1, 67023, Note_on_c, 0, 59, 0
1, 67040, Note_on_c, 0, 60, 96
1, 67191, Note_on_c, 0, 60, 0
1, 69120, Note_on_c, 0, 69, 96
1, 69575, Note_on_c, 0, 69, 0
1, 69600, Note_on_c, 0, 69, 96
1, 70055, Note_on_c, 0, 69, 0
1, 70080, Note_on_c, 0, 69, 96
1, 70535, Note_on_c, 0, 69, 0
1, 70560, Note_on_c, 0, 69, 96
1, 71015, Note_on_c, 0, 69, 0
1, 71040, Note_on_c, 0, 69, 96
1, 71495, Note_on_c, 0, 69, 0
1, 72000, Note_on_c, 0, 65, 96
1, 72303, Note_on_c, 0, 65, 0
1, 72320, Note_on_c, 0, 69, 96
1, 72720, Note_on_c, 0, 71, 96
1, 72927, Note_on_c, 0, 69, 0
1, 73175, Note_on_c, 0, 71, 0
1, 73280, Note_on_c, 0, 67, 96
1, 73887, Note_on_c, 0, 67, 0
1, 74240, Note_on_c, 0, 64, 96
1, 74391, Note_on_c, 0, 64, 0
1, 74400, Note_on_c, 0, 67, 96
1, 74703, Note_on_c, 0, 67, 0
1, 74720, Note_on_c, 0, 71, 96
1, 75783, Note_on_c, 0, 71, 0
1, 76800, Note_on_c, 0, 72, 96
1, 77255, Note_on_c, 0, 72, 0
1, 77280, Note_on_c, 0, 71, 96
1, 77735, Note_on_c, 0, 71, 0
1, 77760, Note_on_c, 0, 72, 96
1, 78215, Note_on_c, 0, 72, 0
1, 78240, Note_on_c, 0, 71, 96
1, 78695, Note_on_c, 0, 71, 0
1, 78720, Note_on_c, 0, 72, 96
1, 79175, Note_on_c, 0, 72, 0
1, 79200, Note_on_c, 0, 69, 96
1, 79503, Note_on_c, 0, 69, 0
1, 79520, Note_on_c, 0, 71, 96
1, 79899, Note_on_c, 0, 71, 0
1, 79920, Note_on_c, 0, 72, 96
1, 80603, Note_on_c, 0, 72, 0
1, 80640, Note_on_c, 0, 74, 96
1, 81095, Note_on_c, 0, 74, 0
1, 81440, Note_on_c, 0, 72, 96
1, 81591, Note_on_c, 0, 72, 0
1, 81600, Note_on_c, 0, 71, 96
1, 82055, Note_on_c, 0, 71, 0
1, 82080, Note_on_c, 0, 69, 96
1, 82383, Note_on_c, 0, 69, 0
1, 82400, Note_on_c, 0, 67, 96
1, 83007, Note_on_c, 0, 67, 0
1, 83040, Note_on_c, 0, 69, 96
1, 83343, Note_on_c, 0, 69, 0
1, 83360, Note_on_c, 0, 69, 96
1, 83511, Note_on_c, 0, 69, 0
1, 83520, Note_on_c, 0, 71, 96
1, 83823, Note_on_c, 0, 71, 0
1, 83840, Note_on_c, 0, 69, 96
1, 83991, Note_on_c, 0, 69, 0
1, 84000, Note_on_c, 0, 67, 96
1, 84303, Note_on_c, 0, 67, 0
1, 84320, Note_on_c, 0, 64, 96
1, 84471, Note_on_c, 0, 64, 0
1, 84480, Note_on_c, 0, 67, 96
1, 84783, Note_on_c, 0, 67, 0
1, 84800, Note_on_c, 0, 64, 96
1, 84951, Note_on_c, 0, 64, 0
1, 84960, Note_on_c, 0, 67, 96
1, 85263, Note_on_c, 0, 67, 0
1, 85280, Note_on_c, 0, 69, 96
1, 85887, Note_on_c, 0, 69, 0
1, 86240, Note_on_c, 0, 64, 96
1, 86391, Note_on_c, 0, 64, 0
1, 86400, Note_on_c, 0, 67, 96
1, 86855, Note_on_c, 0, 67, 0
1, 86880, Note_on_c, 0, 67, 96
1, 87183, Note_on_c, 0, 67, 0
1, 87200, Note_on_c, 0, 69, 96
1, 87579, Note_on_c, 0, 69, 0
1, 87600, Note_on_c, 0, 69, 96
1, 88131, Note_on_c, 0, 69, 0
1, 88160, Note_on_c, 0, 69, 96
1, 88311, Note_on_c, 0, 69, 0
1, 88320, Note_on_c, 0, 71, 96
1, 88775, Note_on_c, 0, 71, 0
1, 88800, Note_on_c, 0, 69, 96
1, 89255, Note_on_c, 0, 69, 0
1, 89280, Note_on_c, 0, 65, 96
1, 89431, Note_on_c, 0, 65, 0
1, 89440, Note_on_c, 0, 67, 96
1, 89591, Note_on_c, 0, 67, 0
1, 89600, Note_on_c, 0, 65, 96
1, 89751, Note_on_c, 0, 65, 0
1, 89760, Note_on_c, 0, 62, 96
1, 90063, Note_on_c, 0, 62, 0
1, 90080, Note_on_c, 0, 59, 96
1, 90231, Note_on_c, 0, 59, 0
1, 90560, Note_on_c, 0, 62, 96
1, 90560, Note_on_c, 0, 67, 96
1, 90560, Note_on_c, 0, 71, 96
1, 91167, Note_on_c, 0, 62, 0
1, 91167, Note_on_c, 0, 67, 0
1, 91167, Note_on_c, 0, 71, 0
1, 92160, Note_on_c, 0, 69, 96
1, 92463, Note_on_c, 0, 69, 0
1, 92480, Note_on_c, 0, 69, 96
1, 92880, Note_on_c, 0, 71, 96
1, 93087, Note_on_c, 0, 69, 0
1, 93107, Note_on_c, 0, 71, 0
1, 93440, Note_on_c, 0, 71, 96
1, 93591, Note_on_c, 0, 71, 0
1, 93600, Note_on_c, 0, 71, 96
1, 94055, Note_on_c, 0, 71, 0
1, 94080, Note_on_c, 0, 69, 96
1, 94383, Note_on_c, 0, 69, 0
1, 94400, Note_on_c, 0, 69, 96
1, 94800, Note_on_c, 0, 71, 96
1, 95007, Note_on_c, 0, 69, 0
1, 95027, Note_on_c, 0, 71, 0
1, 95520, Note_on_c, 0, 69, 96
1, 95823, Note_on_c, 0, 69, 0
1, 95840, Note_on_c, 0, 69, 96
1, 95991, Note_on_c, 0, 69, 0
1, 96000, Note_on_c, 0, 67, 96
1, 96455, Note_on_c, 0, 67, 0
1, 96480, Note_on_c, 0, 79, 96
1, 96935, Note_on_c, 0, 79, 0
1, 96960, Note_on_c, 0, 67, 96
1, 97415, Note_on_c, 0, 67, 0
1, 97440, Note_on_c, 0, 79, 96
1, 97895, Note_on_c, 0, 79, 0
1, 97920, Note_on_c, 0, 69, 96
1, 98375, Note_on_c, 0, 69, 0
1, 98400, Note_on_c, 0, 81, 96
1, 98855, Note_on_c, 0, 81, 0
1, 98880, Note_on_c, 0, 71, 96
1, 99183, Note_on_c, 0, 71, 0
1, 99200, Note_on_c, 0, 67, 96
1, 99600, Note_on_c, 0, 74, 96
1, 99807, Note_on_c, 0, 67, 0
1, 100131, Note_on_c, 0, 74, 0
1, 100160, Note_on_c, 0, 72, 96
1, 100560, Note_on_c, 0, 60, 96
1, 100560, Note_on_c, 0, 64, 96
1, 100560, Note_on_c, 0, 67, 96
1, 100767, Note_on_c, 0, 72, 0
1, 101091, Note_on_c, 0, 60, 0
1, 101091, Note_on_c, 0, 64, 0
1, 101091, Note_on_c, 0, 67, 0
1, 101120, Note_on_c, 0, 72, 96
1, 101520, Note_on_c, 0, 60, 96
1, 101520, Note_on_c, 0, 64, 96
1, 101520, Note_on_c, 0, 69, 96
1, 101727, Note_on_c, 0, 72, 0
1, 102051, Note_on_c, 0, 60, 0
1, 102051, Note_on_c, 0, 64, 0
1, 102051, Note_on_c, 0, 69, 0
1, 102080, Note_on_c, 0, 72, 96
1, 102480, Note_on_c, 0, 60, 96
1, 102480, Note_on_c, 0, 64, 96
1, 102480, Note_on_c, 0, 69, 96
1, 102687, Note_on_c, 0, 72, 0
1, 103011, Note_on_c, 0, 60, 0
1, 103011, Note_on_c, 0, 64, 0
1, 103011, Note_on_c, 0, 69, 0
1, 103040, Note_on_c, 0, 72, 96
1, 103440, Note_on_c, 0, 62, 96
1, 103440, Note_on_c, 0, 65, 96
1, 103440, Note_on_c, 0, 69, 96
1, 103647, Note_on_c, 0, 72, 0
1, 103971, Note_on_c, 0, 62, 0
1, 103971, Note_on_c, 0, 65, 0
1, 103971, Note_on_c, 0, 69, 0
1, 104000, Note_on_c, 0, 72, 96
1, 104400, Note_on_c, 0, 60, 96
1, 104400, Note_on_c, 0, 65, 96
1, 104400, Note_on_c, 0, 69, 96
1, 104607, Note_on_c, 0, 72, 0
1, 104931, Note_on_c, 0, 60, 0
1, 104931, Note_on_c, 0, 65, 0
1, 104931, Note_on_c, 0, 69, 0
1, 104960, Note_on_c, 0, 72, 96
1, 105339, Note_on_c, 0, 72, 0
1, 105360, Note_on_c, 0, 67, 96
1, 105360, Note_on_c, 0, 72, 96
1, 105587, Note_on_c, 0, 67, 0
1, 105587, Note_on_c, 0, 72, 0
1, 105600, Note_on_c, 0, 60, 96
1, 105600, Note_on_c, 0, 67, 96
1, 105600, Note_on_c, 0, 72, 96
1, 106055, Note_on_c, 0, 60, 0
1, 106055, Note_on_c, 0, 67, 0
1, 106055, Note_on_c, 0, 72, 0
1, 106400, Note_on_c, 0, 76, 96
1, 106440, Note_on_c, 0, 79, 96
1, 106480, Note_on_c, 0, 81, 96
1, 106500, Note_on_c, 0, 84, 96
1, 106551, Note_on_c, 0, 76, 0
1, 106553, Note_on_c, 0, 79, 0
1, 106555, Note_on_c, 0, 81, 0
1, 106556, Note_on_c, 0, 84, 0
1, 106557, End_track
2, 0, Start_track
2, 0, Title_t, "Piano, Piano, Piano\000"
2, 0, Key_signature, 0, "major"
2, 0, MIDI_port, 0
2, 7680, Note_on_c, 0, 60, 96
2, 8135, Note_on_c, 0, 60, 0
2, 8160, Note_on_c, 0, 55, 96
2, 8160, Note_on_c, 0, 60, 96
2, 8160, Note_on_c, 0, 64, 96
2, 8615, Note_on_c, 0, 55, 0
2, 8615, Note_on_c, 0, 60, 0
2, 8615, Note_on_c, 0, 64, 0
2, 8640, Note_on_c, 0, 55, 96
2, 9095, Note_on_c, 0, 55, 0
2, 9120, Note_on_c, 0, 55, 96
2, 9120, Note_on_c, 0, 60, 96
2, 9120, Note_on_c, 0, 64, 96
2, 9440, Note_on_c, 0, 64, 0
2, 9575, Note_on_c, 0, 55, 0
2, 9575, Note_on_c, 0, 60, 0
2, 9600, Note_on_c, 0, 60, 96
2, 10055, Note_on_c, 0, 60, 0
2, 10080, Note_on_c, 0, 55, 96
2, 10080, Note_on_c, 0, 60, 96
2, 10080, Note_on_c, 0, 64, 96
2, 10319, Note_on_c, 0, 55, 0
2, 10319, Note_on_c, 0, 60, 0
2, 10319, Note_on_c, 0, 64, 0
2, 10560, Note_on_c, 0, 55, 96
2, 11015, Note_on_c, 0, 55, 0
2, 11040, Note_on_c, 0, 55, 96
2, 11040, Note_on_c, 0, 60, 96
2, 11040, Note_on_c, 0, 64, 96
2, 11495, Note_on_c, 0, 55, 0
2, 11495, Note_on_c, 0, 60, 0
2, 11495, Note_on_c, 0, 64, 0
2, 11520, Note_on_c, 0, 62, 96
2, 11975, Note_on_c, 0, 62, 0
2, 12000, Note_on_c, 0, 55, 96
2, 12000, Note_on_c, 0, 59, 96
2, 12000, Note_on_c, 0, 65, 96
2, 12455, Note_on_c, 0, 55, 0
2, 12455, Note_on_c, 0, 59, 0
2, 12455, Note_on_c, 0, 65, 0
2, 12480, Note_on_c, 0, 55, 96
2, 12935, Note_on_c, 0, 55, 0
2, 12960, Note_on_c, 0, 55, 96
2, 13415, Note_on_c, 0, 55, 0
2, 13440, Note_on_c, 0, 50, 96
2, 13895, Note_on_c, 0, 50, 0
2, 13920, Note_on_c, 0, 55, 96
2, 13920, Note_on_c, 0, 59, 96
2, 14375, Note_on_c, 0, 55, 0
2, 14375, Note_on_c, 0, 59, 0
2, 14400, Note_on_c, 0, 55, 96
2, 14855, Note_on_c, 0, 55, 0
2, 14880, Note_on_c, 0, 55, 96
2, 14880, Note_on_c, 0, 59, 96
2, 14880, Note_on_c, 0, 65, 96
2, 15335, Note_on_c, 0, 55, 0
2, 15335, Note_on_c, 0, 59, 0
2, 15335, Note_on_c, 0, 65, 0
2, 15360, Note_on_c, 0, 62, 96
2, 15815, Note_on_c, 0, 62, 0
2, 15840, Note_on_c, 0, 55, 96
2, 15840, Note_on_c, 0, 59, 96
2, 15840, Note_on_c, 0, 65, 96
2, 16295, Note_on_c, 0, 55, 0
2, 16295, Note_on_c, 0, 59, 0
2, 16295, Note_on_c, 0, 65, 0
2, 16320, Note_on_c, 0, 55, 96
2, 16775, Note_on_c, 0, 55, 0
2, 16800, Note_on_c, 0, 55, 96
2, 16800, Note_on_c, 0, 59, 96
2, 16800, Note_on_c, 0, 65, 96
2, 17255, Note_on_c, 0, 55, 0
2, 17255, Note_on_c, 0, 59, 0
2, 17255, Note_on_c, 0, 65, 0
2, 17280, Note_on_c, 0, 62, 96
2, 17735, Note_on_c, 0, 62, 0
2, 17760, Note_on_c, 0, 55, 96
2, 17760, Note_on_c, 0, 59, 96
2, 17760, Note_on_c, 0, 65, 96
2, 18215, Note_on_c, 0, 55, 0
2, 18215, Note_on_c, 0, 59, 0
2, 18215, Note_on_c, 0, 65, 0
2, 18240, Note_on_c, 0, 55, 96
2, 18695, Note_on_c, 0, 55, 0
2, 18720, Note_on_c, 0, 55, 96
2, 18720, Note_on_c, 0, 59, 96
2, 18720, Note_on_c, 0, 65, 96
2, 19175, Note_on_c, 0, 55, 0
2, 19175, Note_on_c, 0, 59, 0
2, 19175, Note_on_c, 0, 65, 0
2, 19200, Note_on_c, 0, 60, 96
2, 19655, Note_on_c, 0, 60, 0
2, 19680, Note_on_c, 0, 55, 96
2, 19680, Note_on_c, 0, 60, 96
2, 19680, Note_on_c, 0, 64, 96
2, 20135, Note_on_c, 0, 55, 0
2, 20135, Note_on_c, 0, 60, 0
2, 20135, Note_on_c, 0, 64, 0
2, 20160, Note_on_c, 0, 55, 96
2, 20615, Note_on_c, 0, 55, 0
2, 20640, Note_on_c, 0, 55, 96
2, 20640, Note_on_c, 0, 59, 96
2, 21095, Note_on_c, 0, 55, 0
2, 21095, Note_on_c, 0, 59, 0
2, 21120, Note_on_c, 0, 60, 96
2, 21575, Note_on_c, 0, 60, 0
2, 21600, Note_on_c, 0, 55, 96
2, 22055, Note_on_c, 0, 55, 0
2, 22080, Note_on_c, 0, 57, 96
2, 22535, Note_on_c, 0, 57, 0
2, 22560, Note_on_c, 0, 59, 96
2, 23015, Note_on_c, 0, 59, 0
2, 23040, Note_on_c, 0, 48, 96
2, 23495, Note_on_c, 0, 48, 0
2, 23520, Note_on_c, 0, 55, 96
2, 23520, Note_on_c, 0, 60, 96
2, 23520, Note_on_c, 0, 64, 96
2, 23975, Note_on_c, 0, 55, 0
2, 23975, Note_on_c, 0, 60, 0
2, 23975, Note_on_c, 0, 64, 0
2, 24000, Note_on_c, 0, 55, 96
2, 24455, Note_on_c, 0, 55, 0
2, 24480, Note_on_c, 0, 55, 96
2, 24480, Note_on_c, 0, 60, 96
2, 24480, Note_on_c, 0, 64, 96
2, 24800, Note_on_c, 0, 64, 0
2, 24935, Note_on_c, 0, 55, 0
2, 24935, Note_on_c, 0, 60, 0
2, 24960, Note_on_c, 0, 48, 96
2, 25415, Note_on_c, 0, 48, 0
2, 25440, Note_on_c, 0, 55, 96
2, 25440, Note_on_c, 0, 60, 96
2, 25440, Note_on_c, 0, 64, 96
2, 25895, Note_on_c, 0, 55, 0
2, 25895, Note_on_c, 0, 60, 0
2, 25895, Note_on_c, 0, 64, 0
2, 25920, Note_on_c, 0, 55, 96
2, 26375, Note_on_c, 0, 55, 0
2, 26400, Note_on_c, 0, 55, 96
2, 26400, Note_on_c, 0, 60, 96
2, 26400, Note_on_c, 0, 64, 96
2, 26855, Note_on_c, 0, 55, 0
2, 26855, Note_on_c, 0, 60, 0
2, 26855, Note_on_c, 0, 64, 0
2, 26880, Note_on_c, 0, 50, 96
2, 27335, Note_on_c, 0, 50, 0
2, 27360, Note_on_c, 0, 55, 96
2, 27360, Note_on_c, 0, 59, 96
2, 27360, Note_on_c, 0, 65, 96
2, 27815, Note_on_c, 0, 55, 0
2, 27815, Note_on_c, 0, 59, 0
2, 27815, Note_on_c, 0, 65, 0
2, 27840, Note_on_c, 0, 55, 96
2, 28295, Note_on_c, 0, 55, 0
2, 28320, Note_on_c, 0, 55, 96
2, 28775, Note_on_c, 0, 55, 0
2, 28800, Note_on_c, 0, 59, 96
2, 29255, Note_on_c, 0, 59, 0
2, 29280, Note_on_c, 0, 55, 96
2, 29280, Note_on_c, 0, 59, 96
2, 29735, Note_on_c, 0, 55, 0
2, 29735, Note_on_c, 0, 59, 0
2, 29760, Note_on_c, 0, 55, 96
2, 30215, Note_on_c, 0, 55, 0
2, 30240, Note_on_c, 0, 55, 96
2, 30240, Note_on_c, 0, 59, 96
2, 30240, Note_on_c, 0, 65, 96
2, 30695, Note_on_c, 0, 55, 0
2, 30695, Note_on_c, 0, 59, 0
2, 30695, Note_on_c, 0, 65, 0
2, 30720, Note_on_c, 0, 50, 96
2, 31175, Note_on_c, 0, 50, 0
2, 31200, Note_on_c, 0, 55, 96
2, 31200, Note_on_c, 0, 59, 96
2, 31200, Note_on_c, 0, 65, 96
2, 31655, Note_on_c, 0, 55, 0
2, 31655, Note_on_c, 0, 59, 0
2, 31655, Note_on_c, 0, 65, 0
2, 31680, Note_on_c, 0, 55, 96
2, 32135, Note_on_c, 0, 55, 0
2, 32160, Note_on_c, 0, 55, 96
2, 32160, Note_on_c, 0, 59, 96
2, 32160, Note_on_c, 0, 65, 96
2, 32615, Note_on_c, 0, 55, 0
2, 32615, Note_on_c, 0, 59, 0
2, 32615, Note_on_c, 0, 65, 0
2, 32640, Note_on_c, 0, 50, 96
2, 33095, Note_on_c, 0, 50, 0
2, 33120, Note_on_c, 0, 55, 96
2, 33120, Note_on_c, 0, 59, 96
2, 33120, Note_on_c, 0, 65, 96
2, 33575, Note_on_c, 0, 55, 0
2, 33575, Note_on_c, 0, 59, 0
2, 33575, Note_on_c, 0, 65, 0
2, 33600, Note_on_c, 0, 55, 96
2, 34055, Note_on_c, 0, 55, 0
2, 34080, Note_on_c, 0, 55, 96
2, 34080, Note_on_c, 0, 59, 96
2, 34080, Note_on_c, 0, 65, 96
2, 34535, Note_on_c, 0, 55, 0
2, 34535, Note_on_c, 0, 59, 0
2, 34535, Note_on_c, 0, 65, 0
2, 34560, Note_on_c, 0, 50, 96
2, 35015, Note_on_c, 0, 50, 0
2, 35040, Note_on_c, 0, 55, 96
2, 35040, Note_on_c, 0, 59, 96
2, 35040, Note_on_c, 0, 65, 96
2, 35495, Note_on_c, 0, 55, 0
2, 35495, Note_on_c, 0, 59, 0
2, 35495, Note_on_c, 0, 65, 0
2, 35520, Note_on_c, 0, 55, 96
2, 35975, Note_on_c, 0, 55, 0
2, 36000, Note_on_c, 0, 55, 96
2, 36000, Note_on_c, 0, 59, 96
2, 36455, Note_on_c, 0, 55, 0
2, 36455, Note_on_c, 0, 59, 0
2, 36960, Note_on_c, 0, 53, 96
2, 37415, Note_on_c, 0, 53, 0
2, 37440, Note_on_c, 0, 52, 96
2, 37895, Note_on_c, 0, 52, 0
2, 37920, Note_on_c, 0, 50, 96
2, 38375, Note_on_c, 0, 50, 0
2, 38400, Note_on_c, 0, 53, 96
2, 38855, Note_on_c, 0, 53, 0
2, 38880, Note_on_c, 0, 57, 96
2, 38880, Note_on_c, 0, 60, 96
2, 38880, Note_on_c, 0, 65, 96
2, 39335, Note_on_c, 0, 57, 0
2, 39335, Note_on_c, 0, 60, 0
2, 39335, Note_on_c, 0, 65, 0
2, 39360, Note_on_c, 0, 48, 96
2, 39815, Note_on_c, 0, 48, 0
2, 39840, Note_on_c, 0, 57, 96
2, 39840, Note_on_c, 0, 60, 96
2, 39840, Note_on_c, 0, 65, 96
2, 40295, Note_on_c, 0, 57, 0
2, 40295, Note_on_c, 0, 60, 0
2, 40295, Note_on_c, 0, 65, 0
2, 40320, Note_on_c, 0, 53, 96
2, 40775, Note_on_c, 0, 53, 0
2, 40800, Note_on_c, 0, 57, 96
2, 40800, Note_on_c, 0, 60, 96
2, 41255, Note_on_c, 0, 57, 0
2, 41255, Note_on_c, 0, 60, 0
2, 41280, Note_on_c, 0, 53, 96
2, 41735, Note_on_c, 0, 53, 0
2, 41760, Note_on_c, 0, 57, 96
2, 41760, Note_on_c, 0, 60, 96
2, 42215, Note_on_c, 0, 57, 0
2, 42215, Note_on_c, 0, 60, 0
2, 42240, Note_on_c, 0, 52, 96
2, 42695, Note_on_c, 0, 52, 0
2, 42720, Note_on_c, 0, 55, 96
2, 42720, Note_on_c, 0, 59, 96
2, 43175, Note_on_c, 0, 55, 0
2, 43175, Note_on_c, 0, 59, 0
2, 43200, Note_on_c, 0, 52, 96
2, 43655, Note_on_c, 0, 52, 0
2, 43680, Note_on_c, 0, 55, 96
2, 43680, Note_on_c, 0, 59, 96
2, 44135, Note_on_c, 0, 55, 0
2, 44135, Note_on_c, 0, 59, 0
2, 44160, Note_on_c, 0, 52, 96
2, 44615, Note_on_c, 0, 52, 0
2, 44640, Note_on_c, 0, 55, 96
2, 44640, Note_on_c, 0, 59, 96
2, 45095, Note_on_c, 0, 55, 0
2, 45095, Note_on_c, 0, 59, 0
2, 45120, Note_on_c, 0, 60, 96
2, 45575, Note_on_c, 0, 60, 0
2, 45600, Note_on_c, 0, 59, 96
2, 46055, Note_on_c, 0, 59, 0
2, 46080, Note_on_c, 0, 57, 96
2, 46535, Note_on_c, 0, 57, 0
2, 46560, Note_on_c, 0, 57, 96
2, 46560, Note_on_c, 0, 60, 96
2, 47015, Note_on_c, 0, 57, 0
2, 47015, Note_on_c, 0, 60, 0
2, 47040, Note_on_c, 0, 50, 96
2, 47495, Note_on_c, 0, 50, 0
2, 47520, Note_on_c, 0, 57, 96
2, 47520, Note_on_c, 0, 60, 96
2, 47975, Note_on_c, 0, 57, 0
2, 47975, Note_on_c, 0, 60, 0
2, 48000, Note_on_c, 0, 57, 96
2, 48455, Note_on_c, 0, 57, 0
2, 48480, Note_on_c, 0, 55, 96
2, 48480, Note_on_c, 0, 59, 96
2, 48935, Note_on_c, 0, 55, 0
2, 48935, Note_on_c, 0, 59, 0
2, 48960, Note_on_c, 0, 50, 96
2, 49415, Note_on_c, 0, 50, 0
2, 49440, Note_on_c, 0, 53, 96
2, 49440, Note_on_c, 0, 57, 96
2, 49895, Note_on_c, 0, 53, 0
2, 49895, Note_on_c, 0, 57, 0
2, 49920, Note_on_c, 0, 55, 96
2, 50375, Note_on_c, 0, 55, 0
2, 50400, Note_on_c, 0, 55, 96
2, 50400, Note_on_c, 0, 59, 96
2, 50400, Note_on_c, 0, 65, 96
2, 50855, Note_on_c, 0, 55, 0
2, 50855, Note_on_c, 0, 59, 0
2, 50855, Note_on_c, 0, 65, 0
2, 50880, Note_on_c, 0, 50, 96
2, 51335, Note_on_c, 0, 50, 0
2, 51360, Note_on_c, 0, 55, 96
2, 51360, Note_on_c, 0, 59, 96
2, 51360, Note_on_c, 0, 65, 96
2, 51815, Note_on_c, 0, 55, 0
2, 51815, Note_on_c, 0, 59, 0
2, 51815, Note_on_c, 0, 65, 0
2, 51840, Note_on_c, 0, 55, 96
2, 52295, Note_on_c, 0, 55, 0
2, 52320, Note_on_c, 0, 53, 96
2, 52775, Note_on_c, 0, 53, 0
2, 52800, Note_on_c, 0, 52, 96
2, 53255, Note_on_c, 0, 52, 0
2, 53280, Note_on_c, 0, 50, 96
2, 53735, Note_on_c, 0, 50, 0
2, 53760, Note_on_c, 0, 48, 96
2, 54215, Note_on_c, 0, 48, 0
2, 54240, Note_on_c, 0, 60, 96
2, 54240, Note_on_c, 0, 64, 96
2, 54695, Note_on_c, 0, 60, 0
2, 54695, Note_on_c, 0, 64, 0
2, 54720, Note_on_c, 0, 55, 96
2, 55175, Note_on_c, 0, 55, 0
2, 55200, Note_on_c, 0, 60, 96
2, 55200, Note_on_c, 0, 64, 96
2, 55520, Note_on_c, 0, 64, 0
2, 55655, Note_on_c, 0, 60, 0
2, 55680, Note_on_c, 0, 48, 96
2, 56135, Note_on_c, 0, 48, 0
2, 56160, Note_on_c, 0, 60, 96
2, 56160, Note_on_c, 0, 64, 96
2, 56615, Note_on_c, 0, 60, 0
2, 56615, Note_on_c, 0, 64, 0
2, 56640, Note_on_c, 0, 55, 96
2, 57095, Note_on_c, 0, 55, 0
2, 57120, Note_on_c, 0, 60, 96
2, 57120, Note_on_c, 0, 64, 96
2, 57575, Note_on_c, 0, 60, 0
2, 57575, Note_on_c, 0, 64, 0
2, 57600, Note_on_c, 0, 50, 96
2, 58055, Note_on_c, 0, 50, 0
2, 58080, Note_on_c, 0, 59, 96
2, 58080, Note_on_c, 0, 65, 96
2, 58535, Note_on_c, 0, 59, 0
2, 58535, Note_on_c, 0, 65, 0
2, 58560, Note_on_c, 0, 55, 96
2, 59015, Note_on_c, 0, 55, 0
2, 59040, Note_on_c, 0, 55, 96
2, 59495, Note_on_c, 0, 55, 0
2, 59520, Note_on_c, 0, 59, 96
2, 59975, Note_on_c, 0, 59, 0
2, 60000, Note_on_c, 0, 55, 96
2, 60000, Note_on_c, 0, 59, 96
2, 60455, Note_on_c, 0, 55, 0
2, 60455, Note_on_c, 0, 59, 0
2, 60480, Note_on_c, 0, 55, 96
2, 60935, Note_on_c, 0, 55, 0
2, 60960, Note_on_c, 0, 55, 96
2, 60960, Note_on_c, 0, 59, 96
2, 60960, Note_on_c, 0, 65, 96
2, 61415, Note_on_c, 0, 55, 0
2, 61415, Note_on_c, 0, 59, 0
2, 61415, Note_on_c, 0, 65, 0
2, 61440, Note_on_c, 0, 50, 96
2, 61895, Note_on_c, 0, 50, 0
2, 61920, Note_on_c, 0, 55, 96
2, 61920, Note_on_c, 0, 59, 96
2, 61920, Note_on_c, 0, 65, 96
2, 62375, Note_on_c, 0, 55, 0
2, 62375, Note_on_c, 0, 59, 0
2, 62375, Note_on_c, 0, 65, 0
2, 62400, Note_on_c, 0, 55, 96
2, 62855, Note_on_c, 0, 55, 0
2, 62880, Note_on_c, 0, 55, 96
2, 62880, Note_on_c, 0, 59, 96
2, 62880, Note_on_c, 0, 65, 96
2, 63335, Note_on_c, 0, 55, 0
2, 63335, Note_on_c, 0, 59, 0
2, 63335, Note_on_c, 0, 65, 0
2, 63360, Note_on_c, 0, 50, 96
2, 63815, Note_on_c, 0, 50, 0
2, 63840, Note_on_c, 0, 55, 96
2, 63840, Note_on_c, 0, 59, 96
2, 63840, Note_on_c, 0, 65, 96
2, 64295, Note_on_c, 0, 55, 0
2, 64295, Note_on_c, 0, 59, 0
2, 64295, Note_on_c, 0, 65, 0
2, 64320, Note_on_c, 0, 55, 96
2, 64775, Note_on_c, 0, 55, 0
2, 64800, Note_on_c, 0, 55, 96
2, 64800, Note_on_c, 0, 59, 96
2, 64800, Note_on_c, 0, 65, 96
2, 65255, Note_on_c, 0, 55, 0
2, 65255, Note_on_c, 0, 59, 0
2, 65255, Note_on_c, 0, 65, 0
2, 65280, Note_on_c, 0, 50, 96
2, 65735, Note_on_c, 0, 50, 0
2, 65760, Note_on_c, 0, 55, 96
2, 65760, Note_on_c, 0, 59, 96
2, 65760, Note_on_c, 0, 65, 96
2, 66215, Note_on_c, 0, 55, 0
2, 66215, Note_on_c, 0, 59, 0
2, 66215, Note_on_c, 0, 65, 0
2, 66240, Note_on_c, 0, 55, 96
2, 66695, Note_on_c, 0, 55, 0
2, 66720, Note_on_c, 0, 55, 96
2, 67175, Note_on_c, 0, 55, 0
2, 67680, Note_on_c, 0, 55, 96
2, 68135, Note_on_c, 0, 55, 0
2, 68160, Note_on_c, 0, 57, 96
2, 68615, Note_on_c, 0, 57, 0
2, 68640, Note_on_c, 0, 59, 96
2, 69095, Note_on_c, 0, 59, 0
2, 69120, Note_on_c, 0, 53, 96
2, 69575, Note_on_c, 0, 53, 0
2, 69600, Note_on_c, 0, 57, 96
2, 69600, Note_on_c, 0, 60, 96
2, 69600, Note_on_c, 0, 65, 96
2, 70055, Note_on_c, 0, 57, 0
2, 70055, Note_on_c, 0, 60, 0
2, 70055, Note_on_c, 0, 65, 0
2, 70080, Note_on_c, 0, 48, 96
2, 70535, Note_on_c, 0, 48, 0
2, 70560, Note_on_c, 0, 57, 96
2, 70560, Note_on_c, 0, 60, 96
2, 70560, Note_on_c, 0, 65, 96
2, 71015, Note_on_c, 0, 57, 0
2, 71015, Note_on_c, 0, 60, 0
2, 71015, Note_on_c, 0, 65, 0
2, 71040, Note_on_c, 0, 53, 96
2, 71495, Note_on_c, 0, 53, 0
2, 71520, Note_on_c, 0, 57, 96
2, 71520, Note_on_c, 0, 60, 96
2, 71975, Note_on_c, 0, 57, 0
2, 71975, Note_on_c, 0, 60, 0
2, 72000, Note_on_c, 0, 53, 96
2, 72455, Note_on_c, 0, 53, 0
2, 72480, Note_on_c, 0, 57, 96
2, 72480, Note_on_c, 0, 60, 96
2, 72935, Note_on_c, 0, 57, 0
2, 72935, Note_on_c, 0, 60, 0
2, 72960, Note_on_c, 0, 52, 96
2, 73415, Note_on_c, 0, 52, 0
2, 73440, Note_on_c, 0, 55, 96
2, 73440, Note_on_c, 0, 59, 96
2, 73895, Note_on_c, 0, 55, 0
2, 73895, Note_on_c, 0, 59, 0
2, 73920, Note_on_c, 0, 52, 96
2, 74375, Note_on_c, 0, 52, 0
2, 74400, Note_on_c, 0, 55, 96
2, 74400, Note_on_c, 0, 59, 96
2, 74855, Note_on_c, 0, 55, 0
2, 74855, Note_on_c, 0, 59, 0
2, 74880, Note_on_c, 0, 52, 96
2, 75335, Note_on_c, 0, 52, 0
2, 75360, Note_on_c, 0, 55, 96
2, 75360, Note_on_c, 0, 59, 96
2, 75815, Note_on_c, 0, 55, 0
2, 75815, Note_on_c, 0, 59, 0
2, 75840, Note_on_c, 0, 60, 96
2, 76295, Note_on_c, 0, 60, 0
2, 76320, Note_on_c, 0, 59, 96
2, 76775, Note_on_c, 0, 59, 0
2, 76800, Note_on_c, 0, 57, 96
2, 77255, Note_on_c, 0, 57, 0
2, 77280, Note_on_c, 0, 57, 96
2, 77280, Note_on_c, 0, 60, 96
2, 77735, Note_on_c, 0, 57, 0
2, 77735, Note_on_c, 0, 60, 0
2, 77760, Note_on_c, 0, 50, 96
2, 78215, Note_on_c, 0, 50, 0
2, 78240, Note_on_c, 0, 57, 96
2, 78240, Note_on_c, 0, 60, 96
2, 78695, Note_on_c, 0, 57, 0
2, 78695, Note_on_c, 0, 60, 0
2, 78720, Note_on_c, 0, 57, 96
2, 79175, Note_on_c, 0, 57, 0
2, 79200, Note_on_c, 0, 55, 96
2, 79200, Note_on_c, 0, 59, 96
2, 79655, Note_on_c, 0, 55, 0
2, 79655, Note_on_c, 0, 59, 0
2, 79680, Note_on_c, 0, 50, 96
2, 80135, Note_on_c, 0, 50, 0
2, 80160, Note_on_c, 0, 53, 96
2, 80160, Note_on_c, 0, 57, 96
2, 80615, Note_on_c, 0, 53, 0
2, 80615, Note_on_c, 0, 57, 0
2, 80640, Note_on_c, 0, 55, 96
2, 81095, Note_on_c, 0, 55, 0
2, 81120, Note_on_c, 0, 55, 96
2, 81120, Note_on_c, 0, 59, 96
2, 81120, Note_on_c, 0, 65, 96
2, 81575, Note_on_c, 0, 55, 0
2, 81575, Note_on_c, 0, 59, 0
2, 81575, Note_on_c, 0, 65, 0
2, 81600, Note_on_c, 0, 50, 96
2, 82055, Note_on_c, 0, 50, 0
2, 82080, Note_on_c, 0, 55, 96
2, 82080, Note_on_c, 0, 59, 96
2, 82080, Note_on_c, 0, 65, 96
2, 82535, Note_on_c, 0, 55, 0
2, 82535, Note_on_c, 0, 59, 0
2, 82535, Note_on_c, 0, 65, 0
2, 82560, Note_on_c, 0, 55, 96
2, 83015, Note_on_c, 0, 55, 0
2, 83040, Note_on_c, 0, 53, 96
2, 83495, Note_on_c, 0, 53, 0
2, 83520, Note_on_c, 0, 52, 96
2, 83975, Note_on_c, 0, 52, 0
2, 84000, Note_on_c, 0, 50, 96
2, 84455, Note_on_c, 0, 50, 0
2, 84480, Note_on_c, 0, 48, 96
2, 84935, Note_on_c, 0, 48, 0
2, 84960, Note_on_c, 0, 60, 96
2, 84960, Note_on_c, 0, 64, 96
2, 85415, Note_on_c, 0, 60, 0
2, 85415, Note_on_c, 0, 64, 0
2, 85440, Note_on_c, 0, 55, 96
2, 85895, Note_on_c, 0, 55, 0
2, 85920, Note_on_c, 0, 60, 96
2, 85920, Note_on_c, 0, 64, 96
2, 86240, Note_on_c, 0, 64, 0
2, 86375, Note_on_c, 0, 60, 0
2, 86400, Note_on_c, 0, 48, 96
2, 86855, Note_on_c, 0, 48, 0
2, 86880, Note_on_c, 0, 60, 96
2, 86880, Note_on_c, 0, 64, 96
2, 87335, Note_on_c, 0, 60, 0
2, 87335, Note_on_c, 0, 64, 0
2, 87360, Note_on_c, 0, 55, 96
2, 87815, Note_on_c, 0, 55, 0
2, 87840, Note_on_c, 0, 60, 96
2, 87840, Note_on_c, 0, 64, 96
2, 88295, Note_on_c, 0, 60, 0
2, 88295, Note_on_c, 0, 64, 0
2, 88320, Note_on_c, 0, 50, 96
2, 88775, Note_on_c, 0, 50, 0
2, 88800, Note_on_c, 0, 59, 96
2, 88800, Note_on_c, 0, 65, 96
2, 89255, Note_on_c, 0, 59, 0
2, 89255, Note_on_c, 0, 65, 0
2, 89280, Note_on_c, 0, 55, 96
2, 89735, Note_on_c, 0, 55, 0
2, 89760, Note_on_c, 0, 55, 96
2, 90215, Note_on_c, 0, 55, 0
2, 90240, Note_on_c, 0, 59, 96
2, 90695, Note_on_c, 0, 59, 0
2, 90720, Note_on_c, 0, 55, 96
2, 90720, Note_on_c, 0, 59, 96
2, 91175, Note_on_c, 0, 55, 0
2, 91175, Note_on_c, 0, 59, 0
2, 91200, Note_on_c, 0, 55, 96
2, 91655, Note_on_c, 0, 55, 0
2, 91680, Note_on_c, 0, 59, 96
2, 91680, Note_on_c, 0, 65, 96
2, 92135, Note_on_c, 0, 59, 0
2, 92135, Note_on_c, 0, 65, 0
2, 92160, Note_on_c, 0, 50, 96
2, 92615, Note_on_c, 0, 50, 0
2, 92640, Note_on_c, 0, 59, 96
2, 92640, Note_on_c, 0, 65, 96
2, 93095, Note_on_c, 0, 59, 0
2, 93095, Note_on_c, 0, 65, 0
2, 93120, Note_on_c, 0, 55, 96
2, 93575, Note_on_c, 0, 55, 0
2, 93600, Note_on_c, 0, 59, 96
2, 93600, Note_on_c, 0, 65, 96
2, 94055, Note_on_c, 0, 59, 0
2, 94055, Note_on_c, 0, 65, 0
2, 94080, Note_on_c, 0, 50, 96
2, 94535, Note_on_c, 0, 50, 0
2, 94560, Note_on_c, 0, 59, 96
2, 94560, Note_on_c, 0, 65, 96
2, 95015, Note_on_c, 0, 59, 0
2, 95015, Note_on_c, 0, 65, 0
2, 95040, Note_on_c, 0, 55, 96
2, 95495, Note_on_c, 0, 55, 0
2, 95520, Note_on_c, 0, 59, 96
2, 95520, Note_on_c, 0, 65, 96
2, 95975, Note_on_c, 0, 59, 0
2, 95975, Note_on_c, 0, 65, 0
2, 96480, Note_on_c, 0, 55, 96
2, 96935, Note_on_c, 0, 55, 0
2, 97440, Note_on_c, 0, 55, 96
2, 97895, Note_on_c, 0, 55, 0
2, 97920, Note_on_c, 0, 57, 96
2, 98375, Note_on_c, 0, 57, 0
2, 98400, Note_on_c, 0, 52, 96
2, 98400, Note_on_c, 0, 57, 96
2, 98400, Note_on_c, 0, 60, 96
2, 98855, Note_on_c, 0, 52, 0
2, 98855, Note_on_c, 0, 57, 0
2, 98855, Note_on_c, 0, 60, 0
2, 98880, Note_on_c, 0, 55, 96
2, 99335, Note_on_c, 0, 55, 0
2, 99360, Note_on_c, 0, 55, 96
2, 99360, Note_on_c, 0, 59, 96
2, 99360, Note_on_c, 0, 65, 96
2, 99815, Note_on_c, 0, 55, 0
2, 99815, Note_on_c, 0, 59, 0
2, 99815, Note_on_c, 0, 65, 0
2, 99816, End_track
3, 0, Start_track
3, 0, Title_t, "Electric Bass, Bass Guitar, Bass Guitar (tablature)\000"
3, 0, Key_signature, 0, "major"
3, 0, Control_c, 4, 121, 0
3, 0, Program_c, 4, 33
3, 0, Control_c, 4, 7, 100
3, 0, Control_c, 4, 10, 64
3, 0, Control_c, 4, 91, 0
3, 0, Control_c, 4, 93, 0
3, 0, MIDI_port, 0
3, 0, Note_on_c, 4, 60, 80
3, 0, Control_c, 2, 121, 0
3, 0, Program_c, 2, 36
3, 0, Control_c, 2, 7, 100
3, 0, Control_c, 2, 10, 64
3, 0, Control_c, 2, 91, 0
3, 0, Control_c, 2, 93, 0
3, 0, MIDI_port, 0
3, 0, Control_c, 3, 121, 0
3, 0, Program_c, 3, 37
3, 0, Control_c, 3, 7, 100
3, 0, Control_c, 3, 10, 64
3, 0, Control_c, 3, 91, 0
3, 0, Control_c, 3, 93, 0
3, 0, MIDI_port, 0
3, 959, Note_on_c, 4, 60, 0
3, 960, Note_on_c, 4, 60, 80
3, 1759, Note_on_c, 4, 60, 0
3, 1760, Note_on_c, 4, 60, 80
3, 1919, Note_on_c, 4, 60, 0
3, 1920, Note_on_c, 4, 57, 80
3, 2879, Note_on_c, 4, 57, 0
3, 2880, Note_on_c, 4, 57, 80
3, 3679, Note_on_c, 4, 57, 0
3, 3680, Note_on_c, 4, 57, 80
3, 3839, Note_on_c, 4, 57, 0
3, 3840, Note_on_c, 4, 65, 80
3, 4799, Note_on_c, 4, 65, 0
3, 4800, Note_on_c, 4, 65, 80
3, 5759, Note_on_c, 4, 65, 0
3, 5760, Note_on_c, 4, 67, 80
3, 6239, Note_on_c, 4, 67, 0
3, 6240, Note_on_c, 4, 65, 80
3, 6719, Note_on_c, 4, 65, 0
3, 6720, Note_on_c, 4, 64, 80
3, 7199, Note_on_c, 4, 64, 0
3, 7200, Note_on_c, 4, 62, 80
3, 7679, Note_on_c, 4, 62, 0
3, 7680, Note_on_c, 4, 60, 80
3, 8479, Note_on_c, 4, 60, 0
3, 8480, Note_on_c, 4, 60, 80
3, 8639, Note_on_c, 4, 60, 0
3, 8640, Note_on_c, 4, 67, 80
3, 9440, Note_on_c, 4, 59, 80
3, 9599, Note_on_c, 4, 67, 0
3, 9599, Note_on_c, 4, 59, 0
3, 9600, Note_on_c, 4, 60, 80
3, 10400, Note_on_c, 4, 59, 80
3, 10559, Note_on_c, 4, 60, 0
3, 10559, Note_on_c, 4, 59, 0
3, 10560, Note_on_c, 4, 60, 80
3, 11359, Note_on_c, 4, 60, 0
3, 11360, Note_on_c, 4, 60, 80
3, 11519, Note_on_c, 4, 60, 0
3, 11520, Note_on_c, 4, 55, 80
3, 12320, Note_on_c, 4, 55, 0
3, 12320, Note_on_c, 4, 55, 80
3, 12320, Note_on_c, 2, 55, 0
3, 12320, Note_on_c, 3, 55, 0
3, 12479, Note_on_c, 4, 55, 0
3, 12480, Note_on_c, 4, 62, 80
3, 13279, Note_on_c, 4, 62, 0
3, 13280, Note_on_c, 4, 62, 80
3, 13439, Note_on_c, 4, 62, 0
3, 13440, Note_on_c, 4, 67, 80
3, 14239, Note_on_c, 4, 67, 0
3, 14240, Note_on_c, 4, 67, 80
3, 14399, Note_on_c, 4, 67, 0
3, 14400, Note_on_c, 4, 62, 80
3, 15200, Note_on_c, 4, 62, 0
3, 15200, Note_on_c, 4, 62, 80
3, 15200, Note_on_c, 2, 62, 0
3, 15200, Note_on_c, 3, 62, 0
3, 15359, Note_on_c, 4, 62, 0
3, 15360, Note_on_c, 4, 55, 80
3, 16160, Note_on_c, 4, 55, 0
3, 16160, Note_on_c, 4, 55, 80
3, 16160, Note_on_c, 2, 55, 0
3, 16160, Note_on_c, 3, 55, 0
3, 16319, Note_on_c, 4, 55, 0
3, 16320, Note_on_c, 4, 62, 80
3, 17119, Note_on_c, 4, 62, 0
3, 17120, Note_on_c, 4, 62, 80
3, 17279, Note_on_c, 4, 62, 0
3, 17280, Note_on_c, 4, 55, 80
3, 18080, Note_on_c, 4, 55, 0
3, 18080, Note_on_c, 4, 55, 80
3, 18080, Note_on_c, 2, 55, 0
3, 18080, Note_on_c, 3, 55, 0
3, 18239, Note_on_c, 4, 55, 0
3, 18240, Note_on_c, 4, 62, 80
3, 19039, Note_on_c, 4, 62, 0
3, 19040, Note_on_c, 4, 62, 80
3, 19199, Note_on_c, 4, 62, 0
3, 19200, Note_on_c, 4, 55, 80
3, 20000, Note_on_c, 4, 55, 0
3, 20000, Note_on_c, 4, 55, 80
3, 20000, Note_on_c, 2, 55, 0
3, 20000, Note_on_c, 3, 55, 0
3, 20159, Note_on_c, 4, 55, 0
3, 20160, Note_on_c, 4, 62, 80
3, 20959, Note_on_c, 4, 62, 0
3, 20960, Note_on_c, 4, 59, 80
3, 21119, Note_on_c, 4, 59, 0
3, 21120, Note_on_c, 4, 60, 80
3, 21599, Note_on_c, 4, 60, 0
3, 21600, Note_on_c, 4, 55, 80
3, 22079, Note_on_c, 4, 55, 0
3, 22080, Note_on_c, 4, 57, 80
3, 22559, Note_on_c, 4, 57, 0
3, 22560, Note_on_c, 4, 59, 80
3, 23039, Note_on_c, 4, 59, 0
3, 23040, Note_on_c, 4, 60, 80
3, 23839, Note_on_c, 4, 60, 0
3, 23840, Note_on_c, 4, 60, 80
3, 23999, Note_on_c, 4, 60, 0
3, 24000, Note_on_c, 4, 67, 80
3, 24800, Note_on_c, 4, 59, 80
3, 24959, Note_on_c, 4, 67, 0
3, 24959, Note_on_c, 4, 59, 0
3, 24960, Note_on_c, 4, 60, 80
3, 25760, Note_on_c, 4, 59, 80
3, 25919, Note_on_c, 4, 60, 0
3, 25919, Note_on_c, 4, 59, 0
3, 25920, Note_on_c, 4, 60, 80
3, 26719, Note_on_c, 4, 60, 0
3, 26720, Note_on_c, 4, 60, 80
3, 26879, Note_on_c, 4, 60, 0
3, 26880, Note_on_c, 4, 55, 80
3, 27679, Note_on_c, 4, 55, 0
3, 27680, Note_on_c, 4, 55, 80
3, 27839, Note_on_c, 4, 55, 0
3, 27840, Note_on_c, 4, 62, 80
3, 28640, Note_on_c, 4, 55, 80
3, 28799, Note_on_c, 4, 62, 0
3, 28799, Note_on_c, 4, 55, 0
3, 28800, Note_on_c, 4, 55, 80
3, 29600, Note_on_c, 4, 55, 0
3, 29600, Note_on_c, 4, 55, 80
3, 29600, Note_on_c, 2, 55, 0
3, 29600, Note_on_c, 3, 55, 0
3, 29759, Note_on_c, 4, 55, 0
3, 29760, Note_on_c, 4, 62, 80
3, 30559, Note_on_c, 4, 62, 0
3, 30560, Note_on_c, 4, 62, 80
3, 30719, Note_on_c, 4, 62, 0
3, 30720, Note_on_c, 4, 55, 80
3, 31520, Note_on_c, 4, 55, 0
3, 31520, Note_on_c, 4, 55, 80
3, 31520, Note_on_c, 2, 55, 0
3, 31520, Note_on_c, 3, 55, 0
3, 31679, Note_on_c, 4, 55, 0
3, 31680, Note_on_c, 4, 62, 80
3, 32479, Note_on_c, 4, 62, 0
3, 32480, Note_on_c, 4, 62, 80
3, 32639, Note_on_c, 4, 62, 0
3, 32640, Note_on_c, 4, 55, 80
3, 33440, Note_on_c, 4, 55, 0
3, 33440, Note_on_c, 4, 55, 80
3, 33440, Note_on_c, 2, 55, 0
3, 33440, Note_on_c, 3, 55, 0
3, 33599, Note_on_c, 4, 55, 0
3, 33600, Note_on_c, 4, 62, 80
3, 34399, Note_on_c, 4, 62, 0
3, 34400, Note_on_c, 4, 62, 80
3, 34559, Note_on_c, 4, 62, 0
3, 34560, Note_on_c, 4, 55, 80
3, 35360, Note_on_c, 4, 55, 0
3, 35360, Note_on_c, 4, 55, 80
3, 35360, Note_on_c, 2, 55, 0
3, 35360, Note_on_c, 3, 55, 0
3, 35519, Note_on_c, 4, 55, 0
3, 35520, Note_on_c, 4, 62, 80
3, 36319, Note_on_c, 4, 62, 0
3, 36320, Note_on_c, 4, 59, 80
3, 36479, Note_on_c, 4, 59, 0
3, 36960, Note_on_c, 4, 53, 80
3, 37439, Note_on_c, 4, 53, 0
3, 37440, Note_on_c, 4, 52, 80
3, 37919, Note_on_c, 4, 52, 0
3, 37920, Note_on_c, 4, 50, 80
3, 38399, Note_on_c, 4, 50, 0
3, 38400, Note_on_c, 4, 53, 80
3, 38879, Note_on_c, 4, 53, 0
3, 38880, Note_on_c, 4, 57, 80
3, 39359, Note_on_c, 4, 57, 0
3, 39360, Note_on_c, 4, 60, 80
3, 39839, Note_on_c, 4, 60, 0
3, 39840, Note_on_c, 4, 62, 80
3, 40319, Note_on_c, 4, 62, 0
3, 40320, Note_on_c, 4, 60, 80
3, 40799, Note_on_c, 4, 60, 0
3, 40800, Note_on_c, 4, 57, 80
3, 41279, Note_on_c, 4, 57, 0
3, 41280, Note_on_c, 4, 53, 80
3, 41759, Note_on_c, 4, 53, 0
3, 41760, Note_on_c, 4, 53, 80
3, 42239, Note_on_c, 4, 53, 0
3, 42240, Note_on_c, 4, 52, 80
3, 42719, Note_on_c, 4, 52, 0
3, 42720, Note_on_c, 4, 57, 80
3, 43199, Note_on_c, 4, 57, 0
3, 43200, Note_on_c, 4, 55, 80
3, 43679, Note_on_c, 4, 55, 0
3, 43680, Note_on_c, 4, 59, 80
3, 44159, Note_on_c, 4, 59, 0
3, 44160, Note_on_c, 4, 52, 80
3, 44639, Note_on_c, 4, 52, 0
3, 44640, Note_on_c, 4, 59, 80
3, 45119, Note_on_c, 4, 59, 0
3, 45120, Note_on_c, 4, 55, 80
3, 45599, Note_on_c, 4, 55, 0
3, 45600, Note_on_c, 4, 52, 80
3, 46079, Note_on_c, 4, 52, 0
3, 46080, Note_on_c, 4, 62, 80
3, 47039, Note_on_c, 4, 62, 0
3, 47040, Note_on_c, 4, 57, 80
3, 47999, Note_on_c, 4, 57, 0
3, 48000, Note_on_c, 4, 62, 80
3, 48959, Note_on_c, 4, 62, 0
3, 48960, Note_on_c, 4, 57, 80
3, 49919, Note_on_c, 4, 57, 0
3, 49920, Note_on_c, 4, 55, 80
3, 51839, Note_on_c, 4, 55, 0
3, 51840, Note_on_c, 4, 67, 80
3, 52319, Note_on_c, 4, 67, 0
3, 52320, Note_on_c, 4, 65, 80
3, 52799, Note_on_c, 4, 65, 0
3, 52800, Note_on_c, 4, 64, 80
3, 53279, Note_on_c, 4, 64, 0
3, 53280, Note_on_c, 4, 62, 80
3, 53759, Note_on_c, 4, 62, 0
3, 53760, Note_on_c, 4, 60, 80
3, 54559, Note_on_c, 4, 60, 0
3, 54560, Note_on_c, 4, 60, 80
3, 54719, Note_on_c, 4, 60, 0
3, 54720, Note_on_c, 4, 67, 80
3, 55520, Note_on_c, 4, 59, 80
3, 55679, Note_on_c, 4, 67, 0
3, 55679, Note_on_c, 4, 59, 0
3, 55680, Note_on_c, 4, 60, 80
3, 56480, Note_on_c, 4, 59, 80
3, 56639, Note_on_c, 4, 60, 0
3, 56639, Note_on_c, 4, 59, 0
3, 56640, Note_on_c, 4, 60, 80
3, 57439, Note_on_c, 4, 60, 0
3, 57440, Note_on_c, 4, 60, 80
3, 57599, Note_on_c, 4, 60, 0
3, 57600, Note_on_c, 4, 67, 80
3, 58400, Note_on_c, 4, 55, 80
3, 58559, Note_on_c, 4, 67, 0
3, 58559, Note_on_c, 4, 55, 0
3, 58560, Note_on_c, 4, 62, 80
3, 59359, Note_on_c, 4, 62, 0
3, 59360, Note_on_c, 4, 62, 80
3, 59519, Note_on_c, 4, 62, 0
3, 59520, Note_on_c, 4, 55, 80
3, 60320, Note_on_c, 4, 55, 0
3, 60320, Note_on_c, 4, 55, 80
3, 60320, Note_on_c, 2, 55, 0
3, 60320, Note_on_c, 3, 55, 0
3, 60479, Note_on_c, 4, 55, 0
3, 60480, Note_on_c, 4, 62, 80
3, 61279, Note_on_c, 4, 62, 0
3, 61280, Note_on_c, 4, 62, 80
3, 61439, Note_on_c, 4, 62, 0
3, 61440, Note_on_c, 4, 55, 80
3, 62240, Note_on_c, 4, 55, 0
3, 62240, Note_on_c, 4, 55, 80
3, 62240, Note_on_c, 2, 55, 0
3, 62240, Note_on_c, 3, 55, 0
3, 62399, Note_on_c, 4, 55, 0
3, 62400, Note_on_c, 4, 62, 80
3, 63199, Note_on_c, 4, 62, 0
3, 63200, Note_on_c, 4, 62, 80
3, 63359, Note_on_c, 4, 62, 0
3, 63360, Note_on_c, 4, 55, 80
3, 64160, Note_on_c, 4, 55, 0
3, 64160, Note_on_c, 4, 55, 80
3, 64160, Note_on_c, 2, 55, 0
3, 64160, Note_on_c, 3, 55, 0
3, 64319, Note_on_c, 4, 55, 0
3, 64320, Note_on_c, 4, 62, 80
3, 65119, Note_on_c, 4, 62, 0
3, 65120, Note_on_c, 4, 62, 80
3, 65279, Note_on_c, 4, 62, 0
3, 65280, Note_on_c, 4, 55, 80
3, 66080, Note_on_c, 4, 55, 0
3, 66080, Note_on_c, 4, 55, 80
3, 66080, Note_on_c, 2, 55, 0
3, 66080, Note_on_c, 3, 55, 0
3, 66239, Note_on_c, 4, 55, 0
3, 66240, Note_on_c, 4, 62, 80
3, 67039, Note_on_c, 4, 62, 0
3, 67040, Note_on_c, 4, 59, 80
3, 67199, Note_on_c, 4, 59, 0
3, 67200, Note_on_c, 4, 60, 80
3, 67679, Note_on_c, 4, 60, 0
3, 67680, Note_on_c, 4, 55, 80
3, 68159, Note_on_c, 4, 55, 0
3, 68160, Note_on_c, 4, 57, 80
3, 68639, Note_on_c, 4, 57, 0
3, 68640, Note_on_c, 4, 59, 80
3, 69119, Note_on_c, 4, 59, 0
3, 69120, Note_on_c, 4, 53, 80
3, 70079, Note_on_c, 4, 53, 0
3, 70080, Note_on_c, 4, 60, 80
3, 71039, Note_on_c, 4, 60, 0
3, 71040, Note_on_c, 4, 53, 80
3, 71999, Note_on_c, 4, 53, 0
3, 72000, Note_on_c, 4, 53, 80
3, 72959, Note_on_c, 4, 53, 0
3, 72960, Note_on_c, 4, 52, 80
3, 73919, Note_on_c, 4, 52, 0
3, 73920, Note_on_c, 4, 59, 80
3, 74879, Note_on_c, 4, 59, 0
3, 74880, Note_on_c, 4, 52, 80
3, 75839, Note_on_c, 4, 52, 0
3, 75840, Note_on_c, 4, 55, 80
3, 76319, Note_on_c, 4, 55, 0
3, 76320, Note_on_c, 4, 59, 80
3, 76799, Note_on_c, 4, 59, 0
3, 76800, Note_on_c, 4, 57, 80
3, 77759, Note_on_c, 4, 57, 0
3, 77760, Note_on_c, 4, 57, 80
3, 78719, Note_on_c, 4, 57, 0
3, 78720, Note_on_c, 4, 57, 80
3, 79679, Note_on_c, 4, 57, 0
3, 79680, Note_on_c, 4, 57, 80
3, 80639, Note_on_c, 4, 57, 0
3, 80640, Note_on_c, 4, 62, 80
3, 82559, Note_on_c, 4, 62, 0
3, 82560, Note_on_c, 4, 67, 80
3, 83039, Note_on_c, 4, 67, 0
3, 83040, Note_on_c, 4, 65, 80
3, 83519, Note_on_c, 4, 65, 0
3, 83520, Note_on_c, 4, 64, 80
3, 83999, Note_on_c, 4, 64, 0
3, 84000, Note_on_c, 4, 62, 80
3, 84479, Note_on_c, 4, 62, 0
3, 84480, Note_on_c, 4, 60, 80
3, 85279, Note_on_c, 4, 60, 0
3, 85280, Note_on_c, 4, 60, 80
3, 85439, Note_on_c, 4, 60, 0
3, 85440, Note_on_c, 4, 67, 80
3, 86240, Note_on_c, 4, 59, 80
3, 86399, Note_on_c, 4, 67, 0
3, 86399, Note_on_c, 4, 59, 0
3, 86400, Note_on_c, 4, 60, 80
3, 87200, Note_on_c, 4, 59, 80
3, 87359, Note_on_c, 4, 60, 0
3, 87359, Note_on_c, 4, 59, 0
3, 87360, Note_on_c, 4, 60, 80
3, 88159, Note_on_c, 4, 60, 0
3, 88160, Note_on_c, 4, 60, 80
3, 88319, Note_on_c, 4, 60, 0
3, 88320, Note_on_c, 4, 67, 80
3, 89120, Note_on_c, 4, 55, 80
3, 89279, Note_on_c, 4, 67, 0
3, 89279, Note_on_c, 4, 55, 0
3, 89280, Note_on_c, 4, 62, 80
3, 90079, Note_on_c, 4, 62, 0
3, 90080, Note_on_c, 4, 62, 80
3, 90239, Note_on_c, 4, 62, 0
3, 90240, Note_on_c, 4, 55, 80
3, 91040, Note_on_c, 4, 55, 0
3, 91040, Note_on_c, 4, 55, 80
3, 91040, Note_on_c, 2, 55, 0
3, 91040, Note_on_c, 3, 55, 0
3, 91199, Note_on_c, 4, 55, 0
3, 91200, Note_on_c, 4, 62, 80
3, 91999, Note_on_c, 4, 62, 0
3, 92000, Note_on_c, 4, 62, 80
3, 92159, Note_on_c, 4, 62, 0
3, 92160, Note_on_c, 4, 55, 80
3, 92960, Note_on_c, 4, 55, 0
3, 92960, Note_on_c, 4, 55, 80
3, 92960, Note_on_c, 2, 55, 0
3, 92960, Note_on_c, 3, 55, 0
3, 93119, Note_on_c, 4, 55, 0
3, 93120, Note_on_c, 4, 62, 80
3, 93919, Note_on_c, 4, 62, 0
3, 93920, Note_on_c, 4, 62, 80
3, 94079, Note_on_c, 4, 62, 0
3, 94080, Note_on_c, 4, 55, 80
3, 94880, Note_on_c, 4, 55, 0
3, 94880, Note_on_c, 4, 55, 80
3, 94880, Note_on_c, 2, 55, 0
3, 94880, Note_on_c, 3, 55, 0
3, 95039, Note_on_c, 4, 55, 0
3, 95040, Note_on_c, 4, 62, 80
3, 95839, Note_on_c, 4, 62, 0
3, 95840, Note_on_c, 4, 62, 80
3, 95999, Note_on_c, 4, 62, 0
3, 96480, Note_on_c, 4, 55, 80
3, 96959, Note_on_c, 4, 55, 0
3, 97440, Note_on_c, 4, 55, 80
3, 97919, Note_on_c, 4, 55, 0
3, 98400, Note_on_c, 4, 57, 80
3, 98879, Note_on_c, 4, 57, 0
3, 99360, Note_on_c, 4, 55, 80
3, 99839, Note_on_c, 4, 55, 0
3, 99840, Note_on_c, 4, 60, 80
3, 100319, Note_on_c, 4, 60, 0
3, 100320, Note_on_c, 4, 60, 80
3, 100799, Note_on_c, 4, 60, 0
3, 100800, Note_on_c, 4, 55, 80
3, 101279, Note_on_c, 4, 55, 0
3, 101280, Note_on_c, 4, 60, 80
3, 101759, Note_on_c, 4, 60, 0
3, 101760, Note_on_c, 4, 57, 80
3, 102239, Note_on_c, 4, 57, 0
3, 102240, Note_on_c, 4, 57, 80
3, 102719, Note_on_c, 4, 57, 0
3, 102720, Note_on_c, 4, 52, 80
3, 103199, Note_on_c, 4, 52, 0
3, 103200, Note_on_c, 4, 57, 80
3, 103679, Note_on_c, 4, 57, 0
3, 103680, Note_on_c, 4, 53, 80
3, 104159, Note_on_c, 4, 53, 0
3, 104160, Note_on_c, 4, 53, 80
3, 104639, Note_on_c, 4, 53, 0
3, 104640, Note_on_c, 4, 50, 80
3, 105119, Note_on_c, 4, 50, 0
3, 105120, Note_on_c, 4, 50, 80
3, 105599, Note_on_c, 4, 50, 0
3, 105600, Note_on_c, 4, 48, 80
3, 106399, Note_on_c, 4, 48, 0
3, 106400, Note_on_c, 4, 60, 80
3, 106559, Note_on_c, 4, 60, 0
3, 106560, End_track
4, 0, Start_track
4, 0, Title_t, "Chimes, Violin, Violin\000"
4, 0, Key_signature, 0, "major"
4, 0, Control_c, 1, 121, 0
4, 0, Program_c, 1, 14
4, 0, Control_c, 1, 7, 100
4, 0, Control_c, 1, 10, 64
4, 0, Control_c, 1, 91, 0
4, 0, Control_c, 1, 93, 0
4, 0, MIDI_port, 0
4, 53760, Note_on_c, 1, 67, 80
4, 54079, Note_on_c, 1, 67, 0
4, 54080, Note_on_c, 1, 64, 80
4, 54239, Note_on_c, 1, 64, 0
4, 54240, Note_on_c, 1, 67, 80
4, 54559, Note_on_c, 1, 67, 0
4, 54560, Note_on_c, 1, 69, 80
4, 55199, Note_on_c, 1, 69, 0
4, 55520, Note_on_c, 1, 64, 80
4, 55679, Note_on_c, 1, 64, 0
4, 55680, Note_on_c, 1, 67, 80
4, 56159, Note_on_c, 1, 67, 0
4, 56160, Note_on_c, 1, 67, 80
4, 56479, Note_on_c, 1, 67, 0
4, 56480, Note_on_c, 1, 69, 80
4, 56879, Note_on_c, 1, 69, 0
4, 56880, Note_on_c, 1, 69, 80
4, 57439, Note_on_c, 1, 69, 0
4, 57440, Note_on_c, 1, 69, 80
4, 57599, Note_on_c, 1, 69, 0
4, 57600, Note_on_c, 1, 71, 80
4, 58079, Note_on_c, 1, 71, 0
4, 58080, Note_on_c, 1, 69, 80
4, 58559, Note_on_c, 1, 69, 0
4, 58560, Note_on_c, 1, 65, 80
4, 58719, Note_on_c, 1, 65, 0
4, 58720, Note_on_c, 1, 67, 80
4, 58879, Note_on_c, 1, 67, 0
4, 58880, Note_on_c, 1, 65, 80
4, 59039, Note_on_c, 1, 65, 0
4, 59040, Note_on_c, 1, 62, 80
4, 59359, Note_on_c, 1, 62, 0
4, 59360, Note_on_c, 1, 65, 80
4, 59519, Note_on_c, 1, 65, 0
4, 61440, Note_on_c, 1, 69, 80
4, 61759, Note_on_c, 1, 69, 0
4, 61760, Note_on_c, 1, 67, 80
4, 61919, Note_on_c, 1, 67, 0
4, 61920, Note_on_c, 1, 69, 80
4, 62239, Note_on_c, 1, 69, 0
4, 62240, Note_on_c, 1, 71, 80
4, 62879, Note_on_c, 1, 71, 0
4, 62880, Note_on_c, 1, 71, 80
4, 63359, Note_on_c, 1, 71, 0
4, 63360, Note_on_c, 1, 69, 80
4, 63679, Note_on_c, 1, 69, 0
4, 63680, Note_on_c, 1, 69, 80
4, 64079, Note_on_c, 1, 69, 0
4, 64080, Note_on_c, 1, 71, 80
4, 64319, Note_on_c, 1, 71, 0
4, 64640, Note_on_c, 1, 69, 80
4, 65039, Note_on_c, 1, 69, 0
4, 65040, Note_on_c, 1, 69, 80
4, 65279, Note_on_c, 1, 69, 0
4, 65280, Note_on_c, 1, 67, 80
4, 65759, Note_on_c, 1, 67, 0
4, 65760, Note_on_c, 1, 67, 80
4, 66239, Note_on_c, 1, 67, 0
4, 66240, Note_on_c, 1, 69, 80
4, 66719, Note_on_c, 1, 69, 0
4, 66720, Note_on_c, 1, 64, 80
4, 67039, Note_on_c, 1, 64, 0
4, 67040, Note_on_c, 1, 60, 80
4, 67199, Note_on_c, 1, 60, 0
4, 69120, Note_on_c, 1, 69, 80
4, 69599, Note_on_c, 1, 69, 0
4, 69600, Note_on_c, 1, 69, 80
4, 70079, Note_on_c, 1, 69, 0
4, 70080, Note_on_c, 1, 69, 80
4, 70559, Note_on_c, 1, 69, 0
4, 70560, Note_on_c, 1, 69, 80
4, 71039, Note_on_c, 1, 69, 0
4, 71040, Note_on_c, 1, 69, 80
4, 71519, Note_on_c, 1, 69, 0
4, 71520, Note_on_c, 1, 60, 80
4, 71999, Note_on_c, 1, 60, 0
4, 72000, Note_on_c, 1, 65, 80
4, 72319, Note_on_c, 1, 65, 0
4, 72320, Note_on_c, 1, 69, 80
4, 72719, Note_on_c, 1, 69, 0
4, 72720, Note_on_c, 1, 71, 80
4, 73279, Note_on_c, 1, 71, 0
4, 73280, Note_on_c, 1, 67, 80
4, 73919, Note_on_c, 1, 67, 0
4, 74240, Note_on_c, 1, 64, 80
4, 74399, Note_on_c, 1, 64, 0
4, 74400, Note_on_c, 1, 67, 80
4, 74719, Note_on_c, 1, 67, 0
4, 74720, Note_on_c, 1, 71, 80
4, 75839, Note_on_c, 1, 71, 0
4, 76800, Note_on_c, 1, 72, 80
4, 77279, Note_on_c, 1, 72, 0
4, 77280, Note_on_c, 1, 71, 80
4, 77759, Note_on_c, 1, 71, 0
4, 77760, Note_on_c, 1, 72, 80
4, 78239, Note_on_c, 1, 72, 0
4, 78240, Note_on_c, 1, 71, 80
4, 78719, Note_on_c, 1, 71, 0
4, 78720, Note_on_c, 1, 72, 80
4, 79199, Note_on_c, 1, 72, 0
4, 79200, Note_on_c, 1, 69, 80
4, 79519, Note_on_c, 1, 69, 0
4, 79520, Note_on_c, 1, 71, 80
4, 79919, Note_on_c, 1, 71, 0
4, 79920, Note_on_c, 1, 72, 80
4, 80639, Note_on_c, 1, 72, 0
4, 80640, Note_on_c, 1, 74, 80
4, 81119, Note_on_c, 1, 74, 0
4, 81440, Note_on_c, 1, 72, 80
4, 81599, Note_on_c, 1, 72, 0
4, 81600, Note_on_c, 1, 71, 80
4, 82079, Note_on_c, 1, 71, 0
4, 82080, Note_on_c, 1, 69, 80
4, 82399, Note_on_c, 1, 69, 0
4, 82400, Note_on_c, 1, 67, 80
4, 83039, Note_on_c, 1, 67, 0
4, 83040, Note_on_c, 1, 69, 80
4, 83359, Note_on_c, 1, 69, 0
4, 83360, Note_on_c, 1, 69, 80
4, 83519, Note_on_c, 1, 69, 0
4, 83520, Note_on_c, 1, 71, 80
4, 83839, Note_on_c, 1, 71, 0
4, 83840, Note_on_c, 1, 69, 80
4, 83999, Note_on_c, 1, 69, 0
4, 84000, Note_on_c, 1, 67, 80
4, 84319, Note_on_c, 1, 67, 0
4, 84320, Note_on_c, 1, 64, 80
4, 84479, Note_on_c, 1, 64, 0
4, 84480, Note_on_c, 1, 67, 80
4, 84799, Note_on_c, 1, 67, 0
4, 84800, Note_on_c, 1, 64, 80
4, 84959, Note_on_c, 1, 64, 0
4, 84960, Note_on_c, 1, 67, 80
4, 85279, Note_on_c, 1, 67, 0
4, 85280, Note_on_c, 1, 69, 80
4, 85919, Note_on_c, 1, 69, 0
4, 86240, Note_on_c, 1, 64, 80
4, 86399, Note_on_c, 1, 64, 0
4, 86400, Note_on_c, 1, 67, 80
4, 86879, Note_on_c, 1, 67, 0
4, 86880, Note_on_c, 1, 67, 80
4, 87199, Note_on_c, 1, 67, 0
4, 87200, Note_on_c, 1, 69, 80
4, 87599, Note_on_c, 1, 69, 0
4, 87600, Note_on_c, 1, 69, 80
4, 88159, Note_on_c, 1, 69, 0
4, 88160, Note_on_c, 1, 69, 80
4, 88319, Note_on_c, 1, 69, 0
4, 88320, Note_on_c, 1, 71, 80
4, 88799, Note_on_c, 1, 71, 0
4, 88800, Note_on_c, 1, 69, 80
4, 89279, Note_on_c, 1, 69, 0
4, 89280, Note_on_c, 1, 65, 80
4, 89439, Note_on_c, 1, 65, 0
4, 89440, Note_on_c, 1, 67, 80
4, 89599, Note_on_c, 1, 67, 0
4, 89600, Note_on_c, 1, 65, 80
4, 89759, Note_on_c, 1, 65, 0
4, 89760, Note_on_c, 1, 62, 80
4, 90079, Note_on_c, 1, 62, 0
4, 90080, Note_on_c, 1, 65, 80
4, 90239, Note_on_c, 1, 65, 0
4, 92160, Note_on_c, 1, 69, 80
4, 92479, Note_on_c, 1, 69, 0
4, 92480, Note_on_c, 1, 69, 80
4, 92879, Note_on_c, 1, 69, 0
4, 92880, Note_on_c, 1, 71, 80
4, 93119, Note_on_c, 1, 71, 0
4, 93440, Note_on_c, 1, 71, 80
4, 93599, Note_on_c, 1, 71, 0
4, 93600, Note_on_c, 1, 71, 80
4, 94079, Note_on_c, 1, 71, 0
4, 94080, Note_on_c, 1, 69, 80
4, 94399, Note_on_c, 1, 69, 0
4, 94400, Note_on_c, 1, 69, 80
4, 94799, Note_on_c, 1, 69, 0
4, 94800, Note_on_c, 1, 71, 80
4, 95039, Note_on_c, 1, 71, 0
4, 95520, Note_on_c, 1, 69, 80
4, 95839, Note_on_c, 1, 69, 0
4, 95840, Note_on_c, 1, 69, 80
4, 95999, Note_on_c, 1, 69, 0
4, 96000, Note_on_c, 1, 67, 80
4, 96479, Note_on_c, 1, 67, 0
4, 96960, Note_on_c, 1, 67, 80
4, 97439, Note_on_c, 1, 67, 0
4, 97920, Note_on_c, 1, 69, 80
4, 98879, Note_on_c, 1, 69, 0
4, 98880, Note_on_c, 1, 71, 80
4, 99199, Note_on_c, 1, 71, 0
4, 99200, Note_on_c, 1, 67, 80
4, 99599, Note_on_c, 1, 67, 0
4, 99600, Note_on_c, 1, 74, 80
4, 100159, Note_on_c, 1, 74, 0
4, 100160, Note_on_c, 1, 72, 80
4, 100559, Note_on_c, 1, 72, 0
4, 101120, Note_on_c, 1, 72, 80
4, 101519, Note_on_c, 1, 72, 0
4, 102080, Note_on_c, 1, 72, 80
4, 102479, Note_on_c, 1, 72, 0
4, 103040, Note_on_c, 1, 72, 80
4, 103439, Note_on_c, 1, 72, 0
4, 104000, Note_on_c, 1, 72, 80
4, 104399, Note_on_c, 1, 72, 0
4, 104960, Note_on_c, 1, 72, 80
4, 105359, Note_on_c, 1, 72, 0
4, 105360, Note_on_c, 1, 72, 80
4, 106559, Note_on_c, 1, 72, 0
4, 106560, End_track
5, 0, Start_track
5, 0, Title_t, "Classical Guitar, Lute\000"
5, 0, Key_signature, 0, "major"
5, 0, Control_c, 14, 121, 0
5, 0, Program_c, 14, 24
5, 0, Control_c, 14, 7, 100
5, 0, Control_c, 14, 10, 64
5, 0, Control_c, 14, 91, 0
5, 0, Control_c, 14, 93, 0
5, 0, MIDI_port, 0
5, 0, Note_on_c, 14, 55, 80
5, 0, Control_c, 5, 121, 0
5, 0, Program_c, 5, 28
5, 0, Control_c, 5, 7, 100
5, 0, Control_c, 5, 10, 64
5, 0, Control_c, 5, 91, 0
5, 0, Control_c, 5, 93, 0
5, 0, MIDI_port, 0
5, 479, Note_on_c, 14, 55, 0
5, 480, Note_on_c, 14, 60, 80
5, 480, Note_on_c, 14, 64, 80
5, 959, Note_on_c, 14, 60, 0
5, 959, Note_on_c, 14, 64, 0
5, 960, Note_on_c, 14, 55, 80
5, 1439, Note_on_c, 14, 55, 0
5, 1440, Note_on_c, 14, 60, 80
5, 1440, Note_on_c, 14, 64, 80
5, 1919, Note_on_c, 14, 60, 0
5, 1919, Note_on_c, 14, 64, 0
5, 1920, Note_on_c, 14, 57, 80
5, 2399, Note_on_c, 14, 57, 0
5, 2400, Note_on_c, 14, 60, 80
5, 2400, Note_on_c, 14, 64, 80
5, 2879, Note_on_c, 14, 60, 0
5, 2879, Note_on_c, 14, 64, 0
5, 2880, Note_on_c, 14, 57, 80
5, 3359, Note_on_c, 14, 57, 0
5, 3360, Note_on_c, 14, 60, 80
5, 3360, Note_on_c, 14, 64, 80
5, 3839, Note_on_c, 14, 60, 0
5, 3839, Note_on_c, 14, 64, 0
5, 3840, Note_on_c, 14, 53, 80
5, 4319, Note_on_c, 14, 53, 0
5, 4320, Note_on_c, 14, 60, 80
5, 4320, Note_on_c, 14, 65, 80
5, 4799, Note_on_c, 14, 60, 0
5, 4799, Note_on_c, 14, 65, 0
5, 4800, Note_on_c, 14, 53, 80
5, 5279, Note_on_c, 14, 53, 0
5, 5280, Note_on_c, 14, 60, 80
5, 5280, Note_on_c, 14, 65, 80
5, 5759, Note_on_c, 14, 60, 0
5, 5759, Note_on_c, 14, 65, 0
5, 5760, Note_on_c, 14, 55, 80
5, 5760, Note_on_c, 14, 59, 80
5, 6239, Note_on_c, 14, 55, 0
5, 6239, Note_on_c, 14, 59, 0
5, 6240, Note_on_c, 14, 53, 80
5, 6240, Note_on_c, 14, 57, 80
5, 6719, Note_on_c, 14, 53, 0
5, 6719, Note_on_c, 14, 57, 0
5, 6720, Note_on_c, 14, 52, 80
5, 6720, Note_on_c, 14, 55, 80
5, 7199, Note_on_c, 14, 52, 0
5, 7199, Note_on_c, 14, 55, 0
5, 7200, Note_on_c, 14, 50, 80
5, 7200, Note_on_c, 14, 53, 80
5, 7679, Note_on_c, 14, 50, 0
5, 7679, Note_on_c, 14, 53, 0
5, 7680, Note_on_c, 14, 55, 80
5, 8159, Note_on_c, 14, 55, 0
5, 8160, Note_on_c, 14, 60, 80
5, 8160, Note_on_c, 14, 64, 80
5, 8639, Note_on_c, 14, 60, 0
5, 8639, Note_on_c, 14, 64, 0
5, 8640, Note_on_c, 14, 55, 80
5, 9119, Note_on_c, 14, 55, 0
5, 9120, Note_on_c, 14, 60, 80
5, 9120, Note_on_c, 14, 64, 80
5, 9599, Note_on_c, 14, 60, 0
5, 9599, Note_on_c, 14, 64, 0
5, 9600, Note_on_c, 14, 55, 80
5, 10079, Note_on_c, 14, 55, 0
5, 10080, Note_on_c, 14, 60, 80
5, 10080, Note_on_c, 14, 64, 80
5, 10559, Note_on_c, 14, 60, 0
5, 10559, Note_on_c, 14, 64, 0
5, 10560, Note_on_c, 14, 55, 80
5, 11039, Note_on_c, 14, 55, 0
5, 11040, Note_on_c, 14, 60, 80
5, 11040, Note_on_c, 14, 64, 80
5, 11519, Note_on_c, 14, 60, 0
5, 11519, Note_on_c, 14, 64, 0
5, 11520, Note_on_c, 14, 50, 80
5, 11999, Note_on_c, 14, 50, 0
5, 12000, Note_on_c, 14, 62, 80
5, 12000, Note_on_c, 14, 65, 80
5, 12479, Note_on_c, 14, 62, 0
5, 12479, Note_on_c, 14, 65, 0
5, 12480, Note_on_c, 14, 55, 80
5, 12959, Note_on_c, 14, 55, 0
5, 12960, Note_on_c, 14, 62, 80
5, 12960, Note_on_c, 14, 65, 80
5, 13439, Note_on_c, 14, 62, 0
5, 13439, Note_on_c, 14, 65, 0
5, 13440, Note_on_c, 14, 59, 80
5, 13919, Note_on_c, 14, 59, 0
5, 13920, Note_on_c, 14, 62, 80
5, 13920, Note_on_c, 14, 65, 80
5, 14399, Note_on_c, 14, 62, 0
5, 14399, Note_on_c, 14, 65, 0
5, 14400, Note_on_c, 14, 55, 80
5, 14879, Note_on_c, 14, 55, 0
5, 14880, Note_on_c, 14, 62, 80
5, 14880, Note_on_c, 14, 65, 80
5, 15359, Note_on_c, 14, 62, 0
5, 15359, Note_on_c, 14, 65, 0
5, 15360, Note_on_c, 14, 50, 80
5, 15839, Note_on_c, 14, 50, 0
5, 15840, Note_on_c, 14, 62, 80
5, 15840, Note_on_c, 14, 65, 80
5, 16319, Note_on_c, 14, 62, 0
5, 16319, Note_on_c, 14, 65, 0
5, 16320, Note_on_c, 14, 55, 80
5, 16799, Note_on_c, 14, 55, 0
5, 16800, Note_on_c, 14, 62, 80
5, 16800, Note_on_c, 14, 65, 80
5, 17279, Note_on_c, 14, 62, 0
5, 17279, Note_on_c, 14, 65, 0
5, 17280, Note_on_c, 14, 50, 80
5, 17759, Note_on_c, 14, 50, 0
5, 17760, Note_on_c, 14, 62, 80
5, 17760, Note_on_c, 14, 65, 80
5, 18239, Note_on_c, 14, 62, 0
5, 18239, Note_on_c, 14, 65, 0
5, 18240, Note_on_c, 14, 55, 80
5, 18719, Note_on_c, 14, 55, 0
5, 18720, Note_on_c, 14, 62, 80
5, 18720, Note_on_c, 14, 65, 80
5, 19199, Note_on_c, 14, 62, 0
5, 19199, Note_on_c, 14, 65, 0
5, 19200, Note_on_c, 14, 55, 80
5, 19679, Note_on_c, 14, 55, 0
5, 19680, Note_on_c, 14, 60, 80
5, 19680, Note_on_c, 14, 64, 80
5, 20159, Note_on_c, 14, 60, 0
5, 20159, Note_on_c, 14, 64, 0
5, 20160, Note_on_c, 14, 55, 80
5, 20639, Note_on_c, 14, 55, 0
5, 20640, Note_on_c, 14, 62, 80
5, 20640, Note_on_c, 14, 65, 80
5, 21119, Note_on_c, 14, 62, 0
5, 21119, Note_on_c, 14, 65, 0
5, 21120, Note_on_c, 14, 60, 80
5, 21599, Note_on_c, 14, 60, 0
5, 21600, Note_on_c, 14, 55, 80
5, 22079, Note_on_c, 14, 55, 0
5, 22080, Note_on_c, 14, 57, 80
5, 22559, Note_on_c, 14, 57, 0
5, 22560, Note_on_c, 14, 59, 80
5, 23039, Note_on_c, 14, 59, 0
5, 23040, Note_on_c, 14, 55, 80
5, 23519, Note_on_c, 14, 55, 0
5, 23520, Note_on_c, 14, 60, 80
5, 23520, Note_on_c, 14, 64, 80
5, 23759, Note_on_c, 14, 60, 0
5, 23759, Note_on_c, 14, 64, 0
5, 24000, Note_on_c, 14, 55, 80
5, 24319, Note_on_c, 14, 55, 0
5, 24320, Note_on_c, 14, 55, 80
5, 24479, Note_on_c, 14, 55, 0
5, 24480, Note_on_c, 14, 60, 80
5, 24480, Note_on_c, 14, 64, 80
5, 24959, Note_on_c, 14, 60, 0
5, 24959, Note_on_c, 14, 64, 0
5, 24960, Note_on_c, 14, 55, 80
5, 25439, Note_on_c, 14, 55, 0
5, 25440, Note_on_c, 14, 60, 80
5, 25440, Note_on_c, 14, 64, 80
5, 25679, Note_on_c, 14, 60, 0
5, 25679, Note_on_c, 14, 64, 0
5, 25920, Note_on_c, 14, 55, 80
5, 26239, Note_on_c, 14, 55, 0
5, 26240, Note_on_c, 14, 55, 80
5, 26399, Note_on_c, 14, 55, 0
5, 26400, Note_on_c, 14, 60, 80
5, 26400, Note_on_c, 14, 64, 80
5, 26879, Note_on_c, 14, 60, 0
5, 26879, Note_on_c, 14, 64, 0
5, 26880, Note_on_c, 14, 50, 80
5, 27359, Note_on_c, 14, 50, 0
5, 27360, Note_on_c, 14, 62, 80
5, 27360, Note_on_c, 14, 65, 80
5, 27599, Note_on_c, 14, 62, 0
5, 27599, Note_on_c, 14, 65, 0
5, 27840, Note_on_c, 14, 55, 80
5, 28159, Note_on_c, 14, 55, 0
5, 28160, Note_on_c, 14, 55, 80
5, 28319, Note_on_c, 14, 55, 0
5, 28320, Note_on_c, 14, 62, 80
5, 28320, Note_on_c, 14, 65, 80
5, 28799, Note_on_c, 14, 62, 0
5, 28799, Note_on_c, 14, 65, 0
5, 28800, Note_on_c, 14, 59, 80
5, 29279, Note_on_c, 14, 59, 0
5, 29280, Note_on_c, 14, 62, 80
5, 29280, Note_on_c, 14, 65, 80
5, 29519, Note_on_c, 14, 62, 0
5, 29519, Note_on_c, 14, 65, 0
5, 29760, Note_on_c, 14, 55, 80
5, 30079, Note_on_c, 14, 55, 0
5, 30080, Note_on_c, 14, 55, 80
5, 30239, Note_on_c, 14, 55, 0
5, 30240, Note_on_c, 14, 62, 80
5, 30240, Note_on_c, 14, 65, 80
5, 30719, Note_on_c, 14, 62, 0
5, 30719, Note_on_c, 14, 65, 0
5, 30720, Note_on_c, 14, 50, 80
5, 31199, Note_on_c, 14, 50, 0
5, 31200, Note_on_c, 14, 62, 80
5, 31200, Note_on_c, 14, 65, 80
5, 31439, Note_on_c, 14, 62, 0
5, 31439, Note_on_c, 14, 65, 0
5, 31680, Note_on_c, 14, 55, 80
5, 31999, Note_on_c, 14, 55, 0
5, 32000, Note_on_c, 14, 55, 80
5, 32159, Note_on_c, 14, 55, 0
5, 32160, Note_on_c, 14, 62, 80
5, 32160, Note_on_c, 14, 65, 80
5, 32639, Note_on_c, 14, 62, 0
5, 32639, Note_on_c, 14, 65, 0
5, 32640, Note_on_c, 14, 50, 80
5, 33119, Note_on_c, 14, 50, 0
5, 33120, Note_on_c, 14, 62, 80
5, 33120, Note_on_c, 14, 65, 80
5, 33359, Note_on_c, 14, 62, 0
5, 33359, Note_on_c, 14, 65, 0
5, 33600, Note_on_c, 14, 55, 80
5, 33919, Note_on_c, 14, 55, 0
5, 33920, Note_on_c, 14, 55, 80
5, 34079, Note_on_c, 14, 55, 0
5, 34080, Note_on_c, 14, 62, 80
5, 34080, Note_on_c, 14, 65, 80
5, 34559, Note_on_c, 14, 62, 0
5, 34559, Note_on_c, 14, 65, 0
5, 34560, Note_on_c, 14, 50, 80
5, 35039, Note_on_c, 14, 50, 0
5, 35040, Note_on_c, 14, 62, 80
5, 35040, Note_on_c, 14, 65, 80
5, 35279, Note_on_c, 14, 62, 0
5, 35279, Note_on_c, 14, 65, 0
5, 35520, Note_on_c, 14, 55, 80
5, 35839, Note_on_c, 14, 55, 0
5, 35840, Note_on_c, 14, 55, 80
5, 35999, Note_on_c, 14, 55, 0
5, 36000, Note_on_c, 14, 62, 80
5, 36000, Note_on_c, 14, 65, 80
5, 36479, Note_on_c, 14, 62, 0
5, 36479, Note_on_c, 14, 65, 0
5, 36960, Note_on_c, 14, 53, 80
5, 37439, Note_on_c, 14, 53, 0
5, 37440, Note_on_c, 14, 52, 80
5, 37919, Note_on_c, 14, 52, 0
5, 37920, Note_on_c, 14, 50, 80
5, 38399, Note_on_c, 14, 50, 0
5, 38400, Note_on_c, 14, 53, 80
5, 38879, Note_on_c, 14, 53, 0
5, 38880, Note_on_c, 14, 60, 80
5, 38880, Note_on_c, 14, 65, 80
5, 39039, Note_on_c, 14, 60, 0
5, 39039, Note_on_c, 14, 65, 0
5, 39200, Note_on_c, 14, 60, 80
5, 39200, Note_on_c, 14, 65, 80
5, 39359, Note_on_c, 14, 60, 0
5, 39359, Note_on_c, 14, 65, 0
5, 39360, Note_on_c, 14, 60, 80
5, 39839, Note_on_c, 14, 60, 0
5, 39840, Note_on_c, 14, 60, 80
5, 39840, Note_on_c, 14, 65, 80
5, 40319, Note_on_c, 14, 60, 0
5, 40319, Note_on_c, 14, 65, 0
5, 40320, Note_on_c, 14, 48, 80
5, 40799, Note_on_c, 14, 48, 0
5, 40800, Note_on_c, 14, 60, 80
5, 40800, Note_on_c, 14, 65, 80
5, 40959, Note_on_c, 14, 60, 0
5, 40959, Note_on_c, 14, 65, 0
5, 41120, Note_on_c, 14, 60, 80
5, 41120, Note_on_c, 14, 65, 80
5, 41279, Note_on_c, 14, 60, 0
5, 41279, Note_on_c, 14, 65, 0
5, 41280, Note_on_c, 14, 53, 80
5, 41759, Note_on_c, 14, 53, 0
5, 41760, Note_on_c, 14, 60, 80
5, 41760, Note_on_c, 14, 65, 80
5, 42239, Note_on_c, 14, 60, 0
5, 42239, Note_on_c, 14, 65, 0
5, 42240, Note_on_c, 14, 52, 80
5, 42719, Note_on_c, 14, 52, 0
5, 42720, Note_on_c, 14, 64, 80
5, 42720, Note_on_c, 14, 67, 80
5, 42879, Note_on_c, 14, 64, 0
5, 42879, Note_on_c, 14, 67, 0
5, 43040, Note_on_c, 14, 64, 80
5, 43040, Note_on_c, 14, 67, 80
5, 43199, Note_on_c, 14, 64, 0
5, 43199, Note_on_c, 14, 67, 0
5, 43200, Note_on_c, 14, 52, 80
5, 43679, Note_on_c, 14, 52, 0
5, 43680, Note_on_c, 14, 64, 80
5, 43680, Note_on_c, 14, 67, 80
5, 44159, Note_on_c, 14, 64, 0
5, 44159, Note_on_c, 14, 67, 0
5, 44160, Note_on_c, 14, 52, 80
5, 44639, Note_on_c, 14, 52, 0
5, 44640, Note_on_c, 14, 64, 80
5, 44640, Note_on_c, 14, 67, 80
5, 44799, Note_on_c, 14, 64, 0
5, 44799, Note_on_c, 14, 67, 0
5, 44960, Note_on_c, 14, 64, 80
5, 44960, Note_on_c, 14, 67, 80
5, 45119, Note_on_c, 14, 64, 0
5, 45119, Note_on_c, 14, 67, 0
5, 45120, Note_on_c, 14, 52, 80
5, 45599, Note_on_c, 14, 52, 0
5, 45600, Note_on_c, 14, 64, 80
5, 45600, Note_on_c, 14, 67, 80
5, 46079, Note_on_c, 14, 64, 0
5, 46079, Note_on_c, 14, 67, 0
5, 46080, Note_on_c, 14, 57, 80
5, 46559, Note_on_c, 14, 57, 0
5, 46560, Note_on_c, 14, 60, 80
5, 46560, Note_on_c, 14, 64, 80
5, 46719, Note_on_c, 14, 60, 0
5, 46719, Note_on_c, 14, 64, 0
5, 46880, Note_on_c, 14, 60, 80
5, 46880, Note_on_c, 14, 64, 80
5, 47039, Note_on_c, 14, 60, 0
5, 47039, Note_on_c, 14, 64, 0
5, 47040, Note_on_c, 14, 50, 80
5, 47519, Note_on_c, 14, 50, 0
5, 47520, Note_on_c, 14, 60, 80
5, 47520, Note_on_c, 14, 64, 80
5, 47999, Note_on_c, 14, 60, 0
5, 47999, Note_on_c, 14, 64, 0
5, 48000, Note_on_c, 14, 57, 80
5, 48479, Note_on_c, 14, 57, 0
5, 48480, Note_on_c, 14, 62, 80
5, 48480, Note_on_c, 14, 65, 80
5, 48639, Note_on_c, 14, 62, 0
5, 48639, Note_on_c, 14, 65, 0
5, 48800, Note_on_c, 14, 62, 80
5, 48800, Note_on_c, 14, 65, 80
5, 48959, Note_on_c, 14, 62, 0
5, 48959, Note_on_c, 14, 65, 0
5, 48960, Note_on_c, 14, 50, 80
5, 49439, Note_on_c, 14, 50, 0
5, 49440, Note_on_c, 14, 60, 80
5, 49440, Note_on_c, 14, 65, 80
5, 49919, Note_on_c, 14, 60, 0
5, 49919, Note_on_c, 14, 65, 0
5, 49920, Note_on_c, 14, 59, 80
5, 49920, Note_on_c, 14, 62, 80
5, 50399, Note_on_c, 14, 59, 0
5, 50399, Note_on_c, 14, 62, 0
5, 51840, Note_on_c, 14, 55, 80
5, 52319, Note_on_c, 14, 55, 0
5, 52320, Note_on_c, 14, 53, 80
5, 52799, Note_on_c, 14, 53, 0
5, 52800, Note_on_c, 14, 52, 80
5, 53279, Note_on_c, 14, 52, 0
5, 53280, Note_on_c, 14, 50, 80
5, 53759, Note_on_c, 14, 50, 0
5, 53760, Note_on_c, 14, 55, 80
5, 54239, Note_on_c, 14, 55, 0
5, 54240, Note_on_c, 14, 60, 80
5, 54240, Note_on_c, 14, 64, 80
5, 54399, Note_on_c, 14, 60, 0
5, 54399, Note_on_c, 14, 64, 0
5, 54560, Note_on_c, 14, 60, 80
5, 54560, Note_on_c, 14, 64, 80
5, 54719, Note_on_c, 14, 60, 0
5, 54719, Note_on_c, 14, 64, 0
5, 54720, Note_on_c, 14, 55, 80
5, 55039, Note_on_c, 14, 55, 0
5, 55040, Note_on_c, 14, 55, 80
5, 55199, Note_on_c, 14, 55, 0
5, 55200, Note_on_c, 14, 60, 80
5, 55200, Note_on_c, 14, 64, 80
5, 55519, Note_on_c, 14, 60, 0
5, 55519, Note_on_c, 14, 64, 0
5, 55520, Note_on_c, 14, 55, 80
5, 55679, Note_on_c, 14, 55, 0
5, 55680, Note_on_c, 14, 55, 80
5, 56159, Note_on_c, 14, 55, 0
5, 56160, Note_on_c, 14, 60, 80
5, 56160, Note_on_c, 14, 64, 80
5, 56319, Note_on_c, 14, 60, 0
5, 56319, Note_on_c, 14, 64, 0
5, 56480, Note_on_c, 14, 60, 80
5, 56480, Note_on_c, 14, 64, 80
5, 56639, Note_on_c, 14, 60, 0
5, 56639, Note_on_c, 14, 64, 0
5, 56640, Note_on_c, 14, 55, 80
5, 56959, Note_on_c, 14, 55, 0
5, 56960, Note_on_c, 14, 55, 80
5, 57119, Note_on_c, 14, 55, 0
5, 57120, Note_on_c, 14, 60, 80
5, 57120, Note_on_c, 14, 64, 80
5, 57439, Note_on_c, 14, 60, 0
5, 57439, Note_on_c, 14, 64, 0
5, 57440, Note_on_c, 14, 55, 80
5, 57599, Note_on_c, 14, 55, 0
5, 57600, Note_on_c, 14, 50, 80
5, 58079, Note_on_c, 14, 50, 0
5, 58080, Note_on_c, 14, 62, 80
5, 58080, Note_on_c, 14, 65, 80
5, 58239, Note_on_c, 14, 62, 0
5, 58239, Note_on_c, 14, 65, 0
5, 58400, Note_on_c, 14, 62, 80
5, 58400, Note_on_c, 14, 65, 80
5, 58559, Note_on_c, 14, 62, 0
5, 58559, Note_on_c, 14, 65, 0
5, 58560, Note_on_c, 14, 55, 80
5, 58879, Note_on_c, 14, 55, 0
5, 58880, Note_on_c, 14, 55, 80
5, 59039, Note_on_c, 14, 55, 0
5, 59040, Note_on_c, 14, 62, 80
5, 59040, Note_on_c, 14, 65, 80
5, 59359, Note_on_c, 14, 62, 0
5, 59359, Note_on_c, 14, 65, 0
5, 59360, Note_on_c, 14, 55, 80
5, 59519, Note_on_c, 14, 55, 0
5, 59520, Note_on_c, 14, 59, 80
5, 59999, Note_on_c, 14, 59, 0
5, 60000, Note_on_c, 14, 62, 80
5, 60000, Note_on_c, 14, 65, 80
5, 60159, Note_on_c, 14, 62, 0
5, 60159, Note_on_c, 14, 65, 0
5, 60320, Note_on_c, 14, 62, 80
5, 60320, Note_on_c, 14, 65, 80
5, 60479, Note_on_c, 14, 62, 0
5, 60479, Note_on_c, 14, 65, 0
5, 60480, Note_on_c, 14, 55, 80
5, 60799, Note_on_c, 14, 55, 0
5, 60800, Note_on_c, 14, 55, 80
5, 60959, Note_on_c, 14, 55, 0
5, 60960, Note_on_c, 14, 62, 80
5, 60960, Note_on_c, 14, 65, 80
5, 61279, Note_on_c, 14, 62, 0
5, 61279, Note_on_c, 14, 65, 0
5, 61280, Note_on_c, 14, 55, 80
5, 61439, Note_on_c, 14, 55, 0
5, 61440, Note_on_c, 14, 50, 80
5, 61919, Note_on_c, 14, 50, 0
5, 61920, Note_on_c, 14, 62, 80
5, 61920, Note_on_c, 14, 65, 80
5, 62079, Note_on_c, 14, 62, 0
5, 62079, Note_on_c, 14, 65, 0
5, 62240, Note_on_c, 14, 62, 80
5, 62240, Note_on_c, 14, 65, 80
5, 62399, Note_on_c, 14, 62, 0
5, 62399, Note_on_c, 14, 65, 0
5, 62400, Note_on_c, 14, 55, 80
5, 62719, Note_on_c, 14, 55, 0
5, 62720, Note_on_c, 14, 55, 80
5, 62879, Note_on_c, 14, 55, 0
5, 62880, Note_on_c, 14, 62, 80
5, 62880, Note_on_c, 14, 65, 80
5, 63199, Note_on_c, 14, 62, 0
5, 63199, Note_on_c, 14, 65, 0
5, 63200, Note_on_c, 14, 55, 80
5, 63359, Note_on_c, 14, 55, 0
5, 63360, Note_on_c, 14, 50, 80
5, 63839, Note_on_c, 14, 50, 0
5, 63840, Note_on_c, 14, 62, 80
5, 63840, Note_on_c, 14, 65, 80
5, 63999, Note_on_c, 14, 62, 0
5, 63999, Note_on_c, 14, 65, 0
5, 64160, Note_on_c, 14, 62, 80
5, 64160, Note_on_c, 14, 65, 80
5, 64319, Note_on_c, 14, 62, 0
5, 64319, Note_on_c, 14, 65, 0
5, 64320, Note_on_c, 14, 55, 80
5, 64639, Note_on_c, 14, 55, 0
5, 64640, Note_on_c, 14, 55, 80
5, 64799, Note_on_c, 14, 55, 0
5, 64800, Note_on_c, 14, 62, 80
5, 64800, Note_on_c, 14, 65, 80
5, 65119, Note_on_c, 14, 62, 0
5, 65119, Note_on_c, 14, 65, 0
5, 65120, Note_on_c, 14, 55, 80
5, 65279, Note_on_c, 14, 55, 0
5, 65280, Note_on_c, 14, 50, 80
5, 65759, Note_on_c, 14, 50, 0
5, 65760, Note_on_c, 14, 62, 80
5, 65760, Note_on_c, 14, 65, 80
5, 65919, Note_on_c, 14, 62, 0
5, 65919, Note_on_c, 14, 65, 0
5, 66080, Note_on_c, 14, 62, 80
5, 66080, Note_on_c, 14, 65, 80
5, 66239, Note_on_c, 14, 62, 0
5, 66239, Note_on_c, 14, 65, 0
5, 66240, Note_on_c, 14, 55, 80
5, 66559, Note_on_c, 14, 55, 0
5, 66560, Note_on_c, 14, 55, 80
5, 66719, Note_on_c, 14, 55, 0
5, 66720, Note_on_c, 14, 62, 80
5, 66720, Note_on_c, 14, 65, 80
5, 67039, Note_on_c, 14, 62, 0
5, 67039, Note_on_c, 14, 65, 0
5, 67040, Note_on_c, 14, 55, 80
5, 67199, Note_on_c, 14, 55, 0
5, 67200, Note_on_c, 14, 60, 80
5, 67679, Note_on_c, 14, 60, 0
5, 67680, Note_on_c, 14, 55, 80
5, 68159, Note_on_c, 14, 55, 0
5, 68160, Note_on_c, 14, 57, 80
5, 68639, Note_on_c, 14, 57, 0
5, 68640, Note_on_c, 14, 59, 80
5, 69119, Note_on_c, 14, 59, 0
5, 69120, Note_on_c, 14, 53, 80
5, 69599, Note_on_c, 14, 53, 0
5, 69600, Note_on_c, 14, 60, 80
5, 69600, Note_on_c, 14, 65, 80
5, 69759, Note_on_c, 14, 60, 0
5, 69759, Note_on_c, 14, 65, 0
5, 69920, Note_on_c, 14, 60, 80
5, 69920, Note_on_c, 14, 65, 80
5, 70079, Note_on_c, 14, 60, 0
5, 70079, Note_on_c, 14, 65, 0
5, 70080, Note_on_c, 14, 48, 80
5, 70399, Note_on_c, 14, 48, 0
5, 70400, Note_on_c, 14, 48, 80
5, 70559, Note_on_c, 14, 48, 0
5, 70560, Note_on_c, 14, 60, 80
5, 70560, Note_on_c, 14, 65, 80
5, 70879, Note_on_c, 14, 60, 0
5, 70879, Note_on_c, 14, 65, 0
5, 70880, Note_on_c, 14, 48, 80
5, 71039, Note_on_c, 14, 48, 0
5, 71040, Note_on_c, 14, 48, 80
5, 71519, Note_on_c, 14, 48, 0
5, 71520, Note_on_c, 14, 60, 80
5, 71520, Note_on_c, 14, 65, 80
5, 71679, Note_on_c, 14, 60, 0
5, 71679, Note_on_c, 14, 65, 0
5, 71840, Note_on_c, 14, 60, 80
5, 71840, Note_on_c, 14, 65, 80
5, 71999, Note_on_c, 14, 60, 0
5, 71999, Note_on_c, 14, 65, 0
5, 72000, Note_on_c, 14, 53, 80
5, 72319, Note_on_c, 14, 53, 0
5, 72320, Note_on_c, 14, 53, 80
5, 72479, Note_on_c, 14, 53, 0
5, 72480, Note_on_c, 14, 60, 80
5, 72480, Note_on_c, 14, 65, 80
5, 72799, Note_on_c, 14, 60, 0
5, 72799, Note_on_c, 14, 65, 0
5, 72800, Note_on_c, 14, 53, 80
5, 72959, Note_on_c, 14, 53, 0
5, 72960, Note_on_c, 14, 52, 80
5, 73439, Note_on_c, 14, 52, 0
5, 73440, Note_on_c, 14, 64, 80
5, 73440, Note_on_c, 14, 67, 80
5, 73599, Note_on_c, 14, 64, 0
5, 73599, Note_on_c, 14, 67, 0
5, 73760, Note_on_c, 14, 64, 80
5, 73760, Note_on_c, 14, 67, 80
5, 73919, Note_on_c, 14, 64, 0
5, 73919, Note_on_c, 14, 67, 0
5, 73920, Note_on_c, 14, 52, 80
5, 74239, Note_on_c, 14, 52, 0
5, 74240, Note_on_c, 14, 52, 80
5, 74399, Note_on_c, 14, 52, 0
5, 74400, Note_on_c, 14, 64, 80
5, 74400, Note_on_c, 14, 67, 80
5, 74719, Note_on_c, 14, 64, 0
5, 74719, Note_on_c, 14, 67, 0
5, 74720, Note_on_c, 14, 52, 80
5, 74879, Note_on_c, 14, 52, 0
5, 74880, Note_on_c, 14, 52, 80
5, 75359, Note_on_c, 14, 52, 0
5, 75360, Note_on_c, 14, 64, 80
5, 75360, Note_on_c, 14, 67, 80
5, 75519, Note_on_c, 14, 64, 0
5, 75519, Note_on_c, 14, 67, 0
5, 75680, Note_on_c, 14, 64, 80
5, 75680, Note_on_c, 14, 67, 80
5, 75839, Note_on_c, 14, 64, 0
5, 75839, Note_on_c, 14, 67, 0
5, 75840, Note_on_c, 14, 52, 80
5, 76159, Note_on_c, 14, 52, 0
5, 76160, Note_on_c, 14, 52, 80
5, 76319, Note_on_c, 14, 52, 0
5, 76320, Note_on_c, 14, 64, 80
5, 76320, Note_on_c, 14, 67, 80
5, 76479, Note_on_c, 14, 64, 0
5, 76479, Note_on_c, 14, 67, 0
5, 76640, Note_on_c, 14, 52, 80
5, 76799, Note_on_c, 14, 52, 0
5, 76800, Note_on_c, 14, 57, 80
5, 77279, Note_on_c, 14, 57, 0
5, 77280, Note_on_c, 14, 60, 80
5, 77280, Note_on_c, 14, 64, 80
5, 77439, Note_on_c, 14, 60, 0
5, 77439, Note_on_c, 14, 64, 0
5, 77600, Note_on_c, 14, 60, 80
5, 77600, Note_on_c, 14, 64, 80
5, 77759, Note_on_c, 14, 60, 0
5, 77759, Note_on_c, 14, 64, 0
5, 77760, Note_on_c, 14, 50, 80
5, 78239, Note_on_c, 14, 50, 0
5, 78240, Note_on_c, 14, 60, 80
5, 78240, Note_on_c, 14, 64, 80
5, 78719, Note_on_c, 14, 60, 0
5, 78719, Note_on_c, 14, 64, 0
5, 78720, Note_on_c, 14, 57, 80
5, 79199, Note_on_c, 14, 57, 0
5, 79200, Note_on_c, 14, 62, 80
5, 79200, Note_on_c, 14, 65, 80
5, 79359, Note_on_c, 14, 62, 0
5, 79359, Note_on_c, 14, 65, 0
5, 79520, Note_on_c, 14, 62, 80
5, 79520, Note_on_c, 14, 65, 80
5, 79679, Note_on_c, 14, 62, 0
5, 79679, Note_on_c, 14, 65, 0
5, 79680, Note_on_c, 14, 50, 80
5, 80159, Note_on_c, 14, 50, 0
5, 80160, Note_on_c, 14, 60, 80
5, 80160, Note_on_c, 14, 65, 80
5, 80639, Note_on_c, 14, 60, 0
5, 80639, Note_on_c, 14, 65, 0
5, 80640, Note_on_c, 14, 59, 80
5, 80640, Note_on_c, 14, 62, 80
5, 81119, Note_on_c, 14, 59, 0
5, 81119, Note_on_c, 14, 62, 0
5, 81120, Note_on_c, 14, 59, 80
5, 81120, Note_on_c, 14, 55, 80
5, 81439, Note_on_c, 14, 55, 0
5, 81440, Note_on_c, 14, 55, 80
5, 81599, Note_on_c, 14, 59, 0
5, 81599, Note_on_c, 14, 55, 0
5, 81600, Note_on_c, 14, 59, 80
5, 82079, Note_on_c, 14, 59, 0
5, 82080, Note_on_c, 14, 57, 80
5, 82399, Note_on_c, 14, 57, 0
5, 82400, Note_on_c, 14, 55, 80
5, 82559, Note_on_c, 14, 55, 0
5, 82560, Note_on_c, 14, 55, 80
5, 82719, Note_on_c, 14, 55, 0
5, 82720, Note_on_c, 14, 59, 80
5, 82879, Note_on_c, 14, 59, 0
5, 82880, Note_on_c, 14, 55, 80
5, 83039, Note_on_c, 14, 55, 0
5, 83040, Note_on_c, 14, 53, 80
5, 83199, Note_on_c, 14, 53, 0
5, 83200, Note_on_c, 14, 57, 80
5, 83359, Note_on_c, 14, 57, 0
5, 83360, Note_on_c, 14, 53, 80
5, 83519, Note_on_c, 14, 53, 0
5, 83520, Note_on_c, 14, 52, 80
5, 83679, Note_on_c, 14, 52, 0
5, 83680, Note_on_c, 14, 55, 80
5, 83839, Note_on_c, 14, 55, 0
5, 83840, Note_on_c, 14, 52, 80
5, 83999, Note_on_c, 14, 52, 0
5, 84000, Note_on_c, 14, 50, 80
5, 84159, Note_on_c, 14, 50, 0
5, 84160, Note_on_c, 14, 53, 80
5, 84319, Note_on_c, 14, 53, 0
5, 84320, Note_on_c, 14, 50, 80
5, 84479, Note_on_c, 14, 50, 0
5, 84480, Note_on_c, 14, 48, 80
5, 84639, Note_on_c, 14, 48, 0
5, 84800, Note_on_c, 14, 48, 80
5, 84959, Note_on_c, 14, 48, 0
5, 84960, Note_on_c, 14, 60, 80
5, 84960, Note_on_c, 14, 64, 80
5, 85119, Note_on_c, 14, 60, 0
5, 85119, Note_on_c, 14, 64, 0
5, 85280, Note_on_c, 14, 60, 80
5, 85280, Note_on_c, 14, 64, 80
5, 85439, Note_on_c, 14, 60, 0
5, 85439, Note_on_c, 14, 64, 0
5, 85440, Note_on_c, 14, 55, 80
5, 85759, Note_on_c, 14, 55, 0
5, 85760, Note_on_c, 14, 55, 80
5, 85919, Note_on_c, 14, 55, 0
5, 85920, Note_on_c, 14, 60, 80
5, 85920, Note_on_c, 14, 64, 80
5, 86079, Note_on_c, 14, 60, 0
5, 86079, Note_on_c, 14, 64, 0
5, 86240, Note_on_c, 14, 60, 80
5, 86240, Note_on_c, 14, 64, 80
5, 86399, Note_on_c, 14, 60, 0
5, 86399, Note_on_c, 14, 64, 0
5, 86400, Note_on_c, 14, 48, 80
5, 86559, Note_on_c, 14, 48, 0
5, 86720, Note_on_c, 14, 48, 80
5, 86879, Note_on_c, 14, 48, 0
5, 86880, Note_on_c, 14, 60, 80
5, 86880, Note_on_c, 14, 64, 80
5, 87039, Note_on_c, 14, 60, 0
5, 87039, Note_on_c, 14, 64, 0
5, 87200, Note_on_c, 14, 60, 80
5, 87200, Note_on_c, 14, 64, 80
5, 87359, Note_on_c, 14, 60, 0
5, 87359, Note_on_c, 14, 64, 0
5, 87360, Note_on_c, 14, 55, 80
5, 87679, Note_on_c, 14, 55, 0
5, 87680, Note_on_c, 14, 55, 80
5, 87839, Note_on_c, 14, 55, 0
5, 87840, Note_on_c, 14, 60, 80
5, 87840, Note_on_c, 14, 64, 80
5, 87999, Note_on_c, 14, 60, 0
5, 87999, Note_on_c, 14, 64, 0
5, 88160, Note_on_c, 14, 60, 80
5, 88160, Note_on_c, 14, 64, 80
5, 88319, Note_on_c, 14, 60, 0
5, 88319, Note_on_c, 14, 64, 0
5, 88320, Note_on_c, 14, 50, 80
5, 88479, Note_on_c, 14, 50, 0
5, 88640, Note_on_c, 14, 50, 80
5, 88799, Note_on_c, 14, 50, 0
5, 88800, Note_on_c, 14, 62, 80
5, 88800, Note_on_c, 14, 65, 80
5, 88959, Note_on_c, 14, 62, 0
5, 88959, Note_on_c, 14, 65, 0
5, 89120, Note_on_c, 14, 62, 80
5, 89120, Note_on_c, 14, 65, 80
5, 89279, Note_on_c, 14, 62, 0
5, 89279, Note_on_c, 14, 65, 0
5, 89280, Note_on_c, 14, 55, 80
5, 89599, Note_on_c, 14, 55, 0
5, 89600, Note_on_c, 14, 55, 80
5, 89759, Note_on_c, 14, 55, 0
5, 89760, Note_on_c, 14, 62, 80
5, 89760, Note_on_c, 14, 65, 80
5, 89919, Note_on_c, 14, 62, 0
5, 89919, Note_on_c, 14, 65, 0
5, 90080, Note_on_c, 14, 62, 80
5, 90080, Note_on_c, 14, 65, 80
5, 90239, Note_on_c, 14, 62, 0
5, 90239, Note_on_c, 14, 65, 0
5, 90240, Note_on_c, 14, 59, 80
5, 90399, Note_on_c, 14, 59, 0
5, 90560, Note_on_c, 14, 59, 80
5, 90719, Note_on_c, 14, 59, 0
5, 90720, Note_on_c, 14, 62, 80
5, 90720, Note_on_c, 14, 65, 80
5, 90879, Note_on_c, 14, 62, 0
5, 90879, Note_on_c, 14, 65, 0
5, 91040, Note_on_c, 14, 62, 80
5, 91040, Note_on_c, 14, 65, 80
5, 91199, Note_on_c, 14, 62, 0
5, 91199, Note_on_c, 14, 65, 0
5, 91200, Note_on_c, 14, 55, 80
5, 91519, Note_on_c, 14, 55, 0
5, 91520, Note_on_c, 14, 55, 80
5, 91679, Note_on_c, 14, 55, 0
5, 91680, Note_on_c, 14, 62, 80
5, 91680, Note_on_c, 14, 65, 80
5, 91839, Note_on_c, 14, 62, 0
5, 91839, Note_on_c, 14, 65, 0
5, 92000, Note_on_c, 14, 62, 80
5, 92000, Note_on_c, 14, 65, 80
5, 92159, Note_on_c, 14, 62, 0
5, 92159, Note_on_c, 14, 65, 0
5, 92160, Note_on_c, 14, 50, 80
5, 92319, Note_on_c, 14, 50, 0
5, 92480, Note_on_c, 14, 50, 80
5, 92639, Note_on_c, 14, 50, 0
5, 92640, Note_on_c, 14, 62, 80
5, 92640, Note_on_c, 14, 65, 80
5, 92799, Note_on_c, 14, 62, 0
5, 92799, Note_on_c, 14, 65, 0
5, 92960, Note_on_c, 14, 62, 80
5, 92960, Note_on_c, 14, 65, 80
5, 93119, Note_on_c, 14, 62, 0
5, 93119, Note_on_c, 14, 65, 0
5, 93120, Note_on_c, 14, 55, 80
5, 93439, Note_on_c, 14, 55, 0
5, 93440, Note_on_c, 14, 55, 80
5, 93599, Note_on_c, 14, 55, 0
5, 93600, Note_on_c, 14, 62, 80
5, 93600, Note_on_c, 14, 65, 80
5, 93759, Note_on_c, 14, 62, 0
5, 93759, Note_on_c, 14, 65, 0
5, 93920, Note_on_c, 14, 62, 80
5, 93920, Note_on_c, 14, 65, 80
5, 94079, Note_on_c, 14, 62, 0
5, 94079, Note_on_c, 14, 65, 0
5, 94080, Note_on_c, 14, 50, 80
5, 94239, Note_on_c, 14, 50, 0
5, 94400, Note_on_c, 14, 50, 80
5, 94559, Note_on_c, 14, 50, 0
5, 94560, Note_on_c, 14, 62, 80
5, 94560, Note_on_c, 14, 65, 80
5, 94719, Note_on_c, 14, 62, 0
5, 94719, Note_on_c, 14, 65, 0
5, 94880, Note_on_c, 14, 62, 80
5, 94880, Note_on_c, 14, 65, 80
5, 95039, Note_on_c, 14, 62, 0
5, 95039, Note_on_c, 14, 65, 0
5, 95040, Note_on_c, 14, 55, 80
5, 95359, Note_on_c, 14, 55, 0
5, 95360, Note_on_c, 14, 55, 80
5, 95519, Note_on_c, 14, 55, 0
5, 95520, Note_on_c, 14, 62, 80
5, 95520, Note_on_c, 14, 65, 80
5, 95679, Note_on_c, 14, 62, 0
5, 95679, Note_on_c, 14, 65, 0
5, 95840, Note_on_c, 14, 62, 80
5, 95840, Note_on_c, 14, 65, 80
5, 95999, Note_on_c, 14, 62, 0
5, 95999, Note_on_c, 14, 65, 0
5, 96000, Note_on_c, 14, 55, 80
5, 96479, Note_on_c, 14, 55, 0
5, 96800, Note_on_c, 14, 55, 80
5, 96959, Note_on_c, 14, 55, 0
5, 96960, Note_on_c, 14, 55, 80
5, 97439, Note_on_c, 14, 55, 0
5, 97680, Note_on_c, 14, 55, 80
5, 97919, Note_on_c, 14, 55, 0
5, 97920, Note_on_c, 14, 57, 80
5, 98399, Note_on_c, 14, 57, 0
5, 98720, Note_on_c, 14, 57, 80
5, 98879, Note_on_c, 14, 57, 0
5, 98880, Note_on_c, 14, 55, 80
5, 99359, Note_on_c, 14, 55, 0
5, 99645, Note_on_c, 14, 55, 80
5, 99659, Note_on_c, 14, 55, 0
5, 99840, Note_on_c, 14, 60, 80
5, 100319, Note_on_c, 14, 60, 0
5, 100320, Note_on_c, 14, 60, 80
5, 100320, Note_on_c, 14, 64, 80
5, 100799, Note_on_c, 14, 60, 0
5, 100799, Note_on_c, 14, 64, 0
5, 100800, Note_on_c, 14, 55, 80
5, 101279, Note_on_c, 14, 55, 0
5, 101280, Note_on_c, 14, 60, 80
5, 101280, Note_on_c, 14, 64, 80
5, 101599, Note_on_c, 14, 60, 0
5, 101599, Note_on_c, 14, 64, 0
5, 101600, Note_on_c, 14, 55, 80
5, 101759, Note_on_c, 14, 55, 0
5, 101760, Note_on_c, 14, 57, 80
5, 102239, Note_on_c, 14, 57, 0
5, 102240, Note_on_c, 14, 60, 80
5, 102240, Note_on_c, 14, 64, 80
5, 102719, Note_on_c, 14, 60, 0
5, 102719, Note_on_c, 14, 64, 0
5, 102720, Note_on_c, 14, 52, 80
5, 103199, Note_on_c, 14, 52, 0
5, 103200, Note_on_c, 14, 60, 80
5, 103200, Note_on_c, 14, 64, 80
5, 103519, Note_on_c, 14, 60, 0
5, 103519, Note_on_c, 14, 64, 0
5, 103520, Note_on_c, 14, 52, 80
5, 103679, Note_on_c, 14, 52, 0
5, 103680, Note_on_c, 14, 53, 80
5, 104159, Note_on_c, 14, 53, 0
5, 104160, Note_on_c, 14, 60, 80
5, 104160, Note_on_c, 14, 65, 80
5, 104639, Note_on_c, 14, 60, 0
5, 104639, Note_on_c, 14, 65, 0
5, 104640, Note_on_c, 14, 50, 80
5, 105119, Note_on_c, 14, 50, 0
5, 105120, Note_on_c, 14, 55, 80
5, 105120, Note_on_c, 14, 60, 80
5, 105599, Note_on_c, 14, 55, 0
5, 105599, Note_on_c, 14, 60, 0
5, 105600, Note_on_c, 14, 48, 80
5, 106079, Note_on_c, 14, 48, 0
5, 106080, End_track
0, 0, End_of_file
