0, 0, Header, 1, 5, 480
1, 0, Start_track
1, 0, Title_t, "Voice\000"
1, 0, Time_signature, 6, 3, 24, 8
1, 0, Key_signature, 0, "major"
1, 0, Tempo, 666667
1, 0, Control_c, 0, 121, 0
1, 0, Program_c, 0, 54
1, 0, Control_c, 0, 7, 100
1, 0, Control_c, 0, 10, 64
1, 0, Control_c, 0, 91, 0
1, 0, Control_c, 0, 93, 0
1, 0, MIDI_port, 0
1, 0, Note_on_c, 0, 64, 80
1, 0, Control_c, 0, 2, 80
1, 0, Note_on_c, 0, 67, 80
1, 0, Note_on_c, 0, 71, 80
1, 2, Control_c, 0, 64, 127
1, 1439, Note_on_c, 0, 64, 0
1, 1439, Note_on_c, 0, 67, 0
1, 1439, Note_on_c, 0, 71, 0
1, 1440, Note_on_c, 0, 62, 80
1, 1440, Control_c, 0, 2, 80
1, 1440, Note_on_c, 0, 67, 80
1, 1440, Note_on_c, 0, 71, 80
1, 2879, Note_on_c, 0, 62, 0
1, 2879, Note_on_c, 0, 67, 0
1, 2879, Note_on_c, 0, 71, 0
1, 2880, Note_on_c, 0, 60, 80
1, 2880, Note_on_c, 0, 64, 80
1, 2880, Note_on_c, 0, 67, 80
1, 4319, Note_on_c, 0, 60, 0
1, 4319, Note_on_c, 0, 64, 0
1, 4319, Note_on_c, 0, 67, 0
1, 4320, Note_on_c, 0, 55, 80
1, 4320, Note_on_c, 0, 59, 80
1, 4320, Note_on_c, 0, 62, 80
1, 4559, Note_on_c, 0, 55, 0
1, 4559, Note_on_c, 0, 59, 0
1, 4559, Note_on_c, 0, 62, 0
1, 5680, Note_on_c, 0, 64, 80
1, 5719, Note_on_c, 0, 64, 0
1, 5720, Note_on_c, 0, 67, 80
1, 5759, Note_on_c, 0, 67, 0
1, 5760, Note_on_c, 0, 71, 80
1, 5999, Note_on_c, 0, 71, 0
1, 6000, Note_on_c, 0, 74, 80
1, 6239, Note_on_c, 0, 74, 0
1, 6240, Note_on_c, 0, 76, 80
1, 6479, Note_on_c, 0, 76, 0
1, 6480, Note_on_c, 0, 71, 80
1, 6959, Note_on_c, 0, 71, 0
1, 6960, Note_on_c, 0, 67, 80
1, 7079, Note_on_c, 0, 67, 0
1, 7120, Note_on_c, 0, 62, 80
1, 7159, Note_on_c, 0, 62, 0
1, 7160, Note_on_c, 0, 67, 80
1, 7199, Note_on_c, 0, 67, 0
1, 7200, Note_on_c, 0, 71, 80
1, 7439, Note_on_c, 0, 71, 0
1, 7440, Note_on_c, 0, 74, 80
1, 7679, Note_on_c, 0, 74, 0
1, 7680, Note_on_c, 0, 76, 80
1, 7799, Note_on_c, 0, 76, 0
1, 7800, Note_on_c, 0, 71, 80
1, 8399, Note_on_c, 0, 71, 0
1, 8520, Note_on_c, 0, 60, 80
1, 8559, Note_on_c, 0, 60, 0
1, 8560, Note_on_c, 0, 64, 80
1, 8599, Note_on_c, 0, 64, 0
1, 8600, Note_on_c, 0, 67, 80
1, 8639, Note_on_c, 0, 67, 0
1, 8640, Note_on_c, 0, 71, 80
1, 8879, Note_on_c, 0, 71, 0
1, 8880, Note_on_c, 0, 74, 80
1, 9119, Note_on_c, 0, 74, 0
1, 9120, Note_on_c, 0, 76, 80
1, 9239, Note_on_c, 0, 76, 0
1, 9240, Note_on_c, 0, 71, 80
1, 9599, Note_on_c, 0, 71, 0
1, 9600, Note_on_c, 0, 69, 80
1, 9839, Note_on_c, 0, 69, 0
1, 9840, Note_on_c, 0, 67, 80
1, 9959, Note_on_c, 0, 67, 0
1, 10000, Note_on_c, 0, 62, 80
1, 10039, Note_on_c, 0, 62, 0
1, 10040, Note_on_c, 0, 67, 80
1, 10079, Note_on_c, 0, 67, 0
1, 10080, Note_on_c, 0, 71, 80
1, 10319, Note_on_c, 0, 71, 0
1, 10320, Note_on_c, 0, 74, 80
1, 10439, Note_on_c, 0, 74, 0
1, 10440, Note_on_c, 0, 76, 80
1, 10799, Note_on_c, 0, 76, 0
1, 10800, Note_on_c, 0, 71, 80
1, 10859, Note_on_c, 0, 71, 0
1, 11440, Note_on_c, 0, 64, 80
1, 11479, Note_on_c, 0, 64, 0
1, 11480, Note_on_c, 0, 67, 80
1, 11519, Note_on_c, 0, 67, 0
1, 11520, Note_on_c, 0, 71, 80
1, 11759, Note_on_c, 0, 71, 0
1, 11760, Note_on_c, 0, 74, 80
1, 11999, Note_on_c, 0, 74, 0
1, 12000, Note_on_c, 0, 76, 80
1, 12119, Note_on_c, 0, 76, 0
1, 12120, Note_on_c, 0, 79, 80
1, 12479, Note_on_c, 0, 79, 0
1, 12480, Note_on_c, 0, 76, 80
1, 12719, Note_on_c, 0, 76, 0
1, 12720, Note_on_c, 0, 74, 80
1, 12839, Note_on_c, 0, 74, 0
1, 12960, Note_on_c, 0, 62, 80
1, 12960, Note_on_c, 0, 67, 80
1, 12960, Note_on_c, 0, 71, 80
1, 13199, Note_on_c, 0, 62, 0
1, 13199, Note_on_c, 0, 67, 0
1, 13199, Note_on_c, 0, 71, 0
1, 13200, Note_on_c, 0, 71, 80
1, 13439, Note_on_c, 0, 71, 0
1, 13440, Note_on_c, 0, 72, 80
1, 13559, Note_on_c, 0, 72, 0
1, 13560, Note_on_c, 0, 74, 80
1, 14159, Note_on_c, 0, 74, 0
1, 14160, Note_on_c, 0, 67, 80
1, 14279, Note_on_c, 0, 67, 0
1, 14280, Note_on_c, 0, 60, 80
1, 14319, Note_on_c, 0, 60, 0
1, 14320, Note_on_c, 0, 64, 80
1, 14359, Note_on_c, 0, 64, 0
1, 14360, Note_on_c, 0, 67, 80
1, 14399, Note_on_c, 0, 67, 0
1, 14400, Note_on_c, 0, 76, 80
1, 14639, Note_on_c, 0, 76, 0
1, 14640, Note_on_c, 0, 74, 80
1, 14879, Note_on_c, 0, 74, 0
1, 14880, Note_on_c, 0, 71, 80
1, 14999, Note_on_c, 0, 71, 0
1, 15000, Note_on_c, 0, 74, 80
1, 15359, Note_on_c, 0, 74, 0
1, 15360, Note_on_c, 0, 71, 80
1, 15599, Note_on_c, 0, 71, 0
1, 15600, Note_on_c, 0, 69, 80
1, 15719, Note_on_c, 0, 69, 0
1, 15720, Note_on_c, 0, 71, 80
1, 15839, Note_on_c, 0, 71, 0
1, 15840, Note_on_c, 0, 62, 80
1, 16079, Note_on_c, 0, 62, 0
1, 16080, Note_on_c, 0, 69, 80
1, 16199, Note_on_c, 0, 69, 0
1, 16200, Note_on_c, 0, 71, 80
1, 16559, Note_on_c, 0, 71, 0
1, 16560, Note_on_c, 0, 67, 80
1, 16619, Note_on_c, 0, 67, 0
1, 17200, Note_on_c, 0, 64, 80
1, 17239, Note_on_c, 0, 64, 0
1, 17240, Note_on_c, 0, 67, 80
1, 17279, Note_on_c, 0, 67, 0
1, 17280, Note_on_c, 0, 71, 80
1, 17519, Note_on_c, 0, 71, 0
1, 17520, Note_on_c, 0, 74, 80
1, 17759, Note_on_c, 0, 74, 0
1, 17760, Note_on_c, 0, 76, 80
1, 17999, Note_on_c, 0, 76, 0
1, 18000, Note_on_c, 0, 79, 80
1, 18239, Note_on_c, 0, 79, 0
1, 18240, Note_on_c, 0, 76, 80
1, 18359, Note_on_c, 0, 76, 0
1, 18360, Note_on_c, 0, 74, 80
1, 18719, Note_on_c, 0, 74, 0
1, 18720, Note_on_c, 0, 62, 80
1, 18720, Note_on_c, 0, 67, 80
1, 18720, Note_on_c, 0, 71, 80
1, 18959, Note_on_c, 0, 62, 0
1, 18959, Note_on_c, 0, 67, 0
1, 18959, Note_on_c, 0, 71, 0
1, 18960, Note_on_c, 0, 74, 80
1, 19199, Note_on_c, 0, 74, 0
1, 19200, Note_on_c, 0, 71, 80
1, 19439, Note_on_c, 0, 71, 0
1, 19440, Note_on_c, 0, 74, 80
1, 19679, Note_on_c, 0, 74, 0
1, 20040, Note_on_c, 0, 60, 80
1, 20079, Note_on_c, 0, 60, 0
1, 20080, Note_on_c, 0, 64, 80
1, 20119, Note_on_c, 0, 64, 0
1, 20120, Note_on_c, 0, 67, 80
1, 20159, Note_on_c, 0, 67, 0
1, 20160, Note_on_c, 0, 74, 80
1, 20399, Note_on_c, 0, 74, 0
1, 20400, Note_on_c, 0, 71, 80
1, 20639, Note_on_c, 0, 71, 0
1, 20640, Note_on_c, 0, 69, 80
1, 20879, Note_on_c, 0, 69, 0
1, 20880, Note_on_c, 0, 71, 80
1, 21239, Note_on_c, 0, 71, 0
1, 21240, Note_on_c, 0, 69, 80
1, 21359, Note_on_c, 0, 69, 0
1, 21520, Note_on_c, 0, 62, 80
1, 21559, Note_on_c, 0, 62, 0
1, 21560, Note_on_c, 0, 67, 80
1, 21599, Note_on_c, 0, 67, 0
1, 21600, Note_on_c, 0, 71, 80
1, 21839, Note_on_c, 0, 71, 0
1, 21840, Note_on_c, 0, 67, 80
1, 21959, Note_on_c, 0, 67, 0
1, 21960, Note_on_c, 0, 69, 80
1, 22319, Note_on_c, 0, 69, 0
1, 22320, Note_on_c, 0, 67, 80
1, 22379, Note_on_c, 0, 67, 0
1, 22960, Note_on_c, 0, 64, 80
1, 22999, Note_on_c, 0, 64, 0
1, 23000, Note_on_c, 0, 67, 80
1, 23039, Note_on_c, 0, 67, 0
1, 23040, Note_on_c, 0, 71, 80
1, 23279, Note_on_c, 0, 71, 0
1, 23280, Note_on_c, 0, 74, 80
1, 23519, Note_on_c, 0, 74, 0
1, 23520, Note_on_c, 0, 76, 80
1, 23759, Note_on_c, 0, 76, 0
1, 23760, Note_on_c, 0, 71, 80
1, 23999, Note_on_c, 0, 71, 0
1, 24000, Note_on_c, 0, 69, 80
1, 24239, Note_on_c, 0, 69, 0
1, 24240, Note_on_c, 0, 67, 80
1, 24359, Note_on_c, 0, 67, 0
1, 24400, Note_on_c, 0, 62, 80
1, 24439, Note_on_c, 0, 62, 0
1, 24440, Note_on_c, 0, 67, 80
1, 24479, Note_on_c, 0, 67, 0
1, 24480, Note_on_c, 0, 71, 80
1, 24839, Note_on_c, 0, 71, 0
1, 24840, Note_on_c, 0, 72, 80
1, 25199, Note_on_c, 0, 72, 0
1, 25200, Note_on_c, 0, 74, 80
1, 25259, Note_on_c, 0, 74, 0
1, 25800, Note_on_c, 0, 60, 80
1, 25839, Note_on_c, 0, 60, 0
1, 25840, Note_on_c, 0, 64, 80
1, 25879, Note_on_c, 0, 64, 0
1, 25880, Note_on_c, 0, 67, 80
1, 25919, Note_on_c, 0, 67, 0
1, 25920, Note_on_c, 0, 76, 80
1, 26159, Note_on_c, 0, 76, 0
1, 26160, Note_on_c, 0, 79, 80
1, 26399, Note_on_c, 0, 79, 0
1, 26400, Note_on_c, 0, 76, 80
1, 26519, Note_on_c, 0, 76, 0
1, 26520, Note_on_c, 0, 74, 80
1, 26879, Note_on_c, 0, 74, 0
1, 26880, Note_on_c, 0, 71, 80
1, 27119, Note_on_c, 0, 71, 0
1, 27120, Note_on_c, 0, 69, 80
1, 27239, Note_on_c, 0, 69, 0
1, 27240, Note_on_c, 0, 71, 80
1, 27359, Note_on_c, 0, 71, 0
1, 27360, Note_on_c, 0, 62, 80
1, 27599, Note_on_c, 0, 62, 0
1, 27600, Note_on_c, 0, 69, 80
1, 27839, Note_on_c, 0, 69, 0
1, 27840, Note_on_c, 0, 67, 80
1, 27959, Note_on_c, 0, 67, 0
1, 27960, Note_on_c, 0, 67, 80
1, 28319, Note_on_c, 0, 67, 0
1, 28320, Note_on_c, 0, 69, 80
1, 28559, Note_on_c, 0, 69, 0
1, 28560, Note_on_c, 0, 71, 80
1, 28799, Note_on_c, 0, 71, 0
1, 28800, Time_signature, 2, 1, 24, 8
1, 28800, Tempo, 500000
1, 28800, Note_on_c, 0, 64, 80
1, 28800, Note_on_c, 0, 67, 80
1, 28800, Note_on_c, 0, 71, 80
1, 29039, Note_on_c, 0, 64, 0
1, 29039, Note_on_c, 0, 67, 0
1, 29039, Note_on_c, 0, 71, 0
1, 29760, Note_on_c, 0, 71, 80
1, 30079, Note_on_c, 0, 71, 0
1, 30080, Note_on_c, 0, 69, 80
1, 30239, Note_on_c, 0, 69, 0
1, 30240, Note_on_c, 0, 69, 80
1, 30719, Note_on_c, 0, 69, 0
1, 30720, Note_on_c, 0, 62, 80
1, 30720, Note_on_c, 0, 69, 80
1, 31199, Note_on_c, 0, 62, 0
1, 31199, Note_on_c, 0, 69, 0
1, 31200, Note_on_c, 0, 69, 80
1, 31519, Note_on_c, 0, 69, 0
1, 31520, Note_on_c, 0, 69, 80
1, 31679, Note_on_c, 0, 69, 0
1, 31680, Note_on_c, 0, 69, 80
1, 32159, Note_on_c, 0, 69, 0
1, 32160, Note_on_c, 0, 71, 80
1, 32639, Note_on_c, 0, 71, 0
1, 32640, Note_on_c, 0, 60, 80
1, 32640, Note_on_c, 0, 64, 80
1, 32640, Note_on_c, 0, 67, 80
1, 32879, Note_on_c, 0, 60, 0
1, 32879, Note_on_c, 0, 64, 0
1, 32879, Note_on_c, 0, 67, 0
1, 33440, Note_on_c, 0, 69, 80
1, 33599, Note_on_c, 0, 69, 0
1, 33600, Note_on_c, 0, 71, 80
1, 33919, Note_on_c, 0, 71, 0
1, 33920, Note_on_c, 0, 69, 80
1, 34079, Note_on_c, 0, 69, 0
1, 34080, Note_on_c, 0, 69, 80
1, 34399, Note_on_c, 0, 69, 0
1, 34400, Note_on_c, 0, 69, 80
1, 34559, Note_on_c, 0, 69, 0
1, 34560, Note_on_c, 0, 74, 80
1, 34879, Note_on_c, 0, 74, 0
1, 34880, Note_on_c, 0, 74, 80
1, 35039, Note_on_c, 0, 74, 0
1, 35040, Note_on_c, 0, 71, 80
1, 35519, Note_on_c, 0, 71, 0
1, 35520, Note_on_c, 0, 69, 80
1, 35999, Note_on_c, 0, 69, 0
1, 36000, Note_on_c, 0, 67, 80
1, 36319, Note_on_c, 0, 67, 0
1, 36320, Note_on_c, 0, 67, 80
1, 36479, Note_on_c, 0, 67, 0
1, 36480, Note_on_c, 0, 67, 80
1, 36480, Note_on_c, 0, 76, 80
1, 36959, Note_on_c, 0, 67, 0
1, 36959, Note_on_c, 0, 76, 0
1, 37440, Note_on_c, 0, 74, 80
1, 38399, Note_on_c, 0, 74, 0
1, 38400, Note_on_c, 0, 79, 80
1, 39359, Note_on_c, 0, 79, 0
1, 39360, Note_on_c, 0, 81, 80
1, 40159, Note_on_c, 0, 81, 0
1, 40160, Note_on_c, 0, 81, 80
1, 40319, Note_on_c, 0, 81, 0
1, 40320, Note_on_c, 0, 62, 80
1, 40320, Note_on_c, 0, 69, 80
1, 42239, Note_on_c, 0, 62, 0
1, 42239, Note_on_c, 0, 69, 0
1, 44160, Note_on_c, 0, 64, 80
1, 44160, Control_c, 0, 2, 80
1, 44160, Note_on_c, 0, 67, 80
1, 44160, Note_on_c, 0, 71, 80
1, 44399, Note_on_c, 0, 64, 0
1, 44399, Note_on_c, 0, 67, 0
1, 44399, Note_on_c, 0, 71, 0
1, 44400, Note_on_c, 0, 71, 80
1, 44400, Control_c, 0, 2, 80
1, 44639, Note_on_c, 0, 71, 0
1, 44640, Note_on_c, 0, 69, 80
1, 44879, Note_on_c, 0, 69, 0
1, 44880, Note_on_c, 0, 71, 80
1, 45119, Note_on_c, 0, 71, 0
1, 45120, Note_on_c, 0, 67, 80
1, 45120, Note_on_c, 0, 71, 80
1, 45120, Note_on_c, 0, 74, 80
1, 45599, Note_on_c, 0, 67, 0
1, 45599, Note_on_c, 0, 71, 0
1, 45599, Note_on_c, 0, 74, 0
1, 45600, Note_on_c, 0, 67, 80
1, 45600, Control_c, 0, 2, 80
1, 46079, Note_on_c, 0, 67, 0
1, 46080, Note_on_c, 0, 62, 80
1, 46080, Note_on_c, 0, 67, 80
1, 46319, Note_on_c, 0, 62, 0
1, 46319, Note_on_c, 0, 67, 0
1, 46320, Note_on_c, 0, 71, 80
1, 46320, Control_c, 0, 2, 80
1, 46559, Note_on_c, 0, 71, 0
1, 46560, Note_on_c, 0, 69, 80
1, 46799, Note_on_c, 0, 69, 0
1, 46800, Note_on_c, 0, 74, 80
1, 47039, Note_on_c, 0, 74, 0
1, 47040, Note_on_c, 0, 62, 80
1, 47040, Note_on_c, 0, 67, 80
1, 47040, Note_on_c, 0, 71, 80
1, 47519, Note_on_c, 0, 62, 0
1, 47519, Note_on_c, 0, 67, 0
1, 47519, Note_on_c, 0, 71, 0
1, 48000, Note_on_c, 0, 60, 80
1, 48000, Control_c, 0, 2, 80
1, 48000, Note_on_c, 0, 64, 80
1, 48000, Note_on_c, 0, 67, 80
1, 48000, Note_on_c, 0, 72, 80
1, 48239, Note_on_c, 0, 60, 0
1, 48239, Note_on_c, 0, 64, 0
1, 48239, Note_on_c, 0, 67, 0
1, 48239, Note_on_c, 0, 72, 0
1, 48240, Note_on_c, 0, 71, 80
1, 48240, Control_c, 0, 2, 80
1, 48479, Note_on_c, 0, 71, 0
1, 48480, Note_on_c, 0, 72, 80
1, 48719, Note_on_c, 0, 72, 0
1, 48720, Note_on_c, 0, 71, 80
1, 48959, Note_on_c, 0, 71, 0
1, 48960, Note_on_c, 0, 60, 80
1, 48960, Note_on_c, 0, 64, 80
1, 48960, Note_on_c, 0, 67, 80
1, 48960, Note_on_c, 0, 72, 80
1, 49199, Note_on_c, 0, 60, 0
1, 49199, Note_on_c, 0, 64, 0
1, 49199, Note_on_c, 0, 67, 0
1, 49199, Note_on_c, 0, 72, 0
1, 49200, Note_on_c, 0, 72, 80
1, 49200, Control_c, 0, 2, 80
1, 49439, Note_on_c, 0, 72, 0
1, 49440, Note_on_c, 0, 67, 80
1, 49919, Note_on_c, 0, 67, 0
1, 50400, Note_on_c, 0, 71, 80
1, 50400, Control_c, 0, 2, 80
1, 50639, Note_on_c, 0, 71, 0
1, 50640, Note_on_c, 0, 74, 80
1, 50879, Note_on_c, 0, 74, 0
1, 50880, Note_on_c, 0, 62, 80
1, 50880, Note_on_c, 0, 71, 80
1, 51359, Note_on_c, 0, 62, 0
1, 51359, Note_on_c, 0, 71, 0
1, 51360, Note_on_c, 0, 69, 80
1, 51360, Control_c, 0, 2, 80
1, 51839, Note_on_c, 0, 69, 0
1, 51840, Note_on_c, 0, 64, 80
1, 51840, Note_on_c, 0, 67, 80
1, 51840, Note_on_c, 0, 71, 80
1, 52079, Note_on_c, 0, 64, 0
1, 52079, Note_on_c, 0, 67, 0
1, 52079, Note_on_c, 0, 71, 0
1, 52080, Note_on_c, 0, 71, 80
1, 52080, Control_c, 0, 2, 80
1, 52319, Note_on_c, 0, 71, 0
1, 52320, Note_on_c, 0, 69, 80
1, 52559, Note_on_c, 0, 69, 0
1, 52560, Note_on_c, 0, 71, 80
1, 52799, Note_on_c, 0, 71, 0
1, 52800, Note_on_c, 0, 67, 80
1, 52800, Note_on_c, 0, 71, 80
1, 52800, Note_on_c, 0, 74, 80
1, 53279, Note_on_c, 0, 67, 0
1, 53279, Note_on_c, 0, 71, 0
1, 53279, Note_on_c, 0, 74, 0
1, 53280, Note_on_c, 0, 74, 80
1, 53280, Control_c, 0, 2, 80
1, 53339, Note_on_c, 0, 74, 0
1, 53580, Note_on_c, 0, 64, 80
1, 53580, Control_c, 0, 2, 80
1, 53639, Note_on_c, 0, 64, 0
1, 53640, Note_on_c, 0, 67, 80
1, 53699, Note_on_c, 0, 67, 0
1, 53700, Note_on_c, 0, 71, 80
1, 53759, Note_on_c, 0, 71, 0
1, 53760, Note_on_c, 0, 76, 80
1, 53999, Note_on_c, 0, 76, 0
1, 54000, Note_on_c, 0, 74, 80
1, 54000, Control_c, 0, 2, 80
1, 54239, Note_on_c, 0, 74, 0
1, 54240, Note_on_c, 0, 71, 80
1, 54479, Note_on_c, 0, 71, 0
1, 54480, Note_on_c, 0, 69, 80
1, 54719, Note_on_c, 0, 69, 0
1, 54720, Note_on_c, 0, 62, 80
1, 54720, Note_on_c, 0, 67, 80
1, 54720, Note_on_c, 0, 71, 80
1, 55199, Note_on_c, 0, 62, 0
1, 55199, Note_on_c, 0, 67, 0
1, 55199, Note_on_c, 0, 71, 0
1, 55680, Note_on_c, 0, 60, 80
1, 55680, Control_c, 0, 2, 80
1, 55680, Note_on_c, 0, 64, 80
1, 55680, Note_on_c, 0, 67, 80
1, 55680, Note_on_c, 0, 72, 80
1, 55919, Note_on_c, 0, 60, 0
1, 55919, Note_on_c, 0, 64, 0
1, 55919, Note_on_c, 0, 67, 0
1, 55919, Note_on_c, 0, 72, 0
1, 55920, Note_on_c, 0, 71, 80
1, 55920, Control_c, 0, 2, 80
1, 56159, Note_on_c, 0, 71, 0
1, 56160, Note_on_c, 0, 72, 80
1, 56399, Note_on_c, 0, 72, 0
1, 56400, Note_on_c, 0, 71, 80
1, 56639, Note_on_c, 0, 71, 0
1, 56640, Note_on_c, 0, 60, 80
1, 56640, Note_on_c, 0, 64, 80
1, 56640, Note_on_c, 0, 67, 80
1, 56640, Note_on_c, 0, 72, 80
1, 57119, Note_on_c, 0, 60, 0
1, 57119, Note_on_c, 0, 64, 0
1, 57119, Note_on_c, 0, 67, 0
1, 57119, Note_on_c, 0, 72, 0
1, 57120, Note_on_c, 0, 67, 80
1, 57120, Control_c, 0, 2, 80
1, 57599, Note_on_c, 0, 67, 0
1, 58080, Note_on_c, 0, 71, 80
1, 58080, Control_c, 0, 2, 80
1, 58319, Note_on_c, 0, 71, 0
1, 58320, Note_on_c, 0, 74, 80
1, 58559, Note_on_c, 0, 74, 0
1, 58560, Note_on_c, 0, 62, 80
1, 58560, Note_on_c, 0, 71, 80
1, 58619, Note_on_c, 0, 62, 0
1, 58619, Note_on_c, 0, 71, 0
1, 59340, Note_on_c, 0, 64, 80
1, 59340, Control_c, 0, 2, 80
1, 59399, Note_on_c, 0, 64, 0
1, 59400, Note_on_c, 0, 67, 80
1, 59459, Note_on_c, 0, 67, 0
1, 59460, Note_on_c, 0, 71, 80
1, 59519, Note_on_c, 0, 71, 0
1, 59520, Note_on_c, 0, 79, 80
1, 60479, Note_on_c, 0, 79, 0
1, 60480, Note_on_c, 0, 67, 80
1, 60480, Control_c, 0, 2, 80
1, 60480, Note_on_c, 0, 71, 80
1, 60480, Note_on_c, 0, 76, 80
1, 60719, Note_on_c, 0, 67, 0
1, 60719, Note_on_c, 0, 71, 0
1, 60719, Note_on_c, 0, 76, 0
1, 61260, Note_on_c, 0, 64, 80
1, 61260, Control_c, 0, 2, 80
1, 61319, Note_on_c, 0, 64, 0
1, 61320, Note_on_c, 0, 67, 80
1, 61379, Note_on_c, 0, 67, 0
1, 61380, Note_on_c, 0, 71, 80
1, 61439, Note_on_c, 0, 71, 0
1, 61440, Note_on_c, 0, 76, 80
1, 62399, Note_on_c, 0, 76, 0
1, 62400, Note_on_c, 0, 67, 80
1, 62400, Control_c, 0, 2, 80
1, 62400, Note_on_c, 0, 71, 80
1, 62400, Note_on_c, 0, 74, 80
1, 63359, Note_on_c, 0, 67, 0
1, 63359, Note_on_c, 0, 71, 0
1, 63359, Note_on_c, 0, 74, 0
1, 63360, Note_on_c, 0, 60, 80
1, 63360, Control_c, 0, 2, 80
1, 63360, Note_on_c, 0, 64, 80
1, 63360, Note_on_c, 0, 67, 80
1, 63599, Note_on_c, 0, 60, 0
1, 63599, Note_on_c, 0, 64, 0
1, 63599, Note_on_c, 0, 67, 0
1, 63840, Note_on_c, 0, 74, 80
1, 63840, Control_c, 0, 2, 80
1, 64319, Note_on_c, 0, 74, 0
1, 64320, Note_on_c, 0, 60, 80
1, 64320, Note_on_c, 0, 64, 80
1, 64320, Note_on_c, 0, 67, 80
1, 64320, Note_on_c, 0, 72, 80
1, 64399, Note_on_c, 0, 60, 0
1, 64399, Note_on_c, 0, 64, 0
1, 64399, Note_on_c, 0, 67, 0
1, 64399, Note_on_c, 0, 72, 0
1, 64400, Note_on_c, 0, 74, 80
1, 64400, Control_c, 0, 2, 80
1, 64799, Note_on_c, 0, 74, 0
1, 64800, Note_on_c, 0, 76, 80
1, 65039, Note_on_c, 0, 76, 0
1, 65040, Note_on_c, 0, 71, 80
1, 65040, Control_c, 0, 2, 80
1, 65279, Note_on_c, 0, 71, 0
1, 65280, Note_on_c, 0, 62, 80
1, 65519, Note_on_c, 0, 62, 0
1, 65520, Note_on_c, 0, 69, 80
1, 65520, Control_c, 0, 2, 80
1, 65759, Note_on_c, 0, 69, 0
1, 65760, Note_on_c, 0, 71, 80
1, 65999, Note_on_c, 0, 71, 0
1, 66000, Note_on_c, 0, 69, 80
1, 66239, Note_on_c, 0, 69, 0
1, 66240, Note_on_c, 0, 62, 80
1, 66240, Note_on_c, 0, 67, 80
1, 66479, Note_on_c, 0, 62, 0
1, 66479, Note_on_c, 0, 67, 0
1, 67020, Note_on_c, 0, 64, 80
1, 67020, Control_c, 0, 2, 80
1, 67079, Note_on_c, 0, 64, 0
1, 67080, Note_on_c, 0, 67, 80
1, 67139, Note_on_c, 0, 67, 0
1, 67140, Note_on_c, 0, 71, 80
1, 67199, Note_on_c, 0, 71, 0
1, 67200, Note_on_c, 0, 79, 80
1, 68159, Note_on_c, 0, 79, 0
1, 68160, Note_on_c, 0, 67, 80
1, 68160, Control_c, 0, 2, 80
1, 68160, Note_on_c, 0, 71, 80
1, 68160, Note_on_c, 0, 76, 80
1, 68219, Note_on_c, 0, 67, 0
1, 68219, Note_on_c, 0, 71, 0
1, 68219, Note_on_c, 0, 76, 0
1, 68940, Note_on_c, 0, 62, 80
1, 68940, Control_c, 0, 2, 80
1, 68999, Note_on_c, 0, 62, 0
1, 69000, Note_on_c, 0, 67, 80
1, 69059, Note_on_c, 0, 67, 0
1, 69060, Note_on_c, 0, 71, 80
1, 69119, Note_on_c, 0, 71, 0
1, 69120, Note_on_c, 0, 76, 80
1, 70079, Note_on_c, 0, 76, 0
1, 70080, Note_on_c, 0, 67, 80
1, 70080, Control_c, 0, 2, 80
1, 70080, Note_on_c, 0, 71, 80
1, 70080, Note_on_c, 0, 74, 80
1, 71039, Note_on_c, 0, 67, 0
1, 71039, Note_on_c, 0, 71, 0
1, 71039, Note_on_c, 0, 74, 0
1, 71040, Note_on_c, 0, 60, 80
1, 71040, Control_c, 0, 2, 80
1, 71040, Note_on_c, 0, 64, 80
1, 71040, Note_on_c, 0, 67, 80
1, 71279, Note_on_c, 0, 60, 0
1, 71279, Note_on_c, 0, 64, 0
1, 71279, Note_on_c, 0, 67, 0
1, 71520, Note_on_c, 0, 74, 80
1, 71520, Control_c, 0, 2, 80
1, 71759, Note_on_c, 0, 74, 0
1, 71760, Note_on_c, 0, 71, 80
1, 71999, Note_on_c, 0, 71, 0
1, 72000, Note_on_c, 0, 60, 80
1, 72000, Note_on_c, 0, 64, 80
1, 72000, Note_on_c, 0, 67, 80
1, 72000, Note_on_c, 0, 74, 80
1, 72479, Note_on_c, 0, 60, 0
1, 72479, Note_on_c, 0, 64, 0
1, 72479, Note_on_c, 0, 67, 0
1, 72479, Note_on_c, 0, 74, 0
1, 72480, Note_on_c, 0, 76, 80
1, 72480, Control_c, 0, 2, 80
1, 72719, Note_on_c, 0, 76, 0
1, 72720, Note_on_c, 0, 71, 80
1, 72720, Control_c, 0, 2, 80
1, 72959, Note_on_c, 0, 71, 0
1, 72960, Note_on_c, 0, 62, 80
1, 73199, Note_on_c, 0, 62, 0
1, 73200, Note_on_c, 0, 69, 80
1, 73200, Control_c, 0, 2, 80
1, 73439, Note_on_c, 0, 69, 0
1, 73440, Note_on_c, 0, 71, 80
1, 73679, Note_on_c, 0, 71, 0
1, 73680, Note_on_c, 0, 69, 80
1, 73919, Note_on_c, 0, 69, 0
1, 73920, Note_on_c, 0, 67, 80
1, 74399, Note_on_c, 0, 67, 0
1, 74880, Note_on_c, 0, 64, 80
1, 74880, Control_c, 0, 2, 80
1, 74880, Note_on_c, 0, 67, 80
1, 74880, Note_on_c, 0, 71, 80
1, 75119, Note_on_c, 0, 64, 0
1, 75119, Note_on_c, 0, 67, 0
1, 75119, Note_on_c, 0, 71, 0
1, 75120, Note_on_c, 0, 74, 80
1, 75120, Control_c, 0, 2, 80
1, 75359, Note_on_c, 0, 74, 0
1, 75360, Note_on_c, 0, 74, 80
1, 75599, Note_on_c, 0, 74, 0
1, 75600, Note_on_c, 0, 71, 80
1, 75839, Note_on_c, 0, 71, 0
1, 75840, Note_on_c, 0, 74, 80
1, 76559, Note_on_c, 0, 74, 0
1, 76560, Note_on_c, 0, 67, 80
1, 76799, Note_on_c, 0, 67, 0
1, 76800, Note_on_c, 0, 62, 80
1, 76800, Note_on_c, 0, 67, 80
1, 76800, Note_on_c, 0, 71, 80
1, 77119, Note_on_c, 0, 62, 0
1, 77119, Note_on_c, 0, 67, 0
1, 77119, Note_on_c, 0, 71, 0
1, 77120, Note_on_c, 0, 74, 80
1, 77120, Control_c, 0, 2, 80
1, 77439, Note_on_c, 0, 74, 0
1, 77440, Note_on_c, 0, 74, 80
1, 77759, Note_on_c, 0, 74, 0
1, 77760, Note_on_c, 0, 74, 80
1, 78119, Note_on_c, 0, 74, 0
1, 78480, Note_on_c, 0, 67, 80
1, 78719, Note_on_c, 0, 67, 0
1, 78720, Note_on_c, 0, 60, 80
1, 78720, Note_on_c, 0, 64, 80
1, 78720, Note_on_c, 0, 67, 80
1, 78720, Note_on_c, 0, 71, 80
1, 79039, Note_on_c, 0, 60, 0
1, 79039, Note_on_c, 0, 64, 0
1, 79039, Note_on_c, 0, 67, 0
1, 79039, Note_on_c, 0, 71, 0
1, 79040, Note_on_c, 0, 74, 80
1, 79040, Control_c, 0, 2, 80
1, 79359, Note_on_c, 0, 74, 0
1, 79360, Note_on_c, 0, 76, 80
1, 79679, Note_on_c, 0, 76, 0
1, 79680, Note_on_c, 0, 71, 80
1, 80159, Note_on_c, 0, 71, 0
1, 80160, Note_on_c, 0, 69, 80
1, 80399, Note_on_c, 0, 69, 0
1, 80400, Note_on_c, 0, 67, 80
1, 80639, Note_on_c, 0, 67, 0
1, 80640, Note_on_c, 0, 62, 80
1, 80640, Note_on_c, 0, 67, 80
1, 81599, Note_on_c, 0, 62, 0
1, 81599, Note_on_c, 0, 67, 0
1, 82560, Note_on_c, 0, 67, 80
1, 82560, Control_c, 0, 2, 80
1, 82560, Note_on_c, 0, 71, 80
1, 82799, Note_on_c, 0, 67, 0
1, 82799, Note_on_c, 0, 71, 0
1, 82800, Note_on_c, 0, 71, 80
1, 82800, Control_c, 0, 2, 80
1, 82800, Note_on_c, 0, 74, 80
1, 83039, Note_on_c, 0, 71, 0
1, 83039, Note_on_c, 0, 74, 0
1, 83040, Note_on_c, 0, 71, 80
1, 83040, Note_on_c, 0, 74, 80
1, 83279, Note_on_c, 0, 71, 0
1, 83279, Note_on_c, 0, 74, 0
1, 83280, Note_on_c, 0, 67, 80
1, 83280, Note_on_c, 0, 71, 80
1, 83519, Note_on_c, 0, 67, 0
1, 83519, Note_on_c, 0, 71, 0
1, 83520, Note_on_c, 0, 71, 80
1, 83520, Note_on_c, 0, 74, 80
1, 84239, Note_on_c, 0, 71, 0
1, 84239, Note_on_c, 0, 74, 0
1, 84240, Note_on_c, 0, 64, 80
1, 84240, Note_on_c, 0, 67, 80
1, 84479, Note_on_c, 0, 64, 0
1, 84479, Note_on_c, 0, 67, 0
1, 84480, Note_on_c, 0, 67, 80
1, 84480, Control_c, 0, 2, 80
1, 84480, Note_on_c, 0, 71, 80
1, 84799, Note_on_c, 0, 67, 0
1, 84799, Note_on_c, 0, 71, 0
1, 84800, Note_on_c, 0, 71, 80
1, 84800, Control_c, 0, 2, 80
1, 84800, Note_on_c, 0, 74, 80
1, 85119, Note_on_c, 0, 71, 0
1, 85119, Note_on_c, 0, 74, 0
1, 85120, Note_on_c, 0, 71, 80
1, 85120, Note_on_c, 0, 74, 80
1, 85439, Note_on_c, 0, 71, 0
1, 85439, Note_on_c, 0, 74, 0
1, 85440, Note_on_c, 0, 71, 80
1, 85440, Note_on_c, 0, 74, 80
1, 85799, Note_on_c, 0, 71, 0
1, 85799, Note_on_c, 0, 74, 0
1, 86160, Note_on_c, 0, 64, 80
1, 86160, Note_on_c, 0, 67, 80
1, 86399, Note_on_c, 0, 64, 0
1, 86399, Note_on_c, 0, 67, 0
1, 86400, Note_on_c, 0, 67, 80
1, 86400, Control_c, 0, 2, 80
1, 86400, Note_on_c, 0, 71, 80
1, 86719, Note_on_c, 0, 67, 0
1, 86719, Note_on_c, 0, 71, 0
1, 86720, Note_on_c, 0, 71, 80
1, 86720, Control_c, 0, 2, 80
1, 86720, Note_on_c, 0, 74, 80
1, 87039, Note_on_c, 0, 71, 0
1, 87039, Note_on_c, 0, 74, 0
1, 87040, Note_on_c, 0, 71, 80
1, 87040, Note_on_c, 0, 76, 80
1, 87359, Note_on_c, 0, 71, 0
1, 87359, Note_on_c, 0, 76, 0
1, 87360, Note_on_c, 0, 67, 80
1, 87360, Note_on_c, 0, 71, 80
1, 87839, Note_on_c, 0, 67, 0
1, 87839, Note_on_c, 0, 71, 0
1, 87840, Note_on_c, 0, 69, 80
1, 87959, Note_on_c, 0, 69, 0
1, 87960, Note_on_c, 0, 67, 80
1, 87960, Control_c, 0, 2, 80
1, 88079, Note_on_c, 0, 67, 0
1, 88320, Note_on_c, 0, 62, 80
1, 88320, Note_on_c, 0, 67, 80
1, 89279, Note_on_c, 0, 62, 0
1, 89279, Note_on_c, 0, 67, 0
1, 90000, Note_on_c, 0, 67, 80
1, 90000, Control_c, 0, 2, 80
1, 90239, Note_on_c, 0, 67, 0
1, 90240, Note_on_c, 0, 64, 80
1, 90240, Note_on_c, 0, 67, 80
1, 90240, Note_on_c, 0, 71, 80
1, 90479, Note_on_c, 0, 64, 0
1, 90479, Note_on_c, 0, 67, 0
1, 90479, Note_on_c, 0, 71, 0
1, 90480, Note_on_c, 0, 69, 80
1, 90480, Control_c, 0, 2, 80
1, 90719, Note_on_c, 0, 69, 0
1, 90720, Note_on_c, 0, 71, 80
1, 90959, Note_on_c, 0, 71, 0
1, 90960, Note_on_c, 0, 69, 80
1, 91199, Note_on_c, 0, 69, 0
1, 91200, Note_on_c, 0, 71, 80
1, 91439, Note_on_c, 0, 71, 0
1, 91440, Note_on_c, 0, 69, 80
1, 91440, Control_c, 0, 2, 80
1, 91679, Note_on_c, 0, 69, 0
1, 91680, Note_on_c, 0, 71, 80
1, 91919, Note_on_c, 0, 71, 0
1, 91920, Note_on_c, 0, 69, 80
1, 92159, Note_on_c, 0, 69, 0
1, 92160, Note_on_c, 0, 62, 80
1, 92160, Note_on_c, 0, 67, 80
1, 92160, Note_on_c, 0, 71, 80
1, 92399, Note_on_c, 0, 62, 0
1, 92399, Note_on_c, 0, 67, 0
1, 92399, Note_on_c, 0, 71, 0
1, 92400, Note_on_c, 0, 69, 80
1, 92400, Control_c, 0, 2, 80
1, 92639, Note_on_c, 0, 69, 0
1, 92640, Note_on_c, 0, 71, 80
1, 92759, Note_on_c, 0, 71, 0
1, 92760, Note_on_c, 0, 74, 80
1, 93119, Note_on_c, 0, 74, 0
1, 93120, Note_on_c, 0, 74, 80
1, 93839, Note_on_c, 0, 74, 0
1, 93840, Note_on_c, 0, 74, 80
1, 93840, Control_c, 0, 2, 80
1, 94079, Note_on_c, 0, 74, 0
1, 94080, Note_on_c, 0, 67, 80
1, 94080, Note_on_c, 0, 76, 80
1, 94319, Note_on_c, 0, 67, 0
1, 94319, Note_on_c, 0, 76, 0
1, 94320, Note_on_c, 0, 79, 80
1, 94320, Control_c, 0, 2, 80
1, 94559, Note_on_c, 0, 79, 0
1, 94560, Note_on_c, 0, 76, 80
1, 94799, Note_on_c, 0, 76, 0
1, 94800, Note_on_c, 0, 74, 80
1, 95039, Note_on_c, 0, 74, 0
1, 95040, Note_on_c, 0, 71, 80
1, 95279, Note_on_c, 0, 71, 0
1, 95280, Note_on_c, 0, 71, 80
1, 95280, Control_c, 0, 2, 80
1, 95759, Note_on_c, 0, 71, 0
1, 95760, Note_on_c, 0, 69, 80
1, 95999, Note_on_c, 0, 69, 0
1, 96000, Note_on_c, 0, 62, 80
1, 96000, Note_on_c, 0, 71, 80
1, 96719, Note_on_c, 0, 62, 0
1, 96719, Note_on_c, 0, 71, 0
1, 96720, Note_on_c, 0, 69, 80
1, 96720, Control_c, 0, 2, 80
1, 96959, Note_on_c, 0, 69, 0
1, 96960, Note_on_c, 0, 67, 80
1, 97319, Note_on_c, 0, 67, 0
1, 97680, Note_on_c, 0, 67, 80
1, 97680, Control_c, 0, 2, 80
1, 97919, Note_on_c, 0, 67, 0
1, 97920, Note_on_c, 0, 64, 80
1, 97920, Note_on_c, 0, 67, 80
1, 97920, Note_on_c, 0, 71, 80
1, 98159, Note_on_c, 0, 64, 0
1, 98159, Note_on_c, 0, 67, 0
1, 98159, Note_on_c, 0, 71, 0
1, 98160, Note_on_c, 0, 69, 80
1, 98160, Control_c, 0, 2, 80
1, 98399, Note_on_c, 0, 69, 0
1, 98400, Note_on_c, 0, 71, 80
1, 98639, Note_on_c, 0, 71, 0
1, 98640, Note_on_c, 0, 69, 80
1, 98879, Note_on_c, 0, 69, 0
1, 98880, Note_on_c, 0, 71, 80
1, 99119, Note_on_c, 0, 71, 0
1, 99120, Note_on_c, 0, 69, 80
1, 99120, Control_c, 0, 2, 80
1, 99359, Note_on_c, 0, 69, 0
1, 99360, Note_on_c, 0, 71, 80
1, 99599, Note_on_c, 0, 71, 0
1, 99600, Note_on_c, 0, 69, 80
1, 99839, Note_on_c, 0, 69, 0
1, 99840, Note_on_c, 0, 62, 80
1, 99840, Note_on_c, 0, 67, 80
1, 99840, Note_on_c, 0, 71, 80
1, 99999, Note_on_c, 0, 62, 0
1, 99999, Note_on_c, 0, 67, 0
1, 99999, Note_on_c, 0, 71, 0
1, 100000, Note_on_c, 0, 69, 80
1, 100000, Control_c, 0, 2, 80
1, 100319, Note_on_c, 0, 69, 0
1, 100320, Note_on_c, 0, 71, 80
1, 100559, Note_on_c, 0, 71, 0
1, 100560, Note_on_c, 0, 72, 80
1, 100799, Note_on_c, 0, 72, 0
1, 100800, Note_on_c, 0, 74, 80
1, 101279, Note_on_c, 0, 74, 0
1, 101760, Note_on_c, 0, 67, 80
1, 101760, Control_c, 0, 2, 80
1, 101760, Note_on_c, 0, 76, 80
1, 102079, Note_on_c, 0, 67, 0
1, 102079, Note_on_c, 0, 76, 0
1, 102080, Note_on_c, 0, 79, 80
1, 102080, Control_c, 0, 2, 80
1, 102399, Note_on_c, 0, 79, 0
1, 102400, Note_on_c, 0, 81, 80
1, 102719, Note_on_c, 0, 81, 0
1, 102720, Note_on_c, 0, 83, 80
1, 103039, Note_on_c, 0, 83, 0
1, 103040, Note_on_c, 0, 81, 80
1, 103040, Control_c, 0, 2, 80
1, 103359, Note_on_c, 0, 81, 0
1, 103360, Note_on_c, 0, 79, 80
1, 103679, Note_on_c, 0, 79, 0
1, 103680, Note_on_c, 0, 62, 80
1, 103680, Note_on_c, 0, 79, 80
1, 104159, Note_on_c, 0, 62, 0
1, 104159, Note_on_c, 0, 79, 0
1, 104160, Note_on_c, 0, 74, 80
1, 104160, Control_c, 0, 2, 80
1, 104639, Note_on_c, 0, 74, 0
1, 104640, Note_on_c, 0, 79, 80
1, 105119, Note_on_c, 0, 79, 0
1, 105120, Note_on_c, 0, 69, 80
1, 105120, Control_c, 0, 2, 80
1, 105359, Note_on_c, 0, 69, 0
1, 105360, Note_on_c, 0, 69, 80
1, 105599, Note_on_c, 0, 69, 0
1, 105600, Note_on_c, 0, 64, 80
1, 105600, Note_on_c, 0, 67, 80
1, 105600, Note_on_c, 0, 71, 80
1, 105959, Note_on_c, 0, 64, 0
1, 105959, Note_on_c, 0, 67, 0
1, 105959, Note_on_c, 0, 71, 0
1, 105960, Note_on_c, 0, 69, 80
1, 105960, Control_c, 0, 2, 80
1, 106079, Note_on_c, 0, 69, 0
1, 106080, Note_on_c, 0, 71, 80
1, 106319, Note_on_c, 0, 71, 0
1, 106320, Note_on_c, 0, 69, 80
1, 106559, Note_on_c, 0, 69, 0
1, 106560, Note_on_c, 0, 71, 80
1, 106919, Note_on_c, 0, 71, 0
1, 107280, Note_on_c, 0, 69, 80
1, 107280, Control_c, 0, 2, 80
1, 107519, Note_on_c, 0, 69, 0
1, 107520, Note_on_c, 0, 62, 80
1, 107520, Note_on_c, 0, 67, 80
1, 107520, Note_on_c, 0, 71, 80
1, 107639, Note_on_c, 0, 62, 0
1, 107639, Note_on_c, 0, 67, 0
1, 107639, Note_on_c, 0, 71, 0
1, 107640, Note_on_c, 0, 74, 80
1, 107640, Control_c, 0, 2, 80
1, 107999, Note_on_c, 0, 74, 0
1, 108000, Note_on_c, 0, 76, 80
1, 108479, Note_on_c, 0, 76, 0
1, 108480, Note_on_c, 0, 74, 80
1, 109199, Note_on_c, 0, 74, 0
1, 109200, Note_on_c, 0, 74, 80
1, 109200, Control_c, 0, 2, 80
1, 109439, Note_on_c, 0, 74, 0
1, 109440, Note_on_c, 0, 67, 80
1, 109440, Note_on_c, 0, 76, 80
1, 109759, Note_on_c, 0, 67, 0
1, 109759, Note_on_c, 0, 76, 0
1, 109760, Note_on_c, 0, 74, 80
1, 109760, Control_c, 0, 2, 80
1, 110079, Note_on_c, 0, 74, 0
1, 110080, Note_on_c, 0, 71, 80
1, 110399, Note_on_c, 0, 71, 0
1, 110400, Note_on_c, 0, 76, 80
1, 110639, Note_on_c, 0, 76, 0
1, 110640, Note_on_c, 0, 74, 80
1, 110640, Control_c, 0, 2, 80
1, 110879, Note_on_c, 0, 74, 0
1, 110880, Note_on_c, 0, 71, 80
1, 111119, Note_on_c, 0, 71, 0
1, 111120, Note_on_c, 0, 72, 80
1, 111179, Note_on_c, 0, 72, 0
1, 111300, Note_on_c, 0, 62, 80
1, 111359, Note_on_c, 0, 62, 0
1, 111360, Note_on_c, 0, 74, 80
1, 112079, Note_on_c, 0, 74, 0
1, 112080, Note_on_c, 0, 71, 80
1, 112080, Control_c, 0, 2, 80
1, 112319, Note_on_c, 0, 71, 0
1, 112320, Note_on_c, 0, 71, 80
1, 112379, Note_on_c, 0, 71, 0
1, 113160, Note_on_c, 0, 64, 80
1, 113160, Control_c, 0, 2, 80
1, 113219, Note_on_c, 0, 64, 0
1, 113220, Note_on_c, 0, 67, 80
1, 113279, Note_on_c, 0, 67, 0
1, 113280, Note_on_c, 0, 71, 80
1, 113519, Note_on_c, 0, 71, 0
1, 113520, Note_on_c, 0, 69, 80
1, 113520, Control_c, 0, 2, 80
1, 113759, Note_on_c, 0, 69, 0
1, 113760, Note_on_c, 0, 71, 80
1, 114239, Note_on_c, 0, 71, 0
1, 114240, Note_on_c, 0, 71, 80
1, 114719, Note_on_c, 0, 71, 0
1, 114720, Note_on_c, 0, 74, 80
1, 114720, Control_c, 0, 2, 80
1, 114839, Note_on_c, 0, 74, 0
1, 115020, Note_on_c, 0, 62, 80
1, 115079, Note_on_c, 0, 62, 0
1, 115080, Note_on_c, 0, 67, 80
1, 115139, Note_on_c, 0, 67, 0
1, 115140, Note_on_c, 0, 71, 80
1, 115199, Note_on_c, 0, 71, 0
1, 115200, Note_on_c, 0, 76, 80
1, 115919, Note_on_c, 0, 76, 0
1, 115920, Note_on_c, 0, 71, 80
1, 115920, Control_c, 0, 2, 80
1, 116159, Note_on_c, 0, 71, 0
1, 116160, Note_on_c, 0, 71, 80
1, 116219, Note_on_c, 0, 71, 0
1, 116940, Note_on_c, 0, 60, 80
1, 116940, Control_c, 0, 2, 80
1, 116999, Note_on_c, 0, 60, 0
1, 117000, Note_on_c, 0, 64, 80
1, 117059, Note_on_c, 0, 64, 0
1, 117060, Note_on_c, 0, 67, 80
1, 117119, Note_on_c, 0, 67, 0
1, 117120, Note_on_c, 0, 76, 80
1, 117439, Note_on_c, 0, 76, 0
1, 117440, Note_on_c, 0, 79, 80
1, 117440, Control_c, 0, 2, 80
1, 117759, Note_on_c, 0, 79, 0
1, 117760, Note_on_c, 0, 76, 80
1, 118079, Note_on_c, 0, 76, 0
1, 118080, Note_on_c, 0, 74, 80
1, 118399, Note_on_c, 0, 74, 0
1, 118400, Note_on_c, 0, 71, 80
1, 118400, Control_c, 0, 2, 80
1, 118719, Note_on_c, 0, 71, 0
1, 118720, Note_on_c, 0, 69, 80
1, 119039, Note_on_c, 0, 69, 0
1, 119040, Note_on_c, 0, 62, 80
1, 119040, Note_on_c, 0, 71, 80
1, 119519, Note_on_c, 0, 62, 0
1, 119519, Note_on_c, 0, 71, 0
1, 119520, Note_on_c, 0, 69, 80
1, 119520, Control_c, 0, 2, 80
1, 119999, Note_on_c, 0, 69, 0
1, 120000, Note_on_c, 0, 71, 80
1, 120479, Note_on_c, 0, 71, 0
1, 120480, Note_on_c, 0, 72, 80
1, 120480, Control_c, 0, 2, 80
1, 120959, Note_on_c, 0, 72, 0
1, 120960, Note_on_c, 0, 67, 80
1, 120960, Note_on_c, 0, 76, 80
1, 121919, Note_on_c, 0, 67, 0
1, 121919, Note_on_c, 0, 76, 0
1, 121920, Note_on_c, 0, 74, 80
1, 121920, Control_c, 0, 2, 80
1, 122879, Note_on_c, 0, 74, 0
1, 122880, Note_on_c, 0, 79, 80
1, 123839, Note_on_c, 0, 79, 0
1, 123840, Note_on_c, 0, 81, 80
1, 124799, Note_on_c, 0, 81, 0
1, 124800, Note_on_c, 0, 62, 80
1, 124800, Control_c, 0, 2, 80
1, 124800, Note_on_c, 0, 81, 80
1, 125759, Note_on_c, 0, 62, 0
1, 125759, Note_on_c, 0, 81, 0
1, 128520, Note_on_c, 0, 64, 80
1, 128520, Control_c, 0, 2, 80
1, 128579, Note_on_c, 0, 64, 0
1, 128580, Note_on_c, 0, 67, 80
1, 128639, Note_on_c, 0, 67, 0
1, 128640, Note_on_c, 0, 71, 80
1, 128879, Note_on_c, 0, 71, 0
1, 128880, Note_on_c, 0, 71, 80
1, 128880, Control_c, 0, 2, 80
1, 129119, Note_on_c, 0, 71, 0
1, 129120, Note_on_c, 0, 69, 80
1, 129120, Control_c, 0, 2, 80
1, 129359, Note_on_c, 0, 69, 0
1, 129360, Note_on_c, 0, 71, 80
1, 129360, Control_c, 0, 2, 80
1, 129479, Note_on_c, 0, 71, 0
1, 129480, Note_on_c, 0, 67, 80
1, 129480, Control_c, 0, 2, 80
1, 129539, Note_on_c, 0, 67, 0
1, 129540, Note_on_c, 0, 71, 80
1, 129599, Note_on_c, 0, 71, 0
1, 129600, Note_on_c, 0, 74, 80
1, 130079, Note_on_c, 0, 74, 0
1, 130080, Note_on_c, 0, 67, 80
1, 130080, Control_c, 0, 2, 80
1, 130319, Note_on_c, 0, 67, 0
1, 130500, Note_on_c, 0, 62, 80
1, 130500, Control_c, 0, 2, 80
1, 130559, Note_on_c, 0, 62, 0
1, 130560, Note_on_c, 0, 67, 80
1, 130799, Note_on_c, 0, 67, 0
1, 130800, Note_on_c, 0, 71, 80
1, 130800, Control_c, 0, 2, 80
1, 131039, Note_on_c, 0, 71, 0
1, 131040, Note_on_c, 0, 69, 80
1, 131040, Control_c, 0, 2, 80
1, 131279, Note_on_c, 0, 69, 0
1, 131280, Note_on_c, 0, 74, 80
1, 131280, Control_c, 0, 2, 80
1, 131399, Note_on_c, 0, 74, 0
1, 131400, Note_on_c, 0, 62, 80
1, 131400, Control_c, 0, 2, 80
1, 131459, Note_on_c, 0, 62, 0
1, 131460, Note_on_c, 0, 67, 80
1, 131519, Note_on_c, 0, 67, 0
1, 131520, Note_on_c, 0, 71, 80
1, 131639, Note_on_c, 0, 71, 0
1, 132360, Note_on_c, 0, 64, 80
1, 132360, Control_c, 0, 2, 80
1, 132419, Note_on_c, 0, 64, 0
1, 132420, Note_on_c, 0, 67, 80
1, 132479, Note_on_c, 0, 67, 0
1, 132480, Note_on_c, 0, 72, 80
1, 132719, Note_on_c, 0, 72, 0
1, 132720, Note_on_c, 0, 71, 80
1, 132720, Control_c, 0, 2, 80
1, 132959, Note_on_c, 0, 71, 0
1, 132960, Note_on_c, 0, 72, 80
1, 132960, Control_c, 0, 2, 80
1, 133199, Note_on_c, 0, 72, 0
1, 133200, Note_on_c, 0, 71, 80
1, 133200, Control_c, 0, 2, 80
1, 133319, Note_on_c, 0, 71, 0
1, 133320, Note_on_c, 0, 64, 80
1, 133320, Control_c, 0, 2, 80
1, 133379, Note_on_c, 0, 64, 0
1, 133380, Note_on_c, 0, 67, 80
1, 133439, Note_on_c, 0, 67, 0
1, 133440, Note_on_c, 0, 72, 80
1, 133919, Note_on_c, 0, 72, 0
1, 133920, Note_on_c, 0, 64, 80
1, 133920, Control_c, 0, 2, 80
1, 133920, Note_on_c, 0, 67, 80
1, 134399, Note_on_c, 0, 64, 0
1, 134399, Note_on_c, 0, 67, 0
1, 134400, Note_on_c, 0, 62, 80
1, 134400, Control_c, 0, 2, 80
1, 134879, Note_on_c, 0, 62, 0
1, 134880, Note_on_c, 0, 67, 80
1, 134880, Control_c, 0, 2, 80
1, 134880, Note_on_c, 0, 71, 80
1, 135119, Note_on_c, 0, 67, 0
1, 135119, Note_on_c, 0, 71, 0
1, 135120, Note_on_c, 0, 71, 80
1, 135120, Control_c, 0, 2, 80
1, 135120, Note_on_c, 0, 74, 80
1, 135359, Note_on_c, 0, 71, 0
1, 135359, Note_on_c, 0, 74, 0
1, 135360, Note_on_c, 0, 62, 80
1, 135360, Control_c, 0, 2, 80
1, 135360, Note_on_c, 0, 71, 80
1, 135839, Note_on_c, 0, 62, 0
1, 135839, Note_on_c, 0, 71, 0
1, 135840, Note_on_c, 0, 69, 80
1, 135840, Control_c, 0, 2, 80
1, 135959, Note_on_c, 0, 69, 0
1, 136200, Note_on_c, 0, 64, 80
1, 136200, Control_c, 0, 2, 80
1, 136259, Note_on_c, 0, 64, 0
1, 136260, Note_on_c, 0, 67, 80
1, 136319, Note_on_c, 0, 67, 0
1, 136320, Note_on_c, 0, 71, 80
1, 136559, Note_on_c, 0, 71, 0
1, 136560, Note_on_c, 0, 67, 80
1, 136560, Control_c, 0, 2, 80
1, 136560, Note_on_c, 0, 71, 80
1, 136799, Note_on_c, 0, 67, 0
1, 136799, Note_on_c, 0, 71, 0
1, 136800, Note_on_c, 0, 64, 80
1, 136800, Control_c, 0, 2, 80
1, 136800, Note_on_c, 0, 69, 80
1, 137039, Note_on_c, 0, 64, 0
1, 137039, Note_on_c, 0, 69, 0
1, 137040, Note_on_c, 0, 67, 80
1, 137040, Control_c, 0, 2, 80
1, 137040, Note_on_c, 0, 71, 80
1, 137099, Note_on_c, 0, 67, 0
1, 137099, Note_on_c, 0, 71, 0
1, 137160, Note_on_c, 0, 67, 80
1, 137160, Control_c, 0, 2, 80
1, 137219, Note_on_c, 0, 67, 0
1, 137220, Note_on_c, 0, 71, 80
1, 137279, Note_on_c, 0, 71, 0
1, 137280, Note_on_c, 0, 74, 80
1, 137759, Note_on_c, 0, 74, 0
1, 137760, Note_on_c, 0, 71, 80
1, 137760, Control_c, 0, 2, 80
1, 137760, Note_on_c, 0, 74, 80
1, 137879, Note_on_c, 0, 71, 0
1, 137879, Note_on_c, 0, 74, 0
1, 138060, Note_on_c, 0, 62, 80
1, 138060, Control_c, 0, 2, 80
1, 138119, Note_on_c, 0, 62, 0
1, 138120, Note_on_c, 0, 67, 80
1, 138179, Note_on_c, 0, 67, 0
1, 138180, Note_on_c, 0, 71, 80
1, 138239, Note_on_c, 0, 71, 0
1, 138240, Note_on_c, 0, 76, 80
1, 138479, Note_on_c, 0, 76, 0
1, 138480, Note_on_c, 0, 71, 80
1, 138480, Control_c, 0, 2, 80
1, 138480, Note_on_c, 0, 74, 80
1, 138719, Note_on_c, 0, 71, 0
1, 138719, Note_on_c, 0, 74, 0
1, 138720, Note_on_c, 0, 67, 80
1, 138720, Control_c, 0, 2, 80
1, 138720, Note_on_c, 0, 71, 80
1, 138959, Note_on_c, 0, 67, 0
1, 138959, Note_on_c, 0, 71, 0
1, 138960, Note_on_c, 0, 64, 80
1, 138960, Control_c, 0, 2, 80
1, 138960, Note_on_c, 0, 69, 80
1, 139079, Note_on_c, 0, 64, 0
1, 139079, Note_on_c, 0, 69, 0
1, 139080, Note_on_c, 0, 62, 80
1, 139080, Control_c, 0, 2, 80
1, 139139, Note_on_c, 0, 62, 0
1, 139140, Note_on_c, 0, 67, 80
1, 139199, Note_on_c, 0, 67, 0
1, 139200, Note_on_c, 0, 71, 80
1, 139319, Note_on_c, 0, 71, 0
1, 139980, Note_on_c, 0, 60, 80
1, 139980, Control_c, 0, 2, 80
1, 140039, Note_on_c, 0, 60, 0
1, 140040, Note_on_c, 0, 64, 80
1, 140099, Note_on_c, 0, 64, 0
1, 140100, Note_on_c, 0, 67, 80
1, 140159, Note_on_c, 0, 67, 0
1, 140160, Note_on_c, 0, 72, 80
1, 140399, Note_on_c, 0, 72, 0
1, 140400, Note_on_c, 0, 67, 80
1, 140400, Control_c, 0, 2, 80
1, 140400, Note_on_c, 0, 71, 80
1, 140639, Note_on_c, 0, 67, 0
1, 140639, Note_on_c, 0, 71, 0
1, 140640, Note_on_c, 0, 67, 80
1, 140640, Control_c, 0, 2, 80
1, 140640, Note_on_c, 0, 72, 80
1, 140879, Note_on_c, 0, 67, 0
1, 140879, Note_on_c, 0, 72, 0
1, 140880, Note_on_c, 0, 67, 80
1, 140880, Control_c, 0, 2, 80
1, 140880, Note_on_c, 0, 71, 80
1, 140999, Note_on_c, 0, 67, 0
1, 140999, Note_on_c, 0, 71, 0
1, 141000, Note_on_c, 0, 64, 80
1, 141000, Control_c, 0, 2, 80
1, 141059, Note_on_c, 0, 64, 0
1, 141060, Note_on_c, 0, 67, 80
1, 141119, Note_on_c, 0, 67, 0
1, 141120, Note_on_c, 0, 72, 80
1, 141359, Note_on_c, 0, 72, 0
1, 141360, Note_on_c, 0, 67, 80
1, 141360, Control_c, 0, 2, 80
1, 141360, Note_on_c, 0, 71, 80
1, 141599, Note_on_c, 0, 67, 0
1, 141599, Note_on_c, 0, 71, 0
1, 141600, Note_on_c, 0, 64, 80
1, 141600, Control_c, 0, 2, 80
1, 141600, Note_on_c, 0, 67, 80
1, 141719, Note_on_c, 0, 64, 0
1, 141719, Note_on_c, 0, 67, 0
1, 142080, Note_on_c, 0, 62, 80
1, 142080, Control_c, 0, 2, 80
1, 142559, Note_on_c, 0, 62, 0
1, 142560, Note_on_c, 0, 67, 80
1, 142560, Control_c, 0, 2, 80
1, 142560, Note_on_c, 0, 71, 80
1, 142799, Note_on_c, 0, 67, 0
1, 142799, Note_on_c, 0, 71, 0
1, 142800, Note_on_c, 0, 71, 80
1, 142800, Control_c, 0, 2, 80
1, 142800, Note_on_c, 0, 74, 80
1, 143039, Note_on_c, 0, 71, 0
1, 143039, Note_on_c, 0, 74, 0
1, 143040, Note_on_c, 0, 67, 80
1, 143040, Control_c, 0, 2, 80
1, 143040, Note_on_c, 0, 71, 80
1, 143279, Note_on_c, 0, 67, 0
1, 143279, Note_on_c, 0, 71, 0
1, 143820, Note_on_c, 0, 64, 80
1, 143820, Control_c, 0, 2, 80
1, 143879, Note_on_c, 0, 64, 0
1, 143880, Note_on_c, 0, 67, 80
1, 143939, Note_on_c, 0, 67, 0
1, 143940, Note_on_c, 0, 71, 80
1, 143999, Note_on_c, 0, 71, 0
1, 144000, Note_on_c, 0, 79, 80
1, 144239, Note_on_c, 0, 79, 0
1, 144780, Note_on_c, 0, 64, 80
1, 144780, Control_c, 0, 2, 80
1, 144839, Note_on_c, 0, 64, 0
1, 144840, Note_on_c, 0, 67, 80
1, 144899, Note_on_c, 0, 67, 0
1, 144900, Note_on_c, 0, 71, 80
1, 144959, Note_on_c, 0, 71, 0
1, 144960, Note_on_c, 0, 74, 80
1, 145119, Note_on_c, 0, 74, 0
1, 145120, Note_on_c, 0, 76, 80
1, 145120, Control_c, 0, 2, 80
1, 145279, Note_on_c, 0, 76, 0
1, 145280, Note_on_c, 0, 74, 80
1, 145280, Control_c, 0, 2, 80
1, 145439, Note_on_c, 0, 74, 0
1, 145440, Note_on_c, 0, 72, 80
1, 145679, Note_on_c, 0, 72, 0
1, 145800, Note_on_c, 0, 62, 80
1, 145800, Control_c, 0, 2, 80
1, 145859, Note_on_c, 0, 62, 0
1, 145860, Note_on_c, 0, 67, 80
1, 145919, Note_on_c, 0, 67, 0
1, 145920, Note_on_c, 0, 71, 80
1, 146639, Note_on_c, 0, 71, 0
1, 146640, Note_on_c, 0, 74, 80
1, 146640, Control_c, 0, 2, 80
1, 146759, Note_on_c, 0, 74, 0
1, 146760, Note_on_c, 0, 67, 80
1, 146760, Control_c, 0, 2, 80
1, 146819, Note_on_c, 0, 67, 0
1, 146820, Note_on_c, 0, 71, 80
1, 146879, Note_on_c, 0, 71, 0
1, 146880, Note_on_c, 0, 76, 80
1, 147119, Note_on_c, 0, 76, 0
1, 147120, Note_on_c, 0, 79, 80
1, 147120, Control_c, 0, 2, 80
1, 147359, Note_on_c, 0, 79, 0
1, 147360, Note_on_c, 0, 83, 80
1, 147360, Control_c, 0, 2, 80
1, 147599, Note_on_c, 0, 83, 0
1, 147600, Note_on_c, 0, 81, 80
1, 147600, Control_c, 0, 2, 80
1, 147839, Note_on_c, 0, 81, 0
1, 147840, Note_on_c, 0, 60, 80
1, 147840, Control_c, 0, 2, 80
1, 147840, Note_on_c, 0, 64, 80
1, 147840, Note_on_c, 0, 67, 80
1, 148319, Note_on_c, 0, 60, 0
1, 148319, Note_on_c, 0, 64, 0
1, 148319, Note_on_c, 0, 67, 0
1, 148320, Note_on_c, 0, 79, 80
1, 148320, Control_c, 0, 2, 80
1, 148559, Note_on_c, 0, 79, 0
1, 148620, Note_on_c, 0, 60, 80
1, 148620, Control_c, 0, 2, 80
1, 148679, Note_on_c, 0, 60, 0
1, 148680, Note_on_c, 0, 64, 80
1, 148739, Note_on_c, 0, 64, 0
1, 148740, Note_on_c, 0, 67, 80
1, 148799, Note_on_c, 0, 67, 0
1, 148800, Note_on_c, 0, 74, 80
1, 148879, Note_on_c, 0, 74, 0
1, 148880, Note_on_c, 0, 76, 80
1, 148880, Control_c, 0, 2, 80
1, 149279, Note_on_c, 0, 76, 0
1, 149280, Note_on_c, 0, 74, 80
1, 149280, Control_c, 0, 2, 80
1, 149519, Note_on_c, 0, 74, 0
1, 149520, Note_on_c, 0, 71, 80
1, 149520, Control_c, 0, 2, 80
1, 149759, Note_on_c, 0, 71, 0
1, 149760, Note_on_c, 0, 62, 80
1, 149760, Control_c, 0, 2, 80
1, 149999, Note_on_c, 0, 62, 0
1, 150000, Note_on_c, 0, 69, 80
1, 150000, Control_c, 0, 2, 80
1, 150239, Note_on_c, 0, 69, 0
1, 150240, Note_on_c, 0, 71, 80
1, 150240, Control_c, 0, 2, 80
1, 150719, Note_on_c, 0, 71, 0
1, 150720, Note_on_c, 0, 62, 80
1, 150720, Control_c, 0, 2, 80
1, 151199, Note_on_c, 0, 62, 0
1, 151500, Note_on_c, 0, 64, 80
1, 151500, Control_c, 0, 2, 80
1, 151559, Note_on_c, 0, 64, 0
1, 151560, Note_on_c, 0, 67, 80
1, 151619, Note_on_c, 0, 67, 0
1, 151620, Note_on_c, 0, 71, 80
1, 151679, Note_on_c, 0, 71, 0
1, 151680, Note_on_c, 0, 79, 80
1, 151919, Note_on_c, 0, 79, 0
1, 152460, Note_on_c, 0, 64, 80
1, 152460, Control_c, 0, 2, 80
1, 152519, Note_on_c, 0, 64, 0
1, 152520, Note_on_c, 0, 67, 80
1, 152579, Note_on_c, 0, 67, 0
1, 152580, Note_on_c, 0, 71, 80
1, 152639, Note_on_c, 0, 71, 0
1, 152640, Note_on_c, 0, 76, 80
1, 152879, Note_on_c, 0, 76, 0
1, 153420, Note_on_c, 0, 64, 80
1, 153420, Control_c, 0, 2, 80
1, 153479, Note_on_c, 0, 64, 0
1, 153480, Note_on_c, 0, 67, 80
1, 153539, Note_on_c, 0, 67, 0
1, 153540, Note_on_c, 0, 71, 80
1, 153599, Note_on_c, 0, 71, 0
1, 153600, Note_on_c, 0, 76, 80
1, 153839, Note_on_c, 0, 76, 0
1, 154380, Note_on_c, 0, 64, 80
1, 154380, Control_c, 0, 2, 80
1, 154439, Note_on_c, 0, 64, 0
1, 154440, Note_on_c, 0, 67, 80
1, 154499, Note_on_c, 0, 67, 0
1, 154500, Note_on_c, 0, 71, 80
1, 154559, Note_on_c, 0, 71, 0
1, 154560, Note_on_c, 0, 74, 80
1, 154799, Note_on_c, 0, 74, 0
1, 155400, Note_on_c, 0, 60, 80
1, 155400, Control_c, 0, 2, 80
1, 155459, Note_on_c, 0, 60, 0
1, 155460, Note_on_c, 0, 64, 80
1, 155519, Note_on_c, 0, 64, 0
1, 155520, Note_on_c, 0, 67, 80
1, 155759, Note_on_c, 0, 67, 0
1, 156000, Note_on_c, 0, 71, 80
1, 156000, Control_c, 0, 2, 80
1, 156000, Note_on_c, 0, 74, 80
1, 156239, Note_on_c, 0, 71, 0
1, 156239, Note_on_c, 0, 74, 0
1, 156240, Note_on_c, 0, 67, 80
1, 156240, Control_c, 0, 2, 80
1, 156240, Note_on_c, 0, 71, 80
1, 156359, Note_on_c, 0, 67, 0
1, 156359, Note_on_c, 0, 71, 0
1, 156360, Note_on_c, 0, 67, 80
1, 156360, Control_c, 0, 2, 80
1, 156419, Note_on_c, 0, 67, 0
1, 156420, Note_on_c, 0, 71, 80
1, 156479, Note_on_c, 0, 71, 0
1, 156480, Note_on_c, 0, 74, 80
1, 156959, Note_on_c, 0, 74, 0
1, 156960, Note_on_c, 0, 71, 80
1, 156960, Control_c, 0, 2, 80
1, 156960, Note_on_c, 0, 76, 80
1, 157199, Note_on_c, 0, 71, 0
1, 157199, Note_on_c, 0, 76, 0
1, 157200, Note_on_c, 0, 67, 80
1, 157200, Control_c, 0, 2, 80
1, 157200, Note_on_c, 0, 71, 80
1, 157439, Note_on_c, 0, 67, 0
1, 157439, Note_on_c, 0, 71, 0
1, 157440, Note_on_c, 0, 62, 80
1, 157440, Control_c, 0, 2, 80
1, 157679, Note_on_c, 0, 62, 0
1, 157680, Note_on_c, 0, 64, 80
1, 157680, Control_c, 0, 2, 80
1, 157680, Note_on_c, 0, 69, 80
1, 157919, Note_on_c, 0, 64, 0
1, 157919, Note_on_c, 0, 69, 0
1, 157920, Note_on_c, 0, 67, 80
1, 157920, Control_c, 0, 2, 80
1, 157920, Note_on_c, 0, 71, 80
1, 158159, Note_on_c, 0, 67, 0
1, 158159, Note_on_c, 0, 71, 0
1, 158160, Note_on_c, 0, 64, 80
1, 158160, Control_c, 0, 2, 80
1, 158160, Note_on_c, 0, 69, 80
1, 158399, Note_on_c, 0, 64, 0
1, 158399, Note_on_c, 0, 69, 0
1, 158400, Note_on_c, 0, 67, 80
1, 158400, Control_c, 0, 2, 80
1, 158519, Note_on_c, 0, 67, 0
1, 159240, Note_on_c, 0, 64, 80
1, 159240, Control_c, 0, 2, 80
1, 159299, Note_on_c, 0, 64, 0
1, 159300, Note_on_c, 0, 67, 80
1, 159359, Note_on_c, 0, 67, 0
1, 159360, Note_on_c, 0, 71, 80
1, 159599, Note_on_c, 0, 71, 0
1, 159600, Note_on_c, 0, 74, 80
1, 159600, Control_c, 0, 2, 80
1, 159839, Note_on_c, 0, 74, 0
1, 159840, Note_on_c, 0, 74, 80
1, 160079, Note_on_c, 0, 74, 0
1, 160080, Note_on_c, 0, 71, 80
1, 160319, Note_on_c, 0, 71, 0
1, 160320, Note_on_c, 0, 74, 80
1, 161039, Note_on_c, 0, 74, 0
1, 161040, Note_on_c, 0, 67, 80
1, 161159, Note_on_c, 0, 67, 0
1, 161160, Note_on_c, 0, 62, 80
1, 161219, Note_on_c, 0, 62, 0
1, 161220, Note_on_c, 0, 67, 80
1, 161279, Note_on_c, 0, 67, 0
1, 161280, Note_on_c, 0, 71, 80
1, 161599, Note_on_c, 0, 71, 0
1, 161600, Note_on_c, 0, 74, 80
1, 161600, Control_c, 0, 2, 80
1, 161919, Note_on_c, 0, 74, 0
1, 161920, Note_on_c, 0, 74, 80
1, 162239, Note_on_c, 0, 74, 0
1, 162240, Note_on_c, 0, 74, 80
1, 162599, Note_on_c, 0, 74, 0
1, 162960, Note_on_c, 0, 67, 80
1, 163079, Note_on_c, 0, 67, 0
1, 163080, Note_on_c, 0, 64, 80
1, 163139, Note_on_c, 0, 64, 0
1, 163140, Note_on_c, 0, 67, 80
1, 163199, Note_on_c, 0, 67, 0
1, 163200, Note_on_c, 0, 71, 80
1, 163519, Note_on_c, 0, 71, 0
1, 163520, Note_on_c, 0, 74, 80
1, 163520, Control_c, 0, 2, 80
1, 163839, Note_on_c, 0, 74, 0
1, 163840, Note_on_c, 0, 76, 80
1, 164159, Note_on_c, 0, 76, 0
1, 164160, Note_on_c, 0, 71, 80
1, 164639, Note_on_c, 0, 71, 0
1, 164640, Note_on_c, 0, 69, 80
1, 164879, Note_on_c, 0, 69, 0
1, 164880, Note_on_c, 0, 67, 80
1, 165119, Note_on_c, 0, 67, 0
1, 165120, Note_on_c, 0, 62, 80
1, 165120, Note_on_c, 0, 67, 80
1, 165359, Note_on_c, 0, 62, 0
1, 165359, Note_on_c, 0, 67, 0
1, 166920, Note_on_c, 0, 64, 80
1, 166920, Control_c, 0, 2, 80
1, 166979, Note_on_c, 0, 64, 0
1, 166980, Note_on_c, 0, 67, 80
1, 167039, Note_on_c, 0, 67, 0
1, 167040, Note_on_c, 0, 71, 80
1, 167279, Note_on_c, 0, 71, 0
1, 167280, Note_on_c, 0, 74, 80
1, 167519, Note_on_c, 0, 74, 0
1, 167520, Note_on_c, 0, 74, 80
1, 167759, Note_on_c, 0, 74, 0
1, 167760, Note_on_c, 0, 71, 80
1, 167999, Note_on_c, 0, 71, 0
1, 168000, Note_on_c, 0, 74, 80
1, 168719, Note_on_c, 0, 74, 0
1, 168720, Note_on_c, 0, 67, 80
1, 168839, Note_on_c, 0, 67, 0
1, 168840, Note_on_c, 0, 62, 80
1, 168899, Note_on_c, 0, 62, 0
1, 168900, Note_on_c, 0, 67, 80
1, 168959, Note_on_c, 0, 67, 0
1, 168960, Note_on_c, 0, 71, 80
1, 169279, Note_on_c, 0, 71, 0
1, 169280, Note_on_c, 0, 74, 80
1, 169599, Note_on_c, 0, 74, 0
1, 169600, Note_on_c, 0, 74, 80
1, 169919, Note_on_c, 0, 74, 0
1, 169920, Note_on_c, 0, 74, 80
1, 170279, Note_on_c, 0, 74, 0
1, 170640, Note_on_c, 0, 67, 80
1, 170759, Note_on_c, 0, 67, 0
1, 170760, Note_on_c, 0, 64, 80
1, 170819, Note_on_c, 0, 64, 0
1, 170820, Note_on_c, 0, 67, 80
1, 170879, Note_on_c, 0, 67, 0
1, 170880, Note_on_c, 0, 71, 80
1, 171199, Note_on_c, 0, 71, 0
1, 171200, Note_on_c, 0, 74, 80
1, 171519, Note_on_c, 0, 74, 0
1, 171520, Note_on_c, 0, 76, 80
1, 171839, Note_on_c, 0, 76, 0
1, 171840, Note_on_c, 0, 71, 80
1, 172319, Note_on_c, 0, 71, 0
1, 172320, Note_on_c, 0, 69, 80
1, 172559, Note_on_c, 0, 69, 0
1, 172560, Note_on_c, 0, 67, 80
1, 172799, Note_on_c, 0, 67, 0
1, 172800, Note_on_c, 0, 62, 80
1, 172800, Note_on_c, 0, 67, 80
1, 173759, Note_on_c, 0, 62, 0
1, 173759, Note_on_c, 0, 67, 0
1, 174720, Control_c, 0, 64, 0
1, 174721, End_track
2, 0, Start_track
2, 0, Title_t, "Piano\000"
2, 0, Key_signature, 0, "major"
2, 0, Control_c, 1, 121, 0
2, 0, Program_c, 1, 0
2, 0, Control_c, 1, 7, 100
2, 0, Control_c, 1, 10, 64
2, 0, Control_c, 1, 91, 0
2, 0, Control_c, 1, 93, 0
2, 0, MIDI_port, 0
2, 0, Note_on_c, 1, 52, 80
2, 0, Note_on_c, 1, 59, 80
2, 2, Control_c, 1, 64, 127
2, 1367, Note_on_c, 1, 52, 0
2, 1367, Note_on_c, 1, 59, 0
2, 1440, Note_on_c, 1, 50, 80
2, 1440, Note_on_c, 1, 59, 80
2, 2807, Note_on_c, 1, 50, 0
2, 2807, Note_on_c, 1, 59, 0
2, 2880, Note_on_c, 1, 48, 80
2, 2880, Note_on_c, 1, 55, 80
2, 4247, Note_on_c, 1, 48, 0
2, 4247, Note_on_c, 1, 55, 0
2, 4320, Note_on_c, 1, 50, 80
2, 4433, Note_on_c, 1, 50, 0
2, 5760, Note_on_c, 1, 52, 80
2, 5760, Note_on_c, 1, 59, 80
2, 7127, Note_on_c, 1, 52, 0
2, 7127, Note_on_c, 1, 59, 0
2, 7200, Note_on_c, 1, 50, 80
2, 7200, Note_on_c, 1, 59, 80
2, 8567, Note_on_c, 1, 50, 0
2, 8567, Note_on_c, 1, 59, 0
2, 8640, Note_on_c, 1, 48, 80
2, 8640, Note_on_c, 1, 55, 80
2, 8867, Note_on_c, 1, 48, 0
2, 8867, Note_on_c, 1, 55, 0
2, 9960, Note_on_c, 1, 59, 80
2, 9997, Note_on_c, 1, 59, 0
2, 10080, Note_on_c, 1, 50, 80
2, 10080, Note_on_c, 1, 55, 80
2, 10307, Note_on_c, 1, 50, 0
2, 10307, Note_on_c, 1, 55, 0
2, 11400, Note_on_c, 1, 59, 80
2, 11437, Note_on_c, 1, 59, 0
2, 11520, Note_on_c, 1, 52, 80
2, 12887, Note_on_c, 1, 52, 0
2, 12960, Note_on_c, 1, 50, 80
2, 12960, Note_on_c, 1, 59, 80
2, 14327, Note_on_c, 1, 50, 0
2, 14327, Note_on_c, 1, 59, 0
2, 14400, Note_on_c, 1, 48, 80
2, 14400, Note_on_c, 1, 55, 80
2, 14400, Note_on_c, 1, 60, 80
2, 15767, Note_on_c, 1, 48, 0
2, 15767, Note_on_c, 1, 55, 0
2, 15767, Note_on_c, 1, 60, 0
2, 15840, Note_on_c, 1, 50, 80
2, 15840, Note_on_c, 1, 55, 80
2, 15840, Note_on_c, 1, 59, 80
2, 17207, Note_on_c, 1, 50, 0
2, 17207, Note_on_c, 1, 55, 0
2, 17207, Note_on_c, 1, 59, 0
2, 17280, Note_on_c, 1, 52, 80
2, 17280, Note_on_c, 1, 59, 80
2, 18647, Note_on_c, 1, 52, 0
2, 18647, Note_on_c, 1, 59, 0
2, 18720, Note_on_c, 1, 50, 80
2, 18720, Note_on_c, 1, 59, 80
2, 20087, Note_on_c, 1, 50, 0
2, 20087, Note_on_c, 1, 59, 0
2, 20160, Note_on_c, 1, 48, 80
2, 20160, Note_on_c, 1, 55, 80
2, 20387, Note_on_c, 1, 48, 0
2, 20387, Note_on_c, 1, 55, 0
2, 21480, Note_on_c, 1, 59, 80
2, 21517, Note_on_c, 1, 59, 0
2, 21600, Note_on_c, 1, 50, 80
2, 21600, Note_on_c, 1, 55, 80
2, 22967, Note_on_c, 1, 50, 0
2, 22967, Note_on_c, 1, 55, 0
2, 23040, Note_on_c, 1, 52, 80
2, 23040, Note_on_c, 1, 59, 80
2, 24407, Note_on_c, 1, 52, 0
2, 24407, Note_on_c, 1, 59, 0
2, 24480, Note_on_c, 1, 50, 80
2, 24480, Note_on_c, 1, 59, 80
2, 25847, Note_on_c, 1, 50, 0
2, 25847, Note_on_c, 1, 59, 0
2, 25920, Note_on_c, 1, 48, 80
2, 25920, Note_on_c, 1, 55, 80
2, 27287, Note_on_c, 1, 48, 0
2, 27287, Note_on_c, 1, 55, 0
2, 27360, Note_on_c, 1, 50, 80
2, 27360, Note_on_c, 1, 55, 80
2, 27360, Note_on_c, 1, 59, 80
2, 28727, Note_on_c, 1, 50, 0
2, 28727, Note_on_c, 1, 55, 0
2, 28727, Note_on_c, 1, 59, 0
2, 28800, Note_on_c, 1, 52, 80
2, 28800, Note_on_c, 1, 59, 80
2, 30623, Note_on_c, 1, 52, 0
2, 30623, Note_on_c, 1, 59, 0
2, 30720, Note_on_c, 1, 50, 80
2, 30720, Note_on_c, 1, 55, 80
2, 30720, Note_on_c, 1, 59, 80
2, 32543, Note_on_c, 1, 50, 0
2, 32543, Note_on_c, 1, 55, 0
2, 32543, Note_on_c, 1, 59, 0
2, 32640, Note_on_c, 1, 48, 80
2, 32640, Note_on_c, 1, 55, 80
2, 34463, Note_on_c, 1, 48, 0
2, 34463, Note_on_c, 1, 55, 0
2, 34560, Note_on_c, 1, 50, 80
2, 34560, Note_on_c, 1, 55, 80
2, 34560, Note_on_c, 1, 59, 80
2, 36383, Note_on_c, 1, 50, 0
2, 36383, Note_on_c, 1, 55, 0
2, 36383, Note_on_c, 1, 59, 0
2, 36480, Note_on_c, 1, 48, 80
2, 36480, Note_on_c, 1, 55, 80
2, 36480, Note_on_c, 1, 60, 80
2, 38303, Note_on_c, 1, 60, 0
2, 40127, Note_on_c, 1, 48, 0
2, 40127, Note_on_c, 1, 55, 0
2, 40320, Note_on_c, 1, 50, 80
2, 40320, Note_on_c, 1, 57, 80
2, 42143, Note_on_c, 1, 50, 0
2, 42143, Note_on_c, 1, 57, 0
2, 44160, Note_on_c, 1, 59, 80
2, 44160, Note_on_c, 1, 52, 80
2, 45071, Note_on_c, 1, 59, 0
2, 45120, Note_on_c, 1, 59, 80
2, 45120, Note_on_c, 1, 64, 80
2, 45983, Note_on_c, 1, 52, 0
2, 46031, Note_on_c, 1, 59, 0
2, 46031, Note_on_c, 1, 64, 0
2, 46080, Note_on_c, 1, 59, 80
2, 46080, Note_on_c, 1, 50, 80
2, 46991, Note_on_c, 1, 59, 0
2, 47040, Note_on_c, 1, 59, 80
2, 47903, Note_on_c, 1, 50, 0
2, 47951, Note_on_c, 1, 59, 0
2, 48000, Note_on_c, 1, 55, 80
2, 48000, Note_on_c, 1, 48, 80
2, 48911, Note_on_c, 1, 55, 0
2, 48960, Note_on_c, 1, 55, 80
2, 49823, Note_on_c, 1, 48, 0
2, 49871, Note_on_c, 1, 55, 0
2, 49920, Note_on_c, 1, 50, 80
2, 49920, Note_on_c, 1, 55, 80
2, 49920, Note_on_c, 1, 59, 80
2, 50831, Note_on_c, 1, 50, 0
2, 50831, Note_on_c, 1, 55, 0
2, 50831, Note_on_c, 1, 59, 0
2, 50880, Note_on_c, 1, 50, 80
2, 50880, Note_on_c, 1, 55, 80
2, 50880, Note_on_c, 1, 59, 80
2, 51791, Note_on_c, 1, 50, 0
2, 51791, Note_on_c, 1, 55, 0
2, 51791, Note_on_c, 1, 59, 0
2, 51840, Note_on_c, 1, 59, 80
2, 51840, Note_on_c, 1, 52, 80
2, 52751, Note_on_c, 1, 59, 0
2, 52800, Note_on_c, 1, 59, 80
2, 52800, Note_on_c, 1, 64, 80
2, 53027, Note_on_c, 1, 59, 0
2, 53027, Note_on_c, 1, 64, 0
2, 53663, Note_on_c, 1, 52, 0
2, 53760, Note_on_c, 1, 59, 80
2, 53760, Note_on_c, 1, 50, 80
2, 54671, Note_on_c, 1, 59, 0
2, 54720, Note_on_c, 1, 59, 80
2, 55583, Note_on_c, 1, 50, 0
2, 55631, Note_on_c, 1, 59, 0
2, 55680, Note_on_c, 1, 55, 80
2, 55680, Note_on_c, 1, 48, 80
2, 56591, Note_on_c, 1, 55, 0
2, 56640, Note_on_c, 1, 55, 80
2, 57503, Note_on_c, 1, 48, 0
2, 57551, Note_on_c, 1, 55, 0
2, 57600, Note_on_c, 1, 50, 80
2, 57600, Note_on_c, 1, 55, 80
2, 57600, Note_on_c, 1, 59, 80
2, 58511, Note_on_c, 1, 50, 0
2, 58511, Note_on_c, 1, 55, 0
2, 58511, Note_on_c, 1, 59, 0
2, 58560, Note_on_c, 1, 50, 80
2, 58560, Note_on_c, 1, 55, 80
2, 58560, Note_on_c, 1, 59, 80
2, 59471, Note_on_c, 1, 50, 0
2, 59471, Note_on_c, 1, 55, 0
2, 59471, Note_on_c, 1, 59, 0
2, 59520, Note_on_c, 1, 59, 80
2, 59520, Note_on_c, 1, 52, 80
2, 60431, Note_on_c, 1, 59, 0
2, 60480, Note_on_c, 1, 59, 80
2, 60480, Note_on_c, 1, 64, 80
2, 60935, Note_on_c, 1, 59, 0
2, 60935, Note_on_c, 1, 64, 0
2, 60960, Note_on_c, 1, 52, 0
2, 60960, Note_on_c, 1, 52, 80
2, 61415, Note_on_c, 1, 52, 0
2, 61440, Note_on_c, 1, 59, 80
2, 61440, Note_on_c, 1, 50, 80
2, 62351, Note_on_c, 1, 59, 0
2, 62400, Note_on_c, 1, 59, 80
2, 62400, Note_on_c, 1, 62, 80
2, 62855, Note_on_c, 1, 59, 0
2, 62855, Note_on_c, 1, 62, 0
2, 62880, Note_on_c, 1, 50, 0
2, 62880, Note_on_c, 1, 50, 80
2, 63335, Note_on_c, 1, 50, 0
2, 63360, Note_on_c, 1, 55, 80
2, 63360, Note_on_c, 1, 48, 80
2, 64271, Note_on_c, 1, 55, 0
2, 64320, Note_on_c, 1, 55, 80
2, 65183, Note_on_c, 1, 48, 0
2, 65231, Note_on_c, 1, 55, 0
2, 65280, Note_on_c, 1, 50, 80
2, 65280, Note_on_c, 1, 55, 80
2, 65280, Note_on_c, 1, 59, 80
2, 65507, Note_on_c, 1, 50, 0
2, 65507, Note_on_c, 1, 55, 0
2, 65507, Note_on_c, 1, 59, 0
2, 66240, Note_on_c, 1, 50, 80
2, 66240, Note_on_c, 1, 55, 80
2, 66240, Note_on_c, 1, 59, 80
2, 67151, Note_on_c, 1, 50, 0
2, 67151, Note_on_c, 1, 55, 0
2, 67151, Note_on_c, 1, 59, 0
2, 67200, Note_on_c, 1, 59, 80
2, 67200, Note_on_c, 1, 52, 80
2, 68111, Note_on_c, 1, 59, 0
2, 68160, Note_on_c, 1, 59, 80
2, 68160, Note_on_c, 1, 64, 80
2, 68615, Note_on_c, 1, 59, 0
2, 68615, Note_on_c, 1, 64, 0
2, 68640, Note_on_c, 1, 52, 0
2, 68640, Note_on_c, 1, 52, 80
2, 69095, Note_on_c, 1, 52, 0
2, 69120, Note_on_c, 1, 59, 80
2, 69120, Note_on_c, 1, 50, 80
2, 70031, Note_on_c, 1, 59, 0
2, 70080, Note_on_c, 1, 59, 80
2, 70080, Note_on_c, 1, 62, 80
2, 70943, Note_on_c, 1, 50, 0
2, 70991, Note_on_c, 1, 59, 0
2, 70991, Note_on_c, 1, 62, 0
2, 71040, Note_on_c, 1, 55, 80
2, 71040, Note_on_c, 1, 48, 80
2, 71951, Note_on_c, 1, 55, 0
2, 72000, Note_on_c, 1, 55, 80
2, 72863, Note_on_c, 1, 48, 0
2, 72911, Note_on_c, 1, 55, 0
2, 72960, Note_on_c, 1, 50, 80
2, 72960, Note_on_c, 1, 55, 80
2, 72960, Note_on_c, 1, 59, 80
2, 73871, Note_on_c, 1, 50, 0
2, 73871, Note_on_c, 1, 55, 0
2, 73871, Note_on_c, 1, 59, 0
2, 73920, Note_on_c, 1, 50, 80
2, 73920, Note_on_c, 1, 55, 80
2, 73920, Note_on_c, 1, 59, 80
2, 74831, Note_on_c, 1, 50, 0
2, 74831, Note_on_c, 1, 55, 0
2, 74831, Note_on_c, 1, 59, 0
2, 74880, Note_on_c, 1, 52, 80
2, 74880, Note_on_c, 1, 59, 80
2, 76703, Note_on_c, 1, 52, 0
2, 76703, Note_on_c, 1, 59, 0
2, 76800, Note_on_c, 1, 50, 80
2, 76800, Note_on_c, 1, 59, 80
2, 78623, Note_on_c, 1, 50, 0
2, 78623, Note_on_c, 1, 59, 0
2, 78720, Note_on_c, 1, 48, 80
2, 78720, Note_on_c, 1, 55, 80
2, 80543, Note_on_c, 1, 48, 0
2, 80543, Note_on_c, 1, 55, 0
2, 80640, Note_on_c, 1, 50, 80
2, 80640, Note_on_c, 1, 55, 80
2, 80640, Note_on_c, 1, 59, 80
2, 81551, Note_on_c, 1, 50, 0
2, 81551, Note_on_c, 1, 55, 0
2, 81551, Note_on_c, 1, 59, 0
2, 81600, Note_on_c, 1, 50, 80
2, 81600, Note_on_c, 1, 55, 80
2, 81600, Note_on_c, 1, 59, 80
2, 82511, Note_on_c, 1, 50, 0
2, 82511, Note_on_c, 1, 55, 0
2, 82511, Note_on_c, 1, 59, 0
2, 82560, Note_on_c, 1, 52, 80
2, 82560, Note_on_c, 1, 59, 80
2, 84383, Note_on_c, 1, 52, 0
2, 84383, Note_on_c, 1, 59, 0
2, 84480, Note_on_c, 1, 50, 80
2, 84480, Note_on_c, 1, 59, 80
2, 86303, Note_on_c, 1, 50, 0
2, 86303, Note_on_c, 1, 59, 0
2, 86400, Note_on_c, 1, 48, 80
2, 86400, Note_on_c, 1, 55, 80
2, 88223, Note_on_c, 1, 48, 0
2, 88223, Note_on_c, 1, 55, 0
2, 88320, Note_on_c, 1, 50, 80
2, 88320, Note_on_c, 1, 55, 80
2, 88320, Note_on_c, 1, 59, 80
2, 89231, Note_on_c, 1, 50, 0
2, 89231, Note_on_c, 1, 55, 0
2, 89231, Note_on_c, 1, 59, 0
2, 89280, Note_on_c, 1, 50, 80
2, 89280, Note_on_c, 1, 55, 80
2, 89280, Note_on_c, 1, 59, 80
2, 90191, Note_on_c, 1, 50, 0
2, 90191, Note_on_c, 1, 55, 0
2, 90191, Note_on_c, 1, 59, 0
2, 90240, Note_on_c, 1, 52, 80
2, 90240, Note_on_c, 1, 59, 80
2, 91151, Note_on_c, 1, 52, 0
2, 91151, Note_on_c, 1, 59, 0
2, 91200, Note_on_c, 1, 52, 80
2, 91200, Note_on_c, 1, 59, 80
2, 92111, Note_on_c, 1, 52, 0
2, 92111, Note_on_c, 1, 59, 0
2, 92160, Note_on_c, 1, 50, 80
2, 92160, Note_on_c, 1, 59, 80
2, 92615, Note_on_c, 1, 50, 0
2, 92615, Note_on_c, 1, 59, 0
2, 93120, Note_on_c, 1, 50, 80
2, 93120, Note_on_c, 1, 59, 80
2, 93575, Note_on_c, 1, 50, 0
2, 93575, Note_on_c, 1, 59, 0
2, 94080, Note_on_c, 1, 48, 80
2, 94080, Note_on_c, 1, 55, 80
2, 94080, Note_on_c, 1, 60, 80
2, 94080, Note_on_c, 1, 64, 80
2, 94991, Note_on_c, 1, 48, 0
2, 94991, Note_on_c, 1, 55, 0
2, 94991, Note_on_c, 1, 60, 0
2, 94991, Note_on_c, 1, 64, 0
2, 95040, Note_on_c, 1, 48, 80
2, 95040, Note_on_c, 1, 55, 80
2, 95951, Note_on_c, 1, 48, 0
2, 95951, Note_on_c, 1, 55, 0
2, 96000, Note_on_c, 1, 50, 80
2, 96000, Note_on_c, 1, 55, 80
2, 96000, Note_on_c, 1, 59, 80
2, 96911, Note_on_c, 1, 50, 0
2, 96911, Note_on_c, 1, 55, 0
2, 96911, Note_on_c, 1, 59, 0
2, 96960, Note_on_c, 1, 50, 80
2, 96960, Note_on_c, 1, 55, 80
2, 96960, Note_on_c, 1, 59, 80
2, 97871, Note_on_c, 1, 50, 0
2, 97871, Note_on_c, 1, 55, 0
2, 97871, Note_on_c, 1, 59, 0
2, 97920, Note_on_c, 1, 52, 80
2, 97920, Note_on_c, 1, 59, 80
2, 98831, Note_on_c, 1, 52, 0
2, 98831, Note_on_c, 1, 59, 0
2, 98880, Note_on_c, 1, 52, 80
2, 98880, Note_on_c, 1, 59, 80
2, 99791, Note_on_c, 1, 52, 0
2, 99791, Note_on_c, 1, 59, 0
2, 99840, Note_on_c, 1, 50, 80
2, 99840, Note_on_c, 1, 59, 80
2, 100295, Note_on_c, 1, 50, 0
2, 100295, Note_on_c, 1, 59, 0
2, 100800, Note_on_c, 1, 50, 80
2, 100800, Note_on_c, 1, 59, 80
2, 101255, Note_on_c, 1, 50, 0
2, 101255, Note_on_c, 1, 59, 0
2, 101760, Note_on_c, 1, 48, 80
2, 101760, Note_on_c, 1, 55, 80
2, 101760, Note_on_c, 1, 60, 80
2, 101760, Note_on_c, 1, 64, 80
2, 102671, Note_on_c, 1, 48, 0
2, 102671, Note_on_c, 1, 55, 0
2, 102671, Note_on_c, 1, 60, 0
2, 102671, Note_on_c, 1, 64, 0
2, 102720, Note_on_c, 1, 48, 80
2, 102720, Note_on_c, 1, 55, 80
2, 102720, Note_on_c, 1, 60, 80
2, 103631, Note_on_c, 1, 48, 0
2, 103631, Note_on_c, 1, 55, 0
2, 103631, Note_on_c, 1, 60, 0
2, 103680, Note_on_c, 1, 50, 80
2, 103680, Note_on_c, 1, 55, 80
2, 103680, Note_on_c, 1, 59, 80
2, 104591, Note_on_c, 1, 50, 0
2, 104591, Note_on_c, 1, 55, 0
2, 104591, Note_on_c, 1, 59, 0
2, 104640, Note_on_c, 1, 50, 80
2, 104640, Note_on_c, 1, 55, 80
2, 104640, Note_on_c, 1, 59, 80
2, 105551, Note_on_c, 1, 50, 0
2, 105551, Note_on_c, 1, 55, 0
2, 105551, Note_on_c, 1, 59, 0
2, 105600, Note_on_c, 1, 52, 80
2, 105600, Note_on_c, 1, 59, 80
2, 106511, Note_on_c, 1, 52, 0
2, 106511, Note_on_c, 1, 59, 0
2, 106560, Note_on_c, 1, 52, 80
2, 106560, Note_on_c, 1, 59, 80
2, 107471, Note_on_c, 1, 52, 0
2, 107471, Note_on_c, 1, 59, 0
2, 107520, Note_on_c, 1, 50, 80
2, 107520, Note_on_c, 1, 59, 80
2, 107975, Note_on_c, 1, 50, 0
2, 107975, Note_on_c, 1, 59, 0
2, 108480, Note_on_c, 1, 50, 80
2, 108480, Note_on_c, 1, 59, 80
2, 108935, Note_on_c, 1, 50, 0
2, 108935, Note_on_c, 1, 59, 0
2, 109440, Note_on_c, 1, 48, 80
2, 109440, Note_on_c, 1, 55, 80
2, 109440, Note_on_c, 1, 60, 80
2, 109440, Note_on_c, 1, 64, 80
2, 110351, Note_on_c, 1, 48, 0
2, 110351, Note_on_c, 1, 55, 0
2, 110351, Note_on_c, 1, 60, 0
2, 110351, Note_on_c, 1, 64, 0
2, 110400, Note_on_c, 1, 48, 80
2, 110400, Note_on_c, 1, 55, 80
2, 110400, Note_on_c, 1, 60, 80
2, 111311, Note_on_c, 1, 48, 0
2, 111311, Note_on_c, 1, 55, 0
2, 111311, Note_on_c, 1, 60, 0
2, 111360, Note_on_c, 1, 50, 80
2, 111360, Note_on_c, 1, 55, 80
2, 111360, Note_on_c, 1, 59, 80
2, 112271, Note_on_c, 1, 50, 0
2, 112271, Note_on_c, 1, 55, 0
2, 112271, Note_on_c, 1, 59, 0
2, 112320, Note_on_c, 1, 50, 80
2, 112320, Note_on_c, 1, 55, 80
2, 112320, Note_on_c, 1, 59, 80
2, 113231, Note_on_c, 1, 50, 0
2, 113231, Note_on_c, 1, 55, 0
2, 113231, Note_on_c, 1, 59, 0
2, 113280, Note_on_c, 1, 52, 80
2, 113280, Note_on_c, 1, 59, 80
2, 114191, Note_on_c, 1, 52, 0
2, 114191, Note_on_c, 1, 59, 0
2, 114240, Note_on_c, 1, 52, 80
2, 114240, Note_on_c, 1, 59, 80
2, 115151, Note_on_c, 1, 52, 0
2, 115151, Note_on_c, 1, 59, 0
2, 115200, Note_on_c, 1, 50, 80
2, 115200, Note_on_c, 1, 59, 80
2, 115655, Note_on_c, 1, 50, 0
2, 115655, Note_on_c, 1, 59, 0
2, 116160, Note_on_c, 1, 50, 80
2, 116160, Note_on_c, 1, 59, 80
2, 116615, Note_on_c, 1, 50, 0
2, 116615, Note_on_c, 1, 59, 0
2, 117120, Note_on_c, 1, 48, 80
2, 117120, Note_on_c, 1, 55, 80
2, 117120, Note_on_c, 1, 60, 80
2, 117120, Note_on_c, 1, 64, 80
2, 118031, Note_on_c, 1, 48, 0
2, 118031, Note_on_c, 1, 55, 0
2, 118031, Note_on_c, 1, 60, 0
2, 118031, Note_on_c, 1, 64, 0
2, 118080, Note_on_c, 1, 48, 80
2, 118080, Note_on_c, 1, 55, 80
2, 118080, Note_on_c, 1, 60, 80
2, 118991, Note_on_c, 1, 48, 0
2, 118991, Note_on_c, 1, 55, 0
2, 118991, Note_on_c, 1, 60, 0
2, 119040, Note_on_c, 1, 50, 80
2, 119040, Note_on_c, 1, 55, 80
2, 119040, Note_on_c, 1, 59, 80
2, 119951, Note_on_c, 1, 50, 0
2, 119951, Note_on_c, 1, 55, 0
2, 119951, Note_on_c, 1, 59, 0
2, 120000, Note_on_c, 1, 50, 80
2, 120000, Note_on_c, 1, 55, 80
2, 120000, Note_on_c, 1, 59, 80
2, 120911, Note_on_c, 1, 50, 0
2, 120911, Note_on_c, 1, 55, 0
2, 120911, Note_on_c, 1, 59, 0
2, 120960, Note_on_c, 1, 48, 80
2, 120960, Note_on_c, 1, 55, 80
2, 120960, Note_on_c, 1, 60, 80
2, 120960, Note_on_c, 1, 64, 80
2, 122783, Note_on_c, 1, 60, 0
2, 122783, Note_on_c, 1, 64, 0
2, 123695, Note_on_c, 1, 48, 0
2, 123695, Note_on_c, 1, 55, 0
2, 123840, Note_on_c, 1, 48, 80
2, 123840, Note_on_c, 1, 55, 80
2, 123840, Note_on_c, 1, 60, 80
2, 123840, Note_on_c, 1, 64, 80
2, 124751, Note_on_c, 1, 48, 0
2, 124751, Note_on_c, 1, 55, 0
2, 124751, Note_on_c, 1, 60, 0
2, 124751, Note_on_c, 1, 64, 0
2, 124800, Note_on_c, 1, 50, 80
2, 124800, Note_on_c, 1, 57, 80
2, 126623, Note_on_c, 1, 50, 0
2, 126623, Note_on_c, 1, 57, 0
2, 128640, Note_on_c, 1, 52, 80
2, 128640, Note_on_c, 1, 59, 80
2, 128867, Note_on_c, 1, 52, 0
2, 128867, Note_on_c, 1, 59, 0
2, 129600, Note_on_c, 1, 59, 80
2, 129600, Note_on_c, 1, 64, 80
2, 129827, Note_on_c, 1, 59, 0
2, 129827, Note_on_c, 1, 64, 0
2, 130560, Note_on_c, 1, 59, 80
2, 131471, Note_on_c, 1, 59, 0
2, 131520, Note_on_c, 1, 59, 80
2, 132431, Note_on_c, 1, 59, 0
2, 132480, Note_on_c, 1, 55, 80
2, 132480, Note_on_c, 1, 48, 80
2, 133391, Note_on_c, 1, 55, 0
2, 133440, Note_on_c, 1, 55, 80
2, 133440, Note_on_c, 1, 60, 80
2, 133667, Note_on_c, 1, 55, 0
2, 133667, Note_on_c, 1, 60, 0
2, 134280, Note_on_c, 1, 55, 80
2, 134303, Note_on_c, 1, 48, 0
2, 134336, Note_on_c, 1, 55, 0
2, 134340, Note_on_c, 1, 59, 80
2, 134396, Note_on_c, 1, 59, 0
2, 134400, Note_on_c, 1, 50, 80
2, 134627, Note_on_c, 1, 50, 0
2, 135120, Note_on_c, 1, 55, 80
2, 135233, Note_on_c, 1, 55, 0
2, 135240, Note_on_c, 1, 59, 80
2, 135353, Note_on_c, 1, 59, 0
2, 135360, Note_on_c, 1, 50, 80
2, 135587, Note_on_c, 1, 50, 0
2, 136320, Note_on_c, 1, 59, 80
2, 136320, Note_on_c, 1, 52, 80
2, 137231, Note_on_c, 1, 59, 0
2, 137280, Note_on_c, 1, 59, 80
2, 137280, Note_on_c, 1, 64, 80
2, 138143, Note_on_c, 1, 52, 0
2, 138191, Note_on_c, 1, 59, 0
2, 138191, Note_on_c, 1, 64, 0
2, 138240, Note_on_c, 1, 59, 80
2, 138240, Note_on_c, 1, 50, 80
2, 139151, Note_on_c, 1, 59, 0
2, 139200, Note_on_c, 1, 59, 80
2, 140063, Note_on_c, 1, 50, 0
2, 140111, Note_on_c, 1, 59, 0
2, 140160, Note_on_c, 1, 55, 80
2, 140160, Note_on_c, 1, 48, 80
2, 141071, Note_on_c, 1, 55, 0
2, 141120, Note_on_c, 1, 55, 80
2, 141120, Note_on_c, 1, 60, 80
2, 141347, Note_on_c, 1, 55, 0
2, 141347, Note_on_c, 1, 60, 0
2, 141960, Note_on_c, 1, 55, 80
2, 141983, Note_on_c, 1, 48, 0
2, 142016, Note_on_c, 1, 55, 0
2, 142020, Note_on_c, 1, 59, 80
2, 142076, Note_on_c, 1, 59, 0
2, 142080, Note_on_c, 1, 50, 80
2, 142991, Note_on_c, 1, 50, 0
2, 143040, Note_on_c, 1, 50, 80
2, 143951, Note_on_c, 1, 50, 0
2, 144000, Note_on_c, 1, 59, 80
2, 144000, Note_on_c, 1, 52, 80
2, 144911, Note_on_c, 1, 59, 0
2, 144960, Note_on_c, 1, 59, 80
2, 145823, Note_on_c, 1, 52, 0
2, 145871, Note_on_c, 1, 59, 0
2, 145920, Note_on_c, 1, 59, 80
2, 145920, Note_on_c, 1, 50, 80
2, 146831, Note_on_c, 1, 59, 0
2, 146880, Note_on_c, 1, 59, 80
2, 147107, Note_on_c, 1, 59, 0
2, 147743, Note_on_c, 1, 50, 0
2, 147840, Note_on_c, 1, 55, 80
2, 147840, Note_on_c, 1, 48, 80
2, 148751, Note_on_c, 1, 55, 0
2, 148800, Note_on_c, 1, 55, 80
2, 149663, Note_on_c, 1, 48, 0
2, 149711, Note_on_c, 1, 55, 0
2, 149760, Note_on_c, 1, 50, 80
2, 149760, Note_on_c, 1, 55, 80
2, 149760, Note_on_c, 1, 59, 80
2, 150671, Note_on_c, 1, 50, 0
2, 150671, Note_on_c, 1, 55, 0
2, 150671, Note_on_c, 1, 59, 0
2, 150720, Note_on_c, 1, 50, 80
2, 150720, Note_on_c, 1, 55, 80
2, 150720, Note_on_c, 1, 59, 80
2, 151631, Note_on_c, 1, 50, 0
2, 151631, Note_on_c, 1, 55, 0
2, 151631, Note_on_c, 1, 59, 0
2, 151680, Note_on_c, 1, 59, 80
2, 151680, Note_on_c, 1, 52, 80
2, 152591, Note_on_c, 1, 59, 0
2, 152640, Note_on_c, 1, 59, 80
2, 153503, Note_on_c, 1, 52, 0
2, 153551, Note_on_c, 1, 59, 0
2, 153600, Note_on_c, 1, 59, 80
2, 153600, Note_on_c, 1, 50, 80
2, 154511, Note_on_c, 1, 59, 0
2, 154560, Note_on_c, 1, 59, 80
2, 154787, Note_on_c, 1, 59, 0
2, 155423, Note_on_c, 1, 50, 0
2, 155520, Note_on_c, 1, 55, 80
2, 155520, Note_on_c, 1, 48, 80
2, 156431, Note_on_c, 1, 55, 0
2, 156480, Note_on_c, 1, 55, 80
2, 156480, Note_on_c, 1, 60, 80
2, 156480, Note_on_c, 1, 64, 80
2, 157343, Note_on_c, 1, 48, 0
2, 157391, Note_on_c, 1, 55, 0
2, 157391, Note_on_c, 1, 60, 0
2, 157391, Note_on_c, 1, 64, 0
2, 157440, Note_on_c, 1, 50, 80
2, 157440, Note_on_c, 1, 55, 80
2, 157440, Note_on_c, 1, 59, 80
2, 158351, Note_on_c, 1, 50, 0
2, 158351, Note_on_c, 1, 55, 0
2, 158351, Note_on_c, 1, 59, 0
2, 158400, Note_on_c, 1, 50, 80
2, 158400, Note_on_c, 1, 55, 80
2, 158400, Note_on_c, 1, 59, 80
2, 159311, Note_on_c, 1, 50, 0
2, 159311, Note_on_c, 1, 55, 0
2, 159311, Note_on_c, 1, 59, 0
2, 159360, Note_on_c, 1, 52, 80
2, 159360, Note_on_c, 1, 59, 80
2, 161183, Note_on_c, 1, 52, 0
2, 161183, Note_on_c, 1, 59, 0
2, 161280, Note_on_c, 1, 50, 80
2, 161280, Note_on_c, 1, 59, 80
2, 163103, Note_on_c, 1, 50, 0
2, 163103, Note_on_c, 1, 59, 0
2, 163200, Note_on_c, 1, 48, 80
2, 163200, Note_on_c, 1, 55, 80
2, 163200, Note_on_c, 1, 60, 80
2, 165023, Note_on_c, 1, 48, 0
2, 165023, Note_on_c, 1, 55, 0
2, 165023, Note_on_c, 1, 60, 0
2, 165120, Note_on_c, 1, 50, 80
2, 165120, Note_on_c, 1, 55, 80
2, 165120, Note_on_c, 1, 59, 80
2, 165575, Note_on_c, 1, 55, 0
2, 165575, Note_on_c, 1, 59, 0
2, 166031, Note_on_c, 1, 50, 0
2, 166080, Note_on_c, 1, 50, 80
2, 166080, Note_on_c, 1, 55, 80
2, 166080, Note_on_c, 1, 59, 80
2, 166535, Note_on_c, 1, 55, 0
2, 166535, Note_on_c, 1, 59, 0
2, 166991, Note_on_c, 1, 50, 0
2, 167040, Note_on_c, 1, 52, 80
2, 167040, Note_on_c, 1, 59, 80
2, 168863, Note_on_c, 1, 52, 0
2, 168863, Note_on_c, 1, 59, 0
2, 168960, Note_on_c, 1, 50, 80
2, 168960, Note_on_c, 1, 59, 80
2, 170783, Note_on_c, 1, 50, 0
2, 170783, Note_on_c, 1, 59, 0
2, 170880, Note_on_c, 1, 48, 80
2, 170880, Note_on_c, 1, 55, 80
2, 172703, Note_on_c, 1, 48, 0
2, 172703, Note_on_c, 1, 55, 0
2, 172800, Note_on_c, 1, 50, 80
2, 172800, Note_on_c, 1, 59, 80
2, 174623, Note_on_c, 1, 50, 0
2, 174623, Note_on_c, 1, 59, 0
2, 174720, Control_c, 1, 64, 0
2, 174721, End_track
3, 0, Start_track
3, 0, Title_t, "Bass\000"
3, 0, Key_signature, 0, "major"
3, 0, Control_c, 4, 121, 0
3, 0, Program_c, 4, 33
3, 0, Control_c, 4, 7, 100
3, 0, Control_c, 4, 10, 64
3, 0, Control_c, 4, 91, 0
3, 0, Control_c, 4, 93, 0
3, 0, MIDI_port, 0
3, 43200, Note_on_c, 4, 62, 80
3, 43200, Control_c, 4, 2, 80
3, 44159, Note_on_c, 4, 62, 0
3, 44160, Note_on_c, 4, 64, 80
3, 44160, Control_c, 4, 2, 80
3, 46079, Note_on_c, 4, 64, 0
3, 46080, Note_on_c, 4, 62, 80
3, 46080, Control_c, 4, 2, 80
3, 47999, Note_on_c, 4, 62, 0
3, 48000, Note_on_c, 4, 60, 80
3, 48000, Control_c, 4, 2, 80
3, 49919, Note_on_c, 4, 60, 0
3, 49920, Note_on_c, 4, 55, 80
3, 49920, Control_c, 4, 2, 80
3, 51839, Note_on_c, 4, 55, 0
3, 51840, Note_on_c, 4, 64, 80
3, 51840, Control_c, 4, 2, 80
3, 53279, Note_on_c, 4, 64, 0
3, 53280, Note_on_c, 4, 64, 80
3, 53280, Control_c, 4, 2, 80
3, 53759, Note_on_c, 4, 64, 0
3, 53760, Note_on_c, 4, 62, 80
3, 53760, Control_c, 4, 2, 80
3, 55199, Note_on_c, 4, 62, 0
3, 55200, Note_on_c, 4, 62, 80
3, 55200, Control_c, 4, 2, 80
3, 55679, Note_on_c, 4, 62, 0
3, 55680, Note_on_c, 4, 60, 80
3, 55680, Control_c, 4, 2, 80
3, 57119, Note_on_c, 4, 60, 0
3, 57120, Note_on_c, 4, 60, 80
3, 57120, Control_c, 4, 2, 80
3, 57599, Note_on_c, 4, 60, 0
3, 57600, Note_on_c, 4, 55, 80
3, 58559, Note_on_c, 4, 55, 0
3, 58560, Note_on_c, 4, 55, 80
3, 58560, Control_c, 4, 2, 80
3, 59519, Note_on_c, 4, 55, 0
3, 59520, Note_on_c, 4, 64, 80
3, 59520, Control_c, 4, 2, 80
3, 60959, Note_on_c, 4, 64, 0
3, 60960, Note_on_c, 4, 64, 80
3, 60960, Control_c, 4, 2, 80
3, 61439, Note_on_c, 4, 64, 0
3, 61440, Note_on_c, 4, 62, 80
3, 61440, Control_c, 4, 2, 80
3, 62879, Note_on_c, 4, 62, 0
3, 62880, Note_on_c, 4, 62, 80
3, 62880, Control_c, 4, 2, 80
3, 63359, Note_on_c, 4, 62, 0
3, 63360, Note_on_c, 4, 60, 80
3, 63360, Control_c, 4, 2, 80
3, 64799, Note_on_c, 4, 60, 0
3, 64800, Note_on_c, 4, 60, 80
3, 64800, Control_c, 4, 2, 80
3, 65279, Note_on_c, 4, 60, 0
3, 65280, Note_on_c, 4, 55, 80
3, 65280, Control_c, 4, 2, 80
3, 66239, Note_on_c, 4, 55, 0
3, 66240, Note_on_c, 4, 55, 80
3, 66240, Control_c, 4, 2, 80
3, 67199, Note_on_c, 4, 55, 0
3, 67200, Note_on_c, 4, 64, 80
3, 67200, Control_c, 4, 2, 80
3, 68639, Note_on_c, 4, 64, 0
3, 68640, Note_on_c, 4, 64, 80
3, 68640, Control_c, 4, 2, 80
3, 69119, Note_on_c, 4, 64, 0
3, 69120, Note_on_c, 4, 62, 80
3, 69120, Control_c, 4, 2, 80
3, 70559, Note_on_c, 4, 62, 0
3, 70560, Note_on_c, 4, 62, 80
3, 70560, Control_c, 4, 2, 80
3, 71039, Note_on_c, 4, 62, 0
3, 71040, Note_on_c, 4, 60, 80
3, 71040, Control_c, 4, 2, 80
3, 72479, Note_on_c, 4, 60, 0
3, 72480, Note_on_c, 4, 60, 80
3, 72480, Control_c, 4, 2, 80
3, 72959, Note_on_c, 4, 60, 0
3, 72960, Note_on_c, 4, 55, 80
3, 72960, Control_c, 4, 2, 80
3, 73919, Note_on_c, 4, 55, 0
3, 73920, Note_on_c, 4, 55, 80
3, 73920, Control_c, 4, 2, 80
3, 74879, Note_on_c, 4, 55, 0
3, 74880, Note_on_c, 4, 64, 80
3, 74880, Control_c, 4, 2, 80
3, 76799, Note_on_c, 4, 64, 0
3, 76800, Note_on_c, 4, 62, 80
3, 76800, Control_c, 4, 2, 80
3, 78719, Note_on_c, 4, 62, 0
3, 78720, Note_on_c, 4, 60, 80
3, 78720, Control_c, 4, 2, 80
3, 80639, Note_on_c, 4, 60, 0
3, 80640, Note_on_c, 4, 55, 80
3, 80640, Control_c, 4, 2, 80
3, 81599, Note_on_c, 4, 55, 0
3, 81600, Note_on_c, 4, 55, 80
3, 81600, Control_c, 4, 2, 80
3, 82559, Note_on_c, 4, 55, 0
3, 82560, Note_on_c, 4, 64, 80
3, 82560, Control_c, 4, 2, 80
3, 83999, Note_on_c, 4, 64, 0
3, 84240, Note_on_c, 4, 64, 80
3, 84240, Control_c, 4, 2, 80
3, 84479, Note_on_c, 4, 64, 0
3, 84480, Note_on_c, 4, 62, 80
3, 84480, Control_c, 4, 2, 80
3, 85919, Note_on_c, 4, 62, 0
3, 86160, Note_on_c, 4, 62, 80
3, 86160, Control_c, 4, 2, 80
3, 86399, Note_on_c, 4, 62, 0
3, 86400, Note_on_c, 4, 60, 80
3, 86400, Control_c, 4, 2, 80
3, 87839, Note_on_c, 4, 60, 0
3, 87840, Note_on_c, 4, 60, 80
3, 87840, Control_c, 4, 2, 80
3, 88319, Note_on_c, 4, 60, 0
3, 88320, Note_on_c, 4, 55, 80
3, 88320, Control_c, 4, 2, 80
3, 89279, Note_on_c, 4, 55, 0
3, 89280, Note_on_c, 4, 55, 80
3, 89280, Control_c, 4, 2, 80
3, 90239, Note_on_c, 4, 55, 0
3, 90240, Note_on_c, 4, 64, 80
3, 90240, Control_c, 4, 2, 80
3, 91199, Note_on_c, 4, 64, 0
3, 91200, Note_on_c, 4, 64, 80
3, 91200, Control_c, 4, 2, 80
3, 92159, Note_on_c, 4, 64, 0
3, 92160, Note_on_c, 4, 62, 80
3, 92160, Control_c, 4, 2, 80
3, 93119, Note_on_c, 4, 62, 0
3, 93120, Note_on_c, 4, 62, 80
3, 93120, Control_c, 4, 2, 80
3, 94079, Note_on_c, 4, 62, 0
3, 94080, Note_on_c, 4, 60, 80
3, 94080, Control_c, 4, 2, 80
3, 95039, Note_on_c, 4, 60, 0
3, 95040, Note_on_c, 4, 60, 80
3, 95040, Control_c, 4, 2, 80
3, 95999, Note_on_c, 4, 60, 0
3, 96000, Note_on_c, 4, 55, 80
3, 96000, Control_c, 4, 2, 80
3, 96959, Note_on_c, 4, 55, 0
3, 96960, Note_on_c, 4, 55, 80
3, 96960, Control_c, 4, 2, 80
3, 97919, Note_on_c, 4, 55, 0
3, 97920, Note_on_c, 4, 64, 80
3, 97920, Control_c, 4, 2, 80
3, 98879, Note_on_c, 4, 64, 0
3, 98880, Note_on_c, 4, 64, 80
3, 98880, Control_c, 4, 2, 80
3, 99839, Note_on_c, 4, 64, 0
3, 99840, Note_on_c, 4, 62, 80
3, 99840, Control_c, 4, 2, 80
3, 100799, Note_on_c, 4, 62, 0
3, 100800, Note_on_c, 4, 62, 80
3, 100800, Control_c, 4, 2, 80
3, 101759, Note_on_c, 4, 62, 0
3, 101760, Note_on_c, 4, 60, 80
3, 101760, Control_c, 4, 2, 80
3, 102719, Note_on_c, 4, 60, 0
3, 102720, Note_on_c, 4, 60, 80
3, 102720, Control_c, 4, 2, 80
3, 103679, Note_on_c, 4, 60, 0
3, 103680, Note_on_c, 4, 55, 80
3, 103680, Control_c, 4, 2, 80
3, 104639, Note_on_c, 4, 55, 0
3, 104640, Note_on_c, 4, 55, 80
3, 104640, Control_c, 4, 2, 80
3, 105599, Note_on_c, 4, 55, 0
3, 105600, Note_on_c, 4, 64, 80
3, 105600, Control_c, 4, 2, 80
3, 106559, Note_on_c, 4, 64, 0
3, 106560, Note_on_c, 4, 64, 80
3, 106560, Control_c, 4, 2, 80
3, 107519, Note_on_c, 4, 64, 0
3, 107520, Note_on_c, 4, 62, 80
3, 107520, Control_c, 4, 2, 80
3, 108479, Note_on_c, 4, 62, 0
3, 108480, Note_on_c, 4, 62, 80
3, 108480, Control_c, 4, 2, 80
3, 109439, Note_on_c, 4, 62, 0
3, 109440, Note_on_c, 4, 60, 80
3, 109440, Control_c, 4, 2, 80
3, 110399, Note_on_c, 4, 60, 0
3, 110400, Note_on_c, 4, 60, 80
3, 110400, Control_c, 4, 2, 80
3, 111359, Note_on_c, 4, 60, 0
3, 111360, Note_on_c, 4, 55, 80
3, 111360, Control_c, 4, 2, 80
3, 112319, Note_on_c, 4, 55, 0
3, 112320, Note_on_c, 4, 55, 80
3, 112320, Control_c, 4, 2, 80
3, 113279, Note_on_c, 4, 55, 0
3, 113280, Note_on_c, 4, 64, 80
3, 113280, Control_c, 4, 2, 80
3, 114239, Note_on_c, 4, 64, 0
3, 114240, Note_on_c, 4, 64, 80
3, 114240, Control_c, 4, 2, 80
3, 115199, Note_on_c, 4, 64, 0
3, 115200, Note_on_c, 4, 62, 80
3, 115200, Control_c, 4, 2, 80
3, 116159, Note_on_c, 4, 62, 0
3, 116160, Note_on_c, 4, 62, 80
3, 116160, Control_c, 4, 2, 80
3, 117119, Note_on_c, 4, 62, 0
3, 117120, Note_on_c, 4, 60, 80
3, 117120, Control_c, 4, 2, 80
3, 118079, Note_on_c, 4, 60, 0
3, 118080, Note_on_c, 4, 60, 80
3, 118080, Control_c, 4, 2, 80
3, 119039, Note_on_c, 4, 60, 0
3, 119040, Note_on_c, 4, 55, 80
3, 119040, Control_c, 4, 2, 80
3, 119999, Note_on_c, 4, 55, 0
3, 120000, Note_on_c, 4, 55, 80
3, 120000, Control_c, 4, 2, 80
3, 120959, Note_on_c, 4, 55, 0
3, 120960, Note_on_c, 4, 60, 80
3, 120960, Control_c, 4, 2, 80
3, 122879, Note_on_c, 4, 60, 0
3, 123840, Note_on_c, 4, 60, 80
3, 123840, Control_c, 4, 2, 80
3, 124799, Note_on_c, 4, 60, 0
3, 124800, Note_on_c, 4, 62, 80
3, 124800, Control_c, 4, 2, 80
3, 126239, Note_on_c, 4, 62, 0
3, 127680, Note_on_c, 4, 62, 80
3, 127680, Control_c, 4, 2, 80
3, 128639, Note_on_c, 4, 62, 0
3, 128640, Note_on_c, 4, 64, 80
3, 128640, Control_c, 4, 2, 80
3, 129599, Note_on_c, 4, 64, 0
3, 129600, Note_on_c, 4, 64, 80
3, 129600, Control_c, 4, 2, 80
3, 130559, Note_on_c, 4, 64, 0
3, 130560, Note_on_c, 4, 62, 80
3, 130560, Control_c, 4, 2, 80
3, 131519, Note_on_c, 4, 62, 0
3, 131520, Note_on_c, 4, 62, 80
3, 131520, Control_c, 4, 2, 80
3, 132479, Note_on_c, 4, 62, 0
3, 132480, Note_on_c, 4, 60, 80
3, 132480, Control_c, 4, 2, 80
3, 133439, Note_on_c, 4, 60, 0
3, 133440, Note_on_c, 4, 60, 80
3, 133440, Control_c, 4, 2, 80
3, 134399, Note_on_c, 4, 60, 0
3, 134400, Note_on_c, 4, 55, 80
3, 134400, Control_c, 4, 2, 80
3, 135359, Note_on_c, 4, 55, 0
3, 135360, Note_on_c, 4, 55, 80
3, 135360, Control_c, 4, 2, 80
3, 136319, Note_on_c, 4, 55, 0
3, 136320, Note_on_c, 4, 64, 80
3, 136320, Control_c, 4, 2, 80
3, 137279, Note_on_c, 4, 64, 0
3, 137280, Note_on_c, 4, 64, 80
3, 137280, Control_c, 4, 2, 80
3, 138239, Note_on_c, 4, 64, 0
3, 138240, Note_on_c, 4, 62, 80
3, 138240, Control_c, 4, 2, 80
3, 139199, Note_on_c, 4, 62, 0
3, 139200, Note_on_c, 4, 62, 80
3, 139200, Control_c, 4, 2, 80
3, 140159, Note_on_c, 4, 62, 0
3, 140160, Note_on_c, 4, 60, 80
3, 140160, Control_c, 4, 2, 80
3, 141119, Note_on_c, 4, 60, 0
3, 141120, Note_on_c, 4, 60, 80
3, 141120, Control_c, 4, 2, 80
3, 142079, Note_on_c, 4, 60, 0
3, 142080, Note_on_c, 4, 55, 80
3, 142080, Control_c, 4, 2, 80
3, 143039, Note_on_c, 4, 55, 0
3, 143040, Note_on_c, 4, 55, 80
3, 143040, Control_c, 4, 2, 80
3, 143999, Note_on_c, 4, 55, 0
3, 144000, Note_on_c, 4, 64, 80
3, 144000, Control_c, 4, 2, 80
3, 144959, Note_on_c, 4, 64, 0
3, 144960, Note_on_c, 4, 64, 80
3, 144960, Control_c, 4, 2, 80
3, 145919, Note_on_c, 4, 64, 0
3, 145920, Note_on_c, 4, 62, 80
3, 145920, Control_c, 4, 2, 80
3, 146879, Note_on_c, 4, 62, 0
3, 146880, Note_on_c, 4, 62, 80
3, 146880, Control_c, 4, 2, 80
3, 147839, Note_on_c, 4, 62, 0
3, 147840, Note_on_c, 4, 60, 80
3, 147840, Control_c, 4, 2, 80
3, 148799, Note_on_c, 4, 60, 0
3, 148800, Note_on_c, 4, 60, 80
3, 148800, Control_c, 4, 2, 80
3, 149759, Note_on_c, 4, 60, 0
3, 149760, Note_on_c, 4, 55, 80
3, 149760, Control_c, 4, 2, 80
3, 150719, Note_on_c, 4, 55, 0
3, 150720, Note_on_c, 4, 55, 80
3, 150720, Control_c, 4, 2, 80
3, 151679, Note_on_c, 4, 55, 0
3, 151680, Note_on_c, 4, 64, 80
3, 151680, Control_c, 4, 2, 80
3, 152639, Note_on_c, 4, 64, 0
3, 152640, Note_on_c, 4, 64, 80
3, 152640, Control_c, 4, 2, 80
3, 153599, Note_on_c, 4, 64, 0
3, 153600, Note_on_c, 4, 62, 80
3, 153600, Control_c, 4, 2, 80
3, 154559, Note_on_c, 4, 62, 0
3, 154560, Note_on_c, 4, 62, 80
3, 154560, Control_c, 4, 2, 80
3, 155519, Note_on_c, 4, 62, 0
3, 155520, Note_on_c, 4, 60, 80
3, 155520, Control_c, 4, 2, 80
3, 156479, Note_on_c, 4, 60, 0
3, 156480, Note_on_c, 4, 60, 80
3, 156480, Control_c, 4, 2, 80
3, 157439, Note_on_c, 4, 60, 0
3, 157440, Note_on_c, 4, 55, 80
3, 157440, Control_c, 4, 2, 80
3, 158399, Note_on_c, 4, 55, 0
3, 158400, Note_on_c, 4, 55, 80
3, 158400, Control_c, 4, 2, 80
3, 159359, Note_on_c, 4, 55, 0
3, 159360, Note_on_c, 4, 64, 80
3, 159360, Control_c, 4, 2, 80
3, 161279, Note_on_c, 4, 64, 0
3, 161280, Note_on_c, 4, 62, 80
3, 161280, Control_c, 4, 2, 80
3, 163199, Note_on_c, 4, 62, 0
3, 163200, Note_on_c, 4, 60, 80
3, 163200, Control_c, 4, 2, 80
3, 165119, Note_on_c, 4, 60, 0
3, 165120, Note_on_c, 4, 55, 80
3, 165120, Control_c, 4, 2, 80
3, 167039, Note_on_c, 4, 55, 0
3, 167040, End_track
4, 0, Start_track
4, 0, Title_t, "Bell\000"
4, 0, Key_signature, 0, "major"
4, 0, Control_c, 2, 121, 0
4, 0, Program_c, 2, 14
4, 0, Control_c, 2, 7, 100
4, 0, Control_c, 2, 10, 64
4, 0, Control_c, 2, 91, 0
4, 0, Control_c, 2, 93, 0
4, 0, MIDI_port, 0
4, 1, End_track
5, 0, Start_track
5, 0, Title_t, "Lute\000"
5, 0, Key_signature, 0, "major"
5, 0, Control_c, 3, 121, 0
5, 0, Program_c, 3, 24
5, 0, Control_c, 3, 7, 100
5, 0, Control_c, 3, 10, 64
5, 0, Control_c, 3, 91, 0
5, 0, Control_c, 3, 93, 0
5, 0, MIDI_port, 0
5, 2, Control_c, 3, 64, 127
5, 44160, Note_on_c, 3, 52, 80
5, 44160, Control_c, 3, 2, 80
5, 44160, Note_on_c, 3, 59, 80
5, 45119, Note_on_c, 3, 52, 0
5, 45119, Note_on_c, 3, 59, 0
5, 45120, Note_on_c, 3, 52, 80
5, 45120, Control_c, 3, 2, 80
5, 45120, Note_on_c, 3, 59, 80
5, 46079, Note_on_c, 3, 52, 0
5, 46079, Note_on_c, 3, 59, 0
5, 46080, Note_on_c, 3, 55, 80
5, 46080, Control_c, 3, 2, 80
5, 46080, Note_on_c, 3, 59, 80
5, 47039, Note_on_c, 3, 55, 0
5, 47039, Note_on_c, 3, 59, 0
5, 47040, Note_on_c, 3, 55, 80
5, 47040, Control_c, 3, 2, 80
5, 47040, Note_on_c, 3, 59, 80
5, 47999, Note_on_c, 3, 55, 0
5, 47999, Note_on_c, 3, 59, 0
5, 48000, Note_on_c, 3, 55, 80
5, 48000, Control_c, 3, 2, 80
5, 48000, Note_on_c, 3, 60, 80
5, 48959, Note_on_c, 3, 55, 0
5, 48959, Note_on_c, 3, 60, 0
5, 48960, Note_on_c, 3, 55, 80
5, 48960, Control_c, 3, 2, 80
5, 48960, Note_on_c, 3, 60, 80
5, 49919, Note_on_c, 3, 55, 0
5, 49919, Note_on_c, 3, 60, 0
5, 49920, Note_on_c, 3, 55, 80
5, 49920, Control_c, 3, 2, 80
5, 49920, Note_on_c, 3, 59, 80
5, 50879, Note_on_c, 3, 55, 0
5, 50879, Note_on_c, 3, 59, 0
5, 50880, Note_on_c, 3, 55, 80
5, 50880, Control_c, 3, 2, 80
5, 50880, Note_on_c, 3, 59, 80
5, 51839, Note_on_c, 3, 55, 0
5, 51839, Note_on_c, 3, 59, 0
5, 51840, Note_on_c, 3, 52, 80
5, 51840, Control_c, 3, 2, 80
5, 51840, Note_on_c, 3, 59, 80
5, 52799, Note_on_c, 3, 52, 0
5, 52799, Note_on_c, 3, 59, 0
5, 52800, Note_on_c, 3, 52, 80
5, 52800, Control_c, 3, 2, 80
5, 52800, Note_on_c, 3, 59, 80
5, 53759, Note_on_c, 3, 52, 0
5, 53759, Note_on_c, 3, 59, 0
5, 53760, Note_on_c, 3, 55, 80
5, 53760, Control_c, 3, 2, 80
5, 53760, Note_on_c, 3, 59, 80
5, 54719, Note_on_c, 3, 55, 0
5, 54719, Note_on_c, 3, 59, 0
5, 54720, Note_on_c, 3, 55, 80
5, 54720, Control_c, 3, 2, 80
5, 54720, Note_on_c, 3, 59, 80
5, 55679, Note_on_c, 3, 55, 0
5, 55679, Note_on_c, 3, 59, 0
5, 55680, Note_on_c, 3, 55, 80
5, 55680, Control_c, 3, 2, 80
5, 55680, Note_on_c, 3, 60, 80
5, 56639, Note_on_c, 3, 55, 0
5, 56639, Note_on_c, 3, 60, 0
5, 56640, Note_on_c, 3, 55, 80
5, 56640, Control_c, 3, 2, 80
5, 56640, Note_on_c, 3, 60, 80
5, 57599, Note_on_c, 3, 55, 0
5, 57599, Note_on_c, 3, 60, 0
5, 57600, Note_on_c, 3, 55, 80
5, 57600, Control_c, 3, 2, 80
5, 57600, Note_on_c, 3, 59, 80
5, 58559, Note_on_c, 3, 55, 0
5, 58559, Note_on_c, 3, 59, 0
5, 58560, Note_on_c, 3, 55, 80
5, 58560, Control_c, 3, 2, 80
5, 58560, Note_on_c, 3, 59, 80
5, 59519, Note_on_c, 3, 55, 0
5, 59519, Note_on_c, 3, 59, 0
5, 59520, Note_on_c, 3, 55, 80
5, 59520, Control_c, 3, 2, 80
5, 59520, Note_on_c, 3, 59, 80
5, 60479, Note_on_c, 3, 55, 0
5, 60480, Note_on_c, 3, 55, 80
5, 60480, Control_c, 3, 2, 80
5, 60480, Note_on_c, 3, 59, 0
5, 60480, Note_on_c, 3, 59, 80
5, 61439, Note_on_c, 3, 55, 0
5, 61439, Note_on_c, 3, 59, 0
5, 61440, Note_on_c, 3, 55, 80
5, 61440, Control_c, 3, 2, 80
5, 61440, Note_on_c, 3, 59, 80
5, 62399, Note_on_c, 3, 55, 0
5, 62400, Note_on_c, 3, 55, 80
5, 62400, Control_c, 3, 2, 80
5, 62400, Note_on_c, 3, 59, 0
5, 62400, Note_on_c, 3, 59, 80
5, 63359, Note_on_c, 3, 55, 0
5, 63359, Note_on_c, 3, 59, 0
5, 63360, Note_on_c, 3, 55, 80
5, 63360, Control_c, 3, 2, 80
5, 63360, Note_on_c, 3, 60, 80
5, 64319, Note_on_c, 3, 55, 0
5, 64320, Note_on_c, 3, 55, 80
5, 64320, Control_c, 3, 2, 80
5, 64320, Note_on_c, 3, 60, 0
5, 64320, Note_on_c, 3, 60, 80
5, 65279, Note_on_c, 3, 55, 0
5, 65279, Note_on_c, 3, 60, 0
5, 65280, Note_on_c, 3, 55, 80
5, 65280, Control_c, 3, 2, 80
5, 65280, Note_on_c, 3, 59, 80
5, 66239, Note_on_c, 3, 55, 0
5, 66239, Note_on_c, 3, 59, 0
5, 66240, Note_on_c, 3, 55, 80
5, 66240, Control_c, 3, 2, 80
5, 66240, Note_on_c, 3, 59, 80
5, 67199, Note_on_c, 3, 55, 0
5, 67199, Note_on_c, 3, 59, 0
5, 67200, Note_on_c, 3, 55, 80
5, 67200, Control_c, 3, 2, 80
5, 67200, Note_on_c, 3, 59, 80
5, 68159, Note_on_c, 3, 55, 0
5, 68160, Note_on_c, 3, 55, 80
5, 68160, Control_c, 3, 2, 80
5, 68160, Note_on_c, 3, 59, 0
5, 68160, Note_on_c, 3, 59, 80
5, 69119, Note_on_c, 3, 55, 0
5, 69119, Note_on_c, 3, 59, 0
5, 69120, Note_on_c, 3, 55, 80
5, 69120, Control_c, 3, 2, 80
5, 69120, Note_on_c, 3, 59, 80
5, 70079, Note_on_c, 3, 55, 0
5, 70080, Note_on_c, 3, 55, 80
5, 70080, Control_c, 3, 2, 80
5, 70080, Note_on_c, 3, 59, 0
5, 70080, Note_on_c, 3, 59, 80
5, 71039, Note_on_c, 3, 55, 0
5, 71039, Note_on_c, 3, 59, 0
5, 71040, Note_on_c, 3, 55, 80
5, 71040, Control_c, 3, 2, 80
5, 71040, Note_on_c, 3, 60, 80
5, 71999, Note_on_c, 3, 55, 0
5, 72000, Note_on_c, 3, 55, 80
5, 72000, Control_c, 3, 2, 80
5, 72000, Note_on_c, 3, 60, 0
5, 72000, Note_on_c, 3, 60, 80
5, 72959, Note_on_c, 3, 55, 0
5, 72959, Note_on_c, 3, 60, 0
5, 72960, Note_on_c, 3, 55, 80
5, 72960, Control_c, 3, 2, 80
5, 72960, Note_on_c, 3, 59, 80
5, 73919, Note_on_c, 3, 55, 0
5, 73919, Note_on_c, 3, 59, 0
5, 73920, Note_on_c, 3, 55, 80
5, 73920, Control_c, 3, 2, 80
5, 73920, Note_on_c, 3, 59, 80
5, 74879, Note_on_c, 3, 55, 0
5, 74879, Note_on_c, 3, 59, 0
5, 74880, Note_on_c, 3, 55, 80
5, 74880, Control_c, 3, 2, 80
5, 74880, Note_on_c, 3, 59, 80
5, 75839, Note_on_c, 3, 55, 0
5, 76799, Note_on_c, 3, 59, 0
5, 76800, Note_on_c, 3, 55, 80
5, 76800, Control_c, 3, 2, 80
5, 76800, Note_on_c, 3, 59, 80
5, 77759, Note_on_c, 3, 55, 0
5, 78719, Note_on_c, 3, 59, 0
5, 78720, Note_on_c, 3, 55, 80
5, 78720, Control_c, 3, 2, 80
5, 78720, Note_on_c, 3, 60, 80
5, 80639, Note_on_c, 3, 55, 0
5, 80639, Note_on_c, 3, 60, 0
5, 80640, Note_on_c, 3, 55, 80
5, 80640, Control_c, 3, 2, 80
5, 80640, Note_on_c, 3, 59, 80
5, 81599, Note_on_c, 3, 55, 0
5, 81599, Note_on_c, 3, 59, 0
5, 81600, Note_on_c, 3, 55, 80
5, 81600, Control_c, 3, 2, 80
5, 81600, Note_on_c, 3, 59, 80
5, 82559, Note_on_c, 3, 55, 0
5, 82559, Note_on_c, 3, 59, 0
5, 82560, Note_on_c, 3, 55, 80
5, 82560, Control_c, 3, 2, 80
5, 82560, Note_on_c, 3, 59, 80
5, 83519, Note_on_c, 3, 55, 0
5, 84479, Note_on_c, 3, 59, 0
5, 84480, Note_on_c, 3, 55, 80
5, 84480, Control_c, 3, 2, 80
5, 84480, Note_on_c, 3, 59, 80
5, 85439, Note_on_c, 3, 55, 0
5, 86399, Note_on_c, 3, 59, 0
5, 86400, Note_on_c, 3, 55, 80
5, 86400, Control_c, 3, 2, 80
5, 86400, Note_on_c, 3, 60, 80
5, 88319, Note_on_c, 3, 55, 0
5, 88319, Note_on_c, 3, 60, 0
5, 88320, Note_on_c, 3, 55, 80
5, 88320, Control_c, 3, 2, 80
5, 88320, Note_on_c, 3, 59, 80
5, 89279, Note_on_c, 3, 55, 0
5, 89279, Note_on_c, 3, 59, 0
5, 89280, Note_on_c, 3, 55, 80
5, 89280, Control_c, 3, 2, 80
5, 89280, Note_on_c, 3, 59, 80
5, 90239, Note_on_c, 3, 55, 0
5, 90239, Note_on_c, 3, 59, 0
5, 90240, Note_on_c, 3, 55, 80
5, 90240, Control_c, 3, 2, 80
5, 90240, Note_on_c, 3, 59, 80
5, 91199, Note_on_c, 3, 55, 0
5, 91199, Note_on_c, 3, 59, 0
5, 91200, Note_on_c, 3, 55, 80
5, 91200, Control_c, 3, 2, 80
5, 91200, Note_on_c, 3, 59, 80
5, 92159, Note_on_c, 3, 55, 0
5, 92159, Note_on_c, 3, 59, 0
5, 92160, Note_on_c, 3, 55, 80
5, 92160, Control_c, 3, 2, 80
5, 92160, Note_on_c, 3, 59, 80
5, 93119, Note_on_c, 3, 55, 0
5, 93119, Note_on_c, 3, 59, 0
5, 93120, Note_on_c, 3, 55, 80
5, 93120, Control_c, 3, 2, 80
5, 93120, Note_on_c, 3, 59, 80
5, 94079, Note_on_c, 3, 55, 0
5, 94079, Note_on_c, 3, 59, 0
5, 94080, Note_on_c, 3, 52, 80
5, 94080, Control_c, 3, 2, 80
5, 94080, Note_on_c, 3, 55, 80
5, 95039, Note_on_c, 3, 52, 0
5, 95039, Note_on_c, 3, 55, 0
5, 95040, Note_on_c, 3, 52, 80
5, 95040, Control_c, 3, 2, 80
5, 95040, Note_on_c, 3, 55, 80
5, 95999, Note_on_c, 3, 52, 0
5, 95999, Note_on_c, 3, 55, 0
5, 96000, Note_on_c, 3, 50, 80
5, 96000, Control_c, 3, 2, 80
5, 96000, Note_on_c, 3, 55, 80
5, 96959, Note_on_c, 3, 50, 0
5, 96959, Note_on_c, 3, 55, 0
5, 96960, Note_on_c, 3, 50, 80
5, 96960, Control_c, 3, 2, 80
5, 96960, Note_on_c, 3, 55, 80
5, 97919, Note_on_c, 3, 50, 0
5, 97919, Note_on_c, 3, 55, 0
5, 97920, Note_on_c, 3, 55, 80
5, 97920, Control_c, 3, 2, 80
5, 97920, Note_on_c, 3, 59, 80
5, 98879, Note_on_c, 3, 55, 0
5, 98879, Note_on_c, 3, 59, 0
5, 98880, Note_on_c, 3, 55, 80
5, 98880, Control_c, 3, 2, 80
5, 98880, Note_on_c, 3, 59, 80
5, 99839, Note_on_c, 3, 55, 0
5, 99839, Note_on_c, 3, 59, 0
5, 99840, Note_on_c, 3, 55, 80
5, 99840, Control_c, 3, 2, 80
5, 99840, Note_on_c, 3, 59, 80
5, 100799, Note_on_c, 3, 55, 0
5, 100799, Note_on_c, 3, 59, 0
5, 100800, Note_on_c, 3, 55, 80
5, 100800, Control_c, 3, 2, 80
5, 100800, Note_on_c, 3, 59, 80
5, 101759, Note_on_c, 3, 55, 0
5, 101759, Note_on_c, 3, 59, 0
5, 101760, Note_on_c, 3, 52, 80
5, 101760, Control_c, 3, 2, 80
5, 101760, Note_on_c, 3, 55, 80
5, 102719, Note_on_c, 3, 52, 0
5, 102719, Note_on_c, 3, 55, 0
5, 102720, Note_on_c, 3, 52, 80
5, 102720, Control_c, 3, 2, 80
5, 102720, Note_on_c, 3, 55, 80
5, 103679, Note_on_c, 3, 52, 0
5, 103679, Note_on_c, 3, 55, 0
5, 103680, Note_on_c, 3, 50, 80
5, 103680, Control_c, 3, 2, 80
5, 103680, Note_on_c, 3, 55, 80
5, 104639, Note_on_c, 3, 50, 0
5, 104639, Note_on_c, 3, 55, 0
5, 104640, Note_on_c, 3, 50, 80
5, 104640, Control_c, 3, 2, 80
5, 104640, Note_on_c, 3, 55, 80
5, 105599, Note_on_c, 3, 50, 0
5, 105599, Note_on_c, 3, 55, 0
5, 105600, Note_on_c, 3, 55, 80
5, 105600, Control_c, 3, 2, 80
5, 105600, Note_on_c, 3, 59, 80
5, 106559, Note_on_c, 3, 55, 0
5, 106559, Note_on_c, 3, 59, 0
5, 106560, Note_on_c, 3, 55, 80
5, 106560, Control_c, 3, 2, 80
5, 106560, Note_on_c, 3, 59, 80
5, 107519, Note_on_c, 3, 55, 0
5, 107519, Note_on_c, 3, 59, 0
5, 107520, Note_on_c, 3, 55, 80
5, 107520, Control_c, 3, 2, 80
5, 107520, Note_on_c, 3, 59, 80
5, 108479, Note_on_c, 3, 55, 0
5, 108479, Note_on_c, 3, 59, 0
5, 108480, Note_on_c, 3, 55, 80
5, 108480, Control_c, 3, 2, 80
5, 108480, Note_on_c, 3, 59, 80
5, 109439, Note_on_c, 3, 55, 0
5, 109439, Note_on_c, 3, 59, 0
5, 109440, Note_on_c, 3, 52, 80
5, 109440, Control_c, 3, 2, 80
5, 109440, Note_on_c, 3, 55, 80
5, 110399, Note_on_c, 3, 52, 0
5, 110399, Note_on_c, 3, 55, 0
5, 110400, Note_on_c, 3, 52, 80
5, 110400, Control_c, 3, 2, 80
5, 110400, Note_on_c, 3, 55, 80
5, 111359, Note_on_c, 3, 52, 0
5, 111359, Note_on_c, 3, 55, 0
5, 111360, Note_on_c, 3, 50, 80
5, 111360, Control_c, 3, 2, 80
5, 111360, Note_on_c, 3, 55, 80
5, 112319, Note_on_c, 3, 50, 0
5, 112319, Note_on_c, 3, 55, 0
5, 112320, Note_on_c, 3, 50, 80
5, 112320, Control_c, 3, 2, 80
5, 112320, Note_on_c, 3, 55, 80
5, 113279, Note_on_c, 3, 50, 0
5, 113279, Note_on_c, 3, 55, 0
5, 113280, Note_on_c, 3, 55, 80
5, 113280, Control_c, 3, 2, 80
5, 113280, Note_on_c, 3, 59, 80
5, 114239, Note_on_c, 3, 55, 0
5, 114239, Note_on_c, 3, 59, 0
5, 114240, Note_on_c, 3, 55, 80
5, 114240, Control_c, 3, 2, 80
5, 114240, Note_on_c, 3, 59, 80
5, 115199, Note_on_c, 3, 55, 0
5, 115199, Note_on_c, 3, 59, 0
5, 115200, Note_on_c, 3, 55, 80
5, 115200, Control_c, 3, 2, 80
5, 115200, Note_on_c, 3, 59, 80
5, 116159, Note_on_c, 3, 55, 0
5, 116159, Note_on_c, 3, 59, 0
5, 116160, Note_on_c, 3, 55, 80
5, 116160, Control_c, 3, 2, 80
5, 116160, Note_on_c, 3, 59, 80
5, 117119, Note_on_c, 3, 55, 0
5, 117119, Note_on_c, 3, 59, 0
5, 117120, Note_on_c, 3, 52, 80
5, 117120, Control_c, 3, 2, 80
5, 117120, Note_on_c, 3, 55, 80
5, 118079, Note_on_c, 3, 52, 0
5, 118079, Note_on_c, 3, 55, 0
5, 118080, Note_on_c, 3, 52, 80
5, 118080, Control_c, 3, 2, 80
5, 118080, Note_on_c, 3, 55, 80
5, 119039, Note_on_c, 3, 52, 0
5, 119039, Note_on_c, 3, 55, 0
5, 119040, Note_on_c, 3, 50, 80
5, 119040, Control_c, 3, 2, 80
5, 119040, Note_on_c, 3, 55, 80
5, 119999, Note_on_c, 3, 50, 0
5, 119999, Note_on_c, 3, 55, 0
5, 120000, Note_on_c, 3, 50, 80
5, 120000, Control_c, 3, 2, 80
5, 120000, Note_on_c, 3, 55, 80
5, 120959, Note_on_c, 3, 50, 0
5, 120959, Note_on_c, 3, 55, 0
5, 120960, Note_on_c, 3, 55, 80
5, 120960, Control_c, 3, 2, 80
5, 120960, Note_on_c, 3, 60, 80
5, 121439, Note_on_c, 3, 55, 0
5, 121439, Note_on_c, 3, 60, 0
5, 123840, Note_on_c, 3, 55, 80
5, 123840, Control_c, 3, 2, 80
5, 123840, Note_on_c, 3, 60, 80
5, 124319, Note_on_c, 3, 55, 0
5, 124319, Note_on_c, 3, 60, 0
5, 124800, Note_on_c, 3, 57, 80
5, 124800, Control_c, 3, 2, 80
5, 124800, Note_on_c, 3, 62, 80
5, 125279, Note_on_c, 3, 57, 0
5, 125279, Note_on_c, 3, 62, 0
5, 128640, Note_on_c, 3, 52, 80
5, 128640, Control_c, 3, 2, 80
5, 128879, Note_on_c, 3, 52, 0
5, 128880, Note_on_c, 3, 55, 80
5, 128880, Control_c, 3, 2, 80
5, 129119, Note_on_c, 3, 55, 0
5, 129120, Note_on_c, 3, 59, 80
5, 129120, Control_c, 3, 2, 80
5, 129359, Note_on_c, 3, 59, 0
5, 129360, Note_on_c, 3, 55, 80
5, 129360, Control_c, 3, 2, 80
5, 129599, Note_on_c, 3, 55, 0
5, 129600, Note_on_c, 3, 52, 80
5, 129600, Control_c, 3, 2, 80
5, 129839, Note_on_c, 3, 52, 0
5, 129840, Note_on_c, 3, 55, 80
5, 130079, Note_on_c, 3, 55, 0
5, 130080, Note_on_c, 3, 59, 80
5, 130080, Control_c, 3, 2, 80
5, 130319, Note_on_c, 3, 59, 0
5, 130320, Note_on_c, 3, 55, 80
5, 130559, Note_on_c, 3, 55, 0
5, 130560, Note_on_c, 3, 50, 80
5, 130560, Control_c, 3, 2, 80
5, 130799, Note_on_c, 3, 50, 0
5, 130800, Note_on_c, 3, 55, 80
5, 130800, Control_c, 3, 2, 80
5, 131039, Note_on_c, 3, 55, 0
5, 131040, Note_on_c, 3, 59, 80
5, 131040, Control_c, 3, 2, 80
5, 131279, Note_on_c, 3, 59, 0
5, 131280, Note_on_c, 3, 55, 80
5, 131280, Control_c, 3, 2, 80
5, 131519, Note_on_c, 3, 55, 0
5, 131520, Note_on_c, 3, 50, 80
5, 131520, Control_c, 3, 2, 80
5, 131759, Note_on_c, 3, 50, 0
5, 131760, Note_on_c, 3, 55, 80
5, 131999, Note_on_c, 3, 55, 0
5, 132000, Note_on_c, 3, 59, 80
5, 132239, Note_on_c, 3, 59, 0
5, 132240, Note_on_c, 3, 55, 80
5, 132479, Note_on_c, 3, 55, 0
5, 132480, Note_on_c, 3, 52, 80
5, 132480, Control_c, 3, 2, 80
5, 132719, Note_on_c, 3, 52, 0
5, 132720, Note_on_c, 3, 55, 80
5, 132720, Control_c, 3, 2, 80
5, 132959, Note_on_c, 3, 55, 0
5, 132960, Note_on_c, 3, 60, 80
5, 132960, Control_c, 3, 2, 80
5, 133199, Note_on_c, 3, 60, 0
5, 133200, Note_on_c, 3, 55, 80
5, 133200, Control_c, 3, 2, 80
5, 133439, Note_on_c, 3, 55, 0
5, 133440, Note_on_c, 3, 52, 80
5, 133440, Control_c, 3, 2, 80
5, 133679, Note_on_c, 3, 52, 0
5, 133680, Note_on_c, 3, 55, 80
5, 133919, Note_on_c, 3, 55, 0
5, 133920, Note_on_c, 3, 60, 80
5, 133920, Control_c, 3, 2, 80
5, 134159, Note_on_c, 3, 60, 0
5, 134160, Note_on_c, 3, 55, 80
5, 134399, Note_on_c, 3, 55, 0
5, 134400, Note_on_c, 3, 55, 80
5, 134400, Control_c, 3, 2, 80
5, 134639, Note_on_c, 3, 55, 0
5, 134640, Note_on_c, 3, 59, 80
5, 134879, Note_on_c, 3, 59, 0
5, 134880, Note_on_c, 3, 62, 80
5, 134880, Control_c, 3, 2, 80
5, 135119, Note_on_c, 3, 62, 0
5, 135120, Note_on_c, 3, 59, 80
5, 135120, Control_c, 3, 2, 80
5, 135359, Note_on_c, 3, 59, 0
5, 135360, Note_on_c, 3, 55, 80
5, 135360, Control_c, 3, 2, 80
5, 135599, Note_on_c, 3, 55, 0
5, 135600, Note_on_c, 3, 59, 80
5, 135839, Note_on_c, 3, 59, 0
5, 135840, Note_on_c, 3, 62, 80
5, 135840, Control_c, 3, 2, 80
5, 136079, Note_on_c, 3, 62, 0
5, 136080, Note_on_c, 3, 59, 80
5, 136319, Note_on_c, 3, 59, 0
5, 136320, Note_on_c, 3, 52, 80
5, 136320, Control_c, 3, 2, 80
5, 136559, Note_on_c, 3, 52, 0
5, 136560, Note_on_c, 3, 55, 80
5, 136560, Control_c, 3, 2, 80
5, 136799, Note_on_c, 3, 55, 0
5, 136800, Note_on_c, 3, 59, 80
5, 136800, Control_c, 3, 2, 80
5, 137039, Note_on_c, 3, 59, 0
5, 137040, Note_on_c, 3, 55, 80
5, 137040, Control_c, 3, 2, 80
5, 137279, Note_on_c, 3, 55, 0
5, 137280, Note_on_c, 3, 52, 80
5, 137280, Control_c, 3, 2, 80
5, 137519, Note_on_c, 3, 52, 0
5, 137520, Note_on_c, 3, 55, 80
5, 137759, Note_on_c, 3, 55, 0
5, 137760, Note_on_c, 3, 59, 80
5, 137760, Control_c, 3, 2, 80
5, 137999, Note_on_c, 3, 59, 0
5, 138000, Note_on_c, 3, 55, 80
5, 138239, Note_on_c, 3, 55, 0
5, 138240, Note_on_c, 3, 50, 80
5, 138240, Control_c, 3, 2, 80
5, 138479, Note_on_c, 3, 50, 0
5, 138480, Note_on_c, 3, 55, 80
5, 138480, Control_c, 3, 2, 80
5, 138719, Note_on_c, 3, 55, 0
5, 138720, Note_on_c, 3, 59, 80
5, 138720, Control_c, 3, 2, 80
5, 138959, Note_on_c, 3, 59, 0
5, 138960, Note_on_c, 3, 55, 80
5, 138960, Control_c, 3, 2, 80
5, 139199, Note_on_c, 3, 55, 0
5, 139200, Note_on_c, 3, 50, 80
5, 139200, Control_c, 3, 2, 80
5, 139439, Note_on_c, 3, 50, 0
5, 139440, Note_on_c, 3, 55, 80
5, 139679, Note_on_c, 3, 55, 0
5, 139680, Note_on_c, 3, 59, 80
5, 139919, Note_on_c, 3, 59, 0
5, 139920, Note_on_c, 3, 55, 80
5, 140159, Note_on_c, 3, 55, 0
5, 140160, Note_on_c, 3, 52, 80
5, 140160, Control_c, 3, 2, 80
5, 140399, Note_on_c, 3, 52, 0
5, 140400, Note_on_c, 3, 55, 80
5, 140400, Control_c, 3, 2, 80
5, 140639, Note_on_c, 3, 55, 0
5, 140640, Note_on_c, 3, 60, 80
5, 140640, Control_c, 3, 2, 80
5, 140879, Note_on_c, 3, 60, 0
5, 140880, Note_on_c, 3, 55, 80
5, 140880, Control_c, 3, 2, 80
5, 141119, Note_on_c, 3, 55, 0
5, 141120, Note_on_c, 3, 52, 80
5, 141120, Control_c, 3, 2, 80
5, 141359, Note_on_c, 3, 52, 0
5, 141360, Note_on_c, 3, 55, 80
5, 141360, Control_c, 3, 2, 80
5, 141599, Note_on_c, 3, 55, 0
5, 141600, Note_on_c, 3, 60, 80
5, 141600, Control_c, 3, 2, 80
5, 141839, Note_on_c, 3, 60, 0
5, 141840, Note_on_c, 3, 55, 80
5, 142079, Note_on_c, 3, 55, 0
5, 142080, Note_on_c, 3, 55, 80
5, 142080, Control_c, 3, 2, 80
5, 142319, Note_on_c, 3, 55, 0
5, 142320, Note_on_c, 3, 59, 80
5, 142559, Note_on_c, 3, 59, 0
5, 142560, Note_on_c, 3, 62, 80
5, 142560, Control_c, 3, 2, 80
5, 142799, Note_on_c, 3, 62, 0
5, 142800, Note_on_c, 3, 59, 80
5, 142800, Control_c, 3, 2, 80
5, 143039, Note_on_c, 3, 59, 0
5, 143040, Note_on_c, 3, 55, 80
5, 143040, Control_c, 3, 2, 80
5, 143279, Note_on_c, 3, 55, 0
5, 143280, Note_on_c, 3, 59, 80
5, 143519, Note_on_c, 3, 59, 0
5, 143520, Note_on_c, 3, 62, 80
5, 143759, Note_on_c, 3, 62, 0
5, 143760, Note_on_c, 3, 59, 80
5, 143999, Note_on_c, 3, 59, 0
5, 144000, Note_on_c, 3, 52, 80
5, 144000, Control_c, 3, 2, 80
5, 144239, Note_on_c, 3, 52, 0
5, 144240, Note_on_c, 3, 55, 80
5, 144479, Note_on_c, 3, 55, 0
5, 144480, Note_on_c, 3, 59, 80
5, 144719, Note_on_c, 3, 59, 0
5, 144720, Note_on_c, 3, 64, 80
5, 144959, Note_on_c, 3, 64, 0
5, 144960, Note_on_c, 3, 52, 80
5, 144960, Control_c, 3, 2, 80
5, 145199, Note_on_c, 3, 52, 0
5, 145200, Note_on_c, 3, 55, 80
5, 145200, Control_c, 3, 2, 80
5, 145439, Note_on_c, 3, 55, 0
5, 145440, Note_on_c, 3, 59, 80
5, 145440, Control_c, 3, 2, 80
5, 145679, Note_on_c, 3, 59, 0
5, 145680, Note_on_c, 3, 64, 80
5, 145919, Note_on_c, 3, 64, 0
5, 145920, Note_on_c, 3, 50, 80
5, 145920, Control_c, 3, 2, 80
5, 146159, Note_on_c, 3, 50, 0
5, 146160, Note_on_c, 3, 55, 80
5, 146399, Note_on_c, 3, 55, 0
5, 146400, Note_on_c, 3, 59, 80
5, 146639, Note_on_c, 3, 59, 0
5, 146640, Note_on_c, 3, 62, 80
5, 146640, Control_c, 3, 2, 80
5, 146879, Note_on_c, 3, 62, 0
5, 146880, Note_on_c, 3, 50, 80
5, 146880, Control_c, 3, 2, 80
5, 147119, Note_on_c, 3, 50, 0
5, 147120, Note_on_c, 3, 55, 80
5, 147120, Control_c, 3, 2, 80
5, 147359, Note_on_c, 3, 55, 0
5, 147360, Note_on_c, 3, 59, 80
5, 147360, Control_c, 3, 2, 80
5, 147599, Note_on_c, 3, 59, 0
5, 147600, Note_on_c, 3, 62, 80
5, 147600, Control_c, 3, 2, 80
5, 147839, Note_on_c, 3, 62, 0
5, 147840, Note_on_c, 3, 52, 80
5, 147840, Control_c, 3, 2, 80
5, 148079, Note_on_c, 3, 52, 0
5, 148080, Note_on_c, 3, 55, 80
5, 148319, Note_on_c, 3, 55, 0
5, 148320, Note_on_c, 3, 60, 80
5, 148320, Control_c, 3, 2, 80
5, 148559, Note_on_c, 3, 60, 0
5, 148560, Note_on_c, 3, 64, 80
5, 148799, Note_on_c, 3, 64, 0
5, 148800, Note_on_c, 3, 52, 80
5, 148800, Control_c, 3, 2, 80
5, 149039, Note_on_c, 3, 52, 0
5, 149040, Note_on_c, 3, 55, 80
5, 149040, Control_c, 3, 2, 80
5, 149279, Note_on_c, 3, 55, 0
5, 149280, Note_on_c, 3, 60, 80
5, 149280, Control_c, 3, 2, 80
5, 149519, Note_on_c, 3, 60, 0
5, 149520, Note_on_c, 3, 64, 80
5, 149520, Control_c, 3, 2, 80
5, 149759, Note_on_c, 3, 64, 0
5, 149760, Note_on_c, 3, 55, 80
5, 149760, Control_c, 3, 2, 80
5, 149999, Note_on_c, 3, 55, 0
5, 150000, Note_on_c, 3, 59, 80
5, 150000, Control_c, 3, 2, 80
5, 150239, Note_on_c, 3, 59, 0
5, 150240, Note_on_c, 3, 62, 80
5, 150240, Control_c, 3, 2, 80
5, 150479, Note_on_c, 3, 62, 0
5, 150480, Note_on_c, 3, 67, 80
5, 150719, Note_on_c, 3, 67, 0
5, 150720, Note_on_c, 3, 55, 80
5, 150720, Control_c, 3, 2, 80
5, 150959, Note_on_c, 3, 55, 0
5, 150960, Note_on_c, 3, 59, 80
5, 151199, Note_on_c, 3, 59, 0
5, 151200, Note_on_c, 3, 62, 80
5, 151439, Note_on_c, 3, 62, 0
5, 151440, Note_on_c, 3, 67, 80
5, 151679, Note_on_c, 3, 67, 0
5, 151680, Note_on_c, 3, 52, 80
5, 151680, Control_c, 3, 2, 80
5, 151919, Note_on_c, 3, 52, 0
5, 151920, Note_on_c, 3, 55, 80
5, 152159, Note_on_c, 3, 55, 0
5, 152160, Note_on_c, 3, 59, 80
5, 152399, Note_on_c, 3, 59, 0
5, 152400, Note_on_c, 3, 64, 80
5, 152639, Note_on_c, 3, 64, 0
5, 152640, Note_on_c, 3, 52, 80
5, 152640, Control_c, 3, 2, 80
5, 152879, Note_on_c, 3, 52, 0
5, 152880, Note_on_c, 3, 55, 80
5, 153119, Note_on_c, 3, 55, 0
5, 153120, Note_on_c, 3, 59, 80
5, 153359, Note_on_c, 3, 59, 0
5, 153360, Note_on_c, 3, 64, 80
5, 153599, Note_on_c, 3, 64, 0
5, 153600, Note_on_c, 3, 50, 80
5, 153600, Control_c, 3, 2, 80
5, 153839, Note_on_c, 3, 50, 0
5, 153840, Note_on_c, 3, 55, 80
5, 154079, Note_on_c, 3, 55, 0
5, 154080, Note_on_c, 3, 59, 80
5, 154319, Note_on_c, 3, 59, 0
5, 154320, Note_on_c, 3, 62, 80
5, 154559, Note_on_c, 3, 62, 0
5, 154560, Note_on_c, 3, 50, 80
5, 154560, Control_c, 3, 2, 80
5, 154799, Note_on_c, 3, 50, 0
5, 154800, Note_on_c, 3, 55, 80
5, 155039, Note_on_c, 3, 55, 0
5, 155040, Note_on_c, 3, 59, 80
5, 155279, Note_on_c, 3, 59, 0
5, 155280, Note_on_c, 3, 62, 80
5, 155519, Note_on_c, 3, 62, 0
5, 155520, Note_on_c, 3, 52, 80
5, 155520, Control_c, 3, 2, 80
5, 155759, Note_on_c, 3, 52, 0
5, 155760, Note_on_c, 3, 55, 80
5, 155999, Note_on_c, 3, 55, 0
5, 156000, Note_on_c, 3, 60, 80
5, 156000, Control_c, 3, 2, 80
5, 156239, Note_on_c, 3, 60, 0
5, 156240, Note_on_c, 3, 64, 80
5, 156240, Control_c, 3, 2, 80
5, 156479, Note_on_c, 3, 64, 0
5, 156480, Note_on_c, 3, 52, 80
5, 156480, Control_c, 3, 2, 80
5, 156719, Note_on_c, 3, 52, 0
5, 156720, Note_on_c, 3, 55, 80
5, 156959, Note_on_c, 3, 55, 0
5, 156960, Note_on_c, 3, 60, 80
5, 156960, Control_c, 3, 2, 80
5, 157199, Note_on_c, 3, 60, 0
5, 157200, Note_on_c, 3, 64, 80
5, 157200, Control_c, 3, 2, 80
5, 157439, Note_on_c, 3, 64, 0
5, 157440, Note_on_c, 3, 55, 80
5, 157440, Control_c, 3, 2, 80
5, 157679, Note_on_c, 3, 55, 0
5, 157680, Note_on_c, 3, 59, 80
5, 157680, Control_c, 3, 2, 80
5, 157919, Note_on_c, 3, 59, 0
5, 157920, Note_on_c, 3, 62, 80
5, 157920, Control_c, 3, 2, 80
5, 158159, Note_on_c, 3, 62, 0
5, 158160, Note_on_c, 3, 59, 80
5, 158160, Control_c, 3, 2, 80
5, 158399, Note_on_c, 3, 59, 0
5, 158400, Note_on_c, 3, 55, 80
5, 158400, Control_c, 3, 2, 80
5, 159359, Note_on_c, 3, 55, 0
5, 174720, Control_c, 3, 64, 0
5, 174721, End_track
0, 0, End_of_file
