0, 0, Header, 1, 3, 480
1, 0, Start_track
1, 0, Title_t, "Piano, Violoncello, Violoncello\000"
1, 0, Time_signature, 4, 2, 24, 8
1, 0, Key_signature, 0, "major"
1, 0, Tempo, 923077
1, 0, Control_c, 1, 121, 0
1, 0, Program_c, 1, 0
1, 0, Control_c, 1, 7, 100
1, 0, Control_c, 1, 10, 64
1, 0, Control_c, 1, 91, 0
1, 0, Control_c, 1, 93, 0
1, 0, MIDI_port, 0
1, 1320, Note_on_c, 1, 74, 80
1, 1357, Note_on_c, 1, 74, 0
1, 1360, Note_on_c, 1, 76, 80
1, 1620, Note_on_c, 1, 74, 80
1, 1663, Note_on_c, 1, 76, 0
1, 1680, Note_on_c, 1, 76, 80
1, 1733, Note_on_c, 1, 74, 0
1, 1907, Note_on_c, 1, 76, 0
1, 1920, Note_on_c, 1, 71, 80
1, 2147, Note_on_c, 1, 71, 0
1, 2160, Note_on_c, 1, 69, 80
1, 2273, Note_on_c, 1, 69, 0
1, 2280, Note_on_c, 1, 67, 80
1, 2621, Note_on_c, 1, 67, 0
1, 2640, Note_on_c, 1, 69, 80
1, 2753, Note_on_c, 1, 69, 0
1, 2760, Note_on_c, 1, 71, 80
1, 3101, Note_on_c, 1, 71, 0
1, 3840, Note_on_c, 1, 69, 80
1, 4637, Note_on_c, 1, 69, 0
1, 4680, Note_on_c, 1, 71, 80
1, 4793, Note_on_c, 1, 71, 0
1, 4800, Note_on_c, 1, 69, 80
1, 4913, Note_on_c, 1, 69, 0
1, 4920, Note_on_c, 1, 67, 80
1, 5033, Note_on_c, 1, 67, 0
1, 5040, Note_on_c, 1, 64, 80
1, 5153, Note_on_c, 1, 64, 0
1, 5160, Note_on_c, 1, 62, 80
1, 5273, Note_on_c, 1, 62, 0
1, 5280, Note_on_c, 1, 69, 80
1, 5507, Note_on_c, 1, 69, 0
1, 5520, Note_on_c, 1, 67, 80
1, 5975, Note_on_c, 1, 67, 0
1, 7680, Note_on_c, 1, 71, 80
1, 7793, Note_on_c, 1, 71, 0
1, 7800, Note_on_c, 1, 74, 80
1, 7913, Note_on_c, 1, 74, 0
1, 7920, Note_on_c, 1, 71, 80
1, 8033, Note_on_c, 1, 71, 0
1, 8040, Note_on_c, 1, 74, 80
1, 8153, Note_on_c, 1, 74, 0
1, 8160, Note_on_c, 1, 71, 80
1, 8615, Note_on_c, 1, 71, 0
1, 9600, Note_on_c, 1, 71, 80
1, 9713, Note_on_c, 1, 71, 0
1, 9720, Note_on_c, 1, 74, 80
1, 9833, Note_on_c, 1, 74, 0
1, 9840, Note_on_c, 1, 71, 80
1, 9953, Note_on_c, 1, 71, 0
1, 9960, Note_on_c, 1, 74, 80
1, 10073, Note_on_c, 1, 74, 0
1, 10080, Note_on_c, 1, 71, 80
1, 10307, Note_on_c, 1, 71, 0
1, 10320, Note_on_c, 1, 67, 80
1, 10661, Note_on_c, 1, 67, 0
1, 11520, Note_on_c, 1, 69, 80
1, 11633, Note_on_c, 1, 69, 0
1, 11640, Note_on_c, 1, 71, 80
1, 11753, Note_on_c, 1, 71, 0
1, 11760, Note_on_c, 1, 69, 80
1, 11873, Note_on_c, 1, 69, 0
1, 11880, Note_on_c, 1, 71, 80
1, 11993, Note_on_c, 1, 71, 0
1, 12000, Note_on_c, 1, 69, 80
1, 12113, Note_on_c, 1, 69, 0
1, 12120, Note_on_c, 1, 67, 80
1, 12233, Note_on_c, 1, 67, 0
1, 12240, Note_on_c, 1, 64, 80
1, 12695, Note_on_c, 1, 64, 0
1, 12720, Note_on_c, 1, 62, 80
1, 12947, Note_on_c, 1, 62, 0
1, 12960, Note_on_c, 1, 71, 80
1, 13073, Note_on_c, 1, 71, 0
1, 13080, Note_on_c, 1, 71, 80
1, 13421, Note_on_c, 1, 71, 0
1, 13440, Note_on_c, 1, 69, 80
1, 13553, Note_on_c, 1, 69, 0
1, 13560, Note_on_c, 1, 67, 80
1, 13673, Note_on_c, 1, 67, 0
1, 13680, Note_on_c, 1, 64, 80
1, 14039, Note_on_c, 1, 64, 0
1, 15360, Note_on_c, 1, 71, 80
1, 15473, Note_on_c, 1, 71, 0
1, 15480, Note_on_c, 1, 74, 80
1, 15593, Note_on_c, 1, 74, 0
1, 15600, Note_on_c, 1, 71, 80
1, 15713, Note_on_c, 1, 71, 0
1, 15720, Note_on_c, 1, 74, 80
1, 15833, Note_on_c, 1, 74, 0
1, 15840, Note_on_c, 1, 71, 80
1, 16295, Note_on_c, 1, 71, 0
1, 17280, Note_on_c, 1, 76, 80
1, 17393, Note_on_c, 1, 76, 0
1, 17400, Note_on_c, 1, 74, 80
1, 17513, Note_on_c, 1, 74, 0
1, 17520, Note_on_c, 1, 69, 80
1, 17633, Note_on_c, 1, 69, 0
1, 17640, Note_on_c, 1, 69, 80
1, 17753, Note_on_c, 1, 69, 0
1, 17760, Note_on_c, 1, 69, 80
1, 18101, Note_on_c, 1, 69, 0
1, 18120, Note_on_c, 1, 71, 80
1, 18233, Note_on_c, 1, 71, 0
1, 18240, Note_on_c, 1, 67, 80
1, 18695, Note_on_c, 1, 67, 0
1, 19200, Note_on_c, 1, 69, 80
1, 19313, Note_on_c, 1, 69, 0
1, 19320, Note_on_c, 1, 71, 80
1, 19433, Note_on_c, 1, 71, 0
1, 19440, Note_on_c, 1, 69, 80
1, 19553, Note_on_c, 1, 69, 0
1, 19560, Note_on_c, 1, 71, 80
1, 19673, Note_on_c, 1, 71, 0
1, 19680, Note_on_c, 1, 69, 80
1, 19793, Note_on_c, 1, 69, 0
1, 19800, Note_on_c, 1, 67, 80
1, 19913, Note_on_c, 1, 67, 0
1, 19920, Note_on_c, 1, 64, 80
1, 20375, Note_on_c, 1, 64, 0
1, 20400, Note_on_c, 1, 62, 80
1, 20513, Note_on_c, 1, 62, 0
1, 20520, Note_on_c, 1, 64, 80
1, 20633, Note_on_c, 1, 64, 0
1, 20640, Note_on_c, 1, 71, 80
1, 20753, Note_on_c, 1, 71, 0
1, 20760, Note_on_c, 1, 71, 80
1, 21101, Note_on_c, 1, 71, 0
1, 21120, Note_on_c, 1, 69, 80
1, 21233, Note_on_c, 1, 69, 0
1, 21240, Note_on_c, 1, 67, 80
1, 21353, Note_on_c, 1, 67, 0
1, 21360, Note_on_c, 1, 64, 80
1, 21719, Note_on_c, 1, 64, 0
1, 23040, Note_on_c, 1, 69, 80
1, 23153, Note_on_c, 1, 69, 0
1, 23160, Note_on_c, 1, 71, 80
1, 23273, Note_on_c, 1, 71, 0
1, 23280, Note_on_c, 1, 71, 80
1, 23507, Note_on_c, 1, 71, 0
1, 23520, Note_on_c, 1, 71, 80
1, 23633, Note_on_c, 1, 71, 0
1, 23640, Note_on_c, 1, 69, 80
1, 23981, Note_on_c, 1, 69, 0
1, 24000, Note_on_c, 1, 69, 80
1, 24113, Note_on_c, 1, 69, 0
1, 24120, Note_on_c, 1, 71, 80
1, 24233, Note_on_c, 1, 71, 0
1, 24240, Note_on_c, 1, 71, 80
1, 24467, Note_on_c, 1, 71, 0
1, 24480, Note_on_c, 1, 71, 80
1, 24593, Note_on_c, 1, 71, 0
1, 24600, Note_on_c, 1, 69, 80
1, 24713, Note_on_c, 1, 69, 0
1, 24720, Note_on_c, 1, 67, 80
1, 24833, Note_on_c, 1, 67, 0
1, 24840, Note_on_c, 1, 67, 80
1, 25409, Note_on_c, 1, 67, 0
1, 26880, Note_on_c, 1, 69, 80
1, 26993, Note_on_c, 1, 69, 0
1, 27000, Note_on_c, 1, 71, 80
1, 27113, Note_on_c, 1, 71, 0
1, 27120, Note_on_c, 1, 71, 80
1, 27347, Note_on_c, 1, 71, 0
1, 27360, Note_on_c, 1, 71, 80
1, 27473, Note_on_c, 1, 71, 0
1, 27480, Note_on_c, 1, 69, 80
1, 27821, Note_on_c, 1, 69, 0
1, 27840, Note_on_c, 1, 69, 80
1, 27953, Note_on_c, 1, 69, 0
1, 27960, Note_on_c, 1, 71, 80
1, 28073, Note_on_c, 1, 71, 0
1, 28080, Note_on_c, 1, 71, 80
1, 28307, Note_on_c, 1, 71, 0
1, 28320, Note_on_c, 1, 71, 80
1, 28433, Note_on_c, 1, 71, 0
1, 28440, Note_on_c, 1, 69, 80
1, 28553, Note_on_c, 1, 69, 0
1, 28560, Note_on_c, 1, 67, 80
1, 28673, Note_on_c, 1, 67, 0
1, 28680, Note_on_c, 1, 67, 80
1, 29249, Note_on_c, 1, 67, 0
1, 30000, Note_on_c, 1, 67, 80
1, 30227, Note_on_c, 1, 67, 0
1, 30240, Note_on_c, 1, 71, 80
1, 30467, Note_on_c, 1, 71, 0
1, 30480, Note_on_c, 1, 74, 80
1, 30593, Note_on_c, 1, 74, 0
1, 30630, Note_on_c, 1, 64, 80
1, 30657, Note_on_c, 1, 64, 0
1, 30660, Note_on_c, 1, 67, 80
1, 30687, Note_on_c, 1, 67, 0
1, 30690, Note_on_c, 1, 72, 80
1, 30717, Note_on_c, 1, 72, 0
1, 30720, Note_on_c, 1, 76, 80
1, 31175, Note_on_c, 1, 76, 0
1, 31200, Note_on_c, 1, 76, 80
1, 31439, Note_on_c, 1, 76, 0
1, 31680, Note_on_c, 1, 76, 80
1, 31907, Note_on_c, 1, 76, 0
1, 31920, Note_on_c, 1, 79, 80
1, 32147, Note_on_c, 1, 79, 0
1, 32160, Note_on_c, 1, 76, 80
1, 32387, Note_on_c, 1, 76, 0
1, 32400, Note_on_c, 1, 74, 80
1, 32627, Note_on_c, 1, 74, 0
1, 32640, Note_on_c, 1, 71, 80
1, 33095, Note_on_c, 1, 71, 0
1, 33120, Note_on_c, 1, 71, 80
1, 33575, Note_on_c, 1, 71, 0
1, 33600, Note_on_c, 1, 71, 80
1, 33827, Note_on_c, 1, 71, 0
1, 33840, Note_on_c, 1, 74, 80
1, 34067, Note_on_c, 1, 74, 0
1, 34080, Note_on_c, 1, 71, 80
1, 34307, Note_on_c, 1, 71, 0
1, 34320, Note_on_c, 1, 67, 80
1, 34547, Note_on_c, 1, 67, 0
1, 34560, Note_on_c, 1, 69, 80
1, 34787, Note_on_c, 1, 69, 0
1, 34800, Note_on_c, 1, 71, 80
1, 35255, Note_on_c, 1, 71, 0
1, 35280, Note_on_c, 1, 69, 80
1, 35507, Note_on_c, 1, 69, 0
1, 35520, Note_on_c, 1, 69, 80
1, 35747, Note_on_c, 1, 69, 0
1, 35760, Note_on_c, 1, 67, 80
1, 36215, Note_on_c, 1, 67, 0
1, 36240, Note_on_c, 1, 64, 80
1, 36695, Note_on_c, 1, 64, 0
1, 37680, Note_on_c, 1, 67, 80
1, 37907, Note_on_c, 1, 67, 0
1, 37920, Note_on_c, 1, 71, 80
1, 38147, Note_on_c, 1, 71, 0
1, 38160, Note_on_c, 1, 74, 80
1, 38273, Note_on_c, 1, 74, 0
1, 38310, Note_on_c, 1, 64, 80
1, 38337, Note_on_c, 1, 64, 0
1, 38340, Note_on_c, 1, 67, 80
1, 38367, Note_on_c, 1, 67, 0
1, 38370, Note_on_c, 1, 72, 80
1, 38397, Note_on_c, 1, 72, 0
1, 38400, Note_on_c, 1, 76, 80
1, 38627, Note_on_c, 1, 76, 0
1, 38640, Note_on_c, 1, 76, 80
1, 38867, Note_on_c, 1, 76, 0
1, 38880, Note_on_c, 1, 76, 80
1, 39335, Note_on_c, 1, 76, 0
1, 39480, Note_on_c, 1, 76, 80
1, 39593, Note_on_c, 1, 76, 0
1, 39600, Note_on_c, 1, 79, 80
1, 39827, Note_on_c, 1, 79, 0
1, 39840, Note_on_c, 1, 76, 80
1, 40067, Note_on_c, 1, 76, 0
1, 40080, Note_on_c, 1, 74, 80
1, 40307, Note_on_c, 1, 74, 0
1, 40320, Note_on_c, 1, 71, 80
1, 40661, Note_on_c, 1, 71, 0
1, 40680, Note_on_c, 1, 71, 80
1, 40793, Note_on_c, 1, 71, 0
1, 41400, Note_on_c, 1, 71, 80
1, 41513, Note_on_c, 1, 71, 0
1, 41520, Note_on_c, 1, 74, 80
1, 41747, Note_on_c, 1, 74, 0
1, 41760, Note_on_c, 1, 71, 80
1, 41987, Note_on_c, 1, 71, 0
1, 42000, Note_on_c, 1, 69, 80
1, 42227, Note_on_c, 1, 69, 0
1, 42240, Note_on_c, 1, 71, 80
1, 42581, Note_on_c, 1, 71, 0
1, 42600, Note_on_c, 1, 67, 80
1, 42713, Note_on_c, 1, 67, 0
1, 43200, Note_on_c, 1, 67, 80
1, 43427, Note_on_c, 1, 67, 0
1, 43440, Note_on_c, 1, 67, 80
1, 43895, Note_on_c, 1, 67, 0
1, 43920, Note_on_c, 1, 67, 80
1, 44375, Note_on_c, 1, 67, 0
1, 45120, Note_on_c, 1, 71, 80
1, 45347, Note_on_c, 1, 71, 0
1, 45360, Note_on_c, 1, 74, 80
1, 45587, Note_on_c, 1, 74, 0
1, 45600, Note_on_c, 1, 71, 80
1, 45827, Note_on_c, 1, 71, 0
1, 45840, Note_on_c, 1, 69, 80
1, 46067, Note_on_c, 1, 69, 0
1, 46080, Note_on_c, 1, 71, 80
1, 46535, Note_on_c, 1, 71, 0
1, 46560, Note_on_c, 1, 67, 80
1, 47015, Note_on_c, 1, 67, 0
1, 47040, Note_on_c, 1, 67, 80
1, 47267, Note_on_c, 1, 67, 0
1, 47280, Note_on_c, 1, 67, 80
1, 47735, Note_on_c, 1, 67, 0
1, 47760, Note_on_c, 1, 67, 80
1, 48215, Note_on_c, 1, 67, 0
1, 49920, Note_on_c, 1, 71, 80
1, 50033, Note_on_c, 1, 71, 0
1, 50040, Note_on_c, 1, 74, 80
1, 50153, Note_on_c, 1, 74, 0
1, 50160, Note_on_c, 1, 71, 80
1, 50273, Note_on_c, 1, 71, 0
1, 50280, Note_on_c, 1, 74, 80
1, 50393, Note_on_c, 1, 74, 0
1, 50400, Note_on_c, 1, 71, 80
1, 50855, Note_on_c, 1, 71, 0
1, 51720, Note_on_c, 1, 69, 80
1, 51833, Note_on_c, 1, 69, 0
1, 51840, Note_on_c, 1, 71, 80
1, 51953, Note_on_c, 1, 71, 0
1, 51960, Note_on_c, 1, 74, 80
1, 52073, Note_on_c, 1, 74, 0
1, 52080, Note_on_c, 1, 71, 80
1, 52193, Note_on_c, 1, 71, 0
1, 52200, Note_on_c, 1, 74, 80
1, 52313, Note_on_c, 1, 74, 0
1, 52320, Note_on_c, 1, 76, 80
1, 52547, Note_on_c, 1, 76, 0
1, 52560, Note_on_c, 1, 67, 80
1, 52787, Note_on_c, 1, 67, 0
1, 52800, Note_on_c, 1, 71, 80
1, 53039, Note_on_c, 1, 71, 0
1, 53640, Note_on_c, 1, 67, 80
1, 53753, Note_on_c, 1, 67, 0
1, 53760, Note_on_c, 1, 69, 80
1, 53873, Note_on_c, 1, 69, 0
1, 53880, Note_on_c, 1, 71, 80
1, 53993, Note_on_c, 1, 71, 0
1, 54000, Note_on_c, 1, 69, 80
1, 54113, Note_on_c, 1, 69, 0
1, 54120, Note_on_c, 1, 71, 80
1, 54233, Note_on_c, 1, 71, 0
1, 54240, Note_on_c, 1, 69, 80
1, 54353, Note_on_c, 1, 69, 0
1, 54360, Note_on_c, 1, 67, 80
1, 54473, Note_on_c, 1, 67, 0
1, 54480, Note_on_c, 1, 64, 80
1, 54935, Note_on_c, 1, 64, 0
1, 54960, Note_on_c, 1, 62, 80
1, 55073, Note_on_c, 1, 62, 0
1, 55080, Note_on_c, 1, 64, 80
1, 55193, Note_on_c, 1, 64, 0
1, 55200, Note_on_c, 1, 71, 80
1, 55541, Note_on_c, 1, 71, 0
1, 55560, Note_on_c, 1, 71, 80
1, 55673, Note_on_c, 1, 71, 0
1, 55680, Note_on_c, 1, 69, 80
1, 55793, Note_on_c, 1, 69, 0
1, 55800, Note_on_c, 1, 67, 80
1, 55913, Note_on_c, 1, 67, 0
1, 55920, Note_on_c, 1, 64, 80
1, 56279, Note_on_c, 1, 64, 0
1, 57600, Note_on_c, 1, 69, 80
1, 57713, Note_on_c, 1, 69, 0
1, 57720, Note_on_c, 1, 71, 80
1, 57833, Note_on_c, 1, 71, 0
1, 57840, Note_on_c, 1, 71, 80
1, 58067, Note_on_c, 1, 71, 0
1, 58080, Note_on_c, 1, 71, 80
1, 58193, Note_on_c, 1, 71, 0
1, 58200, Note_on_c, 1, 69, 80
1, 58541, Note_on_c, 1, 69, 0
1, 58560, Note_on_c, 1, 69, 80
1, 58673, Note_on_c, 1, 69, 0
1, 58680, Note_on_c, 1, 71, 80
1, 58793, Note_on_c, 1, 71, 0
1, 58800, Note_on_c, 1, 71, 80
1, 59027, Note_on_c, 1, 71, 0
1, 59040, Note_on_c, 1, 71, 80
1, 59153, Note_on_c, 1, 71, 0
1, 59160, Note_on_c, 1, 69, 80
1, 59273, Note_on_c, 1, 69, 0
1, 59280, Note_on_c, 1, 67, 80
1, 59393, Note_on_c, 1, 67, 0
1, 59400, Note_on_c, 1, 67, 80
1, 59969, Note_on_c, 1, 67, 0
1, 60000, Note_on_c, 1, 76, 80
1, 60455, Note_on_c, 1, 76, 0
1, 61440, Note_on_c, 1, 69, 80
1, 61553, Note_on_c, 1, 69, 0
1, 61560, Note_on_c, 1, 71, 80
1, 61673, Note_on_c, 1, 71, 0
1, 61680, Note_on_c, 1, 71, 80
1, 61907, Note_on_c, 1, 71, 0
1, 61920, Note_on_c, 1, 71, 80
1, 62033, Note_on_c, 1, 71, 0
1, 62040, Note_on_c, 1, 69, 80
1, 62381, Note_on_c, 1, 69, 0
1, 62400, Note_on_c, 1, 69, 80
1, 62513, Note_on_c, 1, 69, 0
1, 62520, Note_on_c, 1, 71, 80
1, 62633, Note_on_c, 1, 71, 0
1, 62640, Note_on_c, 1, 71, 80
1, 62867, Note_on_c, 1, 71, 0
1, 62880, Note_on_c, 1, 71, 80
1, 62993, Note_on_c, 1, 71, 0
1, 63000, Note_on_c, 1, 69, 80
1, 63113, Note_on_c, 1, 69, 0
1, 63120, Note_on_c, 1, 67, 80
1, 63233, Note_on_c, 1, 67, 0
1, 63240, Note_on_c, 1, 67, 80
1, 63809, Note_on_c, 1, 67, 0
1, 63840, Note_on_c, 1, 69, 80
1, 64295, Note_on_c, 1, 69, 0
1, 64560, Note_on_c, 1, 67, 80
1, 64787, Note_on_c, 1, 67, 0
1, 64800, Note_on_c, 1, 71, 80
1, 65027, Note_on_c, 1, 71, 0
1, 65040, Note_on_c, 1, 74, 80
1, 65153, Note_on_c, 1, 74, 0
1, 65190, Note_on_c, 1, 64, 80
1, 65217, Note_on_c, 1, 64, 0
1, 65220, Note_on_c, 1, 67, 80
1, 65247, Note_on_c, 1, 67, 0
1, 65250, Note_on_c, 1, 72, 80
1, 65277, Note_on_c, 1, 72, 0
1, 65280, Note_on_c, 1, 76, 80
1, 65735, Note_on_c, 1, 76, 0
1, 65760, Note_on_c, 1, 72, 80
1, 65760, Note_on_c, 1, 76, 80
1, 66215, Note_on_c, 1, 72, 0
1, 66215, Note_on_c, 1, 76, 0
1, 66240, Note_on_c, 1, 72, 80
1, 66240, Note_on_c, 1, 76, 80
1, 66467, Note_on_c, 1, 72, 0
1, 66467, Note_on_c, 1, 76, 0
1, 66480, Note_on_c, 1, 72, 80
1, 66480, Note_on_c, 1, 79, 80
1, 66707, Note_on_c, 1, 72, 0
1, 66707, Note_on_c, 1, 79, 0
1, 66720, Note_on_c, 1, 72, 80
1, 66720, Note_on_c, 1, 76, 80
1, 66947, Note_on_c, 1, 72, 0
1, 66947, Note_on_c, 1, 76, 0
1, 66960, Note_on_c, 1, 71, 80
1, 66960, Note_on_c, 1, 74, 80
1, 67187, Note_on_c, 1, 71, 0
1, 67187, Note_on_c, 1, 74, 0
1, 67200, Note_on_c, 1, 67, 80
1, 67200, Note_on_c, 1, 71, 80
1, 67655, Note_on_c, 1, 67, 0
1, 67655, Note_on_c, 1, 71, 0
1, 67680, Note_on_c, 1, 67, 80
1, 67680, Note_on_c, 1, 71, 80
1, 68135, Note_on_c, 1, 67, 0
1, 68135, Note_on_c, 1, 71, 0
1, 68160, Note_on_c, 1, 67, 80
1, 68160, Note_on_c, 1, 71, 80
1, 68387, Note_on_c, 1, 67, 0
1, 68387, Note_on_c, 1, 71, 0
1, 68400, Note_on_c, 1, 74, 80
1, 68627, Note_on_c, 1, 74, 0
1, 68640, Note_on_c, 1, 67, 80
1, 68640, Note_on_c, 1, 71, 80
1, 68867, Note_on_c, 1, 67, 0
1, 68867, Note_on_c, 1, 71, 0
1, 68880, Note_on_c, 1, 71, 80
1, 69107, Note_on_c, 1, 71, 0
1, 69120, Note_on_c, 1, 69, 80
1, 69347, Note_on_c, 1, 69, 0
1, 69360, Note_on_c, 1, 69, 80
1, 69815, Note_on_c, 1, 69, 0
1, 69840, Note_on_c, 1, 69, 80
1, 70067, Note_on_c, 1, 69, 0
1, 70080, Note_on_c, 1, 69, 80
1, 70307, Note_on_c, 1, 69, 0
1, 70320, Note_on_c, 1, 67, 80
1, 70775, Note_on_c, 1, 67, 0
1, 70800, Note_on_c, 1, 64, 80
1, 71255, Note_on_c, 1, 64, 0
1, 72240, Note_on_c, 1, 64, 80
1, 72240, Note_on_c, 1, 67, 80
1, 72467, Note_on_c, 1, 64, 0
1, 72467, Note_on_c, 1, 67, 0
1, 72480, Note_on_c, 1, 67, 80
1, 72480, Note_on_c, 1, 71, 80
1, 72707, Note_on_c, 1, 67, 0
1, 72707, Note_on_c, 1, 71, 0
1, 72720, Note_on_c, 1, 71, 80
1, 72720, Note_on_c, 1, 74, 80
1, 72833, Note_on_c, 1, 71, 0
1, 72833, Note_on_c, 1, 74, 0
1, 72870, Note_on_c, 1, 64, 80
1, 72897, Note_on_c, 1, 64, 0
1, 72900, Note_on_c, 1, 67, 80
1, 72927, Note_on_c, 1, 67, 0
1, 72930, Note_on_c, 1, 72, 80
1, 72957, Note_on_c, 1, 72, 0
1, 72960, Note_on_c, 1, 76, 80
1, 73187, Note_on_c, 1, 76, 0
1, 73200, Note_on_c, 1, 72, 80
1, 73200, Note_on_c, 1, 76, 80
1, 73427, Note_on_c, 1, 72, 0
1, 73427, Note_on_c, 1, 76, 0
1, 73440, Note_on_c, 1, 72, 80
1, 73440, Note_on_c, 1, 76, 80
1, 73553, Note_on_c, 1, 72, 0
1, 73553, Note_on_c, 1, 76, 0
1, 73560, Note_on_c, 1, 71, 80
1, 73560, Note_on_c, 1, 74, 80
1, 73679, Note_on_c, 1, 71, 0
1, 73679, Note_on_c, 1, 74, 0
1, 73840, Note_on_c, 1, 67, 80
1, 73877, Note_on_c, 1, 67, 0
1, 73880, Note_on_c, 1, 72, 80
1, 73917, Note_on_c, 1, 72, 0
1, 73920, Note_on_c, 1, 76, 80
1, 74147, Note_on_c, 1, 76, 0
1, 74160, Note_on_c, 1, 79, 80
1, 74387, Note_on_c, 1, 79, 0
1, 74400, Note_on_c, 1, 72, 80
1, 74400, Note_on_c, 1, 76, 80
1, 74627, Note_on_c, 1, 72, 0
1, 74627, Note_on_c, 1, 76, 0
1, 74640, Note_on_c, 1, 71, 80
1, 74640, Note_on_c, 1, 74, 80
1, 74867, Note_on_c, 1, 71, 0
1, 74867, Note_on_c, 1, 74, 0
1, 74880, Note_on_c, 1, 67, 80
1, 74880, Note_on_c, 1, 71, 80
1, 75335, Note_on_c, 1, 67, 0
1, 75335, Note_on_c, 1, 71, 0
1, 75360, Note_on_c, 1, 67, 80
1, 75360, Note_on_c, 1, 71, 80
1, 75815, Note_on_c, 1, 67, 0
1, 75815, Note_on_c, 1, 71, 0
1, 75840, Note_on_c, 1, 71, 80
1, 76067, Note_on_c, 1, 71, 0
1, 76080, Note_on_c, 1, 74, 80
1, 76307, Note_on_c, 1, 74, 0
1, 76320, Note_on_c, 1, 71, 80
1, 76661, Note_on_c, 1, 71, 0
1, 76680, Note_on_c, 1, 69, 80
1, 76793, Note_on_c, 1, 69, 0
1, 76800, Note_on_c, 1, 71, 80
1, 77255, Note_on_c, 1, 71, 0
1, 77280, Note_on_c, 1, 67, 80
1, 77735, Note_on_c, 1, 67, 0
1, 77760, Note_on_c, 1, 67, 80
1, 77987, Note_on_c, 1, 67, 0
1, 78000, Note_on_c, 1, 67, 80
1, 78455, Note_on_c, 1, 67, 0
1, 78480, Note_on_c, 1, 67, 80
1, 78935, Note_on_c, 1, 67, 0
1, 79680, Note_on_c, 1, 71, 80
1, 79907, Note_on_c, 1, 71, 0
1, 79920, Note_on_c, 1, 74, 80
1, 80147, Note_on_c, 1, 74, 0
1, 80160, Note_on_c, 1, 71, 80
1, 80387, Note_on_c, 1, 71, 0
1, 80400, Note_on_c, 1, 69, 80
1, 80627, Note_on_c, 1, 69, 0
1, 80640, Note_on_c, 1, 71, 80
1, 81095, Note_on_c, 1, 71, 0
1, 81120, Note_on_c, 1, 67, 80
1, 81575, Note_on_c, 1, 67, 0
1, 81600, Note_on_c, 1, 67, 80
1, 81827, Note_on_c, 1, 67, 0
1, 81840, Note_on_c, 1, 67, 80
1, 82295, Note_on_c, 1, 67, 0
1, 82320, Note_on_c, 1, 67, 80
1, 82775, Note_on_c, 1, 67, 0
1, 84480, Note_on_c, 1, 69, 80
1, 84593, Note_on_c, 1, 69, 0
1, 84600, Note_on_c, 1, 71, 80
1, 84713, Note_on_c, 1, 71, 0
1, 84720, Note_on_c, 1, 71, 80
1, 84947, Note_on_c, 1, 71, 0
1, 84960, Note_on_c, 1, 71, 80
1, 85073, Note_on_c, 1, 71, 0
1, 85080, Note_on_c, 1, 69, 80
1, 85421, Note_on_c, 1, 69, 0
1, 85440, Note_on_c, 1, 69, 80
1, 85553, Note_on_c, 1, 69, 0
1, 85560, Note_on_c, 1, 71, 80
1, 85673, Note_on_c, 1, 71, 0
1, 85680, Note_on_c, 1, 71, 80
1, 85907, Note_on_c, 1, 71, 0
1, 85920, Note_on_c, 1, 71, 80
1, 86033, Note_on_c, 1, 71, 0
1, 86040, Note_on_c, 1, 69, 80
1, 86153, Note_on_c, 1, 69, 0
1, 86160, Note_on_c, 1, 67, 80
1, 86273, Note_on_c, 1, 67, 0
1, 86280, Note_on_c, 1, 67, 80
1, 86621, Note_on_c, 1, 67, 0
1, 88320, Note_on_c, 1, 69, 80
1, 88433, Note_on_c, 1, 69, 0
1, 88440, Note_on_c, 1, 71, 80
1, 88553, Note_on_c, 1, 71, 0
1, 88560, Note_on_c, 1, 71, 80
1, 88787, Note_on_c, 1, 71, 0
1, 88800, Note_on_c, 1, 71, 80
1, 88913, Note_on_c, 1, 71, 0
1, 88920, Note_on_c, 1, 69, 80
1, 89261, Note_on_c, 1, 69, 0
1, 89280, Note_on_c, 1, 69, 80
1, 89393, Note_on_c, 1, 69, 0
1, 89400, Note_on_c, 1, 71, 80
1, 89513, Note_on_c, 1, 71, 0
1, 89520, Note_on_c, 1, 74, 80
1, 89747, Note_on_c, 1, 74, 0
1, 89760, Note_on_c, 1, 71, 80
1, 89873, Note_on_c, 1, 71, 0
1, 89880, Note_on_c, 1, 69, 80
1, 89993, Note_on_c, 1, 69, 0
1, 90000, Note_on_c, 1, 67, 80
1, 90113, Note_on_c, 1, 67, 0
1, 90120, Note_on_c, 1, 67, 80
1, 90461, Note_on_c, 1, 67, 0
1, 91440, Note_on_c, 1, 67, 80
1, 91667, Note_on_c, 1, 67, 0
1, 91680, Note_on_c, 1, 71, 80
1, 91907, Note_on_c, 1, 71, 0
1, 91920, Note_on_c, 1, 74, 80
1, 92147, Note_on_c, 1, 74, 0
1, 92160, Note_on_c, 1, 76, 80
1, 92615, Note_on_c, 1, 76, 0
1, 92640, Note_on_c, 1, 76, 80
1, 93095, Note_on_c, 1, 76, 0
1, 93120, Note_on_c, 1, 76, 80
1, 93347, Note_on_c, 1, 76, 0
1, 93360, Note_on_c, 1, 79, 80
1, 93587, Note_on_c, 1, 79, 0
1, 93600, Note_on_c, 1, 76, 80
1, 93827, Note_on_c, 1, 76, 0
1, 93840, Note_on_c, 1, 74, 80
1, 94067, Note_on_c, 1, 74, 0
1, 94080, Note_on_c, 1, 71, 80
1, 94535, Note_on_c, 1, 71, 0
1, 94560, Note_on_c, 1, 71, 80
1, 95015, Note_on_c, 1, 71, 0
1, 95040, Note_on_c, 1, 71, 80
1, 95267, Note_on_c, 1, 71, 0
1, 95280, Note_on_c, 1, 74, 80
1, 95507, Note_on_c, 1, 74, 0
1, 95520, Note_on_c, 1, 71, 80
1, 95747, Note_on_c, 1, 71, 0
1, 95760, Note_on_c, 1, 69, 80
1, 95987, Note_on_c, 1, 69, 0
1, 96000, Note_on_c, 1, 69, 80
1, 96227, Note_on_c, 1, 69, 0
1, 96240, Note_on_c, 1, 69, 80
1, 96695, Note_on_c, 1, 69, 0
1, 96720, Note_on_c, 1, 69, 80
1, 96947, Note_on_c, 1, 69, 0
1, 96960, Note_on_c, 1, 69, 80
1, 97187, Note_on_c, 1, 69, 0
1, 97200, Note_on_c, 1, 67, 80
1, 97655, Note_on_c, 1, 67, 0
1, 97680, Note_on_c, 1, 64, 80
1, 98135, Note_on_c, 1, 64, 0
1, 99120, Note_on_c, 1, 67, 80
1, 99347, Note_on_c, 1, 67, 0
1, 99360, Note_on_c, 1, 71, 80
1, 99587, Note_on_c, 1, 71, 0
1, 99600, Note_on_c, 1, 74, 80
1, 99827, Note_on_c, 1, 74, 0
1, 99840, Note_on_c, 1, 76, 80
1, 100067, Note_on_c, 1, 76, 0
1, 100080, Note_on_c, 1, 76, 80
1, 100307, Note_on_c, 1, 76, 0
1, 100320, Note_on_c, 1, 76, 80
1, 100775, Note_on_c, 1, 76, 0
1, 100800, Note_on_c, 1, 76, 80
1, 101027, Note_on_c, 1, 76, 0
1, 101040, Note_on_c, 1, 79, 80
1, 101267, Note_on_c, 1, 79, 0
1, 101280, Note_on_c, 1, 76, 80
1, 101507, Note_on_c, 1, 76, 0
1, 101520, Note_on_c, 1, 74, 80
1, 101747, Note_on_c, 1, 74, 0
1, 101760, Note_on_c, 1, 71, 80
1, 102215, Note_on_c, 1, 71, 0
1, 102240, Note_on_c, 1, 71, 80
1, 102695, Note_on_c, 1, 71, 0
1, 102720, Note_on_c, 1, 71, 80
1, 102947, Note_on_c, 1, 71, 0
1, 102960, Note_on_c, 1, 74, 80
1, 103187, Note_on_c, 1, 74, 0
1, 103200, Note_on_c, 1, 71, 80
1, 103427, Note_on_c, 1, 71, 0
1, 103440, Note_on_c, 1, 69, 80
1, 103667, Note_on_c, 1, 69, 0
1, 103680, Note_on_c, 1, 71, 80
1, 104135, Note_on_c, 1, 71, 0
1, 104160, Note_on_c, 1, 67, 80
1, 104615, Note_on_c, 1, 67, 0
1, 104640, Note_on_c, 1, 67, 80
1, 104867, Note_on_c, 1, 67, 0
1, 104880, Note_on_c, 1, 67, 80
1, 105335, Note_on_c, 1, 67, 0
1, 105360, Note_on_c, 1, 67, 80
1, 105815, Note_on_c, 1, 67, 0
1, 106560, Note_on_c, 1, 71, 80
1, 106787, Note_on_c, 1, 71, 0
1, 106800, Note_on_c, 1, 74, 80
1, 107027, Note_on_c, 1, 74, 0
1, 107040, Note_on_c, 1, 71, 80
1, 107267, Note_on_c, 1, 71, 0
1, 107280, Note_on_c, 1, 69, 80
1, 107507, Note_on_c, 1, 69, 0
1, 107520, Note_on_c, 1, 71, 80
1, 107975, Note_on_c, 1, 71, 0
1, 108000, Note_on_c, 1, 67, 80
1, 108455, Note_on_c, 1, 67, 0
1, 108480, Note_on_c, 1, 67, 80
1, 108707, Note_on_c, 1, 67, 0
1, 108720, Note_on_c, 1, 67, 80
1, 109175, Note_on_c, 1, 67, 0
1, 109200, Note_on_c, 1, 67, 80
1, 109655, Note_on_c, 1, 67, 0
1, 110400, Note_on_c, 1, 71, 80
1, 110627, Note_on_c, 1, 71, 0
1, 110640, Note_on_c, 1, 74, 80
1, 110867, Note_on_c, 1, 74, 0
1, 110880, Note_on_c, 1, 71, 80
1, 111107, Note_on_c, 1, 71, 0
1, 111120, Note_on_c, 1, 71, 80
1, 111347, Note_on_c, 1, 71, 0
1, 111360, Note_on_c, 1, 62, 80
1, 111360, Note_on_c, 1, 71, 80
1, 111815, Note_on_c, 1, 62, 0
1, 111815, Note_on_c, 1, 71, 0
1, 111840, Note_on_c, 1, 67, 80
1, 112295, Note_on_c, 1, 67, 0
1, 112320, Note_on_c, 1, 60, 80
1, 112320, Note_on_c, 1, 67, 80
1, 112547, Note_on_c, 1, 60, 0
1, 112547, Note_on_c, 1, 67, 0
1, 112560, Note_on_c, 1, 67, 80
1, 113015, Note_on_c, 1, 67, 0
1, 113040, Note_on_c, 1, 67, 80
1, 113267, Note_on_c, 1, 67, 0
1, 113280, Note_on_c, 1, 62, 80
1, 113280, Note_on_c, 1, 67, 80
1, 113519, Note_on_c, 1, 62, 0
1, 113519, Note_on_c, 1, 67, 0
1, 113520, End_track
2, 0, Start_track
2, 0, Title_t, "Piano, Piano, Piano\000"
2, 0, Key_signature, 0, "major"
2, 0, Control_c, 0, 121, 0
2, 0, Program_c, 0, 0
2, 0, Control_c, 0, 7, 100
2, 0, Control_c, 0, 10, 64
2, 0, Control_c, 0, 91, 0
2, 0, Control_c, 0, 93, 0
2, 0, MIDI_port, 0
2, 0, Note_on_c, 0, 59, 80
2, 0, Note_on_c, 0, 64, 80
2, 0, Note_on_c, 0, 67, 80
2, 455, Note_on_c, 0, 59, 0
2, 455, Note_on_c, 0, 64, 0
2, 455, Note_on_c, 0, 67, 0
2, 480, Note_on_c, 0, 59, 80
2, 480, Note_on_c, 0, 64, 80
2, 480, Note_on_c, 0, 67, 80
2, 935, Note_on_c, 0, 59, 0
2, 935, Note_on_c, 0, 64, 0
2, 935, Note_on_c, 0, 67, 0
2, 960, Note_on_c, 0, 59, 80
2, 960, Note_on_c, 0, 62, 80
2, 960, Note_on_c, 0, 67, 80
2, 1415, Note_on_c, 0, 59, 0
2, 1415, Note_on_c, 0, 62, 0
2, 1415, Note_on_c, 0, 67, 0
2, 1440, Note_on_c, 0, 59, 80
2, 1440, Note_on_c, 0, 62, 80
2, 1440, Note_on_c, 0, 67, 80
2, 1895, Note_on_c, 0, 59, 0
2, 1895, Note_on_c, 0, 62, 0
2, 1895, Note_on_c, 0, 67, 0
2, 1920, Note_on_c, 0, 60, 80
2, 1920, Note_on_c, 0, 64, 80
2, 1920, Note_on_c, 0, 67, 80
2, 2375, Note_on_c, 0, 60, 0
2, 2375, Note_on_c, 0, 64, 0
2, 2375, Note_on_c, 0, 67, 0
2, 2400, Note_on_c, 0, 60, 80
2, 2400, Note_on_c, 0, 64, 80
2, 2400, Note_on_c, 0, 67, 80
2, 2855, Note_on_c, 0, 60, 0
2, 2855, Note_on_c, 0, 64, 0
2, 2855, Note_on_c, 0, 67, 0
2, 2880, Note_on_c, 0, 59, 80
2, 2880, Note_on_c, 0, 64, 80
2, 2880, Note_on_c, 0, 67, 80
2, 3335, Note_on_c, 0, 59, 0
2, 3335, Note_on_c, 0, 64, 0
2, 3335, Note_on_c, 0, 67, 0
2, 3360, Note_on_c, 0, 59, 80
2, 3360, Note_on_c, 0, 64, 80
2, 3360, Note_on_c, 0, 67, 80
2, 3815, Note_on_c, 0, 59, 0
2, 3815, Note_on_c, 0, 64, 0
2, 3815, Note_on_c, 0, 67, 0
2, 3840, Note_on_c, 0, 57, 80
2, 3840, Note_on_c, 0, 60, 80
2, 3840, Note_on_c, 0, 64, 80
2, 4295, Note_on_c, 0, 57, 0
2, 4295, Note_on_c, 0, 60, 0
2, 4295, Note_on_c, 0, 64, 0
2, 4320, Note_on_c, 0, 57, 80
2, 4320, Note_on_c, 0, 60, 80
2, 4320, Note_on_c, 0, 64, 80
2, 4775, Note_on_c, 0, 57, 0
2, 4775, Note_on_c, 0, 60, 0
2, 4775, Note_on_c, 0, 64, 0
2, 4800, Note_on_c, 0, 55, 80
2, 4800, Note_on_c, 0, 59, 80
2, 4800, Note_on_c, 0, 64, 80
2, 5255, Note_on_c, 0, 55, 0
2, 5255, Note_on_c, 0, 59, 0
2, 5255, Note_on_c, 0, 64, 0
2, 5280, Note_on_c, 0, 55, 80
2, 5280, Note_on_c, 0, 59, 80
2, 5280, Note_on_c, 0, 64, 80
2, 5735, Note_on_c, 0, 55, 0
2, 5735, Note_on_c, 0, 59, 0
2, 5735, Note_on_c, 0, 64, 0
2, 5760, Note_on_c, 0, 55, 80
2, 5760, Note_on_c, 0, 60, 80
2, 5760, Note_on_c, 0, 64, 80
2, 6215, Note_on_c, 0, 55, 0
2, 6215, Note_on_c, 0, 60, 0
2, 6215, Note_on_c, 0, 64, 0
2, 6240, Note_on_c, 0, 55, 80
2, 6240, Note_on_c, 0, 60, 80
2, 6240, Note_on_c, 0, 64, 80
2, 6695, Note_on_c, 0, 55, 0
2, 6695, Note_on_c, 0, 60, 0
2, 6695, Note_on_c, 0, 64, 0
2, 6720, Note_on_c, 0, 55, 80
2, 6720, Note_on_c, 0, 60, 80
2, 6720, Note_on_c, 0, 64, 80
2, 7175, Note_on_c, 0, 55, 0
2, 7175, Note_on_c, 0, 60, 0
2, 7175, Note_on_c, 0, 64, 0
2, 7200, Note_on_c, 0, 55, 80
2, 7200, Note_on_c, 0, 60, 80
2, 7200, Note_on_c, 0, 64, 80
2, 7655, Note_on_c, 0, 55, 0
2, 7655, Note_on_c, 0, 60, 0
2, 7655, Note_on_c, 0, 64, 0
2, 7680, Note_on_c, 0, 59, 80
2, 7680, Note_on_c, 0, 64, 80
2, 7680, Note_on_c, 0, 67, 80
2, 8135, Note_on_c, 0, 59, 0
2, 8135, Note_on_c, 0, 64, 0
2, 8135, Note_on_c, 0, 67, 0
2, 8160, Note_on_c, 0, 59, 80
2, 8160, Note_on_c, 0, 64, 80
2, 8160, Note_on_c, 0, 67, 80
2, 8615, Note_on_c, 0, 59, 0
2, 8615, Note_on_c, 0, 64, 0
2, 8615, Note_on_c, 0, 67, 0
2, 8640, Note_on_c, 0, 59, 80
2, 8640, Note_on_c, 0, 62, 80
2, 8640, Note_on_c, 0, 67, 80
2, 9095, Note_on_c, 0, 59, 0
2, 9095, Note_on_c, 0, 62, 0
2, 9095, Note_on_c, 0, 67, 0
2, 9120, Note_on_c, 0, 59, 80
2, 9120, Note_on_c, 0, 62, 80
2, 9120, Note_on_c, 0, 67, 80
2, 9575, Note_on_c, 0, 59, 0
2, 9575, Note_on_c, 0, 62, 0
2, 9575, Note_on_c, 0, 67, 0
2, 9600, Note_on_c, 0, 60, 80
2, 9600, Note_on_c, 0, 64, 80
2, 9600, Note_on_c, 0, 67, 80
2, 10055, Note_on_c, 0, 60, 0
2, 10055, Note_on_c, 0, 64, 0
2, 10055, Note_on_c, 0, 67, 0
2, 10080, Note_on_c, 0, 60, 80
2, 10080, Note_on_c, 0, 64, 80
2, 10080, Note_on_c, 0, 67, 80
2, 10535, Note_on_c, 0, 60, 0
2, 10535, Note_on_c, 0, 64, 0
2, 10535, Note_on_c, 0, 67, 0
2, 10560, Note_on_c, 0, 59, 80
2, 10560, Note_on_c, 0, 64, 80
2, 10560, Note_on_c, 0, 67, 80
2, 11015, Note_on_c, 0, 59, 0
2, 11015, Note_on_c, 0, 64, 0
2, 11015, Note_on_c, 0, 67, 0
2, 11040, Note_on_c, 0, 59, 80
2, 11040, Note_on_c, 0, 64, 80
2, 11040, Note_on_c, 0, 67, 80
2, 11495, Note_on_c, 0, 59, 0
2, 11495, Note_on_c, 0, 64, 0
2, 11495, Note_on_c, 0, 67, 0
2, 11520, Note_on_c, 0, 57, 80
2, 11520, Note_on_c, 0, 60, 80
2, 11520, Note_on_c, 0, 64, 80
2, 11975, Note_on_c, 0, 57, 0
2, 11975, Note_on_c, 0, 60, 0
2, 11975, Note_on_c, 0, 64, 0
2, 12000, Note_on_c, 0, 57, 80
2, 12000, Note_on_c, 0, 60, 80
2, 12000, Note_on_c, 0, 64, 80
2, 12455, Note_on_c, 0, 57, 0
2, 12455, Note_on_c, 0, 60, 0
2, 12455, Note_on_c, 0, 64, 0
2, 12480, Note_on_c, 0, 55, 80
2, 12480, Note_on_c, 0, 59, 80
2, 12480, Note_on_c, 0, 64, 80
2, 12935, Note_on_c, 0, 55, 0
2, 12935, Note_on_c, 0, 59, 0
2, 12935, Note_on_c, 0, 64, 0
2, 12960, Note_on_c, 0, 59, 80
2, 12960, Note_on_c, 0, 64, 80
2, 12960, Note_on_c, 0, 67, 80
2, 13415, Note_on_c, 0, 59, 0
2, 13415, Note_on_c, 0, 64, 0
2, 13415, Note_on_c, 0, 67, 0
2, 13440, Note_on_c, 0, 55, 80
2, 13440, Note_on_c, 0, 60, 80
2, 13440, Note_on_c, 0, 64, 80
2, 13895, Note_on_c, 0, 55, 0
2, 13895, Note_on_c, 0, 60, 0
2, 13895, Note_on_c, 0, 64, 0
2, 13920, Note_on_c, 0, 55, 80
2, 13920, Note_on_c, 0, 60, 80
2, 13920, Note_on_c, 0, 64, 80
2, 14375, Note_on_c, 0, 55, 0
2, 14375, Note_on_c, 0, 60, 0
2, 14375, Note_on_c, 0, 64, 0
2, 14400, Note_on_c, 0, 55, 80
2, 14400, Note_on_c, 0, 60, 80
2, 14400, Note_on_c, 0, 64, 80
2, 14855, Note_on_c, 0, 55, 0
2, 14855, Note_on_c, 0, 60, 0
2, 14855, Note_on_c, 0, 64, 0
2, 14880, Note_on_c, 0, 55, 80
2, 14880, Note_on_c, 0, 60, 80
2, 14880, Note_on_c, 0, 64, 80
2, 15335, Note_on_c, 0, 55, 0
2, 15335, Note_on_c, 0, 60, 0
2, 15335, Note_on_c, 0, 64, 0
2, 15360, Note_on_c, 0, 59, 80
2, 15360, Note_on_c, 0, 64, 80
2, 15360, Note_on_c, 0, 67, 80
2, 15815, Note_on_c, 0, 59, 0
2, 15815, Note_on_c, 0, 64, 0
2, 15815, Note_on_c, 0, 67, 0
2, 15840, Note_on_c, 0, 59, 80
2, 15840, Note_on_c, 0, 64, 80
2, 15840, Note_on_c, 0, 67, 80
2, 16295, Note_on_c, 0, 59, 0
2, 16295, Note_on_c, 0, 64, 0
2, 16295, Note_on_c, 0, 67, 0
2, 16320, Note_on_c, 0, 59, 80
2, 16320, Note_on_c, 0, 62, 80
2, 16320, Note_on_c, 0, 67, 80
2, 16775, Note_on_c, 0, 59, 0
2, 16775, Note_on_c, 0, 62, 0
2, 16775, Note_on_c, 0, 67, 0
2, 16800, Note_on_c, 0, 59, 80
2, 16800, Note_on_c, 0, 62, 80
2, 16800, Note_on_c, 0, 67, 80
2, 17255, Note_on_c, 0, 59, 0
2, 17255, Note_on_c, 0, 62, 0
2, 17255, Note_on_c, 0, 67, 0
2, 17280, Note_on_c, 0, 60, 80
2, 17280, Note_on_c, 0, 64, 80
2, 17280, Note_on_c, 0, 67, 80
2, 17735, Note_on_c, 0, 60, 0
2, 17735, Note_on_c, 0, 64, 0
2, 17735, Note_on_c, 0, 67, 0
2, 17760, Note_on_c, 0, 60, 80
2, 17760, Note_on_c, 0, 64, 80
2, 18215, Note_on_c, 0, 60, 0
2, 18215, Note_on_c, 0, 64, 0
2, 18240, Note_on_c, 0, 59, 80
2, 18240, Note_on_c, 0, 64, 80
2, 18695, Note_on_c, 0, 59, 0
2, 18695, Note_on_c, 0, 64, 0
2, 18720, Note_on_c, 0, 59, 80
2, 18720, Note_on_c, 0, 64, 80
2, 18720, Note_on_c, 0, 67, 80
2, 19175, Note_on_c, 0, 59, 0
2, 19175, Note_on_c, 0, 64, 0
2, 19175, Note_on_c, 0, 67, 0
2, 19200, Note_on_c, 0, 57, 80
2, 19200, Note_on_c, 0, 60, 80
2, 19200, Note_on_c, 0, 64, 80
2, 19655, Note_on_c, 0, 57, 0
2, 19655, Note_on_c, 0, 60, 0
2, 19655, Note_on_c, 0, 64, 0
2, 19680, Note_on_c, 0, 57, 80
2, 19680, Note_on_c, 0, 60, 80
2, 19680, Note_on_c, 0, 64, 80
2, 20135, Note_on_c, 0, 57, 0
2, 20135, Note_on_c, 0, 60, 0
2, 20135, Note_on_c, 0, 64, 0
2, 20160, Note_on_c, 0, 55, 80
2, 20160, Note_on_c, 0, 59, 80
2, 20160, Note_on_c, 0, 64, 80
2, 20615, Note_on_c, 0, 55, 0
2, 20615, Note_on_c, 0, 59, 0
2, 20615, Note_on_c, 0, 64, 0
2, 20640, Note_on_c, 0, 59, 80
2, 20640, Note_on_c, 0, 64, 80
2, 20640, Note_on_c, 0, 67, 80
2, 21095, Note_on_c, 0, 59, 0
2, 21095, Note_on_c, 0, 64, 0
2, 21095, Note_on_c, 0, 67, 0
2, 21120, Note_on_c, 0, 60, 80
2, 21120, Note_on_c, 0, 64, 80
2, 21575, Note_on_c, 0, 60, 0
2, 21575, Note_on_c, 0, 64, 0
2, 21600, Note_on_c, 0, 60, 80
2, 21600, Note_on_c, 0, 64, 80
2, 21600, Note_on_c, 0, 67, 80
2, 22055, Note_on_c, 0, 60, 0
2, 22055, Note_on_c, 0, 64, 0
2, 22055, Note_on_c, 0, 67, 0
2, 22080, Note_on_c, 0, 60, 80
2, 22080, Note_on_c, 0, 64, 80
2, 22080, Note_on_c, 0, 67, 80
2, 22535, Note_on_c, 0, 60, 0
2, 22535, Note_on_c, 0, 64, 0
2, 22535, Note_on_c, 0, 67, 0
2, 22560, Note_on_c, 0, 59, 80
2, 22560, Note_on_c, 0, 64, 80
2, 22560, Note_on_c, 0, 67, 80
2, 23015, Note_on_c, 0, 59, 0
2, 23015, Note_on_c, 0, 64, 0
2, 23015, Note_on_c, 0, 67, 0
2, 23040, Note_on_c, 0, 57, 80
2, 23040, Note_on_c, 0, 60, 80
2, 23040, Note_on_c, 0, 64, 80
2, 23495, Note_on_c, 0, 57, 0
2, 23495, Note_on_c, 0, 60, 0
2, 23495, Note_on_c, 0, 64, 0
2, 23520, Note_on_c, 0, 57, 80
2, 23520, Note_on_c, 0, 60, 80
2, 23520, Note_on_c, 0, 64, 80
2, 23975, Note_on_c, 0, 57, 0
2, 23975, Note_on_c, 0, 60, 0
2, 23975, Note_on_c, 0, 64, 0
2, 24000, Note_on_c, 0, 55, 80
2, 24000, Note_on_c, 0, 59, 80
2, 24000, Note_on_c, 0, 62, 80
2, 24455, Note_on_c, 0, 55, 0
2, 24455, Note_on_c, 0, 59, 0
2, 24455, Note_on_c, 0, 62, 0
2, 24480, Note_on_c, 0, 59, 80
2, 24480, Note_on_c, 0, 62, 80
2, 24480, Note_on_c, 0, 67, 80
2, 24935, Note_on_c, 0, 59, 0
2, 24935, Note_on_c, 0, 62, 0
2, 24935, Note_on_c, 0, 67, 0
2, 24960, Note_on_c, 0, 60, 80
2, 24960, Note_on_c, 0, 64, 80
2, 25415, Note_on_c, 0, 60, 0
2, 25415, Note_on_c, 0, 64, 0
2, 25440, Note_on_c, 0, 60, 80
2, 25440, Note_on_c, 0, 64, 80
2, 25440, Note_on_c, 0, 67, 80
2, 25895, Note_on_c, 0, 60, 0
2, 25895, Note_on_c, 0, 64, 0
2, 25895, Note_on_c, 0, 67, 0
2, 25920, Note_on_c, 0, 60, 80
2, 25920, Note_on_c, 0, 64, 80
2, 25920, Note_on_c, 0, 67, 80
2, 26375, Note_on_c, 0, 60, 0
2, 26375, Note_on_c, 0, 64, 0
2, 26375, Note_on_c, 0, 67, 0
2, 26400, Note_on_c, 0, 59, 80
2, 26400, Note_on_c, 0, 64, 80
2, 26400, Note_on_c, 0, 67, 80
2, 26855, Note_on_c, 0, 59, 0
2, 26855, Note_on_c, 0, 64, 0
2, 26855, Note_on_c, 0, 67, 0
2, 26880, Note_on_c, 0, 57, 80
2, 26880, Note_on_c, 0, 60, 80
2, 26880, Note_on_c, 0, 64, 80
2, 27335, Note_on_c, 0, 57, 0
2, 27335, Note_on_c, 0, 60, 0
2, 27335, Note_on_c, 0, 64, 0
2, 27360, Note_on_c, 0, 57, 80
2, 27360, Note_on_c, 0, 60, 80
2, 27360, Note_on_c, 0, 64, 80
2, 27815, Note_on_c, 0, 57, 0
2, 27815, Note_on_c, 0, 60, 0
2, 27815, Note_on_c, 0, 64, 0
2, 27840, Note_on_c, 0, 55, 80
2, 27840, Note_on_c, 0, 59, 80
2, 27840, Note_on_c, 0, 62, 80
2, 28295, Note_on_c, 0, 55, 0
2, 28295, Note_on_c, 0, 59, 0
2, 28295, Note_on_c, 0, 62, 0
2, 28320, Note_on_c, 0, 59, 80
2, 28320, Note_on_c, 0, 62, 80
2, 28320, Note_on_c, 0, 67, 80
2, 28775, Note_on_c, 0, 59, 0
2, 28775, Note_on_c, 0, 62, 0
2, 28775, Note_on_c, 0, 67, 0
2, 28800, Note_on_c, 0, 55, 80
2, 28800, Note_on_c, 0, 60, 80
2, 28800, Note_on_c, 0, 64, 80
2, 29255, Note_on_c, 0, 55, 0
2, 29255, Note_on_c, 0, 60, 0
2, 29255, Note_on_c, 0, 64, 0
2, 29280, Note_on_c, 0, 60, 80
2, 29280, Note_on_c, 0, 64, 80
2, 29735, Note_on_c, 0, 60, 0
2, 29735, Note_on_c, 0, 64, 0
2, 29760, Note_on_c, 0, 60, 80
2, 29760, Note_on_c, 0, 64, 80
2, 30215, Note_on_c, 0, 60, 0
2, 30215, Note_on_c, 0, 64, 0
2, 30240, Note_on_c, 0, 60, 80
2, 30240, Note_on_c, 0, 64, 80
2, 30695, Note_on_c, 0, 60, 0
2, 30695, Note_on_c, 0, 64, 0
2, 30720, Note_on_c, 0, 55, 80
2, 30720, Note_on_c, 0, 60, 80
2, 30720, Note_on_c, 0, 64, 80
2, 31175, Note_on_c, 0, 55, 0
2, 31175, Note_on_c, 0, 60, 0
2, 31175, Note_on_c, 0, 64, 0
2, 31200, Note_on_c, 0, 55, 80
2, 31200, Note_on_c, 0, 60, 80
2, 31200, Note_on_c, 0, 64, 80
2, 31655, Note_on_c, 0, 55, 0
2, 31655, Note_on_c, 0, 60, 0
2, 31655, Note_on_c, 0, 64, 0
2, 31680, Note_on_c, 0, 55, 80
2, 31680, Note_on_c, 0, 60, 80
2, 31680, Note_on_c, 0, 64, 80
2, 32135, Note_on_c, 0, 55, 0
2, 32135, Note_on_c, 0, 60, 0
2, 32135, Note_on_c, 0, 64, 0
2, 32160, Note_on_c, 0, 57, 80
2, 32160, Note_on_c, 0, 60, 80
2, 32160, Note_on_c, 0, 62, 80
2, 32615, Note_on_c, 0, 57, 0
2, 32615, Note_on_c, 0, 60, 0
2, 32615, Note_on_c, 0, 62, 0
2, 32640, Note_on_c, 0, 55, 80
2, 32640, Note_on_c, 0, 59, 80
2, 32640, Note_on_c, 0, 62, 80
2, 33095, Note_on_c, 0, 55, 0
2, 33095, Note_on_c, 0, 59, 0
2, 33095, Note_on_c, 0, 62, 0
2, 33120, Note_on_c, 0, 55, 80
2, 33120, Note_on_c, 0, 59, 80
2, 33120, Note_on_c, 0, 62, 80
2, 33575, Note_on_c, 0, 55, 0
2, 33575, Note_on_c, 0, 59, 0
2, 33575, Note_on_c, 0, 62, 0
2, 33600, Note_on_c, 0, 55, 80
2, 33600, Note_on_c, 0, 59, 80
2, 33600, Note_on_c, 0, 62, 80
2, 34055, Note_on_c, 0, 55, 0
2, 34055, Note_on_c, 0, 59, 0
2, 34055, Note_on_c, 0, 62, 0
2, 34080, Note_on_c, 0, 55, 80
2, 34080, Note_on_c, 0, 59, 80
2, 34080, Note_on_c, 0, 62, 80
2, 34319, Note_on_c, 0, 55, 0
2, 34319, Note_on_c, 0, 59, 0
2, 34319, Note_on_c, 0, 62, 0
2, 34560, Note_on_c, 0, 57, 80
2, 34560, Note_on_c, 0, 62, 80
2, 35015, Note_on_c, 0, 57, 0
2, 35015, Note_on_c, 0, 62, 0
2, 35040, Note_on_c, 0, 57, 80
2, 35040, Note_on_c, 0, 62, 80
2, 35495, Note_on_c, 0, 57, 0
2, 35495, Note_on_c, 0, 62, 0
2, 35520, Note_on_c, 0, 57, 80
2, 35520, Note_on_c, 0, 62, 80
2, 35975, Note_on_c, 0, 57, 0
2, 35975, Note_on_c, 0, 62, 0
2, 36000, Note_on_c, 0, 57, 80
2, 36000, Note_on_c, 0, 62, 80
2, 36455, Note_on_c, 0, 57, 0
2, 36455, Note_on_c, 0, 62, 0
2, 36480, Note_on_c, 0, 55, 80
2, 36480, Note_on_c, 0, 59, 80
2, 36480, Note_on_c, 0, 64, 80
2, 36935, Note_on_c, 0, 55, 0
2, 36935, Note_on_c, 0, 59, 0
2, 36935, Note_on_c, 0, 64, 0
2, 36960, Note_on_c, 0, 55, 80
2, 36960, Note_on_c, 0, 59, 80
2, 36960, Note_on_c, 0, 64, 80
2, 37415, Note_on_c, 0, 55, 0
2, 37415, Note_on_c, 0, 59, 0
2, 37415, Note_on_c, 0, 64, 0
2, 37440, Note_on_c, 0, 55, 80
2, 37440, Note_on_c, 0, 59, 80
2, 37440, Note_on_c, 0, 64, 80
2, 37895, Note_on_c, 0, 55, 0
2, 37895, Note_on_c, 0, 59, 0
2, 37895, Note_on_c, 0, 64, 0
2, 37920, Note_on_c, 0, 62, 80
2, 37920, Note_on_c, 0, 67, 80
2, 38159, Note_on_c, 0, 62, 0
2, 38159, Note_on_c, 0, 67, 0
2, 38400, Note_on_c, 0, 55, 80
2, 38400, Note_on_c, 0, 60, 80
2, 38855, Note_on_c, 0, 55, 0
2, 38855, Note_on_c, 0, 60, 0
2, 38880, Note_on_c, 0, 55, 80
2, 38880, Note_on_c, 0, 60, 80
2, 38880, Note_on_c, 0, 64, 80
2, 39335, Note_on_c, 0, 55, 0
2, 39335, Note_on_c, 0, 60, 0
2, 39335, Note_on_c, 0, 64, 0
2, 39360, Note_on_c, 0, 55, 80
2, 39360, Note_on_c, 0, 60, 80
2, 39360, Note_on_c, 0, 64, 80
2, 39815, Note_on_c, 0, 55, 0
2, 39815, Note_on_c, 0, 60, 0
2, 39815, Note_on_c, 0, 64, 0
2, 39840, Note_on_c, 0, 57, 80
2, 39840, Note_on_c, 0, 60, 80
2, 39840, Note_on_c, 0, 67, 80
2, 40079, Note_on_c, 0, 57, 0
2, 40079, Note_on_c, 0, 60, 0
2, 40079, Note_on_c, 0, 67, 0
2, 40320, Note_on_c, 0, 59, 80
2, 40320, Note_on_c, 0, 62, 80
2, 40320, Note_on_c, 0, 67, 80
2, 40775, Note_on_c, 0, 59, 0
2, 40775, Note_on_c, 0, 62, 0
2, 40775, Note_on_c, 0, 67, 0
2, 40800, Note_on_c, 0, 59, 80
2, 40800, Note_on_c, 0, 62, 80
2, 40800, Note_on_c, 0, 67, 80
2, 41255, Note_on_c, 0, 59, 0
2, 41255, Note_on_c, 0, 62, 0
2, 41255, Note_on_c, 0, 67, 0
2, 41280, Note_on_c, 0, 59, 80
2, 41280, Note_on_c, 0, 62, 80
2, 41280, Note_on_c, 0, 67, 80
2, 41735, Note_on_c, 0, 59, 0
2, 41735, Note_on_c, 0, 62, 0
2, 41735, Note_on_c, 0, 67, 0
2, 41760, Note_on_c, 0, 59, 80
2, 41760, Note_on_c, 0, 62, 80
2, 41760, Note_on_c, 0, 67, 80
2, 41999, Note_on_c, 0, 59, 0
2, 41999, Note_on_c, 0, 62, 0
2, 41999, Note_on_c, 0, 67, 0
2, 42240, Note_on_c, 0, 59, 80
2, 42240, Note_on_c, 0, 64, 80
2, 42695, Note_on_c, 0, 59, 0
2, 42695, Note_on_c, 0, 64, 0
2, 42720, Note_on_c, 0, 59, 80
2, 42720, Note_on_c, 0, 62, 80
2, 43175, Note_on_c, 0, 59, 0
2, 43175, Note_on_c, 0, 62, 0
2, 43200, Note_on_c, 0, 59, 80
2, 43200, Note_on_c, 0, 62, 80
2, 43655, Note_on_c, 0, 59, 0
2, 43655, Note_on_c, 0, 62, 0
2, 43680, Note_on_c, 0, 57, 80
2, 43680, Note_on_c, 0, 60, 80
2, 44135, Note_on_c, 0, 57, 0
2, 44135, Note_on_c, 0, 60, 0
2, 44160, Note_on_c, 0, 59, 80
2, 44160, Note_on_c, 0, 62, 80
2, 44615, Note_on_c, 0, 59, 0
2, 44615, Note_on_c, 0, 62, 0
2, 44640, Note_on_c, 0, 59, 80
2, 44640, Note_on_c, 0, 62, 80
2, 45095, Note_on_c, 0, 59, 0
2, 45095, Note_on_c, 0, 62, 0
2, 45120, Note_on_c, 0, 59, 80
2, 45120, Note_on_c, 0, 62, 80
2, 45575, Note_on_c, 0, 59, 0
2, 45575, Note_on_c, 0, 62, 0
2, 45600, Note_on_c, 0, 55, 80
2, 45600, Note_on_c, 0, 62, 80
2, 46055, Note_on_c, 0, 55, 0
2, 46055, Note_on_c, 0, 62, 0
2, 46080, Note_on_c, 0, 55, 80
2, 46080, Note_on_c, 0, 62, 80
2, 46535, Note_on_c, 0, 55, 0
2, 46535, Note_on_c, 0, 62, 0
2, 46560, Note_on_c, 0, 55, 80
2, 46560, Note_on_c, 0, 62, 80
2, 47015, Note_on_c, 0, 55, 0
2, 47015, Note_on_c, 0, 62, 0
2, 47040, Note_on_c, 0, 57, 80
2, 47040, Note_on_c, 0, 60, 80
2, 47495, Note_on_c, 0, 57, 0
2, 47495, Note_on_c, 0, 60, 0
2, 47520, Note_on_c, 0, 57, 80
2, 47520, Note_on_c, 0, 60, 80
2, 47975, Note_on_c, 0, 57, 0
2, 47975, Note_on_c, 0, 60, 0
2, 48000, Note_on_c, 0, 55, 80
2, 48000, Note_on_c, 0, 59, 80
2, 48000, Note_on_c, 0, 62, 80
2, 48455, Note_on_c, 0, 55, 0
2, 48455, Note_on_c, 0, 59, 0
2, 48455, Note_on_c, 0, 62, 0
2, 48480, Note_on_c, 0, 59, 80
2, 48480, Note_on_c, 0, 62, 80
2, 48935, Note_on_c, 0, 59, 0
2, 48935, Note_on_c, 0, 62, 0
2, 48960, Note_on_c, 0, 59, 80
2, 48960, Note_on_c, 0, 62, 80
2, 49415, Note_on_c, 0, 59, 0
2, 49415, Note_on_c, 0, 62, 0
2, 49440, Note_on_c, 0, 57, 80
2, 49440, Note_on_c, 0, 67, 80
2, 49895, Note_on_c, 0, 57, 0
2, 49895, Note_on_c, 0, 67, 0
2, 49920, Note_on_c, 0, 59, 80
2, 49920, Note_on_c, 0, 64, 80
2, 49920, Note_on_c, 0, 67, 80
2, 50375, Note_on_c, 0, 59, 0
2, 50375, Note_on_c, 0, 64, 0
2, 50375, Note_on_c, 0, 67, 0
2, 50400, Note_on_c, 0, 59, 80
2, 50400, Note_on_c, 0, 64, 80
2, 50400, Note_on_c, 0, 67, 80
2, 50855, Note_on_c, 0, 59, 0
2, 50855, Note_on_c, 0, 64, 0
2, 50855, Note_on_c, 0, 67, 0
2, 50880, Note_on_c, 0, 59, 80
2, 50880, Note_on_c, 0, 62, 80
2, 50880, Note_on_c, 0, 67, 80
2, 51335, Note_on_c, 0, 59, 0
2, 51335, Note_on_c, 0, 62, 0
2, 51335, Note_on_c, 0, 67, 0
2, 51360, Note_on_c, 0, 59, 80
2, 51360, Note_on_c, 0, 62, 80
2, 51360, Note_on_c, 0, 67, 80
2, 51815, Note_on_c, 0, 59, 0
2, 51815, Note_on_c, 0, 62, 0
2, 51815, Note_on_c, 0, 67, 0
2, 51840, Note_on_c, 0, 60, 80
2, 51840, Note_on_c, 0, 64, 80
2, 51840, Note_on_c, 0, 67, 80
2, 52295, Note_on_c, 0, 60, 0
2, 52295, Note_on_c, 0, 64, 0
2, 52295, Note_on_c, 0, 67, 0
2, 52320, Note_on_c, 0, 60, 80
2, 52320, Note_on_c, 0, 64, 80
2, 52320, Note_on_c, 0, 67, 80
2, 52775, Note_on_c, 0, 60, 0
2, 52775, Note_on_c, 0, 64, 0
2, 52775, Note_on_c, 0, 67, 0
2, 52800, Note_on_c, 0, 59, 80
2, 52800, Note_on_c, 0, 64, 80
2, 52800, Note_on_c, 0, 67, 80
2, 53255, Note_on_c, 0, 59, 0
2, 53255, Note_on_c, 0, 64, 0
2, 53255, Note_on_c, 0, 67, 0
2, 53280, Note_on_c, 0, 59, 80
2, 53280, Note_on_c, 0, 64, 80
2, 53280, Note_on_c, 0, 67, 80
2, 53735, Note_on_c, 0, 59, 0
2, 53735, Note_on_c, 0, 64, 0
2, 53735, Note_on_c, 0, 67, 0
2, 53760, Note_on_c, 0, 57, 80
2, 53760, Note_on_c, 0, 60, 80
2, 53760, Note_on_c, 0, 64, 80
2, 54215, Note_on_c, 0, 57, 0
2, 54215, Note_on_c, 0, 60, 0
2, 54215, Note_on_c, 0, 64, 0
2, 54240, Note_on_c, 0, 57, 80
2, 54240, Note_on_c, 0, 60, 80
2, 54240, Note_on_c, 0, 64, 80
2, 54695, Note_on_c, 0, 57, 0
2, 54695, Note_on_c, 0, 60, 0
2, 54695, Note_on_c, 0, 64, 0
2, 54720, Note_on_c, 0, 55, 80
2, 54720, Note_on_c, 0, 59, 80
2, 54720, Note_on_c, 0, 64, 80
2, 55175, Note_on_c, 0, 55, 0
2, 55175, Note_on_c, 0, 59, 0
2, 55175, Note_on_c, 0, 64, 0
2, 55200, Note_on_c, 0, 59, 80
2, 55200, Note_on_c, 0, 64, 80
2, 55200, Note_on_c, 0, 67, 80
2, 55655, Note_on_c, 0, 59, 0
2, 55655, Note_on_c, 0, 64, 0
2, 55655, Note_on_c, 0, 67, 0
2, 55680, Note_on_c, 0, 60, 80
2, 55680, Note_on_c, 0, 64, 80
2, 56135, Note_on_c, 0, 60, 0
2, 56135, Note_on_c, 0, 64, 0
2, 56160, Note_on_c, 0, 60, 80
2, 56160, Note_on_c, 0, 64, 80
2, 56160, Note_on_c, 0, 67, 80
2, 56615, Note_on_c, 0, 60, 0
2, 56615, Note_on_c, 0, 64, 0
2, 56615, Note_on_c, 0, 67, 0
2, 56640, Note_on_c, 0, 60, 80
2, 56640, Note_on_c, 0, 64, 80
2, 56640, Note_on_c, 0, 67, 80
2, 57095, Note_on_c, 0, 60, 0
2, 57095, Note_on_c, 0, 64, 0
2, 57095, Note_on_c, 0, 67, 0
2, 57120, Note_on_c, 0, 59, 80
2, 57120, Note_on_c, 0, 64, 80
2, 57120, Note_on_c, 0, 67, 80
2, 57575, Note_on_c, 0, 59, 0
2, 57575, Note_on_c, 0, 64, 0
2, 57575, Note_on_c, 0, 67, 0
2, 57600, Note_on_c, 0, 60, 80
2, 57600, Note_on_c, 0, 64, 80
2, 58055, Note_on_c, 0, 60, 0
2, 58055, Note_on_c, 0, 64, 0
2, 58080, Note_on_c, 0, 57, 80
2, 58080, Note_on_c, 0, 60, 80
2, 58080, Note_on_c, 0, 67, 80
2, 58535, Note_on_c, 0, 57, 0
2, 58535, Note_on_c, 0, 60, 0
2, 58535, Note_on_c, 0, 67, 0
2, 58560, Note_on_c, 0, 59, 80
2, 58560, Note_on_c, 0, 62, 80
2, 59015, Note_on_c, 0, 59, 0
2, 59015, Note_on_c, 0, 62, 0
2, 59040, Note_on_c, 0, 59, 80
2, 59040, Note_on_c, 0, 62, 80
2, 59040, Note_on_c, 0, 67, 80
2, 59495, Note_on_c, 0, 59, 0
2, 59495, Note_on_c, 0, 62, 0
2, 59495, Note_on_c, 0, 67, 0
2, 59520, Note_on_c, 0, 60, 80
2, 59520, Note_on_c, 0, 64, 80
2, 59975, Note_on_c, 0, 60, 0
2, 59975, Note_on_c, 0, 64, 0
2, 60000, Note_on_c, 0, 60, 80
2, 60000, Note_on_c, 0, 64, 80
2, 60455, Note_on_c, 0, 60, 0
2, 60455, Note_on_c, 0, 64, 0
2, 60480, Note_on_c, 0, 60, 80
2, 60480, Note_on_c, 0, 64, 80
2, 60935, Note_on_c, 0, 60, 0
2, 60935, Note_on_c, 0, 64, 0
2, 60960, Note_on_c, 0, 55, 80
2, 60960, Note_on_c, 0, 64, 80
2, 61415, Note_on_c, 0, 55, 0
2, 61415, Note_on_c, 0, 64, 0
2, 61440, Note_on_c, 0, 57, 80
2, 61440, Note_on_c, 0, 60, 80
2, 61440, Note_on_c, 0, 64, 80
2, 61895, Note_on_c, 0, 57, 0
2, 61895, Note_on_c, 0, 60, 0
2, 61895, Note_on_c, 0, 64, 0
2, 61920, Note_on_c, 0, 57, 80
2, 61920, Note_on_c, 0, 60, 80
2, 61920, Note_on_c, 0, 67, 80
2, 62375, Note_on_c, 0, 57, 0
2, 62375, Note_on_c, 0, 60, 0
2, 62375, Note_on_c, 0, 67, 0
2, 62400, Note_on_c, 0, 59, 80
2, 62400, Note_on_c, 0, 62, 80
2, 62855, Note_on_c, 0, 59, 0
2, 62855, Note_on_c, 0, 62, 0
2, 62880, Note_on_c, 0, 62, 80
2, 62880, Note_on_c, 0, 67, 80
2, 62880, Note_on_c, 0, 59, 80
2, 63119, Note_on_c, 0, 62, 0
2, 63119, Note_on_c, 0, 67, 0
2, 63120, Note_on_c, 0, 62, 80
2, 63335, Note_on_c, 0, 59, 0
2, 63347, Note_on_c, 0, 62, 0
2, 63360, Note_on_c, 0, 60, 80
2, 63360, Note_on_c, 0, 64, 80
2, 63815, Note_on_c, 0, 60, 0
2, 63815, Note_on_c, 0, 64, 0
2, 63840, Note_on_c, 0, 60, 80
2, 63840, Note_on_c, 0, 64, 80
2, 64295, Note_on_c, 0, 60, 0
2, 64295, Note_on_c, 0, 64, 0
2, 64320, Note_on_c, 0, 60, 80
2, 64320, Note_on_c, 0, 64, 80
2, 64775, Note_on_c, 0, 60, 0
2, 64775, Note_on_c, 0, 64, 0
2, 64800, Note_on_c, 0, 60, 80
2, 64800, Note_on_c, 0, 64, 80
2, 65255, Note_on_c, 0, 60, 0
2, 65255, Note_on_c, 0, 64, 0
2, 65280, Note_on_c, 0, 55, 80
2, 65280, Note_on_c, 0, 60, 80
2, 65735, Note_on_c, 0, 55, 0
2, 65735, Note_on_c, 0, 60, 0
2, 65760, Note_on_c, 0, 55, 80
2, 65760, Note_on_c, 0, 60, 80
2, 65760, Note_on_c, 0, 64, 80
2, 66215, Note_on_c, 0, 55, 0
2, 66215, Note_on_c, 0, 60, 0
2, 66215, Note_on_c, 0, 64, 0
2, 66240, Note_on_c, 0, 55, 80
2, 66240, Note_on_c, 0, 60, 80
2, 66240, Note_on_c, 0, 64, 80
2, 66695, Note_on_c, 0, 55, 0
2, 66695, Note_on_c, 0, 60, 0
2, 66695, Note_on_c, 0, 64, 0
2, 66720, Note_on_c, 0, 57, 80
2, 66720, Note_on_c, 0, 60, 80
2, 66720, Note_on_c, 0, 62, 80
2, 67175, Note_on_c, 0, 57, 0
2, 67175, Note_on_c, 0, 60, 0
2, 67175, Note_on_c, 0, 62, 0
2, 67200, Note_on_c, 0, 59, 80
2, 67200, Note_on_c, 0, 62, 80
2, 67655, Note_on_c, 0, 59, 0
2, 67655, Note_on_c, 0, 62, 0
2, 67680, Note_on_c, 0, 59, 80
2, 67680, Note_on_c, 0, 62, 80
2, 68135, Note_on_c, 0, 59, 0
2, 68135, Note_on_c, 0, 62, 0
2, 68160, Note_on_c, 0, 59, 80
2, 68160, Note_on_c, 0, 62, 80
2, 68615, Note_on_c, 0, 59, 0
2, 68615, Note_on_c, 0, 62, 0
2, 68640, Note_on_c, 0, 59, 80
2, 68640, Note_on_c, 0, 62, 80
2, 69095, Note_on_c, 0, 59, 0
2, 69095, Note_on_c, 0, 62, 0
2, 69120, Note_on_c, 0, 57, 80
2, 69120, Note_on_c, 0, 62, 80
2, 69575, Note_on_c, 0, 57, 0
2, 69575, Note_on_c, 0, 62, 0
2, 69600, Note_on_c, 0, 57, 80
2, 69600, Note_on_c, 0, 62, 80
2, 70055, Note_on_c, 0, 57, 0
2, 70055, Note_on_c, 0, 62, 0
2, 70080, Note_on_c, 0, 57, 80
2, 70080, Note_on_c, 0, 62, 80
2, 70535, Note_on_c, 0, 57, 0
2, 70535, Note_on_c, 0, 62, 0
2, 70560, Note_on_c, 0, 57, 80
2, 70560, Note_on_c, 0, 62, 80
2, 71015, Note_on_c, 0, 57, 0
2, 71015, Note_on_c, 0, 62, 0
2, 71040, Note_on_c, 0, 55, 80
2, 71040, Note_on_c, 0, 59, 80
2, 71040, Note_on_c, 0, 64, 80
2, 71495, Note_on_c, 0, 55, 0
2, 71495, Note_on_c, 0, 59, 0
2, 71495, Note_on_c, 0, 64, 0
2, 71520, Note_on_c, 0, 55, 80
2, 71520, Note_on_c, 0, 59, 80
2, 71520, Note_on_c, 0, 64, 80
2, 71975, Note_on_c, 0, 55, 0
2, 71975, Note_on_c, 0, 59, 0
2, 71975, Note_on_c, 0, 64, 0
2, 72000, Note_on_c, 0, 55, 80
2, 72000, Note_on_c, 0, 59, 80
2, 72000, Note_on_c, 0, 64, 80
2, 72455, Note_on_c, 0, 55, 0
2, 72455, Note_on_c, 0, 59, 0
2, 72455, Note_on_c, 0, 64, 0
2, 72480, Note_on_c, 0, 59, 80
2, 72480, Note_on_c, 0, 62, 80
2, 72719, Note_on_c, 0, 59, 0
2, 72719, Note_on_c, 0, 62, 0
2, 72960, Note_on_c, 0, 55, 80
2, 72960, Note_on_c, 0, 60, 80
2, 73415, Note_on_c, 0, 55, 0
2, 73415, Note_on_c, 0, 60, 0
2, 73440, Note_on_c, 0, 60, 80
2, 73440, Note_on_c, 0, 64, 80
2, 73895, Note_on_c, 0, 60, 0
2, 73895, Note_on_c, 0, 64, 0
2, 73920, Note_on_c, 0, 60, 80
2, 73920, Note_on_c, 0, 64, 80
2, 74375, Note_on_c, 0, 60, 0
2, 74375, Note_on_c, 0, 64, 0
2, 74400, Note_on_c, 0, 57, 80
2, 74400, Note_on_c, 0, 60, 80
2, 74400, Note_on_c, 0, 67, 80
2, 74639, Note_on_c, 0, 57, 0
2, 74639, Note_on_c, 0, 60, 0
2, 74639, Note_on_c, 0, 67, 0
2, 74880, Note_on_c, 0, 59, 80
2, 74880, Note_on_c, 0, 62, 80
2, 75335, Note_on_c, 0, 59, 0
2, 75335, Note_on_c, 0, 62, 0
2, 75360, Note_on_c, 0, 59, 80
2, 75360, Note_on_c, 0, 62, 80
2, 75815, Note_on_c, 0, 59, 0
2, 75815, Note_on_c, 0, 62, 0
2, 75840, Note_on_c, 0, 59, 80
2, 75840, Note_on_c, 0, 62, 80
2, 75840, Note_on_c, 0, 67, 80
2, 76295, Note_on_c, 0, 59, 0
2, 76295, Note_on_c, 0, 62, 0
2, 76295, Note_on_c, 0, 67, 0
2, 76320, Note_on_c, 0, 59, 80
2, 76320, Note_on_c, 0, 62, 80
2, 76320, Note_on_c, 0, 67, 80
2, 76559, Note_on_c, 0, 59, 0
2, 76559, Note_on_c, 0, 62, 0
2, 76559, Note_on_c, 0, 67, 0
2, 76800, Note_on_c, 0, 59, 80
2, 76800, Note_on_c, 0, 64, 80
2, 77255, Note_on_c, 0, 59, 0
2, 77255, Note_on_c, 0, 64, 0
2, 77280, Note_on_c, 0, 55, 80
2, 77280, Note_on_c, 0, 62, 80
2, 77735, Note_on_c, 0, 55, 0
2, 77735, Note_on_c, 0, 62, 0
2, 77760, Note_on_c, 0, 57, 80
2, 77760, Note_on_c, 0, 60, 80
2, 78215, Note_on_c, 0, 57, 0
2, 78215, Note_on_c, 0, 60, 0
2, 78240, Note_on_c, 0, 57, 80
2, 78240, Note_on_c, 0, 60, 80
2, 78695, Note_on_c, 0, 57, 0
2, 78695, Note_on_c, 0, 60, 0
2, 78720, Note_on_c, 0, 55, 80
2, 78720, Note_on_c, 0, 59, 80
2, 78720, Note_on_c, 0, 62, 80
2, 79175, Note_on_c, 0, 55, 0
2, 79175, Note_on_c, 0, 59, 0
2, 79175, Note_on_c, 0, 62, 0
2, 79200, Note_on_c, 0, 59, 80
2, 79200, Note_on_c, 0, 62, 80
2, 79655, Note_on_c, 0, 59, 0
2, 79655, Note_on_c, 0, 62, 0
2, 79680, Note_on_c, 0, 59, 80
2, 79680, Note_on_c, 0, 62, 80
2, 80135, Note_on_c, 0, 59, 0
2, 80135, Note_on_c, 0, 62, 0
2, 80160, Note_on_c, 0, 55, 80
2, 80160, Note_on_c, 0, 62, 80
2, 80615, Note_on_c, 0, 55, 0
2, 80615, Note_on_c, 0, 62, 0
2, 80640, Note_on_c, 0, 52, 80
2, 80640, Note_on_c, 0, 62, 80
2, 81095, Note_on_c, 0, 52, 0
2, 81095, Note_on_c, 0, 62, 0
2, 81120, Note_on_c, 0, 55, 80
2, 81120, Note_on_c, 0, 62, 80
2, 81575, Note_on_c, 0, 55, 0
2, 81575, Note_on_c, 0, 62, 0
2, 81600, Note_on_c, 0, 57, 80
2, 81600, Note_on_c, 0, 60, 80
2, 82055, Note_on_c, 0, 57, 0
2, 82055, Note_on_c, 0, 60, 0
2, 82080, Note_on_c, 0, 57, 80
2, 82080, Note_on_c, 0, 60, 80
2, 82535, Note_on_c, 0, 57, 0
2, 82535, Note_on_c, 0, 60, 0
2, 82560, Note_on_c, 0, 55, 80
2, 82560, Note_on_c, 0, 59, 80
2, 82560, Note_on_c, 0, 62, 80
2, 83015, Note_on_c, 0, 55, 0
2, 83015, Note_on_c, 0, 59, 0
2, 83015, Note_on_c, 0, 62, 0
2, 83040, Note_on_c, 0, 59, 80
2, 83040, Note_on_c, 0, 62, 80
2, 83495, Note_on_c, 0, 59, 0
2, 83495, Note_on_c, 0, 62, 0
2, 83520, Note_on_c, 0, 57, 80
2, 83520, Note_on_c, 0, 62, 80
2, 83975, Note_on_c, 0, 57, 0
2, 83975, Note_on_c, 0, 62, 0
2, 84000, Note_on_c, 0, 57, 80
2, 84000, Note_on_c, 0, 62, 80
2, 84455, Note_on_c, 0, 57, 0
2, 84455, Note_on_c, 0, 62, 0
2, 84480, Note_on_c, 0, 60, 80
2, 84480, Note_on_c, 0, 64, 80
2, 84935, Note_on_c, 0, 60, 0
2, 84935, Note_on_c, 0, 64, 0
2, 85440, Note_on_c, 0, 59, 80
2, 85440, Note_on_c, 0, 62, 80
2, 85895, Note_on_c, 0, 59, 0
2, 85895, Note_on_c, 0, 62, 0
2, 86400, Note_on_c, 0, 60, 80
2, 86400, Note_on_c, 0, 64, 80
2, 87767, Note_on_c, 0, 60, 0
2, 87767, Note_on_c, 0, 64, 0
2, 87840, Note_on_c, 0, 59, 80
2, 87840, Note_on_c, 0, 64, 80
2, 87840, Note_on_c, 0, 67, 80
2, 88295, Note_on_c, 0, 59, 0
2, 88295, Note_on_c, 0, 64, 0
2, 88295, Note_on_c, 0, 67, 0
2, 88320, Note_on_c, 0, 60, 80
2, 88320, Note_on_c, 0, 64, 80
2, 88775, Note_on_c, 0, 60, 0
2, 88775, Note_on_c, 0, 64, 0
2, 89280, Note_on_c, 0, 59, 80
2, 89280, Note_on_c, 0, 62, 80
2, 89735, Note_on_c, 0, 59, 0
2, 89735, Note_on_c, 0, 62, 0
2, 90240, Note_on_c, 0, 60, 80
2, 90240, Note_on_c, 0, 64, 80
2, 91151, Note_on_c, 0, 60, 0
2, 91151, Note_on_c, 0, 64, 0
2, 92160, Note_on_c, 0, 55, 80
2, 92160, Note_on_c, 0, 64, 80
2, 93983, Note_on_c, 0, 55, 0
2, 93983, Note_on_c, 0, 64, 0
2, 94080, Note_on_c, 0, 59, 80
2, 94080, Note_on_c, 0, 62, 80
2, 94080, Note_on_c, 0, 55, 80
2, 95447, Note_on_c, 0, 55, 0
2, 95903, Note_on_c, 0, 59, 0
2, 95903, Note_on_c, 0, 62, 0
2, 96000, Note_on_c, 0, 57, 80
2, 96000, Note_on_c, 0, 62, 80
2, 97823, Note_on_c, 0, 57, 0
2, 97823, Note_on_c, 0, 62, 0
2, 97920, Note_on_c, 0, 55, 80
2, 97920, Note_on_c, 0, 59, 80
2, 98831, Note_on_c, 0, 55, 0
2, 98831, Note_on_c, 0, 59, 0
2, 98880, Note_on_c, 0, 59, 80
2, 98880, Note_on_c, 0, 64, 80
2, 99335, Note_on_c, 0, 59, 0
2, 99335, Note_on_c, 0, 64, 0
2, 99360, Note_on_c, 0, 59, 80
2, 99360, Note_on_c, 0, 62, 80
2, 99360, Note_on_c, 0, 67, 80
2, 99815, Note_on_c, 0, 59, 0
2, 99815, Note_on_c, 0, 62, 0
2, 99815, Note_on_c, 0, 67, 0
2, 99840, Note_on_c, 0, 60, 80
2, 99840, Note_on_c, 0, 64, 80
2, 99840, Note_on_c, 0, 67, 80
2, 100295, Note_on_c, 0, 60, 0
2, 100295, Note_on_c, 0, 64, 0
2, 100295, Note_on_c, 0, 67, 0
2, 100320, Note_on_c, 0, 55, 80
2, 100320, Note_on_c, 0, 60, 80
2, 100320, Note_on_c, 0, 64, 80
2, 100775, Note_on_c, 0, 55, 0
2, 100775, Note_on_c, 0, 60, 0
2, 100775, Note_on_c, 0, 64, 0
2, 100800, Note_on_c, 0, 55, 80
2, 100800, Note_on_c, 0, 60, 80
2, 100800, Note_on_c, 0, 64, 80
2, 101255, Note_on_c, 0, 55, 0
2, 101255, Note_on_c, 0, 60, 0
2, 101255, Note_on_c, 0, 64, 0
2, 101280, Note_on_c, 0, 71, 80
2, 101280, Note_on_c, 0, 60, 80
2, 101280, Note_on_c, 0, 64, 80
2, 101507, Note_on_c, 0, 71, 0
2, 101520, Note_on_c, 0, 69, 80
2, 101735, Note_on_c, 0, 60, 0
2, 101735, Note_on_c, 0, 64, 0
2, 101747, Note_on_c, 0, 69, 0
2, 101760, Note_on_c, 0, 59, 80
2, 101760, Note_on_c, 0, 62, 80
2, 101760, Note_on_c, 0, 67, 80
2, 102215, Note_on_c, 0, 59, 0
2, 102215, Note_on_c, 0, 62, 0
2, 102215, Note_on_c, 0, 67, 0
2, 102240, Note_on_c, 0, 59, 80
2, 102240, Note_on_c, 0, 62, 80
2, 102240, Note_on_c, 0, 67, 80
2, 102695, Note_on_c, 0, 59, 0
2, 102695, Note_on_c, 0, 62, 0
2, 102695, Note_on_c, 0, 67, 0
2, 102720, Note_on_c, 0, 59, 80
2, 102720, Note_on_c, 0, 62, 80
2, 102720, Note_on_c, 0, 67, 80
2, 103175, Note_on_c, 0, 59, 0
2, 103175, Note_on_c, 0, 62, 0
2, 103175, Note_on_c, 0, 67, 0
2, 103200, Note_on_c, 0, 59, 80
2, 103200, Note_on_c, 0, 62, 80
2, 103200, Note_on_c, 0, 67, 80
2, 103439, Note_on_c, 0, 59, 0
2, 103439, Note_on_c, 0, 62, 0
2, 103439, Note_on_c, 0, 67, 0
2, 103680, Note_on_c, 0, 64, 80
2, 103680, Note_on_c, 0, 55, 80
2, 103680, Note_on_c, 0, 59, 80
2, 104135, Note_on_c, 0, 55, 0
2, 104135, Note_on_c, 0, 59, 0
2, 104160, Note_on_c, 0, 55, 80
2, 104160, Note_on_c, 0, 62, 80
2, 104591, Note_on_c, 0, 64, 0
2, 104615, Note_on_c, 0, 55, 0
2, 104615, Note_on_c, 0, 62, 0
2, 104640, Note_on_c, 0, 55, 80
2, 104640, Note_on_c, 0, 57, 80
2, 104640, Note_on_c, 0, 62, 80
2, 105095, Note_on_c, 0, 55, 0
2, 105095, Note_on_c, 0, 57, 0
2, 105095, Note_on_c, 0, 62, 0
2, 105120, Note_on_c, 0, 57, 80
2, 105120, Note_on_c, 0, 62, 80
2, 105360, Note_on_c, 0, 60, 80
2, 105575, Note_on_c, 0, 57, 0
2, 105575, Note_on_c, 0, 62, 0
2, 105587, Note_on_c, 0, 60, 0
2, 105600, Note_on_c, 0, 55, 80
2, 105600, Note_on_c, 0, 59, 80
2, 105600, Note_on_c, 0, 62, 80
2, 106055, Note_on_c, 0, 55, 0
2, 106055, Note_on_c, 0, 59, 0
2, 106055, Note_on_c, 0, 62, 0
2, 106080, Note_on_c, 0, 59, 80
2, 106080, Note_on_c, 0, 62, 80
2, 106080, Note_on_c, 0, 67, 80
2, 106535, Note_on_c, 0, 59, 0
2, 106535, Note_on_c, 0, 62, 0
2, 106535, Note_on_c, 0, 67, 0
2, 106560, Note_on_c, 0, 59, 80
2, 106560, Note_on_c, 0, 62, 80
2, 107015, Note_on_c, 0, 59, 0
2, 107015, Note_on_c, 0, 62, 0
2, 107040, Note_on_c, 0, 55, 80
2, 107040, Note_on_c, 0, 62, 80
2, 107495, Note_on_c, 0, 55, 0
2, 107495, Note_on_c, 0, 62, 0
2, 107520, Note_on_c, 0, 62, 80
2, 107520, Note_on_c, 0, 52, 80
2, 107975, Note_on_c, 0, 52, 0
2, 108000, Note_on_c, 0, 55, 80
2, 108431, Note_on_c, 0, 62, 0
2, 108455, Note_on_c, 0, 55, 0
2, 108480, Note_on_c, 0, 60, 80
2, 108480, Note_on_c, 0, 62, 80
2, 108935, Note_on_c, 0, 60, 0
2, 108935, Note_on_c, 0, 62, 0
2, 108960, Note_on_c, 0, 57, 80
2, 108960, Note_on_c, 0, 60, 80
2, 109415, Note_on_c, 0, 57, 0
2, 109415, Note_on_c, 0, 60, 0
2, 109440, Note_on_c, 0, 55, 80
2, 109440, Note_on_c, 0, 59, 80
2, 109895, Note_on_c, 0, 55, 0
2, 109895, Note_on_c, 0, 59, 0
2, 109920, Note_on_c, 0, 59, 80
2, 109920, Note_on_c, 0, 62, 80
2, 110375, Note_on_c, 0, 59, 0
2, 110375, Note_on_c, 0, 62, 0
2, 110400, Note_on_c, 0, 59, 80
2, 110400, Note_on_c, 0, 62, 80
2, 110855, Note_on_c, 0, 59, 0
2, 110855, Note_on_c, 0, 62, 0
2, 110880, Note_on_c, 0, 55, 80
2, 110880, Note_on_c, 0, 62, 80
2, 111335, Note_on_c, 0, 55, 0
2, 111335, Note_on_c, 0, 62, 0
2, 113280, Note_on_c, 0, 55, 80
2, 113280, Note_on_c, 0, 59, 80
2, 115103, Note_on_c, 0, 55, 0
2, 115103, Note_on_c, 0, 59, 0
2, 115104, End_track
3, 0, Start_track
3, 0, Title_t, "Electric Bass, Bass\000"
3, 0, Key_signature, 0, "major"
3, 0, Control_c, 2, 121, 0
3, 0, Program_c, 2, 33
3, 0, Control_c, 2, 7, 100
3, 0, Control_c, 2, 10, 64
3, 0, Control_c, 2, 91, 0
3, 0, Control_c, 2, 93, 0
3, 0, MIDI_port, 0
3, 0, Note_on_c, 2, 64, 80
3, 0, Control_c, 3, 121, 0
3, 0, Program_c, 3, 36
3, 0, Control_c, 3, 7, 100
3, 0, Control_c, 3, 10, 64
3, 0, Control_c, 3, 91, 0
3, 0, Control_c, 3, 93, 0
3, 0, MIDI_port, 0
3, 0, Control_c, 4, 121, 0
3, 0, Program_c, 4, 37
3, 0, Control_c, 4, 7, 100
3, 0, Control_c, 4, 10, 64
3, 0, Control_c, 4, 91, 0
3, 0, Control_c, 4, 93, 0
3, 0, MIDI_port, 0
3, 959, Note_on_c, 2, 64, 0
3, 960, Note_on_c, 2, 62, 80
3, 1919, Note_on_c, 2, 62, 0
3, 1920, Note_on_c, 2, 60, 80
3, 2879, Note_on_c, 2, 60, 0
3, 2880, Note_on_c, 2, 59, 80
3, 3839, Note_on_c, 2, 59, 0
3, 3840, Note_on_c, 2, 57, 80
3, 4799, Note_on_c, 2, 57, 0
3, 4800, Note_on_c, 2, 52, 80
3, 5759, Note_on_c, 2, 52, 0
3, 5760, Note_on_c, 2, 60, 80
3, 7679, Note_on_c, 2, 60, 0
3, 7680, Note_on_c, 2, 64, 80
3, 8639, Note_on_c, 2, 64, 0
3, 8640, Note_on_c, 2, 62, 80
3, 9599, Note_on_c, 2, 62, 0
3, 9600, Note_on_c, 2, 60, 80
3, 10559, Note_on_c, 2, 60, 0
3, 10560, Note_on_c, 2, 59, 80
3, 11279, Note_on_c, 2, 59, 0
3, 11280, Note_on_c, 2, 59, 80
3, 11519, Note_on_c, 2, 59, 0
3, 11520, Note_on_c, 2, 57, 80
3, 12479, Note_on_c, 2, 57, 0
3, 12480, Note_on_c, 2, 52, 80
3, 13439, Note_on_c, 2, 52, 0
3, 13440, Note_on_c, 2, 60, 80
3, 15359, Note_on_c, 2, 60, 0
3, 15360, Note_on_c, 2, 64, 80
3, 16319, Note_on_c, 2, 64, 0
3, 16320, Note_on_c, 2, 62, 80
3, 17279, Note_on_c, 2, 62, 0
3, 17280, Note_on_c, 2, 60, 80
3, 18239, Note_on_c, 2, 60, 0
3, 18240, Note_on_c, 2, 59, 80
3, 18959, Note_on_c, 2, 59, 0
3, 18960, Note_on_c, 2, 59, 80
3, 19199, Note_on_c, 2, 59, 0
3, 19200, Note_on_c, 2, 57, 80
3, 20159, Note_on_c, 2, 57, 0
3, 20160, Note_on_c, 2, 52, 80
3, 21119, Note_on_c, 2, 52, 0
3, 21120, Note_on_c, 2, 60, 80
3, 22559, Note_on_c, 2, 60, 0
3, 23040, Note_on_c, 2, 57, 80
3, 23999, Note_on_c, 2, 57, 0
3, 24000, Note_on_c, 2, 55, 80
3, 24959, Note_on_c, 2, 55, 0
3, 24960, Note_on_c, 2, 60, 80
3, 26399, Note_on_c, 2, 60, 0
3, 26400, Note_on_c, 2, 59, 80
3, 26879, Note_on_c, 2, 59, 0
3, 26880, Note_on_c, 2, 57, 80
3, 27839, Note_on_c, 2, 57, 0
3, 27840, Note_on_c, 2, 55, 80
3, 28799, Note_on_c, 2, 55, 0
3, 28800, Note_on_c, 2, 60, 80
3, 29519, Note_on_c, 2, 60, 0
3, 29520, Note_on_c, 2, 60, 80
3, 29759, Note_on_c, 2, 60, 0
3, 29760, Note_on_c, 2, 60, 80
3, 30239, Note_on_c, 2, 60, 0
3, 30240, Note_on_c, 2, 60, 80
3, 30719, Note_on_c, 2, 60, 0
3, 30720, Note_on_c, 2, 60, 80
3, 31679, Note_on_c, 2, 60, 0
3, 31680, Note_on_c, 2, 60, 80
3, 32159, Note_on_c, 2, 60, 0
3, 32160, Note_on_c, 2, 62, 80
3, 32639, Note_on_c, 2, 62, 0
3, 32640, Note_on_c, 2, 55, 80
3, 33599, Note_on_c, 2, 55, 0
3, 33600, Note_on_c, 2, 55, 80
3, 34559, Note_on_c, 2, 55, 0
3, 34560, Note_on_c, 2, 62, 80
3, 35519, Note_on_c, 2, 62, 0
3, 35520, Note_on_c, 2, 62, 80
3, 35999, Note_on_c, 2, 62, 0
3, 36000, Note_on_c, 2, 62, 80
3, 36479, Note_on_c, 2, 62, 0
3, 36480, Note_on_c, 2, 64, 80
3, 37439, Note_on_c, 2, 64, 0
3, 37440, Note_on_c, 2, 62, 80
3, 37919, Note_on_c, 2, 62, 0
3, 37920, Note_on_c, 2, 59, 80
3, 38399, Note_on_c, 2, 59, 0
3, 38400, Note_on_c, 2, 60, 80
3, 39359, Note_on_c, 2, 60, 0
3, 39360, Note_on_c, 2, 60, 80
3, 39839, Note_on_c, 2, 60, 0
3, 39840, Note_on_c, 2, 62, 80
3, 40319, Note_on_c, 2, 62, 0
3, 40320, Note_on_c, 2, 55, 80
3, 41279, Note_on_c, 2, 55, 0
3, 41280, Note_on_c, 2, 55, 80
3, 41759, Note_on_c, 2, 55, 0
3, 41760, Note_on_c, 2, 59, 80
3, 42239, Note_on_c, 2, 59, 0
3, 42240, Note_on_c, 2, 60, 80
3, 43199, Note_on_c, 2, 60, 0
3, 43200, Note_on_c, 2, 62, 80
3, 44159, Note_on_c, 2, 62, 0
3, 44160, Note_on_c, 2, 55, 80
3, 45119, Note_on_c, 2, 55, 0
3, 45120, Note_on_c, 2, 57, 80
3, 45599, Note_on_c, 2, 57, 0
3, 45600, Note_on_c, 2, 59, 80
3, 46079, Note_on_c, 2, 59, 0
3, 46080, Note_on_c, 2, 60, 80
3, 47039, Note_on_c, 2, 60, 0
3, 47040, Note_on_c, 2, 62, 80
3, 47999, Note_on_c, 2, 62, 0
3, 48000, Note_on_c, 2, 55, 80
3, 48959, Note_on_c, 2, 55, 0
3, 48960, Note_on_c, 2, 55, 80
3, 49919, Note_on_c, 2, 55, 0
3, 49920, Note_on_c, 2, 64, 80
3, 50879, Note_on_c, 2, 64, 0
3, 50880, Note_on_c, 2, 62, 80
3, 51839, Note_on_c, 2, 62, 0
3, 51840, Note_on_c, 2, 60, 80
3, 52799, Note_on_c, 2, 60, 0
3, 52800, Note_on_c, 2, 59, 80
3, 53519, Note_on_c, 2, 59, 0
3, 53520, Note_on_c, 2, 59, 80
3, 53759, Note_on_c, 2, 59, 0
3, 53760, Note_on_c, 2, 57, 80
3, 54719, Note_on_c, 2, 57, 0
3, 54720, Note_on_c, 2, 64, 80
3, 55679, Note_on_c, 2, 64, 0
3, 55680, Note_on_c, 2, 60, 80
3, 57119, Note_on_c, 2, 60, 0
3, 57120, Note_on_c, 2, 59, 80
3, 57599, Note_on_c, 2, 59, 0
3, 57600, Note_on_c, 2, 57, 80
3, 58559, Note_on_c, 2, 57, 0
3, 58560, Note_on_c, 2, 55, 80
3, 59519, Note_on_c, 2, 55, 0
3, 59520, Note_on_c, 2, 60, 80
3, 60959, Note_on_c, 2, 60, 0
3, 60960, Note_on_c, 2, 59, 80
3, 61439, Note_on_c, 2, 59, 0
3, 61440, Note_on_c, 2, 57, 80
3, 62399, Note_on_c, 2, 57, 0
3, 62400, Note_on_c, 2, 55, 80
3, 63359, Note_on_c, 2, 55, 0
3, 63360, Note_on_c, 2, 60, 80
3, 64079, Note_on_c, 2, 60, 0
3, 64080, Note_on_c, 2, 60, 80
3, 64319, Note_on_c, 2, 60, 0
3, 64320, Note_on_c, 2, 60, 80
3, 64799, Note_on_c, 2, 60, 0
3, 64800, Note_on_c, 2, 60, 80
3, 65279, Note_on_c, 2, 60, 0
3, 65280, Note_on_c, 2, 60, 80
3, 66239, Note_on_c, 2, 60, 0
3, 66240, Note_on_c, 2, 60, 80
3, 66719, Note_on_c, 2, 60, 0
3, 66720, Note_on_c, 2, 62, 80
3, 67199, Note_on_c, 2, 62, 0
3, 67200, Note_on_c, 2, 55, 80
3, 68159, Note_on_c, 2, 55, 0
3, 68160, Note_on_c, 2, 55, 80
3, 68879, Note_on_c, 2, 55, 0
3, 68880, Note_on_c, 2, 55, 80
3, 69119, Note_on_c, 2, 55, 0
3, 69120, Note_on_c, 2, 62, 80
3, 70079, Note_on_c, 2, 62, 0
3, 70080, Note_on_c, 2, 62, 80
3, 70559, Note_on_c, 2, 62, 0
3, 70560, Note_on_c, 2, 62, 80
3, 71039, Note_on_c, 2, 62, 0
3, 71040, Note_on_c, 2, 64, 80
3, 71999, Note_on_c, 2, 64, 0
3, 72000, Note_on_c, 2, 62, 80
3, 72959, Note_on_c, 2, 62, 0
3, 72960, Note_on_c, 2, 60, 80
3, 73919, Note_on_c, 2, 60, 0
3, 73920, Note_on_c, 2, 60, 80
3, 74399, Note_on_c, 2, 60, 0
3, 74400, Note_on_c, 2, 62, 80
3, 74879, Note_on_c, 2, 62, 0
3, 74880, Note_on_c, 2, 55, 80
3, 75839, Note_on_c, 2, 55, 0
3, 75840, Note_on_c, 2, 57, 80
3, 76319, Note_on_c, 2, 57, 0
3, 76320, Note_on_c, 2, 59, 80
3, 76799, Note_on_c, 2, 59, 0
3, 76800, Note_on_c, 2, 60, 80
3, 77759, Note_on_c, 2, 60, 0
3, 77760, Note_on_c, 2, 62, 80
3, 78719, Note_on_c, 2, 62, 0
3, 78720, Note_on_c, 2, 55, 80
3, 79679, Note_on_c, 2, 55, 0
3, 79680, Note_on_c, 2, 57, 80
3, 80159, Note_on_c, 2, 57, 0
3, 80160, Note_on_c, 2, 59, 80
3, 80639, Note_on_c, 2, 59, 0
3, 80640, Note_on_c, 2, 48, 80
3, 81599, Note_on_c, 2, 48, 0
3, 81600, Note_on_c, 2, 50, 80
3, 82559, Note_on_c, 2, 50, 0
3, 82560, Note_on_c, 2, 55, 80
3, 83519, Note_on_c, 2, 55, 0
3, 83520, Note_on_c, 2, 57, 80
3, 84479, Note_on_c, 2, 57, 0
3, 84480, Note_on_c, 2, 57, 80
3, 85439, Note_on_c, 2, 57, 0
3, 85440, Note_on_c, 2, 55, 80
3, 86399, Note_on_c, 2, 55, 0
3, 86400, Note_on_c, 2, 60, 80
3, 87839, Note_on_c, 2, 60, 0
3, 87840, Note_on_c, 2, 59, 80
3, 88319, Note_on_c, 2, 59, 0
3, 88320, Note_on_c, 2, 57, 80
3, 89279, Note_on_c, 2, 57, 0
3, 89280, Note_on_c, 2, 55, 80
3, 90239, Note_on_c, 2, 55, 0
3, 90240, Note_on_c, 2, 60, 80
3, 91199, Note_on_c, 2, 60, 0
3, 92160, Note_on_c, 2, 60, 80
3, 94079, Note_on_c, 2, 60, 0
3, 94080, Note_on_c, 2, 52, 80
3, 95519, Note_on_c, 2, 52, 0
3, 95520, Note_on_c, 2, 55, 80
3, 95999, Note_on_c, 2, 55, 0
3, 96000, Note_on_c, 2, 50, 80
3, 97919, Note_on_c, 2, 50, 0
3, 97920, Note_on_c, 2, 52, 80
3, 98879, Note_on_c, 2, 52, 0
3, 98880, Note_on_c, 2, 52, 80
3, 99359, Note_on_c, 2, 52, 0
3, 99360, Note_on_c, 2, 50, 80
3, 99839, Note_on_c, 2, 50, 0
3, 99840, Note_on_c, 2, 60, 80
3, 100799, Note_on_c, 2, 60, 0
3, 100800, Note_on_c, 2, 60, 80
3, 101279, Note_on_c, 2, 60, 0
3, 101280, Note_on_c, 2, 62, 80
3, 101759, Note_on_c, 2, 62, 0
3, 101760, Note_on_c, 2, 55, 80
3, 102719, Note_on_c, 2, 55, 0
3, 102720, Note_on_c, 2, 57, 80
3, 103199, Note_on_c, 2, 57, 0
3, 103200, Note_on_c, 2, 59, 80
3, 103679, Note_on_c, 2, 59, 0
3, 103680, Note_on_c, 2, 60, 80
3, 104639, Note_on_c, 2, 60, 0
3, 104640, Note_on_c, 2, 62, 80
3, 105599, Note_on_c, 2, 62, 0
3, 105600, Note_on_c, 2, 55, 80
3, 106559, Note_on_c, 2, 55, 0
3, 106560, Note_on_c, 2, 57, 80
3, 107039, Note_on_c, 2, 57, 0
3, 107040, Note_on_c, 2, 59, 80
3, 107519, Note_on_c, 2, 59, 0
3, 107520, Note_on_c, 2, 60, 80
3, 108479, Note_on_c, 2, 60, 0
3, 108480, Note_on_c, 2, 62, 80
3, 109439, Note_on_c, 2, 62, 0
3, 109440, Note_on_c, 2, 55, 80
3, 110399, Note_on_c, 2, 55, 0
3, 110400, Note_on_c, 2, 57, 80
3, 110879, Note_on_c, 2, 57, 0
3, 110880, Note_on_c, 2, 59, 80
3, 111359, Note_on_c, 2, 59, 0
3, 111360, Note_on_c, 2, 48, 80
3, 112319, Note_on_c, 2, 48, 0
3, 112320, Note_on_c, 2, 50, 80
3, 113279, Note_on_c, 2, 50, 0
3, 113280, Note_on_c, 2, 55, 80
3, 115199, Note_on_c, 2, 55, 0
3, 115200, End_track
0, 0, End_of_file
