0, 0, Header, 1, 5, 480
1, 0, Start_track
1, 0, Title_t, "Piano, Piano\000"
1, 0, Time_signature, 4, 2, 24, 8
1, 0, Key_signature, 0, "major"
1, 0, Tempo, 600000
1, 0, Control_c, 3, 121, 0
1, 0, Program_c, 3, 0
1, 0, Control_c, 3, 7, 100
1, 0, Control_c, 3, 10, 64
1, 0, Control_c, 3, 91, 0
1, 0, Control_c, 3, 93, 0
1, 0, MIDI_port, 0
1, 15360, Note_on_c, 3, 76, 80
1, 15473, Note_on_c, 3, 76, 0
1, 15480, Note_on_c, 3, 72, 80
1, 15593, Note_on_c, 3, 72, 0
1, 15600, Note_on_c, 3, 69, 80
1, 15713, Note_on_c, 3, 69, 0
1, 15720, Note_on_c, 3, 72, 80
1, 15833, Note_on_c, 3, 72, 0
1, 15840, Note_on_c, 3, 76, 80
1, 15953, Note_on_c, 3, 76, 0
1, 15960, Note_on_c, 3, 72, 80
1, 16073, Note_on_c, 3, 72, 0
1, 16080, Note_on_c, 3, 69, 80
1, 16193, Note_on_c, 3, 69, 0
1, 16200, Note_on_c, 3, 72, 80
1, 16313, Note_on_c, 3, 72, 0
1, 16320, Note_on_c, 3, 76, 80
1, 16433, Note_on_c, 3, 76, 0
1, 16440, Note_on_c, 3, 71, 80
1, 16553, Note_on_c, 3, 71, 0
1, 16560, Note_on_c, 3, 67, 80
1, 16673, Note_on_c, 3, 67, 0
1, 16680, Note_on_c, 3, 71, 80
1, 16793, Note_on_c, 3, 71, 0
1, 16800, Note_on_c, 3, 76, 80
1, 16913, Note_on_c, 3, 76, 0
1, 16920, Note_on_c, 3, 71, 80
1, 17033, Note_on_c, 3, 71, 0
1, 17040, Note_on_c, 3, 67, 80
1, 17153, Note_on_c, 3, 67, 0
1, 17160, Note_on_c, 3, 71, 80
1, 17273, Note_on_c, 3, 71, 0
1, 17280, Note_on_c, 3, 76, 80
1, 17393, Note_on_c, 3, 76, 0
1, 17400, Note_on_c, 3, 72, 80
1, 17513, Note_on_c, 3, 72, 0
1, 17520, Note_on_c, 3, 69, 80
1, 17633, Note_on_c, 3, 69, 0
1, 17640, Note_on_c, 3, 72, 80
1, 17753, Note_on_c, 3, 72, 0
1, 17760, Note_on_c, 3, 76, 80
1, 17873, Note_on_c, 3, 76, 0
1, 17880, Note_on_c, 3, 72, 80
1, 17993, Note_on_c, 3, 72, 0
1, 18000, Note_on_c, 3, 69, 80
1, 18113, Note_on_c, 3, 69, 0
1, 18120, Note_on_c, 3, 72, 80
1, 18233, Note_on_c, 3, 72, 0
1, 18240, Note_on_c, 3, 76, 80
1, 18353, Note_on_c, 3, 76, 0
1, 18360, Note_on_c, 3, 72, 80
1, 18473, Note_on_c, 3, 72, 0
1, 18480, Note_on_c, 3, 71, 80
1, 18593, Note_on_c, 3, 71, 0
1, 18600, Note_on_c, 3, 72, 80
1, 18713, Note_on_c, 3, 72, 0
1, 18720, Note_on_c, 3, 76, 80
1, 18833, Note_on_c, 3, 76, 0
1, 18840, Note_on_c, 3, 72, 80
1, 18953, Note_on_c, 3, 72, 0
1, 18960, Note_on_c, 3, 71, 80
1, 19073, Note_on_c, 3, 71, 0
1, 19080, Note_on_c, 3, 72, 80
1, 19193, Note_on_c, 3, 72, 0
1, 19200, Note_on_c, 3, 76, 80
1, 19313, Note_on_c, 3, 76, 0
1, 19320, Note_on_c, 3, 72, 80
1, 19433, Note_on_c, 3, 72, 0
1, 19440, Note_on_c, 3, 69, 80
1, 19553, Note_on_c, 3, 69, 0
1, 19560, Note_on_c, 3, 72, 80
1, 19673, Note_on_c, 3, 72, 0
1, 19680, Note_on_c, 3, 76, 80
1, 19793, Note_on_c, 3, 76, 0
1, 19800, Note_on_c, 3, 72, 80
1, 19913, Note_on_c, 3, 72, 0
1, 19920, Note_on_c, 3, 69, 80
1, 20033, Note_on_c, 3, 69, 0
1, 20040, Note_on_c, 3, 72, 80
1, 20153, Note_on_c, 3, 72, 0
1, 20160, Note_on_c, 3, 76, 80
1, 20273, Note_on_c, 3, 76, 0
1, 20280, Note_on_c, 3, 71, 80
1, 20393, Note_on_c, 3, 71, 0
1, 20400, Note_on_c, 3, 67, 80
1, 20513, Note_on_c, 3, 67, 0
1, 20520, Note_on_c, 3, 71, 80
1, 20633, Note_on_c, 3, 71, 0
1, 20640, Note_on_c, 3, 76, 80
1, 20753, Note_on_c, 3, 76, 0
1, 20760, Note_on_c, 3, 71, 80
1, 20873, Note_on_c, 3, 71, 0
1, 20880, Note_on_c, 3, 67, 80
1, 20993, Note_on_c, 3, 67, 0
1, 21000, Note_on_c, 3, 71, 80
1, 21113, Note_on_c, 3, 71, 0
1, 21120, Note_on_c, 3, 76, 80
1, 21233, Note_on_c, 3, 76, 0
1, 21240, Note_on_c, 3, 72, 80
1, 21353, Note_on_c, 3, 72, 0
1, 21360, Note_on_c, 3, 69, 80
1, 21473, Note_on_c, 3, 69, 0
1, 21480, Note_on_c, 3, 72, 80
1, 21593, Note_on_c, 3, 72, 0
1, 21600, Note_on_c, 3, 76, 80
1, 21713, Note_on_c, 3, 76, 0
1, 21720, Note_on_c, 3, 72, 80
1, 21833, Note_on_c, 3, 72, 0
1, 21840, Note_on_c, 3, 69, 80
1, 21953, Note_on_c, 3, 69, 0
1, 21960, Note_on_c, 3, 72, 80
1, 22073, Note_on_c, 3, 72, 0
1, 22080, Note_on_c, 3, 76, 80
1, 22193, Note_on_c, 3, 76, 0
1, 22200, Note_on_c, 3, 72, 80
1, 22313, Note_on_c, 3, 72, 0
1, 22320, Note_on_c, 3, 71, 80
1, 22433, Note_on_c, 3, 71, 0
1, 22440, Note_on_c, 3, 72, 80
1, 22553, Note_on_c, 3, 72, 0
1, 22560, Note_on_c, 3, 74, 80
1, 22787, Note_on_c, 3, 74, 0
1, 22800, Note_on_c, 3, 77, 80
1, 23027, Note_on_c, 3, 77, 0
1, 23040, Note_on_c, 3, 76, 80
1, 23495, Note_on_c, 3, 76, 0
1, 25680, Note_on_c, 3, 76, 80
1, 25907, Note_on_c, 3, 76, 0
1, 25920, Note_on_c, 3, 76, 80
1, 26033, Note_on_c, 3, 76, 0
1, 26040, Note_on_c, 3, 77, 80
1, 26267, Note_on_c, 3, 77, 0
1, 26280, Note_on_c, 3, 76, 80
1, 26507, Note_on_c, 3, 76, 0
1, 26520, Note_on_c, 3, 74, 80
1, 26639, Note_on_c, 3, 74, 0
1, 26820, Note_on_c, 3, 71, 80
1, 26876, Note_on_c, 3, 71, 0
1, 26880, Note_on_c, 3, 74, 80
1, 27221, Note_on_c, 3, 74, 0
1, 27240, Note_on_c, 3, 76, 80
1, 28151, Note_on_c, 3, 76, 0
1, 28800, Note_on_c, 3, 76, 80
1, 29039, Note_on_c, 3, 76, 0
1, 29520, Note_on_c, 3, 76, 80
1, 29747, Note_on_c, 3, 76, 0
1, 29760, Note_on_c, 3, 76, 80
1, 29873, Note_on_c, 3, 76, 0
1, 29880, Note_on_c, 3, 77, 80
1, 30107, Note_on_c, 3, 77, 0
1, 30120, Note_on_c, 3, 76, 80
1, 30347, Note_on_c, 3, 76, 0
1, 30360, Note_on_c, 3, 74, 80
1, 30479, Note_on_c, 3, 74, 0
1, 30680, Note_on_c, 3, 69, 80
1, 30717, Note_on_c, 3, 69, 0
1, 30720, Note_on_c, 3, 72, 80
1, 31403, Note_on_c, 3, 72, 0
1, 31440, Note_on_c, 3, 72, 80
1, 31667, Note_on_c, 3, 72, 0
1, 31680, Note_on_c, 3, 71, 80
1, 32021, Note_on_c, 3, 71, 0
1, 32040, Note_on_c, 3, 72, 80
1, 32381, Note_on_c, 3, 72, 0
1, 32400, Note_on_c, 3, 74, 80
1, 32627, Note_on_c, 3, 74, 0
1, 32640, Note_on_c, 3, 69, 80
1, 33551, Note_on_c, 3, 69, 0
1, 33600, Note_on_c, 3, 71, 80
1, 34283, Note_on_c, 3, 71, 0
1, 34320, Note_on_c, 3, 69, 80
1, 34433, Note_on_c, 3, 69, 0
1, 34440, Note_on_c, 3, 71, 80
1, 34553, Note_on_c, 3, 71, 0
1, 34560, Note_on_c, 3, 69, 80
1, 34560, Note_on_c, 3, 72, 80
1, 35243, Note_on_c, 3, 69, 0
1, 35243, Note_on_c, 3, 72, 0
1, 35280, Note_on_c, 3, 69, 80
1, 35280, Note_on_c, 3, 72, 80
1, 35507, Note_on_c, 3, 69, 0
1, 35507, Note_on_c, 3, 72, 0
1, 35520, Note_on_c, 3, 71, 80
1, 35861, Note_on_c, 3, 71, 0
1, 35880, Note_on_c, 3, 72, 80
1, 36221, Note_on_c, 3, 72, 0
1, 36240, Note_on_c, 3, 74, 80
1, 36240, Note_on_c, 3, 69, 80
1, 36467, Note_on_c, 3, 69, 0
1, 36695, Note_on_c, 3, 74, 0
1, 36720, Note_on_c, 3, 69, 80
1, 37403, Note_on_c, 3, 69, 0
1, 37440, Note_on_c, 3, 71, 80
1, 38123, Note_on_c, 3, 71, 0
1, 38280, Note_on_c, 3, 64, 80
1, 38317, Note_on_c, 3, 64, 0
1, 38320, Note_on_c, 3, 69, 80
1, 38357, Note_on_c, 3, 69, 0
1, 38360, Note_on_c, 3, 72, 80
1, 38397, Note_on_c, 3, 72, 0
1, 38400, Note_on_c, 3, 76, 80
1, 38855, Note_on_c, 3, 76, 0
1, 39240, Note_on_c, 3, 64, 80
1, 39277, Note_on_c, 3, 64, 0
1, 39280, Note_on_c, 3, 67, 80
1, 39317, Note_on_c, 3, 67, 0
1, 39320, Note_on_c, 3, 71, 80
1, 39357, Note_on_c, 3, 71, 0
1, 39360, Note_on_c, 3, 76, 80
1, 39815, Note_on_c, 3, 76, 0
1, 40200, Note_on_c, 3, 60, 80
1, 40240, Note_on_c, 3, 65, 80
1, 40277, Note_on_c, 3, 65, 0
1, 40280, Note_on_c, 3, 69, 80
1, 40313, Note_on_c, 3, 60, 0
1, 40317, Note_on_c, 3, 69, 0
1, 40320, Note_on_c, 3, 76, 80
1, 41003, Note_on_c, 3, 76, 0
1, 41040, Note_on_c, 3, 69, 80
1, 41040, Note_on_c, 3, 76, 80
1, 41267, Note_on_c, 3, 69, 0
1, 41267, Note_on_c, 3, 76, 0
1, 41280, Note_on_c, 3, 71, 80
1, 41280, Note_on_c, 3, 76, 80
1, 41393, Note_on_c, 3, 71, 0
1, 41393, Note_on_c, 3, 76, 0
1, 41400, Note_on_c, 3, 77, 80
1, 41400, Note_on_c, 3, 71, 80
1, 41627, Note_on_c, 3, 77, 0
1, 41640, Note_on_c, 3, 76, 80
1, 41855, Note_on_c, 3, 71, 0
1, 41867, Note_on_c, 3, 76, 0
1, 41880, Note_on_c, 3, 74, 80
1, 42221, Note_on_c, 3, 74, 0
1, 42240, Note_on_c, 3, 72, 80
1, 42240, Note_on_c, 3, 76, 80
1, 42923, Note_on_c, 3, 72, 0
1, 42923, Note_on_c, 3, 76, 0
1, 42960, Note_on_c, 3, 71, 80
1, 42960, Note_on_c, 3, 76, 80
1, 43985, Note_on_c, 3, 71, 0
1, 43985, Note_on_c, 3, 76, 0
1, 44160, Note_on_c, 3, 69, 80
1, 44160, Note_on_c, 3, 76, 80
1, 44843, Note_on_c, 3, 69, 0
1, 44843, Note_on_c, 3, 76, 0
1, 44880, Note_on_c, 3, 69, 80
1, 44880, Note_on_c, 3, 76, 80
1, 45107, Note_on_c, 3, 69, 0
1, 45107, Note_on_c, 3, 76, 0
1, 45120, Note_on_c, 3, 71, 80
1, 45120, Note_on_c, 3, 76, 80
1, 45233, Note_on_c, 3, 71, 0
1, 45233, Note_on_c, 3, 76, 0
1, 45240, Note_on_c, 3, 77, 80
1, 45240, Note_on_c, 3, 71, 80
1, 45467, Note_on_c, 3, 77, 0
1, 45480, Note_on_c, 3, 76, 80
1, 45695, Note_on_c, 3, 71, 0
1, 45707, Note_on_c, 3, 76, 0
1, 45720, Note_on_c, 3, 74, 80
1, 46061, Note_on_c, 3, 74, 0
1, 46080, Note_on_c, 3, 69, 80
1, 46080, Note_on_c, 3, 72, 80
1, 46763, Note_on_c, 3, 69, 0
1, 46763, Note_on_c, 3, 72, 0
1, 46800, Note_on_c, 3, 72, 80
1, 46875, Note_on_c, 3, 72, 0
1, 46880, Note_on_c, 3, 74, 80
1, 46955, Note_on_c, 3, 74, 0
1, 46960, Note_on_c, 3, 72, 80
1, 47035, Note_on_c, 3, 72, 0
1, 47040, Note_on_c, 3, 71, 80
1, 47495, Note_on_c, 3, 71, 0
1, 47520, Note_on_c, 3, 72, 80
1, 47747, Note_on_c, 3, 72, 0
1, 47760, Note_on_c, 3, 67, 80
1, 47760, Note_on_c, 3, 74, 80
1, 47987, Note_on_c, 3, 67, 0
1, 47987, Note_on_c, 3, 74, 0
1, 48240, Note_on_c, 3, 69, 80
1, 48923, Note_on_c, 3, 69, 0
1, 48960, Note_on_c, 3, 71, 80
1, 49643, Note_on_c, 3, 71, 0
1, 49680, Note_on_c, 3, 69, 80
1, 49793, Note_on_c, 3, 69, 0
1, 49800, Note_on_c, 3, 71, 80
1, 49913, Note_on_c, 3, 71, 0
1, 49920, Note_on_c, 3, 69, 80
1, 49920, Note_on_c, 3, 72, 80
1, 50603, Note_on_c, 3, 69, 0
1, 50603, Note_on_c, 3, 72, 0
1, 50640, Note_on_c, 3, 72, 80
1, 50715, Note_on_c, 3, 72, 0
1, 50720, Note_on_c, 3, 74, 80
1, 50795, Note_on_c, 3, 74, 0
1, 50800, Note_on_c, 3, 72, 80
1, 50875, Note_on_c, 3, 72, 0
1, 50880, Note_on_c, 3, 71, 80
1, 51335, Note_on_c, 3, 71, 0
1, 51360, Note_on_c, 3, 72, 80
1, 51587, Note_on_c, 3, 72, 0
1, 51600, Note_on_c, 3, 74, 80
1, 51600, Note_on_c, 3, 67, 80
1, 52055, Note_on_c, 3, 67, 0
1, 52080, Note_on_c, 3, 69, 80
1, 52739, Note_on_c, 3, 74, 0
1, 52763, Note_on_c, 3, 69, 0
1, 52800, Note_on_c, 3, 76, 80
1, 53103, Note_on_c, 3, 76, 0
1, 53120, Note_on_c, 3, 74, 80
1, 53423, Note_on_c, 3, 74, 0
1, 53440, Note_on_c, 3, 72, 80
1, 53743, Note_on_c, 3, 72, 0
1, 53760, Note_on_c, 3, 76, 80
1, 53873, Note_on_c, 3, 76, 0
1, 53880, Note_on_c, 3, 71, 80
1, 53993, Note_on_c, 3, 71, 0
1, 54000, Note_on_c, 3, 69, 80
1, 54113, Note_on_c, 3, 69, 0
1, 54120, Note_on_c, 3, 72, 80
1, 54233, Note_on_c, 3, 72, 0
1, 54240, Note_on_c, 3, 76, 80
1, 54353, Note_on_c, 3, 76, 0
1, 54360, Note_on_c, 3, 71, 80
1, 54473, Note_on_c, 3, 71, 0
1, 54480, Note_on_c, 3, 69, 80
1, 54593, Note_on_c, 3, 69, 0
1, 54600, Note_on_c, 3, 72, 80
1, 54713, Note_on_c, 3, 72, 0
1, 54720, Note_on_c, 3, 76, 80
1, 54833, Note_on_c, 3, 76, 0
1, 54840, Note_on_c, 3, 71, 80
1, 54953, Note_on_c, 3, 71, 0
1, 54960, Note_on_c, 3, 67, 80
1, 55073, Note_on_c, 3, 67, 0
1, 55080, Note_on_c, 3, 71, 80
1, 55193, Note_on_c, 3, 71, 0
1, 55200, Note_on_c, 3, 76, 80
1, 55313, Note_on_c, 3, 76, 0
1, 55320, Note_on_c, 3, 71, 80
1, 55433, Note_on_c, 3, 71, 0
1, 55440, Note_on_c, 3, 67, 80
1, 55553, Note_on_c, 3, 67, 0
1, 55560, Note_on_c, 3, 71, 80
1, 55673, Note_on_c, 3, 71, 0
1, 55680, Note_on_c, 3, 76, 80
1, 55793, Note_on_c, 3, 76, 0
1, 55800, Note_on_c, 3, 72, 80
1, 55913, Note_on_c, 3, 72, 0
1, 55920, Note_on_c, 3, 69, 80
1, 56033, Note_on_c, 3, 69, 0
1, 56040, Note_on_c, 3, 74, 80
1, 56153, Note_on_c, 3, 74, 0
1, 56160, Note_on_c, 3, 76, 80
1, 56273, Note_on_c, 3, 76, 0
1, 56280, Note_on_c, 3, 72, 80
1, 56393, Note_on_c, 3, 72, 0
1, 56400, Note_on_c, 3, 69, 80
1, 56513, Note_on_c, 3, 69, 0
1, 56520, Note_on_c, 3, 72, 80
1, 56633, Note_on_c, 3, 72, 0
1, 56640, Note_on_c, 3, 76, 80
1, 56753, Note_on_c, 3, 76, 0
1, 56760, Note_on_c, 3, 72, 80
1, 56873, Note_on_c, 3, 72, 0
1, 56880, Note_on_c, 3, 71, 80
1, 56993, Note_on_c, 3, 71, 0
1, 57000, Note_on_c, 3, 72, 80
1, 57113, Note_on_c, 3, 72, 0
1, 57120, Note_on_c, 3, 76, 80
1, 57233, Note_on_c, 3, 76, 0
1, 57240, Note_on_c, 3, 72, 80
1, 57353, Note_on_c, 3, 72, 0
1, 57360, Note_on_c, 3, 71, 80
1, 57473, Note_on_c, 3, 71, 0
1, 57480, Note_on_c, 3, 72, 80
1, 57593, Note_on_c, 3, 72, 0
1, 57600, Note_on_c, 3, 76, 80
1, 57713, Note_on_c, 3, 76, 0
1, 57720, Note_on_c, 3, 72, 80
1, 57833, Note_on_c, 3, 72, 0
1, 57840, Note_on_c, 3, 69, 80
1, 57953, Note_on_c, 3, 69, 0
1, 57960, Note_on_c, 3, 74, 80
1, 58073, Note_on_c, 3, 74, 0
1, 58080, Note_on_c, 3, 76, 80
1, 58193, Note_on_c, 3, 76, 0
1, 58200, Note_on_c, 3, 72, 80
1, 58313, Note_on_c, 3, 72, 0
1, 58320, Note_on_c, 3, 69, 80
1, 58433, Note_on_c, 3, 69, 0
1, 58440, Note_on_c, 3, 72, 80
1, 58553, Note_on_c, 3, 72, 0
1, 58560, Note_on_c, 3, 76, 80
1, 58673, Note_on_c, 3, 76, 0
1, 58680, Note_on_c, 3, 71, 80
1, 58793, Note_on_c, 3, 71, 0
1, 58800, Note_on_c, 3, 67, 80
1, 58913, Note_on_c, 3, 67, 0
1, 58920, Note_on_c, 3, 71, 80
1, 59033, Note_on_c, 3, 71, 0
1, 59040, Note_on_c, 3, 76, 80
1, 59153, Note_on_c, 3, 76, 0
1, 59160, Note_on_c, 3, 71, 80
1, 59273, Note_on_c, 3, 71, 0
1, 59280, Note_on_c, 3, 67, 80
1, 59393, Note_on_c, 3, 67, 0
1, 59400, Note_on_c, 3, 71, 80
1, 59513, Note_on_c, 3, 71, 0
1, 59520, Note_on_c, 3, 76, 80
1, 59633, Note_on_c, 3, 76, 0
1, 59640, Note_on_c, 3, 72, 80
1, 59753, Note_on_c, 3, 72, 0
1, 59760, Note_on_c, 3, 69, 80
1, 59873, Note_on_c, 3, 69, 0
1, 59880, Note_on_c, 3, 74, 80
1, 59993, Note_on_c, 3, 74, 0
1, 60000, Note_on_c, 3, 76, 80
1, 60113, Note_on_c, 3, 76, 0
1, 60120, Note_on_c, 3, 72, 80
1, 60233, Note_on_c, 3, 72, 0
1, 60240, Note_on_c, 3, 69, 80
1, 60353, Note_on_c, 3, 69, 0
1, 60360, Note_on_c, 3, 72, 80
1, 60473, Note_on_c, 3, 72, 0
1, 60480, Note_on_c, 3, 76, 80
1, 60593, Note_on_c, 3, 76, 0
1, 60600, Note_on_c, 3, 72, 80
1, 60713, Note_on_c, 3, 72, 0
1, 60720, Note_on_c, 3, 71, 80
1, 60833, Note_on_c, 3, 71, 0
1, 60840, Note_on_c, 3, 72, 80
1, 60953, Note_on_c, 3, 72, 0
1, 60960, Note_on_c, 3, 76, 80
1, 61187, Note_on_c, 3, 76, 0
1, 61200, Note_on_c, 3, 74, 80
1, 61427, Note_on_c, 3, 74, 0
1, 61440, Note_on_c, 3, 72, 80
1, 62123, Note_on_c, 3, 72, 0
1, 62160, Note_on_c, 3, 74, 80
1, 62273, Note_on_c, 3, 74, 0
1, 62280, Note_on_c, 3, 72, 80
1, 62393, Note_on_c, 3, 72, 0
1, 62400, Note_on_c, 3, 71, 80
1, 62513, Note_on_c, 3, 71, 0
1, 62520, Note_on_c, 3, 72, 80
1, 62633, Note_on_c, 3, 72, 0
1, 62640, Note_on_c, 3, 74, 80
1, 63095, Note_on_c, 3, 74, 0
1, 63120, Note_on_c, 3, 76, 80
1, 63233, Note_on_c, 3, 76, 0
1, 63240, Note_on_c, 3, 72, 80
1, 63353, Note_on_c, 3, 72, 0
1, 63360, Note_on_c, 3, 71, 80
1, 63473, Note_on_c, 3, 71, 0
1, 63480, Note_on_c, 3, 72, 80
1, 63593, Note_on_c, 3, 72, 0
1, 63600, Note_on_c, 3, 74, 80
1, 64055, Note_on_c, 3, 74, 0
1, 64080, Note_on_c, 3, 72, 80
1, 64193, Note_on_c, 3, 72, 0
1, 64200, Note_on_c, 3, 71, 80
1, 64313, Note_on_c, 3, 71, 0
1, 64320, Note_on_c, 3, 72, 80
1, 64433, Note_on_c, 3, 72, 0
1, 64440, Note_on_c, 3, 71, 80
1, 64553, Note_on_c, 3, 71, 0
1, 64560, Note_on_c, 3, 69, 80
1, 65015, Note_on_c, 3, 69, 0
1, 65040, Note_on_c, 3, 71, 80
1, 65267, Note_on_c, 3, 71, 0
1, 65280, Note_on_c, 3, 72, 80
1, 65963, Note_on_c, 3, 72, 0
1, 66000, Note_on_c, 3, 72, 80
1, 66227, Note_on_c, 3, 72, 0
1, 66240, Note_on_c, 3, 71, 80
1, 66467, Note_on_c, 3, 71, 0
1, 66480, Note_on_c, 3, 76, 80
1, 66935, Note_on_c, 3, 76, 0
1, 66960, Note_on_c, 3, 72, 80
1, 67187, Note_on_c, 3, 72, 0
1, 67200, Note_on_c, 3, 69, 80
1, 68111, Note_on_c, 3, 69, 0
1, 68160, Note_on_c, 3, 71, 80
1, 68843, Note_on_c, 3, 71, 0
1, 68880, Note_on_c, 3, 69, 80
1, 68993, Note_on_c, 3, 69, 0
1, 69000, Note_on_c, 3, 71, 80
1, 69113, Note_on_c, 3, 71, 0
1, 69120, Note_on_c, 3, 71, 80
1, 69233, Note_on_c, 3, 71, 0
1, 69240, Note_on_c, 3, 72, 80
1, 70037, Note_on_c, 3, 72, 0
1, 70080, Note_on_c, 3, 71, 80
1, 70421, Note_on_c, 3, 71, 0
1, 70440, Note_on_c, 3, 72, 80
1, 70781, Note_on_c, 3, 72, 0
1, 70800, Note_on_c, 3, 74, 80
1, 71255, Note_on_c, 3, 74, 0
1, 71280, Note_on_c, 3, 71, 80
1, 71963, Note_on_c, 3, 71, 0
1, 72000, Note_on_c, 3, 76, 80
1, 72341, Note_on_c, 3, 76, 0
1, 72360, Note_on_c, 3, 77, 80
1, 72701, Note_on_c, 3, 77, 0
1, 72720, Note_on_c, 3, 74, 80
1, 73175, Note_on_c, 3, 74, 0
1, 73200, Note_on_c, 3, 76, 80
1, 74339, Note_on_c, 3, 76, 0
1, 74880, Note_on_c, 3, 69, 80
1, 75791, Note_on_c, 3, 69, 0
1, 75840, Note_on_c, 3, 72, 80
1, 76181, Note_on_c, 3, 72, 0
1, 76200, Note_on_c, 3, 77, 80
1, 76541, Note_on_c, 3, 77, 0
1, 76560, Note_on_c, 3, 74, 80
1, 77015, Note_on_c, 3, 74, 0
1, 77040, Note_on_c, 3, 76, 80
1, 78179, Note_on_c, 3, 76, 0
1, 78720, Note_on_c, 3, 76, 80
1, 79631, Note_on_c, 3, 76, 0
1, 79680, Note_on_c, 3, 72, 80
1, 80021, Note_on_c, 3, 72, 0
1, 80040, Note_on_c, 3, 77, 80
1, 80381, Note_on_c, 3, 77, 0
1, 80640, Note_on_c, 3, 69, 80
1, 80867, Note_on_c, 3, 69, 0
1, 80880, Note_on_c, 3, 72, 80
1, 81107, Note_on_c, 3, 72, 0
1, 81120, Note_on_c, 3, 76, 80
1, 81347, Note_on_c, 3, 76, 0
1, 81360, Note_on_c, 3, 72, 80
1, 81587, Note_on_c, 3, 72, 0
1, 81600, Note_on_c, 3, 67, 80
1, 81827, Note_on_c, 3, 67, 0
1, 81840, Note_on_c, 3, 72, 80
1, 82067, Note_on_c, 3, 72, 0
1, 82080, Note_on_c, 3, 76, 80
1, 82307, Note_on_c, 3, 76, 0
1, 82320, Note_on_c, 3, 71, 80
1, 82547, Note_on_c, 3, 71, 0
1, 82560, Note_on_c, 3, 65, 80
1, 82787, Note_on_c, 3, 65, 0
1, 82800, Note_on_c, 3, 72, 80
1, 83027, Note_on_c, 3, 72, 0
1, 83040, Note_on_c, 3, 76, 80
1, 83267, Note_on_c, 3, 76, 0
1, 83280, Note_on_c, 3, 72, 80
1, 83507, Note_on_c, 3, 72, 0
1, 83520, Note_on_c, 3, 64, 80
1, 83747, Note_on_c, 3, 64, 0
1, 83760, Note_on_c, 3, 71, 80
1, 83987, Note_on_c, 3, 71, 0
1, 84000, Note_on_c, 3, 76, 80
1, 84227, Note_on_c, 3, 76, 0
1, 84240, Note_on_c, 3, 72, 80
1, 84467, Note_on_c, 3, 72, 0
1, 84480, Note_on_c, 3, 69, 80
1, 84707, Note_on_c, 3, 69, 0
1, 84720, Note_on_c, 3, 72, 80
1, 84947, Note_on_c, 3, 72, 0
1, 84960, Note_on_c, 3, 76, 80
1, 85187, Note_on_c, 3, 76, 0
1, 85200, Note_on_c, 3, 72, 80
1, 85427, Note_on_c, 3, 72, 0
1, 85440, Note_on_c, 3, 67, 80
1, 85667, Note_on_c, 3, 67, 0
1, 85680, Note_on_c, 3, 72, 80
1, 85907, Note_on_c, 3, 72, 0
1, 85920, Note_on_c, 3, 76, 80
1, 86147, Note_on_c, 3, 76, 0
1, 86160, Note_on_c, 3, 71, 80
1, 86387, Note_on_c, 3, 71, 0
1, 86400, Note_on_c, 3, 65, 80
1, 86627, Note_on_c, 3, 65, 0
1, 86640, Note_on_c, 3, 72, 80
1, 86867, Note_on_c, 3, 72, 0
1, 86880, Note_on_c, 3, 76, 80
1, 87107, Note_on_c, 3, 76, 0
1, 87120, Note_on_c, 3, 72, 80
1, 87347, Note_on_c, 3, 72, 0
1, 87360, Note_on_c, 3, 64, 80
1, 87587, Note_on_c, 3, 64, 0
1, 87600, Note_on_c, 3, 71, 80
1, 87827, Note_on_c, 3, 71, 0
1, 87840, Note_on_c, 3, 76, 80
1, 88067, Note_on_c, 3, 76, 0
1, 88080, Note_on_c, 3, 72, 80
1, 88307, Note_on_c, 3, 72, 0
1, 88320, Note_on_c, 3, 69, 80
1, 88547, Note_on_c, 3, 69, 0
1, 88560, Note_on_c, 3, 72, 80
1, 88787, Note_on_c, 3, 72, 0
1, 88800, Note_on_c, 3, 76, 80
1, 89027, Note_on_c, 3, 76, 0
1, 89040, Note_on_c, 3, 72, 80
1, 89267, Note_on_c, 3, 72, 0
1, 89280, Note_on_c, 3, 67, 80
1, 89507, Note_on_c, 3, 67, 0
1, 89520, Note_on_c, 3, 72, 80
1, 89747, Note_on_c, 3, 72, 0
1, 89760, Note_on_c, 3, 76, 80
1, 89987, Note_on_c, 3, 76, 0
1, 90000, Note_on_c, 3, 72, 80
1, 90227, Note_on_c, 3, 72, 0
1, 90240, Note_on_c, 3, 65, 80
1, 90467, Note_on_c, 3, 65, 0
1, 90480, Note_on_c, 3, 72, 80
1, 90707, Note_on_c, 3, 72, 0
1, 90720, Note_on_c, 3, 76, 80
1, 90947, Note_on_c, 3, 76, 0
1, 90960, Note_on_c, 3, 72, 80
1, 91187, Note_on_c, 3, 72, 0
1, 91200, Note_on_c, 3, 64, 80
1, 91427, Note_on_c, 3, 64, 0
1, 91440, Note_on_c, 3, 71, 80
1, 91667, Note_on_c, 3, 71, 0
1, 91680, Note_on_c, 3, 76, 80
1, 91907, Note_on_c, 3, 76, 0
1, 91920, Note_on_c, 3, 72, 80
1, 92147, Note_on_c, 3, 72, 0
1, 92160, Note_on_c, 3, 69, 80
1, 92387, Note_on_c, 3, 69, 0
1, 92400, Note_on_c, 3, 72, 80
1, 92627, Note_on_c, 3, 72, 0
1, 92640, Note_on_c, 3, 76, 80
1, 92867, Note_on_c, 3, 76, 0
1, 92880, Note_on_c, 3, 72, 80
1, 93107, Note_on_c, 3, 72, 0
1, 93120, Note_on_c, 3, 67, 80
1, 93347, Note_on_c, 3, 67, 0
1, 93360, Note_on_c, 3, 72, 80
1, 93587, Note_on_c, 3, 72, 0
1, 93600, Note_on_c, 3, 76, 80
1, 93827, Note_on_c, 3, 76, 0
1, 93840, Note_on_c, 3, 71, 80
1, 94067, Note_on_c, 3, 71, 0
1, 94080, Note_on_c, 3, 65, 80
1, 94307, Note_on_c, 3, 65, 0
1, 94320, Note_on_c, 3, 72, 80
1, 94547, Note_on_c, 3, 72, 0
1, 94560, Note_on_c, 3, 76, 80
1, 94787, Note_on_c, 3, 76, 0
1, 94800, Note_on_c, 3, 72, 80
1, 95027, Note_on_c, 3, 72, 0
1, 95040, Note_on_c, 3, 64, 80
1, 95267, Note_on_c, 3, 64, 0
1, 95280, Note_on_c, 3, 71, 80
1, 95507, Note_on_c, 3, 71, 0
1, 95520, Note_on_c, 3, 76, 80
1, 95747, Note_on_c, 3, 76, 0
1, 95760, Note_on_c, 3, 72, 80
1, 95987, Note_on_c, 3, 72, 0
1, 96960, Note_on_c, 3, 64, 80
1, 97073, Note_on_c, 3, 64, 0
1, 97080, Note_on_c, 3, 69, 80
1, 97193, Note_on_c, 3, 69, 0
1, 97200, Note_on_c, 3, 72, 80
1, 97313, Note_on_c, 3, 72, 0
1, 97320, Note_on_c, 3, 76, 80
1, 97433, Note_on_c, 3, 76, 0
1, 97440, Note_on_c, 3, 69, 80
1, 97553, Note_on_c, 3, 69, 0
1, 97560, Note_on_c, 3, 72, 80
1, 97673, Note_on_c, 3, 72, 0
1, 97680, Note_on_c, 3, 76, 80
1, 97793, Note_on_c, 3, 76, 0
1, 97800, Note_on_c, 3, 77, 80
1, 97913, Note_on_c, 3, 77, 0
1, 97920, Note_on_c, 3, 72, 80
1, 98033, Note_on_c, 3, 72, 0
1, 98040, Note_on_c, 3, 76, 80
1, 98153, Note_on_c, 3, 76, 0
1, 98160, Note_on_c, 3, 81, 80
1, 99185, Note_on_c, 3, 81, 0
1, 99186, End_track
2, 0, Start_track
2, 0, Title_t, "Piano, Piano\000"
2, 0, Key_signature, 0, "major"
2, 0, MIDI_port, 0
2, 0, Note_on_c, 3, 57, 80
2, 227, Note_on_c, 3, 57, 0
2, 240, Note_on_c, 3, 60, 80
2, 467, Note_on_c, 3, 60, 0
2, 480, Note_on_c, 3, 64, 80
2, 707, Note_on_c, 3, 64, 0
2, 720, Note_on_c, 3, 60, 80
2, 947, Note_on_c, 3, 60, 0
2, 960, Note_on_c, 3, 55, 80
2, 1187, Note_on_c, 3, 55, 0
2, 1200, Note_on_c, 3, 60, 80
2, 1427, Note_on_c, 3, 60, 0
2, 1440, Note_on_c, 3, 64, 80
2, 1667, Note_on_c, 3, 64, 0
2, 1680, Note_on_c, 3, 60, 80
2, 1907, Note_on_c, 3, 60, 0
2, 1920, Note_on_c, 3, 53, 80
2, 2147, Note_on_c, 3, 53, 0
2, 2160, Note_on_c, 3, 60, 80
2, 2387, Note_on_c, 3, 60, 0
2, 2400, Note_on_c, 3, 64, 80
2, 2627, Note_on_c, 3, 64, 0
2, 2640, Note_on_c, 3, 60, 80
2, 2867, Note_on_c, 3, 60, 0
2, 2880, Note_on_c, 3, 52, 80
2, 3107, Note_on_c, 3, 52, 0
2, 3120, Note_on_c, 3, 59, 80
2, 3347, Note_on_c, 3, 59, 0
2, 3360, Note_on_c, 3, 64, 80
2, 3587, Note_on_c, 3, 64, 0
2, 3600, Note_on_c, 3, 59, 80
2, 3827, Note_on_c, 3, 59, 0
2, 3840, Note_on_c, 3, 57, 80
2, 4067, Note_on_c, 3, 57, 0
2, 4080, Note_on_c, 3, 60, 80
2, 4307, Note_on_c, 3, 60, 0
2, 4320, Note_on_c, 3, 64, 80
2, 4547, Note_on_c, 3, 64, 0
2, 4560, Note_on_c, 3, 60, 80
2, 4787, Note_on_c, 3, 60, 0
2, 4800, Note_on_c, 3, 55, 80
2, 5027, Note_on_c, 3, 55, 0
2, 5040, Note_on_c, 3, 60, 80
2, 5267, Note_on_c, 3, 60, 0
2, 5280, Note_on_c, 3, 64, 80
2, 5507, Note_on_c, 3, 64, 0
2, 5520, Note_on_c, 3, 60, 80
2, 5747, Note_on_c, 3, 60, 0
2, 5760, Note_on_c, 3, 53, 80
2, 5987, Note_on_c, 3, 53, 0
2, 6000, Note_on_c, 3, 60, 80
2, 6227, Note_on_c, 3, 60, 0
2, 6240, Note_on_c, 3, 64, 80
2, 6467, Note_on_c, 3, 64, 0
2, 6480, Note_on_c, 3, 60, 80
2, 6707, Note_on_c, 3, 60, 0
2, 6720, Note_on_c, 3, 52, 80
2, 6947, Note_on_c, 3, 52, 0
2, 6960, Note_on_c, 3, 59, 80
2, 7187, Note_on_c, 3, 59, 0
2, 7200, Note_on_c, 3, 64, 80
2, 7427, Note_on_c, 3, 64, 0
2, 7440, Note_on_c, 3, 59, 80
2, 7667, Note_on_c, 3, 59, 0
2, 7680, Note_on_c, 3, 57, 80
2, 7907, Note_on_c, 3, 57, 0
2, 7920, Note_on_c, 3, 60, 80
2, 8147, Note_on_c, 3, 60, 0
2, 8160, Note_on_c, 3, 64, 80
2, 8387, Note_on_c, 3, 64, 0
2, 8400, Note_on_c, 3, 60, 80
2, 8627, Note_on_c, 3, 60, 0
2, 8640, Note_on_c, 3, 55, 80
2, 8867, Note_on_c, 3, 55, 0
2, 8880, Note_on_c, 3, 60, 80
2, 9107, Note_on_c, 3, 60, 0
2, 9120, Note_on_c, 3, 64, 80
2, 9347, Note_on_c, 3, 64, 0
2, 9360, Note_on_c, 3, 60, 80
2, 9587, Note_on_c, 3, 60, 0
2, 9600, Note_on_c, 3, 53, 80
2, 9827, Note_on_c, 3, 53, 0
2, 9840, Note_on_c, 3, 60, 80
2, 10067, Note_on_c, 3, 60, 0
2, 10080, Note_on_c, 3, 64, 80
2, 10307, Note_on_c, 3, 64, 0
2, 10320, Note_on_c, 3, 60, 80
2, 10547, Note_on_c, 3, 60, 0
2, 10560, Note_on_c, 3, 52, 80
2, 10787, Note_on_c, 3, 52, 0
2, 10800, Note_on_c, 3, 59, 80
2, 11027, Note_on_c, 3, 59, 0
2, 11040, Note_on_c, 3, 64, 80
2, 11267, Note_on_c, 3, 64, 0
2, 11280, Note_on_c, 3, 59, 80
2, 11507, Note_on_c, 3, 59, 0
2, 11520, Note_on_c, 3, 57, 80
2, 11747, Note_on_c, 3, 57, 0
2, 11760, Note_on_c, 3, 60, 80
2, 11987, Note_on_c, 3, 60, 0
2, 12000, Note_on_c, 3, 64, 80
2, 12227, Note_on_c, 3, 64, 0
2, 12240, Note_on_c, 3, 60, 80
2, 12467, Note_on_c, 3, 60, 0
2, 12480, Note_on_c, 3, 55, 80
2, 12707, Note_on_c, 3, 55, 0
2, 12720, Note_on_c, 3, 60, 80
2, 12947, Note_on_c, 3, 60, 0
2, 12960, Note_on_c, 3, 64, 80
2, 13187, Note_on_c, 3, 64, 0
2, 13200, Note_on_c, 3, 60, 80
2, 13427, Note_on_c, 3, 60, 0
2, 13440, Note_on_c, 3, 53, 80
2, 13667, Note_on_c, 3, 53, 0
2, 13680, Note_on_c, 3, 60, 80
2, 13907, Note_on_c, 3, 60, 0
2, 13920, Note_on_c, 3, 64, 80
2, 14147, Note_on_c, 3, 64, 0
2, 14160, Note_on_c, 3, 60, 80
2, 14387, Note_on_c, 3, 60, 0
2, 14400, Note_on_c, 3, 52, 80
2, 14627, Note_on_c, 3, 52, 0
2, 14640, Note_on_c, 3, 59, 80
2, 14867, Note_on_c, 3, 59, 0
2, 14880, Note_on_c, 3, 64, 80
2, 15107, Note_on_c, 3, 64, 0
2, 15120, Note_on_c, 3, 59, 80
2, 15347, Note_on_c, 3, 59, 0
2, 15360, Note_on_c, 3, 57, 80
2, 15587, Note_on_c, 3, 57, 0
2, 15600, Note_on_c, 3, 60, 80
2, 15827, Note_on_c, 3, 60, 0
2, 15840, Note_on_c, 3, 64, 80
2, 16067, Note_on_c, 3, 64, 0
2, 16080, Note_on_c, 3, 60, 80
2, 16307, Note_on_c, 3, 60, 0
2, 16320, Note_on_c, 3, 55, 80
2, 16547, Note_on_c, 3, 55, 0
2, 16560, Note_on_c, 3, 60, 80
2, 16787, Note_on_c, 3, 60, 0
2, 16800, Note_on_c, 3, 64, 80
2, 17027, Note_on_c, 3, 64, 0
2, 17040, Note_on_c, 3, 60, 80
2, 17267, Note_on_c, 3, 60, 0
2, 17280, Note_on_c, 3, 53, 80
2, 17507, Note_on_c, 3, 53, 0
2, 17520, Note_on_c, 3, 60, 80
2, 17747, Note_on_c, 3, 60, 0
2, 17760, Note_on_c, 3, 64, 80
2, 17987, Note_on_c, 3, 64, 0
2, 18000, Note_on_c, 3, 60, 80
2, 18227, Note_on_c, 3, 60, 0
2, 18240, Note_on_c, 3, 52, 80
2, 18467, Note_on_c, 3, 52, 0
2, 18480, Note_on_c, 3, 59, 80
2, 18707, Note_on_c, 3, 59, 0
2, 18720, Note_on_c, 3, 64, 80
2, 18947, Note_on_c, 3, 64, 0
2, 18960, Note_on_c, 3, 59, 80
2, 19187, Note_on_c, 3, 59, 0
2, 19200, Note_on_c, 3, 57, 80
2, 19427, Note_on_c, 3, 57, 0
2, 19440, Note_on_c, 3, 60, 80
2, 19667, Note_on_c, 3, 60, 0
2, 19680, Note_on_c, 3, 64, 80
2, 19907, Note_on_c, 3, 64, 0
2, 19920, Note_on_c, 3, 60, 80
2, 20147, Note_on_c, 3, 60, 0
2, 20160, Note_on_c, 3, 55, 80
2, 20387, Note_on_c, 3, 55, 0
2, 20400, Note_on_c, 3, 60, 80
2, 20627, Note_on_c, 3, 60, 0
2, 20640, Note_on_c, 3, 64, 80
2, 20867, Note_on_c, 3, 64, 0
2, 20880, Note_on_c, 3, 60, 80
2, 21107, Note_on_c, 3, 60, 0
2, 21120, Note_on_c, 3, 53, 80
2, 21347, Note_on_c, 3, 53, 0
2, 21360, Note_on_c, 3, 60, 80
2, 21587, Note_on_c, 3, 60, 0
2, 21600, Note_on_c, 3, 64, 80
2, 21827, Note_on_c, 3, 64, 0
2, 21840, Note_on_c, 3, 60, 80
2, 22067, Note_on_c, 3, 60, 0
2, 22080, Note_on_c, 3, 52, 80
2, 22307, Note_on_c, 3, 52, 0
2, 22320, Note_on_c, 3, 59, 80
2, 22547, Note_on_c, 3, 59, 0
2, 22560, Note_on_c, 3, 64, 80
2, 22787, Note_on_c, 3, 64, 0
2, 22800, Note_on_c, 3, 59, 80
2, 23027, Note_on_c, 3, 59, 0
2, 23040, Note_on_c, 3, 57, 80
2, 23267, Note_on_c, 3, 57, 0
2, 23280, Note_on_c, 3, 60, 80
2, 23507, Note_on_c, 3, 60, 0
2, 23520, Note_on_c, 3, 64, 80
2, 23747, Note_on_c, 3, 64, 0
2, 23760, Note_on_c, 3, 60, 80
2, 23987, Note_on_c, 3, 60, 0
2, 24000, Note_on_c, 3, 55, 80
2, 24227, Note_on_c, 3, 55, 0
2, 24240, Note_on_c, 3, 60, 80
2, 24467, Note_on_c, 3, 60, 0
2, 24480, Note_on_c, 3, 64, 80
2, 24707, Note_on_c, 3, 64, 0
2, 24720, Note_on_c, 3, 60, 80
2, 24947, Note_on_c, 3, 60, 0
2, 24960, Note_on_c, 3, 53, 80
2, 25187, Note_on_c, 3, 53, 0
2, 25200, Note_on_c, 3, 60, 80
2, 25427, Note_on_c, 3, 60, 0
2, 25440, Note_on_c, 3, 64, 80
2, 25667, Note_on_c, 3, 64, 0
2, 25680, Note_on_c, 3, 60, 80
2, 25907, Note_on_c, 3, 60, 0
2, 25920, Note_on_c, 3, 52, 80
2, 26147, Note_on_c, 3, 52, 0
2, 26160, Note_on_c, 3, 59, 80
2, 26387, Note_on_c, 3, 59, 0
2, 26400, Note_on_c, 3, 64, 80
2, 26627, Note_on_c, 3, 64, 0
2, 26640, Note_on_c, 3, 59, 80
2, 26867, Note_on_c, 3, 59, 0
2, 26880, Note_on_c, 3, 57, 80
2, 27107, Note_on_c, 3, 57, 0
2, 27120, Note_on_c, 3, 60, 80
2, 27347, Note_on_c, 3, 60, 0
2, 27360, Note_on_c, 3, 64, 80
2, 27587, Note_on_c, 3, 64, 0
2, 27600, Note_on_c, 3, 60, 80
2, 27827, Note_on_c, 3, 60, 0
2, 27840, Note_on_c, 3, 55, 80
2, 28067, Note_on_c, 3, 55, 0
2, 28080, Note_on_c, 3, 60, 80
2, 28307, Note_on_c, 3, 60, 0
2, 28320, Note_on_c, 3, 64, 80
2, 28547, Note_on_c, 3, 64, 0
2, 28560, Note_on_c, 3, 60, 80
2, 28787, Note_on_c, 3, 60, 0
2, 28800, Note_on_c, 3, 53, 80
2, 29027, Note_on_c, 3, 53, 0
2, 29040, Note_on_c, 3, 60, 80
2, 29267, Note_on_c, 3, 60, 0
2, 29280, Note_on_c, 3, 64, 80
2, 29507, Note_on_c, 3, 64, 0
2, 29520, Note_on_c, 3, 60, 80
2, 29747, Note_on_c, 3, 60, 0
2, 29760, Note_on_c, 3, 52, 80
2, 29987, Note_on_c, 3, 52, 0
2, 30000, Note_on_c, 3, 59, 80
2, 30227, Note_on_c, 3, 59, 0
2, 30240, Note_on_c, 3, 64, 80
2, 30467, Note_on_c, 3, 64, 0
2, 30480, Note_on_c, 3, 59, 80
2, 30707, Note_on_c, 3, 59, 0
2, 30720, Note_on_c, 3, 57, 80
2, 30947, Note_on_c, 3, 57, 0
2, 30960, Note_on_c, 3, 60, 80
2, 31187, Note_on_c, 3, 60, 0
2, 31200, Note_on_c, 3, 64, 80
2, 31427, Note_on_c, 3, 64, 0
2, 31440, Note_on_c, 3, 60, 80
2, 31667, Note_on_c, 3, 60, 0
2, 31680, Note_on_c, 3, 55, 80
2, 31907, Note_on_c, 3, 55, 0
2, 31920, Note_on_c, 3, 60, 80
2, 32147, Note_on_c, 3, 60, 0
2, 32160, Note_on_c, 3, 64, 80
2, 32387, Note_on_c, 3, 64, 0
2, 32400, Note_on_c, 3, 60, 80
2, 32627, Note_on_c, 3, 60, 0
2, 32640, Note_on_c, 3, 53, 80
2, 32867, Note_on_c, 3, 53, 0
2, 32880, Note_on_c, 3, 60, 80
2, 33107, Note_on_c, 3, 60, 0
2, 33120, Note_on_c, 3, 64, 80
2, 33347, Note_on_c, 3, 64, 0
2, 33360, Note_on_c, 3, 60, 80
2, 33587, Note_on_c, 3, 60, 0
2, 33600, Note_on_c, 3, 52, 80
2, 33827, Note_on_c, 3, 52, 0
2, 33840, Note_on_c, 3, 59, 80
2, 34067, Note_on_c, 3, 59, 0
2, 34080, Note_on_c, 3, 64, 80
2, 34307, Note_on_c, 3, 64, 0
2, 34320, Note_on_c, 3, 59, 80
2, 34547, Note_on_c, 3, 59, 0
2, 34560, Note_on_c, 3, 57, 80
2, 34787, Note_on_c, 3, 57, 0
2, 34800, Note_on_c, 3, 60, 80
2, 35027, Note_on_c, 3, 60, 0
2, 35040, Note_on_c, 3, 64, 80
2, 35267, Note_on_c, 3, 64, 0
2, 35280, Note_on_c, 3, 60, 80
2, 35507, Note_on_c, 3, 60, 0
2, 35520, Note_on_c, 3, 55, 80
2, 35747, Note_on_c, 3, 55, 0
2, 35760, Note_on_c, 3, 60, 80
2, 35987, Note_on_c, 3, 60, 0
2, 36000, Note_on_c, 3, 64, 80
2, 36227, Note_on_c, 3, 64, 0
2, 36240, Note_on_c, 3, 60, 80
2, 36467, Note_on_c, 3, 60, 0
2, 36480, Note_on_c, 3, 53, 80
2, 36707, Note_on_c, 3, 53, 0
2, 36720, Note_on_c, 3, 60, 80
2, 36947, Note_on_c, 3, 60, 0
2, 36960, Note_on_c, 3, 64, 80
2, 37187, Note_on_c, 3, 64, 0
2, 37200, Note_on_c, 3, 60, 80
2, 37427, Note_on_c, 3, 60, 0
2, 37440, Note_on_c, 3, 52, 80
2, 37667, Note_on_c, 3, 52, 0
2, 37680, Note_on_c, 3, 59, 80
2, 37907, Note_on_c, 3, 59, 0
2, 37920, Note_on_c, 3, 64, 80
2, 38147, Note_on_c, 3, 64, 0
2, 38160, Note_on_c, 3, 59, 80
2, 38387, Note_on_c, 3, 59, 0
2, 38400, Note_on_c, 3, 57, 80
2, 38627, Note_on_c, 3, 57, 0
2, 38640, Note_on_c, 3, 60, 80
2, 38867, Note_on_c, 3, 60, 0
2, 38880, Note_on_c, 3, 64, 80
2, 39107, Note_on_c, 3, 64, 0
2, 39120, Note_on_c, 3, 60, 80
2, 39347, Note_on_c, 3, 60, 0
2, 39360, Note_on_c, 3, 55, 80
2, 39587, Note_on_c, 3, 55, 0
2, 39600, Note_on_c, 3, 60, 80
2, 39827, Note_on_c, 3, 60, 0
2, 39840, Note_on_c, 3, 64, 80
2, 40067, Note_on_c, 3, 64, 0
2, 40080, Note_on_c, 3, 60, 80
2, 40199, Note_on_c, 3, 60, 0
2, 40320, Note_on_c, 3, 53, 80
2, 40547, Note_on_c, 3, 53, 0
2, 40560, Note_on_c, 3, 60, 80
2, 40787, Note_on_c, 3, 60, 0
2, 40800, Note_on_c, 3, 64, 80
2, 41027, Note_on_c, 3, 64, 0
2, 41040, Note_on_c, 3, 60, 80
2, 41267, Note_on_c, 3, 60, 0
2, 41280, Note_on_c, 3, 52, 80
2, 41507, Note_on_c, 3, 52, 0
2, 41520, Note_on_c, 3, 59, 80
2, 41747, Note_on_c, 3, 59, 0
2, 41760, Note_on_c, 3, 64, 80
2, 41987, Note_on_c, 3, 64, 0
2, 42000, Note_on_c, 3, 59, 80
2, 42227, Note_on_c, 3, 59, 0
2, 42240, Note_on_c, 3, 57, 80
2, 42467, Note_on_c, 3, 57, 0
2, 42480, Note_on_c, 3, 60, 80
2, 42707, Note_on_c, 3, 60, 0
2, 42720, Note_on_c, 3, 64, 80
2, 42947, Note_on_c, 3, 64, 0
2, 42960, Note_on_c, 3, 60, 80
2, 43187, Note_on_c, 3, 60, 0
2, 43200, Note_on_c, 3, 55, 80
2, 43427, Note_on_c, 3, 55, 0
2, 43440, Note_on_c, 3, 60, 80
2, 43667, Note_on_c, 3, 60, 0
2, 43680, Note_on_c, 3, 64, 80
2, 43907, Note_on_c, 3, 64, 0
2, 43920, Note_on_c, 3, 60, 80
2, 44147, Note_on_c, 3, 60, 0
2, 44160, Note_on_c, 3, 53, 80
2, 44387, Note_on_c, 3, 53, 0
2, 44400, Note_on_c, 3, 60, 80
2, 44627, Note_on_c, 3, 60, 0
2, 44640, Note_on_c, 3, 64, 80
2, 44867, Note_on_c, 3, 64, 0
2, 44880, Note_on_c, 3, 60, 80
2, 45107, Note_on_c, 3, 60, 0
2, 45120, Note_on_c, 3, 52, 80
2, 45347, Note_on_c, 3, 52, 0
2, 45360, Note_on_c, 3, 59, 80
2, 45587, Note_on_c, 3, 59, 0
2, 45600, Note_on_c, 3, 64, 80
2, 45827, Note_on_c, 3, 64, 0
2, 45840, Note_on_c, 3, 59, 80
2, 46067, Note_on_c, 3, 59, 0
2, 46080, Note_on_c, 3, 57, 80
2, 46307, Note_on_c, 3, 57, 0
2, 46320, Note_on_c, 3, 60, 80
2, 46547, Note_on_c, 3, 60, 0
2, 46560, Note_on_c, 3, 64, 80
2, 46787, Note_on_c, 3, 64, 0
2, 46800, Note_on_c, 3, 60, 80
2, 47027, Note_on_c, 3, 60, 0
2, 47040, Note_on_c, 3, 55, 80
2, 47267, Note_on_c, 3, 55, 0
2, 47280, Note_on_c, 3, 60, 80
2, 47507, Note_on_c, 3, 60, 0
2, 47520, Note_on_c, 3, 64, 80
2, 47747, Note_on_c, 3, 64, 0
2, 47760, Note_on_c, 3, 60, 80
2, 47987, Note_on_c, 3, 60, 0
2, 48000, Note_on_c, 3, 53, 80
2, 48227, Note_on_c, 3, 53, 0
2, 48240, Note_on_c, 3, 60, 80
2, 48467, Note_on_c, 3, 60, 0
2, 48480, Note_on_c, 3, 64, 80
2, 48707, Note_on_c, 3, 64, 0
2, 48720, Note_on_c, 3, 60, 80
2, 48947, Note_on_c, 3, 60, 0
2, 48960, Note_on_c, 3, 52, 80
2, 49187, Note_on_c, 3, 52, 0
2, 49200, Note_on_c, 3, 59, 80
2, 49427, Note_on_c, 3, 59, 0
2, 49440, Note_on_c, 3, 64, 80
2, 49667, Note_on_c, 3, 64, 0
2, 49680, Note_on_c, 3, 59, 80
2, 49907, Note_on_c, 3, 59, 0
2, 49920, Note_on_c, 3, 57, 80
2, 50147, Note_on_c, 3, 57, 0
2, 50160, Note_on_c, 3, 60, 80
2, 50387, Note_on_c, 3, 60, 0
2, 50400, Note_on_c, 3, 64, 80
2, 50627, Note_on_c, 3, 64, 0
2, 50640, Note_on_c, 3, 60, 80
2, 50867, Note_on_c, 3, 60, 0
2, 50880, Note_on_c, 3, 55, 80
2, 51107, Note_on_c, 3, 55, 0
2, 51120, Note_on_c, 3, 60, 80
2, 51347, Note_on_c, 3, 60, 0
2, 51360, Note_on_c, 3, 64, 80
2, 51587, Note_on_c, 3, 64, 0
2, 51600, Note_on_c, 3, 60, 80
2, 51827, Note_on_c, 3, 60, 0
2, 51840, Note_on_c, 3, 53, 80
2, 52067, Note_on_c, 3, 53, 0
2, 52080, Note_on_c, 3, 60, 80
2, 52307, Note_on_c, 3, 60, 0
2, 52320, Note_on_c, 3, 64, 80
2, 52547, Note_on_c, 3, 64, 0
2, 52560, Note_on_c, 3, 60, 80
2, 52787, Note_on_c, 3, 60, 0
2, 52800, Note_on_c, 3, 52, 80
2, 53027, Note_on_c, 3, 52, 0
2, 53040, Note_on_c, 3, 59, 80
2, 53267, Note_on_c, 3, 59, 0
2, 53280, Note_on_c, 3, 64, 80
2, 53507, Note_on_c, 3, 64, 0
2, 53520, Note_on_c, 3, 59, 80
2, 53747, Note_on_c, 3, 59, 0
2, 53760, Note_on_c, 3, 57, 80
2, 53987, Note_on_c, 3, 57, 0
2, 54000, Note_on_c, 3, 60, 80
2, 54227, Note_on_c, 3, 60, 0
2, 54240, Note_on_c, 3, 64, 80
2, 54467, Note_on_c, 3, 64, 0
2, 54480, Note_on_c, 3, 60, 80
2, 54707, Note_on_c, 3, 60, 0
2, 54720, Note_on_c, 3, 55, 80
2, 54947, Note_on_c, 3, 55, 0
2, 54960, Note_on_c, 3, 60, 80
2, 55187, Note_on_c, 3, 60, 0
2, 55200, Note_on_c, 3, 64, 80
2, 55427, Note_on_c, 3, 64, 0
2, 55440, Note_on_c, 3, 60, 80
2, 55667, Note_on_c, 3, 60, 0
2, 55680, Note_on_c, 3, 53, 80
2, 55907, Note_on_c, 3, 53, 0
2, 55920, Note_on_c, 3, 60, 80
2, 56147, Note_on_c, 3, 60, 0
2, 56160, Note_on_c, 3, 64, 80
2, 56387, Note_on_c, 3, 64, 0
2, 56400, Note_on_c, 3, 60, 80
2, 56627, Note_on_c, 3, 60, 0
2, 56640, Note_on_c, 3, 52, 80
2, 56867, Note_on_c, 3, 52, 0
2, 56880, Note_on_c, 3, 59, 80
2, 57107, Note_on_c, 3, 59, 0
2, 57120, Note_on_c, 3, 64, 80
2, 57347, Note_on_c, 3, 64, 0
2, 57360, Note_on_c, 3, 60, 80
2, 57587, Note_on_c, 3, 60, 0
2, 57600, Note_on_c, 3, 57, 80
2, 57827, Note_on_c, 3, 57, 0
2, 57840, Note_on_c, 3, 60, 80
2, 58067, Note_on_c, 3, 60, 0
2, 58080, Note_on_c, 3, 64, 80
2, 58307, Note_on_c, 3, 64, 0
2, 58320, Note_on_c, 3, 60, 80
2, 58547, Note_on_c, 3, 60, 0
2, 58560, Note_on_c, 3, 55, 80
2, 58787, Note_on_c, 3, 55, 0
2, 58800, Note_on_c, 3, 60, 80
2, 59027, Note_on_c, 3, 60, 0
2, 59040, Note_on_c, 3, 64, 80
2, 59267, Note_on_c, 3, 64, 0
2, 59280, Note_on_c, 3, 60, 80
2, 59507, Note_on_c, 3, 60, 0
2, 59520, Note_on_c, 3, 53, 80
2, 59747, Note_on_c, 3, 53, 0
2, 59760, Note_on_c, 3, 60, 80
2, 59987, Note_on_c, 3, 60, 0
2, 60000, Note_on_c, 3, 64, 80
2, 60227, Note_on_c, 3, 64, 0
2, 60240, Note_on_c, 3, 60, 80
2, 60467, Note_on_c, 3, 60, 0
2, 60480, Note_on_c, 3, 52, 80
2, 60707, Note_on_c, 3, 52, 0
2, 60720, Note_on_c, 3, 59, 80
2, 60947, Note_on_c, 3, 59, 0
2, 60960, Note_on_c, 3, 64, 80
2, 61187, Note_on_c, 3, 64, 0
2, 61200, Note_on_c, 3, 60, 80
2, 61427, Note_on_c, 3, 60, 0
2, 61440, Note_on_c, 3, 57, 80
2, 61667, Note_on_c, 3, 57, 0
2, 61680, Note_on_c, 3, 60, 80
2, 61907, Note_on_c, 3, 60, 0
2, 61920, Note_on_c, 3, 64, 80
2, 62147, Note_on_c, 3, 64, 0
2, 62160, Note_on_c, 3, 60, 80
2, 62387, Note_on_c, 3, 60, 0
2, 62400, Note_on_c, 3, 55, 80
2, 62627, Note_on_c, 3, 55, 0
2, 62640, Note_on_c, 3, 60, 80
2, 62867, Note_on_c, 3, 60, 0
2, 62880, Note_on_c, 3, 64, 80
2, 63107, Note_on_c, 3, 64, 0
2, 63120, Note_on_c, 3, 60, 80
2, 63347, Note_on_c, 3, 60, 0
2, 63360, Note_on_c, 3, 53, 80
2, 63587, Note_on_c, 3, 53, 0
2, 63600, Note_on_c, 3, 60, 80
2, 63827, Note_on_c, 3, 60, 0
2, 63840, Note_on_c, 3, 64, 80
2, 64067, Note_on_c, 3, 64, 0
2, 64080, Note_on_c, 3, 60, 80
2, 64307, Note_on_c, 3, 60, 0
2, 64320, Note_on_c, 3, 52, 80
2, 64547, Note_on_c, 3, 52, 0
2, 64560, Note_on_c, 3, 59, 80
2, 64787, Note_on_c, 3, 59, 0
2, 64800, Note_on_c, 3, 64, 80
2, 65027, Note_on_c, 3, 64, 0
2, 65040, Note_on_c, 3, 60, 80
2, 65267, Note_on_c, 3, 60, 0
2, 65280, Note_on_c, 3, 57, 80
2, 65507, Note_on_c, 3, 57, 0
2, 65520, Note_on_c, 3, 60, 80
2, 65747, Note_on_c, 3, 60, 0
2, 65760, Note_on_c, 3, 64, 80
2, 65987, Note_on_c, 3, 64, 0
2, 66000, Note_on_c, 3, 60, 80
2, 66227, Note_on_c, 3, 60, 0
2, 66240, Note_on_c, 3, 55, 80
2, 66467, Note_on_c, 3, 55, 0
2, 66480, Note_on_c, 3, 60, 80
2, 66707, Note_on_c, 3, 60, 0
2, 66720, Note_on_c, 3, 64, 80
2, 66947, Note_on_c, 3, 64, 0
2, 66960, Note_on_c, 3, 60, 80
2, 67187, Note_on_c, 3, 60, 0
2, 67200, Note_on_c, 3, 53, 80
2, 67427, Note_on_c, 3, 53, 0
2, 67440, Note_on_c, 3, 60, 80
2, 67667, Note_on_c, 3, 60, 0
2, 67680, Note_on_c, 3, 64, 80
2, 67907, Note_on_c, 3, 64, 0
2, 67920, Note_on_c, 3, 60, 80
2, 68147, Note_on_c, 3, 60, 0
2, 68160, Note_on_c, 3, 52, 80
2, 68387, Note_on_c, 3, 52, 0
2, 68400, Note_on_c, 3, 59, 80
2, 68627, Note_on_c, 3, 59, 0
2, 68640, Note_on_c, 3, 64, 80
2, 68867, Note_on_c, 3, 64, 0
2, 68880, Note_on_c, 3, 60, 80
2, 69107, Note_on_c, 3, 60, 0
2, 69120, Note_on_c, 3, 57, 80
2, 69347, Note_on_c, 3, 57, 0
2, 69360, Note_on_c, 3, 60, 80
2, 69587, Note_on_c, 3, 60, 0
2, 69600, Note_on_c, 3, 64, 80
2, 69827, Note_on_c, 3, 64, 0
2, 69840, Note_on_c, 3, 60, 80
2, 70067, Note_on_c, 3, 60, 0
2, 70080, Note_on_c, 3, 55, 80
2, 70307, Note_on_c, 3, 55, 0
2, 70320, Note_on_c, 3, 60, 80
2, 70547, Note_on_c, 3, 60, 0
2, 70560, Note_on_c, 3, 64, 80
2, 70787, Note_on_c, 3, 64, 0
2, 70800, Note_on_c, 3, 60, 80
2, 71027, Note_on_c, 3, 60, 0
2, 71040, Note_on_c, 3, 53, 80
2, 71267, Note_on_c, 3, 53, 0
2, 71280, Note_on_c, 3, 60, 80
2, 71507, Note_on_c, 3, 60, 0
2, 71520, Note_on_c, 3, 64, 80
2, 71747, Note_on_c, 3, 64, 0
2, 71760, Note_on_c, 3, 60, 80
2, 71987, Note_on_c, 3, 60, 0
2, 72000, Note_on_c, 3, 52, 80
2, 72227, Note_on_c, 3, 52, 0
2, 72240, Note_on_c, 3, 59, 80
2, 72467, Note_on_c, 3, 59, 0
2, 72480, Note_on_c, 3, 64, 80
2, 72707, Note_on_c, 3, 64, 0
2, 72720, Note_on_c, 3, 60, 80
2, 72947, Note_on_c, 3, 60, 0
2, 72960, Note_on_c, 3, 57, 80
2, 73187, Note_on_c, 3, 57, 0
2, 73200, Note_on_c, 3, 60, 80
2, 73427, Note_on_c, 3, 60, 0
2, 73440, Note_on_c, 3, 64, 80
2, 73667, Note_on_c, 3, 64, 0
2, 73680, Note_on_c, 3, 60, 80
2, 73907, Note_on_c, 3, 60, 0
2, 73920, Note_on_c, 3, 55, 80
2, 74147, Note_on_c, 3, 55, 0
2, 74160, Note_on_c, 3, 60, 80
2, 74387, Note_on_c, 3, 60, 0
2, 74400, Note_on_c, 3, 64, 80
2, 74627, Note_on_c, 3, 64, 0
2, 74640, Note_on_c, 3, 60, 80
2, 74867, Note_on_c, 3, 60, 0
2, 74880, Note_on_c, 3, 53, 80
2, 75107, Note_on_c, 3, 53, 0
2, 75120, Note_on_c, 3, 60, 80
2, 75347, Note_on_c, 3, 60, 0
2, 75360, Note_on_c, 3, 64, 80
2, 75587, Note_on_c, 3, 64, 0
2, 75600, Note_on_c, 3, 60, 80
2, 75827, Note_on_c, 3, 60, 0
2, 75840, Note_on_c, 3, 52, 80
2, 76067, Note_on_c, 3, 52, 0
2, 76080, Note_on_c, 3, 59, 80
2, 76307, Note_on_c, 3, 59, 0
2, 76320, Note_on_c, 3, 64, 80
2, 76547, Note_on_c, 3, 64, 0
2, 76560, Note_on_c, 3, 59, 80
2, 76787, Note_on_c, 3, 59, 0
2, 76800, Note_on_c, 3, 57, 80
2, 77027, Note_on_c, 3, 57, 0
2, 77040, Note_on_c, 3, 60, 80
2, 77267, Note_on_c, 3, 60, 0
2, 77280, Note_on_c, 3, 64, 80
2, 77507, Note_on_c, 3, 64, 0
2, 77520, Note_on_c, 3, 60, 80
2, 77747, Note_on_c, 3, 60, 0
2, 77760, Note_on_c, 3, 55, 80
2, 77987, Note_on_c, 3, 55, 0
2, 78000, Note_on_c, 3, 60, 80
2, 78227, Note_on_c, 3, 60, 0
2, 78240, Note_on_c, 3, 64, 80
2, 78467, Note_on_c, 3, 64, 0
2, 78480, Note_on_c, 3, 60, 80
2, 78707, Note_on_c, 3, 60, 0
2, 78720, Note_on_c, 3, 53, 80
2, 78947, Note_on_c, 3, 53, 0
2, 78960, Note_on_c, 3, 60, 80
2, 79187, Note_on_c, 3, 60, 0
2, 79200, Note_on_c, 3, 64, 80
2, 79427, Note_on_c, 3, 64, 0
2, 79440, Note_on_c, 3, 60, 80
2, 79667, Note_on_c, 3, 60, 0
2, 79680, Note_on_c, 3, 52, 80
2, 79907, Note_on_c, 3, 52, 0
2, 79920, Note_on_c, 3, 59, 80
2, 80147, Note_on_c, 3, 59, 0
2, 80160, Note_on_c, 3, 64, 80
2, 80387, Note_on_c, 3, 64, 0
2, 80400, Note_on_c, 3, 60, 80
2, 80627, Note_on_c, 3, 60, 0
2, 80640, Note_on_c, 3, 57, 80
2, 80867, Note_on_c, 3, 57, 0
2, 80880, Note_on_c, 3, 60, 80
2, 81107, Note_on_c, 3, 60, 0
2, 81120, Note_on_c, 3, 64, 80
2, 81347, Note_on_c, 3, 64, 0
2, 81360, Note_on_c, 3, 60, 80
2, 81587, Note_on_c, 3, 60, 0
2, 81600, Note_on_c, 3, 55, 80
2, 81827, Note_on_c, 3, 55, 0
2, 81840, Note_on_c, 3, 60, 80
2, 82067, Note_on_c, 3, 60, 0
2, 82080, Note_on_c, 3, 64, 80
2, 82307, Note_on_c, 3, 64, 0
2, 82320, Note_on_c, 3, 60, 80
2, 82547, Note_on_c, 3, 60, 0
2, 82560, Note_on_c, 3, 53, 80
2, 82787, Note_on_c, 3, 53, 0
2, 82800, Note_on_c, 3, 60, 80
2, 83027, Note_on_c, 3, 60, 0
2, 83040, Note_on_c, 3, 64, 80
2, 83267, Note_on_c, 3, 64, 0
2, 83280, Note_on_c, 3, 60, 80
2, 83507, Note_on_c, 3, 60, 0
2, 83520, Note_on_c, 3, 52, 80
2, 83747, Note_on_c, 3, 52, 0
2, 83760, Note_on_c, 3, 60, 80
2, 83987, Note_on_c, 3, 60, 0
2, 84000, Note_on_c, 3, 64, 80
2, 84227, Note_on_c, 3, 64, 0
2, 84240, Note_on_c, 3, 60, 80
2, 84467, Note_on_c, 3, 60, 0
2, 84480, Note_on_c, 3, 57, 80
2, 84707, Note_on_c, 3, 57, 0
2, 84720, Note_on_c, 3, 60, 80
2, 84947, Note_on_c, 3, 60, 0
2, 84960, Note_on_c, 3, 64, 80
2, 85187, Note_on_c, 3, 64, 0
2, 85200, Note_on_c, 3, 60, 80
2, 85427, Note_on_c, 3, 60, 0
2, 85440, Note_on_c, 3, 55, 80
2, 85667, Note_on_c, 3, 55, 0
2, 85680, Note_on_c, 3, 60, 80
2, 85907, Note_on_c, 3, 60, 0
2, 85920, Note_on_c, 3, 64, 80
2, 86147, Note_on_c, 3, 64, 0
2, 86160, Note_on_c, 3, 60, 80
2, 86387, Note_on_c, 3, 60, 0
2, 86400, Note_on_c, 3, 53, 80
2, 86627, Note_on_c, 3, 53, 0
2, 86640, Note_on_c, 3, 60, 80
2, 86867, Note_on_c, 3, 60, 0
2, 86880, Note_on_c, 3, 64, 80
2, 87107, Note_on_c, 3, 64, 0
2, 87120, Note_on_c, 3, 60, 80
2, 87347, Note_on_c, 3, 60, 0
2, 87360, Note_on_c, 3, 52, 80
2, 87587, Note_on_c, 3, 52, 0
2, 87600, Note_on_c, 3, 59, 80
2, 87827, Note_on_c, 3, 59, 0
2, 87840, Note_on_c, 3, 64, 80
2, 88067, Note_on_c, 3, 64, 0
2, 88080, Note_on_c, 3, 60, 80
2, 88307, Note_on_c, 3, 60, 0
2, 88320, Note_on_c, 3, 57, 80
2, 88547, Note_on_c, 3, 57, 0
2, 88560, Note_on_c, 3, 60, 80
2, 88787, Note_on_c, 3, 60, 0
2, 88800, Note_on_c, 3, 64, 80
2, 89027, Note_on_c, 3, 64, 0
2, 89040, Note_on_c, 3, 60, 80
2, 89267, Note_on_c, 3, 60, 0
2, 89280, Note_on_c, 3, 55, 80
2, 89507, Note_on_c, 3, 55, 0
2, 89520, Note_on_c, 3, 60, 80
2, 89747, Note_on_c, 3, 60, 0
2, 89760, Note_on_c, 3, 64, 80
2, 89987, Note_on_c, 3, 64, 0
2, 90000, Note_on_c, 3, 60, 80
2, 90227, Note_on_c, 3, 60, 0
2, 90240, Note_on_c, 3, 53, 80
2, 90467, Note_on_c, 3, 53, 0
2, 90480, Note_on_c, 3, 60, 80
2, 90707, Note_on_c, 3, 60, 0
2, 90720, Note_on_c, 3, 64, 80
2, 90947, Note_on_c, 3, 64, 0
2, 90960, Note_on_c, 3, 60, 80
2, 91187, Note_on_c, 3, 60, 0
2, 91200, Note_on_c, 3, 52, 80
2, 91427, Note_on_c, 3, 52, 0
2, 91440, Note_on_c, 3, 59, 80
2, 91667, Note_on_c, 3, 59, 0
2, 91680, Note_on_c, 3, 64, 80
2, 91907, Note_on_c, 3, 64, 0
2, 91920, Note_on_c, 3, 60, 80
2, 92147, Note_on_c, 3, 60, 0
2, 92160, Note_on_c, 3, 57, 80
2, 92387, Note_on_c, 3, 57, 0
2, 92400, Note_on_c, 3, 60, 80
2, 92627, Note_on_c, 3, 60, 0
2, 92640, Note_on_c, 3, 64, 80
2, 92867, Note_on_c, 3, 64, 0
2, 92880, Note_on_c, 3, 60, 80
2, 93107, Note_on_c, 3, 60, 0
2, 93120, Note_on_c, 3, 55, 80
2, 93347, Note_on_c, 3, 55, 0
2, 93360, Note_on_c, 3, 60, 80
2, 93587, Note_on_c, 3, 60, 0
2, 93600, Note_on_c, 3, 64, 80
2, 93827, Note_on_c, 3, 64, 0
2, 93840, Note_on_c, 3, 60, 80
2, 94067, Note_on_c, 3, 60, 0
2, 94080, Note_on_c, 3, 53, 80
2, 94307, Note_on_c, 3, 53, 0
2, 94320, Note_on_c, 3, 60, 80
2, 94547, Note_on_c, 3, 60, 0
2, 94560, Note_on_c, 3, 64, 80
2, 94787, Note_on_c, 3, 64, 0
2, 94800, Note_on_c, 3, 60, 80
2, 95027, Note_on_c, 3, 60, 0
2, 95040, Note_on_c, 3, 52, 80
2, 95267, Note_on_c, 3, 52, 0
2, 95280, Note_on_c, 3, 59, 80
2, 95507, Note_on_c, 3, 59, 0
2, 95520, Note_on_c, 3, 64, 80
2, 95747, Note_on_c, 3, 64, 0
2, 95760, Note_on_c, 3, 59, 80
2, 95987, Note_on_c, 3, 59, 0
2, 96000, Note_on_c, 3, 57, 80
2, 96113, Note_on_c, 3, 57, 0
2, 96120, Note_on_c, 3, 60, 80
2, 96233, Note_on_c, 3, 60, 0
2, 96240, Note_on_c, 3, 64, 80
2, 96353, Note_on_c, 3, 64, 0
2, 96360, Note_on_c, 3, 69, 80
2, 96473, Note_on_c, 3, 69, 0
2, 96480, Note_on_c, 3, 60, 80
2, 96593, Note_on_c, 3, 60, 0
2, 96600, Note_on_c, 3, 64, 80
2, 96713, Note_on_c, 3, 64, 0
2, 96720, Note_on_c, 3, 69, 80
2, 96833, Note_on_c, 3, 69, 0
2, 96840, Note_on_c, 3, 72, 80
2, 96953, Note_on_c, 3, 72, 0
2, 96954, End_track
3, 0, Start_track
3, 0, Title_t, "Electric Bass, Bass\000"
3, 0, Key_signature, 0, "major"
3, 0, Control_c, 0, 121, 0
3, 0, Program_c, 0, 33
3, 0, Control_c, 0, 7, 100
3, 0, Control_c, 0, 10, 64
3, 0, Control_c, 0, 91, 0
3, 0, Control_c, 0, 93, 0
3, 0, MIDI_port, 0
3, 0, Control_c, 1, 121, 0
3, 0, Program_c, 1, 36
3, 0, Control_c, 1, 7, 100
3, 0, Control_c, 1, 10, 64
3, 0, Control_c, 1, 91, 0
3, 0, Control_c, 1, 93, 0
3, 0, MIDI_port, 0
3, 0, Control_c, 4, 121, 0
3, 0, Program_c, 4, 37
3, 0, Control_c, 4, 7, 100
3, 0, Control_c, 4, 10, 64
3, 0, Control_c, 4, 91, 0
3, 0, Control_c, 4, 93, 0
3, 0, MIDI_port, 0
3, 7680, Note_on_c, 0, 57, 80
3, 8639, Note_on_c, 0, 57, 0
3, 8640, Note_on_c, 0, 55, 80
3, 9599, Note_on_c, 0, 55, 0
3, 9600, Note_on_c, 0, 53, 80
3, 10559, Note_on_c, 0, 53, 0
3, 10560, Note_on_c, 0, 52, 80
3, 11519, Note_on_c, 0, 52, 0
3, 11520, Note_on_c, 0, 57, 80
3, 12479, Note_on_c, 0, 57, 0
3, 12480, Note_on_c, 0, 55, 80
3, 13439, Note_on_c, 0, 55, 0
3, 13440, Note_on_c, 0, 53, 80
3, 14399, Note_on_c, 0, 53, 0
3, 14400, Note_on_c, 0, 52, 80
3, 15359, Note_on_c, 0, 52, 0
3, 15360, Note_on_c, 0, 57, 80
3, 16319, Note_on_c, 0, 57, 0
3, 16320, Note_on_c, 0, 55, 80
3, 17279, Note_on_c, 0, 55, 0
3, 17280, Note_on_c, 0, 53, 80
3, 18239, Note_on_c, 0, 53, 0
3, 18240, Note_on_c, 0, 52, 80
3, 19199, Note_on_c, 0, 52, 0
3, 19200, Note_on_c, 0, 57, 80
3, 20159, Note_on_c, 0, 57, 0
3, 20160, Note_on_c, 0, 55, 80
3, 21119, Note_on_c, 0, 55, 0
3, 21120, Note_on_c, 0, 53, 80
3, 22079, Note_on_c, 0, 53, 0
3, 22080, Note_on_c, 0, 52, 80
3, 23039, Note_on_c, 0, 52, 0
3, 23040, Note_on_c, 0, 57, 80
3, 23999, Note_on_c, 0, 57, 0
3, 24000, Note_on_c, 0, 55, 80
3, 24959, Note_on_c, 0, 55, 0
3, 24960, Note_on_c, 0, 53, 80
3, 25919, Note_on_c, 0, 53, 0
3, 25920, Note_on_c, 0, 52, 80
3, 26879, Note_on_c, 0, 52, 0
3, 26880, Note_on_c, 0, 57, 80
3, 27839, Note_on_c, 0, 57, 0
3, 27840, Note_on_c, 0, 55, 80
3, 28799, Note_on_c, 0, 55, 0
3, 28800, Note_on_c, 0, 53, 80
3, 29759, Note_on_c, 0, 53, 0
3, 29760, Note_on_c, 0, 52, 80
3, 30719, Note_on_c, 0, 52, 0
3, 30720, Note_on_c, 0, 57, 80
3, 31679, Note_on_c, 0, 57, 0
3, 31680, Note_on_c, 0, 55, 80
3, 32639, Note_on_c, 0, 55, 0
3, 32640, Note_on_c, 0, 53, 80
3, 33599, Note_on_c, 0, 53, 0
3, 33600, Note_on_c, 0, 52, 80
3, 34559, Note_on_c, 0, 52, 0
3, 34560, Note_on_c, 0, 57, 80
3, 35519, Note_on_c, 0, 57, 0
3, 35520, Note_on_c, 0, 55, 80
3, 36479, Note_on_c, 0, 55, 0
3, 36480, Note_on_c, 0, 53, 80
3, 37439, Note_on_c, 0, 53, 0
3, 37440, Note_on_c, 0, 52, 80
3, 38399, Note_on_c, 0, 52, 0
3, 38400, Note_on_c, 0, 57, 80
3, 39359, Note_on_c, 0, 57, 0
3, 39360, Note_on_c, 0, 55, 80
3, 40319, Note_on_c, 0, 55, 0
3, 40320, Note_on_c, 0, 53, 80
3, 41279, Note_on_c, 0, 53, 0
3, 41280, Note_on_c, 0, 52, 80
3, 42239, Note_on_c, 0, 52, 0
3, 42240, Note_on_c, 0, 57, 80
3, 43199, Note_on_c, 0, 57, 0
3, 43200, Note_on_c, 0, 55, 80
3, 44159, Note_on_c, 0, 55, 0
3, 44160, Note_on_c, 0, 53, 80
3, 45119, Note_on_c, 0, 53, 0
3, 45120, Note_on_c, 0, 52, 80
3, 46079, Note_on_c, 0, 52, 0
3, 46080, Note_on_c, 0, 57, 80
3, 47039, Note_on_c, 0, 57, 0
3, 47040, Note_on_c, 0, 55, 80
3, 47999, Note_on_c, 0, 55, 0
3, 48000, Note_on_c, 0, 53, 80
3, 48959, Note_on_c, 0, 53, 0
3, 48960, Note_on_c, 0, 52, 80
3, 49919, Note_on_c, 0, 52, 0
3, 49920, Note_on_c, 0, 57, 80
3, 50879, Note_on_c, 0, 57, 0
3, 50880, Note_on_c, 0, 55, 80
3, 51839, Note_on_c, 0, 55, 0
3, 51840, Note_on_c, 0, 53, 80
3, 52799, Note_on_c, 0, 53, 0
3, 52800, Note_on_c, 0, 52, 80
3, 53759, Note_on_c, 0, 52, 0
3, 53760, Note_on_c, 0, 57, 80
3, 53999, Note_on_c, 0, 57, 0
3, 54000, Note_on_c, 0, 57, 80
3, 54719, Note_on_c, 0, 57, 0
3, 54720, Note_on_c, 0, 55, 80
3, 54959, Note_on_c, 0, 55, 0
3, 54960, Note_on_c, 0, 55, 80
3, 55679, Note_on_c, 0, 55, 0
3, 55680, Note_on_c, 0, 53, 80
3, 55919, Note_on_c, 0, 53, 0
3, 55920, Note_on_c, 0, 53, 80
3, 56639, Note_on_c, 0, 53, 0
3, 56640, Note_on_c, 0, 52, 80
3, 56879, Note_on_c, 0, 52, 0
3, 56880, Note_on_c, 0, 52, 80
3, 57599, Note_on_c, 0, 52, 0
3, 57600, Note_on_c, 0, 57, 80
3, 57839, Note_on_c, 0, 57, 0
3, 57840, Note_on_c, 0, 57, 80
3, 58559, Note_on_c, 0, 57, 0
3, 58560, Note_on_c, 0, 55, 80
3, 58799, Note_on_c, 0, 55, 0
3, 58800, Note_on_c, 0, 55, 80
3, 59519, Note_on_c, 0, 55, 0
3, 59520, Note_on_c, 0, 53, 80
3, 59759, Note_on_c, 0, 53, 0
3, 59760, Note_on_c, 0, 53, 80
3, 60479, Note_on_c, 0, 53, 0
3, 60480, Note_on_c, 0, 52, 80
3, 60719, Note_on_c, 0, 52, 0
3, 60720, Note_on_c, 0, 52, 80
3, 61439, Note_on_c, 0, 52, 0
3, 61440, Note_on_c, 0, 57, 80
3, 62399, Note_on_c, 0, 57, 0
3, 62400, Note_on_c, 0, 55, 80
3, 63359, Note_on_c, 0, 55, 0
3, 63360, Note_on_c, 0, 53, 80
3, 64319, Note_on_c, 0, 53, 0
3, 64320, Note_on_c, 0, 52, 80
3, 65279, Note_on_c, 0, 52, 0
3, 65280, Note_on_c, 0, 57, 80
3, 66239, Note_on_c, 0, 57, 0
3, 66240, Note_on_c, 0, 55, 80
3, 67199, Note_on_c, 0, 55, 0
3, 67200, Note_on_c, 0, 53, 80
3, 68159, Note_on_c, 0, 53, 0
3, 68160, Note_on_c, 0, 52, 80
3, 69119, Note_on_c, 0, 52, 0
3, 69120, Note_on_c, 0, 57, 80
3, 70079, Note_on_c, 0, 57, 0
3, 70080, Note_on_c, 0, 55, 80
3, 71039, Note_on_c, 0, 55, 0
3, 71040, Note_on_c, 0, 53, 80
3, 71999, Note_on_c, 0, 53, 0
3, 72000, Note_on_c, 0, 52, 80
3, 72959, Note_on_c, 0, 52, 0
3, 72960, Note_on_c, 0, 57, 80
3, 73919, Note_on_c, 0, 57, 0
3, 73920, Note_on_c, 0, 55, 80
3, 74879, Note_on_c, 0, 55, 0
3, 74880, Note_on_c, 0, 53, 80
3, 75839, Note_on_c, 0, 53, 0
3, 75840, Note_on_c, 0, 52, 80
3, 76799, Note_on_c, 0, 52, 0
3, 76800, Note_on_c, 0, 57, 80
3, 77759, Note_on_c, 0, 57, 0
3, 77760, Note_on_c, 0, 55, 80
3, 78719, Note_on_c, 0, 55, 0
3, 78720, Note_on_c, 0, 53, 80
3, 79679, Note_on_c, 0, 53, 0
3, 79680, Note_on_c, 0, 52, 80
3, 80639, Note_on_c, 0, 52, 0
3, 80640, Note_on_c, 0, 57, 80
3, 81599, Note_on_c, 0, 57, 0
3, 81600, Note_on_c, 0, 55, 80
3, 82559, Note_on_c, 0, 55, 0
3, 82560, Note_on_c, 0, 53, 80
3, 83519, Note_on_c, 0, 53, 0
3, 83520, Note_on_c, 0, 52, 80
3, 84479, Note_on_c, 0, 52, 0
3, 84480, Note_on_c, 0, 57, 80
3, 85439, Note_on_c, 0, 57, 0
3, 85440, Note_on_c, 0, 55, 80
3, 86399, Note_on_c, 0, 55, 0
3, 86400, Note_on_c, 0, 53, 80
3, 87359, Note_on_c, 0, 53, 0
3, 87360, Note_on_c, 0, 52, 80
3, 88319, Note_on_c, 0, 52, 0
3, 88320, Note_on_c, 0, 57, 80
3, 89279, Note_on_c, 0, 57, 0
3, 89280, Note_on_c, 0, 55, 80
3, 90239, Note_on_c, 0, 55, 0
3, 90240, Note_on_c, 0, 53, 80
3, 91199, Note_on_c, 0, 53, 0
3, 91200, Note_on_c, 0, 52, 80
3, 92159, Note_on_c, 0, 52, 0
3, 92160, Note_on_c, 0, 57, 80
3, 93119, Note_on_c, 0, 57, 0
3, 93120, Note_on_c, 0, 55, 80
3, 94079, Note_on_c, 0, 55, 0
3, 94080, Note_on_c, 0, 53, 80
3, 95039, Note_on_c, 0, 53, 0
3, 95040, Note_on_c, 0, 52, 80
3, 95999, Note_on_c, 0, 52, 0
3, 96000, End_track
4, 0, Start_track
4, 0, Title_t, "Bell\000"
4, 0, Key_signature, 0, "major"
4, 0, Control_c, 6, 121, 0
4, 0, Program_c, 6, 14
4, 0, Control_c, 6, 7, 100
4, 0, Control_c, 6, 10, 64
4, 0, Control_c, 6, 91, 0
4, 0, Control_c, 6, 93, 0
4, 0, MIDI_port, 0
4, 1, End_track
5, 0, Start_track
5, 0, Title_t, "Classical Guitar, Lute\000"
5, 0, Key_signature, 0, "major"
5, 0, Control_c, 2, 121, 0
5, 0, Program_c, 2, 24
5, 0, Control_c, 2, 7, 100
5, 0, Control_c, 2, 10, 64
5, 0, Control_c, 2, 91, 0
5, 0, Control_c, 2, 93, 0
5, 0, MIDI_port, 0
5, 0, Note_on_c, 2, 57, 64
5, 0, Control_c, 5, 121, 0
5, 0, Program_c, 5, 28
5, 0, Control_c, 5, 7, 100
5, 0, Control_c, 5, 10, 64
5, 0, Control_c, 5, 91, 0
5, 0, Control_c, 5, 93, 0
5, 0, MIDI_port, 0
5, 239, Note_on_c, 2, 57, 0
5, 240, Note_on_c, 2, 60, 64
5, 479, Note_on_c, 2, 60, 0
5, 480, Note_on_c, 2, 64, 64
5, 719, Note_on_c, 2, 64, 0
5, 720, Note_on_c, 2, 60, 64
5, 959, Note_on_c, 2, 60, 0
5, 960, Note_on_c, 2, 55, 64
5, 1199, Note_on_c, 2, 55, 0
5, 1200, Note_on_c, 2, 60, 64
5, 1439, Note_on_c, 2, 60, 0
5, 1440, Note_on_c, 2, 64, 64
5, 1679, Note_on_c, 2, 64, 0
5, 1680, Note_on_c, 2, 60, 64
5, 1919, Note_on_c, 2, 60, 0
5, 1920, Note_on_c, 2, 53, 64
5, 2159, Note_on_c, 2, 53, 0
5, 2160, Note_on_c, 2, 60, 64
5, 2399, Note_on_c, 2, 60, 0
5, 2400, Note_on_c, 2, 64, 64
5, 2639, Note_on_c, 2, 64, 0
5, 2640, Note_on_c, 2, 60, 64
5, 2879, Note_on_c, 2, 60, 0
5, 2880, Note_on_c, 2, 52, 64
5, 3119, Note_on_c, 2, 52, 0
5, 3120, Note_on_c, 2, 59, 64
5, 3359, Note_on_c, 2, 59, 0
5, 3360, Note_on_c, 2, 64, 64
5, 3599, Note_on_c, 2, 64, 0
5, 3600, Note_on_c, 2, 59, 64
5, 3839, Note_on_c, 2, 59, 0
5, 3840, Note_on_c, 2, 57, 64
5, 4079, Note_on_c, 2, 57, 0
5, 4080, Note_on_c, 2, 60, 64
5, 4319, Note_on_c, 2, 60, 0
5, 4320, Note_on_c, 2, 64, 64
5, 4559, Note_on_c, 2, 64, 0
5, 4560, Note_on_c, 2, 60, 64
5, 4799, Note_on_c, 2, 60, 0
5, 4800, Note_on_c, 2, 55, 64
5, 5039, Note_on_c, 2, 55, 0
5, 5040, Note_on_c, 2, 60, 64
5, 5279, Note_on_c, 2, 60, 0
5, 5280, Note_on_c, 2, 64, 64
5, 5519, Note_on_c, 2, 64, 0
5, 5520, Note_on_c, 2, 60, 64
5, 5759, Note_on_c, 2, 60, 0
5, 5760, Note_on_c, 2, 53, 64
5, 5999, Note_on_c, 2, 53, 0
5, 6000, Note_on_c, 2, 60, 64
5, 6239, Note_on_c, 2, 60, 0
5, 6240, Note_on_c, 2, 64, 64
5, 6479, Note_on_c, 2, 64, 0
5, 6480, Note_on_c, 2, 60, 64
5, 6719, Note_on_c, 2, 60, 0
5, 6720, Note_on_c, 2, 52, 64
5, 6959, Note_on_c, 2, 52, 0
5, 6960, Note_on_c, 2, 59, 64
5, 7199, Note_on_c, 2, 59, 0
5, 7200, Note_on_c, 2, 64, 64
5, 7439, Note_on_c, 2, 64, 0
5, 7440, Note_on_c, 2, 59, 64
5, 7679, Note_on_c, 2, 59, 0
5, 7680, Note_on_c, 2, 57, 64
5, 7919, Note_on_c, 2, 57, 0
5, 7920, Note_on_c, 2, 60, 64
5, 8159, Note_on_c, 2, 60, 0
5, 8160, Note_on_c, 2, 64, 64
5, 8399, Note_on_c, 2, 64, 0
5, 8400, Note_on_c, 2, 60, 64
5, 8639, Note_on_c, 2, 60, 0
5, 8640, Note_on_c, 2, 55, 64
5, 8879, Note_on_c, 2, 55, 0
5, 8880, Note_on_c, 2, 60, 64
5, 9119, Note_on_c, 2, 60, 0
5, 9120, Note_on_c, 2, 64, 64
5, 9359, Note_on_c, 2, 64, 0
5, 9360, Note_on_c, 2, 60, 64
5, 9599, Note_on_c, 2, 60, 0
5, 9600, Note_on_c, 2, 53, 64
5, 9839, Note_on_c, 2, 53, 0
5, 9840, Note_on_c, 2, 60, 64
5, 10079, Note_on_c, 2, 60, 0
5, 10080, Note_on_c, 2, 64, 64
5, 10319, Note_on_c, 2, 64, 0
5, 10320, Note_on_c, 2, 60, 64
5, 10559, Note_on_c, 2, 60, 0
5, 10560, Note_on_c, 2, 52, 64
5, 10799, Note_on_c, 2, 52, 0
5, 10800, Note_on_c, 2, 59, 64
5, 11039, Note_on_c, 2, 59, 0
5, 11040, Note_on_c, 2, 64, 64
5, 11279, Note_on_c, 2, 64, 0
5, 11280, Note_on_c, 2, 59, 64
5, 11519, Note_on_c, 2, 59, 0
5, 11520, Note_on_c, 2, 57, 64
5, 11759, Note_on_c, 2, 57, 0
5, 11760, Note_on_c, 2, 60, 64
5, 11999, Note_on_c, 2, 60, 0
5, 12000, Note_on_c, 2, 64, 64
5, 12239, Note_on_c, 2, 64, 0
5, 12240, Note_on_c, 2, 60, 64
5, 12479, Note_on_c, 2, 60, 0
5, 12480, Note_on_c, 2, 55, 64
5, 12719, Note_on_c, 2, 55, 0
5, 12720, Note_on_c, 2, 60, 64
5, 12959, Note_on_c, 2, 60, 0
5, 12960, Note_on_c, 2, 64, 64
5, 13199, Note_on_c, 2, 64, 0
5, 13200, Note_on_c, 2, 60, 64
5, 13439, Note_on_c, 2, 60, 0
5, 13440, Note_on_c, 2, 53, 64
5, 13679, Note_on_c, 2, 53, 0
5, 13680, Note_on_c, 2, 60, 64
5, 13919, Note_on_c, 2, 60, 0
5, 13920, Note_on_c, 2, 64, 64
5, 14159, Note_on_c, 2, 64, 0
5, 14160, Note_on_c, 2, 60, 64
5, 14399, Note_on_c, 2, 60, 0
5, 14400, Note_on_c, 2, 52, 64
5, 14639, Note_on_c, 2, 52, 0
5, 14640, Note_on_c, 2, 59, 64
5, 14879, Note_on_c, 2, 59, 0
5, 14880, Note_on_c, 2, 64, 64
5, 15119, Note_on_c, 2, 64, 0
5, 15120, Note_on_c, 2, 59, 64
5, 15359, Note_on_c, 2, 59, 0
5, 15360, Note_on_c, 2, 57, 64
5, 15599, Note_on_c, 2, 57, 0
5, 15600, Note_on_c, 2, 60, 64
5, 15839, Note_on_c, 2, 60, 0
5, 15840, Note_on_c, 2, 64, 64
5, 16079, Note_on_c, 2, 64, 0
5, 16080, Note_on_c, 2, 60, 64
5, 16319, Note_on_c, 2, 60, 0
5, 16320, Note_on_c, 2, 55, 64
5, 16559, Note_on_c, 2, 55, 0
5, 16560, Note_on_c, 2, 60, 64
5, 16799, Note_on_c, 2, 60, 0
5, 16800, Note_on_c, 2, 64, 64
5, 17039, Note_on_c, 2, 64, 0
5, 17040, Note_on_c, 2, 60, 64
5, 17279, Note_on_c, 2, 60, 0
5, 17280, Note_on_c, 2, 53, 64
5, 17519, Note_on_c, 2, 53, 0
5, 17520, Note_on_c, 2, 60, 64
5, 17759, Note_on_c, 2, 60, 0
5, 17760, Note_on_c, 2, 64, 64
5, 17999, Note_on_c, 2, 64, 0
5, 18000, Note_on_c, 2, 60, 64
5, 18239, Note_on_c, 2, 60, 0
5, 18240, Note_on_c, 2, 52, 64
5, 18479, Note_on_c, 2, 52, 0
5, 18480, Note_on_c, 2, 59, 64
5, 18719, Note_on_c, 2, 59, 0
5, 18720, Note_on_c, 2, 64, 64
5, 18959, Note_on_c, 2, 64, 0
5, 18960, Note_on_c, 2, 59, 64
5, 19199, Note_on_c, 2, 59, 0
5, 19200, Note_on_c, 2, 57, 64
5, 19439, Note_on_c, 2, 57, 0
5, 19440, Note_on_c, 2, 60, 64
5, 19679, Note_on_c, 2, 60, 0
5, 19680, Note_on_c, 2, 64, 64
5, 19919, Note_on_c, 2, 64, 0
5, 19920, Note_on_c, 2, 60, 64
5, 20159, Note_on_c, 2, 60, 0
5, 20160, Note_on_c, 2, 55, 64
5, 20399, Note_on_c, 2, 55, 0
5, 20400, Note_on_c, 2, 60, 64
5, 20639, Note_on_c, 2, 60, 0
5, 20640, Note_on_c, 2, 64, 64
5, 20879, Note_on_c, 2, 64, 0
5, 20880, Note_on_c, 2, 60, 64
5, 21119, Note_on_c, 2, 60, 0
5, 21120, Note_on_c, 2, 53, 64
5, 21359, Note_on_c, 2, 53, 0
5, 21360, Note_on_c, 2, 60, 64
5, 21599, Note_on_c, 2, 60, 0
5, 21600, Note_on_c, 2, 64, 64
5, 21839, Note_on_c, 2, 64, 0
5, 21840, Note_on_c, 2, 60, 64
5, 22079, Note_on_c, 2, 60, 0
5, 22080, Note_on_c, 2, 52, 64
5, 22319, Note_on_c, 2, 52, 0
5, 22320, Note_on_c, 2, 59, 64
5, 22559, Note_on_c, 2, 59, 0
5, 22560, Note_on_c, 2, 64, 64
5, 22799, Note_on_c, 2, 64, 0
5, 22800, Note_on_c, 2, 59, 64
5, 23039, Note_on_c, 2, 59, 0
5, 23040, Note_on_c, 2, 57, 64
5, 23279, Note_on_c, 2, 57, 0
5, 23280, Note_on_c, 2, 60, 64
5, 23519, Note_on_c, 2, 60, 0
5, 23520, Note_on_c, 2, 64, 64
5, 23759, Note_on_c, 2, 64, 0
5, 23760, Note_on_c, 2, 60, 64
5, 23999, Note_on_c, 2, 60, 0
5, 24000, Note_on_c, 2, 55, 64
5, 24239, Note_on_c, 2, 55, 0
5, 24240, Note_on_c, 2, 60, 64
5, 24479, Note_on_c, 2, 60, 0
5, 24480, Note_on_c, 2, 64, 64
5, 24719, Note_on_c, 2, 64, 0
5, 24720, Note_on_c, 2, 60, 64
5, 24959, Note_on_c, 2, 60, 0
5, 24960, Note_on_c, 2, 53, 64
5, 25199, Note_on_c, 2, 53, 0
5, 25200, Note_on_c, 2, 60, 64
5, 25439, Note_on_c, 2, 60, 0
5, 25440, Note_on_c, 2, 64, 64
5, 25679, Note_on_c, 2, 64, 0
5, 25680, Note_on_c, 2, 60, 64
5, 25919, Note_on_c, 2, 60, 0
5, 25920, Note_on_c, 2, 52, 64
5, 26159, Note_on_c, 2, 52, 0
5, 26160, Note_on_c, 2, 59, 64
5, 26399, Note_on_c, 2, 59, 0
5, 26400, Note_on_c, 2, 64, 64
5, 26639, Note_on_c, 2, 64, 0
5, 26640, Note_on_c, 2, 59, 64
5, 26879, Note_on_c, 2, 59, 0
5, 26880, Note_on_c, 2, 57, 64
5, 27119, Note_on_c, 2, 57, 0
5, 27120, Note_on_c, 2, 60, 64
5, 27359, Note_on_c, 2, 60, 0
5, 27360, Note_on_c, 2, 64, 64
5, 27599, Note_on_c, 2, 64, 0
5, 27600, Note_on_c, 2, 60, 64
5, 27839, Note_on_c, 2, 60, 0
5, 27840, Note_on_c, 2, 55, 64
5, 28079, Note_on_c, 2, 55, 0
5, 28080, Note_on_c, 2, 60, 64
5, 28319, Note_on_c, 2, 60, 0
5, 28320, Note_on_c, 2, 64, 64
5, 28559, Note_on_c, 2, 64, 0
5, 28560, Note_on_c, 2, 60, 64
5, 28799, Note_on_c, 2, 60, 0
5, 28800, Note_on_c, 2, 53, 64
5, 29039, Note_on_c, 2, 53, 0
5, 29040, Note_on_c, 2, 60, 64
5, 29279, Note_on_c, 2, 60, 0
5, 29280, Note_on_c, 2, 64, 64
5, 29519, Note_on_c, 2, 64, 0
5, 29520, Note_on_c, 2, 60, 64
5, 29759, Note_on_c, 2, 60, 0
5, 29760, Note_on_c, 2, 52, 64
5, 29999, Note_on_c, 2, 52, 0
5, 30000, Note_on_c, 2, 59, 64
5, 30239, Note_on_c, 2, 59, 0
5, 30240, Note_on_c, 2, 64, 64
5, 30479, Note_on_c, 2, 64, 0
5, 30480, Note_on_c, 2, 59, 64
5, 30719, Note_on_c, 2, 59, 0
5, 30720, Note_on_c, 2, 57, 64
5, 30959, Note_on_c, 2, 57, 0
5, 30960, Note_on_c, 2, 60, 64
5, 31199, Note_on_c, 2, 60, 0
5, 31200, Note_on_c, 2, 64, 64
5, 31439, Note_on_c, 2, 64, 0
5, 31440, Note_on_c, 2, 60, 64
5, 31679, Note_on_c, 2, 60, 0
5, 31680, Note_on_c, 2, 55, 64
5, 31919, Note_on_c, 2, 55, 0
5, 31920, Note_on_c, 2, 60, 64
5, 32159, Note_on_c, 2, 60, 0
5, 32160, Note_on_c, 2, 64, 64
5, 32399, Note_on_c, 2, 64, 0
5, 32400, Note_on_c, 2, 60, 64
5, 32639, Note_on_c, 2, 60, 0
5, 32640, Note_on_c, 2, 53, 64
5, 32879, Note_on_c, 2, 53, 0
5, 32880, Note_on_c, 2, 60, 64
5, 33119, Note_on_c, 2, 60, 0
5, 33120, Note_on_c, 2, 64, 64
5, 33359, Note_on_c, 2, 64, 0
5, 33360, Note_on_c, 2, 60, 64
5, 33599, Note_on_c, 2, 60, 0
5, 33600, Note_on_c, 2, 52, 64
5, 33839, Note_on_c, 2, 52, 0
5, 33840, Note_on_c, 2, 59, 64
5, 34079, Note_on_c, 2, 59, 0
5, 34080, Note_on_c, 2, 64, 64
5, 34319, Note_on_c, 2, 64, 0
5, 34320, Note_on_c, 2, 59, 64
5, 34559, Note_on_c, 2, 59, 0
5, 34560, Note_on_c, 2, 57, 64
5, 34799, Note_on_c, 2, 57, 0
5, 34800, Note_on_c, 2, 60, 64
5, 35039, Note_on_c, 2, 60, 0
5, 35040, Note_on_c, 2, 64, 64
5, 35279, Note_on_c, 2, 64, 0
5, 35280, Note_on_c, 2, 60, 64
5, 35519, Note_on_c, 2, 60, 0
5, 35520, Note_on_c, 2, 55, 64
5, 35759, Note_on_c, 2, 55, 0
5, 35760, Note_on_c, 2, 60, 64
5, 35999, Note_on_c, 2, 60, 0
5, 36000, Note_on_c, 2, 64, 64
5, 36239, Note_on_c, 2, 64, 0
5, 36240, Note_on_c, 2, 60, 64
5, 36479, Note_on_c, 2, 60, 0
5, 36480, Note_on_c, 2, 53, 64
5, 36719, Note_on_c, 2, 53, 0
5, 36720, Note_on_c, 2, 60, 64
5, 36959, Note_on_c, 2, 60, 0
5, 36960, Note_on_c, 2, 64, 64
5, 37199, Note_on_c, 2, 64, 0
5, 37200, Note_on_c, 2, 60, 64
5, 37439, Note_on_c, 2, 60, 0
5, 37440, Note_on_c, 2, 52, 64
5, 37679, Note_on_c, 2, 52, 0
5, 37680, Note_on_c, 2, 59, 64
5, 37919, Note_on_c, 2, 59, 0
5, 37920, Note_on_c, 2, 64, 64
5, 38159, Note_on_c, 2, 64, 0
5, 38160, Note_on_c, 2, 59, 64
5, 38399, Note_on_c, 2, 59, 0
5, 38400, Note_on_c, 2, 57, 64
5, 38639, Note_on_c, 2, 57, 0
5, 38640, Note_on_c, 2, 60, 64
5, 38879, Note_on_c, 2, 60, 0
5, 38880, Note_on_c, 2, 64, 64
5, 39119, Note_on_c, 2, 64, 0
5, 39120, Note_on_c, 2, 60, 64
5, 39359, Note_on_c, 2, 60, 0
5, 39360, Note_on_c, 2, 55, 64
5, 39599, Note_on_c, 2, 55, 0
5, 39600, Note_on_c, 2, 60, 64
5, 39839, Note_on_c, 2, 60, 0
5, 39840, Note_on_c, 2, 64, 64
5, 40079, Note_on_c, 2, 64, 0
5, 40080, Note_on_c, 2, 60, 64
5, 40319, Note_on_c, 2, 60, 0
5, 40320, Note_on_c, 2, 53, 64
5, 40559, Note_on_c, 2, 53, 0
5, 40560, Note_on_c, 2, 60, 64
5, 40799, Note_on_c, 2, 60, 0
5, 40800, Note_on_c, 2, 64, 64
5, 41039, Note_on_c, 2, 64, 0
5, 41040, Note_on_c, 2, 60, 64
5, 41279, Note_on_c, 2, 60, 0
5, 41280, Note_on_c, 2, 52, 64
5, 41519, Note_on_c, 2, 52, 0
5, 41520, Note_on_c, 2, 59, 64
5, 41759, Note_on_c, 2, 59, 0
5, 41760, Note_on_c, 2, 64, 64
5, 41999, Note_on_c, 2, 64, 0
5, 42000, Note_on_c, 2, 59, 64
5, 42239, Note_on_c, 2, 59, 0
5, 42240, Note_on_c, 2, 57, 64
5, 42479, Note_on_c, 2, 57, 0
5, 42480, Note_on_c, 2, 60, 64
5, 42719, Note_on_c, 2, 60, 0
5, 42720, Note_on_c, 2, 64, 64
5, 42959, Note_on_c, 2, 64, 0
5, 42960, Note_on_c, 2, 60, 64
5, 43199, Note_on_c, 2, 60, 0
5, 43200, Note_on_c, 2, 55, 64
5, 43439, Note_on_c, 2, 55, 0
5, 43440, Note_on_c, 2, 60, 64
5, 43679, Note_on_c, 2, 60, 0
5, 43680, Note_on_c, 2, 64, 64
5, 43919, Note_on_c, 2, 64, 0
5, 43920, Note_on_c, 2, 60, 64
5, 44159, Note_on_c, 2, 60, 0
5, 44160, Note_on_c, 2, 53, 64
5, 44399, Note_on_c, 2, 53, 0
5, 44400, Note_on_c, 2, 60, 64
5, 44639, Note_on_c, 2, 60, 0
5, 44640, Note_on_c, 2, 64, 64
5, 44879, Note_on_c, 2, 64, 0
5, 44880, Note_on_c, 2, 60, 64
5, 45119, Note_on_c, 2, 60, 0
5, 45120, Note_on_c, 2, 52, 64
5, 45359, Note_on_c, 2, 52, 0
5, 45360, Note_on_c, 2, 59, 64
5, 45599, Note_on_c, 2, 59, 0
5, 45600, Note_on_c, 2, 64, 64
5, 45839, Note_on_c, 2, 64, 0
5, 45840, Note_on_c, 2, 59, 64
5, 46079, Note_on_c, 2, 59, 0
5, 46080, Note_on_c, 2, 57, 64
5, 46319, Note_on_c, 2, 57, 0
5, 46320, Note_on_c, 2, 60, 64
5, 46559, Note_on_c, 2, 60, 0
5, 46560, Note_on_c, 2, 64, 64
5, 46799, Note_on_c, 2, 64, 0
5, 46800, Note_on_c, 2, 60, 64
5, 47039, Note_on_c, 2, 60, 0
5, 47040, Note_on_c, 2, 55, 64
5, 47279, Note_on_c, 2, 55, 0
5, 47280, Note_on_c, 2, 60, 64
5, 47519, Note_on_c, 2, 60, 0
5, 47520, Note_on_c, 2, 64, 64
5, 47759, Note_on_c, 2, 64, 0
5, 47760, Note_on_c, 2, 60, 64
5, 47999, Note_on_c, 2, 60, 0
5, 48000, Note_on_c, 2, 53, 64
5, 48239, Note_on_c, 2, 53, 0
5, 48240, Note_on_c, 2, 60, 64
5, 48479, Note_on_c, 2, 60, 0
5, 48480, Note_on_c, 2, 64, 64
5, 48719, Note_on_c, 2, 64, 0
5, 48720, Note_on_c, 2, 60, 64
5, 48959, Note_on_c, 2, 60, 0
5, 48960, Note_on_c, 2, 52, 64
5, 49199, Note_on_c, 2, 52, 0
5, 49200, Note_on_c, 2, 59, 64
5, 49439, Note_on_c, 2, 59, 0
5, 49440, Note_on_c, 2, 64, 64
5, 49679, Note_on_c, 2, 64, 0
5, 49680, Note_on_c, 2, 59, 64
5, 49919, Note_on_c, 2, 59, 0
5, 49920, Note_on_c, 2, 57, 64
5, 50159, Note_on_c, 2, 57, 0
5, 50160, Note_on_c, 2, 60, 64
5, 50399, Note_on_c, 2, 60, 0
5, 50400, Note_on_c, 2, 64, 64
5, 50639, Note_on_c, 2, 64, 0
5, 50640, Note_on_c, 2, 60, 64
5, 50879, Note_on_c, 2, 60, 0
5, 50880, Note_on_c, 2, 55, 64
5, 51119, Note_on_c, 2, 55, 0
5, 51120, Note_on_c, 2, 60, 64
5, 51359, Note_on_c, 2, 60, 0
5, 51360, Note_on_c, 2, 64, 64
5, 51599, Note_on_c, 2, 64, 0
5, 51600, Note_on_c, 2, 60, 64
5, 51839, Note_on_c, 2, 60, 0
5, 51840, Note_on_c, 2, 53, 64
5, 52079, Note_on_c, 2, 53, 0
5, 52080, Note_on_c, 2, 60, 64
5, 52319, Note_on_c, 2, 60, 0
5, 52320, Note_on_c, 2, 64, 64
5, 52559, Note_on_c, 2, 64, 0
5, 52560, Note_on_c, 2, 60, 64
5, 52799, Note_on_c, 2, 60, 0
5, 52800, Note_on_c, 2, 52, 64
5, 53039, Note_on_c, 2, 52, 0
5, 53040, Note_on_c, 2, 59, 64
5, 53279, Note_on_c, 2, 59, 0
5, 53280, Note_on_c, 2, 64, 64
5, 53519, Note_on_c, 2, 64, 0
5, 53520, Note_on_c, 2, 59, 64
5, 53759, Note_on_c, 2, 59, 0
5, 53760, Note_on_c, 2, 57, 64
5, 53999, Note_on_c, 2, 57, 0
5, 54000, Note_on_c, 2, 60, 64
5, 54239, Note_on_c, 2, 60, 0
5, 54240, Note_on_c, 2, 64, 64
5, 54479, Note_on_c, 2, 64, 0
5, 54480, Note_on_c, 2, 60, 64
5, 54719, Note_on_c, 2, 60, 0
5, 54720, Note_on_c, 2, 55, 64
5, 54959, Note_on_c, 2, 55, 0
5, 54960, Note_on_c, 2, 60, 64
5, 55199, Note_on_c, 2, 60, 0
5, 55200, Note_on_c, 2, 64, 64
5, 55439, Note_on_c, 2, 64, 0
5, 55440, Note_on_c, 2, 60, 64
5, 55679, Note_on_c, 2, 60, 0
5, 55680, Note_on_c, 2, 53, 64
5, 55919, Note_on_c, 2, 53, 0
5, 55920, Note_on_c, 2, 60, 64
5, 56159, Note_on_c, 2, 60, 0
5, 56160, Note_on_c, 2, 64, 64
5, 56399, Note_on_c, 2, 64, 0
5, 56400, Note_on_c, 2, 60, 64
5, 56639, Note_on_c, 2, 60, 0
5, 56640, Note_on_c, 2, 52, 64
5, 56879, Note_on_c, 2, 52, 0
5, 56880, Note_on_c, 2, 59, 64
5, 57119, Note_on_c, 2, 59, 0
5, 57120, Note_on_c, 2, 64, 64
5, 57359, Note_on_c, 2, 64, 0
5, 57360, Note_on_c, 2, 60, 64
5, 57599, Note_on_c, 2, 60, 0
5, 57600, Note_on_c, 2, 57, 64
5, 57839, Note_on_c, 2, 57, 0
5, 57840, Note_on_c, 2, 60, 64
5, 58079, Note_on_c, 2, 60, 0
5, 58080, Note_on_c, 2, 64, 64
5, 58319, Note_on_c, 2, 64, 0
5, 58320, Note_on_c, 2, 60, 64
5, 58559, Note_on_c, 2, 60, 0
5, 58560, Note_on_c, 2, 55, 64
5, 58799, Note_on_c, 2, 55, 0
5, 58800, Note_on_c, 2, 60, 64
5, 59039, Note_on_c, 2, 60, 0
5, 59040, Note_on_c, 2, 64, 64
5, 59279, Note_on_c, 2, 64, 0
5, 59280, Note_on_c, 2, 60, 64
5, 59519, Note_on_c, 2, 60, 0
5, 59520, Note_on_c, 2, 53, 64
5, 59759, Note_on_c, 2, 53, 0
5, 59760, Note_on_c, 2, 60, 64
5, 59999, Note_on_c, 2, 60, 0
5, 60000, Note_on_c, 2, 64, 64
5, 60239, Note_on_c, 2, 64, 0
5, 60240, Note_on_c, 2, 60, 64
5, 60479, Note_on_c, 2, 60, 0
5, 60480, Note_on_c, 2, 52, 64
5, 60719, Note_on_c, 2, 52, 0
5, 60720, Note_on_c, 2, 59, 64
5, 60959, Note_on_c, 2, 59, 0
5, 60960, Note_on_c, 2, 64, 64
5, 61199, Note_on_c, 2, 64, 0
5, 61200, Note_on_c, 2, 60, 64
5, 61439, Note_on_c, 2, 60, 0
5, 61440, Note_on_c, 2, 57, 64
5, 61679, Note_on_c, 2, 57, 0
5, 61680, Note_on_c, 2, 60, 64
5, 61919, Note_on_c, 2, 60, 0
5, 61920, Note_on_c, 2, 64, 64
5, 62159, Note_on_c, 2, 64, 0
5, 62160, Note_on_c, 2, 60, 64
5, 62399, Note_on_c, 2, 60, 0
5, 62400, Note_on_c, 2, 55, 64
5, 62639, Note_on_c, 2, 55, 0
5, 62640, Note_on_c, 2, 60, 64
5, 62879, Note_on_c, 2, 60, 0
5, 62880, Note_on_c, 2, 64, 64
5, 63119, Note_on_c, 2, 64, 0
5, 63120, Note_on_c, 2, 60, 64
5, 63359, Note_on_c, 2, 60, 0
5, 63360, Note_on_c, 2, 53, 64
5, 63599, Note_on_c, 2, 53, 0
5, 63600, Note_on_c, 2, 60, 64
5, 63839, Note_on_c, 2, 60, 0
5, 63840, Note_on_c, 2, 64, 64
5, 64079, Note_on_c, 2, 64, 0
5, 64080, Note_on_c, 2, 60, 64
5, 64319, Note_on_c, 2, 60, 0
5, 64320, Note_on_c, 2, 52, 64
5, 64559, Note_on_c, 2, 52, 0
5, 64560, Note_on_c, 2, 59, 64
5, 64799, Note_on_c, 2, 59, 0
5, 64800, Note_on_c, 2, 64, 64
5, 65039, Note_on_c, 2, 64, 0
5, 65040, Note_on_c, 2, 60, 64
5, 65279, Note_on_c, 2, 60, 0
5, 65280, Note_on_c, 2, 57, 64
5, 65519, Note_on_c, 2, 57, 0
5, 65520, Note_on_c, 2, 60, 64
5, 65759, Note_on_c, 2, 60, 0
5, 65760, Note_on_c, 2, 64, 64
5, 65999, Note_on_c, 2, 64, 0
5, 66000, Note_on_c, 2, 60, 64
5, 66239, Note_on_c, 2, 60, 0
5, 66240, Note_on_c, 2, 55, 64
5, 66479, Note_on_c, 2, 55, 0
5, 66480, Note_on_c, 2, 60, 64
5, 66719, Note_on_c, 2, 60, 0
5, 66720, Note_on_c, 2, 64, 64
5, 66959, Note_on_c, 2, 64, 0
5, 66960, Note_on_c, 2, 60, 64
5, 67199, Note_on_c, 2, 60, 0
5, 67200, Note_on_c, 2, 53, 64
5, 67439, Note_on_c, 2, 53, 0
5, 67440, Note_on_c, 2, 60, 64
5, 67679, Note_on_c, 2, 60, 0
5, 67680, Note_on_c, 2, 64, 64
5, 67919, Note_on_c, 2, 64, 0
5, 67920, Note_on_c, 2, 60, 64
5, 68159, Note_on_c, 2, 60, 0
5, 68160, Note_on_c, 2, 52, 64
5, 68399, Note_on_c, 2, 52, 0
5, 68400, Note_on_c, 2, 59, 64
5, 68639, Note_on_c, 2, 59, 0
5, 68640, Note_on_c, 2, 64, 64
5, 68879, Note_on_c, 2, 64, 0
5, 68880, Note_on_c, 2, 60, 64
5, 69119, Note_on_c, 2, 60, 0
5, 69120, Note_on_c, 2, 57, 64
5, 69359, Note_on_c, 2, 57, 0
5, 69360, Note_on_c, 2, 60, 64
5, 69599, Note_on_c, 2, 60, 0
5, 69600, Note_on_c, 2, 64, 64
5, 69839, Note_on_c, 2, 64, 0
5, 69840, Note_on_c, 2, 60, 64
5, 70079, Note_on_c, 2, 60, 0
5, 70080, Note_on_c, 2, 55, 64
5, 70319, Note_on_c, 2, 55, 0
5, 70320, Note_on_c, 2, 60, 64
5, 70559, Note_on_c, 2, 60, 0
5, 70560, Note_on_c, 2, 64, 64
5, 70799, Note_on_c, 2, 64, 0
5, 70800, Note_on_c, 2, 60, 64
5, 71039, Note_on_c, 2, 60, 0
5, 71040, Note_on_c, 2, 53, 64
5, 71279, Note_on_c, 2, 53, 0
5, 71280, Note_on_c, 2, 60, 64
5, 71519, Note_on_c, 2, 60, 0
5, 71520, Note_on_c, 2, 64, 64
5, 71759, Note_on_c, 2, 64, 0
5, 71760, Note_on_c, 2, 60, 64
5, 71999, Note_on_c, 2, 60, 0
5, 72000, Note_on_c, 2, 52, 64
5, 72239, Note_on_c, 2, 52, 0
5, 72240, Note_on_c, 2, 59, 64
5, 72479, Note_on_c, 2, 59, 0
5, 72480, Note_on_c, 2, 64, 64
5, 72719, Note_on_c, 2, 64, 0
5, 72720, Note_on_c, 2, 60, 64
5, 72959, Note_on_c, 2, 60, 0
5, 72960, Note_on_c, 2, 57, 64
5, 73199, Note_on_c, 2, 57, 0
5, 73200, Note_on_c, 2, 60, 64
5, 73439, Note_on_c, 2, 60, 0
5, 73440, Note_on_c, 2, 64, 64
5, 73679, Note_on_c, 2, 64, 0
5, 73680, Note_on_c, 2, 60, 64
5, 73919, Note_on_c, 2, 60, 0
5, 73920, Note_on_c, 2, 55, 64
5, 74159, Note_on_c, 2, 55, 0
5, 74160, Note_on_c, 2, 60, 64
5, 74399, Note_on_c, 2, 60, 0
5, 74400, Note_on_c, 2, 64, 64
5, 74639, Note_on_c, 2, 64, 0
5, 74640, Note_on_c, 2, 60, 64
5, 74879, Note_on_c, 2, 60, 0
5, 74880, Note_on_c, 2, 53, 64
5, 75119, Note_on_c, 2, 53, 0
5, 75120, Note_on_c, 2, 60, 64
5, 75359, Note_on_c, 2, 60, 0
5, 75360, Note_on_c, 2, 64, 64
5, 75599, Note_on_c, 2, 64, 0
5, 75600, Note_on_c, 2, 60, 64
5, 75839, Note_on_c, 2, 60, 0
5, 75840, Note_on_c, 2, 52, 64
5, 76079, Note_on_c, 2, 52, 0
5, 76080, Note_on_c, 2, 59, 64
5, 76319, Note_on_c, 2, 59, 0
5, 76320, Note_on_c, 2, 64, 64
5, 76559, Note_on_c, 2, 64, 0
5, 76560, Note_on_c, 2, 60, 64
5, 76799, Note_on_c, 2, 60, 0
5, 76800, Note_on_c, 2, 57, 64
5, 77039, Note_on_c, 2, 57, 0
5, 77040, Note_on_c, 2, 60, 64
5, 77279, Note_on_c, 2, 60, 0
5, 77280, Note_on_c, 2, 64, 64
5, 77519, Note_on_c, 2, 64, 0
5, 77520, Note_on_c, 2, 60, 64
5, 77759, Note_on_c, 2, 60, 0
5, 77760, Note_on_c, 2, 55, 64
5, 77999, Note_on_c, 2, 55, 0
5, 78000, Note_on_c, 2, 60, 64
5, 78239, Note_on_c, 2, 60, 0
5, 78240, Note_on_c, 2, 64, 64
5, 78479, Note_on_c, 2, 64, 0
5, 78480, Note_on_c, 2, 60, 64
5, 78719, Note_on_c, 2, 60, 0
5, 78720, Note_on_c, 2, 53, 64
5, 78959, Note_on_c, 2, 53, 0
5, 78960, Note_on_c, 2, 60, 64
5, 79199, Note_on_c, 2, 60, 0
5, 79200, Note_on_c, 2, 64, 64
5, 79439, Note_on_c, 2, 64, 0
5, 79440, Note_on_c, 2, 60, 64
5, 79679, Note_on_c, 2, 60, 0
5, 79680, Note_on_c, 2, 52, 64
5, 79919, Note_on_c, 2, 52, 0
5, 79920, Note_on_c, 2, 59, 64
5, 80159, Note_on_c, 2, 59, 0
5, 80160, Note_on_c, 2, 64, 64
5, 80399, Note_on_c, 2, 64, 0
5, 80400, Note_on_c, 2, 60, 64
5, 80639, Note_on_c, 2, 60, 0
5, 80640, Note_on_c, 2, 57, 64
5, 80879, Note_on_c, 2, 57, 0
5, 80880, Note_on_c, 2, 60, 64
5, 81119, Note_on_c, 2, 60, 0
5, 81120, Note_on_c, 2, 64, 64
5, 81359, Note_on_c, 2, 64, 0
5, 81360, Note_on_c, 2, 60, 64
5, 81599, Note_on_c, 2, 60, 0
5, 81600, Note_on_c, 2, 55, 64
5, 81839, Note_on_c, 2, 55, 0
5, 81840, Note_on_c, 2, 60, 64
5, 82079, Note_on_c, 2, 60, 0
5, 82080, Note_on_c, 2, 64, 64
5, 82319, Note_on_c, 2, 64, 0
5, 82320, Note_on_c, 2, 60, 64
5, 82559, Note_on_c, 2, 60, 0
5, 82560, Note_on_c, 2, 53, 64
5, 82799, Note_on_c, 2, 53, 0
5, 82800, Note_on_c, 2, 60, 64
5, 83039, Note_on_c, 2, 60, 0
5, 83040, Note_on_c, 2, 64, 64
5, 83279, Note_on_c, 2, 64, 0
5, 83280, Note_on_c, 2, 60, 64
5, 83519, Note_on_c, 2, 60, 0
5, 83520, Note_on_c, 2, 52, 64
5, 83759, Note_on_c, 2, 52, 0
5, 83760, Note_on_c, 2, 59, 64
5, 83999, Note_on_c, 2, 59, 0
5, 84000, Note_on_c, 2, 64, 64
5, 84239, Note_on_c, 2, 64, 0
5, 84240, Note_on_c, 2, 60, 64
5, 84479, Note_on_c, 2, 60, 0
5, 84480, Note_on_c, 2, 57, 64
5, 84719, Note_on_c, 2, 57, 0
5, 84720, Note_on_c, 2, 60, 64
5, 84959, Note_on_c, 2, 60, 0
5, 84960, Note_on_c, 2, 64, 64
5, 85199, Note_on_c, 2, 64, 0
5, 85200, Note_on_c, 2, 60, 64
5, 85439, Note_on_c, 2, 60, 0
5, 85440, Note_on_c, 2, 55, 64
5, 85679, Note_on_c, 2, 55, 0
5, 85680, Note_on_c, 2, 60, 64
5, 85919, Note_on_c, 2, 60, 0
5, 85920, Note_on_c, 2, 64, 64
5, 86159, Note_on_c, 2, 64, 0
5, 86160, Note_on_c, 2, 60, 64
5, 86399, Note_on_c, 2, 60, 0
5, 86400, Note_on_c, 2, 53, 64
5, 86639, Note_on_c, 2, 53, 0
5, 86640, Note_on_c, 2, 60, 64
5, 86879, Note_on_c, 2, 60, 0
5, 86880, Note_on_c, 2, 64, 64
5, 87119, Note_on_c, 2, 64, 0
5, 87120, Note_on_c, 2, 60, 64
5, 87359, Note_on_c, 2, 60, 0
5, 87360, Note_on_c, 2, 52, 64
5, 87599, Note_on_c, 2, 52, 0
5, 87600, Note_on_c, 2, 59, 64
5, 87839, Note_on_c, 2, 59, 0
5, 87840, Note_on_c, 2, 64, 64
5, 88079, Note_on_c, 2, 64, 0
5, 88080, Note_on_c, 2, 60, 64
5, 88319, Note_on_c, 2, 60, 0
5, 88320, Note_on_c, 2, 57, 64
5, 88559, Note_on_c, 2, 57, 0
5, 88560, Note_on_c, 2, 60, 64
5, 88799, Note_on_c, 2, 60, 0
5, 88800, Note_on_c, 2, 64, 64
5, 89039, Note_on_c, 2, 64, 0
5, 89040, Note_on_c, 2, 60, 64
5, 89279, Note_on_c, 2, 60, 0
5, 89280, Note_on_c, 2, 55, 64
5, 89519, Note_on_c, 2, 55, 0
5, 89520, Note_on_c, 2, 60, 64
5, 89759, Note_on_c, 2, 60, 0
5, 89760, Note_on_c, 2, 64, 64
5, 89999, Note_on_c, 2, 64, 0
5, 90000, Note_on_c, 2, 60, 64
5, 90239, Note_on_c, 2, 60, 0
5, 90240, Note_on_c, 2, 53, 64
5, 90479, Note_on_c, 2, 53, 0
5, 90480, Note_on_c, 2, 60, 64
5, 90719, Note_on_c, 2, 60, 0
5, 90720, Note_on_c, 2, 64, 64
5, 90959, Note_on_c, 2, 64, 0
5, 90960, Note_on_c, 2, 60, 64
5, 91199, Note_on_c, 2, 60, 0
5, 91200, Note_on_c, 2, 52, 64
5, 91439, Note_on_c, 2, 52, 0
5, 91440, Note_on_c, 2, 59, 64
5, 91679, Note_on_c, 2, 59, 0
5, 91680, Note_on_c, 2, 64, 64
5, 91919, Note_on_c, 2, 64, 0
5, 91920, Note_on_c, 2, 60, 64
5, 92159, Note_on_c, 2, 60, 0
5, 92160, Note_on_c, 2, 57, 64
5, 92399, Note_on_c, 2, 57, 0
5, 92400, Note_on_c, 2, 60, 64
5, 92639, Note_on_c, 2, 60, 0
5, 92640, Note_on_c, 2, 64, 64
5, 92879, Note_on_c, 2, 64, 0
5, 92880, Note_on_c, 2, 60, 64
5, 93119, Note_on_c, 2, 60, 0
5, 93120, Note_on_c, 2, 55, 64
5, 93359, Note_on_c, 2, 55, 0
5, 93360, Note_on_c, 2, 60, 64
5, 93599, Note_on_c, 2, 60, 0
5, 93600, Note_on_c, 2, 64, 64
5, 93839, Note_on_c, 2, 64, 0
5, 93840, Note_on_c, 2, 60, 64
5, 94079, Note_on_c, 2, 60, 0
5, 94080, Note_on_c, 2, 53, 64
5, 94319, Note_on_c, 2, 53, 0
5, 94320, Note_on_c, 2, 60, 64
5, 94559, Note_on_c, 2, 60, 0
5, 94560, Note_on_c, 2, 64, 64
5, 94799, Note_on_c, 2, 64, 0
5, 94800, Note_on_c, 2, 60, 64
5, 95039, Note_on_c, 2, 60, 0
5, 95040, Note_on_c, 2, 52, 64
5, 95279, Note_on_c, 2, 52, 0
5, 95280, Note_on_c, 2, 59, 64
5, 95519, Note_on_c, 2, 59, 0
5, 95520, Note_on_c, 2, 64, 64
5, 95759, Note_on_c, 2, 64, 0
5, 95760, Note_on_c, 2, 60, 64
5, 95999, Note_on_c, 2, 60, 0
5, 96000, End_track
0, 0, End_of_file
