0, 0, Header, 1, 3, 480
1, 0, Start_track
1, 0, Title_t, "Honky Tonk Piano, Honky Tonk Piano\000"
1, 0, Time_signature, 1, 2, 24, 8
1, 0, Key_signature, 0, "major"
1, 0, Tempo, 500000
1, 0, Control_c, 0, 121, 0
1, 0, Program_c, 0, 3
1, 0, Control_c, 0, 7, 100
1, 0, Control_c, 0, 10, 64
1, 0, Control_c, 0, 91, 0
1, 0, Control_c, 0, 93, 0
1, 0, MIDI_port, 0
1, 0, Note_on_c, 0, 72, 80
1, 455, Note_on_c, 0, 72, 0
1, 480, Time_signature, 4, 2, 24, 8
1, 480, Note_on_c, 0, 67, 80
1, 480, Note_on_c, 0, 72, 80
1, 1847, Note_on_c, 0, 67, 0
1, 1847, Note_on_c, 0, 72, 0
1, 1920, Note_on_c, 0, 64, 80
1, 1920, Note_on_c, 0, 69, 80
1, 2033, Note_on_c, 0, 64, 0
1, 2033, Note_on_c, 0, 69, 0
1, 2040, Note_on_c, 0, 64, 80
1, 2040, Note_on_c, 0, 67, 80
1, 2381, Note_on_c, 0, 64, 0
1, 2381, Note_on_c, 0, 67, 0
1, 2400, Note_on_c, 0, 69, 80
1, 2400, Note_on_c, 0, 64, 80
1, 2639, Note_on_c, 0, 64, 0
1, 3425, Note_on_c, 0, 69, 0
1, 3600, Note_on_c, 0, 69, 80
1, 3827, Note_on_c, 0, 69, 0
1, 3840, Note_on_c, 0, 71, 80
1, 4067, Note_on_c, 0, 71, 0
1, 4080, Note_on_c, 0, 72, 80
1, 4307, Note_on_c, 0, 72, 0
1, 4320, Note_on_c, 0, 69, 80
1, 4320, Note_on_c, 0, 72, 80
1, 5687, Note_on_c, 0, 69, 0
1, 5687, Note_on_c, 0, 72, 0
1, 5760, Note_on_c, 0, 67, 80
1, 5760, Note_on_c, 0, 72, 80
1, 6101, Note_on_c, 0, 67, 0
1, 6101, Note_on_c, 0, 72, 0
1, 6120, Note_on_c, 0, 65, 80
1, 6120, Note_on_c, 0, 71, 80
1, 6233, Note_on_c, 0, 65, 0
1, 6233, Note_on_c, 0, 71, 0
1, 6240, Note_on_c, 0, 69, 80
1, 6240, Note_on_c, 0, 62, 80
1, 6479, Note_on_c, 0, 62, 0
1, 7151, Note_on_c, 0, 69, 0
1, 7200, Note_on_c, 0, 62, 80
1, 7200, Note_on_c, 0, 67, 80
1, 7655, Note_on_c, 0, 62, 0
1, 7655, Note_on_c, 0, 67, 0
1, 8040, Note_on_c, 0, 72, 80
1, 8153, Note_on_c, 0, 72, 0
1, 8160, Note_on_c, 0, 79, 80
1, 8387, Note_on_c, 0, 79, 0
1, 8400, Note_on_c, 0, 76, 80
1, 8627, Note_on_c, 0, 76, 0
1, 8640, Note_on_c, 0, 76, 80
1, 9095, Note_on_c, 0, 76, 0
1, 9120, Note_on_c, 0, 74, 80
1, 9347, Note_on_c, 0, 74, 0
1, 9360, Note_on_c, 0, 72, 80
1, 9587, Note_on_c, 0, 72, 0
1, 9600, Note_on_c, 0, 72, 80
1, 9827, Note_on_c, 0, 72, 0
1, 9840, Note_on_c, 0, 77, 80
1, 10295, Note_on_c, 0, 77, 0
1, 10320, Note_on_c, 0, 76, 80
1, 10547, Note_on_c, 0, 76, 0
1, 10560, Note_on_c, 0, 76, 80
1, 10787, Note_on_c, 0, 76, 0
1, 10800, Note_on_c, 0, 74, 80
1, 11027, Note_on_c, 0, 74, 0
1, 11040, Note_on_c, 0, 74, 80
1, 11267, Note_on_c, 0, 74, 0
1, 11280, Note_on_c, 0, 72, 80
1, 11507, Note_on_c, 0, 72, 0
1, 11760, Note_on_c, 0, 72, 80
1, 11987, Note_on_c, 0, 72, 0
1, 12000, Note_on_c, 0, 79, 80
1, 12227, Note_on_c, 0, 79, 0
1, 12240, Note_on_c, 0, 76, 80
1, 12467, Note_on_c, 0, 76, 0
1, 12480, Note_on_c, 0, 76, 80
1, 12821, Note_on_c, 0, 76, 0
1, 12840, Note_on_c, 0, 74, 80
1, 12953, Note_on_c, 0, 74, 0
1, 12960, Note_on_c, 0, 74, 80
1, 13187, Note_on_c, 0, 74, 0
1, 13200, Note_on_c, 0, 72, 80
1, 13427, Note_on_c, 0, 72, 0
1, 13440, Note_on_c, 0, 72, 80
1, 13667, Note_on_c, 0, 72, 0
1, 13680, Note_on_c, 0, 69, 80
1, 14135, Note_on_c, 0, 69, 0
1, 14160, Note_on_c, 0, 67, 80
1, 14387, Note_on_c, 0, 67, 0
1, 14760, Note_on_c, 0, 79, 80
1, 14873, Note_on_c, 0, 79, 0
1, 14880, Note_on_c, 0, 81, 80
1, 14993, Note_on_c, 0, 81, 0
1, 15000, Note_on_c, 0, 79, 80
1, 15179, Note_on_c, 0, 79, 0
1, 15600, Note_on_c, 0, 72, 80
1, 15713, Note_on_c, 0, 72, 0
1, 15720, Note_on_c, 0, 72, 80
1, 15833, Note_on_c, 0, 72, 0
1, 15840, Note_on_c, 0, 79, 80
1, 16067, Note_on_c, 0, 79, 0
1, 16080, Note_on_c, 0, 76, 80
1, 16307, Note_on_c, 0, 76, 0
1, 16320, Note_on_c, 0, 76, 80
1, 16661, Note_on_c, 0, 76, 0
1, 16680, Note_on_c, 0, 74, 80
1, 16793, Note_on_c, 0, 74, 0
1, 16800, Note_on_c, 0, 74, 80
1, 17027, Note_on_c, 0, 74, 0
1, 17040, Note_on_c, 0, 72, 80
1, 17267, Note_on_c, 0, 72, 0
1, 17280, Note_on_c, 0, 72, 80
1, 17507, Note_on_c, 0, 72, 0
1, 17520, Note_on_c, 0, 77, 80
1, 17975, Note_on_c, 0, 77, 0
1, 18000, Note_on_c, 0, 76, 80
1, 18113, Note_on_c, 0, 76, 0
1, 18120, Note_on_c, 0, 74, 80
1, 18233, Note_on_c, 0, 74, 0
1, 18240, Note_on_c, 0, 76, 80
1, 18581, Note_on_c, 0, 76, 0
1, 18600, Note_on_c, 0, 74, 80
1, 18713, Note_on_c, 0, 74, 0
1, 18720, Note_on_c, 0, 74, 80
1, 18947, Note_on_c, 0, 74, 0
1, 18960, Note_on_c, 0, 72, 80
1, 19187, Note_on_c, 0, 72, 0
1, 19200, Note_on_c, 0, 72, 80
1, 19427, Note_on_c, 0, 72, 0
1, 19440, Note_on_c, 0, 79, 80
1, 19895, Note_on_c, 0, 79, 0
1, 20280, Note_on_c, 0, 74, 80
1, 20393, Note_on_c, 0, 74, 0
1, 20400, Note_on_c, 0, 72, 80
1, 20513, Note_on_c, 0, 72, 0
1, 20520, Note_on_c, 0, 74, 80
1, 20747, Note_on_c, 0, 74, 0
1, 21120, Note_on_c, 0, 74, 80
1, 21233, Note_on_c, 0, 74, 0
1, 21240, Note_on_c, 0, 72, 80
1, 21353, Note_on_c, 0, 72, 0
1, 21360, Note_on_c, 0, 74, 80
1, 21815, Note_on_c, 0, 74, 0
1, 21840, Note_on_c, 0, 69, 80
1, 22067, Note_on_c, 0, 69, 0
1, 23040, Note_on_c, 0, 72, 80
1, 23381, Note_on_c, 0, 72, 0
1, 23400, Note_on_c, 0, 71, 80
1, 23513, Note_on_c, 0, 71, 0
1, 23520, Note_on_c, 0, 72, 80
1, 23747, Note_on_c, 0, 72, 0
1, 23760, Note_on_c, 0, 72, 80
1, 23987, Note_on_c, 0, 72, 0
1, 24000, Note_on_c, 0, 72, 80
1, 24113, Note_on_c, 0, 72, 0
1, 24120, Note_on_c, 0, 71, 80
1, 24233, Note_on_c, 0, 71, 0
1, 24240, Note_on_c, 0, 72, 80
1, 24353, Note_on_c, 0, 72, 0
1, 24360, Note_on_c, 0, 74, 80
1, 24473, Note_on_c, 0, 74, 0
1, 24480, Note_on_c, 0, 72, 80
1, 24707, Note_on_c, 0, 72, 0
1, 24720, Note_on_c, 0, 71, 80
1, 24947, Note_on_c, 0, 71, 0
1, 24960, Note_on_c, 0, 74, 80
1, 25073, Note_on_c, 0, 74, 0
1, 25080, Note_on_c, 0, 72, 80
1, 25259, Note_on_c, 0, 72, 0
1, 25560, Note_on_c, 0, 71, 80
1, 25673, Note_on_c, 0, 71, 0
1, 25680, Note_on_c, 0, 72, 80
1, 25793, Note_on_c, 0, 72, 0
1, 25800, Note_on_c, 0, 71, 80
1, 25913, Note_on_c, 0, 71, 0
1, 25920, Note_on_c, 0, 72, 80
1, 26147, Note_on_c, 0, 72, 0
1, 26160, Note_on_c, 0, 74, 80
1, 26273, Note_on_c, 0, 74, 0
1, 26280, Note_on_c, 0, 72, 80
1, 26393, Note_on_c, 0, 72, 0
1, 26400, Note_on_c, 0, 71, 80
1, 26513, Note_on_c, 0, 71, 0
1, 26520, Note_on_c, 0, 72, 80
1, 26633, Note_on_c, 0, 72, 0
1, 26640, Note_on_c, 0, 74, 80
1, 26759, Note_on_c, 0, 74, 0
1, 26880, Note_on_c, 0, 76, 80
1, 26993, Note_on_c, 0, 76, 0
1, 27000, Note_on_c, 0, 74, 80
1, 27227, Note_on_c, 0, 74, 0
1, 27240, Note_on_c, 0, 72, 80
1, 27353, Note_on_c, 0, 72, 0
1, 27360, Note_on_c, 0, 76, 80
1, 27473, Note_on_c, 0, 76, 0
1, 27480, Note_on_c, 0, 76, 80
1, 27593, Note_on_c, 0, 76, 0
1, 27600, Note_on_c, 0, 79, 80
1, 27827, Note_on_c, 0, 79, 0
1, 27840, Note_on_c, 0, 76, 80
1, 28067, Note_on_c, 0, 76, 0
1, 28080, Note_on_c, 0, 74, 80
1, 28193, Note_on_c, 0, 74, 0
1, 28200, Note_on_c, 0, 72, 80
1, 28313, Note_on_c, 0, 72, 0
1, 28320, Note_on_c, 0, 74, 80
1, 28547, Note_on_c, 0, 74, 0
1, 28560, Note_on_c, 0, 74, 80
1, 28787, Note_on_c, 0, 74, 0
1, 28800, Note_on_c, 0, 74, 80
1, 29039, Note_on_c, 0, 74, 0
1, 29520, Note_on_c, 0, 74, 80
1, 29633, Note_on_c, 0, 74, 0
1, 29640, Note_on_c, 0, 76, 80
1, 29753, Note_on_c, 0, 76, 0
1, 29760, Note_on_c, 0, 76, 80
1, 29987, Note_on_c, 0, 76, 0
1, 30000, Note_on_c, 0, 74, 80
1, 30113, Note_on_c, 0, 74, 0
1, 30120, Note_on_c, 0, 72, 80
1, 30233, Note_on_c, 0, 72, 0
1, 30240, Note_on_c, 0, 72, 80
1, 30467, Note_on_c, 0, 72, 0
1, 30480, Note_on_c, 0, 74, 80
1, 30593, Note_on_c, 0, 74, 0
1, 30600, Note_on_c, 0, 76, 80
1, 30713, Note_on_c, 0, 76, 0
1, 30720, Note_on_c, 0, 72, 80
1, 30959, Note_on_c, 0, 72, 0
1, 31320, Note_on_c, 0, 76, 80
1, 31433, Note_on_c, 0, 76, 0
1, 31440, Note_on_c, 0, 79, 80
1, 31553, Note_on_c, 0, 79, 0
1, 31560, Note_on_c, 0, 76, 80
1, 31673, Note_on_c, 0, 76, 0
1, 31680, Note_on_c, 0, 81, 80
1, 32021, Note_on_c, 0, 81, 0
1, 32040, Note_on_c, 0, 76, 80
1, 32153, Note_on_c, 0, 76, 0
1, 32160, Note_on_c, 0, 79, 80
1, 32273, Note_on_c, 0, 79, 0
1, 32280, Note_on_c, 0, 76, 80
1, 32393, Note_on_c, 0, 76, 0
1, 32400, Note_on_c, 0, 81, 80
1, 32741, Note_on_c, 0, 81, 0
1, 32760, Note_on_c, 0, 76, 80
1, 32873, Note_on_c, 0, 76, 0
1, 32880, Note_on_c, 0, 77, 80
1, 32993, Note_on_c, 0, 77, 0
1, 33000, Note_on_c, 0, 79, 80
1, 33113, Note_on_c, 0, 79, 0
1, 33120, Note_on_c, 0, 76, 80
1, 33461, Note_on_c, 0, 76, 0
1, 33480, Note_on_c, 0, 74, 80
1, 33593, Note_on_c, 0, 74, 0
1, 33600, Note_on_c, 0, 74, 80
1, 33827, Note_on_c, 0, 74, 0
1, 33840, Note_on_c, 0, 74, 80
1, 34181, Note_on_c, 0, 74, 0
1, 34200, Note_on_c, 0, 72, 80
1, 34313, Note_on_c, 0, 72, 0
1, 34320, Note_on_c, 0, 74, 80
1, 34547, Note_on_c, 0, 74, 0
1, 34560, Note_on_c, 0, 72, 80
1, 34799, Note_on_c, 0, 72, 0
1, 35160, Note_on_c, 0, 72, 80
1, 35273, Note_on_c, 0, 72, 0
1, 35280, Note_on_c, 0, 74, 80
1, 35393, Note_on_c, 0, 74, 0
1, 35400, Note_on_c, 0, 72, 80
1, 35513, Note_on_c, 0, 72, 0
1, 35520, Note_on_c, 0, 72, 80
1, 35747, Note_on_c, 0, 72, 0
1, 35760, Note_on_c, 0, 74, 80
1, 35873, Note_on_c, 0, 74, 0
1, 35880, Note_on_c, 0, 72, 80
1, 35993, Note_on_c, 0, 72, 0
1, 36000, Note_on_c, 0, 72, 80
1, 36179, Note_on_c, 0, 72, 0
1, 36360, Note_on_c, 0, 74, 80
1, 36473, Note_on_c, 0, 74, 0
1, 36480, Note_on_c, 0, 76, 80
1, 36593, Note_on_c, 0, 76, 0
1, 36600, Note_on_c, 0, 72, 80
1, 36779, Note_on_c, 0, 72, 0
1, 37080, Note_on_c, 0, 76, 80
1, 37193, Note_on_c, 0, 76, 0
1, 37200, Note_on_c, 0, 74, 80
1, 37313, Note_on_c, 0, 74, 0
1, 37320, Note_on_c, 0, 72, 80
1, 37433, Note_on_c, 0, 72, 0
1, 37440, Note_on_c, 0, 72, 80
1, 37667, Note_on_c, 0, 72, 0
1, 37680, Note_on_c, 0, 72, 80
1, 37793, Note_on_c, 0, 72, 0
1, 37800, Note_on_c, 0, 69, 80
1, 37913, Note_on_c, 0, 69, 0
1, 37920, Note_on_c, 0, 72, 80
1, 38261, Note_on_c, 0, 72, 0
1, 38280, Note_on_c, 0, 72, 80
1, 38393, Note_on_c, 0, 72, 0
1, 38400, Note_on_c, 0, 71, 80
1, 38513, Note_on_c, 0, 71, 0
1, 38520, Note_on_c, 0, 72, 80
1, 38633, Note_on_c, 0, 72, 0
1, 38640, Note_on_c, 0, 74, 80
1, 38867, Note_on_c, 0, 74, 0
1, 38880, Note_on_c, 0, 74, 80
1, 38955, Note_on_c, 0, 74, 0
1, 38960, Note_on_c, 0, 76, 80
1, 39111, Note_on_c, 0, 76, 0
1, 39120, Note_on_c, 0, 72, 80
1, 39347, Note_on_c, 0, 72, 0
1, 39600, Note_on_c, 0, 72, 80
1, 39713, Note_on_c, 0, 72, 0
1, 39720, Note_on_c, 0, 69, 80
1, 39833, Note_on_c, 0, 69, 0
1, 39840, Note_on_c, 0, 72, 80
1, 40067, Note_on_c, 0, 72, 0
1, 40080, Note_on_c, 0, 72, 80
1, 40307, Note_on_c, 0, 72, 0
1, 40560, Note_on_c, 0, 74, 80
1, 40673, Note_on_c, 0, 74, 0
1, 40680, Note_on_c, 0, 72, 80
1, 40907, Note_on_c, 0, 72, 0
1, 40920, Note_on_c, 0, 72, 80
1, 41147, Note_on_c, 0, 72, 0
1, 41160, Note_on_c, 0, 72, 80
1, 41273, Note_on_c, 0, 72, 0
1, 41520, Note_on_c, 0, 72, 80
1, 41747, Note_on_c, 0, 72, 0
1, 42000, Note_on_c, 0, 76, 80
1, 42227, Note_on_c, 0, 76, 0
1, 42600, Note_on_c, 0, 72, 80
1, 42713, Note_on_c, 0, 72, 0
1, 42720, Note_on_c, 0, 74, 80
1, 42833, Note_on_c, 0, 74, 0
1, 42840, Note_on_c, 0, 76, 80
1, 42953, Note_on_c, 0, 76, 0
1, 42960, Note_on_c, 0, 72, 80
1, 43187, Note_on_c, 0, 72, 0
1, 43440, Note_on_c, 0, 72, 80
1, 43553, Note_on_c, 0, 72, 0
1, 43560, Note_on_c, 0, 69, 80
1, 43673, Note_on_c, 0, 69, 0
1, 43680, Note_on_c, 0, 72, 80
1, 43907, Note_on_c, 0, 72, 0
1, 43920, Note_on_c, 0, 72, 80
1, 44147, Note_on_c, 0, 72, 0
1, 44400, Note_on_c, 0, 74, 80
1, 44513, Note_on_c, 0, 74, 0
1, 44520, Note_on_c, 0, 72, 80
1, 44633, Note_on_c, 0, 72, 0
1, 44640, Note_on_c, 0, 74, 80
1, 44753, Note_on_c, 0, 74, 0
1, 44760, Note_on_c, 0, 72, 80
1, 44873, Note_on_c, 0, 72, 0
1, 44880, Note_on_c, 0, 72, 80
1, 45107, Note_on_c, 0, 72, 0
1, 45360, Note_on_c, 0, 72, 80
1, 45587, Note_on_c, 0, 72, 0
1, 45840, Note_on_c, 0, 76, 80
1, 46067, Note_on_c, 0, 76, 0
1, 46800, Note_on_c, 0, 76, 80
1, 47027, Note_on_c, 0, 76, 0
1, 47040, Note_on_c, 0, 79, 80
1, 47495, Note_on_c, 0, 79, 0
1, 47520, Note_on_c, 0, 76, 80
1, 47747, Note_on_c, 0, 76, 0
1, 47760, Note_on_c, 0, 74, 80
1, 47873, Note_on_c, 0, 74, 0
1, 47880, Note_on_c, 0, 72, 80
1, 48221, Note_on_c, 0, 72, 0
1, 48240, Note_on_c, 0, 74, 80
1, 48467, Note_on_c, 0, 74, 0
1, 48480, Note_on_c, 0, 72, 80
1, 48719, Note_on_c, 0, 72, 0
1, 49320, Note_on_c, 0, 67, 80
1, 49433, Note_on_c, 0, 67, 0
1, 49440, Note_on_c, 0, 69, 80
1, 49553, Note_on_c, 0, 69, 0
1, 49560, Note_on_c, 0, 71, 80
1, 49673, Note_on_c, 0, 71, 0
1, 49680, Note_on_c, 0, 72, 80
1, 49793, Note_on_c, 0, 72, 0
1, 49800, Note_on_c, 0, 74, 80
1, 49913, Note_on_c, 0, 74, 0
1, 49920, Note_on_c, 0, 76, 80
1, 50033, Note_on_c, 0, 76, 0
1, 50040, Note_on_c, 0, 76, 80
1, 50381, Note_on_c, 0, 76, 0
1, 50400, Note_on_c, 0, 76, 80
1, 50741, Note_on_c, 0, 76, 0
1, 50760, Note_on_c, 0, 74, 80
1, 50987, Note_on_c, 0, 74, 0
1, 51360, Note_on_c, 0, 74, 80
1, 51701, Note_on_c, 0, 74, 0
1, 51720, Note_on_c, 0, 72, 80
1, 51833, Note_on_c, 0, 72, 0
1, 51840, Note_on_c, 0, 74, 80
1, 52067, Note_on_c, 0, 74, 0
1, 52080, Note_on_c, 0, 76, 80
1, 52649, Note_on_c, 0, 76, 0
1, 52680, Note_on_c, 0, 72, 80
1, 53021, Note_on_c, 0, 72, 0
1, 54000, Note_on_c, 0, 72, 80
1, 54113, Note_on_c, 0, 72, 0
1, 54120, Note_on_c, 0, 72, 80
1, 54233, Note_on_c, 0, 72, 0
1, 54240, Note_on_c, 0, 72, 80
1, 54467, Note_on_c, 0, 72, 0
1, 54480, Note_on_c, 0, 72, 80
1, 54707, Note_on_c, 0, 72, 0
1, 54960, Note_on_c, 0, 72, 80
1, 55073, Note_on_c, 0, 72, 0
1, 55080, Note_on_c, 0, 71, 80
1, 55193, Note_on_c, 0, 71, 0
1, 55200, Note_on_c, 0, 72, 80
1, 55313, Note_on_c, 0, 72, 0
1, 55320, Note_on_c, 0, 74, 80
1, 55433, Note_on_c, 0, 74, 0
1, 55440, Note_on_c, 0, 72, 80
1, 55667, Note_on_c, 0, 72, 0
1, 55680, Note_on_c, 0, 72, 80
1, 55793, Note_on_c, 0, 72, 0
1, 55800, Note_on_c, 0, 72, 80
1, 55979, Note_on_c, 0, 72, 0
1, 56160, Note_on_c, 0, 72, 80
1, 56273, Note_on_c, 0, 72, 0
1, 56280, Note_on_c, 0, 74, 80
1, 56393, Note_on_c, 0, 74, 0
1, 56400, Note_on_c, 0, 76, 80
1, 56627, Note_on_c, 0, 76, 0
1, 56640, Note_on_c, 0, 74, 80
1, 56867, Note_on_c, 0, 74, 0
1, 56880, Note_on_c, 0, 72, 80
1, 57107, Note_on_c, 0, 72, 0
1, 57120, Note_on_c, 0, 74, 80
1, 57233, Note_on_c, 0, 74, 0
1, 57240, Note_on_c, 0, 72, 80
1, 57353, Note_on_c, 0, 72, 0
1, 57360, Note_on_c, 0, 74, 80
1, 57587, Note_on_c, 0, 74, 0
1, 57600, Note_on_c, 0, 76, 80
1, 57713, Note_on_c, 0, 76, 0
1, 57720, Note_on_c, 0, 72, 80
1, 57839, Note_on_c, 0, 72, 0
1, 57960, Note_on_c, 0, 76, 80
1, 58073, Note_on_c, 0, 76, 0
1, 58080, Note_on_c, 0, 76, 80
1, 58193, Note_on_c, 0, 76, 0
1, 58200, Note_on_c, 0, 77, 80
1, 58313, Note_on_c, 0, 77, 0
1, 58320, Note_on_c, 0, 79, 80
1, 58547, Note_on_c, 0, 79, 0
1, 58560, Note_on_c, 0, 74, 80
1, 58787, Note_on_c, 0, 74, 0
1, 58800, Note_on_c, 0, 72, 80
1, 58913, Note_on_c, 0, 72, 0
1, 58920, Note_on_c, 0, 71, 80
1, 59033, Note_on_c, 0, 71, 0
1, 59040, Note_on_c, 0, 69, 80
1, 59153, Note_on_c, 0, 69, 0
1, 59160, Note_on_c, 0, 72, 80
1, 59339, Note_on_c, 0, 72, 0
1, 59760, Note_on_c, 0, 72, 80
1, 59873, Note_on_c, 0, 72, 0
1, 59880, Note_on_c, 0, 72, 80
1, 59993, Note_on_c, 0, 72, 0
1, 60000, Note_on_c, 0, 72, 80
1, 60227, Note_on_c, 0, 72, 0
1, 60240, Note_on_c, 0, 74, 80
1, 60353, Note_on_c, 0, 74, 0
1, 60360, Note_on_c, 0, 72, 80
1, 60473, Note_on_c, 0, 72, 0
1, 60480, Note_on_c, 0, 74, 80
1, 60593, Note_on_c, 0, 74, 0
1, 60600, Note_on_c, 0, 72, 80
1, 60713, Note_on_c, 0, 72, 0
1, 60720, Note_on_c, 0, 74, 80
1, 60947, Note_on_c, 0, 74, 0
1, 60960, Note_on_c, 0, 74, 80
1, 61301, Note_on_c, 0, 74, 0
1, 61320, Note_on_c, 0, 72, 80
1, 61433, Note_on_c, 0, 72, 0
1, 61440, Note_on_c, 0, 76, 80
1, 61781, Note_on_c, 0, 76, 0
1, 61800, Note_on_c, 0, 79, 80
1, 61913, Note_on_c, 0, 79, 0
1, 61920, Note_on_c, 0, 81, 80
1, 62159, Note_on_c, 0, 81, 0
1, 62520, Note_on_c, 0, 79, 80
1, 62633, Note_on_c, 0, 79, 0
1, 62640, Note_on_c, 0, 76, 80
1, 62753, Note_on_c, 0, 76, 0
1, 62760, Note_on_c, 0, 74, 80
1, 62873, Note_on_c, 0, 74, 0
1, 62880, Note_on_c, 0, 72, 80
1, 63119, Note_on_c, 0, 72, 0
1, 63480, Note_on_c, 0, 72, 80
1, 63593, Note_on_c, 0, 72, 0
1, 63600, Note_on_c, 0, 72, 80
1, 63713, Note_on_c, 0, 72, 0
1, 63720, Note_on_c, 0, 72, 80
1, 63833, Note_on_c, 0, 72, 0
1, 63840, Note_on_c, 0, 76, 80
1, 64181, Note_on_c, 0, 76, 0
1, 64200, Note_on_c, 0, 74, 80
1, 64313, Note_on_c, 0, 74, 0
1, 64320, Note_on_c, 0, 74, 80
1, 64661, Note_on_c, 0, 74, 0
1, 64680, Note_on_c, 0, 72, 80
1, 64793, Note_on_c, 0, 72, 0
1, 64800, Note_on_c, 0, 72, 80
1, 64979, Note_on_c, 0, 72, 0
1, 65160, Note_on_c, 0, 72, 80
1, 65273, Note_on_c, 0, 72, 0
1, 65280, Note_on_c, 0, 81, 80
1, 65507, Note_on_c, 0, 81, 0
1, 65520, Note_on_c, 0, 79, 80
1, 65747, Note_on_c, 0, 79, 0
1, 65760, Note_on_c, 0, 79, 80
1, 66101, Note_on_c, 0, 79, 0
1, 66120, Note_on_c, 0, 76, 80
1, 66233, Note_on_c, 0, 76, 0
1, 66480, Note_on_c, 0, 74, 80
1, 66593, Note_on_c, 0, 74, 0
1, 66600, Note_on_c, 0, 72, 80
1, 66713, Note_on_c, 0, 72, 0
1, 66720, Note_on_c, 0, 74, 80
1, 66833, Note_on_c, 0, 74, 0
1, 66840, Note_on_c, 0, 72, 80
1, 67019, Note_on_c, 0, 72, 0
1, 67200, Note_on_c, 0, 72, 80
1, 67313, Note_on_c, 0, 72, 0
1, 67320, Note_on_c, 0, 71, 80
1, 67433, Note_on_c, 0, 71, 0
1, 67440, Note_on_c, 0, 72, 80
1, 67553, Note_on_c, 0, 72, 0
1, 67560, Note_on_c, 0, 74, 80
1, 67673, Note_on_c, 0, 74, 0
1, 67680, Note_on_c, 0, 76, 80
1, 67793, Note_on_c, 0, 76, 0
1, 67800, Note_on_c, 0, 74, 80
1, 67913, Note_on_c, 0, 74, 0
1, 67920, Note_on_c, 0, 74, 80
1, 68033, Note_on_c, 0, 74, 0
1, 68040, Note_on_c, 0, 72, 80
1, 68153, Note_on_c, 0, 72, 0
1, 68160, Note_on_c, 0, 72, 80
1, 68273, Note_on_c, 0, 72, 0
1, 68280, Note_on_c, 0, 72, 80
1, 68393, Note_on_c, 0, 72, 0
1, 68400, Note_on_c, 0, 69, 80
1, 68627, Note_on_c, 0, 69, 0
1, 68640, Note_on_c, 0, 74, 80
1, 68753, Note_on_c, 0, 74, 0
1, 68760, Note_on_c, 0, 72, 80
1, 68939, Note_on_c, 0, 72, 0
1, 69600, Note_on_c, 0, 74, 80
1, 69675, Note_on_c, 0, 74, 0
1, 69680, Note_on_c, 0, 76, 80
1, 69831, Note_on_c, 0, 76, 0
1, 69840, Note_on_c, 0, 72, 80
1, 70067, Note_on_c, 0, 72, 0
1, 70320, Note_on_c, 0, 72, 80
1, 70433, Note_on_c, 0, 72, 0
1, 70440, Note_on_c, 0, 69, 80
1, 70553, Note_on_c, 0, 69, 0
1, 70560, Note_on_c, 0, 72, 80
1, 70787, Note_on_c, 0, 72, 0
1, 70800, Note_on_c, 0, 72, 80
1, 71027, Note_on_c, 0, 72, 0
1, 71280, Note_on_c, 0, 74, 80
1, 71393, Note_on_c, 0, 74, 0
1, 71400, Note_on_c, 0, 72, 80
1, 71513, Note_on_c, 0, 72, 0
1, 71520, Note_on_c, 0, 72, 80
1, 71747, Note_on_c, 0, 72, 0
1, 71760, Note_on_c, 0, 72, 80
1, 71987, Note_on_c, 0, 72, 0
1, 72240, Note_on_c, 0, 72, 80
1, 72467, Note_on_c, 0, 72, 0
1, 72720, Note_on_c, 0, 76, 80
1, 72947, Note_on_c, 0, 76, 0
1, 73320, Note_on_c, 0, 72, 80
1, 73433, Note_on_c, 0, 72, 0
1, 73440, Note_on_c, 0, 74, 80
1, 73553, Note_on_c, 0, 74, 0
1, 73560, Note_on_c, 0, 76, 80
1, 73673, Note_on_c, 0, 76, 0
1, 73680, Note_on_c, 0, 72, 80
1, 73907, Note_on_c, 0, 72, 0
1, 74160, Note_on_c, 0, 72, 80
1, 74273, Note_on_c, 0, 72, 0
1, 74280, Note_on_c, 0, 69, 80
1, 74393, Note_on_c, 0, 69, 0
1, 74400, Note_on_c, 0, 72, 80
1, 74627, Note_on_c, 0, 72, 0
1, 74640, Note_on_c, 0, 72, 80
1, 74867, Note_on_c, 0, 72, 0
1, 75120, Note_on_c, 0, 74, 80
1, 75233, Note_on_c, 0, 74, 0
1, 75240, Note_on_c, 0, 72, 80
1, 75353, Note_on_c, 0, 72, 0
1, 75360, Note_on_c, 0, 74, 80
1, 75473, Note_on_c, 0, 74, 0
1, 75480, Note_on_c, 0, 72, 80
1, 75593, Note_on_c, 0, 72, 0
1, 75600, Note_on_c, 0, 72, 80
1, 75827, Note_on_c, 0, 72, 0
1, 76080, Note_on_c, 0, 72, 80
1, 76307, Note_on_c, 0, 72, 0
1, 76560, Note_on_c, 0, 76, 80
1, 76787, Note_on_c, 0, 76, 0
1, 77520, Note_on_c, 0, 76, 80
1, 77747, Note_on_c, 0, 76, 0
1, 77760, Note_on_c, 0, 79, 80
1, 78215, Note_on_c, 0, 79, 0
1, 78240, Note_on_c, 0, 76, 80
1, 78467, Note_on_c, 0, 76, 0
1, 78480, Note_on_c, 0, 74, 80
1, 78593, Note_on_c, 0, 74, 0
1, 78600, Note_on_c, 0, 72, 80
1, 78941, Note_on_c, 0, 72, 0
1, 78960, Note_on_c, 0, 74, 80
1, 79187, Note_on_c, 0, 74, 0
1, 79200, Note_on_c, 0, 72, 80
1, 79439, Note_on_c, 0, 72, 0
1, 80280, Note_on_c, 0, 71, 80
1, 80393, Note_on_c, 0, 71, 0
1, 80400, Note_on_c, 0, 72, 80
1, 80513, Note_on_c, 0, 72, 0
1, 80520, Note_on_c, 0, 74, 80
1, 80633, Note_on_c, 0, 74, 0
1, 80640, Note_on_c, 0, 76, 80
1, 80867, Note_on_c, 0, 76, 0
1, 80880, Note_on_c, 0, 76, 80
1, 81107, Note_on_c, 0, 76, 0
1, 81120, Note_on_c, 0, 76, 80
1, 81461, Note_on_c, 0, 76, 0
1, 81480, Note_on_c, 0, 74, 80
1, 81707, Note_on_c, 0, 74, 0
1, 82200, Note_on_c, 0, 74, 80
1, 82427, Note_on_c, 0, 74, 0
1, 82440, Note_on_c, 0, 72, 80
1, 82553, Note_on_c, 0, 72, 0
1, 82560, Note_on_c, 0, 74, 80
1, 82787, Note_on_c, 0, 74, 0
1, 82800, Note_on_c, 0, 76, 80
1, 83255, Note_on_c, 0, 76, 0
1, 83280, Note_on_c, 0, 72, 80
1, 83507, Note_on_c, 0, 72, 0
1, 84960, Note_on_c, 0, 79, 80
1, 85415, Note_on_c, 0, 79, 0
1, 85440, Note_on_c, 0, 76, 80
1, 85895, Note_on_c, 0, 76, 0
1, 85920, Note_on_c, 0, 74, 80
1, 86147, Note_on_c, 0, 74, 0
1, 86160, Note_on_c, 0, 72, 80
1, 86387, Note_on_c, 0, 72, 0
1, 86640, Note_on_c, 0, 76, 80
1, 87095, Note_on_c, 0, 76, 0
1, 87120, Note_on_c, 0, 77, 80
1, 87347, Note_on_c, 0, 77, 0
1, 87360, Note_on_c, 0, 76, 80
1, 87815, Note_on_c, 0, 76, 0
1, 87840, Note_on_c, 0, 74, 80
1, 88067, Note_on_c, 0, 74, 0
1, 88080, Note_on_c, 0, 72, 80
1, 88307, Note_on_c, 0, 72, 0
1, 88320, Note_on_c, 0, 69, 80
1, 88547, Note_on_c, 0, 69, 0
1, 88560, Note_on_c, 0, 67, 80
1, 88787, Note_on_c, 0, 67, 0
1, 89040, Note_on_c, 0, 79, 80
1, 89267, Note_on_c, 0, 79, 0
1, 89280, Note_on_c, 0, 76, 80
1, 89393, Note_on_c, 0, 76, 0
1, 89400, Note_on_c, 0, 74, 80
1, 89513, Note_on_c, 0, 74, 0
1, 89520, Note_on_c, 0, 76, 80
1, 89633, Note_on_c, 0, 76, 0
1, 89640, Note_on_c, 0, 74, 80
1, 89981, Note_on_c, 0, 74, 0
1, 90000, Note_on_c, 0, 72, 80
1, 90227, Note_on_c, 0, 72, 0
1, 90480, Note_on_c, 0, 74, 80
1, 90593, Note_on_c, 0, 74, 0
1, 90600, Note_on_c, 0, 76, 80
1, 90941, Note_on_c, 0, 76, 0
1, 90960, Note_on_c, 0, 77, 80
1, 91187, Note_on_c, 0, 77, 0
1, 91200, Note_on_c, 0, 76, 80
1, 91541, Note_on_c, 0, 76, 0
1, 91560, Note_on_c, 0, 72, 80
1, 91673, Note_on_c, 0, 72, 0
1, 91680, Note_on_c, 0, 74, 80
1, 92021, Note_on_c, 0, 74, 0
1, 92040, Note_on_c, 0, 72, 80
1, 92153, Note_on_c, 0, 72, 0
1, 92160, Note_on_c, 0, 72, 80
1, 92387, Note_on_c, 0, 72, 0
1, 92400, Note_on_c, 0, 69, 80
1, 92513, Note_on_c, 0, 69, 0
1, 92520, Note_on_c, 0, 67, 80
1, 92633, Note_on_c, 0, 67, 0
1, 92640, Note_on_c, 0, 79, 80
1, 92981, Note_on_c, 0, 79, 0
1, 93000, Note_on_c, 0, 76, 80
1, 93341, Note_on_c, 0, 76, 0
1, 93600, Note_on_c, 0, 74, 80
1, 93827, Note_on_c, 0, 74, 0
1, 93840, Note_on_c, 0, 72, 80
1, 94295, Note_on_c, 0, 72, 0
1, 94320, Note_on_c, 0, 76, 80
1, 94775, Note_on_c, 0, 76, 0
1, 94800, Note_on_c, 0, 77, 80
1, 95027, Note_on_c, 0, 77, 0
1, 95040, Note_on_c, 0, 76, 80
1, 95723, Note_on_c, 0, 76, 0
1, 95760, Note_on_c, 0, 74, 80
1, 95873, Note_on_c, 0, 74, 0
1, 95880, Note_on_c, 0, 72, 80
1, 95993, Note_on_c, 0, 72, 0
1, 96000, Note_on_c, 0, 69, 80
1, 96227, Note_on_c, 0, 69, 0
1, 96240, Note_on_c, 0, 67, 80
1, 96467, Note_on_c, 0, 67, 0
1, 96720, Note_on_c, 0, 79, 80
1, 96947, Note_on_c, 0, 79, 0
1, 96960, Note_on_c, 0, 76, 80
1, 97301, Note_on_c, 0, 76, 0
1, 97320, Note_on_c, 0, 74, 80
1, 97433, Note_on_c, 0, 74, 0
1, 97440, Note_on_c, 0, 74, 80
1, 97667, Note_on_c, 0, 74, 0
1, 97680, Note_on_c, 0, 72, 80
1, 97907, Note_on_c, 0, 72, 0
1, 98040, Note_on_c, 0, 72, 80
1, 98153, Note_on_c, 0, 72, 0
1, 98160, Note_on_c, 0, 74, 80
1, 98273, Note_on_c, 0, 74, 0
1, 98280, Note_on_c, 0, 76, 80
1, 98507, Note_on_c, 0, 76, 0
1, 98520, Note_on_c, 0, 77, 80
1, 98747, Note_on_c, 0, 77, 0
1, 98760, Note_on_c, 0, 76, 80
1, 99671, Note_on_c, 0, 76, 0
1, 99720, Note_on_c, 0, 71, 80
1, 99833, Note_on_c, 0, 71, 0
1, 99840, Note_on_c, 0, 72, 80
1, 99953, Note_on_c, 0, 72, 0
1, 99960, Note_on_c, 0, 74, 80
1, 100073, Note_on_c, 0, 74, 0
1, 100080, Note_on_c, 0, 76, 80
1, 100193, Note_on_c, 0, 76, 0
1, 100200, Note_on_c, 0, 77, 80
1, 100313, Note_on_c, 0, 77, 0
1, 100320, Note_on_c, 0, 79, 80
1, 100661, Note_on_c, 0, 79, 0
1, 100680, Note_on_c, 0, 76, 80
1, 100793, Note_on_c, 0, 76, 0
1, 100800, Note_on_c, 0, 76, 80
1, 101255, Note_on_c, 0, 76, 0
1, 101280, Note_on_c, 0, 74, 80
1, 101507, Note_on_c, 0, 74, 0
1, 101520, Note_on_c, 0, 72, 80
1, 101747, Note_on_c, 0, 72, 0
1, 101760, Note_on_c, 0, 72, 80
1, 101987, Note_on_c, 0, 72, 0
1, 102000, Note_on_c, 0, 77, 80
1, 102455, Note_on_c, 0, 77, 0
1, 102480, Note_on_c, 0, 76, 80
1, 102593, Note_on_c, 0, 76, 0
1, 102600, Note_on_c, 0, 74, 80
1, 102713, Note_on_c, 0, 74, 0
1, 102720, Note_on_c, 0, 76, 80
1, 102947, Note_on_c, 0, 76, 0
1, 102960, Note_on_c, 0, 74, 80
1, 103187, Note_on_c, 0, 74, 0
1, 103200, Note_on_c, 0, 74, 80
1, 103427, Note_on_c, 0, 74, 0
1, 103440, Note_on_c, 0, 72, 80
1, 103553, Note_on_c, 0, 72, 0
1, 103560, Note_on_c, 0, 74, 80
1, 103787, Note_on_c, 0, 74, 0
1, 103800, Note_on_c, 0, 72, 80
1, 104141, Note_on_c, 0, 72, 0
1, 104160, Note_on_c, 0, 79, 80
1, 104387, Note_on_c, 0, 79, 0
1, 104400, Note_on_c, 0, 76, 80
1, 104627, Note_on_c, 0, 76, 0
1, 104640, Note_on_c, 0, 76, 80
1, 104981, Note_on_c, 0, 76, 0
1, 105000, Note_on_c, 0, 74, 80
1, 105113, Note_on_c, 0, 74, 0
1, 105120, Note_on_c, 0, 74, 80
1, 105347, Note_on_c, 0, 74, 0
1, 105360, Note_on_c, 0, 72, 80
1, 105587, Note_on_c, 0, 72, 0
1, 105600, Note_on_c, 0, 72, 80
1, 105827, Note_on_c, 0, 72, 0
1, 105840, Note_on_c, 0, 69, 80
1, 106295, Note_on_c, 0, 69, 0
1, 106320, Note_on_c, 0, 67, 80
1, 106547, Note_on_c, 0, 67, 0
1, 106548, End_track
2, 0, Start_track
2, 0, Title_t, "Honky Tonk Piano, Honky Tonk Piano\000"
2, 0, Key_signature, 0, "major"
2, 0, MIDI_port, 0
2, 480, Note_on_c, 0, 48, 80
2, 707, Note_on_c, 0, 48, 0
2, 720, Note_on_c, 0, 55, 80
2, 720, Note_on_c, 0, 60, 80
2, 947, Note_on_c, 0, 55, 0
2, 947, Note_on_c, 0, 60, 0
2, 960, Note_on_c, 0, 55, 80
2, 1187, Note_on_c, 0, 55, 0
2, 1200, Note_on_c, 0, 55, 80
2, 1200, Note_on_c, 0, 60, 80
2, 1427, Note_on_c, 0, 55, 0
2, 1427, Note_on_c, 0, 60, 0
2, 1440, Note_on_c, 0, 48, 80
2, 1667, Note_on_c, 0, 48, 0
2, 1680, Note_on_c, 0, 55, 80
2, 1680, Note_on_c, 0, 60, 80
2, 1907, Note_on_c, 0, 55, 0
2, 1907, Note_on_c, 0, 60, 0
2, 1920, Note_on_c, 0, 55, 80
2, 2147, Note_on_c, 0, 55, 0
2, 2160, Note_on_c, 0, 55, 80
2, 2160, Note_on_c, 0, 60, 80
2, 2387, Note_on_c, 0, 55, 0
2, 2387, Note_on_c, 0, 60, 0
2, 2400, Note_on_c, 0, 52, 80
2, 2627, Note_on_c, 0, 52, 0
2, 2640, Note_on_c, 0, 64, 80
2, 2640, Note_on_c, 0, 59, 80
2, 2867, Note_on_c, 0, 59, 0
2, 2880, Note_on_c, 0, 59, 80
2, 3095, Note_on_c, 0, 64, 0
2, 3107, Note_on_c, 0, 59, 0
2, 3120, Note_on_c, 0, 64, 80
2, 3120, Note_on_c, 0, 59, 80
2, 3347, Note_on_c, 0, 59, 0
2, 3360, Note_on_c, 0, 52, 80
2, 3461, Note_on_c, 0, 64, 0
2, 3587, Note_on_c, 0, 52, 0
2, 3600, Note_on_c, 0, 59, 80
2, 3600, Note_on_c, 0, 64, 80
2, 3827, Note_on_c, 0, 59, 0
2, 3827, Note_on_c, 0, 64, 0
2, 3840, Note_on_c, 0, 59, 80
2, 4067, Note_on_c, 0, 59, 0
2, 4080, Note_on_c, 0, 59, 80
2, 4080, Note_on_c, 0, 64, 80
2, 4307, Note_on_c, 0, 59, 0
2, 4307, Note_on_c, 0, 64, 0
2, 4320, Note_on_c, 0, 53, 80
2, 4547, Note_on_c, 0, 53, 0
2, 4560, Note_on_c, 0, 60, 80
2, 4560, Note_on_c, 0, 65, 80
2, 4787, Note_on_c, 0, 60, 0
2, 4787, Note_on_c, 0, 65, 0
2, 4800, Note_on_c, 0, 48, 80
2, 5027, Note_on_c, 0, 48, 0
2, 5040, Note_on_c, 0, 60, 80
2, 5040, Note_on_c, 0, 65, 80
2, 5267, Note_on_c, 0, 60, 0
2, 5267, Note_on_c, 0, 65, 0
2, 5280, Note_on_c, 0, 53, 80
2, 5507, Note_on_c, 0, 53, 0
2, 5520, Note_on_c, 0, 60, 80
2, 5520, Note_on_c, 0, 65, 80
2, 5747, Note_on_c, 0, 60, 0
2, 5747, Note_on_c, 0, 65, 0
2, 5760, Note_on_c, 0, 48, 80
2, 5987, Note_on_c, 0, 48, 0
2, 6000, Note_on_c, 0, 60, 80
2, 6000, Note_on_c, 0, 65, 80
2, 6119, Note_on_c, 0, 60, 0
2, 6119, Note_on_c, 0, 65, 0
2, 6240, Note_on_c, 0, 50, 80
2, 6467, Note_on_c, 0, 50, 0
2, 6480, Note_on_c, 0, 62, 80
2, 6480, Note_on_c, 0, 57, 80
2, 6707, Note_on_c, 0, 57, 0
2, 6839, Note_on_c, 0, 62, 0
2, 6960, Note_on_c, 0, 57, 80
2, 6960, Note_on_c, 0, 62, 80
2, 7187, Note_on_c, 0, 57, 0
2, 7187, Note_on_c, 0, 62, 0
2, 7440, Note_on_c, 0, 55, 80
2, 7440, Note_on_c, 0, 59, 80
2, 7667, Note_on_c, 0, 55, 0
2, 7667, Note_on_c, 0, 59, 0
2, 7920, Note_on_c, 0, 59, 80
2, 7920, Note_on_c, 0, 62, 80
2, 8147, Note_on_c, 0, 59, 0
2, 8147, Note_on_c, 0, 62, 0
2, 8160, Note_on_c, 0, 48, 80
2, 8387, Note_on_c, 0, 48, 0
2, 8400, Note_on_c, 0, 55, 80
2, 8400, Note_on_c, 0, 60, 80
2, 8627, Note_on_c, 0, 55, 0
2, 8627, Note_on_c, 0, 60, 0
2, 8640, Note_on_c, 0, 55, 80
2, 8867, Note_on_c, 0, 55, 0
2, 8880, Note_on_c, 0, 55, 80
2, 8880, Note_on_c, 0, 60, 80
2, 9107, Note_on_c, 0, 55, 0
2, 9107, Note_on_c, 0, 60, 0
2, 9120, Note_on_c, 0, 48, 80
2, 9347, Note_on_c, 0, 48, 0
2, 9360, Note_on_c, 0, 55, 80
2, 9360, Note_on_c, 0, 60, 80
2, 9587, Note_on_c, 0, 55, 0
2, 9587, Note_on_c, 0, 60, 0
2, 9600, Note_on_c, 0, 55, 80
2, 9827, Note_on_c, 0, 55, 0
2, 9840, Note_on_c, 0, 55, 80
2, 9840, Note_on_c, 0, 60, 80
2, 10067, Note_on_c, 0, 55, 0
2, 10067, Note_on_c, 0, 60, 0
2, 10080, Note_on_c, 0, 52, 80
2, 10307, Note_on_c, 0, 52, 0
2, 10320, Note_on_c, 0, 59, 80
2, 10320, Note_on_c, 0, 64, 80
2, 10547, Note_on_c, 0, 59, 0
2, 10547, Note_on_c, 0, 64, 0
2, 10560, Note_on_c, 0, 59, 80
2, 10787, Note_on_c, 0, 59, 0
2, 10800, Note_on_c, 0, 59, 80
2, 10800, Note_on_c, 0, 64, 80
2, 11027, Note_on_c, 0, 59, 0
2, 11027, Note_on_c, 0, 64, 0
2, 11040, Note_on_c, 0, 52, 80
2, 11267, Note_on_c, 0, 52, 0
2, 11280, Note_on_c, 0, 59, 80
2, 11280, Note_on_c, 0, 64, 80
2, 11507, Note_on_c, 0, 59, 0
2, 11507, Note_on_c, 0, 64, 0
2, 11520, Note_on_c, 0, 59, 80
2, 11747, Note_on_c, 0, 59, 0
2, 11760, Note_on_c, 0, 59, 80
2, 11760, Note_on_c, 0, 64, 80
2, 11987, Note_on_c, 0, 59, 0
2, 11987, Note_on_c, 0, 64, 0
2, 12000, Note_on_c, 0, 53, 80
2, 12227, Note_on_c, 0, 53, 0
2, 12240, Note_on_c, 0, 60, 80
2, 12240, Note_on_c, 0, 65, 80
2, 12467, Note_on_c, 0, 60, 0
2, 12467, Note_on_c, 0, 65, 0
2, 12480, Note_on_c, 0, 48, 80
2, 12707, Note_on_c, 0, 48, 0
2, 12720, Note_on_c, 0, 60, 80
2, 12720, Note_on_c, 0, 65, 80
2, 12947, Note_on_c, 0, 60, 0
2, 12947, Note_on_c, 0, 65, 0
2, 12960, Note_on_c, 0, 53, 80
2, 13187, Note_on_c, 0, 53, 0
2, 13200, Note_on_c, 0, 60, 80
2, 13200, Note_on_c, 0, 65, 80
2, 13427, Note_on_c, 0, 60, 0
2, 13427, Note_on_c, 0, 65, 0
2, 13440, Note_on_c, 0, 48, 80
2, 13667, Note_on_c, 0, 48, 0
2, 13680, Note_on_c, 0, 60, 80
2, 13680, Note_on_c, 0, 65, 80
2, 13907, Note_on_c, 0, 60, 0
2, 13907, Note_on_c, 0, 65, 0
2, 13920, Note_on_c, 0, 50, 80
2, 14147, Note_on_c, 0, 50, 0
2, 14160, Note_on_c, 0, 57, 80
2, 14160, Note_on_c, 0, 62, 80
2, 14387, Note_on_c, 0, 57, 0
2, 14387, Note_on_c, 0, 62, 0
2, 14640, Note_on_c, 0, 57, 80
2, 14640, Note_on_c, 0, 62, 80
2, 14867, Note_on_c, 0, 57, 0
2, 14867, Note_on_c, 0, 62, 0
2, 15120, Note_on_c, 0, 55, 80
2, 15120, Note_on_c, 0, 59, 80
2, 15347, Note_on_c, 0, 55, 0
2, 15347, Note_on_c, 0, 59, 0
2, 15600, Note_on_c, 0, 59, 80
2, 15600, Note_on_c, 0, 62, 80
2, 15827, Note_on_c, 0, 59, 0
2, 15827, Note_on_c, 0, 62, 0
2, 15840, Note_on_c, 0, 48, 80
2, 16067, Note_on_c, 0, 48, 0
2, 16080, Note_on_c, 0, 55, 80
2, 16080, Note_on_c, 0, 60, 80
2, 16307, Note_on_c, 0, 55, 0
2, 16307, Note_on_c, 0, 60, 0
2, 16320, Note_on_c, 0, 55, 80
2, 16547, Note_on_c, 0, 55, 0
2, 16560, Note_on_c, 0, 55, 80
2, 16560, Note_on_c, 0, 60, 80
2, 16787, Note_on_c, 0, 55, 0
2, 16787, Note_on_c, 0, 60, 0
2, 16800, Note_on_c, 0, 48, 80
2, 17027, Note_on_c, 0, 48, 0
2, 17040, Note_on_c, 0, 55, 80
2, 17040, Note_on_c, 0, 60, 80
2, 17267, Note_on_c, 0, 55, 0
2, 17267, Note_on_c, 0, 60, 0
2, 17280, Note_on_c, 0, 55, 80
2, 17507, Note_on_c, 0, 55, 0
2, 17520, Note_on_c, 0, 55, 80
2, 17520, Note_on_c, 0, 60, 80
2, 17747, Note_on_c, 0, 55, 0
2, 17747, Note_on_c, 0, 60, 0
2, 17760, Note_on_c, 0, 52, 80
2, 17987, Note_on_c, 0, 52, 0
2, 18000, Note_on_c, 0, 59, 80
2, 18000, Note_on_c, 0, 64, 80
2, 18227, Note_on_c, 0, 59, 0
2, 18227, Note_on_c, 0, 64, 0
2, 18240, Note_on_c, 0, 59, 80
2, 18467, Note_on_c, 0, 59, 0
2, 18480, Note_on_c, 0, 59, 80
2, 18480, Note_on_c, 0, 64, 80
2, 18707, Note_on_c, 0, 59, 0
2, 18707, Note_on_c, 0, 64, 0
2, 18720, Note_on_c, 0, 52, 80
2, 18947, Note_on_c, 0, 52, 0
2, 18960, Note_on_c, 0, 59, 80
2, 18960, Note_on_c, 0, 64, 80
2, 19187, Note_on_c, 0, 59, 0
2, 19187, Note_on_c, 0, 64, 0
2, 19200, Note_on_c, 0, 59, 80
2, 19427, Note_on_c, 0, 59, 0
2, 19440, Note_on_c, 0, 59, 80
2, 19440, Note_on_c, 0, 64, 80
2, 19667, Note_on_c, 0, 59, 0
2, 19667, Note_on_c, 0, 64, 0
2, 19680, Note_on_c, 0, 53, 80
2, 19907, Note_on_c, 0, 53, 0
2, 19920, Note_on_c, 0, 60, 80
2, 19920, Note_on_c, 0, 65, 80
2, 20147, Note_on_c, 0, 60, 0
2, 20147, Note_on_c, 0, 65, 0
2, 20160, Note_on_c, 0, 48, 80
2, 20387, Note_on_c, 0, 48, 0
2, 20400, Note_on_c, 0, 60, 80
2, 20400, Note_on_c, 0, 65, 80
2, 20627, Note_on_c, 0, 60, 0
2, 20627, Note_on_c, 0, 65, 0
2, 20640, Note_on_c, 0, 53, 80
2, 20867, Note_on_c, 0, 53, 0
2, 20880, Note_on_c, 0, 60, 80
2, 20880, Note_on_c, 0, 65, 80
2, 21107, Note_on_c, 0, 60, 0
2, 21107, Note_on_c, 0, 65, 0
2, 21120, Note_on_c, 0, 48, 80
2, 21347, Note_on_c, 0, 48, 0
2, 21360, Note_on_c, 0, 60, 80
2, 21360, Note_on_c, 0, 65, 80
2, 21587, Note_on_c, 0, 60, 0
2, 21587, Note_on_c, 0, 65, 0
2, 21600, Note_on_c, 0, 50, 80
2, 21827, Note_on_c, 0, 50, 0
2, 21840, Note_on_c, 0, 57, 80
2, 21840, Note_on_c, 0, 62, 80
2, 22067, Note_on_c, 0, 57, 0
2, 22067, Note_on_c, 0, 62, 0
2, 22320, Note_on_c, 0, 57, 80
2, 22320, Note_on_c, 0, 62, 80
2, 22547, Note_on_c, 0, 57, 0
2, 22547, Note_on_c, 0, 62, 0
2, 22800, Note_on_c, 0, 55, 80
2, 22800, Note_on_c, 0, 59, 80
2, 23027, Note_on_c, 0, 55, 0
2, 23027, Note_on_c, 0, 59, 0
2, 23280, Note_on_c, 0, 59, 80
2, 23280, Note_on_c, 0, 62, 80
2, 23507, Note_on_c, 0, 59, 0
2, 23507, Note_on_c, 0, 62, 0
2, 23520, Note_on_c, 0, 48, 80
2, 23747, Note_on_c, 0, 48, 0
2, 23760, Note_on_c, 0, 55, 80
2, 23760, Note_on_c, 0, 60, 80
2, 23987, Note_on_c, 0, 55, 0
2, 23987, Note_on_c, 0, 60, 0
2, 24000, Note_on_c, 0, 55, 80
2, 24227, Note_on_c, 0, 55, 0
2, 24240, Note_on_c, 0, 55, 80
2, 24240, Note_on_c, 0, 60, 80
2, 24467, Note_on_c, 0, 55, 0
2, 24467, Note_on_c, 0, 60, 0
2, 24480, Note_on_c, 0, 48, 80
2, 24707, Note_on_c, 0, 48, 0
2, 24720, Note_on_c, 0, 55, 80
2, 24720, Note_on_c, 0, 60, 80
2, 24947, Note_on_c, 0, 55, 0
2, 24947, Note_on_c, 0, 60, 0
2, 24960, Note_on_c, 0, 55, 80
2, 25187, Note_on_c, 0, 55, 0
2, 25200, Note_on_c, 0, 55, 80
2, 25200, Note_on_c, 0, 60, 80
2, 25427, Note_on_c, 0, 55, 0
2, 25427, Note_on_c, 0, 60, 0
2, 25440, Note_on_c, 0, 52, 80
2, 25667, Note_on_c, 0, 52, 0
2, 25680, Note_on_c, 0, 59, 80
2, 25680, Note_on_c, 0, 64, 80
2, 25907, Note_on_c, 0, 59, 0
2, 25907, Note_on_c, 0, 64, 0
2, 25920, Note_on_c, 0, 59, 80
2, 26147, Note_on_c, 0, 59, 0
2, 26160, Note_on_c, 0, 59, 80
2, 26160, Note_on_c, 0, 64, 80
2, 26387, Note_on_c, 0, 59, 0
2, 26387, Note_on_c, 0, 64, 0
2, 26400, Note_on_c, 0, 52, 80
2, 26627, Note_on_c, 0, 52, 0
2, 26640, Note_on_c, 0, 59, 80
2, 26640, Note_on_c, 0, 64, 80
2, 26867, Note_on_c, 0, 59, 0
2, 26867, Note_on_c, 0, 64, 0
2, 26880, Note_on_c, 0, 59, 80
2, 27107, Note_on_c, 0, 59, 0
2, 27120, Note_on_c, 0, 59, 80
2, 27120, Note_on_c, 0, 64, 80
2, 27347, Note_on_c, 0, 59, 0
2, 27347, Note_on_c, 0, 64, 0
2, 27360, Note_on_c, 0, 53, 80
2, 27587, Note_on_c, 0, 53, 0
2, 27600, Note_on_c, 0, 60, 80
2, 27600, Note_on_c, 0, 65, 80
2, 27827, Note_on_c, 0, 60, 0
2, 27827, Note_on_c, 0, 65, 0
2, 27840, Note_on_c, 0, 48, 80
2, 28067, Note_on_c, 0, 48, 0
2, 28080, Note_on_c, 0, 60, 80
2, 28080, Note_on_c, 0, 65, 80
2, 28307, Note_on_c, 0, 60, 0
2, 28307, Note_on_c, 0, 65, 0
2, 28320, Note_on_c, 0, 53, 80
2, 28547, Note_on_c, 0, 53, 0
2, 28560, Note_on_c, 0, 60, 80
2, 28560, Note_on_c, 0, 65, 80
2, 28787, Note_on_c, 0, 60, 0
2, 28787, Note_on_c, 0, 65, 0
2, 28800, Note_on_c, 0, 48, 80
2, 29027, Note_on_c, 0, 48, 0
2, 29040, Note_on_c, 0, 60, 80
2, 29040, Note_on_c, 0, 65, 80
2, 29267, Note_on_c, 0, 60, 0
2, 29267, Note_on_c, 0, 65, 0
2, 29280, Note_on_c, 0, 50, 80
2, 29507, Note_on_c, 0, 50, 0
2, 29520, Note_on_c, 0, 57, 80
2, 29520, Note_on_c, 0, 62, 80
2, 29747, Note_on_c, 0, 57, 0
2, 29747, Note_on_c, 0, 62, 0
2, 30000, Note_on_c, 0, 57, 80
2, 30000, Note_on_c, 0, 62, 80
2, 30227, Note_on_c, 0, 57, 0
2, 30227, Note_on_c, 0, 62, 0
2, 30480, Note_on_c, 0, 55, 80
2, 30480, Note_on_c, 0, 59, 80
2, 30707, Note_on_c, 0, 55, 0
2, 30707, Note_on_c, 0, 59, 0
2, 30960, Note_on_c, 0, 59, 80
2, 30960, Note_on_c, 0, 62, 80
2, 31187, Note_on_c, 0, 59, 0
2, 31187, Note_on_c, 0, 62, 0
2, 31200, Note_on_c, 0, 48, 80
2, 31427, Note_on_c, 0, 48, 0
2, 31440, Note_on_c, 0, 55, 80
2, 31440, Note_on_c, 0, 60, 80
2, 31667, Note_on_c, 0, 55, 0
2, 31667, Note_on_c, 0, 60, 0
2, 31680, Note_on_c, 0, 55, 80
2, 31907, Note_on_c, 0, 55, 0
2, 31920, Note_on_c, 0, 55, 80
2, 31920, Note_on_c, 0, 60, 80
2, 32147, Note_on_c, 0, 55, 0
2, 32147, Note_on_c, 0, 60, 0
2, 32160, Note_on_c, 0, 48, 80
2, 32387, Note_on_c, 0, 48, 0
2, 32400, Note_on_c, 0, 55, 80
2, 32400, Note_on_c, 0, 60, 80
2, 32627, Note_on_c, 0, 55, 0
2, 32627, Note_on_c, 0, 60, 0
2, 32640, Note_on_c, 0, 55, 80
2, 32867, Note_on_c, 0, 55, 0
2, 32880, Note_on_c, 0, 55, 80
2, 32880, Note_on_c, 0, 60, 80
2, 33107, Note_on_c, 0, 55, 0
2, 33107, Note_on_c, 0, 60, 0
2, 33120, Note_on_c, 0, 52, 80
2, 33347, Note_on_c, 0, 52, 0
2, 33360, Note_on_c, 0, 59, 80
2, 33360, Note_on_c, 0, 64, 80
2, 33587, Note_on_c, 0, 59, 0
2, 33587, Note_on_c, 0, 64, 0
2, 33600, Note_on_c, 0, 59, 80
2, 33827, Note_on_c, 0, 59, 0
2, 33840, Note_on_c, 0, 59, 80
2, 33840, Note_on_c, 0, 64, 80
2, 34067, Note_on_c, 0, 59, 0
2, 34067, Note_on_c, 0, 64, 0
2, 34080, Note_on_c, 0, 52, 80
2, 34307, Note_on_c, 0, 52, 0
2, 34320, Note_on_c, 0, 59, 80
2, 34320, Note_on_c, 0, 64, 80
2, 34547, Note_on_c, 0, 59, 0
2, 34547, Note_on_c, 0, 64, 0
2, 34560, Note_on_c, 0, 59, 80
2, 34787, Note_on_c, 0, 59, 0
2, 34800, Note_on_c, 0, 59, 80
2, 34800, Note_on_c, 0, 64, 80
2, 35027, Note_on_c, 0, 59, 0
2, 35027, Note_on_c, 0, 64, 0
2, 35040, Note_on_c, 0, 53, 80
2, 35267, Note_on_c, 0, 53, 0
2, 35280, Note_on_c, 0, 60, 80
2, 35280, Note_on_c, 0, 65, 80
2, 35507, Note_on_c, 0, 60, 0
2, 35507, Note_on_c, 0, 65, 0
2, 35520, Note_on_c, 0, 48, 80
2, 35747, Note_on_c, 0, 48, 0
2, 35760, Note_on_c, 0, 60, 80
2, 35760, Note_on_c, 0, 65, 80
2, 35987, Note_on_c, 0, 60, 0
2, 35987, Note_on_c, 0, 65, 0
2, 36000, Note_on_c, 0, 53, 80
2, 36227, Note_on_c, 0, 53, 0
2, 36240, Note_on_c, 0, 60, 80
2, 36240, Note_on_c, 0, 65, 80
2, 36467, Note_on_c, 0, 60, 0
2, 36467, Note_on_c, 0, 65, 0
2, 36480, Note_on_c, 0, 48, 80
2, 36707, Note_on_c, 0, 48, 0
2, 36720, Note_on_c, 0, 60, 80
2, 36720, Note_on_c, 0, 65, 80
2, 36947, Note_on_c, 0, 60, 0
2, 36947, Note_on_c, 0, 65, 0
2, 36960, Note_on_c, 0, 50, 80
2, 37187, Note_on_c, 0, 50, 0
2, 37200, Note_on_c, 0, 57, 80
2, 37200, Note_on_c, 0, 62, 80
2, 37427, Note_on_c, 0, 57, 0
2, 37427, Note_on_c, 0, 62, 0
2, 37680, Note_on_c, 0, 57, 80
2, 37680, Note_on_c, 0, 62, 80
2, 37907, Note_on_c, 0, 57, 0
2, 37907, Note_on_c, 0, 62, 0
2, 38160, Note_on_c, 0, 55, 80
2, 38160, Note_on_c, 0, 59, 80
2, 38387, Note_on_c, 0, 55, 0
2, 38387, Note_on_c, 0, 59, 0
2, 38640, Note_on_c, 0, 59, 80
2, 38640, Note_on_c, 0, 62, 80
2, 38867, Note_on_c, 0, 59, 0
2, 38867, Note_on_c, 0, 62, 0
2, 38880, Note_on_c, 0, 48, 80
2, 39107, Note_on_c, 0, 48, 0
2, 39120, Note_on_c, 0, 55, 80
2, 39120, Note_on_c, 0, 60, 80
2, 39347, Note_on_c, 0, 55, 0
2, 39347, Note_on_c, 0, 60, 0
2, 39360, Note_on_c, 0, 55, 80
2, 39587, Note_on_c, 0, 55, 0
2, 39600, Note_on_c, 0, 55, 80
2, 39600, Note_on_c, 0, 60, 80
2, 39827, Note_on_c, 0, 55, 0
2, 39827, Note_on_c, 0, 60, 0
2, 39840, Note_on_c, 0, 48, 80
2, 40067, Note_on_c, 0, 48, 0
2, 40080, Note_on_c, 0, 55, 80
2, 40080, Note_on_c, 0, 60, 80
2, 40307, Note_on_c, 0, 55, 0
2, 40307, Note_on_c, 0, 60, 0
2, 40320, Note_on_c, 0, 55, 80
2, 40547, Note_on_c, 0, 55, 0
2, 40560, Note_on_c, 0, 55, 80
2, 40560, Note_on_c, 0, 60, 80
2, 40787, Note_on_c, 0, 55, 0
2, 40787, Note_on_c, 0, 60, 0
2, 40800, Note_on_c, 0, 52, 80
2, 41027, Note_on_c, 0, 52, 0
2, 41040, Note_on_c, 0, 59, 80
2, 41040, Note_on_c, 0, 64, 80
2, 41267, Note_on_c, 0, 59, 0
2, 41267, Note_on_c, 0, 64, 0
2, 41280, Note_on_c, 0, 55, 80
2, 41507, Note_on_c, 0, 55, 0
2, 41520, Note_on_c, 0, 59, 80
2, 41520, Note_on_c, 0, 64, 80
2, 41747, Note_on_c, 0, 59, 0
2, 41747, Note_on_c, 0, 64, 0
2, 41760, Note_on_c, 0, 52, 80
2, 41987, Note_on_c, 0, 52, 0
2, 42000, Note_on_c, 0, 59, 80
2, 42000, Note_on_c, 0, 64, 80
2, 42227, Note_on_c, 0, 59, 0
2, 42227, Note_on_c, 0, 64, 0
2, 42240, Note_on_c, 0, 55, 80
2, 42467, Note_on_c, 0, 55, 0
2, 42480, Note_on_c, 0, 59, 80
2, 42480, Note_on_c, 0, 64, 80
2, 42707, Note_on_c, 0, 59, 0
2, 42707, Note_on_c, 0, 64, 0
2, 42720, Note_on_c, 0, 53, 80
2, 42947, Note_on_c, 0, 53, 0
2, 42960, Note_on_c, 0, 60, 80
2, 42960, Note_on_c, 0, 65, 80
2, 43187, Note_on_c, 0, 60, 0
2, 43187, Note_on_c, 0, 65, 0
2, 43200, Note_on_c, 0, 48, 80
2, 43427, Note_on_c, 0, 48, 0
2, 43440, Note_on_c, 0, 60, 80
2, 43440, Note_on_c, 0, 65, 80
2, 43667, Note_on_c, 0, 60, 0
2, 43667, Note_on_c, 0, 65, 0
2, 43680, Note_on_c, 0, 53, 80
2, 43907, Note_on_c, 0, 53, 0
2, 43920, Note_on_c, 0, 60, 80
2, 43920, Note_on_c, 0, 65, 80
2, 44147, Note_on_c, 0, 60, 0
2, 44147, Note_on_c, 0, 65, 0
2, 44160, Note_on_c, 0, 48, 80
2, 44387, Note_on_c, 0, 48, 0
2, 44400, Note_on_c, 0, 60, 80
2, 44400, Note_on_c, 0, 65, 80
2, 44627, Note_on_c, 0, 60, 0
2, 44627, Note_on_c, 0, 65, 0
2, 44640, Note_on_c, 0, 50, 80
2, 44867, Note_on_c, 0, 50, 0
2, 44880, Note_on_c, 0, 57, 80
2, 44880, Note_on_c, 0, 62, 80
2, 45107, Note_on_c, 0, 57, 0
2, 45107, Note_on_c, 0, 62, 0
2, 45360, Note_on_c, 0, 57, 80
2, 45360, Note_on_c, 0, 62, 80
2, 45587, Note_on_c, 0, 57, 0
2, 45587, Note_on_c, 0, 62, 0
2, 45840, Note_on_c, 0, 55, 80
2, 45840, Note_on_c, 0, 59, 80
2, 46067, Note_on_c, 0, 55, 0
2, 46067, Note_on_c, 0, 59, 0
2, 46320, Note_on_c, 0, 59, 80
2, 46320, Note_on_c, 0, 62, 80
2, 46547, Note_on_c, 0, 59, 0
2, 46547, Note_on_c, 0, 62, 0
2, 46560, Note_on_c, 0, 48, 80
2, 46787, Note_on_c, 0, 48, 0
2, 46800, Note_on_c, 0, 55, 80
2, 46800, Note_on_c, 0, 60, 80
2, 47027, Note_on_c, 0, 55, 0
2, 47027, Note_on_c, 0, 60, 0
2, 47040, Note_on_c, 0, 55, 80
2, 47267, Note_on_c, 0, 55, 0
2, 47280, Note_on_c, 0, 55, 80
2, 47280, Note_on_c, 0, 60, 80
2, 47507, Note_on_c, 0, 55, 0
2, 47507, Note_on_c, 0, 60, 0
2, 47520, Note_on_c, 0, 48, 80
2, 47747, Note_on_c, 0, 48, 0
2, 47760, Note_on_c, 0, 55, 80
2, 47760, Note_on_c, 0, 60, 80
2, 47987, Note_on_c, 0, 55, 0
2, 47987, Note_on_c, 0, 60, 0
2, 48000, Note_on_c, 0, 55, 80
2, 48227, Note_on_c, 0, 55, 0
2, 48240, Note_on_c, 0, 55, 80
2, 48240, Note_on_c, 0, 60, 80
2, 48467, Note_on_c, 0, 55, 0
2, 48467, Note_on_c, 0, 60, 0
2, 48480, Note_on_c, 0, 52, 80
2, 48707, Note_on_c, 0, 52, 0
2, 48720, Note_on_c, 0, 59, 80
2, 48720, Note_on_c, 0, 64, 80
2, 48947, Note_on_c, 0, 59, 0
2, 48947, Note_on_c, 0, 64, 0
2, 48960, Note_on_c, 0, 59, 80
2, 49187, Note_on_c, 0, 59, 0
2, 49200, Note_on_c, 0, 59, 80
2, 49200, Note_on_c, 0, 64, 80
2, 49427, Note_on_c, 0, 59, 0
2, 49427, Note_on_c, 0, 64, 0
2, 49440, Note_on_c, 0, 52, 80
2, 49667, Note_on_c, 0, 52, 0
2, 49680, Note_on_c, 0, 59, 80
2, 49680, Note_on_c, 0, 64, 80
2, 49907, Note_on_c, 0, 59, 0
2, 49907, Note_on_c, 0, 64, 0
2, 49920, Note_on_c, 0, 59, 80
2, 50147, Note_on_c, 0, 59, 0
2, 50160, Note_on_c, 0, 59, 80
2, 50160, Note_on_c, 0, 64, 80
2, 50387, Note_on_c, 0, 59, 0
2, 50387, Note_on_c, 0, 64, 0
2, 50400, Note_on_c, 0, 53, 80
2, 50627, Note_on_c, 0, 53, 0
2, 50640, Note_on_c, 0, 60, 80
2, 50640, Note_on_c, 0, 65, 80
2, 50867, Note_on_c, 0, 60, 0
2, 50867, Note_on_c, 0, 65, 0
2, 50880, Note_on_c, 0, 48, 80
2, 51107, Note_on_c, 0, 48, 0
2, 51120, Note_on_c, 0, 60, 80
2, 51120, Note_on_c, 0, 65, 80
2, 51347, Note_on_c, 0, 60, 0
2, 51347, Note_on_c, 0, 65, 0
2, 51360, Note_on_c, 0, 53, 80
2, 51587, Note_on_c, 0, 53, 0
2, 51600, Note_on_c, 0, 60, 80
2, 51600, Note_on_c, 0, 65, 80
2, 51827, Note_on_c, 0, 60, 0
2, 51827, Note_on_c, 0, 65, 0
2, 51840, Note_on_c, 0, 48, 80
2, 52067, Note_on_c, 0, 48, 0
2, 52080, Note_on_c, 0, 60, 80
2, 52080, Note_on_c, 0, 65, 80
2, 52307, Note_on_c, 0, 60, 0
2, 52307, Note_on_c, 0, 65, 0
2, 52320, Note_on_c, 0, 50, 80
2, 52547, Note_on_c, 0, 50, 0
2, 52560, Note_on_c, 0, 57, 80
2, 52560, Note_on_c, 0, 62, 80
2, 52787, Note_on_c, 0, 57, 0
2, 52787, Note_on_c, 0, 62, 0
2, 53040, Note_on_c, 0, 57, 80
2, 53040, Note_on_c, 0, 62, 80
2, 53267, Note_on_c, 0, 57, 0
2, 53267, Note_on_c, 0, 62, 0
2, 53520, Note_on_c, 0, 55, 80
2, 53520, Note_on_c, 0, 59, 80
2, 53747, Note_on_c, 0, 55, 0
2, 53747, Note_on_c, 0, 59, 0
2, 54000, Note_on_c, 0, 59, 80
2, 54000, Note_on_c, 0, 62, 80
2, 54227, Note_on_c, 0, 59, 0
2, 54227, Note_on_c, 0, 62, 0
2, 54240, Note_on_c, 0, 48, 80
2, 54467, Note_on_c, 0, 48, 0
2, 54480, Note_on_c, 0, 55, 80
2, 54480, Note_on_c, 0, 60, 80
2, 54707, Note_on_c, 0, 55, 0
2, 54707, Note_on_c, 0, 60, 0
2, 54720, Note_on_c, 0, 55, 80
2, 54947, Note_on_c, 0, 55, 0
2, 54960, Note_on_c, 0, 55, 80
2, 54960, Note_on_c, 0, 60, 80
2, 55187, Note_on_c, 0, 55, 0
2, 55187, Note_on_c, 0, 60, 0
2, 55200, Note_on_c, 0, 48, 80
2, 55427, Note_on_c, 0, 48, 0
2, 55440, Note_on_c, 0, 55, 80
2, 55440, Note_on_c, 0, 60, 80
2, 55667, Note_on_c, 0, 55, 0
2, 55667, Note_on_c, 0, 60, 0
2, 55680, Note_on_c, 0, 55, 80
2, 55907, Note_on_c, 0, 55, 0
2, 55920, Note_on_c, 0, 55, 80
2, 55920, Note_on_c, 0, 60, 80
2, 56147, Note_on_c, 0, 55, 0
2, 56147, Note_on_c, 0, 60, 0
2, 56160, Note_on_c, 0, 52, 80
2, 56387, Note_on_c, 0, 52, 0
2, 56400, Note_on_c, 0, 59, 80
2, 56400, Note_on_c, 0, 64, 80
2, 56627, Note_on_c, 0, 59, 0
2, 56627, Note_on_c, 0, 64, 0
2, 56640, Note_on_c, 0, 59, 80
2, 56867, Note_on_c, 0, 59, 0
2, 56880, Note_on_c, 0, 59, 80
2, 56880, Note_on_c, 0, 64, 80
2, 57107, Note_on_c, 0, 59, 0
2, 57107, Note_on_c, 0, 64, 0
2, 57120, Note_on_c, 0, 52, 80
2, 57347, Note_on_c, 0, 52, 0
2, 57360, Note_on_c, 0, 59, 80
2, 57360, Note_on_c, 0, 64, 80
2, 57587, Note_on_c, 0, 59, 0
2, 57587, Note_on_c, 0, 64, 0
2, 57600, Note_on_c, 0, 59, 80
2, 57827, Note_on_c, 0, 59, 0
2, 57840, Note_on_c, 0, 59, 80
2, 57840, Note_on_c, 0, 64, 80
2, 58067, Note_on_c, 0, 59, 0
2, 58067, Note_on_c, 0, 64, 0
2, 58080, Note_on_c, 0, 53, 80
2, 58307, Note_on_c, 0, 53, 0
2, 58320, Note_on_c, 0, 60, 80
2, 58320, Note_on_c, 0, 65, 80
2, 58547, Note_on_c, 0, 60, 0
2, 58547, Note_on_c, 0, 65, 0
2, 58560, Note_on_c, 0, 48, 80
2, 58787, Note_on_c, 0, 48, 0
2, 58800, Note_on_c, 0, 60, 80
2, 58800, Note_on_c, 0, 65, 80
2, 59027, Note_on_c, 0, 60, 0
2, 59027, Note_on_c, 0, 65, 0
2, 59040, Note_on_c, 0, 53, 80
2, 59267, Note_on_c, 0, 53, 0
2, 59280, Note_on_c, 0, 60, 80
2, 59280, Note_on_c, 0, 65, 80
2, 59507, Note_on_c, 0, 60, 0
2, 59507, Note_on_c, 0, 65, 0
2, 59520, Note_on_c, 0, 48, 80
2, 59747, Note_on_c, 0, 48, 0
2, 59760, Note_on_c, 0, 60, 80
2, 59760, Note_on_c, 0, 65, 80
2, 59987, Note_on_c, 0, 60, 0
2, 59987, Note_on_c, 0, 65, 0
2, 60000, Note_on_c, 0, 50, 80
2, 60227, Note_on_c, 0, 50, 0
2, 60240, Note_on_c, 0, 57, 80
2, 60240, Note_on_c, 0, 62, 80
2, 60467, Note_on_c, 0, 57, 0
2, 60467, Note_on_c, 0, 62, 0
2, 60720, Note_on_c, 0, 57, 80
2, 60720, Note_on_c, 0, 62, 80
2, 60947, Note_on_c, 0, 57, 0
2, 60947, Note_on_c, 0, 62, 0
2, 61200, Note_on_c, 0, 55, 80
2, 61200, Note_on_c, 0, 59, 80
2, 61427, Note_on_c, 0, 55, 0
2, 61427, Note_on_c, 0, 59, 0
2, 61680, Note_on_c, 0, 59, 80
2, 61680, Note_on_c, 0, 62, 80
2, 61907, Note_on_c, 0, 59, 0
2, 61907, Note_on_c, 0, 62, 0
2, 61920, Note_on_c, 0, 48, 80
2, 62147, Note_on_c, 0, 48, 0
2, 62160, Note_on_c, 0, 55, 80
2, 62160, Note_on_c, 0, 60, 80
2, 62387, Note_on_c, 0, 55, 0
2, 62387, Note_on_c, 0, 60, 0
2, 62400, Note_on_c, 0, 55, 80
2, 62627, Note_on_c, 0, 55, 0
2, 62640, Note_on_c, 0, 55, 80
2, 62640, Note_on_c, 0, 60, 80
2, 62867, Note_on_c, 0, 55, 0
2, 62867, Note_on_c, 0, 60, 0
2, 62880, Note_on_c, 0, 48, 80
2, 63107, Note_on_c, 0, 48, 0
2, 63120, Note_on_c, 0, 55, 80
2, 63120, Note_on_c, 0, 60, 80
2, 63347, Note_on_c, 0, 55, 0
2, 63347, Note_on_c, 0, 60, 0
2, 63360, Note_on_c, 0, 55, 80
2, 63587, Note_on_c, 0, 55, 0
2, 63600, Note_on_c, 0, 55, 80
2, 63600, Note_on_c, 0, 60, 80
2, 63827, Note_on_c, 0, 55, 0
2, 63827, Note_on_c, 0, 60, 0
2, 63840, Note_on_c, 0, 52, 80
2, 64067, Note_on_c, 0, 52, 0
2, 64080, Note_on_c, 0, 59, 80
2, 64080, Note_on_c, 0, 64, 80
2, 64307, Note_on_c, 0, 59, 0
2, 64307, Note_on_c, 0, 64, 0
2, 64320, Note_on_c, 0, 59, 80
2, 64547, Note_on_c, 0, 59, 0
2, 64560, Note_on_c, 0, 59, 80
2, 64560, Note_on_c, 0, 64, 80
2, 64787, Note_on_c, 0, 59, 0
2, 64787, Note_on_c, 0, 64, 0
2, 64800, Note_on_c, 0, 52, 80
2, 65027, Note_on_c, 0, 52, 0
2, 65040, Note_on_c, 0, 59, 80
2, 65040, Note_on_c, 0, 64, 80
2, 65267, Note_on_c, 0, 59, 0
2, 65267, Note_on_c, 0, 64, 0
2, 65280, Note_on_c, 0, 59, 80
2, 65507, Note_on_c, 0, 59, 0
2, 65520, Note_on_c, 0, 59, 80
2, 65520, Note_on_c, 0, 64, 80
2, 65747, Note_on_c, 0, 59, 0
2, 65747, Note_on_c, 0, 64, 0
2, 65760, Note_on_c, 0, 53, 80
2, 65987, Note_on_c, 0, 53, 0
2, 66000, Note_on_c, 0, 60, 80
2, 66000, Note_on_c, 0, 65, 80
2, 66227, Note_on_c, 0, 60, 0
2, 66227, Note_on_c, 0, 65, 0
2, 66240, Note_on_c, 0, 48, 80
2, 66467, Note_on_c, 0, 48, 0
2, 66480, Note_on_c, 0, 60, 80
2, 66480, Note_on_c, 0, 65, 80
2, 66707, Note_on_c, 0, 60, 0
2, 66707, Note_on_c, 0, 65, 0
2, 66720, Note_on_c, 0, 53, 80
2, 66947, Note_on_c, 0, 53, 0
2, 66960, Note_on_c, 0, 60, 80
2, 66960, Note_on_c, 0, 65, 80
2, 67187, Note_on_c, 0, 60, 0
2, 67187, Note_on_c, 0, 65, 0
2, 67200, Note_on_c, 0, 48, 80
2, 67427, Note_on_c, 0, 48, 0
2, 67440, Note_on_c, 0, 60, 80
2, 67440, Note_on_c, 0, 65, 80
2, 67667, Note_on_c, 0, 60, 0
2, 67667, Note_on_c, 0, 65, 0
2, 67680, Note_on_c, 0, 50, 80
2, 67907, Note_on_c, 0, 50, 0
2, 67920, Note_on_c, 0, 57, 80
2, 67920, Note_on_c, 0, 62, 80
2, 68147, Note_on_c, 0, 57, 0
2, 68147, Note_on_c, 0, 62, 0
2, 68400, Note_on_c, 0, 57, 80
2, 68400, Note_on_c, 0, 62, 80
2, 68627, Note_on_c, 0, 57, 0
2, 68627, Note_on_c, 0, 62, 0
2, 68880, Note_on_c, 0, 55, 80
2, 68880, Note_on_c, 0, 59, 80
2, 69107, Note_on_c, 0, 55, 0
2, 69107, Note_on_c, 0, 59, 0
2, 69360, Note_on_c, 0, 59, 80
2, 69360, Note_on_c, 0, 62, 80
2, 69587, Note_on_c, 0, 59, 0
2, 69587, Note_on_c, 0, 62, 0
2, 69600, Note_on_c, 0, 48, 80
2, 69827, Note_on_c, 0, 48, 0
2, 69840, Note_on_c, 0, 55, 80
2, 69840, Note_on_c, 0, 60, 80
2, 70067, Note_on_c, 0, 55, 0
2, 70067, Note_on_c, 0, 60, 0
2, 70080, Note_on_c, 0, 55, 80
2, 70307, Note_on_c, 0, 55, 0
2, 70320, Note_on_c, 0, 55, 80
2, 70320, Note_on_c, 0, 60, 80
2, 70547, Note_on_c, 0, 55, 0
2, 70547, Note_on_c, 0, 60, 0
2, 70560, Note_on_c, 0, 48, 80
2, 70787, Note_on_c, 0, 48, 0
2, 70800, Note_on_c, 0, 55, 80
2, 70800, Note_on_c, 0, 60, 80
2, 71027, Note_on_c, 0, 55, 0
2, 71027, Note_on_c, 0, 60, 0
2, 71040, Note_on_c, 0, 55, 80
2, 71267, Note_on_c, 0, 55, 0
2, 71280, Note_on_c, 0, 55, 80
2, 71280, Note_on_c, 0, 60, 80
2, 71507, Note_on_c, 0, 55, 0
2, 71507, Note_on_c, 0, 60, 0
2, 71520, Note_on_c, 0, 52, 80
2, 71747, Note_on_c, 0, 52, 0
2, 71760, Note_on_c, 0, 59, 80
2, 71760, Note_on_c, 0, 64, 80
2, 71987, Note_on_c, 0, 59, 0
2, 71987, Note_on_c, 0, 64, 0
2, 72000, Note_on_c, 0, 59, 80
2, 72227, Note_on_c, 0, 59, 0
2, 72240, Note_on_c, 0, 59, 80
2, 72240, Note_on_c, 0, 64, 80
2, 72467, Note_on_c, 0, 59, 0
2, 72467, Note_on_c, 0, 64, 0
2, 72480, Note_on_c, 0, 52, 80
2, 72707, Note_on_c, 0, 52, 0
2, 72720, Note_on_c, 0, 59, 80
2, 72720, Note_on_c, 0, 64, 80
2, 72947, Note_on_c, 0, 59, 0
2, 72947, Note_on_c, 0, 64, 0
2, 72960, Note_on_c, 0, 59, 80
2, 73187, Note_on_c, 0, 59, 0
2, 73200, Note_on_c, 0, 59, 80
2, 73200, Note_on_c, 0, 64, 80
2, 73427, Note_on_c, 0, 59, 0
2, 73427, Note_on_c, 0, 64, 0
2, 73440, Note_on_c, 0, 53, 80
2, 73667, Note_on_c, 0, 53, 0
2, 73680, Note_on_c, 0, 60, 80
2, 73680, Note_on_c, 0, 65, 80
2, 73907, Note_on_c, 0, 60, 0
2, 73907, Note_on_c, 0, 65, 0
2, 73920, Note_on_c, 0, 48, 80
2, 74147, Note_on_c, 0, 48, 0
2, 74160, Note_on_c, 0, 60, 80
2, 74160, Note_on_c, 0, 65, 80
2, 74387, Note_on_c, 0, 60, 0
2, 74387, Note_on_c, 0, 65, 0
2, 74400, Note_on_c, 0, 53, 80
2, 74627, Note_on_c, 0, 53, 0
2, 74640, Note_on_c, 0, 60, 80
2, 74640, Note_on_c, 0, 65, 80
2, 74867, Note_on_c, 0, 60, 0
2, 74867, Note_on_c, 0, 65, 0
2, 74880, Note_on_c, 0, 48, 80
2, 75107, Note_on_c, 0, 48, 0
2, 75120, Note_on_c, 0, 60, 80
2, 75120, Note_on_c, 0, 65, 80
2, 75347, Note_on_c, 0, 60, 0
2, 75347, Note_on_c, 0, 65, 0
2, 75360, Note_on_c, 0, 50, 80
2, 75587, Note_on_c, 0, 50, 0
2, 75600, Note_on_c, 0, 57, 80
2, 75600, Note_on_c, 0, 62, 80
2, 75827, Note_on_c, 0, 57, 0
2, 75827, Note_on_c, 0, 62, 0
2, 76080, Note_on_c, 0, 57, 80
2, 76080, Note_on_c, 0, 62, 80
2, 76307, Note_on_c, 0, 57, 0
2, 76307, Note_on_c, 0, 62, 0
2, 76560, Note_on_c, 0, 55, 80
2, 76560, Note_on_c, 0, 59, 80
2, 76787, Note_on_c, 0, 55, 0
2, 76787, Note_on_c, 0, 59, 0
2, 77040, Note_on_c, 0, 59, 80
2, 77040, Note_on_c, 0, 62, 80
2, 77267, Note_on_c, 0, 59, 0
2, 77267, Note_on_c, 0, 62, 0
2, 77280, Note_on_c, 0, 48, 80
2, 77507, Note_on_c, 0, 48, 0
2, 77520, Note_on_c, 0, 55, 80
2, 77520, Note_on_c, 0, 60, 80
2, 77747, Note_on_c, 0, 55, 0
2, 77747, Note_on_c, 0, 60, 0
2, 77760, Note_on_c, 0, 55, 80
2, 77987, Note_on_c, 0, 55, 0
2, 78000, Note_on_c, 0, 55, 80
2, 78000, Note_on_c, 0, 60, 80
2, 78227, Note_on_c, 0, 55, 0
2, 78227, Note_on_c, 0, 60, 0
2, 78240, Note_on_c, 0, 48, 80
2, 78467, Note_on_c, 0, 48, 0
2, 78480, Note_on_c, 0, 55, 80
2, 78480, Note_on_c, 0, 60, 80
2, 78707, Note_on_c, 0, 55, 0
2, 78707, Note_on_c, 0, 60, 0
2, 78720, Note_on_c, 0, 55, 80
2, 78947, Note_on_c, 0, 55, 0
2, 78960, Note_on_c, 0, 55, 80
2, 78960, Note_on_c, 0, 60, 80
2, 79187, Note_on_c, 0, 55, 0
2, 79187, Note_on_c, 0, 60, 0
2, 79200, Note_on_c, 0, 52, 80
2, 79427, Note_on_c, 0, 52, 0
2, 79440, Note_on_c, 0, 59, 80
2, 79440, Note_on_c, 0, 64, 80
2, 79667, Note_on_c, 0, 59, 0
2, 79667, Note_on_c, 0, 64, 0
2, 79680, Note_on_c, 0, 59, 80
2, 79907, Note_on_c, 0, 59, 0
2, 79920, Note_on_c, 0, 59, 80
2, 79920, Note_on_c, 0, 64, 80
2, 80147, Note_on_c, 0, 59, 0
2, 80147, Note_on_c, 0, 64, 0
2, 80160, Note_on_c, 0, 52, 80
2, 80387, Note_on_c, 0, 52, 0
2, 80400, Note_on_c, 0, 59, 80
2, 80400, Note_on_c, 0, 64, 80
2, 80627, Note_on_c, 0, 59, 0
2, 80627, Note_on_c, 0, 64, 0
2, 80640, Note_on_c, 0, 59, 80
2, 80867, Note_on_c, 0, 59, 0
2, 80880, Note_on_c, 0, 59, 80
2, 80880, Note_on_c, 0, 64, 80
2, 81107, Note_on_c, 0, 59, 0
2, 81107, Note_on_c, 0, 64, 0
2, 81120, Note_on_c, 0, 53, 80
2, 81347, Note_on_c, 0, 53, 0
2, 81360, Note_on_c, 0, 60, 80
2, 81360, Note_on_c, 0, 65, 80
2, 81587, Note_on_c, 0, 60, 0
2, 81587, Note_on_c, 0, 65, 0
2, 81600, Note_on_c, 0, 48, 80
2, 81827, Note_on_c, 0, 48, 0
2, 81840, Note_on_c, 0, 60, 80
2, 81840, Note_on_c, 0, 65, 80
2, 82067, Note_on_c, 0, 60, 0
2, 82067, Note_on_c, 0, 65, 0
2, 82080, Note_on_c, 0, 53, 80
2, 82307, Note_on_c, 0, 53, 0
2, 82320, Note_on_c, 0, 60, 80
2, 82320, Note_on_c, 0, 65, 80
2, 82547, Note_on_c, 0, 60, 0
2, 82547, Note_on_c, 0, 65, 0
2, 82560, Note_on_c, 0, 48, 80
2, 82787, Note_on_c, 0, 48, 0
2, 82800, Note_on_c, 0, 60, 80
2, 82800, Note_on_c, 0, 65, 80
2, 83027, Note_on_c, 0, 60, 0
2, 83027, Note_on_c, 0, 65, 0
2, 83040, Note_on_c, 0, 50, 80
2, 83267, Note_on_c, 0, 50, 0
2, 83280, Note_on_c, 0, 57, 80
2, 83280, Note_on_c, 0, 62, 80
2, 83507, Note_on_c, 0, 57, 0
2, 83507, Note_on_c, 0, 62, 0
2, 83760, Note_on_c, 0, 57, 80
2, 83760, Note_on_c, 0, 62, 80
2, 83987, Note_on_c, 0, 57, 0
2, 83987, Note_on_c, 0, 62, 0
2, 84240, Note_on_c, 0, 55, 80
2, 84240, Note_on_c, 0, 59, 80
2, 84467, Note_on_c, 0, 55, 0
2, 84467, Note_on_c, 0, 59, 0
2, 84720, Note_on_c, 0, 59, 80
2, 84720, Note_on_c, 0, 62, 80
2, 84947, Note_on_c, 0, 59, 0
2, 84947, Note_on_c, 0, 62, 0
2, 84960, Note_on_c, 0, 48, 80
2, 85187, Note_on_c, 0, 48, 0
2, 85200, Note_on_c, 0, 55, 80
2, 85200, Note_on_c, 0, 60, 80
2, 85427, Note_on_c, 0, 55, 0
2, 85427, Note_on_c, 0, 60, 0
2, 85440, Note_on_c, 0, 55, 80
2, 85667, Note_on_c, 0, 55, 0
2, 85680, Note_on_c, 0, 55, 80
2, 85680, Note_on_c, 0, 60, 80
2, 85907, Note_on_c, 0, 55, 0
2, 85907, Note_on_c, 0, 60, 0
2, 85920, Note_on_c, 0, 48, 80
2, 86147, Note_on_c, 0, 48, 0
2, 86160, Note_on_c, 0, 55, 80
2, 86160, Note_on_c, 0, 60, 80
2, 86387, Note_on_c, 0, 55, 0
2, 86387, Note_on_c, 0, 60, 0
2, 86400, Note_on_c, 0, 55, 80
2, 86627, Note_on_c, 0, 55, 0
2, 86640, Note_on_c, 0, 55, 80
2, 86640, Note_on_c, 0, 60, 80
2, 86867, Note_on_c, 0, 55, 0
2, 86867, Note_on_c, 0, 60, 0
2, 86880, Note_on_c, 0, 52, 80
2, 87107, Note_on_c, 0, 52, 0
2, 87120, Note_on_c, 0, 59, 80
2, 87120, Note_on_c, 0, 64, 80
2, 87347, Note_on_c, 0, 59, 0
2, 87347, Note_on_c, 0, 64, 0
2, 87360, Note_on_c, 0, 59, 80
2, 87587, Note_on_c, 0, 59, 0
2, 87600, Note_on_c, 0, 59, 80
2, 87600, Note_on_c, 0, 64, 80
2, 87827, Note_on_c, 0, 59, 0
2, 87827, Note_on_c, 0, 64, 0
2, 87840, Note_on_c, 0, 52, 80
2, 88067, Note_on_c, 0, 52, 0
2, 88080, Note_on_c, 0, 59, 80
2, 88080, Note_on_c, 0, 64, 80
2, 88307, Note_on_c, 0, 59, 0
2, 88307, Note_on_c, 0, 64, 0
2, 88320, Note_on_c, 0, 59, 80
2, 88547, Note_on_c, 0, 59, 0
2, 88560, Note_on_c, 0, 59, 80
2, 88560, Note_on_c, 0, 64, 80
2, 88787, Note_on_c, 0, 59, 0
2, 88787, Note_on_c, 0, 64, 0
2, 88800, Note_on_c, 0, 53, 80
2, 89027, Note_on_c, 0, 53, 0
2, 89040, Note_on_c, 0, 60, 80
2, 89040, Note_on_c, 0, 65, 80
2, 89267, Note_on_c, 0, 60, 0
2, 89267, Note_on_c, 0, 65, 0
2, 89280, Note_on_c, 0, 48, 80
2, 89507, Note_on_c, 0, 48, 0
2, 89520, Note_on_c, 0, 60, 80
2, 89520, Note_on_c, 0, 65, 80
2, 89747, Note_on_c, 0, 60, 0
2, 89747, Note_on_c, 0, 65, 0
2, 89760, Note_on_c, 0, 53, 80
2, 89987, Note_on_c, 0, 53, 0
2, 90000, Note_on_c, 0, 60, 80
2, 90000, Note_on_c, 0, 65, 80
2, 90227, Note_on_c, 0, 60, 0
2, 90227, Note_on_c, 0, 65, 0
2, 90240, Note_on_c, 0, 48, 80
2, 90467, Note_on_c, 0, 48, 0
2, 90480, Note_on_c, 0, 60, 80
2, 90480, Note_on_c, 0, 65, 80
2, 90707, Note_on_c, 0, 60, 0
2, 90707, Note_on_c, 0, 65, 0
2, 90720, Note_on_c, 0, 50, 80
2, 90947, Note_on_c, 0, 50, 0
2, 90960, Note_on_c, 0, 57, 80
2, 90960, Note_on_c, 0, 62, 80
2, 91187, Note_on_c, 0, 57, 0
2, 91187, Note_on_c, 0, 62, 0
2, 91440, Note_on_c, 0, 57, 80
2, 91440, Note_on_c, 0, 62, 80
2, 91667, Note_on_c, 0, 57, 0
2, 91667, Note_on_c, 0, 62, 0
2, 91920, Note_on_c, 0, 55, 80
2, 91920, Note_on_c, 0, 59, 80
2, 92147, Note_on_c, 0, 55, 0
2, 92147, Note_on_c, 0, 59, 0
2, 92400, Note_on_c, 0, 59, 80
2, 92400, Note_on_c, 0, 62, 80
2, 92627, Note_on_c, 0, 59, 0
2, 92627, Note_on_c, 0, 62, 0
2, 92640, Note_on_c, 0, 48, 80
2, 92867, Note_on_c, 0, 48, 0
2, 92880, Note_on_c, 0, 55, 80
2, 92880, Note_on_c, 0, 60, 80
2, 93107, Note_on_c, 0, 55, 0
2, 93107, Note_on_c, 0, 60, 0
2, 93120, Note_on_c, 0, 55, 80
2, 93347, Note_on_c, 0, 55, 0
2, 93360, Note_on_c, 0, 55, 80
2, 93360, Note_on_c, 0, 60, 80
2, 93587, Note_on_c, 0, 55, 0
2, 93587, Note_on_c, 0, 60, 0
2, 93600, Note_on_c, 0, 48, 80
2, 93827, Note_on_c, 0, 48, 0
2, 93840, Note_on_c, 0, 55, 80
2, 93840, Note_on_c, 0, 60, 80
2, 94067, Note_on_c, 0, 55, 0
2, 94067, Note_on_c, 0, 60, 0
2, 94080, Note_on_c, 0, 55, 80
2, 94307, Note_on_c, 0, 55, 0
2, 94320, Note_on_c, 0, 55, 80
2, 94320, Note_on_c, 0, 60, 80
2, 94547, Note_on_c, 0, 55, 0
2, 94547, Note_on_c, 0, 60, 0
2, 94560, Note_on_c, 0, 52, 80
2, 94787, Note_on_c, 0, 52, 0
2, 94800, Note_on_c, 0, 59, 80
2, 94800, Note_on_c, 0, 64, 80
2, 95027, Note_on_c, 0, 59, 0
2, 95027, Note_on_c, 0, 64, 0
2, 95040, Note_on_c, 0, 59, 80
2, 95267, Note_on_c, 0, 59, 0
2, 95280, Note_on_c, 0, 59, 80
2, 95280, Note_on_c, 0, 64, 80
2, 95507, Note_on_c, 0, 59, 0
2, 95507, Note_on_c, 0, 64, 0
2, 95520, Note_on_c, 0, 52, 80
2, 95747, Note_on_c, 0, 52, 0
2, 95760, Note_on_c, 0, 59, 80
2, 95760, Note_on_c, 0, 64, 80
2, 95987, Note_on_c, 0, 59, 0
2, 95987, Note_on_c, 0, 64, 0
2, 96000, Note_on_c, 0, 59, 80
2, 96227, Note_on_c, 0, 59, 0
2, 96240, Note_on_c, 0, 59, 80
2, 96240, Note_on_c, 0, 64, 80
2, 96467, Note_on_c, 0, 59, 0
2, 96467, Note_on_c, 0, 64, 0
2, 96480, Note_on_c, 0, 53, 80
2, 96707, Note_on_c, 0, 53, 0
2, 96720, Note_on_c, 0, 60, 80
2, 96720, Note_on_c, 0, 65, 80
2, 96947, Note_on_c, 0, 60, 0
2, 96947, Note_on_c, 0, 65, 0
2, 96960, Note_on_c, 0, 48, 80
2, 97187, Note_on_c, 0, 48, 0
2, 97200, Note_on_c, 0, 60, 80
2, 97200, Note_on_c, 0, 65, 80
2, 97427, Note_on_c, 0, 60, 0
2, 97427, Note_on_c, 0, 65, 0
2, 97440, Note_on_c, 0, 53, 80
2, 97667, Note_on_c, 0, 53, 0
2, 97680, Note_on_c, 0, 60, 80
2, 97680, Note_on_c, 0, 65, 80
2, 97907, Note_on_c, 0, 60, 0
2, 97907, Note_on_c, 0, 65, 0
2, 97920, Note_on_c, 0, 48, 80
2, 98147, Note_on_c, 0, 48, 0
2, 98160, Note_on_c, 0, 60, 80
2, 98160, Note_on_c, 0, 65, 80
2, 98387, Note_on_c, 0, 60, 0
2, 98387, Note_on_c, 0, 65, 0
2, 98400, Note_on_c, 0, 50, 80
2, 98627, Note_on_c, 0, 50, 0
2, 98640, Note_on_c, 0, 57, 80
2, 98640, Note_on_c, 0, 62, 80
2, 98867, Note_on_c, 0, 57, 0
2, 98867, Note_on_c, 0, 62, 0
2, 99120, Note_on_c, 0, 57, 80
2, 99120, Note_on_c, 0, 62, 80
2, 99347, Note_on_c, 0, 57, 0
2, 99347, Note_on_c, 0, 62, 0
2, 99600, Note_on_c, 0, 55, 80
2, 99600, Note_on_c, 0, 59, 80
2, 99827, Note_on_c, 0, 55, 0
2, 99827, Note_on_c, 0, 59, 0
2, 100080, Note_on_c, 0, 59, 80
2, 100080, Note_on_c, 0, 62, 80
2, 100307, Note_on_c, 0, 59, 0
2, 100307, Note_on_c, 0, 62, 0
2, 100320, Note_on_c, 0, 48, 80
2, 100547, Note_on_c, 0, 48, 0
2, 100560, Note_on_c, 0, 55, 80
2, 100560, Note_on_c, 0, 60, 80
2, 100787, Note_on_c, 0, 55, 0
2, 100787, Note_on_c, 0, 60, 0
2, 100800, Note_on_c, 0, 55, 80
2, 101027, Note_on_c, 0, 55, 0
2, 101040, Note_on_c, 0, 55, 80
2, 101040, Note_on_c, 0, 60, 80
2, 101267, Note_on_c, 0, 55, 0
2, 101267, Note_on_c, 0, 60, 0
2, 101280, Note_on_c, 0, 48, 80
2, 101507, Note_on_c, 0, 48, 0
2, 101520, Note_on_c, 0, 55, 80
2, 101520, Note_on_c, 0, 60, 80
2, 101747, Note_on_c, 0, 55, 0
2, 101747, Note_on_c, 0, 60, 0
2, 101760, Note_on_c, 0, 55, 80
2, 101987, Note_on_c, 0, 55, 0
2, 102000, Note_on_c, 0, 55, 80
2, 102000, Note_on_c, 0, 60, 80
2, 102227, Note_on_c, 0, 55, 0
2, 102227, Note_on_c, 0, 60, 0
2, 102240, Note_on_c, 0, 52, 80
2, 102467, Note_on_c, 0, 52, 0
2, 102480, Note_on_c, 0, 59, 80
2, 102480, Note_on_c, 0, 64, 80
2, 102707, Note_on_c, 0, 59, 0
2, 102707, Note_on_c, 0, 64, 0
2, 102720, Note_on_c, 0, 59, 80
2, 102947, Note_on_c, 0, 59, 0
2, 102960, Note_on_c, 0, 59, 80
2, 102960, Note_on_c, 0, 64, 80
2, 103187, Note_on_c, 0, 59, 0
2, 103187, Note_on_c, 0, 64, 0
2, 103200, Note_on_c, 0, 52, 80
2, 103427, Note_on_c, 0, 52, 0
2, 103440, Note_on_c, 0, 59, 80
2, 103440, Note_on_c, 0, 64, 80
2, 103667, Note_on_c, 0, 59, 0
2, 103667, Note_on_c, 0, 64, 0
2, 103680, Note_on_c, 0, 59, 80
2, 103907, Note_on_c, 0, 59, 0
2, 103920, Note_on_c, 0, 59, 80
2, 103920, Note_on_c, 0, 64, 80
2, 104147, Note_on_c, 0, 59, 0
2, 104147, Note_on_c, 0, 64, 0
2, 104160, Note_on_c, 0, 53, 80
2, 104387, Note_on_c, 0, 53, 0
2, 104400, Note_on_c, 0, 60, 80
2, 104400, Note_on_c, 0, 65, 80
2, 104627, Note_on_c, 0, 60, 0
2, 104627, Note_on_c, 0, 65, 0
2, 104640, Note_on_c, 0, 48, 80
2, 104867, Note_on_c, 0, 48, 0
2, 104880, Note_on_c, 0, 60, 80
2, 104880, Note_on_c, 0, 65, 80
2, 105107, Note_on_c, 0, 60, 0
2, 105107, Note_on_c, 0, 65, 0
2, 105120, Note_on_c, 0, 53, 80
2, 105347, Note_on_c, 0, 53, 0
2, 105360, Note_on_c, 0, 60, 80
2, 105360, Note_on_c, 0, 65, 80
2, 105587, Note_on_c, 0, 60, 0
2, 105587, Note_on_c, 0, 65, 0
2, 105600, Note_on_c, 0, 48, 80
2, 105827, Note_on_c, 0, 48, 0
2, 105840, Note_on_c, 0, 60, 80
2, 105840, Note_on_c, 0, 65, 80
2, 106067, Note_on_c, 0, 60, 0
2, 106067, Note_on_c, 0, 65, 0
2, 106080, Note_on_c, 0, 50, 80
2, 106307, Note_on_c, 0, 50, 0
2, 106320, Note_on_c, 0, 57, 80
2, 106320, Note_on_c, 0, 62, 80
2, 106547, Note_on_c, 0, 57, 0
2, 106547, Note_on_c, 0, 62, 0
2, 106800, Note_on_c, 0, 57, 80
2, 106800, Note_on_c, 0, 62, 80
2, 107027, Note_on_c, 0, 57, 0
2, 107027, Note_on_c, 0, 62, 0
2, 107028, End_track
3, 0, Start_track
3, 0, Title_t, "Electric Bass, Bass\000"
3, 0, Key_signature, 0, "major"
3, 0, Control_c, 2, 121, 0
3, 0, Program_c, 2, 33
3, 0, Control_c, 2, 7, 100
3, 0, Control_c, 2, 10, 64
3, 0, Control_c, 2, 91, 0
3, 0, Control_c, 2, 93, 0
3, 0, MIDI_port, 0
3, 0, Control_c, 1, 121, 0
3, 0, Program_c, 1, 36
3, 0, Control_c, 1, 7, 100
3, 0, Control_c, 1, 10, 64
3, 0, Control_c, 1, 91, 0
3, 0, Control_c, 1, 93, 0
3, 0, MIDI_port, 0
3, 0, Control_c, 3, 121, 0
3, 0, Program_c, 3, 37
3, 0, Control_c, 3, 7, 100
3, 0, Control_c, 3, 10, 64
3, 0, Control_c, 3, 91, 0
3, 0, Control_c, 3, 93, 0
3, 0, MIDI_port, 0
3, 480, Note_on_c, 2, 60, 80
3, 959, Note_on_c, 2, 60, 0
3, 960, Note_on_c, 2, 55, 80
3, 1439, Note_on_c, 2, 55, 0
3, 1440, Note_on_c, 2, 60, 80
3, 1919, Note_on_c, 2, 60, 0
3, 1920, Note_on_c, 2, 55, 80
3, 2399, Note_on_c, 2, 55, 0
3, 2400, Note_on_c, 2, 64, 80
3, 2879, Note_on_c, 2, 64, 0
3, 2880, Note_on_c, 2, 59, 80
3, 3359, Note_on_c, 2, 59, 0
3, 3360, Note_on_c, 2, 64, 80
3, 3839, Note_on_c, 2, 64, 0
3, 3840, Note_on_c, 2, 59, 80
3, 4319, Note_on_c, 2, 59, 0
3, 4320, Note_on_c, 2, 65, 80
3, 4799, Note_on_c, 2, 65, 0
3, 4800, Note_on_c, 2, 60, 80
3, 5279, Note_on_c, 2, 60, 0
3, 5280, Note_on_c, 2, 65, 80
3, 5759, Note_on_c, 2, 65, 0
3, 5760, Note_on_c, 2, 60, 80
3, 6239, Note_on_c, 2, 60, 0
3, 6240, Note_on_c, 2, 62, 80
3, 6719, Note_on_c, 2, 62, 0
3, 6720, Note_on_c, 2, 57, 80
3, 7199, Note_on_c, 2, 57, 0
3, 7200, Note_on_c, 2, 55, 80
3, 7679, Note_on_c, 2, 55, 0
3, 7680, Note_on_c, 2, 62, 80
3, 8159, Note_on_c, 2, 62, 0
3, 8160, Note_on_c, 2, 60, 80
3, 8639, Note_on_c, 2, 60, 0
3, 8640, Note_on_c, 2, 55, 80
3, 9119, Note_on_c, 2, 55, 0
3, 9120, Note_on_c, 2, 60, 80
3, 9599, Note_on_c, 2, 60, 0
3, 9600, Note_on_c, 2, 55, 80
3, 10079, Note_on_c, 2, 55, 0
3, 10080, Note_on_c, 2, 64, 80
3, 10559, Note_on_c, 2, 64, 0
3, 10560, Note_on_c, 2, 59, 80
3, 11039, Note_on_c, 2, 59, 0
3, 11040, Note_on_c, 2, 64, 80
3, 11519, Note_on_c, 2, 64, 0
3, 11520, Note_on_c, 2, 59, 80
3, 11999, Note_on_c, 2, 59, 0
3, 12000, Note_on_c, 2, 65, 80
3, 12479, Note_on_c, 2, 65, 0
3, 12480, Note_on_c, 2, 60, 80
3, 12959, Note_on_c, 2, 60, 0
3, 12960, Note_on_c, 2, 65, 80
3, 13439, Note_on_c, 2, 65, 0
3, 13440, Note_on_c, 2, 60, 80
3, 13919, Note_on_c, 2, 60, 0
3, 13920, Note_on_c, 2, 62, 80
3, 14399, Note_on_c, 2, 62, 0
3, 14400, Note_on_c, 2, 57, 80
3, 14879, Note_on_c, 2, 57, 0
3, 14880, Note_on_c, 2, 55, 80
3, 15359, Note_on_c, 2, 55, 0
3, 15360, Note_on_c, 2, 62, 80
3, 15839, Note_on_c, 2, 62, 0
3, 15840, Note_on_c, 2, 60, 80
3, 16319, Note_on_c, 2, 60, 0
3, 16320, Note_on_c, 2, 55, 80
3, 16799, Note_on_c, 2, 55, 0
3, 16800, Note_on_c, 2, 60, 80
3, 17279, Note_on_c, 2, 60, 0
3, 17280, Note_on_c, 2, 55, 80
3, 17759, Note_on_c, 2, 55, 0
3, 17760, Note_on_c, 2, 64, 80
3, 18239, Note_on_c, 2, 64, 0
3, 18240, Note_on_c, 2, 59, 80
3, 18719, Note_on_c, 2, 59, 0
3, 18720, Note_on_c, 2, 64, 80
3, 19199, Note_on_c, 2, 64, 0
3, 19200, Note_on_c, 2, 59, 80
3, 19679, Note_on_c, 2, 59, 0
3, 19680, Note_on_c, 2, 65, 80
3, 20159, Note_on_c, 2, 65, 0
3, 20160, Note_on_c, 2, 60, 80
3, 20639, Note_on_c, 2, 60, 0
3, 20640, Note_on_c, 2, 65, 80
3, 21119, Note_on_c, 2, 65, 0
3, 21120, Note_on_c, 2, 60, 80
3, 21599, Note_on_c, 2, 60, 0
3, 21600, Note_on_c, 2, 62, 80
3, 22079, Note_on_c, 2, 62, 0
3, 22080, Note_on_c, 2, 57, 80
3, 22559, Note_on_c, 2, 57, 0
3, 22560, Note_on_c, 2, 55, 80
3, 23039, Note_on_c, 2, 55, 0
3, 23040, Note_on_c, 2, 62, 80
3, 23519, Note_on_c, 2, 62, 0
3, 23520, Note_on_c, 2, 60, 80
3, 23999, Note_on_c, 2, 60, 0
3, 24000, Note_on_c, 2, 55, 80
3, 24479, Note_on_c, 2, 55, 0
3, 24480, Note_on_c, 2, 60, 80
3, 24959, Note_on_c, 2, 60, 0
3, 24960, Note_on_c, 2, 55, 80
3, 25439, Note_on_c, 2, 55, 0
3, 25440, Note_on_c, 2, 64, 80
3, 25919, Note_on_c, 2, 64, 0
3, 25920, Note_on_c, 2, 59, 80
3, 26399, Note_on_c, 2, 59, 0
3, 26400, Note_on_c, 2, 64, 80
3, 26879, Note_on_c, 2, 64, 0
3, 26880, Note_on_c, 2, 59, 80
3, 27359, Note_on_c, 2, 59, 0
3, 27360, Note_on_c, 2, 65, 80
3, 27839, Note_on_c, 2, 65, 0
3, 27840, Note_on_c, 2, 60, 80
3, 28319, Note_on_c, 2, 60, 0
3, 28320, Note_on_c, 2, 65, 80
3, 28799, Note_on_c, 2, 65, 0
3, 28800, Note_on_c, 2, 60, 80
3, 29279, Note_on_c, 2, 60, 0
3, 29280, Note_on_c, 2, 62, 80
3, 29759, Note_on_c, 2, 62, 0
3, 29760, Note_on_c, 2, 57, 80
3, 30239, Note_on_c, 2, 57, 0
3, 30240, Note_on_c, 2, 55, 80
3, 30719, Note_on_c, 2, 55, 0
3, 30720, Note_on_c, 2, 62, 80
3, 31199, Note_on_c, 2, 62, 0
3, 31200, Note_on_c, 2, 60, 80
3, 31679, Note_on_c, 2, 60, 0
3, 31680, Note_on_c, 2, 55, 80
3, 32159, Note_on_c, 2, 55, 0
3, 32160, Note_on_c, 2, 60, 80
3, 32639, Note_on_c, 2, 60, 0
3, 32640, Note_on_c, 2, 55, 80
3, 33119, Note_on_c, 2, 55, 0
3, 33120, Note_on_c, 2, 64, 80
3, 33599, Note_on_c, 2, 64, 0
3, 33600, Note_on_c, 2, 59, 80
3, 34079, Note_on_c, 2, 59, 0
3, 34080, Note_on_c, 2, 64, 80
3, 34559, Note_on_c, 2, 64, 0
3, 34560, Note_on_c, 2, 59, 80
3, 35039, Note_on_c, 2, 59, 0
3, 35040, Note_on_c, 2, 65, 80
3, 35519, Note_on_c, 2, 65, 0
3, 35520, Note_on_c, 2, 60, 80
3, 35999, Note_on_c, 2, 60, 0
3, 36000, Note_on_c, 2, 65, 80
3, 36479, Note_on_c, 2, 65, 0
3, 36480, Note_on_c, 2, 60, 80
3, 36959, Note_on_c, 2, 60, 0
3, 36960, Note_on_c, 2, 62, 80
3, 37439, Note_on_c, 2, 62, 0
3, 37440, Note_on_c, 2, 57, 80
3, 37919, Note_on_c, 2, 57, 0
3, 37920, Note_on_c, 2, 55, 80
3, 38399, Note_on_c, 2, 55, 0
3, 38400, Note_on_c, 2, 62, 80
3, 38879, Note_on_c, 2, 62, 0
3, 38880, Note_on_c, 2, 60, 80
3, 39359, Note_on_c, 2, 60, 0
3, 39360, Note_on_c, 2, 55, 80
3, 39839, Note_on_c, 2, 55, 0
3, 39840, Note_on_c, 2, 60, 80
3, 40319, Note_on_c, 2, 60, 0
3, 40320, Note_on_c, 2, 55, 80
3, 40799, Note_on_c, 2, 55, 0
3, 40800, Note_on_c, 2, 64, 80
3, 41279, Note_on_c, 2, 64, 0
3, 41280, Note_on_c, 2, 59, 80
3, 41759, Note_on_c, 2, 59, 0
3, 41760, Note_on_c, 2, 64, 80
3, 42239, Note_on_c, 2, 64, 0
3, 42240, Note_on_c, 2, 59, 80
3, 42719, Note_on_c, 2, 59, 0
3, 42720, Note_on_c, 2, 65, 80
3, 43199, Note_on_c, 2, 65, 0
3, 43200, Note_on_c, 2, 60, 80
3, 43679, Note_on_c, 2, 60, 0
3, 43680, Note_on_c, 2, 65, 80
3, 44159, Note_on_c, 2, 65, 0
3, 44160, Note_on_c, 2, 60, 80
3, 44639, Note_on_c, 2, 60, 0
3, 44640, Note_on_c, 2, 62, 80
3, 45119, Note_on_c, 2, 62, 0
3, 45120, Note_on_c, 2, 57, 80
3, 45599, Note_on_c, 2, 57, 0
3, 45600, Note_on_c, 2, 55, 80
3, 46079, Note_on_c, 2, 55, 0
3, 46080, Note_on_c, 2, 62, 80
3, 46559, Note_on_c, 2, 62, 0
3, 46560, Note_on_c, 2, 60, 80
3, 47039, Note_on_c, 2, 60, 0
3, 47040, Note_on_c, 2, 55, 80
3, 47519, Note_on_c, 2, 55, 0
3, 47520, Note_on_c, 2, 60, 80
3, 47999, Note_on_c, 2, 60, 0
3, 48000, Note_on_c, 2, 55, 80
3, 48479, Note_on_c, 2, 55, 0
3, 48480, Note_on_c, 2, 64, 80
3, 48959, Note_on_c, 2, 64, 0
3, 48960, Note_on_c, 2, 59, 80
3, 49439, Note_on_c, 2, 59, 0
3, 49440, Note_on_c, 2, 64, 80
3, 49919, Note_on_c, 2, 64, 0
3, 49920, Note_on_c, 2, 59, 80
3, 50399, Note_on_c, 2, 59, 0
3, 50400, Note_on_c, 2, 65, 80
3, 50879, Note_on_c, 2, 65, 0
3, 50880, Note_on_c, 2, 60, 80
3, 51359, Note_on_c, 2, 60, 0
3, 51360, Note_on_c, 2, 65, 80
3, 51839, Note_on_c, 2, 65, 0
3, 51840, Note_on_c, 2, 60, 80
3, 52319, Note_on_c, 2, 60, 0
3, 52320, Note_on_c, 2, 62, 80
3, 52799, Note_on_c, 2, 62, 0
3, 52800, Note_on_c, 2, 57, 80
3, 53279, Note_on_c, 2, 57, 0
3, 53280, Note_on_c, 2, 55, 80
3, 53759, Note_on_c, 2, 55, 0
3, 53760, Note_on_c, 2, 62, 80
3, 54239, Note_on_c, 2, 62, 0
3, 54240, Note_on_c, 2, 60, 80
3, 54719, Note_on_c, 2, 60, 0
3, 54720, Note_on_c, 2, 55, 80
3, 55199, Note_on_c, 2, 55, 0
3, 55200, Note_on_c, 2, 60, 80
3, 55679, Note_on_c, 2, 60, 0
3, 55680, Note_on_c, 2, 55, 80
3, 56159, Note_on_c, 2, 55, 0
3, 56160, Note_on_c, 2, 64, 80
3, 56639, Note_on_c, 2, 64, 0
3, 56640, Note_on_c, 2, 59, 80
3, 57119, Note_on_c, 2, 59, 0
3, 57120, Note_on_c, 2, 64, 80
3, 57599, Note_on_c, 2, 64, 0
3, 57600, Note_on_c, 2, 59, 80
3, 58079, Note_on_c, 2, 59, 0
3, 58080, Note_on_c, 2, 65, 80
3, 58559, Note_on_c, 2, 65, 0
3, 58560, Note_on_c, 2, 60, 80
3, 59039, Note_on_c, 2, 60, 0
3, 59040, Note_on_c, 2, 65, 80
3, 59519, Note_on_c, 2, 65, 0
3, 59520, Note_on_c, 2, 60, 80
3, 59999, Note_on_c, 2, 60, 0
3, 60000, Note_on_c, 2, 62, 80
3, 60479, Note_on_c, 2, 62, 0
3, 60480, Note_on_c, 2, 57, 80
3, 60959, Note_on_c, 2, 57, 0
3, 60960, Note_on_c, 2, 55, 80
3, 61439, Note_on_c, 2, 55, 0
3, 61440, Note_on_c, 2, 62, 80
3, 61919, Note_on_c, 2, 62, 0
3, 61920, Note_on_c, 2, 60, 80
3, 62399, Note_on_c, 2, 60, 0
3, 62400, Note_on_c, 2, 55, 80
3, 62879, Note_on_c, 2, 55, 0
3, 62880, Note_on_c, 2, 60, 80
3, 63359, Note_on_c, 2, 60, 0
3, 63360, Note_on_c, 2, 55, 80
3, 63839, Note_on_c, 2, 55, 0
3, 63840, Note_on_c, 2, 64, 80
3, 64319, Note_on_c, 2, 64, 0
3, 64320, Note_on_c, 2, 59, 80
3, 64799, Note_on_c, 2, 59, 0
3, 64800, Note_on_c, 2, 64, 80
3, 65279, Note_on_c, 2, 64, 0
3, 65280, Note_on_c, 2, 59, 80
3, 65759, Note_on_c, 2, 59, 0
3, 65760, Note_on_c, 2, 65, 80
3, 66239, Note_on_c, 2, 65, 0
3, 66240, Note_on_c, 2, 60, 80
3, 66719, Note_on_c, 2, 60, 0
3, 66720, Note_on_c, 2, 65, 80
3, 67199, Note_on_c, 2, 65, 0
3, 67200, Note_on_c, 2, 60, 80
3, 67679, Note_on_c, 2, 60, 0
3, 67680, Note_on_c, 2, 62, 80
3, 68159, Note_on_c, 2, 62, 0
3, 68160, Note_on_c, 2, 57, 80
3, 68639, Note_on_c, 2, 57, 0
3, 68640, Note_on_c, 2, 55, 80
3, 69119, Note_on_c, 2, 55, 0
3, 69120, Note_on_c, 2, 62, 80
3, 69599, Note_on_c, 2, 62, 0
3, 69600, Note_on_c, 2, 60, 80
3, 70079, Note_on_c, 2, 60, 0
3, 70080, Note_on_c, 2, 55, 80
3, 70559, Note_on_c, 2, 55, 0
3, 70560, Note_on_c, 2, 60, 80
3, 71039, Note_on_c, 2, 60, 0
3, 71040, Note_on_c, 2, 55, 80
3, 71519, Note_on_c, 2, 55, 0
3, 71520, Note_on_c, 2, 64, 80
3, 71999, Note_on_c, 2, 64, 0
3, 72000, Note_on_c, 2, 59, 80
3, 72479, Note_on_c, 2, 59, 0
3, 72480, Note_on_c, 2, 64, 80
3, 72959, Note_on_c, 2, 64, 0
3, 72960, Note_on_c, 2, 59, 80
3, 73439, Note_on_c, 2, 59, 0
3, 73440, Note_on_c, 2, 65, 80
3, 73919, Note_on_c, 2, 65, 0
3, 73920, Note_on_c, 2, 60, 80
3, 74399, Note_on_c, 2, 60, 0
3, 74400, Note_on_c, 2, 65, 80
3, 74879, Note_on_c, 2, 65, 0
3, 74880, Note_on_c, 2, 60, 80
3, 75359, Note_on_c, 2, 60, 0
3, 75360, Note_on_c, 2, 62, 80
3, 75839, Note_on_c, 2, 62, 0
3, 75840, Note_on_c, 2, 57, 80
3, 76319, Note_on_c, 2, 57, 0
3, 76320, Note_on_c, 2, 55, 80
3, 76799, Note_on_c, 2, 55, 0
3, 76800, Note_on_c, 2, 62, 80
3, 77279, Note_on_c, 2, 62, 0
3, 77280, Note_on_c, 2, 60, 80
3, 77759, Note_on_c, 2, 60, 0
3, 77760, Note_on_c, 2, 55, 80
3, 78239, Note_on_c, 2, 55, 0
3, 78240, Note_on_c, 2, 60, 80
3, 78719, Note_on_c, 2, 60, 0
3, 78720, Note_on_c, 2, 55, 80
3, 79199, Note_on_c, 2, 55, 0
3, 79200, Note_on_c, 2, 64, 80
3, 79679, Note_on_c, 2, 64, 0
3, 79680, Note_on_c, 2, 59, 80
3, 80159, Note_on_c, 2, 59, 0
3, 80160, Note_on_c, 2, 64, 80
3, 80639, Note_on_c, 2, 64, 0
3, 80640, Note_on_c, 2, 59, 80
3, 81119, Note_on_c, 2, 59, 0
3, 81120, Note_on_c, 2, 65, 80
3, 81599, Note_on_c, 2, 65, 0
3, 81600, Note_on_c, 2, 60, 80
3, 82079, Note_on_c, 2, 60, 0
3, 82080, Note_on_c, 2, 65, 80
3, 82559, Note_on_c, 2, 65, 0
3, 82560, Note_on_c, 2, 60, 80
3, 83039, Note_on_c, 2, 60, 0
3, 83040, Note_on_c, 2, 62, 80
3, 83519, Note_on_c, 2, 62, 0
3, 83520, Note_on_c, 2, 57, 80
3, 83999, Note_on_c, 2, 57, 0
3, 84000, Note_on_c, 2, 55, 80
3, 84479, Note_on_c, 2, 55, 0
3, 84480, Note_on_c, 2, 62, 80
3, 84959, Note_on_c, 2, 62, 0
3, 84960, Note_on_c, 2, 60, 80
3, 85439, Note_on_c, 2, 60, 0
3, 85440, Note_on_c, 2, 55, 80
3, 85919, Note_on_c, 2, 55, 0
3, 85920, Note_on_c, 2, 60, 80
3, 86399, Note_on_c, 2, 60, 0
3, 86400, Note_on_c, 2, 55, 80
3, 86879, Note_on_c, 2, 55, 0
3, 86880, Note_on_c, 2, 64, 80
3, 87359, Note_on_c, 2, 64, 0
3, 87360, Note_on_c, 2, 59, 80
3, 87839, Note_on_c, 2, 59, 0
3, 87840, Note_on_c, 2, 64, 80
3, 88319, Note_on_c, 2, 64, 0
3, 88320, Note_on_c, 2, 59, 80
3, 88799, Note_on_c, 2, 59, 0
3, 88800, Note_on_c, 2, 65, 80
3, 89279, Note_on_c, 2, 65, 0
3, 89280, Note_on_c, 2, 60, 80
3, 89759, Note_on_c, 2, 60, 0
3, 89760, Note_on_c, 2, 65, 80
3, 90239, Note_on_c, 2, 65, 0
3, 90240, Note_on_c, 2, 60, 80
3, 90719, Note_on_c, 2, 60, 0
3, 90720, Note_on_c, 2, 62, 80
3, 91199, Note_on_c, 2, 62, 0
3, 91200, Note_on_c, 2, 57, 80
3, 91679, Note_on_c, 2, 57, 0
3, 91680, Note_on_c, 2, 55, 80
3, 92159, Note_on_c, 2, 55, 0
3, 92160, Note_on_c, 2, 62, 80
3, 92639, Note_on_c, 2, 62, 0
3, 92640, Note_on_c, 2, 60, 80
3, 93119, Note_on_c, 2, 60, 0
3, 93120, Note_on_c, 2, 55, 80
3, 93599, Note_on_c, 2, 55, 0
3, 93600, Note_on_c, 2, 60, 80
3, 94079, Note_on_c, 2, 60, 0
3, 94080, Note_on_c, 2, 55, 80
3, 94559, Note_on_c, 2, 55, 0
3, 94560, Note_on_c, 2, 64, 80
3, 95039, Note_on_c, 2, 64, 0
3, 95040, Note_on_c, 2, 59, 80
3, 95519, Note_on_c, 2, 59, 0
3, 95520, Note_on_c, 2, 64, 80
3, 95999, Note_on_c, 2, 64, 0
3, 96000, Note_on_c, 2, 59, 80
3, 96479, Note_on_c, 2, 59, 0
3, 96480, Note_on_c, 2, 65, 80
3, 96959, Note_on_c, 2, 65, 0
3, 96960, Note_on_c, 2, 60, 80
3, 97439, Note_on_c, 2, 60, 0
3, 97440, Note_on_c, 2, 65, 80
3, 97919, Note_on_c, 2, 65, 0
3, 97920, Note_on_c, 2, 60, 80
3, 98399, Note_on_c, 2, 60, 0
3, 98400, Note_on_c, 2, 62, 80
3, 98879, Note_on_c, 2, 62, 0
3, 98880, Note_on_c, 2, 57, 80
3, 99359, Note_on_c, 2, 57, 0
3, 99360, Note_on_c, 2, 55, 80
3, 99839, Note_on_c, 2, 55, 0
3, 99840, Note_on_c, 2, 62, 80
3, 100319, Note_on_c, 2, 62, 0
3, 100320, Note_on_c, 2, 60, 80
3, 100799, Note_on_c, 2, 60, 0
3, 100800, Note_on_c, 2, 55, 80
3, 101279, Note_on_c, 2, 55, 0
3, 101280, Note_on_c, 2, 60, 80
3, 101759, Note_on_c, 2, 60, 0
3, 101760, Note_on_c, 2, 55, 80
3, 102239, Note_on_c, 2, 55, 0
3, 102240, Note_on_c, 2, 64, 80
3, 102719, Note_on_c, 2, 64, 0
3, 102720, Note_on_c, 2, 59, 80
3, 103199, Note_on_c, 2, 59, 0
3, 103200, Note_on_c, 2, 64, 80
3, 103679, Note_on_c, 2, 64, 0
3, 103680, Note_on_c, 2, 59, 80
3, 104159, Note_on_c, 2, 59, 0
3, 104160, Note_on_c, 2, 65, 80
3, 104639, Note_on_c, 2, 65, 0
3, 104640, Note_on_c, 2, 60, 80
3, 105119, Note_on_c, 2, 60, 0
3, 105120, Note_on_c, 2, 65, 80
3, 105599, Note_on_c, 2, 65, 0
3, 105600, Note_on_c, 2, 60, 80
3, 106079, Note_on_c, 2, 60, 0
3, 106080, Note_on_c, 2, 62, 80
3, 106559, Note_on_c, 2, 62, 0
3, 106560, Note_on_c, 2, 57, 80
3, 107039, Note_on_c, 2, 57, 0
3, 107040, Note_on_c, 2, 55, 80
3, 107519, Note_on_c, 2, 55, 0
3, 107520, End_track
0, 0, End_of_file
