0, 0, Header, 1, 5, 480
1, 0, Start_track
1, 0, Title_t, "Piano, Minstrel\000"
1, 0, Time_signature, 1, 2, 24, 8
1, 0, Key_signature, 0, "major"
1, 0, Tempo, 600000
1, 0, Control_c, 0, 121, 0
1, 0, Program_c, 0, 0
1, 0, Control_c, 0, 7, 100
1, 0, Control_c, 0, 10, 64
1, 0, Control_c, 0, 91, 0
1, 0, Control_c, 0, 93, 0
1, 0, MIDI_port, 0
1, 0, Note_on_c, 0, 67, 80
1, 455, Note_on_c, 0, 67, 0
1, 480, Time_signature, 4, 2, 24, 8
1, 480, Note_on_c, 0, 74, 80
1, 707, Note_on_c, 0, 74, 0
1, 720, Note_on_c, 0, 71, 80
1, 947, Note_on_c, 0, 71, 0
1, 960, Note_on_c, 0, 71, 80
1, 1415, Note_on_c, 0, 71, 0
1, 1440, Note_on_c, 0, 69, 80
1, 1667, Note_on_c, 0, 69, 0
1, 1680, Note_on_c, 0, 67, 80
1, 1907, Note_on_c, 0, 67, 0
1, 1920, Note_on_c, 0, 67, 80
1, 2147, Note_on_c, 0, 67, 0
1, 2160, Note_on_c, 0, 72, 80
1, 2615, Note_on_c, 0, 72, 0
1, 2640, Note_on_c, 0, 71, 80
1, 2867, Note_on_c, 0, 71, 0
1, 2880, Note_on_c, 0, 71, 80
1, 3107, Note_on_c, 0, 71, 0
1, 3120, Note_on_c, 0, 69, 80
1, 3347, Note_on_c, 0, 69, 0
1, 3360, Note_on_c, 0, 69, 80
1, 3587, Note_on_c, 0, 69, 0
1, 3600, Note_on_c, 0, 67, 80
1, 4055, Note_on_c, 0, 67, 0
1, 4080, Note_on_c, 0, 67, 80
1, 4307, Note_on_c, 0, 67, 0
1, 4320, Note_on_c, 0, 74, 80
1, 4547, Note_on_c, 0, 74, 0
1, 4560, Note_on_c, 0, 71, 80
1, 4787, Note_on_c, 0, 71, 0
1, 4800, Note_on_c, 0, 71, 80
1, 5255, Note_on_c, 0, 71, 0
1, 5280, Note_on_c, 0, 69, 80
1, 5507, Note_on_c, 0, 69, 0
1, 5520, Note_on_c, 0, 67, 80
1, 5747, Note_on_c, 0, 67, 0
1, 5760, Note_on_c, 0, 67, 80
1, 5987, Note_on_c, 0, 67, 0
1, 6000, Note_on_c, 0, 64, 80
1, 6455, Note_on_c, 0, 64, 0
1, 6480, Note_on_c, 0, 62, 80
1, 6707, Note_on_c, 0, 62, 0
1, 6960, Note_on_c, 0, 71, 80
1, 7020, Note_on_c, 0, 74, 80
1, 7080, Note_on_c, 0, 79, 80
1, 7415, Note_on_c, 0, 71, 0
1, 7418, Note_on_c, 0, 74, 0
1, 7421, Note_on_c, 0, 79, 0
1, 7680, Note_on_c, 0, 67, 80
1, 7907, Note_on_c, 0, 67, 0
1, 7920, Note_on_c, 0, 67, 80
1, 8147, Note_on_c, 0, 67, 0
1, 8160, Note_on_c, 0, 74, 80
1, 8387, Note_on_c, 0, 74, 0
1, 8400, Note_on_c, 0, 71, 80
1, 8627, Note_on_c, 0, 71, 0
1, 8640, Note_on_c, 0, 71, 80
1, 8867, Note_on_c, 0, 71, 0
1, 8880, Note_on_c, 0, 69, 80
1, 9107, Note_on_c, 0, 69, 0
1, 9120, Note_on_c, 0, 69, 80
1, 9347, Note_on_c, 0, 69, 0
1, 9360, Note_on_c, 0, 67, 80
1, 9587, Note_on_c, 0, 67, 0
1, 9600, Note_on_c, 0, 67, 80
1, 9827, Note_on_c, 0, 67, 0
1, 9840, Note_on_c, 0, 72, 80
1, 10295, Note_on_c, 0, 72, 0
1, 10320, Note_on_c, 0, 71, 80
1, 10547, Note_on_c, 0, 71, 0
1, 10560, Note_on_c, 0, 71, 80
1, 10787, Note_on_c, 0, 71, 0
1, 10800, Note_on_c, 0, 69, 80
1, 11027, Note_on_c, 0, 69, 0
1, 11040, Note_on_c, 0, 69, 80
1, 11267, Note_on_c, 0, 69, 0
1, 11280, Note_on_c, 0, 67, 80
1, 11507, Note_on_c, 0, 67, 0
1, 11520, Note_on_c, 0, 67, 80
1, 11747, Note_on_c, 0, 67, 0
1, 11760, Note_on_c, 0, 74, 80
1, 12215, Note_on_c, 0, 74, 0
1, 12240, Note_on_c, 0, 71, 80
1, 12467, Note_on_c, 0, 71, 0
1, 12480, Note_on_c, 0, 71, 80
1, 12707, Note_on_c, 0, 71, 0
1, 12720, Note_on_c, 0, 69, 80
1, 13175, Note_on_c, 0, 69, 0
1, 13200, Note_on_c, 0, 67, 80
1, 13427, Note_on_c, 0, 67, 0
1, 13440, Note_on_c, 0, 67, 80
1, 13667, Note_on_c, 0, 67, 0
1, 13680, Note_on_c, 0, 69, 80
1, 14135, Note_on_c, 0, 69, 0
1, 14160, Note_on_c, 0, 64, 80
1, 14843, Note_on_c, 0, 64, 0
1, 15360, Note_on_c, 0, 67, 80
1, 15701, Note_on_c, 0, 67, 0
1, 15720, Note_on_c, 0, 64, 80
1, 15833, Note_on_c, 0, 64, 0
1, 15840, Note_on_c, 0, 67, 80
1, 16067, Note_on_c, 0, 67, 0
1, 16080, Note_on_c, 0, 67, 80
1, 16307, Note_on_c, 0, 67, 0
1, 16320, Note_on_c, 0, 67, 80
1, 16433, Note_on_c, 0, 67, 0
1, 16440, Note_on_c, 0, 67, 80
1, 16553, Note_on_c, 0, 67, 0
1, 16560, Note_on_c, 0, 64, 80
1, 16673, Note_on_c, 0, 64, 0
1, 16680, Note_on_c, 0, 62, 80
1, 16793, Note_on_c, 0, 62, 0
1, 16800, Note_on_c, 0, 67, 80
1, 17027, Note_on_c, 0, 67, 0
1, 17040, Note_on_c, 0, 67, 80
1, 17267, Note_on_c, 0, 67, 0
1, 17280, Note_on_c, 0, 67, 80
1, 17393, Note_on_c, 0, 67, 0
1, 17400, Note_on_c, 0, 67, 80
1, 17741, Note_on_c, 0, 67, 0
1, 17760, Note_on_c, 0, 67, 80
1, 17987, Note_on_c, 0, 67, 0
1, 18000, Note_on_c, 0, 67, 80
1, 18113, Note_on_c, 0, 67, 0
1, 18120, Note_on_c, 0, 67, 80
1, 18233, Note_on_c, 0, 67, 0
1, 18240, Note_on_c, 0, 67, 80
1, 18467, Note_on_c, 0, 67, 0
1, 18480, Note_on_c, 0, 67, 80
1, 18593, Note_on_c, 0, 67, 0
1, 18600, Note_on_c, 0, 67, 80
1, 18713, Note_on_c, 0, 67, 0
1, 18720, Note_on_c, 0, 67, 80
1, 18833, Note_on_c, 0, 67, 0
1, 18840, Note_on_c, 0, 67, 80
1, 18953, Note_on_c, 0, 67, 0
1, 18960, Note_on_c, 0, 67, 80
1, 19187, Note_on_c, 0, 67, 0
1, 19200, Note_on_c, 0, 71, 80
1, 19313, Note_on_c, 0, 71, 0
1, 19320, Note_on_c, 0, 67, 80
1, 19661, Note_on_c, 0, 67, 0
1, 19680, Note_on_c, 0, 71, 80
1, 19793, Note_on_c, 0, 71, 0
1, 19800, Note_on_c, 0, 71, 80
1, 19913, Note_on_c, 0, 71, 0
1, 19920, Note_on_c, 0, 74, 80
1, 20147, Note_on_c, 0, 74, 0
1, 20160, Note_on_c, 0, 72, 80
1, 20387, Note_on_c, 0, 72, 0
1, 20400, Note_on_c, 0, 71, 80
1, 20513, Note_on_c, 0, 71, 0
1, 20520, Note_on_c, 0, 67, 80
1, 20633, Note_on_c, 0, 67, 0
1, 20640, Note_on_c, 0, 69, 80
1, 20867, Note_on_c, 0, 69, 0
1, 20880, Note_on_c, 0, 69, 80
1, 21107, Note_on_c, 0, 69, 0
1, 21120, Note_on_c, 0, 69, 80
1, 21461, Note_on_c, 0, 69, 0
1, 21480, Note_on_c, 0, 69, 80
1, 21593, Note_on_c, 0, 69, 0
1, 21600, Note_on_c, 0, 71, 80
1, 21827, Note_on_c, 0, 71, 0
1, 21840, Note_on_c, 0, 67, 80
1, 22067, Note_on_c, 0, 67, 0
1, 22080, Note_on_c, 0, 67, 80
1, 22307, Note_on_c, 0, 67, 0
1, 22320, Note_on_c, 0, 64, 80
1, 22433, Note_on_c, 0, 64, 0
1, 22440, Note_on_c, 0, 62, 80
1, 22553, Note_on_c, 0, 62, 0
1, 22560, Note_on_c, 0, 67, 80
1, 22787, Note_on_c, 0, 67, 0
1, 22800, Note_on_c, 0, 67, 80
1, 23027, Note_on_c, 0, 67, 0
1, 23040, Note_on_c, 0, 67, 80
1, 23495, Note_on_c, 0, 67, 0
1, 23520, Note_on_c, 0, 71, 80
1, 23633, Note_on_c, 0, 71, 0
1, 23640, Note_on_c, 0, 74, 80
1, 23867, Note_on_c, 0, 74, 0
1, 23880, Note_on_c, 0, 71, 80
1, 23993, Note_on_c, 0, 71, 0
1, 24000, Note_on_c, 0, 76, 80
1, 24227, Note_on_c, 0, 76, 0
1, 24240, Note_on_c, 0, 71, 80
1, 24353, Note_on_c, 0, 71, 0
1, 24360, Note_on_c, 0, 74, 80
1, 24587, Note_on_c, 0, 74, 0
1, 24600, Note_on_c, 0, 71, 80
1, 24713, Note_on_c, 0, 71, 0
1, 24720, Note_on_c, 0, 76, 80
1, 24947, Note_on_c, 0, 76, 0
1, 24960, Note_on_c, 0, 71, 80
1, 25073, Note_on_c, 0, 71, 0
1, 25080, Note_on_c, 0, 74, 80
1, 25307, Note_on_c, 0, 74, 0
1, 25320, Note_on_c, 0, 72, 80
1, 25547, Note_on_c, 0, 72, 0
1, 25560, Note_on_c, 0, 71, 80
1, 25787, Note_on_c, 0, 71, 0
1, 25800, Note_on_c, 0, 69, 80
1, 26027, Note_on_c, 0, 69, 0
1, 26040, Note_on_c, 0, 67, 80
1, 26267, Note_on_c, 0, 67, 0
1, 26280, Note_on_c, 0, 67, 80
1, 26393, Note_on_c, 0, 67, 0
1, 26400, Note_on_c, 0, 69, 80
1, 26627, Note_on_c, 0, 69, 0
1, 26640, Note_on_c, 0, 67, 80
1, 27095, Note_on_c, 0, 67, 0
1, 27240, Note_on_c, 0, 67, 80
1, 27353, Note_on_c, 0, 67, 0
1, 27360, Note_on_c, 0, 67, 80
1, 27473, Note_on_c, 0, 67, 0
1, 27480, Note_on_c, 0, 67, 80
1, 27593, Note_on_c, 0, 67, 0
1, 27600, Note_on_c, 0, 67, 80
1, 27827, Note_on_c, 0, 67, 0
1, 27840, Note_on_c, 0, 67, 80
1, 27953, Note_on_c, 0, 67, 0
1, 27960, Note_on_c, 0, 67, 80
1, 28073, Note_on_c, 0, 67, 0
1, 28080, Note_on_c, 0, 67, 80
1, 28307, Note_on_c, 0, 67, 0
1, 28320, Note_on_c, 0, 67, 80
1, 28775, Note_on_c, 0, 67, 0
1, 29040, Note_on_c, 0, 67, 80
1, 29153, Note_on_c, 0, 67, 0
1, 29160, Note_on_c, 0, 67, 80
1, 29273, Note_on_c, 0, 67, 0
1, 29280, Note_on_c, 0, 71, 80
1, 29393, Note_on_c, 0, 71, 0
1, 29400, Note_on_c, 0, 67, 80
1, 29513, Note_on_c, 0, 67, 0
1, 29520, Note_on_c, 0, 67, 80
1, 29747, Note_on_c, 0, 67, 0
1, 29760, Note_on_c, 0, 67, 80
1, 29873, Note_on_c, 0, 67, 0
1, 29880, Note_on_c, 0, 64, 80
1, 29993, Note_on_c, 0, 64, 0
1, 30000, Note_on_c, 0, 64, 80
1, 30227, Note_on_c, 0, 64, 0
1, 30240, Note_on_c, 0, 64, 80
1, 30695, Note_on_c, 0, 64, 0
1, 31200, Note_on_c, 0, 71, 80
1, 31427, Note_on_c, 0, 71, 0
1, 31440, Note_on_c, 0, 67, 80
1, 31895, Note_on_c, 0, 67, 0
1, 31920, Note_on_c, 0, 67, 80
1, 32033, Note_on_c, 0, 67, 0
1, 32040, Note_on_c, 0, 64, 80
1, 32153, Note_on_c, 0, 64, 0
1, 32160, Note_on_c, 0, 67, 80
1, 32387, Note_on_c, 0, 67, 0
1, 32400, Note_on_c, 0, 67, 80
1, 32855, Note_on_c, 0, 67, 0
1, 32880, Note_on_c, 0, 67, 80
1, 32993, Note_on_c, 0, 67, 0
1, 33000, Note_on_c, 0, 64, 80
1, 33113, Note_on_c, 0, 64, 0
1, 33120, Note_on_c, 0, 67, 80
1, 33347, Note_on_c, 0, 67, 0
1, 33360, Note_on_c, 0, 67, 80
1, 33815, Note_on_c, 0, 67, 0
1, 33840, Note_on_c, 0, 67, 80
1, 34295, Note_on_c, 0, 67, 0
1, 34320, Note_on_c, 0, 71, 80
1, 35003, Note_on_c, 0, 71, 0
1, 35040, Note_on_c, 0, 71, 80
1, 35267, Note_on_c, 0, 71, 0
1, 35280, Note_on_c, 0, 67, 80
1, 35735, Note_on_c, 0, 67, 0
1, 35760, Note_on_c, 0, 67, 80
1, 35873, Note_on_c, 0, 67, 0
1, 35880, Note_on_c, 0, 64, 80
1, 35993, Note_on_c, 0, 64, 0
1, 36000, Note_on_c, 0, 67, 80
1, 36227, Note_on_c, 0, 67, 0
1, 36240, Note_on_c, 0, 67, 80
1, 36695, Note_on_c, 0, 67, 0
1, 36720, Note_on_c, 0, 67, 80
1, 36833, Note_on_c, 0, 67, 0
1, 36840, Note_on_c, 0, 64, 80
1, 36953, Note_on_c, 0, 64, 0
1, 36960, Note_on_c, 0, 67, 80
1, 37187, Note_on_c, 0, 67, 0
1, 37200, Note_on_c, 0, 67, 80
1, 37655, Note_on_c, 0, 67, 0
1, 37680, Note_on_c, 0, 67, 80
1, 38135, Note_on_c, 0, 67, 0
1, 38160, Note_on_c, 0, 71, 80
1, 38843, Note_on_c, 0, 71, 0
1, 38880, Note_on_c, 0, 71, 80
1, 39335, Note_on_c, 0, 71, 0
1, 39360, Note_on_c, 0, 74, 80
1, 39815, Note_on_c, 0, 74, 0
1, 39840, Note_on_c, 0, 72, 80
1, 40067, Note_on_c, 0, 72, 0
1, 40080, Note_on_c, 0, 74, 80
1, 40307, Note_on_c, 0, 74, 0
1, 40320, Note_on_c, 0, 76, 80
1, 40547, Note_on_c, 0, 76, 0
1, 40560, Note_on_c, 0, 79, 80
1, 41015, Note_on_c, 0, 79, 0
1, 41040, Note_on_c, 0, 81, 80
1, 41267, Note_on_c, 0, 81, 0
1, 41280, Note_on_c, 0, 79, 80
1, 41735, Note_on_c, 0, 79, 0
1, 41760, Note_on_c, 0, 67, 80
1, 41987, Note_on_c, 0, 67, 0
1, 42000, Note_on_c, 0, 67, 80
1, 42227, Note_on_c, 0, 67, 0
1, 42240, Note_on_c, 0, 69, 80
1, 42467, Note_on_c, 0, 69, 0
1, 42480, Note_on_c, 0, 67, 80
1, 42707, Note_on_c, 0, 67, 0
1, 42720, Note_on_c, 0, 71, 80
1, 42947, Note_on_c, 0, 71, 0
1, 42960, Note_on_c, 0, 69, 80
1, 43415, Note_on_c, 0, 69, 0
1, 43440, Note_on_c, 0, 69, 80
1, 43895, Note_on_c, 0, 69, 0
1, 43920, Note_on_c, 0, 67, 80
1, 44375, Note_on_c, 0, 67, 0
1, 44400, Note_on_c, 0, 69, 80
1, 44855, Note_on_c, 0, 69, 0
1, 44880, Note_on_c, 0, 71, 80
1, 45107, Note_on_c, 0, 71, 0
1, 45120, Note_on_c, 0, 64, 80
1, 45120, Note_on_c, 0, 67, 80
1, 46031, Note_on_c, 0, 67, 0
1, 46145, Note_on_c, 0, 64, 0
1, 46320, Note_on_c, 0, 74, 80
1, 46433, Note_on_c, 0, 74, 0
1, 46440, Note_on_c, 0, 76, 80
1, 46553, Note_on_c, 0, 76, 0
1, 46560, Note_on_c, 0, 71, 80
1, 46787, Note_on_c, 0, 71, 0
1, 46800, Note_on_c, 0, 67, 80
1, 47255, Note_on_c, 0, 67, 0
1, 47280, Note_on_c, 0, 67, 80
1, 47393, Note_on_c, 0, 67, 0
1, 47400, Note_on_c, 0, 64, 80
1, 47513, Note_on_c, 0, 64, 0
1, 47520, Note_on_c, 0, 67, 80
1, 47633, Note_on_c, 0, 67, 0
1, 47640, Note_on_c, 0, 64, 80
1, 47753, Note_on_c, 0, 64, 0
1, 47760, Note_on_c, 0, 67, 80
1, 47987, Note_on_c, 0, 67, 0
1, 48000, Note_on_c, 0, 67, 80
1, 48113, Note_on_c, 0, 67, 0
1, 48120, Note_on_c, 0, 67, 80
1, 48347, Note_on_c, 0, 67, 0
1, 48360, Note_on_c, 0, 64, 80
1, 48473, Note_on_c, 0, 64, 0
1, 48480, Note_on_c, 0, 67, 80
1, 48593, Note_on_c, 0, 67, 0
1, 48600, Note_on_c, 0, 67, 80
1, 48713, Note_on_c, 0, 67, 0
1, 48720, Note_on_c, 0, 67, 80
1, 48947, Note_on_c, 0, 67, 0
1, 48960, Note_on_c, 0, 67, 80
1, 49187, Note_on_c, 0, 67, 0
1, 49200, Note_on_c, 0, 67, 80
1, 49427, Note_on_c, 0, 67, 0
1, 49440, Note_on_c, 0, 67, 80
1, 49553, Note_on_c, 0, 67, 0
1, 49560, Note_on_c, 0, 67, 80
1, 49673, Note_on_c, 0, 67, 0
1, 49680, Note_on_c, 0, 67, 80
1, 49907, Note_on_c, 0, 67, 0
1, 49920, Note_on_c, 0, 71, 80
1, 50033, Note_on_c, 0, 71, 0
1, 50040, Note_on_c, 0, 67, 80
1, 50153, Note_on_c, 0, 67, 0
1, 50160, Note_on_c, 0, 67, 80
1, 50273, Note_on_c, 0, 67, 0
1, 50280, Note_on_c, 0, 67, 80
1, 50393, Note_on_c, 0, 67, 0
1, 50400, Note_on_c, 0, 71, 80
1, 50513, Note_on_c, 0, 71, 0
1, 50520, Note_on_c, 0, 71, 80
1, 50633, Note_on_c, 0, 71, 0
1, 50640, Note_on_c, 0, 74, 80
1, 50753, Note_on_c, 0, 74, 0
1, 50760, Note_on_c, 0, 72, 80
1, 50987, Note_on_c, 0, 72, 0
1, 51000, Note_on_c, 0, 71, 80
1, 51227, Note_on_c, 0, 71, 0
1, 51240, Note_on_c, 0, 67, 80
1, 51353, Note_on_c, 0, 67, 0
1, 51360, Note_on_c, 0, 69, 80
1, 51473, Note_on_c, 0, 69, 0
1, 51480, Note_on_c, 0, 71, 80
1, 51821, Note_on_c, 0, 71, 0
1, 51840, Note_on_c, 0, 67, 80
1, 51953, Note_on_c, 0, 67, 0
1, 51960, Note_on_c, 0, 67, 80
1, 52073, Note_on_c, 0, 67, 0
1, 52080, Note_on_c, 0, 67, 80
1, 52193, Note_on_c, 0, 67, 0
1, 52200, Note_on_c, 0, 69, 80
1, 52313, Note_on_c, 0, 69, 0
1, 52320, Note_on_c, 0, 71, 80
1, 52547, Note_on_c, 0, 71, 0
1, 52560, Note_on_c, 0, 67, 80
1, 52673, Note_on_c, 0, 67, 0
1, 52680, Note_on_c, 0, 67, 80
1, 52793, Note_on_c, 0, 67, 0
1, 52800, Note_on_c, 0, 69, 80
1, 52913, Note_on_c, 0, 69, 0
1, 52920, Note_on_c, 0, 64, 80
1, 53033, Note_on_c, 0, 64, 0
1, 53040, Note_on_c, 0, 64, 80
1, 53267, Note_on_c, 0, 64, 0
1, 53280, Note_on_c, 0, 64, 80
1, 53393, Note_on_c, 0, 64, 0
1, 53400, Note_on_c, 0, 62, 80
1, 53627, Note_on_c, 0, 62, 0
1, 53640, Note_on_c, 0, 62, 80
1, 53753, Note_on_c, 0, 62, 0
1, 53760, Note_on_c, 0, 71, 80
1, 53987, Note_on_c, 0, 71, 0
1, 54000, Note_on_c, 0, 74, 80
1, 54227, Note_on_c, 0, 74, 0
1, 54240, Note_on_c, 0, 76, 80
1, 54581, Note_on_c, 0, 76, 0
1, 54600, Note_on_c, 0, 74, 80
1, 54713, Note_on_c, 0, 74, 0
1, 54720, Note_on_c, 0, 71, 80
1, 54833, Note_on_c, 0, 71, 0
1, 54840, Note_on_c, 0, 67, 80
1, 54953, Note_on_c, 0, 67, 0
1, 54960, Note_on_c, 0, 67, 80
1, 55073, Note_on_c, 0, 67, 0
1, 55080, Note_on_c, 0, 67, 80
1, 55193, Note_on_c, 0, 67, 0
1, 55200, Note_on_c, 0, 67, 80
1, 55541, Note_on_c, 0, 67, 0
1, 55560, Note_on_c, 0, 67, 80
1, 55673, Note_on_c, 0, 67, 0
1, 55680, Note_on_c, 0, 71, 80
1, 55793, Note_on_c, 0, 71, 0
1, 55800, Note_on_c, 0, 71, 80
1, 55913, Note_on_c, 0, 71, 0
1, 55920, Note_on_c, 0, 74, 80
1, 56033, Note_on_c, 0, 74, 0
1, 56040, Note_on_c, 0, 74, 80
1, 56153, Note_on_c, 0, 74, 0
1, 56160, Note_on_c, 0, 72, 80
1, 56387, Note_on_c, 0, 72, 0
1, 56400, Note_on_c, 0, 71, 80
1, 56513, Note_on_c, 0, 71, 0
1, 56520, Note_on_c, 0, 71, 80
1, 56633, Note_on_c, 0, 71, 0
1, 56640, Note_on_c, 0, 71, 80
1, 56753, Note_on_c, 0, 71, 0
1, 56760, Note_on_c, 0, 64, 80
1, 56873, Note_on_c, 0, 64, 0
1, 56880, Note_on_c, 0, 64, 80
1, 57107, Note_on_c, 0, 64, 0
1, 57120, Note_on_c, 0, 64, 80
1, 57461, Note_on_c, 0, 64, 0
1, 57480, Note_on_c, 0, 62, 80
1, 57593, Note_on_c, 0, 62, 0
1, 57600, Note_on_c, 0, 76, 80
1, 57827, Note_on_c, 0, 76, 0
1, 57840, Note_on_c, 0, 74, 80
1, 58067, Note_on_c, 0, 74, 0
1, 58080, Note_on_c, 0, 74, 80
1, 58535, Note_on_c, 0, 74, 0
1, 58560, Note_on_c, 0, 71, 80
1, 58673, Note_on_c, 0, 71, 0
1, 58680, Note_on_c, 0, 67, 80
1, 58907, Note_on_c, 0, 67, 0
1, 58920, Note_on_c, 0, 67, 80
1, 59489, Note_on_c, 0, 67, 0
1, 59520, Note_on_c, 0, 67, 80
1, 59633, Note_on_c, 0, 67, 0
1, 59640, Note_on_c, 0, 67, 80
1, 59753, Note_on_c, 0, 67, 0
1, 59760, Note_on_c, 0, 67, 80
1, 59873, Note_on_c, 0, 67, 0
1, 59880, Note_on_c, 0, 69, 80
1, 59993, Note_on_c, 0, 69, 0
1, 60000, Note_on_c, 0, 71, 80
1, 60113, Note_on_c, 0, 71, 0
1, 60120, Note_on_c, 0, 69, 80
1, 60233, Note_on_c, 0, 69, 0
1, 60240, Note_on_c, 0, 67, 80
1, 60353, Note_on_c, 0, 67, 0
1, 60360, Note_on_c, 0, 69, 80
1, 60473, Note_on_c, 0, 69, 0
1, 60480, Note_on_c, 0, 71, 80
1, 60593, Note_on_c, 0, 71, 0
1, 60600, Note_on_c, 0, 64, 80
1, 60713, Note_on_c, 0, 64, 0
1, 60720, Note_on_c, 0, 64, 80
1, 60947, Note_on_c, 0, 64, 0
1, 60960, Note_on_c, 0, 64, 80
1, 61415, Note_on_c, 0, 64, 0
1, 61920, Note_on_c, 0, 71, 80
1, 62147, Note_on_c, 0, 71, 0
1, 62160, Note_on_c, 0, 67, 80
1, 62615, Note_on_c, 0, 67, 0
1, 62640, Note_on_c, 0, 67, 80
1, 62753, Note_on_c, 0, 67, 0
1, 62760, Note_on_c, 0, 64, 80
1, 62873, Note_on_c, 0, 64, 0
1, 62880, Note_on_c, 0, 67, 80
1, 63107, Note_on_c, 0, 67, 0
1, 63120, Note_on_c, 0, 67, 80
1, 63575, Note_on_c, 0, 67, 0
1, 63600, Note_on_c, 0, 67, 80
1, 63713, Note_on_c, 0, 67, 0
1, 63720, Note_on_c, 0, 64, 80
1, 63833, Note_on_c, 0, 64, 0
1, 63840, Note_on_c, 0, 67, 80
1, 64067, Note_on_c, 0, 67, 0
1, 64080, Note_on_c, 0, 67, 80
1, 64535, Note_on_c, 0, 67, 0
1, 64560, Note_on_c, 0, 67, 80
1, 65015, Note_on_c, 0, 67, 0
1, 65040, Note_on_c, 0, 71, 80
1, 65723, Note_on_c, 0, 71, 0
1, 65760, Note_on_c, 0, 71, 80
1, 65987, Note_on_c, 0, 71, 0
1, 66000, Note_on_c, 0, 67, 80
1, 66455, Note_on_c, 0, 67, 0
1, 66480, Note_on_c, 0, 67, 80
1, 66593, Note_on_c, 0, 67, 0
1, 66600, Note_on_c, 0, 64, 80
1, 66713, Note_on_c, 0, 64, 0
1, 66720, Note_on_c, 0, 67, 80
1, 66947, Note_on_c, 0, 67, 0
1, 66960, Note_on_c, 0, 67, 80
1, 67415, Note_on_c, 0, 67, 0
1, 67440, Note_on_c, 0, 67, 80
1, 67553, Note_on_c, 0, 67, 0
1, 67560, Note_on_c, 0, 64, 80
1, 67673, Note_on_c, 0, 64, 0
1, 67680, Note_on_c, 0, 67, 80
1, 67907, Note_on_c, 0, 67, 0
1, 67920, Note_on_c, 0, 67, 80
1, 68375, Note_on_c, 0, 67, 0
1, 68400, Note_on_c, 0, 67, 80
1, 68855, Note_on_c, 0, 67, 0
1, 68880, Note_on_c, 0, 71, 80
1, 69563, Note_on_c, 0, 71, 0
1, 69600, Note_on_c, 0, 71, 80
1, 70055, Note_on_c, 0, 71, 0
1, 70080, Note_on_c, 0, 74, 80
1, 70535, Note_on_c, 0, 74, 0
1, 70560, Note_on_c, 0, 72, 80
1, 70787, Note_on_c, 0, 72, 0
1, 70800, Note_on_c, 0, 74, 80
1, 71027, Note_on_c, 0, 74, 0
1, 71040, Note_on_c, 0, 76, 80
1, 71267, Note_on_c, 0, 76, 0
1, 71280, Note_on_c, 0, 79, 80
1, 71735, Note_on_c, 0, 79, 0
1, 71760, Note_on_c, 0, 81, 80
1, 71987, Note_on_c, 0, 81, 0
1, 72000, Note_on_c, 0, 79, 80
1, 72455, Note_on_c, 0, 79, 0
1, 72480, Note_on_c, 0, 67, 80
1, 72707, Note_on_c, 0, 67, 0
1, 72720, Note_on_c, 0, 67, 80
1, 72947, Note_on_c, 0, 67, 0
1, 72960, Note_on_c, 0, 69, 80
1, 73187, Note_on_c, 0, 69, 0
1, 73200, Note_on_c, 0, 67, 80
1, 73427, Note_on_c, 0, 67, 0
1, 73440, Note_on_c, 0, 71, 80
1, 73667, Note_on_c, 0, 71, 0
1, 73680, Note_on_c, 0, 69, 80
1, 74135, Note_on_c, 0, 69, 0
1, 74160, Note_on_c, 0, 69, 80
1, 74615, Note_on_c, 0, 69, 0
1, 74640, Note_on_c, 0, 67, 80
1, 75095, Note_on_c, 0, 67, 0
1, 75120, Note_on_c, 0, 69, 80
1, 75575, Note_on_c, 0, 69, 0
1, 75600, Note_on_c, 0, 71, 80
1, 75827, Note_on_c, 0, 71, 0
1, 75840, Note_on_c, 0, 64, 80
1, 75840, Note_on_c, 0, 67, 80
1, 77207, Note_on_c, 0, 64, 0
1, 77207, Note_on_c, 0, 67, 0
1, 77280, Note_on_c, 0, 74, 80
1, 77735, Note_on_c, 0, 74, 0
1, 77760, Note_on_c, 0, 71, 80
1, 78215, Note_on_c, 0, 71, 0
1, 78240, Note_on_c, 0, 69, 80
1, 78467, Note_on_c, 0, 69, 0
1, 78480, Note_on_c, 0, 67, 80
1, 78935, Note_on_c, 0, 67, 0
1, 78960, Note_on_c, 0, 71, 80
1, 79415, Note_on_c, 0, 71, 0
1, 79440, Note_on_c, 0, 72, 80
1, 79667, Note_on_c, 0, 72, 0
1, 79680, Note_on_c, 0, 71, 80
1, 80135, Note_on_c, 0, 71, 0
1, 80160, Note_on_c, 0, 69, 80
1, 80387, Note_on_c, 0, 69, 0
1, 80400, Note_on_c, 0, 67, 80
1, 80627, Note_on_c, 0, 67, 0
1, 80640, Note_on_c, 0, 64, 80
1, 80867, Note_on_c, 0, 64, 0
1, 80880, Note_on_c, 0, 62, 80
1, 81107, Note_on_c, 0, 62, 0
1, 81120, Note_on_c, 0, 74, 80
1, 81575, Note_on_c, 0, 74, 0
1, 81600, Note_on_c, 0, 71, 80
1, 82055, Note_on_c, 0, 71, 0
1, 82080, Note_on_c, 0, 69, 80
1, 82307, Note_on_c, 0, 69, 0
1, 82320, Note_on_c, 0, 67, 80
1, 82775, Note_on_c, 0, 67, 0
1, 82800, Note_on_c, 0, 71, 80
1, 83255, Note_on_c, 0, 71, 0
1, 83280, Note_on_c, 0, 72, 80
1, 83507, Note_on_c, 0, 72, 0
1, 83520, Note_on_c, 0, 71, 80
1, 83975, Note_on_c, 0, 71, 0
1, 84000, Note_on_c, 0, 69, 80
1, 84227, Note_on_c, 0, 69, 0
1, 84240, Note_on_c, 0, 67, 80
1, 84467, Note_on_c, 0, 67, 0
1, 84480, Note_on_c, 0, 64, 80
1, 84707, Note_on_c, 0, 64, 0
1, 84720, Note_on_c, 0, 62, 80
1, 84947, Note_on_c, 0, 62, 0
1, 84960, Note_on_c, 0, 74, 80
1, 85415, Note_on_c, 0, 74, 0
1, 85440, Note_on_c, 0, 71, 80
1, 85895, Note_on_c, 0, 71, 0
1, 85920, Note_on_c, 0, 69, 80
1, 86147, Note_on_c, 0, 69, 0
1, 86160, Note_on_c, 0, 67, 80
1, 86615, Note_on_c, 0, 67, 0
1, 86640, Note_on_c, 0, 71, 80
1, 87095, Note_on_c, 0, 71, 0
1, 87120, Note_on_c, 0, 72, 80
1, 87347, Note_on_c, 0, 72, 0
1, 87360, Note_on_c, 0, 71, 80
1, 87815, Note_on_c, 0, 71, 0
1, 87840, Note_on_c, 0, 69, 80
1, 88067, Note_on_c, 0, 69, 0
1, 88080, Note_on_c, 0, 67, 80
1, 88307, Note_on_c, 0, 67, 0
1, 88320, Note_on_c, 0, 64, 80
1, 88547, Note_on_c, 0, 64, 0
1, 88560, Note_on_c, 0, 62, 80
1, 88787, Note_on_c, 0, 62, 0
1, 88800, Note_on_c, 0, 74, 80
1, 89255, Note_on_c, 0, 74, 0
1, 89280, Note_on_c, 0, 71, 80
1, 89735, Note_on_c, 0, 71, 0
1, 89760, Note_on_c, 0, 69, 80
1, 89987, Note_on_c, 0, 69, 0
1, 90000, Note_on_c, 0, 67, 80
1, 90455, Note_on_c, 0, 67, 0
1, 90480, Note_on_c, 0, 69, 80
1, 90935, Note_on_c, 0, 69, 0
1, 90960, Note_on_c, 0, 71, 80
1, 91187, Note_on_c, 0, 71, 0
1, 91200, Note_on_c, 0, 64, 80
1, 92567, Note_on_c, 0, 64, 0
1, 92640, Note_on_c, 0, 71, 80
1, 92867, Note_on_c, 0, 71, 0
1, 92880, Note_on_c, 0, 67, 80
1, 93335, Note_on_c, 0, 67, 0
1, 93360, Note_on_c, 0, 67, 80
1, 93473, Note_on_c, 0, 67, 0
1, 93480, Note_on_c, 0, 64, 80
1, 93593, Note_on_c, 0, 64, 0
1, 93600, Note_on_c, 0, 67, 80
1, 93827, Note_on_c, 0, 67, 0
1, 93840, Note_on_c, 0, 67, 80
1, 94295, Note_on_c, 0, 67, 0
1, 94320, Note_on_c, 0, 67, 80
1, 94433, Note_on_c, 0, 67, 0
1, 94440, Note_on_c, 0, 64, 80
1, 94553, Note_on_c, 0, 64, 0
1, 94560, Note_on_c, 0, 67, 80
1, 94787, Note_on_c, 0, 67, 0
1, 94800, Note_on_c, 0, 67, 80
1, 95255, Note_on_c, 0, 67, 0
1, 95280, Note_on_c, 0, 67, 80
1, 95735, Note_on_c, 0, 67, 0
1, 95760, Note_on_c, 0, 71, 80
1, 96443, Note_on_c, 0, 71, 0
1, 96480, Note_on_c, 0, 71, 80
1, 96707, Note_on_c, 0, 71, 0
1, 96720, Note_on_c, 0, 67, 80
1, 97175, Note_on_c, 0, 67, 0
1, 97200, Note_on_c, 0, 67, 80
1, 97313, Note_on_c, 0, 67, 0
1, 97320, Note_on_c, 0, 64, 80
1, 97433, Note_on_c, 0, 64, 0
1, 97440, Note_on_c, 0, 67, 80
1, 97667, Note_on_c, 0, 67, 0
1, 97680, Note_on_c, 0, 67, 80
1, 98135, Note_on_c, 0, 67, 0
1, 98160, Note_on_c, 0, 67, 80
1, 98273, Note_on_c, 0, 67, 0
1, 98280, Note_on_c, 0, 64, 80
1, 98393, Note_on_c, 0, 64, 0
1, 98400, Note_on_c, 0, 67, 80
1, 98627, Note_on_c, 0, 67, 0
1, 98640, Note_on_c, 0, 67, 80
1, 99095, Note_on_c, 0, 67, 0
1, 99120, Note_on_c, 0, 67, 80
1, 99575, Note_on_c, 0, 67, 0
1, 99600, Note_on_c, 0, 71, 80
1, 100283, Note_on_c, 0, 71, 0
1, 100320, Note_on_c, 0, 71, 80
1, 100775, Note_on_c, 0, 71, 0
1, 100800, Note_on_c, 0, 74, 80
1, 101255, Note_on_c, 0, 74, 0
1, 101280, Note_on_c, 0, 72, 80
1, 101507, Note_on_c, 0, 72, 0
1, 101520, Note_on_c, 0, 74, 80
1, 101747, Note_on_c, 0, 74, 0
1, 101760, Note_on_c, 0, 76, 80
1, 101987, Note_on_c, 0, 76, 0
1, 102000, Note_on_c, 0, 79, 80
1, 103139, Note_on_c, 0, 79, 0
1, 103200, Note_on_c, 0, 67, 80
1, 103427, Note_on_c, 0, 67, 0
1, 103440, Note_on_c, 0, 67, 80
1, 103667, Note_on_c, 0, 67, 0
1, 103680, Note_on_c, 0, 69, 80
1, 103907, Note_on_c, 0, 69, 0
1, 103920, Note_on_c, 0, 67, 80
1, 104147, Note_on_c, 0, 67, 0
1, 104160, Note_on_c, 0, 74, 80
1, 104387, Note_on_c, 0, 74, 0
1, 104400, Note_on_c, 0, 71, 80
1, 105425, Note_on_c, 0, 71, 0
1, 105600, Note_on_c, 0, 67, 80
1, 106055, Note_on_c, 0, 67, 0
1, 106080, Note_on_c, 0, 74, 80
1, 106307, Note_on_c, 0, 74, 0
1, 106320, Note_on_c, 0, 71, 80
1, 106547, Note_on_c, 0, 71, 0
1, 106560, Note_on_c, 0, 71, 80
1, 107015, Note_on_c, 0, 71, 0
1, 107040, Note_on_c, 0, 69, 80
1, 107267, Note_on_c, 0, 69, 0
1, 107280, Note_on_c, 0, 67, 80
1, 107507, Note_on_c, 0, 67, 0
1, 107520, Note_on_c, 0, 67, 80
1, 107747, Note_on_c, 0, 67, 0
1, 107760, Note_on_c, 0, 72, 80
1, 108215, Note_on_c, 0, 72, 0
1, 108240, Note_on_c, 0, 71, 80
1, 108467, Note_on_c, 0, 71, 0
1, 108480, Note_on_c, 0, 71, 80
1, 108707, Note_on_c, 0, 71, 0
1, 108720, Note_on_c, 0, 69, 80
1, 108947, Note_on_c, 0, 69, 0
1, 108960, Note_on_c, 0, 69, 80
1, 109187, Note_on_c, 0, 69, 0
1, 109200, Note_on_c, 0, 67, 80
1, 109427, Note_on_c, 0, 67, 0
1, 109440, Note_on_c, 0, 67, 80
1, 109667, Note_on_c, 0, 67, 0
1, 109680, Note_on_c, 0, 67, 80
1, 109907, Note_on_c, 0, 67, 0
1, 109920, Note_on_c, 0, 74, 80
1, 110147, Note_on_c, 0, 74, 0
1, 110160, Note_on_c, 0, 71, 80
1, 110387, Note_on_c, 0, 71, 0
1, 110400, Note_on_c, 0, 71, 80
1, 110627, Note_on_c, 0, 71, 0
1, 110640, Note_on_c, 0, 71, 80
1, 110867, Note_on_c, 0, 71, 0
1, 110880, Note_on_c, 0, 69, 80
1, 111107, Note_on_c, 0, 69, 0
1, 111120, Note_on_c, 0, 67, 80
1, 111347, Note_on_c, 0, 67, 0
1, 111360, Note_on_c, 0, 67, 80
1, 111587, Note_on_c, 0, 67, 0
1, 111600, Note_on_c, 0, 64, 80
1, 111600, Note_on_c, 0, 69, 80
1, 111827, Note_on_c, 0, 69, 0
1, 112055, Note_on_c, 0, 64, 0
1, 112080, Note_on_c, 0, 62, 80
1, 112763, Note_on_c, 0, 62, 0
1, 113280, Note_on_c, 0, 76, 80
1, 113393, Note_on_c, 0, 76, 0
1, 113400, Note_on_c, 0, 74, 80
1, 113627, Note_on_c, 0, 74, 0
1, 113640, Note_on_c, 0, 74, 80
1, 114209, Note_on_c, 0, 74, 0
1, 114240, Note_on_c, 0, 71, 80
1, 114353, Note_on_c, 0, 71, 0
1, 114360, Note_on_c, 0, 69, 80
1, 114473, Note_on_c, 0, 69, 0
1, 114480, Note_on_c, 0, 71, 80
1, 114707, Note_on_c, 0, 71, 0
1, 114720, Note_on_c, 0, 69, 80
1, 115175, Note_on_c, 0, 69, 0
1, 115200, Note_on_c, 0, 74, 80
1, 115313, Note_on_c, 0, 74, 0
1, 115320, Note_on_c, 0, 74, 80
1, 115547, Note_on_c, 0, 74, 0
1, 115560, Note_on_c, 0, 72, 80
1, 115787, Note_on_c, 0, 72, 0
1, 115800, Note_on_c, 0, 71, 80
1, 115913, Note_on_c, 0, 71, 0
1, 115920, Note_on_c, 0, 72, 80
1, 116033, Note_on_c, 0, 72, 0
1, 116040, Note_on_c, 0, 71, 80
1, 116153, Note_on_c, 0, 71, 0
1, 116160, Note_on_c, 0, 72, 80
1, 116387, Note_on_c, 0, 72, 0
1, 116400, Note_on_c, 0, 67, 80
1, 116627, Note_on_c, 0, 67, 0
1, 116640, Note_on_c, 0, 64, 80
1, 116867, Note_on_c, 0, 64, 0
1, 116880, Note_on_c, 0, 62, 80
1, 117107, Note_on_c, 0, 62, 0
1, 117120, Note_on_c, 0, 64, 80
1, 117347, Note_on_c, 0, 64, 0
1, 117360, Note_on_c, 0, 62, 80
1, 117587, Note_on_c, 0, 62, 0
1, 117600, Note_on_c, 0, 74, 80
1, 118055, Note_on_c, 0, 74, 0
1, 118080, Note_on_c, 0, 71, 80
1, 118307, Note_on_c, 0, 71, 0
1, 118320, Note_on_c, 0, 71, 80
1, 118547, Note_on_c, 0, 71, 0
1, 118560, Note_on_c, 0, 69, 80
1, 118787, Note_on_c, 0, 69, 0
1, 118800, Note_on_c, 0, 67, 80
1, 119255, Note_on_c, 0, 67, 0
1, 119280, Note_on_c, 0, 69, 80
1, 119735, Note_on_c, 0, 69, 0
1, 119760, Note_on_c, 0, 71, 80
1, 120443, Note_on_c, 0, 71, 0
1, 121200, Note_on_c, 0, 67, 80
1, 121427, Note_on_c, 0, 67, 0
1, 121440, Tempo, 612245
1, 121440, Note_on_c, 0, 71, 80
1, 121895, Note_on_c, 0, 71, 0
1, 121920, Note_on_c, 0, 74, 80
1, 122375, Note_on_c, 0, 74, 0
1, 122400, Tempo, 625000
1, 122400, Note_on_c, 0, 72, 80
1, 122627, Note_on_c, 0, 72, 0
1, 122640, Note_on_c, 0, 74, 80
1, 122867, Note_on_c, 0, 74, 0
1, 122880, Note_on_c, 0, 76, 80
1, 123107, Note_on_c, 0, 76, 0
1, 123120, Note_on_c, 0, 79, 80
1, 123360, Tempo, 638298
1, 123575, Note_on_c, 0, 79, 0
1, 123600, Note_on_c, 0, 81, 80
1, 123827, Note_on_c, 0, 81, 0
1, 123840, Note_on_c, 0, 79, 80
1, 124295, Note_on_c, 0, 79, 0
1, 124320, Tempo, 652174
1, 124320, Note_on_c, 0, 67, 80
1, 124547, Note_on_c, 0, 67, 0
1, 124560, Note_on_c, 0, 67, 80
1, 124787, Note_on_c, 0, 67, 0
1, 124800, Note_on_c, 0, 69, 80
1, 125027, Note_on_c, 0, 69, 0
1, 125040, Note_on_c, 0, 67, 80
1, 125267, Note_on_c, 0, 67, 0
1, 125280, Tempo, 666667
1, 125280, Note_on_c, 0, 71, 80
1, 125507, Note_on_c, 0, 71, 0
1, 125520, Note_on_c, 0, 69, 80
1, 125975, Note_on_c, 0, 69, 0
1, 126000, Note_on_c, 0, 69, 80
1, 126455, Note_on_c, 0, 69, 0
1, 126480, Note_on_c, 0, 67, 80
1, 126935, Note_on_c, 0, 67, 0
1, 126960, Note_on_c, 0, 69, 80
1, 127415, Note_on_c, 0, 69, 0
1, 127440, Note_on_c, 0, 71, 80
1, 127667, Note_on_c, 0, 71, 0
1, 127680, Note_on_c, 0, 64, 80
1, 129047, Note_on_c, 0, 64, 0
1, 129048, End_track
2, 0, Start_track
2, 0, Title_t, "Piano, Piano\000"
2, 0, Key_signature, 0, "major"
2, 0, Control_c, 1, 121, 0
2, 0, Program_c, 1, 0
2, 0, Control_c, 1, 7, 100
2, 0, Control_c, 1, 10, 64
2, 0, Control_c, 1, 91, 0
2, 0, Control_c, 1, 93, 0
2, 0, MIDI_port, 0
2, 480, Note_on_c, 1, 55, 80
2, 1163, Note_on_c, 1, 55, 0
2, 1200, Note_on_c, 1, 60, 80
2, 1427, Note_on_c, 1, 60, 0
2, 1440, Note_on_c, 1, 62, 80
2, 2123, Note_on_c, 1, 62, 0
2, 2160, Note_on_c, 1, 64, 80
2, 2387, Note_on_c, 1, 64, 0
2, 2400, Note_on_c, 1, 57, 80
2, 3083, Note_on_c, 1, 57, 0
2, 3120, Note_on_c, 1, 59, 80
2, 3347, Note_on_c, 1, 59, 0
2, 3360, Note_on_c, 1, 60, 80
2, 4043, Note_on_c, 1, 60, 0
2, 4080, Note_on_c, 1, 62, 80
2, 4307, Note_on_c, 1, 62, 0
2, 4320, Note_on_c, 1, 55, 80
2, 5003, Note_on_c, 1, 55, 0
2, 5040, Note_on_c, 1, 60, 80
2, 5267, Note_on_c, 1, 60, 0
2, 5280, Note_on_c, 1, 62, 80
2, 6191, Note_on_c, 1, 62, 0
2, 6240, Note_on_c, 1, 57, 80
2, 6923, Note_on_c, 1, 57, 0
2, 6960, Note_on_c, 1, 59, 80
2, 7187, Note_on_c, 1, 59, 0
2, 7200, Note_on_c, 1, 60, 80
2, 7883, Note_on_c, 1, 60, 0
2, 7920, Note_on_c, 1, 62, 80
2, 8147, Note_on_c, 1, 62, 0
2, 16320, Note_on_c, 1, 59, 80
2, 16775, Note_on_c, 1, 59, 0
2, 17040, Note_on_c, 1, 62, 80
2, 17267, Note_on_c, 1, 62, 0
2, 17280, Note_on_c, 1, 62, 80
2, 17735, Note_on_c, 1, 62, 0
2, 18240, Note_on_c, 1, 57, 80
2, 18240, Note_on_c, 1, 60, 80
2, 18695, Note_on_c, 1, 57, 0
2, 18695, Note_on_c, 1, 60, 0
2, 18960, Note_on_c, 1, 60, 80
2, 18960, Note_on_c, 1, 64, 80
2, 19187, Note_on_c, 1, 60, 0
2, 19187, Note_on_c, 1, 64, 0
2, 19200, Note_on_c, 1, 60, 80
2, 19200, Note_on_c, 1, 64, 80
2, 19655, Note_on_c, 1, 60, 0
2, 19655, Note_on_c, 1, 64, 0
2, 20160, Note_on_c, 1, 59, 80
2, 20160, Note_on_c, 1, 62, 80
2, 20615, Note_on_c, 1, 59, 0
2, 20615, Note_on_c, 1, 62, 0
2, 20880, Note_on_c, 1, 62, 80
2, 21107, Note_on_c, 1, 62, 0
2, 21120, Note_on_c, 1, 62, 80
2, 21575, Note_on_c, 1, 62, 0
2, 22080, Note_on_c, 1, 57, 80
2, 22080, Note_on_c, 1, 60, 80
2, 22535, Note_on_c, 1, 57, 0
2, 22535, Note_on_c, 1, 60, 0
2, 22800, Note_on_c, 1, 60, 80
2, 22800, Note_on_c, 1, 64, 80
2, 23027, Note_on_c, 1, 60, 0
2, 23027, Note_on_c, 1, 64, 0
2, 23040, Note_on_c, 1, 60, 80
2, 23040, Note_on_c, 1, 64, 80
2, 23495, Note_on_c, 1, 60, 0
2, 23495, Note_on_c, 1, 64, 0
2, 24000, Note_on_c, 1, 59, 80
2, 24000, Note_on_c, 1, 62, 80
2, 24455, Note_on_c, 1, 59, 0
2, 24455, Note_on_c, 1, 62, 0
2, 24720, Note_on_c, 1, 62, 80
2, 24947, Note_on_c, 1, 62, 0
2, 24960, Note_on_c, 1, 62, 80
2, 25415, Note_on_c, 1, 62, 0
2, 25920, Note_on_c, 1, 57, 80
2, 25920, Note_on_c, 1, 60, 80
2, 26375, Note_on_c, 1, 57, 0
2, 26375, Note_on_c, 1, 60, 0
2, 26640, Note_on_c, 1, 60, 80
2, 26640, Note_on_c, 1, 64, 80
2, 26867, Note_on_c, 1, 60, 0
2, 26867, Note_on_c, 1, 64, 0
2, 26880, Note_on_c, 1, 60, 80
2, 26880, Note_on_c, 1, 64, 80
2, 27335, Note_on_c, 1, 60, 0
2, 27335, Note_on_c, 1, 64, 0
2, 27840, Note_on_c, 1, 59, 80
2, 27840, Note_on_c, 1, 62, 80
2, 28295, Note_on_c, 1, 59, 0
2, 28295, Note_on_c, 1, 62, 0
2, 28560, Note_on_c, 1, 62, 80
2, 28560, Note_on_c, 1, 67, 80
2, 28787, Note_on_c, 1, 62, 0
2, 28787, Note_on_c, 1, 67, 0
2, 28800, Note_on_c, 1, 62, 80
2, 28800, Note_on_c, 1, 67, 80
2, 29255, Note_on_c, 1, 62, 0
2, 29255, Note_on_c, 1, 67, 0
2, 29760, Note_on_c, 1, 57, 80
2, 29760, Note_on_c, 1, 60, 80
2, 30215, Note_on_c, 1, 57, 0
2, 30215, Note_on_c, 1, 60, 0
2, 30480, Note_on_c, 1, 60, 80
2, 30480, Note_on_c, 1, 64, 80
2, 30707, Note_on_c, 1, 60, 0
2, 30707, Note_on_c, 1, 64, 0
2, 30720, Note_on_c, 1, 60, 80
2, 30720, Note_on_c, 1, 64, 80
2, 30947, Note_on_c, 1, 60, 0
2, 30947, Note_on_c, 1, 64, 0
2, 30960, Note_on_c, 1, 60, 80
2, 31187, Note_on_c, 1, 60, 0
2, 31200, Note_on_c, 1, 55, 80
2, 31427, Note_on_c, 1, 55, 0
2, 31440, Note_on_c, 1, 55, 80
2, 31667, Note_on_c, 1, 55, 0
2, 31680, Note_on_c, 1, 59, 80
2, 31680, Note_on_c, 1, 62, 80
2, 31680, Note_on_c, 1, 67, 80
2, 32135, Note_on_c, 1, 59, 0
2, 32135, Note_on_c, 1, 62, 0
2, 32135, Note_on_c, 1, 67, 0
2, 32160, Note_on_c, 1, 60, 80
2, 32387, Note_on_c, 1, 60, 0
2, 32400, Note_on_c, 1, 60, 80
2, 32627, Note_on_c, 1, 60, 0
2, 32640, Note_on_c, 1, 60, 80
2, 32640, Note_on_c, 1, 64, 80
2, 32640, Note_on_c, 1, 67, 80
2, 33095, Note_on_c, 1, 60, 0
2, 33095, Note_on_c, 1, 64, 0
2, 33095, Note_on_c, 1, 67, 0
2, 33120, Note_on_c, 1, 60, 80
2, 33347, Note_on_c, 1, 60, 0
2, 33360, Note_on_c, 1, 60, 80
2, 33587, Note_on_c, 1, 60, 0
2, 33600, Note_on_c, 1, 60, 80
2, 33600, Note_on_c, 1, 64, 80
2, 33600, Note_on_c, 1, 67, 80
2, 34055, Note_on_c, 1, 60, 0
2, 34055, Note_on_c, 1, 64, 0
2, 34055, Note_on_c, 1, 67, 0
2, 34080, Note_on_c, 1, 60, 80
2, 34307, Note_on_c, 1, 60, 0
2, 34320, Note_on_c, 1, 60, 80
2, 34547, Note_on_c, 1, 60, 0
2, 34560, Note_on_c, 1, 60, 80
2, 34560, Note_on_c, 1, 64, 80
2, 34560, Note_on_c, 1, 67, 80
2, 35015, Note_on_c, 1, 60, 0
2, 35015, Note_on_c, 1, 64, 0
2, 35015, Note_on_c, 1, 67, 0
2, 35040, Note_on_c, 1, 55, 80
2, 35267, Note_on_c, 1, 55, 0
2, 35280, Note_on_c, 1, 55, 80
2, 35507, Note_on_c, 1, 55, 0
2, 35520, Note_on_c, 1, 59, 80
2, 35520, Note_on_c, 1, 62, 80
2, 35520, Note_on_c, 1, 67, 80
2, 35975, Note_on_c, 1, 59, 0
2, 35975, Note_on_c, 1, 62, 0
2, 35975, Note_on_c, 1, 67, 0
2, 36000, Note_on_c, 1, 60, 80
2, 36227, Note_on_c, 1, 60, 0
2, 36240, Note_on_c, 1, 60, 80
2, 36467, Note_on_c, 1, 60, 0
2, 36480, Note_on_c, 1, 60, 80
2, 36480, Note_on_c, 1, 64, 80
2, 36480, Note_on_c, 1, 67, 80
2, 36935, Note_on_c, 1, 60, 0
2, 36935, Note_on_c, 1, 64, 0
2, 36935, Note_on_c, 1, 67, 0
2, 36960, Note_on_c, 1, 60, 80
2, 37187, Note_on_c, 1, 60, 0
2, 37200, Note_on_c, 1, 60, 80
2, 37427, Note_on_c, 1, 60, 0
2, 37440, Note_on_c, 1, 60, 80
2, 37440, Note_on_c, 1, 64, 80
2, 37440, Note_on_c, 1, 67, 80
2, 37895, Note_on_c, 1, 60, 0
2, 37895, Note_on_c, 1, 64, 0
2, 37895, Note_on_c, 1, 67, 0
2, 37920, Note_on_c, 1, 60, 80
2, 38147, Note_on_c, 1, 60, 0
2, 38160, Note_on_c, 1, 60, 80
2, 38387, Note_on_c, 1, 60, 0
2, 38400, Note_on_c, 1, 60, 80
2, 38400, Note_on_c, 1, 64, 80
2, 38400, Note_on_c, 1, 67, 80
2, 38855, Note_on_c, 1, 60, 0
2, 38855, Note_on_c, 1, 64, 0
2, 38855, Note_on_c, 1, 67, 0
2, 38880, Note_on_c, 1, 55, 80
2, 39107, Note_on_c, 1, 55, 0
2, 39120, Note_on_c, 1, 55, 80
2, 39347, Note_on_c, 1, 55, 0
2, 39360, Note_on_c, 1, 59, 80
2, 39360, Note_on_c, 1, 62, 80
2, 39360, Note_on_c, 1, 67, 80
2, 39815, Note_on_c, 1, 59, 0
2, 39815, Note_on_c, 1, 62, 0
2, 39815, Note_on_c, 1, 67, 0
2, 39840, Note_on_c, 1, 60, 80
2, 40067, Note_on_c, 1, 60, 0
2, 40080, Note_on_c, 1, 60, 80
2, 40307, Note_on_c, 1, 60, 0
2, 40320, Note_on_c, 1, 60, 80
2, 40320, Note_on_c, 1, 64, 80
2, 40320, Note_on_c, 1, 67, 80
2, 40775, Note_on_c, 1, 60, 0
2, 40775, Note_on_c, 1, 64, 0
2, 40775, Note_on_c, 1, 67, 0
2, 40800, Note_on_c, 1, 60, 80
2, 41027, Note_on_c, 1, 60, 0
2, 41040, Note_on_c, 1, 60, 80
2, 41267, Note_on_c, 1, 60, 0
2, 41280, Note_on_c, 1, 64, 80
2, 41735, Note_on_c, 1, 64, 0
2, 41760, Note_on_c, 1, 60, 80
2, 41987, Note_on_c, 1, 60, 0
2, 42000, Note_on_c, 1, 60, 80
2, 42227, Note_on_c, 1, 60, 0
2, 42240, Note_on_c, 1, 64, 80
2, 42240, Note_on_c, 1, 67, 80
2, 42695, Note_on_c, 1, 64, 0
2, 42695, Note_on_c, 1, 67, 0
2, 42720, Note_on_c, 1, 55, 80
2, 42947, Note_on_c, 1, 55, 0
2, 42960, Note_on_c, 1, 55, 80
2, 43187, Note_on_c, 1, 55, 0
2, 43200, Note_on_c, 1, 59, 80
2, 43200, Note_on_c, 1, 62, 80
2, 43200, Note_on_c, 1, 67, 80
2, 43655, Note_on_c, 1, 59, 0
2, 43655, Note_on_c, 1, 62, 0
2, 43655, Note_on_c, 1, 67, 0
2, 43680, Note_on_c, 1, 57, 80
2, 43907, Note_on_c, 1, 57, 0
2, 43920, Note_on_c, 1, 57, 80
2, 44147, Note_on_c, 1, 57, 0
2, 44160, Note_on_c, 1, 60, 80
2, 44160, Note_on_c, 1, 64, 80
2, 44160, Note_on_c, 1, 69, 80
2, 44615, Note_on_c, 1, 60, 0
2, 44615, Note_on_c, 1, 64, 0
2, 44615, Note_on_c, 1, 69, 0
2, 44640, Note_on_c, 1, 60, 80
2, 44867, Note_on_c, 1, 60, 0
2, 44880, Note_on_c, 1, 60, 80
2, 45107, Note_on_c, 1, 60, 0
2, 45120, Note_on_c, 1, 60, 80
2, 46487, Note_on_c, 1, 60, 0
2, 61920, Note_on_c, 1, 55, 80
2, 62147, Note_on_c, 1, 55, 0
2, 62160, Note_on_c, 1, 55, 80
2, 62387, Note_on_c, 1, 55, 0
2, 62400, Note_on_c, 1, 62, 80
2, 62400, Note_on_c, 1, 67, 80
2, 62855, Note_on_c, 1, 62, 0
2, 62855, Note_on_c, 1, 67, 0
2, 62880, Note_on_c, 1, 60, 80
2, 63107, Note_on_c, 1, 60, 0
2, 63120, Note_on_c, 1, 60, 80
2, 63347, Note_on_c, 1, 60, 0
2, 63360, Note_on_c, 1, 64, 80
2, 63360, Note_on_c, 1, 67, 80
2, 63815, Note_on_c, 1, 64, 0
2, 63815, Note_on_c, 1, 67, 0
2, 63840, Note_on_c, 1, 60, 80
2, 64067, Note_on_c, 1, 60, 0
2, 64080, Note_on_c, 1, 60, 80
2, 64307, Note_on_c, 1, 60, 0
2, 64320, Note_on_c, 1, 64, 80
2, 64320, Note_on_c, 1, 67, 80
2, 64775, Note_on_c, 1, 64, 0
2, 64775, Note_on_c, 1, 67, 0
2, 64800, Note_on_c, 1, 60, 80
2, 65027, Note_on_c, 1, 60, 0
2, 65040, Note_on_c, 1, 60, 80
2, 65267, Note_on_c, 1, 60, 0
2, 65280, Note_on_c, 1, 64, 80
2, 65280, Note_on_c, 1, 67, 80
2, 65735, Note_on_c, 1, 64, 0
2, 65735, Note_on_c, 1, 67, 0
2, 65760, Note_on_c, 1, 55, 80
2, 65987, Note_on_c, 1, 55, 0
2, 66000, Note_on_c, 1, 55, 80
2, 66227, Note_on_c, 1, 55, 0
2, 66240, Note_on_c, 1, 62, 80
2, 66240, Note_on_c, 1, 67, 80
2, 66695, Note_on_c, 1, 62, 0
2, 66695, Note_on_c, 1, 67, 0
2, 66720, Note_on_c, 1, 60, 80
2, 66947, Note_on_c, 1, 60, 0
2, 66960, Note_on_c, 1, 60, 80
2, 67187, Note_on_c, 1, 60, 0
2, 67200, Note_on_c, 1, 64, 80
2, 67200, Note_on_c, 1, 67, 80
2, 67655, Note_on_c, 1, 64, 0
2, 67655, Note_on_c, 1, 67, 0
2, 67680, Note_on_c, 1, 60, 80
2, 67907, Note_on_c, 1, 60, 0
2, 67920, Note_on_c, 1, 60, 80
2, 68147, Note_on_c, 1, 60, 0
2, 68160, Note_on_c, 1, 64, 80
2, 68160, Note_on_c, 1, 67, 80
2, 68615, Note_on_c, 1, 64, 0
2, 68615, Note_on_c, 1, 67, 0
2, 68640, Note_on_c, 1, 60, 80
2, 68867, Note_on_c, 1, 60, 0
2, 68880, Note_on_c, 1, 60, 80
2, 69107, Note_on_c, 1, 60, 0
2, 69120, Note_on_c, 1, 64, 80
2, 69120, Note_on_c, 1, 67, 80
2, 69575, Note_on_c, 1, 64, 0
2, 69575, Note_on_c, 1, 67, 0
2, 69600, Note_on_c, 1, 55, 80
2, 69827, Note_on_c, 1, 55, 0
2, 69840, Note_on_c, 1, 55, 80
2, 70067, Note_on_c, 1, 55, 0
2, 70080, Note_on_c, 1, 62, 80
2, 70080, Note_on_c, 1, 67, 80
2, 70535, Note_on_c, 1, 62, 0
2, 70535, Note_on_c, 1, 67, 0
2, 70560, Note_on_c, 1, 60, 80
2, 70787, Note_on_c, 1, 60, 0
2, 70800, Note_on_c, 1, 60, 80
2, 71027, Note_on_c, 1, 60, 0
2, 71040, Note_on_c, 1, 64, 80
2, 71040, Note_on_c, 1, 67, 80
2, 71495, Note_on_c, 1, 64, 0
2, 71495, Note_on_c, 1, 67, 0
2, 71520, Note_on_c, 1, 60, 80
2, 71747, Note_on_c, 1, 60, 0
2, 71760, Note_on_c, 1, 60, 80
2, 71987, Note_on_c, 1, 60, 0
2, 72000, Note_on_c, 1, 64, 80
2, 72455, Note_on_c, 1, 64, 0
2, 72480, Note_on_c, 1, 60, 80
2, 72707, Note_on_c, 1, 60, 0
2, 72720, Note_on_c, 1, 60, 80
2, 72947, Note_on_c, 1, 60, 0
2, 72960, Note_on_c, 1, 64, 80
2, 72960, Note_on_c, 1, 67, 80
2, 73415, Note_on_c, 1, 64, 0
2, 73415, Note_on_c, 1, 67, 0
2, 73440, Note_on_c, 1, 55, 80
2, 73667, Note_on_c, 1, 55, 0
2, 73680, Note_on_c, 1, 55, 80
2, 73907, Note_on_c, 1, 55, 0
2, 73920, Note_on_c, 1, 62, 80
2, 73920, Note_on_c, 1, 67, 80
2, 74375, Note_on_c, 1, 62, 0
2, 74375, Note_on_c, 1, 67, 0
2, 74400, Note_on_c, 1, 57, 80
2, 74627, Note_on_c, 1, 57, 0
2, 74640, Note_on_c, 1, 57, 80
2, 74867, Note_on_c, 1, 57, 0
2, 74880, Note_on_c, 1, 64, 80
2, 74880, Note_on_c, 1, 69, 80
2, 75335, Note_on_c, 1, 64, 0
2, 75335, Note_on_c, 1, 69, 0
2, 75360, Note_on_c, 1, 60, 80
2, 75587, Note_on_c, 1, 60, 0
2, 75600, Note_on_c, 1, 60, 80
2, 75827, Note_on_c, 1, 60, 0
2, 75840, Note_on_c, 1, 60, 80
2, 77207, Note_on_c, 1, 60, 0
2, 81120, Note_on_c, 1, 62, 80
2, 81575, Note_on_c, 1, 62, 0
2, 81600, Note_on_c, 1, 59, 80
2, 82055, Note_on_c, 1, 59, 0
2, 82080, Note_on_c, 1, 57, 80
2, 82307, Note_on_c, 1, 57, 0
2, 82320, Note_on_c, 1, 55, 80
2, 82775, Note_on_c, 1, 55, 0
2, 82800, Note_on_c, 1, 59, 80
2, 83255, Note_on_c, 1, 59, 0
2, 83280, Note_on_c, 1, 60, 80
2, 83507, Note_on_c, 1, 60, 0
2, 83520, Note_on_c, 1, 59, 80
2, 83975, Note_on_c, 1, 59, 0
2, 84000, Note_on_c, 1, 57, 80
2, 84227, Note_on_c, 1, 57, 0
2, 84240, Note_on_c, 1, 55, 80
2, 84467, Note_on_c, 1, 55, 0
2, 84480, Note_on_c, 1, 52, 80
2, 84707, Note_on_c, 1, 52, 0
2, 84720, Note_on_c, 1, 50, 80
2, 84947, Note_on_c, 1, 50, 0
2, 84960, Note_on_c, 1, 62, 80
2, 85415, Note_on_c, 1, 62, 0
2, 85440, Note_on_c, 1, 59, 80
2, 85895, Note_on_c, 1, 59, 0
2, 85920, Note_on_c, 1, 57, 80
2, 86147, Note_on_c, 1, 57, 0
2, 86160, Note_on_c, 1, 55, 80
2, 86615, Note_on_c, 1, 55, 0
2, 86640, Note_on_c, 1, 59, 80
2, 87095, Note_on_c, 1, 59, 0
2, 87120, Note_on_c, 1, 60, 80
2, 87347, Note_on_c, 1, 60, 0
2, 87360, Note_on_c, 1, 59, 80
2, 87815, Note_on_c, 1, 59, 0
2, 87840, Note_on_c, 1, 57, 80
2, 88067, Note_on_c, 1, 57, 0
2, 88080, Note_on_c, 1, 55, 80
2, 88307, Note_on_c, 1, 55, 0
2, 88320, Note_on_c, 1, 52, 80
2, 88547, Note_on_c, 1, 52, 0
2, 88560, Note_on_c, 1, 50, 80
2, 88787, Note_on_c, 1, 50, 0
2, 88800, Note_on_c, 1, 62, 80
2, 89255, Note_on_c, 1, 62, 0
2, 89280, Note_on_c, 1, 59, 80
2, 89735, Note_on_c, 1, 59, 0
2, 89760, Note_on_c, 1, 57, 80
2, 89987, Note_on_c, 1, 57, 0
2, 90000, Note_on_c, 1, 55, 80
2, 90455, Note_on_c, 1, 55, 0
2, 90480, Note_on_c, 1, 57, 80
2, 90935, Note_on_c, 1, 57, 0
2, 90960, Note_on_c, 1, 59, 80
2, 91187, Note_on_c, 1, 59, 0
2, 91200, Note_on_c, 1, 52, 80
2, 92567, Note_on_c, 1, 52, 0
2, 92640, Note_on_c, 1, 59, 80
2, 92867, Note_on_c, 1, 59, 0
2, 92880, Note_on_c, 1, 55, 80
2, 93335, Note_on_c, 1, 55, 0
2, 93360, Note_on_c, 1, 55, 80
2, 93473, Note_on_c, 1, 55, 0
2, 93480, Note_on_c, 1, 52, 80
2, 93593, Note_on_c, 1, 52, 0
2, 93600, Note_on_c, 1, 55, 80
2, 93827, Note_on_c, 1, 55, 0
2, 93840, Note_on_c, 1, 55, 80
2, 94295, Note_on_c, 1, 55, 0
2, 94320, Note_on_c, 1, 55, 80
2, 94433, Note_on_c, 1, 55, 0
2, 94440, Note_on_c, 1, 52, 80
2, 94553, Note_on_c, 1, 52, 0
2, 94560, Note_on_c, 1, 55, 80
2, 94787, Note_on_c, 1, 55, 0
2, 94800, Note_on_c, 1, 55, 80
2, 95255, Note_on_c, 1, 55, 0
2, 95280, Note_on_c, 1, 55, 80
2, 95735, Note_on_c, 1, 55, 0
2, 95760, Note_on_c, 1, 59, 80
2, 96443, Note_on_c, 1, 59, 0
2, 96480, Note_on_c, 1, 59, 80
2, 96707, Note_on_c, 1, 59, 0
2, 96720, Note_on_c, 1, 55, 80
2, 97175, Note_on_c, 1, 55, 0
2, 97200, Note_on_c, 1, 55, 80
2, 97313, Note_on_c, 1, 55, 0
2, 97320, Note_on_c, 1, 52, 80
2, 97433, Note_on_c, 1, 52, 0
2, 97440, Note_on_c, 1, 55, 80
2, 97667, Note_on_c, 1, 55, 0
2, 97680, Note_on_c, 1, 55, 80
2, 98135, Note_on_c, 1, 55, 0
2, 98160, Note_on_c, 1, 55, 80
2, 98273, Note_on_c, 1, 55, 0
2, 98280, Note_on_c, 1, 52, 80
2, 98393, Note_on_c, 1, 52, 0
2, 98400, Note_on_c, 1, 55, 80
2, 98627, Note_on_c, 1, 55, 0
2, 98640, Note_on_c, 1, 55, 80
2, 99095, Note_on_c, 1, 55, 0
2, 99120, Note_on_c, 1, 55, 80
2, 99575, Note_on_c, 1, 55, 0
2, 99600, Note_on_c, 1, 59, 80
2, 100283, Note_on_c, 1, 59, 0
2, 100320, Note_on_c, 1, 59, 80
2, 100775, Note_on_c, 1, 59, 0
2, 100800, Note_on_c, 1, 62, 80
2, 101255, Note_on_c, 1, 62, 0
2, 101280, Note_on_c, 1, 60, 80
2, 101507, Note_on_c, 1, 60, 0
2, 101520, Note_on_c, 1, 62, 80
2, 101747, Note_on_c, 1, 62, 0
2, 101760, Note_on_c, 1, 64, 80
2, 101987, Note_on_c, 1, 64, 0
2, 102000, Note_on_c, 1, 67, 80
2, 103139, Note_on_c, 1, 67, 0
2, 103200, Note_on_c, 1, 55, 80
2, 103427, Note_on_c, 1, 55, 0
2, 103440, Note_on_c, 1, 55, 80
2, 103667, Note_on_c, 1, 55, 0
2, 103680, Note_on_c, 1, 57, 80
2, 103907, Note_on_c, 1, 57, 0
2, 103920, Note_on_c, 1, 55, 80
2, 104147, Note_on_c, 1, 55, 0
2, 104160, Note_on_c, 1, 62, 80
2, 104387, Note_on_c, 1, 62, 0
2, 104400, Note_on_c, 1, 59, 80
2, 105425, Note_on_c, 1, 59, 0
2, 106080, Note_on_c, 1, 55, 80
2, 106307, Note_on_c, 1, 55, 0
2, 106320, Note_on_c, 1, 62, 80
2, 106547, Note_on_c, 1, 62, 0
2, 106560, Note_on_c, 1, 59, 80
2, 106787, Note_on_c, 1, 59, 0
2, 106800, Note_on_c, 1, 60, 80
2, 107027, Note_on_c, 1, 60, 0
2, 107040, Note_on_c, 1, 62, 80
2, 107267, Note_on_c, 1, 62, 0
2, 107280, Note_on_c, 1, 62, 80
2, 107507, Note_on_c, 1, 62, 0
2, 107520, Note_on_c, 1, 57, 80
2, 107747, Note_on_c, 1, 57, 0
2, 107760, Note_on_c, 1, 62, 80
2, 107760, Note_on_c, 1, 64, 80
2, 107760, Note_on_c, 1, 69, 80
2, 107987, Note_on_c, 1, 62, 0
2, 107987, Note_on_c, 1, 64, 0
2, 107987, Note_on_c, 1, 69, 0
2, 108000, Note_on_c, 1, 57, 80
2, 108227, Note_on_c, 1, 57, 0
2, 108240, Note_on_c, 1, 60, 80
2, 108467, Note_on_c, 1, 60, 0
2, 108480, Note_on_c, 1, 55, 80
2, 108707, Note_on_c, 1, 55, 0
2, 108720, Note_on_c, 1, 59, 80
2, 108947, Note_on_c, 1, 59, 0
2, 108960, Note_on_c, 1, 60, 80
2, 109187, Note_on_c, 1, 60, 0
2, 109200, Note_on_c, 1, 60, 80
2, 109427, Note_on_c, 1, 60, 0
2, 109440, Note_on_c, 1, 55, 80
2, 109667, Note_on_c, 1, 55, 0
2, 109680, Note_on_c, 1, 62, 80
2, 109680, Note_on_c, 1, 64, 80
2, 109907, Note_on_c, 1, 62, 0
2, 109907, Note_on_c, 1, 64, 0
2, 109920, Note_on_c, 1, 55, 80
2, 110147, Note_on_c, 1, 55, 0
2, 110160, Note_on_c, 1, 62, 80
2, 110387, Note_on_c, 1, 62, 0
2, 110400, Note_on_c, 1, 59, 80
2, 110627, Note_on_c, 1, 59, 0
2, 110640, Note_on_c, 1, 60, 80
2, 110867, Note_on_c, 1, 60, 0
2, 110880, Note_on_c, 1, 62, 80
2, 111107, Note_on_c, 1, 62, 0
2, 111120, Note_on_c, 1, 62, 80
2, 111347, Note_on_c, 1, 62, 0
2, 111360, Note_on_c, 1, 57, 80
2, 111587, Note_on_c, 1, 57, 0
2, 111600, Note_on_c, 1, 62, 80
2, 111827, Note_on_c, 1, 62, 0
2, 111840, Note_on_c, 1, 57, 80
2, 112067, Note_on_c, 1, 57, 0
2, 112080, Note_on_c, 1, 60, 80
2, 112307, Note_on_c, 1, 60, 0
2, 112320, Note_on_c, 1, 55, 80
2, 112547, Note_on_c, 1, 55, 0
2, 112560, Note_on_c, 1, 59, 80
2, 112787, Note_on_c, 1, 59, 0
2, 112800, Note_on_c, 1, 60, 80
2, 113027, Note_on_c, 1, 60, 0
2, 113040, Note_on_c, 1, 60, 80
2, 113267, Note_on_c, 1, 60, 0
2, 113280, Note_on_c, 1, 55, 80
2, 113507, Note_on_c, 1, 55, 0
2, 113520, Note_on_c, 1, 62, 80
2, 113520, Note_on_c, 1, 64, 80
2, 113747, Note_on_c, 1, 62, 0
2, 113747, Note_on_c, 1, 64, 0
2, 113760, Note_on_c, 1, 55, 80
2, 113987, Note_on_c, 1, 55, 0
2, 114000, Note_on_c, 1, 62, 80
2, 114227, Note_on_c, 1, 62, 0
2, 114240, Note_on_c, 1, 59, 80
2, 114467, Note_on_c, 1, 59, 0
2, 114480, Note_on_c, 1, 60, 80
2, 114707, Note_on_c, 1, 60, 0
2, 114720, Note_on_c, 1, 62, 80
2, 114947, Note_on_c, 1, 62, 0
2, 114960, Note_on_c, 1, 62, 80
2, 115187, Note_on_c, 1, 62, 0
2, 115200, Note_on_c, 1, 57, 80
2, 115427, Note_on_c, 1, 57, 0
2, 115440, Note_on_c, 1, 62, 80
2, 115440, Note_on_c, 1, 64, 80
2, 115440, Note_on_c, 1, 69, 80
2, 115667, Note_on_c, 1, 62, 0
2, 115667, Note_on_c, 1, 64, 0
2, 115667, Note_on_c, 1, 69, 0
2, 115680, Note_on_c, 1, 57, 80
2, 115907, Note_on_c, 1, 57, 0
2, 115920, Note_on_c, 1, 60, 80
2, 116147, Note_on_c, 1, 60, 0
2, 116160, Note_on_c, 1, 55, 80
2, 116387, Note_on_c, 1, 55, 0
2, 116400, Note_on_c, 1, 59, 80
2, 116627, Note_on_c, 1, 59, 0
2, 116640, Note_on_c, 1, 60, 80
2, 116867, Note_on_c, 1, 60, 0
2, 116880, Note_on_c, 1, 60, 80
2, 117107, Note_on_c, 1, 60, 0
2, 117120, Note_on_c, 1, 55, 80
2, 117347, Note_on_c, 1, 55, 0
2, 117360, Note_on_c, 1, 64, 80
2, 117587, Note_on_c, 1, 64, 0
2, 117600, Note_on_c, 1, 55, 80
2, 117827, Note_on_c, 1, 55, 0
2, 117840, Note_on_c, 1, 62, 80
2, 118067, Note_on_c, 1, 62, 0
2, 118080, Note_on_c, 1, 59, 80
2, 118307, Note_on_c, 1, 59, 0
2, 118320, Note_on_c, 1, 60, 80
2, 118547, Note_on_c, 1, 60, 0
2, 118560, Note_on_c, 1, 62, 80
2, 118787, Note_on_c, 1, 62, 0
2, 118800, Note_on_c, 1, 62, 80
2, 119027, Note_on_c, 1, 62, 0
2, 119040, Note_on_c, 1, 57, 80
2, 119267, Note_on_c, 1, 57, 0
2, 119280, Note_on_c, 1, 62, 80
2, 119280, Note_on_c, 1, 64, 80
2, 119507, Note_on_c, 1, 62, 0
2, 119507, Note_on_c, 1, 64, 0
2, 119520, Note_on_c, 1, 57, 80
2, 119747, Note_on_c, 1, 57, 0
2, 119760, Note_on_c, 1, 60, 80
2, 119987, Note_on_c, 1, 60, 0
2, 120000, Note_on_c, 1, 55, 80
2, 120227, Note_on_c, 1, 55, 0
2, 120240, Note_on_c, 1, 59, 80
2, 120467, Note_on_c, 1, 59, 0
2, 120480, Note_on_c, 1, 60, 80
2, 120707, Note_on_c, 1, 60, 0
2, 120720, Note_on_c, 1, 60, 80
2, 120947, Note_on_c, 1, 60, 0
2, 120960, Note_on_c, 1, 55, 80
2, 121415, Note_on_c, 1, 55, 0
2, 121440, Note_on_c, 1, 59, 80
2, 121440, Note_on_c, 1, 62, 80
2, 121440, Note_on_c, 1, 67, 80
2, 122351, Note_on_c, 1, 59, 0
2, 122351, Note_on_c, 1, 62, 0
2, 122351, Note_on_c, 1, 67, 0
2, 122400, Note_on_c, 1, 60, 80
2, 122400, Note_on_c, 1, 64, 80
2, 122400, Note_on_c, 1, 67, 80
2, 123311, Note_on_c, 1, 60, 0
2, 123311, Note_on_c, 1, 64, 0
2, 123311, Note_on_c, 1, 67, 0
2, 123360, Note_on_c, 1, 55, 80
2, 123360, Note_on_c, 1, 60, 80
2, 123360, Note_on_c, 1, 64, 80
2, 124271, Note_on_c, 1, 55, 0
2, 124271, Note_on_c, 1, 60, 0
2, 124271, Note_on_c, 1, 64, 0
2, 124320, Note_on_c, 1, 64, 80
2, 125231, Note_on_c, 1, 64, 0
2, 125280, Note_on_c, 1, 62, 80
2, 125280, Note_on_c, 1, 67, 80
2, 126191, Note_on_c, 1, 62, 0
2, 126191, Note_on_c, 1, 67, 0
2, 126240, Note_on_c, 1, 60, 80
2, 126240, Note_on_c, 1, 64, 80
2, 126240, Note_on_c, 1, 67, 80
2, 127151, Note_on_c, 1, 60, 0
2, 127151, Note_on_c, 1, 64, 0
2, 127151, Note_on_c, 1, 67, 0
2, 127200, Note_on_c, 1, 55, 80
2, 127200, Note_on_c, 1, 60, 80
2, 127200, Note_on_c, 1, 64, 80
2, 129023, Note_on_c, 1, 55, 0
2, 129023, Note_on_c, 1, 60, 0
2, 129023, Note_on_c, 1, 64, 0
2, 129024, End_track
3, 0, Start_track
3, 0, Title_t, "Harp, Harp\000"
3, 0, Key_signature, 0, "major"
3, 0, Control_c, 2, 121, 0
3, 0, Program_c, 2, 46
3, 0, Control_c, 2, 7, 100
3, 0, Control_c, 2, 10, 64
3, 0, Control_c, 2, 91, 0
3, 0, Control_c, 2, 93, 0
3, 0, MIDI_port, 0
3, 0, Control_c, 3, 121, 0
3, 0, Program_c, 3, 45
3, 0, Control_c, 3, 7, 100
3, 0, Control_c, 3, 10, 64
3, 0, Control_c, 3, 91, 0
3, 0, Control_c, 3, 93, 0
3, 0, MIDI_port, 0
3, 0, Control_c, 6, 121, 0
3, 0, Program_c, 6, 11
3, 0, Control_c, 6, 7, 100
3, 0, Control_c, 6, 10, 64
3, 0, Control_c, 6, 91, 0
3, 0, Control_c, 6, 93, 0
3, 0, MIDI_port, 0
3, 8160, Note_on_c, 2, 55, 80
3, 8879, Note_on_c, 2, 55, 0
3, 8880, Note_on_c, 2, 60, 80
3, 9119, Note_on_c, 2, 60, 0
3, 9120, Note_on_c, 2, 62, 80
3, 9839, Note_on_c, 2, 62, 0
3, 9840, Note_on_c, 2, 64, 80
3, 10079, Note_on_c, 2, 64, 0
3, 10080, Note_on_c, 2, 57, 80
3, 10799, Note_on_c, 2, 57, 0
3, 10800, Note_on_c, 2, 59, 80
3, 11039, Note_on_c, 2, 59, 0
3, 11040, Note_on_c, 2, 60, 80
3, 11759, Note_on_c, 2, 60, 0
3, 11760, Note_on_c, 2, 62, 80
3, 11999, Note_on_c, 2, 62, 0
3, 12000, Note_on_c, 2, 55, 80
3, 12719, Note_on_c, 2, 55, 0
3, 12720, Note_on_c, 2, 60, 80
3, 12959, Note_on_c, 2, 60, 0
3, 12960, Note_on_c, 2, 62, 80
3, 13679, Note_on_c, 2, 62, 0
3, 13680, Note_on_c, 2, 64, 80
3, 13919, Note_on_c, 2, 64, 0
3, 13920, Note_on_c, 2, 57, 80
3, 14639, Note_on_c, 2, 57, 0
3, 14640, Note_on_c, 2, 59, 80
3, 14879, Note_on_c, 2, 59, 0
3, 14880, Note_on_c, 2, 60, 80
3, 15599, Note_on_c, 2, 60, 0
3, 15600, Note_on_c, 2, 62, 80
3, 15839, Note_on_c, 2, 62, 0
3, 15840, Note_on_c, 2, 55, 80
3, 16559, Note_on_c, 2, 55, 0
3, 16560, Note_on_c, 2, 60, 80
3, 16799, Note_on_c, 2, 60, 0
3, 16800, Note_on_c, 2, 62, 80
3, 17519, Note_on_c, 2, 62, 0
3, 17520, Note_on_c, 2, 64, 80
3, 17759, Note_on_c, 2, 64, 0
3, 17760, Note_on_c, 2, 57, 80
3, 18479, Note_on_c, 2, 57, 0
3, 18480, Note_on_c, 2, 59, 80
3, 18719, Note_on_c, 2, 59, 0
3, 18720, Note_on_c, 2, 60, 80
3, 19439, Note_on_c, 2, 60, 0
3, 19440, Note_on_c, 2, 62, 80
3, 19679, Note_on_c, 2, 62, 0
3, 19680, Note_on_c, 2, 55, 80
3, 20399, Note_on_c, 2, 55, 0
3, 20400, Note_on_c, 2, 60, 80
3, 20639, Note_on_c, 2, 60, 0
3, 20640, Note_on_c, 2, 62, 80
3, 21359, Note_on_c, 2, 62, 0
3, 21360, Note_on_c, 2, 64, 80
3, 21599, Note_on_c, 2, 64, 0
3, 21600, Note_on_c, 2, 57, 80
3, 22319, Note_on_c, 2, 57, 0
3, 22320, Note_on_c, 2, 59, 80
3, 22559, Note_on_c, 2, 59, 0
3, 22560, Note_on_c, 2, 60, 80
3, 23279, Note_on_c, 2, 60, 0
3, 23280, Note_on_c, 2, 62, 80
3, 23519, Note_on_c, 2, 62, 0
3, 23520, Note_on_c, 2, 55, 80
3, 24239, Note_on_c, 2, 55, 0
3, 24240, Note_on_c, 2, 60, 80
3, 24479, Note_on_c, 2, 60, 0
3, 24480, Note_on_c, 2, 62, 80
3, 25199, Note_on_c, 2, 62, 0
3, 25200, Note_on_c, 2, 64, 80
3, 25439, Note_on_c, 2, 64, 0
3, 25440, Note_on_c, 2, 57, 80
3, 26159, Note_on_c, 2, 57, 0
3, 26160, Note_on_c, 2, 59, 80
3, 26399, Note_on_c, 2, 59, 0
3, 26400, Note_on_c, 2, 60, 80
3, 27119, Note_on_c, 2, 60, 0
3, 27120, Note_on_c, 2, 62, 80
3, 27359, Note_on_c, 2, 62, 0
3, 27360, Note_on_c, 2, 55, 80
3, 28079, Note_on_c, 2, 55, 0
3, 28080, Note_on_c, 2, 60, 80
3, 28319, Note_on_c, 2, 60, 0
3, 28320, Note_on_c, 2, 62, 80
3, 29039, Note_on_c, 2, 62, 0
3, 29040, Note_on_c, 2, 64, 80
3, 29279, Note_on_c, 2, 64, 0
3, 29280, Note_on_c, 2, 57, 80
3, 29999, Note_on_c, 2, 57, 0
3, 30000, Note_on_c, 2, 59, 80
3, 30239, Note_on_c, 2, 59, 0
3, 30240, Note_on_c, 2, 60, 80
3, 30959, Note_on_c, 2, 60, 0
3, 30960, Note_on_c, 2, 62, 80
3, 31199, Note_on_c, 2, 62, 0
3, 31680, Note_on_c, 2, 55, 80
3, 32159, Note_on_c, 2, 55, 0
3, 32160, Note_on_c, 2, 48, 80
3, 32639, Note_on_c, 2, 48, 0
3, 32640, Note_on_c, 2, 48, 80
3, 33119, Note_on_c, 2, 48, 0
3, 33120, Note_on_c, 2, 48, 80
3, 33599, Note_on_c, 2, 48, 0
3, 33600, Note_on_c, 2, 48, 80
3, 34079, Note_on_c, 2, 48, 0
3, 34080, Note_on_c, 2, 48, 80
3, 34559, Note_on_c, 2, 48, 0
3, 34560, Note_on_c, 2, 48, 80
3, 35039, Note_on_c, 2, 48, 0
3, 35520, Note_on_c, 2, 55, 80
3, 35999, Note_on_c, 2, 55, 0
3, 36000, Note_on_c, 2, 48, 80
3, 36479, Note_on_c, 2, 48, 0
3, 36480, Note_on_c, 2, 48, 80
3, 36959, Note_on_c, 2, 48, 0
3, 36960, Note_on_c, 2, 48, 80
3, 37439, Note_on_c, 2, 48, 0
3, 37440, Note_on_c, 2, 48, 80
3, 37919, Note_on_c, 2, 48, 0
3, 37920, Note_on_c, 2, 48, 80
3, 38399, Note_on_c, 2, 48, 0
3, 38400, Note_on_c, 2, 48, 80
3, 38879, Note_on_c, 2, 48, 0
3, 39360, Note_on_c, 2, 55, 80
3, 39839, Note_on_c, 2, 55, 0
3, 39840, Note_on_c, 2, 48, 80
3, 40319, Note_on_c, 2, 48, 0
3, 40320, Note_on_c, 2, 48, 80
3, 40799, Note_on_c, 2, 48, 0
3, 40800, Note_on_c, 2, 48, 80
3, 41279, Note_on_c, 2, 48, 0
3, 41280, Note_on_c, 2, 48, 80
3, 41759, Note_on_c, 2, 48, 0
3, 41760, Note_on_c, 2, 48, 80
3, 42239, Note_on_c, 2, 48, 0
3, 42240, Note_on_c, 2, 48, 80
3, 42719, Note_on_c, 2, 48, 0
3, 42720, Note_on_c, 2, 55, 80
3, 43199, Note_on_c, 2, 55, 0
3, 43200, Note_on_c, 2, 55, 80
3, 43679, Note_on_c, 2, 55, 0
3, 44640, Note_on_c, 2, 48, 80
3, 45119, Note_on_c, 2, 48, 0
3, 45120, Note_on_c, 2, 48, 80
3, 46559, Note_on_c, 2, 48, 0
3, 46560, Note_on_c, 2, 55, 80
3, 47279, Note_on_c, 2, 55, 0
3, 47280, Note_on_c, 2, 60, 80
3, 47519, Note_on_c, 2, 60, 0
3, 47520, Note_on_c, 2, 62, 80
3, 48239, Note_on_c, 2, 62, 0
3, 48240, Note_on_c, 2, 64, 80
3, 48479, Note_on_c, 2, 64, 0
3, 48480, Note_on_c, 2, 57, 80
3, 49199, Note_on_c, 2, 57, 0
3, 49200, Note_on_c, 2, 59, 80
3, 49439, Note_on_c, 2, 59, 0
3, 49440, Note_on_c, 2, 60, 80
3, 50159, Note_on_c, 2, 60, 0
3, 50160, Note_on_c, 2, 62, 80
3, 50399, Note_on_c, 2, 62, 0
3, 50400, Note_on_c, 2, 55, 80
3, 51119, Note_on_c, 2, 55, 0
3, 51120, Note_on_c, 2, 60, 80
3, 51359, Note_on_c, 2, 60, 0
3, 51360, Note_on_c, 2, 62, 80
3, 52079, Note_on_c, 2, 62, 0
3, 52080, Note_on_c, 2, 64, 80
3, 52319, Note_on_c, 2, 64, 0
3, 52320, Note_on_c, 2, 57, 80
3, 53039, Note_on_c, 2, 57, 0
3, 53040, Note_on_c, 2, 59, 80
3, 53279, Note_on_c, 2, 59, 0
3, 53280, Note_on_c, 2, 60, 80
3, 53999, Note_on_c, 2, 60, 0
3, 54000, Note_on_c, 2, 62, 80
3, 54239, Note_on_c, 2, 62, 0
3, 54240, Note_on_c, 2, 55, 80
3, 54959, Note_on_c, 2, 55, 0
3, 54960, Note_on_c, 2, 60, 80
3, 55199, Note_on_c, 2, 60, 0
3, 55200, Note_on_c, 2, 62, 80
3, 55919, Note_on_c, 2, 62, 0
3, 55920, Note_on_c, 2, 64, 80
3, 56159, Note_on_c, 2, 64, 0
3, 56160, Note_on_c, 2, 57, 80
3, 56879, Note_on_c, 2, 57, 0
3, 56880, Note_on_c, 2, 59, 80
3, 57119, Note_on_c, 2, 59, 0
3, 57120, Note_on_c, 2, 60, 80
3, 57839, Note_on_c, 2, 60, 0
3, 57840, Note_on_c, 2, 62, 80
3, 58079, Note_on_c, 2, 62, 0
3, 58080, Note_on_c, 2, 55, 80
3, 58799, Note_on_c, 2, 55, 0
3, 58800, Note_on_c, 2, 60, 80
3, 59039, Note_on_c, 2, 60, 0
3, 59040, Note_on_c, 2, 62, 80
3, 59759, Note_on_c, 2, 62, 0
3, 59760, Note_on_c, 2, 64, 80
3, 59999, Note_on_c, 2, 64, 0
3, 60000, Note_on_c, 2, 57, 80
3, 60719, Note_on_c, 2, 57, 0
3, 60720, Note_on_c, 2, 59, 80
3, 60959, Note_on_c, 2, 59, 0
3, 60960, Note_on_c, 2, 60, 80
3, 61679, Note_on_c, 2, 60, 0
3, 61680, Note_on_c, 2, 62, 80
3, 61919, Note_on_c, 2, 62, 0
3, 62400, Note_on_c, 2, 55, 80
3, 62879, Note_on_c, 2, 55, 0
3, 62880, Note_on_c, 2, 48, 80
3, 63359, Note_on_c, 2, 48, 0
3, 63360, Note_on_c, 2, 48, 80
3, 63839, Note_on_c, 2, 48, 0
3, 63840, Note_on_c, 2, 48, 80
3, 64319, Note_on_c, 2, 48, 0
3, 64320, Note_on_c, 2, 48, 80
3, 64799, Note_on_c, 2, 48, 0
3, 64800, Note_on_c, 2, 48, 80
3, 65279, Note_on_c, 2, 48, 0
3, 65280, Note_on_c, 2, 48, 80
3, 65759, Note_on_c, 2, 48, 0
3, 66240, Note_on_c, 2, 55, 80
3, 66719, Note_on_c, 2, 55, 0
3, 66720, Note_on_c, 2, 48, 80
3, 67199, Note_on_c, 2, 48, 0
3, 67200, Note_on_c, 2, 48, 80
3, 67679, Note_on_c, 2, 48, 0
3, 67680, Note_on_c, 2, 48, 80
3, 68159, Note_on_c, 2, 48, 0
3, 68160, Note_on_c, 2, 48, 80
3, 68639, Note_on_c, 2, 48, 0
3, 68640, Note_on_c, 2, 48, 80
3, 69119, Note_on_c, 2, 48, 0
3, 69120, Note_on_c, 2, 48, 80
3, 69599, Note_on_c, 2, 48, 0
3, 70080, Note_on_c, 2, 55, 80
3, 70559, Note_on_c, 2, 55, 0
3, 70560, Note_on_c, 2, 48, 80
3, 71039, Note_on_c, 2, 48, 0
3, 71040, Note_on_c, 2, 48, 80
3, 71519, Note_on_c, 2, 48, 0
3, 71520, Note_on_c, 2, 48, 80
3, 71999, Note_on_c, 2, 48, 0
3, 72000, Note_on_c, 2, 48, 80
3, 72479, Note_on_c, 2, 48, 0
3, 72480, Note_on_c, 2, 48, 80
3, 72959, Note_on_c, 2, 48, 0
3, 72960, Note_on_c, 2, 48, 80
3, 73439, Note_on_c, 2, 48, 0
3, 73440, Note_on_c, 2, 55, 80
3, 73919, Note_on_c, 2, 55, 0
3, 73920, Note_on_c, 2, 55, 80
3, 74399, Note_on_c, 2, 55, 0
3, 75360, Note_on_c, 2, 48, 80
3, 75839, Note_on_c, 2, 48, 0
3, 75840, Note_on_c, 2, 48, 80
3, 77279, Note_on_c, 2, 48, 0
3, 93600, Note_on_c, 2, 48, 80
3, 94079, Note_on_c, 2, 48, 0
3, 94080, Note_on_c, 2, 48, 80
3, 94559, Note_on_c, 2, 48, 0
3, 94560, Note_on_c, 2, 48, 80
3, 95039, Note_on_c, 2, 48, 0
3, 95040, Note_on_c, 2, 48, 80
3, 95519, Note_on_c, 2, 48, 0
3, 95520, Note_on_c, 2, 48, 80
3, 95999, Note_on_c, 2, 48, 0
3, 96000, Note_on_c, 2, 48, 80
3, 96479, Note_on_c, 2, 48, 0
3, 96960, Note_on_c, 2, 55, 80
3, 97439, Note_on_c, 2, 55, 0
3, 97440, Note_on_c, 2, 48, 80
3, 97919, Note_on_c, 2, 48, 0
3, 97920, Note_on_c, 2, 48, 80
3, 98399, Note_on_c, 2, 48, 0
3, 98400, Note_on_c, 2, 48, 80
3, 98879, Note_on_c, 2, 48, 0
3, 98880, Note_on_c, 2, 48, 80
3, 99359, Note_on_c, 2, 48, 0
3, 99360, Note_on_c, 2, 48, 80
3, 99839, Note_on_c, 2, 48, 0
3, 99840, Note_on_c, 2, 48, 80
3, 100319, Note_on_c, 2, 48, 0
3, 100800, Note_on_c, 2, 55, 80
3, 101279, Note_on_c, 2, 55, 0
3, 101280, Note_on_c, 2, 48, 80
3, 101759, Note_on_c, 2, 48, 0
3, 101760, Note_on_c, 2, 48, 80
3, 102239, Note_on_c, 2, 48, 0
3, 102240, Note_on_c, 2, 48, 80
3, 102719, Note_on_c, 2, 48, 0
3, 102720, Note_on_c, 2, 48, 80
3, 103199, Note_on_c, 2, 48, 0
3, 103200, Note_on_c, 2, 48, 80
3, 103679, Note_on_c, 2, 48, 0
3, 103680, End_track
4, 0, Start_track
4, 0, Title_t, "Electric Bass, Bass\000"
4, 0, Key_signature, 0, "major"
4, 0, Control_c, 5, 121, 0
4, 0, Program_c, 5, 33
4, 0, Control_c, 5, 7, 100
4, 0, Control_c, 5, 10, 64
4, 0, Control_c, 5, 91, 0
4, 0, Control_c, 5, 93, 0
4, 0, MIDI_port, 0
4, 0, Control_c, 7, 121, 0
4, 0, Program_c, 7, 36
4, 0, Control_c, 7, 7, 100
4, 0, Control_c, 7, 10, 64
4, 0, Control_c, 7, 91, 0
4, 0, Control_c, 7, 93, 0
4, 0, MIDI_port, 0
4, 0, Control_c, 8, 121, 0
4, 0, Program_c, 8, 37
4, 0, Control_c, 8, 7, 100
4, 0, Control_c, 8, 10, 64
4, 0, Control_c, 8, 91, 0
4, 0, Control_c, 8, 93, 0
4, 0, MIDI_port, 0
4, 480, Note_on_c, 5, 55, 80
4, 2399, Note_on_c, 5, 55, 0
4, 2400, Note_on_c, 5, 57, 80
4, 4319, Note_on_c, 5, 57, 0
4, 4320, Note_on_c, 5, 55, 80
4, 6239, Note_on_c, 5, 55, 0
4, 6240, Note_on_c, 5, 57, 80
4, 7679, Note_on_c, 5, 57, 0
4, 7920, Note_on_c, 5, 62, 80
4, 8159, Note_on_c, 5, 62, 0
4, 8160, Note_on_c, 5, 55, 80
4, 8879, Note_on_c, 5, 55, 0
4, 8880, Note_on_c, 5, 60, 80
4, 9119, Note_on_c, 5, 60, 0
4, 9120, Note_on_c, 5, 62, 80
4, 9839, Note_on_c, 5, 62, 0
4, 9840, Note_on_c, 5, 64, 80
4, 10079, Note_on_c, 5, 64, 0
4, 10080, Note_on_c, 5, 57, 80
4, 10799, Note_on_c, 5, 57, 0
4, 10800, Note_on_c, 5, 59, 80
4, 11039, Note_on_c, 5, 59, 0
4, 11040, Note_on_c, 5, 60, 80
4, 11759, Note_on_c, 5, 60, 0
4, 11760, Note_on_c, 5, 62, 80
4, 11999, Note_on_c, 5, 62, 0
4, 12000, Note_on_c, 5, 55, 80
4, 12719, Note_on_c, 5, 55, 0
4, 12720, Note_on_c, 5, 60, 80
4, 12959, Note_on_c, 5, 60, 0
4, 12960, Note_on_c, 5, 62, 80
4, 13679, Note_on_c, 5, 62, 0
4, 13680, Note_on_c, 5, 64, 80
4, 13919, Note_on_c, 5, 64, 0
4, 13920, Note_on_c, 5, 57, 80
4, 14639, Note_on_c, 5, 57, 0
4, 14640, Note_on_c, 5, 59, 80
4, 14879, Note_on_c, 5, 59, 0
4, 14880, Note_on_c, 5, 60, 80
4, 15599, Note_on_c, 5, 60, 0
4, 15600, Note_on_c, 5, 62, 80
4, 15839, Note_on_c, 5, 62, 0
4, 15840, Note_on_c, 5, 55, 80
4, 16559, Note_on_c, 5, 55, 0
4, 16560, Note_on_c, 5, 60, 80
4, 16799, Note_on_c, 5, 60, 0
4, 16800, Note_on_c, 5, 62, 80
4, 17519, Note_on_c, 5, 62, 0
4, 17520, Note_on_c, 5, 64, 80
4, 17759, Note_on_c, 5, 64, 0
4, 17760, Note_on_c, 5, 57, 80
4, 18479, Note_on_c, 5, 57, 0
4, 18480, Note_on_c, 5, 59, 80
4, 18719, Note_on_c, 5, 59, 0
4, 18720, Note_on_c, 5, 60, 80
4, 19439, Note_on_c, 5, 60, 0
4, 19440, Note_on_c, 5, 62, 80
4, 19679, Note_on_c, 5, 62, 0
4, 19680, Note_on_c, 5, 55, 80
4, 20399, Note_on_c, 5, 55, 0
4, 20400, Note_on_c, 5, 60, 80
4, 20639, Note_on_c, 5, 60, 0
4, 20640, Note_on_c, 5, 62, 80
4, 21359, Note_on_c, 5, 62, 0
4, 21360, Note_on_c, 5, 64, 80
4, 21599, Note_on_c, 5, 64, 0
4, 21600, Note_on_c, 5, 57, 80
4, 22319, Note_on_c, 5, 57, 0
4, 22320, Note_on_c, 5, 59, 80
4, 22559, Note_on_c, 5, 59, 0
4, 22560, Note_on_c, 5, 60, 80
4, 23279, Note_on_c, 5, 60, 0
4, 23280, Note_on_c, 5, 62, 80
4, 23519, Note_on_c, 5, 62, 0
4, 23520, Note_on_c, 5, 55, 80
4, 24239, Note_on_c, 5, 55, 0
4, 24240, Note_on_c, 5, 60, 80
4, 24479, Note_on_c, 5, 60, 0
4, 24480, Note_on_c, 5, 62, 80
4, 25199, Note_on_c, 5, 62, 0
4, 25200, Note_on_c, 5, 64, 80
4, 25439, Note_on_c, 5, 64, 0
4, 25440, Note_on_c, 5, 57, 80
4, 26159, Note_on_c, 5, 57, 0
4, 26160, Note_on_c, 5, 59, 80
4, 26399, Note_on_c, 5, 59, 0
4, 26400, Note_on_c, 5, 60, 80
4, 27119, Note_on_c, 5, 60, 0
4, 27120, Note_on_c, 5, 62, 80
4, 27359, Note_on_c, 5, 62, 0
4, 27360, Note_on_c, 5, 55, 80
4, 28079, Note_on_c, 5, 55, 0
4, 28080, Note_on_c, 5, 60, 80
4, 28319, Note_on_c, 5, 60, 0
4, 28320, Note_on_c, 5, 62, 80
4, 29039, Note_on_c, 5, 62, 0
4, 29040, Note_on_c, 5, 64, 80
4, 29279, Note_on_c, 5, 64, 0
4, 29280, Note_on_c, 5, 57, 80
4, 29999, Note_on_c, 5, 57, 0
4, 30000, Note_on_c, 5, 59, 80
4, 30239, Note_on_c, 5, 59, 0
4, 30240, Note_on_c, 5, 60, 80
4, 30959, Note_on_c, 5, 60, 0
4, 30960, Note_on_c, 5, 62, 80
4, 31199, Note_on_c, 5, 62, 0
4, 31200, Note_on_c, 5, 55, 80
4, 31679, Note_on_c, 5, 55, 0
4, 31680, Note_on_c, 5, 55, 80
4, 32159, Note_on_c, 5, 55, 0
4, 32160, Note_on_c, 5, 60, 80
4, 32639, Note_on_c, 5, 60, 0
4, 32640, Note_on_c, 5, 60, 80
4, 33119, Note_on_c, 5, 60, 0
4, 33120, Note_on_c, 5, 60, 80
4, 33599, Note_on_c, 5, 60, 0
4, 33600, Note_on_c, 5, 60, 80
4, 34079, Note_on_c, 5, 60, 0
4, 34080, Note_on_c, 5, 60, 80
4, 34559, Note_on_c, 5, 60, 0
4, 34560, Note_on_c, 5, 60, 80
4, 35039, Note_on_c, 5, 60, 0
4, 35040, Note_on_c, 5, 55, 80
4, 35519, Note_on_c, 5, 55, 0
4, 35520, Note_on_c, 5, 55, 80
4, 35999, Note_on_c, 5, 55, 0
4, 36000, Note_on_c, 5, 60, 80
4, 36479, Note_on_c, 5, 60, 0
4, 36480, Note_on_c, 5, 60, 80
4, 36959, Note_on_c, 5, 60, 0
4, 36960, Note_on_c, 5, 60, 80
4, 37439, Note_on_c, 5, 60, 0
4, 37440, Note_on_c, 5, 60, 80
4, 37919, Note_on_c, 5, 60, 0
4, 37920, Note_on_c, 5, 60, 80
4, 38399, Note_on_c, 5, 60, 0
4, 38400, Note_on_c, 5, 60, 80
4, 38879, Note_on_c, 5, 60, 0
4, 38880, Note_on_c, 5, 55, 80
4, 39359, Note_on_c, 5, 55, 0
4, 39360, Note_on_c, 5, 55, 80
4, 39839, Note_on_c, 5, 55, 0
4, 39840, Note_on_c, 5, 60, 80
4, 40319, Note_on_c, 5, 60, 0
4, 40320, Note_on_c, 5, 60, 80
4, 40799, Note_on_c, 5, 60, 0
4, 40800, Note_on_c, 5, 60, 80
4, 41279, Note_on_c, 5, 60, 0
4, 41280, Note_on_c, 5, 60, 80
4, 41759, Note_on_c, 5, 60, 0
4, 41760, Note_on_c, 5, 60, 80
4, 42239, Note_on_c, 5, 60, 0
4, 42240, Note_on_c, 5, 60, 80
4, 42719, Note_on_c, 5, 60, 0
4, 42720, Note_on_c, 5, 55, 80
4, 43199, Note_on_c, 5, 55, 0
4, 43200, Note_on_c, 5, 55, 80
4, 43679, Note_on_c, 5, 55, 0
4, 43680, Note_on_c, 5, 57, 80
4, 44159, Note_on_c, 5, 57, 0
4, 44160, Note_on_c, 5, 57, 80
4, 44639, Note_on_c, 5, 57, 0
4, 44640, Note_on_c, 5, 60, 80
4, 45119, Note_on_c, 5, 60, 0
4, 45120, Note_on_c, 5, 60, 80
4, 46559, Note_on_c, 5, 60, 0
4, 46560, Note_on_c, 5, 55, 80
4, 47279, Note_on_c, 5, 55, 0
4, 47280, Note_on_c, 5, 60, 80
4, 47519, Note_on_c, 5, 60, 0
4, 47520, Note_on_c, 5, 62, 80
4, 48239, Note_on_c, 5, 62, 0
4, 48240, Note_on_c, 5, 64, 80
4, 48479, Note_on_c, 5, 64, 0
4, 48480, Note_on_c, 5, 57, 80
4, 49199, Note_on_c, 5, 57, 0
4, 49200, Note_on_c, 5, 59, 80
4, 49439, Note_on_c, 5, 59, 0
4, 49440, Note_on_c, 5, 60, 80
4, 50159, Note_on_c, 5, 60, 0
4, 50160, Note_on_c, 5, 62, 80
4, 50399, Note_on_c, 5, 62, 0
4, 50400, Note_on_c, 5, 55, 80
4, 51119, Note_on_c, 5, 55, 0
4, 51120, Note_on_c, 5, 60, 80
4, 51359, Note_on_c, 5, 60, 0
4, 51360, Note_on_c, 5, 62, 80
4, 52079, Note_on_c, 5, 62, 0
4, 52080, Note_on_c, 5, 64, 80
4, 52319, Note_on_c, 5, 64, 0
4, 52320, Note_on_c, 5, 57, 80
4, 53039, Note_on_c, 5, 57, 0
4, 53040, Note_on_c, 5, 59, 80
4, 53279, Note_on_c, 5, 59, 0
4, 53280, Note_on_c, 5, 60, 80
4, 53999, Note_on_c, 5, 60, 0
4, 54000, Note_on_c, 5, 62, 80
4, 54239, Note_on_c, 5, 62, 0
4, 54240, Note_on_c, 5, 55, 80
4, 54959, Note_on_c, 5, 55, 0
4, 54960, Note_on_c, 5, 60, 80
4, 55199, Note_on_c, 5, 60, 0
4, 55200, Note_on_c, 5, 62, 80
4, 55919, Note_on_c, 5, 62, 0
4, 55920, Note_on_c, 5, 64, 80
4, 56159, Note_on_c, 5, 64, 0
4, 56160, Note_on_c, 5, 57, 80
4, 56879, Note_on_c, 5, 57, 0
4, 56880, Note_on_c, 5, 59, 80
4, 57119, Note_on_c, 5, 59, 0
4, 57120, Note_on_c, 5, 60, 80
4, 57839, Note_on_c, 5, 60, 0
4, 57840, Note_on_c, 5, 62, 80
4, 58079, Note_on_c, 5, 62, 0
4, 58080, Note_on_c, 5, 55, 80
4, 58799, Note_on_c, 5, 55, 0
4, 58800, Note_on_c, 5, 60, 80
4, 59039, Note_on_c, 5, 60, 0
4, 59040, Note_on_c, 5, 62, 80
4, 59759, Note_on_c, 5, 62, 0
4, 59760, Note_on_c, 5, 64, 80
4, 59999, Note_on_c, 5, 64, 0
4, 60000, Note_on_c, 5, 57, 80
4, 60719, Note_on_c, 5, 57, 0
4, 60720, Note_on_c, 5, 59, 80
4, 60959, Note_on_c, 5, 59, 0
4, 60960, Note_on_c, 5, 60, 80
4, 61679, Note_on_c, 5, 60, 0
4, 61680, Note_on_c, 5, 62, 80
4, 61919, Note_on_c, 5, 62, 0
4, 61920, Note_on_c, 5, 55, 80
4, 62399, Note_on_c, 5, 55, 0
4, 62400, Note_on_c, 5, 55, 80
4, 62879, Note_on_c, 5, 55, 0
4, 62880, Note_on_c, 5, 60, 80
4, 63359, Note_on_c, 5, 60, 0
4, 63360, Note_on_c, 5, 60, 80
4, 63839, Note_on_c, 5, 60, 0
4, 63840, Note_on_c, 5, 60, 80
4, 64319, Note_on_c, 5, 60, 0
4, 64320, Note_on_c, 5, 60, 80
4, 64799, Note_on_c, 5, 60, 0
4, 64800, Note_on_c, 5, 60, 80
4, 65279, Note_on_c, 5, 60, 0
4, 65280, Note_on_c, 5, 60, 80
4, 65759, Note_on_c, 5, 60, 0
4, 65760, Note_on_c, 5, 55, 80
4, 66239, Note_on_c, 5, 55, 0
4, 66240, Note_on_c, 5, 55, 80
4, 66719, Note_on_c, 5, 55, 0
4, 66720, Note_on_c, 5, 60, 80
4, 67199, Note_on_c, 5, 60, 0
4, 67200, Note_on_c, 5, 60, 80
4, 67679, Note_on_c, 5, 60, 0
4, 67680, Note_on_c, 5, 60, 80
4, 68159, Note_on_c, 5, 60, 0
4, 68160, Note_on_c, 5, 60, 80
4, 68639, Note_on_c, 5, 60, 0
4, 68640, Note_on_c, 5, 60, 80
4, 69119, Note_on_c, 5, 60, 0
4, 69120, Note_on_c, 5, 60, 80
4, 69599, Note_on_c, 5, 60, 0
4, 69600, Note_on_c, 5, 55, 80
4, 70079, Note_on_c, 5, 55, 0
4, 70080, Note_on_c, 5, 55, 80
4, 70559, Note_on_c, 5, 55, 0
4, 70560, Note_on_c, 5, 60, 80
4, 71039, Note_on_c, 5, 60, 0
4, 71040, Note_on_c, 5, 60, 80
4, 71519, Note_on_c, 5, 60, 0
4, 71520, Note_on_c, 5, 60, 80
4, 71999, Note_on_c, 5, 60, 0
4, 72000, Note_on_c, 5, 60, 80
4, 72479, Note_on_c, 5, 60, 0
4, 72480, Note_on_c, 5, 60, 80
4, 72959, Note_on_c, 5, 60, 0
4, 72960, Note_on_c, 5, 60, 80
4, 73439, Note_on_c, 5, 60, 0
4, 73440, Note_on_c, 5, 55, 80
4, 73919, Note_on_c, 5, 55, 0
4, 73920, Note_on_c, 5, 55, 80
4, 74399, Note_on_c, 5, 55, 0
4, 74400, Note_on_c, 5, 57, 80
4, 74879, Note_on_c, 5, 57, 0
4, 74880, Note_on_c, 5, 57, 80
4, 75359, Note_on_c, 5, 57, 0
4, 75360, Note_on_c, 5, 48, 80
4, 75839, Note_on_c, 5, 48, 0
4, 75840, Note_on_c, 5, 48, 80
4, 77279, Note_on_c, 5, 48, 0
4, 77280, Note_on_c, 5, 55, 80
4, 77999, Note_on_c, 5, 55, 0
4, 78000, Note_on_c, 5, 60, 80
4, 78239, Note_on_c, 5, 60, 0
4, 78240, Note_on_c, 5, 62, 80
4, 78959, Note_on_c, 5, 62, 0
4, 78960, Note_on_c, 5, 64, 80
4, 79199, Note_on_c, 5, 64, 0
4, 79200, Note_on_c, 5, 57, 80
4, 79919, Note_on_c, 5, 57, 0
4, 79920, Note_on_c, 5, 59, 80
4, 80159, Note_on_c, 5, 59, 0
4, 80160, Note_on_c, 5, 60, 80
4, 80879, Note_on_c, 5, 60, 0
4, 80880, Note_on_c, 5, 62, 80
4, 81119, Note_on_c, 5, 62, 0
4, 81120, Note_on_c, 5, 55, 80
4, 81839, Note_on_c, 5, 55, 0
4, 81840, Note_on_c, 5, 60, 80
4, 82079, Note_on_c, 5, 60, 0
4, 82080, Note_on_c, 5, 62, 80
4, 82799, Note_on_c, 5, 62, 0
4, 82800, Note_on_c, 5, 64, 80
4, 83039, Note_on_c, 5, 64, 0
4, 83040, Note_on_c, 5, 57, 80
4, 83759, Note_on_c, 5, 57, 0
4, 83760, Note_on_c, 5, 59, 80
4, 83999, Note_on_c, 5, 59, 0
4, 84000, Note_on_c, 5, 60, 80
4, 84719, Note_on_c, 5, 60, 0
4, 84720, Note_on_c, 5, 62, 80
4, 84959, Note_on_c, 5, 62, 0
4, 84960, Note_on_c, 5, 55, 80
4, 85679, Note_on_c, 5, 55, 0
4, 85680, Note_on_c, 5, 60, 80
4, 85919, Note_on_c, 5, 60, 0
4, 85920, Note_on_c, 5, 62, 80
4, 86639, Note_on_c, 5, 62, 0
4, 86640, Note_on_c, 5, 64, 80
4, 86879, Note_on_c, 5, 64, 0
4, 86880, Note_on_c, 5, 57, 80
4, 87599, Note_on_c, 5, 57, 0
4, 87600, Note_on_c, 5, 59, 80
4, 87839, Note_on_c, 5, 59, 0
4, 87840, Note_on_c, 5, 60, 80
4, 88559, Note_on_c, 5, 60, 0
4, 88560, Note_on_c, 5, 62, 80
4, 88799, Note_on_c, 5, 62, 0
4, 88800, Note_on_c, 5, 55, 80
4, 89519, Note_on_c, 5, 55, 0
4, 89520, Note_on_c, 5, 60, 80
4, 89759, Note_on_c, 5, 60, 0
4, 89760, Note_on_c, 5, 62, 80
4, 90479, Note_on_c, 5, 62, 0
4, 90480, Note_on_c, 5, 64, 80
4, 90719, Note_on_c, 5, 64, 0
4, 90720, Note_on_c, 5, 57, 80
4, 92639, Note_on_c, 5, 57, 0
4, 92640, Note_on_c, 5, 55, 80
4, 93119, Note_on_c, 5, 55, 0
4, 93120, Note_on_c, 5, 55, 80
4, 93599, Note_on_c, 5, 55, 0
4, 93600, Note_on_c, 5, 60, 80
4, 94079, Note_on_c, 5, 60, 0
4, 94080, Note_on_c, 5, 60, 80
4, 94559, Note_on_c, 5, 60, 0
4, 94560, Note_on_c, 5, 60, 80
4, 95039, Note_on_c, 5, 60, 0
4, 95040, Note_on_c, 5, 60, 80
4, 95519, Note_on_c, 5, 60, 0
4, 95520, Note_on_c, 5, 60, 80
4, 95999, Note_on_c, 5, 60, 0
4, 96000, Note_on_c, 5, 60, 80
4, 96479, Note_on_c, 5, 60, 0
4, 96480, Note_on_c, 5, 55, 80
4, 96959, Note_on_c, 5, 55, 0
4, 96960, Note_on_c, 5, 55, 80
4, 97439, Note_on_c, 5, 55, 0
4, 97440, Note_on_c, 5, 60, 80
4, 97919, Note_on_c, 5, 60, 0
4, 97920, Note_on_c, 5, 60, 80
4, 98399, Note_on_c, 5, 60, 0
4, 98400, Note_on_c, 5, 60, 80
4, 98879, Note_on_c, 5, 60, 0
4, 98880, Note_on_c, 5, 60, 80
4, 99359, Note_on_c, 5, 60, 0
4, 99360, Note_on_c, 5, 60, 80
4, 99839, Note_on_c, 5, 60, 0
4, 99840, Note_on_c, 5, 60, 80
4, 100319, Note_on_c, 5, 60, 0
4, 100320, Note_on_c, 5, 55, 80
4, 100799, Note_on_c, 5, 55, 0
4, 100800, Note_on_c, 5, 55, 80
4, 101279, Note_on_c, 5, 55, 0
4, 101280, Note_on_c, 5, 60, 80
4, 101759, Note_on_c, 5, 60, 0
4, 101760, Note_on_c, 5, 60, 80
4, 102239, Note_on_c, 5, 60, 0
4, 102240, Note_on_c, 5, 60, 80
4, 102719, Note_on_c, 5, 60, 0
4, 102720, Note_on_c, 5, 60, 80
4, 103199, Note_on_c, 5, 60, 0
4, 103200, Note_on_c, 5, 60, 80
4, 104159, Note_on_c, 5, 60, 0
4, 104160, Note_on_c, 5, 55, 80
4, 104639, Note_on_c, 5, 55, 0
4, 104640, Note_on_c, 5, 55, 80
4, 105119, Note_on_c, 5, 55, 0
4, 105120, Note_on_c, 5, 60, 80
4, 105599, Note_on_c, 5, 60, 0
4, 105600, Note_on_c, 5, 60, 80
4, 106079, Note_on_c, 5, 60, 0
4, 106080, Note_on_c, 5, 55, 80
4, 106799, Note_on_c, 5, 55, 0
4, 106800, Note_on_c, 5, 60, 80
4, 107039, Note_on_c, 5, 60, 0
4, 107040, Note_on_c, 5, 62, 80
4, 107759, Note_on_c, 5, 62, 0
4, 107760, Note_on_c, 5, 64, 80
4, 107999, Note_on_c, 5, 64, 0
4, 108000, Note_on_c, 5, 57, 80
4, 108719, Note_on_c, 5, 57, 0
4, 108720, Note_on_c, 5, 59, 80
4, 108959, Note_on_c, 5, 59, 0
4, 108960, Note_on_c, 5, 60, 80
4, 109679, Note_on_c, 5, 60, 0
4, 109680, Note_on_c, 5, 62, 80
4, 109919, Note_on_c, 5, 62, 0
4, 109920, Note_on_c, 5, 55, 80
4, 110639, Note_on_c, 5, 55, 0
4, 110640, Note_on_c, 5, 60, 80
4, 110879, Note_on_c, 5, 60, 0
4, 110880, Note_on_c, 5, 62, 80
4, 111599, Note_on_c, 5, 62, 0
4, 111600, Note_on_c, 5, 64, 80
4, 111839, Note_on_c, 5, 64, 0
4, 111840, Note_on_c, 5, 57, 80
4, 112559, Note_on_c, 5, 57, 0
4, 112560, Note_on_c, 5, 59, 80
4, 112799, Note_on_c, 5, 59, 0
4, 112800, Note_on_c, 5, 60, 80
4, 113519, Note_on_c, 5, 60, 0
4, 113520, Note_on_c, 5, 62, 80
4, 113759, Note_on_c, 5, 62, 0
4, 113760, Note_on_c, 5, 55, 80
4, 114479, Note_on_c, 5, 55, 0
4, 114480, Note_on_c, 5, 60, 80
4, 114719, Note_on_c, 5, 60, 0
4, 114720, Note_on_c, 5, 62, 80
4, 115439, Note_on_c, 5, 62, 0
4, 115440, Note_on_c, 5, 64, 80
4, 115679, Note_on_c, 5, 64, 0
4, 115680, Note_on_c, 5, 57, 80
4, 116399, Note_on_c, 5, 57, 0
4, 116400, Note_on_c, 5, 59, 80
4, 116639, Note_on_c, 5, 59, 0
4, 116640, Note_on_c, 5, 60, 80
4, 117359, Note_on_c, 5, 60, 0
4, 117360, Note_on_c, 5, 62, 80
4, 117599, Note_on_c, 5, 62, 0
4, 117600, Note_on_c, 5, 55, 80
4, 118319, Note_on_c, 5, 55, 0
4, 118320, Note_on_c, 5, 60, 80
4, 118559, Note_on_c, 5, 60, 0
4, 118560, Note_on_c, 5, 62, 80
4, 119279, Note_on_c, 5, 62, 0
4, 119280, Note_on_c, 5, 64, 80
4, 119519, Note_on_c, 5, 64, 0
4, 119520, Note_on_c, 5, 57, 80
4, 120239, Note_on_c, 5, 57, 0
4, 120240, Note_on_c, 5, 59, 80
4, 120479, Note_on_c, 5, 59, 0
4, 120480, Note_on_c, 5, 60, 80
4, 121199, Note_on_c, 5, 60, 0
4, 121200, Note_on_c, 5, 62, 80
4, 121439, Note_on_c, 5, 62, 0
4, 121440, Note_on_c, 5, 55, 80
4, 122399, Note_on_c, 5, 55, 0
4, 122400, Note_on_c, 5, 60, 80
4, 123359, Note_on_c, 5, 60, 0
4, 123360, Note_on_c, 5, 60, 80
4, 124319, Note_on_c, 5, 60, 0
4, 124320, Note_on_c, 5, 60, 80
4, 125279, Note_on_c, 5, 60, 0
4, 125280, Note_on_c, 5, 55, 80
4, 126239, Note_on_c, 5, 55, 0
4, 126240, Note_on_c, 5, 52, 80
4, 127199, Note_on_c, 5, 52, 0
4, 127200, Note_on_c, 5, 48, 80
4, 129119, Note_on_c, 5, 48, 0
4, 129120, End_track
5, 0, Start_track
5, 0, Title_t, "Classical Guitar, Lute\000"
5, 0, Key_signature, 0, "major"
5, 0, Control_c, 4, 121, 0
5, 0, Program_c, 4, 24
5, 0, Control_c, 4, 7, 100
5, 0, Control_c, 4, 10, 64
5, 0, Control_c, 4, 91, 0
5, 0, Control_c, 4, 93, 0
5, 0, MIDI_port, 0
5, 0, Control_c, 10, 121, 0
5, 0, Program_c, 10, 28
5, 0, Control_c, 10, 7, 100
5, 0, Control_c, 10, 10, 64
5, 0, Control_c, 10, 91, 0
5, 0, Control_c, 10, 93, 0
5, 0, MIDI_port, 0
5, 8160, Note_on_c, 4, 55, 64
5, 8399, Note_on_c, 4, 55, 0
5, 8640, Note_on_c, 4, 62, 64
5, 8640, Note_on_c, 4, 67, 64
5, 9119, Note_on_c, 4, 62, 0
5, 9119, Note_on_c, 4, 67, 0
5, 9120, Note_on_c, 4, 50, 64
5, 9359, Note_on_c, 4, 50, 0
5, 9360, Note_on_c, 4, 62, 64
5, 9360, Note_on_c, 4, 67, 64
5, 9599, Note_on_c, 4, 62, 0
5, 9599, Note_on_c, 4, 67, 0
5, 9600, Note_on_c, 4, 62, 64
5, 9600, Note_on_c, 4, 67, 64
5, 10079, Note_on_c, 4, 62, 0
5, 10079, Note_on_c, 4, 67, 0
5, 10080, Note_on_c, 4, 57, 64
5, 10559, Note_on_c, 4, 57, 0
5, 10560, Note_on_c, 4, 60, 64
5, 10560, Note_on_c, 4, 64, 64
5, 11039, Note_on_c, 4, 60, 0
5, 11039, Note_on_c, 4, 64, 0
5, 11040, Note_on_c, 4, 48, 64
5, 11279, Note_on_c, 4, 48, 0
5, 11280, Note_on_c, 4, 64, 64
5, 11280, Note_on_c, 4, 67, 64
5, 11519, Note_on_c, 4, 64, 0
5, 11519, Note_on_c, 4, 67, 0
5, 11520, Note_on_c, 4, 64, 64
5, 11520, Note_on_c, 4, 67, 64
5, 11999, Note_on_c, 4, 64, 0
5, 11999, Note_on_c, 4, 67, 0
5, 12000, Note_on_c, 4, 55, 64
5, 12239, Note_on_c, 4, 55, 0
5, 12480, Note_on_c, 4, 62, 64
5, 12480, Note_on_c, 4, 67, 64
5, 12959, Note_on_c, 4, 62, 0
5, 12959, Note_on_c, 4, 67, 0
5, 12960, Note_on_c, 4, 50, 64
5, 13199, Note_on_c, 4, 50, 0
5, 13200, Note_on_c, 4, 62, 64
5, 13200, Note_on_c, 4, 67, 64
5, 13439, Note_on_c, 4, 62, 0
5, 13439, Note_on_c, 4, 67, 0
5, 13440, Note_on_c, 4, 62, 64
5, 13440, Note_on_c, 4, 67, 64
5, 13919, Note_on_c, 4, 62, 0
5, 13919, Note_on_c, 4, 67, 0
5, 13920, Note_on_c, 4, 57, 64
5, 14399, Note_on_c, 4, 57, 0
5, 14400, Note_on_c, 4, 60, 64
5, 14400, Note_on_c, 4, 64, 64
5, 14879, Note_on_c, 4, 60, 0
5, 14879, Note_on_c, 4, 64, 0
5, 14880, Note_on_c, 4, 48, 64
5, 15119, Note_on_c, 4, 48, 0
5, 15120, Note_on_c, 4, 64, 64
5, 15120, Note_on_c, 4, 67, 64
5, 15359, Note_on_c, 4, 64, 0
5, 15359, Note_on_c, 4, 67, 0
5, 15360, Note_on_c, 4, 64, 64
5, 15360, Note_on_c, 4, 67, 64
5, 15839, Note_on_c, 4, 64, 0
5, 15839, Note_on_c, 4, 67, 0
5, 15840, Note_on_c, 4, 55, 64
5, 16079, Note_on_c, 4, 55, 0
5, 16320, Note_on_c, 4, 62, 64
5, 16320, Note_on_c, 4, 67, 64
5, 16799, Note_on_c, 4, 62, 0
5, 16799, Note_on_c, 4, 67, 0
5, 16800, Note_on_c, 4, 50, 64
5, 17039, Note_on_c, 4, 50, 0
5, 17040, Note_on_c, 4, 62, 64
5, 17040, Note_on_c, 4, 67, 64
5, 17279, Note_on_c, 4, 62, 0
5, 17279, Note_on_c, 4, 67, 0
5, 17280, Note_on_c, 4, 62, 64
5, 17280, Note_on_c, 4, 67, 64
5, 17759, Note_on_c, 4, 62, 0
5, 17759, Note_on_c, 4, 67, 0
5, 17760, Note_on_c, 4, 57, 64
5, 18239, Note_on_c, 4, 57, 0
5, 18240, Note_on_c, 4, 60, 64
5, 18240, Note_on_c, 4, 64, 64
5, 18719, Note_on_c, 4, 60, 0
5, 18719, Note_on_c, 4, 64, 0
5, 18720, Note_on_c, 4, 48, 64
5, 18959, Note_on_c, 4, 48, 0
5, 18960, Note_on_c, 4, 64, 64
5, 18960, Note_on_c, 4, 67, 64
5, 19199, Note_on_c, 4, 64, 0
5, 19199, Note_on_c, 4, 67, 0
5, 19200, Note_on_c, 4, 64, 64
5, 19200, Note_on_c, 4, 67, 64
5, 19679, Note_on_c, 4, 64, 0
5, 19679, Note_on_c, 4, 67, 0
5, 19680, Note_on_c, 4, 55, 64
5, 19919, Note_on_c, 4, 55, 0
5, 20160, Note_on_c, 4, 62, 64
5, 20160, Note_on_c, 4, 67, 64
5, 20639, Note_on_c, 4, 62, 0
5, 20639, Note_on_c, 4, 67, 0
5, 20640, Note_on_c, 4, 50, 64
5, 20879, Note_on_c, 4, 50, 0
5, 20880, Note_on_c, 4, 62, 64
5, 20880, Note_on_c, 4, 67, 64
5, 21119, Note_on_c, 4, 62, 0
5, 21119, Note_on_c, 4, 67, 0
5, 21120, Note_on_c, 4, 62, 64
5, 21120, Note_on_c, 4, 67, 64
5, 21599, Note_on_c, 4, 62, 0
5, 21599, Note_on_c, 4, 67, 0
5, 21600, Note_on_c, 4, 57, 64
5, 22079, Note_on_c, 4, 57, 0
5, 22080, Note_on_c, 4, 60, 64
5, 22080, Note_on_c, 4, 64, 64
5, 22559, Note_on_c, 4, 60, 0
5, 22559, Note_on_c, 4, 64, 0
5, 22560, Note_on_c, 4, 48, 64
5, 22799, Note_on_c, 4, 48, 0
5, 22800, Note_on_c, 4, 64, 64
5, 22800, Note_on_c, 4, 67, 64
5, 23039, Note_on_c, 4, 64, 0
5, 23039, Note_on_c, 4, 67, 0
5, 23040, Note_on_c, 4, 64, 64
5, 23040, Note_on_c, 4, 67, 64
5, 23519, Note_on_c, 4, 64, 0
5, 23519, Note_on_c, 4, 67, 0
5, 23520, Note_on_c, 4, 55, 64
5, 23759, Note_on_c, 4, 55, 0
5, 24000, Note_on_c, 4, 62, 64
5, 24000, Note_on_c, 4, 67, 64
5, 24479, Note_on_c, 4, 62, 0
5, 24479, Note_on_c, 4, 67, 0
5, 24480, Note_on_c, 4, 50, 64
5, 24719, Note_on_c, 4, 50, 0
5, 24720, Note_on_c, 4, 62, 64
5, 24720, Note_on_c, 4, 67, 64
5, 24959, Note_on_c, 4, 62, 0
5, 24959, Note_on_c, 4, 67, 0
5, 24960, Note_on_c, 4, 62, 64
5, 24960, Note_on_c, 4, 67, 64
5, 25439, Note_on_c, 4, 62, 0
5, 25439, Note_on_c, 4, 67, 0
5, 25440, Note_on_c, 4, 57, 64
5, 25919, Note_on_c, 4, 57, 0
5, 25920, Note_on_c, 4, 60, 64
5, 25920, Note_on_c, 4, 64, 64
5, 26399, Note_on_c, 4, 60, 0
5, 26399, Note_on_c, 4, 64, 0
5, 26400, Note_on_c, 4, 48, 64
5, 26639, Note_on_c, 4, 48, 0
5, 26640, Note_on_c, 4, 64, 64
5, 26640, Note_on_c, 4, 67, 64
5, 26879, Note_on_c, 4, 64, 0
5, 26879, Note_on_c, 4, 67, 0
5, 26880, Note_on_c, 4, 64, 64
5, 26880, Note_on_c, 4, 67, 64
5, 27359, Note_on_c, 4, 64, 0
5, 27359, Note_on_c, 4, 67, 0
5, 27360, Note_on_c, 4, 55, 64
5, 27599, Note_on_c, 4, 55, 0
5, 27840, Note_on_c, 4, 62, 64
5, 27840, Note_on_c, 4, 67, 64
5, 28319, Note_on_c, 4, 62, 0
5, 28319, Note_on_c, 4, 67, 0
5, 28320, Note_on_c, 4, 50, 64
5, 28559, Note_on_c, 4, 50, 0
5, 28560, Note_on_c, 4, 62, 64
5, 28560, Note_on_c, 4, 67, 64
5, 28799, Note_on_c, 4, 62, 0
5, 28799, Note_on_c, 4, 67, 0
5, 28800, Note_on_c, 4, 62, 64
5, 28800, Note_on_c, 4, 67, 64
5, 29279, Note_on_c, 4, 62, 0
5, 29279, Note_on_c, 4, 67, 0
5, 29280, Note_on_c, 4, 57, 64
5, 29759, Note_on_c, 4, 57, 0
5, 29760, Note_on_c, 4, 60, 64
5, 29760, Note_on_c, 4, 64, 64
5, 30239, Note_on_c, 4, 60, 0
5, 30239, Note_on_c, 4, 64, 0
5, 30240, Note_on_c, 4, 48, 64
5, 30479, Note_on_c, 4, 48, 0
5, 30480, Note_on_c, 4, 64, 64
5, 30480, Note_on_c, 4, 67, 64
5, 30719, Note_on_c, 4, 64, 0
5, 30719, Note_on_c, 4, 67, 0
5, 30720, Note_on_c, 4, 64, 64
5, 30720, Note_on_c, 4, 67, 64
5, 31199, Note_on_c, 4, 64, 0
5, 31199, Note_on_c, 4, 67, 0
5, 31200, Note_on_c, 4, 55, 64
5, 31439, Note_on_c, 4, 55, 0
5, 31440, Note_on_c, 4, 55, 64
5, 31679, Note_on_c, 4, 55, 0
5, 31680, Note_on_c, 4, 62, 64
5, 31680, Note_on_c, 4, 67, 64
5, 32159, Note_on_c, 4, 62, 0
5, 32159, Note_on_c, 4, 67, 0
5, 32160, Note_on_c, 4, 60, 64
5, 32399, Note_on_c, 4, 60, 0
5, 32400, Note_on_c, 4, 60, 64
5, 32639, Note_on_c, 4, 60, 0
5, 32640, Note_on_c, 4, 64, 64
5, 32640, Note_on_c, 4, 67, 64
5, 33119, Note_on_c, 4, 64, 0
5, 33119, Note_on_c, 4, 67, 0
5, 33120, Note_on_c, 4, 60, 64
5, 33359, Note_on_c, 4, 60, 0
5, 33360, Note_on_c, 4, 60, 64
5, 33599, Note_on_c, 4, 60, 0
5, 33600, Note_on_c, 4, 64, 64
5, 33600, Note_on_c, 4, 67, 64
5, 33839, Note_on_c, 4, 64, 0
5, 33839, Note_on_c, 4, 67, 0
5, 34080, Note_on_c, 4, 60, 64
5, 34319, Note_on_c, 4, 60, 0
5, 34320, Note_on_c, 4, 60, 64
5, 34559, Note_on_c, 4, 60, 0
5, 34560, Note_on_c, 4, 64, 64
5, 34560, Note_on_c, 4, 67, 64
5, 35039, Note_on_c, 4, 64, 0
5, 35039, Note_on_c, 4, 67, 0
5, 35040, Note_on_c, 4, 55, 64
5, 35279, Note_on_c, 4, 55, 0
5, 35280, Note_on_c, 4, 55, 64
5, 35519, Note_on_c, 4, 55, 0
5, 35520, Note_on_c, 4, 62, 64
5, 35520, Note_on_c, 4, 67, 64
5, 35999, Note_on_c, 4, 62, 0
5, 35999, Note_on_c, 4, 67, 0
5, 36000, Note_on_c, 4, 60, 64
5, 36239, Note_on_c, 4, 60, 0
5, 36240, Note_on_c, 4, 60, 64
5, 36479, Note_on_c, 4, 60, 0
5, 36480, Note_on_c, 4, 64, 64
5, 36480, Note_on_c, 4, 67, 64
5, 36959, Note_on_c, 4, 64, 0
5, 36959, Note_on_c, 4, 67, 0
5, 36960, Note_on_c, 4, 60, 64
5, 37199, Note_on_c, 4, 60, 0
5, 37200, Note_on_c, 4, 60, 64
5, 37439, Note_on_c, 4, 60, 0
5, 37440, Note_on_c, 4, 64, 64
5, 37440, Note_on_c, 4, 67, 64
5, 37919, Note_on_c, 4, 64, 0
5, 37919, Note_on_c, 4, 67, 0
5, 37920, Note_on_c, 4, 60, 64
5, 38159, Note_on_c, 4, 60, 0
5, 38160, Note_on_c, 4, 60, 64
5, 38399, Note_on_c, 4, 60, 0
5, 38400, Note_on_c, 4, 64, 64
5, 38400, Note_on_c, 4, 67, 64
5, 38879, Note_on_c, 4, 64, 0
5, 38879, Note_on_c, 4, 67, 0
5, 38880, Note_on_c, 4, 55, 64
5, 39119, Note_on_c, 4, 55, 0
5, 39120, Note_on_c, 4, 55, 64
5, 39359, Note_on_c, 4, 55, 0
5, 39360, Note_on_c, 4, 62, 64
5, 39360, Note_on_c, 4, 67, 64
5, 39839, Note_on_c, 4, 62, 0
5, 39839, Note_on_c, 4, 67, 0
5, 39840, Note_on_c, 4, 60, 64
5, 40079, Note_on_c, 4, 60, 0
5, 40080, Note_on_c, 4, 60, 64
5, 40319, Note_on_c, 4, 60, 0
5, 40320, Note_on_c, 4, 64, 64
5, 40320, Note_on_c, 4, 67, 64
5, 40799, Note_on_c, 4, 64, 0
5, 40799, Note_on_c, 4, 67, 0
5, 40800, Note_on_c, 4, 60, 64
5, 41039, Note_on_c, 4, 60, 0
5, 41040, Note_on_c, 4, 60, 64
5, 41279, Note_on_c, 4, 60, 0
5, 41280, Note_on_c, 4, 64, 64
5, 41280, Note_on_c, 4, 67, 64
5, 41759, Note_on_c, 4, 64, 0
5, 41759, Note_on_c, 4, 67, 0
5, 41760, Note_on_c, 4, 60, 64
5, 41999, Note_on_c, 4, 60, 0
5, 42000, Note_on_c, 4, 60, 64
5, 42239, Note_on_c, 4, 60, 0
5, 42240, Note_on_c, 4, 64, 64
5, 42240, Note_on_c, 4, 67, 64
5, 42719, Note_on_c, 4, 64, 0
5, 42719, Note_on_c, 4, 67, 0
5, 42720, Note_on_c, 4, 55, 64
5, 42959, Note_on_c, 4, 55, 0
5, 42960, Note_on_c, 4, 55, 64
5, 43199, Note_on_c, 4, 55, 0
5, 43200, Note_on_c, 4, 62, 64
5, 43200, Note_on_c, 4, 67, 64
5, 43679, Note_on_c, 4, 62, 0
5, 43679, Note_on_c, 4, 67, 0
5, 43680, Note_on_c, 4, 57, 64
5, 43919, Note_on_c, 4, 57, 0
5, 43920, Note_on_c, 4, 57, 64
5, 44159, Note_on_c, 4, 57, 0
5, 44160, Note_on_c, 4, 64, 64
5, 44160, Note_on_c, 4, 69, 64
5, 44639, Note_on_c, 4, 64, 0
5, 44639, Note_on_c, 4, 69, 0
5, 44640, Note_on_c, 4, 60, 64
5, 44879, Note_on_c, 4, 60, 0
5, 44880, Note_on_c, 4, 60, 64
5, 45119, Note_on_c, 4, 60, 0
5, 45120, Note_on_c, 4, 64, 64
5, 45120, Note_on_c, 4, 67, 64
5, 46559, Note_on_c, 4, 64, 0
5, 46559, Note_on_c, 4, 67, 0
5, 46560, Note_on_c, 4, 55, 64
5, 46799, Note_on_c, 4, 55, 0
5, 47040, Note_on_c, 4, 62, 64
5, 47040, Note_on_c, 4, 67, 64
5, 47519, Note_on_c, 4, 62, 0
5, 47519, Note_on_c, 4, 67, 0
5, 47520, Note_on_c, 4, 50, 64
5, 47759, Note_on_c, 4, 50, 0
5, 47760, Note_on_c, 4, 62, 64
5, 47760, Note_on_c, 4, 67, 64
5, 47999, Note_on_c, 4, 62, 0
5, 47999, Note_on_c, 4, 67, 0
5, 48000, Note_on_c, 4, 62, 64
5, 48000, Note_on_c, 4, 67, 64
5, 48479, Note_on_c, 4, 62, 0
5, 48479, Note_on_c, 4, 67, 0
5, 48480, Note_on_c, 4, 57, 64
5, 48959, Note_on_c, 4, 57, 0
5, 48960, Note_on_c, 4, 60, 64
5, 48960, Note_on_c, 4, 64, 64
5, 49439, Note_on_c, 4, 60, 0
5, 49439, Note_on_c, 4, 64, 0
5, 49440, Note_on_c, 4, 48, 64
5, 49679, Note_on_c, 4, 48, 0
5, 49680, Note_on_c, 4, 64, 64
5, 49680, Note_on_c, 4, 67, 64
5, 49919, Note_on_c, 4, 64, 0
5, 49919, Note_on_c, 4, 67, 0
5, 49920, Note_on_c, 4, 64, 64
5, 49920, Note_on_c, 4, 67, 64
5, 50399, Note_on_c, 4, 64, 0
5, 50399, Note_on_c, 4, 67, 0
5, 50400, Note_on_c, 4, 55, 64
5, 50639, Note_on_c, 4, 55, 0
5, 50880, Note_on_c, 4, 62, 64
5, 50880, Note_on_c, 4, 67, 64
5, 51359, Note_on_c, 4, 62, 0
5, 51359, Note_on_c, 4, 67, 0
5, 51360, Note_on_c, 4, 50, 64
5, 51599, Note_on_c, 4, 50, 0
5, 51600, Note_on_c, 4, 62, 64
5, 51600, Note_on_c, 4, 67, 64
5, 51839, Note_on_c, 4, 62, 0
5, 51839, Note_on_c, 4, 67, 0
5, 51840, Note_on_c, 4, 62, 64
5, 51840, Note_on_c, 4, 67, 64
5, 52319, Note_on_c, 4, 62, 0
5, 52319, Note_on_c, 4, 67, 0
5, 52320, Note_on_c, 4, 57, 64
5, 52799, Note_on_c, 4, 57, 0
5, 52800, Note_on_c, 4, 60, 64
5, 52800, Note_on_c, 4, 64, 64
5, 53279, Note_on_c, 4, 60, 0
5, 53279, Note_on_c, 4, 64, 0
5, 53280, Note_on_c, 4, 48, 64
5, 53519, Note_on_c, 4, 48, 0
5, 53520, Note_on_c, 4, 64, 64
5, 53520, Note_on_c, 4, 67, 64
5, 53759, Note_on_c, 4, 64, 0
5, 53759, Note_on_c, 4, 67, 0
5, 53760, Note_on_c, 4, 64, 64
5, 53760, Note_on_c, 4, 67, 64
5, 54239, Note_on_c, 4, 64, 0
5, 54239, Note_on_c, 4, 67, 0
5, 54240, Note_on_c, 4, 55, 64
5, 54479, Note_on_c, 4, 55, 0
5, 54720, Note_on_c, 4, 62, 64
5, 54720, Note_on_c, 4, 67, 64
5, 55199, Note_on_c, 4, 62, 0
5, 55199, Note_on_c, 4, 67, 0
5, 55200, Note_on_c, 4, 50, 64
5, 55439, Note_on_c, 4, 50, 0
5, 55440, Note_on_c, 4, 62, 64
5, 55440, Note_on_c, 4, 67, 64
5, 55679, Note_on_c, 4, 62, 0
5, 55679, Note_on_c, 4, 67, 0
5, 55680, Note_on_c, 4, 62, 64
5, 55680, Note_on_c, 4, 67, 64
5, 56159, Note_on_c, 4, 62, 0
5, 56159, Note_on_c, 4, 67, 0
5, 56160, Note_on_c, 4, 57, 64
5, 56639, Note_on_c, 4, 57, 0
5, 56640, Note_on_c, 4, 60, 64
5, 56640, Note_on_c, 4, 64, 64
5, 57119, Note_on_c, 4, 60, 0
5, 57119, Note_on_c, 4, 64, 0
5, 57120, Note_on_c, 4, 48, 64
5, 57359, Note_on_c, 4, 48, 0
5, 57360, Note_on_c, 4, 64, 64
5, 57360, Note_on_c, 4, 67, 64
5, 57599, Note_on_c, 4, 64, 0
5, 57599, Note_on_c, 4, 67, 0
5, 57600, Note_on_c, 4, 64, 64
5, 57600, Note_on_c, 4, 67, 64
5, 58079, Note_on_c, 4, 64, 0
5, 58079, Note_on_c, 4, 67, 0
5, 58080, Note_on_c, 4, 55, 64
5, 58319, Note_on_c, 4, 55, 0
5, 58560, Note_on_c, 4, 62, 64
5, 58560, Note_on_c, 4, 67, 64
5, 59039, Note_on_c, 4, 62, 0
5, 59039, Note_on_c, 4, 67, 0
5, 59040, Note_on_c, 4, 50, 64
5, 59279, Note_on_c, 4, 50, 0
5, 59280, Note_on_c, 4, 62, 64
5, 59280, Note_on_c, 4, 67, 64
5, 59519, Note_on_c, 4, 62, 0
5, 59519, Note_on_c, 4, 67, 0
5, 59520, Note_on_c, 4, 62, 64
5, 59520, Note_on_c, 4, 67, 64
5, 59999, Note_on_c, 4, 62, 0
5, 59999, Note_on_c, 4, 67, 0
5, 60000, Note_on_c, 4, 57, 64
5, 60479, Note_on_c, 4, 57, 0
5, 60480, Note_on_c, 4, 60, 64
5, 60480, Note_on_c, 4, 64, 64
5, 60959, Note_on_c, 4, 60, 0
5, 60959, Note_on_c, 4, 64, 0
5, 60960, Note_on_c, 4, 48, 64
5, 61199, Note_on_c, 4, 48, 0
5, 61200, Note_on_c, 4, 64, 64
5, 61200, Note_on_c, 4, 67, 64
5, 61439, Note_on_c, 4, 64, 0
5, 61439, Note_on_c, 4, 67, 0
5, 61440, Note_on_c, 4, 64, 64
5, 61440, Note_on_c, 4, 67, 64
5, 61919, Note_on_c, 4, 64, 0
5, 61919, Note_on_c, 4, 67, 0
5, 61920, Note_on_c, 4, 55, 64
5, 61920, Note_on_c, 4, 59, 64
5, 62159, Note_on_c, 4, 55, 0
5, 62159, Note_on_c, 4, 59, 0
5, 62160, Note_on_c, 4, 55, 64
5, 62160, Note_on_c, 4, 59, 64
5, 62399, Note_on_c, 4, 55, 0
5, 62399, Note_on_c, 4, 59, 0
5, 62400, Note_on_c, 4, 55, 64
5, 62400, Note_on_c, 4, 59, 64
5, 62639, Note_on_c, 4, 55, 0
5, 62639, Note_on_c, 4, 59, 0
5, 62640, Note_on_c, 4, 55, 64
5, 62640, Note_on_c, 4, 59, 64
5, 62879, Note_on_c, 4, 55, 0
5, 62879, Note_on_c, 4, 59, 0
5, 62880, Note_on_c, 4, 55, 64
5, 62880, Note_on_c, 4, 60, 64
5, 63119, Note_on_c, 4, 55, 0
5, 63119, Note_on_c, 4, 60, 0
5, 63120, Note_on_c, 4, 55, 64
5, 63120, Note_on_c, 4, 60, 64
5, 63359, Note_on_c, 4, 55, 0
5, 63359, Note_on_c, 4, 60, 0
5, 63360, Note_on_c, 4, 55, 64
5, 63360, Note_on_c, 4, 60, 64
5, 63599, Note_on_c, 4, 55, 0
5, 63599, Note_on_c, 4, 60, 0
5, 63600, Note_on_c, 4, 55, 64
5, 63600, Note_on_c, 4, 60, 64
5, 63839, Note_on_c, 4, 55, 0
5, 63839, Note_on_c, 4, 60, 0
5, 63840, Note_on_c, 4, 55, 64
5, 63840, Note_on_c, 4, 60, 64
5, 64079, Note_on_c, 4, 55, 0
5, 64079, Note_on_c, 4, 60, 0
5, 64080, Note_on_c, 4, 55, 64
5, 64080, Note_on_c, 4, 60, 64
5, 64319, Note_on_c, 4, 55, 0
5, 64319, Note_on_c, 4, 60, 0
5, 64320, Note_on_c, 4, 55, 64
5, 64320, Note_on_c, 4, 60, 64
5, 64559, Note_on_c, 4, 55, 0
5, 64559, Note_on_c, 4, 60, 0
5, 64560, Note_on_c, 4, 55, 64
5, 64560, Note_on_c, 4, 60, 64
5, 64799, Note_on_c, 4, 55, 0
5, 64799, Note_on_c, 4, 60, 0
5, 64800, Note_on_c, 4, 55, 64
5, 64800, Note_on_c, 4, 60, 64
5, 65039, Note_on_c, 4, 55, 0
5, 65039, Note_on_c, 4, 60, 0
5, 65040, Note_on_c, 4, 55, 64
5, 65040, Note_on_c, 4, 60, 64
5, 65279, Note_on_c, 4, 55, 0
5, 65279, Note_on_c, 4, 60, 0
5, 65280, Note_on_c, 4, 55, 64
5, 65280, Note_on_c, 4, 60, 64
5, 65519, Note_on_c, 4, 55, 0
5, 65519, Note_on_c, 4, 60, 0
5, 65520, Note_on_c, 4, 55, 64
5, 65520, Note_on_c, 4, 60, 64
5, 65759, Note_on_c, 4, 55, 0
5, 65759, Note_on_c, 4, 60, 0
5, 65760, Note_on_c, 4, 55, 64
5, 65760, Note_on_c, 4, 59, 64
5, 65999, Note_on_c, 4, 55, 0
5, 65999, Note_on_c, 4, 59, 0
5, 66000, Note_on_c, 4, 55, 64
5, 66000, Note_on_c, 4, 59, 64
5, 66239, Note_on_c, 4, 55, 0
5, 66239, Note_on_c, 4, 59, 0
5, 66240, Note_on_c, 4, 55, 64
5, 66240, Note_on_c, 4, 59, 64
5, 66479, Note_on_c, 4, 55, 0
5, 66479, Note_on_c, 4, 59, 0
5, 66480, Note_on_c, 4, 55, 64
5, 66480, Note_on_c, 4, 59, 64
5, 66719, Note_on_c, 4, 55, 0
5, 66719, Note_on_c, 4, 59, 0
5, 66720, Note_on_c, 4, 55, 64
5, 66720, Note_on_c, 4, 60, 64
5, 66959, Note_on_c, 4, 55, 0
5, 66959, Note_on_c, 4, 60, 0
5, 66960, Note_on_c, 4, 55, 64
5, 66960, Note_on_c, 4, 60, 64
5, 67199, Note_on_c, 4, 55, 0
5, 67199, Note_on_c, 4, 60, 0
5, 67200, Note_on_c, 4, 55, 64
5, 67200, Note_on_c, 4, 60, 64
5, 67439, Note_on_c, 4, 55, 0
5, 67439, Note_on_c, 4, 60, 0
5, 67440, Note_on_c, 4, 55, 64
5, 67440, Note_on_c, 4, 60, 64
5, 67679, Note_on_c, 4, 55, 0
5, 67679, Note_on_c, 4, 60, 0
5, 67680, Note_on_c, 4, 55, 64
5, 67680, Note_on_c, 4, 60, 64
5, 67919, Note_on_c, 4, 55, 0
5, 67919, Note_on_c, 4, 60, 0
5, 67920, Note_on_c, 4, 55, 64
5, 67920, Note_on_c, 4, 60, 64
5, 68159, Note_on_c, 4, 55, 0
5, 68159, Note_on_c, 4, 60, 0
5, 68160, Note_on_c, 4, 55, 64
5, 68160, Note_on_c, 4, 60, 64
5, 68399, Note_on_c, 4, 55, 0
5, 68399, Note_on_c, 4, 60, 0
5, 68400, Note_on_c, 4, 55, 64
5, 68400, Note_on_c, 4, 60, 64
5, 68639, Note_on_c, 4, 55, 0
5, 68639, Note_on_c, 4, 60, 0
5, 68640, Note_on_c, 4, 55, 64
5, 68640, Note_on_c, 4, 60, 64
5, 68879, Note_on_c, 4, 55, 0
5, 68879, Note_on_c, 4, 60, 0
5, 68880, Note_on_c, 4, 55, 64
5, 68880, Note_on_c, 4, 60, 64
5, 69119, Note_on_c, 4, 55, 0
5, 69119, Note_on_c, 4, 60, 0
5, 69120, Note_on_c, 4, 55, 64
5, 69120, Note_on_c, 4, 60, 64
5, 69359, Note_on_c, 4, 55, 0
5, 69359, Note_on_c, 4, 60, 0
5, 69360, Note_on_c, 4, 55, 64
5, 69360, Note_on_c, 4, 60, 64
5, 69599, Note_on_c, 4, 55, 0
5, 69599, Note_on_c, 4, 60, 0
5, 69600, Note_on_c, 4, 55, 64
5, 69600, Note_on_c, 4, 59, 64
5, 69839, Note_on_c, 4, 55, 0
5, 69839, Note_on_c, 4, 59, 0
5, 69840, Note_on_c, 4, 55, 64
5, 69840, Note_on_c, 4, 59, 64
5, 70079, Note_on_c, 4, 55, 0
5, 70079, Note_on_c, 4, 59, 0
5, 70080, Note_on_c, 4, 55, 64
5, 70080, Note_on_c, 4, 59, 64
5, 70319, Note_on_c, 4, 55, 0
5, 70319, Note_on_c, 4, 59, 0
5, 70320, Note_on_c, 4, 55, 64
5, 70320, Note_on_c, 4, 59, 64
5, 70559, Note_on_c, 4, 55, 0
5, 70559, Note_on_c, 4, 59, 0
5, 70560, Note_on_c, 4, 55, 64
5, 70560, Note_on_c, 4, 60, 64
5, 70799, Note_on_c, 4, 55, 0
5, 70799, Note_on_c, 4, 60, 0
5, 70800, Note_on_c, 4, 55, 64
5, 70800, Note_on_c, 4, 60, 64
5, 71039, Note_on_c, 4, 55, 0
5, 71039, Note_on_c, 4, 60, 0
5, 71040, Note_on_c, 4, 55, 64
5, 71040, Note_on_c, 4, 60, 64
5, 71279, Note_on_c, 4, 55, 0
5, 71279, Note_on_c, 4, 60, 0
5, 71280, Note_on_c, 4, 55, 64
5, 71280, Note_on_c, 4, 60, 64
5, 71519, Note_on_c, 4, 55, 0
5, 71519, Note_on_c, 4, 60, 0
5, 71520, Note_on_c, 4, 55, 64
5, 71520, Note_on_c, 4, 60, 64
5, 71759, Note_on_c, 4, 55, 0
5, 71759, Note_on_c, 4, 60, 0
5, 71760, Note_on_c, 4, 55, 64
5, 71760, Note_on_c, 4, 60, 64
5, 71999, Note_on_c, 4, 55, 0
5, 71999, Note_on_c, 4, 60, 0
5, 72000, Note_on_c, 4, 55, 64
5, 72000, Note_on_c, 4, 60, 64
5, 72239, Note_on_c, 4, 55, 0
5, 72239, Note_on_c, 4, 60, 0
5, 72240, Note_on_c, 4, 55, 64
5, 72240, Note_on_c, 4, 60, 64
5, 72479, Note_on_c, 4, 55, 0
5, 72479, Note_on_c, 4, 60, 0
5, 72480, Note_on_c, 4, 55, 64
5, 72480, Note_on_c, 4, 60, 64
5, 72719, Note_on_c, 4, 55, 0
5, 72719, Note_on_c, 4, 60, 0
5, 72720, Note_on_c, 4, 55, 64
5, 72720, Note_on_c, 4, 60, 64
5, 72959, Note_on_c, 4, 55, 0
5, 72959, Note_on_c, 4, 60, 0
5, 72960, Note_on_c, 4, 55, 64
5, 72960, Note_on_c, 4, 60, 64
5, 73199, Note_on_c, 4, 55, 0
5, 73199, Note_on_c, 4, 60, 0
5, 73200, Note_on_c, 4, 55, 64
5, 73200, Note_on_c, 4, 60, 64
5, 73439, Note_on_c, 4, 55, 0
5, 73439, Note_on_c, 4, 60, 0
5, 73440, Note_on_c, 4, 55, 64
5, 73440, Note_on_c, 4, 59, 64
5, 73679, Note_on_c, 4, 55, 0
5, 73679, Note_on_c, 4, 59, 0
5, 73680, Note_on_c, 4, 55, 64
5, 73680, Note_on_c, 4, 59, 64
5, 73919, Note_on_c, 4, 55, 0
5, 73919, Note_on_c, 4, 59, 0
5, 73920, Note_on_c, 4, 55, 64
5, 73920, Note_on_c, 4, 59, 64
5, 74159, Note_on_c, 4, 55, 0
5, 74159, Note_on_c, 4, 59, 0
5, 74160, Note_on_c, 4, 55, 64
5, 74160, Note_on_c, 4, 59, 64
5, 74399, Note_on_c, 4, 55, 0
5, 74399, Note_on_c, 4, 59, 0
5, 74400, Note_on_c, 4, 57, 64
5, 74400, Note_on_c, 4, 60, 64
5, 74639, Note_on_c, 4, 57, 0
5, 74639, Note_on_c, 4, 60, 0
5, 74640, Note_on_c, 4, 57, 64
5, 74640, Note_on_c, 4, 60, 64
5, 74879, Note_on_c, 4, 57, 0
5, 74879, Note_on_c, 4, 60, 0
5, 74880, Note_on_c, 4, 57, 64
5, 74880, Note_on_c, 4, 60, 64
5, 75119, Note_on_c, 4, 57, 0
5, 75119, Note_on_c, 4, 60, 0
5, 75120, Note_on_c, 4, 57, 64
5, 75120, Note_on_c, 4, 60, 64
5, 75359, Note_on_c, 4, 57, 0
5, 75359, Note_on_c, 4, 60, 0
5, 75360, Note_on_c, 4, 60, 64
5, 75360, Note_on_c, 4, 64, 64
5, 75599, Note_on_c, 4, 60, 0
5, 75599, Note_on_c, 4, 64, 0
5, 75600, Note_on_c, 4, 60, 64
5, 75600, Note_on_c, 4, 64, 64
5, 75839, Note_on_c, 4, 60, 0
5, 75839, Note_on_c, 4, 64, 0
5, 75840, Note_on_c, 4, 60, 64
5, 75840, Note_on_c, 4, 64, 64
5, 76319, Note_on_c, 4, 60, 0
5, 76319, Note_on_c, 4, 64, 0
5, 81120, Note_on_c, 4, 55, 64
5, 81599, Note_on_c, 4, 55, 0
5, 82080, Note_on_c, 4, 60, 64
5, 82559, Note_on_c, 4, 60, 0
5, 82800, Note_on_c, 4, 60, 64
5, 83039, Note_on_c, 4, 60, 0
5, 83040, Note_on_c, 4, 60, 64
5, 83519, Note_on_c, 4, 60, 0
5, 83760, Note_on_c, 4, 60, 64
5, 83999, Note_on_c, 4, 60, 0
5, 84000, Note_on_c, 4, 60, 64
5, 84479, Note_on_c, 4, 60, 0
5, 84720, Note_on_c, 4, 60, 64
5, 84959, Note_on_c, 4, 60, 0
5, 84960, Note_on_c, 4, 55, 64
5, 85439, Note_on_c, 4, 55, 0
5, 85920, Note_on_c, 4, 60, 64
5, 86399, Note_on_c, 4, 60, 0
5, 86640, Note_on_c, 4, 60, 64
5, 86879, Note_on_c, 4, 60, 0
5, 86880, Note_on_c, 4, 60, 64
5, 87359, Note_on_c, 4, 60, 0
5, 87600, Note_on_c, 4, 60, 64
5, 87839, Note_on_c, 4, 60, 0
5, 87840, Note_on_c, 4, 60, 64
5, 88319, Note_on_c, 4, 60, 0
5, 88560, Note_on_c, 4, 60, 64
5, 88799, Note_on_c, 4, 60, 0
5, 88800, Note_on_c, 4, 55, 64
5, 89759, Note_on_c, 4, 55, 0
5, 89760, Note_on_c, 4, 57, 64
5, 90719, Note_on_c, 4, 57, 0
5, 92640, Note_on_c, 4, 55, 64
5, 92640, Note_on_c, 4, 59, 64
5, 92879, Note_on_c, 4, 55, 0
5, 92879, Note_on_c, 4, 59, 0
5, 92880, Note_on_c, 4, 55, 64
5, 92880, Note_on_c, 4, 59, 64
5, 93119, Note_on_c, 4, 55, 0
5, 93119, Note_on_c, 4, 59, 0
5, 93120, Note_on_c, 4, 55, 64
5, 93120, Note_on_c, 4, 59, 64
5, 93359, Note_on_c, 4, 55, 0
5, 93359, Note_on_c, 4, 59, 0
5, 93360, Note_on_c, 4, 55, 64
5, 93360, Note_on_c, 4, 59, 64
5, 93599, Note_on_c, 4, 55, 0
5, 93599, Note_on_c, 4, 59, 0
5, 93600, Note_on_c, 4, 55, 64
5, 93600, Note_on_c, 4, 60, 64
5, 93839, Note_on_c, 4, 55, 0
5, 93839, Note_on_c, 4, 60, 0
5, 93840, Note_on_c, 4, 55, 64
5, 93840, Note_on_c, 4, 60, 64
5, 94079, Note_on_c, 4, 55, 0
5, 94079, Note_on_c, 4, 60, 0
5, 94080, Note_on_c, 4, 55, 64
5, 94080, Note_on_c, 4, 60, 64
5, 94319, Note_on_c, 4, 55, 0
5, 94319, Note_on_c, 4, 60, 0
5, 94320, Note_on_c, 4, 55, 64
5, 94320, Note_on_c, 4, 60, 64
5, 94559, Note_on_c, 4, 55, 0
5, 94559, Note_on_c, 4, 60, 0
5, 94560, Note_on_c, 4, 55, 64
5, 94560, Note_on_c, 4, 60, 64
5, 94799, Note_on_c, 4, 55, 0
5, 94799, Note_on_c, 4, 60, 0
5, 94800, Note_on_c, 4, 55, 64
5, 94800, Note_on_c, 4, 60, 64
5, 95039, Note_on_c, 4, 55, 0
5, 95039, Note_on_c, 4, 60, 0
5, 95040, Note_on_c, 4, 55, 64
5, 95040, Note_on_c, 4, 60, 64
5, 95279, Note_on_c, 4, 55, 0
5, 95279, Note_on_c, 4, 60, 0
5, 95280, Note_on_c, 4, 55, 64
5, 95280, Note_on_c, 4, 60, 64
5, 95519, Note_on_c, 4, 55, 0
5, 95519, Note_on_c, 4, 60, 0
5, 95520, Note_on_c, 4, 55, 64
5, 95520, Note_on_c, 4, 60, 64
5, 95759, Note_on_c, 4, 55, 0
5, 95759, Note_on_c, 4, 60, 0
5, 95760, Note_on_c, 4, 55, 64
5, 95760, Note_on_c, 4, 60, 64
5, 95999, Note_on_c, 4, 55, 0
5, 95999, Note_on_c, 4, 60, 0
5, 96000, Note_on_c, 4, 55, 64
5, 96000, Note_on_c, 4, 60, 64
5, 96239, Note_on_c, 4, 55, 0
5, 96239, Note_on_c, 4, 60, 0
5, 96240, Note_on_c, 4, 55, 64
5, 96240, Note_on_c, 4, 60, 64
5, 96479, Note_on_c, 4, 55, 0
5, 96479, Note_on_c, 4, 60, 0
5, 96480, Note_on_c, 4, 55, 64
5, 96480, Note_on_c, 4, 59, 64
5, 96719, Note_on_c, 4, 55, 0
5, 96719, Note_on_c, 4, 59, 0
5, 96720, Note_on_c, 4, 55, 64
5, 96720, Note_on_c, 4, 59, 64
5, 96959, Note_on_c, 4, 55, 0
5, 96959, Note_on_c, 4, 59, 0
5, 96960, Note_on_c, 4, 55, 64
5, 96960, Note_on_c, 4, 59, 64
5, 97199, Note_on_c, 4, 55, 0
5, 97199, Note_on_c, 4, 59, 0
5, 97200, Note_on_c, 4, 55, 64
5, 97200, Note_on_c, 4, 59, 64
5, 97439, Note_on_c, 4, 55, 0
5, 97439, Note_on_c, 4, 59, 0
5, 97440, Note_on_c, 4, 55, 64
5, 97440, Note_on_c, 4, 60, 64
5, 97679, Note_on_c, 4, 55, 0
5, 97679, Note_on_c, 4, 60, 0
5, 97680, Note_on_c, 4, 55, 64
5, 97680, Note_on_c, 4, 60, 64
5, 97919, Note_on_c, 4, 55, 0
5, 97919, Note_on_c, 4, 60, 0
5, 97920, Note_on_c, 4, 55, 64
5, 97920, Note_on_c, 4, 60, 64
5, 98159, Note_on_c, 4, 55, 0
5, 98159, Note_on_c, 4, 60, 0
5, 98160, Note_on_c, 4, 55, 64
5, 98160, Note_on_c, 4, 60, 64
5, 98399, Note_on_c, 4, 55, 0
5, 98399, Note_on_c, 4, 60, 0
5, 98400, Note_on_c, 4, 55, 64
5, 98400, Note_on_c, 4, 60, 64
5, 98639, Note_on_c, 4, 55, 0
5, 98639, Note_on_c, 4, 60, 0
5, 98640, Note_on_c, 4, 55, 64
5, 98640, Note_on_c, 4, 60, 64
5, 98879, Note_on_c, 4, 55, 0
5, 98879, Note_on_c, 4, 60, 0
5, 98880, Note_on_c, 4, 55, 64
5, 98880, Note_on_c, 4, 60, 64
5, 99119, Note_on_c, 4, 55, 0
5, 99119, Note_on_c, 4, 60, 0
5, 99120, Note_on_c, 4, 55, 64
5, 99120, Note_on_c, 4, 60, 64
5, 99359, Note_on_c, 4, 55, 0
5, 99359, Note_on_c, 4, 60, 0
5, 99360, Note_on_c, 4, 55, 64
5, 99360, Note_on_c, 4, 60, 64
5, 99599, Note_on_c, 4, 55, 0
5, 99599, Note_on_c, 4, 60, 0
5, 99600, Note_on_c, 4, 55, 64
5, 99600, Note_on_c, 4, 60, 64
5, 99839, Note_on_c, 4, 55, 0
5, 99839, Note_on_c, 4, 60, 0
5, 99840, Note_on_c, 4, 55, 64
5, 99840, Note_on_c, 4, 60, 64
5, 100079, Note_on_c, 4, 55, 0
5, 100079, Note_on_c, 4, 60, 0
5, 100080, Note_on_c, 4, 55, 64
5, 100080, Note_on_c, 4, 60, 64
5, 100319, Note_on_c, 4, 55, 0
5, 100319, Note_on_c, 4, 60, 0
5, 100320, Note_on_c, 4, 55, 64
5, 100320, Note_on_c, 4, 59, 64
5, 100559, Note_on_c, 4, 55, 0
5, 100559, Note_on_c, 4, 59, 0
5, 100560, Note_on_c, 4, 55, 64
5, 100560, Note_on_c, 4, 59, 64
5, 100799, Note_on_c, 4, 55, 0
5, 100799, Note_on_c, 4, 59, 0
5, 100800, Note_on_c, 4, 55, 64
5, 100800, Note_on_c, 4, 59, 64
5, 101039, Note_on_c, 4, 55, 0
5, 101039, Note_on_c, 4, 59, 0
5, 101040, Note_on_c, 4, 55, 64
5, 101040, Note_on_c, 4, 59, 64
5, 101279, Note_on_c, 4, 55, 0
5, 101279, Note_on_c, 4, 59, 0
5, 101280, Note_on_c, 4, 55, 64
5, 101280, Note_on_c, 4, 60, 64
5, 101519, Note_on_c, 4, 55, 0
5, 101519, Note_on_c, 4, 60, 0
5, 101520, Note_on_c, 4, 55, 64
5, 101520, Note_on_c, 4, 60, 64
5, 101759, Note_on_c, 4, 55, 0
5, 101759, Note_on_c, 4, 60, 0
5, 101760, Note_on_c, 4, 55, 64
5, 101760, Note_on_c, 4, 60, 64
5, 101999, Note_on_c, 4, 55, 0
5, 101999, Note_on_c, 4, 60, 0
5, 102000, Note_on_c, 4, 55, 64
5, 102000, Note_on_c, 4, 60, 64
5, 102239, Note_on_c, 4, 55, 0
5, 102239, Note_on_c, 4, 60, 0
5, 102240, Note_on_c, 4, 55, 64
5, 102240, Note_on_c, 4, 60, 64
5, 102479, Note_on_c, 4, 55, 0
5, 102479, Note_on_c, 4, 60, 0
5, 102480, Note_on_c, 4, 55, 64
5, 102480, Note_on_c, 4, 60, 64
5, 102719, Note_on_c, 4, 55, 0
5, 102719, Note_on_c, 4, 60, 0
5, 102720, Note_on_c, 4, 55, 64
5, 102720, Note_on_c, 4, 60, 64
5, 102959, Note_on_c, 4, 55, 0
5, 102959, Note_on_c, 4, 60, 0
5, 102960, Note_on_c, 4, 55, 64
5, 102960, Note_on_c, 4, 60, 64
5, 103199, Note_on_c, 4, 55, 0
5, 103199, Note_on_c, 4, 60, 0
5, 103200, Note_on_c, 4, 55, 64
5, 103200, Note_on_c, 4, 60, 64
5, 104159, Note_on_c, 4, 55, 0
5, 104159, Note_on_c, 4, 60, 0
5, 104160, Note_on_c, 4, 55, 64
5, 104639, Note_on_c, 4, 55, 0
5, 104640, End_track
0, 0, End_of_file
