0, 0, Header, 1, 2, 480
1, 0, Start_track
1, 0, Title_t, "Piano, Piano\000"
1, 0, Time_signature, 4, 2, 24, 8
1, 0, Key_signature, 0, "major"
1, 0, Tempo, 600000
1, 0, Control_c, 0, 121, 0
1, 0, Program_c, 0, 0
1, 0, Control_c, 0, 7, 100
1, 0, Control_c, 0, 10, 64
1, 0, Control_c, 0, 91, 0
1, 0, Control_c, 0, 93, 0
1, 0, MIDI_port, 0
1, 0, Note_on_c, 0, 76, 80
1, 227, Note_on_c, 0, 76, 0
1, 240, Note_on_c, 0, 67, 80
1, 467, Note_on_c, 0, 67, 0
1, 480, Note_on_c, 0, 76, 80
1, 707, Note_on_c, 0, 76, 0
1, 720, Note_on_c, 0, 67, 80
1, 947, Note_on_c, 0, 67, 0
1, 960, Note_on_c, 0, 76, 80
1, 1187, Note_on_c, 0, 76, 0
1, 1200, Note_on_c, 0, 67, 80
1, 1427, Note_on_c, 0, 67, 0
1, 1440, Note_on_c, 0, 76, 80
1, 1667, Note_on_c, 0, 76, 0
1, 1680, Note_on_c, 0, 67, 80
1, 1907, Note_on_c, 0, 67, 0
1, 1920, Note_on_c, 0, 71, 80
1, 2147, Note_on_c, 0, 71, 0
1, 2160, Note_on_c, 0, 62, 80
1, 2387, Note_on_c, 0, 62, 0
1, 2400, Note_on_c, 0, 71, 80
1, 2627, Note_on_c, 0, 71, 0
1, 2640, Note_on_c, 0, 62, 80
1, 2867, Note_on_c, 0, 62, 0
1, 2880, Note_on_c, 0, 71, 80
1, 3107, Note_on_c, 0, 71, 0
1, 3120, Note_on_c, 0, 62, 80
1, 3347, Note_on_c, 0, 62, 0
1, 3360, Note_on_c, 0, 71, 80
1, 3587, Note_on_c, 0, 71, 0
1, 3600, Note_on_c, 0, 62, 80
1, 3827, Note_on_c, 0, 62, 0
1, 3840, Note_on_c, 0, 72, 80
1, 4067, Note_on_c, 0, 72, 0
1, 4080, Note_on_c, 0, 64, 80
1, 4307, Note_on_c, 0, 64, 0
1, 4320, Note_on_c, 0, 72, 80
1, 4547, Note_on_c, 0, 72, 0
1, 4560, Note_on_c, 0, 64, 80
1, 4787, Note_on_c, 0, 64, 0
1, 4800, Note_on_c, 0, 72, 80
1, 5027, Note_on_c, 0, 72, 0
1, 5040, Note_on_c, 0, 64, 80
1, 5267, Note_on_c, 0, 64, 0
1, 5280, Note_on_c, 0, 72, 80
1, 5507, Note_on_c, 0, 72, 0
1, 5520, Note_on_c, 0, 64, 80
1, 5747, Note_on_c, 0, 64, 0
1, 5760, Note_on_c, 0, 69, 80
1, 5987, Note_on_c, 0, 69, 0
1, 6000, Note_on_c, 0, 60, 80
1, 6227, Note_on_c, 0, 60, 0
1, 6240, Note_on_c, 0, 69, 80
1, 6467, Note_on_c, 0, 69, 0
1, 6480, Note_on_c, 0, 60, 80
1, 6707, Note_on_c, 0, 60, 0
1, 6720, Note_on_c, 0, 69, 80
1, 6947, Note_on_c, 0, 69, 0
1, 6960, Note_on_c, 0, 60, 80
1, 7187, Note_on_c, 0, 60, 0
1, 7200, Note_on_c, 0, 67, 80
1, 7427, Note_on_c, 0, 67, 0
1, 7440, Note_on_c, 0, 60, 80
1, 7667, Note_on_c, 0, 60, 0
1, 7920, Note_on_c, 0, 67, 80
1, 8147, Note_on_c, 0, 67, 0
1, 8160, Note_on_c, 0, 67, 80
1, 8387, Note_on_c, 0, 67, 0
1, 8400, Note_on_c, 0, 64, 80
1, 8627, Note_on_c, 0, 64, 0
1, 8640, Note_on_c, 0, 67, 80
1, 8867, Note_on_c, 0, 67, 0
1, 8880, Note_on_c, 0, 64, 80
1, 9107, Note_on_c, 0, 64, 0
1, 9120, Note_on_c, 0, 67, 80
1, 9347, Note_on_c, 0, 67, 0
1, 9360, Note_on_c, 0, 64, 80
1, 9587, Note_on_c, 0, 64, 0
1, 9600, Note_on_c, 0, 69, 80
1, 9827, Note_on_c, 0, 69, 0
1, 9840, Note_on_c, 0, 71, 80
1, 10067, Note_on_c, 0, 71, 0
1, 10080, Note_on_c, 0, 69, 80
1, 10307, Note_on_c, 0, 69, 0
1, 10320, Note_on_c, 0, 67, 80
1, 10547, Note_on_c, 0, 67, 0
1, 10560, Note_on_c, 0, 67, 80
1, 10787, Note_on_c, 0, 67, 0
1, 10800, Note_on_c, 0, 69, 80
1, 11027, Note_on_c, 0, 69, 0
1, 11040, Note_on_c, 0, 67, 80
1, 11279, Note_on_c, 0, 67, 0
1, 11280, Note_on_c, 0, 64, 80
1, 11520, Note_on_c, 0, 60, 80
1, 11735, Note_on_c, 0, 64, 0
1, 11747, Note_on_c, 0, 60, 0
1, 11760, Note_on_c, 0, 62, 80
1, 13241, Note_on_c, 0, 62, 0
1, 13440, Note_on_c, 0, 57, 80
1, 13895, Note_on_c, 0, 57, 0
1, 15600, Note_on_c, 0, 67, 80
1, 15827, Note_on_c, 0, 67, 0
1, 15840, Note_on_c, 0, 67, 80
1, 16067, Note_on_c, 0, 67, 0
1, 16080, Note_on_c, 0, 64, 80
1, 16307, Note_on_c, 0, 64, 0
1, 16320, Note_on_c, 0, 67, 80
1, 16547, Note_on_c, 0, 67, 0
1, 16560, Note_on_c, 0, 64, 80
1, 16787, Note_on_c, 0, 64, 0
1, 16800, Note_on_c, 0, 67, 80
1, 17027, Note_on_c, 0, 67, 0
1, 17040, Note_on_c, 0, 64, 80
1, 17267, Note_on_c, 0, 64, 0
1, 17280, Note_on_c, 0, 69, 80
1, 17507, Note_on_c, 0, 69, 0
1, 17520, Note_on_c, 0, 71, 80
1, 17747, Note_on_c, 0, 71, 0
1, 17760, Note_on_c, 0, 69, 80
1, 17987, Note_on_c, 0, 69, 0
1, 18000, Note_on_c, 0, 67, 80
1, 18227, Note_on_c, 0, 67, 0
1, 18240, Note_on_c, 0, 67, 80
1, 18467, Note_on_c, 0, 67, 0
1, 18480, Note_on_c, 0, 69, 80
1, 18707, Note_on_c, 0, 69, 0
1, 18720, Note_on_c, 0, 67, 80
1, 18947, Note_on_c, 0, 67, 0
1, 18960, Note_on_c, 0, 64, 80
1, 19415, Note_on_c, 0, 64, 0
1, 19440, Note_on_c, 0, 62, 80
1, 20921, Note_on_c, 0, 62, 0
1, 21120, Note_on_c, 0, 57, 80
1, 21347, Note_on_c, 0, 57, 0
1, 21360, Note_on_c, 0, 69, 80
1, 21587, Note_on_c, 0, 69, 0
1, 21600, Note_on_c, 0, 69, 80
1, 21827, Note_on_c, 0, 69, 0
1, 21840, Note_on_c, 0, 67, 80
1, 22067, Note_on_c, 0, 67, 0
1, 22080, Note_on_c, 0, 69, 80
1, 22307, Note_on_c, 0, 69, 0
1, 22320, Note_on_c, 0, 67, 80
1, 22547, Note_on_c, 0, 67, 0
1, 22560, Note_on_c, 0, 67, 80
1, 22787, Note_on_c, 0, 67, 0
1, 22800, Note_on_c, 0, 74, 80
1, 23027, Note_on_c, 0, 74, 0
1, 23040, Note_on_c, 0, 76, 80
1, 23723, Note_on_c, 0, 76, 0
1, 23760, Note_on_c, 0, 67, 80
1, 23987, Note_on_c, 0, 67, 0
1, 24000, Note_on_c, 0, 69, 80
1, 24227, Note_on_c, 0, 69, 0
1, 24240, Note_on_c, 0, 67, 80
1, 24467, Note_on_c, 0, 67, 0
1, 24480, Note_on_c, 0, 76, 80
1, 24707, Note_on_c, 0, 76, 0
1, 24720, Note_on_c, 0, 72, 80
1, 24947, Note_on_c, 0, 72, 0
1, 24960, Note_on_c, 0, 67, 80
1, 24960, Note_on_c, 0, 74, 80
1, 25643, Note_on_c, 0, 67, 0
1, 25643, Note_on_c, 0, 74, 0
1, 25680, Note_on_c, 0, 67, 80
1, 25907, Note_on_c, 0, 67, 0
1, 25920, Note_on_c, 0, 67, 80
1, 26147, Note_on_c, 0, 67, 0
1, 26160, Note_on_c, 0, 67, 80
1, 26387, Note_on_c, 0, 67, 0
1, 26400, Note_on_c, 0, 67, 80
1, 26627, Note_on_c, 0, 67, 0
1, 26640, Note_on_c, 0, 72, 80
1, 26867, Note_on_c, 0, 72, 0
1, 26880, Note_on_c, 0, 74, 80
1, 26880, Note_on_c, 0, 64, 80
1, 27119, Note_on_c, 0, 64, 0
1, 27563, Note_on_c, 0, 74, 0
1, 27600, Note_on_c, 0, 76, 80
1, 27827, Note_on_c, 0, 76, 0
1, 27840, Note_on_c, 0, 69, 80
1, 27840, Note_on_c, 0, 76, 80
1, 28067, Note_on_c, 0, 69, 0
1, 28067, Note_on_c, 0, 76, 0
1, 28080, Note_on_c, 0, 74, 80
1, 28307, Note_on_c, 0, 74, 0
1, 28320, Note_on_c, 0, 72, 80
1, 28547, Note_on_c, 0, 72, 0
1, 28560, Note_on_c, 0, 69, 80
1, 28787, Note_on_c, 0, 69, 0
1, 28800, Note_on_c, 0, 57, 80
1, 28800, Note_on_c, 0, 67, 80
1, 29255, Note_on_c, 0, 57, 0
1, 29255, Note_on_c, 0, 67, 0
1, 29520, Note_on_c, 0, 67, 80
1, 29747, Note_on_c, 0, 67, 0
1, 29760, Note_on_c, 0, 69, 80
1, 29987, Note_on_c, 0, 69, 0
1, 30000, Note_on_c, 0, 67, 80
1, 30227, Note_on_c, 0, 67, 0
1, 30240, Note_on_c, 0, 67, 80
1, 30467, Note_on_c, 0, 67, 0
1, 30480, Note_on_c, 0, 74, 80
1, 30707, Note_on_c, 0, 74, 0
1, 30720, Note_on_c, 0, 67, 80
1, 30720, Note_on_c, 0, 76, 80
1, 31289, Note_on_c, 0, 67, 0
1, 31289, Note_on_c, 0, 76, 0
1, 31320, Note_on_c, 0, 67, 80
1, 31433, Note_on_c, 0, 67, 0
1, 31440, Note_on_c, 0, 67, 80
1, 31667, Note_on_c, 0, 67, 0
1, 31680, Note_on_c, 0, 69, 80
1, 31907, Note_on_c, 0, 69, 0
1, 31920, Note_on_c, 0, 67, 80
1, 32147, Note_on_c, 0, 67, 0
1, 32160, Note_on_c, 0, 76, 80
1, 32387, Note_on_c, 0, 76, 0
1, 32400, Note_on_c, 0, 67, 80
1, 32400, Note_on_c, 0, 74, 80
1, 33311, Note_on_c, 0, 67, 0
1, 33311, Note_on_c, 0, 74, 0
1, 33360, Note_on_c, 0, 76, 80
1, 33587, Note_on_c, 0, 76, 0
1, 33600, Note_on_c, 0, 67, 80
1, 33600, Note_on_c, 0, 71, 80
1, 33600, Note_on_c, 0, 76, 80
1, 33827, Note_on_c, 0, 67, 0
1, 33827, Note_on_c, 0, 71, 0
1, 33827, Note_on_c, 0, 76, 0
1, 33840, Note_on_c, 0, 76, 80
1, 34067, Note_on_c, 0, 76, 0
1, 34080, Note_on_c, 0, 76, 80
1, 34307, Note_on_c, 0, 76, 0
1, 34320, Note_on_c, 0, 76, 80
1, 34547, Note_on_c, 0, 76, 0
1, 34560, Note_on_c, 0, 64, 80
1, 34590, Note_on_c, 0, 69, 80
1, 34620, Note_on_c, 0, 72, 80
1, 34680, Note_on_c, 0, 76, 80
1, 34788, Note_on_c, 0, 69, 0
1, 34790, Note_on_c, 0, 72, 0
1, 34793, Note_on_c, 0, 76, 0
1, 34799, Note_on_c, 0, 64, 0
1, 34800, Note_on_c, 0, 74, 80
1, 35027, Note_on_c, 0, 74, 0
1, 35040, Note_on_c, 0, 74, 80
1, 35267, Note_on_c, 0, 74, 0
1, 35280, Note_on_c, 0, 72, 80
1, 35507, Note_on_c, 0, 72, 0
1, 35520, Note_on_c, 0, 64, 80
1, 35520, Note_on_c, 0, 69, 80
1, 35520, Note_on_c, 0, 72, 80
1, 35747, Note_on_c, 0, 64, 0
1, 35747, Note_on_c, 0, 69, 0
1, 35747, Note_on_c, 0, 72, 0
1, 35760, Note_on_c, 0, 72, 80
1, 35987, Note_on_c, 0, 72, 0
1, 36000, Note_on_c, 0, 74, 80
1, 36227, Note_on_c, 0, 74, 0
1, 36240, Note_on_c, 0, 74, 80
1, 36467, Note_on_c, 0, 74, 0
1, 36480, Note_on_c, 0, 65, 80
1, 36480, Note_on_c, 0, 69, 80
1, 36480, Note_on_c, 0, 72, 80
1, 36935, Note_on_c, 0, 65, 0
1, 36935, Note_on_c, 0, 69, 0
1, 36935, Note_on_c, 0, 72, 0
1, 36960, Note_on_c, 0, 65, 80
1, 36960, Note_on_c, 0, 72, 80
1, 37187, Note_on_c, 0, 65, 0
1, 37187, Note_on_c, 0, 72, 0
1, 37200, Note_on_c, 0, 72, 80
1, 37427, Note_on_c, 0, 72, 0
1, 37440, Note_on_c, 0, 69, 80
1, 37440, Note_on_c, 0, 72, 80
1, 37440, Note_on_c, 0, 77, 80
1, 37895, Note_on_c, 0, 69, 0
1, 37895, Note_on_c, 0, 72, 0
1, 37895, Note_on_c, 0, 77, 0
1, 37920, Note_on_c, 0, 69, 80
1, 37920, Note_on_c, 0, 72, 80
1, 37920, Note_on_c, 0, 76, 80
1, 38375, Note_on_c, 0, 69, 0
1, 38375, Note_on_c, 0, 72, 0
1, 38375, Note_on_c, 0, 76, 0
1, 38400, Note_on_c, 0, 60, 80
1, 38400, Note_on_c, 0, 64, 80
1, 38855, Note_on_c, 0, 60, 0
1, 38855, Note_on_c, 0, 64, 0
1, 38880, Note_on_c, 0, 67, 80
1, 38880, Note_on_c, 0, 72, 80
1, 39107, Note_on_c, 0, 67, 0
1, 39107, Note_on_c, 0, 72, 0
1, 39120, Note_on_c, 0, 72, 80
1, 39347, Note_on_c, 0, 72, 0
1, 39360, Note_on_c, 0, 67, 80
1, 39360, Note_on_c, 0, 72, 80
1, 39360, Note_on_c, 0, 76, 80
1, 39587, Note_on_c, 0, 67, 0
1, 39587, Note_on_c, 0, 72, 0
1, 39587, Note_on_c, 0, 76, 0
1, 39600, Note_on_c, 0, 72, 80
1, 39600, Note_on_c, 0, 77, 80
1, 39827, Note_on_c, 0, 72, 0
1, 39827, Note_on_c, 0, 77, 0
1, 39840, Note_on_c, 0, 67, 80
1, 39840, Note_on_c, 0, 72, 80
1, 39840, Note_on_c, 0, 76, 80
1, 40295, Note_on_c, 0, 67, 0
1, 40295, Note_on_c, 0, 72, 0
1, 40295, Note_on_c, 0, 76, 0
1, 40320, Note_on_c, 0, 67, 80
1, 40320, Note_on_c, 0, 71, 80
1, 40320, Note_on_c, 0, 74, 80
1, 40775, Note_on_c, 0, 67, 0
1, 40775, Note_on_c, 0, 71, 0
1, 40775, Note_on_c, 0, 74, 0
1, 40800, Note_on_c, 0, 67, 80
1, 40800, Note_on_c, 0, 72, 80
1, 41027, Note_on_c, 0, 67, 0
1, 41027, Note_on_c, 0, 72, 0
1, 41040, Note_on_c, 0, 72, 80
1, 41267, Note_on_c, 0, 72, 0
1, 41280, Note_on_c, 0, 67, 80
1, 41280, Note_on_c, 0, 71, 80
1, 41280, Note_on_c, 0, 77, 80
1, 41735, Note_on_c, 0, 67, 0
1, 41735, Note_on_c, 0, 71, 0
1, 41735, Note_on_c, 0, 77, 0
1, 41760, Note_on_c, 0, 67, 80
1, 41760, Note_on_c, 0, 71, 80
1, 41760, Note_on_c, 0, 76, 80
1, 41987, Note_on_c, 0, 67, 0
1, 41987, Note_on_c, 0, 71, 0
1, 41987, Note_on_c, 0, 76, 0
1, 42000, Note_on_c, 0, 64, 80
1, 42000, Note_on_c, 0, 69, 80
1, 42000, Note_on_c, 0, 74, 80
1, 42455, Note_on_c, 0, 64, 0
1, 42455, Note_on_c, 0, 69, 0
1, 42455, Note_on_c, 0, 74, 0
1, 42480, Note_on_c, 0, 72, 80
1, 42707, Note_on_c, 0, 72, 0
1, 42720, Note_on_c, 0, 64, 80
1, 42720, Note_on_c, 0, 72, 80
1, 42947, Note_on_c, 0, 64, 0
1, 42947, Note_on_c, 0, 72, 0
1, 42960, Note_on_c, 0, 72, 80
1, 43187, Note_on_c, 0, 72, 0
1, 43200, Note_on_c, 0, 69, 80
1, 43200, Note_on_c, 0, 72, 80
1, 43200, Note_on_c, 0, 79, 80
1, 43427, Note_on_c, 0, 69, 0
1, 43427, Note_on_c, 0, 72, 0
1, 43427, Note_on_c, 0, 79, 0
1, 43440, Note_on_c, 0, 79, 80
1, 43667, Note_on_c, 0, 79, 0
1, 43680, Note_on_c, 0, 69, 80
1, 43680, Note_on_c, 0, 72, 80
1, 43680, Note_on_c, 0, 76, 80
1, 44135, Note_on_c, 0, 69, 0
1, 44135, Note_on_c, 0, 72, 0
1, 44135, Note_on_c, 0, 76, 0
1, 44160, Note_on_c, 0, 65, 80
1, 44160, Note_on_c, 0, 69, 80
1, 44160, Note_on_c, 0, 74, 80
1, 44387, Note_on_c, 0, 65, 0
1, 44387, Note_on_c, 0, 69, 0
1, 44387, Note_on_c, 0, 74, 0
1, 44400, Note_on_c, 0, 72, 80
1, 44627, Note_on_c, 0, 72, 0
1, 44640, Note_on_c, 0, 65, 80
1, 44640, Note_on_c, 0, 72, 80
1, 44640, Note_on_c, 0, 65, 0
1, 44759, Note_on_c, 0, 72, 0
1, 44880, Note_on_c, 0, 72, 80
1, 45107, Note_on_c, 0, 72, 0
1, 45120, Note_on_c, 0, 69, 80
1, 45120, Note_on_c, 0, 72, 80
1, 45120, Note_on_c, 0, 77, 80
1, 45120, Note_on_c, 0, 69, 0
1, 45359, Note_on_c, 0, 72, 0
1, 45359, Note_on_c, 0, 77, 0
1, 45600, Note_on_c, 0, 69, 80
1, 45600, Note_on_c, 0, 72, 80
1, 45600, Note_on_c, 0, 76, 80
1, 45827, Note_on_c, 0, 69, 0
1, 45827, Note_on_c, 0, 72, 0
1, 45827, Note_on_c, 0, 76, 0
1, 45840, Note_on_c, 0, 64, 80
1, 45840, Note_on_c, 0, 67, 80
1, 45840, Note_on_c, 0, 74, 80
1, 46067, Note_on_c, 0, 64, 0
1, 46067, Note_on_c, 0, 67, 0
1, 46067, Note_on_c, 0, 74, 0
1, 46320, Note_on_c, 0, 67, 80
1, 46320, Note_on_c, 0, 72, 80
1, 46547, Note_on_c, 0, 67, 0
1, 46547, Note_on_c, 0, 72, 0
1, 46560, Note_on_c, 0, 72, 80
1, 46787, Note_on_c, 0, 72, 0
1, 46800, Note_on_c, 0, 67, 80
1, 46800, Note_on_c, 0, 72, 80
1, 47027, Note_on_c, 0, 67, 0
1, 47027, Note_on_c, 0, 72, 0
1, 47040, Note_on_c, 0, 67, 80
1, 47040, Note_on_c, 0, 72, 80
1, 47040, Note_on_c, 0, 77, 80
1, 47267, Note_on_c, 0, 67, 0
1, 47267, Note_on_c, 0, 72, 0
1, 47267, Note_on_c, 0, 77, 0
1, 47280, Note_on_c, 0, 72, 80
1, 47280, Note_on_c, 0, 77, 80
1, 47507, Note_on_c, 0, 72, 0
1, 47507, Note_on_c, 0, 77, 0
1, 47520, Note_on_c, 0, 67, 80
1, 47520, Note_on_c, 0, 76, 80
1, 47747, Note_on_c, 0, 67, 0
1, 47747, Note_on_c, 0, 76, 0
1, 47760, Note_on_c, 0, 67, 80
1, 47760, Note_on_c, 0, 71, 80
1, 47760, Note_on_c, 0, 74, 80
1, 48443, Note_on_c, 0, 67, 0
1, 48443, Note_on_c, 0, 71, 0
1, 48443, Note_on_c, 0, 74, 0
1, 48480, Note_on_c, 0, 67, 80
1, 48480, Note_on_c, 0, 76, 80
1, 48707, Note_on_c, 0, 67, 0
1, 48707, Note_on_c, 0, 76, 0
1, 48720, Note_on_c, 0, 76, 80
1, 48947, Note_on_c, 0, 76, 0
1, 48960, Note_on_c, 0, 67, 80
1, 48960, Note_on_c, 0, 71, 80
1, 48960, Note_on_c, 0, 76, 80
1, 49187, Note_on_c, 0, 67, 0
1, 49187, Note_on_c, 0, 71, 0
1, 49187, Note_on_c, 0, 76, 0
1, 49200, Note_on_c, 0, 71, 80
1, 49200, Note_on_c, 0, 76, 80
1, 49427, Note_on_c, 0, 71, 0
1, 49427, Note_on_c, 0, 76, 0
1, 49440, Note_on_c, 0, 71, 80
1, 49440, Note_on_c, 0, 76, 80
1, 49667, Note_on_c, 0, 71, 0
1, 49667, Note_on_c, 0, 76, 0
1, 49680, Note_on_c, 0, 67, 80
1, 49680, Note_on_c, 0, 76, 80
1, 49907, Note_on_c, 0, 67, 0
1, 49907, Note_on_c, 0, 76, 0
1, 49920, Note_on_c, 0, 69, 80
1, 49920, Note_on_c, 0, 72, 80
1, 49920, Note_on_c, 0, 76, 80
1, 50147, Note_on_c, 0, 69, 0
1, 50147, Note_on_c, 0, 72, 0
1, 50147, Note_on_c, 0, 76, 0
1, 50160, Note_on_c, 0, 74, 80
1, 50387, Note_on_c, 0, 74, 0
1, 50400, Note_on_c, 0, 69, 80
1, 50400, Note_on_c, 0, 74, 80
1, 50627, Note_on_c, 0, 69, 0
1, 50627, Note_on_c, 0, 74, 0
1, 50640, Note_on_c, 0, 72, 80
1, 50867, Note_on_c, 0, 72, 0
1, 50880, Note_on_c, 0, 67, 80
1, 50880, Note_on_c, 0, 72, 80
1, 51107, Note_on_c, 0, 67, 0
1, 51107, Note_on_c, 0, 72, 0
1, 51120, Note_on_c, 0, 64, 80
1, 51120, Note_on_c, 0, 74, 80
1, 51347, Note_on_c, 0, 64, 0
1, 51347, Note_on_c, 0, 74, 0
1, 51360, Note_on_c, 0, 69, 80
1, 51360, Note_on_c, 0, 74, 80
1, 51587, Note_on_c, 0, 69, 0
1, 51587, Note_on_c, 0, 74, 0
1, 51600, Note_on_c, 0, 65, 80
1, 51600, Note_on_c, 0, 69, 80
1, 51600, Note_on_c, 0, 74, 80
1, 52055, Note_on_c, 0, 65, 0
1, 52055, Note_on_c, 0, 69, 0
1, 52055, Note_on_c, 0, 74, 0
1, 52080, Note_on_c, 0, 65, 80
1, 52080, Note_on_c, 0, 69, 80
1, 52080, Note_on_c, 0, 72, 80
1, 53561, Note_on_c, 0, 65, 0
1, 53561, Note_on_c, 0, 69, 0
1, 53561, Note_on_c, 0, 72, 0
1, 54000, Note_on_c, 0, 67, 80
1, 54227, Note_on_c, 0, 67, 0
1, 54240, Note_on_c, 0, 67, 80
1, 54467, Note_on_c, 0, 67, 0
1, 54480, Note_on_c, 0, 64, 80
1, 54707, Note_on_c, 0, 64, 0
1, 54720, Note_on_c, 0, 67, 80
1, 54947, Note_on_c, 0, 67, 0
1, 54960, Note_on_c, 0, 64, 80
1, 55187, Note_on_c, 0, 64, 0
1, 55200, Note_on_c, 0, 67, 80
1, 55427, Note_on_c, 0, 67, 0
1, 55440, Note_on_c, 0, 64, 80
1, 55667, Note_on_c, 0, 64, 0
1, 55680, Note_on_c, 0, 69, 80
1, 55907, Note_on_c, 0, 69, 0
1, 55920, Note_on_c, 0, 71, 80
1, 56147, Note_on_c, 0, 71, 0
1, 56160, Note_on_c, 0, 69, 80
1, 56387, Note_on_c, 0, 69, 0
1, 56400, Note_on_c, 0, 67, 80
1, 56627, Note_on_c, 0, 67, 0
1, 56640, Note_on_c, 0, 67, 80
1, 56867, Note_on_c, 0, 67, 0
1, 56880, Note_on_c, 0, 69, 80
1, 57107, Note_on_c, 0, 69, 0
1, 57120, Note_on_c, 0, 67, 80
1, 57359, Note_on_c, 0, 67, 0
1, 57360, Note_on_c, 0, 64, 80
1, 57600, Note_on_c, 0, 60, 80
1, 57815, Note_on_c, 0, 64, 0
1, 57827, Note_on_c, 0, 60, 0
1, 57840, Note_on_c, 0, 62, 80
1, 59321, Note_on_c, 0, 62, 0
1, 59520, Note_on_c, 0, 57, 80
1, 59975, Note_on_c, 0, 57, 0
1, 61680, Note_on_c, 0, 67, 80
1, 61907, Note_on_c, 0, 67, 0
1, 61920, Note_on_c, 0, 67, 80
1, 62147, Note_on_c, 0, 67, 0
1, 62160, Note_on_c, 0, 64, 80
1, 62387, Note_on_c, 0, 64, 0
1, 62400, Note_on_c, 0, 67, 80
1, 62627, Note_on_c, 0, 67, 0
1, 62640, Note_on_c, 0, 64, 80
1, 62867, Note_on_c, 0, 64, 0
1, 62880, Note_on_c, 0, 67, 80
1, 63107, Note_on_c, 0, 67, 0
1, 63120, Note_on_c, 0, 64, 80
1, 63347, Note_on_c, 0, 64, 0
1, 63360, Note_on_c, 0, 69, 80
1, 63587, Note_on_c, 0, 69, 0
1, 63600, Note_on_c, 0, 71, 80
1, 63827, Note_on_c, 0, 71, 0
1, 63840, Note_on_c, 0, 69, 80
1, 64067, Note_on_c, 0, 69, 0
1, 64080, Note_on_c, 0, 67, 80
1, 64307, Note_on_c, 0, 67, 0
1, 64320, Note_on_c, 0, 67, 80
1, 64547, Note_on_c, 0, 67, 0
1, 64560, Note_on_c, 0, 69, 80
1, 64787, Note_on_c, 0, 69, 0
1, 64800, Note_on_c, 0, 67, 80
1, 65039, Note_on_c, 0, 67, 0
1, 65040, Note_on_c, 0, 64, 80
1, 65280, Note_on_c, 0, 60, 80
1, 65495, Note_on_c, 0, 64, 0
1, 65507, Note_on_c, 0, 60, 0
1, 65520, Note_on_c, 0, 62, 80
1, 67001, Note_on_c, 0, 62, 0
1, 67200, Note_on_c, 0, 57, 80
1, 67427, Note_on_c, 0, 57, 0
1, 67440, Note_on_c, 0, 69, 80
1, 67667, Note_on_c, 0, 69, 0
1, 67680, Note_on_c, 0, 69, 80
1, 67907, Note_on_c, 0, 69, 0
1, 67920, Note_on_c, 0, 67, 80
1, 68147, Note_on_c, 0, 67, 0
1, 68160, Note_on_c, 0, 69, 80
1, 68387, Note_on_c, 0, 69, 0
1, 68400, Note_on_c, 0, 67, 80
1, 68627, Note_on_c, 0, 67, 0
1, 68640, Note_on_c, 0, 69, 80
1, 68867, Note_on_c, 0, 69, 0
1, 68880, Note_on_c, 0, 74, 80
1, 69107, Note_on_c, 0, 74, 0
1, 69120, Note_on_c, 0, 67, 80
1, 69120, Note_on_c, 0, 76, 80
1, 69803, Note_on_c, 0, 67, 0
1, 69803, Note_on_c, 0, 76, 0
1, 69840, Note_on_c, 0, 67, 80
1, 70067, Note_on_c, 0, 67, 0
1, 70080, Note_on_c, 0, 69, 80
1, 70307, Note_on_c, 0, 69, 0
1, 70320, Note_on_c, 0, 67, 80
1, 70547, Note_on_c, 0, 67, 0
1, 70560, Note_on_c, 0, 76, 80
1, 70787, Note_on_c, 0, 76, 0
1, 70800, Note_on_c, 0, 67, 80
1, 70800, Note_on_c, 0, 74, 80
1, 71711, Note_on_c, 0, 67, 0
1, 71711, Note_on_c, 0, 74, 0
1, 71760, Note_on_c, 0, 67, 80
1, 71987, Note_on_c, 0, 67, 0
1, 72000, Note_on_c, 0, 67, 80
1, 72227, Note_on_c, 0, 67, 0
1, 72240, Note_on_c, 0, 67, 80
1, 72467, Note_on_c, 0, 67, 0
1, 72480, Note_on_c, 0, 67, 80
1, 72707, Note_on_c, 0, 67, 0
1, 72720, Note_on_c, 0, 72, 80
1, 72947, Note_on_c, 0, 72, 0
1, 72960, Note_on_c, 0, 64, 80
1, 72960, Note_on_c, 0, 74, 80
1, 73199, Note_on_c, 0, 64, 0
1, 73199, Note_on_c, 0, 74, 0
1, 73440, Note_on_c, 0, 74, 80
1, 73667, Note_on_c, 0, 74, 0
1, 73680, Note_on_c, 0, 76, 80
1, 73907, Note_on_c, 0, 76, 0
1, 73920, Note_on_c, 0, 69, 80
1, 73920, Note_on_c, 0, 76, 80
1, 74147, Note_on_c, 0, 69, 0
1, 74147, Note_on_c, 0, 76, 0
1, 74160, Note_on_c, 0, 74, 80
1, 74387, Note_on_c, 0, 74, 0
1, 74400, Note_on_c, 0, 72, 80
1, 74627, Note_on_c, 0, 72, 0
1, 74640, Note_on_c, 0, 69, 80
1, 74867, Note_on_c, 0, 69, 0
1, 74880, Note_on_c, 0, 57, 80
1, 74880, Note_on_c, 0, 67, 80
1, 75563, Note_on_c, 0, 57, 0
1, 75563, Note_on_c, 0, 67, 0
1, 75600, Note_on_c, 0, 67, 80
1, 75827, Note_on_c, 0, 67, 0
1, 75840, Note_on_c, 0, 69, 80
1, 76067, Note_on_c, 0, 69, 0
1, 76080, Note_on_c, 0, 67, 80
1, 76307, Note_on_c, 0, 67, 0
1, 76320, Note_on_c, 0, 67, 80
1, 76547, Note_on_c, 0, 67, 0
1, 76560, Note_on_c, 0, 74, 80
1, 76787, Note_on_c, 0, 74, 0
1, 76800, Note_on_c, 0, 67, 80
1, 76800, Note_on_c, 0, 76, 80
1, 77369, Note_on_c, 0, 67, 0
1, 77369, Note_on_c, 0, 76, 0
1, 77400, Note_on_c, 0, 67, 80
1, 77513, Note_on_c, 0, 67, 0
1, 77520, Note_on_c, 0, 67, 80
1, 77747, Note_on_c, 0, 67, 0
1, 77760, Note_on_c, 0, 69, 80
1, 77987, Note_on_c, 0, 69, 0
1, 78000, Note_on_c, 0, 67, 80
1, 78227, Note_on_c, 0, 67, 0
1, 78240, Note_on_c, 0, 76, 80
1, 78467, Note_on_c, 0, 76, 0
1, 78480, Note_on_c, 0, 67, 80
1, 78480, Note_on_c, 0, 74, 80
1, 79391, Note_on_c, 0, 67, 0
1, 79391, Note_on_c, 0, 74, 0
1, 79440, Note_on_c, 0, 76, 80
1, 79667, Note_on_c, 0, 76, 0
1, 79680, Note_on_c, 0, 67, 80
1, 79680, Note_on_c, 0, 71, 80
1, 79680, Note_on_c, 0, 76, 80
1, 79907, Note_on_c, 0, 67, 0
1, 79907, Note_on_c, 0, 71, 0
1, 79907, Note_on_c, 0, 76, 0
1, 79920, Note_on_c, 0, 76, 80
1, 80147, Note_on_c, 0, 76, 0
1, 80160, Note_on_c, 0, 76, 80
1, 80387, Note_on_c, 0, 76, 0
1, 80400, Note_on_c, 0, 76, 80
1, 80627, Note_on_c, 0, 76, 0
1, 80640, Note_on_c, 0, 64, 80
1, 80660, Note_on_c, 0, 69, 80
1, 80680, Note_on_c, 0, 72, 80
1, 80720, Note_on_c, 0, 76, 80
1, 80754, Note_on_c, 0, 69, 0
1, 80755, Note_on_c, 0, 72, 0
1, 80757, Note_on_c, 0, 76, 0
1, 80879, Note_on_c, 0, 64, 0
1, 80880, Note_on_c, 0, 74, 80
1, 81107, Note_on_c, 0, 74, 0
1, 81120, Note_on_c, 0, 74, 80
1, 81347, Note_on_c, 0, 74, 0
1, 81360, Note_on_c, 0, 72, 80
1, 81587, Note_on_c, 0, 72, 0
1, 81600, Note_on_c, 0, 64, 80
1, 81600, Note_on_c, 0, 69, 80
1, 81600, Note_on_c, 0, 72, 80
1, 81827, Note_on_c, 0, 64, 0
1, 81827, Note_on_c, 0, 69, 0
1, 81827, Note_on_c, 0, 72, 0
1, 81840, Note_on_c, 0, 72, 80
1, 82067, Note_on_c, 0, 72, 0
1, 82080, Note_on_c, 0, 74, 80
1, 82307, Note_on_c, 0, 74, 0
1, 82320, Note_on_c, 0, 74, 80
1, 82547, Note_on_c, 0, 74, 0
1, 82560, Note_on_c, 0, 65, 80
1, 82560, Note_on_c, 0, 69, 80
1, 82560, Note_on_c, 0, 72, 80
1, 83015, Note_on_c, 0, 65, 0
1, 83015, Note_on_c, 0, 69, 0
1, 83015, Note_on_c, 0, 72, 0
1, 83040, Note_on_c, 0, 65, 80
1, 83040, Note_on_c, 0, 72, 80
1, 83267, Note_on_c, 0, 65, 0
1, 83267, Note_on_c, 0, 72, 0
1, 83280, Note_on_c, 0, 72, 80
1, 83507, Note_on_c, 0, 72, 0
1, 83520, Note_on_c, 0, 69, 80
1, 83520, Note_on_c, 0, 72, 80
1, 83520, Note_on_c, 0, 77, 80
1, 83975, Note_on_c, 0, 69, 0
1, 83975, Note_on_c, 0, 72, 0
1, 83975, Note_on_c, 0, 77, 0
1, 84000, Note_on_c, 0, 69, 80
1, 84000, Note_on_c, 0, 72, 80
1, 84000, Note_on_c, 0, 76, 80
1, 84455, Note_on_c, 0, 69, 0
1, 84455, Note_on_c, 0, 72, 0
1, 84455, Note_on_c, 0, 76, 0
1, 84480, Note_on_c, 0, 60, 80
1, 84480, Note_on_c, 0, 64, 80
1, 84935, Note_on_c, 0, 60, 0
1, 84935, Note_on_c, 0, 64, 0
1, 84960, Note_on_c, 0, 67, 80
1, 84960, Note_on_c, 0, 72, 80
1, 85187, Note_on_c, 0, 67, 0
1, 85187, Note_on_c, 0, 72, 0
1, 85200, Note_on_c, 0, 72, 80
1, 85427, Note_on_c, 0, 72, 0
1, 85440, Note_on_c, 0, 67, 80
1, 85440, Note_on_c, 0, 72, 80
1, 85440, Note_on_c, 0, 76, 80
1, 85667, Note_on_c, 0, 67, 0
1, 85667, Note_on_c, 0, 72, 0
1, 85667, Note_on_c, 0, 76, 0
1, 85680, Note_on_c, 0, 67, 80
1, 85680, Note_on_c, 0, 77, 80
1, 85907, Note_on_c, 0, 67, 0
1, 85907, Note_on_c, 0, 77, 0
1, 85920, Note_on_c, 0, 67, 80
1, 85920, Note_on_c, 0, 72, 80
1, 85920, Note_on_c, 0, 76, 80
1, 86375, Note_on_c, 0, 67, 0
1, 86375, Note_on_c, 0, 72, 0
1, 86375, Note_on_c, 0, 76, 0
1, 86400, Note_on_c, 0, 67, 80
1, 86400, Note_on_c, 0, 71, 80
1, 86400, Note_on_c, 0, 74, 80
1, 86855, Note_on_c, 0, 67, 0
1, 86855, Note_on_c, 0, 71, 0
1, 86855, Note_on_c, 0, 74, 0
1, 86880, Note_on_c, 0, 67, 80
1, 86880, Note_on_c, 0, 72, 80
1, 87107, Note_on_c, 0, 67, 0
1, 87107, Note_on_c, 0, 72, 0
1, 87120, Note_on_c, 0, 72, 80
1, 87347, Note_on_c, 0, 72, 0
1, 87360, Note_on_c, 0, 67, 80
1, 87360, Note_on_c, 0, 71, 80
1, 87360, Note_on_c, 0, 77, 80
1, 87815, Note_on_c, 0, 67, 0
1, 87815, Note_on_c, 0, 71, 0
1, 87815, Note_on_c, 0, 77, 0
1, 87840, Note_on_c, 0, 76, 80
1, 88067, Note_on_c, 0, 76, 0
1, 88080, Note_on_c, 0, 64, 80
1, 88080, Note_on_c, 0, 69, 80
1, 88080, Note_on_c, 0, 74, 80
1, 88535, Note_on_c, 0, 64, 0
1, 88535, Note_on_c, 0, 69, 0
1, 88535, Note_on_c, 0, 74, 0
1, 88560, Note_on_c, 0, 72, 80
1, 88787, Note_on_c, 0, 72, 0
1, 88800, Note_on_c, 0, 64, 80
1, 88800, Note_on_c, 0, 72, 80
1, 89027, Note_on_c, 0, 64, 0
1, 89027, Note_on_c, 0, 72, 0
1, 89040, Note_on_c, 0, 72, 80
1, 89267, Note_on_c, 0, 72, 0
1, 89280, Note_on_c, 0, 69, 80
1, 89280, Note_on_c, 0, 72, 80
1, 89280, Note_on_c, 0, 79, 80
1, 89507, Note_on_c, 0, 69, 0
1, 89507, Note_on_c, 0, 72, 0
1, 89507, Note_on_c, 0, 79, 0
1, 89520, Note_on_c, 0, 79, 80
1, 89747, Note_on_c, 0, 79, 0
1, 89760, Note_on_c, 0, 69, 80
1, 89760, Note_on_c, 0, 72, 80
1, 89760, Note_on_c, 0, 76, 80
1, 90215, Note_on_c, 0, 69, 0
1, 90215, Note_on_c, 0, 72, 0
1, 90215, Note_on_c, 0, 76, 0
1, 90240, Note_on_c, 0, 65, 80
1, 90240, Note_on_c, 0, 69, 80
1, 90240, Note_on_c, 0, 74, 80
1, 90467, Note_on_c, 0, 65, 0
1, 90467, Note_on_c, 0, 69, 0
1, 90467, Note_on_c, 0, 74, 0
1, 90480, Note_on_c, 0, 72, 80
1, 90707, Note_on_c, 0, 72, 0
1, 90720, Note_on_c, 0, 65, 80
1, 90720, Note_on_c, 0, 72, 80
1, 90720, Note_on_c, 0, 65, 0
1, 90839, Note_on_c, 0, 72, 0
1, 90960, Note_on_c, 0, 72, 80
1, 91187, Note_on_c, 0, 72, 0
1, 91200, Note_on_c, 0, 69, 80
1, 91200, Note_on_c, 0, 72, 80
1, 91200, Note_on_c, 0, 77, 80
1, 91200, Note_on_c, 0, 69, 0
1, 91439, Note_on_c, 0, 72, 0
1, 91439, Note_on_c, 0, 77, 0
1, 91680, Note_on_c, 0, 69, 80
1, 91680, Note_on_c, 0, 72, 80
1, 91680, Note_on_c, 0, 76, 80
1, 91907, Note_on_c, 0, 69, 0
1, 91907, Note_on_c, 0, 72, 0
1, 91907, Note_on_c, 0, 76, 0
1, 91920, Note_on_c, 0, 64, 80
1, 91920, Note_on_c, 0, 67, 80
1, 91920, Note_on_c, 0, 74, 80
1, 92147, Note_on_c, 0, 64, 0
1, 92147, Note_on_c, 0, 67, 0
1, 92147, Note_on_c, 0, 74, 0
1, 92400, Note_on_c, 0, 67, 80
1, 92400, Note_on_c, 0, 72, 80
1, 92627, Note_on_c, 0, 67, 0
1, 92627, Note_on_c, 0, 72, 0
1, 92640, Note_on_c, 0, 72, 80
1, 92867, Note_on_c, 0, 72, 0
1, 92880, Note_on_c, 0, 67, 80
1, 92880, Note_on_c, 0, 72, 80
1, 93107, Note_on_c, 0, 67, 0
1, 93107, Note_on_c, 0, 72, 0
1, 93120, Note_on_c, 0, 67, 80
1, 93120, Note_on_c, 0, 72, 80
1, 93120, Note_on_c, 0, 77, 80
1, 93347, Note_on_c, 0, 67, 0
1, 93347, Note_on_c, 0, 72, 0
1, 93347, Note_on_c, 0, 77, 0
1, 93360, Note_on_c, 0, 72, 80
1, 93360, Note_on_c, 0, 77, 80
1, 93587, Note_on_c, 0, 72, 0
1, 93587, Note_on_c, 0, 77, 0
1, 93600, Note_on_c, 0, 67, 80
1, 93600, Note_on_c, 0, 76, 80
1, 93827, Note_on_c, 0, 67, 0
1, 93827, Note_on_c, 0, 76, 0
1, 93840, Note_on_c, 0, 67, 80
1, 93840, Note_on_c, 0, 71, 80
1, 93840, Note_on_c, 0, 74, 80
1, 94067, Note_on_c, 0, 67, 0
1, 94067, Note_on_c, 0, 71, 0
1, 94067, Note_on_c, 0, 74, 0
1, 94560, Note_on_c, 0, 67, 80
1, 94560, Note_on_c, 0, 76, 80
1, 94787, Note_on_c, 0, 67, 0
1, 94787, Note_on_c, 0, 76, 0
1, 94800, Note_on_c, 0, 76, 80
1, 95027, Note_on_c, 0, 76, 0
1, 95040, Note_on_c, 0, 67, 80
1, 95040, Note_on_c, 0, 71, 80
1, 95040, Note_on_c, 0, 76, 80
1, 95267, Note_on_c, 0, 67, 0
1, 95267, Note_on_c, 0, 71, 0
1, 95267, Note_on_c, 0, 76, 0
1, 95280, Note_on_c, 0, 71, 80
1, 95280, Note_on_c, 0, 76, 80
1, 95507, Note_on_c, 0, 71, 0
1, 95507, Note_on_c, 0, 76, 0
1, 95520, Note_on_c, 0, 71, 80
1, 95520, Note_on_c, 0, 76, 80
1, 95747, Note_on_c, 0, 71, 0
1, 95747, Note_on_c, 0, 76, 0
1, 95760, Note_on_c, 0, 71, 80
1, 95760, Note_on_c, 0, 76, 80
1, 95987, Note_on_c, 0, 71, 0
1, 95987, Note_on_c, 0, 76, 0
1, 96000, Note_on_c, 0, 69, 80
1, 96000, Note_on_c, 0, 72, 80
1, 96000, Note_on_c, 0, 76, 80
1, 96227, Note_on_c, 0, 69, 0
1, 96227, Note_on_c, 0, 72, 0
1, 96227, Note_on_c, 0, 76, 0
1, 96240, Note_on_c, 0, 74, 80
1, 96467, Note_on_c, 0, 74, 0
1, 96480, Note_on_c, 0, 69, 80
1, 96480, Note_on_c, 0, 74, 80
1, 96707, Note_on_c, 0, 69, 0
1, 96707, Note_on_c, 0, 74, 0
1, 96720, Note_on_c, 0, 72, 80
1, 96947, Note_on_c, 0, 72, 0
1, 96960, Note_on_c, 0, 64, 80
1, 96960, Note_on_c, 0, 69, 80
1, 96960, Note_on_c, 0, 72, 80
1, 97187, Note_on_c, 0, 64, 0
1, 97187, Note_on_c, 0, 69, 0
1, 97187, Note_on_c, 0, 72, 0
1, 97200, Note_on_c, 0, 64, 80
1, 97200, Note_on_c, 0, 74, 80
1, 97427, Note_on_c, 0, 64, 0
1, 97427, Note_on_c, 0, 74, 0
1, 97440, Note_on_c, 0, 69, 80
1, 97440, Note_on_c, 0, 74, 80
1, 97667, Note_on_c, 0, 69, 0
1, 97667, Note_on_c, 0, 74, 0
1, 97680, Note_on_c, 0, 65, 80
1, 97680, Note_on_c, 0, 69, 80
1, 97680, Note_on_c, 0, 74, 80
1, 98135, Note_on_c, 0, 65, 0
1, 98135, Note_on_c, 0, 69, 0
1, 98135, Note_on_c, 0, 74, 0
1, 98160, Note_on_c, 0, 65, 80
1, 98160, Note_on_c, 0, 69, 80
1, 98160, Note_on_c, 0, 72, 80
1, 99185, Note_on_c, 0, 65, 0
1, 99185, Note_on_c, 0, 69, 0
1, 99185, Note_on_c, 0, 72, 0
1, 99600, Note_on_c, 0, 79, 80
1, 99827, Note_on_c, 0, 79, 0
1, 99840, Note_on_c, 0, 69, 80
1, 99840, Note_on_c, 0, 74, 80
1, 99840, Note_on_c, 0, 79, 80
1, 100067, Note_on_c, 0, 69, 0
1, 100067, Note_on_c, 0, 74, 0
1, 100067, Note_on_c, 0, 79, 0
1, 100080, Note_on_c, 0, 69, 80
1, 100080, Note_on_c, 0, 74, 80
1, 100080, Note_on_c, 0, 81, 80
1, 100991, Note_on_c, 0, 69, 0
1, 100991, Note_on_c, 0, 74, 0
1, 100991, Note_on_c, 0, 81, 0
1, 101040, Note_on_c, 0, 74, 80
1, 101040, Note_on_c, 0, 81, 80
1, 101267, Note_on_c, 0, 74, 0
1, 101267, Note_on_c, 0, 81, 0
1, 101280, Note_on_c, 0, 74, 80
1, 101280, Note_on_c, 0, 81, 80
1, 101507, Note_on_c, 0, 74, 0
1, 101507, Note_on_c, 0, 81, 0
1, 101520, Note_on_c, 0, 69, 80
1, 101520, Note_on_c, 0, 72, 80
1, 101520, Note_on_c, 0, 81, 80
1, 101975, Note_on_c, 0, 69, 0
1, 101975, Note_on_c, 0, 72, 0
1, 101975, Note_on_c, 0, 81, 0
1, 102000, Note_on_c, 0, 69, 80
1, 102000, Note_on_c, 0, 72, 80
1, 102000, Note_on_c, 0, 79, 80
1, 102455, Note_on_c, 0, 69, 0
1, 102455, Note_on_c, 0, 72, 0
1, 102455, Note_on_c, 0, 79, 0
1, 102480, Note_on_c, 0, 69, 80
1, 102480, Note_on_c, 0, 72, 80
1, 102480, Note_on_c, 0, 79, 80
1, 102935, Note_on_c, 0, 69, 0
1, 102935, Note_on_c, 0, 72, 0
1, 102935, Note_on_c, 0, 79, 0
1, 102960, Note_on_c, 0, 69, 80
1, 102960, Note_on_c, 0, 76, 80
1, 103187, Note_on_c, 0, 69, 0
1, 103187, Note_on_c, 0, 76, 0
1, 103200, Note_on_c, 0, 76, 80
1, 103427, Note_on_c, 0, 76, 0
1, 103440, Note_on_c, 0, 67, 80
1, 103440, Note_on_c, 0, 71, 80
1, 103440, Note_on_c, 0, 76, 80
1, 103895, Note_on_c, 0, 67, 0
1, 103895, Note_on_c, 0, 71, 0
1, 103895, Note_on_c, 0, 76, 0
1, 103920, Note_on_c, 0, 67, 80
1, 103920, Note_on_c, 0, 74, 80
1, 104147, Note_on_c, 0, 67, 0
1, 104147, Note_on_c, 0, 74, 0
1, 104160, Note_on_c, 0, 74, 80
1, 104387, Note_on_c, 0, 74, 0
1, 104400, Note_on_c, 0, 71, 80
1, 104400, Note_on_c, 0, 74, 80
1, 104400, Note_on_c, 0, 67, 80
1, 104627, Note_on_c, 0, 67, 0
1, 104855, Note_on_c, 0, 71, 0
1, 104855, Note_on_c, 0, 74, 0
1, 104880, Note_on_c, 0, 71, 80
1, 104880, Note_on_c, 0, 76, 80
1, 104880, Note_on_c, 0, 67, 80
1, 105107, Note_on_c, 0, 67, 0
1, 105335, Note_on_c, 0, 71, 0
1, 105335, Note_on_c, 0, 76, 0
1, 105360, Note_on_c, 0, 76, 80
1, 105587, Note_on_c, 0, 76, 0
1, 105600, Note_on_c, 0, 67, 80
1, 105600, Note_on_c, 0, 71, 80
1, 105600, Note_on_c, 0, 77, 80
1, 105827, Note_on_c, 0, 67, 0
1, 105827, Note_on_c, 0, 71, 0
1, 105827, Note_on_c, 0, 77, 0
1, 105840, Note_on_c, 0, 76, 80
1, 106067, Note_on_c, 0, 76, 0
1, 106080, Note_on_c, 0, 74, 80
1, 106307, Note_on_c, 0, 74, 0
1, 106320, Note_on_c, 0, 64, 80
1, 106320, Note_on_c, 0, 69, 80
1, 106320, Note_on_c, 0, 74, 80
1, 106775, Note_on_c, 0, 64, 0
1, 106775, Note_on_c, 0, 69, 0
1, 106775, Note_on_c, 0, 74, 0
1, 106800, Note_on_c, 0, 72, 80
1, 106800, Note_on_c, 0, 69, 80
1, 107027, Note_on_c, 0, 69, 0
1, 107255, Note_on_c, 0, 72, 0
1, 107280, Note_on_c, 0, 79, 80
1, 107507, Note_on_c, 0, 79, 0
1, 107520, Note_on_c, 0, 69, 80
1, 107520, Note_on_c, 0, 74, 80
1, 107520, Note_on_c, 0, 81, 80
1, 107759, Note_on_c, 0, 69, 0
1, 107759, Note_on_c, 0, 74, 0
1, 108545, Note_on_c, 0, 81, 0
1, 108720, Note_on_c, 0, 74, 80
1, 108720, Note_on_c, 0, 81, 80
1, 108947, Note_on_c, 0, 74, 0
1, 108947, Note_on_c, 0, 81, 0
1, 108960, Note_on_c, 0, 74, 80
1, 108960, Note_on_c, 0, 81, 80
1, 108960, Note_on_c, 0, 74, 0
1, 109199, Note_on_c, 0, 81, 0
1, 109200, Note_on_c, 0, 72, 80
1, 109200, Note_on_c, 0, 81, 80
1, 109440, Note_on_c, 0, 69, 80
1, 109655, Note_on_c, 0, 72, 0
1, 109655, Note_on_c, 0, 81, 0
1, 109667, Note_on_c, 0, 69, 0
1, 109680, Note_on_c, 0, 69, 80
1, 109680, Note_on_c, 0, 72, 80
1, 109680, Note_on_c, 0, 79, 80
1, 109907, Note_on_c, 0, 69, 0
1, 109907, Note_on_c, 0, 72, 0
1, 109907, Note_on_c, 0, 79, 0
1, 109920, Note_on_c, 0, 72, 80
1, 109920, Note_on_c, 0, 79, 80
1, 109920, Note_on_c, 0, 72, 0
1, 110039, Note_on_c, 0, 79, 0
1, 110160, Note_on_c, 0, 69, 80
1, 110160, Note_on_c, 0, 72, 80
1, 110160, Note_on_c, 0, 79, 80
1, 110615, Note_on_c, 0, 69, 0
1, 110615, Note_on_c, 0, 72, 0
1, 110615, Note_on_c, 0, 79, 0
1, 110640, Note_on_c, 0, 69, 80
1, 110640, Note_on_c, 0, 76, 80
1, 110867, Note_on_c, 0, 69, 0
1, 110867, Note_on_c, 0, 76, 0
1, 110880, Note_on_c, 0, 76, 80
1, 111107, Note_on_c, 0, 76, 0
1, 111120, Note_on_c, 0, 67, 80
1, 111120, Note_on_c, 0, 71, 80
1, 111120, Note_on_c, 0, 76, 80
1, 111575, Note_on_c, 0, 67, 0
1, 111575, Note_on_c, 0, 71, 0
1, 111575, Note_on_c, 0, 76, 0
1, 111600, Note_on_c, 0, 67, 80
1, 111600, Note_on_c, 0, 74, 80
1, 111827, Note_on_c, 0, 67, 0
1, 111827, Note_on_c, 0, 74, 0
1, 111840, Note_on_c, 0, 71, 80
1, 111840, Note_on_c, 0, 74, 80
1, 111840, Note_on_c, 0, 71, 0
1, 111959, Note_on_c, 0, 74, 0
1, 112080, Note_on_c, 0, 74, 80
1, 112080, Note_on_c, 0, 67, 80
1, 112080, Note_on_c, 0, 71, 80
1, 112763, Note_on_c, 0, 67, 0
1, 112763, Note_on_c, 0, 71, 0
1, 113105, Note_on_c, 0, 74, 0
1, 113520, Note_on_c, 0, 72, 80
1, 113747, Note_on_c, 0, 72, 0
1, 113760, Note_on_c, 0, 72, 80
1, 113987, Note_on_c, 0, 72, 0
1, 114000, Note_on_c, 0, 72, 80
1, 114227, Note_on_c, 0, 72, 0
1, 114240, Note_on_c, 0, 77, 80
1, 114695, Note_on_c, 0, 77, 0
1, 114720, Note_on_c, 0, 76, 80
1, 115175, Note_on_c, 0, 76, 0
1, 115680, Note_on_c, 0, 72, 80
1, 115907, Note_on_c, 0, 72, 0
1, 115920, Note_on_c, 0, 72, 80
1, 116147, Note_on_c, 0, 72, 0
1, 116160, Note_on_c, 0, 76, 80
1, 116387, Note_on_c, 0, 76, 0
1, 116400, Note_on_c, 0, 77, 80
1, 116627, Note_on_c, 0, 77, 0
1, 116640, Note_on_c, 0, 76, 80
1, 117551, Note_on_c, 0, 76, 0
1, 117600, Note_on_c, 0, 72, 80
1, 117827, Note_on_c, 0, 72, 0
1, 117840, Note_on_c, 0, 72, 80
1, 118067, Note_on_c, 0, 72, 0
1, 118080, Note_on_c, 0, 77, 80
1, 118535, Note_on_c, 0, 77, 0
1, 118560, Note_on_c, 0, 76, 80
1, 118787, Note_on_c, 0, 76, 0
1, 118800, Note_on_c, 0, 74, 80
1, 119255, Note_on_c, 0, 74, 0
1, 119280, Note_on_c, 0, 72, 80
1, 119507, Note_on_c, 0, 72, 0
1, 119520, Note_on_c, 0, 72, 80
1, 119747, Note_on_c, 0, 72, 0
1, 119760, Note_on_c, 0, 72, 80
1, 119987, Note_on_c, 0, 72, 0
1, 120000, Note_on_c, 0, 79, 80
1, 120227, Note_on_c, 0, 79, 0
1, 120240, Note_on_c, 0, 79, 80
1, 120467, Note_on_c, 0, 79, 0
1, 120480, Note_on_c, 0, 76, 80
1, 121163, Note_on_c, 0, 76, 0
1, 121200, Note_on_c, 0, 72, 80
1, 121427, Note_on_c, 0, 72, 0
1, 121440, Note_on_c, 0, 72, 80
1, 121667, Note_on_c, 0, 72, 0
1, 121680, Note_on_c, 0, 72, 80
1, 121907, Note_on_c, 0, 72, 0
1, 121920, Note_on_c, 0, 77, 80
1, 122375, Note_on_c, 0, 77, 0
1, 122400, Note_on_c, 0, 76, 80
1, 122627, Note_on_c, 0, 76, 0
1, 122640, Note_on_c, 0, 74, 80
1, 123095, Note_on_c, 0, 74, 0
1, 123120, Note_on_c, 0, 72, 80
1, 123347, Note_on_c, 0, 72, 0
1, 123360, Note_on_c, 0, 72, 80
1, 123587, Note_on_c, 0, 72, 0
1, 123600, Note_on_c, 0, 72, 80
1, 123827, Note_on_c, 0, 72, 0
1, 123840, Note_on_c, 0, 77, 80
1, 124067, Note_on_c, 0, 77, 0
1, 124080, Note_on_c, 0, 77, 80
1, 124307, Note_on_c, 0, 77, 0
1, 124320, Note_on_c, 0, 76, 80
1, 124547, Note_on_c, 0, 76, 0
1, 124560, Note_on_c, 0, 74, 80
1, 125243, Note_on_c, 0, 74, 0
1, 125280, Note_on_c, 0, 76, 80
1, 125507, Note_on_c, 0, 76, 0
1, 125520, Note_on_c, 0, 76, 80
1, 125747, Note_on_c, 0, 76, 0
1, 125760, Note_on_c, 0, 76, 80
1, 125987, Note_on_c, 0, 76, 0
1, 126000, Note_on_c, 0, 76, 80
1, 126227, Note_on_c, 0, 76, 0
1, 126240, Note_on_c, 0, 76, 80
1, 126467, Note_on_c, 0, 76, 0
1, 126480, Note_on_c, 0, 76, 80
1, 126707, Note_on_c, 0, 76, 0
1, 126720, Note_on_c, 0, 64, 80
1, 126720, Note_on_c, 0, 69, 80
1, 126720, Note_on_c, 0, 76, 80
1, 126947, Note_on_c, 0, 64, 0
1, 126947, Note_on_c, 0, 69, 0
1, 126947, Note_on_c, 0, 76, 0
1, 126960, Note_on_c, 0, 74, 80
1, 127187, Note_on_c, 0, 74, 0
1, 127200, Note_on_c, 0, 74, 80
1, 127427, Note_on_c, 0, 74, 0
1, 127440, Note_on_c, 0, 72, 80
1, 127667, Note_on_c, 0, 72, 0
1, 127680, Note_on_c, 0, 64, 80
1, 127680, Note_on_c, 0, 69, 80
1, 127680, Note_on_c, 0, 72, 80
1, 127907, Note_on_c, 0, 64, 0
1, 127907, Note_on_c, 0, 69, 0
1, 127907, Note_on_c, 0, 72, 0
1, 127920, Note_on_c, 0, 74, 80
1, 128147, Note_on_c, 0, 74, 0
1, 128160, Note_on_c, 0, 74, 80
1, 128387, Note_on_c, 0, 74, 0
1, 128400, Note_on_c, 0, 74, 80
1, 128855, Note_on_c, 0, 74, 0
1, 128880, Note_on_c, 0, 72, 80
1, 129107, Note_on_c, 0, 72, 0
1, 129120, Note_on_c, 0, 72, 80
1, 129347, Note_on_c, 0, 72, 0
1, 129360, Note_on_c, 0, 72, 80
1, 129587, Note_on_c, 0, 72, 0
1, 129600, Note_on_c, 0, 69, 80
1, 129600, Note_on_c, 0, 72, 80
1, 129600, Note_on_c, 0, 77, 80
1, 130055, Note_on_c, 0, 69, 0
1, 130055, Note_on_c, 0, 72, 0
1, 130055, Note_on_c, 0, 77, 0
1, 130080, Note_on_c, 0, 69, 80
1, 130080, Note_on_c, 0, 72, 80
1, 130080, Note_on_c, 0, 76, 80
1, 130535, Note_on_c, 0, 69, 0
1, 130535, Note_on_c, 0, 72, 0
1, 130535, Note_on_c, 0, 76, 0
1, 130560, Note_on_c, 0, 60, 80
1, 130560, Note_on_c, 0, 64, 80
1, 131015, Note_on_c, 0, 60, 0
1, 131015, Note_on_c, 0, 64, 0
1, 131040, Note_on_c, 0, 67, 80
1, 131040, Note_on_c, 0, 72, 80
1, 131267, Note_on_c, 0, 67, 0
1, 131267, Note_on_c, 0, 72, 0
1, 131280, Note_on_c, 0, 72, 80
1, 131507, Note_on_c, 0, 72, 0
1, 131520, Note_on_c, 0, 67, 80
1, 131520, Note_on_c, 0, 72, 80
1, 131520, Note_on_c, 0, 76, 80
1, 131747, Note_on_c, 0, 67, 0
1, 131747, Note_on_c, 0, 72, 0
1, 131747, Note_on_c, 0, 76, 0
1, 131760, Note_on_c, 0, 67, 80
1, 131760, Note_on_c, 0, 77, 80
1, 131987, Note_on_c, 0, 67, 0
1, 131987, Note_on_c, 0, 77, 0
1, 132000, Note_on_c, 0, 67, 80
1, 132000, Note_on_c, 0, 72, 80
1, 132000, Note_on_c, 0, 76, 80
1, 132455, Note_on_c, 0, 67, 0
1, 132455, Note_on_c, 0, 72, 0
1, 132455, Note_on_c, 0, 76, 0
1, 132480, Note_on_c, 0, 59, 80
1, 132480, Note_on_c, 0, 62, 80
1, 132935, Note_on_c, 0, 59, 0
1, 132935, Note_on_c, 0, 62, 0
1, 132960, Note_on_c, 0, 67, 80
1, 132960, Note_on_c, 0, 72, 80
1, 133187, Note_on_c, 0, 67, 0
1, 133187, Note_on_c, 0, 72, 0
1, 133200, Note_on_c, 0, 72, 80
1, 133427, Note_on_c, 0, 72, 0
1, 133440, Note_on_c, 0, 67, 80
1, 133440, Note_on_c, 0, 71, 80
1, 133440, Note_on_c, 0, 77, 80
1, 133667, Note_on_c, 0, 67, 0
1, 133667, Note_on_c, 0, 71, 0
1, 133667, Note_on_c, 0, 77, 0
1, 133680, Note_on_c, 0, 77, 80
1, 133907, Note_on_c, 0, 77, 0
1, 133920, Note_on_c, 0, 76, 80
1, 134159, Note_on_c, 0, 76, 0
1, 134160, Note_on_c, 0, 69, 80
1, 134160, Note_on_c, 0, 74, 80
1, 134400, Note_on_c, 0, 62, 80
1, 134615, Note_on_c, 0, 69, 0
1, 134615, Note_on_c, 0, 74, 0
1, 134627, Note_on_c, 0, 62, 0
1, 134640, Note_on_c, 0, 69, 80
1, 134640, Note_on_c, 0, 72, 80
1, 134867, Note_on_c, 0, 69, 0
1, 134867, Note_on_c, 0, 72, 0
1, 134880, Note_on_c, 0, 64, 80
1, 134880, Note_on_c, 0, 72, 80
1, 135107, Note_on_c, 0, 64, 0
1, 135107, Note_on_c, 0, 72, 0
1, 135120, Note_on_c, 0, 72, 80
1, 135347, Note_on_c, 0, 72, 0
1, 135360, Note_on_c, 0, 69, 80
1, 135360, Note_on_c, 0, 72, 80
1, 135360, Note_on_c, 0, 79, 80
1, 135587, Note_on_c, 0, 69, 0
1, 135587, Note_on_c, 0, 72, 0
1, 135587, Note_on_c, 0, 79, 0
1, 135600, Note_on_c, 0, 79, 80
1, 135827, Note_on_c, 0, 79, 0
1, 135840, Note_on_c, 0, 69, 80
1, 135840, Note_on_c, 0, 72, 80
1, 135840, Note_on_c, 0, 76, 80
1, 136295, Note_on_c, 0, 69, 0
1, 136295, Note_on_c, 0, 72, 0
1, 136295, Note_on_c, 0, 76, 0
1, 136320, Note_on_c, 0, 65, 80
1, 136320, Note_on_c, 0, 69, 80
1, 136320, Note_on_c, 0, 74, 80
1, 136547, Note_on_c, 0, 65, 0
1, 136547, Note_on_c, 0, 69, 0
1, 136547, Note_on_c, 0, 74, 0
1, 136560, Note_on_c, 0, 72, 80
1, 136787, Note_on_c, 0, 72, 0
1, 136800, Note_on_c, 0, 65, 80
1, 136800, Note_on_c, 0, 69, 80
1, 136800, Note_on_c, 0, 72, 80
1, 137027, Note_on_c, 0, 65, 0
1, 137027, Note_on_c, 0, 69, 0
1, 137027, Note_on_c, 0, 72, 0
1, 137040, Note_on_c, 0, 72, 80
1, 137267, Note_on_c, 0, 72, 0
1, 137280, Note_on_c, 0, 69, 80
1, 137280, Note_on_c, 0, 72, 80
1, 137280, Note_on_c, 0, 77, 80
1, 137735, Note_on_c, 0, 69, 0
1, 137735, Note_on_c, 0, 72, 0
1, 137735, Note_on_c, 0, 77, 0
1, 137760, Note_on_c, 0, 69, 80
1, 137760, Note_on_c, 0, 72, 80
1, 137760, Note_on_c, 0, 76, 80
1, 137987, Note_on_c, 0, 69, 0
1, 137987, Note_on_c, 0, 72, 0
1, 137987, Note_on_c, 0, 76, 0
1, 138000, Note_on_c, 0, 64, 80
1, 138000, Note_on_c, 0, 67, 80
1, 138000, Note_on_c, 0, 74, 80
1, 138455, Note_on_c, 0, 64, 0
1, 138455, Note_on_c, 0, 67, 0
1, 138455, Note_on_c, 0, 74, 0
1, 138480, Note_on_c, 0, 64, 80
1, 138480, Note_on_c, 0, 72, 80
1, 138707, Note_on_c, 0, 64, 0
1, 138707, Note_on_c, 0, 72, 0
1, 138720, Note_on_c, 0, 67, 80
1, 138720, Note_on_c, 0, 72, 80
1, 138947, Note_on_c, 0, 67, 0
1, 138947, Note_on_c, 0, 72, 0
1, 138960, Note_on_c, 0, 67, 80
1, 138960, Note_on_c, 0, 72, 80
1, 139187, Note_on_c, 0, 67, 0
1, 139187, Note_on_c, 0, 72, 0
1, 139200, Note_on_c, 0, 67, 80
1, 139200, Note_on_c, 0, 72, 80
1, 139200, Note_on_c, 0, 77, 80
1, 139427, Note_on_c, 0, 67, 0
1, 139427, Note_on_c, 0, 72, 0
1, 139427, Note_on_c, 0, 77, 0
1, 139440, Note_on_c, 0, 72, 80
1, 139440, Note_on_c, 0, 77, 80
1, 139667, Note_on_c, 0, 72, 0
1, 139667, Note_on_c, 0, 77, 0
1, 139680, Note_on_c, 0, 76, 80
1, 139907, Note_on_c, 0, 76, 0
1, 139920, Note_on_c, 0, 67, 80
1, 139920, Note_on_c, 0, 71, 80
1, 139920, Note_on_c, 0, 74, 80
1, 140603, Note_on_c, 0, 67, 0
1, 140603, Note_on_c, 0, 71, 0
1, 140603, Note_on_c, 0, 74, 0
1, 140640, Note_on_c, 0, 67, 80
1, 140640, Note_on_c, 0, 71, 80
1, 140640, Note_on_c, 0, 76, 80
1, 140867, Note_on_c, 0, 67, 0
1, 140867, Note_on_c, 0, 71, 0
1, 140867, Note_on_c, 0, 76, 0
1, 140880, Note_on_c, 0, 76, 80
1, 141107, Note_on_c, 0, 76, 0
1, 141120, Note_on_c, 0, 67, 80
1, 141120, Note_on_c, 0, 71, 80
1, 141120, Note_on_c, 0, 76, 80
1, 141347, Note_on_c, 0, 67, 0
1, 141347, Note_on_c, 0, 71, 0
1, 141347, Note_on_c, 0, 76, 0
1, 141360, Note_on_c, 0, 76, 80
1, 141587, Note_on_c, 0, 76, 0
1, 141600, Note_on_c, 0, 67, 80
1, 141600, Note_on_c, 0, 71, 80
1, 141600, Note_on_c, 0, 76, 80
1, 141827, Note_on_c, 0, 67, 0
1, 141827, Note_on_c, 0, 71, 0
1, 141827, Note_on_c, 0, 76, 0
1, 141840, Note_on_c, 0, 76, 80
1, 142067, Note_on_c, 0, 76, 0
1, 142080, Note_on_c, 0, 69, 80
1, 142080, Note_on_c, 0, 72, 80
1, 142080, Note_on_c, 0, 76, 80
1, 142307, Note_on_c, 0, 69, 0
1, 142307, Note_on_c, 0, 72, 0
1, 142307, Note_on_c, 0, 76, 0
1, 142320, Note_on_c, 0, 69, 80
1, 142320, Note_on_c, 0, 74, 80
1, 142547, Note_on_c, 0, 69, 0
1, 142547, Note_on_c, 0, 74, 0
1, 142560, Note_on_c, 0, 64, 80
1, 142560, Note_on_c, 0, 69, 80
1, 142560, Note_on_c, 0, 74, 80
1, 142787, Note_on_c, 0, 64, 0
1, 142787, Note_on_c, 0, 69, 0
1, 142787, Note_on_c, 0, 74, 0
1, 142800, Note_on_c, 0, 69, 80
1, 142800, Note_on_c, 0, 72, 80
1, 143027, Note_on_c, 0, 69, 0
1, 143027, Note_on_c, 0, 72, 0
1, 143040, Note_on_c, 0, 64, 80
1, 143040, Note_on_c, 0, 69, 80
1, 143040, Note_on_c, 0, 72, 80
1, 143267, Note_on_c, 0, 64, 0
1, 143267, Note_on_c, 0, 69, 0
1, 143267, Note_on_c, 0, 72, 0
1, 143280, Note_on_c, 0, 69, 80
1, 143280, Note_on_c, 0, 74, 80
1, 143507, Note_on_c, 0, 69, 0
1, 143507, Note_on_c, 0, 74, 0
1, 143520, Note_on_c, 0, 69, 80
1, 143520, Note_on_c, 0, 74, 80
1, 143747, Note_on_c, 0, 69, 0
1, 143747, Note_on_c, 0, 74, 0
1, 143760, Note_on_c, 0, 65, 80
1, 143760, Note_on_c, 0, 69, 80
1, 143760, Note_on_c, 0, 74, 80
1, 144215, Note_on_c, 0, 65, 0
1, 144215, Note_on_c, 0, 69, 0
1, 144215, Note_on_c, 0, 74, 0
1, 144240, Note_on_c, 0, 65, 80
1, 144240, Note_on_c, 0, 69, 80
1, 144240, Note_on_c, 0, 72, 80
1, 144467, Note_on_c, 0, 65, 0
1, 144467, Note_on_c, 0, 69, 0
1, 144467, Note_on_c, 0, 72, 0
1, 144480, Note_on_c, 0, 65, 80
1, 144480, Note_on_c, 0, 72, 80
1, 144707, Note_on_c, 0, 65, 0
1, 144707, Note_on_c, 0, 72, 0
1, 144720, Note_on_c, 0, 69, 80
1, 144720, Note_on_c, 0, 72, 80
1, 144947, Note_on_c, 0, 69, 0
1, 144947, Note_on_c, 0, 72, 0
1, 144960, Note_on_c, 0, 69, 80
1, 144960, Note_on_c, 0, 72, 80
1, 144960, Note_on_c, 0, 77, 80
1, 145415, Note_on_c, 0, 69, 0
1, 145415, Note_on_c, 0, 72, 0
1, 145415, Note_on_c, 0, 77, 0
1, 145440, Note_on_c, 0, 69, 80
1, 145440, Note_on_c, 0, 72, 80
1, 145440, Note_on_c, 0, 76, 80
1, 145667, Note_on_c, 0, 69, 0
1, 145667, Note_on_c, 0, 72, 0
1, 145667, Note_on_c, 0, 76, 0
1, 145680, Note_on_c, 0, 64, 80
1, 145680, Note_on_c, 0, 67, 80
1, 145680, Note_on_c, 0, 74, 80
1, 146135, Note_on_c, 0, 64, 0
1, 146135, Note_on_c, 0, 67, 0
1, 146135, Note_on_c, 0, 74, 0
1, 146160, Note_on_c, 0, 72, 80
1, 146387, Note_on_c, 0, 72, 0
1, 146400, Note_on_c, 0, 72, 80
1, 146627, Note_on_c, 0, 72, 0
1, 146640, Note_on_c, 0, 72, 80
1, 146867, Note_on_c, 0, 72, 0
1, 146880, Note_on_c, 0, 77, 80
1, 147107, Note_on_c, 0, 77, 0
1, 147120, Note_on_c, 0, 77, 80
1, 147347, Note_on_c, 0, 77, 0
1, 147360, Note_on_c, 0, 76, 80
1, 147587, Note_on_c, 0, 76, 0
1, 147600, Note_on_c, 0, 74, 80
1, 147827, Note_on_c, 0, 74, 0
1, 147840, Note_on_c, 0, 59, 80
1, 148295, Note_on_c, 0, 59, 0
1, 148320, Tempo, 545455
1, 148320, Note_on_c, 0, 76, 80
1, 148547, Note_on_c, 0, 76, 0
1, 148560, Tempo, 550459
1, 148560, Note_on_c, 0, 76, 80
1, 148787, Note_on_c, 0, 76, 0
1, 148800, Tempo, 560748
1, 148800, Note_on_c, 0, 76, 80
1, 149027, Note_on_c, 0, 76, 0
1, 149040, Tempo, 566038
1, 149040, Note_on_c, 0, 76, 80
1, 149267, Note_on_c, 0, 76, 0
1, 149280, Tempo, 571429
1, 149280, Note_on_c, 0, 76, 80
1, 149507, Note_on_c, 0, 76, 0
1, 149520, Tempo, 582524
1, 149520, Note_on_c, 0, 76, 80
1, 149747, Note_on_c, 0, 76, 0
1, 149760, Tempo, 588235
1, 149760, Note_on_c, 0, 69, 80
1, 149760, Note_on_c, 0, 76, 80
1, 149987, Note_on_c, 0, 69, 0
1, 149987, Note_on_c, 0, 76, 0
1, 150000, Tempo, 600000
1, 150000, Note_on_c, 0, 74, 80
1, 150227, Note_on_c, 0, 74, 0
1, 150240, Tempo, 606061
1, 150240, Note_on_c, 0, 74, 80
1, 150467, Note_on_c, 0, 74, 0
1, 150480, Tempo, 612245
1, 150480, Note_on_c, 0, 72, 80
1, 150707, Note_on_c, 0, 72, 0
1, 150720, Tempo, 625000
1, 150720, Note_on_c, 0, 69, 80
1, 150720, Note_on_c, 0, 72, 80
1, 150947, Note_on_c, 0, 69, 0
1, 150947, Note_on_c, 0, 72, 0
1, 150960, Tempo, 631579
1, 150960, Note_on_c, 0, 74, 80
1, 151187, Note_on_c, 0, 74, 0
1, 151200, Tempo, 638298
1, 151200, Note_on_c, 0, 74, 80
1, 151427, Note_on_c, 0, 74, 0
1, 151440, Tempo, 652174
1, 151440, Note_on_c, 0, 65, 80
1, 151440, Note_on_c, 0, 69, 80
1, 151440, Note_on_c, 0, 74, 80
1, 151680, Tempo, 659341
1, 151895, Note_on_c, 0, 65, 0
1, 151895, Note_on_c, 0, 69, 0
1, 151895, Note_on_c, 0, 74, 0
1, 151920, Tempo, 666667
1, 151920, Note_on_c, 0, 72, 80
1, 152160, Tempo, 681818
1, 153401, Note_on_c, 0, 72, 0
1, 153600, Note_on_c, 0, 55, 80
1, 153600, Note_on_c, 0, 60, 80
1, 153600, Note_on_c, 0, 64, 80
1, 155423, Note_on_c, 0, 55, 0
1, 155423, Note_on_c, 0, 60, 0
1, 155423, Note_on_c, 0, 64, 0
1, 155424, End_track
2, 0, Start_track
2, 0, Title_t, "Piano, Piano\000"
2, 0, Key_signature, 0, "major"
2, 0, MIDI_port, 0
2, 0, Note_on_c, 0, 60, 80
2, 1823, Note_on_c, 0, 60, 0
2, 1920, Note_on_c, 0, 55, 80
2, 3743, Note_on_c, 0, 55, 0
2, 3840, Note_on_c, 0, 57, 80
2, 5663, Note_on_c, 0, 57, 0
2, 5760, Note_on_c, 0, 53, 80
2, 7583, Note_on_c, 0, 53, 0
2, 7680, Note_on_c, 0, 48, 80
2, 7907, Note_on_c, 0, 48, 0
2, 7920, Note_on_c, 0, 55, 80
2, 8147, Note_on_c, 0, 55, 0
2, 8160, Note_on_c, 0, 60, 80
2, 8387, Note_on_c, 0, 60, 0
2, 8400, Note_on_c, 0, 55, 80
2, 8627, Note_on_c, 0, 55, 0
2, 8640, Note_on_c, 0, 60, 80
2, 8867, Note_on_c, 0, 60, 0
2, 8880, Note_on_c, 0, 55, 80
2, 9107, Note_on_c, 0, 55, 0
2, 9120, Note_on_c, 0, 60, 80
2, 9347, Note_on_c, 0, 60, 0
2, 9360, Note_on_c, 0, 55, 80
2, 9587, Note_on_c, 0, 55, 0
2, 9600, Note_on_c, 0, 55, 80
2, 9827, Note_on_c, 0, 55, 0
2, 9840, Note_on_c, 0, 50, 80
2, 10067, Note_on_c, 0, 50, 0
2, 10080, Note_on_c, 0, 59, 80
2, 10307, Note_on_c, 0, 59, 0
2, 10320, Note_on_c, 0, 50, 80
2, 10547, Note_on_c, 0, 50, 0
2, 10560, Note_on_c, 0, 59, 80
2, 10787, Note_on_c, 0, 59, 0
2, 10800, Note_on_c, 0, 50, 80
2, 11027, Note_on_c, 0, 50, 0
2, 11040, Note_on_c, 0, 59, 80
2, 11267, Note_on_c, 0, 59, 0
2, 11280, Note_on_c, 0, 50, 80
2, 11507, Note_on_c, 0, 50, 0
2, 11520, Note_on_c, 0, 52, 80
2, 11747, Note_on_c, 0, 52, 0
2, 11760, Note_on_c, 0, 57, 80
2, 11987, Note_on_c, 0, 57, 0
2, 12000, Note_on_c, 0, 60, 80
2, 12227, Note_on_c, 0, 60, 0
2, 12240, Note_on_c, 0, 52, 80
2, 12467, Note_on_c, 0, 52, 0
2, 12480, Note_on_c, 0, 60, 80
2, 12707, Note_on_c, 0, 60, 0
2, 12720, Note_on_c, 0, 52, 80
2, 12947, Note_on_c, 0, 52, 0
2, 12960, Note_on_c, 0, 60, 80
2, 13187, Note_on_c, 0, 60, 0
2, 13200, Note_on_c, 0, 52, 80
2, 13427, Note_on_c, 0, 52, 0
2, 13680, Note_on_c, 0, 48, 80
2, 13907, Note_on_c, 0, 48, 0
2, 13920, Note_on_c, 0, 57, 80
2, 14147, Note_on_c, 0, 57, 0
2, 14160, Note_on_c, 0, 48, 80
2, 14387, Note_on_c, 0, 48, 0
2, 14400, Note_on_c, 0, 57, 80
2, 14627, Note_on_c, 0, 57, 0
2, 14640, Note_on_c, 0, 48, 80
2, 14867, Note_on_c, 0, 48, 0
2, 14880, Note_on_c, 0, 57, 80
2, 15107, Note_on_c, 0, 57, 0
2, 15120, Note_on_c, 0, 48, 80
2, 15347, Note_on_c, 0, 48, 0
2, 15360, Note_on_c, 0, 48, 80
2, 15587, Note_on_c, 0, 48, 0
2, 15600, Note_on_c, 0, 55, 80
2, 15827, Note_on_c, 0, 55, 0
2, 15840, Note_on_c, 0, 60, 80
2, 16067, Note_on_c, 0, 60, 0
2, 16080, Note_on_c, 0, 55, 80
2, 16307, Note_on_c, 0, 55, 0
2, 16320, Note_on_c, 0, 60, 80
2, 16547, Note_on_c, 0, 60, 0
2, 16560, Note_on_c, 0, 55, 80
2, 16787, Note_on_c, 0, 55, 0
2, 16800, Note_on_c, 0, 60, 80
2, 17027, Note_on_c, 0, 60, 0
2, 17040, Note_on_c, 0, 55, 80
2, 17267, Note_on_c, 0, 55, 0
2, 17280, Note_on_c, 0, 55, 80
2, 17507, Note_on_c, 0, 55, 0
2, 17520, Note_on_c, 0, 50, 80
2, 17747, Note_on_c, 0, 50, 0
2, 17760, Note_on_c, 0, 59, 80
2, 17987, Note_on_c, 0, 59, 0
2, 18000, Note_on_c, 0, 50, 80
2, 18227, Note_on_c, 0, 50, 0
2, 18240, Note_on_c, 0, 59, 80
2, 18467, Note_on_c, 0, 59, 0
2, 18480, Note_on_c, 0, 50, 80
2, 18707, Note_on_c, 0, 50, 0
2, 18720, Note_on_c, 0, 59, 80
2, 18947, Note_on_c, 0, 59, 0
2, 18960, Note_on_c, 0, 50, 80
2, 19187, Note_on_c, 0, 50, 0
2, 19200, Note_on_c, 0, 52, 80
2, 19427, Note_on_c, 0, 52, 0
2, 19440, Note_on_c, 0, 57, 80
2, 19667, Note_on_c, 0, 57, 0
2, 19680, Note_on_c, 0, 60, 80
2, 19907, Note_on_c, 0, 60, 0
2, 19920, Note_on_c, 0, 52, 80
2, 20147, Note_on_c, 0, 52, 0
2, 20160, Note_on_c, 0, 60, 80
2, 20387, Note_on_c, 0, 60, 0
2, 20400, Note_on_c, 0, 52, 80
2, 20627, Note_on_c, 0, 52, 0
2, 20640, Note_on_c, 0, 60, 80
2, 20867, Note_on_c, 0, 60, 0
2, 20880, Note_on_c, 0, 52, 80
2, 21107, Note_on_c, 0, 52, 0
2, 21360, Note_on_c, 0, 48, 80
2, 21587, Note_on_c, 0, 48, 0
2, 21600, Note_on_c, 0, 57, 80
2, 21827, Note_on_c, 0, 57, 0
2, 21840, Note_on_c, 0, 48, 80
2, 22067, Note_on_c, 0, 48, 0
2, 22080, Note_on_c, 0, 57, 80
2, 22307, Note_on_c, 0, 57, 0
2, 22320, Note_on_c, 0, 48, 80
2, 22547, Note_on_c, 0, 48, 0
2, 22560, Note_on_c, 0, 57, 80
2, 22799, Note_on_c, 0, 57, 0
2, 23280, Note_on_c, 0, 55, 80
2, 23507, Note_on_c, 0, 55, 0
2, 23520, Note_on_c, 0, 64, 80
2, 23747, Note_on_c, 0, 64, 0
2, 23760, Note_on_c, 0, 55, 80
2, 23987, Note_on_c, 0, 55, 0
2, 24000, Note_on_c, 0, 64, 80
2, 24227, Note_on_c, 0, 64, 0
2, 24240, Note_on_c, 0, 55, 80
2, 24467, Note_on_c, 0, 55, 0
2, 24480, Note_on_c, 0, 64, 80
2, 24707, Note_on_c, 0, 64, 0
2, 24720, Note_on_c, 0, 55, 80
2, 24947, Note_on_c, 0, 55, 0
2, 25200, Note_on_c, 0, 62, 80
2, 25427, Note_on_c, 0, 62, 0
2, 25440, Note_on_c, 0, 71, 80
2, 25667, Note_on_c, 0, 71, 0
2, 25680, Note_on_c, 0, 62, 80
2, 25907, Note_on_c, 0, 62, 0
2, 26160, Note_on_c, 0, 62, 80
2, 26387, Note_on_c, 0, 62, 0
2, 26640, Note_on_c, 0, 62, 80
2, 26867, Note_on_c, 0, 62, 0
2, 27120, Note_on_c, 0, 64, 80
2, 27360, Note_on_c, 0, 72, 80
2, 27479, Note_on_c, 0, 64, 0
2, 27587, Note_on_c, 0, 72, 0
2, 27600, Note_on_c, 0, 64, 80
2, 27827, Note_on_c, 0, 64, 0
2, 27840, Note_on_c, 0, 72, 80
2, 28067, Note_on_c, 0, 72, 0
2, 28080, Note_on_c, 0, 64, 80
2, 28307, Note_on_c, 0, 64, 0
2, 28320, Note_on_c, 0, 69, 80
2, 28547, Note_on_c, 0, 69, 0
2, 28560, Note_on_c, 0, 64, 80
2, 28787, Note_on_c, 0, 64, 0
2, 28800, Note_on_c, 0, 53, 80
2, 29027, Note_on_c, 0, 53, 0
2, 29040, Note_on_c, 0, 60, 80
2, 29267, Note_on_c, 0, 60, 0
2, 29280, Note_on_c, 0, 69, 80
2, 29507, Note_on_c, 0, 69, 0
2, 29520, Note_on_c, 0, 60, 80
2, 29747, Note_on_c, 0, 60, 0
2, 30000, Note_on_c, 0, 60, 80
2, 30227, Note_on_c, 0, 60, 0
2, 30480, Note_on_c, 0, 60, 80
2, 30707, Note_on_c, 0, 60, 0
2, 30960, Note_on_c, 0, 55, 80
2, 31187, Note_on_c, 0, 55, 0
2, 31200, Note_on_c, 0, 64, 80
2, 31655, Note_on_c, 0, 64, 0
2, 31680, Note_on_c, 0, 64, 80
2, 31907, Note_on_c, 0, 64, 0
2, 31920, Note_on_c, 0, 55, 80
2, 32147, Note_on_c, 0, 55, 0
2, 32160, Note_on_c, 0, 64, 80
2, 32387, Note_on_c, 0, 64, 0
2, 32400, Note_on_c, 0, 55, 80
2, 32627, Note_on_c, 0, 55, 0
2, 32640, Note_on_c, 0, 55, 80
2, 32867, Note_on_c, 0, 55, 0
2, 32880, Note_on_c, 0, 62, 80
2, 33107, Note_on_c, 0, 62, 0
2, 33120, Note_on_c, 0, 71, 80
2, 33359, Note_on_c, 0, 71, 0
2, 33600, Note_on_c, 0, 62, 80
2, 34055, Note_on_c, 0, 62, 0
2, 36480, Note_on_c, 0, 53, 80
2, 36707, Note_on_c, 0, 53, 0
2, 36720, Note_on_c, 0, 60, 80
2, 36947, Note_on_c, 0, 60, 0
2, 36960, Note_on_c, 0, 69, 80
2, 37187, Note_on_c, 0, 69, 0
2, 37200, Note_on_c, 0, 60, 80
2, 37427, Note_on_c, 0, 60, 0
2, 37680, Note_on_c, 0, 60, 80
2, 37907, Note_on_c, 0, 60, 0
2, 38160, Note_on_c, 0, 60, 80
2, 38387, Note_on_c, 0, 60, 0
2, 38400, Note_on_c, 0, 48, 80
2, 38627, Note_on_c, 0, 48, 0
2, 38640, Note_on_c, 0, 55, 80
2, 38867, Note_on_c, 0, 55, 0
2, 38880, Note_on_c, 0, 60, 80
2, 38880, Note_on_c, 0, 64, 80
2, 39107, Note_on_c, 0, 60, 0
2, 39107, Note_on_c, 0, 64, 0
2, 39120, Note_on_c, 0, 55, 80
2, 39347, Note_on_c, 0, 55, 0
2, 39360, Note_on_c, 0, 64, 80
2, 39815, Note_on_c, 0, 64, 0
2, 39840, Note_on_c, 0, 64, 80
2, 40067, Note_on_c, 0, 64, 0
2, 40080, Note_on_c, 0, 60, 80
2, 40307, Note_on_c, 0, 60, 0
2, 40320, Note_on_c, 0, 55, 80
2, 40547, Note_on_c, 0, 55, 0
2, 40560, Note_on_c, 0, 62, 80
2, 40787, Note_on_c, 0, 62, 0
2, 40800, Note_on_c, 0, 59, 80
2, 41027, Note_on_c, 0, 59, 0
2, 41040, Note_on_c, 0, 62, 80
2, 41267, Note_on_c, 0, 62, 0
2, 41520, Note_on_c, 0, 62, 80
2, 41975, Note_on_c, 0, 62, 0
2, 42000, Note_on_c, 0, 62, 80
2, 42227, Note_on_c, 0, 62, 0
2, 42240, Note_on_c, 0, 57, 80
2, 42467, Note_on_c, 0, 57, 0
2, 42480, Note_on_c, 0, 52, 80
2, 42707, Note_on_c, 0, 52, 0
2, 42720, Note_on_c, 0, 57, 80
2, 42720, Note_on_c, 0, 60, 80
2, 42947, Note_on_c, 0, 57, 0
2, 42947, Note_on_c, 0, 60, 0
2, 42960, Note_on_c, 0, 52, 80
2, 43187, Note_on_c, 0, 52, 0
2, 43200, Note_on_c, 0, 60, 80
2, 43655, Note_on_c, 0, 60, 0
2, 43680, Note_on_c, 0, 60, 80
2, 43907, Note_on_c, 0, 60, 0
2, 43920, Note_on_c, 0, 57, 80
2, 44147, Note_on_c, 0, 57, 0
2, 44160, Note_on_c, 0, 53, 80
2, 44387, Note_on_c, 0, 53, 0
2, 44400, Note_on_c, 0, 60, 80
2, 44627, Note_on_c, 0, 60, 0
2, 44640, Note_on_c, 0, 65, 80
2, 44867, Note_on_c, 0, 65, 0
2, 44880, Note_on_c, 0, 60, 80
2, 45107, Note_on_c, 0, 60, 0
2, 45120, Note_on_c, 0, 69, 80
2, 45360, Note_on_c, 0, 60, 80
2, 45575, Note_on_c, 0, 69, 0
2, 45587, Note_on_c, 0, 60, 0
2, 45600, Note_on_c, 0, 65, 80
2, 45827, Note_on_c, 0, 65, 0
2, 45840, Note_on_c, 0, 60, 80
2, 46067, Note_on_c, 0, 60, 0
2, 46080, Note_on_c, 0, 48, 80
2, 46307, Note_on_c, 0, 48, 0
2, 46320, Note_on_c, 0, 55, 80
2, 46547, Note_on_c, 0, 55, 0
2, 46560, Note_on_c, 0, 60, 80
2, 46560, Note_on_c, 0, 64, 80
2, 46787, Note_on_c, 0, 60, 0
2, 46787, Note_on_c, 0, 64, 0
2, 46800, Note_on_c, 0, 55, 80
2, 47027, Note_on_c, 0, 55, 0
2, 47040, Note_on_c, 0, 64, 80
2, 47495, Note_on_c, 0, 64, 0
2, 47520, Note_on_c, 0, 60, 80
2, 47520, Note_on_c, 0, 64, 80
2, 47975, Note_on_c, 0, 60, 0
2, 47975, Note_on_c, 0, 64, 0
2, 48000, Note_on_c, 0, 55, 80
2, 48227, Note_on_c, 0, 55, 0
2, 48240, Note_on_c, 0, 62, 80
2, 48467, Note_on_c, 0, 62, 0
2, 48480, Note_on_c, 0, 71, 80
2, 48707, Note_on_c, 0, 71, 0
2, 48720, Note_on_c, 0, 62, 80
2, 49175, Note_on_c, 0, 62, 0
2, 49920, Note_on_c, 0, 57, 80
2, 50147, Note_on_c, 0, 57, 0
2, 50160, Note_on_c, 0, 64, 80
2, 50387, Note_on_c, 0, 64, 0
2, 50400, Note_on_c, 0, 60, 80
2, 50627, Note_on_c, 0, 60, 0
2, 50640, Note_on_c, 0, 64, 80
2, 50867, Note_on_c, 0, 64, 0
2, 50880, Note_on_c, 0, 60, 80
2, 51119, Note_on_c, 0, 60, 0
2, 51360, Note_on_c, 0, 60, 80
2, 51599, Note_on_c, 0, 60, 0
2, 51840, Note_on_c, 0, 53, 80
2, 52067, Note_on_c, 0, 53, 0
2, 52080, Note_on_c, 0, 48, 80
2, 52307, Note_on_c, 0, 48, 0
2, 52320, Note_on_c, 0, 53, 80
2, 52320, Note_on_c, 0, 57, 80
2, 52547, Note_on_c, 0, 53, 0
2, 52547, Note_on_c, 0, 57, 0
2, 52560, Note_on_c, 0, 48, 80
2, 52787, Note_on_c, 0, 48, 0
2, 52800, Note_on_c, 0, 57, 80
2, 53027, Note_on_c, 0, 57, 0
2, 53040, Note_on_c, 0, 48, 80
2, 53267, Note_on_c, 0, 48, 0
2, 53280, Note_on_c, 0, 53, 80
2, 53280, Note_on_c, 0, 57, 80
2, 53507, Note_on_c, 0, 53, 0
2, 53507, Note_on_c, 0, 57, 0
2, 53520, Note_on_c, 0, 48, 80
2, 53747, Note_on_c, 0, 48, 0
2, 53760, Note_on_c, 0, 48, 80
2, 53760, Note_on_c, 0, 55, 80
2, 53760, Note_on_c, 0, 60, 80
2, 53987, Note_on_c, 0, 48, 0
2, 53987, Note_on_c, 0, 55, 0
2, 53987, Note_on_c, 0, 60, 0
2, 54000, Note_on_c, 0, 48, 80
2, 54227, Note_on_c, 0, 48, 0
2, 54480, Note_on_c, 0, 48, 80
2, 54707, Note_on_c, 0, 48, 0
2, 54960, Note_on_c, 0, 48, 80
2, 55187, Note_on_c, 0, 48, 0
2, 55440, Note_on_c, 0, 48, 80
2, 55667, Note_on_c, 0, 48, 0
2, 55680, Note_on_c, 0, 50, 80
2, 55680, Note_on_c, 0, 55, 80
2, 55680, Note_on_c, 0, 59, 80
2, 55907, Note_on_c, 0, 50, 0
2, 55907, Note_on_c, 0, 55, 0
2, 55907, Note_on_c, 0, 59, 0
2, 55920, Note_on_c, 0, 50, 80
2, 56147, Note_on_c, 0, 50, 0
2, 56400, Note_on_c, 0, 50, 80
2, 56627, Note_on_c, 0, 50, 0
2, 56880, Note_on_c, 0, 50, 80
2, 57107, Note_on_c, 0, 50, 0
2, 57360, Note_on_c, 0, 50, 80
2, 57587, Note_on_c, 0, 50, 0
2, 57600, Note_on_c, 0, 52, 80
2, 57600, Note_on_c, 0, 57, 80
2, 57827, Note_on_c, 0, 52, 0
2, 57827, Note_on_c, 0, 57, 0
2, 57840, Note_on_c, 0, 52, 80
2, 58067, Note_on_c, 0, 52, 0
2, 58080, Note_on_c, 0, 60, 80
2, 58307, Note_on_c, 0, 60, 0
2, 58320, Note_on_c, 0, 52, 80
2, 58547, Note_on_c, 0, 52, 0
2, 58560, Note_on_c, 0, 60, 80
2, 58787, Note_on_c, 0, 60, 0
2, 58800, Note_on_c, 0, 52, 80
2, 59027, Note_on_c, 0, 52, 0
2, 59040, Note_on_c, 0, 60, 80
2, 59267, Note_on_c, 0, 60, 0
2, 59280, Note_on_c, 0, 52, 80
2, 59507, Note_on_c, 0, 52, 0
2, 59520, Note_on_c, 0, 53, 80
2, 59747, Note_on_c, 0, 53, 0
2, 59760, Note_on_c, 0, 48, 80
2, 59987, Note_on_c, 0, 48, 0
2, 60000, Note_on_c, 0, 57, 80
2, 60227, Note_on_c, 0, 57, 0
2, 60240, Note_on_c, 0, 48, 80
2, 60467, Note_on_c, 0, 48, 0
2, 60480, Note_on_c, 0, 57, 80
2, 60707, Note_on_c, 0, 57, 0
2, 60720, Note_on_c, 0, 48, 80
2, 60947, Note_on_c, 0, 48, 0
2, 60960, Note_on_c, 0, 57, 80
2, 61187, Note_on_c, 0, 57, 0
2, 61200, Note_on_c, 0, 48, 80
2, 61427, Note_on_c, 0, 48, 0
2, 61440, Note_on_c, 0, 48, 80
2, 61440, Note_on_c, 0, 55, 80
2, 61440, Note_on_c, 0, 60, 80
2, 61667, Note_on_c, 0, 48, 0
2, 61667, Note_on_c, 0, 55, 0
2, 61667, Note_on_c, 0, 60, 0
2, 61680, Note_on_c, 0, 48, 80
2, 61907, Note_on_c, 0, 48, 0
2, 62160, Note_on_c, 0, 48, 80
2, 62387, Note_on_c, 0, 48, 0
2, 62640, Note_on_c, 0, 48, 80
2, 62867, Note_on_c, 0, 48, 0
2, 63120, Note_on_c, 0, 48, 80
2, 63347, Note_on_c, 0, 48, 0
2, 63360, Note_on_c, 0, 50, 80
2, 63360, Note_on_c, 0, 55, 80
2, 63360, Note_on_c, 0, 59, 80
2, 63587, Note_on_c, 0, 50, 0
2, 63587, Note_on_c, 0, 55, 0
2, 63587, Note_on_c, 0, 59, 0
2, 63600, Note_on_c, 0, 50, 80
2, 63827, Note_on_c, 0, 50, 0
2, 64080, Note_on_c, 0, 50, 80
2, 64307, Note_on_c, 0, 50, 0
2, 64560, Note_on_c, 0, 50, 80
2, 64787, Note_on_c, 0, 50, 0
2, 65040, Note_on_c, 0, 50, 80
2, 65267, Note_on_c, 0, 50, 0
2, 65280, Note_on_c, 0, 52, 80
2, 65280, Note_on_c, 0, 57, 80
2, 65507, Note_on_c, 0, 52, 0
2, 65507, Note_on_c, 0, 57, 0
2, 65520, Note_on_c, 0, 52, 80
2, 65747, Note_on_c, 0, 52, 0
2, 65760, Note_on_c, 0, 60, 80
2, 65987, Note_on_c, 0, 60, 0
2, 66000, Note_on_c, 0, 52, 80
2, 66227, Note_on_c, 0, 52, 0
2, 66240, Note_on_c, 0, 60, 80
2, 66467, Note_on_c, 0, 60, 0
2, 66480, Note_on_c, 0, 52, 80
2, 66707, Note_on_c, 0, 52, 0
2, 66720, Note_on_c, 0, 60, 80
2, 66947, Note_on_c, 0, 60, 0
2, 66960, Note_on_c, 0, 52, 80
2, 67187, Note_on_c, 0, 52, 0
2, 67200, Note_on_c, 0, 53, 80
2, 67655, Note_on_c, 0, 53, 0
2, 69360, Note_on_c, 0, 55, 80
2, 69587, Note_on_c, 0, 55, 0
2, 69600, Note_on_c, 0, 64, 80
2, 69827, Note_on_c, 0, 64, 0
2, 69840, Note_on_c, 0, 55, 80
2, 70067, Note_on_c, 0, 55, 0
2, 70080, Note_on_c, 0, 64, 80
2, 70307, Note_on_c, 0, 64, 0
2, 70320, Note_on_c, 0, 55, 80
2, 70547, Note_on_c, 0, 55, 0
2, 70560, Note_on_c, 0, 64, 80
2, 70787, Note_on_c, 0, 64, 0
2, 70800, Note_on_c, 0, 55, 80
2, 71027, Note_on_c, 0, 55, 0
2, 71040, Note_on_c, 0, 55, 80
2, 71267, Note_on_c, 0, 55, 0
2, 71280, Note_on_c, 0, 62, 80
2, 71507, Note_on_c, 0, 62, 0
2, 71520, Note_on_c, 0, 71, 80
2, 71747, Note_on_c, 0, 71, 0
2, 71760, Note_on_c, 0, 62, 80
2, 72215, Note_on_c, 0, 62, 0
2, 72240, Note_on_c, 0, 62, 80
2, 72695, Note_on_c, 0, 62, 0
2, 72720, Note_on_c, 0, 62, 80
2, 72947, Note_on_c, 0, 62, 0
2, 73200, Note_on_c, 0, 64, 80
2, 73655, Note_on_c, 0, 64, 0
2, 73680, Note_on_c, 0, 64, 80
2, 73907, Note_on_c, 0, 64, 0
2, 73920, Note_on_c, 0, 72, 80
2, 74147, Note_on_c, 0, 72, 0
2, 74160, Note_on_c, 0, 64, 80
2, 74387, Note_on_c, 0, 64, 0
2, 74400, Note_on_c, 0, 69, 80
2, 74627, Note_on_c, 0, 69, 0
2, 74640, Note_on_c, 0, 64, 80
2, 74867, Note_on_c, 0, 64, 0
2, 74880, Note_on_c, 0, 53, 80
2, 75107, Note_on_c, 0, 53, 0
2, 75120, Note_on_c, 0, 60, 80
2, 75347, Note_on_c, 0, 60, 0
2, 75360, Note_on_c, 0, 69, 80
2, 75587, Note_on_c, 0, 69, 0
2, 75600, Note_on_c, 0, 60, 80
2, 75827, Note_on_c, 0, 60, 0
2, 76080, Note_on_c, 0, 60, 80
2, 76307, Note_on_c, 0, 60, 0
2, 76560, Note_on_c, 0, 60, 80
2, 76787, Note_on_c, 0, 60, 0
2, 77040, Note_on_c, 0, 55, 80
2, 77267, Note_on_c, 0, 55, 0
2, 77280, Note_on_c, 0, 64, 80
2, 77735, Note_on_c, 0, 64, 0
2, 77760, Note_on_c, 0, 64, 80
2, 77987, Note_on_c, 0, 64, 0
2, 78000, Note_on_c, 0, 55, 80
2, 78227, Note_on_c, 0, 55, 0
2, 78240, Note_on_c, 0, 64, 80
2, 78467, Note_on_c, 0, 64, 0
2, 78480, Note_on_c, 0, 55, 80
2, 78707, Note_on_c, 0, 55, 0
2, 78720, Note_on_c, 0, 55, 80
2, 78947, Note_on_c, 0, 55, 0
2, 78960, Note_on_c, 0, 62, 80
2, 79187, Note_on_c, 0, 62, 0
2, 79200, Note_on_c, 0, 71, 80
2, 79439, Note_on_c, 0, 71, 0
2, 79680, Note_on_c, 0, 62, 80
2, 80135, Note_on_c, 0, 62, 0
2, 82560, Note_on_c, 0, 53, 80
2, 82787, Note_on_c, 0, 53, 0
2, 82800, Note_on_c, 0, 60, 80
2, 83027, Note_on_c, 0, 60, 0
2, 83040, Note_on_c, 0, 69, 80
2, 83267, Note_on_c, 0, 69, 0
2, 83280, Note_on_c, 0, 60, 80
2, 83507, Note_on_c, 0, 60, 0
2, 83760, Note_on_c, 0, 60, 80
2, 83987, Note_on_c, 0, 60, 0
2, 84240, Note_on_c, 0, 60, 80
2, 84467, Note_on_c, 0, 60, 0
2, 84480, Note_on_c, 0, 48, 80
2, 84707, Note_on_c, 0, 48, 0
2, 84720, Note_on_c, 0, 55, 80
2, 84947, Note_on_c, 0, 55, 0
2, 84960, Note_on_c, 0, 60, 80
2, 84960, Note_on_c, 0, 64, 80
2, 85187, Note_on_c, 0, 60, 0
2, 85187, Note_on_c, 0, 64, 0
2, 85200, Note_on_c, 0, 55, 80
2, 85427, Note_on_c, 0, 55, 0
2, 85440, Note_on_c, 0, 64, 80
2, 85895, Note_on_c, 0, 64, 0
2, 85920, Note_on_c, 0, 64, 80
2, 86147, Note_on_c, 0, 64, 0
2, 86160, Note_on_c, 0, 60, 80
2, 86387, Note_on_c, 0, 60, 0
2, 86400, Note_on_c, 0, 55, 80
2, 86627, Note_on_c, 0, 55, 0
2, 86640, Note_on_c, 0, 50, 80
2, 86867, Note_on_c, 0, 50, 0
2, 86880, Note_on_c, 0, 55, 80
2, 86880, Note_on_c, 0, 59, 80
2, 87107, Note_on_c, 0, 55, 0
2, 87107, Note_on_c, 0, 59, 0
2, 87120, Note_on_c, 0, 50, 80
2, 87347, Note_on_c, 0, 50, 0
2, 87600, Note_on_c, 0, 62, 80
2, 87827, Note_on_c, 0, 62, 0
2, 88320, Note_on_c, 0, 57, 80
2, 88547, Note_on_c, 0, 57, 0
2, 88560, Note_on_c, 0, 52, 80
2, 88787, Note_on_c, 0, 52, 0
2, 88800, Note_on_c, 0, 57, 80
2, 88800, Note_on_c, 0, 60, 80
2, 89027, Note_on_c, 0, 57, 0
2, 89027, Note_on_c, 0, 60, 0
2, 89040, Note_on_c, 0, 52, 80
2, 89267, Note_on_c, 0, 52, 0
2, 89280, Note_on_c, 0, 60, 80
2, 89735, Note_on_c, 0, 60, 0
2, 89760, Note_on_c, 0, 60, 80
2, 89987, Note_on_c, 0, 60, 0
2, 90000, Note_on_c, 0, 57, 80
2, 90227, Note_on_c, 0, 57, 0
2, 90240, Note_on_c, 0, 53, 80
2, 90467, Note_on_c, 0, 53, 0
2, 90480, Note_on_c, 0, 60, 80
2, 90707, Note_on_c, 0, 60, 0
2, 90720, Note_on_c, 0, 65, 80
2, 90720, Note_on_c, 0, 69, 80
2, 90947, Note_on_c, 0, 65, 0
2, 90947, Note_on_c, 0, 69, 0
2, 90960, Note_on_c, 0, 60, 80
2, 91187, Note_on_c, 0, 60, 0
2, 91200, Note_on_c, 0, 69, 80
2, 91440, Note_on_c, 0, 60, 80
2, 91655, Note_on_c, 0, 69, 0
2, 91667, Note_on_c, 0, 60, 0
2, 91680, Note_on_c, 0, 65, 80
2, 91907, Note_on_c, 0, 65, 0
2, 91920, Note_on_c, 0, 60, 80
2, 92147, Note_on_c, 0, 60, 0
2, 92160, Note_on_c, 0, 48, 80
2, 92387, Note_on_c, 0, 48, 0
2, 92400, Note_on_c, 0, 55, 80
2, 92627, Note_on_c, 0, 55, 0
2, 92640, Note_on_c, 0, 60, 80
2, 92640, Note_on_c, 0, 64, 80
2, 92867, Note_on_c, 0, 60, 0
2, 92867, Note_on_c, 0, 64, 0
2, 92880, Note_on_c, 0, 55, 80
2, 93107, Note_on_c, 0, 55, 0
2, 93120, Note_on_c, 0, 64, 80
2, 93575, Note_on_c, 0, 64, 0
2, 93600, Note_on_c, 0, 60, 80
2, 93600, Note_on_c, 0, 64, 80
2, 94055, Note_on_c, 0, 60, 0
2, 94055, Note_on_c, 0, 64, 0
2, 94080, Note_on_c, 0, 55, 80
2, 94307, Note_on_c, 0, 55, 0
2, 94320, Note_on_c, 0, 62, 80
2, 94547, Note_on_c, 0, 62, 0
2, 94560, Note_on_c, 0, 71, 80
2, 94787, Note_on_c, 0, 71, 0
2, 94800, Note_on_c, 0, 62, 80
2, 95255, Note_on_c, 0, 62, 0
2, 96000, Note_on_c, 0, 57, 80
2, 96227, Note_on_c, 0, 57, 0
2, 96240, Note_on_c, 0, 64, 80
2, 96467, Note_on_c, 0, 64, 0
2, 96480, Note_on_c, 0, 60, 80
2, 96707, Note_on_c, 0, 60, 0
2, 96720, Note_on_c, 0, 64, 80
2, 96947, Note_on_c, 0, 64, 0
2, 96960, Note_on_c, 0, 60, 80
2, 97199, Note_on_c, 0, 60, 0
2, 97440, Note_on_c, 0, 60, 80
2, 97679, Note_on_c, 0, 60, 0
2, 97920, Note_on_c, 0, 53, 80
2, 98147, Note_on_c, 0, 53, 0
2, 98160, Note_on_c, 0, 48, 80
2, 98387, Note_on_c, 0, 48, 0
2, 98400, Note_on_c, 0, 53, 80
2, 98400, Note_on_c, 0, 57, 80
2, 98627, Note_on_c, 0, 53, 0
2, 98627, Note_on_c, 0, 57, 0
2, 98640, Note_on_c, 0, 48, 80
2, 98867, Note_on_c, 0, 48, 0
2, 98880, Note_on_c, 0, 57, 80
2, 99107, Note_on_c, 0, 57, 0
2, 99120, Note_on_c, 0, 48, 80
2, 99347, Note_on_c, 0, 48, 0
2, 99360, Note_on_c, 0, 53, 80
2, 99360, Note_on_c, 0, 57, 80
2, 99599, Note_on_c, 0, 53, 0
2, 99599, Note_on_c, 0, 57, 0
2, 99840, Note_on_c, 0, 62, 80
2, 100295, Note_on_c, 0, 62, 0
2, 100320, Note_on_c, 0, 62, 80
2, 100320, Note_on_c, 0, 65, 80
2, 100775, Note_on_c, 0, 62, 0
2, 100775, Note_on_c, 0, 65, 0
2, 100800, Note_on_c, 0, 62, 80
2, 100800, Note_on_c, 0, 65, 80
2, 101255, Note_on_c, 0, 62, 0
2, 101255, Note_on_c, 0, 65, 0
2, 101280, Note_on_c, 0, 62, 80
2, 101280, Note_on_c, 0, 65, 80
2, 101735, Note_on_c, 0, 62, 0
2, 101735, Note_on_c, 0, 65, 0
2, 101760, Note_on_c, 0, 57, 80
2, 102215, Note_on_c, 0, 57, 0
2, 102240, Note_on_c, 0, 60, 80
2, 102240, Note_on_c, 0, 64, 80
2, 102695, Note_on_c, 0, 60, 0
2, 102695, Note_on_c, 0, 64, 0
2, 102720, Note_on_c, 0, 60, 80
2, 102720, Note_on_c, 0, 64, 80
2, 103175, Note_on_c, 0, 60, 0
2, 103175, Note_on_c, 0, 64, 0
2, 103200, Note_on_c, 0, 60, 80
2, 103200, Note_on_c, 0, 64, 80
2, 103655, Note_on_c, 0, 60, 0
2, 103655, Note_on_c, 0, 64, 0
2, 103680, Note_on_c, 0, 55, 80
2, 104135, Note_on_c, 0, 55, 0
2, 104160, Note_on_c, 0, 62, 80
2, 104615, Note_on_c, 0, 62, 0
2, 104640, Note_on_c, 0, 62, 80
2, 104640, Note_on_c, 0, 67, 80
2, 104879, Note_on_c, 0, 62, 0
2, 104879, Note_on_c, 0, 67, 0
2, 105120, Note_on_c, 0, 62, 80
2, 105120, Note_on_c, 0, 67, 80
2, 105575, Note_on_c, 0, 62, 0
2, 105575, Note_on_c, 0, 67, 0
2, 105600, Note_on_c, 0, 55, 80
2, 105827, Note_on_c, 0, 55, 0
2, 105840, Note_on_c, 0, 62, 80
2, 106067, Note_on_c, 0, 62, 0
2, 106080, Note_on_c, 0, 67, 80
2, 106080, Note_on_c, 0, 71, 80
2, 106535, Note_on_c, 0, 67, 0
2, 106535, Note_on_c, 0, 71, 0
2, 106560, Note_on_c, 0, 57, 80
2, 106787, Note_on_c, 0, 57, 0
2, 106800, Note_on_c, 0, 64, 80
2, 107027, Note_on_c, 0, 64, 0
2, 107040, Note_on_c, 0, 69, 80
2, 107267, Note_on_c, 0, 69, 0
2, 107280, Note_on_c, 0, 64, 80
2, 107507, Note_on_c, 0, 64, 0
2, 107520, Note_on_c, 0, 62, 80
2, 107759, Note_on_c, 0, 62, 0
2, 107760, Note_on_c, 0, 69, 80
2, 108000, Note_on_c, 0, 77, 80
2, 108000, Note_on_c, 0, 74, 80
2, 108215, Note_on_c, 0, 69, 0
2, 108239, Note_on_c, 0, 77, 0
2, 108240, Note_on_c, 0, 69, 80
2, 108480, Note_on_c, 0, 62, 80
2, 108569, Note_on_c, 0, 74, 0
2, 108581, Note_on_c, 0, 69, 0
2, 108707, Note_on_c, 0, 62, 0
2, 108720, Note_on_c, 0, 69, 80
2, 108947, Note_on_c, 0, 69, 0
2, 108960, Note_on_c, 0, 74, 80
2, 109199, Note_on_c, 0, 74, 0
2, 109200, Note_on_c, 0, 69, 80
2, 109427, Note_on_c, 0, 69, 0
2, 109440, Note_on_c, 0, 57, 80
2, 109667, Note_on_c, 0, 57, 0
2, 109680, Note_on_c, 0, 64, 80
2, 109907, Note_on_c, 0, 64, 0
2, 109920, Note_on_c, 0, 69, 80
2, 109920, Note_on_c, 0, 72, 80
2, 110147, Note_on_c, 0, 69, 0
2, 110147, Note_on_c, 0, 72, 0
2, 110160, Note_on_c, 0, 64, 80
2, 110387, Note_on_c, 0, 64, 0
2, 110400, Note_on_c, 0, 60, 80
2, 110627, Note_on_c, 0, 60, 0
2, 110640, Note_on_c, 0, 64, 80
2, 110867, Note_on_c, 0, 64, 0
2, 110880, Note_on_c, 0, 69, 80
2, 110880, Note_on_c, 0, 72, 80
2, 111107, Note_on_c, 0, 69, 0
2, 111107, Note_on_c, 0, 72, 0
2, 111120, Note_on_c, 0, 64, 80
2, 111347, Note_on_c, 0, 64, 0
2, 111360, Note_on_c, 0, 55, 80
2, 111587, Note_on_c, 0, 55, 0
2, 111600, Note_on_c, 0, 62, 80
2, 111827, Note_on_c, 0, 62, 0
2, 111840, Note_on_c, 0, 67, 80
2, 111840, Note_on_c, 0, 71, 80
2, 112067, Note_on_c, 0, 67, 0
2, 112067, Note_on_c, 0, 71, 0
2, 112080, Note_on_c, 0, 62, 80
2, 112307, Note_on_c, 0, 62, 0
2, 112320, Note_on_c, 0, 59, 80
2, 112547, Note_on_c, 0, 59, 0
2, 112560, Note_on_c, 0, 62, 80
2, 112787, Note_on_c, 0, 62, 0
2, 112800, Note_on_c, 0, 67, 80
2, 112800, Note_on_c, 0, 71, 80
2, 113040, Note_on_c, 0, 62, 80
2, 113255, Note_on_c, 0, 67, 0
2, 113255, Note_on_c, 0, 71, 0
2, 113267, Note_on_c, 0, 62, 0
2, 113280, Note_on_c, 0, 55, 80
2, 115103, Note_on_c, 0, 55, 0
2, 115200, Note_on_c, 0, 60, 80
2, 115200, Note_on_c, 0, 64, 80
2, 115200, Note_on_c, 0, 67, 80
2, 117023, Note_on_c, 0, 60, 0
2, 117023, Note_on_c, 0, 64, 0
2, 117023, Note_on_c, 0, 67, 0
2, 117120, Note_on_c, 0, 59, 80
2, 117120, Note_on_c, 0, 62, 80
2, 117120, Note_on_c, 0, 67, 80
2, 118943, Note_on_c, 0, 59, 0
2, 118943, Note_on_c, 0, 62, 0
2, 118943, Note_on_c, 0, 67, 0
2, 119040, Note_on_c, 0, 57, 80
2, 119040, Note_on_c, 0, 60, 80
2, 119040, Note_on_c, 0, 64, 80
2, 120863, Note_on_c, 0, 57, 0
2, 120863, Note_on_c, 0, 60, 0
2, 120863, Note_on_c, 0, 64, 0
2, 120960, Note_on_c, 0, 53, 80
2, 120960, Note_on_c, 0, 57, 80
2, 120960, Note_on_c, 0, 60, 80
2, 122783, Note_on_c, 0, 53, 0
2, 122783, Note_on_c, 0, 57, 0
2, 122783, Note_on_c, 0, 60, 0
2, 122880, Note_on_c, 0, 60, 80
2, 122880, Note_on_c, 0, 64, 80
2, 122880, Note_on_c, 0, 67, 80
2, 124703, Note_on_c, 0, 60, 0
2, 124703, Note_on_c, 0, 64, 0
2, 124703, Note_on_c, 0, 67, 0
2, 124800, Note_on_c, 0, 55, 80
2, 124800, Note_on_c, 0, 59, 80
2, 124800, Note_on_c, 0, 62, 80
2, 126623, Note_on_c, 0, 55, 0
2, 126623, Note_on_c, 0, 59, 0
2, 126623, Note_on_c, 0, 62, 0
2, 126720, Note_on_c, 0, 52, 80
2, 126720, Note_on_c, 0, 57, 80
2, 126720, Note_on_c, 0, 60, 80
2, 128543, Note_on_c, 0, 52, 0
2, 128543, Note_on_c, 0, 57, 0
2, 128543, Note_on_c, 0, 60, 0
2, 128640, Note_on_c, 0, 48, 80
2, 128640, Note_on_c, 0, 53, 80
2, 128640, Note_on_c, 0, 57, 80
2, 130463, Note_on_c, 0, 48, 0
2, 130463, Note_on_c, 0, 53, 0
2, 130463, Note_on_c, 0, 57, 0
2, 130560, Note_on_c, 0, 55, 80
2, 130799, Note_on_c, 0, 55, 0
2, 131040, Note_on_c, 0, 60, 80
2, 131040, Note_on_c, 0, 64, 80
2, 131495, Note_on_c, 0, 60, 0
2, 131495, Note_on_c, 0, 64, 0
2, 131520, Note_on_c, 0, 60, 80
2, 131520, Note_on_c, 0, 64, 80
2, 131975, Note_on_c, 0, 60, 0
2, 131975, Note_on_c, 0, 64, 0
2, 132000, Note_on_c, 0, 60, 80
2, 132000, Note_on_c, 0, 64, 80
2, 132455, Note_on_c, 0, 60, 0
2, 132455, Note_on_c, 0, 64, 0
2, 132480, Note_on_c, 0, 55, 80
2, 132935, Note_on_c, 0, 55, 0
2, 132960, Note_on_c, 0, 59, 80
2, 132960, Note_on_c, 0, 62, 80
2, 133415, Note_on_c, 0, 59, 0
2, 133415, Note_on_c, 0, 62, 0
2, 133440, Note_on_c, 0, 62, 80
2, 133895, Note_on_c, 0, 62, 0
2, 133920, Note_on_c, 0, 62, 80
2, 134375, Note_on_c, 0, 62, 0
2, 134400, Note_on_c, 0, 57, 80
2, 134855, Note_on_c, 0, 57, 0
2, 134880, Note_on_c, 0, 60, 80
2, 135335, Note_on_c, 0, 60, 0
2, 135360, Note_on_c, 0, 60, 80
2, 135815, Note_on_c, 0, 60, 0
2, 135840, Note_on_c, 0, 60, 80
2, 136295, Note_on_c, 0, 60, 0
2, 136320, Note_on_c, 0, 53, 80
2, 136775, Note_on_c, 0, 53, 0
2, 136800, Note_on_c, 0, 60, 80
2, 137255, Note_on_c, 0, 60, 0
2, 137280, Note_on_c, 0, 60, 80
2, 137735, Note_on_c, 0, 60, 0
2, 137760, Note_on_c, 0, 60, 80
2, 138215, Note_on_c, 0, 60, 0
2, 138240, Note_on_c, 0, 48, 80
2, 138695, Note_on_c, 0, 48, 0
2, 138720, Note_on_c, 0, 60, 80
2, 138720, Note_on_c, 0, 64, 80
2, 139175, Note_on_c, 0, 60, 0
2, 139175, Note_on_c, 0, 64, 0
2, 139200, Note_on_c, 0, 60, 80
2, 139200, Note_on_c, 0, 64, 80
2, 139655, Note_on_c, 0, 60, 0
2, 139655, Note_on_c, 0, 64, 0
2, 139680, Note_on_c, 0, 60, 80
2, 139680, Note_on_c, 0, 64, 80
2, 140135, Note_on_c, 0, 60, 0
2, 140135, Note_on_c, 0, 64, 0
2, 140160, Note_on_c, 0, 55, 80
2, 140387, Note_on_c, 0, 55, 0
2, 140400, Note_on_c, 0, 50, 80
2, 140627, Note_on_c, 0, 50, 0
2, 140640, Note_on_c, 0, 55, 80
2, 140640, Note_on_c, 0, 59, 80
2, 141095, Note_on_c, 0, 55, 0
2, 141095, Note_on_c, 0, 59, 0
2, 142080, Note_on_c, 0, 57, 80
2, 142535, Note_on_c, 0, 57, 0
2, 142560, Note_on_c, 0, 60, 80
2, 143015, Note_on_c, 0, 60, 0
2, 143040, Note_on_c, 0, 60, 80
2, 143495, Note_on_c, 0, 60, 0
2, 143520, Note_on_c, 0, 60, 80
2, 143975, Note_on_c, 0, 60, 0
2, 144000, Note_on_c, 0, 53, 80
2, 144455, Note_on_c, 0, 53, 0
2, 145920, Note_on_c, 0, 48, 80
2, 147743, Note_on_c, 0, 48, 0
2, 147840, Note_on_c, 0, 55, 80
2, 149663, Note_on_c, 0, 55, 0
2, 151680, Note_on_c, 0, 53, 80
2, 153503, Note_on_c, 0, 53, 0
2, 153600, Note_on_c, 0, 48, 80
2, 155423, Note_on_c, 0, 48, 0
2, 155424, End_track
0, 0, End_of_file
