0, 0, Header, 1, 3, 480
1, 0, Start_track
1, 0, Title_t, "Piano, Piano\000"
1, 0, Time_signature, 3, 2, 24, 8
1, 0, Key_signature, 0, "major"
1, 0, Tempo, 504202
1, 0, Control_c, 0, 121, 0
1, 0, Program_c, 0, 0
1, 0, Control_c, 0, 7, 100
1, 0, Control_c, 0, 10, 64
1, 0, Control_c, 0, 91, 0
1, 0, Control_c, 0, 93, 0
1, 0, MIDI_port, 0
1, 0, Note_on_c, 0, 67, 80
1, 0, Note_on_c, 0, 72, 80
1, 455, Note_on_c, 0, 67, 0
1, 455, Note_on_c, 0, 72, 0
1, 480, Note_on_c, 0, 67, 80
1, 480, Note_on_c, 0, 72, 80
1, 935, Note_on_c, 0, 67, 0
1, 935, Note_on_c, 0, 72, 0
1, 960, Note_on_c, 0, 67, 80
1, 960, Note_on_c, 0, 72, 80
1, 1415, Note_on_c, 0, 67, 0
1, 1415, Note_on_c, 0, 72, 0
1, 1440, Note_on_c, 0, 69, 80
1, 1440, Note_on_c, 0, 72, 80
1, 1895, Note_on_c, 0, 69, 0
1, 1895, Note_on_c, 0, 72, 0
1, 1920, Note_on_c, 0, 69, 80
1, 1920, Note_on_c, 0, 72, 80
1, 2375, Note_on_c, 0, 69, 0
1, 2375, Note_on_c, 0, 72, 0
1, 2400, Note_on_c, 0, 69, 80
1, 2400, Note_on_c, 0, 72, 80
1, 2855, Note_on_c, 0, 69, 0
1, 2855, Note_on_c, 0, 72, 0
1, 2880, Note_on_c, 0, 67, 80
1, 2880, Note_on_c, 0, 71, 80
1, 3335, Note_on_c, 0, 67, 0
1, 3335, Note_on_c, 0, 71, 0
1, 3360, Note_on_c, 0, 67, 80
1, 3360, Note_on_c, 0, 71, 80
1, 3815, Note_on_c, 0, 67, 0
1, 3815, Note_on_c, 0, 71, 0
1, 3840, Note_on_c, 0, 67, 80
1, 3840, Note_on_c, 0, 71, 80
1, 4295, Note_on_c, 0, 67, 0
1, 4295, Note_on_c, 0, 71, 0
1, 4320, Note_on_c, 0, 65, 80
1, 4320, Note_on_c, 0, 69, 80
1, 4775, Note_on_c, 0, 65, 0
1, 4775, Note_on_c, 0, 69, 0
1, 4800, Note_on_c, 0, 65, 80
1, 4800, Note_on_c, 0, 69, 80
1, 5255, Note_on_c, 0, 65, 0
1, 5255, Note_on_c, 0, 69, 0
1, 5280, Note_on_c, 0, 64, 80
1, 5280, Note_on_c, 0, 67, 80
1, 5735, Note_on_c, 0, 64, 0
1, 5735, Note_on_c, 0, 67, 0
1, 5760, Note_on_c, 0, 67, 80
1, 5760, Note_on_c, 0, 72, 80
1, 6215, Note_on_c, 0, 67, 0
1, 6215, Note_on_c, 0, 72, 0
1, 6240, Note_on_c, 0, 67, 80
1, 6240, Note_on_c, 0, 72, 80
1, 6695, Note_on_c, 0, 67, 0
1, 6695, Note_on_c, 0, 72, 0
1, 6720, Note_on_c, 0, 67, 80
1, 6720, Note_on_c, 0, 72, 80
1, 7175, Note_on_c, 0, 67, 0
1, 7175, Note_on_c, 0, 72, 0
1, 7200, Note_on_c, 0, 69, 80
1, 7200, Note_on_c, 0, 72, 80
1, 7655, Note_on_c, 0, 69, 0
1, 7655, Note_on_c, 0, 72, 0
1, 7680, Note_on_c, 0, 69, 80
1, 7680, Note_on_c, 0, 72, 80
1, 8135, Note_on_c, 0, 69, 0
1, 8135, Note_on_c, 0, 72, 0
1, 8160, Note_on_c, 0, 69, 80
1, 8160, Note_on_c, 0, 72, 80
1, 8615, Note_on_c, 0, 69, 0
1, 8615, Note_on_c, 0, 72, 0
1, 8640, Note_on_c, 0, 67, 80
1, 8640, Note_on_c, 0, 71, 80
1, 9095, Note_on_c, 0, 67, 0
1, 9095, Note_on_c, 0, 71, 0
1, 9120, Note_on_c, 0, 67, 80
1, 9120, Note_on_c, 0, 71, 80
1, 9575, Note_on_c, 0, 67, 0
1, 9575, Note_on_c, 0, 71, 0
1, 9600, Note_on_c, 0, 67, 80
1, 9600, Note_on_c, 0, 71, 80
1, 10055, Note_on_c, 0, 67, 0
1, 10055, Note_on_c, 0, 71, 0
1, 10080, Note_on_c, 0, 65, 80
1, 10080, Note_on_c, 0, 69, 80
1, 10535, Note_on_c, 0, 65, 0
1, 10535, Note_on_c, 0, 69, 0
1, 10560, Note_on_c, 0, 65, 80
1, 10560, Note_on_c, 0, 69, 80
1, 11015, Note_on_c, 0, 65, 0
1, 11015, Note_on_c, 0, 69, 0
1, 11040, Note_on_c, 0, 64, 80
1, 11040, Note_on_c, 0, 67, 80
1, 11495, Note_on_c, 0, 64, 0
1, 11495, Note_on_c, 0, 67, 0
1, 11520, Note_on_c, 0, 67, 80
1, 11520, Note_on_c, 0, 72, 80
1, 11759, Note_on_c, 0, 67, 0
1, 11759, Note_on_c, 0, 72, 0
1, 12000, Note_on_c, 0, 67, 80
1, 12000, Note_on_c, 0, 72, 80
1, 12239, Note_on_c, 0, 67, 0
1, 12239, Note_on_c, 0, 72, 0
1, 12480, Note_on_c, 0, 67, 80
1, 12480, Note_on_c, 0, 72, 80
1, 12719, Note_on_c, 0, 67, 0
1, 12719, Note_on_c, 0, 72, 0
1, 12960, Note_on_c, 0, 69, 80
1, 12960, Note_on_c, 0, 72, 80
1, 13199, Note_on_c, 0, 69, 0
1, 13199, Note_on_c, 0, 72, 0
1, 13440, Note_on_c, 0, 69, 80
1, 13440, Note_on_c, 0, 72, 80
1, 13679, Note_on_c, 0, 69, 0
1, 13679, Note_on_c, 0, 72, 0
1, 13920, Note_on_c, 0, 69, 80
1, 13920, Note_on_c, 0, 72, 80
1, 14159, Note_on_c, 0, 69, 0
1, 14159, Note_on_c, 0, 72, 0
1, 14400, Note_on_c, 0, 67, 80
1, 14400, Note_on_c, 0, 71, 80
1, 14639, Note_on_c, 0, 67, 0
1, 14639, Note_on_c, 0, 71, 0
1, 14880, Note_on_c, 0, 67, 80
1, 14880, Note_on_c, 0, 71, 80
1, 15119, Note_on_c, 0, 67, 0
1, 15119, Note_on_c, 0, 71, 0
1, 15360, Note_on_c, 0, 67, 80
1, 15360, Note_on_c, 0, 71, 80
1, 15599, Note_on_c, 0, 67, 0
1, 15599, Note_on_c, 0, 71, 0
1, 15840, Note_on_c, 0, 65, 80
1, 15840, Note_on_c, 0, 69, 80
1, 16079, Note_on_c, 0, 65, 0
1, 16079, Note_on_c, 0, 69, 0
1, 16320, Note_on_c, 0, 65, 80
1, 16320, Note_on_c, 0, 69, 80
1, 16559, Note_on_c, 0, 65, 0
1, 16559, Note_on_c, 0, 69, 0
1, 16800, Note_on_c, 0, 64, 80
1, 16800, Note_on_c, 0, 67, 80
1, 17039, Note_on_c, 0, 64, 0
1, 17039, Note_on_c, 0, 67, 0
1, 17280, Note_on_c, 0, 67, 80
1, 17280, Note_on_c, 0, 72, 80
1, 17519, Note_on_c, 0, 67, 0
1, 17519, Note_on_c, 0, 72, 0
1, 17760, Note_on_c, 0, 67, 80
1, 17760, Note_on_c, 0, 72, 80
1, 17999, Note_on_c, 0, 67, 0
1, 17999, Note_on_c, 0, 72, 0
1, 18240, Note_on_c, 0, 67, 80
1, 18240, Note_on_c, 0, 72, 80
1, 18479, Note_on_c, 0, 67, 0
1, 18479, Note_on_c, 0, 72, 0
1, 18720, Note_on_c, 0, 69, 80
1, 18720, Note_on_c, 0, 72, 80
1, 18959, Note_on_c, 0, 69, 0
1, 18959, Note_on_c, 0, 72, 0
1, 19200, Note_on_c, 0, 69, 80
1, 19200, Note_on_c, 0, 72, 80
1, 19439, Note_on_c, 0, 69, 0
1, 19439, Note_on_c, 0, 72, 0
1, 19680, Note_on_c, 0, 69, 80
1, 19680, Note_on_c, 0, 72, 80
1, 19919, Note_on_c, 0, 69, 0
1, 19919, Note_on_c, 0, 72, 0
1, 20160, Note_on_c, 0, 67, 80
1, 20160, Note_on_c, 0, 71, 80
1, 20399, Note_on_c, 0, 67, 0
1, 20399, Note_on_c, 0, 71, 0
1, 20640, Note_on_c, 0, 67, 80
1, 20640, Note_on_c, 0, 71, 80
1, 20879, Note_on_c, 0, 67, 0
1, 20879, Note_on_c, 0, 71, 0
1, 21120, Note_on_c, 0, 67, 80
1, 21120, Note_on_c, 0, 71, 80
1, 21359, Note_on_c, 0, 67, 0
1, 21359, Note_on_c, 0, 71, 0
1, 21600, Note_on_c, 0, 65, 80
1, 21600, Note_on_c, 0, 69, 80
1, 21839, Note_on_c, 0, 65, 0
1, 21839, Note_on_c, 0, 69, 0
1, 22080, Note_on_c, 0, 65, 80
1, 22080, Note_on_c, 0, 69, 80
1, 22319, Note_on_c, 0, 65, 0
1, 22319, Note_on_c, 0, 69, 0
1, 22560, Note_on_c, 0, 64, 80
1, 22560, Note_on_c, 0, 67, 80
1, 22799, Note_on_c, 0, 64, 0
1, 22799, Note_on_c, 0, 67, 0
1, 23040, Note_on_c, 0, 79, 80
1, 23723, Note_on_c, 0, 79, 0
1, 23760, Note_on_c, 0, 77, 80
1, 23987, Note_on_c, 0, 77, 0
1, 24000, Note_on_c, 0, 76, 80
1, 24455, Note_on_c, 0, 76, 0
1, 24480, Note_on_c, 0, 74, 80
1, 24536, Note_on_c, 0, 74, 0
1, 24540, Note_on_c, 0, 76, 80
1, 24596, Note_on_c, 0, 76, 0
1, 24600, Note_on_c, 0, 74, 80
1, 24941, Note_on_c, 0, 74, 0
1, 24960, Note_on_c, 0, 72, 80
1, 25415, Note_on_c, 0, 72, 0
1, 25440, Note_on_c, 0, 74, 80
1, 25895, Note_on_c, 0, 74, 0
1, 25920, Note_on_c, 0, 71, 80
1, 26603, Note_on_c, 0, 71, 0
1, 26640, Note_on_c, 0, 69, 80
1, 26867, Note_on_c, 0, 69, 0
1, 26880, Note_on_c, 0, 67, 80
1, 27335, Note_on_c, 0, 67, 0
1, 27360, Note_on_c, 0, 65, 80
1, 27815, Note_on_c, 0, 65, 0
1, 27840, Note_on_c, 0, 67, 80
1, 28295, Note_on_c, 0, 67, 0
1, 28320, Note_on_c, 0, 69, 80
1, 28775, Note_on_c, 0, 69, 0
1, 28800, Note_on_c, 0, 67, 80
1, 28856, Note_on_c, 0, 67, 0
1, 28860, Note_on_c, 0, 69, 80
1, 28916, Note_on_c, 0, 69, 0
1, 28920, Note_on_c, 0, 67, 80
1, 29261, Note_on_c, 0, 67, 0
1, 29280, Note_on_c, 0, 64, 80
1, 29280, Note_on_c, 0, 67, 80
1, 29519, Note_on_c, 0, 64, 0
1, 29519, Note_on_c, 0, 67, 0
1, 29760, Note_on_c, 0, 64, 80
1, 29760, Note_on_c, 0, 69, 80
1, 29879, Note_on_c, 0, 64, 0
1, 29879, Note_on_c, 0, 69, 0
1, 30000, Note_on_c, 0, 64, 80
1, 30000, Note_on_c, 0, 72, 80
1, 30119, Note_on_c, 0, 64, 0
1, 30119, Note_on_c, 0, 72, 0
1, 30720, Note_on_c, 0, 69, 80
1, 30720, Note_on_c, 0, 72, 80
1, 30959, Note_on_c, 0, 69, 0
1, 30959, Note_on_c, 0, 72, 0
1, 31200, Note_on_c, 0, 69, 80
1, 31200, Note_on_c, 0, 74, 80
1, 31439, Note_on_c, 0, 69, 0
1, 31439, Note_on_c, 0, 74, 0
1, 32160, Note_on_c, 0, 62, 80
1, 32160, Note_on_c, 0, 71, 80
1, 32399, Note_on_c, 0, 62, 0
1, 32399, Note_on_c, 0, 71, 0
1, 32640, Note_on_c, 0, 62, 80
1, 32640, Note_on_c, 0, 67, 80
1, 32759, Note_on_c, 0, 62, 0
1, 32759, Note_on_c, 0, 67, 0
1, 32880, Note_on_c, 0, 62, 80
1, 32880, Note_on_c, 0, 69, 80
1, 32999, Note_on_c, 0, 62, 0
1, 32999, Note_on_c, 0, 69, 0
1, 33600, Note_on_c, 0, 64, 80
1, 33600, Note_on_c, 0, 69, 80
1, 33839, Note_on_c, 0, 64, 0
1, 33839, Note_on_c, 0, 69, 0
1, 34080, Note_on_c, 0, 64, 80
1, 34080, Note_on_c, 0, 67, 80
1, 34319, Note_on_c, 0, 64, 0
1, 34319, Note_on_c, 0, 67, 0
1, 34560, Note_on_c, 0, 77, 80
1, 34635, Note_on_c, 0, 77, 0
1, 34640, Note_on_c, 0, 79, 80
1, 35247, Note_on_c, 0, 79, 0
1, 35280, Note_on_c, 0, 77, 80
1, 35507, Note_on_c, 0, 77, 0
1, 35520, Note_on_c, 0, 76, 80
1, 35975, Note_on_c, 0, 76, 0
1, 36000, Note_on_c, 0, 74, 80
1, 36056, Note_on_c, 0, 74, 0
1, 36060, Note_on_c, 0, 76, 80
1, 36116, Note_on_c, 0, 76, 0
1, 36120, Note_on_c, 0, 74, 80
1, 36461, Note_on_c, 0, 74, 0
1, 36480, Note_on_c, 0, 72, 80
1, 36935, Note_on_c, 0, 72, 0
1, 36960, Note_on_c, 0, 74, 80
1, 37415, Note_on_c, 0, 74, 0
1, 37440, Note_on_c, 0, 71, 80
1, 38123, Note_on_c, 0, 71, 0
1, 38160, Note_on_c, 0, 69, 80
1, 38387, Note_on_c, 0, 69, 0
1, 38400, Note_on_c, 0, 67, 80
1, 38855, Note_on_c, 0, 67, 0
1, 38880, Note_on_c, 0, 69, 80
1, 39335, Note_on_c, 0, 69, 0
1, 39360, Note_on_c, 0, 72, 80
1, 39815, Note_on_c, 0, 72, 0
1, 39840, Note_on_c, 0, 74, 80
1, 40295, Note_on_c, 0, 74, 0
1, 40320, Note_on_c, 0, 72, 80
1, 40376, Note_on_c, 0, 72, 0
1, 40380, Note_on_c, 0, 74, 80
1, 40436, Note_on_c, 0, 74, 0
1, 40440, Note_on_c, 0, 72, 80
1, 40781, Note_on_c, 0, 72, 0
1, 40800, Note_on_c, 0, 64, 80
1, 40800, Note_on_c, 0, 67, 80
1, 41039, Note_on_c, 0, 64, 0
1, 41039, Note_on_c, 0, 67, 0
1, 41280, Note_on_c, 0, 64, 80
1, 41280, Note_on_c, 0, 69, 80
1, 41399, Note_on_c, 0, 64, 0
1, 41399, Note_on_c, 0, 69, 0
1, 41520, Note_on_c, 0, 64, 80
1, 41520, Note_on_c, 0, 72, 80
1, 41639, Note_on_c, 0, 64, 0
1, 41639, Note_on_c, 0, 72, 0
1, 42240, Note_on_c, 0, 69, 80
1, 42240, Note_on_c, 0, 72, 80
1, 42479, Note_on_c, 0, 69, 0
1, 42479, Note_on_c, 0, 72, 0
1, 42720, Note_on_c, 0, 69, 80
1, 42720, Note_on_c, 0, 74, 80
1, 42959, Note_on_c, 0, 69, 0
1, 42959, Note_on_c, 0, 74, 0
1, 43680, Note_on_c, 0, 62, 80
1, 43680, Note_on_c, 0, 71, 80
1, 43919, Note_on_c, 0, 62, 0
1, 43919, Note_on_c, 0, 71, 0
1, 44160, Note_on_c, 0, 62, 80
1, 44160, Note_on_c, 0, 67, 80
1, 44279, Note_on_c, 0, 62, 0
1, 44279, Note_on_c, 0, 67, 0
1, 44400, Note_on_c, 0, 62, 80
1, 44400, Note_on_c, 0, 69, 80
1, 44519, Note_on_c, 0, 62, 0
1, 44519, Note_on_c, 0, 69, 0
1, 45120, Note_on_c, 0, 64, 80
1, 45120, Note_on_c, 0, 69, 80
1, 45359, Note_on_c, 0, 64, 0
1, 45359, Note_on_c, 0, 69, 0
1, 45600, Note_on_c, 0, 72, 80
1, 46055, Note_on_c, 0, 72, 0
1, 46080, Note_on_c, 0, 71, 80
1, 46136, Note_on_c, 0, 71, 0
1, 46140, Note_on_c, 0, 72, 80
1, 46196, Note_on_c, 0, 72, 0
1, 46200, Note_on_c, 0, 71, 80
1, 46769, Note_on_c, 0, 71, 0
1, 46800, Note_on_c, 0, 72, 80
1, 47027, Note_on_c, 0, 72, 0
1, 47040, Note_on_c, 0, 74, 80
1, 47495, Note_on_c, 0, 74, 0
1, 47520, Note_on_c, 0, 72, 80
1, 47576, Note_on_c, 0, 72, 0
1, 47580, Note_on_c, 0, 74, 80
1, 47636, Note_on_c, 0, 74, 0
1, 47640, Note_on_c, 0, 72, 80
1, 47981, Note_on_c, 0, 72, 0
1, 48000, Note_on_c, 0, 71, 80
1, 48455, Note_on_c, 0, 71, 0
1, 48480, Note_on_c, 0, 67, 80
1, 48935, Note_on_c, 0, 67, 0
1, 48960, Note_on_c, 0, 65, 80
1, 49643, Note_on_c, 0, 65, 0
1, 49680, Note_on_c, 0, 67, 80
1, 49907, Note_on_c, 0, 67, 0
1, 49920, Note_on_c, 0, 69, 80
1, 50375, Note_on_c, 0, 69, 0
1, 50400, Note_on_c, 0, 67, 80
1, 50855, Note_on_c, 0, 67, 0
1, 50880, Note_on_c, 0, 64, 80
1, 51335, Note_on_c, 0, 64, 0
1, 51360, Note_on_c, 0, 67, 80
1, 51815, Note_on_c, 0, 67, 0
1, 51840, Note_on_c, 0, 74, 68
1, 51840, Note_on_c, 0, 62, 80
1, 52079, Note_on_c, 0, 74, 0
1, 52080, Note_on_c, 0, 67, 80
1, 52080, Note_on_c, 0, 71, 80
1, 52295, Note_on_c, 0, 62, 0
1, 52307, Note_on_c, 0, 67, 0
1, 52307, Note_on_c, 0, 71, 0
1, 52320, Note_on_c, 0, 67, 80
1, 52320, Note_on_c, 0, 74, 80
1, 52547, Note_on_c, 0, 67, 0
1, 52547, Note_on_c, 0, 74, 0
1, 52560, Note_on_c, 0, 74, 80
1, 52560, Note_on_c, 0, 79, 80
1, 53015, Note_on_c, 0, 74, 0
1, 53015, Note_on_c, 0, 79, 0
1, 53040, Note_on_c, 0, 74, 80
1, 53040, Note_on_c, 0, 79, 80
1, 53267, Note_on_c, 0, 74, 0
1, 53267, Note_on_c, 0, 79, 0
1, 53520, Note_on_c, 0, 74, 80
1, 53520, Note_on_c, 0, 79, 80
1, 53639, Note_on_c, 0, 74, 0
1, 53639, Note_on_c, 0, 79, 0
1, 53760, Note_on_c, 0, 76, 96
1, 53760, Note_on_c, 0, 81, 96
1, 53987, Note_on_c, 0, 76, 0
1, 53987, Note_on_c, 0, 81, 0
1, 54000, Note_on_c, 0, 74, 80
1, 54000, Note_on_c, 0, 79, 80
1, 54227, Note_on_c, 0, 74, 0
1, 54227, Note_on_c, 0, 79, 0
1, 54240, Note_on_c, 0, 69, 80
1, 54240, Note_on_c, 0, 74, 80
1, 54467, Note_on_c, 0, 69, 0
1, 54467, Note_on_c, 0, 74, 0
1, 54480, Note_on_c, 0, 74, 80
1, 54480, Note_on_c, 0, 79, 80
1, 54707, Note_on_c, 0, 74, 0
1, 54707, Note_on_c, 0, 79, 0
1, 54720, Note_on_c, 0, 72, 80
1, 54720, Note_on_c, 0, 77, 80
1, 54947, Note_on_c, 0, 72, 0
1, 54947, Note_on_c, 0, 77, 0
1, 54960, Note_on_c, 0, 71, 80
1, 54960, Note_on_c, 0, 76, 80
1, 55187, Note_on_c, 0, 71, 0
1, 55187, Note_on_c, 0, 76, 0
1, 55200, Note_on_c, 0, 69, 80
1, 55200, Note_on_c, 0, 74, 80
1, 55427, Note_on_c, 0, 69, 0
1, 55427, Note_on_c, 0, 74, 0
1, 55440, Note_on_c, 0, 67, 80
1, 55440, Note_on_c, 0, 72, 80
1, 55895, Note_on_c, 0, 67, 0
1, 55895, Note_on_c, 0, 72, 0
1, 55920, Note_on_c, 0, 67, 80
1, 55920, Note_on_c, 0, 72, 80
1, 56147, Note_on_c, 0, 67, 0
1, 56147, Note_on_c, 0, 72, 0
1, 56400, Note_on_c, 0, 67, 80
1, 56400, Note_on_c, 0, 72, 80
1, 56519, Note_on_c, 0, 67, 0
1, 56519, Note_on_c, 0, 72, 0
1, 56640, Note_on_c, 0, 64, 96
1, 56640, Note_on_c, 0, 71, 96
1, 56867, Note_on_c, 0, 64, 0
1, 56867, Note_on_c, 0, 71, 0
1, 56880, Note_on_c, 0, 67, 80
1, 56880, Note_on_c, 0, 72, 80
1, 57107, Note_on_c, 0, 67, 0
1, 57107, Note_on_c, 0, 72, 0
1, 57120, Note_on_c, 0, 72, 80
1, 57575, Note_on_c, 0, 72, 0
1, 57600, Note_on_c, 0, 71, 80
1, 57656, Note_on_c, 0, 71, 0
1, 57660, Note_on_c, 0, 72, 80
1, 57716, Note_on_c, 0, 72, 0
1, 57720, Note_on_c, 0, 71, 80
1, 58289, Note_on_c, 0, 71, 0
1, 58320, Note_on_c, 0, 72, 80
1, 58547, Note_on_c, 0, 72, 0
1, 58560, Note_on_c, 0, 74, 80
1, 59015, Note_on_c, 0, 74, 0
1, 59040, Note_on_c, 0, 72, 80
1, 59096, Note_on_c, 0, 72, 0
1, 59100, Note_on_c, 0, 74, 80
1, 59156, Note_on_c, 0, 74, 0
1, 59160, Note_on_c, 0, 72, 80
1, 59501, Note_on_c, 0, 72, 0
1, 59520, Note_on_c, 0, 71, 80
1, 59975, Note_on_c, 0, 71, 0
1, 60000, Note_on_c, 0, 67, 80
1, 60455, Note_on_c, 0, 67, 0
1, 60480, Note_on_c, 0, 65, 80
1, 60707, Note_on_c, 0, 65, 0
1, 60720, Note_on_c, 0, 64, 80
1, 60947, Note_on_c, 0, 64, 0
1, 60960, Note_on_c, 0, 65, 80
1, 61871, Note_on_c, 0, 65, 0
1, 61920, Note_on_c, 0, 67, 80
1, 62375, Note_on_c, 0, 67, 0
1, 62400, Note_on_c, 0, 64, 80
1, 62855, Note_on_c, 0, 64, 0
1, 62880, Note_on_c, 0, 65, 80
1, 63335, Note_on_c, 0, 65, 0
1, 63360, Note_on_c, 0, 74, 68
1, 63360, Note_on_c, 0, 67, 80
1, 63420, Note_on_c, 0, 76, 68
1, 63476, Note_on_c, 0, 76, 0
1, 63480, Note_on_c, 0, 74, 0
1, 63480, Note_on_c, 0, 74, 68
1, 63587, Note_on_c, 0, 67, 0
1, 63599, Note_on_c, 0, 74, 0
1, 63600, Note_on_c, 0, 67, 80
1, 63600, Note_on_c, 0, 71, 80
1, 63827, Note_on_c, 0, 67, 0
1, 63827, Note_on_c, 0, 71, 0
1, 63840, Note_on_c, 0, 67, 80
1, 63840, Note_on_c, 0, 74, 80
1, 64067, Note_on_c, 0, 67, 0
1, 64067, Note_on_c, 0, 74, 0
1, 64080, Note_on_c, 0, 74, 80
1, 64080, Note_on_c, 0, 79, 80
1, 64535, Note_on_c, 0, 74, 0
1, 64535, Note_on_c, 0, 79, 0
1, 64560, Note_on_c, 0, 74, 80
1, 64560, Note_on_c, 0, 79, 80
1, 64787, Note_on_c, 0, 74, 0
1, 64787, Note_on_c, 0, 79, 0
1, 65040, Note_on_c, 0, 74, 80
1, 65040, Note_on_c, 0, 79, 80
1, 65159, Note_on_c, 0, 74, 0
1, 65159, Note_on_c, 0, 79, 0
1, 65280, Note_on_c, 0, 76, 96
1, 65280, Note_on_c, 0, 81, 96
1, 65507, Note_on_c, 0, 76, 0
1, 65507, Note_on_c, 0, 81, 0
1, 65520, Note_on_c, 0, 74, 80
1, 65520, Note_on_c, 0, 79, 80
1, 65747, Note_on_c, 0, 74, 0
1, 65747, Note_on_c, 0, 79, 0
1, 65760, Note_on_c, 0, 69, 80
1, 65760, Note_on_c, 0, 74, 80
1, 65987, Note_on_c, 0, 69, 0
1, 65987, Note_on_c, 0, 74, 0
1, 66000, Note_on_c, 0, 74, 80
1, 66000, Note_on_c, 0, 79, 80
1, 66227, Note_on_c, 0, 74, 0
1, 66227, Note_on_c, 0, 79, 0
1, 66240, Note_on_c, 0, 72, 80
1, 66240, Note_on_c, 0, 77, 80
1, 66467, Note_on_c, 0, 72, 0
1, 66467, Note_on_c, 0, 77, 0
1, 66480, Note_on_c, 0, 71, 80
1, 66480, Note_on_c, 0, 76, 80
1, 66707, Note_on_c, 0, 71, 0
1, 66707, Note_on_c, 0, 76, 0
1, 66720, Note_on_c, 0, 69, 80
1, 66720, Note_on_c, 0, 74, 80
1, 66947, Note_on_c, 0, 69, 0
1, 66947, Note_on_c, 0, 74, 0
1, 66960, Note_on_c, 0, 67, 80
1, 66960, Note_on_c, 0, 72, 80
1, 67415, Note_on_c, 0, 67, 0
1, 67415, Note_on_c, 0, 72, 0
1, 67440, Note_on_c, 0, 67, 80
1, 67440, Note_on_c, 0, 72, 80
1, 67667, Note_on_c, 0, 67, 0
1, 67667, Note_on_c, 0, 72, 0
1, 67920, Note_on_c, 0, 67, 80
1, 67920, Note_on_c, 0, 72, 80
1, 68039, Note_on_c, 0, 67, 0
1, 68039, Note_on_c, 0, 72, 0
1, 68160, Note_on_c, 0, 64, 96
1, 68160, Note_on_c, 0, 71, 96
1, 68387, Note_on_c, 0, 64, 0
1, 68387, Note_on_c, 0, 71, 0
1, 68400, Note_on_c, 0, 67, 80
1, 68400, Note_on_c, 0, 72, 80
1, 68627, Note_on_c, 0, 67, 0
1, 68627, Note_on_c, 0, 72, 0
1, 68640, Note_on_c, 0, 72, 80
1, 69095, Note_on_c, 0, 72, 0
1, 69120, Note_on_c, 0, 71, 80
1, 69176, Note_on_c, 0, 71, 0
1, 69180, Note_on_c, 0, 72, 80
1, 69236, Note_on_c, 0, 72, 0
1, 69240, Note_on_c, 0, 71, 80
1, 69809, Note_on_c, 0, 71, 0
1, 69840, Note_on_c, 0, 72, 80
1, 70067, Note_on_c, 0, 72, 0
1, 70080, Note_on_c, 0, 74, 80
1, 70535, Note_on_c, 0, 74, 0
1, 70560, Note_on_c, 0, 72, 80
1, 70616, Note_on_c, 0, 72, 0
1, 70620, Note_on_c, 0, 74, 80
1, 70676, Note_on_c, 0, 74, 0
1, 70680, Note_on_c, 0, 72, 80
1, 71021, Note_on_c, 0, 72, 0
1, 71040, Note_on_c, 0, 71, 80
1, 71495, Note_on_c, 0, 71, 0
1, 71520, Note_on_c, 0, 67, 80
1, 71975, Note_on_c, 0, 67, 0
1, 72000, Note_on_c, 0, 65, 80
1, 72683, Note_on_c, 0, 65, 0
1, 72720, Note_on_c, 0, 67, 80
1, 72947, Note_on_c, 0, 67, 0
1, 72960, Note_on_c, 0, 69, 80
1, 73415, Note_on_c, 0, 69, 0
1, 73440, Note_on_c, 0, 67, 80
1, 73895, Note_on_c, 0, 67, 0
1, 73920, Note_on_c, 0, 64, 80
1, 74375, Note_on_c, 0, 64, 0
1, 74400, Note_on_c, 0, 67, 80
1, 74855, Note_on_c, 0, 67, 0
1, 74880, Note_on_c, 0, 74, 68
1, 75107, Note_on_c, 0, 74, 0
1, 75120, Note_on_c, 0, 67, 80
1, 75120, Note_on_c, 0, 71, 80
1, 75347, Note_on_c, 0, 67, 0
1, 75347, Note_on_c, 0, 71, 0
1, 75360, Note_on_c, 0, 67, 80
1, 75360, Note_on_c, 0, 74, 80
1, 75587, Note_on_c, 0, 67, 0
1, 75587, Note_on_c, 0, 74, 0
1, 75600, Note_on_c, 0, 74, 80
1, 75600, Note_on_c, 0, 79, 80
1, 76055, Note_on_c, 0, 74, 0
1, 76055, Note_on_c, 0, 79, 0
1, 76080, Note_on_c, 0, 74, 80
1, 76080, Note_on_c, 0, 79, 80
1, 76307, Note_on_c, 0, 74, 0
1, 76307, Note_on_c, 0, 79, 0
1, 76560, Note_on_c, 0, 74, 80
1, 76560, Note_on_c, 0, 79, 80
1, 76679, Note_on_c, 0, 74, 0
1, 76679, Note_on_c, 0, 79, 0
1, 76800, Note_on_c, 0, 76, 96
1, 76800, Note_on_c, 0, 81, 96
1, 77027, Note_on_c, 0, 76, 0
1, 77027, Note_on_c, 0, 81, 0
1, 77040, Note_on_c, 0, 74, 80
1, 77040, Note_on_c, 0, 79, 80
1, 77267, Note_on_c, 0, 74, 0
1, 77267, Note_on_c, 0, 79, 0
1, 77280, Note_on_c, 0, 69, 80
1, 77280, Note_on_c, 0, 74, 80
1, 77507, Note_on_c, 0, 69, 0
1, 77507, Note_on_c, 0, 74, 0
1, 77520, Note_on_c, 0, 74, 80
1, 77520, Note_on_c, 0, 79, 80
1, 77747, Note_on_c, 0, 74, 0
1, 77747, Note_on_c, 0, 79, 0
1, 77760, Note_on_c, 0, 72, 80
1, 77760, Note_on_c, 0, 77, 80
1, 77987, Note_on_c, 0, 72, 0
1, 77987, Note_on_c, 0, 77, 0
1, 78000, Note_on_c, 0, 71, 80
1, 78000, Note_on_c, 0, 76, 80
1, 78227, Note_on_c, 0, 71, 0
1, 78227, Note_on_c, 0, 76, 0
1, 78240, Note_on_c, 0, 69, 80
1, 78240, Note_on_c, 0, 74, 80
1, 78467, Note_on_c, 0, 69, 0
1, 78467, Note_on_c, 0, 74, 0
1, 78480, Note_on_c, 0, 67, 80
1, 78480, Note_on_c, 0, 72, 80
1, 78935, Note_on_c, 0, 67, 0
1, 78935, Note_on_c, 0, 72, 0
1, 78960, Note_on_c, 0, 67, 80
1, 78960, Note_on_c, 0, 72, 80
1, 79187, Note_on_c, 0, 67, 0
1, 79187, Note_on_c, 0, 72, 0
1, 79440, Note_on_c, 0, 67, 80
1, 79440, Note_on_c, 0, 72, 80
1, 79559, Note_on_c, 0, 67, 0
1, 79559, Note_on_c, 0, 72, 0
1, 79680, Note_on_c, 0, 64, 96
1, 79680, Note_on_c, 0, 71, 96
1, 79907, Note_on_c, 0, 64, 0
1, 79907, Note_on_c, 0, 71, 0
1, 79920, Note_on_c, 0, 67, 80
1, 79920, Note_on_c, 0, 72, 80
1, 80147, Note_on_c, 0, 67, 0
1, 80147, Note_on_c, 0, 72, 0
1, 80160, Note_on_c, 0, 69, 80
1, 80615, Note_on_c, 0, 69, 0
1, 80640, Note_on_c, 0, 71, 80
1, 80696, Note_on_c, 0, 71, 0
1, 80700, Note_on_c, 0, 72, 80
1, 80756, Note_on_c, 0, 72, 0
1, 80760, Note_on_c, 0, 71, 80
1, 81329, Note_on_c, 0, 71, 0
1, 81360, Note_on_c, 0, 72, 80
1, 81587, Note_on_c, 0, 72, 0
1, 81600, Note_on_c, 0, 74, 80
1, 82055, Note_on_c, 0, 74, 0
1, 82080, Note_on_c, 0, 72, 80
1, 82136, Note_on_c, 0, 72, 0
1, 82140, Note_on_c, 0, 74, 80
1, 82196, Note_on_c, 0, 74, 0
1, 82200, Note_on_c, 0, 72, 80
1, 82541, Note_on_c, 0, 72, 0
1, 82560, Note_on_c, 0, 71, 80
1, 83015, Note_on_c, 0, 71, 0
1, 83040, Note_on_c, 0, 67, 80
1, 83495, Note_on_c, 0, 67, 0
1, 83520, Note_on_c, 0, 69, 80
1, 84431, Note_on_c, 0, 69, 0
1, 84480, Note_on_c, 0, 67, 80
1, 84707, Note_on_c, 0, 67, 0
1, 84720, Note_on_c, 0, 65, 80
1, 84947, Note_on_c, 0, 65, 0
1, 84960, Note_on_c, 0, 64, 80
1, 85415, Note_on_c, 0, 64, 0
1, 85440, Note_on_c, 0, 65, 80
1, 85895, Note_on_c, 0, 65, 0
1, 85920, Note_on_c, 0, 69, 80
1, 86375, Note_on_c, 0, 69, 0
1, 86400, Note_on_c, 0, 74, 68
1, 86400, Note_on_c, 0, 67, 80
1, 86460, Note_on_c, 0, 76, 68
1, 86516, Note_on_c, 0, 76, 0
1, 86520, Note_on_c, 0, 74, 0
1, 86520, Note_on_c, 0, 74, 68
1, 86627, Note_on_c, 0, 67, 0
1, 86639, Note_on_c, 0, 74, 0
1, 86640, Note_on_c, 0, 67, 80
1, 86640, Note_on_c, 0, 71, 80
1, 86867, Note_on_c, 0, 67, 0
1, 86867, Note_on_c, 0, 71, 0
1, 86880, Note_on_c, 0, 67, 80
1, 86880, Note_on_c, 0, 74, 80
1, 87107, Note_on_c, 0, 67, 0
1, 87107, Note_on_c, 0, 74, 0
1, 87120, Note_on_c, 0, 74, 80
1, 87120, Note_on_c, 0, 79, 80
1, 87575, Note_on_c, 0, 74, 0
1, 87575, Note_on_c, 0, 79, 0
1, 87600, Note_on_c, 0, 74, 80
1, 87600, Note_on_c, 0, 79, 80
1, 87827, Note_on_c, 0, 74, 0
1, 87827, Note_on_c, 0, 79, 0
1, 88080, Note_on_c, 0, 74, 80
1, 88080, Note_on_c, 0, 79, 80
1, 88199, Note_on_c, 0, 74, 0
1, 88199, Note_on_c, 0, 79, 0
1, 88320, Note_on_c, 0, 76, 96
1, 88320, Note_on_c, 0, 81, 96
1, 88547, Note_on_c, 0, 76, 0
1, 88547, Note_on_c, 0, 81, 0
1, 88560, Note_on_c, 0, 74, 80
1, 88560, Note_on_c, 0, 79, 80
1, 88787, Note_on_c, 0, 74, 0
1, 88787, Note_on_c, 0, 79, 0
1, 88800, Note_on_c, 0, 69, 80
1, 88800, Note_on_c, 0, 74, 80
1, 89027, Note_on_c, 0, 69, 0
1, 89027, Note_on_c, 0, 74, 0
1, 89040, Note_on_c, 0, 74, 80
1, 89040, Note_on_c, 0, 79, 80
1, 89267, Note_on_c, 0, 74, 0
1, 89267, Note_on_c, 0, 79, 0
1, 89280, Note_on_c, 0, 72, 80
1, 89280, Note_on_c, 0, 77, 80
1, 89507, Note_on_c, 0, 72, 0
1, 89507, Note_on_c, 0, 77, 0
1, 89520, Note_on_c, 0, 71, 80
1, 89520, Note_on_c, 0, 76, 80
1, 89747, Note_on_c, 0, 71, 0
1, 89747, Note_on_c, 0, 76, 0
1, 89760, Note_on_c, 0, 69, 80
1, 89760, Note_on_c, 0, 74, 80
1, 89987, Note_on_c, 0, 69, 0
1, 89987, Note_on_c, 0, 74, 0
1, 90000, Note_on_c, 0, 67, 80
1, 90000, Note_on_c, 0, 72, 80
1, 90455, Note_on_c, 0, 67, 0
1, 90455, Note_on_c, 0, 72, 0
1, 90480, Note_on_c, 0, 67, 80
1, 90480, Note_on_c, 0, 72, 80
1, 90707, Note_on_c, 0, 67, 0
1, 90707, Note_on_c, 0, 72, 0
1, 90960, Note_on_c, 0, 67, 80
1, 90960, Note_on_c, 0, 72, 80
1, 91079, Note_on_c, 0, 67, 0
1, 91079, Note_on_c, 0, 72, 0
1, 91200, Note_on_c, 0, 64, 96
1, 91200, Note_on_c, 0, 71, 96
1, 91427, Note_on_c, 0, 64, 0
1, 91427, Note_on_c, 0, 71, 0
1, 91440, Note_on_c, 0, 67, 80
1, 91440, Note_on_c, 0, 72, 80
1, 91895, Note_on_c, 0, 67, 0
1, 91895, Note_on_c, 0, 72, 0
1, 91920, Note_on_c, 0, 67, 80
1, 91920, Note_on_c, 0, 72, 80
1, 92147, Note_on_c, 0, 67, 0
1, 92147, Note_on_c, 0, 72, 0
1, 92160, Note_on_c, 0, 67, 80
1, 92160, Note_on_c, 0, 72, 80
1, 92387, Note_on_c, 0, 67, 0
1, 92387, Note_on_c, 0, 72, 0
1, 92400, Note_on_c, 0, 60, 80
1, 92627, Note_on_c, 0, 60, 0
1, 92640, Note_on_c, 0, 67, 80
1, 92640, Note_on_c, 0, 72, 80
1, 92867, Note_on_c, 0, 67, 0
1, 92867, Note_on_c, 0, 72, 0
1, 92880, Note_on_c, 0, 60, 80
1, 93107, Note_on_c, 0, 60, 0
1, 93120, Note_on_c, 0, 67, 80
1, 93120, Note_on_c, 0, 72, 80
1, 93347, Note_on_c, 0, 67, 0
1, 93347, Note_on_c, 0, 72, 0
1, 93360, Note_on_c, 0, 60, 80
1, 93587, Note_on_c, 0, 60, 0
1, 93600, Note_on_c, 0, 69, 80
1, 93600, Note_on_c, 0, 72, 80
1, 93827, Note_on_c, 0, 69, 0
1, 93827, Note_on_c, 0, 72, 0
1, 93840, Note_on_c, 0, 60, 80
1, 94067, Note_on_c, 0, 60, 0
1, 94080, Note_on_c, 0, 69, 80
1, 94080, Note_on_c, 0, 72, 80
1, 94307, Note_on_c, 0, 69, 0
1, 94307, Note_on_c, 0, 72, 0
1, 94320, Note_on_c, 0, 60, 80
1, 94547, Note_on_c, 0, 60, 0
1, 94560, Note_on_c, 0, 69, 80
1, 94560, Note_on_c, 0, 72, 80
1, 94787, Note_on_c, 0, 69, 0
1, 94787, Note_on_c, 0, 72, 0
1, 94800, Note_on_c, 0, 60, 80
1, 95027, Note_on_c, 0, 60, 0
1, 95040, Note_on_c, 0, 67, 80
1, 95040, Note_on_c, 0, 71, 80
1, 95267, Note_on_c, 0, 67, 0
1, 95267, Note_on_c, 0, 71, 0
1, 95280, Note_on_c, 0, 59, 80
1, 95507, Note_on_c, 0, 59, 0
1, 95520, Note_on_c, 0, 67, 80
1, 95520, Note_on_c, 0, 71, 80
1, 95747, Note_on_c, 0, 67, 0
1, 95747, Note_on_c, 0, 71, 0
1, 95760, Note_on_c, 0, 59, 80
1, 95987, Note_on_c, 0, 59, 0
1, 96000, Note_on_c, 0, 67, 80
1, 96000, Note_on_c, 0, 71, 80
1, 96227, Note_on_c, 0, 67, 0
1, 96227, Note_on_c, 0, 71, 0
1, 96240, Note_on_c, 0, 59, 80
1, 96467, Note_on_c, 0, 59, 0
1, 96480, Note_on_c, 0, 65, 80
1, 96480, Note_on_c, 0, 69, 80
1, 96707, Note_on_c, 0, 65, 0
1, 96707, Note_on_c, 0, 69, 0
1, 96720, Note_on_c, 0, 57, 80
1, 96947, Note_on_c, 0, 57, 0
1, 96960, Note_on_c, 0, 65, 80
1, 96960, Note_on_c, 0, 69, 80
1, 97187, Note_on_c, 0, 65, 0
1, 97187, Note_on_c, 0, 69, 0
1, 97200, Note_on_c, 0, 57, 80
1, 97427, Note_on_c, 0, 57, 0
1, 97440, Note_on_c, 0, 64, 80
1, 97440, Note_on_c, 0, 67, 80
1, 97667, Note_on_c, 0, 64, 0
1, 97667, Note_on_c, 0, 67, 0
1, 97680, Note_on_c, 0, 55, 80
1, 97907, Note_on_c, 0, 55, 0
1, 97920, Note_on_c, 0, 67, 80
1, 97920, Note_on_c, 0, 72, 80
1, 98147, Note_on_c, 0, 67, 0
1, 98147, Note_on_c, 0, 72, 0
1, 98160, Note_on_c, 0, 60, 80
1, 98387, Note_on_c, 0, 60, 0
1, 98400, Note_on_c, 0, 67, 80
1, 98400, Note_on_c, 0, 72, 80
1, 98627, Note_on_c, 0, 67, 0
1, 98627, Note_on_c, 0, 72, 0
1, 98640, Note_on_c, 0, 60, 80
1, 98867, Note_on_c, 0, 60, 0
1, 98880, Note_on_c, 0, 67, 80
1, 98880, Note_on_c, 0, 72, 80
1, 99107, Note_on_c, 0, 67, 0
1, 99107, Note_on_c, 0, 72, 0
1, 99120, Note_on_c, 0, 60, 80
1, 99347, Note_on_c, 0, 60, 0
1, 99360, Note_on_c, 0, 69, 80
1, 99360, Note_on_c, 0, 72, 80
1, 99587, Note_on_c, 0, 69, 0
1, 99587, Note_on_c, 0, 72, 0
1, 99600, Note_on_c, 0, 60, 80
1, 99827, Note_on_c, 0, 60, 0
1, 99840, Note_on_c, 0, 69, 80
1, 99840, Note_on_c, 0, 72, 80
1, 100067, Note_on_c, 0, 69, 0
1, 100067, Note_on_c, 0, 72, 0
1, 100080, Note_on_c, 0, 60, 80
1, 100307, Note_on_c, 0, 60, 0
1, 100320, Note_on_c, 0, 69, 80
1, 100320, Note_on_c, 0, 72, 80
1, 100547, Note_on_c, 0, 69, 0
1, 100547, Note_on_c, 0, 72, 0
1, 100560, Note_on_c, 0, 60, 80
1, 100787, Note_on_c, 0, 60, 0
1, 100800, Note_on_c, 0, 67, 80
1, 100800, Note_on_c, 0, 71, 80
1, 101027, Note_on_c, 0, 67, 0
1, 101027, Note_on_c, 0, 71, 0
1, 101040, Note_on_c, 0, 59, 80
1, 101267, Note_on_c, 0, 59, 0
1, 101280, Note_on_c, 0, 67, 80
1, 101280, Note_on_c, 0, 71, 80
1, 101507, Note_on_c, 0, 67, 0
1, 101507, Note_on_c, 0, 71, 0
1, 101520, Note_on_c, 0, 59, 80
1, 101747, Note_on_c, 0, 59, 0
1, 101760, Note_on_c, 0, 67, 80
1, 101760, Note_on_c, 0, 71, 80
1, 101987, Note_on_c, 0, 67, 0
1, 101987, Note_on_c, 0, 71, 0
1, 102000, Note_on_c, 0, 59, 80
1, 102227, Note_on_c, 0, 59, 0
1, 102240, Note_on_c, 0, 65, 80
1, 102240, Note_on_c, 0, 69, 80
1, 102467, Note_on_c, 0, 65, 0
1, 102467, Note_on_c, 0, 69, 0
1, 102480, Note_on_c, 0, 57, 80
1, 102707, Note_on_c, 0, 57, 0
1, 102720, Note_on_c, 0, 65, 80
1, 102720, Note_on_c, 0, 69, 80
1, 102947, Note_on_c, 0, 65, 0
1, 102947, Note_on_c, 0, 69, 0
1, 102960, Note_on_c, 0, 57, 80
1, 103187, Note_on_c, 0, 57, 0
1, 103200, Note_on_c, 0, 64, 80
1, 103200, Note_on_c, 0, 67, 80
1, 103439, Note_on_c, 0, 64, 0
1, 103439, Note_on_c, 0, 67, 0
1, 103680, Note_on_c, 0, 77, 80
1, 103755, Note_on_c, 0, 77, 0
1, 103760, Note_on_c, 0, 79, 80
1, 104367, Note_on_c, 0, 79, 0
1, 104400, Note_on_c, 0, 77, 80
1, 104627, Note_on_c, 0, 77, 0
1, 104640, Note_on_c, 0, 76, 80
1, 105095, Note_on_c, 0, 76, 0
1, 105120, Note_on_c, 0, 72, 80
1, 105195, Note_on_c, 0, 72, 0
1, 105200, Note_on_c, 0, 74, 80
1, 105579, Note_on_c, 0, 74, 0
1, 105600, Note_on_c, 0, 72, 80
1, 106055, Note_on_c, 0, 72, 0
1, 106080, Note_on_c, 0, 74, 80
1, 106535, Note_on_c, 0, 74, 0
1, 106560, Note_on_c, 0, 71, 80
1, 107243, Note_on_c, 0, 71, 0
1, 107280, Note_on_c, 0, 69, 80
1, 107507, Note_on_c, 0, 69, 0
1, 107520, Note_on_c, 0, 67, 80
1, 107975, Note_on_c, 0, 67, 0
1, 108000, Note_on_c, 0, 65, 80
1, 108455, Note_on_c, 0, 65, 0
1, 108480, Note_on_c, 0, 67, 80
1, 108935, Note_on_c, 0, 67, 0
1, 108960, Note_on_c, 0, 69, 80
1, 109415, Note_on_c, 0, 69, 0
1, 109440, Note_on_c, 0, 67, 80
1, 109496, Note_on_c, 0, 67, 0
1, 109500, Note_on_c, 0, 69, 80
1, 109556, Note_on_c, 0, 69, 0
1, 109560, Note_on_c, 0, 67, 80
1, 109901, Note_on_c, 0, 67, 0
1, 109920, Note_on_c, 0, 64, 80
1, 109920, Note_on_c, 0, 67, 80
1, 110159, Note_on_c, 0, 64, 0
1, 110159, Note_on_c, 0, 67, 0
1, 110400, Note_on_c, 0, 64, 80
1, 110400, Note_on_c, 0, 69, 80
1, 110519, Note_on_c, 0, 64, 0
1, 110519, Note_on_c, 0, 69, 0
1, 110640, Note_on_c, 0, 64, 80
1, 110640, Note_on_c, 0, 72, 80
1, 110759, Note_on_c, 0, 64, 0
1, 110759, Note_on_c, 0, 72, 0
1, 111360, Note_on_c, 0, 69, 80
1, 111360, Note_on_c, 0, 72, 80
1, 111599, Note_on_c, 0, 69, 0
1, 111599, Note_on_c, 0, 72, 0
1, 111840, Note_on_c, 0, 74, 80
1, 112079, Note_on_c, 0, 74, 0
1, 112800, Note_on_c, 0, 62, 80
1, 112800, Note_on_c, 0, 71, 80
1, 113039, Note_on_c, 0, 62, 0
1, 113039, Note_on_c, 0, 71, 0
1, 113280, Note_on_c, 0, 62, 80
1, 113280, Note_on_c, 0, 67, 80
1, 113399, Note_on_c, 0, 62, 0
1, 113399, Note_on_c, 0, 67, 0
1, 113520, Note_on_c, 0, 62, 80
1, 113520, Note_on_c, 0, 69, 80
1, 113639, Note_on_c, 0, 62, 0
1, 113639, Note_on_c, 0, 69, 0
1, 114240, Note_on_c, 0, 64, 80
1, 114240, Note_on_c, 0, 69, 80
1, 114479, Note_on_c, 0, 64, 0
1, 114479, Note_on_c, 0, 69, 0
1, 114720, Note_on_c, 0, 64, 80
1, 114720, Note_on_c, 0, 67, 80
1, 114959, Note_on_c, 0, 64, 0
1, 114959, Note_on_c, 0, 67, 0
1, 115200, Note_on_c, 0, 77, 80
1, 115275, Note_on_c, 0, 77, 0
1, 115280, Note_on_c, 0, 79, 80
1, 115887, Note_on_c, 0, 79, 0
1, 115920, Note_on_c, 0, 77, 80
1, 116147, Note_on_c, 0, 77, 0
1, 116160, Note_on_c, 0, 76, 80
1, 116615, Note_on_c, 0, 76, 0
1, 116640, Note_on_c, 0, 72, 80
1, 116715, Note_on_c, 0, 72, 0
1, 116720, Note_on_c, 0, 74, 80
1, 117099, Note_on_c, 0, 74, 0
1, 117120, Note_on_c, 0, 72, 80
1, 117575, Note_on_c, 0, 72, 0
1, 117600, Note_on_c, 0, 74, 80
1, 118055, Note_on_c, 0, 74, 0
1, 118080, Note_on_c, 0, 71, 80
1, 118763, Note_on_c, 0, 71, 0
1, 118800, Note_on_c, 0, 69, 80
1, 119027, Note_on_c, 0, 69, 0
1, 119040, Note_on_c, 0, 67, 80
1, 119495, Note_on_c, 0, 67, 0
1, 119520, Note_on_c, 0, 69, 80
1, 119975, Note_on_c, 0, 69, 0
1, 120000, Note_on_c, 0, 72, 80
1, 120455, Note_on_c, 0, 72, 0
1, 120480, Note_on_c, 0, 74, 80
1, 120935, Note_on_c, 0, 74, 0
1, 120960, Note_on_c, 0, 72, 80
1, 121016, Note_on_c, 0, 72, 0
1, 121020, Note_on_c, 0, 74, 80
1, 121076, Note_on_c, 0, 74, 0
1, 121080, Note_on_c, 0, 72, 80
1, 121421, Note_on_c, 0, 72, 0
1, 121440, Note_on_c, 0, 64, 80
1, 121440, Note_on_c, 0, 67, 80
1, 121679, Note_on_c, 0, 64, 0
1, 121679, Note_on_c, 0, 67, 0
1, 121920, Note_on_c, 0, 64, 80
1, 121920, Note_on_c, 0, 69, 80
1, 122039, Note_on_c, 0, 64, 0
1, 122039, Note_on_c, 0, 69, 0
1, 122160, Note_on_c, 0, 64, 80
1, 122160, Note_on_c, 0, 72, 80
1, 122279, Note_on_c, 0, 64, 0
1, 122279, Note_on_c, 0, 72, 0
1, 122880, Note_on_c, 0, 69, 80
1, 122880, Note_on_c, 0, 72, 80
1, 123119, Note_on_c, 0, 69, 0
1, 123119, Note_on_c, 0, 72, 0
1, 123360, Note_on_c, 0, 74, 80
1, 123599, Note_on_c, 0, 74, 0
1, 124320, Note_on_c, 0, 62, 80
1, 124320, Note_on_c, 0, 71, 80
1, 124559, Note_on_c, 0, 62, 0
1, 124559, Note_on_c, 0, 71, 0
1, 124800, Note_on_c, 0, 62, 80
1, 124800, Note_on_c, 0, 67, 80
1, 124919, Note_on_c, 0, 62, 0
1, 124919, Note_on_c, 0, 67, 0
1, 125040, Note_on_c, 0, 62, 80
1, 125040, Note_on_c, 0, 69, 80
1, 125159, Note_on_c, 0, 62, 0
1, 125159, Note_on_c, 0, 69, 0
1, 125760, Note_on_c, 0, 64, 80
1, 125760, Note_on_c, 0, 69, 80
1, 125999, Note_on_c, 0, 64, 0
1, 125999, Note_on_c, 0, 69, 0
1, 126240, Note_on_c, 0, 64, 80
1, 126240, Note_on_c, 0, 67, 80
1, 126479, Note_on_c, 0, 64, 0
1, 126479, Note_on_c, 0, 67, 0
1, 126720, Note_on_c, 0, 77, 80
1, 126795, Note_on_c, 0, 77, 0
1, 126800, Note_on_c, 0, 79, 80
1, 127407, Note_on_c, 0, 79, 0
1, 127440, Note_on_c, 0, 77, 80
1, 127667, Note_on_c, 0, 77, 0
1, 127680, Note_on_c, 0, 76, 80
1, 128135, Note_on_c, 0, 76, 0
1, 128160, Note_on_c, 0, 72, 80
1, 128235, Note_on_c, 0, 72, 0
1, 128240, Note_on_c, 0, 74, 80
1, 128619, Note_on_c, 0, 74, 0
1, 128640, Note_on_c, 0, 72, 80
1, 129095, Note_on_c, 0, 72, 0
1, 129120, Note_on_c, 0, 74, 80
1, 129575, Note_on_c, 0, 74, 0
1, 129600, Note_on_c, 0, 71, 80
1, 130283, Note_on_c, 0, 71, 0
1, 130320, Note_on_c, 0, 69, 80
1, 130547, Note_on_c, 0, 69, 0
1, 130560, Note_on_c, 0, 67, 80
1, 131015, Note_on_c, 0, 67, 0
1, 131040, Note_on_c, 0, 65, 80
1, 131495, Note_on_c, 0, 65, 0
1, 131520, Note_on_c, 0, 64, 80
1, 131975, Note_on_c, 0, 64, 0
1, 132000, Note_on_c, 0, 65, 80
1, 132455, Note_on_c, 0, 65, 0
1, 132480, Note_on_c, 0, 67, 80
1, 132935, Note_on_c, 0, 67, 0
1, 132960, Note_on_c, 0, 64, 80
1, 132960, Note_on_c, 0, 67, 80
1, 133199, Note_on_c, 0, 64, 0
1, 133199, Note_on_c, 0, 67, 0
1, 133440, Note_on_c, 0, 64, 80
1, 133440, Note_on_c, 0, 69, 80
1, 133559, Note_on_c, 0, 64, 0
1, 133559, Note_on_c, 0, 69, 0
1, 133680, Note_on_c, 0, 64, 80
1, 133680, Note_on_c, 0, 72, 80
1, 133799, Note_on_c, 0, 64, 0
1, 133799, Note_on_c, 0, 72, 0
1, 134400, Note_on_c, 0, 69, 80
1, 134400, Note_on_c, 0, 72, 80
1, 134639, Note_on_c, 0, 69, 0
1, 134639, Note_on_c, 0, 72, 0
1, 134880, Note_on_c, 0, 69, 80
1, 134880, Note_on_c, 0, 74, 80
1, 135119, Note_on_c, 0, 69, 0
1, 135119, Note_on_c, 0, 74, 0
1, 135840, Note_on_c, 0, 62, 80
1, 135840, Note_on_c, 0, 71, 80
1, 136079, Note_on_c, 0, 62, 0
1, 136079, Note_on_c, 0, 71, 0
1, 136320, Note_on_c, 0, 62, 80
1, 136320, Note_on_c, 0, 67, 80
1, 136439, Note_on_c, 0, 62, 0
1, 136439, Note_on_c, 0, 67, 0
1, 136560, Note_on_c, 0, 62, 80
1, 136560, Note_on_c, 0, 69, 80
1, 136679, Note_on_c, 0, 62, 0
1, 136679, Note_on_c, 0, 69, 0
1, 137280, Note_on_c, 0, 64, 80
1, 137280, Note_on_c, 0, 69, 80
1, 137519, Note_on_c, 0, 64, 0
1, 137519, Note_on_c, 0, 69, 0
1, 137760, Note_on_c, 0, 64, 80
1, 137760, Note_on_c, 0, 67, 80
1, 137999, Note_on_c, 0, 64, 0
1, 137999, Note_on_c, 0, 67, 0
1, 138240, Note_on_c, 0, 77, 80
1, 138315, Note_on_c, 0, 77, 0
1, 138320, Note_on_c, 0, 79, 80
1, 138927, Note_on_c, 0, 79, 0
1, 138960, Note_on_c, 0, 77, 80
1, 139187, Note_on_c, 0, 77, 0
1, 139200, Note_on_c, 0, 76, 80
1, 139655, Note_on_c, 0, 76, 0
1, 139680, Note_on_c, 0, 72, 80
1, 139755, Note_on_c, 0, 72, 0
1, 139760, Note_on_c, 0, 74, 80
1, 140139, Note_on_c, 0, 74, 0
1, 140160, Note_on_c, 0, 72, 80
1, 140615, Note_on_c, 0, 72, 0
1, 140640, Note_on_c, 0, 74, 80
1, 141095, Note_on_c, 0, 74, 0
1, 141120, Note_on_c, 0, 71, 80
1, 141803, Note_on_c, 0, 71, 0
1, 141840, Note_on_c, 0, 69, 80
1, 142067, Note_on_c, 0, 69, 0
1, 142080, Note_on_c, 0, 67, 80
1, 142535, Note_on_c, 0, 67, 0
1, 142560, Note_on_c, 0, 69, 80
1, 142560, Note_on_c, 0, 77, 80
1, 143015, Note_on_c, 0, 69, 0
1, 143015, Note_on_c, 0, 77, 0
1, 143040, Note_on_c, 0, 72, 80
1, 143040, Note_on_c, 0, 76, 80
1, 143495, Note_on_c, 0, 72, 0
1, 143495, Note_on_c, 0, 76, 0
1, 143520, Note_on_c, 0, 69, 80
1, 143520, Note_on_c, 0, 74, 80
1, 143975, Note_on_c, 0, 69, 0
1, 143975, Note_on_c, 0, 74, 0
1, 144000, Note_on_c, 0, 67, 80
1, 144000, Note_on_c, 0, 72, 80
1, 144455, Note_on_c, 0, 67, 0
1, 144455, Note_on_c, 0, 72, 0
1, 144480, Note_on_c, 0, 64, 80
1, 144480, Note_on_c, 0, 67, 80
1, 144719, Note_on_c, 0, 64, 0
1, 144719, Note_on_c, 0, 67, 0
1, 144960, Note_on_c, 0, 64, 80
1, 144960, Note_on_c, 0, 69, 80
1, 145079, Note_on_c, 0, 64, 0
1, 145079, Note_on_c, 0, 69, 0
1, 145200, Note_on_c, 0, 64, 80
1, 145200, Note_on_c, 0, 72, 80
1, 145319, Note_on_c, 0, 64, 0
1, 145319, Note_on_c, 0, 72, 0
1, 145920, Note_on_c, 0, 69, 80
1, 145920, Note_on_c, 0, 72, 80
1, 146159, Note_on_c, 0, 69, 0
1, 146159, Note_on_c, 0, 72, 0
1, 146400, Note_on_c, 0, 69, 80
1, 146400, Note_on_c, 0, 74, 80
1, 146639, Note_on_c, 0, 69, 0
1, 146639, Note_on_c, 0, 74, 0
1, 147360, Note_on_c, 0, 62, 80
1, 147360, Note_on_c, 0, 71, 80
1, 147599, Note_on_c, 0, 62, 0
1, 147599, Note_on_c, 0, 71, 0
1, 147840, Note_on_c, 0, 62, 80
1, 147840, Note_on_c, 0, 67, 80
1, 147959, Note_on_c, 0, 62, 0
1, 147959, Note_on_c, 0, 67, 0
1, 148080, Note_on_c, 0, 62, 80
1, 148080, Note_on_c, 0, 69, 80
1, 148199, Note_on_c, 0, 62, 0
1, 148199, Note_on_c, 0, 69, 0
1, 148800, Note_on_c, 0, 64, 80
1, 148800, Note_on_c, 0, 69, 80
1, 149039, Note_on_c, 0, 64, 0
1, 149039, Note_on_c, 0, 69, 0
1, 149280, Note_on_c, 0, 64, 80
1, 149280, Note_on_c, 0, 67, 80
1, 149519, Note_on_c, 0, 64, 0
1, 149519, Note_on_c, 0, 67, 0
1, 149760, Note_on_c, 0, 71, 80
1, 149816, Note_on_c, 0, 71, 0
1, 149820, Note_on_c, 0, 72, 80
1, 149876, Note_on_c, 0, 72, 0
1, 149880, Note_on_c, 0, 71, 80
1, 150449, Note_on_c, 0, 71, 0
1, 150480, Note_on_c, 0, 72, 80
1, 150707, Note_on_c, 0, 72, 0
1, 150720, Note_on_c, 0, 74, 80
1, 151175, Note_on_c, 0, 74, 0
1, 151200, Note_on_c, 0, 72, 80
1, 151256, Note_on_c, 0, 72, 0
1, 151260, Note_on_c, 0, 74, 80
1, 151316, Note_on_c, 0, 74, 0
1, 151320, Note_on_c, 0, 72, 80
1, 151661, Note_on_c, 0, 72, 0
1, 151680, Note_on_c, 0, 71, 80
1, 152135, Note_on_c, 0, 71, 0
1, 152160, Note_on_c, 0, 67, 80
1, 152615, Note_on_c, 0, 67, 0
1, 152640, Note_on_c, 0, 65, 80
1, 153323, Note_on_c, 0, 65, 0
1, 153360, Note_on_c, 0, 67, 80
1, 153587, Note_on_c, 0, 67, 0
1, 153600, Note_on_c, 0, 69, 80
1, 154055, Note_on_c, 0, 69, 0
1, 154080, Note_on_c, 0, 67, 80
1, 154535, Note_on_c, 0, 67, 0
1, 154560, Note_on_c, 0, 64, 80
1, 155015, Note_on_c, 0, 64, 0
1, 155040, Note_on_c, 0, 67, 80
1, 155495, Note_on_c, 0, 67, 0
1, 155520, Note_on_c, 0, 74, 80
1, 155520, Note_on_c, 0, 62, 80
1, 155759, Note_on_c, 0, 74, 0
1, 155760, Note_on_c, 0, 67, 80
1, 155760, Note_on_c, 0, 71, 80
1, 155975, Note_on_c, 0, 62, 0
1, 155987, Note_on_c, 0, 67, 0
1, 155987, Note_on_c, 0, 71, 0
1, 156000, Note_on_c, 0, 67, 80
1, 156000, Note_on_c, 0, 74, 80
1, 156227, Note_on_c, 0, 67, 0
1, 156227, Note_on_c, 0, 74, 0
1, 156240, Note_on_c, 0, 74, 80
1, 156240, Note_on_c, 0, 79, 80
1, 156695, Note_on_c, 0, 74, 0
1, 156695, Note_on_c, 0, 79, 0
1, 156720, Note_on_c, 0, 74, 80
1, 156720, Note_on_c, 0, 79, 80
1, 156947, Note_on_c, 0, 74, 0
1, 156947, Note_on_c, 0, 79, 0
1, 157200, Note_on_c, 0, 74, 80
1, 157200, Note_on_c, 0, 79, 80
1, 157319, Note_on_c, 0, 74, 0
1, 157319, Note_on_c, 0, 79, 0
1, 157440, Note_on_c, 0, 76, 80
1, 157440, Note_on_c, 0, 81, 80
1, 157667, Note_on_c, 0, 76, 0
1, 157667, Note_on_c, 0, 81, 0
1, 157680, Note_on_c, 0, 74, 80
1, 157680, Note_on_c, 0, 79, 80
1, 157907, Note_on_c, 0, 74, 0
1, 157907, Note_on_c, 0, 79, 0
1, 157920, Note_on_c, 0, 74, 80
1, 158147, Note_on_c, 0, 74, 0
1, 158160, Note_on_c, 0, 74, 80
1, 158160, Note_on_c, 0, 79, 80
1, 158387, Note_on_c, 0, 74, 0
1, 158387, Note_on_c, 0, 79, 0
1, 158400, Note_on_c, 0, 72, 80
1, 158400, Note_on_c, 0, 77, 80
1, 158627, Note_on_c, 0, 72, 0
1, 158627, Note_on_c, 0, 77, 0
1, 158640, Note_on_c, 0, 71, 80
1, 158640, Note_on_c, 0, 76, 80
1, 158867, Note_on_c, 0, 71, 0
1, 158867, Note_on_c, 0, 76, 0
1, 158880, Note_on_c, 0, 69, 80
1, 158880, Note_on_c, 0, 74, 80
1, 159107, Note_on_c, 0, 69, 0
1, 159107, Note_on_c, 0, 74, 0
1, 159120, Note_on_c, 0, 67, 80
1, 159120, Note_on_c, 0, 72, 80
1, 159575, Note_on_c, 0, 67, 0
1, 159575, Note_on_c, 0, 72, 0
1, 159600, Note_on_c, 0, 67, 80
1, 159600, Note_on_c, 0, 72, 80
1, 159827, Note_on_c, 0, 67, 0
1, 159827, Note_on_c, 0, 72, 0
1, 160080, Note_on_c, 0, 67, 80
1, 160080, Note_on_c, 0, 72, 80
1, 160199, Note_on_c, 0, 67, 0
1, 160199, Note_on_c, 0, 72, 0
1, 160320, Note_on_c, 0, 64, 80
1, 160320, Note_on_c, 0, 71, 80
1, 160547, Note_on_c, 0, 64, 0
1, 160547, Note_on_c, 0, 71, 0
1, 160560, Note_on_c, 0, 67, 80
1, 160560, Note_on_c, 0, 72, 80
1, 160787, Note_on_c, 0, 67, 0
1, 160787, Note_on_c, 0, 72, 0
1, 160800, Note_on_c, 0, 60, 80
1, 160800, Note_on_c, 0, 72, 80
1, 161255, Note_on_c, 0, 60, 0
1, 161255, Note_on_c, 0, 72, 0
1, 161280, Note_on_c, 0, 71, 80
1, 161336, Note_on_c, 0, 71, 0
1, 161340, Note_on_c, 0, 72, 80
1, 161396, Note_on_c, 0, 72, 0
1, 161400, Note_on_c, 0, 71, 80
1, 161969, Note_on_c, 0, 71, 0
1, 162000, Note_on_c, 0, 72, 80
1, 162227, Note_on_c, 0, 72, 0
1, 162240, Note_on_c, 0, 74, 80
1, 162695, Note_on_c, 0, 74, 0
1, 162720, Note_on_c, 0, 72, 80
1, 162776, Note_on_c, 0, 72, 0
1, 162780, Note_on_c, 0, 74, 80
1, 162836, Note_on_c, 0, 74, 0
1, 162840, Note_on_c, 0, 72, 80
1, 163181, Note_on_c, 0, 72, 0
1, 163200, Note_on_c, 0, 71, 80
1, 163655, Note_on_c, 0, 71, 0
1, 163680, Note_on_c, 0, 67, 80
1, 164819, Note_on_c, 0, 67, 0
1, 164880, Note_on_c, 0, 65, 80
1, 165107, Note_on_c, 0, 65, 0
1, 165120, Note_on_c, 0, 64, 80
1, 165575, Note_on_c, 0, 64, 0
1, 165600, Note_on_c, 0, 62, 80
1, 166055, Note_on_c, 0, 62, 0
1, 166080, Note_on_c, 0, 64, 80
1, 166535, Note_on_c, 0, 64, 0
1, 166560, Note_on_c, 0, 69, 80
1, 167015, Note_on_c, 0, 69, 0
1, 167040, Note_on_c, 0, 74, 80
1, 167040, Note_on_c, 0, 67, 80
1, 167100, Note_on_c, 0, 76, 80
1, 167156, Note_on_c, 0, 76, 0
1, 167160, Note_on_c, 0, 74, 0
1, 167160, Note_on_c, 0, 74, 80
1, 167267, Note_on_c, 0, 67, 0
1, 167279, Note_on_c, 0, 74, 0
1, 167280, Note_on_c, 0, 67, 80
1, 167280, Note_on_c, 0, 71, 80
1, 167507, Note_on_c, 0, 67, 0
1, 167507, Note_on_c, 0, 71, 0
1, 167520, Note_on_c, 0, 67, 80
1, 167520, Note_on_c, 0, 74, 80
1, 167747, Note_on_c, 0, 67, 0
1, 167747, Note_on_c, 0, 74, 0
1, 167760, Note_on_c, 0, 74, 80
1, 167760, Note_on_c, 0, 79, 80
1, 168215, Note_on_c, 0, 74, 0
1, 168215, Note_on_c, 0, 79, 0
1, 168240, Note_on_c, 0, 74, 80
1, 168240, Note_on_c, 0, 79, 80
1, 168467, Note_on_c, 0, 74, 0
1, 168467, Note_on_c, 0, 79, 0
1, 168720, Note_on_c, 0, 74, 80
1, 168720, Note_on_c, 0, 79, 80
1, 168839, Note_on_c, 0, 74, 0
1, 168839, Note_on_c, 0, 79, 0
1, 168960, Note_on_c, 0, 76, 80
1, 168960, Note_on_c, 0, 81, 80
1, 169187, Note_on_c, 0, 76, 0
1, 169187, Note_on_c, 0, 81, 0
1, 169200, Note_on_c, 0, 74, 80
1, 169200, Note_on_c, 0, 79, 80
1, 169427, Note_on_c, 0, 74, 0
1, 169427, Note_on_c, 0, 79, 0
1, 169440, Note_on_c, 0, 69, 80
1, 169440, Note_on_c, 0, 74, 80
1, 169667, Note_on_c, 0, 69, 0
1, 169667, Note_on_c, 0, 74, 0
1, 169680, Note_on_c, 0, 74, 80
1, 169680, Note_on_c, 0, 79, 80
1, 169907, Note_on_c, 0, 74, 0
1, 169907, Note_on_c, 0, 79, 0
1, 169920, Note_on_c, 0, 72, 80
1, 169920, Note_on_c, 0, 77, 80
1, 170147, Note_on_c, 0, 72, 0
1, 170147, Note_on_c, 0, 77, 0
1, 170160, Note_on_c, 0, 71, 80
1, 170160, Note_on_c, 0, 76, 80
1, 170387, Note_on_c, 0, 71, 0
1, 170387, Note_on_c, 0, 76, 0
1, 170400, Note_on_c, 0, 69, 80
1, 170400, Note_on_c, 0, 74, 80
1, 170627, Note_on_c, 0, 69, 0
1, 170627, Note_on_c, 0, 74, 0
1, 170640, Note_on_c, 0, 67, 80
1, 170640, Note_on_c, 0, 72, 80
1, 171095, Note_on_c, 0, 67, 0
1, 171095, Note_on_c, 0, 72, 0
1, 171120, Note_on_c, 0, 67, 80
1, 171120, Note_on_c, 0, 72, 80
1, 171347, Note_on_c, 0, 67, 0
1, 171347, Note_on_c, 0, 72, 0
1, 171600, Note_on_c, 0, 67, 80
1, 171600, Note_on_c, 0, 72, 80
1, 171719, Note_on_c, 0, 67, 0
1, 171719, Note_on_c, 0, 72, 0
1, 171840, Note_on_c, 0, 64, 80
1, 171840, Note_on_c, 0, 71, 80
1, 172067, Note_on_c, 0, 64, 0
1, 172067, Note_on_c, 0, 71, 0
1, 172080, Note_on_c, 0, 67, 80
1, 172080, Note_on_c, 0, 72, 80
1, 172307, Note_on_c, 0, 67, 0
1, 172307, Note_on_c, 0, 72, 0
1, 172320, Note_on_c, 0, 65, 80
1, 172320, Note_on_c, 0, 72, 80
1, 172775, Note_on_c, 0, 65, 0
1, 172775, Note_on_c, 0, 72, 0
1, 172800, Note_on_c, 0, 65, 80
1, 173027, Note_on_c, 0, 65, 0
1, 173040, Note_on_c, 0, 60, 80
1, 173040, Note_on_c, 0, 65, 80
1, 173267, Note_on_c, 0, 60, 0
1, 173267, Note_on_c, 0, 65, 0
1, 173280, Note_on_c, 0, 67, 80
1, 173735, Note_on_c, 0, 67, 0
1, 173760, Note_on_c, 0, 67, 80
1, 174215, Note_on_c, 0, 67, 0
1, 174240, Note_on_c, 0, 67, 80
1, 174695, Note_on_c, 0, 67, 0
1, 174720, Note_on_c, 0, 67, 80
1, 175175, Note_on_c, 0, 67, 0
1, 175200, Note_on_c, 0, 65, 80
1, 175655, Note_on_c, 0, 65, 0
1, 175680, Note_on_c, 0, 65, 80
1, 176135, Note_on_c, 0, 65, 0
1, 176160, Note_on_c, 0, 65, 80
1, 176615, Note_on_c, 0, 65, 0
1, 176640, Note_on_c, 0, 65, 80
1, 177095, Note_on_c, 0, 65, 0
1, 177120, Note_on_c, 0, 67, 80
1, 177575, Note_on_c, 0, 67, 0
1, 177600, Note_on_c, 0, 67, 80
1, 178055, Note_on_c, 0, 67, 0
1, 178080, Note_on_c, 0, 67, 80
1, 178535, Note_on_c, 0, 67, 0
1, 178560, Note_on_c, 0, 67, 80
1, 179015, Note_on_c, 0, 67, 0
1, 179040, Note_on_c, 0, 67, 80
1, 179495, Note_on_c, 0, 67, 0
1, 179520, Note_on_c, 0, 67, 80
1, 179975, Note_on_c, 0, 67, 0
1, 180000, Note_on_c, 0, 67, 80
1, 180455, Note_on_c, 0, 67, 0
1, 180480, Note_on_c, 0, 67, 80
1, 180935, Note_on_c, 0, 67, 0
1, 180960, Note_on_c, 0, 67, 80
1, 181200, Note_on_c, 0, 74, 80
1, 181415, Note_on_c, 0, 67, 0
1, 181440, Note_on_c, 0, 67, 80
1, 181655, Note_on_c, 0, 74, 0
1, 181680, Note_on_c, 0, 74, 80
1, 181895, Note_on_c, 0, 67, 0
1, 181907, Note_on_c, 0, 74, 0
1, 181920, Note_on_c, 0, 67, 80
1, 181920, Note_on_c, 0, 71, 80
1, 182375, Note_on_c, 0, 67, 0
1, 182375, Note_on_c, 0, 71, 0
1, 182400, Note_on_c, 0, 67, 80
1, 182400, Note_on_c, 0, 71, 80
1, 182627, Note_on_c, 0, 67, 0
1, 182627, Note_on_c, 0, 71, 0
1, 182640, Note_on_c, 0, 67, 80
1, 182867, Note_on_c, 0, 67, 0
1, 182880, Note_on_c, 0, 65, 80
1, 183120, Note_on_c, 0, 67, 80
1, 183335, Note_on_c, 0, 65, 0
1, 183347, Note_on_c, 0, 67, 0
1, 183360, Note_on_c, 0, 65, 80
1, 183360, Note_on_c, 0, 62, 80
1, 183599, Note_on_c, 0, 62, 0
1, 183600, Note_on_c, 0, 67, 80
1, 183815, Note_on_c, 0, 65, 0
1, 183827, Note_on_c, 0, 67, 0
1, 183840, Note_on_c, 0, 62, 80
1, 183840, Note_on_c, 0, 65, 80
1, 184295, Note_on_c, 0, 62, 0
1, 184295, Note_on_c, 0, 65, 0
1, 184320, Note_on_c, 0, 65, 80
1, 184775, Note_on_c, 0, 65, 0
1, 184800, Note_on_c, 0, 67, 80
1, 184913, Note_on_c, 0, 67, 0
1, 184920, Note_on_c, 0, 69, 80
1, 185033, Note_on_c, 0, 69, 0
1, 185040, Note_on_c, 0, 67, 80
1, 185153, Note_on_c, 0, 67, 0
1, 185160, Note_on_c, 0, 65, 80
1, 185273, Note_on_c, 0, 65, 0
1, 185280, Note_on_c, 0, 67, 80
1, 185393, Note_on_c, 0, 67, 0
1, 185400, Note_on_c, 0, 69, 80
1, 185513, Note_on_c, 0, 69, 0
1, 185520, Note_on_c, 0, 67, 80
1, 185633, Note_on_c, 0, 67, 0
1, 185640, Note_on_c, 0, 65, 80
1, 185753, Note_on_c, 0, 65, 0
1, 185760, Note_on_c, 0, 67, 80
1, 186215, Note_on_c, 0, 67, 0
1, 186240, Note_on_c, 0, 67, 80
1, 186695, Note_on_c, 0, 67, 0
1, 186720, Note_on_c, 0, 67, 80
1, 187175, Note_on_c, 0, 67, 0
1, 187200, Note_on_c, 0, 67, 80
1, 187655, Note_on_c, 0, 67, 0
1, 187680, Note_on_c, 0, 67, 80
1, 188135, Note_on_c, 0, 67, 0
1, 188160, Note_on_c, 0, 71, 80
1, 188387, Note_on_c, 0, 71, 0
1, 188400, Note_on_c, 0, 72, 80
1, 188627, Note_on_c, 0, 72, 0
1, 188640, Note_on_c, 0, 74, 80
1, 188640, Note_on_c, 0, 67, 80
1, 189095, Note_on_c, 0, 67, 0
1, 189120, Note_on_c, 0, 67, 80
1, 189575, Note_on_c, 0, 67, 0
1, 189600, Note_on_c, 0, 67, 80
1, 190007, Note_on_c, 0, 74, 0
1, 190055, Note_on_c, 0, 67, 0
1, 190080, Note_on_c, 0, 67, 80
1, 190320, Note_on_c, 0, 72, 80
1, 190433, Note_on_c, 0, 72, 0
1, 190440, Note_on_c, 0, 71, 80
1, 190535, Note_on_c, 0, 67, 0
1, 190553, Note_on_c, 0, 71, 0
1, 190560, Note_on_c, 0, 67, 80
1, 191040, Note_on_c, 0, 65, 80
1, 191495, Note_on_c, 0, 65, 0
1, 191520, Note_on_c, 0, 65, 80
1, 191927, Note_on_c, 0, 67, 0
1, 191975, Note_on_c, 0, 65, 0
1, 192000, Note_on_c, 0, 65, 80
1, 192227, Note_on_c, 0, 65, 0
1, 192240, Note_on_c, 0, 69, 80
1, 192695, Note_on_c, 0, 69, 0
1, 192720, Note_on_c, 0, 67, 80
1, 192947, Note_on_c, 0, 67, 0
1, 192960, Note_on_c, 0, 59, 80
1, 192960, Note_on_c, 0, 67, 80
1, 193187, Note_on_c, 0, 59, 0
1, 193187, Note_on_c, 0, 67, 0
1, 193200, Note_on_c, 0, 62, 80
1, 193427, Note_on_c, 0, 62, 0
1, 193440, Note_on_c, 0, 67, 80
1, 193667, Note_on_c, 0, 67, 0
1, 193680, Note_on_c, 0, 69, 80
1, 193907, Note_on_c, 0, 69, 0
1, 193920, Note_on_c, 0, 67, 80
1, 193920, Note_on_c, 0, 71, 80
1, 194147, Note_on_c, 0, 67, 0
1, 194147, Note_on_c, 0, 71, 0
1, 194160, Note_on_c, 0, 74, 80
1, 194387, Note_on_c, 0, 74, 0
1, 194400, Note_on_c, 0, 79, 80
1, 194855, Note_on_c, 0, 79, 0
1, 194880, Note_on_c, 0, 67, 80
1, 195335, Note_on_c, 0, 67, 0
1, 195360, Note_on_c, 0, 67, 80
1, 195815, Note_on_c, 0, 67, 0
1, 195840, Note_on_c, 0, 67, 80
1, 196080, Note_on_c, 0, 71, 80
1, 196193, Note_on_c, 0, 71, 0
1, 196200, Note_on_c, 0, 72, 80
1, 196295, Note_on_c, 0, 67, 0
1, 196313, Note_on_c, 0, 72, 0
1, 196320, Note_on_c, 0, 67, 80
1, 196320, Note_on_c, 0, 74, 80
1, 196775, Note_on_c, 0, 67, 0
1, 196800, Note_on_c, 0, 67, 80
1, 197255, Note_on_c, 0, 67, 0
1, 197280, Note_on_c, 0, 67, 80
1, 197687, Note_on_c, 0, 74, 0
1, 197735, Note_on_c, 0, 67, 0
1, 197760, Note_on_c, 0, 67, 80
1, 198000, Note_on_c, 0, 72, 80
1, 198113, Note_on_c, 0, 72, 0
1, 198120, Note_on_c, 0, 71, 80
1, 198215, Note_on_c, 0, 67, 0
1, 198233, Note_on_c, 0, 71, 0
1, 198240, Note_on_c, 0, 67, 80
1, 198720, Note_on_c, 0, 65, 80
1, 199175, Note_on_c, 0, 65, 0
1, 199200, Note_on_c, 0, 65, 80
1, 199607, Note_on_c, 0, 67, 0
1, 199655, Note_on_c, 0, 65, 0
1, 199680, Note_on_c, 0, 65, 80
1, 199919, Note_on_c, 0, 65, 0
1, 199920, Note_on_c, 0, 67, 80
1, 200400, Note_on_c, 0, 55, 80
1, 200603, Note_on_c, 0, 67, 0
1, 200640, Note_on_c, 0, 67, 80
1, 200640, Note_on_c, 0, 59, 80
1, 200867, Note_on_c, 0, 59, 0
1, 200880, Note_on_c, 0, 60, 80
1, 201095, Note_on_c, 0, 67, 0
1, 201107, Note_on_c, 0, 60, 0
1, 201120, Note_on_c, 0, 67, 80
1, 201120, Note_on_c, 0, 62, 80
1, 201347, Note_on_c, 0, 62, 0
1, 201360, Note_on_c, 0, 60, 80
1, 201425, Note_on_c, 0, 55, 0
1, 201575, Note_on_c, 0, 67, 0
1, 201587, Note_on_c, 0, 60, 0
1, 201600, Note_on_c, 0, 67, 80
1, 201600, Note_on_c, 0, 59, 80
1, 201827, Note_on_c, 0, 59, 0
1, 201840, Note_on_c, 0, 60, 80
1, 202055, Note_on_c, 0, 67, 0
1, 202067, Note_on_c, 0, 60, 0
1, 202560, Note_on_c, 0, 67, 80
1, 203015, Note_on_c, 0, 67, 0
1, 203040, Note_on_c, 0, 67, 80
1, 203495, Note_on_c, 0, 67, 0
1, 203520, Note_on_c, 0, 67, 80
1, 203760, Note_on_c, 0, 71, 80
1, 203873, Note_on_c, 0, 71, 0
1, 203880, Note_on_c, 0, 72, 80
1, 203975, Note_on_c, 0, 67, 0
1, 203993, Note_on_c, 0, 72, 0
1, 204000, Note_on_c, 0, 74, 80
1, 204000, Note_on_c, 0, 67, 80
1, 204455, Note_on_c, 0, 67, 0
1, 204480, Note_on_c, 0, 67, 80
1, 204935, Note_on_c, 0, 67, 0
1, 204960, Note_on_c, 0, 67, 80
1, 205367, Note_on_c, 0, 74, 0
1, 205415, Note_on_c, 0, 67, 0
1, 205440, Note_on_c, 0, 67, 80
1, 205680, Note_on_c, 0, 72, 80
1, 205793, Note_on_c, 0, 72, 0
1, 205800, Note_on_c, 0, 71, 80
1, 205895, Note_on_c, 0, 67, 0
1, 205913, Note_on_c, 0, 71, 0
1, 205920, Note_on_c, 0, 67, 80
1, 206400, Note_on_c, 0, 65, 80
1, 206855, Note_on_c, 0, 65, 0
1, 206880, Note_on_c, 0, 65, 80
1, 207287, Note_on_c, 0, 67, 0
1, 207335, Note_on_c, 0, 65, 0
1, 207360, Note_on_c, 0, 65, 80
1, 207587, Note_on_c, 0, 65, 0
1, 207600, Note_on_c, 0, 69, 80
1, 208055, Note_on_c, 0, 69, 0
1, 208080, Note_on_c, 0, 67, 80
1, 208307, Note_on_c, 0, 67, 0
1, 208320, Note_on_c, 0, 59, 80
1, 208320, Note_on_c, 0, 67, 80
1, 208547, Note_on_c, 0, 59, 0
1, 208547, Note_on_c, 0, 67, 0
1, 208560, Note_on_c, 0, 62, 80
1, 208787, Note_on_c, 0, 62, 0
1, 208800, Note_on_c, 0, 67, 80
1, 209027, Note_on_c, 0, 67, 0
1, 209040, Note_on_c, 0, 69, 80
1, 209267, Note_on_c, 0, 69, 0
1, 209280, Note_on_c, 0, 67, 80
1, 209280, Note_on_c, 0, 71, 80
1, 209507, Note_on_c, 0, 67, 0
1, 209507, Note_on_c, 0, 71, 0
1, 209520, Note_on_c, 0, 74, 80
1, 209747, Note_on_c, 0, 74, 0
1, 209760, Note_on_c, 0, 79, 80
1, 210215, Note_on_c, 0, 79, 0
1, 210240, Note_on_c, 0, 67, 80
1, 210695, Note_on_c, 0, 67, 0
1, 210720, Note_on_c, 0, 67, 80
1, 211175, Note_on_c, 0, 67, 0
1, 211200, Note_on_c, 0, 67, 80
1, 211440, Note_on_c, 0, 71, 80
1, 211553, Note_on_c, 0, 71, 0
1, 211560, Note_on_c, 0, 72, 80
1, 211655, Note_on_c, 0, 67, 0
1, 211673, Note_on_c, 0, 72, 0
1, 211680, Note_on_c, 0, 74, 80
1, 211680, Note_on_c, 0, 67, 80
1, 212135, Note_on_c, 0, 67, 0
1, 212160, Note_on_c, 0, 67, 80
1, 212615, Note_on_c, 0, 67, 0
1, 212640, Note_on_c, 0, 67, 80
1, 213047, Note_on_c, 0, 74, 0
1, 213095, Note_on_c, 0, 67, 0
1, 213120, Note_on_c, 0, 67, 80
1, 213360, Note_on_c, 0, 72, 80
1, 213473, Note_on_c, 0, 72, 0
1, 213480, Note_on_c, 0, 71, 80
1, 213575, Note_on_c, 0, 67, 0
1, 213593, Note_on_c, 0, 71, 0
1, 213600, Note_on_c, 0, 67, 80
1, 214080, Note_on_c, 0, 65, 80
1, 214535, Note_on_c, 0, 65, 0
1, 214560, Note_on_c, 0, 65, 80
1, 214967, Note_on_c, 0, 67, 0
1, 215015, Note_on_c, 0, 65, 0
1, 215040, Note_on_c, 0, 65, 80
1, 215279, Note_on_c, 0, 65, 0
1, 215280, Note_on_c, 0, 67, 80
1, 215760, Note_on_c, 0, 55, 80
1, 215963, Note_on_c, 0, 67, 0
1, 216000, Note_on_c, 0, 67, 80
1, 216000, Note_on_c, 0, 59, 80
1, 216227, Note_on_c, 0, 59, 0
1, 216240, Note_on_c, 0, 60, 80
1, 216455, Note_on_c, 0, 67, 0
1, 216467, Note_on_c, 0, 60, 0
1, 216480, Note_on_c, 0, 67, 80
1, 216480, Note_on_c, 0, 62, 80
1, 216707, Note_on_c, 0, 62, 0
1, 216720, Note_on_c, 0, 60, 80
1, 216899, Note_on_c, 0, 55, 0
1, 216935, Note_on_c, 0, 67, 0
1, 216947, Note_on_c, 0, 60, 0
1, 216960, Note_on_c, 0, 67, 80
1, 216960, Note_on_c, 0, 59, 80
1, 217187, Note_on_c, 0, 59, 0
1, 217200, Note_on_c, 0, 60, 80
1, 217415, Note_on_c, 0, 67, 0
1, 217427, Note_on_c, 0, 60, 0
1, 217440, Note_on_c, 0, 67, 80
1, 217895, Note_on_c, 0, 67, 0
1, 217920, Note_on_c, 0, 79, 80
1, 218375, Note_on_c, 0, 79, 0
1, 218400, Note_on_c, 0, 79, 80
1, 218855, Note_on_c, 0, 79, 0
1, 218880, Note_on_c, 0, 79, 80
1, 219335, Note_on_c, 0, 79, 0
1, 219600, Note_on_c, 0, 71, 80
1, 220055, Note_on_c, 0, 71, 0
1, 220080, Note_on_c, 0, 71, 80
1, 220307, Note_on_c, 0, 71, 0
1, 220320, Note_on_c, 0, 67, 80
1, 220775, Note_on_c, 0, 67, 0
1, 220800, Note_on_c, 0, 67, 80
1, 221255, Note_on_c, 0, 67, 0
1, 221280, Note_on_c, 0, 62, 80
1, 221507, Note_on_c, 0, 62, 0
1, 221520, Note_on_c, 0, 64, 80
1, 221747, Note_on_c, 0, 64, 0
1, 221760, Note_on_c, 0, 62, 80
1, 221760, Note_on_c, 0, 65, 80
1, 222215, Note_on_c, 0, 62, 0
1, 222215, Note_on_c, 0, 65, 0
1, 222240, Note_on_c, 0, 65, 80
1, 222467, Note_on_c, 0, 65, 0
1, 222480, Note_on_c, 0, 67, 80
1, 222707, Note_on_c, 0, 67, 0
1, 222720, Note_on_c, 0, 65, 80
1, 222720, Note_on_c, 0, 71, 80
1, 222947, Note_on_c, 0, 65, 0
1, 222947, Note_on_c, 0, 71, 0
1, 222960, Note_on_c, 0, 67, 80
1, 223187, Note_on_c, 0, 67, 0
1, 223440, Note_on_c, 0, 71, 80
1, 223667, Note_on_c, 0, 71, 0
1, 223680, Note_on_c, 0, 67, 80
1, 223907, Note_on_c, 0, 67, 0
1, 223920, Note_on_c, 0, 65, 80
1, 224147, Note_on_c, 0, 65, 0
1, 224160, Note_on_c, 0, 67, 80
1, 224615, Note_on_c, 0, 67, 0
1, 224640, Note_on_c, 0, 62, 80
1, 224640, Note_on_c, 0, 67, 80
1, 224867, Note_on_c, 0, 62, 0
1, 224867, Note_on_c, 0, 67, 0
1, 224880, Note_on_c, 0, 65, 80
1, 225107, Note_on_c, 0, 65, 0
1, 225120, Note_on_c, 0, 62, 80
1, 225120, Note_on_c, 0, 67, 80
1, 225575, Note_on_c, 0, 62, 0
1, 225575, Note_on_c, 0, 67, 0
1, 225600, Note_on_c, 0, 67, 80
1, 226511, Note_on_c, 0, 67, 0
1, 227280, Note_on_c, 0, 74, 80
1, 227507, Note_on_c, 0, 74, 0
1, 227520, Note_on_c, 0, 67, 80
1, 227759, Note_on_c, 0, 67, 0
1, 228000, Note_on_c, 0, 71, 80
1, 228240, Note_on_c, 0, 62, 80
1, 228455, Note_on_c, 0, 71, 0
1, 228467, Note_on_c, 0, 62, 0
1, 228480, Note_on_c, 0, 71, 80
1, 228707, Note_on_c, 0, 71, 0
1, 228720, Note_on_c, 0, 67, 80
1, 228947, Note_on_c, 0, 67, 0
1, 228960, Note_on_c, 0, 60, 80
1, 229187, Note_on_c, 0, 60, 0
1, 229200, Note_on_c, 0, 67, 80
1, 229427, Note_on_c, 0, 67, 0
1, 229440, Note_on_c, 0, 62, 80
1, 229667, Note_on_c, 0, 62, 0
1, 229680, Note_on_c, 0, 59, 80
1, 229907, Note_on_c, 0, 59, 0
1, 229920, Note_on_c, 0, 62, 80
1, 230147, Note_on_c, 0, 62, 0
1, 230160, Note_on_c, 0, 65, 80
1, 230387, Note_on_c, 0, 65, 0
1, 230640, Note_on_c, 0, 65, 80
1, 230867, Note_on_c, 0, 65, 0
1, 230880, Note_on_c, 0, 67, 80
1, 230993, Note_on_c, 0, 67, 0
1, 231000, Note_on_c, 0, 69, 80
1, 231113, Note_on_c, 0, 69, 0
1, 231120, Note_on_c, 0, 67, 80
1, 231233, Note_on_c, 0, 67, 0
1, 231240, Note_on_c, 0, 65, 80
1, 231353, Note_on_c, 0, 65, 0
1, 231360, Note_on_c, 0, 67, 80
1, 231473, Note_on_c, 0, 67, 0
1, 231480, Note_on_c, 0, 69, 80
1, 231593, Note_on_c, 0, 69, 0
1, 231600, Note_on_c, 0, 67, 80
1, 231713, Note_on_c, 0, 67, 0
1, 231720, Note_on_c, 0, 65, 80
1, 231833, Note_on_c, 0, 65, 0
1, 231840, Note_on_c, 0, 67, 80
1, 232751, Note_on_c, 0, 67, 0
1, 232800, Note_on_c, 0, 62, 80
1, 232800, Note_on_c, 0, 67, 80
1, 233255, Note_on_c, 0, 62, 0
1, 233255, Note_on_c, 0, 67, 0
1, 233280, Note_on_c, 0, 62, 80
1, 233280, Note_on_c, 0, 67, 80
1, 233735, Note_on_c, 0, 62, 0
1, 233735, Note_on_c, 0, 67, 0
1, 233760, Note_on_c, 0, 62, 80
1, 233760, Note_on_c, 0, 67, 80
1, 234215, Note_on_c, 0, 62, 0
1, 234215, Note_on_c, 0, 67, 0
1, 234960, Note_on_c, 0, 71, 80
1, 235415, Note_on_c, 0, 71, 0
1, 235440, Note_on_c, 0, 71, 80
1, 235667, Note_on_c, 0, 71, 0
1, 235680, Note_on_c, 0, 67, 80
1, 236135, Note_on_c, 0, 67, 0
1, 236160, Note_on_c, 0, 67, 80
1, 236615, Note_on_c, 0, 67, 0
1, 236640, Note_on_c, 0, 62, 80
1, 236867, Note_on_c, 0, 62, 0
1, 236880, Note_on_c, 0, 64, 80
1, 237107, Note_on_c, 0, 64, 0
1, 237120, Note_on_c, 0, 62, 80
1, 237120, Note_on_c, 0, 65, 80
1, 237575, Note_on_c, 0, 62, 0
1, 237575, Note_on_c, 0, 65, 0
1, 237600, Note_on_c, 0, 65, 80
1, 237827, Note_on_c, 0, 65, 0
1, 237840, Note_on_c, 0, 67, 80
1, 238067, Note_on_c, 0, 67, 0
1, 238080, Note_on_c, 0, 65, 80
1, 238080, Note_on_c, 0, 71, 80
1, 238307, Note_on_c, 0, 65, 0
1, 238307, Note_on_c, 0, 71, 0
1, 238320, Note_on_c, 0, 67, 80
1, 238547, Note_on_c, 0, 67, 0
1, 238800, Note_on_c, 0, 71, 80
1, 239027, Note_on_c, 0, 71, 0
1, 239040, Note_on_c, 0, 67, 80
1, 239267, Note_on_c, 0, 67, 0
1, 239280, Note_on_c, 0, 65, 80
1, 239507, Note_on_c, 0, 65, 0
1, 239520, Note_on_c, 0, 67, 80
1, 239975, Note_on_c, 0, 67, 0
1, 240000, Note_on_c, 0, 62, 80
1, 240000, Note_on_c, 0, 67, 80
1, 240227, Note_on_c, 0, 62, 0
1, 240227, Note_on_c, 0, 67, 0
1, 240240, Note_on_c, 0, 65, 80
1, 240467, Note_on_c, 0, 65, 0
1, 240480, Note_on_c, 0, 62, 80
1, 240480, Note_on_c, 0, 67, 80
1, 240935, Note_on_c, 0, 62, 0
1, 240935, Note_on_c, 0, 67, 0
1, 240960, Note_on_c, 0, 67, 80
1, 241871, Note_on_c, 0, 67, 0
1, 242640, Note_on_c, 0, 74, 80
1, 243095, Note_on_c, 0, 74, 0
1, 243120, Note_on_c, 0, 74, 80
1, 243575, Note_on_c, 0, 74, 0
1, 244560, Note_on_c, 0, 71, 80
1, 245015, Note_on_c, 0, 71, 0
1, 245040, Note_on_c, 0, 71, 80
1, 245267, Note_on_c, 0, 71, 0
1, 245280, Note_on_c, 0, 67, 80
1, 245519, Note_on_c, 0, 67, 0
1, 246720, Note_on_c, 0, 64, 80
1, 247175, Note_on_c, 0, 64, 0
1, 247200, Note_on_c, 0, 64, 80
1, 247655, Note_on_c, 0, 64, 0
1, 247680, Note_on_c, 0, 65, 80
1, 248135, Note_on_c, 0, 65, 0
1, 248160, Note_on_c, 0, 67, 80
1, 248273, Note_on_c, 0, 67, 0
1, 248280, Note_on_c, 0, 69, 80
1, 248393, Note_on_c, 0, 69, 0
1, 248400, Note_on_c, 0, 67, 80
1, 248513, Note_on_c, 0, 67, 0
1, 248520, Note_on_c, 0, 65, 80
1, 248633, Note_on_c, 0, 65, 0
1, 248640, Note_on_c, 0, 67, 80
1, 248753, Note_on_c, 0, 67, 0
1, 248760, Note_on_c, 0, 69, 80
1, 248873, Note_on_c, 0, 69, 0
1, 248880, Note_on_c, 0, 67, 80
1, 248993, Note_on_c, 0, 67, 0
1, 249000, Note_on_c, 0, 65, 80
1, 249113, Note_on_c, 0, 65, 0
1, 249120, Note_on_c, 0, 67, 80
1, 250031, Note_on_c, 0, 67, 0
1, 250032, End_track
2, 0, Start_track
2, 0, Title_t, "Piano, Piano\000"
2, 0, Key_signature, 0, "major"
2, 0, MIDI_port, 0
2, 0, Note_on_c, 0, 60, 80
2, 227, Note_on_c, 0, 60, 0
2, 240, Note_on_c, 0, 60, 80
2, 467, Note_on_c, 0, 60, 0
2, 480, Note_on_c, 0, 60, 80
2, 707, Note_on_c, 0, 60, 0
2, 720, Note_on_c, 0, 60, 80
2, 947, Note_on_c, 0, 60, 0
2, 960, Note_on_c, 0, 60, 80
2, 1187, Note_on_c, 0, 60, 0
2, 1200, Note_on_c, 0, 60, 80
2, 1427, Note_on_c, 0, 60, 0
2, 1440, Note_on_c, 0, 60, 80
2, 1667, Note_on_c, 0, 60, 0
2, 1680, Note_on_c, 0, 60, 80
2, 1907, Note_on_c, 0, 60, 0
2, 1920, Note_on_c, 0, 60, 80
2, 2147, Note_on_c, 0, 60, 0
2, 2160, Note_on_c, 0, 60, 80
2, 2387, Note_on_c, 0, 60, 0
2, 2400, Note_on_c, 0, 60, 80
2, 2627, Note_on_c, 0, 60, 0
2, 2640, Note_on_c, 0, 60, 80
2, 2867, Note_on_c, 0, 60, 0
2, 2880, Note_on_c, 0, 59, 80
2, 3107, Note_on_c, 0, 59, 0
2, 3120, Note_on_c, 0, 59, 80
2, 3347, Note_on_c, 0, 59, 0
2, 3360, Note_on_c, 0, 59, 80
2, 3587, Note_on_c, 0, 59, 0
2, 3600, Note_on_c, 0, 59, 80
2, 3827, Note_on_c, 0, 59, 0
2, 3840, Note_on_c, 0, 59, 80
2, 4067, Note_on_c, 0, 59, 0
2, 4080, Note_on_c, 0, 59, 80
2, 4307, Note_on_c, 0, 59, 0
2, 4320, Note_on_c, 0, 57, 80
2, 4547, Note_on_c, 0, 57, 0
2, 4560, Note_on_c, 0, 57, 80
2, 4787, Note_on_c, 0, 57, 0
2, 4800, Note_on_c, 0, 57, 80
2, 5027, Note_on_c, 0, 57, 0
2, 5040, Note_on_c, 0, 57, 80
2, 5267, Note_on_c, 0, 57, 0
2, 5280, Note_on_c, 0, 55, 80
2, 5507, Note_on_c, 0, 55, 0
2, 5520, Note_on_c, 0, 55, 80
2, 5747, Note_on_c, 0, 55, 0
2, 5760, Note_on_c, 0, 60, 80
2, 5987, Note_on_c, 0, 60, 0
2, 6000, Note_on_c, 0, 60, 80
2, 6227, Note_on_c, 0, 60, 0
2, 6240, Note_on_c, 0, 60, 80
2, 6467, Note_on_c, 0, 60, 0
2, 6480, Note_on_c, 0, 60, 80
2, 6707, Note_on_c, 0, 60, 0
2, 6720, Note_on_c, 0, 60, 80
2, 6947, Note_on_c, 0, 60, 0
2, 6960, Note_on_c, 0, 60, 80
2, 7187, Note_on_c, 0, 60, 0
2, 7200, Note_on_c, 0, 60, 80
2, 7427, Note_on_c, 0, 60, 0
2, 7440, Note_on_c, 0, 60, 80
2, 7667, Note_on_c, 0, 60, 0
2, 7680, Note_on_c, 0, 60, 80
2, 7907, Note_on_c, 0, 60, 0
2, 7920, Note_on_c, 0, 60, 80
2, 8147, Note_on_c, 0, 60, 0
2, 8160, Note_on_c, 0, 60, 80
2, 8387, Note_on_c, 0, 60, 0
2, 8400, Note_on_c, 0, 60, 80
2, 8627, Note_on_c, 0, 60, 0
2, 8640, Note_on_c, 0, 59, 80
2, 8867, Note_on_c, 0, 59, 0
2, 8880, Note_on_c, 0, 59, 80
2, 9107, Note_on_c, 0, 59, 0
2, 9120, Note_on_c, 0, 59, 80
2, 9347, Note_on_c, 0, 59, 0
2, 9360, Note_on_c, 0, 59, 80
2, 9587, Note_on_c, 0, 59, 0
2, 9600, Note_on_c, 0, 59, 80
2, 9827, Note_on_c, 0, 59, 0
2, 9840, Note_on_c, 0, 59, 80
2, 10067, Note_on_c, 0, 59, 0
2, 10080, Note_on_c, 0, 57, 80
2, 10307, Note_on_c, 0, 57, 0
2, 10320, Note_on_c, 0, 57, 80
2, 10547, Note_on_c, 0, 57, 0
2, 10560, Note_on_c, 0, 57, 80
2, 10787, Note_on_c, 0, 57, 0
2, 10800, Note_on_c, 0, 57, 80
2, 11027, Note_on_c, 0, 57, 0
2, 11040, Note_on_c, 0, 55, 80
2, 11267, Note_on_c, 0, 55, 0
2, 11280, Note_on_c, 0, 55, 80
2, 11507, Note_on_c, 0, 55, 0
2, 11520, Note_on_c, 0, 64, 80
2, 11747, Note_on_c, 0, 64, 0
2, 11760, Note_on_c, 0, 60, 80
2, 12215, Note_on_c, 0, 60, 0
2, 12240, Note_on_c, 0, 60, 80
2, 12695, Note_on_c, 0, 60, 0
2, 12720, Note_on_c, 0, 60, 80
2, 12947, Note_on_c, 0, 60, 0
2, 12960, Note_on_c, 0, 62, 80
2, 13187, Note_on_c, 0, 62, 0
2, 13200, Note_on_c, 0, 60, 80
2, 13655, Note_on_c, 0, 60, 0
2, 13680, Note_on_c, 0, 60, 80
2, 14135, Note_on_c, 0, 60, 0
2, 14160, Note_on_c, 0, 60, 80
2, 14387, Note_on_c, 0, 60, 0
2, 14400, Note_on_c, 0, 59, 80
2, 14627, Note_on_c, 0, 59, 0
2, 14640, Note_on_c, 0, 60, 80
2, 15095, Note_on_c, 0, 60, 0
2, 15120, Note_on_c, 0, 67, 80
2, 15347, Note_on_c, 0, 67, 0
2, 15600, Note_on_c, 0, 60, 80
2, 16055, Note_on_c, 0, 60, 0
2, 16080, Note_on_c, 0, 57, 80
2, 16535, Note_on_c, 0, 57, 0
2, 16560, Note_on_c, 0, 57, 80
2, 17015, Note_on_c, 0, 57, 0
2, 17040, Note_on_c, 0, 55, 80
2, 17267, Note_on_c, 0, 55, 0
2, 17280, Note_on_c, 0, 64, 80
2, 17507, Note_on_c, 0, 64, 0
2, 17520, Note_on_c, 0, 60, 80
2, 17975, Note_on_c, 0, 60, 0
2, 18000, Note_on_c, 0, 60, 80
2, 18455, Note_on_c, 0, 60, 0
2, 18480, Note_on_c, 0, 60, 80
2, 18707, Note_on_c, 0, 60, 0
2, 18720, Note_on_c, 0, 62, 80
2, 18947, Note_on_c, 0, 62, 0
2, 18960, Note_on_c, 0, 60, 80
2, 19415, Note_on_c, 0, 60, 0
2, 19440, Note_on_c, 0, 60, 80
2, 19895, Note_on_c, 0, 60, 0
2, 19920, Note_on_c, 0, 60, 80
2, 20147, Note_on_c, 0, 60, 0
2, 20160, Note_on_c, 0, 59, 80
2, 20387, Note_on_c, 0, 59, 0
2, 20400, Note_on_c, 0, 60, 80
2, 20855, Note_on_c, 0, 60, 0
2, 20880, Note_on_c, 0, 67, 80
2, 21107, Note_on_c, 0, 67, 0
2, 21360, Note_on_c, 0, 60, 80
2, 21815, Note_on_c, 0, 60, 0
2, 21840, Note_on_c, 0, 57, 80
2, 22295, Note_on_c, 0, 57, 0
2, 22320, Note_on_c, 0, 57, 80
2, 22775, Note_on_c, 0, 57, 0
2, 22800, Note_on_c, 0, 55, 80
2, 23027, Note_on_c, 0, 55, 0
2, 23040, Note_on_c, 0, 48, 80
2, 23723, Note_on_c, 0, 48, 0
2, 23760, Note_on_c, 0, 48, 80
2, 24215, Note_on_c, 0, 48, 0
2, 24240, Note_on_c, 0, 48, 80
2, 24467, Note_on_c, 0, 48, 0
2, 24480, Note_on_c, 0, 53, 80
2, 25163, Note_on_c, 0, 53, 0
2, 25200, Note_on_c, 0, 53, 80
2, 25655, Note_on_c, 0, 53, 0
2, 25680, Note_on_c, 0, 53, 80
2, 25907, Note_on_c, 0, 53, 0
2, 25920, Note_on_c, 0, 55, 80
2, 26603, Note_on_c, 0, 55, 0
2, 26640, Note_on_c, 0, 55, 80
2, 27095, Note_on_c, 0, 55, 0
2, 27120, Note_on_c, 0, 55, 80
2, 27347, Note_on_c, 0, 55, 0
2, 27360, Note_on_c, 0, 53, 80
2, 28043, Note_on_c, 0, 53, 0
2, 28080, Note_on_c, 0, 53, 80
2, 28307, Note_on_c, 0, 53, 0
2, 28320, Note_on_c, 0, 52, 80
2, 28775, Note_on_c, 0, 52, 0
2, 28800, Note_on_c, 0, 48, 80
2, 29483, Note_on_c, 0, 48, 0
2, 29520, Note_on_c, 0, 48, 80
2, 29975, Note_on_c, 0, 48, 0
2, 30000, Note_on_c, 0, 48, 80
2, 30227, Note_on_c, 0, 48, 0
2, 30240, Note_on_c, 0, 53, 80
2, 30923, Note_on_c, 0, 53, 0
2, 30960, Note_on_c, 0, 53, 80
2, 31415, Note_on_c, 0, 53, 0
2, 31440, Note_on_c, 0, 53, 80
2, 31667, Note_on_c, 0, 53, 0
2, 31680, Note_on_c, 0, 55, 80
2, 32363, Note_on_c, 0, 55, 0
2, 32400, Note_on_c, 0, 55, 80
2, 32855, Note_on_c, 0, 55, 0
2, 32880, Note_on_c, 0, 55, 80
2, 33107, Note_on_c, 0, 55, 0
2, 33120, Note_on_c, 0, 53, 80
2, 33803, Note_on_c, 0, 53, 0
2, 33840, Note_on_c, 0, 53, 80
2, 34067, Note_on_c, 0, 53, 0
2, 34080, Note_on_c, 0, 52, 80
2, 34535, Note_on_c, 0, 52, 0
2, 34560, Note_on_c, 0, 48, 80
2, 35243, Note_on_c, 0, 48, 0
2, 35280, Note_on_c, 0, 48, 80
2, 35735, Note_on_c, 0, 48, 0
2, 35760, Note_on_c, 0, 48, 80
2, 35987, Note_on_c, 0, 48, 0
2, 36000, Note_on_c, 0, 53, 80
2, 36683, Note_on_c, 0, 53, 0
2, 36720, Note_on_c, 0, 53, 80
2, 37175, Note_on_c, 0, 53, 0
2, 37200, Note_on_c, 0, 53, 80
2, 37427, Note_on_c, 0, 53, 0
2, 37440, Note_on_c, 0, 55, 80
2, 38123, Note_on_c, 0, 55, 0
2, 38160, Note_on_c, 0, 55, 80
2, 38615, Note_on_c, 0, 55, 0
2, 38640, Note_on_c, 0, 55, 80
2, 38867, Note_on_c, 0, 55, 0
2, 38880, Note_on_c, 0, 53, 80
2, 39563, Note_on_c, 0, 53, 0
2, 39600, Note_on_c, 0, 53, 80
2, 39827, Note_on_c, 0, 53, 0
2, 39840, Note_on_c, 0, 52, 80
2, 40295, Note_on_c, 0, 52, 0
2, 40320, Note_on_c, 0, 48, 80
2, 41003, Note_on_c, 0, 48, 0
2, 41040, Note_on_c, 0, 48, 80
2, 41495, Note_on_c, 0, 48, 0
2, 41520, Note_on_c, 0, 48, 80
2, 41747, Note_on_c, 0, 48, 0
2, 41760, Note_on_c, 0, 53, 80
2, 42443, Note_on_c, 0, 53, 0
2, 42480, Note_on_c, 0, 53, 80
2, 42935, Note_on_c, 0, 53, 0
2, 42960, Note_on_c, 0, 53, 80
2, 43187, Note_on_c, 0, 53, 0
2, 43200, Note_on_c, 0, 55, 80
2, 43883, Note_on_c, 0, 55, 0
2, 43920, Note_on_c, 0, 55, 80
2, 44375, Note_on_c, 0, 55, 0
2, 44400, Note_on_c, 0, 55, 80
2, 44627, Note_on_c, 0, 55, 0
2, 44640, Note_on_c, 0, 53, 80
2, 45323, Note_on_c, 0, 53, 0
2, 45360, Note_on_c, 0, 53, 80
2, 45587, Note_on_c, 0, 53, 0
2, 45600, Note_on_c, 0, 52, 80
2, 46055, Note_on_c, 0, 52, 0
2, 46080, Note_on_c, 0, 55, 80
2, 46763, Note_on_c, 0, 55, 0
2, 46800, Note_on_c, 0, 55, 80
2, 47255, Note_on_c, 0, 55, 0
2, 47280, Note_on_c, 0, 55, 80
2, 47507, Note_on_c, 0, 55, 0
2, 47520, Note_on_c, 0, 57, 80
2, 48203, Note_on_c, 0, 57, 0
2, 48240, Note_on_c, 0, 57, 80
2, 48695, Note_on_c, 0, 57, 0
2, 48720, Note_on_c, 0, 57, 80
2, 48947, Note_on_c, 0, 57, 0
2, 48960, Note_on_c, 0, 53, 80
2, 49643, Note_on_c, 0, 53, 0
2, 49680, Note_on_c, 0, 53, 80
2, 50135, Note_on_c, 0, 53, 0
2, 50160, Note_on_c, 0, 57, 80
2, 50387, Note_on_c, 0, 57, 0
2, 50400, Note_on_c, 0, 60, 80
2, 51083, Note_on_c, 0, 60, 0
2, 51120, Note_on_c, 0, 60, 80
2, 51347, Note_on_c, 0, 60, 0
2, 51360, Note_on_c, 0, 53, 80
2, 51815, Note_on_c, 0, 53, 0
2, 51840, Note_on_c, 0, 55, 80
2, 52523, Note_on_c, 0, 55, 0
2, 52560, Note_on_c, 0, 55, 80
2, 53015, Note_on_c, 0, 55, 0
2, 53040, Note_on_c, 0, 55, 80
2, 53267, Note_on_c, 0, 55, 0
2, 53280, Note_on_c, 0, 57, 80
2, 53963, Note_on_c, 0, 57, 0
2, 54000, Note_on_c, 0, 57, 80
2, 54227, Note_on_c, 0, 57, 0
2, 54240, Note_on_c, 0, 60, 80
2, 54695, Note_on_c, 0, 60, 0
2, 54720, Note_on_c, 0, 53, 80
2, 55403, Note_on_c, 0, 53, 0
2, 55440, Note_on_c, 0, 53, 80
2, 55895, Note_on_c, 0, 53, 0
2, 55920, Note_on_c, 0, 57, 80
2, 56147, Note_on_c, 0, 57, 0
2, 56160, Note_on_c, 0, 60, 80
2, 56843, Note_on_c, 0, 60, 0
2, 56880, Note_on_c, 0, 60, 80
2, 57107, Note_on_c, 0, 60, 0
2, 57120, Note_on_c, 0, 53, 80
2, 57575, Note_on_c, 0, 53, 0
2, 57600, Note_on_c, 0, 55, 80
2, 58283, Note_on_c, 0, 55, 0
2, 58320, Note_on_c, 0, 55, 80
2, 58775, Note_on_c, 0, 55, 0
2, 58800, Note_on_c, 0, 55, 80
2, 59027, Note_on_c, 0, 55, 0
2, 59040, Note_on_c, 0, 57, 80
2, 59723, Note_on_c, 0, 57, 0
2, 59760, Note_on_c, 0, 57, 80
2, 60215, Note_on_c, 0, 57, 0
2, 60240, Note_on_c, 0, 57, 80
2, 60467, Note_on_c, 0, 57, 0
2, 60480, Note_on_c, 0, 53, 80
2, 61163, Note_on_c, 0, 53, 0
2, 61200, Note_on_c, 0, 53, 80
2, 61655, Note_on_c, 0, 53, 0
2, 61680, Note_on_c, 0, 57, 80
2, 61907, Note_on_c, 0, 57, 0
2, 61920, Note_on_c, 0, 60, 80
2, 62603, Note_on_c, 0, 60, 0
2, 62640, Note_on_c, 0, 60, 80
2, 62867, Note_on_c, 0, 60, 0
2, 62880, Note_on_c, 0, 53, 80
2, 63335, Note_on_c, 0, 53, 0
2, 63360, Note_on_c, 0, 55, 80
2, 64043, Note_on_c, 0, 55, 0
2, 64080, Note_on_c, 0, 55, 80
2, 64535, Note_on_c, 0, 55, 0
2, 64560, Note_on_c, 0, 55, 80
2, 64787, Note_on_c, 0, 55, 0
2, 64800, Note_on_c, 0, 57, 80
2, 65483, Note_on_c, 0, 57, 0
2, 65520, Note_on_c, 0, 57, 80
2, 65747, Note_on_c, 0, 57, 0
2, 65760, Note_on_c, 0, 60, 80
2, 66215, Note_on_c, 0, 60, 0
2, 66240, Note_on_c, 0, 53, 80
2, 66923, Note_on_c, 0, 53, 0
2, 66960, Note_on_c, 0, 53, 80
2, 67415, Note_on_c, 0, 53, 0
2, 67440, Note_on_c, 0, 57, 80
2, 67667, Note_on_c, 0, 57, 0
2, 67680, Note_on_c, 0, 60, 80
2, 68363, Note_on_c, 0, 60, 0
2, 68400, Note_on_c, 0, 60, 80
2, 68627, Note_on_c, 0, 60, 0
2, 68640, Note_on_c, 0, 53, 80
2, 69095, Note_on_c, 0, 53, 0
2, 69120, Note_on_c, 0, 55, 80
2, 69347, Note_on_c, 0, 55, 0
2, 69360, Note_on_c, 0, 55, 80
2, 69587, Note_on_c, 0, 55, 0
2, 69600, Note_on_c, 0, 59, 80
2, 69827, Note_on_c, 0, 59, 0
2, 69840, Note_on_c, 0, 62, 80
2, 70295, Note_on_c, 0, 62, 0
2, 70320, Note_on_c, 0, 55, 80
2, 70547, Note_on_c, 0, 55, 0
2, 70560, Note_on_c, 0, 57, 80
2, 71243, Note_on_c, 0, 57, 0
2, 71280, Note_on_c, 0, 57, 80
2, 71735, Note_on_c, 0, 57, 0
2, 71760, Note_on_c, 0, 57, 80
2, 71987, Note_on_c, 0, 57, 0
2, 72000, Note_on_c, 0, 53, 80
2, 72227, Note_on_c, 0, 53, 0
2, 72240, Note_on_c, 0, 53, 80
2, 72467, Note_on_c, 0, 53, 0
2, 72480, Note_on_c, 0, 57, 80
2, 72707, Note_on_c, 0, 57, 0
2, 72720, Note_on_c, 0, 60, 80
2, 73175, Note_on_c, 0, 60, 0
2, 73200, Note_on_c, 0, 57, 80
2, 73427, Note_on_c, 0, 57, 0
2, 73440, Note_on_c, 0, 60, 80
2, 74123, Note_on_c, 0, 60, 0
2, 74160, Note_on_c, 0, 60, 80
2, 74387, Note_on_c, 0, 60, 0
2, 74400, Note_on_c, 0, 53, 80
2, 74855, Note_on_c, 0, 53, 0
2, 74880, Note_on_c, 0, 55, 80
2, 75563, Note_on_c, 0, 55, 0
2, 75600, Note_on_c, 0, 55, 80
2, 76055, Note_on_c, 0, 55, 0
2, 76080, Note_on_c, 0, 55, 80
2, 76307, Note_on_c, 0, 55, 0
2, 76320, Note_on_c, 0, 57, 80
2, 77003, Note_on_c, 0, 57, 0
2, 77040, Note_on_c, 0, 57, 80
2, 77267, Note_on_c, 0, 57, 0
2, 77280, Note_on_c, 0, 60, 80
2, 77735, Note_on_c, 0, 60, 0
2, 77760, Note_on_c, 0, 53, 80
2, 78443, Note_on_c, 0, 53, 0
2, 78480, Note_on_c, 0, 53, 80
2, 78935, Note_on_c, 0, 53, 0
2, 78960, Note_on_c, 0, 57, 80
2, 79187, Note_on_c, 0, 57, 0
2, 79200, Note_on_c, 0, 60, 80
2, 79883, Note_on_c, 0, 60, 0
2, 79920, Note_on_c, 0, 60, 80
2, 80147, Note_on_c, 0, 60, 0
2, 80160, Note_on_c, 0, 53, 80
2, 80615, Note_on_c, 0, 53, 0
2, 80640, Note_on_c, 0, 55, 80
2, 80867, Note_on_c, 0, 55, 0
2, 80880, Note_on_c, 0, 55, 80
2, 81107, Note_on_c, 0, 55, 0
2, 81120, Note_on_c, 0, 59, 80
2, 81347, Note_on_c, 0, 59, 0
2, 81360, Note_on_c, 0, 62, 80
2, 81815, Note_on_c, 0, 62, 0
2, 81840, Note_on_c, 0, 55, 80
2, 82067, Note_on_c, 0, 55, 0
2, 82080, Note_on_c, 0, 57, 80
2, 82763, Note_on_c, 0, 57, 0
2, 82800, Note_on_c, 0, 57, 80
2, 83255, Note_on_c, 0, 57, 0
2, 83280, Note_on_c, 0, 57, 80
2, 83507, Note_on_c, 0, 57, 0
2, 83520, Note_on_c, 0, 53, 80
2, 83747, Note_on_c, 0, 53, 0
2, 83760, Note_on_c, 0, 53, 80
2, 83987, Note_on_c, 0, 53, 0
2, 84000, Note_on_c, 0, 57, 80
2, 84227, Note_on_c, 0, 57, 0
2, 84240, Note_on_c, 0, 60, 80
2, 84695, Note_on_c, 0, 60, 0
2, 84720, Note_on_c, 0, 57, 80
2, 84947, Note_on_c, 0, 57, 0
2, 84960, Note_on_c, 0, 60, 80
2, 85643, Note_on_c, 0, 60, 0
2, 85680, Note_on_c, 0, 60, 80
2, 85907, Note_on_c, 0, 60, 0
2, 85920, Note_on_c, 0, 53, 80
2, 86375, Note_on_c, 0, 53, 0
2, 86400, Note_on_c, 0, 55, 80
2, 87083, Note_on_c, 0, 55, 0
2, 87120, Note_on_c, 0, 55, 80
2, 87575, Note_on_c, 0, 55, 0
2, 87600, Note_on_c, 0, 55, 80
2, 87827, Note_on_c, 0, 55, 0
2, 87840, Note_on_c, 0, 57, 80
2, 88523, Note_on_c, 0, 57, 0
2, 88560, Note_on_c, 0, 57, 80
2, 88787, Note_on_c, 0, 57, 0
2, 88800, Note_on_c, 0, 60, 80
2, 89255, Note_on_c, 0, 60, 0
2, 89280, Note_on_c, 0, 53, 80
2, 89963, Note_on_c, 0, 53, 0
2, 90000, Note_on_c, 0, 53, 80
2, 90455, Note_on_c, 0, 53, 0
2, 90480, Note_on_c, 0, 57, 80
2, 90707, Note_on_c, 0, 57, 0
2, 90720, Note_on_c, 0, 60, 80
2, 91403, Note_on_c, 0, 60, 0
2, 91440, Note_on_c, 0, 60, 80
2, 91667, Note_on_c, 0, 60, 0
2, 91680, Note_on_c, 0, 53, 80
2, 92135, Note_on_c, 0, 53, 0
2, 92160, Note_on_c, 0, 48, 80
2, 93527, Note_on_c, 0, 48, 0
2, 103440, Note_on_c, 0, 55, 80
2, 103667, Note_on_c, 0, 55, 0
2, 103680, Note_on_c, 0, 52, 80
2, 103907, Note_on_c, 0, 52, 0
2, 103920, Note_on_c, 0, 60, 80
2, 104375, Note_on_c, 0, 60, 0
2, 104400, Note_on_c, 0, 60, 80
2, 104855, Note_on_c, 0, 60, 0
2, 104880, Note_on_c, 0, 60, 80
2, 105107, Note_on_c, 0, 60, 0
2, 105120, Note_on_c, 0, 62, 80
2, 105347, Note_on_c, 0, 62, 0
2, 105360, Note_on_c, 0, 60, 80
2, 105815, Note_on_c, 0, 60, 0
2, 105840, Note_on_c, 0, 60, 80
2, 106295, Note_on_c, 0, 60, 0
2, 106320, Note_on_c, 0, 60, 80
2, 106547, Note_on_c, 0, 60, 0
2, 106560, Note_on_c, 0, 59, 80
2, 106787, Note_on_c, 0, 59, 0
2, 106800, Note_on_c, 0, 60, 80
2, 107255, Note_on_c, 0, 60, 0
2, 107280, Note_on_c, 0, 60, 80
2, 107735, Note_on_c, 0, 60, 0
2, 107760, Note_on_c, 0, 60, 80
2, 108215, Note_on_c, 0, 60, 0
2, 108240, Note_on_c, 0, 57, 80
2, 108695, Note_on_c, 0, 57, 0
2, 108720, Note_on_c, 0, 57, 80
2, 109175, Note_on_c, 0, 57, 0
2, 109200, Note_on_c, 0, 57, 80
2, 109427, Note_on_c, 0, 57, 0
2, 109440, Note_on_c, 0, 52, 80
2, 109667, Note_on_c, 0, 52, 0
2, 109680, Note_on_c, 0, 60, 80
2, 110135, Note_on_c, 0, 60, 0
2, 110160, Note_on_c, 0, 60, 80
2, 110615, Note_on_c, 0, 60, 0
2, 110640, Note_on_c, 0, 60, 80
2, 110867, Note_on_c, 0, 60, 0
2, 110880, Note_on_c, 0, 62, 80
2, 111107, Note_on_c, 0, 62, 0
2, 111120, Note_on_c, 0, 60, 80
2, 111575, Note_on_c, 0, 60, 0
2, 111600, Note_on_c, 0, 60, 80
2, 112055, Note_on_c, 0, 60, 0
2, 112080, Note_on_c, 0, 60, 80
2, 112307, Note_on_c, 0, 60, 0
2, 112320, Note_on_c, 0, 59, 80
2, 112547, Note_on_c, 0, 59, 0
2, 112560, Note_on_c, 0, 60, 80
2, 113015, Note_on_c, 0, 60, 0
2, 113040, Note_on_c, 0, 55, 80
2, 113495, Note_on_c, 0, 55, 0
2, 113520, Note_on_c, 0, 55, 80
2, 113747, Note_on_c, 0, 55, 0
2, 113760, Note_on_c, 0, 60, 80
2, 113987, Note_on_c, 0, 60, 0
2, 114000, Note_on_c, 0, 57, 80
2, 114455, Note_on_c, 0, 57, 0
2, 114480, Note_on_c, 0, 57, 80
2, 114935, Note_on_c, 0, 57, 0
2, 114960, Note_on_c, 0, 57, 80
2, 115187, Note_on_c, 0, 57, 0
2, 115200, Note_on_c, 0, 52, 80
2, 115427, Note_on_c, 0, 52, 0
2, 115440, Note_on_c, 0, 60, 80
2, 115895, Note_on_c, 0, 60, 0
2, 115920, Note_on_c, 0, 60, 80
2, 116375, Note_on_c, 0, 60, 0
2, 116400, Note_on_c, 0, 60, 80
2, 116627, Note_on_c, 0, 60, 0
2, 116640, Note_on_c, 0, 62, 80
2, 116867, Note_on_c, 0, 62, 0
2, 116880, Note_on_c, 0, 60, 80
2, 117335, Note_on_c, 0, 60, 0
2, 117360, Note_on_c, 0, 60, 80
2, 117815, Note_on_c, 0, 60, 0
2, 117840, Note_on_c, 0, 60, 80
2, 118067, Note_on_c, 0, 60, 0
2, 118080, Note_on_c, 0, 59, 80
2, 118307, Note_on_c, 0, 59, 0
2, 118320, Note_on_c, 0, 60, 80
2, 118775, Note_on_c, 0, 60, 0
2, 118800, Note_on_c, 0, 60, 80
2, 119255, Note_on_c, 0, 60, 0
2, 119280, Note_on_c, 0, 60, 80
2, 119735, Note_on_c, 0, 60, 0
2, 119760, Note_on_c, 0, 57, 80
2, 120215, Note_on_c, 0, 57, 0
2, 120240, Note_on_c, 0, 57, 80
2, 120695, Note_on_c, 0, 57, 0
2, 120720, Note_on_c, 0, 57, 80
2, 120947, Note_on_c, 0, 57, 0
2, 120960, Note_on_c, 0, 52, 80
2, 121187, Note_on_c, 0, 52, 0
2, 121200, Note_on_c, 0, 60, 80
2, 121655, Note_on_c, 0, 60, 0
2, 121680, Note_on_c, 0, 60, 80
2, 122135, Note_on_c, 0, 60, 0
2, 122160, Note_on_c, 0, 60, 80
2, 122387, Note_on_c, 0, 60, 0
2, 122400, Note_on_c, 0, 62, 80
2, 122627, Note_on_c, 0, 62, 0
2, 122640, Note_on_c, 0, 60, 80
2, 123095, Note_on_c, 0, 60, 0
2, 123120, Note_on_c, 0, 60, 80
2, 123575, Note_on_c, 0, 60, 0
2, 123600, Note_on_c, 0, 60, 80
2, 123827, Note_on_c, 0, 60, 0
2, 123840, Note_on_c, 0, 59, 80
2, 124067, Note_on_c, 0, 59, 0
2, 124080, Note_on_c, 0, 60, 80
2, 124535, Note_on_c, 0, 60, 0
2, 124560, Note_on_c, 0, 55, 80
2, 124919, Note_on_c, 0, 55, 0
2, 125040, Note_on_c, 0, 60, 80
2, 125280, Note_on_c, 0, 53, 80
2, 125495, Note_on_c, 0, 60, 0
2, 125520, Note_on_c, 0, 57, 80
2, 125975, Note_on_c, 0, 57, 0
2, 126000, Note_on_c, 0, 57, 80
2, 126191, Note_on_c, 0, 53, 0
2, 126455, Note_on_c, 0, 57, 0
2, 126480, Note_on_c, 0, 57, 80
2, 126707, Note_on_c, 0, 57, 0
2, 126720, Note_on_c, 0, 52, 80
2, 126947, Note_on_c, 0, 52, 0
2, 126960, Note_on_c, 0, 55, 80
2, 126960, Note_on_c, 0, 60, 80
2, 127415, Note_on_c, 0, 55, 0
2, 127415, Note_on_c, 0, 60, 0
2, 127440, Note_on_c, 0, 55, 80
2, 127440, Note_on_c, 0, 60, 80
2, 127895, Note_on_c, 0, 55, 0
2, 127895, Note_on_c, 0, 60, 0
2, 127920, Note_on_c, 0, 55, 80
2, 127920, Note_on_c, 0, 60, 80
2, 128147, Note_on_c, 0, 55, 0
2, 128147, Note_on_c, 0, 60, 0
2, 128160, Note_on_c, 0, 62, 80
2, 128387, Note_on_c, 0, 62, 0
2, 128400, Note_on_c, 0, 57, 80
2, 128400, Note_on_c, 0, 60, 80
2, 128855, Note_on_c, 0, 57, 0
2, 128855, Note_on_c, 0, 60, 0
2, 128880, Note_on_c, 0, 57, 80
2, 128880, Note_on_c, 0, 60, 80
2, 129335, Note_on_c, 0, 57, 0
2, 129335, Note_on_c, 0, 60, 0
2, 129360, Note_on_c, 0, 57, 80
2, 129360, Note_on_c, 0, 60, 80
2, 129587, Note_on_c, 0, 57, 0
2, 129587, Note_on_c, 0, 60, 0
2, 129600, Note_on_c, 0, 59, 80
2, 129827, Note_on_c, 0, 59, 0
2, 129840, Note_on_c, 0, 55, 80
2, 129840, Note_on_c, 0, 60, 80
2, 130295, Note_on_c, 0, 55, 0
2, 130295, Note_on_c, 0, 60, 0
2, 130320, Note_on_c, 0, 55, 80
2, 130320, Note_on_c, 0, 60, 80
2, 130775, Note_on_c, 0, 55, 0
2, 130775, Note_on_c, 0, 60, 0
2, 130800, Note_on_c, 0, 55, 80
2, 130800, Note_on_c, 0, 60, 80
2, 131027, Note_on_c, 0, 55, 0
2, 131027, Note_on_c, 0, 60, 0
2, 131040, Note_on_c, 0, 60, 80
2, 131267, Note_on_c, 0, 60, 0
2, 131280, Note_on_c, 0, 57, 80
2, 131280, Note_on_c, 0, 60, 80
2, 131735, Note_on_c, 0, 57, 0
2, 131735, Note_on_c, 0, 60, 0
2, 131760, Note_on_c, 0, 57, 80
2, 131760, Note_on_c, 0, 60, 80
2, 132215, Note_on_c, 0, 57, 0
2, 132215, Note_on_c, 0, 60, 0
2, 132240, Note_on_c, 0, 57, 80
2, 132240, Note_on_c, 0, 60, 80
2, 132467, Note_on_c, 0, 57, 0
2, 132467, Note_on_c, 0, 60, 0
2, 132480, Note_on_c, 0, 52, 80
2, 132707, Note_on_c, 0, 52, 0
2, 132720, Note_on_c, 0, 55, 80
2, 132720, Note_on_c, 0, 60, 80
2, 133175, Note_on_c, 0, 55, 0
2, 133175, Note_on_c, 0, 60, 0
2, 133200, Note_on_c, 0, 55, 80
2, 133200, Note_on_c, 0, 60, 80
2, 133655, Note_on_c, 0, 55, 0
2, 133655, Note_on_c, 0, 60, 0
2, 133680, Note_on_c, 0, 55, 80
2, 133680, Note_on_c, 0, 60, 80
2, 133907, Note_on_c, 0, 55, 0
2, 133907, Note_on_c, 0, 60, 0
2, 133920, Note_on_c, 0, 62, 80
2, 134147, Note_on_c, 0, 62, 0
2, 134160, Note_on_c, 0, 57, 80
2, 134160, Note_on_c, 0, 60, 80
2, 134615, Note_on_c, 0, 57, 0
2, 134615, Note_on_c, 0, 60, 0
2, 134640, Note_on_c, 0, 57, 80
2, 134640, Note_on_c, 0, 60, 80
2, 135095, Note_on_c, 0, 57, 0
2, 135095, Note_on_c, 0, 60, 0
2, 135120, Note_on_c, 0, 57, 80
2, 135120, Note_on_c, 0, 60, 80
2, 135347, Note_on_c, 0, 57, 0
2, 135347, Note_on_c, 0, 60, 0
2, 135360, Note_on_c, 0, 59, 80
2, 135587, Note_on_c, 0, 59, 0
2, 135600, Note_on_c, 0, 55, 80
2, 135600, Note_on_c, 0, 60, 80
2, 136055, Note_on_c, 0, 55, 0
2, 136055, Note_on_c, 0, 60, 0
2, 136080, Note_on_c, 0, 55, 80
2, 136080, Note_on_c, 0, 60, 80
2, 136535, Note_on_c, 0, 55, 0
2, 136535, Note_on_c, 0, 60, 0
2, 136560, Note_on_c, 0, 55, 80
2, 136560, Note_on_c, 0, 60, 80
2, 136787, Note_on_c, 0, 55, 0
2, 136787, Note_on_c, 0, 60, 0
2, 136800, Note_on_c, 0, 53, 80
2, 137040, Note_on_c, 0, 57, 80
2, 137040, Note_on_c, 0, 60, 80
2, 137495, Note_on_c, 0, 57, 0
2, 137495, Note_on_c, 0, 60, 0
2, 137520, Note_on_c, 0, 57, 80
2, 137520, Note_on_c, 0, 60, 80
2, 137711, Note_on_c, 0, 53, 0
2, 137975, Note_on_c, 0, 57, 0
2, 137975, Note_on_c, 0, 60, 0
2, 138000, Note_on_c, 0, 57, 80
2, 138000, Note_on_c, 0, 60, 80
2, 138227, Note_on_c, 0, 57, 0
2, 138227, Note_on_c, 0, 60, 0
2, 138240, Note_on_c, 0, 48, 80
2, 138240, Note_on_c, 0, 52, 80
2, 138479, Note_on_c, 0, 52, 0
2, 138480, Note_on_c, 0, 55, 80
2, 138480, Note_on_c, 0, 60, 80
2, 138923, Note_on_c, 0, 48, 0
2, 138935, Note_on_c, 0, 55, 0
2, 138935, Note_on_c, 0, 60, 0
2, 138960, Note_on_c, 0, 48, 80
2, 138960, Note_on_c, 0, 55, 80
2, 138960, Note_on_c, 0, 60, 80
2, 139415, Note_on_c, 0, 48, 0
2, 139415, Note_on_c, 0, 55, 0
2, 139415, Note_on_c, 0, 60, 0
2, 139440, Note_on_c, 0, 48, 80
2, 139440, Note_on_c, 0, 55, 80
2, 139440, Note_on_c, 0, 60, 80
2, 139667, Note_on_c, 0, 48, 0
2, 139667, Note_on_c, 0, 55, 0
2, 139667, Note_on_c, 0, 60, 0
2, 139680, Note_on_c, 0, 62, 80
2, 139907, Note_on_c, 0, 62, 0
2, 139920, Note_on_c, 0, 57, 80
2, 139920, Note_on_c, 0, 60, 80
2, 140375, Note_on_c, 0, 57, 0
2, 140375, Note_on_c, 0, 60, 0
2, 140400, Note_on_c, 0, 53, 80
2, 140400, Note_on_c, 0, 57, 80
2, 140400, Note_on_c, 0, 60, 80
2, 140855, Note_on_c, 0, 53, 0
2, 140855, Note_on_c, 0, 57, 0
2, 140855, Note_on_c, 0, 60, 0
2, 140880, Note_on_c, 0, 53, 80
2, 140880, Note_on_c, 0, 57, 80
2, 140880, Note_on_c, 0, 60, 80
2, 141107, Note_on_c, 0, 53, 0
2, 141107, Note_on_c, 0, 57, 0
2, 141107, Note_on_c, 0, 60, 0
2, 141120, Note_on_c, 0, 59, 80
2, 141347, Note_on_c, 0, 59, 0
2, 141360, Note_on_c, 0, 55, 80
2, 141360, Note_on_c, 0, 60, 80
2, 141815, Note_on_c, 0, 55, 0
2, 141815, Note_on_c, 0, 60, 0
2, 141840, Note_on_c, 0, 55, 80
2, 141840, Note_on_c, 0, 60, 80
2, 142295, Note_on_c, 0, 55, 0
2, 142295, Note_on_c, 0, 60, 0
2, 142320, Note_on_c, 0, 55, 80
2, 142320, Note_on_c, 0, 60, 80
2, 142547, Note_on_c, 0, 55, 0
2, 142547, Note_on_c, 0, 60, 0
2, 142560, Note_on_c, 0, 53, 80
2, 142787, Note_on_c, 0, 53, 0
2, 142800, Note_on_c, 0, 53, 80
2, 142800, Note_on_c, 0, 57, 80
2, 142800, Note_on_c, 0, 60, 80
2, 143255, Note_on_c, 0, 53, 0
2, 143255, Note_on_c, 0, 57, 0
2, 143255, Note_on_c, 0, 60, 0
2, 143280, Note_on_c, 0, 57, 80
2, 143280, Note_on_c, 0, 60, 80
2, 143280, Note_on_c, 0, 53, 80
2, 143507, Note_on_c, 0, 53, 0
2, 143735, Note_on_c, 0, 57, 0
2, 143735, Note_on_c, 0, 60, 0
2, 143760, Note_on_c, 0, 53, 80
2, 143760, Note_on_c, 0, 57, 80
2, 143760, Note_on_c, 0, 60, 80
2, 143987, Note_on_c, 0, 53, 0
2, 143987, Note_on_c, 0, 57, 0
2, 143987, Note_on_c, 0, 60, 0
2, 144000, Note_on_c, 0, 48, 80
2, 144000, Note_on_c, 0, 52, 80
2, 144227, Note_on_c, 0, 48, 0
2, 144227, Note_on_c, 0, 52, 0
2, 144240, Note_on_c, 0, 48, 80
2, 144240, Note_on_c, 0, 55, 80
2, 144240, Note_on_c, 0, 60, 80
2, 144695, Note_on_c, 0, 48, 0
2, 144695, Note_on_c, 0, 55, 0
2, 144695, Note_on_c, 0, 60, 0
2, 144720, Note_on_c, 0, 48, 80
2, 144720, Note_on_c, 0, 55, 80
2, 144720, Note_on_c, 0, 60, 80
2, 145175, Note_on_c, 0, 48, 0
2, 145175, Note_on_c, 0, 55, 0
2, 145175, Note_on_c, 0, 60, 0
2, 145200, Note_on_c, 0, 48, 80
2, 145200, Note_on_c, 0, 55, 80
2, 145200, Note_on_c, 0, 60, 80
2, 145427, Note_on_c, 0, 48, 0
2, 145427, Note_on_c, 0, 55, 0
2, 145427, Note_on_c, 0, 60, 0
2, 145440, Note_on_c, 0, 62, 80
2, 145667, Note_on_c, 0, 62, 0
2, 145680, Note_on_c, 0, 53, 80
2, 145680, Note_on_c, 0, 57, 80
2, 145680, Note_on_c, 0, 60, 80
2, 146135, Note_on_c, 0, 53, 0
2, 146135, Note_on_c, 0, 57, 0
2, 146135, Note_on_c, 0, 60, 0
2, 146160, Note_on_c, 0, 53, 80
2, 146160, Note_on_c, 0, 57, 80
2, 146160, Note_on_c, 0, 60, 80
2, 146615, Note_on_c, 0, 53, 0
2, 146615, Note_on_c, 0, 57, 0
2, 146615, Note_on_c, 0, 60, 0
2, 146640, Note_on_c, 0, 53, 80
2, 146640, Note_on_c, 0, 57, 80
2, 146640, Note_on_c, 0, 60, 80
2, 146867, Note_on_c, 0, 53, 0
2, 146867, Note_on_c, 0, 57, 0
2, 146867, Note_on_c, 0, 60, 0
2, 146880, Note_on_c, 0, 59, 80
2, 147107, Note_on_c, 0, 59, 0
2, 147120, Note_on_c, 0, 55, 80
2, 147120, Note_on_c, 0, 60, 80
2, 147575, Note_on_c, 0, 55, 0
2, 147575, Note_on_c, 0, 60, 0
2, 147600, Note_on_c, 0, 55, 80
2, 147600, Note_on_c, 0, 60, 80
2, 148055, Note_on_c, 0, 55, 0
2, 148055, Note_on_c, 0, 60, 0
2, 148080, Note_on_c, 0, 55, 80
2, 148080, Note_on_c, 0, 60, 80
2, 148307, Note_on_c, 0, 55, 0
2, 148307, Note_on_c, 0, 60, 0
2, 148320, Note_on_c, 0, 53, 80
2, 148547, Note_on_c, 0, 53, 0
2, 148560, Note_on_c, 0, 53, 80
2, 148560, Note_on_c, 0, 57, 80
2, 148560, Note_on_c, 0, 60, 80
2, 149015, Note_on_c, 0, 53, 0
2, 149015, Note_on_c, 0, 57, 0
2, 149015, Note_on_c, 0, 60, 0
2, 149040, Note_on_c, 0, 57, 80
2, 149040, Note_on_c, 0, 60, 80
2, 149040, Note_on_c, 0, 53, 80
2, 149267, Note_on_c, 0, 53, 0
2, 149495, Note_on_c, 0, 57, 0
2, 149495, Note_on_c, 0, 60, 0
2, 149520, Note_on_c, 0, 53, 80
2, 149520, Note_on_c, 0, 57, 80
2, 149520, Note_on_c, 0, 60, 80
2, 149747, Note_on_c, 0, 53, 0
2, 149747, Note_on_c, 0, 57, 0
2, 149747, Note_on_c, 0, 60, 0
2, 149760, Note_on_c, 0, 55, 80
2, 149999, Note_on_c, 0, 55, 0
2, 150000, Note_on_c, 0, 55, 80
2, 150240, Note_on_c, 0, 59, 80
2, 150359, Note_on_c, 0, 55, 0
2, 150467, Note_on_c, 0, 59, 0
2, 150480, Note_on_c, 0, 62, 80
2, 150707, Note_on_c, 0, 62, 0
2, 150720, Note_on_c, 0, 67, 80
2, 150960, Note_on_c, 0, 55, 80
2, 151175, Note_on_c, 0, 67, 0
2, 151187, Note_on_c, 0, 55, 0
2, 151200, Note_on_c, 0, 57, 80
2, 151883, Note_on_c, 0, 57, 0
2, 151920, Note_on_c, 0, 57, 80
2, 152375, Note_on_c, 0, 57, 0
2, 152400, Note_on_c, 0, 57, 80
2, 152627, Note_on_c, 0, 57, 0
2, 152640, Note_on_c, 0, 53, 80
2, 152879, Note_on_c, 0, 53, 0
2, 152880, Note_on_c, 0, 53, 80
2, 153120, Note_on_c, 0, 57, 80
2, 153239, Note_on_c, 0, 53, 0
2, 153347, Note_on_c, 0, 57, 0
2, 153360, Note_on_c, 0, 60, 80
2, 153587, Note_on_c, 0, 60, 0
2, 153840, Note_on_c, 0, 57, 80
2, 154067, Note_on_c, 0, 57, 0
2, 154080, Note_on_c, 0, 48, 80
2, 154080, Note_on_c, 0, 60, 80
2, 154763, Note_on_c, 0, 48, 0
2, 154763, Note_on_c, 0, 60, 0
2, 154800, Note_on_c, 0, 48, 80
2, 154800, Note_on_c, 0, 60, 80
2, 155027, Note_on_c, 0, 48, 0
2, 155027, Note_on_c, 0, 60, 0
2, 155040, Note_on_c, 0, 53, 80
2, 155040, Note_on_c, 0, 60, 80
2, 155495, Note_on_c, 0, 53, 0
2, 155495, Note_on_c, 0, 60, 0
2, 155520, Note_on_c, 0, 55, 80
2, 156203, Note_on_c, 0, 55, 0
2, 156240, Note_on_c, 0, 55, 80
2, 156695, Note_on_c, 0, 55, 0
2, 156720, Note_on_c, 0, 55, 80
2, 156947, Note_on_c, 0, 55, 0
2, 156960, Note_on_c, 0, 57, 80
2, 157643, Note_on_c, 0, 57, 0
2, 157680, Note_on_c, 0, 57, 80
2, 157907, Note_on_c, 0, 57, 0
2, 157920, Note_on_c, 0, 60, 80
2, 158375, Note_on_c, 0, 60, 0
2, 158400, Note_on_c, 0, 53, 80
2, 159083, Note_on_c, 0, 53, 0
2, 159120, Note_on_c, 0, 53, 80
2, 159575, Note_on_c, 0, 53, 0
2, 159600, Note_on_c, 0, 57, 80
2, 159827, Note_on_c, 0, 57, 0
2, 159840, Note_on_c, 0, 60, 80
2, 160523, Note_on_c, 0, 60, 0
2, 160560, Note_on_c, 0, 60, 80
2, 160787, Note_on_c, 0, 60, 0
2, 160800, Note_on_c, 0, 53, 80
2, 161255, Note_on_c, 0, 53, 0
2, 161280, Note_on_c, 0, 55, 80
2, 161519, Note_on_c, 0, 55, 0
2, 161520, Note_on_c, 0, 55, 80
2, 161760, Note_on_c, 0, 59, 80
2, 161879, Note_on_c, 0, 55, 0
2, 161987, Note_on_c, 0, 59, 0
2, 162000, Note_on_c, 0, 62, 80
2, 162227, Note_on_c, 0, 62, 0
2, 162240, Note_on_c, 0, 67, 80
2, 162480, Note_on_c, 0, 55, 80
2, 162695, Note_on_c, 0, 67, 0
2, 162707, Note_on_c, 0, 55, 0
2, 162720, Note_on_c, 0, 57, 80
2, 163403, Note_on_c, 0, 57, 0
2, 163440, Note_on_c, 0, 57, 80
2, 163895, Note_on_c, 0, 57, 0
2, 163920, Note_on_c, 0, 57, 80
2, 164147, Note_on_c, 0, 57, 0
2, 164160, Note_on_c, 0, 53, 80
2, 164399, Note_on_c, 0, 53, 0
2, 164400, Note_on_c, 0, 53, 80
2, 164640, Note_on_c, 0, 57, 80
2, 164759, Note_on_c, 0, 53, 0
2, 164867, Note_on_c, 0, 57, 0
2, 164880, Note_on_c, 0, 60, 80
2, 165107, Note_on_c, 0, 60, 0
2, 165360, Note_on_c, 0, 57, 80
2, 165587, Note_on_c, 0, 57, 0
2, 165600, Note_on_c, 0, 48, 80
2, 165600, Note_on_c, 0, 60, 80
2, 166283, Note_on_c, 0, 48, 0
2, 166283, Note_on_c, 0, 60, 0
2, 166320, Note_on_c, 0, 48, 80
2, 166320, Note_on_c, 0, 60, 80
2, 166547, Note_on_c, 0, 48, 0
2, 166547, Note_on_c, 0, 60, 0
2, 166560, Note_on_c, 0, 53, 80
2, 166560, Note_on_c, 0, 60, 80
2, 167015, Note_on_c, 0, 53, 0
2, 167015, Note_on_c, 0, 60, 0
2, 167040, Note_on_c, 0, 55, 80
2, 167723, Note_on_c, 0, 55, 0
2, 167760, Note_on_c, 0, 55, 80
2, 168215, Note_on_c, 0, 55, 0
2, 168240, Note_on_c, 0, 55, 80
2, 168467, Note_on_c, 0, 55, 0
2, 168480, Note_on_c, 0, 57, 80
2, 169163, Note_on_c, 0, 57, 0
2, 169200, Note_on_c, 0, 57, 80
2, 169427, Note_on_c, 0, 57, 0
2, 169440, Note_on_c, 0, 60, 80
2, 169895, Note_on_c, 0, 60, 0
2, 169920, Note_on_c, 0, 53, 80
2, 170603, Note_on_c, 0, 53, 0
2, 170640, Note_on_c, 0, 53, 80
2, 171095, Note_on_c, 0, 53, 0
2, 171120, Note_on_c, 0, 57, 80
2, 171347, Note_on_c, 0, 57, 0
2, 171360, Note_on_c, 0, 60, 80
2, 171815, Note_on_c, 0, 60, 0
2, 172560, Note_on_c, 0, 53, 80
2, 172787, Note_on_c, 0, 53, 0
2, 173040, Note_on_c, 0, 53, 80
2, 173267, Note_on_c, 0, 53, 0
2, 173280, Note_on_c, 0, 55, 80
2, 173963, Note_on_c, 0, 55, 0
2, 174000, Note_on_c, 0, 55, 80
2, 174227, Note_on_c, 0, 55, 0
2, 174240, Note_on_c, 0, 50, 80
2, 174695, Note_on_c, 0, 50, 0
2, 174720, Note_on_c, 0, 53, 80
2, 175175, Note_on_c, 0, 53, 0
2, 175200, Note_on_c, 0, 53, 80
2, 175883, Note_on_c, 0, 53, 0
2, 175920, Note_on_c, 0, 53, 80
2, 176147, Note_on_c, 0, 53, 0
2, 176160, Note_on_c, 0, 48, 80
2, 176615, Note_on_c, 0, 48, 0
2, 176640, Note_on_c, 0, 50, 80
2, 177095, Note_on_c, 0, 50, 0
2, 177120, Note_on_c, 0, 55, 80
2, 178487, Note_on_c, 0, 55, 0
2, 178800, Note_on_c, 0, 53, 80
2, 179027, Note_on_c, 0, 53, 0
2, 179040, Note_on_c, 0, 55, 80
2, 179267, Note_on_c, 0, 55, 0
2, 179280, Note_on_c, 0, 55, 80
2, 179399, Note_on_c, 0, 55, 0
2, 179760, Note_on_c, 0, 55, 80
2, 180899, Note_on_c, 0, 55, 0
2, 180960, Note_on_c, 0, 55, 80
2, 181643, Note_on_c, 0, 55, 0
2, 181680, Note_on_c, 0, 55, 80
2, 181907, Note_on_c, 0, 55, 0
2, 181920, Note_on_c, 0, 50, 80
2, 182375, Note_on_c, 0, 50, 0
2, 182400, Note_on_c, 0, 53, 80
2, 182855, Note_on_c, 0, 53, 0
2, 182880, Note_on_c, 0, 53, 80
2, 183563, Note_on_c, 0, 53, 0
2, 183600, Note_on_c, 0, 53, 80
2, 183827, Note_on_c, 0, 53, 0
2, 183840, Note_on_c, 0, 48, 80
2, 184295, Note_on_c, 0, 48, 0
2, 184320, Note_on_c, 0, 50, 80
2, 184775, Note_on_c, 0, 50, 0
2, 184800, Note_on_c, 0, 55, 80
2, 186167, Note_on_c, 0, 55, 0
2, 186480, Note_on_c, 0, 53, 80
2, 186707, Note_on_c, 0, 53, 0
2, 186720, Note_on_c, 0, 55, 80
2, 186947, Note_on_c, 0, 55, 0
2, 186960, Note_on_c, 0, 55, 80
2, 187079, Note_on_c, 0, 55, 0
2, 187440, Note_on_c, 0, 55, 80
2, 188351, Note_on_c, 0, 55, 0
2, 188640, Note_on_c, 0, 55, 80
2, 189323, Note_on_c, 0, 55, 0
2, 189360, Note_on_c, 0, 55, 80
2, 189587, Note_on_c, 0, 55, 0
2, 189600, Note_on_c, 0, 50, 80
2, 190055, Note_on_c, 0, 50, 0
2, 190080, Note_on_c, 0, 53, 80
2, 190535, Note_on_c, 0, 53, 0
2, 190560, Note_on_c, 0, 53, 80
2, 191243, Note_on_c, 0, 53, 0
2, 191280, Note_on_c, 0, 53, 80
2, 191507, Note_on_c, 0, 53, 0
2, 191520, Note_on_c, 0, 48, 80
2, 191975, Note_on_c, 0, 48, 0
2, 192000, Note_on_c, 0, 50, 80
2, 192455, Note_on_c, 0, 50, 0
2, 192480, Note_on_c, 0, 55, 80
2, 193391, Note_on_c, 0, 55, 0
2, 193920, Note_on_c, 0, 55, 80
2, 194147, Note_on_c, 0, 55, 0
2, 194160, Note_on_c, 0, 53, 80
2, 194387, Note_on_c, 0, 53, 0
2, 194400, Note_on_c, 0, 55, 80
2, 194627, Note_on_c, 0, 55, 0
2, 194640, Note_on_c, 0, 55, 80
2, 194759, Note_on_c, 0, 55, 0
2, 195120, Note_on_c, 0, 55, 80
2, 196031, Note_on_c, 0, 55, 0
2, 196320, Note_on_c, 0, 55, 80
2, 197003, Note_on_c, 0, 55, 0
2, 197040, Note_on_c, 0, 55, 80
2, 197267, Note_on_c, 0, 55, 0
2, 197280, Note_on_c, 0, 50, 80
2, 197735, Note_on_c, 0, 50, 0
2, 197760, Note_on_c, 0, 53, 80
2, 198215, Note_on_c, 0, 53, 0
2, 198240, Note_on_c, 0, 53, 80
2, 198923, Note_on_c, 0, 53, 0
2, 198960, Note_on_c, 0, 53, 80
2, 199187, Note_on_c, 0, 53, 0
2, 199200, Note_on_c, 0, 48, 80
2, 199655, Note_on_c, 0, 48, 0
2, 199680, Note_on_c, 0, 50, 80
2, 200135, Note_on_c, 0, 50, 0
2, 200160, Note_on_c, 0, 55, 80
2, 200399, Note_on_c, 0, 55, 0
2, 201840, Note_on_c, 0, 53, 80
2, 202067, Note_on_c, 0, 53, 0
2, 202080, Note_on_c, 0, 55, 80
2, 202307, Note_on_c, 0, 55, 0
2, 202320, Note_on_c, 0, 55, 80
2, 202439, Note_on_c, 0, 55, 0
2, 202800, Note_on_c, 0, 55, 80
2, 203939, Note_on_c, 0, 55, 0
2, 204000, Note_on_c, 0, 55, 80
2, 204683, Note_on_c, 0, 55, 0
2, 204720, Note_on_c, 0, 55, 80
2, 204947, Note_on_c, 0, 55, 0
2, 204960, Note_on_c, 0, 50, 80
2, 205415, Note_on_c, 0, 50, 0
2, 205440, Note_on_c, 0, 53, 80
2, 205895, Note_on_c, 0, 53, 0
2, 205920, Note_on_c, 0, 53, 80
2, 206603, Note_on_c, 0, 53, 0
2, 206640, Note_on_c, 0, 53, 80
2, 206867, Note_on_c, 0, 53, 0
2, 206880, Note_on_c, 0, 48, 80
2, 207335, Note_on_c, 0, 48, 0
2, 207360, Note_on_c, 0, 50, 80
2, 207815, Note_on_c, 0, 50, 0
2, 207840, Note_on_c, 0, 55, 80
2, 208751, Note_on_c, 0, 55, 0
2, 209280, Note_on_c, 0, 55, 80
2, 209507, Note_on_c, 0, 55, 0
2, 209520, Note_on_c, 0, 53, 80
2, 209747, Note_on_c, 0, 53, 0
2, 209760, Note_on_c, 0, 55, 80
2, 209987, Note_on_c, 0, 55, 0
2, 210000, Note_on_c, 0, 55, 80
2, 210119, Note_on_c, 0, 55, 0
2, 210480, Note_on_c, 0, 55, 80
2, 211391, Note_on_c, 0, 55, 0
2, 211680, Note_on_c, 0, 55, 80
2, 212363, Note_on_c, 0, 55, 0
2, 212400, Note_on_c, 0, 55, 80
2, 212627, Note_on_c, 0, 55, 0
2, 212640, Note_on_c, 0, 50, 80
2, 213095, Note_on_c, 0, 50, 0
2, 213120, Note_on_c, 0, 53, 80
2, 213575, Note_on_c, 0, 53, 0
2, 213600, Note_on_c, 0, 53, 80
2, 214283, Note_on_c, 0, 53, 0
2, 214320, Note_on_c, 0, 53, 80
2, 214547, Note_on_c, 0, 53, 0
2, 214560, Note_on_c, 0, 48, 80
2, 215015, Note_on_c, 0, 48, 0
2, 215040, Note_on_c, 0, 50, 80
2, 215495, Note_on_c, 0, 50, 0
2, 215520, Note_on_c, 0, 55, 80
2, 215759, Note_on_c, 0, 55, 0
2, 217200, Note_on_c, 0, 53, 80
2, 217427, Note_on_c, 0, 53, 0
2, 217440, Note_on_c, 0, 55, 80
2, 217667, Note_on_c, 0, 55, 0
2, 217680, Note_on_c, 0, 55, 80
2, 217799, Note_on_c, 0, 55, 0
2, 217920, Note_on_c, 0, 67, 80
2, 218147, Note_on_c, 0, 67, 0
2, 218160, Note_on_c, 0, 55, 80
2, 218387, Note_on_c, 0, 55, 0
2, 218400, Note_on_c, 0, 67, 80
2, 218855, Note_on_c, 0, 67, 0
2, 218880, Note_on_c, 0, 67, 80
2, 219119, Note_on_c, 0, 67, 0
2, 219360, Note_on_c, 0, 55, 80
2, 220043, Note_on_c, 0, 55, 0
2, 220080, Note_on_c, 0, 55, 80
2, 220307, Note_on_c, 0, 55, 0
2, 220320, Note_on_c, 0, 50, 80
2, 220775, Note_on_c, 0, 50, 0
2, 220800, Note_on_c, 0, 53, 80
2, 221255, Note_on_c, 0, 53, 0
2, 221280, Note_on_c, 0, 53, 80
2, 221963, Note_on_c, 0, 53, 0
2, 222000, Note_on_c, 0, 53, 80
2, 222227, Note_on_c, 0, 53, 0
2, 222240, Note_on_c, 0, 48, 80
2, 222695, Note_on_c, 0, 48, 0
2, 222720, Note_on_c, 0, 50, 80
2, 223175, Note_on_c, 0, 50, 0
2, 223200, Note_on_c, 0, 55, 80
2, 224567, Note_on_c, 0, 55, 0
2, 224880, Note_on_c, 0, 53, 80
2, 225107, Note_on_c, 0, 53, 0
2, 225120, Note_on_c, 0, 55, 80
2, 225347, Note_on_c, 0, 55, 0
2, 225360, Note_on_c, 0, 55, 80
2, 225479, Note_on_c, 0, 55, 0
2, 225840, Note_on_c, 0, 55, 80
2, 226979, Note_on_c, 0, 55, 0
2, 227040, Note_on_c, 0, 55, 80
2, 227723, Note_on_c, 0, 55, 0
2, 227760, Note_on_c, 0, 55, 80
2, 227987, Note_on_c, 0, 55, 0
2, 228000, Note_on_c, 0, 50, 80
2, 228455, Note_on_c, 0, 50, 0
2, 228480, Note_on_c, 0, 53, 80
2, 228935, Note_on_c, 0, 53, 0
2, 228960, Note_on_c, 0, 53, 80
2, 229643, Note_on_c, 0, 53, 0
2, 229680, Note_on_c, 0, 53, 80
2, 229907, Note_on_c, 0, 53, 0
2, 229920, Note_on_c, 0, 48, 80
2, 230375, Note_on_c, 0, 48, 0
2, 230400, Note_on_c, 0, 50, 80
2, 230855, Note_on_c, 0, 50, 0
2, 230880, Note_on_c, 0, 55, 80
2, 231563, Note_on_c, 0, 55, 0
2, 231600, Note_on_c, 0, 55, 80
2, 231827, Note_on_c, 0, 55, 0
2, 231840, Note_on_c, 0, 55, 80
2, 232067, Note_on_c, 0, 55, 0
2, 232080, Note_on_c, 0, 55, 80
2, 232307, Note_on_c, 0, 55, 0
2, 232320, Note_on_c, 0, 55, 80
2, 232547, Note_on_c, 0, 55, 0
2, 232560, Note_on_c, 0, 53, 80
2, 232787, Note_on_c, 0, 53, 0
2, 232800, Note_on_c, 0, 55, 80
2, 233027, Note_on_c, 0, 55, 0
2, 233040, Note_on_c, 0, 55, 80
2, 233159, Note_on_c, 0, 55, 0
2, 233520, Note_on_c, 0, 55, 80
2, 234431, Note_on_c, 0, 55, 0
2, 234720, Note_on_c, 0, 55, 80
2, 235403, Note_on_c, 0, 55, 0
2, 235440, Note_on_c, 0, 55, 80
2, 235667, Note_on_c, 0, 55, 0
2, 235680, Note_on_c, 0, 50, 80
2, 236135, Note_on_c, 0, 50, 0
2, 236160, Note_on_c, 0, 53, 80
2, 236615, Note_on_c, 0, 53, 0
2, 236640, Note_on_c, 0, 53, 80
2, 237323, Note_on_c, 0, 53, 0
2, 237360, Note_on_c, 0, 53, 80
2, 237587, Note_on_c, 0, 53, 0
2, 237600, Note_on_c, 0, 48, 80
2, 238055, Note_on_c, 0, 48, 0
2, 238080, Note_on_c, 0, 50, 80
2, 238535, Note_on_c, 0, 50, 0
2, 238560, Note_on_c, 0, 55, 80
2, 239927, Note_on_c, 0, 55, 0
2, 240240, Note_on_c, 0, 53, 80
2, 240467, Note_on_c, 0, 53, 0
2, 240480, Note_on_c, 0, 55, 80
2, 240707, Note_on_c, 0, 55, 0
2, 240720, Note_on_c, 0, 55, 80
2, 240839, Note_on_c, 0, 55, 0
2, 241200, Note_on_c, 0, 55, 80
2, 242111, Note_on_c, 0, 55, 0
2, 242400, Note_on_c, 0, 55, 80
2, 243083, Note_on_c, 0, 55, 0
2, 243120, Note_on_c, 0, 55, 80
2, 243347, Note_on_c, 0, 55, 0
2, 243360, Note_on_c, 0, 50, 80
2, 243815, Note_on_c, 0, 50, 0
2, 243840, Note_on_c, 0, 53, 80
2, 244295, Note_on_c, 0, 53, 0
2, 244320, Note_on_c, 0, 53, 80
2, 245003, Note_on_c, 0, 53, 0
2, 245040, Note_on_c, 0, 53, 80
2, 245267, Note_on_c, 0, 53, 0
2, 245280, Note_on_c, 0, 48, 80
2, 245735, Note_on_c, 0, 48, 0
2, 245760, Note_on_c, 0, 50, 80
2, 246215, Note_on_c, 0, 50, 0
2, 246240, Note_on_c, 0, 48, 80
2, 246923, Note_on_c, 0, 48, 0
2, 246960, Note_on_c, 0, 48, 80
2, 247187, Note_on_c, 0, 48, 0
2, 247200, Note_on_c, 0, 48, 80
2, 247655, Note_on_c, 0, 48, 0
2, 247680, Note_on_c, 0, 53, 80
2, 248135, Note_on_c, 0, 53, 0
2, 248160, Note_on_c, 0, 55, 80
2, 249983, Note_on_c, 0, 55, 0
2, 249984, End_track
3, 0, Start_track
3, 0, Title_t, "Electric Bass, Bass\000"
3, 0, Key_signature, 0, "major"
3, 0, Control_c, 1, 121, 0
3, 0, Program_c, 1, 33
3, 0, Control_c, 1, 7, 100
3, 0, Control_c, 1, 10, 64
3, 0, Control_c, 1, 91, 0
3, 0, Control_c, 1, 93, 0
3, 0, MIDI_port, 0
3, 0, Control_c, 2, 121, 0
3, 0, Program_c, 2, 36
3, 0, Control_c, 2, 7, 100
3, 0, Control_c, 2, 10, 64
3, 0, Control_c, 2, 91, 0
3, 0, Control_c, 2, 93, 0
3, 0, MIDI_port, 0
3, 0, Control_c, 3, 121, 0
3, 0, Program_c, 3, 37
3, 0, Control_c, 3, 7, 100
3, 0, Control_c, 3, 10, 64
3, 0, Control_c, 3, 91, 0
3, 0, Control_c, 3, 93, 0
3, 0, MIDI_port, 0
3, 23040, Note_on_c, 1, 48, 80
3, 23759, Note_on_c, 1, 48, 0
3, 23760, Note_on_c, 1, 48, 80
3, 24239, Note_on_c, 1, 48, 0
3, 24240, Note_on_c, 1, 48, 80
3, 24479, Note_on_c, 1, 48, 0
3, 24480, Note_on_c, 1, 53, 80
3, 25199, Note_on_c, 1, 53, 0
3, 25200, Note_on_c, 1, 53, 80
3, 25679, Note_on_c, 1, 53, 0
3, 25680, Note_on_c, 1, 53, 80
3, 25919, Note_on_c, 1, 53, 0
3, 25920, Note_on_c, 1, 55, 80
3, 26639, Note_on_c, 1, 55, 0
3, 26640, Note_on_c, 1, 55, 80
3, 27119, Note_on_c, 1, 55, 0
3, 27120, Note_on_c, 1, 55, 80
3, 27359, Note_on_c, 1, 55, 0
3, 27360, Note_on_c, 1, 53, 80
3, 28079, Note_on_c, 1, 53, 0
3, 28080, Note_on_c, 1, 53, 80
3, 28319, Note_on_c, 1, 53, 0
3, 28320, Note_on_c, 1, 52, 80
3, 28799, Note_on_c, 1, 52, 0
3, 28800, Note_on_c, 1, 48, 80
3, 29519, Note_on_c, 1, 48, 0
3, 29520, Note_on_c, 1, 48, 80
3, 29999, Note_on_c, 1, 48, 0
3, 30000, Note_on_c, 1, 48, 80
3, 30239, Note_on_c, 1, 48, 0
3, 30240, Note_on_c, 1, 53, 80
3, 30959, Note_on_c, 1, 53, 0
3, 30960, Note_on_c, 1, 53, 80
3, 31439, Note_on_c, 1, 53, 0
3, 31440, Note_on_c, 1, 53, 80
3, 31679, Note_on_c, 1, 53, 0
3, 31680, Note_on_c, 1, 55, 80
3, 32399, Note_on_c, 1, 55, 0
3, 32400, Note_on_c, 1, 55, 80
3, 32879, Note_on_c, 1, 55, 0
3, 32880, Note_on_c, 1, 55, 80
3, 33119, Note_on_c, 1, 55, 0
3, 33120, Note_on_c, 1, 53, 80
3, 33839, Note_on_c, 1, 53, 0
3, 33840, Note_on_c, 1, 53, 80
3, 34079, Note_on_c, 1, 53, 0
3, 34080, Note_on_c, 1, 52, 80
3, 34559, Note_on_c, 1, 52, 0
3, 34560, Note_on_c, 1, 48, 80
3, 35279, Note_on_c, 1, 48, 0
3, 35280, Note_on_c, 1, 48, 80
3, 35759, Note_on_c, 1, 48, 0
3, 35760, Note_on_c, 1, 48, 80
3, 35999, Note_on_c, 1, 48, 0
3, 36000, Note_on_c, 1, 53, 80
3, 36719, Note_on_c, 1, 53, 0
3, 36720, Note_on_c, 1, 53, 80
3, 37199, Note_on_c, 1, 53, 0
3, 37200, Note_on_c, 1, 53, 80
3, 37439, Note_on_c, 1, 53, 0
3, 37440, Note_on_c, 1, 55, 80
3, 38159, Note_on_c, 1, 55, 0
3, 38160, Note_on_c, 1, 55, 80
3, 38639, Note_on_c, 1, 55, 0
3, 38640, Note_on_c, 1, 55, 80
3, 38879, Note_on_c, 1, 55, 0
3, 38880, Note_on_c, 1, 53, 80
3, 39599, Note_on_c, 1, 53, 0
3, 39600, Note_on_c, 1, 53, 80
3, 39839, Note_on_c, 1, 53, 0
3, 39840, Note_on_c, 1, 52, 80
3, 40319, Note_on_c, 1, 52, 0
3, 40320, Note_on_c, 1, 48, 80
3, 41039, Note_on_c, 1, 48, 0
3, 41040, Note_on_c, 1, 48, 80
3, 41519, Note_on_c, 1, 48, 0
3, 41520, Note_on_c, 1, 48, 80
3, 41759, Note_on_c, 1, 48, 0
3, 41760, Note_on_c, 1, 53, 80
3, 42479, Note_on_c, 1, 53, 0
3, 42480, Note_on_c, 1, 53, 80
3, 42959, Note_on_c, 1, 53, 0
3, 42960, Note_on_c, 1, 53, 80
3, 43199, Note_on_c, 1, 53, 0
3, 43200, Note_on_c, 1, 55, 80
3, 43919, Note_on_c, 1, 55, 0
3, 43920, Note_on_c, 1, 55, 80
3, 44399, Note_on_c, 1, 55, 0
3, 44400, Note_on_c, 1, 55, 80
3, 44639, Note_on_c, 1, 55, 0
3, 44640, Note_on_c, 1, 53, 80
3, 45359, Note_on_c, 1, 53, 0
3, 45360, Note_on_c, 1, 53, 80
3, 45599, Note_on_c, 1, 53, 0
3, 45600, Note_on_c, 1, 52, 80
3, 46079, Note_on_c, 1, 52, 0
3, 46080, Note_on_c, 1, 55, 80
3, 46799, Note_on_c, 1, 55, 0
3, 46800, Note_on_c, 1, 55, 80
3, 47279, Note_on_c, 1, 55, 0
3, 47280, Note_on_c, 1, 55, 80
3, 47519, Note_on_c, 1, 55, 0
3, 47520, Note_on_c, 1, 57, 80
3, 48239, Note_on_c, 1, 57, 0
3, 48240, Note_on_c, 1, 57, 80
3, 48719, Note_on_c, 1, 57, 0
3, 48720, Note_on_c, 1, 57, 80
3, 48959, Note_on_c, 1, 57, 0
3, 48960, Note_on_c, 1, 53, 80
3, 49679, Note_on_c, 1, 53, 0
3, 49680, Note_on_c, 1, 53, 80
3, 50159, Note_on_c, 1, 53, 0
3, 50160, Note_on_c, 1, 57, 80
3, 50399, Note_on_c, 1, 57, 0
3, 50400, Note_on_c, 1, 60, 80
3, 51119, Note_on_c, 1, 60, 0
3, 51120, Note_on_c, 1, 60, 80
3, 51359, Note_on_c, 1, 60, 0
3, 51360, Note_on_c, 1, 53, 80
3, 51839, Note_on_c, 1, 53, 0
3, 51840, Note_on_c, 1, 55, 80
3, 52559, Note_on_c, 1, 55, 0
3, 52560, Note_on_c, 1, 55, 80
3, 53039, Note_on_c, 1, 55, 0
3, 53040, Note_on_c, 1, 55, 80
3, 53279, Note_on_c, 1, 55, 0
3, 53280, Note_on_c, 1, 57, 80
3, 53999, Note_on_c, 1, 57, 0
3, 54000, Note_on_c, 1, 57, 80
3, 54239, Note_on_c, 1, 57, 0
3, 54240, Note_on_c, 1, 60, 80
3, 54719, Note_on_c, 1, 60, 0
3, 54720, Note_on_c, 1, 53, 80
3, 55439, Note_on_c, 1, 53, 0
3, 55440, Note_on_c, 1, 53, 80
3, 55919, Note_on_c, 1, 53, 0
3, 55920, Note_on_c, 1, 57, 80
3, 56159, Note_on_c, 1, 57, 0
3, 56160, Note_on_c, 1, 60, 80
3, 56879, Note_on_c, 1, 60, 0
3, 56880, Note_on_c, 1, 60, 80
3, 57119, Note_on_c, 1, 60, 0
3, 57120, Note_on_c, 1, 53, 80
3, 57599, Note_on_c, 1, 53, 0
3, 57600, Note_on_c, 1, 55, 80
3, 58319, Note_on_c, 1, 55, 0
3, 58320, Note_on_c, 1, 55, 80
3, 58799, Note_on_c, 1, 55, 0
3, 58800, Note_on_c, 1, 55, 80
3, 59039, Note_on_c, 1, 55, 0
3, 59040, Note_on_c, 1, 57, 80
3, 59759, Note_on_c, 1, 57, 0
3, 59760, Note_on_c, 1, 57, 80
3, 60239, Note_on_c, 1, 57, 0
3, 60240, Note_on_c, 1, 57, 80
3, 60479, Note_on_c, 1, 57, 0
3, 60480, Note_on_c, 1, 53, 80
3, 61199, Note_on_c, 1, 53, 0
3, 61200, Note_on_c, 1, 53, 80
3, 61679, Note_on_c, 1, 53, 0
3, 61680, Note_on_c, 1, 57, 80
3, 61919, Note_on_c, 1, 57, 0
3, 61920, Note_on_c, 1, 60, 80
3, 62639, Note_on_c, 1, 60, 0
3, 62640, Note_on_c, 1, 60, 80
3, 62879, Note_on_c, 1, 60, 0
3, 62880, Note_on_c, 1, 53, 80
3, 63359, Note_on_c, 1, 53, 0
3, 63360, Note_on_c, 1, 55, 80
3, 64079, Note_on_c, 1, 55, 0
3, 64080, Note_on_c, 1, 55, 80
3, 64559, Note_on_c, 1, 55, 0
3, 64560, Note_on_c, 1, 55, 80
3, 64799, Note_on_c, 1, 55, 0
3, 64800, Note_on_c, 1, 57, 80
3, 65519, Note_on_c, 1, 57, 0
3, 65520, Note_on_c, 1, 57, 80
3, 65759, Note_on_c, 1, 57, 0
3, 65760, Note_on_c, 1, 60, 80
3, 66239, Note_on_c, 1, 60, 0
3, 66240, Note_on_c, 1, 53, 80
3, 66959, Note_on_c, 1, 53, 0
3, 66960, Note_on_c, 1, 53, 80
3, 67439, Note_on_c, 1, 53, 0
3, 67440, Note_on_c, 1, 57, 80
3, 67679, Note_on_c, 1, 57, 0
3, 67680, Note_on_c, 1, 60, 80
3, 68399, Note_on_c, 1, 60, 0
3, 68400, Note_on_c, 1, 60, 80
3, 68639, Note_on_c, 1, 60, 0
3, 68640, Note_on_c, 1, 53, 80
3, 69119, Note_on_c, 1, 53, 0
3, 69120, Note_on_c, 1, 55, 80
3, 69839, Note_on_c, 1, 55, 0
3, 69840, Note_on_c, 1, 55, 80
3, 70319, Note_on_c, 1, 55, 0
3, 70320, Note_on_c, 1, 55, 80
3, 70559, Note_on_c, 1, 55, 0
3, 70560, Note_on_c, 1, 57, 80
3, 71279, Note_on_c, 1, 57, 0
3, 71280, Note_on_c, 1, 57, 80
3, 71519, Note_on_c, 1, 57, 0
3, 71520, Note_on_c, 1, 60, 80
3, 71999, Note_on_c, 1, 60, 0
3, 72000, Note_on_c, 1, 53, 80
3, 72719, Note_on_c, 1, 53, 0
3, 72720, Note_on_c, 1, 53, 80
3, 73199, Note_on_c, 1, 53, 0
3, 73200, Note_on_c, 1, 57, 80
3, 73439, Note_on_c, 1, 57, 0
3, 73440, Note_on_c, 1, 60, 80
3, 74159, Note_on_c, 1, 60, 0
3, 74160, Note_on_c, 1, 60, 80
3, 74399, Note_on_c, 1, 60, 0
3, 74400, Note_on_c, 1, 53, 80
3, 74879, Note_on_c, 1, 53, 0
3, 74880, Note_on_c, 1, 55, 80
3, 75599, Note_on_c, 1, 55, 0
3, 75600, Note_on_c, 1, 55, 80
3, 76079, Note_on_c, 1, 55, 0
3, 76080, Note_on_c, 1, 55, 80
3, 76319, Note_on_c, 1, 55, 0
3, 76320, Note_on_c, 1, 57, 80
3, 77039, Note_on_c, 1, 57, 0
3, 77040, Note_on_c, 1, 57, 80
3, 77279, Note_on_c, 1, 57, 0
3, 77280, Note_on_c, 1, 60, 80
3, 77759, Note_on_c, 1, 60, 0
3, 77760, Note_on_c, 1, 53, 80
3, 78479, Note_on_c, 1, 53, 0
3, 78480, Note_on_c, 1, 53, 80
3, 78959, Note_on_c, 1, 53, 0
3, 78960, Note_on_c, 1, 57, 80
3, 79199, Note_on_c, 1, 57, 0
3, 79200, Note_on_c, 1, 60, 80
3, 79919, Note_on_c, 1, 60, 0
3, 79920, Note_on_c, 1, 60, 80
3, 80159, Note_on_c, 1, 60, 0
3, 80160, Note_on_c, 1, 53, 80
3, 80639, Note_on_c, 1, 53, 0
3, 80640, Note_on_c, 1, 55, 80
3, 81359, Note_on_c, 1, 55, 0
3, 81360, Note_on_c, 1, 55, 80
3, 81839, Note_on_c, 1, 55, 0
3, 81840, Note_on_c, 1, 55, 80
3, 82079, Note_on_c, 1, 55, 0
3, 82080, Note_on_c, 1, 57, 80
3, 82799, Note_on_c, 1, 57, 0
3, 82800, Note_on_c, 1, 57, 80
3, 83039, Note_on_c, 1, 57, 0
3, 83040, Note_on_c, 1, 60, 80
3, 83519, Note_on_c, 1, 60, 0
3, 83520, Note_on_c, 1, 53, 80
3, 84239, Note_on_c, 1, 53, 0
3, 84240, Note_on_c, 1, 53, 80
3, 84719, Note_on_c, 1, 53, 0
3, 84720, Note_on_c, 1, 57, 80
3, 84959, Note_on_c, 1, 57, 0
3, 84960, Note_on_c, 1, 60, 80
3, 85679, Note_on_c, 1, 60, 0
3, 85680, Note_on_c, 1, 60, 80
3, 85919, Note_on_c, 1, 60, 0
3, 85920, Note_on_c, 1, 53, 80
3, 86399, Note_on_c, 1, 53, 0
3, 86400, Note_on_c, 1, 55, 80
3, 87119, Note_on_c, 1, 55, 0
3, 87120, Note_on_c, 1, 55, 80
3, 87599, Note_on_c, 1, 55, 0
3, 87600, Note_on_c, 1, 55, 80
3, 87839, Note_on_c, 1, 55, 0
3, 87840, Note_on_c, 1, 57, 80
3, 88559, Note_on_c, 1, 57, 0
3, 88560, Note_on_c, 1, 57, 80
3, 88799, Note_on_c, 1, 57, 0
3, 88800, Note_on_c, 1, 60, 80
3, 89279, Note_on_c, 1, 60, 0
3, 89280, Note_on_c, 1, 53, 80
3, 89999, Note_on_c, 1, 53, 0
3, 90000, Note_on_c, 1, 53, 80
3, 90479, Note_on_c, 1, 53, 0
3, 90480, Note_on_c, 1, 57, 80
3, 90719, Note_on_c, 1, 57, 0
3, 90720, Note_on_c, 1, 60, 80
3, 91439, Note_on_c, 1, 60, 0
3, 91440, Note_on_c, 1, 60, 80
3, 91679, Note_on_c, 1, 60, 0
3, 91680, Note_on_c, 1, 53, 80
3, 92159, Note_on_c, 1, 53, 0
3, 92160, Note_on_c, 1, 60, 80
3, 93119, Note_on_c, 1, 60, 0
3, 93600, Note_on_c, 1, 65, 80
3, 94559, Note_on_c, 1, 65, 0
3, 95040, Note_on_c, 1, 67, 80
3, 95999, Note_on_c, 1, 67, 0
3, 96480, Note_on_c, 1, 65, 80
3, 97199, Note_on_c, 1, 65, 0
3, 97200, Note_on_c, 1, 65, 80
3, 97439, Note_on_c, 1, 65, 0
3, 97440, Note_on_c, 1, 64, 80
3, 97919, Note_on_c, 1, 64, 0
3, 97920, Note_on_c, 1, 60, 80
3, 98639, Note_on_c, 1, 60, 0
3, 98640, Note_on_c, 1, 60, 80
3, 99119, Note_on_c, 1, 60, 0
3, 99120, Note_on_c, 1, 60, 80
3, 99359, Note_on_c, 1, 60, 0
3, 99360, Note_on_c, 1, 65, 80
3, 100079, Note_on_c, 1, 65, 0
3, 100080, Note_on_c, 1, 65, 80
3, 100559, Note_on_c, 1, 65, 0
3, 100560, Note_on_c, 1, 65, 80
3, 100799, Note_on_c, 1, 65, 0
3, 100800, Note_on_c, 1, 67, 80
3, 101519, Note_on_c, 1, 67, 0
3, 101520, Note_on_c, 1, 67, 80
3, 101999, Note_on_c, 1, 67, 0
3, 102000, Note_on_c, 1, 67, 80
3, 102239, Note_on_c, 1, 67, 0
3, 102240, Note_on_c, 1, 65, 80
3, 102959, Note_on_c, 1, 65, 0
3, 102960, Note_on_c, 1, 65, 80
3, 103199, Note_on_c, 1, 65, 0
3, 103200, Note_on_c, 1, 64, 80
3, 103679, Note_on_c, 1, 64, 0
3, 103680, Note_on_c, 1, 60, 80
3, 104399, Note_on_c, 1, 60, 0
3, 104400, Note_on_c, 1, 60, 80
3, 104879, Note_on_c, 1, 60, 0
3, 104880, Note_on_c, 1, 60, 80
3, 105119, Note_on_c, 1, 60, 0
3, 105120, Note_on_c, 1, 65, 80
3, 105839, Note_on_c, 1, 65, 0
3, 105840, Note_on_c, 1, 65, 80
3, 106319, Note_on_c, 1, 65, 0
3, 106320, Note_on_c, 1, 65, 80
3, 106559, Note_on_c, 1, 65, 0
3, 106560, Note_on_c, 1, 67, 80
3, 107279, Note_on_c, 1, 67, 0
3, 107280, Note_on_c, 1, 67, 80
3, 107759, Note_on_c, 1, 67, 0
3, 107760, Note_on_c, 1, 67, 80
3, 107999, Note_on_c, 1, 67, 0
3, 108000, Note_on_c, 1, 65, 80
3, 108719, Note_on_c, 1, 65, 0
3, 108720, Note_on_c, 1, 65, 80
3, 108959, Note_on_c, 1, 65, 0
3, 108960, Note_on_c, 1, 64, 80
3, 109439, Note_on_c, 1, 64, 0
3, 109440, Note_on_c, 1, 60, 80
3, 110159, Note_on_c, 1, 60, 0
3, 110160, Note_on_c, 1, 60, 80
3, 110639, Note_on_c, 1, 60, 0
3, 110640, Note_on_c, 1, 60, 80
3, 110879, Note_on_c, 1, 60, 0
3, 110880, Note_on_c, 1, 65, 80
3, 111599, Note_on_c, 1, 65, 0
3, 111600, Note_on_c, 1, 65, 80
3, 112079, Note_on_c, 1, 65, 0
3, 112080, Note_on_c, 1, 65, 80
3, 112319, Note_on_c, 1, 65, 0
3, 112320, Note_on_c, 1, 67, 80
3, 113039, Note_on_c, 1, 67, 0
3, 113040, Note_on_c, 1, 67, 80
3, 113519, Note_on_c, 1, 67, 0
3, 113520, Note_on_c, 1, 67, 80
3, 113759, Note_on_c, 1, 67, 0
3, 113760, Note_on_c, 1, 65, 80
3, 114479, Note_on_c, 1, 65, 0
3, 114480, Note_on_c, 1, 65, 80
3, 114719, Note_on_c, 1, 65, 0
3, 114720, Note_on_c, 1, 64, 80
3, 115199, Note_on_c, 1, 64, 0
3, 115200, Note_on_c, 1, 60, 80
3, 115919, Note_on_c, 1, 60, 0
3, 115920, Note_on_c, 1, 60, 80
3, 116399, Note_on_c, 1, 60, 0
3, 116400, Note_on_c, 1, 60, 80
3, 116639, Note_on_c, 1, 60, 0
3, 116640, Note_on_c, 1, 65, 80
3, 117359, Note_on_c, 1, 65, 0
3, 117360, Note_on_c, 1, 65, 80
3, 117839, Note_on_c, 1, 65, 0
3, 117840, Note_on_c, 1, 65, 80
3, 118079, Note_on_c, 1, 65, 0
3, 118080, Note_on_c, 1, 67, 80
3, 118799, Note_on_c, 1, 67, 0
3, 118800, Note_on_c, 1, 67, 80
3, 119279, Note_on_c, 1, 67, 0
3, 119280, Note_on_c, 1, 67, 80
3, 119519, Note_on_c, 1, 67, 0
3, 119520, Note_on_c, 1, 65, 80
3, 120239, Note_on_c, 1, 65, 0
3, 120240, Note_on_c, 1, 65, 80
3, 120479, Note_on_c, 1, 65, 0
3, 120480, Note_on_c, 1, 64, 80
3, 120959, Note_on_c, 1, 64, 0
3, 120960, Note_on_c, 1, 60, 80
3, 121679, Note_on_c, 1, 60, 0
3, 121680, Note_on_c, 1, 60, 80
3, 122159, Note_on_c, 1, 60, 0
3, 122160, Note_on_c, 1, 60, 80
3, 122399, Note_on_c, 1, 60, 0
3, 122400, Note_on_c, 1, 65, 80
3, 123119, Note_on_c, 1, 65, 0
3, 123120, Note_on_c, 1, 65, 80
3, 123599, Note_on_c, 1, 65, 0
3, 123600, Note_on_c, 1, 65, 80
3, 123839, Note_on_c, 1, 65, 0
3, 123840, Note_on_c, 1, 67, 80
3, 124559, Note_on_c, 1, 67, 0
3, 124560, Note_on_c, 1, 67, 80
3, 125039, Note_on_c, 1, 67, 0
3, 125040, Note_on_c, 1, 67, 80
3, 125279, Note_on_c, 1, 67, 0
3, 125280, Note_on_c, 1, 65, 80
3, 125999, Note_on_c, 1, 65, 0
3, 126000, Note_on_c, 1, 65, 80
3, 126239, Note_on_c, 1, 65, 0
3, 126240, Note_on_c, 1, 64, 80
3, 126719, Note_on_c, 1, 64, 0
3, 126720, Note_on_c, 1, 60, 80
3, 127439, Note_on_c, 1, 60, 0
3, 127440, Note_on_c, 1, 60, 80
3, 127919, Note_on_c, 1, 60, 0
3, 127920, Note_on_c, 1, 60, 80
3, 128159, Note_on_c, 1, 60, 0
3, 128160, Note_on_c, 1, 65, 80
3, 128879, Note_on_c, 1, 65, 0
3, 128880, Note_on_c, 1, 65, 80
3, 129359, Note_on_c, 1, 65, 0
3, 129360, Note_on_c, 1, 65, 80
3, 129599, Note_on_c, 1, 65, 0
3, 129600, Note_on_c, 1, 67, 80
3, 130319, Note_on_c, 1, 67, 0
3, 130320, Note_on_c, 1, 67, 80
3, 130799, Note_on_c, 1, 67, 0
3, 130800, Note_on_c, 1, 67, 80
3, 131039, Note_on_c, 1, 67, 0
3, 131040, Note_on_c, 1, 65, 80
3, 131759, Note_on_c, 1, 65, 0
3, 131760, Note_on_c, 1, 65, 80
3, 131999, Note_on_c, 1, 65, 0
3, 132000, Note_on_c, 1, 64, 80
3, 132479, Note_on_c, 1, 64, 0
3, 132480, Note_on_c, 1, 60, 80
3, 133199, Note_on_c, 1, 60, 0
3, 133200, Note_on_c, 1, 60, 80
3, 133679, Note_on_c, 1, 60, 0
3, 133680, Note_on_c, 1, 60, 80
3, 133919, Note_on_c, 1, 60, 0
3, 133920, Note_on_c, 1, 65, 80
3, 134639, Note_on_c, 1, 65, 0
3, 134640, Note_on_c, 1, 65, 80
3, 135119, Note_on_c, 1, 65, 0
3, 135120, Note_on_c, 1, 65, 80
3, 135359, Note_on_c, 1, 65, 0
3, 135360, Note_on_c, 1, 67, 80
3, 136079, Note_on_c, 1, 67, 0
3, 136080, Note_on_c, 1, 67, 80
3, 136559, Note_on_c, 1, 67, 0
3, 136560, Note_on_c, 1, 67, 80
3, 136799, Note_on_c, 1, 67, 0
3, 136800, Note_on_c, 1, 65, 80
3, 137519, Note_on_c, 1, 65, 0
3, 137520, Note_on_c, 1, 65, 80
3, 137759, Note_on_c, 1, 65, 0
3, 137760, Note_on_c, 1, 64, 80
3, 138239, Note_on_c, 1, 64, 0
3, 138240, Note_on_c, 1, 60, 80
3, 138959, Note_on_c, 1, 60, 0
3, 138960, Note_on_c, 1, 60, 80
3, 139439, Note_on_c, 1, 60, 0
3, 139440, Note_on_c, 1, 60, 80
3, 139679, Note_on_c, 1, 60, 0
3, 139680, Note_on_c, 1, 65, 80
3, 140399, Note_on_c, 1, 65, 0
3, 140400, Note_on_c, 1, 65, 80
3, 140879, Note_on_c, 1, 65, 0
3, 140880, Note_on_c, 1, 65, 80
3, 141119, Note_on_c, 1, 65, 0
3, 141120, Note_on_c, 1, 67, 80
3, 141839, Note_on_c, 1, 67, 0
3, 141840, Note_on_c, 1, 67, 80
3, 142319, Note_on_c, 1, 67, 0
3, 142320, Note_on_c, 1, 67, 80
3, 142559, Note_on_c, 1, 67, 0
3, 142560, Note_on_c, 1, 65, 80
3, 143279, Note_on_c, 1, 65, 0
3, 143280, Note_on_c, 1, 65, 80
3, 143519, Note_on_c, 1, 65, 0
3, 143520, Note_on_c, 1, 64, 80
3, 143999, Note_on_c, 1, 64, 0
3, 144000, Note_on_c, 1, 60, 80
3, 144719, Note_on_c, 1, 60, 0
3, 144720, Note_on_c, 1, 60, 80
3, 145199, Note_on_c, 1, 60, 0
3, 145200, Note_on_c, 1, 60, 80
3, 145439, Note_on_c, 1, 60, 0
3, 145440, Note_on_c, 1, 65, 80
3, 146159, Note_on_c, 1, 65, 0
3, 146160, Note_on_c, 1, 65, 80
3, 146639, Note_on_c, 1, 65, 0
3, 146640, Note_on_c, 1, 65, 80
3, 146879, Note_on_c, 1, 65, 0
3, 146880, Note_on_c, 1, 67, 80
3, 147599, Note_on_c, 1, 67, 0
3, 147600, Note_on_c, 1, 67, 80
3, 148079, Note_on_c, 1, 67, 0
3, 148080, Note_on_c, 1, 67, 80
3, 148319, Note_on_c, 1, 67, 0
3, 148320, Note_on_c, 1, 65, 80
3, 149039, Note_on_c, 1, 65, 0
3, 149040, Note_on_c, 1, 65, 80
3, 149279, Note_on_c, 1, 65, 0
3, 149280, Note_on_c, 1, 64, 80
3, 149759, Note_on_c, 1, 64, 0
3, 149760, End_track
0, 0, End_of_file
