0, 0, Header, 1, 3, 480
1, 0, Start_track
1, 0, Title_t, "Piano, Piano, Piano RH\000"
1, 0, Time_signature, 4, 2, 24, 8
1, 0, Key_signature, 0, "major"
1, 0, Tempo, 638298
1, 0, Control_c, 0, 121, 0
1, 0, Program_c, 0, 0
1, 0, Control_c, 0, 7, 100
1, 0, Control_c, 0, 10, 64
1, 0, Control_c, 0, 91, 0
1, 0, Control_c, 0, 93, 0
1, 0, MIDI_port, 0
1, 480, Note_on_c, 0, 62, 80
1, 480, Note_on_c, 0, 67, 80
1, 1847, Note_on_c, 0, 62, 0
1, 1847, Note_on_c, 0, 67, 0
1, 2400, Note_on_c, 0, 60, 80
1, 2400, Note_on_c, 0, 65, 80
1, 3311, Note_on_c, 0, 60, 0
1, 3311, Note_on_c, 0, 65, 0
1, 3360, Note_on_c, 0, 65, 80
1, 3360, Note_on_c, 0, 69, 80
1, 3815, Note_on_c, 0, 65, 0
1, 3815, Note_on_c, 0, 69, 0
1, 3840, Note_on_c, 0, 67, 80
1, 5207, Note_on_c, 0, 67, 0
1, 5520, Note_on_c, 0, 64, 80
1, 5747, Note_on_c, 0, 64, 0
1, 5760, Note_on_c, 0, 65, 80
1, 5987, Note_on_c, 0, 65, 0
1, 6000, Note_on_c, 0, 64, 80
1, 6227, Note_on_c, 0, 64, 0
1, 6240, Note_on_c, 0, 67, 80
1, 6240, Note_on_c, 0, 72, 80
1, 7151, Note_on_c, 0, 67, 0
1, 7151, Note_on_c, 0, 72, 0
1, 7200, Note_on_c, 0, 69, 80
1, 7200, Note_on_c, 0, 74, 80
1, 7655, Note_on_c, 0, 69, 0
1, 7655, Note_on_c, 0, 74, 0
1, 7680, Note_on_c, 0, 67, 80
1, 7680, Note_on_c, 0, 71, 80
1, 8021, Note_on_c, 0, 67, 0
1, 8021, Note_on_c, 0, 71, 0
1, 8040, Note_on_c, 0, 71, 80
1, 9293, Note_on_c, 0, 71, 0
1, 9600, Note_on_c, 0, 69, 80
1, 9941, Note_on_c, 0, 69, 0
1, 9960, Note_on_c, 0, 69, 80
1, 10985, Note_on_c, 0, 69, 0
1, 11040, Note_on_c, 0, 65, 80
1, 11040, Note_on_c, 0, 69, 80
1, 11495, Note_on_c, 0, 65, 0
1, 11495, Note_on_c, 0, 69, 0
1, 11520, Note_on_c, 0, 67, 80
1, 11861, Note_on_c, 0, 67, 0
1, 11880, Note_on_c, 0, 67, 80
1, 12905, Note_on_c, 0, 67, 0
1, 13200, Note_on_c, 0, 64, 80
1, 13427, Note_on_c, 0, 64, 0
1, 13440, Note_on_c, 0, 65, 80
1, 13667, Note_on_c, 0, 65, 0
1, 13680, Note_on_c, 0, 64, 80
1, 13907, Note_on_c, 0, 64, 0
1, 13920, Note_on_c, 0, 67, 80
1, 13920, Note_on_c, 0, 72, 80
1, 14831, Note_on_c, 0, 67, 0
1, 14831, Note_on_c, 0, 72, 0
1, 14880, Note_on_c, 0, 74, 80
1, 15335, Note_on_c, 0, 74, 0
1, 15840, Note_on_c, 0, 62, 80
1, 15840, Note_on_c, 0, 67, 80
1, 17207, Note_on_c, 0, 62, 0
1, 17207, Note_on_c, 0, 67, 0
1, 17280, Note_on_c, 0, 53, 80
1, 17507, Note_on_c, 0, 53, 0
1, 17520, Note_on_c, 0, 57, 80
1, 17747, Note_on_c, 0, 57, 0
1, 17760, Note_on_c, 0, 60, 80
1, 17760, Note_on_c, 0, 65, 80
1, 18671, Note_on_c, 0, 60, 0
1, 18671, Note_on_c, 0, 65, 0
1, 18720, Note_on_c, 0, 65, 80
1, 18720, Note_on_c, 0, 69, 80
1, 19175, Note_on_c, 0, 65, 0
1, 19175, Note_on_c, 0, 69, 0
1, 19200, Note_on_c, 0, 67, 80
1, 19427, Note_on_c, 0, 67, 0
1, 19440, Note_on_c, 0, 59, 80
1, 19667, Note_on_c, 0, 59, 0
1, 19680, Note_on_c, 0, 67, 80
1, 19680, Note_on_c, 0, 62, 80
1, 20591, Note_on_c, 0, 62, 0
1, 20880, Note_on_c, 0, 64, 80
1, 21047, Note_on_c, 0, 67, 0
1, 21107, Note_on_c, 0, 64, 0
1, 21120, Note_on_c, 0, 65, 80
1, 21347, Note_on_c, 0, 65, 0
1, 21360, Note_on_c, 0, 64, 80
1, 21587, Note_on_c, 0, 64, 0
1, 21600, Note_on_c, 0, 67, 80
1, 21600, Note_on_c, 0, 72, 80
1, 22511, Note_on_c, 0, 67, 0
1, 22511, Note_on_c, 0, 72, 0
1, 22560, Note_on_c, 0, 69, 80
1, 22560, Note_on_c, 0, 74, 80
1, 23015, Note_on_c, 0, 69, 0
1, 23015, Note_on_c, 0, 74, 0
1, 23520, Note_on_c, 0, 62, 80
1, 23520, Note_on_c, 0, 67, 80
1, 24887, Note_on_c, 0, 62, 0
1, 24887, Note_on_c, 0, 67, 0
1, 24960, Note_on_c, 0, 53, 80
1, 25187, Note_on_c, 0, 53, 0
1, 25200, Note_on_c, 0, 57, 80
1, 25427, Note_on_c, 0, 57, 0
1, 25440, Note_on_c, 0, 60, 80
1, 25440, Note_on_c, 0, 65, 80
1, 26351, Note_on_c, 0, 60, 0
1, 26351, Note_on_c, 0, 65, 0
1, 26400, Note_on_c, 0, 65, 80
1, 26400, Note_on_c, 0, 69, 80
1, 26855, Note_on_c, 0, 65, 0
1, 26855, Note_on_c, 0, 69, 0
1, 26880, Note_on_c, 0, 67, 80
1, 27107, Note_on_c, 0, 67, 0
1, 27120, Note_on_c, 0, 59, 80
1, 27347, Note_on_c, 0, 59, 0
1, 27360, Note_on_c, 0, 67, 80
1, 27360, Note_on_c, 0, 62, 80
1, 28271, Note_on_c, 0, 62, 0
1, 28560, Note_on_c, 0, 64, 80
1, 28727, Note_on_c, 0, 67, 0
1, 28787, Note_on_c, 0, 64, 0
1, 28800, Note_on_c, 0, 65, 80
1, 29027, Note_on_c, 0, 65, 0
1, 29040, Note_on_c, 0, 64, 80
1, 29267, Note_on_c, 0, 64, 0
1, 29280, Note_on_c, 0, 67, 80
1, 29280, Note_on_c, 0, 72, 80
1, 30191, Note_on_c, 0, 67, 0
1, 30191, Note_on_c, 0, 72, 0
1, 30240, Note_on_c, 0, 69, 80
1, 30240, Note_on_c, 0, 74, 80
1, 30467, Note_on_c, 0, 69, 0
1, 30467, Note_on_c, 0, 74, 0
1, 30480, Note_on_c, 0, 71, 80
1, 30593, Note_on_c, 0, 71, 0
1, 30600, Note_on_c, 0, 72, 80
1, 30713, Note_on_c, 0, 72, 0
1, 30720, Note_on_c, 0, 67, 80
1, 30720, Note_on_c, 0, 74, 80
1, 30947, Note_on_c, 0, 67, 0
1, 30947, Note_on_c, 0, 74, 0
1, 30960, Note_on_c, 0, 67, 80
1, 31073, Note_on_c, 0, 67, 0
1, 31080, Note_on_c, 0, 74, 80
1, 31307, Note_on_c, 0, 74, 0
1, 31320, Note_on_c, 0, 72, 80
1, 31320, Note_on_c, 0, 76, 80
1, 31547, Note_on_c, 0, 72, 0
1, 31547, Note_on_c, 0, 76, 0
1, 31560, Note_on_c, 0, 71, 80
1, 31560, Note_on_c, 0, 74, 80
1, 32357, Note_on_c, 0, 71, 0
1, 32357, Note_on_c, 0, 74, 0
1, 32400, Note_on_c, 0, 72, 80
1, 32513, Note_on_c, 0, 72, 0
1, 32520, Note_on_c, 0, 71, 80
1, 32633, Note_on_c, 0, 71, 0
1, 32640, Note_on_c, 0, 65, 80
1, 32640, Note_on_c, 0, 69, 80
1, 32867, Note_on_c, 0, 65, 0
1, 32867, Note_on_c, 0, 69, 0
1, 32880, Note_on_c, 0, 67, 80
1, 32993, Note_on_c, 0, 67, 0
1, 33000, Note_on_c, 0, 69, 80
1, 33227, Note_on_c, 0, 69, 0
1, 33240, Note_on_c, 0, 67, 80
1, 33240, Note_on_c, 0, 71, 80
1, 33467, Note_on_c, 0, 67, 0
1, 33467, Note_on_c, 0, 71, 0
1, 33480, Note_on_c, 0, 67, 80
1, 34277, Note_on_c, 0, 67, 0
1, 34320, Note_on_c, 0, 67, 80
1, 34433, Note_on_c, 0, 67, 0
1, 34440, Note_on_c, 0, 69, 80
1, 34553, Note_on_c, 0, 69, 0
1, 34560, Note_on_c, 0, 67, 80
1, 34901, Note_on_c, 0, 67, 0
1, 34920, Note_on_c, 0, 69, 80
1, 35147, Note_on_c, 0, 69, 0
1, 35160, Note_on_c, 0, 67, 80
1, 35387, Note_on_c, 0, 67, 0
1, 35400, Note_on_c, 0, 67, 80
1, 35400, Note_on_c, 0, 71, 80
1, 35513, Note_on_c, 0, 67, 0
1, 35513, Note_on_c, 0, 71, 0
1, 35640, Note_on_c, 0, 67, 80
1, 35753, Note_on_c, 0, 67, 0
1, 35760, Note_on_c, 0, 72, 80
1, 35987, Note_on_c, 0, 72, 0
1, 36000, Note_on_c, 0, 71, 80
1, 36227, Note_on_c, 0, 71, 0
1, 36240, Note_on_c, 0, 67, 80
1, 36467, Note_on_c, 0, 67, 0
1, 36480, Note_on_c, 0, 65, 80
1, 36480, Note_on_c, 0, 69, 80
1, 36707, Note_on_c, 0, 65, 0
1, 36707, Note_on_c, 0, 69, 0
1, 36720, Note_on_c, 0, 67, 80
1, 36833, Note_on_c, 0, 67, 0
1, 36840, Note_on_c, 0, 65, 80
1, 36953, Note_on_c, 0, 65, 0
1, 37080, Note_on_c, 0, 64, 80
1, 37307, Note_on_c, 0, 64, 0
1, 37320, Note_on_c, 0, 65, 80
1, 37433, Note_on_c, 0, 65, 0
1, 37440, Note_on_c, 0, 62, 80
1, 38123, Note_on_c, 0, 62, 0
1, 38160, Note_on_c, 0, 71, 80
1, 38273, Note_on_c, 0, 71, 0
1, 38280, Note_on_c, 0, 72, 80
1, 38393, Note_on_c, 0, 72, 0
1, 38400, Note_on_c, 0, 67, 80
1, 38400, Note_on_c, 0, 74, 80
1, 38627, Note_on_c, 0, 67, 0
1, 38627, Note_on_c, 0, 74, 0
1, 38640, Note_on_c, 0, 67, 80
1, 38753, Note_on_c, 0, 67, 0
1, 38760, Note_on_c, 0, 74, 80
1, 38987, Note_on_c, 0, 74, 0
1, 39000, Note_on_c, 0, 72, 80
1, 39000, Note_on_c, 0, 76, 80
1, 39227, Note_on_c, 0, 72, 0
1, 39227, Note_on_c, 0, 76, 0
1, 39240, Note_on_c, 0, 71, 80
1, 39240, Note_on_c, 0, 74, 80
1, 40037, Note_on_c, 0, 71, 0
1, 40037, Note_on_c, 0, 74, 0
1, 40080, Note_on_c, 0, 72, 80
1, 40193, Note_on_c, 0, 72, 0
1, 40200, Note_on_c, 0, 71, 80
1, 40313, Note_on_c, 0, 71, 0
1, 40320, Note_on_c, 0, 65, 80
1, 40320, Note_on_c, 0, 69, 80
1, 40547, Note_on_c, 0, 65, 0
1, 40547, Note_on_c, 0, 69, 0
1, 40560, Note_on_c, 0, 67, 80
1, 40673, Note_on_c, 0, 67, 0
1, 40680, Note_on_c, 0, 69, 80
1, 40907, Note_on_c, 0, 69, 0
1, 40920, Note_on_c, 0, 67, 80
1, 40920, Note_on_c, 0, 71, 80
1, 41147, Note_on_c, 0, 67, 0
1, 41147, Note_on_c, 0, 71, 0
1, 41160, Note_on_c, 0, 67, 80
1, 41957, Note_on_c, 0, 67, 0
1, 42000, Note_on_c, 0, 67, 80
1, 42113, Note_on_c, 0, 67, 0
1, 42120, Note_on_c, 0, 69, 80
1, 42233, Note_on_c, 0, 69, 0
1, 42240, Note_on_c, 0, 67, 80
1, 42240, Note_on_c, 0, 71, 80
1, 42467, Note_on_c, 0, 67, 0
1, 42467, Note_on_c, 0, 71, 0
1, 42480, Note_on_c, 0, 72, 80
1, 42593, Note_on_c, 0, 72, 0
1, 42600, Note_on_c, 0, 74, 80
1, 42827, Note_on_c, 0, 74, 0
1, 42840, Note_on_c, 0, 74, 80
1, 42840, Note_on_c, 0, 79, 80
1, 43067, Note_on_c, 0, 74, 0
1, 43067, Note_on_c, 0, 79, 0
1, 43080, Note_on_c, 0, 74, 80
1, 43307, Note_on_c, 0, 74, 0
1, 43320, Note_on_c, 0, 72, 80
1, 43547, Note_on_c, 0, 72, 0
1, 43560, Note_on_c, 0, 74, 80
1, 43673, Note_on_c, 0, 74, 0
1, 43680, Note_on_c, 0, 67, 80
1, 43680, Note_on_c, 0, 71, 80
1, 43907, Note_on_c, 0, 67, 0
1, 43907, Note_on_c, 0, 71, 0
1, 43920, Note_on_c, 0, 67, 80
1, 44147, Note_on_c, 0, 67, 0
1, 44160, Note_on_c, 0, 69, 80
1, 44387, Note_on_c, 0, 69, 0
1, 44400, Note_on_c, 0, 72, 80
1, 44513, Note_on_c, 0, 72, 0
1, 44520, Note_on_c, 0, 67, 80
1, 44520, Note_on_c, 0, 71, 80
1, 44633, Note_on_c, 0, 67, 0
1, 44633, Note_on_c, 0, 71, 0
1, 44760, Note_on_c, 0, 67, 80
1, 44987, Note_on_c, 0, 67, 0
1, 45000, Note_on_c, 0, 69, 80
1, 45113, Note_on_c, 0, 69, 0
1, 45120, Note_on_c, 0, 67, 80
1, 45803, Note_on_c, 0, 67, 0
1, 45840, Note_on_c, 0, 67, 80
1, 45953, Note_on_c, 0, 67, 0
1, 45960, Note_on_c, 0, 69, 80
1, 46073, Note_on_c, 0, 69, 0
1, 46080, Note_on_c, 0, 71, 80
1, 46307, Note_on_c, 0, 71, 0
1, 46320, Note_on_c, 0, 69, 80
1, 46433, Note_on_c, 0, 69, 0
1, 46440, Note_on_c, 0, 71, 80
1, 46667, Note_on_c, 0, 71, 0
1, 46680, Note_on_c, 0, 69, 80
1, 46793, Note_on_c, 0, 69, 0
1, 46800, Note_on_c, 0, 71, 80
1, 47027, Note_on_c, 0, 71, 0
1, 47040, Note_on_c, 0, 71, 80
1, 47495, Note_on_c, 0, 71, 0
1, 47520, Note_on_c, 0, 69, 80
1, 47975, Note_on_c, 0, 69, 0
1, 48000, Note_on_c, 0, 65, 80
1, 48227, Note_on_c, 0, 65, 0
1, 48240, Note_on_c, 0, 64, 80
1, 48353, Note_on_c, 0, 64, 0
1, 48360, Note_on_c, 0, 65, 80
1, 48587, Note_on_c, 0, 65, 0
1, 48600, Note_on_c, 0, 67, 80
1, 48713, Note_on_c, 0, 67, 0
1, 48720, Note_on_c, 0, 65, 80
1, 48947, Note_on_c, 0, 65, 0
1, 48960, Note_on_c, 0, 65, 80
1, 49415, Note_on_c, 0, 65, 0
1, 49440, Note_on_c, 0, 65, 80
1, 49440, Note_on_c, 0, 69, 80
1, 49895, Note_on_c, 0, 65, 0
1, 49895, Note_on_c, 0, 69, 0
1, 49920, Note_on_c, 0, 67, 80
1, 50147, Note_on_c, 0, 67, 0
1, 50160, Note_on_c, 0, 67, 80
1, 50273, Note_on_c, 0, 67, 0
1, 50280, Note_on_c, 0, 67, 80
1, 50507, Note_on_c, 0, 67, 0
1, 50520, Note_on_c, 0, 67, 80
1, 50633, Note_on_c, 0, 67, 0
1, 50640, Note_on_c, 0, 67, 80
1, 50867, Note_on_c, 0, 67, 0
1, 50880, Note_on_c, 0, 67, 80
1, 50993, Note_on_c, 0, 67, 0
1, 51000, Note_on_c, 0, 67, 80
1, 51455, Note_on_c, 0, 67, 0
1, 51600, Note_on_c, 0, 71, 80
1, 51713, Note_on_c, 0, 71, 0
1, 51720, Note_on_c, 0, 72, 80
1, 51833, Note_on_c, 0, 72, 0
1, 51840, Note_on_c, 0, 74, 80
1, 52067, Note_on_c, 0, 74, 0
1, 52080, Note_on_c, 0, 71, 80
1, 52193, Note_on_c, 0, 71, 0
1, 52200, Note_on_c, 0, 69, 80
1, 52313, Note_on_c, 0, 69, 0
1, 52440, Note_on_c, 0, 71, 80
1, 52667, Note_on_c, 0, 71, 0
1, 52680, Note_on_c, 0, 69, 80
1, 52793, Note_on_c, 0, 69, 0
1, 52800, Note_on_c, 0, 67, 80
1, 53255, Note_on_c, 0, 67, 0
1, 53280, Note_on_c, 0, 67, 80
1, 53340, Note_on_c, 0, 71, 80
1, 53400, Note_on_c, 0, 74, 80
1, 53735, Note_on_c, 0, 67, 0
1, 53738, Note_on_c, 0, 71, 0
1, 53741, Note_on_c, 0, 74, 0
1, 53760, Note_on_c, 0, 71, 80
1, 53873, Note_on_c, 0, 71, 0
1, 53880, Note_on_c, 0, 72, 80
1, 53993, Note_on_c, 0, 72, 0
1, 54000, Note_on_c, 0, 74, 80
1, 54113, Note_on_c, 0, 74, 0
1, 54120, Note_on_c, 0, 71, 80
1, 54917, Note_on_c, 0, 71, 0
1, 55440, Note_on_c, 0, 69, 80
1, 55553, Note_on_c, 0, 69, 0
1, 55560, Note_on_c, 0, 71, 80
1, 55673, Note_on_c, 0, 71, 0
1, 55680, Note_on_c, 0, 67, 80
1, 55793, Note_on_c, 0, 67, 0
1, 55800, Note_on_c, 0, 69, 80
1, 55913, Note_on_c, 0, 69, 0
1, 55920, Note_on_c, 0, 71, 80
1, 56033, Note_on_c, 0, 71, 0
1, 56040, Note_on_c, 0, 67, 80
1, 56837, Note_on_c, 0, 67, 0
1, 57360, Note_on_c, 0, 67, 80
1, 57473, Note_on_c, 0, 67, 0
1, 57480, Note_on_c, 0, 69, 80
1, 57593, Note_on_c, 0, 69, 0
1, 57600, Note_on_c, 0, 67, 80
1, 57827, Note_on_c, 0, 67, 0
1, 57840, Note_on_c, 0, 67, 80
1, 57953, Note_on_c, 0, 67, 0
1, 57960, Note_on_c, 0, 67, 80
1, 58187, Note_on_c, 0, 67, 0
1, 58200, Note_on_c, 0, 67, 80
1, 58313, Note_on_c, 0, 67, 0
1, 58320, Note_on_c, 0, 67, 80
1, 58547, Note_on_c, 0, 67, 0
1, 58560, Note_on_c, 0, 67, 80
1, 58673, Note_on_c, 0, 67, 0
1, 58680, Note_on_c, 0, 67, 80
1, 59135, Note_on_c, 0, 67, 0
1, 59280, Note_on_c, 0, 71, 80
1, 59393, Note_on_c, 0, 71, 0
1, 59400, Note_on_c, 0, 72, 80
1, 59513, Note_on_c, 0, 72, 0
1, 59520, Note_on_c, 0, 71, 80
1, 59520, Note_on_c, 0, 74, 80
1, 59747, Note_on_c, 0, 71, 0
1, 59747, Note_on_c, 0, 74, 0
1, 59760, Note_on_c, 0, 71, 80
1, 59873, Note_on_c, 0, 71, 0
1, 59880, Note_on_c, 0, 72, 80
1, 60107, Note_on_c, 0, 72, 0
1, 60120, Note_on_c, 0, 74, 80
1, 60461, Note_on_c, 0, 74, 0
1, 60480, Note_on_c, 0, 74, 80
1, 60480, Note_on_c, 0, 79, 80
1, 60719, Note_on_c, 0, 74, 0
1, 60719, Note_on_c, 0, 79, 0
1, 60960, Note_on_c, 0, 71, 80
1, 60960, Note_on_c, 0, 74, 80
1, 61415, Note_on_c, 0, 71, 0
1, 61415, Note_on_c, 0, 74, 0
1, 61440, Note_on_c, 0, 62, 80
1, 61560, Note_on_c, 0, 67, 80
1, 63155, Note_on_c, 0, 67, 0
1, 63263, Note_on_c, 0, 62, 0
1, 63360, Note_on_c, 0, 57, 80
1, 63420, Note_on_c, 0, 60, 80
1, 63480, Note_on_c, 0, 65, 80
1, 65072, Note_on_c, 0, 60, 0
1, 65075, Note_on_c, 0, 65, 0
1, 65183, Note_on_c, 0, 57, 0
1, 65280, Note_on_c, 0, 59, 80
1, 65340, Note_on_c, 0, 62, 80
1, 65400, Note_on_c, 0, 67, 80
1, 66992, Note_on_c, 0, 62, 0
1, 66995, Note_on_c, 0, 67, 0
1, 67103, Note_on_c, 0, 59, 0
1, 67200, Note_on_c, 0, 64, 80
1, 67280, Note_on_c, 0, 67, 80
1, 67360, Note_on_c, 0, 72, 80
1, 67659, Note_on_c, 0, 67, 0
1, 69023, Note_on_c, 0, 64, 0
1, 69031, Note_on_c, 0, 72, 0
1, 69120, Note_on_c, 0, 50, 80
1, 69120, Note_on_c, 0, 59, 80
1, 69233, Note_on_c, 0, 50, 0
1, 69233, Note_on_c, 0, 59, 0
1, 69240, Note_on_c, 0, 59, 80
1, 69353, Note_on_c, 0, 59, 0
1, 69360, Note_on_c, 0, 65, 80
1, 69473, Note_on_c, 0, 65, 0
1, 69480, Note_on_c, 0, 67, 80
1, 69593, Note_on_c, 0, 67, 0
1, 69600, Note_on_c, 0, 71, 80
1, 69713, Note_on_c, 0, 71, 0
1, 69720, Note_on_c, 0, 72, 80
1, 69833, Note_on_c, 0, 72, 0
1, 69840, Note_on_c, 0, 71, 80
1, 69953, Note_on_c, 0, 71, 0
1, 69960, Note_on_c, 0, 67, 80
1, 70073, Note_on_c, 0, 67, 0
1, 70080, Note_on_c, 0, 69, 80
1, 70193, Note_on_c, 0, 69, 0
1, 70200, Note_on_c, 0, 65, 80
1, 70313, Note_on_c, 0, 65, 0
1, 70320, Note_on_c, 0, 62, 80
1, 70433, Note_on_c, 0, 62, 0
1, 70440, Note_on_c, 0, 65, 80
1, 70553, Note_on_c, 0, 65, 0
1, 70560, Note_on_c, 0, 60, 80
1, 70673, Note_on_c, 0, 60, 0
1, 70680, Note_on_c, 0, 62, 80
1, 70793, Note_on_c, 0, 62, 0
1, 70800, Note_on_c, 0, 60, 80
1, 70913, Note_on_c, 0, 60, 0
1, 70920, Note_on_c, 0, 59, 80
1, 71033, Note_on_c, 0, 59, 0
1, 71160, Note_on_c, 0, 55, 80
1, 71273, Note_on_c, 0, 55, 0
1, 71280, Note_on_c, 0, 60, 80
1, 71393, Note_on_c, 0, 60, 0
1, 71400, Note_on_c, 0, 67, 80
1, 71513, Note_on_c, 0, 67, 0
1, 71520, Note_on_c, 0, 71, 80
1, 71633, Note_on_c, 0, 71, 0
1, 71640, Note_on_c, 0, 72, 80
1, 71753, Note_on_c, 0, 72, 0
1, 71760, Note_on_c, 0, 74, 80
1, 71873, Note_on_c, 0, 74, 0
1, 71880, Note_on_c, 0, 76, 80
1, 71993, Note_on_c, 0, 76, 0
1, 72000, Note_on_c, 0, 67, 80
1, 72060, Note_on_c, 0, 71, 80
1, 72120, Note_on_c, 0, 74, 80
1, 72911, Note_on_c, 0, 67, 0
1, 72914, Note_on_c, 0, 71, 0
1, 72917, Note_on_c, 0, 74, 0
1, 72960, Note_on_c, 0, 55, 80
1, 73073, Note_on_c, 0, 55, 0
1, 73080, Note_on_c, 0, 59, 80
1, 73193, Note_on_c, 0, 59, 0
1, 73200, Note_on_c, 0, 65, 80
1, 73313, Note_on_c, 0, 65, 0
1, 73320, Note_on_c, 0, 67, 80
1, 73433, Note_on_c, 0, 67, 0
1, 73440, Note_on_c, 0, 71, 80
1, 73553, Note_on_c, 0, 71, 0
1, 73560, Note_on_c, 0, 72, 80
1, 73673, Note_on_c, 0, 72, 0
1, 73680, Note_on_c, 0, 71, 80
1, 73793, Note_on_c, 0, 71, 0
1, 73800, Note_on_c, 0, 67, 80
1, 73913, Note_on_c, 0, 67, 0
1, 73920, Note_on_c, 0, 69, 80
1, 74033, Note_on_c, 0, 69, 0
1, 74040, Note_on_c, 0, 65, 80
1, 74153, Note_on_c, 0, 65, 0
1, 74160, Note_on_c, 0, 62, 80
1, 74273, Note_on_c, 0, 62, 0
1, 74280, Note_on_c, 0, 65, 80
1, 74393, Note_on_c, 0, 65, 0
1, 74400, Note_on_c, 0, 60, 80
1, 74513, Note_on_c, 0, 60, 0
1, 74520, Note_on_c, 0, 62, 80
1, 74633, Note_on_c, 0, 62, 0
1, 74640, Note_on_c, 0, 60, 80
1, 74753, Note_on_c, 0, 60, 0
1, 74760, Note_on_c, 0, 59, 80
1, 74873, Note_on_c, 0, 59, 0
1, 75000, Note_on_c, 0, 55, 80
1, 75113, Note_on_c, 0, 55, 0
1, 75120, Note_on_c, 0, 60, 80
1, 75233, Note_on_c, 0, 60, 0
1, 75240, Note_on_c, 0, 67, 80
1, 75353, Note_on_c, 0, 67, 0
1, 75360, Note_on_c, 0, 71, 80
1, 75473, Note_on_c, 0, 71, 0
1, 75480, Note_on_c, 0, 72, 80
1, 75593, Note_on_c, 0, 72, 0
1, 75600, Note_on_c, 0, 74, 80
1, 75713, Note_on_c, 0, 74, 0
1, 75720, Note_on_c, 0, 76, 80
1, 75833, Note_on_c, 0, 76, 0
1, 75840, Note_on_c, 0, 77, 80
1, 75953, Note_on_c, 0, 77, 0
1, 75960, Note_on_c, 0, 79, 80
1, 76073, Note_on_c, 0, 79, 0
1, 76080, Note_on_c, 0, 74, 80
1, 76193, Note_on_c, 0, 74, 0
1, 76200, Note_on_c, 0, 71, 80
1, 76313, Note_on_c, 0, 71, 0
1, 76320, Note_on_c, 0, 72, 80
1, 76433, Note_on_c, 0, 72, 0
1, 76440, Note_on_c, 0, 69, 80
1, 76553, Note_on_c, 0, 69, 0
1, 76560, Note_on_c, 0, 67, 80
1, 76560, Note_on_c, 0, 71, 80
1, 76673, Note_on_c, 0, 67, 0
1, 76673, Note_on_c, 0, 71, 0
1, 76680, Note_on_c, 0, 69, 80
1, 76680, Note_on_c, 0, 72, 80
1, 76793, Note_on_c, 0, 69, 0
1, 76793, Note_on_c, 0, 72, 0
1, 76800, Note_on_c, 0, 74, 80
1, 77027, Note_on_c, 0, 74, 0
1, 77040, Note_on_c, 0, 67, 80
1, 77153, Note_on_c, 0, 67, 0
1, 77160, Note_on_c, 0, 74, 80
1, 77387, Note_on_c, 0, 74, 0
1, 77400, Note_on_c, 0, 76, 80
1, 77627, Note_on_c, 0, 76, 0
1, 77640, Note_on_c, 0, 74, 80
1, 77867, Note_on_c, 0, 74, 0
1, 77880, Note_on_c, 0, 72, 80
1, 78107, Note_on_c, 0, 72, 0
1, 78120, Note_on_c, 0, 71, 80
1, 78233, Note_on_c, 0, 71, 0
1, 78240, Note_on_c, 0, 69, 80
1, 78467, Note_on_c, 0, 69, 0
1, 78480, Note_on_c, 0, 72, 80
1, 78707, Note_on_c, 0, 72, 0
1, 78720, Note_on_c, 0, 71, 80
1, 78947, Note_on_c, 0, 71, 0
1, 78960, Note_on_c, 0, 67, 80
1, 79073, Note_on_c, 0, 67, 0
1, 79080, Note_on_c, 0, 67, 80
1, 79193, Note_on_c, 0, 67, 0
1, 79320, Note_on_c, 0, 65, 80
1, 79499, Note_on_c, 0, 65, 0
1, 79680, Note_on_c, 0, 62, 80
1, 79793, Note_on_c, 0, 62, 0
1, 79800, Note_on_c, 0, 60, 80
1, 79913, Note_on_c, 0, 60, 0
1, 79920, Note_on_c, 0, 62, 80
1, 80033, Note_on_c, 0, 62, 0
1, 80040, Note_on_c, 0, 65, 80
1, 80153, Note_on_c, 0, 65, 0
1, 80160, Note_on_c, 0, 67, 80
1, 80273, Note_on_c, 0, 67, 0
1, 80280, Note_on_c, 0, 69, 80
1, 80393, Note_on_c, 0, 69, 0
1, 80400, Note_on_c, 0, 74, 80
1, 80513, Note_on_c, 0, 74, 0
1, 80520, Note_on_c, 0, 77, 80
1, 80633, Note_on_c, 0, 77, 0
1, 80640, Note_on_c, 0, 79, 80
1, 80981, Note_on_c, 0, 79, 0
1, 81000, Note_on_c, 0, 69, 80
1, 81227, Note_on_c, 0, 69, 0
1, 81240, Note_on_c, 0, 67, 80
1, 81467, Note_on_c, 0, 67, 0
1, 81480, Note_on_c, 0, 71, 80
1, 81707, Note_on_c, 0, 71, 0
1, 81720, Note_on_c, 0, 67, 80
1, 81833, Note_on_c, 0, 67, 0
1, 81840, Note_on_c, 0, 72, 80
1, 82067, Note_on_c, 0, 72, 0
1, 82080, Note_on_c, 0, 74, 80
1, 82307, Note_on_c, 0, 74, 0
1, 82320, Note_on_c, 0, 67, 80
1, 82547, Note_on_c, 0, 67, 0
1, 82560, Note_on_c, 0, 69, 80
1, 82673, Note_on_c, 0, 69, 0
1, 82680, Note_on_c, 0, 65, 80
1, 82799, Note_on_c, 0, 65, 0
1, 82920, Note_on_c, 0, 65, 80
1, 83033, Note_on_c, 0, 65, 0
1, 83160, Note_on_c, 0, 65, 80
1, 83273, Note_on_c, 0, 65, 0
1, 83280, Note_on_c, 0, 62, 80
1, 83507, Note_on_c, 0, 62, 0
1, 83520, Note_on_c, 0, 65, 80
1, 83633, Note_on_c, 0, 65, 0
1, 83640, Note_on_c, 0, 67, 80
1, 83753, Note_on_c, 0, 67, 0
1, 83760, Note_on_c, 0, 69, 80
1, 83873, Note_on_c, 0, 69, 0
1, 83880, Note_on_c, 0, 71, 80
1, 83993, Note_on_c, 0, 71, 0
1, 84000, Note_on_c, 0, 72, 80
1, 84113, Note_on_c, 0, 72, 0
1, 84120, Note_on_c, 0, 71, 80
1, 84233, Note_on_c, 0, 71, 0
1, 84240, Note_on_c, 0, 72, 80
1, 84353, Note_on_c, 0, 72, 0
1, 84360, Note_on_c, 0, 76, 80
1, 84473, Note_on_c, 0, 76, 0
1, 84480, Note_on_c, 0, 74, 80
1, 84707, Note_on_c, 0, 74, 0
1, 84720, Note_on_c, 0, 67, 80
1, 84833, Note_on_c, 0, 67, 0
1, 84840, Note_on_c, 0, 74, 80
1, 85067, Note_on_c, 0, 74, 0
1, 85080, Note_on_c, 0, 76, 80
1, 85307, Note_on_c, 0, 76, 0
1, 85320, Note_on_c, 0, 74, 80
1, 85547, Note_on_c, 0, 74, 0
1, 85560, Note_on_c, 0, 72, 80
1, 85787, Note_on_c, 0, 72, 0
1, 85800, Note_on_c, 0, 71, 80
1, 85913, Note_on_c, 0, 71, 0
1, 85920, Note_on_c, 0, 69, 80
1, 86147, Note_on_c, 0, 69, 0
1, 86160, Note_on_c, 0, 72, 80
1, 86387, Note_on_c, 0, 72, 0
1, 86400, Note_on_c, 0, 71, 80
1, 86627, Note_on_c, 0, 71, 0
1, 86640, Note_on_c, 0, 67, 80
1, 86753, Note_on_c, 0, 67, 0
1, 86760, Note_on_c, 0, 67, 80
1, 86987, Note_on_c, 0, 67, 0
1, 87000, Note_on_c, 0, 67, 80
1, 87227, Note_on_c, 0, 67, 0
1, 87240, Note_on_c, 0, 65, 80
1, 87353, Note_on_c, 0, 65, 0
1, 87360, Note_on_c, 0, 62, 80
1, 87360, Note_on_c, 0, 67, 80
1, 87473, Note_on_c, 0, 62, 0
1, 87473, Note_on_c, 0, 67, 0
1, 87480, Note_on_c, 0, 60, 80
1, 87593, Note_on_c, 0, 60, 0
1, 87600, Note_on_c, 0, 62, 80
1, 87713, Note_on_c, 0, 62, 0
1, 87720, Note_on_c, 0, 65, 80
1, 87833, Note_on_c, 0, 65, 0
1, 87840, Note_on_c, 0, 67, 80
1, 87953, Note_on_c, 0, 67, 0
1, 87960, Note_on_c, 0, 71, 80
1, 88073, Note_on_c, 0, 71, 0
1, 88080, Note_on_c, 0, 74, 80
1, 88193, Note_on_c, 0, 74, 0
1, 88200, Note_on_c, 0, 81, 80
1, 88313, Note_on_c, 0, 81, 0
1, 88320, Note_on_c, 0, 79, 80
1, 88547, Note_on_c, 0, 79, 0
1, 88560, Note_on_c, 0, 72, 80
1, 88673, Note_on_c, 0, 72, 0
1, 88680, Note_on_c, 0, 74, 80
1, 88907, Note_on_c, 0, 74, 0
1, 88920, Note_on_c, 0, 79, 80
1, 89147, Note_on_c, 0, 79, 0
1, 89160, Note_on_c, 0, 74, 80
1, 89387, Note_on_c, 0, 74, 0
1, 89400, Note_on_c, 0, 72, 80
1, 89627, Note_on_c, 0, 72, 0
1, 89640, Note_on_c, 0, 74, 80
1, 89753, Note_on_c, 0, 74, 0
1, 89760, Note_on_c, 0, 71, 80
1, 89987, Note_on_c, 0, 71, 0
1, 90000, Note_on_c, 0, 67, 80
1, 90227, Note_on_c, 0, 67, 0
1, 90240, Note_on_c, 0, 69, 80
1, 90467, Note_on_c, 0, 69, 0
1, 90480, Note_on_c, 0, 72, 80
1, 90593, Note_on_c, 0, 72, 0
1, 90600, Note_on_c, 0, 71, 80
1, 90827, Note_on_c, 0, 71, 0
1, 90840, Note_on_c, 0, 67, 80
1, 91067, Note_on_c, 0, 67, 0
1, 91080, Note_on_c, 0, 69, 80
1, 91193, Note_on_c, 0, 69, 0
1, 91200, Note_on_c, 0, 67, 80
1, 91320, Note_on_c, 0, 77, 80
1, 91433, Note_on_c, 0, 77, 0
1, 91440, Note_on_c, 0, 76, 80
1, 91553, Note_on_c, 0, 76, 0
1, 91560, Note_on_c, 0, 72, 80
1, 91655, Note_on_c, 0, 67, 0
1, 91673, Note_on_c, 0, 72, 0
1, 91680, Note_on_c, 0, 71, 80
1, 91680, Note_on_c, 0, 65, 80
1, 91800, Note_on_c, 0, 67, 80
1, 91913, Note_on_c, 0, 67, 0
1, 91920, Note_on_c, 0, 69, 80
1, 92021, Note_on_c, 0, 71, 0
1, 92033, Note_on_c, 0, 69, 0
1, 92040, Note_on_c, 0, 71, 80
1, 92135, Note_on_c, 0, 65, 0
1, 92153, Note_on_c, 0, 71, 0
1, 92160, Note_on_c, 0, 72, 80
1, 92160, Note_on_c, 0, 62, 80
1, 92279, Note_on_c, 0, 62, 0
1, 92280, Note_on_c, 0, 65, 80
1, 92400, Note_on_c, 0, 67, 80
1, 92520, Note_on_c, 0, 72, 0
1, 92520, Note_on_c, 0, 72, 80
1, 92621, Note_on_c, 0, 65, 0
1, 92627, Note_on_c, 0, 67, 0
1, 92640, Note_on_c, 0, 74, 80
1, 92753, Note_on_c, 0, 74, 0
1, 92760, Note_on_c, 0, 77, 80
1, 92873, Note_on_c, 0, 77, 0
1, 92880, Note_on_c, 0, 79, 80
1, 93107, Note_on_c, 0, 79, 0
1, 93120, Note_on_c, 0, 79, 80
1, 93233, Note_on_c, 0, 79, 0
1, 93240, Note_on_c, 0, 77, 80
1, 93360, Note_on_c, 0, 74, 80
1, 93419, Note_on_c, 0, 77, 0
1, 93431, Note_on_c, 0, 72, 0
1, 93480, Note_on_c, 0, 72, 80
1, 93587, Note_on_c, 0, 74, 0
1, 93600, Note_on_c, 0, 69, 80
1, 93713, Note_on_c, 0, 69, 0
1, 93720, Note_on_c, 0, 65, 80
1, 93833, Note_on_c, 0, 65, 0
1, 93840, Note_on_c, 0, 62, 80
1, 93935, Note_on_c, 0, 72, 0
1, 93953, Note_on_c, 0, 62, 0
1, 93960, Note_on_c, 0, 65, 80
1, 94073, Note_on_c, 0, 65, 0
1, 94080, Note_on_c, 0, 67, 80
1, 94193, Note_on_c, 0, 67, 0
1, 94200, Note_on_c, 0, 71, 80
1, 94313, Note_on_c, 0, 71, 0
1, 94320, Note_on_c, 0, 72, 80
1, 94433, Note_on_c, 0, 72, 0
1, 94440, Note_on_c, 0, 74, 80
1, 94553, Note_on_c, 0, 74, 0
1, 94560, Note_on_c, 0, 77, 80
1, 94673, Note_on_c, 0, 77, 0
1, 94680, Note_on_c, 0, 79, 80
1, 94793, Note_on_c, 0, 79, 0
1, 94800, Note_on_c, 0, 83, 80
1, 94913, Note_on_c, 0, 83, 0
1, 94920, Note_on_c, 0, 84, 80
1, 95033, Note_on_c, 0, 84, 0
1, 95040, Note_on_c, 0, 83, 80
1, 95153, Note_on_c, 0, 83, 0
1, 95160, Note_on_c, 0, 79, 80
1, 95273, Note_on_c, 0, 79, 0
1, 95280, Note_on_c, 0, 77, 80
1, 95393, Note_on_c, 0, 77, 0
1, 95400, Note_on_c, 0, 74, 80
1, 95513, Note_on_c, 0, 74, 0
1, 95520, Note_on_c, 0, 72, 80
1, 95633, Note_on_c, 0, 72, 0
1, 95640, Note_on_c, 0, 71, 80
1, 95753, Note_on_c, 0, 71, 0
1, 95760, Note_on_c, 0, 67, 80
1, 95873, Note_on_c, 0, 67, 0
1, 95880, Note_on_c, 0, 65, 80
1, 95993, Note_on_c, 0, 65, 0
1, 96000, Note_on_c, 0, 62, 80
1, 96113, Note_on_c, 0, 62, 0
1, 96120, Note_on_c, 0, 65, 80
1, 96233, Note_on_c, 0, 65, 0
1, 96240, Note_on_c, 0, 67, 80
1, 96353, Note_on_c, 0, 67, 0
1, 96360, Note_on_c, 0, 72, 80
1, 96473, Note_on_c, 0, 72, 0
1, 96480, Note_on_c, 0, 74, 80
1, 96593, Note_on_c, 0, 74, 0
1, 96600, Note_on_c, 0, 77, 80
1, 96713, Note_on_c, 0, 77, 0
1, 96720, Note_on_c, 0, 79, 80
1, 96947, Note_on_c, 0, 79, 0
1, 96960, Note_on_c, 0, 79, 80
1, 97073, Note_on_c, 0, 79, 0
1, 97080, Note_on_c, 0, 77, 80
1, 97193, Note_on_c, 0, 77, 0
1, 97200, Note_on_c, 0, 74, 80
1, 97313, Note_on_c, 0, 74, 0
1, 97320, Note_on_c, 0, 72, 80
1, 97433, Note_on_c, 0, 72, 0
1, 97440, Note_on_c, 0, 69, 80
1, 97553, Note_on_c, 0, 69, 0
1, 97560, Note_on_c, 0, 65, 80
1, 97673, Note_on_c, 0, 65, 0
1, 97680, Note_on_c, 0, 62, 80
1, 97793, Note_on_c, 0, 62, 0
1, 97800, Note_on_c, 0, 65, 80
1, 97913, Note_on_c, 0, 65, 0
1, 97920, Note_on_c, 0, 69, 80
1, 98033, Note_on_c, 0, 69, 0
1, 98040, Note_on_c, 0, 71, 80
1, 98153, Note_on_c, 0, 71, 0
1, 98160, Note_on_c, 0, 72, 80
1, 98273, Note_on_c, 0, 72, 0
1, 98280, Note_on_c, 0, 74, 80
1, 98393, Note_on_c, 0, 74, 0
1, 98400, Note_on_c, 0, 77, 80
1, 98513, Note_on_c, 0, 77, 0
1, 98520, Note_on_c, 0, 79, 80
1, 98633, Note_on_c, 0, 79, 0
1, 98640, Note_on_c, 0, 83, 80
1, 98753, Note_on_c, 0, 83, 0
1, 98760, Note_on_c, 0, 84, 80
1, 98873, Note_on_c, 0, 84, 0
1, 98880, Note_on_c, 0, 83, 80
1, 98993, Note_on_c, 0, 83, 0
1, 99000, Note_on_c, 0, 79, 80
1, 99113, Note_on_c, 0, 79, 0
1, 99120, Note_on_c, 0, 77, 80
1, 99233, Note_on_c, 0, 77, 0
1, 99240, Note_on_c, 0, 74, 80
1, 99353, Note_on_c, 0, 74, 0
1, 99360, Note_on_c, 0, 72, 80
1, 99473, Note_on_c, 0, 72, 0
1, 99480, Note_on_c, 0, 71, 80
1, 99593, Note_on_c, 0, 71, 0
1, 99600, Note_on_c, 0, 67, 80
1, 99713, Note_on_c, 0, 67, 0
1, 99720, Note_on_c, 0, 65, 80
1, 99833, Note_on_c, 0, 65, 0
1, 99840, Note_on_c, 0, 62, 80
1, 99960, Note_on_c, 0, 67, 80
1, 101555, Note_on_c, 0, 67, 0
1, 101663, Note_on_c, 0, 62, 0
1, 101760, Note_on_c, 0, 57, 80
1, 101820, Note_on_c, 0, 60, 80
1, 101880, Note_on_c, 0, 65, 80
1, 103472, Note_on_c, 0, 60, 0
1, 103475, Note_on_c, 0, 65, 0
1, 103583, Note_on_c, 0, 57, 0
1, 103680, Note_on_c, 0, 59, 80
1, 103740, Note_on_c, 0, 62, 80
1, 103800, Note_on_c, 0, 67, 80
1, 105392, Note_on_c, 0, 62, 0
1, 105395, Note_on_c, 0, 67, 0
1, 105503, Note_on_c, 0, 59, 0
1, 105600, Note_on_c, 0, 64, 80
1, 105680, Note_on_c, 0, 67, 80
1, 105760, Note_on_c, 0, 72, 80
1, 107423, Note_on_c, 0, 64, 0
1, 107427, Note_on_c, 0, 67, 0
1, 107431, Note_on_c, 0, 72, 0
1, 107520, Note_on_c, 0, 59, 80
1, 107580, Note_on_c, 0, 62, 80
1, 107640, Note_on_c, 0, 67, 80
1, 109232, Note_on_c, 0, 62, 0
1, 109235, Note_on_c, 0, 67, 0
1, 109343, Note_on_c, 0, 59, 0
1, 109440, Note_on_c, 0, 57, 80
1, 109500, Note_on_c, 0, 60, 80
1, 109560, Note_on_c, 0, 65, 80
1, 111152, Note_on_c, 0, 60, 0
1, 111155, Note_on_c, 0, 65, 0
1, 111263, Note_on_c, 0, 57, 0
1, 111360, Note_on_c, 0, 59, 80
1, 111420, Note_on_c, 0, 62, 80
1, 111480, Note_on_c, 0, 67, 80
1, 113072, Note_on_c, 0, 62, 0
1, 113075, Note_on_c, 0, 67, 0
1, 113183, Note_on_c, 0, 59, 0
1, 113280, Note_on_c, 0, 64, 80
1, 113340, Note_on_c, 0, 67, 80
1, 113400, Note_on_c, 0, 72, 80
1, 114992, Note_on_c, 0, 67, 0
1, 114995, Note_on_c, 0, 72, 0
1, 115103, Note_on_c, 0, 64, 0
1, 115200, Note_on_c, 0, 55, 80
1, 115200, Note_on_c, 0, 59, 80
1, 117023, Note_on_c, 0, 55, 0
1, 117023, Note_on_c, 0, 59, 0
1, 117120, Note_on_c, 0, 60, 80
1, 117120, Note_on_c, 0, 65, 80
1, 118943, Note_on_c, 0, 60, 0
1, 118943, Note_on_c, 0, 65, 0
1, 119040, Note_on_c, 0, 60, 80
1, 119040, Note_on_c, 0, 64, 80
1, 120863, Note_on_c, 0, 60, 0
1, 120863, Note_on_c, 0, 64, 0
1, 120960, Note_on_c, 0, 59, 80
1, 120960, Note_on_c, 0, 62, 80
1, 122783, Note_on_c, 0, 59, 0
1, 122783, Note_on_c, 0, 62, 0
1, 122880, Note_on_c, 0, 67, 80
1, 123221, Note_on_c, 0, 67, 0
1, 123240, Note_on_c, 0, 67, 80
1, 123467, Note_on_c, 0, 67, 0
1, 123480, Note_on_c, 0, 64, 80
1, 123707, Note_on_c, 0, 64, 0
1, 123720, Note_on_c, 0, 62, 80
1, 123833, Note_on_c, 0, 62, 0
1, 123840, Note_on_c, 0, 60, 80
1, 124067, Note_on_c, 0, 60, 0
1, 124080, Note_on_c, 0, 62, 80
1, 124307, Note_on_c, 0, 62, 0
1, 124320, Note_on_c, 0, 59, 80
1, 124547, Note_on_c, 0, 59, 0
1, 124560, Note_on_c, 0, 62, 80
1, 124787, Note_on_c, 0, 62, 0
1, 124800, Note_on_c, 0, 59, 80
1, 124913, Note_on_c, 0, 59, 0
1, 124920, Note_on_c, 0, 60, 80
1, 125147, Note_on_c, 0, 60, 0
1, 125160, Note_on_c, 0, 62, 80
1, 125387, Note_on_c, 0, 62, 0
1, 125400, Note_on_c, 0, 67, 80
1, 125741, Note_on_c, 0, 67, 0
1, 125760, Note_on_c, 0, 71, 80
1, 126671, Note_on_c, 0, 71, 0
1, 126720, Note_on_c, 0, 69, 80
1, 127061, Note_on_c, 0, 69, 0
1, 127080, Note_on_c, 0, 69, 80
1, 127307, Note_on_c, 0, 69, 0
1, 127320, Note_on_c, 0, 69, 80
1, 127547, Note_on_c, 0, 69, 0
1, 127560, Note_on_c, 0, 67, 80
1, 127673, Note_on_c, 0, 67, 0
1, 127680, Note_on_c, 0, 71, 80
1, 127907, Note_on_c, 0, 71, 0
1, 127920, Note_on_c, 0, 69, 80
1, 128147, Note_on_c, 0, 69, 0
1, 128160, Note_on_c, 0, 67, 80
1, 128387, Note_on_c, 0, 67, 0
1, 128400, Note_on_c, 0, 69, 80
1, 128627, Note_on_c, 0, 69, 0
1, 128640, Note_on_c, 0, 67, 80
1, 128753, Note_on_c, 0, 67, 0
1, 128760, Note_on_c, 0, 69, 80
1, 128873, Note_on_c, 0, 69, 0
1, 128880, Note_on_c, 0, 74, 80
1, 128993, Note_on_c, 0, 74, 0
1, 129000, Note_on_c, 0, 69, 80
1, 129227, Note_on_c, 0, 69, 0
1, 129240, Note_on_c, 0, 67, 80
1, 129467, Note_on_c, 0, 67, 0
1, 129480, Note_on_c, 0, 69, 80
1, 129593, Note_on_c, 0, 69, 0
1, 129600, Note_on_c, 0, 71, 80
1, 130283, Note_on_c, 0, 71, 0
1, 130320, Note_on_c, 0, 64, 80
1, 130547, Note_on_c, 0, 64, 0
1, 130560, Note_on_c, 0, 67, 80
1, 130901, Note_on_c, 0, 67, 0
1, 130920, Note_on_c, 0, 67, 80
1, 131147, Note_on_c, 0, 67, 0
1, 131160, Note_on_c, 0, 64, 80
1, 131387, Note_on_c, 0, 64, 0
1, 131400, Note_on_c, 0, 62, 80
1, 131513, Note_on_c, 0, 62, 0
1, 131520, Note_on_c, 0, 60, 80
1, 131747, Note_on_c, 0, 60, 0
1, 131760, Note_on_c, 0, 62, 80
1, 131987, Note_on_c, 0, 62, 0
1, 132000, Note_on_c, 0, 59, 80
1, 132227, Note_on_c, 0, 59, 0
1, 132240, Note_on_c, 0, 62, 80
1, 132467, Note_on_c, 0, 62, 0
1, 132480, Note_on_c, 0, 59, 80
1, 132593, Note_on_c, 0, 59, 0
1, 132600, Note_on_c, 0, 60, 80
1, 132827, Note_on_c, 0, 60, 0
1, 132840, Note_on_c, 0, 62, 80
1, 133067, Note_on_c, 0, 62, 0
1, 133080, Note_on_c, 0, 67, 80
1, 133421, Note_on_c, 0, 67, 0
1, 133440, Note_on_c, 0, 71, 80
1, 134351, Note_on_c, 0, 71, 0
1, 134400, Note_on_c, 0, 69, 80
1, 134741, Note_on_c, 0, 69, 0
1, 134760, Note_on_c, 0, 69, 80
1, 134987, Note_on_c, 0, 69, 0
1, 135000, Note_on_c, 0, 69, 80
1, 135227, Note_on_c, 0, 69, 0
1, 135240, Note_on_c, 0, 71, 80
1, 135353, Note_on_c, 0, 71, 0
1, 135360, Note_on_c, 0, 69, 80
1, 135587, Note_on_c, 0, 69, 0
1, 135600, Note_on_c, 0, 67, 80
1, 135827, Note_on_c, 0, 67, 0
1, 135840, Note_on_c, 0, 64, 80
1, 136067, Note_on_c, 0, 64, 0
1, 136080, Note_on_c, 0, 67, 80
1, 136307, Note_on_c, 0, 67, 0
1, 136320, Note_on_c, 0, 67, 80
1, 136433, Note_on_c, 0, 67, 0
1, 136440, Note_on_c, 0, 69, 80
1, 136553, Note_on_c, 0, 69, 0
1, 136560, Note_on_c, 0, 67, 80
1, 136787, Note_on_c, 0, 67, 0
1, 137040, Note_on_c, 0, 67, 80
1, 137153, Note_on_c, 0, 67, 0
1, 137160, Note_on_c, 0, 69, 80
1, 137273, Note_on_c, 0, 69, 0
1, 137280, Note_on_c, 0, 67, 80
1, 137735, Note_on_c, 0, 67, 0
1, 138240, Note_on_c, 0, 67, 80
1, 138240, Note_on_c, 0, 72, 80
1, 138419, Note_on_c, 0, 67, 0
1, 138419, Note_on_c, 0, 72, 0
1, 138600, Note_on_c, 0, 67, 80
1, 138600, Note_on_c, 0, 72, 80
1, 138713, Note_on_c, 0, 67, 0
1, 138713, Note_on_c, 0, 72, 0
1, 138840, Note_on_c, 0, 64, 80
1, 138840, Note_on_c, 0, 69, 80
1, 138959, Note_on_c, 0, 64, 0
1, 138959, Note_on_c, 0, 69, 0
1, 139080, Note_on_c, 0, 62, 80
1, 139080, Note_on_c, 0, 67, 80
1, 139193, Note_on_c, 0, 62, 0
1, 139193, Note_on_c, 0, 67, 0
1, 139200, Note_on_c, 0, 60, 80
1, 139200, Note_on_c, 0, 64, 80
1, 139427, Note_on_c, 0, 60, 0
1, 139427, Note_on_c, 0, 64, 0
1, 139440, Note_on_c, 0, 62, 80
1, 139440, Note_on_c, 0, 67, 80
1, 139667, Note_on_c, 0, 62, 0
1, 139667, Note_on_c, 0, 67, 0
1, 139680, Note_on_c, 0, 59, 80
1, 139680, Note_on_c, 0, 62, 80
1, 139907, Note_on_c, 0, 59, 0
1, 139907, Note_on_c, 0, 62, 0
1, 139920, Note_on_c, 0, 62, 80
1, 139920, Note_on_c, 0, 67, 80
1, 140147, Note_on_c, 0, 62, 0
1, 140147, Note_on_c, 0, 67, 0
1, 140160, Note_on_c, 0, 59, 80
1, 140160, Note_on_c, 0, 62, 80
1, 140273, Note_on_c, 0, 59, 0
1, 140273, Note_on_c, 0, 62, 0
1, 140280, Note_on_c, 0, 60, 80
1, 140280, Note_on_c, 0, 64, 80
1, 140399, Note_on_c, 0, 60, 0
1, 140399, Note_on_c, 0, 64, 0
1, 140520, Note_on_c, 0, 62, 80
1, 140520, Note_on_c, 0, 67, 80
1, 140633, Note_on_c, 0, 62, 0
1, 140633, Note_on_c, 0, 67, 0
1, 140760, Note_on_c, 0, 67, 80
1, 140760, Note_on_c, 0, 71, 80
1, 140939, Note_on_c, 0, 67, 0
1, 140939, Note_on_c, 0, 71, 0
1, 141120, Note_on_c, 0, 71, 80
1, 141180, Note_on_c, 0, 74, 80
1, 142031, Note_on_c, 0, 71, 0
1, 142034, Note_on_c, 0, 74, 0
1, 142080, Note_on_c, 0, 69, 80
1, 142080, Note_on_c, 0, 74, 80
1, 142421, Note_on_c, 0, 69, 0
1, 142421, Note_on_c, 0, 74, 0
1, 142440, Note_on_c, 0, 69, 80
1, 142440, Note_on_c, 0, 74, 80
1, 142667, Note_on_c, 0, 69, 0
1, 142667, Note_on_c, 0, 74, 0
1, 142680, Note_on_c, 0, 69, 80
1, 142680, Note_on_c, 0, 74, 80
1, 142907, Note_on_c, 0, 69, 0
1, 142907, Note_on_c, 0, 74, 0
1, 142920, Note_on_c, 0, 76, 80
1, 143033, Note_on_c, 0, 76, 0
1, 143040, Note_on_c, 0, 79, 80
1, 143267, Note_on_c, 0, 79, 0
1, 143280, Note_on_c, 0, 76, 80
1, 143507, Note_on_c, 0, 76, 0
1, 143520, Note_on_c, 0, 76, 80
1, 143747, Note_on_c, 0, 76, 0
1, 143760, Note_on_c, 0, 74, 80
1, 143987, Note_on_c, 0, 74, 0
1, 144000, Note_on_c, 0, 71, 80
1, 144000, Note_on_c, 0, 76, 80
1, 144455, Note_on_c, 0, 71, 0
1, 144455, Note_on_c, 0, 76, 0
1, 144480, Note_on_c, 0, 79, 80
1, 144593, Note_on_c, 0, 79, 0
1, 144600, Note_on_c, 0, 76, 80
1, 144827, Note_on_c, 0, 76, 0
1, 144840, Note_on_c, 0, 74, 80
1, 144953, Note_on_c, 0, 74, 0
1, 144960, Note_on_c, 0, 64, 80
1, 144960, Note_on_c, 0, 71, 80
1, 145643, Note_on_c, 0, 64, 0
1, 145643, Note_on_c, 0, 71, 0
1, 145680, Note_on_c, 0, 62, 80
1, 145680, Note_on_c, 0, 71, 80
1, 145907, Note_on_c, 0, 62, 0
1, 145907, Note_on_c, 0, 71, 0
1, 145920, Note_on_c, 0, 67, 80
1, 145920, Note_on_c, 0, 72, 80
1, 146099, Note_on_c, 0, 67, 0
1, 146099, Note_on_c, 0, 72, 0
1, 146280, Note_on_c, 0, 67, 80
1, 146280, Note_on_c, 0, 72, 80
1, 146393, Note_on_c, 0, 67, 0
1, 146393, Note_on_c, 0, 72, 0
1, 146520, Note_on_c, 0, 64, 80
1, 146520, Note_on_c, 0, 69, 80
1, 146639, Note_on_c, 0, 64, 0
1, 146639, Note_on_c, 0, 69, 0
1, 146760, Note_on_c, 0, 62, 80
1, 146760, Note_on_c, 0, 67, 80
1, 146873, Note_on_c, 0, 62, 0
1, 146873, Note_on_c, 0, 67, 0
1, 146880, Note_on_c, 0, 60, 80
1, 146880, Note_on_c, 0, 64, 80
1, 147107, Note_on_c, 0, 60, 0
1, 147107, Note_on_c, 0, 64, 0
1, 147120, Note_on_c, 0, 62, 80
1, 147120, Note_on_c, 0, 67, 80
1, 147347, Note_on_c, 0, 62, 0
1, 147347, Note_on_c, 0, 67, 0
1, 147360, Note_on_c, 0, 59, 80
1, 147360, Note_on_c, 0, 62, 80
1, 147587, Note_on_c, 0, 59, 0
1, 147587, Note_on_c, 0, 62, 0
1, 147600, Note_on_c, 0, 62, 80
1, 147600, Note_on_c, 0, 67, 80
1, 147827, Note_on_c, 0, 62, 0
1, 147827, Note_on_c, 0, 67, 0
1, 147840, Note_on_c, 0, 59, 80
1, 147840, Note_on_c, 0, 62, 80
1, 147953, Note_on_c, 0, 59, 0
1, 147953, Note_on_c, 0, 62, 0
1, 147960, Note_on_c, 0, 60, 80
1, 147960, Note_on_c, 0, 64, 80
1, 148079, Note_on_c, 0, 60, 0
1, 148079, Note_on_c, 0, 64, 0
1, 148200, Note_on_c, 0, 62, 80
1, 148200, Note_on_c, 0, 67, 80
1, 148313, Note_on_c, 0, 62, 0
1, 148313, Note_on_c, 0, 67, 0
1, 148440, Note_on_c, 0, 67, 80
1, 148440, Note_on_c, 0, 71, 80
1, 148619, Note_on_c, 0, 67, 0
1, 148619, Note_on_c, 0, 71, 0
1, 148800, Note_on_c, 0, 71, 80
1, 148860, Note_on_c, 0, 74, 80
1, 149711, Note_on_c, 0, 71, 0
1, 149714, Note_on_c, 0, 74, 0
1, 149760, Note_on_c, 0, 69, 80
1, 149760, Note_on_c, 0, 74, 80
1, 150101, Note_on_c, 0, 69, 0
1, 150101, Note_on_c, 0, 74, 0
1, 150120, Note_on_c, 0, 69, 80
1, 150120, Note_on_c, 0, 74, 80
1, 150347, Note_on_c, 0, 69, 0
1, 150347, Note_on_c, 0, 74, 0
1, 150360, Note_on_c, 0, 69, 80
1, 150360, Note_on_c, 0, 74, 80
1, 150587, Note_on_c, 0, 69, 0
1, 150587, Note_on_c, 0, 74, 0
1, 150600, Note_on_c, 0, 76, 80
1, 150713, Note_on_c, 0, 76, 0
1, 150720, Note_on_c, 0, 69, 80
1, 150720, Note_on_c, 0, 74, 80
1, 150947, Note_on_c, 0, 69, 0
1, 150947, Note_on_c, 0, 74, 0
1, 150960, Note_on_c, 0, 71, 80
1, 151187, Note_on_c, 0, 71, 0
1, 151200, Note_on_c, 0, 69, 80
1, 151427, Note_on_c, 0, 69, 0
1, 151440, Note_on_c, 0, 71, 80
1, 151667, Note_on_c, 0, 71, 0
1, 151680, Note_on_c, 0, 67, 80
1, 151793, Note_on_c, 0, 67, 0
1, 151800, Note_on_c, 0, 69, 80
1, 151913, Note_on_c, 0, 69, 0
1, 151920, Note_on_c, 0, 67, 80
1, 152147, Note_on_c, 0, 67, 0
1, 152400, Note_on_c, 0, 67, 80
1, 152513, Note_on_c, 0, 67, 0
1, 152520, Note_on_c, 0, 69, 80
1, 152633, Note_on_c, 0, 69, 0
1, 152640, Note_on_c, 0, 67, 80
1, 153095, Note_on_c, 0, 67, 0
1, 153600, Note_on_c, 0, 72, 80
1, 153941, Note_on_c, 0, 72, 0
1, 153960, Note_on_c, 0, 67, 80
1, 153960, Note_on_c, 0, 72, 80
1, 154187, Note_on_c, 0, 67, 0
1, 154187, Note_on_c, 0, 72, 0
1, 154200, Note_on_c, 0, 69, 80
1, 154427, Note_on_c, 0, 69, 0
1, 154440, Note_on_c, 0, 67, 80
1, 154553, Note_on_c, 0, 67, 0
1, 154560, Note_on_c, 0, 64, 80
1, 154787, Note_on_c, 0, 64, 0
1, 154800, Note_on_c, 0, 67, 80
1, 155027, Note_on_c, 0, 67, 0
1, 155040, Note_on_c, 0, 62, 80
1, 155267, Note_on_c, 0, 62, 0
1, 155280, Note_on_c, 0, 67, 80
1, 155507, Note_on_c, 0, 67, 0
1, 155520, Note_on_c, 0, 71, 80
1, 155520, Note_on_c, 0, 62, 80
1, 155633, Note_on_c, 0, 62, 0
1, 155640, Note_on_c, 0, 64, 80
1, 155867, Note_on_c, 0, 64, 0
1, 155880, Note_on_c, 0, 67, 80
1, 156089, Note_on_c, 0, 71, 0
1, 156107, Note_on_c, 0, 67, 0
1, 156120, Note_on_c, 0, 71, 80
1, 156480, Note_on_c, 0, 74, 80
1, 156575, Note_on_c, 0, 71, 0
1, 156935, Note_on_c, 0, 74, 0
1, 157440, Note_on_c, 0, 69, 80
1, 157440, Note_on_c, 0, 74, 80
1, 157781, Note_on_c, 0, 69, 0
1, 157781, Note_on_c, 0, 74, 0
1, 157800, Note_on_c, 0, 69, 80
1, 157800, Note_on_c, 0, 74, 80
1, 158027, Note_on_c, 0, 69, 0
1, 158027, Note_on_c, 0, 74, 0
1, 158040, Note_on_c, 0, 69, 80
1, 158040, Note_on_c, 0, 74, 80
1, 158267, Note_on_c, 0, 69, 0
1, 158267, Note_on_c, 0, 74, 0
1, 158280, Note_on_c, 0, 76, 80
1, 158393, Note_on_c, 0, 76, 0
1, 158400, Note_on_c, 0, 79, 80
1, 158627, Note_on_c, 0, 79, 0
1, 158640, Note_on_c, 0, 74, 80
1, 158753, Note_on_c, 0, 74, 0
1, 158760, Note_on_c, 0, 76, 80
1, 159101, Note_on_c, 0, 76, 0
1, 159120, Note_on_c, 0, 74, 80
1, 159347, Note_on_c, 0, 74, 0
1, 159360, Note_on_c, 0, 76, 80
1, 159600, Note_on_c, 0, 83, 80
1, 159720, Note_on_c, 0, 79, 80
1, 159815, Note_on_c, 0, 76, 0
1, 159947, Note_on_c, 0, 79, 0
1, 159960, Note_on_c, 0, 76, 80
1, 160301, Note_on_c, 0, 76, 0
1, 160320, Note_on_c, 0, 79, 80
1, 160397, Note_on_c, 0, 83, 0
1, 161231, Note_on_c, 0, 79, 0
1, 161280, Note_on_c, 0, 64, 80
1, 161280, Note_on_c, 0, 72, 80
1, 161621, Note_on_c, 0, 64, 0
1, 161621, Note_on_c, 0, 72, 0
1, 161640, Note_on_c, 0, 64, 80
1, 161640, Note_on_c, 0, 72, 80
1, 161867, Note_on_c, 0, 64, 0
1, 161867, Note_on_c, 0, 72, 0
1, 161880, Note_on_c, 0, 69, 80
1, 162107, Note_on_c, 0, 69, 0
1, 162120, Note_on_c, 0, 67, 80
1, 162233, Note_on_c, 0, 67, 0
1, 162240, Note_on_c, 0, 64, 80
1, 162467, Note_on_c, 0, 64, 0
1, 162480, Note_on_c, 0, 67, 80
1, 162707, Note_on_c, 0, 67, 0
1, 162720, Note_on_c, 0, 62, 80
1, 162947, Note_on_c, 0, 62, 0
1, 162960, Note_on_c, 0, 67, 80
1, 163187, Note_on_c, 0, 67, 0
1, 163200, Note_on_c, 0, 71, 80
1, 163200, Note_on_c, 0, 62, 80
1, 163313, Note_on_c, 0, 62, 0
1, 163320, Note_on_c, 0, 64, 80
1, 163547, Note_on_c, 0, 64, 0
1, 163560, Note_on_c, 0, 67, 80
1, 163769, Note_on_c, 0, 71, 0
1, 163787, Note_on_c, 0, 67, 0
1, 163800, Note_on_c, 0, 71, 80
1, 164160, Note_on_c, 0, 74, 80
1, 164369, Note_on_c, 0, 71, 0
1, 165071, Note_on_c, 0, 74, 0
1, 165120, Note_on_c, 0, 69, 80
1, 165120, Note_on_c, 0, 74, 80
1, 165461, Note_on_c, 0, 69, 0
1, 165461, Note_on_c, 0, 74, 0
1, 165480, Note_on_c, 0, 69, 80
1, 165480, Note_on_c, 0, 74, 80
1, 165707, Note_on_c, 0, 69, 0
1, 165707, Note_on_c, 0, 74, 0
1, 165720, Note_on_c, 0, 69, 80
1, 165720, Note_on_c, 0, 74, 80
1, 165947, Note_on_c, 0, 69, 0
1, 165947, Note_on_c, 0, 74, 0
1, 165960, Note_on_c, 0, 76, 80
1, 166073, Note_on_c, 0, 76, 0
1, 166080, Note_on_c, 0, 69, 80
1, 166080, Note_on_c, 0, 74, 80
1, 166307, Note_on_c, 0, 69, 0
1, 166307, Note_on_c, 0, 74, 0
1, 166320, Note_on_c, 0, 71, 80
1, 166547, Note_on_c, 0, 71, 0
1, 166560, Note_on_c, 0, 69, 80
1, 166739, Note_on_c, 0, 69, 0
1, 166800, Note_on_c, 0, 71, 80
1, 166800, Note_on_c, 0, 79, 80
1, 166920, Note_on_c, 0, 81, 80
1, 167027, Note_on_c, 0, 71, 0
1, 167027, Note_on_c, 0, 79, 0
1, 167033, Note_on_c, 0, 81, 0
1, 167040, Note_on_c, 0, 67, 80
1, 167153, Note_on_c, 0, 67, 0
1, 167160, Note_on_c, 0, 69, 80
1, 167273, Note_on_c, 0, 69, 0
1, 167280, Note_on_c, 0, 71, 80
1, 167393, Note_on_c, 0, 71, 0
1, 167400, Note_on_c, 0, 74, 80
1, 167513, Note_on_c, 0, 74, 0
1, 167520, Note_on_c, 0, 79, 80
1, 167633, Note_on_c, 0, 79, 0
1, 167640, Note_on_c, 0, 81, 80
1, 167753, Note_on_c, 0, 81, 0
1, 167760, Note_on_c, 0, 83, 80
1, 167873, Note_on_c, 0, 83, 0
1, 167880, Note_on_c, 0, 84, 80
1, 167993, Note_on_c, 0, 84, 0
1, 168000, Note_on_c, 0, 83, 80
1, 168113, Note_on_c, 0, 83, 0
1, 168120, Note_on_c, 0, 81, 80
1, 168233, Note_on_c, 0, 81, 0
1, 168240, Note_on_c, 0, 79, 80
1, 168353, Note_on_c, 0, 79, 0
1, 168360, Note_on_c, 0, 74, 80
1, 168473, Note_on_c, 0, 74, 0
1, 168480, Note_on_c, 0, 71, 80
1, 168593, Note_on_c, 0, 71, 0
1, 168600, Note_on_c, 0, 69, 80
1, 168713, Note_on_c, 0, 69, 0
1, 168720, Note_on_c, 0, 67, 80
1, 168833, Note_on_c, 0, 67, 0
1, 168840, Note_on_c, 0, 71, 80
1, 168953, Note_on_c, 0, 71, 0
1, 168960, Note_on_c, 0, 72, 80
1, 169301, Note_on_c, 0, 72, 0
1, 169320, Note_on_c, 0, 67, 80
1, 169320, Note_on_c, 0, 72, 80
1, 169547, Note_on_c, 0, 67, 0
1, 169547, Note_on_c, 0, 72, 0
1, 169560, Note_on_c, 0, 69, 80
1, 169787, Note_on_c, 0, 69, 0
1, 169800, Note_on_c, 0, 67, 80
1, 169913, Note_on_c, 0, 67, 0
1, 169920, Note_on_c, 0, 64, 80
1, 170147, Note_on_c, 0, 64, 0
1, 170160, Note_on_c, 0, 67, 80
1, 170387, Note_on_c, 0, 67, 0
1, 170400, Note_on_c, 0, 62, 80
1, 170627, Note_on_c, 0, 62, 0
1, 170640, Note_on_c, 0, 67, 80
1, 170867, Note_on_c, 0, 67, 0
1, 170880, Note_on_c, 0, 71, 80
1, 170880, Note_on_c, 0, 62, 80
1, 170993, Note_on_c, 0, 62, 0
1, 171000, Note_on_c, 0, 64, 80
1, 171227, Note_on_c, 0, 64, 0
1, 171240, Note_on_c, 0, 67, 80
1, 171449, Note_on_c, 0, 71, 0
1, 171467, Note_on_c, 0, 67, 0
1, 171480, Note_on_c, 0, 71, 80
1, 171840, Note_on_c, 0, 74, 80
1, 171935, Note_on_c, 0, 71, 0
1, 172295, Note_on_c, 0, 74, 0
1, 172800, Note_on_c, 0, 69, 80
1, 172800, Note_on_c, 0, 74, 80
1, 173141, Note_on_c, 0, 69, 0
1, 173141, Note_on_c, 0, 74, 0
1, 173160, Note_on_c, 0, 69, 80
1, 173160, Note_on_c, 0, 74, 80
1, 173387, Note_on_c, 0, 69, 0
1, 173387, Note_on_c, 0, 74, 0
1, 173400, Note_on_c, 0, 69, 80
1, 173400, Note_on_c, 0, 74, 80
1, 173627, Note_on_c, 0, 69, 0
1, 173627, Note_on_c, 0, 74, 0
1, 173640, Note_on_c, 0, 76, 80
1, 173753, Note_on_c, 0, 76, 0
1, 173760, Note_on_c, 0, 79, 80
1, 173987, Note_on_c, 0, 79, 0
1, 174000, Note_on_c, 0, 74, 80
1, 174113, Note_on_c, 0, 74, 0
1, 174120, Note_on_c, 0, 76, 80
1, 174461, Note_on_c, 0, 76, 0
1, 174480, Note_on_c, 0, 74, 80
1, 174707, Note_on_c, 0, 74, 0
1, 174720, Note_on_c, 0, 76, 80
1, 174960, Note_on_c, 0, 83, 80
1, 175080, Note_on_c, 0, 79, 80
1, 175175, Note_on_c, 0, 76, 0
1, 175307, Note_on_c, 0, 79, 0
1, 175320, Note_on_c, 0, 76, 80
1, 175661, Note_on_c, 0, 76, 0
1, 175680, Note_on_c, 0, 79, 80
1, 175757, Note_on_c, 0, 83, 0
1, 176591, Note_on_c, 0, 79, 0
1, 176640, Note_on_c, 0, 64, 80
1, 176640, Note_on_c, 0, 72, 80
1, 176981, Note_on_c, 0, 64, 0
1, 176981, Note_on_c, 0, 72, 0
1, 177000, Note_on_c, 0, 64, 80
1, 177000, Note_on_c, 0, 72, 80
1, 177227, Note_on_c, 0, 64, 0
1, 177227, Note_on_c, 0, 72, 0
1, 177240, Note_on_c, 0, 69, 80
1, 177467, Note_on_c, 0, 69, 0
1, 177480, Note_on_c, 0, 67, 80
1, 177593, Note_on_c, 0, 67, 0
1, 177600, Note_on_c, 0, 64, 80
1, 177827, Note_on_c, 0, 64, 0
1, 177840, Note_on_c, 0, 67, 80
1, 178067, Note_on_c, 0, 67, 0
1, 178080, Note_on_c, 0, 62, 80
1, 178307, Note_on_c, 0, 62, 0
1, 178320, Note_on_c, 0, 67, 80
1, 178547, Note_on_c, 0, 67, 0
1, 178560, Note_on_c, 0, 71, 80
1, 178560, Note_on_c, 0, 62, 80
1, 178673, Note_on_c, 0, 62, 0
1, 178680, Note_on_c, 0, 64, 80
1, 178907, Note_on_c, 0, 64, 0
1, 178920, Note_on_c, 0, 67, 80
1, 179129, Note_on_c, 0, 71, 0
1, 179147, Note_on_c, 0, 67, 0
1, 179160, Note_on_c, 0, 71, 80
1, 179520, Note_on_c, 0, 74, 80
1, 179729, Note_on_c, 0, 71, 0
1, 180431, Note_on_c, 0, 74, 0
1, 180480, Note_on_c, 0, 69, 80
1, 180480, Note_on_c, 0, 74, 80
1, 180659, Note_on_c, 0, 69, 0
1, 180659, Note_on_c, 0, 74, 0
1, 180840, Note_on_c, 0, 69, 80
1, 180840, Note_on_c, 0, 74, 80
1, 180953, Note_on_c, 0, 69, 0
1, 180953, Note_on_c, 0, 74, 0
1, 181080, Note_on_c, 0, 69, 80
1, 181080, Note_on_c, 0, 74, 80
1, 181199, Note_on_c, 0, 69, 0
1, 181199, Note_on_c, 0, 74, 0
1, 181320, Note_on_c, 0, 71, 80
1, 181320, Note_on_c, 0, 76, 80
1, 181433, Note_on_c, 0, 71, 0
1, 181433, Note_on_c, 0, 76, 0
1, 181440, Note_on_c, 0, 69, 80
1, 181440, Note_on_c, 0, 74, 80
1, 181667, Note_on_c, 0, 69, 0
1, 181667, Note_on_c, 0, 74, 0
1, 181680, Note_on_c, 0, 67, 80
1, 181680, Note_on_c, 0, 71, 80
1, 181907, Note_on_c, 0, 67, 0
1, 181907, Note_on_c, 0, 71, 0
1, 181920, Note_on_c, 0, 64, 80
1, 181920, Note_on_c, 0, 69, 80
1, 182147, Note_on_c, 0, 64, 0
1, 182147, Note_on_c, 0, 69, 0
1, 182160, Note_on_c, 0, 67, 80
1, 182160, Note_on_c, 0, 71, 80
1, 182387, Note_on_c, 0, 67, 0
1, 182387, Note_on_c, 0, 71, 0
1, 182400, Note_on_c, 0, 62, 80
1, 182400, Note_on_c, 0, 67, 80
1, 182400, Note_on_c, 0, 71, 80
1, 182513, Note_on_c, 0, 62, 0
1, 182513, Note_on_c, 0, 67, 0
1, 182513, Note_on_c, 0, 71, 0
1, 182520, Note_on_c, 0, 64, 80
1, 182520, Note_on_c, 0, 69, 80
1, 182520, Note_on_c, 0, 72, 80
1, 182633, Note_on_c, 0, 64, 0
1, 182633, Note_on_c, 0, 69, 0
1, 182633, Note_on_c, 0, 72, 0
1, 182640, Note_on_c, 0, 67, 80
1, 182640, Note_on_c, 0, 71, 80
1, 182867, Note_on_c, 0, 67, 0
1, 182867, Note_on_c, 0, 71, 0
1, 183120, Note_on_c, 0, 67, 80
1, 183120, Note_on_c, 0, 71, 80
1, 183233, Note_on_c, 0, 67, 0
1, 183233, Note_on_c, 0, 71, 0
1, 183240, Note_on_c, 0, 69, 80
1, 183240, Note_on_c, 0, 72, 80
1, 183353, Note_on_c, 0, 69, 0
1, 183353, Note_on_c, 0, 72, 0
1, 183360, Note_on_c, 0, 67, 80
1, 183360, Note_on_c, 0, 71, 80
1, 184271, Note_on_c, 0, 67, 0
1, 184271, Note_on_c, 0, 71, 0
1, 184272, End_track
2, 0, Start_track
2, 0, Title_t, "Piano, Piano, Piano LH\000"
2, 0, Key_signature, 0, "major"
2, 0, Control_c, 2, 121, 0
2, 0, Program_c, 2, 0
2, 0, Control_c, 2, 7, 100
2, 0, Control_c, 2, 10, 64
2, 0, Control_c, 2, 91, 0
2, 0, Control_c, 2, 93, 0
2, 0, MIDI_port, 0
2, 0, Note_on_c, 2, 55, 80
2, 227, Note_on_c, 2, 55, 0
2, 240, Note_on_c, 2, 59, 80
2, 1493, Note_on_c, 2, 59, 0
2, 1920, Note_on_c, 2, 53, 80
2, 2147, Note_on_c, 2, 53, 0
2, 2160, Note_on_c, 2, 57, 80
2, 3413, Note_on_c, 2, 57, 0
2, 3840, Note_on_c, 2, 55, 80
2, 4067, Note_on_c, 2, 55, 0
2, 4080, Note_on_c, 2, 59, 80
2, 4307, Note_on_c, 2, 59, 0
2, 4320, Note_on_c, 2, 62, 80
2, 5687, Note_on_c, 2, 62, 0
2, 5760, Note_on_c, 2, 53, 80
2, 5760, Note_on_c, 2, 57, 80
2, 5760, Note_on_c, 2, 60, 80
2, 6215, Note_on_c, 2, 53, 0
2, 6215, Note_on_c, 2, 57, 0
2, 6215, Note_on_c, 2, 60, 0
2, 6240, Note_on_c, 2, 64, 80
2, 7607, Note_on_c, 2, 64, 0
2, 7680, Note_on_c, 2, 55, 80
2, 7907, Note_on_c, 2, 55, 0
2, 7920, Note_on_c, 2, 59, 80
2, 8147, Note_on_c, 2, 59, 0
2, 8160, Note_on_c, 2, 62, 80
2, 9527, Note_on_c, 2, 62, 0
2, 9600, Note_on_c, 2, 53, 80
2, 9827, Note_on_c, 2, 53, 0
2, 9840, Note_on_c, 2, 57, 80
2, 10067, Note_on_c, 2, 57, 0
2, 10080, Note_on_c, 2, 60, 80
2, 11447, Note_on_c, 2, 60, 0
2, 11520, Note_on_c, 2, 55, 80
2, 11747, Note_on_c, 2, 55, 0
2, 11760, Note_on_c, 2, 59, 80
2, 11987, Note_on_c, 2, 59, 0
2, 12000, Note_on_c, 2, 62, 80
2, 13367, Note_on_c, 2, 62, 0
2, 13440, Note_on_c, 2, 53, 80
2, 13440, Note_on_c, 2, 57, 80
2, 13440, Note_on_c, 2, 60, 80
2, 13895, Note_on_c, 2, 53, 0
2, 13895, Note_on_c, 2, 57, 0
2, 13895, Note_on_c, 2, 60, 0
2, 13920, Note_on_c, 2, 64, 80
2, 15287, Note_on_c, 2, 64, 0
2, 15360, Note_on_c, 2, 55, 80
2, 15587, Note_on_c, 2, 55, 0
2, 15600, Note_on_c, 2, 59, 80
2, 15827, Note_on_c, 2, 59, 0
2, 16080, Note_on_c, 2, 55, 80
2, 16307, Note_on_c, 2, 55, 0
2, 16320, Note_on_c, 2, 50, 80
2, 16775, Note_on_c, 2, 50, 0
2, 16800, Note_on_c, 2, 52, 80
2, 17255, Note_on_c, 2, 52, 0
2, 18000, Note_on_c, 2, 53, 80
2, 18227, Note_on_c, 2, 53, 0
2, 18240, Note_on_c, 2, 57, 80
2, 18695, Note_on_c, 2, 57, 0
2, 18720, Note_on_c, 2, 60, 80
2, 19175, Note_on_c, 2, 60, 0
2, 19200, Note_on_c, 2, 55, 80
2, 19655, Note_on_c, 2, 55, 0
2, 19920, Note_on_c, 2, 55, 80
2, 20147, Note_on_c, 2, 55, 0
2, 20160, Note_on_c, 2, 50, 80
2, 20615, Note_on_c, 2, 50, 0
2, 20640, Note_on_c, 2, 52, 80
2, 21095, Note_on_c, 2, 52, 0
2, 21120, Note_on_c, 2, 53, 80
2, 21575, Note_on_c, 2, 53, 0
2, 21840, Note_on_c, 2, 52, 80
2, 22067, Note_on_c, 2, 52, 0
2, 22080, Note_on_c, 2, 53, 80
2, 22307, Note_on_c, 2, 53, 0
2, 22320, Note_on_c, 2, 52, 80
2, 22547, Note_on_c, 2, 52, 0
2, 22560, Note_on_c, 2, 53, 80
2, 22787, Note_on_c, 2, 53, 0
2, 22800, Note_on_c, 2, 57, 80
2, 23027, Note_on_c, 2, 57, 0
2, 23040, Note_on_c, 2, 55, 80
2, 23267, Note_on_c, 2, 55, 0
2, 23280, Note_on_c, 2, 59, 80
2, 23507, Note_on_c, 2, 59, 0
2, 23760, Note_on_c, 2, 55, 80
2, 23987, Note_on_c, 2, 55, 0
2, 24000, Note_on_c, 2, 50, 80
2, 24455, Note_on_c, 2, 50, 0
2, 24480, Note_on_c, 2, 52, 80
2, 24935, Note_on_c, 2, 52, 0
2, 25680, Note_on_c, 2, 53, 80
2, 25907, Note_on_c, 2, 53, 0
2, 25920, Note_on_c, 2, 57, 80
2, 26375, Note_on_c, 2, 57, 0
2, 26400, Note_on_c, 2, 60, 80
2, 26855, Note_on_c, 2, 60, 0
2, 26880, Note_on_c, 2, 55, 80
2, 27335, Note_on_c, 2, 55, 0
2, 27600, Note_on_c, 2, 55, 80
2, 27827, Note_on_c, 2, 55, 0
2, 27840, Note_on_c, 2, 50, 80
2, 28295, Note_on_c, 2, 50, 0
2, 28320, Note_on_c, 2, 52, 80
2, 28775, Note_on_c, 2, 52, 0
2, 28800, Note_on_c, 2, 53, 80
2, 29255, Note_on_c, 2, 53, 0
2, 30720, Note_on_c, 2, 55, 80
2, 30947, Note_on_c, 2, 55, 0
2, 30960, Note_on_c, 2, 59, 80
2, 31187, Note_on_c, 2, 59, 0
2, 31200, Note_on_c, 2, 62, 80
2, 31541, Note_on_c, 2, 62, 0
2, 31560, Note_on_c, 2, 62, 80
2, 31901, Note_on_c, 2, 62, 0
2, 31920, Note_on_c, 2, 62, 80
2, 32261, Note_on_c, 2, 62, 0
2, 32280, Note_on_c, 2, 62, 80
2, 32621, Note_on_c, 2, 62, 0
2, 32640, Note_on_c, 2, 53, 80
2, 32867, Note_on_c, 2, 53, 0
2, 32880, Note_on_c, 2, 57, 80
2, 33107, Note_on_c, 2, 57, 0
2, 33120, Note_on_c, 2, 60, 80
2, 33461, Note_on_c, 2, 60, 0
2, 33480, Note_on_c, 2, 60, 80
2, 33821, Note_on_c, 2, 60, 0
2, 33840, Note_on_c, 2, 60, 80
2, 34181, Note_on_c, 2, 60, 0
2, 34200, Note_on_c, 2, 60, 80
2, 34541, Note_on_c, 2, 60, 0
2, 34560, Note_on_c, 2, 55, 80
2, 34787, Note_on_c, 2, 55, 0
2, 34800, Note_on_c, 2, 59, 80
2, 35027, Note_on_c, 2, 59, 0
2, 35040, Note_on_c, 2, 55, 80
2, 35381, Note_on_c, 2, 55, 0
2, 35400, Note_on_c, 2, 55, 80
2, 35741, Note_on_c, 2, 55, 0
2, 35760, Note_on_c, 2, 55, 80
2, 36119, Note_on_c, 2, 55, 0
2, 36480, Note_on_c, 2, 57, 80
2, 36707, Note_on_c, 2, 57, 0
2, 36720, Note_on_c, 2, 64, 80
2, 36947, Note_on_c, 2, 64, 0
2, 36960, Note_on_c, 2, 67, 80
2, 37871, Note_on_c, 2, 67, 0
2, 37920, Note_on_c, 2, 69, 80
2, 38375, Note_on_c, 2, 69, 0
2, 38400, Note_on_c, 2, 55, 80
2, 38627, Note_on_c, 2, 55, 0
2, 38640, Note_on_c, 2, 59, 80
2, 38867, Note_on_c, 2, 59, 0
2, 38880, Note_on_c, 2, 62, 80
2, 39221, Note_on_c, 2, 62, 0
2, 39240, Note_on_c, 2, 62, 80
2, 39581, Note_on_c, 2, 62, 0
2, 39600, Note_on_c, 2, 62, 80
2, 39941, Note_on_c, 2, 62, 0
2, 39960, Note_on_c, 2, 62, 80
2, 40301, Note_on_c, 2, 62, 0
2, 40320, Note_on_c, 2, 53, 80
2, 40547, Note_on_c, 2, 53, 0
2, 40560, Note_on_c, 2, 57, 80
2, 40787, Note_on_c, 2, 57, 0
2, 40800, Note_on_c, 2, 60, 80
2, 41141, Note_on_c, 2, 60, 0
2, 41160, Note_on_c, 2, 60, 80
2, 41501, Note_on_c, 2, 60, 0
2, 41520, Note_on_c, 2, 60, 80
2, 41861, Note_on_c, 2, 60, 0
2, 41880, Note_on_c, 2, 60, 80
2, 42221, Note_on_c, 2, 60, 0
2, 42240, Note_on_c, 2, 55, 80
2, 42467, Note_on_c, 2, 55, 0
2, 42480, Note_on_c, 2, 59, 80
2, 42707, Note_on_c, 2, 59, 0
2, 42720, Note_on_c, 2, 55, 80
2, 43061, Note_on_c, 2, 55, 0
2, 43080, Note_on_c, 2, 55, 80
2, 43421, Note_on_c, 2, 55, 0
2, 43440, Note_on_c, 2, 55, 80
2, 43799, Note_on_c, 2, 55, 0
2, 44160, Note_on_c, 2, 53, 80
2, 44615, Note_on_c, 2, 53, 0
2, 44760, Note_on_c, 2, 53, 80
2, 44987, Note_on_c, 2, 53, 0
2, 45000, Note_on_c, 2, 52, 80
2, 45113, Note_on_c, 2, 52, 0
2, 45120, Note_on_c, 2, 53, 80
2, 45347, Note_on_c, 2, 53, 0
2, 45360, Note_on_c, 2, 52, 80
2, 45587, Note_on_c, 2, 52, 0
2, 45600, Note_on_c, 2, 53, 80
2, 45827, Note_on_c, 2, 53, 0
2, 45840, Note_on_c, 2, 57, 80
2, 46067, Note_on_c, 2, 57, 0
2, 46080, Note_on_c, 2, 55, 80
2, 46307, Note_on_c, 2, 55, 0
2, 46320, Note_on_c, 2, 59, 80
2, 46547, Note_on_c, 2, 59, 0
2, 46560, Note_on_c, 2, 62, 80
2, 46901, Note_on_c, 2, 62, 0
2, 46920, Note_on_c, 2, 62, 80
2, 47261, Note_on_c, 2, 62, 0
2, 47280, Note_on_c, 2, 62, 80
2, 47621, Note_on_c, 2, 62, 0
2, 47640, Note_on_c, 2, 62, 80
2, 47981, Note_on_c, 2, 62, 0
2, 48000, Note_on_c, 2, 53, 80
2, 48227, Note_on_c, 2, 53, 0
2, 48240, Note_on_c, 2, 57, 80
2, 48467, Note_on_c, 2, 57, 0
2, 48480, Note_on_c, 2, 60, 80
2, 48821, Note_on_c, 2, 60, 0
2, 48840, Note_on_c, 2, 60, 80
2, 49181, Note_on_c, 2, 60, 0
2, 49200, Note_on_c, 2, 60, 80
2, 49541, Note_on_c, 2, 60, 0
2, 49560, Note_on_c, 2, 60, 80
2, 49901, Note_on_c, 2, 60, 0
2, 49920, Note_on_c, 2, 55, 80
2, 50147, Note_on_c, 2, 55, 0
2, 50160, Note_on_c, 2, 59, 80
2, 50387, Note_on_c, 2, 59, 0
2, 50400, Note_on_c, 2, 55, 80
2, 50741, Note_on_c, 2, 55, 0
2, 50760, Note_on_c, 2, 55, 80
2, 51101, Note_on_c, 2, 55, 0
2, 51120, Note_on_c, 2, 55, 80
2, 51479, Note_on_c, 2, 55, 0
2, 51840, Note_on_c, 2, 57, 80
2, 52067, Note_on_c, 2, 57, 0
2, 52080, Note_on_c, 2, 64, 80
2, 52307, Note_on_c, 2, 64, 0
2, 52320, Note_on_c, 2, 67, 80
2, 53231, Note_on_c, 2, 67, 0
2, 53760, Note_on_c, 2, 55, 80
2, 53987, Note_on_c, 2, 55, 0
2, 54000, Note_on_c, 2, 59, 80
2, 54227, Note_on_c, 2, 59, 0
2, 54240, Note_on_c, 2, 62, 80
2, 54581, Note_on_c, 2, 62, 0
2, 54600, Note_on_c, 2, 62, 80
2, 54941, Note_on_c, 2, 62, 0
2, 54960, Note_on_c, 2, 62, 80
2, 55301, Note_on_c, 2, 62, 0
2, 55320, Note_on_c, 2, 62, 80
2, 55661, Note_on_c, 2, 62, 0
2, 55680, Note_on_c, 2, 53, 80
2, 55907, Note_on_c, 2, 53, 0
2, 55920, Note_on_c, 2, 57, 80
2, 56147, Note_on_c, 2, 57, 0
2, 56160, Note_on_c, 2, 60, 80
2, 56501, Note_on_c, 2, 60, 0
2, 56520, Note_on_c, 2, 60, 80
2, 56861, Note_on_c, 2, 60, 0
2, 56880, Note_on_c, 2, 60, 80
2, 57221, Note_on_c, 2, 60, 0
2, 57240, Note_on_c, 2, 60, 80
2, 57581, Note_on_c, 2, 60, 0
2, 57600, Note_on_c, 2, 55, 80
2, 57827, Note_on_c, 2, 55, 0
2, 57840, Note_on_c, 2, 59, 80
2, 58067, Note_on_c, 2, 59, 0
2, 58080, Note_on_c, 2, 62, 80
2, 58421, Note_on_c, 2, 62, 0
2, 58440, Note_on_c, 2, 62, 80
2, 58781, Note_on_c, 2, 62, 0
2, 58800, Note_on_c, 2, 62, 80
2, 59159, Note_on_c, 2, 62, 0
2, 59520, Note_on_c, 2, 53, 80
2, 59975, Note_on_c, 2, 53, 0
2, 60120, Note_on_c, 2, 53, 80
2, 60347, Note_on_c, 2, 53, 0
2, 60360, Note_on_c, 2, 52, 80
2, 60473, Note_on_c, 2, 52, 0
2, 60480, Note_on_c, 2, 53, 80
2, 60707, Note_on_c, 2, 53, 0
2, 60720, Note_on_c, 2, 52, 80
2, 60947, Note_on_c, 2, 52, 0
2, 60960, Note_on_c, 2, 53, 80
2, 61187, Note_on_c, 2, 53, 0
2, 61200, Note_on_c, 2, 57, 80
2, 61427, Note_on_c, 2, 57, 0
2, 61440, Note_on_c, 2, 55, 80
2, 61440, Note_on_c, 2, 59, 80
2, 61781, Note_on_c, 2, 55, 0
2, 61781, Note_on_c, 2, 59, 0
2, 61800, Note_on_c, 2, 55, 80
2, 61913, Note_on_c, 2, 55, 0
2, 62040, Note_on_c, 2, 55, 80
2, 62267, Note_on_c, 2, 55, 0
2, 62280, Note_on_c, 2, 53, 80
2, 62393, Note_on_c, 2, 53, 0
2, 62400, Note_on_c, 2, 55, 80
2, 62627, Note_on_c, 2, 55, 0
2, 62640, Note_on_c, 2, 50, 80
2, 62867, Note_on_c, 2, 50, 0
2, 62880, Note_on_c, 2, 53, 80
2, 63107, Note_on_c, 2, 53, 0
2, 63120, Note_on_c, 2, 50, 80
2, 63347, Note_on_c, 2, 50, 0
2, 63360, Note_on_c, 2, 55, 80
2, 63701, Note_on_c, 2, 55, 0
2, 63720, Note_on_c, 2, 55, 80
2, 63833, Note_on_c, 2, 55, 0
2, 63960, Note_on_c, 2, 55, 80
2, 64187, Note_on_c, 2, 55, 0
2, 64200, Note_on_c, 2, 53, 80
2, 64313, Note_on_c, 2, 53, 0
2, 64320, Note_on_c, 2, 55, 80
2, 64775, Note_on_c, 2, 55, 0
2, 65280, Note_on_c, 2, 55, 80
2, 65621, Note_on_c, 2, 55, 0
2, 65640, Note_on_c, 2, 55, 80
2, 65753, Note_on_c, 2, 55, 0
2, 65880, Note_on_c, 2, 55, 80
2, 66107, Note_on_c, 2, 55, 0
2, 66120, Note_on_c, 2, 53, 80
2, 66233, Note_on_c, 2, 53, 0
2, 66240, Note_on_c, 2, 55, 80
2, 66467, Note_on_c, 2, 55, 0
2, 66480, Note_on_c, 2, 50, 80
2, 66707, Note_on_c, 2, 50, 0
2, 66720, Note_on_c, 2, 53, 80
2, 66947, Note_on_c, 2, 53, 0
2, 66960, Note_on_c, 2, 50, 80
2, 67187, Note_on_c, 2, 50, 0
2, 67200, Note_on_c, 2, 55, 80
2, 67541, Note_on_c, 2, 55, 0
2, 67560, Note_on_c, 2, 55, 80
2, 67673, Note_on_c, 2, 55, 0
2, 67800, Note_on_c, 2, 55, 80
2, 68027, Note_on_c, 2, 55, 0
2, 68040, Note_on_c, 2, 53, 80
2, 68153, Note_on_c, 2, 53, 0
2, 68160, Note_on_c, 2, 55, 80
2, 68615, Note_on_c, 2, 55, 0
2, 69120, Note_on_c, 2, 55, 80
2, 69461, Note_on_c, 2, 55, 0
2, 69480, Note_on_c, 2, 55, 80
2, 69593, Note_on_c, 2, 55, 0
2, 69720, Note_on_c, 2, 55, 80
2, 69947, Note_on_c, 2, 55, 0
2, 69960, Note_on_c, 2, 53, 80
2, 70073, Note_on_c, 2, 53, 0
2, 70080, Note_on_c, 2, 55, 80
2, 70307, Note_on_c, 2, 55, 0
2, 70320, Note_on_c, 2, 50, 80
2, 70547, Note_on_c, 2, 50, 0
2, 70560, Note_on_c, 2, 53, 80
2, 70787, Note_on_c, 2, 53, 0
2, 70800, Note_on_c, 2, 50, 80
2, 71027, Note_on_c, 2, 50, 0
2, 71040, Note_on_c, 2, 55, 80
2, 71381, Note_on_c, 2, 55, 0
2, 71400, Note_on_c, 2, 55, 80
2, 71513, Note_on_c, 2, 55, 0
2, 71640, Note_on_c, 2, 55, 80
2, 71867, Note_on_c, 2, 55, 0
2, 71880, Note_on_c, 2, 53, 80
2, 71993, Note_on_c, 2, 53, 0
2, 72000, Note_on_c, 2, 55, 80
2, 72455, Note_on_c, 2, 55, 0
2, 73320, Note_on_c, 2, 55, 80
2, 73433, Note_on_c, 2, 55, 0
2, 73560, Note_on_c, 2, 55, 80
2, 73787, Note_on_c, 2, 55, 0
2, 73800, Note_on_c, 2, 53, 80
2, 73913, Note_on_c, 2, 53, 0
2, 73920, Note_on_c, 2, 55, 80
2, 74147, Note_on_c, 2, 55, 0
2, 74160, Note_on_c, 2, 50, 80
2, 74387, Note_on_c, 2, 50, 0
2, 74400, Note_on_c, 2, 53, 80
2, 74627, Note_on_c, 2, 53, 0
2, 74640, Note_on_c, 2, 50, 80
2, 74867, Note_on_c, 2, 50, 0
2, 74880, Note_on_c, 2, 55, 80
2, 75221, Note_on_c, 2, 55, 0
2, 75240, Note_on_c, 2, 55, 80
2, 75353, Note_on_c, 2, 55, 0
2, 75480, Note_on_c, 2, 55, 80
2, 75707, Note_on_c, 2, 55, 0
2, 75720, Note_on_c, 2, 53, 80
2, 75833, Note_on_c, 2, 53, 0
2, 75840, Note_on_c, 2, 55, 80
2, 76295, Note_on_c, 2, 55, 0
2, 76800, Note_on_c, 2, 71, 80
2, 77027, Note_on_c, 2, 71, 0
2, 77040, Note_on_c, 2, 71, 80
2, 77153, Note_on_c, 2, 71, 0
2, 77160, Note_on_c, 2, 71, 80
2, 77387, Note_on_c, 2, 71, 0
2, 77400, Note_on_c, 2, 72, 80
2, 77627, Note_on_c, 2, 72, 0
2, 77640, Note_on_c, 2, 71, 80
2, 77867, Note_on_c, 2, 71, 0
2, 77880, Note_on_c, 2, 69, 80
2, 78107, Note_on_c, 2, 69, 0
2, 78120, Note_on_c, 2, 67, 80
2, 78233, Note_on_c, 2, 67, 0
2, 78240, Note_on_c, 2, 65, 80
2, 78467, Note_on_c, 2, 65, 0
2, 78480, Note_on_c, 2, 69, 80
2, 78707, Note_on_c, 2, 69, 0
2, 78720, Note_on_c, 2, 67, 80
2, 78947, Note_on_c, 2, 67, 0
2, 78960, Note_on_c, 2, 64, 80
2, 79073, Note_on_c, 2, 64, 0
2, 79080, Note_on_c, 2, 64, 80
2, 79193, Note_on_c, 2, 64, 0
2, 79320, Note_on_c, 2, 62, 80
2, 79499, Note_on_c, 2, 62, 0
2, 79680, Note_on_c, 2, 67, 80
2, 80363, Note_on_c, 2, 67, 0
2, 80400, Note_on_c, 2, 62, 80
2, 80513, Note_on_c, 2, 62, 0
2, 80520, Note_on_c, 2, 65, 80
2, 80633, Note_on_c, 2, 65, 0
2, 80640, Note_on_c, 2, 67, 80
2, 80867, Note_on_c, 2, 67, 0
2, 80880, Note_on_c, 2, 62, 80
2, 80880, Note_on_c, 2, 65, 80
2, 80993, Note_on_c, 2, 62, 0
2, 80993, Note_on_c, 2, 65, 0
2, 81000, Note_on_c, 2, 65, 80
2, 81227, Note_on_c, 2, 65, 0
2, 81240, Note_on_c, 2, 62, 80
2, 81467, Note_on_c, 2, 62, 0
2, 81480, Note_on_c, 2, 67, 80
2, 81707, Note_on_c, 2, 67, 0
2, 81720, Note_on_c, 2, 62, 80
2, 81833, Note_on_c, 2, 62, 0
2, 81840, Note_on_c, 2, 67, 80
2, 82067, Note_on_c, 2, 67, 0
2, 82080, Note_on_c, 2, 69, 80
2, 82307, Note_on_c, 2, 69, 0
2, 82320, Note_on_c, 2, 62, 80
2, 82547, Note_on_c, 2, 62, 0
2, 82560, Note_on_c, 2, 64, 80
2, 82673, Note_on_c, 2, 64, 0
2, 82680, Note_on_c, 2, 60, 80
2, 82799, Note_on_c, 2, 60, 0
2, 82920, Note_on_c, 2, 60, 80
2, 83033, Note_on_c, 2, 60, 0
2, 83160, Note_on_c, 2, 60, 80
2, 83273, Note_on_c, 2, 60, 0
2, 83280, Note_on_c, 2, 57, 80
2, 83507, Note_on_c, 2, 57, 0
2, 83520, Note_on_c, 2, 60, 80
2, 83633, Note_on_c, 2, 60, 0
2, 83640, Note_on_c, 2, 62, 80
2, 83753, Note_on_c, 2, 62, 0
2, 83760, Note_on_c, 2, 65, 80
2, 83873, Note_on_c, 2, 65, 0
2, 83880, Note_on_c, 2, 67, 80
2, 83993, Note_on_c, 2, 67, 0
2, 84000, Note_on_c, 2, 69, 80
2, 84113, Note_on_c, 2, 69, 0
2, 84120, Note_on_c, 2, 67, 80
2, 84233, Note_on_c, 2, 67, 0
2, 84240, Note_on_c, 2, 69, 80
2, 84353, Note_on_c, 2, 69, 0
2, 84360, Note_on_c, 2, 72, 80
2, 84473, Note_on_c, 2, 72, 0
2, 84480, Note_on_c, 2, 71, 80
2, 84707, Note_on_c, 2, 71, 0
2, 84720, Note_on_c, 2, 71, 80
2, 84833, Note_on_c, 2, 71, 0
2, 84840, Note_on_c, 2, 71, 80
2, 85067, Note_on_c, 2, 71, 0
2, 85080, Note_on_c, 2, 72, 80
2, 85307, Note_on_c, 2, 72, 0
2, 85320, Note_on_c, 2, 71, 80
2, 85547, Note_on_c, 2, 71, 0
2, 85560, Note_on_c, 2, 69, 80
2, 85787, Note_on_c, 2, 69, 0
2, 85800, Note_on_c, 2, 67, 80
2, 85913, Note_on_c, 2, 67, 0
2, 85920, Note_on_c, 2, 65, 80
2, 86147, Note_on_c, 2, 65, 0
2, 86160, Note_on_c, 2, 69, 80
2, 86387, Note_on_c, 2, 69, 0
2, 86400, Note_on_c, 2, 67, 80
2, 86627, Note_on_c, 2, 67, 0
2, 86640, Note_on_c, 2, 64, 80
2, 86753, Note_on_c, 2, 64, 0
2, 86760, Note_on_c, 2, 64, 80
2, 86873, Note_on_c, 2, 64, 0
2, 87000, Note_on_c, 2, 62, 80
2, 87179, Note_on_c, 2, 62, 0
2, 88080, Note_on_c, 2, 62, 80
2, 88193, Note_on_c, 2, 62, 0
2, 88200, Note_on_c, 2, 65, 80
2, 88313, Note_on_c, 2, 65, 0
2, 88320, Note_on_c, 2, 67, 80
2, 88320, Note_on_c, 2, 71, 80
2, 88547, Note_on_c, 2, 67, 0
2, 88547, Note_on_c, 2, 71, 0
2, 88560, Note_on_c, 2, 69, 80
2, 88673, Note_on_c, 2, 69, 0
2, 88680, Note_on_c, 2, 71, 80
2, 88907, Note_on_c, 2, 71, 0
2, 88920, Note_on_c, 2, 74, 80
2, 89147, Note_on_c, 2, 74, 0
2, 89160, Note_on_c, 2, 71, 80
2, 89387, Note_on_c, 2, 71, 0
2, 89400, Note_on_c, 2, 69, 80
2, 89627, Note_on_c, 2, 69, 0
2, 89640, Note_on_c, 2, 71, 80
2, 89753, Note_on_c, 2, 71, 0
2, 89760, Note_on_c, 2, 67, 80
2, 89987, Note_on_c, 2, 67, 0
2, 90000, Note_on_c, 2, 64, 80
2, 90227, Note_on_c, 2, 64, 0
2, 90240, Note_on_c, 2, 65, 80
2, 90467, Note_on_c, 2, 65, 0
2, 90480, Note_on_c, 2, 69, 80
2, 90593, Note_on_c, 2, 69, 0
2, 90600, Note_on_c, 2, 67, 80
2, 90827, Note_on_c, 2, 67, 0
2, 90840, Note_on_c, 2, 64, 80
2, 91067, Note_on_c, 2, 64, 0
2, 91080, Note_on_c, 2, 65, 80
2, 91193, Note_on_c, 2, 65, 0
2, 91200, Note_on_c, 2, 64, 80
2, 91655, Note_on_c, 2, 64, 0
2, 91680, Note_on_c, 2, 62, 80
2, 92135, Note_on_c, 2, 62, 0
2, 92160, Note_on_c, 2, 50, 80
2, 92501, Note_on_c, 2, 50, 0
2, 92520, Note_on_c, 2, 50, 80
2, 92747, Note_on_c, 2, 50, 0
2, 92760, Note_on_c, 2, 50, 80
2, 92987, Note_on_c, 2, 50, 0
2, 93000, Note_on_c, 2, 48, 80
2, 93113, Note_on_c, 2, 48, 0
2, 93120, Note_on_c, 2, 53, 80
2, 93575, Note_on_c, 2, 53, 0
2, 93600, Note_on_c, 2, 50, 80
2, 93827, Note_on_c, 2, 50, 0
2, 93840, Note_on_c, 2, 53, 80
2, 94067, Note_on_c, 2, 53, 0
2, 94080, Note_on_c, 2, 55, 80
2, 94421, Note_on_c, 2, 55, 0
2, 94440, Note_on_c, 2, 55, 80
2, 94667, Note_on_c, 2, 55, 0
2, 94680, Note_on_c, 2, 55, 80
2, 94907, Note_on_c, 2, 55, 0
2, 94920, Note_on_c, 2, 53, 80
2, 95033, Note_on_c, 2, 53, 0
2, 95040, Note_on_c, 2, 55, 80
2, 95495, Note_on_c, 2, 55, 0
2, 96000, Note_on_c, 2, 50, 80
2, 96341, Note_on_c, 2, 50, 0
2, 96360, Note_on_c, 2, 50, 80
2, 96587, Note_on_c, 2, 50, 0
2, 96600, Note_on_c, 2, 50, 80
2, 96827, Note_on_c, 2, 50, 0
2, 96840, Note_on_c, 2, 48, 80
2, 96953, Note_on_c, 2, 48, 0
2, 96960, Note_on_c, 2, 53, 80
2, 97415, Note_on_c, 2, 53, 0
2, 97440, Note_on_c, 2, 50, 80
2, 97667, Note_on_c, 2, 50, 0
2, 97680, Note_on_c, 2, 53, 80
2, 97907, Note_on_c, 2, 53, 0
2, 97920, Note_on_c, 2, 55, 80
2, 98261, Note_on_c, 2, 55, 0
2, 98280, Note_on_c, 2, 55, 80
2, 98507, Note_on_c, 2, 55, 0
2, 98520, Note_on_c, 2, 55, 80
2, 98747, Note_on_c, 2, 55, 0
2, 98760, Note_on_c, 2, 53, 80
2, 98873, Note_on_c, 2, 53, 0
2, 98880, Note_on_c, 2, 55, 80
2, 99335, Note_on_c, 2, 55, 0
2, 99840, Note_on_c, 2, 55, 80
2, 99840, Note_on_c, 2, 59, 80
2, 100181, Note_on_c, 2, 55, 0
2, 100181, Note_on_c, 2, 59, 0
2, 100200, Note_on_c, 2, 55, 80
2, 100313, Note_on_c, 2, 55, 0
2, 100440, Note_on_c, 2, 55, 80
2, 100667, Note_on_c, 2, 55, 0
2, 100680, Note_on_c, 2, 53, 80
2, 100793, Note_on_c, 2, 53, 0
2, 100800, Note_on_c, 2, 55, 80
2, 101027, Note_on_c, 2, 55, 0
2, 101040, Note_on_c, 2, 59, 80
2, 101267, Note_on_c, 2, 59, 0
2, 101280, Note_on_c, 2, 55, 80
2, 101507, Note_on_c, 2, 55, 0
2, 101520, Note_on_c, 2, 50, 80
2, 101747, Note_on_c, 2, 50, 0
2, 101760, Note_on_c, 2, 53, 80
2, 102101, Note_on_c, 2, 53, 0
2, 102120, Note_on_c, 2, 53, 80
2, 102347, Note_on_c, 2, 53, 0
2, 102360, Note_on_c, 2, 53, 80
2, 102587, Note_on_c, 2, 53, 0
2, 102600, Note_on_c, 2, 50, 80
2, 102713, Note_on_c, 2, 50, 0
2, 102720, Note_on_c, 2, 53, 80
2, 103175, Note_on_c, 2, 53, 0
2, 103440, Note_on_c, 2, 50, 80
2, 103667, Note_on_c, 2, 50, 0
2, 103680, Note_on_c, 2, 55, 80
2, 104021, Note_on_c, 2, 55, 0
2, 104040, Note_on_c, 2, 55, 80
2, 104153, Note_on_c, 2, 55, 0
2, 104280, Note_on_c, 2, 55, 80
2, 104507, Note_on_c, 2, 55, 0
2, 104520, Note_on_c, 2, 53, 80
2, 104633, Note_on_c, 2, 53, 0
2, 104640, Note_on_c, 2, 55, 80
2, 104867, Note_on_c, 2, 55, 0
2, 104880, Note_on_c, 2, 50, 80
2, 105107, Note_on_c, 2, 50, 0
2, 105120, Note_on_c, 2, 53, 80
2, 105347, Note_on_c, 2, 53, 0
2, 105360, Note_on_c, 2, 50, 80
2, 105587, Note_on_c, 2, 50, 0
2, 105600, Note_on_c, 2, 53, 80
2, 105941, Note_on_c, 2, 53, 0
2, 105960, Note_on_c, 2, 53, 80
2, 106187, Note_on_c, 2, 53, 0
2, 106200, Note_on_c, 2, 53, 80
2, 106427, Note_on_c, 2, 53, 0
2, 106440, Note_on_c, 2, 55, 80
2, 106553, Note_on_c, 2, 55, 0
2, 106560, Note_on_c, 2, 53, 80
2, 107015, Note_on_c, 2, 53, 0
2, 107520, Note_on_c, 2, 55, 80
2, 107699, Note_on_c, 2, 55, 0
2, 107880, Note_on_c, 2, 55, 80
2, 107993, Note_on_c, 2, 55, 0
2, 108120, Note_on_c, 2, 55, 80
2, 108239, Note_on_c, 2, 55, 0
2, 108360, Note_on_c, 2, 52, 80
2, 108473, Note_on_c, 2, 52, 0
2, 108480, Note_on_c, 2, 55, 80
2, 108707, Note_on_c, 2, 55, 0
2, 108720, Note_on_c, 2, 50, 80
2, 108947, Note_on_c, 2, 50, 0
2, 108960, Note_on_c, 2, 53, 80
2, 109187, Note_on_c, 2, 53, 0
2, 109200, Note_on_c, 2, 50, 80
2, 109427, Note_on_c, 2, 50, 0
2, 109440, Note_on_c, 2, 53, 80
2, 109619, Note_on_c, 2, 53, 0
2, 109800, Note_on_c, 2, 53, 80
2, 109913, Note_on_c, 2, 53, 0
2, 110040, Note_on_c, 2, 53, 80
2, 110159, Note_on_c, 2, 53, 0
2, 110280, Note_on_c, 2, 55, 80
2, 110393, Note_on_c, 2, 55, 0
2, 110400, Note_on_c, 2, 53, 80
2, 110855, Note_on_c, 2, 53, 0
2, 122880, Note_on_c, 2, 55, 80
2, 122940, Note_on_c, 2, 60, 80
2, 123000, Note_on_c, 2, 64, 80
2, 124592, Note_on_c, 2, 60, 0
2, 124595, Note_on_c, 2, 64, 0
2, 124703, Note_on_c, 2, 55, 0
2, 124800, Note_on_c, 2, 50, 80
2, 124860, Note_on_c, 2, 55, 80
2, 126512, Note_on_c, 2, 55, 0
2, 126623, Note_on_c, 2, 50, 0
2, 126720, Note_on_c, 2, 50, 80
2, 126780, Note_on_c, 2, 57, 80
2, 128432, Note_on_c, 2, 57, 0
2, 128543, Note_on_c, 2, 50, 0
2, 128640, Note_on_c, 2, 50, 80
2, 128700, Note_on_c, 2, 55, 80
2, 128760, Note_on_c, 2, 59, 80
2, 130352, Note_on_c, 2, 55, 0
2, 130355, Note_on_c, 2, 59, 0
2, 130463, Note_on_c, 2, 50, 0
2, 130560, Note_on_c, 2, 55, 80
2, 130620, Note_on_c, 2, 60, 80
2, 130680, Note_on_c, 2, 64, 80
2, 132272, Note_on_c, 2, 60, 0
2, 132275, Note_on_c, 2, 64, 0
2, 132383, Note_on_c, 2, 55, 0
2, 132480, Note_on_c, 2, 50, 80
2, 132540, Note_on_c, 2, 55, 80
2, 134192, Note_on_c, 2, 55, 0
2, 134303, Note_on_c, 2, 50, 0
2, 134400, Note_on_c, 2, 50, 80
2, 134460, Note_on_c, 2, 57, 80
2, 136112, Note_on_c, 2, 57, 0
2, 136223, Note_on_c, 2, 50, 0
2, 136320, Note_on_c, 2, 50, 80
2, 136380, Note_on_c, 2, 55, 80
2, 136440, Note_on_c, 2, 59, 80
2, 138032, Note_on_c, 2, 55, 0
2, 138035, Note_on_c, 2, 59, 0
2, 138143, Note_on_c, 2, 50, 0
2, 151680, Note_on_c, 2, 59, 80
2, 151793, Note_on_c, 2, 59, 0
2, 151800, Note_on_c, 2, 60, 80
2, 151913, Note_on_c, 2, 60, 0
2, 151920, Note_on_c, 2, 59, 80
2, 152147, Note_on_c, 2, 59, 0
2, 152400, Note_on_c, 2, 59, 80
2, 152513, Note_on_c, 2, 59, 0
2, 152520, Note_on_c, 2, 60, 80
2, 152633, Note_on_c, 2, 60, 0
2, 152640, Note_on_c, 2, 59, 80
2, 152879, Note_on_c, 2, 59, 0
2, 153600, Note_on_c, 2, 67, 80
2, 153839, Note_on_c, 2, 67, 0
2, 154800, Note_on_c, 2, 74, 80
2, 154913, Note_on_c, 2, 74, 0
2, 154920, Note_on_c, 2, 76, 80
2, 155147, Note_on_c, 2, 76, 0
2, 155160, Note_on_c, 2, 74, 80
2, 155400, Note_on_c, 2, 71, 80
2, 155456, Note_on_c, 2, 71, 0
2, 155460, Note_on_c, 2, 72, 80
2, 155501, Note_on_c, 2, 74, 0
2, 155516, Note_on_c, 2, 72, 0
2, 156720, Note_on_c, 2, 69, 80
2, 156833, Note_on_c, 2, 69, 0
2, 156840, Note_on_c, 2, 71, 80
2, 157067, Note_on_c, 2, 71, 0
2, 157080, Note_on_c, 2, 74, 80
2, 157380, Note_on_c, 2, 71, 80
2, 157421, Note_on_c, 2, 74, 0
2, 157436, Note_on_c, 2, 71, 0
2, 160440, Note_on_c, 2, 74, 80
2, 160553, Note_on_c, 2, 74, 0
2, 160560, Note_on_c, 2, 76, 80
2, 160673, Note_on_c, 2, 76, 0
2, 160680, Note_on_c, 2, 69, 80
2, 160717, Note_on_c, 2, 69, 0
2, 160720, Note_on_c, 2, 71, 80
2, 160920, Note_on_c, 2, 69, 80
2, 161040, Note_on_c, 2, 67, 80
2, 161099, Note_on_c, 2, 69, 0
2, 161137, Note_on_c, 2, 71, 0
2, 161160, Note_on_c, 2, 62, 80
2, 161267, Note_on_c, 2, 67, 0
2, 161273, Note_on_c, 2, 62, 0
2, 162480, Note_on_c, 2, 76, 80
2, 162593, Note_on_c, 2, 76, 0
2, 162600, Note_on_c, 2, 74, 80
2, 162827, Note_on_c, 2, 74, 0
2, 162840, Note_on_c, 2, 72, 80
2, 163080, Note_on_c, 2, 74, 80
2, 163124, Note_on_c, 2, 72, 0
2, 163136, Note_on_c, 2, 74, 0
2, 163140, Note_on_c, 2, 72, 80
2, 163196, Note_on_c, 2, 72, 0
2, 164520, Note_on_c, 2, 62, 80
2, 164576, Note_on_c, 2, 62, 0
2, 164580, Note_on_c, 2, 64, 80
2, 164636, Note_on_c, 2, 64, 0
2, 164640, Note_on_c, 2, 67, 80
2, 164753, Note_on_c, 2, 67, 0
2, 164760, Note_on_c, 2, 69, 80
2, 164873, Note_on_c, 2, 69, 0
2, 164880, Note_on_c, 2, 71, 80
2, 164993, Note_on_c, 2, 71, 0
2, 165000, Note_on_c, 2, 74, 80
2, 165113, Note_on_c, 2, 74, 0
2, 167040, Note_on_c, 2, 71, 80
2, 167040, Note_on_c, 2, 79, 80
2, 167153, Note_on_c, 2, 71, 0
2, 167153, Note_on_c, 2, 79, 0
2, 167160, Note_on_c, 2, 72, 80
2, 167273, Note_on_c, 2, 72, 0
2, 167280, Note_on_c, 2, 67, 80
2, 167507, Note_on_c, 2, 67, 0
2, 167760, Note_on_c, 2, 67, 80
2, 167760, Note_on_c, 2, 71, 80
2, 167873, Note_on_c, 2, 67, 0
2, 167873, Note_on_c, 2, 71, 0
2, 167880, Note_on_c, 2, 69, 80
2, 167880, Note_on_c, 2, 72, 80
2, 167993, Note_on_c, 2, 69, 0
2, 167993, Note_on_c, 2, 72, 0
2, 168000, Note_on_c, 2, 67, 80
2, 168000, Note_on_c, 2, 71, 80
2, 168341, Note_on_c, 2, 67, 0
2, 168341, Note_on_c, 2, 71, 0
2, 168360, Note_on_c, 2, 83, 80
2, 168416, Note_on_c, 2, 83, 0
2, 168420, Note_on_c, 2, 84, 80
2, 168476, Note_on_c, 2, 84, 0
2, 168480, Note_on_c, 2, 83, 80
2, 168593, Note_on_c, 2, 83, 0
2, 168600, Note_on_c, 2, 79, 80
2, 168713, Note_on_c, 2, 79, 0
2, 168720, Note_on_c, 2, 76, 80
2, 168833, Note_on_c, 2, 76, 0
2, 168840, Note_on_c, 2, 74, 80
2, 168953, Note_on_c, 2, 74, 0
2, 168960, Note_on_c, 2, 67, 80
2, 169199, Note_on_c, 2, 67, 0
2, 170160, Note_on_c, 2, 74, 80
2, 170273, Note_on_c, 2, 74, 0
2, 170280, Note_on_c, 2, 76, 80
2, 170507, Note_on_c, 2, 76, 0
2, 170520, Note_on_c, 2, 74, 80
2, 170760, Note_on_c, 2, 71, 80
2, 170816, Note_on_c, 2, 71, 0
2, 170820, Note_on_c, 2, 72, 80
2, 170861, Note_on_c, 2, 74, 0
2, 170876, Note_on_c, 2, 72, 0
2, 172080, Note_on_c, 2, 69, 80
2, 172193, Note_on_c, 2, 69, 0
2, 172200, Note_on_c, 2, 71, 80
2, 172427, Note_on_c, 2, 71, 0
2, 172440, Note_on_c, 2, 74, 80
2, 172740, Note_on_c, 2, 71, 80
2, 172781, Note_on_c, 2, 74, 0
2, 172796, Note_on_c, 2, 71, 0
2, 175800, Note_on_c, 2, 74, 80
2, 175913, Note_on_c, 2, 74, 0
2, 175920, Note_on_c, 2, 76, 80
2, 176033, Note_on_c, 2, 76, 0
2, 176040, Note_on_c, 2, 69, 80
2, 176077, Note_on_c, 2, 69, 0
2, 176080, Note_on_c, 2, 71, 80
2, 176280, Note_on_c, 2, 69, 80
2, 176400, Note_on_c, 2, 67, 80
2, 176459, Note_on_c, 2, 69, 0
2, 176497, Note_on_c, 2, 71, 0
2, 176520, Note_on_c, 2, 62, 80
2, 176627, Note_on_c, 2, 67, 0
2, 176633, Note_on_c, 2, 62, 0
2, 177840, Note_on_c, 2, 76, 80
2, 177953, Note_on_c, 2, 76, 0
2, 177960, Note_on_c, 2, 74, 80
2, 178187, Note_on_c, 2, 74, 0
2, 178200, Note_on_c, 2, 72, 80
2, 178440, Note_on_c, 2, 74, 80
2, 178484, Note_on_c, 2, 72, 0
2, 178496, Note_on_c, 2, 74, 0
2, 178500, Note_on_c, 2, 72, 80
2, 178556, Note_on_c, 2, 72, 0
2, 179880, Note_on_c, 2, 62, 80
2, 179936, Note_on_c, 2, 62, 0
2, 179940, Note_on_c, 2, 64, 80
2, 179996, Note_on_c, 2, 64, 0
2, 180000, Note_on_c, 2, 67, 80
2, 180113, Note_on_c, 2, 67, 0
2, 180120, Note_on_c, 2, 69, 80
2, 180233, Note_on_c, 2, 69, 0
2, 180240, Note_on_c, 2, 71, 80
2, 180353, Note_on_c, 2, 71, 0
2, 180360, Note_on_c, 2, 74, 80
2, 180473, Note_on_c, 2, 74, 0
2, 180474, End_track
3, 0, Start_track
3, 0, Title_t, "Electric Bass, Bass\000"
3, 0, Key_signature, 0, "major"
3, 0, Control_c, 4, 121, 0
3, 0, Program_c, 4, 33
3, 0, Control_c, 4, 7, 100
3, 0, Control_c, 4, 10, 64
3, 0, Control_c, 4, 91, 0
3, 0, Control_c, 4, 93, 0
3, 0, MIDI_port, 0
3, 0, Control_c, 1, 121, 0
3, 0, Program_c, 1, 36
3, 0, Control_c, 1, 7, 100
3, 0, Control_c, 1, 10, 64
3, 0, Control_c, 1, 91, 0
3, 0, Control_c, 1, 93, 0
3, 0, MIDI_port, 0
3, 0, Control_c, 3, 121, 0
3, 0, Program_c, 3, 37
3, 0, Control_c, 3, 7, 100
3, 0, Control_c, 3, 10, 64
3, 0, Control_c, 3, 91, 0
3, 0, Control_c, 3, 93, 0
3, 0, MIDI_port, 0
3, 30720, Note_on_c, 4, 55, 80
3, 31439, Note_on_c, 4, 55, 0
3, 31440, Note_on_c, 4, 55, 80
3, 31679, Note_on_c, 4, 55, 0
3, 31680, Note_on_c, 4, 50, 80
3, 32159, Note_on_c, 4, 50, 0
3, 32160, Note_on_c, 4, 52, 80
3, 32639, Note_on_c, 4, 52, 0
3, 32640, Note_on_c, 4, 53, 80
3, 33359, Note_on_c, 4, 53, 0
3, 33360, Note_on_c, 4, 53, 80
3, 33599, Note_on_c, 4, 53, 0
3, 33600, Note_on_c, 4, 57, 80
3, 34079, Note_on_c, 4, 57, 0
3, 34080, Note_on_c, 4, 60, 80
3, 34559, Note_on_c, 4, 60, 0
3, 34560, Note_on_c, 4, 55, 80
3, 35279, Note_on_c, 4, 55, 0
3, 35280, Note_on_c, 4, 55, 80
3, 35519, Note_on_c, 4, 55, 0
3, 35520, Note_on_c, 4, 50, 80
3, 35999, Note_on_c, 4, 50, 0
3, 36000, Note_on_c, 4, 52, 80
3, 36479, Note_on_c, 4, 52, 0
3, 36480, Note_on_c, 4, 53, 80
3, 37199, Note_on_c, 4, 53, 0
3, 37200, Note_on_c, 4, 52, 80
3, 37439, Note_on_c, 4, 52, 0
3, 37440, Note_on_c, 4, 53, 80
3, 37679, Note_on_c, 4, 53, 0
3, 37680, Note_on_c, 4, 48, 80
3, 37919, Note_on_c, 4, 48, 0
3, 37920, Note_on_c, 4, 53, 80
3, 38159, Note_on_c, 4, 53, 0
3, 38160, Note_on_c, 4, 57, 80
3, 38399, Note_on_c, 4, 57, 0
3, 38400, Note_on_c, 4, 55, 80
3, 39119, Note_on_c, 4, 55, 0
3, 39120, Note_on_c, 4, 55, 80
3, 39359, Note_on_c, 4, 55, 0
3, 39360, Note_on_c, 4, 50, 80
3, 39839, Note_on_c, 4, 50, 0
3, 39840, Note_on_c, 4, 52, 80
3, 40319, Note_on_c, 4, 52, 0
3, 40320, Note_on_c, 4, 53, 80
3, 41039, Note_on_c, 4, 53, 0
3, 41040, Note_on_c, 4, 53, 80
3, 41279, Note_on_c, 4, 53, 0
3, 41280, Note_on_c, 4, 57, 80
3, 41759, Note_on_c, 4, 57, 0
3, 41760, Note_on_c, 4, 60, 80
3, 42239, Note_on_c, 4, 60, 0
3, 42240, Note_on_c, 4, 55, 80
3, 42959, Note_on_c, 4, 55, 0
3, 42960, Note_on_c, 4, 55, 80
3, 43199, Note_on_c, 4, 55, 0
3, 43200, Note_on_c, 4, 50, 80
3, 43679, Note_on_c, 4, 50, 0
3, 43680, Note_on_c, 4, 52, 80
3, 44159, Note_on_c, 4, 52, 0
3, 44160, Note_on_c, 4, 53, 80
3, 46079, Note_on_c, 4, 53, 0
3, 46080, Note_on_c, 4, 55, 80
3, 46559, Note_on_c, 4, 55, 0
3, 46800, Note_on_c, 4, 55, 80
3, 47039, Note_on_c, 4, 55, 0
3, 47040, Note_on_c, 4, 50, 80
3, 47519, Note_on_c, 4, 50, 0
3, 47520, Note_on_c, 4, 52, 80
3, 47999, Note_on_c, 4, 52, 0
3, 48000, Note_on_c, 4, 53, 80
3, 48479, Note_on_c, 4, 53, 0
3, 48720, Note_on_c, 4, 53, 80
3, 48959, Note_on_c, 4, 53, 0
3, 48960, Note_on_c, 4, 57, 80
3, 49439, Note_on_c, 4, 57, 0
3, 49440, Note_on_c, 4, 60, 80
3, 49919, Note_on_c, 4, 60, 0
3, 49920, Note_on_c, 4, 55, 80
3, 50399, Note_on_c, 4, 55, 0
3, 50640, Note_on_c, 4, 55, 80
3, 50879, Note_on_c, 4, 55, 0
3, 50880, Note_on_c, 4, 50, 80
3, 51359, Note_on_c, 4, 50, 0
3, 51360, Note_on_c, 4, 52, 80
3, 51839, Note_on_c, 4, 52, 0
3, 51840, Note_on_c, 4, 53, 80
3, 52319, Note_on_c, 4, 53, 0
3, 52440, Note_on_c, 4, 53, 80
3, 52679, Note_on_c, 4, 53, 0
3, 52680, Note_on_c, 4, 52, 80
3, 52799, Note_on_c, 4, 52, 0
3, 52800, Note_on_c, 4, 53, 80
3, 53039, Note_on_c, 4, 53, 0
3, 53040, Note_on_c, 4, 52, 80
3, 53279, Note_on_c, 4, 52, 0
3, 53280, Note_on_c, 4, 53, 80
3, 53519, Note_on_c, 4, 53, 0
3, 53520, Note_on_c, 4, 57, 80
3, 53759, Note_on_c, 4, 57, 0
3, 53760, Note_on_c, 4, 55, 80
3, 54239, Note_on_c, 4, 55, 0
3, 54480, Note_on_c, 4, 55, 80
3, 54719, Note_on_c, 4, 55, 0
3, 54720, Note_on_c, 4, 50, 80
3, 55199, Note_on_c, 4, 50, 0
3, 55200, Note_on_c, 4, 52, 80
3, 55679, Note_on_c, 4, 52, 0
3, 55680, Note_on_c, 4, 53, 80
3, 56159, Note_on_c, 4, 53, 0
3, 56400, Note_on_c, 4, 53, 80
3, 56639, Note_on_c, 4, 53, 0
3, 56640, Note_on_c, 4, 57, 80
3, 57119, Note_on_c, 4, 57, 0
3, 57120, Note_on_c, 4, 60, 80
3, 57599, Note_on_c, 4, 60, 0
3, 57600, Note_on_c, 4, 55, 80
3, 58079, Note_on_c, 4, 55, 0
3, 58320, Note_on_c, 4, 55, 80
3, 58559, Note_on_c, 4, 55, 0
3, 58560, Note_on_c, 4, 50, 80
3, 59039, Note_on_c, 4, 50, 0
3, 59040, Note_on_c, 4, 52, 80
3, 59519, Note_on_c, 4, 52, 0
3, 59520, Note_on_c, 4, 53, 80
3, 59999, Note_on_c, 4, 53, 0
3, 60120, Note_on_c, 4, 53, 80
3, 60359, Note_on_c, 4, 53, 0
3, 60360, Note_on_c, 4, 52, 80
3, 60479, Note_on_c, 4, 52, 0
3, 60480, Note_on_c, 4, 53, 80
3, 60719, Note_on_c, 4, 53, 0
3, 60720, Note_on_c, 4, 52, 80
3, 60959, Note_on_c, 4, 52, 0
3, 60960, Note_on_c, 4, 53, 80
3, 61199, Note_on_c, 4, 53, 0
3, 61200, Note_on_c, 4, 57, 80
3, 61439, Note_on_c, 4, 57, 0
3, 61440, Note_on_c, 4, 55, 80
3, 63359, Note_on_c, 4, 55, 0
3, 63360, Note_on_c, 4, 55, 80
3, 65279, Note_on_c, 4, 55, 0
3, 65280, Note_on_c, 4, 55, 80
3, 67199, Note_on_c, 4, 55, 0
3, 67200, Note_on_c, 4, 55, 80
3, 69119, Note_on_c, 4, 55, 0
3, 69120, Note_on_c, 4, 55, 80
3, 69479, Note_on_c, 4, 55, 0
3, 69480, Note_on_c, 4, 55, 80
3, 69599, Note_on_c, 4, 55, 0
3, 69720, Note_on_c, 4, 55, 80
3, 69959, Note_on_c, 4, 55, 0
3, 69960, Note_on_c, 4, 53, 80
3, 70079, Note_on_c, 4, 53, 0
3, 70080, Note_on_c, 4, 55, 80
3, 70319, Note_on_c, 4, 55, 0
3, 70320, Note_on_c, 4, 50, 80
3, 70559, Note_on_c, 4, 50, 0
3, 70560, Note_on_c, 4, 53, 80
3, 70799, Note_on_c, 4, 53, 0
3, 70800, Note_on_c, 4, 50, 80
3, 71039, Note_on_c, 4, 50, 0
3, 71040, Note_on_c, 4, 55, 80
3, 71399, Note_on_c, 4, 55, 0
3, 71400, Note_on_c, 4, 55, 80
3, 71519, Note_on_c, 4, 55, 0
3, 71640, Note_on_c, 4, 55, 80
3, 71879, Note_on_c, 4, 55, 0
3, 71880, Note_on_c, 4, 53, 80
3, 71999, Note_on_c, 4, 53, 0
3, 72000, Note_on_c, 4, 55, 80
3, 72479, Note_on_c, 4, 55, 0
3, 72960, Note_on_c, 4, 55, 80
3, 73319, Note_on_c, 4, 55, 0
3, 73320, Note_on_c, 4, 55, 80
3, 73439, Note_on_c, 4, 55, 0
3, 73560, Note_on_c, 4, 55, 80
3, 73799, Note_on_c, 4, 55, 0
3, 73800, Note_on_c, 4, 53, 80
3, 73919, Note_on_c, 4, 53, 0
3, 73920, Note_on_c, 4, 55, 80
3, 74159, Note_on_c, 4, 55, 0
3, 74160, Note_on_c, 4, 50, 80
3, 74399, Note_on_c, 4, 50, 0
3, 74400, Note_on_c, 4, 53, 80
3, 74639, Note_on_c, 4, 53, 0
3, 74640, Note_on_c, 4, 50, 80
3, 74879, Note_on_c, 4, 50, 0
3, 74880, Note_on_c, 4, 55, 80
3, 75239, Note_on_c, 4, 55, 0
3, 75240, Note_on_c, 4, 55, 80
3, 75359, Note_on_c, 4, 55, 0
3, 75480, Note_on_c, 4, 55, 80
3, 75719, Note_on_c, 4, 55, 0
3, 75720, Note_on_c, 4, 53, 80
3, 75839, Note_on_c, 4, 53, 0
3, 75840, Note_on_c, 4, 55, 80
3, 76319, Note_on_c, 4, 55, 0
3, 76800, Note_on_c, 4, 55, 80
3, 77159, Note_on_c, 4, 55, 0
3, 77160, Note_on_c, 4, 55, 80
3, 77279, Note_on_c, 4, 55, 0
3, 77400, Note_on_c, 4, 55, 80
3, 77639, Note_on_c, 4, 55, 0
3, 77640, Note_on_c, 4, 53, 80
3, 77759, Note_on_c, 4, 53, 0
3, 77760, Note_on_c, 4, 55, 80
3, 77999, Note_on_c, 4, 55, 0
3, 78000, Note_on_c, 4, 59, 80
3, 78239, Note_on_c, 4, 59, 0
3, 78240, Note_on_c, 4, 55, 80
3, 78479, Note_on_c, 4, 55, 0
3, 78480, Note_on_c, 4, 50, 80
3, 78719, Note_on_c, 4, 50, 0
3, 78720, Note_on_c, 4, 53, 80
3, 79079, Note_on_c, 4, 53, 0
3, 79080, Note_on_c, 4, 53, 80
3, 79199, Note_on_c, 4, 53, 0
3, 79320, Note_on_c, 4, 53, 80
3, 79559, Note_on_c, 4, 53, 0
3, 79560, Note_on_c, 4, 50, 80
3, 79679, Note_on_c, 4, 50, 0
3, 79680, Note_on_c, 4, 53, 80
3, 80159, Note_on_c, 4, 53, 0
3, 80400, Note_on_c, 4, 50, 80
3, 80639, Note_on_c, 4, 50, 0
3, 80640, Note_on_c, 4, 55, 80
3, 80999, Note_on_c, 4, 55, 0
3, 81000, Note_on_c, 4, 55, 80
3, 81119, Note_on_c, 4, 55, 0
3, 81240, Note_on_c, 4, 55, 80
3, 81479, Note_on_c, 4, 55, 0
3, 81480, Note_on_c, 4, 53, 80
3, 81599, Note_on_c, 4, 53, 0
3, 81600, Note_on_c, 4, 55, 80
3, 81839, Note_on_c, 4, 55, 0
3, 81840, Note_on_c, 4, 50, 80
3, 82079, Note_on_c, 4, 50, 0
3, 82080, Note_on_c, 4, 53, 80
3, 82319, Note_on_c, 4, 53, 0
3, 82320, Note_on_c, 4, 50, 80
3, 82559, Note_on_c, 4, 50, 0
3, 82560, Note_on_c, 4, 53, 80
3, 82919, Note_on_c, 4, 53, 0
3, 82920, Note_on_c, 4, 53, 80
3, 83039, Note_on_c, 4, 53, 0
3, 83160, Note_on_c, 4, 53, 80
3, 83399, Note_on_c, 4, 53, 0
3, 83400, Note_on_c, 4, 55, 80
3, 83519, Note_on_c, 4, 55, 0
3, 83520, Note_on_c, 4, 53, 80
3, 83999, Note_on_c, 4, 53, 0
3, 84000, Note_on_c, 4, 50, 80
3, 84239, Note_on_c, 4, 50, 0
3, 84240, Note_on_c, 4, 53, 80
3, 84479, Note_on_c, 4, 53, 0
3, 84480, Note_on_c, 4, 55, 80
3, 84839, Note_on_c, 4, 55, 0
3, 84840, Note_on_c, 4, 55, 80
3, 84959, Note_on_c, 4, 55, 0
3, 85080, Note_on_c, 4, 55, 80
3, 85319, Note_on_c, 4, 55, 0
3, 85320, Note_on_c, 4, 53, 80
3, 85439, Note_on_c, 4, 53, 0
3, 85440, Note_on_c, 4, 55, 80
3, 85679, Note_on_c, 4, 55, 0
3, 85680, Note_on_c, 4, 59, 80
3, 85919, Note_on_c, 4, 59, 0
3, 85920, Note_on_c, 4, 55, 80
3, 86159, Note_on_c, 4, 55, 0
3, 86160, Note_on_c, 4, 50, 80
3, 86399, Note_on_c, 4, 50, 0
3, 86400, Note_on_c, 4, 53, 80
3, 86759, Note_on_c, 4, 53, 0
3, 86760, Note_on_c, 4, 53, 80
3, 86879, Note_on_c, 4, 53, 0
3, 87000, Note_on_c, 4, 53, 80
3, 87239, Note_on_c, 4, 53, 0
3, 87240, Note_on_c, 4, 50, 80
3, 87359, Note_on_c, 4, 50, 0
3, 87360, Note_on_c, 4, 53, 80
3, 87839, Note_on_c, 4, 53, 0
3, 88320, Note_on_c, 4, 55, 80
3, 88679, Note_on_c, 4, 55, 0
3, 88680, Note_on_c, 4, 55, 80
3, 88799, Note_on_c, 4, 55, 0
3, 88920, Note_on_c, 4, 55, 80
3, 89159, Note_on_c, 4, 55, 0
3, 89160, Note_on_c, 4, 53, 80
3, 89279, Note_on_c, 4, 53, 0
3, 89280, Note_on_c, 4, 55, 80
3, 89519, Note_on_c, 4, 55, 0
3, 89520, Note_on_c, 4, 50, 80
3, 89759, Note_on_c, 4, 50, 0
3, 89760, Note_on_c, 4, 53, 80
3, 89999, Note_on_c, 4, 53, 0
3, 90000, Note_on_c, 4, 50, 80
3, 90239, Note_on_c, 4, 50, 0
3, 90240, Note_on_c, 4, 53, 80
3, 90599, Note_on_c, 4, 53, 0
3, 90600, Note_on_c, 4, 53, 80
3, 90719, Note_on_c, 4, 53, 0
3, 90840, Note_on_c, 4, 53, 80
3, 91079, Note_on_c, 4, 53, 0
3, 91080, Note_on_c, 4, 55, 80
3, 91199, Note_on_c, 4, 55, 0
3, 91200, Note_on_c, 4, 53, 80
3, 91679, Note_on_c, 4, 53, 0
3, 92160, Note_on_c, 4, 62, 80
3, 92519, Note_on_c, 4, 62, 0
3, 92520, Note_on_c, 4, 62, 80
3, 92759, Note_on_c, 4, 62, 0
3, 92760, Note_on_c, 4, 62, 80
3, 92999, Note_on_c, 4, 62, 0
3, 93000, Note_on_c, 4, 60, 80
3, 93119, Note_on_c, 4, 60, 0
3, 93120, Note_on_c, 4, 65, 80
3, 93599, Note_on_c, 4, 65, 0
3, 93600, Note_on_c, 4, 62, 80
3, 93839, Note_on_c, 4, 62, 0
3, 93840, Note_on_c, 4, 65, 80
3, 94079, Note_on_c, 4, 65, 0
3, 94080, Note_on_c, 4, 55, 80
3, 94439, Note_on_c, 4, 55, 0
3, 94440, Note_on_c, 4, 55, 80
3, 94679, Note_on_c, 4, 55, 0
3, 94680, Note_on_c, 4, 55, 80
3, 94919, Note_on_c, 4, 55, 0
3, 94920, Note_on_c, 4, 53, 80
3, 95039, Note_on_c, 4, 53, 0
3, 95040, Note_on_c, 4, 55, 80
3, 95519, Note_on_c, 4, 55, 0
3, 96000, Note_on_c, 4, 62, 80
3, 96359, Note_on_c, 4, 62, 0
3, 96360, Note_on_c, 4, 62, 80
3, 96599, Note_on_c, 4, 62, 0
3, 96600, Note_on_c, 4, 62, 80
3, 96839, Note_on_c, 4, 62, 0
3, 96840, Note_on_c, 4, 60, 80
3, 96959, Note_on_c, 4, 60, 0
3, 96960, Note_on_c, 4, 65, 80
3, 97439, Note_on_c, 4, 65, 0
3, 97440, Note_on_c, 4, 62, 80
3, 97679, Note_on_c, 4, 62, 0
3, 97680, Note_on_c, 4, 65, 80
3, 97919, Note_on_c, 4, 65, 0
3, 97920, Note_on_c, 4, 55, 80
3, 98279, Note_on_c, 4, 55, 0
3, 98280, Note_on_c, 4, 55, 80
3, 98519, Note_on_c, 4, 55, 0
3, 98520, Note_on_c, 4, 55, 80
3, 98759, Note_on_c, 4, 55, 0
3, 98760, Note_on_c, 4, 53, 80
3, 98879, Note_on_c, 4, 53, 0
3, 98880, Note_on_c, 4, 55, 80
3, 99359, Note_on_c, 4, 55, 0
3, 138240, Note_on_c, 4, 60, 80
3, 138599, Note_on_c, 4, 60, 0
3, 138600, Note_on_c, 4, 60, 80
3, 138959, Note_on_c, 4, 60, 0
3, 138960, Note_on_c, 4, 60, 80
3, 139919, Note_on_c, 4, 60, 0
3, 139920, Note_on_c, 4, 60, 80
3, 140159, Note_on_c, 4, 60, 0
3, 140160, Note_on_c, 4, 55, 80
3, 140519, Note_on_c, 4, 55, 0
3, 140520, Note_on_c, 4, 55, 80
3, 140879, Note_on_c, 4, 55, 0
3, 140880, Note_on_c, 4, 55, 80
3, 141839, Note_on_c, 4, 55, 0
3, 141840, Note_on_c, 4, 55, 80
3, 142079, Note_on_c, 4, 55, 0
3, 142080, Note_on_c, 4, 62, 80
3, 142439, Note_on_c, 4, 62, 0
3, 142440, Note_on_c, 4, 62, 80
3, 142799, Note_on_c, 4, 62, 0
3, 142800, Note_on_c, 4, 62, 80
3, 143759, Note_on_c, 4, 62, 0
3, 143760, Note_on_c, 4, 62, 80
3, 143999, Note_on_c, 4, 62, 0
3, 144000, Note_on_c, 4, 64, 80
3, 144359, Note_on_c, 4, 64, 0
3, 144360, Note_on_c, 4, 64, 80
3, 144719, Note_on_c, 4, 64, 0
3, 144720, Note_on_c, 4, 64, 80
3, 145679, Note_on_c, 4, 64, 0
3, 145680, Note_on_c, 4, 62, 80
3, 145919, Note_on_c, 4, 62, 0
3, 145920, Note_on_c, 4, 60, 80
3, 146279, Note_on_c, 4, 60, 0
3, 146280, Note_on_c, 4, 60, 80
3, 146639, Note_on_c, 4, 60, 0
3, 146640, Note_on_c, 4, 60, 80
3, 147599, Note_on_c, 4, 60, 0
3, 147600, Note_on_c, 4, 60, 80
3, 147839, Note_on_c, 4, 60, 0
3, 147840, Note_on_c, 4, 55, 80
3, 148199, Note_on_c, 4, 55, 0
3, 148200, Note_on_c, 4, 55, 80
3, 148559, Note_on_c, 4, 55, 0
3, 148560, Note_on_c, 4, 55, 80
3, 149519, Note_on_c, 4, 55, 0
3, 149520, Note_on_c, 4, 55, 80
3, 149759, Note_on_c, 4, 55, 0
3, 149760, Note_on_c, 4, 62, 80
3, 150119, Note_on_c, 4, 62, 0
3, 150120, Note_on_c, 4, 62, 80
3, 150479, Note_on_c, 4, 62, 0
3, 150480, Note_on_c, 4, 62, 80
3, 151439, Note_on_c, 4, 62, 0
3, 151440, Note_on_c, 4, 62, 80
3, 151679, Note_on_c, 4, 62, 0
3, 151680, Note_on_c, 4, 55, 80
3, 152039, Note_on_c, 4, 55, 0
3, 152040, Note_on_c, 4, 55, 80
3, 152399, Note_on_c, 4, 55, 0
3, 152400, Note_on_c, 4, 55, 80
3, 153359, Note_on_c, 4, 55, 0
3, 153360, Note_on_c, 4, 55, 80
3, 153599, Note_on_c, 4, 55, 0
3, 153600, Note_on_c, 4, 60, 80
3, 153959, Note_on_c, 4, 60, 0
3, 153960, Note_on_c, 4, 60, 80
3, 154319, Note_on_c, 4, 60, 0
3, 154320, Note_on_c, 4, 60, 80
3, 155279, Note_on_c, 4, 60, 0
3, 155280, Note_on_c, 4, 60, 80
3, 155519, Note_on_c, 4, 60, 0
3, 155520, Note_on_c, 4, 55, 80
3, 155879, Note_on_c, 4, 55, 0
3, 155880, Note_on_c, 4, 55, 80
3, 156239, Note_on_c, 4, 55, 0
3, 156240, Note_on_c, 4, 55, 80
3, 157199, Note_on_c, 4, 55, 0
3, 157200, Note_on_c, 4, 55, 80
3, 157439, Note_on_c, 4, 55, 0
3, 157440, Note_on_c, 4, 62, 80
3, 157799, Note_on_c, 4, 62, 0
3, 157800, Note_on_c, 4, 62, 80
3, 158159, Note_on_c, 4, 62, 0
3, 158160, Note_on_c, 4, 62, 80
3, 159119, Note_on_c, 4, 62, 0
3, 159120, Note_on_c, 4, 62, 80
3, 159359, Note_on_c, 4, 62, 0
3, 159360, Note_on_c, 4, 64, 80
3, 159719, Note_on_c, 4, 64, 0
3, 159720, Note_on_c, 4, 64, 80
3, 160079, Note_on_c, 4, 64, 0
3, 160080, Note_on_c, 4, 64, 80
3, 161039, Note_on_c, 4, 64, 0
3, 161040, Note_on_c, 4, 62, 80
3, 161279, Note_on_c, 4, 62, 0
3, 161280, Note_on_c, 4, 60, 80
3, 161639, Note_on_c, 4, 60, 0
3, 161640, Note_on_c, 4, 60, 80
3, 161999, Note_on_c, 4, 60, 0
3, 162000, Note_on_c, 4, 60, 80
3, 162959, Note_on_c, 4, 60, 0
3, 162960, Note_on_c, 4, 60, 80
3, 163199, Note_on_c, 4, 60, 0
3, 163200, Note_on_c, 4, 55, 80
3, 163559, Note_on_c, 4, 55, 0
3, 163560, Note_on_c, 4, 55, 80
3, 163919, Note_on_c, 4, 55, 0
3, 163920, Note_on_c, 4, 55, 80
3, 164879, Note_on_c, 4, 55, 0
3, 164880, Note_on_c, 4, 55, 80
3, 165119, Note_on_c, 4, 55, 0
3, 165120, Note_on_c, 4, 62, 80
3, 165479, Note_on_c, 4, 62, 0
3, 165480, Note_on_c, 4, 62, 80
3, 165839, Note_on_c, 4, 62, 0
3, 165840, Note_on_c, 4, 62, 80
3, 166799, Note_on_c, 4, 62, 0
3, 166800, Note_on_c, 4, 62, 80
3, 167039, Note_on_c, 4, 62, 0
3, 167040, Note_on_c, 4, 55, 80
3, 167399, Note_on_c, 4, 55, 0
3, 167400, Note_on_c, 4, 55, 80
3, 167759, Note_on_c, 4, 55, 0
3, 167760, Note_on_c, 4, 55, 80
3, 168719, Note_on_c, 4, 55, 0
3, 168720, Note_on_c, 4, 55, 80
3, 168959, Note_on_c, 4, 55, 0
3, 168960, Note_on_c, 4, 60, 80
3, 169319, Note_on_c, 4, 60, 0
3, 169320, Note_on_c, 4, 60, 80
3, 169679, Note_on_c, 4, 60, 0
3, 169680, Note_on_c, 4, 60, 80
3, 170639, Note_on_c, 4, 60, 0
3, 170640, Note_on_c, 4, 60, 80
3, 170879, Note_on_c, 4, 60, 0
3, 170880, Note_on_c, 4, 55, 80
3, 171239, Note_on_c, 4, 55, 0
3, 171240, Note_on_c, 4, 55, 80
3, 171599, Note_on_c, 4, 55, 0
3, 171600, Note_on_c, 4, 55, 80
3, 172559, Note_on_c, 4, 55, 0
3, 172560, Note_on_c, 4, 55, 80
3, 172799, Note_on_c, 4, 55, 0
3, 172800, Note_on_c, 4, 62, 80
3, 173159, Note_on_c, 4, 62, 0
3, 173160, Note_on_c, 4, 62, 80
3, 173519, Note_on_c, 4, 62, 0
3, 173520, Note_on_c, 4, 62, 80
3, 174479, Note_on_c, 4, 62, 0
3, 174480, Note_on_c, 4, 62, 80
3, 174719, Note_on_c, 4, 62, 0
3, 174720, Note_on_c, 4, 64, 80
3, 175079, Note_on_c, 4, 64, 0
3, 175080, Note_on_c, 4, 64, 80
3, 175439, Note_on_c, 4, 64, 0
3, 175440, Note_on_c, 4, 64, 80
3, 176399, Note_on_c, 4, 64, 0
3, 176400, Note_on_c, 4, 62, 80
3, 176639, Note_on_c, 4, 62, 0
3, 176640, Note_on_c, 4, 60, 80
3, 176999, Note_on_c, 4, 60, 0
3, 177000, Note_on_c, 4, 60, 80
3, 177359, Note_on_c, 4, 60, 0
3, 177360, Note_on_c, 4, 60, 80
3, 178319, Note_on_c, 4, 60, 0
3, 178320, Note_on_c, 4, 60, 80
3, 178559, Note_on_c, 4, 60, 0
3, 178560, Note_on_c, 4, 55, 80
3, 178919, Note_on_c, 4, 55, 0
3, 178920, Note_on_c, 4, 55, 80
3, 179279, Note_on_c, 4, 55, 0
3, 179280, Note_on_c, 4, 55, 80
3, 180239, Note_on_c, 4, 55, 0
3, 180240, Note_on_c, 4, 55, 80
3, 180479, Note_on_c, 4, 55, 0
3, 180480, Note_on_c, 4, 62, 80
3, 180839, Note_on_c, 4, 62, 0
3, 180840, Note_on_c, 4, 62, 80
3, 181199, Note_on_c, 4, 62, 0
3, 181200, Note_on_c, 4, 62, 80
3, 182159, Note_on_c, 4, 62, 0
3, 182160, Note_on_c, 4, 62, 80
3, 182399, Note_on_c, 4, 62, 0
3, 182400, Note_on_c, 4, 55, 80
3, 184319, Note_on_c, 4, 55, 0
3, 184320, End_track
0, 0, End_of_file
