0, 0, Header, 1, 4, 480
1, 0, Start_track
1, 0, Title_t, "Piano, Piano, Piano, Piano\000"
1, 0, Time_signature, 4, 2, 24, 8
1, 0, Key_signature, 0, "major"
1, 0, Tempo, 545455
1, 0, Control_c, 0, 121, 0
1, 0, Program_c, 0, 0
1, 0, Control_c, 0, 7, 100
1, 0, Control_c, 0, 10, 64
1, 0, Control_c, 0, 91, 0
1, 0, Control_c, 0, 93, 0
1, 0, MIDI_port, 0
1, 0, Note_on_c, 0, 76, 80
1, 455, Note_on_c, 0, 76, 0
1, 480, Note_on_c, 0, 76, 80
1, 783, Note_on_c, 0, 76, 0
1, 800, Note_on_c, 0, 69, 80
1, 951, Note_on_c, 0, 69, 0
1, 960, Note_on_c, 0, 74, 80
1, 1111, Note_on_c, 0, 74, 0
1, 1120, Note_on_c, 0, 76, 80
1, 1271, Note_on_c, 0, 76, 0
1, 1440, Note_on_c, 0, 76, 80
1, 1895, Note_on_c, 0, 76, 0
1, 1920, Note_on_c, 0, 76, 80
1, 2375, Note_on_c, 0, 76, 0
1, 2400, Note_on_c, 0, 76, 80
1, 2703, Note_on_c, 0, 76, 0
1, 2720, Note_on_c, 0, 69, 80
1, 2871, Note_on_c, 0, 69, 0
1, 2880, Note_on_c, 0, 74, 80
1, 3031, Note_on_c, 0, 74, 0
1, 3040, Note_on_c, 0, 76, 80
1, 3191, Note_on_c, 0, 76, 0
1, 3360, Note_on_c, 0, 76, 80
1, 3815, Note_on_c, 0, 76, 0
1, 3840, Note_on_c, 0, 76, 80
1, 4295, Note_on_c, 0, 76, 0
1, 4320, Note_on_c, 0, 76, 80
1, 4623, Note_on_c, 0, 76, 0
1, 4640, Note_on_c, 0, 69, 80
1, 4791, Note_on_c, 0, 69, 0
1, 4800, Note_on_c, 0, 74, 80
1, 4951, Note_on_c, 0, 74, 0
1, 4960, Note_on_c, 0, 76, 80
1, 5111, Note_on_c, 0, 76, 0
1, 5280, Note_on_c, 0, 74, 80
1, 5359, Note_on_c, 0, 74, 0
1, 5600, Note_on_c, 0, 72, 80
1, 6663, Note_on_c, 0, 72, 0
1, 7680, Note_on_c, 0, 76, 80
1, 8135, Note_on_c, 0, 76, 0
1, 8160, Note_on_c, 0, 76, 80
1, 8463, Note_on_c, 0, 76, 0
1, 8480, Note_on_c, 0, 69, 80
1, 8631, Note_on_c, 0, 69, 0
1, 8640, Note_on_c, 0, 74, 80
1, 8791, Note_on_c, 0, 74, 0
1, 8800, Note_on_c, 0, 76, 80
1, 8951, Note_on_c, 0, 76, 0
1, 9120, Note_on_c, 0, 76, 80
1, 9575, Note_on_c, 0, 76, 0
1, 9600, Note_on_c, 0, 76, 80
1, 10055, Note_on_c, 0, 76, 0
1, 10080, Note_on_c, 0, 76, 80
1, 10383, Note_on_c, 0, 76, 0
1, 10400, Note_on_c, 0, 69, 80
1, 10551, Note_on_c, 0, 69, 0
1, 10560, Note_on_c, 0, 74, 80
1, 10711, Note_on_c, 0, 74, 0
1, 10720, Note_on_c, 0, 76, 80
1, 10871, Note_on_c, 0, 76, 0
1, 11040, Note_on_c, 0, 76, 80
1, 11495, Note_on_c, 0, 76, 0
1, 11520, Note_on_c, 0, 76, 80
1, 11975, Note_on_c, 0, 76, 0
1, 12000, Note_on_c, 0, 76, 80
1, 12303, Note_on_c, 0, 76, 0
1, 12320, Note_on_c, 0, 69, 80
1, 12471, Note_on_c, 0, 69, 0
1, 12480, Note_on_c, 0, 74, 80
1, 12631, Note_on_c, 0, 74, 0
1, 12640, Note_on_c, 0, 76, 80
1, 12791, Note_on_c, 0, 76, 0
1, 12960, Note_on_c, 0, 74, 80
1, 13039, Note_on_c, 0, 74, 0
1, 13280, Note_on_c, 0, 72, 80
1, 13431, Note_on_c, 0, 72, 0
1, 14240, Note_on_c, 0, 67, 80
1, 14391, Note_on_c, 0, 67, 0
1, 14400, Note_on_c, 0, 69, 80
1, 14551, Note_on_c, 0, 69, 0
1, 14720, Note_on_c, 0, 72, 80
1, 14871, Note_on_c, 0, 72, 0
1, 14880, Note_on_c, 0, 74, 80
1, 15031, Note_on_c, 0, 74, 0
1, 15200, Note_on_c, 0, 72, 80
1, 15351, Note_on_c, 0, 72, 0
1, 22080, Note_on_c, 0, 76, 80
1, 22159, Note_on_c, 0, 76, 0
1, 22400, Note_on_c, 0, 77, 80
1, 22665, Note_on_c, 0, 77, 0
1, 22680, Note_on_c, 0, 76, 80
1, 23021, Note_on_c, 0, 76, 0
1, 23040, Note_on_c, 0, 74, 80
1, 23279, Note_on_c, 0, 74, 0
1, 24000, Note_on_c, 0, 72, 80
1, 24911, Note_on_c, 0, 72, 0
1, 25920, Note_on_c, 0, 76, 80
1, 25999, Note_on_c, 0, 76, 0
1, 26240, Note_on_c, 0, 77, 80
1, 26505, Note_on_c, 0, 77, 0
1, 26520, Note_on_c, 0, 76, 80
1, 26861, Note_on_c, 0, 76, 0
1, 26880, Note_on_c, 0, 74, 80
1, 27119, Note_on_c, 0, 74, 0
1, 27840, Note_on_c, 0, 72, 80
1, 28751, Note_on_c, 0, 72, 0
1, 28800, Note_on_c, 0, 69, 80
1, 28879, Note_on_c, 0, 69, 0
1, 29120, Note_on_c, 0, 67, 80
1, 29727, Note_on_c, 0, 67, 0
1, 29760, Note_on_c, 0, 76, 80
1, 29839, Note_on_c, 0, 76, 0
1, 30080, Note_on_c, 0, 77, 80
1, 30345, Note_on_c, 0, 77, 0
1, 30360, Note_on_c, 0, 76, 80
1, 30701, Note_on_c, 0, 76, 0
1, 30720, Note_on_c, 0, 74, 80
1, 30959, Note_on_c, 0, 74, 0
1, 31680, Note_on_c, 0, 72, 80
1, 32591, Note_on_c, 0, 72, 0
1, 33600, Note_on_c, 0, 76, 80
1, 33679, Note_on_c, 0, 76, 0
1, 33920, Note_on_c, 0, 77, 80
1, 34185, Note_on_c, 0, 77, 0
1, 34200, Note_on_c, 0, 76, 80
1, 34541, Note_on_c, 0, 76, 0
1, 34560, Note_on_c, 0, 74, 80
1, 34799, Note_on_c, 0, 74, 0
1, 35520, Note_on_c, 0, 72, 80
1, 36431, Note_on_c, 0, 72, 0
1, 36480, Note_on_c, 0, 69, 80
1, 36559, Note_on_c, 0, 69, 0
1, 36800, Note_on_c, 0, 67, 80
1, 37407, Note_on_c, 0, 67, 0
1, 37440, Note_on_c, 0, 76, 80
1, 37519, Note_on_c, 0, 76, 0
1, 37760, Note_on_c, 0, 77, 80
1, 38025, Note_on_c, 0, 77, 0
1, 38040, Note_on_c, 0, 76, 80
1, 38381, Note_on_c, 0, 76, 0
1, 38400, Note_on_c, 0, 74, 80
1, 38855, Note_on_c, 0, 74, 0
1, 38880, Note_on_c, 0, 76, 80
1, 39031, Note_on_c, 0, 76, 0
1, 39040, Note_on_c, 0, 69, 80
1, 39191, Note_on_c, 0, 69, 0
1, 39200, Note_on_c, 0, 72, 80
1, 40263, Note_on_c, 0, 72, 0
1, 41280, Note_on_c, 0, 76, 80
1, 41583, Note_on_c, 0, 76, 0
1, 41600, Note_on_c, 0, 77, 80
1, 41759, Note_on_c, 0, 77, 0
1, 41920, Note_on_c, 0, 76, 80
1, 42079, Note_on_c, 0, 76, 0
1, 42240, Note_on_c, 0, 74, 80
1, 42923, Note_on_c, 0, 74, 0
1, 43040, Note_on_c, 0, 72, 80
1, 43647, Note_on_c, 0, 72, 0
1, 43680, Note_on_c, 0, 69, 80
1, 43831, Note_on_c, 0, 69, 0
1, 43840, Note_on_c, 0, 64, 80
1, 43991, Note_on_c, 0, 64, 0
1, 44000, Note_on_c, 0, 67, 80
1, 44151, Note_on_c, 0, 67, 0
1, 44160, Note_on_c, 0, 67, 80
1, 44204, Note_on_c, 0, 67, 0
1, 44208, Note_on_c, 0, 69, 80
1, 44434, Note_on_c, 0, 69, 0
1, 44448, Note_on_c, 0, 67, 80
1, 45085, Note_on_c, 0, 67, 0
1, 45120, Note_on_c, 0, 76, 80
1, 45199, Note_on_c, 0, 76, 0
1, 45440, Note_on_c, 0, 77, 80
1, 45705, Note_on_c, 0, 77, 0
1, 45720, Note_on_c, 0, 79, 80
1, 46061, Note_on_c, 0, 79, 0
1, 46080, Note_on_c, 0, 79, 80
1, 46991, Note_on_c, 0, 79, 0
1, 47040, Note_on_c, 0, 76, 80
1, 47119, Note_on_c, 0, 76, 0
1, 47360, Note_on_c, 0, 77, 80
1, 47625, Note_on_c, 0, 77, 0
1, 47640, Note_on_c, 0, 79, 80
1, 47981, Note_on_c, 0, 79, 0
1, 48000, Note_on_c, 0, 77, 80
1, 48911, Note_on_c, 0, 77, 0
1, 49280, Note_on_c, 0, 76, 80
1, 49583, Note_on_c, 0, 76, 0
1, 49600, Note_on_c, 0, 76, 80
1, 49903, Note_on_c, 0, 76, 0
1, 49920, Note_on_c, 0, 76, 80
1, 50375, Note_on_c, 0, 76, 0
1, 50400, Note_on_c, 0, 74, 80
1, 50703, Note_on_c, 0, 74, 0
1, 50720, Note_on_c, 0, 72, 80
1, 50871, Note_on_c, 0, 72, 0
1, 50880, Note_on_c, 0, 74, 80
1, 51335, Note_on_c, 0, 74, 0
1, 51360, Note_on_c, 0, 72, 80
1, 51663, Note_on_c, 0, 72, 0
1, 51680, Note_on_c, 0, 69, 80
1, 52743, Note_on_c, 0, 69, 0
1, 52800, Note_on_c, 0, 76, 80
1, 52879, Note_on_c, 0, 76, 0
1, 53120, Note_on_c, 0, 77, 80
1, 53385, Note_on_c, 0, 77, 0
1, 53400, Note_on_c, 0, 76, 80
1, 53741, Note_on_c, 0, 76, 0
1, 53760, Note_on_c, 0, 74, 80
1, 53999, Note_on_c, 0, 74, 0
1, 54720, Note_on_c, 0, 72, 80
1, 55631, Note_on_c, 0, 72, 0
1, 55680, Note_on_c, 0, 69, 80
1, 55919, Note_on_c, 0, 69, 0
1, 56640, Note_on_c, 0, 67, 80
1, 57551, Note_on_c, 0, 67, 0
1, 57600, Note_on_c, 0, 72, 80
1, 57839, Note_on_c, 0, 72, 0
1, 58240, Note_on_c, 0, 55, 80
1, 58391, Note_on_c, 0, 55, 0
1, 58400, Note_on_c, 0, 57, 80
1, 58551, Note_on_c, 0, 57, 0
1, 58560, Note_on_c, 0, 60, 80
1, 58711, Note_on_c, 0, 60, 0
1, 58720, Note_on_c, 0, 62, 80
1, 58871, Note_on_c, 0, 62, 0
1, 58880, Note_on_c, 0, 64, 80
1, 59031, Note_on_c, 0, 64, 0
1, 59040, Note_on_c, 0, 67, 80
1, 59191, Note_on_c, 0, 67, 0
1, 59200, Note_on_c, 0, 69, 80
1, 59351, Note_on_c, 0, 69, 0
1, 59360, Note_on_c, 0, 72, 80
1, 59511, Note_on_c, 0, 72, 0
1, 60000, Note_on_c, 0, 72, 80
1, 60455, Note_on_c, 0, 72, 0
1, 60480, Note_on_c, 0, 76, 80
1, 60783, Note_on_c, 0, 76, 0
1, 60800, Note_on_c, 0, 77, 80
1, 61103, Note_on_c, 0, 77, 0
1, 61120, Note_on_c, 0, 76, 80
1, 61423, Note_on_c, 0, 76, 0
1, 61440, Note_on_c, 0, 74, 80
1, 62123, Note_on_c, 0, 74, 0
1, 62240, Note_on_c, 0, 72, 80
1, 63303, Note_on_c, 0, 72, 0
1, 63840, Note_on_c, 0, 69, 80
1, 63991, Note_on_c, 0, 69, 0
1, 64000, Note_on_c, 0, 72, 80
1, 64151, Note_on_c, 0, 72, 0
1, 64160, Note_on_c, 0, 74, 80
1, 64311, Note_on_c, 0, 74, 0
1, 64320, Note_on_c, 0, 76, 80
1, 64623, Note_on_c, 0, 76, 0
1, 64640, Note_on_c, 0, 77, 80
1, 64943, Note_on_c, 0, 77, 0
1, 64960, Note_on_c, 0, 76, 80
1, 65263, Note_on_c, 0, 76, 0
1, 65280, Note_on_c, 0, 74, 80
1, 66191, Note_on_c, 0, 74, 0
1, 66240, Note_on_c, 0, 72, 80
1, 66479, Note_on_c, 0, 72, 0
1, 66720, Note_on_c, 0, 67, 80
1, 66776, Note_on_c, 0, 67, 0
1, 66780, Note_on_c, 0, 69, 80
1, 67064, Note_on_c, 0, 69, 0
1, 67080, Note_on_c, 0, 67, 80
1, 67649, Note_on_c, 0, 67, 0
1, 68160, Note_on_c, 0, 76, 80
1, 68463, Note_on_c, 0, 76, 0
1, 68480, Note_on_c, 0, 77, 80
1, 68783, Note_on_c, 0, 77, 0
1, 68800, Note_on_c, 0, 76, 80
1, 69103, Note_on_c, 0, 76, 0
1, 69120, Note_on_c, 0, 74, 80
1, 69575, Note_on_c, 0, 74, 0
1, 69600, Note_on_c, 0, 76, 80
1, 69751, Note_on_c, 0, 76, 0
1, 69760, Note_on_c, 0, 69, 80
1, 69911, Note_on_c, 0, 69, 0
1, 69920, Note_on_c, 0, 72, 80
1, 70983, Note_on_c, 0, 72, 0
1, 71520, Note_on_c, 0, 69, 80
1, 71671, Note_on_c, 0, 69, 0
1, 71680, Note_on_c, 0, 72, 80
1, 71831, Note_on_c, 0, 72, 0
1, 71840, Note_on_c, 0, 74, 80
1, 71991, Note_on_c, 0, 74, 0
1, 72000, Note_on_c, 0, 76, 80
1, 72303, Note_on_c, 0, 76, 0
1, 72320, Note_on_c, 0, 77, 80
1, 72623, Note_on_c, 0, 77, 0
1, 72640, Note_on_c, 0, 76, 80
1, 72943, Note_on_c, 0, 76, 0
1, 72960, Note_on_c, 0, 74, 80
1, 73871, Note_on_c, 0, 74, 0
1, 73920, Note_on_c, 0, 72, 80
1, 74159, Note_on_c, 0, 72, 0
1, 74400, Note_on_c, 0, 67, 80
1, 74456, Note_on_c, 0, 67, 0
1, 74460, Note_on_c, 0, 69, 80
1, 74744, Note_on_c, 0, 69, 0
1, 74760, Note_on_c, 0, 67, 80
1, 74873, Note_on_c, 0, 67, 0
1, 74880, Note_on_c, 0, 72, 80
1, 75335, Note_on_c, 0, 72, 0
1, 75840, Note_on_c, 0, 76, 80
1, 76143, Note_on_c, 0, 76, 0
1, 76160, Note_on_c, 0, 77, 80
1, 76311, Note_on_c, 0, 77, 0
1, 76320, Note_on_c, 0, 79, 80
1, 76623, Note_on_c, 0, 79, 0
1, 76640, Note_on_c, 0, 79, 80
1, 77399, Note_on_c, 0, 79, 0
1, 77600, Note_on_c, 0, 76, 80
1, 77751, Note_on_c, 0, 76, 0
1, 77760, Note_on_c, 0, 77, 80
1, 78063, Note_on_c, 0, 77, 0
1, 78080, Note_on_c, 0, 79, 80
1, 78231, Note_on_c, 0, 79, 0
1, 78560, Note_on_c, 0, 77, 80
1, 79623, Note_on_c, 0, 77, 0
1, 80000, Note_on_c, 0, 69, 80
1, 80151, Note_on_c, 0, 69, 0
1, 80160, Note_on_c, 0, 72, 80
1, 80463, Note_on_c, 0, 72, 0
1, 80480, Note_on_c, 0, 76, 80
1, 80631, Note_on_c, 0, 76, 0
1, 80960, Note_on_c, 0, 74, 80
1, 81111, Note_on_c, 0, 74, 0
1, 81120, Note_on_c, 0, 72, 80
1, 81423, Note_on_c, 0, 72, 0
1, 81440, Note_on_c, 0, 74, 80
1, 82047, Note_on_c, 0, 74, 0
1, 82080, Note_on_c, 0, 72, 80
1, 82383, Note_on_c, 0, 72, 0
1, 82400, Note_on_c, 0, 69, 80
1, 82551, Note_on_c, 0, 69, 0
1, 82880, Note_on_c, 0, 76, 80
1, 83031, Note_on_c, 0, 76, 0
1, 83200, Note_on_c, 0, 69, 80
1, 83351, Note_on_c, 0, 69, 0
1, 83360, Note_on_c, 0, 72, 80
1, 83511, Note_on_c, 0, 72, 0
1, 83520, Note_on_c, 0, 76, 80
1, 83823, Note_on_c, 0, 76, 0
1, 83840, Note_on_c, 0, 77, 80
1, 84143, Note_on_c, 0, 77, 0
1, 84160, Note_on_c, 0, 76, 80
1, 84463, Note_on_c, 0, 76, 0
1, 84480, Note_on_c, 0, 74, 80
1, 85391, Note_on_c, 0, 74, 0
1, 85440, Note_on_c, 0, 72, 80
1, 86351, Note_on_c, 0, 72, 0
1, 86400, Note_on_c, 0, 69, 80
1, 87311, Note_on_c, 0, 69, 0
1, 87680, Note_on_c, 0, 67, 80
1, 87831, Note_on_c, 0, 67, 0
1, 88160, Note_on_c, 0, 72, 80
1, 88311, Note_on_c, 0, 72, 0
1, 88960, Note_on_c, 0, 55, 80
1, 89111, Note_on_c, 0, 55, 0
1, 89120, Note_on_c, 0, 57, 80
1, 89271, Note_on_c, 0, 57, 0
1, 89280, Note_on_c, 0, 60, 80
1, 89431, Note_on_c, 0, 60, 0
1, 89440, Note_on_c, 0, 62, 80
1, 89591, Note_on_c, 0, 62, 0
1, 89600, Note_on_c, 0, 64, 80
1, 89751, Note_on_c, 0, 64, 0
1, 89760, Note_on_c, 0, 67, 80
1, 89911, Note_on_c, 0, 67, 0
1, 89920, Note_on_c, 0, 69, 80
1, 90071, Note_on_c, 0, 69, 0
1, 90080, Note_on_c, 0, 72, 80
1, 90231, Note_on_c, 0, 72, 0
1, 90240, Note_on_c, 0, 72, 80
1, 90695, Note_on_c, 0, 72, 0
1, 90720, Note_on_c, 0, 72, 80
1, 91175, Note_on_c, 0, 72, 0
1, 91520, Note_on_c, 0, 74, 80
1, 91671, Note_on_c, 0, 74, 0
1, 92160, Note_on_c, 0, 76, 80
1, 92399, Note_on_c, 0, 76, 0
1, 93440, Note_on_c, 0, 79, 80
1, 93591, Note_on_c, 0, 79, 0
1, 93600, Note_on_c, 0, 76, 80
1, 93903, Note_on_c, 0, 76, 0
1, 93920, Note_on_c, 0, 74, 80
1, 94603, Note_on_c, 0, 74, 0
1, 94880, Note_on_c, 0, 72, 80
1, 95031, Note_on_c, 0, 72, 0
1, 95040, Note_on_c, 0, 74, 80
1, 95343, Note_on_c, 0, 74, 0
1, 95360, Note_on_c, 0, 72, 80
1, 95511, Note_on_c, 0, 72, 0
1, 95520, Note_on_c, 0, 74, 80
1, 95823, Note_on_c, 0, 74, 0
1, 95840, Note_on_c, 0, 76, 80
1, 96333, Note_on_c, 0, 76, 0
1, 96360, Note_on_c, 0, 76, 80
1, 96416, Note_on_c, 0, 76, 0
1, 96420, Note_on_c, 0, 74, 80
1, 96476, Note_on_c, 0, 74, 0
1, 96480, Note_on_c, 0, 72, 80
1, 96783, Note_on_c, 0, 72, 0
1, 96800, Note_on_c, 0, 69, 80
1, 96951, Note_on_c, 0, 69, 0
1, 96960, Note_on_c, 0, 72, 80
1, 97263, Note_on_c, 0, 72, 0
1, 97280, Note_on_c, 0, 69, 80
1, 97431, Note_on_c, 0, 69, 0
1, 97440, Note_on_c, 0, 67, 80
1, 97743, Note_on_c, 0, 67, 0
1, 97760, Note_on_c, 0, 64, 80
1, 97911, Note_on_c, 0, 64, 0
1, 98720, Note_on_c, 0, 72, 80
1, 98871, Note_on_c, 0, 72, 0
1, 98880, Note_on_c, 0, 76, 80
1, 99183, Note_on_c, 0, 76, 0
1, 99200, Note_on_c, 0, 79, 80
1, 99351, Note_on_c, 0, 79, 0
1, 99360, Note_on_c, 0, 76, 80
1, 99663, Note_on_c, 0, 76, 0
1, 99680, Note_on_c, 0, 74, 80
1, 99831, Note_on_c, 0, 74, 0
1, 99840, Note_on_c, 0, 74, 80
1, 99877, Note_on_c, 0, 74, 0
1, 99880, Note_on_c, 0, 76, 80
1, 100297, Note_on_c, 0, 76, 0
1, 100320, Note_on_c, 0, 79, 80
1, 100775, Note_on_c, 0, 79, 0
1, 100800, Note_on_c, 0, 76, 80
1, 101103, Note_on_c, 0, 76, 0
1, 101120, Note_on_c, 0, 74, 80
1, 101271, Note_on_c, 0, 74, 0
1, 101280, Note_on_c, 0, 72, 80
1, 101583, Note_on_c, 0, 72, 0
1, 101600, Note_on_c, 0, 74, 80
1, 102549, Note_on_c, 0, 74, 0
1, 102600, Note_on_c, 0, 74, 80
1, 102656, Note_on_c, 0, 74, 0
1, 102660, Note_on_c, 0, 76, 80
1, 102716, Note_on_c, 0, 76, 0
1, 102720, Note_on_c, 0, 74, 80
1, 103023, Note_on_c, 0, 74, 0
1, 103040, Note_on_c, 0, 72, 80
1, 103191, Note_on_c, 0, 72, 0
1, 103200, Note_on_c, 0, 69, 80
1, 103503, Note_on_c, 0, 69, 0
1, 103520, Note_on_c, 0, 72, 80
1, 103671, Note_on_c, 0, 72, 0
1, 103680, Note_on_c, 0, 76, 80
1, 104135, Note_on_c, 0, 76, 0
1, 104160, Note_on_c, 0, 76, 80
1, 104615, Note_on_c, 0, 76, 0
1, 104640, Note_on_c, 0, 76, 80
1, 104943, Note_on_c, 0, 76, 0
1, 104960, Note_on_c, 0, 72, 80
1, 105111, Note_on_c, 0, 72, 0
1, 105120, Note_on_c, 0, 74, 80
1, 105423, Note_on_c, 0, 74, 0
1, 105440, Note_on_c, 0, 72, 80
1, 106123, Note_on_c, 0, 72, 0
1, 106400, Note_on_c, 0, 72, 80
1, 106551, Note_on_c, 0, 72, 0
1, 106560, Note_on_c, 0, 74, 80
1, 106863, Note_on_c, 0, 74, 0
1, 106880, Note_on_c, 0, 76, 80
1, 107031, Note_on_c, 0, 76, 0
1, 107040, Note_on_c, 0, 79, 80
1, 107343, Note_on_c, 0, 79, 0
1, 107360, Note_on_c, 0, 81, 80
1, 107511, Note_on_c, 0, 81, 0
1, 108320, Note_on_c, 0, 84, 80
1, 108471, Note_on_c, 0, 84, 0
1, 108480, Note_on_c, 0, 81, 80
1, 108935, Note_on_c, 0, 81, 0
1, 108960, Note_on_c, 0, 77, 80
1, 109263, Note_on_c, 0, 77, 0
1, 109280, Note_on_c, 0, 76, 80
1, 109431, Note_on_c, 0, 76, 0
1, 109440, Note_on_c, 0, 74, 80
1, 110351, Note_on_c, 0, 74, 0
1, 110400, Note_on_c, 0, 76, 80
1, 110703, Note_on_c, 0, 76, 0
1, 110720, Note_on_c, 0, 74, 80
1, 110871, Note_on_c, 0, 74, 0
1, 110880, Note_on_c, 0, 76, 80
1, 111335, Note_on_c, 0, 76, 0
1, 111360, Note_on_c, 0, 81, 80
1, 112575, Note_on_c, 0, 81, 0
1, 112640, Note_on_c, 0, 81, 80
1, 112791, Note_on_c, 0, 81, 0
1, 112800, Note_on_c, 0, 83, 80
1, 113255, Note_on_c, 0, 83, 0
1, 113280, Note_on_c, 0, 84, 80
1, 114495, Note_on_c, 0, 84, 0
1, 114560, Note_on_c, 0, 83, 80
1, 114711, Note_on_c, 0, 83, 0
1, 114720, Note_on_c, 0, 81, 80
1, 115175, Note_on_c, 0, 81, 0
1, 115200, Note_on_c, 0, 81, 80
1, 115237, Note_on_c, 0, 81, 0
1, 115240, Note_on_c, 0, 83, 80
1, 115657, Note_on_c, 0, 83, 0
1, 115680, Note_on_c, 0, 84, 80
1, 116135, Note_on_c, 0, 84, 0
1, 116160, Note_on_c, 0, 79, 80
1, 116615, Note_on_c, 0, 79, 0
1, 116640, Note_on_c, 0, 76, 80
1, 116943, Note_on_c, 0, 76, 0
1, 116960, Note_on_c, 0, 74, 80
1, 117111, Note_on_c, 0, 74, 0
1, 117120, Note_on_c, 0, 76, 80
1, 117575, Note_on_c, 0, 76, 0
1, 117600, Note_on_c, 0, 74, 80
1, 117903, Note_on_c, 0, 74, 0
1, 117920, Note_on_c, 0, 72, 80
1, 118299, Note_on_c, 0, 72, 0
1, 118320, Note_on_c, 0, 69, 80
1, 118547, Note_on_c, 0, 69, 0
1, 118560, Note_on_c, 0, 72, 80
1, 119015, Note_on_c, 0, 72, 0
1, 119040, Note_on_c, 0, 72, 80
1, 119279, Note_on_c, 0, 72, 0
1, 119680, Note_on_c, 0, 67, 80
1, 119831, Note_on_c, 0, 67, 0
1, 119840, Note_on_c, 0, 69, 80
1, 119991, Note_on_c, 0, 69, 0
1, 120000, Note_on_c, 0, 72, 80
1, 120151, Note_on_c, 0, 72, 0
1, 120160, Note_on_c, 0, 74, 80
1, 120311, Note_on_c, 0, 74, 0
1, 120320, Note_on_c, 0, 76, 80
1, 120471, Note_on_c, 0, 76, 0
1, 120480, Note_on_c, 0, 79, 80
1, 120631, Note_on_c, 0, 79, 0
1, 120640, Note_on_c, 0, 81, 80
1, 120791, Note_on_c, 0, 81, 0
1, 120800, Note_on_c, 0, 84, 80
1, 120951, Note_on_c, 0, 84, 0
1, 120960, Note_on_c, 0, 84, 80
1, 121199, Note_on_c, 0, 84, 0
1, 121440, Note_on_c, 0, 64, 80
1, 121440, Note_on_c, 0, 67, 80
1, 121440, Note_on_c, 0, 72, 80
1, 121619, Note_on_c, 0, 64, 0
1, 121619, Note_on_c, 0, 67, 0
1, 121619, Note_on_c, 0, 72, 0
1, 121860, Note_on_c, 0, 67, 80
1, 121916, Note_on_c, 0, 67, 0
1, 121920, Note_on_c, 0, 72, 80
1, 121957, Note_on_c, 0, 72, 0
1, 121960, Note_on_c, 0, 76, 80
1, 122263, Note_on_c, 0, 76, 0
1, 122280, Note_on_c, 0, 77, 80
1, 122507, Note_on_c, 0, 77, 0
1, 122520, Note_on_c, 0, 76, 80
1, 122639, Note_on_c, 0, 76, 0
1, 122760, Note_on_c, 0, 69, 80
1, 122816, Note_on_c, 0, 69, 0
1, 122820, Note_on_c, 0, 72, 80
1, 122876, Note_on_c, 0, 72, 0
1, 122880, Note_on_c, 0, 74, 80
1, 123119, Note_on_c, 0, 74, 0
1, 123840, Note_on_c, 0, 72, 80
1, 124751, Note_on_c, 0, 72, 0
1, 125700, Note_on_c, 0, 69, 80
1, 125756, Note_on_c, 0, 69, 0
1, 125760, Note_on_c, 0, 72, 80
1, 125797, Note_on_c, 0, 72, 0
1, 125800, Note_on_c, 0, 76, 80
1, 126103, Note_on_c, 0, 76, 0
1, 126120, Note_on_c, 0, 77, 80
1, 126347, Note_on_c, 0, 77, 0
1, 126360, Note_on_c, 0, 76, 80
1, 126587, Note_on_c, 0, 76, 0
1, 126600, Note_on_c, 0, 65, 80
1, 126656, Note_on_c, 0, 65, 0
1, 126660, Note_on_c, 0, 69, 80
1, 126716, Note_on_c, 0, 69, 0
1, 126720, Note_on_c, 0, 74, 80
1, 126959, Note_on_c, 0, 74, 0
1, 127680, Note_on_c, 0, 72, 80
1, 128591, Note_on_c, 0, 72, 0
1, 128640, Note_on_c, 0, 67, 80
1, 128684, Note_on_c, 0, 67, 0
1, 128688, Note_on_c, 0, 69, 80
1, 128914, Note_on_c, 0, 69, 0
1, 128928, Note_on_c, 0, 67, 80
1, 129451, Note_on_c, 0, 67, 0
1, 129540, Note_on_c, 0, 67, 80
1, 129596, Note_on_c, 0, 67, 0
1, 129600, Note_on_c, 0, 72, 80
1, 129637, Note_on_c, 0, 72, 0
1, 129640, Note_on_c, 0, 76, 80
1, 129943, Note_on_c, 0, 76, 0
1, 129960, Note_on_c, 0, 77, 80
1, 130187, Note_on_c, 0, 77, 0
1, 130200, Note_on_c, 0, 76, 80
1, 130427, Note_on_c, 0, 76, 0
1, 130440, Note_on_c, 0, 69, 80
1, 130496, Note_on_c, 0, 69, 0
1, 130500, Note_on_c, 0, 72, 80
1, 130556, Note_on_c, 0, 72, 0
1, 130560, Note_on_c, 0, 74, 80
1, 130799, Note_on_c, 0, 74, 0
1, 131520, Note_on_c, 0, 72, 80
1, 132431, Note_on_c, 0, 72, 0
1, 133380, Note_on_c, 0, 69, 80
1, 133436, Note_on_c, 0, 69, 0
1, 133440, Note_on_c, 0, 72, 80
1, 133477, Note_on_c, 0, 72, 0
1, 133480, Note_on_c, 0, 76, 80
1, 133783, Note_on_c, 0, 76, 0
1, 133800, Note_on_c, 0, 77, 80
1, 134027, Note_on_c, 0, 77, 0
1, 134040, Note_on_c, 0, 76, 80
1, 134267, Note_on_c, 0, 76, 0
1, 134280, Note_on_c, 0, 69, 80
1, 134336, Note_on_c, 0, 69, 0
1, 134340, Note_on_c, 0, 72, 80
1, 134396, Note_on_c, 0, 72, 0
1, 134400, Note_on_c, 0, 74, 80
1, 134639, Note_on_c, 0, 74, 0
1, 135360, Note_on_c, 0, 72, 80
1, 136271, Note_on_c, 0, 72, 0
1, 136320, Note_on_c, 0, 67, 80
1, 136364, Note_on_c, 0, 67, 0
1, 136368, Note_on_c, 0, 69, 80
1, 136594, Note_on_c, 0, 69, 0
1, 136608, Note_on_c, 0, 67, 80
1, 137131, Note_on_c, 0, 67, 0
1, 137220, Note_on_c, 0, 67, 80
1, 137276, Note_on_c, 0, 67, 0
1, 137280, Note_on_c, 0, 72, 80
1, 137317, Note_on_c, 0, 72, 0
1, 137320, Note_on_c, 0, 76, 80
1, 137623, Note_on_c, 0, 76, 0
1, 137640, Note_on_c, 0, 77, 80
1, 137867, Note_on_c, 0, 77, 0
1, 137880, Note_on_c, 0, 79, 80
1, 138107, Note_on_c, 0, 79, 0
1, 138120, Note_on_c, 0, 69, 80
1, 138176, Note_on_c, 0, 69, 0
1, 138180, Note_on_c, 0, 72, 80
1, 138236, Note_on_c, 0, 72, 0
1, 138240, Note_on_c, 0, 79, 80
1, 138479, Note_on_c, 0, 79, 0
1, 139140, Note_on_c, 0, 69, 80
1, 139196, Note_on_c, 0, 69, 0
1, 139200, Note_on_c, 0, 72, 80
1, 139237, Note_on_c, 0, 72, 0
1, 139240, Note_on_c, 0, 76, 80
1, 139543, Note_on_c, 0, 76, 0
1, 139560, Note_on_c, 0, 77, 80
1, 139787, Note_on_c, 0, 77, 0
1, 139800, Note_on_c, 0, 79, 80
1, 139919, Note_on_c, 0, 79, 0
1, 140040, Note_on_c, 0, 69, 80
1, 140096, Note_on_c, 0, 69, 0
1, 140100, Note_on_c, 0, 72, 80
1, 140156, Note_on_c, 0, 72, 0
1, 140160, Note_on_c, 0, 77, 80
1, 141071, Note_on_c, 0, 77, 0
1, 141440, Note_on_c, 0, 76, 80
1, 141743, Note_on_c, 0, 76, 0
1, 141760, Note_on_c, 0, 76, 80
1, 142063, Note_on_c, 0, 76, 0
1, 142080, Note_on_c, 0, 76, 80
1, 142535, Note_on_c, 0, 76, 0
1, 142560, Note_on_c, 0, 74, 80
1, 142863, Note_on_c, 0, 74, 0
1, 142880, Note_on_c, 0, 72, 80
1, 143031, Note_on_c, 0, 72, 0
1, 143040, Note_on_c, 0, 74, 80
1, 143495, Note_on_c, 0, 74, 0
1, 143520, Note_on_c, 0, 72, 80
1, 143823, Note_on_c, 0, 72, 0
1, 143840, Note_on_c, 0, 69, 80
1, 144219, Note_on_c, 0, 69, 0
1, 144900, Note_on_c, 0, 69, 80
1, 144956, Note_on_c, 0, 69, 0
1, 144960, Note_on_c, 0, 72, 80
1, 144997, Note_on_c, 0, 72, 0
1, 145000, Note_on_c, 0, 76, 80
1, 145303, Note_on_c, 0, 76, 0
1, 145320, Note_on_c, 0, 77, 80
1, 145547, Note_on_c, 0, 77, 0
1, 145560, Note_on_c, 0, 76, 80
1, 145787, Note_on_c, 0, 76, 0
1, 145800, Note_on_c, 0, 69, 80
1, 145856, Note_on_c, 0, 69, 0
1, 145860, Note_on_c, 0, 72, 80
1, 145916, Note_on_c, 0, 72, 0
1, 145920, Note_on_c, 0, 74, 80
1, 146159, Note_on_c, 0, 74, 0
1, 146880, Note_on_c, 0, 72, 80
1, 147791, Note_on_c, 0, 72, 0
1, 147840, Note_on_c, 0, 67, 80
1, 147877, Note_on_c, 0, 67, 0
1, 147880, Note_on_c, 0, 69, 80
1, 148753, Note_on_c, 0, 69, 0
1, 148800, Note_on_c, 0, 67, 80
1, 149711, Note_on_c, 0, 67, 0
1, 149760, Note_on_c, 0, 72, 80
1, 149999, Note_on_c, 0, 72, 0
1, 150400, Note_on_c, 0, 67, 80
1, 150551, Note_on_c, 0, 67, 0
1, 150560, Note_on_c, 0, 69, 80
1, 150711, Note_on_c, 0, 69, 0
1, 150720, Note_on_c, 0, 72, 80
1, 150871, Note_on_c, 0, 72, 0
1, 150880, Note_on_c, 0, 74, 80
1, 151031, Note_on_c, 0, 74, 0
1, 151040, Note_on_c, 0, 76, 80
1, 151191, Note_on_c, 0, 76, 0
1, 151200, Note_on_c, 0, 79, 80
1, 151351, Note_on_c, 0, 79, 0
1, 151360, Note_on_c, 0, 81, 80
1, 151511, Note_on_c, 0, 81, 0
1, 151520, Note_on_c, 0, 84, 80
1, 151671, Note_on_c, 0, 84, 0
1, 151680, Note_on_c, 0, 84, 80
1, 151919, Note_on_c, 0, 84, 0
1, 152160, Note_on_c, 0, 64, 80
1, 152160, Note_on_c, 0, 67, 80
1, 152160, Note_on_c, 0, 72, 80
1, 152399, Note_on_c, 0, 64, 0
1, 152399, Note_on_c, 0, 67, 0
1, 152399, Note_on_c, 0, 72, 0
1, 152400, End_track
2, 0, Start_track
2, 0, Title_t, "Piano, Piano, Piano, Piano\000"
2, 0, Key_signature, 0, "major"
2, 0, MIDI_port, 0
2, 0, Note_on_c, 0, 57, 80
2, 0, Note_on_c, 0, 60, 80
2, 0, Note_on_c, 0, 64, 80
2, 911, Note_on_c, 0, 57, 0
2, 911, Note_on_c, 0, 60, 0
2, 911, Note_on_c, 0, 64, 0
2, 960, Note_on_c, 0, 57, 80
2, 960, Note_on_c, 0, 60, 80
2, 960, Note_on_c, 0, 64, 80
2, 1871, Note_on_c, 0, 57, 0
2, 1871, Note_on_c, 0, 60, 0
2, 1871, Note_on_c, 0, 64, 0
2, 1920, Note_on_c, 0, 57, 80
2, 1920, Note_on_c, 0, 60, 80
2, 1920, Note_on_c, 0, 62, 80
2, 2831, Note_on_c, 0, 57, 0
2, 2831, Note_on_c, 0, 60, 0
2, 2831, Note_on_c, 0, 62, 0
2, 2880, Note_on_c, 0, 57, 80
2, 2880, Note_on_c, 0, 60, 80
2, 2880, Note_on_c, 0, 62, 80
2, 3791, Note_on_c, 0, 57, 0
2, 3791, Note_on_c, 0, 60, 0
2, 3791, Note_on_c, 0, 62, 0
2, 3840, Note_on_c, 0, 57, 80
2, 3840, Note_on_c, 0, 60, 80
2, 3840, Note_on_c, 0, 65, 80
2, 4751, Note_on_c, 0, 57, 0
2, 4751, Note_on_c, 0, 60, 0
2, 4751, Note_on_c, 0, 65, 0
2, 4800, Note_on_c, 0, 57, 80
2, 4800, Note_on_c, 0, 60, 80
2, 4800, Note_on_c, 0, 65, 80
2, 5711, Note_on_c, 0, 57, 0
2, 5711, Note_on_c, 0, 60, 0
2, 5711, Note_on_c, 0, 65, 0
2, 5760, Note_on_c, 0, 55, 80
2, 5760, Note_on_c, 0, 60, 80
2, 5760, Note_on_c, 0, 64, 80
2, 6671, Note_on_c, 0, 55, 0
2, 6671, Note_on_c, 0, 60, 0
2, 6671, Note_on_c, 0, 64, 0
2, 6720, Note_on_c, 0, 55, 80
2, 6720, Note_on_c, 0, 60, 80
2, 6720, Note_on_c, 0, 64, 80
2, 7175, Note_on_c, 0, 55, 0
2, 7175, Note_on_c, 0, 60, 0
2, 7175, Note_on_c, 0, 64, 0
2, 7200, Note_on_c, 0, 55, 80
2, 7200, Note_on_c, 0, 60, 80
2, 7200, Note_on_c, 0, 64, 80
2, 7655, Note_on_c, 0, 55, 0
2, 7655, Note_on_c, 0, 60, 0
2, 7655, Note_on_c, 0, 64, 0
2, 7680, Note_on_c, 0, 57, 80
2, 7680, Note_on_c, 0, 60, 80
2, 7680, Note_on_c, 0, 64, 80
2, 8135, Note_on_c, 0, 57, 0
2, 8135, Note_on_c, 0, 60, 0
2, 8135, Note_on_c, 0, 64, 0
2, 8160, Note_on_c, 0, 57, 80
2, 8160, Note_on_c, 0, 60, 80
2, 8160, Note_on_c, 0, 64, 80
2, 8615, Note_on_c, 0, 57, 0
2, 8615, Note_on_c, 0, 60, 0
2, 8615, Note_on_c, 0, 64, 0
2, 8640, Note_on_c, 0, 57, 80
2, 8640, Note_on_c, 0, 60, 80
2, 8640, Note_on_c, 0, 64, 80
2, 9095, Note_on_c, 0, 57, 0
2, 9095, Note_on_c, 0, 60, 0
2, 9095, Note_on_c, 0, 64, 0
2, 9120, Note_on_c, 0, 57, 80
2, 9120, Note_on_c, 0, 60, 80
2, 9120, Note_on_c, 0, 64, 80
2, 9575, Note_on_c, 0, 57, 0
2, 9575, Note_on_c, 0, 60, 0
2, 9575, Note_on_c, 0, 64, 0
2, 9600, Note_on_c, 0, 57, 80
2, 9600, Note_on_c, 0, 60, 80
2, 9600, Note_on_c, 0, 62, 80
2, 10055, Note_on_c, 0, 57, 0
2, 10055, Note_on_c, 0, 60, 0
2, 10055, Note_on_c, 0, 62, 0
2, 10080, Note_on_c, 0, 57, 80
2, 10080, Note_on_c, 0, 60, 80
2, 10080, Note_on_c, 0, 62, 80
2, 10535, Note_on_c, 0, 57, 0
2, 10535, Note_on_c, 0, 60, 0
2, 10535, Note_on_c, 0, 62, 0
2, 10560, Note_on_c, 0, 57, 80
2, 10560, Note_on_c, 0, 60, 80
2, 10560, Note_on_c, 0, 62, 80
2, 11015, Note_on_c, 0, 57, 0
2, 11015, Note_on_c, 0, 60, 0
2, 11015, Note_on_c, 0, 62, 0
2, 11040, Note_on_c, 0, 57, 80
2, 11040, Note_on_c, 0, 60, 80
2, 11040, Note_on_c, 0, 62, 80
2, 11495, Note_on_c, 0, 57, 0
2, 11495, Note_on_c, 0, 60, 0
2, 11495, Note_on_c, 0, 62, 0
2, 11520, Note_on_c, 0, 57, 80
2, 11520, Note_on_c, 0, 60, 80
2, 11520, Note_on_c, 0, 65, 80
2, 11975, Note_on_c, 0, 57, 0
2, 11975, Note_on_c, 0, 60, 0
2, 11975, Note_on_c, 0, 65, 0
2, 12000, Note_on_c, 0, 57, 80
2, 12000, Note_on_c, 0, 60, 80
2, 12000, Note_on_c, 0, 65, 80
2, 12455, Note_on_c, 0, 57, 0
2, 12455, Note_on_c, 0, 60, 0
2, 12455, Note_on_c, 0, 65, 0
2, 12480, Note_on_c, 0, 57, 80
2, 12480, Note_on_c, 0, 60, 80
2, 12480, Note_on_c, 0, 65, 80
2, 12935, Note_on_c, 0, 57, 0
2, 12935, Note_on_c, 0, 60, 0
2, 12935, Note_on_c, 0, 65, 0
2, 12960, Note_on_c, 0, 57, 80
2, 12960, Note_on_c, 0, 60, 80
2, 12960, Note_on_c, 0, 65, 80
2, 13415, Note_on_c, 0, 57, 0
2, 13415, Note_on_c, 0, 60, 0
2, 13415, Note_on_c, 0, 65, 0
2, 13440, Note_on_c, 0, 55, 80
2, 13440, Note_on_c, 0, 60, 80
2, 13440, Note_on_c, 0, 64, 80
2, 13895, Note_on_c, 0, 55, 0
2, 13895, Note_on_c, 0, 60, 0
2, 13895, Note_on_c, 0, 64, 0
2, 13920, Note_on_c, 0, 55, 80
2, 13920, Note_on_c, 0, 60, 80
2, 13920, Note_on_c, 0, 64, 80
2, 14375, Note_on_c, 0, 55, 0
2, 14375, Note_on_c, 0, 60, 0
2, 14375, Note_on_c, 0, 64, 0
2, 14400, Note_on_c, 0, 55, 80
2, 14400, Note_on_c, 0, 60, 80
2, 14400, Note_on_c, 0, 64, 80
2, 14855, Note_on_c, 0, 55, 0
2, 14855, Note_on_c, 0, 60, 0
2, 14855, Note_on_c, 0, 64, 0
2, 14880, Note_on_c, 0, 55, 80
2, 14880, Note_on_c, 0, 60, 80
2, 14880, Note_on_c, 0, 64, 80
2, 15335, Note_on_c, 0, 55, 0
2, 15335, Note_on_c, 0, 60, 0
2, 15335, Note_on_c, 0, 64, 0
2, 15360, Note_on_c, 0, 57, 80
2, 15360, Note_on_c, 0, 60, 80
2, 15360, Note_on_c, 0, 64, 80
2, 15815, Note_on_c, 0, 57, 0
2, 15815, Note_on_c, 0, 60, 0
2, 15815, Note_on_c, 0, 64, 0
2, 15840, Note_on_c, 0, 57, 80
2, 15840, Note_on_c, 0, 60, 80
2, 15840, Note_on_c, 0, 64, 80
2, 16295, Note_on_c, 0, 57, 0
2, 16295, Note_on_c, 0, 60, 0
2, 16295, Note_on_c, 0, 64, 0
2, 16320, Note_on_c, 0, 57, 80
2, 16320, Note_on_c, 0, 60, 80
2, 16775, Note_on_c, 0, 57, 0
2, 16775, Note_on_c, 0, 60, 0
2, 16800, Note_on_c, 0, 57, 80
2, 16800, Note_on_c, 0, 60, 80
2, 16800, Note_on_c, 0, 64, 80
2, 17255, Note_on_c, 0, 57, 0
2, 17255, Note_on_c, 0, 60, 0
2, 17255, Note_on_c, 0, 64, 0
2, 17280, Note_on_c, 0, 57, 80
2, 17280, Note_on_c, 0, 60, 80
2, 17280, Note_on_c, 0, 62, 80
2, 17735, Note_on_c, 0, 57, 0
2, 17735, Note_on_c, 0, 60, 0
2, 17735, Note_on_c, 0, 62, 0
2, 17760, Note_on_c, 0, 57, 80
2, 17760, Note_on_c, 0, 60, 80
2, 17760, Note_on_c, 0, 62, 80
2, 18215, Note_on_c, 0, 57, 0
2, 18215, Note_on_c, 0, 60, 0
2, 18215, Note_on_c, 0, 62, 0
2, 18240, Note_on_c, 0, 57, 80
2, 18240, Note_on_c, 0, 60, 80
2, 18240, Note_on_c, 0, 62, 80
2, 18695, Note_on_c, 0, 57, 0
2, 18695, Note_on_c, 0, 60, 0
2, 18695, Note_on_c, 0, 62, 0
2, 18720, Note_on_c, 0, 57, 80
2, 18720, Note_on_c, 0, 60, 80
2, 18720, Note_on_c, 0, 62, 80
2, 19175, Note_on_c, 0, 57, 0
2, 19175, Note_on_c, 0, 60, 0
2, 19175, Note_on_c, 0, 62, 0
2, 19200, Note_on_c, 0, 57, 80
2, 19200, Note_on_c, 0, 60, 80
2, 19200, Note_on_c, 0, 65, 80
2, 19655, Note_on_c, 0, 57, 0
2, 19655, Note_on_c, 0, 60, 0
2, 19655, Note_on_c, 0, 65, 0
2, 19680, Note_on_c, 0, 57, 80
2, 19680, Note_on_c, 0, 60, 80
2, 19680, Note_on_c, 0, 65, 80
2, 20135, Note_on_c, 0, 57, 0
2, 20135, Note_on_c, 0, 60, 0
2, 20135, Note_on_c, 0, 65, 0
2, 20160, Note_on_c, 0, 57, 80
2, 20160, Note_on_c, 0, 60, 80
2, 20160, Note_on_c, 0, 65, 80
2, 20615, Note_on_c, 0, 57, 0
2, 20615, Note_on_c, 0, 60, 0
2, 20615, Note_on_c, 0, 65, 0
2, 20640, Note_on_c, 0, 57, 80
2, 20640, Note_on_c, 0, 60, 80
2, 20640, Note_on_c, 0, 65, 80
2, 21095, Note_on_c, 0, 57, 0
2, 21095, Note_on_c, 0, 60, 0
2, 21095, Note_on_c, 0, 65, 0
2, 21120, Note_on_c, 0, 55, 80
2, 21120, Note_on_c, 0, 60, 80
2, 21120, Note_on_c, 0, 64, 80
2, 21575, Note_on_c, 0, 55, 0
2, 21575, Note_on_c, 0, 60, 0
2, 21575, Note_on_c, 0, 64, 0
2, 21600, Note_on_c, 0, 55, 80
2, 21600, Note_on_c, 0, 60, 80
2, 21600, Note_on_c, 0, 64, 80
2, 22055, Note_on_c, 0, 55, 0
2, 22055, Note_on_c, 0, 60, 0
2, 22055, Note_on_c, 0, 64, 0
2, 22080, Note_on_c, 0, 55, 80
2, 22080, Note_on_c, 0, 60, 80
2, 22080, Note_on_c, 0, 64, 80
2, 22535, Note_on_c, 0, 55, 0
2, 22535, Note_on_c, 0, 60, 0
2, 22535, Note_on_c, 0, 64, 0
2, 22560, Note_on_c, 0, 55, 80
2, 22560, Note_on_c, 0, 60, 80
2, 22560, Note_on_c, 0, 64, 80
2, 23015, Note_on_c, 0, 55, 0
2, 23015, Note_on_c, 0, 60, 0
2, 23015, Note_on_c, 0, 64, 0
2, 23040, Note_on_c, 0, 57, 80
2, 23040, Note_on_c, 0, 60, 80
2, 23040, Note_on_c, 0, 64, 80
2, 23495, Note_on_c, 0, 57, 0
2, 23495, Note_on_c, 0, 60, 0
2, 23495, Note_on_c, 0, 64, 0
2, 23520, Note_on_c, 0, 57, 80
2, 23520, Note_on_c, 0, 60, 80
2, 23520, Note_on_c, 0, 64, 80
2, 23975, Note_on_c, 0, 57, 0
2, 23975, Note_on_c, 0, 60, 0
2, 23975, Note_on_c, 0, 64, 0
2, 24000, Note_on_c, 0, 57, 80
2, 24000, Note_on_c, 0, 60, 80
2, 24000, Note_on_c, 0, 64, 80
2, 24455, Note_on_c, 0, 57, 0
2, 24455, Note_on_c, 0, 60, 0
2, 24455, Note_on_c, 0, 64, 0
2, 24480, Note_on_c, 0, 57, 80
2, 24480, Note_on_c, 0, 60, 80
2, 24480, Note_on_c, 0, 64, 80
2, 24935, Note_on_c, 0, 57, 0
2, 24935, Note_on_c, 0, 60, 0
2, 24935, Note_on_c, 0, 64, 0
2, 24960, Note_on_c, 0, 57, 80
2, 24960, Note_on_c, 0, 60, 80
2, 24960, Note_on_c, 0, 62, 80
2, 25415, Note_on_c, 0, 57, 0
2, 25415, Note_on_c, 0, 60, 0
2, 25415, Note_on_c, 0, 62, 0
2, 25440, Note_on_c, 0, 57, 80
2, 25440, Note_on_c, 0, 60, 80
2, 25440, Note_on_c, 0, 62, 80
2, 25895, Note_on_c, 0, 57, 0
2, 25895, Note_on_c, 0, 60, 0
2, 25895, Note_on_c, 0, 62, 0
2, 25920, Note_on_c, 0, 57, 80
2, 25920, Note_on_c, 0, 60, 80
2, 25920, Note_on_c, 0, 62, 80
2, 26375, Note_on_c, 0, 57, 0
2, 26375, Note_on_c, 0, 60, 0
2, 26375, Note_on_c, 0, 62, 0
2, 26400, Note_on_c, 0, 57, 80
2, 26400, Note_on_c, 0, 60, 80
2, 26400, Note_on_c, 0, 62, 80
2, 26855, Note_on_c, 0, 57, 0
2, 26855, Note_on_c, 0, 60, 0
2, 26855, Note_on_c, 0, 62, 0
2, 26880, Note_on_c, 0, 57, 80
2, 26880, Note_on_c, 0, 60, 80
2, 26880, Note_on_c, 0, 65, 80
2, 27335, Note_on_c, 0, 57, 0
2, 27335, Note_on_c, 0, 60, 0
2, 27335, Note_on_c, 0, 65, 0
2, 27360, Note_on_c, 0, 57, 80
2, 27360, Note_on_c, 0, 60, 80
2, 27360, Note_on_c, 0, 65, 80
2, 27815, Note_on_c, 0, 57, 0
2, 27815, Note_on_c, 0, 60, 0
2, 27815, Note_on_c, 0, 65, 0
2, 27840, Note_on_c, 0, 57, 80
2, 27840, Note_on_c, 0, 60, 80
2, 27840, Note_on_c, 0, 65, 80
2, 28295, Note_on_c, 0, 57, 0
2, 28295, Note_on_c, 0, 60, 0
2, 28295, Note_on_c, 0, 65, 0
2, 28320, Note_on_c, 0, 57, 80
2, 28320, Note_on_c, 0, 60, 80
2, 28320, Note_on_c, 0, 65, 80
2, 28775, Note_on_c, 0, 57, 0
2, 28775, Note_on_c, 0, 60, 0
2, 28775, Note_on_c, 0, 65, 0
2, 28800, Note_on_c, 0, 55, 80
2, 28800, Note_on_c, 0, 60, 80
2, 28800, Note_on_c, 0, 64, 80
2, 29255, Note_on_c, 0, 55, 0
2, 29255, Note_on_c, 0, 60, 0
2, 29255, Note_on_c, 0, 64, 0
2, 29280, Note_on_c, 0, 55, 80
2, 29280, Note_on_c, 0, 60, 80
2, 29280, Note_on_c, 0, 64, 80
2, 29735, Note_on_c, 0, 55, 0
2, 29735, Note_on_c, 0, 60, 0
2, 29735, Note_on_c, 0, 64, 0
2, 29760, Note_on_c, 0, 55, 80
2, 29760, Note_on_c, 0, 60, 80
2, 29760, Note_on_c, 0, 64, 80
2, 30215, Note_on_c, 0, 55, 0
2, 30215, Note_on_c, 0, 60, 0
2, 30215, Note_on_c, 0, 64, 0
2, 30240, Note_on_c, 0, 55, 80
2, 30240, Note_on_c, 0, 60, 80
2, 30240, Note_on_c, 0, 64, 80
2, 30695, Note_on_c, 0, 55, 0
2, 30695, Note_on_c, 0, 60, 0
2, 30695, Note_on_c, 0, 64, 0
2, 30720, Note_on_c, 0, 57, 80
2, 30720, Note_on_c, 0, 60, 80
2, 30720, Note_on_c, 0, 64, 80
2, 31175, Note_on_c, 0, 57, 0
2, 31175, Note_on_c, 0, 60, 0
2, 31175, Note_on_c, 0, 64, 0
2, 31200, Note_on_c, 0, 57, 80
2, 31200, Note_on_c, 0, 60, 80
2, 31200, Note_on_c, 0, 64, 80
2, 31655, Note_on_c, 0, 57, 0
2, 31655, Note_on_c, 0, 60, 0
2, 31655, Note_on_c, 0, 64, 0
2, 31680, Note_on_c, 0, 57, 80
2, 31680, Note_on_c, 0, 60, 80
2, 31680, Note_on_c, 0, 64, 80
2, 32135, Note_on_c, 0, 57, 0
2, 32135, Note_on_c, 0, 60, 0
2, 32135, Note_on_c, 0, 64, 0
2, 32160, Note_on_c, 0, 57, 80
2, 32160, Note_on_c, 0, 60, 80
2, 32160, Note_on_c, 0, 64, 80
2, 32615, Note_on_c, 0, 57, 0
2, 32615, Note_on_c, 0, 60, 0
2, 32615, Note_on_c, 0, 64, 0
2, 32640, Note_on_c, 0, 57, 80
2, 32640, Note_on_c, 0, 60, 80
2, 32640, Note_on_c, 0, 62, 80
2, 33095, Note_on_c, 0, 57, 0
2, 33095, Note_on_c, 0, 60, 0
2, 33095, Note_on_c, 0, 62, 0
2, 33120, Note_on_c, 0, 57, 80
2, 33120, Note_on_c, 0, 60, 80
2, 33120, Note_on_c, 0, 62, 80
2, 33575, Note_on_c, 0, 57, 0
2, 33575, Note_on_c, 0, 60, 0
2, 33575, Note_on_c, 0, 62, 0
2, 33600, Note_on_c, 0, 57, 80
2, 33600, Note_on_c, 0, 60, 80
2, 33600, Note_on_c, 0, 62, 80
2, 34055, Note_on_c, 0, 57, 0
2, 34055, Note_on_c, 0, 60, 0
2, 34055, Note_on_c, 0, 62, 0
2, 34080, Note_on_c, 0, 57, 80
2, 34080, Note_on_c, 0, 60, 80
2, 34080, Note_on_c, 0, 62, 80
2, 34535, Note_on_c, 0, 57, 0
2, 34535, Note_on_c, 0, 60, 0
2, 34535, Note_on_c, 0, 62, 0
2, 34560, Note_on_c, 0, 57, 80
2, 34560, Note_on_c, 0, 60, 80
2, 34560, Note_on_c, 0, 65, 80
2, 35015, Note_on_c, 0, 57, 0
2, 35015, Note_on_c, 0, 60, 0
2, 35015, Note_on_c, 0, 65, 0
2, 35040, Note_on_c, 0, 57, 80
2, 35040, Note_on_c, 0, 60, 80
2, 35040, Note_on_c, 0, 65, 80
2, 35495, Note_on_c, 0, 57, 0
2, 35495, Note_on_c, 0, 60, 0
2, 35495, Note_on_c, 0, 65, 0
2, 35520, Note_on_c, 0, 57, 80
2, 35520, Note_on_c, 0, 60, 80
2, 35520, Note_on_c, 0, 65, 80
2, 35975, Note_on_c, 0, 57, 0
2, 35975, Note_on_c, 0, 60, 0
2, 35975, Note_on_c, 0, 65, 0
2, 36000, Note_on_c, 0, 57, 80
2, 36000, Note_on_c, 0, 60, 80
2, 36000, Note_on_c, 0, 65, 80
2, 36455, Note_on_c, 0, 57, 0
2, 36455, Note_on_c, 0, 60, 0
2, 36455, Note_on_c, 0, 65, 0
2, 36480, Note_on_c, 0, 55, 80
2, 36480, Note_on_c, 0, 60, 80
2, 36480, Note_on_c, 0, 64, 80
2, 36935, Note_on_c, 0, 55, 0
2, 36935, Note_on_c, 0, 60, 0
2, 36935, Note_on_c, 0, 64, 0
2, 36960, Note_on_c, 0, 55, 80
2, 36960, Note_on_c, 0, 60, 80
2, 36960, Note_on_c, 0, 64, 80
2, 37415, Note_on_c, 0, 55, 0
2, 37415, Note_on_c, 0, 60, 0
2, 37415, Note_on_c, 0, 64, 0
2, 37440, Note_on_c, 0, 55, 80
2, 37440, Note_on_c, 0, 60, 80
2, 37440, Note_on_c, 0, 64, 80
2, 37895, Note_on_c, 0, 55, 0
2, 37895, Note_on_c, 0, 60, 0
2, 37895, Note_on_c, 0, 64, 0
2, 37920, Note_on_c, 0, 55, 80
2, 37920, Note_on_c, 0, 60, 80
2, 37920, Note_on_c, 0, 64, 80
2, 38375, Note_on_c, 0, 55, 0
2, 38375, Note_on_c, 0, 60, 0
2, 38375, Note_on_c, 0, 64, 0
2, 38400, Note_on_c, 0, 57, 80
2, 38400, Note_on_c, 0, 60, 80
2, 38400, Note_on_c, 0, 64, 80
2, 38855, Note_on_c, 0, 57, 0
2, 38855, Note_on_c, 0, 60, 0
2, 38855, Note_on_c, 0, 64, 0
2, 38880, Note_on_c, 0, 57, 80
2, 38880, Note_on_c, 0, 60, 80
2, 38880, Note_on_c, 0, 64, 80
2, 39335, Note_on_c, 0, 57, 0
2, 39335, Note_on_c, 0, 60, 0
2, 39335, Note_on_c, 0, 64, 0
2, 39360, Note_on_c, 0, 57, 80
2, 39360, Note_on_c, 0, 60, 80
2, 39360, Note_on_c, 0, 64, 80
2, 39815, Note_on_c, 0, 57, 0
2, 39815, Note_on_c, 0, 60, 0
2, 39815, Note_on_c, 0, 64, 0
2, 39840, Note_on_c, 0, 57, 80
2, 39840, Note_on_c, 0, 60, 80
2, 39840, Note_on_c, 0, 64, 80
2, 40295, Note_on_c, 0, 57, 0
2, 40295, Note_on_c, 0, 60, 0
2, 40295, Note_on_c, 0, 64, 0
2, 40320, Note_on_c, 0, 57, 80
2, 40320, Note_on_c, 0, 60, 80
2, 40320, Note_on_c, 0, 62, 80
2, 40775, Note_on_c, 0, 57, 0
2, 40775, Note_on_c, 0, 60, 0
2, 40775, Note_on_c, 0, 62, 0
2, 40800, Note_on_c, 0, 57, 80
2, 40800, Note_on_c, 0, 60, 80
2, 40800, Note_on_c, 0, 62, 80
2, 41255, Note_on_c, 0, 57, 0
2, 41255, Note_on_c, 0, 60, 0
2, 41255, Note_on_c, 0, 62, 0
2, 41280, Note_on_c, 0, 57, 80
2, 41280, Note_on_c, 0, 60, 80
2, 41280, Note_on_c, 0, 62, 80
2, 41735, Note_on_c, 0, 57, 0
2, 41735, Note_on_c, 0, 60, 0
2, 41735, Note_on_c, 0, 62, 0
2, 41760, Note_on_c, 0, 57, 80
2, 41760, Note_on_c, 0, 60, 80
2, 41760, Note_on_c, 0, 62, 80
2, 42215, Note_on_c, 0, 57, 0
2, 42215, Note_on_c, 0, 60, 0
2, 42215, Note_on_c, 0, 62, 0
2, 42240, Note_on_c, 0, 57, 80
2, 42240, Note_on_c, 0, 60, 80
2, 42240, Note_on_c, 0, 65, 80
2, 42695, Note_on_c, 0, 57, 0
2, 42695, Note_on_c, 0, 60, 0
2, 42695, Note_on_c, 0, 65, 0
2, 42720, Note_on_c, 0, 57, 80
2, 42720, Note_on_c, 0, 60, 80
2, 42720, Note_on_c, 0, 65, 80
2, 43175, Note_on_c, 0, 57, 0
2, 43175, Note_on_c, 0, 60, 0
2, 43175, Note_on_c, 0, 65, 0
2, 43200, Note_on_c, 0, 57, 80
2, 43200, Note_on_c, 0, 60, 80
2, 43200, Note_on_c, 0, 65, 80
2, 43655, Note_on_c, 0, 57, 0
2, 43655, Note_on_c, 0, 60, 0
2, 43655, Note_on_c, 0, 65, 0
2, 43680, Note_on_c, 0, 57, 80
2, 43680, Note_on_c, 0, 60, 80
2, 43680, Note_on_c, 0, 65, 80
2, 44135, Note_on_c, 0, 57, 0
2, 44135, Note_on_c, 0, 60, 0
2, 44135, Note_on_c, 0, 65, 0
2, 44160, Note_on_c, 0, 55, 80
2, 44160, Note_on_c, 0, 60, 80
2, 44160, Note_on_c, 0, 64, 80
2, 44615, Note_on_c, 0, 55, 0
2, 44615, Note_on_c, 0, 60, 0
2, 44615, Note_on_c, 0, 64, 0
2, 44640, Note_on_c, 0, 55, 80
2, 44640, Note_on_c, 0, 60, 80
2, 44640, Note_on_c, 0, 64, 80
2, 45095, Note_on_c, 0, 55, 0
2, 45095, Note_on_c, 0, 60, 0
2, 45095, Note_on_c, 0, 64, 0
2, 45120, Note_on_c, 0, 55, 80
2, 45120, Note_on_c, 0, 60, 80
2, 45120, Note_on_c, 0, 64, 80
2, 45575, Note_on_c, 0, 55, 0
2, 45575, Note_on_c, 0, 60, 0
2, 45575, Note_on_c, 0, 64, 0
2, 45600, Note_on_c, 0, 55, 80
2, 45600, Note_on_c, 0, 60, 80
2, 45600, Note_on_c, 0, 64, 80
2, 46055, Note_on_c, 0, 55, 0
2, 46055, Note_on_c, 0, 60, 0
2, 46055, Note_on_c, 0, 64, 0
2, 46080, Note_on_c, 0, 53, 80
2, 46080, Note_on_c, 0, 60, 80
2, 46080, Note_on_c, 0, 64, 80
2, 46535, Note_on_c, 0, 53, 0
2, 46535, Note_on_c, 0, 60, 0
2, 46535, Note_on_c, 0, 64, 0
2, 46560, Note_on_c, 0, 53, 80
2, 46560, Note_on_c, 0, 60, 80
2, 46560, Note_on_c, 0, 64, 80
2, 47015, Note_on_c, 0, 53, 0
2, 47015, Note_on_c, 0, 60, 0
2, 47015, Note_on_c, 0, 64, 0
2, 47040, Note_on_c, 0, 53, 80
2, 47040, Note_on_c, 0, 60, 80
2, 47040, Note_on_c, 0, 64, 80
2, 47495, Note_on_c, 0, 53, 0
2, 47495, Note_on_c, 0, 60, 0
2, 47495, Note_on_c, 0, 64, 0
2, 47520, Note_on_c, 0, 53, 80
2, 47520, Note_on_c, 0, 60, 80
2, 47520, Note_on_c, 0, 64, 80
2, 47975, Note_on_c, 0, 53, 0
2, 47975, Note_on_c, 0, 60, 0
2, 47975, Note_on_c, 0, 64, 0
2, 48000, Note_on_c, 0, 52, 80
2, 48000, Note_on_c, 0, 59, 80
2, 48000, Note_on_c, 0, 62, 80
2, 48455, Note_on_c, 0, 52, 0
2, 48455, Note_on_c, 0, 59, 0
2, 48455, Note_on_c, 0, 62, 0
2, 48480, Note_on_c, 0, 52, 80
2, 48480, Note_on_c, 0, 59, 80
2, 48480, Note_on_c, 0, 62, 80
2, 48935, Note_on_c, 0, 52, 0
2, 48935, Note_on_c, 0, 59, 0
2, 48935, Note_on_c, 0, 62, 0
2, 48960, Note_on_c, 0, 52, 80
2, 48960, Note_on_c, 0, 59, 80
2, 48960, Note_on_c, 0, 62, 80
2, 49415, Note_on_c, 0, 52, 0
2, 49415, Note_on_c, 0, 59, 0
2, 49415, Note_on_c, 0, 62, 0
2, 49440, Note_on_c, 0, 52, 80
2, 49440, Note_on_c, 0, 59, 80
2, 49440, Note_on_c, 0, 62, 80
2, 49895, Note_on_c, 0, 52, 0
2, 49895, Note_on_c, 0, 59, 0
2, 49895, Note_on_c, 0, 62, 0
2, 49920, Note_on_c, 0, 57, 80
2, 49920, Note_on_c, 0, 60, 80
2, 49920, Note_on_c, 0, 64, 80
2, 50375, Note_on_c, 0, 57, 0
2, 50375, Note_on_c, 0, 60, 0
2, 50375, Note_on_c, 0, 64, 0
2, 50400, Note_on_c, 0, 57, 80
2, 50400, Note_on_c, 0, 60, 80
2, 50400, Note_on_c, 0, 64, 80
2, 50855, Note_on_c, 0, 57, 0
2, 50855, Note_on_c, 0, 60, 0
2, 50855, Note_on_c, 0, 64, 0
2, 50880, Note_on_c, 0, 57, 80
2, 50880, Note_on_c, 0, 60, 80
2, 50880, Note_on_c, 0, 64, 80
2, 51335, Note_on_c, 0, 57, 0
2, 51335, Note_on_c, 0, 60, 0
2, 51335, Note_on_c, 0, 64, 0
2, 51360, Note_on_c, 0, 57, 80
2, 51360, Note_on_c, 0, 60, 80
2, 51360, Note_on_c, 0, 64, 80
2, 51815, Note_on_c, 0, 57, 0
2, 51815, Note_on_c, 0, 60, 0
2, 51815, Note_on_c, 0, 64, 0
2, 51840, Note_on_c, 0, 57, 80
2, 51840, Note_on_c, 0, 60, 80
2, 51840, Note_on_c, 0, 62, 80
2, 52295, Note_on_c, 0, 57, 0
2, 52295, Note_on_c, 0, 60, 0
2, 52295, Note_on_c, 0, 62, 0
2, 52320, Note_on_c, 0, 57, 80
2, 52320, Note_on_c, 0, 60, 80
2, 52320, Note_on_c, 0, 62, 80
2, 52775, Note_on_c, 0, 57, 0
2, 52775, Note_on_c, 0, 60, 0
2, 52775, Note_on_c, 0, 62, 0
2, 52800, Note_on_c, 0, 57, 80
2, 52800, Note_on_c, 0, 60, 80
2, 52800, Note_on_c, 0, 62, 80
2, 53255, Note_on_c, 0, 57, 0
2, 53255, Note_on_c, 0, 60, 0
2, 53255, Note_on_c, 0, 62, 0
2, 53280, Note_on_c, 0, 57, 80
2, 53280, Note_on_c, 0, 60, 80
2, 53280, Note_on_c, 0, 62, 80
2, 53735, Note_on_c, 0, 57, 0
2, 53735, Note_on_c, 0, 60, 0
2, 53735, Note_on_c, 0, 62, 0
2, 53760, Note_on_c, 0, 55, 80
2, 53760, Note_on_c, 0, 57, 80
2, 53760, Note_on_c, 0, 60, 80
2, 53760, Note_on_c, 0, 65, 80
2, 54215, Note_on_c, 0, 55, 0
2, 54215, Note_on_c, 0, 57, 0
2, 54215, Note_on_c, 0, 60, 0
2, 54215, Note_on_c, 0, 65, 0
2, 54240, Note_on_c, 0, 55, 80
2, 54240, Note_on_c, 0, 57, 80
2, 54240, Note_on_c, 0, 60, 80
2, 54240, Note_on_c, 0, 65, 80
2, 54695, Note_on_c, 0, 55, 0
2, 54695, Note_on_c, 0, 57, 0
2, 54695, Note_on_c, 0, 60, 0
2, 54695, Note_on_c, 0, 65, 0
2, 54720, Note_on_c, 0, 55, 80
2, 54720, Note_on_c, 0, 57, 80
2, 54720, Note_on_c, 0, 60, 80
2, 54720, Note_on_c, 0, 65, 80
2, 55175, Note_on_c, 0, 55, 0
2, 55175, Note_on_c, 0, 57, 0
2, 55175, Note_on_c, 0, 60, 0
2, 55175, Note_on_c, 0, 65, 0
2, 55200, Note_on_c, 0, 55, 80
2, 55200, Note_on_c, 0, 57, 80
2, 55200, Note_on_c, 0, 60, 80
2, 55200, Note_on_c, 0, 65, 80
2, 55655, Note_on_c, 0, 55, 0
2, 55655, Note_on_c, 0, 57, 0
2, 55655, Note_on_c, 0, 60, 0
2, 55655, Note_on_c, 0, 65, 0
2, 55680, Note_on_c, 0, 55, 80
2, 55680, Note_on_c, 0, 57, 80
2, 55680, Note_on_c, 0, 60, 80
2, 55680, Note_on_c, 0, 65, 80
2, 56135, Note_on_c, 0, 55, 0
2, 56135, Note_on_c, 0, 57, 0
2, 56135, Note_on_c, 0, 60, 0
2, 56135, Note_on_c, 0, 65, 0
2, 56160, Note_on_c, 0, 55, 80
2, 56160, Note_on_c, 0, 57, 80
2, 56160, Note_on_c, 0, 60, 80
2, 56160, Note_on_c, 0, 65, 80
2, 56615, Note_on_c, 0, 55, 0
2, 56615, Note_on_c, 0, 57, 0
2, 56615, Note_on_c, 0, 60, 0
2, 56615, Note_on_c, 0, 65, 0
2, 56640, Note_on_c, 0, 55, 80
2, 56640, Note_on_c, 0, 57, 80
2, 56640, Note_on_c, 0, 60, 80
2, 56640, Note_on_c, 0, 65, 80
2, 57095, Note_on_c, 0, 55, 0
2, 57095, Note_on_c, 0, 57, 0
2, 57095, Note_on_c, 0, 60, 0
2, 57095, Note_on_c, 0, 65, 0
2, 57120, Note_on_c, 0, 55, 80
2, 57120, Note_on_c, 0, 57, 80
2, 57120, Note_on_c, 0, 60, 80
2, 57120, Note_on_c, 0, 65, 80
2, 57575, Note_on_c, 0, 55, 0
2, 57575, Note_on_c, 0, 57, 0
2, 57575, Note_on_c, 0, 60, 0
2, 57575, Note_on_c, 0, 65, 0
2, 57600, Note_on_c, 0, 55, 80
2, 57600, Note_on_c, 0, 60, 80
2, 57600, Note_on_c, 0, 64, 80
2, 57839, Note_on_c, 0, 55, 0
2, 57839, Note_on_c, 0, 60, 0
2, 57839, Note_on_c, 0, 64, 0
2, 60000, Note_on_c, 0, 60, 80
2, 60000, Note_on_c, 0, 64, 80
2, 60455, Note_on_c, 0, 60, 0
2, 60455, Note_on_c, 0, 64, 0
2, 61280, Note_on_c, 0, 60, 80
2, 61280, Note_on_c, 0, 67, 80
2, 61431, Note_on_c, 0, 60, 0
2, 61440, Note_on_c, 0, 55, 80
2, 61440, Note_on_c, 0, 60, 80
2, 61440, Note_on_c, 0, 64, 80
2, 61895, Note_on_c, 0, 55, 0
2, 61895, Note_on_c, 0, 60, 0
2, 61895, Note_on_c, 0, 64, 0
2, 61920, Note_on_c, 0, 55, 80
2, 61920, Note_on_c, 0, 60, 80
2, 61920, Note_on_c, 0, 64, 80
2, 62343, Note_on_c, 0, 67, 0
2, 62375, Note_on_c, 0, 55, 0
2, 62375, Note_on_c, 0, 60, 0
2, 62375, Note_on_c, 0, 64, 0
2, 62400, Note_on_c, 0, 55, 80
2, 62400, Note_on_c, 0, 60, 80
2, 62400, Note_on_c, 0, 64, 80
2, 62855, Note_on_c, 0, 55, 0
2, 62855, Note_on_c, 0, 60, 0
2, 62855, Note_on_c, 0, 64, 0
2, 62880, Note_on_c, 0, 55, 80
2, 62880, Note_on_c, 0, 60, 80
2, 62880, Note_on_c, 0, 64, 80
2, 63335, Note_on_c, 0, 55, 0
2, 63335, Note_on_c, 0, 60, 0
2, 63335, Note_on_c, 0, 64, 0
2, 63360, Note_on_c, 0, 57, 80
2, 63360, Note_on_c, 0, 60, 80
2, 63360, Note_on_c, 0, 62, 80
2, 63815, Note_on_c, 0, 57, 0
2, 63815, Note_on_c, 0, 60, 0
2, 63815, Note_on_c, 0, 62, 0
2, 63840, Note_on_c, 0, 57, 80
2, 63840, Note_on_c, 0, 60, 80
2, 63840, Note_on_c, 0, 62, 80
2, 64295, Note_on_c, 0, 57, 0
2, 64295, Note_on_c, 0, 60, 0
2, 64295, Note_on_c, 0, 62, 0
2, 64320, Note_on_c, 0, 57, 80
2, 64320, Note_on_c, 0, 60, 80
2, 64320, Note_on_c, 0, 62, 80
2, 64775, Note_on_c, 0, 57, 0
2, 64775, Note_on_c, 0, 60, 0
2, 64775, Note_on_c, 0, 62, 0
2, 64800, Note_on_c, 0, 57, 80
2, 64800, Note_on_c, 0, 60, 80
2, 64800, Note_on_c, 0, 62, 80
2, 65255, Note_on_c, 0, 57, 0
2, 65255, Note_on_c, 0, 60, 0
2, 65255, Note_on_c, 0, 62, 0
2, 65280, Note_on_c, 0, 59, 80
2, 65280, Note_on_c, 0, 62, 80
2, 65280, Note_on_c, 0, 65, 80
2, 65735, Note_on_c, 0, 59, 0
2, 65735, Note_on_c, 0, 62, 0
2, 65735, Note_on_c, 0, 65, 0
2, 65760, Note_on_c, 0, 59, 80
2, 65760, Note_on_c, 0, 62, 80
2, 65760, Note_on_c, 0, 65, 80
2, 66215, Note_on_c, 0, 59, 0
2, 66215, Note_on_c, 0, 62, 0
2, 66215, Note_on_c, 0, 65, 0
2, 66240, Note_on_c, 0, 59, 80
2, 66240, Note_on_c, 0, 62, 80
2, 66240, Note_on_c, 0, 65, 80
2, 66695, Note_on_c, 0, 59, 0
2, 66695, Note_on_c, 0, 62, 0
2, 66695, Note_on_c, 0, 65, 0
2, 66720, Note_on_c, 0, 59, 80
2, 66720, Note_on_c, 0, 62, 80
2, 66720, Note_on_c, 0, 65, 80
2, 67175, Note_on_c, 0, 59, 0
2, 67175, Note_on_c, 0, 62, 0
2, 67175, Note_on_c, 0, 65, 0
2, 67200, Note_on_c, 0, 55, 80
2, 67200, Note_on_c, 0, 60, 80
2, 67200, Note_on_c, 0, 64, 80
2, 67655, Note_on_c, 0, 55, 0
2, 67655, Note_on_c, 0, 60, 0
2, 67655, Note_on_c, 0, 64, 0
2, 67680, Note_on_c, 0, 55, 80
2, 67680, Note_on_c, 0, 60, 80
2, 67680, Note_on_c, 0, 64, 80
2, 68135, Note_on_c, 0, 55, 0
2, 68135, Note_on_c, 0, 60, 0
2, 68135, Note_on_c, 0, 64, 0
2, 68160, Note_on_c, 0, 55, 80
2, 68160, Note_on_c, 0, 60, 80
2, 68160, Note_on_c, 0, 64, 80
2, 68615, Note_on_c, 0, 55, 0
2, 68615, Note_on_c, 0, 60, 0
2, 68615, Note_on_c, 0, 64, 0
2, 68640, Note_on_c, 0, 55, 80
2, 68640, Note_on_c, 0, 60, 80
2, 68640, Note_on_c, 0, 64, 80
2, 69095, Note_on_c, 0, 55, 0
2, 69095, Note_on_c, 0, 60, 0
2, 69095, Note_on_c, 0, 64, 0
2, 69120, Note_on_c, 0, 55, 80
2, 69120, Note_on_c, 0, 60, 80
2, 69120, Note_on_c, 0, 64, 80
2, 69575, Note_on_c, 0, 55, 0
2, 69575, Note_on_c, 0, 60, 0
2, 69575, Note_on_c, 0, 64, 0
2, 69600, Note_on_c, 0, 55, 80
2, 69600, Note_on_c, 0, 60, 80
2, 69600, Note_on_c, 0, 64, 80
2, 70055, Note_on_c, 0, 55, 0
2, 70055, Note_on_c, 0, 60, 0
2, 70055, Note_on_c, 0, 64, 0
2, 70080, Note_on_c, 0, 55, 80
2, 70080, Note_on_c, 0, 60, 80
2, 70080, Note_on_c, 0, 64, 80
2, 70535, Note_on_c, 0, 55, 0
2, 70535, Note_on_c, 0, 60, 0
2, 70535, Note_on_c, 0, 64, 0
2, 70560, Note_on_c, 0, 55, 80
2, 70560, Note_on_c, 0, 60, 80
2, 70560, Note_on_c, 0, 64, 80
2, 71015, Note_on_c, 0, 55, 0
2, 71015, Note_on_c, 0, 60, 0
2, 71015, Note_on_c, 0, 64, 0
2, 71040, Note_on_c, 0, 57, 80
2, 71040, Note_on_c, 0, 60, 80
2, 71040, Note_on_c, 0, 62, 80
2, 71495, Note_on_c, 0, 57, 0
2, 71495, Note_on_c, 0, 60, 0
2, 71495, Note_on_c, 0, 62, 0
2, 71520, Note_on_c, 0, 57, 80
2, 71520, Note_on_c, 0, 60, 80
2, 71520, Note_on_c, 0, 62, 80
2, 71975, Note_on_c, 0, 57, 0
2, 71975, Note_on_c, 0, 60, 0
2, 71975, Note_on_c, 0, 62, 0
2, 72000, Note_on_c, 0, 57, 80
2, 72000, Note_on_c, 0, 60, 80
2, 72000, Note_on_c, 0, 62, 80
2, 72455, Note_on_c, 0, 57, 0
2, 72455, Note_on_c, 0, 60, 0
2, 72455, Note_on_c, 0, 62, 0
2, 72480, Note_on_c, 0, 57, 80
2, 72480, Note_on_c, 0, 60, 80
2, 72480, Note_on_c, 0, 62, 80
2, 72935, Note_on_c, 0, 57, 0
2, 72935, Note_on_c, 0, 60, 0
2, 72935, Note_on_c, 0, 62, 0
2, 72960, Note_on_c, 0, 59, 80
2, 72960, Note_on_c, 0, 62, 80
2, 72960, Note_on_c, 0, 65, 80
2, 73415, Note_on_c, 0, 59, 0
2, 73415, Note_on_c, 0, 62, 0
2, 73415, Note_on_c, 0, 65, 0
2, 73440, Note_on_c, 0, 59, 80
2, 73440, Note_on_c, 0, 62, 80
2, 73440, Note_on_c, 0, 65, 80
2, 73895, Note_on_c, 0, 59, 0
2, 73895, Note_on_c, 0, 62, 0
2, 73895, Note_on_c, 0, 65, 0
2, 73920, Note_on_c, 0, 59, 80
2, 73920, Note_on_c, 0, 62, 80
2, 73920, Note_on_c, 0, 65, 80
2, 74375, Note_on_c, 0, 59, 0
2, 74375, Note_on_c, 0, 62, 0
2, 74375, Note_on_c, 0, 65, 0
2, 74400, Note_on_c, 0, 59, 80
2, 74400, Note_on_c, 0, 62, 80
2, 74400, Note_on_c, 0, 65, 80
2, 74855, Note_on_c, 0, 59, 0
2, 74855, Note_on_c, 0, 62, 0
2, 74855, Note_on_c, 0, 65, 0
2, 74880, Note_on_c, 0, 55, 80
2, 74880, Note_on_c, 0, 60, 80
2, 74880, Note_on_c, 0, 64, 80
2, 75335, Note_on_c, 0, 55, 0
2, 75335, Note_on_c, 0, 60, 0
2, 75335, Note_on_c, 0, 64, 0
2, 75360, Note_on_c, 0, 55, 80
2, 75360, Note_on_c, 0, 60, 80
2, 75360, Note_on_c, 0, 64, 80
2, 75815, Note_on_c, 0, 55, 0
2, 75815, Note_on_c, 0, 60, 0
2, 75815, Note_on_c, 0, 64, 0
2, 75840, Note_on_c, 0, 55, 80
2, 75840, Note_on_c, 0, 60, 80
2, 75840, Note_on_c, 0, 64, 80
2, 76295, Note_on_c, 0, 55, 0
2, 76295, Note_on_c, 0, 60, 0
2, 76295, Note_on_c, 0, 64, 0
2, 76320, Note_on_c, 0, 55, 80
2, 76320, Note_on_c, 0, 60, 80
2, 76320, Note_on_c, 0, 64, 80
2, 76775, Note_on_c, 0, 55, 0
2, 76775, Note_on_c, 0, 60, 0
2, 76775, Note_on_c, 0, 64, 0
2, 76800, Note_on_c, 0, 57, 80
2, 76800, Note_on_c, 0, 60, 80
2, 76800, Note_on_c, 0, 64, 80
2, 77255, Note_on_c, 0, 57, 0
2, 77255, Note_on_c, 0, 60, 0
2, 77255, Note_on_c, 0, 64, 0
2, 77280, Note_on_c, 0, 57, 80
2, 77280, Note_on_c, 0, 60, 80
2, 77280, Note_on_c, 0, 64, 80
2, 77735, Note_on_c, 0, 57, 0
2, 77735, Note_on_c, 0, 60, 0
2, 77735, Note_on_c, 0, 64, 0
2, 77760, Note_on_c, 0, 57, 80
2, 77760, Note_on_c, 0, 60, 80
2, 77760, Note_on_c, 0, 64, 80
2, 78215, Note_on_c, 0, 57, 0
2, 78215, Note_on_c, 0, 60, 0
2, 78215, Note_on_c, 0, 64, 0
2, 78240, Note_on_c, 0, 57, 80
2, 78240, Note_on_c, 0, 60, 80
2, 78240, Note_on_c, 0, 64, 80
2, 78695, Note_on_c, 0, 57, 0
2, 78695, Note_on_c, 0, 60, 0
2, 78695, Note_on_c, 0, 64, 0
2, 78720, Note_on_c, 0, 60, 80
2, 78720, Note_on_c, 0, 62, 80
2, 78720, Note_on_c, 0, 65, 80
2, 79175, Note_on_c, 0, 60, 0
2, 79175, Note_on_c, 0, 62, 0
2, 79175, Note_on_c, 0, 65, 0
2, 79200, Note_on_c, 0, 60, 80
2, 79200, Note_on_c, 0, 62, 80
2, 79200, Note_on_c, 0, 65, 80
2, 79655, Note_on_c, 0, 60, 0
2, 79655, Note_on_c, 0, 62, 0
2, 79655, Note_on_c, 0, 65, 0
2, 79680, Note_on_c, 0, 60, 80
2, 79680, Note_on_c, 0, 62, 80
2, 79680, Note_on_c, 0, 65, 80
2, 80135, Note_on_c, 0, 60, 0
2, 80135, Note_on_c, 0, 62, 0
2, 80135, Note_on_c, 0, 65, 0
2, 80160, Note_on_c, 0, 60, 80
2, 80160, Note_on_c, 0, 62, 80
2, 80160, Note_on_c, 0, 65, 80
2, 80615, Note_on_c, 0, 60, 0
2, 80615, Note_on_c, 0, 62, 0
2, 80615, Note_on_c, 0, 65, 0
2, 80640, Note_on_c, 0, 57, 80
2, 80640, Note_on_c, 0, 60, 80
2, 80640, Note_on_c, 0, 64, 80
2, 81095, Note_on_c, 0, 57, 0
2, 81095, Note_on_c, 0, 60, 0
2, 81095, Note_on_c, 0, 64, 0
2, 81120, Note_on_c, 0, 57, 80
2, 81120, Note_on_c, 0, 60, 80
2, 81120, Note_on_c, 0, 64, 80
2, 81575, Note_on_c, 0, 57, 0
2, 81575, Note_on_c, 0, 60, 0
2, 81575, Note_on_c, 0, 64, 0
2, 81600, Note_on_c, 0, 57, 80
2, 81600, Note_on_c, 0, 60, 80
2, 81600, Note_on_c, 0, 64, 80
2, 82055, Note_on_c, 0, 57, 0
2, 82055, Note_on_c, 0, 60, 0
2, 82055, Note_on_c, 0, 64, 0
2, 82080, Note_on_c, 0, 57, 80
2, 82080, Note_on_c, 0, 60, 80
2, 82080, Note_on_c, 0, 64, 80
2, 82535, Note_on_c, 0, 57, 0
2, 82535, Note_on_c, 0, 60, 0
2, 82535, Note_on_c, 0, 64, 0
2, 82560, Note_on_c, 0, 57, 80
2, 82560, Note_on_c, 0, 60, 80
2, 82560, Note_on_c, 0, 62, 80
2, 83015, Note_on_c, 0, 57, 0
2, 83015, Note_on_c, 0, 60, 0
2, 83015, Note_on_c, 0, 62, 0
2, 83040, Note_on_c, 0, 57, 80
2, 83040, Note_on_c, 0, 60, 80
2, 83040, Note_on_c, 0, 62, 80
2, 83495, Note_on_c, 0, 57, 0
2, 83495, Note_on_c, 0, 60, 0
2, 83495, Note_on_c, 0, 62, 0
2, 83520, Note_on_c, 0, 57, 80
2, 83520, Note_on_c, 0, 60, 80
2, 83520, Note_on_c, 0, 62, 80
2, 83975, Note_on_c, 0, 57, 0
2, 83975, Note_on_c, 0, 60, 0
2, 83975, Note_on_c, 0, 62, 0
2, 84000, Note_on_c, 0, 57, 80
2, 84000, Note_on_c, 0, 60, 80
2, 84000, Note_on_c, 0, 62, 80
2, 84455, Note_on_c, 0, 57, 0
2, 84455, Note_on_c, 0, 60, 0
2, 84455, Note_on_c, 0, 62, 0
2, 84480, Note_on_c, 0, 59, 80
2, 84480, Note_on_c, 0, 62, 80
2, 84480, Note_on_c, 0, 65, 80
2, 84935, Note_on_c, 0, 59, 0
2, 84935, Note_on_c, 0, 62, 0
2, 84935, Note_on_c, 0, 65, 0
2, 84960, Note_on_c, 0, 59, 80
2, 84960, Note_on_c, 0, 62, 80
2, 84960, Note_on_c, 0, 65, 80
2, 85415, Note_on_c, 0, 59, 0
2, 85415, Note_on_c, 0, 62, 0
2, 85415, Note_on_c, 0, 65, 0
2, 85440, Note_on_c, 0, 59, 80
2, 85440, Note_on_c, 0, 62, 80
2, 85440, Note_on_c, 0, 65, 80
2, 85895, Note_on_c, 0, 59, 0
2, 85895, Note_on_c, 0, 62, 0
2, 85895, Note_on_c, 0, 65, 0
2, 85920, Note_on_c, 0, 59, 80
2, 85920, Note_on_c, 0, 62, 80
2, 85920, Note_on_c, 0, 65, 80
2, 86375, Note_on_c, 0, 59, 0
2, 86375, Note_on_c, 0, 62, 0
2, 86375, Note_on_c, 0, 65, 0
2, 86400, Note_on_c, 0, 59, 80
2, 86400, Note_on_c, 0, 62, 80
2, 86400, Note_on_c, 0, 67, 80
2, 86855, Note_on_c, 0, 59, 0
2, 86855, Note_on_c, 0, 62, 0
2, 86855, Note_on_c, 0, 67, 0
2, 86880, Note_on_c, 0, 59, 80
2, 86880, Note_on_c, 0, 62, 80
2, 86880, Note_on_c, 0, 67, 80
2, 87335, Note_on_c, 0, 59, 0
2, 87335, Note_on_c, 0, 62, 0
2, 87335, Note_on_c, 0, 67, 0
2, 87360, Note_on_c, 0, 59, 80
2, 87360, Note_on_c, 0, 62, 80
2, 87360, Note_on_c, 0, 67, 80
2, 87680, Note_on_c, 0, 67, 0
2, 87815, Note_on_c, 0, 59, 0
2, 87815, Note_on_c, 0, 62, 0
2, 88160, Note_on_c, 0, 60, 80
2, 88160, Note_on_c, 0, 64, 80
2, 88160, Note_on_c, 0, 67, 80
2, 88311, Note_on_c, 0, 60, 0
2, 88311, Note_on_c, 0, 64, 0
2, 88311, Note_on_c, 0, 67, 0
2, 90240, Note_on_c, 0, 60, 80
2, 90240, Note_on_c, 0, 64, 80
2, 90695, Note_on_c, 0, 60, 0
2, 90695, Note_on_c, 0, 64, 0
2, 90720, Note_on_c, 0, 60, 80
2, 90720, Note_on_c, 0, 64, 80
2, 91175, Note_on_c, 0, 60, 0
2, 91175, Note_on_c, 0, 64, 0
2, 91520, Note_on_c, 0, 60, 80
2, 91520, Note_on_c, 0, 67, 80
2, 91671, Note_on_c, 0, 60, 0
2, 91671, Note_on_c, 0, 67, 0
2, 92160, Note_on_c, 0, 57, 80
2, 92160, Note_on_c, 0, 60, 80
2, 92160, Note_on_c, 0, 64, 80
2, 92615, Note_on_c, 0, 57, 0
2, 92615, Note_on_c, 0, 60, 0
2, 92615, Note_on_c, 0, 64, 0
2, 92640, Note_on_c, 0, 57, 80
2, 92640, Note_on_c, 0, 60, 80
2, 92640, Note_on_c, 0, 64, 80
2, 93095, Note_on_c, 0, 57, 0
2, 93095, Note_on_c, 0, 60, 0
2, 93095, Note_on_c, 0, 64, 0
2, 93120, Note_on_c, 0, 57, 80
2, 93120, Note_on_c, 0, 60, 80
2, 93120, Note_on_c, 0, 64, 80
2, 93575, Note_on_c, 0, 57, 0
2, 93575, Note_on_c, 0, 60, 0
2, 93575, Note_on_c, 0, 64, 0
2, 93600, Note_on_c, 0, 57, 80
2, 93600, Note_on_c, 0, 60, 80
2, 93600, Note_on_c, 0, 64, 80
2, 94055, Note_on_c, 0, 57, 0
2, 94055, Note_on_c, 0, 60, 0
2, 94055, Note_on_c, 0, 64, 0
2, 94080, Note_on_c, 0, 57, 80
2, 94080, Note_on_c, 0, 60, 80
2, 94080, Note_on_c, 0, 62, 80
2, 94535, Note_on_c, 0, 57, 0
2, 94535, Note_on_c, 0, 60, 0
2, 94535, Note_on_c, 0, 62, 0
2, 94560, Note_on_c, 0, 57, 80
2, 94560, Note_on_c, 0, 60, 80
2, 94560, Note_on_c, 0, 62, 80
2, 95015, Note_on_c, 0, 57, 0
2, 95015, Note_on_c, 0, 60, 0
2, 95015, Note_on_c, 0, 62, 0
2, 95040, Note_on_c, 0, 57, 80
2, 95040, Note_on_c, 0, 60, 80
2, 95040, Note_on_c, 0, 62, 80
2, 95495, Note_on_c, 0, 57, 0
2, 95495, Note_on_c, 0, 60, 0
2, 95495, Note_on_c, 0, 62, 0
2, 95520, Note_on_c, 0, 57, 80
2, 95520, Note_on_c, 0, 60, 80
2, 95520, Note_on_c, 0, 62, 80
2, 95975, Note_on_c, 0, 57, 0
2, 95975, Note_on_c, 0, 60, 0
2, 95975, Note_on_c, 0, 62, 0
2, 96000, Note_on_c, 0, 57, 80
2, 96000, Note_on_c, 0, 60, 80
2, 96000, Note_on_c, 0, 65, 80
2, 96455, Note_on_c, 0, 57, 0
2, 96455, Note_on_c, 0, 60, 0
2, 96455, Note_on_c, 0, 65, 0
2, 96480, Note_on_c, 0, 57, 80
2, 96480, Note_on_c, 0, 60, 80
2, 96480, Note_on_c, 0, 65, 80
2, 96935, Note_on_c, 0, 57, 0
2, 96935, Note_on_c, 0, 60, 0
2, 96935, Note_on_c, 0, 65, 0
2, 96960, Note_on_c, 0, 57, 80
2, 96960, Note_on_c, 0, 60, 80
2, 96960, Note_on_c, 0, 65, 80
2, 97415, Note_on_c, 0, 57, 0
2, 97415, Note_on_c, 0, 60, 0
2, 97415, Note_on_c, 0, 65, 0
2, 97440, Note_on_c, 0, 57, 80
2, 97440, Note_on_c, 0, 60, 80
2, 97440, Note_on_c, 0, 65, 80
2, 97895, Note_on_c, 0, 57, 0
2, 97895, Note_on_c, 0, 60, 0
2, 97895, Note_on_c, 0, 65, 0
2, 97920, Note_on_c, 0, 55, 80
2, 97920, Note_on_c, 0, 60, 80
2, 97920, Note_on_c, 0, 64, 80
2, 98375, Note_on_c, 0, 55, 0
2, 98375, Note_on_c, 0, 60, 0
2, 98375, Note_on_c, 0, 64, 0
2, 98400, Note_on_c, 0, 55, 80
2, 98400, Note_on_c, 0, 60, 80
2, 98400, Note_on_c, 0, 64, 80
2, 98855, Note_on_c, 0, 55, 0
2, 98855, Note_on_c, 0, 60, 0
2, 98855, Note_on_c, 0, 64, 0
2, 98880, Note_on_c, 0, 55, 80
2, 98880, Note_on_c, 0, 60, 80
2, 98880, Note_on_c, 0, 64, 80
2, 99335, Note_on_c, 0, 55, 0
2, 99335, Note_on_c, 0, 60, 0
2, 99335, Note_on_c, 0, 64, 0
2, 99360, Note_on_c, 0, 55, 80
2, 99360, Note_on_c, 0, 60, 80
2, 99360, Note_on_c, 0, 64, 80
2, 99815, Note_on_c, 0, 55, 0
2, 99815, Note_on_c, 0, 60, 0
2, 99815, Note_on_c, 0, 64, 0
2, 99840, Note_on_c, 0, 57, 80
2, 99840, Note_on_c, 0, 60, 80
2, 99840, Note_on_c, 0, 64, 80
2, 100295, Note_on_c, 0, 57, 0
2, 100295, Note_on_c, 0, 60, 0
2, 100295, Note_on_c, 0, 64, 0
2, 100320, Note_on_c, 0, 57, 80
2, 100320, Note_on_c, 0, 60, 80
2, 100320, Note_on_c, 0, 64, 80
2, 100775, Note_on_c, 0, 57, 0
2, 100775, Note_on_c, 0, 60, 0
2, 100775, Note_on_c, 0, 64, 0
2, 100800, Note_on_c, 0, 57, 80
2, 100800, Note_on_c, 0, 60, 80
2, 100800, Note_on_c, 0, 64, 80
2, 101255, Note_on_c, 0, 57, 0
2, 101255, Note_on_c, 0, 60, 0
2, 101255, Note_on_c, 0, 64, 0
2, 101280, Note_on_c, 0, 57, 80
2, 101280, Note_on_c, 0, 60, 80
2, 101280, Note_on_c, 0, 64, 80
2, 101735, Note_on_c, 0, 57, 0
2, 101735, Note_on_c, 0, 60, 0
2, 101735, Note_on_c, 0, 64, 0
2, 101760, Note_on_c, 0, 57, 80
2, 101760, Note_on_c, 0, 60, 80
2, 101760, Note_on_c, 0, 62, 80
2, 102215, Note_on_c, 0, 57, 0
2, 102215, Note_on_c, 0, 60, 0
2, 102215, Note_on_c, 0, 62, 0
2, 102240, Note_on_c, 0, 57, 80
2, 102240, Note_on_c, 0, 60, 80
2, 102240, Note_on_c, 0, 62, 80
2, 102695, Note_on_c, 0, 57, 0
2, 102695, Note_on_c, 0, 60, 0
2, 102695, Note_on_c, 0, 62, 0
2, 102720, Note_on_c, 0, 57, 80
2, 102720, Note_on_c, 0, 60, 80
2, 102720, Note_on_c, 0, 62, 80
2, 103175, Note_on_c, 0, 57, 0
2, 103175, Note_on_c, 0, 60, 0
2, 103175, Note_on_c, 0, 62, 0
2, 103200, Note_on_c, 0, 57, 80
2, 103200, Note_on_c, 0, 60, 80
2, 103200, Note_on_c, 0, 62, 80
2, 103655, Note_on_c, 0, 57, 0
2, 103655, Note_on_c, 0, 60, 0
2, 103655, Note_on_c, 0, 62, 0
2, 103680, Note_on_c, 0, 57, 80
2, 103680, Note_on_c, 0, 60, 80
2, 103680, Note_on_c, 0, 65, 80
2, 104135, Note_on_c, 0, 57, 0
2, 104135, Note_on_c, 0, 60, 0
2, 104135, Note_on_c, 0, 65, 0
2, 104160, Note_on_c, 0, 57, 80
2, 104160, Note_on_c, 0, 60, 80
2, 104160, Note_on_c, 0, 65, 80
2, 104615, Note_on_c, 0, 57, 0
2, 104615, Note_on_c, 0, 60, 0
2, 104615, Note_on_c, 0, 65, 0
2, 104640, Note_on_c, 0, 57, 80
2, 104640, Note_on_c, 0, 60, 80
2, 104640, Note_on_c, 0, 65, 80
2, 105095, Note_on_c, 0, 57, 0
2, 105095, Note_on_c, 0, 60, 0
2, 105095, Note_on_c, 0, 65, 0
2, 105120, Note_on_c, 0, 57, 80
2, 105120, Note_on_c, 0, 60, 80
2, 105120, Note_on_c, 0, 65, 80
2, 105575, Note_on_c, 0, 57, 0
2, 105575, Note_on_c, 0, 60, 0
2, 105575, Note_on_c, 0, 65, 0
2, 105600, Note_on_c, 0, 55, 80
2, 105600, Note_on_c, 0, 60, 80
2, 105600, Note_on_c, 0, 64, 80
2, 106055, Note_on_c, 0, 55, 0
2, 106055, Note_on_c, 0, 60, 0
2, 106055, Note_on_c, 0, 64, 0
2, 106080, Note_on_c, 0, 55, 80
2, 106080, Note_on_c, 0, 60, 80
2, 106080, Note_on_c, 0, 64, 80
2, 106535, Note_on_c, 0, 55, 0
2, 106535, Note_on_c, 0, 60, 0
2, 106535, Note_on_c, 0, 64, 0
2, 106560, Note_on_c, 0, 55, 80
2, 106560, Note_on_c, 0, 60, 80
2, 106560, Note_on_c, 0, 64, 80
2, 107015, Note_on_c, 0, 55, 0
2, 107015, Note_on_c, 0, 60, 0
2, 107015, Note_on_c, 0, 64, 0
2, 107040, Note_on_c, 0, 55, 80
2, 107040, Note_on_c, 0, 60, 80
2, 107040, Note_on_c, 0, 64, 80
2, 107495, Note_on_c, 0, 55, 0
2, 107495, Note_on_c, 0, 60, 0
2, 107495, Note_on_c, 0, 64, 0
2, 107520, Note_on_c, 0, 57, 80
2, 107520, Note_on_c, 0, 60, 80
2, 107520, Note_on_c, 0, 64, 80
2, 107975, Note_on_c, 0, 57, 0
2, 107975, Note_on_c, 0, 60, 0
2, 107975, Note_on_c, 0, 64, 0
2, 108000, Note_on_c, 0, 57, 80
2, 108000, Note_on_c, 0, 60, 80
2, 108000, Note_on_c, 0, 64, 80
2, 108455, Note_on_c, 0, 57, 0
2, 108455, Note_on_c, 0, 60, 0
2, 108455, Note_on_c, 0, 64, 0
2, 108480, Note_on_c, 0, 57, 80
2, 108480, Note_on_c, 0, 60, 80
2, 108480, Note_on_c, 0, 64, 80
2, 108935, Note_on_c, 0, 57, 0
2, 108935, Note_on_c, 0, 60, 0
2, 108935, Note_on_c, 0, 64, 0
2, 108960, Note_on_c, 0, 57, 80
2, 108960, Note_on_c, 0, 60, 80
2, 108960, Note_on_c, 0, 64, 80
2, 109415, Note_on_c, 0, 57, 0
2, 109415, Note_on_c, 0, 60, 0
2, 109415, Note_on_c, 0, 64, 0
2, 109440, Note_on_c, 0, 59, 80
2, 109440, Note_on_c, 0, 62, 80
2, 109440, Note_on_c, 0, 64, 80
2, 109895, Note_on_c, 0, 59, 0
2, 109895, Note_on_c, 0, 62, 0
2, 109895, Note_on_c, 0, 64, 0
2, 109920, Note_on_c, 0, 59, 80
2, 109920, Note_on_c, 0, 62, 80
2, 109920, Note_on_c, 0, 64, 80
2, 110375, Note_on_c, 0, 59, 0
2, 110375, Note_on_c, 0, 62, 0
2, 110375, Note_on_c, 0, 64, 0
2, 110400, Note_on_c, 0, 59, 80
2, 110400, Note_on_c, 0, 62, 80
2, 110400, Note_on_c, 0, 64, 80
2, 110855, Note_on_c, 0, 59, 0
2, 110855, Note_on_c, 0, 62, 0
2, 110855, Note_on_c, 0, 64, 0
2, 110880, Note_on_c, 0, 59, 80
2, 110880, Note_on_c, 0, 62, 80
2, 110880, Note_on_c, 0, 64, 80
2, 111335, Note_on_c, 0, 59, 0
2, 111335, Note_on_c, 0, 62, 0
2, 111335, Note_on_c, 0, 64, 0
2, 111360, Note_on_c, 0, 57, 80
2, 111360, Note_on_c, 0, 60, 80
2, 111360, Note_on_c, 0, 64, 80
2, 111815, Note_on_c, 0, 57, 0
2, 111815, Note_on_c, 0, 60, 0
2, 111815, Note_on_c, 0, 64, 0
2, 111840, Note_on_c, 0, 57, 80
2, 111840, Note_on_c, 0, 60, 80
2, 111840, Note_on_c, 0, 64, 80
2, 112295, Note_on_c, 0, 57, 0
2, 112295, Note_on_c, 0, 60, 0
2, 112295, Note_on_c, 0, 64, 0
2, 112320, Note_on_c, 0, 57, 80
2, 112320, Note_on_c, 0, 60, 80
2, 112320, Note_on_c, 0, 64, 80
2, 112623, Note_on_c, 0, 57, 0
2, 112623, Note_on_c, 0, 60, 0
2, 112623, Note_on_c, 0, 64, 0
2, 112640, Note_on_c, 0, 60, 80
2, 112640, Note_on_c, 0, 64, 80
2, 112791, Note_on_c, 0, 60, 0
2, 112791, Note_on_c, 0, 64, 0
2, 112800, Note_on_c, 0, 57, 80
2, 112800, Note_on_c, 0, 60, 80
2, 112800, Note_on_c, 0, 64, 80
2, 113255, Note_on_c, 0, 57, 0
2, 113255, Note_on_c, 0, 60, 0
2, 113255, Note_on_c, 0, 64, 0
2, 113280, Note_on_c, 0, 57, 80
2, 113280, Note_on_c, 0, 60, 80
2, 113280, Note_on_c, 0, 62, 80
2, 113735, Note_on_c, 0, 57, 0
2, 113735, Note_on_c, 0, 60, 0
2, 113735, Note_on_c, 0, 62, 0
2, 113760, Note_on_c, 0, 57, 80
2, 113760, Note_on_c, 0, 60, 80
2, 113760, Note_on_c, 0, 62, 80
2, 114215, Note_on_c, 0, 57, 0
2, 114215, Note_on_c, 0, 60, 0
2, 114215, Note_on_c, 0, 62, 0
2, 114240, Note_on_c, 0, 57, 80
2, 114240, Note_on_c, 0, 60, 80
2, 114240, Note_on_c, 0, 62, 80
2, 114695, Note_on_c, 0, 57, 0
2, 114695, Note_on_c, 0, 60, 0
2, 114695, Note_on_c, 0, 62, 0
2, 114720, Note_on_c, 0, 57, 80
2, 114720, Note_on_c, 0, 60, 80
2, 114720, Note_on_c, 0, 62, 80
2, 115175, Note_on_c, 0, 57, 0
2, 115175, Note_on_c, 0, 60, 0
2, 115175, Note_on_c, 0, 62, 0
2, 115200, Note_on_c, 0, 55, 80
2, 115200, Note_on_c, 0, 57, 80
2, 115200, Note_on_c, 0, 60, 80
2, 115200, Note_on_c, 0, 65, 80
2, 115655, Note_on_c, 0, 55, 0
2, 115655, Note_on_c, 0, 57, 0
2, 115655, Note_on_c, 0, 60, 0
2, 115655, Note_on_c, 0, 65, 0
2, 115680, Note_on_c, 0, 55, 80
2, 115680, Note_on_c, 0, 57, 80
2, 115680, Note_on_c, 0, 60, 80
2, 115680, Note_on_c, 0, 65, 80
2, 116135, Note_on_c, 0, 55, 0
2, 116135, Note_on_c, 0, 57, 0
2, 116135, Note_on_c, 0, 60, 0
2, 116135, Note_on_c, 0, 65, 0
2, 116160, Note_on_c, 0, 55, 80
2, 116160, Note_on_c, 0, 57, 80
2, 116160, Note_on_c, 0, 60, 80
2, 116160, Note_on_c, 0, 65, 80
2, 116615, Note_on_c, 0, 55, 0
2, 116615, Note_on_c, 0, 57, 0
2, 116615, Note_on_c, 0, 60, 0
2, 116615, Note_on_c, 0, 65, 0
2, 116640, Note_on_c, 0, 55, 80
2, 116640, Note_on_c, 0, 57, 80
2, 116640, Note_on_c, 0, 60, 80
2, 116640, Note_on_c, 0, 65, 80
2, 117095, Note_on_c, 0, 55, 0
2, 117095, Note_on_c, 0, 57, 0
2, 117095, Note_on_c, 0, 60, 0
2, 117095, Note_on_c, 0, 65, 0
2, 117120, Note_on_c, 0, 55, 80
2, 117120, Note_on_c, 0, 57, 80
2, 117120, Note_on_c, 0, 60, 80
2, 117120, Note_on_c, 0, 65, 80
2, 117575, Note_on_c, 0, 55, 0
2, 117575, Note_on_c, 0, 57, 0
2, 117575, Note_on_c, 0, 60, 0
2, 117575, Note_on_c, 0, 65, 0
2, 117600, Note_on_c, 0, 55, 80
2, 117600, Note_on_c, 0, 57, 80
2, 117600, Note_on_c, 0, 60, 80
2, 117600, Note_on_c, 0, 65, 80
2, 118055, Note_on_c, 0, 55, 0
2, 118055, Note_on_c, 0, 57, 0
2, 118055, Note_on_c, 0, 60, 0
2, 118055, Note_on_c, 0, 65, 0
2, 118080, Note_on_c, 0, 55, 80
2, 118080, Note_on_c, 0, 57, 80
2, 118080, Note_on_c, 0, 60, 80
2, 118080, Note_on_c, 0, 65, 80
2, 118535, Note_on_c, 0, 55, 0
2, 118535, Note_on_c, 0, 57, 0
2, 118535, Note_on_c, 0, 60, 0
2, 118535, Note_on_c, 0, 65, 0
2, 118560, Note_on_c, 0, 55, 80
2, 118560, Note_on_c, 0, 57, 80
2, 118560, Note_on_c, 0, 60, 80
2, 118560, Note_on_c, 0, 65, 80
2, 119015, Note_on_c, 0, 55, 0
2, 119015, Note_on_c, 0, 57, 0
2, 119015, Note_on_c, 0, 60, 0
2, 119015, Note_on_c, 0, 65, 0
2, 119040, Note_on_c, 0, 55, 80
2, 119040, Note_on_c, 0, 60, 80
2, 119040, Note_on_c, 0, 64, 80
2, 119279, Note_on_c, 0, 55, 0
2, 119279, Note_on_c, 0, 60, 0
2, 119279, Note_on_c, 0, 64, 0
2, 119680, Note_on_c, 0, 55, 80
2, 119831, Note_on_c, 0, 55, 0
2, 119840, Note_on_c, 0, 57, 80
2, 119991, Note_on_c, 0, 57, 0
2, 120000, Note_on_c, 0, 60, 80
2, 120151, Note_on_c, 0, 60, 0
2, 120160, Note_on_c, 0, 62, 80
2, 120311, Note_on_c, 0, 62, 0
2, 120320, Note_on_c, 0, 64, 80
2, 120471, Note_on_c, 0, 64, 0
2, 120480, Note_on_c, 0, 67, 80
2, 120631, Note_on_c, 0, 67, 0
2, 120640, Note_on_c, 0, 69, 80
2, 120791, Note_on_c, 0, 69, 0
2, 120800, Note_on_c, 0, 72, 80
2, 120951, Note_on_c, 0, 72, 0
2, 120960, Note_on_c, 0, 72, 80
2, 121199, Note_on_c, 0, 72, 0
2, 121440, Note_on_c, 0, 48, 80
2, 121440, Note_on_c, 0, 60, 80
2, 121679, Note_on_c, 0, 48, 0
2, 121679, Note_on_c, 0, 60, 0
2, 122880, Note_on_c, 0, 57, 80
2, 122880, Note_on_c, 0, 60, 80
2, 122880, Note_on_c, 0, 64, 80
2, 123335, Note_on_c, 0, 57, 0
2, 123335, Note_on_c, 0, 60, 0
2, 123335, Note_on_c, 0, 64, 0
2, 123360, Note_on_c, 0, 57, 80
2, 123360, Note_on_c, 0, 60, 80
2, 123360, Note_on_c, 0, 64, 80
2, 123815, Note_on_c, 0, 57, 0
2, 123815, Note_on_c, 0, 60, 0
2, 123815, Note_on_c, 0, 64, 0
2, 123840, Note_on_c, 0, 57, 80
2, 123840, Note_on_c, 0, 60, 80
2, 123840, Note_on_c, 0, 64, 80
2, 124295, Note_on_c, 0, 57, 0
2, 124295, Note_on_c, 0, 60, 0
2, 124295, Note_on_c, 0, 64, 0
2, 124320, Note_on_c, 0, 57, 80
2, 124320, Note_on_c, 0, 60, 80
2, 124320, Note_on_c, 0, 64, 80
2, 124775, Note_on_c, 0, 57, 0
2, 124775, Note_on_c, 0, 60, 0
2, 124775, Note_on_c, 0, 64, 0
2, 124800, Note_on_c, 0, 57, 80
2, 124800, Note_on_c, 0, 60, 80
2, 124800, Note_on_c, 0, 62, 80
2, 125255, Note_on_c, 0, 57, 0
2, 125255, Note_on_c, 0, 60, 0
2, 125255, Note_on_c, 0, 62, 0
2, 125280, Note_on_c, 0, 57, 80
2, 125280, Note_on_c, 0, 60, 80
2, 125280, Note_on_c, 0, 62, 80
2, 125735, Note_on_c, 0, 57, 0
2, 125735, Note_on_c, 0, 60, 0
2, 125735, Note_on_c, 0, 62, 0
2, 125760, Note_on_c, 0, 57, 80
2, 125760, Note_on_c, 0, 60, 80
2, 125760, Note_on_c, 0, 62, 80
2, 126215, Note_on_c, 0, 57, 0
2, 126215, Note_on_c, 0, 60, 0
2, 126215, Note_on_c, 0, 62, 0
2, 126240, Note_on_c, 0, 57, 80
2, 126240, Note_on_c, 0, 60, 80
2, 126240, Note_on_c, 0, 62, 80
2, 126695, Note_on_c, 0, 57, 0
2, 126695, Note_on_c, 0, 60, 0
2, 126695, Note_on_c, 0, 62, 0
2, 126720, Note_on_c, 0, 57, 80
2, 126720, Note_on_c, 0, 60, 80
2, 127175, Note_on_c, 0, 57, 0
2, 127175, Note_on_c, 0, 60, 0
2, 127200, Note_on_c, 0, 57, 80
2, 127200, Note_on_c, 0, 60, 80
2, 127200, Note_on_c, 0, 65, 80
2, 127655, Note_on_c, 0, 57, 0
2, 127655, Note_on_c, 0, 60, 0
2, 127655, Note_on_c, 0, 65, 0
2, 127680, Note_on_c, 0, 57, 80
2, 127680, Note_on_c, 0, 60, 80
2, 127680, Note_on_c, 0, 65, 80
2, 128135, Note_on_c, 0, 57, 0
2, 128135, Note_on_c, 0, 60, 0
2, 128135, Note_on_c, 0, 65, 0
2, 128160, Note_on_c, 0, 57, 80
2, 128160, Note_on_c, 0, 60, 80
2, 128160, Note_on_c, 0, 65, 80
2, 128615, Note_on_c, 0, 57, 0
2, 128615, Note_on_c, 0, 60, 0
2, 128615, Note_on_c, 0, 65, 0
2, 128640, Note_on_c, 0, 55, 80
2, 128640, Note_on_c, 0, 60, 80
2, 128640, Note_on_c, 0, 64, 80
2, 129095, Note_on_c, 0, 55, 0
2, 129095, Note_on_c, 0, 60, 0
2, 129095, Note_on_c, 0, 64, 0
2, 129120, Note_on_c, 0, 55, 80
2, 129120, Note_on_c, 0, 60, 80
2, 129120, Note_on_c, 0, 64, 80
2, 129575, Note_on_c, 0, 55, 0
2, 129575, Note_on_c, 0, 60, 0
2, 129575, Note_on_c, 0, 64, 0
2, 129600, Note_on_c, 0, 55, 80
2, 129600, Note_on_c, 0, 60, 80
2, 129600, Note_on_c, 0, 64, 80
2, 130055, Note_on_c, 0, 55, 0
2, 130055, Note_on_c, 0, 60, 0
2, 130055, Note_on_c, 0, 64, 0
2, 130080, Note_on_c, 0, 55, 80
2, 130080, Note_on_c, 0, 60, 80
2, 130080, Note_on_c, 0, 64, 80
2, 130535, Note_on_c, 0, 55, 0
2, 130535, Note_on_c, 0, 60, 0
2, 130535, Note_on_c, 0, 64, 0
2, 130560, Note_on_c, 0, 57, 80
2, 130560, Note_on_c, 0, 60, 80
2, 130560, Note_on_c, 0, 64, 80
2, 131015, Note_on_c, 0, 57, 0
2, 131015, Note_on_c, 0, 60, 0
2, 131015, Note_on_c, 0, 64, 0
2, 131040, Note_on_c, 0, 57, 80
2, 131040, Note_on_c, 0, 60, 80
2, 131040, Note_on_c, 0, 64, 80
2, 131495, Note_on_c, 0, 57, 0
2, 131495, Note_on_c, 0, 60, 0
2, 131495, Note_on_c, 0, 64, 0
2, 131520, Note_on_c, 0, 57, 80
2, 131520, Note_on_c, 0, 60, 80
2, 131520, Note_on_c, 0, 64, 80
2, 131975, Note_on_c, 0, 57, 0
2, 131975, Note_on_c, 0, 60, 0
2, 131975, Note_on_c, 0, 64, 0
2, 132000, Note_on_c, 0, 57, 80
2, 132000, Note_on_c, 0, 60, 80
2, 132000, Note_on_c, 0, 64, 80
2, 132455, Note_on_c, 0, 57, 0
2, 132455, Note_on_c, 0, 60, 0
2, 132455, Note_on_c, 0, 64, 0
2, 132480, Note_on_c, 0, 57, 80
2, 132480, Note_on_c, 0, 60, 80
2, 132480, Note_on_c, 0, 62, 80
2, 132935, Note_on_c, 0, 57, 0
2, 132935, Note_on_c, 0, 60, 0
2, 132935, Note_on_c, 0, 62, 0
2, 132960, Note_on_c, 0, 57, 80
2, 132960, Note_on_c, 0, 60, 80
2, 132960, Note_on_c, 0, 62, 80
2, 133415, Note_on_c, 0, 57, 0
2, 133415, Note_on_c, 0, 60, 0
2, 133415, Note_on_c, 0, 62, 0
2, 133440, Note_on_c, 0, 57, 80
2, 133440, Note_on_c, 0, 60, 80
2, 133440, Note_on_c, 0, 62, 80
2, 133895, Note_on_c, 0, 57, 0
2, 133895, Note_on_c, 0, 60, 0
2, 133895, Note_on_c, 0, 62, 0
2, 133920, Note_on_c, 0, 57, 80
2, 133920, Note_on_c, 0, 60, 80
2, 133920, Note_on_c, 0, 62, 80
2, 134375, Note_on_c, 0, 57, 0
2, 134375, Note_on_c, 0, 60, 0
2, 134375, Note_on_c, 0, 62, 0
2, 134400, Note_on_c, 0, 57, 80
2, 134400, Note_on_c, 0, 60, 80
2, 134855, Note_on_c, 0, 57, 0
2, 134855, Note_on_c, 0, 60, 0
2, 134880, Note_on_c, 0, 57, 80
2, 134880, Note_on_c, 0, 60, 80
2, 134880, Note_on_c, 0, 65, 80
2, 135335, Note_on_c, 0, 57, 0
2, 135335, Note_on_c, 0, 60, 0
2, 135335, Note_on_c, 0, 65, 0
2, 135360, Note_on_c, 0, 57, 80
2, 135360, Note_on_c, 0, 60, 80
2, 135360, Note_on_c, 0, 65, 80
2, 135815, Note_on_c, 0, 57, 0
2, 135815, Note_on_c, 0, 60, 0
2, 135815, Note_on_c, 0, 65, 0
2, 135840, Note_on_c, 0, 57, 80
2, 135840, Note_on_c, 0, 60, 80
2, 135840, Note_on_c, 0, 65, 80
2, 136295, Note_on_c, 0, 57, 0
2, 136295, Note_on_c, 0, 60, 0
2, 136295, Note_on_c, 0, 65, 0
2, 136320, Note_on_c, 0, 55, 80
2, 136320, Note_on_c, 0, 60, 80
2, 136320, Note_on_c, 0, 64, 80
2, 136775, Note_on_c, 0, 55, 0
2, 136775, Note_on_c, 0, 60, 0
2, 136775, Note_on_c, 0, 64, 0
2, 136800, Note_on_c, 0, 55, 80
2, 136800, Note_on_c, 0, 60, 80
2, 136800, Note_on_c, 0, 64, 80
2, 137255, Note_on_c, 0, 55, 0
2, 137255, Note_on_c, 0, 60, 0
2, 137255, Note_on_c, 0, 64, 0
2, 137280, Note_on_c, 0, 55, 80
2, 137280, Note_on_c, 0, 60, 80
2, 137280, Note_on_c, 0, 64, 80
2, 137735, Note_on_c, 0, 55, 0
2, 137735, Note_on_c, 0, 60, 0
2, 137735, Note_on_c, 0, 64, 0
2, 137760, Note_on_c, 0, 55, 80
2, 137760, Note_on_c, 0, 60, 80
2, 137760, Note_on_c, 0, 64, 80
2, 138215, Note_on_c, 0, 55, 0
2, 138215, Note_on_c, 0, 60, 0
2, 138215, Note_on_c, 0, 64, 0
2, 138240, Note_on_c, 0, 53, 80
2, 138240, Note_on_c, 0, 60, 80
2, 138240, Note_on_c, 0, 64, 80
2, 138695, Note_on_c, 0, 53, 0
2, 138695, Note_on_c, 0, 60, 0
2, 138695, Note_on_c, 0, 64, 0
2, 138720, Note_on_c, 0, 53, 80
2, 138720, Note_on_c, 0, 60, 80
2, 138720, Note_on_c, 0, 64, 80
2, 139175, Note_on_c, 0, 53, 0
2, 139175, Note_on_c, 0, 60, 0
2, 139175, Note_on_c, 0, 64, 0
2, 139200, Note_on_c, 0, 53, 80
2, 139200, Note_on_c, 0, 60, 80
2, 139200, Note_on_c, 0, 64, 80
2, 139655, Note_on_c, 0, 53, 0
2, 139655, Note_on_c, 0, 60, 0
2, 139655, Note_on_c, 0, 64, 0
2, 139680, Note_on_c, 0, 53, 80
2, 139680, Note_on_c, 0, 60, 80
2, 139680, Note_on_c, 0, 64, 80
2, 140135, Note_on_c, 0, 53, 0
2, 140135, Note_on_c, 0, 60, 0
2, 140135, Note_on_c, 0, 64, 0
2, 140160, Note_on_c, 0, 52, 80
2, 140160, Note_on_c, 0, 59, 80
2, 140160, Note_on_c, 0, 62, 80
2, 140615, Note_on_c, 0, 52, 0
2, 140615, Note_on_c, 0, 59, 0
2, 140615, Note_on_c, 0, 62, 0
2, 140640, Note_on_c, 0, 52, 80
2, 140640, Note_on_c, 0, 59, 80
2, 140640, Note_on_c, 0, 62, 80
2, 141095, Note_on_c, 0, 52, 0
2, 141095, Note_on_c, 0, 59, 0
2, 141095, Note_on_c, 0, 62, 0
2, 141120, Note_on_c, 0, 52, 80
2, 141120, Note_on_c, 0, 59, 80
2, 141120, Note_on_c, 0, 62, 80
2, 141575, Note_on_c, 0, 52, 0
2, 141575, Note_on_c, 0, 59, 0
2, 141575, Note_on_c, 0, 62, 0
2, 141600, Note_on_c, 0, 52, 80
2, 141600, Note_on_c, 0, 59, 80
2, 141600, Note_on_c, 0, 62, 80
2, 142055, Note_on_c, 0, 52, 0
2, 142055, Note_on_c, 0, 59, 0
2, 142055, Note_on_c, 0, 62, 0
2, 142080, Note_on_c, 0, 57, 80
2, 142080, Note_on_c, 0, 60, 80
2, 142080, Note_on_c, 0, 64, 80
2, 142535, Note_on_c, 0, 57, 0
2, 142535, Note_on_c, 0, 60, 0
2, 142535, Note_on_c, 0, 64, 0
2, 142560, Note_on_c, 0, 57, 80
2, 142560, Note_on_c, 0, 60, 80
2, 142560, Note_on_c, 0, 64, 80
2, 143015, Note_on_c, 0, 57, 0
2, 143015, Note_on_c, 0, 60, 0
2, 143015, Note_on_c, 0, 64, 0
2, 143040, Note_on_c, 0, 57, 80
2, 143040, Note_on_c, 0, 60, 80
2, 143040, Note_on_c, 0, 64, 80
2, 143495, Note_on_c, 0, 57, 0
2, 143495, Note_on_c, 0, 60, 0
2, 143495, Note_on_c, 0, 64, 0
2, 143520, Note_on_c, 0, 57, 80
2, 143520, Note_on_c, 0, 60, 80
2, 143520, Note_on_c, 0, 64, 80
2, 143975, Note_on_c, 0, 57, 0
2, 143975, Note_on_c, 0, 60, 0
2, 143975, Note_on_c, 0, 64, 0
2, 144000, Note_on_c, 0, 57, 80
2, 144000, Note_on_c, 0, 60, 80
2, 144000, Note_on_c, 0, 62, 80
2, 144455, Note_on_c, 0, 57, 0
2, 144455, Note_on_c, 0, 60, 0
2, 144455, Note_on_c, 0, 62, 0
2, 144480, Note_on_c, 0, 57, 80
2, 144480, Note_on_c, 0, 60, 80
2, 144480, Note_on_c, 0, 62, 80
2, 144935, Note_on_c, 0, 57, 0
2, 144935, Note_on_c, 0, 60, 0
2, 144935, Note_on_c, 0, 62, 0
2, 144960, Note_on_c, 0, 57, 80
2, 144960, Note_on_c, 0, 60, 80
2, 144960, Note_on_c, 0, 62, 80
2, 145415, Note_on_c, 0, 57, 0
2, 145415, Note_on_c, 0, 60, 0
2, 145415, Note_on_c, 0, 62, 0
2, 145440, Note_on_c, 0, 57, 80
2, 145440, Note_on_c, 0, 60, 80
2, 145440, Note_on_c, 0, 62, 80
2, 145895, Note_on_c, 0, 57, 0
2, 145895, Note_on_c, 0, 60, 0
2, 145895, Note_on_c, 0, 62, 0
2, 145920, Note_on_c, 0, 55, 80
2, 145920, Note_on_c, 0, 57, 80
2, 145920, Note_on_c, 0, 60, 80
2, 146375, Note_on_c, 0, 55, 0
2, 146375, Note_on_c, 0, 57, 0
2, 146375, Note_on_c, 0, 60, 0
2, 146400, Note_on_c, 0, 55, 80
2, 146400, Note_on_c, 0, 57, 80
2, 146400, Note_on_c, 0, 60, 80
2, 146400, Note_on_c, 0, 65, 80
2, 146855, Note_on_c, 0, 55, 0
2, 146855, Note_on_c, 0, 57, 0
2, 146855, Note_on_c, 0, 60, 0
2, 146855, Note_on_c, 0, 65, 0
2, 146880, Note_on_c, 0, 55, 80
2, 146880, Note_on_c, 0, 57, 80
2, 146880, Note_on_c, 0, 60, 80
2, 146880, Note_on_c, 0, 65, 80
2, 147335, Note_on_c, 0, 55, 0
2, 147335, Note_on_c, 0, 57, 0
2, 147335, Note_on_c, 0, 60, 0
2, 147335, Note_on_c, 0, 65, 0
2, 147360, Note_on_c, 0, 55, 80
2, 147360, Note_on_c, 0, 57, 80
2, 147360, Note_on_c, 0, 60, 80
2, 147360, Note_on_c, 0, 65, 80
2, 147815, Note_on_c, 0, 55, 0
2, 147815, Note_on_c, 0, 57, 0
2, 147815, Note_on_c, 0, 60, 0
2, 147815, Note_on_c, 0, 65, 0
2, 147840, Note_on_c, 0, 55, 80
2, 147840, Note_on_c, 0, 57, 80
2, 147840, Note_on_c, 0, 60, 80
2, 147840, Note_on_c, 0, 65, 80
2, 148295, Note_on_c, 0, 55, 0
2, 148295, Note_on_c, 0, 57, 0
2, 148295, Note_on_c, 0, 60, 0
2, 148295, Note_on_c, 0, 65, 0
2, 148320, Note_on_c, 0, 55, 80
2, 148320, Note_on_c, 0, 57, 80
2, 148320, Note_on_c, 0, 60, 80
2, 148320, Note_on_c, 0, 65, 80
2, 148775, Note_on_c, 0, 55, 0
2, 148775, Note_on_c, 0, 57, 0
2, 148775, Note_on_c, 0, 60, 0
2, 148775, Note_on_c, 0, 65, 0
2, 148800, Note_on_c, 0, 55, 80
2, 148800, Note_on_c, 0, 57, 80
2, 148800, Note_on_c, 0, 60, 80
2, 148800, Note_on_c, 0, 65, 80
2, 149255, Note_on_c, 0, 55, 0
2, 149255, Note_on_c, 0, 57, 0
2, 149255, Note_on_c, 0, 60, 0
2, 149255, Note_on_c, 0, 65, 0
2, 149280, Note_on_c, 0, 55, 80
2, 149280, Note_on_c, 0, 57, 80
2, 149280, Note_on_c, 0, 60, 80
2, 149280, Note_on_c, 0, 65, 80
2, 149735, Note_on_c, 0, 55, 0
2, 149735, Note_on_c, 0, 57, 0
2, 149735, Note_on_c, 0, 60, 0
2, 149735, Note_on_c, 0, 65, 0
2, 149760, Note_on_c, 0, 55, 80
2, 149760, Note_on_c, 0, 60, 80
2, 149760, Note_on_c, 0, 64, 80
2, 149999, Note_on_c, 0, 55, 0
2, 149999, Note_on_c, 0, 60, 0
2, 149999, Note_on_c, 0, 64, 0
2, 150400, Note_on_c, 0, 55, 80
2, 150551, Note_on_c, 0, 55, 0
2, 150560, Note_on_c, 0, 57, 80
2, 150711, Note_on_c, 0, 57, 0
2, 150720, Note_on_c, 0, 60, 80
2, 150871, Note_on_c, 0, 60, 0
2, 150880, Note_on_c, 0, 62, 80
2, 151031, Note_on_c, 0, 62, 0
2, 151040, Note_on_c, 0, 64, 80
2, 151191, Note_on_c, 0, 64, 0
2, 151200, Note_on_c, 0, 67, 80
2, 151351, Note_on_c, 0, 67, 0
2, 151360, Note_on_c, 0, 69, 80
2, 151511, Note_on_c, 0, 69, 0
2, 151520, Note_on_c, 0, 72, 80
2, 151671, Note_on_c, 0, 72, 0
2, 151680, Note_on_c, 0, 72, 80
2, 151919, Note_on_c, 0, 72, 0
2, 152160, Note_on_c, 0, 48, 80
2, 152160, Note_on_c, 0, 60, 80
2, 152399, Note_on_c, 0, 48, 0
2, 152399, Note_on_c, 0, 60, 0
2, 152400, End_track
3, 0, Start_track
3, 0, Title_t, "6-str. Electric Bass\000"
3, 0, Key_signature, 0, "major"
3, 0, Control_c, 3, 121, 0
3, 0, Program_c, 3, 33
3, 0, Control_c, 3, 7, 100
3, 0, Control_c, 3, 10, 64
3, 0, Control_c, 3, 91, 0
3, 0, Control_c, 3, 93, 0
3, 0, MIDI_port, 0
3, 0, Note_on_c, 3, 57, 80
3, 0, Control_c, 1, 121, 0
3, 0, Program_c, 1, 36
3, 0, Control_c, 1, 7, 100
3, 0, Control_c, 1, 10, 64
3, 0, Control_c, 1, 91, 0
3, 0, Control_c, 1, 93, 0
3, 0, MIDI_port, 0
3, 0, Control_c, 2, 121, 0
3, 0, Program_c, 2, 37
3, 0, Control_c, 2, 7, 100
3, 0, Control_c, 2, 10, 64
3, 0, Control_c, 2, 91, 0
3, 0, Control_c, 2, 93, 0
3, 0, MIDI_port, 0
3, 799, Note_on_c, 3, 57, 0
3, 800, Note_on_c, 3, 64, 80
3, 959, Note_on_c, 3, 64, 0
3, 960, Note_on_c, 3, 57, 80
3, 1439, Note_on_c, 3, 57, 0
3, 1600, Note_on_c, 3, 53, 80
3, 1759, Note_on_c, 3, 53, 0
3, 1760, Note_on_c, 3, 52, 80
3, 1919, Note_on_c, 3, 52, 0
3, 1920, Note_on_c, 3, 50, 80
3, 2719, Note_on_c, 3, 50, 0
3, 2720, Note_on_c, 3, 57, 80
3, 2879, Note_on_c, 3, 57, 0
3, 2880, Note_on_c, 3, 50, 80
3, 3359, Note_on_c, 3, 50, 0
3, 3520, Note_on_c, 3, 52, 80
3, 3679, Note_on_c, 3, 52, 0
3, 3680, Note_on_c, 3, 53, 80
3, 3839, Note_on_c, 3, 53, 0
3, 3840, Note_on_c, 3, 55, 80
3, 4639, Note_on_c, 3, 55, 0
3, 4640, Note_on_c, 3, 67, 80
3, 4799, Note_on_c, 3, 67, 0
3, 4800, Note_on_c, 3, 55, 80
3, 5279, Note_on_c, 3, 55, 0
3, 5280, Note_on_c, 3, 55, 80
3, 5439, Note_on_c, 3, 55, 0
3, 5440, Note_on_c, 3, 62, 80
3, 5599, Note_on_c, 3, 62, 0
3, 5600, Note_on_c, 3, 60, 80
3, 5759, Note_on_c, 3, 60, 0
3, 5760, Note_on_c, 3, 60, 80
3, 6559, Note_on_c, 3, 60, 0
3, 6560, Note_on_c, 3, 67, 80
3, 6719, Note_on_c, 3, 67, 0
3, 6720, Note_on_c, 3, 60, 80
3, 7199, Note_on_c, 3, 60, 0
3, 7360, Note_on_c, 3, 60, 80
3, 7519, Note_on_c, 3, 60, 0
3, 7520, Note_on_c, 3, 59, 80
3, 7679, Note_on_c, 3, 59, 0
3, 7680, Note_on_c, 3, 57, 80
3, 8479, Note_on_c, 3, 57, 0
3, 8480, Note_on_c, 3, 64, 80
3, 8639, Note_on_c, 3, 64, 0
3, 8640, Note_on_c, 3, 57, 80
3, 9119, Note_on_c, 3, 57, 0
3, 9280, Note_on_c, 3, 53, 80
3, 9439, Note_on_c, 3, 53, 0
3, 9440, Note_on_c, 3, 52, 80
3, 9599, Note_on_c, 3, 52, 0
3, 9600, Note_on_c, 3, 50, 80
3, 10399, Note_on_c, 3, 50, 0
3, 10400, Note_on_c, 3, 57, 80
3, 10559, Note_on_c, 3, 57, 0
3, 10560, Note_on_c, 3, 50, 80
3, 11039, Note_on_c, 3, 50, 0
3, 11200, Note_on_c, 3, 52, 80
3, 11359, Note_on_c, 3, 52, 0
3, 11360, Note_on_c, 3, 53, 80
3, 11519, Note_on_c, 3, 53, 0
3, 11520, Note_on_c, 3, 55, 80
3, 12319, Note_on_c, 3, 55, 0
3, 12320, Note_on_c, 3, 67, 80
3, 12479, Note_on_c, 3, 67, 0
3, 12480, Note_on_c, 3, 55, 80
3, 12959, Note_on_c, 3, 55, 0
3, 12960, Note_on_c, 3, 55, 80
3, 13119, Note_on_c, 3, 55, 0
3, 13120, Note_on_c, 3, 62, 80
3, 13279, Note_on_c, 3, 62, 0
3, 13280, Note_on_c, 3, 60, 80
3, 13439, Note_on_c, 3, 60, 0
3, 13440, Note_on_c, 3, 60, 80
3, 14239, Note_on_c, 3, 60, 0
3, 14240, Note_on_c, 3, 67, 80
3, 14399, Note_on_c, 3, 67, 0
3, 14400, Note_on_c, 3, 60, 80
3, 14879, Note_on_c, 3, 60, 0
3, 15040, Note_on_c, 3, 60, 80
3, 15199, Note_on_c, 3, 60, 0
3, 15200, Note_on_c, 3, 59, 80
3, 15359, Note_on_c, 3, 59, 0
3, 15360, Note_on_c, 3, 57, 80
3, 16159, Note_on_c, 3, 57, 0
3, 16160, Note_on_c, 3, 64, 80
3, 16319, Note_on_c, 3, 64, 0
3, 16320, Note_on_c, 3, 57, 80
3, 16799, Note_on_c, 3, 57, 0
3, 16960, Note_on_c, 3, 53, 80
3, 17119, Note_on_c, 3, 53, 0
3, 17120, Note_on_c, 3, 52, 80
3, 17279, Note_on_c, 3, 52, 0
3, 17280, Note_on_c, 3, 50, 80
3, 18079, Note_on_c, 3, 50, 0
3, 18080, Note_on_c, 3, 57, 80
3, 18239, Note_on_c, 3, 57, 0
3, 18240, Note_on_c, 3, 50, 80
3, 18719, Note_on_c, 3, 50, 0
3, 18880, Note_on_c, 3, 52, 80
3, 19039, Note_on_c, 3, 52, 0
3, 19040, Note_on_c, 3, 53, 80
3, 19199, Note_on_c, 3, 53, 0
3, 19200, Note_on_c, 3, 55, 80
3, 19999, Note_on_c, 3, 55, 0
3, 20000, Note_on_c, 3, 67, 80
3, 20159, Note_on_c, 3, 67, 0
3, 20160, Note_on_c, 3, 55, 80
3, 20639, Note_on_c, 3, 55, 0
3, 20640, Note_on_c, 3, 55, 80
3, 20799, Note_on_c, 3, 55, 0
3, 20800, Note_on_c, 3, 57, 80
3, 20959, Note_on_c, 3, 57, 0
3, 20960, Note_on_c, 3, 59, 80
3, 21119, Note_on_c, 3, 59, 0
3, 21120, Note_on_c, 3, 60, 80
3, 21919, Note_on_c, 3, 60, 0
3, 21920, Note_on_c, 3, 67, 80
3, 22079, Note_on_c, 3, 67, 0
3, 22080, Note_on_c, 3, 60, 80
3, 22559, Note_on_c, 3, 60, 0
3, 22720, Note_on_c, 3, 60, 80
3, 22879, Note_on_c, 3, 60, 0
3, 22880, Note_on_c, 3, 59, 80
3, 23039, Note_on_c, 3, 59, 0
3, 23040, Note_on_c, 3, 57, 80
3, 23839, Note_on_c, 3, 57, 0
3, 23840, Note_on_c, 3, 64, 80
3, 23999, Note_on_c, 3, 64, 0
3, 24000, Note_on_c, 3, 57, 80
3, 24479, Note_on_c, 3, 57, 0
3, 24640, Note_on_c, 3, 53, 80
3, 24799, Note_on_c, 3, 53, 0
3, 24800, Note_on_c, 3, 52, 80
3, 24959, Note_on_c, 3, 52, 0
3, 24960, Note_on_c, 3, 50, 80
3, 25759, Note_on_c, 3, 50, 0
3, 25760, Note_on_c, 3, 57, 80
3, 25919, Note_on_c, 3, 57, 0
3, 25920, Note_on_c, 3, 50, 80
3, 26399, Note_on_c, 3, 50, 0
3, 26560, Note_on_c, 3, 52, 80
3, 26719, Note_on_c, 3, 52, 0
3, 26720, Note_on_c, 3, 53, 80
3, 26879, Note_on_c, 3, 53, 0
3, 26880, Note_on_c, 3, 55, 80
3, 27679, Note_on_c, 3, 55, 0
3, 27680, Note_on_c, 3, 67, 80
3, 27839, Note_on_c, 3, 67, 0
3, 27840, Note_on_c, 3, 55, 80
3, 28319, Note_on_c, 3, 55, 0
3, 28320, Note_on_c, 3, 55, 80
3, 28479, Note_on_c, 3, 55, 0
3, 28480, Note_on_c, 3, 57, 80
3, 28639, Note_on_c, 3, 57, 0
3, 28640, Note_on_c, 3, 59, 80
3, 28799, Note_on_c, 3, 59, 0
3, 28800, Note_on_c, 3, 60, 80
3, 29599, Note_on_c, 3, 60, 0
3, 29600, Note_on_c, 3, 67, 80
3, 29759, Note_on_c, 3, 67, 0
3, 29760, Note_on_c, 3, 60, 80
3, 30239, Note_on_c, 3, 60, 0
3, 30400, Note_on_c, 3, 60, 80
3, 30559, Note_on_c, 3, 60, 0
3, 30560, Note_on_c, 3, 59, 80
3, 30719, Note_on_c, 3, 59, 0
3, 30720, Note_on_c, 3, 57, 80
3, 31519, Note_on_c, 3, 57, 0
3, 31520, Note_on_c, 3, 64, 80
3, 31679, Note_on_c, 3, 64, 0
3, 31680, Note_on_c, 3, 57, 80
3, 32159, Note_on_c, 3, 57, 0
3, 32320, Note_on_c, 3, 53, 80
3, 32479, Note_on_c, 3, 53, 0
3, 32480, Note_on_c, 3, 52, 80
3, 32639, Note_on_c, 3, 52, 0
3, 32640, Note_on_c, 3, 50, 80
3, 33439, Note_on_c, 3, 50, 0
3, 33440, Note_on_c, 3, 57, 80
3, 33599, Note_on_c, 3, 57, 0
3, 33600, Note_on_c, 3, 50, 80
3, 34079, Note_on_c, 3, 50, 0
3, 34240, Note_on_c, 3, 52, 80
3, 34399, Note_on_c, 3, 52, 0
3, 34400, Note_on_c, 3, 53, 80
3, 34559, Note_on_c, 3, 53, 0
3, 34560, Note_on_c, 3, 55, 80
3, 35359, Note_on_c, 3, 55, 0
3, 35360, Note_on_c, 3, 67, 80
3, 35519, Note_on_c, 3, 67, 0
3, 35520, Note_on_c, 3, 55, 80
3, 35999, Note_on_c, 3, 55, 0
3, 36000, Note_on_c, 3, 55, 80
3, 36159, Note_on_c, 3, 55, 0
3, 36160, Note_on_c, 3, 57, 80
3, 36319, Note_on_c, 3, 57, 0
3, 36320, Note_on_c, 3, 59, 80
3, 36479, Note_on_c, 3, 59, 0
3, 36480, Note_on_c, 3, 60, 80
3, 37279, Note_on_c, 3, 60, 0
3, 37280, Note_on_c, 3, 67, 80
3, 37439, Note_on_c, 3, 67, 0
3, 37440, Note_on_c, 3, 60, 80
3, 37919, Note_on_c, 3, 60, 0
3, 38080, Note_on_c, 3, 60, 80
3, 38239, Note_on_c, 3, 60, 0
3, 38240, Note_on_c, 3, 59, 80
3, 38399, Note_on_c, 3, 59, 0
3, 38400, Note_on_c, 3, 57, 80
3, 39199, Note_on_c, 3, 57, 0
3, 39200, Note_on_c, 3, 64, 80
3, 39359, Note_on_c, 3, 64, 0
3, 39360, Note_on_c, 3, 57, 80
3, 39839, Note_on_c, 3, 57, 0
3, 40000, Note_on_c, 3, 53, 80
3, 40159, Note_on_c, 3, 53, 0
3, 40160, Note_on_c, 3, 52, 80
3, 40319, Note_on_c, 3, 52, 0
3, 40320, Note_on_c, 3, 50, 80
3, 41119, Note_on_c, 3, 50, 0
3, 41120, Note_on_c, 3, 57, 80
3, 41279, Note_on_c, 3, 57, 0
3, 41280, Note_on_c, 3, 50, 80
3, 41759, Note_on_c, 3, 50, 0
3, 41920, Note_on_c, 3, 52, 80
3, 42079, Note_on_c, 3, 52, 0
3, 42080, Note_on_c, 3, 53, 80
3, 42239, Note_on_c, 3, 53, 0
3, 42240, Note_on_c, 3, 55, 80
3, 43039, Note_on_c, 3, 55, 0
3, 43040, Note_on_c, 3, 67, 80
3, 43199, Note_on_c, 3, 67, 0
3, 43200, Note_on_c, 3, 55, 80
3, 43679, Note_on_c, 3, 55, 0
3, 43680, Note_on_c, 3, 55, 80
3, 43839, Note_on_c, 3, 55, 0
3, 43840, Note_on_c, 3, 57, 80
3, 43999, Note_on_c, 3, 57, 0
3, 44000, Note_on_c, 3, 59, 80
3, 44159, Note_on_c, 3, 59, 0
3, 44160, Note_on_c, 3, 60, 80
3, 44959, Note_on_c, 3, 60, 0
3, 44960, Note_on_c, 3, 67, 80
3, 45119, Note_on_c, 3, 67, 0
3, 45120, Note_on_c, 3, 60, 80
3, 45599, Note_on_c, 3, 60, 0
3, 45760, Note_on_c, 3, 60, 80
3, 45919, Note_on_c, 3, 60, 0
3, 45920, Note_on_c, 3, 59, 80
3, 46079, Note_on_c, 3, 59, 0
3, 46080, Note_on_c, 3, 53, 80
3, 46879, Note_on_c, 3, 53, 0
3, 46880, Note_on_c, 3, 60, 80
3, 47039, Note_on_c, 3, 60, 0
3, 47040, Note_on_c, 3, 53, 80
3, 47519, Note_on_c, 3, 53, 0
3, 47520, Note_on_c, 3, 60, 80
3, 47679, Note_on_c, 3, 60, 0
3, 47680, Note_on_c, 3, 57, 80
3, 47839, Note_on_c, 3, 57, 0
3, 47840, Note_on_c, 3, 53, 80
3, 47999, Note_on_c, 3, 53, 0
3, 48000, Note_on_c, 3, 52, 80
3, 48799, Note_on_c, 3, 52, 0
3, 48800, Note_on_c, 3, 64, 80
3, 48959, Note_on_c, 3, 64, 0
3, 48960, Note_on_c, 3, 52, 80
3, 49439, Note_on_c, 3, 52, 0
3, 49600, Note_on_c, 3, 53, 80
3, 49759, Note_on_c, 3, 53, 0
3, 49760, Note_on_c, 3, 55, 80
3, 49919, Note_on_c, 3, 55, 0
3, 49920, Note_on_c, 3, 57, 80
3, 50719, Note_on_c, 3, 57, 0
3, 50720, Note_on_c, 3, 64, 80
3, 50879, Note_on_c, 3, 64, 0
3, 50880, Note_on_c, 3, 57, 80
3, 51359, Note_on_c, 3, 57, 0
3, 51360, Note_on_c, 3, 69, 80
3, 51519, Note_on_c, 3, 69, 0
3, 51520, Note_on_c, 3, 64, 80
3, 51679, Note_on_c, 3, 64, 0
3, 51680, Note_on_c, 3, 62, 80
3, 51839, Note_on_c, 3, 62, 0
3, 51840, Note_on_c, 3, 62, 80
3, 52639, Note_on_c, 3, 62, 0
3, 52640, Note_on_c, 3, 57, 80
3, 52799, Note_on_c, 3, 57, 0
3, 52800, Note_on_c, 3, 50, 80
3, 53279, Note_on_c, 3, 50, 0
3, 53280, Note_on_c, 3, 50, 80
3, 53439, Note_on_c, 3, 50, 0
3, 53440, Note_on_c, 3, 52, 80
3, 53599, Note_on_c, 3, 52, 0
3, 53600, Note_on_c, 3, 53, 80
3, 53759, Note_on_c, 3, 53, 0
3, 53760, Note_on_c, 3, 55, 80
3, 54559, Note_on_c, 3, 55, 0
3, 54560, Note_on_c, 3, 67, 80
3, 54719, Note_on_c, 3, 67, 0
3, 54720, Note_on_c, 3, 55, 80
3, 55520, Note_on_c, 3, 67, 80
3, 55679, Note_on_c, 3, 55, 0
3, 55679, Note_on_c, 3, 67, 0
3, 55680, Note_on_c, 3, 55, 80
3, 56479, Note_on_c, 3, 55, 0
3, 56480, Note_on_c, 3, 67, 80
3, 56639, Note_on_c, 3, 67, 0
3, 56640, Note_on_c, 3, 55, 80
3, 57119, Note_on_c, 3, 55, 0
3, 57120, Note_on_c, 3, 67, 80
3, 57439, Note_on_c, 3, 67, 0
3, 57440, Note_on_c, 3, 60, 80
3, 57599, Note_on_c, 3, 60, 0
3, 57600, Note_on_c, 3, 60, 80
3, 58079, Note_on_c, 3, 60, 0
3, 58240, Note_on_c, 3, 55, 80
3, 58399, Note_on_c, 3, 55, 0
3, 58400, Note_on_c, 3, 57, 80
3, 58559, Note_on_c, 3, 57, 0
3, 58560, Note_on_c, 3, 60, 80
3, 58719, Note_on_c, 3, 60, 0
3, 58720, Note_on_c, 3, 62, 80
3, 58879, Note_on_c, 3, 62, 0
3, 58880, Note_on_c, 3, 64, 80
3, 59039, Note_on_c, 3, 64, 0
3, 59040, Note_on_c, 3, 67, 80
3, 59199, Note_on_c, 3, 67, 0
3, 59200, Note_on_c, 3, 69, 80
3, 59359, Note_on_c, 3, 69, 0
3, 59360, Note_on_c, 3, 72, 80
3, 59519, Note_on_c, 3, 72, 0
3, 59520, Note_on_c, 3, 60, 80
3, 59999, Note_on_c, 3, 60, 0
3, 60000, Note_on_c, 3, 60, 80
3, 60479, Note_on_c, 3, 60, 0
3, 60800, Note_on_c, 3, 52, 80
3, 61439, Note_on_c, 3, 52, 0
3, 61440, Note_on_c, 3, 57, 80
3, 62239, Note_on_c, 3, 57, 0
3, 62240, Note_on_c, 3, 64, 80
3, 62399, Note_on_c, 3, 64, 0
3, 62400, Note_on_c, 3, 57, 80
3, 62879, Note_on_c, 3, 57, 0
3, 63040, Note_on_c, 3, 53, 80
3, 63199, Note_on_c, 3, 53, 0
3, 63200, Note_on_c, 3, 52, 80
3, 63359, Note_on_c, 3, 52, 0
3, 63360, Note_on_c, 3, 50, 80
3, 64159, Note_on_c, 3, 50, 0
3, 64160, Note_on_c, 3, 57, 80
3, 64319, Note_on_c, 3, 57, 0
3, 64320, Note_on_c, 3, 50, 80
3, 64799, Note_on_c, 3, 50, 0
3, 64960, Note_on_c, 3, 52, 80
3, 65119, Note_on_c, 3, 52, 0
3, 65120, Note_on_c, 3, 53, 80
3, 65279, Note_on_c, 3, 53, 0
3, 65280, Note_on_c, 3, 55, 80
3, 66079, Note_on_c, 3, 55, 0
3, 66080, Note_on_c, 3, 67, 80
3, 66239, Note_on_c, 3, 67, 0
3, 66240, Note_on_c, 3, 55, 80
3, 66719, Note_on_c, 3, 55, 0
3, 66720, Note_on_c, 3, 55, 80
3, 66879, Note_on_c, 3, 55, 0
3, 66880, Note_on_c, 3, 57, 80
3, 67039, Note_on_c, 3, 57, 0
3, 67040, Note_on_c, 3, 59, 80
3, 67199, Note_on_c, 3, 59, 0
3, 67200, Note_on_c, 3, 60, 80
3, 67999, Note_on_c, 3, 60, 0
3, 68000, Note_on_c, 3, 67, 80
3, 68159, Note_on_c, 3, 67, 0
3, 68160, Note_on_c, 3, 60, 80
3, 68639, Note_on_c, 3, 60, 0
3, 68800, Note_on_c, 3, 60, 80
3, 68959, Note_on_c, 3, 60, 0
3, 68960, Note_on_c, 3, 59, 80
3, 69119, Note_on_c, 3, 59, 0
3, 69120, Note_on_c, 3, 57, 80
3, 69919, Note_on_c, 3, 57, 0
3, 69920, Note_on_c, 3, 64, 80
3, 70079, Note_on_c, 3, 64, 0
3, 70080, Note_on_c, 3, 57, 80
3, 70559, Note_on_c, 3, 57, 0
3, 70720, Note_on_c, 3, 53, 80
3, 70879, Note_on_c, 3, 53, 0
3, 70880, Note_on_c, 3, 52, 80
3, 71039, Note_on_c, 3, 52, 0
3, 71040, Note_on_c, 3, 50, 80
3, 71839, Note_on_c, 3, 50, 0
3, 71840, Note_on_c, 3, 57, 80
3, 71999, Note_on_c, 3, 57, 0
3, 72000, Note_on_c, 3, 50, 80
3, 72479, Note_on_c, 3, 50, 0
3, 72640, Note_on_c, 3, 52, 80
3, 72799, Note_on_c, 3, 52, 0
3, 72800, Note_on_c, 3, 53, 80
3, 72959, Note_on_c, 3, 53, 0
3, 72960, Note_on_c, 3, 55, 80
3, 73759, Note_on_c, 3, 55, 0
3, 73760, Note_on_c, 3, 67, 80
3, 73919, Note_on_c, 3, 67, 0
3, 73920, Note_on_c, 3, 55, 80
3, 74399, Note_on_c, 3, 55, 0
3, 74400, Note_on_c, 3, 55, 80
3, 74559, Note_on_c, 3, 55, 0
3, 74560, Note_on_c, 3, 57, 80
3, 74719, Note_on_c, 3, 57, 0
3, 74720, Note_on_c, 3, 59, 80
3, 74879, Note_on_c, 3, 59, 0
3, 74880, Note_on_c, 3, 60, 80
3, 75679, Note_on_c, 3, 60, 0
3, 75680, Note_on_c, 3, 67, 80
3, 75839, Note_on_c, 3, 67, 0
3, 75840, Note_on_c, 3, 60, 80
3, 76319, Note_on_c, 3, 60, 0
3, 76480, Note_on_c, 3, 59, 80
3, 76639, Note_on_c, 3, 59, 0
3, 76640, Note_on_c, 3, 57, 80
3, 76799, Note_on_c, 3, 57, 0
3, 76800, Note_on_c, 3, 53, 80
3, 77599, Note_on_c, 3, 53, 0
3, 77600, Note_on_c, 3, 60, 80
3, 77759, Note_on_c, 3, 60, 0
3, 77760, Note_on_c, 3, 53, 80
3, 78239, Note_on_c, 3, 53, 0
3, 78240, Note_on_c, 3, 60, 80
3, 78399, Note_on_c, 3, 60, 0
3, 78400, Note_on_c, 3, 57, 80
3, 78559, Note_on_c, 3, 57, 0
3, 78560, Note_on_c, 3, 53, 80
3, 78719, Note_on_c, 3, 53, 0
3, 78720, Note_on_c, 3, 52, 80
3, 79519, Note_on_c, 3, 52, 0
3, 79520, Note_on_c, 3, 64, 80
3, 79679, Note_on_c, 3, 64, 0
3, 79680, Note_on_c, 3, 52, 80
3, 80159, Note_on_c, 3, 52, 0
3, 80320, Note_on_c, 3, 53, 80
3, 80479, Note_on_c, 3, 53, 0
3, 80480, Note_on_c, 3, 55, 80
3, 80639, Note_on_c, 3, 55, 0
3, 80640, Note_on_c, 3, 57, 80
3, 81439, Note_on_c, 3, 57, 0
3, 81440, Note_on_c, 3, 64, 80
3, 81599, Note_on_c, 3, 64, 0
3, 81600, Note_on_c, 3, 57, 80
3, 82079, Note_on_c, 3, 57, 0
3, 82080, Note_on_c, 3, 69, 80
3, 82239, Note_on_c, 3, 69, 0
3, 82240, Note_on_c, 3, 64, 80
3, 82399, Note_on_c, 3, 64, 0
3, 82400, Note_on_c, 3, 62, 80
3, 82559, Note_on_c, 3, 62, 0
3, 82560, Note_on_c, 3, 62, 80
3, 83359, Note_on_c, 3, 62, 0
3, 83360, Note_on_c, 3, 57, 80
3, 83519, Note_on_c, 3, 57, 0
3, 83520, Note_on_c, 3, 50, 80
3, 83999, Note_on_c, 3, 50, 0
3, 84000, Note_on_c, 3, 50, 80
3, 84159, Note_on_c, 3, 50, 0
3, 84160, Note_on_c, 3, 52, 80
3, 84319, Note_on_c, 3, 52, 0
3, 84320, Note_on_c, 3, 53, 80
3, 84479, Note_on_c, 3, 53, 0
3, 84480, Note_on_c, 3, 55, 80
3, 85279, Note_on_c, 3, 55, 0
3, 85280, Note_on_c, 3, 67, 80
3, 85439, Note_on_c, 3, 67, 0
3, 85440, Note_on_c, 3, 55, 80
3, 86240, Note_on_c, 3, 67, 80
3, 86399, Note_on_c, 3, 55, 0
3, 86399, Note_on_c, 3, 67, 0
3, 86400, Note_on_c, 3, 55, 80
3, 87199, Note_on_c, 3, 55, 0
3, 87200, Note_on_c, 3, 67, 80
3, 87359, Note_on_c, 3, 67, 0
3, 87360, Note_on_c, 3, 55, 80
3, 87679, Note_on_c, 3, 55, 0
3, 87680, Note_on_c, 3, 67, 80
3, 87839, Note_on_c, 3, 67, 0
3, 88160, Note_on_c, 3, 60, 80
3, 88319, Note_on_c, 3, 60, 0
3, 88960, Note_on_c, 3, 55, 80
3, 89119, Note_on_c, 3, 55, 0
3, 89120, Note_on_c, 3, 57, 80
3, 89279, Note_on_c, 3, 57, 0
3, 89280, Note_on_c, 3, 60, 80
3, 89439, Note_on_c, 3, 60, 0
3, 89440, Note_on_c, 3, 62, 80
3, 89599, Note_on_c, 3, 62, 0
3, 89600, Note_on_c, 3, 64, 80
3, 89759, Note_on_c, 3, 64, 0
3, 89760, Note_on_c, 3, 67, 80
3, 89919, Note_on_c, 3, 67, 0
3, 89920, Note_on_c, 3, 69, 80
3, 90079, Note_on_c, 3, 69, 0
3, 90080, Note_on_c, 3, 72, 80
3, 90239, Note_on_c, 3, 72, 0
3, 90240, Note_on_c, 3, 60, 80
3, 90719, Note_on_c, 3, 60, 0
3, 90720, Note_on_c, 3, 60, 80
3, 91199, Note_on_c, 3, 60, 0
3, 91520, Note_on_c, 3, 52, 80
3, 92159, Note_on_c, 3, 52, 0
3, 92160, Note_on_c, 3, 57, 80
3, 92959, Note_on_c, 3, 57, 0
3, 92960, Note_on_c, 3, 64, 80
3, 93119, Note_on_c, 3, 64, 0
3, 93120, Note_on_c, 3, 57, 80
3, 93599, Note_on_c, 3, 57, 0
3, 93760, Note_on_c, 3, 53, 80
3, 93919, Note_on_c, 3, 53, 0
3, 93920, Note_on_c, 3, 52, 80
3, 94079, Note_on_c, 3, 52, 0
3, 94080, Note_on_c, 3, 50, 80
3, 94879, Note_on_c, 3, 50, 0
3, 94880, Note_on_c, 3, 57, 80
3, 95039, Note_on_c, 3, 57, 0
3, 95040, Note_on_c, 3, 50, 80
3, 95519, Note_on_c, 3, 50, 0
3, 95680, Note_on_c, 3, 52, 80
3, 95839, Note_on_c, 3, 52, 0
3, 95840, Note_on_c, 3, 53, 80
3, 95999, Note_on_c, 3, 53, 0
3, 96000, Note_on_c, 3, 55, 80
3, 96799, Note_on_c, 3, 55, 0
3, 96800, Note_on_c, 3, 67, 80
3, 96959, Note_on_c, 3, 67, 0
3, 96960, Note_on_c, 3, 55, 80
3, 97439, Note_on_c, 3, 55, 0
3, 97440, Note_on_c, 3, 55, 80
3, 97599, Note_on_c, 3, 55, 0
3, 97600, Note_on_c, 3, 57, 80
3, 97759, Note_on_c, 3, 57, 0
3, 97760, Note_on_c, 3, 59, 80
3, 97919, Note_on_c, 3, 59, 0
3, 97920, Note_on_c, 3, 60, 80
3, 98719, Note_on_c, 3, 60, 0
3, 98720, Note_on_c, 3, 67, 80
3, 98879, Note_on_c, 3, 67, 0
3, 98880, Note_on_c, 3, 60, 80
3, 99359, Note_on_c, 3, 60, 0
3, 99520, Note_on_c, 3, 60, 80
3, 99679, Note_on_c, 3, 60, 0
3, 99680, Note_on_c, 3, 59, 80
3, 99839, Note_on_c, 3, 59, 0
3, 99840, Note_on_c, 3, 57, 80
3, 100639, Note_on_c, 3, 57, 0
3, 100640, Note_on_c, 3, 64, 80
3, 100799, Note_on_c, 3, 64, 0
3, 100800, Note_on_c, 3, 57, 80
3, 101279, Note_on_c, 3, 57, 0
3, 101440, Note_on_c, 3, 53, 80
3, 101599, Note_on_c, 3, 53, 0
3, 101600, Note_on_c, 3, 52, 80
3, 101759, Note_on_c, 3, 52, 0
3, 101760, Note_on_c, 3, 50, 80
3, 102559, Note_on_c, 3, 50, 0
3, 102560, Note_on_c, 3, 57, 80
3, 102719, Note_on_c, 3, 57, 0
3, 102720, Note_on_c, 3, 50, 80
3, 103199, Note_on_c, 3, 50, 0
3, 103360, Note_on_c, 3, 52, 80
3, 103519, Note_on_c, 3, 52, 0
3, 103520, Note_on_c, 3, 53, 80
3, 103679, Note_on_c, 3, 53, 0
3, 103680, Note_on_c, 3, 55, 80
3, 104479, Note_on_c, 3, 55, 0
3, 104480, Note_on_c, 3, 67, 80
3, 104639, Note_on_c, 3, 67, 0
3, 104640, Note_on_c, 3, 55, 80
3, 105119, Note_on_c, 3, 55, 0
3, 105120, Note_on_c, 3, 55, 80
3, 105279, Note_on_c, 3, 55, 0
3, 105280, Note_on_c, 3, 57, 80
3, 105439, Note_on_c, 3, 57, 0
3, 105440, Note_on_c, 3, 59, 80
3, 105599, Note_on_c, 3, 59, 0
3, 105600, Note_on_c, 3, 60, 80
3, 106399, Note_on_c, 3, 60, 0
3, 106400, Note_on_c, 3, 67, 80
3, 106559, Note_on_c, 3, 67, 0
3, 106560, Note_on_c, 3, 60, 80
3, 107039, Note_on_c, 3, 60, 0
3, 107200, Note_on_c, 3, 60, 80
3, 107359, Note_on_c, 3, 60, 0
3, 107360, Note_on_c, 3, 59, 80
3, 107519, Note_on_c, 3, 59, 0
3, 107520, Note_on_c, 3, 53, 80
3, 108319, Note_on_c, 3, 53, 0
3, 108320, Note_on_c, 3, 60, 80
3, 108479, Note_on_c, 3, 60, 0
3, 108480, Note_on_c, 3, 53, 80
3, 108959, Note_on_c, 3, 53, 0
3, 108960, Note_on_c, 3, 60, 80
3, 109119, Note_on_c, 3, 60, 0
3, 109120, Note_on_c, 3, 57, 80
3, 109279, Note_on_c, 3, 57, 0
3, 109280, Note_on_c, 3, 53, 80
3, 109439, Note_on_c, 3, 53, 0
3, 109440, Note_on_c, 3, 52, 80
3, 110239, Note_on_c, 3, 52, 0
3, 110240, Note_on_c, 3, 64, 80
3, 110399, Note_on_c, 3, 64, 0
3, 110400, Note_on_c, 3, 52, 80
3, 110879, Note_on_c, 3, 52, 0
3, 111040, Note_on_c, 3, 53, 80
3, 111199, Note_on_c, 3, 53, 0
3, 111200, Note_on_c, 3, 55, 80
3, 111359, Note_on_c, 3, 55, 0
3, 111360, Note_on_c, 3, 57, 80
3, 112159, Note_on_c, 3, 57, 0
3, 112160, Note_on_c, 3, 64, 80
3, 112319, Note_on_c, 3, 64, 0
3, 112320, Note_on_c, 3, 57, 80
3, 112799, Note_on_c, 3, 57, 0
3, 112800, Note_on_c, 3, 69, 80
3, 112959, Note_on_c, 3, 69, 0
3, 112960, Note_on_c, 3, 65, 80
3, 113119, Note_on_c, 3, 65, 0
3, 113120, Note_on_c, 3, 64, 80
3, 113279, Note_on_c, 3, 64, 0
3, 113280, Note_on_c, 3, 62, 80
3, 114079, Note_on_c, 3, 62, 0
3, 114080, Note_on_c, 3, 57, 80
3, 114239, Note_on_c, 3, 57, 0
3, 114240, Note_on_c, 3, 50, 80
3, 114719, Note_on_c, 3, 50, 0
3, 114720, Note_on_c, 3, 50, 80
3, 114879, Note_on_c, 3, 50, 0
3, 114880, Note_on_c, 3, 52, 80
3, 115039, Note_on_c, 3, 52, 0
3, 115040, Note_on_c, 3, 53, 80
3, 115199, Note_on_c, 3, 53, 0
3, 115200, Note_on_c, 3, 55, 80
3, 115999, Note_on_c, 3, 55, 0
3, 116000, Note_on_c, 3, 67, 80
3, 116159, Note_on_c, 3, 67, 0
3, 116160, Note_on_c, 3, 55, 80
3, 116960, Note_on_c, 3, 67, 80
3, 117119, Note_on_c, 3, 55, 0
3, 117119, Note_on_c, 3, 67, 0
3, 117120, Note_on_c, 3, 55, 80
3, 117919, Note_on_c, 3, 55, 0
3, 117920, Note_on_c, 3, 67, 80
3, 118079, Note_on_c, 3, 67, 0
3, 118080, Note_on_c, 3, 55, 80
3, 118399, Note_on_c, 3, 55, 0
3, 118400, Note_on_c, 3, 67, 80
3, 118559, Note_on_c, 3, 67, 0
3, 118880, Note_on_c, 3, 60, 80
3, 119039, Note_on_c, 3, 60, 0
3, 119040, Note_on_c, 3, 60, 80
3, 119519, Note_on_c, 3, 60, 0
3, 119680, Note_on_c, 3, 55, 80
3, 119839, Note_on_c, 3, 55, 0
3, 119840, Note_on_c, 3, 57, 80
3, 119999, Note_on_c, 3, 57, 0
3, 120000, Note_on_c, 3, 60, 80
3, 120159, Note_on_c, 3, 60, 0
3, 120160, Note_on_c, 3, 62, 80
3, 120319, Note_on_c, 3, 62, 0
3, 120320, Note_on_c, 3, 64, 80
3, 120479, Note_on_c, 3, 64, 0
3, 120480, Note_on_c, 3, 67, 80
3, 120639, Note_on_c, 3, 67, 0
3, 120640, Note_on_c, 3, 69, 80
3, 120799, Note_on_c, 3, 69, 0
3, 120800, Note_on_c, 3, 72, 80
3, 120959, Note_on_c, 3, 72, 0
3, 120960, Note_on_c, 3, 72, 80
3, 121439, Note_on_c, 3, 72, 0
3, 121440, Note_on_c, 3, 60, 80
3, 121919, Note_on_c, 3, 60, 0
3, 122240, Note_on_c, 3, 52, 80
3, 122879, Note_on_c, 3, 52, 0
3, 122880, Note_on_c, 3, 57, 80
3, 123679, Note_on_c, 3, 57, 0
3, 123680, Note_on_c, 3, 64, 80
3, 123839, Note_on_c, 3, 64, 0
3, 123840, Note_on_c, 3, 57, 80
3, 124319, Note_on_c, 3, 57, 0
3, 124480, Note_on_c, 3, 53, 80
3, 124639, Note_on_c, 3, 53, 0
3, 124640, Note_on_c, 3, 52, 80
3, 124799, Note_on_c, 3, 52, 0
3, 124800, Note_on_c, 3, 50, 80
3, 125599, Note_on_c, 3, 50, 0
3, 125600, Note_on_c, 3, 57, 80
3, 125759, Note_on_c, 3, 57, 0
3, 125760, Note_on_c, 3, 50, 80
3, 126239, Note_on_c, 3, 50, 0
3, 126400, Note_on_c, 3, 52, 80
3, 126559, Note_on_c, 3, 52, 0
3, 126560, Note_on_c, 3, 53, 80
3, 126719, Note_on_c, 3, 53, 0
3, 126720, Note_on_c, 3, 55, 80
3, 127519, Note_on_c, 3, 55, 0
3, 127520, Note_on_c, 3, 67, 80
3, 127679, Note_on_c, 3, 67, 0
3, 127680, Note_on_c, 3, 55, 80
3, 128159, Note_on_c, 3, 55, 0
3, 128160, Note_on_c, 3, 55, 80
3, 128319, Note_on_c, 3, 55, 0
3, 128320, Note_on_c, 3, 57, 80
3, 128479, Note_on_c, 3, 57, 0
3, 128480, Note_on_c, 3, 59, 80
3, 128639, Note_on_c, 3, 59, 0
3, 128640, Note_on_c, 3, 60, 80
3, 129439, Note_on_c, 3, 60, 0
3, 129440, Note_on_c, 3, 67, 80
3, 129599, Note_on_c, 3, 67, 0
3, 129600, Note_on_c, 3, 60, 80
3, 130079, Note_on_c, 3, 60, 0
3, 130240, Note_on_c, 3, 60, 80
3, 130399, Note_on_c, 3, 60, 0
3, 130400, Note_on_c, 3, 59, 80
3, 130559, Note_on_c, 3, 59, 0
3, 130560, Note_on_c, 3, 57, 80
3, 131359, Note_on_c, 3, 57, 0
3, 131360, Note_on_c, 3, 64, 80
3, 131519, Note_on_c, 3, 64, 0
3, 131520, Note_on_c, 3, 57, 80
3, 131999, Note_on_c, 3, 57, 0
3, 132160, Note_on_c, 3, 53, 80
3, 132319, Note_on_c, 3, 53, 0
3, 132320, Note_on_c, 3, 52, 80
3, 132479, Note_on_c, 3, 52, 0
3, 132480, Note_on_c, 3, 50, 80
3, 133279, Note_on_c, 3, 50, 0
3, 133280, Note_on_c, 3, 57, 80
3, 133439, Note_on_c, 3, 57, 0
3, 133440, Note_on_c, 3, 50, 80
3, 133919, Note_on_c, 3, 50, 0
3, 134080, Note_on_c, 3, 52, 80
3, 134239, Note_on_c, 3, 52, 0
3, 134240, Note_on_c, 3, 53, 80
3, 134399, Note_on_c, 3, 53, 0
3, 134400, Note_on_c, 3, 55, 80
3, 135199, Note_on_c, 3, 55, 0
3, 135200, Note_on_c, 3, 67, 80
3, 135359, Note_on_c, 3, 67, 0
3, 135360, Note_on_c, 3, 55, 80
3, 135839, Note_on_c, 3, 55, 0
3, 135840, Note_on_c, 3, 55, 80
3, 135999, Note_on_c, 3, 55, 0
3, 136000, Note_on_c, 3, 57, 80
3, 136159, Note_on_c, 3, 57, 0
3, 136160, Note_on_c, 3, 59, 80
3, 136319, Note_on_c, 3, 59, 0
3, 136320, Note_on_c, 3, 60, 80
3, 137119, Note_on_c, 3, 60, 0
3, 137120, Note_on_c, 3, 67, 80
3, 137279, Note_on_c, 3, 67, 0
3, 137280, Note_on_c, 3, 60, 80
3, 137759, Note_on_c, 3, 60, 0
3, 137920, Note_on_c, 3, 59, 80
3, 138079, Note_on_c, 3, 59, 0
3, 138080, Note_on_c, 3, 58, 80
3, 138239, Note_on_c, 3, 58, 0
3, 138240, Note_on_c, 3, 53, 80
3, 139039, Note_on_c, 3, 53, 0
3, 139040, Note_on_c, 3, 60, 80
3, 139199, Note_on_c, 3, 60, 0
3, 139200, Note_on_c, 3, 53, 80
3, 139679, Note_on_c, 3, 53, 0
3, 139680, Note_on_c, 3, 60, 80
3, 139839, Note_on_c, 3, 60, 0
3, 139840, Note_on_c, 3, 57, 80
3, 139999, Note_on_c, 3, 57, 0
3, 140000, Note_on_c, 3, 53, 80
3, 140159, Note_on_c, 3, 53, 0
3, 140160, Note_on_c, 3, 52, 80
3, 140959, Note_on_c, 3, 52, 0
3, 140960, Note_on_c, 3, 64, 80
3, 141119, Note_on_c, 3, 64, 0
3, 141120, Note_on_c, 3, 52, 80
3, 141599, Note_on_c, 3, 52, 0
3, 141760, Note_on_c, 3, 53, 80
3, 141919, Note_on_c, 3, 53, 0
3, 141920, Note_on_c, 3, 55, 80
3, 142079, Note_on_c, 3, 55, 0
3, 142080, Note_on_c, 3, 57, 80
3, 142879, Note_on_c, 3, 57, 0
3, 142880, Note_on_c, 3, 64, 80
3, 143039, Note_on_c, 3, 64, 0
3, 143040, Note_on_c, 3, 57, 80
3, 143519, Note_on_c, 3, 57, 0
3, 143520, Note_on_c, 3, 69, 80
3, 143679, Note_on_c, 3, 69, 0
3, 143680, Note_on_c, 3, 64, 80
3, 143839, Note_on_c, 3, 64, 0
3, 143840, Note_on_c, 3, 62, 80
3, 143999, Note_on_c, 3, 62, 0
3, 144000, Note_on_c, 3, 62, 80
3, 144799, Note_on_c, 3, 62, 0
3, 144800, Note_on_c, 3, 57, 80
3, 144959, Note_on_c, 3, 57, 0
3, 144960, Note_on_c, 3, 50, 80
3, 145439, Note_on_c, 3, 50, 0
3, 145440, Note_on_c, 3, 50, 80
3, 145599, Note_on_c, 3, 50, 0
3, 145600, Note_on_c, 3, 52, 80
3, 145759, Note_on_c, 3, 52, 0
3, 145760, Note_on_c, 3, 53, 80
3, 145919, Note_on_c, 3, 53, 0
3, 145920, Note_on_c, 3, 55, 80
3, 146719, Note_on_c, 3, 55, 0
3, 146720, Note_on_c, 3, 67, 80
3, 146879, Note_on_c, 3, 67, 0
3, 146880, Note_on_c, 3, 55, 80
3, 147680, Note_on_c, 3, 67, 80
3, 147839, Note_on_c, 3, 55, 0
3, 147839, Note_on_c, 3, 67, 0
3, 147840, Note_on_c, 3, 55, 80
3, 148639, Note_on_c, 3, 55, 0
3, 148640, Note_on_c, 3, 67, 80
3, 148799, Note_on_c, 3, 67, 0
3, 148800, Note_on_c, 3, 55, 80
3, 149279, Note_on_c, 3, 55, 0
3, 149280, Note_on_c, 3, 67, 80
3, 149599, Note_on_c, 3, 67, 0
3, 149600, Note_on_c, 3, 60, 80
3, 149759, Note_on_c, 3, 60, 0
3, 149760, Note_on_c, 3, 60, 80
3, 150239, Note_on_c, 3, 60, 0
3, 150400, Note_on_c, 3, 55, 80
3, 150559, Note_on_c, 3, 55, 0
3, 150560, Note_on_c, 3, 57, 80
3, 150719, Note_on_c, 3, 57, 0
3, 150720, Note_on_c, 3, 60, 80
3, 150879, Note_on_c, 3, 60, 0
3, 150880, Note_on_c, 3, 62, 80
3, 151039, Note_on_c, 3, 62, 0
3, 151040, Note_on_c, 3, 64, 80
3, 151199, Note_on_c, 3, 64, 0
3, 151200, Note_on_c, 3, 67, 80
3, 151359, Note_on_c, 3, 67, 0
3, 151360, Note_on_c, 3, 69, 80
3, 151519, Note_on_c, 3, 69, 0
3, 151520, Note_on_c, 3, 72, 80
3, 151679, Note_on_c, 3, 72, 0
3, 151680, Note_on_c, 3, 60, 80
3, 152159, Note_on_c, 3, 60, 0
3, 152160, Note_on_c, 3, 48, 80
3, 152639, Note_on_c, 3, 48, 0
3, 152640, End_track
4, 0, Start_track
4, 0, Title_t, "Chimes, Chimes, Bell\000"
4, 0, Key_signature, 0, "major"
4, 0, Control_c, 4, 121, 0
4, 0, Program_c, 4, 14
4, 0, Control_c, 4, 7, 100
4, 0, Control_c, 4, 10, 64
4, 0, Control_c, 4, 91, 0
4, 0, Control_c, 4, 93, 0
4, 0, MIDI_port, 0
4, 16000, Note_on_c, 4, 60, 80
4, 16159, Note_on_c, 4, 60, 0
4, 16160, Note_on_c, 4, 62, 80
4, 16319, Note_on_c, 4, 62, 0
4, 16320, Note_on_c, 4, 64, 80
4, 16639, Note_on_c, 4, 64, 0
4, 16640, Note_on_c, 4, 67, 80
4, 16799, Note_on_c, 4, 67, 0
4, 16960, Note_on_c, 4, 69, 80
4, 17279, Note_on_c, 4, 69, 0
4, 17280, Note_on_c, 4, 72, 80
4, 17759, Note_on_c, 4, 72, 0
4, 17760, Note_on_c, 4, 69, 80
4, 17919, Note_on_c, 4, 69, 0
4, 17920, Note_on_c, 4, 67, 80
4, 18079, Note_on_c, 4, 67, 0
4, 18080, Note_on_c, 4, 69, 80
4, 19199, Note_on_c, 4, 69, 0
4, 19680, Note_on_c, 4, 76, 80
4, 19839, Note_on_c, 4, 76, 0
4, 19840, Note_on_c, 4, 77, 80
4, 19999, Note_on_c, 4, 77, 0
4, 20000, Note_on_c, 4, 76, 80
4, 20159, Note_on_c, 4, 76, 0
4, 20160, Note_on_c, 4, 72, 80
4, 20319, Note_on_c, 4, 72, 0
4, 20320, Note_on_c, 4, 67, 80
4, 20479, Note_on_c, 4, 67, 0
4, 20480, Note_on_c, 4, 65, 80
4, 20639, Note_on_c, 4, 65, 0
4, 20640, Note_on_c, 4, 62, 80
4, 20799, Note_on_c, 4, 62, 0
4, 20800, Note_on_c, 4, 64, 80
4, 20959, Note_on_c, 4, 64, 0
4, 20960, Note_on_c, 4, 72, 80
4, 22079, Note_on_c, 4, 72, 0
4, 61440, Note_on_c, 4, 69, 64
4, 61679, Note_on_c, 4, 69, 0
4, 62880, Note_on_c, 4, 69, 64
4, 63039, Note_on_c, 4, 69, 0
4, 63040, Note_on_c, 4, 72, 64
4, 63199, Note_on_c, 4, 72, 0
4, 63200, Note_on_c, 4, 69, 64
4, 63359, Note_on_c, 4, 69, 0
4, 63360, Note_on_c, 4, 76, 64
4, 63679, Note_on_c, 4, 76, 0
4, 63680, Note_on_c, 4, 76, 64
4, 63839, Note_on_c, 4, 76, 0
4, 65600, Note_on_c, 4, 64, 64
4, 65919, Note_on_c, 4, 64, 0
4, 65920, Note_on_c, 4, 67, 64
4, 66239, Note_on_c, 4, 67, 0
4, 66240, Note_on_c, 4, 69, 64
4, 66479, Note_on_c, 4, 69, 0
4, 66720, Note_on_c, 4, 72, 64
4, 67039, Note_on_c, 4, 72, 0
4, 67040, Note_on_c, 4, 72, 64
4, 68159, Note_on_c, 4, 72, 0
4, 68480, Note_on_c, 4, 72, 64
4, 69119, Note_on_c, 4, 72, 0
4, 69120, Note_on_c, 4, 69, 64
4, 69359, Note_on_c, 4, 69, 0
4, 70560, Note_on_c, 4, 76, 64
4, 70719, Note_on_c, 4, 76, 0
4, 70720, Note_on_c, 4, 72, 64
4, 70879, Note_on_c, 4, 72, 0
4, 70880, Note_on_c, 4, 74, 64
4, 71039, Note_on_c, 4, 74, 0
4, 71040, Note_on_c, 4, 72, 64
4, 71359, Note_on_c, 4, 72, 0
4, 71360, Note_on_c, 4, 69, 64
4, 71519, Note_on_c, 4, 69, 0
4, 71520, Note_on_c, 4, 71, 64
4, 71839, Note_on_c, 4, 71, 0
4, 71840, Note_on_c, 4, 69, 64
4, 71999, Note_on_c, 4, 69, 0
4, 73440, Note_on_c, 4, 64, 64
4, 73599, Note_on_c, 4, 64, 0
4, 73600, Note_on_c, 4, 67, 64
4, 73759, Note_on_c, 4, 67, 0
4, 73760, Note_on_c, 4, 69, 64
4, 73919, Note_on_c, 4, 69, 0
4, 73920, Note_on_c, 4, 72, 64
4, 74159, Note_on_c, 4, 72, 0
4, 74400, Note_on_c, 4, 74, 64
4, 74719, Note_on_c, 4, 74, 0
4, 74720, Note_on_c, 4, 72, 64
4, 74879, Note_on_c, 4, 72, 0
4, 77280, Note_on_c, 4, 69, 64
4, 77599, Note_on_c, 4, 69, 0
4, 77600, Note_on_c, 4, 72, 64
4, 77759, Note_on_c, 4, 72, 0
4, 79200, Note_on_c, 4, 72, 64
4, 79519, Note_on_c, 4, 72, 0
4, 79520, Note_on_c, 4, 76, 64
4, 79679, Note_on_c, 4, 76, 0
4, 82880, Note_on_c, 4, 76, 64
4, 83039, Note_on_c, 4, 76, 0
4, 84800, Note_on_c, 4, 65, 64
4, 85439, Note_on_c, 4, 65, 0
4, 85760, Note_on_c, 4, 69, 64
4, 86399, Note_on_c, 4, 69, 0
4, 86720, Note_on_c, 4, 72, 64
4, 87359, Note_on_c, 4, 72, 0
4, 87680, Note_on_c, 4, 77, 64
4, 87839, Note_on_c, 4, 77, 0
4, 88160, Note_on_c, 4, 79, 64
4, 88319, Note_on_c, 4, 79, 0
4, 92160, Note_on_c, 4, 67, 64
4, 94079, Note_on_c, 4, 67, 0
4, 94080, Note_on_c, 4, 69, 64
4, 95519, Note_on_c, 4, 69, 0
4, 95680, Note_on_c, 4, 67, 64
4, 95999, Note_on_c, 4, 67, 0
4, 96000, Note_on_c, 4, 65, 64
4, 97439, Note_on_c, 4, 65, 0
4, 97440, Note_on_c, 4, 65, 64
4, 97759, Note_on_c, 4, 65, 0
4, 97760, Note_on_c, 4, 64, 64
4, 99359, Note_on_c, 4, 64, 0
4, 99360, Note_on_c, 4, 64, 64
4, 99519, Note_on_c, 4, 64, 0
4, 99520, Note_on_c, 4, 65, 64
4, 99679, Note_on_c, 4, 65, 0
4, 99680, Note_on_c, 4, 67, 64
4, 99839, Note_on_c, 4, 67, 0
4, 99840, Note_on_c, 4, 67, 64
4, 101759, Note_on_c, 4, 67, 0
4, 101760, Note_on_c, 4, 62, 64
4, 103359, Note_on_c, 4, 62, 0
4, 103360, Note_on_c, 4, 67, 64
4, 103679, Note_on_c, 4, 67, 0
4, 103680, Note_on_c, 4, 65, 64
4, 105119, Note_on_c, 4, 65, 0
4, 105120, Note_on_c, 4, 65, 64
4, 105439, Note_on_c, 4, 65, 0
4, 105440, Note_on_c, 4, 64, 64
4, 107199, Note_on_c, 4, 64, 0
4, 107200, Note_on_c, 4, 62, 64
4, 107359, Note_on_c, 4, 62, 0
4, 107360, Note_on_c, 4, 64, 64
4, 107519, Note_on_c, 4, 64, 0
4, 107520, Note_on_c, 4, 65, 64
4, 109439, Note_on_c, 4, 65, 0
4, 109440, Note_on_c, 4, 65, 64
4, 111039, Note_on_c, 4, 65, 0
4, 111040, Note_on_c, 4, 65, 64
4, 111199, Note_on_c, 4, 65, 0
4, 111200, Note_on_c, 4, 67, 64
4, 111359, Note_on_c, 4, 67, 0
4, 111360, Note_on_c, 4, 69, 64
4, 113279, Note_on_c, 4, 69, 0
4, 113280, Note_on_c, 4, 74, 64
4, 114719, Note_on_c, 4, 74, 0
4, 123360, Note_on_c, 4, 69, 64
4, 123519, Note_on_c, 4, 69, 0
4, 123520, Note_on_c, 4, 64, 64
4, 123679, Note_on_c, 4, 64, 0
4, 123680, Note_on_c, 4, 67, 64
4, 124799, Note_on_c, 4, 67, 0
4, 125280, Note_on_c, 4, 76, 64
4, 125439, Note_on_c, 4, 76, 0
4, 125440, Note_on_c, 4, 69, 64
4, 125599, Note_on_c, 4, 69, 0
4, 125600, Note_on_c, 4, 72, 64
4, 126719, Note_on_c, 4, 72, 0
4, 127200, Note_on_c, 4, 72, 64
4, 127359, Note_on_c, 4, 72, 0
4, 127360, Note_on_c, 4, 69, 64
4, 127519, Note_on_c, 4, 69, 0
4, 127520, Note_on_c, 4, 76, 64
4, 128159, Note_on_c, 4, 76, 0
4, 128160, Note_on_c, 4, 74, 64
4, 128479, Note_on_c, 4, 74, 0
4, 128480, Note_on_c, 4, 72, 64
4, 128639, Note_on_c, 4, 72, 0
4, 131040, Note_on_c, 4, 69, 64
4, 131199, Note_on_c, 4, 69, 0
4, 131200, Note_on_c, 4, 64, 64
4, 131359, Note_on_c, 4, 64, 0
4, 131360, Note_on_c, 4, 67, 64
4, 132479, Note_on_c, 4, 67, 0
4, 132960, Note_on_c, 4, 76, 64
4, 133119, Note_on_c, 4, 76, 0
4, 133120, Note_on_c, 4, 69, 64
4, 133279, Note_on_c, 4, 69, 0
4, 133280, Note_on_c, 4, 72, 64
4, 134399, Note_on_c, 4, 72, 0
4, 134880, Note_on_c, 4, 69, 64
4, 135039, Note_on_c, 4, 69, 0
4, 135040, Note_on_c, 4, 72, 64
4, 135199, Note_on_c, 4, 72, 0
4, 135200, Note_on_c, 4, 76, 64
4, 135359, Note_on_c, 4, 76, 0
4, 135360, Note_on_c, 4, 77, 64
4, 135839, Note_on_c, 4, 77, 0
4, 135840, Note_on_c, 4, 79, 64
4, 136159, Note_on_c, 4, 79, 0
4, 136160, Note_on_c, 4, 76, 64
4, 136319, Note_on_c, 4, 76, 0
4, 136320, End_track
0, 0, End_of_file
