0, 0, Header, 1, 5, 480
1, 0, Start_track
1, 0, Title_t, "Minstrel 1\000"
1, 0, Time_signature, 4, 2, 24, 8
1, 0, Key_signature, 0, "major"
1, 0, Tempo, 600000
1, 0, Control_c, 0, 121, 0
1, 0, Program_c, 0, 0
1, 0, Control_c, 0, 7, 100
1, 0, Control_c, 0, 10, 64
1, 0, Control_c, 0, 91, 0
1, 0, Control_c, 0, 93, 0
1, 0, MIDI_port, 0
1, 0, Note_on_c, 0, 64, 80
1, 0, Control_c, 0, 2, 80
1, 2, Control_c, 0, 64, 127
1, 239, Note_on_c, 0, 64, 0
1, 240, Note_on_c, 0, 60, 80
1, 240, Control_c, 0, 2, 80
1, 479, Note_on_c, 0, 60, 0
1, 480, Note_on_c, 0, 64, 80
1, 719, Note_on_c, 0, 64, 0
1, 720, Note_on_c, 0, 60, 80
1, 959, Note_on_c, 0, 60, 0
1, 960, Note_on_c, 0, 64, 80
1, 1199, Note_on_c, 0, 64, 0
1, 1200, Note_on_c, 0, 60, 80
1, 1439, Note_on_c, 0, 60, 0
1, 1440, Note_on_c, 0, 64, 80
1, 1679, Note_on_c, 0, 64, 0
1, 1680, Note_on_c, 0, 60, 80
1, 1919, Note_on_c, 0, 60, 0
1, 1920, Note_on_c, 0, 64, 80
1, 2159, Note_on_c, 0, 64, 0
1, 2160, Note_on_c, 0, 60, 80
1, 2160, Control_c, 0, 2, 80
1, 2399, Note_on_c, 0, 60, 0
1, 2400, Note_on_c, 0, 64, 80
1, 2639, Note_on_c, 0, 64, 0
1, 2640, Note_on_c, 0, 60, 80
1, 2879, Note_on_c, 0, 60, 0
1, 2880, Note_on_c, 0, 64, 80
1, 3119, Note_on_c, 0, 64, 0
1, 3120, Note_on_c, 0, 60, 80
1, 3359, Note_on_c, 0, 60, 0
1, 3360, Note_on_c, 0, 64, 80
1, 3599, Note_on_c, 0, 64, 0
1, 3600, Note_on_c, 0, 60, 80
1, 3839, Note_on_c, 0, 60, 0
1, 3840, Note_on_c, 0, 65, 80
1, 4079, Note_on_c, 0, 65, 0
1, 4080, Note_on_c, 0, 60, 80
1, 4080, Control_c, 0, 2, 80
1, 4319, Note_on_c, 0, 60, 0
1, 4320, Note_on_c, 0, 65, 80
1, 4559, Note_on_c, 0, 65, 0
1, 4560, Note_on_c, 0, 60, 80
1, 4799, Note_on_c, 0, 60, 0
1, 4800, Note_on_c, 0, 65, 80
1, 5039, Note_on_c, 0, 65, 0
1, 5040, Note_on_c, 0, 60, 80
1, 5279, Note_on_c, 0, 60, 0
1, 5280, Note_on_c, 0, 65, 80
1, 5519, Note_on_c, 0, 65, 0
1, 5520, Note_on_c, 0, 60, 80
1, 5759, Note_on_c, 0, 60, 0
1, 5760, Note_on_c, 0, 65, 80
1, 5999, Note_on_c, 0, 65, 0
1, 6000, Note_on_c, 0, 60, 80
1, 6000, Control_c, 0, 2, 80
1, 6239, Note_on_c, 0, 60, 0
1, 6240, Note_on_c, 0, 65, 80
1, 6479, Note_on_c, 0, 65, 0
1, 6480, Note_on_c, 0, 60, 80
1, 6719, Note_on_c, 0, 60, 0
1, 6720, Note_on_c, 0, 65, 80
1, 6959, Note_on_c, 0, 65, 0
1, 6960, Note_on_c, 0, 60, 80
1, 7199, Note_on_c, 0, 60, 0
1, 7200, Note_on_c, 0, 65, 80
1, 7439, Note_on_c, 0, 65, 0
1, 7440, Note_on_c, 0, 60, 80
1, 7679, Note_on_c, 0, 60, 0
1, 7680, Note_on_c, 0, 64, 80
1, 7919, Note_on_c, 0, 64, 0
1, 7920, Note_on_c, 0, 60, 80
1, 7920, Control_c, 0, 2, 80
1, 8159, Note_on_c, 0, 60, 0
1, 8160, Note_on_c, 0, 64, 80
1, 8399, Note_on_c, 0, 64, 0
1, 8400, Note_on_c, 0, 60, 80
1, 8639, Note_on_c, 0, 60, 0
1, 8640, Note_on_c, 0, 64, 80
1, 8879, Note_on_c, 0, 64, 0
1, 8880, Note_on_c, 0, 60, 80
1, 9119, Note_on_c, 0, 60, 0
1, 9120, Note_on_c, 0, 64, 80
1, 9359, Note_on_c, 0, 64, 0
1, 9360, Note_on_c, 0, 60, 80
1, 9599, Note_on_c, 0, 60, 0
1, 9600, Note_on_c, 0, 64, 80
1, 9839, Note_on_c, 0, 64, 0
1, 9840, Note_on_c, 0, 60, 80
1, 9840, Control_c, 0, 2, 80
1, 10079, Note_on_c, 0, 60, 0
1, 10080, Note_on_c, 0, 64, 80
1, 10319, Note_on_c, 0, 64, 0
1, 10320, Note_on_c, 0, 60, 80
1, 10559, Note_on_c, 0, 60, 0
1, 10560, Note_on_c, 0, 64, 80
1, 10799, Note_on_c, 0, 64, 0
1, 10800, Note_on_c, 0, 60, 80
1, 11039, Note_on_c, 0, 60, 0
1, 11040, Note_on_c, 0, 64, 80
1, 11279, Note_on_c, 0, 64, 0
1, 11280, Note_on_c, 0, 60, 80
1, 11519, Note_on_c, 0, 60, 0
1, 11520, Note_on_c, 0, 64, 80
1, 11759, Note_on_c, 0, 64, 0
1, 11760, Note_on_c, 0, 59, 80
1, 11760, Control_c, 0, 2, 80
1, 11999, Note_on_c, 0, 59, 0
1, 12000, Note_on_c, 0, 64, 80
1, 12239, Note_on_c, 0, 64, 0
1, 12240, Note_on_c, 0, 59, 80
1, 12479, Note_on_c, 0, 59, 0
1, 12480, Note_on_c, 0, 64, 80
1, 12719, Note_on_c, 0, 64, 0
1, 12720, Note_on_c, 0, 59, 80
1, 12959, Note_on_c, 0, 59, 0
1, 12960, Note_on_c, 0, 64, 80
1, 13199, Note_on_c, 0, 64, 0
1, 13200, Note_on_c, 0, 59, 80
1, 13439, Note_on_c, 0, 59, 0
1, 13440, Note_on_c, 0, 64, 80
1, 13679, Note_on_c, 0, 64, 0
1, 13680, Note_on_c, 0, 59, 80
1, 13919, Note_on_c, 0, 59, 0
1, 13920, Note_on_c, 0, 64, 80
1, 14159, Note_on_c, 0, 64, 0
1, 14160, Note_on_c, 0, 59, 80
1, 14399, Note_on_c, 0, 59, 0
1, 14400, Note_on_c, 0, 62, 80
1, 14639, Note_on_c, 0, 62, 0
1, 14640, Note_on_c, 0, 59, 80
1, 14879, Note_on_c, 0, 59, 0
1, 14880, Note_on_c, 0, 64, 80
1, 15119, Note_on_c, 0, 64, 0
1, 15120, Note_on_c, 0, 59, 80
1, 15359, Note_on_c, 0, 59, 0
1, 15360, Note_on_c, 0, 64, 80
1, 15599, Note_on_c, 0, 64, 0
1, 15600, Note_on_c, 0, 60, 80
1, 15600, Control_c, 0, 2, 80
1, 15839, Note_on_c, 0, 60, 0
1, 15840, Note_on_c, 0, 64, 80
1, 16079, Note_on_c, 0, 64, 0
1, 16080, Note_on_c, 0, 60, 80
1, 16319, Note_on_c, 0, 60, 0
1, 16320, Note_on_c, 0, 64, 80
1, 16559, Note_on_c, 0, 64, 0
1, 16560, Note_on_c, 0, 60, 80
1, 16560, Control_c, 0, 2, 80
1, 16799, Note_on_c, 0, 60, 0
1, 16800, Note_on_c, 0, 64, 80
1, 17039, Note_on_c, 0, 64, 0
1, 17040, Note_on_c, 0, 60, 80
1, 17279, Note_on_c, 0, 60, 0
1, 17280, Note_on_c, 0, 64, 80
1, 17519, Note_on_c, 0, 64, 0
1, 17520, Note_on_c, 0, 60, 80
1, 17520, Control_c, 0, 2, 80
1, 17759, Note_on_c, 0, 60, 0
1, 17760, Note_on_c, 0, 64, 80
1, 17999, Note_on_c, 0, 64, 0
1, 18000, Note_on_c, 0, 60, 80
1, 18239, Note_on_c, 0, 60, 0
1, 18240, Note_on_c, 0, 64, 80
1, 18479, Note_on_c, 0, 64, 0
1, 18480, Note_on_c, 0, 60, 80
1, 18480, Control_c, 0, 2, 80
1, 18719, Note_on_c, 0, 60, 0
1, 18720, Note_on_c, 0, 64, 80
1, 18959, Note_on_c, 0, 64, 0
1, 18960, Note_on_c, 0, 60, 80
1, 19199, Note_on_c, 0, 60, 0
1, 19200, Note_on_c, 0, 65, 80
1, 19439, Note_on_c, 0, 65, 0
1, 19440, Note_on_c, 0, 60, 80
1, 19440, Control_c, 0, 2, 80
1, 19679, Note_on_c, 0, 60, 0
1, 19680, Note_on_c, 0, 65, 80
1, 19919, Note_on_c, 0, 65, 0
1, 19920, Note_on_c, 0, 60, 80
1, 20159, Note_on_c, 0, 60, 0
1, 20160, Note_on_c, 0, 65, 80
1, 20399, Note_on_c, 0, 65, 0
1, 20400, Note_on_c, 0, 60, 80
1, 20400, Control_c, 0, 2, 80
1, 20639, Note_on_c, 0, 60, 0
1, 20640, Note_on_c, 0, 65, 80
1, 20879, Note_on_c, 0, 65, 0
1, 20880, Note_on_c, 0, 60, 80
1, 21119, Note_on_c, 0, 60, 0
1, 21120, Note_on_c, 0, 65, 80
1, 21359, Note_on_c, 0, 65, 0
1, 21360, Note_on_c, 0, 60, 80
1, 21360, Control_c, 0, 2, 80
1, 21599, Note_on_c, 0, 60, 0
1, 21600, Note_on_c, 0, 65, 80
1, 21839, Note_on_c, 0, 65, 0
1, 21840, Note_on_c, 0, 60, 80
1, 22079, Note_on_c, 0, 60, 0
1, 22080, Note_on_c, 0, 65, 80
1, 22319, Note_on_c, 0, 65, 0
1, 22320, Note_on_c, 0, 60, 80
1, 22320, Control_c, 0, 2, 80
1, 22559, Note_on_c, 0, 60, 0
1, 22560, Note_on_c, 0, 65, 80
1, 22799, Note_on_c, 0, 65, 0
1, 22800, Note_on_c, 0, 60, 80
1, 23039, Note_on_c, 0, 60, 0
1, 23040, Note_on_c, 0, 60, 80
1, 23040, Note_on_c, 0, 67, 80
1, 23279, Note_on_c, 0, 60, 0
1, 23279, Note_on_c, 0, 67, 0
1, 23280, Note_on_c, 0, 64, 80
1, 23280, Control_c, 0, 2, 80
1, 23519, Note_on_c, 0, 64, 0
1, 23520, Note_on_c, 0, 60, 80
1, 23520, Note_on_c, 0, 67, 80
1, 23759, Note_on_c, 0, 60, 0
1, 23759, Note_on_c, 0, 67, 0
1, 23760, Note_on_c, 0, 64, 80
1, 23999, Note_on_c, 0, 64, 0
1, 24000, Note_on_c, 0, 60, 80
1, 24000, Note_on_c, 0, 67, 80
1, 24239, Note_on_c, 0, 60, 0
1, 24239, Note_on_c, 0, 67, 0
1, 24240, Note_on_c, 0, 64, 80
1, 24240, Control_c, 0, 2, 80
1, 24479, Note_on_c, 0, 64, 0
1, 24480, Note_on_c, 0, 60, 80
1, 24480, Note_on_c, 0, 67, 80
1, 24719, Note_on_c, 0, 60, 0
1, 24719, Note_on_c, 0, 67, 0
1, 24720, Note_on_c, 0, 64, 80
1, 24959, Note_on_c, 0, 64, 0
1, 24960, Note_on_c, 0, 60, 80
1, 24960, Note_on_c, 0, 67, 80
1, 25199, Note_on_c, 0, 60, 0
1, 25199, Note_on_c, 0, 67, 0
1, 25200, Note_on_c, 0, 64, 80
1, 25200, Control_c, 0, 2, 80
1, 25439, Note_on_c, 0, 64, 0
1, 25440, Note_on_c, 0, 60, 80
1, 25440, Note_on_c, 0, 67, 80
1, 25679, Note_on_c, 0, 60, 0
1, 25679, Note_on_c, 0, 67, 0
1, 25680, Note_on_c, 0, 64, 80
1, 25919, Note_on_c, 0, 64, 0
1, 25920, Note_on_c, 0, 60, 80
1, 25920, Note_on_c, 0, 67, 80
1, 26159, Note_on_c, 0, 60, 0
1, 26159, Note_on_c, 0, 67, 0
1, 26160, Note_on_c, 0, 64, 80
1, 26160, Control_c, 0, 2, 80
1, 26399, Note_on_c, 0, 64, 0
1, 26400, Note_on_c, 0, 60, 80
1, 26400, Note_on_c, 0, 67, 80
1, 26639, Note_on_c, 0, 60, 0
1, 26639, Note_on_c, 0, 67, 0
1, 26640, Note_on_c, 0, 64, 80
1, 26879, Note_on_c, 0, 64, 0
1, 26880, Note_on_c, 0, 62, 80
1, 26880, Note_on_c, 0, 71, 80
1, 27119, Note_on_c, 0, 62, 0
1, 27119, Note_on_c, 0, 71, 0
1, 27120, Note_on_c, 0, 67, 80
1, 27120, Control_c, 0, 2, 80
1, 27359, Note_on_c, 0, 67, 0
1, 27360, Note_on_c, 0, 62, 80
1, 27360, Note_on_c, 0, 71, 80
1, 27599, Note_on_c, 0, 62, 0
1, 27599, Note_on_c, 0, 71, 0
1, 27600, Note_on_c, 0, 67, 80
1, 27839, Note_on_c, 0, 67, 0
1, 27840, Note_on_c, 0, 62, 80
1, 27840, Note_on_c, 0, 71, 80
1, 28079, Note_on_c, 0, 62, 0
1, 28079, Note_on_c, 0, 71, 0
1, 28080, Note_on_c, 0, 67, 80
1, 28080, Control_c, 0, 2, 80
1, 28319, Note_on_c, 0, 67, 0
1, 28320, Note_on_c, 0, 62, 80
1, 28320, Note_on_c, 0, 71, 80
1, 28559, Note_on_c, 0, 62, 0
1, 28559, Note_on_c, 0, 71, 0
1, 28560, Note_on_c, 0, 67, 80
1, 28799, Note_on_c, 0, 67, 0
1, 28800, Note_on_c, 0, 62, 80
1, 28800, Note_on_c, 0, 71, 80
1, 29039, Note_on_c, 0, 62, 0
1, 29039, Note_on_c, 0, 71, 0
1, 29040, Note_on_c, 0, 67, 80
1, 29040, Control_c, 0, 2, 80
1, 29279, Note_on_c, 0, 67, 0
1, 29280, Note_on_c, 0, 62, 80
1, 29280, Note_on_c, 0, 71, 80
1, 29519, Note_on_c, 0, 62, 0
1, 29519, Note_on_c, 0, 71, 0
1, 29520, Note_on_c, 0, 67, 80
1, 29759, Note_on_c, 0, 67, 0
1, 29760, Note_on_c, 0, 62, 80
1, 29760, Note_on_c, 0, 71, 80
1, 29999, Note_on_c, 0, 62, 0
1, 29999, Note_on_c, 0, 71, 0
1, 30000, Note_on_c, 0, 67, 80
1, 30000, Control_c, 0, 2, 80
1, 30239, Note_on_c, 0, 67, 0
1, 30240, Note_on_c, 0, 62, 80
1, 30240, Note_on_c, 0, 71, 80
1, 30479, Note_on_c, 0, 62, 0
1, 30479, Note_on_c, 0, 71, 0
1, 30480, Note_on_c, 0, 67, 80
1, 30719, Note_on_c, 0, 67, 0
1, 30720, Note_on_c, 0, 64, 80
1, 30720, Note_on_c, 0, 72, 80
1, 30720, Note_on_c, 0, 79, 80
1, 30959, Note_on_c, 0, 64, 0
1, 30959, Note_on_c, 0, 72, 0
1, 30959, Note_on_c, 0, 79, 0
1, 30960, Note_on_c, 0, 69, 80
1, 30960, Control_c, 0, 2, 80
1, 31199, Note_on_c, 0, 69, 0
1, 31200, Note_on_c, 0, 64, 80
1, 31200, Note_on_c, 0, 72, 80
1, 31439, Note_on_c, 0, 64, 0
1, 31439, Note_on_c, 0, 72, 0
1, 31440, Note_on_c, 0, 69, 80
1, 31679, Note_on_c, 0, 69, 0
1, 31680, Note_on_c, 0, 64, 80
1, 31680, Note_on_c, 0, 72, 80
1, 31919, Note_on_c, 0, 64, 0
1, 31919, Note_on_c, 0, 72, 0
1, 31920, Note_on_c, 0, 69, 80
1, 31920, Control_c, 0, 2, 80
1, 32159, Note_on_c, 0, 69, 0
1, 32160, Note_on_c, 0, 64, 80
1, 32160, Note_on_c, 0, 72, 80
1, 32399, Note_on_c, 0, 64, 0
1, 32399, Note_on_c, 0, 72, 0
1, 32400, Note_on_c, 0, 69, 80
1, 32639, Note_on_c, 0, 69, 0
1, 32640, Note_on_c, 0, 64, 80
1, 32640, Control_c, 0, 2, 80
1, 32640, Note_on_c, 0, 72, 80
1, 32879, Note_on_c, 0, 64, 0
1, 32879, Note_on_c, 0, 72, 0
1, 32880, Note_on_c, 0, 69, 80
1, 32880, Control_c, 0, 2, 80
1, 33119, Note_on_c, 0, 69, 0
1, 33120, Note_on_c, 0, 64, 80
1, 33120, Note_on_c, 0, 72, 80
1, 33359, Note_on_c, 0, 64, 0
1, 33359, Note_on_c, 0, 72, 0
1, 33360, Note_on_c, 0, 69, 80
1, 33599, Note_on_c, 0, 69, 0
1, 33600, Note_on_c, 0, 64, 80
1, 33600, Note_on_c, 0, 72, 80
1, 33839, Note_on_c, 0, 64, 0
1, 33839, Note_on_c, 0, 72, 0
1, 33840, Note_on_c, 0, 69, 80
1, 33840, Control_c, 0, 2, 80
1, 34079, Note_on_c, 0, 69, 0
1, 34080, Note_on_c, 0, 64, 80
1, 34080, Control_c, 0, 2, 80
1, 34080, Note_on_c, 0, 72, 80
1, 34319, Note_on_c, 0, 64, 0
1, 34319, Note_on_c, 0, 72, 0
1, 34320, Note_on_c, 0, 69, 80
1, 34320, Control_c, 0, 2, 80
1, 34559, Note_on_c, 0, 69, 0
1, 34560, Note_on_c, 0, 65, 80
1, 34560, Note_on_c, 0, 72, 80
1, 34560, Note_on_c, 0, 79, 80
1, 34799, Note_on_c, 0, 65, 0
1, 34799, Note_on_c, 0, 72, 0
1, 34799, Note_on_c, 0, 79, 0
1, 34800, Note_on_c, 0, 69, 80
1, 34800, Control_c, 0, 2, 80
1, 35039, Note_on_c, 0, 69, 0
1, 35040, Note_on_c, 0, 65, 80
1, 35040, Note_on_c, 0, 72, 80
1, 35279, Note_on_c, 0, 65, 0
1, 35279, Note_on_c, 0, 72, 0
1, 35280, Note_on_c, 0, 69, 80
1, 35519, Note_on_c, 0, 69, 0
1, 35520, Note_on_c, 0, 65, 80
1, 35520, Note_on_c, 0, 72, 80
1, 35759, Note_on_c, 0, 65, 0
1, 35759, Note_on_c, 0, 72, 0
1, 35760, Note_on_c, 0, 69, 80
1, 35760, Control_c, 0, 2, 80
1, 35999, Note_on_c, 0, 69, 0
1, 36000, Note_on_c, 0, 65, 80
1, 36000, Note_on_c, 0, 72, 80
1, 36239, Note_on_c, 0, 65, 0
1, 36239, Note_on_c, 0, 72, 0
1, 36240, Note_on_c, 0, 69, 80
1, 36479, Note_on_c, 0, 69, 0
1, 36480, Note_on_c, 0, 65, 80
1, 36480, Control_c, 0, 2, 80
1, 36480, Note_on_c, 0, 72, 80
1, 36719, Note_on_c, 0, 65, 0
1, 36719, Note_on_c, 0, 72, 0
1, 36720, Note_on_c, 0, 69, 80
1, 36720, Control_c, 0, 2, 80
1, 36959, Note_on_c, 0, 69, 0
1, 36960, Note_on_c, 0, 65, 80
1, 36960, Note_on_c, 0, 72, 80
1, 37199, Note_on_c, 0, 65, 0
1, 37199, Note_on_c, 0, 72, 0
1, 37200, Note_on_c, 0, 69, 80
1, 37439, Note_on_c, 0, 69, 0
1, 37440, Note_on_c, 0, 65, 80
1, 37440, Note_on_c, 0, 72, 80
1, 37679, Note_on_c, 0, 65, 0
1, 37679, Note_on_c, 0, 72, 0
1, 37680, Note_on_c, 0, 69, 80
1, 37680, Control_c, 0, 2, 80
1, 37919, Note_on_c, 0, 69, 0
1, 37920, Note_on_c, 0, 65, 80
1, 37920, Control_c, 0, 2, 80
1, 37920, Note_on_c, 0, 72, 80
1, 38159, Note_on_c, 0, 65, 0
1, 38159, Note_on_c, 0, 72, 0
1, 38160, Note_on_c, 0, 69, 80
1, 38160, Control_c, 0, 2, 80
1, 38399, Note_on_c, 0, 69, 0
1, 38400, Note_on_c, 0, 67, 80
1, 38400, Note_on_c, 0, 76, 80
1, 38400, Note_on_c, 0, 79, 80
1, 38639, Note_on_c, 0, 67, 0
1, 38639, Note_on_c, 0, 76, 0
1, 38639, Note_on_c, 0, 79, 0
1, 38640, Note_on_c, 0, 72, 80
1, 38640, Control_c, 0, 2, 80
1, 38879, Note_on_c, 0, 72, 0
1, 38880, Note_on_c, 0, 67, 80
1, 38880, Note_on_c, 0, 76, 80
1, 39119, Note_on_c, 0, 67, 0
1, 39119, Note_on_c, 0, 76, 0
1, 39120, Note_on_c, 0, 72, 80
1, 39359, Note_on_c, 0, 72, 0
1, 39360, Note_on_c, 0, 67, 80
1, 39360, Note_on_c, 0, 76, 80
1, 39599, Note_on_c, 0, 67, 0
1, 39599, Note_on_c, 0, 76, 0
1, 39600, Note_on_c, 0, 72, 80
1, 39600, Control_c, 0, 2, 80
1, 39839, Note_on_c, 0, 72, 0
1, 39840, Note_on_c, 0, 67, 80
1, 39840, Note_on_c, 0, 76, 80
1, 40079, Note_on_c, 0, 67, 0
1, 40079, Note_on_c, 0, 76, 0
1, 40080, Note_on_c, 0, 72, 80
1, 40319, Note_on_c, 0, 72, 0
1, 40320, Note_on_c, 0, 67, 80
1, 40320, Control_c, 0, 2, 80
1, 40320, Note_on_c, 0, 76, 80
1, 40559, Note_on_c, 0, 67, 0
1, 40559, Note_on_c, 0, 76, 0
1, 40560, Note_on_c, 0, 72, 80
1, 40560, Control_c, 0, 2, 80
1, 40799, Note_on_c, 0, 72, 0
1, 40800, Note_on_c, 0, 67, 80
1, 40800, Note_on_c, 0, 76, 80
1, 41039, Note_on_c, 0, 67, 0
1, 41039, Note_on_c, 0, 76, 0
1, 41040, Note_on_c, 0, 72, 80
1, 41279, Note_on_c, 0, 72, 0
1, 41280, Note_on_c, 0, 67, 80
1, 41280, Note_on_c, 0, 76, 80
1, 41519, Note_on_c, 0, 67, 0
1, 41519, Note_on_c, 0, 76, 0
1, 41520, Note_on_c, 0, 72, 80
1, 41520, Control_c, 0, 2, 80
1, 41759, Note_on_c, 0, 72, 0
1, 41760, Note_on_c, 0, 67, 80
1, 41760, Control_c, 0, 2, 80
1, 41760, Note_on_c, 0, 76, 80
1, 41999, Note_on_c, 0, 67, 0
1, 41999, Note_on_c, 0, 76, 0
1, 42000, Note_on_c, 0, 72, 80
1, 42000, Control_c, 0, 2, 80
1, 42239, Note_on_c, 0, 72, 0
1, 42240, Note_on_c, 0, 67, 80
1, 42240, Note_on_c, 0, 76, 80
1, 42240, Note_on_c, 0, 79, 80
1, 42479, Note_on_c, 0, 67, 0
1, 42479, Note_on_c, 0, 76, 0
1, 42479, Note_on_c, 0, 79, 0
1, 42480, Note_on_c, 0, 71, 80
1, 42480, Control_c, 0, 2, 80
1, 42719, Note_on_c, 0, 71, 0
1, 42720, Note_on_c, 0, 67, 80
1, 42720, Note_on_c, 0, 76, 80
1, 42959, Note_on_c, 0, 67, 0
1, 42959, Note_on_c, 0, 76, 0
1, 42960, Note_on_c, 0, 71, 80
1, 43199, Note_on_c, 0, 71, 0
1, 43200, Note_on_c, 0, 67, 80
1, 43200, Note_on_c, 0, 76, 80
1, 43439, Note_on_c, 0, 67, 0
1, 43439, Note_on_c, 0, 76, 0
1, 43440, Note_on_c, 0, 71, 80
1, 43440, Control_c, 0, 2, 80
1, 43679, Note_on_c, 0, 71, 0
1, 43680, Note_on_c, 0, 67, 80
1, 43680, Note_on_c, 0, 76, 80
1, 43919, Note_on_c, 0, 67, 0
1, 43919, Note_on_c, 0, 76, 0
1, 43920, Note_on_c, 0, 71, 80
1, 43920, Control_c, 0, 2, 80
1, 44159, Note_on_c, 0, 71, 0
1, 44160, Note_on_c, 0, 67, 80
1, 44160, Note_on_c, 0, 76, 80
1, 44399, Note_on_c, 0, 67, 0
1, 44399, Note_on_c, 0, 76, 0
1, 44400, Note_on_c, 0, 71, 80
1, 44400, Control_c, 0, 2, 80
1, 44639, Note_on_c, 0, 71, 0
1, 44640, Note_on_c, 0, 67, 80
1, 44640, Note_on_c, 0, 76, 80
1, 44879, Note_on_c, 0, 67, 0
1, 44879, Note_on_c, 0, 76, 0
1, 44880, Note_on_c, 0, 71, 80
1, 45119, Note_on_c, 0, 71, 0
1, 45120, Note_on_c, 0, 67, 80
1, 45120, Note_on_c, 0, 76, 80
1, 45359, Note_on_c, 0, 67, 0
1, 45359, Note_on_c, 0, 76, 0
1, 45360, Note_on_c, 0, 71, 80
1, 45360, Control_c, 0, 2, 80
1, 45599, Note_on_c, 0, 71, 0
1, 45600, Note_on_c, 0, 67, 80
1, 45600, Control_c, 0, 2, 80
1, 45600, Note_on_c, 0, 76, 80
1, 45839, Note_on_c, 0, 67, 0
1, 45839, Note_on_c, 0, 76, 0
1, 45840, Note_on_c, 0, 71, 80
1, 45840, Control_c, 0, 2, 80
1, 46079, Note_on_c, 0, 71, 0
1, 46080, Note_on_c, 0, 69, 80
1, 46080, Control_c, 0, 2, 80
1, 46080, Note_on_c, 0, 76, 80
1, 46319, Note_on_c, 0, 69, 0
1, 46319, Note_on_c, 0, 76, 0
1, 46320, Note_on_c, 0, 72, 80
1, 46320, Control_c, 0, 2, 80
1, 46559, Note_on_c, 0, 72, 0
1, 46560, Note_on_c, 0, 69, 80
1, 46560, Control_c, 0, 2, 80
1, 46560, Note_on_c, 0, 76, 80
1, 46799, Note_on_c, 0, 69, 0
1, 46799, Note_on_c, 0, 76, 0
1, 46800, Note_on_c, 0, 72, 80
1, 46800, Control_c, 0, 2, 80
1, 47039, Note_on_c, 0, 72, 0
1, 47040, Note_on_c, 0, 69, 80
1, 47040, Note_on_c, 0, 76, 80
1, 47279, Note_on_c, 0, 69, 0
1, 47279, Note_on_c, 0, 76, 0
1, 47280, Note_on_c, 0, 72, 80
1, 47280, Control_c, 0, 2, 80
1, 47519, Note_on_c, 0, 72, 0
1, 47520, Note_on_c, 0, 69, 80
1, 47520, Note_on_c, 0, 76, 80
1, 47759, Note_on_c, 0, 69, 0
1, 47759, Note_on_c, 0, 76, 0
1, 47760, Note_on_c, 0, 72, 80
1, 47760, Control_c, 0, 2, 80
1, 47999, Note_on_c, 0, 72, 0
1, 48000, Note_on_c, 0, 69, 80
1, 48000, Note_on_c, 0, 76, 80
1, 48239, Note_on_c, 0, 69, 0
1, 48239, Note_on_c, 0, 76, 0
1, 48240, Note_on_c, 0, 72, 80
1, 48240, Control_c, 0, 2, 80
1, 48479, Note_on_c, 0, 72, 0
1, 48480, Note_on_c, 0, 69, 80
1, 48480, Control_c, 0, 2, 80
1, 48480, Note_on_c, 0, 76, 80
1, 48719, Note_on_c, 0, 69, 0
1, 48719, Note_on_c, 0, 76, 0
1, 48720, Note_on_c, 0, 72, 80
1, 48720, Control_c, 0, 2, 80
1, 48959, Note_on_c, 0, 72, 0
1, 48960, Note_on_c, 0, 69, 80
1, 48960, Note_on_c, 0, 76, 80
1, 49199, Note_on_c, 0, 69, 0
1, 49199, Note_on_c, 0, 76, 0
1, 49200, Note_on_c, 0, 72, 80
1, 49200, Control_c, 0, 2, 80
1, 49439, Note_on_c, 0, 72, 0
1, 49440, Note_on_c, 0, 69, 80
1, 49440, Control_c, 0, 2, 80
1, 49440, Note_on_c, 0, 76, 80
1, 49679, Note_on_c, 0, 69, 0
1, 49679, Note_on_c, 0, 76, 0
1, 49680, Note_on_c, 0, 72, 80
1, 49680, Control_c, 0, 2, 80
1, 49919, Note_on_c, 0, 72, 0
1, 49920, Note_on_c, 0, 69, 80
1, 49920, Control_c, 0, 2, 80
1, 49920, Note_on_c, 0, 77, 80
1, 50159, Note_on_c, 0, 69, 0
1, 50159, Note_on_c, 0, 77, 0
1, 50160, Note_on_c, 0, 72, 80
1, 50160, Control_c, 0, 2, 80
1, 50399, Note_on_c, 0, 72, 0
1, 50400, Note_on_c, 0, 69, 80
1, 50400, Control_c, 0, 2, 80
1, 50400, Note_on_c, 0, 77, 80
1, 50639, Note_on_c, 0, 69, 0
1, 50639, Note_on_c, 0, 77, 0
1, 50640, Note_on_c, 0, 72, 80
1, 50640, Control_c, 0, 2, 80
1, 50879, Note_on_c, 0, 72, 0
1, 50880, Note_on_c, 0, 69, 80
1, 50880, Note_on_c, 0, 77, 80
1, 51119, Note_on_c, 0, 69, 0
1, 51119, Note_on_c, 0, 77, 0
1, 51120, Note_on_c, 0, 72, 80
1, 51120, Control_c, 0, 2, 80
1, 51359, Note_on_c, 0, 72, 0
1, 51360, Note_on_c, 0, 69, 80
1, 51360, Note_on_c, 0, 77, 80
1, 51599, Note_on_c, 0, 69, 0
1, 51599, Note_on_c, 0, 77, 0
1, 51600, Note_on_c, 0, 72, 80
1, 51600, Control_c, 0, 2, 80
1, 51839, Note_on_c, 0, 72, 0
1, 51840, Note_on_c, 0, 69, 80
1, 51840, Note_on_c, 0, 77, 80
1, 52079, Note_on_c, 0, 69, 0
1, 52079, Note_on_c, 0, 77, 0
1, 52080, Note_on_c, 0, 72, 80
1, 52080, Control_c, 0, 2, 80
1, 52319, Note_on_c, 0, 72, 0
1, 52320, Note_on_c, 0, 69, 80
1, 52320, Control_c, 0, 2, 80
1, 52320, Note_on_c, 0, 77, 80
1, 52559, Note_on_c, 0, 69, 0
1, 52559, Note_on_c, 0, 77, 0
1, 52560, Note_on_c, 0, 72, 80
1, 52560, Control_c, 0, 2, 80
1, 52799, Note_on_c, 0, 72, 0
1, 52800, Note_on_c, 0, 69, 80
1, 52800, Note_on_c, 0, 77, 80
1, 53039, Note_on_c, 0, 69, 0
1, 53039, Note_on_c, 0, 77, 0
1, 53040, Note_on_c, 0, 72, 80
1, 53040, Control_c, 0, 2, 80
1, 53279, Note_on_c, 0, 72, 0
1, 53280, Note_on_c, 0, 69, 80
1, 53280, Control_c, 0, 2, 80
1, 53280, Note_on_c, 0, 77, 80
1, 53519, Note_on_c, 0, 69, 0
1, 53519, Note_on_c, 0, 77, 0
1, 53520, Note_on_c, 0, 72, 80
1, 53520, Control_c, 0, 2, 80
1, 53759, Note_on_c, 0, 72, 0
1, 53760, Note_on_c, 0, 72, 80
1, 53760, Control_c, 0, 2, 80
1, 53760, Note_on_c, 0, 79, 80
1, 53999, Note_on_c, 0, 72, 0
1, 53999, Note_on_c, 0, 79, 0
1, 54000, Note_on_c, 0, 76, 80
1, 54000, Control_c, 0, 2, 80
1, 54239, Note_on_c, 0, 76, 0
1, 54240, Note_on_c, 0, 72, 80
1, 54240, Control_c, 0, 2, 80
1, 54240, Note_on_c, 0, 79, 80
1, 54479, Note_on_c, 0, 72, 0
1, 54479, Note_on_c, 0, 79, 0
1, 54480, Note_on_c, 0, 76, 80
1, 54480, Control_c, 0, 2, 80
1, 54719, Note_on_c, 0, 76, 0
1, 54720, Note_on_c, 0, 72, 80
1, 54720, Note_on_c, 0, 79, 80
1, 54959, Note_on_c, 0, 72, 0
1, 54959, Note_on_c, 0, 79, 0
1, 54960, Note_on_c, 0, 76, 80
1, 54960, Control_c, 0, 2, 80
1, 55199, Note_on_c, 0, 76, 0
1, 55200, Note_on_c, 0, 72, 80
1, 55200, Note_on_c, 0, 79, 80
1, 55439, Note_on_c, 0, 72, 0
1, 55439, Note_on_c, 0, 79, 0
1, 55440, Note_on_c, 0, 76, 80
1, 55440, Control_c, 0, 2, 80
1, 55679, Note_on_c, 0, 76, 0
1, 55680, Note_on_c, 0, 72, 80
1, 55680, Note_on_c, 0, 79, 80
1, 55919, Note_on_c, 0, 72, 0
1, 55919, Note_on_c, 0, 79, 0
1, 55920, Note_on_c, 0, 76, 80
1, 55920, Control_c, 0, 2, 80
1, 56159, Note_on_c, 0, 76, 0
1, 56160, Note_on_c, 0, 72, 80
1, 56160, Control_c, 0, 2, 80
1, 56160, Note_on_c, 0, 79, 80
1, 56399, Note_on_c, 0, 72, 0
1, 56399, Note_on_c, 0, 79, 0
1, 56400, Note_on_c, 0, 76, 80
1, 56400, Control_c, 0, 2, 80
1, 56639, Note_on_c, 0, 76, 0
1, 56640, Note_on_c, 0, 72, 80
1, 56640, Note_on_c, 0, 79, 80
1, 56879, Note_on_c, 0, 72, 0
1, 56879, Note_on_c, 0, 79, 0
1, 56880, Note_on_c, 0, 76, 80
1, 56880, Control_c, 0, 2, 80
1, 57119, Note_on_c, 0, 76, 0
1, 57120, Note_on_c, 0, 72, 80
1, 57120, Control_c, 0, 2, 80
1, 57120, Note_on_c, 0, 79, 80
1, 57359, Note_on_c, 0, 72, 0
1, 57359, Note_on_c, 0, 79, 0
1, 57360, Note_on_c, 0, 76, 80
1, 57360, Control_c, 0, 2, 80
1, 57599, Note_on_c, 0, 76, 0
1, 57600, Note_on_c, 0, 71, 80
1, 57600, Control_c, 0, 2, 80
1, 57600, Note_on_c, 0, 79, 80
1, 57839, Note_on_c, 0, 71, 0
1, 57839, Note_on_c, 0, 79, 0
1, 57840, Note_on_c, 0, 76, 80
1, 57840, Control_c, 0, 2, 80
1, 58079, Note_on_c, 0, 76, 0
1, 58080, Note_on_c, 0, 71, 80
1, 58080, Control_c, 0, 2, 80
1, 58080, Note_on_c, 0, 79, 80
1, 58319, Note_on_c, 0, 71, 0
1, 58319, Note_on_c, 0, 79, 0
1, 58320, Note_on_c, 0, 76, 80
1, 58320, Control_c, 0, 2, 80
1, 58559, Note_on_c, 0, 76, 0
1, 58560, Note_on_c, 0, 71, 80
1, 58560, Note_on_c, 0, 79, 80
1, 58799, Note_on_c, 0, 71, 0
1, 58799, Note_on_c, 0, 79, 0
1, 58800, Note_on_c, 0, 76, 80
1, 58800, Control_c, 0, 2, 80
1, 59039, Note_on_c, 0, 76, 0
1, 59040, Note_on_c, 0, 71, 80
1, 59040, Note_on_c, 0, 79, 80
1, 59279, Note_on_c, 0, 71, 0
1, 59279, Note_on_c, 0, 79, 0
1, 59280, Note_on_c, 0, 76, 80
1, 59280, Control_c, 0, 2, 80
1, 59519, Note_on_c, 0, 76, 0
1, 59520, Note_on_c, 0, 71, 80
1, 59520, Note_on_c, 0, 83, 80
1, 59759, Note_on_c, 0, 71, 0
1, 59759, Note_on_c, 0, 83, 0
1, 59760, Note_on_c, 0, 76, 80
1, 59760, Control_c, 0, 2, 80
1, 59999, Note_on_c, 0, 76, 0
1, 60000, Note_on_c, 0, 71, 80
1, 60000, Control_c, 0, 2, 80
1, 60000, Note_on_c, 0, 83, 80
1, 60239, Note_on_c, 0, 71, 0
1, 60239, Note_on_c, 0, 83, 0
1, 60240, Note_on_c, 0, 76, 80
1, 60240, Control_c, 0, 2, 80
1, 60479, Note_on_c, 0, 76, 0
1, 60480, Note_on_c, 0, 71, 80
1, 60480, Note_on_c, 0, 79, 80
1, 60719, Note_on_c, 0, 71, 0
1, 60719, Note_on_c, 0, 79, 0
1, 60720, Note_on_c, 0, 76, 80
1, 60720, Control_c, 0, 2, 80
1, 60959, Note_on_c, 0, 76, 0
1, 60960, Note_on_c, 0, 71, 80
1, 60960, Note_on_c, 0, 79, 80
1, 61199, Note_on_c, 0, 71, 0
1, 61199, Note_on_c, 0, 79, 0
1, 61200, Note_on_c, 0, 76, 80
1, 61200, Control_c, 0, 2, 80
1, 61439, Note_on_c, 0, 76, 0
1, 61440, Note_on_c, 0, 64, 80
1, 61440, Note_on_c, 0, 72, 80
1, 61679, Note_on_c, 0, 64, 0
1, 61679, Note_on_c, 0, 72, 0
1, 61680, Note_on_c, 0, 69, 80
1, 61680, Control_c, 0, 2, 80
1, 61919, Note_on_c, 0, 69, 0
1, 61920, Note_on_c, 0, 64, 80
1, 61920, Control_c, 0, 2, 80
1, 61920, Note_on_c, 0, 72, 80
1, 62159, Note_on_c, 0, 64, 0
1, 62159, Note_on_c, 0, 72, 0
1, 62160, Note_on_c, 0, 69, 80
1, 62160, Control_c, 0, 2, 80
1, 62399, Note_on_c, 0, 69, 0
1, 62400, Note_on_c, 0, 64, 80
1, 62400, Control_c, 0, 2, 80
1, 62400, Note_on_c, 0, 72, 80
1, 62639, Note_on_c, 0, 64, 0
1, 62639, Note_on_c, 0, 72, 0
1, 62640, Note_on_c, 0, 69, 80
1, 62640, Control_c, 0, 2, 80
1, 62879, Note_on_c, 0, 69, 0
1, 62880, Note_on_c, 0, 64, 80
1, 62880, Control_c, 0, 2, 80
1, 62880, Note_on_c, 0, 72, 80
1, 63119, Note_on_c, 0, 64, 0
1, 63119, Note_on_c, 0, 72, 0
1, 63120, Note_on_c, 0, 69, 80
1, 63120, Control_c, 0, 2, 80
1, 63359, Note_on_c, 0, 69, 0
1, 63360, Note_on_c, 0, 64, 80
1, 63360, Control_c, 0, 2, 80
1, 63360, Note_on_c, 0, 72, 80
1, 63599, Note_on_c, 0, 64, 0
1, 63599, Note_on_c, 0, 72, 0
1, 63600, Note_on_c, 0, 69, 80
1, 63600, Control_c, 0, 2, 80
1, 63839, Note_on_c, 0, 69, 0
1, 63840, Note_on_c, 0, 64, 80
1, 63840, Control_c, 0, 2, 80
1, 63840, Note_on_c, 0, 72, 80
1, 64079, Note_on_c, 0, 64, 0
1, 64079, Note_on_c, 0, 72, 0
1, 64080, Note_on_c, 0, 69, 80
1, 64080, Control_c, 0, 2, 80
1, 64319, Note_on_c, 0, 69, 0
1, 64320, Note_on_c, 0, 64, 80
1, 64320, Control_c, 0, 2, 80
1, 64320, Note_on_c, 0, 72, 80
1, 64559, Note_on_c, 0, 64, 0
1, 64559, Note_on_c, 0, 72, 0
1, 64560, Note_on_c, 0, 69, 80
1, 64560, Control_c, 0, 2, 80
1, 64799, Note_on_c, 0, 69, 0
1, 64800, Note_on_c, 0, 64, 80
1, 64800, Control_c, 0, 2, 80
1, 64800, Note_on_c, 0, 72, 80
1, 65039, Note_on_c, 0, 64, 0
1, 65039, Note_on_c, 0, 72, 0
1, 65040, Note_on_c, 0, 69, 80
1, 65040, Control_c, 0, 2, 80
1, 65279, Note_on_c, 0, 69, 0
1, 65280, Note_on_c, 0, 65, 80
1, 65280, Control_c, 0, 2, 80
1, 65280, Note_on_c, 0, 72, 80
1, 65519, Note_on_c, 0, 65, 0
1, 65519, Note_on_c, 0, 72, 0
1, 65520, Note_on_c, 0, 69, 80
1, 65520, Control_c, 0, 2, 80
1, 65759, Note_on_c, 0, 69, 0
1, 65760, Note_on_c, 0, 65, 80
1, 65760, Control_c, 0, 2, 80
1, 65760, Note_on_c, 0, 72, 80
1, 65999, Note_on_c, 0, 65, 0
1, 65999, Note_on_c, 0, 72, 0
1, 66000, Note_on_c, 0, 69, 80
1, 66000, Control_c, 0, 2, 80
1, 66239, Note_on_c, 0, 69, 0
1, 66240, Note_on_c, 0, 65, 80
1, 66240, Control_c, 0, 2, 80
1, 66240, Note_on_c, 0, 72, 80
1, 66479, Note_on_c, 0, 65, 0
1, 66479, Note_on_c, 0, 72, 0
1, 66480, Note_on_c, 0, 69, 80
1, 66480, Control_c, 0, 2, 80
1, 66719, Note_on_c, 0, 69, 0
1, 66720, Note_on_c, 0, 65, 80
1, 66720, Control_c, 0, 2, 80
1, 66720, Note_on_c, 0, 72, 80
1, 66959, Note_on_c, 0, 65, 0
1, 66959, Note_on_c, 0, 72, 0
1, 66960, Note_on_c, 0, 69, 80
1, 66960, Control_c, 0, 2, 80
1, 67199, Note_on_c, 0, 69, 0
1, 67200, Note_on_c, 0, 65, 80
1, 67200, Control_c, 0, 2, 80
1, 67200, Note_on_c, 0, 72, 80
1, 67439, Note_on_c, 0, 65, 0
1, 67439, Note_on_c, 0, 72, 0
1, 67440, Note_on_c, 0, 69, 80
1, 67440, Control_c, 0, 2, 80
1, 67679, Note_on_c, 0, 69, 0
1, 67680, Note_on_c, 0, 65, 80
1, 67680, Control_c, 0, 2, 80
1, 67680, Note_on_c, 0, 72, 80
1, 67919, Note_on_c, 0, 65, 0
1, 67919, Note_on_c, 0, 72, 0
1, 67920, Note_on_c, 0, 69, 80
1, 67920, Control_c, 0, 2, 80
1, 68159, Note_on_c, 0, 69, 0
1, 68160, Note_on_c, 0, 65, 80
1, 68160, Control_c, 0, 2, 80
1, 68160, Note_on_c, 0, 72, 80
1, 68399, Note_on_c, 0, 65, 0
1, 68399, Note_on_c, 0, 72, 0
1, 68400, Note_on_c, 0, 69, 80
1, 68400, Control_c, 0, 2, 80
1, 68639, Note_on_c, 0, 69, 0
1, 68640, Note_on_c, 0, 65, 80
1, 68640, Control_c, 0, 2, 80
1, 68640, Note_on_c, 0, 72, 80
1, 68879, Note_on_c, 0, 65, 0
1, 68879, Note_on_c, 0, 72, 0
1, 68880, Note_on_c, 0, 69, 80
1, 68880, Control_c, 0, 2, 80
1, 69119, Note_on_c, 0, 69, 0
1, 69120, Note_on_c, 0, 67, 80
1, 69120, Control_c, 0, 2, 80
1, 69120, Note_on_c, 0, 76, 80
1, 69359, Note_on_c, 0, 67, 0
1, 69359, Note_on_c, 0, 76, 0
1, 69360, Note_on_c, 0, 72, 80
1, 69360, Control_c, 0, 2, 80
1, 69599, Note_on_c, 0, 72, 0
1, 69600, Note_on_c, 0, 67, 80
1, 69600, Control_c, 0, 2, 80
1, 69600, Note_on_c, 0, 76, 80
1, 69839, Note_on_c, 0, 67, 0
1, 69839, Note_on_c, 0, 76, 0
1, 69840, Note_on_c, 0, 72, 80
1, 69840, Control_c, 0, 2, 80
1, 70079, Note_on_c, 0, 72, 0
1, 70080, Note_on_c, 0, 67, 80
1, 70080, Control_c, 0, 2, 80
1, 70080, Note_on_c, 0, 76, 80
1, 70319, Note_on_c, 0, 67, 0
1, 70319, Note_on_c, 0, 76, 0
1, 70320, Note_on_c, 0, 72, 80
1, 70320, Control_c, 0, 2, 80
1, 70559, Note_on_c, 0, 72, 0
1, 70560, Note_on_c, 0, 67, 80
1, 70560, Control_c, 0, 2, 80
1, 70560, Note_on_c, 0, 76, 80
1, 70799, Note_on_c, 0, 67, 0
1, 70799, Note_on_c, 0, 76, 0
1, 70800, Note_on_c, 0, 72, 80
1, 70800, Control_c, 0, 2, 80
1, 71039, Note_on_c, 0, 72, 0
1, 71040, Note_on_c, 0, 67, 80
1, 71040, Control_c, 0, 2, 80
1, 71040, Note_on_c, 0, 76, 80
1, 71279, Note_on_c, 0, 67, 0
1, 71279, Note_on_c, 0, 76, 0
1, 71280, Note_on_c, 0, 72, 80
1, 71280, Control_c, 0, 2, 80
1, 71519, Note_on_c, 0, 72, 0
1, 71520, Note_on_c, 0, 67, 80
1, 71520, Control_c, 0, 2, 80
1, 71520, Note_on_c, 0, 76, 80
1, 71759, Note_on_c, 0, 67, 0
1, 71759, Note_on_c, 0, 76, 0
1, 71760, Note_on_c, 0, 72, 80
1, 71760, Control_c, 0, 2, 80
1, 71999, Note_on_c, 0, 72, 0
1, 72000, Note_on_c, 0, 67, 80
1, 72000, Control_c, 0, 2, 80
1, 72000, Note_on_c, 0, 76, 80
1, 72239, Note_on_c, 0, 67, 0
1, 72239, Note_on_c, 0, 76, 0
1, 72240, Note_on_c, 0, 72, 80
1, 72240, Control_c, 0, 2, 80
1, 72479, Note_on_c, 0, 72, 0
1, 72480, Note_on_c, 0, 67, 80
1, 72480, Control_c, 0, 2, 80
1, 72480, Note_on_c, 0, 76, 80
1, 72719, Note_on_c, 0, 67, 0
1, 72719, Note_on_c, 0, 76, 0
1, 72720, Note_on_c, 0, 72, 80
1, 72720, Control_c, 0, 2, 80
1, 72959, Note_on_c, 0, 72, 0
1, 72960, Note_on_c, 0, 71, 80
1, 72960, Control_c, 0, 2, 80
1, 72960, Note_on_c, 0, 79, 80
1, 73199, Note_on_c, 0, 71, 0
1, 73199, Note_on_c, 0, 79, 0
1, 73200, Note_on_c, 0, 76, 80
1, 73200, Control_c, 0, 2, 80
1, 73439, Note_on_c, 0, 76, 0
1, 73440, Note_on_c, 0, 71, 80
1, 73440, Control_c, 0, 2, 80
1, 73440, Note_on_c, 0, 79, 80
1, 73679, Note_on_c, 0, 71, 0
1, 73679, Note_on_c, 0, 79, 0
1, 73680, Note_on_c, 0, 76, 80
1, 73680, Control_c, 0, 2, 80
1, 73919, Note_on_c, 0, 76, 0
1, 73920, Note_on_c, 0, 71, 80
1, 73920, Control_c, 0, 2, 80
1, 73920, Note_on_c, 0, 79, 80
1, 74159, Note_on_c, 0, 71, 0
1, 74159, Note_on_c, 0, 79, 0
1, 74160, Note_on_c, 0, 76, 80
1, 74160, Control_c, 0, 2, 80
1, 74399, Note_on_c, 0, 76, 0
1, 74400, Note_on_c, 0, 71, 80
1, 74400, Control_c, 0, 2, 80
1, 74400, Note_on_c, 0, 79, 80
1, 74639, Note_on_c, 0, 71, 0
1, 74639, Note_on_c, 0, 79, 0
1, 74640, Note_on_c, 0, 76, 80
1, 74640, Control_c, 0, 2, 80
1, 74879, Note_on_c, 0, 76, 0
1, 74880, Note_on_c, 0, 71, 80
1, 74880, Control_c, 0, 2, 80
1, 74880, Note_on_c, 0, 79, 80
1, 75119, Note_on_c, 0, 71, 0
1, 75119, Note_on_c, 0, 79, 0
1, 75120, Note_on_c, 0, 76, 80
1, 75120, Control_c, 0, 2, 80
1, 75359, Note_on_c, 0, 76, 0
1, 75360, Note_on_c, 0, 71, 80
1, 75360, Control_c, 0, 2, 80
1, 75360, Note_on_c, 0, 79, 80
1, 75599, Note_on_c, 0, 71, 0
1, 75599, Note_on_c, 0, 79, 0
1, 75600, Note_on_c, 0, 76, 80
1, 75600, Control_c, 0, 2, 80
1, 75839, Note_on_c, 0, 76, 0
1, 75840, Note_on_c, 0, 71, 80
1, 75840, Control_c, 0, 2, 80
1, 75840, Note_on_c, 0, 79, 80
1, 76079, Note_on_c, 0, 71, 0
1, 76079, Note_on_c, 0, 79, 0
1, 76080, Note_on_c, 0, 76, 80
1, 76080, Control_c, 0, 2, 80
1, 76319, Note_on_c, 0, 76, 0
1, 76320, Note_on_c, 0, 71, 80
1, 76320, Control_c, 0, 2, 80
1, 76320, Note_on_c, 0, 79, 80
1, 76559, Note_on_c, 0, 71, 0
1, 76559, Note_on_c, 0, 79, 0
1, 76560, Note_on_c, 0, 76, 80
1, 76560, Control_c, 0, 2, 80
1, 76799, Note_on_c, 0, 76, 0
1, 76800, Note_on_c, 0, 72, 80
1, 76800, Control_c, 0, 2, 80
1, 76800, Note_on_c, 0, 81, 80
1, 77039, Note_on_c, 0, 72, 0
1, 77039, Note_on_c, 0, 81, 0
1, 77040, Note_on_c, 0, 76, 80
1, 77040, Control_c, 0, 2, 80
1, 77279, Note_on_c, 0, 76, 0
1, 77280, Note_on_c, 0, 72, 80
1, 77280, Control_c, 0, 2, 80
1, 77280, Note_on_c, 0, 81, 80
1, 77519, Note_on_c, 0, 72, 0
1, 77519, Note_on_c, 0, 81, 0
1, 77520, Note_on_c, 0, 76, 80
1, 77520, Control_c, 0, 2, 80
1, 77759, Note_on_c, 0, 76, 0
1, 77760, Note_on_c, 0, 72, 80
1, 77760, Control_c, 0, 2, 80
1, 77760, Note_on_c, 0, 81, 80
1, 77999, Note_on_c, 0, 72, 0
1, 77999, Note_on_c, 0, 81, 0
1, 78000, Note_on_c, 0, 76, 80
1, 78000, Control_c, 0, 2, 80
1, 78239, Note_on_c, 0, 76, 0
1, 78240, Note_on_c, 0, 72, 80
1, 78240, Control_c, 0, 2, 80
1, 78240, Note_on_c, 0, 81, 80
1, 78479, Note_on_c, 0, 72, 0
1, 78479, Note_on_c, 0, 81, 0
1, 78480, Note_on_c, 0, 76, 80
1, 78480, Control_c, 0, 2, 80
1, 78719, Note_on_c, 0, 76, 0
1, 78720, Note_on_c, 0, 72, 80
1, 78720, Control_c, 0, 2, 80
1, 78720, Note_on_c, 0, 81, 80
1, 78959, Note_on_c, 0, 72, 0
1, 78959, Note_on_c, 0, 81, 0
1, 78960, Note_on_c, 0, 76, 80
1, 78960, Control_c, 0, 2, 80
1, 79199, Note_on_c, 0, 76, 0
1, 79200, Note_on_c, 0, 72, 80
1, 79200, Control_c, 0, 2, 80
1, 79200, Note_on_c, 0, 81, 80
1, 79439, Note_on_c, 0, 72, 0
1, 79439, Note_on_c, 0, 81, 0
1, 79440, Note_on_c, 0, 76, 80
1, 79440, Control_c, 0, 2, 80
1, 79679, Note_on_c, 0, 76, 0
1, 79680, Note_on_c, 0, 72, 80
1, 79680, Control_c, 0, 2, 80
1, 79680, Note_on_c, 0, 81, 80
1, 79919, Note_on_c, 0, 72, 0
1, 79919, Note_on_c, 0, 81, 0
1, 79920, Note_on_c, 0, 76, 80
1, 79920, Control_c, 0, 2, 80
1, 80159, Note_on_c, 0, 76, 0
1, 80160, Note_on_c, 0, 72, 80
1, 80160, Control_c, 0, 2, 80
1, 80160, Note_on_c, 0, 81, 80
1, 80399, Note_on_c, 0, 72, 0
1, 80399, Note_on_c, 0, 81, 0
1, 80400, Note_on_c, 0, 76, 80
1, 80400, Control_c, 0, 2, 80
1, 80639, Note_on_c, 0, 76, 0
1, 80640, Note_on_c, 0, 72, 80
1, 80640, Control_c, 0, 2, 80
1, 80640, Note_on_c, 0, 81, 80
1, 80879, Note_on_c, 0, 72, 0
1, 80879, Note_on_c, 0, 81, 0
1, 80880, Note_on_c, 0, 77, 80
1, 80880, Control_c, 0, 2, 80
1, 81119, Note_on_c, 0, 77, 0
1, 81120, Note_on_c, 0, 72, 80
1, 81120, Control_c, 0, 2, 80
1, 81120, Note_on_c, 0, 81, 80
1, 81359, Note_on_c, 0, 72, 0
1, 81359, Note_on_c, 0, 81, 0
1, 81360, Note_on_c, 0, 77, 80
1, 81360, Control_c, 0, 2, 80
1, 81599, Note_on_c, 0, 77, 0
1, 81600, Note_on_c, 0, 72, 80
1, 81600, Control_c, 0, 2, 80
1, 81600, Note_on_c, 0, 81, 80
1, 81839, Note_on_c, 0, 72, 0
1, 81839, Note_on_c, 0, 81, 0
1, 81840, Note_on_c, 0, 77, 80
1, 81840, Control_c, 0, 2, 80
1, 82079, Note_on_c, 0, 77, 0
1, 82080, Note_on_c, 0, 72, 80
1, 82080, Control_c, 0, 2, 80
1, 82080, Note_on_c, 0, 81, 80
1, 82319, Note_on_c, 0, 72, 0
1, 82319, Note_on_c, 0, 81, 0
1, 82320, Note_on_c, 0, 77, 80
1, 82320, Control_c, 0, 2, 80
1, 82559, Note_on_c, 0, 77, 0
1, 82560, Note_on_c, 0, 72, 80
1, 82560, Control_c, 0, 2, 80
1, 82560, Note_on_c, 0, 81, 80
1, 82799, Note_on_c, 0, 72, 0
1, 82799, Note_on_c, 0, 81, 0
1, 82800, Note_on_c, 0, 77, 80
1, 82800, Control_c, 0, 2, 80
1, 83039, Note_on_c, 0, 77, 0
1, 83040, Note_on_c, 0, 72, 80
1, 83040, Control_c, 0, 2, 80
1, 83040, Note_on_c, 0, 81, 80
1, 83279, Note_on_c, 0, 72, 0
1, 83279, Note_on_c, 0, 81, 0
1, 83280, Note_on_c, 0, 77, 80
1, 83280, Control_c, 0, 2, 80
1, 83519, Note_on_c, 0, 77, 0
1, 83520, Note_on_c, 0, 72, 80
1, 83520, Control_c, 0, 2, 80
1, 83520, Note_on_c, 0, 81, 80
1, 83759, Note_on_c, 0, 72, 0
1, 83759, Note_on_c, 0, 81, 0
1, 83760, Note_on_c, 0, 77, 80
1, 83760, Control_c, 0, 2, 80
1, 83999, Note_on_c, 0, 77, 0
1, 84000, Note_on_c, 0, 72, 80
1, 84000, Control_c, 0, 2, 80
1, 84000, Note_on_c, 0, 81, 80
1, 84239, Note_on_c, 0, 72, 0
1, 84239, Note_on_c, 0, 81, 0
1, 84240, Note_on_c, 0, 77, 80
1, 84240, Control_c, 0, 2, 80
1, 84479, Note_on_c, 0, 77, 0
1, 84480, Note_on_c, 0, 72, 80
1, 84480, Control_c, 0, 2, 80
1, 84480, Note_on_c, 0, 79, 80
1, 84719, Note_on_c, 0, 72, 0
1, 84719, Note_on_c, 0, 79, 0
1, 84720, Note_on_c, 0, 76, 80
1, 84720, Control_c, 0, 2, 80
1, 84959, Note_on_c, 0, 76, 0
1, 84960, Note_on_c, 0, 72, 80
1, 84960, Control_c, 0, 2, 80
1, 84960, Note_on_c, 0, 79, 80
1, 85199, Note_on_c, 0, 72, 0
1, 85199, Note_on_c, 0, 79, 0
1, 85200, Note_on_c, 0, 76, 80
1, 85200, Control_c, 0, 2, 80
1, 85439, Note_on_c, 0, 76, 0
1, 85440, Note_on_c, 0, 72, 80
1, 85440, Control_c, 0, 2, 80
1, 85440, Note_on_c, 0, 79, 80
1, 85679, Note_on_c, 0, 72, 0
1, 85679, Note_on_c, 0, 79, 0
1, 85680, Note_on_c, 0, 76, 80
1, 85680, Control_c, 0, 2, 80
1, 85919, Note_on_c, 0, 76, 0
1, 85920, Note_on_c, 0, 72, 80
1, 85920, Control_c, 0, 2, 80
1, 85920, Note_on_c, 0, 79, 80
1, 86159, Note_on_c, 0, 72, 0
1, 86159, Note_on_c, 0, 79, 0
1, 86160, Note_on_c, 0, 76, 80
1, 86160, Control_c, 0, 2, 80
1, 86399, Note_on_c, 0, 76, 0
1, 86400, Note_on_c, 0, 72, 80
1, 86400, Control_c, 0, 2, 80
1, 86400, Note_on_c, 0, 79, 80
1, 86639, Note_on_c, 0, 72, 0
1, 86639, Note_on_c, 0, 79, 0
1, 86640, Note_on_c, 0, 76, 80
1, 86640, Control_c, 0, 2, 80
1, 86879, Note_on_c, 0, 76, 0
1, 86880, Note_on_c, 0, 72, 80
1, 86880, Control_c, 0, 2, 80
1, 86880, Note_on_c, 0, 79, 80
1, 87119, Note_on_c, 0, 72, 0
1, 87119, Note_on_c, 0, 79, 0
1, 87120, Note_on_c, 0, 76, 80
1, 87120, Control_c, 0, 2, 80
1, 87359, Note_on_c, 0, 76, 0
1, 87360, Note_on_c, 0, 72, 80
1, 87360, Control_c, 0, 2, 80
1, 87360, Note_on_c, 0, 79, 80
1, 87599, Note_on_c, 0, 72, 0
1, 87599, Note_on_c, 0, 79, 0
1, 87600, Note_on_c, 0, 76, 80
1, 87600, Control_c, 0, 2, 80
1, 87839, Note_on_c, 0, 76, 0
1, 87840, Note_on_c, 0, 72, 80
1, 87840, Control_c, 0, 2, 80
1, 87840, Note_on_c, 0, 79, 80
1, 88079, Note_on_c, 0, 72, 0
1, 88079, Note_on_c, 0, 79, 0
1, 88080, Note_on_c, 0, 76, 80
1, 88080, Control_c, 0, 2, 80
1, 88319, Note_on_c, 0, 76, 0
1, 88320, Note_on_c, 0, 76, 80
1, 88320, Control_c, 0, 2, 80
1, 88320, Note_on_c, 0, 83, 80
1, 88559, Note_on_c, 0, 76, 0
1, 88559, Note_on_c, 0, 83, 0
1, 88560, Note_on_c, 0, 79, 80
1, 88560, Control_c, 0, 2, 80
1, 88799, Note_on_c, 0, 79, 0
1, 88800, Note_on_c, 0, 76, 80
1, 88800, Control_c, 0, 2, 80
1, 88800, Note_on_c, 0, 83, 80
1, 89039, Note_on_c, 0, 76, 0
1, 89039, Note_on_c, 0, 83, 0
1, 89040, Note_on_c, 0, 79, 80
1, 89040, Control_c, 0, 2, 80
1, 89279, Note_on_c, 0, 79, 0
1, 89280, Note_on_c, 0, 76, 80
1, 89280, Control_c, 0, 2, 80
1, 89280, Note_on_c, 0, 83, 80
1, 89519, Note_on_c, 0, 76, 0
1, 89519, Note_on_c, 0, 83, 0
1, 89520, Note_on_c, 0, 79, 80
1, 89520, Control_c, 0, 2, 80
1, 89759, Note_on_c, 0, 79, 0
1, 89760, Note_on_c, 0, 76, 80
1, 89760, Control_c, 0, 2, 80
1, 89760, Note_on_c, 0, 83, 80
1, 89999, Note_on_c, 0, 76, 0
1, 89999, Note_on_c, 0, 83, 0
1, 90000, Note_on_c, 0, 79, 80
1, 90000, Control_c, 0, 2, 80
1, 90239, Note_on_c, 0, 79, 0
1, 90240, Note_on_c, 0, 76, 80
1, 90240, Control_c, 0, 2, 80
1, 90240, Note_on_c, 0, 83, 80
1, 90479, Note_on_c, 0, 76, 0
1, 90479, Note_on_c, 0, 83, 0
1, 90480, Note_on_c, 0, 79, 80
1, 90480, Control_c, 0, 2, 80
1, 90719, Note_on_c, 0, 79, 0
1, 90720, Note_on_c, 0, 76, 80
1, 90720, Control_c, 0, 2, 80
1, 90720, Note_on_c, 0, 83, 80
1, 90959, Note_on_c, 0, 76, 0
1, 90959, Note_on_c, 0, 83, 0
1, 90960, Note_on_c, 0, 79, 80
1, 90960, Control_c, 0, 2, 80
1, 91199, Note_on_c, 0, 79, 0
1, 91200, Note_on_c, 0, 76, 80
1, 91200, Control_c, 0, 2, 80
1, 91200, Note_on_c, 0, 83, 80
1, 91439, Note_on_c, 0, 76, 0
1, 91439, Note_on_c, 0, 83, 0
1, 91440, Note_on_c, 0, 79, 80
1, 91440, Control_c, 0, 2, 80
1, 91679, Note_on_c, 0, 79, 0
1, 91680, Note_on_c, 0, 76, 80
1, 91680, Control_c, 0, 2, 80
1, 91680, Note_on_c, 0, 83, 80
1, 91919, Note_on_c, 0, 76, 0
1, 91919, Note_on_c, 0, 83, 0
1, 91920, Note_on_c, 0, 79, 80
1, 91920, Control_c, 0, 2, 80
1, 92159, Note_on_c, 0, 79, 0
1, 92160, Note_on_c, 0, 64, 80
1, 92160, Control_c, 0, 2, 80
1, 92160, Note_on_c, 0, 72, 80
1, 93599, Note_on_c, 0, 64, 0
1, 93599, Note_on_c, 0, 72, 0
1, 93600, Note_on_c, 0, 71, 80
1, 93600, Control_c, 0, 2, 80
1, 93839, Note_on_c, 0, 71, 0
1, 93840, Note_on_c, 0, 72, 80
1, 93840, Control_c, 0, 2, 80
1, 94079, Note_on_c, 0, 72, 0
1, 94080, Note_on_c, 0, 64, 80
1, 94080, Control_c, 0, 2, 80
1, 94080, Note_on_c, 0, 72, 80
1, 95519, Note_on_c, 0, 64, 0
1, 95519, Note_on_c, 0, 72, 0
1, 95520, Note_on_c, 0, 71, 80
1, 95520, Control_c, 0, 2, 80
1, 95759, Note_on_c, 0, 71, 0
1, 95760, Note_on_c, 0, 69, 80
1, 95760, Control_c, 0, 2, 80
1, 95999, Note_on_c, 0, 69, 0
1, 96000, Note_on_c, 0, 60, 80
1, 96000, Control_c, 0, 2, 80
1, 96000, Note_on_c, 0, 69, 80
1, 97439, Note_on_c, 0, 60, 0
1, 97439, Note_on_c, 0, 69, 0
1, 97440, Note_on_c, 0, 67, 80
1, 97440, Control_c, 0, 2, 80
1, 97679, Note_on_c, 0, 67, 0
1, 97680, Note_on_c, 0, 69, 80
1, 97680, Control_c, 0, 2, 80
1, 97919, Note_on_c, 0, 69, 0
1, 97920, Note_on_c, 0, 60, 80
1, 97920, Control_c, 0, 2, 80
1, 97920, Note_on_c, 0, 69, 80
1, 99359, Note_on_c, 0, 60, 0
1, 99359, Note_on_c, 0, 69, 0
1, 99360, Note_on_c, 0, 72, 80
1, 99360, Control_c, 0, 2, 80
1, 99599, Note_on_c, 0, 72, 0
1, 99600, Note_on_c, 0, 74, 80
1, 99600, Control_c, 0, 2, 80
1, 99839, Note_on_c, 0, 74, 0
1, 99840, Note_on_c, 0, 67, 80
1, 99840, Control_c, 0, 2, 80
1, 99840, Note_on_c, 0, 76, 80
1, 101279, Note_on_c, 0, 67, 0
1, 101279, Note_on_c, 0, 76, 0
1, 101280, Note_on_c, 0, 74, 80
1, 101280, Control_c, 0, 2, 80
1, 101519, Note_on_c, 0, 74, 0
1, 101520, Note_on_c, 0, 72, 80
1, 101520, Control_c, 0, 2, 80
1, 101759, Note_on_c, 0, 72, 0
1, 101760, Note_on_c, 0, 64, 80
1, 101760, Control_c, 0, 2, 80
1, 101760, Note_on_c, 0, 72, 80
1, 103199, Note_on_c, 0, 64, 0
1, 103199, Note_on_c, 0, 72, 0
1, 103200, Note_on_c, 0, 74, 80
1, 103200, Control_c, 0, 2, 80
1, 103439, Note_on_c, 0, 74, 0
1, 103440, Note_on_c, 0, 76, 80
1, 103440, Control_c, 0, 2, 80
1, 103679, Note_on_c, 0, 76, 0
1, 103680, Note_on_c, 0, 67, 80
1, 103680, Control_c, 0, 2, 80
1, 103680, Note_on_c, 0, 74, 80
1, 105119, Note_on_c, 0, 67, 0
1, 105119, Note_on_c, 0, 74, 0
1, 105120, Note_on_c, 0, 62, 80
1, 105120, Control_c, 0, 2, 80
1, 105120, Note_on_c, 0, 71, 80
1, 105599, Note_on_c, 0, 62, 0
1, 105599, Note_on_c, 0, 71, 0
1, 105600, Note_on_c, 0, 62, 80
1, 105600, Control_c, 0, 2, 80
1, 105600, Note_on_c, 0, 67, 80
1, 106559, Note_on_c, 0, 62, 0
1, 106559, Note_on_c, 0, 67, 0
1, 106560, Note_on_c, 0, 72, 80
1, 106560, Control_c, 0, 2, 80
1, 107039, Note_on_c, 0, 72, 0
1, 107040, Note_on_c, 0, 74, 80
1, 107040, Control_c, 0, 2, 80
1, 107519, Note_on_c, 0, 74, 0
1, 107520, Note_on_c, 0, 64, 80
1, 107520, Control_c, 0, 2, 80
1, 107759, Note_on_c, 0, 64, 0
1, 107760, Note_on_c, 0, 60, 80
1, 107760, Control_c, 0, 2, 80
1, 107999, Note_on_c, 0, 60, 0
1, 108000, Note_on_c, 0, 57, 80
1, 108000, Control_c, 0, 2, 80
1, 108239, Note_on_c, 0, 57, 0
1, 108240, Note_on_c, 0, 60, 80
1, 108240, Control_c, 0, 2, 80
1, 108479, Note_on_c, 0, 60, 0
1, 108480, Note_on_c, 0, 64, 80
1, 108480, Control_c, 0, 2, 80
1, 108719, Note_on_c, 0, 64, 0
1, 108720, Note_on_c, 0, 60, 80
1, 108720, Control_c, 0, 2, 80
1, 108959, Note_on_c, 0, 60, 0
1, 108960, Note_on_c, 0, 57, 80
1, 108960, Control_c, 0, 2, 80
1, 109199, Note_on_c, 0, 57, 0
1, 109200, Note_on_c, 0, 60, 80
1, 109200, Control_c, 0, 2, 80
1, 109439, Note_on_c, 0, 60, 0
1, 109440, Note_on_c, 0, 64, 80
1, 109440, Control_c, 0, 2, 80
1, 109679, Note_on_c, 0, 64, 0
1, 109680, Note_on_c, 0, 60, 80
1, 109680, Control_c, 0, 2, 80
1, 109919, Note_on_c, 0, 60, 0
1, 109920, Note_on_c, 0, 57, 80
1, 109920, Control_c, 0, 2, 80
1, 110159, Note_on_c, 0, 57, 0
1, 110160, Note_on_c, 0, 60, 80
1, 110160, Control_c, 0, 2, 80
1, 110399, Note_on_c, 0, 60, 0
1, 110400, Note_on_c, 0, 62, 80
1, 110400, Control_c, 0, 2, 80
1, 110639, Note_on_c, 0, 62, 0
1, 110640, Note_on_c, 0, 64, 80
1, 110640, Control_c, 0, 2, 80
1, 110879, Note_on_c, 0, 64, 0
1, 110880, Note_on_c, 0, 62, 80
1, 110880, Control_c, 0, 2, 80
1, 111119, Note_on_c, 0, 62, 0
1, 111120, Note_on_c, 0, 60, 80
1, 111120, Control_c, 0, 2, 80
1, 111359, Note_on_c, 0, 60, 0
1, 111360, Note_on_c, 0, 65, 80
1, 111360, Control_c, 0, 2, 80
1, 111599, Note_on_c, 0, 65, 0
1, 111600, Note_on_c, 0, 60, 80
1, 111600, Control_c, 0, 2, 80
1, 111839, Note_on_c, 0, 60, 0
1, 111840, Note_on_c, 0, 57, 80
1, 111840, Control_c, 0, 2, 80
1, 112079, Note_on_c, 0, 57, 0
1, 112080, Note_on_c, 0, 60, 80
1, 112080, Control_c, 0, 2, 80
1, 112319, Note_on_c, 0, 60, 0
1, 112320, Note_on_c, 0, 65, 80
1, 112320, Control_c, 0, 2, 80
1, 112559, Note_on_c, 0, 65, 0
1, 112560, Note_on_c, 0, 60, 80
1, 112560, Control_c, 0, 2, 80
1, 112799, Note_on_c, 0, 60, 0
1, 112800, Note_on_c, 0, 57, 80
1, 112800, Control_c, 0, 2, 80
1, 113039, Note_on_c, 0, 57, 0
1, 113040, Note_on_c, 0, 60, 80
1, 113040, Control_c, 0, 2, 80
1, 113279, Note_on_c, 0, 60, 0
1, 113280, Note_on_c, 0, 65, 80
1, 113280, Control_c, 0, 2, 80
1, 113519, Note_on_c, 0, 65, 0
1, 113520, Note_on_c, 0, 60, 80
1, 113520, Control_c, 0, 2, 80
1, 113759, Note_on_c, 0, 60, 0
1, 113760, Note_on_c, 0, 57, 80
1, 113760, Control_c, 0, 2, 80
1, 113999, Note_on_c, 0, 57, 0
1, 114000, Note_on_c, 0, 60, 80
1, 114000, Control_c, 0, 2, 80
1, 114239, Note_on_c, 0, 60, 0
1, 114240, Note_on_c, 0, 62, 80
1, 114240, Control_c, 0, 2, 80
1, 114479, Note_on_c, 0, 62, 0
1, 114480, Note_on_c, 0, 64, 80
1, 114480, Control_c, 0, 2, 80
1, 114719, Note_on_c, 0, 64, 0
1, 114720, Note_on_c, 0, 62, 80
1, 114720, Control_c, 0, 2, 80
1, 114959, Note_on_c, 0, 62, 0
1, 114960, Note_on_c, 0, 60, 80
1, 114960, Control_c, 0, 2, 80
1, 115199, Note_on_c, 0, 60, 0
1, 115200, Note_on_c, 0, 64, 80
1, 115200, Control_c, 0, 2, 80
1, 115439, Note_on_c, 0, 64, 0
1, 115440, Note_on_c, 0, 60, 80
1, 115440, Control_c, 0, 2, 80
1, 115679, Note_on_c, 0, 60, 0
1, 115680, Note_on_c, 0, 55, 80
1, 115680, Control_c, 0, 2, 80
1, 115919, Note_on_c, 0, 55, 0
1, 115920, Note_on_c, 0, 60, 80
1, 115920, Control_c, 0, 2, 80
1, 116159, Note_on_c, 0, 60, 0
1, 116160, Note_on_c, 0, 64, 80
1, 116160, Control_c, 0, 2, 80
1, 116399, Note_on_c, 0, 64, 0
1, 116400, Note_on_c, 0, 60, 80
1, 116400, Control_c, 0, 2, 80
1, 116639, Note_on_c, 0, 60, 0
1, 116640, Note_on_c, 0, 55, 80
1, 116640, Control_c, 0, 2, 80
1, 116879, Note_on_c, 0, 55, 0
1, 116880, Note_on_c, 0, 60, 80
1, 116880, Control_c, 0, 2, 80
1, 117119, Note_on_c, 0, 60, 0
1, 117120, Note_on_c, 0, 64, 80
1, 117120, Control_c, 0, 2, 80
1, 117359, Note_on_c, 0, 64, 0
1, 117360, Note_on_c, 0, 60, 80
1, 117360, Control_c, 0, 2, 80
1, 117599, Note_on_c, 0, 60, 0
1, 117600, Note_on_c, 0, 55, 80
1, 117600, Control_c, 0, 2, 80
1, 117839, Note_on_c, 0, 55, 0
1, 117840, Note_on_c, 0, 60, 80
1, 117840, Control_c, 0, 2, 80
1, 118079, Note_on_c, 0, 60, 0
1, 118080, Note_on_c, 0, 62, 80
1, 118080, Control_c, 0, 2, 80
1, 118319, Note_on_c, 0, 62, 0
1, 118320, Note_on_c, 0, 64, 80
1, 118320, Control_c, 0, 2, 80
1, 118559, Note_on_c, 0, 64, 0
1, 118560, Note_on_c, 0, 62, 80
1, 118560, Control_c, 0, 2, 80
1, 118799, Note_on_c, 0, 62, 0
1, 118800, Note_on_c, 0, 60, 80
1, 118800, Control_c, 0, 2, 80
1, 119039, Note_on_c, 0, 60, 0
1, 119040, Note_on_c, 0, 62, 80
1, 119040, Control_c, 0, 2, 80
1, 119279, Note_on_c, 0, 62, 0
1, 119280, Note_on_c, 0, 59, 80
1, 119280, Control_c, 0, 2, 80
1, 119519, Note_on_c, 0, 59, 0
1, 119520, Note_on_c, 0, 55, 80
1, 119520, Control_c, 0, 2, 80
1, 119759, Note_on_c, 0, 55, 0
1, 119760, Note_on_c, 0, 59, 80
1, 119760, Control_c, 0, 2, 80
1, 119999, Note_on_c, 0, 59, 0
1, 120000, Note_on_c, 0, 62, 80
1, 120000, Control_c, 0, 2, 80
1, 120239, Note_on_c, 0, 62, 0
1, 120240, Note_on_c, 0, 59, 80
1, 120240, Control_c, 0, 2, 80
1, 120479, Note_on_c, 0, 59, 0
1, 120480, Note_on_c, 0, 55, 80
1, 120480, Control_c, 0, 2, 80
1, 120719, Note_on_c, 0, 55, 0
1, 120720, Note_on_c, 0, 59, 80
1, 120720, Control_c, 0, 2, 80
1, 120959, Note_on_c, 0, 59, 0
1, 120960, Note_on_c, 0, 62, 80
1, 120960, Control_c, 0, 2, 80
1, 121199, Note_on_c, 0, 62, 0
1, 121200, Note_on_c, 0, 59, 80
1, 121200, Control_c, 0, 2, 80
1, 121439, Note_on_c, 0, 59, 0
1, 121440, Note_on_c, 0, 55, 80
1, 121440, Control_c, 0, 2, 80
1, 121679, Note_on_c, 0, 55, 0
1, 121680, Note_on_c, 0, 59, 80
1, 121680, Control_c, 0, 2, 80
1, 121919, Note_on_c, 0, 59, 0
1, 121920, Note_on_c, 0, 62, 80
1, 121920, Control_c, 0, 2, 80
1, 122159, Note_on_c, 0, 62, 0
1, 122160, Note_on_c, 0, 67, 80
1, 122160, Control_c, 0, 2, 80
1, 122399, Note_on_c, 0, 67, 0
1, 122400, Note_on_c, 0, 71, 80
1, 122400, Control_c, 0, 2, 80
1, 122639, Note_on_c, 0, 71, 0
1, 122640, Note_on_c, 0, 74, 80
1, 122640, Control_c, 0, 2, 80
1, 122879, Note_on_c, 0, 74, 0
1, 122880, Note_on_c, 0, 76, 80
1, 122880, Control_c, 0, 2, 80
1, 123119, Note_on_c, 0, 76, 0
1, 123120, Note_on_c, 0, 72, 80
1, 123120, Control_c, 0, 2, 80
1, 123359, Note_on_c, 0, 72, 0
1, 123360, Note_on_c, 0, 69, 80
1, 123360, Control_c, 0, 2, 80
1, 123599, Note_on_c, 0, 69, 0
1, 123600, Note_on_c, 0, 72, 80
1, 123600, Control_c, 0, 2, 80
1, 123839, Note_on_c, 0, 72, 0
1, 123840, Note_on_c, 0, 76, 80
1, 123840, Control_c, 0, 2, 80
1, 124079, Note_on_c, 0, 76, 0
1, 124080, Note_on_c, 0, 72, 80
1, 124080, Control_c, 0, 2, 80
1, 124319, Note_on_c, 0, 72, 0
1, 124320, Note_on_c, 0, 69, 80
1, 124320, Control_c, 0, 2, 80
1, 124559, Note_on_c, 0, 69, 0
1, 124560, Note_on_c, 0, 72, 80
1, 124560, Control_c, 0, 2, 80
1, 124799, Note_on_c, 0, 72, 0
1, 124800, Note_on_c, 0, 76, 80
1, 124800, Control_c, 0, 2, 80
1, 125039, Note_on_c, 0, 76, 0
1, 125040, Note_on_c, 0, 72, 80
1, 125040, Control_c, 0, 2, 80
1, 125279, Note_on_c, 0, 72, 0
1, 125280, Note_on_c, 0, 69, 80
1, 125280, Control_c, 0, 2, 80
1, 125519, Note_on_c, 0, 69, 0
1, 125520, Note_on_c, 0, 72, 80
1, 125520, Control_c, 0, 2, 80
1, 125759, Note_on_c, 0, 72, 0
1, 125760, Note_on_c, 0, 74, 80
1, 125760, Control_c, 0, 2, 80
1, 125999, Note_on_c, 0, 74, 0
1, 126000, Note_on_c, 0, 76, 80
1, 126000, Control_c, 0, 2, 80
1, 126239, Note_on_c, 0, 76, 0
1, 126240, Note_on_c, 0, 74, 80
1, 126240, Control_c, 0, 2, 80
1, 126479, Note_on_c, 0, 74, 0
1, 126480, Note_on_c, 0, 72, 80
1, 126480, Control_c, 0, 2, 80
1, 126719, Note_on_c, 0, 72, 0
1, 126720, Note_on_c, 0, 77, 80
1, 126720, Control_c, 0, 2, 80
1, 126959, Note_on_c, 0, 77, 0
1, 126960, Note_on_c, 0, 72, 80
1, 126960, Control_c, 0, 2, 80
1, 127199, Note_on_c, 0, 72, 0
1, 127200, Note_on_c, 0, 69, 80
1, 127200, Control_c, 0, 2, 80
1, 127439, Note_on_c, 0, 69, 0
1, 127440, Note_on_c, 0, 72, 80
1, 127440, Control_c, 0, 2, 80
1, 127679, Note_on_c, 0, 72, 0
1, 127680, Note_on_c, 0, 77, 80
1, 127680, Control_c, 0, 2, 80
1, 127919, Note_on_c, 0, 77, 0
1, 127920, Note_on_c, 0, 72, 80
1, 127920, Control_c, 0, 2, 80
1, 128159, Note_on_c, 0, 72, 0
1, 128160, Note_on_c, 0, 69, 80
1, 128160, Control_c, 0, 2, 80
1, 128399, Note_on_c, 0, 69, 0
1, 128400, Note_on_c, 0, 72, 80
1, 128400, Control_c, 0, 2, 80
1, 128639, Note_on_c, 0, 72, 0
1, 128640, Note_on_c, 0, 77, 80
1, 128640, Control_c, 0, 2, 80
1, 128879, Note_on_c, 0, 77, 0
1, 128880, Note_on_c, 0, 72, 80
1, 128880, Control_c, 0, 2, 80
1, 129119, Note_on_c, 0, 72, 0
1, 129120, Note_on_c, 0, 69, 80
1, 129120, Control_c, 0, 2, 80
1, 129359, Note_on_c, 0, 69, 0
1, 129360, Note_on_c, 0, 72, 80
1, 129360, Control_c, 0, 2, 80
1, 129599, Note_on_c, 0, 72, 0
1, 129600, Note_on_c, 0, 74, 80
1, 129600, Control_c, 0, 2, 80
1, 129839, Note_on_c, 0, 74, 0
1, 129840, Note_on_c, 0, 76, 80
1, 129840, Control_c, 0, 2, 80
1, 130079, Note_on_c, 0, 76, 0
1, 130080, Note_on_c, 0, 74, 80
1, 130080, Control_c, 0, 2, 80
1, 130319, Note_on_c, 0, 74, 0
1, 130320, Note_on_c, 0, 72, 80
1, 130320, Control_c, 0, 2, 80
1, 130559, Note_on_c, 0, 72, 0
1, 130560, Note_on_c, 0, 76, 80
1, 130560, Control_c, 0, 2, 80
1, 130799, Note_on_c, 0, 76, 0
1, 130800, Note_on_c, 0, 72, 80
1, 130800, Control_c, 0, 2, 80
1, 131039, Note_on_c, 0, 72, 0
1, 131040, Note_on_c, 0, 67, 80
1, 131040, Control_c, 0, 2, 80
1, 131279, Note_on_c, 0, 67, 0
1, 131280, Note_on_c, 0, 72, 80
1, 131280, Control_c, 0, 2, 80
1, 131519, Note_on_c, 0, 72, 0
1, 131520, Note_on_c, 0, 76, 80
1, 131520, Control_c, 0, 2, 80
1, 131759, Note_on_c, 0, 76, 0
1, 131760, Note_on_c, 0, 72, 80
1, 131760, Control_c, 0, 2, 80
1, 131999, Note_on_c, 0, 72, 0
1, 132000, Note_on_c, 0, 67, 80
1, 132000, Control_c, 0, 2, 80
1, 132239, Note_on_c, 0, 67, 0
1, 132240, Note_on_c, 0, 72, 80
1, 132240, Control_c, 0, 2, 80
1, 132479, Note_on_c, 0, 72, 0
1, 132480, Note_on_c, 0, 76, 80
1, 132480, Control_c, 0, 2, 80
1, 132719, Note_on_c, 0, 76, 0
1, 132720, Note_on_c, 0, 72, 80
1, 132720, Control_c, 0, 2, 80
1, 132959, Note_on_c, 0, 72, 0
1, 132960, Note_on_c, 0, 67, 80
1, 132960, Control_c, 0, 2, 80
1, 133199, Note_on_c, 0, 67, 0
1, 133200, Note_on_c, 0, 72, 80
1, 133200, Control_c, 0, 2, 80
1, 133439, Note_on_c, 0, 72, 0
1, 133440, Note_on_c, 0, 74, 80
1, 133440, Control_c, 0, 2, 80
1, 133679, Note_on_c, 0, 74, 0
1, 133680, Note_on_c, 0, 76, 80
1, 133680, Control_c, 0, 2, 80
1, 133919, Note_on_c, 0, 76, 0
1, 133920, Note_on_c, 0, 74, 80
1, 133920, Control_c, 0, 2, 80
1, 134159, Note_on_c, 0, 74, 0
1, 134160, Note_on_c, 0, 72, 80
1, 134160, Control_c, 0, 2, 80
1, 134399, Note_on_c, 0, 72, 0
1, 134400, Note_on_c, 0, 74, 80
1, 134400, Control_c, 0, 2, 80
1, 134639, Note_on_c, 0, 74, 0
1, 134640, Note_on_c, 0, 71, 80
1, 134640, Control_c, 0, 2, 80
1, 134879, Note_on_c, 0, 71, 0
1, 134880, Note_on_c, 0, 67, 80
1, 134880, Control_c, 0, 2, 80
1, 135119, Note_on_c, 0, 67, 0
1, 135120, Note_on_c, 0, 71, 80
1, 135120, Control_c, 0, 2, 80
1, 135359, Note_on_c, 0, 71, 0
1, 135360, Note_on_c, 0, 74, 80
1, 135360, Control_c, 0, 2, 80
1, 135599, Note_on_c, 0, 74, 0
1, 135600, Note_on_c, 0, 71, 80
1, 135600, Control_c, 0, 2, 80
1, 135839, Note_on_c, 0, 71, 0
1, 135840, Note_on_c, 0, 67, 80
1, 135840, Control_c, 0, 2, 80
1, 136079, Note_on_c, 0, 67, 0
1, 136080, Note_on_c, 0, 71, 80
1, 136080, Control_c, 0, 2, 80
1, 136319, Note_on_c, 0, 71, 0
1, 136320, Note_on_c, 0, 74, 80
1, 136320, Control_c, 0, 2, 80
1, 136559, Note_on_c, 0, 74, 0
1, 136560, Note_on_c, 0, 71, 80
1, 136560, Control_c, 0, 2, 80
1, 136799, Note_on_c, 0, 71, 0
1, 136800, Note_on_c, 0, 67, 80
1, 136800, Control_c, 0, 2, 80
1, 137039, Note_on_c, 0, 67, 0
1, 137040, Note_on_c, 0, 71, 80
1, 137040, Control_c, 0, 2, 80
1, 137279, Note_on_c, 0, 71, 0
1, 137280, Note_on_c, 0, 74, 80
1, 137280, Control_c, 0, 2, 80
1, 137519, Note_on_c, 0, 74, 0
1, 137520, Note_on_c, 0, 79, 80
1, 137520, Control_c, 0, 2, 80
1, 137759, Note_on_c, 0, 79, 0
1, 137760, Note_on_c, 0, 83, 80
1, 137760, Control_c, 0, 2, 80
1, 137999, Note_on_c, 0, 83, 0
1, 138000, Note_on_c, 0, 79, 80
1, 138000, Control_c, 0, 2, 80
1, 138239, Note_on_c, 0, 79, 0
1, 138240, Note_on_c, 0, 76, 80
1, 138240, Control_c, 0, 2, 80
1, 138479, Note_on_c, 0, 76, 0
1, 138480, Note_on_c, 0, 72, 80
1, 138480, Control_c, 0, 2, 80
1, 138719, Note_on_c, 0, 72, 0
1, 138720, Note_on_c, 0, 69, 80
1, 138720, Control_c, 0, 2, 80
1, 138959, Note_on_c, 0, 69, 0
1, 138960, Note_on_c, 0, 72, 80
1, 138960, Control_c, 0, 2, 80
1, 139199, Note_on_c, 0, 72, 0
1, 139200, Note_on_c, 0, 76, 80
1, 139200, Control_c, 0, 2, 80
1, 139439, Note_on_c, 0, 76, 0
1, 139440, Note_on_c, 0, 72, 80
1, 139440, Control_c, 0, 2, 80
1, 139679, Note_on_c, 0, 72, 0
1, 139680, Note_on_c, 0, 69, 80
1, 139680, Control_c, 0, 2, 80
1, 139919, Note_on_c, 0, 69, 0
1, 139920, Note_on_c, 0, 72, 80
1, 139920, Control_c, 0, 2, 80
1, 140159, Note_on_c, 0, 72, 0
1, 140160, Note_on_c, 0, 76, 80
1, 140160, Control_c, 0, 2, 80
1, 140399, Note_on_c, 0, 76, 0
1, 140400, Note_on_c, 0, 72, 80
1, 140400, Control_c, 0, 2, 80
1, 140639, Note_on_c, 0, 72, 0
1, 140640, Note_on_c, 0, 69, 80
1, 140640, Control_c, 0, 2, 80
1, 140879, Note_on_c, 0, 69, 0
1, 140880, Note_on_c, 0, 72, 80
1, 140880, Control_c, 0, 2, 80
1, 141119, Note_on_c, 0, 72, 0
1, 141120, Note_on_c, 0, 74, 80
1, 141120, Control_c, 0, 2, 80
1, 141359, Note_on_c, 0, 74, 0
1, 141360, Note_on_c, 0, 76, 80
1, 141360, Control_c, 0, 2, 80
1, 141599, Note_on_c, 0, 76, 0
1, 141600, Note_on_c, 0, 74, 80
1, 141600, Control_c, 0, 2, 80
1, 141839, Note_on_c, 0, 74, 0
1, 141840, Note_on_c, 0, 72, 80
1, 141840, Control_c, 0, 2, 80
1, 142079, Note_on_c, 0, 72, 0
1, 142080, Note_on_c, 0, 77, 80
1, 142080, Control_c, 0, 2, 80
1, 142319, Note_on_c, 0, 77, 0
1, 142320, Note_on_c, 0, 72, 80
1, 142320, Control_c, 0, 2, 80
1, 142559, Note_on_c, 0, 72, 0
1, 142560, Note_on_c, 0, 69, 80
1, 142560, Control_c, 0, 2, 80
1, 142799, Note_on_c, 0, 69, 0
1, 142800, Note_on_c, 0, 72, 80
1, 142800, Control_c, 0, 2, 80
1, 143039, Note_on_c, 0, 72, 0
1, 143040, Note_on_c, 0, 77, 80
1, 143040, Control_c, 0, 2, 80
1, 143279, Note_on_c, 0, 77, 0
1, 143280, Note_on_c, 0, 72, 80
1, 143280, Control_c, 0, 2, 80
1, 143519, Note_on_c, 0, 72, 0
1, 143520, Note_on_c, 0, 69, 80
1, 143520, Control_c, 0, 2, 80
1, 143759, Note_on_c, 0, 69, 0
1, 143760, Note_on_c, 0, 72, 80
1, 143760, Control_c, 0, 2, 80
1, 143999, Note_on_c, 0, 72, 0
1, 144000, Note_on_c, 0, 77, 80
1, 144000, Control_c, 0, 2, 80
1, 144239, Note_on_c, 0, 77, 0
1, 144240, Note_on_c, 0, 72, 80
1, 144240, Control_c, 0, 2, 80
1, 144479, Note_on_c, 0, 72, 0
1, 144480, Note_on_c, 0, 69, 80
1, 144480, Control_c, 0, 2, 80
1, 144719, Note_on_c, 0, 69, 0
1, 144720, Note_on_c, 0, 72, 80
1, 144720, Control_c, 0, 2, 80
1, 144959, Note_on_c, 0, 72, 0
1, 144960, Note_on_c, 0, 74, 80
1, 144960, Control_c, 0, 2, 80
1, 145199, Note_on_c, 0, 74, 0
1, 145200, Note_on_c, 0, 76, 80
1, 145200, Control_c, 0, 2, 80
1, 145439, Note_on_c, 0, 76, 0
1, 145440, Note_on_c, 0, 74, 80
1, 145440, Control_c, 0, 2, 80
1, 145679, Note_on_c, 0, 74, 0
1, 145680, Note_on_c, 0, 72, 80
1, 145680, Control_c, 0, 2, 80
1, 145919, Note_on_c, 0, 72, 0
1, 145920, Note_on_c, 0, 76, 80
1, 145920, Control_c, 0, 2, 80
1, 146159, Note_on_c, 0, 76, 0
1, 146160, Note_on_c, 0, 72, 80
1, 146160, Control_c, 0, 2, 80
1, 146399, Note_on_c, 0, 72, 0
1, 146400, Note_on_c, 0, 67, 80
1, 146400, Control_c, 0, 2, 80
1, 146639, Note_on_c, 0, 67, 0
1, 146640, Note_on_c, 0, 72, 80
1, 146640, Control_c, 0, 2, 80
1, 146879, Note_on_c, 0, 72, 0
1, 146880, Note_on_c, 0, 76, 80
1, 146880, Control_c, 0, 2, 80
1, 147119, Note_on_c, 0, 76, 0
1, 147120, Note_on_c, 0, 72, 80
1, 147120, Control_c, 0, 2, 80
1, 147359, Note_on_c, 0, 72, 0
1, 147360, Note_on_c, 0, 67, 80
1, 147360, Control_c, 0, 2, 80
1, 147599, Note_on_c, 0, 67, 0
1, 147600, Note_on_c, 0, 72, 80
1, 147600, Control_c, 0, 2, 80
1, 147839, Note_on_c, 0, 72, 0
1, 147840, Note_on_c, 0, 76, 80
1, 147840, Control_c, 0, 2, 80
1, 148079, Note_on_c, 0, 76, 0
1, 148080, Note_on_c, 0, 72, 80
1, 148080, Control_c, 0, 2, 80
1, 148319, Note_on_c, 0, 72, 0
1, 148320, Note_on_c, 0, 67, 80
1, 148320, Control_c, 0, 2, 80
1, 148559, Note_on_c, 0, 67, 0
1, 148560, Note_on_c, 0, 72, 80
1, 148560, Control_c, 0, 2, 80
1, 148799, Note_on_c, 0, 72, 0
1, 148800, Note_on_c, 0, 74, 80
1, 148800, Control_c, 0, 2, 80
1, 149039, Note_on_c, 0, 74, 0
1, 149040, Note_on_c, 0, 76, 80
1, 149040, Control_c, 0, 2, 80
1, 149279, Note_on_c, 0, 76, 0
1, 149280, Note_on_c, 0, 74, 80
1, 149280, Control_c, 0, 2, 80
1, 149519, Note_on_c, 0, 74, 0
1, 149520, Note_on_c, 0, 72, 80
1, 149520, Control_c, 0, 2, 80
1, 149759, Note_on_c, 0, 72, 0
1, 149760, Note_on_c, 0, 74, 80
1, 149760, Control_c, 0, 2, 80
1, 149999, Note_on_c, 0, 74, 0
1, 150000, Note_on_c, 0, 71, 80
1, 150000, Control_c, 0, 2, 80
1, 150239, Note_on_c, 0, 71, 0
1, 150240, Note_on_c, 0, 67, 80
1, 150240, Control_c, 0, 2, 80
1, 150479, Note_on_c, 0, 67, 0
1, 150480, Note_on_c, 0, 71, 80
1, 150480, Control_c, 0, 2, 80
1, 150719, Note_on_c, 0, 71, 0
1, 150720, Note_on_c, 0, 74, 80
1, 150720, Control_c, 0, 2, 80
1, 150959, Note_on_c, 0, 74, 0
1, 150960, Note_on_c, 0, 71, 80
1, 150960, Control_c, 0, 2, 80
1, 151199, Note_on_c, 0, 71, 0
1, 151200, Note_on_c, 0, 67, 80
1, 151200, Control_c, 0, 2, 80
1, 151439, Note_on_c, 0, 67, 0
1, 151440, Note_on_c, 0, 71, 80
1, 151440, Control_c, 0, 2, 80
1, 151679, Note_on_c, 0, 71, 0
1, 151680, Tempo, 600000
1, 151680, Note_on_c, 0, 74, 80
1, 151680, Control_c, 0, 2, 80
1, 152159, Note_on_c, 0, 74, 0
1, 152160, Tempo, 625000
1, 152160, Note_on_c, 0, 77, 80
1, 152160, Control_c, 0, 2, 80
1, 152639, Note_on_c, 0, 77, 0
1, 152640, Tempo, 652174
1, 152640, Note_on_c, 0, 76, 80
1, 152640, Control_c, 0, 2, 80
1, 153119, Note_on_c, 0, 76, 0
1, 153120, Note_on_c, 0, 74, 80
1, 153120, Control_c, 0, 2, 80
1, 153599, Note_on_c, 0, 74, 0
1, 153600, Note_on_c, 0, 69, 80
1, 153600, Control_c, 0, 2, 80
1, 153600, Note_on_c, 0, 72, 80
1, 153600, Note_on_c, 0, 76, 80
1, 155520, Control_c, 0, 2, 80
1, 157439, Note_on_c, 0, 69, 0
1, 157439, Note_on_c, 0, 72, 0
1, 157439, Note_on_c, 0, 76, 0
1, 157440, Control_c, 0, 64, 0
1, 157441, End_track
2, 0, Start_track
2, 0, Title_t, "Minstrel 2\000"
2, 0, Key_signature, 0, "major"
2, 0, Control_c, 1, 121, 0
2, 0, Program_c, 1, 0
2, 0, Control_c, 1, 7, 100
2, 0, Control_c, 1, 10, 64
2, 0, Control_c, 1, 91, 0
2, 0, Control_c, 1, 93, 0
2, 0, MIDI_port, 0
2, 0, Note_on_c, 1, 57, 80
2, 0, Control_c, 1, 2, 80
2, 2, Control_c, 1, 64, 127
2, 1920, Control_c, 1, 2, 80
2, 3839, Note_on_c, 1, 57, 0
2, 3840, Note_on_c, 1, 53, 80
2, 3840, Control_c, 1, 2, 80
2, 5760, Control_c, 1, 2, 80
2, 7679, Note_on_c, 1, 53, 0
2, 7680, Note_on_c, 1, 60, 80
2, 7680, Control_c, 1, 2, 80
2, 9600, Control_c, 1, 2, 80
2, 11519, Note_on_c, 1, 60, 0
2, 11520, Note_on_c, 1, 59, 80
2, 11520, Control_c, 1, 2, 80
2, 13439, Note_on_c, 1, 59, 0
2, 15360, Note_on_c, 1, 57, 80
2, 15360, Control_c, 1, 2, 80
2, 17280, Control_c, 1, 2, 80
2, 19199, Note_on_c, 1, 57, 0
2, 19200, Note_on_c, 1, 53, 80
2, 19200, Control_c, 1, 2, 80
2, 21120, Control_c, 1, 2, 80
2, 23039, Note_on_c, 1, 53, 0
2, 23040, Note_on_c, 1, 55, 80
2, 23040, Control_c, 1, 2, 80
2, 24959, Note_on_c, 1, 55, 0
2, 24960, Note_on_c, 1, 55, 80
2, 24960, Control_c, 1, 2, 80
2, 26879, Note_on_c, 1, 55, 0
2, 26880, Note_on_c, 1, 59, 80
2, 26880, Control_c, 1, 2, 80
2, 28800, Control_c, 1, 2, 80
2, 30719, Note_on_c, 1, 59, 0
2, 30720, Note_on_c, 1, 52, 80
2, 30720, Control_c, 1, 2, 80
2, 30720, Note_on_c, 1, 57, 80
2, 30720, Note_on_c, 1, 60, 80
2, 32639, Note_on_c, 1, 52, 0
2, 32639, Note_on_c, 1, 60, 0
2, 32640, Control_c, 1, 2, 80
2, 34559, Note_on_c, 1, 57, 0
2, 34560, Note_on_c, 1, 53, 80
2, 34560, Control_c, 1, 2, 80
2, 34560, Note_on_c, 1, 57, 80
2, 34560, Note_on_c, 1, 60, 80
2, 36479, Note_on_c, 1, 57, 0
2, 36479, Note_on_c, 1, 60, 0
2, 36480, Control_c, 1, 2, 80
2, 38399, Note_on_c, 1, 53, 0
2, 38400, Note_on_c, 1, 55, 80
2, 38400, Control_c, 1, 2, 80
2, 38400, Note_on_c, 1, 60, 80
2, 38400, Note_on_c, 1, 52, 80
2, 40319, Note_on_c, 1, 55, 0
2, 40319, Note_on_c, 1, 60, 0
2, 40320, Control_c, 1, 2, 80
2, 42239, Note_on_c, 1, 52, 0
2, 42240, Note_on_c, 1, 55, 80
2, 42240, Control_c, 1, 2, 80
2, 42240, Note_on_c, 1, 50, 80
2, 42240, Note_on_c, 1, 59, 80
2, 44159, Note_on_c, 1, 55, 0
2, 44159, Note_on_c, 1, 50, 0
2, 44159, Note_on_c, 1, 59, 0
2, 46080, Note_on_c, 1, 52, 80
2, 46080, Control_c, 1, 2, 80
2, 46080, Note_on_c, 1, 57, 80
2, 46080, Note_on_c, 1, 60, 80
2, 47999, Note_on_c, 1, 52, 0
2, 47999, Note_on_c, 1, 60, 0
2, 48000, Control_c, 1, 2, 80
2, 49919, Note_on_c, 1, 57, 0
2, 49920, Note_on_c, 1, 53, 80
2, 49920, Control_c, 1, 2, 80
2, 49920, Note_on_c, 1, 57, 80
2, 49920, Note_on_c, 1, 60, 80
2, 51839, Note_on_c, 1, 57, 0
2, 51839, Note_on_c, 1, 60, 0
2, 51840, Control_c, 1, 2, 80
2, 53759, Note_on_c, 1, 53, 0
2, 53760, Note_on_c, 1, 55, 80
2, 53760, Control_c, 1, 2, 80
2, 53760, Note_on_c, 1, 60, 80
2, 53760, Note_on_c, 1, 52, 80
2, 55679, Note_on_c, 1, 55, 0
2, 55679, Note_on_c, 1, 60, 0
2, 55680, Control_c, 1, 2, 80
2, 57599, Note_on_c, 1, 52, 0
2, 57600, Note_on_c, 1, 55, 80
2, 57600, Control_c, 1, 2, 80
2, 57600, Note_on_c, 1, 50, 80
2, 57600, Note_on_c, 1, 59, 80
2, 59519, Note_on_c, 1, 55, 0
2, 59519, Note_on_c, 1, 50, 0
2, 59519, Note_on_c, 1, 59, 0
2, 61440, Note_on_c, 1, 48, 80
2, 61440, Control_c, 1, 2, 80
2, 61679, Note_on_c, 1, 48, 0
2, 61680, Note_on_c, 1, 52, 80
2, 61680, Control_c, 1, 2, 80
2, 61919, Note_on_c, 1, 52, 0
2, 61920, Note_on_c, 1, 57, 80
2, 61920, Control_c, 1, 2, 80
2, 62159, Note_on_c, 1, 57, 0
2, 62160, Note_on_c, 1, 52, 80
2, 62160, Control_c, 1, 2, 80
2, 62399, Note_on_c, 1, 52, 0
2, 62400, Note_on_c, 1, 48, 80
2, 62400, Control_c, 1, 2, 80
2, 62639, Note_on_c, 1, 48, 0
2, 62640, Note_on_c, 1, 52, 80
2, 62640, Control_c, 1, 2, 80
2, 62879, Note_on_c, 1, 52, 0
2, 62880, Note_on_c, 1, 57, 80
2, 62880, Control_c, 1, 2, 80
2, 63119, Note_on_c, 1, 57, 0
2, 63120, Note_on_c, 1, 52, 80
2, 63120, Control_c, 1, 2, 80
2, 63359, Note_on_c, 1, 52, 0
2, 63360, Note_on_c, 1, 48, 80
2, 63360, Control_c, 1, 2, 80
2, 63599, Note_on_c, 1, 48, 0
2, 63600, Note_on_c, 1, 52, 80
2, 63600, Control_c, 1, 2, 80
2, 63839, Note_on_c, 1, 52, 0
2, 63840, Note_on_c, 1, 57, 80
2, 63840, Control_c, 1, 2, 80
2, 64079, Note_on_c, 1, 57, 0
2, 64080, Note_on_c, 1, 52, 80
2, 64080, Control_c, 1, 2, 80
2, 64319, Note_on_c, 1, 52, 0
2, 64320, Note_on_c, 1, 48, 80
2, 64320, Control_c, 1, 2, 80
2, 64559, Note_on_c, 1, 48, 0
2, 64560, Note_on_c, 1, 52, 80
2, 64560, Control_c, 1, 2, 80
2, 64799, Note_on_c, 1, 52, 0
2, 64800, Note_on_c, 1, 57, 80
2, 64800, Control_c, 1, 2, 80
2, 65039, Note_on_c, 1, 57, 0
2, 65040, Note_on_c, 1, 52, 80
2, 65040, Control_c, 1, 2, 80
2, 65279, Note_on_c, 1, 52, 0
2, 65280, Note_on_c, 1, 48, 80
2, 65280, Control_c, 1, 2, 80
2, 65519, Note_on_c, 1, 48, 0
2, 65520, Note_on_c, 1, 53, 80
2, 65520, Control_c, 1, 2, 80
2, 65759, Note_on_c, 1, 53, 0
2, 65760, Note_on_c, 1, 57, 80
2, 65760, Control_c, 1, 2, 80
2, 65999, Note_on_c, 1, 57, 0
2, 66000, Note_on_c, 1, 53, 80
2, 66000, Control_c, 1, 2, 80
2, 66239, Note_on_c, 1, 53, 0
2, 66240, Note_on_c, 1, 48, 80
2, 66240, Control_c, 1, 2, 80
2, 66479, Note_on_c, 1, 48, 0
2, 66480, Note_on_c, 1, 53, 80
2, 66480, Control_c, 1, 2, 80
2, 66719, Note_on_c, 1, 53, 0
2, 66720, Note_on_c, 1, 57, 80
2, 66720, Control_c, 1, 2, 80
2, 66959, Note_on_c, 1, 57, 0
2, 66960, Note_on_c, 1, 53, 80
2, 66960, Control_c, 1, 2, 80
2, 67199, Note_on_c, 1, 53, 0
2, 67200, Note_on_c, 1, 48, 80
2, 67200, Control_c, 1, 2, 80
2, 67439, Note_on_c, 1, 48, 0
2, 67440, Note_on_c, 1, 53, 80
2, 67440, Control_c, 1, 2, 80
2, 67679, Note_on_c, 1, 53, 0
2, 67680, Note_on_c, 1, 57, 80
2, 67680, Control_c, 1, 2, 80
2, 67919, Note_on_c, 1, 57, 0
2, 67920, Note_on_c, 1, 53, 80
2, 67920, Control_c, 1, 2, 80
2, 68159, Note_on_c, 1, 53, 0
2, 68160, Note_on_c, 1, 48, 80
2, 68160, Control_c, 1, 2, 80
2, 68399, Note_on_c, 1, 48, 0
2, 68400, Note_on_c, 1, 53, 80
2, 68400, Control_c, 1, 2, 80
2, 68639, Note_on_c, 1, 53, 0
2, 68640, Note_on_c, 1, 57, 80
2, 68640, Control_c, 1, 2, 80
2, 68879, Note_on_c, 1, 57, 0
2, 68880, Note_on_c, 1, 53, 80
2, 68880, Control_c, 1, 2, 80
2, 69119, Note_on_c, 1, 53, 0
2, 69120, Note_on_c, 1, 48, 80
2, 69120, Control_c, 1, 2, 80
2, 69359, Note_on_c, 1, 48, 0
2, 69360, Note_on_c, 1, 55, 80
2, 69360, Control_c, 1, 2, 80
2, 69599, Note_on_c, 1, 55, 0
2, 69600, Note_on_c, 1, 60, 80
2, 69600, Control_c, 1, 2, 80
2, 69839, Note_on_c, 1, 60, 0
2, 69840, Note_on_c, 1, 55, 80
2, 69840, Control_c, 1, 2, 80
2, 70079, Note_on_c, 1, 55, 0
2, 70080, Note_on_c, 1, 48, 80
2, 70080, Control_c, 1, 2, 80
2, 70319, Note_on_c, 1, 48, 0
2, 70320, Note_on_c, 1, 55, 80
2, 70320, Control_c, 1, 2, 80
2, 70559, Note_on_c, 1, 55, 0
2, 70560, Note_on_c, 1, 60, 80
2, 70560, Control_c, 1, 2, 80
2, 70799, Note_on_c, 1, 60, 0
2, 70800, Note_on_c, 1, 55, 80
2, 70800, Control_c, 1, 2, 80
2, 71039, Note_on_c, 1, 55, 0
2, 71040, Note_on_c, 1, 48, 80
2, 71040, Control_c, 1, 2, 80
2, 71279, Note_on_c, 1, 48, 0
2, 71280, Note_on_c, 1, 55, 80
2, 71280, Control_c, 1, 2, 80
2, 71519, Note_on_c, 1, 55, 0
2, 71520, Note_on_c, 1, 60, 80
2, 71520, Control_c, 1, 2, 80
2, 71759, Note_on_c, 1, 60, 0
2, 71760, Note_on_c, 1, 55, 80
2, 71760, Control_c, 1, 2, 80
2, 71999, Note_on_c, 1, 55, 0
2, 72000, Note_on_c, 1, 48, 80
2, 72000, Control_c, 1, 2, 80
2, 72239, Note_on_c, 1, 48, 0
2, 72240, Note_on_c, 1, 55, 80
2, 72240, Control_c, 1, 2, 80
2, 72479, Note_on_c, 1, 55, 0
2, 72480, Note_on_c, 1, 60, 80
2, 72480, Control_c, 1, 2, 80
2, 72719, Note_on_c, 1, 60, 0
2, 72720, Note_on_c, 1, 55, 80
2, 72720, Control_c, 1, 2, 80
2, 72959, Note_on_c, 1, 55, 0
2, 72960, Note_on_c, 1, 52, 80
2, 72960, Control_c, 1, 2, 80
2, 73199, Note_on_c, 1, 52, 0
2, 73200, Note_on_c, 1, 55, 80
2, 73200, Control_c, 1, 2, 80
2, 73439, Note_on_c, 1, 55, 0
2, 73440, Note_on_c, 1, 59, 80
2, 73440, Control_c, 1, 2, 80
2, 73679, Note_on_c, 1, 59, 0
2, 73680, Note_on_c, 1, 55, 80
2, 73680, Control_c, 1, 2, 80
2, 73919, Note_on_c, 1, 55, 0
2, 73920, Note_on_c, 1, 52, 80
2, 73920, Control_c, 1, 2, 80
2, 74159, Note_on_c, 1, 52, 0
2, 74160, Note_on_c, 1, 55, 80
2, 74160, Control_c, 1, 2, 80
2, 74399, Note_on_c, 1, 55, 0
2, 74400, Note_on_c, 1, 59, 80
2, 74400, Control_c, 1, 2, 80
2, 74639, Note_on_c, 1, 59, 0
2, 74640, Note_on_c, 1, 55, 80
2, 74640, Control_c, 1, 2, 80
2, 74879, Note_on_c, 1, 55, 0
2, 74880, Note_on_c, 1, 52, 80
2, 74880, Control_c, 1, 2, 80
2, 75119, Note_on_c, 1, 52, 0
2, 75120, Note_on_c, 1, 55, 80
2, 75120, Control_c, 1, 2, 80
2, 75359, Note_on_c, 1, 55, 0
2, 75360, Note_on_c, 1, 59, 80
2, 75360, Control_c, 1, 2, 80
2, 75599, Note_on_c, 1, 59, 0
2, 75600, Note_on_c, 1, 55, 80
2, 75600, Control_c, 1, 2, 80
2, 75839, Note_on_c, 1, 55, 0
2, 75840, Note_on_c, 1, 52, 80
2, 75840, Control_c, 1, 2, 80
2, 76079, Note_on_c, 1, 52, 0
2, 76080, Note_on_c, 1, 55, 80
2, 76080, Control_c, 1, 2, 80
2, 76319, Note_on_c, 1, 55, 0
2, 76320, Note_on_c, 1, 59, 80
2, 76320, Control_c, 1, 2, 80
2, 76559, Note_on_c, 1, 59, 0
2, 76560, Note_on_c, 1, 55, 80
2, 76560, Control_c, 1, 2, 80
2, 76799, Note_on_c, 1, 55, 0
2, 76800, Note_on_c, 1, 57, 80
2, 76800, Control_c, 1, 2, 80
2, 77039, Note_on_c, 1, 57, 0
2, 77040, Note_on_c, 1, 64, 80
2, 77040, Control_c, 1, 2, 80
2, 77279, Note_on_c, 1, 64, 0
2, 77280, Note_on_c, 1, 69, 80
2, 77280, Control_c, 1, 2, 80
2, 77519, Note_on_c, 1, 69, 0
2, 77520, Note_on_c, 1, 64, 80
2, 77520, Control_c, 1, 2, 80
2, 77759, Note_on_c, 1, 64, 0
2, 77760, Note_on_c, 1, 57, 80
2, 77760, Control_c, 1, 2, 80
2, 77999, Note_on_c, 1, 57, 0
2, 78000, Note_on_c, 1, 64, 80
2, 78000, Control_c, 1, 2, 80
2, 78239, Note_on_c, 1, 64, 0
2, 78240, Note_on_c, 1, 69, 80
2, 78240, Control_c, 1, 2, 80
2, 78479, Note_on_c, 1, 69, 0
2, 78480, Note_on_c, 1, 64, 80
2, 78480, Control_c, 1, 2, 80
2, 78719, Note_on_c, 1, 64, 0
2, 78720, Note_on_c, 1, 57, 80
2, 78720, Control_c, 1, 2, 80
2, 78959, Note_on_c, 1, 57, 0
2, 78960, Note_on_c, 1, 64, 80
2, 78960, Control_c, 1, 2, 80
2, 79199, Note_on_c, 1, 64, 0
2, 79200, Note_on_c, 1, 69, 80
2, 79200, Control_c, 1, 2, 80
2, 79439, Note_on_c, 1, 69, 0
2, 79440, Note_on_c, 1, 64, 80
2, 79440, Control_c, 1, 2, 80
2, 79679, Note_on_c, 1, 64, 0
2, 79680, Note_on_c, 1, 57, 80
2, 79680, Control_c, 1, 2, 80
2, 79919, Note_on_c, 1, 57, 0
2, 79920, Note_on_c, 1, 64, 80
2, 79920, Control_c, 1, 2, 80
2, 80159, Note_on_c, 1, 64, 0
2, 80160, Note_on_c, 1, 69, 80
2, 80160, Control_c, 1, 2, 80
2, 80399, Note_on_c, 1, 69, 0
2, 80400, Note_on_c, 1, 64, 80
2, 80400, Control_c, 1, 2, 80
2, 80639, Note_on_c, 1, 64, 0
2, 80640, Note_on_c, 1, 53, 80
2, 80640, Control_c, 1, 2, 80
2, 80879, Note_on_c, 1, 53, 0
2, 80880, Note_on_c, 1, 60, 80
2, 80880, Control_c, 1, 2, 80
2, 81119, Note_on_c, 1, 60, 0
2, 81120, Note_on_c, 1, 65, 80
2, 81120, Control_c, 1, 2, 80
2, 81359, Note_on_c, 1, 65, 0
2, 81360, Note_on_c, 1, 60, 80
2, 81360, Control_c, 1, 2, 80
2, 81599, Note_on_c, 1, 60, 0
2, 81600, Note_on_c, 1, 53, 80
2, 81600, Control_c, 1, 2, 80
2, 81839, Note_on_c, 1, 53, 0
2, 81840, Note_on_c, 1, 60, 80
2, 81840, Control_c, 1, 2, 80
2, 82079, Note_on_c, 1, 60, 0
2, 82080, Note_on_c, 1, 65, 80
2, 82080, Control_c, 1, 2, 80
2, 82319, Note_on_c, 1, 65, 0
2, 82320, Note_on_c, 1, 60, 80
2, 82320, Control_c, 1, 2, 80
2, 82559, Note_on_c, 1, 60, 0
2, 82560, Note_on_c, 1, 53, 80
2, 82560, Control_c, 1, 2, 80
2, 82799, Note_on_c, 1, 53, 0
2, 82800, Note_on_c, 1, 60, 80
2, 82800, Control_c, 1, 2, 80
2, 83039, Note_on_c, 1, 60, 0
2, 83040, Note_on_c, 1, 65, 80
2, 83040, Control_c, 1, 2, 80
2, 83279, Note_on_c, 1, 65, 0
2, 83280, Note_on_c, 1, 60, 80
2, 83280, Control_c, 1, 2, 80
2, 83519, Note_on_c, 1, 60, 0
2, 83520, Note_on_c, 1, 53, 80
2, 83520, Control_c, 1, 2, 80
2, 83759, Note_on_c, 1, 53, 0
2, 83760, Note_on_c, 1, 60, 80
2, 83760, Control_c, 1, 2, 80
2, 83999, Note_on_c, 1, 60, 0
2, 84000, Note_on_c, 1, 65, 80
2, 84000, Control_c, 1, 2, 80
2, 84239, Note_on_c, 1, 65, 0
2, 84240, Note_on_c, 1, 60, 80
2, 84240, Control_c, 1, 2, 80
2, 84479, Note_on_c, 1, 60, 0
2, 84480, Note_on_c, 1, 55, 80
2, 84480, Control_c, 1, 2, 80
2, 84719, Note_on_c, 1, 55, 0
2, 84720, Note_on_c, 1, 60, 80
2, 84720, Control_c, 1, 2, 80
2, 84959, Note_on_c, 1, 60, 0
2, 84960, Note_on_c, 1, 64, 80
2, 84960, Control_c, 1, 2, 80
2, 85199, Note_on_c, 1, 64, 0
2, 85200, Note_on_c, 1, 60, 80
2, 85200, Control_c, 1, 2, 80
2, 85439, Note_on_c, 1, 60, 0
2, 85440, Note_on_c, 1, 55, 80
2, 85440, Control_c, 1, 2, 80
2, 85679, Note_on_c, 1, 55, 0
2, 85680, Note_on_c, 1, 60, 80
2, 85680, Control_c, 1, 2, 80
2, 85919, Note_on_c, 1, 60, 0
2, 85920, Note_on_c, 1, 64, 80
2, 85920, Control_c, 1, 2, 80
2, 86159, Note_on_c, 1, 64, 0
2, 86160, Note_on_c, 1, 60, 80
2, 86160, Control_c, 1, 2, 80
2, 86399, Note_on_c, 1, 60, 0
2, 86400, Note_on_c, 1, 55, 80
2, 86400, Control_c, 1, 2, 80
2, 86639, Note_on_c, 1, 55, 0
2, 86640, Note_on_c, 1, 60, 80
2, 86640, Control_c, 1, 2, 80
2, 86879, Note_on_c, 1, 60, 0
2, 86880, Note_on_c, 1, 64, 80
2, 86880, Control_c, 1, 2, 80
2, 87119, Note_on_c, 1, 64, 0
2, 87120, Note_on_c, 1, 60, 80
2, 87120, Control_c, 1, 2, 80
2, 87359, Note_on_c, 1, 60, 0
2, 87360, Note_on_c, 1, 55, 80
2, 87360, Control_c, 1, 2, 80
2, 87599, Note_on_c, 1, 55, 0
2, 87600, Note_on_c, 1, 60, 80
2, 87600, Control_c, 1, 2, 80
2, 87839, Note_on_c, 1, 60, 0
2, 87840, Note_on_c, 1, 64, 80
2, 87840, Control_c, 1, 2, 80
2, 88079, Note_on_c, 1, 64, 0
2, 88080, Note_on_c, 1, 60, 80
2, 88080, Control_c, 1, 2, 80
2, 88319, Note_on_c, 1, 60, 0
2, 88320, Note_on_c, 1, 55, 80
2, 88320, Control_c, 1, 2, 80
2, 88559, Note_on_c, 1, 55, 0
2, 88560, Note_on_c, 1, 59, 80
2, 88560, Control_c, 1, 2, 80
2, 88799, Note_on_c, 1, 59, 0
2, 88800, Note_on_c, 1, 64, 80
2, 88800, Control_c, 1, 2, 80
2, 89039, Note_on_c, 1, 64, 0
2, 89040, Note_on_c, 1, 59, 80
2, 89040, Control_c, 1, 2, 80
2, 89279, Note_on_c, 1, 59, 0
2, 89280, Note_on_c, 1, 55, 80
2, 89280, Control_c, 1, 2, 80
2, 89519, Note_on_c, 1, 55, 0
2, 89520, Note_on_c, 1, 59, 80
2, 89520, Control_c, 1, 2, 80
2, 89759, Note_on_c, 1, 59, 0
2, 89760, Note_on_c, 1, 64, 80
2, 89760, Control_c, 1, 2, 80
2, 89999, Note_on_c, 1, 64, 0
2, 90000, Note_on_c, 1, 59, 80
2, 90000, Control_c, 1, 2, 80
2, 90239, Note_on_c, 1, 59, 0
2, 90240, Note_on_c, 1, 55, 80
2, 90240, Control_c, 1, 2, 80
2, 90479, Note_on_c, 1, 55, 0
2, 90480, Note_on_c, 1, 59, 80
2, 90480, Control_c, 1, 2, 80
2, 90719, Note_on_c, 1, 59, 0
2, 90720, Note_on_c, 1, 64, 80
2, 90720, Control_c, 1, 2, 80
2, 90959, Note_on_c, 1, 64, 0
2, 90960, Note_on_c, 1, 59, 80
2, 90960, Control_c, 1, 2, 80
2, 91199, Note_on_c, 1, 59, 0
2, 91200, Note_on_c, 1, 55, 80
2, 91200, Control_c, 1, 2, 80
2, 91439, Note_on_c, 1, 55, 0
2, 91440, Note_on_c, 1, 59, 80
2, 91440, Control_c, 1, 2, 80
2, 91679, Note_on_c, 1, 59, 0
2, 91680, Note_on_c, 1, 64, 80
2, 91680, Control_c, 1, 2, 80
2, 91919, Note_on_c, 1, 64, 0
2, 91920, Note_on_c, 1, 59, 80
2, 91920, Control_c, 1, 2, 80
2, 92159, Note_on_c, 1, 59, 0
2, 92160, Note_on_c, 1, 48, 80
2, 92160, Control_c, 1, 2, 80
2, 92399, Note_on_c, 1, 48, 0
2, 92400, Note_on_c, 1, 52, 80
2, 92400, Control_c, 1, 2, 80
2, 92639, Note_on_c, 1, 52, 0
2, 92640, Note_on_c, 1, 57, 80
2, 92879, Note_on_c, 1, 57, 0
2, 92880, Note_on_c, 1, 52, 80
2, 93119, Note_on_c, 1, 52, 0
2, 93120, Note_on_c, 1, 48, 80
2, 93359, Note_on_c, 1, 48, 0
2, 93360, Note_on_c, 1, 52, 80
2, 93360, Control_c, 1, 2, 80
2, 93599, Note_on_c, 1, 52, 0
2, 93600, Note_on_c, 1, 57, 80
2, 93600, Control_c, 1, 2, 80
2, 93839, Note_on_c, 1, 57, 0
2, 93840, Note_on_c, 1, 52, 80
2, 93840, Control_c, 1, 2, 80
2, 94079, Note_on_c, 1, 52, 0
2, 94080, Note_on_c, 1, 48, 80
2, 94080, Control_c, 1, 2, 80
2, 94319, Note_on_c, 1, 48, 0
2, 94320, Note_on_c, 1, 52, 80
2, 94320, Control_c, 1, 2, 80
2, 94559, Note_on_c, 1, 52, 0
2, 94560, Note_on_c, 1, 57, 80
2, 94799, Note_on_c, 1, 57, 0
2, 94800, Note_on_c, 1, 52, 80
2, 95039, Note_on_c, 1, 52, 0
2, 95040, Note_on_c, 1, 48, 80
2, 95279, Note_on_c, 1, 48, 0
2, 95280, Note_on_c, 1, 52, 80
2, 95280, Control_c, 1, 2, 80
2, 95519, Note_on_c, 1, 52, 0
2, 95520, Note_on_c, 1, 57, 80
2, 95520, Control_c, 1, 2, 80
2, 95759, Note_on_c, 1, 57, 0
2, 95760, Note_on_c, 1, 52, 80
2, 95760, Control_c, 1, 2, 80
2, 95999, Note_on_c, 1, 52, 0
2, 96000, Note_on_c, 1, 48, 80
2, 96000, Control_c, 1, 2, 80
2, 96239, Note_on_c, 1, 48, 0
2, 96240, Note_on_c, 1, 53, 80
2, 96240, Control_c, 1, 2, 80
2, 96479, Note_on_c, 1, 53, 0
2, 96480, Note_on_c, 1, 57, 80
2, 96719, Note_on_c, 1, 57, 0
2, 96720, Note_on_c, 1, 53, 80
2, 96959, Note_on_c, 1, 53, 0
2, 96960, Note_on_c, 1, 48, 80
2, 97199, Note_on_c, 1, 48, 0
2, 97200, Note_on_c, 1, 53, 80
2, 97200, Control_c, 1, 2, 80
2, 97439, Note_on_c, 1, 53, 0
2, 97440, Note_on_c, 1, 57, 80
2, 97440, Control_c, 1, 2, 80
2, 97679, Note_on_c, 1, 57, 0
2, 97680, Note_on_c, 1, 53, 80
2, 97680, Control_c, 1, 2, 80
2, 97919, Note_on_c, 1, 53, 0
2, 97920, Note_on_c, 1, 48, 80
2, 97920, Control_c, 1, 2, 80
2, 98159, Note_on_c, 1, 48, 0
2, 98160, Note_on_c, 1, 53, 80
2, 98160, Control_c, 1, 2, 80
2, 98399, Note_on_c, 1, 53, 0
2, 98400, Note_on_c, 1, 57, 80
2, 98639, Note_on_c, 1, 57, 0
2, 98640, Note_on_c, 1, 53, 80
2, 98879, Note_on_c, 1, 53, 0
2, 98880, Note_on_c, 1, 48, 80
2, 99119, Note_on_c, 1, 48, 0
2, 99120, Note_on_c, 1, 53, 80
2, 99120, Control_c, 1, 2, 80
2, 99359, Note_on_c, 1, 53, 0
2, 99360, Note_on_c, 1, 57, 80
2, 99360, Control_c, 1, 2, 80
2, 99599, Note_on_c, 1, 57, 0
2, 99600, Note_on_c, 1, 53, 80
2, 99600, Control_c, 1, 2, 80
2, 99839, Note_on_c, 1, 53, 0
2, 99840, Note_on_c, 1, 48, 80
2, 99840, Control_c, 1, 2, 80
2, 100079, Note_on_c, 1, 48, 0
2, 100080, Note_on_c, 1, 55, 80
2, 100080, Control_c, 1, 2, 80
2, 100319, Note_on_c, 1, 55, 0
2, 100320, Note_on_c, 1, 60, 80
2, 100559, Note_on_c, 1, 60, 0
2, 100560, Note_on_c, 1, 55, 80
2, 100799, Note_on_c, 1, 55, 0
2, 100800, Note_on_c, 1, 48, 80
2, 101039, Note_on_c, 1, 48, 0
2, 101040, Note_on_c, 1, 55, 80
2, 101040, Control_c, 1, 2, 80
2, 101279, Note_on_c, 1, 55, 0
2, 101280, Note_on_c, 1, 60, 80
2, 101280, Control_c, 1, 2, 80
2, 101519, Note_on_c, 1, 60, 0
2, 101520, Note_on_c, 1, 55, 80
2, 101520, Control_c, 1, 2, 80
2, 101759, Note_on_c, 1, 55, 0
2, 101760, Note_on_c, 1, 48, 80
2, 101760, Control_c, 1, 2, 80
2, 101999, Note_on_c, 1, 48, 0
2, 102000, Note_on_c, 1, 55, 80
2, 102000, Control_c, 1, 2, 80
2, 102239, Note_on_c, 1, 55, 0
2, 102240, Note_on_c, 1, 60, 80
2, 102479, Note_on_c, 1, 60, 0
2, 102480, Note_on_c, 1, 55, 80
2, 102719, Note_on_c, 1, 55, 0
2, 102720, Note_on_c, 1, 48, 80
2, 102959, Note_on_c, 1, 48, 0
2, 102960, Note_on_c, 1, 55, 80
2, 102960, Control_c, 1, 2, 80
2, 103199, Note_on_c, 1, 55, 0
2, 103200, Note_on_c, 1, 60, 80
2, 103200, Control_c, 1, 2, 80
2, 103439, Note_on_c, 1, 60, 0
2, 103440, Note_on_c, 1, 55, 80
2, 103440, Control_c, 1, 2, 80
2, 103679, Note_on_c, 1, 55, 0
2, 103680, Note_on_c, 1, 52, 80
2, 103680, Control_c, 1, 2, 80
2, 103919, Note_on_c, 1, 52, 0
2, 103920, Note_on_c, 1, 55, 80
2, 103920, Control_c, 1, 2, 80
2, 104159, Note_on_c, 1, 55, 0
2, 104160, Note_on_c, 1, 59, 80
2, 104399, Note_on_c, 1, 59, 0
2, 104400, Note_on_c, 1, 55, 80
2, 104639, Note_on_c, 1, 55, 0
2, 104640, Note_on_c, 1, 52, 80
2, 104879, Note_on_c, 1, 52, 0
2, 104880, Note_on_c, 1, 55, 80
2, 104880, Control_c, 1, 2, 80
2, 105119, Note_on_c, 1, 55, 0
2, 105120, Note_on_c, 1, 59, 80
2, 105120, Control_c, 1, 2, 80
2, 105359, Note_on_c, 1, 59, 0
2, 105360, Note_on_c, 1, 55, 80
2, 105599, Note_on_c, 1, 55, 0
2, 105600, Note_on_c, 1, 52, 80
2, 105600, Control_c, 1, 2, 80
2, 105839, Note_on_c, 1, 52, 0
2, 105840, Note_on_c, 1, 55, 80
2, 105840, Control_c, 1, 2, 80
2, 106079, Note_on_c, 1, 55, 0
2, 106080, Note_on_c, 1, 59, 80
2, 106319, Note_on_c, 1, 59, 0
2, 106320, Note_on_c, 1, 55, 80
2, 106559, Note_on_c, 1, 55, 0
2, 106560, Note_on_c, 1, 52, 80
2, 106560, Control_c, 1, 2, 80
2, 106799, Note_on_c, 1, 52, 0
2, 106800, Note_on_c, 1, 55, 80
2, 106800, Control_c, 1, 2, 80
2, 107039, Note_on_c, 1, 55, 0
2, 107040, Note_on_c, 1, 59, 80
2, 107040, Control_c, 1, 2, 80
2, 107279, Note_on_c, 1, 59, 0
2, 107280, Note_on_c, 1, 55, 80
2, 107519, Note_on_c, 1, 55, 0
2, 107520, Note_on_c, 1, 48, 80
2, 107520, Control_c, 1, 2, 80
2, 107759, Note_on_c, 1, 48, 0
2, 107760, Note_on_c, 1, 52, 80
2, 107760, Control_c, 1, 2, 80
2, 108239, Note_on_c, 1, 52, 0
2, 108240, Note_on_c, 1, 52, 80
2, 108240, Control_c, 1, 2, 80
2, 108479, Note_on_c, 1, 52, 0
2, 108480, Note_on_c, 1, 48, 80
2, 108480, Control_c, 1, 2, 80
2, 108719, Note_on_c, 1, 48, 0
2, 108720, Note_on_c, 1, 52, 80
2, 108720, Control_c, 1, 2, 80
2, 109199, Note_on_c, 1, 52, 0
2, 109200, Note_on_c, 1, 52, 80
2, 109200, Control_c, 1, 2, 80
2, 109439, Note_on_c, 1, 52, 0
2, 109440, Note_on_c, 1, 48, 80
2, 109440, Control_c, 1, 2, 80
2, 109679, Note_on_c, 1, 48, 0
2, 109680, Note_on_c, 1, 52, 80
2, 109680, Control_c, 1, 2, 80
2, 110159, Note_on_c, 1, 52, 0
2, 110160, Note_on_c, 1, 52, 80
2, 110160, Control_c, 1, 2, 80
2, 110399, Note_on_c, 1, 52, 0
2, 110400, Note_on_c, 1, 48, 80
2, 110400, Control_c, 1, 2, 80
2, 110639, Note_on_c, 1, 48, 0
2, 110640, Note_on_c, 1, 52, 80
2, 110640, Control_c, 1, 2, 80
2, 110879, Note_on_c, 1, 52, 0
2, 110880, Note_on_c, 1, 57, 80
2, 110880, Control_c, 1, 2, 80
2, 111119, Note_on_c, 1, 57, 0
2, 111120, Note_on_c, 1, 52, 80
2, 111120, Control_c, 1, 2, 80
2, 111359, Note_on_c, 1, 52, 0
2, 111360, Note_on_c, 1, 48, 80
2, 111360, Control_c, 1, 2, 80
2, 111599, Note_on_c, 1, 48, 0
2, 111600, Note_on_c, 1, 53, 80
2, 111600, Control_c, 1, 2, 80
2, 112079, Note_on_c, 1, 53, 0
2, 112080, Note_on_c, 1, 53, 80
2, 112080, Control_c, 1, 2, 80
2, 112319, Note_on_c, 1, 53, 0
2, 112320, Note_on_c, 1, 48, 80
2, 112320, Control_c, 1, 2, 80
2, 112559, Note_on_c, 1, 48, 0
2, 112560, Note_on_c, 1, 53, 80
2, 112560, Control_c, 1, 2, 80
2, 113039, Note_on_c, 1, 53, 0
2, 113040, Note_on_c, 1, 53, 80
2, 113040, Control_c, 1, 2, 80
2, 113279, Note_on_c, 1, 53, 0
2, 113280, Note_on_c, 1, 48, 80
2, 113280, Control_c, 1, 2, 80
2, 113519, Note_on_c, 1, 48, 0
2, 113520, Note_on_c, 1, 53, 80
2, 113520, Control_c, 1, 2, 80
2, 113999, Note_on_c, 1, 53, 0
2, 114000, Note_on_c, 1, 53, 80
2, 114000, Control_c, 1, 2, 80
2, 114239, Note_on_c, 1, 53, 0
2, 114240, Note_on_c, 1, 48, 80
2, 114240, Control_c, 1, 2, 80
2, 114479, Note_on_c, 1, 48, 0
2, 114480, Note_on_c, 1, 53, 80
2, 114480, Control_c, 1, 2, 80
2, 114719, Note_on_c, 1, 53, 0
2, 114720, Note_on_c, 1, 57, 80
2, 114720, Control_c, 1, 2, 80
2, 114959, Note_on_c, 1, 57, 0
2, 114960, Note_on_c, 1, 53, 80
2, 114960, Control_c, 1, 2, 80
2, 115199, Note_on_c, 1, 53, 0
2, 115200, Note_on_c, 1, 48, 80
2, 115200, Control_c, 1, 2, 80
2, 115439, Note_on_c, 1, 48, 0
2, 115440, Note_on_c, 1, 55, 80
2, 115440, Control_c, 1, 2, 80
2, 115919, Note_on_c, 1, 55, 0
2, 115920, Note_on_c, 1, 55, 80
2, 115920, Control_c, 1, 2, 80
2, 116159, Note_on_c, 1, 55, 0
2, 116160, Note_on_c, 1, 48, 80
2, 116160, Control_c, 1, 2, 80
2, 116399, Note_on_c, 1, 48, 0
2, 116400, Note_on_c, 1, 55, 80
2, 116400, Control_c, 1, 2, 80
2, 116879, Note_on_c, 1, 55, 0
2, 116880, Note_on_c, 1, 55, 80
2, 116880, Control_c, 1, 2, 80
2, 117119, Note_on_c, 1, 55, 0
2, 117120, Note_on_c, 1, 48, 80
2, 117120, Control_c, 1, 2, 80
2, 117359, Note_on_c, 1, 48, 0
2, 117360, Note_on_c, 1, 55, 80
2, 117360, Control_c, 1, 2, 80
2, 117839, Note_on_c, 1, 55, 0
2, 117840, Note_on_c, 1, 55, 80
2, 117840, Control_c, 1, 2, 80
2, 118079, Note_on_c, 1, 55, 0
2, 118080, Note_on_c, 1, 48, 80
2, 118080, Control_c, 1, 2, 80
2, 118319, Note_on_c, 1, 48, 0
2, 118320, Note_on_c, 1, 55, 80
2, 118320, Control_c, 1, 2, 80
2, 118799, Note_on_c, 1, 55, 0
2, 118800, Note_on_c, 1, 55, 80
2, 118800, Control_c, 1, 2, 80
2, 119039, Note_on_c, 1, 55, 0
2, 119040, Note_on_c, 1, 52, 80
2, 119040, Control_c, 1, 2, 80
2, 119279, Note_on_c, 1, 52, 0
2, 119280, Note_on_c, 1, 55, 80
2, 119280, Control_c, 1, 2, 80
2, 119759, Note_on_c, 1, 55, 0
2, 119760, Note_on_c, 1, 55, 80
2, 119760, Control_c, 1, 2, 80
2, 119999, Note_on_c, 1, 55, 0
2, 120000, Note_on_c, 1, 52, 80
2, 120000, Control_c, 1, 2, 80
2, 120239, Note_on_c, 1, 52, 0
2, 120240, Note_on_c, 1, 55, 80
2, 120240, Control_c, 1, 2, 80
2, 120719, Note_on_c, 1, 55, 0
2, 120720, Note_on_c, 1, 55, 80
2, 120720, Control_c, 1, 2, 80
2, 120959, Note_on_c, 1, 55, 0
2, 120960, Note_on_c, 1, 52, 80
2, 120960, Control_c, 1, 2, 80
2, 121199, Note_on_c, 1, 52, 0
2, 121200, Note_on_c, 1, 55, 80
2, 121200, Control_c, 1, 2, 80
2, 121679, Note_on_c, 1, 55, 0
2, 121680, Note_on_c, 1, 55, 80
2, 121680, Control_c, 1, 2, 80
2, 121919, Note_on_c, 1, 55, 0
2, 121920, Note_on_c, 1, 52, 80
2, 121920, Control_c, 1, 2, 80
2, 122159, Note_on_c, 1, 52, 0
2, 122160, Note_on_c, 1, 55, 80
2, 122160, Control_c, 1, 2, 80
2, 122399, Note_on_c, 1, 55, 0
2, 122400, Note_on_c, 1, 59, 80
2, 122400, Control_c, 1, 2, 80
2, 122639, Note_on_c, 1, 59, 0
2, 122640, Note_on_c, 1, 55, 80
2, 122640, Control_c, 1, 2, 80
2, 122879, Note_on_c, 1, 55, 0
2, 122880, Note_on_c, 1, 57, 80
2, 122880, Control_c, 1, 2, 80
2, 123119, Note_on_c, 1, 57, 0
2, 123120, Note_on_c, 1, 64, 80
2, 123120, Control_c, 1, 2, 80
2, 123599, Note_on_c, 1, 64, 0
2, 123600, Note_on_c, 1, 64, 80
2, 123600, Control_c, 1, 2, 80
2, 123839, Note_on_c, 1, 64, 0
2, 123840, Note_on_c, 1, 57, 80
2, 123840, Control_c, 1, 2, 80
2, 124079, Note_on_c, 1, 57, 0
2, 124080, Note_on_c, 1, 64, 80
2, 124080, Control_c, 1, 2, 80
2, 124559, Note_on_c, 1, 64, 0
2, 124560, Note_on_c, 1, 64, 80
2, 124560, Control_c, 1, 2, 80
2, 124799, Note_on_c, 1, 64, 0
2, 124800, Note_on_c, 1, 57, 80
2, 124800, Control_c, 1, 2, 80
2, 125039, Note_on_c, 1, 57, 0
2, 125040, Note_on_c, 1, 64, 80
2, 125040, Control_c, 1, 2, 80
2, 125519, Note_on_c, 1, 64, 0
2, 125520, Note_on_c, 1, 64, 80
2, 125520, Control_c, 1, 2, 80
2, 125759, Note_on_c, 1, 64, 0
2, 125760, Note_on_c, 1, 57, 80
2, 125760, Control_c, 1, 2, 80
2, 125999, Note_on_c, 1, 57, 0
2, 126000, Note_on_c, 1, 64, 80
2, 126000, Control_c, 1, 2, 80
2, 126479, Note_on_c, 1, 64, 0
2, 126480, Note_on_c, 1, 64, 80
2, 126480, Control_c, 1, 2, 80
2, 126719, Note_on_c, 1, 64, 0
2, 126720, Note_on_c, 1, 53, 80
2, 126720, Control_c, 1, 2, 80
2, 126959, Note_on_c, 1, 53, 0
2, 126960, Note_on_c, 1, 60, 80
2, 126960, Control_c, 1, 2, 80
2, 127199, Note_on_c, 1, 60, 0
2, 127200, Note_on_c, 1, 65, 80
2, 127200, Control_c, 1, 2, 80
2, 127439, Note_on_c, 1, 65, 0
2, 127440, Note_on_c, 1, 60, 80
2, 127440, Control_c, 1, 2, 80
2, 127679, Note_on_c, 1, 60, 0
2, 127680, Note_on_c, 1, 53, 80
2, 127680, Control_c, 1, 2, 80
2, 127919, Note_on_c, 1, 53, 0
2, 127920, Note_on_c, 1, 60, 80
2, 127920, Control_c, 1, 2, 80
2, 128159, Note_on_c, 1, 60, 0
2, 128160, Note_on_c, 1, 65, 80
2, 128160, Control_c, 1, 2, 80
2, 128399, Note_on_c, 1, 65, 0
2, 128400, Note_on_c, 1, 60, 80
2, 128400, Control_c, 1, 2, 80
2, 128639, Note_on_c, 1, 60, 0
2, 128640, Note_on_c, 1, 53, 80
2, 128640, Control_c, 1, 2, 80
2, 128879, Note_on_c, 1, 53, 0
2, 128880, Note_on_c, 1, 60, 80
2, 128880, Control_c, 1, 2, 80
2, 129119, Note_on_c, 1, 60, 0
2, 129120, Note_on_c, 1, 65, 80
2, 129120, Control_c, 1, 2, 80
2, 129359, Note_on_c, 1, 65, 0
2, 129360, Note_on_c, 1, 60, 80
2, 129360, Control_c, 1, 2, 80
2, 129599, Note_on_c, 1, 60, 0
2, 129600, Note_on_c, 1, 53, 80
2, 129600, Control_c, 1, 2, 80
2, 129839, Note_on_c, 1, 53, 0
2, 129840, Note_on_c, 1, 60, 80
2, 129840, Control_c, 1, 2, 80
2, 130079, Note_on_c, 1, 60, 0
2, 130080, Note_on_c, 1, 65, 80
2, 130080, Control_c, 1, 2, 80
2, 130319, Note_on_c, 1, 65, 0
2, 130320, Note_on_c, 1, 60, 80
2, 130320, Control_c, 1, 2, 80
2, 130559, Note_on_c, 1, 60, 0
2, 130560, Note_on_c, 1, 55, 80
2, 130560, Control_c, 1, 2, 80
2, 130799, Note_on_c, 1, 55, 0
2, 130800, Note_on_c, 1, 60, 80
2, 130800, Control_c, 1, 2, 80
2, 131039, Note_on_c, 1, 60, 0
2, 131040, Note_on_c, 1, 64, 80
2, 131040, Control_c, 1, 2, 80
2, 131279, Note_on_c, 1, 64, 0
2, 131280, Note_on_c, 1, 60, 80
2, 131280, Control_c, 1, 2, 80
2, 131519, Note_on_c, 1, 60, 0
2, 131520, Note_on_c, 1, 55, 80
2, 131520, Control_c, 1, 2, 80
2, 131759, Note_on_c, 1, 55, 0
2, 131760, Note_on_c, 1, 60, 80
2, 131760, Control_c, 1, 2, 80
2, 131999, Note_on_c, 1, 60, 0
2, 132000, Note_on_c, 1, 64, 80
2, 132000, Control_c, 1, 2, 80
2, 132239, Note_on_c, 1, 64, 0
2, 132240, Note_on_c, 1, 60, 80
2, 132240, Control_c, 1, 2, 80
2, 132479, Note_on_c, 1, 60, 0
2, 132480, Note_on_c, 1, 55, 80
2, 132480, Control_c, 1, 2, 80
2, 132719, Note_on_c, 1, 55, 0
2, 132720, Note_on_c, 1, 60, 80
2, 132720, Control_c, 1, 2, 80
2, 132959, Note_on_c, 1, 60, 0
2, 132960, Note_on_c, 1, 64, 80
2, 132960, Control_c, 1, 2, 80
2, 133199, Note_on_c, 1, 64, 0
2, 133200, Note_on_c, 1, 60, 80
2, 133200, Control_c, 1, 2, 80
2, 133439, Note_on_c, 1, 60, 0
2, 133440, Note_on_c, 1, 55, 80
2, 133440, Control_c, 1, 2, 80
2, 133679, Note_on_c, 1, 55, 0
2, 133680, Note_on_c, 1, 60, 80
2, 133680, Control_c, 1, 2, 80
2, 133919, Note_on_c, 1, 60, 0
2, 133920, Note_on_c, 1, 64, 80
2, 133920, Control_c, 1, 2, 80
2, 134159, Note_on_c, 1, 64, 0
2, 134160, Note_on_c, 1, 60, 80
2, 134160, Control_c, 1, 2, 80
2, 134399, Note_on_c, 1, 60, 0
2, 134400, Note_on_c, 1, 55, 80
2, 134400, Control_c, 1, 2, 80
2, 134639, Note_on_c, 1, 55, 0
2, 134640, Note_on_c, 1, 59, 80
2, 134640, Control_c, 1, 2, 80
2, 134879, Note_on_c, 1, 59, 0
2, 134880, Note_on_c, 1, 62, 80
2, 134880, Control_c, 1, 2, 80
2, 135119, Note_on_c, 1, 62, 0
2, 135120, Note_on_c, 1, 59, 80
2, 135120, Control_c, 1, 2, 80
2, 135359, Note_on_c, 1, 59, 0
2, 135360, Note_on_c, 1, 55, 80
2, 135360, Control_c, 1, 2, 80
2, 135599, Note_on_c, 1, 55, 0
2, 135600, Note_on_c, 1, 59, 80
2, 135600, Control_c, 1, 2, 80
2, 135839, Note_on_c, 1, 59, 0
2, 135840, Note_on_c, 1, 62, 80
2, 135840, Control_c, 1, 2, 80
2, 136079, Note_on_c, 1, 62, 0
2, 136080, Note_on_c, 1, 59, 80
2, 136080, Control_c, 1, 2, 80
2, 136319, Note_on_c, 1, 59, 0
2, 136320, Note_on_c, 1, 55, 80
2, 136320, Control_c, 1, 2, 80
2, 136559, Note_on_c, 1, 55, 0
2, 136560, Note_on_c, 1, 59, 80
2, 136560, Control_c, 1, 2, 80
2, 136799, Note_on_c, 1, 59, 0
2, 136800, Note_on_c, 1, 62, 80
2, 136800, Control_c, 1, 2, 80
2, 137039, Note_on_c, 1, 62, 0
2, 137040, Note_on_c, 1, 59, 80
2, 137040, Control_c, 1, 2, 80
2, 137279, Note_on_c, 1, 59, 0
2, 137280, Note_on_c, 1, 55, 80
2, 137280, Control_c, 1, 2, 80
2, 137519, Note_on_c, 1, 55, 0
2, 137520, Note_on_c, 1, 59, 80
2, 137520, Control_c, 1, 2, 80
2, 137759, Note_on_c, 1, 59, 0
2, 137760, Note_on_c, 1, 62, 80
2, 137760, Control_c, 1, 2, 80
2, 137999, Note_on_c, 1, 62, 0
2, 138000, Note_on_c, 1, 59, 80
2, 138000, Control_c, 1, 2, 80
2, 138239, Note_on_c, 1, 59, 0
2, 138240, Note_on_c, 1, 57, 80
2, 138240, Control_c, 1, 2, 80
2, 138479, Note_on_c, 1, 57, 0
2, 138480, Note_on_c, 1, 64, 80
2, 138480, Control_c, 1, 2, 80
2, 138959, Note_on_c, 1, 64, 0
2, 138960, Note_on_c, 1, 64, 80
2, 138960, Control_c, 1, 2, 80
2, 139199, Note_on_c, 1, 64, 0
2, 139200, Note_on_c, 1, 57, 80
2, 139200, Control_c, 1, 2, 80
2, 139439, Note_on_c, 1, 57, 0
2, 139440, Note_on_c, 1, 64, 80
2, 139440, Control_c, 1, 2, 80
2, 139919, Note_on_c, 1, 64, 0
2, 139920, Note_on_c, 1, 64, 80
2, 139920, Control_c, 1, 2, 80
2, 140159, Note_on_c, 1, 64, 0
2, 140160, Note_on_c, 1, 57, 80
2, 140160, Control_c, 1, 2, 80
2, 140399, Note_on_c, 1, 57, 0
2, 140400, Note_on_c, 1, 64, 80
2, 140400, Control_c, 1, 2, 80
2, 140879, Note_on_c, 1, 64, 0
2, 140880, Note_on_c, 1, 64, 80
2, 140880, Control_c, 1, 2, 80
2, 141119, Note_on_c, 1, 64, 0
2, 141120, Note_on_c, 1, 57, 80
2, 141120, Control_c, 1, 2, 80
2, 141359, Note_on_c, 1, 57, 0
2, 141360, Note_on_c, 1, 64, 80
2, 141360, Control_c, 1, 2, 80
2, 141839, Note_on_c, 1, 64, 0
2, 141840, Note_on_c, 1, 64, 80
2, 141840, Control_c, 1, 2, 80
2, 142079, Note_on_c, 1, 64, 0
2, 142080, Note_on_c, 1, 53, 80
2, 142080, Control_c, 1, 2, 80
2, 142319, Note_on_c, 1, 53, 0
2, 142320, Note_on_c, 1, 60, 80
2, 142320, Control_c, 1, 2, 80
2, 142559, Note_on_c, 1, 60, 0
2, 142560, Note_on_c, 1, 65, 80
2, 142560, Control_c, 1, 2, 80
2, 142799, Note_on_c, 1, 65, 0
2, 142800, Note_on_c, 1, 60, 80
2, 142800, Control_c, 1, 2, 80
2, 143039, Note_on_c, 1, 60, 0
2, 143040, Note_on_c, 1, 53, 80
2, 143040, Control_c, 1, 2, 80
2, 143279, Note_on_c, 1, 53, 0
2, 143280, Note_on_c, 1, 60, 80
2, 143280, Control_c, 1, 2, 80
2, 143519, Note_on_c, 1, 60, 0
2, 143520, Note_on_c, 1, 65, 80
2, 143520, Control_c, 1, 2, 80
2, 143759, Note_on_c, 1, 65, 0
2, 143760, Note_on_c, 1, 60, 80
2, 143760, Control_c, 1, 2, 80
2, 143999, Note_on_c, 1, 60, 0
2, 144000, Note_on_c, 1, 53, 80
2, 144000, Control_c, 1, 2, 80
2, 144239, Note_on_c, 1, 53, 0
2, 144240, Note_on_c, 1, 60, 80
2, 144240, Control_c, 1, 2, 80
2, 144479, Note_on_c, 1, 60, 0
2, 144480, Note_on_c, 1, 65, 80
2, 144480, Control_c, 1, 2, 80
2, 144719, Note_on_c, 1, 65, 0
2, 144720, Note_on_c, 1, 60, 80
2, 144720, Control_c, 1, 2, 80
2, 144959, Note_on_c, 1, 60, 0
2, 144960, Note_on_c, 1, 53, 80
2, 144960, Control_c, 1, 2, 80
2, 145199, Note_on_c, 1, 53, 0
2, 145200, Note_on_c, 1, 60, 80
2, 145200, Control_c, 1, 2, 80
2, 145439, Note_on_c, 1, 60, 0
2, 145440, Note_on_c, 1, 65, 80
2, 145440, Control_c, 1, 2, 80
2, 145679, Note_on_c, 1, 65, 0
2, 145680, Note_on_c, 1, 60, 80
2, 145680, Control_c, 1, 2, 80
2, 145919, Note_on_c, 1, 60, 0
2, 145920, Note_on_c, 1, 55, 80
2, 145920, Control_c, 1, 2, 80
2, 146159, Note_on_c, 1, 55, 0
2, 146160, Note_on_c, 1, 60, 80
2, 146160, Control_c, 1, 2, 80
2, 146399, Note_on_c, 1, 60, 0
2, 146400, Note_on_c, 1, 64, 80
2, 146400, Control_c, 1, 2, 80
2, 146639, Note_on_c, 1, 64, 0
2, 146640, Note_on_c, 1, 60, 80
2, 146640, Control_c, 1, 2, 80
2, 146879, Note_on_c, 1, 60, 0
2, 146880, Note_on_c, 1, 55, 80
2, 146880, Control_c, 1, 2, 80
2, 147119, Note_on_c, 1, 55, 0
2, 147120, Note_on_c, 1, 60, 80
2, 147120, Control_c, 1, 2, 80
2, 147359, Note_on_c, 1, 60, 0
2, 147360, Note_on_c, 1, 64, 80
2, 147360, Control_c, 1, 2, 80
2, 147599, Note_on_c, 1, 64, 0
2, 147600, Note_on_c, 1, 60, 80
2, 147600, Control_c, 1, 2, 80
2, 147839, Note_on_c, 1, 60, 0
2, 147840, Note_on_c, 1, 55, 80
2, 147840, Control_c, 1, 2, 80
2, 148079, Note_on_c, 1, 55, 0
2, 148080, Note_on_c, 1, 60, 80
2, 148080, Control_c, 1, 2, 80
2, 148319, Note_on_c, 1, 60, 0
2, 148320, Note_on_c, 1, 64, 80
2, 148320, Control_c, 1, 2, 80
2, 148559, Note_on_c, 1, 64, 0
2, 148560, Note_on_c, 1, 60, 80
2, 148560, Control_c, 1, 2, 80
2, 148799, Note_on_c, 1, 60, 0
2, 148800, Note_on_c, 1, 55, 80
2, 148800, Control_c, 1, 2, 80
2, 149039, Note_on_c, 1, 55, 0
2, 149040, Note_on_c, 1, 60, 80
2, 149040, Control_c, 1, 2, 80
2, 149279, Note_on_c, 1, 60, 0
2, 149280, Note_on_c, 1, 64, 80
2, 149280, Control_c, 1, 2, 80
2, 149519, Note_on_c, 1, 64, 0
2, 149520, Note_on_c, 1, 60, 80
2, 149520, Control_c, 1, 2, 80
2, 149759, Note_on_c, 1, 60, 0
2, 149760, Note_on_c, 1, 55, 80
2, 149760, Control_c, 1, 2, 80
2, 149999, Note_on_c, 1, 55, 0
2, 150000, Note_on_c, 1, 59, 80
2, 150000, Control_c, 1, 2, 80
2, 150239, Note_on_c, 1, 59, 0
2, 150240, Note_on_c, 1, 64, 80
2, 150240, Control_c, 1, 2, 80
2, 150479, Note_on_c, 1, 64, 0
2, 150480, Note_on_c, 1, 59, 80
2, 150480, Control_c, 1, 2, 80
2, 150719, Note_on_c, 1, 59, 0
2, 150720, Note_on_c, 1, 55, 80
2, 150720, Control_c, 1, 2, 80
2, 150959, Note_on_c, 1, 55, 0
2, 150960, Note_on_c, 1, 59, 80
2, 150960, Control_c, 1, 2, 80
2, 151199, Note_on_c, 1, 59, 0
2, 151200, Note_on_c, 1, 64, 80
2, 151200, Control_c, 1, 2, 80
2, 151439, Note_on_c, 1, 64, 0
2, 151440, Note_on_c, 1, 59, 80
2, 151440, Control_c, 1, 2, 80
2, 151679, Note_on_c, 1, 59, 0
2, 151680, Note_on_c, 1, 55, 80
2, 151680, Control_c, 1, 2, 80
2, 151919, Note_on_c, 1, 55, 0
2, 151920, Note_on_c, 1, 59, 80
2, 151920, Control_c, 1, 2, 80
2, 152159, Note_on_c, 1, 59, 0
2, 152160, Note_on_c, 1, 64, 80
2, 152160, Control_c, 1, 2, 80
2, 152399, Note_on_c, 1, 64, 0
2, 152400, Note_on_c, 1, 59, 80
2, 152400, Control_c, 1, 2, 80
2, 152639, Note_on_c, 1, 59, 0
2, 152640, Note_on_c, 1, 55, 80
2, 152640, Control_c, 1, 2, 80
2, 152879, Note_on_c, 1, 55, 0
2, 152880, Note_on_c, 1, 59, 80
2, 152880, Control_c, 1, 2, 80
2, 153119, Note_on_c, 1, 59, 0
2, 153120, Note_on_c, 1, 64, 80
2, 153120, Control_c, 1, 2, 80
2, 153359, Note_on_c, 1, 64, 0
2, 153360, Note_on_c, 1, 59, 80
2, 153360, Control_c, 1, 2, 80
2, 153599, Note_on_c, 1, 59, 0
2, 153600, Note_on_c, 1, 57, 80
2, 153600, Control_c, 1, 2, 80
2, 155520, Control_c, 1, 2, 80
2, 157439, Note_on_c, 1, 57, 0
2, 157440, Control_c, 1, 64, 0
2, 157441, End_track
3, 0, Start_track
3, 0, Title_t, "Bass\000"
3, 0, Key_signature, 0, "major"
3, 0, Control_c, 2, 121, 0
3, 0, Program_c, 2, 33
3, 0, Control_c, 2, 7, 100
3, 0, Control_c, 2, 10, 64
3, 0, Control_c, 2, 91, 0
3, 0, Control_c, 2, 93, 0
3, 0, MIDI_port, 0
3, 15360, Note_on_c, 2, 57, 80
3, 15360, Control_c, 2, 2, 80
3, 17279, Note_on_c, 2, 57, 0
3, 19200, Note_on_c, 2, 53, 80
3, 19200, Control_c, 2, 2, 80
3, 21120, Control_c, 2, 2, 80
3, 23039, Note_on_c, 2, 53, 0
3, 23040, Note_on_c, 2, 60, 80
3, 23040, Control_c, 2, 2, 80
3, 24959, Note_on_c, 2, 60, 0
3, 26880, Note_on_c, 2, 59, 80
3, 26880, Control_c, 2, 2, 80
3, 28799, Note_on_c, 2, 59, 0
3, 30720, Note_on_c, 2, 57, 80
3, 30720, Control_c, 2, 2, 80
3, 32159, Note_on_c, 2, 57, 0
3, 32400, Note_on_c, 2, 57, 80
3, 32400, Control_c, 2, 2, 80
3, 32639, Note_on_c, 2, 57, 0
3, 32640, Note_on_c, 2, 57, 80
3, 32640, Control_c, 2, 2, 80
3, 34079, Note_on_c, 2, 57, 0
3, 34080, Note_on_c, 2, 57, 80
3, 34080, Control_c, 2, 2, 80
3, 34559, Note_on_c, 2, 57, 0
3, 34560, Note_on_c, 2, 53, 80
3, 34560, Control_c, 2, 2, 80
3, 35999, Note_on_c, 2, 53, 0
3, 36240, Note_on_c, 2, 53, 80
3, 36240, Control_c, 2, 2, 80
3, 36479, Note_on_c, 2, 53, 0
3, 36480, Note_on_c, 2, 53, 80
3, 36480, Control_c, 2, 2, 80
3, 37919, Note_on_c, 2, 53, 0
3, 37920, Note_on_c, 2, 53, 80
3, 37920, Control_c, 2, 2, 80
3, 38399, Note_on_c, 2, 53, 0
3, 38400, Note_on_c, 2, 60, 80
3, 38400, Control_c, 2, 2, 80
3, 39839, Note_on_c, 2, 60, 0
3, 40080, Note_on_c, 2, 60, 80
3, 40080, Control_c, 2, 2, 80
3, 40319, Note_on_c, 2, 60, 0
3, 40320, Note_on_c, 2, 60, 80
3, 40320, Control_c, 2, 2, 80
3, 41759, Note_on_c, 2, 60, 0
3, 41760, Note_on_c, 2, 60, 80
3, 41760, Control_c, 2, 2, 80
3, 42239, Note_on_c, 2, 60, 0
3, 42240, Note_on_c, 2, 55, 80
3, 42240, Control_c, 2, 2, 80
3, 43199, Note_on_c, 2, 55, 0
3, 43680, Note_on_c, 2, 55, 80
3, 43680, Control_c, 2, 2, 80
3, 44159, Note_on_c, 2, 55, 0
3, 44160, Note_on_c, 2, 59, 80
3, 44160, Control_c, 2, 2, 80
3, 45119, Note_on_c, 2, 59, 0
3, 45120, Note_on_c, 2, 55, 80
3, 45120, Control_c, 2, 2, 80
3, 46079, Note_on_c, 2, 55, 0
3, 46080, Note_on_c, 2, 57, 80
3, 46080, Control_c, 2, 2, 80
3, 46319, Note_on_c, 2, 57, 0
3, 46320, Note_on_c, 2, 57, 80
3, 46320, Control_c, 2, 2, 80
3, 47759, Note_on_c, 2, 57, 0
3, 48000, Note_on_c, 2, 57, 80
3, 48000, Control_c, 2, 2, 80
3, 48239, Note_on_c, 2, 57, 0
3, 48240, Note_on_c, 2, 57, 80
3, 48240, Control_c, 2, 2, 80
3, 48959, Note_on_c, 2, 57, 0
3, 48960, Note_on_c, 2, 59, 80
3, 48960, Control_c, 2, 2, 80
3, 49439, Note_on_c, 2, 59, 0
3, 49440, Note_on_c, 2, 60, 80
3, 49440, Control_c, 2, 2, 80
3, 49919, Note_on_c, 2, 60, 0
3, 49920, Note_on_c, 2, 53, 80
3, 49920, Control_c, 2, 2, 80
3, 50159, Note_on_c, 2, 53, 0
3, 50160, Note_on_c, 2, 53, 80
3, 50160, Control_c, 2, 2, 80
3, 51599, Note_on_c, 2, 53, 0
3, 51840, Note_on_c, 2, 53, 80
3, 51840, Control_c, 2, 2, 80
3, 52079, Note_on_c, 2, 53, 0
3, 52080, Note_on_c, 2, 53, 80
3, 52080, Control_c, 2, 2, 80
3, 52799, Note_on_c, 2, 53, 0
3, 52800, Note_on_c, 2, 53, 80
3, 52800, Control_c, 2, 2, 80
3, 53279, Note_on_c, 2, 53, 0
3, 53280, Note_on_c, 2, 55, 80
3, 53280, Control_c, 2, 2, 80
3, 53759, Note_on_c, 2, 55, 0
3, 53760, Note_on_c, 2, 60, 80
3, 53760, Control_c, 2, 2, 80
3, 53999, Note_on_c, 2, 60, 0
3, 54000, Note_on_c, 2, 60, 80
3, 54000, Control_c, 2, 2, 80
3, 55439, Note_on_c, 2, 60, 0
3, 55680, Note_on_c, 2, 60, 80
3, 55680, Control_c, 2, 2, 80
3, 55919, Note_on_c, 2, 60, 0
3, 55920, Note_on_c, 2, 60, 80
3, 55920, Control_c, 2, 2, 80
3, 56639, Note_on_c, 2, 60, 0
3, 56640, Note_on_c, 2, 60, 80
3, 56640, Control_c, 2, 2, 80
3, 57119, Note_on_c, 2, 60, 0
3, 57120, Note_on_c, 2, 62, 80
3, 57120, Control_c, 2, 2, 80
3, 57599, Note_on_c, 2, 62, 0
3, 57600, Note_on_c, 2, 59, 80
3, 57600, Control_c, 2, 2, 80
3, 57839, Note_on_c, 2, 59, 0
3, 57840, Note_on_c, 2, 59, 80
3, 57840, Control_c, 2, 2, 80
3, 59279, Note_on_c, 2, 59, 0
3, 59520, Note_on_c, 2, 59, 80
3, 59520, Control_c, 2, 2, 80
3, 59759, Note_on_c, 2, 59, 0
3, 59760, Note_on_c, 2, 59, 80
3, 59760, Control_c, 2, 2, 80
3, 60479, Note_on_c, 2, 59, 0
3, 60480, Note_on_c, 2, 55, 80
3, 60480, Control_c, 2, 2, 80
3, 61439, Note_on_c, 2, 55, 0
3, 61440, Note_on_c, 2, 57, 80
3, 61440, Control_c, 2, 2, 80
3, 61919, Note_on_c, 2, 57, 0
3, 61920, Note_on_c, 2, 57, 80
3, 61920, Control_c, 2, 2, 80
3, 62399, Note_on_c, 2, 57, 0
3, 62400, Note_on_c, 2, 57, 80
3, 62400, Control_c, 2, 2, 80
3, 62879, Note_on_c, 2, 57, 0
3, 62880, Note_on_c, 2, 57, 80
3, 62880, Control_c, 2, 2, 80
3, 63359, Note_on_c, 2, 57, 0
3, 63360, Note_on_c, 2, 57, 80
3, 63360, Control_c, 2, 2, 80
3, 63839, Note_on_c, 2, 57, 0
3, 63840, Note_on_c, 2, 57, 80
3, 63840, Control_c, 2, 2, 80
3, 64319, Note_on_c, 2, 57, 0
3, 64320, Note_on_c, 2, 57, 80
3, 64320, Control_c, 2, 2, 80
3, 64799, Note_on_c, 2, 57, 0
3, 64800, Note_on_c, 2, 57, 80
3, 64800, Control_c, 2, 2, 80
3, 65279, Note_on_c, 2, 57, 0
3, 65280, Note_on_c, 2, 53, 80
3, 65280, Control_c, 2, 2, 80
3, 65759, Note_on_c, 2, 53, 0
3, 65760, Note_on_c, 2, 53, 80
3, 65760, Control_c, 2, 2, 80
3, 66239, Note_on_c, 2, 53, 0
3, 66240, Note_on_c, 2, 53, 80
3, 66240, Control_c, 2, 2, 80
3, 66719, Note_on_c, 2, 53, 0
3, 66720, Note_on_c, 2, 53, 80
3, 66720, Control_c, 2, 2, 80
3, 67199, Note_on_c, 2, 53, 0
3, 67200, Note_on_c, 2, 53, 80
3, 67200, Control_c, 2, 2, 80
3, 67679, Note_on_c, 2, 53, 0
3, 67680, Note_on_c, 2, 53, 80
3, 67680, Control_c, 2, 2, 80
3, 68159, Note_on_c, 2, 53, 0
3, 68160, Note_on_c, 2, 53, 80
3, 68160, Control_c, 2, 2, 80
3, 68639, Note_on_c, 2, 53, 0
3, 68640, Note_on_c, 2, 53, 80
3, 68640, Control_c, 2, 2, 80
3, 69119, Note_on_c, 2, 53, 0
3, 69120, Note_on_c, 2, 60, 80
3, 69120, Control_c, 2, 2, 80
3, 69599, Note_on_c, 2, 60, 0
3, 69600, Note_on_c, 2, 60, 80
3, 69600, Control_c, 2, 2, 80
3, 70079, Note_on_c, 2, 60, 0
3, 70080, Note_on_c, 2, 60, 80
3, 70080, Control_c, 2, 2, 80
3, 70559, Note_on_c, 2, 60, 0
3, 70560, Note_on_c, 2, 60, 80
3, 70560, Control_c, 2, 2, 80
3, 71039, Note_on_c, 2, 60, 0
3, 71040, Note_on_c, 2, 60, 80
3, 71040, Control_c, 2, 2, 80
3, 71519, Note_on_c, 2, 60, 0
3, 71520, Note_on_c, 2, 60, 80
3, 71520, Control_c, 2, 2, 80
3, 71999, Note_on_c, 2, 60, 0
3, 72000, Note_on_c, 2, 60, 80
3, 72000, Control_c, 2, 2, 80
3, 72479, Note_on_c, 2, 60, 0
3, 72480, Note_on_c, 2, 60, 80
3, 72480, Control_c, 2, 2, 80
3, 72959, Note_on_c, 2, 60, 0
3, 72960, Note_on_c, 2, 59, 80
3, 72960, Control_c, 2, 2, 80
3, 73439, Note_on_c, 2, 59, 0
3, 73440, Note_on_c, 2, 59, 80
3, 73440, Control_c, 2, 2, 80
3, 73919, Note_on_c, 2, 59, 0
3, 73920, Note_on_c, 2, 59, 80
3, 73920, Control_c, 2, 2, 80
3, 74399, Note_on_c, 2, 59, 0
3, 74400, Note_on_c, 2, 59, 80
3, 74400, Control_c, 2, 2, 80
3, 74879, Note_on_c, 2, 59, 0
3, 74880, Note_on_c, 2, 59, 80
3, 74880, Control_c, 2, 2, 80
3, 75359, Note_on_c, 2, 59, 0
3, 75360, Note_on_c, 2, 59, 80
3, 75360, Control_c, 2, 2, 80
3, 75839, Note_on_c, 2, 59, 0
3, 75840, Note_on_c, 2, 59, 80
3, 75840, Control_c, 2, 2, 80
3, 76319, Note_on_c, 2, 59, 0
3, 76320, Note_on_c, 2, 59, 80
3, 76320, Control_c, 2, 2, 80
3, 76799, Note_on_c, 2, 59, 0
3, 76800, Note_on_c, 2, 57, 80
3, 76800, Control_c, 2, 2, 80
3, 77279, Note_on_c, 2, 57, 0
3, 77280, Note_on_c, 2, 57, 80
3, 77280, Control_c, 2, 2, 80
3, 77759, Note_on_c, 2, 57, 0
3, 77760, Note_on_c, 2, 57, 80
3, 77760, Control_c, 2, 2, 80
3, 78239, Note_on_c, 2, 57, 0
3, 78240, Note_on_c, 2, 57, 80
3, 78240, Control_c, 2, 2, 80
3, 78719, Note_on_c, 2, 57, 0
3, 78720, Note_on_c, 2, 57, 80
3, 78720, Control_c, 2, 2, 80
3, 79199, Note_on_c, 2, 57, 0
3, 79200, Note_on_c, 2, 57, 80
3, 79200, Control_c, 2, 2, 80
3, 79679, Note_on_c, 2, 57, 0
3, 79680, Note_on_c, 2, 57, 80
3, 79680, Control_c, 2, 2, 80
3, 80159, Note_on_c, 2, 57, 0
3, 80160, Note_on_c, 2, 57, 80
3, 80160, Control_c, 2, 2, 80
3, 80639, Note_on_c, 2, 57, 0
3, 80640, Note_on_c, 2, 53, 80
3, 80640, Control_c, 2, 2, 80
3, 81119, Note_on_c, 2, 53, 0
3, 81120, Note_on_c, 2, 53, 80
3, 81120, Control_c, 2, 2, 80
3, 81599, Note_on_c, 2, 53, 0
3, 81600, Note_on_c, 2, 53, 80
3, 81600, Control_c, 2, 2, 80
3, 82079, Note_on_c, 2, 53, 0
3, 82080, Note_on_c, 2, 53, 80
3, 82080, Control_c, 2, 2, 80
3, 82559, Note_on_c, 2, 53, 0
3, 82560, Note_on_c, 2, 53, 80
3, 82560, Control_c, 2, 2, 80
3, 83039, Note_on_c, 2, 53, 0
3, 83040, Note_on_c, 2, 53, 80
3, 83040, Control_c, 2, 2, 80
3, 83519, Note_on_c, 2, 53, 0
3, 83520, Note_on_c, 2, 53, 80
3, 83520, Control_c, 2, 2, 80
3, 83999, Note_on_c, 2, 53, 0
3, 84000, Note_on_c, 2, 53, 80
3, 84000, Control_c, 2, 2, 80
3, 84479, Note_on_c, 2, 53, 0
3, 84480, Note_on_c, 2, 60, 80
3, 84480, Control_c, 2, 2, 80
3, 84959, Note_on_c, 2, 60, 0
3, 84960, Note_on_c, 2, 60, 80
3, 84960, Control_c, 2, 2, 80
3, 85439, Note_on_c, 2, 60, 0
3, 85440, Note_on_c, 2, 60, 80
3, 85440, Control_c, 2, 2, 80
3, 85919, Note_on_c, 2, 60, 0
3, 85920, Note_on_c, 2, 60, 80
3, 85920, Control_c, 2, 2, 80
3, 86399, Note_on_c, 2, 60, 0
3, 86400, Note_on_c, 2, 60, 80
3, 86400, Control_c, 2, 2, 80
3, 86879, Note_on_c, 2, 60, 0
3, 86880, Note_on_c, 2, 60, 80
3, 86880, Control_c, 2, 2, 80
3, 87359, Note_on_c, 2, 60, 0
3, 87360, Note_on_c, 2, 60, 80
3, 87360, Control_c, 2, 2, 80
3, 87839, Note_on_c, 2, 60, 0
3, 87840, Note_on_c, 2, 60, 80
3, 87840, Control_c, 2, 2, 80
3, 88319, Note_on_c, 2, 60, 0
3, 88320, Note_on_c, 2, 59, 80
3, 88320, Control_c, 2, 2, 80
3, 88799, Note_on_c, 2, 59, 0
3, 88800, Note_on_c, 2, 59, 80
3, 88800, Control_c, 2, 2, 80
3, 89279, Note_on_c, 2, 59, 0
3, 89280, Note_on_c, 2, 59, 80
3, 89280, Control_c, 2, 2, 80
3, 89759, Note_on_c, 2, 59, 0
3, 89760, Note_on_c, 2, 59, 80
3, 89760, Control_c, 2, 2, 80
3, 90239, Note_on_c, 2, 59, 0
3, 90240, Note_on_c, 2, 59, 80
3, 90240, Control_c, 2, 2, 80
3, 90719, Note_on_c, 2, 59, 0
3, 90720, Note_on_c, 2, 59, 80
3, 90720, Control_c, 2, 2, 80
3, 91199, Note_on_c, 2, 59, 0
3, 91200, Note_on_c, 2, 59, 80
3, 91200, Control_c, 2, 2, 80
3, 91679, Note_on_c, 2, 59, 0
3, 91680, Note_on_c, 2, 59, 80
3, 91680, Control_c, 2, 2, 80
3, 92159, Note_on_c, 2, 59, 0
3, 92160, Note_on_c, 2, 57, 80
3, 92160, Control_c, 2, 2, 80
3, 94079, Note_on_c, 2, 57, 0
3, 94080, Note_on_c, 2, 57, 80
3, 94080, Control_c, 2, 2, 80
3, 95999, Note_on_c, 2, 57, 0
3, 96000, Note_on_c, 2, 53, 80
3, 96000, Control_c, 2, 2, 80
3, 97919, Note_on_c, 2, 53, 0
3, 97920, Note_on_c, 2, 53, 80
3, 97920, Control_c, 2, 2, 80
3, 99839, Note_on_c, 2, 53, 0
3, 99840, Note_on_c, 2, 60, 80
3, 99840, Control_c, 2, 2, 80
3, 101759, Note_on_c, 2, 60, 0
3, 101760, Note_on_c, 2, 60, 80
3, 101760, Control_c, 2, 2, 80
3, 103679, Note_on_c, 2, 60, 0
3, 103680, Note_on_c, 2, 59, 80
3, 103680, Control_c, 2, 2, 80
3, 105599, Note_on_c, 2, 59, 0
3, 105600, Note_on_c, 2, 59, 80
3, 105600, Control_c, 2, 2, 80
3, 107519, Note_on_c, 2, 59, 0
3, 107520, Note_on_c, 2, 57, 80
3, 107520, Control_c, 2, 2, 80
3, 107759, Note_on_c, 2, 57, 0
3, 107760, Note_on_c, 2, 57, 80
3, 107760, Control_c, 2, 2, 80
3, 109199, Note_on_c, 2, 57, 0
3, 109440, Note_on_c, 2, 57, 80
3, 109440, Control_c, 2, 2, 80
3, 109679, Note_on_c, 2, 57, 0
3, 109680, Note_on_c, 2, 57, 80
3, 109680, Control_c, 2, 2, 80
3, 110399, Note_on_c, 2, 57, 0
3, 110400, Note_on_c, 2, 59, 80
3, 110400, Control_c, 2, 2, 80
3, 110879, Note_on_c, 2, 59, 0
3, 110880, Note_on_c, 2, 60, 80
3, 110880, Control_c, 2, 2, 80
3, 111359, Note_on_c, 2, 60, 0
3, 111360, Note_on_c, 2, 53, 80
3, 111360, Control_c, 2, 2, 80
3, 111599, Note_on_c, 2, 53, 0
3, 111600, Note_on_c, 2, 53, 80
3, 111600, Control_c, 2, 2, 80
3, 113039, Note_on_c, 2, 53, 0
3, 113280, Note_on_c, 2, 53, 80
3, 113280, Control_c, 2, 2, 80
3, 113519, Note_on_c, 2, 53, 0
3, 113520, Note_on_c, 2, 53, 80
3, 113520, Control_c, 2, 2, 80
3, 114239, Note_on_c, 2, 53, 0
3, 114240, Note_on_c, 2, 53, 80
3, 114240, Control_c, 2, 2, 80
3, 114719, Note_on_c, 2, 53, 0
3, 114720, Note_on_c, 2, 55, 80
3, 114720, Control_c, 2, 2, 80
3, 115199, Note_on_c, 2, 55, 0
3, 115200, Note_on_c, 2, 60, 80
3, 115200, Control_c, 2, 2, 80
3, 115439, Note_on_c, 2, 60, 0
3, 115440, Note_on_c, 2, 60, 80
3, 115440, Control_c, 2, 2, 80
3, 116879, Note_on_c, 2, 60, 0
3, 117120, Note_on_c, 2, 60, 80
3, 117120, Control_c, 2, 2, 80
3, 117359, Note_on_c, 2, 60, 0
3, 117360, Note_on_c, 2, 60, 80
3, 117360, Control_c, 2, 2, 80
3, 118079, Note_on_c, 2, 60, 0
3, 118080, Note_on_c, 2, 60, 80
3, 118080, Control_c, 2, 2, 80
3, 118559, Note_on_c, 2, 60, 0
3, 118560, Note_on_c, 2, 62, 80
3, 118560, Control_c, 2, 2, 80
3, 119039, Note_on_c, 2, 62, 0
3, 119040, Note_on_c, 2, 59, 80
3, 119040, Control_c, 2, 2, 80
3, 119279, Note_on_c, 2, 59, 0
3, 119280, Note_on_c, 2, 59, 80
3, 119280, Control_c, 2, 2, 80
3, 120719, Note_on_c, 2, 59, 0
3, 120960, Note_on_c, 2, 59, 80
3, 120960, Control_c, 2, 2, 80
3, 121199, Note_on_c, 2, 59, 0
3, 121200, Note_on_c, 2, 59, 80
3, 121200, Control_c, 2, 2, 80
3, 121919, Note_on_c, 2, 59, 0
3, 121920, Note_on_c, 2, 55, 80
3, 121920, Control_c, 2, 2, 80
3, 122879, Note_on_c, 2, 55, 0
3, 122880, Note_on_c, 2, 57, 80
3, 122880, Control_c, 2, 2, 80
3, 123359, Note_on_c, 2, 57, 0
3, 123360, Note_on_c, 2, 57, 80
3, 123360, Control_c, 2, 2, 80
3, 123839, Note_on_c, 2, 57, 0
3, 123840, Note_on_c, 2, 57, 80
3, 123840, Control_c, 2, 2, 80
3, 124319, Note_on_c, 2, 57, 0
3, 124320, Note_on_c, 2, 57, 80
3, 124320, Control_c, 2, 2, 80
3, 124799, Note_on_c, 2, 57, 0
3, 124800, Note_on_c, 2, 57, 80
3, 124800, Control_c, 2, 2, 80
3, 125279, Note_on_c, 2, 57, 0
3, 125280, Note_on_c, 2, 57, 80
3, 125280, Control_c, 2, 2, 80
3, 125759, Note_on_c, 2, 57, 0
3, 125760, Note_on_c, 2, 57, 80
3, 125760, Control_c, 2, 2, 80
3, 126239, Note_on_c, 2, 57, 0
3, 126240, Note_on_c, 2, 57, 80
3, 126240, Control_c, 2, 2, 80
3, 126719, Note_on_c, 2, 57, 0
3, 126720, Note_on_c, 2, 53, 80
3, 126720, Control_c, 2, 2, 80
3, 127199, Note_on_c, 2, 53, 0
3, 127200, Note_on_c, 2, 53, 80
3, 127200, Control_c, 2, 2, 80
3, 127679, Note_on_c, 2, 53, 0
3, 127680, Note_on_c, 2, 53, 80
3, 127680, Control_c, 2, 2, 80
3, 128159, Note_on_c, 2, 53, 0
3, 128160, Note_on_c, 2, 53, 80
3, 128160, Control_c, 2, 2, 80
3, 128639, Note_on_c, 2, 53, 0
3, 128640, Note_on_c, 2, 53, 80
3, 128640, Control_c, 2, 2, 80
3, 129119, Note_on_c, 2, 53, 0
3, 129120, Note_on_c, 2, 53, 80
3, 129120, Control_c, 2, 2, 80
3, 129599, Note_on_c, 2, 53, 0
3, 129600, Note_on_c, 2, 53, 80
3, 129600, Control_c, 2, 2, 80
3, 130079, Note_on_c, 2, 53, 0
3, 130080, Note_on_c, 2, 53, 80
3, 130080, Control_c, 2, 2, 80
3, 130559, Note_on_c, 2, 53, 0
3, 130560, Note_on_c, 2, 60, 80
3, 130560, Control_c, 2, 2, 80
3, 131039, Note_on_c, 2, 60, 0
3, 131040, Note_on_c, 2, 60, 80
3, 131040, Control_c, 2, 2, 80
3, 131519, Note_on_c, 2, 60, 0
3, 131520, Note_on_c, 2, 60, 80
3, 131520, Control_c, 2, 2, 80
3, 131999, Note_on_c, 2, 60, 0
3, 132000, Note_on_c, 2, 60, 80
3, 132000, Control_c, 2, 2, 80
3, 132479, Note_on_c, 2, 60, 0
3, 132480, Note_on_c, 2, 60, 80
3, 132480, Control_c, 2, 2, 80
3, 132959, Note_on_c, 2, 60, 0
3, 132960, Note_on_c, 2, 60, 80
3, 132960, Control_c, 2, 2, 80
3, 133439, Note_on_c, 2, 60, 0
3, 133440, Note_on_c, 2, 60, 80
3, 133440, Control_c, 2, 2, 80
3, 133919, Note_on_c, 2, 60, 0
3, 133920, Note_on_c, 2, 60, 80
3, 133920, Control_c, 2, 2, 80
3, 134399, Note_on_c, 2, 60, 0
3, 134400, Note_on_c, 2, 59, 80
3, 134400, Control_c, 2, 2, 80
3, 134879, Note_on_c, 2, 59, 0
3, 134880, Note_on_c, 2, 59, 80
3, 134880, Control_c, 2, 2, 80
3, 135359, Note_on_c, 2, 59, 0
3, 135360, Note_on_c, 2, 59, 80
3, 135360, Control_c, 2, 2, 80
3, 135839, Note_on_c, 2, 59, 0
3, 135840, Note_on_c, 2, 59, 80
3, 135840, Control_c, 2, 2, 80
3, 136319, Note_on_c, 2, 59, 0
3, 136320, Note_on_c, 2, 59, 80
3, 136320, Control_c, 2, 2, 80
3, 136799, Note_on_c, 2, 59, 0
3, 136800, Note_on_c, 2, 59, 80
3, 136800, Control_c, 2, 2, 80
3, 137279, Note_on_c, 2, 59, 0
3, 137280, Note_on_c, 2, 59, 80
3, 137280, Control_c, 2, 2, 80
3, 137759, Note_on_c, 2, 59, 0
3, 137760, Note_on_c, 2, 59, 80
3, 137760, Control_c, 2, 2, 80
3, 138239, Note_on_c, 2, 59, 0
3, 138240, Note_on_c, 2, 57, 80
3, 138240, Control_c, 2, 2, 80
3, 138719, Note_on_c, 2, 57, 0
3, 138720, Note_on_c, 2, 57, 80
3, 138720, Control_c, 2, 2, 80
3, 139199, Note_on_c, 2, 57, 0
3, 139200, Note_on_c, 2, 57, 80
3, 139200, Control_c, 2, 2, 80
3, 139679, Note_on_c, 2, 57, 0
3, 139680, Note_on_c, 2, 57, 80
3, 139680, Control_c, 2, 2, 80
3, 140159, Note_on_c, 2, 57, 0
3, 140160, Note_on_c, 2, 57, 80
3, 140160, Control_c, 2, 2, 80
3, 140639, Note_on_c, 2, 57, 0
3, 140640, Note_on_c, 2, 57, 80
3, 140640, Control_c, 2, 2, 80
3, 141119, Note_on_c, 2, 57, 0
3, 141120, Note_on_c, 2, 57, 80
3, 141120, Control_c, 2, 2, 80
3, 141599, Note_on_c, 2, 57, 0
3, 141600, Note_on_c, 2, 57, 80
3, 141600, Control_c, 2, 2, 80
3, 142079, Note_on_c, 2, 57, 0
3, 142080, Note_on_c, 2, 53, 80
3, 142080, Control_c, 2, 2, 80
3, 142559, Note_on_c, 2, 53, 0
3, 142560, Note_on_c, 2, 53, 80
3, 142560, Control_c, 2, 2, 80
3, 143039, Note_on_c, 2, 53, 0
3, 143040, Note_on_c, 2, 53, 80
3, 143040, Control_c, 2, 2, 80
3, 143519, Note_on_c, 2, 53, 0
3, 143520, Note_on_c, 2, 53, 80
3, 143520, Control_c, 2, 2, 80
3, 143999, Note_on_c, 2, 53, 0
3, 144000, Note_on_c, 2, 53, 80
3, 144000, Control_c, 2, 2, 80
3, 144479, Note_on_c, 2, 53, 0
3, 144480, Note_on_c, 2, 53, 80
3, 144480, Control_c, 2, 2, 80
3, 144959, Note_on_c, 2, 53, 0
3, 144960, Note_on_c, 2, 53, 80
3, 144960, Control_c, 2, 2, 80
3, 145439, Note_on_c, 2, 53, 0
3, 145440, Note_on_c, 2, 53, 80
3, 145440, Control_c, 2, 2, 80
3, 145919, Note_on_c, 2, 53, 0
3, 145920, Note_on_c, 2, 60, 80
3, 145920, Control_c, 2, 2, 80
3, 146399, Note_on_c, 2, 60, 0
3, 146400, Note_on_c, 2, 60, 80
3, 146400, Control_c, 2, 2, 80
3, 146879, Note_on_c, 2, 60, 0
3, 146880, Note_on_c, 2, 60, 80
3, 146880, Control_c, 2, 2, 80
3, 147359, Note_on_c, 2, 60, 0
3, 147360, Note_on_c, 2, 60, 80
3, 147360, Control_c, 2, 2, 80
3, 147839, Note_on_c, 2, 60, 0
3, 147840, Note_on_c, 2, 60, 80
3, 147840, Control_c, 2, 2, 80
3, 148319, Note_on_c, 2, 60, 0
3, 148320, Note_on_c, 2, 60, 80
3, 148320, Control_c, 2, 2, 80
3, 148799, Note_on_c, 2, 60, 0
3, 148800, Note_on_c, 2, 60, 80
3, 148800, Control_c, 2, 2, 80
3, 149279, Note_on_c, 2, 60, 0
3, 149280, Note_on_c, 2, 60, 80
3, 149280, Control_c, 2, 2, 80
3, 149759, Note_on_c, 2, 60, 0
3, 149760, Note_on_c, 2, 59, 80
3, 149760, Control_c, 2, 2, 80
3, 150239, Note_on_c, 2, 59, 0
3, 150240, Note_on_c, 2, 59, 80
3, 150240, Control_c, 2, 2, 80
3, 150719, Note_on_c, 2, 59, 0
3, 150720, Note_on_c, 2, 59, 80
3, 150720, Control_c, 2, 2, 80
3, 151199, Note_on_c, 2, 59, 0
3, 151200, Note_on_c, 2, 59, 80
3, 151200, Control_c, 2, 2, 80
3, 151679, Note_on_c, 2, 59, 0
3, 151680, Note_on_c, 2, 59, 80
3, 151680, Control_c, 2, 2, 80
3, 152159, Note_on_c, 2, 59, 0
3, 152160, Note_on_c, 2, 59, 80
3, 152160, Control_c, 2, 2, 80
3, 152639, Note_on_c, 2, 59, 0
3, 152640, Note_on_c, 2, 59, 80
3, 152640, Control_c, 2, 2, 80
3, 153119, Note_on_c, 2, 59, 0
3, 153120, Note_on_c, 2, 59, 80
3, 153120, Control_c, 2, 2, 80
3, 153599, Note_on_c, 2, 59, 0
3, 153600, Note_on_c, 2, 57, 80
3, 153600, Control_c, 2, 2, 80
3, 155519, Note_on_c, 2, 57, 0
3, 155520, End_track
4, 0, Start_track
4, 0, Title_t, "Bell\000"
4, 0, Key_signature, 0, "major"
4, 0, Control_c, 3, 121, 0
4, 0, Program_c, 3, 14
4, 0, Control_c, 3, 7, 100
4, 0, Control_c, 3, 10, 64
4, 0, Control_c, 3, 91, 0
4, 0, Control_c, 3, 93, 0
4, 0, MIDI_port, 0
4, 2, Control_c, 3, 64, 127
4, 15360, Note_on_c, 3, 64, 80
4, 15360, Control_c, 3, 2, 80
4, 16319, Note_on_c, 3, 64, 0
4, 16320, Note_on_c, 3, 64, 80
4, 16320, Control_c, 3, 2, 80
4, 17279, Note_on_c, 3, 64, 0
4, 17280, Note_on_c, 3, 64, 80
4, 17280, Control_c, 3, 2, 80
4, 18239, Note_on_c, 3, 64, 0
4, 18240, Note_on_c, 3, 64, 80
4, 18240, Control_c, 3, 2, 80
4, 19199, Note_on_c, 3, 64, 0
4, 19200, Note_on_c, 3, 65, 80
4, 19200, Control_c, 3, 2, 80
4, 20159, Note_on_c, 3, 65, 0
4, 20160, Note_on_c, 3, 65, 80
4, 20160, Control_c, 3, 2, 80
4, 21119, Note_on_c, 3, 65, 0
4, 21120, Note_on_c, 3, 65, 80
4, 21120, Control_c, 3, 2, 80
4, 22079, Note_on_c, 3, 65, 0
4, 22080, Note_on_c, 3, 65, 80
4, 22080, Control_c, 3, 2, 80
4, 23039, Note_on_c, 3, 65, 0
4, 23040, Note_on_c, 3, 64, 80
4, 23040, Control_c, 3, 2, 80
4, 23999, Note_on_c, 3, 64, 0
4, 24000, Note_on_c, 3, 64, 80
4, 24000, Control_c, 3, 2, 80
4, 24959, Note_on_c, 3, 64, 0
4, 24960, Note_on_c, 3, 64, 80
4, 24960, Control_c, 3, 2, 80
4, 25919, Note_on_c, 3, 64, 0
4, 25920, Note_on_c, 3, 64, 80
4, 25920, Control_c, 3, 2, 80
4, 26879, Note_on_c, 3, 64, 0
4, 26880, Note_on_c, 3, 62, 80
4, 26880, Control_c, 3, 2, 80
4, 27839, Note_on_c, 3, 62, 0
4, 27840, Note_on_c, 3, 62, 80
4, 27840, Control_c, 3, 2, 80
4, 28799, Note_on_c, 3, 62, 0
4, 28800, Note_on_c, 3, 62, 80
4, 28800, Control_c, 3, 2, 80
4, 29759, Note_on_c, 3, 62, 0
4, 29760, Note_on_c, 3, 62, 80
4, 29760, Control_c, 3, 2, 80
4, 30719, Note_on_c, 3, 62, 0
4, 30720, Note_on_c, 3, 76, 80
4, 30720, Control_c, 3, 2, 80
4, 31679, Note_on_c, 3, 76, 0
4, 31680, Note_on_c, 3, 76, 80
4, 31680, Control_c, 3, 2, 80
4, 32639, Note_on_c, 3, 76, 0
4, 32640, Note_on_c, 3, 76, 80
4, 32640, Control_c, 3, 2, 80
4, 33119, Note_on_c, 3, 76, 0
4, 33600, Note_on_c, 3, 76, 80
4, 33600, Control_c, 3, 2, 80
4, 33839, Note_on_c, 3, 76, 0
4, 33840, Note_on_c, 3, 77, 80
4, 33840, Control_c, 3, 2, 80
4, 34079, Note_on_c, 3, 77, 0
4, 34080, Note_on_c, 3, 76, 80
4, 34080, Control_c, 3, 2, 80
4, 34319, Note_on_c, 3, 76, 0
4, 34560, Note_on_c, 3, 77, 80
4, 34560, Control_c, 3, 2, 80
4, 35519, Note_on_c, 3, 77, 0
4, 35520, Note_on_c, 3, 77, 80
4, 35520, Control_c, 3, 2, 80
4, 36479, Note_on_c, 3, 77, 0
4, 36480, Note_on_c, 3, 77, 80
4, 36480, Control_c, 3, 2, 80
4, 37439, Note_on_c, 3, 77, 0
4, 37440, Note_on_c, 3, 77, 80
4, 37440, Control_c, 3, 2, 80
4, 37679, Note_on_c, 3, 77, 0
4, 37680, Note_on_c, 3, 79, 80
4, 37680, Control_c, 3, 2, 80
4, 37919, Note_on_c, 3, 79, 0
4, 37920, Note_on_c, 3, 77, 80
4, 37920, Control_c, 3, 2, 80
4, 38159, Note_on_c, 3, 77, 0
4, 38400, Note_on_c, 3, 76, 80
4, 38400, Control_c, 3, 2, 80
4, 39359, Note_on_c, 3, 76, 0
4, 39360, Note_on_c, 3, 76, 80
4, 39360, Control_c, 3, 2, 80
4, 40319, Note_on_c, 3, 76, 0
4, 40320, Note_on_c, 3, 76, 80
4, 40320, Control_c, 3, 2, 80
4, 41279, Note_on_c, 3, 76, 0
4, 41280, Note_on_c, 3, 76, 80
4, 41280, Control_c, 3, 2, 80
4, 41519, Note_on_c, 3, 76, 0
4, 41520, Note_on_c, 3, 77, 80
4, 41520, Control_c, 3, 2, 80
4, 41759, Note_on_c, 3, 77, 0
4, 41760, Note_on_c, 3, 76, 80
4, 41760, Control_c, 3, 2, 80
4, 41999, Note_on_c, 3, 76, 0
4, 42240, Note_on_c, 3, 74, 80
4, 42240, Control_c, 3, 2, 80
4, 43199, Note_on_c, 3, 74, 0
4, 43200, Note_on_c, 3, 74, 80
4, 43200, Control_c, 3, 2, 80
4, 44159, Note_on_c, 3, 74, 0
4, 44160, Note_on_c, 3, 74, 80
4, 44160, Control_c, 3, 2, 80
4, 45119, Note_on_c, 3, 74, 0
4, 45120, Note_on_c, 3, 76, 80
4, 45120, Control_c, 3, 2, 80
4, 45359, Note_on_c, 3, 76, 0
4, 45360, Note_on_c, 3, 74, 80
4, 45360, Control_c, 3, 2, 80
4, 45599, Note_on_c, 3, 74, 0
4, 45600, Note_on_c, 3, 72, 80
4, 45600, Control_c, 3, 2, 80
4, 45839, Note_on_c, 3, 72, 0
4, 45840, Note_on_c, 3, 71, 80
4, 45840, Control_c, 3, 2, 80
4, 46079, Note_on_c, 3, 71, 0
4, 46080, Note_on_c, 3, 76, 80
4, 46080, Control_c, 3, 2, 80
4, 47039, Note_on_c, 3, 76, 0
4, 47040, Note_on_c, 3, 76, 80
4, 47040, Control_c, 3, 2, 80
4, 47999, Note_on_c, 3, 76, 0
4, 48000, Note_on_c, 3, 76, 80
4, 48000, Control_c, 3, 2, 80
4, 48479, Note_on_c, 3, 76, 0
4, 48960, Note_on_c, 3, 79, 80
4, 48960, Control_c, 3, 2, 80
4, 49199, Note_on_c, 3, 79, 0
4, 49200, Note_on_c, 3, 77, 80
4, 49200, Control_c, 3, 2, 80
4, 49439, Note_on_c, 3, 77, 0
4, 49440, Note_on_c, 3, 76, 80
4, 49440, Control_c, 3, 2, 80
4, 49679, Note_on_c, 3, 76, 0
4, 49680, Note_on_c, 3, 72, 80
4, 49680, Control_c, 3, 2, 80
4, 49919, Note_on_c, 3, 72, 0
4, 49920, Note_on_c, 3, 77, 80
4, 49920, Control_c, 3, 2, 80
4, 50879, Note_on_c, 3, 77, 0
4, 50880, Note_on_c, 3, 77, 80
4, 50880, Control_c, 3, 2, 80
4, 51839, Note_on_c, 3, 77, 0
4, 51840, Note_on_c, 3, 77, 80
4, 51840, Control_c, 3, 2, 80
4, 52799, Note_on_c, 3, 77, 0
4, 52800, Note_on_c, 3, 77, 80
4, 52800, Control_c, 3, 2, 80
4, 53039, Note_on_c, 3, 77, 0
4, 53040, Note_on_c, 3, 79, 80
4, 53040, Control_c, 3, 2, 80
4, 53279, Note_on_c, 3, 79, 0
4, 53280, Note_on_c, 3, 77, 80
4, 53280, Control_c, 3, 2, 80
4, 53519, Note_on_c, 3, 77, 0
4, 53520, Note_on_c, 3, 76, 80
4, 53520, Control_c, 3, 2, 80
4, 53759, Note_on_c, 3, 76, 0
4, 53760, Note_on_c, 3, 76, 80
4, 53760, Control_c, 3, 2, 80
4, 54719, Note_on_c, 3, 76, 0
4, 54720, Note_on_c, 3, 76, 80
4, 54720, Control_c, 3, 2, 80
4, 55679, Note_on_c, 3, 76, 0
4, 55680, Note_on_c, 3, 76, 80
4, 55680, Control_c, 3, 2, 80
4, 56639, Note_on_c, 3, 76, 0
4, 56640, Note_on_c, 3, 79, 80
4, 56640, Control_c, 3, 2, 80
4, 56879, Note_on_c, 3, 79, 0
4, 56880, Note_on_c, 3, 77, 80
4, 56880, Control_c, 3, 2, 80
4, 57119, Note_on_c, 3, 77, 0
4, 57120, Note_on_c, 3, 76, 80
4, 57120, Control_c, 3, 2, 80
4, 57359, Note_on_c, 3, 76, 0
4, 57360, Note_on_c, 3, 74, 80
4, 57360, Control_c, 3, 2, 80
4, 57599, Note_on_c, 3, 74, 0
4, 57600, Note_on_c, 3, 74, 80
4, 57600, Control_c, 3, 2, 80
4, 58559, Note_on_c, 3, 74, 0
4, 58560, Note_on_c, 3, 74, 80
4, 58560, Control_c, 3, 2, 80
4, 59519, Note_on_c, 3, 74, 0
4, 59520, Note_on_c, 3, 76, 80
4, 59520, Control_c, 3, 2, 80
4, 60479, Note_on_c, 3, 76, 0
4, 60480, Note_on_c, 3, 74, 80
4, 60480, Control_c, 3, 2, 80
4, 61439, Note_on_c, 3, 74, 0
4, 92160, Note_on_c, 3, 76, 80
4, 92160, Control_c, 3, 2, 80
4, 93119, Note_on_c, 3, 76, 0
4, 93120, Note_on_c, 3, 76, 80
4, 93120, Control_c, 3, 2, 80
4, 94079, Note_on_c, 3, 76, 0
4, 94080, Note_on_c, 3, 76, 80
4, 94080, Control_c, 3, 2, 80
4, 95039, Note_on_c, 3, 76, 0
4, 95040, Note_on_c, 3, 76, 80
4, 95040, Control_c, 3, 2, 80
4, 95999, Note_on_c, 3, 76, 0
4, 96000, Note_on_c, 3, 77, 80
4, 96000, Control_c, 3, 2, 80
4, 96959, Note_on_c, 3, 77, 0
4, 96960, Note_on_c, 3, 77, 80
4, 96960, Control_c, 3, 2, 80
4, 97919, Note_on_c, 3, 77, 0
4, 97920, Note_on_c, 3, 77, 80
4, 97920, Control_c, 3, 2, 80
4, 98879, Note_on_c, 3, 77, 0
4, 98880, Note_on_c, 3, 77, 80
4, 98880, Control_c, 3, 2, 80
4, 99839, Note_on_c, 3, 77, 0
4, 99840, Note_on_c, 3, 76, 80
4, 99840, Control_c, 3, 2, 80
4, 100799, Note_on_c, 3, 76, 0
4, 100800, Note_on_c, 3, 76, 80
4, 100800, Control_c, 3, 2, 80
4, 101759, Note_on_c, 3, 76, 0
4, 101760, Note_on_c, 3, 76, 80
4, 101760, Control_c, 3, 2, 80
4, 102719, Note_on_c, 3, 76, 0
4, 102720, Note_on_c, 3, 76, 80
4, 102720, Control_c, 3, 2, 80
4, 103679, Note_on_c, 3, 76, 0
4, 103680, Note_on_c, 3, 74, 80
4, 103680, Control_c, 3, 2, 80
4, 104639, Note_on_c, 3, 74, 0
4, 104640, Note_on_c, 3, 74, 80
4, 104640, Control_c, 3, 2, 80
4, 105599, Note_on_c, 3, 74, 0
4, 105600, Note_on_c, 3, 74, 80
4, 105600, Control_c, 3, 2, 80
4, 106559, Note_on_c, 3, 74, 0
4, 106560, Note_on_c, 3, 74, 80
4, 106560, Control_c, 3, 2, 80
4, 107519, Note_on_c, 3, 74, 0
4, 157440, Control_c, 3, 64, 0
4, 157441, End_track
5, 0, Start_track
5, 0, Title_t, "Lute\000"
5, 0, Key_signature, 0, "major"
5, 0, Control_c, 4, 121, 0
5, 0, Program_c, 4, 24
5, 0, Control_c, 4, 7, 100
5, 0, Control_c, 4, 10, 64
5, 0, Control_c, 4, 91, 0
5, 0, Control_c, 4, 93, 0
5, 0, MIDI_port, 0
5, 2, Control_c, 4, 64, 127
5, 46080, Note_on_c, 4, 52, 80
5, 46080, Control_c, 4, 2, 80
5, 46080, Note_on_c, 4, 57, 80
5, 46559, Note_on_c, 4, 52, 0
5, 46559, Note_on_c, 4, 57, 0
5, 46560, Note_on_c, 4, 52, 80
5, 46560, Control_c, 4, 2, 80
5, 46560, Note_on_c, 4, 57, 80
5, 47039, Note_on_c, 4, 52, 0
5, 47039, Note_on_c, 4, 57, 0
5, 47040, Note_on_c, 4, 52, 80
5, 47040, Control_c, 4, 2, 80
5, 47040, Note_on_c, 4, 57, 80
5, 47519, Note_on_c, 4, 52, 0
5, 47519, Note_on_c, 4, 57, 0
5, 47520, Note_on_c, 4, 52, 80
5, 47520, Control_c, 4, 2, 80
5, 47520, Note_on_c, 4, 57, 80
5, 47999, Note_on_c, 4, 52, 0
5, 47999, Note_on_c, 4, 57, 0
5, 48000, Note_on_c, 4, 52, 80
5, 48000, Control_c, 4, 2, 80
5, 48000, Note_on_c, 4, 57, 80
5, 48479, Note_on_c, 4, 52, 0
5, 48479, Note_on_c, 4, 57, 0
5, 48480, Note_on_c, 4, 52, 80
5, 48480, Control_c, 4, 2, 80
5, 48480, Note_on_c, 4, 57, 80
5, 48959, Note_on_c, 4, 52, 0
5, 48959, Note_on_c, 4, 57, 0
5, 48960, Note_on_c, 4, 52, 80
5, 48960, Control_c, 4, 2, 80
5, 48960, Note_on_c, 4, 57, 80
5, 49439, Note_on_c, 4, 52, 0
5, 49439, Note_on_c, 4, 57, 0
5, 49440, Note_on_c, 4, 52, 80
5, 49440, Control_c, 4, 2, 80
5, 49440, Note_on_c, 4, 57, 80
5, 49919, Note_on_c, 4, 52, 0
5, 49919, Note_on_c, 4, 57, 0
5, 49920, Note_on_c, 4, 48, 80
5, 49920, Control_c, 4, 2, 80
5, 49920, Note_on_c, 4, 53, 80
5, 50399, Note_on_c, 4, 48, 0
5, 50399, Note_on_c, 4, 53, 0
5, 50400, Note_on_c, 4, 48, 80
5, 50400, Control_c, 4, 2, 80
5, 50400, Note_on_c, 4, 53, 80
5, 50879, Note_on_c, 4, 48, 0
5, 50879, Note_on_c, 4, 53, 0
5, 50880, Note_on_c, 4, 48, 80
5, 50880, Control_c, 4, 2, 80
5, 50880, Note_on_c, 4, 53, 80
5, 51359, Note_on_c, 4, 48, 0
5, 51359, Note_on_c, 4, 53, 0
5, 51360, Note_on_c, 4, 48, 80
5, 51360, Control_c, 4, 2, 80
5, 51360, Note_on_c, 4, 53, 80
5, 51839, Note_on_c, 4, 48, 0
5, 51839, Note_on_c, 4, 53, 0
5, 51840, Note_on_c, 4, 48, 80
5, 51840, Control_c, 4, 2, 80
5, 51840, Note_on_c, 4, 53, 80
5, 52319, Note_on_c, 4, 48, 0
5, 52319, Note_on_c, 4, 53, 0
5, 52320, Note_on_c, 4, 48, 80
5, 52320, Control_c, 4, 2, 80
5, 52320, Note_on_c, 4, 53, 80
5, 52799, Note_on_c, 4, 48, 0
5, 52799, Note_on_c, 4, 53, 0
5, 52800, Note_on_c, 4, 48, 80
5, 52800, Control_c, 4, 2, 80
5, 52800, Note_on_c, 4, 53, 80
5, 53279, Note_on_c, 4, 48, 0
5, 53279, Note_on_c, 4, 53, 0
5, 53280, Note_on_c, 4, 48, 80
5, 53280, Control_c, 4, 2, 80
5, 53280, Note_on_c, 4, 53, 80
5, 53759, Note_on_c, 4, 48, 0
5, 53759, Note_on_c, 4, 53, 0
5, 53760, Note_on_c, 4, 55, 80
5, 53760, Control_c, 4, 2, 80
5, 53760, Note_on_c, 4, 60, 80
5, 54239, Note_on_c, 4, 55, 0
5, 54239, Note_on_c, 4, 60, 0
5, 54240, Note_on_c, 4, 55, 80
5, 54240, Control_c, 4, 2, 80
5, 54240, Note_on_c, 4, 60, 80
5, 54719, Note_on_c, 4, 55, 0
5, 54719, Note_on_c, 4, 60, 0
5, 54720, Note_on_c, 4, 55, 80
5, 54720, Control_c, 4, 2, 80
5, 54720, Note_on_c, 4, 60, 80
5, 55199, Note_on_c, 4, 55, 0
5, 55199, Note_on_c, 4, 60, 0
5, 55200, Note_on_c, 4, 55, 80
5, 55200, Control_c, 4, 2, 80
5, 55200, Note_on_c, 4, 60, 80
5, 55679, Note_on_c, 4, 55, 0
5, 55679, Note_on_c, 4, 60, 0
5, 55680, Note_on_c, 4, 55, 80
5, 55680, Control_c, 4, 2, 80
5, 55680, Note_on_c, 4, 60, 80
5, 56159, Note_on_c, 4, 55, 0
5, 56159, Note_on_c, 4, 60, 0
5, 56160, Note_on_c, 4, 55, 80
5, 56160, Control_c, 4, 2, 80
5, 56160, Note_on_c, 4, 60, 80
5, 56639, Note_on_c, 4, 55, 0
5, 56639, Note_on_c, 4, 60, 0
5, 56640, Note_on_c, 4, 55, 80
5, 56640, Control_c, 4, 2, 80
5, 56640, Note_on_c, 4, 60, 80
5, 57119, Note_on_c, 4, 55, 0
5, 57119, Note_on_c, 4, 60, 0
5, 57120, Note_on_c, 4, 55, 80
5, 57120, Control_c, 4, 2, 80
5, 57120, Note_on_c, 4, 60, 80
5, 57599, Note_on_c, 4, 55, 0
5, 57599, Note_on_c, 4, 60, 0
5, 57600, Note_on_c, 4, 55, 80
5, 57600, Control_c, 4, 2, 80
5, 57600, Note_on_c, 4, 59, 80
5, 58079, Note_on_c, 4, 55, 0
5, 58079, Note_on_c, 4, 59, 0
5, 58080, Note_on_c, 4, 55, 80
5, 58080, Control_c, 4, 2, 80
5, 58080, Note_on_c, 4, 59, 80
5, 58559, Note_on_c, 4, 55, 0
5, 58559, Note_on_c, 4, 59, 0
5, 58560, Note_on_c, 4, 55, 80
5, 58560, Control_c, 4, 2, 80
5, 58560, Note_on_c, 4, 59, 80
5, 59039, Note_on_c, 4, 55, 0
5, 59039, Note_on_c, 4, 59, 0
5, 59040, Note_on_c, 4, 55, 80
5, 59040, Control_c, 4, 2, 80
5, 59040, Note_on_c, 4, 59, 80
5, 59519, Note_on_c, 4, 55, 0
5, 59519, Note_on_c, 4, 59, 0
5, 59520, Note_on_c, 4, 55, 80
5, 59520, Control_c, 4, 2, 80
5, 59520, Note_on_c, 4, 59, 80
5, 59999, Note_on_c, 4, 55, 0
5, 59999, Note_on_c, 4, 59, 0
5, 60000, Note_on_c, 4, 55, 80
5, 60000, Control_c, 4, 2, 80
5, 60000, Note_on_c, 4, 59, 80
5, 60479, Note_on_c, 4, 55, 0
5, 60479, Note_on_c, 4, 59, 0
5, 60480, Note_on_c, 4, 55, 80
5, 60480, Control_c, 4, 2, 80
5, 60480, Note_on_c, 4, 59, 80
5, 60959, Note_on_c, 4, 55, 0
5, 60959, Note_on_c, 4, 59, 0
5, 60960, Note_on_c, 4, 55, 80
5, 60960, Control_c, 4, 2, 80
5, 60960, Note_on_c, 4, 59, 80
5, 61439, Note_on_c, 4, 55, 0
5, 61439, Note_on_c, 4, 59, 0
5, 61440, Note_on_c, 4, 57, 80
5, 61440, Control_c, 4, 2, 80
5, 61440, Note_on_c, 4, 64, 80
5, 61919, Note_on_c, 4, 57, 0
5, 61919, Note_on_c, 4, 64, 0
5, 61920, Note_on_c, 4, 57, 80
5, 61920, Control_c, 4, 2, 80
5, 61920, Note_on_c, 4, 64, 80
5, 62399, Note_on_c, 4, 57, 0
5, 62399, Note_on_c, 4, 64, 0
5, 62400, Note_on_c, 4, 57, 80
5, 62400, Control_c, 4, 2, 80
5, 62400, Note_on_c, 4, 64, 80
5, 62879, Note_on_c, 4, 57, 0
5, 62879, Note_on_c, 4, 64, 0
5, 62880, Note_on_c, 4, 57, 80
5, 62880, Control_c, 4, 2, 80
5, 62880, Note_on_c, 4, 64, 80
5, 63359, Note_on_c, 4, 57, 0
5, 63359, Note_on_c, 4, 64, 0
5, 63360, Note_on_c, 4, 57, 80
5, 63360, Control_c, 4, 2, 80
5, 63360, Note_on_c, 4, 64, 80
5, 63839, Note_on_c, 4, 57, 0
5, 63839, Note_on_c, 4, 64, 0
5, 63840, Note_on_c, 4, 57, 80
5, 63840, Control_c, 4, 2, 80
5, 63840, Note_on_c, 4, 64, 80
5, 64319, Note_on_c, 4, 57, 0
5, 64319, Note_on_c, 4, 64, 0
5, 64320, Note_on_c, 4, 57, 80
5, 64320, Control_c, 4, 2, 80
5, 64320, Note_on_c, 4, 64, 80
5, 64799, Note_on_c, 4, 57, 0
5, 64799, Note_on_c, 4, 64, 0
5, 64800, Note_on_c, 4, 57, 80
5, 64800, Control_c, 4, 2, 80
5, 64800, Note_on_c, 4, 64, 80
5, 65279, Note_on_c, 4, 57, 0
5, 65279, Note_on_c, 4, 64, 0
5, 65280, Note_on_c, 4, 60, 80
5, 65280, Control_c, 4, 2, 80
5, 65280, Note_on_c, 4, 65, 80
5, 65759, Note_on_c, 4, 60, 0
5, 65759, Note_on_c, 4, 65, 0
5, 65760, Note_on_c, 4, 60, 80
5, 65760, Control_c, 4, 2, 80
5, 65760, Note_on_c, 4, 65, 80
5, 66239, Note_on_c, 4, 60, 0
5, 66239, Note_on_c, 4, 65, 0
5, 66240, Note_on_c, 4, 60, 80
5, 66240, Control_c, 4, 2, 80
5, 66240, Note_on_c, 4, 65, 80
5, 66719, Note_on_c, 4, 60, 0
5, 66719, Note_on_c, 4, 65, 0
5, 66720, Note_on_c, 4, 60, 80
5, 66720, Control_c, 4, 2, 80
5, 66720, Note_on_c, 4, 65, 80
5, 67199, Note_on_c, 4, 60, 0
5, 67199, Note_on_c, 4, 65, 0
5, 67200, Note_on_c, 4, 60, 80
5, 67200, Control_c, 4, 2, 80
5, 67200, Note_on_c, 4, 65, 80
5, 67679, Note_on_c, 4, 60, 0
5, 67679, Note_on_c, 4, 65, 0
5, 67680, Note_on_c, 4, 60, 80
5, 67680, Control_c, 4, 2, 80
5, 67680, Note_on_c, 4, 65, 80
5, 68159, Note_on_c, 4, 60, 0
5, 68159, Note_on_c, 4, 65, 0
5, 68160, Note_on_c, 4, 60, 80
5, 68160, Control_c, 4, 2, 80
5, 68160, Note_on_c, 4, 65, 80
5, 68639, Note_on_c, 4, 60, 0
5, 68639, Note_on_c, 4, 65, 0
5, 68640, Note_on_c, 4, 60, 80
5, 68640, Control_c, 4, 2, 80
5, 68640, Note_on_c, 4, 65, 80
5, 69119, Note_on_c, 4, 60, 0
5, 69119, Note_on_c, 4, 65, 0
5, 69120, Note_on_c, 4, 60, 80
5, 69120, Control_c, 4, 2, 80
5, 69120, Note_on_c, 4, 67, 80
5, 69599, Note_on_c, 4, 60, 0
5, 69599, Note_on_c, 4, 67, 0
5, 69600, Note_on_c, 4, 60, 80
5, 69600, Control_c, 4, 2, 80
5, 69600, Note_on_c, 4, 67, 80
5, 70079, Note_on_c, 4, 60, 0
5, 70079, Note_on_c, 4, 67, 0
5, 70080, Note_on_c, 4, 60, 80
5, 70080, Control_c, 4, 2, 80
5, 70080, Note_on_c, 4, 67, 80
5, 70559, Note_on_c, 4, 60, 0
5, 70559, Note_on_c, 4, 67, 0
5, 70560, Note_on_c, 4, 60, 80
5, 70560, Control_c, 4, 2, 80
5, 70560, Note_on_c, 4, 67, 80
5, 71039, Note_on_c, 4, 60, 0
5, 71039, Note_on_c, 4, 67, 0
5, 71040, Note_on_c, 4, 60, 80
5, 71040, Control_c, 4, 2, 80
5, 71040, Note_on_c, 4, 67, 80
5, 71519, Note_on_c, 4, 60, 0
5, 71519, Note_on_c, 4, 67, 0
5, 71520, Note_on_c, 4, 60, 80
5, 71520, Control_c, 4, 2, 80
5, 71520, Note_on_c, 4, 67, 80
5, 71999, Note_on_c, 4, 60, 0
5, 71999, Note_on_c, 4, 67, 0
5, 72000, Note_on_c, 4, 60, 80
5, 72000, Control_c, 4, 2, 80
5, 72000, Note_on_c, 4, 67, 80
5, 72479, Note_on_c, 4, 60, 0
5, 72479, Note_on_c, 4, 67, 0
5, 72480, Note_on_c, 4, 60, 80
5, 72480, Control_c, 4, 2, 80
5, 72480, Note_on_c, 4, 67, 80
5, 72959, Note_on_c, 4, 60, 0
5, 72959, Note_on_c, 4, 67, 0
5, 72960, Note_on_c, 4, 67, 80
5, 72960, Control_c, 4, 2, 80
5, 72960, Note_on_c, 4, 71, 80
5, 73439, Note_on_c, 4, 67, 0
5, 73439, Note_on_c, 4, 71, 0
5, 73440, Note_on_c, 4, 67, 80
5, 73440, Control_c, 4, 2, 80
5, 73440, Note_on_c, 4, 71, 80
5, 73919, Note_on_c, 4, 67, 0
5, 73919, Note_on_c, 4, 71, 0
5, 73920, Note_on_c, 4, 67, 80
5, 73920, Control_c, 4, 2, 80
5, 73920, Note_on_c, 4, 71, 80
5, 74399, Note_on_c, 4, 67, 0
5, 74399, Note_on_c, 4, 71, 0
5, 74400, Note_on_c, 4, 67, 80
5, 74400, Control_c, 4, 2, 80
5, 74400, Note_on_c, 4, 71, 80
5, 74879, Note_on_c, 4, 67, 0
5, 74879, Note_on_c, 4, 71, 0
5, 74880, Note_on_c, 4, 67, 80
5, 74880, Control_c, 4, 2, 80
5, 74880, Note_on_c, 4, 71, 80
5, 75359, Note_on_c, 4, 67, 0
5, 75359, Note_on_c, 4, 71, 0
5, 75360, Note_on_c, 4, 67, 80
5, 75360, Control_c, 4, 2, 80
5, 75360, Note_on_c, 4, 71, 80
5, 75839, Note_on_c, 4, 67, 0
5, 75839, Note_on_c, 4, 71, 0
5, 75840, Note_on_c, 4, 67, 80
5, 75840, Control_c, 4, 2, 80
5, 75840, Note_on_c, 4, 71, 80
5, 76319, Note_on_c, 4, 67, 0
5, 76319, Note_on_c, 4, 71, 0
5, 76320, Note_on_c, 4, 67, 80
5, 76320, Control_c, 4, 2, 80
5, 76320, Note_on_c, 4, 71, 80
5, 76799, Note_on_c, 4, 67, 0
5, 76799, Note_on_c, 4, 71, 0
5, 76800, Note_on_c, 4, 57, 80
5, 76800, Control_c, 4, 2, 80
5, 76800, Note_on_c, 4, 64, 80
5, 77279, Note_on_c, 4, 57, 0
5, 77279, Note_on_c, 4, 64, 0
5, 77280, Note_on_c, 4, 57, 80
5, 77280, Control_c, 4, 2, 80
5, 77280, Note_on_c, 4, 64, 80
5, 77759, Note_on_c, 4, 57, 0
5, 77759, Note_on_c, 4, 64, 0
5, 77760, Note_on_c, 4, 57, 80
5, 77760, Control_c, 4, 2, 80
5, 77760, Note_on_c, 4, 64, 80
5, 78239, Note_on_c, 4, 57, 0
5, 78239, Note_on_c, 4, 64, 0
5, 78240, Note_on_c, 4, 57, 80
5, 78240, Control_c, 4, 2, 80
5, 78240, Note_on_c, 4, 64, 80
5, 78719, Note_on_c, 4, 57, 0
5, 78719, Note_on_c, 4, 64, 0
5, 78720, Note_on_c, 4, 57, 80
5, 78720, Control_c, 4, 2, 80
5, 78720, Note_on_c, 4, 64, 80
5, 79199, Note_on_c, 4, 57, 0
5, 79199, Note_on_c, 4, 64, 0
5, 79200, Note_on_c, 4, 57, 80
5, 79200, Control_c, 4, 2, 80
5, 79200, Note_on_c, 4, 64, 80
5, 79679, Note_on_c, 4, 57, 0
5, 79679, Note_on_c, 4, 64, 0
5, 79680, Note_on_c, 4, 57, 80
5, 79680, Control_c, 4, 2, 80
5, 79680, Note_on_c, 4, 64, 80
5, 80159, Note_on_c, 4, 57, 0
5, 80159, Note_on_c, 4, 64, 0
5, 80160, Note_on_c, 4, 57, 80
5, 80160, Control_c, 4, 2, 80
5, 80160, Note_on_c, 4, 64, 80
5, 80639, Note_on_c, 4, 57, 0
5, 80639, Note_on_c, 4, 64, 0
5, 80640, Note_on_c, 4, 60, 80
5, 80640, Control_c, 4, 2, 80
5, 80640, Note_on_c, 4, 65, 80
5, 81119, Note_on_c, 4, 60, 0
5, 81119, Note_on_c, 4, 65, 0
5, 81120, Note_on_c, 4, 60, 80
5, 81120, Control_c, 4, 2, 80
5, 81120, Note_on_c, 4, 65, 80
5, 81599, Note_on_c, 4, 60, 0
5, 81599, Note_on_c, 4, 65, 0
5, 81600, Note_on_c, 4, 60, 80
5, 81600, Control_c, 4, 2, 80
5, 81600, Note_on_c, 4, 65, 80
5, 82079, Note_on_c, 4, 60, 0
5, 82079, Note_on_c, 4, 65, 0
5, 82080, Note_on_c, 4, 60, 80
5, 82080, Control_c, 4, 2, 80
5, 82080, Note_on_c, 4, 65, 80
5, 82559, Note_on_c, 4, 60, 0
5, 82559, Note_on_c, 4, 65, 0
5, 82560, Note_on_c, 4, 60, 80
5, 82560, Control_c, 4, 2, 80
5, 82560, Note_on_c, 4, 65, 80
5, 83039, Note_on_c, 4, 60, 0
5, 83039, Note_on_c, 4, 65, 0
5, 83040, Note_on_c, 4, 60, 80
5, 83040, Control_c, 4, 2, 80
5, 83040, Note_on_c, 4, 65, 80
5, 83519, Note_on_c, 4, 60, 0
5, 83519, Note_on_c, 4, 65, 0
5, 83520, Note_on_c, 4, 60, 80
5, 83520, Control_c, 4, 2, 80
5, 83520, Note_on_c, 4, 65, 80
5, 83999, Note_on_c, 4, 60, 0
5, 83999, Note_on_c, 4, 65, 0
5, 84000, Note_on_c, 4, 60, 80
5, 84000, Control_c, 4, 2, 80
5, 84000, Note_on_c, 4, 65, 80
5, 84479, Note_on_c, 4, 60, 0
5, 84479, Note_on_c, 4, 65, 0
5, 84480, Note_on_c, 4, 55, 80
5, 84480, Control_c, 4, 2, 80
5, 84480, Note_on_c, 4, 60, 80
5, 84959, Note_on_c, 4, 55, 0
5, 84959, Note_on_c, 4, 60, 0
5, 84960, Note_on_c, 4, 55, 80
5, 84960, Control_c, 4, 2, 80
5, 84960, Note_on_c, 4, 60, 80
5, 85439, Note_on_c, 4, 55, 0
5, 85439, Note_on_c, 4, 60, 0
5, 85440, Note_on_c, 4, 55, 80
5, 85440, Control_c, 4, 2, 80
5, 85440, Note_on_c, 4, 60, 80
5, 85919, Note_on_c, 4, 55, 0
5, 85919, Note_on_c, 4, 60, 0
5, 85920, Note_on_c, 4, 55, 80
5, 85920, Control_c, 4, 2, 80
5, 85920, Note_on_c, 4, 60, 80
5, 86399, Note_on_c, 4, 55, 0
5, 86399, Note_on_c, 4, 60, 0
5, 86400, Note_on_c, 4, 55, 80
5, 86400, Control_c, 4, 2, 80
5, 86400, Note_on_c, 4, 60, 80
5, 86879, Note_on_c, 4, 55, 0
5, 86879, Note_on_c, 4, 60, 0
5, 86880, Note_on_c, 4, 55, 80
5, 86880, Control_c, 4, 2, 80
5, 86880, Note_on_c, 4, 60, 80
5, 87359, Note_on_c, 4, 55, 0
5, 87359, Note_on_c, 4, 60, 0
5, 87360, Note_on_c, 4, 55, 80
5, 87360, Control_c, 4, 2, 80
5, 87360, Note_on_c, 4, 60, 80
5, 87839, Note_on_c, 4, 55, 0
5, 87839, Note_on_c, 4, 60, 0
5, 87840, Note_on_c, 4, 55, 80
5, 87840, Control_c, 4, 2, 80
5, 87840, Note_on_c, 4, 60, 80
5, 88319, Note_on_c, 4, 55, 0
5, 88319, Note_on_c, 4, 60, 0
5, 88320, Note_on_c, 4, 55, 80
5, 88320, Control_c, 4, 2, 80
5, 88320, Note_on_c, 4, 59, 80
5, 88799, Note_on_c, 4, 55, 0
5, 88799, Note_on_c, 4, 59, 0
5, 88800, Note_on_c, 4, 55, 80
5, 88800, Control_c, 4, 2, 80
5, 88800, Note_on_c, 4, 59, 80
5, 89279, Note_on_c, 4, 55, 0
5, 89279, Note_on_c, 4, 59, 0
5, 89280, Note_on_c, 4, 55, 80
5, 89280, Control_c, 4, 2, 80
5, 89280, Note_on_c, 4, 59, 80
5, 89759, Note_on_c, 4, 55, 0
5, 89759, Note_on_c, 4, 59, 0
5, 89760, Note_on_c, 4, 55, 80
5, 89760, Control_c, 4, 2, 80
5, 89760, Note_on_c, 4, 59, 80
5, 90239, Note_on_c, 4, 55, 0
5, 90239, Note_on_c, 4, 59, 0
5, 90240, Note_on_c, 4, 55, 80
5, 90240, Control_c, 4, 2, 80
5, 90240, Note_on_c, 4, 59, 80
5, 90719, Note_on_c, 4, 55, 0
5, 90719, Note_on_c, 4, 59, 0
5, 90720, Note_on_c, 4, 55, 80
5, 90720, Control_c, 4, 2, 80
5, 90720, Note_on_c, 4, 59, 80
5, 91199, Note_on_c, 4, 55, 0
5, 91199, Note_on_c, 4, 59, 0
5, 91200, Note_on_c, 4, 55, 80
5, 91200, Control_c, 4, 2, 80
5, 91200, Note_on_c, 4, 59, 80
5, 91679, Note_on_c, 4, 55, 0
5, 91679, Note_on_c, 4, 59, 0
5, 91680, Note_on_c, 4, 55, 80
5, 91680, Control_c, 4, 2, 80
5, 91680, Note_on_c, 4, 59, 80
5, 92159, Note_on_c, 4, 55, 0
5, 92159, Note_on_c, 4, 59, 0
5, 107520, Note_on_c, 4, 52, 80
5, 107520, Control_c, 4, 2, 80
5, 107520, Note_on_c, 4, 57, 80
5, 107999, Note_on_c, 4, 52, 0
5, 107999, Note_on_c, 4, 57, 0
5, 108000, Note_on_c, 4, 52, 80
5, 108000, Control_c, 4, 2, 80
5, 108000, Note_on_c, 4, 57, 80
5, 108479, Note_on_c, 4, 52, 0
5, 108479, Note_on_c, 4, 57, 0
5, 108480, Note_on_c, 4, 52, 80
5, 108480, Control_c, 4, 2, 80
5, 108480, Note_on_c, 4, 57, 80
5, 108959, Note_on_c, 4, 52, 0
5, 108959, Note_on_c, 4, 57, 0
5, 108960, Note_on_c, 4, 52, 80
5, 108960, Control_c, 4, 2, 80
5, 108960, Note_on_c, 4, 57, 80
5, 109439, Note_on_c, 4, 52, 0
5, 109439, Note_on_c, 4, 57, 0
5, 109440, Note_on_c, 4, 52, 80
5, 109440, Control_c, 4, 2, 80
5, 109440, Note_on_c, 4, 57, 80
5, 109919, Note_on_c, 4, 52, 0
5, 109919, Note_on_c, 4, 57, 0
5, 109920, Note_on_c, 4, 52, 80
5, 109920, Control_c, 4, 2, 80
5, 109920, Note_on_c, 4, 57, 80
5, 110399, Note_on_c, 4, 52, 0
5, 110399, Note_on_c, 4, 57, 0
5, 110400, Note_on_c, 4, 52, 80
5, 110400, Control_c, 4, 2, 80
5, 110400, Note_on_c, 4, 57, 80
5, 110879, Note_on_c, 4, 52, 0
5, 110879, Note_on_c, 4, 57, 0
5, 110880, Note_on_c, 4, 52, 80
5, 110880, Control_c, 4, 2, 80
5, 110880, Note_on_c, 4, 57, 80
5, 111359, Note_on_c, 4, 52, 0
5, 111359, Note_on_c, 4, 57, 0
5, 111360, Note_on_c, 4, 48, 80
5, 111360, Control_c, 4, 2, 80
5, 111360, Note_on_c, 4, 53, 80
5, 111839, Note_on_c, 4, 48, 0
5, 111839, Note_on_c, 4, 53, 0
5, 111840, Note_on_c, 4, 48, 80
5, 111840, Control_c, 4, 2, 80
5, 111840, Note_on_c, 4, 53, 80
5, 112319, Note_on_c, 4, 48, 0
5, 112319, Note_on_c, 4, 53, 0
5, 112320, Note_on_c, 4, 48, 80
5, 112320, Control_c, 4, 2, 80
5, 112320, Note_on_c, 4, 53, 80
5, 112799, Note_on_c, 4, 48, 0
5, 112799, Note_on_c, 4, 53, 0
5, 112800, Note_on_c, 4, 48, 80
5, 112800, Control_c, 4, 2, 80
5, 112800, Note_on_c, 4, 53, 80
5, 113279, Note_on_c, 4, 48, 0
5, 113279, Note_on_c, 4, 53, 0
5, 113280, Note_on_c, 4, 48, 80
5, 113280, Control_c, 4, 2, 80
5, 113280, Note_on_c, 4, 53, 80
5, 113759, Note_on_c, 4, 48, 0
5, 113759, Note_on_c, 4, 53, 0
5, 113760, Note_on_c, 4, 48, 80
5, 113760, Control_c, 4, 2, 80
5, 113760, Note_on_c, 4, 53, 80
5, 114239, Note_on_c, 4, 48, 0
5, 114239, Note_on_c, 4, 53, 0
5, 114240, Note_on_c, 4, 48, 80
5, 114240, Control_c, 4, 2, 80
5, 114240, Note_on_c, 4, 53, 80
5, 114719, Note_on_c, 4, 48, 0
5, 114719, Note_on_c, 4, 53, 0
5, 114720, Note_on_c, 4, 48, 80
5, 114720, Control_c, 4, 2, 80
5, 114720, Note_on_c, 4, 53, 80
5, 115199, Note_on_c, 4, 48, 0
5, 115199, Note_on_c, 4, 53, 0
5, 115200, Note_on_c, 4, 55, 80
5, 115200, Control_c, 4, 2, 80
5, 115200, Note_on_c, 4, 60, 80
5, 115679, Note_on_c, 4, 55, 0
5, 115679, Note_on_c, 4, 60, 0
5, 115680, Note_on_c, 4, 55, 80
5, 115680, Control_c, 4, 2, 80
5, 115680, Note_on_c, 4, 60, 80
5, 116159, Note_on_c, 4, 55, 0
5, 116159, Note_on_c, 4, 60, 0
5, 116160, Note_on_c, 4, 55, 80
5, 116160, Control_c, 4, 2, 80
5, 116160, Note_on_c, 4, 60, 80
5, 116639, Note_on_c, 4, 55, 0
5, 116639, Note_on_c, 4, 60, 0
5, 116640, Note_on_c, 4, 55, 80
5, 116640, Control_c, 4, 2, 80
5, 116640, Note_on_c, 4, 60, 80
5, 117119, Note_on_c, 4, 55, 0
5, 117119, Note_on_c, 4, 60, 0
5, 117120, Note_on_c, 4, 55, 80
5, 117120, Control_c, 4, 2, 80
5, 117120, Note_on_c, 4, 60, 80
5, 117599, Note_on_c, 4, 55, 0
5, 117599, Note_on_c, 4, 60, 0
5, 117600, Note_on_c, 4, 55, 80
5, 117600, Control_c, 4, 2, 80
5, 117600, Note_on_c, 4, 60, 80
5, 118079, Note_on_c, 4, 55, 0
5, 118079, Note_on_c, 4, 60, 0
5, 118080, Note_on_c, 4, 55, 80
5, 118080, Control_c, 4, 2, 80
5, 118080, Note_on_c, 4, 60, 80
5, 118559, Note_on_c, 4, 55, 0
5, 118559, Note_on_c, 4, 60, 0
5, 118560, Note_on_c, 4, 55, 80
5, 118560, Control_c, 4, 2, 80
5, 118560, Note_on_c, 4, 60, 80
5, 119039, Note_on_c, 4, 55, 0
5, 119039, Note_on_c, 4, 60, 0
5, 119040, Note_on_c, 4, 55, 80
5, 119040, Control_c, 4, 2, 80
5, 119040, Note_on_c, 4, 59, 80
5, 119519, Note_on_c, 4, 55, 0
5, 119519, Note_on_c, 4, 59, 0
5, 119520, Note_on_c, 4, 55, 80
5, 119520, Control_c, 4, 2, 80
5, 119520, Note_on_c, 4, 59, 80
5, 119999, Note_on_c, 4, 55, 0
5, 119999, Note_on_c, 4, 59, 0
5, 120000, Note_on_c, 4, 55, 80
5, 120000, Control_c, 4, 2, 80
5, 120000, Note_on_c, 4, 59, 80
5, 120479, Note_on_c, 4, 55, 0
5, 120479, Note_on_c, 4, 59, 0
5, 120480, Note_on_c, 4, 55, 80
5, 120480, Control_c, 4, 2, 80
5, 120480, Note_on_c, 4, 59, 80
5, 120959, Note_on_c, 4, 55, 0
5, 120959, Note_on_c, 4, 59, 0
5, 120960, Note_on_c, 4, 55, 80
5, 120960, Control_c, 4, 2, 80
5, 120960, Note_on_c, 4, 59, 80
5, 121439, Note_on_c, 4, 55, 0
5, 121439, Note_on_c, 4, 59, 0
5, 121440, Note_on_c, 4, 55, 80
5, 121440, Control_c, 4, 2, 80
5, 121440, Note_on_c, 4, 59, 80
5, 121919, Note_on_c, 4, 55, 0
5, 121919, Note_on_c, 4, 59, 0
5, 121920, Note_on_c, 4, 55, 80
5, 121920, Control_c, 4, 2, 80
5, 121920, Note_on_c, 4, 59, 80
5, 122399, Note_on_c, 4, 55, 0
5, 122399, Note_on_c, 4, 59, 0
5, 122400, Note_on_c, 4, 55, 80
5, 122400, Control_c, 4, 2, 80
5, 122400, Note_on_c, 4, 59, 80
5, 122879, Note_on_c, 4, 55, 0
5, 122879, Note_on_c, 4, 59, 0
5, 122880, Note_on_c, 4, 52, 80
5, 122880, Control_c, 4, 2, 80
5, 122880, Note_on_c, 4, 57, 80
5, 123359, Note_on_c, 4, 52, 0
5, 123359, Note_on_c, 4, 57, 0
5, 123360, Note_on_c, 4, 57, 80
5, 123360, Control_c, 4, 2, 80
5, 123360, Note_on_c, 4, 64, 80
5, 123839, Note_on_c, 4, 57, 0
5, 123839, Note_on_c, 4, 64, 0
5, 123840, Note_on_c, 4, 52, 80
5, 123840, Control_c, 4, 2, 80
5, 123840, Note_on_c, 4, 57, 80
5, 124319, Note_on_c, 4, 52, 0
5, 124319, Note_on_c, 4, 57, 0
5, 124320, Note_on_c, 4, 57, 80
5, 124320, Control_c, 4, 2, 80
5, 124320, Note_on_c, 4, 64, 80
5, 124799, Note_on_c, 4, 57, 0
5, 124799, Note_on_c, 4, 64, 0
5, 124800, Note_on_c, 4, 52, 80
5, 124800, Control_c, 4, 2, 80
5, 124800, Note_on_c, 4, 57, 80
5, 125279, Note_on_c, 4, 52, 0
5, 125279, Note_on_c, 4, 57, 0
5, 125280, Note_on_c, 4, 57, 80
5, 125280, Control_c, 4, 2, 80
5, 125280, Note_on_c, 4, 64, 80
5, 125759, Note_on_c, 4, 57, 0
5, 125759, Note_on_c, 4, 64, 0
5, 125760, Note_on_c, 4, 52, 80
5, 125760, Control_c, 4, 2, 80
5, 125760, Note_on_c, 4, 57, 80
5, 126239, Note_on_c, 4, 52, 0
5, 126239, Note_on_c, 4, 57, 0
5, 126240, Note_on_c, 4, 57, 80
5, 126240, Control_c, 4, 2, 80
5, 126240, Note_on_c, 4, 64, 80
5, 126719, Note_on_c, 4, 57, 0
5, 126719, Note_on_c, 4, 64, 0
5, 126720, Note_on_c, 4, 48, 80
5, 126720, Control_c, 4, 2, 80
5, 126720, Note_on_c, 4, 53, 80
5, 127199, Note_on_c, 4, 48, 0
5, 127199, Note_on_c, 4, 53, 0
5, 127200, Note_on_c, 4, 53, 80
5, 127200, Control_c, 4, 2, 80
5, 127200, Note_on_c, 4, 60, 80
5, 127679, Note_on_c, 4, 53, 0
5, 127679, Note_on_c, 4, 60, 0
5, 127680, Note_on_c, 4, 48, 80
5, 127680, Control_c, 4, 2, 80
5, 127680, Note_on_c, 4, 53, 80
5, 128159, Note_on_c, 4, 48, 0
5, 128159, Note_on_c, 4, 53, 0
5, 128160, Note_on_c, 4, 53, 80
5, 128160, Control_c, 4, 2, 80
5, 128160, Note_on_c, 4, 60, 80
5, 128639, Note_on_c, 4, 53, 0
5, 128639, Note_on_c, 4, 60, 0
5, 128640, Note_on_c, 4, 48, 80
5, 128640, Control_c, 4, 2, 80
5, 128640, Note_on_c, 4, 53, 80
5, 129119, Note_on_c, 4, 48, 0
5, 129119, Note_on_c, 4, 53, 0
5, 129120, Note_on_c, 4, 53, 80
5, 129120, Control_c, 4, 2, 80
5, 129120, Note_on_c, 4, 60, 80
5, 129599, Note_on_c, 4, 53, 0
5, 129599, Note_on_c, 4, 60, 0
5, 129600, Note_on_c, 4, 48, 80
5, 129600, Control_c, 4, 2, 80
5, 129600, Note_on_c, 4, 53, 80
5, 130079, Note_on_c, 4, 48, 0
5, 130079, Note_on_c, 4, 53, 0
5, 130080, Note_on_c, 4, 53, 80
5, 130080, Control_c, 4, 2, 80
5, 130080, Note_on_c, 4, 60, 80
5, 130559, Note_on_c, 4, 53, 0
5, 130559, Note_on_c, 4, 60, 0
5, 130560, Note_on_c, 4, 55, 80
5, 130560, Control_c, 4, 2, 80
5, 130560, Note_on_c, 4, 60, 80
5, 131039, Note_on_c, 4, 55, 0
5, 131039, Note_on_c, 4, 60, 0
5, 131040, Note_on_c, 4, 60, 80
5, 131040, Control_c, 4, 2, 80
5, 131040, Note_on_c, 4, 67, 80
5, 131519, Note_on_c, 4, 60, 0
5, 131519, Note_on_c, 4, 67, 0
5, 131520, Note_on_c, 4, 55, 80
5, 131520, Control_c, 4, 2, 80
5, 131520, Note_on_c, 4, 60, 80
5, 131999, Note_on_c, 4, 55, 0
5, 131999, Note_on_c, 4, 60, 0
5, 132000, Note_on_c, 4, 60, 80
5, 132000, Control_c, 4, 2, 80
5, 132000, Note_on_c, 4, 67, 80
5, 132479, Note_on_c, 4, 60, 0
5, 132479, Note_on_c, 4, 67, 0
5, 132480, Note_on_c, 4, 55, 80
5, 132480, Control_c, 4, 2, 80
5, 132480, Note_on_c, 4, 60, 80
5, 132959, Note_on_c, 4, 55, 0
5, 132959, Note_on_c, 4, 60, 0
5, 132960, Note_on_c, 4, 60, 80
5, 132960, Control_c, 4, 2, 80
5, 132960, Note_on_c, 4, 67, 80
5, 133439, Note_on_c, 4, 60, 0
5, 133439, Note_on_c, 4, 67, 0
5, 133440, Note_on_c, 4, 55, 80
5, 133440, Control_c, 4, 2, 80
5, 133440, Note_on_c, 4, 60, 80
5, 133919, Note_on_c, 4, 55, 0
5, 133919, Note_on_c, 4, 60, 0
5, 133920, Note_on_c, 4, 60, 80
5, 133920, Control_c, 4, 2, 80
5, 133920, Note_on_c, 4, 67, 80
5, 134399, Note_on_c, 4, 60, 0
5, 134399, Note_on_c, 4, 67, 0
5, 134400, Note_on_c, 4, 55, 80
5, 134400, Control_c, 4, 2, 80
5, 134400, Note_on_c, 4, 59, 80
5, 134879, Note_on_c, 4, 55, 0
5, 134879, Note_on_c, 4, 59, 0
5, 134880, Note_on_c, 4, 55, 80
5, 134880, Control_c, 4, 2, 80
5, 134880, Note_on_c, 4, 59, 80
5, 135359, Note_on_c, 4, 55, 0
5, 135359, Note_on_c, 4, 59, 0
5, 135360, Note_on_c, 4, 55, 80
5, 135360, Control_c, 4, 2, 80
5, 135360, Note_on_c, 4, 59, 80
5, 135839, Note_on_c, 4, 55, 0
5, 135839, Note_on_c, 4, 59, 0
5, 135840, Note_on_c, 4, 55, 80
5, 135840, Control_c, 4, 2, 80
5, 135840, Note_on_c, 4, 59, 80
5, 136319, Note_on_c, 4, 55, 0
5, 136319, Note_on_c, 4, 59, 0
5, 136320, Note_on_c, 4, 55, 80
5, 136320, Control_c, 4, 2, 80
5, 136320, Note_on_c, 4, 59, 80
5, 136799, Note_on_c, 4, 55, 0
5, 136799, Note_on_c, 4, 59, 0
5, 136800, Note_on_c, 4, 55, 80
5, 136800, Control_c, 4, 2, 80
5, 136800, Note_on_c, 4, 59, 80
5, 137279, Note_on_c, 4, 55, 0
5, 137279, Note_on_c, 4, 59, 0
5, 137280, Note_on_c, 4, 55, 80
5, 137280, Control_c, 4, 2, 80
5, 137280, Note_on_c, 4, 59, 80
5, 137759, Note_on_c, 4, 55, 0
5, 137759, Note_on_c, 4, 59, 0
5, 137760, Note_on_c, 4, 55, 80
5, 137760, Control_c, 4, 2, 80
5, 137760, Note_on_c, 4, 59, 80
5, 138239, Note_on_c, 4, 55, 0
5, 138239, Note_on_c, 4, 59, 0
5, 138240, Note_on_c, 4, 57, 80
5, 138240, Control_c, 4, 2, 80
5, 138479, Note_on_c, 4, 57, 0
5, 138480, Note_on_c, 4, 57, 80
5, 138480, Control_c, 4, 2, 80
5, 138719, Note_on_c, 4, 57, 0
5, 138720, Note_on_c, 4, 60, 80
5, 138720, Control_c, 4, 2, 80
5, 138720, Note_on_c, 4, 64, 80
5, 138959, Note_on_c, 4, 60, 0
5, 138959, Note_on_c, 4, 64, 0
5, 138960, Note_on_c, 4, 57, 80
5, 138960, Control_c, 4, 2, 80
5, 139199, Note_on_c, 4, 57, 0
5, 139200, Note_on_c, 4, 57, 80
5, 139200, Control_c, 4, 2, 80
5, 139439, Note_on_c, 4, 57, 0
5, 139440, Note_on_c, 4, 57, 80
5, 139440, Control_c, 4, 2, 80
5, 139679, Note_on_c, 4, 57, 0
5, 139680, Note_on_c, 4, 60, 80
5, 139680, Control_c, 4, 2, 80
5, 139680, Note_on_c, 4, 64, 80
5, 139919, Note_on_c, 4, 60, 0
5, 139919, Note_on_c, 4, 64, 0
5, 139920, Note_on_c, 4, 57, 80
5, 139920, Control_c, 4, 2, 80
5, 140159, Note_on_c, 4, 57, 0
5, 140160, Note_on_c, 4, 57, 80
5, 140160, Control_c, 4, 2, 80
5, 140399, Note_on_c, 4, 57, 0
5, 140400, Note_on_c, 4, 57, 80
5, 140400, Control_c, 4, 2, 80
5, 140639, Note_on_c, 4, 57, 0
5, 140640, Note_on_c, 4, 60, 80
5, 140640, Control_c, 4, 2, 80
5, 140640, Note_on_c, 4, 64, 80
5, 140879, Note_on_c, 4, 60, 0
5, 140879, Note_on_c, 4, 64, 0
5, 140880, Note_on_c, 4, 57, 80
5, 140880, Control_c, 4, 2, 80
5, 141119, Note_on_c, 4, 57, 0
5, 141120, Note_on_c, 4, 57, 80
5, 141120, Control_c, 4, 2, 80
5, 141359, Note_on_c, 4, 57, 0
5, 141360, Note_on_c, 4, 57, 80
5, 141360, Control_c, 4, 2, 80
5, 141599, Note_on_c, 4, 57, 0
5, 141600, Note_on_c, 4, 60, 80
5, 141600, Control_c, 4, 2, 80
5, 141600, Note_on_c, 4, 64, 80
5, 141839, Note_on_c, 4, 60, 0
5, 141839, Note_on_c, 4, 64, 0
5, 141840, Note_on_c, 4, 57, 80
5, 141840, Control_c, 4, 2, 80
5, 142079, Note_on_c, 4, 57, 0
5, 142080, Note_on_c, 4, 60, 80
5, 142080, Control_c, 4, 2, 80
5, 142319, Note_on_c, 4, 60, 0
5, 142320, Note_on_c, 4, 60, 80
5, 142320, Control_c, 4, 2, 80
5, 142559, Note_on_c, 4, 60, 0
5, 142560, Note_on_c, 4, 60, 80
5, 142560, Control_c, 4, 2, 80
5, 142560, Note_on_c, 4, 65, 80
5, 142799, Note_on_c, 4, 60, 0
5, 142799, Note_on_c, 4, 65, 0
5, 142800, Note_on_c, 4, 60, 80
5, 142800, Control_c, 4, 2, 80
5, 143039, Note_on_c, 4, 60, 0
5, 143040, Note_on_c, 4, 60, 80
5, 143040, Control_c, 4, 2, 80
5, 143279, Note_on_c, 4, 60, 0
5, 143280, Note_on_c, 4, 60, 80
5, 143280, Control_c, 4, 2, 80
5, 143519, Note_on_c, 4, 60, 0
5, 143520, Note_on_c, 4, 60, 80
5, 143520, Control_c, 4, 2, 80
5, 143520, Note_on_c, 4, 65, 80
5, 143759, Note_on_c, 4, 60, 0
5, 143759, Note_on_c, 4, 65, 0
5, 143760, Note_on_c, 4, 60, 80
5, 143760, Control_c, 4, 2, 80
5, 143999, Note_on_c, 4, 60, 0
5, 144000, Note_on_c, 4, 60, 80
5, 144000, Control_c, 4, 2, 80
5, 144239, Note_on_c, 4, 60, 0
5, 144240, Note_on_c, 4, 60, 80
5, 144240, Control_c, 4, 2, 80
5, 144479, Note_on_c, 4, 60, 0
5, 144480, Note_on_c, 4, 60, 80
5, 144480, Control_c, 4, 2, 80
5, 144480, Note_on_c, 4, 65, 80
5, 144719, Note_on_c, 4, 60, 0
5, 144719, Note_on_c, 4, 65, 0
5, 144720, Note_on_c, 4, 60, 80
5, 144720, Control_c, 4, 2, 80
5, 144959, Note_on_c, 4, 60, 0
5, 144960, Note_on_c, 4, 60, 80
5, 144960, Control_c, 4, 2, 80
5, 145199, Note_on_c, 4, 60, 0
5, 145200, Note_on_c, 4, 60, 80
5, 145200, Control_c, 4, 2, 80
5, 145439, Note_on_c, 4, 60, 0
5, 145440, Note_on_c, 4, 60, 80
5, 145440, Control_c, 4, 2, 80
5, 145440, Note_on_c, 4, 65, 80
5, 145679, Note_on_c, 4, 60, 0
5, 145679, Note_on_c, 4, 65, 0
5, 145680, Note_on_c, 4, 60, 80
5, 145680, Control_c, 4, 2, 80
5, 145919, Note_on_c, 4, 60, 0
5, 145920, Note_on_c, 4, 60, 80
5, 145920, Control_c, 4, 2, 80
5, 146159, Note_on_c, 4, 60, 0
5, 146160, Note_on_c, 4, 60, 80
5, 146160, Control_c, 4, 2, 80
5, 146399, Note_on_c, 4, 60, 0
5, 146400, Note_on_c, 4, 64, 80
5, 146400, Control_c, 4, 2, 80
5, 146400, Note_on_c, 4, 67, 80
5, 146639, Note_on_c, 4, 64, 0
5, 146639, Note_on_c, 4, 67, 0
5, 146640, Note_on_c, 4, 60, 80
5, 146640, Control_c, 4, 2, 80
5, 146879, Note_on_c, 4, 60, 0
5, 146880, Note_on_c, 4, 60, 80
5, 146880, Control_c, 4, 2, 80
5, 147119, Note_on_c, 4, 60, 0
5, 147120, Note_on_c, 4, 60, 80
5, 147120, Control_c, 4, 2, 80
5, 147359, Note_on_c, 4, 60, 0
5, 147360, Note_on_c, 4, 64, 80
5, 147360, Control_c, 4, 2, 80
5, 147360, Note_on_c, 4, 67, 80
5, 147599, Note_on_c, 4, 64, 0
5, 147599, Note_on_c, 4, 67, 0
5, 147600, Note_on_c, 4, 60, 80
5, 147600, Control_c, 4, 2, 80
5, 147839, Note_on_c, 4, 60, 0
5, 147840, Note_on_c, 4, 60, 80
5, 147840, Control_c, 4, 2, 80
5, 148079, Note_on_c, 4, 60, 0
5, 148080, Note_on_c, 4, 60, 80
5, 148080, Control_c, 4, 2, 80
5, 148319, Note_on_c, 4, 60, 0
5, 148320, Note_on_c, 4, 64, 80
5, 148320, Control_c, 4, 2, 80
5, 148320, Note_on_c, 4, 67, 80
5, 148559, Note_on_c, 4, 64, 0
5, 148559, Note_on_c, 4, 67, 0
5, 148560, Note_on_c, 4, 60, 80
5, 148560, Control_c, 4, 2, 80
5, 148799, Note_on_c, 4, 60, 0
5, 148800, Note_on_c, 4, 60, 80
5, 148800, Control_c, 4, 2, 80
5, 149039, Note_on_c, 4, 60, 0
5, 149040, Note_on_c, 4, 60, 80
5, 149040, Control_c, 4, 2, 80
5, 149279, Note_on_c, 4, 60, 0
5, 149280, Note_on_c, 4, 64, 80
5, 149280, Control_c, 4, 2, 80
5, 149280, Note_on_c, 4, 67, 80
5, 149519, Note_on_c, 4, 64, 0
5, 149519, Note_on_c, 4, 67, 0
5, 149520, Note_on_c, 4, 60, 80
5, 149520, Control_c, 4, 2, 80
5, 149759, Note_on_c, 4, 60, 0
5, 149760, Note_on_c, 4, 59, 80
5, 149760, Control_c, 4, 2, 80
5, 149999, Note_on_c, 4, 59, 0
5, 150000, Note_on_c, 4, 59, 80
5, 150000, Control_c, 4, 2, 80
5, 150239, Note_on_c, 4, 59, 0
5, 150240, Note_on_c, 4, 64, 80
5, 150240, Control_c, 4, 2, 80
5, 150479, Note_on_c, 4, 64, 0
5, 150480, Note_on_c, 4, 59, 80
5, 150480, Control_c, 4, 2, 80
5, 150719, Note_on_c, 4, 59, 0
5, 150720, Note_on_c, 4, 59, 80
5, 150720, Control_c, 4, 2, 80
5, 150959, Note_on_c, 4, 59, 0
5, 150960, Note_on_c, 4, 59, 80
5, 150960, Control_c, 4, 2, 80
5, 151199, Note_on_c, 4, 59, 0
5, 151200, Note_on_c, 4, 64, 80
5, 151200, Control_c, 4, 2, 80
5, 151439, Note_on_c, 4, 64, 0
5, 151440, Note_on_c, 4, 59, 80
5, 151440, Control_c, 4, 2, 80
5, 151679, Note_on_c, 4, 59, 0
5, 151680, Note_on_c, 4, 59, 80
5, 151680, Control_c, 4, 2, 80
5, 151919, Note_on_c, 4, 59, 0
5, 151920, Note_on_c, 4, 59, 80
5, 151920, Control_c, 4, 2, 80
5, 152159, Note_on_c, 4, 59, 0
5, 152160, Note_on_c, 4, 64, 80
5, 152160, Control_c, 4, 2, 80
5, 152399, Note_on_c, 4, 64, 0
5, 152400, Note_on_c, 4, 59, 80
5, 152400, Control_c, 4, 2, 80
5, 152639, Note_on_c, 4, 59, 0
5, 152640, Note_on_c, 4, 59, 80
5, 152640, Control_c, 4, 2, 80
5, 152879, Note_on_c, 4, 59, 0
5, 152880, Note_on_c, 4, 59, 80
5, 152880, Control_c, 4, 2, 80
5, 153119, Note_on_c, 4, 59, 0
5, 153120, Note_on_c, 4, 64, 80
5, 153120, Control_c, 4, 2, 80
5, 153359, Note_on_c, 4, 64, 0
5, 153360, Note_on_c, 4, 59, 80
5, 153360, Control_c, 4, 2, 80
5, 153599, Note_on_c, 4, 59, 0
5, 157440, Control_c, 4, 64, 0
5, 157441, End_track
0, 0, End_of_file
