0, 0, Header, 1, 3, 480
1, 0, Start_track
1, 0, Title_t, "Piano, Piano\000"
1, 0, Time_signature, 4, 2, 24, 8
1, 0, Key_signature, 0, "major"
1, 0, Tempo, 600000
1, 0, Control_c, 0, 121, 0
1, 0, Program_c, 0, 0
1, 0, Control_c, 0, 7, 100
1, 0, Control_c, 0, 10, 64
1, 0, Control_c, 0, 91, 0
1, 0, Control_c, 0, 93, 0
1, 0, MIDI_port, 0
1, 0, Note_on_c, 0, 76, 80
1, 455, Note_on_c, 0, 76, 0
1, 1920, Note_on_c, 0, 76, 80
1, 2375, Note_on_c, 0, 76, 0
1, 2400, Note_on_c, 0, 71, 80
1, 2627, Note_on_c, 0, 71, 0
1, 2640, Note_on_c, 0, 72, 80
1, 2867, Note_on_c, 0, 72, 0
1, 2880, Note_on_c, 0, 74, 80
1, 3335, Note_on_c, 0, 74, 0
1, 3360, Note_on_c, 0, 72, 80
1, 3587, Note_on_c, 0, 72, 0
1, 3600, Note_on_c, 0, 71, 80
1, 3827, Note_on_c, 0, 71, 0
1, 3840, Note_on_c, 0, 69, 80
1, 4523, Note_on_c, 0, 69, 0
1, 4560, Note_on_c, 0, 72, 80
1, 4787, Note_on_c, 0, 72, 0
1, 4800, Note_on_c, 0, 76, 80
1, 5255, Note_on_c, 0, 76, 0
1, 5280, Note_on_c, 0, 74, 80
1, 5507, Note_on_c, 0, 74, 0
1, 5520, Note_on_c, 0, 72, 80
1, 5747, Note_on_c, 0, 72, 0
1, 5760, Note_on_c, 0, 71, 80
1, 6443, Note_on_c, 0, 71, 0
1, 6480, Note_on_c, 0, 72, 80
1, 6707, Note_on_c, 0, 72, 0
1, 6720, Note_on_c, 0, 74, 80
1, 7175, Note_on_c, 0, 74, 0
1, 7200, Note_on_c, 0, 76, 80
1, 7427, Note_on_c, 0, 76, 0
1, 7440, Note_on_c, 0, 74, 80
1, 7667, Note_on_c, 0, 74, 0
1, 7680, Note_on_c, 0, 72, 80
1, 8135, Note_on_c, 0, 72, 0
1, 8160, Note_on_c, 0, 69, 80
1, 8615, Note_on_c, 0, 69, 0
1, 8640, Note_on_c, 0, 69, 80
1, 8867, Note_on_c, 0, 69, 0
1, 8880, Note_on_c, 0, 71, 80
1, 9107, Note_on_c, 0, 71, 0
1, 9120, Note_on_c, 0, 72, 80
1, 9347, Note_on_c, 0, 72, 0
1, 9360, Note_on_c, 0, 69, 80
1, 9587, Note_on_c, 0, 69, 0
1, 9840, Note_on_c, 0, 74, 80
1, 10295, Note_on_c, 0, 74, 0
1, 10320, Note_on_c, 0, 77, 80
1, 10547, Note_on_c, 0, 77, 0
1, 10560, Note_on_c, 0, 81, 80
1, 11015, Note_on_c, 0, 81, 0
1, 11040, Note_on_c, 0, 79, 80
1, 11267, Note_on_c, 0, 79, 0
1, 11280, Note_on_c, 0, 77, 80
1, 11507, Note_on_c, 0, 77, 0
1, 11760, Note_on_c, 0, 76, 80
1, 12215, Note_on_c, 0, 76, 0
1, 12240, Note_on_c, 0, 72, 80
1, 12467, Note_on_c, 0, 72, 0
1, 12480, Note_on_c, 0, 76, 80
1, 12935, Note_on_c, 0, 76, 0
1, 12960, Note_on_c, 0, 74, 80
1, 13187, Note_on_c, 0, 74, 0
1, 13200, Note_on_c, 0, 72, 80
1, 13427, Note_on_c, 0, 72, 0
1, 13680, Note_on_c, 0, 71, 80
1, 14135, Note_on_c, 0, 71, 0
1, 14160, Note_on_c, 0, 72, 80
1, 14387, Note_on_c, 0, 72, 0
1, 14400, Note_on_c, 0, 74, 80
1, 14855, Note_on_c, 0, 74, 0
1, 14880, Note_on_c, 0, 76, 80
1, 15107, Note_on_c, 0, 76, 0
1, 15120, Note_on_c, 0, 74, 80
1, 15347, Note_on_c, 0, 74, 0
1, 15360, Note_on_c, 0, 72, 80
1, 15815, Note_on_c, 0, 72, 0
1, 15840, Note_on_c, 0, 69, 80
1, 16295, Note_on_c, 0, 69, 0
1, 16320, Note_on_c, 0, 69, 80
1, 16547, Note_on_c, 0, 69, 0
1, 16560, Note_on_c, 0, 71, 80
1, 16787, Note_on_c, 0, 71, 0
1, 16800, Note_on_c, 0, 72, 80
1, 17027, Note_on_c, 0, 72, 0
1, 17040, Note_on_c, 0, 76, 80
1, 17267, Note_on_c, 0, 76, 0
1, 17520, Note_on_c, 0, 74, 80
1, 17975, Note_on_c, 0, 74, 0
1, 18000, Note_on_c, 0, 77, 80
1, 18227, Note_on_c, 0, 77, 0
1, 18240, Note_on_c, 0, 81, 80
1, 18695, Note_on_c, 0, 81, 0
1, 18720, Note_on_c, 0, 79, 80
1, 18947, Note_on_c, 0, 79, 0
1, 18960, Note_on_c, 0, 77, 80
1, 19187, Note_on_c, 0, 77, 0
1, 19440, Note_on_c, 0, 76, 80
1, 19895, Note_on_c, 0, 76, 0
1, 19920, Note_on_c, 0, 72, 80
1, 20147, Note_on_c, 0, 72, 0
1, 20160, Note_on_c, 0, 76, 80
1, 20615, Note_on_c, 0, 76, 0
1, 20640, Note_on_c, 0, 74, 80
1, 20867, Note_on_c, 0, 74, 0
1, 20880, Note_on_c, 0, 72, 80
1, 21107, Note_on_c, 0, 72, 0
1, 21360, Note_on_c, 0, 71, 80
1, 21815, Note_on_c, 0, 71, 0
1, 21840, Note_on_c, 0, 72, 80
1, 22067, Note_on_c, 0, 72, 0
1, 22080, Note_on_c, 0, 74, 80
1, 22535, Note_on_c, 0, 74, 0
1, 22560, Note_on_c, 0, 76, 80
1, 22787, Note_on_c, 0, 76, 0
1, 22800, Note_on_c, 0, 74, 80
1, 23027, Note_on_c, 0, 74, 0
1, 23040, Note_on_c, 0, 72, 80
1, 23495, Note_on_c, 0, 72, 0
1, 23520, Note_on_c, 0, 69, 80
1, 23975, Note_on_c, 0, 69, 0
1, 24000, Note_on_c, 0, 69, 80
1, 24455, Note_on_c, 0, 69, 0
1, 24960, Note_on_c, 0, 76, 80
1, 25415, Note_on_c, 0, 76, 0
1, 25440, Note_on_c, 0, 71, 80
1, 25667, Note_on_c, 0, 71, 0
1, 25680, Note_on_c, 0, 72, 80
1, 25907, Note_on_c, 0, 72, 0
1, 25920, Note_on_c, 0, 74, 80
1, 26147, Note_on_c, 0, 74, 0
1, 26160, Note_on_c, 0, 76, 80
1, 26273, Note_on_c, 0, 76, 0
1, 26280, Note_on_c, 0, 74, 80
1, 26393, Note_on_c, 0, 74, 0
1, 26400, Note_on_c, 0, 72, 80
1, 26627, Note_on_c, 0, 72, 0
1, 26640, Note_on_c, 0, 71, 80
1, 26867, Note_on_c, 0, 71, 0
1, 26880, Note_on_c, 0, 69, 80
1, 27335, Note_on_c, 0, 69, 0
1, 27360, Note_on_c, 0, 69, 80
1, 27587, Note_on_c, 0, 69, 0
1, 27600, Note_on_c, 0, 72, 80
1, 27827, Note_on_c, 0, 72, 0
1, 27840, Note_on_c, 0, 76, 80
1, 28295, Note_on_c, 0, 76, 0
1, 28320, Note_on_c, 0, 74, 80
1, 28547, Note_on_c, 0, 74, 0
1, 28560, Note_on_c, 0, 72, 80
1, 28787, Note_on_c, 0, 72, 0
1, 28800, Note_on_c, 0, 71, 80
1, 29255, Note_on_c, 0, 71, 0
1, 29280, Note_on_c, 0, 71, 80
1, 29507, Note_on_c, 0, 71, 0
1, 29520, Note_on_c, 0, 72, 80
1, 29747, Note_on_c, 0, 72, 0
1, 29760, Note_on_c, 0, 74, 80
1, 30215, Note_on_c, 0, 74, 0
1, 30240, Note_on_c, 0, 76, 80
1, 30695, Note_on_c, 0, 76, 0
1, 30720, Note_on_c, 0, 72, 80
1, 31175, Note_on_c, 0, 72, 0
1, 31200, Note_on_c, 0, 69, 80
1, 31655, Note_on_c, 0, 69, 0
1, 31680, Note_on_c, 0, 69, 80
1, 32135, Note_on_c, 0, 69, 0
1, 32880, Note_on_c, 0, 69, 80
1, 32880, Note_on_c, 0, 74, 80
1, 33335, Note_on_c, 0, 69, 0
1, 33335, Note_on_c, 0, 74, 0
1, 33360, Note_on_c, 0, 74, 80
1, 33360, Note_on_c, 0, 77, 80
1, 33587, Note_on_c, 0, 74, 0
1, 33587, Note_on_c, 0, 77, 0
1, 33600, Note_on_c, 0, 77, 80
1, 33600, Note_on_c, 0, 81, 80
1, 34055, Note_on_c, 0, 77, 0
1, 34055, Note_on_c, 0, 81, 0
1, 34080, Note_on_c, 0, 76, 80
1, 34080, Note_on_c, 0, 79, 80
1, 34307, Note_on_c, 0, 76, 0
1, 34307, Note_on_c, 0, 79, 0
1, 34320, Note_on_c, 0, 74, 80
1, 34320, Note_on_c, 0, 77, 80
1, 34547, Note_on_c, 0, 74, 0
1, 34547, Note_on_c, 0, 77, 0
1, 34560, Note_on_c, 0, 72, 80
1, 34560, Note_on_c, 0, 76, 80
1, 35243, Note_on_c, 0, 72, 0
1, 35243, Note_on_c, 0, 76, 0
1, 35280, Note_on_c, 0, 69, 80
1, 35280, Note_on_c, 0, 72, 80
1, 35507, Note_on_c, 0, 69, 0
1, 35507, Note_on_c, 0, 72, 0
1, 35520, Note_on_c, 0, 72, 80
1, 35520, Note_on_c, 0, 76, 80
1, 35975, Note_on_c, 0, 72, 0
1, 35975, Note_on_c, 0, 76, 0
1, 36000, Note_on_c, 0, 71, 80
1, 36000, Note_on_c, 0, 74, 80
1, 36227, Note_on_c, 0, 71, 0
1, 36227, Note_on_c, 0, 74, 0
1, 36240, Note_on_c, 0, 69, 80
1, 36240, Note_on_c, 0, 72, 80
1, 36695, Note_on_c, 0, 69, 0
1, 36695, Note_on_c, 0, 72, 0
1, 36720, Note_on_c, 0, 71, 80
1, 37175, Note_on_c, 0, 71, 0
1, 37200, Note_on_c, 0, 69, 80
1, 37200, Note_on_c, 0, 72, 80
1, 37427, Note_on_c, 0, 69, 0
1, 37427, Note_on_c, 0, 72, 0
1, 37440, Note_on_c, 0, 71, 80
1, 37440, Note_on_c, 0, 74, 80
1, 37895, Note_on_c, 0, 71, 0
1, 37895, Note_on_c, 0, 74, 0
1, 37920, Note_on_c, 0, 72, 80
1, 37920, Note_on_c, 0, 76, 80
1, 38375, Note_on_c, 0, 72, 0
1, 38375, Note_on_c, 0, 76, 0
1, 38400, Note_on_c, 0, 69, 80
1, 38400, Note_on_c, 0, 72, 80
1, 38855, Note_on_c, 0, 69, 0
1, 38855, Note_on_c, 0, 72, 0
1, 38880, Note_on_c, 0, 69, 80
1, 39335, Note_on_c, 0, 69, 0
1, 39360, Note_on_c, 0, 69, 80
1, 39815, Note_on_c, 0, 69, 0
1, 39840, Note_on_c, 0, 72, 80
1, 40295, Note_on_c, 0, 72, 0
1, 40320, Note_on_c, 0, 64, 80
1, 40320, Note_on_c, 0, 71, 80
1, 40775, Note_on_c, 0, 64, 0
1, 40775, Note_on_c, 0, 71, 0
1, 41040, Note_on_c, 0, 69, 80
1, 41040, Note_on_c, 0, 72, 80
1, 41267, Note_on_c, 0, 69, 0
1, 41267, Note_on_c, 0, 72, 0
1, 41280, Note_on_c, 0, 71, 80
1, 41280, Note_on_c, 0, 74, 80
1, 41735, Note_on_c, 0, 71, 0
1, 41735, Note_on_c, 0, 74, 0
1, 41760, Note_on_c, 0, 72, 80
1, 41760, Note_on_c, 0, 76, 80
1, 41879, Note_on_c, 0, 72, 0
1, 41879, Note_on_c, 0, 76, 0
1, 42000, Note_on_c, 0, 71, 80
1, 42000, Note_on_c, 0, 74, 80
1, 42119, Note_on_c, 0, 71, 0
1, 42119, Note_on_c, 0, 74, 0
1, 42240, Note_on_c, 0, 69, 80
1, 42240, Note_on_c, 0, 72, 80
1, 42479, Note_on_c, 0, 69, 0
1, 42479, Note_on_c, 0, 72, 0
1, 42720, Note_on_c, 0, 64, 80
1, 42720, Note_on_c, 0, 69, 80
1, 42959, Note_on_c, 0, 64, 0
1, 42959, Note_on_c, 0, 69, 0
1, 43200, Note_on_c, 0, 72, 80
1, 43200, Note_on_c, 0, 76, 80
1, 43655, Note_on_c, 0, 72, 0
1, 43655, Note_on_c, 0, 76, 0
1, 43680, Note_on_c, 0, 71, 80
1, 43680, Note_on_c, 0, 74, 80
1, 43799, Note_on_c, 0, 71, 0
1, 43799, Note_on_c, 0, 74, 0
1, 43920, Note_on_c, 0, 69, 80
1, 43920, Note_on_c, 0, 72, 80
1, 44039, Note_on_c, 0, 69, 0
1, 44039, Note_on_c, 0, 72, 0
1, 44160, Note_on_c, 0, 64, 80
1, 44160, Note_on_c, 0, 71, 80
1, 44880, Note_on_c, 0, 69, 80
1, 44880, Note_on_c, 0, 72, 80
1, 44999, Note_on_c, 0, 69, 0
1, 44999, Note_on_c, 0, 72, 0
1, 45071, Note_on_c, 0, 64, 0
1, 45071, Note_on_c, 0, 71, 0
1, 45120, Note_on_c, 0, 71, 80
1, 45120, Note_on_c, 0, 74, 80
1, 45359, Note_on_c, 0, 71, 0
1, 45359, Note_on_c, 0, 74, 0
1, 45600, Note_on_c, 0, 72, 80
1, 45600, Note_on_c, 0, 76, 80
1, 45839, Note_on_c, 0, 72, 0
1, 45839, Note_on_c, 0, 76, 0
1, 46080, Note_on_c, 0, 69, 80
1, 46080, Note_on_c, 0, 72, 80
1, 46319, Note_on_c, 0, 69, 0
1, 46319, Note_on_c, 0, 72, 0
1, 46560, Note_on_c, 0, 64, 80
1, 46560, Note_on_c, 0, 69, 80
1, 46799, Note_on_c, 0, 64, 0
1, 46799, Note_on_c, 0, 69, 0
1, 47040, Note_on_c, 0, 64, 80
1, 47040, Note_on_c, 0, 69, 80
1, 47279, Note_on_c, 0, 64, 0
1, 47279, Note_on_c, 0, 69, 0
1, 48000, Note_on_c, 0, 74, 80
1, 48000, Note_on_c, 0, 77, 80
1, 48455, Note_on_c, 0, 74, 0
1, 48455, Note_on_c, 0, 77, 0
1, 48720, Note_on_c, 0, 69, 80
1, 48720, Note_on_c, 0, 74, 80
1, 48839, Note_on_c, 0, 69, 0
1, 48839, Note_on_c, 0, 74, 0
1, 48960, Note_on_c, 0, 77, 80
1, 48960, Note_on_c, 0, 81, 80
1, 49199, Note_on_c, 0, 77, 0
1, 49199, Note_on_c, 0, 81, 0
1, 49680, Note_on_c, 0, 74, 80
1, 49680, Note_on_c, 0, 77, 80
1, 49799, Note_on_c, 0, 74, 0
1, 49799, Note_on_c, 0, 77, 0
1, 49920, Note_on_c, 0, 72, 80
1, 49920, Note_on_c, 0, 76, 80
1, 50159, Note_on_c, 0, 72, 0
1, 50159, Note_on_c, 0, 76, 0
1, 50400, Note_on_c, 0, 74, 80
1, 50400, Note_on_c, 0, 77, 80
1, 50519, Note_on_c, 0, 74, 0
1, 50519, Note_on_c, 0, 77, 0
1, 50640, Note_on_c, 0, 72, 80
1, 50640, Note_on_c, 0, 76, 80
1, 50759, Note_on_c, 0, 72, 0
1, 50759, Note_on_c, 0, 76, 0
1, 51120, Note_on_c, 0, 71, 80
1, 51120, Note_on_c, 0, 74, 80
1, 51239, Note_on_c, 0, 71, 0
1, 51239, Note_on_c, 0, 74, 0
1, 51360, Note_on_c, 0, 69, 80
1, 51360, Note_on_c, 0, 72, 80
1, 51599, Note_on_c, 0, 69, 0
1, 51599, Note_on_c, 0, 72, 0
1, 51840, Note_on_c, 0, 71, 80
1, 52295, Note_on_c, 0, 71, 0
1, 52560, Note_on_c, 0, 69, 80
1, 52560, Note_on_c, 0, 72, 80
1, 52679, Note_on_c, 0, 69, 0
1, 52679, Note_on_c, 0, 72, 0
1, 52800, Note_on_c, 0, 71, 80
1, 52800, Note_on_c, 0, 74, 80
1, 53039, Note_on_c, 0, 71, 0
1, 53039, Note_on_c, 0, 74, 0
1, 53280, Note_on_c, 0, 72, 80
1, 53280, Note_on_c, 0, 76, 80
1, 53399, Note_on_c, 0, 72, 0
1, 53399, Note_on_c, 0, 76, 0
1, 53520, Note_on_c, 0, 71, 80
1, 53520, Note_on_c, 0, 74, 80
1, 53639, Note_on_c, 0, 71, 0
1, 53639, Note_on_c, 0, 74, 0
1, 53760, Note_on_c, 0, 69, 80
1, 53760, Note_on_c, 0, 72, 80
1, 53999, Note_on_c, 0, 69, 0
1, 53999, Note_on_c, 0, 72, 0
1, 54240, Note_on_c, 0, 64, 80
1, 54240, Note_on_c, 0, 69, 80
1, 54479, Note_on_c, 0, 64, 0
1, 54479, Note_on_c, 0, 69, 0
1, 54720, Note_on_c, 0, 64, 80
1, 54720, Note_on_c, 0, 69, 80
1, 54959, Note_on_c, 0, 64, 0
1, 54959, Note_on_c, 0, 69, 0
1, 55680, Note_on_c, 0, 72, 80
1, 55680, Note_on_c, 0, 76, 80
1, 56591, Note_on_c, 0, 72, 0
1, 56591, Note_on_c, 0, 76, 0
1, 56640, Note_on_c, 0, 69, 80
1, 56640, Note_on_c, 0, 72, 80
1, 57551, Note_on_c, 0, 69, 0
1, 57551, Note_on_c, 0, 72, 0
1, 57600, Note_on_c, 0, 71, 80
1, 57600, Note_on_c, 0, 74, 80
1, 58511, Note_on_c, 0, 71, 0
1, 58511, Note_on_c, 0, 74, 0
1, 58560, Note_on_c, 0, 71, 80
1, 59471, Note_on_c, 0, 71, 0
1, 59520, Note_on_c, 0, 69, 80
1, 59520, Note_on_c, 0, 72, 80
1, 60431, Note_on_c, 0, 69, 0
1, 60431, Note_on_c, 0, 72, 0
1, 60480, Note_on_c, 0, 64, 80
1, 60480, Note_on_c, 0, 69, 80
1, 61391, Note_on_c, 0, 64, 0
1, 61391, Note_on_c, 0, 69, 0
1, 61440, Note_on_c, 0, 71, 80
1, 62351, Note_on_c, 0, 71, 0
1, 62400, Note_on_c, 0, 71, 80
1, 62400, Note_on_c, 0, 74, 80
1, 63311, Note_on_c, 0, 71, 0
1, 63311, Note_on_c, 0, 74, 0
1, 63360, Note_on_c, 0, 69, 80
1, 63360, Note_on_c, 0, 72, 80
1, 63360, Note_on_c, 0, 76, 80
1, 64271, Note_on_c, 0, 69, 0
1, 64271, Note_on_c, 0, 72, 0
1, 64271, Note_on_c, 0, 76, 0
1, 64320, Note_on_c, 0, 64, 80
1, 64320, Note_on_c, 0, 69, 80
1, 64320, Note_on_c, 0, 72, 80
1, 65231, Note_on_c, 0, 64, 0
1, 65231, Note_on_c, 0, 69, 0
1, 65231, Note_on_c, 0, 72, 0
1, 65280, Note_on_c, 0, 71, 80
1, 65280, Note_on_c, 0, 74, 80
1, 66191, Note_on_c, 0, 71, 0
1, 66191, Note_on_c, 0, 74, 0
1, 66240, Note_on_c, 0, 64, 80
1, 66240, Note_on_c, 0, 71, 80
1, 67151, Note_on_c, 0, 64, 0
1, 67151, Note_on_c, 0, 71, 0
1, 67200, Note_on_c, 0, 64, 80
1, 67200, Note_on_c, 0, 69, 80
1, 67200, Note_on_c, 0, 72, 80
1, 67655, Note_on_c, 0, 64, 0
1, 67655, Note_on_c, 0, 69, 0
1, 67655, Note_on_c, 0, 72, 0
1, 67680, Note_on_c, 0, 69, 80
1, 67680, Note_on_c, 0, 72, 80
1, 67680, Note_on_c, 0, 76, 80
1, 68135, Note_on_c, 0, 69, 0
1, 68135, Note_on_c, 0, 72, 0
1, 68135, Note_on_c, 0, 76, 0
1, 68160, Note_on_c, 0, 72, 80
1, 68160, Note_on_c, 0, 76, 80
1, 68160, Note_on_c, 0, 81, 80
1, 68615, Note_on_c, 0, 72, 0
1, 68615, Note_on_c, 0, 76, 0
1, 68615, Note_on_c, 0, 81, 0
1, 68640, Note_on_c, 0, 76, 80
1, 68640, Note_on_c, 0, 84, 80
1, 69095, Note_on_c, 0, 76, 0
1, 69095, Note_on_c, 0, 84, 0
1, 69120, Note_on_c, 0, 76, 80
1, 69120, Note_on_c, 0, 83, 80
1, 70943, Note_on_c, 0, 76, 0
1, 70943, Note_on_c, 0, 83, 0
1, 71040, Note_on_c, 0, 71, 80
1, 71040, Note_on_c, 0, 76, 80
1, 71495, Note_on_c, 0, 71, 0
1, 71495, Note_on_c, 0, 76, 0
1, 71520, Note_on_c, 0, 71, 80
1, 71760, Note_on_c, 0, 72, 80
1, 71975, Note_on_c, 0, 71, 0
1, 71987, Note_on_c, 0, 72, 0
1, 72000, Note_on_c, 0, 74, 80
1, 72000, Note_on_c, 0, 71, 80
1, 72455, Note_on_c, 0, 74, 0
1, 72480, Note_on_c, 0, 72, 80
1, 72707, Note_on_c, 0, 72, 0
1, 72720, Note_on_c, 0, 71, 0
1, 72720, Note_on_c, 0, 71, 80
1, 72947, Note_on_c, 0, 71, 0
1, 72960, Note_on_c, 0, 64, 80
1, 72960, Note_on_c, 0, 69, 80
1, 73680, Note_on_c, 0, 72, 80
1, 73871, Note_on_c, 0, 64, 0
1, 73871, Note_on_c, 0, 69, 0
1, 73907, Note_on_c, 0, 72, 0
1, 73920, Note_on_c, 0, 76, 80
1, 73920, Note_on_c, 0, 72, 80
1, 74375, Note_on_c, 0, 76, 0
1, 74400, Note_on_c, 0, 74, 80
1, 74627, Note_on_c, 0, 74, 0
1, 74640, Note_on_c, 0, 72, 0
1, 74640, Note_on_c, 0, 72, 80
1, 74867, Note_on_c, 0, 72, 0
1, 74880, Note_on_c, 0, 71, 80
1, 75335, Note_on_c, 0, 71, 0
1, 75360, Note_on_c, 0, 71, 80
1, 75587, Note_on_c, 0, 71, 0
1, 75600, Note_on_c, 0, 72, 80
1, 75827, Note_on_c, 0, 72, 0
1, 75840, Note_on_c, 0, 74, 80
1, 76295, Note_on_c, 0, 74, 0
1, 76320, Note_on_c, 0, 76, 80
1, 76775, Note_on_c, 0, 76, 0
1, 76800, Note_on_c, 0, 69, 80
1, 76800, Note_on_c, 0, 72, 80
1, 77255, Note_on_c, 0, 69, 0
1, 77255, Note_on_c, 0, 72, 0
1, 77280, Note_on_c, 0, 64, 80
1, 77280, Note_on_c, 0, 69, 80
1, 77735, Note_on_c, 0, 64, 0
1, 77735, Note_on_c, 0, 69, 0
1, 77760, Note_on_c, 0, 69, 80
1, 77760, Note_on_c, 0, 64, 80
1, 77987, Note_on_c, 0, 64, 0
1, 78000, Note_on_c, 0, 57, 80
1, 78000, Note_on_c, 0, 60, 80
1, 78227, Note_on_c, 0, 57, 0
1, 78227, Note_on_c, 0, 60, 0
1, 78240, Note_on_c, 0, 59, 80
1, 78240, Note_on_c, 0, 62, 80
1, 78467, Note_on_c, 0, 59, 0
1, 78467, Note_on_c, 0, 62, 0
1, 78480, Note_on_c, 0, 60, 80
1, 78480, Note_on_c, 0, 64, 80
1, 78671, Note_on_c, 0, 69, 0
1, 78707, Note_on_c, 0, 60, 0
1, 78707, Note_on_c, 0, 64, 0
1, 78720, Note_on_c, 0, 74, 80
1, 78720, Note_on_c, 0, 69, 80
1, 79403, Note_on_c, 0, 74, 0
1, 79440, Note_on_c, 0, 74, 80
1, 79440, Note_on_c, 0, 77, 80
1, 79631, Note_on_c, 0, 69, 0
1, 79667, Note_on_c, 0, 74, 0
1, 79667, Note_on_c, 0, 77, 0
1, 79680, Note_on_c, 0, 81, 80
1, 79680, Note_on_c, 0, 77, 80
1, 80135, Note_on_c, 0, 81, 0
1, 80160, Note_on_c, 0, 76, 80
1, 80160, Note_on_c, 0, 79, 80
1, 80387, Note_on_c, 0, 76, 0
1, 80387, Note_on_c, 0, 79, 0
1, 80400, Note_on_c, 0, 74, 80
1, 80400, Note_on_c, 0, 77, 0
1, 80400, Note_on_c, 0, 77, 80
1, 80627, Note_on_c, 0, 74, 0
1, 80627, Note_on_c, 0, 77, 0
1, 80640, Note_on_c, 0, 76, 80
1, 80640, Note_on_c, 0, 72, 80
1, 81323, Note_on_c, 0, 72, 0
1, 81360, Note_on_c, 0, 72, 80
1, 81551, Note_on_c, 0, 76, 0
1, 81587, Note_on_c, 0, 72, 0
1, 81600, Note_on_c, 0, 76, 80
1, 82055, Note_on_c, 0, 76, 0
1, 82080, Note_on_c, 0, 74, 80
1, 82307, Note_on_c, 0, 74, 0
1, 82320, Note_on_c, 0, 72, 80
1, 82547, Note_on_c, 0, 72, 0
1, 82560, Note_on_c, 0, 64, 80
1, 82560, Note_on_c, 0, 71, 80
1, 83015, Note_on_c, 0, 71, 0
1, 83040, Note_on_c, 0, 71, 80
1, 83267, Note_on_c, 0, 71, 0
1, 83280, Note_on_c, 0, 72, 80
1, 83471, Note_on_c, 0, 64, 0
1, 83507, Note_on_c, 0, 72, 0
1, 83520, Note_on_c, 0, 74, 80
1, 83520, Note_on_c, 0, 71, 80
1, 83975, Note_on_c, 0, 74, 0
1, 84000, Note_on_c, 0, 76, 80
1, 84431, Note_on_c, 0, 71, 0
1, 84455, Note_on_c, 0, 76, 0
1, 84480, Note_on_c, 0, 64, 80
1, 84480, Note_on_c, 0, 69, 80
1, 84480, Note_on_c, 0, 72, 80
1, 84935, Note_on_c, 0, 64, 0
1, 84935, Note_on_c, 0, 69, 0
1, 84935, Note_on_c, 0, 72, 0
1, 84960, Note_on_c, 0, 64, 80
1, 84960, Note_on_c, 0, 69, 80
1, 85415, Note_on_c, 0, 64, 0
1, 85415, Note_on_c, 0, 69, 0
1, 85440, Note_on_c, 0, 64, 80
1, 85440, Note_on_c, 0, 69, 80
1, 86351, Note_on_c, 0, 64, 0
1, 86351, Note_on_c, 0, 69, 0
1, 86400, Note_on_c, 0, 71, 80
1, 86400, Note_on_c, 0, 76, 80
1, 86855, Note_on_c, 0, 71, 0
1, 86855, Note_on_c, 0, 76, 0
1, 86880, Note_on_c, 0, 71, 80
1, 87107, Note_on_c, 0, 71, 0
1, 87120, Note_on_c, 0, 69, 80
1, 87120, Note_on_c, 0, 72, 80
1, 87347, Note_on_c, 0, 69, 0
1, 87347, Note_on_c, 0, 72, 0
1, 87360, Note_on_c, 0, 71, 80
1, 87360, Note_on_c, 0, 74, 80
1, 87587, Note_on_c, 0, 71, 0
1, 87587, Note_on_c, 0, 74, 0
1, 87600, Note_on_c, 0, 72, 80
1, 87600, Note_on_c, 0, 76, 80
1, 87713, Note_on_c, 0, 72, 0
1, 87713, Note_on_c, 0, 76, 0
1, 87720, Note_on_c, 0, 71, 80
1, 87720, Note_on_c, 0, 74, 80
1, 87833, Note_on_c, 0, 71, 0
1, 87833, Note_on_c, 0, 74, 0
1, 87840, Note_on_c, 0, 69, 80
1, 87840, Note_on_c, 0, 72, 80
1, 88067, Note_on_c, 0, 69, 0
1, 88067, Note_on_c, 0, 72, 0
1, 88080, Note_on_c, 0, 71, 80
1, 88307, Note_on_c, 0, 71, 0
1, 88320, Note_on_c, 0, 64, 80
1, 88320, Note_on_c, 0, 69, 80
1, 88775, Note_on_c, 0, 64, 0
1, 88775, Note_on_c, 0, 69, 0
1, 88800, Note_on_c, 0, 64, 80
1, 88800, Note_on_c, 0, 69, 80
1, 89039, Note_on_c, 0, 69, 0
1, 89040, Note_on_c, 0, 72, 80
1, 89255, Note_on_c, 0, 64, 0
1, 89267, Note_on_c, 0, 72, 0
1, 89280, Note_on_c, 0, 69, 80
1, 89280, Note_on_c, 0, 76, 80
1, 89735, Note_on_c, 0, 69, 0
1, 89735, Note_on_c, 0, 76, 0
1, 89760, Note_on_c, 0, 69, 80
1, 89760, Note_on_c, 0, 74, 80
1, 89987, Note_on_c, 0, 69, 0
1, 89987, Note_on_c, 0, 74, 0
1, 90000, Note_on_c, 0, 69, 80
1, 90000, Note_on_c, 0, 72, 80
1, 90227, Note_on_c, 0, 69, 0
1, 90227, Note_on_c, 0, 72, 0
1, 90240, Note_on_c, 0, 64, 80
1, 90240, Note_on_c, 0, 71, 80
1, 90695, Note_on_c, 0, 64, 0
1, 90695, Note_on_c, 0, 71, 0
1, 90720, Note_on_c, 0, 71, 80
1, 90947, Note_on_c, 0, 71, 0
1, 90960, Note_on_c, 0, 69, 80
1, 90960, Note_on_c, 0, 72, 80
1, 91187, Note_on_c, 0, 69, 0
1, 91187, Note_on_c, 0, 72, 0
1, 91200, Note_on_c, 0, 71, 80
1, 91200, Note_on_c, 0, 74, 80
1, 91655, Note_on_c, 0, 71, 0
1, 91655, Note_on_c, 0, 74, 0
1, 91680, Note_on_c, 0, 71, 80
1, 91680, Note_on_c, 0, 76, 80
1, 92135, Note_on_c, 0, 71, 0
1, 92135, Note_on_c, 0, 76, 0
1, 92160, Note_on_c, 0, 64, 80
1, 92160, Note_on_c, 0, 69, 80
1, 92160, Note_on_c, 0, 72, 80
1, 92615, Note_on_c, 0, 64, 0
1, 92615, Note_on_c, 0, 69, 0
1, 92615, Note_on_c, 0, 72, 0
1, 92640, Note_on_c, 0, 64, 80
1, 92640, Note_on_c, 0, 69, 80
1, 93095, Note_on_c, 0, 64, 0
1, 93095, Note_on_c, 0, 69, 0
1, 93120, Note_on_c, 0, 64, 80
1, 93120, Note_on_c, 0, 69, 80
1, 94031, Note_on_c, 0, 64, 0
1, 94031, Note_on_c, 0, 69, 0
1, 94080, Note_on_c, 0, 65, 80
1, 94080, Note_on_c, 0, 69, 80
1, 94080, Note_on_c, 0, 74, 80
1, 94535, Note_on_c, 0, 65, 0
1, 94535, Note_on_c, 0, 69, 0
1, 94535, Note_on_c, 0, 74, 0
1, 94560, Note_on_c, 0, 74, 80
1, 94560, Note_on_c, 0, 69, 80
1, 94787, Note_on_c, 0, 74, 0
1, 94800, Note_on_c, 0, 77, 80
1, 95015, Note_on_c, 0, 69, 0
1, 95027, Note_on_c, 0, 77, 0
1, 95040, Note_on_c, 0, 74, 80
1, 95040, Note_on_c, 0, 81, 80
1, 95495, Note_on_c, 0, 74, 0
1, 95495, Note_on_c, 0, 81, 0
1, 95520, Note_on_c, 0, 74, 80
1, 95520, Note_on_c, 0, 79, 80
1, 95747, Note_on_c, 0, 74, 0
1, 95747, Note_on_c, 0, 79, 0
1, 95760, Note_on_c, 0, 74, 80
1, 95760, Note_on_c, 0, 77, 80
1, 95987, Note_on_c, 0, 74, 0
1, 95987, Note_on_c, 0, 77, 0
1, 96000, Note_on_c, 0, 72, 80
1, 96000, Note_on_c, 0, 76, 80
1, 96455, Note_on_c, 0, 72, 0
1, 96455, Note_on_c, 0, 76, 0
1, 96480, Note_on_c, 0, 72, 80
1, 96480, Note_on_c, 0, 76, 80
1, 96707, Note_on_c, 0, 72, 0
1, 96707, Note_on_c, 0, 76, 0
1, 96720, Note_on_c, 0, 69, 80
1, 96720, Note_on_c, 0, 72, 80
1, 96947, Note_on_c, 0, 69, 0
1, 96947, Note_on_c, 0, 72, 0
1, 96960, Note_on_c, 0, 72, 80
1, 96960, Note_on_c, 0, 76, 80
1, 97415, Note_on_c, 0, 72, 0
1, 97415, Note_on_c, 0, 76, 0
1, 97440, Note_on_c, 0, 71, 80
1, 97440, Note_on_c, 0, 74, 80
1, 97667, Note_on_c, 0, 71, 0
1, 97667, Note_on_c, 0, 74, 0
1, 97680, Note_on_c, 0, 69, 80
1, 97680, Note_on_c, 0, 72, 80
1, 97907, Note_on_c, 0, 69, 0
1, 97907, Note_on_c, 0, 72, 0
1, 97920, Note_on_c, 0, 64, 80
1, 97920, Note_on_c, 0, 71, 80
1, 98375, Note_on_c, 0, 64, 0
1, 98375, Note_on_c, 0, 71, 0
1, 98400, Note_on_c, 0, 71, 80
1, 98627, Note_on_c, 0, 71, 0
1, 98640, Note_on_c, 0, 69, 80
1, 98640, Note_on_c, 0, 72, 80
1, 98867, Note_on_c, 0, 69, 0
1, 98867, Note_on_c, 0, 72, 0
1, 98880, Note_on_c, 0, 71, 80
1, 98880, Note_on_c, 0, 74, 80
1, 99335, Note_on_c, 0, 71, 0
1, 99335, Note_on_c, 0, 74, 0
1, 99360, Note_on_c, 0, 71, 80
1, 99360, Note_on_c, 0, 76, 80
1, 99815, Note_on_c, 0, 71, 0
1, 99815, Note_on_c, 0, 76, 0
1, 99840, Note_on_c, 0, 64, 80
1, 99840, Note_on_c, 0, 69, 80
1, 99840, Note_on_c, 0, 72, 80
1, 100079, Note_on_c, 0, 64, 0
1, 100079, Note_on_c, 0, 69, 0
1, 100079, Note_on_c, 0, 72, 0
1, 100320, Note_on_c, 0, 60, 80
1, 100320, Note_on_c, 0, 64, 80
1, 100320, Note_on_c, 0, 69, 80
1, 100559, Note_on_c, 0, 60, 0
1, 100559, Note_on_c, 0, 64, 0
1, 100559, Note_on_c, 0, 69, 0
1, 100800, Note_on_c, 0, 60, 80
1, 100800, Note_on_c, 0, 64, 80
1, 100800, Note_on_c, 0, 69, 80
1, 101711, Note_on_c, 0, 60, 0
1, 101711, Note_on_c, 0, 64, 0
1, 101711, Note_on_c, 0, 69, 0
1, 101712, End_track
2, 0, Start_track
2, 0, Title_t, "Classical Guitar, Lute\000"
2, 0, Key_signature, 0, "major"
2, 0, Control_c, 2, 121, 0
2, 0, Program_c, 2, 24
2, 0, Control_c, 2, 7, 100
2, 0, Control_c, 2, 10, 64
2, 0, Control_c, 2, 91, 0
2, 0, Control_c, 2, 93, 0
2, 0, MIDI_port, 0
2, 0, Control_c, 3, 121, 0
2, 0, Program_c, 3, 28
2, 0, Control_c, 3, 7, 100
2, 0, Control_c, 3, 10, 64
2, 0, Control_c, 3, 91, 0
2, 0, Control_c, 3, 93, 0
2, 0, MIDI_port, 0
2, 1920, Note_on_c, 2, 52, 80
2, 2159, Note_on_c, 2, 52, 0
2, 2160, Note_on_c, 2, 59, 80
2, 2399, Note_on_c, 2, 59, 0
2, 2400, Note_on_c, 2, 52, 80
2, 2639, Note_on_c, 2, 52, 0
2, 2640, Note_on_c, 2, 59, 80
2, 2879, Note_on_c, 2, 59, 0
2, 2880, Note_on_c, 2, 52, 80
2, 3119, Note_on_c, 2, 52, 0
2, 3120, Note_on_c, 2, 59, 80
2, 3359, Note_on_c, 2, 59, 0
2, 3360, Note_on_c, 2, 52, 80
2, 3599, Note_on_c, 2, 52, 0
2, 3600, Note_on_c, 2, 59, 80
2, 3839, Note_on_c, 2, 59, 0
2, 3840, Note_on_c, 2, 52, 80
2, 4079, Note_on_c, 2, 52, 0
2, 4080, Note_on_c, 2, 60, 80
2, 4319, Note_on_c, 2, 60, 0
2, 4320, Note_on_c, 2, 52, 80
2, 4559, Note_on_c, 2, 52, 0
2, 4560, Note_on_c, 2, 60, 80
2, 4799, Note_on_c, 2, 60, 0
2, 4800, Note_on_c, 2, 52, 80
2, 5039, Note_on_c, 2, 52, 0
2, 5040, Note_on_c, 2, 60, 80
2, 5279, Note_on_c, 2, 60, 0
2, 5280, Note_on_c, 2, 52, 80
2, 5519, Note_on_c, 2, 52, 0
2, 5520, Note_on_c, 2, 60, 80
2, 5759, Note_on_c, 2, 60, 0
2, 5760, Note_on_c, 2, 52, 80
2, 5999, Note_on_c, 2, 52, 0
2, 6000, Note_on_c, 2, 62, 80
2, 6239, Note_on_c, 2, 62, 0
2, 6240, Note_on_c, 2, 52, 80
2, 6479, Note_on_c, 2, 52, 0
2, 6480, Note_on_c, 2, 62, 80
2, 6719, Note_on_c, 2, 62, 0
2, 6720, Note_on_c, 2, 52, 80
2, 6959, Note_on_c, 2, 52, 0
2, 6960, Note_on_c, 2, 62, 80
2, 7199, Note_on_c, 2, 62, 0
2, 7200, Note_on_c, 2, 52, 80
2, 7439, Note_on_c, 2, 52, 0
2, 7440, Note_on_c, 2, 62, 80
2, 7679, Note_on_c, 2, 62, 0
2, 7680, Note_on_c, 2, 52, 80
2, 7919, Note_on_c, 2, 52, 0
2, 7920, Note_on_c, 2, 60, 80
2, 8159, Note_on_c, 2, 60, 0
2, 8160, Note_on_c, 2, 52, 80
2, 8399, Note_on_c, 2, 52, 0
2, 8400, Note_on_c, 2, 60, 80
2, 8639, Note_on_c, 2, 60, 0
2, 8640, Note_on_c, 2, 52, 80
2, 8879, Note_on_c, 2, 52, 0
2, 8880, Note_on_c, 2, 60, 80
2, 9119, Note_on_c, 2, 60, 0
2, 9120, Note_on_c, 2, 52, 80
2, 9359, Note_on_c, 2, 52, 0
2, 9360, Note_on_c, 2, 60, 80
2, 9599, Note_on_c, 2, 60, 0
2, 9600, Note_on_c, 2, 50, 80
2, 9839, Note_on_c, 2, 50, 0
2, 9840, Note_on_c, 2, 57, 80
2, 10079, Note_on_c, 2, 57, 0
2, 10080, Note_on_c, 2, 50, 80
2, 10319, Note_on_c, 2, 50, 0
2, 10320, Note_on_c, 2, 57, 80
2, 10559, Note_on_c, 2, 57, 0
2, 10560, Note_on_c, 2, 50, 80
2, 10799, Note_on_c, 2, 50, 0
2, 10800, Note_on_c, 2, 57, 80
2, 11039, Note_on_c, 2, 57, 0
2, 11040, Note_on_c, 2, 50, 80
2, 11279, Note_on_c, 2, 50, 0
2, 11280, Note_on_c, 2, 57, 80
2, 11519, Note_on_c, 2, 57, 0
2, 11520, Note_on_c, 2, 48, 80
2, 11759, Note_on_c, 2, 48, 0
2, 11760, Note_on_c, 2, 55, 80
2, 11999, Note_on_c, 2, 55, 0
2, 12000, Note_on_c, 2, 48, 80
2, 12239, Note_on_c, 2, 48, 0
2, 12240, Note_on_c, 2, 55, 80
2, 12479, Note_on_c, 2, 55, 0
2, 12480, Note_on_c, 2, 48, 80
2, 12719, Note_on_c, 2, 48, 0
2, 12720, Note_on_c, 2, 55, 80
2, 12959, Note_on_c, 2, 55, 0
2, 12960, Note_on_c, 2, 48, 80
2, 13199, Note_on_c, 2, 48, 0
2, 13200, Note_on_c, 2, 55, 80
2, 13439, Note_on_c, 2, 55, 0
2, 13440, Note_on_c, 2, 52, 80
2, 13679, Note_on_c, 2, 52, 0
2, 13680, Note_on_c, 2, 62, 80
2, 13919, Note_on_c, 2, 62, 0
2, 13920, Note_on_c, 2, 52, 80
2, 14159, Note_on_c, 2, 52, 0
2, 14160, Note_on_c, 2, 62, 80
2, 14399, Note_on_c, 2, 62, 0
2, 14400, Note_on_c, 2, 52, 80
2, 14639, Note_on_c, 2, 52, 0
2, 14640, Note_on_c, 2, 62, 80
2, 14879, Note_on_c, 2, 62, 0
2, 14880, Note_on_c, 2, 52, 80
2, 15119, Note_on_c, 2, 52, 0
2, 15120, Note_on_c, 2, 62, 80
2, 15359, Note_on_c, 2, 62, 0
2, 15360, Note_on_c, 2, 52, 80
2, 15599, Note_on_c, 2, 52, 0
2, 15600, Note_on_c, 2, 60, 80
2, 15839, Note_on_c, 2, 60, 0
2, 15840, Note_on_c, 2, 52, 80
2, 16079, Note_on_c, 2, 52, 0
2, 16080, Note_on_c, 2, 60, 80
2, 16319, Note_on_c, 2, 60, 0
2, 16320, Note_on_c, 2, 52, 80
2, 16559, Note_on_c, 2, 52, 0
2, 16560, Note_on_c, 2, 60, 80
2, 16799, Note_on_c, 2, 60, 0
2, 16800, Note_on_c, 2, 52, 80
2, 17039, Note_on_c, 2, 52, 0
2, 17040, Note_on_c, 2, 60, 80
2, 17279, Note_on_c, 2, 60, 0
2, 17280, Note_on_c, 2, 50, 80
2, 17519, Note_on_c, 2, 50, 0
2, 17520, Note_on_c, 2, 57, 80
2, 17759, Note_on_c, 2, 57, 0
2, 17760, Note_on_c, 2, 50, 80
2, 17999, Note_on_c, 2, 50, 0
2, 18000, Note_on_c, 2, 57, 80
2, 18239, Note_on_c, 2, 57, 0
2, 18240, Note_on_c, 2, 50, 80
2, 18479, Note_on_c, 2, 50, 0
2, 18480, Note_on_c, 2, 57, 80
2, 18719, Note_on_c, 2, 57, 0
2, 18720, Note_on_c, 2, 50, 80
2, 18959, Note_on_c, 2, 50, 0
2, 18960, Note_on_c, 2, 57, 80
2, 19199, Note_on_c, 2, 57, 0
2, 19200, Note_on_c, 2, 48, 80
2, 19439, Note_on_c, 2, 48, 0
2, 19440, Note_on_c, 2, 55, 80
2, 19679, Note_on_c, 2, 55, 0
2, 19680, Note_on_c, 2, 48, 80
2, 19919, Note_on_c, 2, 48, 0
2, 19920, Note_on_c, 2, 55, 80
2, 20159, Note_on_c, 2, 55, 0
2, 20160, Note_on_c, 2, 48, 80
2, 20399, Note_on_c, 2, 48, 0
2, 20400, Note_on_c, 2, 55, 80
2, 20639, Note_on_c, 2, 55, 0
2, 20640, Note_on_c, 2, 48, 80
2, 20879, Note_on_c, 2, 48, 0
2, 20880, Note_on_c, 2, 55, 80
2, 21119, Note_on_c, 2, 55, 0
2, 21120, Note_on_c, 2, 52, 80
2, 21359, Note_on_c, 2, 52, 0
2, 21360, Note_on_c, 2, 62, 80
2, 21599, Note_on_c, 2, 62, 0
2, 21600, Note_on_c, 2, 52, 80
2, 21839, Note_on_c, 2, 52, 0
2, 21840, Note_on_c, 2, 62, 80
2, 22079, Note_on_c, 2, 62, 0
2, 22080, Note_on_c, 2, 52, 80
2, 22319, Note_on_c, 2, 52, 0
2, 22320, Note_on_c, 2, 62, 80
2, 22559, Note_on_c, 2, 62, 0
2, 22560, Note_on_c, 2, 52, 80
2, 22799, Note_on_c, 2, 52, 0
2, 22800, Note_on_c, 2, 62, 80
2, 23039, Note_on_c, 2, 62, 0
2, 23040, Note_on_c, 2, 52, 80
2, 23279, Note_on_c, 2, 52, 0
2, 23280, Note_on_c, 2, 60, 80
2, 23519, Note_on_c, 2, 60, 0
2, 23520, Note_on_c, 2, 52, 80
2, 23759, Note_on_c, 2, 52, 0
2, 23760, Note_on_c, 2, 60, 80
2, 23999, Note_on_c, 2, 60, 0
2, 24000, Note_on_c, 2, 52, 80
2, 24000, Note_on_c, 2, 57, 80
2, 24000, Note_on_c, 2, 60, 80
2, 24719, Note_on_c, 2, 52, 0
2, 24719, Note_on_c, 2, 57, 0
2, 24719, Note_on_c, 2, 60, 0
2, 24720, Note_on_c, 2, 52, 80
2, 24959, Note_on_c, 2, 52, 0
2, 24960, Note_on_c, 2, 52, 80
2, 25079, Note_on_c, 2, 52, 0
2, 25200, Note_on_c, 2, 52, 80
2, 25200, Note_on_c, 2, 59, 80
2, 25200, Note_on_c, 2, 62, 80
2, 25319, Note_on_c, 2, 52, 0
2, 25319, Note_on_c, 2, 59, 0
2, 25319, Note_on_c, 2, 62, 0
2, 25440, Note_on_c, 2, 59, 80
2, 25559, Note_on_c, 2, 59, 0
2, 25680, Note_on_c, 2, 52, 80
2, 25680, Note_on_c, 2, 59, 80
2, 25680, Note_on_c, 2, 62, 80
2, 25799, Note_on_c, 2, 52, 0
2, 25799, Note_on_c, 2, 59, 0
2, 25799, Note_on_c, 2, 62, 0
2, 25920, Note_on_c, 2, 52, 80
2, 26039, Note_on_c, 2, 52, 0
2, 26160, Note_on_c, 2, 52, 80
2, 26160, Note_on_c, 2, 59, 80
2, 26160, Note_on_c, 2, 62, 80
2, 26279, Note_on_c, 2, 52, 0
2, 26279, Note_on_c, 2, 59, 0
2, 26279, Note_on_c, 2, 62, 0
2, 26400, Note_on_c, 2, 59, 80
2, 26519, Note_on_c, 2, 59, 0
2, 26640, Note_on_c, 2, 52, 80
2, 26640, Note_on_c, 2, 59, 80
2, 26640, Note_on_c, 2, 62, 80
2, 26759, Note_on_c, 2, 52, 0
2, 26759, Note_on_c, 2, 59, 0
2, 26759, Note_on_c, 2, 62, 0
2, 26880, Note_on_c, 2, 57, 80
2, 26999, Note_on_c, 2, 57, 0
2, 27120, Note_on_c, 2, 57, 80
2, 27120, Note_on_c, 2, 60, 80
2, 27120, Note_on_c, 2, 64, 80
2, 27239, Note_on_c, 2, 57, 0
2, 27239, Note_on_c, 2, 60, 0
2, 27239, Note_on_c, 2, 64, 0
2, 27360, Note_on_c, 2, 52, 80
2, 27479, Note_on_c, 2, 52, 0
2, 27600, Note_on_c, 2, 57, 80
2, 27600, Note_on_c, 2, 60, 80
2, 27600, Note_on_c, 2, 64, 80
2, 27719, Note_on_c, 2, 57, 0
2, 27719, Note_on_c, 2, 60, 0
2, 27719, Note_on_c, 2, 64, 0
2, 27840, Note_on_c, 2, 57, 80
2, 27959, Note_on_c, 2, 57, 0
2, 28080, Note_on_c, 2, 57, 80
2, 28080, Note_on_c, 2, 60, 80
2, 28080, Note_on_c, 2, 64, 80
2, 28199, Note_on_c, 2, 57, 0
2, 28199, Note_on_c, 2, 60, 0
2, 28199, Note_on_c, 2, 64, 0
2, 28320, Note_on_c, 2, 52, 80
2, 28439, Note_on_c, 2, 52, 0
2, 28560, Note_on_c, 2, 57, 80
2, 28560, Note_on_c, 2, 60, 80
2, 28560, Note_on_c, 2, 64, 80
2, 28679, Note_on_c, 2, 57, 0
2, 28679, Note_on_c, 2, 60, 0
2, 28679, Note_on_c, 2, 64, 0
2, 28800, Note_on_c, 2, 52, 80
2, 28919, Note_on_c, 2, 52, 0
2, 29040, Note_on_c, 2, 52, 80
2, 29040, Note_on_c, 2, 59, 80
2, 29040, Note_on_c, 2, 62, 80
2, 29159, Note_on_c, 2, 52, 0
2, 29159, Note_on_c, 2, 59, 0
2, 29159, Note_on_c, 2, 62, 0
2, 29280, Note_on_c, 2, 59, 80
2, 29399, Note_on_c, 2, 59, 0
2, 29520, Note_on_c, 2, 52, 80
2, 29520, Note_on_c, 2, 59, 80
2, 29520, Note_on_c, 2, 62, 80
2, 29639, Note_on_c, 2, 52, 0
2, 29639, Note_on_c, 2, 59, 0
2, 29639, Note_on_c, 2, 62, 0
2, 29760, Note_on_c, 2, 52, 80
2, 29879, Note_on_c, 2, 52, 0
2, 30000, Note_on_c, 2, 52, 80
2, 30000, Note_on_c, 2, 59, 80
2, 30000, Note_on_c, 2, 62, 80
2, 30119, Note_on_c, 2, 52, 0
2, 30119, Note_on_c, 2, 59, 0
2, 30119, Note_on_c, 2, 62, 0
2, 30240, Note_on_c, 2, 59, 80
2, 30359, Note_on_c, 2, 59, 0
2, 30480, Note_on_c, 2, 52, 80
2, 30480, Note_on_c, 2, 59, 80
2, 30480, Note_on_c, 2, 62, 80
2, 30599, Note_on_c, 2, 52, 0
2, 30599, Note_on_c, 2, 59, 0
2, 30599, Note_on_c, 2, 62, 0
2, 30720, Note_on_c, 2, 57, 80
2, 30839, Note_on_c, 2, 57, 0
2, 30960, Note_on_c, 2, 57, 80
2, 30960, Note_on_c, 2, 60, 80
2, 30960, Note_on_c, 2, 64, 80
2, 31079, Note_on_c, 2, 57, 0
2, 31079, Note_on_c, 2, 60, 0
2, 31079, Note_on_c, 2, 64, 0
2, 31200, Note_on_c, 2, 52, 80
2, 31319, Note_on_c, 2, 52, 0
2, 31440, Note_on_c, 2, 57, 80
2, 31440, Note_on_c, 2, 60, 80
2, 31440, Note_on_c, 2, 64, 80
2, 31559, Note_on_c, 2, 57, 0
2, 31559, Note_on_c, 2, 60, 0
2, 31559, Note_on_c, 2, 64, 0
2, 31680, Note_on_c, 2, 57, 80
2, 31799, Note_on_c, 2, 57, 0
2, 31920, Note_on_c, 2, 57, 80
2, 31920, Note_on_c, 2, 60, 80
2, 31920, Note_on_c, 2, 64, 80
2, 32039, Note_on_c, 2, 57, 0
2, 32039, Note_on_c, 2, 60, 0
2, 32039, Note_on_c, 2, 64, 0
2, 32160, Note_on_c, 2, 52, 80
2, 32279, Note_on_c, 2, 52, 0
2, 32400, Note_on_c, 2, 57, 80
2, 32639, Note_on_c, 2, 57, 0
2, 32640, Note_on_c, 2, 50, 80
2, 32759, Note_on_c, 2, 50, 0
2, 32880, Note_on_c, 2, 53, 80
2, 32880, Note_on_c, 2, 57, 80
2, 32880, Note_on_c, 2, 62, 80
2, 32999, Note_on_c, 2, 53, 0
2, 32999, Note_on_c, 2, 57, 0
2, 32999, Note_on_c, 2, 62, 0
2, 33120, Note_on_c, 2, 57, 80
2, 33239, Note_on_c, 2, 57, 0
2, 33360, Note_on_c, 2, 53, 80
2, 33360, Note_on_c, 2, 57, 80
2, 33360, Note_on_c, 2, 62, 80
2, 33479, Note_on_c, 2, 53, 0
2, 33479, Note_on_c, 2, 57, 0
2, 33479, Note_on_c, 2, 62, 0
2, 33600, Note_on_c, 2, 50, 80
2, 33719, Note_on_c, 2, 50, 0
2, 33840, Note_on_c, 2, 53, 80
2, 33840, Note_on_c, 2, 57, 80
2, 33840, Note_on_c, 2, 62, 80
2, 33959, Note_on_c, 2, 53, 0
2, 33959, Note_on_c, 2, 57, 0
2, 33959, Note_on_c, 2, 62, 0
2, 34080, Note_on_c, 2, 57, 80
2, 34199, Note_on_c, 2, 57, 0
2, 34320, Note_on_c, 2, 53, 80
2, 34320, Note_on_c, 2, 57, 80
2, 34320, Note_on_c, 2, 62, 80
2, 34439, Note_on_c, 2, 53, 0
2, 34439, Note_on_c, 2, 57, 0
2, 34439, Note_on_c, 2, 62, 0
2, 34560, Note_on_c, 2, 57, 80
2, 34679, Note_on_c, 2, 57, 0
2, 34800, Note_on_c, 2, 57, 80
2, 34800, Note_on_c, 2, 60, 80
2, 34800, Note_on_c, 2, 64, 80
2, 34919, Note_on_c, 2, 57, 0
2, 34919, Note_on_c, 2, 60, 0
2, 34919, Note_on_c, 2, 64, 0
2, 35040, Note_on_c, 2, 52, 80
2, 35159, Note_on_c, 2, 52, 0
2, 35280, Note_on_c, 2, 57, 80
2, 35280, Note_on_c, 2, 60, 80
2, 35280, Note_on_c, 2, 64, 80
2, 35399, Note_on_c, 2, 57, 0
2, 35399, Note_on_c, 2, 60, 0
2, 35399, Note_on_c, 2, 64, 0
2, 35520, Note_on_c, 2, 57, 80
2, 35639, Note_on_c, 2, 57, 0
2, 35760, Note_on_c, 2, 57, 80
2, 35760, Note_on_c, 2, 60, 80
2, 35760, Note_on_c, 2, 64, 80
2, 35879, Note_on_c, 2, 57, 0
2, 35879, Note_on_c, 2, 60, 0
2, 35879, Note_on_c, 2, 64, 0
2, 36000, Note_on_c, 2, 52, 80
2, 36119, Note_on_c, 2, 52, 0
2, 36240, Note_on_c, 2, 57, 80
2, 36240, Note_on_c, 2, 60, 80
2, 36240, Note_on_c, 2, 64, 80
2, 36359, Note_on_c, 2, 57, 0
2, 36359, Note_on_c, 2, 60, 0
2, 36359, Note_on_c, 2, 64, 0
2, 36480, Note_on_c, 2, 52, 80
2, 36599, Note_on_c, 2, 52, 0
2, 36720, Note_on_c, 2, 52, 80
2, 36720, Note_on_c, 2, 59, 80
2, 36720, Note_on_c, 2, 62, 80
2, 36839, Note_on_c, 2, 52, 0
2, 36839, Note_on_c, 2, 59, 0
2, 36839, Note_on_c, 2, 62, 0
2, 36960, Note_on_c, 2, 59, 80
2, 37079, Note_on_c, 2, 59, 0
2, 37200, Note_on_c, 2, 52, 80
2, 37200, Note_on_c, 2, 59, 80
2, 37200, Note_on_c, 2, 62, 80
2, 37319, Note_on_c, 2, 52, 0
2, 37319, Note_on_c, 2, 59, 0
2, 37319, Note_on_c, 2, 62, 0
2, 37440, Note_on_c, 2, 52, 80
2, 37559, Note_on_c, 2, 52, 0
2, 37680, Note_on_c, 2, 52, 80
2, 37680, Note_on_c, 2, 59, 80
2, 37680, Note_on_c, 2, 62, 80
2, 37799, Note_on_c, 2, 52, 0
2, 37799, Note_on_c, 2, 59, 0
2, 37799, Note_on_c, 2, 62, 0
2, 37920, Note_on_c, 2, 59, 80
2, 38039, Note_on_c, 2, 59, 0
2, 38160, Note_on_c, 2, 52, 80
2, 38160, Note_on_c, 2, 59, 80
2, 38160, Note_on_c, 2, 62, 80
2, 38279, Note_on_c, 2, 52, 0
2, 38279, Note_on_c, 2, 59, 0
2, 38279, Note_on_c, 2, 62, 0
2, 38400, Note_on_c, 2, 57, 80
2, 38519, Note_on_c, 2, 57, 0
2, 38640, Note_on_c, 2, 57, 80
2, 38640, Note_on_c, 2, 60, 80
2, 38640, Note_on_c, 2, 64, 80
2, 38759, Note_on_c, 2, 57, 0
2, 38759, Note_on_c, 2, 60, 0
2, 38759, Note_on_c, 2, 64, 0
2, 38880, Note_on_c, 2, 52, 80
2, 38999, Note_on_c, 2, 52, 0
2, 39120, Note_on_c, 2, 57, 80
2, 39120, Note_on_c, 2, 60, 80
2, 39120, Note_on_c, 2, 64, 80
2, 39239, Note_on_c, 2, 57, 0
2, 39239, Note_on_c, 2, 60, 0
2, 39239, Note_on_c, 2, 64, 0
2, 39360, Note_on_c, 2, 57, 80
2, 39479, Note_on_c, 2, 57, 0
2, 39600, Note_on_c, 2, 57, 80
2, 39600, Note_on_c, 2, 60, 80
2, 39600, Note_on_c, 2, 64, 80
2, 39719, Note_on_c, 2, 57, 0
2, 39719, Note_on_c, 2, 60, 0
2, 39719, Note_on_c, 2, 64, 0
2, 39840, Note_on_c, 2, 52, 80
2, 40079, Note_on_c, 2, 52, 0
2, 40320, Note_on_c, 2, 52, 80
2, 40439, Note_on_c, 2, 52, 0
2, 40560, Note_on_c, 2, 52, 80
2, 40560, Note_on_c, 2, 59, 80
2, 40560, Note_on_c, 2, 62, 80
2, 40679, Note_on_c, 2, 52, 0
2, 40679, Note_on_c, 2, 59, 0
2, 40679, Note_on_c, 2, 62, 0
2, 40800, Note_on_c, 2, 59, 80
2, 40919, Note_on_c, 2, 59, 0
2, 41040, Note_on_c, 2, 52, 80
2, 41040, Note_on_c, 2, 59, 80
2, 41040, Note_on_c, 2, 62, 80
2, 41159, Note_on_c, 2, 52, 0
2, 41159, Note_on_c, 2, 59, 0
2, 41159, Note_on_c, 2, 62, 0
2, 41280, Note_on_c, 2, 52, 80
2, 41399, Note_on_c, 2, 52, 0
2, 41520, Note_on_c, 2, 52, 80
2, 41520, Note_on_c, 2, 59, 80
2, 41520, Note_on_c, 2, 62, 80
2, 41639, Note_on_c, 2, 52, 0
2, 41639, Note_on_c, 2, 59, 0
2, 41639, Note_on_c, 2, 62, 0
2, 41760, Note_on_c, 2, 59, 80
2, 41879, Note_on_c, 2, 59, 0
2, 42000, Note_on_c, 2, 52, 80
2, 42000, Note_on_c, 2, 59, 80
2, 42000, Note_on_c, 2, 62, 80
2, 42119, Note_on_c, 2, 52, 0
2, 42119, Note_on_c, 2, 59, 0
2, 42119, Note_on_c, 2, 62, 0
2, 42240, Note_on_c, 2, 57, 80
2, 42359, Note_on_c, 2, 57, 0
2, 42480, Note_on_c, 2, 57, 80
2, 42480, Note_on_c, 2, 60, 80
2, 42480, Note_on_c, 2, 64, 80
2, 42599, Note_on_c, 2, 57, 0
2, 42599, Note_on_c, 2, 60, 0
2, 42599, Note_on_c, 2, 64, 0
2, 42720, Note_on_c, 2, 52, 80
2, 42839, Note_on_c, 2, 52, 0
2, 42960, Note_on_c, 2, 57, 80
2, 42960, Note_on_c, 2, 60, 80
2, 42960, Note_on_c, 2, 64, 80
2, 43079, Note_on_c, 2, 57, 0
2, 43079, Note_on_c, 2, 60, 0
2, 43079, Note_on_c, 2, 64, 0
2, 43200, Note_on_c, 2, 57, 80
2, 43319, Note_on_c, 2, 57, 0
2, 43440, Note_on_c, 2, 57, 80
2, 43440, Note_on_c, 2, 60, 80
2, 43440, Note_on_c, 2, 64, 80
2, 43559, Note_on_c, 2, 57, 0
2, 43559, Note_on_c, 2, 60, 0
2, 43559, Note_on_c, 2, 64, 0
2, 43680, Note_on_c, 2, 52, 80
2, 43799, Note_on_c, 2, 52, 0
2, 43920, Note_on_c, 2, 57, 80
2, 43920, Note_on_c, 2, 60, 80
2, 43920, Note_on_c, 2, 64, 80
2, 44039, Note_on_c, 2, 57, 0
2, 44039, Note_on_c, 2, 60, 0
2, 44039, Note_on_c, 2, 64, 0
2, 44160, Note_on_c, 2, 52, 80
2, 44279, Note_on_c, 2, 52, 0
2, 44400, Note_on_c, 2, 52, 80
2, 44400, Note_on_c, 2, 59, 80
2, 44400, Note_on_c, 2, 62, 80
2, 44519, Note_on_c, 2, 52, 0
2, 44519, Note_on_c, 2, 59, 0
2, 44519, Note_on_c, 2, 62, 0
2, 44640, Note_on_c, 2, 59, 80
2, 44759, Note_on_c, 2, 59, 0
2, 44880, Note_on_c, 2, 52, 80
2, 44880, Note_on_c, 2, 59, 80
2, 44880, Note_on_c, 2, 62, 80
2, 44999, Note_on_c, 2, 52, 0
2, 44999, Note_on_c, 2, 59, 0
2, 44999, Note_on_c, 2, 62, 0
2, 45120, Note_on_c, 2, 52, 80
2, 45239, Note_on_c, 2, 52, 0
2, 45360, Note_on_c, 2, 52, 80
2, 45360, Note_on_c, 2, 59, 80
2, 45360, Note_on_c, 2, 62, 80
2, 45479, Note_on_c, 2, 52, 0
2, 45479, Note_on_c, 2, 59, 0
2, 45479, Note_on_c, 2, 62, 0
2, 45600, Note_on_c, 2, 59, 80
2, 45719, Note_on_c, 2, 59, 0
2, 45840, Note_on_c, 2, 52, 80
2, 45840, Note_on_c, 2, 59, 80
2, 45840, Note_on_c, 2, 62, 80
2, 45959, Note_on_c, 2, 52, 0
2, 45959, Note_on_c, 2, 59, 0
2, 45959, Note_on_c, 2, 62, 0
2, 46080, Note_on_c, 2, 57, 80
2, 46199, Note_on_c, 2, 57, 0
2, 46320, Note_on_c, 2, 57, 80
2, 46320, Note_on_c, 2, 60, 80
2, 46320, Note_on_c, 2, 64, 80
2, 46439, Note_on_c, 2, 57, 0
2, 46439, Note_on_c, 2, 60, 0
2, 46439, Note_on_c, 2, 64, 0
2, 46560, Note_on_c, 2, 52, 80
2, 46679, Note_on_c, 2, 52, 0
2, 46800, Note_on_c, 2, 57, 80
2, 46800, Note_on_c, 2, 60, 80
2, 46800, Note_on_c, 2, 64, 80
2, 46919, Note_on_c, 2, 57, 0
2, 46919, Note_on_c, 2, 60, 0
2, 46919, Note_on_c, 2, 64, 0
2, 47040, Note_on_c, 2, 57, 80
2, 47159, Note_on_c, 2, 57, 0
2, 47280, Note_on_c, 2, 57, 80
2, 47280, Note_on_c, 2, 60, 80
2, 47280, Note_on_c, 2, 64, 80
2, 47399, Note_on_c, 2, 57, 0
2, 47399, Note_on_c, 2, 60, 0
2, 47399, Note_on_c, 2, 64, 0
2, 47520, Note_on_c, 2, 52, 80
2, 47759, Note_on_c, 2, 52, 0
2, 48000, Note_on_c, 2, 50, 80
2, 48119, Note_on_c, 2, 50, 0
2, 48240, Note_on_c, 2, 53, 80
2, 48240, Note_on_c, 2, 57, 80
2, 48240, Note_on_c, 2, 62, 80
2, 48359, Note_on_c, 2, 53, 0
2, 48359, Note_on_c, 2, 57, 0
2, 48359, Note_on_c, 2, 62, 0
2, 48480, Note_on_c, 2, 57, 80
2, 48599, Note_on_c, 2, 57, 0
2, 48720, Note_on_c, 2, 53, 80
2, 48720, Note_on_c, 2, 57, 80
2, 48720, Note_on_c, 2, 62, 80
2, 48839, Note_on_c, 2, 53, 0
2, 48839, Note_on_c, 2, 57, 0
2, 48839, Note_on_c, 2, 62, 0
2, 48960, Note_on_c, 2, 50, 80
2, 49079, Note_on_c, 2, 50, 0
2, 49200, Note_on_c, 2, 53, 80
2, 49200, Note_on_c, 2, 57, 80
2, 49200, Note_on_c, 2, 62, 80
2, 49319, Note_on_c, 2, 53, 0
2, 49319, Note_on_c, 2, 57, 0
2, 49319, Note_on_c, 2, 62, 0
2, 49440, Note_on_c, 2, 57, 80
2, 49559, Note_on_c, 2, 57, 0
2, 49680, Note_on_c, 2, 53, 80
2, 49680, Note_on_c, 2, 57, 80
2, 49680, Note_on_c, 2, 62, 80
2, 49799, Note_on_c, 2, 53, 0
2, 49799, Note_on_c, 2, 57, 0
2, 49799, Note_on_c, 2, 62, 0
2, 49920, Note_on_c, 2, 57, 80
2, 50039, Note_on_c, 2, 57, 0
2, 50160, Note_on_c, 2, 57, 80
2, 50160, Note_on_c, 2, 60, 80
2, 50160, Note_on_c, 2, 64, 80
2, 50279, Note_on_c, 2, 57, 0
2, 50279, Note_on_c, 2, 60, 0
2, 50279, Note_on_c, 2, 64, 0
2, 50400, Note_on_c, 2, 52, 80
2, 50519, Note_on_c, 2, 52, 0
2, 50640, Note_on_c, 2, 57, 80
2, 50640, Note_on_c, 2, 60, 80
2, 50640, Note_on_c, 2, 64, 80
2, 50759, Note_on_c, 2, 57, 0
2, 50759, Note_on_c, 2, 60, 0
2, 50759, Note_on_c, 2, 64, 0
2, 50880, Note_on_c, 2, 57, 80
2, 50999, Note_on_c, 2, 57, 0
2, 51120, Note_on_c, 2, 57, 80
2, 51120, Note_on_c, 2, 60, 80
2, 51120, Note_on_c, 2, 64, 80
2, 51239, Note_on_c, 2, 57, 0
2, 51239, Note_on_c, 2, 60, 0
2, 51239, Note_on_c, 2, 64, 0
2, 51360, Note_on_c, 2, 52, 80
2, 51479, Note_on_c, 2, 52, 0
2, 51600, Note_on_c, 2, 57, 80
2, 51600, Note_on_c, 2, 60, 80
2, 51600, Note_on_c, 2, 64, 80
2, 51719, Note_on_c, 2, 57, 0
2, 51719, Note_on_c, 2, 60, 0
2, 51719, Note_on_c, 2, 64, 0
2, 51840, Note_on_c, 2, 52, 80
2, 51959, Note_on_c, 2, 52, 0
2, 52080, Note_on_c, 2, 52, 80
2, 52080, Note_on_c, 2, 59, 80
2, 52080, Note_on_c, 2, 62, 80
2, 52199, Note_on_c, 2, 52, 0
2, 52199, Note_on_c, 2, 59, 0
2, 52199, Note_on_c, 2, 62, 0
2, 52320, Note_on_c, 2, 59, 80
2, 52439, Note_on_c, 2, 59, 0
2, 52560, Note_on_c, 2, 52, 80
2, 52560, Note_on_c, 2, 59, 80
2, 52560, Note_on_c, 2, 62, 80
2, 52679, Note_on_c, 2, 52, 0
2, 52679, Note_on_c, 2, 59, 0
2, 52679, Note_on_c, 2, 62, 0
2, 52800, Note_on_c, 2, 52, 80
2, 52919, Note_on_c, 2, 52, 0
2, 53040, Note_on_c, 2, 52, 80
2, 53040, Note_on_c, 2, 59, 80
2, 53040, Note_on_c, 2, 62, 80
2, 53159, Note_on_c, 2, 52, 0
2, 53159, Note_on_c, 2, 59, 0
2, 53159, Note_on_c, 2, 62, 0
2, 53280, Note_on_c, 2, 59, 80
2, 53399, Note_on_c, 2, 59, 0
2, 53520, Note_on_c, 2, 52, 80
2, 53520, Note_on_c, 2, 59, 80
2, 53520, Note_on_c, 2, 62, 80
2, 53639, Note_on_c, 2, 52, 0
2, 53639, Note_on_c, 2, 59, 0
2, 53639, Note_on_c, 2, 62, 0
2, 53760, Note_on_c, 2, 57, 80
2, 53879, Note_on_c, 2, 57, 0
2, 54000, Note_on_c, 2, 57, 80
2, 54000, Note_on_c, 2, 60, 80
2, 54000, Note_on_c, 2, 64, 80
2, 54119, Note_on_c, 2, 57, 0
2, 54119, Note_on_c, 2, 60, 0
2, 54119, Note_on_c, 2, 64, 0
2, 54240, Note_on_c, 2, 52, 80
2, 54359, Note_on_c, 2, 52, 0
2, 54480, Note_on_c, 2, 57, 80
2, 54480, Note_on_c, 2, 60, 80
2, 54480, Note_on_c, 2, 64, 80
2, 54599, Note_on_c, 2, 57, 0
2, 54599, Note_on_c, 2, 60, 0
2, 54599, Note_on_c, 2, 64, 0
2, 54720, Note_on_c, 2, 57, 80
2, 55199, Note_on_c, 2, 57, 0
2, 55680, Note_on_c, 2, 52, 80
2, 55919, Note_on_c, 2, 52, 0
2, 55920, Note_on_c, 2, 60, 80
2, 56159, Note_on_c, 2, 60, 0
2, 56160, Note_on_c, 2, 57, 80
2, 56399, Note_on_c, 2, 57, 0
2, 56400, Note_on_c, 2, 60, 80
2, 56639, Note_on_c, 2, 60, 0
2, 56640, Note_on_c, 2, 52, 80
2, 56879, Note_on_c, 2, 52, 0
2, 56880, Note_on_c, 2, 60, 80
2, 57119, Note_on_c, 2, 60, 0
2, 57120, Note_on_c, 2, 57, 80
2, 57359, Note_on_c, 2, 57, 0
2, 57360, Note_on_c, 2, 60, 80
2, 57599, Note_on_c, 2, 60, 0
2, 57600, Note_on_c, 2, 50, 80
2, 57839, Note_on_c, 2, 50, 0
2, 57840, Note_on_c, 2, 59, 80
2, 58079, Note_on_c, 2, 59, 0
2, 58080, Note_on_c, 2, 52, 80
2, 58319, Note_on_c, 2, 52, 0
2, 58320, Note_on_c, 2, 59, 80
2, 58559, Note_on_c, 2, 59, 0
2, 58560, Note_on_c, 2, 50, 80
2, 58799, Note_on_c, 2, 50, 0
2, 58800, Note_on_c, 2, 59, 80
2, 59039, Note_on_c, 2, 59, 0
2, 59040, Note_on_c, 2, 52, 80
2, 59279, Note_on_c, 2, 52, 0
2, 59280, Note_on_c, 2, 59, 80
2, 59519, Note_on_c, 2, 59, 0
2, 59520, Note_on_c, 2, 48, 80
2, 59759, Note_on_c, 2, 48, 0
2, 59760, Note_on_c, 2, 57, 80
2, 59999, Note_on_c, 2, 57, 0
2, 60000, Note_on_c, 2, 52, 80
2, 60239, Note_on_c, 2, 52, 0
2, 60240, Note_on_c, 2, 57, 80
2, 60479, Note_on_c, 2, 57, 0
2, 60480, Note_on_c, 2, 48, 80
2, 60719, Note_on_c, 2, 48, 0
2, 60720, Note_on_c, 2, 57, 80
2, 60959, Note_on_c, 2, 57, 0
2, 60960, Note_on_c, 2, 52, 80
2, 61199, Note_on_c, 2, 52, 0
2, 61200, Note_on_c, 2, 57, 80
2, 61439, Note_on_c, 2, 57, 0
2, 61440, Note_on_c, 2, 52, 80
2, 61679, Note_on_c, 2, 52, 0
2, 61680, Note_on_c, 2, 59, 80
2, 61919, Note_on_c, 2, 59, 0
2, 61920, Note_on_c, 2, 52, 80
2, 62159, Note_on_c, 2, 52, 0
2, 62160, Note_on_c, 2, 59, 80
2, 62399, Note_on_c, 2, 59, 0
2, 62400, Note_on_c, 2, 52, 80
2, 62639, Note_on_c, 2, 52, 0
2, 62640, Note_on_c, 2, 59, 80
2, 62879, Note_on_c, 2, 59, 0
2, 62880, Note_on_c, 2, 52, 80
2, 63119, Note_on_c, 2, 52, 0
2, 63120, Note_on_c, 2, 59, 80
2, 63359, Note_on_c, 2, 59, 0
2, 63360, Note_on_c, 2, 52, 80
2, 63599, Note_on_c, 2, 52, 0
2, 63600, Note_on_c, 2, 60, 80
2, 63839, Note_on_c, 2, 60, 0
2, 63840, Note_on_c, 2, 57, 80
2, 64079, Note_on_c, 2, 57, 0
2, 64080, Note_on_c, 2, 60, 80
2, 64319, Note_on_c, 2, 60, 0
2, 64320, Note_on_c, 2, 52, 80
2, 64559, Note_on_c, 2, 52, 0
2, 64560, Note_on_c, 2, 60, 80
2, 64799, Note_on_c, 2, 60, 0
2, 64800, Note_on_c, 2, 57, 80
2, 65039, Note_on_c, 2, 57, 0
2, 65040, Note_on_c, 2, 60, 80
2, 65279, Note_on_c, 2, 60, 0
2, 65280, Note_on_c, 2, 50, 80
2, 65519, Note_on_c, 2, 50, 0
2, 65520, Note_on_c, 2, 59, 80
2, 65759, Note_on_c, 2, 59, 0
2, 65760, Note_on_c, 2, 52, 80
2, 65999, Note_on_c, 2, 52, 0
2, 66000, Note_on_c, 2, 59, 80
2, 66239, Note_on_c, 2, 59, 0
2, 66240, Note_on_c, 2, 50, 80
2, 66479, Note_on_c, 2, 50, 0
2, 66480, Note_on_c, 2, 59, 80
2, 66719, Note_on_c, 2, 59, 0
2, 66720, Note_on_c, 2, 52, 80
2, 66959, Note_on_c, 2, 52, 0
2, 66960, Note_on_c, 2, 59, 80
2, 67199, Note_on_c, 2, 59, 0
2, 67200, Note_on_c, 2, 48, 80
2, 67439, Note_on_c, 2, 48, 0
2, 67440, Note_on_c, 2, 57, 80
2, 67679, Note_on_c, 2, 57, 0
2, 67680, Note_on_c, 2, 52, 80
2, 67919, Note_on_c, 2, 52, 0
2, 67920, Note_on_c, 2, 57, 80
2, 68159, Note_on_c, 2, 57, 0
2, 68160, Note_on_c, 2, 48, 80
2, 68399, Note_on_c, 2, 48, 0
2, 68400, Note_on_c, 2, 57, 80
2, 68639, Note_on_c, 2, 57, 0
2, 68640, Note_on_c, 2, 52, 80
2, 68879, Note_on_c, 2, 52, 0
2, 68880, Note_on_c, 2, 57, 80
2, 69119, Note_on_c, 2, 57, 0
2, 69120, Note_on_c, 2, 52, 80
2, 69359, Note_on_c, 2, 52, 0
2, 69360, Note_on_c, 2, 64, 80
2, 69599, Note_on_c, 2, 64, 0
2, 69600, Note_on_c, 2, 60, 80
2, 69839, Note_on_c, 2, 60, 0
2, 69840, Note_on_c, 2, 57, 80
2, 70079, Note_on_c, 2, 57, 0
2, 70080, Note_on_c, 2, 52, 80
2, 71039, Note_on_c, 2, 52, 0
2, 71040, Note_on_c, 2, 52, 80
2, 71159, Note_on_c, 2, 52, 0
2, 71280, Note_on_c, 2, 59, 80
2, 71280, Note_on_c, 2, 62, 80
2, 71339, Note_on_c, 2, 59, 0
2, 71339, Note_on_c, 2, 62, 0
2, 71400, Note_on_c, 2, 59, 80
2, 71400, Note_on_c, 2, 62, 80
2, 71519, Note_on_c, 2, 59, 0
2, 71519, Note_on_c, 2, 62, 0
2, 71520, Note_on_c, 2, 52, 80
2, 71639, Note_on_c, 2, 52, 0
2, 71760, Note_on_c, 2, 59, 80
2, 71760, Note_on_c, 2, 62, 80
2, 71879, Note_on_c, 2, 59, 0
2, 71879, Note_on_c, 2, 62, 0
2, 72000, Note_on_c, 2, 52, 80
2, 72119, Note_on_c, 2, 52, 0
2, 72240, Note_on_c, 2, 59, 80
2, 72240, Note_on_c, 2, 62, 80
2, 72299, Note_on_c, 2, 59, 0
2, 72299, Note_on_c, 2, 62, 0
2, 72360, Note_on_c, 2, 59, 80
2, 72360, Note_on_c, 2, 62, 80
2, 72479, Note_on_c, 2, 59, 0
2, 72479, Note_on_c, 2, 62, 0
2, 72480, Note_on_c, 2, 52, 80
2, 72599, Note_on_c, 2, 52, 0
2, 72720, Note_on_c, 2, 59, 80
2, 72720, Note_on_c, 2, 62, 80
2, 72839, Note_on_c, 2, 59, 0
2, 72839, Note_on_c, 2, 62, 0
2, 72960, Note_on_c, 2, 57, 80
2, 73079, Note_on_c, 2, 57, 0
2, 73200, Note_on_c, 2, 60, 80
2, 73200, Note_on_c, 2, 64, 80
2, 73259, Note_on_c, 2, 60, 0
2, 73259, Note_on_c, 2, 64, 0
2, 73320, Note_on_c, 2, 60, 80
2, 73320, Note_on_c, 2, 64, 80
2, 73439, Note_on_c, 2, 60, 0
2, 73439, Note_on_c, 2, 64, 0
2, 73440, Note_on_c, 2, 52, 80
2, 73559, Note_on_c, 2, 52, 0
2, 73680, Note_on_c, 2, 60, 80
2, 73680, Note_on_c, 2, 64, 80
2, 73799, Note_on_c, 2, 60, 0
2, 73799, Note_on_c, 2, 64, 0
2, 73920, Note_on_c, 2, 57, 80
2, 74039, Note_on_c, 2, 57, 0
2, 74160, Note_on_c, 2, 60, 80
2, 74160, Note_on_c, 2, 64, 80
2, 74219, Note_on_c, 2, 60, 0
2, 74219, Note_on_c, 2, 64, 0
2, 74280, Note_on_c, 2, 60, 80
2, 74280, Note_on_c, 2, 64, 80
2, 74399, Note_on_c, 2, 60, 0
2, 74399, Note_on_c, 2, 64, 0
2, 74400, Note_on_c, 2, 52, 80
2, 74519, Note_on_c, 2, 52, 0
2, 74640, Note_on_c, 2, 60, 80
2, 74640, Note_on_c, 2, 64, 80
2, 74759, Note_on_c, 2, 60, 0
2, 74759, Note_on_c, 2, 64, 0
2, 74880, Note_on_c, 2, 52, 80
2, 74999, Note_on_c, 2, 52, 0
2, 75120, Note_on_c, 2, 59, 80
2, 75120, Note_on_c, 2, 62, 80
2, 75179, Note_on_c, 2, 59, 0
2, 75179, Note_on_c, 2, 62, 0
2, 75240, Note_on_c, 2, 59, 80
2, 75240, Note_on_c, 2, 62, 80
2, 75359, Note_on_c, 2, 59, 0
2, 75359, Note_on_c, 2, 62, 0
2, 75360, Note_on_c, 2, 52, 80
2, 75599, Note_on_c, 2, 52, 0
2, 75600, Note_on_c, 2, 59, 80
2, 75600, Note_on_c, 2, 62, 80
2, 75719, Note_on_c, 2, 59, 0
2, 75719, Note_on_c, 2, 62, 0
2, 75840, Note_on_c, 2, 52, 80
2, 75959, Note_on_c, 2, 52, 0
2, 76080, Note_on_c, 2, 59, 80
2, 76080, Note_on_c, 2, 62, 80
2, 76139, Note_on_c, 2, 59, 0
2, 76139, Note_on_c, 2, 62, 0
2, 76200, Note_on_c, 2, 59, 80
2, 76200, Note_on_c, 2, 62, 80
2, 76319, Note_on_c, 2, 59, 0
2, 76319, Note_on_c, 2, 62, 0
2, 76320, Note_on_c, 2, 52, 80
2, 76559, Note_on_c, 2, 52, 0
2, 76560, Note_on_c, 2, 59, 80
2, 76560, Note_on_c, 2, 62, 80
2, 76679, Note_on_c, 2, 59, 0
2, 76679, Note_on_c, 2, 62, 0
2, 76800, Note_on_c, 2, 57, 80
2, 76919, Note_on_c, 2, 57, 0
2, 77040, Note_on_c, 2, 60, 80
2, 77040, Note_on_c, 2, 64, 80
2, 77099, Note_on_c, 2, 60, 0
2, 77099, Note_on_c, 2, 64, 0
2, 77160, Note_on_c, 2, 60, 80
2, 77160, Note_on_c, 2, 64, 80
2, 77279, Note_on_c, 2, 60, 0
2, 77279, Note_on_c, 2, 64, 0
2, 77280, Note_on_c, 2, 52, 80
2, 77399, Note_on_c, 2, 52, 0
2, 77520, Note_on_c, 2, 60, 80
2, 77520, Note_on_c, 2, 64, 80
2, 77639, Note_on_c, 2, 60, 0
2, 77639, Note_on_c, 2, 64, 0
2, 77760, Note_on_c, 2, 57, 80
2, 77879, Note_on_c, 2, 57, 0
2, 78000, Note_on_c, 2, 57, 80
2, 78239, Note_on_c, 2, 57, 0
2, 78240, Note_on_c, 2, 59, 80
2, 78479, Note_on_c, 2, 59, 0
2, 78480, Note_on_c, 2, 60, 80
2, 78719, Note_on_c, 2, 60, 0
2, 78720, Note_on_c, 2, 50, 80
2, 78839, Note_on_c, 2, 50, 0
2, 78960, Note_on_c, 2, 57, 80
2, 78960, Note_on_c, 2, 62, 80
2, 79019, Note_on_c, 2, 57, 0
2, 79019, Note_on_c, 2, 62, 0
2, 79080, Note_on_c, 2, 57, 80
2, 79080, Note_on_c, 2, 62, 80
2, 79199, Note_on_c, 2, 57, 0
2, 79199, Note_on_c, 2, 62, 0
2, 79200, Note_on_c, 2, 50, 80
2, 79439, Note_on_c, 2, 50, 0
2, 79440, Note_on_c, 2, 57, 80
2, 79440, Note_on_c, 2, 62, 80
2, 79559, Note_on_c, 2, 57, 0
2, 79559, Note_on_c, 2, 62, 0
2, 79680, Note_on_c, 2, 50, 80
2, 79799, Note_on_c, 2, 50, 0
2, 79920, Note_on_c, 2, 57, 80
2, 79920, Note_on_c, 2, 62, 80
2, 79979, Note_on_c, 2, 57, 0
2, 79979, Note_on_c, 2, 62, 0
2, 80040, Note_on_c, 2, 57, 80
2, 80040, Note_on_c, 2, 62, 80
2, 80159, Note_on_c, 2, 57, 0
2, 80159, Note_on_c, 2, 62, 0
2, 80160, Note_on_c, 2, 50, 80
2, 80399, Note_on_c, 2, 50, 0
2, 80400, Note_on_c, 2, 57, 80
2, 80400, Note_on_c, 2, 62, 80
2, 80519, Note_on_c, 2, 57, 0
2, 80519, Note_on_c, 2, 62, 0
2, 80640, Note_on_c, 2, 57, 80
2, 80759, Note_on_c, 2, 57, 0
2, 80880, Note_on_c, 2, 60, 80
2, 80880, Note_on_c, 2, 64, 80
2, 80939, Note_on_c, 2, 60, 0
2, 80939, Note_on_c, 2, 64, 0
2, 81000, Note_on_c, 2, 60, 80
2, 81000, Note_on_c, 2, 64, 80
2, 81119, Note_on_c, 2, 60, 0
2, 81119, Note_on_c, 2, 64, 0
2, 81120, Note_on_c, 2, 52, 80
2, 81239, Note_on_c, 2, 52, 0
2, 81360, Note_on_c, 2, 60, 80
2, 81360, Note_on_c, 2, 64, 80
2, 81479, Note_on_c, 2, 60, 0
2, 81479, Note_on_c, 2, 64, 0
2, 81600, Note_on_c, 2, 57, 80
2, 81719, Note_on_c, 2, 57, 0
2, 81840, Note_on_c, 2, 60, 80
2, 81840, Note_on_c, 2, 64, 80
2, 81899, Note_on_c, 2, 60, 0
2, 81899, Note_on_c, 2, 64, 0
2, 81960, Note_on_c, 2, 60, 80
2, 81960, Note_on_c, 2, 64, 80
2, 82079, Note_on_c, 2, 60, 0
2, 82079, Note_on_c, 2, 64, 0
2, 82080, Note_on_c, 2, 52, 80
2, 82199, Note_on_c, 2, 52, 0
2, 82320, Note_on_c, 2, 60, 80
2, 82320, Note_on_c, 2, 64, 80
2, 82439, Note_on_c, 2, 60, 0
2, 82439, Note_on_c, 2, 64, 0
2, 82560, Note_on_c, 2, 52, 80
2, 82679, Note_on_c, 2, 52, 0
2, 82800, Note_on_c, 2, 59, 80
2, 82800, Note_on_c, 2, 62, 80
2, 82859, Note_on_c, 2, 59, 0
2, 82859, Note_on_c, 2, 62, 0
2, 82920, Note_on_c, 2, 59, 80
2, 82920, Note_on_c, 2, 62, 80
2, 83039, Note_on_c, 2, 59, 0
2, 83039, Note_on_c, 2, 62, 0
2, 83040, Note_on_c, 2, 52, 80
2, 83279, Note_on_c, 2, 52, 0
2, 83280, Note_on_c, 2, 59, 80
2, 83280, Note_on_c, 2, 62, 80
2, 83399, Note_on_c, 2, 59, 0
2, 83399, Note_on_c, 2, 62, 0
2, 83520, Note_on_c, 2, 52, 80
2, 83639, Note_on_c, 2, 52, 0
2, 83760, Note_on_c, 2, 59, 80
2, 83760, Note_on_c, 2, 62, 80
2, 83819, Note_on_c, 2, 59, 0
2, 83819, Note_on_c, 2, 62, 0
2, 83880, Note_on_c, 2, 59, 80
2, 83880, Note_on_c, 2, 62, 80
2, 83999, Note_on_c, 2, 59, 0
2, 83999, Note_on_c, 2, 62, 0
2, 84000, Note_on_c, 2, 52, 80
2, 84239, Note_on_c, 2, 52, 0
2, 84240, Note_on_c, 2, 59, 80
2, 84240, Note_on_c, 2, 62, 80
2, 84359, Note_on_c, 2, 59, 0
2, 84359, Note_on_c, 2, 62, 0
2, 84480, Note_on_c, 2, 57, 80
2, 84599, Note_on_c, 2, 57, 0
2, 84720, Note_on_c, 2, 60, 80
2, 84720, Note_on_c, 2, 64, 80
2, 84779, Note_on_c, 2, 60, 0
2, 84779, Note_on_c, 2, 64, 0
2, 84840, Note_on_c, 2, 60, 80
2, 84840, Note_on_c, 2, 64, 80
2, 84959, Note_on_c, 2, 60, 0
2, 84959, Note_on_c, 2, 64, 0
2, 84960, Note_on_c, 2, 52, 80
2, 85079, Note_on_c, 2, 52, 0
2, 85200, Note_on_c, 2, 60, 80
2, 85200, Note_on_c, 2, 64, 80
2, 85319, Note_on_c, 2, 60, 0
2, 85319, Note_on_c, 2, 64, 0
2, 85440, Note_on_c, 2, 57, 80
2, 85559, Note_on_c, 2, 57, 0
2, 85680, Note_on_c, 2, 60, 80
2, 85680, Note_on_c, 2, 64, 80
2, 85799, Note_on_c, 2, 60, 0
2, 85799, Note_on_c, 2, 64, 0
2, 85920, Note_on_c, 2, 52, 80
2, 86159, Note_on_c, 2, 52, 0
2, 86160, Note_on_c, 2, 57, 80
2, 86399, Note_on_c, 2, 57, 0
2, 86400, Note_on_c, 2, 52, 80
2, 86519, Note_on_c, 2, 52, 0
2, 86640, Note_on_c, 2, 59, 80
2, 86640, Note_on_c, 2, 62, 80
2, 86699, Note_on_c, 2, 59, 0
2, 86699, Note_on_c, 2, 62, 0
2, 86760, Note_on_c, 2, 59, 80
2, 86760, Note_on_c, 2, 62, 80
2, 86879, Note_on_c, 2, 59, 0
2, 86879, Note_on_c, 2, 62, 0
2, 86880, Note_on_c, 2, 52, 80
2, 86999, Note_on_c, 2, 52, 0
2, 87120, Note_on_c, 2, 59, 80
2, 87120, Note_on_c, 2, 62, 80
2, 87239, Note_on_c, 2, 59, 0
2, 87239, Note_on_c, 2, 62, 0
2, 87360, Note_on_c, 2, 52, 80
2, 87479, Note_on_c, 2, 52, 0
2, 87600, Note_on_c, 2, 59, 80
2, 87600, Note_on_c, 2, 62, 80
2, 87659, Note_on_c, 2, 59, 0
2, 87659, Note_on_c, 2, 62, 0
2, 87720, Note_on_c, 2, 59, 80
2, 87720, Note_on_c, 2, 62, 80
2, 87839, Note_on_c, 2, 59, 0
2, 87839, Note_on_c, 2, 62, 0
2, 87840, Note_on_c, 2, 52, 80
2, 87959, Note_on_c, 2, 52, 0
2, 88080, Note_on_c, 2, 59, 80
2, 88080, Note_on_c, 2, 62, 80
2, 88199, Note_on_c, 2, 59, 0
2, 88199, Note_on_c, 2, 62, 0
2, 88320, Note_on_c, 2, 57, 80
2, 88439, Note_on_c, 2, 57, 0
2, 88560, Note_on_c, 2, 60, 80
2, 88560, Note_on_c, 2, 64, 80
2, 88619, Note_on_c, 2, 60, 0
2, 88619, Note_on_c, 2, 64, 0
2, 88680, Note_on_c, 2, 60, 80
2, 88680, Note_on_c, 2, 64, 80
2, 88799, Note_on_c, 2, 60, 0
2, 88799, Note_on_c, 2, 64, 0
2, 88800, Note_on_c, 2, 52, 80
2, 88919, Note_on_c, 2, 52, 0
2, 89040, Note_on_c, 2, 60, 80
2, 89040, Note_on_c, 2, 64, 80
2, 89159, Note_on_c, 2, 60, 0
2, 89159, Note_on_c, 2, 64, 0
2, 89280, Note_on_c, 2, 57, 80
2, 89399, Note_on_c, 2, 57, 0
2, 89520, Note_on_c, 2, 60, 80
2, 89520, Note_on_c, 2, 64, 80
2, 89579, Note_on_c, 2, 60, 0
2, 89579, Note_on_c, 2, 64, 0
2, 89640, Note_on_c, 2, 60, 80
2, 89640, Note_on_c, 2, 64, 80
2, 89759, Note_on_c, 2, 60, 0
2, 89759, Note_on_c, 2, 64, 0
2, 89760, Note_on_c, 2, 52, 80
2, 89879, Note_on_c, 2, 52, 0
2, 90000, Note_on_c, 2, 60, 80
2, 90000, Note_on_c, 2, 64, 80
2, 90119, Note_on_c, 2, 60, 0
2, 90119, Note_on_c, 2, 64, 0
2, 90240, Note_on_c, 2, 52, 80
2, 90359, Note_on_c, 2, 52, 0
2, 90480, Note_on_c, 2, 59, 80
2, 90480, Note_on_c, 2, 62, 80
2, 90539, Note_on_c, 2, 59, 0
2, 90539, Note_on_c, 2, 62, 0
2, 90600, Note_on_c, 2, 59, 80
2, 90600, Note_on_c, 2, 62, 80
2, 90719, Note_on_c, 2, 59, 0
2, 90719, Note_on_c, 2, 62, 0
2, 90720, Note_on_c, 2, 52, 80
2, 90959, Note_on_c, 2, 52, 0
2, 90960, Note_on_c, 2, 59, 80
2, 90960, Note_on_c, 2, 62, 80
2, 91079, Note_on_c, 2, 59, 0
2, 91079, Note_on_c, 2, 62, 0
2, 91200, Note_on_c, 2, 52, 80
2, 91319, Note_on_c, 2, 52, 0
2, 91440, Note_on_c, 2, 59, 80
2, 91440, Note_on_c, 2, 62, 80
2, 91499, Note_on_c, 2, 59, 0
2, 91499, Note_on_c, 2, 62, 0
2, 91560, Note_on_c, 2, 59, 80
2, 91560, Note_on_c, 2, 62, 80
2, 91679, Note_on_c, 2, 59, 0
2, 91679, Note_on_c, 2, 62, 0
2, 91680, Note_on_c, 2, 52, 80
2, 91919, Note_on_c, 2, 52, 0
2, 91920, Note_on_c, 2, 59, 80
2, 91920, Note_on_c, 2, 62, 80
2, 92039, Note_on_c, 2, 59, 0
2, 92039, Note_on_c, 2, 62, 0
2, 92160, Note_on_c, 2, 57, 80
2, 92279, Note_on_c, 2, 57, 0
2, 92400, Note_on_c, 2, 60, 80
2, 92400, Note_on_c, 2, 64, 80
2, 92459, Note_on_c, 2, 60, 0
2, 92459, Note_on_c, 2, 64, 0
2, 92520, Note_on_c, 2, 60, 80
2, 92520, Note_on_c, 2, 64, 80
2, 92639, Note_on_c, 2, 60, 0
2, 92639, Note_on_c, 2, 64, 0
2, 92640, Note_on_c, 2, 52, 80
2, 92759, Note_on_c, 2, 52, 0
2, 92880, Note_on_c, 2, 60, 80
2, 92880, Note_on_c, 2, 64, 80
2, 92999, Note_on_c, 2, 60, 0
2, 92999, Note_on_c, 2, 64, 0
2, 93120, Note_on_c, 2, 57, 80
2, 93239, Note_on_c, 2, 57, 0
2, 93360, Note_on_c, 2, 57, 80
2, 93599, Note_on_c, 2, 57, 0
2, 93600, Note_on_c, 2, 59, 80
2, 93839, Note_on_c, 2, 59, 0
2, 93840, Note_on_c, 2, 60, 80
2, 94079, Note_on_c, 2, 60, 0
2, 94080, Note_on_c, 2, 50, 80
2, 94199, Note_on_c, 2, 50, 0
2, 94320, Note_on_c, 2, 57, 80
2, 94320, Note_on_c, 2, 62, 80
2, 94379, Note_on_c, 2, 57, 0
2, 94379, Note_on_c, 2, 62, 0
2, 94440, Note_on_c, 2, 57, 80
2, 94440, Note_on_c, 2, 62, 80
2, 94559, Note_on_c, 2, 57, 0
2, 94559, Note_on_c, 2, 62, 0
2, 94560, Note_on_c, 2, 50, 80
2, 94799, Note_on_c, 2, 50, 0
2, 94800, Note_on_c, 2, 57, 80
2, 94800, Note_on_c, 2, 62, 80
2, 94919, Note_on_c, 2, 57, 0
2, 94919, Note_on_c, 2, 62, 0
2, 95040, Note_on_c, 2, 50, 80
2, 95159, Note_on_c, 2, 50, 0
2, 95280, Note_on_c, 2, 57, 80
2, 95280, Note_on_c, 2, 62, 80
2, 95339, Note_on_c, 2, 57, 0
2, 95339, Note_on_c, 2, 62, 0
2, 95400, Note_on_c, 2, 57, 80
2, 95400, Note_on_c, 2, 62, 80
2, 95519, Note_on_c, 2, 57, 0
2, 95519, Note_on_c, 2, 62, 0
2, 95520, Note_on_c, 2, 50, 80
2, 95759, Note_on_c, 2, 50, 0
2, 95760, Note_on_c, 2, 57, 80
2, 95760, Note_on_c, 2, 62, 80
2, 95879, Note_on_c, 2, 57, 0
2, 95879, Note_on_c, 2, 62, 0
2, 96000, Note_on_c, 2, 57, 80
2, 96119, Note_on_c, 2, 57, 0
2, 96240, Note_on_c, 2, 60, 80
2, 96240, Note_on_c, 2, 64, 80
2, 96299, Note_on_c, 2, 60, 0
2, 96299, Note_on_c, 2, 64, 0
2, 96360, Note_on_c, 2, 60, 80
2, 96360, Note_on_c, 2, 64, 80
2, 96479, Note_on_c, 2, 60, 0
2, 96479, Note_on_c, 2, 64, 0
2, 96480, Note_on_c, 2, 52, 80
2, 96599, Note_on_c, 2, 52, 0
2, 96720, Note_on_c, 2, 60, 80
2, 96720, Note_on_c, 2, 64, 80
2, 96839, Note_on_c, 2, 60, 0
2, 96839, Note_on_c, 2, 64, 0
2, 96960, Note_on_c, 2, 57, 80
2, 97079, Note_on_c, 2, 57, 0
2, 97200, Note_on_c, 2, 60, 80
2, 97200, Note_on_c, 2, 64, 80
2, 97259, Note_on_c, 2, 60, 0
2, 97259, Note_on_c, 2, 64, 0
2, 97320, Note_on_c, 2, 60, 80
2, 97320, Note_on_c, 2, 64, 80
2, 97439, Note_on_c, 2, 60, 0
2, 97439, Note_on_c, 2, 64, 0
2, 97440, Note_on_c, 2, 52, 80
2, 97559, Note_on_c, 2, 52, 0
2, 97680, Note_on_c, 2, 60, 80
2, 97680, Note_on_c, 2, 64, 80
2, 97799, Note_on_c, 2, 60, 0
2, 97799, Note_on_c, 2, 64, 0
2, 97920, Note_on_c, 2, 52, 80
2, 98039, Note_on_c, 2, 52, 0
2, 98160, Note_on_c, 2, 59, 80
2, 98160, Note_on_c, 2, 62, 80
2, 98219, Note_on_c, 2, 59, 0
2, 98219, Note_on_c, 2, 62, 0
2, 98280, Note_on_c, 2, 59, 80
2, 98280, Note_on_c, 2, 62, 80
2, 98399, Note_on_c, 2, 59, 0
2, 98399, Note_on_c, 2, 62, 0
2, 98400, Note_on_c, 2, 52, 80
2, 98639, Note_on_c, 2, 52, 0
2, 98640, Note_on_c, 2, 59, 80
2, 98640, Note_on_c, 2, 62, 80
2, 98759, Note_on_c, 2, 59, 0
2, 98759, Note_on_c, 2, 62, 0
2, 98880, Note_on_c, 2, 52, 80
2, 98999, Note_on_c, 2, 52, 0
2, 99120, Note_on_c, 2, 59, 80
2, 99120, Note_on_c, 2, 62, 80
2, 99179, Note_on_c, 2, 59, 0
2, 99179, Note_on_c, 2, 62, 0
2, 99240, Note_on_c, 2, 59, 80
2, 99240, Note_on_c, 2, 62, 80
2, 99359, Note_on_c, 2, 59, 0
2, 99359, Note_on_c, 2, 62, 0
2, 99360, Note_on_c, 2, 52, 80
2, 99599, Note_on_c, 2, 52, 0
2, 99600, Note_on_c, 2, 59, 80
2, 99600, Note_on_c, 2, 62, 80
2, 99719, Note_on_c, 2, 59, 0
2, 99719, Note_on_c, 2, 62, 0
2, 99840, Note_on_c, 2, 57, 80
2, 99959, Note_on_c, 2, 57, 0
2, 100080, Note_on_c, 2, 60, 80
2, 100080, Note_on_c, 2, 64, 80
2, 100139, Note_on_c, 2, 60, 0
2, 100139, Note_on_c, 2, 64, 0
2, 100200, Note_on_c, 2, 60, 80
2, 100200, Note_on_c, 2, 64, 80
2, 100319, Note_on_c, 2, 60, 0
2, 100319, Note_on_c, 2, 64, 0
2, 100320, Note_on_c, 2, 52, 80
2, 100439, Note_on_c, 2, 52, 0
2, 100560, Note_on_c, 2, 60, 80
2, 100560, Note_on_c, 2, 64, 80
2, 100679, Note_on_c, 2, 60, 0
2, 100679, Note_on_c, 2, 64, 0
2, 100800, Note_on_c, 2, 52, 80
2, 100800, Note_on_c, 2, 57, 80
2, 100800, Note_on_c, 2, 60, 80
2, 101039, Note_on_c, 2, 52, 0
2, 101039, Note_on_c, 2, 57, 0
2, 101039, Note_on_c, 2, 60, 0
2, 101040, End_track
3, 0, Start_track
3, 0, Title_t, "Electric Bass, Bass\000"
3, 0, Key_signature, 0, "major"
3, 0, Control_c, 1, 121, 0
3, 0, Program_c, 1, 33
3, 0, Control_c, 1, 7, 100
3, 0, Control_c, 1, 10, 64
3, 0, Control_c, 1, 91, 0
3, 0, Control_c, 1, 93, 0
3, 0, MIDI_port, 0
3, 0, Control_c, 4, 121, 0
3, 0, Program_c, 4, 36
3, 0, Control_c, 4, 7, 100
3, 0, Control_c, 4, 10, 64
3, 0, Control_c, 4, 91, 0
3, 0, Control_c, 4, 93, 0
3, 0, MIDI_port, 0
3, 0, Control_c, 5, 121, 0
3, 0, Program_c, 5, 37
3, 0, Control_c, 5, 7, 100
3, 0, Control_c, 5, 10, 64
3, 0, Control_c, 5, 91, 0
3, 0, Control_c, 5, 93, 0
3, 0, MIDI_port, 0
3, 24960, Note_on_c, 1, 64, 80
3, 25439, Note_on_c, 1, 64, 0
3, 25440, Note_on_c, 1, 59, 80
3, 25919, Note_on_c, 1, 59, 0
3, 25920, Note_on_c, 1, 64, 80
3, 26399, Note_on_c, 1, 64, 0
3, 26400, Note_on_c, 1, 59, 80
3, 26879, Note_on_c, 1, 59, 0
3, 26880, Note_on_c, 1, 57, 80
3, 27359, Note_on_c, 1, 57, 0
3, 27360, Note_on_c, 1, 52, 80
3, 27839, Note_on_c, 1, 52, 0
3, 27840, Note_on_c, 1, 57, 80
3, 28319, Note_on_c, 1, 57, 0
3, 28320, Note_on_c, 1, 52, 80
3, 28799, Note_on_c, 1, 52, 0
3, 28800, Note_on_c, 1, 64, 80
3, 29279, Note_on_c, 1, 64, 0
3, 29280, Note_on_c, 1, 59, 80
3, 29759, Note_on_c, 1, 59, 0
3, 29760, Note_on_c, 1, 64, 80
3, 30239, Note_on_c, 1, 64, 0
3, 30240, Note_on_c, 1, 59, 80
3, 30719, Note_on_c, 1, 59, 0
3, 30720, Note_on_c, 1, 57, 80
3, 31199, Note_on_c, 1, 57, 0
3, 31200, Note_on_c, 1, 52, 80
3, 31679, Note_on_c, 1, 52, 0
3, 31680, Note_on_c, 1, 57, 80
3, 32159, Note_on_c, 1, 57, 0
3, 32160, Note_on_c, 1, 59, 80
3, 32399, Note_on_c, 1, 59, 0
3, 32400, Note_on_c, 1, 60, 80
3, 32639, Note_on_c, 1, 60, 0
3, 32640, Note_on_c, 1, 62, 80
3, 33119, Note_on_c, 1, 62, 0
3, 33120, Note_on_c, 1, 57, 80
3, 33599, Note_on_c, 1, 57, 0
3, 33600, Note_on_c, 1, 62, 80
3, 34079, Note_on_c, 1, 62, 0
3, 34080, Note_on_c, 1, 57, 80
3, 34559, Note_on_c, 1, 57, 0
3, 34560, Note_on_c, 1, 57, 80
3, 35039, Note_on_c, 1, 57, 0
3, 35040, Note_on_c, 1, 52, 80
3, 35519, Note_on_c, 1, 52, 0
3, 35520, Note_on_c, 1, 57, 80
3, 35999, Note_on_c, 1, 57, 0
3, 36000, Note_on_c, 1, 52, 80
3, 36479, Note_on_c, 1, 52, 0
3, 36480, Note_on_c, 1, 64, 80
3, 36959, Note_on_c, 1, 64, 0
3, 36960, Note_on_c, 1, 59, 80
3, 37439, Note_on_c, 1, 59, 0
3, 37440, Note_on_c, 1, 64, 80
3, 37919, Note_on_c, 1, 64, 0
3, 37920, Note_on_c, 1, 59, 80
3, 38399, Note_on_c, 1, 59, 0
3, 38400, Note_on_c, 1, 57, 80
3, 38879, Note_on_c, 1, 57, 0
3, 38880, Note_on_c, 1, 52, 80
3, 39359, Note_on_c, 1, 52, 0
3, 39360, Note_on_c, 1, 57, 80
3, 39839, Note_on_c, 1, 57, 0
3, 39840, Note_on_c, 1, 52, 80
3, 40319, Note_on_c, 1, 52, 0
3, 40320, Note_on_c, 1, 64, 80
3, 40799, Note_on_c, 1, 64, 0
3, 40800, Note_on_c, 1, 59, 80
3, 41279, Note_on_c, 1, 59, 0
3, 41280, Note_on_c, 1, 64, 80
3, 41759, Note_on_c, 1, 64, 0
3, 41760, Note_on_c, 1, 59, 80
3, 42239, Note_on_c, 1, 59, 0
3, 42240, Note_on_c, 1, 57, 80
3, 42719, Note_on_c, 1, 57, 0
3, 42720, Note_on_c, 1, 52, 80
3, 43199, Note_on_c, 1, 52, 0
3, 43200, Note_on_c, 1, 57, 80
3, 43679, Note_on_c, 1, 57, 0
3, 43680, Note_on_c, 1, 52, 80
3, 44159, Note_on_c, 1, 52, 0
3, 44160, Note_on_c, 1, 64, 80
3, 44639, Note_on_c, 1, 64, 0
3, 44640, Note_on_c, 1, 59, 80
3, 45119, Note_on_c, 1, 59, 0
3, 45120, Note_on_c, 1, 64, 80
3, 45599, Note_on_c, 1, 64, 0
3, 45600, Note_on_c, 1, 59, 80
3, 46079, Note_on_c, 1, 59, 0
3, 46080, Note_on_c, 1, 57, 80
3, 46559, Note_on_c, 1, 57, 0
3, 46560, Note_on_c, 1, 52, 80
3, 47039, Note_on_c, 1, 52, 0
3, 47040, Note_on_c, 1, 57, 80
3, 47519, Note_on_c, 1, 57, 0
3, 47520, Note_on_c, 1, 59, 80
3, 47759, Note_on_c, 1, 59, 0
3, 47760, Note_on_c, 1, 60, 80
3, 47999, Note_on_c, 1, 60, 0
3, 48000, Note_on_c, 1, 62, 80
3, 48479, Note_on_c, 1, 62, 0
3, 48480, Note_on_c, 1, 57, 80
3, 48959, Note_on_c, 1, 57, 0
3, 48960, Note_on_c, 1, 62, 80
3, 49439, Note_on_c, 1, 62, 0
3, 49440, Note_on_c, 1, 57, 80
3, 49919, Note_on_c, 1, 57, 0
3, 49920, Note_on_c, 1, 57, 80
3, 50399, Note_on_c, 1, 57, 0
3, 50400, Note_on_c, 1, 52, 80
3, 50879, Note_on_c, 1, 52, 0
3, 50880, Note_on_c, 1, 57, 80
3, 51359, Note_on_c, 1, 57, 0
3, 51360, Note_on_c, 1, 52, 80
3, 51839, Note_on_c, 1, 52, 0
3, 51840, Note_on_c, 1, 64, 80
3, 52319, Note_on_c, 1, 64, 0
3, 52320, Note_on_c, 1, 59, 80
3, 52799, Note_on_c, 1, 59, 0
3, 52800, Note_on_c, 1, 64, 80
3, 53279, Note_on_c, 1, 64, 0
3, 53280, Note_on_c, 1, 59, 80
3, 53759, Note_on_c, 1, 59, 0
3, 53760, Note_on_c, 1, 57, 80
3, 54239, Note_on_c, 1, 57, 0
3, 54240, Note_on_c, 1, 52, 80
3, 54719, Note_on_c, 1, 52, 0
3, 54720, Note_on_c, 1, 57, 80
3, 55679, Note_on_c, 1, 57, 0
3, 71040, Note_on_c, 1, 64, 80
3, 71519, Note_on_c, 1, 64, 0
3, 71520, Note_on_c, 1, 59, 80
3, 71999, Note_on_c, 1, 59, 0
3, 72000, Note_on_c, 1, 64, 80
3, 72479, Note_on_c, 1, 64, 0
3, 72480, Note_on_c, 1, 59, 80
3, 72959, Note_on_c, 1, 59, 0
3, 72960, Note_on_c, 1, 57, 80
3, 73439, Note_on_c, 1, 57, 0
3, 73440, Note_on_c, 1, 52, 80
3, 73919, Note_on_c, 1, 52, 0
3, 73920, Note_on_c, 1, 57, 80
3, 74399, Note_on_c, 1, 57, 0
3, 74400, Note_on_c, 1, 52, 80
3, 74879, Note_on_c, 1, 52, 0
3, 74880, Note_on_c, 1, 64, 80
3, 75359, Note_on_c, 1, 64, 0
3, 75360, Note_on_c, 1, 59, 80
3, 75839, Note_on_c, 1, 59, 0
3, 75840, Note_on_c, 1, 64, 80
3, 76319, Note_on_c, 1, 64, 0
3, 76320, Note_on_c, 1, 59, 80
3, 76799, Note_on_c, 1, 59, 0
3, 76800, Note_on_c, 1, 57, 80
3, 77279, Note_on_c, 1, 57, 0
3, 77280, Note_on_c, 1, 52, 80
3, 77759, Note_on_c, 1, 52, 0
3, 77760, Note_on_c, 1, 57, 80
3, 78239, Note_on_c, 1, 57, 0
3, 78240, Note_on_c, 1, 59, 80
3, 78479, Note_on_c, 1, 59, 0
3, 78480, Note_on_c, 1, 60, 80
3, 78719, Note_on_c, 1, 60, 0
3, 78720, Note_on_c, 1, 62, 80
3, 79199, Note_on_c, 1, 62, 0
3, 79200, Note_on_c, 1, 57, 80
3, 79679, Note_on_c, 1, 57, 0
3, 79680, Note_on_c, 1, 62, 80
3, 80159, Note_on_c, 1, 62, 0
3, 80160, Note_on_c, 1, 57, 80
3, 80639, Note_on_c, 1, 57, 0
3, 80640, Note_on_c, 1, 57, 80
3, 81119, Note_on_c, 1, 57, 0
3, 81120, Note_on_c, 1, 52, 80
3, 81599, Note_on_c, 1, 52, 0
3, 81600, Note_on_c, 1, 57, 80
3, 82079, Note_on_c, 1, 57, 0
3, 82080, Note_on_c, 1, 52, 80
3, 82559, Note_on_c, 1, 52, 0
3, 82560, Note_on_c, 1, 64, 80
3, 83039, Note_on_c, 1, 64, 0
3, 83040, Note_on_c, 1, 59, 80
3, 83519, Note_on_c, 1, 59, 0
3, 83520, Note_on_c, 1, 64, 80
3, 83999, Note_on_c, 1, 64, 0
3, 84000, Note_on_c, 1, 59, 80
3, 84479, Note_on_c, 1, 59, 0
3, 84480, Note_on_c, 1, 57, 80
3, 84959, Note_on_c, 1, 57, 0
3, 84960, Note_on_c, 1, 52, 80
3, 85439, Note_on_c, 1, 52, 0
3, 85440, Note_on_c, 1, 57, 80
3, 85919, Note_on_c, 1, 57, 0
3, 85920, Note_on_c, 1, 52, 80
3, 86159, Note_on_c, 1, 52, 0
3, 86160, Note_on_c, 1, 57, 80
3, 86399, Note_on_c, 1, 57, 0
3, 86400, Note_on_c, 1, 64, 80
3, 86879, Note_on_c, 1, 64, 0
3, 86880, Note_on_c, 1, 59, 80
3, 87359, Note_on_c, 1, 59, 0
3, 87360, Note_on_c, 1, 64, 80
3, 87839, Note_on_c, 1, 64, 0
3, 87840, Note_on_c, 1, 59, 80
3, 88319, Note_on_c, 1, 59, 0
3, 88320, Note_on_c, 1, 57, 80
3, 88799, Note_on_c, 1, 57, 0
3, 88800, Note_on_c, 1, 52, 80
3, 89279, Note_on_c, 1, 52, 0
3, 89280, Note_on_c, 1, 57, 80
3, 89759, Note_on_c, 1, 57, 0
3, 89760, Note_on_c, 1, 52, 80
3, 90239, Note_on_c, 1, 52, 0
3, 90240, Note_on_c, 1, 64, 80
3, 90719, Note_on_c, 1, 64, 0
3, 90720, Note_on_c, 1, 59, 80
3, 91199, Note_on_c, 1, 59, 0
3, 91200, Note_on_c, 1, 64, 80
3, 91679, Note_on_c, 1, 64, 0
3, 91680, Note_on_c, 1, 59, 80
3, 92159, Note_on_c, 1, 59, 0
3, 92160, Note_on_c, 1, 57, 80
3, 92639, Note_on_c, 1, 57, 0
3, 92640, Note_on_c, 1, 52, 80
3, 93119, Note_on_c, 1, 52, 0
3, 93120, Note_on_c, 1, 57, 80
3, 93599, Note_on_c, 1, 57, 0
3, 93600, Note_on_c, 1, 59, 80
3, 93839, Note_on_c, 1, 59, 0
3, 93840, Note_on_c, 1, 60, 80
3, 94079, Note_on_c, 1, 60, 0
3, 94080, Note_on_c, 1, 62, 80
3, 94559, Note_on_c, 1, 62, 0
3, 94560, Note_on_c, 1, 57, 80
3, 95039, Note_on_c, 1, 57, 0
3, 95040, Note_on_c, 1, 62, 80
3, 95519, Note_on_c, 1, 62, 0
3, 95520, Note_on_c, 1, 57, 80
3, 95999, Note_on_c, 1, 57, 0
3, 96000, Note_on_c, 1, 57, 80
3, 96479, Note_on_c, 1, 57, 0
3, 96480, Note_on_c, 1, 52, 80
3, 96959, Note_on_c, 1, 52, 0
3, 96960, Note_on_c, 1, 57, 80
3, 97439, Note_on_c, 1, 57, 0
3, 97440, Note_on_c, 1, 52, 80
3, 97919, Note_on_c, 1, 52, 0
3, 97920, Note_on_c, 1, 64, 80
3, 98399, Note_on_c, 1, 64, 0
3, 98400, Note_on_c, 1, 59, 80
3, 98879, Note_on_c, 1, 59, 0
3, 98880, Note_on_c, 1, 64, 80
3, 99359, Note_on_c, 1, 64, 0
3, 99360, Note_on_c, 1, 59, 80
3, 99839, Note_on_c, 1, 59, 0
3, 99840, Note_on_c, 1, 57, 80
3, 100319, Note_on_c, 1, 57, 0
3, 100320, Note_on_c, 1, 52, 80
3, 100799, Note_on_c, 1, 52, 0
3, 100800, Note_on_c, 1, 57, 80
3, 101759, Note_on_c, 1, 57, 0
3, 101760, End_track
0, 0, End_of_file
