0, 0, Header, 1, 5, 480
1, 0, Start_track
1, 0, Title_t, "Piano, Piano, Piano\000"
1, 0, Time_signature, 4, 2, 24, 8
1, 0, Key_signature, 0, "major"
1, 0, Tempo, 300000
1, 0, Control_c, 0, 121, 0
1, 0, Program_c, 0, 0
1, 0, Control_c, 0, 7, 100
1, 0, Control_c, 0, 10, 64
1, 0, Control_c, 0, 91, 0
1, 0, Control_c, 0, 93, 0
1, 0, MIDI_port, 0
1, 0, Note_on_c, 0, 71, 80
1, 227, Note_on_c, 0, 71, 0
1, 240, Note_on_c, 0, 71, 80
1, 467, Note_on_c, 0, 71, 0
1, 480, Note_on_c, 0, 71, 80
1, 707, Note_on_c, 0, 71, 0
1, 720, Note_on_c, 0, 71, 80
1, 947, Note_on_c, 0, 71, 0
1, 960, Note_on_c, 0, 71, 80
1, 1415, Note_on_c, 0, 71, 0
1, 1440, Note_on_c, 0, 71, 80
1, 1667, Note_on_c, 0, 71, 0
1, 1680, Note_on_c, 0, 71, 80
1, 2363, Note_on_c, 0, 71, 0
1, 2400, Note_on_c, 0, 72, 80
1, 2855, Note_on_c, 0, 72, 0
1, 2880, Note_on_c, 0, 74, 80
1, 3335, Note_on_c, 0, 74, 0
1, 3360, Note_on_c, 0, 76, 80
1, 3815, Note_on_c, 0, 76, 0
1, 3840, Note_on_c, 0, 71, 80
1, 4067, Note_on_c, 0, 71, 0
1, 4080, Note_on_c, 0, 71, 80
1, 4307, Note_on_c, 0, 71, 0
1, 4320, Note_on_c, 0, 71, 80
1, 4547, Note_on_c, 0, 71, 0
1, 4560, Note_on_c, 0, 71, 80
1, 4787, Note_on_c, 0, 71, 0
1, 4800, Note_on_c, 0, 71, 80
1, 5255, Note_on_c, 0, 71, 0
1, 5280, Note_on_c, 0, 71, 80
1, 5507, Note_on_c, 0, 71, 0
1, 5520, Note_on_c, 0, 71, 80
1, 6203, Note_on_c, 0, 71, 0
1, 6240, Note_on_c, 0, 72, 80
1, 6695, Note_on_c, 0, 72, 0
1, 6720, Note_on_c, 0, 74, 80
1, 7175, Note_on_c, 0, 74, 0
1, 7200, Note_on_c, 0, 76, 80
1, 7655, Note_on_c, 0, 76, 0
1, 7680, Note_on_c, 0, 71, 80
1, 7907, Note_on_c, 0, 71, 0
1, 7920, Note_on_c, 0, 71, 80
1, 8147, Note_on_c, 0, 71, 0
1, 8160, Note_on_c, 0, 71, 80
1, 8387, Note_on_c, 0, 71, 0
1, 8400, Note_on_c, 0, 71, 80
1, 8627, Note_on_c, 0, 71, 0
1, 8640, Note_on_c, 0, 71, 80
1, 9095, Note_on_c, 0, 71, 0
1, 9120, Note_on_c, 0, 71, 80
1, 9347, Note_on_c, 0, 71, 0
1, 9360, Note_on_c, 0, 71, 80
1, 10043, Note_on_c, 0, 71, 0
1, 10080, Note_on_c, 0, 72, 80
1, 10535, Note_on_c, 0, 72, 0
1, 10560, Note_on_c, 0, 74, 80
1, 11015, Note_on_c, 0, 74, 0
1, 11040, Note_on_c, 0, 76, 80
1, 11495, Note_on_c, 0, 76, 0
1, 11520, Note_on_c, 0, 71, 80
1, 11747, Note_on_c, 0, 71, 0
1, 11760, Note_on_c, 0, 71, 80
1, 11987, Note_on_c, 0, 71, 0
1, 12000, Note_on_c, 0, 71, 80
1, 12227, Note_on_c, 0, 71, 0
1, 12240, Note_on_c, 0, 71, 80
1, 12467, Note_on_c, 0, 71, 0
1, 12480, Note_on_c, 0, 71, 80
1, 12935, Note_on_c, 0, 71, 0
1, 12960, Note_on_c, 0, 71, 80
1, 13187, Note_on_c, 0, 71, 0
1, 13200, Note_on_c, 0, 71, 80
1, 13883, Note_on_c, 0, 71, 0
1, 13920, Note_on_c, 0, 72, 80
1, 14147, Note_on_c, 0, 72, 0
1, 14160, Note_on_c, 0, 71, 80
1, 14615, Note_on_c, 0, 71, 0
1, 14640, Note_on_c, 0, 71, 80
1, 14867, Note_on_c, 0, 71, 0
1, 14880, Note_on_c, 0, 64, 80
1, 15335, Note_on_c, 0, 64, 0
1, 15360, Note_on_c, 0, 71, 80
1, 15587, Note_on_c, 0, 71, 0
1, 15600, Note_on_c, 0, 71, 80
1, 15827, Note_on_c, 0, 71, 0
1, 15840, Note_on_c, 0, 71, 80
1, 16067, Note_on_c, 0, 71, 0
1, 16080, Note_on_c, 0, 71, 80
1, 16307, Note_on_c, 0, 71, 0
1, 16320, Note_on_c, 0, 71, 80
1, 16775, Note_on_c, 0, 71, 0
1, 16800, Note_on_c, 0, 71, 80
1, 17027, Note_on_c, 0, 71, 0
1, 17040, Note_on_c, 0, 71, 80
1, 17723, Note_on_c, 0, 71, 0
1, 17760, Note_on_c, 0, 72, 80
1, 18215, Note_on_c, 0, 72, 0
1, 18240, Note_on_c, 0, 74, 80
1, 18695, Note_on_c, 0, 74, 0
1, 18720, Note_on_c, 0, 76, 80
1, 19175, Note_on_c, 0, 76, 0
1, 19200, Note_on_c, 0, 71, 80
1, 19427, Note_on_c, 0, 71, 0
1, 19440, Note_on_c, 0, 71, 80
1, 19667, Note_on_c, 0, 71, 0
1, 19680, Note_on_c, 0, 71, 80
1, 19907, Note_on_c, 0, 71, 0
1, 19920, Note_on_c, 0, 71, 80
1, 20147, Note_on_c, 0, 71, 0
1, 20160, Note_on_c, 0, 71, 80
1, 20615, Note_on_c, 0, 71, 0
1, 20640, Note_on_c, 0, 71, 80
1, 20867, Note_on_c, 0, 71, 0
1, 20880, Note_on_c, 0, 71, 80
1, 21563, Note_on_c, 0, 71, 0
1, 21600, Note_on_c, 0, 72, 80
1, 22055, Note_on_c, 0, 72, 0
1, 22080, Note_on_c, 0, 74, 80
1, 22535, Note_on_c, 0, 74, 0
1, 22560, Note_on_c, 0, 76, 80
1, 23015, Note_on_c, 0, 76, 0
1, 23040, Note_on_c, 0, 71, 80
1, 23267, Note_on_c, 0, 71, 0
1, 23280, Note_on_c, 0, 71, 80
1, 23507, Note_on_c, 0, 71, 0
1, 23520, Note_on_c, 0, 71, 80
1, 23747, Note_on_c, 0, 71, 0
1, 23760, Note_on_c, 0, 71, 80
1, 23987, Note_on_c, 0, 71, 0
1, 24000, Note_on_c, 0, 71, 80
1, 24455, Note_on_c, 0, 71, 0
1, 24480, Note_on_c, 0, 71, 80
1, 24707, Note_on_c, 0, 71, 0
1, 24720, Note_on_c, 0, 71, 80
1, 25403, Note_on_c, 0, 71, 0
1, 25440, Note_on_c, 0, 72, 80
1, 25895, Note_on_c, 0, 72, 0
1, 25920, Note_on_c, 0, 74, 80
1, 26375, Note_on_c, 0, 74, 0
1, 26400, Note_on_c, 0, 76, 80
1, 26855, Note_on_c, 0, 76, 0
1, 26880, Note_on_c, 0, 71, 80
1, 27107, Note_on_c, 0, 71, 0
1, 27120, Note_on_c, 0, 71, 80
1, 27347, Note_on_c, 0, 71, 0
1, 27360, Note_on_c, 0, 71, 80
1, 27587, Note_on_c, 0, 71, 0
1, 27600, Note_on_c, 0, 71, 80
1, 27827, Note_on_c, 0, 71, 0
1, 27840, Note_on_c, 0, 71, 80
1, 28295, Note_on_c, 0, 71, 0
1, 28320, Note_on_c, 0, 71, 80
1, 28547, Note_on_c, 0, 71, 0
1, 28560, Note_on_c, 0, 71, 80
1, 28787, Note_on_c, 0, 71, 0
1, 28800, Note_on_c, 0, 71, 80
1, 29255, Note_on_c, 0, 71, 0
1, 29280, Note_on_c, 0, 72, 80
1, 29507, Note_on_c, 0, 72, 0
1, 29520, Note_on_c, 0, 71, 80
1, 29975, Note_on_c, 0, 71, 0
1, 30000, Note_on_c, 0, 71, 80
1, 30227, Note_on_c, 0, 71, 0
1, 30240, Note_on_c, 0, 64, 80
1, 30695, Note_on_c, 0, 64, 0
1, 31440, Note_on_c, 0, 64, 80
1, 31440, Note_on_c, 0, 71, 80
1, 31667, Note_on_c, 0, 64, 0
1, 31667, Note_on_c, 0, 71, 0
1, 31680, Note_on_c, 0, 71, 80
1, 31907, Note_on_c, 0, 71, 0
1, 31920, Note_on_c, 0, 72, 80
1, 32375, Note_on_c, 0, 72, 0
1, 32400, Note_on_c, 0, 71, 80
1, 33539, Note_on_c, 0, 71, 0
1, 35040, Note_on_c, 0, 71, 80
1, 35267, Note_on_c, 0, 71, 0
1, 35280, Note_on_c, 0, 71, 80
1, 35507, Note_on_c, 0, 71, 0
1, 35520, Note_on_c, 0, 71, 80
1, 35747, Note_on_c, 0, 71, 0
1, 35760, Note_on_c, 0, 71, 80
1, 35987, Note_on_c, 0, 71, 0
1, 36000, Note_on_c, 0, 72, 80
1, 36227, Note_on_c, 0, 72, 0
1, 36240, Note_on_c, 0, 71, 80
1, 37379, Note_on_c, 0, 71, 0
1, 39360, Note_on_c, 0, 71, 80
1, 39815, Note_on_c, 0, 71, 0
1, 39840, Note_on_c, 0, 72, 80
1, 40067, Note_on_c, 0, 72, 0
1, 40080, Note_on_c, 0, 71, 80
1, 40535, Note_on_c, 0, 71, 0
1, 40560, Note_on_c, 0, 71, 80
1, 40787, Note_on_c, 0, 71, 0
1, 40800, Note_on_c, 0, 69, 80
1, 41027, Note_on_c, 0, 69, 0
1, 41040, Note_on_c, 0, 69, 80
1, 41267, Note_on_c, 0, 69, 0
1, 41280, Note_on_c, 0, 71, 80
1, 41507, Note_on_c, 0, 71, 0
1, 41520, Note_on_c, 0, 71, 80
1, 41747, Note_on_c, 0, 71, 0
1, 41760, Note_on_c, 0, 72, 80
1, 41987, Note_on_c, 0, 72, 0
1, 42000, Note_on_c, 0, 71, 80
1, 43139, Note_on_c, 0, 71, 0
1, 46560, Note_on_c, 0, 76, 80
1, 47015, Note_on_c, 0, 76, 0
1, 47040, Note_on_c, 0, 76, 80
1, 47495, Note_on_c, 0, 76, 0
1, 47520, Note_on_c, 0, 71, 80
1, 47975, Note_on_c, 0, 71, 0
1, 48000, Note_on_c, 0, 71, 80
1, 48227, Note_on_c, 0, 71, 0
1, 48240, Note_on_c, 0, 69, 80
1, 48695, Note_on_c, 0, 69, 0
1, 48720, Note_on_c, 0, 71, 80
1, 49631, Note_on_c, 0, 71, 0
1, 50160, Note_on_c, 0, 69, 80
1, 50387, Note_on_c, 0, 69, 0
1, 50400, Note_on_c, 0, 71, 80
1, 50627, Note_on_c, 0, 71, 0
1, 50640, Note_on_c, 0, 69, 80
1, 50867, Note_on_c, 0, 69, 0
1, 50880, Note_on_c, 0, 71, 80
1, 51335, Note_on_c, 0, 71, 0
1, 51360, Note_on_c, 0, 72, 80
1, 51587, Note_on_c, 0, 72, 0
1, 51600, Note_on_c, 0, 71, 80
1, 52283, Note_on_c, 0, 71, 0
1, 54240, Note_on_c, 0, 71, 80
1, 54467, Note_on_c, 0, 71, 0
1, 54480, Note_on_c, 0, 69, 80
1, 54707, Note_on_c, 0, 69, 0
1, 54720, Note_on_c, 0, 71, 80
1, 55175, Note_on_c, 0, 71, 0
1, 55200, Note_on_c, 0, 69, 80
1, 55427, Note_on_c, 0, 69, 0
1, 55440, Note_on_c, 0, 71, 80
1, 56123, Note_on_c, 0, 71, 0
1, 56160, Note_on_c, 0, 69, 80
1, 56387, Note_on_c, 0, 69, 0
1, 56400, Note_on_c, 0, 69, 80
1, 56627, Note_on_c, 0, 69, 0
1, 56640, Note_on_c, 0, 71, 80
1, 56867, Note_on_c, 0, 71, 0
1, 56880, Note_on_c, 0, 71, 80
1, 57107, Note_on_c, 0, 71, 0
1, 57120, Note_on_c, 0, 72, 80
1, 57347, Note_on_c, 0, 72, 0
1, 57360, Note_on_c, 0, 71, 80
1, 57815, Note_on_c, 0, 71, 0
1, 58080, Note_on_c, 0, 69, 80
1, 58991, Note_on_c, 0, 69, 0
1, 60000, Note_on_c, 0, 69, 80
1, 60455, Note_on_c, 0, 69, 0
1, 60480, Note_on_c, 0, 67, 80
1, 61391, Note_on_c, 0, 67, 0
1, 61440, Note_on_c, 0, 72, 80
1, 62351, Note_on_c, 0, 72, 0
1, 62400, Note_on_c, 0, 76, 80
1, 62855, Note_on_c, 0, 76, 0
1, 62880, Note_on_c, 0, 79, 80
1, 63335, Note_on_c, 0, 79, 0
1, 63360, Note_on_c, 0, 76, 80
1, 63815, Note_on_c, 0, 76, 0
1, 64080, Note_on_c, 0, 72, 80
1, 64535, Note_on_c, 0, 72, 0
1, 64800, Note_on_c, 0, 79, 80
1, 65711, Note_on_c, 0, 79, 0
1, 65760, Note_on_c, 0, 76, 80
1, 66215, Note_on_c, 0, 76, 0
1, 66720, Note_on_c, 0, 72, 80
1, 67175, Note_on_c, 0, 72, 0
1, 67200, Note_on_c, 0, 72, 80
1, 67200, Note_on_c, 0, 76, 80
1, 67655, Note_on_c, 0, 72, 0
1, 67655, Note_on_c, 0, 76, 0
1, 67680, Note_on_c, 0, 67, 80
1, 67680, Note_on_c, 0, 72, 80
1, 68135, Note_on_c, 0, 67, 0
1, 68135, Note_on_c, 0, 72, 0
1, 68160, Note_on_c, 0, 72, 80
1, 68160, Note_on_c, 0, 76, 80
1, 68399, Note_on_c, 0, 72, 0
1, 68399, Note_on_c, 0, 76, 0
1, 68640, Note_on_c, 0, 67, 80
1, 68640, Note_on_c, 0, 72, 80
1, 69095, Note_on_c, 0, 67, 0
1, 69095, Note_on_c, 0, 72, 0
1, 69120, Note_on_c, 0, 67, 80
1, 69120, Note_on_c, 0, 71, 80
1, 69803, Note_on_c, 0, 67, 0
1, 69803, Note_on_c, 0, 71, 0
1, 69840, Note_on_c, 0, 64, 80
1, 69840, Note_on_c, 0, 69, 80
1, 70067, Note_on_c, 0, 64, 0
1, 70067, Note_on_c, 0, 69, 0
1, 71280, Note_on_c, 0, 72, 80
1, 71507, Note_on_c, 0, 72, 0
1, 71520, Note_on_c, 0, 72, 80
1, 71747, Note_on_c, 0, 72, 0
1, 71760, Note_on_c, 0, 72, 80
1, 71987, Note_on_c, 0, 72, 0
1, 72000, Note_on_c, 0, 72, 80
1, 72455, Note_on_c, 0, 72, 0
1, 72480, Note_on_c, 0, 72, 80
1, 72707, Note_on_c, 0, 72, 0
1, 72720, Note_on_c, 0, 71, 80
1, 73175, Note_on_c, 0, 71, 0
1, 73200, Note_on_c, 0, 67, 80
1, 73559, Note_on_c, 0, 67, 0
1, 76800, Note_on_c, 0, 72, 80
1, 77711, Note_on_c, 0, 72, 0
1, 77760, Note_on_c, 0, 76, 80
1, 78215, Note_on_c, 0, 76, 0
1, 78240, Note_on_c, 0, 79, 80
1, 78695, Note_on_c, 0, 79, 0
1, 78720, Note_on_c, 0, 76, 80
1, 79175, Note_on_c, 0, 76, 0
1, 79440, Note_on_c, 0, 72, 80
1, 79895, Note_on_c, 0, 72, 0
1, 80160, Note_on_c, 0, 79, 80
1, 81071, Note_on_c, 0, 79, 0
1, 81120, Note_on_c, 0, 76, 80
1, 81575, Note_on_c, 0, 76, 0
1, 82080, Note_on_c, 0, 72, 80
1, 82535, Note_on_c, 0, 72, 0
1, 82560, Note_on_c, 0, 72, 80
1, 82560, Note_on_c, 0, 76, 80
1, 83015, Note_on_c, 0, 72, 0
1, 83015, Note_on_c, 0, 76, 0
1, 83040, Note_on_c, 0, 67, 80
1, 83040, Note_on_c, 0, 72, 80
1, 83495, Note_on_c, 0, 67, 0
1, 83495, Note_on_c, 0, 72, 0
1, 83520, Note_on_c, 0, 72, 80
1, 83520, Note_on_c, 0, 76, 80
1, 83759, Note_on_c, 0, 72, 0
1, 83759, Note_on_c, 0, 76, 0
1, 84000, Note_on_c, 0, 67, 80
1, 84000, Note_on_c, 0, 72, 80
1, 84455, Note_on_c, 0, 67, 0
1, 84455, Note_on_c, 0, 72, 0
1, 84480, Note_on_c, 0, 72, 80
1, 84480, Note_on_c, 0, 79, 80
1, 85163, Note_on_c, 0, 72, 0
1, 85163, Note_on_c, 0, 79, 0
1, 85200, Note_on_c, 0, 72, 80
1, 85200, Note_on_c, 0, 76, 80
1, 85427, Note_on_c, 0, 72, 0
1, 85427, Note_on_c, 0, 76, 0
1, 86640, Note_on_c, 0, 72, 80
1, 86867, Note_on_c, 0, 72, 0
1, 86880, Note_on_c, 0, 72, 80
1, 87107, Note_on_c, 0, 72, 0
1, 87120, Note_on_c, 0, 72, 80
1, 87347, Note_on_c, 0, 72, 0
1, 87360, Note_on_c, 0, 72, 80
1, 87815, Note_on_c, 0, 72, 0
1, 87840, Note_on_c, 0, 72, 80
1, 88067, Note_on_c, 0, 72, 0
1, 88080, Note_on_c, 0, 71, 80
1, 88535, Note_on_c, 0, 71, 0
1, 88560, Note_on_c, 0, 67, 80
1, 88919, Note_on_c, 0, 67, 0
1, 90480, Note_on_c, 0, 79, 80
1, 90935, Note_on_c, 0, 79, 0
1, 90960, Note_on_c, 0, 76, 80
1, 91415, Note_on_c, 0, 76, 0
1, 91440, Note_on_c, 0, 74, 80
1, 91667, Note_on_c, 0, 74, 0
1, 91680, Note_on_c, 0, 76, 80
1, 91907, Note_on_c, 0, 76, 0
1, 91920, Note_on_c, 0, 74, 80
1, 92147, Note_on_c, 0, 74, 0
1, 92160, Note_on_c, 0, 72, 80
1, 92615, Note_on_c, 0, 72, 0
1, 92640, Note_on_c, 0, 72, 80
1, 94007, Note_on_c, 0, 72, 0
1, 94320, Note_on_c, 0, 79, 80
1, 94775, Note_on_c, 0, 79, 0
1, 94800, Note_on_c, 0, 76, 80
1, 95255, Note_on_c, 0, 76, 0
1, 95280, Note_on_c, 0, 74, 80
1, 95507, Note_on_c, 0, 74, 0
1, 95520, Note_on_c, 0, 76, 80
1, 95747, Note_on_c, 0, 76, 0
1, 95760, Note_on_c, 0, 74, 80
1, 95987, Note_on_c, 0, 74, 0
1, 96000, Note_on_c, 0, 71, 80
1, 96455, Note_on_c, 0, 71, 0
1, 96480, Note_on_c, 0, 71, 80
1, 96935, Note_on_c, 0, 71, 0
1, 98160, Note_on_c, 0, 79, 80
1, 98615, Note_on_c, 0, 79, 0
1, 98640, Note_on_c, 0, 76, 80
1, 99095, Note_on_c, 0, 76, 0
1, 99120, Note_on_c, 0, 74, 80
1, 99347, Note_on_c, 0, 74, 0
1, 99360, Note_on_c, 0, 76, 80
1, 99587, Note_on_c, 0, 76, 0
1, 99600, Note_on_c, 0, 74, 80
1, 99827, Note_on_c, 0, 74, 0
1, 99840, Note_on_c, 0, 72, 80
1, 100295, Note_on_c, 0, 72, 0
1, 100320, Note_on_c, 0, 72, 80
1, 101687, Note_on_c, 0, 72, 0
1, 102000, Note_on_c, 0, 79, 80
1, 102455, Note_on_c, 0, 79, 0
1, 102480, Note_on_c, 0, 76, 80
1, 102935, Note_on_c, 0, 76, 0
1, 102960, Note_on_c, 0, 74, 80
1, 103187, Note_on_c, 0, 74, 0
1, 103200, Note_on_c, 0, 76, 80
1, 103427, Note_on_c, 0, 76, 0
1, 103440, Note_on_c, 0, 74, 80
1, 103667, Note_on_c, 0, 74, 0
1, 103680, Note_on_c, 0, 71, 80
1, 104135, Note_on_c, 0, 71, 0
1, 104160, Note_on_c, 0, 71, 80
1, 104615, Note_on_c, 0, 71, 0
1, 105840, Note_on_c, 0, 79, 80
1, 106295, Note_on_c, 0, 79, 0
1, 106320, Note_on_c, 0, 76, 80
1, 106775, Note_on_c, 0, 76, 0
1, 106800, Note_on_c, 0, 74, 80
1, 107027, Note_on_c, 0, 74, 0
1, 107040, Note_on_c, 0, 76, 80
1, 107267, Note_on_c, 0, 76, 0
1, 107280, Note_on_c, 0, 74, 80
1, 107507, Note_on_c, 0, 74, 0
1, 107520, Note_on_c, 0, 72, 80
1, 107975, Note_on_c, 0, 72, 0
1, 108000, Note_on_c, 0, 72, 80
1, 109367, Note_on_c, 0, 72, 0
1, 109680, Note_on_c, 0, 79, 80
1, 110135, Note_on_c, 0, 79, 0
1, 110160, Note_on_c, 0, 76, 80
1, 110615, Note_on_c, 0, 76, 0
1, 110640, Note_on_c, 0, 74, 80
1, 110867, Note_on_c, 0, 74, 0
1, 110880, Note_on_c, 0, 76, 80
1, 111107, Note_on_c, 0, 76, 0
1, 111120, Note_on_c, 0, 74, 80
1, 111347, Note_on_c, 0, 74, 0
1, 111360, Note_on_c, 0, 71, 80
1, 111815, Note_on_c, 0, 71, 0
1, 111840, Note_on_c, 0, 71, 80
1, 112295, Note_on_c, 0, 71, 0
1, 113520, Note_on_c, 0, 79, 80
1, 113975, Note_on_c, 0, 79, 0
1, 114000, Note_on_c, 0, 76, 80
1, 114455, Note_on_c, 0, 76, 0
1, 114480, Note_on_c, 0, 74, 80
1, 114707, Note_on_c, 0, 74, 0
1, 114720, Note_on_c, 0, 76, 80
1, 114947, Note_on_c, 0, 76, 0
1, 114960, Note_on_c, 0, 74, 80
1, 115187, Note_on_c, 0, 74, 0
1, 115200, Note_on_c, 0, 72, 80
1, 115655, Note_on_c, 0, 72, 0
1, 115680, Note_on_c, 0, 72, 80
1, 117047, Note_on_c, 0, 72, 0
1, 117360, Note_on_c, 0, 79, 80
1, 117815, Note_on_c, 0, 79, 0
1, 117840, Note_on_c, 0, 76, 80
1, 118295, Note_on_c, 0, 76, 0
1, 118320, Note_on_c, 0, 74, 80
1, 118547, Note_on_c, 0, 74, 0
1, 118560, Note_on_c, 0, 76, 80
1, 118787, Note_on_c, 0, 76, 0
1, 118800, Note_on_c, 0, 74, 80
1, 119027, Note_on_c, 0, 74, 0
1, 119040, Note_on_c, 0, 71, 80
1, 119495, Note_on_c, 0, 71, 0
1, 119520, Note_on_c, 0, 71, 80
1, 119975, Note_on_c, 0, 71, 0
1, 120960, Note_on_c, 0, 71, 80
1, 121187, Note_on_c, 0, 71, 0
1, 121200, Note_on_c, 0, 72, 80
1, 121655, Note_on_c, 0, 72, 0
1, 121680, Note_on_c, 0, 71, 80
1, 122135, Note_on_c, 0, 71, 0
1, 122160, Note_on_c, 0, 71, 80
1, 122387, Note_on_c, 0, 71, 0
1, 122400, Note_on_c, 0, 64, 80
1, 122855, Note_on_c, 0, 64, 0
1, 123120, Note_on_c, 0, 79, 80
1, 123347, Note_on_c, 0, 79, 0
1, 123360, Note_on_c, 0, 79, 80
1, 123587, Note_on_c, 0, 79, 0
1, 123600, Note_on_c, 0, 79, 80
1, 123827, Note_on_c, 0, 79, 0
1, 123840, Note_on_c, 0, 79, 80
1, 124295, Note_on_c, 0, 79, 0
1, 124320, Note_on_c, 0, 71, 80
1, 124547, Note_on_c, 0, 71, 0
1, 124560, Note_on_c, 0, 71, 80
1, 125699, Note_on_c, 0, 71, 0
1, 127200, Note_on_c, 0, 71, 80
1, 127427, Note_on_c, 0, 71, 0
1, 127440, Note_on_c, 0, 69, 80
1, 127667, Note_on_c, 0, 69, 0
1, 127680, Note_on_c, 0, 71, 80
1, 127907, Note_on_c, 0, 71, 0
1, 127920, Note_on_c, 0, 71, 80
1, 128147, Note_on_c, 0, 71, 0
1, 128160, Note_on_c, 0, 72, 80
1, 128387, Note_on_c, 0, 72, 0
1, 128400, Note_on_c, 0, 71, 80
1, 128627, Note_on_c, 0, 71, 0
1, 131040, Note_on_c, 0, 71, 80
1, 131267, Note_on_c, 0, 71, 0
1, 131280, Note_on_c, 0, 69, 80
1, 131507, Note_on_c, 0, 69, 0
1, 131520, Note_on_c, 0, 71, 80
1, 131975, Note_on_c, 0, 71, 0
1, 132000, Note_on_c, 0, 69, 80
1, 132227, Note_on_c, 0, 69, 0
1, 132240, Note_on_c, 0, 71, 80
1, 132695, Note_on_c, 0, 71, 0
1, 132720, Note_on_c, 0, 71, 80
1, 132947, Note_on_c, 0, 71, 0
1, 132960, Note_on_c, 0, 69, 80
1, 133187, Note_on_c, 0, 69, 0
1, 133200, Note_on_c, 0, 69, 80
1, 133427, Note_on_c, 0, 69, 0
1, 133440, Note_on_c, 0, 71, 80
1, 133667, Note_on_c, 0, 71, 0
1, 133680, Note_on_c, 0, 71, 80
1, 133907, Note_on_c, 0, 71, 0
1, 133920, Note_on_c, 0, 72, 80
1, 134147, Note_on_c, 0, 72, 0
1, 134160, Note_on_c, 0, 71, 80
1, 135299, Note_on_c, 0, 71, 0
1, 138480, Note_on_c, 0, 79, 80
1, 138707, Note_on_c, 0, 79, 0
1, 138720, Note_on_c, 0, 79, 80
1, 138947, Note_on_c, 0, 79, 0
1, 138960, Note_on_c, 0, 79, 80
1, 139187, Note_on_c, 0, 79, 0
1, 139200, Note_on_c, 0, 79, 80
1, 139655, Note_on_c, 0, 79, 0
1, 139680, Note_on_c, 0, 72, 80
1, 139907, Note_on_c, 0, 72, 0
1, 139920, Note_on_c, 0, 72, 80
1, 140147, Note_on_c, 0, 72, 0
1, 140160, Note_on_c, 0, 72, 80
1, 140387, Note_on_c, 0, 72, 0
1, 140400, Note_on_c, 0, 72, 80
1, 140627, Note_on_c, 0, 72, 0
1, 140640, Note_on_c, 0, 72, 80
1, 140867, Note_on_c, 0, 72, 0
1, 140880, Note_on_c, 0, 72, 80
1, 141107, Note_on_c, 0, 72, 0
1, 141120, Note_on_c, 0, 72, 80
1, 141575, Note_on_c, 0, 72, 0
1, 141600, Note_on_c, 0, 72, 80
1, 141827, Note_on_c, 0, 72, 0
1, 141840, Note_on_c, 0, 72, 80
1, 142067, Note_on_c, 0, 72, 0
1, 142080, Note_on_c, 0, 71, 80
1, 142307, Note_on_c, 0, 71, 0
1, 142320, Note_on_c, 0, 69, 80
1, 142547, Note_on_c, 0, 69, 0
1, 145200, Note_on_c, 0, 69, 80
1, 145427, Note_on_c, 0, 69, 0
1, 145440, Note_on_c, 0, 71, 80
1, 145667, Note_on_c, 0, 71, 0
1, 145680, Note_on_c, 0, 69, 80
1, 145907, Note_on_c, 0, 69, 0
1, 145920, Note_on_c, 0, 71, 80
1, 146147, Note_on_c, 0, 71, 0
1, 146160, Note_on_c, 0, 69, 80
1, 146387, Note_on_c, 0, 69, 0
1, 146400, Note_on_c, 0, 71, 80
1, 146627, Note_on_c, 0, 71, 0
1, 146640, Note_on_c, 0, 69, 80
1, 146867, Note_on_c, 0, 69, 0
1, 146880, Note_on_c, 0, 71, 80
1, 147563, Note_on_c, 0, 71, 0
1, 147600, Note_on_c, 0, 69, 80
1, 147827, Note_on_c, 0, 69, 0
1, 147840, Note_on_c, 0, 71, 80
1, 148067, Note_on_c, 0, 71, 0
1, 148080, Note_on_c, 0, 69, 80
1, 148307, Note_on_c, 0, 69, 0
1, 148320, Note_on_c, 0, 71, 80
1, 148547, Note_on_c, 0, 71, 0
1, 148560, Note_on_c, 0, 69, 80
1, 148787, Note_on_c, 0, 69, 0
1, 148800, Note_on_c, 0, 71, 80
1, 149483, Note_on_c, 0, 71, 0
1, 149520, Note_on_c, 0, 69, 80
1, 149747, Note_on_c, 0, 69, 0
1, 149760, Note_on_c, 0, 71, 80
1, 149987, Note_on_c, 0, 71, 0
1, 150000, Note_on_c, 0, 69, 80
1, 150227, Note_on_c, 0, 69, 0
1, 150240, Note_on_c, 0, 71, 80
1, 150467, Note_on_c, 0, 71, 0
1, 150480, Note_on_c, 0, 69, 80
1, 150707, Note_on_c, 0, 69, 0
1, 150720, Note_on_c, 0, 71, 80
1, 151403, Note_on_c, 0, 71, 0
1, 151440, Note_on_c, 0, 69, 80
1, 151667, Note_on_c, 0, 69, 0
1, 151680, Note_on_c, 0, 71, 80
1, 151907, Note_on_c, 0, 71, 0
1, 151920, Note_on_c, 0, 69, 80
1, 152147, Note_on_c, 0, 69, 0
1, 152160, Note_on_c, 0, 71, 80
1, 152387, Note_on_c, 0, 71, 0
1, 152400, Note_on_c, 0, 72, 80
1, 152855, Note_on_c, 0, 72, 0
1, 152880, Note_on_c, 0, 71, 80
1, 153239, Note_on_c, 0, 71, 0
1, 154080, Note_on_c, 0, 84, 80
1, 154307, Note_on_c, 0, 84, 0
1, 154320, Note_on_c, 0, 84, 80
1, 154547, Note_on_c, 0, 84, 0
1, 154560, Note_on_c, 0, 84, 80
1, 155015, Note_on_c, 0, 84, 0
1, 155040, Note_on_c, 0, 84, 80
1, 155267, Note_on_c, 0, 84, 0
1, 155280, Note_on_c, 0, 84, 80
1, 155507, Note_on_c, 0, 84, 0
1, 155520, Note_on_c, 0, 84, 80
1, 155975, Note_on_c, 0, 84, 0
1, 156000, Note_on_c, 0, 84, 80
1, 156227, Note_on_c, 0, 84, 0
1, 156240, Note_on_c, 0, 84, 80
1, 156467, Note_on_c, 0, 84, 0
1, 156480, Note_on_c, 0, 84, 80
1, 156707, Note_on_c, 0, 84, 0
1, 156720, Note_on_c, 0, 83, 80
1, 157175, Note_on_c, 0, 83, 0
1, 157200, Note_on_c, 0, 83, 80
1, 157427, Note_on_c, 0, 83, 0
1, 157920, Note_on_c, 0, 84, 80
1, 158147, Note_on_c, 0, 84, 0
1, 158160, Note_on_c, 0, 84, 80
1, 158387, Note_on_c, 0, 84, 0
1, 158400, Note_on_c, 0, 84, 80
1, 158855, Note_on_c, 0, 84, 0
1, 158880, Note_on_c, 0, 84, 80
1, 159107, Note_on_c, 0, 84, 0
1, 159120, Note_on_c, 0, 84, 80
1, 159347, Note_on_c, 0, 84, 0
1, 159360, Note_on_c, 0, 84, 80
1, 159815, Note_on_c, 0, 84, 0
1, 159840, Note_on_c, 0, 84, 80
1, 160067, Note_on_c, 0, 84, 0
1, 160080, Note_on_c, 0, 84, 80
1, 160307, Note_on_c, 0, 84, 0
1, 160320, Note_on_c, 0, 84, 80
1, 160547, Note_on_c, 0, 84, 0
1, 160560, Note_on_c, 0, 83, 80
1, 161015, Note_on_c, 0, 83, 0
1, 161040, Note_on_c, 0, 83, 80
1, 161267, Note_on_c, 0, 83, 0
1, 161760, Note_on_c, 0, 84, 80
1, 161987, Note_on_c, 0, 84, 0
1, 162000, Note_on_c, 0, 84, 80
1, 162227, Note_on_c, 0, 84, 0
1, 162240, Note_on_c, 0, 84, 80
1, 162695, Note_on_c, 0, 84, 0
1, 162720, Note_on_c, 0, 84, 80
1, 162947, Note_on_c, 0, 84, 0
1, 162960, Note_on_c, 0, 84, 80
1, 163187, Note_on_c, 0, 84, 0
1, 163200, Note_on_c, 0, 84, 80
1, 163655, Note_on_c, 0, 84, 0
1, 163680, Note_on_c, 0, 84, 80
1, 163907, Note_on_c, 0, 84, 0
1, 163920, Note_on_c, 0, 84, 80
1, 164147, Note_on_c, 0, 84, 0
1, 164160, Note_on_c, 0, 84, 80
1, 164387, Note_on_c, 0, 84, 0
1, 164400, Note_on_c, 0, 83, 80
1, 164855, Note_on_c, 0, 83, 0
1, 164880, Note_on_c, 0, 83, 80
1, 165107, Note_on_c, 0, 83, 0
1, 165600, Note_on_c, 0, 84, 80
1, 165827, Note_on_c, 0, 84, 0
1, 165840, Note_on_c, 0, 84, 80
1, 166067, Note_on_c, 0, 84, 0
1, 166080, Note_on_c, 0, 84, 80
1, 166535, Note_on_c, 0, 84, 0
1, 166560, Note_on_c, 0, 84, 80
1, 166787, Note_on_c, 0, 84, 0
1, 166800, Note_on_c, 0, 84, 80
1, 167027, Note_on_c, 0, 84, 0
1, 167040, Note_on_c, 0, 84, 80
1, 167495, Note_on_c, 0, 84, 0
1, 167520, Note_on_c, 0, 84, 80
1, 167747, Note_on_c, 0, 84, 0
1, 167760, Note_on_c, 0, 84, 80
1, 167987, Note_on_c, 0, 84, 0
1, 168000, Note_on_c, 0, 83, 80
1, 168227, Note_on_c, 0, 83, 0
1, 168240, Note_on_c, 0, 83, 80
1, 168695, Note_on_c, 0, 83, 0
1, 168720, Note_on_c, 0, 83, 80
1, 168947, Note_on_c, 0, 83, 0
1, 168960, Note_on_c, 0, 72, 80
1, 169871, Note_on_c, 0, 72, 0
1, 169920, Note_on_c, 0, 76, 80
1, 170375, Note_on_c, 0, 76, 0
1, 170400, Note_on_c, 0, 79, 80
1, 170855, Note_on_c, 0, 79, 0
1, 170880, Note_on_c, 0, 76, 80
1, 171335, Note_on_c, 0, 76, 0
1, 171600, Note_on_c, 0, 72, 80
1, 172055, Note_on_c, 0, 72, 0
1, 172320, Note_on_c, 0, 79, 80
1, 173231, Note_on_c, 0, 79, 0
1, 173280, Note_on_c, 0, 76, 80
1, 173735, Note_on_c, 0, 76, 0
1, 174240, Note_on_c, 0, 72, 80
1, 174695, Note_on_c, 0, 72, 0
1, 174720, Note_on_c, 0, 72, 80
1, 174720, Note_on_c, 0, 76, 80
1, 175175, Note_on_c, 0, 72, 0
1, 175175, Note_on_c, 0, 76, 0
1, 175200, Note_on_c, 0, 67, 80
1, 175200, Note_on_c, 0, 72, 80
1, 175655, Note_on_c, 0, 67, 0
1, 175655, Note_on_c, 0, 72, 0
1, 175680, Note_on_c, 0, 72, 80
1, 175680, Note_on_c, 0, 76, 80
1, 175919, Note_on_c, 0, 72, 0
1, 175919, Note_on_c, 0, 76, 0
1, 176160, Note_on_c, 0, 67, 80
1, 176160, Note_on_c, 0, 72, 80
1, 176615, Note_on_c, 0, 67, 0
1, 176615, Note_on_c, 0, 72, 0
1, 176640, Note_on_c, 0, 67, 80
1, 176640, Note_on_c, 0, 71, 80
1, 177323, Note_on_c, 0, 67, 0
1, 177323, Note_on_c, 0, 71, 0
1, 177360, Note_on_c, 0, 64, 80
1, 177360, Note_on_c, 0, 69, 80
1, 177587, Note_on_c, 0, 64, 0
1, 177587, Note_on_c, 0, 69, 0
1, 178800, Note_on_c, 0, 72, 80
1, 179027, Note_on_c, 0, 72, 0
1, 179040, Note_on_c, 0, 72, 80
1, 179267, Note_on_c, 0, 72, 0
1, 179280, Note_on_c, 0, 72, 80
1, 179507, Note_on_c, 0, 72, 0
1, 179520, Note_on_c, 0, 72, 80
1, 179975, Note_on_c, 0, 72, 0
1, 180000, Note_on_c, 0, 72, 80
1, 180227, Note_on_c, 0, 72, 0
1, 180240, Note_on_c, 0, 71, 80
1, 180695, Note_on_c, 0, 71, 0
1, 180720, Note_on_c, 0, 67, 80
1, 181079, Note_on_c, 0, 67, 0
1, 184320, Note_on_c, 0, 72, 80
1, 185231, Note_on_c, 0, 72, 0
1, 185280, Note_on_c, 0, 76, 80
1, 185735, Note_on_c, 0, 76, 0
1, 185760, Note_on_c, 0, 79, 80
1, 186215, Note_on_c, 0, 79, 0
1, 186240, Note_on_c, 0, 76, 80
1, 186695, Note_on_c, 0, 76, 0
1, 186960, Note_on_c, 0, 72, 80
1, 187415, Note_on_c, 0, 72, 0
1, 187680, Note_on_c, 0, 83, 80
1, 188591, Note_on_c, 0, 83, 0
1, 188640, Note_on_c, 0, 81, 80
1, 189095, Note_on_c, 0, 81, 0
1, 189600, Note_on_c, 0, 76, 80
1, 190055, Note_on_c, 0, 76, 0
1, 190080, Note_on_c, 0, 76, 80
1, 190080, Note_on_c, 0, 79, 80
1, 190535, Note_on_c, 0, 76, 0
1, 190535, Note_on_c, 0, 79, 0
1, 190560, Note_on_c, 0, 72, 80
1, 190560, Note_on_c, 0, 76, 80
1, 191015, Note_on_c, 0, 72, 0
1, 191015, Note_on_c, 0, 76, 0
1, 191040, Note_on_c, 0, 76, 80
1, 191040, Note_on_c, 0, 79, 80
1, 191495, Note_on_c, 0, 76, 0
1, 191495, Note_on_c, 0, 79, 0
1, 191520, Note_on_c, 0, 72, 80
1, 191520, Note_on_c, 0, 76, 80
1, 191975, Note_on_c, 0, 72, 0
1, 191975, Note_on_c, 0, 76, 0
1, 192000, Note_on_c, 0, 76, 80
1, 192000, Note_on_c, 0, 83, 80
1, 192683, Note_on_c, 0, 76, 0
1, 192683, Note_on_c, 0, 83, 0
1, 192720, Note_on_c, 0, 76, 80
1, 192720, Note_on_c, 0, 81, 80
1, 193403, Note_on_c, 0, 76, 0
1, 193403, Note_on_c, 0, 81, 0
1, 194160, Note_on_c, 0, 76, 80
1, 194387, Note_on_c, 0, 76, 0
1, 194400, Note_on_c, 0, 76, 80
1, 194627, Note_on_c, 0, 76, 0
1, 194640, Note_on_c, 0, 76, 80
1, 194867, Note_on_c, 0, 76, 0
1, 194880, Note_on_c, 0, 76, 80
1, 195335, Note_on_c, 0, 76, 0
1, 195360, Note_on_c, 0, 76, 80
1, 195587, Note_on_c, 0, 76, 0
1, 195600, Note_on_c, 0, 72, 80
1, 195827, Note_on_c, 0, 72, 0
1, 196080, Note_on_c, 0, 71, 80
1, 196439, Note_on_c, 0, 71, 0
1, 198000, Note_on_c, 0, 79, 80
1, 198455, Note_on_c, 0, 79, 0
1, 198480, Note_on_c, 0, 76, 80
1, 198935, Note_on_c, 0, 76, 0
1, 198960, Note_on_c, 0, 76, 80
1, 199415, Note_on_c, 0, 76, 0
1, 199440, Note_on_c, 0, 74, 80
1, 199667, Note_on_c, 0, 74, 0
1, 199680, Note_on_c, 0, 72, 80
1, 200135, Note_on_c, 0, 72, 0
1, 200160, Note_on_c, 0, 72, 80
1, 201527, Note_on_c, 0, 72, 0
1, 201840, Note_on_c, 0, 79, 80
1, 202295, Note_on_c, 0, 79, 0
1, 202320, Note_on_c, 0, 76, 80
1, 202775, Note_on_c, 0, 76, 0
1, 202800, Note_on_c, 0, 76, 80
1, 203255, Note_on_c, 0, 76, 0
1, 203280, Note_on_c, 0, 74, 80
1, 203507, Note_on_c, 0, 74, 0
1, 203520, Note_on_c, 0, 71, 80
1, 203975, Note_on_c, 0, 71, 0
1, 204000, Note_on_c, 0, 71, 80
1, 205367, Note_on_c, 0, 71, 0
1, 205680, Note_on_c, 0, 79, 80
1, 206135, Note_on_c, 0, 79, 0
1, 206160, Note_on_c, 0, 76, 80
1, 206615, Note_on_c, 0, 76, 0
1, 206640, Note_on_c, 0, 76, 80
1, 207095, Note_on_c, 0, 76, 0
1, 207120, Note_on_c, 0, 74, 80
1, 207347, Note_on_c, 0, 74, 0
1, 207360, Note_on_c, 0, 72, 80
1, 207815, Note_on_c, 0, 72, 0
1, 207840, Note_on_c, 0, 72, 80
1, 209207, Note_on_c, 0, 72, 0
1, 209520, Note_on_c, 0, 79, 80
1, 209975, Note_on_c, 0, 79, 0
1, 210000, Note_on_c, 0, 76, 80
1, 210455, Note_on_c, 0, 76, 0
1, 210480, Note_on_c, 0, 76, 80
1, 210935, Note_on_c, 0, 76, 0
1, 210960, Note_on_c, 0, 74, 80
1, 211187, Note_on_c, 0, 74, 0
1, 211200, Note_on_c, 0, 71, 80
1, 211655, Note_on_c, 0, 71, 0
1, 211680, Note_on_c, 0, 71, 80
1, 212135, Note_on_c, 0, 71, 0
1, 213360, Note_on_c, 0, 79, 80
1, 213815, Note_on_c, 0, 79, 0
1, 213840, Note_on_c, 0, 76, 80
1, 214295, Note_on_c, 0, 76, 0
1, 214320, Note_on_c, 0, 76, 80
1, 214775, Note_on_c, 0, 76, 0
1, 214800, Note_on_c, 0, 74, 80
1, 215027, Note_on_c, 0, 74, 0
1, 215040, Note_on_c, 0, 72, 80
1, 215495, Note_on_c, 0, 72, 0
1, 215520, Note_on_c, 0, 72, 80
1, 215975, Note_on_c, 0, 72, 0
1, 217200, Note_on_c, 0, 79, 80
1, 217655, Note_on_c, 0, 79, 0
1, 217680, Note_on_c, 0, 76, 80
1, 218135, Note_on_c, 0, 76, 0
1, 218160, Note_on_c, 0, 76, 80
1, 218615, Note_on_c, 0, 76, 0
1, 218640, Note_on_c, 0, 74, 80
1, 218867, Note_on_c, 0, 74, 0
1, 218880, Note_on_c, 0, 71, 80
1, 219335, Note_on_c, 0, 71, 0
1, 219360, Note_on_c, 0, 71, 80
1, 219815, Note_on_c, 0, 71, 0
1, 220800, Note_on_c, 0, 71, 80
1, 221255, Note_on_c, 0, 71, 0
1, 221280, Note_on_c, 0, 72, 80
1, 221507, Note_on_c, 0, 72, 0
1, 221520, Note_on_c, 0, 72, 80
1, 221747, Note_on_c, 0, 72, 0
1, 221748, End_track
2, 0, Start_track
2, 0, Title_t, "Piano, Piano, Piano\000"
2, 0, Key_signature, 0, "major"
2, 0, MIDI_port, 0
2, 0, Note_on_c, 0, 55, 80
2, 0, Note_on_c, 0, 60, 80
2, 0, Note_on_c, 0, 64, 80
2, 911, Note_on_c, 0, 55, 0
2, 911, Note_on_c, 0, 60, 0
2, 911, Note_on_c, 0, 64, 0
2, 960, Note_on_c, 0, 55, 80
2, 960, Note_on_c, 0, 60, 80
2, 960, Note_on_c, 0, 64, 80
2, 1871, Note_on_c, 0, 55, 0
2, 1871, Note_on_c, 0, 60, 0
2, 1871, Note_on_c, 0, 64, 0
2, 1920, Note_on_c, 0, 55, 80
2, 1920, Note_on_c, 0, 60, 80
2, 1920, Note_on_c, 0, 64, 80
2, 2831, Note_on_c, 0, 55, 0
2, 2831, Note_on_c, 0, 60, 0
2, 2831, Note_on_c, 0, 64, 0
2, 2880, Note_on_c, 0, 55, 80
2, 2880, Note_on_c, 0, 60, 80
2, 2880, Note_on_c, 0, 64, 80
2, 3791, Note_on_c, 0, 55, 0
2, 3791, Note_on_c, 0, 60, 0
2, 3791, Note_on_c, 0, 64, 0
2, 3840, Note_on_c, 0, 57, 80
2, 3840, Note_on_c, 0, 60, 80
2, 3840, Note_on_c, 0, 64, 80
2, 4751, Note_on_c, 0, 57, 0
2, 4751, Note_on_c, 0, 60, 0
2, 4751, Note_on_c, 0, 64, 0
2, 4800, Note_on_c, 0, 57, 80
2, 4800, Note_on_c, 0, 60, 80
2, 4800, Note_on_c, 0, 64, 80
2, 5711, Note_on_c, 0, 57, 0
2, 5711, Note_on_c, 0, 60, 0
2, 5711, Note_on_c, 0, 64, 0
2, 5760, Note_on_c, 0, 57, 80
2, 5760, Note_on_c, 0, 60, 80
2, 5760, Note_on_c, 0, 64, 80
2, 6671, Note_on_c, 0, 57, 0
2, 6671, Note_on_c, 0, 60, 0
2, 6671, Note_on_c, 0, 64, 0
2, 6720, Note_on_c, 0, 57, 80
2, 6720, Note_on_c, 0, 60, 80
2, 6720, Note_on_c, 0, 64, 80
2, 7631, Note_on_c, 0, 57, 0
2, 7631, Note_on_c, 0, 60, 0
2, 7631, Note_on_c, 0, 64, 0
2, 7680, Note_on_c, 0, 55, 80
2, 7680, Note_on_c, 0, 60, 80
2, 7680, Note_on_c, 0, 64, 80
2, 8591, Note_on_c, 0, 55, 0
2, 8591, Note_on_c, 0, 60, 0
2, 8591, Note_on_c, 0, 64, 0
2, 8640, Note_on_c, 0, 55, 80
2, 8640, Note_on_c, 0, 60, 80
2, 8640, Note_on_c, 0, 64, 80
2, 9551, Note_on_c, 0, 55, 0
2, 9551, Note_on_c, 0, 60, 0
2, 9551, Note_on_c, 0, 64, 0
2, 9600, Note_on_c, 0, 55, 80
2, 9600, Note_on_c, 0, 60, 80
2, 9600, Note_on_c, 0, 64, 80
2, 10511, Note_on_c, 0, 55, 0
2, 10511, Note_on_c, 0, 60, 0
2, 10511, Note_on_c, 0, 64, 0
2, 10560, Note_on_c, 0, 55, 80
2, 10560, Note_on_c, 0, 60, 80
2, 10560, Note_on_c, 0, 64, 80
2, 11471, Note_on_c, 0, 55, 0
2, 11471, Note_on_c, 0, 60, 0
2, 11471, Note_on_c, 0, 64, 0
2, 11520, Note_on_c, 0, 57, 80
2, 11520, Note_on_c, 0, 60, 80
2, 11520, Note_on_c, 0, 64, 80
2, 12431, Note_on_c, 0, 57, 0
2, 12431, Note_on_c, 0, 60, 0
2, 12431, Note_on_c, 0, 64, 0
2, 12480, Note_on_c, 0, 57, 80
2, 12480, Note_on_c, 0, 60, 80
2, 12480, Note_on_c, 0, 64, 80
2, 13391, Note_on_c, 0, 57, 0
2, 13391, Note_on_c, 0, 60, 0
2, 13391, Note_on_c, 0, 64, 0
2, 13440, Note_on_c, 0, 57, 80
2, 13440, Note_on_c, 0, 60, 80
2, 13440, Note_on_c, 0, 64, 80
2, 14351, Note_on_c, 0, 57, 0
2, 14351, Note_on_c, 0, 60, 0
2, 14351, Note_on_c, 0, 64, 0
2, 14400, Note_on_c, 0, 64, 80
2, 14400, Note_on_c, 0, 57, 80
2, 14400, Note_on_c, 0, 60, 80
2, 14855, Note_on_c, 0, 64, 0
2, 15311, Note_on_c, 0, 57, 0
2, 15311, Note_on_c, 0, 60, 0
2, 15360, Note_on_c, 0, 55, 80
2, 15360, Note_on_c, 0, 60, 80
2, 15360, Note_on_c, 0, 64, 80
2, 16271, Note_on_c, 0, 55, 0
2, 16271, Note_on_c, 0, 60, 0
2, 16271, Note_on_c, 0, 64, 0
2, 16320, Note_on_c, 0, 55, 80
2, 16320, Note_on_c, 0, 60, 80
2, 16320, Note_on_c, 0, 64, 80
2, 17231, Note_on_c, 0, 55, 0
2, 17231, Note_on_c, 0, 60, 0
2, 17231, Note_on_c, 0, 64, 0
2, 17280, Note_on_c, 0, 55, 80
2, 17280, Note_on_c, 0, 60, 80
2, 17280, Note_on_c, 0, 64, 80
2, 18191, Note_on_c, 0, 55, 0
2, 18191, Note_on_c, 0, 60, 0
2, 18191, Note_on_c, 0, 64, 0
2, 18240, Note_on_c, 0, 55, 80
2, 18240, Note_on_c, 0, 60, 80
2, 18240, Note_on_c, 0, 64, 80
2, 19151, Note_on_c, 0, 55, 0
2, 19151, Note_on_c, 0, 60, 0
2, 19151, Note_on_c, 0, 64, 0
2, 19200, Note_on_c, 0, 57, 80
2, 19200, Note_on_c, 0, 60, 80
2, 19200, Note_on_c, 0, 64, 80
2, 20111, Note_on_c, 0, 57, 0
2, 20111, Note_on_c, 0, 60, 0
2, 20111, Note_on_c, 0, 64, 0
2, 20160, Note_on_c, 0, 57, 80
2, 20160, Note_on_c, 0, 60, 80
2, 20160, Note_on_c, 0, 64, 80
2, 21071, Note_on_c, 0, 57, 0
2, 21071, Note_on_c, 0, 60, 0
2, 21071, Note_on_c, 0, 64, 0
2, 21120, Note_on_c, 0, 57, 80
2, 21120, Note_on_c, 0, 60, 80
2, 21120, Note_on_c, 0, 64, 80
2, 22031, Note_on_c, 0, 57, 0
2, 22031, Note_on_c, 0, 60, 0
2, 22031, Note_on_c, 0, 64, 0
2, 22080, Note_on_c, 0, 57, 80
2, 22080, Note_on_c, 0, 60, 80
2, 22080, Note_on_c, 0, 64, 80
2, 22991, Note_on_c, 0, 57, 0
2, 22991, Note_on_c, 0, 60, 0
2, 22991, Note_on_c, 0, 64, 0
2, 23040, Note_on_c, 0, 55, 80
2, 23040, Note_on_c, 0, 60, 80
2, 23040, Note_on_c, 0, 64, 80
2, 23951, Note_on_c, 0, 55, 0
2, 23951, Note_on_c, 0, 60, 0
2, 23951, Note_on_c, 0, 64, 0
2, 24000, Note_on_c, 0, 55, 80
2, 24000, Note_on_c, 0, 60, 80
2, 24000, Note_on_c, 0, 64, 80
2, 24911, Note_on_c, 0, 55, 0
2, 24911, Note_on_c, 0, 60, 0
2, 24911, Note_on_c, 0, 64, 0
2, 24960, Note_on_c, 0, 55, 80
2, 24960, Note_on_c, 0, 60, 80
2, 24960, Note_on_c, 0, 64, 80
2, 25871, Note_on_c, 0, 55, 0
2, 25871, Note_on_c, 0, 60, 0
2, 25871, Note_on_c, 0, 64, 0
2, 25920, Note_on_c, 0, 55, 80
2, 25920, Note_on_c, 0, 60, 80
2, 25920, Note_on_c, 0, 64, 80
2, 26831, Note_on_c, 0, 55, 0
2, 26831, Note_on_c, 0, 60, 0
2, 26831, Note_on_c, 0, 64, 0
2, 26880, Note_on_c, 0, 57, 80
2, 26880, Note_on_c, 0, 60, 80
2, 26880, Note_on_c, 0, 64, 80
2, 27791, Note_on_c, 0, 57, 0
2, 27791, Note_on_c, 0, 60, 0
2, 27791, Note_on_c, 0, 64, 0
2, 27840, Note_on_c, 0, 57, 80
2, 27840, Note_on_c, 0, 60, 80
2, 27840, Note_on_c, 0, 64, 80
2, 28751, Note_on_c, 0, 57, 0
2, 28751, Note_on_c, 0, 60, 0
2, 28751, Note_on_c, 0, 64, 0
2, 28800, Note_on_c, 0, 57, 80
2, 28800, Note_on_c, 0, 60, 80
2, 28800, Note_on_c, 0, 64, 80
2, 29711, Note_on_c, 0, 57, 0
2, 29711, Note_on_c, 0, 60, 0
2, 29711, Note_on_c, 0, 64, 0
2, 29760, Note_on_c, 0, 64, 80
2, 29760, Note_on_c, 0, 57, 80
2, 29760, Note_on_c, 0, 60, 80
2, 30215, Note_on_c, 0, 64, 0
2, 30671, Note_on_c, 0, 57, 0
2, 30671, Note_on_c, 0, 60, 0
2, 30720, Note_on_c, 0, 55, 80
2, 30720, Note_on_c, 0, 60, 80
2, 30720, Note_on_c, 0, 64, 80
2, 31440, Note_on_c, 0, 64, 0
2, 31631, Note_on_c, 0, 55, 0
2, 31631, Note_on_c, 0, 60, 0
2, 31680, Note_on_c, 0, 55, 80
2, 31680, Note_on_c, 0, 60, 80
2, 31680, Note_on_c, 0, 64, 80
2, 32591, Note_on_c, 0, 55, 0
2, 32591, Note_on_c, 0, 60, 0
2, 32591, Note_on_c, 0, 64, 0
2, 32640, Note_on_c, 0, 55, 80
2, 32640, Note_on_c, 0, 60, 80
2, 32640, Note_on_c, 0, 64, 80
2, 33551, Note_on_c, 0, 55, 0
2, 33551, Note_on_c, 0, 60, 0
2, 33551, Note_on_c, 0, 64, 0
2, 33600, Note_on_c, 0, 55, 80
2, 33600, Note_on_c, 0, 60, 80
2, 33600, Note_on_c, 0, 64, 80
2, 34511, Note_on_c, 0, 55, 0
2, 34511, Note_on_c, 0, 60, 0
2, 34511, Note_on_c, 0, 64, 0
2, 34560, Note_on_c, 0, 57, 80
2, 34560, Note_on_c, 0, 60, 80
2, 34560, Note_on_c, 0, 64, 80
2, 35471, Note_on_c, 0, 57, 0
2, 35471, Note_on_c, 0, 60, 0
2, 35471, Note_on_c, 0, 64, 0
2, 35520, Note_on_c, 0, 57, 80
2, 35520, Note_on_c, 0, 60, 80
2, 35520, Note_on_c, 0, 64, 80
2, 36431, Note_on_c, 0, 57, 0
2, 36431, Note_on_c, 0, 60, 0
2, 36431, Note_on_c, 0, 64, 0
2, 36480, Note_on_c, 0, 57, 80
2, 36480, Note_on_c, 0, 60, 80
2, 36480, Note_on_c, 0, 64, 80
2, 37391, Note_on_c, 0, 57, 0
2, 37391, Note_on_c, 0, 60, 0
2, 37391, Note_on_c, 0, 64, 0
2, 37440, Note_on_c, 0, 57, 80
2, 37440, Note_on_c, 0, 60, 80
2, 37440, Note_on_c, 0, 64, 80
2, 38351, Note_on_c, 0, 57, 0
2, 38351, Note_on_c, 0, 60, 0
2, 38351, Note_on_c, 0, 64, 0
2, 38400, Note_on_c, 0, 55, 80
2, 38400, Note_on_c, 0, 60, 80
2, 38400, Note_on_c, 0, 64, 80
2, 39311, Note_on_c, 0, 55, 0
2, 39311, Note_on_c, 0, 60, 0
2, 39311, Note_on_c, 0, 64, 0
2, 39360, Note_on_c, 0, 55, 80
2, 39360, Note_on_c, 0, 60, 80
2, 39360, Note_on_c, 0, 64, 80
2, 40271, Note_on_c, 0, 55, 0
2, 40271, Note_on_c, 0, 60, 0
2, 40271, Note_on_c, 0, 64, 0
2, 40320, Note_on_c, 0, 55, 80
2, 40320, Note_on_c, 0, 60, 80
2, 40320, Note_on_c, 0, 64, 80
2, 41231, Note_on_c, 0, 55, 0
2, 41231, Note_on_c, 0, 60, 0
2, 41231, Note_on_c, 0, 64, 0
2, 41280, Note_on_c, 0, 55, 80
2, 41280, Note_on_c, 0, 60, 80
2, 41280, Note_on_c, 0, 64, 80
2, 42191, Note_on_c, 0, 55, 0
2, 42191, Note_on_c, 0, 60, 0
2, 42191, Note_on_c, 0, 64, 0
2, 42240, Note_on_c, 0, 57, 80
2, 42240, Note_on_c, 0, 60, 80
2, 42240, Note_on_c, 0, 64, 80
2, 43151, Note_on_c, 0, 57, 0
2, 43151, Note_on_c, 0, 60, 0
2, 43151, Note_on_c, 0, 64, 0
2, 43200, Note_on_c, 0, 57, 80
2, 43200, Note_on_c, 0, 60, 80
2, 43200, Note_on_c, 0, 64, 80
2, 44111, Note_on_c, 0, 57, 0
2, 44111, Note_on_c, 0, 60, 0
2, 44111, Note_on_c, 0, 64, 0
2, 44160, Note_on_c, 0, 57, 80
2, 44160, Note_on_c, 0, 60, 80
2, 44160, Note_on_c, 0, 64, 80
2, 45071, Note_on_c, 0, 57, 0
2, 45071, Note_on_c, 0, 60, 0
2, 45071, Note_on_c, 0, 64, 0
2, 45120, Note_on_c, 0, 57, 80
2, 45120, Note_on_c, 0, 60, 80
2, 45120, Note_on_c, 0, 64, 80
2, 46031, Note_on_c, 0, 57, 0
2, 46031, Note_on_c, 0, 60, 0
2, 46031, Note_on_c, 0, 64, 0
2, 46080, Note_on_c, 0, 55, 80
2, 46080, Note_on_c, 0, 60, 80
2, 46080, Note_on_c, 0, 64, 80
2, 46991, Note_on_c, 0, 55, 0
2, 46991, Note_on_c, 0, 60, 0
2, 46991, Note_on_c, 0, 64, 0
2, 47040, Note_on_c, 0, 55, 80
2, 47040, Note_on_c, 0, 60, 80
2, 47040, Note_on_c, 0, 64, 80
2, 47951, Note_on_c, 0, 55, 0
2, 47951, Note_on_c, 0, 60, 0
2, 47951, Note_on_c, 0, 64, 0
2, 48000, Note_on_c, 0, 55, 80
2, 48000, Note_on_c, 0, 60, 80
2, 48000, Note_on_c, 0, 64, 80
2, 48911, Note_on_c, 0, 55, 0
2, 48911, Note_on_c, 0, 60, 0
2, 48911, Note_on_c, 0, 64, 0
2, 48960, Note_on_c, 0, 55, 80
2, 48960, Note_on_c, 0, 60, 80
2, 48960, Note_on_c, 0, 64, 80
2, 49871, Note_on_c, 0, 55, 0
2, 49871, Note_on_c, 0, 60, 0
2, 49871, Note_on_c, 0, 64, 0
2, 49920, Note_on_c, 0, 57, 80
2, 49920, Note_on_c, 0, 60, 80
2, 49920, Note_on_c, 0, 64, 80
2, 50831, Note_on_c, 0, 57, 0
2, 50831, Note_on_c, 0, 60, 0
2, 50831, Note_on_c, 0, 64, 0
2, 50880, Note_on_c, 0, 57, 80
2, 50880, Note_on_c, 0, 60, 80
2, 50880, Note_on_c, 0, 64, 80
2, 51791, Note_on_c, 0, 57, 0
2, 51791, Note_on_c, 0, 60, 0
2, 51791, Note_on_c, 0, 64, 0
2, 51840, Note_on_c, 0, 57, 80
2, 51840, Note_on_c, 0, 60, 80
2, 51840, Note_on_c, 0, 64, 80
2, 52751, Note_on_c, 0, 57, 0
2, 52751, Note_on_c, 0, 60, 0
2, 52751, Note_on_c, 0, 64, 0
2, 52800, Note_on_c, 0, 57, 80
2, 52800, Note_on_c, 0, 60, 80
2, 52800, Note_on_c, 0, 64, 80
2, 53711, Note_on_c, 0, 57, 0
2, 53711, Note_on_c, 0, 60, 0
2, 53711, Note_on_c, 0, 64, 0
2, 53760, Note_on_c, 0, 55, 80
2, 53760, Note_on_c, 0, 60, 80
2, 53760, Note_on_c, 0, 64, 80
2, 54671, Note_on_c, 0, 55, 0
2, 54671, Note_on_c, 0, 60, 0
2, 54671, Note_on_c, 0, 64, 0
2, 54720, Note_on_c, 0, 55, 80
2, 54720, Note_on_c, 0, 60, 80
2, 54720, Note_on_c, 0, 64, 80
2, 55631, Note_on_c, 0, 55, 0
2, 55631, Note_on_c, 0, 60, 0
2, 55631, Note_on_c, 0, 64, 0
2, 55680, Note_on_c, 0, 55, 80
2, 55680, Note_on_c, 0, 60, 80
2, 55680, Note_on_c, 0, 64, 80
2, 56591, Note_on_c, 0, 55, 0
2, 56591, Note_on_c, 0, 60, 0
2, 56591, Note_on_c, 0, 64, 0
2, 56640, Note_on_c, 0, 55, 80
2, 56640, Note_on_c, 0, 60, 80
2, 56640, Note_on_c, 0, 64, 80
2, 57551, Note_on_c, 0, 55, 0
2, 57551, Note_on_c, 0, 60, 0
2, 57551, Note_on_c, 0, 64, 0
2, 57600, Note_on_c, 0, 57, 80
2, 57600, Note_on_c, 0, 60, 80
2, 57600, Note_on_c, 0, 64, 80
2, 58511, Note_on_c, 0, 57, 0
2, 58511, Note_on_c, 0, 60, 0
2, 58511, Note_on_c, 0, 64, 0
2, 58560, Note_on_c, 0, 57, 80
2, 58560, Note_on_c, 0, 60, 80
2, 58560, Note_on_c, 0, 64, 80
2, 59471, Note_on_c, 0, 57, 0
2, 59471, Note_on_c, 0, 60, 0
2, 59471, Note_on_c, 0, 64, 0
2, 59520, Note_on_c, 0, 57, 80
2, 59520, Note_on_c, 0, 60, 80
2, 59520, Note_on_c, 0, 64, 80
2, 60431, Note_on_c, 0, 57, 0
2, 60431, Note_on_c, 0, 60, 0
2, 60431, Note_on_c, 0, 64, 0
2, 60480, Note_on_c, 0, 57, 80
2, 60480, Note_on_c, 0, 60, 80
2, 60480, Note_on_c, 0, 64, 80
2, 61391, Note_on_c, 0, 57, 0
2, 61391, Note_on_c, 0, 60, 0
2, 61391, Note_on_c, 0, 64, 0
2, 61440, Note_on_c, 0, 55, 80
2, 61440, Note_on_c, 0, 60, 80
2, 61440, Note_on_c, 0, 64, 80
2, 61895, Note_on_c, 0, 55, 0
2, 61895, Note_on_c, 0, 60, 0
2, 61895, Note_on_c, 0, 64, 0
2, 61920, Note_on_c, 0, 60, 80
2, 62375, Note_on_c, 0, 60, 0
2, 62400, Note_on_c, 0, 55, 80
2, 62400, Note_on_c, 0, 60, 80
2, 62400, Note_on_c, 0, 64, 80
2, 62855, Note_on_c, 0, 55, 0
2, 62855, Note_on_c, 0, 60, 0
2, 62855, Note_on_c, 0, 64, 0
2, 62880, Note_on_c, 0, 60, 80
2, 63335, Note_on_c, 0, 60, 0
2, 63360, Note_on_c, 0, 55, 80
2, 63360, Note_on_c, 0, 60, 80
2, 63360, Note_on_c, 0, 64, 80
2, 63815, Note_on_c, 0, 55, 0
2, 63815, Note_on_c, 0, 60, 0
2, 63815, Note_on_c, 0, 64, 0
2, 63840, Note_on_c, 0, 60, 80
2, 64295, Note_on_c, 0, 60, 0
2, 64320, Note_on_c, 0, 55, 80
2, 64320, Note_on_c, 0, 60, 80
2, 64320, Note_on_c, 0, 64, 80
2, 64775, Note_on_c, 0, 55, 0
2, 64775, Note_on_c, 0, 60, 0
2, 64775, Note_on_c, 0, 64, 0
2, 64800, Note_on_c, 0, 60, 80
2, 65255, Note_on_c, 0, 60, 0
2, 65280, Note_on_c, 0, 55, 80
2, 65280, Note_on_c, 0, 60, 80
2, 65280, Note_on_c, 0, 64, 80
2, 65735, Note_on_c, 0, 55, 0
2, 65735, Note_on_c, 0, 60, 0
2, 65735, Note_on_c, 0, 64, 0
2, 65760, Note_on_c, 0, 60, 80
2, 66215, Note_on_c, 0, 60, 0
2, 66240, Note_on_c, 0, 55, 80
2, 66240, Note_on_c, 0, 60, 80
2, 66240, Note_on_c, 0, 64, 80
2, 66695, Note_on_c, 0, 55, 0
2, 66695, Note_on_c, 0, 60, 0
2, 66695, Note_on_c, 0, 64, 0
2, 66720, Note_on_c, 0, 60, 80
2, 67175, Note_on_c, 0, 60, 0
2, 67200, Note_on_c, 0, 55, 80
2, 67200, Note_on_c, 0, 60, 80
2, 67200, Note_on_c, 0, 64, 80
2, 68111, Note_on_c, 0, 55, 0
2, 68111, Note_on_c, 0, 60, 0
2, 68111, Note_on_c, 0, 64, 0
2, 68160, Note_on_c, 0, 55, 80
2, 68160, Note_on_c, 0, 60, 80
2, 68160, Note_on_c, 0, 64, 80
2, 69071, Note_on_c, 0, 55, 0
2, 69071, Note_on_c, 0, 60, 0
2, 69071, Note_on_c, 0, 64, 0
2, 69120, Note_on_c, 0, 57, 80
2, 69120, Note_on_c, 0, 60, 80
2, 69120, Note_on_c, 0, 64, 80
2, 69840, Note_on_c, 0, 64, 0
2, 70031, Note_on_c, 0, 57, 0
2, 70031, Note_on_c, 0, 60, 0
2, 70080, Note_on_c, 0, 57, 80
2, 70080, Note_on_c, 0, 60, 80
2, 70080, Note_on_c, 0, 64, 80
2, 70991, Note_on_c, 0, 57, 0
2, 70991, Note_on_c, 0, 60, 0
2, 70991, Note_on_c, 0, 64, 0
2, 71040, Note_on_c, 0, 57, 80
2, 71040, Note_on_c, 0, 60, 80
2, 71040, Note_on_c, 0, 64, 80
2, 71495, Note_on_c, 0, 57, 0
2, 71495, Note_on_c, 0, 60, 0
2, 71495, Note_on_c, 0, 64, 0
2, 71520, Note_on_c, 0, 57, 80
2, 71975, Note_on_c, 0, 57, 0
2, 72000, Note_on_c, 0, 57, 80
2, 72000, Note_on_c, 0, 60, 80
2, 72000, Note_on_c, 0, 64, 80
2, 72455, Note_on_c, 0, 57, 0
2, 72455, Note_on_c, 0, 60, 0
2, 72455, Note_on_c, 0, 64, 0
2, 72480, Note_on_c, 0, 57, 80
2, 72935, Note_on_c, 0, 57, 0
2, 72960, Note_on_c, 0, 57, 80
2, 72960, Note_on_c, 0, 60, 80
2, 72960, Note_on_c, 0, 64, 80
2, 73415, Note_on_c, 0, 57, 0
2, 73415, Note_on_c, 0, 60, 0
2, 73415, Note_on_c, 0, 64, 0
2, 73440, Note_on_c, 0, 57, 80
2, 73895, Note_on_c, 0, 57, 0
2, 73920, Note_on_c, 0, 57, 80
2, 73920, Note_on_c, 0, 60, 80
2, 73920, Note_on_c, 0, 64, 80
2, 74375, Note_on_c, 0, 57, 0
2, 74375, Note_on_c, 0, 60, 0
2, 74375, Note_on_c, 0, 64, 0
2, 74400, Note_on_c, 0, 57, 80
2, 74855, Note_on_c, 0, 57, 0
2, 74880, Note_on_c, 0, 57, 80
2, 74880, Note_on_c, 0, 60, 80
2, 74880, Note_on_c, 0, 64, 80
2, 75335, Note_on_c, 0, 57, 0
2, 75335, Note_on_c, 0, 60, 0
2, 75335, Note_on_c, 0, 64, 0
2, 75360, Note_on_c, 0, 57, 80
2, 75815, Note_on_c, 0, 57, 0
2, 75840, Note_on_c, 0, 57, 80
2, 75840, Note_on_c, 0, 60, 80
2, 75840, Note_on_c, 0, 64, 80
2, 76295, Note_on_c, 0, 57, 0
2, 76295, Note_on_c, 0, 60, 0
2, 76295, Note_on_c, 0, 64, 0
2, 76320, Note_on_c, 0, 57, 80
2, 76775, Note_on_c, 0, 57, 0
2, 76800, Note_on_c, 0, 55, 80
2, 76800, Note_on_c, 0, 60, 80
2, 76800, Note_on_c, 0, 64, 80
2, 77255, Note_on_c, 0, 55, 0
2, 77255, Note_on_c, 0, 60, 0
2, 77255, Note_on_c, 0, 64, 0
2, 77280, Note_on_c, 0, 60, 80
2, 77735, Note_on_c, 0, 60, 0
2, 77760, Note_on_c, 0, 55, 80
2, 77760, Note_on_c, 0, 60, 80
2, 77760, Note_on_c, 0, 64, 80
2, 78215, Note_on_c, 0, 55, 0
2, 78215, Note_on_c, 0, 60, 0
2, 78215, Note_on_c, 0, 64, 0
2, 78240, Note_on_c, 0, 60, 80
2, 78695, Note_on_c, 0, 60, 0
2, 78720, Note_on_c, 0, 55, 80
2, 78720, Note_on_c, 0, 60, 80
2, 78720, Note_on_c, 0, 64, 80
2, 79175, Note_on_c, 0, 55, 0
2, 79175, Note_on_c, 0, 60, 0
2, 79175, Note_on_c, 0, 64, 0
2, 79200, Note_on_c, 0, 60, 80
2, 79655, Note_on_c, 0, 60, 0
2, 79680, Note_on_c, 0, 55, 80
2, 79680, Note_on_c, 0, 60, 80
2, 79680, Note_on_c, 0, 64, 80
2, 80135, Note_on_c, 0, 55, 0
2, 80135, Note_on_c, 0, 60, 0
2, 80135, Note_on_c, 0, 64, 0
2, 80160, Note_on_c, 0, 60, 80
2, 80615, Note_on_c, 0, 60, 0
2, 80640, Note_on_c, 0, 55, 80
2, 80640, Note_on_c, 0, 60, 80
2, 80640, Note_on_c, 0, 64, 80
2, 81095, Note_on_c, 0, 55, 0
2, 81095, Note_on_c, 0, 60, 0
2, 81095, Note_on_c, 0, 64, 0
2, 81120, Note_on_c, 0, 60, 80
2, 81575, Note_on_c, 0, 60, 0
2, 81600, Note_on_c, 0, 55, 80
2, 81600, Note_on_c, 0, 60, 80
2, 81600, Note_on_c, 0, 64, 80
2, 82055, Note_on_c, 0, 55, 0
2, 82055, Note_on_c, 0, 60, 0
2, 82055, Note_on_c, 0, 64, 0
2, 82080, Note_on_c, 0, 60, 80
2, 82535, Note_on_c, 0, 60, 0
2, 82560, Note_on_c, 0, 55, 80
2, 82560, Note_on_c, 0, 60, 80
2, 82560, Note_on_c, 0, 64, 80
2, 83471, Note_on_c, 0, 55, 0
2, 83471, Note_on_c, 0, 60, 0
2, 83471, Note_on_c, 0, 64, 0
2, 83520, Note_on_c, 0, 55, 80
2, 83520, Note_on_c, 0, 60, 80
2, 83520, Note_on_c, 0, 64, 80
2, 84431, Note_on_c, 0, 55, 0
2, 84431, Note_on_c, 0, 60, 0
2, 84431, Note_on_c, 0, 64, 0
2, 84480, Note_on_c, 0, 57, 80
2, 84480, Note_on_c, 0, 60, 80
2, 84480, Note_on_c, 0, 64, 80
2, 85391, Note_on_c, 0, 57, 0
2, 85391, Note_on_c, 0, 60, 0
2, 85391, Note_on_c, 0, 64, 0
2, 85440, Note_on_c, 0, 57, 80
2, 85440, Note_on_c, 0, 60, 80
2, 85440, Note_on_c, 0, 64, 80
2, 86351, Note_on_c, 0, 57, 0
2, 86351, Note_on_c, 0, 60, 0
2, 86351, Note_on_c, 0, 64, 0
2, 86400, Note_on_c, 0, 57, 80
2, 86400, Note_on_c, 0, 60, 80
2, 86400, Note_on_c, 0, 64, 80
2, 86855, Note_on_c, 0, 57, 0
2, 86855, Note_on_c, 0, 60, 0
2, 86855, Note_on_c, 0, 64, 0
2, 86880, Note_on_c, 0, 57, 80
2, 87335, Note_on_c, 0, 57, 0
2, 87360, Note_on_c, 0, 57, 80
2, 87360, Note_on_c, 0, 60, 80
2, 87360, Note_on_c, 0, 64, 80
2, 87815, Note_on_c, 0, 57, 0
2, 87815, Note_on_c, 0, 60, 0
2, 87815, Note_on_c, 0, 64, 0
2, 87840, Note_on_c, 0, 57, 80
2, 88295, Note_on_c, 0, 57, 0
2, 88320, Note_on_c, 0, 57, 80
2, 88320, Note_on_c, 0, 60, 80
2, 88320, Note_on_c, 0, 64, 80
2, 88775, Note_on_c, 0, 57, 0
2, 88775, Note_on_c, 0, 60, 0
2, 88775, Note_on_c, 0, 64, 0
2, 88800, Note_on_c, 0, 57, 80
2, 89255, Note_on_c, 0, 57, 0
2, 89280, Note_on_c, 0, 57, 80
2, 89280, Note_on_c, 0, 60, 80
2, 89280, Note_on_c, 0, 64, 80
2, 89735, Note_on_c, 0, 57, 0
2, 89735, Note_on_c, 0, 60, 0
2, 89735, Note_on_c, 0, 64, 0
2, 89760, Note_on_c, 0, 57, 80
2, 90215, Note_on_c, 0, 57, 0
2, 90240, Note_on_c, 0, 55, 80
2, 90240, Note_on_c, 0, 60, 80
2, 90240, Note_on_c, 0, 64, 80
2, 90695, Note_on_c, 0, 55, 0
2, 90695, Note_on_c, 0, 60, 0
2, 90695, Note_on_c, 0, 64, 0
2, 90720, Note_on_c, 0, 55, 80
2, 90947, Note_on_c, 0, 55, 0
2, 90960, Note_on_c, 0, 55, 80
2, 90960, Note_on_c, 0, 59, 80
2, 91415, Note_on_c, 0, 55, 0
2, 91415, Note_on_c, 0, 59, 0
2, 91440, Note_on_c, 0, 55, 80
2, 91440, Note_on_c, 0, 59, 80
2, 92123, Note_on_c, 0, 55, 0
2, 92123, Note_on_c, 0, 59, 0
2, 92160, Note_on_c, 0, 55, 80
2, 92160, Note_on_c, 0, 60, 80
2, 92160, Note_on_c, 0, 64, 80
2, 93071, Note_on_c, 0, 55, 0
2, 93071, Note_on_c, 0, 60, 0
2, 93071, Note_on_c, 0, 64, 0
2, 93120, Note_on_c, 0, 55, 80
2, 93120, Note_on_c, 0, 60, 80
2, 93120, Note_on_c, 0, 64, 80
2, 94031, Note_on_c, 0, 55, 0
2, 94031, Note_on_c, 0, 60, 0
2, 94031, Note_on_c, 0, 64, 0
2, 94080, Note_on_c, 0, 55, 80
2, 94080, Note_on_c, 0, 60, 80
2, 94080, Note_on_c, 0, 64, 80
2, 94991, Note_on_c, 0, 55, 0
2, 94991, Note_on_c, 0, 60, 0
2, 94991, Note_on_c, 0, 64, 0
2, 95040, Note_on_c, 0, 55, 80
2, 95040, Note_on_c, 0, 60, 80
2, 95040, Note_on_c, 0, 64, 80
2, 95951, Note_on_c, 0, 55, 0
2, 95951, Note_on_c, 0, 60, 0
2, 95951, Note_on_c, 0, 64, 0
2, 96000, Note_on_c, 0, 57, 80
2, 96000, Note_on_c, 0, 60, 80
2, 96000, Note_on_c, 0, 64, 80
2, 96911, Note_on_c, 0, 57, 0
2, 96911, Note_on_c, 0, 60, 0
2, 96911, Note_on_c, 0, 64, 0
2, 96960, Note_on_c, 0, 57, 80
2, 96960, Note_on_c, 0, 60, 80
2, 96960, Note_on_c, 0, 64, 80
2, 97871, Note_on_c, 0, 57, 0
2, 97871, Note_on_c, 0, 60, 0
2, 97871, Note_on_c, 0, 64, 0
2, 97920, Note_on_c, 0, 57, 80
2, 97920, Note_on_c, 0, 60, 80
2, 97920, Note_on_c, 0, 64, 80
2, 98831, Note_on_c, 0, 57, 0
2, 98831, Note_on_c, 0, 60, 0
2, 98831, Note_on_c, 0, 64, 0
2, 98880, Note_on_c, 0, 57, 80
2, 98880, Note_on_c, 0, 60, 80
2, 98880, Note_on_c, 0, 64, 80
2, 99791, Note_on_c, 0, 57, 0
2, 99791, Note_on_c, 0, 60, 0
2, 99791, Note_on_c, 0, 64, 0
2, 99840, Note_on_c, 0, 55, 80
2, 99840, Note_on_c, 0, 60, 80
2, 99840, Note_on_c, 0, 64, 80
2, 100751, Note_on_c, 0, 55, 0
2, 100751, Note_on_c, 0, 60, 0
2, 100751, Note_on_c, 0, 64, 0
2, 100800, Note_on_c, 0, 55, 80
2, 100800, Note_on_c, 0, 60, 80
2, 100800, Note_on_c, 0, 64, 80
2, 101711, Note_on_c, 0, 55, 0
2, 101711, Note_on_c, 0, 60, 0
2, 101711, Note_on_c, 0, 64, 0
2, 101760, Note_on_c, 0, 55, 80
2, 101760, Note_on_c, 0, 60, 80
2, 101760, Note_on_c, 0, 64, 80
2, 102671, Note_on_c, 0, 55, 0
2, 102671, Note_on_c, 0, 60, 0
2, 102671, Note_on_c, 0, 64, 0
2, 102720, Note_on_c, 0, 55, 80
2, 102720, Note_on_c, 0, 60, 80
2, 102720, Note_on_c, 0, 64, 80
2, 103631, Note_on_c, 0, 55, 0
2, 103631, Note_on_c, 0, 60, 0
2, 103631, Note_on_c, 0, 64, 0
2, 103680, Note_on_c, 0, 57, 80
2, 103680, Note_on_c, 0, 60, 80
2, 103680, Note_on_c, 0, 64, 80
2, 104591, Note_on_c, 0, 57, 0
2, 104591, Note_on_c, 0, 60, 0
2, 104591, Note_on_c, 0, 64, 0
2, 104640, Note_on_c, 0, 57, 80
2, 104640, Note_on_c, 0, 60, 80
2, 104640, Note_on_c, 0, 64, 80
2, 105551, Note_on_c, 0, 57, 0
2, 105551, Note_on_c, 0, 60, 0
2, 105551, Note_on_c, 0, 64, 0
2, 105600, Note_on_c, 0, 57, 80
2, 105600, Note_on_c, 0, 60, 80
2, 105600, Note_on_c, 0, 64, 80
2, 106511, Note_on_c, 0, 57, 0
2, 106511, Note_on_c, 0, 60, 0
2, 106511, Note_on_c, 0, 64, 0
2, 106560, Note_on_c, 0, 57, 80
2, 106560, Note_on_c, 0, 60, 80
2, 106560, Note_on_c, 0, 64, 80
2, 107471, Note_on_c, 0, 57, 0
2, 107471, Note_on_c, 0, 60, 0
2, 107471, Note_on_c, 0, 64, 0
2, 107520, Note_on_c, 0, 55, 80
2, 107520, Note_on_c, 0, 60, 80
2, 107520, Note_on_c, 0, 64, 80
2, 108431, Note_on_c, 0, 55, 0
2, 108431, Note_on_c, 0, 60, 0
2, 108431, Note_on_c, 0, 64, 0
2, 108480, Note_on_c, 0, 55, 80
2, 108480, Note_on_c, 0, 60, 80
2, 108480, Note_on_c, 0, 64, 80
2, 109391, Note_on_c, 0, 55, 0
2, 109391, Note_on_c, 0, 60, 0
2, 109391, Note_on_c, 0, 64, 0
2, 109440, Note_on_c, 0, 55, 80
2, 109440, Note_on_c, 0, 60, 80
2, 109440, Note_on_c, 0, 64, 80
2, 110351, Note_on_c, 0, 55, 0
2, 110351, Note_on_c, 0, 60, 0
2, 110351, Note_on_c, 0, 64, 0
2, 110400, Note_on_c, 0, 55, 80
2, 110400, Note_on_c, 0, 60, 80
2, 110400, Note_on_c, 0, 64, 80
2, 111311, Note_on_c, 0, 55, 0
2, 111311, Note_on_c, 0, 60, 0
2, 111311, Note_on_c, 0, 64, 0
2, 111360, Note_on_c, 0, 57, 80
2, 111360, Note_on_c, 0, 60, 80
2, 111360, Note_on_c, 0, 64, 80
2, 112271, Note_on_c, 0, 57, 0
2, 112271, Note_on_c, 0, 60, 0
2, 112271, Note_on_c, 0, 64, 0
2, 112320, Note_on_c, 0, 57, 80
2, 112320, Note_on_c, 0, 60, 80
2, 112320, Note_on_c, 0, 64, 80
2, 113231, Note_on_c, 0, 57, 0
2, 113231, Note_on_c, 0, 60, 0
2, 113231, Note_on_c, 0, 64, 0
2, 113280, Note_on_c, 0, 57, 80
2, 113280, Note_on_c, 0, 60, 80
2, 113280, Note_on_c, 0, 64, 80
2, 114191, Note_on_c, 0, 57, 0
2, 114191, Note_on_c, 0, 60, 0
2, 114191, Note_on_c, 0, 64, 0
2, 114240, Note_on_c, 0, 57, 80
2, 114240, Note_on_c, 0, 60, 80
2, 114240, Note_on_c, 0, 64, 80
2, 115151, Note_on_c, 0, 57, 0
2, 115151, Note_on_c, 0, 60, 0
2, 115151, Note_on_c, 0, 64, 0
2, 115200, Note_on_c, 0, 55, 80
2, 115200, Note_on_c, 0, 60, 80
2, 115200, Note_on_c, 0, 64, 80
2, 116111, Note_on_c, 0, 55, 0
2, 116111, Note_on_c, 0, 60, 0
2, 116111, Note_on_c, 0, 64, 0
2, 116160, Note_on_c, 0, 55, 80
2, 116160, Note_on_c, 0, 60, 80
2, 116160, Note_on_c, 0, 64, 80
2, 117071, Note_on_c, 0, 55, 0
2, 117071, Note_on_c, 0, 60, 0
2, 117071, Note_on_c, 0, 64, 0
2, 117120, Note_on_c, 0, 55, 80
2, 117120, Note_on_c, 0, 60, 80
2, 117120, Note_on_c, 0, 64, 80
2, 118031, Note_on_c, 0, 55, 0
2, 118031, Note_on_c, 0, 60, 0
2, 118031, Note_on_c, 0, 64, 0
2, 118080, Note_on_c, 0, 55, 80
2, 118080, Note_on_c, 0, 60, 80
2, 118080, Note_on_c, 0, 64, 80
2, 118991, Note_on_c, 0, 55, 0
2, 118991, Note_on_c, 0, 60, 0
2, 118991, Note_on_c, 0, 64, 0
2, 119040, Note_on_c, 0, 57, 80
2, 119040, Note_on_c, 0, 60, 80
2, 119040, Note_on_c, 0, 64, 80
2, 119951, Note_on_c, 0, 57, 0
2, 119951, Note_on_c, 0, 60, 0
2, 119951, Note_on_c, 0, 64, 0
2, 120000, Note_on_c, 0, 57, 80
2, 120000, Note_on_c, 0, 60, 80
2, 120000, Note_on_c, 0, 64, 80
2, 120911, Note_on_c, 0, 57, 0
2, 120911, Note_on_c, 0, 60, 0
2, 120911, Note_on_c, 0, 64, 0
2, 120960, Note_on_c, 0, 57, 80
2, 120960, Note_on_c, 0, 60, 80
2, 120960, Note_on_c, 0, 64, 80
2, 121871, Note_on_c, 0, 57, 0
2, 121871, Note_on_c, 0, 60, 0
2, 121871, Note_on_c, 0, 64, 0
2, 121920, Note_on_c, 0, 64, 80
2, 121920, Note_on_c, 0, 57, 80
2, 121920, Note_on_c, 0, 60, 80
2, 122375, Note_on_c, 0, 64, 0
2, 122831, Note_on_c, 0, 57, 0
2, 122831, Note_on_c, 0, 60, 0
2, 122880, Note_on_c, 0, 55, 80
2, 122880, Note_on_c, 0, 60, 80
2, 122880, Note_on_c, 0, 64, 80
2, 123791, Note_on_c, 0, 55, 0
2, 123791, Note_on_c, 0, 60, 0
2, 123791, Note_on_c, 0, 64, 0
2, 123840, Note_on_c, 0, 55, 80
2, 123840, Note_on_c, 0, 60, 80
2, 123840, Note_on_c, 0, 64, 80
2, 124751, Note_on_c, 0, 55, 0
2, 124751, Note_on_c, 0, 60, 0
2, 124751, Note_on_c, 0, 64, 0
2, 124800, Note_on_c, 0, 55, 80
2, 124800, Note_on_c, 0, 60, 80
2, 124800, Note_on_c, 0, 64, 80
2, 125711, Note_on_c, 0, 55, 0
2, 125711, Note_on_c, 0, 60, 0
2, 125711, Note_on_c, 0, 64, 0
2, 125760, Note_on_c, 0, 55, 80
2, 125760, Note_on_c, 0, 60, 80
2, 125760, Note_on_c, 0, 64, 80
2, 126671, Note_on_c, 0, 55, 0
2, 126671, Note_on_c, 0, 60, 0
2, 126671, Note_on_c, 0, 64, 0
2, 126720, Note_on_c, 0, 57, 80
2, 126720, Note_on_c, 0, 60, 80
2, 126720, Note_on_c, 0, 64, 80
2, 127631, Note_on_c, 0, 57, 0
2, 127631, Note_on_c, 0, 60, 0
2, 127631, Note_on_c, 0, 64, 0
2, 127680, Note_on_c, 0, 57, 80
2, 127680, Note_on_c, 0, 60, 80
2, 127680, Note_on_c, 0, 64, 80
2, 128591, Note_on_c, 0, 57, 0
2, 128591, Note_on_c, 0, 60, 0
2, 128591, Note_on_c, 0, 64, 0
2, 128640, Note_on_c, 0, 57, 80
2, 128640, Note_on_c, 0, 60, 80
2, 128640, Note_on_c, 0, 64, 80
2, 129551, Note_on_c, 0, 57, 0
2, 129551, Note_on_c, 0, 60, 0
2, 129551, Note_on_c, 0, 64, 0
2, 129600, Note_on_c, 0, 57, 80
2, 129600, Note_on_c, 0, 60, 80
2, 129600, Note_on_c, 0, 64, 80
2, 130511, Note_on_c, 0, 57, 0
2, 130511, Note_on_c, 0, 60, 0
2, 130511, Note_on_c, 0, 64, 0
2, 130560, Note_on_c, 0, 55, 80
2, 130560, Note_on_c, 0, 60, 80
2, 130560, Note_on_c, 0, 64, 80
2, 131471, Note_on_c, 0, 55, 0
2, 131471, Note_on_c, 0, 60, 0
2, 131471, Note_on_c, 0, 64, 0
2, 131520, Note_on_c, 0, 55, 80
2, 131520, Note_on_c, 0, 60, 80
2, 131520, Note_on_c, 0, 64, 80
2, 132431, Note_on_c, 0, 55, 0
2, 132431, Note_on_c, 0, 60, 0
2, 132431, Note_on_c, 0, 64, 0
2, 132480, Note_on_c, 0, 55, 80
2, 132480, Note_on_c, 0, 60, 80
2, 132480, Note_on_c, 0, 64, 80
2, 133391, Note_on_c, 0, 55, 0
2, 133391, Note_on_c, 0, 60, 0
2, 133391, Note_on_c, 0, 64, 0
2, 133440, Note_on_c, 0, 55, 80
2, 133440, Note_on_c, 0, 60, 80
2, 133440, Note_on_c, 0, 64, 80
2, 134351, Note_on_c, 0, 55, 0
2, 134351, Note_on_c, 0, 60, 0
2, 134351, Note_on_c, 0, 64, 0
2, 134400, Note_on_c, 0, 57, 80
2, 134400, Note_on_c, 0, 60, 80
2, 134400, Note_on_c, 0, 64, 80
2, 135311, Note_on_c, 0, 57, 0
2, 135311, Note_on_c, 0, 60, 0
2, 135311, Note_on_c, 0, 64, 0
2, 135360, Note_on_c, 0, 57, 80
2, 135360, Note_on_c, 0, 60, 80
2, 135360, Note_on_c, 0, 64, 80
2, 136271, Note_on_c, 0, 57, 0
2, 136271, Note_on_c, 0, 60, 0
2, 136271, Note_on_c, 0, 64, 0
2, 136320, Note_on_c, 0, 57, 80
2, 136320, Note_on_c, 0, 60, 80
2, 136320, Note_on_c, 0, 64, 80
2, 137231, Note_on_c, 0, 57, 0
2, 137231, Note_on_c, 0, 60, 0
2, 137231, Note_on_c, 0, 64, 0
2, 137280, Note_on_c, 0, 57, 80
2, 137280, Note_on_c, 0, 60, 80
2, 137280, Note_on_c, 0, 64, 80
2, 138191, Note_on_c, 0, 57, 0
2, 138191, Note_on_c, 0, 60, 0
2, 138191, Note_on_c, 0, 64, 0
2, 138240, Note_on_c, 0, 55, 80
2, 138240, Note_on_c, 0, 60, 80
2, 138240, Note_on_c, 0, 64, 80
2, 139151, Note_on_c, 0, 55, 0
2, 139151, Note_on_c, 0, 60, 0
2, 139151, Note_on_c, 0, 64, 0
2, 139200, Note_on_c, 0, 55, 80
2, 139200, Note_on_c, 0, 60, 80
2, 139200, Note_on_c, 0, 64, 80
2, 140111, Note_on_c, 0, 55, 0
2, 140111, Note_on_c, 0, 60, 0
2, 140111, Note_on_c, 0, 64, 0
2, 140160, Note_on_c, 0, 55, 80
2, 140160, Note_on_c, 0, 60, 80
2, 140160, Note_on_c, 0, 64, 80
2, 141071, Note_on_c, 0, 55, 0
2, 141071, Note_on_c, 0, 60, 0
2, 141071, Note_on_c, 0, 64, 0
2, 141120, Note_on_c, 0, 55, 80
2, 141120, Note_on_c, 0, 60, 80
2, 141120, Note_on_c, 0, 64, 80
2, 142031, Note_on_c, 0, 55, 0
2, 142031, Note_on_c, 0, 60, 0
2, 142031, Note_on_c, 0, 64, 0
2, 142080, Note_on_c, 0, 57, 80
2, 142080, Note_on_c, 0, 60, 80
2, 142080, Note_on_c, 0, 64, 80
2, 142991, Note_on_c, 0, 57, 0
2, 142991, Note_on_c, 0, 60, 0
2, 142991, Note_on_c, 0, 64, 0
2, 143040, Note_on_c, 0, 57, 80
2, 143040, Note_on_c, 0, 60, 80
2, 143040, Note_on_c, 0, 64, 80
2, 143951, Note_on_c, 0, 57, 0
2, 143951, Note_on_c, 0, 60, 0
2, 143951, Note_on_c, 0, 64, 0
2, 144000, Note_on_c, 0, 57, 80
2, 144000, Note_on_c, 0, 60, 80
2, 144000, Note_on_c, 0, 64, 80
2, 144911, Note_on_c, 0, 57, 0
2, 144911, Note_on_c, 0, 60, 0
2, 144911, Note_on_c, 0, 64, 0
2, 144960, Note_on_c, 0, 57, 80
2, 144960, Note_on_c, 0, 60, 80
2, 144960, Note_on_c, 0, 64, 80
2, 145871, Note_on_c, 0, 57, 0
2, 145871, Note_on_c, 0, 60, 0
2, 145871, Note_on_c, 0, 64, 0
2, 145920, Note_on_c, 0, 55, 80
2, 145920, Note_on_c, 0, 60, 80
2, 145920, Note_on_c, 0, 64, 80
2, 146831, Note_on_c, 0, 55, 0
2, 146831, Note_on_c, 0, 60, 0
2, 146831, Note_on_c, 0, 64, 0
2, 146880, Note_on_c, 0, 55, 80
2, 146880, Note_on_c, 0, 60, 80
2, 146880, Note_on_c, 0, 64, 80
2, 147791, Note_on_c, 0, 55, 0
2, 147791, Note_on_c, 0, 60, 0
2, 147791, Note_on_c, 0, 64, 0
2, 147840, Note_on_c, 0, 55, 80
2, 147840, Note_on_c, 0, 60, 80
2, 147840, Note_on_c, 0, 64, 80
2, 148751, Note_on_c, 0, 55, 0
2, 148751, Note_on_c, 0, 60, 0
2, 148751, Note_on_c, 0, 64, 0
2, 148800, Note_on_c, 0, 55, 80
2, 148800, Note_on_c, 0, 60, 80
2, 148800, Note_on_c, 0, 64, 80
2, 149711, Note_on_c, 0, 55, 0
2, 149711, Note_on_c, 0, 60, 0
2, 149711, Note_on_c, 0, 64, 0
2, 149760, Note_on_c, 0, 57, 80
2, 149760, Note_on_c, 0, 60, 80
2, 149760, Note_on_c, 0, 64, 80
2, 150671, Note_on_c, 0, 57, 0
2, 150671, Note_on_c, 0, 60, 0
2, 150671, Note_on_c, 0, 64, 0
2, 150720, Note_on_c, 0, 57, 80
2, 150720, Note_on_c, 0, 60, 80
2, 150720, Note_on_c, 0, 64, 80
2, 151631, Note_on_c, 0, 57, 0
2, 151631, Note_on_c, 0, 60, 0
2, 151631, Note_on_c, 0, 64, 0
2, 151680, Note_on_c, 0, 57, 80
2, 151680, Note_on_c, 0, 60, 80
2, 151680, Note_on_c, 0, 64, 80
2, 152591, Note_on_c, 0, 57, 0
2, 152591, Note_on_c, 0, 60, 0
2, 152591, Note_on_c, 0, 64, 0
2, 152640, Note_on_c, 0, 57, 80
2, 152640, Note_on_c, 0, 60, 80
2, 152640, Note_on_c, 0, 64, 80
2, 153551, Note_on_c, 0, 57, 0
2, 153551, Note_on_c, 0, 60, 0
2, 153551, Note_on_c, 0, 64, 0
2, 153600, Note_on_c, 0, 55, 80
2, 153600, Note_on_c, 0, 60, 80
2, 153600, Note_on_c, 0, 64, 80
2, 154511, Note_on_c, 0, 55, 0
2, 154511, Note_on_c, 0, 60, 0
2, 154511, Note_on_c, 0, 64, 0
2, 154560, Note_on_c, 0, 55, 80
2, 154560, Note_on_c, 0, 60, 80
2, 154560, Note_on_c, 0, 64, 80
2, 155471, Note_on_c, 0, 55, 0
2, 155471, Note_on_c, 0, 60, 0
2, 155471, Note_on_c, 0, 64, 0
2, 155520, Note_on_c, 0, 55, 80
2, 155520, Note_on_c, 0, 60, 80
2, 155520, Note_on_c, 0, 64, 80
2, 156431, Note_on_c, 0, 55, 0
2, 156431, Note_on_c, 0, 60, 0
2, 156431, Note_on_c, 0, 64, 0
2, 156480, Note_on_c, 0, 55, 80
2, 156480, Note_on_c, 0, 60, 80
2, 156480, Note_on_c, 0, 64, 80
2, 157391, Note_on_c, 0, 55, 0
2, 157391, Note_on_c, 0, 60, 0
2, 157391, Note_on_c, 0, 64, 0
2, 157440, Note_on_c, 0, 57, 80
2, 157440, Note_on_c, 0, 60, 80
2, 157440, Note_on_c, 0, 64, 80
2, 158351, Note_on_c, 0, 57, 0
2, 158351, Note_on_c, 0, 60, 0
2, 158351, Note_on_c, 0, 64, 0
2, 158400, Note_on_c, 0, 57, 80
2, 158400, Note_on_c, 0, 60, 80
2, 158400, Note_on_c, 0, 64, 80
2, 159311, Note_on_c, 0, 57, 0
2, 159311, Note_on_c, 0, 60, 0
2, 159311, Note_on_c, 0, 64, 0
2, 159360, Note_on_c, 0, 57, 80
2, 159360, Note_on_c, 0, 60, 80
2, 159360, Note_on_c, 0, 64, 80
2, 160271, Note_on_c, 0, 57, 0
2, 160271, Note_on_c, 0, 60, 0
2, 160271, Note_on_c, 0, 64, 0
2, 160320, Note_on_c, 0, 57, 80
2, 160320, Note_on_c, 0, 60, 80
2, 160320, Note_on_c, 0, 64, 80
2, 161231, Note_on_c, 0, 57, 0
2, 161231, Note_on_c, 0, 60, 0
2, 161231, Note_on_c, 0, 64, 0
2, 161280, Note_on_c, 0, 55, 80
2, 161280, Note_on_c, 0, 60, 80
2, 161280, Note_on_c, 0, 64, 80
2, 162191, Note_on_c, 0, 55, 0
2, 162191, Note_on_c, 0, 60, 0
2, 162191, Note_on_c, 0, 64, 0
2, 162240, Note_on_c, 0, 55, 80
2, 162240, Note_on_c, 0, 60, 80
2, 162240, Note_on_c, 0, 64, 80
2, 163151, Note_on_c, 0, 55, 0
2, 163151, Note_on_c, 0, 60, 0
2, 163151, Note_on_c, 0, 64, 0
2, 163200, Note_on_c, 0, 55, 80
2, 163200, Note_on_c, 0, 60, 80
2, 163200, Note_on_c, 0, 64, 80
2, 164111, Note_on_c, 0, 55, 0
2, 164111, Note_on_c, 0, 60, 0
2, 164111, Note_on_c, 0, 64, 0
2, 164160, Note_on_c, 0, 55, 80
2, 164160, Note_on_c, 0, 60, 80
2, 164160, Note_on_c, 0, 64, 80
2, 165071, Note_on_c, 0, 55, 0
2, 165071, Note_on_c, 0, 60, 0
2, 165071, Note_on_c, 0, 64, 0
2, 165120, Note_on_c, 0, 57, 80
2, 165120, Note_on_c, 0, 60, 80
2, 165120, Note_on_c, 0, 64, 80
2, 166031, Note_on_c, 0, 57, 0
2, 166031, Note_on_c, 0, 60, 0
2, 166031, Note_on_c, 0, 64, 0
2, 166080, Note_on_c, 0, 57, 80
2, 166080, Note_on_c, 0, 60, 80
2, 166080, Note_on_c, 0, 64, 80
2, 166991, Note_on_c, 0, 57, 0
2, 166991, Note_on_c, 0, 60, 0
2, 166991, Note_on_c, 0, 64, 0
2, 167040, Note_on_c, 0, 57, 80
2, 167040, Note_on_c, 0, 60, 80
2, 167040, Note_on_c, 0, 64, 80
2, 167951, Note_on_c, 0, 57, 0
2, 167951, Note_on_c, 0, 60, 0
2, 167951, Note_on_c, 0, 64, 0
2, 168000, Note_on_c, 0, 57, 80
2, 168000, Note_on_c, 0, 60, 80
2, 168000, Note_on_c, 0, 64, 80
2, 168911, Note_on_c, 0, 57, 0
2, 168911, Note_on_c, 0, 60, 0
2, 168911, Note_on_c, 0, 64, 0
2, 168960, Note_on_c, 0, 55, 80
2, 168960, Note_on_c, 0, 60, 80
2, 168960, Note_on_c, 0, 64, 80
2, 169415, Note_on_c, 0, 55, 0
2, 169415, Note_on_c, 0, 60, 0
2, 169415, Note_on_c, 0, 64, 0
2, 169440, Note_on_c, 0, 60, 80
2, 169895, Note_on_c, 0, 60, 0
2, 169920, Note_on_c, 0, 55, 80
2, 169920, Note_on_c, 0, 60, 80
2, 169920, Note_on_c, 0, 64, 80
2, 170375, Note_on_c, 0, 55, 0
2, 170375, Note_on_c, 0, 60, 0
2, 170375, Note_on_c, 0, 64, 0
2, 170400, Note_on_c, 0, 60, 80
2, 170855, Note_on_c, 0, 60, 0
2, 170880, Note_on_c, 0, 55, 80
2, 170880, Note_on_c, 0, 60, 80
2, 170880, Note_on_c, 0, 64, 80
2, 171335, Note_on_c, 0, 55, 0
2, 171335, Note_on_c, 0, 60, 0
2, 171335, Note_on_c, 0, 64, 0
2, 171360, Note_on_c, 0, 60, 80
2, 171815, Note_on_c, 0, 60, 0
2, 171840, Note_on_c, 0, 55, 80
2, 171840, Note_on_c, 0, 60, 80
2, 171840, Note_on_c, 0, 64, 80
2, 172295, Note_on_c, 0, 55, 0
2, 172295, Note_on_c, 0, 60, 0
2, 172295, Note_on_c, 0, 64, 0
2, 172320, Note_on_c, 0, 60, 80
2, 172775, Note_on_c, 0, 60, 0
2, 172800, Note_on_c, 0, 55, 80
2, 172800, Note_on_c, 0, 60, 80
2, 172800, Note_on_c, 0, 64, 80
2, 173255, Note_on_c, 0, 55, 0
2, 173255, Note_on_c, 0, 60, 0
2, 173255, Note_on_c, 0, 64, 0
2, 173280, Note_on_c, 0, 60, 80
2, 173735, Note_on_c, 0, 60, 0
2, 173760, Note_on_c, 0, 55, 80
2, 173760, Note_on_c, 0, 60, 80
2, 173760, Note_on_c, 0, 64, 80
2, 174215, Note_on_c, 0, 55, 0
2, 174215, Note_on_c, 0, 60, 0
2, 174215, Note_on_c, 0, 64, 0
2, 174240, Note_on_c, 0, 60, 80
2, 174695, Note_on_c, 0, 60, 0
2, 174720, Note_on_c, 0, 55, 80
2, 174720, Note_on_c, 0, 60, 80
2, 174720, Note_on_c, 0, 64, 80
2, 175631, Note_on_c, 0, 55, 0
2, 175631, Note_on_c, 0, 60, 0
2, 175631, Note_on_c, 0, 64, 0
2, 175680, Note_on_c, 0, 55, 80
2, 175680, Note_on_c, 0, 60, 80
2, 175680, Note_on_c, 0, 64, 80
2, 176591, Note_on_c, 0, 55, 0
2, 176591, Note_on_c, 0, 60, 0
2, 176591, Note_on_c, 0, 64, 0
2, 176640, Note_on_c, 0, 57, 80
2, 176640, Note_on_c, 0, 60, 80
2, 176640, Note_on_c, 0, 64, 80
2, 177360, Note_on_c, 0, 64, 0
2, 177551, Note_on_c, 0, 57, 0
2, 177551, Note_on_c, 0, 60, 0
2, 177600, Note_on_c, 0, 57, 80
2, 177600, Note_on_c, 0, 60, 80
2, 177600, Note_on_c, 0, 64, 80
2, 178511, Note_on_c, 0, 57, 0
2, 178511, Note_on_c, 0, 60, 0
2, 178511, Note_on_c, 0, 64, 0
2, 178560, Note_on_c, 0, 57, 80
2, 178560, Note_on_c, 0, 60, 80
2, 178560, Note_on_c, 0, 64, 80
2, 179015, Note_on_c, 0, 57, 0
2, 179015, Note_on_c, 0, 60, 0
2, 179015, Note_on_c, 0, 64, 0
2, 179040, Note_on_c, 0, 57, 80
2, 179495, Note_on_c, 0, 57, 0
2, 179520, Note_on_c, 0, 57, 80
2, 179520, Note_on_c, 0, 60, 80
2, 179520, Note_on_c, 0, 64, 80
2, 179975, Note_on_c, 0, 57, 0
2, 179975, Note_on_c, 0, 60, 0
2, 179975, Note_on_c, 0, 64, 0
2, 180000, Note_on_c, 0, 57, 80
2, 180455, Note_on_c, 0, 57, 0
2, 180480, Note_on_c, 0, 57, 80
2, 180480, Note_on_c, 0, 60, 80
2, 180480, Note_on_c, 0, 64, 80
2, 180935, Note_on_c, 0, 57, 0
2, 180935, Note_on_c, 0, 60, 0
2, 180935, Note_on_c, 0, 64, 0
2, 180960, Note_on_c, 0, 57, 80
2, 181415, Note_on_c, 0, 57, 0
2, 181440, Note_on_c, 0, 57, 80
2, 181440, Note_on_c, 0, 60, 80
2, 181440, Note_on_c, 0, 64, 80
2, 181895, Note_on_c, 0, 57, 0
2, 181895, Note_on_c, 0, 60, 0
2, 181895, Note_on_c, 0, 64, 0
2, 181920, Note_on_c, 0, 57, 80
2, 182375, Note_on_c, 0, 57, 0
2, 182400, Note_on_c, 0, 57, 80
2, 182400, Note_on_c, 0, 60, 80
2, 182400, Note_on_c, 0, 64, 80
2, 182855, Note_on_c, 0, 57, 0
2, 182855, Note_on_c, 0, 60, 0
2, 182855, Note_on_c, 0, 64, 0
2, 182880, Note_on_c, 0, 57, 80
2, 183335, Note_on_c, 0, 57, 0
2, 183360, Note_on_c, 0, 57, 80
2, 183360, Note_on_c, 0, 60, 80
2, 183360, Note_on_c, 0, 64, 80
2, 183815, Note_on_c, 0, 57, 0
2, 183815, Note_on_c, 0, 60, 0
2, 183815, Note_on_c, 0, 64, 0
2, 183840, Note_on_c, 0, 57, 80
2, 184295, Note_on_c, 0, 57, 0
2, 184320, Note_on_c, 0, 55, 80
2, 184320, Note_on_c, 0, 60, 80
2, 184320, Note_on_c, 0, 64, 80
2, 184775, Note_on_c, 0, 55, 0
2, 184775, Note_on_c, 0, 60, 0
2, 184775, Note_on_c, 0, 64, 0
2, 184800, Note_on_c, 0, 60, 80
2, 185255, Note_on_c, 0, 60, 0
2, 185280, Note_on_c, 0, 55, 80
2, 185280, Note_on_c, 0, 60, 80
2, 185280, Note_on_c, 0, 64, 80
2, 185735, Note_on_c, 0, 55, 0
2, 185735, Note_on_c, 0, 60, 0
2, 185735, Note_on_c, 0, 64, 0
2, 185760, Note_on_c, 0, 60, 80
2, 186215, Note_on_c, 0, 60, 0
2, 186240, Note_on_c, 0, 55, 80
2, 186240, Note_on_c, 0, 60, 80
2, 186240, Note_on_c, 0, 64, 80
2, 186695, Note_on_c, 0, 55, 0
2, 186695, Note_on_c, 0, 60, 0
2, 186695, Note_on_c, 0, 64, 0
2, 186720, Note_on_c, 0, 60, 80
2, 187175, Note_on_c, 0, 60, 0
2, 187200, Note_on_c, 0, 55, 80
2, 187200, Note_on_c, 0, 60, 80
2, 187200, Note_on_c, 0, 64, 80
2, 187655, Note_on_c, 0, 55, 0
2, 187655, Note_on_c, 0, 60, 0
2, 187655, Note_on_c, 0, 64, 0
2, 187680, Note_on_c, 0, 60, 80
2, 188135, Note_on_c, 0, 60, 0
2, 188160, Note_on_c, 0, 55, 80
2, 188160, Note_on_c, 0, 60, 80
2, 188160, Note_on_c, 0, 64, 80
2, 188615, Note_on_c, 0, 55, 0
2, 188615, Note_on_c, 0, 60, 0
2, 188615, Note_on_c, 0, 64, 0
2, 188640, Note_on_c, 0, 60, 80
2, 189095, Note_on_c, 0, 60, 0
2, 189120, Note_on_c, 0, 55, 80
2, 189120, Note_on_c, 0, 60, 80
2, 189120, Note_on_c, 0, 64, 80
2, 189575, Note_on_c, 0, 55, 0
2, 189575, Note_on_c, 0, 60, 0
2, 189575, Note_on_c, 0, 64, 0
2, 189600, Note_on_c, 0, 60, 80
2, 190055, Note_on_c, 0, 60, 0
2, 190080, Note_on_c, 0, 55, 80
2, 190080, Note_on_c, 0, 60, 80
2, 190080, Note_on_c, 0, 64, 80
2, 190991, Note_on_c, 0, 55, 0
2, 190991, Note_on_c, 0, 60, 0
2, 190991, Note_on_c, 0, 64, 0
2, 191040, Note_on_c, 0, 55, 80
2, 191040, Note_on_c, 0, 60, 80
2, 191040, Note_on_c, 0, 64, 80
2, 191951, Note_on_c, 0, 55, 0
2, 191951, Note_on_c, 0, 60, 0
2, 191951, Note_on_c, 0, 64, 0
2, 192000, Note_on_c, 0, 57, 80
2, 192000, Note_on_c, 0, 60, 80
2, 192000, Note_on_c, 0, 64, 80
2, 192911, Note_on_c, 0, 57, 0
2, 192911, Note_on_c, 0, 60, 0
2, 192911, Note_on_c, 0, 64, 0
2, 192960, Note_on_c, 0, 57, 80
2, 192960, Note_on_c, 0, 60, 80
2, 192960, Note_on_c, 0, 64, 80
2, 193871, Note_on_c, 0, 57, 0
2, 193871, Note_on_c, 0, 60, 0
2, 193871, Note_on_c, 0, 64, 0
2, 193920, Note_on_c, 0, 57, 80
2, 193920, Note_on_c, 0, 60, 80
2, 193920, Note_on_c, 0, 64, 80
2, 194375, Note_on_c, 0, 57, 0
2, 194375, Note_on_c, 0, 60, 0
2, 194375, Note_on_c, 0, 64, 0
2, 194400, Note_on_c, 0, 57, 80
2, 194855, Note_on_c, 0, 57, 0
2, 194880, Note_on_c, 0, 57, 80
2, 194880, Note_on_c, 0, 60, 80
2, 194880, Note_on_c, 0, 64, 80
2, 195335, Note_on_c, 0, 57, 0
2, 195335, Note_on_c, 0, 60, 0
2, 195335, Note_on_c, 0, 64, 0
2, 195360, Note_on_c, 0, 57, 80
2, 195815, Note_on_c, 0, 57, 0
2, 195840, Note_on_c, 0, 57, 80
2, 195840, Note_on_c, 0, 60, 80
2, 195840, Note_on_c, 0, 64, 80
2, 196295, Note_on_c, 0, 57, 0
2, 196295, Note_on_c, 0, 60, 0
2, 196295, Note_on_c, 0, 64, 0
2, 196320, Note_on_c, 0, 57, 80
2, 196775, Note_on_c, 0, 57, 0
2, 196800, Note_on_c, 0, 57, 80
2, 196800, Note_on_c, 0, 60, 80
2, 196800, Note_on_c, 0, 64, 80
2, 197255, Note_on_c, 0, 57, 0
2, 197255, Note_on_c, 0, 60, 0
2, 197255, Note_on_c, 0, 64, 0
2, 197280, Note_on_c, 0, 57, 80
2, 197735, Note_on_c, 0, 57, 0
2, 197760, Note_on_c, 0, 55, 80
2, 197760, Note_on_c, 0, 60, 80
2, 197760, Note_on_c, 0, 64, 80
2, 198215, Note_on_c, 0, 55, 0
2, 198215, Note_on_c, 0, 60, 0
2, 198215, Note_on_c, 0, 64, 0
2, 198240, Note_on_c, 0, 55, 80
2, 198467, Note_on_c, 0, 55, 0
2, 198480, Note_on_c, 0, 55, 80
2, 198480, Note_on_c, 0, 59, 80
2, 198935, Note_on_c, 0, 55, 0
2, 198935, Note_on_c, 0, 59, 0
2, 198960, Note_on_c, 0, 55, 80
2, 198960, Note_on_c, 0, 59, 80
2, 199643, Note_on_c, 0, 55, 0
2, 199643, Note_on_c, 0, 59, 0
2, 199680, Note_on_c, 0, 55, 80
2, 199680, Note_on_c, 0, 60, 80
2, 199680, Note_on_c, 0, 64, 80
2, 200591, Note_on_c, 0, 55, 0
2, 200591, Note_on_c, 0, 60, 0
2, 200591, Note_on_c, 0, 64, 0
2, 200640, Note_on_c, 0, 55, 80
2, 200640, Note_on_c, 0, 60, 80
2, 200640, Note_on_c, 0, 64, 80
2, 201551, Note_on_c, 0, 55, 0
2, 201551, Note_on_c, 0, 60, 0
2, 201551, Note_on_c, 0, 64, 0
2, 201600, Note_on_c, 0, 55, 80
2, 201600, Note_on_c, 0, 60, 80
2, 201600, Note_on_c, 0, 64, 80
2, 202511, Note_on_c, 0, 55, 0
2, 202511, Note_on_c, 0, 60, 0
2, 202511, Note_on_c, 0, 64, 0
2, 202560, Note_on_c, 0, 55, 80
2, 202560, Note_on_c, 0, 60, 80
2, 202560, Note_on_c, 0, 64, 80
2, 203471, Note_on_c, 0, 55, 0
2, 203471, Note_on_c, 0, 60, 0
2, 203471, Note_on_c, 0, 64, 0
2, 203520, Note_on_c, 0, 57, 80
2, 203520, Note_on_c, 0, 60, 80
2, 203520, Note_on_c, 0, 64, 80
2, 204431, Note_on_c, 0, 57, 0
2, 204431, Note_on_c, 0, 60, 0
2, 204431, Note_on_c, 0, 64, 0
2, 204480, Note_on_c, 0, 57, 80
2, 204480, Note_on_c, 0, 60, 80
2, 204480, Note_on_c, 0, 64, 80
2, 205391, Note_on_c, 0, 57, 0
2, 205391, Note_on_c, 0, 60, 0
2, 205391, Note_on_c, 0, 64, 0
2, 205440, Note_on_c, 0, 57, 80
2, 205440, Note_on_c, 0, 60, 80
2, 205440, Note_on_c, 0, 64, 80
2, 206351, Note_on_c, 0, 57, 0
2, 206351, Note_on_c, 0, 60, 0
2, 206351, Note_on_c, 0, 64, 0
2, 206400, Note_on_c, 0, 57, 80
2, 206400, Note_on_c, 0, 60, 80
2, 206400, Note_on_c, 0, 64, 80
2, 207311, Note_on_c, 0, 57, 0
2, 207311, Note_on_c, 0, 60, 0
2, 207311, Note_on_c, 0, 64, 0
2, 207360, Note_on_c, 0, 55, 80
2, 207360, Note_on_c, 0, 60, 80
2, 207360, Note_on_c, 0, 64, 80
2, 208271, Note_on_c, 0, 55, 0
2, 208271, Note_on_c, 0, 60, 0
2, 208271, Note_on_c, 0, 64, 0
2, 208320, Note_on_c, 0, 55, 80
2, 208320, Note_on_c, 0, 60, 80
2, 208320, Note_on_c, 0, 64, 80
2, 209231, Note_on_c, 0, 55, 0
2, 209231, Note_on_c, 0, 60, 0
2, 209231, Note_on_c, 0, 64, 0
2, 209280, Note_on_c, 0, 55, 80
2, 209280, Note_on_c, 0, 60, 80
2, 209280, Note_on_c, 0, 64, 80
2, 210191, Note_on_c, 0, 55, 0
2, 210191, Note_on_c, 0, 60, 0
2, 210191, Note_on_c, 0, 64, 0
2, 210240, Note_on_c, 0, 55, 80
2, 210240, Note_on_c, 0, 60, 80
2, 210240, Note_on_c, 0, 64, 80
2, 211151, Note_on_c, 0, 55, 0
2, 211151, Note_on_c, 0, 60, 0
2, 211151, Note_on_c, 0, 64, 0
2, 211200, Note_on_c, 0, 57, 80
2, 211200, Note_on_c, 0, 60, 80
2, 211200, Note_on_c, 0, 64, 80
2, 212111, Note_on_c, 0, 57, 0
2, 212111, Note_on_c, 0, 60, 0
2, 212111, Note_on_c, 0, 64, 0
2, 212160, Note_on_c, 0, 57, 80
2, 212160, Note_on_c, 0, 60, 80
2, 212160, Note_on_c, 0, 64, 80
2, 213071, Note_on_c, 0, 57, 0
2, 213071, Note_on_c, 0, 60, 0
2, 213071, Note_on_c, 0, 64, 0
2, 213120, Note_on_c, 0, 57, 80
2, 213120, Note_on_c, 0, 60, 80
2, 213120, Note_on_c, 0, 64, 80
2, 214031, Note_on_c, 0, 57, 0
2, 214031, Note_on_c, 0, 60, 0
2, 214031, Note_on_c, 0, 64, 0
2, 214080, Note_on_c, 0, 57, 80
2, 214080, Note_on_c, 0, 60, 80
2, 214080, Note_on_c, 0, 64, 80
2, 214991, Note_on_c, 0, 57, 0
2, 214991, Note_on_c, 0, 60, 0
2, 214991, Note_on_c, 0, 64, 0
2, 215040, Note_on_c, 0, 55, 80
2, 215040, Note_on_c, 0, 60, 80
2, 215040, Note_on_c, 0, 64, 80
2, 215951, Note_on_c, 0, 55, 0
2, 215951, Note_on_c, 0, 60, 0
2, 215951, Note_on_c, 0, 64, 0
2, 216000, Note_on_c, 0, 55, 80
2, 216000, Note_on_c, 0, 60, 80
2, 216000, Note_on_c, 0, 64, 80
2, 216911, Note_on_c, 0, 55, 0
2, 216911, Note_on_c, 0, 60, 0
2, 216911, Note_on_c, 0, 64, 0
2, 216960, Note_on_c, 0, 55, 80
2, 216960, Note_on_c, 0, 60, 80
2, 216960, Note_on_c, 0, 64, 80
2, 217871, Note_on_c, 0, 55, 0
2, 217871, Note_on_c, 0, 60, 0
2, 217871, Note_on_c, 0, 64, 0
2, 217920, Note_on_c, 0, 55, 80
2, 217920, Note_on_c, 0, 60, 80
2, 217920, Note_on_c, 0, 64, 80
2, 218831, Note_on_c, 0, 55, 0
2, 218831, Note_on_c, 0, 60, 0
2, 218831, Note_on_c, 0, 64, 0
2, 218880, Note_on_c, 0, 57, 80
2, 218880, Note_on_c, 0, 60, 80
2, 218880, Note_on_c, 0, 64, 80
2, 219791, Note_on_c, 0, 57, 0
2, 219791, Note_on_c, 0, 60, 0
2, 219791, Note_on_c, 0, 64, 0
2, 219840, Note_on_c, 0, 57, 80
2, 219840, Note_on_c, 0, 60, 80
2, 219840, Note_on_c, 0, 64, 80
2, 220751, Note_on_c, 0, 57, 0
2, 220751, Note_on_c, 0, 60, 0
2, 220751, Note_on_c, 0, 64, 0
2, 220752, End_track
3, 0, Start_track
3, 0, Title_t, "Electric Bass, Bass\000"
3, 0, Key_signature, 0, "major"
3, 0, Control_c, 1, 121, 0
3, 0, Program_c, 1, 33
3, 0, Control_c, 1, 7, 100
3, 0, Control_c, 1, 10, 64
3, 0, Control_c, 1, 91, 0
3, 0, Control_c, 1, 93, 0
3, 0, MIDI_port, 0
3, 0, Note_on_c, 1, 60, 80
3, 0, Control_c, 4, 121, 0
3, 0, Program_c, 4, 36
3, 0, Control_c, 4, 7, 100
3, 0, Control_c, 4, 10, 64
3, 0, Control_c, 4, 91, 0
3, 0, Control_c, 4, 93, 0
3, 0, MIDI_port, 0
3, 0, Control_c, 5, 121, 0
3, 0, Program_c, 5, 37
3, 0, Control_c, 5, 7, 100
3, 0, Control_c, 5, 10, 64
3, 0, Control_c, 5, 91, 0
3, 0, Control_c, 5, 93, 0
3, 0, MIDI_port, 0
3, 959, Note_on_c, 1, 60, 0
3, 960, Note_on_c, 1, 60, 80
3, 1439, Note_on_c, 1, 60, 0
3, 1440, Note_on_c, 1, 64, 80
3, 1679, Note_on_c, 1, 64, 0
3, 1680, Note_on_c, 1, 67, 80
3, 2159, Note_on_c, 1, 67, 0
3, 2160, Note_on_c, 1, 67, 80
3, 2399, Note_on_c, 1, 67, 0
3, 2400, Note_on_c, 1, 64, 80
3, 2879, Note_on_c, 1, 64, 0
3, 2880, Note_on_c, 1, 67, 80
3, 3359, Note_on_c, 1, 67, 0
3, 3360, Note_on_c, 1, 64, 80
3, 3839, Note_on_c, 1, 64, 0
3, 3840, Note_on_c, 1, 57, 80
3, 4799, Note_on_c, 1, 57, 0
3, 4800, Note_on_c, 1, 57, 80
3, 5279, Note_on_c, 1, 57, 0
3, 5280, Note_on_c, 1, 64, 80
3, 5519, Note_on_c, 1, 64, 0
3, 5520, Note_on_c, 1, 67, 80
3, 5999, Note_on_c, 1, 67, 0
3, 6000, Note_on_c, 1, 67, 80
3, 6239, Note_on_c, 1, 67, 0
3, 6240, Note_on_c, 1, 64, 80
3, 6719, Note_on_c, 1, 64, 0
3, 6720, Note_on_c, 1, 67, 80
3, 7199, Note_on_c, 1, 67, 0
3, 7200, Note_on_c, 1, 64, 80
3, 7679, Note_on_c, 1, 64, 0
3, 7680, Note_on_c, 1, 60, 80
3, 8639, Note_on_c, 1, 60, 0
3, 8640, Note_on_c, 1, 60, 80
3, 9119, Note_on_c, 1, 60, 0
3, 9120, Note_on_c, 1, 64, 80
3, 9359, Note_on_c, 1, 64, 0
3, 9360, Note_on_c, 1, 67, 80
3, 9839, Note_on_c, 1, 67, 0
3, 9840, Note_on_c, 1, 67, 80
3, 10079, Note_on_c, 1, 67, 0
3, 10080, Note_on_c, 1, 64, 80
3, 10559, Note_on_c, 1, 64, 0
3, 10560, Note_on_c, 1, 67, 80
3, 11039, Note_on_c, 1, 67, 0
3, 11040, Note_on_c, 1, 64, 80
3, 11519, Note_on_c, 1, 64, 0
3, 11520, Note_on_c, 1, 57, 80
3, 12479, Note_on_c, 1, 57, 0
3, 12480, Note_on_c, 1, 57, 80
3, 12959, Note_on_c, 1, 57, 0
3, 12960, Note_on_c, 1, 64, 80
3, 13199, Note_on_c, 1, 64, 0
3, 13200, Note_on_c, 1, 67, 80
3, 13679, Note_on_c, 1, 67, 0
3, 13680, Note_on_c, 1, 67, 80
3, 13919, Note_on_c, 1, 67, 0
3, 13920, Note_on_c, 1, 64, 80
3, 14399, Note_on_c, 1, 64, 0
3, 14400, Note_on_c, 1, 67, 80
3, 14879, Note_on_c, 1, 67, 0
3, 14880, Note_on_c, 1, 64, 80
3, 15359, Note_on_c, 1, 64, 0
3, 15360, Note_on_c, 1, 60, 80
3, 16319, Note_on_c, 1, 60, 0
3, 16320, Note_on_c, 1, 60, 80
3, 16799, Note_on_c, 1, 60, 0
3, 16800, Note_on_c, 1, 64, 80
3, 17039, Note_on_c, 1, 64, 0
3, 17040, Note_on_c, 1, 67, 80
3, 17519, Note_on_c, 1, 67, 0
3, 17520, Note_on_c, 1, 67, 80
3, 17759, Note_on_c, 1, 67, 0
3, 17760, Note_on_c, 1, 64, 80
3, 18239, Note_on_c, 1, 64, 0
3, 18240, Note_on_c, 1, 67, 80
3, 18719, Note_on_c, 1, 67, 0
3, 18720, Note_on_c, 1, 64, 80
3, 19199, Note_on_c, 1, 64, 0
3, 19200, Note_on_c, 1, 57, 80
3, 20159, Note_on_c, 1, 57, 0
3, 20160, Note_on_c, 1, 57, 80
3, 20639, Note_on_c, 1, 57, 0
3, 20640, Note_on_c, 1, 64, 80
3, 20879, Note_on_c, 1, 64, 0
3, 20880, Note_on_c, 1, 67, 80
3, 21119, Note_on_c, 1, 67, 0
3, 21120, Note_on_c, 1, 67, 80
3, 21359, Note_on_c, 1, 67, 0
3, 21360, Note_on_c, 1, 67, 80
3, 21599, Note_on_c, 1, 67, 0
3, 21600, Note_on_c, 1, 64, 80
3, 22079, Note_on_c, 1, 64, 0
3, 22080, Note_on_c, 1, 67, 80
3, 22559, Note_on_c, 1, 67, 0
3, 22560, Note_on_c, 1, 64, 80
3, 23039, Note_on_c, 1, 64, 0
3, 23040, Note_on_c, 1, 60, 80
3, 23999, Note_on_c, 1, 60, 0
3, 24000, Note_on_c, 1, 60, 80
3, 24479, Note_on_c, 1, 60, 0
3, 24480, Note_on_c, 1, 64, 80
3, 24719, Note_on_c, 1, 64, 0
3, 24720, Note_on_c, 1, 67, 80
3, 25199, Note_on_c, 1, 67, 0
3, 25200, Note_on_c, 1, 67, 80
3, 25439, Note_on_c, 1, 67, 0
3, 25440, Note_on_c, 1, 64, 80
3, 25919, Note_on_c, 1, 64, 0
3, 25920, Note_on_c, 1, 67, 80
3, 26399, Note_on_c, 1, 67, 0
3, 26400, Note_on_c, 1, 64, 80
3, 26879, Note_on_c, 1, 64, 0
3, 26880, Note_on_c, 1, 57, 80
3, 27839, Note_on_c, 1, 57, 0
3, 27840, Note_on_c, 1, 57, 80
3, 28319, Note_on_c, 1, 57, 0
3, 28320, Note_on_c, 1, 64, 80
3, 28559, Note_on_c, 1, 64, 0
3, 28560, Note_on_c, 1, 67, 80
3, 29039, Note_on_c, 1, 67, 0
3, 29040, Note_on_c, 1, 67, 80
3, 29279, Note_on_c, 1, 67, 0
3, 29280, Note_on_c, 1, 64, 80
3, 29759, Note_on_c, 1, 64, 0
3, 29760, Note_on_c, 1, 67, 80
3, 30239, Note_on_c, 1, 67, 0
3, 30240, Note_on_c, 1, 64, 80
3, 30719, Note_on_c, 1, 64, 0
3, 30720, Note_on_c, 1, 60, 80
3, 31679, Note_on_c, 1, 60, 0
3, 31680, Note_on_c, 1, 60, 80
3, 32159, Note_on_c, 1, 60, 0
3, 32160, Note_on_c, 1, 64, 80
3, 32399, Note_on_c, 1, 64, 0
3, 32400, Note_on_c, 1, 67, 80
3, 32879, Note_on_c, 1, 67, 0
3, 32880, Note_on_c, 1, 67, 80
3, 33119, Note_on_c, 1, 67, 0
3, 33120, Note_on_c, 1, 64, 80
3, 33599, Note_on_c, 1, 64, 0
3, 33600, Note_on_c, 1, 67, 80
3, 34079, Note_on_c, 1, 67, 0
3, 34080, Note_on_c, 1, 64, 80
3, 34559, Note_on_c, 1, 64, 0
3, 34560, Note_on_c, 1, 57, 80
3, 35519, Note_on_c, 1, 57, 0
3, 35520, Note_on_c, 1, 57, 80
3, 35999, Note_on_c, 1, 57, 0
3, 36000, Note_on_c, 1, 64, 80
3, 36239, Note_on_c, 1, 64, 0
3, 36240, Note_on_c, 1, 67, 80
3, 36719, Note_on_c, 1, 67, 0
3, 36720, Note_on_c, 1, 67, 80
3, 36959, Note_on_c, 1, 67, 0
3, 36960, Note_on_c, 1, 64, 80
3, 37439, Note_on_c, 1, 64, 0
3, 37440, Note_on_c, 1, 67, 80
3, 37919, Note_on_c, 1, 67, 0
3, 37920, Note_on_c, 1, 64, 80
3, 38399, Note_on_c, 1, 64, 0
3, 38400, Note_on_c, 1, 60, 80
3, 39359, Note_on_c, 1, 60, 0
3, 39360, Note_on_c, 1, 60, 80
3, 39839, Note_on_c, 1, 60, 0
3, 39840, Note_on_c, 1, 64, 80
3, 40079, Note_on_c, 1, 64, 0
3, 40080, Note_on_c, 1, 67, 80
3, 40319, Note_on_c, 1, 67, 0
3, 40320, Note_on_c, 1, 67, 80
3, 40559, Note_on_c, 1, 67, 0
3, 40560, Note_on_c, 1, 67, 80
3, 40799, Note_on_c, 1, 67, 0
3, 40800, Note_on_c, 1, 64, 80
3, 41279, Note_on_c, 1, 64, 0
3, 41280, Note_on_c, 1, 67, 80
3, 41759, Note_on_c, 1, 67, 0
3, 41760, Note_on_c, 1, 64, 80
3, 42239, Note_on_c, 1, 64, 0
3, 42240, Note_on_c, 1, 57, 80
3, 43199, Note_on_c, 1, 57, 0
3, 43200, Note_on_c, 1, 57, 80
3, 43679, Note_on_c, 1, 57, 0
3, 43680, Note_on_c, 1, 64, 80
3, 43919, Note_on_c, 1, 64, 0
3, 43920, Note_on_c, 1, 67, 80
3, 44399, Note_on_c, 1, 67, 0
3, 44400, Note_on_c, 1, 67, 80
3, 44639, Note_on_c, 1, 67, 0
3, 44640, Note_on_c, 1, 64, 80
3, 45119, Note_on_c, 1, 64, 0
3, 45120, Note_on_c, 1, 67, 80
3, 45599, Note_on_c, 1, 67, 0
3, 45600, Note_on_c, 1, 64, 80
3, 46079, Note_on_c, 1, 64, 0
3, 46080, Note_on_c, 1, 60, 80
3, 47039, Note_on_c, 1, 60, 0
3, 47040, Note_on_c, 1, 60, 80
3, 47519, Note_on_c, 1, 60, 0
3, 47520, Note_on_c, 1, 64, 80
3, 47759, Note_on_c, 1, 64, 0
3, 47760, Note_on_c, 1, 67, 80
3, 48239, Note_on_c, 1, 67, 0
3, 48240, Note_on_c, 1, 67, 80
3, 48479, Note_on_c, 1, 67, 0
3, 48480, Note_on_c, 1, 64, 80
3, 48959, Note_on_c, 1, 64, 0
3, 48960, Note_on_c, 1, 67, 80
3, 49439, Note_on_c, 1, 67, 0
3, 49440, Note_on_c, 1, 64, 80
3, 49919, Note_on_c, 1, 64, 0
3, 49920, Note_on_c, 1, 57, 80
3, 50879, Note_on_c, 1, 57, 0
3, 50880, Note_on_c, 1, 57, 80
3, 51359, Note_on_c, 1, 57, 0
3, 51360, Note_on_c, 1, 64, 80
3, 51599, Note_on_c, 1, 64, 0
3, 51600, Note_on_c, 1, 67, 80
3, 52079, Note_on_c, 1, 67, 0
3, 52080, Note_on_c, 1, 67, 80
3, 52319, Note_on_c, 1, 67, 0
3, 52320, Note_on_c, 1, 64, 80
3, 52799, Note_on_c, 1, 64, 0
3, 52800, Note_on_c, 1, 67, 80
3, 53279, Note_on_c, 1, 67, 0
3, 53280, Note_on_c, 1, 64, 80
3, 53759, Note_on_c, 1, 64, 0
3, 53760, Note_on_c, 1, 60, 80
3, 54719, Note_on_c, 1, 60, 0
3, 54720, Note_on_c, 1, 60, 80
3, 55199, Note_on_c, 1, 60, 0
3, 55200, Note_on_c, 1, 64, 80
3, 55439, Note_on_c, 1, 64, 0
3, 55440, Note_on_c, 1, 67, 80
3, 55919, Note_on_c, 1, 67, 0
3, 55920, Note_on_c, 1, 67, 80
3, 56159, Note_on_c, 1, 67, 0
3, 56160, Note_on_c, 1, 64, 80
3, 56639, Note_on_c, 1, 64, 0
3, 56640, Note_on_c, 1, 67, 80
3, 57119, Note_on_c, 1, 67, 0
3, 57120, Note_on_c, 1, 64, 80
3, 57599, Note_on_c, 1, 64, 0
3, 57600, Note_on_c, 1, 57, 80
3, 58559, Note_on_c, 1, 57, 0
3, 58560, Note_on_c, 1, 57, 80
3, 59039, Note_on_c, 1, 57, 0
3, 59040, Note_on_c, 1, 64, 80
3, 59279, Note_on_c, 1, 64, 0
3, 59280, Note_on_c, 1, 67, 80
3, 59759, Note_on_c, 1, 67, 0
3, 59760, Note_on_c, 1, 67, 80
3, 59999, Note_on_c, 1, 67, 0
3, 60000, Note_on_c, 1, 64, 80
3, 60479, Note_on_c, 1, 64, 0
3, 60480, Note_on_c, 1, 67, 80
3, 60959, Note_on_c, 1, 67, 0
3, 60960, Note_on_c, 1, 64, 80
3, 61439, Note_on_c, 1, 64, 0
3, 61440, Note_on_c, 1, 60, 80
3, 61919, Note_on_c, 1, 60, 0
3, 61920, Note_on_c, 1, 60, 80
3, 62399, Note_on_c, 1, 60, 0
3, 62400, Note_on_c, 1, 60, 80
3, 62879, Note_on_c, 1, 60, 0
3, 62880, Note_on_c, 1, 60, 80
3, 63359, Note_on_c, 1, 60, 0
3, 63360, Note_on_c, 1, 60, 80
3, 63839, Note_on_c, 1, 60, 0
3, 63840, Note_on_c, 1, 60, 80
3, 64319, Note_on_c, 1, 60, 0
3, 64320, Note_on_c, 1, 60, 80
3, 64799, Note_on_c, 1, 60, 0
3, 64800, Note_on_c, 1, 60, 80
3, 65279, Note_on_c, 1, 60, 0
3, 65280, Note_on_c, 1, 60, 80
3, 65759, Note_on_c, 1, 60, 0
3, 65760, Note_on_c, 1, 60, 80
3, 66239, Note_on_c, 1, 60, 0
3, 66240, Note_on_c, 1, 60, 80
3, 66719, Note_on_c, 1, 60, 0
3, 66720, Note_on_c, 1, 60, 80
3, 67199, Note_on_c, 1, 60, 0
3, 67200, Note_on_c, 1, 60, 80
3, 67679, Note_on_c, 1, 60, 0
3, 67680, Note_on_c, 1, 60, 80
3, 68159, Note_on_c, 1, 60, 0
3, 68160, Note_on_c, 1, 60, 80
3, 68639, Note_on_c, 1, 60, 0
3, 68640, Note_on_c, 1, 60, 80
3, 69119, Note_on_c, 1, 60, 0
3, 69120, Note_on_c, 1, 57, 80
3, 69599, Note_on_c, 1, 57, 0
3, 69600, Note_on_c, 1, 57, 80
3, 70079, Note_on_c, 1, 57, 0
3, 70080, Note_on_c, 1, 57, 80
3, 70559, Note_on_c, 1, 57, 0
3, 70560, Note_on_c, 1, 57, 80
3, 71039, Note_on_c, 1, 57, 0
3, 71040, Note_on_c, 1, 57, 80
3, 71519, Note_on_c, 1, 57, 0
3, 71520, Note_on_c, 1, 57, 80
3, 71999, Note_on_c, 1, 57, 0
3, 72000, Note_on_c, 1, 57, 80
3, 72479, Note_on_c, 1, 57, 0
3, 72480, Note_on_c, 1, 57, 80
3, 72959, Note_on_c, 1, 57, 0
3, 72960, Note_on_c, 1, 57, 80
3, 73439, Note_on_c, 1, 57, 0
3, 73440, Note_on_c, 1, 57, 80
3, 73919, Note_on_c, 1, 57, 0
3, 73920, Note_on_c, 1, 57, 80
3, 74399, Note_on_c, 1, 57, 0
3, 74400, Note_on_c, 1, 57, 80
3, 74879, Note_on_c, 1, 57, 0
3, 74880, Note_on_c, 1, 57, 80
3, 75359, Note_on_c, 1, 57, 0
3, 75360, Note_on_c, 1, 57, 80
3, 75839, Note_on_c, 1, 57, 0
3, 75840, Note_on_c, 1, 55, 80
3, 76079, Note_on_c, 1, 55, 0
3, 76080, Note_on_c, 1, 55, 80
3, 76319, Note_on_c, 1, 55, 0
3, 76320, Note_on_c, 1, 55, 80
3, 76559, Note_on_c, 1, 55, 0
3, 76560, Note_on_c, 1, 55, 80
3, 76799, Note_on_c, 1, 55, 0
3, 76800, Note_on_c, 1, 60, 80
3, 77279, Note_on_c, 1, 60, 0
3, 77280, Note_on_c, 1, 60, 80
3, 77759, Note_on_c, 1, 60, 0
3, 77760, Note_on_c, 1, 60, 80
3, 78239, Note_on_c, 1, 60, 0
3, 78240, Note_on_c, 1, 60, 80
3, 78719, Note_on_c, 1, 60, 0
3, 78720, Note_on_c, 1, 60, 80
3, 79199, Note_on_c, 1, 60, 0
3, 79200, Note_on_c, 1, 60, 80
3, 79679, Note_on_c, 1, 60, 0
3, 79680, Note_on_c, 1, 60, 80
3, 80159, Note_on_c, 1, 60, 0
3, 80160, Note_on_c, 1, 60, 80
3, 80639, Note_on_c, 1, 60, 0
3, 80640, Note_on_c, 1, 60, 80
3, 81119, Note_on_c, 1, 60, 0
3, 81120, Note_on_c, 1, 60, 80
3, 81599, Note_on_c, 1, 60, 0
3, 81600, Note_on_c, 1, 60, 80
3, 82079, Note_on_c, 1, 60, 0
3, 82080, Note_on_c, 1, 60, 80
3, 82559, Note_on_c, 1, 60, 0
3, 82560, Note_on_c, 1, 60, 80
3, 83039, Note_on_c, 1, 60, 0
3, 83040, Note_on_c, 1, 60, 80
3, 83519, Note_on_c, 1, 60, 0
3, 83520, Note_on_c, 1, 60, 80
3, 83999, Note_on_c, 1, 60, 0
3, 84000, Note_on_c, 1, 60, 80
3, 84479, Note_on_c, 1, 60, 0
3, 84480, Note_on_c, 1, 57, 80
3, 84959, Note_on_c, 1, 57, 0
3, 84960, Note_on_c, 1, 57, 80
3, 85439, Note_on_c, 1, 57, 0
3, 85440, Note_on_c, 1, 57, 80
3, 85919, Note_on_c, 1, 57, 0
3, 85920, Note_on_c, 1, 57, 80
3, 86399, Note_on_c, 1, 57, 0
3, 86400, Note_on_c, 1, 57, 80
3, 86879, Note_on_c, 1, 57, 0
3, 86880, Note_on_c, 1, 57, 80
3, 87359, Note_on_c, 1, 57, 0
3, 87360, Note_on_c, 1, 57, 80
3, 87839, Note_on_c, 1, 57, 0
3, 87840, Note_on_c, 1, 57, 80
3, 88319, Note_on_c, 1, 57, 0
3, 88320, Note_on_c, 1, 57, 80
3, 88799, Note_on_c, 1, 57, 0
3, 88800, Note_on_c, 1, 57, 80
3, 89279, Note_on_c, 1, 57, 0
3, 89280, Note_on_c, 1, 57, 80
3, 89759, Note_on_c, 1, 57, 0
3, 89760, Note_on_c, 1, 57, 80
3, 90239, Note_on_c, 1, 57, 0
3, 90240, Note_on_c, 1, 60, 80
3, 91199, Note_on_c, 1, 60, 0
3, 91200, Note_on_c, 1, 60, 80
3, 92159, Note_on_c, 1, 60, 0
3, 92160, Note_on_c, 1, 60, 80
3, 93119, Note_on_c, 1, 60, 0
3, 93120, Note_on_c, 1, 60, 80
3, 94079, Note_on_c, 1, 60, 0
3, 94080, Note_on_c, 1, 60, 80
3, 94319, Note_on_c, 1, 60, 0
3, 94320, Note_on_c, 1, 60, 80
3, 94559, Note_on_c, 1, 60, 0
3, 94560, Note_on_c, 1, 59, 80
3, 95039, Note_on_c, 1, 59, 0
3, 95040, Note_on_c, 1, 60, 80
3, 95519, Note_on_c, 1, 60, 0
3, 95520, Note_on_c, 1, 62, 80
3, 95999, Note_on_c, 1, 62, 0
3, 96000, Note_on_c, 1, 57, 80
3, 96479, Note_on_c, 1, 57, 0
3, 96480, Note_on_c, 1, 57, 80
3, 96959, Note_on_c, 1, 57, 0
3, 96960, Note_on_c, 1, 57, 80
3, 97439, Note_on_c, 1, 57, 0
3, 97440, Note_on_c, 1, 57, 80
3, 98159, Note_on_c, 1, 57, 0
3, 98160, Note_on_c, 1, 57, 80
3, 98399, Note_on_c, 1, 57, 0
3, 98400, Note_on_c, 1, 55, 80
3, 98879, Note_on_c, 1, 55, 0
3, 98880, Note_on_c, 1, 57, 80
3, 99359, Note_on_c, 1, 57, 0
3, 99360, Note_on_c, 1, 59, 80
3, 99839, Note_on_c, 1, 59, 0
3, 99840, Note_on_c, 1, 60, 80
3, 100319, Note_on_c, 1, 60, 0
3, 100320, Note_on_c, 1, 60, 80
3, 100799, Note_on_c, 1, 60, 0
3, 100800, Note_on_c, 1, 60, 80
3, 101279, Note_on_c, 1, 60, 0
3, 101280, Note_on_c, 1, 60, 80
3, 101759, Note_on_c, 1, 60, 0
3, 101760, Note_on_c, 1, 60, 80
3, 101999, Note_on_c, 1, 60, 0
3, 102000, Note_on_c, 1, 60, 80
3, 102239, Note_on_c, 1, 60, 0
3, 102240, Note_on_c, 1, 59, 80
3, 102719, Note_on_c, 1, 59, 0
3, 102720, Note_on_c, 1, 60, 80
3, 103199, Note_on_c, 1, 60, 0
3, 103200, Note_on_c, 1, 62, 80
3, 103679, Note_on_c, 1, 62, 0
3, 103680, Note_on_c, 1, 57, 80
3, 104159, Note_on_c, 1, 57, 0
3, 104160, Note_on_c, 1, 57, 80
3, 104639, Note_on_c, 1, 57, 0
3, 104640, Note_on_c, 1, 57, 80
3, 105119, Note_on_c, 1, 57, 0
3, 105120, Note_on_c, 1, 57, 80
3, 105839, Note_on_c, 1, 57, 0
3, 105840, Note_on_c, 1, 57, 80
3, 106079, Note_on_c, 1, 57, 0
3, 106080, Note_on_c, 1, 55, 80
3, 106559, Note_on_c, 1, 55, 0
3, 106560, Note_on_c, 1, 57, 80
3, 107039, Note_on_c, 1, 57, 0
3, 107040, Note_on_c, 1, 59, 80
3, 107519, Note_on_c, 1, 59, 0
3, 107520, Note_on_c, 1, 60, 80
3, 107999, Note_on_c, 1, 60, 0
3, 108000, Note_on_c, 1, 60, 80
3, 108479, Note_on_c, 1, 60, 0
3, 108480, Note_on_c, 1, 60, 80
3, 108959, Note_on_c, 1, 60, 0
3, 108960, Note_on_c, 1, 60, 80
3, 109439, Note_on_c, 1, 60, 0
3, 109440, Note_on_c, 1, 60, 80
3, 109679, Note_on_c, 1, 60, 0
3, 109680, Note_on_c, 1, 60, 80
3, 109919, Note_on_c, 1, 60, 0
3, 109920, Note_on_c, 1, 59, 80
3, 110399, Note_on_c, 1, 59, 0
3, 110400, Note_on_c, 1, 60, 80
3, 110879, Note_on_c, 1, 60, 0
3, 110880, Note_on_c, 1, 62, 80
3, 111359, Note_on_c, 1, 62, 0
3, 111360, Note_on_c, 1, 57, 80
3, 111839, Note_on_c, 1, 57, 0
3, 111840, Note_on_c, 1, 57, 80
3, 112319, Note_on_c, 1, 57, 0
3, 112320, Note_on_c, 1, 57, 80
3, 112799, Note_on_c, 1, 57, 0
3, 112800, Note_on_c, 1, 57, 80
3, 113279, Note_on_c, 1, 57, 0
3, 113280, Note_on_c, 1, 57, 80
3, 113519, Note_on_c, 1, 57, 0
3, 113520, Note_on_c, 1, 57, 80
3, 113759, Note_on_c, 1, 57, 0
3, 113760, Note_on_c, 1, 55, 80
3, 114239, Note_on_c, 1, 55, 0
3, 114240, Note_on_c, 1, 57, 80
3, 114719, Note_on_c, 1, 57, 0
3, 114720, Note_on_c, 1, 59, 80
3, 115199, Note_on_c, 1, 59, 0
3, 115200, Note_on_c, 1, 60, 80
3, 115679, Note_on_c, 1, 60, 0
3, 115680, Note_on_c, 1, 60, 80
3, 116159, Note_on_c, 1, 60, 0
3, 116160, Note_on_c, 1, 60, 80
3, 116639, Note_on_c, 1, 60, 0
3, 116640, Note_on_c, 1, 60, 80
3, 117119, Note_on_c, 1, 60, 0
3, 117120, Note_on_c, 1, 60, 80
3, 117359, Note_on_c, 1, 60, 0
3, 117360, Note_on_c, 1, 60, 80
3, 117599, Note_on_c, 1, 60, 0
3, 117600, Note_on_c, 1, 59, 80
3, 118079, Note_on_c, 1, 59, 0
3, 118080, Note_on_c, 1, 60, 80
3, 118559, Note_on_c, 1, 60, 0
3, 118560, Note_on_c, 1, 62, 80
3, 119039, Note_on_c, 1, 62, 0
3, 119040, Note_on_c, 1, 57, 80
3, 119519, Note_on_c, 1, 57, 0
3, 119520, Note_on_c, 1, 57, 80
3, 119999, Note_on_c, 1, 57, 0
3, 120000, Note_on_c, 1, 57, 80
3, 120479, Note_on_c, 1, 57, 0
3, 120480, Note_on_c, 1, 57, 80
3, 121199, Note_on_c, 1, 57, 0
3, 121200, Note_on_c, 1, 57, 80
3, 121439, Note_on_c, 1, 57, 0
3, 121440, Note_on_c, 1, 55, 80
3, 121919, Note_on_c, 1, 55, 0
3, 121920, Note_on_c, 1, 57, 80
3, 122399, Note_on_c, 1, 57, 0
3, 122400, Note_on_c, 1, 59, 80
3, 122879, Note_on_c, 1, 59, 0
3, 122880, Note_on_c, 1, 60, 80
3, 123839, Note_on_c, 1, 60, 0
3, 123840, Note_on_c, 1, 60, 80
3, 124319, Note_on_c, 1, 60, 0
3, 124320, Note_on_c, 1, 64, 80
3, 124559, Note_on_c, 1, 64, 0
3, 124560, Note_on_c, 1, 67, 80
3, 125039, Note_on_c, 1, 67, 0
3, 125040, Note_on_c, 1, 67, 80
3, 125279, Note_on_c, 1, 67, 0
3, 125280, Note_on_c, 1, 64, 80
3, 125759, Note_on_c, 1, 64, 0
3, 125760, Note_on_c, 1, 67, 80
3, 126239, Note_on_c, 1, 67, 0
3, 126240, Note_on_c, 1, 64, 80
3, 126719, Note_on_c, 1, 64, 0
3, 126720, Note_on_c, 1, 57, 80
3, 127679, Note_on_c, 1, 57, 0
3, 127680, Note_on_c, 1, 57, 80
3, 128159, Note_on_c, 1, 57, 0
3, 128160, Note_on_c, 1, 64, 80
3, 128399, Note_on_c, 1, 64, 0
3, 128400, Note_on_c, 1, 67, 80
3, 128879, Note_on_c, 1, 67, 0
3, 128880, Note_on_c, 1, 67, 80
3, 129119, Note_on_c, 1, 67, 0
3, 129120, Note_on_c, 1, 64, 80
3, 129599, Note_on_c, 1, 64, 0
3, 129600, Note_on_c, 1, 67, 80
3, 130079, Note_on_c, 1, 67, 0
3, 130080, Note_on_c, 1, 64, 80
3, 130559, Note_on_c, 1, 64, 0
3, 130560, Note_on_c, 1, 60, 80
3, 131519, Note_on_c, 1, 60, 0
3, 131520, Note_on_c, 1, 60, 80
3, 131999, Note_on_c, 1, 60, 0
3, 132000, Note_on_c, 1, 64, 80
3, 132239, Note_on_c, 1, 64, 0
3, 132240, Note_on_c, 1, 67, 80
3, 132479, Note_on_c, 1, 67, 0
3, 132480, Note_on_c, 1, 67, 80
3, 132719, Note_on_c, 1, 67, 0
3, 132720, Note_on_c, 1, 67, 80
3, 132959, Note_on_c, 1, 67, 0
3, 132960, Note_on_c, 1, 64, 80
3, 133439, Note_on_c, 1, 64, 0
3, 133440, Note_on_c, 1, 67, 80
3, 133919, Note_on_c, 1, 67, 0
3, 133920, Note_on_c, 1, 64, 80
3, 134399, Note_on_c, 1, 64, 0
3, 134400, Note_on_c, 1, 57, 80
3, 135359, Note_on_c, 1, 57, 0
3, 135360, Note_on_c, 1, 57, 80
3, 135839, Note_on_c, 1, 57, 0
3, 135840, Note_on_c, 1, 64, 80
3, 136079, Note_on_c, 1, 64, 0
3, 136080, Note_on_c, 1, 67, 80
3, 136559, Note_on_c, 1, 67, 0
3, 136560, Note_on_c, 1, 67, 80
3, 136799, Note_on_c, 1, 67, 0
3, 136800, Note_on_c, 1, 64, 80
3, 137279, Note_on_c, 1, 64, 0
3, 137280, Note_on_c, 1, 67, 80
3, 137759, Note_on_c, 1, 67, 0
3, 137760, Note_on_c, 1, 64, 80
3, 138239, Note_on_c, 1, 64, 0
3, 138240, Note_on_c, 1, 60, 80
3, 139199, Note_on_c, 1, 60, 0
3, 139200, Note_on_c, 1, 60, 80
3, 139679, Note_on_c, 1, 60, 0
3, 139680, Note_on_c, 1, 64, 80
3, 139919, Note_on_c, 1, 64, 0
3, 139920, Note_on_c, 1, 67, 80
3, 140159, Note_on_c, 1, 67, 0
3, 140160, Note_on_c, 1, 67, 80
3, 140399, Note_on_c, 1, 67, 0
3, 140400, Note_on_c, 1, 67, 80
3, 140639, Note_on_c, 1, 67, 0
3, 140640, Note_on_c, 1, 64, 80
3, 141119, Note_on_c, 1, 64, 0
3, 141120, Note_on_c, 1, 67, 80
3, 141599, Note_on_c, 1, 67, 0
3, 141600, Note_on_c, 1, 64, 80
3, 142079, Note_on_c, 1, 64, 0
3, 142080, Note_on_c, 1, 57, 80
3, 143039, Note_on_c, 1, 57, 0
3, 143040, Note_on_c, 1, 57, 80
3, 143519, Note_on_c, 1, 57, 0
3, 143520, Note_on_c, 1, 64, 80
3, 143759, Note_on_c, 1, 64, 0
3, 143760, Note_on_c, 1, 67, 80
3, 144239, Note_on_c, 1, 67, 0
3, 144240, Note_on_c, 1, 67, 80
3, 144479, Note_on_c, 1, 67, 0
3, 144480, Note_on_c, 1, 64, 80
3, 144959, Note_on_c, 1, 64, 0
3, 144960, Note_on_c, 1, 67, 80
3, 145439, Note_on_c, 1, 67, 0
3, 145440, Note_on_c, 1, 64, 80
3, 145919, Note_on_c, 1, 64, 0
3, 145920, Note_on_c, 1, 60, 80
3, 146879, Note_on_c, 1, 60, 0
3, 146880, Note_on_c, 1, 60, 80
3, 147359, Note_on_c, 1, 60, 0
3, 147360, Note_on_c, 1, 64, 80
3, 147599, Note_on_c, 1, 64, 0
3, 147600, Note_on_c, 1, 67, 80
3, 147839, Note_on_c, 1, 67, 0
3, 147840, Note_on_c, 1, 67, 80
3, 148079, Note_on_c, 1, 67, 0
3, 148080, Note_on_c, 1, 67, 80
3, 148319, Note_on_c, 1, 67, 0
3, 148320, Note_on_c, 1, 64, 80
3, 148799, Note_on_c, 1, 64, 0
3, 148800, Note_on_c, 1, 67, 80
3, 149279, Note_on_c, 1, 67, 0
3, 149280, Note_on_c, 1, 64, 80
3, 149759, Note_on_c, 1, 64, 0
3, 149760, Note_on_c, 1, 57, 80
3, 150719, Note_on_c, 1, 57, 0
3, 150720, Note_on_c, 1, 57, 80
3, 151199, Note_on_c, 1, 57, 0
3, 151200, Note_on_c, 1, 64, 80
3, 151439, Note_on_c, 1, 64, 0
3, 151440, Note_on_c, 1, 67, 80
3, 151919, Note_on_c, 1, 67, 0
3, 151920, Note_on_c, 1, 67, 80
3, 152159, Note_on_c, 1, 67, 0
3, 152160, Note_on_c, 1, 64, 80
3, 152639, Note_on_c, 1, 64, 0
3, 152640, Note_on_c, 1, 67, 80
3, 153119, Note_on_c, 1, 67, 0
3, 153120, Note_on_c, 1, 64, 80
3, 153599, Note_on_c, 1, 64, 0
3, 153600, Note_on_c, 1, 60, 80
3, 154559, Note_on_c, 1, 60, 0
3, 154560, Note_on_c, 1, 60, 80
3, 155039, Note_on_c, 1, 60, 0
3, 155040, Note_on_c, 1, 64, 80
3, 155279, Note_on_c, 1, 64, 0
3, 155280, Note_on_c, 1, 67, 80
3, 155519, Note_on_c, 1, 67, 0
3, 155520, Note_on_c, 1, 67, 80
3, 155759, Note_on_c, 1, 67, 0
3, 155760, Note_on_c, 1, 67, 80
3, 155999, Note_on_c, 1, 67, 0
3, 156000, Note_on_c, 1, 64, 80
3, 156479, Note_on_c, 1, 64, 0
3, 156480, Note_on_c, 1, 67, 80
3, 156959, Note_on_c, 1, 67, 0
3, 156960, Note_on_c, 1, 64, 80
3, 157439, Note_on_c, 1, 64, 0
3, 157440, Note_on_c, 1, 57, 80
3, 158399, Note_on_c, 1, 57, 0
3, 158400, Note_on_c, 1, 57, 80
3, 158879, Note_on_c, 1, 57, 0
3, 158880, Note_on_c, 1, 64, 80
3, 159119, Note_on_c, 1, 64, 0
3, 159120, Note_on_c, 1, 67, 80
3, 159599, Note_on_c, 1, 67, 0
3, 159600, Note_on_c, 1, 67, 80
3, 159839, Note_on_c, 1, 67, 0
3, 159840, Note_on_c, 1, 64, 80
3, 160319, Note_on_c, 1, 64, 0
3, 160320, Note_on_c, 1, 67, 80
3, 160799, Note_on_c, 1, 67, 0
3, 160800, Note_on_c, 1, 64, 80
3, 161279, Note_on_c, 1, 64, 0
3, 161280, Note_on_c, 1, 60, 80
3, 162239, Note_on_c, 1, 60, 0
3, 162240, Note_on_c, 1, 60, 80
3, 162719, Note_on_c, 1, 60, 0
3, 162720, Note_on_c, 1, 64, 80
3, 162959, Note_on_c, 1, 64, 0
3, 162960, Note_on_c, 1, 67, 80
3, 163199, Note_on_c, 1, 67, 0
3, 163200, Note_on_c, 1, 67, 80
3, 163439, Note_on_c, 1, 67, 0
3, 163440, Note_on_c, 1, 67, 80
3, 163679, Note_on_c, 1, 67, 0
3, 163680, Note_on_c, 1, 64, 80
3, 164159, Note_on_c, 1, 64, 0
3, 164160, Note_on_c, 1, 67, 80
3, 164639, Note_on_c, 1, 67, 0
3, 164640, Note_on_c, 1, 64, 80
3, 165119, Note_on_c, 1, 64, 0
3, 165120, Note_on_c, 1, 57, 80
3, 166079, Note_on_c, 1, 57, 0
3, 166080, Note_on_c, 1, 57, 80
3, 166559, Note_on_c, 1, 57, 0
3, 166560, Note_on_c, 1, 64, 80
3, 166799, Note_on_c, 1, 64, 0
3, 166800, Note_on_c, 1, 67, 80
3, 167279, Note_on_c, 1, 67, 0
3, 167280, Note_on_c, 1, 67, 80
3, 167519, Note_on_c, 1, 67, 0
3, 167520, Note_on_c, 1, 64, 80
3, 167999, Note_on_c, 1, 64, 0
3, 168000, Note_on_c, 1, 67, 80
3, 168479, Note_on_c, 1, 67, 0
3, 168480, Note_on_c, 1, 64, 80
3, 168959, Note_on_c, 1, 64, 0
3, 168960, Note_on_c, 1, 60, 80
3, 169439, Note_on_c, 1, 60, 0
3, 169440, Note_on_c, 1, 60, 80
3, 169919, Note_on_c, 1, 60, 0
3, 169920, Note_on_c, 1, 60, 80
3, 170399, Note_on_c, 1, 60, 0
3, 170400, Note_on_c, 1, 60, 80
3, 170879, Note_on_c, 1, 60, 0
3, 170880, Note_on_c, 1, 60, 80
3, 171359, Note_on_c, 1, 60, 0
3, 171360, Note_on_c, 1, 60, 80
3, 171839, Note_on_c, 1, 60, 0
3, 171840, Note_on_c, 1, 60, 80
3, 172319, Note_on_c, 1, 60, 0
3, 172320, Note_on_c, 1, 60, 80
3, 172799, Note_on_c, 1, 60, 0
3, 172800, Note_on_c, 1, 60, 80
3, 173279, Note_on_c, 1, 60, 0
3, 173280, Note_on_c, 1, 60, 80
3, 173759, Note_on_c, 1, 60, 0
3, 173760, Note_on_c, 1, 60, 80
3, 174239, Note_on_c, 1, 60, 0
3, 174240, Note_on_c, 1, 60, 80
3, 174719, Note_on_c, 1, 60, 0
3, 174720, Note_on_c, 1, 60, 80
3, 175199, Note_on_c, 1, 60, 0
3, 175200, Note_on_c, 1, 60, 80
3, 175679, Note_on_c, 1, 60, 0
3, 175680, Note_on_c, 1, 60, 80
3, 176159, Note_on_c, 1, 60, 0
3, 176160, Note_on_c, 1, 60, 80
3, 176639, Note_on_c, 1, 60, 0
3, 176640, Note_on_c, 1, 57, 80
3, 177119, Note_on_c, 1, 57, 0
3, 177120, Note_on_c, 1, 57, 80
3, 177599, Note_on_c, 1, 57, 0
3, 177600, Note_on_c, 1, 57, 80
3, 178079, Note_on_c, 1, 57, 0
3, 178080, Note_on_c, 1, 57, 80
3, 178559, Note_on_c, 1, 57, 0
3, 178560, Note_on_c, 1, 57, 80
3, 179039, Note_on_c, 1, 57, 0
3, 179040, Note_on_c, 1, 57, 80
3, 179519, Note_on_c, 1, 57, 0
3, 179520, Note_on_c, 1, 57, 80
3, 179999, Note_on_c, 1, 57, 0
3, 180000, Note_on_c, 1, 57, 80
3, 180479, Note_on_c, 1, 57, 0
3, 180480, Note_on_c, 1, 57, 80
3, 180959, Note_on_c, 1, 57, 0
3, 180960, Note_on_c, 1, 57, 80
3, 181439, Note_on_c, 1, 57, 0
3, 181440, Note_on_c, 1, 57, 80
3, 181919, Note_on_c, 1, 57, 0
3, 181920, Note_on_c, 1, 57, 80
3, 182399, Note_on_c, 1, 57, 0
3, 182400, Note_on_c, 1, 57, 80
3, 182879, Note_on_c, 1, 57, 0
3, 182880, Note_on_c, 1, 57, 80
3, 183359, Note_on_c, 1, 57, 0
3, 183360, Note_on_c, 1, 55, 80
3, 183599, Note_on_c, 1, 55, 0
3, 183600, Note_on_c, 1, 55, 80
3, 183839, Note_on_c, 1, 55, 0
3, 183840, Note_on_c, 1, 55, 80
3, 184079, Note_on_c, 1, 55, 0
3, 184080, Note_on_c, 1, 55, 80
3, 184319, Note_on_c, 1, 55, 0
3, 184320, Note_on_c, 1, 60, 80
3, 184799, Note_on_c, 1, 60, 0
3, 184800, Note_on_c, 1, 60, 80
3, 185279, Note_on_c, 1, 60, 0
3, 185280, Note_on_c, 1, 60, 80
3, 185759, Note_on_c, 1, 60, 0
3, 185760, Note_on_c, 1, 60, 80
3, 186239, Note_on_c, 1, 60, 0
3, 186240, Note_on_c, 1, 60, 80
3, 186719, Note_on_c, 1, 60, 0
3, 186720, Note_on_c, 1, 60, 80
3, 187199, Note_on_c, 1, 60, 0
3, 187200, Note_on_c, 1, 60, 80
3, 187679, Note_on_c, 1, 60, 0
3, 187680, Note_on_c, 1, 60, 80
3, 188159, Note_on_c, 1, 60, 0
3, 188160, Note_on_c, 1, 60, 80
3, 188639, Note_on_c, 1, 60, 0
3, 188640, Note_on_c, 1, 60, 80
3, 189119, Note_on_c, 1, 60, 0
3, 189120, Note_on_c, 1, 60, 80
3, 189599, Note_on_c, 1, 60, 0
3, 189600, Note_on_c, 1, 60, 80
3, 190079, Note_on_c, 1, 60, 0
3, 190080, Note_on_c, 1, 60, 80
3, 190559, Note_on_c, 1, 60, 0
3, 190560, Note_on_c, 1, 60, 80
3, 191039, Note_on_c, 1, 60, 0
3, 191040, Note_on_c, 1, 60, 80
3, 191519, Note_on_c, 1, 60, 0
3, 191520, Note_on_c, 1, 60, 80
3, 191999, Note_on_c, 1, 60, 0
3, 192000, Note_on_c, 1, 57, 80
3, 192479, Note_on_c, 1, 57, 0
3, 192480, Note_on_c, 1, 57, 80
3, 192959, Note_on_c, 1, 57, 0
3, 192960, Note_on_c, 1, 57, 80
3, 193439, Note_on_c, 1, 57, 0
3, 193440, Note_on_c, 1, 57, 80
3, 193919, Note_on_c, 1, 57, 0
3, 193920, Note_on_c, 1, 57, 80
3, 194399, Note_on_c, 1, 57, 0
3, 194400, Note_on_c, 1, 57, 80
3, 194879, Note_on_c, 1, 57, 0
3, 194880, Note_on_c, 1, 57, 80
3, 195359, Note_on_c, 1, 57, 0
3, 195360, Note_on_c, 1, 57, 80
3, 195839, Note_on_c, 1, 57, 0
3, 195840, Note_on_c, 1, 57, 80
3, 196319, Note_on_c, 1, 57, 0
3, 196320, Note_on_c, 1, 57, 80
3, 196799, Note_on_c, 1, 57, 0
3, 196800, Note_on_c, 1, 57, 80
3, 197279, Note_on_c, 1, 57, 0
3, 197280, Note_on_c, 1, 57, 80
3, 197759, Note_on_c, 1, 57, 0
3, 197760, Note_on_c, 1, 60, 80
3, 198719, Note_on_c, 1, 60, 0
3, 198720, Note_on_c, 1, 60, 80
3, 199679, Note_on_c, 1, 60, 0
3, 199680, Note_on_c, 1, 60, 80
3, 200639, Note_on_c, 1, 60, 0
3, 200640, Note_on_c, 1, 60, 80
3, 201599, Note_on_c, 1, 60, 0
3, 201600, Note_on_c, 1, 60, 80
3, 201839, Note_on_c, 1, 60, 0
3, 201840, Note_on_c, 1, 60, 80
3, 202079, Note_on_c, 1, 60, 0
3, 202080, Note_on_c, 1, 59, 80
3, 202559, Note_on_c, 1, 59, 0
3, 202560, Note_on_c, 1, 60, 80
3, 203039, Note_on_c, 1, 60, 0
3, 203040, Note_on_c, 1, 62, 80
3, 203519, Note_on_c, 1, 62, 0
3, 203520, Note_on_c, 1, 57, 80
3, 203999, Note_on_c, 1, 57, 0
3, 204000, Note_on_c, 1, 57, 80
3, 204479, Note_on_c, 1, 57, 0
3, 204480, Note_on_c, 1, 57, 80
3, 204959, Note_on_c, 1, 57, 0
3, 204960, Note_on_c, 1, 57, 80
3, 205679, Note_on_c, 1, 57, 0
3, 205680, Note_on_c, 1, 57, 80
3, 205919, Note_on_c, 1, 57, 0
3, 205920, Note_on_c, 1, 55, 80
3, 206399, Note_on_c, 1, 55, 0
3, 206400, Note_on_c, 1, 57, 80
3, 206879, Note_on_c, 1, 57, 0
3, 206880, Note_on_c, 1, 59, 80
3, 207359, Note_on_c, 1, 59, 0
3, 207360, Note_on_c, 1, 60, 80
3, 207839, Note_on_c, 1, 60, 0
3, 207840, Note_on_c, 1, 60, 80
3, 208319, Note_on_c, 1, 60, 0
3, 208320, Note_on_c, 1, 60, 80
3, 208799, Note_on_c, 1, 60, 0
3, 208800, Note_on_c, 1, 60, 80
3, 209279, Note_on_c, 1, 60, 0
3, 209280, Note_on_c, 1, 60, 80
3, 209519, Note_on_c, 1, 60, 0
3, 209520, Note_on_c, 1, 60, 80
3, 209759, Note_on_c, 1, 60, 0
3, 209760, Note_on_c, 1, 59, 80
3, 210239, Note_on_c, 1, 59, 0
3, 210240, Note_on_c, 1, 60, 80
3, 210719, Note_on_c, 1, 60, 0
3, 210720, Note_on_c, 1, 62, 80
3, 211199, Note_on_c, 1, 62, 0
3, 211200, Note_on_c, 1, 57, 80
3, 211679, Note_on_c, 1, 57, 0
3, 211680, Note_on_c, 1, 57, 80
3, 212159, Note_on_c, 1, 57, 0
3, 212160, Note_on_c, 1, 57, 80
3, 212639, Note_on_c, 1, 57, 0
3, 212640, Note_on_c, 1, 57, 80
3, 213359, Note_on_c, 1, 57, 0
3, 213360, Note_on_c, 1, 57, 80
3, 213599, Note_on_c, 1, 57, 0
3, 213600, Note_on_c, 1, 55, 80
3, 214079, Note_on_c, 1, 55, 0
3, 214080, Note_on_c, 1, 57, 80
3, 214559, Note_on_c, 1, 57, 0
3, 214560, Note_on_c, 1, 59, 80
3, 215039, Note_on_c, 1, 59, 0
3, 215040, Note_on_c, 1, 60, 80
3, 215519, Note_on_c, 1, 60, 0
3, 215520, Note_on_c, 1, 60, 80
3, 215999, Note_on_c, 1, 60, 0
3, 216000, Note_on_c, 1, 60, 80
3, 216479, Note_on_c, 1, 60, 0
3, 216480, Note_on_c, 1, 60, 80
3, 216959, Note_on_c, 1, 60, 0
3, 216960, Note_on_c, 1, 60, 80
3, 217199, Note_on_c, 1, 60, 0
3, 217200, Note_on_c, 1, 60, 80
3, 217439, Note_on_c, 1, 60, 0
3, 217440, Note_on_c, 1, 59, 80
3, 217919, Note_on_c, 1, 59, 0
3, 217920, Note_on_c, 1, 60, 80
3, 218399, Note_on_c, 1, 60, 0
3, 218400, Note_on_c, 1, 62, 80
3, 218879, Note_on_c, 1, 62, 0
3, 218880, Note_on_c, 1, 57, 80
3, 220799, Note_on_c, 1, 57, 0
3, 220800, End_track
4, 0, Start_track
4, 0, Title_t, "Chimes, Bell\000"
4, 0, Key_signature, 0, "major"
4, 0, Control_c, 2, 121, 0
4, 0, Program_c, 2, 14
4, 0, Control_c, 2, 7, 100
4, 0, Control_c, 2, 10, 64
4, 0, Control_c, 2, 91, 0
4, 0, Control_c, 2, 93, 0
4, 0, MIDI_port, 0
4, 67440, Note_on_c, 2, 76, 80
4, 67679, Note_on_c, 2, 76, 0
4, 67680, Note_on_c, 2, 76, 80
4, 67919, Note_on_c, 2, 76, 0
4, 67920, Note_on_c, 2, 76, 80
4, 68159, Note_on_c, 2, 76, 0
4, 68160, Note_on_c, 2, 76, 80
4, 68399, Note_on_c, 2, 76, 0
4, 68400, Note_on_c, 2, 76, 80
4, 68639, Note_on_c, 2, 76, 0
4, 68640, Note_on_c, 2, 72, 80
4, 69119, Note_on_c, 2, 72, 0
4, 69120, Note_on_c, 2, 71, 80
4, 69839, Note_on_c, 2, 71, 0
4, 69840, Note_on_c, 2, 69, 80
4, 70079, Note_on_c, 2, 69, 0
4, 82800, Note_on_c, 2, 76, 80
4, 83039, Note_on_c, 2, 76, 0
4, 83040, Note_on_c, 2, 76, 80
4, 83279, Note_on_c, 2, 76, 0
4, 83280, Note_on_c, 2, 76, 80
4, 83519, Note_on_c, 2, 76, 0
4, 83520, Note_on_c, 2, 76, 80
4, 83759, Note_on_c, 2, 76, 0
4, 83760, Note_on_c, 2, 76, 80
4, 83999, Note_on_c, 2, 76, 0
4, 84000, Note_on_c, 2, 72, 80
4, 84239, Note_on_c, 2, 72, 0
4, 84240, Note_on_c, 2, 79, 80
4, 84719, Note_on_c, 2, 79, 0
4, 84960, Note_on_c, 2, 76, 80
4, 85439, Note_on_c, 2, 76, 0
4, 174960, Note_on_c, 2, 76, 80
4, 175199, Note_on_c, 2, 76, 0
4, 175200, Note_on_c, 2, 76, 80
4, 175439, Note_on_c, 2, 76, 0
4, 175440, Note_on_c, 2, 76, 80
4, 175679, Note_on_c, 2, 76, 0
4, 175680, Note_on_c, 2, 76, 80
4, 175919, Note_on_c, 2, 76, 0
4, 175920, Note_on_c, 2, 76, 80
4, 176159, Note_on_c, 2, 76, 0
4, 176160, Note_on_c, 2, 72, 80
4, 176639, Note_on_c, 2, 72, 0
4, 176640, Note_on_c, 2, 71, 80
4, 177359, Note_on_c, 2, 71, 0
4, 177360, Note_on_c, 2, 69, 80
4, 177599, Note_on_c, 2, 69, 0
4, 190320, Note_on_c, 2, 76, 80
4, 190559, Note_on_c, 2, 76, 0
4, 190560, Note_on_c, 2, 76, 80
4, 190799, Note_on_c, 2, 76, 0
4, 190800, Note_on_c, 2, 76, 80
4, 191039, Note_on_c, 2, 76, 0
4, 191040, Note_on_c, 2, 76, 80
4, 191279, Note_on_c, 2, 76, 0
4, 191280, Note_on_c, 2, 76, 80
4, 191519, Note_on_c, 2, 76, 0
4, 191520, Note_on_c, 2, 72, 80
4, 191759, Note_on_c, 2, 72, 0
4, 191760, Note_on_c, 2, 79, 80
4, 192239, Note_on_c, 2, 79, 0
4, 192480, Note_on_c, 2, 76, 80
4, 192959, Note_on_c, 2, 76, 0
4, 192960, End_track
5, 0, Start_track
5, 0, Title_t, "Classical Guitar, Lute\000"
5, 0, Key_signature, 0, "major"
5, 0, Control_c, 3, 121, 0
5, 0, Program_c, 3, 24
5, 0, Control_c, 3, 7, 100
5, 0, Control_c, 3, 10, 64
5, 0, Control_c, 3, 91, 0
5, 0, Control_c, 3, 93, 0
5, 0, MIDI_port, 0
5, 0, Note_on_c, 3, 55, 64
5, 0, Control_c, 6, 121, 0
5, 0, Program_c, 6, 28
5, 0, Control_c, 6, 7, 100
5, 0, Control_c, 6, 10, 64
5, 0, Control_c, 6, 91, 0
5, 0, Control_c, 6, 93, 0
5, 0, MIDI_port, 0
5, 479, Note_on_c, 3, 55, 0
5, 480, Note_on_c, 3, 64, 64
5, 959, Note_on_c, 3, 64, 0
5, 960, Note_on_c, 3, 55, 64
5, 1439, Note_on_c, 3, 55, 0
5, 1440, Note_on_c, 3, 64, 64
5, 1679, Note_on_c, 3, 64, 0
5, 1680, Note_on_c, 3, 55, 64
5, 2159, Note_on_c, 3, 55, 0
5, 2160, Note_on_c, 3, 55, 64
5, 2399, Note_on_c, 3, 55, 0
5, 2400, Note_on_c, 3, 64, 64
5, 2879, Note_on_c, 3, 64, 0
5, 2880, Note_on_c, 3, 55, 64
5, 3359, Note_on_c, 3, 55, 0
5, 3360, Note_on_c, 3, 64, 64
5, 3839, Note_on_c, 3, 64, 0
5, 3840, Note_on_c, 3, 57, 64
5, 4319, Note_on_c, 3, 57, 0
5, 4320, Note_on_c, 3, 64, 64
5, 4799, Note_on_c, 3, 64, 0
5, 4800, Note_on_c, 3, 57, 64
5, 5279, Note_on_c, 3, 57, 0
5, 5280, Note_on_c, 3, 64, 64
5, 5519, Note_on_c, 3, 64, 0
5, 5520, Note_on_c, 3, 57, 64
5, 5999, Note_on_c, 3, 57, 0
5, 6000, Note_on_c, 3, 57, 64
5, 6239, Note_on_c, 3, 57, 0
5, 6240, Note_on_c, 3, 64, 64
5, 6719, Note_on_c, 3, 64, 0
5, 6720, Note_on_c, 3, 57, 64
5, 7199, Note_on_c, 3, 57, 0
5, 7200, Note_on_c, 3, 64, 64
5, 7679, Note_on_c, 3, 64, 0
5, 7680, Note_on_c, 3, 55, 64
5, 8159, Note_on_c, 3, 55, 0
5, 8160, Note_on_c, 3, 64, 64
5, 8639, Note_on_c, 3, 64, 0
5, 8640, Note_on_c, 3, 55, 64
5, 9119, Note_on_c, 3, 55, 0
5, 9120, Note_on_c, 3, 64, 64
5, 9359, Note_on_c, 3, 64, 0
5, 9360, Note_on_c, 3, 55, 64
5, 9839, Note_on_c, 3, 55, 0
5, 9840, Note_on_c, 3, 55, 64
5, 10079, Note_on_c, 3, 55, 0
5, 10080, Note_on_c, 3, 64, 64
5, 10559, Note_on_c, 3, 64, 0
5, 10560, Note_on_c, 3, 55, 64
5, 11039, Note_on_c, 3, 55, 0
5, 11040, Note_on_c, 3, 64, 64
5, 11519, Note_on_c, 3, 64, 0
5, 11520, Note_on_c, 3, 57, 64
5, 11999, Note_on_c, 3, 57, 0
5, 12000, Note_on_c, 3, 64, 64
5, 12479, Note_on_c, 3, 64, 0
5, 12480, Note_on_c, 3, 57, 64
5, 12959, Note_on_c, 3, 57, 0
5, 12960, Note_on_c, 3, 64, 64
5, 13199, Note_on_c, 3, 64, 0
5, 13200, Note_on_c, 3, 57, 64
5, 13679, Note_on_c, 3, 57, 0
5, 13680, Note_on_c, 3, 57, 64
5, 13919, Note_on_c, 3, 57, 0
5, 13920, Note_on_c, 3, 64, 64
5, 14399, Note_on_c, 3, 64, 0
5, 14400, Note_on_c, 3, 57, 64
5, 14879, Note_on_c, 3, 57, 0
5, 14880, Note_on_c, 3, 64, 64
5, 15359, Note_on_c, 3, 64, 0
5, 15360, Note_on_c, 3, 55, 64
5, 15839, Note_on_c, 3, 55, 0
5, 15840, Note_on_c, 3, 64, 64
5, 16319, Note_on_c, 3, 64, 0
5, 16320, Note_on_c, 3, 55, 64
5, 16799, Note_on_c, 3, 55, 0
5, 16800, Note_on_c, 3, 64, 64
5, 17039, Note_on_c, 3, 64, 0
5, 17040, Note_on_c, 3, 55, 64
5, 17519, Note_on_c, 3, 55, 0
5, 17520, Note_on_c, 3, 55, 64
5, 17759, Note_on_c, 3, 55, 0
5, 17760, Note_on_c, 3, 64, 64
5, 18239, Note_on_c, 3, 64, 0
5, 18240, Note_on_c, 3, 55, 64
5, 18719, Note_on_c, 3, 55, 0
5, 18720, Note_on_c, 3, 64, 64
5, 19199, Note_on_c, 3, 64, 0
5, 19200, Note_on_c, 3, 57, 64
5, 19679, Note_on_c, 3, 57, 0
5, 19680, Note_on_c, 3, 64, 64
5, 20159, Note_on_c, 3, 64, 0
5, 20160, Note_on_c, 3, 57, 64
5, 20639, Note_on_c, 3, 57, 0
5, 20640, Note_on_c, 3, 64, 64
5, 20879, Note_on_c, 3, 64, 0
5, 20880, Note_on_c, 3, 57, 64
5, 21359, Note_on_c, 3, 57, 0
5, 21360, Note_on_c, 3, 57, 64
5, 21599, Note_on_c, 3, 57, 0
5, 21600, Note_on_c, 3, 64, 64
5, 22079, Note_on_c, 3, 64, 0
5, 22080, Note_on_c, 3, 57, 64
5, 22559, Note_on_c, 3, 57, 0
5, 22560, Note_on_c, 3, 64, 64
5, 23039, Note_on_c, 3, 64, 0
5, 23040, Note_on_c, 3, 55, 64
5, 23519, Note_on_c, 3, 55, 0
5, 23520, Note_on_c, 3, 64, 64
5, 23999, Note_on_c, 3, 64, 0
5, 24000, Note_on_c, 3, 55, 64
5, 24479, Note_on_c, 3, 55, 0
5, 24480, Note_on_c, 3, 64, 64
5, 24719, Note_on_c, 3, 64, 0
5, 24720, Note_on_c, 3, 55, 64
5, 25199, Note_on_c, 3, 55, 0
5, 25200, Note_on_c, 3, 55, 64
5, 25439, Note_on_c, 3, 55, 0
5, 25440, Note_on_c, 3, 64, 64
5, 25919, Note_on_c, 3, 64, 0
5, 25920, Note_on_c, 3, 55, 64
5, 26399, Note_on_c, 3, 55, 0
5, 26400, Note_on_c, 3, 64, 64
5, 26879, Note_on_c, 3, 64, 0
5, 26880, Note_on_c, 3, 57, 64
5, 27359, Note_on_c, 3, 57, 0
5, 27360, Note_on_c, 3, 64, 64
5, 27839, Note_on_c, 3, 64, 0
5, 27840, Note_on_c, 3, 57, 64
5, 28319, Note_on_c, 3, 57, 0
5, 28320, Note_on_c, 3, 64, 64
5, 28559, Note_on_c, 3, 64, 0
5, 28560, Note_on_c, 3, 57, 64
5, 29039, Note_on_c, 3, 57, 0
5, 29040, Note_on_c, 3, 57, 64
5, 29279, Note_on_c, 3, 57, 0
5, 29280, Note_on_c, 3, 64, 64
5, 29759, Note_on_c, 3, 64, 0
5, 29760, Note_on_c, 3, 57, 64
5, 30239, Note_on_c, 3, 57, 0
5, 30240, Note_on_c, 3, 64, 64
5, 30719, Note_on_c, 3, 64, 0
5, 30720, Note_on_c, 3, 55, 64
5, 31199, Note_on_c, 3, 55, 0
5, 31200, Note_on_c, 3, 64, 64
5, 31679, Note_on_c, 3, 64, 0
5, 31680, Note_on_c, 3, 55, 64
5, 32159, Note_on_c, 3, 55, 0
5, 32160, Note_on_c, 3, 64, 64
5, 32399, Note_on_c, 3, 64, 0
5, 32400, Note_on_c, 3, 55, 64
5, 32879, Note_on_c, 3, 55, 0
5, 32880, Note_on_c, 3, 55, 64
5, 33119, Note_on_c, 3, 55, 0
5, 33120, Note_on_c, 3, 64, 64
5, 33599, Note_on_c, 3, 64, 0
5, 33600, Note_on_c, 3, 55, 64
5, 34079, Note_on_c, 3, 55, 0
5, 34080, Note_on_c, 3, 64, 64
5, 34559, Note_on_c, 3, 64, 0
5, 34560, Note_on_c, 3, 57, 64
5, 35039, Note_on_c, 3, 57, 0
5, 35040, Note_on_c, 3, 64, 64
5, 35519, Note_on_c, 3, 64, 0
5, 35520, Note_on_c, 3, 57, 64
5, 35999, Note_on_c, 3, 57, 0
5, 36000, Note_on_c, 3, 64, 64
5, 36239, Note_on_c, 3, 64, 0
5, 36240, Note_on_c, 3, 57, 64
5, 36719, Note_on_c, 3, 57, 0
5, 36720, Note_on_c, 3, 57, 64
5, 36959, Note_on_c, 3, 57, 0
5, 36960, Note_on_c, 3, 64, 64
5, 37439, Note_on_c, 3, 64, 0
5, 37440, Note_on_c, 3, 57, 64
5, 37919, Note_on_c, 3, 57, 0
5, 37920, Note_on_c, 3, 64, 64
5, 38399, Note_on_c, 3, 64, 0
5, 38400, Note_on_c, 3, 55, 64
5, 38879, Note_on_c, 3, 55, 0
5, 38880, Note_on_c, 3, 64, 64
5, 39359, Note_on_c, 3, 64, 0
5, 39360, Note_on_c, 3, 55, 64
5, 39839, Note_on_c, 3, 55, 0
5, 39840, Note_on_c, 3, 64, 64
5, 40079, Note_on_c, 3, 64, 0
5, 40080, Note_on_c, 3, 55, 64
5, 40559, Note_on_c, 3, 55, 0
5, 40560, Note_on_c, 3, 55, 64
5, 40799, Note_on_c, 3, 55, 0
5, 40800, Note_on_c, 3, 64, 64
5, 41279, Note_on_c, 3, 64, 0
5, 41280, Note_on_c, 3, 55, 64
5, 41759, Note_on_c, 3, 55, 0
5, 41760, Note_on_c, 3, 64, 64
5, 42239, Note_on_c, 3, 64, 0
5, 42240, Note_on_c, 3, 57, 64
5, 42719, Note_on_c, 3, 57, 0
5, 42720, Note_on_c, 3, 64, 64
5, 43199, Note_on_c, 3, 64, 0
5, 43200, Note_on_c, 3, 57, 64
5, 43679, Note_on_c, 3, 57, 0
5, 43680, Note_on_c, 3, 64, 64
5, 43919, Note_on_c, 3, 64, 0
5, 43920, Note_on_c, 3, 57, 64
5, 44399, Note_on_c, 3, 57, 0
5, 44400, Note_on_c, 3, 57, 64
5, 44639, Note_on_c, 3, 57, 0
5, 44640, Note_on_c, 3, 64, 64
5, 45119, Note_on_c, 3, 64, 0
5, 45120, Note_on_c, 3, 57, 64
5, 45599, Note_on_c, 3, 57, 0
5, 45600, Note_on_c, 3, 64, 64
5, 46079, Note_on_c, 3, 64, 0
5, 46080, Note_on_c, 3, 55, 64
5, 46559, Note_on_c, 3, 55, 0
5, 46560, Note_on_c, 3, 64, 64
5, 47039, Note_on_c, 3, 64, 0
5, 47040, Note_on_c, 3, 55, 64
5, 47519, Note_on_c, 3, 55, 0
5, 47520, Note_on_c, 3, 64, 64
5, 47759, Note_on_c, 3, 64, 0
5, 47760, Note_on_c, 3, 55, 64
5, 48239, Note_on_c, 3, 55, 0
5, 48240, Note_on_c, 3, 55, 64
5, 48479, Note_on_c, 3, 55, 0
5, 48480, Note_on_c, 3, 64, 64
5, 48959, Note_on_c, 3, 64, 0
5, 48960, Note_on_c, 3, 55, 64
5, 49439, Note_on_c, 3, 55, 0
5, 49440, Note_on_c, 3, 64, 64
5, 49919, Note_on_c, 3, 64, 0
5, 49920, Note_on_c, 3, 57, 64
5, 50399, Note_on_c, 3, 57, 0
5, 50400, Note_on_c, 3, 64, 64
5, 50879, Note_on_c, 3, 64, 0
5, 50880, Note_on_c, 3, 57, 64
5, 51359, Note_on_c, 3, 57, 0
5, 51360, Note_on_c, 3, 64, 64
5, 51599, Note_on_c, 3, 64, 0
5, 51600, Note_on_c, 3, 57, 64
5, 52079, Note_on_c, 3, 57, 0
5, 52080, Note_on_c, 3, 57, 64
5, 52319, Note_on_c, 3, 57, 0
5, 52320, Note_on_c, 3, 64, 64
5, 52799, Note_on_c, 3, 64, 0
5, 52800, Note_on_c, 3, 57, 64
5, 53279, Note_on_c, 3, 57, 0
5, 53280, Note_on_c, 3, 64, 64
5, 53759, Note_on_c, 3, 64, 0
5, 53760, Note_on_c, 3, 55, 64
5, 54239, Note_on_c, 3, 55, 0
5, 54240, Note_on_c, 3, 64, 64
5, 54719, Note_on_c, 3, 64, 0
5, 54720, Note_on_c, 3, 55, 64
5, 55199, Note_on_c, 3, 55, 0
5, 55200, Note_on_c, 3, 64, 64
5, 55439, Note_on_c, 3, 64, 0
5, 55440, Note_on_c, 3, 55, 64
5, 55919, Note_on_c, 3, 55, 0
5, 55920, Note_on_c, 3, 55, 64
5, 56159, Note_on_c, 3, 55, 0
5, 56160, Note_on_c, 3, 64, 64
5, 56639, Note_on_c, 3, 64, 0
5, 56640, Note_on_c, 3, 55, 64
5, 57119, Note_on_c, 3, 55, 0
5, 57120, Note_on_c, 3, 64, 64
5, 57599, Note_on_c, 3, 64, 0
5, 57600, Note_on_c, 3, 57, 64
5, 58079, Note_on_c, 3, 57, 0
5, 58080, Note_on_c, 3, 64, 64
5, 58559, Note_on_c, 3, 64, 0
5, 58560, Note_on_c, 3, 57, 64
5, 59039, Note_on_c, 3, 57, 0
5, 59040, Note_on_c, 3, 64, 64
5, 59279, Note_on_c, 3, 64, 0
5, 59280, Note_on_c, 3, 57, 64
5, 59759, Note_on_c, 3, 57, 0
5, 59760, Note_on_c, 3, 57, 64
5, 59999, Note_on_c, 3, 57, 0
5, 60000, Note_on_c, 3, 64, 64
5, 60479, Note_on_c, 3, 64, 0
5, 60480, Note_on_c, 3, 57, 64
5, 60959, Note_on_c, 3, 57, 0
5, 60960, Note_on_c, 3, 64, 64
5, 61439, Note_on_c, 3, 64, 0
5, 61440, Note_on_c, 3, 55, 64
5, 61919, Note_on_c, 3, 55, 0
5, 61920, Note_on_c, 3, 64, 64
5, 62399, Note_on_c, 3, 64, 0
5, 62400, Note_on_c, 3, 55, 64
5, 62879, Note_on_c, 3, 55, 0
5, 62880, Note_on_c, 3, 64, 64
5, 63359, Note_on_c, 3, 64, 0
5, 63360, Note_on_c, 3, 55, 64
5, 63839, Note_on_c, 3, 55, 0
5, 63840, Note_on_c, 3, 64, 64
5, 64319, Note_on_c, 3, 64, 0
5, 64320, Note_on_c, 3, 55, 64
5, 64799, Note_on_c, 3, 55, 0
5, 64800, Note_on_c, 3, 64, 64
5, 65279, Note_on_c, 3, 64, 0
5, 65280, Note_on_c, 3, 55, 64
5, 65759, Note_on_c, 3, 55, 0
5, 65760, Note_on_c, 3, 64, 64
5, 66239, Note_on_c, 3, 64, 0
5, 66240, Note_on_c, 3, 55, 64
5, 66719, Note_on_c, 3, 55, 0
5, 66720, Note_on_c, 3, 64, 64
5, 67199, Note_on_c, 3, 64, 0
5, 67200, Note_on_c, 3, 55, 64
5, 67679, Note_on_c, 3, 55, 0
5, 67680, Note_on_c, 3, 64, 64
5, 68159, Note_on_c, 3, 64, 0
5, 68160, Note_on_c, 3, 55, 64
5, 68639, Note_on_c, 3, 55, 0
5, 68640, Note_on_c, 3, 64, 64
5, 69119, Note_on_c, 3, 64, 0
5, 69120, Note_on_c, 3, 57, 64
5, 69599, Note_on_c, 3, 57, 0
5, 69600, Note_on_c, 3, 64, 64
5, 70079, Note_on_c, 3, 64, 0
5, 70080, Note_on_c, 3, 57, 64
5, 70559, Note_on_c, 3, 57, 0
5, 70560, Note_on_c, 3, 64, 64
5, 71039, Note_on_c, 3, 64, 0
5, 71040, Note_on_c, 3, 57, 64
5, 71519, Note_on_c, 3, 57, 0
5, 71520, Note_on_c, 3, 64, 64
5, 71999, Note_on_c, 3, 64, 0
5, 72000, Note_on_c, 3, 57, 64
5, 72479, Note_on_c, 3, 57, 0
5, 72480, Note_on_c, 3, 64, 64
5, 72959, Note_on_c, 3, 64, 0
5, 72960, Note_on_c, 3, 57, 64
5, 73439, Note_on_c, 3, 57, 0
5, 73440, Note_on_c, 3, 64, 64
5, 73919, Note_on_c, 3, 64, 0
5, 73920, Note_on_c, 3, 57, 64
5, 74399, Note_on_c, 3, 57, 0
5, 74400, Note_on_c, 3, 64, 64
5, 74639, Note_on_c, 3, 64, 0
5, 74640, Note_on_c, 3, 57, 64
5, 75119, Note_on_c, 3, 57, 0
5, 75120, Note_on_c, 3, 57, 64
5, 75359, Note_on_c, 3, 57, 0
5, 75360, Note_on_c, 3, 64, 64
5, 75839, Note_on_c, 3, 64, 0
5, 75840, Note_on_c, 3, 57, 64
5, 76319, Note_on_c, 3, 57, 0
5, 76320, Note_on_c, 3, 64, 64
5, 76799, Note_on_c, 3, 64, 0
5, 76800, Note_on_c, 3, 55, 64
5, 77279, Note_on_c, 3, 55, 0
5, 77280, Note_on_c, 3, 64, 64
5, 77759, Note_on_c, 3, 64, 0
5, 77760, Note_on_c, 3, 55, 64
5, 78239, Note_on_c, 3, 55, 0
5, 78240, Note_on_c, 3, 64, 64
5, 78479, Note_on_c, 3, 64, 0
5, 78480, Note_on_c, 3, 55, 64
5, 78959, Note_on_c, 3, 55, 0
5, 78960, Note_on_c, 3, 55, 64
5, 79199, Note_on_c, 3, 55, 0
5, 79200, Note_on_c, 3, 64, 64
5, 79679, Note_on_c, 3, 64, 0
5, 79680, Note_on_c, 3, 55, 64
5, 80159, Note_on_c, 3, 55, 0
5, 80160, Note_on_c, 3, 64, 64
5, 80639, Note_on_c, 3, 64, 0
5, 80640, Note_on_c, 3, 55, 64
5, 81119, Note_on_c, 3, 55, 0
5, 81120, Note_on_c, 3, 64, 64
5, 81599, Note_on_c, 3, 64, 0
5, 81600, Note_on_c, 3, 55, 64
5, 82079, Note_on_c, 3, 55, 0
5, 82080, Note_on_c, 3, 64, 64
5, 82319, Note_on_c, 3, 64, 0
5, 82320, Note_on_c, 3, 55, 64
5, 82799, Note_on_c, 3, 55, 0
5, 82800, Note_on_c, 3, 55, 64
5, 83039, Note_on_c, 3, 55, 0
5, 83040, Note_on_c, 3, 64, 64
5, 83519, Note_on_c, 3, 64, 0
5, 83520, Note_on_c, 3, 55, 64
5, 83999, Note_on_c, 3, 55, 0
5, 84000, Note_on_c, 3, 64, 64
5, 84479, Note_on_c, 3, 64, 0
5, 84480, Note_on_c, 3, 57, 64
5, 84959, Note_on_c, 3, 57, 0
5, 84960, Note_on_c, 3, 64, 64
5, 85439, Note_on_c, 3, 64, 0
5, 85440, Note_on_c, 3, 57, 64
5, 85919, Note_on_c, 3, 57, 0
5, 85920, Note_on_c, 3, 64, 64
5, 86159, Note_on_c, 3, 64, 0
5, 86160, Note_on_c, 3, 57, 64
5, 86639, Note_on_c, 3, 57, 0
5, 86640, Note_on_c, 3, 57, 64
5, 86879, Note_on_c, 3, 57, 0
5, 86880, Note_on_c, 3, 64, 64
5, 87359, Note_on_c, 3, 64, 0
5, 87360, Note_on_c, 3, 57, 64
5, 87839, Note_on_c, 3, 57, 0
5, 87840, Note_on_c, 3, 64, 64
5, 88319, Note_on_c, 3, 64, 0
5, 88320, Note_on_c, 3, 57, 64
5, 88799, Note_on_c, 3, 57, 0
5, 88800, Note_on_c, 3, 64, 64
5, 89279, Note_on_c, 3, 64, 0
5, 89280, Note_on_c, 3, 57, 64
5, 89759, Note_on_c, 3, 57, 0
5, 89760, Note_on_c, 3, 64, 64
5, 89999, Note_on_c, 3, 64, 0
5, 90000, Note_on_c, 3, 57, 64
5, 90239, Note_on_c, 3, 57, 0
5, 90240, Note_on_c, 3, 55, 64
5, 90719, Note_on_c, 3, 55, 0
5, 90720, Note_on_c, 3, 64, 64
5, 91199, Note_on_c, 3, 64, 0
5, 91200, Note_on_c, 3, 55, 64
5, 91679, Note_on_c, 3, 55, 0
5, 91680, Note_on_c, 3, 64, 64
5, 92159, Note_on_c, 3, 64, 0
5, 92160, Note_on_c, 3, 55, 64
5, 92639, Note_on_c, 3, 55, 0
5, 92640, Note_on_c, 3, 64, 64
5, 93119, Note_on_c, 3, 64, 0
5, 93120, Note_on_c, 3, 55, 64
5, 93599, Note_on_c, 3, 55, 0
5, 93600, Note_on_c, 3, 64, 64
5, 94079, Note_on_c, 3, 64, 0
5, 94080, Note_on_c, 3, 55, 64
5, 94559, Note_on_c, 3, 55, 0
5, 94560, Note_on_c, 3, 64, 64
5, 95039, Note_on_c, 3, 64, 0
5, 95040, Note_on_c, 3, 55, 64
5, 95519, Note_on_c, 3, 55, 0
5, 95520, Note_on_c, 3, 64, 64
5, 95999, Note_on_c, 3, 64, 0
5, 96000, Note_on_c, 3, 57, 64
5, 96479, Note_on_c, 3, 57, 0
5, 96480, Note_on_c, 3, 64, 64
5, 96959, Note_on_c, 3, 64, 0
5, 96960, Note_on_c, 3, 57, 64
5, 97439, Note_on_c, 3, 57, 0
5, 97440, Note_on_c, 3, 64, 64
5, 97919, Note_on_c, 3, 64, 0
5, 97920, Note_on_c, 3, 57, 64
5, 98399, Note_on_c, 3, 57, 0
5, 98400, Note_on_c, 3, 64, 64
5, 98879, Note_on_c, 3, 64, 0
5, 98880, Note_on_c, 3, 57, 64
5, 99359, Note_on_c, 3, 57, 0
5, 99360, Note_on_c, 3, 64, 64
5, 99839, Note_on_c, 3, 64, 0
5, 99840, Note_on_c, 3, 55, 64
5, 100319, Note_on_c, 3, 55, 0
5, 100320, Note_on_c, 3, 64, 64
5, 100799, Note_on_c, 3, 64, 0
5, 100800, Note_on_c, 3, 55, 64
5, 101279, Note_on_c, 3, 55, 0
5, 101280, Note_on_c, 3, 64, 64
5, 101759, Note_on_c, 3, 64, 0
5, 101760, Note_on_c, 3, 55, 64
5, 102239, Note_on_c, 3, 55, 0
5, 102240, Note_on_c, 3, 64, 64
5, 102719, Note_on_c, 3, 64, 0
5, 102720, Note_on_c, 3, 55, 64
5, 103199, Note_on_c, 3, 55, 0
5, 103200, Note_on_c, 3, 64, 64
5, 103679, Note_on_c, 3, 64, 0
5, 103680, Note_on_c, 3, 57, 64
5, 104159, Note_on_c, 3, 57, 0
5, 104160, Note_on_c, 3, 64, 64
5, 104639, Note_on_c, 3, 64, 0
5, 104640, Note_on_c, 3, 57, 64
5, 105119, Note_on_c, 3, 57, 0
5, 105120, Note_on_c, 3, 64, 64
5, 105599, Note_on_c, 3, 64, 0
5, 105600, Note_on_c, 3, 57, 64
5, 105839, Note_on_c, 3, 57, 0
5, 105840, Note_on_c, 3, 57, 64
5, 106079, Note_on_c, 3, 57, 0
5, 106080, Note_on_c, 3, 64, 64
5, 106559, Note_on_c, 3, 64, 0
5, 106560, Note_on_c, 3, 57, 64
5, 107039, Note_on_c, 3, 57, 0
5, 107040, Note_on_c, 3, 64, 64
5, 107519, Note_on_c, 3, 64, 0
5, 107520, Note_on_c, 3, 55, 64
5, 107999, Note_on_c, 3, 55, 0
5, 108000, Note_on_c, 3, 64, 64
5, 108479, Note_on_c, 3, 64, 0
5, 108480, Note_on_c, 3, 55, 64
5, 108959, Note_on_c, 3, 55, 0
5, 108960, Note_on_c, 3, 64, 64
5, 109199, Note_on_c, 3, 64, 0
5, 109200, Note_on_c, 3, 55, 64
5, 109679, Note_on_c, 3, 55, 0
5, 109680, Note_on_c, 3, 55, 64
5, 109919, Note_on_c, 3, 55, 0
5, 109920, Note_on_c, 3, 64, 64
5, 110399, Note_on_c, 3, 64, 0
5, 110400, Note_on_c, 3, 55, 64
5, 110879, Note_on_c, 3, 55, 0
5, 110880, Note_on_c, 3, 64, 64
5, 111359, Note_on_c, 3, 64, 0
5, 111360, Note_on_c, 3, 57, 64
5, 111839, Note_on_c, 3, 57, 0
5, 111840, Note_on_c, 3, 64, 64
5, 112319, Note_on_c, 3, 64, 0
5, 112320, Note_on_c, 3, 57, 64
5, 112799, Note_on_c, 3, 57, 0
5, 112800, Note_on_c, 3, 64, 64
5, 113039, Note_on_c, 3, 64, 0
5, 113040, Note_on_c, 3, 57, 64
5, 113519, Note_on_c, 3, 57, 0
5, 113520, Note_on_c, 3, 57, 64
5, 113759, Note_on_c, 3, 57, 0
5, 113760, Note_on_c, 3, 64, 64
5, 114239, Note_on_c, 3, 64, 0
5, 114240, Note_on_c, 3, 57, 64
5, 114719, Note_on_c, 3, 57, 0
5, 114720, Note_on_c, 3, 64, 64
5, 115199, Note_on_c, 3, 64, 0
5, 115200, Note_on_c, 3, 55, 64
5, 115679, Note_on_c, 3, 55, 0
5, 115680, Note_on_c, 3, 64, 64
5, 116159, Note_on_c, 3, 64, 0
5, 116160, Note_on_c, 3, 55, 64
5, 116639, Note_on_c, 3, 55, 0
5, 116640, Note_on_c, 3, 64, 64
5, 116879, Note_on_c, 3, 64, 0
5, 116880, Note_on_c, 3, 55, 64
5, 117359, Note_on_c, 3, 55, 0
5, 117360, Note_on_c, 3, 55, 64
5, 117599, Note_on_c, 3, 55, 0
5, 117600, Note_on_c, 3, 64, 64
5, 118079, Note_on_c, 3, 64, 0
5, 118080, Note_on_c, 3, 55, 64
5, 118559, Note_on_c, 3, 55, 0
5, 118560, Note_on_c, 3, 64, 64
5, 119039, Note_on_c, 3, 64, 0
5, 119040, Note_on_c, 3, 57, 64
5, 119519, Note_on_c, 3, 57, 0
5, 119520, Note_on_c, 3, 64, 64
5, 119999, Note_on_c, 3, 64, 0
5, 120000, Note_on_c, 3, 57, 64
5, 120479, Note_on_c, 3, 57, 0
5, 120480, Note_on_c, 3, 64, 64
5, 120719, Note_on_c, 3, 64, 0
5, 120720, Note_on_c, 3, 57, 64
5, 121199, Note_on_c, 3, 57, 0
5, 121200, Note_on_c, 3, 57, 64
5, 121439, Note_on_c, 3, 57, 0
5, 121440, Note_on_c, 3, 64, 64
5, 121919, Note_on_c, 3, 64, 0
5, 121920, Note_on_c, 3, 57, 64
5, 122399, Note_on_c, 3, 57, 0
5, 122400, Note_on_c, 3, 64, 64
5, 122879, Note_on_c, 3, 64, 0
5, 122880, Note_on_c, 3, 55, 64
5, 122880, Note_on_c, 3, 64, 64
5, 123839, Note_on_c, 3, 55, 0
5, 123839, Note_on_c, 3, 64, 0
5, 123840, Note_on_c, 3, 55, 64
5, 123840, Note_on_c, 3, 64, 64
5, 124319, Note_on_c, 3, 55, 0
5, 124319, Note_on_c, 3, 64, 0
5, 124800, Note_on_c, 3, 55, 64
5, 124800, Note_on_c, 3, 64, 64
5, 125519, Note_on_c, 3, 55, 0
5, 125519, Note_on_c, 3, 64, 0
5, 125520, Note_on_c, 3, 55, 64
5, 125520, Note_on_c, 3, 64, 64
5, 126239, Note_on_c, 3, 55, 0
5, 126239, Note_on_c, 3, 64, 0
5, 126240, Note_on_c, 3, 55, 64
5, 126240, Note_on_c, 3, 64, 64
5, 126479, Note_on_c, 3, 55, 0
5, 126479, Note_on_c, 3, 64, 0
5, 126720, Note_on_c, 3, 55, 64
5, 126720, Note_on_c, 3, 64, 64
5, 127679, Note_on_c, 3, 55, 0
5, 127679, Note_on_c, 3, 64, 0
5, 127680, Note_on_c, 3, 55, 64
5, 127680, Note_on_c, 3, 64, 64
5, 128159, Note_on_c, 3, 55, 0
5, 128159, Note_on_c, 3, 64, 0
5, 128640, Note_on_c, 3, 57, 64
5, 128640, Note_on_c, 3, 64, 64
5, 129359, Note_on_c, 3, 57, 0
5, 129359, Note_on_c, 3, 64, 0
5, 129360, Note_on_c, 3, 57, 64
5, 129360, Note_on_c, 3, 64, 64
5, 130079, Note_on_c, 3, 57, 0
5, 130079, Note_on_c, 3, 64, 0
5, 130080, Note_on_c, 3, 57, 64
5, 130080, Note_on_c, 3, 64, 64
5, 130319, Note_on_c, 3, 57, 0
5, 130319, Note_on_c, 3, 64, 0
5, 130560, Note_on_c, 3, 57, 64
5, 130560, Note_on_c, 3, 64, 64
5, 131519, Note_on_c, 3, 57, 0
5, 131519, Note_on_c, 3, 64, 0
5, 131520, Note_on_c, 3, 57, 64
5, 131520, Note_on_c, 3, 64, 64
5, 131999, Note_on_c, 3, 57, 0
5, 131999, Note_on_c, 3, 64, 0
5, 132480, Note_on_c, 3, 55, 64
5, 132480, Note_on_c, 3, 64, 64
5, 133199, Note_on_c, 3, 55, 0
5, 133199, Note_on_c, 3, 64, 0
5, 133200, Note_on_c, 3, 55, 64
5, 133200, Note_on_c, 3, 64, 64
5, 133919, Note_on_c, 3, 55, 0
5, 133919, Note_on_c, 3, 64, 0
5, 133920, Note_on_c, 3, 55, 64
5, 133920, Note_on_c, 3, 64, 64
5, 134159, Note_on_c, 3, 55, 0
5, 134159, Note_on_c, 3, 64, 0
5, 134400, Note_on_c, 3, 55, 64
5, 134400, Note_on_c, 3, 64, 64
5, 135359, Note_on_c, 3, 55, 0
5, 135359, Note_on_c, 3, 64, 0
5, 135360, Note_on_c, 3, 55, 64
5, 135360, Note_on_c, 3, 64, 64
5, 135839, Note_on_c, 3, 55, 0
5, 135839, Note_on_c, 3, 64, 0
5, 136320, Note_on_c, 3, 57, 64
5, 136559, Note_on_c, 3, 57, 0
5, 136560, Note_on_c, 3, 57, 64
5, 136799, Note_on_c, 3, 57, 0
5, 136800, Note_on_c, 3, 64, 64
5, 137279, Note_on_c, 3, 64, 0
5, 137280, Note_on_c, 3, 57, 64
5, 137759, Note_on_c, 3, 57, 0
5, 137760, Note_on_c, 3, 64, 64
5, 138239, Note_on_c, 3, 64, 0
5, 138240, Note_on_c, 3, 55, 64
5, 138719, Note_on_c, 3, 55, 0
5, 138720, Note_on_c, 3, 64, 64
5, 139199, Note_on_c, 3, 64, 0
5, 139200, Note_on_c, 3, 55, 64
5, 139679, Note_on_c, 3, 55, 0
5, 139680, Note_on_c, 3, 64, 64
5, 139919, Note_on_c, 3, 64, 0
5, 139920, Note_on_c, 3, 55, 64
5, 140399, Note_on_c, 3, 55, 0
5, 140400, Note_on_c, 3, 55, 64
5, 140639, Note_on_c, 3, 55, 0
5, 140640, Note_on_c, 3, 64, 64
5, 141119, Note_on_c, 3, 64, 0
5, 141120, Note_on_c, 3, 55, 64
5, 141599, Note_on_c, 3, 55, 0
5, 141600, Note_on_c, 3, 64, 64
5, 142079, Note_on_c, 3, 64, 0
5, 142080, Note_on_c, 3, 57, 64
5, 142559, Note_on_c, 3, 57, 0
5, 142560, Note_on_c, 3, 64, 64
5, 143039, Note_on_c, 3, 64, 0
5, 143040, Note_on_c, 3, 57, 64
5, 143519, Note_on_c, 3, 57, 0
5, 143520, Note_on_c, 3, 64, 64
5, 143759, Note_on_c, 3, 64, 0
5, 143760, Note_on_c, 3, 57, 64
5, 144239, Note_on_c, 3, 57, 0
5, 144240, Note_on_c, 3, 57, 64
5, 144479, Note_on_c, 3, 57, 0
5, 144480, Note_on_c, 3, 64, 64
5, 144959, Note_on_c, 3, 64, 0
5, 144960, Note_on_c, 3, 57, 64
5, 145439, Note_on_c, 3, 57, 0
5, 145440, Note_on_c, 3, 64, 64
5, 145919, Note_on_c, 3, 64, 0
5, 145920, Note_on_c, 3, 55, 64
5, 146399, Note_on_c, 3, 55, 0
5, 146400, Note_on_c, 3, 64, 64
5, 146879, Note_on_c, 3, 64, 0
5, 146880, Note_on_c, 3, 55, 64
5, 147359, Note_on_c, 3, 55, 0
5, 147360, Note_on_c, 3, 64, 64
5, 147599, Note_on_c, 3, 64, 0
5, 147600, Note_on_c, 3, 55, 64
5, 148079, Note_on_c, 3, 55, 0
5, 148080, Note_on_c, 3, 55, 64
5, 148319, Note_on_c, 3, 55, 0
5, 148320, Note_on_c, 3, 64, 64
5, 148799, Note_on_c, 3, 64, 0
5, 148800, Note_on_c, 3, 55, 64
5, 149279, Note_on_c, 3, 55, 0
5, 149280, Note_on_c, 3, 64, 64
5, 149759, Note_on_c, 3, 64, 0
5, 149760, Note_on_c, 3, 57, 64
5, 150239, Note_on_c, 3, 57, 0
5, 150240, Note_on_c, 3, 64, 64
5, 150719, Note_on_c, 3, 64, 0
5, 150720, Note_on_c, 3, 57, 64
5, 151199, Note_on_c, 3, 57, 0
5, 151200, Note_on_c, 3, 64, 64
5, 151439, Note_on_c, 3, 64, 0
5, 151440, Note_on_c, 3, 57, 64
5, 151919, Note_on_c, 3, 57, 0
5, 151920, Note_on_c, 3, 57, 64
5, 152159, Note_on_c, 3, 57, 0
5, 152160, Note_on_c, 3, 64, 64
5, 152639, Note_on_c, 3, 64, 0
5, 152640, Note_on_c, 3, 57, 64
5, 153119, Note_on_c, 3, 57, 0
5, 153120, Note_on_c, 3, 64, 64
5, 153599, Note_on_c, 3, 64, 0
5, 153600, Note_on_c, 3, 55, 64
5, 153600, Note_on_c, 3, 64, 64
5, 154559, Note_on_c, 3, 55, 0
5, 154559, Note_on_c, 3, 64, 0
5, 154560, Note_on_c, 3, 55, 64
5, 154560, Note_on_c, 3, 64, 64
5, 155039, Note_on_c, 3, 55, 0
5, 155039, Note_on_c, 3, 64, 0
5, 155520, Note_on_c, 3, 55, 64
5, 155520, Note_on_c, 3, 64, 64
5, 156239, Note_on_c, 3, 55, 0
5, 156239, Note_on_c, 3, 64, 0
5, 156240, Note_on_c, 3, 55, 64
5, 156240, Note_on_c, 3, 64, 64
5, 156959, Note_on_c, 3, 55, 0
5, 156959, Note_on_c, 3, 64, 0
5, 156960, Note_on_c, 3, 55, 64
5, 156960, Note_on_c, 3, 64, 64
5, 157199, Note_on_c, 3, 55, 0
5, 157199, Note_on_c, 3, 64, 0
5, 157440, Note_on_c, 3, 55, 64
5, 157440, Note_on_c, 3, 64, 64
5, 158399, Note_on_c, 3, 55, 0
5, 158399, Note_on_c, 3, 64, 0
5, 158400, Note_on_c, 3, 55, 64
5, 158400, Note_on_c, 3, 64, 64
5, 158879, Note_on_c, 3, 55, 0
5, 158879, Note_on_c, 3, 64, 0
5, 159360, Note_on_c, 3, 55, 64
5, 159360, Note_on_c, 3, 64, 64
5, 160079, Note_on_c, 3, 55, 0
5, 160079, Note_on_c, 3, 64, 0
5, 160080, Note_on_c, 3, 55, 64
5, 160080, Note_on_c, 3, 64, 64
5, 160799, Note_on_c, 3, 55, 0
5, 160799, Note_on_c, 3, 64, 0
5, 160800, Note_on_c, 3, 55, 64
5, 160800, Note_on_c, 3, 64, 64
5, 161039, Note_on_c, 3, 55, 0
5, 161039, Note_on_c, 3, 64, 0
5, 161280, Note_on_c, 3, 55, 64
5, 161280, Note_on_c, 3, 64, 64
5, 162239, Note_on_c, 3, 55, 0
5, 162239, Note_on_c, 3, 64, 0
5, 162240, Note_on_c, 3, 55, 64
5, 162240, Note_on_c, 3, 64, 64
5, 162719, Note_on_c, 3, 55, 0
5, 162719, Note_on_c, 3, 64, 0
5, 163200, Note_on_c, 3, 55, 64
5, 163200, Note_on_c, 3, 64, 64
5, 163919, Note_on_c, 3, 55, 0
5, 163919, Note_on_c, 3, 64, 0
5, 163920, Note_on_c, 3, 55, 64
5, 163920, Note_on_c, 3, 64, 64
5, 164639, Note_on_c, 3, 55, 0
5, 164639, Note_on_c, 3, 64, 0
5, 164640, Note_on_c, 3, 55, 64
5, 164640, Note_on_c, 3, 64, 64
5, 164879, Note_on_c, 3, 55, 0
5, 164879, Note_on_c, 3, 64, 0
5, 165120, Note_on_c, 3, 57, 64
5, 165120, Note_on_c, 3, 64, 64
5, 165839, Note_on_c, 3, 57, 0
5, 165839, Note_on_c, 3, 64, 0
5, 165840, Note_on_c, 3, 57, 64
5, 165840, Note_on_c, 3, 64, 64
5, 166559, Note_on_c, 3, 57, 0
5, 166559, Note_on_c, 3, 64, 0
5, 166560, Note_on_c, 3, 57, 64
5, 166560, Note_on_c, 3, 64, 64
5, 166799, Note_on_c, 3, 57, 0
5, 166799, Note_on_c, 3, 64, 0
5, 167040, Note_on_c, 3, 57, 64
5, 167040, Note_on_c, 3, 64, 64
5, 167999, Note_on_c, 3, 57, 0
5, 167999, Note_on_c, 3, 64, 0
5, 168000, Note_on_c, 3, 57, 64
5, 168000, Note_on_c, 3, 64, 64
5, 168479, Note_on_c, 3, 57, 0
5, 168479, Note_on_c, 3, 64, 0
5, 168960, Note_on_c, 3, 55, 64
5, 169439, Note_on_c, 3, 55, 0
5, 169440, Note_on_c, 3, 64, 64
5, 169919, Note_on_c, 3, 64, 0
5, 169920, Note_on_c, 3, 67, 64
5, 170399, Note_on_c, 3, 67, 0
5, 170400, Note_on_c, 3, 64, 64
5, 170879, Note_on_c, 3, 64, 0
5, 170880, Note_on_c, 3, 55, 64
5, 171359, Note_on_c, 3, 55, 0
5, 171360, Note_on_c, 3, 64, 64
5, 171839, Note_on_c, 3, 64, 0
5, 171840, Note_on_c, 3, 67, 64
5, 172319, Note_on_c, 3, 67, 0
5, 172320, Note_on_c, 3, 64, 64
5, 172799, Note_on_c, 3, 64, 0
5, 172800, Note_on_c, 3, 55, 64
5, 173279, Note_on_c, 3, 55, 0
5, 173280, Note_on_c, 3, 64, 64
5, 173759, Note_on_c, 3, 64, 0
5, 173760, Note_on_c, 3, 67, 64
5, 174239, Note_on_c, 3, 67, 0
5, 174240, Note_on_c, 3, 64, 64
5, 174719, Note_on_c, 3, 64, 0
5, 174720, Note_on_c, 3, 55, 64
5, 175199, Note_on_c, 3, 55, 0
5, 175200, Note_on_c, 3, 64, 64
5, 175679, Note_on_c, 3, 64, 0
5, 175680, Note_on_c, 3, 67, 64
5, 176159, Note_on_c, 3, 67, 0
5, 176160, Note_on_c, 3, 64, 64
5, 176639, Note_on_c, 3, 64, 0
5, 176640, Note_on_c, 3, 57, 64
5, 177119, Note_on_c, 3, 57, 0
5, 177120, Note_on_c, 3, 64, 64
5, 177599, Note_on_c, 3, 64, 0
5, 177600, Note_on_c, 3, 69, 64
5, 178079, Note_on_c, 3, 69, 0
5, 178080, Note_on_c, 3, 64, 64
5, 178559, Note_on_c, 3, 64, 0
5, 178560, Note_on_c, 3, 57, 64
5, 179039, Note_on_c, 3, 57, 0
5, 179040, Note_on_c, 3, 64, 64
5, 179519, Note_on_c, 3, 64, 0
5, 179520, Note_on_c, 3, 69, 64
5, 179999, Note_on_c, 3, 69, 0
5, 180000, Note_on_c, 3, 64, 64
5, 180479, Note_on_c, 3, 64, 0
5, 180480, Note_on_c, 3, 57, 64
5, 180959, Note_on_c, 3, 57, 0
5, 180960, Note_on_c, 3, 64, 64
5, 181439, Note_on_c, 3, 64, 0
5, 181440, Note_on_c, 3, 69, 64
5, 181919, Note_on_c, 3, 69, 0
5, 181920, Note_on_c, 3, 64, 64
5, 182159, Note_on_c, 3, 64, 0
5, 182160, Note_on_c, 3, 57, 64
5, 182639, Note_on_c, 3, 57, 0
5, 182640, Note_on_c, 3, 57, 64
5, 182879, Note_on_c, 3, 57, 0
5, 182880, Note_on_c, 3, 64, 64
5, 183359, Note_on_c, 3, 64, 0
5, 183360, Note_on_c, 3, 57, 64
5, 183839, Note_on_c, 3, 57, 0
5, 183840, Note_on_c, 3, 64, 64
5, 184319, Note_on_c, 3, 64, 0
5, 184320, Note_on_c, 3, 55, 64
5, 184799, Note_on_c, 3, 55, 0
5, 184800, Note_on_c, 3, 64, 64
5, 185279, Note_on_c, 3, 64, 0
5, 185280, Note_on_c, 3, 67, 64
5, 185759, Note_on_c, 3, 67, 0
5, 185760, Note_on_c, 3, 64, 64
5, 185999, Note_on_c, 3, 64, 0
5, 186000, Note_on_c, 3, 55, 64
5, 186479, Note_on_c, 3, 55, 0
5, 186480, Note_on_c, 3, 55, 64
5, 186719, Note_on_c, 3, 55, 0
5, 186720, Note_on_c, 3, 64, 64
5, 187199, Note_on_c, 3, 64, 0
5, 187200, Note_on_c, 3, 55, 64
5, 187679, Note_on_c, 3, 55, 0
5, 187680, Note_on_c, 3, 64, 64
5, 188159, Note_on_c, 3, 64, 0
5, 188160, Note_on_c, 3, 55, 64
5, 188639, Note_on_c, 3, 55, 0
5, 188640, Note_on_c, 3, 64, 64
5, 189119, Note_on_c, 3, 64, 0
5, 189120, Note_on_c, 3, 67, 64
5, 189599, Note_on_c, 3, 67, 0
5, 189600, Note_on_c, 3, 64, 64
5, 189839, Note_on_c, 3, 64, 0
5, 189840, Note_on_c, 3, 55, 64
5, 190319, Note_on_c, 3, 55, 0
5, 190320, Note_on_c, 3, 55, 64
5, 190559, Note_on_c, 3, 55, 0
5, 190560, Note_on_c, 3, 64, 64
5, 191039, Note_on_c, 3, 64, 0
5, 191040, Note_on_c, 3, 55, 64
5, 191519, Note_on_c, 3, 55, 0
5, 191520, Note_on_c, 3, 64, 64
5, 191999, Note_on_c, 3, 64, 0
5, 192000, Note_on_c, 3, 57, 64
5, 192479, Note_on_c, 3, 57, 0
5, 192480, Note_on_c, 3, 64, 64
5, 192959, Note_on_c, 3, 64, 0
5, 192960, Note_on_c, 3, 69, 64
5, 193439, Note_on_c, 3, 69, 0
5, 193440, Note_on_c, 3, 64, 64
5, 193679, Note_on_c, 3, 64, 0
5, 193680, Note_on_c, 3, 57, 64
5, 194159, Note_on_c, 3, 57, 0
5, 194160, Note_on_c, 3, 57, 64
5, 194399, Note_on_c, 3, 57, 0
5, 194400, Note_on_c, 3, 64, 64
5, 194879, Note_on_c, 3, 64, 0
5, 194880, Note_on_c, 3, 57, 64
5, 195359, Note_on_c, 3, 57, 0
5, 195360, Note_on_c, 3, 64, 64
5, 195839, Note_on_c, 3, 64, 0
5, 195840, Note_on_c, 3, 57, 64
5, 196319, Note_on_c, 3, 57, 0
5, 196320, Note_on_c, 3, 64, 64
5, 196799, Note_on_c, 3, 64, 0
5, 196800, Note_on_c, 3, 69, 64
5, 197279, Note_on_c, 3, 69, 0
5, 197280, Note_on_c, 3, 64, 64
5, 197519, Note_on_c, 3, 64, 0
5, 197520, Note_on_c, 3, 57, 64
5, 197759, Note_on_c, 3, 57, 0
5, 197760, Note_on_c, 3, 55, 64
5, 198239, Note_on_c, 3, 55, 0
5, 198240, Note_on_c, 3, 64, 64
5, 198719, Note_on_c, 3, 64, 0
5, 198720, Note_on_c, 3, 55, 64
5, 199199, Note_on_c, 3, 55, 0
5, 199200, Note_on_c, 3, 64, 64
5, 199679, Note_on_c, 3, 64, 0
5, 199680, Note_on_c, 3, 55, 64
5, 200159, Note_on_c, 3, 55, 0
5, 200160, Note_on_c, 3, 64, 64
5, 200639, Note_on_c, 3, 64, 0
5, 200640, Note_on_c, 3, 55, 64
5, 201119, Note_on_c, 3, 55, 0
5, 201120, Note_on_c, 3, 64, 64
5, 201599, Note_on_c, 3, 64, 0
5, 201600, Note_on_c, 3, 55, 64
5, 202079, Note_on_c, 3, 55, 0
5, 202080, Note_on_c, 3, 64, 64
5, 202559, Note_on_c, 3, 64, 0
5, 202560, Note_on_c, 3, 55, 64
5, 203039, Note_on_c, 3, 55, 0
5, 203040, Note_on_c, 3, 64, 64
5, 203519, Note_on_c, 3, 64, 0
5, 203520, Note_on_c, 3, 57, 64
5, 203999, Note_on_c, 3, 57, 0
5, 204000, Note_on_c, 3, 64, 64
5, 204479, Note_on_c, 3, 64, 0
5, 204480, Note_on_c, 3, 57, 64
5, 204959, Note_on_c, 3, 57, 0
5, 204960, Note_on_c, 3, 64, 64
5, 205439, Note_on_c, 3, 64, 0
5, 205440, Note_on_c, 3, 57, 64
5, 205919, Note_on_c, 3, 57, 0
5, 205920, Note_on_c, 3, 64, 64
5, 206399, Note_on_c, 3, 64, 0
5, 206400, Note_on_c, 3, 57, 64
5, 206879, Note_on_c, 3, 57, 0
5, 206880, Note_on_c, 3, 64, 64
5, 207359, Note_on_c, 3, 64, 0
5, 207360, Note_on_c, 3, 55, 64
5, 207839, Note_on_c, 3, 55, 0
5, 207840, Note_on_c, 3, 64, 64
5, 208319, Note_on_c, 3, 64, 0
5, 208320, Note_on_c, 3, 55, 64
5, 208799, Note_on_c, 3, 55, 0
5, 208800, Note_on_c, 3, 64, 64
5, 209279, Note_on_c, 3, 64, 0
5, 209280, Note_on_c, 3, 55, 64
5, 209759, Note_on_c, 3, 55, 0
5, 209760, Note_on_c, 3, 64, 64
5, 210239, Note_on_c, 3, 64, 0
5, 210240, Note_on_c, 3, 55, 64
5, 210719, Note_on_c, 3, 55, 0
5, 210720, Note_on_c, 3, 64, 64
5, 211199, Note_on_c, 3, 64, 0
5, 211200, Note_on_c, 3, 57, 64
5, 211679, Note_on_c, 3, 57, 0
5, 211680, Note_on_c, 3, 64, 64
5, 212159, Note_on_c, 3, 64, 0
5, 212160, Note_on_c, 3, 57, 64
5, 212639, Note_on_c, 3, 57, 0
5, 212640, Note_on_c, 3, 64, 64
5, 213119, Note_on_c, 3, 64, 0
5, 213120, Note_on_c, 3, 57, 64
5, 213359, Note_on_c, 3, 57, 0
5, 213360, Note_on_c, 3, 57, 64
5, 213599, Note_on_c, 3, 57, 0
5, 213600, Note_on_c, 3, 64, 64
5, 214079, Note_on_c, 3, 64, 0
5, 214080, Note_on_c, 3, 57, 64
5, 214559, Note_on_c, 3, 57, 0
5, 214560, Note_on_c, 3, 64, 64
5, 215039, Note_on_c, 3, 64, 0
5, 215040, Note_on_c, 3, 55, 64
5, 215519, Note_on_c, 3, 55, 0
5, 215520, Note_on_c, 3, 64, 64
5, 215999, Note_on_c, 3, 64, 0
5, 216000, Note_on_c, 3, 55, 64
5, 216479, Note_on_c, 3, 55, 0
5, 216480, Note_on_c, 3, 64, 64
5, 216719, Note_on_c, 3, 64, 0
5, 216720, Note_on_c, 3, 55, 64
5, 216959, Note_on_c, 3, 55, 0
5, 216960, Note_on_c, 3, 55, 64
5, 217439, Note_on_c, 3, 55, 0
5, 217440, Note_on_c, 3, 64, 64
5, 217919, Note_on_c, 3, 64, 0
5, 217920, Note_on_c, 3, 55, 64
5, 218399, Note_on_c, 3, 55, 0
5, 218400, Note_on_c, 3, 64, 64
5, 218879, Note_on_c, 3, 64, 0
5, 218880, Note_on_c, 3, 57, 64
5, 219359, Note_on_c, 3, 57, 0
5, 219360, End_track
0, 0, End_of_file
