0, 0, Header, 1, 5, 480
1, 0, Start_track
1, 0, Title_t, "Piano, Piano\000"
1, 0, Time_signature, 4, 2, 24, 8
1, 0, Key_signature, 0, "major"
1, 0, Tempo, 444444
1, 0, Control_c, 0, 121, 0
1, 0, Program_c, 0, 0
1, 0, Control_c, 0, 7, 100
1, 0, Control_c, 0, 10, 64
1, 0, Control_c, 0, 91, 0
1, 0, Control_c, 0, 93, 0
1, 0, MIDI_port, 0
1, 7680, Note_on_c, 0, 48, 80
1, 8591, Note_on_c, 0, 48, 0
1, 8640, Note_on_c, 0, 48, 80
1, 9095, Note_on_c, 0, 48, 0
1, 9120, Note_on_c, 0, 48, 80
1, 9575, Note_on_c, 0, 48, 0
1, 9600, Note_on_c, 0, 53, 80
1, 10511, Note_on_c, 0, 53, 0
1, 10560, Note_on_c, 0, 53, 80
1, 11471, Note_on_c, 0, 53, 0
1, 11520, Note_on_c, 0, 48, 80
1, 12431, Note_on_c, 0, 48, 0
1, 12480, Note_on_c, 0, 52, 80
1, 13391, Note_on_c, 0, 52, 0
1, 13440, Note_on_c, 0, 55, 80
1, 14351, Note_on_c, 0, 55, 0
1, 14400, Note_on_c, 0, 55, 80
1, 14627, Note_on_c, 0, 55, 0
1, 14640, Note_on_c, 0, 53, 80
1, 14867, Note_on_c, 0, 53, 0
1, 14880, Note_on_c, 0, 52, 80
1, 15107, Note_on_c, 0, 52, 0
1, 15120, Note_on_c, 0, 50, 80
1, 15347, Note_on_c, 0, 50, 0
1, 15360, Note_on_c, 0, 48, 80
1, 15815, Note_on_c, 0, 48, 0
1, 15840, Note_on_c, 0, 52, 80
1, 16295, Note_on_c, 0, 52, 0
1, 16320, Note_on_c, 0, 48, 80
1, 16775, Note_on_c, 0, 48, 0
1, 16800, Note_on_c, 0, 52, 80
1, 17255, Note_on_c, 0, 52, 0
1, 17280, Note_on_c, 0, 53, 80
1, 17735, Note_on_c, 0, 53, 0
1, 17760, Note_on_c, 0, 57, 80
1, 18215, Note_on_c, 0, 57, 0
1, 18240, Note_on_c, 0, 53, 80
1, 18695, Note_on_c, 0, 53, 0
1, 18720, Note_on_c, 0, 57, 80
1, 19175, Note_on_c, 0, 57, 0
1, 19200, Note_on_c, 0, 48, 80
1, 19655, Note_on_c, 0, 48, 0
1, 19680, Note_on_c, 0, 52, 80
1, 20135, Note_on_c, 0, 52, 0
1, 20160, Note_on_c, 0, 48, 80
1, 20615, Note_on_c, 0, 48, 0
1, 20640, Note_on_c, 0, 52, 80
1, 21095, Note_on_c, 0, 52, 0
1, 21120, Note_on_c, 0, 55, 80
1, 21575, Note_on_c, 0, 55, 0
1, 21600, Note_on_c, 0, 59, 80
1, 22055, Note_on_c, 0, 59, 0
1, 22080, Note_on_c, 0, 55, 80
1, 22307, Note_on_c, 0, 55, 0
1, 22320, Note_on_c, 0, 53, 80
1, 22547, Note_on_c, 0, 53, 0
1, 22560, Note_on_c, 0, 52, 80
1, 22787, Note_on_c, 0, 52, 0
1, 22800, Note_on_c, 0, 50, 80
1, 23027, Note_on_c, 0, 50, 0
1, 23040, Note_on_c, 0, 48, 80
1, 23495, Note_on_c, 0, 48, 0
1, 23520, Note_on_c, 0, 52, 80
1, 23560, Note_on_c, 0, 55, 80
1, 23580, Note_on_c, 0, 60, 80
1, 23635, Note_on_c, 0, 55, 0
1, 23636, Note_on_c, 0, 60, 0
1, 23759, Note_on_c, 0, 52, 0
1, 24000, Note_on_c, 0, 48, 80
1, 24455, Note_on_c, 0, 48, 0
1, 24480, Note_on_c, 0, 52, 80
1, 24520, Note_on_c, 0, 55, 80
1, 24540, Note_on_c, 0, 60, 80
1, 24595, Note_on_c, 0, 55, 0
1, 24596, Note_on_c, 0, 60, 0
1, 24719, Note_on_c, 0, 52, 0
1, 24960, Note_on_c, 0, 53, 80
1, 25415, Note_on_c, 0, 53, 0
1, 25440, Note_on_c, 0, 53, 80
1, 25480, Note_on_c, 0, 57, 80
1, 25500, Note_on_c, 0, 60, 80
1, 25555, Note_on_c, 0, 57, 0
1, 25556, Note_on_c, 0, 60, 0
1, 25679, Note_on_c, 0, 53, 0
1, 25920, Note_on_c, 0, 53, 80
1, 26375, Note_on_c, 0, 53, 0
1, 26400, Note_on_c, 0, 53, 80
1, 26440, Note_on_c, 0, 57, 80
1, 26460, Note_on_c, 0, 60, 80
1, 26515, Note_on_c, 0, 57, 0
1, 26516, Note_on_c, 0, 60, 0
1, 26639, Note_on_c, 0, 53, 0
1, 26880, Note_on_c, 0, 48, 80
1, 27335, Note_on_c, 0, 48, 0
1, 27360, Note_on_c, 0, 52, 80
1, 27400, Note_on_c, 0, 55, 80
1, 27420, Note_on_c, 0, 60, 80
1, 27475, Note_on_c, 0, 55, 0
1, 27476, Note_on_c, 0, 60, 0
1, 27599, Note_on_c, 0, 52, 0
1, 27840, Note_on_c, 0, 48, 80
1, 28295, Note_on_c, 0, 48, 0
1, 28320, Note_on_c, 0, 52, 80
1, 28360, Note_on_c, 0, 55, 80
1, 28380, Note_on_c, 0, 60, 80
1, 28435, Note_on_c, 0, 55, 0
1, 28436, Note_on_c, 0, 60, 0
1, 28559, Note_on_c, 0, 52, 0
1, 28800, Note_on_c, 0, 55, 80
1, 29255, Note_on_c, 0, 55, 0
1, 29280, Note_on_c, 0, 55, 80
1, 29280, Note_on_c, 0, 59, 80
1, 29735, Note_on_c, 0, 55, 0
1, 29735, Note_on_c, 0, 59, 0
1, 29760, Note_on_c, 0, 59, 80
1, 29760, Note_on_c, 0, 62, 80
1, 30215, Note_on_c, 0, 59, 0
1, 30215, Note_on_c, 0, 62, 0
1, 30240, Note_on_c, 0, 62, 80
1, 30240, Note_on_c, 0, 67, 80
1, 30695, Note_on_c, 0, 62, 0
1, 30695, Note_on_c, 0, 67, 0
1, 30720, Note_on_c, 0, 72, 80
1, 31175, Note_on_c, 0, 72, 0
1, 31200, Note_on_c, 0, 74, 80
1, 31427, Note_on_c, 0, 74, 0
1, 31440, Note_on_c, 0, 76, 80
1, 31895, Note_on_c, 0, 76, 0
1, 31920, Note_on_c, 0, 74, 80
1, 32375, Note_on_c, 0, 74, 0
1, 32400, Note_on_c, 0, 76, 80
1, 32627, Note_on_c, 0, 76, 0
1, 32640, Note_on_c, 0, 77, 80
1, 33095, Note_on_c, 0, 77, 0
1, 33120, Note_on_c, 0, 76, 80
1, 33347, Note_on_c, 0, 76, 0
1, 33360, Note_on_c, 0, 74, 80
1, 33815, Note_on_c, 0, 74, 0
1, 33840, Note_on_c, 0, 72, 80
1, 34199, Note_on_c, 0, 72, 0
1, 34560, Note_on_c, 0, 76, 80
1, 34787, Note_on_c, 0, 76, 0
1, 34800, Note_on_c, 0, 67, 80
1, 35255, Note_on_c, 0, 67, 0
1, 35280, Note_on_c, 0, 67, 80
1, 35735, Note_on_c, 0, 67, 0
1, 35760, Note_on_c, 0, 67, 80
1, 35987, Note_on_c, 0, 67, 0
1, 36000, Note_on_c, 0, 67, 80
1, 36239, Note_on_c, 0, 67, 0
1, 38400, Note_on_c, 0, 72, 80
1, 38855, Note_on_c, 0, 72, 0
1, 38880, Note_on_c, 0, 74, 80
1, 39107, Note_on_c, 0, 74, 0
1, 39120, Note_on_c, 0, 76, 80
1, 39575, Note_on_c, 0, 76, 0
1, 39600, Note_on_c, 0, 74, 80
1, 40055, Note_on_c, 0, 74, 0
1, 40080, Note_on_c, 0, 76, 80
1, 40307, Note_on_c, 0, 76, 0
1, 40320, Note_on_c, 0, 77, 80
1, 40775, Note_on_c, 0, 77, 0
1, 40800, Note_on_c, 0, 76, 80
1, 41027, Note_on_c, 0, 76, 0
1, 41040, Note_on_c, 0, 74, 80
1, 41495, Note_on_c, 0, 74, 0
1, 41520, Note_on_c, 0, 72, 80
1, 41879, Note_on_c, 0, 72, 0
1, 42240, Note_on_c, 0, 76, 80
1, 42467, Note_on_c, 0, 76, 0
1, 42480, Note_on_c, 0, 67, 80
1, 42935, Note_on_c, 0, 67, 0
1, 42960, Note_on_c, 0, 67, 80
1, 43415, Note_on_c, 0, 67, 0
1, 43440, Note_on_c, 0, 67, 80
1, 43667, Note_on_c, 0, 67, 0
1, 43680, Note_on_c, 0, 67, 80
1, 43919, Note_on_c, 0, 67, 0
1, 46080, Note_on_c, 0, 72, 80
1, 46535, Note_on_c, 0, 72, 0
1, 46560, Note_on_c, 0, 74, 80
1, 46787, Note_on_c, 0, 74, 0
1, 46800, Note_on_c, 0, 76, 80
1, 47255, Note_on_c, 0, 76, 0
1, 47280, Note_on_c, 0, 74, 80
1, 47735, Note_on_c, 0, 74, 0
1, 47760, Note_on_c, 0, 76, 80
1, 47879, Note_on_c, 0, 76, 0
1, 48000, Note_on_c, 0, 77, 80
1, 48239, Note_on_c, 0, 77, 0
1, 48480, Note_on_c, 0, 76, 80
1, 48707, Note_on_c, 0, 76, 0
1, 48720, Note_on_c, 0, 74, 80
1, 49175, Note_on_c, 0, 74, 0
1, 49200, Note_on_c, 0, 72, 80
1, 49427, Note_on_c, 0, 72, 0
1, 49680, Note_on_c, 0, 74, 80
1, 49799, Note_on_c, 0, 74, 0
1, 49920, Note_on_c, 0, 76, 80
1, 50375, Note_on_c, 0, 76, 0
1, 50400, Note_on_c, 0, 74, 80
1, 50627, Note_on_c, 0, 74, 0
1, 50640, Note_on_c, 0, 72, 80
1, 51095, Note_on_c, 0, 72, 0
1, 51360, Note_on_c, 0, 76, 80
1, 51587, Note_on_c, 0, 76, 0
1, 51600, Note_on_c, 0, 67, 80
1, 51600, Note_on_c, 0, 71, 80
1, 51600, Note_on_c, 0, 74, 80
1, 51827, Note_on_c, 0, 67, 0
1, 51827, Note_on_c, 0, 71, 0
1, 51827, Note_on_c, 0, 74, 0
1, 53760, Note_on_c, 0, 79, 80
1, 54215, Note_on_c, 0, 79, 0
1, 54240, Note_on_c, 0, 76, 80
1, 54467, Note_on_c, 0, 76, 0
1, 54480, Note_on_c, 0, 74, 80
1, 54935, Note_on_c, 0, 74, 0
1, 54960, Note_on_c, 0, 76, 80
1, 55415, Note_on_c, 0, 76, 0
1, 55440, Note_on_c, 0, 79, 80
1, 55559, Note_on_c, 0, 79, 0
1, 55680, Note_on_c, 0, 77, 80
1, 56135, Note_on_c, 0, 77, 0
1, 56160, Note_on_c, 0, 76, 80
1, 56387, Note_on_c, 0, 76, 0
1, 56400, Note_on_c, 0, 74, 80
1, 56855, Note_on_c, 0, 74, 0
1, 56880, Note_on_c, 0, 72, 80
1, 57335, Note_on_c, 0, 72, 0
1, 57360, Note_on_c, 0, 74, 80
1, 57479, Note_on_c, 0, 74, 0
1, 57600, Note_on_c, 0, 76, 80
1, 57827, Note_on_c, 0, 76, 0
1, 57840, Note_on_c, 0, 74, 80
1, 58295, Note_on_c, 0, 74, 0
1, 58320, Note_on_c, 0, 72, 80
1, 58775, Note_on_c, 0, 72, 0
1, 59040, Note_on_c, 0, 76, 80
1, 59267, Note_on_c, 0, 76, 0
1, 59280, Note_on_c, 0, 67, 80
1, 59280, Note_on_c, 0, 71, 80
1, 59280, Note_on_c, 0, 74, 80
1, 59507, Note_on_c, 0, 67, 0
1, 59507, Note_on_c, 0, 71, 0
1, 59507, Note_on_c, 0, 74, 0
1, 61440, Note_on_c, 0, 79, 80
1, 62351, Note_on_c, 0, 79, 0
1, 62400, Note_on_c, 0, 72, 80
1, 62400, Note_on_c, 0, 79, 80
1, 62855, Note_on_c, 0, 72, 0
1, 62855, Note_on_c, 0, 79, 0
1, 62880, Note_on_c, 0, 72, 80
1, 62880, Note_on_c, 0, 79, 80
1, 63335, Note_on_c, 0, 72, 0
1, 63335, Note_on_c, 0, 79, 0
1, 63360, Note_on_c, 0, 72, 80
1, 63360, Note_on_c, 0, 79, 80
1, 63587, Note_on_c, 0, 72, 0
1, 63587, Note_on_c, 0, 79, 0
1, 63600, Note_on_c, 0, 77, 80
1, 64055, Note_on_c, 0, 77, 0
1, 64080, Note_on_c, 0, 72, 80
1, 64080, Note_on_c, 0, 79, 80
1, 64535, Note_on_c, 0, 72, 0
1, 64535, Note_on_c, 0, 79, 0
1, 64560, Note_on_c, 0, 72, 80
1, 64560, Note_on_c, 0, 77, 80
1, 64787, Note_on_c, 0, 72, 0
1, 64787, Note_on_c, 0, 77, 0
1, 65280, Note_on_c, 0, 72, 80
1, 65280, Note_on_c, 0, 76, 80
1, 65507, Note_on_c, 0, 72, 0
1, 65507, Note_on_c, 0, 76, 0
1, 65520, Note_on_c, 0, 67, 80
1, 65975, Note_on_c, 0, 67, 0
1, 66000, Note_on_c, 0, 67, 80
1, 66455, Note_on_c, 0, 67, 0
1, 66480, Note_on_c, 0, 67, 80
1, 66707, Note_on_c, 0, 67, 0
1, 66720, Note_on_c, 0, 67, 80
1, 66959, Note_on_c, 0, 67, 0
1, 69120, Note_on_c, 0, 79, 80
1, 70031, Note_on_c, 0, 79, 0
1, 70080, Note_on_c, 0, 72, 80
1, 70080, Note_on_c, 0, 79, 80
1, 70535, Note_on_c, 0, 72, 0
1, 70535, Note_on_c, 0, 79, 0
1, 70560, Note_on_c, 0, 72, 80
1, 70560, Note_on_c, 0, 79, 80
1, 70799, Note_on_c, 0, 72, 0
1, 70799, Note_on_c, 0, 79, 0
1, 71040, Note_on_c, 0, 79, 80
1, 71267, Note_on_c, 0, 79, 0
1, 71280, Note_on_c, 0, 77, 80
1, 71507, Note_on_c, 0, 77, 0
1, 71760, Note_on_c, 0, 79, 80
1, 72215, Note_on_c, 0, 79, 0
1, 72240, Note_on_c, 0, 72, 80
1, 72240, Note_on_c, 0, 77, 80
1, 72467, Note_on_c, 0, 72, 0
1, 72467, Note_on_c, 0, 77, 0
1, 72720, Note_on_c, 0, 76, 80
1, 72947, Note_on_c, 0, 76, 0
1, 72960, Note_on_c, 0, 72, 80
1, 72960, Note_on_c, 0, 76, 80
1, 73415, Note_on_c, 0, 72, 0
1, 73415, Note_on_c, 0, 76, 0
1, 73440, Note_on_c, 0, 67, 80
1, 73667, Note_on_c, 0, 67, 0
1, 73680, Note_on_c, 0, 67, 80
1, 74135, Note_on_c, 0, 67, 0
1, 74160, Note_on_c, 0, 67, 80
1, 74387, Note_on_c, 0, 67, 0
1, 74400, Note_on_c, 0, 67, 80
1, 74639, Note_on_c, 0, 67, 0
1, 75360, Note_on_c, 0, 67, 80
1, 75815, Note_on_c, 0, 67, 0
1, 75840, Note_on_c, 0, 67, 80
1, 76295, Note_on_c, 0, 67, 0
1, 76320, Note_on_c, 0, 67, 80
1, 76547, Note_on_c, 0, 67, 0
1, 76560, Note_on_c, 0, 67, 80
1, 76787, Note_on_c, 0, 67, 0
1, 76800, Time_signature, 6, 2, 24, 8
1, 76800, Tempo, 295567
1, 76800, Note_on_c, 0, 72, 80
1, 77255, Note_on_c, 0, 72, 0
1, 77280, Note_on_c, 0, 72, 80
1, 77507, Note_on_c, 0, 72, 0
1, 77520, Note_on_c, 0, 76, 80
1, 77975, Note_on_c, 0, 76, 0
1, 78000, Note_on_c, 0, 67, 80
1, 78227, Note_on_c, 0, 67, 0
1, 78240, Note_on_c, 0, 72, 80
1, 78695, Note_on_c, 0, 72, 0
1, 78720, Note_on_c, 0, 72, 80
1, 78947, Note_on_c, 0, 72, 0
1, 78960, Note_on_c, 0, 76, 80
1, 79415, Note_on_c, 0, 76, 0
1, 79440, Note_on_c, 0, 67, 80
1, 79667, Note_on_c, 0, 67, 0
1, 79680, Note_on_c, 0, 72, 80
1, 80135, Note_on_c, 0, 72, 0
1, 80160, Note_on_c, 0, 72, 80
1, 80387, Note_on_c, 0, 72, 0
1, 80400, Note_on_c, 0, 77, 80
1, 80855, Note_on_c, 0, 77, 0
1, 80880, Note_on_c, 0, 67, 80
1, 81107, Note_on_c, 0, 67, 0
1, 81120, Note_on_c, 0, 72, 80
1, 81575, Note_on_c, 0, 72, 0
1, 81600, Note_on_c, 0, 72, 80
1, 81827, Note_on_c, 0, 72, 0
1, 81840, Note_on_c, 0, 77, 80
1, 82295, Note_on_c, 0, 77, 0
1, 82320, Note_on_c, 0, 67, 80
1, 82547, Note_on_c, 0, 67, 0
1, 82560, Note_on_c, 0, 72, 80
1, 83015, Note_on_c, 0, 72, 0
1, 83040, Note_on_c, 0, 72, 80
1, 83267, Note_on_c, 0, 72, 0
1, 83280, Note_on_c, 0, 76, 80
1, 83735, Note_on_c, 0, 76, 0
1, 83760, Note_on_c, 0, 67, 80
1, 83987, Note_on_c, 0, 67, 0
1, 84000, Note_on_c, 0, 72, 80
1, 84455, Note_on_c, 0, 72, 0
1, 84480, Note_on_c, 0, 72, 80
1, 84707, Note_on_c, 0, 72, 0
1, 84720, Note_on_c, 0, 76, 80
1, 85175, Note_on_c, 0, 76, 0
1, 85200, Note_on_c, 0, 62, 80
1, 85427, Note_on_c, 0, 62, 0
1, 85440, Note_on_c, 0, 67, 80
1, 85679, Note_on_c, 0, 67, 0
1, 85920, Note_on_c, 0, 67, 80
1, 86147, Note_on_c, 0, 67, 0
1, 86160, Note_on_c, 0, 71, 80
1, 86615, Note_on_c, 0, 71, 0
1, 86640, Note_on_c, 0, 62, 80
1, 86867, Note_on_c, 0, 62, 0
1, 86880, Note_on_c, 0, 67, 80
1, 87335, Note_on_c, 0, 67, 0
1, 87360, Note_on_c, 0, 67, 80
1, 87587, Note_on_c, 0, 67, 0
1, 87600, Note_on_c, 0, 71, 80
1, 88055, Note_on_c, 0, 71, 0
1, 88080, Note_on_c, 0, 67, 80
1, 88307, Note_on_c, 0, 67, 0
1, 88320, Note_on_c, 0, 72, 80
1, 88775, Note_on_c, 0, 72, 0
1, 88800, Note_on_c, 0, 72, 80
1, 89027, Note_on_c, 0, 72, 0
1, 89040, Note_on_c, 0, 76, 80
1, 89495, Note_on_c, 0, 76, 0
1, 89520, Note_on_c, 0, 67, 80
1, 89747, Note_on_c, 0, 67, 0
1, 89760, Note_on_c, 0, 72, 80
1, 90215, Note_on_c, 0, 72, 0
1, 90240, Note_on_c, 0, 72, 80
1, 90467, Note_on_c, 0, 72, 0
1, 90480, Note_on_c, 0, 76, 80
1, 90935, Note_on_c, 0, 76, 0
1, 90960, Note_on_c, 0, 67, 80
1, 91187, Note_on_c, 0, 67, 0
1, 91200, Note_on_c, 0, 72, 80
1, 91655, Note_on_c, 0, 72, 0
1, 91680, Note_on_c, 0, 72, 80
1, 91907, Note_on_c, 0, 72, 0
1, 91920, Note_on_c, 0, 77, 80
1, 92375, Note_on_c, 0, 77, 0
1, 92400, Note_on_c, 0, 67, 80
1, 92627, Note_on_c, 0, 67, 0
1, 92640, Note_on_c, 0, 72, 80
1, 93095, Note_on_c, 0, 72, 0
1, 93120, Note_on_c, 0, 72, 80
1, 93347, Note_on_c, 0, 72, 0
1, 93360, Note_on_c, 0, 77, 80
1, 93815, Note_on_c, 0, 77, 0
1, 93840, Note_on_c, 0, 67, 80
1, 94067, Note_on_c, 0, 67, 0
1, 94080, Note_on_c, 0, 72, 80
1, 94535, Note_on_c, 0, 72, 0
1, 94560, Note_on_c, 0, 72, 80
1, 94787, Note_on_c, 0, 72, 0
1, 94800, Note_on_c, 0, 76, 80
1, 95255, Note_on_c, 0, 76, 0
1, 95280, Note_on_c, 0, 67, 80
1, 95507, Note_on_c, 0, 67, 0
1, 95520, Note_on_c, 0, 72, 80
1, 95975, Note_on_c, 0, 72, 0
1, 96000, Note_on_c, 0, 72, 80
1, 96227, Note_on_c, 0, 72, 0
1, 96240, Note_on_c, 0, 76, 80
1, 96695, Note_on_c, 0, 76, 0
1, 96720, Note_on_c, 0, 62, 80
1, 96947, Note_on_c, 0, 62, 0
1, 96960, Note_on_c, 0, 67, 80
1, 97199, Note_on_c, 0, 67, 0
1, 97440, Note_on_c, 0, 67, 80
1, 97667, Note_on_c, 0, 67, 0
1, 97680, Note_on_c, 0, 71, 80
1, 98135, Note_on_c, 0, 71, 0
1, 98160, Note_on_c, 0, 62, 80
1, 98387, Note_on_c, 0, 62, 0
1, 98400, Note_on_c, 0, 67, 80
1, 98627, Note_on_c, 0, 67, 0
1, 98640, Note_on_c, 0, 62, 80
1, 98867, Note_on_c, 0, 62, 0
1, 98880, Note_on_c, 0, 67, 80
1, 99107, Note_on_c, 0, 67, 0
1, 99120, Note_on_c, 0, 71, 80
1, 99479, Note_on_c, 0, 71, 0
1, 99840, Time_signature, 4, 2, 24, 8
1, 99840, Tempo, 444444
1, 99840, Note_on_c, 0, 72, 80
1, 100295, Note_on_c, 0, 72, 0
1, 100320, Note_on_c, 0, 74, 80
1, 100547, Note_on_c, 0, 74, 0
1, 100560, Note_on_c, 0, 76, 80
1, 101015, Note_on_c, 0, 76, 0
1, 101040, Note_on_c, 0, 74, 80
1, 101495, Note_on_c, 0, 74, 0
1, 101520, Note_on_c, 0, 76, 80
1, 101639, Note_on_c, 0, 76, 0
1, 101760, Note_on_c, 0, 77, 80
1, 101999, Note_on_c, 0, 77, 0
1, 102240, Note_on_c, 0, 76, 80
1, 102467, Note_on_c, 0, 76, 0
1, 102480, Note_on_c, 0, 74, 80
1, 102935, Note_on_c, 0, 74, 0
1, 102960, Note_on_c, 0, 72, 80
1, 103187, Note_on_c, 0, 72, 0
1, 103440, Note_on_c, 0, 74, 80
1, 103559, Note_on_c, 0, 74, 0
1, 103680, Note_on_c, 0, 76, 80
1, 104135, Note_on_c, 0, 76, 0
1, 104160, Note_on_c, 0, 74, 80
1, 104387, Note_on_c, 0, 74, 0
1, 104400, Note_on_c, 0, 72, 80
1, 104855, Note_on_c, 0, 72, 0
1, 105120, Note_on_c, 0, 76, 80
1, 105347, Note_on_c, 0, 76, 0
1, 105360, Note_on_c, 0, 67, 80
1, 105360, Note_on_c, 0, 71, 80
1, 105360, Note_on_c, 0, 74, 80
1, 105587, Note_on_c, 0, 67, 0
1, 105587, Note_on_c, 0, 71, 0
1, 105587, Note_on_c, 0, 74, 0
1, 106080, Note_on_c, 0, 67, 80
1, 106991, Note_on_c, 0, 67, 0
1, 107040, Note_on_c, 0, 67, 80
1, 107400, Note_on_c, 0, 67, 0
1, 107520, Note_on_c, 0, 79, 80
1, 107975, Note_on_c, 0, 79, 0
1, 108000, Note_on_c, 0, 76, 80
1, 108227, Note_on_c, 0, 76, 0
1, 108240, Note_on_c, 0, 74, 80
1, 108695, Note_on_c, 0, 74, 0
1, 108720, Note_on_c, 0, 76, 80
1, 109175, Note_on_c, 0, 76, 0
1, 109200, Note_on_c, 0, 79, 80
1, 109319, Note_on_c, 0, 79, 0
1, 109440, Note_on_c, 0, 77, 80
1, 109895, Note_on_c, 0, 77, 0
1, 109920, Note_on_c, 0, 76, 80
1, 110147, Note_on_c, 0, 76, 0
1, 110160, Note_on_c, 0, 74, 80
1, 110615, Note_on_c, 0, 74, 0
1, 110640, Note_on_c, 0, 72, 80
1, 111095, Note_on_c, 0, 72, 0
1, 111120, Note_on_c, 0, 74, 80
1, 111239, Note_on_c, 0, 74, 0
1, 111360, Note_on_c, 0, 76, 80
1, 111587, Note_on_c, 0, 76, 0
1, 111600, Note_on_c, 0, 74, 80
1, 112055, Note_on_c, 0, 74, 0
1, 112080, Note_on_c, 0, 72, 80
1, 112535, Note_on_c, 0, 72, 0
1, 112800, Note_on_c, 0, 76, 80
1, 113027, Note_on_c, 0, 76, 0
1, 113040, Note_on_c, 0, 67, 80
1, 113040, Note_on_c, 0, 71, 80
1, 113040, Note_on_c, 0, 74, 80
1, 113267, Note_on_c, 0, 67, 0
1, 113267, Note_on_c, 0, 71, 0
1, 113267, Note_on_c, 0, 74, 0
1, 113760, Note_on_c, 0, 67, 80
1, 113911, Note_on_c, 0, 67, 0
1, 113920, Note_on_c, 0, 62, 80
1, 114071, Note_on_c, 0, 62, 0
1, 114080, Note_on_c, 0, 67, 80
1, 114231, Note_on_c, 0, 67, 0
1, 114240, Note_on_c, 0, 69, 80
1, 114695, Note_on_c, 0, 69, 0
1, 114720, Note_on_c, 0, 67, 80
1, 114959, Note_on_c, 0, 67, 0
1, 115200, Note_on_c, 0, 79, 80
1, 116111, Note_on_c, 0, 79, 0
1, 116160, Note_on_c, 0, 72, 80
1, 116160, Note_on_c, 0, 79, 80
1, 116615, Note_on_c, 0, 72, 0
1, 116615, Note_on_c, 0, 79, 0
1, 116640, Note_on_c, 0, 72, 80
1, 116640, Note_on_c, 0, 79, 80
1, 117095, Note_on_c, 0, 72, 0
1, 117095, Note_on_c, 0, 79, 0
1, 117120, Note_on_c, 0, 72, 80
1, 117120, Note_on_c, 0, 79, 80
1, 117347, Note_on_c, 0, 72, 0
1, 117347, Note_on_c, 0, 79, 0
1, 117360, Note_on_c, 0, 77, 80
1, 117815, Note_on_c, 0, 77, 0
1, 117840, Note_on_c, 0, 72, 80
1, 117840, Note_on_c, 0, 79, 80
1, 118295, Note_on_c, 0, 72, 0
1, 118295, Note_on_c, 0, 79, 0
1, 118320, Note_on_c, 0, 72, 80
1, 118320, Note_on_c, 0, 77, 80
1, 118547, Note_on_c, 0, 72, 0
1, 118547, Note_on_c, 0, 77, 0
1, 119040, Note_on_c, 0, 72, 80
1, 119040, Note_on_c, 0, 76, 80
1, 119267, Note_on_c, 0, 72, 0
1, 119267, Note_on_c, 0, 76, 0
1, 119280, Note_on_c, 0, 67, 80
1, 119735, Note_on_c, 0, 67, 0
1, 119760, Note_on_c, 0, 67, 80
1, 120215, Note_on_c, 0, 67, 0
1, 120240, Note_on_c, 0, 67, 80
1, 120467, Note_on_c, 0, 67, 0
1, 120480, Note_on_c, 0, 67, 80
1, 120719, Note_on_c, 0, 67, 0
1, 122880, Note_on_c, 0, 79, 80
1, 123791, Note_on_c, 0, 79, 0
1, 123840, Note_on_c, 0, 72, 80
1, 123840, Note_on_c, 0, 79, 80
1, 124295, Note_on_c, 0, 72, 0
1, 124295, Note_on_c, 0, 79, 0
1, 124320, Note_on_c, 0, 72, 80
1, 124320, Note_on_c, 0, 79, 80
1, 124559, Note_on_c, 0, 72, 0
1, 124559, Note_on_c, 0, 79, 0
1, 124800, Note_on_c, 0, 79, 80
1, 125027, Note_on_c, 0, 79, 0
1, 125040, Note_on_c, 0, 77, 80
1, 125267, Note_on_c, 0, 77, 0
1, 125520, Note_on_c, 0, 79, 80
1, 125975, Note_on_c, 0, 79, 0
1, 126000, Note_on_c, 0, 72, 80
1, 126000, Note_on_c, 0, 77, 80
1, 126227, Note_on_c, 0, 72, 0
1, 126227, Note_on_c, 0, 77, 0
1, 126480, Note_on_c, 0, 76, 80
1, 126707, Note_on_c, 0, 76, 0
1, 126720, Note_on_c, 0, 72, 80
1, 126720, Note_on_c, 0, 76, 80
1, 127175, Note_on_c, 0, 72, 0
1, 127175, Note_on_c, 0, 76, 0
1, 127200, Note_on_c, 0, 67, 80
1, 127427, Note_on_c, 0, 67, 0
1, 127440, Note_on_c, 0, 67, 80
1, 127895, Note_on_c, 0, 67, 0
1, 127920, Note_on_c, 0, 67, 80
1, 128147, Note_on_c, 0, 67, 0
1, 128160, Note_on_c, 0, 67, 80
1, 128399, Note_on_c, 0, 67, 0
1, 128960, Note_on_c, 0, 67, 80
1, 129111, Note_on_c, 0, 67, 0
1, 129120, Note_on_c, 0, 67, 80
1, 129271, Note_on_c, 0, 67, 0
1, 129440, Note_on_c, 0, 67, 80
1, 129591, Note_on_c, 0, 67, 0
1, 129600, Note_on_c, 0, 67, 80
1, 129751, Note_on_c, 0, 67, 0
1, 129920, Note_on_c, 0, 67, 80
1, 130071, Note_on_c, 0, 67, 0
1, 130080, Note_on_c, 0, 67, 80
1, 130231, Note_on_c, 0, 67, 0
1, 130400, Note_on_c, 0, 67, 80
1, 130551, Note_on_c, 0, 67, 0
1, 130560, Time_signature, 6, 2, 24, 8
1, 130560, Tempo, 295567
1, 130560, Note_on_c, 0, 72, 80
1, 131015, Note_on_c, 0, 72, 0
1, 131040, Note_on_c, 0, 72, 80
1, 131267, Note_on_c, 0, 72, 0
1, 131280, Note_on_c, 0, 76, 80
1, 131735, Note_on_c, 0, 76, 0
1, 131760, Note_on_c, 0, 67, 80
1, 131987, Note_on_c, 0, 67, 0
1, 132000, Note_on_c, 0, 72, 80
1, 132455, Note_on_c, 0, 72, 0
1, 132480, Note_on_c, 0, 72, 80
1, 132707, Note_on_c, 0, 72, 0
1, 132720, Note_on_c, 0, 76, 80
1, 133175, Note_on_c, 0, 76, 0
1, 133200, Note_on_c, 0, 67, 80
1, 133427, Note_on_c, 0, 67, 0
1, 133440, Note_on_c, 0, 72, 80
1, 133895, Note_on_c, 0, 72, 0
1, 133920, Note_on_c, 0, 72, 80
1, 134147, Note_on_c, 0, 72, 0
1, 134160, Note_on_c, 0, 77, 80
1, 134615, Note_on_c, 0, 77, 0
1, 134640, Note_on_c, 0, 67, 80
1, 134867, Note_on_c, 0, 67, 0
1, 134880, Note_on_c, 0, 72, 80
1, 135335, Note_on_c, 0, 72, 0
1, 135360, Note_on_c, 0, 72, 80
1, 135587, Note_on_c, 0, 72, 0
1, 135600, Note_on_c, 0, 77, 80
1, 136055, Note_on_c, 0, 77, 0
1, 136080, Note_on_c, 0, 67, 80
1, 136307, Note_on_c, 0, 67, 0
1, 136320, Note_on_c, 0, 72, 80
1, 136547, Note_on_c, 0, 72, 0
1, 136560, Note_on_c, 0, 67, 80
1, 136787, Note_on_c, 0, 67, 0
1, 136800, Note_on_c, 0, 72, 80
1, 137027, Note_on_c, 0, 72, 0
1, 137040, Note_on_c, 0, 76, 80
1, 137495, Note_on_c, 0, 76, 0
1, 137520, Note_on_c, 0, 67, 80
1, 137747, Note_on_c, 0, 67, 0
1, 137760, Note_on_c, 0, 72, 80
1, 137987, Note_on_c, 0, 72, 0
1, 138000, Note_on_c, 0, 67, 80
1, 138227, Note_on_c, 0, 67, 0
1, 138240, Note_on_c, 0, 72, 80
1, 138467, Note_on_c, 0, 72, 0
1, 138480, Note_on_c, 0, 76, 80
1, 138935, Note_on_c, 0, 76, 0
1, 138960, Note_on_c, 0, 62, 80
1, 139187, Note_on_c, 0, 62, 0
1, 139200, Note_on_c, 0, 67, 80
1, 139427, Note_on_c, 0, 67, 0
1, 139440, Note_on_c, 0, 62, 80
1, 139667, Note_on_c, 0, 62, 0
1, 139680, Note_on_c, 0, 67, 80
1, 139907, Note_on_c, 0, 67, 0
1, 139920, Note_on_c, 0, 71, 80
1, 140375, Note_on_c, 0, 71, 0
1, 140400, Note_on_c, 0, 62, 80
1, 140627, Note_on_c, 0, 62, 0
1, 140640, Note_on_c, 0, 67, 80
1, 140867, Note_on_c, 0, 67, 0
1, 140880, Note_on_c, 0, 62, 80
1, 141107, Note_on_c, 0, 62, 0
1, 141120, Note_on_c, 0, 67, 80
1, 141347, Note_on_c, 0, 67, 0
1, 141360, Note_on_c, 0, 71, 80
1, 141815, Note_on_c, 0, 71, 0
1, 141840, Note_on_c, 0, 67, 80
1, 142067, Note_on_c, 0, 67, 0
1, 142080, Note_on_c, 0, 72, 80
1, 142307, Note_on_c, 0, 72, 0
1, 142320, Note_on_c, 0, 67, 80
1, 142547, Note_on_c, 0, 67, 0
1, 142560, Note_on_c, 0, 72, 80
1, 142787, Note_on_c, 0, 72, 0
1, 142800, Note_on_c, 0, 76, 80
1, 143027, Note_on_c, 0, 76, 0
1, 143040, Note_on_c, 0, 72, 80
1, 143267, Note_on_c, 0, 72, 0
1, 143280, Note_on_c, 0, 67, 80
1, 143507, Note_on_c, 0, 67, 0
1, 143520, Note_on_c, 0, 72, 80
1, 143747, Note_on_c, 0, 72, 0
1, 143760, Note_on_c, 0, 67, 80
1, 143987, Note_on_c, 0, 67, 0
1, 144000, Note_on_c, 0, 72, 80
1, 144227, Note_on_c, 0, 72, 0
1, 144240, Note_on_c, 0, 76, 80
1, 144467, Note_on_c, 0, 76, 0
1, 144480, Note_on_c, 0, 72, 80
1, 144707, Note_on_c, 0, 72, 0
1, 144720, Note_on_c, 0, 67, 80
1, 144947, Note_on_c, 0, 67, 0
1, 144960, Note_on_c, 0, 72, 80
1, 145187, Note_on_c, 0, 72, 0
1, 145200, Note_on_c, 0, 67, 80
1, 145427, Note_on_c, 0, 67, 0
1, 145440, Note_on_c, 0, 72, 80
1, 145667, Note_on_c, 0, 72, 0
1, 145680, Note_on_c, 0, 77, 80
1, 145907, Note_on_c, 0, 77, 0
1, 145920, Note_on_c, 0, 72, 80
1, 146147, Note_on_c, 0, 72, 0
1, 146160, Note_on_c, 0, 67, 80
1, 146387, Note_on_c, 0, 67, 0
1, 146400, Note_on_c, 0, 72, 80
1, 146627, Note_on_c, 0, 72, 0
1, 146640, Note_on_c, 0, 67, 80
1, 146867, Note_on_c, 0, 67, 0
1, 146880, Note_on_c, 0, 72, 80
1, 147107, Note_on_c, 0, 72, 0
1, 147120, Note_on_c, 0, 77, 80
1, 147347, Note_on_c, 0, 77, 0
1, 147360, Note_on_c, 0, 72, 80
1, 147587, Note_on_c, 0, 72, 0
1, 147600, Note_on_c, 0, 67, 80
1, 147827, Note_on_c, 0, 67, 0
1, 147840, Note_on_c, 0, 72, 80
1, 148067, Note_on_c, 0, 72, 0
1, 148080, Note_on_c, 0, 67, 80
1, 148307, Note_on_c, 0, 67, 0
1, 148320, Note_on_c, 0, 72, 80
1, 148547, Note_on_c, 0, 72, 0
1, 148560, Note_on_c, 0, 76, 80
1, 148787, Note_on_c, 0, 76, 0
1, 148800, Note_on_c, 0, 72, 80
1, 149027, Note_on_c, 0, 72, 0
1, 149040, Note_on_c, 0, 67, 80
1, 149267, Note_on_c, 0, 67, 0
1, 149280, Note_on_c, 0, 72, 80
1, 149507, Note_on_c, 0, 72, 0
1, 149520, Note_on_c, 0, 67, 80
1, 149747, Note_on_c, 0, 67, 0
1, 149760, Note_on_c, 0, 72, 80
1, 149987, Note_on_c, 0, 72, 0
1, 150000, Note_on_c, 0, 76, 80
1, 150227, Note_on_c, 0, 76, 0
1, 150240, Note_on_c, 0, 72, 80
1, 150467, Note_on_c, 0, 72, 0
1, 150480, Note_on_c, 0, 62, 80
1, 150707, Note_on_c, 0, 62, 0
1, 150720, Note_on_c, 0, 67, 80
1, 150947, Note_on_c, 0, 67, 0
1, 150960, Note_on_c, 0, 62, 80
1, 151187, Note_on_c, 0, 62, 0
1, 151200, Note_on_c, 0, 67, 80
1, 151427, Note_on_c, 0, 67, 0
1, 151440, Note_on_c, 0, 71, 80
1, 151667, Note_on_c, 0, 71, 0
1, 151680, Note_on_c, 0, 67, 80
1, 151907, Note_on_c, 0, 67, 0
1, 151920, Note_on_c, 0, 62, 80
1, 152147, Note_on_c, 0, 62, 0
1, 152160, Note_on_c, 0, 67, 80
1, 152387, Note_on_c, 0, 67, 0
1, 152400, Note_on_c, 0, 62, 80
1, 152627, Note_on_c, 0, 62, 0
1, 152640, Note_on_c, 0, 67, 80
1, 152867, Note_on_c, 0, 67, 0
1, 152880, Note_on_c, 0, 71, 80
1, 153239, Note_on_c, 0, 71, 0
1, 153600, Time_signature, 4, 2, 24, 8
1, 153600, Tempo, 444444
1, 153600, Note_on_c, 0, 60, 80
1, 154055, Note_on_c, 0, 60, 0
1, 154080, Note_on_c, 0, 64, 80
1, 154080, Note_on_c, 0, 67, 80
1, 154535, Note_on_c, 0, 64, 0
1, 154535, Note_on_c, 0, 67, 0
1, 154560, Note_on_c, 0, 60, 80
1, 155015, Note_on_c, 0, 60, 0
1, 155040, Note_on_c, 0, 64, 80
1, 155040, Note_on_c, 0, 67, 80
1, 155267, Note_on_c, 0, 64, 0
1, 155267, Note_on_c, 0, 67, 0
1, 155280, Note_on_c, 0, 72, 80
1, 155507, Note_on_c, 0, 72, 0
1, 155520, Note_on_c, 0, 60, 80
1, 155520, Note_on_c, 0, 65, 80
1, 155975, Note_on_c, 0, 60, 0
1, 155975, Note_on_c, 0, 65, 0
1, 156000, Note_on_c, 0, 65, 80
1, 156000, Note_on_c, 0, 69, 80
1, 156455, Note_on_c, 0, 65, 0
1, 156455, Note_on_c, 0, 69, 0
1, 156480, Note_on_c, 0, 60, 80
1, 156480, Note_on_c, 0, 65, 80
1, 156935, Note_on_c, 0, 60, 0
1, 156935, Note_on_c, 0, 65, 0
1, 156960, Note_on_c, 0, 65, 80
1, 156960, Note_on_c, 0, 72, 80
1, 157187, Note_on_c, 0, 65, 0
1, 157187, Note_on_c, 0, 72, 0
1, 157200, Note_on_c, 0, 69, 80
1, 157427, Note_on_c, 0, 69, 0
1, 157440, Note_on_c, 0, 60, 80
1, 157440, Note_on_c, 0, 64, 80
1, 157895, Note_on_c, 0, 60, 0
1, 157895, Note_on_c, 0, 64, 0
1, 157920, Note_on_c, 0, 64, 80
1, 157920, Note_on_c, 0, 67, 80
1, 158375, Note_on_c, 0, 64, 0
1, 158375, Note_on_c, 0, 67, 0
1, 158400, Note_on_c, 0, 60, 80
1, 158400, Note_on_c, 0, 64, 80
1, 158855, Note_on_c, 0, 60, 0
1, 158855, Note_on_c, 0, 64, 0
1, 158880, Note_on_c, 0, 64, 80
1, 158880, Note_on_c, 0, 67, 80
1, 159107, Note_on_c, 0, 64, 0
1, 159107, Note_on_c, 0, 67, 0
1, 159120, Note_on_c, 0, 67, 80
1, 159120, Note_on_c, 0, 72, 80
1, 159347, Note_on_c, 0, 67, 0
1, 159347, Note_on_c, 0, 72, 0
1, 159360, Note_on_c, 0, 62, 80
1, 159360, Note_on_c, 0, 67, 80
1, 159815, Note_on_c, 0, 62, 0
1, 159815, Note_on_c, 0, 67, 0
1, 159840, Note_on_c, 0, 67, 80
1, 159840, Note_on_c, 0, 71, 80
1, 160295, Note_on_c, 0, 67, 0
1, 160295, Note_on_c, 0, 71, 0
1, 160320, Note_on_c, 0, 62, 80
1, 160320, Note_on_c, 0, 67, 80
1, 160775, Note_on_c, 0, 62, 0
1, 160775, Note_on_c, 0, 67, 0
1, 160800, Note_on_c, 0, 67, 80
1, 160800, Note_on_c, 0, 71, 80
1, 161027, Note_on_c, 0, 67, 0
1, 161027, Note_on_c, 0, 71, 0
1, 161040, Note_on_c, 0, 71, 80
1, 161040, Note_on_c, 0, 74, 80
1, 161267, Note_on_c, 0, 71, 0
1, 161267, Note_on_c, 0, 74, 0
1, 161280, Note_on_c, 0, 60, 80
1, 161280, Note_on_c, 0, 64, 80
1, 161280, Note_on_c, 0, 67, 80
1, 161735, Note_on_c, 0, 60, 0
1, 161735, Note_on_c, 0, 64, 0
1, 161735, Note_on_c, 0, 67, 0
1, 161760, Note_on_c, 0, 64, 80
1, 161760, Note_on_c, 0, 67, 80
1, 161760, Note_on_c, 0, 72, 80
1, 162215, Note_on_c, 0, 64, 0
1, 162215, Note_on_c, 0, 67, 0
1, 162215, Note_on_c, 0, 72, 0
1, 162240, Note_on_c, 0, 60, 80
1, 162240, Note_on_c, 0, 64, 80
1, 162240, Note_on_c, 0, 67, 80
1, 162695, Note_on_c, 0, 60, 0
1, 162695, Note_on_c, 0, 64, 0
1, 162695, Note_on_c, 0, 67, 0
1, 162720, Note_on_c, 0, 72, 80
1, 162720, Note_on_c, 0, 76, 80
1, 162947, Note_on_c, 0, 72, 0
1, 162947, Note_on_c, 0, 76, 0
1, 162960, Note_on_c, 0, 67, 80
1, 162960, Note_on_c, 0, 72, 80
1, 163187, Note_on_c, 0, 67, 0
1, 163187, Note_on_c, 0, 72, 0
1, 163200, Note_on_c, 0, 60, 80
1, 163200, Note_on_c, 0, 65, 80
1, 163200, Note_on_c, 0, 69, 80
1, 163655, Note_on_c, 0, 60, 0
1, 163655, Note_on_c, 0, 65, 0
1, 163655, Note_on_c, 0, 69, 0
1, 163680, Note_on_c, 0, 65, 80
1, 163680, Note_on_c, 0, 69, 80
1, 163680, Note_on_c, 0, 72, 80
1, 164135, Note_on_c, 0, 65, 0
1, 164135, Note_on_c, 0, 69, 0
1, 164135, Note_on_c, 0, 72, 0
1, 164160, Note_on_c, 0, 60, 80
1, 164160, Note_on_c, 0, 65, 80
1, 164160, Note_on_c, 0, 69, 80
1, 164615, Note_on_c, 0, 60, 0
1, 164615, Note_on_c, 0, 65, 0
1, 164615, Note_on_c, 0, 69, 0
1, 164640, Note_on_c, 0, 72, 80
1, 164640, Note_on_c, 0, 77, 80
1, 164867, Note_on_c, 0, 72, 0
1, 164867, Note_on_c, 0, 77, 0
1, 164880, Note_on_c, 0, 69, 80
1, 164880, Note_on_c, 0, 72, 80
1, 165107, Note_on_c, 0, 69, 0
1, 165107, Note_on_c, 0, 72, 0
1, 165120, Note_on_c, 0, 60, 80
1, 165120, Note_on_c, 0, 64, 80
1, 165120, Note_on_c, 0, 67, 80
1, 165575, Note_on_c, 0, 60, 0
1, 165575, Note_on_c, 0, 64, 0
1, 165575, Note_on_c, 0, 67, 0
1, 165600, Note_on_c, 0, 64, 80
1, 165600, Note_on_c, 0, 67, 80
1, 165600, Note_on_c, 0, 72, 80
1, 166055, Note_on_c, 0, 64, 0
1, 166055, Note_on_c, 0, 67, 0
1, 166055, Note_on_c, 0, 72, 0
1, 166080, Note_on_c, 0, 60, 80
1, 166080, Note_on_c, 0, 64, 80
1, 166080, Note_on_c, 0, 67, 80
1, 166535, Note_on_c, 0, 60, 0
1, 166535, Note_on_c, 0, 64, 0
1, 166535, Note_on_c, 0, 67, 0
1, 166560, Note_on_c, 0, 72, 80
1, 166560, Note_on_c, 0, 76, 80
1, 166787, Note_on_c, 0, 72, 0
1, 166787, Note_on_c, 0, 76, 0
1, 166800, Note_on_c, 0, 67, 80
1, 166800, Note_on_c, 0, 72, 80
1, 167027, Note_on_c, 0, 67, 0
1, 167027, Note_on_c, 0, 72, 0
1, 167040, Note_on_c, 0, 62, 80
1, 167040, Note_on_c, 0, 67, 80
1, 167495, Note_on_c, 0, 62, 0
1, 167495, Note_on_c, 0, 67, 0
1, 167520, Note_on_c, 0, 62, 80
1, 167520, Note_on_c, 0, 67, 80
1, 167520, Note_on_c, 0, 71, 80
1, 167975, Note_on_c, 0, 62, 0
1, 167975, Note_on_c, 0, 67, 0
1, 167975, Note_on_c, 0, 71, 0
1, 168000, Note_on_c, 0, 67, 80
1, 168000, Note_on_c, 0, 71, 80
1, 168000, Note_on_c, 0, 74, 80
1, 168179, Note_on_c, 0, 67, 0
1, 168179, Note_on_c, 0, 71, 0
1, 168179, Note_on_c, 0, 74, 0
1, 168360, Note_on_c, 0, 71, 80
1, 168416, Note_on_c, 0, 71, 0
1, 168420, Note_on_c, 0, 74, 80
1, 168476, Note_on_c, 0, 74, 0
1, 168480, Note_on_c, 0, 79, 80
1, 168935, Note_on_c, 0, 79, 0
1, 168960, Note_on_c, 0, 79, 80
1, 169871, Note_on_c, 0, 79, 0
1, 169920, Note_on_c, 0, 79, 80
1, 170375, Note_on_c, 0, 79, 0
1, 170400, Note_on_c, 0, 79, 80
1, 170855, Note_on_c, 0, 79, 0
1, 170880, Note_on_c, 0, 79, 80
1, 171107, Note_on_c, 0, 79, 0
1, 171120, Note_on_c, 0, 77, 80
1, 171575, Note_on_c, 0, 77, 0
1, 171600, Note_on_c, 0, 79, 80
1, 172055, Note_on_c, 0, 79, 0
1, 172080, Note_on_c, 0, 77, 80
1, 172307, Note_on_c, 0, 77, 0
1, 172800, Note_on_c, 0, 76, 80
1, 173027, Note_on_c, 0, 76, 0
1, 173040, Note_on_c, 0, 67, 80
1, 173495, Note_on_c, 0, 67, 0
1, 173520, Note_on_c, 0, 67, 80
1, 173975, Note_on_c, 0, 67, 0
1, 174000, Note_on_c, 0, 67, 80
1, 174227, Note_on_c, 0, 67, 0
1, 174240, Note_on_c, 0, 67, 80
1, 174479, Note_on_c, 0, 67, 0
1, 176640, Note_on_c, 0, 79, 80
1, 177551, Note_on_c, 0, 79, 0
1, 177600, Note_on_c, 0, 79, 80
1, 178055, Note_on_c, 0, 79, 0
1, 178080, Note_on_c, 0, 79, 80
1, 178535, Note_on_c, 0, 79, 0
1, 178560, Note_on_c, 0, 79, 80
1, 178787, Note_on_c, 0, 79, 0
1, 178800, Note_on_c, 0, 77, 80
1, 179255, Note_on_c, 0, 77, 0
1, 179280, Note_on_c, 0, 79, 80
1, 179735, Note_on_c, 0, 79, 0
1, 179760, Note_on_c, 0, 77, 80
1, 179987, Note_on_c, 0, 77, 0
1, 180240, Note_on_c, 0, 76, 80
1, 180467, Note_on_c, 0, 76, 0
1, 180480, Note_on_c, 0, 76, 80
1, 180707, Note_on_c, 0, 76, 0
1, 180720, Note_on_c, 0, 67, 80
1, 181175, Note_on_c, 0, 67, 0
1, 181200, Note_on_c, 0, 67, 80
1, 181655, Note_on_c, 0, 67, 0
1, 181680, Note_on_c, 0, 67, 80
1, 181907, Note_on_c, 0, 67, 0
1, 181920, Note_on_c, 0, 67, 80
1, 182159, Note_on_c, 0, 67, 0
1, 183840, Note_on_c, 0, 67, 80
1, 184019, Note_on_c, 0, 67, 0
1, 184280, Note_on_c, 0, 76, 80
1, 184317, Note_on_c, 0, 76, 0
1, 184320, Note_on_c, 0, 79, 80
1, 184559, Note_on_c, 0, 79, 0
1, 185240, Note_on_c, 0, 76, 80
1, 185277, Note_on_c, 0, 76, 0
1, 185280, Note_on_c, 0, 79, 80
1, 185519, Note_on_c, 0, 79, 0
1, 185760, Note_on_c, 0, 72, 80
1, 185760, Note_on_c, 0, 79, 80
1, 185999, Note_on_c, 0, 72, 0
1, 185999, Note_on_c, 0, 79, 0
1, 186240, Note_on_c, 0, 79, 80
1, 186467, Note_on_c, 0, 79, 0
1, 186480, Note_on_c, 0, 77, 80
1, 186935, Note_on_c, 0, 77, 0
1, 186960, Note_on_c, 0, 79, 80
1, 187415, Note_on_c, 0, 79, 0
1, 187440, Note_on_c, 0, 72, 80
1, 187440, Note_on_c, 0, 77, 80
1, 187667, Note_on_c, 0, 72, 0
1, 187667, Note_on_c, 0, 77, 0
1, 188160, Note_on_c, 0, 76, 80
1, 188387, Note_on_c, 0, 76, 0
1, 188400, Note_on_c, 0, 67, 80
1, 188855, Note_on_c, 0, 67, 0
1, 188880, Note_on_c, 0, 67, 80
1, 189335, Note_on_c, 0, 67, 0
1, 189360, Note_on_c, 0, 67, 80
1, 189587, Note_on_c, 0, 67, 0
1, 189600, Note_on_c, 0, 67, 80
1, 189839, Note_on_c, 0, 67, 0
1, 190080, Note_on_c, 0, 50, 80
1, 190080, Note_on_c, 0, 55, 80
1, 190535, Note_on_c, 0, 50, 0
1, 190535, Note_on_c, 0, 55, 0
1, 190560, Note_on_c, 0, 55, 80
1, 190560, Note_on_c, 0, 59, 80
1, 191015, Note_on_c, 0, 55, 0
1, 191015, Note_on_c, 0, 59, 0
1, 191040, Note_on_c, 0, 59, 80
1, 191040, Note_on_c, 0, 62, 80
1, 191495, Note_on_c, 0, 59, 0
1, 191495, Note_on_c, 0, 62, 0
1, 191520, Note_on_c, 0, 62, 80
1, 191520, Note_on_c, 0, 67, 80
1, 191759, Note_on_c, 0, 62, 0
1, 191759, Note_on_c, 0, 67, 0
1, 192000, Note_on_c, 0, 79, 80
1, 192911, Note_on_c, 0, 79, 0
1, 192960, Note_on_c, 0, 72, 80
1, 192960, Note_on_c, 0, 79, 80
1, 193415, Note_on_c, 0, 72, 0
1, 193415, Note_on_c, 0, 79, 0
1, 193440, Note_on_c, 0, 72, 80
1, 193440, Note_on_c, 0, 79, 80
1, 193679, Note_on_c, 0, 72, 0
1, 193679, Note_on_c, 0, 79, 0
1, 193920, Note_on_c, 0, 79, 80
1, 194147, Note_on_c, 0, 79, 0
1, 194160, Note_on_c, 0, 77, 80
1, 194387, Note_on_c, 0, 77, 0
1, 194640, Note_on_c, 0, 79, 80
1, 195095, Note_on_c, 0, 79, 0
1, 195120, Note_on_c, 0, 72, 80
1, 195120, Note_on_c, 0, 77, 80
1, 195347, Note_on_c, 0, 72, 0
1, 195347, Note_on_c, 0, 77, 0
1, 195840, Note_on_c, 0, 76, 80
1, 196295, Note_on_c, 0, 76, 0
1, 196320, Note_on_c, 0, 67, 80
1, 196547, Note_on_c, 0, 67, 0
1, 196560, Note_on_c, 0, 67, 80
1, 197015, Note_on_c, 0, 67, 0
1, 197040, Note_on_c, 0, 67, 80
1, 197267, Note_on_c, 0, 67, 0
1, 197280, Note_on_c, 0, 67, 80
1, 197519, Note_on_c, 0, 67, 0
1, 197760, Note_on_c, 0, 55, 80
1, 197911, Note_on_c, 0, 55, 0
1, 197920, Note_on_c, 0, 59, 80
1, 198071, Note_on_c, 0, 59, 0
1, 198080, Note_on_c, 0, 55, 80
1, 198231, Note_on_c, 0, 55, 0
1, 198240, Note_on_c, 0, 67, 80
1, 198391, Note_on_c, 0, 67, 0
1, 198400, Note_on_c, 0, 62, 80
1, 198551, Note_on_c, 0, 62, 0
1, 198560, Note_on_c, 0, 67, 80
1, 198711, Note_on_c, 0, 67, 0
1, 198720, Note_on_c, 0, 69, 80
1, 199175, Note_on_c, 0, 69, 0
1, 199200, Note_on_c, 0, 67, 80
1, 199439, Note_on_c, 0, 67, 0
1, 199680, Note_on_c, 0, 79, 80
1, 200591, Note_on_c, 0, 79, 0
1, 200640, Note_on_c, 0, 79, 80
1, 201095, Note_on_c, 0, 79, 0
1, 201120, Note_on_c, 0, 72, 80
1, 201120, Note_on_c, 0, 79, 80
1, 201359, Note_on_c, 0, 72, 0
1, 201359, Note_on_c, 0, 79, 0
1, 201600, Note_on_c, 0, 79, 80
1, 201827, Note_on_c, 0, 79, 0
1, 201840, Note_on_c, 0, 77, 80
1, 202295, Note_on_c, 0, 77, 0
1, 202320, Note_on_c, 0, 79, 80
1, 202775, Note_on_c, 0, 79, 0
1, 202800, Note_on_c, 0, 72, 80
1, 202800, Note_on_c, 0, 77, 80
1, 203027, Note_on_c, 0, 72, 0
1, 203027, Note_on_c, 0, 77, 0
1, 203520, Note_on_c, 0, 76, 80
1, 203747, Note_on_c, 0, 76, 0
1, 203760, Note_on_c, 0, 67, 80
1, 204215, Note_on_c, 0, 67, 0
1, 204240, Note_on_c, 0, 67, 80
1, 204695, Note_on_c, 0, 67, 0
1, 204720, Note_on_c, 0, 67, 80
1, 204947, Note_on_c, 0, 67, 0
1, 204960, Note_on_c, 0, 67, 80
1, 205139, Note_on_c, 0, 67, 0
1, 205320, Note_on_c, 0, 55, 80
1, 205433, Note_on_c, 0, 55, 0
1, 205440, Note_on_c, 0, 59, 80
1, 205553, Note_on_c, 0, 59, 0
1, 205560, Note_on_c, 0, 55, 80
1, 205673, Note_on_c, 0, 55, 0
1, 205680, Note_on_c, 0, 59, 80
1, 205793, Note_on_c, 0, 59, 0
1, 205800, Note_on_c, 0, 62, 80
1, 205913, Note_on_c, 0, 62, 0
1, 205920, Note_on_c, 0, 59, 80
1, 206033, Note_on_c, 0, 59, 0
1, 206040, Note_on_c, 0, 62, 80
1, 206153, Note_on_c, 0, 62, 0
1, 206160, Note_on_c, 0, 67, 80
1, 206273, Note_on_c, 0, 67, 0
1, 206280, Note_on_c, 0, 62, 80
1, 206393, Note_on_c, 0, 62, 0
1, 206400, Note_on_c, 0, 67, 80
1, 206513, Note_on_c, 0, 67, 0
1, 206520, Note_on_c, 0, 71, 80
1, 206633, Note_on_c, 0, 71, 0
1, 206640, Note_on_c, 0, 67, 80
1, 206753, Note_on_c, 0, 67, 0
1, 206760, Note_on_c, 0, 71, 80
1, 206873, Note_on_c, 0, 71, 0
1, 206880, Note_on_c, 0, 74, 80
1, 207119, Note_on_c, 0, 74, 0
1, 207360, Note_on_c, 0, 79, 80
1, 208271, Note_on_c, 0, 79, 0
1, 208320, Note_on_c, 0, 72, 80
1, 208320, Note_on_c, 0, 79, 80
1, 208775, Note_on_c, 0, 72, 0
1, 208775, Note_on_c, 0, 79, 0
1, 208800, Note_on_c, 0, 72, 80
1, 208800, Note_on_c, 0, 79, 80
1, 209039, Note_on_c, 0, 72, 0
1, 209039, Note_on_c, 0, 79, 0
1, 209280, Note_on_c, 0, 79, 80
1, 209507, Note_on_c, 0, 79, 0
1, 209520, Note_on_c, 0, 77, 80
1, 209747, Note_on_c, 0, 77, 0
1, 210000, Note_on_c, 0, 79, 80
1, 210455, Note_on_c, 0, 79, 0
1, 210480, Note_on_c, 0, 72, 80
1, 210480, Note_on_c, 0, 77, 80
1, 210707, Note_on_c, 0, 72, 0
1, 210707, Note_on_c, 0, 77, 0
1, 211200, Note_on_c, 0, 76, 80
1, 212111, Note_on_c, 0, 76, 0
1, 212160, Note_on_c, 0, 76, 80
1, 212615, Note_on_c, 0, 76, 0
1, 212880, Tempo, 461538
1, 212880, Note_on_c, 0, 79, 80
1, 213107, Note_on_c, 0, 79, 0
1, 213120, Tempo, 480000
1, 213120, Note_on_c, 0, 74, 80
1, 213575, Note_on_c, 0, 74, 0
1, 213600, Tempo, 521739
1, 213600, Note_on_c, 0, 79, 80
1, 213751, Note_on_c, 0, 79, 0
1, 213760, Note_on_c, 0, 74, 80
1, 213911, Note_on_c, 0, 74, 0
1, 213920, Tempo, 571429
1, 213920, Note_on_c, 0, 79, 80
1, 214071, Note_on_c, 0, 79, 0
1, 214080, Note_on_c, 0, 83, 80
1, 214319, Note_on_c, 0, 83, 0
1, 214560, Tempo, 857143
1, 214560, Note_on_c, 0, 79, 80
1, 215015, Note_on_c, 0, 79, 0
1, 215040, Tempo, 1000000
1, 215040, Note_on_c, 0, 67, 80
1, 215070, Note_on_c, 0, 72, 80
1, 215100, Note_on_c, 0, 76, 80
1, 215130, Note_on_c, 0, 79, 80
1, 215495, Note_on_c, 0, 67, 0
1, 215496, Note_on_c, 0, 72, 0
1, 215498, Note_on_c, 0, 76, 0
1, 215499, Note_on_c, 0, 79, 0
1, 215500, End_track
2, 0, Start_track
2, 0, Title_t, "Piano, Piano\000"
2, 0, Key_signature, 0, "major"
2, 0, MIDI_port, 0
2, 45960, Note_on_c, 0, 60, 80
2, 45997, Note_on_c, 0, 60, 0
2, 46000, Note_on_c, 0, 64, 80
2, 46037, Note_on_c, 0, 64, 0
2, 46040, Note_on_c, 0, 67, 80
2, 46077, Note_on_c, 0, 67, 0
2, 47880, Note_on_c, 0, 65, 80
2, 47917, Note_on_c, 0, 65, 0
2, 47920, Note_on_c, 0, 69, 80
2, 47957, Note_on_c, 0, 69, 0
2, 47960, Note_on_c, 0, 72, 80
2, 47997, Note_on_c, 0, 72, 0
2, 49800, Note_on_c, 0, 60, 80
2, 49837, Note_on_c, 0, 60, 0
2, 49840, Note_on_c, 0, 64, 80
2, 49877, Note_on_c, 0, 64, 0
2, 49880, Note_on_c, 0, 67, 80
2, 49917, Note_on_c, 0, 67, 0
2, 53640, Note_on_c, 0, 67, 80
2, 53677, Note_on_c, 0, 67, 0
2, 53680, Note_on_c, 0, 72, 80
2, 53717, Note_on_c, 0, 72, 0
2, 53720, Note_on_c, 0, 76, 80
2, 53757, Note_on_c, 0, 76, 0
2, 55560, Note_on_c, 0, 65, 80
2, 55597, Note_on_c, 0, 65, 0
2, 55600, Note_on_c, 0, 69, 80
2, 55637, Note_on_c, 0, 69, 0
2, 55640, Note_on_c, 0, 72, 80
2, 55677, Note_on_c, 0, 72, 0
2, 57480, Note_on_c, 0, 60, 80
2, 57517, Note_on_c, 0, 60, 0
2, 57520, Note_on_c, 0, 67, 80
2, 57557, Note_on_c, 0, 67, 0
2, 57560, Note_on_c, 0, 72, 80
2, 57597, Note_on_c, 0, 72, 0
2, 61320, Note_on_c, 0, 67, 80
2, 61357, Note_on_c, 0, 67, 0
2, 61360, Note_on_c, 0, 72, 80
2, 61397, Note_on_c, 0, 72, 0
2, 61400, Note_on_c, 0, 76, 80
2, 61437, Note_on_c, 0, 76, 0
2, 69000, Note_on_c, 0, 67, 80
2, 69037, Note_on_c, 0, 67, 0
2, 69040, Note_on_c, 0, 72, 80
2, 69077, Note_on_c, 0, 72, 0
2, 69080, Note_on_c, 0, 76, 80
2, 69117, Note_on_c, 0, 76, 0
2, 70920, Note_on_c, 0, 65, 80
2, 70957, Note_on_c, 0, 65, 0
2, 70960, Note_on_c, 0, 69, 80
2, 70997, Note_on_c, 0, 69, 0
2, 71000, Note_on_c, 0, 72, 80
2, 71037, Note_on_c, 0, 72, 0
2, 71640, Note_on_c, 0, 69, 80
2, 71696, Note_on_c, 0, 69, 0
2, 71700, Note_on_c, 0, 72, 80
2, 71756, Note_on_c, 0, 72, 0
2, 99600, Note_on_c, 0, 60, 80
2, 99675, Note_on_c, 0, 60, 0
2, 99680, Note_on_c, 0, 64, 80
2, 99755, Note_on_c, 0, 64, 0
2, 99760, Note_on_c, 0, 67, 80
2, 99835, Note_on_c, 0, 67, 0
2, 101640, Note_on_c, 0, 65, 80
2, 101677, Note_on_c, 0, 65, 0
2, 101680, Note_on_c, 0, 69, 80
2, 101717, Note_on_c, 0, 69, 0
2, 101720, Note_on_c, 0, 72, 80
2, 101757, Note_on_c, 0, 72, 0
2, 103560, Note_on_c, 0, 60, 80
2, 103597, Note_on_c, 0, 60, 0
2, 103600, Note_on_c, 0, 64, 80
2, 103637, Note_on_c, 0, 64, 0
2, 103640, Note_on_c, 0, 67, 80
2, 103677, Note_on_c, 0, 67, 0
2, 107400, Note_on_c, 0, 67, 80
2, 107440, Note_on_c, 0, 72, 80
2, 107477, Note_on_c, 0, 72, 0
2, 107480, Note_on_c, 0, 76, 80
2, 107513, Note_on_c, 0, 67, 0
2, 107517, Note_on_c, 0, 76, 0
2, 109320, Note_on_c, 0, 65, 80
2, 109357, Note_on_c, 0, 65, 0
2, 109360, Note_on_c, 0, 69, 80
2, 109397, Note_on_c, 0, 69, 0
2, 109400, Note_on_c, 0, 72, 80
2, 109437, Note_on_c, 0, 72, 0
2, 111240, Note_on_c, 0, 60, 80
2, 111277, Note_on_c, 0, 60, 0
2, 111280, Note_on_c, 0, 67, 80
2, 111317, Note_on_c, 0, 67, 0
2, 111320, Note_on_c, 0, 72, 80
2, 111357, Note_on_c, 0, 72, 0
2, 115080, Note_on_c, 0, 67, 80
2, 115117, Note_on_c, 0, 67, 0
2, 115120, Note_on_c, 0, 72, 80
2, 115157, Note_on_c, 0, 72, 0
2, 115160, Note_on_c, 0, 76, 80
2, 115197, Note_on_c, 0, 76, 0
2, 122760, Note_on_c, 0, 67, 80
2, 122797, Note_on_c, 0, 67, 0
2, 122800, Note_on_c, 0, 72, 80
2, 122837, Note_on_c, 0, 72, 0
2, 122840, Note_on_c, 0, 76, 80
2, 122877, Note_on_c, 0, 76, 0
2, 124680, Note_on_c, 0, 65, 80
2, 124717, Note_on_c, 0, 65, 0
2, 124720, Note_on_c, 0, 69, 80
2, 124757, Note_on_c, 0, 69, 0
2, 124760, Note_on_c, 0, 72, 80
2, 124797, Note_on_c, 0, 72, 0
2, 125400, Note_on_c, 0, 69, 80
2, 125456, Note_on_c, 0, 69, 0
2, 125460, Note_on_c, 0, 72, 80
2, 125516, Note_on_c, 0, 72, 0
2, 184160, Note_on_c, 0, 60, 80
2, 184197, Note_on_c, 0, 60, 0
2, 184200, Note_on_c, 0, 67, 80
2, 184237, Note_on_c, 0, 67, 0
2, 184240, Note_on_c, 0, 72, 80
2, 184277, Note_on_c, 0, 72, 0
2, 185120, Note_on_c, 0, 60, 80
2, 185157, Note_on_c, 0, 60, 0
2, 185160, Note_on_c, 0, 67, 80
2, 185197, Note_on_c, 0, 67, 0
2, 185200, Note_on_c, 0, 72, 80
2, 185237, Note_on_c, 0, 72, 0
2, 186080, Note_on_c, 0, 60, 80
2, 186117, Note_on_c, 0, 60, 0
2, 186120, Note_on_c, 0, 65, 80
2, 186157, Note_on_c, 0, 65, 0
2, 186160, Note_on_c, 0, 69, 80
2, 186197, Note_on_c, 0, 69, 0
2, 186200, Note_on_c, 0, 72, 80
2, 186237, Note_on_c, 0, 72, 0
2, 187040, Note_on_c, 0, 60, 80
2, 187077, Note_on_c, 0, 60, 0
2, 187080, Note_on_c, 0, 65, 80
2, 187117, Note_on_c, 0, 65, 0
2, 187120, Note_on_c, 0, 69, 80
2, 187157, Note_on_c, 0, 69, 0
2, 187160, Note_on_c, 0, 72, 80
2, 187197, Note_on_c, 0, 72, 0
2, 188000, Note_on_c, 0, 60, 80
2, 188037, Note_on_c, 0, 60, 0
2, 188040, Note_on_c, 0, 64, 80
2, 188077, Note_on_c, 0, 64, 0
2, 188080, Note_on_c, 0, 67, 80
2, 188117, Note_on_c, 0, 67, 0
2, 188120, Note_on_c, 0, 72, 80
2, 188157, Note_on_c, 0, 72, 0
2, 191040, Note_on_c, 0, 50, 80
2, 191495, Note_on_c, 0, 50, 0
2, 191520, Note_on_c, 0, 55, 80
2, 191747, Note_on_c, 0, 55, 0
2, 191840, Note_on_c, 0, 60, 80
2, 191877, Note_on_c, 0, 60, 0
2, 191880, Note_on_c, 0, 67, 80
2, 191917, Note_on_c, 0, 67, 0
2, 191920, Note_on_c, 0, 72, 80
2, 191957, Note_on_c, 0, 72, 0
2, 191960, Note_on_c, 0, 76, 80
2, 191997, Note_on_c, 0, 76, 0
2, 192800, Note_on_c, 0, 60, 80
2, 192837, Note_on_c, 0, 60, 0
2, 192840, Note_on_c, 0, 67, 80
2, 192877, Note_on_c, 0, 67, 0
2, 192880, Note_on_c, 0, 72, 80
2, 192917, Note_on_c, 0, 72, 0
2, 192920, Note_on_c, 0, 76, 80
2, 192957, Note_on_c, 0, 76, 0
2, 193800, Note_on_c, 0, 65, 80
2, 193837, Note_on_c, 0, 65, 0
2, 193840, Note_on_c, 0, 69, 80
2, 193877, Note_on_c, 0, 69, 0
2, 193880, Note_on_c, 0, 72, 80
2, 193917, Note_on_c, 0, 72, 0
2, 194460, Note_on_c, 0, 65, 80
2, 194516, Note_on_c, 0, 65, 0
2, 194520, Note_on_c, 0, 69, 80
2, 194576, Note_on_c, 0, 69, 0
2, 194580, Note_on_c, 0, 72, 80
2, 194636, Note_on_c, 0, 72, 0
2, 195680, Note_on_c, 0, 60, 80
2, 195717, Note_on_c, 0, 60, 0
2, 195720, Note_on_c, 0, 64, 80
2, 195757, Note_on_c, 0, 64, 0
2, 195760, Note_on_c, 0, 67, 80
2, 195797, Note_on_c, 0, 67, 0
2, 195800, Note_on_c, 0, 72, 80
2, 195837, Note_on_c, 0, 72, 0
2, 199520, Note_on_c, 0, 60, 80
2, 199557, Note_on_c, 0, 60, 0
2, 199560, Note_on_c, 0, 67, 80
2, 199597, Note_on_c, 0, 67, 0
2, 199600, Note_on_c, 0, 72, 80
2, 199637, Note_on_c, 0, 72, 0
2, 199640, Note_on_c, 0, 76, 80
2, 199677, Note_on_c, 0, 76, 0
2, 200480, Note_on_c, 0, 60, 80
2, 200517, Note_on_c, 0, 60, 0
2, 200520, Note_on_c, 0, 67, 80
2, 200557, Note_on_c, 0, 67, 0
2, 200560, Note_on_c, 0, 72, 80
2, 200597, Note_on_c, 0, 72, 0
2, 200600, Note_on_c, 0, 76, 80
2, 200637, Note_on_c, 0, 76, 0
2, 201440, Note_on_c, 0, 60, 80
2, 201477, Note_on_c, 0, 60, 0
2, 201480, Note_on_c, 0, 65, 80
2, 201517, Note_on_c, 0, 65, 0
2, 201520, Note_on_c, 0, 69, 80
2, 201557, Note_on_c, 0, 69, 0
2, 201560, Note_on_c, 0, 72, 80
2, 201597, Note_on_c, 0, 72, 0
2, 202400, Note_on_c, 0, 60, 80
2, 202437, Note_on_c, 0, 60, 0
2, 202440, Note_on_c, 0, 65, 80
2, 202477, Note_on_c, 0, 65, 0
2, 202480, Note_on_c, 0, 69, 80
2, 202517, Note_on_c, 0, 69, 0
2, 202520, Note_on_c, 0, 72, 80
2, 202557, Note_on_c, 0, 72, 0
2, 203360, Note_on_c, 0, 60, 80
2, 203397, Note_on_c, 0, 60, 0
2, 203400, Note_on_c, 0, 64, 80
2, 203437, Note_on_c, 0, 64, 0
2, 203440, Note_on_c, 0, 67, 80
2, 203477, Note_on_c, 0, 67, 0
2, 203480, Note_on_c, 0, 72, 80
2, 203517, Note_on_c, 0, 72, 0
2, 206400, Note_on_c, 0, 50, 80
2, 206855, Note_on_c, 0, 50, 0
2, 206880, Note_on_c, 0, 55, 80
2, 207107, Note_on_c, 0, 55, 0
2, 207200, Note_on_c, 0, 60, 80
2, 207237, Note_on_c, 0, 60, 0
2, 207240, Note_on_c, 0, 67, 80
2, 207277, Note_on_c, 0, 67, 0
2, 207280, Note_on_c, 0, 72, 80
2, 207317, Note_on_c, 0, 72, 0
2, 207320, Note_on_c, 0, 76, 80
2, 207357, Note_on_c, 0, 76, 0
2, 208160, Note_on_c, 0, 60, 80
2, 208197, Note_on_c, 0, 60, 0
2, 208200, Note_on_c, 0, 67, 80
2, 208237, Note_on_c, 0, 67, 0
2, 208240, Note_on_c, 0, 72, 80
2, 208277, Note_on_c, 0, 72, 0
2, 208280, Note_on_c, 0, 76, 80
2, 208317, Note_on_c, 0, 76, 0
2, 209160, Note_on_c, 0, 65, 80
2, 209197, Note_on_c, 0, 65, 0
2, 209200, Note_on_c, 0, 69, 80
2, 209237, Note_on_c, 0, 69, 0
2, 209240, Note_on_c, 0, 72, 80
2, 209277, Note_on_c, 0, 72, 0
2, 209820, Note_on_c, 0, 65, 80
2, 209876, Note_on_c, 0, 65, 0
2, 209880, Note_on_c, 0, 69, 80
2, 209936, Note_on_c, 0, 69, 0
2, 209940, Note_on_c, 0, 72, 80
2, 209996, Note_on_c, 0, 72, 0
2, 211040, Note_on_c, 0, 60, 80
2, 211077, Note_on_c, 0, 60, 0
2, 211080, Note_on_c, 0, 64, 80
2, 211117, Note_on_c, 0, 64, 0
2, 211120, Note_on_c, 0, 67, 80
2, 211157, Note_on_c, 0, 67, 0
2, 211160, Note_on_c, 0, 72, 80
2, 211197, Note_on_c, 0, 72, 0
2, 212000, Note_on_c, 0, 60, 80
2, 212037, Note_on_c, 0, 60, 0
2, 212040, Note_on_c, 0, 64, 80
2, 212077, Note_on_c, 0, 64, 0
2, 212080, Note_on_c, 0, 67, 80
2, 212117, Note_on_c, 0, 67, 0
2, 212120, Note_on_c, 0, 72, 80
2, 212157, Note_on_c, 0, 72, 0
2, 213000, Note_on_c, 0, 62, 80
2, 213037, Note_on_c, 0, 62, 0
2, 213040, Note_on_c, 0, 67, 80
2, 213077, Note_on_c, 0, 67, 0
2, 213080, Note_on_c, 0, 71, 80
2, 213117, Note_on_c, 0, 71, 0
2, 215040, Note_on_c, 0, 48, 80
2, 215040, Note_on_c, 0, 60, 80
2, 215495, Note_on_c, 0, 48, 0
2, 215495, Note_on_c, 0, 60, 0
2, 215496, End_track
3, 0, Start_track
3, 0, Title_t, "Electric Bass, Bass\000"
3, 0, Key_signature, 0, "major"
3, 0, Control_c, 1, 121, 0
3, 0, Program_c, 1, 33
3, 0, Control_c, 1, 7, 100
3, 0, Control_c, 1, 10, 64
3, 0, Control_c, 1, 91, 0
3, 0, Control_c, 1, 93, 0
3, 0, MIDI_port, 0
3, 0, Note_on_c, 1, 60, 80
3, 0, Control_c, 3, 121, 0
3, 0, Program_c, 3, 36
3, 0, Control_c, 3, 7, 100
3, 0, Control_c, 3, 10, 64
3, 0, Control_c, 3, 91, 0
3, 0, Control_c, 3, 93, 0
3, 0, MIDI_port, 0
3, 0, Control_c, 4, 121, 0
3, 0, Program_c, 4, 37
3, 0, Control_c, 4, 7, 100
3, 0, Control_c, 4, 10, 64
3, 0, Control_c, 4, 91, 0
3, 0, Control_c, 4, 93, 0
3, 0, MIDI_port, 0
3, 959, Note_on_c, 1, 60, 0
3, 960, Note_on_c, 1, 60, 80
3, 1919, Note_on_c, 1, 60, 0
3, 1920, Note_on_c, 1, 53, 80
3, 2879, Note_on_c, 1, 53, 0
3, 2880, Note_on_c, 1, 53, 80
3, 3839, Note_on_c, 1, 53, 0
3, 3840, Note_on_c, 1, 60, 80
3, 4799, Note_on_c, 1, 60, 0
3, 4800, Note_on_c, 1, 60, 80
3, 5759, Note_on_c, 1, 60, 0
3, 5760, Note_on_c, 1, 55, 80
3, 6719, Note_on_c, 1, 55, 0
3, 6720, Note_on_c, 1, 55, 80
3, 7679, Note_on_c, 1, 55, 0
3, 7680, Note_on_c, 1, 60, 80
3, 8639, Note_on_c, 1, 60, 0
3, 8640, Note_on_c, 1, 60, 80
3, 9599, Note_on_c, 1, 60, 0
3, 9600, Note_on_c, 1, 53, 80
3, 10559, Note_on_c, 1, 53, 0
3, 10560, Note_on_c, 1, 53, 80
3, 11519, Note_on_c, 1, 53, 0
3, 11520, Note_on_c, 1, 60, 80
3, 12479, Note_on_c, 1, 60, 0
3, 12480, Note_on_c, 1, 60, 80
3, 13439, Note_on_c, 1, 60, 0
3, 13440, Note_on_c, 1, 55, 80
3, 14399, Note_on_c, 1, 55, 0
3, 14400, Note_on_c, 1, 55, 80
3, 15359, Note_on_c, 1, 55, 0
3, 15360, Note_on_c, 1, 60, 80
3, 16319, Note_on_c, 1, 60, 0
3, 16320, Note_on_c, 1, 60, 80
3, 16799, Note_on_c, 1, 60, 0
3, 16800, Note_on_c, 1, 60, 80
3, 17279, Note_on_c, 1, 60, 0
3, 17280, Note_on_c, 1, 53, 80
3, 18239, Note_on_c, 1, 53, 0
3, 18240, Note_on_c, 1, 53, 80
3, 18719, Note_on_c, 1, 53, 0
3, 18720, Note_on_c, 1, 53, 80
3, 19199, Note_on_c, 1, 53, 0
3, 19200, Note_on_c, 1, 60, 80
3, 20159, Note_on_c, 1, 60, 0
3, 20160, Note_on_c, 1, 60, 80
3, 20639, Note_on_c, 1, 60, 0
3, 20640, Note_on_c, 1, 60, 80
3, 21119, Note_on_c, 1, 60, 0
3, 21120, Note_on_c, 1, 55, 80
3, 22079, Note_on_c, 1, 55, 0
3, 22080, Note_on_c, 1, 55, 80
3, 22559, Note_on_c, 1, 55, 0
3, 22560, Note_on_c, 1, 55, 80
3, 23039, Note_on_c, 1, 55, 0
3, 23040, Note_on_c, 1, 60, 80
3, 23999, Note_on_c, 1, 60, 0
3, 24000, Note_on_c, 1, 60, 80
3, 24479, Note_on_c, 1, 60, 0
3, 24480, Note_on_c, 1, 60, 80
3, 24959, Note_on_c, 1, 60, 0
3, 24960, Note_on_c, 1, 53, 80
3, 25919, Note_on_c, 1, 53, 0
3, 25920, Note_on_c, 1, 53, 80
3, 26399, Note_on_c, 1, 53, 0
3, 26400, Note_on_c, 1, 53, 80
3, 26879, Note_on_c, 1, 53, 0
3, 26880, Note_on_c, 1, 60, 80
3, 27839, Note_on_c, 1, 60, 0
3, 27840, Note_on_c, 1, 60, 80
3, 28319, Note_on_c, 1, 60, 0
3, 28320, Note_on_c, 1, 60, 80
3, 28799, Note_on_c, 1, 60, 0
3, 28800, Note_on_c, 1, 55, 80
3, 29759, Note_on_c, 1, 55, 0
3, 29760, Note_on_c, 1, 55, 80
3, 30239, Note_on_c, 1, 55, 0
3, 30240, Note_on_c, 1, 55, 80
3, 30719, Note_on_c, 1, 55, 0
3, 30720, Note_on_c, 1, 60, 80
3, 31199, Note_on_c, 1, 60, 0
3, 31200, Note_on_c, 1, 60, 80
3, 31679, Note_on_c, 1, 60, 0
3, 31680, Note_on_c, 1, 60, 80
3, 32159, Note_on_c, 1, 60, 0
3, 32160, Note_on_c, 1, 60, 80
3, 32639, Note_on_c, 1, 60, 0
3, 32640, Note_on_c, 1, 53, 80
3, 33119, Note_on_c, 1, 53, 0
3, 33120, Note_on_c, 1, 53, 80
3, 33599, Note_on_c, 1, 53, 0
3, 33600, Note_on_c, 1, 53, 80
3, 34079, Note_on_c, 1, 53, 0
3, 34080, Note_on_c, 1, 53, 80
3, 34559, Note_on_c, 1, 53, 0
3, 34560, Note_on_c, 1, 60, 80
3, 35039, Note_on_c, 1, 60, 0
3, 35040, Note_on_c, 1, 60, 80
3, 35519, Note_on_c, 1, 60, 0
3, 35520, Note_on_c, 1, 60, 80
3, 35999, Note_on_c, 1, 60, 0
3, 36000, Note_on_c, 1, 60, 80
3, 36479, Note_on_c, 1, 60, 0
3, 36480, Note_on_c, 1, 55, 80
3, 36959, Note_on_c, 1, 55, 0
3, 36960, Note_on_c, 1, 55, 80
3, 37439, Note_on_c, 1, 55, 0
3, 37440, Note_on_c, 1, 55, 80
3, 37919, Note_on_c, 1, 55, 0
3, 37920, Note_on_c, 1, 55, 80
3, 38399, Note_on_c, 1, 55, 0
3, 38400, Note_on_c, 1, 60, 80
3, 38879, Note_on_c, 1, 60, 0
3, 38880, Note_on_c, 1, 60, 80
3, 39359, Note_on_c, 1, 60, 0
3, 39360, Note_on_c, 1, 60, 80
3, 39839, Note_on_c, 1, 60, 0
3, 39840, Note_on_c, 1, 60, 80
3, 40319, Note_on_c, 1, 60, 0
3, 40320, Note_on_c, 1, 53, 80
3, 40799, Note_on_c, 1, 53, 0
3, 40800, Note_on_c, 1, 53, 80
3, 41279, Note_on_c, 1, 53, 0
3, 41280, Note_on_c, 1, 53, 80
3, 41759, Note_on_c, 1, 53, 0
3, 41760, Note_on_c, 1, 53, 80
3, 42239, Note_on_c, 1, 53, 0
3, 42240, Note_on_c, 1, 60, 80
3, 42719, Note_on_c, 1, 60, 0
3, 42720, Note_on_c, 1, 60, 80
3, 43199, Note_on_c, 1, 60, 0
3, 43200, Note_on_c, 1, 60, 80
3, 43679, Note_on_c, 1, 60, 0
3, 43680, Note_on_c, 1, 60, 80
3, 44159, Note_on_c, 1, 60, 0
3, 44160, Note_on_c, 1, 55, 80
3, 44639, Note_on_c, 1, 55, 0
3, 44640, Note_on_c, 1, 55, 80
3, 45119, Note_on_c, 1, 55, 0
3, 45120, Note_on_c, 1, 55, 80
3, 45599, Note_on_c, 1, 55, 0
3, 45600, Note_on_c, 1, 55, 80
3, 46079, Note_on_c, 1, 55, 0
3, 46080, Note_on_c, 1, 60, 80
3, 46559, Note_on_c, 1, 60, 0
3, 46560, Note_on_c, 1, 60, 80
3, 47039, Note_on_c, 1, 60, 0
3, 47040, Note_on_c, 1, 60, 80
3, 47519, Note_on_c, 1, 60, 0
3, 47520, Note_on_c, 1, 60, 80
3, 47999, Note_on_c, 1, 60, 0
3, 48000, Note_on_c, 1, 53, 80
3, 48479, Note_on_c, 1, 53, 0
3, 48480, Note_on_c, 1, 53, 80
3, 48959, Note_on_c, 1, 53, 0
3, 48960, Note_on_c, 1, 53, 80
3, 49439, Note_on_c, 1, 53, 0
3, 49440, Note_on_c, 1, 53, 80
3, 49919, Note_on_c, 1, 53, 0
3, 49920, Note_on_c, 1, 60, 80
3, 50399, Note_on_c, 1, 60, 0
3, 50400, Note_on_c, 1, 60, 80
3, 50879, Note_on_c, 1, 60, 0
3, 50880, Note_on_c, 1, 60, 80
3, 51359, Note_on_c, 1, 60, 0
3, 51360, Note_on_c, 1, 60, 80
3, 51839, Note_on_c, 1, 60, 0
3, 51840, Note_on_c, 1, 55, 80
3, 52319, Note_on_c, 1, 55, 0
3, 52320, Note_on_c, 1, 55, 80
3, 52799, Note_on_c, 1, 55, 0
3, 52800, Note_on_c, 1, 55, 80
3, 53279, Note_on_c, 1, 55, 0
3, 53280, Note_on_c, 1, 55, 80
3, 53759, Note_on_c, 1, 55, 0
3, 53760, Note_on_c, 1, 60, 80
3, 54239, Note_on_c, 1, 60, 0
3, 54240, Note_on_c, 1, 60, 80
3, 54719, Note_on_c, 1, 60, 0
3, 54720, Note_on_c, 1, 60, 80
3, 55199, Note_on_c, 1, 60, 0
3, 55200, Note_on_c, 1, 60, 80
3, 55679, Note_on_c, 1, 60, 0
3, 55680, Note_on_c, 1, 53, 80
3, 56159, Note_on_c, 1, 53, 0
3, 56160, Note_on_c, 1, 53, 80
3, 56639, Note_on_c, 1, 53, 0
3, 56640, Note_on_c, 1, 53, 80
3, 57119, Note_on_c, 1, 53, 0
3, 57120, Note_on_c, 1, 53, 80
3, 57599, Note_on_c, 1, 53, 0
3, 57600, Note_on_c, 1, 60, 80
3, 58079, Note_on_c, 1, 60, 0
3, 58080, Note_on_c, 1, 60, 80
3, 58559, Note_on_c, 1, 60, 0
3, 58560, Note_on_c, 1, 60, 80
3, 59039, Note_on_c, 1, 60, 0
3, 59040, Note_on_c, 1, 60, 80
3, 59519, Note_on_c, 1, 60, 0
3, 59520, Note_on_c, 1, 55, 80
3, 59999, Note_on_c, 1, 55, 0
3, 60000, Note_on_c, 1, 55, 80
3, 60479, Note_on_c, 1, 55, 0
3, 60480, Note_on_c, 1, 55, 80
3, 60959, Note_on_c, 1, 55, 0
3, 60960, Note_on_c, 1, 55, 80
3, 61439, Note_on_c, 1, 55, 0
3, 61440, Note_on_c, 1, 60, 80
3, 61919, Note_on_c, 1, 60, 0
3, 61920, Note_on_c, 1, 60, 80
3, 62399, Note_on_c, 1, 60, 0
3, 62400, Note_on_c, 1, 60, 80
3, 62879, Note_on_c, 1, 60, 0
3, 62880, Note_on_c, 1, 60, 80
3, 63359, Note_on_c, 1, 60, 0
3, 63360, Note_on_c, 1, 53, 80
3, 63839, Note_on_c, 1, 53, 0
3, 63840, Note_on_c, 1, 53, 80
3, 64319, Note_on_c, 1, 53, 0
3, 64320, Note_on_c, 1, 53, 80
3, 64799, Note_on_c, 1, 53, 0
3, 64800, Note_on_c, 1, 53, 80
3, 65279, Note_on_c, 1, 53, 0
3, 65280, Note_on_c, 1, 60, 80
3, 65759, Note_on_c, 1, 60, 0
3, 65760, Note_on_c, 1, 60, 80
3, 66239, Note_on_c, 1, 60, 0
3, 66240, Note_on_c, 1, 60, 80
3, 66719, Note_on_c, 1, 60, 0
3, 66720, Note_on_c, 1, 60, 80
3, 67199, Note_on_c, 1, 60, 0
3, 67200, Note_on_c, 1, 55, 80
3, 67679, Note_on_c, 1, 55, 0
3, 67680, Note_on_c, 1, 55, 80
3, 68159, Note_on_c, 1, 55, 0
3, 68160, Note_on_c, 1, 55, 80
3, 68639, Note_on_c, 1, 55, 0
3, 68640, Note_on_c, 1, 55, 80
3, 69119, Note_on_c, 1, 55, 0
3, 69120, Note_on_c, 1, 60, 80
3, 69599, Note_on_c, 1, 60, 0
3, 69600, Note_on_c, 1, 60, 80
3, 70079, Note_on_c, 1, 60, 0
3, 70080, Note_on_c, 1, 60, 80
3, 70559, Note_on_c, 1, 60, 0
3, 70560, Note_on_c, 1, 60, 80
3, 71039, Note_on_c, 1, 60, 0
3, 71040, Note_on_c, 1, 53, 80
3, 71519, Note_on_c, 1, 53, 0
3, 71520, Note_on_c, 1, 53, 80
3, 71999, Note_on_c, 1, 53, 0
3, 72000, Note_on_c, 1, 53, 80
3, 72479, Note_on_c, 1, 53, 0
3, 72480, Note_on_c, 1, 53, 80
3, 72959, Note_on_c, 1, 53, 0
3, 72960, Note_on_c, 1, 60, 80
3, 73439, Note_on_c, 1, 60, 0
3, 73440, Note_on_c, 1, 60, 80
3, 73919, Note_on_c, 1, 60, 0
3, 73920, Note_on_c, 1, 60, 80
3, 74399, Note_on_c, 1, 60, 0
3, 74400, Note_on_c, 1, 60, 80
3, 74879, Note_on_c, 1, 60, 0
3, 74880, Note_on_c, 1, 55, 80
3, 75359, Note_on_c, 1, 55, 0
3, 75360, Note_on_c, 1, 55, 80
3, 75839, Note_on_c, 1, 55, 0
3, 75840, Note_on_c, 1, 55, 80
3, 76319, Note_on_c, 1, 55, 0
3, 76320, Note_on_c, 1, 55, 80
3, 76799, Note_on_c, 1, 55, 0
3, 76800, Note_on_c, 1, 60, 80
3, 77519, Note_on_c, 1, 60, 0
3, 77520, Note_on_c, 1, 60, 80
3, 78239, Note_on_c, 1, 60, 0
3, 78240, Note_on_c, 1, 60, 80
3, 78959, Note_on_c, 1, 60, 0
3, 78960, Note_on_c, 1, 60, 80
3, 79679, Note_on_c, 1, 60, 0
3, 79680, Note_on_c, 1, 53, 80
3, 80399, Note_on_c, 1, 53, 0
3, 80400, Note_on_c, 1, 53, 80
3, 81119, Note_on_c, 1, 53, 0
3, 81120, Note_on_c, 1, 53, 80
3, 81839, Note_on_c, 1, 53, 0
3, 81840, Note_on_c, 1, 53, 80
3, 82559, Note_on_c, 1, 53, 0
3, 82560, Note_on_c, 1, 60, 80
3, 83279, Note_on_c, 1, 60, 0
3, 83280, Note_on_c, 1, 60, 80
3, 83999, Note_on_c, 1, 60, 0
3, 84000, Note_on_c, 1, 60, 80
3, 84719, Note_on_c, 1, 60, 0
3, 84720, Note_on_c, 1, 60, 80
3, 85439, Note_on_c, 1, 60, 0
3, 85440, Note_on_c, 1, 55, 80
3, 86159, Note_on_c, 1, 55, 0
3, 86160, Note_on_c, 1, 55, 80
3, 86879, Note_on_c, 1, 55, 0
3, 86880, Note_on_c, 1, 55, 80
3, 87599, Note_on_c, 1, 55, 0
3, 87600, Note_on_c, 1, 55, 80
3, 88319, Note_on_c, 1, 55, 0
3, 88320, Note_on_c, 1, 60, 80
3, 89039, Note_on_c, 1, 60, 0
3, 89040, Note_on_c, 1, 60, 80
3, 89759, Note_on_c, 1, 60, 0
3, 89760, Note_on_c, 1, 60, 80
3, 90479, Note_on_c, 1, 60, 0
3, 90480, Note_on_c, 1, 60, 80
3, 91199, Note_on_c, 1, 60, 0
3, 91200, Note_on_c, 1, 53, 80
3, 91919, Note_on_c, 1, 53, 0
3, 91920, Note_on_c, 1, 53, 80
3, 92639, Note_on_c, 1, 53, 0
3, 92640, Note_on_c, 1, 53, 80
3, 93359, Note_on_c, 1, 53, 0
3, 93360, Note_on_c, 1, 53, 80
3, 94079, Note_on_c, 1, 53, 0
3, 94080, Note_on_c, 1, 60, 80
3, 94799, Note_on_c, 1, 60, 0
3, 94800, Note_on_c, 1, 60, 80
3, 95519, Note_on_c, 1, 60, 0
3, 95520, Note_on_c, 1, 60, 80
3, 96239, Note_on_c, 1, 60, 0
3, 96240, Note_on_c, 1, 60, 80
3, 96959, Note_on_c, 1, 60, 0
3, 96960, Note_on_c, 1, 55, 80
3, 97679, Note_on_c, 1, 55, 0
3, 97680, Note_on_c, 1, 55, 80
3, 98399, Note_on_c, 1, 55, 0
3, 98400, Note_on_c, 1, 55, 80
3, 99119, Note_on_c, 1, 55, 0
3, 99120, Note_on_c, 1, 55, 80
3, 99839, Note_on_c, 1, 55, 0
3, 99840, Note_on_c, 1, 60, 80
3, 100319, Note_on_c, 1, 60, 0
3, 100320, Note_on_c, 1, 60, 80
3, 100799, Note_on_c, 1, 60, 0
3, 100800, Note_on_c, 1, 60, 80
3, 101279, Note_on_c, 1, 60, 0
3, 101280, Note_on_c, 1, 60, 80
3, 101759, Note_on_c, 1, 60, 0
3, 101760, Note_on_c, 1, 53, 80
3, 102239, Note_on_c, 1, 53, 0
3, 102240, Note_on_c, 1, 53, 80
3, 102719, Note_on_c, 1, 53, 0
3, 102720, Note_on_c, 1, 53, 80
3, 103199, Note_on_c, 1, 53, 0
3, 103200, Note_on_c, 1, 53, 80
3, 103679, Note_on_c, 1, 53, 0
3, 103680, Note_on_c, 1, 60, 80
3, 104159, Note_on_c, 1, 60, 0
3, 104160, Note_on_c, 1, 60, 80
3, 104639, Note_on_c, 1, 60, 0
3, 104640, Note_on_c, 1, 60, 80
3, 105119, Note_on_c, 1, 60, 0
3, 105120, Note_on_c, 1, 60, 80
3, 105599, Note_on_c, 1, 60, 0
3, 105600, Note_on_c, 1, 55, 80
3, 106079, Note_on_c, 1, 55, 0
3, 106080, Note_on_c, 1, 55, 80
3, 106559, Note_on_c, 1, 55, 0
3, 106560, Note_on_c, 1, 55, 80
3, 107039, Note_on_c, 1, 55, 0
3, 107040, Note_on_c, 1, 55, 80
3, 107519, Note_on_c, 1, 55, 0
3, 107520, Note_on_c, 1, 60, 80
3, 107999, Note_on_c, 1, 60, 0
3, 108000, Note_on_c, 1, 60, 80
3, 108479, Note_on_c, 1, 60, 0
3, 108480, Note_on_c, 1, 60, 80
3, 108959, Note_on_c, 1, 60, 0
3, 108960, Note_on_c, 1, 60, 80
3, 109439, Note_on_c, 1, 60, 0
3, 109440, Note_on_c, 1, 53, 80
3, 109919, Note_on_c, 1, 53, 0
3, 109920, Note_on_c, 1, 53, 80
3, 110399, Note_on_c, 1, 53, 0
3, 110400, Note_on_c, 1, 53, 80
3, 110879, Note_on_c, 1, 53, 0
3, 110880, Note_on_c, 1, 53, 80
3, 111359, Note_on_c, 1, 53, 0
3, 111360, Note_on_c, 1, 60, 80
3, 111839, Note_on_c, 1, 60, 0
3, 111840, Note_on_c, 1, 60, 80
3, 112319, Note_on_c, 1, 60, 0
3, 112320, Note_on_c, 1, 60, 80
3, 112799, Note_on_c, 1, 60, 0
3, 112800, Note_on_c, 1, 60, 80
3, 113279, Note_on_c, 1, 60, 0
3, 113280, Note_on_c, 1, 55, 80
3, 113759, Note_on_c, 1, 55, 0
3, 113760, Note_on_c, 1, 55, 80
3, 114239, Note_on_c, 1, 55, 0
3, 114240, Note_on_c, 1, 55, 80
3, 114719, Note_on_c, 1, 55, 0
3, 114720, Note_on_c, 1, 55, 80
3, 115199, Note_on_c, 1, 55, 0
3, 115200, Note_on_c, 1, 60, 80
3, 115679, Note_on_c, 1, 60, 0
3, 115680, Note_on_c, 1, 60, 80
3, 116159, Note_on_c, 1, 60, 0
3, 116160, Note_on_c, 1, 60, 80
3, 116639, Note_on_c, 1, 60, 0
3, 116640, Note_on_c, 1, 60, 80
3, 117119, Note_on_c, 1, 60, 0
3, 117120, Note_on_c, 1, 53, 80
3, 117599, Note_on_c, 1, 53, 0
3, 117600, Note_on_c, 1, 53, 80
3, 118079, Note_on_c, 1, 53, 0
3, 118080, Note_on_c, 1, 53, 80
3, 118559, Note_on_c, 1, 53, 0
3, 118560, Note_on_c, 1, 53, 80
3, 119039, Note_on_c, 1, 53, 0
3, 119040, Note_on_c, 1, 60, 80
3, 119519, Note_on_c, 1, 60, 0
3, 119520, Note_on_c, 1, 60, 80
3, 119999, Note_on_c, 1, 60, 0
3, 120000, Note_on_c, 1, 60, 80
3, 120479, Note_on_c, 1, 60, 0
3, 120480, Note_on_c, 1, 60, 80
3, 120959, Note_on_c, 1, 60, 0
3, 120960, Note_on_c, 1, 55, 80
3, 121439, Note_on_c, 1, 55, 0
3, 121440, Note_on_c, 1, 55, 80
3, 121919, Note_on_c, 1, 55, 0
3, 121920, Note_on_c, 1, 55, 80
3, 122399, Note_on_c, 1, 55, 0
3, 122400, Note_on_c, 1, 55, 80
3, 122879, Note_on_c, 1, 55, 0
3, 122880, Note_on_c, 1, 60, 80
3, 123359, Note_on_c, 1, 60, 0
3, 123360, Note_on_c, 1, 60, 80
3, 123839, Note_on_c, 1, 60, 0
3, 123840, Note_on_c, 1, 60, 80
3, 124319, Note_on_c, 1, 60, 0
3, 124320, Note_on_c, 1, 60, 80
3, 124799, Note_on_c, 1, 60, 0
3, 124800, Note_on_c, 1, 53, 80
3, 125279, Note_on_c, 1, 53, 0
3, 125280, Note_on_c, 1, 53, 80
3, 125759, Note_on_c, 1, 53, 0
3, 125760, Note_on_c, 1, 53, 80
3, 126239, Note_on_c, 1, 53, 0
3, 126240, Note_on_c, 1, 53, 80
3, 126719, Note_on_c, 1, 53, 0
3, 126720, Note_on_c, 1, 60, 80
3, 127199, Note_on_c, 1, 60, 0
3, 127200, Note_on_c, 1, 60, 80
3, 127679, Note_on_c, 1, 60, 0
3, 127680, Note_on_c, 1, 60, 80
3, 128159, Note_on_c, 1, 60, 0
3, 128160, Note_on_c, 1, 60, 80
3, 128639, Note_on_c, 1, 60, 0
3, 128640, Note_on_c, 1, 55, 80
3, 129119, Note_on_c, 1, 55, 0
3, 129120, Note_on_c, 1, 55, 80
3, 129599, Note_on_c, 1, 55, 0
3, 129600, Note_on_c, 1, 55, 80
3, 130079, Note_on_c, 1, 55, 0
3, 130080, Note_on_c, 1, 55, 80
3, 130559, Note_on_c, 1, 55, 0
3, 130560, Note_on_c, 1, 60, 80
3, 131279, Note_on_c, 1, 60, 0
3, 131280, Note_on_c, 1, 60, 80
3, 131999, Note_on_c, 1, 60, 0
3, 132000, Note_on_c, 1, 60, 80
3, 132719, Note_on_c, 1, 60, 0
3, 132720, Note_on_c, 1, 60, 80
3, 133439, Note_on_c, 1, 60, 0
3, 133440, Note_on_c, 1, 53, 80
3, 134159, Note_on_c, 1, 53, 0
3, 134160, Note_on_c, 1, 53, 80
3, 134879, Note_on_c, 1, 53, 0
3, 134880, Note_on_c, 1, 53, 80
3, 135599, Note_on_c, 1, 53, 0
3, 135600, Note_on_c, 1, 53, 80
3, 136319, Note_on_c, 1, 53, 0
3, 136320, Note_on_c, 1, 60, 80
3, 137039, Note_on_c, 1, 60, 0
3, 137040, Note_on_c, 1, 60, 80
3, 137759, Note_on_c, 1, 60, 0
3, 137760, Note_on_c, 1, 60, 80
3, 138479, Note_on_c, 1, 60, 0
3, 138480, Note_on_c, 1, 60, 80
3, 139199, Note_on_c, 1, 60, 0
3, 139200, Note_on_c, 1, 55, 80
3, 139919, Note_on_c, 1, 55, 0
3, 139920, Note_on_c, 1, 55, 80
3, 140639, Note_on_c, 1, 55, 0
3, 140640, Note_on_c, 1, 55, 80
3, 141359, Note_on_c, 1, 55, 0
3, 141360, Note_on_c, 1, 55, 80
3, 142079, Note_on_c, 1, 55, 0
3, 142080, Note_on_c, 1, 60, 80
3, 142799, Note_on_c, 1, 60, 0
3, 142800, Note_on_c, 1, 60, 80
3, 143519, Note_on_c, 1, 60, 0
3, 143520, Note_on_c, 1, 60, 80
3, 144239, Note_on_c, 1, 60, 0
3, 144240, Note_on_c, 1, 60, 80
3, 144959, Note_on_c, 1, 60, 0
3, 144960, Note_on_c, 1, 53, 80
3, 145679, Note_on_c, 1, 53, 0
3, 145680, Note_on_c, 1, 53, 80
3, 146399, Note_on_c, 1, 53, 0
3, 146400, Note_on_c, 1, 53, 80
3, 147119, Note_on_c, 1, 53, 0
3, 147120, Note_on_c, 1, 53, 80
3, 147839, Note_on_c, 1, 53, 0
3, 147840, Note_on_c, 1, 60, 80
3, 148559, Note_on_c, 1, 60, 0
3, 148560, Note_on_c, 1, 60, 80
3, 149279, Note_on_c, 1, 60, 0
3, 149280, Note_on_c, 1, 60, 80
3, 149999, Note_on_c, 1, 60, 0
3, 150000, Note_on_c, 1, 60, 80
3, 150719, Note_on_c, 1, 60, 0
3, 150720, Note_on_c, 1, 55, 80
3, 151439, Note_on_c, 1, 55, 0
3, 151440, Note_on_c, 1, 55, 80
3, 152159, Note_on_c, 1, 55, 0
3, 152160, Note_on_c, 1, 55, 80
3, 152879, Note_on_c, 1, 55, 0
3, 152880, Note_on_c, 1, 55, 80
3, 153599, Note_on_c, 1, 55, 0
3, 153600, Note_on_c, 1, 60, 80
3, 154559, Note_on_c, 1, 60, 0
3, 154560, Note_on_c, 1, 60, 80
3, 155519, Note_on_c, 1, 60, 0
3, 155520, Note_on_c, 1, 53, 80
3, 156479, Note_on_c, 1, 53, 0
3, 156480, Note_on_c, 1, 53, 80
3, 157439, Note_on_c, 1, 53, 0
3, 157440, Note_on_c, 1, 60, 80
3, 158399, Note_on_c, 1, 60, 0
3, 158400, Note_on_c, 1, 60, 80
3, 159359, Note_on_c, 1, 60, 0
3, 159360, Note_on_c, 1, 55, 80
3, 160319, Note_on_c, 1, 55, 0
3, 160320, Note_on_c, 1, 55, 80
3, 161279, Note_on_c, 1, 55, 0
3, 161280, Note_on_c, 1, 60, 80
3, 162239, Note_on_c, 1, 60, 0
3, 162240, Note_on_c, 1, 60, 80
3, 163199, Note_on_c, 1, 60, 0
3, 163200, Note_on_c, 1, 53, 80
3, 164159, Note_on_c, 1, 53, 0
3, 164160, Note_on_c, 1, 53, 80
3, 165119, Note_on_c, 1, 53, 0
3, 165120, Note_on_c, 1, 60, 80
3, 166079, Note_on_c, 1, 60, 0
3, 166080, Note_on_c, 1, 60, 80
3, 167039, Note_on_c, 1, 60, 0
3, 167040, Note_on_c, 1, 55, 80
3, 167999, Note_on_c, 1, 55, 0
3, 168000, Note_on_c, 1, 55, 80
3, 168479, Note_on_c, 1, 55, 0
3, 168480, Note_on_c, 1, 55, 80
3, 168959, Note_on_c, 1, 55, 0
3, 168960, Note_on_c, 1, 60, 80
3, 169919, Note_on_c, 1, 60, 0
3, 169920, Note_on_c, 1, 60, 80
3, 170879, Note_on_c, 1, 60, 0
3, 170880, Note_on_c, 1, 53, 80
3, 171839, Note_on_c, 1, 53, 0
3, 171840, Note_on_c, 1, 53, 80
3, 172799, Note_on_c, 1, 53, 0
3, 172800, Note_on_c, 1, 60, 80
3, 173759, Note_on_c, 1, 60, 0
3, 173760, Note_on_c, 1, 60, 80
3, 174719, Note_on_c, 1, 60, 0
3, 174720, Note_on_c, 1, 55, 80
3, 175679, Note_on_c, 1, 55, 0
3, 175680, Note_on_c, 1, 55, 80
3, 176639, Note_on_c, 1, 55, 0
3, 176640, Note_on_c, 1, 60, 80
3, 177599, Note_on_c, 1, 60, 0
3, 177600, Note_on_c, 1, 60, 80
3, 178559, Note_on_c, 1, 60, 0
3, 178560, Note_on_c, 1, 53, 80
3, 179519, Note_on_c, 1, 53, 0
3, 179520, Note_on_c, 1, 53, 80
3, 180479, Note_on_c, 1, 53, 0
3, 180480, Note_on_c, 1, 60, 80
3, 181439, Note_on_c, 1, 60, 0
3, 181440, Note_on_c, 1, 60, 80
3, 182399, Note_on_c, 1, 60, 0
3, 182400, Note_on_c, 1, 55, 80
3, 182879, Note_on_c, 1, 55, 0
3, 182880, Note_on_c, 1, 55, 80
3, 183359, Note_on_c, 1, 55, 0
3, 183360, Note_on_c, 1, 55, 80
3, 183839, Note_on_c, 1, 55, 0
3, 183840, Note_on_c, 1, 55, 80
3, 184319, Note_on_c, 1, 55, 0
3, 184320, Note_on_c, 1, 60, 80
3, 184799, Note_on_c, 1, 60, 0
3, 184800, Note_on_c, 1, 60, 80
3, 185279, Note_on_c, 1, 60, 0
3, 185280, Note_on_c, 1, 60, 80
3, 185759, Note_on_c, 1, 60, 0
3, 185760, Note_on_c, 1, 60, 80
3, 186239, Note_on_c, 1, 60, 0
3, 186240, Note_on_c, 1, 53, 80
3, 186719, Note_on_c, 1, 53, 0
3, 186720, Note_on_c, 1, 53, 80
3, 187199, Note_on_c, 1, 53, 0
3, 187200, Note_on_c, 1, 53, 80
3, 187679, Note_on_c, 1, 53, 0
3, 187680, Note_on_c, 1, 53, 80
3, 188159, Note_on_c, 1, 53, 0
3, 188160, Note_on_c, 1, 60, 80
3, 188639, Note_on_c, 1, 60, 0
3, 188640, Note_on_c, 1, 60, 80
3, 189119, Note_on_c, 1, 60, 0
3, 189120, Note_on_c, 1, 60, 80
3, 189599, Note_on_c, 1, 60, 0
3, 189600, Note_on_c, 1, 60, 80
3, 190079, Note_on_c, 1, 60, 0
3, 190080, Note_on_c, 1, 55, 80
3, 190559, Note_on_c, 1, 55, 0
3, 190560, Note_on_c, 1, 55, 80
3, 191039, Note_on_c, 1, 55, 0
3, 191040, Note_on_c, 1, 55, 80
3, 191519, Note_on_c, 1, 55, 0
3, 191520, Note_on_c, 1, 55, 80
3, 191999, Note_on_c, 1, 55, 0
3, 192000, Note_on_c, 1, 60, 80
3, 192479, Note_on_c, 1, 60, 0
3, 192480, Note_on_c, 1, 60, 80
3, 192959, Note_on_c, 1, 60, 0
3, 192960, Note_on_c, 1, 60, 80
3, 193439, Note_on_c, 1, 60, 0
3, 193440, Note_on_c, 1, 60, 80
3, 193919, Note_on_c, 1, 60, 0
3, 193920, Note_on_c, 1, 53, 80
3, 194399, Note_on_c, 1, 53, 0
3, 194400, Note_on_c, 1, 53, 80
3, 194879, Note_on_c, 1, 53, 0
3, 194880, Note_on_c, 1, 53, 80
3, 195359, Note_on_c, 1, 53, 0
3, 195360, Note_on_c, 1, 53, 80
3, 195839, Note_on_c, 1, 53, 0
3, 195840, Note_on_c, 1, 60, 80
3, 196319, Note_on_c, 1, 60, 0
3, 196320, Note_on_c, 1, 60, 80
3, 196799, Note_on_c, 1, 60, 0
3, 196800, Note_on_c, 1, 60, 80
3, 197279, Note_on_c, 1, 60, 0
3, 197280, Note_on_c, 1, 60, 80
3, 197759, Note_on_c, 1, 60, 0
3, 197760, Note_on_c, 1, 55, 80
3, 198239, Note_on_c, 1, 55, 0
3, 198240, Note_on_c, 1, 55, 80
3, 198719, Note_on_c, 1, 55, 0
3, 198720, Note_on_c, 1, 55, 80
3, 199199, Note_on_c, 1, 55, 0
3, 199200, Note_on_c, 1, 55, 80
3, 199679, Note_on_c, 1, 55, 0
3, 199680, Note_on_c, 1, 60, 80
3, 200159, Note_on_c, 1, 60, 0
3, 200160, Note_on_c, 1, 60, 80
3, 200639, Note_on_c, 1, 60, 0
3, 200640, Note_on_c, 1, 60, 80
3, 201119, Note_on_c, 1, 60, 0
3, 201120, Note_on_c, 1, 60, 80
3, 201599, Note_on_c, 1, 60, 0
3, 201600, Note_on_c, 1, 53, 80
3, 202079, Note_on_c, 1, 53, 0
3, 202080, Note_on_c, 1, 53, 80
3, 202559, Note_on_c, 1, 53, 0
3, 202560, Note_on_c, 1, 53, 80
3, 203039, Note_on_c, 1, 53, 0
3, 203040, Note_on_c, 1, 53, 80
3, 203519, Note_on_c, 1, 53, 0
3, 203520, Note_on_c, 1, 60, 80
3, 203999, Note_on_c, 1, 60, 0
3, 204000, Note_on_c, 1, 60, 80
3, 204479, Note_on_c, 1, 60, 0
3, 204480, Note_on_c, 1, 60, 80
3, 204959, Note_on_c, 1, 60, 0
3, 204960, Note_on_c, 1, 60, 80
3, 205439, Note_on_c, 1, 60, 0
3, 205440, Note_on_c, 1, 55, 80
3, 205919, Note_on_c, 1, 55, 0
3, 205920, Note_on_c, 1, 55, 80
3, 206399, Note_on_c, 1, 55, 0
3, 206400, Note_on_c, 1, 55, 80
3, 206879, Note_on_c, 1, 55, 0
3, 206880, Note_on_c, 1, 55, 80
3, 207359, Note_on_c, 1, 55, 0
3, 207360, Note_on_c, 1, 60, 80
3, 207839, Note_on_c, 1, 60, 0
3, 207840, Note_on_c, 1, 60, 80
3, 208319, Note_on_c, 1, 60, 0
3, 208320, Note_on_c, 1, 60, 80
3, 208799, Note_on_c, 1, 60, 0
3, 208800, Note_on_c, 1, 60, 80
3, 209279, Note_on_c, 1, 60, 0
3, 209280, Note_on_c, 1, 53, 80
3, 209759, Note_on_c, 1, 53, 0
3, 209760, Note_on_c, 1, 53, 80
3, 210239, Note_on_c, 1, 53, 0
3, 210240, Note_on_c, 1, 53, 80
3, 210719, Note_on_c, 1, 53, 0
3, 210720, Note_on_c, 1, 53, 80
3, 211199, Note_on_c, 1, 53, 0
3, 211200, Note_on_c, 1, 60, 80
3, 211679, Note_on_c, 1, 60, 0
3, 211680, Note_on_c, 1, 60, 80
3, 212159, Note_on_c, 1, 60, 0
3, 212160, Note_on_c, 1, 60, 80
3, 212639, Note_on_c, 1, 60, 0
3, 212640, Note_on_c, 1, 60, 80
3, 213119, Note_on_c, 1, 60, 0
3, 213120, Note_on_c, 1, 55, 80
3, 213599, Note_on_c, 1, 55, 0
3, 213600, Note_on_c, 1, 55, 80
3, 214079, Note_on_c, 1, 55, 0
3, 214080, Note_on_c, 1, 55, 80
3, 214559, Note_on_c, 1, 55, 0
3, 214560, Note_on_c, 1, 55, 80
3, 215039, Note_on_c, 1, 55, 0
3, 215040, Note_on_c, 1, 60, 80
3, 216959, Note_on_c, 1, 60, 0
3, 216960, End_track
4, 0, Start_track
4, 0, Title_t, "Bell\000"
4, 0, Key_signature, 0, "major"
4, 0, Control_c, 6, 121, 0
4, 0, Program_c, 6, 14
4, 0, Control_c, 6, 7, 100
4, 0, Control_c, 6, 10, 64
4, 0, Control_c, 6, 91, 0
4, 0, Control_c, 6, 93, 0
4, 0, MIDI_port, 0
4, 1, End_track
5, 0, Start_track
5, 0, Title_t, "Classical Guitar, Lute\000"
5, 0, Key_signature, 0, "major"
5, 0, Control_c, 2, 121, 0
5, 0, Program_c, 2, 24
5, 0, Control_c, 2, 7, 100
5, 0, Control_c, 2, 10, 64
5, 0, Control_c, 2, 91, 0
5, 0, Control_c, 2, 93, 0
5, 0, MIDI_port, 0
5, 0, Control_c, 5, 121, 0
5, 0, Program_c, 5, 28
5, 0, Control_c, 5, 7, 100
5, 0, Control_c, 5, 10, 64
5, 0, Control_c, 5, 91, 0
5, 0, Control_c, 5, 93, 0
5, 0, MIDI_port, 0
5, 7680, Note_on_c, 2, 48, 80
5, 9599, Note_on_c, 2, 48, 0
5, 9600, Note_on_c, 2, 53, 80
5, 11519, Note_on_c, 2, 53, 0
5, 11520, Note_on_c, 2, 48, 80
5, 13439, Note_on_c, 2, 48, 0
5, 13440, Note_on_c, 2, 55, 80
5, 15359, Note_on_c, 2, 55, 0
5, 15360, Note_on_c, 2, 48, 80
5, 16319, Note_on_c, 2, 48, 0
5, 16320, Note_on_c, 2, 48, 80
5, 17279, Note_on_c, 2, 48, 0
5, 17280, Note_on_c, 2, 53, 80
5, 18239, Note_on_c, 2, 53, 0
5, 18240, Note_on_c, 2, 53, 80
5, 19199, Note_on_c, 2, 53, 0
5, 19200, Note_on_c, 2, 48, 80
5, 20159, Note_on_c, 2, 48, 0
5, 20160, Note_on_c, 2, 48, 80
5, 21119, Note_on_c, 2, 48, 0
5, 21120, Note_on_c, 2, 55, 80
5, 22079, Note_on_c, 2, 55, 0
5, 22080, Note_on_c, 2, 55, 80
5, 23039, Note_on_c, 2, 55, 0
5, 23040, Note_on_c, 2, 48, 80
5, 23040, Note_on_c, 2, 52, 80
5, 23999, Note_on_c, 2, 48, 0
5, 23999, Note_on_c, 2, 52, 0
5, 24000, Note_on_c, 2, 48, 80
5, 24000, Note_on_c, 2, 52, 80
5, 24959, Note_on_c, 2, 48, 0
5, 24959, Note_on_c, 2, 52, 0
5, 24960, Note_on_c, 2, 48, 80
5, 24960, Note_on_c, 2, 53, 80
5, 25919, Note_on_c, 2, 48, 0
5, 25919, Note_on_c, 2, 53, 0
5, 25920, Note_on_c, 2, 48, 80
5, 25920, Note_on_c, 2, 53, 80
5, 26879, Note_on_c, 2, 48, 0
5, 26879, Note_on_c, 2, 53, 0
5, 26880, Note_on_c, 2, 48, 80
5, 26880, Note_on_c, 2, 52, 80
5, 27839, Note_on_c, 2, 48, 0
5, 27839, Note_on_c, 2, 52, 0
5, 27840, Note_on_c, 2, 48, 80
5, 27840, Note_on_c, 2, 52, 80
5, 28799, Note_on_c, 2, 48, 0
5, 28799, Note_on_c, 2, 52, 0
5, 28800, Note_on_c, 2, 50, 80
5, 28800, Note_on_c, 2, 55, 80
5, 29759, Note_on_c, 2, 50, 0
5, 29759, Note_on_c, 2, 55, 0
5, 29760, Note_on_c, 2, 50, 80
5, 29760, Note_on_c, 2, 55, 80
5, 30719, Note_on_c, 2, 50, 0
5, 30719, Note_on_c, 2, 55, 0
5, 30720, Note_on_c, 2, 48, 80
5, 31199, Note_on_c, 2, 48, 0
5, 31200, Note_on_c, 2, 60, 80
5, 31200, Note_on_c, 2, 64, 80
5, 32639, Note_on_c, 2, 60, 0
5, 32639, Note_on_c, 2, 64, 0
5, 32640, Note_on_c, 2, 53, 80
5, 33119, Note_on_c, 2, 53, 0
5, 33120, Note_on_c, 2, 60, 80
5, 33120, Note_on_c, 2, 65, 80
5, 34559, Note_on_c, 2, 60, 0
5, 34559, Note_on_c, 2, 65, 0
5, 34560, Note_on_c, 2, 48, 80
5, 35039, Note_on_c, 2, 48, 0
5, 35040, Note_on_c, 2, 60, 80
5, 35040, Note_on_c, 2, 64, 80
5, 35040, Note_on_c, 2, 67, 80
5, 36479, Note_on_c, 2, 60, 0
5, 36479, Note_on_c, 2, 64, 0
5, 36479, Note_on_c, 2, 67, 0
5, 36480, Note_on_c, 2, 55, 80
5, 36959, Note_on_c, 2, 55, 0
5, 36960, Note_on_c, 2, 62, 80
5, 36960, Note_on_c, 2, 67, 80
5, 36960, Note_on_c, 2, 71, 80
5, 37439, Note_on_c, 2, 62, 0
5, 37439, Note_on_c, 2, 67, 0
5, 37439, Note_on_c, 2, 71, 0
5, 37440, Note_on_c, 2, 62, 80
5, 37440, Note_on_c, 2, 67, 80
5, 37440, Note_on_c, 2, 71, 80
5, 37919, Note_on_c, 2, 62, 0
5, 37919, Note_on_c, 2, 67, 0
5, 37919, Note_on_c, 2, 71, 0
5, 37920, Note_on_c, 2, 62, 80
5, 37920, Note_on_c, 2, 67, 80
5, 37920, Note_on_c, 2, 71, 80
5, 38399, Note_on_c, 2, 62, 0
5, 38399, Note_on_c, 2, 67, 0
5, 38399, Note_on_c, 2, 71, 0
5, 38400, Note_on_c, 2, 48, 80
5, 38879, Note_on_c, 2, 48, 0
5, 38880, Note_on_c, 2, 60, 80
5, 38880, Note_on_c, 2, 64, 80
5, 38880, Note_on_c, 2, 67, 80
5, 39359, Note_on_c, 2, 60, 0
5, 39359, Note_on_c, 2, 64, 0
5, 39359, Note_on_c, 2, 67, 0
5, 39360, Note_on_c, 2, 48, 80
5, 39839, Note_on_c, 2, 48, 0
5, 39840, Note_on_c, 2, 60, 80
5, 39840, Note_on_c, 2, 64, 80
5, 39840, Note_on_c, 2, 67, 80
5, 40319, Note_on_c, 2, 60, 0
5, 40319, Note_on_c, 2, 64, 0
5, 40319, Note_on_c, 2, 67, 0
5, 40320, Note_on_c, 2, 53, 80
5, 40799, Note_on_c, 2, 53, 0
5, 40800, Note_on_c, 2, 60, 80
5, 40800, Note_on_c, 2, 65, 80
5, 40800, Note_on_c, 2, 69, 80
5, 41279, Note_on_c, 2, 60, 0
5, 41279, Note_on_c, 2, 65, 0
5, 41279, Note_on_c, 2, 69, 0
5, 41280, Note_on_c, 2, 53, 80
5, 41759, Note_on_c, 2, 53, 0
5, 41760, Note_on_c, 2, 60, 80
5, 41760, Note_on_c, 2, 65, 80
5, 41760, Note_on_c, 2, 69, 80
5, 42239, Note_on_c, 2, 60, 0
5, 42239, Note_on_c, 2, 65, 0
5, 42239, Note_on_c, 2, 69, 0
5, 42240, Note_on_c, 2, 48, 80
5, 42719, Note_on_c, 2, 48, 0
5, 42720, Note_on_c, 2, 60, 80
5, 42720, Note_on_c, 2, 64, 80
5, 42720, Note_on_c, 2, 67, 80
5, 43199, Note_on_c, 2, 60, 0
5, 43199, Note_on_c, 2, 64, 0
5, 43199, Note_on_c, 2, 67, 0
5, 43200, Note_on_c, 2, 48, 80
5, 43679, Note_on_c, 2, 48, 0
5, 43680, Note_on_c, 2, 60, 80
5, 43680, Note_on_c, 2, 64, 80
5, 43680, Note_on_c, 2, 67, 80
5, 44159, Note_on_c, 2, 60, 0
5, 44159, Note_on_c, 2, 64, 0
5, 44159, Note_on_c, 2, 67, 0
5, 44160, Note_on_c, 2, 55, 80
5, 44639, Note_on_c, 2, 55, 0
5, 44640, Note_on_c, 2, 62, 80
5, 44640, Note_on_c, 2, 67, 80
5, 44640, Note_on_c, 2, 71, 80
5, 45119, Note_on_c, 2, 62, 0
5, 45119, Note_on_c, 2, 67, 0
5, 45119, Note_on_c, 2, 71, 0
5, 45120, Note_on_c, 2, 55, 80
5, 45599, Note_on_c, 2, 55, 0
5, 45600, Note_on_c, 2, 62, 80
5, 45600, Note_on_c, 2, 67, 80
5, 45600, Note_on_c, 2, 71, 80
5, 46079, Note_on_c, 2, 62, 0
5, 46079, Note_on_c, 2, 67, 0
5, 46079, Note_on_c, 2, 71, 0
5, 46080, Note_on_c, 2, 48, 80
5, 46559, Note_on_c, 2, 48, 0
5, 46560, Note_on_c, 2, 60, 80
5, 46560, Note_on_c, 2, 64, 80
5, 46560, Note_on_c, 2, 67, 80
5, 47039, Note_on_c, 2, 60, 0
5, 47039, Note_on_c, 2, 64, 0
5, 47039, Note_on_c, 2, 67, 0
5, 47040, Note_on_c, 2, 48, 80
5, 47519, Note_on_c, 2, 48, 0
5, 47520, Note_on_c, 2, 60, 80
5, 47520, Note_on_c, 2, 64, 80
5, 47520, Note_on_c, 2, 67, 80
5, 47999, Note_on_c, 2, 60, 0
5, 47999, Note_on_c, 2, 64, 0
5, 47999, Note_on_c, 2, 67, 0
5, 48000, Note_on_c, 2, 53, 80
5, 48479, Note_on_c, 2, 53, 0
5, 48480, Note_on_c, 2, 60, 80
5, 48480, Note_on_c, 2, 65, 80
5, 48480, Note_on_c, 2, 69, 80
5, 48959, Note_on_c, 2, 60, 0
5, 48959, Note_on_c, 2, 65, 0
5, 48959, Note_on_c, 2, 69, 0
5, 48960, Note_on_c, 2, 53, 80
5, 49439, Note_on_c, 2, 53, 0
5, 49440, Note_on_c, 2, 60, 80
5, 49440, Note_on_c, 2, 65, 80
5, 49440, Note_on_c, 2, 69, 80
5, 49919, Note_on_c, 2, 60, 0
5, 49919, Note_on_c, 2, 65, 0
5, 49919, Note_on_c, 2, 69, 0
5, 49920, Note_on_c, 2, 48, 80
5, 50399, Note_on_c, 2, 48, 0
5, 50400, Note_on_c, 2, 60, 80
5, 50400, Note_on_c, 2, 64, 80
5, 50400, Note_on_c, 2, 67, 80
5, 50879, Note_on_c, 2, 60, 0
5, 50879, Note_on_c, 2, 64, 0
5, 50879, Note_on_c, 2, 67, 0
5, 50880, Note_on_c, 2, 48, 80
5, 51359, Note_on_c, 2, 48, 0
5, 51360, Note_on_c, 2, 60, 80
5, 51360, Note_on_c, 2, 64, 80
5, 51360, Note_on_c, 2, 67, 80
5, 51839, Note_on_c, 2, 60, 0
5, 51839, Note_on_c, 2, 64, 0
5, 51839, Note_on_c, 2, 67, 0
5, 51840, Note_on_c, 2, 55, 80
5, 52319, Note_on_c, 2, 55, 0
5, 52320, Note_on_c, 2, 62, 80
5, 52320, Note_on_c, 2, 67, 80
5, 52320, Note_on_c, 2, 71, 80
5, 52799, Note_on_c, 2, 62, 0
5, 52799, Note_on_c, 2, 67, 0
5, 52799, Note_on_c, 2, 71, 0
5, 52800, Note_on_c, 2, 55, 80
5, 53279, Note_on_c, 2, 55, 0
5, 53280, Note_on_c, 2, 62, 80
5, 53280, Note_on_c, 2, 67, 80
5, 53280, Note_on_c, 2, 71, 80
5, 53759, Note_on_c, 2, 62, 0
5, 53759, Note_on_c, 2, 67, 0
5, 53759, Note_on_c, 2, 71, 0
5, 53760, Note_on_c, 2, 48, 80
5, 54239, Note_on_c, 2, 48, 0
5, 54240, Note_on_c, 2, 60, 80
5, 54240, Note_on_c, 2, 64, 80
5, 54240, Note_on_c, 2, 67, 80
5, 54719, Note_on_c, 2, 60, 0
5, 54719, Note_on_c, 2, 64, 0
5, 54719, Note_on_c, 2, 67, 0
5, 54720, Note_on_c, 2, 48, 80
5, 55199, Note_on_c, 2, 48, 0
5, 55200, Note_on_c, 2, 60, 80
5, 55200, Note_on_c, 2, 64, 80
5, 55200, Note_on_c, 2, 67, 80
5, 55679, Note_on_c, 2, 60, 0
5, 55679, Note_on_c, 2, 64, 0
5, 55679, Note_on_c, 2, 67, 0
5, 55680, Note_on_c, 2, 53, 80
5, 56159, Note_on_c, 2, 53, 0
5, 56160, Note_on_c, 2, 60, 80
5, 56160, Note_on_c, 2, 65, 80
5, 56160, Note_on_c, 2, 69, 80
5, 56639, Note_on_c, 2, 60, 0
5, 56639, Note_on_c, 2, 65, 0
5, 56639, Note_on_c, 2, 69, 0
5, 56640, Note_on_c, 2, 53, 80
5, 57119, Note_on_c, 2, 53, 0
5, 57120, Note_on_c, 2, 60, 80
5, 57120, Note_on_c, 2, 65, 80
5, 57120, Note_on_c, 2, 69, 80
5, 57599, Note_on_c, 2, 60, 0
5, 57599, Note_on_c, 2, 65, 0
5, 57599, Note_on_c, 2, 69, 0
5, 57600, Note_on_c, 2, 48, 80
5, 58079, Note_on_c, 2, 48, 0
5, 58080, Note_on_c, 2, 60, 80
5, 58080, Note_on_c, 2, 64, 80
5, 58080, Note_on_c, 2, 67, 80
5, 58559, Note_on_c, 2, 60, 0
5, 58559, Note_on_c, 2, 64, 0
5, 58559, Note_on_c, 2, 67, 0
5, 58560, Note_on_c, 2, 48, 80
5, 59039, Note_on_c, 2, 48, 0
5, 59040, Note_on_c, 2, 60, 80
5, 59040, Note_on_c, 2, 64, 80
5, 59040, Note_on_c, 2, 67, 80
5, 59519, Note_on_c, 2, 60, 0
5, 59519, Note_on_c, 2, 64, 0
5, 59519, Note_on_c, 2, 67, 0
5, 59520, Note_on_c, 2, 55, 80
5, 59999, Note_on_c, 2, 55, 0
5, 60000, Note_on_c, 2, 62, 80
5, 60000, Note_on_c, 2, 67, 80
5, 60000, Note_on_c, 2, 71, 80
5, 60479, Note_on_c, 2, 62, 0
5, 60479, Note_on_c, 2, 67, 0
5, 60479, Note_on_c, 2, 71, 0
5, 60480, Note_on_c, 2, 62, 80
5, 60480, Note_on_c, 2, 67, 80
5, 60480, Note_on_c, 2, 71, 80
5, 60959, Note_on_c, 2, 62, 0
5, 60959, Note_on_c, 2, 67, 0
5, 60959, Note_on_c, 2, 71, 0
5, 60960, Note_on_c, 2, 62, 80
5, 60960, Note_on_c, 2, 67, 80
5, 60960, Note_on_c, 2, 71, 80
5, 61199, Note_on_c, 2, 62, 0
5, 61199, Note_on_c, 2, 67, 0
5, 61199, Note_on_c, 2, 71, 0
5, 61200, Note_on_c, 2, 62, 80
5, 61200, Note_on_c, 2, 67, 80
5, 61200, Note_on_c, 2, 71, 80
5, 61439, Note_on_c, 2, 62, 0
5, 61439, Note_on_c, 2, 67, 0
5, 61439, Note_on_c, 2, 71, 0
5, 61440, Note_on_c, 2, 48, 80
5, 61919, Note_on_c, 2, 48, 0
5, 61920, Note_on_c, 2, 60, 80
5, 61920, Note_on_c, 2, 64, 80
5, 61920, Note_on_c, 2, 67, 80
5, 62399, Note_on_c, 2, 60, 0
5, 62399, Note_on_c, 2, 64, 0
5, 62399, Note_on_c, 2, 67, 0
5, 62400, Note_on_c, 2, 48, 80
5, 62879, Note_on_c, 2, 48, 0
5, 62880, Note_on_c, 2, 60, 80
5, 62880, Note_on_c, 2, 64, 80
5, 62880, Note_on_c, 2, 67, 80
5, 63359, Note_on_c, 2, 60, 0
5, 63359, Note_on_c, 2, 64, 0
5, 63359, Note_on_c, 2, 67, 0
5, 63360, Note_on_c, 2, 53, 80
5, 63839, Note_on_c, 2, 53, 0
5, 63840, Note_on_c, 2, 60, 80
5, 63840, Note_on_c, 2, 65, 80
5, 63840, Note_on_c, 2, 69, 80
5, 64319, Note_on_c, 2, 60, 0
5, 64319, Note_on_c, 2, 65, 0
5, 64319, Note_on_c, 2, 69, 0
5, 64320, Note_on_c, 2, 53, 80
5, 64799, Note_on_c, 2, 53, 0
5, 64800, Note_on_c, 2, 60, 80
5, 64800, Note_on_c, 2, 65, 80
5, 64800, Note_on_c, 2, 69, 80
5, 65279, Note_on_c, 2, 60, 0
5, 65279, Note_on_c, 2, 65, 0
5, 65279, Note_on_c, 2, 69, 0
5, 65280, Note_on_c, 2, 48, 80
5, 65759, Note_on_c, 2, 48, 0
5, 65760, Note_on_c, 2, 60, 80
5, 65760, Note_on_c, 2, 64, 80
5, 65760, Note_on_c, 2, 67, 80
5, 66239, Note_on_c, 2, 60, 0
5, 66239, Note_on_c, 2, 64, 0
5, 66239, Note_on_c, 2, 67, 0
5, 66240, Note_on_c, 2, 48, 80
5, 66719, Note_on_c, 2, 48, 0
5, 66720, Note_on_c, 2, 60, 80
5, 66720, Note_on_c, 2, 64, 80
5, 66720, Note_on_c, 2, 67, 80
5, 67199, Note_on_c, 2, 60, 0
5, 67199, Note_on_c, 2, 64, 0
5, 67199, Note_on_c, 2, 67, 0
5, 67200, Note_on_c, 2, 55, 80
5, 67679, Note_on_c, 2, 55, 0
5, 67680, Note_on_c, 2, 62, 80
5, 67680, Note_on_c, 2, 67, 80
5, 67680, Note_on_c, 2, 71, 80
5, 68159, Note_on_c, 2, 62, 0
5, 68159, Note_on_c, 2, 67, 0
5, 68159, Note_on_c, 2, 71, 0
5, 68160, Note_on_c, 2, 55, 80
5, 68639, Note_on_c, 2, 55, 0
5, 68640, Note_on_c, 2, 62, 80
5, 68640, Note_on_c, 2, 67, 80
5, 68640, Note_on_c, 2, 71, 80
5, 68879, Note_on_c, 2, 62, 0
5, 68879, Note_on_c, 2, 67, 0
5, 68879, Note_on_c, 2, 71, 0
5, 68880, Note_on_c, 2, 62, 80
5, 68880, Note_on_c, 2, 67, 80
5, 68880, Note_on_c, 2, 71, 80
5, 69119, Note_on_c, 2, 62, 0
5, 69119, Note_on_c, 2, 67, 0
5, 69119, Note_on_c, 2, 71, 0
5, 69120, Note_on_c, 2, 48, 80
5, 69599, Note_on_c, 2, 48, 0
5, 69600, Note_on_c, 2, 60, 80
5, 69600, Note_on_c, 2, 64, 80
5, 69600, Note_on_c, 2, 67, 80
5, 70079, Note_on_c, 2, 60, 0
5, 70079, Note_on_c, 2, 64, 0
5, 70079, Note_on_c, 2, 67, 0
5, 70080, Note_on_c, 2, 48, 80
5, 70559, Note_on_c, 2, 48, 0
5, 70560, Note_on_c, 2, 60, 80
5, 70560, Note_on_c, 2, 64, 80
5, 70560, Note_on_c, 2, 67, 80
5, 71039, Note_on_c, 2, 60, 0
5, 71039, Note_on_c, 2, 64, 0
5, 71039, Note_on_c, 2, 67, 0
5, 71040, Note_on_c, 2, 53, 80
5, 71519, Note_on_c, 2, 53, 0
5, 71520, Note_on_c, 2, 60, 80
5, 71520, Note_on_c, 2, 65, 80
5, 71520, Note_on_c, 2, 69, 80
5, 71999, Note_on_c, 2, 60, 0
5, 71999, Note_on_c, 2, 65, 0
5, 71999, Note_on_c, 2, 69, 0
5, 72000, Note_on_c, 2, 53, 80
5, 72479, Note_on_c, 2, 53, 0
5, 72480, Note_on_c, 2, 60, 80
5, 72480, Note_on_c, 2, 65, 80
5, 72480, Note_on_c, 2, 69, 80
5, 72959, Note_on_c, 2, 60, 0
5, 72959, Note_on_c, 2, 65, 0
5, 72959, Note_on_c, 2, 69, 0
5, 72960, Note_on_c, 2, 48, 80
5, 73439, Note_on_c, 2, 48, 0
5, 73440, Note_on_c, 2, 60, 80
5, 73440, Note_on_c, 2, 64, 80
5, 73440, Note_on_c, 2, 67, 80
5, 73919, Note_on_c, 2, 60, 0
5, 73919, Note_on_c, 2, 64, 0
5, 73919, Note_on_c, 2, 67, 0
5, 73920, Note_on_c, 2, 48, 80
5, 74399, Note_on_c, 2, 48, 0
5, 74400, Note_on_c, 2, 60, 80
5, 74400, Note_on_c, 2, 64, 80
5, 74400, Note_on_c, 2, 67, 80
5, 74879, Note_on_c, 2, 60, 0
5, 74879, Note_on_c, 2, 64, 0
5, 74879, Note_on_c, 2, 67, 0
5, 74880, Note_on_c, 2, 55, 80
5, 75359, Note_on_c, 2, 55, 0
5, 75360, Note_on_c, 2, 62, 80
5, 75360, Note_on_c, 2, 67, 80
5, 75360, Note_on_c, 2, 71, 80
5, 75839, Note_on_c, 2, 62, 0
5, 75839, Note_on_c, 2, 67, 0
5, 75839, Note_on_c, 2, 71, 0
5, 75840, Note_on_c, 2, 55, 80
5, 76319, Note_on_c, 2, 55, 0
5, 76320, Note_on_c, 2, 62, 80
5, 76320, Note_on_c, 2, 67, 80
5, 76320, Note_on_c, 2, 71, 80
5, 76559, Note_on_c, 2, 62, 0
5, 76559, Note_on_c, 2, 67, 0
5, 76559, Note_on_c, 2, 71, 0
5, 76560, Note_on_c, 2, 62, 80
5, 76560, Note_on_c, 2, 67, 80
5, 76560, Note_on_c, 2, 71, 80
5, 76799, Note_on_c, 2, 62, 0
5, 76799, Note_on_c, 2, 67, 0
5, 76799, Note_on_c, 2, 71, 0
5, 76800, Note_on_c, 2, 48, 80
5, 77519, Note_on_c, 2, 48, 0
5, 77520, Note_on_c, 2, 60, 80
5, 77520, Note_on_c, 2, 64, 80
5, 77520, Note_on_c, 2, 67, 80
5, 78239, Note_on_c, 2, 60, 0
5, 78239, Note_on_c, 2, 64, 0
5, 78239, Note_on_c, 2, 67, 0
5, 78240, Note_on_c, 2, 48, 80
5, 78959, Note_on_c, 2, 48, 0
5, 78960, Note_on_c, 2, 60, 80
5, 78960, Note_on_c, 2, 64, 80
5, 78960, Note_on_c, 2, 67, 80
5, 79679, Note_on_c, 2, 60, 0
5, 79679, Note_on_c, 2, 64, 0
5, 79679, Note_on_c, 2, 67, 0
5, 79680, Note_on_c, 2, 53, 80
5, 80399, Note_on_c, 2, 53, 0
5, 80400, Note_on_c, 2, 60, 80
5, 80400, Note_on_c, 2, 65, 80
5, 80400, Note_on_c, 2, 69, 80
5, 81119, Note_on_c, 2, 60, 0
5, 81119, Note_on_c, 2, 65, 0
5, 81119, Note_on_c, 2, 69, 0
5, 81120, Note_on_c, 2, 53, 80
5, 81839, Note_on_c, 2, 53, 0
5, 81840, Note_on_c, 2, 60, 80
5, 81840, Note_on_c, 2, 65, 80
5, 81840, Note_on_c, 2, 69, 80
5, 82559, Note_on_c, 2, 60, 0
5, 82559, Note_on_c, 2, 65, 0
5, 82559, Note_on_c, 2, 69, 0
5, 82560, Note_on_c, 2, 48, 80
5, 83279, Note_on_c, 2, 48, 0
5, 83280, Note_on_c, 2, 60, 80
5, 83280, Note_on_c, 2, 64, 80
5, 83280, Note_on_c, 2, 67, 80
5, 83999, Note_on_c, 2, 60, 0
5, 83999, Note_on_c, 2, 64, 0
5, 83999, Note_on_c, 2, 67, 0
5, 84000, Note_on_c, 2, 48, 80
5, 84719, Note_on_c, 2, 48, 0
5, 84720, Note_on_c, 2, 60, 80
5, 84720, Note_on_c, 2, 64, 80
5, 84720, Note_on_c, 2, 67, 80
5, 85439, Note_on_c, 2, 60, 0
5, 85439, Note_on_c, 2, 64, 0
5, 85439, Note_on_c, 2, 67, 0
5, 85440, Note_on_c, 2, 55, 80
5, 86159, Note_on_c, 2, 55, 0
5, 86160, Note_on_c, 2, 62, 80
5, 86160, Note_on_c, 2, 67, 80
5, 86160, Note_on_c, 2, 71, 80
5, 86879, Note_on_c, 2, 62, 0
5, 86879, Note_on_c, 2, 67, 0
5, 86879, Note_on_c, 2, 71, 0
5, 86880, Note_on_c, 2, 55, 80
5, 87599, Note_on_c, 2, 55, 0
5, 87600, Note_on_c, 2, 62, 80
5, 87600, Note_on_c, 2, 67, 80
5, 87600, Note_on_c, 2, 71, 80
5, 88319, Note_on_c, 2, 62, 0
5, 88319, Note_on_c, 2, 67, 0
5, 88319, Note_on_c, 2, 71, 0
5, 88320, Note_on_c, 2, 48, 80
5, 89039, Note_on_c, 2, 48, 0
5, 89040, Note_on_c, 2, 60, 80
5, 89040, Note_on_c, 2, 64, 80
5, 89040, Note_on_c, 2, 67, 80
5, 89759, Note_on_c, 2, 60, 0
5, 89759, Note_on_c, 2, 64, 0
5, 89759, Note_on_c, 2, 67, 0
5, 89760, Note_on_c, 2, 48, 80
5, 90479, Note_on_c, 2, 48, 0
5, 90480, Note_on_c, 2, 60, 80
5, 90480, Note_on_c, 2, 64, 80
5, 90480, Note_on_c, 2, 67, 80
5, 91199, Note_on_c, 2, 60, 0
5, 91199, Note_on_c, 2, 64, 0
5, 91199, Note_on_c, 2, 67, 0
5, 91200, Note_on_c, 2, 53, 80
5, 91919, Note_on_c, 2, 53, 0
5, 91920, Note_on_c, 2, 60, 80
5, 91920, Note_on_c, 2, 65, 80
5, 91920, Note_on_c, 2, 69, 80
5, 92639, Note_on_c, 2, 60, 0
5, 92639, Note_on_c, 2, 65, 0
5, 92639, Note_on_c, 2, 69, 0
5, 92640, Note_on_c, 2, 53, 80
5, 93359, Note_on_c, 2, 53, 0
5, 93360, Note_on_c, 2, 60, 80
5, 93360, Note_on_c, 2, 65, 80
5, 93360, Note_on_c, 2, 69, 80
5, 94079, Note_on_c, 2, 60, 0
5, 94079, Note_on_c, 2, 65, 0
5, 94079, Note_on_c, 2, 69, 0
5, 94080, Note_on_c, 2, 48, 80
5, 94799, Note_on_c, 2, 48, 0
5, 94800, Note_on_c, 2, 60, 80
5, 94800, Note_on_c, 2, 64, 80
5, 94800, Note_on_c, 2, 67, 80
5, 95519, Note_on_c, 2, 60, 0
5, 95519, Note_on_c, 2, 64, 0
5, 95519, Note_on_c, 2, 67, 0
5, 95520, Note_on_c, 2, 48, 80
5, 96239, Note_on_c, 2, 48, 0
5, 96240, Note_on_c, 2, 60, 80
5, 96240, Note_on_c, 2, 64, 80
5, 96240, Note_on_c, 2, 67, 80
5, 96959, Note_on_c, 2, 60, 0
5, 96959, Note_on_c, 2, 64, 0
5, 96959, Note_on_c, 2, 67, 0
5, 96960, Note_on_c, 2, 55, 80
5, 97679, Note_on_c, 2, 55, 0
5, 97680, Note_on_c, 2, 62, 80
5, 97680, Note_on_c, 2, 67, 80
5, 97680, Note_on_c, 2, 71, 80
5, 98399, Note_on_c, 2, 62, 0
5, 98399, Note_on_c, 2, 67, 0
5, 98399, Note_on_c, 2, 71, 0
5, 98400, Note_on_c, 2, 67, 80
5, 98400, Note_on_c, 2, 71, 80
5, 98400, Note_on_c, 2, 62, 80
5, 99119, Note_on_c, 2, 67, 0
5, 99119, Note_on_c, 2, 71, 0
5, 99119, Note_on_c, 2, 62, 0
5, 99120, Note_on_c, 2, 62, 80
5, 99120, Note_on_c, 2, 67, 80
5, 99120, Note_on_c, 2, 71, 80
5, 99479, Note_on_c, 2, 62, 0
5, 99479, Note_on_c, 2, 67, 0
5, 99479, Note_on_c, 2, 71, 0
5, 99480, Note_on_c, 2, 62, 80
5, 99480, Note_on_c, 2, 67, 80
5, 99480, Note_on_c, 2, 71, 80
5, 99839, Note_on_c, 2, 62, 0
5, 99839, Note_on_c, 2, 67, 0
5, 99839, Note_on_c, 2, 71, 0
5, 99840, Note_on_c, 2, 48, 80
5, 100319, Note_on_c, 2, 48, 0
5, 100320, Note_on_c, 2, 60, 80
5, 100320, Note_on_c, 2, 64, 80
5, 100320, Note_on_c, 2, 67, 80
5, 100799, Note_on_c, 2, 60, 0
5, 100799, Note_on_c, 2, 64, 0
5, 100799, Note_on_c, 2, 67, 0
5, 100800, Note_on_c, 2, 48, 80
5, 101279, Note_on_c, 2, 48, 0
5, 101280, Note_on_c, 2, 60, 80
5, 101280, Note_on_c, 2, 64, 80
5, 101280, Note_on_c, 2, 67, 80
5, 101519, Note_on_c, 2, 60, 0
5, 101519, Note_on_c, 2, 64, 0
5, 101519, Note_on_c, 2, 67, 0
5, 101520, Note_on_c, 2, 60, 80
5, 101520, Note_on_c, 2, 64, 80
5, 101520, Note_on_c, 2, 67, 80
5, 101759, Note_on_c, 2, 60, 0
5, 101759, Note_on_c, 2, 64, 0
5, 101759, Note_on_c, 2, 67, 0
5, 101760, Note_on_c, 2, 53, 80
5, 102239, Note_on_c, 2, 53, 0
5, 102240, Note_on_c, 2, 60, 80
5, 102240, Note_on_c, 2, 65, 80
5, 102240, Note_on_c, 2, 69, 80
5, 102719, Note_on_c, 2, 60, 0
5, 102719, Note_on_c, 2, 65, 0
5, 102719, Note_on_c, 2, 69, 0
5, 102720, Note_on_c, 2, 53, 80
5, 103199, Note_on_c, 2, 53, 0
5, 103200, Note_on_c, 2, 60, 80
5, 103200, Note_on_c, 2, 65, 80
5, 103200, Note_on_c, 2, 69, 80
5, 103439, Note_on_c, 2, 60, 0
5, 103439, Note_on_c, 2, 65, 0
5, 103439, Note_on_c, 2, 69, 0
5, 103440, Note_on_c, 2, 60, 80
5, 103440, Note_on_c, 2, 65, 80
5, 103440, Note_on_c, 2, 69, 80
5, 103679, Note_on_c, 2, 60, 0
5, 103679, Note_on_c, 2, 65, 0
5, 103679, Note_on_c, 2, 69, 0
5, 103680, Note_on_c, 2, 48, 80
5, 104159, Note_on_c, 2, 48, 0
5, 104160, Note_on_c, 2, 60, 80
5, 104160, Note_on_c, 2, 64, 80
5, 104160, Note_on_c, 2, 67, 80
5, 104639, Note_on_c, 2, 60, 0
5, 104639, Note_on_c, 2, 64, 0
5, 104639, Note_on_c, 2, 67, 0
5, 104640, Note_on_c, 2, 48, 80
5, 105119, Note_on_c, 2, 48, 0
5, 105120, Note_on_c, 2, 60, 80
5, 105120, Note_on_c, 2, 64, 80
5, 105120, Note_on_c, 2, 67, 80
5, 105359, Note_on_c, 2, 60, 0
5, 105359, Note_on_c, 2, 64, 0
5, 105359, Note_on_c, 2, 67, 0
5, 105360, Note_on_c, 2, 60, 80
5, 105360, Note_on_c, 2, 64, 80
5, 105360, Note_on_c, 2, 67, 80
5, 105599, Note_on_c, 2, 60, 0
5, 105599, Note_on_c, 2, 64, 0
5, 105599, Note_on_c, 2, 67, 0
5, 105600, Note_on_c, 2, 55, 80
5, 106079, Note_on_c, 2, 55, 0
5, 106080, Note_on_c, 2, 62, 80
5, 106080, Note_on_c, 2, 67, 80
5, 106080, Note_on_c, 2, 71, 80
5, 106559, Note_on_c, 2, 62, 0
5, 106559, Note_on_c, 2, 67, 0
5, 106559, Note_on_c, 2, 71, 0
5, 106560, Note_on_c, 2, 55, 80
5, 107039, Note_on_c, 2, 55, 0
5, 107040, Note_on_c, 2, 62, 80
5, 107040, Note_on_c, 2, 67, 80
5, 107040, Note_on_c, 2, 71, 80
5, 107279, Note_on_c, 2, 62, 0
5, 107279, Note_on_c, 2, 67, 0
5, 107279, Note_on_c, 2, 71, 0
5, 107280, Note_on_c, 2, 62, 80
5, 107280, Note_on_c, 2, 67, 80
5, 107280, Note_on_c, 2, 71, 80
5, 107519, Note_on_c, 2, 62, 0
5, 107519, Note_on_c, 2, 67, 0
5, 107519, Note_on_c, 2, 71, 0
5, 107520, Note_on_c, 2, 48, 80
5, 107999, Note_on_c, 2, 48, 0
5, 108000, Note_on_c, 2, 60, 80
5, 108000, Note_on_c, 2, 64, 80
5, 108000, Note_on_c, 2, 67, 80
5, 108479, Note_on_c, 2, 60, 0
5, 108479, Note_on_c, 2, 64, 0
5, 108479, Note_on_c, 2, 67, 0
5, 108480, Note_on_c, 2, 48, 80
5, 108959, Note_on_c, 2, 48, 0
5, 108960, Note_on_c, 2, 60, 80
5, 108960, Note_on_c, 2, 64, 80
5, 108960, Note_on_c, 2, 67, 80
5, 109199, Note_on_c, 2, 60, 0
5, 109199, Note_on_c, 2, 64, 0
5, 109199, Note_on_c, 2, 67, 0
5, 109200, Note_on_c, 2, 60, 80
5, 109200, Note_on_c, 2, 64, 80
5, 109200, Note_on_c, 2, 67, 80
5, 109439, Note_on_c, 2, 60, 0
5, 109439, Note_on_c, 2, 64, 0
5, 109439, Note_on_c, 2, 67, 0
5, 109440, Note_on_c, 2, 53, 80
5, 109919, Note_on_c, 2, 53, 0
5, 109920, Note_on_c, 2, 60, 80
5, 109920, Note_on_c, 2, 65, 80
5, 109920, Note_on_c, 2, 69, 80
5, 110399, Note_on_c, 2, 60, 0
5, 110399, Note_on_c, 2, 65, 0
5, 110399, Note_on_c, 2, 69, 0
5, 110400, Note_on_c, 2, 53, 80
5, 110879, Note_on_c, 2, 53, 0
5, 110880, Note_on_c, 2, 60, 80
5, 110880, Note_on_c, 2, 65, 80
5, 110880, Note_on_c, 2, 69, 80
5, 111119, Note_on_c, 2, 60, 0
5, 111119, Note_on_c, 2, 65, 0
5, 111119, Note_on_c, 2, 69, 0
5, 111120, Note_on_c, 2, 60, 80
5, 111120, Note_on_c, 2, 65, 80
5, 111120, Note_on_c, 2, 69, 80
5, 111359, Note_on_c, 2, 60, 0
5, 111359, Note_on_c, 2, 65, 0
5, 111359, Note_on_c, 2, 69, 0
5, 111360, Note_on_c, 2, 48, 80
5, 111839, Note_on_c, 2, 48, 0
5, 111840, Note_on_c, 2, 60, 80
5, 111840, Note_on_c, 2, 64, 80
5, 111840, Note_on_c, 2, 67, 80
5, 112319, Note_on_c, 2, 60, 0
5, 112319, Note_on_c, 2, 64, 0
5, 112319, Note_on_c, 2, 67, 0
5, 112320, Note_on_c, 2, 48, 80
5, 112799, Note_on_c, 2, 48, 0
5, 112800, Note_on_c, 2, 60, 80
5, 112800, Note_on_c, 2, 64, 80
5, 112800, Note_on_c, 2, 67, 80
5, 113039, Note_on_c, 2, 60, 0
5, 113039, Note_on_c, 2, 64, 0
5, 113039, Note_on_c, 2, 67, 0
5, 113040, Note_on_c, 2, 60, 80
5, 113040, Note_on_c, 2, 64, 80
5, 113040, Note_on_c, 2, 67, 80
5, 113279, Note_on_c, 2, 60, 0
5, 113279, Note_on_c, 2, 64, 0
5, 113279, Note_on_c, 2, 67, 0
5, 113280, Note_on_c, 2, 55, 80
5, 113759, Note_on_c, 2, 55, 0
5, 113760, Note_on_c, 2, 62, 80
5, 113760, Note_on_c, 2, 67, 80
5, 113760, Note_on_c, 2, 71, 80
5, 114239, Note_on_c, 2, 62, 0
5, 114239, Note_on_c, 2, 67, 0
5, 114239, Note_on_c, 2, 71, 0
5, 114240, Note_on_c, 2, 55, 80
5, 114719, Note_on_c, 2, 55, 0
5, 114720, Note_on_c, 2, 62, 80
5, 114720, Note_on_c, 2, 67, 80
5, 114720, Note_on_c, 2, 71, 80
5, 114959, Note_on_c, 2, 62, 0
5, 114959, Note_on_c, 2, 67, 0
5, 114959, Note_on_c, 2, 71, 0
5, 114960, Note_on_c, 2, 62, 80
5, 114960, Note_on_c, 2, 67, 80
5, 114960, Note_on_c, 2, 71, 80
5, 115199, Note_on_c, 2, 62, 0
5, 115199, Note_on_c, 2, 67, 0
5, 115199, Note_on_c, 2, 71, 0
5, 115200, Note_on_c, 2, 48, 80
5, 115679, Note_on_c, 2, 48, 0
5, 115680, Note_on_c, 2, 60, 80
5, 115680, Note_on_c, 2, 64, 80
5, 115680, Note_on_c, 2, 67, 80
5, 116159, Note_on_c, 2, 60, 0
5, 116159, Note_on_c, 2, 64, 0
5, 116159, Note_on_c, 2, 67, 0
5, 116160, Note_on_c, 2, 48, 80
5, 116639, Note_on_c, 2, 48, 0
5, 116640, Note_on_c, 2, 60, 80
5, 116640, Note_on_c, 2, 64, 80
5, 116640, Note_on_c, 2, 67, 80
5, 116879, Note_on_c, 2, 60, 0
5, 116879, Note_on_c, 2, 64, 0
5, 116879, Note_on_c, 2, 67, 0
5, 116880, Note_on_c, 2, 60, 80
5, 116880, Note_on_c, 2, 64, 80
5, 116880, Note_on_c, 2, 67, 80
5, 117119, Note_on_c, 2, 60, 0
5, 117119, Note_on_c, 2, 64, 0
5, 117119, Note_on_c, 2, 67, 0
5, 117120, Note_on_c, 2, 53, 80
5, 117599, Note_on_c, 2, 53, 0
5, 117600, Note_on_c, 2, 60, 80
5, 117600, Note_on_c, 2, 65, 80
5, 117600, Note_on_c, 2, 69, 80
5, 118079, Note_on_c, 2, 60, 0
5, 118079, Note_on_c, 2, 65, 0
5, 118079, Note_on_c, 2, 69, 0
5, 118080, Note_on_c, 2, 53, 80
5, 118559, Note_on_c, 2, 53, 0
5, 118560, Note_on_c, 2, 60, 80
5, 118560, Note_on_c, 2, 65, 80
5, 118560, Note_on_c, 2, 69, 80
5, 118799, Note_on_c, 2, 60, 0
5, 118799, Note_on_c, 2, 65, 0
5, 118799, Note_on_c, 2, 69, 0
5, 118800, Note_on_c, 2, 60, 80
5, 118800, Note_on_c, 2, 65, 80
5, 118800, Note_on_c, 2, 69, 80
5, 119039, Note_on_c, 2, 60, 0
5, 119039, Note_on_c, 2, 65, 0
5, 119039, Note_on_c, 2, 69, 0
5, 119040, Note_on_c, 2, 48, 80
5, 119519, Note_on_c, 2, 48, 0
5, 119520, Note_on_c, 2, 60, 80
5, 119520, Note_on_c, 2, 64, 80
5, 119520, Note_on_c, 2, 67, 80
5, 119999, Note_on_c, 2, 60, 0
5, 119999, Note_on_c, 2, 64, 0
5, 119999, Note_on_c, 2, 67, 0
5, 120000, Note_on_c, 2, 48, 80
5, 120479, Note_on_c, 2, 48, 0
5, 120480, Note_on_c, 2, 60, 80
5, 120480, Note_on_c, 2, 64, 80
5, 120480, Note_on_c, 2, 67, 80
5, 120719, Note_on_c, 2, 60, 0
5, 120719, Note_on_c, 2, 64, 0
5, 120719, Note_on_c, 2, 67, 0
5, 120720, Note_on_c, 2, 60, 80
5, 120720, Note_on_c, 2, 64, 80
5, 120720, Note_on_c, 2, 67, 80
5, 120959, Note_on_c, 2, 60, 0
5, 120959, Note_on_c, 2, 64, 0
5, 120959, Note_on_c, 2, 67, 0
5, 120960, Note_on_c, 2, 55, 80
5, 121439, Note_on_c, 2, 55, 0
5, 121440, Note_on_c, 2, 62, 80
5, 121440, Note_on_c, 2, 67, 80
5, 121440, Note_on_c, 2, 71, 80
5, 121919, Note_on_c, 2, 62, 0
5, 121919, Note_on_c, 2, 67, 0
5, 121919, Note_on_c, 2, 71, 0
5, 121920, Note_on_c, 2, 55, 80
5, 122399, Note_on_c, 2, 55, 0
5, 122400, Note_on_c, 2, 62, 80
5, 122400, Note_on_c, 2, 67, 80
5, 122400, Note_on_c, 2, 71, 80
5, 122639, Note_on_c, 2, 62, 0
5, 122639, Note_on_c, 2, 67, 0
5, 122639, Note_on_c, 2, 71, 0
5, 122640, Note_on_c, 2, 62, 80
5, 122640, Note_on_c, 2, 67, 80
5, 122640, Note_on_c, 2, 71, 80
5, 122879, Note_on_c, 2, 62, 0
5, 122879, Note_on_c, 2, 67, 0
5, 122879, Note_on_c, 2, 71, 0
5, 122880, Note_on_c, 2, 48, 80
5, 123359, Note_on_c, 2, 48, 0
5, 123360, Note_on_c, 2, 60, 80
5, 123360, Note_on_c, 2, 64, 80
5, 123360, Note_on_c, 2, 67, 80
5, 123839, Note_on_c, 2, 60, 0
5, 123839, Note_on_c, 2, 64, 0
5, 123839, Note_on_c, 2, 67, 0
5, 123840, Note_on_c, 2, 48, 80
5, 124319, Note_on_c, 2, 48, 0
5, 124320, Note_on_c, 2, 60, 80
5, 124320, Note_on_c, 2, 64, 80
5, 124320, Note_on_c, 2, 67, 80
5, 124559, Note_on_c, 2, 60, 0
5, 124559, Note_on_c, 2, 64, 0
5, 124559, Note_on_c, 2, 67, 0
5, 124560, Note_on_c, 2, 60, 80
5, 124560, Note_on_c, 2, 64, 80
5, 124560, Note_on_c, 2, 67, 80
5, 124799, Note_on_c, 2, 60, 0
5, 124799, Note_on_c, 2, 64, 0
5, 124799, Note_on_c, 2, 67, 0
5, 124800, Note_on_c, 2, 53, 80
5, 125279, Note_on_c, 2, 53, 0
5, 125280, Note_on_c, 2, 60, 80
5, 125280, Note_on_c, 2, 65, 80
5, 125280, Note_on_c, 2, 69, 80
5, 125759, Note_on_c, 2, 60, 0
5, 125759, Note_on_c, 2, 65, 0
5, 125759, Note_on_c, 2, 69, 0
5, 125760, Note_on_c, 2, 53, 80
5, 126239, Note_on_c, 2, 53, 0
5, 126240, Note_on_c, 2, 60, 80
5, 126240, Note_on_c, 2, 65, 80
5, 126240, Note_on_c, 2, 69, 80
5, 126479, Note_on_c, 2, 60, 0
5, 126479, Note_on_c, 2, 65, 0
5, 126479, Note_on_c, 2, 69, 0
5, 126480, Note_on_c, 2, 60, 80
5, 126480, Note_on_c, 2, 65, 80
5, 126480, Note_on_c, 2, 69, 80
5, 126719, Note_on_c, 2, 60, 0
5, 126719, Note_on_c, 2, 65, 0
5, 126719, Note_on_c, 2, 69, 0
5, 126720, Note_on_c, 2, 48, 80
5, 127199, Note_on_c, 2, 48, 0
5, 127200, Note_on_c, 2, 60, 80
5, 127200, Note_on_c, 2, 64, 80
5, 127200, Note_on_c, 2, 67, 80
5, 127679, Note_on_c, 2, 60, 0
5, 127679, Note_on_c, 2, 64, 0
5, 127679, Note_on_c, 2, 67, 0
5, 127680, Note_on_c, 2, 48, 80
5, 128159, Note_on_c, 2, 48, 0
5, 128160, Note_on_c, 2, 60, 80
5, 128160, Note_on_c, 2, 64, 80
5, 128160, Note_on_c, 2, 67, 80
5, 128399, Note_on_c, 2, 60, 0
5, 128399, Note_on_c, 2, 64, 0
5, 128399, Note_on_c, 2, 67, 0
5, 128400, Note_on_c, 2, 60, 80
5, 128400, Note_on_c, 2, 64, 80
5, 128400, Note_on_c, 2, 67, 80
5, 128639, Note_on_c, 2, 60, 0
5, 128639, Note_on_c, 2, 64, 0
5, 128639, Note_on_c, 2, 67, 0
5, 128640, Note_on_c, 2, 55, 80
5, 129119, Note_on_c, 2, 55, 0
5, 129120, Note_on_c, 2, 62, 80
5, 129120, Note_on_c, 2, 67, 80
5, 129120, Note_on_c, 2, 71, 80
5, 129599, Note_on_c, 2, 62, 0
5, 129599, Note_on_c, 2, 67, 0
5, 129599, Note_on_c, 2, 71, 0
5, 129600, Note_on_c, 2, 55, 80
5, 130079, Note_on_c, 2, 55, 0
5, 130080, Note_on_c, 2, 62, 80
5, 130080, Note_on_c, 2, 67, 80
5, 130080, Note_on_c, 2, 71, 80
5, 130319, Note_on_c, 2, 62, 0
5, 130319, Note_on_c, 2, 67, 0
5, 130319, Note_on_c, 2, 71, 0
5, 130320, Note_on_c, 2, 62, 80
5, 130320, Note_on_c, 2, 67, 80
5, 130320, Note_on_c, 2, 71, 80
5, 130559, Note_on_c, 2, 62, 0
5, 130559, Note_on_c, 2, 67, 0
5, 130559, Note_on_c, 2, 71, 0
5, 130560, Note_on_c, 2, 48, 80
5, 131279, Note_on_c, 2, 48, 0
5, 131280, Note_on_c, 2, 60, 80
5, 131280, Note_on_c, 2, 64, 80
5, 131280, Note_on_c, 2, 67, 80
5, 131999, Note_on_c, 2, 60, 0
5, 131999, Note_on_c, 2, 64, 0
5, 131999, Note_on_c, 2, 67, 0
5, 132000, Note_on_c, 2, 48, 80
5, 132719, Note_on_c, 2, 48, 0
5, 132720, Note_on_c, 2, 60, 80
5, 132720, Note_on_c, 2, 64, 80
5, 132720, Note_on_c, 2, 67, 80
5, 133439, Note_on_c, 2, 60, 0
5, 133439, Note_on_c, 2, 64, 0
5, 133439, Note_on_c, 2, 67, 0
5, 133440, Note_on_c, 2, 53, 80
5, 134159, Note_on_c, 2, 53, 0
5, 134160, Note_on_c, 2, 60, 80
5, 134160, Note_on_c, 2, 65, 80
5, 134160, Note_on_c, 2, 69, 80
5, 134879, Note_on_c, 2, 60, 0
5, 134879, Note_on_c, 2, 65, 0
5, 134879, Note_on_c, 2, 69, 0
5, 134880, Note_on_c, 2, 53, 80
5, 135599, Note_on_c, 2, 53, 0
5, 135600, Note_on_c, 2, 60, 80
5, 135600, Note_on_c, 2, 65, 80
5, 135600, Note_on_c, 2, 69, 80
5, 136319, Note_on_c, 2, 60, 0
5, 136319, Note_on_c, 2, 65, 0
5, 136319, Note_on_c, 2, 69, 0
5, 136320, Note_on_c, 2, 48, 80
5, 137039, Note_on_c, 2, 48, 0
5, 137040, Note_on_c, 2, 60, 80
5, 137040, Note_on_c, 2, 64, 80
5, 137040, Note_on_c, 2, 67, 80
5, 137759, Note_on_c, 2, 60, 0
5, 137759, Note_on_c, 2, 64, 0
5, 137759, Note_on_c, 2, 67, 0
5, 137760, Note_on_c, 2, 48, 80
5, 138479, Note_on_c, 2, 48, 0
5, 138480, Note_on_c, 2, 60, 80
5, 138480, Note_on_c, 2, 64, 80
5, 138480, Note_on_c, 2, 67, 80
5, 139199, Note_on_c, 2, 60, 0
5, 139199, Note_on_c, 2, 64, 0
5, 139199, Note_on_c, 2, 67, 0
5, 139200, Note_on_c, 2, 55, 80
5, 139919, Note_on_c, 2, 55, 0
5, 139920, Note_on_c, 2, 62, 80
5, 139920, Note_on_c, 2, 67, 80
5, 139920, Note_on_c, 2, 71, 80
5, 140639, Note_on_c, 2, 62, 0
5, 140639, Note_on_c, 2, 67, 0
5, 140639, Note_on_c, 2, 71, 0
5, 140640, Note_on_c, 2, 55, 80
5, 141359, Note_on_c, 2, 55, 0
5, 141360, Note_on_c, 2, 62, 80
5, 141360, Note_on_c, 2, 67, 80
5, 141360, Note_on_c, 2, 71, 80
5, 142079, Note_on_c, 2, 62, 0
5, 142079, Note_on_c, 2, 67, 0
5, 142079, Note_on_c, 2, 71, 0
5, 142080, Note_on_c, 2, 48, 80
5, 142799, Note_on_c, 2, 48, 0
5, 142800, Note_on_c, 2, 60, 80
5, 142800, Note_on_c, 2, 64, 80
5, 142800, Note_on_c, 2, 67, 80
5, 143519, Note_on_c, 2, 60, 0
5, 143519, Note_on_c, 2, 64, 0
5, 143519, Note_on_c, 2, 67, 0
5, 143520, Note_on_c, 2, 48, 80
5, 144239, Note_on_c, 2, 48, 0
5, 144240, Note_on_c, 2, 60, 80
5, 144240, Note_on_c, 2, 64, 80
5, 144240, Note_on_c, 2, 67, 80
5, 144959, Note_on_c, 2, 60, 0
5, 144959, Note_on_c, 2, 64, 0
5, 144959, Note_on_c, 2, 67, 0
5, 144960, Note_on_c, 2, 53, 80
5, 145679, Note_on_c, 2, 53, 0
5, 145680, Note_on_c, 2, 60, 80
5, 145680, Note_on_c, 2, 65, 80
5, 145680, Note_on_c, 2, 69, 80
5, 146399, Note_on_c, 2, 60, 0
5, 146399, Note_on_c, 2, 65, 0
5, 146399, Note_on_c, 2, 69, 0
5, 146400, Note_on_c, 2, 53, 80
5, 147119, Note_on_c, 2, 53, 0
5, 147120, Note_on_c, 2, 60, 80
5, 147120, Note_on_c, 2, 65, 80
5, 147120, Note_on_c, 2, 69, 80
5, 147839, Note_on_c, 2, 60, 0
5, 147839, Note_on_c, 2, 65, 0
5, 147839, Note_on_c, 2, 69, 0
5, 147840, Note_on_c, 2, 48, 80
5, 148559, Note_on_c, 2, 48, 0
5, 148560, Note_on_c, 2, 60, 80
5, 148560, Note_on_c, 2, 64, 80
5, 148560, Note_on_c, 2, 67, 80
5, 149279, Note_on_c, 2, 60, 0
5, 149279, Note_on_c, 2, 64, 0
5, 149279, Note_on_c, 2, 67, 0
5, 149280, Note_on_c, 2, 48, 80
5, 149999, Note_on_c, 2, 48, 0
5, 150000, Note_on_c, 2, 60, 80
5, 150000, Note_on_c, 2, 64, 80
5, 150000, Note_on_c, 2, 67, 80
5, 150719, Note_on_c, 2, 60, 0
5, 150719, Note_on_c, 2, 64, 0
5, 150719, Note_on_c, 2, 67, 0
5, 150720, Note_on_c, 2, 55, 80
5, 151439, Note_on_c, 2, 55, 0
5, 151440, Note_on_c, 2, 62, 80
5, 151440, Note_on_c, 2, 67, 80
5, 151440, Note_on_c, 2, 71, 80
5, 152159, Note_on_c, 2, 62, 0
5, 152159, Note_on_c, 2, 67, 0
5, 152159, Note_on_c, 2, 71, 0
5, 152160, Note_on_c, 2, 67, 80
5, 152160, Note_on_c, 2, 71, 80
5, 152160, Note_on_c, 2, 62, 80
5, 152879, Note_on_c, 2, 67, 0
5, 152879, Note_on_c, 2, 71, 0
5, 152879, Note_on_c, 2, 62, 0
5, 152880, Note_on_c, 2, 62, 80
5, 152880, Note_on_c, 2, 67, 80
5, 152880, Note_on_c, 2, 71, 80
5, 153239, Note_on_c, 2, 62, 0
5, 153239, Note_on_c, 2, 67, 0
5, 153239, Note_on_c, 2, 71, 0
5, 153240, Note_on_c, 2, 62, 80
5, 153240, Note_on_c, 2, 67, 80
5, 153240, Note_on_c, 2, 71, 80
5, 153599, Note_on_c, 2, 62, 0
5, 153599, Note_on_c, 2, 67, 0
5, 153599, Note_on_c, 2, 71, 0
5, 153600, Note_on_c, 2, 48, 80
5, 154079, Note_on_c, 2, 48, 0
5, 154080, Note_on_c, 2, 60, 80
5, 154080, Note_on_c, 2, 64, 80
5, 154080, Note_on_c, 2, 67, 80
5, 154559, Note_on_c, 2, 60, 0
5, 154559, Note_on_c, 2, 64, 0
5, 154559, Note_on_c, 2, 67, 0
5, 154560, Note_on_c, 2, 48, 80
5, 155519, Note_on_c, 2, 48, 0
5, 155520, Note_on_c, 2, 53, 80
5, 155999, Note_on_c, 2, 53, 0
5, 156000, Note_on_c, 2, 60, 80
5, 156000, Note_on_c, 2, 65, 80
5, 156000, Note_on_c, 2, 69, 80
5, 156479, Note_on_c, 2, 60, 0
5, 156479, Note_on_c, 2, 65, 0
5, 156479, Note_on_c, 2, 69, 0
5, 156480, Note_on_c, 2, 53, 80
5, 157439, Note_on_c, 2, 53, 0
5, 157440, Note_on_c, 2, 48, 80
5, 157919, Note_on_c, 2, 48, 0
5, 157920, Note_on_c, 2, 60, 80
5, 157920, Note_on_c, 2, 64, 80
5, 157920, Note_on_c, 2, 67, 80
5, 158399, Note_on_c, 2, 60, 0
5, 158399, Note_on_c, 2, 64, 0
5, 158399, Note_on_c, 2, 67, 0
5, 158400, Note_on_c, 2, 48, 80
5, 159359, Note_on_c, 2, 48, 0
5, 159360, Note_on_c, 2, 55, 80
5, 159839, Note_on_c, 2, 55, 0
5, 159840, Note_on_c, 2, 62, 80
5, 159840, Note_on_c, 2, 67, 80
5, 159840, Note_on_c, 2, 71, 80
5, 160319, Note_on_c, 2, 62, 0
5, 160319, Note_on_c, 2, 67, 0
5, 160319, Note_on_c, 2, 71, 0
5, 160320, Note_on_c, 2, 55, 80
5, 161279, Note_on_c, 2, 55, 0
5, 161280, Note_on_c, 2, 48, 80
5, 161759, Note_on_c, 2, 48, 0
5, 161760, Note_on_c, 2, 60, 80
5, 161760, Note_on_c, 2, 64, 80
5, 161760, Note_on_c, 2, 67, 80
5, 162239, Note_on_c, 2, 60, 0
5, 162239, Note_on_c, 2, 64, 0
5, 162239, Note_on_c, 2, 67, 0
5, 162240, Note_on_c, 2, 48, 80
5, 162719, Note_on_c, 2, 48, 0
5, 162720, Note_on_c, 2, 60, 80
5, 162720, Note_on_c, 2, 64, 80
5, 162720, Note_on_c, 2, 67, 80
5, 163199, Note_on_c, 2, 60, 0
5, 163199, Note_on_c, 2, 64, 0
5, 163199, Note_on_c, 2, 67, 0
5, 163200, Note_on_c, 2, 53, 80
5, 163679, Note_on_c, 2, 53, 0
5, 163680, Note_on_c, 2, 60, 80
5, 163680, Note_on_c, 2, 65, 80
5, 163680, Note_on_c, 2, 69, 80
5, 164159, Note_on_c, 2, 60, 0
5, 164159, Note_on_c, 2, 65, 0
5, 164159, Note_on_c, 2, 69, 0
5, 164160, Note_on_c, 2, 53, 80
5, 164639, Note_on_c, 2, 53, 0
5, 164640, Note_on_c, 2, 60, 80
5, 164640, Note_on_c, 2, 65, 80
5, 164640, Note_on_c, 2, 69, 80
5, 165119, Note_on_c, 2, 60, 0
5, 165119, Note_on_c, 2, 65, 0
5, 165119, Note_on_c, 2, 69, 0
5, 165120, Note_on_c, 2, 48, 80
5, 165599, Note_on_c, 2, 48, 0
5, 165600, Note_on_c, 2, 60, 80
5, 165600, Note_on_c, 2, 64, 80
5, 165600, Note_on_c, 2, 67, 80
5, 166079, Note_on_c, 2, 60, 0
5, 166079, Note_on_c, 2, 64, 0
5, 166079, Note_on_c, 2, 67, 0
5, 166080, Note_on_c, 2, 48, 80
5, 166559, Note_on_c, 2, 48, 0
5, 166560, Note_on_c, 2, 60, 80
5, 166560, Note_on_c, 2, 64, 80
5, 166560, Note_on_c, 2, 67, 80
5, 167039, Note_on_c, 2, 60, 0
5, 167039, Note_on_c, 2, 64, 0
5, 167039, Note_on_c, 2, 67, 0
5, 167040, Note_on_c, 2, 55, 80
5, 167519, Note_on_c, 2, 55, 0
5, 167520, Note_on_c, 2, 62, 80
5, 167520, Note_on_c, 2, 67, 80
5, 167520, Note_on_c, 2, 71, 80
5, 167999, Note_on_c, 2, 62, 0
5, 167999, Note_on_c, 2, 67, 0
5, 167999, Note_on_c, 2, 71, 0
5, 168000, Note_on_c, 2, 55, 80
5, 168479, Note_on_c, 2, 55, 0
5, 168480, Note_on_c, 2, 62, 80
5, 168480, Note_on_c, 2, 67, 80
5, 168480, Note_on_c, 2, 71, 80
5, 168959, Note_on_c, 2, 62, 0
5, 168959, Note_on_c, 2, 67, 0
5, 168959, Note_on_c, 2, 71, 0
5, 168960, Note_on_c, 2, 48, 80
5, 169439, Note_on_c, 2, 48, 0
5, 169440, Note_on_c, 2, 60, 80
5, 169440, Note_on_c, 2, 64, 80
5, 169440, Note_on_c, 2, 67, 80
5, 169919, Note_on_c, 2, 60, 0
5, 169919, Note_on_c, 2, 64, 0
5, 169919, Note_on_c, 2, 67, 0
5, 169920, Note_on_c, 2, 48, 80
5, 170879, Note_on_c, 2, 48, 0
5, 170880, Note_on_c, 2, 53, 80
5, 171359, Note_on_c, 2, 53, 0
5, 171360, Note_on_c, 2, 60, 80
5, 171360, Note_on_c, 2, 65, 80
5, 171360, Note_on_c, 2, 69, 80
5, 171839, Note_on_c, 2, 60, 0
5, 171839, Note_on_c, 2, 65, 0
5, 171839, Note_on_c, 2, 69, 0
5, 171840, Note_on_c, 2, 53, 80
5, 172799, Note_on_c, 2, 53, 0
5, 172800, Note_on_c, 2, 48, 80
5, 173279, Note_on_c, 2, 48, 0
5, 173280, Note_on_c, 2, 60, 80
5, 173280, Note_on_c, 2, 64, 80
5, 173280, Note_on_c, 2, 67, 80
5, 173759, Note_on_c, 2, 60, 0
5, 173759, Note_on_c, 2, 64, 0
5, 173759, Note_on_c, 2, 67, 0
5, 173760, Note_on_c, 2, 48, 80
5, 174719, Note_on_c, 2, 48, 0
5, 174720, Note_on_c, 2, 55, 80
5, 175199, Note_on_c, 2, 55, 0
5, 175200, Note_on_c, 2, 62, 80
5, 175200, Note_on_c, 2, 67, 80
5, 175200, Note_on_c, 2, 71, 80
5, 175679, Note_on_c, 2, 62, 0
5, 175679, Note_on_c, 2, 67, 0
5, 175679, Note_on_c, 2, 71, 0
5, 175680, Note_on_c, 2, 55, 80
5, 176639, Note_on_c, 2, 55, 0
5, 176640, Note_on_c, 2, 48, 80
5, 177119, Note_on_c, 2, 48, 0
5, 177120, Note_on_c, 2, 60, 80
5, 177120, Note_on_c, 2, 64, 80
5, 177120, Note_on_c, 2, 67, 80
5, 177599, Note_on_c, 2, 60, 0
5, 177599, Note_on_c, 2, 64, 0
5, 177599, Note_on_c, 2, 67, 0
5, 177600, Note_on_c, 2, 48, 80
5, 178559, Note_on_c, 2, 48, 0
5, 178560, Note_on_c, 2, 53, 80
5, 179039, Note_on_c, 2, 53, 0
5, 179040, Note_on_c, 2, 60, 80
5, 179040, Note_on_c, 2, 65, 80
5, 179040, Note_on_c, 2, 69, 80
5, 179519, Note_on_c, 2, 60, 0
5, 179519, Note_on_c, 2, 65, 0
5, 179519, Note_on_c, 2, 69, 0
5, 179520, Note_on_c, 2, 53, 80
5, 180479, Note_on_c, 2, 53, 0
5, 180480, Note_on_c, 2, 48, 80
5, 180959, Note_on_c, 2, 48, 0
5, 180960, Note_on_c, 2, 60, 80
5, 180960, Note_on_c, 2, 64, 80
5, 180960, Note_on_c, 2, 67, 80
5, 181439, Note_on_c, 2, 60, 0
5, 181439, Note_on_c, 2, 64, 0
5, 181439, Note_on_c, 2, 67, 0
5, 181440, Note_on_c, 2, 48, 80
5, 182399, Note_on_c, 2, 48, 0
5, 182400, Note_on_c, 2, 55, 80
5, 182879, Note_on_c, 2, 55, 0
5, 182880, Note_on_c, 2, 62, 80
5, 182880, Note_on_c, 2, 67, 80
5, 182880, Note_on_c, 2, 71, 80
5, 183359, Note_on_c, 2, 62, 0
5, 183359, Note_on_c, 2, 67, 0
5, 183359, Note_on_c, 2, 71, 0
5, 183360, Note_on_c, 2, 55, 80
5, 183839, Note_on_c, 2, 55, 0
5, 183840, Note_on_c, 2, 62, 80
5, 183840, Note_on_c, 2, 67, 80
5, 183840, Note_on_c, 2, 71, 80
5, 184319, Note_on_c, 2, 62, 0
5, 184319, Note_on_c, 2, 67, 0
5, 184319, Note_on_c, 2, 71, 0
5, 184320, Note_on_c, 2, 48, 80
5, 184799, Note_on_c, 2, 48, 0
5, 184800, Note_on_c, 2, 60, 80
5, 184800, Note_on_c, 2, 64, 80
5, 184800, Note_on_c, 2, 67, 80
5, 185279, Note_on_c, 2, 60, 0
5, 185279, Note_on_c, 2, 64, 0
5, 185279, Note_on_c, 2, 67, 0
5, 185280, Note_on_c, 2, 48, 80
5, 185759, Note_on_c, 2, 48, 0
5, 185760, Note_on_c, 2, 60, 80
5, 185760, Note_on_c, 2, 64, 80
5, 185760, Note_on_c, 2, 67, 80
5, 186239, Note_on_c, 2, 60, 0
5, 186239, Note_on_c, 2, 64, 0
5, 186239, Note_on_c, 2, 67, 0
5, 186240, Note_on_c, 2, 53, 80
5, 186719, Note_on_c, 2, 53, 0
5, 186720, Note_on_c, 2, 60, 80
5, 186720, Note_on_c, 2, 65, 80
5, 186720, Note_on_c, 2, 69, 80
5, 187199, Note_on_c, 2, 60, 0
5, 187199, Note_on_c, 2, 65, 0
5, 187199, Note_on_c, 2, 69, 0
5, 187200, Note_on_c, 2, 53, 80
5, 187679, Note_on_c, 2, 53, 0
5, 187680, Note_on_c, 2, 60, 80
5, 187680, Note_on_c, 2, 65, 80
5, 187680, Note_on_c, 2, 69, 80
5, 188159, Note_on_c, 2, 60, 0
5, 188159, Note_on_c, 2, 65, 0
5, 188159, Note_on_c, 2, 69, 0
5, 188160, Note_on_c, 2, 48, 80
5, 188639, Note_on_c, 2, 48, 0
5, 188640, Note_on_c, 2, 60, 80
5, 188640, Note_on_c, 2, 64, 80
5, 188640, Note_on_c, 2, 67, 80
5, 189119, Note_on_c, 2, 60, 0
5, 189119, Note_on_c, 2, 64, 0
5, 189119, Note_on_c, 2, 67, 0
5, 189120, Note_on_c, 2, 48, 80
5, 189599, Note_on_c, 2, 48, 0
5, 189600, Note_on_c, 2, 60, 80
5, 189600, Note_on_c, 2, 64, 80
5, 189600, Note_on_c, 2, 67, 80
5, 190079, Note_on_c, 2, 60, 0
5, 190079, Note_on_c, 2, 64, 0
5, 190079, Note_on_c, 2, 67, 0
5, 190080, Note_on_c, 2, 50, 80
5, 190080, Note_on_c, 2, 55, 80
5, 190559, Note_on_c, 2, 50, 0
5, 190559, Note_on_c, 2, 55, 0
5, 190560, Note_on_c, 2, 55, 80
5, 190560, Note_on_c, 2, 59, 80
5, 191039, Note_on_c, 2, 55, 0
5, 191039, Note_on_c, 2, 59, 0
5, 191040, Note_on_c, 2, 59, 80
5, 191040, Note_on_c, 2, 62, 80
5, 191519, Note_on_c, 2, 59, 0
5, 191519, Note_on_c, 2, 62, 0
5, 191520, Note_on_c, 2, 62, 80
5, 191520, Note_on_c, 2, 67, 80
5, 191759, Note_on_c, 2, 62, 0
5, 191759, Note_on_c, 2, 67, 0
5, 191760, Note_on_c, 2, 62, 80
5, 191760, Note_on_c, 2, 67, 80
5, 191760, Note_on_c, 2, 71, 80
5, 191999, Note_on_c, 2, 62, 0
5, 191999, Note_on_c, 2, 67, 0
5, 191999, Note_on_c, 2, 71, 0
5, 192000, Note_on_c, 2, 48, 80
5, 192479, Note_on_c, 2, 48, 0
5, 192480, Note_on_c, 2, 60, 80
5, 192480, Note_on_c, 2, 64, 80
5, 192480, Note_on_c, 2, 67, 80
5, 192959, Note_on_c, 2, 60, 0
5, 192959, Note_on_c, 2, 64, 0
5, 192959, Note_on_c, 2, 67, 0
5, 192960, Note_on_c, 2, 48, 80
5, 193439, Note_on_c, 2, 48, 0
5, 193440, Note_on_c, 2, 60, 80
5, 193440, Note_on_c, 2, 64, 80
5, 193440, Note_on_c, 2, 67, 80
5, 193679, Note_on_c, 2, 60, 0
5, 193679, Note_on_c, 2, 64, 0
5, 193679, Note_on_c, 2, 67, 0
5, 193680, Note_on_c, 2, 60, 80
5, 193680, Note_on_c, 2, 64, 80
5, 193680, Note_on_c, 2, 67, 80
5, 193919, Note_on_c, 2, 60, 0
5, 193919, Note_on_c, 2, 64, 0
5, 193919, Note_on_c, 2, 67, 0
5, 193920, Note_on_c, 2, 53, 80
5, 194399, Note_on_c, 2, 53, 0
5, 194400, Note_on_c, 2, 60, 80
5, 194400, Note_on_c, 2, 65, 80
5, 194400, Note_on_c, 2, 69, 80
5, 194879, Note_on_c, 2, 60, 0
5, 194879, Note_on_c, 2, 65, 0
5, 194879, Note_on_c, 2, 69, 0
5, 194880, Note_on_c, 2, 53, 80
5, 195359, Note_on_c, 2, 53, 0
5, 195360, Note_on_c, 2, 60, 80
5, 195360, Note_on_c, 2, 65, 80
5, 195360, Note_on_c, 2, 69, 80
5, 195599, Note_on_c, 2, 60, 0
5, 195599, Note_on_c, 2, 65, 0
5, 195599, Note_on_c, 2, 69, 0
5, 195600, Note_on_c, 2, 60, 80
5, 195600, Note_on_c, 2, 65, 80
5, 195600, Note_on_c, 2, 69, 80
5, 195839, Note_on_c, 2, 60, 0
5, 195839, Note_on_c, 2, 65, 0
5, 195839, Note_on_c, 2, 69, 0
5, 195840, Note_on_c, 2, 48, 80
5, 196319, Note_on_c, 2, 48, 0
5, 196320, Note_on_c, 2, 60, 80
5, 196320, Note_on_c, 2, 64, 80
5, 196320, Note_on_c, 2, 67, 80
5, 196799, Note_on_c, 2, 60, 0
5, 196799, Note_on_c, 2, 64, 0
5, 196799, Note_on_c, 2, 67, 0
5, 196800, Note_on_c, 2, 48, 80
5, 197279, Note_on_c, 2, 48, 0
5, 197280, Note_on_c, 2, 60, 80
5, 197280, Note_on_c, 2, 64, 80
5, 197280, Note_on_c, 2, 67, 80
5, 197519, Note_on_c, 2, 60, 0
5, 197519, Note_on_c, 2, 64, 0
5, 197519, Note_on_c, 2, 67, 0
5, 197520, Note_on_c, 2, 60, 80
5, 197520, Note_on_c, 2, 64, 80
5, 197520, Note_on_c, 2, 67, 80
5, 197759, Note_on_c, 2, 60, 0
5, 197759, Note_on_c, 2, 64, 0
5, 197759, Note_on_c, 2, 67, 0
5, 197760, Note_on_c, 2, 55, 80
5, 198239, Note_on_c, 2, 55, 0
5, 198240, Note_on_c, 2, 62, 80
5, 198240, Note_on_c, 2, 67, 80
5, 198240, Note_on_c, 2, 71, 80
5, 198719, Note_on_c, 2, 62, 0
5, 198719, Note_on_c, 2, 67, 0
5, 198719, Note_on_c, 2, 71, 0
5, 198720, Note_on_c, 2, 55, 80
5, 199199, Note_on_c, 2, 55, 0
5, 199200, Note_on_c, 2, 62, 80
5, 199200, Note_on_c, 2, 67, 80
5, 199200, Note_on_c, 2, 71, 80
5, 199439, Note_on_c, 2, 62, 0
5, 199439, Note_on_c, 2, 67, 0
5, 199439, Note_on_c, 2, 71, 0
5, 199440, Note_on_c, 2, 62, 80
5, 199440, Note_on_c, 2, 67, 80
5, 199440, Note_on_c, 2, 71, 80
5, 199679, Note_on_c, 2, 62, 0
5, 199679, Note_on_c, 2, 67, 0
5, 199679, Note_on_c, 2, 71, 0
5, 199680, Note_on_c, 2, 48, 80
5, 200159, Note_on_c, 2, 48, 0
5, 200160, Note_on_c, 2, 60, 80
5, 200160, Note_on_c, 2, 64, 80
5, 200160, Note_on_c, 2, 67, 80
5, 200639, Note_on_c, 2, 60, 0
5, 200639, Note_on_c, 2, 64, 0
5, 200639, Note_on_c, 2, 67, 0
5, 200640, Note_on_c, 2, 48, 80
5, 201119, Note_on_c, 2, 48, 0
5, 201120, Note_on_c, 2, 60, 80
5, 201120, Note_on_c, 2, 64, 80
5, 201120, Note_on_c, 2, 67, 80
5, 201599, Note_on_c, 2, 60, 0
5, 201599, Note_on_c, 2, 64, 0
5, 201599, Note_on_c, 2, 67, 0
5, 201600, Note_on_c, 2, 53, 80
5, 202079, Note_on_c, 2, 53, 0
5, 202080, Note_on_c, 2, 60, 80
5, 202080, Note_on_c, 2, 65, 80
5, 202080, Note_on_c, 2, 69, 80
5, 202559, Note_on_c, 2, 60, 0
5, 202559, Note_on_c, 2, 65, 0
5, 202559, Note_on_c, 2, 69, 0
5, 202560, Note_on_c, 2, 53, 80
5, 203039, Note_on_c, 2, 53, 0
5, 203040, Note_on_c, 2, 60, 80
5, 203040, Note_on_c, 2, 65, 80
5, 203040, Note_on_c, 2, 69, 80
5, 203519, Note_on_c, 2, 60, 0
5, 203519, Note_on_c, 2, 65, 0
5, 203519, Note_on_c, 2, 69, 0
5, 203520, Note_on_c, 2, 48, 80
5, 203999, Note_on_c, 2, 48, 0
5, 204000, Note_on_c, 2, 60, 80
5, 204000, Note_on_c, 2, 64, 80
5, 204000, Note_on_c, 2, 67, 80
5, 204479, Note_on_c, 2, 60, 0
5, 204479, Note_on_c, 2, 64, 0
5, 204479, Note_on_c, 2, 67, 0
5, 204480, Note_on_c, 2, 48, 80
5, 204959, Note_on_c, 2, 48, 0
5, 204960, Note_on_c, 2, 60, 80
5, 204960, Note_on_c, 2, 64, 80
5, 204960, Note_on_c, 2, 67, 80
5, 205439, Note_on_c, 2, 60, 0
5, 205439, Note_on_c, 2, 64, 0
5, 205439, Note_on_c, 2, 67, 0
5, 205440, Note_on_c, 2, 50, 80
5, 205440, Note_on_c, 2, 55, 80
5, 205919, Note_on_c, 2, 50, 0
5, 205919, Note_on_c, 2, 55, 0
5, 205920, Note_on_c, 2, 55, 80
5, 205920, Note_on_c, 2, 59, 80
5, 206399, Note_on_c, 2, 55, 0
5, 206399, Note_on_c, 2, 59, 0
5, 206400, Note_on_c, 2, 59, 80
5, 206400, Note_on_c, 2, 62, 80
5, 206879, Note_on_c, 2, 59, 0
5, 206879, Note_on_c, 2, 62, 0
5, 206880, Note_on_c, 2, 62, 80
5, 206880, Note_on_c, 2, 67, 80
5, 207359, Note_on_c, 2, 62, 0
5, 207359, Note_on_c, 2, 67, 0
5, 207360, Note_on_c, 2, 48, 80
5, 207839, Note_on_c, 2, 48, 0
5, 207840, Note_on_c, 2, 60, 80
5, 207840, Note_on_c, 2, 64, 80
5, 207840, Note_on_c, 2, 67, 80
5, 208319, Note_on_c, 2, 60, 0
5, 208319, Note_on_c, 2, 64, 0
5, 208319, Note_on_c, 2, 67, 0
5, 208320, Note_on_c, 2, 48, 80
5, 208799, Note_on_c, 2, 48, 0
5, 208800, Note_on_c, 2, 60, 80
5, 208800, Note_on_c, 2, 64, 80
5, 208800, Note_on_c, 2, 67, 80
5, 209039, Note_on_c, 2, 60, 0
5, 209039, Note_on_c, 2, 64, 0
5, 209039, Note_on_c, 2, 67, 0
5, 209040, Note_on_c, 2, 60, 80
5, 209040, Note_on_c, 2, 64, 80
5, 209040, Note_on_c, 2, 67, 80
5, 209279, Note_on_c, 2, 60, 0
5, 209279, Note_on_c, 2, 64, 0
5, 209279, Note_on_c, 2, 67, 0
5, 209280, Note_on_c, 2, 53, 80
5, 209759, Note_on_c, 2, 53, 0
5, 209760, Note_on_c, 2, 60, 80
5, 209760, Note_on_c, 2, 65, 80
5, 209760, Note_on_c, 2, 69, 80
5, 210239, Note_on_c, 2, 60, 0
5, 210239, Note_on_c, 2, 65, 0
5, 210239, Note_on_c, 2, 69, 0
5, 210240, Note_on_c, 2, 53, 80
5, 210719, Note_on_c, 2, 53, 0
5, 210720, Note_on_c, 2, 60, 80
5, 210720, Note_on_c, 2, 65, 80
5, 210720, Note_on_c, 2, 69, 80
5, 210959, Note_on_c, 2, 60, 0
5, 210959, Note_on_c, 2, 65, 0
5, 210959, Note_on_c, 2, 69, 0
5, 210960, Note_on_c, 2, 60, 80
5, 210960, Note_on_c, 2, 65, 80
5, 210960, Note_on_c, 2, 69, 80
5, 211199, Note_on_c, 2, 60, 0
5, 211199, Note_on_c, 2, 65, 0
5, 211199, Note_on_c, 2, 69, 0
5, 211200, Note_on_c, 2, 48, 80
5, 211679, Note_on_c, 2, 48, 0
5, 211680, Note_on_c, 2, 60, 80
5, 211680, Note_on_c, 2, 64, 80
5, 211680, Note_on_c, 2, 67, 80
5, 212159, Note_on_c, 2, 60, 0
5, 212159, Note_on_c, 2, 64, 0
5, 212159, Note_on_c, 2, 67, 0
5, 212160, Note_on_c, 2, 48, 80
5, 212639, Note_on_c, 2, 48, 0
5, 212640, Note_on_c, 2, 60, 80
5, 212640, Note_on_c, 2, 64, 80
5, 212640, Note_on_c, 2, 67, 80
5, 212879, Note_on_c, 2, 60, 0
5, 212879, Note_on_c, 2, 64, 0
5, 212879, Note_on_c, 2, 67, 0
5, 212880, Note_on_c, 2, 60, 80
5, 212880, Note_on_c, 2, 64, 80
5, 212880, Note_on_c, 2, 67, 80
5, 213119, Note_on_c, 2, 60, 0
5, 213119, Note_on_c, 2, 64, 0
5, 213119, Note_on_c, 2, 67, 0
5, 213120, Note_on_c, 2, 55, 80
5, 213599, Note_on_c, 2, 55, 0
5, 213600, Note_on_c, 2, 62, 80
5, 213600, Note_on_c, 2, 67, 80
5, 213600, Note_on_c, 2, 71, 80
5, 214079, Note_on_c, 2, 62, 0
5, 214079, Note_on_c, 2, 67, 0
5, 214079, Note_on_c, 2, 71, 0
5, 214080, Note_on_c, 2, 55, 80
5, 214559, Note_on_c, 2, 55, 0
5, 214560, Note_on_c, 2, 62, 80
5, 214590, Note_on_c, 2, 67, 80
5, 214620, Note_on_c, 2, 71, 80
5, 215039, Note_on_c, 2, 62, 0
5, 215039, Note_on_c, 2, 67, 0
5, 215039, Note_on_c, 2, 71, 0
5, 215040, End_track
0, 0, End_of_file
