0, 0, Header, 1, 5, 480
1, 0, Start_track
1, 0, Title_t, "Piano, Piano, Piano\000"
1, 0, Time_signature, 4, 2, 24, 8
1, 0, Key_signature, 0, "major"
1, 0, Tempo, 375000
1, 0, Control_c, 0, 121, 0
1, 0, Program_c, 0, 0
1, 0, Control_c, 0, 7, 111
1, 0, Control_c, 0, 10, 64
1, 0, Control_c, 0, 91, 0
1, 0, Control_c, 0, 93, 0
1, 0, MIDI_port, 0
1, 0, Note_on_c, 0, 74, 80
1, 911, Note_on_c, 0, 74, 0
1, 960, Note_on_c, 0, 74, 80
1, 1643, Note_on_c, 0, 74, 0
1, 1680, Note_on_c, 0, 72, 80
1, 1907, Note_on_c, 0, 72, 0
1, 1920, Note_on_c, 0, 74, 80
1, 2147, Note_on_c, 0, 74, 0
1, 2160, Note_on_c, 0, 76, 80
1, 2615, Note_on_c, 0, 76, 0
1, 2640, Note_on_c, 0, 69, 80
1, 3095, Note_on_c, 0, 69, 0
1, 3120, Note_on_c, 0, 72, 80
1, 3803, Note_on_c, 0, 72, 0
1, 3840, Note_on_c, 0, 74, 80
1, 4751, Note_on_c, 0, 74, 0
1, 4800, Note_on_c, 0, 74, 80
1, 5483, Note_on_c, 0, 74, 0
1, 5520, Note_on_c, 0, 72, 80
1, 5747, Note_on_c, 0, 72, 0
1, 5760, Note_on_c, 0, 74, 80
1, 5987, Note_on_c, 0, 74, 0
1, 6000, Note_on_c, 0, 76, 80
1, 6455, Note_on_c, 0, 76, 0
1, 6480, Note_on_c, 0, 69, 80
1, 6935, Note_on_c, 0, 69, 0
1, 6960, Note_on_c, 0, 72, 80
1, 7643, Note_on_c, 0, 72, 0
1, 7680, Note_on_c, 0, 79, 80
1, 7907, Note_on_c, 0, 79, 0
1, 7920, Note_on_c, 0, 76, 80
1, 8375, Note_on_c, 0, 76, 0
1, 8400, Note_on_c, 0, 74, 80
1, 8855, Note_on_c, 0, 74, 0
1, 8880, Note_on_c, 0, 72, 80
1, 9563, Note_on_c, 0, 72, 0
1, 9600, Note_on_c, 0, 79, 80
1, 9827, Note_on_c, 0, 79, 0
1, 9840, Note_on_c, 0, 76, 80
1, 10295, Note_on_c, 0, 76, 0
1, 10320, Note_on_c, 0, 74, 80
1, 10775, Note_on_c, 0, 74, 0
1, 10800, Note_on_c, 0, 72, 80
1, 11255, Note_on_c, 0, 72, 0
1, 11280, Note_on_c, 0, 74, 80
1, 14243, Note_on_c, 0, 74, 0
1, 14400, Note_on_c, 0, 69, 80
1, 14627, Note_on_c, 0, 69, 0
1, 14640, Note_on_c, 0, 67, 80
1, 14867, Note_on_c, 0, 67, 0
1, 14880, Note_on_c, 0, 69, 80
1, 15107, Note_on_c, 0, 69, 0
1, 15120, Note_on_c, 0, 67, 80
1, 15347, Note_on_c, 0, 67, 0
1, 15360, Note_on_c, 0, 69, 80
1, 18095, Note_on_c, 0, 69, 0
1, 18240, Note_on_c, 0, 69, 80
1, 18467, Note_on_c, 0, 69, 0
1, 18480, Note_on_c, 0, 67, 80
1, 18707, Note_on_c, 0, 67, 0
1, 18720, Note_on_c, 0, 69, 80
1, 18947, Note_on_c, 0, 69, 0
1, 18960, Note_on_c, 0, 67, 80
1, 19187, Note_on_c, 0, 67, 0
1, 19200, Note_on_c, 0, 72, 80
1, 19655, Note_on_c, 0, 72, 0
1, 19680, Note_on_c, 0, 67, 80
1, 19907, Note_on_c, 0, 67, 0
1, 19920, Note_on_c, 0, 67, 80
1, 20375, Note_on_c, 0, 67, 0
1, 20400, Note_on_c, 0, 69, 80
1, 20627, Note_on_c, 0, 69, 0
1, 20640, Note_on_c, 0, 64, 80
1, 21095, Note_on_c, 0, 64, 0
1, 22080, Note_on_c, 0, 69, 80
1, 22307, Note_on_c, 0, 69, 0
1, 22320, Note_on_c, 0, 67, 80
1, 22547, Note_on_c, 0, 67, 0
1, 22560, Note_on_c, 0, 69, 80
1, 22787, Note_on_c, 0, 69, 0
1, 22800, Note_on_c, 0, 67, 80
1, 23027, Note_on_c, 0, 67, 0
1, 23040, Note_on_c, 0, 71, 80
1, 23495, Note_on_c, 0, 71, 0
1, 23520, Note_on_c, 0, 67, 80
1, 23747, Note_on_c, 0, 67, 0
1, 23760, Note_on_c, 0, 67, 80
1, 24215, Note_on_c, 0, 67, 0
1, 24240, Note_on_c, 0, 69, 80
1, 24467, Note_on_c, 0, 69, 0
1, 24480, Note_on_c, 0, 60, 80
1, 24480, Note_on_c, 0, 64, 80
1, 24935, Note_on_c, 0, 60, 0
1, 24935, Note_on_c, 0, 64, 0
1, 25920, Note_on_c, 0, 67, 80
1, 26375, Note_on_c, 0, 67, 0
1, 26400, Note_on_c, 0, 69, 80
1, 26855, Note_on_c, 0, 69, 0
1, 26880, Note_on_c, 0, 64, 80
1, 27107, Note_on_c, 0, 64, 0
1, 27120, Note_on_c, 0, 62, 80
1, 27803, Note_on_c, 0, 62, 0
1, 29520, Note_on_c, 0, 67, 80
1, 29747, Note_on_c, 0, 67, 0
1, 29760, Note_on_c, 0, 69, 80
1, 29987, Note_on_c, 0, 69, 0
1, 30000, Note_on_c, 0, 67, 80
1, 30227, Note_on_c, 0, 67, 0
1, 30240, Note_on_c, 0, 69, 80
1, 30467, Note_on_c, 0, 69, 0
1, 30480, Note_on_c, 0, 67, 80
1, 30707, Note_on_c, 0, 67, 0
1, 30720, Note_on_c, 0, 69, 80
1, 33455, Note_on_c, 0, 69, 0
1, 33600, Note_on_c, 0, 69, 80
1, 33827, Note_on_c, 0, 69, 0
1, 33840, Note_on_c, 0, 67, 80
1, 34067, Note_on_c, 0, 67, 0
1, 34080, Note_on_c, 0, 69, 80
1, 34307, Note_on_c, 0, 69, 0
1, 34320, Note_on_c, 0, 67, 80
1, 34547, Note_on_c, 0, 67, 0
1, 34560, Note_on_c, 0, 72, 80
1, 35015, Note_on_c, 0, 72, 0
1, 35040, Note_on_c, 0, 67, 80
1, 35267, Note_on_c, 0, 67, 0
1, 35280, Note_on_c, 0, 67, 80
1, 35735, Note_on_c, 0, 67, 0
1, 35760, Note_on_c, 0, 69, 80
1, 35987, Note_on_c, 0, 69, 0
1, 36000, Note_on_c, 0, 64, 80
1, 37367, Note_on_c, 0, 64, 0
1, 37440, Note_on_c, 0, 69, 80
1, 37667, Note_on_c, 0, 69, 0
1, 37680, Note_on_c, 0, 67, 80
1, 37907, Note_on_c, 0, 67, 0
1, 37920, Note_on_c, 0, 69, 80
1, 38147, Note_on_c, 0, 69, 0
1, 38160, Note_on_c, 0, 67, 80
1, 38387, Note_on_c, 0, 67, 0
1, 38400, Note_on_c, 0, 72, 80
1, 38855, Note_on_c, 0, 72, 0
1, 38880, Note_on_c, 0, 67, 80
1, 39107, Note_on_c, 0, 67, 0
1, 39120, Note_on_c, 0, 67, 80
1, 39575, Note_on_c, 0, 67, 0
1, 39600, Note_on_c, 0, 69, 80
1, 39827, Note_on_c, 0, 69, 0
1, 39840, Note_on_c, 0, 64, 80
1, 41207, Note_on_c, 0, 64, 0
1, 41280, Note_on_c, 0, 67, 80
1, 41735, Note_on_c, 0, 67, 0
1, 41760, Note_on_c, 0, 69, 80
1, 42215, Note_on_c, 0, 69, 0
1, 42240, Note_on_c, 0, 62, 80
1, 44747, Note_on_c, 0, 62, 0
1, 44880, Note_on_c, 0, 67, 80
1, 45107, Note_on_c, 0, 67, 0
1, 45120, Note_on_c, 0, 69, 80
1, 45347, Note_on_c, 0, 69, 0
1, 45360, Note_on_c, 0, 67, 80
1, 45587, Note_on_c, 0, 67, 0
1, 45600, Note_on_c, 0, 69, 80
1, 45827, Note_on_c, 0, 69, 0
1, 45840, Note_on_c, 0, 67, 80
1, 46067, Note_on_c, 0, 67, 0
1, 46080, Note_on_c, 0, 67, 80
1, 46535, Note_on_c, 0, 67, 0
1, 46560, Note_on_c, 0, 69, 80
1, 47015, Note_on_c, 0, 69, 0
1, 47040, Note_on_c, 0, 72, 80
1, 47267, Note_on_c, 0, 72, 0
1, 47280, Note_on_c, 0, 74, 80
1, 47735, Note_on_c, 0, 74, 0
1, 47760, Note_on_c, 0, 76, 80
1, 48215, Note_on_c, 0, 76, 0
1, 48240, Note_on_c, 0, 69, 80
1, 48695, Note_on_c, 0, 69, 0
1, 48720, Note_on_c, 0, 72, 80
1, 49175, Note_on_c, 0, 72, 0
1, 49200, Note_on_c, 0, 74, 80
1, 49883, Note_on_c, 0, 74, 0
1, 49920, Note_on_c, 0, 69, 80
1, 50375, Note_on_c, 0, 69, 0
1, 50400, Note_on_c, 0, 69, 80
1, 50855, Note_on_c, 0, 69, 0
1, 50880, Note_on_c, 0, 72, 80
1, 51107, Note_on_c, 0, 72, 0
1, 51120, Note_on_c, 0, 74, 80
1, 51575, Note_on_c, 0, 74, 0
1, 51600, Note_on_c, 0, 76, 80
1, 52055, Note_on_c, 0, 76, 0
1, 52080, Note_on_c, 0, 69, 80
1, 52535, Note_on_c, 0, 69, 0
1, 52560, Note_on_c, 0, 72, 80
1, 53015, Note_on_c, 0, 72, 0
1, 53040, Note_on_c, 0, 74, 80
1, 53723, Note_on_c, 0, 74, 0
1, 53760, Note_on_c, 0, 67, 80
1, 54215, Note_on_c, 0, 67, 0
1, 54240, Note_on_c, 0, 69, 80
1, 54695, Note_on_c, 0, 69, 0
1, 54720, Note_on_c, 0, 72, 80
1, 54947, Note_on_c, 0, 72, 0
1, 54960, Note_on_c, 0, 74, 80
1, 55415, Note_on_c, 0, 74, 0
1, 55440, Note_on_c, 0, 76, 80
1, 55895, Note_on_c, 0, 76, 0
1, 55920, Note_on_c, 0, 69, 80
1, 56375, Note_on_c, 0, 69, 0
1, 56400, Note_on_c, 0, 72, 80
1, 56855, Note_on_c, 0, 72, 0
1, 56880, Note_on_c, 0, 74, 80
1, 57239, Note_on_c, 0, 74, 0
1, 57600, Note_on_c, 0, 71, 80
1, 58511, Note_on_c, 0, 71, 0
1, 58560, Note_on_c, 0, 69, 80
1, 59471, Note_on_c, 0, 69, 0
1, 59520, Note_on_c, 0, 67, 80
1, 60203, Note_on_c, 0, 67, 0
1, 60240, Note_on_c, 0, 81, 80
1, 60695, Note_on_c, 0, 81, 0
1, 60720, Note_on_c, 0, 72, 80
1, 60947, Note_on_c, 0, 72, 0
1, 61440, Note_on_c, 0, 69, 80
1, 61440, Note_on_c, 0, 74, 80
1, 64175, Note_on_c, 0, 69, 0
1, 64175, Note_on_c, 0, 74, 0
1, 64560, Note_on_c, 0, 69, 80
1, 64560, Note_on_c, 0, 74, 80
1, 64787, Note_on_c, 0, 69, 0
1, 64787, Note_on_c, 0, 74, 0
1, 64800, Note_on_c, 0, 69, 80
1, 64800, Note_on_c, 0, 76, 80
1, 65255, Note_on_c, 0, 69, 0
1, 65255, Note_on_c, 0, 76, 0
1, 65280, Note_on_c, 0, 69, 80
1, 65280, Note_on_c, 0, 74, 80
1, 65735, Note_on_c, 0, 69, 0
1, 65735, Note_on_c, 0, 74, 0
1, 65760, Note_on_c, 0, 69, 80
1, 65760, Note_on_c, 0, 72, 80
1, 65987, Note_on_c, 0, 69, 0
1, 65987, Note_on_c, 0, 72, 0
1, 66000, Note_on_c, 0, 69, 80
1, 66000, Note_on_c, 0, 72, 80
1, 66455, Note_on_c, 0, 69, 0
1, 66455, Note_on_c, 0, 72, 0
1, 66480, Note_on_c, 0, 69, 80
1, 66935, Note_on_c, 0, 69, 0
1, 66960, Note_on_c, 0, 69, 80
1, 66960, Note_on_c, 0, 72, 80
1, 67415, Note_on_c, 0, 69, 0
1, 67415, Note_on_c, 0, 72, 0
1, 67440, Note_on_c, 0, 69, 80
1, 68351, Note_on_c, 0, 69, 0
1, 68400, Note_on_c, 0, 69, 80
1, 68400, Note_on_c, 0, 72, 80
1, 69083, Note_on_c, 0, 69, 0
1, 69083, Note_on_c, 0, 72, 0
1, 69120, Note_on_c, 0, 72, 80
1, 69120, Note_on_c, 0, 79, 80
1, 69347, Note_on_c, 0, 72, 0
1, 69347, Note_on_c, 0, 79, 0
1, 69360, Note_on_c, 0, 72, 80
1, 69360, Note_on_c, 0, 76, 80
1, 69815, Note_on_c, 0, 72, 0
1, 69815, Note_on_c, 0, 76, 0
1, 69840, Note_on_c, 0, 67, 80
1, 69840, Note_on_c, 0, 74, 80
1, 70295, Note_on_c, 0, 67, 0
1, 70295, Note_on_c, 0, 74, 0
1, 70320, Note_on_c, 0, 67, 80
1, 70320, Note_on_c, 0, 72, 80
1, 71003, Note_on_c, 0, 67, 0
1, 71003, Note_on_c, 0, 72, 0
1, 71040, Note_on_c, 0, 72, 80
1, 71040, Note_on_c, 0, 79, 80
1, 71267, Note_on_c, 0, 72, 0
1, 71267, Note_on_c, 0, 79, 0
1, 71280, Note_on_c, 0, 72, 80
1, 71280, Note_on_c, 0, 76, 80
1, 71735, Note_on_c, 0, 72, 0
1, 71735, Note_on_c, 0, 76, 0
1, 71760, Note_on_c, 0, 67, 80
1, 71760, Note_on_c, 0, 74, 80
1, 72215, Note_on_c, 0, 67, 0
1, 72215, Note_on_c, 0, 74, 0
1, 72240, Note_on_c, 0, 67, 80
1, 72240, Note_on_c, 0, 72, 80
1, 72695, Note_on_c, 0, 67, 0
1, 72695, Note_on_c, 0, 72, 0
1, 72720, Note_on_c, 0, 71, 80
1, 72720, Note_on_c, 0, 74, 80
1, 72947, Note_on_c, 0, 71, 0
1, 72947, Note_on_c, 0, 74, 0
1, 75600, Note_on_c, 0, 67, 80
1, 75600, Note_on_c, 0, 76, 80
1, 76055, Note_on_c, 0, 67, 0
1, 76055, Note_on_c, 0, 76, 0
1, 76080, Note_on_c, 0, 67, 80
1, 76080, Note_on_c, 0, 72, 80
1, 76439, Note_on_c, 0, 67, 0
1, 76439, Note_on_c, 0, 72, 0
1, 76800, Note_on_c, 0, 69, 80
1, 76800, Note_on_c, 0, 74, 80
1, 79535, Note_on_c, 0, 69, 0
1, 79535, Note_on_c, 0, 74, 0
1, 79920, Note_on_c, 0, 69, 80
1, 79920, Note_on_c, 0, 74, 80
1, 80147, Note_on_c, 0, 69, 0
1, 80147, Note_on_c, 0, 74, 0
1, 80160, Note_on_c, 0, 69, 80
1, 80160, Note_on_c, 0, 76, 80
1, 80615, Note_on_c, 0, 69, 0
1, 80615, Note_on_c, 0, 76, 0
1, 80640, Note_on_c, 0, 69, 80
1, 80640, Note_on_c, 0, 74, 80
1, 81095, Note_on_c, 0, 69, 0
1, 81095, Note_on_c, 0, 74, 0
1, 81120, Note_on_c, 0, 69, 80
1, 81120, Note_on_c, 0, 72, 80
1, 81347, Note_on_c, 0, 69, 0
1, 81347, Note_on_c, 0, 72, 0
1, 81360, Note_on_c, 0, 69, 80
1, 81360, Note_on_c, 0, 72, 80
1, 81815, Note_on_c, 0, 69, 0
1, 81815, Note_on_c, 0, 72, 0
1, 81840, Note_on_c, 0, 64, 80
1, 81840, Note_on_c, 0, 69, 80
1, 82295, Note_on_c, 0, 64, 0
1, 82295, Note_on_c, 0, 69, 0
1, 82320, Note_on_c, 0, 69, 80
1, 82320, Note_on_c, 0, 72, 80
1, 82775, Note_on_c, 0, 69, 0
1, 82775, Note_on_c, 0, 72, 0
1, 82800, Note_on_c, 0, 64, 80
1, 82800, Note_on_c, 0, 69, 80
1, 83711, Note_on_c, 0, 64, 0
1, 83711, Note_on_c, 0, 69, 0
1, 83760, Note_on_c, 0, 69, 80
1, 83760, Note_on_c, 0, 72, 80
1, 84443, Note_on_c, 0, 69, 0
1, 84443, Note_on_c, 0, 72, 0
1, 84480, Note_on_c, 0, 72, 80
1, 84480, Note_on_c, 0, 79, 80
1, 84707, Note_on_c, 0, 72, 0
1, 84707, Note_on_c, 0, 79, 0
1, 84720, Note_on_c, 0, 72, 80
1, 84720, Note_on_c, 0, 76, 80
1, 85175, Note_on_c, 0, 72, 0
1, 85175, Note_on_c, 0, 76, 0
1, 85200, Note_on_c, 0, 67, 80
1, 85200, Note_on_c, 0, 74, 80
1, 85655, Note_on_c, 0, 67, 0
1, 85655, Note_on_c, 0, 74, 0
1, 85680, Note_on_c, 0, 67, 80
1, 85680, Note_on_c, 0, 72, 80
1, 86363, Note_on_c, 0, 67, 0
1, 86363, Note_on_c, 0, 72, 0
1, 86400, Note_on_c, 0, 72, 80
1, 86400, Note_on_c, 0, 79, 80
1, 86627, Note_on_c, 0, 72, 0
1, 86627, Note_on_c, 0, 79, 0
1, 86640, Note_on_c, 0, 72, 80
1, 86640, Note_on_c, 0, 76, 80
1, 87095, Note_on_c, 0, 72, 0
1, 87095, Note_on_c, 0, 76, 0
1, 87120, Note_on_c, 0, 67, 80
1, 87120, Note_on_c, 0, 74, 80
1, 87575, Note_on_c, 0, 67, 0
1, 87575, Note_on_c, 0, 74, 0
1, 87600, Note_on_c, 0, 67, 80
1, 87600, Note_on_c, 0, 72, 80
1, 88055, Note_on_c, 0, 67, 0
1, 88055, Note_on_c, 0, 72, 0
1, 88080, Note_on_c, 0, 71, 80
1, 88080, Note_on_c, 0, 74, 80
1, 88991, Note_on_c, 0, 71, 0
1, 88991, Note_on_c, 0, 74, 0
1, 89040, Note_on_c, 0, 71, 80
1, 89040, Note_on_c, 0, 74, 80
1, 90065, Note_on_c, 0, 71, 0
1, 90065, Note_on_c, 0, 74, 0
1, 91200, Note_on_c, 0, 79, 80
1, 91427, Note_on_c, 0, 79, 0
1, 91440, Note_on_c, 0, 76, 80
1, 91667, Note_on_c, 0, 76, 0
1, 91680, Note_on_c, 0, 79, 80
1, 91907, Note_on_c, 0, 79, 0
1, 91920, Note_on_c, 0, 76, 80
1, 92147, Note_on_c, 0, 76, 0
1, 92160, Note_on_c, 0, 81, 80
1, 92615, Note_on_c, 0, 81, 0
1, 92640, Note_on_c, 0, 76, 80
1, 92867, Note_on_c, 0, 76, 0
1, 92880, Note_on_c, 0, 76, 80
1, 93335, Note_on_c, 0, 76, 0
1, 93360, Note_on_c, 0, 74, 80
1, 93587, Note_on_c, 0, 74, 0
1, 93600, Note_on_c, 0, 74, 80
1, 94967, Note_on_c, 0, 74, 0
1, 95040, Note_on_c, 0, 79, 80
1, 95267, Note_on_c, 0, 79, 0
1, 95280, Note_on_c, 0, 76, 80
1, 95507, Note_on_c, 0, 76, 0
1, 95520, Note_on_c, 0, 79, 80
1, 95747, Note_on_c, 0, 79, 0
1, 95760, Note_on_c, 0, 76, 80
1, 95987, Note_on_c, 0, 76, 0
1, 96000, Note_on_c, 0, 81, 80
1, 96455, Note_on_c, 0, 81, 0
1, 96480, Note_on_c, 0, 76, 80
1, 96707, Note_on_c, 0, 76, 0
1, 96720, Note_on_c, 0, 76, 80
1, 97175, Note_on_c, 0, 76, 0
1, 97200, Note_on_c, 0, 74, 80
1, 97427, Note_on_c, 0, 74, 0
1, 97440, Note_on_c, 0, 74, 80
1, 97667, Note_on_c, 0, 74, 0
1, 97680, Note_on_c, 0, 72, 80
1, 98135, Note_on_c, 0, 72, 0
1, 98160, Note_on_c, 0, 69, 80
1, 99185, Note_on_c, 0, 69, 0
1, 99360, Note_on_c, 0, 79, 80
1, 99815, Note_on_c, 0, 79, 0
1, 99840, Note_on_c, 0, 81, 80
1, 100295, Note_on_c, 0, 81, 0
1, 100320, Note_on_c, 0, 76, 80
1, 100547, Note_on_c, 0, 76, 0
1, 100560, Note_on_c, 0, 76, 80
1, 101015, Note_on_c, 0, 76, 0
1, 101040, Note_on_c, 0, 74, 80
1, 101267, Note_on_c, 0, 74, 0
1, 101280, Note_on_c, 0, 76, 80
1, 102647, Note_on_c, 0, 76, 0
1, 102720, Note_on_c, 0, 79, 80
1, 103175, Note_on_c, 0, 79, 0
1, 103200, Note_on_c, 0, 79, 80
1, 103883, Note_on_c, 0, 79, 0
1, 103920, Note_on_c, 0, 77, 80
1, 104147, Note_on_c, 0, 77, 0
1, 104160, Note_on_c, 0, 76, 80
1, 104387, Note_on_c, 0, 76, 0
1, 104400, Note_on_c, 0, 74, 80
1, 105083, Note_on_c, 0, 74, 0
1, 105120, Note_on_c, 0, 76, 80
1, 106259, Note_on_c, 0, 76, 0
1, 106320, Note_on_c, 0, 76, 80
1, 106775, Note_on_c, 0, 76, 0
1, 106800, Note_on_c, 0, 72, 80
1, 107027, Note_on_c, 0, 72, 0
1, 107340, Note_on_c, 0, 62, 80
1, 107396, Note_on_c, 0, 62, 0
1, 107400, Note_on_c, 0, 65, 80
1, 107456, Note_on_c, 0, 65, 0
1, 107460, Note_on_c, 0, 69, 80
1, 107516, Note_on_c, 0, 69, 0
1, 107520, Note_on_c, 0, 74, 80
1, 110255, Note_on_c, 0, 74, 0
1, 110640, Note_on_c, 0, 74, 80
1, 110867, Note_on_c, 0, 74, 0
1, 110880, Note_on_c, 0, 76, 80
1, 110999, Note_on_c, 0, 76, 0
1, 111180, Note_on_c, 0, 60, 80
1, 111236, Note_on_c, 0, 60, 0
1, 111240, Note_on_c, 0, 64, 80
1, 111296, Note_on_c, 0, 64, 0
1, 111300, Note_on_c, 0, 69, 80
1, 111356, Note_on_c, 0, 69, 0
1, 111360, Note_on_c, 0, 74, 80
1, 111815, Note_on_c, 0, 74, 0
1, 111840, Note_on_c, 0, 72, 80
1, 112067, Note_on_c, 0, 72, 0
1, 112080, Note_on_c, 0, 72, 80
1, 112535, Note_on_c, 0, 72, 0
1, 112560, Note_on_c, 0, 69, 80
1, 112787, Note_on_c, 0, 69, 0
1, 112800, Note_on_c, 0, 72, 80
1, 113483, Note_on_c, 0, 72, 0
1, 113520, Note_on_c, 0, 69, 80
1, 114431, Note_on_c, 0, 69, 0
1, 114480, Note_on_c, 0, 72, 80
1, 114707, Note_on_c, 0, 72, 0
1, 115020, Note_on_c, 0, 64, 80
1, 115076, Note_on_c, 0, 64, 0
1, 115080, Note_on_c, 0, 67, 80
1, 115136, Note_on_c, 0, 67, 0
1, 115140, Note_on_c, 0, 72, 80
1, 115196, Note_on_c, 0, 72, 0
1, 115200, Note_on_c, 0, 79, 80
1, 115427, Note_on_c, 0, 79, 0
1, 115440, Note_on_c, 0, 76, 80
1, 115895, Note_on_c, 0, 76, 0
1, 115920, Note_on_c, 0, 74, 80
1, 116375, Note_on_c, 0, 74, 0
1, 116400, Note_on_c, 0, 72, 80
1, 117083, Note_on_c, 0, 72, 0
1, 117120, Note_on_c, 0, 79, 80
1, 117347, Note_on_c, 0, 79, 0
1, 117360, Note_on_c, 0, 76, 80
1, 117815, Note_on_c, 0, 76, 0
1, 117840, Note_on_c, 0, 74, 80
1, 118295, Note_on_c, 0, 74, 0
1, 118320, Note_on_c, 0, 72, 80
1, 119459, Note_on_c, 0, 72, 0
1, 119520, Note_on_c, 0, 74, 80
1, 121571, Note_on_c, 0, 74, 0
1, 121680, Note_on_c, 0, 76, 80
1, 122135, Note_on_c, 0, 76, 0
1, 122160, Note_on_c, 0, 72, 80
1, 122279, Note_on_c, 0, 72, 0
1, 122700, Note_on_c, 0, 62, 80
1, 122756, Note_on_c, 0, 62, 0
1, 122760, Note_on_c, 0, 65, 80
1, 122816, Note_on_c, 0, 65, 0
1, 122820, Note_on_c, 0, 69, 80
1, 122876, Note_on_c, 0, 69, 0
1, 122880, Note_on_c, 0, 74, 80
1, 125615, Note_on_c, 0, 74, 0
1, 126000, Note_on_c, 0, 74, 80
1, 126227, Note_on_c, 0, 74, 0
1, 126240, Note_on_c, 0, 76, 80
1, 126467, Note_on_c, 0, 76, 0
1, 126540, Note_on_c, 0, 60, 80
1, 126596, Note_on_c, 0, 60, 0
1, 126600, Note_on_c, 0, 64, 80
1, 126656, Note_on_c, 0, 64, 0
1, 126660, Note_on_c, 0, 69, 80
1, 126716, Note_on_c, 0, 69, 0
1, 126720, Note_on_c, 0, 74, 80
1, 127175, Note_on_c, 0, 74, 0
1, 127200, Note_on_c, 0, 72, 80
1, 127427, Note_on_c, 0, 72, 0
1, 127440, Note_on_c, 0, 72, 80
1, 127895, Note_on_c, 0, 72, 0
1, 127920, Note_on_c, 0, 69, 80
1, 128147, Note_on_c, 0, 69, 0
1, 128160, Note_on_c, 0, 72, 80
1, 128843, Note_on_c, 0, 72, 0
1, 128880, Note_on_c, 0, 69, 80
1, 129791, Note_on_c, 0, 69, 0
1, 129840, Note_on_c, 0, 72, 80
1, 130067, Note_on_c, 0, 72, 0
1, 130380, Note_on_c, 0, 64, 80
1, 130436, Note_on_c, 0, 64, 0
1, 130440, Note_on_c, 0, 67, 80
1, 130496, Note_on_c, 0, 67, 0
1, 130500, Note_on_c, 0, 72, 80
1, 130556, Note_on_c, 0, 72, 0
1, 130560, Note_on_c, 0, 79, 80
1, 130787, Note_on_c, 0, 79, 0
1, 130800, Note_on_c, 0, 76, 80
1, 131255, Note_on_c, 0, 76, 0
1, 131280, Note_on_c, 0, 74, 80
1, 131735, Note_on_c, 0, 74, 0
1, 131760, Note_on_c, 0, 72, 80
1, 132443, Note_on_c, 0, 72, 0
1, 132480, Note_on_c, 0, 79, 80
1, 132707, Note_on_c, 0, 79, 0
1, 132720, Note_on_c, 0, 76, 80
1, 133175, Note_on_c, 0, 76, 0
1, 133200, Note_on_c, 0, 74, 80
1, 133655, Note_on_c, 0, 74, 0
1, 133680, Note_on_c, 0, 72, 80
1, 134819, Note_on_c, 0, 72, 0
1, 134880, Note_on_c, 0, 74, 80
1, 137159, Note_on_c, 0, 74, 0
1, 137160, End_track
2, 0, Start_track
2, 0, Title_t, "Piano, Piano, Piano\000"
2, 0, Key_signature, 0, "major"
2, 0, MIDI_port, 0
2, 0, Note_on_c, 0, 53, 80
2, 0, Note_on_c, 0, 62, 80
2, 0, Note_on_c, 0, 57, 80
2, 1823, Note_on_c, 0, 57, 0
2, 3647, Note_on_c, 0, 53, 0
2, 3647, Note_on_c, 0, 62, 0
2, 3840, Note_on_c, 0, 52, 80
2, 3840, Note_on_c, 0, 57, 80
2, 3840, Note_on_c, 0, 60, 80
2, 7487, Note_on_c, 0, 52, 0
2, 7487, Note_on_c, 0, 57, 0
2, 7487, Note_on_c, 0, 60, 0
2, 7680, Note_on_c, 0, 52, 80
2, 7680, Note_on_c, 0, 55, 80
2, 7680, Note_on_c, 0, 60, 80
2, 11327, Note_on_c, 0, 52, 0
2, 11327, Note_on_c, 0, 55, 0
2, 11327, Note_on_c, 0, 60, 0
2, 11520, Note_on_c, 0, 50, 80
2, 11520, Note_on_c, 0, 55, 80
2, 11520, Note_on_c, 0, 59, 80
2, 15167, Note_on_c, 0, 50, 0
2, 15167, Note_on_c, 0, 55, 0
2, 15167, Note_on_c, 0, 59, 0
2, 15360, Note_on_c, 0, 50, 80
2, 15360, Note_on_c, 0, 53, 80
2, 15360, Note_on_c, 0, 57, 80
2, 16271, Note_on_c, 0, 50, 0
2, 16271, Note_on_c, 0, 53, 0
2, 16271, Note_on_c, 0, 57, 0
2, 16320, Note_on_c, 0, 50, 80
2, 16320, Note_on_c, 0, 53, 80
2, 16320, Note_on_c, 0, 57, 80
2, 17231, Note_on_c, 0, 50, 0
2, 17231, Note_on_c, 0, 53, 0
2, 17231, Note_on_c, 0, 57, 0
2, 17280, Note_on_c, 0, 50, 80
2, 17280, Note_on_c, 0, 53, 80
2, 17280, Note_on_c, 0, 57, 80
2, 18191, Note_on_c, 0, 50, 0
2, 18191, Note_on_c, 0, 53, 0
2, 18191, Note_on_c, 0, 57, 0
2, 18240, Note_on_c, 0, 50, 80
2, 18240, Note_on_c, 0, 53, 80
2, 18240, Note_on_c, 0, 57, 80
2, 19151, Note_on_c, 0, 50, 0
2, 19151, Note_on_c, 0, 53, 0
2, 19151, Note_on_c, 0, 57, 0
2, 19200, Note_on_c, 0, 52, 80
2, 19200, Note_on_c, 0, 57, 80
2, 19200, Note_on_c, 0, 60, 80
2, 20111, Note_on_c, 0, 52, 0
2, 20111, Note_on_c, 0, 57, 0
2, 20111, Note_on_c, 0, 60, 0
2, 20160, Note_on_c, 0, 52, 80
2, 20160, Note_on_c, 0, 57, 80
2, 20160, Note_on_c, 0, 60, 80
2, 21071, Note_on_c, 0, 52, 0
2, 21071, Note_on_c, 0, 57, 0
2, 21071, Note_on_c, 0, 60, 0
2, 21120, Note_on_c, 0, 52, 80
2, 21120, Note_on_c, 0, 57, 80
2, 21120, Note_on_c, 0, 60, 80
2, 22031, Note_on_c, 0, 52, 0
2, 22031, Note_on_c, 0, 57, 0
2, 22031, Note_on_c, 0, 60, 0
2, 22080, Note_on_c, 0, 52, 80
2, 22080, Note_on_c, 0, 57, 80
2, 22080, Note_on_c, 0, 60, 80
2, 22991, Note_on_c, 0, 52, 0
2, 22991, Note_on_c, 0, 57, 0
2, 22991, Note_on_c, 0, 60, 0
2, 23040, Note_on_c, 0, 52, 80
2, 23040, Note_on_c, 0, 55, 80
2, 23040, Note_on_c, 0, 60, 80
2, 23951, Note_on_c, 0, 52, 0
2, 23951, Note_on_c, 0, 55, 0
2, 23951, Note_on_c, 0, 60, 0
2, 24000, Note_on_c, 0, 60, 80
2, 24000, Note_on_c, 0, 52, 80
2, 24000, Note_on_c, 0, 55, 80
2, 24455, Note_on_c, 0, 60, 0
2, 24911, Note_on_c, 0, 52, 0
2, 24911, Note_on_c, 0, 55, 0
2, 24960, Note_on_c, 0, 52, 80
2, 24960, Note_on_c, 0, 55, 80
2, 24960, Note_on_c, 0, 60, 80
2, 25871, Note_on_c, 0, 52, 0
2, 25871, Note_on_c, 0, 55, 0
2, 25871, Note_on_c, 0, 60, 0
2, 25920, Note_on_c, 0, 52, 80
2, 25920, Note_on_c, 0, 55, 80
2, 25920, Note_on_c, 0, 60, 80
2, 26831, Note_on_c, 0, 52, 0
2, 26831, Note_on_c, 0, 55, 0
2, 26831, Note_on_c, 0, 60, 0
2, 26880, Note_on_c, 0, 50, 80
2, 26880, Note_on_c, 0, 55, 80
2, 26880, Note_on_c, 0, 59, 80
2, 27791, Note_on_c, 0, 50, 0
2, 27791, Note_on_c, 0, 55, 0
2, 27791, Note_on_c, 0, 59, 0
2, 27840, Note_on_c, 0, 50, 80
2, 27840, Note_on_c, 0, 55, 80
2, 27840, Note_on_c, 0, 59, 80
2, 28751, Note_on_c, 0, 50, 0
2, 28751, Note_on_c, 0, 55, 0
2, 28751, Note_on_c, 0, 59, 0
2, 28800, Note_on_c, 0, 50, 80
2, 28800, Note_on_c, 0, 55, 80
2, 28800, Note_on_c, 0, 59, 80
2, 29711, Note_on_c, 0, 50, 0
2, 29711, Note_on_c, 0, 55, 0
2, 29711, Note_on_c, 0, 59, 0
2, 29760, Note_on_c, 0, 50, 80
2, 29760, Note_on_c, 0, 55, 80
2, 29760, Note_on_c, 0, 59, 80
2, 30671, Note_on_c, 0, 50, 0
2, 30671, Note_on_c, 0, 55, 0
2, 30671, Note_on_c, 0, 59, 0
2, 30720, Note_on_c, 0, 50, 80
2, 30720, Note_on_c, 0, 53, 80
2, 30720, Note_on_c, 0, 57, 80
2, 31631, Note_on_c, 0, 50, 0
2, 31631, Note_on_c, 0, 53, 0
2, 31631, Note_on_c, 0, 57, 0
2, 31680, Note_on_c, 0, 50, 80
2, 31680, Note_on_c, 0, 53, 80
2, 31680, Note_on_c, 0, 57, 80
2, 32591, Note_on_c, 0, 50, 0
2, 32591, Note_on_c, 0, 53, 0
2, 32591, Note_on_c, 0, 57, 0
2, 32640, Note_on_c, 0, 50, 80
2, 32640, Note_on_c, 0, 53, 80
2, 32640, Note_on_c, 0, 57, 80
2, 33551, Note_on_c, 0, 50, 0
2, 33551, Note_on_c, 0, 53, 0
2, 33551, Note_on_c, 0, 57, 0
2, 33600, Note_on_c, 0, 50, 80
2, 33600, Note_on_c, 0, 53, 80
2, 33600, Note_on_c, 0, 57, 80
2, 34511, Note_on_c, 0, 50, 0
2, 34511, Note_on_c, 0, 53, 0
2, 34511, Note_on_c, 0, 57, 0
2, 34560, Note_on_c, 0, 52, 80
2, 34560, Note_on_c, 0, 57, 80
2, 34560, Note_on_c, 0, 60, 80
2, 35471, Note_on_c, 0, 52, 0
2, 35471, Note_on_c, 0, 57, 0
2, 35471, Note_on_c, 0, 60, 0
2, 35520, Note_on_c, 0, 52, 80
2, 35520, Note_on_c, 0, 57, 80
2, 35520, Note_on_c, 0, 60, 80
2, 36431, Note_on_c, 0, 52, 0
2, 36431, Note_on_c, 0, 57, 0
2, 36431, Note_on_c, 0, 60, 0
2, 36480, Note_on_c, 0, 52, 80
2, 36480, Note_on_c, 0, 57, 80
2, 36480, Note_on_c, 0, 60, 80
2, 37391, Note_on_c, 0, 52, 0
2, 37391, Note_on_c, 0, 57, 0
2, 37391, Note_on_c, 0, 60, 0
2, 37440, Note_on_c, 0, 52, 80
2, 37440, Note_on_c, 0, 57, 80
2, 37440, Note_on_c, 0, 60, 80
2, 38351, Note_on_c, 0, 52, 0
2, 38351, Note_on_c, 0, 57, 0
2, 38351, Note_on_c, 0, 60, 0
2, 38400, Note_on_c, 0, 52, 80
2, 38400, Note_on_c, 0, 55, 80
2, 38400, Note_on_c, 0, 60, 80
2, 39311, Note_on_c, 0, 52, 0
2, 39311, Note_on_c, 0, 55, 0
2, 39311, Note_on_c, 0, 60, 0
2, 39360, Note_on_c, 0, 52, 80
2, 39360, Note_on_c, 0, 55, 80
2, 39360, Note_on_c, 0, 60, 80
2, 40271, Note_on_c, 0, 52, 0
2, 40271, Note_on_c, 0, 55, 0
2, 40271, Note_on_c, 0, 60, 0
2, 40320, Note_on_c, 0, 52, 80
2, 40320, Note_on_c, 0, 55, 80
2, 40320, Note_on_c, 0, 60, 80
2, 41231, Note_on_c, 0, 52, 0
2, 41231, Note_on_c, 0, 55, 0
2, 41231, Note_on_c, 0, 60, 0
2, 41280, Note_on_c, 0, 52, 80
2, 41280, Note_on_c, 0, 55, 80
2, 41280, Note_on_c, 0, 60, 80
2, 42191, Note_on_c, 0, 52, 0
2, 42191, Note_on_c, 0, 55, 0
2, 42191, Note_on_c, 0, 60, 0
2, 42240, Note_on_c, 0, 50, 80
2, 42240, Note_on_c, 0, 55, 80
2, 42240, Note_on_c, 0, 59, 80
2, 43151, Note_on_c, 0, 50, 0
2, 43151, Note_on_c, 0, 55, 0
2, 43151, Note_on_c, 0, 59, 0
2, 43200, Note_on_c, 0, 50, 80
2, 43200, Note_on_c, 0, 55, 80
2, 43200, Note_on_c, 0, 59, 80
2, 44111, Note_on_c, 0, 50, 0
2, 44111, Note_on_c, 0, 55, 0
2, 44111, Note_on_c, 0, 59, 0
2, 44160, Note_on_c, 0, 55, 80
2, 44160, Note_on_c, 0, 59, 80
2, 44843, Note_on_c, 0, 55, 0
2, 44843, Note_on_c, 0, 59, 0
2, 44880, Note_on_c, 0, 53, 80
2, 44880, Note_on_c, 0, 57, 80
2, 45563, Note_on_c, 0, 53, 0
2, 45563, Note_on_c, 0, 57, 0
2, 45600, Note_on_c, 0, 52, 80
2, 45600, Note_on_c, 0, 55, 80
2, 45839, Note_on_c, 0, 52, 0
2, 45839, Note_on_c, 0, 55, 0
2, 46080, Note_on_c, 0, 50, 80
2, 46080, Note_on_c, 0, 57, 80
2, 46763, Note_on_c, 0, 50, 0
2, 46763, Note_on_c, 0, 57, 0
2, 46800, Note_on_c, 0, 50, 80
2, 46800, Note_on_c, 0, 57, 80
2, 47483, Note_on_c, 0, 50, 0
2, 47483, Note_on_c, 0, 57, 0
2, 47520, Note_on_c, 0, 50, 80
2, 47520, Note_on_c, 0, 57, 80
2, 47975, Note_on_c, 0, 50, 0
2, 47975, Note_on_c, 0, 57, 0
2, 48000, Note_on_c, 0, 50, 80
2, 48000, Note_on_c, 0, 57, 80
2, 48683, Note_on_c, 0, 50, 0
2, 48683, Note_on_c, 0, 57, 0
2, 48720, Note_on_c, 0, 50, 80
2, 48720, Note_on_c, 0, 57, 80
2, 49403, Note_on_c, 0, 50, 0
2, 49403, Note_on_c, 0, 57, 0
2, 49440, Note_on_c, 0, 50, 80
2, 49440, Note_on_c, 0, 57, 80
2, 49895, Note_on_c, 0, 50, 0
2, 49895, Note_on_c, 0, 57, 0
2, 49920, Note_on_c, 0, 52, 80
2, 49920, Note_on_c, 0, 57, 80
2, 50603, Note_on_c, 0, 52, 0
2, 50603, Note_on_c, 0, 57, 0
2, 50640, Note_on_c, 0, 52, 80
2, 50640, Note_on_c, 0, 57, 80
2, 51323, Note_on_c, 0, 52, 0
2, 51323, Note_on_c, 0, 57, 0
2, 51360, Note_on_c, 0, 52, 80
2, 51360, Note_on_c, 0, 57, 80
2, 51815, Note_on_c, 0, 52, 0
2, 51815, Note_on_c, 0, 57, 0
2, 51840, Note_on_c, 0, 52, 80
2, 51840, Note_on_c, 0, 57, 80
2, 52523, Note_on_c, 0, 52, 0
2, 52523, Note_on_c, 0, 57, 0
2, 52560, Note_on_c, 0, 52, 80
2, 52560, Note_on_c, 0, 57, 80
2, 53243, Note_on_c, 0, 52, 0
2, 53243, Note_on_c, 0, 57, 0
2, 53280, Note_on_c, 0, 52, 80
2, 53280, Note_on_c, 0, 57, 80
2, 53735, Note_on_c, 0, 52, 0
2, 53735, Note_on_c, 0, 57, 0
2, 53760, Note_on_c, 0, 48, 80
2, 53760, Note_on_c, 0, 55, 80
2, 54443, Note_on_c, 0, 48, 0
2, 54443, Note_on_c, 0, 55, 0
2, 54480, Note_on_c, 0, 48, 80
2, 54480, Note_on_c, 0, 55, 80
2, 55163, Note_on_c, 0, 48, 0
2, 55163, Note_on_c, 0, 55, 0
2, 55200, Note_on_c, 0, 48, 80
2, 55200, Note_on_c, 0, 55, 80
2, 55655, Note_on_c, 0, 48, 0
2, 55655, Note_on_c, 0, 55, 0
2, 55680, Note_on_c, 0, 48, 80
2, 55680, Note_on_c, 0, 55, 80
2, 56363, Note_on_c, 0, 48, 0
2, 56363, Note_on_c, 0, 55, 0
2, 56400, Note_on_c, 0, 48, 80
2, 56400, Note_on_c, 0, 55, 80
2, 57083, Note_on_c, 0, 48, 0
2, 57083, Note_on_c, 0, 55, 0
2, 57120, Note_on_c, 0, 48, 80
2, 57120, Note_on_c, 0, 55, 80
2, 57575, Note_on_c, 0, 48, 0
2, 57575, Note_on_c, 0, 55, 0
2, 57600, Note_on_c, 0, 50, 80
2, 57600, Note_on_c, 0, 59, 80
2, 58055, Note_on_c, 0, 50, 0
2, 58055, Note_on_c, 0, 59, 0
2, 61440, Note_on_c, 0, 53, 80
2, 61440, Note_on_c, 0, 57, 80
2, 61440, Note_on_c, 0, 62, 80
2, 62351, Note_on_c, 0, 53, 0
2, 62351, Note_on_c, 0, 57, 0
2, 62351, Note_on_c, 0, 62, 0
2, 62400, Note_on_c, 0, 53, 80
2, 62400, Note_on_c, 0, 57, 80
2, 62400, Note_on_c, 0, 62, 80
2, 63311, Note_on_c, 0, 53, 0
2, 63311, Note_on_c, 0, 57, 0
2, 63311, Note_on_c, 0, 62, 0
2, 63360, Note_on_c, 0, 53, 80
2, 63360, Note_on_c, 0, 57, 80
2, 63360, Note_on_c, 0, 62, 80
2, 64271, Note_on_c, 0, 53, 0
2, 64271, Note_on_c, 0, 57, 0
2, 64271, Note_on_c, 0, 62, 0
2, 64320, Note_on_c, 0, 53, 80
2, 64320, Note_on_c, 0, 57, 80
2, 64320, Note_on_c, 0, 62, 80
2, 65231, Note_on_c, 0, 53, 0
2, 65231, Note_on_c, 0, 57, 0
2, 65231, Note_on_c, 0, 62, 0
2, 65280, Note_on_c, 0, 52, 80
2, 65280, Note_on_c, 0, 57, 80
2, 65280, Note_on_c, 0, 60, 80
2, 66191, Note_on_c, 0, 52, 0
2, 66191, Note_on_c, 0, 57, 0
2, 66191, Note_on_c, 0, 60, 0
2, 66240, Note_on_c, 0, 52, 80
2, 66240, Note_on_c, 0, 57, 80
2, 66240, Note_on_c, 0, 60, 80
2, 67151, Note_on_c, 0, 52, 0
2, 67151, Note_on_c, 0, 57, 0
2, 67151, Note_on_c, 0, 60, 0
2, 67200, Note_on_c, 0, 52, 80
2, 67200, Note_on_c, 0, 57, 80
2, 67200, Note_on_c, 0, 60, 80
2, 68111, Note_on_c, 0, 52, 0
2, 68111, Note_on_c, 0, 57, 0
2, 68111, Note_on_c, 0, 60, 0
2, 68160, Note_on_c, 0, 52, 80
2, 68160, Note_on_c, 0, 57, 80
2, 68160, Note_on_c, 0, 60, 80
2, 69071, Note_on_c, 0, 52, 0
2, 69071, Note_on_c, 0, 57, 0
2, 69071, Note_on_c, 0, 60, 0
2, 69120, Note_on_c, 0, 52, 80
2, 69120, Note_on_c, 0, 55, 80
2, 69120, Note_on_c, 0, 60, 80
2, 70031, Note_on_c, 0, 52, 0
2, 70031, Note_on_c, 0, 55, 0
2, 70031, Note_on_c, 0, 60, 0
2, 70080, Note_on_c, 0, 52, 80
2, 70080, Note_on_c, 0, 55, 80
2, 70080, Note_on_c, 0, 60, 80
2, 70991, Note_on_c, 0, 52, 0
2, 70991, Note_on_c, 0, 55, 0
2, 70991, Note_on_c, 0, 60, 0
2, 71040, Note_on_c, 0, 52, 80
2, 71040, Note_on_c, 0, 55, 80
2, 71040, Note_on_c, 0, 60, 80
2, 71951, Note_on_c, 0, 52, 0
2, 71951, Note_on_c, 0, 55, 0
2, 71951, Note_on_c, 0, 60, 0
2, 72000, Note_on_c, 0, 52, 80
2, 72000, Note_on_c, 0, 55, 80
2, 72000, Note_on_c, 0, 60, 80
2, 72911, Note_on_c, 0, 52, 0
2, 72911, Note_on_c, 0, 55, 0
2, 72911, Note_on_c, 0, 60, 0
2, 72960, Note_on_c, 0, 50, 80
2, 72960, Note_on_c, 0, 55, 80
2, 72960, Note_on_c, 0, 59, 80
2, 73871, Note_on_c, 0, 50, 0
2, 73871, Note_on_c, 0, 55, 0
2, 73871, Note_on_c, 0, 59, 0
2, 73920, Note_on_c, 0, 50, 80
2, 73920, Note_on_c, 0, 55, 80
2, 73920, Note_on_c, 0, 59, 80
2, 74831, Note_on_c, 0, 50, 0
2, 74831, Note_on_c, 0, 55, 0
2, 74831, Note_on_c, 0, 59, 0
2, 74880, Note_on_c, 0, 55, 80
2, 74880, Note_on_c, 0, 59, 80
2, 74880, Note_on_c, 0, 50, 80
2, 75335, Note_on_c, 0, 50, 0
2, 75360, Note_on_c, 0, 50, 80
2, 75563, Note_on_c, 0, 55, 0
2, 75563, Note_on_c, 0, 59, 0
2, 75600, Note_on_c, 0, 55, 80
2, 75600, Note_on_c, 0, 59, 80
2, 76043, Note_on_c, 0, 50, 0
2, 76080, Note_on_c, 0, 50, 80
2, 76283, Note_on_c, 0, 55, 0
2, 76283, Note_on_c, 0, 59, 0
2, 76320, Note_on_c, 0, 55, 80
2, 76320, Note_on_c, 0, 59, 80
2, 76763, Note_on_c, 0, 50, 0
2, 76775, Note_on_c, 0, 55, 0
2, 76775, Note_on_c, 0, 59, 0
2, 76800, Note_on_c, 0, 53, 80
2, 76800, Note_on_c, 0, 57, 80
2, 76800, Note_on_c, 0, 50, 80
2, 77520, Note_on_c, 0, 53, 0
2, 77520, Note_on_c, 0, 53, 80
2, 77520, Note_on_c, 0, 57, 0
2, 77520, Note_on_c, 0, 57, 80
2, 78203, Note_on_c, 0, 53, 0
2, 78203, Note_on_c, 0, 57, 0
2, 78240, Note_on_c, 0, 53, 80
2, 78240, Note_on_c, 0, 57, 80
2, 79379, Note_on_c, 0, 53, 0
2, 79379, Note_on_c, 0, 57, 0
2, 79440, Note_on_c, 0, 53, 80
2, 79440, Note_on_c, 0, 57, 80
2, 80123, Note_on_c, 0, 53, 0
2, 80123, Note_on_c, 0, 57, 0
2, 80160, Note_on_c, 0, 53, 80
2, 80160, Note_on_c, 0, 57, 80
2, 80447, Note_on_c, 0, 50, 0
2, 80615, Note_on_c, 0, 53, 0
2, 80615, Note_on_c, 0, 57, 0
2, 80640, Note_on_c, 0, 48, 80
2, 80640, Note_on_c, 0, 52, 80
2, 80640, Note_on_c, 0, 57, 80
2, 81323, Note_on_c, 0, 57, 0
2, 81360, Note_on_c, 0, 60, 80
2, 81360, Note_on_c, 0, 57, 80
2, 81815, Note_on_c, 0, 60, 0
2, 82043, Note_on_c, 0, 57, 0
2, 82080, Note_on_c, 0, 60, 80
2, 82080, Note_on_c, 0, 57, 80
2, 82535, Note_on_c, 0, 60, 0
2, 83219, Note_on_c, 0, 57, 0
2, 83280, Note_on_c, 0, 60, 80
2, 83280, Note_on_c, 0, 57, 80
2, 83735, Note_on_c, 0, 60, 0
2, 83963, Note_on_c, 0, 57, 0
2, 84000, Note_on_c, 0, 57, 80
2, 84000, Note_on_c, 0, 60, 80
2, 84287, Note_on_c, 0, 48, 0
2, 84287, Note_on_c, 0, 52, 0
2, 84455, Note_on_c, 0, 57, 0
2, 84455, Note_on_c, 0, 60, 0
2, 84480, Note_on_c, 0, 52, 80
2, 84480, Note_on_c, 0, 55, 80
2, 84480, Note_on_c, 0, 48, 80
2, 85200, Note_on_c, 0, 52, 0
2, 85200, Note_on_c, 0, 52, 80
2, 85200, Note_on_c, 0, 55, 0
2, 85200, Note_on_c, 0, 55, 80
2, 85883, Note_on_c, 0, 52, 0
2, 85883, Note_on_c, 0, 55, 0
2, 85920, Note_on_c, 0, 52, 80
2, 85920, Note_on_c, 0, 55, 80
2, 87059, Note_on_c, 0, 52, 0
2, 87059, Note_on_c, 0, 55, 0
2, 87120, Note_on_c, 0, 52, 80
2, 87120, Note_on_c, 0, 55, 80
2, 87803, Note_on_c, 0, 52, 0
2, 87803, Note_on_c, 0, 55, 0
2, 87840, Note_on_c, 0, 52, 80
2, 87840, Note_on_c, 0, 55, 80
2, 88127, Note_on_c, 0, 48, 0
2, 88295, Note_on_c, 0, 52, 0
2, 88295, Note_on_c, 0, 55, 0
2, 88320, Note_on_c, 0, 55, 80
2, 88320, Note_on_c, 0, 59, 80
2, 88320, Note_on_c, 0, 50, 80
2, 89003, Note_on_c, 0, 55, 0
2, 89003, Note_on_c, 0, 59, 0
2, 89040, Note_on_c, 0, 55, 80
2, 89040, Note_on_c, 0, 59, 80
2, 89723, Note_on_c, 0, 55, 0
2, 89723, Note_on_c, 0, 59, 0
2, 89760, Note_on_c, 0, 55, 80
2, 89760, Note_on_c, 0, 59, 80
2, 90899, Note_on_c, 0, 55, 0
2, 90899, Note_on_c, 0, 59, 0
2, 90960, Note_on_c, 0, 55, 80
2, 90960, Note_on_c, 0, 59, 80
2, 91643, Note_on_c, 0, 55, 0
2, 91643, Note_on_c, 0, 59, 0
2, 91680, Note_on_c, 0, 55, 80
2, 91680, Note_on_c, 0, 59, 80
2, 91967, Note_on_c, 0, 50, 0
2, 92135, Note_on_c, 0, 55, 0
2, 92135, Note_on_c, 0, 59, 0
2, 92160, Note_on_c, 0, 53, 80
2, 92160, Note_on_c, 0, 57, 80
2, 92160, Note_on_c, 0, 50, 80
2, 92843, Note_on_c, 0, 53, 0
2, 92843, Note_on_c, 0, 57, 0
2, 92880, Note_on_c, 0, 53, 80
2, 92880, Note_on_c, 0, 57, 80
2, 93563, Note_on_c, 0, 53, 0
2, 93563, Note_on_c, 0, 57, 0
2, 93600, Note_on_c, 0, 53, 80
2, 93600, Note_on_c, 0, 57, 80
2, 94739, Note_on_c, 0, 53, 0
2, 94739, Note_on_c, 0, 57, 0
2, 94800, Note_on_c, 0, 53, 80
2, 94800, Note_on_c, 0, 57, 80
2, 95483, Note_on_c, 0, 53, 0
2, 95483, Note_on_c, 0, 57, 0
2, 95520, Note_on_c, 0, 53, 80
2, 95520, Note_on_c, 0, 57, 80
2, 95807, Note_on_c, 0, 50, 0
2, 95975, Note_on_c, 0, 53, 0
2, 95975, Note_on_c, 0, 57, 0
2, 96000, Note_on_c, 0, 57, 80
2, 96000, Note_on_c, 0, 48, 80
2, 96000, Note_on_c, 0, 52, 80
2, 96683, Note_on_c, 0, 57, 0
2, 96720, Note_on_c, 0, 60, 80
2, 96720, Note_on_c, 0, 57, 80
2, 97175, Note_on_c, 0, 60, 0
2, 97403, Note_on_c, 0, 57, 0
2, 97440, Note_on_c, 0, 60, 80
2, 97440, Note_on_c, 0, 57, 80
2, 97895, Note_on_c, 0, 60, 0
2, 98579, Note_on_c, 0, 57, 0
2, 98640, Note_on_c, 0, 60, 80
2, 98640, Note_on_c, 0, 57, 80
2, 99095, Note_on_c, 0, 60, 0
2, 99323, Note_on_c, 0, 57, 0
2, 99360, Note_on_c, 0, 57, 80
2, 99360, Note_on_c, 0, 60, 80
2, 99647, Note_on_c, 0, 48, 0
2, 99647, Note_on_c, 0, 52, 0
2, 99815, Note_on_c, 0, 57, 0
2, 99815, Note_on_c, 0, 60, 0
2, 99840, Note_on_c, 0, 52, 80
2, 99840, Note_on_c, 0, 55, 80
2, 99840, Note_on_c, 0, 48, 80
2, 100523, Note_on_c, 0, 52, 0
2, 100523, Note_on_c, 0, 55, 0
2, 100560, Note_on_c, 0, 52, 80
2, 100560, Note_on_c, 0, 55, 80
2, 101243, Note_on_c, 0, 52, 0
2, 101243, Note_on_c, 0, 55, 0
2, 101280, Note_on_c, 0, 52, 80
2, 101280, Note_on_c, 0, 55, 80
2, 102419, Note_on_c, 0, 52, 0
2, 102419, Note_on_c, 0, 55, 0
2, 102480, Note_on_c, 0, 52, 80
2, 102480, Note_on_c, 0, 55, 80
2, 103163, Note_on_c, 0, 52, 0
2, 103163, Note_on_c, 0, 55, 0
2, 103200, Note_on_c, 0, 52, 80
2, 103200, Note_on_c, 0, 55, 80
2, 103487, Note_on_c, 0, 48, 0
2, 103655, Note_on_c, 0, 52, 0
2, 103655, Note_on_c, 0, 55, 0
2, 103680, Note_on_c, 0, 55, 80
2, 103680, Note_on_c, 0, 59, 80
2, 103680, Note_on_c, 0, 50, 80
2, 104363, Note_on_c, 0, 55, 0
2, 104363, Note_on_c, 0, 59, 0
2, 104400, Note_on_c, 0, 55, 80
2, 104400, Note_on_c, 0, 59, 80
2, 105083, Note_on_c, 0, 55, 0
2, 105083, Note_on_c, 0, 59, 0
2, 105120, Note_on_c, 0, 55, 80
2, 105120, Note_on_c, 0, 59, 80
2, 105503, Note_on_c, 0, 50, 0
2, 105575, Note_on_c, 0, 55, 0
2, 105575, Note_on_c, 0, 59, 0
2, 106320, Note_on_c, 0, 55, 80
2, 106320, Note_on_c, 0, 59, 80
2, 106775, Note_on_c, 0, 55, 0
2, 106775, Note_on_c, 0, 59, 0
2, 107040, Note_on_c, 0, 55, 80
2, 107040, Note_on_c, 0, 59, 80
2, 107495, Note_on_c, 0, 55, 0
2, 107495, Note_on_c, 0, 59, 0
2, 107520, Note_on_c, 0, 50, 80
2, 107520, Note_on_c, 0, 53, 80
2, 107520, Note_on_c, 0, 57, 80
2, 111167, Note_on_c, 0, 50, 0
2, 111167, Note_on_c, 0, 53, 0
2, 111167, Note_on_c, 0, 57, 0
2, 111360, Note_on_c, 0, 48, 80
2, 111360, Note_on_c, 0, 52, 80
2, 111360, Note_on_c, 0, 57, 80
2, 115007, Note_on_c, 0, 48, 0
2, 115007, Note_on_c, 0, 52, 0
2, 115007, Note_on_c, 0, 57, 0
2, 115200, Note_on_c, 0, 48, 80
2, 115200, Note_on_c, 0, 52, 80
2, 115200, Note_on_c, 0, 55, 80
2, 118847, Note_on_c, 0, 48, 0
2, 118847, Note_on_c, 0, 52, 0
2, 118847, Note_on_c, 0, 55, 0
2, 119040, Note_on_c, 0, 50, 80
2, 119040, Note_on_c, 0, 55, 80
2, 119040, Note_on_c, 0, 59, 80
2, 122687, Note_on_c, 0, 50, 0
2, 122687, Note_on_c, 0, 55, 0
2, 122687, Note_on_c, 0, 59, 0
2, 122880, Note_on_c, 0, 50, 80
2, 122880, Note_on_c, 0, 53, 80
2, 122880, Note_on_c, 0, 57, 80
2, 126527, Note_on_c, 0, 50, 0
2, 126527, Note_on_c, 0, 53, 0
2, 126527, Note_on_c, 0, 57, 0
2, 126720, Note_on_c, 0, 48, 80
2, 126720, Note_on_c, 0, 52, 80
2, 126720, Note_on_c, 0, 57, 80
2, 130367, Note_on_c, 0, 48, 0
2, 130367, Note_on_c, 0, 52, 0
2, 130367, Note_on_c, 0, 57, 0
2, 130560, Note_on_c, 0, 48, 80
2, 130560, Note_on_c, 0, 52, 80
2, 130560, Note_on_c, 0, 55, 80
2, 134207, Note_on_c, 0, 48, 0
2, 134207, Note_on_c, 0, 52, 0
2, 134207, Note_on_c, 0, 55, 0
2, 134400, Note_on_c, 0, 50, 80
2, 134400, Note_on_c, 0, 55, 80
2, 134400, Note_on_c, 0, 59, 80
2, 138047, Note_on_c, 0, 50, 0
2, 138047, Note_on_c, 0, 55, 0
2, 138047, Note_on_c, 0, 59, 0
2, 138048, End_track
3, 0, Start_track
3, 0, Title_t, "Electric Bass, Electric Bass, Electric Bass\000"
3, 0, Key_signature, 0, "major"
3, 0, Control_c, 1, 121, 0
3, 0, Program_c, 1, 33
3, 0, Control_c, 1, 7, 100
3, 0, Control_c, 1, 10, 64
3, 0, Control_c, 1, 91, 0
3, 0, Control_c, 1, 93, 0
3, 0, MIDI_port, 0
3, 0, Note_on_c, 1, 62, 80
3, 0, Control_c, 3, 121, 0
3, 0, Program_c, 3, 36
3, 0, Control_c, 3, 7, 100
3, 0, Control_c, 3, 10, 64
3, 0, Control_c, 3, 91, 0
3, 0, Control_c, 3, 93, 0
3, 0, MIDI_port, 0
3, 0, Control_c, 4, 121, 0
3, 0, Program_c, 4, 37
3, 0, Control_c, 4, 7, 100
3, 0, Control_c, 4, 10, 64
3, 0, Control_c, 4, 91, 0
3, 0, Control_c, 4, 93, 0
3, 0, MIDI_port, 0
3, 3119, Note_on_c, 1, 62, 0
3, 3120, Note_on_c, 1, 60, 80
3, 3359, Note_on_c, 1, 60, 0
3, 3360, Note_on_c, 1, 62, 80
3, 3599, Note_on_c, 1, 62, 0
3, 3600, Note_on_c, 1, 57, 80
3, 7679, Note_on_c, 1, 57, 0
3, 7680, Note_on_c, 1, 60, 80
3, 11039, Note_on_c, 1, 60, 0
3, 11040, Note_on_c, 1, 62, 80
3, 11279, Note_on_c, 1, 62, 0
3, 11280, Note_on_c, 1, 55, 80
3, 11519, Note_on_c, 1, 55, 0
3, 11520, Note_on_c, 1, 55, 80
3, 13439, Note_on_c, 1, 55, 0
3, 13440, Note_on_c, 1, 55, 80
3, 14159, Note_on_c, 1, 55, 0
3, 14160, Note_on_c, 1, 53, 80
3, 14879, Note_on_c, 1, 53, 0
3, 14880, Note_on_c, 1, 52, 80
3, 15359, Note_on_c, 1, 52, 0
3, 15360, Note_on_c, 1, 50, 80
3, 16319, Note_on_c, 1, 50, 0
3, 16320, Note_on_c, 1, 50, 80
3, 17279, Note_on_c, 1, 50, 0
3, 17280, Note_on_c, 1, 50, 80
3, 18239, Note_on_c, 1, 50, 0
3, 18240, Note_on_c, 1, 50, 80
3, 18479, Note_on_c, 1, 50, 0
3, 18480, Note_on_c, 1, 60, 80
3, 18719, Note_on_c, 1, 60, 0
3, 18720, Note_on_c, 1, 62, 80
3, 18959, Note_on_c, 1, 62, 0
3, 18960, Note_on_c, 1, 57, 80
3, 19199, Note_on_c, 1, 57, 0
3, 19200, Note_on_c, 1, 57, 80
3, 20159, Note_on_c, 1, 57, 0
3, 20160, Note_on_c, 1, 57, 80
3, 21119, Note_on_c, 1, 57, 0
3, 21120, Note_on_c, 1, 57, 80
3, 22079, Note_on_c, 1, 57, 0
3, 22080, Note_on_c, 1, 57, 80
3, 23039, Note_on_c, 1, 57, 0
3, 23040, Note_on_c, 1, 60, 80
3, 23999, Note_on_c, 1, 60, 0
3, 24000, Note_on_c, 1, 60, 80
3, 24959, Note_on_c, 1, 60, 0
3, 24960, Note_on_c, 1, 60, 80
3, 25919, Note_on_c, 1, 60, 0
3, 25920, Note_on_c, 1, 60, 80
3, 26399, Note_on_c, 1, 60, 0
3, 26400, Note_on_c, 1, 62, 80
3, 26639, Note_on_c, 1, 62, 0
3, 26640, Note_on_c, 1, 55, 80
3, 26879, Note_on_c, 1, 55, 0
3, 26880, Note_on_c, 1, 55, 80
3, 27839, Note_on_c, 1, 55, 0
3, 27840, Note_on_c, 1, 55, 80
3, 28799, Note_on_c, 1, 55, 0
3, 28800, Note_on_c, 1, 55, 80
3, 29519, Note_on_c, 1, 55, 0
3, 29520, Note_on_c, 1, 53, 80
3, 30239, Note_on_c, 1, 53, 0
3, 30240, Note_on_c, 1, 52, 80
3, 30719, Note_on_c, 1, 52, 0
3, 30720, Note_on_c, 1, 50, 80
3, 31679, Note_on_c, 1, 50, 0
3, 31680, Note_on_c, 1, 50, 80
3, 32639, Note_on_c, 1, 50, 0
3, 32640, Note_on_c, 1, 50, 80
3, 33599, Note_on_c, 1, 50, 0
3, 33600, Note_on_c, 1, 50, 80
3, 33839, Note_on_c, 1, 50, 0
3, 33840, Note_on_c, 1, 60, 80
3, 34079, Note_on_c, 1, 60, 0
3, 34080, Note_on_c, 1, 62, 80
3, 34319, Note_on_c, 1, 62, 0
3, 34320, Note_on_c, 1, 57, 80
3, 34559, Note_on_c, 1, 57, 0
3, 34560, Note_on_c, 1, 57, 80
3, 35519, Note_on_c, 1, 57, 0
3, 35520, Note_on_c, 1, 57, 80
3, 36479, Note_on_c, 1, 57, 0
3, 36480, Note_on_c, 1, 57, 80
3, 37439, Note_on_c, 1, 57, 0
3, 37440, Note_on_c, 1, 57, 80
3, 38399, Note_on_c, 1, 57, 0
3, 38400, Note_on_c, 1, 60, 80
3, 39359, Note_on_c, 1, 60, 0
3, 39360, Note_on_c, 1, 60, 80
3, 40319, Note_on_c, 1, 60, 0
3, 40320, Note_on_c, 1, 60, 80
3, 41279, Note_on_c, 1, 60, 0
3, 41280, Note_on_c, 1, 60, 80
3, 41759, Note_on_c, 1, 60, 0
3, 41760, Note_on_c, 1, 62, 80
3, 41999, Note_on_c, 1, 62, 0
3, 42000, Note_on_c, 1, 55, 80
3, 42239, Note_on_c, 1, 55, 0
3, 42240, Note_on_c, 1, 55, 80
3, 43199, Note_on_c, 1, 55, 0
3, 43200, Note_on_c, 1, 55, 80
3, 44159, Note_on_c, 1, 55, 0
3, 44160, Note_on_c, 1, 55, 80
3, 44879, Note_on_c, 1, 55, 0
3, 44880, Note_on_c, 1, 53, 80
3, 45599, Note_on_c, 1, 53, 0
3, 45600, Note_on_c, 1, 52, 80
3, 46079, Note_on_c, 1, 52, 0
3, 46080, Note_on_c, 1, 50, 80
3, 47039, Note_on_c, 1, 50, 0
3, 47040, Note_on_c, 1, 50, 80
3, 47999, Note_on_c, 1, 50, 0
3, 48000, Note_on_c, 1, 50, 80
3, 48959, Note_on_c, 1, 50, 0
3, 48960, Note_on_c, 1, 50, 80
3, 49199, Note_on_c, 1, 50, 0
3, 49200, Note_on_c, 1, 60, 80
3, 49439, Note_on_c, 1, 60, 0
3, 49440, Note_on_c, 1, 62, 80
3, 49679, Note_on_c, 1, 62, 0
3, 49680, Note_on_c, 1, 57, 80
3, 49919, Note_on_c, 1, 57, 0
3, 49920, Note_on_c, 1, 57, 80
3, 50879, Note_on_c, 1, 57, 0
3, 50880, Note_on_c, 1, 57, 80
3, 51839, Note_on_c, 1, 57, 0
3, 51840, Note_on_c, 1, 57, 80
3, 52799, Note_on_c, 1, 57, 0
3, 52800, Note_on_c, 1, 57, 80
3, 53759, Note_on_c, 1, 57, 0
3, 53760, Note_on_c, 1, 60, 80
3, 54719, Note_on_c, 1, 60, 0
3, 54720, Note_on_c, 1, 60, 80
3, 55679, Note_on_c, 1, 60, 0
3, 55680, Note_on_c, 1, 60, 80
3, 56639, Note_on_c, 1, 60, 0
3, 56640, Note_on_c, 1, 60, 80
3, 57119, Note_on_c, 1, 60, 0
3, 57120, Note_on_c, 1, 62, 80
3, 57359, Note_on_c, 1, 62, 0
3, 57360, Note_on_c, 1, 55, 80
3, 61439, Note_on_c, 1, 55, 0
3, 61440, Note_on_c, 1, 50, 80
3, 64559, Note_on_c, 1, 50, 0
3, 64560, Note_on_c, 1, 60, 80
3, 64799, Note_on_c, 1, 60, 0
3, 64800, Note_on_c, 1, 62, 80
3, 65279, Note_on_c, 1, 62, 0
3, 65280, Note_on_c, 1, 57, 80
3, 69119, Note_on_c, 1, 57, 0
3, 69120, Note_on_c, 1, 60, 80
3, 72479, Note_on_c, 1, 60, 0
3, 72480, Note_on_c, 1, 62, 80
3, 72719, Note_on_c, 1, 62, 0
3, 72720, Note_on_c, 1, 55, 80
3, 76799, Note_on_c, 1, 55, 0
3, 76800, Note_on_c, 1, 50, 80
3, 77759, Note_on_c, 1, 50, 0
3, 77760, Note_on_c, 1, 50, 80
3, 78719, Note_on_c, 1, 50, 0
3, 78720, Note_on_c, 1, 50, 80
3, 79679, Note_on_c, 1, 50, 0
3, 79680, Note_on_c, 1, 50, 80
3, 79919, Note_on_c, 1, 50, 0
3, 79920, Note_on_c, 1, 60, 80
3, 80159, Note_on_c, 1, 60, 0
3, 80160, Note_on_c, 1, 62, 80
3, 80639, Note_on_c, 1, 62, 0
3, 80640, Note_on_c, 1, 57, 80
3, 81599, Note_on_c, 1, 57, 0
3, 81600, Note_on_c, 1, 57, 80
3, 82559, Note_on_c, 1, 57, 0
3, 82560, Note_on_c, 1, 57, 80
3, 83519, Note_on_c, 1, 57, 0
3, 83520, Note_on_c, 1, 57, 80
3, 84479, Note_on_c, 1, 57, 0
3, 84480, Note_on_c, 1, 60, 80
3, 85439, Note_on_c, 1, 60, 0
3, 85440, Note_on_c, 1, 60, 80
3, 86399, Note_on_c, 1, 60, 0
3, 86400, Note_on_c, 1, 60, 80
3, 87359, Note_on_c, 1, 60, 0
3, 87360, Note_on_c, 1, 60, 80
3, 87839, Note_on_c, 1, 60, 0
3, 87840, Note_on_c, 1, 62, 80
3, 88319, Note_on_c, 1, 62, 0
3, 88320, Note_on_c, 1, 55, 80
3, 89279, Note_on_c, 1, 55, 0
3, 89280, Note_on_c, 1, 55, 80
3, 90239, Note_on_c, 1, 55, 0
3, 90240, Note_on_c, 1, 55, 80
3, 91199, Note_on_c, 1, 55, 0
3, 91200, Note_on_c, 1, 55, 80
3, 92159, Note_on_c, 1, 55, 0
3, 92160, Note_on_c, 1, 50, 80
3, 93119, Note_on_c, 1, 50, 0
3, 93120, Note_on_c, 1, 50, 80
3, 94079, Note_on_c, 1, 50, 0
3, 94080, Note_on_c, 1, 50, 80
3, 95039, Note_on_c, 1, 50, 0
3, 95040, Note_on_c, 1, 50, 80
3, 95279, Note_on_c, 1, 50, 0
3, 95280, Note_on_c, 1, 60, 80
3, 95519, Note_on_c, 1, 60, 0
3, 95520, Note_on_c, 1, 62, 80
3, 95999, Note_on_c, 1, 62, 0
3, 96000, Note_on_c, 1, 57, 80
3, 96959, Note_on_c, 1, 57, 0
3, 96960, Note_on_c, 1, 57, 80
3, 97919, Note_on_c, 1, 57, 0
3, 97920, Note_on_c, 1, 57, 80
3, 98879, Note_on_c, 1, 57, 0
3, 98880, Note_on_c, 1, 57, 80
3, 99839, Note_on_c, 1, 57, 0
3, 99840, Note_on_c, 1, 60, 80
3, 100799, Note_on_c, 1, 60, 0
3, 100800, Note_on_c, 1, 60, 80
3, 101759, Note_on_c, 1, 60, 0
3, 101760, Note_on_c, 1, 60, 80
3, 102719, Note_on_c, 1, 60, 0
3, 102720, Note_on_c, 1, 60, 80
3, 103199, Note_on_c, 1, 60, 0
3, 103200, Note_on_c, 1, 62, 80
3, 103679, Note_on_c, 1, 62, 0
3, 103680, Note_on_c, 1, 55, 80
3, 104639, Note_on_c, 1, 55, 0
3, 104640, Note_on_c, 1, 55, 80
3, 105599, Note_on_c, 1, 55, 0
3, 105600, Note_on_c, 1, 55, 80
3, 107519, Note_on_c, 1, 55, 0
3, 107520, Note_on_c, 1, 50, 80
3, 110639, Note_on_c, 1, 50, 0
3, 110640, Note_on_c, 1, 60, 80
3, 110879, Note_on_c, 1, 60, 0
3, 110880, Note_on_c, 1, 62, 80
3, 111119, Note_on_c, 1, 62, 0
3, 111120, Note_on_c, 1, 57, 80
3, 115199, Note_on_c, 1, 57, 0
3, 115200, Note_on_c, 1, 60, 80
3, 118559, Note_on_c, 1, 60, 0
3, 118560, Note_on_c, 1, 62, 80
3, 118799, Note_on_c, 1, 62, 0
3, 118800, Note_on_c, 1, 55, 80
3, 122879, Note_on_c, 1, 55, 0
3, 122880, Note_on_c, 1, 50, 80
3, 125999, Note_on_c, 1, 50, 0
3, 126000, Note_on_c, 1, 60, 80
3, 126239, Note_on_c, 1, 60, 0
3, 126240, Note_on_c, 1, 62, 80
3, 126479, Note_on_c, 1, 62, 0
3, 126480, Note_on_c, 1, 57, 80
3, 130559, Note_on_c, 1, 57, 0
3, 130560, Note_on_c, 1, 60, 80
3, 133919, Note_on_c, 1, 60, 0
3, 133920, Note_on_c, 1, 62, 80
3, 134159, Note_on_c, 1, 62, 0
3, 134160, Note_on_c, 1, 55, 80
3, 138239, Note_on_c, 1, 55, 0
3, 138240, End_track
4, 0, Start_track
4, 0, Title_t, "Bell\000"
4, 0, Key_signature, 0, "major"
4, 0, Control_c, 6, 121, 0
4, 0, Program_c, 6, 14
4, 0, Control_c, 6, 7, 100
4, 0, Control_c, 6, 10, 64
4, 0, Control_c, 6, 91, 0
4, 0, Control_c, 6, 93, 0
4, 0, MIDI_port, 0
4, 1, End_track
5, 0, Start_track
5, 0, Title_t, "Classical Guitar, Lute\000"
5, 0, Key_signature, 0, "major"
5, 0, Control_c, 2, 121, 0
5, 0, Program_c, 2, 24
5, 0, Control_c, 2, 7, 100
5, 0, Control_c, 2, 10, 64
5, 0, Control_c, 2, 91, 0
5, 0, Control_c, 2, 93, 0
5, 0, MIDI_port, 0
5, 0, Note_on_c, 2, 53, 80
5, 0, Control_c, 5, 121, 0
5, 0, Program_c, 5, 28
5, 0, Control_c, 5, 7, 100
5, 0, Control_c, 5, 10, 64
5, 0, Control_c, 5, 91, 0
5, 0, Control_c, 5, 93, 0
5, 0, MIDI_port, 0
5, 239, Note_on_c, 2, 53, 0
5, 240, Note_on_c, 2, 57, 80
5, 479, Note_on_c, 2, 57, 0
5, 480, Note_on_c, 2, 62, 80
5, 719, Note_on_c, 2, 62, 0
5, 720, Note_on_c, 2, 57, 80
5, 959, Note_on_c, 2, 57, 0
5, 960, Note_on_c, 2, 53, 80
5, 1199, Note_on_c, 2, 53, 0
5, 1200, Note_on_c, 2, 57, 80
5, 1439, Note_on_c, 2, 57, 0
5, 1440, Note_on_c, 2, 62, 80
5, 1679, Note_on_c, 2, 62, 0
5, 1680, Note_on_c, 2, 57, 80
5, 1919, Note_on_c, 2, 57, 0
5, 1920, Note_on_c, 2, 53, 80
5, 2159, Note_on_c, 2, 53, 0
5, 2160, Note_on_c, 2, 57, 80
5, 2399, Note_on_c, 2, 57, 0
5, 2400, Note_on_c, 2, 62, 80
5, 2639, Note_on_c, 2, 62, 0
5, 2640, Note_on_c, 2, 57, 80
5, 2879, Note_on_c, 2, 57, 0
5, 2880, Note_on_c, 2, 53, 80
5, 3119, Note_on_c, 2, 53, 0
5, 3120, Note_on_c, 2, 57, 80
5, 3359, Note_on_c, 2, 57, 0
5, 3360, Note_on_c, 2, 62, 80
5, 3599, Note_on_c, 2, 62, 0
5, 3600, Note_on_c, 2, 57, 80
5, 3839, Note_on_c, 2, 57, 0
5, 3840, Note_on_c, 2, 52, 80
5, 4079, Note_on_c, 2, 52, 0
5, 4080, Note_on_c, 2, 57, 80
5, 4319, Note_on_c, 2, 57, 0
5, 4320, Note_on_c, 2, 60, 80
5, 4559, Note_on_c, 2, 60, 0
5, 4560, Note_on_c, 2, 57, 80
5, 4799, Note_on_c, 2, 57, 0
5, 4800, Note_on_c, 2, 52, 80
5, 5039, Note_on_c, 2, 52, 0
5, 5040, Note_on_c, 2, 57, 80
5, 5279, Note_on_c, 2, 57, 0
5, 5280, Note_on_c, 2, 60, 80
5, 5519, Note_on_c, 2, 60, 0
5, 5520, Note_on_c, 2, 57, 80
5, 5759, Note_on_c, 2, 57, 0
5, 5760, Note_on_c, 2, 52, 80
5, 5999, Note_on_c, 2, 52, 0
5, 6000, Note_on_c, 2, 57, 80
5, 6239, Note_on_c, 2, 57, 0
5, 6240, Note_on_c, 2, 60, 80
5, 6479, Note_on_c, 2, 60, 0
5, 6480, Note_on_c, 2, 57, 80
5, 6719, Note_on_c, 2, 57, 0
5, 6720, Note_on_c, 2, 52, 80
5, 6959, Note_on_c, 2, 52, 0
5, 6960, Note_on_c, 2, 57, 80
5, 7199, Note_on_c, 2, 57, 0
5, 7200, Note_on_c, 2, 60, 80
5, 7439, Note_on_c, 2, 60, 0
5, 7440, Note_on_c, 2, 57, 80
5, 7679, Note_on_c, 2, 57, 0
5, 7680, Note_on_c, 2, 52, 80
5, 7919, Note_on_c, 2, 52, 0
5, 7920, Note_on_c, 2, 55, 80
5, 8159, Note_on_c, 2, 55, 0
5, 8160, Note_on_c, 2, 60, 80
5, 8399, Note_on_c, 2, 60, 0
5, 8400, Note_on_c, 2, 55, 80
5, 8639, Note_on_c, 2, 55, 0
5, 8640, Note_on_c, 2, 52, 80
5, 8879, Note_on_c, 2, 52, 0
5, 8880, Note_on_c, 2, 55, 80
5, 9119, Note_on_c, 2, 55, 0
5, 9120, Note_on_c, 2, 60, 80
5, 9359, Note_on_c, 2, 60, 0
5, 9360, Note_on_c, 2, 55, 80
5, 9599, Note_on_c, 2, 55, 0
5, 9600, Note_on_c, 2, 52, 80
5, 9839, Note_on_c, 2, 52, 0
5, 9840, Note_on_c, 2, 55, 80
5, 10079, Note_on_c, 2, 55, 0
5, 10080, Note_on_c, 2, 60, 80
5, 10319, Note_on_c, 2, 60, 0
5, 10320, Note_on_c, 2, 55, 80
5, 10559, Note_on_c, 2, 55, 0
5, 10560, Note_on_c, 2, 52, 80
5, 10799, Note_on_c, 2, 52, 0
5, 10800, Note_on_c, 2, 55, 80
5, 11039, Note_on_c, 2, 55, 0
5, 11040, Note_on_c, 2, 60, 80
5, 11279, Note_on_c, 2, 60, 0
5, 11280, Note_on_c, 2, 55, 80
5, 11519, Note_on_c, 2, 55, 0
5, 11520, Note_on_c, 2, 50, 80
5, 11759, Note_on_c, 2, 50, 0
5, 11760, Note_on_c, 2, 55, 80
5, 11999, Note_on_c, 2, 55, 0
5, 12000, Note_on_c, 2, 59, 80
5, 12239, Note_on_c, 2, 59, 0
5, 12240, Note_on_c, 2, 55, 80
5, 12479, Note_on_c, 2, 55, 0
5, 12480, Note_on_c, 2, 50, 80
5, 12719, Note_on_c, 2, 50, 0
5, 12720, Note_on_c, 2, 55, 80
5, 12959, Note_on_c, 2, 55, 0
5, 12960, Note_on_c, 2, 59, 80
5, 13199, Note_on_c, 2, 59, 0
5, 13200, Note_on_c, 2, 53, 80
5, 13439, Note_on_c, 2, 53, 0
5, 13440, Note_on_c, 2, 55, 80
5, 13679, Note_on_c, 2, 55, 0
5, 13680, Note_on_c, 2, 59, 80
5, 13919, Note_on_c, 2, 59, 0
5, 13920, Note_on_c, 2, 62, 80
5, 14159, Note_on_c, 2, 62, 0
5, 14160, Note_on_c, 2, 53, 80
5, 14399, Note_on_c, 2, 53, 0
5, 14400, Note_on_c, 2, 57, 80
5, 14639, Note_on_c, 2, 57, 0
5, 14640, Note_on_c, 2, 60, 80
5, 14879, Note_on_c, 2, 60, 0
5, 14880, Note_on_c, 2, 52, 80
5, 15119, Note_on_c, 2, 52, 0
5, 15120, Note_on_c, 2, 55, 80
5, 15359, Note_on_c, 2, 55, 0
5, 15360, Note_on_c, 2, 57, 80
5, 15599, Note_on_c, 2, 57, 0
5, 15600, Note_on_c, 2, 60, 80
5, 15839, Note_on_c, 2, 60, 0
5, 15840, Note_on_c, 2, 57, 80
5, 16079, Note_on_c, 2, 57, 0
5, 16080, Note_on_c, 2, 60, 80
5, 16319, Note_on_c, 2, 60, 0
5, 16320, Note_on_c, 2, 62, 80
5, 16559, Note_on_c, 2, 62, 0
5, 16560, Note_on_c, 2, 64, 80
5, 16799, Note_on_c, 2, 64, 0
5, 16800, Note_on_c, 2, 57, 80
5, 17039, Note_on_c, 2, 57, 0
5, 17040, Note_on_c, 2, 60, 80
5, 17279, Note_on_c, 2, 60, 0
5, 17280, Note_on_c, 2, 57, 80
5, 17519, Note_on_c, 2, 57, 0
5, 17520, Note_on_c, 2, 60, 80
5, 17759, Note_on_c, 2, 60, 0
5, 17760, Note_on_c, 2, 57, 80
5, 17999, Note_on_c, 2, 57, 0
5, 18000, Note_on_c, 2, 60, 80
5, 18239, Note_on_c, 2, 60, 0
5, 18240, Note_on_c, 2, 62, 80
5, 18479, Note_on_c, 2, 62, 0
5, 18480, Note_on_c, 2, 64, 80
5, 18719, Note_on_c, 2, 64, 0
5, 18720, Note_on_c, 2, 57, 80
5, 18959, Note_on_c, 2, 57, 0
5, 18960, Note_on_c, 2, 60, 80
5, 19199, Note_on_c, 2, 60, 0
5, 19200, Note_on_c, 2, 57, 80
5, 19439, Note_on_c, 2, 57, 0
5, 19440, Note_on_c, 2, 60, 80
5, 19679, Note_on_c, 2, 60, 0
5, 19680, Note_on_c, 2, 57, 80
5, 19919, Note_on_c, 2, 57, 0
5, 19920, Note_on_c, 2, 60, 80
5, 20159, Note_on_c, 2, 60, 0
5, 20160, Note_on_c, 2, 62, 80
5, 20399, Note_on_c, 2, 62, 0
5, 20400, Note_on_c, 2, 64, 80
5, 20639, Note_on_c, 2, 64, 0
5, 20640, Note_on_c, 2, 57, 80
5, 20879, Note_on_c, 2, 57, 0
5, 20880, Note_on_c, 2, 60, 80
5, 21119, Note_on_c, 2, 60, 0
5, 21120, Note_on_c, 2, 57, 80
5, 21359, Note_on_c, 2, 57, 0
5, 21360, Note_on_c, 2, 60, 80
5, 21599, Note_on_c, 2, 60, 0
5, 21600, Note_on_c, 2, 57, 80
5, 21839, Note_on_c, 2, 57, 0
5, 21840, Note_on_c, 2, 60, 80
5, 22079, Note_on_c, 2, 60, 0
5, 22080, Note_on_c, 2, 62, 80
5, 22319, Note_on_c, 2, 62, 0
5, 22320, Note_on_c, 2, 64, 80
5, 22559, Note_on_c, 2, 64, 0
5, 22560, Note_on_c, 2, 57, 80
5, 22799, Note_on_c, 2, 57, 0
5, 22800, Note_on_c, 2, 60, 80
5, 23039, Note_on_c, 2, 60, 0
5, 23040, Note_on_c, 2, 57, 80
5, 23279, Note_on_c, 2, 57, 0
5, 23280, Note_on_c, 2, 60, 80
5, 23519, Note_on_c, 2, 60, 0
5, 23520, Note_on_c, 2, 57, 80
5, 23759, Note_on_c, 2, 57, 0
5, 23760, Note_on_c, 2, 60, 80
5, 23999, Note_on_c, 2, 60, 0
5, 24000, Note_on_c, 2, 62, 80
5, 24239, Note_on_c, 2, 62, 0
5, 24240, Note_on_c, 2, 64, 80
5, 24479, Note_on_c, 2, 64, 0
5, 24480, Note_on_c, 2, 57, 80
5, 24719, Note_on_c, 2, 57, 0
5, 24720, Note_on_c, 2, 60, 80
5, 24959, Note_on_c, 2, 60, 0
5, 24960, Note_on_c, 2, 57, 80
5, 25199, Note_on_c, 2, 57, 0
5, 25200, Note_on_c, 2, 60, 80
5, 25439, Note_on_c, 2, 60, 0
5, 25440, Note_on_c, 2, 57, 80
5, 25679, Note_on_c, 2, 57, 0
5, 25680, Note_on_c, 2, 60, 80
5, 25919, Note_on_c, 2, 60, 0
5, 25920, Note_on_c, 2, 62, 80
5, 26159, Note_on_c, 2, 62, 0
5, 26160, Note_on_c, 2, 64, 80
5, 26399, Note_on_c, 2, 64, 0
5, 26400, Note_on_c, 2, 57, 80
5, 26639, Note_on_c, 2, 57, 0
5, 26640, Note_on_c, 2, 60, 80
5, 26879, Note_on_c, 2, 60, 0
5, 26880, Note_on_c, 2, 57, 80
5, 27119, Note_on_c, 2, 57, 0
5, 27120, Note_on_c, 2, 60, 80
5, 27359, Note_on_c, 2, 60, 0
5, 27360, Note_on_c, 2, 57, 80
5, 27599, Note_on_c, 2, 57, 0
5, 27600, Note_on_c, 2, 60, 80
5, 27839, Note_on_c, 2, 60, 0
5, 27840, Note_on_c, 2, 62, 80
5, 28079, Note_on_c, 2, 62, 0
5, 28080, Note_on_c, 2, 64, 80
5, 28319, Note_on_c, 2, 64, 0
5, 28320, Note_on_c, 2, 57, 80
5, 28559, Note_on_c, 2, 57, 0
5, 28560, Note_on_c, 2, 60, 80
5, 28799, Note_on_c, 2, 60, 0
5, 28800, Note_on_c, 2, 57, 80
5, 29039, Note_on_c, 2, 57, 0
5, 29040, Note_on_c, 2, 60, 80
5, 29279, Note_on_c, 2, 60, 0
5, 29280, Note_on_c, 2, 57, 80
5, 29519, Note_on_c, 2, 57, 0
5, 29520, Note_on_c, 2, 60, 80
5, 29759, Note_on_c, 2, 60, 0
5, 29760, Note_on_c, 2, 62, 80
5, 29999, Note_on_c, 2, 62, 0
5, 30000, Note_on_c, 2, 64, 80
5, 30239, Note_on_c, 2, 64, 0
5, 30240, Note_on_c, 2, 57, 80
5, 30479, Note_on_c, 2, 57, 0
5, 30480, Note_on_c, 2, 60, 80
5, 30719, Note_on_c, 2, 60, 0
5, 30720, Note_on_c, 2, 57, 80
5, 30959, Note_on_c, 2, 57, 0
5, 30960, Note_on_c, 2, 60, 80
5, 31199, Note_on_c, 2, 60, 0
5, 31200, Note_on_c, 2, 57, 80
5, 31439, Note_on_c, 2, 57, 0
5, 31440, Note_on_c, 2, 60, 80
5, 31679, Note_on_c, 2, 60, 0
5, 31680, Note_on_c, 2, 62, 80
5, 31919, Note_on_c, 2, 62, 0
5, 31920, Note_on_c, 2, 64, 80
5, 32159, Note_on_c, 2, 64, 0
5, 32160, Note_on_c, 2, 57, 80
5, 32399, Note_on_c, 2, 57, 0
5, 32400, Note_on_c, 2, 60, 80
5, 32639, Note_on_c, 2, 60, 0
5, 32640, Note_on_c, 2, 57, 80
5, 32879, Note_on_c, 2, 57, 0
5, 32880, Note_on_c, 2, 60, 80
5, 33119, Note_on_c, 2, 60, 0
5, 33120, Note_on_c, 2, 57, 80
5, 33359, Note_on_c, 2, 57, 0
5, 33360, Note_on_c, 2, 60, 80
5, 33599, Note_on_c, 2, 60, 0
5, 33600, Note_on_c, 2, 62, 80
5, 33839, Note_on_c, 2, 62, 0
5, 33840, Note_on_c, 2, 64, 80
5, 34079, Note_on_c, 2, 64, 0
5, 34080, Note_on_c, 2, 57, 80
5, 34319, Note_on_c, 2, 57, 0
5, 34320, Note_on_c, 2, 60, 80
5, 34559, Note_on_c, 2, 60, 0
5, 34560, Note_on_c, 2, 57, 80
5, 34799, Note_on_c, 2, 57, 0
5, 34800, Note_on_c, 2, 60, 80
5, 35039, Note_on_c, 2, 60, 0
5, 35040, Note_on_c, 2, 57, 80
5, 35279, Note_on_c, 2, 57, 0
5, 35280, Note_on_c, 2, 60, 80
5, 35519, Note_on_c, 2, 60, 0
5, 35520, Note_on_c, 2, 62, 80
5, 35759, Note_on_c, 2, 62, 0
5, 35760, Note_on_c, 2, 64, 80
5, 35999, Note_on_c, 2, 64, 0
5, 36000, Note_on_c, 2, 57, 80
5, 36239, Note_on_c, 2, 57, 0
5, 36240, Note_on_c, 2, 60, 80
5, 36479, Note_on_c, 2, 60, 0
5, 36480, Note_on_c, 2, 57, 80
5, 36719, Note_on_c, 2, 57, 0
5, 36720, Note_on_c, 2, 60, 80
5, 36959, Note_on_c, 2, 60, 0
5, 36960, Note_on_c, 2, 57, 80
5, 37199, Note_on_c, 2, 57, 0
5, 37200, Note_on_c, 2, 60, 80
5, 37439, Note_on_c, 2, 60, 0
5, 37440, Note_on_c, 2, 62, 80
5, 37679, Note_on_c, 2, 62, 0
5, 37680, Note_on_c, 2, 64, 80
5, 37919, Note_on_c, 2, 64, 0
5, 37920, Note_on_c, 2, 57, 80
5, 38159, Note_on_c, 2, 57, 0
5, 38160, Note_on_c, 2, 60, 80
5, 38399, Note_on_c, 2, 60, 0
5, 38400, Note_on_c, 2, 57, 80
5, 38639, Note_on_c, 2, 57, 0
5, 38640, Note_on_c, 2, 60, 80
5, 38879, Note_on_c, 2, 60, 0
5, 38880, Note_on_c, 2, 57, 80
5, 39119, Note_on_c, 2, 57, 0
5, 39120, Note_on_c, 2, 60, 80
5, 39359, Note_on_c, 2, 60, 0
5, 39360, Note_on_c, 2, 62, 80
5, 39599, Note_on_c, 2, 62, 0
5, 39600, Note_on_c, 2, 64, 80
5, 39839, Note_on_c, 2, 64, 0
5, 39840, Note_on_c, 2, 57, 80
5, 40079, Note_on_c, 2, 57, 0
5, 40080, Note_on_c, 2, 60, 80
5, 40319, Note_on_c, 2, 60, 0
5, 40320, Note_on_c, 2, 57, 80
5, 40559, Note_on_c, 2, 57, 0
5, 40560, Note_on_c, 2, 60, 80
5, 40799, Note_on_c, 2, 60, 0
5, 40800, Note_on_c, 2, 57, 80
5, 41039, Note_on_c, 2, 57, 0
5, 41040, Note_on_c, 2, 60, 80
5, 41279, Note_on_c, 2, 60, 0
5, 41280, Note_on_c, 2, 62, 80
5, 41519, Note_on_c, 2, 62, 0
5, 41520, Note_on_c, 2, 64, 80
5, 41759, Note_on_c, 2, 64, 0
5, 41760, Note_on_c, 2, 57, 80
5, 41999, Note_on_c, 2, 57, 0
5, 42000, Note_on_c, 2, 60, 80
5, 42239, Note_on_c, 2, 60, 0
5, 42240, Note_on_c, 2, 57, 80
5, 42479, Note_on_c, 2, 57, 0
5, 42480, Note_on_c, 2, 60, 80
5, 42719, Note_on_c, 2, 60, 0
5, 42720, Note_on_c, 2, 57, 80
5, 42959, Note_on_c, 2, 57, 0
5, 42960, Note_on_c, 2, 60, 80
5, 43199, Note_on_c, 2, 60, 0
5, 43200, Note_on_c, 2, 62, 80
5, 43439, Note_on_c, 2, 62, 0
5, 43440, Note_on_c, 2, 64, 80
5, 43679, Note_on_c, 2, 64, 0
5, 43680, Note_on_c, 2, 57, 80
5, 43919, Note_on_c, 2, 57, 0
5, 43920, Note_on_c, 2, 60, 80
5, 44159, Note_on_c, 2, 60, 0
5, 44160, Note_on_c, 2, 57, 80
5, 44399, Note_on_c, 2, 57, 0
5, 44400, Note_on_c, 2, 60, 80
5, 44639, Note_on_c, 2, 60, 0
5, 44640, Note_on_c, 2, 57, 80
5, 44879, Note_on_c, 2, 57, 0
5, 44880, Note_on_c, 2, 60, 80
5, 45119, Note_on_c, 2, 60, 0
5, 45120, Note_on_c, 2, 62, 80
5, 45359, Note_on_c, 2, 62, 0
5, 45360, Note_on_c, 2, 64, 80
5, 45599, Note_on_c, 2, 64, 0
5, 45600, Note_on_c, 2, 57, 80
5, 45839, Note_on_c, 2, 57, 0
5, 45840, Note_on_c, 2, 60, 80
5, 46079, Note_on_c, 2, 60, 0
5, 46080, Note_on_c, 2, 50, 80
5, 46319, Note_on_c, 2, 50, 0
5, 46320, Note_on_c, 2, 57, 80
5, 46559, Note_on_c, 2, 57, 0
5, 46560, Note_on_c, 2, 62, 80
5, 46799, Note_on_c, 2, 62, 0
5, 46800, Note_on_c, 2, 57, 80
5, 46800, Note_on_c, 2, 62, 80
5, 46800, Note_on_c, 2, 65, 80
5, 47519, Note_on_c, 2, 57, 0
5, 47519, Note_on_c, 2, 62, 0
5, 47519, Note_on_c, 2, 65, 0
5, 47520, Note_on_c, 2, 57, 80
5, 47520, Note_on_c, 2, 62, 80
5, 47520, Note_on_c, 2, 65, 80
5, 47999, Note_on_c, 2, 57, 0
5, 47999, Note_on_c, 2, 62, 0
5, 47999, Note_on_c, 2, 65, 0
5, 48000, Note_on_c, 2, 50, 80
5, 48239, Note_on_c, 2, 50, 0
5, 48240, Note_on_c, 2, 57, 80
5, 48479, Note_on_c, 2, 57, 0
5, 48480, Note_on_c, 2, 62, 80
5, 48719, Note_on_c, 2, 62, 0
5, 48720, Note_on_c, 2, 57, 80
5, 48720, Note_on_c, 2, 62, 80
5, 48720, Note_on_c, 2, 65, 80
5, 49439, Note_on_c, 2, 57, 0
5, 49439, Note_on_c, 2, 62, 0
5, 49439, Note_on_c, 2, 65, 0
5, 49440, Note_on_c, 2, 57, 80
5, 49440, Note_on_c, 2, 62, 80
5, 49440, Note_on_c, 2, 65, 80
5, 49919, Note_on_c, 2, 57, 0
5, 49919, Note_on_c, 2, 62, 0
5, 49919, Note_on_c, 2, 65, 0
5, 49920, Note_on_c, 2, 52, 80
5, 50159, Note_on_c, 2, 52, 0
5, 50160, Note_on_c, 2, 57, 80
5, 50399, Note_on_c, 2, 57, 0
5, 50400, Note_on_c, 2, 60, 80
5, 50639, Note_on_c, 2, 60, 0
5, 50640, Note_on_c, 2, 57, 80
5, 50640, Note_on_c, 2, 60, 80
5, 50640, Note_on_c, 2, 64, 80
5, 51359, Note_on_c, 2, 57, 0
5, 51359, Note_on_c, 2, 60, 0
5, 51359, Note_on_c, 2, 64, 0
5, 51360, Note_on_c, 2, 57, 80
5, 51360, Note_on_c, 2, 60, 80
5, 51360, Note_on_c, 2, 64, 80
5, 51839, Note_on_c, 2, 57, 0
5, 51839, Note_on_c, 2, 60, 0
5, 51839, Note_on_c, 2, 64, 0
5, 51840, Note_on_c, 2, 52, 80
5, 52079, Note_on_c, 2, 52, 0
5, 52080, Note_on_c, 2, 57, 80
5, 52319, Note_on_c, 2, 57, 0
5, 52320, Note_on_c, 2, 60, 80
5, 52559, Note_on_c, 2, 60, 0
5, 52560, Note_on_c, 2, 57, 80
5, 52560, Note_on_c, 2, 60, 80
5, 52560, Note_on_c, 2, 64, 80
5, 53279, Note_on_c, 2, 57, 0
5, 53279, Note_on_c, 2, 60, 0
5, 53279, Note_on_c, 2, 64, 0
5, 53280, Note_on_c, 2, 57, 80
5, 53280, Note_on_c, 2, 60, 80
5, 53280, Note_on_c, 2, 64, 80
5, 53759, Note_on_c, 2, 57, 0
5, 53759, Note_on_c, 2, 60, 0
5, 53759, Note_on_c, 2, 64, 0
5, 53760, Note_on_c, 2, 48, 80
5, 53999, Note_on_c, 2, 48, 0
5, 54000, Note_on_c, 2, 55, 80
5, 54239, Note_on_c, 2, 55, 0
5, 54240, Note_on_c, 2, 60, 80
5, 54479, Note_on_c, 2, 60, 0
5, 54480, Note_on_c, 2, 55, 80
5, 54480, Note_on_c, 2, 60, 80
5, 54480, Note_on_c, 2, 64, 80
5, 55199, Note_on_c, 2, 55, 0
5, 55199, Note_on_c, 2, 60, 0
5, 55199, Note_on_c, 2, 64, 0
5, 55200, Note_on_c, 2, 55, 80
5, 55200, Note_on_c, 2, 60, 80
5, 55200, Note_on_c, 2, 64, 80
5, 55679, Note_on_c, 2, 55, 0
5, 55679, Note_on_c, 2, 60, 0
5, 55679, Note_on_c, 2, 64, 0
5, 55680, Note_on_c, 2, 48, 80
5, 55919, Note_on_c, 2, 48, 0
5, 55920, Note_on_c, 2, 55, 80
5, 56159, Note_on_c, 2, 55, 0
5, 56160, Note_on_c, 2, 60, 80
5, 56399, Note_on_c, 2, 60, 0
5, 56400, Note_on_c, 2, 64, 80
5, 56400, Note_on_c, 2, 55, 80
5, 56400, Note_on_c, 2, 60, 80
5, 56639, Note_on_c, 2, 64, 0
5, 56879, Note_on_c, 2, 55, 0
5, 56879, Note_on_c, 2, 60, 0
5, 57120, Note_on_c, 2, 55, 80
5, 57120, Note_on_c, 2, 60, 80
5, 57120, Note_on_c, 2, 64, 80
5, 57599, Note_on_c, 2, 55, 0
5, 57599, Note_on_c, 2, 60, 0
5, 57599, Note_on_c, 2, 64, 0
5, 57600, Note_on_c, 2, 50, 80
5, 57600, Note_on_c, 2, 55, 80
5, 57600, Note_on_c, 2, 59, 80
5, 61439, Note_on_c, 2, 50, 0
5, 61439, Note_on_c, 2, 55, 0
5, 61439, Note_on_c, 2, 59, 0
5, 61440, Note_on_c, 2, 53, 80
5, 61679, Note_on_c, 2, 53, 0
5, 61680, Note_on_c, 2, 57, 80
5, 61919, Note_on_c, 2, 57, 0
5, 61920, Note_on_c, 2, 62, 80
5, 62159, Note_on_c, 2, 62, 0
5, 62160, Note_on_c, 2, 57, 80
5, 62399, Note_on_c, 2, 57, 0
5, 62400, Note_on_c, 2, 53, 80
5, 62639, Note_on_c, 2, 53, 0
5, 62640, Note_on_c, 2, 57, 80
5, 62879, Note_on_c, 2, 57, 0
5, 62880, Note_on_c, 2, 62, 80
5, 63119, Note_on_c, 2, 62, 0
5, 63120, Note_on_c, 2, 57, 80
5, 63359, Note_on_c, 2, 57, 0
5, 63360, Note_on_c, 2, 53, 80
5, 63599, Note_on_c, 2, 53, 0
5, 63600, Note_on_c, 2, 57, 80
5, 63839, Note_on_c, 2, 57, 0
5, 63840, Note_on_c, 2, 62, 80
5, 64079, Note_on_c, 2, 62, 0
5, 64080, Note_on_c, 2, 57, 80
5, 64319, Note_on_c, 2, 57, 0
5, 64320, Note_on_c, 2, 53, 80
5, 64559, Note_on_c, 2, 53, 0
5, 64560, Note_on_c, 2, 57, 80
5, 64799, Note_on_c, 2, 57, 0
5, 64800, Note_on_c, 2, 62, 80
5, 65039, Note_on_c, 2, 62, 0
5, 65040, Note_on_c, 2, 57, 80
5, 65279, Note_on_c, 2, 57, 0
5, 65280, Note_on_c, 2, 52, 80
5, 65519, Note_on_c, 2, 52, 0
5, 65520, Note_on_c, 2, 57, 80
5, 65759, Note_on_c, 2, 57, 0
5, 65760, Note_on_c, 2, 60, 80
5, 65999, Note_on_c, 2, 60, 0
5, 66000, Note_on_c, 2, 57, 80
5, 66239, Note_on_c, 2, 57, 0
5, 66240, Note_on_c, 2, 52, 80
5, 66479, Note_on_c, 2, 52, 0
5, 66480, Note_on_c, 2, 57, 80
5, 66719, Note_on_c, 2, 57, 0
5, 66720, Note_on_c, 2, 60, 80
5, 66959, Note_on_c, 2, 60, 0
5, 66960, Note_on_c, 2, 57, 80
5, 67199, Note_on_c, 2, 57, 0
5, 67200, Note_on_c, 2, 52, 80
5, 67439, Note_on_c, 2, 52, 0
5, 67440, Note_on_c, 2, 57, 80
5, 67679, Note_on_c, 2, 57, 0
5, 67680, Note_on_c, 2, 60, 80
5, 67919, Note_on_c, 2, 60, 0
5, 67920, Note_on_c, 2, 57, 80
5, 68159, Note_on_c, 2, 57, 0
5, 68160, Note_on_c, 2, 52, 80
5, 68399, Note_on_c, 2, 52, 0
5, 68400, Note_on_c, 2, 57, 80
5, 68639, Note_on_c, 2, 57, 0
5, 68640, Note_on_c, 2, 60, 80
5, 68879, Note_on_c, 2, 60, 0
5, 68880, Note_on_c, 2, 57, 80
5, 69119, Note_on_c, 2, 57, 0
5, 69120, Note_on_c, 2, 52, 80
5, 69359, Note_on_c, 2, 52, 0
5, 69360, Note_on_c, 2, 55, 80
5, 69599, Note_on_c, 2, 55, 0
5, 69600, Note_on_c, 2, 60, 80
5, 69839, Note_on_c, 2, 60, 0
5, 69840, Note_on_c, 2, 55, 80
5, 70079, Note_on_c, 2, 55, 0
5, 70080, Note_on_c, 2, 52, 80
5, 70319, Note_on_c, 2, 52, 0
5, 70320, Note_on_c, 2, 55, 80
5, 70559, Note_on_c, 2, 55, 0
5, 70560, Note_on_c, 2, 60, 80
5, 70799, Note_on_c, 2, 60, 0
5, 70800, Note_on_c, 2, 55, 80
5, 71039, Note_on_c, 2, 55, 0
5, 71040, Note_on_c, 2, 52, 80
5, 71279, Note_on_c, 2, 52, 0
5, 71280, Note_on_c, 2, 55, 80
5, 71519, Note_on_c, 2, 55, 0
5, 71520, Note_on_c, 2, 60, 80
5, 71759, Note_on_c, 2, 60, 0
5, 71760, Note_on_c, 2, 55, 80
5, 71999, Note_on_c, 2, 55, 0
5, 72000, Note_on_c, 2, 52, 80
5, 72239, Note_on_c, 2, 52, 0
5, 72240, Note_on_c, 2, 55, 80
5, 72479, Note_on_c, 2, 55, 0
5, 72480, Note_on_c, 2, 60, 80
5, 72719, Note_on_c, 2, 60, 0
5, 72720, Note_on_c, 2, 55, 80
5, 72959, Note_on_c, 2, 55, 0
5, 72960, Note_on_c, 2, 50, 80
5, 73199, Note_on_c, 2, 50, 0
5, 73200, Note_on_c, 2, 55, 80
5, 73439, Note_on_c, 2, 55, 0
5, 73440, Note_on_c, 2, 59, 80
5, 73679, Note_on_c, 2, 59, 0
5, 73680, Note_on_c, 2, 55, 80
5, 73919, Note_on_c, 2, 55, 0
5, 73920, Note_on_c, 2, 50, 80
5, 74159, Note_on_c, 2, 50, 0
5, 74160, Note_on_c, 2, 55, 80
5, 74399, Note_on_c, 2, 55, 0
5, 74400, Note_on_c, 2, 59, 80
5, 74639, Note_on_c, 2, 59, 0
5, 74640, Note_on_c, 2, 55, 80
5, 74879, Note_on_c, 2, 55, 0
5, 74880, Note_on_c, 2, 50, 80
5, 75119, Note_on_c, 2, 50, 0
5, 75120, Note_on_c, 2, 55, 80
5, 75359, Note_on_c, 2, 55, 0
5, 75360, Note_on_c, 2, 59, 80
5, 75599, Note_on_c, 2, 59, 0
5, 75600, Note_on_c, 2, 55, 80
5, 75839, Note_on_c, 2, 55, 0
5, 75840, Note_on_c, 2, 50, 80
5, 76079, Note_on_c, 2, 50, 0
5, 76080, Note_on_c, 2, 55, 80
5, 76319, Note_on_c, 2, 55, 0
5, 76320, Note_on_c, 2, 59, 80
5, 76559, Note_on_c, 2, 59, 0
5, 76560, Note_on_c, 2, 55, 80
5, 76799, Note_on_c, 2, 55, 0
5, 76800, Note_on_c, 2, 53, 80
5, 77039, Note_on_c, 2, 53, 0
5, 77040, Note_on_c, 2, 57, 80
5, 77279, Note_on_c, 2, 57, 0
5, 77280, Note_on_c, 2, 62, 80
5, 77519, Note_on_c, 2, 62, 0
5, 77520, Note_on_c, 2, 57, 80
5, 77759, Note_on_c, 2, 57, 0
5, 77760, Note_on_c, 2, 53, 80
5, 77999, Note_on_c, 2, 53, 0
5, 78000, Note_on_c, 2, 57, 80
5, 78239, Note_on_c, 2, 57, 0
5, 78240, Note_on_c, 2, 62, 80
5, 78479, Note_on_c, 2, 62, 0
5, 78480, Note_on_c, 2, 57, 80
5, 78719, Note_on_c, 2, 57, 0
5, 78720, Note_on_c, 2, 53, 80
5, 78959, Note_on_c, 2, 53, 0
5, 78960, Note_on_c, 2, 57, 80
5, 79199, Note_on_c, 2, 57, 0
5, 79200, Note_on_c, 2, 62, 80
5, 79439, Note_on_c, 2, 62, 0
5, 79440, Note_on_c, 2, 57, 80
5, 79679, Note_on_c, 2, 57, 0
5, 79680, Note_on_c, 2, 53, 80
5, 79919, Note_on_c, 2, 53, 0
5, 79920, Note_on_c, 2, 57, 80
5, 80159, Note_on_c, 2, 57, 0
5, 80160, Note_on_c, 2, 62, 80
5, 80399, Note_on_c, 2, 62, 0
5, 80400, Note_on_c, 2, 57, 80
5, 80639, Note_on_c, 2, 57, 0
5, 80640, Note_on_c, 2, 52, 80
5, 80879, Note_on_c, 2, 52, 0
5, 80880, Note_on_c, 2, 57, 80
5, 81119, Note_on_c, 2, 57, 0
5, 81120, Note_on_c, 2, 60, 80
5, 81359, Note_on_c, 2, 60, 0
5, 81360, Note_on_c, 2, 57, 80
5, 81599, Note_on_c, 2, 57, 0
5, 81600, Note_on_c, 2, 52, 80
5, 81839, Note_on_c, 2, 52, 0
5, 81840, Note_on_c, 2, 57, 80
5, 82079, Note_on_c, 2, 57, 0
5, 82080, Note_on_c, 2, 60, 80
5, 82319, Note_on_c, 2, 60, 0
5, 82320, Note_on_c, 2, 57, 80
5, 82559, Note_on_c, 2, 57, 0
5, 82560, Note_on_c, 2, 52, 80
5, 82799, Note_on_c, 2, 52, 0
5, 82800, Note_on_c, 2, 57, 80
5, 83039, Note_on_c, 2, 57, 0
5, 83040, Note_on_c, 2, 60, 80
5, 83279, Note_on_c, 2, 60, 0
5, 83280, Note_on_c, 2, 57, 80
5, 83519, Note_on_c, 2, 57, 0
5, 83520, Note_on_c, 2, 52, 80
5, 83759, Note_on_c, 2, 52, 0
5, 83760, Note_on_c, 2, 57, 80
5, 83999, Note_on_c, 2, 57, 0
5, 84000, Note_on_c, 2, 60, 80
5, 84239, Note_on_c, 2, 60, 0
5, 84240, Note_on_c, 2, 57, 80
5, 84479, Note_on_c, 2, 57, 0
5, 84480, Note_on_c, 2, 52, 80
5, 84719, Note_on_c, 2, 52, 0
5, 84720, Note_on_c, 2, 55, 80
5, 84959, Note_on_c, 2, 55, 0
5, 84960, Note_on_c, 2, 60, 80
5, 85199, Note_on_c, 2, 60, 0
5, 85200, Note_on_c, 2, 55, 80
5, 85439, Note_on_c, 2, 55, 0
5, 85440, Note_on_c, 2, 52, 80
5, 85679, Note_on_c, 2, 52, 0
5, 85680, Note_on_c, 2, 55, 80
5, 85919, Note_on_c, 2, 55, 0
5, 85920, Note_on_c, 2, 60, 80
5, 86159, Note_on_c, 2, 60, 0
5, 86160, Note_on_c, 2, 55, 80
5, 86399, Note_on_c, 2, 55, 0
5, 86400, Note_on_c, 2, 52, 80
5, 86639, Note_on_c, 2, 52, 0
5, 86640, Note_on_c, 2, 55, 80
5, 86879, Note_on_c, 2, 55, 0
5, 86880, Note_on_c, 2, 60, 80
5, 87119, Note_on_c, 2, 60, 0
5, 87120, Note_on_c, 2, 55, 80
5, 87359, Note_on_c, 2, 55, 0
5, 87360, Note_on_c, 2, 52, 80
5, 87599, Note_on_c, 2, 52, 0
5, 87600, Note_on_c, 2, 55, 80
5, 87839, Note_on_c, 2, 55, 0
5, 87840, Note_on_c, 2, 60, 80
5, 88079, Note_on_c, 2, 60, 0
5, 88080, Note_on_c, 2, 55, 80
5, 88319, Note_on_c, 2, 55, 0
5, 88320, Note_on_c, 2, 50, 80
5, 88559, Note_on_c, 2, 50, 0
5, 88560, Note_on_c, 2, 55, 80
5, 88799, Note_on_c, 2, 55, 0
5, 88800, Note_on_c, 2, 59, 80
5, 89039, Note_on_c, 2, 59, 0
5, 89040, Note_on_c, 2, 55, 80
5, 89279, Note_on_c, 2, 55, 0
5, 89280, Note_on_c, 2, 50, 80
5, 89519, Note_on_c, 2, 50, 0
5, 89520, Note_on_c, 2, 55, 80
5, 89759, Note_on_c, 2, 55, 0
5, 89760, Note_on_c, 2, 59, 80
5, 89999, Note_on_c, 2, 59, 0
5, 90000, Note_on_c, 2, 55, 80
5, 90239, Note_on_c, 2, 55, 0
5, 90240, Note_on_c, 2, 50, 80
5, 90479, Note_on_c, 2, 50, 0
5, 90480, Note_on_c, 2, 55, 80
5, 90719, Note_on_c, 2, 55, 0
5, 90720, Note_on_c, 2, 59, 80
5, 90959, Note_on_c, 2, 59, 0
5, 90960, Note_on_c, 2, 55, 80
5, 91199, Note_on_c, 2, 55, 0
5, 91200, Note_on_c, 2, 50, 80
5, 91439, Note_on_c, 2, 50, 0
5, 91440, Note_on_c, 2, 55, 80
5, 91679, Note_on_c, 2, 55, 0
5, 91680, Note_on_c, 2, 59, 80
5, 91919, Note_on_c, 2, 59, 0
5, 91920, Note_on_c, 2, 55, 80
5, 92159, Note_on_c, 2, 55, 0
5, 92160, Note_on_c, 2, 53, 80
5, 92399, Note_on_c, 2, 53, 0
5, 92400, Note_on_c, 2, 57, 80
5, 92639, Note_on_c, 2, 57, 0
5, 92640, Note_on_c, 2, 62, 80
5, 92879, Note_on_c, 2, 62, 0
5, 92880, Note_on_c, 2, 65, 80
5, 93119, Note_on_c, 2, 65, 0
5, 93120, Note_on_c, 2, 69, 80
5, 93359, Note_on_c, 2, 69, 0
5, 93360, Note_on_c, 2, 74, 80
5, 93599, Note_on_c, 2, 74, 0
5, 93600, Note_on_c, 2, 65, 80
5, 93839, Note_on_c, 2, 65, 0
5, 93840, Note_on_c, 2, 69, 80
5, 94079, Note_on_c, 2, 69, 0
5, 94080, Note_on_c, 2, 53, 80
5, 94319, Note_on_c, 2, 53, 0
5, 94320, Note_on_c, 2, 57, 80
5, 94559, Note_on_c, 2, 57, 0
5, 94560, Note_on_c, 2, 62, 80
5, 94799, Note_on_c, 2, 62, 0
5, 94800, Note_on_c, 2, 65, 80
5, 95039, Note_on_c, 2, 65, 0
5, 95040, Note_on_c, 2, 69, 80
5, 95279, Note_on_c, 2, 69, 0
5, 95280, Note_on_c, 2, 74, 80
5, 95519, Note_on_c, 2, 74, 0
5, 95520, Note_on_c, 2, 65, 80
5, 95759, Note_on_c, 2, 65, 0
5, 95760, Note_on_c, 2, 69, 80
5, 95999, Note_on_c, 2, 69, 0
5, 96000, Note_on_c, 2, 52, 80
5, 96239, Note_on_c, 2, 52, 0
5, 96240, Note_on_c, 2, 57, 80
5, 96479, Note_on_c, 2, 57, 0
5, 96480, Note_on_c, 2, 60, 80
5, 96719, Note_on_c, 2, 60, 0
5, 96720, Note_on_c, 2, 64, 80
5, 96959, Note_on_c, 2, 64, 0
5, 96960, Note_on_c, 2, 69, 80
5, 97199, Note_on_c, 2, 69, 0
5, 97200, Note_on_c, 2, 72, 80
5, 97439, Note_on_c, 2, 72, 0
5, 97440, Note_on_c, 2, 64, 80
5, 97679, Note_on_c, 2, 64, 0
5, 97680, Note_on_c, 2, 69, 80
5, 97919, Note_on_c, 2, 69, 0
5, 97920, Note_on_c, 2, 52, 80
5, 98159, Note_on_c, 2, 52, 0
5, 98160, Note_on_c, 2, 57, 80
5, 98399, Note_on_c, 2, 57, 0
5, 98400, Note_on_c, 2, 60, 80
5, 98639, Note_on_c, 2, 60, 0
5, 98640, Note_on_c, 2, 64, 80
5, 98879, Note_on_c, 2, 64, 0
5, 98880, Note_on_c, 2, 69, 80
5, 99119, Note_on_c, 2, 69, 0
5, 99120, Note_on_c, 2, 72, 80
5, 99359, Note_on_c, 2, 72, 0
5, 99360, Note_on_c, 2, 64, 80
5, 99599, Note_on_c, 2, 64, 0
5, 99600, Note_on_c, 2, 69, 80
5, 99839, Note_on_c, 2, 69, 0
5, 99840, Note_on_c, 2, 52, 80
5, 100079, Note_on_c, 2, 52, 0
5, 100080, Note_on_c, 2, 55, 80
5, 100319, Note_on_c, 2, 55, 0
5, 100320, Note_on_c, 2, 60, 80
5, 100559, Note_on_c, 2, 60, 0
5, 100560, Note_on_c, 2, 64, 80
5, 100799, Note_on_c, 2, 64, 0
5, 100800, Note_on_c, 2, 67, 80
5, 101039, Note_on_c, 2, 67, 0
5, 101040, Note_on_c, 2, 72, 80
5, 101279, Note_on_c, 2, 72, 0
5, 101280, Note_on_c, 2, 64, 80
5, 101519, Note_on_c, 2, 64, 0
5, 101520, Note_on_c, 2, 67, 80
5, 101759, Note_on_c, 2, 67, 0
5, 101760, Note_on_c, 2, 52, 80
5, 101999, Note_on_c, 2, 52, 0
5, 102000, Note_on_c, 2, 55, 80
5, 102239, Note_on_c, 2, 55, 0
5, 102240, Note_on_c, 2, 60, 80
5, 102479, Note_on_c, 2, 60, 0
5, 102480, Note_on_c, 2, 64, 80
5, 102719, Note_on_c, 2, 64, 0
5, 102720, Note_on_c, 2, 67, 80
5, 102959, Note_on_c, 2, 67, 0
5, 102960, Note_on_c, 2, 72, 80
5, 103199, Note_on_c, 2, 72, 0
5, 103200, Note_on_c, 2, 64, 80
5, 103439, Note_on_c, 2, 64, 0
5, 103440, Note_on_c, 2, 67, 80
5, 103679, Note_on_c, 2, 67, 0
5, 103680, Note_on_c, 2, 50, 80
5, 103919, Note_on_c, 2, 50, 0
5, 103920, Note_on_c, 2, 55, 80
5, 104159, Note_on_c, 2, 55, 0
5, 104160, Note_on_c, 2, 59, 80
5, 104399, Note_on_c, 2, 59, 0
5, 104400, Note_on_c, 2, 62, 80
5, 104639, Note_on_c, 2, 62, 0
5, 104640, Note_on_c, 2, 67, 80
5, 104879, Note_on_c, 2, 67, 0
5, 104880, Note_on_c, 2, 62, 80
5, 105119, Note_on_c, 2, 62, 0
5, 105120, Note_on_c, 2, 59, 80
5, 105359, Note_on_c, 2, 59, 0
5, 105360, Note_on_c, 2, 55, 80
5, 105599, Note_on_c, 2, 55, 0
5, 105600, Note_on_c, 2, 50, 80
5, 105839, Note_on_c, 2, 50, 0
5, 105840, Note_on_c, 2, 55, 80
5, 106079, Note_on_c, 2, 55, 0
5, 106080, Note_on_c, 2, 59, 80
5, 106319, Note_on_c, 2, 59, 0
5, 106320, Note_on_c, 2, 62, 80
5, 106559, Note_on_c, 2, 62, 0
5, 106560, Note_on_c, 2, 67, 80
5, 106799, Note_on_c, 2, 67, 0
5, 106800, Note_on_c, 2, 62, 80
5, 107039, Note_on_c, 2, 62, 0
5, 107040, Note_on_c, 2, 59, 80
5, 107279, Note_on_c, 2, 59, 0
5, 107280, Note_on_c, 2, 55, 80
5, 107519, Note_on_c, 2, 55, 0
5, 107520, Note_on_c, 2, 50, 80
5, 107999, Note_on_c, 2, 50, 0
5, 108000, End_track
0, 0, End_of_file
