0, 0, Header, 1, 3, 480
1, 0, Start_track
1, 0, Title_t, "Piano, Piano\000"
1, 0, Time_signature, 1, 3, 24, 8
1, 0, Key_signature, 0, "major"
1, 0, Tempo, 526316
1, 0, Control_c, 0, 121, 0
1, 0, Program_c, 0, 0
1, 0, Control_c, 0, 7, 100
1, 0, Control_c, 0, 10, 64
1, 0, Control_c, 0, 91, 0
1, 0, Control_c, 0, 93, 0
1, 0, MIDI_port, 0
1, 0, Note_on_c, 0, 72, 80
1, 227, Note_on_c, 0, 72, 0
1, 240, Time_signature, 4, 2, 24, 8
1, 240, Note_on_c, 0, 74, 80
1, 695, Note_on_c, 0, 74, 0
1, 720, Note_on_c, 0, 72, 80
1, 1175, Note_on_c, 0, 72, 0
1, 1200, Note_on_c, 0, 71, 80
1, 1427, Note_on_c, 0, 71, 0
1, 1440, Note_on_c, 0, 69, 80
1, 1895, Note_on_c, 0, 69, 0
1, 1920, Note_on_c, 0, 74, 80
1, 2375, Note_on_c, 0, 74, 0
1, 2400, Note_on_c, 0, 72, 80
1, 2855, Note_on_c, 0, 72, 0
1, 2880, Note_on_c, 0, 71, 80
1, 3335, Note_on_c, 0, 71, 0
1, 3360, Note_on_c, 0, 69, 80
1, 3815, Note_on_c, 0, 69, 0
1, 3840, Note_on_c, 0, 69, 80
1, 4067, Note_on_c, 0, 69, 0
1, 4080, Note_on_c, 0, 67, 80
1, 4763, Note_on_c, 0, 67, 0
1, 4800, Note_on_c, 0, 65, 80
1, 5027, Note_on_c, 0, 65, 0
1, 5040, Note_on_c, 0, 65, 80
1, 5381, Note_on_c, 0, 65, 0
1, 5400, Note_on_c, 0, 67, 80
1, 5741, Note_on_c, 0, 67, 0
1, 5760, Note_on_c, 0, 64, 80
1, 5987, Note_on_c, 0, 64, 0
1, 6000, Note_on_c, 0, 64, 80
1, 7595, Note_on_c, 0, 64, 0
1, 7680, Note_on_c, 0, 64, 80
1, 7907, Note_on_c, 0, 64, 0
1, 7920, Note_on_c, 0, 64, 80
1, 8375, Note_on_c, 0, 64, 0
1, 8400, Note_on_c, 0, 64, 80
1, 8627, Note_on_c, 0, 64, 0
1, 8640, Note_on_c, 0, 64, 80
1, 9095, Note_on_c, 0, 64, 0
1, 9120, Note_on_c, 0, 76, 80
1, 9347, Note_on_c, 0, 76, 0
1, 9360, Note_on_c, 0, 76, 80
1, 9815, Note_on_c, 0, 76, 0
1, 9840, Note_on_c, 0, 71, 80
1, 9840, Note_on_c, 0, 74, 80
1, 10523, Note_on_c, 0, 71, 0
1, 10523, Note_on_c, 0, 74, 0
1, 10560, Note_on_c, 0, 72, 80
1, 11471, Note_on_c, 0, 72, 0
1, 11520, Note_on_c, 0, 72, 80
1, 11747, Note_on_c, 0, 72, 0
1, 11760, Note_on_c, 0, 71, 80
1, 12215, Note_on_c, 0, 71, 0
1, 12240, Note_on_c, 0, 71, 80
1, 12467, Note_on_c, 0, 71, 0
1, 12480, Note_on_c, 0, 71, 80
1, 12935, Note_on_c, 0, 71, 0
1, 12960, Note_on_c, 0, 72, 80
1, 13187, Note_on_c, 0, 72, 0
1, 13200, Note_on_c, 0, 72, 80
1, 13655, Note_on_c, 0, 72, 0
1, 15360, Note_on_c, 0, 72, 80
1, 15587, Note_on_c, 0, 72, 0
1, 15600, Note_on_c, 0, 74, 80
1, 16055, Note_on_c, 0, 74, 0
1, 16080, Note_on_c, 0, 72, 80
1, 16535, Note_on_c, 0, 72, 0
1, 16560, Note_on_c, 0, 71, 80
1, 16787, Note_on_c, 0, 71, 0
1, 16800, Note_on_c, 0, 69, 80
1, 17255, Note_on_c, 0, 69, 0
1, 17280, Note_on_c, 0, 74, 80
1, 17735, Note_on_c, 0, 74, 0
1, 17760, Note_on_c, 0, 72, 80
1, 18215, Note_on_c, 0, 72, 0
1, 18240, Note_on_c, 0, 71, 80
1, 18695, Note_on_c, 0, 71, 0
1, 18720, Note_on_c, 0, 69, 80
1, 19175, Note_on_c, 0, 69, 0
1, 19200, Note_on_c, 0, 69, 80
1, 19427, Note_on_c, 0, 69, 0
1, 19440, Note_on_c, 0, 67, 80
1, 20123, Note_on_c, 0, 67, 0
1, 20160, Note_on_c, 0, 65, 80
1, 20387, Note_on_c, 0, 65, 0
1, 20400, Note_on_c, 0, 65, 80
1, 20741, Note_on_c, 0, 65, 0
1, 20760, Note_on_c, 0, 67, 80
1, 21101, Note_on_c, 0, 67, 0
1, 21120, Note_on_c, 0, 64, 80
1, 21347, Note_on_c, 0, 64, 0
1, 23040, Note_on_c, 0, 64, 80
1, 23267, Note_on_c, 0, 64, 0
1, 23280, Note_on_c, 0, 64, 80
1, 23735, Note_on_c, 0, 64, 0
1, 23760, Note_on_c, 0, 64, 80
1, 23987, Note_on_c, 0, 64, 0
1, 24000, Note_on_c, 0, 64, 80
1, 24455, Note_on_c, 0, 64, 0
1, 24480, Note_on_c, 0, 76, 80
1, 24707, Note_on_c, 0, 76, 0
1, 24720, Note_on_c, 0, 76, 80
1, 25175, Note_on_c, 0, 76, 0
1, 26880, Note_on_c, 0, 72, 80
1, 27107, Note_on_c, 0, 72, 0
1, 27120, Note_on_c, 0, 67, 80
1, 27120, Note_on_c, 0, 71, 80
1, 27575, Note_on_c, 0, 67, 0
1, 27575, Note_on_c, 0, 71, 0
1, 27600, Note_on_c, 0, 71, 80
1, 27827, Note_on_c, 0, 71, 0
1, 27840, Note_on_c, 0, 71, 80
1, 28295, Note_on_c, 0, 71, 0
1, 28320, Note_on_c, 0, 72, 80
1, 28775, Note_on_c, 0, 72, 0
1, 28800, Note_on_c, 0, 72, 80
1, 29027, Note_on_c, 0, 72, 0
1, 32640, Note_on_c, 0, 71, 80
1, 32867, Note_on_c, 0, 71, 0
1, 32880, Note_on_c, 0, 72, 80
1, 32880, Note_on_c, 0, 60, 80
1, 33221, Note_on_c, 0, 72, 0
1, 33240, Note_on_c, 0, 72, 80
1, 33581, Note_on_c, 0, 72, 0
1, 33600, Note_on_c, 0, 72, 80
1, 34019, Note_on_c, 0, 60, 0
1, 34080, Note_on_c, 0, 60, 80
1, 34283, Note_on_c, 0, 72, 0
1, 34320, Note_on_c, 0, 72, 80
1, 34559, Note_on_c, 0, 72, 0
1, 34763, Note_on_c, 0, 60, 0
1, 34800, Note_on_c, 0, 72, 80
1, 34800, Note_on_c, 0, 76, 80
1, 35141, Note_on_c, 0, 72, 0
1, 35141, Note_on_c, 0, 76, 0
1, 35160, Note_on_c, 0, 74, 80
1, 35501, Note_on_c, 0, 74, 0
1, 35520, Note_on_c, 0, 74, 80
1, 36000, Note_on_c, 0, 60, 80
1, 36227, Note_on_c, 0, 60, 0
1, 36240, Note_on_c, 0, 64, 80
1, 36431, Note_on_c, 0, 74, 0
1, 36480, Note_on_c, 0, 72, 80
1, 36695, Note_on_c, 0, 64, 0
1, 36707, Note_on_c, 0, 72, 0
1, 36720, Note_on_c, 0, 67, 80
1, 36720, Note_on_c, 0, 74, 80
1, 37061, Note_on_c, 0, 67, 0
1, 37061, Note_on_c, 0, 74, 0
1, 37080, Note_on_c, 0, 72, 80
1, 37421, Note_on_c, 0, 72, 0
1, 37440, Note_on_c, 0, 71, 80
1, 37895, Note_on_c, 0, 71, 0
1, 37920, Note_on_c, 0, 67, 80
1, 38160, Note_on_c, 0, 59, 80
1, 38375, Note_on_c, 0, 67, 0
1, 38400, Note_on_c, 0, 64, 80
1, 38615, Note_on_c, 0, 59, 0
1, 38640, Note_on_c, 0, 59, 80
1, 39095, Note_on_c, 0, 59, 0
1, 40320, Note_on_c, 0, 71, 80
1, 40451, Note_on_c, 0, 64, 0
1, 40547, Note_on_c, 0, 71, 0
1, 40560, Note_on_c, 0, 72, 80
1, 40560, Note_on_c, 0, 60, 80
1, 40920, Note_on_c, 0, 72, 0
1, 40920, Note_on_c, 0, 72, 80
1, 41280, Note_on_c, 0, 64, 80
1, 41507, Note_on_c, 0, 64, 0
1, 41585, Note_on_c, 0, 60, 0
1, 41717, Note_on_c, 0, 72, 0
1, 41760, Note_on_c, 0, 60, 80
1, 41760, Note_on_c, 0, 72, 80
1, 42000, Note_on_c, 0, 67, 80
1, 42240, Note_on_c, 0, 76, 80
1, 42443, Note_on_c, 0, 60, 0
1, 42443, Note_on_c, 0, 72, 0
1, 42455, Note_on_c, 0, 67, 0
1, 42467, Note_on_c, 0, 76, 0
1, 42480, Note_on_c, 0, 72, 80
1, 42480, Note_on_c, 0, 76, 80
1, 42935, Note_on_c, 0, 72, 0
1, 42935, Note_on_c, 0, 76, 0
1, 43200, Note_on_c, 0, 64, 80
1, 43200, Note_on_c, 0, 74, 80
1, 43655, Note_on_c, 0, 64, 0
1, 43655, Note_on_c, 0, 74, 0
1, 43680, Note_on_c, 0, 72, 80
1, 43920, Note_on_c, 0, 64, 80
1, 44363, Note_on_c, 0, 72, 0
1, 44375, Note_on_c, 0, 64, 0
1, 44400, Note_on_c, 0, 67, 80
1, 44400, Note_on_c, 0, 76, 80
1, 44855, Note_on_c, 0, 67, 0
1, 44855, Note_on_c, 0, 76, 0
1, 44880, Note_on_c, 0, 74, 80
1, 45107, Note_on_c, 0, 74, 0
1, 45120, Note_on_c, 0, 74, 80
1, 45803, Note_on_c, 0, 74, 0
1, 45840, Note_on_c, 0, 71, 80
1, 46079, Note_on_c, 0, 71, 0
1, 46080, Note_on_c, 0, 72, 80
1, 46320, Note_on_c, 0, 64, 80
1, 46320, Note_on_c, 0, 67, 80
1, 47003, Note_on_c, 0, 64, 0
1, 47003, Note_on_c, 0, 67, 0
1, 47040, Note_on_c, 0, 62, 80
1, 47040, Note_on_c, 0, 67, 80
1, 47951, Note_on_c, 0, 62, 0
1, 47951, Note_on_c, 0, 67, 0
1, 48000, Note_on_c, 0, 67, 80
1, 48131, Note_on_c, 0, 72, 0
1, 48227, Note_on_c, 0, 67, 0
1, 48240, Note_on_c, 0, 67, 80
1, 48467, Note_on_c, 0, 67, 0
1, 48480, Note_on_c, 0, 64, 80
1, 48593, Note_on_c, 0, 64, 0
1, 48600, Note_on_c, 0, 64, 80
1, 48941, Note_on_c, 0, 64, 0
1, 48960, Note_on_c, 0, 64, 80
1, 49187, Note_on_c, 0, 64, 0
1, 49200, Note_on_c, 0, 62, 80
1, 49319, Note_on_c, 0, 62, 0
1, 49440, Note_on_c, 0, 64, 80
1, 49553, Note_on_c, 0, 64, 0
1, 49560, Note_on_c, 0, 64, 80
1, 49673, Note_on_c, 0, 64, 0
1, 49920, Note_on_c, 0, 67, 80
1, 50147, Note_on_c, 0, 67, 0
1, 50160, Note_on_c, 0, 67, 80
1, 50387, Note_on_c, 0, 67, 0
1, 50400, Note_on_c, 0, 64, 80
1, 50513, Note_on_c, 0, 64, 0
1, 50520, Note_on_c, 0, 64, 80
1, 50633, Note_on_c, 0, 64, 0
1, 50880, Note_on_c, 0, 64, 80
1, 51107, Note_on_c, 0, 64, 0
1, 51120, Note_on_c, 0, 62, 80
1, 51239, Note_on_c, 0, 62, 0
1, 51360, Note_on_c, 0, 62, 80
1, 51473, Note_on_c, 0, 62, 0
1, 51480, Note_on_c, 0, 64, 80
1, 51821, Note_on_c, 0, 64, 0
1, 51840, Note_on_c, 0, 67, 80
1, 52067, Note_on_c, 0, 67, 0
1, 52080, Note_on_c, 0, 67, 80
1, 52307, Note_on_c, 0, 67, 0
1, 52320, Note_on_c, 0, 64, 80
1, 52433, Note_on_c, 0, 64, 0
1, 52440, Note_on_c, 0, 64, 80
1, 52553, Note_on_c, 0, 64, 0
1, 52800, Note_on_c, 0, 64, 80
1, 53027, Note_on_c, 0, 64, 0
1, 53040, Note_on_c, 0, 62, 80
1, 53381, Note_on_c, 0, 62, 0
1, 53400, Note_on_c, 0, 62, 80
1, 53741, Note_on_c, 0, 62, 0
1, 53760, Note_on_c, 0, 64, 80
1, 53987, Note_on_c, 0, 64, 0
1, 54000, Note_on_c, 0, 62, 80
1, 54683, Note_on_c, 0, 62, 0
1, 54720, Note_on_c, 0, 74, 80
1, 54947, Note_on_c, 0, 74, 0
1, 54960, Note_on_c, 0, 69, 80
1, 54960, Note_on_c, 0, 72, 80
1, 54960, Note_on_c, 0, 76, 80
1, 55415, Note_on_c, 0, 69, 0
1, 55415, Note_on_c, 0, 72, 0
1, 55415, Note_on_c, 0, 76, 0
1, 55440, Note_on_c, 0, 69, 80
1, 55440, Note_on_c, 0, 72, 80
1, 55440, Note_on_c, 0, 74, 80
1, 55895, Note_on_c, 0, 69, 0
1, 55895, Note_on_c, 0, 72, 0
1, 55895, Note_on_c, 0, 74, 0
1, 55920, Note_on_c, 0, 69, 80
1, 55920, Note_on_c, 0, 72, 80
1, 55920, Note_on_c, 0, 76, 80
1, 56261, Note_on_c, 0, 69, 0
1, 56261, Note_on_c, 0, 72, 0
1, 56261, Note_on_c, 0, 76, 0
1, 56280, Note_on_c, 0, 69, 80
1, 56280, Note_on_c, 0, 72, 80
1, 56280, Note_on_c, 0, 74, 80
1, 56621, Note_on_c, 0, 69, 0
1, 56621, Note_on_c, 0, 72, 0
1, 56621, Note_on_c, 0, 74, 0
1, 56640, Note_on_c, 0, 69, 80
1, 56640, Note_on_c, 0, 72, 80
1, 56640, Note_on_c, 0, 74, 80
1, 56759, Note_on_c, 0, 69, 0
1, 56759, Note_on_c, 0, 72, 0
1, 56759, Note_on_c, 0, 74, 0
1, 56880, Note_on_c, 0, 69, 80
1, 56880, Note_on_c, 0, 72, 80
1, 56880, Note_on_c, 0, 74, 80
1, 57221, Note_on_c, 0, 69, 0
1, 57221, Note_on_c, 0, 72, 0
1, 57221, Note_on_c, 0, 74, 0
1, 57240, Note_on_c, 0, 72, 80
1, 57581, Note_on_c, 0, 72, 0
1, 57600, Note_on_c, 0, 71, 80
1, 57827, Note_on_c, 0, 71, 0
1, 57840, Note_on_c, 0, 62, 80
1, 57840, Note_on_c, 0, 71, 80
1, 58181, Note_on_c, 0, 62, 0
1, 58181, Note_on_c, 0, 71, 0
1, 58200, Note_on_c, 0, 60, 80
1, 58200, Note_on_c, 0, 72, 80
1, 58541, Note_on_c, 0, 60, 0
1, 58541, Note_on_c, 0, 72, 0
1, 58560, Note_on_c, 0, 71, 80
1, 59015, Note_on_c, 0, 71, 0
1, 59040, Note_on_c, 0, 62, 80
1, 59040, Note_on_c, 0, 67, 80
1, 59495, Note_on_c, 0, 62, 0
1, 59495, Note_on_c, 0, 67, 0
1, 59520, Note_on_c, 0, 64, 80
1, 59747, Note_on_c, 0, 64, 0
1, 59760, Note_on_c, 0, 69, 80
1, 59760, Note_on_c, 0, 72, 80
1, 59760, Note_on_c, 0, 76, 80
1, 60101, Note_on_c, 0, 69, 0
1, 60101, Note_on_c, 0, 72, 0
1, 60101, Note_on_c, 0, 76, 0
1, 60120, Note_on_c, 0, 72, 80
1, 60120, Note_on_c, 0, 74, 80
1, 60461, Note_on_c, 0, 72, 0
1, 60461, Note_on_c, 0, 74, 0
1, 60480, Note_on_c, 0, 69, 80
1, 60480, Note_on_c, 0, 72, 80
1, 60480, Note_on_c, 0, 74, 80
1, 60935, Note_on_c, 0, 69, 0
1, 60935, Note_on_c, 0, 72, 0
1, 60935, Note_on_c, 0, 74, 0
1, 60960, Note_on_c, 0, 60, 80
1, 60960, Note_on_c, 0, 64, 80
1, 60960, Note_on_c, 0, 72, 80
1, 61187, Note_on_c, 0, 60, 0
1, 61319, Note_on_c, 0, 64, 0
1, 61319, Note_on_c, 0, 72, 0
1, 61440, Note_on_c, 0, 60, 80
1, 61440, Note_on_c, 0, 72, 80
1, 61667, Note_on_c, 0, 60, 0
1, 61667, Note_on_c, 0, 72, 0
1, 61680, Note_on_c, 0, 64, 80
1, 61680, Note_on_c, 0, 67, 80
1, 61680, Note_on_c, 0, 71, 80
1, 62021, Note_on_c, 0, 64, 0
1, 62021, Note_on_c, 0, 67, 0
1, 62021, Note_on_c, 0, 71, 0
1, 62040, Note_on_c, 0, 60, 80
1, 62040, Note_on_c, 0, 72, 80
1, 62381, Note_on_c, 0, 60, 0
1, 62381, Note_on_c, 0, 72, 0
1, 62400, Note_on_c, 0, 71, 80
1, 62400, Note_on_c, 0, 74, 80
1, 62400, Note_on_c, 0, 79, 80
1, 62855, Note_on_c, 0, 71, 0
1, 62855, Note_on_c, 0, 74, 0
1, 62855, Note_on_c, 0, 79, 0
1, 62880, Note_on_c, 0, 64, 80
1, 62880, Note_on_c, 0, 67, 80
1, 62880, Note_on_c, 0, 71, 80
1, 63335, Note_on_c, 0, 64, 0
1, 63335, Note_on_c, 0, 67, 0
1, 63335, Note_on_c, 0, 71, 0
1, 63360, Note_on_c, 0, 72, 80
1, 63587, Note_on_c, 0, 72, 0
1, 63600, Note_on_c, 0, 72, 80
1, 63600, Note_on_c, 0, 77, 80
1, 63600, Note_on_c, 0, 81, 80
1, 63941, Note_on_c, 0, 72, 0
1, 63941, Note_on_c, 0, 77, 0
1, 63941, Note_on_c, 0, 81, 0
1, 63960, Note_on_c, 0, 72, 80
1, 63960, Note_on_c, 0, 77, 80
1, 63960, Note_on_c, 0, 79, 80
1, 64301, Note_on_c, 0, 72, 0
1, 64301, Note_on_c, 0, 77, 0
1, 64301, Note_on_c, 0, 79, 0
1, 64320, Note_on_c, 0, 76, 80
1, 64775, Note_on_c, 0, 76, 0
1, 64800, Note_on_c, 0, 64, 80
1, 64800, Note_on_c, 0, 72, 80
1, 65255, Note_on_c, 0, 64, 0
1, 65255, Note_on_c, 0, 72, 0
1, 65280, Note_on_c, 0, 72, 80
1, 65507, Note_on_c, 0, 72, 0
1, 65520, Note_on_c, 0, 62, 80
1, 65520, Note_on_c, 0, 67, 80
1, 65520, Note_on_c, 0, 72, 80
1, 65975, Note_on_c, 0, 62, 0
1, 65975, Note_on_c, 0, 67, 0
1, 65975, Note_on_c, 0, 72, 0
1, 66000, Note_on_c, 0, 71, 80
1, 66227, Note_on_c, 0, 71, 0
1, 66240, Note_on_c, 0, 69, 80
1, 66240, Note_on_c, 0, 62, 80
1, 66240, Note_on_c, 0, 62, 0
1, 66695, Note_on_c, 0, 69, 0
1, 66720, Note_on_c, 0, 71, 80
1, 67175, Note_on_c, 0, 71, 0
1, 67200, Note_on_c, 0, 64, 80
1, 67200, Note_on_c, 0, 72, 80
1, 67200, Note_on_c, 0, 60, 80
1, 68339, Note_on_c, 0, 60, 0
1, 69251, Note_on_c, 0, 64, 0
1, 69251, Note_on_c, 0, 72, 0
1, 71040, Note_on_c, 0, 76, 80
1, 71267, Note_on_c, 0, 76, 0
1, 71280, Note_on_c, 0, 69, 80
1, 71280, Note_on_c, 0, 72, 80
1, 71280, Note_on_c, 0, 76, 80
1, 71507, Note_on_c, 0, 69, 0
1, 71507, Note_on_c, 0, 72, 0
1, 71507, Note_on_c, 0, 76, 0
1, 71520, Note_on_c, 0, 72, 80
1, 71520, Note_on_c, 0, 74, 80
1, 71633, Note_on_c, 0, 72, 0
1, 71633, Note_on_c, 0, 74, 0
1, 71640, Note_on_c, 0, 69, 80
1, 71640, Note_on_c, 0, 72, 80
1, 71640, Note_on_c, 0, 74, 80
1, 71981, Note_on_c, 0, 69, 0
1, 71981, Note_on_c, 0, 72, 0
1, 71981, Note_on_c, 0, 74, 0
1, 72000, Note_on_c, 0, 69, 80
1, 72000, Note_on_c, 0, 72, 80
1, 72000, Note_on_c, 0, 74, 80
1, 72227, Note_on_c, 0, 69, 0
1, 72227, Note_on_c, 0, 72, 0
1, 72227, Note_on_c, 0, 74, 0
1, 72240, Note_on_c, 0, 69, 80
1, 72240, Note_on_c, 0, 72, 80
1, 72240, Note_on_c, 0, 74, 80
1, 72467, Note_on_c, 0, 69, 0
1, 72467, Note_on_c, 0, 72, 0
1, 72467, Note_on_c, 0, 74, 0
1, 72480, Note_on_c, 0, 72, 80
1, 72593, Note_on_c, 0, 72, 0
1, 72600, Note_on_c, 0, 72, 80
1, 72941, Note_on_c, 0, 72, 0
1, 72960, Note_on_c, 0, 72, 80
1, 73187, Note_on_c, 0, 72, 0
1, 73200, Note_on_c, 0, 62, 80
1, 73200, Note_on_c, 0, 71, 80
1, 73560, Note_on_c, 0, 72, 80
1, 73655, Note_on_c, 0, 62, 0
1, 73655, Note_on_c, 0, 71, 0
1, 73901, Note_on_c, 0, 72, 0
1, 73920, Note_on_c, 0, 71, 80
1, 74375, Note_on_c, 0, 71, 0
1, 74400, Note_on_c, 0, 62, 80
1, 74400, Note_on_c, 0, 67, 80
1, 74627, Note_on_c, 0, 62, 0
1, 74759, Note_on_c, 0, 67, 0
1, 74880, Note_on_c, 0, 64, 80
1, 75107, Note_on_c, 0, 64, 0
1, 75120, Note_on_c, 0, 69, 80
1, 75120, Note_on_c, 0, 72, 80
1, 75120, Note_on_c, 0, 76, 80
1, 75347, Note_on_c, 0, 69, 0
1, 75347, Note_on_c, 0, 72, 0
1, 75347, Note_on_c, 0, 76, 0
1, 75360, Note_on_c, 0, 72, 80
1, 75360, Note_on_c, 0, 74, 80
1, 75473, Note_on_c, 0, 72, 0
1, 75473, Note_on_c, 0, 74, 0
1, 75480, Note_on_c, 0, 69, 80
1, 75480, Note_on_c, 0, 72, 80
1, 75480, Note_on_c, 0, 74, 80
1, 75821, Note_on_c, 0, 69, 0
1, 75821, Note_on_c, 0, 72, 0
1, 75821, Note_on_c, 0, 74, 0
1, 75840, Note_on_c, 0, 69, 80
1, 75840, Note_on_c, 0, 72, 80
1, 75840, Note_on_c, 0, 74, 80
1, 76067, Note_on_c, 0, 69, 0
1, 76067, Note_on_c, 0, 72, 0
1, 76067, Note_on_c, 0, 74, 0
1, 76080, Note_on_c, 0, 69, 80
1, 76080, Note_on_c, 0, 72, 80
1, 76080, Note_on_c, 0, 74, 80
1, 76307, Note_on_c, 0, 69, 0
1, 76307, Note_on_c, 0, 72, 0
1, 76307, Note_on_c, 0, 74, 0
1, 76320, Note_on_c, 0, 72, 80
1, 76433, Note_on_c, 0, 72, 0
1, 76440, Note_on_c, 0, 72, 80
1, 76781, Note_on_c, 0, 72, 0
1, 76800, Note_on_c, 0, 72, 80
1, 77027, Note_on_c, 0, 72, 0
1, 77040, Note_on_c, 0, 64, 80
1, 77040, Note_on_c, 0, 67, 80
1, 77040, Note_on_c, 0, 71, 80
1, 77400, Note_on_c, 0, 72, 80
1, 77495, Note_on_c, 0, 64, 0
1, 77495, Note_on_c, 0, 67, 0
1, 77495, Note_on_c, 0, 71, 0
1, 77741, Note_on_c, 0, 72, 0
1, 77760, Note_on_c, 0, 71, 80
1, 77760, Note_on_c, 0, 74, 80
1, 77760, Note_on_c, 0, 79, 80
1, 78215, Note_on_c, 0, 71, 0
1, 78215, Note_on_c, 0, 74, 0
1, 78215, Note_on_c, 0, 79, 0
1, 78240, Note_on_c, 0, 64, 80
1, 78240, Note_on_c, 0, 67, 80
1, 78240, Note_on_c, 0, 71, 80
1, 78695, Note_on_c, 0, 64, 0
1, 78695, Note_on_c, 0, 67, 0
1, 78695, Note_on_c, 0, 71, 0
1, 78720, Note_on_c, 0, 72, 80
1, 78947, Note_on_c, 0, 72, 0
1, 78960, Note_on_c, 0, 72, 80
1, 78960, Note_on_c, 0, 77, 80
1, 78960, Note_on_c, 0, 81, 80
1, 79301, Note_on_c, 0, 72, 0
1, 79301, Note_on_c, 0, 77, 0
1, 79301, Note_on_c, 0, 81, 0
1, 79320, Note_on_c, 0, 72, 80
1, 79320, Note_on_c, 0, 77, 80
1, 79320, Note_on_c, 0, 79, 80
1, 79661, Note_on_c, 0, 72, 0
1, 79661, Note_on_c, 0, 77, 0
1, 79661, Note_on_c, 0, 79, 0
1, 79680, Note_on_c, 0, 76, 80
1, 79907, Note_on_c, 0, 76, 0
1, 79920, Note_on_c, 0, 72, 80
1, 80603, Note_on_c, 0, 72, 0
1, 80640, Note_on_c, 0, 72, 80
1, 80867, Note_on_c, 0, 72, 0
1, 80880, Note_on_c, 0, 64, 80
1, 80880, Note_on_c, 0, 72, 80
1, 81335, Note_on_c, 0, 64, 0
1, 81335, Note_on_c, 0, 72, 0
1, 81360, Note_on_c, 0, 71, 80
1, 81587, Note_on_c, 0, 71, 0
1, 81600, Note_on_c, 0, 69, 80
1, 82055, Note_on_c, 0, 69, 0
1, 82080, Note_on_c, 0, 71, 80
1, 82535, Note_on_c, 0, 71, 0
1, 82560, Note_on_c, 0, 72, 80
1, 82560, Note_on_c, 0, 64, 80
1, 83040, Note_on_c, 0, 69, 80
1, 83243, Note_on_c, 0, 72, 0
1, 83267, Note_on_c, 0, 69, 0
1, 83280, Note_on_c, 0, 72, 80
1, 83520, Note_on_c, 0, 76, 80
1, 83747, Note_on_c, 0, 76, 0
1, 83760, Note_on_c, 0, 69, 80
1, 83963, Note_on_c, 0, 72, 0
1, 83999, Note_on_c, 0, 69, 0
1, 84000, Note_on_c, 0, 72, 80
1, 84000, Note_on_c, 0, 64, 0
1, 84240, Note_on_c, 0, 76, 80
1, 84467, Note_on_c, 0, 76, 0
1, 84480, Note_on_c, 0, 69, 80
1, 84683, Note_on_c, 0, 72, 0
1, 84707, Note_on_c, 0, 69, 0
1, 84720, Note_on_c, 0, 76, 80
1, 84947, Note_on_c, 0, 76, 0
1, 84960, Note_on_c, 0, 69, 80
1, 85187, Note_on_c, 0, 69, 0
1, 85200, Note_on_c, 0, 72, 80
1, 85427, Note_on_c, 0, 72, 0
1, 85440, Note_on_c, 0, 74, 80
1, 85667, Note_on_c, 0, 74, 0
1, 85680, Note_on_c, 0, 69, 80
1, 85907, Note_on_c, 0, 69, 0
1, 85920, Note_on_c, 0, 72, 80
1, 86147, Note_on_c, 0, 72, 0
1, 86160, Note_on_c, 0, 74, 80
1, 86387, Note_on_c, 0, 74, 0
1, 86400, Note_on_c, 0, 69, 80
1, 86627, Note_on_c, 0, 69, 0
1, 86640, Note_on_c, 0, 74, 80
1, 86867, Note_on_c, 0, 74, 0
1, 86880, Note_on_c, 0, 67, 80
1, 87107, Note_on_c, 0, 67, 0
1, 87120, Note_on_c, 0, 71, 80
1, 87347, Note_on_c, 0, 71, 0
1, 87360, Note_on_c, 0, 72, 80
1, 87587, Note_on_c, 0, 72, 0
1, 87600, Note_on_c, 0, 67, 80
1, 87827, Note_on_c, 0, 67, 0
1, 87840, Note_on_c, 0, 71, 80
1, 88295, Note_on_c, 0, 71, 0
1, 88320, Note_on_c, 0, 74, 80
1, 88547, Note_on_c, 0, 74, 0
1, 88560, Note_on_c, 0, 76, 80
1, 88901, Note_on_c, 0, 76, 0
1, 88920, Note_on_c, 0, 74, 80
1, 89261, Note_on_c, 0, 74, 0
1, 89280, Note_on_c, 0, 72, 80
1, 89735, Note_on_c, 0, 72, 0
1, 89760, Note_on_c, 0, 71, 80
1, 90215, Note_on_c, 0, 71, 0
1, 90240, Note_on_c, 0, 64, 80
1, 90240, Note_on_c, 0, 67, 80
1, 90240, Note_on_c, 0, 72, 80
1, 91379, Note_on_c, 0, 64, 0
1, 91379, Note_on_c, 0, 67, 0
1, 91379, Note_on_c, 0, 72, 0
1, 91440, Note_on_c, 0, 76, 80
1, 91500, Note_on_c, 0, 84, 80
1, 91895, Note_on_c, 0, 76, 0
1, 91898, Note_on_c, 0, 84, 0
1, 91920, Note_on_c, 0, 83, 80
1, 92375, Note_on_c, 0, 83, 0
1, 92400, Note_on_c, 0, 71, 80
1, 92400, Note_on_c, 0, 79, 80
1, 93083, Note_on_c, 0, 71, 0
1, 93083, Note_on_c, 0, 79, 0
1, 93120, Note_on_c, 0, 71, 80
1, 93120, Note_on_c, 0, 77, 80
1, 93575, Note_on_c, 0, 71, 0
1, 93575, Note_on_c, 0, 77, 0
1, 93600, Note_on_c, 0, 79, 80
1, 93600, Note_on_c, 0, 71, 80
1, 93827, Note_on_c, 0, 71, 0
1, 93959, Note_on_c, 0, 79, 0
1, 94080, Note_on_c, 0, 71, 80
1, 94080, Note_on_c, 0, 77, 80
1, 94307, Note_on_c, 0, 71, 0
1, 94307, Note_on_c, 0, 77, 0
1, 94320, Note_on_c, 0, 76, 80
1, 96143, Note_on_c, 0, 76, 0
1, 96240, Note_on_c, 0, 67, 80
1, 96240, Note_on_c, 0, 71, 80
1, 97607, Note_on_c, 0, 67, 0
1, 97607, Note_on_c, 0, 71, 0
1, 97920, Note_on_c, 0, 72, 80
1, 98147, Note_on_c, 0, 72, 0
1, 98160, Note_on_c, 0, 74, 80
1, 98387, Note_on_c, 0, 74, 0
1, 98400, Note_on_c, 0, 72, 80
1, 98513, Note_on_c, 0, 72, 0
1, 98520, Note_on_c, 0, 74, 80
1, 98861, Note_on_c, 0, 74, 0
1, 98880, Note_on_c, 0, 72, 80
1, 99107, Note_on_c, 0, 72, 0
1, 99120, Note_on_c, 0, 74, 80
1, 99347, Note_on_c, 0, 74, 0
1, 99360, Note_on_c, 0, 72, 80
1, 99473, Note_on_c, 0, 72, 0
1, 99480, Note_on_c, 0, 74, 80
1, 99821, Note_on_c, 0, 74, 0
1, 99840, Note_on_c, 0, 72, 80
1, 100067, Note_on_c, 0, 72, 0
1, 100080, Note_on_c, 0, 71, 80
1, 100307, Note_on_c, 0, 71, 0
1, 100320, Note_on_c, 0, 71, 80
1, 100433, Note_on_c, 0, 71, 0
1, 100440, Note_on_c, 0, 71, 80
1, 100781, Note_on_c, 0, 71, 0
1, 100800, Note_on_c, 0, 71, 80
1, 101027, Note_on_c, 0, 71, 0
1, 101040, Note_on_c, 0, 71, 80
1, 101267, Note_on_c, 0, 71, 0
1, 101280, Note_on_c, 0, 71, 80
1, 101393, Note_on_c, 0, 71, 0
1, 101400, Note_on_c, 0, 72, 80
1, 101741, Note_on_c, 0, 72, 0
1, 101760, Note_on_c, 0, 72, 80
1, 101987, Note_on_c, 0, 72, 0
1, 102000, Note_on_c, 0, 74, 80
1, 102227, Note_on_c, 0, 74, 0
1, 102240, Note_on_c, 0, 72, 80
1, 102353, Note_on_c, 0, 72, 0
1, 102360, Note_on_c, 0, 74, 80
1, 102701, Note_on_c, 0, 74, 0
1, 102720, Note_on_c, 0, 72, 80
1, 102947, Note_on_c, 0, 72, 0
1, 102960, Note_on_c, 0, 74, 80
1, 103187, Note_on_c, 0, 74, 0
1, 103200, Note_on_c, 0, 72, 80
1, 103313, Note_on_c, 0, 72, 0
1, 103320, Note_on_c, 0, 74, 80
1, 103661, Note_on_c, 0, 74, 0
1, 103680, Note_on_c, 0, 72, 80
1, 103907, Note_on_c, 0, 72, 0
1, 103920, Note_on_c, 0, 71, 80
1, 104147, Note_on_c, 0, 71, 0
1, 104160, Note_on_c, 0, 71, 80
1, 104273, Note_on_c, 0, 71, 0
1, 104280, Note_on_c, 0, 71, 80
1, 104621, Note_on_c, 0, 71, 0
1, 104640, Note_on_c, 0, 71, 80
1, 104867, Note_on_c, 0, 71, 0
1, 104880, Note_on_c, 0, 71, 80
1, 105107, Note_on_c, 0, 71, 0
1, 105120, Note_on_c, 0, 71, 80
1, 105233, Note_on_c, 0, 71, 0
1, 105240, Note_on_c, 0, 72, 80
1, 105581, Note_on_c, 0, 72, 0
1, 105600, Note_on_c, 0, 72, 80
1, 105827, Note_on_c, 0, 72, 0
1, 105840, Note_on_c, 0, 74, 80
1, 106067, Note_on_c, 0, 74, 0
1, 106080, Note_on_c, 0, 72, 80
1, 106193, Note_on_c, 0, 72, 0
1, 106200, Note_on_c, 0, 74, 80
1, 106541, Note_on_c, 0, 74, 0
1, 106560, Note_on_c, 0, 72, 80
1, 106787, Note_on_c, 0, 72, 0
1, 106800, Note_on_c, 0, 74, 80
1, 107027, Note_on_c, 0, 74, 0
1, 107040, Note_on_c, 0, 72, 80
1, 107153, Note_on_c, 0, 72, 0
1, 107160, Note_on_c, 0, 74, 80
1, 107501, Note_on_c, 0, 74, 0
1, 107520, Note_on_c, 0, 72, 80
1, 107747, Note_on_c, 0, 72, 0
1, 107760, Note_on_c, 0, 74, 80
1, 107987, Note_on_c, 0, 74, 0
1, 108000, Note_on_c, 0, 72, 80
1, 108113, Note_on_c, 0, 72, 0
1, 108120, Note_on_c, 0, 74, 80
1, 108461, Note_on_c, 0, 74, 0
1, 108480, Note_on_c, 0, 72, 80
1, 108707, Note_on_c, 0, 72, 0
1, 108720, Note_on_c, 0, 74, 80
1, 108947, Note_on_c, 0, 74, 0
1, 108960, Note_on_c, 0, 72, 80
1, 109073, Note_on_c, 0, 72, 0
1, 109080, Note_on_c, 0, 74, 80
1, 109421, Note_on_c, 0, 74, 0
1, 109440, Note_on_c, 0, 72, 80
1, 109667, Note_on_c, 0, 72, 0
1, 109680, Note_on_c, 0, 74, 80
1, 109907, Note_on_c, 0, 74, 0
1, 109920, Note_on_c, 0, 72, 80
1, 110033, Note_on_c, 0, 72, 0
1, 110040, Note_on_c, 0, 74, 80
1, 110381, Note_on_c, 0, 74, 0
1, 110400, Note_on_c, 0, 72, 80
1, 110627, Note_on_c, 0, 72, 0
1, 110640, Note_on_c, 0, 74, 80
1, 110981, Note_on_c, 0, 74, 0
1, 111000, Note_on_c, 0, 72, 80
1, 111341, Note_on_c, 0, 72, 0
1, 111360, Note_on_c, 0, 64, 80
1, 111360, Note_on_c, 0, 74, 80
1, 111815, Note_on_c, 0, 64, 0
1, 111815, Note_on_c, 0, 74, 0
1, 111840, Note_on_c, 0, 60, 80
1, 111840, Note_on_c, 0, 64, 80
1, 111840, Note_on_c, 0, 72, 80
1, 112523, Note_on_c, 0, 60, 0
1, 112523, Note_on_c, 0, 64, 0
1, 112523, Note_on_c, 0, 72, 0
1, 112560, Note_on_c, 0, 64, 80
1, 112560, Note_on_c, 0, 72, 80
1, 112901, Note_on_c, 0, 64, 0
1, 112901, Note_on_c, 0, 72, 0
1, 112920, Note_on_c, 0, 71, 80
1, 113261, Note_on_c, 0, 71, 0
1, 113280, Note_on_c, 0, 60, 80
1, 113280, Note_on_c, 0, 67, 80
1, 113507, Note_on_c, 0, 60, 0
1, 113507, Note_on_c, 0, 67, 0
1, 113520, Note_on_c, 0, 60, 80
1, 113520, Note_on_c, 0, 64, 80
1, 113520, Note_on_c, 0, 69, 80
1, 114203, Note_on_c, 0, 60, 0
1, 114203, Note_on_c, 0, 64, 0
1, 114203, Note_on_c, 0, 69, 0
1, 114240, Note_on_c, 0, 69, 80
1, 114240, Note_on_c, 0, 72, 80
1, 114240, Note_on_c, 0, 76, 80
1, 114695, Note_on_c, 0, 69, 0
1, 114695, Note_on_c, 0, 72, 0
1, 114695, Note_on_c, 0, 76, 0
1, 116400, Note_on_c, 0, 71, 80
1, 116400, Note_on_c, 0, 74, 80
1, 116400, Note_on_c, 0, 67, 80
1, 116855, Note_on_c, 0, 67, 0
1, 117311, Note_on_c, 0, 71, 0
1, 117311, Note_on_c, 0, 74, 0
1, 117360, Note_on_c, 0, 67, 80
1, 117360, Note_on_c, 0, 71, 80
1, 117360, Note_on_c, 0, 74, 80
1, 118271, Note_on_c, 0, 67, 0
1, 118271, Note_on_c, 0, 71, 0
1, 118271, Note_on_c, 0, 74, 0
1, 118320, Note_on_c, 0, 67, 80
1, 118320, Note_on_c, 0, 71, 80
1, 118320, Note_on_c, 0, 74, 80
1, 118775, Note_on_c, 0, 67, 0
1, 118775, Note_on_c, 0, 71, 0
1, 118775, Note_on_c, 0, 74, 0
1, 118800, Note_on_c, 0, 67, 80
1, 118800, Note_on_c, 0, 74, 80
1, 119027, Note_on_c, 0, 67, 0
1, 119027, Note_on_c, 0, 74, 0
1, 119040, Note_on_c, 0, 67, 80
1, 119040, Note_on_c, 0, 74, 80
1, 119723, Note_on_c, 0, 67, 0
1, 119723, Note_on_c, 0, 74, 0
1, 119760, Note_on_c, 0, 72, 80
1, 119987, Note_on_c, 0, 72, 0
1, 120000, Note_on_c, 0, 71, 80
1, 120227, Note_on_c, 0, 71, 0
1, 120720, Note_on_c, 0, 64, 80
1, 121175, Note_on_c, 0, 64, 0
1, 121200, Note_on_c, 0, 71, 80
1, 121439, Note_on_c, 0, 71, 0
1, 121680, Note_on_c, 0, 67, 80
1, 121907, Note_on_c, 0, 67, 0
1, 121920, Note_on_c, 0, 69, 80
1, 122147, Note_on_c, 0, 69, 0
1, 122160, Note_on_c, 0, 72, 80
1, 122615, Note_on_c, 0, 72, 0
1, 122640, Note_on_c, 0, 76, 80
1, 123095, Note_on_c, 0, 76, 0
1, 123120, Note_on_c, 0, 81, 80
1, 124031, Note_on_c, 0, 81, 0
1, 124080, Note_on_c, 0, 79, 80
1, 124535, Note_on_c, 0, 79, 0
1, 124560, Note_on_c, 0, 77, 80
1, 125015, Note_on_c, 0, 77, 0
1, 125040, Note_on_c, 0, 76, 80
1, 125040, Note_on_c, 0, 72, 80
1, 126240, Note_on_c, 0, 72, 0
1, 126863, Note_on_c, 0, 76, 0
1, 128880, Note_on_c, 0, 74, 80
1, 130247, Note_on_c, 0, 74, 0
1, 130320, Note_on_c, 0, 74, 80
1, 130775, Note_on_c, 0, 74, 0
1, 130800, Note_on_c, 0, 71, 80
1, 130800, Note_on_c, 0, 74, 80
1, 131711, Note_on_c, 0, 71, 0
1, 131711, Note_on_c, 0, 74, 0
1, 131760, Note_on_c, 0, 71, 80
1, 132443, Note_on_c, 0, 71, 0
1, 132480, Note_on_c, 0, 71, 80
1, 132707, Note_on_c, 0, 71, 0
1, 132720, Note_on_c, 0, 71, 80
1, 133631, Note_on_c, 0, 71, 0
1, 133680, Note_on_c, 0, 72, 80
1, 134591, Note_on_c, 0, 72, 0
1, 134640, Note_on_c, 0, 71, 80
1, 135323, Note_on_c, 0, 71, 0
1, 135360, Note_on_c, 0, 69, 80
1, 136043, Note_on_c, 0, 69, 0
1, 136080, Note_on_c, 0, 67, 80
1, 136535, Note_on_c, 0, 67, 0
1, 136560, Note_on_c, 0, 64, 80
1, 137471, Note_on_c, 0, 64, 0
1, 138480, Note_on_c, 0, 67, 80
1, 138480, Note_on_c, 0, 72, 80
1, 138480, Note_on_c, 0, 74, 80
1, 139391, Note_on_c, 0, 67, 0
1, 139391, Note_on_c, 0, 72, 0
1, 139391, Note_on_c, 0, 74, 0
1, 139440, Note_on_c, 0, 67, 80
1, 139440, Note_on_c, 0, 71, 80
1, 140123, Note_on_c, 0, 67, 0
1, 140123, Note_on_c, 0, 71, 0
1, 140280, Note_on_c, 0, 67, 80
1, 140393, Note_on_c, 0, 67, 0
1, 140400, Note_on_c, 0, 67, 80
1, 140627, Note_on_c, 0, 67, 0
1, 140640, Note_on_c, 0, 64, 80
1, 140753, Note_on_c, 0, 64, 0
1, 140760, Note_on_c, 0, 64, 80
1, 141101, Note_on_c, 0, 64, 0
1, 141120, Note_on_c, 0, 64, 80
1, 141347, Note_on_c, 0, 64, 0
1, 141360, Note_on_c, 0, 62, 80
1, 141587, Note_on_c, 0, 62, 0
1, 141600, Note_on_c, 0, 64, 80
1, 141713, Note_on_c, 0, 64, 0
1, 141720, Note_on_c, 0, 64, 80
1, 142061, Note_on_c, 0, 64, 0
1, 142080, Note_on_c, 0, 67, 80
1, 142307, Note_on_c, 0, 67, 0
1, 142320, Note_on_c, 0, 67, 80
1, 142547, Note_on_c, 0, 67, 0
1, 142560, Note_on_c, 0, 64, 80
1, 142673, Note_on_c, 0, 64, 0
1, 142680, Note_on_c, 0, 64, 80
1, 143021, Note_on_c, 0, 64, 0
1, 143040, Note_on_c, 0, 64, 80
1, 143267, Note_on_c, 0, 64, 0
1, 143280, Note_on_c, 0, 62, 80
1, 143507, Note_on_c, 0, 62, 0
1, 143520, Note_on_c, 0, 60, 80
1, 143640, Note_on_c, 0, 60, 0
1, 143640, Note_on_c, 0, 60, 80
1, 144000, Note_on_c, 0, 67, 80
1, 144095, Note_on_c, 0, 60, 0
1, 144227, Note_on_c, 0, 67, 0
1, 144240, Note_on_c, 0, 67, 80
1, 144467, Note_on_c, 0, 67, 0
1, 144480, Note_on_c, 0, 64, 80
1, 144593, Note_on_c, 0, 64, 0
1, 144600, Note_on_c, 0, 64, 80
1, 144941, Note_on_c, 0, 64, 0
1, 144960, Note_on_c, 0, 64, 80
1, 145187, Note_on_c, 0, 64, 0
1, 145200, Note_on_c, 0, 62, 80
1, 145427, Note_on_c, 0, 62, 0
1, 145440, Note_on_c, 0, 64, 80
1, 145553, Note_on_c, 0, 64, 0
1, 145560, Note_on_c, 0, 64, 80
1, 145901, Note_on_c, 0, 64, 0
1, 145920, Note_on_c, 0, 67, 80
1, 146147, Note_on_c, 0, 67, 0
1, 146160, Note_on_c, 0, 67, 80
1, 146387, Note_on_c, 0, 67, 0
1, 146400, Note_on_c, 0, 64, 80
1, 146513, Note_on_c, 0, 64, 0
1, 146520, Note_on_c, 0, 64, 80
1, 146861, Note_on_c, 0, 64, 0
1, 146880, Note_on_c, 0, 64, 80
1, 147107, Note_on_c, 0, 64, 0
1, 147120, Note_on_c, 0, 62, 80
1, 147347, Note_on_c, 0, 62, 0
1, 147360, Note_on_c, 0, 60, 80
1, 147473, Note_on_c, 0, 60, 0
1, 147480, Note_on_c, 0, 60, 80
1, 147821, Note_on_c, 0, 60, 0
1, 147840, Note_on_c, 0, 79, 80
1, 148067, Note_on_c, 0, 79, 0
1, 148080, Note_on_c, 0, 79, 80
1, 148307, Note_on_c, 0, 79, 0
1, 148320, Note_on_c, 0, 76, 80
1, 148433, Note_on_c, 0, 76, 0
1, 148440, Note_on_c, 0, 76, 80
1, 148781, Note_on_c, 0, 76, 0
1, 148800, Note_on_c, 0, 76, 80
1, 149027, Note_on_c, 0, 76, 0
1, 149040, Note_on_c, 0, 74, 80
1, 149267, Note_on_c, 0, 74, 0
1, 149280, Note_on_c, 0, 76, 80
1, 149393, Note_on_c, 0, 76, 0
1, 149400, Note_on_c, 0, 76, 80
1, 149741, Note_on_c, 0, 76, 0
1, 149760, Note_on_c, 0, 79, 80
1, 149987, Note_on_c, 0, 79, 0
1, 150000, Note_on_c, 0, 79, 80
1, 150227, Note_on_c, 0, 79, 0
1, 150240, Note_on_c, 0, 76, 80
1, 150353, Note_on_c, 0, 76, 0
1, 150360, Note_on_c, 0, 76, 80
1, 150701, Note_on_c, 0, 76, 0
1, 150720, Note_on_c, 0, 76, 80
1, 150947, Note_on_c, 0, 76, 0
1, 150960, Note_on_c, 0, 74, 80
1, 151187, Note_on_c, 0, 74, 0
1, 151200, Note_on_c, 0, 76, 80
1, 151313, Note_on_c, 0, 76, 0
1, 151320, Note_on_c, 0, 76, 80
1, 151661, Note_on_c, 0, 76, 0
1, 151680, Note_on_c, 0, 79, 80
1, 151907, Note_on_c, 0, 79, 0
1, 151920, Note_on_c, 0, 79, 80
1, 152147, Note_on_c, 0, 79, 0
1, 152160, Note_on_c, 0, 76, 80
1, 152273, Note_on_c, 0, 76, 0
1, 152280, Note_on_c, 0, 76, 80
1, 152621, Note_on_c, 0, 76, 0
1, 152640, Note_on_c, 0, 76, 80
1, 152867, Note_on_c, 0, 76, 0
1, 152880, Note_on_c, 0, 74, 80
1, 153221, Note_on_c, 0, 74, 0
1, 153240, Note_on_c, 0, 74, 80
1, 153581, Note_on_c, 0, 74, 0
1, 153600, Note_on_c, 0, 76, 80
1, 154055, Note_on_c, 0, 76, 0
1, 154080, Note_on_c, 0, 77, 80
1, 154307, Note_on_c, 0, 77, 0
1, 154320, Note_on_c, 0, 76, 80
1, 154775, Note_on_c, 0, 76, 0
1, 157200, Note_on_c, 0, 74, 80
1, 157655, Note_on_c, 0, 74, 0
1, 157680, Note_on_c, 0, 76, 80
1, 158021, Note_on_c, 0, 76, 0
1, 158040, Note_on_c, 0, 74, 80
1, 158381, Note_on_c, 0, 74, 0
1, 158400, Note_on_c, 0, 74, 80
1, 158627, Note_on_c, 0, 74, 0
1, 158640, Note_on_c, 0, 74, 80
1, 158981, Note_on_c, 0, 74, 0
1, 159000, Note_on_c, 0, 72, 80
1, 159341, Note_on_c, 0, 72, 0
1, 159360, Note_on_c, 0, 71, 80
1, 159587, Note_on_c, 0, 71, 0
1, 159600, Note_on_c, 0, 71, 80
1, 159941, Note_on_c, 0, 71, 0
1, 159960, Note_on_c, 0, 72, 80
1, 160301, Note_on_c, 0, 72, 0
1, 160320, Note_on_c, 0, 71, 80
1, 160775, Note_on_c, 0, 71, 0
1, 160800, Note_on_c, 0, 67, 80
1, 161255, Note_on_c, 0, 67, 0
1, 161280, Note_on_c, 0, 64, 80
1, 161507, Note_on_c, 0, 64, 0
1, 161520, Note_on_c, 0, 76, 80
1, 161861, Note_on_c, 0, 76, 0
1, 161880, Note_on_c, 0, 74, 80
1, 162221, Note_on_c, 0, 74, 0
1, 162240, Note_on_c, 0, 74, 80
1, 162695, Note_on_c, 0, 74, 0
1, 162720, Note_on_c, 0, 72, 80
1, 163175, Note_on_c, 0, 72, 0
1, 163200, Note_on_c, 0, 72, 80
1, 163427, Note_on_c, 0, 72, 0
1, 163440, Note_on_c, 0, 71, 80
1, 163781, Note_on_c, 0, 71, 0
1, 163800, Note_on_c, 0, 72, 80
1, 164141, Note_on_c, 0, 72, 0
1, 164160, Note_on_c, 0, 79, 80
1, 164615, Note_on_c, 0, 79, 0
1, 164640, Note_on_c, 0, 71, 80
1, 165095, Note_on_c, 0, 71, 0
1, 165120, Note_on_c, 0, 72, 80
1, 165347, Note_on_c, 0, 72, 0
1, 165360, Note_on_c, 0, 81, 80
1, 165701, Note_on_c, 0, 81, 0
1, 165720, Note_on_c, 0, 79, 80
1, 166061, Note_on_c, 0, 79, 0
1, 166080, Note_on_c, 0, 76, 80
1, 166535, Note_on_c, 0, 76, 0
1, 166560, Note_on_c, 0, 72, 80
1, 167015, Note_on_c, 0, 72, 0
1, 167040, Note_on_c, 0, 72, 80
1, 167267, Note_on_c, 0, 72, 0
1, 167280, Note_on_c, 0, 72, 80
1, 167735, Note_on_c, 0, 72, 0
1, 167760, Note_on_c, 0, 71, 80
1, 167987, Note_on_c, 0, 71, 0
1, 168000, Note_on_c, 0, 69, 80
1, 168455, Note_on_c, 0, 69, 0
1, 168480, Note_on_c, 0, 71, 80
1, 168935, Note_on_c, 0, 71, 0
1, 168960, Note_on_c, 0, 72, 80
1, 170555, Note_on_c, 0, 72, 0
1, 170880, Note_on_c, 0, 72, 80
1, 171107, Note_on_c, 0, 72, 0
1, 171120, Note_on_c, 0, 71, 80
1, 171461, Note_on_c, 0, 71, 0
1, 171480, Note_on_c, 0, 72, 80
1, 171821, Note_on_c, 0, 72, 0
1, 171840, Note_on_c, 0, 71, 80
1, 172295, Note_on_c, 0, 71, 0
1, 172320, Note_on_c, 0, 67, 80
1, 172775, Note_on_c, 0, 67, 0
1, 172800, Note_on_c, 0, 64, 80
1, 173027, Note_on_c, 0, 64, 0
1, 173040, Note_on_c, 0, 76, 80
1, 173267, Note_on_c, 0, 76, 0
1, 173280, Note_on_c, 0, 74, 80
1, 173393, Note_on_c, 0, 74, 0
1, 173400, Note_on_c, 0, 74, 80
1, 173741, Note_on_c, 0, 74, 0
1, 173760, Note_on_c, 0, 74, 80
1, 173987, Note_on_c, 0, 74, 0
1, 174000, Note_on_c, 0, 74, 80
1, 174227, Note_on_c, 0, 74, 0
1, 174240, Note_on_c, 0, 72, 80
1, 174353, Note_on_c, 0, 72, 0
1, 174360, Note_on_c, 0, 72, 80
1, 174701, Note_on_c, 0, 72, 0
1, 174720, Note_on_c, 0, 72, 80
1, 174947, Note_on_c, 0, 72, 0
1, 174960, Note_on_c, 0, 71, 80
1, 175301, Note_on_c, 0, 71, 0
1, 175320, Note_on_c, 0, 72, 80
1, 175661, Note_on_c, 0, 72, 0
1, 175680, Note_on_c, 0, 71, 80
1, 176135, Note_on_c, 0, 71, 0
1, 176160, Note_on_c, 0, 67, 80
1, 176615, Note_on_c, 0, 67, 0
1, 176640, Note_on_c, 0, 64, 80
1, 176867, Note_on_c, 0, 64, 0
1, 176880, Note_on_c, 0, 76, 80
1, 177107, Note_on_c, 0, 76, 0
1, 177120, Note_on_c, 0, 74, 80
1, 177233, Note_on_c, 0, 74, 0
1, 177240, Note_on_c, 0, 74, 80
1, 177581, Note_on_c, 0, 74, 0
1, 177600, Note_on_c, 0, 74, 80
1, 177827, Note_on_c, 0, 74, 0
1, 177840, Note_on_c, 0, 74, 80
1, 178067, Note_on_c, 0, 74, 0
1, 178080, Note_on_c, 0, 72, 80
1, 178193, Note_on_c, 0, 72, 0
1, 178200, Note_on_c, 0, 72, 80
1, 178541, Note_on_c, 0, 72, 0
1, 178560, Note_on_c, 0, 72, 80
1, 178787, Note_on_c, 0, 72, 0
1, 178800, Note_on_c, 0, 71, 80
1, 179141, Note_on_c, 0, 71, 0
1, 179160, Note_on_c, 0, 72, 80
1, 179501, Note_on_c, 0, 72, 0
1, 179520, Note_on_c, 0, 79, 80
1, 179975, Note_on_c, 0, 79, 0
1, 180000, Note_on_c, 0, 71, 80
1, 180455, Note_on_c, 0, 71, 0
1, 180480, Note_on_c, 0, 72, 80
1, 180707, Note_on_c, 0, 72, 0
1, 180720, Note_on_c, 0, 81, 80
1, 181061, Note_on_c, 0, 81, 0
1, 181080, Note_on_c, 0, 79, 80
1, 181421, Note_on_c, 0, 79, 0
1, 181440, Note_on_c, 0, 76, 80
1, 181667, Note_on_c, 0, 76, 0
1, 181680, Note_on_c, 0, 72, 80
1, 182363, Note_on_c, 0, 72, 0
1, 182400, Note_on_c, 0, 72, 80
1, 182627, Note_on_c, 0, 72, 0
1, 182640, Note_on_c, 0, 72, 80
1, 183095, Note_on_c, 0, 72, 0
1, 183120, Note_on_c, 0, 71, 80
1, 183347, Note_on_c, 0, 71, 0
1, 183360, Note_on_c, 0, 69, 80
1, 183815, Note_on_c, 0, 69, 0
1, 183840, Note_on_c, 0, 71, 80
1, 184295, Note_on_c, 0, 71, 0
1, 184320, Note_on_c, 0, 72, 80
1, 184547, Note_on_c, 0, 72, 0
1, 184548, End_track
2, 0, Start_track
2, 0, Title_t, "Piano, Piano\000"
2, 0, Key_signature, 0, "major"
2, 0, MIDI_port, 0
2, 120, Note_on_c, 0, 57, 80
2, 176, Note_on_c, 0, 57, 0
2, 180, Note_on_c, 0, 60, 80
2, 236, Note_on_c, 0, 60, 0
2, 240, Note_on_c, 0, 64, 80
2, 479, Note_on_c, 0, 64, 0
2, 2040, Note_on_c, 0, 53, 80
2, 2096, Note_on_c, 0, 53, 0
2, 2100, Note_on_c, 0, 60, 80
2, 2156, Note_on_c, 0, 60, 0
2, 2160, Note_on_c, 0, 64, 80
2, 2399, Note_on_c, 0, 64, 0
2, 4080, Note_on_c, 0, 55, 80
2, 4080, Note_on_c, 0, 62, 80
2, 5903, Note_on_c, 0, 55, 0
2, 5903, Note_on_c, 0, 62, 0
2, 6000, Note_on_c, 0, 59, 80
2, 6000, Note_on_c, 0, 52, 80
2, 6000, Note_on_c, 0, 57, 80
2, 6683, Note_on_c, 0, 59, 0
2, 6720, Note_on_c, 0, 60, 80
2, 7175, Note_on_c, 0, 60, 0
2, 7200, Note_on_c, 0, 57, 0
2, 7200, Note_on_c, 0, 57, 80
2, 7367, Note_on_c, 0, 52, 0
2, 7440, Note_on_c, 0, 52, 80
2, 7883, Note_on_c, 0, 57, 0
2, 7895, Note_on_c, 0, 52, 0
2, 7920, Note_on_c, 0, 48, 80
2, 7920, Note_on_c, 0, 53, 80
2, 7920, Note_on_c, 0, 57, 80
2, 8603, Note_on_c, 0, 48, 0
2, 8603, Note_on_c, 0, 53, 0
2, 8603, Note_on_c, 0, 57, 0
2, 8640, Note_on_c, 0, 53, 80
2, 8640, Note_on_c, 0, 60, 80
2, 9665, Note_on_c, 0, 53, 0
2, 9665, Note_on_c, 0, 60, 0
2, 9840, Note_on_c, 0, 57, 80
2, 10067, Note_on_c, 0, 57, 0
2, 10080, Note_on_c, 0, 64, 80
2, 10307, Note_on_c, 0, 64, 0
2, 10320, Note_on_c, 0, 57, 80
2, 10547, Note_on_c, 0, 57, 0
2, 10560, Note_on_c, 0, 69, 80
2, 11015, Note_on_c, 0, 69, 0
2, 11040, Note_on_c, 0, 64, 80
2, 11267, Note_on_c, 0, 64, 0
2, 11280, Note_on_c, 0, 60, 80
2, 11735, Note_on_c, 0, 60, 0
2, 11760, Note_on_c, 0, 55, 80
2, 11760, Note_on_c, 0, 62, 80
2, 12443, Note_on_c, 0, 55, 0
2, 12443, Note_on_c, 0, 62, 0
2, 12480, Note_on_c, 0, 55, 80
2, 12480, Note_on_c, 0, 62, 80
2, 13163, Note_on_c, 0, 55, 0
2, 13163, Note_on_c, 0, 62, 0
2, 13680, Note_on_c, 0, 57, 80
2, 13907, Note_on_c, 0, 57, 0
2, 13920, Note_on_c, 0, 52, 80
2, 14147, Note_on_c, 0, 52, 0
2, 14160, Note_on_c, 0, 59, 80
2, 14387, Note_on_c, 0, 59, 0
2, 14400, Note_on_c, 0, 60, 80
2, 14855, Note_on_c, 0, 60, 0
2, 14880, Note_on_c, 0, 57, 80
2, 15107, Note_on_c, 0, 57, 0
2, 15120, Note_on_c, 0, 52, 80
2, 15575, Note_on_c, 0, 52, 0
2, 15600, Note_on_c, 0, 53, 80
2, 15827, Note_on_c, 0, 53, 0
2, 15840, Note_on_c, 0, 48, 80
2, 16067, Note_on_c, 0, 48, 0
2, 16080, Note_on_c, 0, 57, 80
2, 16535, Note_on_c, 0, 57, 0
2, 16560, Note_on_c, 0, 64, 80
2, 16787, Note_on_c, 0, 64, 0
2, 16800, Note_on_c, 0, 60, 80
2, 17027, Note_on_c, 0, 60, 0
2, 17040, Note_on_c, 0, 57, 80
2, 17495, Note_on_c, 0, 57, 0
2, 17520, Note_on_c, 0, 57, 80
2, 17747, Note_on_c, 0, 57, 0
2, 17760, Note_on_c, 0, 52, 80
2, 17987, Note_on_c, 0, 52, 0
2, 18000, Note_on_c, 0, 59, 80
2, 18227, Note_on_c, 0, 59, 0
2, 18240, Note_on_c, 0, 60, 80
2, 18695, Note_on_c, 0, 60, 0
2, 18720, Note_on_c, 0, 59, 80
2, 18947, Note_on_c, 0, 59, 0
2, 18960, Note_on_c, 0, 57, 80
2, 19415, Note_on_c, 0, 57, 0
2, 19440, Note_on_c, 0, 55, 80
2, 19667, Note_on_c, 0, 55, 0
2, 19680, Note_on_c, 0, 50, 80
2, 19907, Note_on_c, 0, 50, 0
2, 19920, Note_on_c, 0, 55, 80
2, 20147, Note_on_c, 0, 55, 0
2, 20160, Note_on_c, 0, 57, 80
2, 20387, Note_on_c, 0, 57, 0
2, 20400, Note_on_c, 0, 59, 80
2, 21311, Note_on_c, 0, 59, 0
2, 21360, Note_on_c, 0, 57, 80
2, 21587, Note_on_c, 0, 57, 0
2, 21600, Note_on_c, 0, 64, 80
2, 21827, Note_on_c, 0, 64, 0
2, 21840, Note_on_c, 0, 71, 80
2, 22067, Note_on_c, 0, 71, 0
2, 22080, Note_on_c, 0, 72, 80
2, 22535, Note_on_c, 0, 72, 0
2, 22560, Note_on_c, 0, 69, 80
2, 22787, Note_on_c, 0, 69, 0
2, 22800, Note_on_c, 0, 64, 80
2, 23027, Note_on_c, 0, 64, 0
2, 23040, Note_on_c, 0, 57, 80
2, 23267, Note_on_c, 0, 57, 0
2, 23280, Note_on_c, 0, 53, 80
2, 23507, Note_on_c, 0, 53, 0
2, 23520, Note_on_c, 0, 48, 80
2, 23747, Note_on_c, 0, 48, 0
2, 23760, Note_on_c, 0, 57, 80
2, 23987, Note_on_c, 0, 57, 0
2, 24000, Note_on_c, 0, 53, 80
2, 24227, Note_on_c, 0, 53, 0
2, 24240, Note_on_c, 0, 57, 80
2, 24467, Note_on_c, 0, 57, 0
2, 24480, Note_on_c, 0, 60, 80
2, 24707, Note_on_c, 0, 60, 0
2, 24720, Note_on_c, 0, 64, 80
2, 25175, Note_on_c, 0, 64, 0
2, 25200, Note_on_c, 0, 57, 80
2, 25427, Note_on_c, 0, 57, 0
2, 25440, Note_on_c, 0, 64, 80
2, 25667, Note_on_c, 0, 64, 0
2, 25680, Note_on_c, 0, 71, 80
2, 25907, Note_on_c, 0, 71, 0
2, 25920, Note_on_c, 0, 72, 80
2, 26375, Note_on_c, 0, 72, 0
2, 26400, Note_on_c, 0, 69, 80
2, 26627, Note_on_c, 0, 69, 0
2, 26640, Note_on_c, 0, 64, 80
2, 26867, Note_on_c, 0, 64, 0
2, 26880, Note_on_c, 0, 57, 80
2, 27107, Note_on_c, 0, 57, 0
2, 27120, Note_on_c, 0, 55, 80
2, 27120, Note_on_c, 0, 62, 80
2, 28943, Note_on_c, 0, 55, 0
2, 28943, Note_on_c, 0, 62, 0
2, 32880, Note_on_c, 0, 57, 80
2, 32880, Note_on_c, 0, 52, 80
2, 33335, Note_on_c, 0, 52, 0
2, 33563, Note_on_c, 0, 57, 0
2, 33600, Note_on_c, 0, 64, 80
2, 33600, Note_on_c, 0, 57, 80
2, 34055, Note_on_c, 0, 64, 0
2, 34320, Note_on_c, 0, 69, 80
2, 34560, Note_on_c, 0, 76, 80
2, 34625, Note_on_c, 0, 57, 0
2, 34775, Note_on_c, 0, 69, 0
2, 34787, Note_on_c, 0, 76, 0
2, 34800, Note_on_c, 0, 53, 80
2, 35483, Note_on_c, 0, 53, 0
2, 35520, Note_on_c, 0, 64, 80
2, 35520, Note_on_c, 0, 53, 80
2, 35975, Note_on_c, 0, 64, 0
2, 36545, Note_on_c, 0, 53, 0
2, 36720, Note_on_c, 0, 55, 80
2, 37403, Note_on_c, 0, 55, 0
2, 37440, Note_on_c, 0, 62, 80
2, 37440, Note_on_c, 0, 55, 80
2, 38123, Note_on_c, 0, 62, 0
2, 38465, Note_on_c, 0, 55, 0
2, 38640, Note_on_c, 0, 48, 80
2, 39120, Note_on_c, 0, 55, 80
2, 39347, Note_on_c, 0, 55, 0
2, 39360, Note_on_c, 0, 60, 80
2, 39815, Note_on_c, 0, 60, 0
2, 39840, Note_on_c, 0, 48, 0
2, 39840, Note_on_c, 0, 48, 80
2, 40067, Note_on_c, 0, 48, 0
2, 40400, Note_on_c, 0, 52, 80
2, 40475, Note_on_c, 0, 52, 0
2, 40480, Note_on_c, 0, 57, 80
2, 40555, Note_on_c, 0, 57, 0
2, 40560, Note_on_c, 0, 52, 80
2, 41280, Note_on_c, 0, 57, 80
2, 41507, Note_on_c, 0, 57, 0
2, 42383, Note_on_c, 0, 52, 0
2, 42480, Note_on_c, 0, 53, 80
2, 42840, Note_on_c, 0, 74, 80
2, 43163, Note_on_c, 0, 53, 0
2, 43181, Note_on_c, 0, 74, 0
2, 43200, Note_on_c, 0, 53, 80
2, 43680, Note_on_c, 0, 60, 80
2, 43907, Note_on_c, 0, 60, 0
2, 44225, Note_on_c, 0, 53, 0
2, 44400, Note_on_c, 0, 55, 80
2, 45083, Note_on_c, 0, 55, 0
2, 45120, Note_on_c, 0, 62, 80
2, 45120, Note_on_c, 0, 55, 80
2, 45575, Note_on_c, 0, 62, 0
2, 45600, Note_on_c, 0, 59, 80
2, 45827, Note_on_c, 0, 59, 0
2, 46145, Note_on_c, 0, 55, 0
2, 46320, Note_on_c, 0, 48, 80
2, 46320, Note_on_c, 0, 60, 80
2, 46547, Note_on_c, 0, 48, 0
2, 46547, Note_on_c, 0, 60, 0
2, 46560, Note_on_c, 0, 55, 80
2, 46787, Note_on_c, 0, 55, 0
2, 46800, Note_on_c, 0, 60, 80
2, 47027, Note_on_c, 0, 60, 0
2, 47040, Note_on_c, 0, 59, 80
2, 47495, Note_on_c, 0, 59, 0
2, 47520, Note_on_c, 0, 55, 80
2, 47747, Note_on_c, 0, 55, 0
2, 47760, Note_on_c, 0, 59, 80
2, 48000, Note_on_c, 0, 55, 80
2, 48215, Note_on_c, 0, 59, 0
2, 48227, Note_on_c, 0, 55, 0
2, 48240, Note_on_c, 0, 57, 80
2, 48695, Note_on_c, 0, 57, 0
2, 49140, Note_on_c, 0, 52, 80
2, 49196, Note_on_c, 0, 52, 0
2, 49200, Note_on_c, 0, 57, 80
2, 49655, Note_on_c, 0, 57, 0
2, 49680, Note_on_c, 0, 57, 80
2, 49919, Note_on_c, 0, 57, 0
2, 50160, Note_on_c, 0, 53, 80
2, 50160, Note_on_c, 0, 57, 80
2, 50160, Note_on_c, 0, 60, 80
2, 51071, Note_on_c, 0, 53, 0
2, 51071, Note_on_c, 0, 57, 0
2, 51071, Note_on_c, 0, 60, 0
2, 51120, Note_on_c, 0, 53, 80
2, 51120, Note_on_c, 0, 57, 80
2, 51120, Note_on_c, 0, 60, 80
2, 51575, Note_on_c, 0, 53, 0
2, 51575, Note_on_c, 0, 57, 0
2, 51575, Note_on_c, 0, 60, 0
2, 51600, Note_on_c, 0, 57, 80
2, 51903, Note_on_c, 0, 57, 0
2, 51920, Note_on_c, 0, 57, 80
2, 51960, Note_on_c, 0, 55, 80
2, 51999, Note_on_c, 0, 57, 0
2, 52019, Note_on_c, 0, 55, 0
2, 52080, Note_on_c, 0, 55, 80
2, 52080, Note_on_c, 0, 59, 80
2, 52991, Note_on_c, 0, 55, 0
2, 52991, Note_on_c, 0, 59, 0
2, 53040, Note_on_c, 0, 59, 80
2, 53381, Note_on_c, 0, 59, 0
2, 53400, Note_on_c, 0, 55, 80
2, 53400, Note_on_c, 0, 59, 80
2, 53513, Note_on_c, 0, 55, 0
2, 53513, Note_on_c, 0, 59, 0
2, 53760, Note_on_c, 0, 52, 80
2, 53987, Note_on_c, 0, 52, 0
2, 54000, Note_on_c, 0, 55, 80
2, 54000, Note_on_c, 0, 59, 80
2, 54911, Note_on_c, 0, 55, 0
2, 54911, Note_on_c, 0, 59, 0
2, 54960, Note_on_c, 0, 57, 80
2, 54960, Note_on_c, 0, 64, 80
2, 55415, Note_on_c, 0, 57, 0
2, 55415, Note_on_c, 0, 64, 0
2, 55440, Note_on_c, 0, 55, 80
2, 55440, Note_on_c, 0, 62, 80
2, 55895, Note_on_c, 0, 55, 0
2, 55895, Note_on_c, 0, 62, 0
2, 55920, Note_on_c, 0, 64, 80
2, 55920, Note_on_c, 0, 53, 80
2, 56375, Note_on_c, 0, 64, 0
2, 56603, Note_on_c, 0, 53, 0
2, 56640, Note_on_c, 0, 53, 80
2, 56880, Note_on_c, 0, 57, 80
2, 56880, Note_on_c, 0, 62, 80
2, 56999, Note_on_c, 0, 57, 0
2, 56999, Note_on_c, 0, 62, 0
2, 57095, Note_on_c, 0, 53, 0
2, 57120, Note_on_c, 0, 53, 80
2, 57347, Note_on_c, 0, 53, 0
2, 57360, Note_on_c, 0, 57, 80
2, 57360, Note_on_c, 0, 60, 80
2, 57360, Note_on_c, 0, 53, 80
2, 57587, Note_on_c, 0, 57, 0
2, 57587, Note_on_c, 0, 60, 0
2, 57600, Note_on_c, 0, 59, 80
2, 57815, Note_on_c, 0, 53, 0
2, 57827, Note_on_c, 0, 59, 0
2, 57840, Note_on_c, 0, 59, 80
2, 57840, Note_on_c, 0, 55, 80
2, 58523, Note_on_c, 0, 59, 0
2, 58560, Note_on_c, 0, 59, 80
2, 58560, Note_on_c, 0, 62, 80
2, 58865, Note_on_c, 0, 55, 0
2, 59015, Note_on_c, 0, 59, 0
2, 59015, Note_on_c, 0, 62, 0
2, 59040, Note_on_c, 0, 59, 80
2, 59040, Note_on_c, 0, 55, 80
2, 59267, Note_on_c, 0, 59, 0
2, 59280, Note_on_c, 0, 50, 80
2, 59280, Note_on_c, 0, 59, 80
2, 59723, Note_on_c, 0, 55, 0
2, 59735, Note_on_c, 0, 50, 0
2, 59735, Note_on_c, 0, 59, 0
2, 59760, Note_on_c, 0, 64, 80
2, 59760, Note_on_c, 0, 57, 80
2, 60101, Note_on_c, 0, 64, 0
2, 60120, Note_on_c, 0, 62, 80
2, 60120, Note_on_c, 0, 69, 80
2, 60461, Note_on_c, 0, 62, 0
2, 60461, Note_on_c, 0, 69, 0
2, 60480, Note_on_c, 0, 57, 0
2, 60480, Note_on_c, 0, 57, 80
2, 60480, Note_on_c, 0, 60, 80
2, 60480, Note_on_c, 0, 64, 80
2, 60707, Note_on_c, 0, 57, 0
2, 60707, Note_on_c, 0, 60, 0
2, 60707, Note_on_c, 0, 64, 0
2, 60960, Note_on_c, 0, 57, 80
2, 61187, Note_on_c, 0, 57, 0
2, 61200, Note_on_c, 0, 52, 80
2, 61200, Note_on_c, 0, 60, 80
2, 61439, Note_on_c, 0, 52, 0
2, 61439, Note_on_c, 0, 60, 0
2, 61680, Note_on_c, 0, 52, 80
2, 61680, Note_on_c, 0, 59, 80
2, 62363, Note_on_c, 0, 52, 0
2, 62363, Note_on_c, 0, 59, 0
2, 62400, Note_on_c, 0, 52, 80
2, 62400, Note_on_c, 0, 55, 80
2, 62400, Note_on_c, 0, 59, 80
2, 62400, Note_on_c, 0, 64, 80
2, 62855, Note_on_c, 0, 52, 0
2, 62855, Note_on_c, 0, 55, 0
2, 62855, Note_on_c, 0, 59, 0
2, 62855, Note_on_c, 0, 64, 0
2, 62880, Note_on_c, 0, 59, 80
2, 62880, Note_on_c, 0, 52, 80
2, 63107, Note_on_c, 0, 59, 0
2, 63120, Note_on_c, 0, 55, 80
2, 63120, Note_on_c, 0, 59, 80
2, 63563, Note_on_c, 0, 52, 0
2, 63575, Note_on_c, 0, 55, 0
2, 63575, Note_on_c, 0, 59, 0
2, 63600, Note_on_c, 0, 53, 80
2, 63600, Note_on_c, 0, 69, 80
2, 63941, Note_on_c, 0, 53, 0
2, 63941, Note_on_c, 0, 69, 0
2, 63960, Note_on_c, 0, 67, 80
2, 64073, Note_on_c, 0, 67, 0
2, 64320, Note_on_c, 0, 64, 80
2, 64320, Note_on_c, 0, 53, 80
2, 64320, Note_on_c, 0, 57, 80
2, 64547, Note_on_c, 0, 64, 0
2, 64775, Note_on_c, 0, 53, 0
2, 64775, Note_on_c, 0, 57, 0
2, 64800, Note_on_c, 0, 53, 80
2, 64800, Note_on_c, 0, 60, 80
2, 65027, Note_on_c, 0, 53, 0
2, 65027, Note_on_c, 0, 60, 0
2, 65040, Note_on_c, 0, 48, 80
2, 65040, Note_on_c, 0, 53, 80
2, 65040, Note_on_c, 0, 57, 80
2, 65267, Note_on_c, 0, 48, 0
2, 65267, Note_on_c, 0, 53, 0
2, 65267, Note_on_c, 0, 57, 0
2, 65280, Note_on_c, 0, 60, 80
2, 65507, Note_on_c, 0, 60, 0
2, 65520, Note_on_c, 0, 55, 80
2, 65520, Note_on_c, 0, 60, 80
2, 65759, Note_on_c, 0, 55, 0
2, 65759, Note_on_c, 0, 60, 0
2, 66000, Note_on_c, 0, 59, 80
2, 66227, Note_on_c, 0, 59, 0
2, 66240, Note_on_c, 0, 59, 80
2, 66240, Note_on_c, 0, 62, 80
2, 66240, Note_on_c, 0, 55, 80
2, 66467, Note_on_c, 0, 55, 0
2, 66695, Note_on_c, 0, 59, 0
2, 66695, Note_on_c, 0, 62, 0
2, 66720, Note_on_c, 0, 55, 80
2, 66720, Note_on_c, 0, 59, 80
2, 66947, Note_on_c, 0, 55, 0
2, 66947, Note_on_c, 0, 59, 0
2, 66960, Note_on_c, 0, 50, 80
2, 66960, Note_on_c, 0, 59, 80
2, 67415, Note_on_c, 0, 50, 0
2, 67415, Note_on_c, 0, 59, 0
2, 67440, Note_on_c, 0, 57, 80
2, 67680, Note_on_c, 0, 52, 80
2, 67895, Note_on_c, 0, 57, 0
2, 67907, Note_on_c, 0, 52, 0
2, 67920, Note_on_c, 0, 57, 80
2, 68147, Note_on_c, 0, 57, 0
2, 68160, Note_on_c, 0, 59, 80
2, 68387, Note_on_c, 0, 59, 0
2, 68400, Note_on_c, 0, 60, 80
2, 68640, Note_on_c, 0, 57, 80
2, 68867, Note_on_c, 0, 57, 0
2, 68880, Note_on_c, 0, 52, 80
2, 69120, Note_on_c, 0, 60, 0
2, 69120, Note_on_c, 0, 60, 80
2, 69335, Note_on_c, 0, 52, 0
2, 69347, Note_on_c, 0, 60, 0
2, 69360, Note_on_c, 0, 59, 80
2, 69701, Note_on_c, 0, 59, 0
2, 69720, Note_on_c, 0, 60, 80
2, 70061, Note_on_c, 0, 60, 0
2, 70080, Note_on_c, 0, 59, 80
2, 70535, Note_on_c, 0, 59, 0
2, 70560, Note_on_c, 0, 55, 80
2, 70800, Note_on_c, 0, 52, 80
2, 70919, Note_on_c, 0, 55, 0
2, 71255, Note_on_c, 0, 52, 0
2, 71280, Note_on_c, 0, 53, 80
2, 71519, Note_on_c, 0, 53, 0
2, 71520, Note_on_c, 0, 53, 80
2, 71760, Note_on_c, 0, 60, 80
2, 71975, Note_on_c, 0, 53, 0
2, 71999, Note_on_c, 0, 60, 0
2, 72000, Note_on_c, 0, 53, 80
2, 72240, Note_on_c, 0, 60, 80
2, 72455, Note_on_c, 0, 53, 0
2, 72467, Note_on_c, 0, 60, 0
2, 72480, Note_on_c, 0, 53, 80
2, 72707, Note_on_c, 0, 53, 0
2, 72720, Note_on_c, 0, 53, 80
2, 72720, Note_on_c, 0, 60, 80
2, 73175, Note_on_c, 0, 53, 0
2, 73175, Note_on_c, 0, 60, 0
2, 73200, Note_on_c, 0, 55, 80
2, 73439, Note_on_c, 0, 55, 0
2, 73440, Note_on_c, 0, 55, 80
2, 73680, Note_on_c, 0, 62, 80
2, 73895, Note_on_c, 0, 55, 0
2, 73919, Note_on_c, 0, 62, 0
2, 73920, Note_on_c, 0, 55, 80
2, 74160, Note_on_c, 0, 62, 80
2, 74375, Note_on_c, 0, 55, 0
2, 74387, Note_on_c, 0, 62, 0
2, 74400, Note_on_c, 0, 55, 80
2, 74627, Note_on_c, 0, 55, 0
2, 74640, Note_on_c, 0, 55, 80
2, 74640, Note_on_c, 0, 59, 80
2, 74640, Note_on_c, 0, 62, 80
2, 75095, Note_on_c, 0, 55, 0
2, 75095, Note_on_c, 0, 59, 0
2, 75095, Note_on_c, 0, 62, 0
2, 75120, Note_on_c, 0, 57, 80
2, 75359, Note_on_c, 0, 57, 0
2, 75360, Note_on_c, 0, 57, 80
2, 75600, Note_on_c, 0, 52, 80
2, 75815, Note_on_c, 0, 57, 0
2, 75839, Note_on_c, 0, 52, 0
2, 75840, Note_on_c, 0, 57, 80
2, 76080, Note_on_c, 0, 60, 80
2, 76080, Note_on_c, 0, 64, 80
2, 76295, Note_on_c, 0, 57, 0
2, 76319, Note_on_c, 0, 60, 0
2, 76319, Note_on_c, 0, 64, 0
2, 76320, Note_on_c, 0, 57, 80
2, 76560, Note_on_c, 0, 52, 80
2, 77003, Note_on_c, 0, 57, 0
2, 77015, Note_on_c, 0, 52, 0
2, 77040, Note_on_c, 0, 52, 80
2, 77279, Note_on_c, 0, 52, 0
2, 77280, Note_on_c, 0, 52, 80
2, 77520, Note_on_c, 0, 55, 80
2, 77520, Note_on_c, 0, 59, 80
2, 77735, Note_on_c, 0, 52, 0
2, 77759, Note_on_c, 0, 55, 0
2, 77759, Note_on_c, 0, 59, 0
2, 77760, Note_on_c, 0, 52, 80
2, 78000, Note_on_c, 0, 55, 80
2, 78000, Note_on_c, 0, 59, 80
2, 78215, Note_on_c, 0, 52, 0
2, 78240, Note_on_c, 0, 52, 80
2, 78455, Note_on_c, 0, 55, 0
2, 78455, Note_on_c, 0, 59, 0
2, 78480, Note_on_c, 0, 59, 80
2, 78720, Note_on_c, 0, 60, 80
2, 78923, Note_on_c, 0, 52, 0
2, 78935, Note_on_c, 0, 59, 0
2, 78947, Note_on_c, 0, 60, 0
2, 78960, Note_on_c, 0, 53, 80
2, 78960, Note_on_c, 0, 69, 80
2, 79301, Note_on_c, 0, 53, 0
2, 79301, Note_on_c, 0, 69, 0
2, 79320, Note_on_c, 0, 67, 80
2, 79433, Note_on_c, 0, 67, 0
2, 79680, Note_on_c, 0, 53, 80
2, 79680, Note_on_c, 0, 64, 80
2, 79907, Note_on_c, 0, 53, 0
2, 79907, Note_on_c, 0, 64, 0
2, 79920, Note_on_c, 0, 60, 80
2, 80147, Note_on_c, 0, 60, 0
2, 80160, Note_on_c, 0, 53, 80
2, 80387, Note_on_c, 0, 53, 0
2, 80400, Note_on_c, 0, 57, 80
2, 80400, Note_on_c, 0, 60, 80
2, 80627, Note_on_c, 0, 57, 0
2, 80627, Note_on_c, 0, 60, 0
2, 80640, Note_on_c, 0, 60, 80
2, 80867, Note_on_c, 0, 60, 0
2, 80880, Note_on_c, 0, 55, 80
2, 80880, Note_on_c, 0, 60, 80
2, 81119, Note_on_c, 0, 55, 0
2, 81119, Note_on_c, 0, 60, 0
2, 81360, Note_on_c, 0, 59, 80
2, 81587, Note_on_c, 0, 59, 0
2, 81600, Note_on_c, 0, 57, 80
2, 82055, Note_on_c, 0, 57, 0
2, 82080, Note_on_c, 0, 59, 80
2, 82307, Note_on_c, 0, 59, 0
2, 82320, Note_on_c, 0, 55, 80
2, 82547, Note_on_c, 0, 55, 0
2, 82560, Note_on_c, 0, 60, 80
2, 82787, Note_on_c, 0, 60, 0
2, 82800, Note_on_c, 0, 53, 80
2, 83027, Note_on_c, 0, 53, 0
2, 83040, Note_on_c, 0, 48, 80
2, 83267, Note_on_c, 0, 48, 0
2, 83280, Note_on_c, 0, 53, 80
2, 83507, Note_on_c, 0, 53, 0
2, 83520, Note_on_c, 0, 57, 80
2, 83747, Note_on_c, 0, 57, 0
2, 83760, Note_on_c, 0, 60, 80
2, 83987, Note_on_c, 0, 60, 0
2, 84000, Note_on_c, 0, 64, 80
2, 84683, Note_on_c, 0, 64, 0
2, 84720, Note_on_c, 0, 57, 80
2, 84947, Note_on_c, 0, 57, 0
2, 84960, Note_on_c, 0, 52, 80
2, 85187, Note_on_c, 0, 52, 0
2, 85200, Note_on_c, 0, 60, 80
2, 85427, Note_on_c, 0, 60, 0
2, 85440, Note_on_c, 0, 57, 80
2, 85667, Note_on_c, 0, 57, 0
2, 85680, Note_on_c, 0, 64, 80
2, 85907, Note_on_c, 0, 64, 0
2, 85920, Note_on_c, 0, 60, 80
2, 86147, Note_on_c, 0, 60, 0
2, 86160, Note_on_c, 0, 57, 80
2, 86387, Note_on_c, 0, 57, 0
2, 86400, Note_on_c, 0, 52, 80
2, 86627, Note_on_c, 0, 52, 0
2, 86640, Note_on_c, 0, 55, 80
2, 86867, Note_on_c, 0, 55, 0
2, 86880, Note_on_c, 0, 50, 80
2, 87107, Note_on_c, 0, 50, 0
2, 87120, Note_on_c, 0, 55, 80
2, 87347, Note_on_c, 0, 55, 0
2, 87360, Note_on_c, 0, 59, 80
2, 87587, Note_on_c, 0, 59, 0
2, 87600, Note_on_c, 0, 62, 80
2, 87827, Note_on_c, 0, 62, 0
2, 87840, Note_on_c, 0, 55, 80
2, 88067, Note_on_c, 0, 55, 0
2, 88080, Note_on_c, 0, 62, 80
2, 88535, Note_on_c, 0, 62, 0
2, 88560, Note_on_c, 0, 57, 80
2, 88787, Note_on_c, 0, 57, 0
2, 88800, Note_on_c, 0, 52, 80
2, 89027, Note_on_c, 0, 52, 0
2, 89040, Note_on_c, 0, 57, 80
2, 89267, Note_on_c, 0, 57, 0
2, 89280, Note_on_c, 0, 59, 80
2, 89507, Note_on_c, 0, 59, 0
2, 89520, Note_on_c, 0, 60, 80
2, 89747, Note_on_c, 0, 60, 0
2, 89760, Note_on_c, 0, 59, 80
2, 89987, Note_on_c, 0, 59, 0
2, 90000, Note_on_c, 0, 57, 80
2, 90455, Note_on_c, 0, 57, 0
2, 90480, Note_on_c, 0, 53, 80
2, 90707, Note_on_c, 0, 53, 0
2, 90720, Note_on_c, 0, 48, 80
2, 90947, Note_on_c, 0, 48, 0
2, 90960, Note_on_c, 0, 53, 80
2, 91187, Note_on_c, 0, 53, 0
2, 91200, Note_on_c, 0, 57, 80
2, 91427, Note_on_c, 0, 57, 0
2, 91440, Note_on_c, 0, 60, 80
2, 91667, Note_on_c, 0, 60, 0
2, 91680, Note_on_c, 0, 53, 80
2, 92363, Note_on_c, 0, 53, 0
2, 92400, Note_on_c, 0, 55, 80
2, 92627, Note_on_c, 0, 55, 0
2, 92640, Note_on_c, 0, 62, 80
2, 92867, Note_on_c, 0, 62, 0
2, 92880, Note_on_c, 0, 67, 80
2, 93107, Note_on_c, 0, 67, 0
2, 93120, Note_on_c, 0, 69, 80
2, 93803, Note_on_c, 0, 69, 0
2, 93840, Note_on_c, 0, 71, 80
2, 94079, Note_on_c, 0, 71, 0
2, 94320, Note_on_c, 0, 57, 80
2, 94547, Note_on_c, 0, 57, 0
2, 94560, Note_on_c, 0, 64, 80
2, 94787, Note_on_c, 0, 64, 0
2, 94800, Note_on_c, 0, 71, 80
2, 95027, Note_on_c, 0, 71, 0
2, 95040, Note_on_c, 0, 72, 80
2, 95495, Note_on_c, 0, 72, 0
2, 95520, Note_on_c, 0, 69, 80
2, 95747, Note_on_c, 0, 69, 0
2, 95760, Note_on_c, 0, 64, 80
2, 95987, Note_on_c, 0, 64, 0
2, 96000, Note_on_c, 0, 57, 80
2, 96227, Note_on_c, 0, 57, 0
2, 96240, Note_on_c, 0, 52, 80
2, 96240, Note_on_c, 0, 62, 80
2, 96581, Note_on_c, 0, 52, 0
2, 96581, Note_on_c, 0, 62, 0
2, 96600, Note_on_c, 0, 55, 80
2, 96941, Note_on_c, 0, 55, 0
2, 96960, Note_on_c, 0, 59, 80
2, 97415, Note_on_c, 0, 59, 0
2, 97440, Note_on_c, 0, 62, 80
2, 97667, Note_on_c, 0, 62, 0
2, 97680, Note_on_c, 0, 59, 80
2, 98135, Note_on_c, 0, 59, 0
2, 98160, Note_on_c, 0, 53, 80
2, 99071, Note_on_c, 0, 53, 0
2, 99120, Note_on_c, 0, 53, 80
2, 99120, Note_on_c, 0, 60, 80
2, 99575, Note_on_c, 0, 53, 0
2, 99575, Note_on_c, 0, 60, 0
2, 99600, Note_on_c, 0, 57, 80
2, 99600, Note_on_c, 0, 64, 80
2, 100055, Note_on_c, 0, 57, 0
2, 100055, Note_on_c, 0, 64, 0
2, 100080, Note_on_c, 0, 52, 80
2, 100140, Note_on_c, 0, 60, 80
2, 100991, Note_on_c, 0, 52, 0
2, 100994, Note_on_c, 0, 60, 0
2, 101040, Note_on_c, 0, 57, 80
2, 101040, Note_on_c, 0, 64, 80
2, 101495, Note_on_c, 0, 57, 0
2, 101495, Note_on_c, 0, 64, 0
2, 101520, Note_on_c, 0, 67, 80
2, 101520, Note_on_c, 0, 60, 80
2, 101759, Note_on_c, 0, 60, 0
2, 101760, Note_on_c, 0, 60, 80
2, 101975, Note_on_c, 0, 67, 0
2, 101987, Note_on_c, 0, 60, 0
2, 102000, Note_on_c, 0, 62, 80
2, 102000, Note_on_c, 0, 55, 80
2, 102239, Note_on_c, 0, 62, 0
2, 102240, Note_on_c, 0, 60, 80
2, 102353, Note_on_c, 0, 60, 0
2, 102360, Note_on_c, 0, 62, 80
2, 102701, Note_on_c, 0, 62, 0
2, 102720, Note_on_c, 0, 60, 80
2, 102911, Note_on_c, 0, 55, 0
2, 102947, Note_on_c, 0, 60, 0
2, 102960, Note_on_c, 0, 62, 80
2, 102960, Note_on_c, 0, 55, 80
2, 103200, Note_on_c, 0, 60, 80
2, 103313, Note_on_c, 0, 60, 0
2, 103320, Note_on_c, 0, 62, 0
2, 103320, Note_on_c, 0, 62, 80
2, 103415, Note_on_c, 0, 55, 0
2, 103661, Note_on_c, 0, 62, 0
2, 103680, Note_on_c, 0, 60, 80
2, 103907, Note_on_c, 0, 60, 0
2, 103920, Note_on_c, 0, 52, 80
2, 103980, Note_on_c, 0, 60, 80
2, 104160, Note_on_c, 0, 59, 80
2, 104273, Note_on_c, 0, 59, 0
2, 104280, Note_on_c, 0, 59, 80
2, 104621, Note_on_c, 0, 59, 0
2, 104640, Note_on_c, 0, 59, 80
2, 104831, Note_on_c, 0, 52, 0
2, 104834, Note_on_c, 0, 60, 0
2, 104867, Note_on_c, 0, 59, 0
2, 104880, Note_on_c, 0, 57, 80
2, 104880, Note_on_c, 0, 64, 80
2, 104880, Note_on_c, 0, 60, 80
2, 105120, Note_on_c, 0, 59, 80
2, 105233, Note_on_c, 0, 59, 0
2, 105240, Note_on_c, 0, 60, 0
2, 105240, Note_on_c, 0, 60, 80
2, 105335, Note_on_c, 0, 57, 0
2, 105335, Note_on_c, 0, 64, 0
2, 105353, Note_on_c, 0, 60, 0
2, 105360, Note_on_c, 0, 60, 80
2, 105360, Note_on_c, 0, 67, 80
2, 105815, Note_on_c, 0, 60, 0
2, 105815, Note_on_c, 0, 67, 0
2, 105840, Note_on_c, 0, 53, 80
2, 106523, Note_on_c, 0, 53, 0
2, 106560, Note_on_c, 0, 53, 80
2, 106560, Note_on_c, 0, 57, 80
2, 106560, Note_on_c, 0, 60, 80
2, 106787, Note_on_c, 0, 53, 0
2, 106787, Note_on_c, 0, 57, 0
2, 106787, Note_on_c, 0, 60, 0
2, 106800, Note_on_c, 0, 57, 80
2, 106800, Note_on_c, 0, 60, 80
2, 106800, Note_on_c, 0, 62, 80
2, 107027, Note_on_c, 0, 57, 0
2, 107027, Note_on_c, 0, 60, 0
2, 107027, Note_on_c, 0, 62, 0
2, 107040, Note_on_c, 0, 60, 80
2, 107153, Note_on_c, 0, 60, 0
2, 107160, Note_on_c, 0, 62, 80
2, 107273, Note_on_c, 0, 62, 0
2, 107280, Note_on_c, 0, 53, 80
2, 107280, Note_on_c, 0, 60, 80
2, 107735, Note_on_c, 0, 53, 0
2, 107735, Note_on_c, 0, 60, 0
2, 107760, Note_on_c, 0, 57, 80
2, 108443, Note_on_c, 0, 57, 0
2, 108480, Note_on_c, 0, 57, 80
2, 108480, Note_on_c, 0, 60, 80
2, 108480, Note_on_c, 0, 64, 80
2, 108707, Note_on_c, 0, 57, 0
2, 108707, Note_on_c, 0, 60, 0
2, 108707, Note_on_c, 0, 64, 0
2, 108720, Note_on_c, 0, 62, 80
2, 108947, Note_on_c, 0, 62, 0
2, 108960, Note_on_c, 0, 60, 80
2, 109073, Note_on_c, 0, 60, 0
2, 109080, Note_on_c, 0, 62, 80
2, 109193, Note_on_c, 0, 62, 0
2, 109200, Note_on_c, 0, 57, 80
2, 109439, Note_on_c, 0, 57, 0
2, 109680, Note_on_c, 0, 55, 80
2, 110363, Note_on_c, 0, 55, 0
2, 110400, Note_on_c, 0, 55, 80
2, 110400, Note_on_c, 0, 60, 80
2, 110627, Note_on_c, 0, 55, 0
2, 110627, Note_on_c, 0, 60, 0
2, 110640, Note_on_c, 0, 62, 80
2, 110640, Note_on_c, 0, 67, 80
2, 110981, Note_on_c, 0, 62, 0
2, 110981, Note_on_c, 0, 67, 0
2, 111000, Note_on_c, 0, 60, 80
2, 111000, Note_on_c, 0, 55, 80
2, 111113, Note_on_c, 0, 60, 0
2, 111341, Note_on_c, 0, 55, 0
2, 111360, Note_on_c, 0, 62, 80
2, 111360, Note_on_c, 0, 57, 80
2, 111587, Note_on_c, 0, 62, 0
2, 112043, Note_on_c, 0, 57, 0
2, 112080, Note_on_c, 0, 57, 80
2, 112307, Note_on_c, 0, 57, 0
2, 112320, Note_on_c, 0, 52, 80
2, 112547, Note_on_c, 0, 52, 0
2, 112560, Note_on_c, 0, 57, 80
2, 112560, Note_on_c, 0, 60, 80
2, 112901, Note_on_c, 0, 57, 0
2, 112901, Note_on_c, 0, 60, 0
2, 112920, Note_on_c, 0, 59, 80
2, 113033, Note_on_c, 0, 59, 0
2, 113280, Note_on_c, 0, 55, 80
2, 113507, Note_on_c, 0, 55, 0
2, 113520, Note_on_c, 0, 53, 80
2, 113520, Note_on_c, 0, 57, 80
2, 113975, Note_on_c, 0, 53, 0
2, 113975, Note_on_c, 0, 57, 0
2, 114000, Note_on_c, 0, 53, 80
2, 114227, Note_on_c, 0, 53, 0
2, 114240, Note_on_c, 0, 65, 80
2, 114695, Note_on_c, 0, 65, 0
2, 114720, Note_on_c, 0, 65, 80
2, 114947, Note_on_c, 0, 65, 0
2, 114960, Note_on_c, 0, 72, 80
2, 115187, Note_on_c, 0, 72, 0
2, 115200, Note_on_c, 0, 76, 80
2, 115427, Note_on_c, 0, 76, 0
2, 115440, Note_on_c, 0, 55, 80
2, 115667, Note_on_c, 0, 55, 0
2, 115680, Note_on_c, 0, 62, 80
2, 115907, Note_on_c, 0, 62, 0
2, 115920, Note_on_c, 0, 67, 80
2, 116147, Note_on_c, 0, 67, 0
2, 116160, Note_on_c, 0, 69, 80
2, 116387, Note_on_c, 0, 69, 0
2, 116880, Note_on_c, 0, 67, 80
2, 117335, Note_on_c, 0, 67, 0
2, 117360, Note_on_c, 0, 57, 80
2, 117815, Note_on_c, 0, 57, 0
2, 117840, Note_on_c, 0, 52, 80
2, 118067, Note_on_c, 0, 52, 0
2, 118080, Note_on_c, 0, 57, 80
2, 118307, Note_on_c, 0, 57, 0
2, 118320, Note_on_c, 0, 57, 80
2, 118547, Note_on_c, 0, 57, 0
2, 118560, Note_on_c, 0, 64, 80
2, 118787, Note_on_c, 0, 64, 0
2, 118800, Note_on_c, 0, 60, 80
2, 119255, Note_on_c, 0, 60, 0
2, 119280, Note_on_c, 0, 52, 80
2, 119507, Note_on_c, 0, 52, 0
2, 119520, Note_on_c, 0, 59, 80
2, 119747, Note_on_c, 0, 59, 0
2, 119760, Note_on_c, 0, 67, 80
2, 119987, Note_on_c, 0, 67, 0
2, 120000, Note_on_c, 0, 64, 80
2, 120227, Note_on_c, 0, 64, 0
2, 120480, Note_on_c, 0, 67, 80
2, 120707, Note_on_c, 0, 67, 0
2, 121200, Note_on_c, 0, 53, 80
2, 121427, Note_on_c, 0, 53, 0
2, 121440, Note_on_c, 0, 60, 80
2, 121667, Note_on_c, 0, 60, 0
2, 123120, Note_on_c, 0, 55, 80
2, 123347, Note_on_c, 0, 55, 0
2, 123360, Note_on_c, 0, 62, 80
2, 123587, Note_on_c, 0, 62, 0
2, 123600, Note_on_c, 0, 67, 80
2, 123827, Note_on_c, 0, 67, 0
2, 123840, Note_on_c, 0, 69, 80
2, 124067, Note_on_c, 0, 69, 0
2, 124080, Note_on_c, 0, 71, 80
2, 124991, Note_on_c, 0, 71, 0
2, 125040, Note_on_c, 0, 57, 80
2, 125267, Note_on_c, 0, 57, 0
2, 125280, Note_on_c, 0, 64, 80
2, 125507, Note_on_c, 0, 64, 0
2, 125520, Note_on_c, 0, 71, 80
2, 125747, Note_on_c, 0, 71, 0
2, 125760, Note_on_c, 0, 74, 80
2, 126215, Note_on_c, 0, 74, 0
2, 126240, Note_on_c, 0, 72, 80
2, 126480, Note_on_c, 0, 69, 80
2, 126707, Note_on_c, 0, 69, 0
2, 126720, Note_on_c, 0, 64, 80
2, 126923, Note_on_c, 0, 72, 0
2, 126947, Note_on_c, 0, 64, 0
2, 126960, Note_on_c, 0, 52, 80
2, 127187, Note_on_c, 0, 52, 0
2, 127200, Note_on_c, 0, 59, 80
2, 127427, Note_on_c, 0, 59, 0
2, 127440, Note_on_c, 0, 64, 80
2, 127667, Note_on_c, 0, 64, 0
2, 127680, Note_on_c, 0, 67, 80
2, 127680, Note_on_c, 0, 71, 80
2, 127680, Note_on_c, 0, 74, 80
2, 128135, Note_on_c, 0, 67, 0
2, 128135, Note_on_c, 0, 71, 0
2, 128135, Note_on_c, 0, 74, 0
2, 128160, Note_on_c, 0, 64, 80
2, 128387, Note_on_c, 0, 64, 0
2, 128400, Note_on_c, 0, 59, 80
2, 128627, Note_on_c, 0, 59, 0
2, 128640, Note_on_c, 0, 52, 80
2, 128867, Note_on_c, 0, 52, 0
2, 128880, Note_on_c, 0, 53, 80
2, 129107, Note_on_c, 0, 53, 0
2, 129120, Note_on_c, 0, 60, 80
2, 129347, Note_on_c, 0, 60, 0
2, 129360, Note_on_c, 0, 65, 80
2, 129587, Note_on_c, 0, 65, 0
2, 129600, Note_on_c, 0, 67, 80
2, 129827, Note_on_c, 0, 67, 0
2, 129840, Note_on_c, 0, 69, 80
2, 130067, Note_on_c, 0, 69, 0
2, 130080, Note_on_c, 0, 65, 80
2, 130307, Note_on_c, 0, 65, 0
2, 130320, Note_on_c, 0, 60, 80
2, 130547, Note_on_c, 0, 60, 0
2, 130560, Note_on_c, 0, 53, 80
2, 130787, Note_on_c, 0, 53, 0
2, 130800, Note_on_c, 0, 52, 80
2, 131027, Note_on_c, 0, 52, 0
2, 131040, Note_on_c, 0, 59, 80
2, 131267, Note_on_c, 0, 59, 0
2, 131280, Note_on_c, 0, 64, 80
2, 131507, Note_on_c, 0, 64, 0
2, 131520, Note_on_c, 0, 59, 80
2, 131747, Note_on_c, 0, 59, 0
2, 131760, Note_on_c, 0, 52, 80
2, 131987, Note_on_c, 0, 52, 0
2, 132000, Note_on_c, 0, 64, 80
2, 132227, Note_on_c, 0, 64, 0
2, 132240, Note_on_c, 0, 59, 80
2, 132467, Note_on_c, 0, 59, 0
2, 132480, Note_on_c, 0, 64, 80
2, 132707, Note_on_c, 0, 64, 0
2, 132720, Note_on_c, 0, 57, 80
2, 132947, Note_on_c, 0, 57, 0
2, 132960, Note_on_c, 0, 64, 80
2, 133187, Note_on_c, 0, 64, 0
2, 133200, Note_on_c, 0, 60, 80
2, 133883, Note_on_c, 0, 60, 0
2, 133920, Note_on_c, 0, 69, 80
2, 134147, Note_on_c, 0, 69, 0
2, 134160, Note_on_c, 0, 64, 80
2, 134387, Note_on_c, 0, 64, 0
2, 134400, Note_on_c, 0, 57, 80
2, 134627, Note_on_c, 0, 57, 0
2, 134640, Note_on_c, 0, 50, 80
2, 134867, Note_on_c, 0, 50, 0
2, 134880, Note_on_c, 0, 55, 80
2, 135107, Note_on_c, 0, 55, 0
2, 135120, Note_on_c, 0, 59, 80
2, 136031, Note_on_c, 0, 59, 0
2, 136080, Note_on_c, 0, 62, 80
2, 136535, Note_on_c, 0, 62, 0
2, 136560, Note_on_c, 0, 53, 80
2, 136799, Note_on_c, 0, 53, 0
2, 138480, Note_on_c, 0, 55, 80
2, 138480, Note_on_c, 0, 62, 80
2, 139391, Note_on_c, 0, 55, 0
2, 139391, Note_on_c, 0, 62, 0
2, 139440, Note_on_c, 0, 62, 80
2, 139895, Note_on_c, 0, 62, 0
2, 139920, Note_on_c, 0, 55, 80
2, 140375, Note_on_c, 0, 55, 0
2, 140400, Note_on_c, 0, 53, 80
2, 142223, Note_on_c, 0, 53, 0
2, 142320, Note_on_c, 0, 60, 80
2, 142320, Note_on_c, 0, 52, 80
2, 143520, Note_on_c, 0, 60, 0
2, 144143, Note_on_c, 0, 52, 0
2, 144240, Note_on_c, 0, 55, 80
2, 146063, Note_on_c, 0, 55, 0
2, 146160, Note_on_c, 0, 52, 80
2, 146220, Note_on_c, 0, 59, 80
2, 147071, Note_on_c, 0, 52, 0
2, 147074, Note_on_c, 0, 59, 0
2, 147120, Note_on_c, 0, 60, 80
2, 147359, Note_on_c, 0, 60, 0
2, 147600, Note_on_c, 0, 57, 80
2, 148055, Note_on_c, 0, 57, 0
2, 148080, Note_on_c, 0, 53, 80
2, 148763, Note_on_c, 0, 53, 0
2, 148800, Note_on_c, 0, 53, 80
2, 148800, Note_on_c, 0, 60, 80
2, 149027, Note_on_c, 0, 53, 0
2, 149027, Note_on_c, 0, 60, 0
2, 149040, Note_on_c, 0, 57, 80
2, 149040, Note_on_c, 0, 64, 80
2, 149495, Note_on_c, 0, 57, 0
2, 149495, Note_on_c, 0, 64, 0
2, 149520, Note_on_c, 0, 53, 80
2, 149975, Note_on_c, 0, 53, 0
2, 150000, Note_on_c, 0, 52, 80
2, 150000, Note_on_c, 0, 60, 80
2, 150911, Note_on_c, 0, 52, 0
2, 150911, Note_on_c, 0, 60, 0
2, 150960, Note_on_c, 0, 60, 80
2, 150960, Note_on_c, 0, 64, 80
2, 150960, Note_on_c, 0, 67, 80
2, 151415, Note_on_c, 0, 60, 0
2, 151415, Note_on_c, 0, 64, 0
2, 151415, Note_on_c, 0, 67, 0
2, 151440, Note_on_c, 0, 57, 80
2, 151895, Note_on_c, 0, 57, 0
2, 151920, Note_on_c, 0, 55, 80
2, 152603, Note_on_c, 0, 55, 0
2, 152640, Note_on_c, 0, 55, 80
2, 152640, Note_on_c, 0, 59, 80
2, 152867, Note_on_c, 0, 55, 0
2, 152867, Note_on_c, 0, 59, 0
2, 152880, Note_on_c, 0, 55, 80
2, 152880, Note_on_c, 0, 59, 80
2, 153221, Note_on_c, 0, 55, 0
2, 153221, Note_on_c, 0, 59, 0
2, 153240, Note_on_c, 0, 55, 80
2, 153240, Note_on_c, 0, 59, 80
2, 153581, Note_on_c, 0, 55, 0
2, 153581, Note_on_c, 0, 59, 0
2, 153600, Note_on_c, 0, 55, 80
2, 153600, Note_on_c, 0, 64, 80
2, 153827, Note_on_c, 0, 55, 0
2, 153827, Note_on_c, 0, 64, 0
2, 157560, Note_on_c, 0, 53, 80
2, 157616, Note_on_c, 0, 53, 0
2, 157620, Note_on_c, 0, 60, 80
2, 157676, Note_on_c, 0, 60, 0
2, 157680, Note_on_c, 0, 65, 80
2, 157919, Note_on_c, 0, 65, 0
2, 159480, Note_on_c, 0, 55, 80
2, 159536, Note_on_c, 0, 55, 0
2, 159540, Note_on_c, 0, 59, 80
2, 159596, Note_on_c, 0, 59, 0
2, 159600, Note_on_c, 0, 62, 80
2, 159839, Note_on_c, 0, 62, 0
2, 161400, Note_on_c, 0, 57, 80
2, 161456, Note_on_c, 0, 57, 0
2, 161460, Note_on_c, 0, 60, 80
2, 161516, Note_on_c, 0, 60, 0
2, 161520, Note_on_c, 0, 64, 80
2, 161759, Note_on_c, 0, 64, 0
2, 163320, Note_on_c, 0, 52, 80
2, 163376, Note_on_c, 0, 52, 0
2, 163380, Note_on_c, 0, 55, 80
2, 163436, Note_on_c, 0, 55, 0
2, 163440, Note_on_c, 0, 59, 80
2, 165263, Note_on_c, 0, 59, 0
2, 165360, Note_on_c, 0, 53, 80
2, 165360, Note_on_c, 0, 60, 80
2, 167183, Note_on_c, 0, 53, 0
2, 167183, Note_on_c, 0, 60, 0
2, 167280, Note_on_c, 0, 55, 80
2, 167280, Note_on_c, 0, 62, 80
2, 169103, Note_on_c, 0, 55, 0
2, 169103, Note_on_c, 0, 62, 0
2, 169200, Note_on_c, 0, 57, 80
2, 169200, Note_on_c, 0, 64, 80
2, 169200, Note_on_c, 0, 67, 80
2, 171023, Note_on_c, 0, 57, 0
2, 171023, Note_on_c, 0, 64, 0
2, 171023, Note_on_c, 0, 67, 0
2, 171120, Note_on_c, 0, 52, 80
2, 171120, Note_on_c, 0, 59, 80
2, 171120, Note_on_c, 0, 62, 80
2, 172943, Note_on_c, 0, 52, 0
2, 172943, Note_on_c, 0, 59, 0
2, 172943, Note_on_c, 0, 62, 0
2, 173040, Note_on_c, 0, 53, 80
2, 173267, Note_on_c, 0, 53, 0
2, 173280, Note_on_c, 0, 60, 80
2, 173507, Note_on_c, 0, 60, 0
2, 173520, Note_on_c, 0, 64, 80
2, 173747, Note_on_c, 0, 64, 0
2, 173760, Note_on_c, 0, 53, 80
2, 173987, Note_on_c, 0, 53, 0
2, 174000, Note_on_c, 0, 60, 80
2, 174227, Note_on_c, 0, 60, 0
2, 174240, Note_on_c, 0, 64, 80
2, 174467, Note_on_c, 0, 64, 0
2, 174480, Note_on_c, 0, 53, 80
2, 174707, Note_on_c, 0, 53, 0
2, 174720, Note_on_c, 0, 60, 80
2, 174947, Note_on_c, 0, 60, 0
2, 174960, Note_on_c, 0, 55, 80
2, 175187, Note_on_c, 0, 55, 0
2, 175200, Note_on_c, 0, 62, 80
2, 175427, Note_on_c, 0, 62, 0
2, 175440, Note_on_c, 0, 67, 80
2, 175667, Note_on_c, 0, 67, 0
2, 175680, Note_on_c, 0, 55, 80
2, 175907, Note_on_c, 0, 55, 0
2, 175920, Note_on_c, 0, 62, 80
2, 176159, Note_on_c, 0, 62, 0
2, 176400, Note_on_c, 0, 55, 80
2, 176627, Note_on_c, 0, 55, 0
2, 176640, Note_on_c, 0, 62, 80
2, 176867, Note_on_c, 0, 62, 0
2, 176880, Note_on_c, 0, 57, 80
2, 177107, Note_on_c, 0, 57, 0
2, 177120, Note_on_c, 0, 64, 80
2, 177347, Note_on_c, 0, 64, 0
2, 177360, Note_on_c, 0, 67, 80
2, 177587, Note_on_c, 0, 67, 0
2, 177600, Note_on_c, 0, 57, 80
2, 177827, Note_on_c, 0, 57, 0
2, 177840, Note_on_c, 0, 64, 80
2, 178067, Note_on_c, 0, 64, 0
2, 178080, Note_on_c, 0, 67, 80
2, 178307, Note_on_c, 0, 67, 0
2, 178320, Note_on_c, 0, 57, 80
2, 178547, Note_on_c, 0, 57, 0
2, 178560, Note_on_c, 0, 64, 80
2, 178787, Note_on_c, 0, 64, 0
2, 178800, Note_on_c, 0, 52, 80
2, 179027, Note_on_c, 0, 52, 0
2, 179040, Note_on_c, 0, 59, 80
2, 179267, Note_on_c, 0, 59, 0
2, 179280, Note_on_c, 0, 62, 80
2, 179507, Note_on_c, 0, 62, 0
2, 179520, Note_on_c, 0, 52, 80
2, 179747, Note_on_c, 0, 52, 0
2, 179760, Note_on_c, 0, 59, 80
2, 179987, Note_on_c, 0, 59, 0
2, 180000, Note_on_c, 0, 62, 80
2, 180227, Note_on_c, 0, 62, 0
2, 180240, Note_on_c, 0, 52, 80
2, 180467, Note_on_c, 0, 52, 0
2, 180480, Note_on_c, 0, 59, 80
2, 180707, Note_on_c, 0, 59, 0
2, 180720, Note_on_c, 0, 53, 80
2, 180947, Note_on_c, 0, 53, 0
2, 180960, Note_on_c, 0, 60, 80
2, 181187, Note_on_c, 0, 60, 0
2, 181200, Note_on_c, 0, 64, 80
2, 181427, Note_on_c, 0, 64, 0
2, 181440, Note_on_c, 0, 53, 80
2, 181667, Note_on_c, 0, 53, 0
2, 181680, Note_on_c, 0, 60, 80
2, 181907, Note_on_c, 0, 60, 0
2, 181920, Note_on_c, 0, 64, 80
2, 182147, Note_on_c, 0, 64, 0
2, 182160, Note_on_c, 0, 53, 80
2, 182387, Note_on_c, 0, 53, 0
2, 182400, Note_on_c, 0, 60, 80
2, 182627, Note_on_c, 0, 60, 0
2, 182640, Note_on_c, 0, 55, 80
2, 182879, Note_on_c, 0, 55, 0
2, 182880, End_track
3, 0, Start_track
3, 0, Title_t, "Electric Bass, Bass\000"
3, 0, Key_signature, 0, "major"
3, 0, Control_c, 7, 121, 0
3, 0, Program_c, 7, 33
3, 0, Control_c, 7, 7, 100
3, 0, Control_c, 7, 10, 64
3, 0, Control_c, 7, 91, 0
3, 0, Control_c, 7, 93, 0
3, 0, MIDI_port, 0
3, 0, Control_c, 1, 121, 0
3, 0, Program_c, 1, 36
3, 0, Control_c, 1, 7, 100
3, 0, Control_c, 1, 10, 64
3, 0, Control_c, 1, 91, 0
3, 0, Control_c, 1, 93, 0
3, 0, MIDI_port, 0
3, 0, Control_c, 2, 121, 0
3, 0, Program_c, 2, 37
3, 0, Control_c, 2, 7, 100
3, 0, Control_c, 2, 10, 64
3, 0, Control_c, 2, 91, 0
3, 0, Control_c, 2, 93, 0
3, 0, MIDI_port, 0
3, 15600, Note_on_c, 7, 53, 80
3, 17519, Note_on_c, 7, 53, 0
3, 17520, Note_on_c, 7, 57, 80
3, 19439, Note_on_c, 7, 57, 0
3, 19440, Note_on_c, 7, 55, 80
3, 21359, Note_on_c, 7, 55, 0
3, 21360, Note_on_c, 7, 57, 80
3, 23279, Note_on_c, 7, 57, 0
3, 23280, Note_on_c, 7, 53, 80
3, 25199, Note_on_c, 7, 53, 0
3, 25200, Note_on_c, 7, 57, 80
3, 27119, Note_on_c, 7, 57, 0
3, 27120, Note_on_c, 7, 55, 80
3, 29039, Note_on_c, 7, 55, 0
3, 32880, Note_on_c, 7, 57, 80
3, 34799, Note_on_c, 7, 57, 0
3, 34800, Note_on_c, 7, 53, 80
3, 36719, Note_on_c, 7, 53, 0
3, 36720, Note_on_c, 7, 55, 80
3, 38639, Note_on_c, 7, 55, 0
3, 38640, Note_on_c, 7, 60, 80
3, 39599, Note_on_c, 7, 60, 0
3, 39600, Note_on_c, 7, 59, 80
3, 40559, Note_on_c, 7, 59, 0
3, 40560, Note_on_c, 7, 57, 80
3, 42479, Note_on_c, 7, 57, 0
3, 42480, Note_on_c, 7, 53, 80
3, 44399, Note_on_c, 7, 53, 0
3, 44400, Note_on_c, 7, 55, 80
3, 46319, Note_on_c, 7, 55, 0
3, 46320, Note_on_c, 7, 60, 80
3, 47039, Note_on_c, 7, 60, 0
3, 47040, Note_on_c, 7, 59, 80
3, 47999, Note_on_c, 7, 59, 0
3, 48240, Note_on_c, 7, 57, 80
3, 49199, Note_on_c, 7, 57, 0
3, 49200, Note_on_c, 7, 57, 80
3, 50159, Note_on_c, 7, 57, 0
3, 50160, Note_on_c, 7, 53, 80
3, 51119, Note_on_c, 7, 53, 0
3, 51120, Note_on_c, 7, 53, 80
3, 52079, Note_on_c, 7, 53, 0
3, 52080, Note_on_c, 7, 57, 80
3, 53039, Note_on_c, 7, 57, 0
3, 53040, Note_on_c, 7, 57, 80
3, 53399, Note_on_c, 7, 57, 0
3, 53400, Note_on_c, 7, 57, 80
3, 53759, Note_on_c, 7, 57, 0
3, 53760, Note_on_c, 7, 57, 80
3, 53999, Note_on_c, 7, 57, 0
3, 54000, Note_on_c, 7, 55, 80
3, 54959, Note_on_c, 7, 55, 0
3, 54960, Note_on_c, 7, 57, 80
3, 55439, Note_on_c, 7, 57, 0
3, 55440, Note_on_c, 7, 55, 80
3, 55919, Note_on_c, 7, 55, 0
3, 55920, Note_on_c, 7, 53, 80
3, 56879, Note_on_c, 7, 53, 0
3, 56880, Note_on_c, 7, 53, 80
3, 57839, Note_on_c, 7, 53, 0
3, 57840, Note_on_c, 7, 55, 80
3, 58559, Note_on_c, 7, 55, 0
3, 58560, Note_on_c, 7, 55, 80
3, 59039, Note_on_c, 7, 55, 0
3, 59040, Note_on_c, 7, 55, 80
3, 59759, Note_on_c, 7, 55, 0
3, 59760, Note_on_c, 7, 57, 80
3, 60479, Note_on_c, 7, 57, 0
3, 60480, Note_on_c, 7, 57, 80
3, 60959, Note_on_c, 7, 57, 0
3, 60960, Note_on_c, 7, 57, 80
3, 61319, Note_on_c, 7, 57, 0
3, 61680, Note_on_c, 7, 52, 80
3, 62399, Note_on_c, 7, 52, 0
3, 62400, Note_on_c, 7, 52, 80
3, 62879, Note_on_c, 7, 52, 0
3, 62880, Note_on_c, 7, 52, 80
3, 63239, Note_on_c, 7, 52, 0
3, 63600, Note_on_c, 7, 53, 80
3, 64079, Note_on_c, 7, 53, 0
3, 64320, Note_on_c, 7, 53, 80
3, 64799, Note_on_c, 7, 53, 0
3, 64800, Note_on_c, 7, 53, 80
3, 65159, Note_on_c, 7, 53, 0
3, 65520, Note_on_c, 7, 55, 80
3, 66239, Note_on_c, 7, 55, 0
3, 66240, Note_on_c, 7, 55, 80
3, 66719, Note_on_c, 7, 55, 0
3, 67440, Note_on_c, 7, 57, 80
3, 69359, Note_on_c, 7, 57, 0
3, 69360, Note_on_c, 7, 52, 80
3, 70079, Note_on_c, 7, 52, 0
3, 70080, Note_on_c, 7, 64, 80
3, 70799, Note_on_c, 7, 64, 0
3, 70800, Note_on_c, 7, 52, 80
3, 71279, Note_on_c, 7, 52, 0
3, 71280, Note_on_c, 7, 53, 80
3, 71999, Note_on_c, 7, 53, 0
3, 72000, Note_on_c, 7, 53, 80
3, 72479, Note_on_c, 7, 53, 0
3, 72480, Note_on_c, 7, 53, 80
3, 73199, Note_on_c, 7, 53, 0
3, 73200, Note_on_c, 7, 55, 80
3, 73919, Note_on_c, 7, 55, 0
3, 73920, Note_on_c, 7, 55, 80
3, 74399, Note_on_c, 7, 55, 0
3, 74400, Note_on_c, 7, 55, 80
3, 75119, Note_on_c, 7, 55, 0
3, 75120, Note_on_c, 7, 57, 80
3, 75839, Note_on_c, 7, 57, 0
3, 75840, Note_on_c, 7, 57, 80
3, 76319, Note_on_c, 7, 57, 0
3, 76320, Note_on_c, 7, 57, 80
3, 77039, Note_on_c, 7, 57, 0
3, 77040, Note_on_c, 7, 52, 80
3, 77759, Note_on_c, 7, 52, 0
3, 77760, Note_on_c, 7, 52, 80
3, 78239, Note_on_c, 7, 52, 0
3, 78240, Note_on_c, 7, 52, 80
3, 78959, Note_on_c, 7, 52, 0
3, 78960, Note_on_c, 7, 53, 80
3, 79679, Note_on_c, 7, 53, 0
3, 79680, Note_on_c, 7, 53, 80
3, 80159, Note_on_c, 7, 53, 0
3, 80160, Note_on_c, 7, 53, 80
3, 80879, Note_on_c, 7, 53, 0
3, 80880, Note_on_c, 7, 55, 80
3, 81599, Note_on_c, 7, 55, 0
3, 81600, Note_on_c, 7, 55, 80
3, 82319, Note_on_c, 7, 55, 0
3, 82320, Note_on_c, 7, 55, 80
3, 82799, Note_on_c, 7, 55, 0
3, 82800, Note_on_c, 7, 53, 80
3, 84719, Note_on_c, 7, 53, 0
3, 84720, Note_on_c, 7, 57, 80
3, 86639, Note_on_c, 7, 57, 0
3, 86640, Note_on_c, 7, 55, 80
3, 88559, Note_on_c, 7, 55, 0
3, 88560, Note_on_c, 7, 57, 80
3, 90479, Note_on_c, 7, 57, 0
3, 90480, Note_on_c, 7, 53, 80
3, 92399, Note_on_c, 7, 53, 0
3, 92400, Note_on_c, 7, 55, 80
3, 94319, Note_on_c, 7, 55, 0
3, 94320, Note_on_c, 7, 57, 80
3, 96239, Note_on_c, 7, 57, 0
3, 96240, Note_on_c, 7, 52, 80
3, 98159, Note_on_c, 7, 52, 0
3, 98160, Note_on_c, 7, 53, 80
3, 99119, Note_on_c, 7, 53, 0
3, 99120, Note_on_c, 7, 53, 80
3, 100079, Note_on_c, 7, 53, 0
3, 100080, Note_on_c, 7, 57, 80
3, 101039, Note_on_c, 7, 57, 0
3, 101040, Note_on_c, 7, 57, 80
3, 101999, Note_on_c, 7, 57, 0
3, 102000, Note_on_c, 7, 55, 80
3, 102959, Note_on_c, 7, 55, 0
3, 102960, Note_on_c, 7, 55, 80
3, 103919, Note_on_c, 7, 55, 0
3, 103920, Note_on_c, 7, 57, 80
3, 104879, Note_on_c, 7, 57, 0
3, 104880, Note_on_c, 7, 57, 80
3, 105839, Note_on_c, 7, 57, 0
3, 105840, Note_on_c, 7, 53, 80
3, 106559, Note_on_c, 7, 53, 0
3, 106560, Note_on_c, 7, 53, 80
3, 106799, Note_on_c, 7, 53, 0
3, 106800, Note_on_c, 7, 53, 80
3, 107279, Note_on_c, 7, 53, 0
3, 107280, Note_on_c, 7, 53, 80
3, 107759, Note_on_c, 7, 53, 0
3, 107760, Note_on_c, 7, 57, 80
3, 108479, Note_on_c, 7, 57, 0
3, 108480, Note_on_c, 7, 57, 80
3, 108719, Note_on_c, 7, 57, 0
3, 108720, Note_on_c, 7, 57, 80
3, 109199, Note_on_c, 7, 57, 0
3, 109200, Note_on_c, 7, 57, 80
3, 109679, Note_on_c, 7, 57, 0
3, 109680, Note_on_c, 7, 55, 80
3, 110639, Note_on_c, 7, 55, 0
3, 110640, Note_on_c, 7, 55, 80
3, 111599, Note_on_c, 7, 55, 0
3, 111600, Note_on_c, 7, 57, 80
3, 111839, Note_on_c, 7, 57, 0
3, 111840, Note_on_c, 7, 57, 80
3, 112079, Note_on_c, 7, 57, 0
3, 112560, Note_on_c, 7, 57, 80
3, 113279, Note_on_c, 7, 57, 0
3, 113280, Note_on_c, 7, 55, 80
3, 113519, Note_on_c, 7, 55, 0
3, 113520, Note_on_c, 7, 53, 80
3, 115439, Note_on_c, 7, 53, 0
3, 139920, Note_on_c, 7, 55, 80
3, 140399, Note_on_c, 7, 55, 0
3, 140400, Note_on_c, 7, 53, 80
3, 142319, Note_on_c, 7, 53, 0
3, 142320, Note_on_c, 7, 57, 80
3, 144239, Note_on_c, 7, 57, 0
3, 144240, Note_on_c, 7, 55, 80
3, 146159, Note_on_c, 7, 55, 0
3, 146160, Note_on_c, 7, 57, 80
3, 148079, Note_on_c, 7, 57, 0
3, 148080, Note_on_c, 7, 53, 80
3, 149519, Note_on_c, 7, 53, 0
3, 149520, Note_on_c, 7, 53, 80
3, 149999, Note_on_c, 7, 53, 0
3, 150000, Note_on_c, 7, 57, 80
3, 151439, Note_on_c, 7, 57, 0
3, 151440, Note_on_c, 7, 57, 80
3, 151919, Note_on_c, 7, 57, 0
3, 151920, Note_on_c, 7, 55, 80
3, 152879, Note_on_c, 7, 55, 0
3, 157680, Note_on_c, 7, 60, 80
3, 159359, Note_on_c, 7, 60, 0
3, 159360, Note_on_c, 7, 60, 80
3, 159599, Note_on_c, 7, 60, 0
3, 159600, Note_on_c, 7, 62, 80
3, 161519, Note_on_c, 7, 62, 0
3, 161520, Note_on_c, 7, 64, 80
3, 163439, Note_on_c, 7, 64, 0
3, 163440, Note_on_c, 7, 59, 80
3, 165359, Note_on_c, 7, 59, 0
3, 165360, Note_on_c, 7, 60, 80
3, 167279, Note_on_c, 7, 60, 0
3, 167280, Note_on_c, 7, 62, 80
3, 169199, Note_on_c, 7, 62, 0
3, 169200, Note_on_c, 7, 57, 80
3, 171119, Note_on_c, 7, 57, 0
3, 171120, Note_on_c, 7, 52, 80
3, 173039, Note_on_c, 7, 52, 0
3, 173040, Note_on_c, 7, 53, 80
3, 173759, Note_on_c, 7, 53, 0
3, 173760, Note_on_c, 7, 53, 80
3, 174479, Note_on_c, 7, 53, 0
3, 174480, Note_on_c, 7, 53, 80
3, 174959, Note_on_c, 7, 53, 0
3, 174960, Note_on_c, 7, 55, 80
3, 175679, Note_on_c, 7, 55, 0
3, 175680, Note_on_c, 7, 55, 80
3, 176399, Note_on_c, 7, 55, 0
3, 176400, Note_on_c, 7, 55, 80
3, 176879, Note_on_c, 7, 55, 0
3, 176880, Note_on_c, 7, 57, 80
3, 177599, Note_on_c, 7, 57, 0
3, 177600, Note_on_c, 7, 57, 80
3, 178319, Note_on_c, 7, 57, 0
3, 178320, Note_on_c, 7, 57, 80
3, 178799, Note_on_c, 7, 57, 0
3, 178800, Note_on_c, 7, 52, 80
3, 179519, Note_on_c, 7, 52, 0
3, 179520, Note_on_c, 7, 52, 80
3, 180239, Note_on_c, 7, 52, 0
3, 180240, Note_on_c, 7, 52, 80
3, 180719, Note_on_c, 7, 52, 0
3, 180720, Note_on_c, 7, 53, 80
3, 181439, Note_on_c, 7, 53, 0
3, 181440, Note_on_c, 7, 53, 80
3, 182159, Note_on_c, 7, 53, 0
3, 182160, Note_on_c, 7, 53, 80
3, 182639, Note_on_c, 7, 53, 0
3, 182640, Note_on_c, 7, 55, 80
3, 184559, Note_on_c, 7, 55, 0
3, 184560, End_track
0, 0, End_of_file
