0, 0, Header, 1, 5, 480
1, 0, Start_track
1, 0, Title_t, "Piano, Minstrel\000"
1, 0, Time_signature, 4, 2, 24, 8
1, 0, Key_signature, 0, "major"
1, 0, Tempo, 857143
1, 0, Control_c, 15, 121, 0
1, 0, Program_c, 15, 0
1, 0, Control_c, 15, 7, 100
1, 0, Control_c, 15, 10, 64
1, 0, Control_c, 15, 91, 0
1, 0, Control_c, 15, 93, 0
1, 0, MIDI_port, 0
1, 0, Note_on_c, 15, 67, 80
1, 30, Note_on_c, 15, 72, 80
1, 60, Note_on_c, 15, 76, 80
1, 228, Note_on_c, 15, 72, 0
1, 230, Note_on_c, 15, 76, 0
1, 239, Note_on_c, 15, 67, 0
1, 240, Note_on_c, 15, 67, 80
1, 467, Note_on_c, 15, 67, 0
1, 480, Note_on_c, 15, 76, 80
1, 707, Note_on_c, 15, 76, 0
1, 720, Note_on_c, 15, 77, 80
1, 947, Note_on_c, 15, 77, 0
1, 960, Note_on_c, 15, 67, 80
1, 990, Note_on_c, 15, 72, 80
1, 1020, Note_on_c, 15, 76, 80
1, 1188, Note_on_c, 15, 72, 0
1, 1190, Note_on_c, 15, 76, 0
1, 1199, Note_on_c, 15, 67, 0
1, 1200, Note_on_c, 15, 67, 80
1, 1427, Note_on_c, 15, 67, 0
1, 1440, Note_on_c, 15, 76, 80
1, 1667, Note_on_c, 15, 76, 0
1, 1680, Note_on_c, 15, 77, 80
1, 1907, Note_on_c, 15, 77, 0
1, 1920, Note_on_c, 15, 69, 80
1, 1950, Note_on_c, 15, 72, 80
1, 1980, Note_on_c, 15, 76, 80
1, 2148, Note_on_c, 15, 72, 0
1, 2150, Note_on_c, 15, 76, 0
1, 2159, Note_on_c, 15, 69, 0
1, 2160, Note_on_c, 15, 69, 80
1, 2387, Note_on_c, 15, 69, 0
1, 2400, Note_on_c, 15, 76, 80
1, 2627, Note_on_c, 15, 76, 0
1, 2640, Note_on_c, 15, 77, 80
1, 2867, Note_on_c, 15, 77, 0
1, 2880, Note_on_c, 15, 69, 80
1, 2910, Note_on_c, 15, 72, 80
1, 2940, Note_on_c, 15, 76, 80
1, 3108, Note_on_c, 15, 72, 0
1, 3110, Note_on_c, 15, 76, 0
1, 3119, Note_on_c, 15, 69, 0
1, 3120, Note_on_c, 15, 67, 80
1, 3347, Note_on_c, 15, 67, 0
1, 3360, Note_on_c, 15, 76, 80
1, 3587, Note_on_c, 15, 76, 0
1, 3600, Note_on_c, 15, 77, 80
1, 3827, Note_on_c, 15, 77, 0
1, 3840, Note_on_c, 15, 69, 80
1, 3870, Note_on_c, 15, 72, 80
1, 3900, Note_on_c, 15, 77, 80
1, 4068, Note_on_c, 15, 72, 0
1, 4070, Note_on_c, 15, 77, 0
1, 4079, Note_on_c, 15, 69, 0
1, 4080, Note_on_c, 15, 69, 80
1, 4307, Note_on_c, 15, 69, 0
1, 4320, Note_on_c, 15, 77, 80
1, 4547, Note_on_c, 15, 77, 0
1, 4560, Note_on_c, 15, 79, 80
1, 4787, Note_on_c, 15, 79, 0
1, 4800, Note_on_c, 15, 69, 80
1, 4830, Note_on_c, 15, 72, 80
1, 4860, Note_on_c, 15, 77, 80
1, 5028, Note_on_c, 15, 72, 0
1, 5030, Note_on_c, 15, 77, 0
1, 5039, Note_on_c, 15, 69, 0
1, 5040, Note_on_c, 15, 69, 80
1, 5267, Note_on_c, 15, 69, 0
1, 5280, Note_on_c, 15, 77, 80
1, 5507, Note_on_c, 15, 77, 0
1, 5520, Note_on_c, 15, 79, 80
1, 5747, Note_on_c, 15, 79, 0
1, 5760, Note_on_c, 15, 69, 80
1, 5790, Note_on_c, 15, 74, 80
1, 5820, Note_on_c, 15, 77, 80
1, 5988, Note_on_c, 15, 74, 0
1, 5990, Note_on_c, 15, 77, 0
1, 5999, Note_on_c, 15, 69, 0
1, 6000, Note_on_c, 15, 69, 80
1, 6227, Note_on_c, 15, 69, 0
1, 6240, Note_on_c, 15, 77, 80
1, 6467, Note_on_c, 15, 77, 0
1, 6480, Note_on_c, 15, 76, 80
1, 6707, Note_on_c, 15, 76, 0
1, 6720, Note_on_c, 15, 74, 80
1, 6947, Note_on_c, 15, 74, 0
1, 6960, Note_on_c, 15, 71, 80
1, 7187, Note_on_c, 15, 71, 0
1, 7200, Note_on_c, 15, 67, 80
1, 7427, Note_on_c, 15, 67, 0
1, 7440, Note_on_c, 15, 74, 80
1, 7553, Note_on_c, 15, 74, 0
1, 7560, Note_on_c, 15, 72, 80
1, 7673, Note_on_c, 15, 72, 0
1, 7680, Note_on_c, 15, 72, 80
1, 8591, Note_on_c, 15, 72, 0
1, 8640, Note_on_c, 15, 72, 80
1, 8867, Note_on_c, 15, 72, 0
1, 8880, Note_on_c, 15, 74, 80
1, 9107, Note_on_c, 15, 74, 0
1, 9120, Note_on_c, 15, 76, 80
1, 9347, Note_on_c, 15, 76, 0
1, 9360, Note_on_c, 15, 77, 80
1, 9587, Note_on_c, 15, 77, 0
1, 9600, Note_on_c, 15, 76, 80
1, 10283, Note_on_c, 15, 76, 0
1, 10320, Note_on_c, 15, 77, 80
1, 10547, Note_on_c, 15, 77, 0
1, 10560, Note_on_c, 15, 74, 80
1, 10787, Note_on_c, 15, 74, 0
1, 10800, Note_on_c, 15, 72, 80
1, 10913, Note_on_c, 15, 72, 0
1, 10920, Note_on_c, 15, 74, 80
1, 11261, Note_on_c, 15, 74, 0
1, 11280, Note_on_c, 15, 71, 80
1, 11393, Note_on_c, 15, 71, 0
1, 11400, Note_on_c, 15, 71, 80
1, 11513, Note_on_c, 15, 71, 0
1, 11520, Note_on_c, 15, 72, 80
1, 11975, Note_on_c, 15, 72, 0
1, 12120, Note_on_c, 15, 69, 80
1, 12233, Note_on_c, 15, 69, 0
1, 12240, Note_on_c, 15, 69, 80
1, 12353, Note_on_c, 15, 69, 0
1, 12360, Note_on_c, 15, 71, 80
1, 12473, Note_on_c, 15, 71, 0
1, 12480, Note_on_c, 15, 72, 80
1, 12935, Note_on_c, 15, 72, 0
1, 12960, Note_on_c, 15, 72, 80
1, 13187, Note_on_c, 15, 72, 0
1, 13200, Note_on_c, 15, 74, 80
1, 13427, Note_on_c, 15, 74, 0
1, 13440, Note_on_c, 15, 76, 80
1, 13667, Note_on_c, 15, 76, 0
1, 13680, Note_on_c, 15, 71, 80
1, 13793, Note_on_c, 15, 71, 0
1, 13800, Note_on_c, 15, 71, 80
1, 14825, Note_on_c, 15, 71, 0
1, 14880, Note_on_c, 15, 72, 80
1, 15107, Note_on_c, 15, 72, 0
1, 15120, Note_on_c, 15, 71, 80
1, 15347, Note_on_c, 15, 71, 0
1, 15360, Note_on_c, 15, 69, 80
1, 16043, Note_on_c, 15, 69, 0
1, 16080, Note_on_c, 15, 81, 80
1, 16307, Note_on_c, 15, 81, 0
1, 16320, Note_on_c, 15, 79, 80
1, 16547, Note_on_c, 15, 79, 0
1, 16560, Note_on_c, 15, 77, 80
1, 16787, Note_on_c, 15, 77, 0
1, 16800, Note_on_c, 15, 76, 80
1, 17027, Note_on_c, 15, 76, 0
1, 17040, Note_on_c, 15, 77, 80
1, 17267, Note_on_c, 15, 77, 0
1, 17280, Note_on_c, 15, 79, 80
1, 17963, Note_on_c, 15, 79, 0
1, 18000, Note_on_c, 15, 71, 80
1, 18227, Note_on_c, 15, 71, 0
1, 18240, Note_on_c, 15, 72, 80
1, 18923, Note_on_c, 15, 72, 0
1, 18960, Note_on_c, 15, 77, 80
1, 19073, Note_on_c, 15, 77, 0
1, 19080, Note_on_c, 15, 76, 80
1, 19193, Note_on_c, 15, 76, 0
1, 19200, Note_on_c, 15, 77, 80
1, 19883, Note_on_c, 15, 77, 0
1, 19920, Note_on_c, 15, 77, 80
1, 20033, Note_on_c, 15, 77, 0
1, 20040, Note_on_c, 15, 77, 80
1, 20153, Note_on_c, 15, 77, 0
1, 20160, Note_on_c, 15, 76, 80
1, 20387, Note_on_c, 15, 76, 0
1, 20400, Note_on_c, 15, 74, 80
1, 20627, Note_on_c, 15, 74, 0
1, 20640, Note_on_c, 15, 72, 80
1, 20867, Note_on_c, 15, 72, 0
1, 20880, Note_on_c, 15, 71, 80
1, 21107, Note_on_c, 15, 71, 0
1, 21120, Note_on_c, 15, 72, 80
1, 22943, Note_on_c, 15, 72, 0
1, 23520, Note_on_c, 15, 72, 80
1, 23747, Note_on_c, 15, 72, 0
1, 23760, Note_on_c, 15, 71, 80
1, 23873, Note_on_c, 15, 71, 0
1, 23880, Note_on_c, 15, 72, 80
1, 24449, Note_on_c, 15, 72, 0
1, 24480, Note_on_c, 15, 64, 80
1, 24707, Note_on_c, 15, 64, 0
1, 24720, Note_on_c, 15, 65, 80
1, 24833, Note_on_c, 15, 65, 0
1, 24840, Note_on_c, 15, 67, 80
1, 26777, Note_on_c, 15, 67, 0
1, 27360, Note_on_c, 15, 69, 80
1, 27587, Note_on_c, 15, 69, 0
1, 27600, Note_on_c, 15, 69, 80
1, 27713, Note_on_c, 15, 69, 0
1, 27720, Note_on_c, 15, 69, 80
1, 28061, Note_on_c, 15, 69, 0
1, 28080, Note_on_c, 15, 67, 80
1, 28307, Note_on_c, 15, 67, 0
1, 28320, Note_on_c, 15, 65, 80
1, 28547, Note_on_c, 15, 65, 0
1, 28560, Note_on_c, 15, 69, 80
1, 28787, Note_on_c, 15, 69, 0
1, 28800, Note_on_c, 15, 67, 80
1, 29027, Note_on_c, 15, 67, 0
1, 29040, Note_on_c, 15, 62, 80
1, 29153, Note_on_c, 15, 62, 0
1, 29160, Note_on_c, 15, 64, 80
1, 30641, Note_on_c, 15, 64, 0
1, 30720, Note_on_c, 15, 65, 80
1, 31403, Note_on_c, 15, 65, 0
1, 31440, Note_on_c, 15, 67, 80
1, 31667, Note_on_c, 15, 67, 0
1, 31680, Note_on_c, 15, 67, 80
1, 32135, Note_on_c, 15, 67, 0
1, 32400, Note_on_c, 15, 64, 80
1, 32627, Note_on_c, 15, 64, 0
1, 32640, Note_on_c, 15, 67, 80
1, 33323, Note_on_c, 15, 67, 0
1, 33360, Note_on_c, 15, 69, 80
1, 33587, Note_on_c, 15, 69, 0
1, 33600, Note_on_c, 15, 69, 80
1, 34511, Note_on_c, 15, 69, 0
1, 35040, Note_on_c, 15, 65, 80
1, 35267, Note_on_c, 15, 65, 0
1, 35280, Note_on_c, 15, 69, 80
1, 35507, Note_on_c, 15, 69, 0
1, 35520, Note_on_c, 15, 69, 80
1, 35747, Note_on_c, 15, 69, 0
1, 35760, Note_on_c, 15, 72, 80
1, 35987, Note_on_c, 15, 72, 0
1, 36240, Note_on_c, 15, 72, 80
1, 36353, Note_on_c, 15, 72, 0
1, 36360, Note_on_c, 15, 74, 80
1, 36473, Note_on_c, 15, 74, 0
1, 36480, Note_on_c, 15, 71, 80
1, 36707, Note_on_c, 15, 71, 0
1, 36720, Note_on_c, 15, 69, 80
1, 36947, Note_on_c, 15, 69, 0
1, 36960, Note_on_c, 15, 69, 80
1, 37187, Note_on_c, 15, 69, 0
1, 37200, Note_on_c, 15, 67, 80
1, 38339, Note_on_c, 15, 67, 0
1, 38880, Note_on_c, 15, 72, 80
1, 39107, Note_on_c, 15, 72, 0
1, 39120, Note_on_c, 15, 71, 80
1, 39347, Note_on_c, 15, 71, 0
1, 39360, Note_on_c, 15, 72, 80
1, 39587, Note_on_c, 15, 72, 0
1, 39600, Note_on_c, 15, 71, 80
1, 39713, Note_on_c, 15, 71, 0
1, 39720, Note_on_c, 15, 72, 80
1, 40061, Note_on_c, 15, 72, 0
1, 40080, Note_on_c, 15, 65, 80
1, 40193, Note_on_c, 15, 65, 0
1, 40200, Note_on_c, 15, 67, 80
1, 41225, Note_on_c, 15, 67, 0
1, 41280, Note_on_c, 15, 69, 80
1, 41507, Note_on_c, 15, 69, 0
1, 41520, Note_on_c, 15, 67, 80
1, 41747, Note_on_c, 15, 67, 0
1, 41760, Note_on_c, 15, 65, 80
1, 41987, Note_on_c, 15, 65, 0
1, 42000, Note_on_c, 15, 64, 80
1, 42227, Note_on_c, 15, 64, 0
1, 42240, Note_on_c, 15, 65, 80
1, 42923, Note_on_c, 15, 65, 0
1, 42960, Note_on_c, 15, 65, 80
1, 43073, Note_on_c, 15, 65, 0
1, 43080, Note_on_c, 15, 65, 80
1, 43193, Note_on_c, 15, 65, 0
1, 43200, Note_on_c, 15, 67, 80
1, 43427, Note_on_c, 15, 67, 0
1, 43440, Note_on_c, 15, 67, 80
1, 43781, Note_on_c, 15, 67, 0
1, 43800, Note_on_c, 15, 67, 80
1, 43913, Note_on_c, 15, 67, 0
1, 43920, Note_on_c, 15, 65, 80
1, 44033, Note_on_c, 15, 65, 0
1, 44040, Note_on_c, 15, 67, 80
1, 44153, Note_on_c, 15, 67, 0
1, 46560, Note_on_c, 15, 69, 80
1, 46787, Note_on_c, 15, 69, 0
1, 46800, Note_on_c, 15, 71, 80
1, 46913, Note_on_c, 15, 71, 0
1, 46920, Note_on_c, 15, 72, 80
1, 47261, Note_on_c, 15, 72, 0
1, 47280, Note_on_c, 15, 72, 80
1, 47507, Note_on_c, 15, 72, 0
1, 47520, Note_on_c, 15, 72, 80
1, 47747, Note_on_c, 15, 72, 0
1, 47760, Note_on_c, 15, 74, 80
1, 47873, Note_on_c, 15, 74, 0
1, 47880, Note_on_c, 15, 76, 80
1, 48677, Note_on_c, 15, 76, 0
1, 48720, Note_on_c, 15, 76, 80
1, 48947, Note_on_c, 15, 76, 0
1, 48960, Note_on_c, 15, 77, 80
1, 49187, Note_on_c, 15, 77, 0
1, 49200, Note_on_c, 15, 76, 80
1, 49427, Note_on_c, 15, 76, 0
1, 49440, Note_on_c, 15, 74, 80
1, 49553, Note_on_c, 15, 74, 0
1, 49560, Note_on_c, 15, 72, 80
1, 49787, Note_on_c, 15, 72, 0
1, 49800, Note_on_c, 15, 76, 80
1, 49913, Note_on_c, 15, 76, 0
1, 49920, Note_on_c, 15, 74, 80
1, 50375, Note_on_c, 15, 74, 0
1, 50640, Note_on_c, 15, 69, 80
1, 50753, Note_on_c, 15, 69, 0
1, 50760, Note_on_c, 15, 71, 80
1, 50873, Note_on_c, 15, 71, 0
1, 50880, Note_on_c, 15, 71, 80
1, 51335, Note_on_c, 15, 71, 0
1, 51360, Note_on_c, 15, 71, 80
1, 51587, Note_on_c, 15, 71, 0
1, 51600, Note_on_c, 15, 72, 80
1, 51713, Note_on_c, 15, 72, 0
1, 51720, Note_on_c, 15, 74, 80
1, 51833, Note_on_c, 15, 74, 0
1, 51840, Note_on_c, 15, 74, 80
1, 52067, Note_on_c, 15, 74, 0
1, 52080, Note_on_c, 15, 72, 80
1, 52193, Note_on_c, 15, 72, 0
1, 52200, Note_on_c, 15, 72, 80
1, 53681, Note_on_c, 15, 72, 0
1, 54240, Note_on_c, 15, 72, 80
1, 54467, Note_on_c, 15, 72, 0
1, 54480, Note_on_c, 15, 71, 80
1, 54593, Note_on_c, 15, 71, 0
1, 54600, Note_on_c, 15, 72, 80
1, 55169, Note_on_c, 15, 72, 0
1, 55200, Note_on_c, 15, 64, 80
1, 55427, Note_on_c, 15, 64, 0
1, 55440, Note_on_c, 15, 65, 80
1, 55553, Note_on_c, 15, 65, 0
1, 55560, Note_on_c, 15, 67, 80
1, 57497, Note_on_c, 15, 67, 0
1, 58080, Note_on_c, 15, 69, 80
1, 58307, Note_on_c, 15, 69, 0
1, 58320, Note_on_c, 15, 69, 80
1, 58547, Note_on_c, 15, 69, 0
1, 58560, Note_on_c, 15, 69, 80
1, 58787, Note_on_c, 15, 69, 0
1, 58800, Note_on_c, 15, 67, 80
1, 58913, Note_on_c, 15, 67, 0
1, 58920, Note_on_c, 15, 65, 80
1, 59261, Note_on_c, 15, 65, 0
1, 59280, Note_on_c, 15, 69, 80
1, 59507, Note_on_c, 15, 69, 0
1, 59520, Note_on_c, 15, 67, 80
1, 59747, Note_on_c, 15, 67, 0
1, 59760, Note_on_c, 15, 65, 80
1, 59873, Note_on_c, 15, 65, 0
1, 59880, Note_on_c, 15, 64, 80
1, 60905, Note_on_c, 15, 64, 0
1, 61200, Note_on_c, 15, 64, 80
1, 61427, Note_on_c, 15, 64, 0
1, 61440, Note_on_c, 15, 65, 80
1, 61667, Note_on_c, 15, 65, 0
1, 61680, Note_on_c, 15, 65, 80
1, 61907, Note_on_c, 15, 65, 0
1, 61920, Note_on_c, 15, 65, 80
1, 62147, Note_on_c, 15, 65, 0
1, 62160, Note_on_c, 15, 67, 80
1, 62387, Note_on_c, 15, 67, 0
1, 62400, Note_on_c, 15, 67, 80
1, 62855, Note_on_c, 15, 67, 0
1, 63120, Note_on_c, 15, 64, 80
1, 63347, Note_on_c, 15, 64, 0
1, 63360, Note_on_c, 15, 67, 80
1, 64043, Note_on_c, 15, 67, 0
1, 64080, Note_on_c, 15, 69, 80
1, 64307, Note_on_c, 15, 69, 0
1, 64320, Note_on_c, 15, 69, 80
1, 65231, Note_on_c, 15, 69, 0
1, 65760, Note_on_c, 15, 65, 80
1, 65987, Note_on_c, 15, 65, 0
1, 66000, Note_on_c, 15, 69, 80
1, 66227, Note_on_c, 15, 69, 0
1, 66240, Note_on_c, 15, 69, 80
1, 66467, Note_on_c, 15, 69, 0
1, 66480, Note_on_c, 15, 72, 80
1, 66707, Note_on_c, 15, 72, 0
1, 66720, Note_on_c, 15, 72, 80
1, 66947, Note_on_c, 15, 72, 0
1, 66960, Note_on_c, 15, 74, 80
1, 67187, Note_on_c, 15, 74, 0
1, 67200, Note_on_c, 15, 74, 80
1, 67427, Note_on_c, 15, 74, 0
1, 67440, Note_on_c, 15, 72, 80
1, 67667, Note_on_c, 15, 72, 0
1, 67680, Note_on_c, 15, 72, 80
1, 67907, Note_on_c, 15, 72, 0
1, 67920, Note_on_c, 15, 71, 80
1, 68375, Note_on_c, 15, 71, 0
1, 68400, Note_on_c, 15, 74, 80
1, 68627, Note_on_c, 15, 74, 0
1, 68640, Note_on_c, 15, 77, 80
1, 68677, Note_on_c, 15, 77, 0
1, 68680, Note_on_c, 15, 79, 80
1, 68869, Note_on_c, 15, 79, 0
1, 68880, Note_on_c, 15, 77, 80
1, 69107, Note_on_c, 15, 77, 0
1, 69120, Note_on_c, 15, 74, 80
1, 69120, Note_on_c, 15, 64, 80
1, 69347, Note_on_c, 15, 74, 0
1, 69360, Note_on_c, 15, 72, 80
1, 69575, Note_on_c, 15, 64, 0
1, 69587, Note_on_c, 15, 72, 0
1, 69600, Note_on_c, 15, 64, 80
1, 69600, Note_on_c, 15, 72, 80
1, 69827, Note_on_c, 15, 64, 0
1, 69827, Note_on_c, 15, 72, 0
1, 69840, Note_on_c, 15, 62, 80
1, 69840, Note_on_c, 15, 71, 80
1, 69953, Note_on_c, 15, 62, 0
1, 69953, Note_on_c, 15, 71, 0
1, 69960, Note_on_c, 15, 64, 80
1, 69960, Note_on_c, 15, 72, 80
1, 70301, Note_on_c, 15, 64, 0
1, 70301, Note_on_c, 15, 72, 0
1, 70320, Note_on_c, 15, 62, 80
1, 70320, Note_on_c, 15, 71, 80
1, 70433, Note_on_c, 15, 62, 0
1, 70433, Note_on_c, 15, 71, 0
1, 70440, Note_on_c, 15, 64, 80
1, 70440, Note_on_c, 15, 72, 80
1, 70553, Note_on_c, 15, 64, 0
1, 70553, Note_on_c, 15, 72, 0
1, 70560, Note_on_c, 15, 60, 80
1, 70560, Note_on_c, 15, 64, 80
1, 70799, Note_on_c, 15, 64, 0
1, 70800, Note_on_c, 15, 65, 80
1, 70913, Note_on_c, 15, 65, 0
1, 70920, Note_on_c, 15, 69, 80
1, 71129, Note_on_c, 15, 60, 0
1, 71147, Note_on_c, 15, 69, 0
1, 71160, Note_on_c, 15, 69, 80
1, 71160, Note_on_c, 15, 60, 80
1, 71273, Note_on_c, 15, 69, 0
1, 71280, Note_on_c, 15, 67, 80
1, 71501, Note_on_c, 15, 60, 0
1, 71963, Note_on_c, 15, 67, 0
1, 72000, Note_on_c, 15, 69, 80
1, 72227, Note_on_c, 15, 69, 0
1, 72240, Note_on_c, 15, 67, 80
1, 72467, Note_on_c, 15, 67, 0
1, 72480, Note_on_c, 15, 65, 80
1, 72707, Note_on_c, 15, 65, 0
1, 72720, Note_on_c, 15, 64, 80
1, 72839, Note_on_c, 15, 64, 0
1, 72840, Note_on_c, 15, 65, 80
1, 72960, Note_on_c, 15, 57, 80
1, 73409, Note_on_c, 15, 65, 0
1, 73415, Note_on_c, 15, 57, 0
1, 73680, Note_on_c, 15, 65, 80
1, 73793, Note_on_c, 15, 65, 0
1, 73800, Note_on_c, 15, 65, 80
1, 73913, Note_on_c, 15, 65, 0
1, 73920, Note_on_c, 15, 77, 80
1, 73920, Note_on_c, 15, 67, 80
1, 74159, Note_on_c, 15, 67, 0
1, 74160, Note_on_c, 15, 67, 80
1, 74501, Note_on_c, 15, 67, 0
1, 74520, Note_on_c, 15, 67, 80
1, 74633, Note_on_c, 15, 67, 0
1, 74640, Note_on_c, 15, 65, 80
1, 74753, Note_on_c, 15, 65, 0
1, 74760, Note_on_c, 15, 67, 80
1, 74831, Note_on_c, 15, 77, 0
1, 74873, Note_on_c, 15, 67, 0
1, 74880, Note_on_c, 15, 67, 80
1, 74880, Note_on_c, 15, 76, 80
1, 75791, Note_on_c, 15, 67, 0
1, 75791, Note_on_c, 15, 76, 0
1, 75840, Note_on_c, 15, 64, 80
1, 75959, Note_on_c, 15, 64, 0
1, 75960, Note_on_c, 15, 60, 80
1, 76080, Note_on_c, 15, 62, 80
1, 76193, Note_on_c, 15, 62, 0
1, 76200, Note_on_c, 15, 64, 80
1, 76301, Note_on_c, 15, 60, 0
1, 76313, Note_on_c, 15, 64, 0
1, 76320, Note_on_c, 15, 65, 80
1, 76433, Note_on_c, 15, 65, 0
1, 76440, Note_on_c, 15, 67, 80
1, 76553, Note_on_c, 15, 67, 0
1, 76560, Note_on_c, 15, 69, 80
1, 76673, Note_on_c, 15, 69, 0
1, 76680, Note_on_c, 15, 71, 80
1, 76793, Note_on_c, 15, 71, 0
1, 76800, Note_on_c, 15, 64, 80
1, 76800, Note_on_c, 15, 72, 80
1, 77255, Note_on_c, 15, 64, 0
1, 77255, Note_on_c, 15, 72, 0
1, 77280, Note_on_c, 15, 60, 80
1, 77280, Note_on_c, 15, 69, 80
1, 77507, Note_on_c, 15, 60, 0
1, 77507, Note_on_c, 15, 69, 0
1, 77520, Note_on_c, 15, 62, 80
1, 77520, Note_on_c, 15, 71, 80
1, 77633, Note_on_c, 15, 62, 0
1, 77633, Note_on_c, 15, 71, 0
1, 77640, Note_on_c, 15, 64, 80
1, 77640, Note_on_c, 15, 72, 80
1, 77981, Note_on_c, 15, 64, 0
1, 77981, Note_on_c, 15, 72, 0
1, 78000, Note_on_c, 15, 72, 80
1, 78227, Note_on_c, 15, 72, 0
1, 78240, Note_on_c, 15, 72, 80
1, 78467, Note_on_c, 15, 72, 0
1, 78480, Note_on_c, 15, 74, 80
1, 78593, Note_on_c, 15, 74, 0
1, 78600, Note_on_c, 15, 76, 80
1, 79169, Note_on_c, 15, 76, 0
1, 79440, Note_on_c, 15, 76, 80
1, 79667, Note_on_c, 15, 76, 0
1, 79680, Note_on_c, 15, 77, 80
1, 79907, Note_on_c, 15, 77, 0
1, 79920, Note_on_c, 15, 76, 80
1, 80147, Note_on_c, 15, 76, 0
1, 80160, Note_on_c, 15, 74, 80
1, 80160, Note_on_c, 15, 67, 80
1, 80273, Note_on_c, 15, 74, 0
1, 80280, Note_on_c, 15, 72, 80
1, 80507, Note_on_c, 15, 72, 0
1, 80520, Note_on_c, 15, 76, 80
1, 80615, Note_on_c, 15, 67, 0
1, 80633, Note_on_c, 15, 76, 0
1, 80640, Note_on_c, 15, 74, 80
1, 81095, Note_on_c, 15, 74, 0
1, 81240, Note_on_c, 15, 69, 80
1, 81467, Note_on_c, 15, 69, 0
1, 81480, Note_on_c, 15, 71, 80
1, 81593, Note_on_c, 15, 71, 0
1, 81600, Note_on_c, 15, 71, 80
1, 82055, Note_on_c, 15, 71, 0
1, 82080, Note_on_c, 15, 65, 80
1, 82080, Note_on_c, 15, 71, 80
1, 82231, Note_on_c, 15, 65, 0
1, 82231, Note_on_c, 15, 71, 0
1, 82240, Note_on_c, 15, 72, 80
1, 82391, Note_on_c, 15, 72, 0
1, 82400, Note_on_c, 15, 74, 80
1, 82551, Note_on_c, 15, 74, 0
1, 82560, Note_on_c, 15, 65, 80
1, 82560, Note_on_c, 15, 74, 80
1, 82787, Note_on_c, 15, 65, 0
1, 82787, Note_on_c, 15, 74, 0
1, 82800, Note_on_c, 15, 64, 80
1, 82800, Note_on_c, 15, 72, 80
1, 82913, Note_on_c, 15, 64, 0
1, 82913, Note_on_c, 15, 72, 0
1, 82920, Note_on_c, 15, 64, 80
1, 82920, Note_on_c, 15, 72, 80
1, 84287, Note_on_c, 15, 64, 0
1, 84287, Note_on_c, 15, 72, 0
1, 84480, Note_on_c, 15, 77, 80
1, 84707, Note_on_c, 15, 77, 0
1, 84720, Note_on_c, 15, 76, 80
1, 84947, Note_on_c, 15, 76, 0
1, 84960, Note_on_c, 15, 77, 80
1, 85073, Note_on_c, 15, 77, 0
1, 85080, Note_on_c, 15, 74, 80
1, 85307, Note_on_c, 15, 74, 0
1, 85320, Note_on_c, 15, 71, 80
1, 85889, Note_on_c, 15, 71, 0
1, 86040, Note_on_c, 15, 71, 80
1, 86153, Note_on_c, 15, 71, 0
1, 86160, Note_on_c, 15, 71, 80
1, 86273, Note_on_c, 15, 71, 0
1, 86280, Note_on_c, 15, 71, 80
1, 86393, Note_on_c, 15, 71, 0
1, 86400, Note_on_c, 15, 79, 80
1, 86627, Note_on_c, 15, 79, 0
1, 86640, Note_on_c, 15, 77, 80
1, 86867, Note_on_c, 15, 77, 0
1, 86880, Note_on_c, 15, 79, 80
1, 86993, Note_on_c, 15, 79, 0
1, 87000, Note_on_c, 15, 77, 80
1, 87227, Note_on_c, 15, 77, 0
1, 87240, Note_on_c, 15, 76, 80
1, 87809, Note_on_c, 15, 76, 0
1, 87960, Note_on_c, 15, 76, 80
1, 88073, Note_on_c, 15, 76, 0
1, 88080, Note_on_c, 15, 76, 80
1, 88193, Note_on_c, 15, 76, 0
1, 88200, Note_on_c, 15, 74, 80
1, 88313, Note_on_c, 15, 74, 0
1, 88320, Note_on_c, 15, 76, 80
1, 88775, Note_on_c, 15, 76, 0
1, 88920, Note_on_c, 15, 72, 80
1, 89033, Note_on_c, 15, 72, 0
1, 89040, Note_on_c, 15, 72, 80
1, 89153, Note_on_c, 15, 72, 0
1, 89160, Note_on_c, 15, 74, 80
1, 89273, Note_on_c, 15, 74, 0
1, 89280, Note_on_c, 15, 76, 80
1, 89735, Note_on_c, 15, 76, 0
1, 89760, Note_on_c, 15, 76, 80
1, 89987, Note_on_c, 15, 76, 0
1, 90000, Note_on_c, 15, 77, 80
1, 90227, Note_on_c, 15, 77, 0
1, 90240, Note_on_c, 15, 79, 80
1, 90467, Note_on_c, 15, 79, 0
1, 90480, Note_on_c, 15, 77, 80
1, 90593, Note_on_c, 15, 77, 0
1, 90600, Note_on_c, 15, 77, 80
1, 90713, Note_on_c, 15, 77, 0
1, 91680, Note_on_c, 15, 76, 80
1, 91907, Note_on_c, 15, 76, 0
1, 91920, Note_on_c, 15, 74, 80
1, 92147, Note_on_c, 15, 74, 0
1, 92160, Note_on_c, 15, 72, 80
1, 93071, Note_on_c, 15, 72, 0
1, 93120, Note_on_c, 15, 72, 80
1, 93347, Note_on_c, 15, 72, 0
1, 93360, Note_on_c, 15, 74, 80
1, 93587, Note_on_c, 15, 74, 0
1, 93600, Note_on_c, 15, 76, 80
1, 93827, Note_on_c, 15, 76, 0
1, 93840, Note_on_c, 15, 77, 80
1, 94067, Note_on_c, 15, 77, 0
1, 94080, Note_on_c, 15, 76, 80
1, 94763, Note_on_c, 15, 76, 0
1, 94800, Note_on_c, 15, 71, 80
1, 94800, Note_on_c, 15, 77, 80
1, 95027, Note_on_c, 15, 71, 0
1, 95027, Note_on_c, 15, 77, 0
1, 95040, Note_on_c, 15, 74, 80
1, 95267, Note_on_c, 15, 74, 0
1, 95280, Note_on_c, 15, 72, 80
1, 95393, Note_on_c, 15, 72, 0
1, 95400, Note_on_c, 15, 74, 80
1, 95741, Note_on_c, 15, 74, 0
1, 95760, Note_on_c, 15, 67, 80
1, 95760, Note_on_c, 15, 71, 80
1, 95987, Note_on_c, 15, 67, 0
1, 95987, Note_on_c, 15, 71, 0
1, 96000, Note_on_c, 15, 72, 80
1, 96455, Note_on_c, 15, 72, 0
1, 96600, Note_on_c, 15, 64, 80
1, 96600, Note_on_c, 15, 69, 80
1, 96713, Note_on_c, 15, 64, 0
1, 96713, Note_on_c, 15, 69, 0
1, 96720, Note_on_c, 15, 64, 80
1, 96720, Note_on_c, 15, 69, 80
1, 96833, Note_on_c, 15, 64, 0
1, 96833, Note_on_c, 15, 69, 0
1, 96840, Note_on_c, 15, 67, 80
1, 96840, Note_on_c, 15, 71, 80
1, 96953, Note_on_c, 15, 67, 0
1, 96953, Note_on_c, 15, 71, 0
1, 96960, Note_on_c, 15, 69, 80
1, 96960, Note_on_c, 15, 72, 80
1, 97415, Note_on_c, 15, 69, 0
1, 97415, Note_on_c, 15, 72, 0
1, 97440, Note_on_c, 15, 67, 80
1, 97440, Note_on_c, 15, 72, 80
1, 97667, Note_on_c, 15, 67, 0
1, 97667, Note_on_c, 15, 72, 0
1, 97680, Note_on_c, 15, 74, 80
1, 97907, Note_on_c, 15, 74, 0
1, 97920, Note_on_c, 15, 76, 80
1, 98147, Note_on_c, 15, 76, 0
1, 98160, Note_on_c, 15, 71, 80
1, 98273, Note_on_c, 15, 71, 0
1, 98280, Note_on_c, 15, 71, 80
1, 98621, Note_on_c, 15, 71, 0
1, 98640, Note_on_c, 15, 79, 80
1, 98867, Note_on_c, 15, 79, 0
1, 98880, Note_on_c, 15, 77, 80
1, 99107, Note_on_c, 15, 77, 0
1, 99120, Note_on_c, 15, 76, 80
1, 99347, Note_on_c, 15, 76, 0
1, 99360, Note_on_c, 15, 74, 80
1, 99587, Note_on_c, 15, 74, 0
1, 99600, Note_on_c, 15, 71, 80
1, 99827, Note_on_c, 15, 71, 0
1, 99840, Note_on_c, 15, 69, 80
1, 100523, Note_on_c, 15, 69, 0
1, 100560, Note_on_c, 15, 81, 80
1, 100787, Note_on_c, 15, 81, 0
1, 100800, Note_on_c, 15, 79, 80
1, 101027, Note_on_c, 15, 79, 0
1, 101040, Note_on_c, 15, 77, 80
1, 101267, Note_on_c, 15, 77, 0
1, 101280, Note_on_c, 15, 76, 80
1, 101507, Note_on_c, 15, 76, 0
1, 101520, Note_on_c, 15, 77, 80
1, 101747, Note_on_c, 15, 77, 0
1, 101760, Note_on_c, 15, 79, 80
1, 102443, Note_on_c, 15, 79, 0
1, 102480, Note_on_c, 15, 71, 80
1, 102707, Note_on_c, 15, 71, 0
1, 102720, Note_on_c, 15, 72, 80
1, 103403, Note_on_c, 15, 72, 0
1, 103440, Note_on_c, 15, 76, 80
1, 103667, Note_on_c, 15, 76, 0
1, 103680, Note_on_c, 15, 77, 80
1, 104363, Note_on_c, 15, 77, 0
1, 104400, Note_on_c, 15, 77, 80
1, 104513, Note_on_c, 15, 77, 0
1, 104520, Note_on_c, 15, 77, 80
1, 104633, Note_on_c, 15, 77, 0
1, 104640, Note_on_c, 15, 76, 80
1, 104867, Note_on_c, 15, 76, 0
1, 104880, Note_on_c, 15, 74, 80
1, 105107, Note_on_c, 15, 74, 0
1, 105120, Note_on_c, 15, 72, 80
1, 105347, Note_on_c, 15, 72, 0
1, 105360, Note_on_c, 15, 71, 80
1, 105587, Note_on_c, 15, 71, 0
1, 105600, Note_on_c, 15, 72, 80
1, 107423, Note_on_c, 15, 72, 0
1, 107520, Note_on_c, 15, 67, 80
1, 107747, Note_on_c, 15, 67, 0
1, 107760, Note_on_c, 15, 62, 80
1, 107987, Note_on_c, 15, 62, 0
1, 108000, Note_on_c, 15, 64, 80
1, 108455, Note_on_c, 15, 64, 0
1, 108480, Note_on_c, 15, 67, 80
1, 108935, Note_on_c, 15, 67, 0
1, 108960, Note_on_c, 15, 71, 80
1, 109187, Note_on_c, 15, 71, 0
1, 109200, Note_on_c, 15, 71, 80
1, 109427, Note_on_c, 15, 71, 0
1, 109440, Note_on_c, 15, 69, 80
1, 109440, Note_on_c, 15, 72, 80
1, 109667, Note_on_c, 15, 69, 0
1, 109667, Note_on_c, 15, 72, 0
1, 109680, Note_on_c, 15, 74, 80
1, 109907, Note_on_c, 15, 74, 0
1, 109920, Note_on_c, 15, 76, 80
1, 110147, Note_on_c, 15, 76, 0
1, 110160, Note_on_c, 15, 79, 80
1, 110387, Note_on_c, 15, 79, 0
1, 110400, Note_on_c, 15, 64, 80
1, 110627, Note_on_c, 15, 64, 0
1, 110640, Note_on_c, 15, 81, 80
1, 110867, Note_on_c, 15, 81, 0
1, 110880, Note_on_c, 15, 83, 80
1, 111335, Note_on_c, 15, 83, 0
1, 111360, Note_on_c, 15, 72, 80
1, 111360, Note_on_c, 15, 77, 80
1, 111360, Note_on_c, 15, 84, 80
1, 111587, Note_on_c, 15, 72, 0
1, 111587, Note_on_c, 15, 77, 0
1, 111587, Note_on_c, 15, 84, 0
1, 111600, Note_on_c, 15, 83, 80
1, 111827, Note_on_c, 15, 83, 0
1, 111840, Note_on_c, 15, 81, 80
1, 112295, Note_on_c, 15, 81, 0
1, 112320, Note_on_c, 15, 72, 80
1, 112320, Note_on_c, 15, 79, 80
1, 112775, Note_on_c, 15, 72, 0
1, 112775, Note_on_c, 15, 79, 0
1, 112800, Note_on_c, 15, 76, 80
1, 113027, Note_on_c, 15, 76, 0
1, 113040, Note_on_c, 15, 72, 80
1, 113267, Note_on_c, 15, 72, 0
1, 113280, Note_on_c, 15, 62, 80
1, 113280, Note_on_c, 15, 69, 80
1, 113735, Note_on_c, 15, 62, 0
1, 113735, Note_on_c, 15, 69, 0
1, 113760, Note_on_c, 15, 71, 80
1, 114215, Note_on_c, 15, 71, 0
1, 114240, Note_on_c, 15, 71, 80
1, 114467, Note_on_c, 15, 71, 0
1, 114480, Note_on_c, 15, 72, 80
1, 114935, Note_on_c, 15, 72, 0
1, 114960, Note_on_c, 15, 72, 80
1, 115187, Note_on_c, 15, 72, 0
1, 115200, Note_on_c, 15, 72, 80
1, 115427, Note_on_c, 15, 72, 0
1, 115440, Note_on_c, 15, 74, 80
1, 115667, Note_on_c, 15, 74, 0
1, 115680, Note_on_c, 15, 76, 80
1, 116135, Note_on_c, 15, 76, 0
1, 116160, Note_on_c, 15, 71, 80
1, 116615, Note_on_c, 15, 71, 0
1, 116640, Note_on_c, 15, 71, 80
1, 116867, Note_on_c, 15, 71, 0
1, 116880, Note_on_c, 15, 72, 80
1, 117107, Note_on_c, 15, 72, 0
1, 117120, Note_on_c, 15, 72, 80
1, 117347, Note_on_c, 15, 72, 0
1, 117360, Note_on_c, 15, 71, 80
1, 117473, Note_on_c, 15, 71, 0
1, 117480, Note_on_c, 15, 72, 80
1, 117707, Note_on_c, 15, 72, 0
1, 117720, Note_on_c, 15, 72, 80
1, 117833, Note_on_c, 15, 72, 0
1, 117840, Note_on_c, 15, 72, 80
1, 117953, Note_on_c, 15, 72, 0
1, 117960, Note_on_c, 15, 71, 80
1, 118073, Note_on_c, 15, 71, 0
1, 118080, Note_on_c, 15, 69, 80
1, 118307, Note_on_c, 15, 69, 0
1, 118320, Note_on_c, 15, 76, 80
1, 118547, Note_on_c, 15, 76, 0
1, 118560, Note_on_c, 15, 79, 80
1, 119015, Note_on_c, 15, 79, 0
1, 119040, Note_on_c, 15, 84, 80
1, 119723, Note_on_c, 15, 84, 0
1, 119760, Note_on_c, 15, 83, 80
1, 119987, Note_on_c, 15, 83, 0
1, 120000, Note_on_c, 15, 79, 80
1, 120455, Note_on_c, 15, 79, 0
1, 120480, Note_on_c, 15, 76, 80
1, 120707, Note_on_c, 15, 76, 0
1, 120720, Note_on_c, 15, 72, 80
1, 120947, Note_on_c, 15, 72, 0
1, 120960, Note_on_c, 15, 62, 80
1, 120960, Note_on_c, 15, 69, 80
1, 121415, Note_on_c, 15, 62, 0
1, 121415, Note_on_c, 15, 69, 0
1, 121440, Note_on_c, 15, 71, 80
1, 121895, Note_on_c, 15, 71, 0
1, 121920, Note_on_c, 15, 72, 80
1, 122375, Note_on_c, 15, 72, 0
1, 122400, Note_on_c, 15, 74, 80
1, 122627, Note_on_c, 15, 74, 0
1, 122640, Note_on_c, 15, 69, 80
1, 122753, Note_on_c, 15, 69, 0
1, 122760, Note_on_c, 15, 69, 80
1, 122873, Note_on_c, 15, 69, 0
1, 122880, Note_on_c, 15, 81, 80
1, 123107, Note_on_c, 15, 81, 0
1, 123120, Note_on_c, 15, 79, 80
1, 123347, Note_on_c, 15, 79, 0
1, 123360, Note_on_c, 15, 81, 80
1, 123473, Note_on_c, 15, 81, 0
1, 123480, Note_on_c, 15, 77, 80
1, 123707, Note_on_c, 15, 77, 0
1, 123720, Note_on_c, 15, 74, 80
1, 124289, Note_on_c, 15, 74, 0
1, 124440, Note_on_c, 15, 74, 80
1, 124553, Note_on_c, 15, 74, 0
1, 124560, Note_on_c, 15, 74, 80
1, 124673, Note_on_c, 15, 74, 0
1, 124680, Note_on_c, 15, 74, 80
1, 124793, Note_on_c, 15, 74, 0
1, 124800, Note_on_c, 15, 83, 80
1, 125027, Note_on_c, 15, 83, 0
1, 125040, Note_on_c, 15, 81, 80
1, 125267, Note_on_c, 15, 81, 0
1, 125280, Note_on_c, 15, 83, 80
1, 125393, Note_on_c, 15, 83, 0
1, 125400, Note_on_c, 15, 81, 80
1, 125627, Note_on_c, 15, 81, 0
1, 125640, Note_on_c, 15, 79, 80
1, 126209, Note_on_c, 15, 79, 0
1, 126360, Note_on_c, 15, 79, 80
1, 126473, Note_on_c, 15, 79, 0
1, 126480, Note_on_c, 15, 79, 80
1, 126593, Note_on_c, 15, 79, 0
1, 126600, Note_on_c, 15, 77, 80
1, 126713, Note_on_c, 15, 77, 0
1, 126720, Note_on_c, 15, 76, 80
1, 127175, Note_on_c, 15, 76, 0
1, 127320, Note_on_c, 15, 72, 80
1, 127433, Note_on_c, 15, 72, 0
1, 127440, Note_on_c, 15, 72, 80
1, 127553, Note_on_c, 15, 72, 0
1, 127560, Note_on_c, 15, 74, 80
1, 127673, Note_on_c, 15, 74, 0
1, 127680, Note_on_c, 15, 76, 80
1, 128135, Note_on_c, 15, 76, 0
1, 128160, Note_on_c, 15, 76, 80
1, 128387, Note_on_c, 15, 76, 0
1, 128400, Note_on_c, 15, 77, 80
1, 128627, Note_on_c, 15, 77, 0
1, 128640, Note_on_c, 15, 79, 80
1, 128867, Note_on_c, 15, 79, 0
1, 128880, Note_on_c, 15, 77, 80
1, 128993, Note_on_c, 15, 77, 0
1, 129000, Note_on_c, 15, 77, 80
1, 129569, Note_on_c, 15, 77, 0
1, 130080, Note_on_c, 15, 79, 80
1, 130307, Note_on_c, 15, 79, 0
1, 130320, Note_on_c, 15, 77, 80
1, 130547, Note_on_c, 15, 77, 0
1, 130560, Note_on_c, 15, 76, 80
1, 131471, Note_on_c, 15, 76, 0
1, 131520, Note_on_c, 15, 76, 80
1, 131747, Note_on_c, 15, 76, 0
1, 131760, Note_on_c, 15, 77, 80
1, 131987, Note_on_c, 15, 77, 0
1, 132000, Note_on_c, 15, 79, 80
1, 132227, Note_on_c, 15, 79, 0
1, 132240, Note_on_c, 15, 81, 80
1, 132467, Note_on_c, 15, 81, 0
1, 132480, Note_on_c, 15, 79, 80
1, 133163, Note_on_c, 15, 79, 0
1, 133200, Note_on_c, 15, 81, 80
1, 133427, Note_on_c, 15, 81, 0
1, 133440, Note_on_c, 15, 77, 80
1, 133667, Note_on_c, 15, 77, 0
1, 133680, Note_on_c, 15, 76, 80
1, 133793, Note_on_c, 15, 76, 0
1, 133800, Note_on_c, 15, 77, 80
1, 134141, Note_on_c, 15, 77, 0
1, 134160, Note_on_c, 15, 74, 80
1, 134273, Note_on_c, 15, 74, 0
1, 134280, Note_on_c, 15, 74, 80
1, 134393, Note_on_c, 15, 74, 0
1, 134400, Note_on_c, 15, 76, 80
1, 134855, Note_on_c, 15, 76, 0
1, 135000, Note_on_c, 15, 72, 80
1, 135113, Note_on_c, 15, 72, 0
1, 135120, Note_on_c, 15, 72, 80
1, 135233, Note_on_c, 15, 72, 0
1, 135240, Note_on_c, 15, 74, 80
1, 135353, Note_on_c, 15, 74, 0
1, 135360, Note_on_c, 15, 76, 80
1, 135815, Note_on_c, 15, 76, 0
1, 135840, Note_on_c, 15, 76, 80
1, 136067, Note_on_c, 15, 76, 0
1, 136080, Note_on_c, 15, 77, 80
1, 136307, Note_on_c, 15, 77, 0
1, 136320, Note_on_c, 15, 79, 80
1, 136547, Note_on_c, 15, 79, 0
1, 136560, Note_on_c, 15, 74, 80
1, 136673, Note_on_c, 15, 74, 0
1, 136680, Note_on_c, 15, 74, 80
1, 137705, Note_on_c, 15, 74, 0
1, 137760, Note_on_c, 15, 76, 80
1, 137987, Note_on_c, 15, 76, 0
1, 138000, Note_on_c, 15, 74, 80
1, 138227, Note_on_c, 15, 74, 0
1, 138240, Note_on_c, 15, 72, 80
1, 138923, Note_on_c, 15, 72, 0
1, 138960, Note_on_c, 15, 84, 80
1, 139187, Note_on_c, 15, 84, 0
1, 139200, Note_on_c, 15, 83, 80
1, 139427, Note_on_c, 15, 83, 0
1, 139440, Note_on_c, 15, 81, 80
1, 139667, Note_on_c, 15, 81, 0
1, 139680, Note_on_c, 15, 79, 80
1, 139907, Note_on_c, 15, 79, 0
1, 139920, Note_on_c, 15, 81, 80
1, 140147, Note_on_c, 15, 81, 0
1, 140160, Note_on_c, 15, 83, 80
1, 140843, Note_on_c, 15, 83, 0
1, 140880, Note_on_c, 15, 74, 80
1, 141107, Note_on_c, 15, 74, 0
1, 141120, Note_on_c, 15, 76, 80
1, 141803, Note_on_c, 15, 76, 0
1, 141840, Note_on_c, 15, 81, 80
1, 141953, Note_on_c, 15, 81, 0
1, 141960, Note_on_c, 15, 79, 80
1, 142073, Note_on_c, 15, 79, 0
1, 142080, Note_on_c, 15, 81, 80
1, 142763, Note_on_c, 15, 81, 0
1, 142800, Note_on_c, 15, 81, 80
1, 142913, Note_on_c, 15, 81, 0
1, 142920, Note_on_c, 15, 81, 80
1, 143033, Note_on_c, 15, 81, 0
1, 143040, Note_on_c, 15, 79, 80
1, 143267, Note_on_c, 15, 79, 0
1, 143280, Note_on_c, 15, 77, 80
1, 143507, Note_on_c, 15, 77, 0
1, 143520, Note_on_c, 15, 76, 80
1, 143747, Note_on_c, 15, 76, 0
1, 143760, Note_on_c, 15, 74, 80
1, 143987, Note_on_c, 15, 74, 0
1, 144000, Note_on_c, 15, 76, 80
1, 145367, Note_on_c, 15, 76, 0
1, 145440, Note_on_c, 15, 79, 80
1, 145667, Note_on_c, 15, 79, 0
1, 145680, Note_on_c, 15, 77, 80
1, 145907, Note_on_c, 15, 77, 0
1, 145920, Note_on_c, 15, 76, 80
1, 146831, Note_on_c, 15, 76, 0
1, 146880, Note_on_c, 15, 76, 80
1, 147107, Note_on_c, 15, 76, 0
1, 147120, Note_on_c, 15, 77, 80
1, 147347, Note_on_c, 15, 77, 0
1, 147360, Note_on_c, 15, 79, 80
1, 147587, Note_on_c, 15, 79, 0
1, 147600, Note_on_c, 15, 81, 80
1, 147827, Note_on_c, 15, 81, 0
1, 147840, Note_on_c, 15, 79, 80
1, 148523, Note_on_c, 15, 79, 0
1, 148560, Note_on_c, 15, 81, 80
1, 148787, Note_on_c, 15, 81, 0
1, 148800, Note_on_c, 15, 77, 80
1, 149027, Note_on_c, 15, 77, 0
1, 149040, Note_on_c, 15, 76, 80
1, 149153, Note_on_c, 15, 76, 0
1, 149160, Note_on_c, 15, 77, 80
1, 149501, Note_on_c, 15, 77, 0
1, 149520, Note_on_c, 15, 74, 80
1, 149633, Note_on_c, 15, 74, 0
1, 149640, Note_on_c, 15, 74, 80
1, 149753, Note_on_c, 15, 74, 0
1, 149760, Note_on_c, 15, 76, 80
1, 150215, Note_on_c, 15, 76, 0
1, 150360, Note_on_c, 15, 72, 80
1, 150473, Note_on_c, 15, 72, 0
1, 150480, Note_on_c, 15, 72, 80
1, 150593, Note_on_c, 15, 72, 0
1, 150600, Note_on_c, 15, 74, 80
1, 150713, Note_on_c, 15, 74, 0
1, 150720, Note_on_c, 15, 76, 80
1, 151175, Note_on_c, 15, 76, 0
1, 151200, Note_on_c, 15, 76, 80
1, 151427, Note_on_c, 15, 76, 0
1, 151440, Note_on_c, 15, 77, 80
1, 151667, Note_on_c, 15, 77, 0
1, 151680, Note_on_c, 15, 79, 80
1, 151907, Note_on_c, 15, 79, 0
1, 151920, Note_on_c, 15, 74, 80
1, 152033, Note_on_c, 15, 74, 0
1, 152040, Note_on_c, 15, 74, 80
1, 153065, Note_on_c, 15, 74, 0
1, 153120, Note_on_c, 15, 76, 80
1, 153347, Note_on_c, 15, 76, 0
1, 153360, Note_on_c, 15, 74, 80
1, 153587, Note_on_c, 15, 74, 0
1, 153600, Note_on_c, 15, 72, 80
1, 154283, Note_on_c, 15, 72, 0
1, 154320, Note_on_c, 15, 84, 80
1, 154547, Note_on_c, 15, 84, 0
1, 154560, Note_on_c, 15, 83, 80
1, 154787, Note_on_c, 15, 83, 0
1, 154800, Note_on_c, 15, 81, 80
1, 155027, Note_on_c, 15, 81, 0
1, 155040, Note_on_c, 15, 79, 80
1, 155267, Note_on_c, 15, 79, 0
1, 155280, Note_on_c, 15, 81, 80
1, 155507, Note_on_c, 15, 81, 0
1, 155520, Note_on_c, 15, 83, 80
1, 156203, Note_on_c, 15, 83, 0
1, 156240, Note_on_c, 15, 74, 80
1, 156467, Note_on_c, 15, 74, 0
1, 156480, Note_on_c, 15, 76, 80
1, 157163, Note_on_c, 15, 76, 0
1, 157200, Note_on_c, 15, 81, 80
1, 157313, Note_on_c, 15, 81, 0
1, 157320, Note_on_c, 15, 79, 80
1, 157433, Note_on_c, 15, 79, 0
1, 157440, Note_on_c, 15, 81, 80
1, 158123, Note_on_c, 15, 81, 0
1, 158160, Note_on_c, 15, 81, 80
1, 158273, Note_on_c, 15, 81, 0
1, 158280, Note_on_c, 15, 81, 80
1, 158393, Note_on_c, 15, 81, 0
1, 158400, Note_on_c, 15, 79, 80
1, 158627, Note_on_c, 15, 79, 0
1, 158640, Note_on_c, 15, 77, 80
1, 158867, Note_on_c, 15, 77, 0
1, 158880, Note_on_c, 15, 76, 80
1, 159107, Note_on_c, 15, 76, 0
1, 159120, Note_on_c, 15, 74, 80
1, 159347, Note_on_c, 15, 74, 0
1, 159360, Note_on_c, 15, 76, 80
1, 161183, Note_on_c, 15, 76, 0
1, 162960, Note_on_c, 15, 83, 80
1, 163187, Note_on_c, 15, 83, 0
1, 163200, Note_on_c, 15, 81, 80
1, 163427, Note_on_c, 15, 81, 0
1, 163440, Note_on_c, 15, 79, 80
1, 163553, Note_on_c, 15, 79, 0
1, 163560, Note_on_c, 15, 81, 80
1, 164585, Note_on_c, 15, 81, 0
1, 164880, Note_on_c, 15, 76, 80
1, 165107, Note_on_c, 15, 76, 0
1, 165120, Note_on_c, 15, 81, 80
1, 165803, Note_on_c, 15, 81, 0
1, 165840, Note_on_c, 15, 81, 80
1, 166067, Note_on_c, 15, 81, 0
1, 166080, Note_on_c, 15, 81, 80
1, 166193, Note_on_c, 15, 81, 0
1, 166200, Note_on_c, 15, 79, 80
1, 166313, Note_on_c, 15, 79, 0
1, 166320, Note_on_c, 15, 79, 80
1, 166775, Note_on_c, 15, 79, 0
1, 166800, Note_on_c, 15, 77, 80
1, 166913, Note_on_c, 15, 77, 0
1, 166920, Note_on_c, 15, 76, 80
1, 167033, Note_on_c, 15, 76, 0
1, 167040, Note_on_c, 15, 76, 80
1, 167267, Note_on_c, 15, 76, 0
1, 167280, Note_on_c, 15, 76, 80
1, 167507, Note_on_c, 15, 76, 0
1, 167520, Note_on_c, 15, 76, 80
1, 167747, Note_on_c, 15, 76, 0
1, 167760, Note_on_c, 15, 76, 80
1, 170723, Note_on_c, 15, 76, 0
1, 170724, End_track
2, 0, Start_track
2, 0, Title_t, "Pardessus de viole, Violin\000"
2, 0, Key_signature, 0, "major"
2, 0, Control_c, 0, 121, 0
2, 0, Program_c, 0, 40
2, 0, Control_c, 0, 7, 100
2, 0, Control_c, 0, 10, 64
2, 0, Control_c, 0, 91, 0
2, 0, Control_c, 0, 93, 0
2, 0, MIDI_port, 0
2, 0, Control_c, 2, 121, 0
2, 0, Program_c, 2, 45
2, 0, Control_c, 2, 7, 100
2, 0, Control_c, 2, 10, 64
2, 0, Control_c, 2, 91, 0
2, 0, Control_c, 2, 93, 0
2, 0, MIDI_port, 0
2, 0, Control_c, 4, 121, 0
2, 0, Program_c, 4, 44
2, 0, Control_c, 4, 7, 100
2, 0, Control_c, 4, 10, 64
2, 0, Control_c, 4, 91, 0
2, 0, Control_c, 4, 93, 0
2, 0, MIDI_port, 0
2, 65760, Note_on_c, 0, 69, 80
2, 65760, Control_c, 0, 2, 80
2, 65999, Note_on_c, 0, 69, 0
2, 66000, Note_on_c, 0, 72, 80
2, 66239, Note_on_c, 0, 72, 0
2, 66240, Note_on_c, 0, 72, 80
2, 66479, Note_on_c, 0, 72, 0
2, 66480, Note_on_c, 0, 76, 80
2, 66719, Note_on_c, 0, 76, 0
2, 66720, Note_on_c, 0, 76, 80
2, 66959, Note_on_c, 0, 76, 0
2, 66960, Note_on_c, 0, 77, 80
2, 67199, Note_on_c, 0, 77, 0
2, 67200, Note_on_c, 0, 71, 80
2, 67439, Note_on_c, 0, 71, 0
2, 67440, Note_on_c, 0, 69, 80
2, 67679, Note_on_c, 0, 69, 0
2, 67680, Note_on_c, 0, 71, 80
2, 67719, Note_on_c, 0, 71, 0
2, 67720, Note_on_c, 0, 69, 80
2, 67919, Note_on_c, 0, 69, 0
2, 67920, Note_on_c, 0, 67, 80
2, 68159, Note_on_c, 0, 67, 0
2, 68160, Note_on_c, 0, 67, 80
2, 68399, Note_on_c, 0, 67, 0
2, 68400, Note_on_c, 0, 65, 80
2, 68639, Note_on_c, 0, 65, 0
2, 68640, Note_on_c, 0, 64, 80
2, 68879, Note_on_c, 0, 64, 0
2, 68880, Note_on_c, 0, 62, 80
2, 69119, Note_on_c, 0, 62, 0
2, 69120, Note_on_c, 0, 48, 80
2, 69359, Note_on_c, 0, 48, 0
2, 69360, Note_on_c, 0, 55, 80
2, 69599, Note_on_c, 0, 55, 0
2, 69600, Note_on_c, 0, 60, 80
2, 69839, Note_on_c, 0, 60, 0
2, 69840, Note_on_c, 0, 55, 80
2, 70079, Note_on_c, 0, 55, 0
2, 70080, Note_on_c, 0, 60, 80
2, 70080, Note_on_c, 0, 64, 80
2, 70319, Note_on_c, 0, 60, 0
2, 70319, Note_on_c, 0, 64, 0
2, 70320, Note_on_c, 0, 55, 80
2, 70559, Note_on_c, 0, 55, 0
2, 70800, Note_on_c, 0, 55, 80
2, 71039, Note_on_c, 0, 55, 0
2, 71040, Note_on_c, 0, 52, 80
2, 71279, Note_on_c, 0, 52, 0
2, 71280, Note_on_c, 0, 59, 80
2, 71519, Note_on_c, 0, 59, 0
2, 71520, Note_on_c, 0, 62, 80
2, 71520, Note_on_c, 0, 67, 80
2, 71759, Note_on_c, 0, 62, 0
2, 71759, Note_on_c, 0, 67, 0
2, 71760, Note_on_c, 0, 59, 80
2, 72239, Note_on_c, 0, 59, 0
2, 72240, Note_on_c, 0, 59, 80
2, 72479, Note_on_c, 0, 59, 0
2, 72480, Note_on_c, 0, 55, 80
2, 72719, Note_on_c, 0, 55, 0
2, 72720, Note_on_c, 0, 59, 80
2, 72959, Note_on_c, 0, 59, 0
2, 72960, Note_on_c, 0, 50, 80
2, 73199, Note_on_c, 0, 50, 0
2, 73200, Note_on_c, 0, 57, 80
2, 73439, Note_on_c, 0, 57, 0
2, 73440, Note_on_c, 0, 60, 80
2, 73440, Note_on_c, 0, 65, 80
2, 73679, Note_on_c, 0, 60, 0
2, 73679, Note_on_c, 0, 65, 0
2, 73680, Note_on_c, 0, 57, 80
2, 73919, Note_on_c, 0, 57, 0
2, 73920, Note_on_c, 0, 53, 80
2, 74159, Note_on_c, 0, 53, 0
2, 74160, Note_on_c, 0, 60, 80
2, 74399, Note_on_c, 0, 60, 0
2, 74400, Note_on_c, 0, 65, 80
2, 74639, Note_on_c, 0, 65, 0
2, 74640, Note_on_c, 0, 60, 80
2, 74879, Note_on_c, 0, 60, 0
2, 74880, Note_on_c, 0, 48, 80
2, 75119, Note_on_c, 0, 48, 0
2, 75120, Note_on_c, 0, 55, 80
2, 75359, Note_on_c, 0, 55, 0
2, 75360, Note_on_c, 0, 62, 80
2, 75479, Note_on_c, 0, 62, 0
2, 75480, Note_on_c, 0, 60, 80
2, 75599, Note_on_c, 0, 60, 0
2, 75600, Note_on_c, 0, 64, 80
2, 75719, Note_on_c, 0, 64, 0
2, 75720, Note_on_c, 0, 67, 80
2, 75839, Note_on_c, 0, 67, 0
2, 75840, Note_on_c, 0, 72, 80
2, 76079, Note_on_c, 0, 72, 0
2, 76320, Note_on_c, 0, 59, 80
2, 76799, Note_on_c, 0, 59, 0
2, 76800, Note_on_c, 0, 57, 80
2, 77039, Note_on_c, 0, 57, 0
2, 77040, Note_on_c, 0, 64, 80
2, 77279, Note_on_c, 0, 64, 0
2, 77520, Note_on_c, 0, 64, 80
2, 77759, Note_on_c, 0, 64, 0
2, 78000, Note_on_c, 0, 64, 80
2, 78239, Note_on_c, 0, 64, 0
2, 78480, Note_on_c, 0, 57, 80
2, 78719, Note_on_c, 0, 57, 0
2, 78720, Note_on_c, 0, 55, 80
2, 78959, Note_on_c, 0, 55, 0
2, 78960, Note_on_c, 0, 59, 80
2, 79199, Note_on_c, 0, 59, 0
2, 79200, Note_on_c, 0, 67, 80
2, 79439, Note_on_c, 0, 67, 0
2, 79440, Note_on_c, 0, 59, 80
2, 79679, Note_on_c, 0, 59, 0
2, 79920, Note_on_c, 0, 59, 80
2, 80159, Note_on_c, 0, 59, 0
2, 80400, Note_on_c, 0, 55, 80
2, 80639, Note_on_c, 0, 55, 0
2, 80640, Note_on_c, 0, 53, 80
2, 80879, Note_on_c, 0, 53, 0
2, 80880, Note_on_c, 0, 57, 80
2, 81119, Note_on_c, 0, 57, 0
2, 81120, Note_on_c, 0, 60, 80
2, 81120, Note_on_c, 0, 65, 80
2, 81359, Note_on_c, 0, 60, 0
2, 81359, Note_on_c, 0, 65, 0
2, 81360, Note_on_c, 0, 57, 80
2, 81599, Note_on_c, 0, 57, 0
2, 81600, Note_on_c, 0, 55, 80
2, 81839, Note_on_c, 0, 55, 0
2, 81840, Note_on_c, 0, 62, 80
2, 82079, Note_on_c, 0, 62, 0
2, 82080, Note_on_c, 0, 67, 80
2, 82559, Note_on_c, 0, 67, 0
2, 82560, Note_on_c, 0, 48, 80
2, 82799, Note_on_c, 0, 48, 0
2, 82800, Note_on_c, 0, 55, 80
2, 83039, Note_on_c, 0, 55, 0
2, 83040, Note_on_c, 0, 60, 80
2, 83040, Note_on_c, 0, 64, 80
2, 83279, Note_on_c, 0, 60, 0
2, 83279, Note_on_c, 0, 64, 0
2, 83280, Note_on_c, 0, 55, 80
2, 83519, Note_on_c, 0, 55, 0
2, 83520, Note_on_c, 0, 67, 80
2, 83759, Note_on_c, 0, 67, 0
2, 83760, Note_on_c, 0, 55, 80
2, 83999, Note_on_c, 0, 55, 0
2, 84000, Note_on_c, 0, 48, 80
2, 84479, Note_on_c, 0, 48, 0
2, 84480, Note_on_c, 0, 81, 80
2, 84719, Note_on_c, 0, 81, 0
2, 84720, Note_on_c, 0, 79, 80
2, 84959, Note_on_c, 0, 79, 0
2, 84960, Note_on_c, 0, 81, 80
2, 85079, Note_on_c, 0, 81, 0
2, 85080, Note_on_c, 0, 77, 80
2, 85319, Note_on_c, 0, 77, 0
2, 85320, Note_on_c, 0, 74, 80
2, 85919, Note_on_c, 0, 74, 0
2, 86040, Note_on_c, 0, 74, 80
2, 86159, Note_on_c, 0, 74, 0
2, 86160, Note_on_c, 0, 74, 80
2, 86279, Note_on_c, 0, 74, 0
2, 86280, Note_on_c, 0, 74, 80
2, 86399, Note_on_c, 0, 74, 0
2, 86400, Note_on_c, 0, 83, 80
2, 86639, Note_on_c, 0, 83, 0
2, 86640, Note_on_c, 0, 81, 80
2, 86879, Note_on_c, 0, 81, 0
2, 86880, Note_on_c, 0, 83, 80
2, 86999, Note_on_c, 0, 83, 0
2, 87000, Note_on_c, 0, 81, 80
2, 87239, Note_on_c, 0, 81, 0
2, 87240, Note_on_c, 0, 79, 80
2, 87839, Note_on_c, 0, 79, 0
2, 87960, Note_on_c, 0, 79, 80
2, 88079, Note_on_c, 0, 79, 0
2, 88080, Note_on_c, 0, 79, 80
2, 88199, Note_on_c, 0, 79, 0
2, 88200, Note_on_c, 0, 77, 80
2, 88319, Note_on_c, 0, 77, 0
2, 88320, Note_on_c, 0, 72, 80
2, 88799, Note_on_c, 0, 72, 0
2, 88920, Note_on_c, 0, 69, 80
2, 89039, Note_on_c, 0, 69, 0
2, 89040, Note_on_c, 0, 69, 80
2, 89159, Note_on_c, 0, 69, 0
2, 89160, Note_on_c, 0, 71, 80
2, 89279, Note_on_c, 0, 71, 0
2, 89280, Note_on_c, 0, 72, 80
2, 89759, Note_on_c, 0, 72, 0
2, 89760, Note_on_c, 0, 72, 80
2, 89999, Note_on_c, 0, 72, 0
2, 90000, Note_on_c, 0, 74, 80
2, 90239, Note_on_c, 0, 74, 0
2, 90240, Note_on_c, 0, 76, 80
2, 90479, Note_on_c, 0, 76, 0
2, 90480, Note_on_c, 0, 74, 80
2, 90599, Note_on_c, 0, 74, 0
2, 90600, Note_on_c, 0, 74, 80
2, 91199, Note_on_c, 0, 74, 0
2, 92040, Note_on_c, 0, 60, 80
2, 92079, Note_on_c, 0, 60, 0
2, 92080, Note_on_c, 0, 64, 80
2, 92119, Note_on_c, 0, 64, 0
2, 92120, Note_on_c, 0, 67, 80
2, 92159, Note_on_c, 0, 67, 0
2, 93000, Note_on_c, 0, 60, 80
2, 93039, Note_on_c, 0, 60, 0
2, 93040, Note_on_c, 0, 64, 80
2, 93079, Note_on_c, 0, 64, 0
2, 93080, Note_on_c, 0, 67, 80
2, 93119, Note_on_c, 0, 67, 0
2, 93960, Note_on_c, 0, 64, 80
2, 93999, Note_on_c, 0, 64, 0
2, 94000, Note_on_c, 0, 67, 80
2, 94039, Note_on_c, 0, 67, 0
2, 94040, Note_on_c, 0, 71, 80
2, 94079, Note_on_c, 0, 71, 0
2, 94920, Note_on_c, 0, 64, 80
2, 94959, Note_on_c, 0, 64, 0
2, 94960, Note_on_c, 0, 67, 80
2, 94999, Note_on_c, 0, 67, 0
2, 95000, Note_on_c, 0, 71, 80
2, 95039, Note_on_c, 0, 71, 0
2, 95880, Note_on_c, 0, 60, 80
2, 95919, Note_on_c, 0, 60, 0
2, 95920, Note_on_c, 0, 64, 80
2, 95959, Note_on_c, 0, 64, 0
2, 95960, Note_on_c, 0, 69, 80
2, 95999, Note_on_c, 0, 69, 0
2, 97800, Note_on_c, 0, 64, 80
2, 97839, Note_on_c, 0, 64, 0
2, 97840, Note_on_c, 0, 67, 80
2, 97879, Note_on_c, 0, 67, 0
2, 97880, Note_on_c, 0, 71, 80
2, 97919, Note_on_c, 0, 71, 0
2, 99720, Note_on_c, 0, 57, 80
2, 99759, Note_on_c, 0, 57, 0
2, 99760, Note_on_c, 0, 60, 80
2, 99799, Note_on_c, 0, 60, 0
2, 99800, Note_on_c, 0, 65, 80
2, 99839, Note_on_c, 0, 65, 0
2, 101640, Note_on_c, 0, 67, 80
2, 101679, Note_on_c, 0, 67, 0
2, 101680, Note_on_c, 0, 71, 80
2, 101719, Note_on_c, 0, 71, 0
2, 101720, Note_on_c, 0, 76, 80
2, 101759, Note_on_c, 0, 76, 0
2, 102600, Note_on_c, 0, 60, 80
2, 102639, Note_on_c, 0, 60, 0
2, 102640, Note_on_c, 0, 64, 80
2, 102679, Note_on_c, 0, 64, 0
2, 102680, Note_on_c, 0, 67, 80
2, 102719, Note_on_c, 0, 67, 0
2, 103560, Note_on_c, 0, 65, 80
2, 103599, Note_on_c, 0, 65, 0
2, 103600, Note_on_c, 0, 69, 80
2, 103639, Note_on_c, 0, 69, 0
2, 103640, Note_on_c, 0, 72, 80
2, 103679, Note_on_c, 0, 72, 0
2, 104400, Note_on_c, 0, 81, 80
2, 104519, Note_on_c, 0, 81, 0
2, 104520, Note_on_c, 0, 81, 80
2, 104639, Note_on_c, 0, 81, 0
2, 104640, Note_on_c, 0, 79, 80
2, 104879, Note_on_c, 0, 79, 0
2, 104880, Note_on_c, 0, 77, 80
2, 105119, Note_on_c, 0, 77, 0
2, 105120, Note_on_c, 0, 76, 80
2, 105359, Note_on_c, 0, 76, 0
2, 105360, Note_on_c, 0, 74, 80
2, 105599, Note_on_c, 0, 74, 0
2, 105600, Note_on_c, 0, 76, 80
2, 107519, Note_on_c, 0, 76, 0
2, 107520, End_track
3, 0, Start_track
3, 0, Title_t, "Classical Guitar, Lute\000"
3, 0, Key_signature, 0, "major"
3, 0, Control_c, 1, 121, 0
3, 0, Program_c, 1, 24
3, 0, Control_c, 1, 7, 100
3, 0, Control_c, 1, 10, 64
3, 0, Control_c, 1, 91, 0
3, 0, Control_c, 1, 93, 0
3, 0, MIDI_port, 0
3, 0, Note_on_c, 1, 60, 80
3, 0, Control_c, 5, 121, 0
3, 0, Program_c, 5, 28
3, 0, Control_c, 5, 7, 100
3, 0, Control_c, 5, 10, 64
3, 0, Control_c, 5, 91, 0
3, 0, Control_c, 5, 93, 0
3, 0, MIDI_port, 0
3, 239, Note_on_c, 1, 60, 0
3, 240, Note_on_c, 1, 67, 80
3, 479, Note_on_c, 1, 67, 0
3, 480, Note_on_c, 1, 72, 80
3, 719, Note_on_c, 1, 72, 0
3, 720, Note_on_c, 1, 67, 80
3, 959, Note_on_c, 1, 67, 0
3, 960, Note_on_c, 1, 59, 80
3, 1199, Note_on_c, 1, 59, 0
3, 1200, Note_on_c, 1, 67, 80
3, 1439, Note_on_c, 1, 67, 0
3, 1440, Note_on_c, 1, 71, 80
3, 1679, Note_on_c, 1, 71, 0
3, 1680, Note_on_c, 1, 67, 80
3, 1919, Note_on_c, 1, 67, 0
3, 1920, Note_on_c, 1, 57, 80
3, 2159, Note_on_c, 1, 57, 0
3, 2160, Note_on_c, 1, 69, 80
3, 2399, Note_on_c, 1, 69, 0
3, 2400, Note_on_c, 1, 72, 80
3, 2639, Note_on_c, 1, 72, 0
3, 2640, Note_on_c, 1, 69, 80
3, 2879, Note_on_c, 1, 69, 0
3, 2880, Note_on_c, 1, 60, 80
3, 3119, Note_on_c, 1, 60, 0
3, 3120, Note_on_c, 1, 64, 80
3, 3359, Note_on_c, 1, 64, 0
3, 3360, Note_on_c, 1, 69, 80
3, 3599, Note_on_c, 1, 69, 0
3, 3600, Note_on_c, 1, 67, 80
3, 3839, Note_on_c, 1, 67, 0
3, 3840, Note_on_c, 1, 53, 80
3, 4079, Note_on_c, 1, 53, 0
3, 4080, Note_on_c, 1, 60, 80
3, 4319, Note_on_c, 1, 60, 0
3, 4320, Note_on_c, 1, 69, 80
3, 4559, Note_on_c, 1, 69, 0
3, 4560, Note_on_c, 1, 60, 80
3, 4799, Note_on_c, 1, 60, 0
3, 4800, Note_on_c, 1, 52, 80
3, 5039, Note_on_c, 1, 52, 0
3, 5040, Note_on_c, 1, 60, 80
3, 5279, Note_on_c, 1, 60, 0
3, 5280, Note_on_c, 1, 69, 80
3, 5519, Note_on_c, 1, 69, 0
3, 5520, Note_on_c, 1, 60, 80
3, 5759, Note_on_c, 1, 60, 0
3, 5760, Note_on_c, 1, 50, 80
3, 5999, Note_on_c, 1, 50, 0
3, 6000, Note_on_c, 1, 69, 80
3, 6239, Note_on_c, 1, 69, 0
3, 6240, Note_on_c, 1, 74, 80
3, 6479, Note_on_c, 1, 74, 0
3, 6480, Note_on_c, 1, 69, 80
3, 6719, Note_on_c, 1, 69, 0
3, 6720, Note_on_c, 1, 55, 80
3, 6750, Note_on_c, 1, 62, 80
3, 6780, Note_on_c, 1, 65, 80
3, 7199, Note_on_c, 1, 55, 0
3, 7199, Note_on_c, 1, 62, 0
3, 7199, Note_on_c, 1, 65, 0
3, 7200, Note_on_c, 1, 64, 80
3, 7439, Note_on_c, 1, 64, 0
3, 7680, Note_on_c, 1, 60, 80
3, 8639, Note_on_c, 1, 60, 0
3, 8640, Note_on_c, 1, 60, 80
3, 9599, Note_on_c, 1, 60, 0
3, 9600, Note_on_c, 1, 59, 80
3, 10559, Note_on_c, 1, 59, 0
3, 10560, Note_on_c, 1, 59, 80
3, 11519, Note_on_c, 1, 59, 0
3, 11520, Note_on_c, 1, 57, 80
3, 12479, Note_on_c, 1, 57, 0
3, 12480, Note_on_c, 1, 57, 80
3, 13439, Note_on_c, 1, 57, 0
3, 13440, Note_on_c, 1, 64, 80
3, 14399, Note_on_c, 1, 64, 0
3, 14400, Note_on_c, 1, 64, 80
3, 15359, Note_on_c, 1, 64, 0
3, 15360, Note_on_c, 1, 53, 80
3, 16319, Note_on_c, 1, 53, 0
3, 16320, Note_on_c, 1, 55, 80
3, 17279, Note_on_c, 1, 55, 0
3, 17280, Note_on_c, 1, 52, 80
3, 18239, Note_on_c, 1, 52, 0
3, 18240, Note_on_c, 1, 57, 80
3, 19199, Note_on_c, 1, 57, 0
3, 19200, Note_on_c, 1, 50, 80
3, 20159, Note_on_c, 1, 50, 0
3, 20160, Note_on_c, 1, 55, 80
3, 21119, Note_on_c, 1, 55, 0
3, 21120, Note_on_c, 1, 60, 80
3, 22079, Note_on_c, 1, 60, 0
3, 22080, Note_on_c, 1, 60, 80
3, 23039, Note_on_c, 1, 60, 0
3, 23040, Note_on_c, 1, 60, 80
3, 23999, Note_on_c, 1, 60, 0
3, 24000, Note_on_c, 1, 60, 80
3, 24959, Note_on_c, 1, 60, 0
3, 24960, Note_on_c, 1, 59, 80
3, 25919, Note_on_c, 1, 59, 0
3, 25920, Note_on_c, 1, 59, 80
3, 26879, Note_on_c, 1, 59, 0
3, 26880, Note_on_c, 1, 57, 80
3, 27839, Note_on_c, 1, 57, 0
3, 27840, Note_on_c, 1, 57, 80
3, 28799, Note_on_c, 1, 57, 0
3, 28800, Note_on_c, 1, 55, 80
3, 29759, Note_on_c, 1, 55, 0
3, 29760, Note_on_c, 1, 55, 80
3, 30719, Note_on_c, 1, 55, 0
3, 30720, Note_on_c, 1, 53, 80
3, 31679, Note_on_c, 1, 53, 0
3, 31680, Note_on_c, 1, 55, 80
3, 32639, Note_on_c, 1, 55, 0
3, 32640, Note_on_c, 1, 52, 80
3, 33599, Note_on_c, 1, 52, 0
3, 33600, Note_on_c, 1, 57, 80
3, 34559, Note_on_c, 1, 57, 0
3, 34560, Note_on_c, 1, 50, 80
3, 35519, Note_on_c, 1, 50, 0
3, 35520, Note_on_c, 1, 55, 80
3, 36479, Note_on_c, 1, 55, 0
3, 36480, Note_on_c, 1, 55, 80
3, 37439, Note_on_c, 1, 55, 0
3, 37440, Note_on_c, 1, 55, 80
3, 38399, Note_on_c, 1, 55, 0
3, 38400, Note_on_c, 1, 60, 80
3, 39359, Note_on_c, 1, 60, 0
3, 39360, Note_on_c, 1, 60, 80
3, 40319, Note_on_c, 1, 60, 0
3, 40320, Note_on_c, 1, 59, 80
3, 41279, Note_on_c, 1, 59, 0
3, 41280, Note_on_c, 1, 59, 80
3, 42239, Note_on_c, 1, 59, 0
3, 42240, Note_on_c, 1, 57, 80
3, 43199, Note_on_c, 1, 57, 0
3, 43200, Note_on_c, 1, 57, 80
3, 44159, Note_on_c, 1, 57, 0
3, 44160, Note_on_c, 1, 64, 80
3, 45119, Note_on_c, 1, 64, 0
3, 45120, Note_on_c, 1, 64, 80
3, 46079, Note_on_c, 1, 64, 0
3, 46080, Note_on_c, 1, 57, 80
3, 47039, Note_on_c, 1, 57, 0
3, 47040, Note_on_c, 1, 57, 80
3, 47999, Note_on_c, 1, 57, 0
3, 48000, Note_on_c, 1, 55, 80
3, 48959, Note_on_c, 1, 55, 0
3, 48960, Note_on_c, 1, 55, 80
3, 49919, Note_on_c, 1, 55, 0
3, 49920, Note_on_c, 1, 53, 80
3, 50879, Note_on_c, 1, 53, 0
3, 50880, Note_on_c, 1, 55, 80
3, 51839, Note_on_c, 1, 55, 0
3, 51840, Note_on_c, 1, 60, 80
3, 52799, Note_on_c, 1, 60, 0
3, 52800, Note_on_c, 1, 60, 80
3, 53759, Note_on_c, 1, 60, 0
3, 53760, Note_on_c, 1, 60, 80
3, 54719, Note_on_c, 1, 60, 0
3, 54720, Note_on_c, 1, 60, 80
3, 55679, Note_on_c, 1, 60, 0
3, 55680, Note_on_c, 1, 59, 80
3, 56639, Note_on_c, 1, 59, 0
3, 56640, Note_on_c, 1, 59, 80
3, 57599, Note_on_c, 1, 59, 0
3, 57600, Note_on_c, 1, 57, 80
3, 58559, Note_on_c, 1, 57, 0
3, 58560, Note_on_c, 1, 57, 80
3, 59519, Note_on_c, 1, 57, 0
3, 59520, Note_on_c, 1, 64, 80
3, 60479, Note_on_c, 1, 64, 0
3, 60480, Note_on_c, 1, 64, 80
3, 61439, Note_on_c, 1, 64, 0
3, 61440, Note_on_c, 1, 53, 80
3, 62399, Note_on_c, 1, 53, 0
3, 62400, Note_on_c, 1, 55, 80
3, 63359, Note_on_c, 1, 55, 0
3, 63360, Note_on_c, 1, 52, 80
3, 64319, Note_on_c, 1, 52, 0
3, 64320, Note_on_c, 1, 57, 80
3, 65279, Note_on_c, 1, 57, 0
3, 65280, Note_on_c, 1, 50, 80
3, 66239, Note_on_c, 1, 50, 0
3, 66240, Note_on_c, 1, 50, 80
3, 67199, Note_on_c, 1, 50, 0
3, 67200, Note_on_c, 1, 55, 80
3, 68159, Note_on_c, 1, 55, 0
3, 68160, Note_on_c, 1, 55, 80
3, 69119, Note_on_c, 1, 55, 0
3, 84480, Note_on_c, 1, 53, 80
3, 85439, Note_on_c, 1, 53, 0
3, 85440, Note_on_c, 1, 55, 80
3, 86399, Note_on_c, 1, 55, 0
3, 86400, Note_on_c, 1, 52, 80
3, 87359, Note_on_c, 1, 52, 0
3, 87360, Note_on_c, 1, 57, 80
3, 88319, Note_on_c, 1, 57, 0
3, 88320, Note_on_c, 1, 53, 80
3, 89279, Note_on_c, 1, 53, 0
3, 89280, Note_on_c, 1, 57, 80
3, 90239, Note_on_c, 1, 57, 0
3, 90240, Note_on_c, 1, 59, 80
3, 91199, Note_on_c, 1, 59, 0
3, 91200, Note_on_c, 1, 59, 80
3, 92159, Note_on_c, 1, 59, 0
3, 92160, Note_on_c, 1, 60, 80
3, 93119, Note_on_c, 1, 60, 0
3, 93120, Note_on_c, 1, 60, 80
3, 94079, Note_on_c, 1, 60, 0
3, 94080, Note_on_c, 1, 59, 80
3, 95039, Note_on_c, 1, 59, 0
3, 95040, Note_on_c, 1, 59, 80
3, 95999, Note_on_c, 1, 59, 0
3, 96000, Note_on_c, 1, 57, 80
3, 96959, Note_on_c, 1, 57, 0
3, 96960, Note_on_c, 1, 57, 80
3, 97919, Note_on_c, 1, 57, 0
3, 97920, Note_on_c, 1, 64, 80
3, 98879, Note_on_c, 1, 64, 0
3, 98880, Note_on_c, 1, 64, 80
3, 99839, Note_on_c, 1, 64, 0
3, 99840, Note_on_c, 1, 53, 80
3, 100799, Note_on_c, 1, 53, 0
3, 100800, Note_on_c, 1, 55, 80
3, 101759, Note_on_c, 1, 55, 0
3, 101760, Note_on_c, 1, 64, 80
3, 102719, Note_on_c, 1, 64, 0
3, 102720, Note_on_c, 1, 69, 80
3, 103679, Note_on_c, 1, 69, 0
3, 103680, Note_on_c, 1, 62, 80
3, 104639, Note_on_c, 1, 62, 0
3, 104640, Note_on_c, 1, 67, 80
3, 105599, Note_on_c, 1, 67, 0
3, 105600, Note_on_c, 1, 60, 80
3, 106559, Note_on_c, 1, 60, 0
3, 106560, Note_on_c, 1, 60, 80
3, 107519, Note_on_c, 1, 60, 0
3, 122880, Note_on_c, 1, 53, 80
3, 123839, Note_on_c, 1, 53, 0
3, 123840, Note_on_c, 1, 55, 80
3, 124799, Note_on_c, 1, 55, 0
3, 124800, Note_on_c, 1, 52, 80
3, 125759, Note_on_c, 1, 52, 0
3, 125760, Note_on_c, 1, 57, 80
3, 126719, Note_on_c, 1, 57, 0
3, 126720, Note_on_c, 1, 53, 80
3, 127679, Note_on_c, 1, 53, 0
3, 127680, Note_on_c, 1, 57, 80
3, 128639, Note_on_c, 1, 57, 0
3, 128640, Note_on_c, 1, 59, 80
3, 129599, Note_on_c, 1, 59, 0
3, 129600, Note_on_c, 1, 59, 80
3, 130559, Note_on_c, 1, 59, 0
3, 130560, Note_on_c, 1, 60, 80
3, 131519, Note_on_c, 1, 60, 0
3, 131520, Note_on_c, 1, 60, 80
3, 132479, Note_on_c, 1, 60, 0
3, 132480, Note_on_c, 1, 59, 80
3, 133439, Note_on_c, 1, 59, 0
3, 133440, Note_on_c, 1, 59, 80
3, 134399, Note_on_c, 1, 59, 0
3, 134400, Note_on_c, 1, 57, 80
3, 135359, Note_on_c, 1, 57, 0
3, 135360, Note_on_c, 1, 57, 80
3, 136319, Note_on_c, 1, 57, 0
3, 136320, Note_on_c, 1, 64, 80
3, 137279, Note_on_c, 1, 64, 0
3, 137280, Note_on_c, 1, 64, 80
3, 138239, Note_on_c, 1, 64, 0
3, 138240, Note_on_c, 1, 53, 80
3, 139199, Note_on_c, 1, 53, 0
3, 139200, Note_on_c, 1, 55, 80
3, 140159, Note_on_c, 1, 55, 0
3, 140160, Note_on_c, 1, 52, 80
3, 141119, Note_on_c, 1, 52, 0
3, 141120, Note_on_c, 1, 57, 80
3, 142079, Note_on_c, 1, 57, 0
3, 142080, Note_on_c, 1, 50, 80
3, 143039, Note_on_c, 1, 50, 0
3, 143040, Note_on_c, 1, 55, 80
3, 143999, Note_on_c, 1, 55, 0
3, 144000, End_track
4, 0, Start_track
4, 0, Title_t, "Electric Bass, Bass\000"
4, 0, Key_signature, 0, "major"
4, 0, Control_c, 6, 121, 0
4, 0, Program_c, 6, 33
4, 0, Control_c, 6, 7, 100
4, 0, Control_c, 6, 10, 64
4, 0, Control_c, 6, 91, 0
4, 0, Control_c, 6, 93, 0
4, 0, MIDI_port, 0
4, 0, Control_c, 7, 121, 0
4, 0, Program_c, 7, 36
4, 0, Control_c, 7, 7, 100
4, 0, Control_c, 7, 10, 64
4, 0, Control_c, 7, 91, 0
4, 0, Control_c, 7, 93, 0
4, 0, MIDI_port, 0
4, 0, Control_c, 8, 121, 0
4, 0, Program_c, 8, 37
4, 0, Control_c, 8, 7, 100
4, 0, Control_c, 8, 10, 64
4, 0, Control_c, 8, 91, 0
4, 0, Control_c, 8, 93, 0
4, 0, MIDI_port, 0
4, 38400, Note_on_c, 6, 60, 80
4, 40319, Note_on_c, 6, 60, 0
4, 40320, Note_on_c, 6, 59, 80
4, 42239, Note_on_c, 6, 59, 0
4, 42240, Note_on_c, 6, 62, 80
4, 43199, Note_on_c, 6, 62, 0
4, 43200, Note_on_c, 6, 53, 80
4, 44159, Note_on_c, 6, 53, 0
4, 44160, Note_on_c, 6, 60, 80
4, 46079, Note_on_c, 6, 60, 0
4, 46080, Note_on_c, 6, 57, 80
4, 47999, Note_on_c, 6, 57, 0
4, 48000, Note_on_c, 6, 55, 80
4, 49919, Note_on_c, 6, 55, 0
4, 49920, Note_on_c, 6, 53, 80
4, 50879, Note_on_c, 6, 53, 0
4, 50880, Note_on_c, 6, 55, 80
4, 51839, Note_on_c, 6, 55, 0
4, 51840, Note_on_c, 6, 60, 80
4, 53759, Note_on_c, 6, 60, 0
4, 53760, Note_on_c, 6, 60, 80
4, 54719, Note_on_c, 6, 60, 0
4, 54720, Note_on_c, 6, 60, 80
4, 55679, Note_on_c, 6, 60, 0
4, 55680, Note_on_c, 6, 59, 80
4, 56639, Note_on_c, 6, 59, 0
4, 56640, Note_on_c, 6, 59, 80
4, 57599, Note_on_c, 6, 59, 0
4, 57600, Note_on_c, 6, 57, 80
4, 58559, Note_on_c, 6, 57, 0
4, 58560, Note_on_c, 6, 57, 80
4, 59519, Note_on_c, 6, 57, 0
4, 59520, Note_on_c, 6, 55, 80
4, 60479, Note_on_c, 6, 55, 0
4, 60480, Note_on_c, 6, 55, 80
4, 61439, Note_on_c, 6, 55, 0
4, 61440, Note_on_c, 6, 53, 80
4, 62399, Note_on_c, 6, 53, 0
4, 62400, Note_on_c, 6, 55, 80
4, 63359, Note_on_c, 6, 55, 0
4, 63360, Note_on_c, 6, 52, 80
4, 64319, Note_on_c, 6, 52, 0
4, 64320, Note_on_c, 6, 57, 80
4, 65279, Note_on_c, 6, 57, 0
4, 65280, Note_on_c, 6, 62, 80
4, 66239, Note_on_c, 6, 62, 0
4, 66240, Note_on_c, 6, 62, 80
4, 67199, Note_on_c, 6, 62, 0
4, 67200, Note_on_c, 6, 55, 80
4, 67679, Note_on_c, 6, 55, 0
4, 67680, Note_on_c, 6, 55, 80
4, 68159, Note_on_c, 6, 55, 0
4, 68160, Note_on_c, 6, 55, 80
4, 68399, Note_on_c, 6, 55, 0
4, 68400, Note_on_c, 6, 53, 80
4, 68639, Note_on_c, 6, 53, 0
4, 68640, Note_on_c, 6, 52, 80
4, 68879, Note_on_c, 6, 52, 0
4, 68880, Note_on_c, 6, 50, 80
4, 69119, Note_on_c, 6, 50, 0
4, 69120, Note_on_c, 6, 60, 80
4, 69839, Note_on_c, 6, 60, 0
4, 69840, Note_on_c, 6, 60, 80
4, 70079, Note_on_c, 6, 60, 0
4, 70080, Note_on_c, 6, 60, 80
4, 71039, Note_on_c, 6, 60, 0
4, 71040, Note_on_c, 6, 59, 80
4, 71759, Note_on_c, 6, 59, 0
4, 71760, Note_on_c, 6, 59, 80
4, 71999, Note_on_c, 6, 59, 0
4, 72000, Note_on_c, 6, 59, 80
4, 72479, Note_on_c, 6, 59, 0
4, 72480, Note_on_c, 6, 55, 80
4, 72959, Note_on_c, 6, 55, 0
4, 72960, Note_on_c, 6, 50, 80
4, 73679, Note_on_c, 6, 50, 0
4, 73680, Note_on_c, 6, 50, 80
4, 73919, Note_on_c, 6, 50, 0
4, 73920, Note_on_c, 6, 53, 80
4, 74879, Note_on_c, 6, 53, 0
4, 74880, Note_on_c, 6, 55, 80
4, 75839, Note_on_c, 6, 55, 0
4, 75840, Note_on_c, 6, 55, 80
4, 76319, Note_on_c, 6, 55, 0
4, 76320, Note_on_c, 6, 59, 80
4, 76799, Note_on_c, 6, 59, 0
4, 76800, Note_on_c, 6, 57, 80
4, 77519, Note_on_c, 6, 57, 0
4, 77520, Note_on_c, 6, 57, 80
4, 77759, Note_on_c, 6, 57, 0
4, 77760, Note_on_c, 6, 57, 80
4, 78719, Note_on_c, 6, 57, 0
4, 78720, Note_on_c, 6, 55, 80
4, 79439, Note_on_c, 6, 55, 0
4, 79440, Note_on_c, 6, 55, 80
4, 79679, Note_on_c, 6, 55, 0
4, 79680, Note_on_c, 6, 55, 80
4, 80159, Note_on_c, 6, 55, 0
4, 80160, Note_on_c, 6, 52, 80
4, 80639, Note_on_c, 6, 52, 0
4, 80640, Note_on_c, 6, 53, 80
4, 81359, Note_on_c, 6, 53, 0
4, 81360, Note_on_c, 6, 53, 80
4, 81599, Note_on_c, 6, 53, 0
4, 81600, Note_on_c, 6, 55, 80
4, 82559, Note_on_c, 6, 55, 0
4, 82560, Note_on_c, 6, 60, 80
4, 83279, Note_on_c, 6, 60, 0
4, 83280, Note_on_c, 6, 60, 80
4, 83519, Note_on_c, 6, 60, 0
4, 83520, Note_on_c, 6, 60, 80
4, 84479, Note_on_c, 6, 60, 0
4, 84480, Note_on_c, 6, 53, 80
4, 84959, Note_on_c, 6, 53, 0
4, 84960, Note_on_c, 6, 53, 80
4, 85439, Note_on_c, 6, 53, 0
4, 85440, Note_on_c, 6, 55, 80
4, 85919, Note_on_c, 6, 55, 0
4, 85920, Note_on_c, 6, 55, 80
4, 86399, Note_on_c, 6, 55, 0
4, 86400, Note_on_c, 6, 52, 80
4, 86879, Note_on_c, 6, 52, 0
4, 86880, Note_on_c, 6, 52, 80
4, 87359, Note_on_c, 6, 52, 0
4, 87360, Note_on_c, 6, 57, 80
4, 87839, Note_on_c, 6, 57, 0
4, 87840, Note_on_c, 6, 57, 80
4, 88319, Note_on_c, 6, 57, 0
4, 88320, Note_on_c, 6, 53, 80
4, 88799, Note_on_c, 6, 53, 0
4, 88800, Note_on_c, 6, 53, 80
4, 89279, Note_on_c, 6, 53, 0
4, 89280, Note_on_c, 6, 57, 80
4, 89759, Note_on_c, 6, 57, 0
4, 89760, Note_on_c, 6, 57, 80
4, 90239, Note_on_c, 6, 57, 0
4, 90240, Note_on_c, 6, 59, 80
4, 90719, Note_on_c, 6, 59, 0
4, 90720, Note_on_c, 6, 59, 80
4, 91199, Note_on_c, 6, 59, 0
4, 91200, Note_on_c, 6, 59, 80
4, 92159, Note_on_c, 6, 59, 0
4, 92160, Note_on_c, 6, 60, 80
4, 93119, Note_on_c, 6, 60, 0
4, 93120, Note_on_c, 6, 60, 80
4, 94079, Note_on_c, 6, 60, 0
4, 94080, Note_on_c, 6, 59, 80
4, 95039, Note_on_c, 6, 59, 0
4, 95040, Note_on_c, 6, 59, 80
4, 95999, Note_on_c, 6, 59, 0
4, 96000, Note_on_c, 6, 57, 80
4, 96959, Note_on_c, 6, 57, 0
4, 96960, Note_on_c, 6, 57, 80
4, 97919, Note_on_c, 6, 57, 0
4, 97920, Note_on_c, 6, 55, 80
4, 98879, Note_on_c, 6, 55, 0
4, 98880, Note_on_c, 6, 55, 80
4, 99839, Note_on_c, 6, 55, 0
4, 99840, Note_on_c, 6, 53, 80
4, 100799, Note_on_c, 6, 53, 0
4, 100800, Note_on_c, 6, 55, 80
4, 101759, Note_on_c, 6, 55, 0
4, 101760, Note_on_c, 6, 52, 80
4, 102719, Note_on_c, 6, 52, 0
4, 102720, Note_on_c, 6, 57, 80
4, 103679, Note_on_c, 6, 57, 0
4, 103680, Note_on_c, 6, 50, 80
4, 104639, Note_on_c, 6, 50, 0
4, 104640, Note_on_c, 6, 55, 80
4, 104879, Note_on_c, 6, 55, 0
4, 104880, Note_on_c, 6, 53, 80
4, 105119, Note_on_c, 6, 53, 0
4, 105120, Note_on_c, 6, 52, 80
4, 105359, Note_on_c, 6, 52, 0
4, 105360, Note_on_c, 6, 50, 80
4, 105599, Note_on_c, 6, 50, 0
4, 105600, Note_on_c, 6, 48, 80
4, 106559, Note_on_c, 6, 48, 0
4, 106560, Note_on_c, 6, 48, 80
4, 107519, Note_on_c, 6, 48, 0
4, 107520, Note_on_c, 6, 60, 80
4, 108479, Note_on_c, 6, 60, 0
4, 108480, Note_on_c, 6, 55, 80
4, 109439, Note_on_c, 6, 55, 0
4, 109440, Note_on_c, 6, 57, 80
4, 110399, Note_on_c, 6, 57, 0
4, 110400, Note_on_c, 6, 52, 80
4, 111359, Note_on_c, 6, 52, 0
4, 111360, Note_on_c, 6, 53, 80
4, 112319, Note_on_c, 6, 53, 0
4, 112320, Note_on_c, 6, 60, 80
4, 113279, Note_on_c, 6, 60, 0
4, 113280, Note_on_c, 6, 50, 80
4, 114239, Note_on_c, 6, 50, 0
4, 114240, Note_on_c, 6, 55, 80
4, 115199, Note_on_c, 6, 55, 0
4, 115200, Note_on_c, 6, 60, 80
4, 115919, Note_on_c, 6, 60, 0
4, 115920, Note_on_c, 6, 60, 80
4, 116159, Note_on_c, 6, 60, 0
4, 116160, Note_on_c, 6, 55, 80
4, 117119, Note_on_c, 6, 55, 0
4, 117120, Note_on_c, 6, 57, 80
4, 117839, Note_on_c, 6, 57, 0
4, 117840, Note_on_c, 6, 57, 80
4, 118079, Note_on_c, 6, 57, 0
4, 118080, Note_on_c, 6, 52, 80
4, 119039, Note_on_c, 6, 52, 0
4, 119040, Note_on_c, 6, 53, 80
4, 119999, Note_on_c, 6, 53, 0
4, 120000, Note_on_c, 6, 60, 80
4, 120959, Note_on_c, 6, 60, 0
4, 120960, Note_on_c, 6, 50, 80
4, 122879, Note_on_c, 6, 50, 0
4, 122880, End_track
5, 0, Start_track
5, 0, Title_t, "Classical Guitar, Lute\000"
5, 0, Key_signature, 0, "major"
5, 0, Control_c, 3, 121, 0
5, 0, Program_c, 3, 24
5, 0, Control_c, 3, 7, 100
5, 0, Control_c, 3, 10, 64
5, 0, Control_c, 3, 91, 0
5, 0, Control_c, 3, 93, 0
5, 0, MIDI_port, 0
5, 0, Control_c, 10, 121, 0
5, 0, Program_c, 10, 28
5, 0, Control_c, 10, 7, 100
5, 0, Control_c, 10, 10, 64
5, 0, Control_c, 10, 91, 0
5, 0, Control_c, 10, 93, 0
5, 0, MIDI_port, 0
5, 6720, Note_on_c, 3, 67, 80
5, 7199, Note_on_c, 3, 67, 0
5, 7200, Note_on_c, 3, 67, 80
5, 7439, Note_on_c, 3, 67, 0
5, 7680, Note_on_c, 3, 72, 80
5, 7680, Note_on_c, 3, 76, 80
5, 7919, Note_on_c, 3, 72, 0
5, 7919, Note_on_c, 3, 76, 0
5, 7920, Note_on_c, 3, 67, 80
5, 8159, Note_on_c, 3, 67, 0
5, 8160, Note_on_c, 3, 72, 80
5, 8160, Note_on_c, 3, 76, 80
5, 8399, Note_on_c, 3, 72, 0
5, 8399, Note_on_c, 3, 76, 0
5, 8400, Note_on_c, 3, 67, 80
5, 8639, Note_on_c, 3, 67, 0
5, 8640, Note_on_c, 3, 72, 80
5, 8640, Note_on_c, 3, 76, 80
5, 8879, Note_on_c, 3, 72, 0
5, 8879, Note_on_c, 3, 76, 0
5, 8880, Note_on_c, 3, 67, 80
5, 9119, Note_on_c, 3, 67, 0
5, 9120, Note_on_c, 3, 76, 80
5, 9359, Note_on_c, 3, 76, 0
5, 9360, Note_on_c, 3, 72, 80
5, 9599, Note_on_c, 3, 72, 0
5, 9600, Note_on_c, 3, 71, 80
5, 9600, Note_on_c, 3, 74, 80
5, 9839, Note_on_c, 3, 71, 0
5, 9839, Note_on_c, 3, 74, 0
5, 9840, Note_on_c, 3, 67, 80
5, 10079, Note_on_c, 3, 67, 0
5, 10080, Note_on_c, 3, 71, 80
5, 10080, Note_on_c, 3, 74, 80
5, 10319, Note_on_c, 3, 71, 0
5, 10319, Note_on_c, 3, 74, 0
5, 10320, Note_on_c, 3, 67, 80
5, 10559, Note_on_c, 3, 67, 0
5, 10560, Note_on_c, 3, 71, 80
5, 10799, Note_on_c, 3, 71, 0
5, 10800, Note_on_c, 3, 67, 80
5, 11039, Note_on_c, 3, 67, 0
5, 11040, Note_on_c, 3, 72, 80
5, 11040, Note_on_c, 3, 76, 80
5, 11279, Note_on_c, 3, 72, 0
5, 11279, Note_on_c, 3, 76, 0
5, 11280, Note_on_c, 3, 71, 80
5, 11280, Note_on_c, 3, 74, 80
5, 11519, Note_on_c, 3, 71, 0
5, 11519, Note_on_c, 3, 74, 0
5, 11520, Note_on_c, 3, 69, 80
5, 11520, Note_on_c, 3, 72, 80
5, 11759, Note_on_c, 3, 69, 0
5, 11759, Note_on_c, 3, 72, 0
5, 11760, Note_on_c, 3, 64, 80
5, 11999, Note_on_c, 3, 64, 0
5, 12000, Note_on_c, 3, 69, 80
5, 12000, Note_on_c, 3, 72, 80
5, 12239, Note_on_c, 3, 69, 0
5, 12239, Note_on_c, 3, 72, 0
5, 12240, Note_on_c, 3, 64, 80
5, 12479, Note_on_c, 3, 64, 0
5, 12480, Note_on_c, 3, 69, 80
5, 12480, Note_on_c, 3, 72, 80
5, 12719, Note_on_c, 3, 69, 0
5, 12719, Note_on_c, 3, 72, 0
5, 12720, Note_on_c, 3, 64, 80
5, 12959, Note_on_c, 3, 64, 0
5, 12960, Note_on_c, 3, 67, 80
5, 12960, Note_on_c, 3, 71, 80
5, 13199, Note_on_c, 3, 67, 0
5, 13199, Note_on_c, 3, 71, 0
5, 13200, Note_on_c, 3, 69, 80
5, 13200, Note_on_c, 3, 72, 80
5, 13439, Note_on_c, 3, 69, 0
5, 13439, Note_on_c, 3, 72, 0
5, 13440, Note_on_c, 3, 71, 80
5, 13440, Note_on_c, 3, 76, 80
5, 13679, Note_on_c, 3, 71, 0
5, 13679, Note_on_c, 3, 76, 0
5, 13680, Note_on_c, 3, 67, 80
5, 13919, Note_on_c, 3, 67, 0
5, 13920, Note_on_c, 3, 71, 80
5, 13920, Note_on_c, 3, 76, 80
5, 14159, Note_on_c, 3, 71, 0
5, 14159, Note_on_c, 3, 76, 0
5, 14160, Note_on_c, 3, 67, 80
5, 14399, Note_on_c, 3, 67, 0
5, 14400, Note_on_c, 3, 71, 80
5, 14639, Note_on_c, 3, 71, 0
5, 14640, Note_on_c, 3, 67, 80
5, 14879, Note_on_c, 3, 67, 0
5, 14880, Note_on_c, 3, 69, 80
5, 15119, Note_on_c, 3, 69, 0
5, 15120, Note_on_c, 3, 67, 80
5, 15359, Note_on_c, 3, 67, 0
5, 15360, Note_on_c, 3, 65, 80
5, 15360, Note_on_c, 3, 69, 80
5, 15599, Note_on_c, 3, 65, 0
5, 15599, Note_on_c, 3, 69, 0
5, 15600, Note_on_c, 3, 60, 80
5, 15839, Note_on_c, 3, 60, 0
5, 15840, Note_on_c, 3, 65, 80
5, 15840, Note_on_c, 3, 69, 80
5, 16079, Note_on_c, 3, 65, 0
5, 16079, Note_on_c, 3, 69, 0
5, 16080, Note_on_c, 3, 60, 80
5, 16319, Note_on_c, 3, 60, 0
5, 16320, Note_on_c, 3, 67, 80
5, 16320, Note_on_c, 3, 71, 80
5, 16559, Note_on_c, 3, 67, 0
5, 16559, Note_on_c, 3, 71, 0
5, 16560, Note_on_c, 3, 62, 80
5, 16799, Note_on_c, 3, 62, 0
5, 16800, Note_on_c, 3, 67, 80
5, 16800, Note_on_c, 3, 71, 80
5, 17039, Note_on_c, 3, 67, 0
5, 17039, Note_on_c, 3, 71, 0
5, 17040, Note_on_c, 3, 62, 80
5, 17279, Note_on_c, 3, 62, 0
5, 17280, Note_on_c, 3, 64, 80
5, 17280, Note_on_c, 3, 67, 80
5, 17519, Note_on_c, 3, 64, 0
5, 17519, Note_on_c, 3, 67, 0
5, 17520, Note_on_c, 3, 62, 80
5, 17759, Note_on_c, 3, 62, 0
5, 17760, Note_on_c, 3, 64, 80
5, 17760, Note_on_c, 3, 67, 80
5, 17999, Note_on_c, 3, 64, 0
5, 17999, Note_on_c, 3, 67, 0
5, 18000, Note_on_c, 3, 71, 80
5, 18239, Note_on_c, 3, 71, 0
5, 18240, Note_on_c, 3, 69, 80
5, 18240, Note_on_c, 3, 72, 80
5, 18479, Note_on_c, 3, 69, 0
5, 18479, Note_on_c, 3, 72, 0
5, 18480, Note_on_c, 3, 64, 80
5, 18719, Note_on_c, 3, 64, 0
5, 18720, Note_on_c, 3, 69, 80
5, 18720, Note_on_c, 3, 72, 80
5, 18959, Note_on_c, 3, 69, 0
5, 18959, Note_on_c, 3, 72, 0
5, 18960, Note_on_c, 3, 67, 80
5, 18960, Note_on_c, 3, 71, 80
5, 19199, Note_on_c, 3, 67, 0
5, 19199, Note_on_c, 3, 71, 0
5, 19200, Note_on_c, 3, 65, 80
5, 19200, Note_on_c, 3, 69, 80
5, 19439, Note_on_c, 3, 65, 0
5, 19439, Note_on_c, 3, 69, 0
5, 19440, Note_on_c, 3, 64, 80
5, 19679, Note_on_c, 3, 64, 0
5, 19680, Note_on_c, 3, 65, 80
5, 19680, Note_on_c, 3, 69, 80
5, 19919, Note_on_c, 3, 65, 0
5, 19919, Note_on_c, 3, 69, 0
5, 19920, Note_on_c, 3, 64, 80
5, 20159, Note_on_c, 3, 64, 0
5, 20160, Note_on_c, 3, 67, 80
5, 20160, Note_on_c, 3, 71, 80
5, 20399, Note_on_c, 3, 67, 0
5, 20399, Note_on_c, 3, 71, 0
5, 20400, Note_on_c, 3, 62, 80
5, 20639, Note_on_c, 3, 62, 0
5, 20640, Note_on_c, 3, 67, 80
5, 20640, Note_on_c, 3, 71, 80
5, 20879, Note_on_c, 3, 67, 0
5, 20879, Note_on_c, 3, 71, 0
5, 20880, Note_on_c, 3, 62, 80
5, 21119, Note_on_c, 3, 62, 0
5, 21120, Note_on_c, 3, 72, 80
5, 21120, Note_on_c, 3, 76, 80
5, 21359, Note_on_c, 3, 72, 0
5, 21359, Note_on_c, 3, 76, 0
5, 21360, Note_on_c, 3, 67, 80
5, 21599, Note_on_c, 3, 67, 0
5, 21600, Note_on_c, 3, 72, 80
5, 21600, Note_on_c, 3, 76, 80
5, 21839, Note_on_c, 3, 72, 0
5, 21839, Note_on_c, 3, 76, 0
5, 21840, Note_on_c, 3, 67, 80
5, 22079, Note_on_c, 3, 67, 0
5, 22080, Note_on_c, 3, 72, 80
5, 22080, Note_on_c, 3, 76, 80
5, 22319, Note_on_c, 3, 72, 0
5, 22319, Note_on_c, 3, 76, 0
5, 22320, Note_on_c, 3, 67, 80
5, 22559, Note_on_c, 3, 67, 0
5, 22560, Note_on_c, 3, 72, 80
5, 22560, Note_on_c, 3, 76, 80
5, 22799, Note_on_c, 3, 72, 0
5, 22799, Note_on_c, 3, 76, 0
5, 22800, Note_on_c, 3, 74, 80
5, 22800, Note_on_c, 3, 77, 80
5, 23039, Note_on_c, 3, 74, 0
5, 23039, Note_on_c, 3, 77, 0
5, 23040, Note_on_c, 3, 72, 80
5, 23040, Note_on_c, 3, 76, 80
5, 23279, Note_on_c, 3, 72, 0
5, 23279, Note_on_c, 3, 76, 0
5, 23280, Note_on_c, 3, 67, 80
5, 23519, Note_on_c, 3, 67, 0
5, 23520, Note_on_c, 3, 72, 80
5, 23520, Note_on_c, 3, 76, 80
5, 23759, Note_on_c, 3, 72, 0
5, 23759, Note_on_c, 3, 76, 0
5, 23760, Note_on_c, 3, 67, 80
5, 23999, Note_on_c, 3, 67, 0
5, 24000, Note_on_c, 3, 72, 80
5, 24000, Note_on_c, 3, 76, 80
5, 24239, Note_on_c, 3, 72, 0
5, 24239, Note_on_c, 3, 76, 0
5, 24240, Note_on_c, 3, 67, 80
5, 24479, Note_on_c, 3, 67, 0
5, 24480, Note_on_c, 3, 72, 80
5, 24480, Note_on_c, 3, 76, 80
5, 24719, Note_on_c, 3, 72, 0
5, 24719, Note_on_c, 3, 76, 0
5, 24720, Note_on_c, 3, 67, 80
5, 24959, Note_on_c, 3, 67, 0
5, 24960, Note_on_c, 3, 71, 80
5, 24960, Note_on_c, 3, 74, 80
5, 25199, Note_on_c, 3, 71, 0
5, 25199, Note_on_c, 3, 74, 0
5, 25200, Note_on_c, 3, 67, 80
5, 25439, Note_on_c, 3, 67, 0
5, 25440, Note_on_c, 3, 71, 80
5, 25440, Note_on_c, 3, 74, 80
5, 25679, Note_on_c, 3, 71, 0
5, 25679, Note_on_c, 3, 74, 0
5, 25680, Note_on_c, 3, 67, 80
5, 25919, Note_on_c, 3, 67, 0
5, 25920, Note_on_c, 3, 71, 80
5, 25920, Note_on_c, 3, 74, 80
5, 26159, Note_on_c, 3, 71, 0
5, 26159, Note_on_c, 3, 74, 0
5, 26160, Note_on_c, 3, 67, 80
5, 26399, Note_on_c, 3, 67, 0
5, 26400, Note_on_c, 3, 71, 80
5, 26400, Note_on_c, 3, 74, 80
5, 26639, Note_on_c, 3, 71, 0
5, 26639, Note_on_c, 3, 74, 0
5, 26640, Note_on_c, 3, 67, 80
5, 26879, Note_on_c, 3, 67, 0
5, 26880, Note_on_c, 3, 69, 80
5, 26880, Note_on_c, 3, 72, 80
5, 27119, Note_on_c, 3, 69, 0
5, 27119, Note_on_c, 3, 72, 0
5, 27120, Note_on_c, 3, 64, 80
5, 27359, Note_on_c, 3, 64, 0
5, 27360, Note_on_c, 3, 69, 80
5, 27360, Note_on_c, 3, 72, 80
5, 27599, Note_on_c, 3, 69, 0
5, 27599, Note_on_c, 3, 72, 0
5, 27600, Note_on_c, 3, 64, 80
5, 27839, Note_on_c, 3, 64, 0
5, 27840, Note_on_c, 3, 69, 80
5, 27840, Note_on_c, 3, 72, 80
5, 28079, Note_on_c, 3, 69, 0
5, 28079, Note_on_c, 3, 72, 0
5, 28080, Note_on_c, 3, 64, 80
5, 28319, Note_on_c, 3, 64, 0
5, 28320, Note_on_c, 3, 69, 80
5, 28320, Note_on_c, 3, 72, 80
5, 28559, Note_on_c, 3, 69, 0
5, 28559, Note_on_c, 3, 72, 0
5, 28560, Note_on_c, 3, 64, 80
5, 28799, Note_on_c, 3, 64, 0
5, 28800, Note_on_c, 3, 71, 80
5, 28800, Note_on_c, 3, 76, 80
5, 29039, Note_on_c, 3, 71, 0
5, 29039, Note_on_c, 3, 76, 0
5, 29040, Note_on_c, 3, 67, 80
5, 29279, Note_on_c, 3, 67, 0
5, 29280, Note_on_c, 3, 71, 80
5, 29280, Note_on_c, 3, 76, 80
5, 29519, Note_on_c, 3, 71, 0
5, 29519, Note_on_c, 3, 76, 0
5, 29520, Note_on_c, 3, 67, 80
5, 29759, Note_on_c, 3, 67, 0
5, 29760, Note_on_c, 3, 71, 80
5, 29760, Note_on_c, 3, 76, 80
5, 29999, Note_on_c, 3, 71, 0
5, 29999, Note_on_c, 3, 76, 0
5, 30000, Note_on_c, 3, 67, 80
5, 30239, Note_on_c, 3, 67, 0
5, 30240, Note_on_c, 3, 71, 80
5, 30240, Note_on_c, 3, 76, 80
5, 30479, Note_on_c, 3, 71, 0
5, 30479, Note_on_c, 3, 76, 0
5, 30480, Note_on_c, 3, 62, 80
5, 30599, Note_on_c, 3, 62, 0
5, 30600, Note_on_c, 3, 64, 80
5, 30719, Note_on_c, 3, 64, 0
5, 30720, Note_on_c, 3, 65, 80
5, 30720, Note_on_c, 3, 69, 80
5, 30959, Note_on_c, 3, 65, 0
5, 30959, Note_on_c, 3, 69, 0
5, 30960, Note_on_c, 3, 60, 80
5, 31199, Note_on_c, 3, 60, 0
5, 31200, Note_on_c, 3, 65, 80
5, 31200, Note_on_c, 3, 69, 80
5, 31439, Note_on_c, 3, 65, 0
5, 31439, Note_on_c, 3, 69, 0
5, 31440, Note_on_c, 3, 60, 80
5, 31679, Note_on_c, 3, 60, 0
5, 31680, Note_on_c, 3, 67, 80
5, 31680, Note_on_c, 3, 71, 80
5, 31919, Note_on_c, 3, 67, 0
5, 31919, Note_on_c, 3, 71, 0
5, 31920, Note_on_c, 3, 62, 80
5, 32159, Note_on_c, 3, 62, 0
5, 32160, Note_on_c, 3, 67, 80
5, 32160, Note_on_c, 3, 71, 80
5, 32399, Note_on_c, 3, 67, 0
5, 32399, Note_on_c, 3, 71, 0
5, 32400, Note_on_c, 3, 62, 80
5, 32639, Note_on_c, 3, 62, 0
5, 32640, Note_on_c, 3, 64, 80
5, 32640, Note_on_c, 3, 67, 80
5, 32879, Note_on_c, 3, 64, 0
5, 32879, Note_on_c, 3, 67, 0
5, 32880, Note_on_c, 3, 62, 80
5, 33119, Note_on_c, 3, 62, 0
5, 33120, Note_on_c, 3, 64, 80
5, 33120, Note_on_c, 3, 67, 80
5, 33359, Note_on_c, 3, 64, 0
5, 33359, Note_on_c, 3, 67, 0
5, 33360, Note_on_c, 3, 71, 80
5, 33599, Note_on_c, 3, 71, 0
5, 33600, Note_on_c, 3, 69, 80
5, 33600, Note_on_c, 3, 72, 80
5, 33839, Note_on_c, 3, 69, 0
5, 33839, Note_on_c, 3, 72, 0
5, 33840, Note_on_c, 3, 64, 80
5, 34079, Note_on_c, 3, 64, 0
5, 34080, Note_on_c, 3, 69, 80
5, 34080, Note_on_c, 3, 72, 80
5, 34319, Note_on_c, 3, 69, 0
5, 34319, Note_on_c, 3, 72, 0
5, 34320, Note_on_c, 3, 67, 80
5, 34320, Note_on_c, 3, 71, 80
5, 34559, Note_on_c, 3, 67, 0
5, 34559, Note_on_c, 3, 71, 0
5, 34560, Note_on_c, 3, 65, 80
5, 34560, Note_on_c, 3, 69, 80
5, 34799, Note_on_c, 3, 65, 0
5, 34799, Note_on_c, 3, 69, 0
5, 34800, Note_on_c, 3, 60, 80
5, 35039, Note_on_c, 3, 60, 0
5, 35040, Note_on_c, 3, 65, 80
5, 35040, Note_on_c, 3, 69, 80
5, 35279, Note_on_c, 3, 65, 0
5, 35279, Note_on_c, 3, 69, 0
5, 35280, Note_on_c, 3, 60, 80
5, 35519, Note_on_c, 3, 60, 0
5, 35520, Note_on_c, 3, 65, 80
5, 35520, Note_on_c, 3, 69, 80
5, 35759, Note_on_c, 3, 65, 0
5, 35759, Note_on_c, 3, 69, 0
5, 35760, Note_on_c, 3, 60, 80
5, 35999, Note_on_c, 3, 60, 0
5, 36000, Note_on_c, 3, 65, 80
5, 36000, Note_on_c, 3, 69, 80
5, 36239, Note_on_c, 3, 65, 0
5, 36239, Note_on_c, 3, 69, 0
5, 36240, Note_on_c, 3, 60, 80
5, 36479, Note_on_c, 3, 60, 0
5, 36480, Note_on_c, 3, 67, 80
5, 36480, Note_on_c, 3, 71, 80
5, 36719, Note_on_c, 3, 67, 0
5, 36719, Note_on_c, 3, 71, 0
5, 36720, Note_on_c, 3, 62, 80
5, 36959, Note_on_c, 3, 62, 0
5, 36960, Note_on_c, 3, 67, 80
5, 36960, Note_on_c, 3, 71, 80
5, 37199, Note_on_c, 3, 67, 0
5, 37199, Note_on_c, 3, 71, 0
5, 37200, Note_on_c, 3, 62, 80
5, 37439, Note_on_c, 3, 62, 0
5, 37440, Note_on_c, 3, 67, 80
5, 37440, Note_on_c, 3, 71, 80
5, 37679, Note_on_c, 3, 67, 0
5, 37679, Note_on_c, 3, 71, 0
5, 37680, Note_on_c, 3, 74, 80
5, 37919, Note_on_c, 3, 74, 0
5, 37920, Note_on_c, 3, 77, 80
5, 37959, Note_on_c, 3, 77, 0
5, 37960, Note_on_c, 3, 79, 80
5, 38159, Note_on_c, 3, 79, 0
5, 38160, Note_on_c, 3, 77, 80
5, 38399, Note_on_c, 3, 77, 0
5, 38400, Note_on_c, 3, 72, 80
5, 38400, Note_on_c, 3, 76, 80
5, 38639, Note_on_c, 3, 72, 0
5, 38639, Note_on_c, 3, 76, 0
5, 38640, Note_on_c, 3, 67, 80
5, 38879, Note_on_c, 3, 67, 0
5, 38880, Note_on_c, 3, 72, 80
5, 38880, Note_on_c, 3, 76, 80
5, 39119, Note_on_c, 3, 72, 0
5, 39119, Note_on_c, 3, 76, 0
5, 39120, Note_on_c, 3, 67, 80
5, 39359, Note_on_c, 3, 67, 0
5, 39360, Note_on_c, 3, 72, 80
5, 39360, Note_on_c, 3, 76, 80
5, 39599, Note_on_c, 3, 72, 0
5, 39599, Note_on_c, 3, 76, 0
5, 39600, Note_on_c, 3, 67, 80
5, 39839, Note_on_c, 3, 67, 0
5, 39840, Note_on_c, 3, 72, 80
5, 39840, Note_on_c, 3, 76, 80
5, 40079, Note_on_c, 3, 72, 0
5, 40079, Note_on_c, 3, 76, 0
5, 40080, Note_on_c, 3, 67, 80
5, 40319, Note_on_c, 3, 67, 0
5, 40320, Note_on_c, 3, 71, 80
5, 40320, Note_on_c, 3, 74, 80
5, 40559, Note_on_c, 3, 71, 0
5, 40559, Note_on_c, 3, 74, 0
5, 40560, Note_on_c, 3, 67, 80
5, 40799, Note_on_c, 3, 67, 0
5, 40800, Note_on_c, 3, 71, 80
5, 40800, Note_on_c, 3, 74, 80
5, 41039, Note_on_c, 3, 71, 0
5, 41039, Note_on_c, 3, 74, 0
5, 41040, Note_on_c, 3, 67, 80
5, 41279, Note_on_c, 3, 67, 0
5, 41280, Note_on_c, 3, 71, 80
5, 41280, Note_on_c, 3, 74, 80
5, 41519, Note_on_c, 3, 71, 0
5, 41519, Note_on_c, 3, 74, 0
5, 41520, Note_on_c, 3, 67, 80
5, 41759, Note_on_c, 3, 67, 0
5, 41760, Note_on_c, 3, 71, 80
5, 41760, Note_on_c, 3, 74, 80
5, 41999, Note_on_c, 3, 71, 0
5, 41999, Note_on_c, 3, 74, 0
5, 42000, Note_on_c, 3, 67, 80
5, 42239, Note_on_c, 3, 67, 0
5, 42240, Note_on_c, 3, 65, 80
5, 42240, Note_on_c, 3, 69, 80
5, 42479, Note_on_c, 3, 65, 0
5, 42479, Note_on_c, 3, 69, 0
5, 42480, Note_on_c, 3, 60, 80
5, 42719, Note_on_c, 3, 60, 0
5, 42720, Note_on_c, 3, 65, 80
5, 42720, Note_on_c, 3, 69, 80
5, 42959, Note_on_c, 3, 65, 0
5, 42959, Note_on_c, 3, 69, 0
5, 42960, Note_on_c, 3, 60, 80
5, 43199, Note_on_c, 3, 60, 0
5, 43200, Note_on_c, 3, 65, 80
5, 43200, Note_on_c, 3, 69, 80
5, 43439, Note_on_c, 3, 65, 0
5, 43439, Note_on_c, 3, 69, 0
5, 43440, Note_on_c, 3, 60, 80
5, 43679, Note_on_c, 3, 60, 0
5, 43680, Note_on_c, 3, 65, 80
5, 43680, Note_on_c, 3, 69, 80
5, 43919, Note_on_c, 3, 65, 0
5, 43919, Note_on_c, 3, 69, 0
5, 43920, Note_on_c, 3, 60, 80
5, 44159, Note_on_c, 3, 60, 0
5, 44160, Note_on_c, 3, 72, 80
5, 44160, Note_on_c, 3, 76, 80
5, 44399, Note_on_c, 3, 72, 0
5, 44399, Note_on_c, 3, 76, 0
5, 44400, Note_on_c, 3, 67, 80
5, 44639, Note_on_c, 3, 67, 0
5, 44640, Note_on_c, 3, 72, 80
5, 44640, Note_on_c, 3, 76, 80
5, 44879, Note_on_c, 3, 72, 0
5, 44879, Note_on_c, 3, 76, 0
5, 44880, Note_on_c, 3, 67, 80
5, 45119, Note_on_c, 3, 67, 0
5, 45120, Note_on_c, 3, 72, 80
5, 45120, Note_on_c, 3, 76, 80
5, 45359, Note_on_c, 3, 72, 0
5, 45359, Note_on_c, 3, 76, 0
5, 45360, Note_on_c, 3, 67, 80
5, 45599, Note_on_c, 3, 67, 0
5, 45600, Note_on_c, 3, 72, 80
5, 45600, Note_on_c, 3, 76, 80
5, 45839, Note_on_c, 3, 72, 0
5, 45839, Note_on_c, 3, 76, 0
5, 45840, Note_on_c, 3, 71, 80
5, 45840, Note_on_c, 3, 74, 80
5, 46079, Note_on_c, 3, 71, 0
5, 46079, Note_on_c, 3, 74, 0
5, 46080, Note_on_c, 3, 69, 80
5, 46080, Note_on_c, 3, 72, 80
5, 46319, Note_on_c, 3, 69, 0
5, 46319, Note_on_c, 3, 72, 0
5, 46320, Note_on_c, 3, 64, 80
5, 46559, Note_on_c, 3, 64, 0
5, 46560, Note_on_c, 3, 69, 80
5, 46560, Note_on_c, 3, 72, 80
5, 46799, Note_on_c, 3, 69, 0
5, 46799, Note_on_c, 3, 72, 0
5, 46800, Note_on_c, 3, 64, 80
5, 47039, Note_on_c, 3, 64, 0
5, 47040, Note_on_c, 3, 69, 80
5, 47040, Note_on_c, 3, 72, 80
5, 47279, Note_on_c, 3, 69, 0
5, 47279, Note_on_c, 3, 72, 0
5, 47280, Note_on_c, 3, 64, 80
5, 47519, Note_on_c, 3, 64, 0
5, 47520, Note_on_c, 3, 69, 80
5, 47520, Note_on_c, 3, 72, 80
5, 47759, Note_on_c, 3, 69, 0
5, 47759, Note_on_c, 3, 72, 0
5, 47760, Note_on_c, 3, 64, 80
5, 47999, Note_on_c, 3, 64, 0
5, 48000, Note_on_c, 3, 67, 80
5, 48000, Note_on_c, 3, 71, 80
5, 48239, Note_on_c, 3, 67, 0
5, 48239, Note_on_c, 3, 71, 0
5, 48240, Note_on_c, 3, 62, 80
5, 48479, Note_on_c, 3, 62, 0
5, 48480, Note_on_c, 3, 67, 80
5, 48480, Note_on_c, 3, 71, 80
5, 48719, Note_on_c, 3, 67, 0
5, 48719, Note_on_c, 3, 71, 0
5, 48720, Note_on_c, 3, 62, 80
5, 48959, Note_on_c, 3, 62, 0
5, 48960, Note_on_c, 3, 67, 80
5, 48960, Note_on_c, 3, 71, 80
5, 49199, Note_on_c, 3, 67, 0
5, 49199, Note_on_c, 3, 71, 0
5, 49200, Note_on_c, 3, 62, 80
5, 49439, Note_on_c, 3, 62, 0
5, 49440, Note_on_c, 3, 67, 80
5, 49440, Note_on_c, 3, 71, 80
5, 49679, Note_on_c, 3, 67, 0
5, 49679, Note_on_c, 3, 71, 0
5, 49680, Note_on_c, 3, 62, 80
5, 49919, Note_on_c, 3, 62, 0
5, 49920, Note_on_c, 3, 65, 80
5, 49920, Note_on_c, 3, 69, 80
5, 50159, Note_on_c, 3, 65, 0
5, 50159, Note_on_c, 3, 69, 0
5, 50160, Note_on_c, 3, 60, 80
5, 50399, Note_on_c, 3, 60, 0
5, 50400, Note_on_c, 3, 65, 80
5, 50400, Note_on_c, 3, 69, 80
5, 50639, Note_on_c, 3, 65, 0
5, 50639, Note_on_c, 3, 69, 0
5, 50640, Note_on_c, 3, 60, 80
5, 50879, Note_on_c, 3, 60, 0
5, 50880, Note_on_c, 3, 67, 80
5, 50880, Note_on_c, 3, 71, 80
5, 51119, Note_on_c, 3, 67, 0
5, 51119, Note_on_c, 3, 71, 0
5, 51120, Note_on_c, 3, 62, 80
5, 51359, Note_on_c, 3, 62, 0
5, 51360, Note_on_c, 3, 67, 80
5, 51360, Note_on_c, 3, 71, 80
5, 51599, Note_on_c, 3, 67, 0
5, 51599, Note_on_c, 3, 71, 0
5, 51600, Note_on_c, 3, 62, 80
5, 51839, Note_on_c, 3, 62, 0
5, 51840, Note_on_c, 3, 72, 80
5, 51840, Note_on_c, 3, 76, 80
5, 52079, Note_on_c, 3, 72, 0
5, 52079, Note_on_c, 3, 76, 0
5, 52080, Note_on_c, 3, 67, 80
5, 52319, Note_on_c, 3, 67, 0
5, 52320, Note_on_c, 3, 72, 80
5, 52320, Note_on_c, 3, 76, 80
5, 52559, Note_on_c, 3, 72, 0
5, 52559, Note_on_c, 3, 76, 0
5, 52560, Note_on_c, 3, 67, 80
5, 52799, Note_on_c, 3, 67, 0
5, 52800, Note_on_c, 3, 72, 80
5, 52800, Note_on_c, 3, 76, 80
5, 53039, Note_on_c, 3, 72, 0
5, 53039, Note_on_c, 3, 76, 0
5, 53040, Note_on_c, 3, 67, 80
5, 53279, Note_on_c, 3, 67, 0
5, 53280, Note_on_c, 3, 72, 80
5, 53280, Note_on_c, 3, 76, 80
5, 53519, Note_on_c, 3, 72, 0
5, 53519, Note_on_c, 3, 76, 0
5, 53520, Note_on_c, 3, 74, 80
5, 53520, Note_on_c, 3, 77, 80
5, 53759, Note_on_c, 3, 74, 0
5, 53759, Note_on_c, 3, 77, 0
5, 53760, Note_on_c, 3, 72, 80
5, 53760, Note_on_c, 3, 76, 80
5, 53999, Note_on_c, 3, 72, 0
5, 53999, Note_on_c, 3, 76, 0
5, 54000, Note_on_c, 3, 67, 80
5, 54239, Note_on_c, 3, 67, 0
5, 54240, Note_on_c, 3, 72, 80
5, 54240, Note_on_c, 3, 76, 80
5, 54479, Note_on_c, 3, 72, 0
5, 54479, Note_on_c, 3, 76, 0
5, 54480, Note_on_c, 3, 67, 80
5, 54719, Note_on_c, 3, 67, 0
5, 54720, Note_on_c, 3, 72, 80
5, 54720, Note_on_c, 3, 76, 80
5, 54959, Note_on_c, 3, 72, 0
5, 54959, Note_on_c, 3, 76, 0
5, 54960, Note_on_c, 3, 67, 80
5, 55199, Note_on_c, 3, 67, 0
5, 55200, Note_on_c, 3, 72, 80
5, 55200, Note_on_c, 3, 76, 80
5, 55439, Note_on_c, 3, 72, 0
5, 55439, Note_on_c, 3, 76, 0
5, 55440, Note_on_c, 3, 67, 80
5, 55679, Note_on_c, 3, 67, 0
5, 55680, Note_on_c, 3, 71, 80
5, 55680, Note_on_c, 3, 74, 80
5, 55919, Note_on_c, 3, 71, 0
5, 55919, Note_on_c, 3, 74, 0
5, 55920, Note_on_c, 3, 67, 80
5, 56159, Note_on_c, 3, 67, 0
5, 56160, Note_on_c, 3, 71, 80
5, 56160, Note_on_c, 3, 74, 80
5, 56399, Note_on_c, 3, 71, 0
5, 56399, Note_on_c, 3, 74, 0
5, 56400, Note_on_c, 3, 67, 80
5, 56639, Note_on_c, 3, 67, 0
5, 56640, Note_on_c, 3, 71, 80
5, 56640, Note_on_c, 3, 74, 80
5, 56879, Note_on_c, 3, 71, 0
5, 56879, Note_on_c, 3, 74, 0
5, 56880, Note_on_c, 3, 67, 80
5, 57119, Note_on_c, 3, 67, 0
5, 57120, Note_on_c, 3, 71, 80
5, 57120, Note_on_c, 3, 74, 80
5, 57359, Note_on_c, 3, 71, 0
5, 57359, Note_on_c, 3, 74, 0
5, 57360, Note_on_c, 3, 67, 80
5, 57599, Note_on_c, 3, 67, 0
5, 57600, Note_on_c, 3, 69, 80
5, 57600, Note_on_c, 3, 72, 80
5, 57839, Note_on_c, 3, 69, 0
5, 57839, Note_on_c, 3, 72, 0
5, 57840, Note_on_c, 3, 64, 80
5, 58079, Note_on_c, 3, 64, 0
5, 58080, Note_on_c, 3, 69, 80
5, 58080, Note_on_c, 3, 72, 80
5, 58319, Note_on_c, 3, 69, 0
5, 58319, Note_on_c, 3, 72, 0
5, 58320, Note_on_c, 3, 64, 80
5, 58559, Note_on_c, 3, 64, 0
5, 58560, Note_on_c, 3, 69, 80
5, 58560, Note_on_c, 3, 72, 80
5, 58799, Note_on_c, 3, 69, 0
5, 58799, Note_on_c, 3, 72, 0
5, 58800, Note_on_c, 3, 64, 80
5, 59039, Note_on_c, 3, 64, 0
5, 59040, Note_on_c, 3, 69, 80
5, 59040, Note_on_c, 3, 72, 80
5, 59279, Note_on_c, 3, 69, 0
5, 59279, Note_on_c, 3, 72, 0
5, 59280, Note_on_c, 3, 64, 80
5, 59519, Note_on_c, 3, 64, 0
5, 59520, Note_on_c, 3, 71, 80
5, 59520, Note_on_c, 3, 76, 80
5, 59759, Note_on_c, 3, 71, 0
5, 59759, Note_on_c, 3, 76, 0
5, 59760, Note_on_c, 3, 67, 80
5, 59999, Note_on_c, 3, 67, 0
5, 60000, Note_on_c, 3, 71, 80
5, 60000, Note_on_c, 3, 76, 80
5, 60239, Note_on_c, 3, 71, 0
5, 60239, Note_on_c, 3, 76, 0
5, 60240, Note_on_c, 3, 67, 80
5, 60479, Note_on_c, 3, 67, 0
5, 60480, Note_on_c, 3, 71, 80
5, 60480, Note_on_c, 3, 76, 80
5, 60719, Note_on_c, 3, 71, 0
5, 60719, Note_on_c, 3, 76, 0
5, 60720, Note_on_c, 3, 67, 80
5, 60959, Note_on_c, 3, 67, 0
5, 60960, Note_on_c, 3, 71, 80
5, 60960, Note_on_c, 3, 76, 80
5, 61199, Note_on_c, 3, 71, 0
5, 61199, Note_on_c, 3, 76, 0
5, 61200, Note_on_c, 3, 62, 80
5, 61319, Note_on_c, 3, 62, 0
5, 61320, Note_on_c, 3, 64, 80
5, 61439, Note_on_c, 3, 64, 0
5, 61440, Note_on_c, 3, 65, 80
5, 61440, Note_on_c, 3, 69, 80
5, 61679, Note_on_c, 3, 65, 0
5, 61679, Note_on_c, 3, 69, 0
5, 61680, Note_on_c, 3, 60, 80
5, 61919, Note_on_c, 3, 60, 0
5, 61920, Note_on_c, 3, 65, 80
5, 61920, Note_on_c, 3, 69, 80
5, 62159, Note_on_c, 3, 65, 0
5, 62159, Note_on_c, 3, 69, 0
5, 62160, Note_on_c, 3, 60, 80
5, 62399, Note_on_c, 3, 60, 0
5, 62400, Note_on_c, 3, 67, 80
5, 62400, Note_on_c, 3, 71, 80
5, 62639, Note_on_c, 3, 67, 0
5, 62639, Note_on_c, 3, 71, 0
5, 62640, Note_on_c, 3, 62, 80
5, 62879, Note_on_c, 3, 62, 0
5, 62880, Note_on_c, 3, 67, 80
5, 62880, Note_on_c, 3, 71, 80
5, 63119, Note_on_c, 3, 67, 0
5, 63119, Note_on_c, 3, 71, 0
5, 63120, Note_on_c, 3, 62, 80
5, 63359, Note_on_c, 3, 62, 0
5, 63360, Note_on_c, 3, 64, 80
5, 63360, Note_on_c, 3, 67, 80
5, 63599, Note_on_c, 3, 64, 0
5, 63599, Note_on_c, 3, 67, 0
5, 63600, Note_on_c, 3, 62, 80
5, 63839, Note_on_c, 3, 62, 0
5, 63840, Note_on_c, 3, 64, 80
5, 63840, Note_on_c, 3, 67, 80
5, 64079, Note_on_c, 3, 64, 0
5, 64079, Note_on_c, 3, 67, 0
5, 64080, Note_on_c, 3, 71, 80
5, 64319, Note_on_c, 3, 71, 0
5, 64320, Note_on_c, 3, 69, 80
5, 64320, Note_on_c, 3, 72, 80
5, 64559, Note_on_c, 3, 69, 0
5, 64559, Note_on_c, 3, 72, 0
5, 64560, Note_on_c, 3, 64, 80
5, 64799, Note_on_c, 3, 64, 0
5, 64800, Note_on_c, 3, 69, 80
5, 64800, Note_on_c, 3, 72, 80
5, 65039, Note_on_c, 3, 69, 0
5, 65039, Note_on_c, 3, 72, 0
5, 65040, Note_on_c, 3, 67, 80
5, 65040, Note_on_c, 3, 71, 80
5, 65279, Note_on_c, 3, 67, 0
5, 65279, Note_on_c, 3, 71, 0
5, 65280, Note_on_c, 3, 65, 80
5, 65280, Note_on_c, 3, 69, 80
5, 65519, Note_on_c, 3, 65, 0
5, 65519, Note_on_c, 3, 69, 0
5, 65520, Note_on_c, 3, 60, 80
5, 65759, Note_on_c, 3, 60, 0
5, 65760, Note_on_c, 3, 65, 80
5, 65760, Note_on_c, 3, 69, 80
5, 65999, Note_on_c, 3, 65, 0
5, 65999, Note_on_c, 3, 69, 0
5, 66000, Note_on_c, 3, 60, 80
5, 66239, Note_on_c, 3, 60, 0
5, 66240, Note_on_c, 3, 65, 80
5, 66240, Note_on_c, 3, 69, 80
5, 66479, Note_on_c, 3, 65, 0
5, 66479, Note_on_c, 3, 69, 0
5, 66480, Note_on_c, 3, 60, 80
5, 66719, Note_on_c, 3, 60, 0
5, 66720, Note_on_c, 3, 65, 80
5, 66720, Note_on_c, 3, 69, 80
5, 66959, Note_on_c, 3, 65, 0
5, 66959, Note_on_c, 3, 69, 0
5, 66960, Note_on_c, 3, 60, 80
5, 67199, Note_on_c, 3, 60, 0
5, 67200, Note_on_c, 3, 62, 80
5, 67200, Note_on_c, 3, 67, 80
5, 67200, Note_on_c, 3, 71, 80
5, 67679, Note_on_c, 3, 62, 0
5, 67679, Note_on_c, 3, 67, 0
5, 67679, Note_on_c, 3, 71, 0
5, 67680, Note_on_c, 3, 62, 80
5, 67680, Note_on_c, 3, 67, 80
5, 67680, Note_on_c, 3, 71, 80
5, 68159, Note_on_c, 3, 62, 0
5, 68159, Note_on_c, 3, 67, 0
5, 68159, Note_on_c, 3, 71, 0
5, 68160, Note_on_c, 3, 62, 80
5, 68160, Note_on_c, 3, 67, 80
5, 68160, Note_on_c, 3, 71, 80
5, 68639, Note_on_c, 3, 62, 0
5, 68639, Note_on_c, 3, 67, 0
5, 68639, Note_on_c, 3, 71, 0
5, 84480, Note_on_c, 3, 65, 80
5, 84480, Note_on_c, 3, 69, 80
5, 84719, Note_on_c, 3, 65, 0
5, 84719, Note_on_c, 3, 69, 0
5, 84960, Note_on_c, 3, 65, 80
5, 84960, Note_on_c, 3, 69, 80
5, 85199, Note_on_c, 3, 65, 0
5, 85199, Note_on_c, 3, 69, 0
5, 85440, Note_on_c, 3, 67, 80
5, 85440, Note_on_c, 3, 71, 80
5, 85679, Note_on_c, 3, 67, 0
5, 85679, Note_on_c, 3, 71, 0
5, 85920, Note_on_c, 3, 67, 80
5, 85920, Note_on_c, 3, 71, 80
5, 86159, Note_on_c, 3, 67, 0
5, 86159, Note_on_c, 3, 71, 0
5, 86400, Note_on_c, 3, 64, 80
5, 86400, Note_on_c, 3, 67, 80
5, 86639, Note_on_c, 3, 64, 0
5, 86639, Note_on_c, 3, 67, 0
5, 86880, Note_on_c, 3, 64, 80
5, 86880, Note_on_c, 3, 67, 80
5, 87119, Note_on_c, 3, 64, 0
5, 87119, Note_on_c, 3, 67, 0
5, 87360, Note_on_c, 3, 69, 80
5, 87360, Note_on_c, 3, 72, 80
5, 87599, Note_on_c, 3, 69, 0
5, 87599, Note_on_c, 3, 72, 0
5, 87840, Note_on_c, 3, 69, 80
5, 87840, Note_on_c, 3, 72, 80
5, 88079, Note_on_c, 3, 69, 0
5, 88079, Note_on_c, 3, 72, 0
5, 88080, Note_on_c, 3, 67, 80
5, 88080, Note_on_c, 3, 71, 80
5, 88319, Note_on_c, 3, 67, 0
5, 88319, Note_on_c, 3, 71, 0
5, 88320, Note_on_c, 3, 65, 80
5, 88320, Note_on_c, 3, 69, 80
5, 88559, Note_on_c, 3, 65, 0
5, 88559, Note_on_c, 3, 69, 0
5, 88560, Note_on_c, 3, 60, 80
5, 88799, Note_on_c, 3, 60, 0
5, 88800, Note_on_c, 3, 65, 80
5, 88800, Note_on_c, 3, 69, 80
5, 89039, Note_on_c, 3, 65, 0
5, 89039, Note_on_c, 3, 69, 0
5, 89040, Note_on_c, 3, 60, 80
5, 89279, Note_on_c, 3, 60, 0
5, 89280, Note_on_c, 3, 65, 80
5, 89280, Note_on_c, 3, 69, 80
5, 89519, Note_on_c, 3, 65, 0
5, 89519, Note_on_c, 3, 69, 0
5, 89520, Note_on_c, 3, 60, 80
5, 89759, Note_on_c, 3, 60, 0
5, 89760, Note_on_c, 3, 65, 80
5, 89760, Note_on_c, 3, 69, 80
5, 89999, Note_on_c, 3, 65, 0
5, 89999, Note_on_c, 3, 69, 0
5, 90000, Note_on_c, 3, 60, 80
5, 90239, Note_on_c, 3, 60, 0
5, 90240, Note_on_c, 3, 71, 80
5, 90240, Note_on_c, 3, 74, 80
5, 90479, Note_on_c, 3, 71, 0
5, 90479, Note_on_c, 3, 74, 0
5, 90480, Note_on_c, 3, 67, 80
5, 90719, Note_on_c, 3, 67, 0
5, 90720, Note_on_c, 3, 71, 80
5, 90720, Note_on_c, 3, 74, 80
5, 90959, Note_on_c, 3, 71, 0
5, 90959, Note_on_c, 3, 74, 0
5, 90960, Note_on_c, 3, 67, 80
5, 91199, Note_on_c, 3, 67, 0
5, 91200, Note_on_c, 3, 71, 80
5, 91200, Note_on_c, 3, 74, 80
5, 91439, Note_on_c, 3, 71, 0
5, 91439, Note_on_c, 3, 74, 0
5, 91440, Note_on_c, 3, 67, 80
5, 91679, Note_on_c, 3, 67, 0
5, 91680, Note_on_c, 3, 71, 80
5, 91680, Note_on_c, 3, 74, 80
5, 91919, Note_on_c, 3, 71, 0
5, 91919, Note_on_c, 3, 74, 0
5, 91920, Note_on_c, 3, 67, 80
5, 92159, Note_on_c, 3, 67, 0
5, 92160, Note_on_c, 3, 72, 80
5, 92160, Note_on_c, 3, 76, 80
5, 92399, Note_on_c, 3, 72, 0
5, 92399, Note_on_c, 3, 76, 0
5, 92400, Note_on_c, 3, 67, 80
5, 92639, Note_on_c, 3, 67, 0
5, 92640, Note_on_c, 3, 72, 80
5, 92640, Note_on_c, 3, 76, 80
5, 92879, Note_on_c, 3, 72, 0
5, 92879, Note_on_c, 3, 76, 0
5, 92880, Note_on_c, 3, 67, 80
5, 93119, Note_on_c, 3, 67, 0
5, 93120, Note_on_c, 3, 72, 80
5, 93359, Note_on_c, 3, 72, 0
5, 93360, Note_on_c, 3, 67, 80
5, 93599, Note_on_c, 3, 67, 0
5, 93600, Note_on_c, 3, 76, 80
5, 93839, Note_on_c, 3, 76, 0
5, 93840, Note_on_c, 3, 72, 80
5, 94079, Note_on_c, 3, 72, 0
5, 94080, Note_on_c, 3, 71, 80
5, 94080, Note_on_c, 3, 74, 80
5, 94319, Note_on_c, 3, 71, 0
5, 94319, Note_on_c, 3, 74, 0
5, 94320, Note_on_c, 3, 67, 80
5, 94559, Note_on_c, 3, 67, 0
5, 94560, Note_on_c, 3, 71, 80
5, 94560, Note_on_c, 3, 74, 80
5, 94799, Note_on_c, 3, 71, 0
5, 94799, Note_on_c, 3, 74, 0
5, 94800, Note_on_c, 3, 67, 80
5, 95039, Note_on_c, 3, 67, 0
5, 95040, Note_on_c, 3, 71, 80
5, 95279, Note_on_c, 3, 71, 0
5, 95280, Note_on_c, 3, 67, 80
5, 95519, Note_on_c, 3, 67, 0
5, 95520, Note_on_c, 3, 72, 80
5, 95520, Note_on_c, 3, 76, 80
5, 95759, Note_on_c, 3, 72, 0
5, 95759, Note_on_c, 3, 76, 0
5, 95760, Note_on_c, 3, 71, 80
5, 95760, Note_on_c, 3, 74, 80
5, 95999, Note_on_c, 3, 71, 0
5, 95999, Note_on_c, 3, 74, 0
5, 96000, Note_on_c, 3, 69, 80
5, 96000, Note_on_c, 3, 72, 80
5, 96239, Note_on_c, 3, 69, 0
5, 96239, Note_on_c, 3, 72, 0
5, 96240, Note_on_c, 3, 64, 80
5, 96479, Note_on_c, 3, 64, 0
5, 96480, Note_on_c, 3, 69, 80
5, 96480, Note_on_c, 3, 72, 80
5, 96719, Note_on_c, 3, 69, 0
5, 96719, Note_on_c, 3, 72, 0
5, 96720, Note_on_c, 3, 64, 80
5, 96959, Note_on_c, 3, 64, 0
5, 96960, Note_on_c, 3, 69, 80
5, 97199, Note_on_c, 3, 69, 0
5, 97200, Note_on_c, 3, 64, 80
5, 97439, Note_on_c, 3, 64, 0
5, 97440, Note_on_c, 3, 67, 80
5, 97679, Note_on_c, 3, 67, 0
5, 97680, Note_on_c, 3, 69, 80
5, 97919, Note_on_c, 3, 69, 0
5, 97920, Note_on_c, 3, 71, 80
5, 97920, Note_on_c, 3, 76, 80
5, 98159, Note_on_c, 3, 71, 0
5, 98159, Note_on_c, 3, 76, 0
5, 98160, Note_on_c, 3, 67, 80
5, 98399, Note_on_c, 3, 67, 0
5, 98400, Note_on_c, 3, 71, 80
5, 98400, Note_on_c, 3, 76, 80
5, 98639, Note_on_c, 3, 71, 0
5, 98639, Note_on_c, 3, 76, 0
5, 98640, Note_on_c, 3, 67, 80
5, 98879, Note_on_c, 3, 67, 0
5, 98880, Note_on_c, 3, 71, 80
5, 99119, Note_on_c, 3, 71, 0
5, 99120, Note_on_c, 3, 67, 80
5, 99359, Note_on_c, 3, 67, 0
5, 99360, Note_on_c, 3, 69, 80
5, 99599, Note_on_c, 3, 69, 0
5, 99600, Note_on_c, 3, 67, 80
5, 99839, Note_on_c, 3, 67, 0
5, 99840, Note_on_c, 3, 65, 80
5, 99840, Note_on_c, 3, 69, 80
5, 100079, Note_on_c, 3, 65, 0
5, 100079, Note_on_c, 3, 69, 0
5, 100080, Note_on_c, 3, 60, 80
5, 100319, Note_on_c, 3, 60, 0
5, 100320, Note_on_c, 3, 65, 80
5, 100320, Note_on_c, 3, 69, 80
5, 100559, Note_on_c, 3, 65, 0
5, 100559, Note_on_c, 3, 69, 0
5, 100560, Note_on_c, 3, 60, 80
5, 100799, Note_on_c, 3, 60, 0
5, 100800, Note_on_c, 3, 67, 80
5, 100800, Note_on_c, 3, 71, 80
5, 101039, Note_on_c, 3, 67, 0
5, 101039, Note_on_c, 3, 71, 0
5, 101040, Note_on_c, 3, 62, 80
5, 101279, Note_on_c, 3, 62, 0
5, 101280, Note_on_c, 3, 67, 80
5, 101280, Note_on_c, 3, 71, 80
5, 101519, Note_on_c, 3, 67, 0
5, 101519, Note_on_c, 3, 71, 0
5, 101520, Note_on_c, 3, 62, 80
5, 101759, Note_on_c, 3, 62, 0
5, 101760, Note_on_c, 3, 64, 80
5, 101760, Note_on_c, 3, 67, 80
5, 101999, Note_on_c, 3, 64, 0
5, 101999, Note_on_c, 3, 67, 0
5, 102000, Note_on_c, 3, 62, 80
5, 102239, Note_on_c, 3, 62, 0
5, 102240, Note_on_c, 3, 64, 80
5, 102240, Note_on_c, 3, 67, 80
5, 102479, Note_on_c, 3, 64, 0
5, 102479, Note_on_c, 3, 67, 0
5, 102480, Note_on_c, 3, 67, 80
5, 102719, Note_on_c, 3, 67, 0
5, 102720, Note_on_c, 3, 69, 80
5, 102720, Note_on_c, 3, 72, 80
5, 102959, Note_on_c, 3, 69, 0
5, 102959, Note_on_c, 3, 72, 0
5, 102960, Note_on_c, 3, 64, 80
5, 103199, Note_on_c, 3, 64, 0
5, 103200, Note_on_c, 3, 69, 80
5, 103200, Note_on_c, 3, 72, 80
5, 103439, Note_on_c, 3, 69, 0
5, 103439, Note_on_c, 3, 72, 0
5, 103440, Note_on_c, 3, 67, 80
5, 103440, Note_on_c, 3, 71, 80
5, 103679, Note_on_c, 3, 67, 0
5, 103679, Note_on_c, 3, 71, 0
5, 103680, Note_on_c, 3, 65, 80
5, 103680, Note_on_c, 3, 69, 80
5, 103919, Note_on_c, 3, 65, 0
5, 103919, Note_on_c, 3, 69, 0
5, 103920, Note_on_c, 3, 64, 80
5, 104159, Note_on_c, 3, 64, 0
5, 104160, Note_on_c, 3, 65, 80
5, 104160, Note_on_c, 3, 69, 80
5, 104399, Note_on_c, 3, 65, 0
5, 104399, Note_on_c, 3, 69, 0
5, 104400, Note_on_c, 3, 64, 80
5, 104639, Note_on_c, 3, 64, 0
5, 104640, Note_on_c, 3, 67, 80
5, 104640, Note_on_c, 3, 71, 80
5, 104879, Note_on_c, 3, 67, 0
5, 104879, Note_on_c, 3, 71, 0
5, 104880, Note_on_c, 3, 62, 80
5, 105119, Note_on_c, 3, 62, 0
5, 105120, Note_on_c, 3, 67, 80
5, 105120, Note_on_c, 3, 71, 80
5, 105359, Note_on_c, 3, 67, 0
5, 105359, Note_on_c, 3, 71, 0
5, 105360, Note_on_c, 3, 62, 80
5, 105599, Note_on_c, 3, 62, 0
5, 105600, Note_on_c, 3, 72, 80
5, 105600, Note_on_c, 3, 76, 80
5, 105839, Note_on_c, 3, 72, 0
5, 105839, Note_on_c, 3, 76, 0
5, 105840, Note_on_c, 3, 67, 80
5, 106079, Note_on_c, 3, 67, 0
5, 106080, Note_on_c, 3, 72, 80
5, 106080, Note_on_c, 3, 76, 80
5, 106319, Note_on_c, 3, 72, 0
5, 106319, Note_on_c, 3, 76, 0
5, 106320, Note_on_c, 3, 67, 80
5, 106559, Note_on_c, 3, 67, 0
5, 106560, Note_on_c, 3, 72, 80
5, 106560, Note_on_c, 3, 76, 80
5, 106799, Note_on_c, 3, 72, 0
5, 106799, Note_on_c, 3, 76, 0
5, 106800, Note_on_c, 3, 67, 80
5, 107039, Note_on_c, 3, 67, 0
5, 107040, Note_on_c, 3, 72, 80
5, 107040, Note_on_c, 3, 76, 80
5, 107279, Note_on_c, 3, 72, 0
5, 107279, Note_on_c, 3, 76, 0
5, 107280, Note_on_c, 3, 74, 80
5, 107280, Note_on_c, 3, 77, 80
5, 107519, Note_on_c, 3, 74, 0
5, 107519, Note_on_c, 3, 77, 0
5, 107520, Note_on_c, 3, 72, 80
5, 107520, Note_on_c, 3, 76, 80
5, 107999, Note_on_c, 3, 72, 0
5, 107999, Note_on_c, 3, 76, 0
5, 108000, Note_on_c, 3, 76, 80
5, 108239, Note_on_c, 3, 76, 0
5, 108240, Note_on_c, 3, 72, 80
5, 108479, Note_on_c, 3, 72, 0
5, 108480, Note_on_c, 3, 67, 80
5, 108480, Note_on_c, 3, 71, 80
5, 108480, Note_on_c, 3, 74, 80
5, 108959, Note_on_c, 3, 67, 0
5, 108959, Note_on_c, 3, 71, 0
5, 108959, Note_on_c, 3, 74, 0
5, 108960, Note_on_c, 3, 74, 80
5, 109199, Note_on_c, 3, 74, 0
5, 109200, Note_on_c, 3, 71, 80
5, 109439, Note_on_c, 3, 71, 0
5, 109440, Note_on_c, 3, 69, 80
5, 109440, Note_on_c, 3, 76, 80
5, 109919, Note_on_c, 3, 69, 0
5, 109919, Note_on_c, 3, 76, 0
5, 109920, Note_on_c, 3, 76, 80
5, 110159, Note_on_c, 3, 76, 0
5, 110160, Note_on_c, 3, 69, 80
5, 110399, Note_on_c, 3, 69, 0
5, 110400, Note_on_c, 3, 67, 80
5, 110400, Note_on_c, 3, 71, 80
5, 110400, Note_on_c, 3, 76, 80
5, 110879, Note_on_c, 3, 67, 0
5, 110879, Note_on_c, 3, 71, 0
5, 110879, Note_on_c, 3, 76, 0
5, 110880, Note_on_c, 3, 77, 80
5, 111119, Note_on_c, 3, 77, 0
5, 111120, Note_on_c, 3, 76, 80
5, 111359, Note_on_c, 3, 76, 0
5, 111360, Note_on_c, 3, 69, 80
5, 111360, Note_on_c, 3, 72, 80
5, 111360, Note_on_c, 3, 77, 80
5, 111839, Note_on_c, 3, 69, 0
5, 111839, Note_on_c, 3, 72, 0
5, 111839, Note_on_c, 3, 77, 0
5, 111840, Note_on_c, 3, 77, 80
5, 112079, Note_on_c, 3, 77, 0
5, 112080, Note_on_c, 3, 74, 80
5, 112319, Note_on_c, 3, 74, 0
5, 112320, Note_on_c, 3, 72, 80
5, 112320, Note_on_c, 3, 76, 80
5, 112799, Note_on_c, 3, 72, 0
5, 112799, Note_on_c, 3, 76, 0
5, 112800, Note_on_c, 3, 76, 80
5, 113039, Note_on_c, 3, 76, 0
5, 113040, Note_on_c, 3, 72, 80
5, 113279, Note_on_c, 3, 72, 0
5, 113280, Note_on_c, 3, 65, 80
5, 113280, Note_on_c, 3, 69, 80
5, 113280, Note_on_c, 3, 74, 80
5, 113759, Note_on_c, 3, 65, 0
5, 113759, Note_on_c, 3, 69, 0
5, 113759, Note_on_c, 3, 74, 0
5, 113760, Note_on_c, 3, 65, 80
5, 113760, Note_on_c, 3, 69, 80
5, 113760, Note_on_c, 3, 74, 80
5, 114239, Note_on_c, 3, 65, 0
5, 114239, Note_on_c, 3, 69, 0
5, 114239, Note_on_c, 3, 74, 0
5, 114240, Note_on_c, 3, 65, 80
5, 114240, Note_on_c, 3, 71, 80
5, 114240, Note_on_c, 3, 74, 80
5, 114719, Note_on_c, 3, 65, 0
5, 114719, Note_on_c, 3, 71, 0
5, 114719, Note_on_c, 3, 74, 0
5, 114720, Note_on_c, 3, 65, 80
5, 114720, Note_on_c, 3, 71, 80
5, 114720, Note_on_c, 3, 74, 80
5, 115199, Note_on_c, 3, 65, 0
5, 115199, Note_on_c, 3, 71, 0
5, 115199, Note_on_c, 3, 74, 0
5, 115200, Note_on_c, 3, 72, 80
5, 115200, Note_on_c, 3, 76, 80
5, 115679, Note_on_c, 3, 72, 0
5, 115679, Note_on_c, 3, 76, 0
5, 115680, Note_on_c, 3, 76, 80
5, 115919, Note_on_c, 3, 76, 0
5, 115920, Note_on_c, 3, 72, 80
5, 116159, Note_on_c, 3, 72, 0
5, 116160, Note_on_c, 3, 67, 80
5, 116160, Note_on_c, 3, 71, 80
5, 116160, Note_on_c, 3, 74, 80
5, 116639, Note_on_c, 3, 67, 0
5, 116639, Note_on_c, 3, 71, 0
5, 116639, Note_on_c, 3, 74, 0
5, 116640, Note_on_c, 3, 74, 80
5, 116879, Note_on_c, 3, 74, 0
5, 116880, Note_on_c, 3, 71, 80
5, 117119, Note_on_c, 3, 71, 0
5, 117120, Note_on_c, 3, 69, 80
5, 117120, Note_on_c, 3, 76, 80
5, 117599, Note_on_c, 3, 69, 0
5, 117599, Note_on_c, 3, 76, 0
5, 117600, Note_on_c, 3, 76, 80
5, 117839, Note_on_c, 3, 76, 0
5, 117840, Note_on_c, 3, 69, 80
5, 118079, Note_on_c, 3, 69, 0
5, 118080, Note_on_c, 3, 67, 80
5, 118080, Note_on_c, 3, 71, 80
5, 118080, Note_on_c, 3, 76, 80
5, 118559, Note_on_c, 3, 67, 0
5, 118559, Note_on_c, 3, 71, 0
5, 118559, Note_on_c, 3, 76, 0
5, 118560, Note_on_c, 3, 77, 80
5, 118799, Note_on_c, 3, 77, 0
5, 118800, Note_on_c, 3, 76, 80
5, 119039, Note_on_c, 3, 76, 0
5, 119040, Note_on_c, 3, 69, 80
5, 119040, Note_on_c, 3, 72, 80
5, 119040, Note_on_c, 3, 77, 80
5, 119519, Note_on_c, 3, 69, 0
5, 119519, Note_on_c, 3, 72, 0
5, 119519, Note_on_c, 3, 77, 0
5, 119520, Note_on_c, 3, 77, 80
5, 119759, Note_on_c, 3, 77, 0
5, 119760, Note_on_c, 3, 74, 80
5, 119999, Note_on_c, 3, 74, 0
5, 120000, Note_on_c, 3, 72, 80
5, 120000, Note_on_c, 3, 76, 80
5, 120479, Note_on_c, 3, 72, 0
5, 120479, Note_on_c, 3, 76, 0
5, 120480, Note_on_c, 3, 76, 80
5, 120719, Note_on_c, 3, 76, 0
5, 120720, Note_on_c, 3, 72, 80
5, 120959, Note_on_c, 3, 72, 0
5, 120960, Note_on_c, 3, 65, 80
5, 120960, Note_on_c, 3, 69, 80
5, 120960, Note_on_c, 3, 74, 80
5, 121439, Note_on_c, 3, 65, 0
5, 121439, Note_on_c, 3, 69, 0
5, 121439, Note_on_c, 3, 74, 0
5, 121440, Note_on_c, 3, 65, 80
5, 121440, Note_on_c, 3, 69, 80
5, 121440, Note_on_c, 3, 74, 80
5, 121919, Note_on_c, 3, 65, 0
5, 121919, Note_on_c, 3, 69, 0
5, 121919, Note_on_c, 3, 74, 0
5, 121920, Note_on_c, 3, 65, 80
5, 121920, Note_on_c, 3, 71, 80
5, 121920, Note_on_c, 3, 74, 80
5, 122399, Note_on_c, 3, 65, 0
5, 122399, Note_on_c, 3, 71, 0
5, 122399, Note_on_c, 3, 74, 0
5, 122400, Note_on_c, 3, 65, 80
5, 122400, Note_on_c, 3, 71, 80
5, 122400, Note_on_c, 3, 74, 80
5, 122879, Note_on_c, 3, 65, 0
5, 122879, Note_on_c, 3, 71, 0
5, 122879, Note_on_c, 3, 74, 0
5, 122880, Note_on_c, 3, 65, 80
5, 122880, Note_on_c, 3, 69, 80
5, 123119, Note_on_c, 3, 65, 0
5, 123119, Note_on_c, 3, 69, 0
5, 123120, Note_on_c, 3, 60, 80
5, 123359, Note_on_c, 3, 60, 0
5, 123360, Note_on_c, 3, 65, 80
5, 123360, Note_on_c, 3, 69, 80
5, 123599, Note_on_c, 3, 65, 0
5, 123599, Note_on_c, 3, 69, 0
5, 123600, Note_on_c, 3, 60, 80
5, 123839, Note_on_c, 3, 60, 0
5, 123840, Note_on_c, 3, 67, 80
5, 123840, Note_on_c, 3, 71, 80
5, 124079, Note_on_c, 3, 67, 0
5, 124079, Note_on_c, 3, 71, 0
5, 124080, Note_on_c, 3, 62, 80
5, 124319, Note_on_c, 3, 62, 0
5, 124320, Note_on_c, 3, 67, 80
5, 124320, Note_on_c, 3, 71, 80
5, 124559, Note_on_c, 3, 67, 0
5, 124559, Note_on_c, 3, 71, 0
5, 124560, Note_on_c, 3, 62, 80
5, 124799, Note_on_c, 3, 62, 0
5, 124800, Note_on_c, 3, 64, 80
5, 124800, Note_on_c, 3, 67, 80
5, 125039, Note_on_c, 3, 64, 0
5, 125039, Note_on_c, 3, 67, 0
5, 125040, Note_on_c, 3, 62, 80
5, 125279, Note_on_c, 3, 62, 0
5, 125280, Note_on_c, 3, 64, 80
5, 125280, Note_on_c, 3, 67, 80
5, 125519, Note_on_c, 3, 64, 0
5, 125519, Note_on_c, 3, 67, 0
5, 125520, Note_on_c, 3, 67, 80
5, 125759, Note_on_c, 3, 67, 0
5, 125760, Note_on_c, 3, 69, 80
5, 125760, Note_on_c, 3, 72, 80
5, 125999, Note_on_c, 3, 69, 0
5, 125999, Note_on_c, 3, 72, 0
5, 126000, Note_on_c, 3, 64, 80
5, 126239, Note_on_c, 3, 64, 0
5, 126240, Note_on_c, 3, 69, 80
5, 126240, Note_on_c, 3, 72, 80
5, 126479, Note_on_c, 3, 69, 0
5, 126479, Note_on_c, 3, 72, 0
5, 126480, Note_on_c, 3, 67, 80
5, 126480, Note_on_c, 3, 71, 80
5, 126719, Note_on_c, 3, 67, 0
5, 126719, Note_on_c, 3, 71, 0
5, 126720, Note_on_c, 3, 65, 80
5, 126720, Note_on_c, 3, 69, 80
5, 126959, Note_on_c, 3, 65, 0
5, 126959, Note_on_c, 3, 69, 0
5, 126960, Note_on_c, 3, 60, 80
5, 127199, Note_on_c, 3, 60, 0
5, 127200, Note_on_c, 3, 65, 80
5, 127200, Note_on_c, 3, 69, 80
5, 127439, Note_on_c, 3, 65, 0
5, 127439, Note_on_c, 3, 69, 0
5, 127440, Note_on_c, 3, 60, 80
5, 127679, Note_on_c, 3, 60, 0
5, 127680, Note_on_c, 3, 65, 80
5, 127680, Note_on_c, 3, 69, 80
5, 127919, Note_on_c, 3, 65, 0
5, 127919, Note_on_c, 3, 69, 0
5, 127920, Note_on_c, 3, 60, 80
5, 128159, Note_on_c, 3, 60, 0
5, 128160, Note_on_c, 3, 65, 80
5, 128160, Note_on_c, 3, 69, 80
5, 128399, Note_on_c, 3, 65, 0
5, 128399, Note_on_c, 3, 69, 0
5, 128400, Note_on_c, 3, 60, 80
5, 128639, Note_on_c, 3, 60, 0
5, 128640, Note_on_c, 3, 71, 80
5, 128640, Note_on_c, 3, 74, 80
5, 128879, Note_on_c, 3, 71, 0
5, 128879, Note_on_c, 3, 74, 0
5, 128880, Note_on_c, 3, 67, 80
5, 129119, Note_on_c, 3, 67, 0
5, 129120, Note_on_c, 3, 71, 80
5, 129120, Note_on_c, 3, 74, 80
5, 129359, Note_on_c, 3, 71, 0
5, 129359, Note_on_c, 3, 74, 0
5, 129360, Note_on_c, 3, 67, 80
5, 129599, Note_on_c, 3, 67, 0
5, 129600, Note_on_c, 3, 71, 80
5, 129600, Note_on_c, 3, 74, 80
5, 129839, Note_on_c, 3, 71, 0
5, 129839, Note_on_c, 3, 74, 0
5, 129840, Note_on_c, 3, 67, 80
5, 130079, Note_on_c, 3, 67, 0
5, 130080, Note_on_c, 3, 71, 80
5, 130080, Note_on_c, 3, 74, 80
5, 130319, Note_on_c, 3, 71, 0
5, 130319, Note_on_c, 3, 74, 0
5, 130320, Note_on_c, 3, 67, 80
5, 130559, Note_on_c, 3, 67, 0
5, 130560, Note_on_c, 3, 72, 80
5, 130560, Note_on_c, 3, 76, 80
5, 130799, Note_on_c, 3, 72, 0
5, 130799, Note_on_c, 3, 76, 0
5, 130800, Note_on_c, 3, 67, 80
5, 131039, Note_on_c, 3, 67, 0
5, 131040, Note_on_c, 3, 72, 80
5, 131040, Note_on_c, 3, 76, 80
5, 131279, Note_on_c, 3, 72, 0
5, 131279, Note_on_c, 3, 76, 0
5, 131280, Note_on_c, 3, 67, 80
5, 131519, Note_on_c, 3, 67, 0
5, 131520, Note_on_c, 3, 72, 80
5, 131759, Note_on_c, 3, 72, 0
5, 131760, Note_on_c, 3, 67, 80
5, 131999, Note_on_c, 3, 67, 0
5, 132000, Note_on_c, 3, 76, 80
5, 132239, Note_on_c, 3, 76, 0
5, 132240, Note_on_c, 3, 72, 80
5, 132479, Note_on_c, 3, 72, 0
5, 132480, Note_on_c, 3, 71, 80
5, 132480, Note_on_c, 3, 74, 80
5, 132719, Note_on_c, 3, 71, 0
5, 132719, Note_on_c, 3, 74, 0
5, 132720, Note_on_c, 3, 67, 80
5, 132959, Note_on_c, 3, 67, 0
5, 132960, Note_on_c, 3, 71, 80
5, 132960, Note_on_c, 3, 74, 80
5, 133199, Note_on_c, 3, 71, 0
5, 133199, Note_on_c, 3, 74, 0
5, 133200, Note_on_c, 3, 67, 80
5, 133439, Note_on_c, 3, 67, 0
5, 133440, Note_on_c, 3, 71, 80
5, 133679, Note_on_c, 3, 71, 0
5, 133680, Note_on_c, 3, 67, 80
5, 133919, Note_on_c, 3, 67, 0
5, 133920, Note_on_c, 3, 72, 80
5, 133920, Note_on_c, 3, 76, 80
5, 134159, Note_on_c, 3, 72, 0
5, 134159, Note_on_c, 3, 76, 0
5, 134160, Note_on_c, 3, 71, 80
5, 134160, Note_on_c, 3, 74, 80
5, 134399, Note_on_c, 3, 71, 0
5, 134399, Note_on_c, 3, 74, 0
5, 134400, Note_on_c, 3, 69, 80
5, 134400, Note_on_c, 3, 72, 80
5, 134639, Note_on_c, 3, 69, 0
5, 134639, Note_on_c, 3, 72, 0
5, 134640, Note_on_c, 3, 64, 80
5, 134879, Note_on_c, 3, 64, 0
5, 134880, Note_on_c, 3, 69, 80
5, 134880, Note_on_c, 3, 72, 80
5, 135119, Note_on_c, 3, 69, 0
5, 135119, Note_on_c, 3, 72, 0
5, 135120, Note_on_c, 3, 64, 80
5, 135359, Note_on_c, 3, 64, 0
5, 135360, Note_on_c, 3, 69, 80
5, 135599, Note_on_c, 3, 69, 0
5, 135600, Note_on_c, 3, 64, 80
5, 135839, Note_on_c, 3, 64, 0
5, 135840, Note_on_c, 3, 67, 80
5, 136079, Note_on_c, 3, 67, 0
5, 136080, Note_on_c, 3, 69, 80
5, 136319, Note_on_c, 3, 69, 0
5, 136320, Note_on_c, 3, 71, 80
5, 136320, Note_on_c, 3, 76, 80
5, 136559, Note_on_c, 3, 71, 0
5, 136559, Note_on_c, 3, 76, 0
5, 136560, Note_on_c, 3, 67, 80
5, 136799, Note_on_c, 3, 67, 0
5, 136800, Note_on_c, 3, 71, 80
5, 136800, Note_on_c, 3, 76, 80
5, 137039, Note_on_c, 3, 71, 0
5, 137039, Note_on_c, 3, 76, 0
5, 137040, Note_on_c, 3, 67, 80
5, 137279, Note_on_c, 3, 67, 0
5, 137280, Note_on_c, 3, 71, 80
5, 137519, Note_on_c, 3, 71, 0
5, 137520, Note_on_c, 3, 67, 80
5, 137759, Note_on_c, 3, 67, 0
5, 137760, Note_on_c, 3, 69, 80
5, 137999, Note_on_c, 3, 69, 0
5, 138000, Note_on_c, 3, 67, 80
5, 138239, Note_on_c, 3, 67, 0
5, 138240, Note_on_c, 3, 65, 80
5, 138240, Note_on_c, 3, 69, 80
5, 138479, Note_on_c, 3, 65, 0
5, 138479, Note_on_c, 3, 69, 0
5, 138480, Note_on_c, 3, 60, 80
5, 138719, Note_on_c, 3, 60, 0
5, 138720, Note_on_c, 3, 65, 80
5, 138720, Note_on_c, 3, 69, 80
5, 138959, Note_on_c, 3, 65, 0
5, 138959, Note_on_c, 3, 69, 0
5, 138960, Note_on_c, 3, 60, 80
5, 139199, Note_on_c, 3, 60, 0
5, 139200, Note_on_c, 3, 67, 80
5, 139200, Note_on_c, 3, 71, 80
5, 139439, Note_on_c, 3, 67, 0
5, 139439, Note_on_c, 3, 71, 0
5, 139440, Note_on_c, 3, 62, 80
5, 139679, Note_on_c, 3, 62, 0
5, 139680, Note_on_c, 3, 67, 80
5, 139680, Note_on_c, 3, 71, 80
5, 139919, Note_on_c, 3, 67, 0
5, 139919, Note_on_c, 3, 71, 0
5, 139920, Note_on_c, 3, 62, 80
5, 140159, Note_on_c, 3, 62, 0
5, 140160, Note_on_c, 3, 64, 80
5, 140160, Note_on_c, 3, 67, 80
5, 140399, Note_on_c, 3, 64, 0
5, 140399, Note_on_c, 3, 67, 0
5, 140400, Note_on_c, 3, 62, 80
5, 140639, Note_on_c, 3, 62, 0
5, 140640, Note_on_c, 3, 64, 80
5, 140640, Note_on_c, 3, 67, 80
5, 140879, Note_on_c, 3, 64, 0
5, 140879, Note_on_c, 3, 67, 0
5, 140880, Note_on_c, 3, 67, 80
5, 141119, Note_on_c, 3, 67, 0
5, 141120, Note_on_c, 3, 69, 80
5, 141120, Note_on_c, 3, 72, 80
5, 141359, Note_on_c, 3, 69, 0
5, 141359, Note_on_c, 3, 72, 0
5, 141360, Note_on_c, 3, 64, 80
5, 141599, Note_on_c, 3, 64, 0
5, 141600, Note_on_c, 3, 69, 80
5, 141600, Note_on_c, 3, 72, 80
5, 141839, Note_on_c, 3, 69, 0
5, 141839, Note_on_c, 3, 72, 0
5, 141840, Note_on_c, 3, 67, 80
5, 141840, Note_on_c, 3, 71, 80
5, 142079, Note_on_c, 3, 67, 0
5, 142079, Note_on_c, 3, 71, 0
5, 142080, Note_on_c, 3, 65, 80
5, 142080, Note_on_c, 3, 69, 80
5, 142080, Note_on_c, 3, 50, 80
5, 142319, Note_on_c, 3, 65, 0
5, 142319, Note_on_c, 3, 69, 0
5, 142320, Note_on_c, 3, 64, 80
5, 142559, Note_on_c, 3, 64, 0
5, 142560, Note_on_c, 3, 65, 80
5, 142560, Note_on_c, 3, 69, 80
5, 142799, Note_on_c, 3, 65, 0
5, 142799, Note_on_c, 3, 69, 0
5, 142800, Note_on_c, 3, 64, 80
5, 143039, Note_on_c, 3, 50, 0
5, 143039, Note_on_c, 3, 64, 0
5, 143040, Note_on_c, 3, 67, 80
5, 143040, Note_on_c, 3, 71, 80
5, 143040, Note_on_c, 3, 55, 80
5, 143279, Note_on_c, 3, 67, 0
5, 143279, Note_on_c, 3, 71, 0
5, 143280, Note_on_c, 3, 62, 80
5, 143519, Note_on_c, 3, 62, 0
5, 143520, Note_on_c, 3, 67, 80
5, 143520, Note_on_c, 3, 71, 80
5, 143759, Note_on_c, 3, 67, 0
5, 143759, Note_on_c, 3, 71, 0
5, 143760, Note_on_c, 3, 62, 80
5, 143999, Note_on_c, 3, 55, 0
5, 143999, Note_on_c, 3, 62, 0
5, 144000, Note_on_c, 3, 72, 80
5, 144000, Note_on_c, 3, 76, 80
5, 144239, Note_on_c, 3, 72, 0
5, 144239, Note_on_c, 3, 76, 0
5, 144240, Note_on_c, 3, 67, 80
5, 144479, Note_on_c, 3, 67, 0
5, 144480, Note_on_c, 3, 72, 80
5, 144480, Note_on_c, 3, 76, 80
5, 144719, Note_on_c, 3, 72, 0
5, 144719, Note_on_c, 3, 76, 0
5, 144720, Note_on_c, 3, 67, 80
5, 144959, Note_on_c, 3, 67, 0
5, 144960, Note_on_c, 3, 72, 80
5, 144960, Note_on_c, 3, 76, 80
5, 145199, Note_on_c, 3, 72, 0
5, 145199, Note_on_c, 3, 76, 0
5, 145200, Note_on_c, 3, 67, 80
5, 145439, Note_on_c, 3, 67, 0
5, 145440, Note_on_c, 3, 71, 80
5, 145440, Note_on_c, 3, 74, 80
5, 145679, Note_on_c, 3, 71, 0
5, 145679, Note_on_c, 3, 74, 0
5, 145680, Note_on_c, 3, 67, 80
5, 145919, Note_on_c, 3, 67, 0
5, 145920, Note_on_c, 3, 72, 80
5, 145920, Note_on_c, 3, 76, 80
5, 146159, Note_on_c, 3, 72, 0
5, 146159, Note_on_c, 3, 76, 0
5, 146160, Note_on_c, 3, 67, 80
5, 146399, Note_on_c, 3, 67, 0
5, 146400, Note_on_c, 3, 72, 80
5, 146400, Note_on_c, 3, 76, 80
5, 146639, Note_on_c, 3, 72, 0
5, 146639, Note_on_c, 3, 76, 0
5, 146640, Note_on_c, 3, 67, 80
5, 146879, Note_on_c, 3, 67, 0
5, 146880, Note_on_c, 3, 72, 80
5, 147119, Note_on_c, 3, 72, 0
5, 147120, Note_on_c, 3, 67, 80
5, 147359, Note_on_c, 3, 67, 0
5, 147360, Note_on_c, 3, 76, 80
5, 147599, Note_on_c, 3, 76, 0
5, 147600, Note_on_c, 3, 72, 80
5, 147839, Note_on_c, 3, 72, 0
5, 147840, Note_on_c, 3, 71, 80
5, 147840, Note_on_c, 3, 74, 80
5, 148079, Note_on_c, 3, 71, 0
5, 148079, Note_on_c, 3, 74, 0
5, 148080, Note_on_c, 3, 67, 80
5, 148319, Note_on_c, 3, 67, 0
5, 148320, Note_on_c, 3, 71, 80
5, 148320, Note_on_c, 3, 74, 80
5, 148559, Note_on_c, 3, 71, 0
5, 148559, Note_on_c, 3, 74, 0
5, 148560, Note_on_c, 3, 67, 80
5, 148799, Note_on_c, 3, 67, 0
5, 148800, Note_on_c, 3, 71, 80
5, 149039, Note_on_c, 3, 71, 0
5, 149040, Note_on_c, 3, 67, 80
5, 149279, Note_on_c, 3, 67, 0
5, 149280, Note_on_c, 3, 72, 80
5, 149280, Note_on_c, 3, 76, 80
5, 149519, Note_on_c, 3, 72, 0
5, 149519, Note_on_c, 3, 76, 0
5, 149520, Note_on_c, 3, 71, 80
5, 149520, Note_on_c, 3, 74, 80
5, 149759, Note_on_c, 3, 71, 0
5, 149759, Note_on_c, 3, 74, 0
5, 149760, Note_on_c, 3, 69, 80
5, 149760, Note_on_c, 3, 72, 80
5, 149999, Note_on_c, 3, 69, 0
5, 149999, Note_on_c, 3, 72, 0
5, 150000, Note_on_c, 3, 64, 80
5, 150239, Note_on_c, 3, 64, 0
5, 150240, Note_on_c, 3, 69, 80
5, 150240, Note_on_c, 3, 72, 80
5, 150479, Note_on_c, 3, 69, 0
5, 150479, Note_on_c, 3, 72, 0
5, 150480, Note_on_c, 3, 64, 80
5, 150719, Note_on_c, 3, 64, 0
5, 150720, Note_on_c, 3, 69, 80
5, 150959, Note_on_c, 3, 69, 0
5, 150960, Note_on_c, 3, 64, 80
5, 151199, Note_on_c, 3, 64, 0
5, 151200, Note_on_c, 3, 67, 80
5, 151439, Note_on_c, 3, 67, 0
5, 151440, Note_on_c, 3, 69, 80
5, 151679, Note_on_c, 3, 69, 0
5, 151680, Note_on_c, 3, 71, 80
5, 151680, Note_on_c, 3, 76, 80
5, 151919, Note_on_c, 3, 71, 0
5, 151919, Note_on_c, 3, 76, 0
5, 151920, Note_on_c, 3, 67, 80
5, 152159, Note_on_c, 3, 67, 0
5, 152160, Note_on_c, 3, 71, 80
5, 152160, Note_on_c, 3, 76, 80
5, 152399, Note_on_c, 3, 71, 0
5, 152399, Note_on_c, 3, 76, 0
5, 152400, Note_on_c, 3, 67, 80
5, 152639, Note_on_c, 3, 67, 0
5, 152640, Note_on_c, 3, 71, 80
5, 152879, Note_on_c, 3, 71, 0
5, 152880, Note_on_c, 3, 67, 80
5, 153119, Note_on_c, 3, 67, 0
5, 153120, Note_on_c, 3, 69, 80
5, 153359, Note_on_c, 3, 69, 0
5, 153360, Note_on_c, 3, 67, 80
5, 153599, Note_on_c, 3, 67, 0
5, 153600, Note_on_c, 3, 65, 80
5, 153600, Note_on_c, 3, 69, 80
5, 153839, Note_on_c, 3, 65, 0
5, 153839, Note_on_c, 3, 69, 0
5, 153840, Note_on_c, 3, 60, 80
5, 154079, Note_on_c, 3, 60, 0
5, 154080, Note_on_c, 3, 65, 80
5, 154080, Note_on_c, 3, 69, 80
5, 154319, Note_on_c, 3, 65, 0
5, 154319, Note_on_c, 3, 69, 0
5, 154320, Note_on_c, 3, 60, 80
5, 154559, Note_on_c, 3, 60, 0
5, 154560, Note_on_c, 3, 67, 80
5, 154560, Note_on_c, 3, 71, 80
5, 154799, Note_on_c, 3, 67, 0
5, 154799, Note_on_c, 3, 71, 0
5, 154800, Note_on_c, 3, 62, 80
5, 155039, Note_on_c, 3, 62, 0
5, 155040, Note_on_c, 3, 67, 80
5, 155040, Note_on_c, 3, 71, 80
5, 155279, Note_on_c, 3, 67, 0
5, 155279, Note_on_c, 3, 71, 0
5, 155280, Note_on_c, 3, 62, 80
5, 155519, Note_on_c, 3, 62, 0
5, 155520, Note_on_c, 3, 64, 80
5, 155520, Note_on_c, 3, 67, 80
5, 155759, Note_on_c, 3, 64, 0
5, 155759, Note_on_c, 3, 67, 0
5, 155760, Note_on_c, 3, 62, 80
5, 155999, Note_on_c, 3, 62, 0
5, 156000, Note_on_c, 3, 64, 80
5, 156000, Note_on_c, 3, 67, 80
5, 156239, Note_on_c, 3, 64, 0
5, 156239, Note_on_c, 3, 67, 0
5, 156240, Note_on_c, 3, 67, 80
5, 156479, Note_on_c, 3, 67, 0
5, 156480, Note_on_c, 3, 69, 80
5, 156480, Note_on_c, 3, 72, 80
5, 156719, Note_on_c, 3, 69, 0
5, 156719, Note_on_c, 3, 72, 0
5, 156720, Note_on_c, 3, 64, 80
5, 156959, Note_on_c, 3, 64, 0
5, 156960, Note_on_c, 3, 69, 80
5, 156960, Note_on_c, 3, 72, 80
5, 157199, Note_on_c, 3, 69, 0
5, 157199, Note_on_c, 3, 72, 0
5, 157200, Note_on_c, 3, 67, 80
5, 157200, Note_on_c, 3, 71, 80
5, 157439, Note_on_c, 3, 67, 0
5, 157439, Note_on_c, 3, 71, 0
5, 157440, Note_on_c, 3, 65, 80
5, 157440, Note_on_c, 3, 69, 80
5, 157679, Note_on_c, 3, 65, 0
5, 157679, Note_on_c, 3, 69, 0
5, 157680, Note_on_c, 3, 64, 80
5, 157919, Note_on_c, 3, 64, 0
5, 157920, Note_on_c, 3, 65, 80
5, 157920, Note_on_c, 3, 69, 80
5, 158159, Note_on_c, 3, 65, 0
5, 158159, Note_on_c, 3, 69, 0
5, 158160, Note_on_c, 3, 64, 80
5, 158399, Note_on_c, 3, 64, 0
5, 158400, Note_on_c, 3, 67, 80
5, 158400, Note_on_c, 3, 71, 80
5, 158639, Note_on_c, 3, 67, 0
5, 158639, Note_on_c, 3, 71, 0
5, 158640, Note_on_c, 3, 62, 80
5, 158879, Note_on_c, 3, 62, 0
5, 158880, Note_on_c, 3, 67, 80
5, 158880, Note_on_c, 3, 71, 80
5, 159119, Note_on_c, 3, 67, 0
5, 159119, Note_on_c, 3, 71, 0
5, 159120, Note_on_c, 3, 62, 80
5, 159359, Note_on_c, 3, 62, 0
5, 159360, Note_on_c, 3, 72, 80
5, 159360, Note_on_c, 3, 76, 80
5, 159599, Note_on_c, 3, 72, 0
5, 159599, Note_on_c, 3, 76, 0
5, 159600, Note_on_c, 3, 67, 80
5, 159839, Note_on_c, 3, 67, 0
5, 159840, Note_on_c, 3, 72, 80
5, 159840, Note_on_c, 3, 76, 80
5, 160079, Note_on_c, 3, 72, 0
5, 160079, Note_on_c, 3, 76, 0
5, 160080, Note_on_c, 3, 67, 80
5, 160319, Note_on_c, 3, 67, 0
5, 160320, Note_on_c, 3, 72, 80
5, 160320, Note_on_c, 3, 76, 80
5, 160559, Note_on_c, 3, 72, 0
5, 160559, Note_on_c, 3, 76, 0
5, 160560, Note_on_c, 3, 67, 80
5, 160799, Note_on_c, 3, 67, 0
5, 160800, Note_on_c, 3, 72, 80
5, 160800, Note_on_c, 3, 76, 80
5, 161039, Note_on_c, 3, 72, 0
5, 161039, Note_on_c, 3, 76, 0
5, 161040, Note_on_c, 3, 74, 80
5, 161040, Note_on_c, 3, 77, 80
5, 161279, Note_on_c, 3, 74, 0
5, 161279, Note_on_c, 3, 77, 0
5, 161280, Note_on_c, 3, 72, 80
5, 161280, Note_on_c, 3, 76, 80
5, 161519, Note_on_c, 3, 72, 0
5, 161519, Note_on_c, 3, 76, 0
5, 161520, Note_on_c, 3, 67, 80
5, 161759, Note_on_c, 3, 67, 0
5, 161760, Note_on_c, 3, 72, 80
5, 161760, Note_on_c, 3, 76, 80
5, 161999, Note_on_c, 3, 72, 0
5, 161999, Note_on_c, 3, 76, 0
5, 162000, Note_on_c, 3, 67, 80
5, 162239, Note_on_c, 3, 67, 0
5, 162240, Note_on_c, 3, 72, 80
5, 162240, Note_on_c, 3, 76, 80
5, 162479, Note_on_c, 3, 72, 0
5, 162479, Note_on_c, 3, 76, 0
5, 162480, Note_on_c, 3, 67, 80
5, 162719, Note_on_c, 3, 67, 0
5, 162720, Note_on_c, 3, 72, 80
5, 162720, Note_on_c, 3, 76, 80
5, 162959, Note_on_c, 3, 72, 0
5, 162959, Note_on_c, 3, 76, 0
5, 162960, Note_on_c, 3, 67, 80
5, 163199, Note_on_c, 3, 67, 0
5, 163200, Note_on_c, 3, 65, 80
5, 163200, Note_on_c, 3, 69, 80
5, 163439, Note_on_c, 3, 65, 0
5, 163439, Note_on_c, 3, 69, 0
5, 163440, Note_on_c, 3, 60, 80
5, 163679, Note_on_c, 3, 60, 0
5, 163680, Note_on_c, 3, 65, 80
5, 163680, Note_on_c, 3, 69, 80
5, 163919, Note_on_c, 3, 65, 0
5, 163919, Note_on_c, 3, 69, 0
5, 163920, Note_on_c, 3, 60, 80
5, 164159, Note_on_c, 3, 60, 0
5, 164160, Note_on_c, 3, 65, 80
5, 164160, Note_on_c, 3, 69, 80
5, 164399, Note_on_c, 3, 65, 0
5, 164399, Note_on_c, 3, 69, 0
5, 164400, Note_on_c, 3, 60, 80
5, 164639, Note_on_c, 3, 60, 0
5, 164640, Note_on_c, 3, 65, 80
5, 164640, Note_on_c, 3, 69, 80
5, 164879, Note_on_c, 3, 65, 0
5, 164879, Note_on_c, 3, 69, 0
5, 164880, Note_on_c, 3, 60, 80
5, 165119, Note_on_c, 3, 60, 0
5, 165120, Note_on_c, 3, 65, 80
5, 165120, Note_on_c, 3, 69, 80
5, 165359, Note_on_c, 3, 65, 0
5, 165359, Note_on_c, 3, 69, 0
5, 165360, Note_on_c, 3, 64, 80
5, 165599, Note_on_c, 3, 64, 0
5, 165600, Note_on_c, 3, 65, 80
5, 165600, Note_on_c, 3, 69, 80
5, 165839, Note_on_c, 3, 65, 0
5, 165839, Note_on_c, 3, 69, 0
5, 165840, Note_on_c, 3, 64, 80
5, 166079, Note_on_c, 3, 64, 0
5, 166080, Note_on_c, 3, 67, 80
5, 166080, Note_on_c, 3, 71, 80
5, 166319, Note_on_c, 3, 67, 0
5, 166319, Note_on_c, 3, 71, 0
5, 166320, Note_on_c, 3, 62, 80
5, 166559, Note_on_c, 3, 62, 0
5, 166560, Note_on_c, 3, 67, 80
5, 166560, Note_on_c, 3, 71, 80
5, 166799, Note_on_c, 3, 67, 0
5, 166799, Note_on_c, 3, 71, 0
5, 166800, Note_on_c, 3, 62, 80
5, 167039, Note_on_c, 3, 62, 0
5, 167040, Note_on_c, 3, 65, 80
5, 167040, Note_on_c, 3, 69, 80
5, 167279, Note_on_c, 3, 65, 0
5, 167279, Note_on_c, 3, 69, 0
5, 167280, Note_on_c, 3, 60, 80
5, 167519, Note_on_c, 3, 60, 0
5, 167520, Note_on_c, 3, 65, 80
5, 167520, Note_on_c, 3, 69, 80
5, 167759, Note_on_c, 3, 65, 0
5, 167759, Note_on_c, 3, 69, 0
5, 167760, Note_on_c, 3, 60, 80
5, 167999, Note_on_c, 3, 60, 0
5, 168000, Note_on_c, 3, 72, 80
5, 168000, Note_on_c, 3, 76, 80
5, 168239, Note_on_c, 3, 72, 0
5, 168239, Note_on_c, 3, 76, 0
5, 168240, Note_on_c, 3, 67, 80
5, 168479, Note_on_c, 3, 67, 0
5, 168480, Note_on_c, 3, 72, 80
5, 168480, Note_on_c, 3, 76, 80
5, 168719, Note_on_c, 3, 72, 0
5, 168719, Note_on_c, 3, 76, 0
5, 168720, Note_on_c, 3, 67, 80
5, 168959, Note_on_c, 3, 67, 0
5, 168960, Note_on_c, 3, 72, 80
5, 168960, Note_on_c, 3, 76, 80
5, 169199, Note_on_c, 3, 72, 0
5, 169199, Note_on_c, 3, 76, 0
5, 169200, Note_on_c, 3, 67, 80
5, 169439, Note_on_c, 3, 67, 0
5, 169440, Note_on_c, 3, 72, 80
5, 169440, Note_on_c, 3, 76, 80
5, 169679, Note_on_c, 3, 72, 0
5, 169679, Note_on_c, 3, 76, 0
5, 169680, Note_on_c, 3, 67, 80
5, 169919, Note_on_c, 3, 67, 0
5, 169920, Note_on_c, 3, 67, 80
5, 169920, Note_on_c, 3, 72, 80
5, 169920, Note_on_c, 3, 76, 80
5, 170879, Note_on_c, 3, 67, 0
5, 170879, Note_on_c, 3, 72, 0
5, 170879, Note_on_c, 3, 76, 0
5, 170880, End_track
0, 0, End_of_file
