0, 0, Header, 1, 5, 480
1, 0, Start_track
1, 0, Title_t, "Piano, Piano\000"
1, 0, Time_signature, 4, 2, 24, 8
1, 0, Key_signature, 0, "major"
1, 0, Tempo, 545455
1, 0, Control_c, 1, 121, 0
1, 0, Program_c, 1, 0
1, 0, Control_c, 1, 7, 100
1, 0, Control_c, 1, 10, 64
1, 0, Control_c, 1, 91, 0
1, 0, Control_c, 1, 93, 0
1, 0, MIDI_port, 0
1, 0, Note_on_c, 1, 74, 80
1, 239, Note_on_c, 1, 74, 0
1, 480, Note_on_c, 1, 74, 80
1, 707, Note_on_c, 1, 74, 0
1, 720, Note_on_c, 1, 74, 80
1, 947, Note_on_c, 1, 74, 0
1, 960, Note_on_c, 1, 72, 80
1, 1199, Note_on_c, 1, 72, 0
1, 1440, Note_on_c, 1, 72, 80
1, 1667, Note_on_c, 1, 72, 0
1, 1680, Note_on_c, 1, 72, 80
1, 1907, Note_on_c, 1, 72, 0
1, 1920, Note_on_c, 1, 74, 80
1, 2147, Note_on_c, 1, 74, 0
1, 2160, Note_on_c, 1, 74, 80
1, 2387, Note_on_c, 1, 74, 0
1, 2640, Note_on_c, 1, 72, 80
1, 2867, Note_on_c, 1, 72, 0
1, 3120, Note_on_c, 1, 74, 80
1, 3347, Note_on_c, 1, 74, 0
1, 3360, Note_on_c, 1, 76, 80
1, 3599, Note_on_c, 1, 76, 0
1, 3840, Note_on_c, 1, 74, 80
1, 4079, Note_on_c, 1, 74, 0
1, 4320, Note_on_c, 1, 74, 80
1, 4547, Note_on_c, 1, 74, 0
1, 4560, Note_on_c, 1, 74, 80
1, 4787, Note_on_c, 1, 74, 0
1, 4800, Note_on_c, 1, 72, 80
1, 5039, Note_on_c, 1, 72, 0
1, 5280, Note_on_c, 1, 72, 80
1, 5507, Note_on_c, 1, 72, 0
1, 5520, Note_on_c, 1, 72, 80
1, 5747, Note_on_c, 1, 72, 0
1, 5760, Note_on_c, 1, 74, 80
1, 5987, Note_on_c, 1, 74, 0
1, 6000, Note_on_c, 1, 74, 80
1, 6227, Note_on_c, 1, 74, 0
1, 6480, Note_on_c, 1, 72, 80
1, 6707, Note_on_c, 1, 72, 0
1, 6960, Note_on_c, 1, 72, 80
1, 7187, Note_on_c, 1, 72, 0
1, 7200, Note_on_c, 1, 74, 80
1, 7427, Note_on_c, 1, 74, 0
1, 7440, Note_on_c, 1, 76, 80
1, 7667, Note_on_c, 1, 76, 0
1, 7680, Note_on_c, 1, 72, 80
1, 7680, Note_on_c, 1, 79, 80
1, 7919, Note_on_c, 1, 72, 0
1, 7919, Note_on_c, 1, 79, 0
1, 8160, Note_on_c, 1, 72, 80
1, 8160, Note_on_c, 1, 79, 80
1, 8387, Note_on_c, 1, 72, 0
1, 8387, Note_on_c, 1, 79, 0
1, 8400, Note_on_c, 1, 72, 80
1, 8400, Note_on_c, 1, 79, 80
1, 8627, Note_on_c, 1, 72, 0
1, 8627, Note_on_c, 1, 79, 0
1, 8640, Note_on_c, 1, 74, 80
1, 8640, Note_on_c, 1, 77, 80
1, 8879, Note_on_c, 1, 74, 0
1, 8879, Note_on_c, 1, 77, 0
1, 9120, Note_on_c, 1, 72, 80
1, 9120, Note_on_c, 1, 76, 80
1, 9347, Note_on_c, 1, 72, 0
1, 9347, Note_on_c, 1, 76, 0
1, 9360, Note_on_c, 1, 72, 80
1, 9360, Note_on_c, 1, 77, 80
1, 9587, Note_on_c, 1, 72, 0
1, 9587, Note_on_c, 1, 77, 0
1, 9600, Note_on_c, 1, 72, 80
1, 9600, Note_on_c, 1, 76, 80
1, 9827, Note_on_c, 1, 72, 0
1, 9827, Note_on_c, 1, 76, 0
1, 9840, Note_on_c, 1, 72, 80
1, 9840, Note_on_c, 1, 76, 80
1, 10067, Note_on_c, 1, 72, 0
1, 10067, Note_on_c, 1, 76, 0
1, 10320, Note_on_c, 1, 72, 80
1, 10320, Note_on_c, 1, 74, 80
1, 10547, Note_on_c, 1, 72, 0
1, 10547, Note_on_c, 1, 74, 0
1, 10800, Note_on_c, 1, 72, 80
1, 10800, Note_on_c, 1, 76, 80
1, 11027, Note_on_c, 1, 72, 0
1, 11027, Note_on_c, 1, 76, 0
1, 11040, Note_on_c, 1, 72, 80
1, 11040, Note_on_c, 1, 77, 80
1, 11279, Note_on_c, 1, 72, 0
1, 11279, Note_on_c, 1, 77, 0
1, 11520, Note_on_c, 1, 76, 80
1, 11759, Note_on_c, 1, 76, 0
1, 12000, Note_on_c, 1, 76, 80
1, 12227, Note_on_c, 1, 76, 0
1, 12240, Note_on_c, 1, 76, 80
1, 12467, Note_on_c, 1, 76, 0
1, 12480, Note_on_c, 1, 74, 80
1, 12719, Note_on_c, 1, 74, 0
1, 12960, Note_on_c, 1, 72, 80
1, 13187, Note_on_c, 1, 72, 0
1, 13200, Note_on_c, 1, 74, 80
1, 13427, Note_on_c, 1, 74, 0
1, 13440, Note_on_c, 1, 76, 80
1, 13667, Note_on_c, 1, 76, 0
1, 13680, Note_on_c, 1, 76, 80
1, 13907, Note_on_c, 1, 76, 0
1, 14160, Note_on_c, 1, 74, 80
1, 14387, Note_on_c, 1, 74, 0
1, 14640, Note_on_c, 1, 76, 80
1, 14867, Note_on_c, 1, 76, 0
1, 14880, Note_on_c, 1, 74, 80
1, 15107, Note_on_c, 1, 74, 0
1, 15120, Note_on_c, 1, 72, 80
1, 15347, Note_on_c, 1, 72, 0
1, 15360, Note_on_c, 1, 74, 80
1, 15599, Note_on_c, 1, 74, 0
1, 15840, Note_on_c, 1, 74, 80
1, 16067, Note_on_c, 1, 74, 0
1, 16080, Note_on_c, 1, 74, 80
1, 16307, Note_on_c, 1, 74, 0
1, 16320, Note_on_c, 1, 72, 80
1, 16559, Note_on_c, 1, 72, 0
1, 16800, Note_on_c, 1, 72, 80
1, 17027, Note_on_c, 1, 72, 0
1, 17040, Note_on_c, 1, 72, 80
1, 17267, Note_on_c, 1, 72, 0
1, 17280, Note_on_c, 1, 74, 80
1, 17507, Note_on_c, 1, 74, 0
1, 17520, Note_on_c, 1, 74, 80
1, 17747, Note_on_c, 1, 74, 0
1, 18000, Note_on_c, 1, 72, 80
1, 18227, Note_on_c, 1, 72, 0
1, 18480, Note_on_c, 1, 74, 80
1, 18707, Note_on_c, 1, 74, 0
1, 18720, Note_on_c, 1, 76, 80
1, 18959, Note_on_c, 1, 76, 0
1, 19200, Note_on_c, 1, 74, 80
1, 19439, Note_on_c, 1, 74, 0
1, 19680, Note_on_c, 1, 74, 80
1, 19907, Note_on_c, 1, 74, 0
1, 19920, Note_on_c, 1, 74, 80
1, 20147, Note_on_c, 1, 74, 0
1, 20160, Note_on_c, 1, 72, 80
1, 20399, Note_on_c, 1, 72, 0
1, 20640, Note_on_c, 1, 72, 80
1, 20867, Note_on_c, 1, 72, 0
1, 20880, Note_on_c, 1, 72, 80
1, 21107, Note_on_c, 1, 72, 0
1, 21120, Note_on_c, 1, 74, 80
1, 21347, Note_on_c, 1, 74, 0
1, 21360, Note_on_c, 1, 74, 80
1, 21587, Note_on_c, 1, 74, 0
1, 21840, Note_on_c, 1, 72, 80
1, 22067, Note_on_c, 1, 72, 0
1, 22320, Note_on_c, 1, 72, 80
1, 22547, Note_on_c, 1, 72, 0
1, 22560, Note_on_c, 1, 74, 80
1, 22787, Note_on_c, 1, 74, 0
1, 22800, Note_on_c, 1, 76, 80
1, 23027, Note_on_c, 1, 76, 0
1, 23040, Note_on_c, 1, 72, 80
1, 23040, Note_on_c, 1, 79, 80
1, 23279, Note_on_c, 1, 72, 0
1, 23279, Note_on_c, 1, 79, 0
1, 23520, Note_on_c, 1, 72, 80
1, 23520, Note_on_c, 1, 79, 80
1, 23747, Note_on_c, 1, 72, 0
1, 23747, Note_on_c, 1, 79, 0
1, 23760, Note_on_c, 1, 72, 80
1, 23760, Note_on_c, 1, 79, 80
1, 23987, Note_on_c, 1, 72, 0
1, 23987, Note_on_c, 1, 79, 0
1, 24000, Note_on_c, 1, 74, 80
1, 24000, Note_on_c, 1, 77, 80
1, 24239, Note_on_c, 1, 74, 0
1, 24239, Note_on_c, 1, 77, 0
1, 24480, Note_on_c, 1, 72, 80
1, 24480, Note_on_c, 1, 76, 80
1, 24707, Note_on_c, 1, 72, 0
1, 24707, Note_on_c, 1, 76, 0
1, 24720, Note_on_c, 1, 72, 80
1, 24720, Note_on_c, 1, 77, 80
1, 24947, Note_on_c, 1, 72, 0
1, 24947, Note_on_c, 1, 77, 0
1, 24960, Note_on_c, 1, 72, 80
1, 24960, Note_on_c, 1, 76, 80
1, 25187, Note_on_c, 1, 72, 0
1, 25187, Note_on_c, 1, 76, 0
1, 25200, Note_on_c, 1, 72, 80
1, 25200, Note_on_c, 1, 77, 80
1, 25427, Note_on_c, 1, 72, 0
1, 25427, Note_on_c, 1, 77, 0
1, 25680, Note_on_c, 1, 72, 80
1, 25680, Note_on_c, 1, 74, 80
1, 25907, Note_on_c, 1, 72, 0
1, 25907, Note_on_c, 1, 74, 0
1, 26160, Note_on_c, 1, 72, 80
1, 26160, Note_on_c, 1, 76, 80
1, 26387, Note_on_c, 1, 72, 0
1, 26387, Note_on_c, 1, 76, 0
1, 26400, Note_on_c, 1, 72, 80
1, 26400, Note_on_c, 1, 77, 80
1, 26639, Note_on_c, 1, 72, 0
1, 26639, Note_on_c, 1, 77, 0
1, 26880, Note_on_c, 1, 76, 80
1, 27119, Note_on_c, 1, 76, 0
1, 27360, Note_on_c, 1, 76, 80
1, 27587, Note_on_c, 1, 76, 0
1, 27600, Note_on_c, 1, 76, 80
1, 27827, Note_on_c, 1, 76, 0
1, 27840, Note_on_c, 1, 74, 80
1, 28079, Note_on_c, 1, 74, 0
1, 28320, Note_on_c, 1, 72, 80
1, 28547, Note_on_c, 1, 72, 0
1, 28560, Note_on_c, 1, 74, 80
1, 28787, Note_on_c, 1, 74, 0
1, 28800, Note_on_c, 1, 76, 80
1, 29027, Note_on_c, 1, 76, 0
1, 29040, Note_on_c, 1, 76, 80
1, 29267, Note_on_c, 1, 76, 0
1, 29520, Note_on_c, 1, 74, 80
1, 29747, Note_on_c, 1, 74, 0
1, 30000, Note_on_c, 1, 76, 80
1, 30227, Note_on_c, 1, 76, 0
1, 30240, Note_on_c, 1, 74, 80
1, 30467, Note_on_c, 1, 74, 0
1, 30480, Note_on_c, 1, 72, 80
1, 30707, Note_on_c, 1, 72, 0
1, 30720, Note_on_c, 1, 76, 80
1, 31403, Note_on_c, 1, 76, 0
1, 31440, Note_on_c, 1, 76, 80
1, 31440, Note_on_c, 1, 72, 80
1, 31667, Note_on_c, 1, 72, 0
1, 32351, Note_on_c, 1, 76, 0
1, 32640, Note_on_c, 1, 76, 80
1, 33551, Note_on_c, 1, 76, 0
1, 34080, Note_on_c, 1, 76, 80
1, 34535, Note_on_c, 1, 76, 0
1, 34560, Note_on_c, 1, 76, 80
1, 35243, Note_on_c, 1, 76, 0
1, 35280, Note_on_c, 1, 76, 80
1, 35280, Note_on_c, 1, 72, 80
1, 35507, Note_on_c, 1, 72, 0
1, 36191, Note_on_c, 1, 76, 0
1, 36480, Note_on_c, 1, 76, 80
1, 37391, Note_on_c, 1, 76, 0
1, 37920, Note_on_c, 1, 76, 80
1, 38375, Note_on_c, 1, 76, 0
1, 38400, Note_on_c, 1, 77, 80
1, 39083, Note_on_c, 1, 77, 0
1, 39120, Note_on_c, 1, 77, 80
1, 39120, Note_on_c, 1, 74, 80
1, 39347, Note_on_c, 1, 74, 0
1, 40031, Note_on_c, 1, 77, 0
1, 40320, Note_on_c, 1, 76, 80
1, 41003, Note_on_c, 1, 76, 0
1, 41040, Note_on_c, 1, 76, 80
1, 41951, Note_on_c, 1, 76, 0
1, 42240, Note_on_c, 1, 74, 80
1, 42923, Note_on_c, 1, 74, 0
1, 42960, Note_on_c, 1, 74, 80
1, 43871, Note_on_c, 1, 74, 0
1, 44160, Note_on_c, 1, 74, 80
1, 44843, Note_on_c, 1, 74, 0
1, 44880, Note_on_c, 1, 74, 80
1, 45791, Note_on_c, 1, 74, 0
1, 46080, Note_on_c, 1, 76, 80
1, 46319, Note_on_c, 1, 76, 0
1, 46560, Note_on_c, 1, 74, 80
1, 46787, Note_on_c, 1, 74, 0
1, 46800, Note_on_c, 1, 74, 80
1, 47027, Note_on_c, 1, 74, 0
1, 47040, Note_on_c, 1, 74, 80
1, 47267, Note_on_c, 1, 74, 0
1, 47280, Note_on_c, 1, 72, 80
1, 47399, Note_on_c, 1, 72, 0
1, 47760, Note_on_c, 1, 76, 80
1, 47987, Note_on_c, 1, 76, 0
1, 48000, Note_on_c, 1, 74, 80
1, 48227, Note_on_c, 1, 74, 0
1, 48240, Note_on_c, 1, 76, 80
1, 48467, Note_on_c, 1, 76, 0
1, 48480, Note_on_c, 1, 74, 80
1, 48707, Note_on_c, 1, 74, 0
1, 48720, Note_on_c, 1, 76, 80
1, 48947, Note_on_c, 1, 76, 0
1, 48960, Note_on_c, 1, 74, 80
1, 49415, Note_on_c, 1, 74, 0
1, 49440, Note_on_c, 1, 76, 80
1, 49895, Note_on_c, 1, 76, 0
1, 49920, Note_on_c, 1, 76, 80
1, 51287, Note_on_c, 1, 76, 0
1, 51600, Note_on_c, 1, 74, 80
1, 52055, Note_on_c, 1, 74, 0
1, 52080, Note_on_c, 1, 76, 80
1, 52307, Note_on_c, 1, 76, 0
1, 52320, Note_on_c, 1, 74, 80
1, 52547, Note_on_c, 1, 74, 0
1, 52560, Note_on_c, 1, 76, 80
1, 52787, Note_on_c, 1, 76, 0
1, 52800, Note_on_c, 1, 74, 80
1, 53255, Note_on_c, 1, 74, 0
1, 53280, Note_on_c, 1, 76, 80
1, 53735, Note_on_c, 1, 76, 0
1, 53760, Note_on_c, 1, 74, 80
1, 54671, Note_on_c, 1, 74, 0
1, 54960, Note_on_c, 1, 76, 80
1, 55187, Note_on_c, 1, 76, 0
1, 55200, Note_on_c, 1, 76, 80
1, 55427, Note_on_c, 1, 76, 0
1, 55440, Note_on_c, 1, 79, 80
1, 55895, Note_on_c, 1, 79, 0
1, 55920, Note_on_c, 1, 77, 80
1, 56147, Note_on_c, 1, 77, 0
1, 56160, Note_on_c, 1, 76, 80
1, 56387, Note_on_c, 1, 76, 0
1, 56400, Note_on_c, 1, 77, 80
1, 57425, Note_on_c, 1, 77, 0
1, 57600, Note_on_c, 1, 74, 80
1, 59423, Note_on_c, 1, 74, 0
1, 59520, Note_on_c, 1, 74, 80
1, 60203, Note_on_c, 1, 74, 0
1, 60240, Note_on_c, 1, 76, 80
1, 60467, Note_on_c, 1, 76, 0
1, 60480, Note_on_c, 1, 77, 80
1, 60935, Note_on_c, 1, 77, 0
1, 60960, Note_on_c, 1, 79, 80
1, 61415, Note_on_c, 1, 79, 0
1, 61440, Note_on_c, 1, 74, 80
1, 61679, Note_on_c, 1, 74, 0
1, 61920, Note_on_c, 1, 74, 80
1, 62147, Note_on_c, 1, 74, 0
1, 62160, Note_on_c, 1, 74, 80
1, 62387, Note_on_c, 1, 74, 0
1, 62400, Note_on_c, 1, 72, 80
1, 62639, Note_on_c, 1, 72, 0
1, 62880, Note_on_c, 1, 72, 80
1, 63107, Note_on_c, 1, 72, 0
1, 63120, Note_on_c, 1, 72, 80
1, 63347, Note_on_c, 1, 72, 0
1, 63360, Note_on_c, 1, 74, 80
1, 63587, Note_on_c, 1, 74, 0
1, 63600, Note_on_c, 1, 74, 80
1, 63827, Note_on_c, 1, 74, 0
1, 64080, Note_on_c, 1, 72, 80
1, 64307, Note_on_c, 1, 72, 0
1, 64560, Note_on_c, 1, 74, 80
1, 64787, Note_on_c, 1, 74, 0
1, 64800, Note_on_c, 1, 76, 80
1, 65039, Note_on_c, 1, 76, 0
1, 65280, Note_on_c, 1, 74, 80
1, 65519, Note_on_c, 1, 74, 0
1, 65760, Note_on_c, 1, 74, 80
1, 65987, Note_on_c, 1, 74, 0
1, 66000, Note_on_c, 1, 74, 80
1, 66227, Note_on_c, 1, 74, 0
1, 66240, Note_on_c, 1, 72, 80
1, 66479, Note_on_c, 1, 72, 0
1, 66720, Note_on_c, 1, 72, 80
1, 66947, Note_on_c, 1, 72, 0
1, 66960, Note_on_c, 1, 72, 80
1, 67187, Note_on_c, 1, 72, 0
1, 67200, Note_on_c, 1, 74, 80
1, 67427, Note_on_c, 1, 74, 0
1, 67440, Note_on_c, 1, 74, 80
1, 67667, Note_on_c, 1, 74, 0
1, 67920, Note_on_c, 1, 72, 80
1, 68147, Note_on_c, 1, 72, 0
1, 68400, Note_on_c, 1, 72, 80
1, 68627, Note_on_c, 1, 72, 0
1, 68640, Note_on_c, 1, 74, 80
1, 68867, Note_on_c, 1, 74, 0
1, 68880, Note_on_c, 1, 76, 80
1, 69107, Note_on_c, 1, 76, 0
1, 69120, Note_on_c, 1, 76, 80
1, 69359, Note_on_c, 1, 76, 0
1, 69600, Note_on_c, 1, 72, 80
1, 69600, Note_on_c, 1, 79, 80
1, 69827, Note_on_c, 1, 72, 0
1, 69827, Note_on_c, 1, 79, 0
1, 69840, Note_on_c, 1, 72, 80
1, 69840, Note_on_c, 1, 79, 80
1, 70067, Note_on_c, 1, 72, 0
1, 70067, Note_on_c, 1, 79, 0
1, 70080, Note_on_c, 1, 74, 80
1, 70080, Note_on_c, 1, 77, 80
1, 70319, Note_on_c, 1, 74, 0
1, 70319, Note_on_c, 1, 77, 0
1, 70560, Note_on_c, 1, 72, 80
1, 70560, Note_on_c, 1, 76, 80
1, 70787, Note_on_c, 1, 72, 0
1, 70787, Note_on_c, 1, 76, 0
1, 70800, Note_on_c, 1, 72, 80
1, 70800, Note_on_c, 1, 77, 80
1, 71027, Note_on_c, 1, 72, 0
1, 71027, Note_on_c, 1, 77, 0
1, 71040, Note_on_c, 1, 72, 80
1, 71040, Note_on_c, 1, 76, 80
1, 71267, Note_on_c, 1, 72, 0
1, 71267, Note_on_c, 1, 76, 0
1, 71280, Note_on_c, 1, 72, 80
1, 71280, Note_on_c, 1, 77, 80
1, 71507, Note_on_c, 1, 72, 0
1, 71507, Note_on_c, 1, 77, 0
1, 71760, Note_on_c, 1, 72, 80
1, 71760, Note_on_c, 1, 74, 80
1, 71987, Note_on_c, 1, 72, 0
1, 71987, Note_on_c, 1, 74, 0
1, 72240, Note_on_c, 1, 72, 80
1, 72240, Note_on_c, 1, 76, 80
1, 72467, Note_on_c, 1, 72, 0
1, 72467, Note_on_c, 1, 76, 0
1, 72480, Note_on_c, 1, 72, 80
1, 72480, Note_on_c, 1, 77, 80
1, 72719, Note_on_c, 1, 72, 0
1, 72719, Note_on_c, 1, 77, 0
1, 72960, Note_on_c, 1, 76, 80
1, 73199, Note_on_c, 1, 76, 0
1, 73440, Note_on_c, 1, 76, 80
1, 73667, Note_on_c, 1, 76, 0
1, 73680, Note_on_c, 1, 76, 80
1, 73907, Note_on_c, 1, 76, 0
1, 73920, Note_on_c, 1, 74, 80
1, 74159, Note_on_c, 1, 74, 0
1, 74400, Note_on_c, 1, 72, 80
1, 74627, Note_on_c, 1, 72, 0
1, 74640, Note_on_c, 1, 74, 80
1, 74867, Note_on_c, 1, 74, 0
1, 74880, Note_on_c, 1, 76, 80
1, 75107, Note_on_c, 1, 76, 0
1, 75120, Note_on_c, 1, 76, 80
1, 75347, Note_on_c, 1, 76, 0
1, 75600, Note_on_c, 1, 74, 80
1, 75827, Note_on_c, 1, 74, 0
1, 76080, Note_on_c, 1, 76, 80
1, 76307, Note_on_c, 1, 76, 0
1, 76320, Note_on_c, 1, 74, 80
1, 76547, Note_on_c, 1, 74, 0
1, 76560, Note_on_c, 1, 72, 80
1, 76787, Note_on_c, 1, 72, 0
1, 76800, Note_on_c, 1, 76, 80
1, 78623, Note_on_c, 1, 76, 0
1, 78720, Note_on_c, 1, 76, 80
1, 80543, Note_on_c, 1, 76, 0
1, 80640, Note_on_c, 1, 76, 80
1, 82463, Note_on_c, 1, 76, 0
1, 82560, Note_on_c, 1, 76, 80
1, 84383, Note_on_c, 1, 76, 0
1, 84480, Note_on_c, 1, 77, 80
1, 86303, Note_on_c, 1, 77, 0
1, 86400, Note_on_c, 1, 76, 80
1, 88223, Note_on_c, 1, 76, 0
1, 88320, Note_on_c, 1, 74, 80
1, 89003, Note_on_c, 1, 74, 0
1, 89040, Note_on_c, 1, 74, 80
1, 89267, Note_on_c, 1, 74, 0
1, 89280, Note_on_c, 1, 74, 80
1, 89507, Note_on_c, 1, 74, 0
1, 89520, Note_on_c, 1, 74, 80
1, 89747, Note_on_c, 1, 74, 0
1, 89760, Note_on_c, 1, 74, 80
1, 89987, Note_on_c, 1, 74, 0
1, 90000, Note_on_c, 1, 72, 80
1, 90227, Note_on_c, 1, 72, 0
1, 90240, Note_on_c, 1, 76, 80
1, 90467, Note_on_c, 1, 76, 0
1, 90480, Note_on_c, 1, 74, 80
1, 90707, Note_on_c, 1, 74, 0
1, 90720, Note_on_c, 1, 72, 80
1, 90947, Note_on_c, 1, 72, 0
1, 90960, Note_on_c, 1, 76, 80
1, 91415, Note_on_c, 1, 76, 0
1, 91440, Note_on_c, 1, 79, 80
1, 91799, Note_on_c, 1, 79, 0
1, 92160, Note_on_c, 1, 76, 80
1, 93071, Note_on_c, 1, 76, 0
1, 93120, Note_on_c, 1, 74, 80
1, 93347, Note_on_c, 1, 74, 0
1, 93360, Note_on_c, 1, 76, 80
1, 94955, Note_on_c, 1, 76, 0
1, 95040, Note_on_c, 1, 76, 80
1, 95951, Note_on_c, 1, 76, 0
1, 96000, Note_on_c, 1, 76, 80
1, 96911, Note_on_c, 1, 76, 0
1, 96960, Note_on_c, 1, 74, 80
1, 97187, Note_on_c, 1, 74, 0
1, 97200, Note_on_c, 1, 76, 80
1, 97559, Note_on_c, 1, 76, 0
1, 97920, Note_on_c, 1, 79, 80
1, 98603, Note_on_c, 1, 79, 0
1, 98640, Note_on_c, 1, 76, 80
1, 99095, Note_on_c, 1, 76, 0
1, 99120, Note_on_c, 1, 74, 80
1, 99575, Note_on_c, 1, 74, 0
1, 99600, Note_on_c, 1, 74, 80
1, 100055, Note_on_c, 1, 74, 0
1, 100080, Note_on_c, 1, 76, 80
1, 100193, Note_on_c, 1, 76, 0
1, 100200, Note_on_c, 1, 74, 80
1, 100313, Note_on_c, 1, 74, 0
1, 100320, Note_on_c, 1, 72, 80
1, 101231, Note_on_c, 1, 72, 0
1, 101760, Note_on_c, 1, 74, 80
1, 103583, Note_on_c, 1, 74, 0
1, 103680, Note_on_c, 1, 74, 80
1, 105503, Note_on_c, 1, 74, 0
1, 105600, Note_on_c, 1, 74, 80
1, 106283, Note_on_c, 1, 74, 0
1, 106320, Note_on_c, 1, 76, 80
1, 106547, Note_on_c, 1, 76, 0
1, 106560, Note_on_c, 1, 77, 80
1, 107015, Note_on_c, 1, 77, 0
1, 107040, Note_on_c, 1, 79, 80
1, 107495, Note_on_c, 1, 79, 0
1, 107520, Note_on_c, 1, 74, 80
1, 107759, Note_on_c, 1, 74, 0
1, 108000, Note_on_c, 1, 74, 80
1, 108227, Note_on_c, 1, 74, 0
1, 108240, Note_on_c, 1, 74, 80
1, 108467, Note_on_c, 1, 74, 0
1, 108480, Note_on_c, 1, 72, 80
1, 108719, Note_on_c, 1, 72, 0
1, 108960, Note_on_c, 1, 72, 80
1, 109187, Note_on_c, 1, 72, 0
1, 109200, Note_on_c, 1, 72, 80
1, 109427, Note_on_c, 1, 72, 0
1, 109440, Note_on_c, 1, 74, 80
1, 109667, Note_on_c, 1, 74, 0
1, 109680, Note_on_c, 1, 74, 80
1, 109907, Note_on_c, 1, 74, 0
1, 110160, Note_on_c, 1, 72, 80
1, 110387, Note_on_c, 1, 72, 0
1, 110640, Note_on_c, 1, 74, 80
1, 110867, Note_on_c, 1, 74, 0
1, 110880, Note_on_c, 1, 76, 80
1, 111119, Note_on_c, 1, 76, 0
1, 111360, Note_on_c, 1, 74, 80
1, 111599, Note_on_c, 1, 74, 0
1, 111840, Note_on_c, 1, 74, 80
1, 112067, Note_on_c, 1, 74, 0
1, 112080, Note_on_c, 1, 74, 80
1, 112307, Note_on_c, 1, 74, 0
1, 112320, Note_on_c, 1, 72, 80
1, 112559, Note_on_c, 1, 72, 0
1, 112800, Note_on_c, 1, 72, 80
1, 113027, Note_on_c, 1, 72, 0
1, 113040, Note_on_c, 1, 72, 80
1, 113267, Note_on_c, 1, 72, 0
1, 113280, Note_on_c, 1, 74, 80
1, 113507, Note_on_c, 1, 74, 0
1, 113520, Note_on_c, 1, 74, 80
1, 113747, Note_on_c, 1, 74, 0
1, 114000, Note_on_c, 1, 72, 80
1, 114227, Note_on_c, 1, 72, 0
1, 114480, Note_on_c, 1, 72, 80
1, 114707, Note_on_c, 1, 72, 0
1, 114720, Note_on_c, 1, 74, 80
1, 114947, Note_on_c, 1, 74, 0
1, 114960, Note_on_c, 1, 76, 80
1, 115187, Note_on_c, 1, 76, 0
1, 115200, Note_on_c, 1, 76, 80
1, 115439, Note_on_c, 1, 76, 0
1, 115680, Note_on_c, 1, 76, 80
1, 115907, Note_on_c, 1, 76, 0
1, 115920, Note_on_c, 1, 76, 80
1, 116147, Note_on_c, 1, 76, 0
1, 116160, Note_on_c, 1, 74, 80
1, 116615, Note_on_c, 1, 74, 0
1, 116640, Note_on_c, 1, 74, 80
1, 116867, Note_on_c, 1, 74, 0
1, 116880, Note_on_c, 1, 76, 80
1, 117107, Note_on_c, 1, 76, 0
1, 117120, Note_on_c, 1, 74, 80
1, 117347, Note_on_c, 1, 74, 0
1, 117360, Note_on_c, 1, 76, 80
1, 117587, Note_on_c, 1, 76, 0
1, 117840, Note_on_c, 1, 74, 80
1, 118067, Note_on_c, 1, 74, 0
1, 118320, Note_on_c, 1, 74, 80
1, 118547, Note_on_c, 1, 74, 0
1, 118560, Note_on_c, 1, 76, 80
1, 119015, Note_on_c, 1, 76, 0
1, 119040, Note_on_c, 1, 76, 80
1, 119279, Note_on_c, 1, 76, 0
1, 119520, Note_on_c, 1, 76, 80
1, 119747, Note_on_c, 1, 76, 0
1, 119760, Note_on_c, 1, 76, 80
1, 119987, Note_on_c, 1, 76, 0
1, 120000, Note_on_c, 1, 74, 80
1, 120239, Note_on_c, 1, 74, 0
1, 120480, Note_on_c, 1, 72, 80
1, 120707, Note_on_c, 1, 72, 0
1, 120720, Note_on_c, 1, 74, 80
1, 120947, Note_on_c, 1, 74, 0
1, 120960, Note_on_c, 1, 76, 80
1, 121187, Note_on_c, 1, 76, 0
1, 121200, Note_on_c, 1, 76, 80
1, 121427, Note_on_c, 1, 76, 0
1, 121680, Note_on_c, 1, 74, 80
1, 121907, Note_on_c, 1, 74, 0
1, 122160, Note_on_c, 1, 76, 80
1, 122387, Note_on_c, 1, 76, 0
1, 122400, Note_on_c, 1, 74, 80
1, 122627, Note_on_c, 1, 74, 0
1, 122640, Note_on_c, 1, 72, 80
1, 122867, Note_on_c, 1, 72, 0
1, 122880, Note_on_c, 1, 67, 80
1, 123791, Note_on_c, 1, 67, 0
1, 123840, Note_on_c, 1, 79, 80
1, 124523, Note_on_c, 1, 79, 0
1, 124560, Note_on_c, 1, 67, 80
1, 125699, Note_on_c, 1, 67, 0
1, 125760, Note_on_c, 1, 67, 80
1, 125987, Note_on_c, 1, 67, 0
1, 126000, Note_on_c, 1, 69, 80
1, 126227, Note_on_c, 1, 69, 0
1, 126240, Note_on_c, 1, 71, 80
1, 126467, Note_on_c, 1, 71, 0
1, 126480, Note_on_c, 1, 72, 80
1, 126707, Note_on_c, 1, 72, 0
1, 126720, Note_on_c, 1, 74, 80
1, 127175, Note_on_c, 1, 74, 0
1, 127200, Note_on_c, 1, 72, 80
1, 127655, Note_on_c, 1, 72, 0
1, 127680, Note_on_c, 1, 69, 80
1, 128591, Note_on_c, 1, 69, 0
1, 129600, Note_on_c, 1, 79, 80
1, 129827, Note_on_c, 1, 79, 0
1, 129840, Note_on_c, 1, 76, 80
1, 130067, Note_on_c, 1, 76, 0
1, 130080, Note_on_c, 1, 72, 80
1, 130307, Note_on_c, 1, 72, 0
1, 130320, Note_on_c, 1, 69, 80
1, 130547, Note_on_c, 1, 69, 0
1, 130560, Note_on_c, 1, 65, 80
1, 132383, Note_on_c, 1, 65, 0
1, 133440, Note_on_c, 1, 81, 80
1, 133667, Note_on_c, 1, 81, 0
1, 133680, Note_on_c, 1, 77, 80
1, 133907, Note_on_c, 1, 77, 0
1, 133920, Note_on_c, 1, 74, 80
1, 134147, Note_on_c, 1, 74, 0
1, 134160, Note_on_c, 1, 71, 80
1, 134387, Note_on_c, 1, 71, 0
1, 134400, Note_on_c, 1, 67, 80
1, 136223, Note_on_c, 1, 67, 0
1, 138240, Note_on_c, 1, 72, 80
1, 139607, Note_on_c, 1, 72, 0
1, 139920, Note_on_c, 1, 72, 80
1, 139920, Note_on_c, 1, 74, 80
1, 141971, Note_on_c, 1, 72, 0
1, 141971, Note_on_c, 1, 74, 0
1, 141972, End_track
2, 0, Start_track
2, 0, Title_t, "Piano, Piano\000"
2, 0, Key_signature, 0, "major"
2, 0, Control_c, 3, 121, 0
2, 0, Program_c, 3, 0
2, 0, Control_c, 3, 7, 100
2, 0, Control_c, 3, 10, 64
2, 0, Control_c, 3, 91, 0
2, 0, Control_c, 3, 93, 0
2, 0, MIDI_port, 0
2, 0, Note_on_c, 3, 67, 80
2, 0, Note_on_c, 3, 71, 80
2, 239, Note_on_c, 3, 67, 0
2, 239, Note_on_c, 3, 71, 0
2, 480, Note_on_c, 3, 67, 80
2, 480, Note_on_c, 3, 71, 80
2, 707, Note_on_c, 3, 67, 0
2, 707, Note_on_c, 3, 71, 0
2, 720, Note_on_c, 3, 67, 80
2, 720, Note_on_c, 3, 71, 80
2, 947, Note_on_c, 3, 67, 0
2, 947, Note_on_c, 3, 71, 0
2, 960, Note_on_c, 3, 67, 80
2, 960, Note_on_c, 3, 69, 80
2, 1199, Note_on_c, 3, 67, 0
2, 1199, Note_on_c, 3, 69, 0
2, 1440, Note_on_c, 3, 67, 80
2, 1440, Note_on_c, 3, 69, 80
2, 1667, Note_on_c, 3, 67, 0
2, 1667, Note_on_c, 3, 69, 0
2, 1680, Note_on_c, 3, 67, 80
2, 1680, Note_on_c, 3, 69, 80
2, 1907, Note_on_c, 3, 67, 0
2, 1907, Note_on_c, 3, 69, 0
2, 1920, Note_on_c, 3, 67, 80
2, 1920, Note_on_c, 3, 71, 80
2, 2147, Note_on_c, 3, 67, 0
2, 2147, Note_on_c, 3, 71, 0
2, 2160, Note_on_c, 3, 67, 80
2, 2160, Note_on_c, 3, 71, 80
2, 2387, Note_on_c, 3, 67, 0
2, 2387, Note_on_c, 3, 71, 0
2, 2640, Note_on_c, 3, 67, 80
2, 2640, Note_on_c, 3, 69, 80
2, 2867, Note_on_c, 3, 67, 0
2, 2867, Note_on_c, 3, 69, 0
2, 3120, Note_on_c, 3, 67, 80
2, 3120, Note_on_c, 3, 71, 80
2, 3347, Note_on_c, 3, 67, 0
2, 3347, Note_on_c, 3, 71, 0
2, 3360, Note_on_c, 3, 67, 80
2, 3360, Note_on_c, 3, 72, 80
2, 3599, Note_on_c, 3, 67, 0
2, 3599, Note_on_c, 3, 72, 0
2, 3840, Note_on_c, 3, 67, 80
2, 3840, Note_on_c, 3, 71, 80
2, 4079, Note_on_c, 3, 67, 0
2, 4079, Note_on_c, 3, 71, 0
2, 4320, Note_on_c, 3, 67, 80
2, 4320, Note_on_c, 3, 71, 80
2, 4547, Note_on_c, 3, 67, 0
2, 4547, Note_on_c, 3, 71, 0
2, 4560, Note_on_c, 3, 67, 80
2, 4560, Note_on_c, 3, 71, 80
2, 4787, Note_on_c, 3, 67, 0
2, 4787, Note_on_c, 3, 71, 0
2, 4800, Note_on_c, 3, 67, 80
2, 4800, Note_on_c, 3, 69, 80
2, 5039, Note_on_c, 3, 67, 0
2, 5039, Note_on_c, 3, 69, 0
2, 5280, Note_on_c, 3, 67, 80
2, 5280, Note_on_c, 3, 69, 80
2, 5507, Note_on_c, 3, 67, 0
2, 5507, Note_on_c, 3, 69, 0
2, 5520, Note_on_c, 3, 67, 80
2, 5520, Note_on_c, 3, 69, 80
2, 5747, Note_on_c, 3, 67, 0
2, 5747, Note_on_c, 3, 69, 0
2, 5760, Note_on_c, 3, 67, 80
2, 5760, Note_on_c, 3, 71, 80
2, 5987, Note_on_c, 3, 67, 0
2, 5987, Note_on_c, 3, 71, 0
2, 6000, Note_on_c, 3, 67, 80
2, 6000, Note_on_c, 3, 71, 80
2, 6227, Note_on_c, 3, 67, 0
2, 6227, Note_on_c, 3, 71, 0
2, 6480, Note_on_c, 3, 67, 80
2, 6480, Note_on_c, 3, 69, 80
2, 6707, Note_on_c, 3, 67, 0
2, 6707, Note_on_c, 3, 69, 0
2, 6960, Note_on_c, 3, 67, 80
2, 6960, Note_on_c, 3, 69, 80
2, 7187, Note_on_c, 3, 67, 0
2, 7187, Note_on_c, 3, 69, 0
2, 7200, Note_on_c, 3, 67, 80
2, 7200, Note_on_c, 3, 71, 80
2, 7427, Note_on_c, 3, 67, 0
2, 7427, Note_on_c, 3, 71, 0
2, 7440, Note_on_c, 3, 67, 80
2, 7440, Note_on_c, 3, 72, 80
2, 7667, Note_on_c, 3, 67, 0
2, 7667, Note_on_c, 3, 72, 0
2, 7680, Note_on_c, 3, 69, 80
2, 7919, Note_on_c, 3, 69, 0
2, 8160, Note_on_c, 3, 69, 80
2, 8387, Note_on_c, 3, 69, 0
2, 8400, Note_on_c, 3, 69, 80
2, 8627, Note_on_c, 3, 69, 0
2, 8640, Note_on_c, 3, 69, 80
2, 8879, Note_on_c, 3, 69, 0
2, 9120, Note_on_c, 3, 69, 80
2, 9347, Note_on_c, 3, 69, 0
2, 9360, Note_on_c, 3, 69, 80
2, 9587, Note_on_c, 3, 69, 0
2, 9600, Note_on_c, 3, 67, 80
2, 9827, Note_on_c, 3, 67, 0
2, 9840, Note_on_c, 3, 67, 80
2, 10067, Note_on_c, 3, 67, 0
2, 10320, Note_on_c, 3, 69, 80
2, 10547, Note_on_c, 3, 69, 0
2, 10800, Note_on_c, 3, 67, 80
2, 11027, Note_on_c, 3, 67, 0
2, 11040, Note_on_c, 3, 69, 80
2, 11279, Note_on_c, 3, 69, 0
2, 11520, Note_on_c, 3, 65, 80
2, 11520, Note_on_c, 3, 69, 80
2, 11759, Note_on_c, 3, 65, 0
2, 11759, Note_on_c, 3, 69, 0
2, 12000, Note_on_c, 3, 65, 80
2, 12000, Note_on_c, 3, 69, 80
2, 12227, Note_on_c, 3, 65, 0
2, 12227, Note_on_c, 3, 69, 0
2, 12240, Note_on_c, 3, 65, 80
2, 12240, Note_on_c, 3, 69, 80
2, 12467, Note_on_c, 3, 65, 0
2, 12467, Note_on_c, 3, 69, 0
2, 12480, Note_on_c, 3, 65, 80
2, 12480, Note_on_c, 3, 71, 80
2, 12719, Note_on_c, 3, 65, 0
2, 12719, Note_on_c, 3, 71, 0
2, 12960, Note_on_c, 3, 65, 80
2, 12960, Note_on_c, 3, 69, 80
2, 13187, Note_on_c, 3, 65, 0
2, 13187, Note_on_c, 3, 69, 0
2, 13200, Note_on_c, 3, 65, 80
2, 13200, Note_on_c, 3, 71, 80
2, 13427, Note_on_c, 3, 65, 0
2, 13427, Note_on_c, 3, 71, 0
2, 13440, Note_on_c, 3, 65, 80
2, 13440, Note_on_c, 3, 69, 80
2, 13667, Note_on_c, 3, 65, 0
2, 13667, Note_on_c, 3, 69, 0
2, 13680, Note_on_c, 3, 65, 80
2, 13680, Note_on_c, 3, 69, 80
2, 13907, Note_on_c, 3, 65, 0
2, 13907, Note_on_c, 3, 69, 0
2, 14160, Note_on_c, 3, 65, 80
2, 14160, Note_on_c, 3, 71, 80
2, 14387, Note_on_c, 3, 65, 0
2, 14387, Note_on_c, 3, 71, 0
2, 14640, Note_on_c, 3, 67, 80
2, 14640, Note_on_c, 3, 69, 80
2, 14867, Note_on_c, 3, 67, 0
2, 14867, Note_on_c, 3, 69, 0
2, 14880, Note_on_c, 3, 65, 80
2, 14880, Note_on_c, 3, 71, 80
2, 15107, Note_on_c, 3, 65, 0
2, 15107, Note_on_c, 3, 71, 0
2, 15120, Note_on_c, 3, 64, 80
2, 15347, Note_on_c, 3, 64, 0
2, 15360, Note_on_c, 3, 67, 80
2, 15360, Note_on_c, 3, 71, 80
2, 15599, Note_on_c, 3, 67, 0
2, 15599, Note_on_c, 3, 71, 0
2, 15840, Note_on_c, 3, 67, 80
2, 15840, Note_on_c, 3, 71, 80
2, 16067, Note_on_c, 3, 67, 0
2, 16067, Note_on_c, 3, 71, 0
2, 16080, Note_on_c, 3, 67, 80
2, 16080, Note_on_c, 3, 71, 80
2, 16307, Note_on_c, 3, 67, 0
2, 16307, Note_on_c, 3, 71, 0
2, 16320, Note_on_c, 3, 67, 80
2, 16320, Note_on_c, 3, 69, 80
2, 16559, Note_on_c, 3, 67, 0
2, 16559, Note_on_c, 3, 69, 0
2, 16800, Note_on_c, 3, 67, 80
2, 16800, Note_on_c, 3, 69, 80
2, 17027, Note_on_c, 3, 67, 0
2, 17027, Note_on_c, 3, 69, 0
2, 17040, Note_on_c, 3, 67, 80
2, 17040, Note_on_c, 3, 69, 80
2, 17267, Note_on_c, 3, 67, 0
2, 17267, Note_on_c, 3, 69, 0
2, 17280, Note_on_c, 3, 67, 80
2, 17280, Note_on_c, 3, 71, 80
2, 17507, Note_on_c, 3, 67, 0
2, 17507, Note_on_c, 3, 71, 0
2, 17520, Note_on_c, 3, 67, 80
2, 17520, Note_on_c, 3, 71, 80
2, 17747, Note_on_c, 3, 67, 0
2, 17747, Note_on_c, 3, 71, 0
2, 18000, Note_on_c, 3, 67, 80
2, 18000, Note_on_c, 3, 69, 80
2, 18227, Note_on_c, 3, 67, 0
2, 18227, Note_on_c, 3, 69, 0
2, 18480, Note_on_c, 3, 67, 80
2, 18480, Note_on_c, 3, 71, 80
2, 18707, Note_on_c, 3, 67, 0
2, 18707, Note_on_c, 3, 71, 0
2, 18720, Note_on_c, 3, 67, 80
2, 18720, Note_on_c, 3, 72, 80
2, 18959, Note_on_c, 3, 67, 0
2, 18959, Note_on_c, 3, 72, 0
2, 19200, Note_on_c, 3, 67, 80
2, 19200, Note_on_c, 3, 71, 80
2, 19439, Note_on_c, 3, 67, 0
2, 19439, Note_on_c, 3, 71, 0
2, 19680, Note_on_c, 3, 67, 80
2, 19680, Note_on_c, 3, 71, 80
2, 19907, Note_on_c, 3, 67, 0
2, 19907, Note_on_c, 3, 71, 0
2, 19920, Note_on_c, 3, 67, 80
2, 19920, Note_on_c, 3, 71, 80
2, 20147, Note_on_c, 3, 67, 0
2, 20147, Note_on_c, 3, 71, 0
2, 20160, Note_on_c, 3, 67, 80
2, 20160, Note_on_c, 3, 69, 80
2, 20399, Note_on_c, 3, 67, 0
2, 20399, Note_on_c, 3, 69, 0
2, 20640, Note_on_c, 3, 67, 80
2, 20640, Note_on_c, 3, 69, 80
2, 20867, Note_on_c, 3, 67, 0
2, 20867, Note_on_c, 3, 69, 0
2, 20880, Note_on_c, 3, 67, 80
2, 20880, Note_on_c, 3, 69, 80
2, 21107, Note_on_c, 3, 67, 0
2, 21107, Note_on_c, 3, 69, 0
2, 21120, Note_on_c, 3, 67, 80
2, 21120, Note_on_c, 3, 71, 80
2, 21347, Note_on_c, 3, 67, 0
2, 21347, Note_on_c, 3, 71, 0
2, 21360, Note_on_c, 3, 67, 80
2, 21360, Note_on_c, 3, 71, 80
2, 21587, Note_on_c, 3, 67, 0
2, 21587, Note_on_c, 3, 71, 0
2, 21840, Note_on_c, 3, 67, 80
2, 21840, Note_on_c, 3, 69, 80
2, 22067, Note_on_c, 3, 67, 0
2, 22067, Note_on_c, 3, 69, 0
2, 22080, Note_on_c, 3, 71, 80
2, 22307, Note_on_c, 3, 71, 0
2, 22320, Note_on_c, 3, 67, 80
2, 22547, Note_on_c, 3, 67, 0
2, 22560, Note_on_c, 3, 67, 80
2, 22560, Note_on_c, 3, 71, 80
2, 22787, Note_on_c, 3, 67, 0
2, 22787, Note_on_c, 3, 71, 0
2, 22800, Note_on_c, 3, 67, 80
2, 22800, Note_on_c, 3, 69, 80
2, 23027, Note_on_c, 3, 67, 0
2, 23027, Note_on_c, 3, 69, 0
2, 23040, Note_on_c, 3, 69, 80
2, 23279, Note_on_c, 3, 69, 0
2, 23520, Note_on_c, 3, 69, 80
2, 23747, Note_on_c, 3, 69, 0
2, 23760, Note_on_c, 3, 69, 80
2, 23987, Note_on_c, 3, 69, 0
2, 24000, Note_on_c, 3, 69, 80
2, 24239, Note_on_c, 3, 69, 0
2, 24480, Note_on_c, 3, 69, 80
2, 24707, Note_on_c, 3, 69, 0
2, 24720, Note_on_c, 3, 69, 80
2, 24947, Note_on_c, 3, 69, 0
2, 24960, Note_on_c, 3, 67, 80
2, 25187, Note_on_c, 3, 67, 0
2, 25200, Note_on_c, 3, 67, 80
2, 25427, Note_on_c, 3, 67, 0
2, 25680, Note_on_c, 3, 69, 80
2, 25907, Note_on_c, 3, 69, 0
2, 26160, Note_on_c, 3, 67, 80
2, 26387, Note_on_c, 3, 67, 0
2, 26400, Note_on_c, 3, 69, 80
2, 26639, Note_on_c, 3, 69, 0
2, 26880, Note_on_c, 3, 65, 80
2, 26880, Note_on_c, 3, 69, 80
2, 27119, Note_on_c, 3, 65, 0
2, 27119, Note_on_c, 3, 69, 0
2, 27360, Note_on_c, 3, 65, 80
2, 27360, Note_on_c, 3, 69, 80
2, 27587, Note_on_c, 3, 65, 0
2, 27587, Note_on_c, 3, 69, 0
2, 27600, Note_on_c, 3, 65, 80
2, 27600, Note_on_c, 3, 69, 80
2, 27827, Note_on_c, 3, 65, 0
2, 27827, Note_on_c, 3, 69, 0
2, 27840, Note_on_c, 3, 65, 80
2, 27840, Note_on_c, 3, 71, 80
2, 28079, Note_on_c, 3, 65, 0
2, 28079, Note_on_c, 3, 71, 0
2, 28320, Note_on_c, 3, 65, 80
2, 28320, Note_on_c, 3, 69, 80
2, 28547, Note_on_c, 3, 65, 0
2, 28547, Note_on_c, 3, 69, 0
2, 28560, Note_on_c, 3, 65, 80
2, 28560, Note_on_c, 3, 71, 80
2, 28787, Note_on_c, 3, 65, 0
2, 28787, Note_on_c, 3, 71, 0
2, 28800, Note_on_c, 3, 65, 80
2, 28800, Note_on_c, 3, 69, 80
2, 29027, Note_on_c, 3, 65, 0
2, 29027, Note_on_c, 3, 69, 0
2, 29040, Note_on_c, 3, 65, 80
2, 29040, Note_on_c, 3, 69, 80
2, 29267, Note_on_c, 3, 65, 0
2, 29267, Note_on_c, 3, 69, 0
2, 29520, Note_on_c, 3, 65, 80
2, 29520, Note_on_c, 3, 71, 80
2, 29747, Note_on_c, 3, 65, 0
2, 29747, Note_on_c, 3, 71, 0
2, 30000, Note_on_c, 3, 67, 80
2, 30000, Note_on_c, 3, 69, 80
2, 30227, Note_on_c, 3, 67, 0
2, 30227, Note_on_c, 3, 69, 0
2, 30240, Note_on_c, 3, 65, 80
2, 30240, Note_on_c, 3, 71, 80
2, 30467, Note_on_c, 3, 65, 0
2, 30467, Note_on_c, 3, 71, 0
2, 30480, Note_on_c, 3, 64, 80
2, 30593, Note_on_c, 3, 64, 0
2, 30600, Note_on_c, 3, 67, 80
2, 30656, Note_on_c, 3, 67, 0
2, 30660, Note_on_c, 3, 72, 80
2, 30716, Note_on_c, 3, 72, 0
2, 31440, Note_on_c, 3, 67, 80
2, 32351, Note_on_c, 3, 67, 0
2, 32520, Note_on_c, 3, 67, 80
2, 32576, Note_on_c, 3, 67, 0
2, 32580, Note_on_c, 3, 72, 80
2, 32636, Note_on_c, 3, 72, 0
2, 33600, Note_on_c, 3, 67, 80
2, 33827, Note_on_c, 3, 67, 0
2, 33840, Note_on_c, 3, 72, 80
2, 34067, Note_on_c, 3, 72, 0
2, 34440, Note_on_c, 3, 69, 80
2, 34496, Note_on_c, 3, 69, 0
2, 34500, Note_on_c, 3, 72, 80
2, 34556, Note_on_c, 3, 72, 0
2, 35280, Note_on_c, 3, 69, 80
2, 36191, Note_on_c, 3, 69, 0
2, 36360, Note_on_c, 3, 69, 80
2, 36416, Note_on_c, 3, 69, 0
2, 36420, Note_on_c, 3, 72, 80
2, 36476, Note_on_c, 3, 72, 0
2, 37440, Note_on_c, 3, 69, 80
2, 37667, Note_on_c, 3, 69, 0
2, 37680, Note_on_c, 3, 72, 80
2, 37907, Note_on_c, 3, 72, 0
2, 38280, Note_on_c, 3, 69, 80
2, 38336, Note_on_c, 3, 69, 0
2, 38340, Note_on_c, 3, 74, 80
2, 38396, Note_on_c, 3, 74, 0
2, 39120, Note_on_c, 3, 69, 80
2, 40031, Note_on_c, 3, 69, 0
2, 40200, Note_on_c, 3, 69, 80
2, 40256, Note_on_c, 3, 69, 0
2, 40260, Note_on_c, 3, 72, 80
2, 40316, Note_on_c, 3, 72, 0
2, 41040, Note_on_c, 3, 72, 80
2, 41040, Note_on_c, 3, 69, 80
2, 41267, Note_on_c, 3, 72, 0
2, 41951, Note_on_c, 3, 69, 0
2, 42120, Note_on_c, 3, 67, 80
2, 42176, Note_on_c, 3, 67, 0
2, 42180, Note_on_c, 3, 71, 80
2, 42236, Note_on_c, 3, 71, 0
2, 42960, Note_on_c, 3, 71, 80
2, 42960, Note_on_c, 3, 67, 80
2, 43187, Note_on_c, 3, 71, 0
2, 43871, Note_on_c, 3, 67, 0
2, 44160, Note_on_c, 3, 67, 80
2, 44160, Note_on_c, 3, 71, 80
2, 44843, Note_on_c, 3, 67, 0
2, 44843, Note_on_c, 3, 71, 0
2, 44880, Note_on_c, 3, 67, 80
2, 44880, Note_on_c, 3, 71, 80
2, 45791, Note_on_c, 3, 67, 0
2, 45791, Note_on_c, 3, 71, 0
2, 45960, Note_on_c, 3, 67, 80
2, 46016, Note_on_c, 3, 67, 0
2, 46020, Note_on_c, 3, 72, 80
2, 46076, Note_on_c, 3, 72, 0
2, 48000, Note_on_c, 3, 67, 80
2, 48000, Note_on_c, 3, 72, 80
2, 48911, Note_on_c, 3, 67, 0
2, 48911, Note_on_c, 3, 72, 0
2, 48960, Note_on_c, 3, 65, 80
2, 48960, Note_on_c, 3, 72, 80
2, 49415, Note_on_c, 3, 65, 0
2, 49415, Note_on_c, 3, 72, 0
2, 49440, Note_on_c, 3, 67, 80
2, 49440, Note_on_c, 3, 72, 80
2, 49895, Note_on_c, 3, 67, 0
2, 49895, Note_on_c, 3, 72, 0
2, 49920, Note_on_c, 3, 69, 80
2, 49920, Note_on_c, 3, 72, 80
2, 51743, Note_on_c, 3, 69, 0
2, 51743, Note_on_c, 3, 72, 0
2, 51840, Note_on_c, 3, 69, 80
2, 51840, Note_on_c, 3, 72, 80
2, 52751, Note_on_c, 3, 69, 0
2, 52751, Note_on_c, 3, 72, 0
2, 52800, Note_on_c, 3, 72, 80
2, 52800, Note_on_c, 3, 69, 80
2, 53039, Note_on_c, 3, 69, 0
2, 53640, Note_on_c, 3, 65, 80
2, 53696, Note_on_c, 3, 65, 0
2, 53700, Note_on_c, 3, 69, 80
2, 53711, Note_on_c, 3, 72, 0
2, 53756, Note_on_c, 3, 69, 0
2, 55680, Note_on_c, 3, 65, 80
2, 55680, Note_on_c, 3, 69, 80
2, 55919, Note_on_c, 3, 65, 0
2, 55919, Note_on_c, 3, 69, 0
2, 57480, Note_on_c, 3, 67, 80
2, 57536, Note_on_c, 3, 67, 0
2, 57540, Note_on_c, 3, 71, 80
2, 57596, Note_on_c, 3, 71, 0
2, 58800, Note_on_c, 3, 71, 80
2, 59027, Note_on_c, 3, 71, 0
2, 59040, Note_on_c, 3, 72, 80
2, 59267, Note_on_c, 3, 72, 0
2, 59280, Note_on_c, 3, 71, 80
2, 59507, Note_on_c, 3, 71, 0
2, 59520, Note_on_c, 3, 67, 80
2, 59760, Note_on_c, 3, 71, 80
2, 59975, Note_on_c, 3, 67, 0
2, 59987, Note_on_c, 3, 71, 0
2, 60000, Note_on_c, 3, 67, 80
2, 60000, Note_on_c, 3, 72, 80
2, 60239, Note_on_c, 3, 67, 0
2, 60239, Note_on_c, 3, 72, 0
2, 60240, Note_on_c, 3, 67, 80
2, 60480, Note_on_c, 3, 69, 80
2, 61151, Note_on_c, 3, 67, 0
2, 61163, Note_on_c, 3, 69, 0
2, 61200, Note_on_c, 3, 71, 80
2, 61427, Note_on_c, 3, 71, 0
2, 61440, Note_on_c, 3, 67, 80
2, 61440, Note_on_c, 3, 71, 80
2, 61679, Note_on_c, 3, 67, 0
2, 61679, Note_on_c, 3, 71, 0
2, 61920, Note_on_c, 3, 67, 80
2, 61920, Note_on_c, 3, 71, 80
2, 62147, Note_on_c, 3, 67, 0
2, 62147, Note_on_c, 3, 71, 0
2, 62160, Note_on_c, 3, 67, 80
2, 62160, Note_on_c, 3, 71, 80
2, 62387, Note_on_c, 3, 67, 0
2, 62387, Note_on_c, 3, 71, 0
2, 62400, Note_on_c, 3, 67, 80
2, 62400, Note_on_c, 3, 69, 80
2, 62639, Note_on_c, 3, 67, 0
2, 62639, Note_on_c, 3, 69, 0
2, 62880, Note_on_c, 3, 67, 80
2, 62880, Note_on_c, 3, 69, 80
2, 63107, Note_on_c, 3, 67, 0
2, 63107, Note_on_c, 3, 69, 0
2, 63120, Note_on_c, 3, 67, 80
2, 63120, Note_on_c, 3, 69, 80
2, 63347, Note_on_c, 3, 67, 0
2, 63347, Note_on_c, 3, 69, 0
2, 63360, Note_on_c, 3, 67, 80
2, 63360, Note_on_c, 3, 71, 80
2, 63587, Note_on_c, 3, 67, 0
2, 63587, Note_on_c, 3, 71, 0
2, 63600, Note_on_c, 3, 67, 80
2, 63600, Note_on_c, 3, 71, 80
2, 63827, Note_on_c, 3, 67, 0
2, 63827, Note_on_c, 3, 71, 0
2, 64080, Note_on_c, 3, 67, 80
2, 64080, Note_on_c, 3, 69, 80
2, 64307, Note_on_c, 3, 67, 0
2, 64307, Note_on_c, 3, 69, 0
2, 64560, Note_on_c, 3, 67, 80
2, 64560, Note_on_c, 3, 71, 80
2, 64787, Note_on_c, 3, 67, 0
2, 64787, Note_on_c, 3, 71, 0
2, 64800, Note_on_c, 3, 67, 80
2, 64800, Note_on_c, 3, 72, 80
2, 65039, Note_on_c, 3, 67, 0
2, 65039, Note_on_c, 3, 72, 0
2, 65280, Note_on_c, 3, 67, 80
2, 65280, Note_on_c, 3, 71, 80
2, 65519, Note_on_c, 3, 67, 0
2, 65519, Note_on_c, 3, 71, 0
2, 65760, Note_on_c, 3, 67, 80
2, 65760, Note_on_c, 3, 71, 80
2, 65987, Note_on_c, 3, 67, 0
2, 65987, Note_on_c, 3, 71, 0
2, 66000, Note_on_c, 3, 67, 80
2, 66000, Note_on_c, 3, 71, 80
2, 66227, Note_on_c, 3, 67, 0
2, 66227, Note_on_c, 3, 71, 0
2, 66240, Note_on_c, 3, 67, 80
2, 66240, Note_on_c, 3, 69, 80
2, 66479, Note_on_c, 3, 67, 0
2, 66479, Note_on_c, 3, 69, 0
2, 66720, Note_on_c, 3, 67, 80
2, 66720, Note_on_c, 3, 69, 80
2, 66947, Note_on_c, 3, 67, 0
2, 66947, Note_on_c, 3, 69, 0
2, 66960, Note_on_c, 3, 67, 80
2, 66960, Note_on_c, 3, 69, 80
2, 67187, Note_on_c, 3, 67, 0
2, 67187, Note_on_c, 3, 69, 0
2, 67200, Note_on_c, 3, 67, 80
2, 67200, Note_on_c, 3, 71, 80
2, 67427, Note_on_c, 3, 67, 0
2, 67427, Note_on_c, 3, 71, 0
2, 67440, Note_on_c, 3, 67, 80
2, 67440, Note_on_c, 3, 71, 80
2, 67667, Note_on_c, 3, 67, 0
2, 67667, Note_on_c, 3, 71, 0
2, 67920, Note_on_c, 3, 67, 80
2, 67920, Note_on_c, 3, 69, 80
2, 68147, Note_on_c, 3, 67, 0
2, 68147, Note_on_c, 3, 69, 0
2, 68160, Note_on_c, 3, 71, 80
2, 68387, Note_on_c, 3, 71, 0
2, 68400, Note_on_c, 3, 67, 80
2, 68627, Note_on_c, 3, 67, 0
2, 68640, Note_on_c, 3, 67, 80
2, 68640, Note_on_c, 3, 71, 80
2, 68867, Note_on_c, 3, 67, 0
2, 68867, Note_on_c, 3, 71, 0
2, 68880, Note_on_c, 3, 67, 80
2, 68880, Note_on_c, 3, 69, 80
2, 69107, Note_on_c, 3, 67, 0
2, 69107, Note_on_c, 3, 69, 0
2, 69120, Note_on_c, 3, 69, 80
2, 69359, Note_on_c, 3, 69, 0
2, 69600, Note_on_c, 3, 69, 80
2, 69827, Note_on_c, 3, 69, 0
2, 69840, Note_on_c, 3, 69, 80
2, 70067, Note_on_c, 3, 69, 0
2, 70080, Note_on_c, 3, 69, 80
2, 70319, Note_on_c, 3, 69, 0
2, 70560, Note_on_c, 3, 69, 80
2, 70787, Note_on_c, 3, 69, 0
2, 70800, Note_on_c, 3, 69, 80
2, 71027, Note_on_c, 3, 69, 0
2, 71040, Note_on_c, 3, 67, 80
2, 71267, Note_on_c, 3, 67, 0
2, 71280, Note_on_c, 3, 67, 80
2, 71507, Note_on_c, 3, 67, 0
2, 71760, Note_on_c, 3, 69, 80
2, 71987, Note_on_c, 3, 69, 0
2, 72240, Note_on_c, 3, 67, 80
2, 72467, Note_on_c, 3, 67, 0
2, 72480, Note_on_c, 3, 69, 80
2, 72719, Note_on_c, 3, 69, 0
2, 72960, Note_on_c, 3, 65, 80
2, 72960, Note_on_c, 3, 69, 80
2, 73199, Note_on_c, 3, 65, 0
2, 73199, Note_on_c, 3, 69, 0
2, 73440, Note_on_c, 3, 65, 80
2, 73440, Note_on_c, 3, 69, 80
2, 73667, Note_on_c, 3, 65, 0
2, 73667, Note_on_c, 3, 69, 0
2, 73680, Note_on_c, 3, 65, 80
2, 73680, Note_on_c, 3, 69, 80
2, 73907, Note_on_c, 3, 65, 0
2, 73907, Note_on_c, 3, 69, 0
2, 73920, Note_on_c, 3, 65, 80
2, 73920, Note_on_c, 3, 71, 80
2, 74159, Note_on_c, 3, 65, 0
2, 74159, Note_on_c, 3, 71, 0
2, 74400, Note_on_c, 3, 65, 80
2, 74400, Note_on_c, 3, 69, 80
2, 74627, Note_on_c, 3, 65, 0
2, 74627, Note_on_c, 3, 69, 0
2, 74640, Note_on_c, 3, 65, 80
2, 74640, Note_on_c, 3, 71, 80
2, 74867, Note_on_c, 3, 65, 0
2, 74867, Note_on_c, 3, 71, 0
2, 74880, Note_on_c, 3, 65, 80
2, 74880, Note_on_c, 3, 69, 80
2, 75107, Note_on_c, 3, 65, 0
2, 75107, Note_on_c, 3, 69, 0
2, 75120, Note_on_c, 3, 65, 80
2, 75120, Note_on_c, 3, 69, 80
2, 75347, Note_on_c, 3, 65, 0
2, 75347, Note_on_c, 3, 69, 0
2, 75600, Note_on_c, 3, 65, 80
2, 75600, Note_on_c, 3, 71, 80
2, 75827, Note_on_c, 3, 65, 0
2, 75827, Note_on_c, 3, 71, 0
2, 76080, Note_on_c, 3, 67, 80
2, 76080, Note_on_c, 3, 69, 80
2, 76307, Note_on_c, 3, 67, 0
2, 76307, Note_on_c, 3, 69, 0
2, 76320, Note_on_c, 3, 65, 80
2, 76320, Note_on_c, 3, 71, 80
2, 76547, Note_on_c, 3, 65, 0
2, 76547, Note_on_c, 3, 71, 0
2, 76560, Note_on_c, 3, 64, 80
2, 76673, Note_on_c, 3, 64, 0
2, 76680, Note_on_c, 3, 67, 80
2, 76736, Note_on_c, 3, 67, 0
2, 76740, Note_on_c, 3, 72, 80
2, 76796, Note_on_c, 3, 72, 0
2, 78600, Note_on_c, 3, 67, 80
2, 78656, Note_on_c, 3, 67, 0
2, 78660, Note_on_c, 3, 72, 80
2, 78716, Note_on_c, 3, 72, 0
2, 80520, Note_on_c, 3, 69, 80
2, 80576, Note_on_c, 3, 69, 0
2, 80580, Note_on_c, 3, 72, 80
2, 80636, Note_on_c, 3, 72, 0
2, 82440, Note_on_c, 3, 69, 80
2, 82496, Note_on_c, 3, 69, 0
2, 82500, Note_on_c, 3, 72, 80
2, 82556, Note_on_c, 3, 72, 0
2, 84300, Note_on_c, 3, 65, 80
2, 84356, Note_on_c, 3, 65, 0
2, 84360, Note_on_c, 3, 69, 80
2, 84416, Note_on_c, 3, 69, 0
2, 84420, Note_on_c, 3, 74, 80
2, 84476, Note_on_c, 3, 74, 0
2, 86220, Note_on_c, 3, 64, 80
2, 86276, Note_on_c, 3, 64, 0
2, 86280, Note_on_c, 3, 69, 80
2, 86336, Note_on_c, 3, 69, 0
2, 86340, Note_on_c, 3, 72, 80
2, 86396, Note_on_c, 3, 72, 0
2, 88140, Note_on_c, 3, 62, 80
2, 88196, Note_on_c, 3, 62, 0
2, 88200, Note_on_c, 3, 67, 80
2, 88256, Note_on_c, 3, 67, 0
2, 88260, Note_on_c, 3, 71, 80
2, 88316, Note_on_c, 3, 71, 0
2, 90060, Note_on_c, 3, 62, 80
2, 90116, Note_on_c, 3, 62, 0
2, 90120, Note_on_c, 3, 67, 80
2, 90176, Note_on_c, 3, 67, 0
2, 90180, Note_on_c, 3, 71, 80
2, 90236, Note_on_c, 3, 71, 0
2, 90960, Note_on_c, 3, 71, 80
2, 90960, Note_on_c, 3, 67, 80
2, 91187, Note_on_c, 3, 71, 0
2, 91871, Note_on_c, 3, 67, 0
2, 92160, Note_on_c, 3, 67, 80
2, 92160, Note_on_c, 3, 72, 80
2, 93071, Note_on_c, 3, 67, 0
2, 93071, Note_on_c, 3, 72, 0
2, 93120, Note_on_c, 3, 65, 80
2, 93120, Note_on_c, 3, 71, 80
2, 93347, Note_on_c, 3, 65, 0
2, 93347, Note_on_c, 3, 71, 0
2, 93360, Note_on_c, 3, 67, 80
2, 93360, Note_on_c, 3, 72, 80
2, 94955, Note_on_c, 3, 67, 0
2, 94955, Note_on_c, 3, 72, 0
2, 95040, Note_on_c, 3, 72, 80
2, 95040, Note_on_c, 3, 67, 80
2, 95495, Note_on_c, 3, 72, 0
2, 95520, Note_on_c, 3, 74, 80
2, 95951, Note_on_c, 3, 67, 0
2, 95975, Note_on_c, 3, 74, 0
2, 96000, Note_on_c, 3, 69, 80
2, 96000, Note_on_c, 3, 72, 80
2, 96911, Note_on_c, 3, 69, 0
2, 96911, Note_on_c, 3, 72, 0
2, 96960, Note_on_c, 3, 67, 80
2, 96960, Note_on_c, 3, 71, 80
2, 97187, Note_on_c, 3, 67, 0
2, 97187, Note_on_c, 3, 71, 0
2, 97200, Note_on_c, 3, 69, 80
2, 97200, Note_on_c, 3, 72, 80
2, 98795, Note_on_c, 3, 69, 0
2, 98795, Note_on_c, 3, 72, 0
2, 98880, Note_on_c, 3, 69, 80
2, 98880, Note_on_c, 3, 72, 80
2, 99791, Note_on_c, 3, 69, 0
2, 99791, Note_on_c, 3, 72, 0
2, 99840, Note_on_c, 3, 69, 80
2, 101663, Note_on_c, 3, 69, 0
2, 101760, Note_on_c, 3, 72, 80
2, 101760, Note_on_c, 3, 69, 80
2, 102443, Note_on_c, 3, 72, 0
2, 102480, Note_on_c, 3, 74, 80
2, 102935, Note_on_c, 3, 74, 0
2, 103200, Note_on_c, 3, 74, 80
2, 103427, Note_on_c, 3, 74, 0
2, 103440, Note_on_c, 3, 72, 80
2, 103583, Note_on_c, 3, 69, 0
2, 103667, Note_on_c, 3, 72, 0
2, 103680, Note_on_c, 3, 72, 80
2, 103680, Note_on_c, 3, 67, 80
2, 103907, Note_on_c, 3, 72, 0
2, 103920, Note_on_c, 3, 71, 80
2, 104147, Note_on_c, 3, 71, 0
2, 104160, Note_on_c, 3, 71, 80
2, 104387, Note_on_c, 3, 71, 0
2, 104400, Note_on_c, 3, 69, 80
2, 104627, Note_on_c, 3, 69, 0
2, 104640, Note_on_c, 3, 69, 80
2, 104819, Note_on_c, 3, 67, 0
2, 104879, Note_on_c, 3, 69, 0
2, 104880, Note_on_c, 3, 67, 80
2, 105120, Note_on_c, 3, 69, 80
2, 105239, Note_on_c, 3, 67, 0
2, 105347, Note_on_c, 3, 69, 0
2, 105360, Note_on_c, 3, 67, 80
2, 105587, Note_on_c, 3, 67, 0
2, 105600, Note_on_c, 3, 67, 80
2, 105600, Note_on_c, 3, 69, 80
2, 105827, Note_on_c, 3, 67, 0
2, 105827, Note_on_c, 3, 69, 0
2, 105840, Note_on_c, 3, 67, 80
2, 106067, Note_on_c, 3, 67, 0
2, 106080, Note_on_c, 3, 67, 80
2, 106080, Note_on_c, 3, 69, 80
2, 106319, Note_on_c, 3, 67, 0
2, 106319, Note_on_c, 3, 69, 0
2, 106320, Note_on_c, 3, 67, 80
2, 106560, Note_on_c, 3, 69, 80
2, 107231, Note_on_c, 3, 67, 0
2, 107243, Note_on_c, 3, 69, 0
2, 107280, Note_on_c, 3, 71, 80
2, 107507, Note_on_c, 3, 71, 0
2, 107520, Note_on_c, 3, 60, 80
2, 107747, Note_on_c, 3, 60, 0
2, 107760, Note_on_c, 3, 64, 80
2, 107987, Note_on_c, 3, 64, 0
2, 108000, Note_on_c, 3, 67, 80
2, 108227, Note_on_c, 3, 67, 0
2, 108240, Note_on_c, 3, 64, 80
2, 108467, Note_on_c, 3, 64, 0
2, 108480, Note_on_c, 3, 60, 80
2, 108707, Note_on_c, 3, 60, 0
2, 108720, Note_on_c, 3, 64, 80
2, 108947, Note_on_c, 3, 64, 0
2, 108960, Note_on_c, 3, 67, 80
2, 109187, Note_on_c, 3, 67, 0
2, 109200, Note_on_c, 3, 64, 80
2, 109427, Note_on_c, 3, 64, 0
2, 109440, Note_on_c, 3, 60, 80
2, 109667, Note_on_c, 3, 60, 0
2, 109680, Note_on_c, 3, 64, 80
2, 109907, Note_on_c, 3, 64, 0
2, 109920, Note_on_c, 3, 67, 80
2, 110147, Note_on_c, 3, 67, 0
2, 110160, Note_on_c, 3, 64, 80
2, 110387, Note_on_c, 3, 64, 0
2, 110400, Note_on_c, 3, 59, 80
2, 110627, Note_on_c, 3, 59, 0
2, 110640, Note_on_c, 3, 64, 80
2, 110867, Note_on_c, 3, 64, 0
2, 110880, Note_on_c, 3, 67, 80
2, 111107, Note_on_c, 3, 67, 0
2, 111120, Note_on_c, 3, 64, 80
2, 111347, Note_on_c, 3, 64, 0
2, 111360, Note_on_c, 3, 57, 80
2, 111587, Note_on_c, 3, 57, 0
2, 111600, Note_on_c, 3, 60, 80
2, 111827, Note_on_c, 3, 60, 0
2, 111840, Note_on_c, 3, 64, 80
2, 112067, Note_on_c, 3, 64, 0
2, 112080, Note_on_c, 3, 60, 80
2, 112307, Note_on_c, 3, 60, 0
2, 112320, Note_on_c, 3, 57, 80
2, 112547, Note_on_c, 3, 57, 0
2, 112560, Note_on_c, 3, 60, 80
2, 112787, Note_on_c, 3, 60, 0
2, 112800, Note_on_c, 3, 64, 80
2, 113027, Note_on_c, 3, 64, 0
2, 113040, Note_on_c, 3, 60, 80
2, 113267, Note_on_c, 3, 60, 0
2, 113280, Note_on_c, 3, 57, 80
2, 113507, Note_on_c, 3, 57, 0
2, 113520, Note_on_c, 3, 60, 80
2, 113747, Note_on_c, 3, 60, 0
2, 113760, Note_on_c, 3, 64, 80
2, 113987, Note_on_c, 3, 64, 0
2, 114000, Note_on_c, 3, 60, 80
2, 114227, Note_on_c, 3, 60, 0
2, 114240, Note_on_c, 3, 57, 80
2, 114467, Note_on_c, 3, 57, 0
2, 114480, Note_on_c, 3, 60, 80
2, 114707, Note_on_c, 3, 60, 0
2, 114720, Note_on_c, 3, 64, 80
2, 114947, Note_on_c, 3, 64, 0
2, 114960, Note_on_c, 3, 60, 80
2, 115187, Note_on_c, 3, 60, 0
2, 115200, Note_on_c, 3, 57, 80
2, 115427, Note_on_c, 3, 57, 0
2, 115440, Note_on_c, 3, 60, 80
2, 115667, Note_on_c, 3, 60, 0
2, 115680, Note_on_c, 3, 64, 80
2, 115907, Note_on_c, 3, 64, 0
2, 115920, Note_on_c, 3, 60, 80
2, 116147, Note_on_c, 3, 60, 0
2, 116160, Note_on_c, 3, 57, 80
2, 116387, Note_on_c, 3, 57, 0
2, 116400, Note_on_c, 3, 60, 80
2, 116627, Note_on_c, 3, 60, 0
2, 116640, Note_on_c, 3, 64, 80
2, 116867, Note_on_c, 3, 64, 0
2, 116880, Note_on_c, 3, 60, 80
2, 117107, Note_on_c, 3, 60, 0
2, 117120, Note_on_c, 3, 57, 80
2, 117347, Note_on_c, 3, 57, 0
2, 117360, Note_on_c, 3, 62, 80
2, 117587, Note_on_c, 3, 62, 0
2, 117600, Note_on_c, 3, 65, 80
2, 117827, Note_on_c, 3, 65, 0
2, 117840, Note_on_c, 3, 62, 80
2, 118067, Note_on_c, 3, 62, 0
2, 118080, Note_on_c, 3, 60, 80
2, 118307, Note_on_c, 3, 60, 0
2, 118320, Note_on_c, 3, 62, 80
2, 118547, Note_on_c, 3, 62, 0
2, 118560, Note_on_c, 3, 65, 80
2, 118787, Note_on_c, 3, 65, 0
2, 118800, Note_on_c, 3, 62, 80
2, 119027, Note_on_c, 3, 62, 0
2, 119040, Note_on_c, 3, 57, 80
2, 119267, Note_on_c, 3, 57, 0
2, 119280, Note_on_c, 3, 62, 80
2, 119507, Note_on_c, 3, 62, 0
2, 119520, Note_on_c, 3, 65, 80
2, 119747, Note_on_c, 3, 65, 0
2, 119760, Note_on_c, 3, 62, 80
2, 119987, Note_on_c, 3, 62, 0
2, 120000, Note_on_c, 3, 57, 80
2, 120227, Note_on_c, 3, 57, 0
2, 120240, Note_on_c, 3, 62, 80
2, 120467, Note_on_c, 3, 62, 0
2, 120480, Note_on_c, 3, 65, 80
2, 120707, Note_on_c, 3, 65, 0
2, 120720, Note_on_c, 3, 62, 80
2, 120947, Note_on_c, 3, 62, 0
2, 120960, Note_on_c, 3, 55, 80
2, 121187, Note_on_c, 3, 55, 0
2, 121200, Note_on_c, 3, 62, 80
2, 121427, Note_on_c, 3, 62, 0
2, 121440, Note_on_c, 3, 67, 80
2, 121667, Note_on_c, 3, 67, 0
2, 121680, Note_on_c, 3, 62, 80
2, 121907, Note_on_c, 3, 62, 0
2, 121920, Note_on_c, 3, 59, 80
2, 122147, Note_on_c, 3, 59, 0
2, 122160, Note_on_c, 3, 62, 80
2, 122387, Note_on_c, 3, 62, 0
2, 122400, Note_on_c, 3, 67, 80
2, 122627, Note_on_c, 3, 67, 0
2, 122640, Note_on_c, 3, 62, 80
2, 122867, Note_on_c, 3, 62, 0
2, 122880, Note_on_c, 3, 60, 80
2, 123107, Note_on_c, 3, 60, 0
2, 123120, Note_on_c, 3, 64, 80
2, 123347, Note_on_c, 3, 64, 0
2, 123360, Note_on_c, 3, 67, 80
2, 123587, Note_on_c, 3, 67, 0
2, 123600, Note_on_c, 3, 64, 80
2, 123827, Note_on_c, 3, 64, 0
2, 123840, Note_on_c, 3, 60, 80
2, 124067, Note_on_c, 3, 60, 0
2, 124080, Note_on_c, 3, 64, 80
2, 124307, Note_on_c, 3, 64, 0
2, 124320, Note_on_c, 3, 67, 80
2, 124547, Note_on_c, 3, 67, 0
2, 124560, Note_on_c, 3, 64, 80
2, 124787, Note_on_c, 3, 64, 0
2, 124800, Note_on_c, 3, 60, 80
2, 125027, Note_on_c, 3, 60, 0
2, 125040, Note_on_c, 3, 64, 80
2, 125267, Note_on_c, 3, 64, 0
2, 125280, Note_on_c, 3, 67, 80
2, 125507, Note_on_c, 3, 67, 0
2, 125520, Note_on_c, 3, 64, 80
2, 125747, Note_on_c, 3, 64, 0
2, 125760, Note_on_c, 3, 59, 80
2, 125987, Note_on_c, 3, 59, 0
2, 126000, Note_on_c, 3, 64, 80
2, 126227, Note_on_c, 3, 64, 0
2, 126240, Note_on_c, 3, 67, 80
2, 126467, Note_on_c, 3, 67, 0
2, 126480, Note_on_c, 3, 64, 80
2, 126707, Note_on_c, 3, 64, 0
2, 126720, Note_on_c, 3, 57, 80
2, 126947, Note_on_c, 3, 57, 0
2, 126960, Note_on_c, 3, 60, 80
2, 127187, Note_on_c, 3, 60, 0
2, 127200, Note_on_c, 3, 64, 80
2, 127427, Note_on_c, 3, 64, 0
2, 127440, Note_on_c, 3, 60, 80
2, 127667, Note_on_c, 3, 60, 0
2, 127680, Note_on_c, 3, 57, 80
2, 127907, Note_on_c, 3, 57, 0
2, 127920, Note_on_c, 3, 60, 80
2, 128147, Note_on_c, 3, 60, 0
2, 128160, Note_on_c, 3, 64, 80
2, 128387, Note_on_c, 3, 64, 0
2, 128400, Note_on_c, 3, 60, 80
2, 128627, Note_on_c, 3, 60, 0
2, 128640, Note_on_c, 3, 57, 80
2, 128867, Note_on_c, 3, 57, 0
2, 128880, Note_on_c, 3, 60, 80
2, 129107, Note_on_c, 3, 60, 0
2, 129120, Note_on_c, 3, 64, 80
2, 129347, Note_on_c, 3, 64, 0
2, 129360, Note_on_c, 3, 60, 80
2, 129587, Note_on_c, 3, 60, 0
2, 129600, Note_on_c, 3, 57, 80
2, 129827, Note_on_c, 3, 57, 0
2, 129840, Note_on_c, 3, 60, 80
2, 130067, Note_on_c, 3, 60, 0
2, 130080, Note_on_c, 3, 64, 80
2, 130307, Note_on_c, 3, 64, 0
2, 130320, Note_on_c, 3, 60, 80
2, 130547, Note_on_c, 3, 60, 0
2, 130560, Note_on_c, 3, 57, 80
2, 130787, Note_on_c, 3, 57, 0
2, 130800, Note_on_c, 3, 60, 80
2, 131027, Note_on_c, 3, 60, 0
2, 131040, Note_on_c, 3, 64, 80
2, 131267, Note_on_c, 3, 64, 0
2, 131280, Note_on_c, 3, 60, 80
2, 131507, Note_on_c, 3, 60, 0
2, 131520, Note_on_c, 3, 57, 80
2, 131747, Note_on_c, 3, 57, 0
2, 131760, Note_on_c, 3, 60, 80
2, 131987, Note_on_c, 3, 60, 0
2, 132000, Note_on_c, 3, 64, 80
2, 132227, Note_on_c, 3, 64, 0
2, 132240, Note_on_c, 3, 60, 80
2, 132467, Note_on_c, 3, 60, 0
2, 132480, Note_on_c, 3, 57, 80
2, 132707, Note_on_c, 3, 57, 0
2, 132720, Note_on_c, 3, 62, 80
2, 132947, Note_on_c, 3, 62, 0
2, 132960, Note_on_c, 3, 65, 80
2, 133187, Note_on_c, 3, 65, 0
2, 133200, Note_on_c, 3, 62, 80
2, 133427, Note_on_c, 3, 62, 0
2, 133440, Note_on_c, 3, 60, 80
2, 133667, Note_on_c, 3, 60, 0
2, 133680, Note_on_c, 3, 62, 80
2, 133907, Note_on_c, 3, 62, 0
2, 133920, Note_on_c, 3, 65, 80
2, 134147, Note_on_c, 3, 65, 0
2, 134160, Note_on_c, 3, 62, 80
2, 134387, Note_on_c, 3, 62, 0
2, 134400, Note_on_c, 3, 57, 80
2, 134627, Note_on_c, 3, 57, 0
2, 134640, Note_on_c, 3, 62, 80
2, 134867, Note_on_c, 3, 62, 0
2, 134880, Note_on_c, 3, 65, 80
2, 135107, Note_on_c, 3, 65, 0
2, 135120, Note_on_c, 3, 62, 80
2, 135347, Note_on_c, 3, 62, 0
2, 135360, Note_on_c, 3, 57, 80
2, 135587, Note_on_c, 3, 57, 0
2, 135600, Note_on_c, 3, 62, 80
2, 135827, Note_on_c, 3, 62, 0
2, 135840, Note_on_c, 3, 65, 80
2, 136067, Note_on_c, 3, 65, 0
2, 136080, Note_on_c, 3, 62, 80
2, 136307, Note_on_c, 3, 62, 0
2, 136320, Note_on_c, 3, 55, 80
2, 136547, Note_on_c, 3, 55, 0
2, 136560, Note_on_c, 3, 62, 80
2, 136787, Note_on_c, 3, 62, 0
2, 136800, Note_on_c, 3, 67, 80
2, 137027, Note_on_c, 3, 67, 0
2, 137040, Note_on_c, 3, 62, 80
2, 137267, Note_on_c, 3, 62, 0
2, 137280, Note_on_c, 3, 59, 80
2, 137507, Note_on_c, 3, 59, 0
2, 137520, Note_on_c, 3, 62, 80
2, 137747, Note_on_c, 3, 62, 0
2, 137760, Note_on_c, 3, 67, 80
2, 137987, Note_on_c, 3, 67, 0
2, 138000, Note_on_c, 3, 62, 80
2, 138227, Note_on_c, 3, 62, 0
2, 138240, Note_on_c, 3, 67, 80
2, 139607, Note_on_c, 3, 67, 0
2, 139920, Note_on_c, 3, 67, 80
2, 141971, Note_on_c, 3, 67, 0
2, 141972, End_track
3, 0, Start_track
3, 0, Title_t, "Electric Bass, Bass\000"
3, 0, Key_signature, 0, "major"
3, 0, Control_c, 4, 121, 0
3, 0, Program_c, 4, 33
3, 0, Control_c, 4, 7, 100
3, 0, Control_c, 4, 10, 64
3, 0, Control_c, 4, 91, 0
3, 0, Control_c, 4, 93, 0
3, 0, MIDI_port, 0
3, 0, Note_on_c, 4, 60, 80
3, 0, Control_c, 2, 121, 0
3, 0, Program_c, 2, 36
3, 0, Control_c, 2, 7, 100
3, 0, Control_c, 2, 10, 64
3, 0, Control_c, 2, 91, 0
3, 0, Control_c, 2, 93, 0
3, 0, MIDI_port, 0
3, 0, Control_c, 6, 121, 0
3, 0, Program_c, 6, 37
3, 0, Control_c, 6, 7, 100
3, 0, Control_c, 6, 10, 64
3, 0, Control_c, 6, 91, 0
3, 0, Control_c, 6, 93, 0
3, 0, MIDI_port, 0
3, 479, Note_on_c, 4, 60, 0
3, 720, Note_on_c, 4, 60, 80
3, 959, Note_on_c, 4, 60, 0
3, 960, Note_on_c, 4, 60, 80
3, 1199, Note_on_c, 4, 60, 0
3, 1200, Note_on_c, 4, 60, 80
3, 1679, Note_on_c, 4, 60, 0
3, 1680, Note_on_c, 4, 60, 80
3, 1919, Note_on_c, 4, 60, 0
3, 1920, Note_on_c, 4, 60, 80
3, 2399, Note_on_c, 4, 60, 0
3, 2400, Note_on_c, 4, 60, 80
3, 2639, Note_on_c, 4, 60, 0
3, 2640, Note_on_c, 4, 60, 80
3, 2879, Note_on_c, 4, 60, 0
3, 2880, Note_on_c, 4, 59, 80
3, 3119, Note_on_c, 4, 59, 0
3, 3120, Note_on_c, 4, 60, 80
3, 3359, Note_on_c, 4, 60, 0
3, 3360, Note_on_c, 4, 59, 80
3, 3599, Note_on_c, 4, 59, 0
3, 3600, Note_on_c, 4, 60, 80
3, 3839, Note_on_c, 4, 60, 0
3, 3840, Note_on_c, 4, 57, 80
3, 4319, Note_on_c, 4, 57, 0
3, 4560, Note_on_c, 4, 57, 80
3, 4799, Note_on_c, 4, 57, 0
3, 4800, Note_on_c, 4, 57, 80
3, 5039, Note_on_c, 4, 57, 0
3, 5040, Note_on_c, 4, 57, 80
3, 5519, Note_on_c, 4, 57, 0
3, 5520, Note_on_c, 4, 57, 80
3, 5759, Note_on_c, 4, 57, 0
3, 5760, Note_on_c, 4, 57, 80
3, 6239, Note_on_c, 4, 57, 0
3, 6240, Note_on_c, 4, 57, 80
3, 6479, Note_on_c, 4, 57, 0
3, 6480, Note_on_c, 4, 57, 80
3, 6719, Note_on_c, 4, 57, 0
3, 6720, Note_on_c, 4, 57, 80
3, 7199, Note_on_c, 4, 57, 0
3, 7200, Note_on_c, 4, 59, 80
3, 7679, Note_on_c, 4, 59, 0
3, 7680, Note_on_c, 4, 62, 80
3, 8159, Note_on_c, 4, 62, 0
3, 8400, Note_on_c, 4, 62, 80
3, 8639, Note_on_c, 4, 62, 0
3, 8640, Note_on_c, 4, 62, 80
3, 8879, Note_on_c, 4, 62, 0
3, 8880, Note_on_c, 4, 62, 80
3, 9359, Note_on_c, 4, 62, 0
3, 9360, Note_on_c, 4, 62, 80
3, 9599, Note_on_c, 4, 62, 0
3, 9600, Note_on_c, 4, 62, 80
3, 10079, Note_on_c, 4, 62, 0
3, 10080, Note_on_c, 4, 62, 80
3, 10319, Note_on_c, 4, 62, 0
3, 10320, Note_on_c, 4, 62, 80
3, 10559, Note_on_c, 4, 62, 0
3, 10560, Note_on_c, 4, 64, 80
3, 10799, Note_on_c, 4, 64, 0
3, 10800, Note_on_c, 4, 65, 80
3, 11039, Note_on_c, 4, 65, 0
3, 11040, Note_on_c, 4, 64, 80
3, 11279, Note_on_c, 4, 64, 0
3, 11280, Note_on_c, 4, 65, 80
3, 11519, Note_on_c, 4, 65, 0
3, 11520, Note_on_c, 4, 55, 80
3, 11999, Note_on_c, 4, 55, 0
3, 12240, Note_on_c, 4, 55, 80
3, 12479, Note_on_c, 4, 55, 0
3, 12480, Note_on_c, 4, 55, 80
3, 12719, Note_on_c, 4, 55, 0
3, 12720, Note_on_c, 4, 55, 80
3, 13199, Note_on_c, 4, 55, 0
3, 13200, Note_on_c, 4, 55, 80
3, 13439, Note_on_c, 4, 55, 0
3, 13440, Note_on_c, 4, 55, 80
3, 13919, Note_on_c, 4, 55, 0
3, 13920, Note_on_c, 4, 57, 80
3, 14399, Note_on_c, 4, 57, 0
3, 14400, Note_on_c, 4, 59, 80
3, 14879, Note_on_c, 4, 59, 0
3, 14880, Note_on_c, 4, 62, 80
3, 15359, Note_on_c, 4, 62, 0
3, 15360, Note_on_c, 4, 60, 80
3, 15839, Note_on_c, 4, 60, 0
3, 16080, Note_on_c, 4, 60, 80
3, 16319, Note_on_c, 4, 60, 0
3, 16320, Note_on_c, 4, 60, 80
3, 16559, Note_on_c, 4, 60, 0
3, 16560, Note_on_c, 4, 60, 80
3, 17039, Note_on_c, 4, 60, 0
3, 17040, Note_on_c, 4, 60, 80
3, 17279, Note_on_c, 4, 60, 0
3, 17280, Note_on_c, 4, 60, 80
3, 17759, Note_on_c, 4, 60, 0
3, 17760, Note_on_c, 4, 60, 80
3, 17999, Note_on_c, 4, 60, 0
3, 18000, Note_on_c, 4, 60, 80
3, 18239, Note_on_c, 4, 60, 0
3, 18240, Note_on_c, 4, 59, 80
3, 18479, Note_on_c, 4, 59, 0
3, 18480, Note_on_c, 4, 60, 80
3, 18719, Note_on_c, 4, 60, 0
3, 18720, Note_on_c, 4, 59, 80
3, 18959, Note_on_c, 4, 59, 0
3, 18960, Note_on_c, 4, 60, 80
3, 19199, Note_on_c, 4, 60, 0
3, 19200, Note_on_c, 4, 57, 80
3, 19679, Note_on_c, 4, 57, 0
3, 19920, Note_on_c, 4, 57, 80
3, 20159, Note_on_c, 4, 57, 0
3, 20160, Note_on_c, 4, 57, 80
3, 20399, Note_on_c, 4, 57, 0
3, 20400, Note_on_c, 4, 57, 80
3, 20879, Note_on_c, 4, 57, 0
3, 20880, Note_on_c, 4, 57, 80
3, 21119, Note_on_c, 4, 57, 0
3, 21120, Note_on_c, 4, 57, 80
3, 21599, Note_on_c, 4, 57, 0
3, 21600, Note_on_c, 4, 57, 80
3, 21839, Note_on_c, 4, 57, 0
3, 21840, Note_on_c, 4, 57, 80
3, 22079, Note_on_c, 4, 57, 0
3, 22080, Note_on_c, 4, 57, 80
3, 22559, Note_on_c, 4, 57, 0
3, 22560, Note_on_c, 4, 59, 80
3, 23039, Note_on_c, 4, 59, 0
3, 23040, Note_on_c, 4, 62, 80
3, 23519, Note_on_c, 4, 62, 0
3, 23760, Note_on_c, 4, 62, 80
3, 23999, Note_on_c, 4, 62, 0
3, 24000, Note_on_c, 4, 62, 80
3, 24239, Note_on_c, 4, 62, 0
3, 24240, Note_on_c, 4, 62, 80
3, 24719, Note_on_c, 4, 62, 0
3, 24720, Note_on_c, 4, 62, 80
3, 24959, Note_on_c, 4, 62, 0
3, 24960, Note_on_c, 4, 62, 80
3, 25439, Note_on_c, 4, 62, 0
3, 25440, Note_on_c, 4, 62, 80
3, 25679, Note_on_c, 4, 62, 0
3, 25680, Note_on_c, 4, 62, 80
3, 25919, Note_on_c, 4, 62, 0
3, 25920, Note_on_c, 4, 64, 80
3, 26159, Note_on_c, 4, 64, 0
3, 26160, Note_on_c, 4, 65, 80
3, 26399, Note_on_c, 4, 65, 0
3, 26400, Note_on_c, 4, 64, 80
3, 26639, Note_on_c, 4, 64, 0
3, 26640, Note_on_c, 4, 65, 80
3, 26879, Note_on_c, 4, 65, 0
3, 26880, Note_on_c, 4, 55, 80
3, 27359, Note_on_c, 4, 55, 0
3, 27600, Note_on_c, 4, 55, 80
3, 27839, Note_on_c, 4, 55, 0
3, 27840, Note_on_c, 4, 55, 80
3, 28079, Note_on_c, 4, 55, 0
3, 28080, Note_on_c, 4, 55, 80
3, 28559, Note_on_c, 4, 55, 0
3, 28560, Note_on_c, 4, 55, 80
3, 28799, Note_on_c, 4, 55, 0
3, 28800, Note_on_c, 4, 55, 80
3, 29279, Note_on_c, 4, 55, 0
3, 29280, Note_on_c, 4, 57, 80
3, 29759, Note_on_c, 4, 57, 0
3, 29760, Note_on_c, 4, 59, 80
3, 30239, Note_on_c, 4, 59, 0
3, 30240, Note_on_c, 4, 62, 80
3, 30719, Note_on_c, 4, 62, 0
3, 30720, Note_on_c, 4, 60, 80
3, 31199, Note_on_c, 4, 60, 0
3, 31440, Note_on_c, 4, 60, 80
3, 31679, Note_on_c, 4, 60, 0
3, 31680, Note_on_c, 4, 60, 80
3, 31919, Note_on_c, 4, 60, 0
3, 31920, Note_on_c, 4, 60, 80
3, 32399, Note_on_c, 4, 60, 0
3, 32400, Note_on_c, 4, 60, 80
3, 32639, Note_on_c, 4, 60, 0
3, 32640, Note_on_c, 4, 60, 80
3, 33119, Note_on_c, 4, 60, 0
3, 33120, Note_on_c, 4, 60, 80
3, 33359, Note_on_c, 4, 60, 0
3, 33360, Note_on_c, 4, 60, 80
3, 33599, Note_on_c, 4, 60, 0
3, 33600, Note_on_c, 4, 59, 80
3, 33839, Note_on_c, 4, 59, 0
3, 33840, Note_on_c, 4, 60, 80
3, 34079, Note_on_c, 4, 60, 0
3, 34080, Note_on_c, 4, 59, 80
3, 34319, Note_on_c, 4, 59, 0
3, 34320, Note_on_c, 4, 60, 80
3, 34559, Note_on_c, 4, 60, 0
3, 34560, Note_on_c, 4, 57, 80
3, 35039, Note_on_c, 4, 57, 0
3, 35280, Note_on_c, 4, 57, 80
3, 35519, Note_on_c, 4, 57, 0
3, 35520, Note_on_c, 4, 57, 80
3, 35759, Note_on_c, 4, 57, 0
3, 35760, Note_on_c, 4, 57, 80
3, 36239, Note_on_c, 4, 57, 0
3, 36240, Note_on_c, 4, 57, 80
3, 36479, Note_on_c, 4, 57, 0
3, 36480, Note_on_c, 4, 57, 80
3, 36959, Note_on_c, 4, 57, 0
3, 36960, Note_on_c, 4, 59, 80
3, 37439, Note_on_c, 4, 59, 0
3, 37440, Note_on_c, 4, 60, 80
3, 37919, Note_on_c, 4, 60, 0
3, 37920, Note_on_c, 4, 64, 80
3, 38399, Note_on_c, 4, 64, 0
3, 38400, Note_on_c, 4, 62, 80
3, 38879, Note_on_c, 4, 62, 0
3, 39120, Note_on_c, 4, 62, 80
3, 39359, Note_on_c, 4, 62, 0
3, 39360, Note_on_c, 4, 62, 80
3, 39599, Note_on_c, 4, 62, 0
3, 39600, Note_on_c, 4, 62, 80
3, 40079, Note_on_c, 4, 62, 0
3, 40080, Note_on_c, 4, 62, 80
3, 40319, Note_on_c, 4, 62, 0
3, 40320, Note_on_c, 4, 62, 80
3, 40799, Note_on_c, 4, 62, 0
3, 40800, Note_on_c, 4, 62, 80
3, 41039, Note_on_c, 4, 62, 0
3, 41040, Note_on_c, 4, 62, 80
3, 41279, Note_on_c, 4, 62, 0
3, 41280, Note_on_c, 4, 64, 80
3, 41519, Note_on_c, 4, 64, 0
3, 41520, Note_on_c, 4, 65, 80
3, 41759, Note_on_c, 4, 65, 0
3, 41760, Note_on_c, 4, 64, 80
3, 41999, Note_on_c, 4, 64, 0
3, 42000, Note_on_c, 4, 65, 80
3, 42239, Note_on_c, 4, 65, 0
3, 42240, Note_on_c, 4, 55, 80
3, 42719, Note_on_c, 4, 55, 0
3, 42960, Note_on_c, 4, 55, 80
3, 43199, Note_on_c, 4, 55, 0
3, 43200, Note_on_c, 4, 55, 80
3, 43439, Note_on_c, 4, 55, 0
3, 43440, Note_on_c, 4, 55, 80
3, 43919, Note_on_c, 4, 55, 0
3, 43920, Note_on_c, 4, 55, 80
3, 44159, Note_on_c, 4, 55, 0
3, 44160, Note_on_c, 4, 55, 80
3, 44639, Note_on_c, 4, 55, 0
3, 44640, Note_on_c, 4, 57, 80
3, 45119, Note_on_c, 4, 57, 0
3, 45120, Note_on_c, 4, 59, 80
3, 45599, Note_on_c, 4, 59, 0
3, 45600, Note_on_c, 4, 62, 80
3, 46079, Note_on_c, 4, 62, 0
3, 46080, Note_on_c, 4, 60, 80
3, 47519, Note_on_c, 4, 60, 0
3, 47520, Note_on_c, 4, 60, 80
3, 47759, Note_on_c, 4, 60, 0
3, 47760, Note_on_c, 4, 60, 80
3, 47999, Note_on_c, 4, 60, 0
3, 48000, Note_on_c, 4, 60, 80
3, 48959, Note_on_c, 4, 60, 0
3, 48960, Note_on_c, 4, 59, 80
3, 49199, Note_on_c, 4, 59, 0
3, 49200, Note_on_c, 4, 60, 80
3, 49439, Note_on_c, 4, 60, 0
3, 49440, Note_on_c, 4, 59, 80
3, 49679, Note_on_c, 4, 59, 0
3, 49680, Note_on_c, 4, 60, 80
3, 49919, Note_on_c, 4, 60, 0
3, 49920, Note_on_c, 4, 57, 80
3, 50639, Note_on_c, 4, 57, 0
3, 50640, Note_on_c, 4, 57, 80
3, 50879, Note_on_c, 4, 57, 0
3, 50880, Note_on_c, 4, 57, 80
3, 51839, Note_on_c, 4, 57, 0
3, 51840, Note_on_c, 4, 57, 80
3, 52559, Note_on_c, 4, 57, 0
3, 52560, Note_on_c, 4, 57, 80
3, 52799, Note_on_c, 4, 57, 0
3, 52800, Note_on_c, 4, 57, 80
3, 53519, Note_on_c, 4, 57, 0
3, 53520, Note_on_c, 4, 59, 80
3, 53759, Note_on_c, 4, 59, 0
3, 53760, Note_on_c, 4, 62, 80
3, 54479, Note_on_c, 4, 62, 0
3, 54480, Note_on_c, 4, 62, 80
3, 54719, Note_on_c, 4, 62, 0
3, 54720, Note_on_c, 4, 62, 80
3, 55679, Note_on_c, 4, 62, 0
3, 55680, Note_on_c, 4, 62, 80
3, 56639, Note_on_c, 4, 62, 0
3, 56640, Note_on_c, 4, 64, 80
3, 56879, Note_on_c, 4, 64, 0
3, 56880, Note_on_c, 4, 65, 80
3, 57119, Note_on_c, 4, 65, 0
3, 57120, Note_on_c, 4, 64, 80
3, 57359, Note_on_c, 4, 64, 0
3, 57360, Note_on_c, 4, 65, 80
3, 57599, Note_on_c, 4, 65, 0
3, 57600, Note_on_c, 4, 55, 80
3, 58319, Note_on_c, 4, 55, 0
3, 58320, Note_on_c, 4, 55, 80
3, 58559, Note_on_c, 4, 55, 0
3, 58560, Note_on_c, 4, 55, 80
3, 59279, Note_on_c, 4, 55, 0
3, 59280, Note_on_c, 4, 55, 80
3, 59519, Note_on_c, 4, 55, 0
3, 59520, Note_on_c, 4, 55, 80
3, 59999, Note_on_c, 4, 55, 0
3, 60000, Note_on_c, 4, 57, 80
3, 60479, Note_on_c, 4, 57, 0
3, 60480, Note_on_c, 4, 59, 80
3, 60959, Note_on_c, 4, 59, 0
3, 60960, Note_on_c, 4, 62, 80
3, 61439, Note_on_c, 4, 62, 0
3, 61440, Note_on_c, 4, 60, 80
3, 61919, Note_on_c, 4, 60, 0
3, 62160, Note_on_c, 4, 60, 80
3, 62399, Note_on_c, 4, 60, 0
3, 62400, Note_on_c, 4, 60, 80
3, 62639, Note_on_c, 4, 60, 0
3, 62640, Note_on_c, 4, 60, 80
3, 63119, Note_on_c, 4, 60, 0
3, 63120, Note_on_c, 4, 60, 80
3, 63359, Note_on_c, 4, 60, 0
3, 63360, Note_on_c, 4, 60, 80
3, 63839, Note_on_c, 4, 60, 0
3, 63840, Note_on_c, 4, 60, 80
3, 64319, Note_on_c, 4, 60, 0
3, 64320, Note_on_c, 4, 59, 80
3, 64559, Note_on_c, 4, 59, 0
3, 64560, Note_on_c, 4, 60, 80
3, 64799, Note_on_c, 4, 60, 0
3, 64800, Note_on_c, 4, 59, 80
3, 65039, Note_on_c, 4, 59, 0
3, 65040, Note_on_c, 4, 60, 80
3, 65279, Note_on_c, 4, 60, 0
3, 65280, Note_on_c, 4, 57, 80
3, 65759, Note_on_c, 4, 57, 0
3, 66000, Note_on_c, 4, 57, 80
3, 66239, Note_on_c, 4, 57, 0
3, 66240, Note_on_c, 4, 57, 80
3, 66479, Note_on_c, 4, 57, 0
3, 66480, Note_on_c, 4, 57, 80
3, 66959, Note_on_c, 4, 57, 0
3, 66960, Note_on_c, 4, 57, 80
3, 67199, Note_on_c, 4, 57, 0
3, 67200, Note_on_c, 4, 57, 80
3, 67679, Note_on_c, 4, 57, 0
3, 67680, Note_on_c, 4, 57, 80
3, 67919, Note_on_c, 4, 57, 0
3, 67920, Note_on_c, 4, 57, 80
3, 68159, Note_on_c, 4, 57, 0
3, 68160, Note_on_c, 4, 57, 80
3, 68639, Note_on_c, 4, 57, 0
3, 68640, Note_on_c, 4, 59, 80
3, 69119, Note_on_c, 4, 59, 0
3, 69120, Note_on_c, 4, 62, 80
3, 69599, Note_on_c, 4, 62, 0
3, 69840, Note_on_c, 4, 62, 80
3, 70079, Note_on_c, 4, 62, 0
3, 70080, Note_on_c, 4, 62, 80
3, 70319, Note_on_c, 4, 62, 0
3, 70320, Note_on_c, 4, 62, 80
3, 70799, Note_on_c, 4, 62, 0
3, 70800, Note_on_c, 4, 62, 80
3, 71039, Note_on_c, 4, 62, 0
3, 71040, Note_on_c, 4, 62, 80
3, 71519, Note_on_c, 4, 62, 0
3, 71520, Note_on_c, 4, 62, 80
3, 71999, Note_on_c, 4, 62, 0
3, 72000, Note_on_c, 4, 64, 80
3, 72239, Note_on_c, 4, 64, 0
3, 72240, Note_on_c, 4, 65, 80
3, 72479, Note_on_c, 4, 65, 0
3, 72480, Note_on_c, 4, 64, 80
3, 72719, Note_on_c, 4, 64, 0
3, 72720, Note_on_c, 4, 65, 80
3, 72959, Note_on_c, 4, 65, 0
3, 72960, Note_on_c, 4, 55, 80
3, 73439, Note_on_c, 4, 55, 0
3, 73680, Note_on_c, 4, 55, 80
3, 73919, Note_on_c, 4, 55, 0
3, 73920, Note_on_c, 4, 55, 80
3, 74159, Note_on_c, 4, 55, 0
3, 74160, Note_on_c, 4, 55, 80
3, 74639, Note_on_c, 4, 55, 0
3, 74640, Note_on_c, 4, 55, 80
3, 74879, Note_on_c, 4, 55, 0
3, 74880, Note_on_c, 4, 55, 80
3, 75359, Note_on_c, 4, 55, 0
3, 75360, Note_on_c, 4, 57, 80
3, 75839, Note_on_c, 4, 57, 0
3, 75840, Note_on_c, 4, 59, 80
3, 76319, Note_on_c, 4, 59, 0
3, 76320, Note_on_c, 4, 62, 80
3, 76799, Note_on_c, 4, 62, 0
3, 76800, Note_on_c, 4, 60, 80
3, 77279, Note_on_c, 4, 60, 0
3, 77520, Note_on_c, 4, 60, 80
3, 77759, Note_on_c, 4, 60, 0
3, 77760, Note_on_c, 4, 60, 80
3, 77999, Note_on_c, 4, 60, 0
3, 78000, Note_on_c, 4, 60, 80
3, 78479, Note_on_c, 4, 60, 0
3, 78480, Note_on_c, 4, 60, 80
3, 78719, Note_on_c, 4, 60, 0
3, 78720, Note_on_c, 4, 60, 80
3, 79199, Note_on_c, 4, 60, 0
3, 79200, Note_on_c, 4, 60, 80
3, 79439, Note_on_c, 4, 60, 0
3, 79440, Note_on_c, 4, 60, 80
3, 79679, Note_on_c, 4, 60, 0
3, 79680, Note_on_c, 4, 59, 80
3, 79919, Note_on_c, 4, 59, 0
3, 79920, Note_on_c, 4, 60, 80
3, 80159, Note_on_c, 4, 60, 0
3, 80160, Note_on_c, 4, 59, 80
3, 80399, Note_on_c, 4, 59, 0
3, 80400, Note_on_c, 4, 60, 80
3, 80639, Note_on_c, 4, 60, 0
3, 80640, Note_on_c, 4, 57, 80
3, 81119, Note_on_c, 4, 57, 0
3, 81360, Note_on_c, 4, 57, 80
3, 81599, Note_on_c, 4, 57, 0
3, 81600, Note_on_c, 4, 57, 80
3, 81839, Note_on_c, 4, 57, 0
3, 81840, Note_on_c, 4, 57, 80
3, 82319, Note_on_c, 4, 57, 0
3, 82320, Note_on_c, 4, 57, 80
3, 82559, Note_on_c, 4, 57, 0
3, 82560, Note_on_c, 4, 57, 80
3, 83039, Note_on_c, 4, 57, 0
3, 83040, Note_on_c, 4, 59, 80
3, 83519, Note_on_c, 4, 59, 0
3, 83520, Note_on_c, 4, 60, 80
3, 83999, Note_on_c, 4, 60, 0
3, 84000, Note_on_c, 4, 64, 80
3, 84479, Note_on_c, 4, 64, 0
3, 84480, Note_on_c, 4, 62, 80
3, 84959, Note_on_c, 4, 62, 0
3, 85200, Note_on_c, 4, 62, 80
3, 85439, Note_on_c, 4, 62, 0
3, 85440, Note_on_c, 4, 62, 80
3, 85679, Note_on_c, 4, 62, 0
3, 85680, Note_on_c, 4, 62, 80
3, 86159, Note_on_c, 4, 62, 0
3, 86160, Note_on_c, 4, 62, 80
3, 86399, Note_on_c, 4, 62, 0
3, 86400, Note_on_c, 4, 62, 80
3, 86879, Note_on_c, 4, 62, 0
3, 86880, Note_on_c, 4, 62, 80
3, 87119, Note_on_c, 4, 62, 0
3, 87120, Note_on_c, 4, 62, 80
3, 87359, Note_on_c, 4, 62, 0
3, 87360, Note_on_c, 4, 64, 80
3, 87599, Note_on_c, 4, 64, 0
3, 87600, Note_on_c, 4, 65, 80
3, 87839, Note_on_c, 4, 65, 0
3, 87840, Note_on_c, 4, 64, 80
3, 88079, Note_on_c, 4, 64, 0
3, 88080, Note_on_c, 4, 65, 80
3, 88319, Note_on_c, 4, 65, 0
3, 88320, Note_on_c, 4, 55, 80
3, 88799, Note_on_c, 4, 55, 0
3, 89040, Note_on_c, 4, 55, 80
3, 89279, Note_on_c, 4, 55, 0
3, 89280, Note_on_c, 4, 55, 80
3, 89519, Note_on_c, 4, 55, 0
3, 89520, Note_on_c, 4, 55, 80
3, 89999, Note_on_c, 4, 55, 0
3, 90000, Note_on_c, 4, 55, 80
3, 90239, Note_on_c, 4, 55, 0
3, 90240, Note_on_c, 4, 55, 80
3, 90719, Note_on_c, 4, 55, 0
3, 90720, Note_on_c, 4, 57, 80
3, 91199, Note_on_c, 4, 57, 0
3, 91200, Note_on_c, 4, 59, 80
3, 91679, Note_on_c, 4, 59, 0
3, 91680, Note_on_c, 4, 62, 80
3, 92159, Note_on_c, 4, 62, 0
3, 92160, Note_on_c, 4, 60, 80
3, 92639, Note_on_c, 4, 60, 0
3, 92880, Note_on_c, 4, 60, 80
3, 93839, Note_on_c, 4, 60, 0
3, 93840, Note_on_c, 4, 60, 80
3, 94079, Note_on_c, 4, 60, 0
3, 94080, Note_on_c, 4, 60, 80
3, 94559, Note_on_c, 4, 60, 0
3, 94560, Note_on_c, 4, 60, 80
3, 94799, Note_on_c, 4, 60, 0
3, 94800, Note_on_c, 4, 60, 80
3, 95039, Note_on_c, 4, 60, 0
3, 95040, Note_on_c, 4, 59, 80
3, 95279, Note_on_c, 4, 59, 0
3, 95280, Note_on_c, 4, 60, 80
3, 95519, Note_on_c, 4, 60, 0
3, 95520, Note_on_c, 4, 59, 80
3, 95759, Note_on_c, 4, 59, 0
3, 95760, Note_on_c, 4, 60, 80
3, 95999, Note_on_c, 4, 60, 0
3, 96000, Note_on_c, 4, 57, 80
3, 96479, Note_on_c, 4, 57, 0
3, 96720, Note_on_c, 4, 57, 80
3, 97679, Note_on_c, 4, 57, 0
3, 97680, Note_on_c, 4, 57, 80
3, 97919, Note_on_c, 4, 57, 0
3, 97920, Note_on_c, 4, 57, 80
3, 98399, Note_on_c, 4, 57, 0
3, 98400, Note_on_c, 4, 59, 80
3, 98879, Note_on_c, 4, 59, 0
3, 98880, Note_on_c, 4, 60, 80
3, 99359, Note_on_c, 4, 60, 0
3, 99360, Note_on_c, 4, 64, 80
3, 99839, Note_on_c, 4, 64, 0
3, 99840, Note_on_c, 4, 62, 80
3, 100319, Note_on_c, 4, 62, 0
3, 100560, Note_on_c, 4, 62, 80
3, 100799, Note_on_c, 4, 62, 0
3, 100800, Note_on_c, 4, 62, 80
3, 101039, Note_on_c, 4, 62, 0
3, 101040, Note_on_c, 4, 62, 80
3, 101519, Note_on_c, 4, 62, 0
3, 101520, Note_on_c, 4, 62, 80
3, 101759, Note_on_c, 4, 62, 0
3, 101760, Note_on_c, 4, 62, 80
3, 102239, Note_on_c, 4, 62, 0
3, 102240, Note_on_c, 4, 62, 80
3, 102479, Note_on_c, 4, 62, 0
3, 102480, Note_on_c, 4, 62, 80
3, 102719, Note_on_c, 4, 62, 0
3, 102720, Note_on_c, 4, 64, 80
3, 102959, Note_on_c, 4, 64, 0
3, 102960, Note_on_c, 4, 65, 80
3, 103199, Note_on_c, 4, 65, 0
3, 103200, Note_on_c, 4, 64, 80
3, 103439, Note_on_c, 4, 64, 0
3, 103440, Note_on_c, 4, 65, 80
3, 103679, Note_on_c, 4, 65, 0
3, 103680, Note_on_c, 4, 55, 80
3, 104159, Note_on_c, 4, 55, 0
3, 104400, Note_on_c, 4, 55, 80
3, 104639, Note_on_c, 4, 55, 0
3, 104640, Note_on_c, 4, 55, 80
3, 104879, Note_on_c, 4, 55, 0
3, 104880, Note_on_c, 4, 55, 80
3, 105359, Note_on_c, 4, 55, 0
3, 105360, Note_on_c, 4, 55, 80
3, 105599, Note_on_c, 4, 55, 0
3, 105600, Note_on_c, 4, 55, 80
3, 106079, Note_on_c, 4, 55, 0
3, 106080, Note_on_c, 4, 57, 80
3, 106559, Note_on_c, 4, 57, 0
3, 106560, Note_on_c, 4, 59, 80
3, 107039, Note_on_c, 4, 59, 0
3, 107040, Note_on_c, 4, 62, 80
3, 107519, Note_on_c, 4, 62, 0
3, 107520, Note_on_c, 4, 60, 80
3, 107999, Note_on_c, 4, 60, 0
3, 108240, Note_on_c, 4, 60, 80
3, 108479, Note_on_c, 4, 60, 0
3, 108480, Note_on_c, 4, 60, 80
3, 108719, Note_on_c, 4, 60, 0
3, 108720, Note_on_c, 4, 60, 80
3, 109199, Note_on_c, 4, 60, 0
3, 109200, Note_on_c, 4, 60, 80
3, 109439, Note_on_c, 4, 60, 0
3, 109440, Note_on_c, 4, 60, 80
3, 109919, Note_on_c, 4, 60, 0
3, 109920, Note_on_c, 4, 60, 80
3, 110399, Note_on_c, 4, 60, 0
3, 110400, Note_on_c, 4, 59, 80
3, 110639, Note_on_c, 4, 59, 0
3, 110640, Note_on_c, 4, 60, 80
3, 110879, Note_on_c, 4, 60, 0
3, 110880, Note_on_c, 4, 59, 80
3, 111119, Note_on_c, 4, 59, 0
3, 111120, Note_on_c, 4, 60, 80
3, 111359, Note_on_c, 4, 60, 0
3, 111360, Note_on_c, 4, 57, 80
3, 111839, Note_on_c, 4, 57, 0
3, 112080, Note_on_c, 4, 57, 80
3, 112319, Note_on_c, 4, 57, 0
3, 112320, Note_on_c, 4, 57, 80
3, 112559, Note_on_c, 4, 57, 0
3, 112560, Note_on_c, 4, 57, 80
3, 113039, Note_on_c, 4, 57, 0
3, 113040, Note_on_c, 4, 57, 80
3, 113279, Note_on_c, 4, 57, 0
3, 113280, Note_on_c, 4, 57, 80
3, 113759, Note_on_c, 4, 57, 0
3, 113760, Note_on_c, 4, 57, 80
3, 113999, Note_on_c, 4, 57, 0
3, 114000, Note_on_c, 4, 57, 80
3, 114239, Note_on_c, 4, 57, 0
3, 114240, Note_on_c, 4, 57, 80
3, 114719, Note_on_c, 4, 57, 0
3, 114720, Note_on_c, 4, 59, 80
3, 115199, Note_on_c, 4, 59, 0
3, 115200, Note_on_c, 4, 62, 80
3, 115679, Note_on_c, 4, 62, 0
3, 115920, Note_on_c, 4, 62, 80
3, 116159, Note_on_c, 4, 62, 0
3, 116160, Note_on_c, 4, 62, 80
3, 116399, Note_on_c, 4, 62, 0
3, 116400, Note_on_c, 4, 62, 80
3, 116879, Note_on_c, 4, 62, 0
3, 116880, Note_on_c, 4, 62, 80
3, 117119, Note_on_c, 4, 62, 0
3, 117120, Note_on_c, 4, 62, 80
3, 117599, Note_on_c, 4, 62, 0
3, 117600, Note_on_c, 4, 62, 80
3, 118079, Note_on_c, 4, 62, 0
3, 118080, Note_on_c, 4, 64, 80
3, 118319, Note_on_c, 4, 64, 0
3, 118320, Note_on_c, 4, 65, 80
3, 118559, Note_on_c, 4, 65, 0
3, 118560, Note_on_c, 4, 64, 80
3, 118799, Note_on_c, 4, 64, 0
3, 118800, Note_on_c, 4, 65, 80
3, 119039, Note_on_c, 4, 65, 0
3, 119040, Note_on_c, 4, 55, 80
3, 119519, Note_on_c, 4, 55, 0
3, 119760, Note_on_c, 4, 55, 80
3, 119999, Note_on_c, 4, 55, 0
3, 120000, Note_on_c, 4, 55, 80
3, 120239, Note_on_c, 4, 55, 0
3, 120240, Note_on_c, 4, 55, 80
3, 120719, Note_on_c, 4, 55, 0
3, 120720, Note_on_c, 4, 55, 80
3, 120959, Note_on_c, 4, 55, 0
3, 120960, Note_on_c, 4, 55, 80
3, 121439, Note_on_c, 4, 55, 0
3, 121440, Note_on_c, 4, 57, 80
3, 121919, Note_on_c, 4, 57, 0
3, 121920, Note_on_c, 4, 59, 80
3, 122399, Note_on_c, 4, 59, 0
3, 122400, Note_on_c, 4, 62, 80
3, 122879, Note_on_c, 4, 62, 0
3, 122880, Note_on_c, 4, 60, 80
3, 123359, Note_on_c, 4, 60, 0
3, 123600, Note_on_c, 4, 60, 80
3, 124079, Note_on_c, 4, 60, 0
3, 124080, Note_on_c, 4, 60, 80
3, 124799, Note_on_c, 4, 60, 0
3, 124800, Note_on_c, 4, 60, 80
3, 125279, Note_on_c, 4, 60, 0
3, 125280, Note_on_c, 4, 60, 80
3, 125519, Note_on_c, 4, 60, 0
3, 125520, Note_on_c, 4, 60, 80
3, 125759, Note_on_c, 4, 60, 0
3, 125760, Note_on_c, 4, 59, 80
3, 125999, Note_on_c, 4, 59, 0
3, 126000, Note_on_c, 4, 60, 80
3, 126239, Note_on_c, 4, 60, 0
3, 126240, Note_on_c, 4, 59, 80
3, 126479, Note_on_c, 4, 59, 0
3, 126480, Note_on_c, 4, 60, 80
3, 126719, Note_on_c, 4, 60, 0
3, 126720, Note_on_c, 4, 57, 80
3, 127199, Note_on_c, 4, 57, 0
3, 127440, Note_on_c, 4, 57, 80
3, 127679, Note_on_c, 4, 57, 0
3, 127680, Note_on_c, 4, 57, 80
3, 127919, Note_on_c, 4, 57, 0
3, 127920, Note_on_c, 4, 57, 80
3, 128399, Note_on_c, 4, 57, 0
3, 128400, Note_on_c, 4, 57, 80
3, 128639, Note_on_c, 4, 57, 0
3, 128640, Note_on_c, 4, 57, 80
3, 129119, Note_on_c, 4, 57, 0
3, 129120, Note_on_c, 4, 57, 80
3, 129359, Note_on_c, 4, 57, 0
3, 129360, Note_on_c, 4, 57, 80
3, 129599, Note_on_c, 4, 57, 0
3, 129600, Note_on_c, 4, 57, 80
3, 130079, Note_on_c, 4, 57, 0
3, 130080, Note_on_c, 4, 59, 80
3, 130559, Note_on_c, 4, 59, 0
3, 130560, Note_on_c, 4, 62, 80
3, 131039, Note_on_c, 4, 62, 0
3, 131280, Note_on_c, 4, 62, 80
3, 131519, Note_on_c, 4, 62, 0
3, 131520, Note_on_c, 4, 62, 80
3, 131759, Note_on_c, 4, 62, 0
3, 131760, Note_on_c, 4, 62, 80
3, 132239, Note_on_c, 4, 62, 0
3, 132240, Note_on_c, 4, 62, 80
3, 132479, Note_on_c, 4, 62, 0
3, 132480, Note_on_c, 4, 62, 80
3, 132959, Note_on_c, 4, 62, 0
3, 132960, Note_on_c, 4, 62, 80
3, 133199, Note_on_c, 4, 62, 0
3, 133200, Note_on_c, 4, 62, 80
3, 133439, Note_on_c, 4, 62, 0
3, 133440, Note_on_c, 4, 64, 80
3, 133679, Note_on_c, 4, 64, 0
3, 133680, Note_on_c, 4, 65, 80
3, 133919, Note_on_c, 4, 65, 0
3, 133920, Note_on_c, 4, 64, 80
3, 134159, Note_on_c, 4, 64, 0
3, 134160, Note_on_c, 4, 65, 80
3, 134399, Note_on_c, 4, 65, 0
3, 134400, Note_on_c, 4, 55, 80
3, 134879, Note_on_c, 4, 55, 0
3, 135120, Note_on_c, 4, 55, 80
3, 135359, Note_on_c, 4, 55, 0
3, 135360, Note_on_c, 4, 55, 80
3, 135599, Note_on_c, 4, 55, 0
3, 135600, Note_on_c, 4, 55, 80
3, 136079, Note_on_c, 4, 55, 0
3, 136080, Note_on_c, 4, 55, 80
3, 136319, Note_on_c, 4, 55, 0
3, 136320, Note_on_c, 4, 55, 80
3, 136799, Note_on_c, 4, 55, 0
3, 136800, Note_on_c, 4, 57, 80
3, 137279, Note_on_c, 4, 57, 0
3, 137280, Note_on_c, 4, 59, 80
3, 137759, Note_on_c, 4, 59, 0
3, 137760, Note_on_c, 4, 62, 80
3, 138239, Note_on_c, 4, 62, 0
3, 138240, Note_on_c, 4, 60, 80
3, 138719, Note_on_c, 4, 60, 0
3, 138960, Note_on_c, 4, 60, 80
3, 139199, Note_on_c, 4, 60, 0
3, 139200, Note_on_c, 4, 60, 80
3, 139439, Note_on_c, 4, 60, 0
3, 139440, Note_on_c, 4, 60, 80
3, 139919, Note_on_c, 4, 60, 0
3, 139920, Note_on_c, 4, 60, 80
3, 142079, Note_on_c, 4, 60, 0
3, 142080, End_track
4, 0, Start_track
4, 0, Title_t, "Bell, Bell\000"
4, 0, Key_signature, 0, "major"
4, 0, Control_c, 0, 121, 0
4, 0, Program_c, 0, 14
4, 0, Control_c, 0, 7, 100
4, 0, Control_c, 0, 10, 64
4, 0, Control_c, 0, 91, 0
4, 0, Control_c, 0, 93, 0
4, 0, MIDI_port, 0
4, 15240, Note_on_c, 0, 67, 80
4, 15240, Control_c, 0, 2, 80
4, 15299, Note_on_c, 0, 67, 0
4, 15300, Note_on_c, 0, 71, 80
4, 15359, Note_on_c, 0, 71, 0
4, 15360, Note_on_c, 0, 74, 80
4, 16079, Note_on_c, 0, 74, 0
4, 16080, Note_on_c, 0, 74, 80
4, 16559, Note_on_c, 0, 74, 0
4, 16560, Note_on_c, 0, 72, 80
4, 17039, Note_on_c, 0, 72, 0
4, 17040, Note_on_c, 0, 67, 80
4, 17279, Note_on_c, 0, 67, 0
4, 17280, Note_on_c, 0, 74, 80
4, 17519, Note_on_c, 0, 74, 0
4, 17520, Note_on_c, 0, 74, 80
4, 17759, Note_on_c, 0, 74, 0
4, 17760, Note_on_c, 0, 76, 80
4, 17999, Note_on_c, 0, 76, 0
4, 18000, Note_on_c, 0, 72, 80
4, 18719, Note_on_c, 0, 72, 0
4, 18720, Note_on_c, 0, 67, 80
4, 18959, Note_on_c, 0, 67, 0
4, 18960, Note_on_c, 0, 67, 80
4, 19199, Note_on_c, 0, 67, 0
4, 19200, Note_on_c, 0, 74, 80
4, 19439, Note_on_c, 0, 74, 0
4, 19440, Note_on_c, 0, 74, 80
4, 19679, Note_on_c, 0, 74, 0
4, 19680, Note_on_c, 0, 76, 80
4, 20159, Note_on_c, 0, 76, 0
4, 20160, Note_on_c, 0, 72, 80
4, 20879, Note_on_c, 0, 72, 0
4, 20880, Note_on_c, 0, 72, 80
4, 21119, Note_on_c, 0, 72, 0
4, 21120, Note_on_c, 0, 71, 80
4, 21359, Note_on_c, 0, 71, 0
4, 21360, Note_on_c, 0, 72, 80
4, 21599, Note_on_c, 0, 72, 0
4, 21600, Note_on_c, 0, 71, 80
4, 21839, Note_on_c, 0, 71, 0
4, 21840, Note_on_c, 0, 69, 80
4, 22559, Note_on_c, 0, 69, 0
4, 22920, Note_on_c, 0, 69, 80
4, 22979, Note_on_c, 0, 69, 0
4, 22980, Note_on_c, 0, 72, 80
4, 23039, Note_on_c, 0, 72, 0
4, 23040, Note_on_c, 0, 76, 80
4, 23759, Note_on_c, 0, 76, 0
4, 23760, Note_on_c, 0, 74, 80
4, 24719, Note_on_c, 0, 74, 0
4, 24720, Note_on_c, 0, 69, 80
4, 24959, Note_on_c, 0, 69, 0
4, 24960, Note_on_c, 0, 76, 80
4, 25199, Note_on_c, 0, 76, 0
4, 25200, Note_on_c, 0, 77, 80
4, 25439, Note_on_c, 0, 77, 0
4, 25440, Note_on_c, 0, 76, 80
4, 25679, Note_on_c, 0, 76, 0
4, 25680, Note_on_c, 0, 74, 80
4, 26399, Note_on_c, 0, 74, 0
4, 26640, Note_on_c, 0, 72, 80
4, 26879, Note_on_c, 0, 72, 0
4, 26880, Note_on_c, 0, 71, 80
4, 27119, Note_on_c, 0, 71, 0
4, 27120, Note_on_c, 0, 72, 80
4, 27359, Note_on_c, 0, 72, 0
4, 27360, Note_on_c, 0, 71, 80
4, 27599, Note_on_c, 0, 71, 0
4, 27600, Note_on_c, 0, 71, 80
4, 28079, Note_on_c, 0, 71, 0
4, 28080, Note_on_c, 0, 72, 80
4, 28559, Note_on_c, 0, 72, 0
4, 28560, Note_on_c, 0, 71, 80
4, 29039, Note_on_c, 0, 71, 0
4, 29040, Note_on_c, 0, 67, 80
4, 29759, Note_on_c, 0, 67, 0
4, 31200, Note_on_c, 0, 74, 80
4, 31679, Note_on_c, 0, 74, 0
4, 31680, Note_on_c, 0, 74, 80
4, 31919, Note_on_c, 0, 74, 0
4, 31920, Note_on_c, 0, 72, 80
4, 32399, Note_on_c, 0, 72, 0
4, 32400, Note_on_c, 0, 72, 80
4, 32639, Note_on_c, 0, 72, 0
4, 32640, Note_on_c, 0, 79, 80
4, 33359, Note_on_c, 0, 79, 0
4, 33360, Note_on_c, 0, 76, 80
4, 33839, Note_on_c, 0, 76, 0
4, 33840, Note_on_c, 0, 74, 80
4, 34079, Note_on_c, 0, 74, 0
4, 34080, Note_on_c, 0, 72, 80
4, 34559, Note_on_c, 0, 72, 0
4, 34800, Note_on_c, 0, 74, 80
4, 35039, Note_on_c, 0, 74, 0
4, 35040, Note_on_c, 0, 74, 80
4, 35279, Note_on_c, 0, 74, 0
4, 35280, Note_on_c, 0, 74, 80
4, 35519, Note_on_c, 0, 74, 0
4, 35520, Note_on_c, 0, 74, 80
4, 35759, Note_on_c, 0, 74, 0
4, 35760, Note_on_c, 0, 72, 80
4, 35999, Note_on_c, 0, 72, 0
4, 36000, Note_on_c, 0, 72, 80
4, 36479, Note_on_c, 0, 72, 0
4, 36480, Note_on_c, 0, 81, 80
4, 36719, Note_on_c, 0, 81, 0
4, 36720, Note_on_c, 0, 81, 80
4, 37199, Note_on_c, 0, 81, 0
4, 37200, Note_on_c, 0, 76, 80
4, 37679, Note_on_c, 0, 76, 0
4, 37680, Note_on_c, 0, 74, 80
4, 38159, Note_on_c, 0, 74, 0
4, 38160, Note_on_c, 0, 72, 80
4, 38639, Note_on_c, 0, 72, 0
4, 38880, Note_on_c, 0, 76, 80
4, 39119, Note_on_c, 0, 76, 0
4, 39120, Note_on_c, 0, 69, 80
4, 39359, Note_on_c, 0, 69, 0
4, 39360, Note_on_c, 0, 72, 80
4, 39599, Note_on_c, 0, 72, 0
4, 39600, Note_on_c, 0, 74, 80
4, 39959, Note_on_c, 0, 74, 0
4, 40320, Note_on_c, 0, 76, 80
4, 40559, Note_on_c, 0, 76, 0
4, 40560, Note_on_c, 0, 76, 80
4, 40799, Note_on_c, 0, 76, 0
4, 40800, Note_on_c, 0, 76, 80
4, 41039, Note_on_c, 0, 76, 0
4, 41040, Note_on_c, 0, 69, 80
4, 41279, Note_on_c, 0, 69, 0
4, 41280, Note_on_c, 0, 72, 80
4, 41519, Note_on_c, 0, 72, 0
4, 41520, Note_on_c, 0, 74, 80
4, 41879, Note_on_c, 0, 74, 0
4, 42240, Note_on_c, 0, 71, 80
4, 42719, Note_on_c, 0, 71, 0
4, 42720, Note_on_c, 0, 71, 80
4, 42959, Note_on_c, 0, 71, 0
4, 42960, Note_on_c, 0, 71, 80
4, 43199, Note_on_c, 0, 71, 0
4, 43200, Note_on_c, 0, 71, 80
4, 43439, Note_on_c, 0, 71, 0
4, 43440, Note_on_c, 0, 71, 80
4, 43919, Note_on_c, 0, 71, 0
4, 43920, Note_on_c, 0, 69, 80
4, 44159, Note_on_c, 0, 69, 0
4, 44160, Note_on_c, 0, 72, 80
4, 44399, Note_on_c, 0, 72, 0
4, 44400, Note_on_c, 0, 71, 80
4, 44639, Note_on_c, 0, 71, 0
4, 44640, Note_on_c, 0, 69, 80
4, 44879, Note_on_c, 0, 69, 0
4, 44880, Note_on_c, 0, 72, 80
4, 45359, Note_on_c, 0, 72, 0
4, 45360, Note_on_c, 0, 71, 80
4, 45719, Note_on_c, 0, 71, 0
4, 46080, Note_on_c, 0, 72, 80
4, 47519, Note_on_c, 0, 72, 0
4, 47760, Note_on_c, 0, 72, 80
4, 47999, Note_on_c, 0, 72, 0
4, 48000, Note_on_c, 0, 71, 80
4, 48239, Note_on_c, 0, 71, 0
4, 48240, Note_on_c, 0, 72, 80
4, 48479, Note_on_c, 0, 72, 0
4, 48480, Note_on_c, 0, 71, 80
4, 48719, Note_on_c, 0, 71, 0
4, 48720, Note_on_c, 0, 72, 80
4, 48959, Note_on_c, 0, 72, 0
4, 48960, Note_on_c, 0, 71, 80
4, 49439, Note_on_c, 0, 71, 0
4, 49440, Note_on_c, 0, 72, 80
4, 49919, Note_on_c, 0, 72, 0
4, 49920, Note_on_c, 0, 74, 80
4, 50399, Note_on_c, 0, 74, 0
4, 50400, Note_on_c, 0, 72, 80
4, 50639, Note_on_c, 0, 72, 0
4, 50640, Note_on_c, 0, 71, 80
4, 51119, Note_on_c, 0, 71, 0
4, 51120, Note_on_c, 0, 72, 80
4, 51359, Note_on_c, 0, 72, 0
4, 51360, Note_on_c, 0, 74, 80
4, 51599, Note_on_c, 0, 74, 0
4, 51600, Note_on_c, 0, 71, 80
4, 52079, Note_on_c, 0, 71, 0
4, 52080, Note_on_c, 0, 72, 80
4, 52319, Note_on_c, 0, 72, 0
4, 52320, Note_on_c, 0, 71, 80
4, 52559, Note_on_c, 0, 71, 0
4, 52560, Note_on_c, 0, 72, 80
4, 52799, Note_on_c, 0, 72, 0
4, 52800, Note_on_c, 0, 71, 80
4, 53279, Note_on_c, 0, 71, 0
4, 53280, Note_on_c, 0, 72, 80
4, 53759, Note_on_c, 0, 72, 0
4, 53760, Note_on_c, 0, 76, 80
4, 53999, Note_on_c, 0, 76, 0
4, 54000, Note_on_c, 0, 74, 80
4, 54239, Note_on_c, 0, 74, 0
4, 54240, Note_on_c, 0, 72, 80
4, 54479, Note_on_c, 0, 72, 0
4, 54480, Note_on_c, 0, 74, 80
4, 54959, Note_on_c, 0, 74, 0
4, 54960, Note_on_c, 0, 72, 80
4, 55199, Note_on_c, 0, 72, 0
4, 55200, Note_on_c, 0, 72, 80
4, 55439, Note_on_c, 0, 72, 0
4, 55440, Note_on_c, 0, 76, 80
4, 55919, Note_on_c, 0, 76, 0
4, 55920, Note_on_c, 0, 74, 80
4, 56159, Note_on_c, 0, 74, 0
4, 56160, Note_on_c, 0, 72, 80
4, 56399, Note_on_c, 0, 72, 0
4, 56400, Note_on_c, 0, 74, 80
4, 56639, Note_on_c, 0, 74, 0
4, 56880, Note_on_c, 0, 72, 80
4, 57119, Note_on_c, 0, 72, 0
4, 57120, Note_on_c, 0, 72, 80
4, 57359, Note_on_c, 0, 72, 0
4, 57360, Note_on_c, 0, 71, 80
4, 57599, Note_on_c, 0, 71, 0
4, 57600, Note_on_c, 0, 72, 80
4, 58079, Note_on_c, 0, 72, 0
4, 58080, Note_on_c, 0, 71, 80
4, 58319, Note_on_c, 0, 71, 0
4, 58320, Note_on_c, 0, 72, 80
4, 58799, Note_on_c, 0, 72, 0
4, 58800, Note_on_c, 0, 71, 80
4, 59039, Note_on_c, 0, 71, 0
4, 59040, Note_on_c, 0, 72, 80
4, 59279, Note_on_c, 0, 72, 0
4, 59280, Note_on_c, 0, 71, 80
4, 59519, Note_on_c, 0, 71, 0
4, 59520, Note_on_c, 0, 72, 80
4, 59759, Note_on_c, 0, 72, 0
4, 59760, Note_on_c, 0, 71, 80
4, 59999, Note_on_c, 0, 71, 0
4, 60000, Note_on_c, 0, 72, 80
4, 60239, Note_on_c, 0, 72, 0
4, 60240, Note_on_c, 0, 76, 80
4, 60479, Note_on_c, 0, 76, 0
4, 60480, Note_on_c, 0, 74, 80
4, 60959, Note_on_c, 0, 74, 0
4, 61440, Note_on_c, 0, 74, 80
4, 62159, Note_on_c, 0, 74, 0
4, 62160, Note_on_c, 0, 74, 80
4, 62639, Note_on_c, 0, 74, 0
4, 62640, Note_on_c, 0, 72, 80
4, 63119, Note_on_c, 0, 72, 0
4, 63120, Note_on_c, 0, 67, 80
4, 63359, Note_on_c, 0, 67, 0
4, 63360, Note_on_c, 0, 74, 80
4, 63599, Note_on_c, 0, 74, 0
4, 63600, Note_on_c, 0, 74, 80
4, 63839, Note_on_c, 0, 74, 0
4, 63840, Note_on_c, 0, 76, 80
4, 64079, Note_on_c, 0, 76, 0
4, 64080, Note_on_c, 0, 72, 80
4, 64799, Note_on_c, 0, 72, 0
4, 64800, Note_on_c, 0, 67, 80
4, 65039, Note_on_c, 0, 67, 0
4, 65040, Note_on_c, 0, 67, 80
4, 65279, Note_on_c, 0, 67, 0
4, 65280, Note_on_c, 0, 74, 80
4, 65519, Note_on_c, 0, 74, 0
4, 65520, Note_on_c, 0, 74, 80
4, 65759, Note_on_c, 0, 74, 0
4, 65760, Note_on_c, 0, 76, 80
4, 66239, Note_on_c, 0, 76, 0
4, 66240, Note_on_c, 0, 72, 80
4, 66959, Note_on_c, 0, 72, 0
4, 66960, Note_on_c, 0, 72, 80
4, 67199, Note_on_c, 0, 72, 0
4, 67200, Note_on_c, 0, 71, 80
4, 67439, Note_on_c, 0, 71, 0
4, 67440, Note_on_c, 0, 72, 80
4, 67679, Note_on_c, 0, 72, 0
4, 67680, Note_on_c, 0, 71, 80
4, 67919, Note_on_c, 0, 71, 0
4, 67920, Note_on_c, 0, 69, 80
4, 68639, Note_on_c, 0, 69, 0
4, 69120, Note_on_c, 0, 76, 80
4, 69839, Note_on_c, 0, 76, 0
4, 69840, Note_on_c, 0, 74, 80
4, 70799, Note_on_c, 0, 74, 0
4, 70800, Note_on_c, 0, 69, 80
4, 71039, Note_on_c, 0, 69, 0
4, 71040, Note_on_c, 0, 76, 80
4, 71279, Note_on_c, 0, 76, 0
4, 71280, Note_on_c, 0, 77, 80
4, 71519, Note_on_c, 0, 77, 0
4, 71520, Note_on_c, 0, 76, 80
4, 71759, Note_on_c, 0, 76, 0
4, 71760, Note_on_c, 0, 74, 80
4, 72479, Note_on_c, 0, 74, 0
4, 72720, Note_on_c, 0, 72, 80
4, 72959, Note_on_c, 0, 72, 0
4, 72960, Note_on_c, 0, 71, 80
4, 73199, Note_on_c, 0, 71, 0
4, 73200, Note_on_c, 0, 72, 80
4, 73439, Note_on_c, 0, 72, 0
4, 73440, Note_on_c, 0, 71, 80
4, 73679, Note_on_c, 0, 71, 0
4, 73680, Note_on_c, 0, 71, 80
4, 74159, Note_on_c, 0, 71, 0
4, 74160, Note_on_c, 0, 72, 80
4, 74639, Note_on_c, 0, 72, 0
4, 74640, Note_on_c, 0, 71, 80
4, 75119, Note_on_c, 0, 71, 0
4, 75120, Note_on_c, 0, 67, 80
4, 75839, Note_on_c, 0, 67, 0
4, 77040, Note_on_c, 0, 67, 80
4, 77279, Note_on_c, 0, 67, 0
4, 77280, Note_on_c, 0, 74, 80
4, 77999, Note_on_c, 0, 74, 0
4, 78000, Note_on_c, 0, 72, 80
4, 78239, Note_on_c, 0, 72, 0
4, 78240, Note_on_c, 0, 72, 80
4, 78719, Note_on_c, 0, 72, 0
4, 78960, Note_on_c, 0, 72, 80
4, 79199, Note_on_c, 0, 72, 0
4, 79200, Note_on_c, 0, 72, 80
4, 79439, Note_on_c, 0, 72, 0
4, 79440, Note_on_c, 0, 79, 80
4, 79919, Note_on_c, 0, 79, 0
4, 79920, Note_on_c, 0, 76, 80
4, 80159, Note_on_c, 0, 76, 0
4, 80160, Note_on_c, 0, 74, 80
4, 80399, Note_on_c, 0, 74, 0
4, 80400, Note_on_c, 0, 72, 80
4, 80639, Note_on_c, 0, 72, 0
4, 80880, Note_on_c, 0, 67, 80
4, 81119, Note_on_c, 0, 67, 0
4, 81120, Note_on_c, 0, 74, 80
4, 81839, Note_on_c, 0, 74, 0
4, 81840, Note_on_c, 0, 72, 80
4, 82079, Note_on_c, 0, 72, 0
4, 82080, Note_on_c, 0, 71, 80
4, 82319, Note_on_c, 0, 71, 0
4, 82320, Note_on_c, 0, 72, 80
4, 82559, Note_on_c, 0, 72, 0
4, 82800, Note_on_c, 0, 72, 80
4, 83039, Note_on_c, 0, 72, 0
4, 83040, Note_on_c, 0, 72, 80
4, 83279, Note_on_c, 0, 72, 0
4, 83280, Note_on_c, 0, 81, 80
4, 83519, Note_on_c, 0, 81, 0
4, 83520, Note_on_c, 0, 81, 80
4, 83759, Note_on_c, 0, 81, 0
4, 83760, Note_on_c, 0, 76, 80
4, 83999, Note_on_c, 0, 76, 0
4, 84000, Note_on_c, 0, 74, 80
4, 84239, Note_on_c, 0, 74, 0
4, 84240, Note_on_c, 0, 72, 80
4, 84479, Note_on_c, 0, 72, 0
4, 84720, Note_on_c, 0, 76, 80
4, 84959, Note_on_c, 0, 76, 0
4, 84960, Note_on_c, 0, 76, 80
4, 85199, Note_on_c, 0, 76, 0
4, 85200, Note_on_c, 0, 69, 80
4, 85439, Note_on_c, 0, 69, 0
4, 85440, Note_on_c, 0, 72, 80
4, 85679, Note_on_c, 0, 72, 0
4, 85680, Note_on_c, 0, 72, 80
4, 85919, Note_on_c, 0, 72, 0
4, 85920, Note_on_c, 0, 74, 80
4, 86399, Note_on_c, 0, 74, 0
4, 86400, Note_on_c, 0, 76, 80
4, 86639, Note_on_c, 0, 76, 0
4, 86640, Note_on_c, 0, 76, 80
4, 86879, Note_on_c, 0, 76, 0
4, 86880, Note_on_c, 0, 76, 80
4, 87119, Note_on_c, 0, 76, 0
4, 87120, Note_on_c, 0, 69, 80
4, 87239, Note_on_c, 0, 69, 0
4, 87240, Note_on_c, 0, 72, 80
4, 87599, Note_on_c, 0, 72, 0
4, 87600, Note_on_c, 0, 74, 80
4, 88319, Note_on_c, 0, 74, 0
4, 88320, Note_on_c, 0, 76, 80
4, 89039, Note_on_c, 0, 76, 0
4, 89040, Note_on_c, 0, 71, 80
4, 89279, Note_on_c, 0, 71, 0
4, 89280, Note_on_c, 0, 71, 80
4, 89519, Note_on_c, 0, 71, 0
4, 89520, Note_on_c, 0, 71, 80
4, 89759, Note_on_c, 0, 71, 0
4, 89760, Note_on_c, 0, 71, 80
4, 89999, Note_on_c, 0, 71, 0
4, 90000, Note_on_c, 0, 69, 80
4, 90239, Note_on_c, 0, 69, 0
4, 90240, Note_on_c, 0, 72, 80
4, 90479, Note_on_c, 0, 72, 0
4, 90480, Note_on_c, 0, 71, 80
4, 90719, Note_on_c, 0, 71, 0
4, 90720, Note_on_c, 0, 69, 80
4, 90959, Note_on_c, 0, 69, 0
4, 90960, Note_on_c, 0, 72, 80
4, 91439, Note_on_c, 0, 72, 0
4, 91440, Note_on_c, 0, 71, 80
4, 91919, Note_on_c, 0, 71, 0
4, 91920, Note_on_c, 0, 67, 80
4, 92159, Note_on_c, 0, 67, 0
4, 92160, Note_on_c, 0, 74, 80
4, 92639, Note_on_c, 0, 74, 0
4, 92640, Note_on_c, 0, 72, 80
4, 93119, Note_on_c, 0, 72, 0
4, 93120, Note_on_c, 0, 71, 80
4, 93359, Note_on_c, 0, 71, 0
4, 93360, Note_on_c, 0, 72, 80
4, 93599, Note_on_c, 0, 72, 0
4, 93600, Note_on_c, 0, 67, 80
4, 93839, Note_on_c, 0, 67, 0
4, 93840, Note_on_c, 0, 67, 80
4, 94079, Note_on_c, 0, 67, 0
4, 94080, Note_on_c, 0, 74, 80
4, 94319, Note_on_c, 0, 74, 0
4, 94320, Note_on_c, 0, 72, 80
4, 94559, Note_on_c, 0, 72, 0
4, 94560, Note_on_c, 0, 71, 80
4, 94799, Note_on_c, 0, 71, 0
4, 94800, Note_on_c, 0, 72, 80
4, 95279, Note_on_c, 0, 72, 0
4, 95760, Note_on_c, 0, 67, 80
4, 95999, Note_on_c, 0, 67, 0
4, 96000, Note_on_c, 0, 74, 80
4, 96479, Note_on_c, 0, 74, 0
4, 96480, Note_on_c, 0, 72, 80
4, 96959, Note_on_c, 0, 72, 0
4, 96960, Note_on_c, 0, 71, 80
4, 97199, Note_on_c, 0, 71, 0
4, 97200, Note_on_c, 0, 72, 80
4, 97439, Note_on_c, 0, 72, 0
4, 97440, Note_on_c, 0, 67, 80
4, 97679, Note_on_c, 0, 67, 0
4, 97680, Note_on_c, 0, 67, 80
4, 97919, Note_on_c, 0, 67, 0
4, 97920, Note_on_c, 0, 74, 80
4, 98159, Note_on_c, 0, 74, 0
4, 98160, Note_on_c, 0, 72, 80
4, 98399, Note_on_c, 0, 72, 0
4, 98400, Note_on_c, 0, 71, 80
4, 98639, Note_on_c, 0, 71, 0
4, 98640, Note_on_c, 0, 72, 80
4, 99119, Note_on_c, 0, 72, 0
4, 107520, Note_on_c, 0, 74, 80
4, 108239, Note_on_c, 0, 74, 0
4, 108240, Note_on_c, 0, 74, 80
4, 108719, Note_on_c, 0, 74, 0
4, 108720, Note_on_c, 0, 72, 80
4, 109199, Note_on_c, 0, 72, 0
4, 109200, Note_on_c, 0, 67, 80
4, 109439, Note_on_c, 0, 67, 0
4, 109440, Note_on_c, 0, 74, 80
4, 109679, Note_on_c, 0, 74, 0
4, 109680, Note_on_c, 0, 74, 80
4, 109919, Note_on_c, 0, 74, 0
4, 109920, Note_on_c, 0, 76, 80
4, 110159, Note_on_c, 0, 76, 0
4, 110160, Note_on_c, 0, 72, 80
4, 110879, Note_on_c, 0, 72, 0
4, 110880, Note_on_c, 0, 67, 80
4, 111119, Note_on_c, 0, 67, 0
4, 111120, Note_on_c, 0, 67, 80
4, 111359, Note_on_c, 0, 67, 0
4, 111360, Note_on_c, 0, 74, 80
4, 111599, Note_on_c, 0, 74, 0
4, 111600, Note_on_c, 0, 74, 80
4, 111839, Note_on_c, 0, 74, 0
4, 111840, Note_on_c, 0, 76, 80
4, 112319, Note_on_c, 0, 76, 0
4, 112320, Note_on_c, 0, 72, 80
4, 113039, Note_on_c, 0, 72, 0
4, 113040, Note_on_c, 0, 72, 80
4, 113279, Note_on_c, 0, 72, 0
4, 113280, Note_on_c, 0, 71, 80
4, 113519, Note_on_c, 0, 71, 0
4, 113520, Note_on_c, 0, 72, 80
4, 113759, Note_on_c, 0, 72, 0
4, 113760, Note_on_c, 0, 71, 80
4, 113999, Note_on_c, 0, 71, 0
4, 114000, Note_on_c, 0, 69, 80
4, 114719, Note_on_c, 0, 69, 0
4, 115200, Note_on_c, 0, 76, 80
4, 115919, Note_on_c, 0, 76, 0
4, 115920, Note_on_c, 0, 74, 80
4, 116879, Note_on_c, 0, 74, 0
4, 116880, Note_on_c, 0, 69, 80
4, 117119, Note_on_c, 0, 69, 0
4, 117120, Note_on_c, 0, 76, 80
4, 117359, Note_on_c, 0, 76, 0
4, 117360, Note_on_c, 0, 77, 80
4, 117599, Note_on_c, 0, 77, 0
4, 117600, Note_on_c, 0, 76, 80
4, 117839, Note_on_c, 0, 76, 0
4, 117840, Note_on_c, 0, 74, 80
4, 118559, Note_on_c, 0, 74, 0
4, 118800, Note_on_c, 0, 72, 80
4, 119039, Note_on_c, 0, 72, 0
4, 119040, Note_on_c, 0, 71, 80
4, 119279, Note_on_c, 0, 71, 0
4, 119280, Note_on_c, 0, 72, 80
4, 119519, Note_on_c, 0, 72, 0
4, 119520, Note_on_c, 0, 71, 80
4, 119759, Note_on_c, 0, 71, 0
4, 119760, Note_on_c, 0, 71, 80
4, 120239, Note_on_c, 0, 71, 0
4, 120240, Note_on_c, 0, 72, 80
4, 120719, Note_on_c, 0, 72, 0
4, 120720, Note_on_c, 0, 71, 80
4, 121199, Note_on_c, 0, 71, 0
4, 121200, Note_on_c, 0, 67, 80
4, 121919, Note_on_c, 0, 67, 0
4, 122880, Note_on_c, 0, 74, 80
4, 123119, Note_on_c, 0, 74, 0
4, 123360, Note_on_c, 0, 74, 80
4, 123599, Note_on_c, 0, 74, 0
4, 123600, Note_on_c, 0, 74, 80
4, 123839, Note_on_c, 0, 74, 0
4, 123840, Note_on_c, 0, 72, 80
4, 124079, Note_on_c, 0, 72, 0
4, 124320, Note_on_c, 0, 72, 80
4, 124559, Note_on_c, 0, 72, 0
4, 124560, Note_on_c, 0, 72, 80
4, 124799, Note_on_c, 0, 72, 0
4, 124800, Note_on_c, 0, 74, 80
4, 125039, Note_on_c, 0, 74, 0
4, 125040, Note_on_c, 0, 74, 80
4, 125279, Note_on_c, 0, 74, 0
4, 125520, Note_on_c, 0, 72, 80
4, 125759, Note_on_c, 0, 72, 0
4, 126000, Note_on_c, 0, 74, 80
4, 126239, Note_on_c, 0, 74, 0
4, 126240, Note_on_c, 0, 76, 80
4, 126479, Note_on_c, 0, 76, 0
4, 126720, Note_on_c, 0, 74, 80
4, 126959, Note_on_c, 0, 74, 0
4, 127200, Note_on_c, 0, 74, 80
4, 127439, Note_on_c, 0, 74, 0
4, 127440, Note_on_c, 0, 74, 80
4, 127679, Note_on_c, 0, 74, 0
4, 127680, Note_on_c, 0, 72, 80
4, 127919, Note_on_c, 0, 72, 0
4, 128160, Note_on_c, 0, 72, 80
4, 128399, Note_on_c, 0, 72, 0
4, 128400, Note_on_c, 0, 72, 80
4, 128639, Note_on_c, 0, 72, 0
4, 128640, Note_on_c, 0, 74, 80
4, 128879, Note_on_c, 0, 74, 0
4, 128880, Note_on_c, 0, 74, 80
4, 129119, Note_on_c, 0, 74, 0
4, 129360, Note_on_c, 0, 72, 80
4, 129599, Note_on_c, 0, 72, 0
4, 129840, Note_on_c, 0, 72, 80
4, 130079, Note_on_c, 0, 72, 0
4, 130080, Note_on_c, 0, 74, 80
4, 130319, Note_on_c, 0, 74, 0
4, 130320, Note_on_c, 0, 76, 80
4, 130559, Note_on_c, 0, 76, 0
4, 130560, Note_on_c, 0, 79, 80
4, 130799, Note_on_c, 0, 79, 0
4, 131040, Note_on_c, 0, 79, 80
4, 131279, Note_on_c, 0, 79, 0
4, 131280, Note_on_c, 0, 79, 80
4, 131519, Note_on_c, 0, 79, 0
4, 131520, Note_on_c, 0, 77, 80
4, 131759, Note_on_c, 0, 77, 0
4, 132000, Note_on_c, 0, 76, 80
4, 132239, Note_on_c, 0, 76, 0
4, 132240, Note_on_c, 0, 77, 80
4, 132479, Note_on_c, 0, 77, 0
4, 132480, Note_on_c, 0, 76, 80
4, 132719, Note_on_c, 0, 76, 0
4, 132720, Note_on_c, 0, 77, 80
4, 132959, Note_on_c, 0, 77, 0
4, 133200, Note_on_c, 0, 74, 80
4, 133439, Note_on_c, 0, 74, 0
4, 133680, Note_on_c, 0, 76, 80
4, 133919, Note_on_c, 0, 76, 0
4, 133920, Note_on_c, 0, 77, 80
4, 134159, Note_on_c, 0, 77, 0
4, 134400, Note_on_c, 0, 76, 80
4, 134639, Note_on_c, 0, 76, 0
4, 134880, Note_on_c, 0, 76, 80
4, 135119, Note_on_c, 0, 76, 0
4, 135120, Note_on_c, 0, 76, 80
4, 135359, Note_on_c, 0, 76, 0
4, 135360, Note_on_c, 0, 74, 80
4, 135599, Note_on_c, 0, 74, 0
4, 135840, Note_on_c, 0, 72, 80
4, 136079, Note_on_c, 0, 72, 0
4, 136080, Note_on_c, 0, 74, 80
4, 136319, Note_on_c, 0, 74, 0
4, 136320, Note_on_c, 0, 76, 80
4, 136559, Note_on_c, 0, 76, 0
4, 136560, Note_on_c, 0, 76, 80
4, 136799, Note_on_c, 0, 76, 0
4, 137040, Note_on_c, 0, 74, 80
4, 137279, Note_on_c, 0, 74, 0
4, 137520, Note_on_c, 0, 76, 80
4, 137759, Note_on_c, 0, 76, 0
4, 137760, Note_on_c, 0, 74, 80
4, 137999, Note_on_c, 0, 74, 0
4, 138000, Note_on_c, 0, 72, 80
4, 138239, Note_on_c, 0, 72, 0
4, 138240, Note_on_c, 0, 76, 80
4, 139679, Note_on_c, 0, 76, 0
4, 139920, Note_on_c, 0, 76, 80
4, 142079, Note_on_c, 0, 76, 0
4, 142080, End_track
5, 0, Start_track
5, 0, Title_t, "Classical Guitar, Lute\000"
5, 0, Key_signature, 0, "major"
5, 0, Control_c, 5, 121, 0
5, 0, Program_c, 5, 24
5, 0, Control_c, 5, 7, 100
5, 0, Control_c, 5, 10, 64
5, 0, Control_c, 5, 91, 0
5, 0, Control_c, 5, 93, 0
5, 0, MIDI_port, 0
5, 0, Note_on_c, 5, 60, 64
5, 0, Control_c, 7, 121, 0
5, 0, Program_c, 7, 28
5, 0, Control_c, 7, 7, 100
5, 0, Control_c, 7, 10, 64
5, 0, Control_c, 7, 91, 0
5, 0, Control_c, 7, 93, 0
5, 0, MIDI_port, 0
5, 239, Note_on_c, 5, 60, 0
5, 240, Note_on_c, 5, 64, 64
5, 479, Note_on_c, 5, 64, 0
5, 480, Note_on_c, 5, 67, 64
5, 719, Note_on_c, 5, 67, 0
5, 720, Note_on_c, 5, 64, 64
5, 959, Note_on_c, 5, 64, 0
5, 960, Note_on_c, 5, 60, 64
5, 1199, Note_on_c, 5, 60, 0
5, 1200, Note_on_c, 5, 64, 64
5, 1439, Note_on_c, 5, 64, 0
5, 1440, Note_on_c, 5, 67, 64
5, 1679, Note_on_c, 5, 67, 0
5, 1680, Note_on_c, 5, 64, 64
5, 1919, Note_on_c, 5, 64, 0
5, 1920, Note_on_c, 5, 60, 64
5, 2159, Note_on_c, 5, 60, 0
5, 2160, Note_on_c, 5, 64, 64
5, 2399, Note_on_c, 5, 64, 0
5, 2400, Note_on_c, 5, 67, 64
5, 2639, Note_on_c, 5, 67, 0
5, 2640, Note_on_c, 5, 64, 64
5, 2879, Note_on_c, 5, 64, 0
5, 2880, Note_on_c, 5, 59, 64
5, 3119, Note_on_c, 5, 59, 0
5, 3120, Note_on_c, 5, 64, 64
5, 3359, Note_on_c, 5, 64, 0
5, 3360, Note_on_c, 5, 67, 64
5, 3599, Note_on_c, 5, 67, 0
5, 3600, Note_on_c, 5, 64, 64
5, 3839, Note_on_c, 5, 64, 0
5, 3840, Note_on_c, 5, 57, 64
5, 4079, Note_on_c, 5, 57, 0
5, 4080, Note_on_c, 5, 60, 64
5, 4319, Note_on_c, 5, 60, 0
5, 4320, Note_on_c, 5, 64, 64
5, 4559, Note_on_c, 5, 64, 0
5, 4560, Note_on_c, 5, 60, 64
5, 4799, Note_on_c, 5, 60, 0
5, 4800, Note_on_c, 5, 57, 64
5, 5039, Note_on_c, 5, 57, 0
5, 5040, Note_on_c, 5, 60, 64
5, 5279, Note_on_c, 5, 60, 0
5, 5280, Note_on_c, 5, 64, 64
5, 5519, Note_on_c, 5, 64, 0
5, 5520, Note_on_c, 5, 60, 64
5, 5759, Note_on_c, 5, 60, 0
5, 5760, Note_on_c, 5, 57, 64
5, 5999, Note_on_c, 5, 57, 0
5, 6000, Note_on_c, 5, 60, 64
5, 6239, Note_on_c, 5, 60, 0
5, 6240, Note_on_c, 5, 64, 64
5, 6479, Note_on_c, 5, 64, 0
5, 6480, Note_on_c, 5, 60, 64
5, 6719, Note_on_c, 5, 60, 0
5, 6720, Note_on_c, 5, 57, 64
5, 6959, Note_on_c, 5, 57, 0
5, 6960, Note_on_c, 5, 60, 64
5, 7199, Note_on_c, 5, 60, 0
5, 7200, Note_on_c, 5, 64, 64
5, 7439, Note_on_c, 5, 64, 0
5, 7440, Note_on_c, 5, 60, 64
5, 7679, Note_on_c, 5, 60, 0
5, 7680, Note_on_c, 5, 57, 64
5, 7919, Note_on_c, 5, 57, 0
5, 7920, Note_on_c, 5, 60, 64
5, 8159, Note_on_c, 5, 60, 0
5, 8160, Note_on_c, 5, 64, 64
5, 8399, Note_on_c, 5, 64, 0
5, 8400, Note_on_c, 5, 60, 64
5, 8639, Note_on_c, 5, 60, 0
5, 8640, Note_on_c, 5, 57, 64
5, 8879, Note_on_c, 5, 57, 0
5, 8880, Note_on_c, 5, 60, 64
5, 9119, Note_on_c, 5, 60, 0
5, 9120, Note_on_c, 5, 64, 64
5, 9359, Note_on_c, 5, 64, 0
5, 9360, Note_on_c, 5, 60, 64
5, 9599, Note_on_c, 5, 60, 0
5, 9600, Note_on_c, 5, 57, 64
5, 9839, Note_on_c, 5, 57, 0
5, 9840, Note_on_c, 5, 62, 64
5, 10079, Note_on_c, 5, 62, 0
5, 10080, Note_on_c, 5, 65, 64
5, 10319, Note_on_c, 5, 65, 0
5, 10320, Note_on_c, 5, 62, 64
5, 10559, Note_on_c, 5, 62, 0
5, 10560, Note_on_c, 5, 60, 64
5, 10799, Note_on_c, 5, 60, 0
5, 10800, Note_on_c, 5, 62, 64
5, 11039, Note_on_c, 5, 62, 0
5, 11040, Note_on_c, 5, 65, 64
5, 11279, Note_on_c, 5, 65, 0
5, 11280, Note_on_c, 5, 62, 64
5, 11519, Note_on_c, 5, 62, 0
5, 11520, Note_on_c, 5, 57, 64
5, 11759, Note_on_c, 5, 57, 0
5, 11760, Note_on_c, 5, 62, 64
5, 11999, Note_on_c, 5, 62, 0
5, 12000, Note_on_c, 5, 65, 64
5, 12239, Note_on_c, 5, 65, 0
5, 12240, Note_on_c, 5, 62, 64
5, 12479, Note_on_c, 5, 62, 0
5, 12480, Note_on_c, 5, 57, 64
5, 12719, Note_on_c, 5, 57, 0
5, 12720, Note_on_c, 5, 62, 64
5, 12959, Note_on_c, 5, 62, 0
5, 12960, Note_on_c, 5, 65, 64
5, 13199, Note_on_c, 5, 65, 0
5, 13200, Note_on_c, 5, 62, 64
5, 13439, Note_on_c, 5, 62, 0
5, 13440, Note_on_c, 5, 55, 64
5, 13679, Note_on_c, 5, 55, 0
5, 13680, Note_on_c, 5, 62, 64
5, 13919, Note_on_c, 5, 62, 0
5, 13920, Note_on_c, 5, 67, 64
5, 14159, Note_on_c, 5, 67, 0
5, 14160, Note_on_c, 5, 62, 64
5, 14399, Note_on_c, 5, 62, 0
5, 14400, Note_on_c, 5, 59, 64
5, 14639, Note_on_c, 5, 59, 0
5, 14640, Note_on_c, 5, 62, 64
5, 14879, Note_on_c, 5, 62, 0
5, 14880, Note_on_c, 5, 67, 64
5, 15119, Note_on_c, 5, 67, 0
5, 15120, Note_on_c, 5, 62, 64
5, 15359, Note_on_c, 5, 62, 0
5, 15360, Note_on_c, 5, 60, 64
5, 15599, Note_on_c, 5, 60, 0
5, 15600, Note_on_c, 5, 64, 64
5, 15839, Note_on_c, 5, 64, 0
5, 15840, Note_on_c, 5, 67, 64
5, 16079, Note_on_c, 5, 67, 0
5, 16080, Note_on_c, 5, 64, 64
5, 16319, Note_on_c, 5, 64, 0
5, 16320, Note_on_c, 5, 60, 64
5, 16559, Note_on_c, 5, 60, 0
5, 16560, Note_on_c, 5, 64, 64
5, 16799, Note_on_c, 5, 64, 0
5, 16800, Note_on_c, 5, 67, 64
5, 17039, Note_on_c, 5, 67, 0
5, 17040, Note_on_c, 5, 64, 64
5, 17279, Note_on_c, 5, 64, 0
5, 17280, Note_on_c, 5, 60, 64
5, 17519, Note_on_c, 5, 60, 0
5, 17520, Note_on_c, 5, 64, 64
5, 17759, Note_on_c, 5, 64, 0
5, 17760, Note_on_c, 5, 67, 64
5, 17999, Note_on_c, 5, 67, 0
5, 18000, Note_on_c, 5, 64, 64
5, 18239, Note_on_c, 5, 64, 0
5, 18240, Note_on_c, 5, 59, 64
5, 18479, Note_on_c, 5, 59, 0
5, 18480, Note_on_c, 5, 64, 64
5, 18719, Note_on_c, 5, 64, 0
5, 18720, Note_on_c, 5, 67, 64
5, 18959, Note_on_c, 5, 67, 0
5, 18960, Note_on_c, 5, 64, 64
5, 19199, Note_on_c, 5, 64, 0
5, 19200, Note_on_c, 5, 57, 64
5, 19439, Note_on_c, 5, 57, 0
5, 19440, Note_on_c, 5, 60, 64
5, 19679, Note_on_c, 5, 60, 0
5, 19680, Note_on_c, 5, 64, 64
5, 19919, Note_on_c, 5, 64, 0
5, 19920, Note_on_c, 5, 60, 64
5, 20159, Note_on_c, 5, 60, 0
5, 20160, Note_on_c, 5, 57, 64
5, 20399, Note_on_c, 5, 57, 0
5, 20400, Note_on_c, 5, 60, 64
5, 20639, Note_on_c, 5, 60, 0
5, 20640, Note_on_c, 5, 64, 64
5, 20879, Note_on_c, 5, 64, 0
5, 20880, Note_on_c, 5, 60, 64
5, 21119, Note_on_c, 5, 60, 0
5, 21120, Note_on_c, 5, 57, 64
5, 21359, Note_on_c, 5, 57, 0
5, 21360, Note_on_c, 5, 60, 64
5, 21599, Note_on_c, 5, 60, 0
5, 21600, Note_on_c, 5, 64, 64
5, 21839, Note_on_c, 5, 64, 0
5, 21840, Note_on_c, 5, 60, 64
5, 22079, Note_on_c, 5, 60, 0
5, 22080, Note_on_c, 5, 57, 64
5, 22319, Note_on_c, 5, 57, 0
5, 22320, Note_on_c, 5, 60, 64
5, 22559, Note_on_c, 5, 60, 0
5, 22560, Note_on_c, 5, 64, 64
5, 22799, Note_on_c, 5, 64, 0
5, 22800, Note_on_c, 5, 60, 64
5, 23039, Note_on_c, 5, 60, 0
5, 23040, Note_on_c, 5, 57, 64
5, 23279, Note_on_c, 5, 57, 0
5, 23280, Note_on_c, 5, 60, 64
5, 23519, Note_on_c, 5, 60, 0
5, 23520, Note_on_c, 5, 64, 64
5, 23759, Note_on_c, 5, 64, 0
5, 23760, Note_on_c, 5, 60, 64
5, 23999, Note_on_c, 5, 60, 0
5, 24000, Note_on_c, 5, 57, 64
5, 24239, Note_on_c, 5, 57, 0
5, 24240, Note_on_c, 5, 60, 64
5, 24479, Note_on_c, 5, 60, 0
5, 24480, Note_on_c, 5, 64, 64
5, 24719, Note_on_c, 5, 64, 0
5, 24720, Note_on_c, 5, 60, 64
5, 24959, Note_on_c, 5, 60, 0
5, 24960, Note_on_c, 5, 57, 64
5, 25199, Note_on_c, 5, 57, 0
5, 25200, Note_on_c, 5, 62, 64
5, 25439, Note_on_c, 5, 62, 0
5, 25440, Note_on_c, 5, 65, 64
5, 25679, Note_on_c, 5, 65, 0
5, 25680, Note_on_c, 5, 62, 64
5, 25919, Note_on_c, 5, 62, 0
5, 25920, Note_on_c, 5, 60, 64
5, 26159, Note_on_c, 5, 60, 0
5, 26160, Note_on_c, 5, 62, 64
5, 26399, Note_on_c, 5, 62, 0
5, 26400, Note_on_c, 5, 65, 64
5, 26639, Note_on_c, 5, 65, 0
5, 26640, Note_on_c, 5, 62, 64
5, 26879, Note_on_c, 5, 62, 0
5, 26880, Note_on_c, 5, 57, 64
5, 27119, Note_on_c, 5, 57, 0
5, 27120, Note_on_c, 5, 62, 64
5, 27359, Note_on_c, 5, 62, 0
5, 27360, Note_on_c, 5, 65, 64
5, 27599, Note_on_c, 5, 65, 0
5, 27600, Note_on_c, 5, 62, 64
5, 27839, Note_on_c, 5, 62, 0
5, 27840, Note_on_c, 5, 57, 64
5, 28079, Note_on_c, 5, 57, 0
5, 28080, Note_on_c, 5, 62, 64
5, 28319, Note_on_c, 5, 62, 0
5, 28320, Note_on_c, 5, 65, 64
5, 28559, Note_on_c, 5, 65, 0
5, 28560, Note_on_c, 5, 62, 64
5, 28799, Note_on_c, 5, 62, 0
5, 28800, Note_on_c, 5, 55, 64
5, 29039, Note_on_c, 5, 55, 0
5, 29040, Note_on_c, 5, 67, 64
5, 29279, Note_on_c, 5, 67, 0
5, 29280, Note_on_c, 5, 57, 64
5, 29519, Note_on_c, 5, 57, 0
5, 29520, Note_on_c, 5, 67, 64
5, 29759, Note_on_c, 5, 67, 0
5, 29760, Note_on_c, 5, 59, 64
5, 29999, Note_on_c, 5, 59, 0
5, 30000, Note_on_c, 5, 67, 64
5, 30239, Note_on_c, 5, 67, 0
5, 30240, Note_on_c, 5, 60, 64
5, 30479, Note_on_c, 5, 60, 0
5, 30480, Note_on_c, 5, 67, 64
5, 30719, Note_on_c, 5, 67, 0
5, 30720, Note_on_c, 5, 60, 64
5, 30959, Note_on_c, 5, 60, 0
5, 30960, Note_on_c, 5, 64, 64
5, 31199, Note_on_c, 5, 64, 0
5, 31200, Note_on_c, 5, 67, 64
5, 31439, Note_on_c, 5, 67, 0
5, 31440, Note_on_c, 5, 64, 64
5, 31679, Note_on_c, 5, 64, 0
5, 31680, Note_on_c, 5, 60, 64
5, 31919, Note_on_c, 5, 60, 0
5, 31920, Note_on_c, 5, 64, 64
5, 32159, Note_on_c, 5, 64, 0
5, 32160, Note_on_c, 5, 67, 64
5, 32399, Note_on_c, 5, 67, 0
5, 32400, Note_on_c, 5, 64, 64
5, 32639, Note_on_c, 5, 64, 0
5, 32640, Note_on_c, 5, 60, 64
5, 32879, Note_on_c, 5, 60, 0
5, 32880, Note_on_c, 5, 64, 64
5, 33119, Note_on_c, 5, 64, 0
5, 33120, Note_on_c, 5, 67, 64
5, 33359, Note_on_c, 5, 67, 0
5, 33360, Note_on_c, 5, 64, 64
5, 33599, Note_on_c, 5, 64, 0
5, 33600, Note_on_c, 5, 59, 64
5, 33839, Note_on_c, 5, 59, 0
5, 33840, Note_on_c, 5, 64, 64
5, 34079, Note_on_c, 5, 64, 0
5, 34080, Note_on_c, 5, 67, 64
5, 34319, Note_on_c, 5, 67, 0
5, 34320, Note_on_c, 5, 64, 64
5, 34559, Note_on_c, 5, 64, 0
5, 34560, Note_on_c, 5, 57, 64
5, 34799, Note_on_c, 5, 57, 0
5, 34800, Note_on_c, 5, 60, 64
5, 35039, Note_on_c, 5, 60, 0
5, 35040, Note_on_c, 5, 64, 64
5, 35279, Note_on_c, 5, 64, 0
5, 35280, Note_on_c, 5, 60, 64
5, 35519, Note_on_c, 5, 60, 0
5, 35520, Note_on_c, 5, 57, 64
5, 35759, Note_on_c, 5, 57, 0
5, 35760, Note_on_c, 5, 60, 64
5, 35999, Note_on_c, 5, 60, 0
5, 36000, Note_on_c, 5, 64, 64
5, 36239, Note_on_c, 5, 64, 0
5, 36240, Note_on_c, 5, 60, 64
5, 36479, Note_on_c, 5, 60, 0
5, 36480, Note_on_c, 5, 57, 64
5, 36719, Note_on_c, 5, 57, 0
5, 36720, Note_on_c, 5, 60, 64
5, 36959, Note_on_c, 5, 60, 0
5, 36960, Note_on_c, 5, 64, 64
5, 37199, Note_on_c, 5, 64, 0
5, 37200, Note_on_c, 5, 60, 64
5, 37439, Note_on_c, 5, 60, 0
5, 37440, Note_on_c, 5, 57, 64
5, 37679, Note_on_c, 5, 57, 0
5, 37680, Note_on_c, 5, 60, 64
5, 37919, Note_on_c, 5, 60, 0
5, 37920, Note_on_c, 5, 64, 64
5, 38159, Note_on_c, 5, 64, 0
5, 38160, Note_on_c, 5, 60, 64
5, 38399, Note_on_c, 5, 60, 0
5, 38400, Note_on_c, 5, 57, 64
5, 38639, Note_on_c, 5, 57, 0
5, 38640, Note_on_c, 5, 60, 64
5, 38879, Note_on_c, 5, 60, 0
5, 38880, Note_on_c, 5, 64, 64
5, 39119, Note_on_c, 5, 64, 0
5, 39120, Note_on_c, 5, 60, 64
5, 39359, Note_on_c, 5, 60, 0
5, 39360, Note_on_c, 5, 57, 64
5, 39599, Note_on_c, 5, 57, 0
5, 39600, Note_on_c, 5, 60, 64
5, 39839, Note_on_c, 5, 60, 0
5, 39840, Note_on_c, 5, 64, 64
5, 40079, Note_on_c, 5, 64, 0
5, 40080, Note_on_c, 5, 60, 64
5, 40319, Note_on_c, 5, 60, 0
5, 40320, Note_on_c, 5, 57, 64
5, 40559, Note_on_c, 5, 57, 0
5, 40560, Note_on_c, 5, 62, 64
5, 40799, Note_on_c, 5, 62, 0
5, 40800, Note_on_c, 5, 65, 64
5, 41039, Note_on_c, 5, 65, 0
5, 41040, Note_on_c, 5, 62, 64
5, 41279, Note_on_c, 5, 62, 0
5, 41280, Note_on_c, 5, 57, 64
5, 41519, Note_on_c, 5, 57, 0
5, 41520, Note_on_c, 5, 62, 64
5, 41759, Note_on_c, 5, 62, 0
5, 41760, Note_on_c, 5, 65, 64
5, 41999, Note_on_c, 5, 65, 0
5, 42000, Note_on_c, 5, 62, 64
5, 42239, Note_on_c, 5, 62, 0
5, 42240, Note_on_c, 5, 57, 64
5, 42479, Note_on_c, 5, 57, 0
5, 42480, Note_on_c, 5, 62, 64
5, 42719, Note_on_c, 5, 62, 0
5, 42720, Note_on_c, 5, 65, 64
5, 42959, Note_on_c, 5, 65, 0
5, 42960, Note_on_c, 5, 62, 64
5, 43199, Note_on_c, 5, 62, 0
5, 43200, Note_on_c, 5, 57, 64
5, 43439, Note_on_c, 5, 57, 0
5, 43440, Note_on_c, 5, 62, 64
5, 43679, Note_on_c, 5, 62, 0
5, 43680, Note_on_c, 5, 65, 64
5, 43919, Note_on_c, 5, 65, 0
5, 43920, Note_on_c, 5, 62, 64
5, 44159, Note_on_c, 5, 62, 0
5, 44160, Note_on_c, 5, 55, 64
5, 44399, Note_on_c, 5, 55, 0
5, 44400, Note_on_c, 5, 62, 64
5, 44639, Note_on_c, 5, 62, 0
5, 44640, Note_on_c, 5, 67, 64
5, 44879, Note_on_c, 5, 67, 0
5, 44880, Note_on_c, 5, 62, 64
5, 45119, Note_on_c, 5, 62, 0
5, 45120, Note_on_c, 5, 59, 64
5, 45359, Note_on_c, 5, 59, 0
5, 45360, Note_on_c, 5, 62, 64
5, 45599, Note_on_c, 5, 62, 0
5, 45600, Note_on_c, 5, 67, 64
5, 45839, Note_on_c, 5, 67, 0
5, 45840, Note_on_c, 5, 62, 64
5, 46079, Note_on_c, 5, 62, 0
5, 48000, Note_on_c, 5, 60, 64
5, 48239, Note_on_c, 5, 60, 0
5, 48240, Note_on_c, 5, 64, 64
5, 48479, Note_on_c, 5, 64, 0
5, 48480, Note_on_c, 5, 67, 64
5, 48719, Note_on_c, 5, 67, 0
5, 48720, Note_on_c, 5, 64, 64
5, 48959, Note_on_c, 5, 64, 0
5, 48960, Note_on_c, 5, 59, 64
5, 49919, Note_on_c, 5, 59, 0
5, 49920, Note_on_c, 5, 57, 64
5, 50159, Note_on_c, 5, 57, 0
5, 50160, Note_on_c, 5, 60, 64
5, 50399, Note_on_c, 5, 60, 0
5, 50400, Note_on_c, 5, 64, 64
5, 50639, Note_on_c, 5, 64, 0
5, 50640, Note_on_c, 5, 60, 64
5, 50879, Note_on_c, 5, 60, 0
5, 50880, Note_on_c, 5, 57, 64
5, 51119, Note_on_c, 5, 57, 0
5, 51120, Note_on_c, 5, 60, 64
5, 51359, Note_on_c, 5, 60, 0
5, 51360, Note_on_c, 5, 64, 64
5, 51599, Note_on_c, 5, 64, 0
5, 51600, Note_on_c, 5, 60, 64
5, 51839, Note_on_c, 5, 60, 0
5, 51840, Note_on_c, 5, 57, 64
5, 52079, Note_on_c, 5, 57, 0
5, 52080, Note_on_c, 5, 60, 64
5, 52319, Note_on_c, 5, 60, 0
5, 52320, Note_on_c, 5, 64, 64
5, 52559, Note_on_c, 5, 64, 0
5, 52560, Note_on_c, 5, 60, 64
5, 52799, Note_on_c, 5, 60, 0
5, 52800, Note_on_c, 5, 57, 64
5, 53039, Note_on_c, 5, 57, 0
5, 53040, Note_on_c, 5, 60, 64
5, 53279, Note_on_c, 5, 60, 0
5, 53280, Note_on_c, 5, 64, 64
5, 53519, Note_on_c, 5, 64, 0
5, 53520, Note_on_c, 5, 60, 64
5, 53759, Note_on_c, 5, 60, 0
5, 53760, Note_on_c, 5, 57, 64
5, 53999, Note_on_c, 5, 57, 0
5, 54000, Note_on_c, 5, 60, 64
5, 54239, Note_on_c, 5, 60, 0
5, 54240, Note_on_c, 5, 64, 64
5, 54479, Note_on_c, 5, 64, 0
5, 54480, Note_on_c, 5, 60, 64
5, 54719, Note_on_c, 5, 60, 0
5, 54720, Note_on_c, 5, 57, 64
5, 54959, Note_on_c, 5, 57, 0
5, 54960, Note_on_c, 5, 60, 64
5, 55199, Note_on_c, 5, 60, 0
5, 55200, Note_on_c, 5, 64, 64
5, 55439, Note_on_c, 5, 64, 0
5, 55440, Note_on_c, 5, 60, 64
5, 55679, Note_on_c, 5, 60, 0
5, 55680, Note_on_c, 5, 57, 64
5, 55919, Note_on_c, 5, 57, 0
5, 55920, Note_on_c, 5, 62, 64
5, 56159, Note_on_c, 5, 62, 0
5, 56160, Note_on_c, 5, 65, 64
5, 56399, Note_on_c, 5, 65, 0
5, 56400, Note_on_c, 5, 62, 64
5, 56639, Note_on_c, 5, 62, 0
5, 56640, Note_on_c, 5, 57, 64
5, 56879, Note_on_c, 5, 57, 0
5, 56880, Note_on_c, 5, 62, 64
5, 57119, Note_on_c, 5, 62, 0
5, 57120, Note_on_c, 5, 65, 64
5, 57359, Note_on_c, 5, 65, 0
5, 57360, Note_on_c, 5, 62, 64
5, 57599, Note_on_c, 5, 62, 0
5, 57600, Note_on_c, 5, 57, 64
5, 57839, Note_on_c, 5, 57, 0
5, 57840, Note_on_c, 5, 62, 64
5, 58079, Note_on_c, 5, 62, 0
5, 58080, Note_on_c, 5, 65, 64
5, 58319, Note_on_c, 5, 65, 0
5, 58320, Note_on_c, 5, 62, 64
5, 58559, Note_on_c, 5, 62, 0
5, 58560, Note_on_c, 5, 57, 64
5, 58799, Note_on_c, 5, 57, 0
5, 58800, Note_on_c, 5, 62, 64
5, 59039, Note_on_c, 5, 62, 0
5, 59040, Note_on_c, 5, 65, 64
5, 59279, Note_on_c, 5, 65, 0
5, 59280, Note_on_c, 5, 62, 64
5, 59519, Note_on_c, 5, 62, 0
5, 59520, Note_on_c, 5, 55, 64
5, 59759, Note_on_c, 5, 55, 0
5, 59760, Note_on_c, 5, 62, 64
5, 59999, Note_on_c, 5, 62, 0
5, 60000, Note_on_c, 5, 67, 64
5, 60239, Note_on_c, 5, 67, 0
5, 60240, Note_on_c, 5, 62, 64
5, 60479, Note_on_c, 5, 62, 0
5, 60480, Note_on_c, 5, 59, 64
5, 60719, Note_on_c, 5, 59, 0
5, 60720, Note_on_c, 5, 62, 64
5, 60959, Note_on_c, 5, 62, 0
5, 60960, Note_on_c, 5, 67, 64
5, 61199, Note_on_c, 5, 67, 0
5, 61200, Note_on_c, 5, 62, 64
5, 61439, Note_on_c, 5, 62, 0
5, 61440, Note_on_c, 5, 60, 64
5, 61679, Note_on_c, 5, 60, 0
5, 61680, Note_on_c, 5, 64, 64
5, 61919, Note_on_c, 5, 64, 0
5, 61920, Note_on_c, 5, 67, 64
5, 62159, Note_on_c, 5, 67, 0
5, 62160, Note_on_c, 5, 72, 64
5, 62399, Note_on_c, 5, 72, 0
5, 62400, Note_on_c, 5, 60, 64
5, 62639, Note_on_c, 5, 60, 0
5, 62640, Note_on_c, 5, 64, 64
5, 62879, Note_on_c, 5, 64, 0
5, 62880, Note_on_c, 5, 67, 64
5, 63119, Note_on_c, 5, 67, 0
5, 63120, Note_on_c, 5, 72, 64
5, 63359, Note_on_c, 5, 72, 0
5, 63360, Note_on_c, 5, 60, 64
5, 63599, Note_on_c, 5, 60, 0
5, 63600, Note_on_c, 5, 64, 64
5, 63839, Note_on_c, 5, 64, 0
5, 63840, Note_on_c, 5, 67, 64
5, 64079, Note_on_c, 5, 67, 0
5, 64080, Note_on_c, 5, 72, 64
5, 64319, Note_on_c, 5, 72, 0
5, 64320, Note_on_c, 5, 59, 64
5, 64559, Note_on_c, 5, 59, 0
5, 64560, Note_on_c, 5, 64, 64
5, 64799, Note_on_c, 5, 64, 0
5, 64800, Note_on_c, 5, 67, 64
5, 65039, Note_on_c, 5, 67, 0
5, 65040, Note_on_c, 5, 72, 64
5, 65279, Note_on_c, 5, 72, 0
5, 65280, Note_on_c, 5, 57, 64
5, 65519, Note_on_c, 5, 57, 0
5, 65520, Note_on_c, 5, 60, 64
5, 65759, Note_on_c, 5, 60, 0
5, 65760, Note_on_c, 5, 64, 64
5, 65999, Note_on_c, 5, 64, 0
5, 66000, Note_on_c, 5, 69, 64
5, 66239, Note_on_c, 5, 69, 0
5, 66240, Note_on_c, 5, 57, 64
5, 66479, Note_on_c, 5, 57, 0
5, 66480, Note_on_c, 5, 60, 64
5, 66719, Note_on_c, 5, 60, 0
5, 66720, Note_on_c, 5, 64, 64
5, 66959, Note_on_c, 5, 64, 0
5, 66960, Note_on_c, 5, 69, 64
5, 67199, Note_on_c, 5, 69, 0
5, 67200, Note_on_c, 5, 57, 64
5, 67439, Note_on_c, 5, 57, 0
5, 67440, Note_on_c, 5, 60, 64
5, 67679, Note_on_c, 5, 60, 0
5, 67680, Note_on_c, 5, 64, 64
5, 67919, Note_on_c, 5, 64, 0
5, 67920, Note_on_c, 5, 69, 64
5, 68159, Note_on_c, 5, 69, 0
5, 68160, Note_on_c, 5, 64, 64
5, 68399, Note_on_c, 5, 64, 0
5, 68400, Note_on_c, 5, 71, 64
5, 68639, Note_on_c, 5, 71, 0
5, 68640, Note_on_c, 5, 67, 64
5, 68879, Note_on_c, 5, 67, 0
5, 68880, Note_on_c, 5, 72, 64
5, 69119, Note_on_c, 5, 72, 0
5, 69120, Note_on_c, 5, 57, 64
5, 69359, Note_on_c, 5, 57, 0
5, 69360, Note_on_c, 5, 60, 64
5, 69599, Note_on_c, 5, 60, 0
5, 69600, Note_on_c, 5, 64, 64
5, 69839, Note_on_c, 5, 64, 0
5, 69840, Note_on_c, 5, 69, 64
5, 70079, Note_on_c, 5, 69, 0
5, 70080, Note_on_c, 5, 57, 64
5, 70319, Note_on_c, 5, 57, 0
5, 70320, Note_on_c, 5, 60, 64
5, 70559, Note_on_c, 5, 60, 0
5, 70560, Note_on_c, 5, 64, 64
5, 70799, Note_on_c, 5, 64, 0
5, 70800, Note_on_c, 5, 69, 64
5, 71039, Note_on_c, 5, 69, 0
5, 71040, Note_on_c, 5, 57, 64
5, 71279, Note_on_c, 5, 57, 0
5, 71280, Note_on_c, 5, 62, 64
5, 71519, Note_on_c, 5, 62, 0
5, 71520, Note_on_c, 5, 65, 64
5, 71759, Note_on_c, 5, 65, 0
5, 71760, Note_on_c, 5, 69, 64
5, 71999, Note_on_c, 5, 69, 0
5, 72000, Note_on_c, 5, 60, 64
5, 72239, Note_on_c, 5, 60, 0
5, 72240, Note_on_c, 5, 62, 64
5, 72479, Note_on_c, 5, 62, 0
5, 72480, Note_on_c, 5, 65, 64
5, 72719, Note_on_c, 5, 65, 0
5, 72720, Note_on_c, 5, 69, 64
5, 72959, Note_on_c, 5, 69, 0
5, 72960, Note_on_c, 5, 57, 64
5, 73199, Note_on_c, 5, 57, 0
5, 73200, Note_on_c, 5, 62, 64
5, 73439, Note_on_c, 5, 62, 0
5, 73440, Note_on_c, 5, 65, 64
5, 73679, Note_on_c, 5, 65, 0
5, 73680, Note_on_c, 5, 69, 64
5, 73919, Note_on_c, 5, 69, 0
5, 73920, Note_on_c, 5, 57, 64
5, 74159, Note_on_c, 5, 57, 0
5, 74160, Note_on_c, 5, 62, 64
5, 74399, Note_on_c, 5, 62, 0
5, 74400, Note_on_c, 5, 65, 64
5, 74639, Note_on_c, 5, 65, 0
5, 74640, Note_on_c, 5, 69, 64
5, 74879, Note_on_c, 5, 69, 0
5, 74880, Note_on_c, 5, 55, 64
5, 75119, Note_on_c, 5, 55, 0
5, 75120, Note_on_c, 5, 67, 64
5, 75359, Note_on_c, 5, 67, 0
5, 75360, Note_on_c, 5, 57, 64
5, 75599, Note_on_c, 5, 57, 0
5, 75600, Note_on_c, 5, 67, 64
5, 75839, Note_on_c, 5, 67, 0
5, 75840, Note_on_c, 5, 59, 64
5, 76079, Note_on_c, 5, 59, 0
5, 76080, Note_on_c, 5, 67, 64
5, 76319, Note_on_c, 5, 67, 0
5, 76320, Note_on_c, 5, 60, 64
5, 76559, Note_on_c, 5, 60, 0
5, 76560, Note_on_c, 5, 67, 64
5, 76799, Note_on_c, 5, 67, 0
5, 107520, Note_on_c, 5, 60, 64
5, 107759, Note_on_c, 5, 60, 0
5, 107760, Note_on_c, 5, 64, 64
5, 107999, Note_on_c, 5, 64, 0
5, 108000, Note_on_c, 5, 67, 64
5, 108239, Note_on_c, 5, 67, 0
5, 108240, Note_on_c, 5, 64, 64
5, 108479, Note_on_c, 5, 64, 0
5, 108480, Note_on_c, 5, 60, 64
5, 108719, Note_on_c, 5, 60, 0
5, 108720, Note_on_c, 5, 64, 64
5, 108959, Note_on_c, 5, 64, 0
5, 108960, Note_on_c, 5, 67, 64
5, 109199, Note_on_c, 5, 67, 0
5, 109200, Note_on_c, 5, 64, 64
5, 109439, Note_on_c, 5, 64, 0
5, 109440, Note_on_c, 5, 60, 64
5, 109679, Note_on_c, 5, 60, 0
5, 109680, Note_on_c, 5, 64, 64
5, 109919, Note_on_c, 5, 64, 0
5, 109920, Note_on_c, 5, 67, 64
5, 110159, Note_on_c, 5, 67, 0
5, 110160, Note_on_c, 5, 64, 64
5, 110399, Note_on_c, 5, 64, 0
5, 110400, Note_on_c, 5, 59, 64
5, 110639, Note_on_c, 5, 59, 0
5, 110640, Note_on_c, 5, 64, 64
5, 110879, Note_on_c, 5, 64, 0
5, 110880, Note_on_c, 5, 67, 64
5, 111119, Note_on_c, 5, 67, 0
5, 111120, Note_on_c, 5, 64, 64
5, 111359, Note_on_c, 5, 64, 0
5, 111360, Note_on_c, 5, 57, 64
5, 111599, Note_on_c, 5, 57, 0
5, 111600, Note_on_c, 5, 60, 64
5, 111839, Note_on_c, 5, 60, 0
5, 111840, Note_on_c, 5, 64, 64
5, 112079, Note_on_c, 5, 64, 0
5, 112080, Note_on_c, 5, 60, 64
5, 112319, Note_on_c, 5, 60, 0
5, 112320, Note_on_c, 5, 57, 64
5, 112559, Note_on_c, 5, 57, 0
5, 112560, Note_on_c, 5, 60, 64
5, 112799, Note_on_c, 5, 60, 0
5, 112800, Note_on_c, 5, 64, 64
5, 113039, Note_on_c, 5, 64, 0
5, 113040, Note_on_c, 5, 60, 64
5, 113279, Note_on_c, 5, 60, 0
5, 113280, Note_on_c, 5, 57, 64
5, 113519, Note_on_c, 5, 57, 0
5, 113520, Note_on_c, 5, 60, 64
5, 113759, Note_on_c, 5, 60, 0
5, 113760, Note_on_c, 5, 64, 64
5, 113999, Note_on_c, 5, 64, 0
5, 114000, Note_on_c, 5, 60, 64
5, 114239, Note_on_c, 5, 60, 0
5, 114240, Note_on_c, 5, 57, 64
5, 114479, Note_on_c, 5, 57, 0
5, 114480, Note_on_c, 5, 60, 64
5, 114719, Note_on_c, 5, 60, 0
5, 114720, Note_on_c, 5, 64, 64
5, 114959, Note_on_c, 5, 64, 0
5, 114960, Note_on_c, 5, 60, 64
5, 115199, Note_on_c, 5, 60, 0
5, 115200, Note_on_c, 5, 57, 64
5, 115439, Note_on_c, 5, 57, 0
5, 115440, Note_on_c, 5, 60, 64
5, 115679, Note_on_c, 5, 60, 0
5, 115680, Note_on_c, 5, 64, 64
5, 115919, Note_on_c, 5, 64, 0
5, 115920, Note_on_c, 5, 60, 64
5, 116159, Note_on_c, 5, 60, 0
5, 116160, Note_on_c, 5, 57, 64
5, 116399, Note_on_c, 5, 57, 0
5, 116400, Note_on_c, 5, 60, 64
5, 116639, Note_on_c, 5, 60, 0
5, 116640, Note_on_c, 5, 64, 64
5, 116879, Note_on_c, 5, 64, 0
5, 116880, Note_on_c, 5, 60, 64
5, 117119, Note_on_c, 5, 60, 0
5, 117120, Note_on_c, 5, 57, 64
5, 117359, Note_on_c, 5, 57, 0
5, 117360, Note_on_c, 5, 62, 64
5, 117599, Note_on_c, 5, 62, 0
5, 117600, Note_on_c, 5, 65, 64
5, 117839, Note_on_c, 5, 65, 0
5, 117840, Note_on_c, 5, 62, 64
5, 118079, Note_on_c, 5, 62, 0
5, 118080, Note_on_c, 5, 60, 64
5, 118319, Note_on_c, 5, 60, 0
5, 118320, Note_on_c, 5, 62, 64
5, 118559, Note_on_c, 5, 62, 0
5, 118560, Note_on_c, 5, 65, 64
5, 118799, Note_on_c, 5, 65, 0
5, 118800, Note_on_c, 5, 62, 64
5, 119039, Note_on_c, 5, 62, 0
5, 119040, Note_on_c, 5, 57, 64
5, 119279, Note_on_c, 5, 57, 0
5, 119280, Note_on_c, 5, 62, 64
5, 119519, Note_on_c, 5, 62, 0
5, 119520, Note_on_c, 5, 65, 64
5, 119759, Note_on_c, 5, 65, 0
5, 119760, Note_on_c, 5, 62, 64
5, 119999, Note_on_c, 5, 62, 0
5, 120000, Note_on_c, 5, 57, 64
5, 120239, Note_on_c, 5, 57, 0
5, 120240, Note_on_c, 5, 62, 64
5, 120479, Note_on_c, 5, 62, 0
5, 120480, Note_on_c, 5, 65, 64
5, 120719, Note_on_c, 5, 65, 0
5, 120720, Note_on_c, 5, 62, 64
5, 120959, Note_on_c, 5, 62, 0
5, 120960, Note_on_c, 5, 55, 64
5, 121199, Note_on_c, 5, 55, 0
5, 121200, Note_on_c, 5, 62, 64
5, 121439, Note_on_c, 5, 62, 0
5, 121440, Note_on_c, 5, 67, 64
5, 121679, Note_on_c, 5, 67, 0
5, 121680, Note_on_c, 5, 62, 64
5, 121919, Note_on_c, 5, 62, 0
5, 121920, Note_on_c, 5, 59, 64
5, 122159, Note_on_c, 5, 59, 0
5, 122160, Note_on_c, 5, 62, 64
5, 122399, Note_on_c, 5, 62, 0
5, 122400, Note_on_c, 5, 67, 64
5, 122639, Note_on_c, 5, 67, 0
5, 122640, Note_on_c, 5, 62, 64
5, 122879, Note_on_c, 5, 62, 0
5, 122880, Note_on_c, 5, 60, 64
5, 123119, Note_on_c, 5, 60, 0
5, 123120, Note_on_c, 5, 64, 64
5, 123359, Note_on_c, 5, 64, 0
5, 123360, Note_on_c, 5, 67, 64
5, 123599, Note_on_c, 5, 67, 0
5, 123600, Note_on_c, 5, 64, 64
5, 123839, Note_on_c, 5, 64, 0
5, 123840, Note_on_c, 5, 60, 64
5, 124079, Note_on_c, 5, 60, 0
5, 124080, Note_on_c, 5, 64, 64
5, 124319, Note_on_c, 5, 64, 0
5, 124320, Note_on_c, 5, 67, 64
5, 124559, Note_on_c, 5, 67, 0
5, 124560, Note_on_c, 5, 64, 64
5, 124799, Note_on_c, 5, 64, 0
5, 124800, Note_on_c, 5, 60, 64
5, 125039, Note_on_c, 5, 60, 0
5, 125040, Note_on_c, 5, 64, 64
5, 125279, Note_on_c, 5, 64, 0
5, 125280, Note_on_c, 5, 67, 64
5, 125519, Note_on_c, 5, 67, 0
5, 125520, Note_on_c, 5, 64, 64
5, 125759, Note_on_c, 5, 64, 0
5, 125760, Note_on_c, 5, 59, 64
5, 125999, Note_on_c, 5, 59, 0
5, 126000, Note_on_c, 5, 64, 64
5, 126239, Note_on_c, 5, 64, 0
5, 126240, Note_on_c, 5, 67, 64
5, 126479, Note_on_c, 5, 67, 0
5, 126480, Note_on_c, 5, 64, 64
5, 126719, Note_on_c, 5, 64, 0
5, 126720, Note_on_c, 5, 57, 64
5, 126959, Note_on_c, 5, 57, 0
5, 126960, Note_on_c, 5, 60, 64
5, 127199, Note_on_c, 5, 60, 0
5, 127200, Note_on_c, 5, 64, 64
5, 127439, Note_on_c, 5, 64, 0
5, 127440, Note_on_c, 5, 60, 64
5, 127679, Note_on_c, 5, 60, 0
5, 127680, Note_on_c, 5, 57, 64
5, 127919, Note_on_c, 5, 57, 0
5, 127920, Note_on_c, 5, 60, 64
5, 128159, Note_on_c, 5, 60, 0
5, 128160, Note_on_c, 5, 64, 64
5, 128399, Note_on_c, 5, 64, 0
5, 128400, Note_on_c, 5, 60, 64
5, 128639, Note_on_c, 5, 60, 0
5, 128640, Note_on_c, 5, 57, 64
5, 128879, Note_on_c, 5, 57, 0
5, 128880, Note_on_c, 5, 60, 64
5, 129119, Note_on_c, 5, 60, 0
5, 129120, Note_on_c, 5, 64, 64
5, 129359, Note_on_c, 5, 64, 0
5, 129360, Note_on_c, 5, 60, 64
5, 129599, Note_on_c, 5, 60, 0
5, 129600, Note_on_c, 5, 57, 64
5, 129839, Note_on_c, 5, 57, 0
5, 129840, Note_on_c, 5, 60, 64
5, 130079, Note_on_c, 5, 60, 0
5, 130080, Note_on_c, 5, 64, 64
5, 130319, Note_on_c, 5, 64, 0
5, 130320, Note_on_c, 5, 60, 64
5, 130559, Note_on_c, 5, 60, 0
5, 130560, Note_on_c, 5, 57, 64
5, 130799, Note_on_c, 5, 57, 0
5, 130800, Note_on_c, 5, 60, 64
5, 131039, Note_on_c, 5, 60, 0
5, 131040, Note_on_c, 5, 64, 64
5, 131279, Note_on_c, 5, 64, 0
5, 131280, Note_on_c, 5, 60, 64
5, 131519, Note_on_c, 5, 60, 0
5, 131520, Note_on_c, 5, 57, 64
5, 131759, Note_on_c, 5, 57, 0
5, 131760, Note_on_c, 5, 60, 64
5, 131999, Note_on_c, 5, 60, 0
5, 132000, Note_on_c, 5, 64, 64
5, 132239, Note_on_c, 5, 64, 0
5, 132240, Note_on_c, 5, 60, 64
5, 132479, Note_on_c, 5, 60, 0
5, 132480, Note_on_c, 5, 57, 64
5, 132719, Note_on_c, 5, 57, 0
5, 132720, Note_on_c, 5, 62, 64
5, 132959, Note_on_c, 5, 62, 0
5, 132960, Note_on_c, 5, 65, 64
5, 133199, Note_on_c, 5, 65, 0
5, 133200, Note_on_c, 5, 62, 64
5, 133439, Note_on_c, 5, 62, 0
5, 133440, Note_on_c, 5, 60, 64
5, 133679, Note_on_c, 5, 60, 0
5, 133680, Note_on_c, 5, 62, 64
5, 133919, Note_on_c, 5, 62, 0
5, 133920, Note_on_c, 5, 65, 64
5, 134159, Note_on_c, 5, 65, 0
5, 134160, Note_on_c, 5, 62, 64
5, 134399, Note_on_c, 5, 62, 0
5, 134400, Note_on_c, 5, 57, 64
5, 134639, Note_on_c, 5, 57, 0
5, 134640, Note_on_c, 5, 62, 64
5, 134879, Note_on_c, 5, 62, 0
5, 134880, Note_on_c, 5, 65, 64
5, 135119, Note_on_c, 5, 65, 0
5, 135120, Note_on_c, 5, 62, 64
5, 135359, Note_on_c, 5, 62, 0
5, 135360, Note_on_c, 5, 57, 64
5, 135599, Note_on_c, 5, 57, 0
5, 135600, Note_on_c, 5, 62, 64
5, 135839, Note_on_c, 5, 62, 0
5, 135840, Note_on_c, 5, 65, 64
5, 136079, Note_on_c, 5, 65, 0
5, 136080, Note_on_c, 5, 62, 64
5, 136319, Note_on_c, 5, 62, 0
5, 136320, Note_on_c, 5, 55, 64
5, 136559, Note_on_c, 5, 55, 0
5, 136560, Note_on_c, 5, 62, 64
5, 136799, Note_on_c, 5, 62, 0
5, 136800, Note_on_c, 5, 67, 64
5, 137039, Note_on_c, 5, 67, 0
5, 137040, Note_on_c, 5, 62, 64
5, 137279, Note_on_c, 5, 62, 0
5, 137280, Note_on_c, 5, 59, 64
5, 137519, Note_on_c, 5, 59, 0
5, 137520, Note_on_c, 5, 62, 64
5, 137759, Note_on_c, 5, 62, 0
5, 137760, Note_on_c, 5, 67, 64
5, 137999, Note_on_c, 5, 67, 0
5, 138000, Note_on_c, 5, 62, 64
5, 138239, Note_on_c, 5, 62, 0
5, 138240, Note_on_c, 5, 67, 80
5, 139679, Note_on_c, 5, 67, 0
5, 139920, Note_on_c, 5, 67, 80
5, 142079, Note_on_c, 5, 67, 0
5, 142080, End_track
0, 0, End_of_file
