0, 0, Header, 1, 5, 480
1, 0, Start_track
1, 0, Title_t, "Marimba (Grand Staff), Marimba (Grand Staff)\000"
1, 0, Time_signature, 2, 1, 24, 8
1, 0, Key_signature, 0, "major"
1, 0, Tempo, 600000
1, 0, Control_c, 0, 121, 0
1, 0, Program_c, 0, 12
1, 0, Control_c, 0, 7, 100
1, 0, Control_c, 0, 10, 64
1, 0, Control_c, 0, 91, 0
1, 0, Control_c, 0, 93, 0
1, 0, MIDI_port, 0
1, 3660, Note_on_c, 0, 60, 80
1, 3719, Note_on_c, 0, 60, 0
1, 3720, Note_on_c, 0, 64, 80
1, 3779, Note_on_c, 0, 64, 0
1, 3780, Note_on_c, 0, 67, 80
1, 3839, Note_on_c, 0, 67, 0
1, 3840, Note_on_c, 0, 72, 80
1, 4319, Note_on_c, 0, 72, 0
1, 5580, Note_on_c, 0, 59, 80
1, 5639, Note_on_c, 0, 59, 0
1, 5640, Note_on_c, 0, 62, 80
1, 5699, Note_on_c, 0, 62, 0
1, 5700, Note_on_c, 0, 67, 80
1, 5759, Note_on_c, 0, 67, 0
1, 7500, Note_on_c, 0, 57, 80
1, 7559, Note_on_c, 0, 57, 0
1, 7560, Note_on_c, 0, 60, 80
1, 7619, Note_on_c, 0, 60, 0
1, 7620, Note_on_c, 0, 65, 80
1, 7679, Note_on_c, 0, 65, 0
1, 9420, Note_on_c, 0, 59, 80
1, 9479, Note_on_c, 0, 59, 0
1, 9480, Note_on_c, 0, 62, 80
1, 9539, Note_on_c, 0, 62, 0
1, 9540, Note_on_c, 0, 67, 80
1, 9599, Note_on_c, 0, 67, 0
1, 11340, Note_on_c, 0, 60, 80
1, 11399, Note_on_c, 0, 60, 0
1, 11400, Note_on_c, 0, 64, 80
1, 11459, Note_on_c, 0, 64, 0
1, 11460, Note_on_c, 0, 67, 80
1, 11519, Note_on_c, 0, 67, 0
1, 13260, Note_on_c, 0, 59, 80
1, 13319, Note_on_c, 0, 59, 0
1, 13320, Note_on_c, 0, 62, 80
1, 13379, Note_on_c, 0, 62, 0
1, 13380, Note_on_c, 0, 67, 80
1, 13439, Note_on_c, 0, 67, 0
1, 15180, Note_on_c, 0, 57, 80
1, 15239, Note_on_c, 0, 57, 0
1, 15240, Note_on_c, 0, 60, 80
1, 15299, Note_on_c, 0, 60, 0
1, 15300, Note_on_c, 0, 65, 80
1, 15359, Note_on_c, 0, 65, 0
1, 17160, Note_on_c, 0, 59, 80
1, 17199, Note_on_c, 0, 59, 0
1, 17200, Note_on_c, 0, 62, 80
1, 17239, Note_on_c, 0, 62, 0
1, 17240, Note_on_c, 0, 67, 80
1, 17279, Note_on_c, 0, 67, 0
1, 19680, Note_on_c, 0, 72, 80
1, 19680, Note_on_c, 0, 76, 80
1, 20159, Note_on_c, 0, 72, 0
1, 20159, Note_on_c, 0, 76, 0
1, 20160, Note_on_c, 0, 71, 80
1, 20160, Note_on_c, 0, 74, 80
1, 20639, Note_on_c, 0, 71, 0
1, 20639, Note_on_c, 0, 74, 0
1, 20640, Note_on_c, 0, 72, 80
1, 20640, Note_on_c, 0, 76, 80
1, 20879, Note_on_c, 0, 72, 0
1, 20879, Note_on_c, 0, 76, 0
1, 21120, Note_on_c, 0, 71, 80
1, 21120, Note_on_c, 0, 74, 80
1, 22079, Note_on_c, 0, 71, 0
1, 22079, Note_on_c, 0, 74, 0
1, 22080, Note_on_c, 0, 76, 80
1, 22080, Note_on_c, 0, 79, 80
1, 23039, Note_on_c, 0, 76, 0
1, 23039, Note_on_c, 0, 79, 0
1, 23520, Note_on_c, 0, 76, 80
1, 23520, Note_on_c, 0, 79, 80
1, 23999, Note_on_c, 0, 76, 0
1, 23999, Note_on_c, 0, 79, 0
1, 24000, Note_on_c, 0, 74, 80
1, 24000, Note_on_c, 0, 77, 80
1, 24479, Note_on_c, 0, 74, 0
1, 24479, Note_on_c, 0, 77, 0
1, 24480, Note_on_c, 0, 72, 80
1, 24480, Note_on_c, 0, 76, 80
1, 24959, Note_on_c, 0, 72, 0
1, 24959, Note_on_c, 0, 76, 0
1, 24960, Note_on_c, 0, 71, 80
1, 24960, Note_on_c, 0, 74, 80
1, 25919, Note_on_c, 0, 71, 0
1, 25919, Note_on_c, 0, 74, 0
1, 25920, Note_on_c, 0, 64, 80
1, 25920, Note_on_c, 0, 67, 80
1, 26159, Note_on_c, 0, 64, 0
1, 26159, Note_on_c, 0, 67, 0
1, 26400, Note_on_c, 0, 62, 80
1, 26559, Note_on_c, 0, 62, 0
1, 26560, Note_on_c, 0, 64, 80
1, 26719, Note_on_c, 0, 64, 0
1, 26720, Note_on_c, 0, 65, 80
1, 26879, Note_on_c, 0, 65, 0
1, 27360, Note_on_c, 0, 72, 80
1, 27360, Note_on_c, 0, 76, 80
1, 27839, Note_on_c, 0, 72, 0
1, 27839, Note_on_c, 0, 76, 0
1, 27840, Note_on_c, 0, 71, 80
1, 27840, Note_on_c, 0, 74, 80
1, 28319, Note_on_c, 0, 71, 0
1, 28319, Note_on_c, 0, 74, 0
1, 28320, Note_on_c, 0, 72, 80
1, 28320, Note_on_c, 0, 76, 80
1, 28799, Note_on_c, 0, 72, 0
1, 28799, Note_on_c, 0, 76, 0
1, 28800, Note_on_c, 0, 71, 80
1, 28800, Note_on_c, 0, 74, 80
1, 29759, Note_on_c, 0, 71, 0
1, 29759, Note_on_c, 0, 74, 0
1, 29760, Note_on_c, 0, 76, 80
1, 29760, Note_on_c, 0, 79, 80
1, 30239, Note_on_c, 0, 76, 0
1, 30239, Note_on_c, 0, 79, 0
1, 30240, Note_on_c, 0, 76, 80
1, 30240, Note_on_c, 0, 79, 80
1, 30399, Note_on_c, 0, 76, 0
1, 30399, Note_on_c, 0, 79, 0
1, 30400, Note_on_c, 0, 74, 80
1, 30400, Note_on_c, 0, 77, 80
1, 30559, Note_on_c, 0, 74, 0
1, 30559, Note_on_c, 0, 77, 0
1, 30560, Note_on_c, 0, 72, 80
1, 30560, Note_on_c, 0, 76, 80
1, 30719, Note_on_c, 0, 72, 0
1, 30719, Note_on_c, 0, 76, 0
1, 30720, Note_on_c, 0, 69, 80
1, 30720, Note_on_c, 0, 72, 80
1, 32159, Note_on_c, 0, 69, 0
1, 32159, Note_on_c, 0, 72, 0
1, 32160, Note_on_c, 0, 67, 80
1, 32160, Note_on_c, 0, 71, 80
1, 32399, Note_on_c, 0, 67, 0
1, 32399, Note_on_c, 0, 71, 0
1, 32400, Note_on_c, 0, 69, 80
1, 32400, Note_on_c, 0, 72, 80
1, 32639, Note_on_c, 0, 69, 0
1, 32639, Note_on_c, 0, 72, 0
1, 32640, Note_on_c, 0, 71, 80
1, 32640, Note_on_c, 0, 74, 80
1, 34559, Note_on_c, 0, 71, 0
1, 34559, Note_on_c, 0, 74, 0
1, 34560, Note_on_c, 0, 72, 80
1, 34799, Note_on_c, 0, 72, 0
1, 34800, Note_on_c, 0, 67, 80
1, 35039, Note_on_c, 0, 67, 0
1, 35040, Note_on_c, 0, 72, 80
1, 35040, Note_on_c, 0, 76, 80
1, 35279, Note_on_c, 0, 72, 0
1, 35279, Note_on_c, 0, 76, 0
1, 35280, Note_on_c, 0, 72, 80
1, 35519, Note_on_c, 0, 72, 0
1, 35520, Note_on_c, 0, 71, 80
1, 35520, Note_on_c, 0, 74, 80
1, 35759, Note_on_c, 0, 71, 0
1, 35759, Note_on_c, 0, 74, 0
1, 35760, Note_on_c, 0, 72, 80
1, 35760, Note_on_c, 0, 76, 80
1, 35999, Note_on_c, 0, 72, 0
1, 35999, Note_on_c, 0, 76, 0
1, 36000, Note_on_c, 0, 71, 80
1, 36000, Note_on_c, 0, 74, 80
1, 36239, Note_on_c, 0, 71, 0
1, 36239, Note_on_c, 0, 74, 0
1, 36240, Note_on_c, 0, 69, 80
1, 36240, Note_on_c, 0, 72, 80
1, 36479, Note_on_c, 0, 69, 0
1, 36479, Note_on_c, 0, 72, 0
1, 36480, Note_on_c, 0, 71, 80
1, 36480, Note_on_c, 0, 74, 80
1, 36719, Note_on_c, 0, 71, 0
1, 36719, Note_on_c, 0, 74, 0
1, 36720, Note_on_c, 0, 62, 80
1, 36959, Note_on_c, 0, 62, 0
1, 36960, Note_on_c, 0, 67, 80
1, 37199, Note_on_c, 0, 67, 0
1, 37200, Note_on_c, 0, 71, 80
1, 37439, Note_on_c, 0, 71, 0
1, 37440, Note_on_c, 0, 76, 80
1, 37440, Note_on_c, 0, 79, 80
1, 38159, Note_on_c, 0, 76, 0
1, 38159, Note_on_c, 0, 79, 0
1, 38160, Note_on_c, 0, 71, 80
1, 38160, Note_on_c, 0, 74, 80
1, 38399, Note_on_c, 0, 71, 0
1, 38399, Note_on_c, 0, 74, 0
1, 38400, Note_on_c, 0, 69, 80
1, 38400, Note_on_c, 0, 72, 80
1, 38639, Note_on_c, 0, 69, 0
1, 38639, Note_on_c, 0, 72, 0
1, 38640, Note_on_c, 0, 69, 80
1, 38879, Note_on_c, 0, 69, 0
1, 38880, Note_on_c, 0, 76, 80
1, 38880, Note_on_c, 0, 79, 80
1, 39119, Note_on_c, 0, 76, 0
1, 39119, Note_on_c, 0, 79, 0
1, 39120, Note_on_c, 0, 69, 80
1, 39359, Note_on_c, 0, 69, 0
1, 39360, Note_on_c, 0, 74, 80
1, 39360, Note_on_c, 0, 77, 80
1, 39599, Note_on_c, 0, 74, 0
1, 39599, Note_on_c, 0, 77, 0
1, 39600, Note_on_c, 0, 69, 80
1, 39839, Note_on_c, 0, 69, 0
1, 39840, Note_on_c, 0, 72, 80
1, 39840, Note_on_c, 0, 76, 80
1, 40319, Note_on_c, 0, 72, 0
1, 40319, Note_on_c, 0, 76, 0
1, 40320, Note_on_c, 0, 71, 80
1, 40320, Note_on_c, 0, 74, 80
1, 40559, Note_on_c, 0, 71, 0
1, 40559, Note_on_c, 0, 74, 0
1, 40560, Note_on_c, 0, 62, 80
1, 40799, Note_on_c, 0, 62, 0
1, 40800, Note_on_c, 0, 67, 80
1, 41039, Note_on_c, 0, 67, 0
1, 41040, Note_on_c, 0, 71, 80
1, 41279, Note_on_c, 0, 71, 0
1, 41280, Note_on_c, 0, 67, 80
1, 41519, Note_on_c, 0, 67, 0
1, 41520, Note_on_c, 0, 71, 80
1, 41759, Note_on_c, 0, 71, 0
1, 41760, Note_on_c, 0, 74, 80
1, 41999, Note_on_c, 0, 74, 0
1, 42000, Note_on_c, 0, 79, 80
1, 42239, Note_on_c, 0, 79, 0
1, 42240, Note_on_c, 0, 72, 80
1, 42479, Note_on_c, 0, 72, 0
1, 42480, Note_on_c, 0, 67, 80
1, 42719, Note_on_c, 0, 67, 0
1, 42720, Note_on_c, 0, 72, 80
1, 42720, Note_on_c, 0, 76, 80
1, 42959, Note_on_c, 0, 72, 0
1, 42959, Note_on_c, 0, 76, 0
1, 42960, Note_on_c, 0, 72, 80
1, 43199, Note_on_c, 0, 72, 0
1, 43200, Note_on_c, 0, 71, 80
1, 43200, Note_on_c, 0, 74, 80
1, 43439, Note_on_c, 0, 71, 0
1, 43439, Note_on_c, 0, 74, 0
1, 43440, Note_on_c, 0, 72, 80
1, 43440, Note_on_c, 0, 76, 80
1, 43679, Note_on_c, 0, 72, 0
1, 43679, Note_on_c, 0, 76, 0
1, 43680, Note_on_c, 0, 71, 80
1, 43680, Note_on_c, 0, 74, 80
1, 43919, Note_on_c, 0, 71, 0
1, 43919, Note_on_c, 0, 74, 0
1, 43920, Note_on_c, 0, 69, 80
1, 43920, Note_on_c, 0, 72, 80
1, 44159, Note_on_c, 0, 69, 0
1, 44159, Note_on_c, 0, 72, 0
1, 44160, Note_on_c, 0, 71, 80
1, 44160, Note_on_c, 0, 74, 80
1, 44399, Note_on_c, 0, 71, 0
1, 44399, Note_on_c, 0, 74, 0
1, 44400, Note_on_c, 0, 62, 80
1, 44639, Note_on_c, 0, 62, 0
1, 44640, Note_on_c, 0, 67, 80
1, 44879, Note_on_c, 0, 67, 0
1, 44880, Note_on_c, 0, 71, 80
1, 45119, Note_on_c, 0, 71, 0
1, 45120, Note_on_c, 0, 76, 80
1, 45120, Note_on_c, 0, 79, 80
1, 45839, Note_on_c, 0, 76, 0
1, 45839, Note_on_c, 0, 79, 0
1, 45840, Note_on_c, 0, 76, 80
1, 45840, Note_on_c, 0, 79, 80
1, 46079, Note_on_c, 0, 76, 0
1, 46079, Note_on_c, 0, 79, 0
1, 46080, Note_on_c, 0, 72, 80
1, 46080, Note_on_c, 0, 69, 80
1, 47039, Note_on_c, 0, 69, 0
1, 47279, Note_on_c, 0, 72, 0
1, 47280, Note_on_c, 0, 74, 80
1, 47399, Note_on_c, 0, 74, 0
1, 47400, Note_on_c, 0, 72, 80
1, 47519, Note_on_c, 0, 72, 0
1, 47520, Note_on_c, 0, 71, 80
1, 47759, Note_on_c, 0, 71, 0
1, 47760, Note_on_c, 0, 72, 80
1, 47999, Note_on_c, 0, 72, 0
1, 48000, Note_on_c, 0, 71, 80
1, 48000, Note_on_c, 0, 74, 80
1, 49919, Note_on_c, 0, 71, 0
1, 49919, Note_on_c, 0, 74, 0
1, 50400, Note_on_c, 0, 60, 80
1, 50400, Note_on_c, 0, 69, 80
1, 50579, Note_on_c, 0, 60, 0
1, 50579, Note_on_c, 0, 69, 0
1, 50760, Note_on_c, 0, 69, 80
1, 50819, Note_on_c, 0, 69, 0
1, 50820, Note_on_c, 0, 72, 80
1, 50879, Note_on_c, 0, 72, 0
1, 50880, Note_on_c, 0, 81, 80
1, 51359, Note_on_c, 0, 81, 0
1, 51360, Note_on_c, 0, 72, 80
1, 51360, Note_on_c, 0, 81, 80
1, 51539, Note_on_c, 0, 72, 0
1, 51539, Note_on_c, 0, 81, 0
1, 51720, Note_on_c, 0, 67, 80
1, 51779, Note_on_c, 0, 67, 0
1, 51780, Note_on_c, 0, 72, 80
1, 51839, Note_on_c, 0, 72, 0
1, 51840, Note_on_c, 0, 79, 80
1, 52319, Note_on_c, 0, 79, 0
1, 52320, Note_on_c, 0, 67, 80
1, 52799, Note_on_c, 0, 67, 0
1, 52800, Note_on_c, 0, 67, 80
1, 52800, Note_on_c, 0, 76, 80
1, 53759, Note_on_c, 0, 67, 0
1, 53759, Note_on_c, 0, 76, 0
1, 54240, Note_on_c, 0, 60, 80
1, 54240, Note_on_c, 0, 69, 80
1, 54419, Note_on_c, 0, 60, 0
1, 54419, Note_on_c, 0, 69, 0
1, 54600, Note_on_c, 0, 69, 80
1, 54659, Note_on_c, 0, 69, 0
1, 54660, Note_on_c, 0, 72, 80
1, 54719, Note_on_c, 0, 72, 0
1, 54720, Note_on_c, 0, 77, 80
1, 55199, Note_on_c, 0, 77, 0
1, 55200, Note_on_c, 0, 69, 80
1, 55200, Note_on_c, 0, 77, 80
1, 55379, Note_on_c, 0, 69, 0
1, 55379, Note_on_c, 0, 77, 0
1, 55560, Note_on_c, 0, 67, 80
1, 55619, Note_on_c, 0, 67, 0
1, 55620, Note_on_c, 0, 72, 80
1, 55679, Note_on_c, 0, 72, 0
1, 55680, Note_on_c, 0, 76, 80
1, 56159, Note_on_c, 0, 76, 0
1, 56160, Note_on_c, 0, 67, 80
1, 56399, Note_on_c, 0, 67, 0
1, 56400, Note_on_c, 0, 76, 80
1, 56519, Note_on_c, 0, 76, 0
1, 56520, Note_on_c, 0, 74, 80
1, 56639, Note_on_c, 0, 74, 0
1, 56640, Note_on_c, 0, 72, 80
1, 57599, Note_on_c, 0, 72, 0
1, 57600, Note_on_c, 0, 69, 80
1, 58079, Note_on_c, 0, 69, 0
1, 58080, Note_on_c, 0, 69, 80
1, 58259, Note_on_c, 0, 69, 0
1, 58440, Note_on_c, 0, 69, 80
1, 58499, Note_on_c, 0, 69, 0
1, 58500, Note_on_c, 0, 72, 80
1, 58559, Note_on_c, 0, 72, 0
1, 58560, Note_on_c, 0, 77, 80
1, 59039, Note_on_c, 0, 77, 0
1, 59040, Note_on_c, 0, 69, 80
1, 59040, Note_on_c, 0, 77, 80
1, 59219, Note_on_c, 0, 69, 0
1, 59219, Note_on_c, 0, 77, 0
1, 59400, Note_on_c, 0, 67, 80
1, 59459, Note_on_c, 0, 67, 0
1, 59460, Note_on_c, 0, 72, 80
1, 59519, Note_on_c, 0, 72, 0
1, 59520, Note_on_c, 0, 76, 80
1, 59879, Note_on_c, 0, 76, 0
1, 60360, Note_on_c, 0, 64, 80
1, 60419, Note_on_c, 0, 64, 0
1, 60420, Note_on_c, 0, 67, 80
1, 60479, Note_on_c, 0, 67, 0
1, 60480, Note_on_c, 0, 72, 80
1, 60839, Note_on_c, 0, 72, 0
1, 61320, Note_on_c, 0, 65, 80
1, 61379, Note_on_c, 0, 65, 0
1, 61380, Note_on_c, 0, 69, 80
1, 61439, Note_on_c, 0, 69, 0
1, 61440, Note_on_c, 0, 74, 80
1, 62399, Note_on_c, 0, 74, 0
1, 62400, Note_on_c, 0, 67, 80
1, 62719, Note_on_c, 0, 67, 0
1, 62720, Note_on_c, 0, 72, 80
1, 63039, Note_on_c, 0, 72, 0
1, 63040, Note_on_c, 0, 76, 80
1, 63359, Note_on_c, 0, 76, 0
1, 63360, Note_on_c, 0, 71, 80
1, 63360, Note_on_c, 0, 74, 80
1, 63839, Note_on_c, 0, 71, 0
1, 63839, Note_on_c, 0, 74, 0
1, 65160, Note_on_c, 0, 67, 80
1, 65219, Note_on_c, 0, 67, 0
1, 65220, Note_on_c, 0, 71, 80
1, 65279, Note_on_c, 0, 71, 0
1, 65280, Note_on_c, 0, 74, 80
1, 65759, Note_on_c, 0, 74, 0
1, 65760, Note_on_c, 0, 72, 80
1, 65999, Note_on_c, 0, 72, 0
1, 67080, Note_on_c, 0, 67, 80
1, 67139, Note_on_c, 0, 67, 0
1, 67140, Note_on_c, 0, 71, 80
1, 67199, Note_on_c, 0, 71, 0
1, 67200, Note_on_c, 0, 74, 80
1, 67679, Note_on_c, 0, 74, 0
1, 69000, Note_on_c, 0, 64, 80
1, 69059, Note_on_c, 0, 64, 0
1, 69060, Note_on_c, 0, 69, 80
1, 69119, Note_on_c, 0, 69, 0
1, 69120, Note_on_c, 0, 72, 80
1, 69599, Note_on_c, 0, 72, 0
1, 70920, Note_on_c, 0, 67, 80
1, 70979, Note_on_c, 0, 67, 0
1, 70980, Note_on_c, 0, 71, 80
1, 71039, Note_on_c, 0, 71, 0
1, 71040, Note_on_c, 0, 74, 80
1, 72479, Note_on_c, 0, 74, 0
1, 72480, Note_on_c, 0, 71, 80
1, 72659, Note_on_c, 0, 71, 0
1, 72840, Note_on_c, 0, 67, 80
1, 72899, Note_on_c, 0, 67, 0
1, 72900, Note_on_c, 0, 72, 80
1, 72959, Note_on_c, 0, 72, 0
1, 72960, Note_on_c, 0, 76, 80
1, 73439, Note_on_c, 0, 76, 0
1, 74760, Note_on_c, 0, 67, 80
1, 74819, Note_on_c, 0, 67, 0
1, 74820, Note_on_c, 0, 71, 80
1, 74879, Note_on_c, 0, 71, 0
1, 74880, Note_on_c, 0, 74, 80
1, 75359, Note_on_c, 0, 74, 0
1, 76680, Note_on_c, 0, 64, 80
1, 76739, Note_on_c, 0, 64, 0
1, 76740, Note_on_c, 0, 69, 80
1, 76799, Note_on_c, 0, 69, 0
1, 76800, Note_on_c, 0, 72, 80
1, 77279, Note_on_c, 0, 72, 0
1, 78600, Note_on_c, 0, 67, 80
1, 78659, Note_on_c, 0, 67, 0
1, 78660, Note_on_c, 0, 71, 80
1, 78719, Note_on_c, 0, 71, 0
1, 78720, Note_on_c, 0, 74, 80
1, 80639, Note_on_c, 0, 74, 0
1, 80640, Note_on_c, 0, 64, 80
1, 80640, Note_on_c, 0, 72, 80
1, 81119, Note_on_c, 0, 64, 0
1, 81119, Note_on_c, 0, 72, 0
1, 81120, Note_on_c, 0, 72, 80
1, 81120, Note_on_c, 0, 76, 80
1, 81599, Note_on_c, 0, 72, 0
1, 81599, Note_on_c, 0, 76, 0
1, 81600, Note_on_c, 0, 71, 80
1, 81600, Note_on_c, 0, 74, 80
1, 82079, Note_on_c, 0, 71, 0
1, 82079, Note_on_c, 0, 74, 0
1, 82080, Note_on_c, 0, 72, 80
1, 82080, Note_on_c, 0, 76, 80
1, 82259, Note_on_c, 0, 72, 0
1, 82259, Note_on_c, 0, 76, 0
1, 82440, Note_on_c, 0, 67, 80
1, 82499, Note_on_c, 0, 67, 0
1, 82500, Note_on_c, 0, 71, 80
1, 82559, Note_on_c, 0, 71, 0
1, 82560, Note_on_c, 0, 74, 80
1, 83279, Note_on_c, 0, 74, 0
1, 83280, Note_on_c, 0, 72, 80
1, 83399, Note_on_c, 0, 72, 0
1, 83400, Note_on_c, 0, 71, 80
1, 83519, Note_on_c, 0, 71, 0
1, 83520, Note_on_c, 0, 76, 80
1, 83520, Note_on_c, 0, 79, 80
1, 83879, Note_on_c, 0, 76, 0
1, 83879, Note_on_c, 0, 79, 0
1, 84240, Note_on_c, 0, 72, 80
1, 84240, Note_on_c, 0, 76, 80
1, 84479, Note_on_c, 0, 72, 0
1, 84479, Note_on_c, 0, 76, 0
1, 84480, Note_on_c, 0, 72, 80
1, 84719, Note_on_c, 0, 72, 0
1, 84960, Note_on_c, 0, 76, 80
1, 84960, Note_on_c, 0, 79, 80
1, 85439, Note_on_c, 0, 76, 0
1, 85439, Note_on_c, 0, 79, 0
1, 85440, Note_on_c, 0, 74, 80
1, 85440, Note_on_c, 0, 77, 80
1, 85679, Note_on_c, 0, 74, 0
1, 85679, Note_on_c, 0, 77, 0
1, 85680, Note_on_c, 0, 76, 80
1, 85680, Note_on_c, 0, 79, 80
1, 85919, Note_on_c, 0, 76, 0
1, 85919, Note_on_c, 0, 79, 0
1, 85920, Note_on_c, 0, 74, 80
1, 85920, Note_on_c, 0, 77, 80
1, 86159, Note_on_c, 0, 74, 0
1, 86159, Note_on_c, 0, 77, 0
1, 86160, Note_on_c, 0, 72, 80
1, 86160, Note_on_c, 0, 76, 80
1, 86399, Note_on_c, 0, 72, 0
1, 86399, Note_on_c, 0, 76, 0
1, 86400, Note_on_c, 0, 71, 80
1, 86400, Note_on_c, 0, 74, 80
1, 86879, Note_on_c, 0, 71, 0
1, 86879, Note_on_c, 0, 74, 0
1, 87360, Note_on_c, 0, 71, 80
1, 87360, Note_on_c, 0, 74, 80
1, 87599, Note_on_c, 0, 71, 0
1, 87599, Note_on_c, 0, 74, 0
1, 87600, Note_on_c, 0, 69, 80
1, 87600, Note_on_c, 0, 72, 80
1, 87839, Note_on_c, 0, 69, 0
1, 87839, Note_on_c, 0, 72, 0
1, 87840, Note_on_c, 0, 67, 80
1, 87840, Note_on_c, 0, 71, 80
1, 88319, Note_on_c, 0, 67, 0
1, 88319, Note_on_c, 0, 71, 0
1, 88320, Note_on_c, 0, 67, 80
1, 88799, Note_on_c, 0, 67, 0
1, 88800, Note_on_c, 0, 72, 80
1, 88800, Note_on_c, 0, 76, 80
1, 89279, Note_on_c, 0, 72, 0
1, 89279, Note_on_c, 0, 76, 0
1, 89280, Note_on_c, 0, 71, 80
1, 89280, Note_on_c, 0, 74, 80
1, 89759, Note_on_c, 0, 71, 0
1, 89759, Note_on_c, 0, 74, 0
1, 89760, Note_on_c, 0, 72, 80
1, 89760, Note_on_c, 0, 76, 80
1, 90239, Note_on_c, 0, 72, 0
1, 90239, Note_on_c, 0, 76, 0
1, 90240, Note_on_c, 0, 71, 80
1, 90240, Note_on_c, 0, 74, 80
1, 91199, Note_on_c, 0, 71, 0
1, 91199, Note_on_c, 0, 74, 0
1, 91200, Note_on_c, 0, 76, 80
1, 91200, Note_on_c, 0, 79, 80
1, 92159, Note_on_c, 0, 76, 0
1, 92159, Note_on_c, 0, 79, 0
1, 92160, Note_on_c, 0, 72, 80
1, 92160, Note_on_c, 0, 81, 80
1, 93119, Note_on_c, 0, 81, 0
1, 93439, Note_on_c, 0, 72, 0
1, 93440, Note_on_c, 0, 65, 80
1, 93440, Note_on_c, 0, 69, 80
1, 93759, Note_on_c, 0, 65, 0
1, 93759, Note_on_c, 0, 69, 0
1, 93760, Note_on_c, 0, 69, 80
1, 93760, Note_on_c, 0, 72, 80
1, 94079, Note_on_c, 0, 69, 0
1, 94079, Note_on_c, 0, 72, 0
1, 94080, Note_on_c, 0, 74, 80
1, 94080, Note_on_c, 0, 79, 80
1, 94319, Note_on_c, 0, 74, 0
1, 94319, Note_on_c, 0, 79, 0
1, 94320, Note_on_c, 0, 62, 80
1, 94559, Note_on_c, 0, 62, 0
1, 94560, Note_on_c, 0, 67, 80
1, 95039, Note_on_c, 0, 67, 0
1, 95040, Note_on_c, 0, 62, 80
1, 95519, Note_on_c, 0, 62, 0
1, 95520, Note_on_c, 0, 71, 80
1, 95999, Note_on_c, 0, 71, 0
1, 96480, Note_on_c, 0, 60, 80
1, 96480, Note_on_c, 0, 69, 80
1, 96659, Note_on_c, 0, 60, 0
1, 96659, Note_on_c, 0, 69, 0
1, 96840, Note_on_c, 0, 69, 80
1, 96899, Note_on_c, 0, 69, 0
1, 96900, Note_on_c, 0, 72, 80
1, 96959, Note_on_c, 0, 72, 0
1, 96960, Note_on_c, 0, 81, 80
1, 97439, Note_on_c, 0, 81, 0
1, 97440, Note_on_c, 0, 72, 80
1, 97440, Note_on_c, 0, 81, 80
1, 97619, Note_on_c, 0, 72, 0
1, 97619, Note_on_c, 0, 81, 0
1, 97800, Note_on_c, 0, 67, 80
1, 97859, Note_on_c, 0, 67, 0
1, 97860, Note_on_c, 0, 72, 80
1, 97919, Note_on_c, 0, 72, 0
1, 97920, Note_on_c, 0, 79, 80
1, 98399, Note_on_c, 0, 79, 0
1, 98400, Note_on_c, 0, 67, 80
1, 98879, Note_on_c, 0, 67, 0
1, 98880, Note_on_c, 0, 67, 80
1, 98880, Note_on_c, 0, 76, 80
1, 99839, Note_on_c, 0, 67, 0
1, 99839, Note_on_c, 0, 76, 0
1, 100320, Note_on_c, 0, 60, 80
1, 100320, Note_on_c, 0, 69, 80
1, 100499, Note_on_c, 0, 60, 0
1, 100499, Note_on_c, 0, 69, 0
1, 100680, Note_on_c, 0, 69, 80
1, 100739, Note_on_c, 0, 69, 0
1, 100740, Note_on_c, 0, 72, 80
1, 100799, Note_on_c, 0, 72, 0
1, 100800, Note_on_c, 0, 77, 80
1, 101279, Note_on_c, 0, 77, 0
1, 101280, Note_on_c, 0, 69, 80
1, 101280, Note_on_c, 0, 77, 80
1, 101459, Note_on_c, 0, 69, 0
1, 101459, Note_on_c, 0, 77, 0
1, 101640, Note_on_c, 0, 67, 80
1, 101699, Note_on_c, 0, 67, 0
1, 101700, Note_on_c, 0, 72, 80
1, 101759, Note_on_c, 0, 72, 0
1, 101760, Note_on_c, 0, 76, 80
1, 102239, Note_on_c, 0, 76, 0
1, 102240, Note_on_c, 0, 67, 80
1, 102479, Note_on_c, 0, 67, 0
1, 102480, Note_on_c, 0, 76, 80
1, 102599, Note_on_c, 0, 76, 0
1, 102600, Note_on_c, 0, 74, 80
1, 102719, Note_on_c, 0, 74, 0
1, 102720, Note_on_c, 0, 72, 80
1, 103679, Note_on_c, 0, 72, 0
1, 104160, Note_on_c, 0, 69, 80
1, 104639, Note_on_c, 0, 69, 0
1, 104640, Note_on_c, 0, 74, 80
1, 104640, Note_on_c, 0, 77, 80
1, 105119, Note_on_c, 0, 74, 0
1, 105119, Note_on_c, 0, 77, 0
1, 105120, Note_on_c, 0, 74, 80
1, 105120, Note_on_c, 0, 77, 80
1, 105599, Note_on_c, 0, 74, 0
1, 105599, Note_on_c, 0, 77, 0
1, 105600, Note_on_c, 0, 72, 80
1, 105600, Note_on_c, 0, 76, 80
1, 106319, Note_on_c, 0, 72, 0
1, 106319, Note_on_c, 0, 76, 0
1, 106320, Note_on_c, 0, 71, 80
1, 106320, Note_on_c, 0, 74, 80
1, 106559, Note_on_c, 0, 71, 0
1, 106559, Note_on_c, 0, 74, 0
1, 106560, Note_on_c, 0, 69, 80
1, 106560, Note_on_c, 0, 72, 80
1, 107519, Note_on_c, 0, 69, 0
1, 107519, Note_on_c, 0, 72, 0
1, 108800, Note_on_c, 0, 69, 80
1, 108800, Note_on_c, 0, 72, 80
1, 109119, Note_on_c, 0, 69, 0
1, 109119, Note_on_c, 0, 72, 0
1, 109120, Note_on_c, 0, 72, 80
1, 109120, Note_on_c, 0, 76, 80
1, 109439, Note_on_c, 0, 72, 0
1, 109439, Note_on_c, 0, 76, 0
1, 109440, Note_on_c, 0, 71, 80
1, 109440, Note_on_c, 0, 74, 80
1, 109919, Note_on_c, 0, 71, 0
1, 109919, Note_on_c, 0, 74, 0
1, 110400, Note_on_c, 0, 62, 80
1, 110400, Note_on_c, 0, 67, 80
1, 110400, Note_on_c, 0, 71, 80
1, 111359, Note_on_c, 0, 62, 0
1, 111359, Note_on_c, 0, 67, 0
1, 111359, Note_on_c, 0, 71, 0
1, 111360, Note_on_c, 0, 64, 80
1, 111360, Note_on_c, 0, 67, 80
1, 111360, Note_on_c, 0, 72, 80
1, 111839, Note_on_c, 0, 64, 0
1, 111839, Note_on_c, 0, 67, 0
1, 111839, Note_on_c, 0, 72, 0
1, 115200, Tempo, 517241
1, 115200, Note_on_c, 0, 69, 80
1, 117119, Note_on_c, 0, 69, 0
1, 117120, Note_on_c, 0, 71, 80
1, 119039, Note_on_c, 0, 71, 0
1, 119040, Note_on_c, 0, 72, 80
1, 120959, Note_on_c, 0, 72, 0
1, 120960, Note_on_c, 0, 74, 80
1, 121439, Note_on_c, 0, 74, 0
1, 122700, Note_on_c, 0, 64, 80
1, 122759, Note_on_c, 0, 64, 0
1, 122760, Note_on_c, 0, 69, 80
1, 122819, Note_on_c, 0, 69, 0
1, 122820, Note_on_c, 0, 72, 80
1, 122879, Note_on_c, 0, 72, 0
1, 122880, Note_on_c, 0, 76, 80
1, 123359, Note_on_c, 0, 76, 0
1, 124160, Note_on_c, 0, 72, 80
1, 124160, Note_on_c, 0, 77, 80
1, 124479, Note_on_c, 0, 72, 0
1, 124479, Note_on_c, 0, 77, 0
1, 124480, Note_on_c, 0, 72, 80
1, 124480, Note_on_c, 0, 76, 80
1, 124799, Note_on_c, 0, 72, 0
1, 124799, Note_on_c, 0, 76, 0
1, 124800, Note_on_c, 0, 71, 80
1, 124800, Note_on_c, 0, 76, 80
1, 125039, Note_on_c, 0, 71, 0
1, 125039, Note_on_c, 0, 76, 0
1, 125040, Note_on_c, 0, 74, 80
1, 125040, Note_on_c, 0, 71, 80
1, 125759, Note_on_c, 0, 71, 0
1, 126239, Note_on_c, 0, 74, 0
1, 126240, Note_on_c, 0, 72, 80
1, 126479, Note_on_c, 0, 72, 0
1, 126480, Note_on_c, 0, 74, 80
1, 126599, Note_on_c, 0, 74, 0
1, 126720, Note_on_c, 0, 72, 80
1, 126720, Note_on_c, 0, 76, 80
1, 126839, Note_on_c, 0, 72, 0
1, 126839, Note_on_c, 0, 76, 0
1, 126840, Note_on_c, 0, 74, 80
1, 126959, Note_on_c, 0, 74, 0
1, 126960, Note_on_c, 0, 72, 80
1, 128639, Note_on_c, 0, 72, 0
1, 128640, Note_on_c, 0, 71, 80
1, 129599, Note_on_c, 0, 71, 0
1, 129600, Note_on_c, 0, 72, 80
1, 129959, Note_on_c, 0, 72, 0
1, 130380, Note_on_c, 0, 64, 80
1, 130439, Note_on_c, 0, 64, 0
1, 130440, Note_on_c, 0, 69, 80
1, 130499, Note_on_c, 0, 69, 0
1, 130500, Note_on_c, 0, 72, 80
1, 130559, Note_on_c, 0, 72, 0
1, 130560, Note_on_c, 0, 76, 80
1, 131519, Note_on_c, 0, 76, 0
1, 131520, Note_on_c, 0, 72, 80
1, 131520, Note_on_c, 0, 76, 80
1, 131839, Note_on_c, 0, 72, 0
1, 131840, Note_on_c, 0, 74, 80
1, 131840, Note_on_c, 0, 77, 80
1, 131879, Note_on_c, 0, 76, 0
1, 132000, Note_on_c, 0, 72, 80
1, 132159, Note_on_c, 0, 74, 0
1, 132159, Note_on_c, 0, 77, 0
1, 132160, Note_on_c, 0, 76, 80
1, 132319, Note_on_c, 0, 76, 0
1, 132320, Note_on_c, 0, 69, 80
1, 132399, Note_on_c, 0, 69, 0
1, 132400, Note_on_c, 0, 72, 0
1, 132400, Note_on_c, 0, 72, 80
1, 132479, Note_on_c, 0, 72, 0
1, 132480, Note_on_c, 0, 76, 80
1, 132959, Note_on_c, 0, 76, 0
1, 132960, Note_on_c, 0, 74, 80
1, 133439, Note_on_c, 0, 74, 0
1, 133440, Note_on_c, 0, 71, 80
1, 133440, Note_on_c, 0, 74, 80
1, 134399, Note_on_c, 0, 71, 0
1, 134399, Note_on_c, 0, 74, 0
1, 134400, Note_on_c, 0, 71, 80
1, 134400, Note_on_c, 0, 74, 80
1, 135359, Note_on_c, 0, 71, 0
1, 135359, Note_on_c, 0, 74, 0
1, 135360, Note_on_c, 0, 76, 80
1, 135360, Note_on_c, 0, 71, 80
1, 135839, Note_on_c, 0, 71, 0
1, 135840, Note_on_c, 0, 71, 80
1, 136079, Note_on_c, 0, 76, 0
1, 136080, Note_on_c, 0, 74, 80
1, 136319, Note_on_c, 0, 71, 0
1, 136319, Note_on_c, 0, 74, 0
1, 136320, Note_on_c, 0, 69, 80
1, 136320, Note_on_c, 0, 74, 80
1, 136559, Note_on_c, 0, 69, 0
1, 136559, Note_on_c, 0, 74, 0
1, 136800, Note_on_c, 0, 72, 80
1, 137279, Note_on_c, 0, 72, 0
1, 137280, Note_on_c, 0, 71, 80
1, 137759, Note_on_c, 0, 71, 0
1, 137760, Note_on_c, 0, 69, 80
1, 137879, Note_on_c, 0, 69, 0
1, 138060, Note_on_c, 0, 65, 80
1, 138119, Note_on_c, 0, 65, 0
1, 138120, Note_on_c, 0, 69, 80
1, 138179, Note_on_c, 0, 69, 0
1, 138180, Note_on_c, 0, 72, 80
1, 138239, Note_on_c, 0, 72, 0
1, 138240, Note_on_c, 0, 77, 80
1, 138479, Note_on_c, 0, 77, 0
1, 138720, Note_on_c, 0, 76, 80
1, 139199, Note_on_c, 0, 76, 0
1, 139200, Note_on_c, 0, 74, 80
1, 139679, Note_on_c, 0, 74, 0
1, 139680, Note_on_c, 0, 72, 80
1, 139919, Note_on_c, 0, 72, 0
1, 139980, Note_on_c, 0, 62, 80
1, 140039, Note_on_c, 0, 62, 0
1, 140040, Note_on_c, 0, 67, 80
1, 140099, Note_on_c, 0, 67, 0
1, 140100, Note_on_c, 0, 71, 80
1, 140159, Note_on_c, 0, 71, 0
1, 140160, Note_on_c, 0, 76, 80
1, 140639, Note_on_c, 0, 76, 0
1, 140640, Note_on_c, 0, 71, 80
1, 140879, Note_on_c, 0, 71, 0
1, 141120, Note_on_c, 0, 76, 80
1, 141479, Note_on_c, 0, 76, 0
1, 141900, Note_on_c, 0, 65, 80
1, 141959, Note_on_c, 0, 65, 0
1, 141960, Note_on_c, 0, 69, 80
1, 142019, Note_on_c, 0, 69, 0
1, 142020, Note_on_c, 0, 72, 80
1, 142079, Note_on_c, 0, 72, 0
1, 142080, Note_on_c, 0, 76, 80
1, 142319, Note_on_c, 0, 76, 0
1, 142560, Note_on_c, 0, 72, 80
1, 143039, Note_on_c, 0, 72, 0
1, 143040, Note_on_c, 0, 71, 80
1, 143519, Note_on_c, 0, 71, 0
1, 143520, Note_on_c, 0, 72, 80
1, 143759, Note_on_c, 0, 72, 0
1, 143820, Note_on_c, 0, 64, 80
1, 143879, Note_on_c, 0, 64, 0
1, 143880, Note_on_c, 0, 67, 80
1, 143939, Note_on_c, 0, 67, 0
1, 143940, Note_on_c, 0, 71, 80
1, 143999, Note_on_c, 0, 71, 0
1, 144000, Note_on_c, 0, 76, 80
1, 144479, Note_on_c, 0, 76, 0
1, 144960, Note_on_c, 0, 76, 80
1, 145919, Note_on_c, 0, 76, 0
1, 145920, Note_on_c, 0, 65, 80
1, 145920, Note_on_c, 0, 74, 80
1, 146159, Note_on_c, 0, 65, 0
1, 146159, Note_on_c, 0, 74, 0
1, 146400, Note_on_c, 0, 69, 80
1, 146879, Note_on_c, 0, 69, 0
1, 146880, Note_on_c, 0, 74, 80
1, 147359, Note_on_c, 0, 74, 0
1, 147360, Note_on_c, 0, 72, 80
1, 147839, Note_on_c, 0, 72, 0
1, 147840, Note_on_c, 0, 67, 80
1, 147840, Note_on_c, 0, 76, 80
1, 148799, Note_on_c, 0, 67, 0
1, 148799, Note_on_c, 0, 76, 0
1, 148800, Note_on_c, 0, 64, 80
1, 149759, Note_on_c, 0, 64, 0
1, 149760, Note_on_c, 0, 64, 80
1, 149760, Note_on_c, 0, 69, 80
1, 151679, Note_on_c, 0, 64, 0
1, 151679, Note_on_c, 0, 69, 0
1, 151680, End_track
2, 0, Start_track
2, 0, Title_t, "Honky Tonk Piano, Honky Tonk Piano\000"
2, 0, Key_signature, 0, "major"
2, 0, Control_c, 10, 121, 0
2, 0, Program_c, 10, 3
2, 0, Control_c, 10, 7, 100
2, 0, Control_c, 10, 10, 64
2, 0, Control_c, 10, 91, 0
2, 0, Control_c, 10, 93, 0
2, 0, MIDI_port, 0
2, 4320, Note_on_c, 10, 76, 80
2, 4775, Note_on_c, 10, 76, 0
2, 4800, Note_on_c, 10, 74, 80
2, 5255, Note_on_c, 10, 74, 0
2, 5280, Note_on_c, 10, 76, 80
2, 5735, Note_on_c, 10, 76, 0
2, 5760, Note_on_c, 10, 74, 80
2, 6671, Note_on_c, 10, 74, 0
2, 6720, Note_on_c, 10, 79, 80
2, 7631, Note_on_c, 10, 79, 0
2, 7680, Note_on_c, 10, 72, 80
2, 8135, Note_on_c, 10, 72, 0
2, 8160, Note_on_c, 10, 79, 80
2, 8615, Note_on_c, 10, 79, 0
2, 8640, Note_on_c, 10, 77, 80
2, 9095, Note_on_c, 10, 77, 0
2, 9120, Note_on_c, 10, 76, 80
2, 9575, Note_on_c, 10, 76, 0
2, 9600, Note_on_c, 10, 74, 80
2, 10511, Note_on_c, 10, 74, 0
2, 10560, Note_on_c, 10, 67, 80
2, 11471, Note_on_c, 10, 67, 0
2, 11520, Note_on_c, 10, 72, 80
2, 11975, Note_on_c, 10, 72, 0
2, 12000, Note_on_c, 10, 76, 80
2, 12455, Note_on_c, 10, 76, 0
2, 12480, Note_on_c, 10, 74, 80
2, 12935, Note_on_c, 10, 74, 0
2, 12960, Note_on_c, 10, 76, 80
2, 13415, Note_on_c, 10, 76, 0
2, 13440, Note_on_c, 10, 74, 80
2, 14351, Note_on_c, 10, 74, 0
2, 14400, Note_on_c, 10, 79, 80
2, 15311, Note_on_c, 10, 79, 0
2, 15360, Note_on_c, 10, 72, 80
2, 15839, Note_on_c, 10, 72, 0
2, 16320, Note_on_c, 10, 65, 80
2, 16320, Note_on_c, 10, 69, 80
2, 16775, Note_on_c, 10, 65, 0
2, 16775, Note_on_c, 10, 69, 0
2, 16800, Note_on_c, 10, 67, 80
2, 16800, Note_on_c, 10, 71, 80
2, 17027, Note_on_c, 10, 67, 0
2, 17027, Note_on_c, 10, 71, 0
2, 17040, Note_on_c, 10, 69, 80
2, 17040, Note_on_c, 10, 72, 80
2, 17267, Note_on_c, 10, 69, 0
2, 17267, Note_on_c, 10, 72, 0
2, 17280, Note_on_c, 10, 71, 80
2, 17280, Note_on_c, 10, 74, 80
2, 17759, Note_on_c, 10, 71, 0
2, 17759, Note_on_c, 10, 74, 0
2, 19200, Note_on_c, 10, 55, 80
2, 19200, Note_on_c, 10, 60, 80
2, 19427, Note_on_c, 10, 55, 0
2, 19427, Note_on_c, 10, 60, 0
2, 19440, Note_on_c, 10, 55, 80
2, 19440, Note_on_c, 10, 60, 80
2, 19895, Note_on_c, 10, 55, 0
2, 19895, Note_on_c, 10, 60, 0
2, 19920, Note_on_c, 10, 55, 80
2, 19920, Note_on_c, 10, 60, 80
2, 20147, Note_on_c, 10, 55, 0
2, 20147, Note_on_c, 10, 60, 0
2, 20160, Note_on_c, 10, 55, 80
2, 20160, Note_on_c, 10, 60, 80
2, 20387, Note_on_c, 10, 55, 0
2, 20387, Note_on_c, 10, 60, 0
2, 20400, Note_on_c, 10, 55, 80
2, 20400, Note_on_c, 10, 60, 80
2, 20855, Note_on_c, 10, 55, 0
2, 20855, Note_on_c, 10, 60, 0
2, 20880, Note_on_c, 10, 55, 80
2, 20880, Note_on_c, 10, 60, 80
2, 21107, Note_on_c, 10, 55, 0
2, 21107, Note_on_c, 10, 60, 0
2, 21120, Note_on_c, 10, 55, 80
2, 21120, Note_on_c, 10, 59, 80
2, 21347, Note_on_c, 10, 55, 0
2, 21347, Note_on_c, 10, 59, 0
2, 21360, Note_on_c, 10, 55, 80
2, 21360, Note_on_c, 10, 59, 80
2, 21815, Note_on_c, 10, 55, 0
2, 21815, Note_on_c, 10, 59, 0
2, 21840, Note_on_c, 10, 55, 80
2, 21840, Note_on_c, 10, 59, 80
2, 22067, Note_on_c, 10, 55, 0
2, 22067, Note_on_c, 10, 59, 0
2, 22080, Note_on_c, 10, 55, 80
2, 22080, Note_on_c, 10, 59, 80
2, 22307, Note_on_c, 10, 55, 0
2, 22307, Note_on_c, 10, 59, 0
2, 22320, Note_on_c, 10, 55, 80
2, 22320, Note_on_c, 10, 59, 80
2, 22775, Note_on_c, 10, 55, 0
2, 22775, Note_on_c, 10, 59, 0
2, 22800, Note_on_c, 10, 55, 80
2, 22800, Note_on_c, 10, 59, 80
2, 23027, Note_on_c, 10, 55, 0
2, 23027, Note_on_c, 10, 59, 0
2, 23040, Note_on_c, 10, 52, 80
2, 23040, Note_on_c, 10, 57, 80
2, 23267, Note_on_c, 10, 52, 0
2, 23267, Note_on_c, 10, 57, 0
2, 23280, Note_on_c, 10, 52, 80
2, 23280, Note_on_c, 10, 57, 80
2, 23735, Note_on_c, 10, 52, 0
2, 23735, Note_on_c, 10, 57, 0
2, 23760, Note_on_c, 10, 52, 80
2, 23760, Note_on_c, 10, 57, 80
2, 23987, Note_on_c, 10, 52, 0
2, 23987, Note_on_c, 10, 57, 0
2, 24000, Note_on_c, 10, 52, 80
2, 24000, Note_on_c, 10, 57, 80
2, 24227, Note_on_c, 10, 52, 0
2, 24227, Note_on_c, 10, 57, 0
2, 24240, Note_on_c, 10, 52, 80
2, 24240, Note_on_c, 10, 57, 80
2, 24695, Note_on_c, 10, 52, 0
2, 24695, Note_on_c, 10, 57, 0
2, 24720, Note_on_c, 10, 52, 80
2, 24720, Note_on_c, 10, 57, 80
2, 24947, Note_on_c, 10, 52, 0
2, 24947, Note_on_c, 10, 57, 0
2, 24960, Note_on_c, 10, 55, 80
2, 24960, Note_on_c, 10, 59, 80
2, 25187, Note_on_c, 10, 55, 0
2, 25187, Note_on_c, 10, 59, 0
2, 25200, Note_on_c, 10, 55, 80
2, 25200, Note_on_c, 10, 59, 80
2, 25655, Note_on_c, 10, 55, 0
2, 25655, Note_on_c, 10, 59, 0
2, 25680, Note_on_c, 10, 55, 80
2, 25680, Note_on_c, 10, 59, 80
2, 25907, Note_on_c, 10, 55, 0
2, 25907, Note_on_c, 10, 59, 0
2, 25920, Note_on_c, 10, 55, 80
2, 25920, Note_on_c, 10, 59, 80
2, 26147, Note_on_c, 10, 55, 0
2, 26147, Note_on_c, 10, 59, 0
2, 26160, Note_on_c, 10, 55, 80
2, 26160, Note_on_c, 10, 59, 80
2, 26615, Note_on_c, 10, 55, 0
2, 26615, Note_on_c, 10, 59, 0
2, 26640, Note_on_c, 10, 55, 80
2, 26640, Note_on_c, 10, 59, 80
2, 26867, Note_on_c, 10, 55, 0
2, 26867, Note_on_c, 10, 59, 0
2, 26880, Note_on_c, 10, 55, 80
2, 26880, Note_on_c, 10, 60, 80
2, 27107, Note_on_c, 10, 55, 0
2, 27107, Note_on_c, 10, 60, 0
2, 27120, Note_on_c, 10, 55, 80
2, 27120, Note_on_c, 10, 60, 80
2, 27575, Note_on_c, 10, 55, 0
2, 27575, Note_on_c, 10, 60, 0
2, 27600, Note_on_c, 10, 55, 80
2, 27600, Note_on_c, 10, 60, 80
2, 27827, Note_on_c, 10, 55, 0
2, 27827, Note_on_c, 10, 60, 0
2, 27840, Note_on_c, 10, 55, 80
2, 27840, Note_on_c, 10, 60, 80
2, 28067, Note_on_c, 10, 55, 0
2, 28067, Note_on_c, 10, 60, 0
2, 28080, Note_on_c, 10, 55, 80
2, 28080, Note_on_c, 10, 60, 80
2, 28535, Note_on_c, 10, 55, 0
2, 28535, Note_on_c, 10, 60, 0
2, 28560, Note_on_c, 10, 55, 80
2, 28560, Note_on_c, 10, 60, 80
2, 28787, Note_on_c, 10, 55, 0
2, 28787, Note_on_c, 10, 60, 0
2, 28800, Note_on_c, 10, 55, 80
2, 28800, Note_on_c, 10, 59, 80
2, 29027, Note_on_c, 10, 55, 0
2, 29027, Note_on_c, 10, 59, 0
2, 29040, Note_on_c, 10, 55, 80
2, 29040, Note_on_c, 10, 59, 80
2, 29495, Note_on_c, 10, 55, 0
2, 29495, Note_on_c, 10, 59, 0
2, 29520, Note_on_c, 10, 55, 80
2, 29520, Note_on_c, 10, 59, 80
2, 29747, Note_on_c, 10, 55, 0
2, 29747, Note_on_c, 10, 59, 0
2, 29760, Note_on_c, 10, 55, 80
2, 29760, Note_on_c, 10, 59, 80
2, 29987, Note_on_c, 10, 55, 0
2, 29987, Note_on_c, 10, 59, 0
2, 30000, Note_on_c, 10, 55, 80
2, 30000, Note_on_c, 10, 59, 80
2, 30455, Note_on_c, 10, 55, 0
2, 30455, Note_on_c, 10, 59, 0
2, 30480, Note_on_c, 10, 55, 80
2, 30480, Note_on_c, 10, 59, 80
2, 30707, Note_on_c, 10, 55, 0
2, 30707, Note_on_c, 10, 59, 0
2, 30720, Note_on_c, 10, 52, 80
2, 30720, Note_on_c, 10, 57, 80
2, 30947, Note_on_c, 10, 52, 0
2, 30947, Note_on_c, 10, 57, 0
2, 30960, Note_on_c, 10, 52, 80
2, 30960, Note_on_c, 10, 57, 80
2, 31415, Note_on_c, 10, 52, 0
2, 31415, Note_on_c, 10, 57, 0
2, 31440, Note_on_c, 10, 52, 80
2, 31440, Note_on_c, 10, 57, 80
2, 31667, Note_on_c, 10, 52, 0
2, 31667, Note_on_c, 10, 57, 0
2, 31680, Note_on_c, 10, 52, 80
2, 31680, Note_on_c, 10, 57, 80
2, 31907, Note_on_c, 10, 52, 0
2, 31907, Note_on_c, 10, 57, 0
2, 31920, Note_on_c, 10, 52, 80
2, 31920, Note_on_c, 10, 57, 80
2, 32375, Note_on_c, 10, 52, 0
2, 32375, Note_on_c, 10, 57, 0
2, 32400, Note_on_c, 10, 52, 80
2, 32400, Note_on_c, 10, 57, 80
2, 32627, Note_on_c, 10, 52, 0
2, 32627, Note_on_c, 10, 57, 0
2, 32640, Note_on_c, 10, 55, 80
2, 32640, Note_on_c, 10, 59, 80
2, 32867, Note_on_c, 10, 55, 0
2, 32867, Note_on_c, 10, 59, 0
2, 32880, Note_on_c, 10, 55, 80
2, 32880, Note_on_c, 10, 59, 80
2, 33335, Note_on_c, 10, 55, 0
2, 33335, Note_on_c, 10, 59, 0
2, 33360, Note_on_c, 10, 55, 80
2, 33360, Note_on_c, 10, 59, 80
2, 33587, Note_on_c, 10, 55, 0
2, 33587, Note_on_c, 10, 59, 0
2, 33600, Note_on_c, 10, 55, 80
2, 33600, Note_on_c, 10, 59, 80
2, 34511, Note_on_c, 10, 55, 0
2, 34511, Note_on_c, 10, 59, 0
2, 34560, Note_on_c, 10, 55, 80
2, 34560, Note_on_c, 10, 60, 80
2, 34787, Note_on_c, 10, 55, 0
2, 34787, Note_on_c, 10, 60, 0
2, 34800, Note_on_c, 10, 55, 80
2, 34800, Note_on_c, 10, 60, 80
2, 35255, Note_on_c, 10, 55, 0
2, 35255, Note_on_c, 10, 60, 0
2, 35280, Note_on_c, 10, 55, 80
2, 35280, Note_on_c, 10, 60, 80
2, 35507, Note_on_c, 10, 55, 0
2, 35507, Note_on_c, 10, 60, 0
2, 35520, Note_on_c, 10, 55, 80
2, 35520, Note_on_c, 10, 60, 80
2, 35747, Note_on_c, 10, 55, 0
2, 35747, Note_on_c, 10, 60, 0
2, 35760, Note_on_c, 10, 55, 80
2, 35760, Note_on_c, 10, 60, 80
2, 36215, Note_on_c, 10, 55, 0
2, 36215, Note_on_c, 10, 60, 0
2, 36240, Note_on_c, 10, 55, 80
2, 36240, Note_on_c, 10, 60, 80
2, 36467, Note_on_c, 10, 55, 0
2, 36467, Note_on_c, 10, 60, 0
2, 36480, Note_on_c, 10, 55, 80
2, 36480, Note_on_c, 10, 59, 80
2, 36707, Note_on_c, 10, 55, 0
2, 36707, Note_on_c, 10, 59, 0
2, 36720, Note_on_c, 10, 55, 80
2, 36720, Note_on_c, 10, 59, 80
2, 37175, Note_on_c, 10, 55, 0
2, 37175, Note_on_c, 10, 59, 0
2, 37200, Note_on_c, 10, 55, 80
2, 37200, Note_on_c, 10, 59, 80
2, 37427, Note_on_c, 10, 55, 0
2, 37427, Note_on_c, 10, 59, 0
2, 37440, Note_on_c, 10, 55, 80
2, 37440, Note_on_c, 10, 59, 80
2, 37667, Note_on_c, 10, 55, 0
2, 37667, Note_on_c, 10, 59, 0
2, 37680, Note_on_c, 10, 55, 80
2, 37680, Note_on_c, 10, 59, 80
2, 38135, Note_on_c, 10, 55, 0
2, 38135, Note_on_c, 10, 59, 0
2, 38160, Note_on_c, 10, 55, 80
2, 38160, Note_on_c, 10, 59, 80
2, 38387, Note_on_c, 10, 55, 0
2, 38387, Note_on_c, 10, 59, 0
2, 38400, Note_on_c, 10, 52, 80
2, 38400, Note_on_c, 10, 57, 80
2, 38627, Note_on_c, 10, 52, 0
2, 38627, Note_on_c, 10, 57, 0
2, 38640, Note_on_c, 10, 52, 80
2, 38640, Note_on_c, 10, 57, 80
2, 38879, Note_on_c, 10, 52, 0
2, 38879, Note_on_c, 10, 57, 0
2, 39120, Note_on_c, 10, 52, 80
2, 39120, Note_on_c, 10, 57, 80
2, 39347, Note_on_c, 10, 52, 0
2, 39347, Note_on_c, 10, 57, 0
2, 39360, Note_on_c, 10, 52, 80
2, 39360, Note_on_c, 10, 57, 80
2, 39587, Note_on_c, 10, 52, 0
2, 39587, Note_on_c, 10, 57, 0
2, 39600, Note_on_c, 10, 52, 80
2, 39600, Note_on_c, 10, 57, 80
2, 40055, Note_on_c, 10, 52, 0
2, 40055, Note_on_c, 10, 57, 0
2, 40080, Note_on_c, 10, 52, 80
2, 40080, Note_on_c, 10, 57, 80
2, 40307, Note_on_c, 10, 52, 0
2, 40307, Note_on_c, 10, 57, 0
2, 40320, Note_on_c, 10, 55, 80
2, 40320, Note_on_c, 10, 59, 80
2, 40547, Note_on_c, 10, 55, 0
2, 40547, Note_on_c, 10, 59, 0
2, 40560, Note_on_c, 10, 55, 80
2, 40560, Note_on_c, 10, 59, 80
2, 41015, Note_on_c, 10, 55, 0
2, 41015, Note_on_c, 10, 59, 0
2, 41040, Note_on_c, 10, 55, 80
2, 41040, Note_on_c, 10, 59, 80
2, 41267, Note_on_c, 10, 55, 0
2, 41267, Note_on_c, 10, 59, 0
2, 41280, Note_on_c, 10, 55, 80
2, 41280, Note_on_c, 10, 59, 80
2, 41507, Note_on_c, 10, 55, 0
2, 41507, Note_on_c, 10, 59, 0
2, 41520, Note_on_c, 10, 55, 80
2, 41520, Note_on_c, 10, 59, 80
2, 41975, Note_on_c, 10, 55, 0
2, 41975, Note_on_c, 10, 59, 0
2, 42000, Note_on_c, 10, 55, 80
2, 42000, Note_on_c, 10, 59, 80
2, 42227, Note_on_c, 10, 55, 0
2, 42227, Note_on_c, 10, 59, 0
2, 42240, Note_on_c, 10, 55, 80
2, 42240, Note_on_c, 10, 60, 80
2, 42467, Note_on_c, 10, 55, 0
2, 42467, Note_on_c, 10, 60, 0
2, 42480, Note_on_c, 10, 55, 80
2, 42480, Note_on_c, 10, 60, 80
2, 42935, Note_on_c, 10, 55, 0
2, 42935, Note_on_c, 10, 60, 0
2, 42960, Note_on_c, 10, 55, 80
2, 42960, Note_on_c, 10, 60, 80
2, 43187, Note_on_c, 10, 55, 0
2, 43187, Note_on_c, 10, 60, 0
2, 43200, Note_on_c, 10, 55, 80
2, 43200, Note_on_c, 10, 60, 80
2, 43427, Note_on_c, 10, 55, 0
2, 43427, Note_on_c, 10, 60, 0
2, 43440, Note_on_c, 10, 55, 80
2, 43440, Note_on_c, 10, 60, 80
2, 43895, Note_on_c, 10, 55, 0
2, 43895, Note_on_c, 10, 60, 0
2, 43920, Note_on_c, 10, 55, 80
2, 43920, Note_on_c, 10, 60, 80
2, 44147, Note_on_c, 10, 55, 0
2, 44147, Note_on_c, 10, 60, 0
2, 44160, Note_on_c, 10, 55, 80
2, 44160, Note_on_c, 10, 59, 80
2, 44387, Note_on_c, 10, 55, 0
2, 44387, Note_on_c, 10, 59, 0
2, 44400, Note_on_c, 10, 55, 80
2, 44400, Note_on_c, 10, 59, 80
2, 44855, Note_on_c, 10, 55, 0
2, 44855, Note_on_c, 10, 59, 0
2, 44880, Note_on_c, 10, 55, 80
2, 44880, Note_on_c, 10, 59, 80
2, 45107, Note_on_c, 10, 55, 0
2, 45107, Note_on_c, 10, 59, 0
2, 45120, Note_on_c, 10, 55, 80
2, 45120, Note_on_c, 10, 59, 80
2, 45347, Note_on_c, 10, 55, 0
2, 45347, Note_on_c, 10, 59, 0
2, 45360, Note_on_c, 10, 55, 80
2, 45360, Note_on_c, 10, 59, 80
2, 45815, Note_on_c, 10, 55, 0
2, 45815, Note_on_c, 10, 59, 0
2, 45840, Note_on_c, 10, 55, 80
2, 45840, Note_on_c, 10, 59, 80
2, 46067, Note_on_c, 10, 55, 0
2, 46067, Note_on_c, 10, 59, 0
2, 46080, Note_on_c, 10, 52, 80
2, 46080, Note_on_c, 10, 57, 80
2, 46307, Note_on_c, 10, 52, 0
2, 46307, Note_on_c, 10, 57, 0
2, 46320, Note_on_c, 10, 52, 80
2, 46320, Note_on_c, 10, 57, 80
2, 46559, Note_on_c, 10, 52, 0
2, 46559, Note_on_c, 10, 57, 0
2, 46800, Note_on_c, 10, 52, 80
2, 46800, Note_on_c, 10, 57, 80
2, 47027, Note_on_c, 10, 52, 0
2, 47027, Note_on_c, 10, 57, 0
2, 47040, Note_on_c, 10, 52, 80
2, 47040, Note_on_c, 10, 57, 80
2, 47267, Note_on_c, 10, 52, 0
2, 47267, Note_on_c, 10, 57, 0
2, 47280, Note_on_c, 10, 52, 80
2, 47280, Note_on_c, 10, 57, 80
2, 47735, Note_on_c, 10, 52, 0
2, 47735, Note_on_c, 10, 57, 0
2, 47760, Note_on_c, 10, 52, 80
2, 47760, Note_on_c, 10, 57, 80
2, 47987, Note_on_c, 10, 52, 0
2, 47987, Note_on_c, 10, 57, 0
2, 48000, Note_on_c, 10, 55, 80
2, 48000, Note_on_c, 10, 59, 80
2, 48227, Note_on_c, 10, 55, 0
2, 48227, Note_on_c, 10, 59, 0
2, 48240, Note_on_c, 10, 55, 80
2, 48240, Note_on_c, 10, 59, 80
2, 48695, Note_on_c, 10, 55, 0
2, 48695, Note_on_c, 10, 59, 0
2, 48720, Note_on_c, 10, 55, 80
2, 48720, Note_on_c, 10, 59, 80
2, 48947, Note_on_c, 10, 55, 0
2, 48947, Note_on_c, 10, 59, 0
2, 48960, Note_on_c, 10, 55, 80
2, 48960, Note_on_c, 10, 59, 80
2, 49871, Note_on_c, 10, 55, 0
2, 49871, Note_on_c, 10, 59, 0
2, 49920, Note_on_c, 10, 57, 80
2, 49920, Note_on_c, 10, 60, 80
2, 50147, Note_on_c, 10, 57, 0
2, 50147, Note_on_c, 10, 60, 0
2, 50160, Note_on_c, 10, 57, 80
2, 50160, Note_on_c, 10, 60, 80
2, 50615, Note_on_c, 10, 57, 0
2, 50615, Note_on_c, 10, 60, 0
2, 50640, Note_on_c, 10, 57, 80
2, 50640, Note_on_c, 10, 60, 80
2, 50867, Note_on_c, 10, 57, 0
2, 50867, Note_on_c, 10, 60, 0
2, 50880, Note_on_c, 10, 57, 80
2, 50880, Note_on_c, 10, 60, 80
2, 51335, Note_on_c, 10, 57, 0
2, 51335, Note_on_c, 10, 60, 0
2, 51360, Note_on_c, 10, 57, 80
2, 51360, Note_on_c, 10, 60, 80
2, 51815, Note_on_c, 10, 57, 0
2, 51815, Note_on_c, 10, 60, 0
2, 51840, Note_on_c, 10, 55, 80
2, 51840, Note_on_c, 10, 60, 80
2, 52067, Note_on_c, 10, 55, 0
2, 52067, Note_on_c, 10, 60, 0
2, 52080, Note_on_c, 10, 55, 80
2, 52080, Note_on_c, 10, 60, 80
2, 52535, Note_on_c, 10, 55, 0
2, 52535, Note_on_c, 10, 60, 0
2, 52560, Note_on_c, 10, 55, 80
2, 52560, Note_on_c, 10, 60, 80
2, 52787, Note_on_c, 10, 55, 0
2, 52787, Note_on_c, 10, 60, 0
2, 52800, Note_on_c, 10, 55, 80
2, 52800, Note_on_c, 10, 60, 80
2, 53255, Note_on_c, 10, 55, 0
2, 53255, Note_on_c, 10, 60, 0
2, 53280, Note_on_c, 10, 55, 80
2, 53280, Note_on_c, 10, 60, 80
2, 53735, Note_on_c, 10, 55, 0
2, 53735, Note_on_c, 10, 60, 0
2, 53760, Note_on_c, 10, 57, 80
2, 53760, Note_on_c, 10, 60, 80
2, 53987, Note_on_c, 10, 57, 0
2, 53987, Note_on_c, 10, 60, 0
2, 54000, Note_on_c, 10, 57, 80
2, 54000, Note_on_c, 10, 60, 80
2, 54455, Note_on_c, 10, 57, 0
2, 54455, Note_on_c, 10, 60, 0
2, 54480, Note_on_c, 10, 57, 80
2, 54480, Note_on_c, 10, 60, 80
2, 54707, Note_on_c, 10, 57, 0
2, 54707, Note_on_c, 10, 60, 0
2, 54720, Note_on_c, 10, 57, 80
2, 54720, Note_on_c, 10, 60, 80
2, 55175, Note_on_c, 10, 57, 0
2, 55175, Note_on_c, 10, 60, 0
2, 55200, Note_on_c, 10, 57, 80
2, 55200, Note_on_c, 10, 60, 80
2, 55655, Note_on_c, 10, 57, 0
2, 55655, Note_on_c, 10, 60, 0
2, 55680, Note_on_c, 10, 55, 80
2, 55680, Note_on_c, 10, 60, 80
2, 55907, Note_on_c, 10, 55, 0
2, 55907, Note_on_c, 10, 60, 0
2, 55920, Note_on_c, 10, 55, 80
2, 55920, Note_on_c, 10, 60, 80
2, 56375, Note_on_c, 10, 55, 0
2, 56375, Note_on_c, 10, 60, 0
2, 56400, Note_on_c, 10, 55, 80
2, 56400, Note_on_c, 10, 60, 80
2, 56627, Note_on_c, 10, 55, 0
2, 56627, Note_on_c, 10, 60, 0
2, 56640, Note_on_c, 10, 55, 80
2, 56640, Note_on_c, 10, 60, 80
2, 57095, Note_on_c, 10, 55, 0
2, 57095, Note_on_c, 10, 60, 0
2, 57120, Note_on_c, 10, 55, 80
2, 57120, Note_on_c, 10, 60, 80
2, 57575, Note_on_c, 10, 55, 0
2, 57575, Note_on_c, 10, 60, 0
2, 57600, Note_on_c, 10, 57, 80
2, 57600, Note_on_c, 10, 60, 80
2, 57827, Note_on_c, 10, 57, 0
2, 57827, Note_on_c, 10, 60, 0
2, 57840, Note_on_c, 10, 57, 80
2, 57840, Note_on_c, 10, 60, 80
2, 58295, Note_on_c, 10, 57, 0
2, 58295, Note_on_c, 10, 60, 0
2, 58320, Note_on_c, 10, 57, 80
2, 58320, Note_on_c, 10, 60, 80
2, 58547, Note_on_c, 10, 57, 0
2, 58547, Note_on_c, 10, 60, 0
2, 58560, Note_on_c, 10, 57, 80
2, 58560, Note_on_c, 10, 60, 80
2, 59015, Note_on_c, 10, 57, 0
2, 59015, Note_on_c, 10, 60, 0
2, 59040, Note_on_c, 10, 57, 80
2, 59040, Note_on_c, 10, 60, 80
2, 59495, Note_on_c, 10, 57, 0
2, 59495, Note_on_c, 10, 60, 0
2, 59520, Note_on_c, 10, 55, 80
2, 59520, Note_on_c, 10, 60, 80
2, 59747, Note_on_c, 10, 55, 0
2, 59747, Note_on_c, 10, 60, 0
2, 59760, Note_on_c, 10, 55, 80
2, 59760, Note_on_c, 10, 60, 80
2, 60215, Note_on_c, 10, 55, 0
2, 60215, Note_on_c, 10, 60, 0
2, 60240, Note_on_c, 10, 55, 80
2, 60240, Note_on_c, 10, 60, 80
2, 60467, Note_on_c, 10, 55, 0
2, 60467, Note_on_c, 10, 60, 0
2, 60480, Note_on_c, 10, 55, 80
2, 60480, Note_on_c, 10, 60, 80
2, 60935, Note_on_c, 10, 55, 0
2, 60935, Note_on_c, 10, 60, 0
2, 60960, Note_on_c, 10, 55, 80
2, 60960, Note_on_c, 10, 60, 80
2, 61415, Note_on_c, 10, 55, 0
2, 61415, Note_on_c, 10, 60, 0
2, 61440, Note_on_c, 10, 57, 80
2, 61440, Note_on_c, 10, 60, 80
2, 61667, Note_on_c, 10, 57, 0
2, 61667, Note_on_c, 10, 60, 0
2, 61680, Note_on_c, 10, 57, 80
2, 61680, Note_on_c, 10, 60, 80
2, 62135, Note_on_c, 10, 57, 0
2, 62135, Note_on_c, 10, 60, 0
2, 62160, Note_on_c, 10, 57, 80
2, 62160, Note_on_c, 10, 60, 80
2, 62387, Note_on_c, 10, 57, 0
2, 62387, Note_on_c, 10, 60, 0
2, 62400, Note_on_c, 10, 55, 80
2, 62400, Note_on_c, 10, 60, 80
2, 62855, Note_on_c, 10, 55, 0
2, 62855, Note_on_c, 10, 60, 0
2, 62880, Note_on_c, 10, 55, 80
2, 62880, Note_on_c, 10, 60, 80
2, 63335, Note_on_c, 10, 55, 0
2, 63335, Note_on_c, 10, 60, 0
2, 63360, Note_on_c, 10, 55, 80
2, 63360, Note_on_c, 10, 59, 80
2, 63360, Note_on_c, 10, 62, 80
2, 63719, Note_on_c, 10, 55, 0
2, 63719, Note_on_c, 10, 59, 0
2, 63719, Note_on_c, 10, 62, 0
2, 64080, Note_on_c, 10, 59, 80
2, 64080, Note_on_c, 10, 62, 80
2, 64535, Note_on_c, 10, 59, 0
2, 64535, Note_on_c, 10, 62, 0
2, 64560, Note_on_c, 10, 59, 80
2, 64560, Note_on_c, 10, 62, 80
2, 64787, Note_on_c, 10, 59, 0
2, 64787, Note_on_c, 10, 62, 0
2, 64800, Note_on_c, 10, 59, 80
2, 64800, Note_on_c, 10, 62, 80
2, 65027, Note_on_c, 10, 59, 0
2, 65027, Note_on_c, 10, 62, 0
2, 65040, Note_on_c, 10, 59, 80
2, 65040, Note_on_c, 10, 62, 80
2, 65267, Note_on_c, 10, 59, 0
2, 65267, Note_on_c, 10, 62, 0
2, 65760, Note_on_c, 10, 64, 80
2, 66215, Note_on_c, 10, 64, 0
2, 66240, Note_on_c, 10, 62, 80
2, 66695, Note_on_c, 10, 62, 0
2, 66720, Note_on_c, 10, 64, 80
2, 67175, Note_on_c, 10, 64, 0
2, 67200, Note_on_c, 10, 62, 80
2, 68111, Note_on_c, 10, 62, 0
2, 68160, Note_on_c, 10, 67, 80
2, 69071, Note_on_c, 10, 67, 0
2, 69600, Note_on_c, 10, 67, 80
2, 70055, Note_on_c, 10, 67, 0
2, 70080, Note_on_c, 10, 65, 80
2, 70535, Note_on_c, 10, 65, 0
2, 70560, Note_on_c, 10, 64, 80
2, 71015, Note_on_c, 10, 64, 0
2, 71040, Note_on_c, 10, 62, 80
2, 71951, Note_on_c, 10, 62, 0
2, 72000, Note_on_c, 10, 55, 80
2, 72911, Note_on_c, 10, 55, 0
2, 73440, Note_on_c, 10, 64, 80
2, 73895, Note_on_c, 10, 64, 0
2, 73920, Note_on_c, 10, 62, 80
2, 74375, Note_on_c, 10, 62, 0
2, 74400, Note_on_c, 10, 64, 80
2, 74855, Note_on_c, 10, 64, 0
2, 74880, Note_on_c, 10, 62, 80
2, 75791, Note_on_c, 10, 62, 0
2, 75840, Note_on_c, 10, 67, 80
2, 76751, Note_on_c, 10, 67, 0
2, 76800, Note_on_c, 10, 60, 80
2, 78167, Note_on_c, 10, 60, 0
2, 78240, Note_on_c, 10, 59, 80
2, 78467, Note_on_c, 10, 59, 0
2, 78480, Note_on_c, 10, 60, 80
2, 78707, Note_on_c, 10, 60, 0
2, 78720, Note_on_c, 10, 62, 80
2, 80543, Note_on_c, 10, 62, 0
2, 80640, Note_on_c, 10, 55, 80
2, 80640, Note_on_c, 10, 60, 80
2, 80867, Note_on_c, 10, 55, 0
2, 80867, Note_on_c, 10, 60, 0
2, 80880, Note_on_c, 10, 55, 80
2, 80880, Note_on_c, 10, 60, 80
2, 81335, Note_on_c, 10, 55, 0
2, 81335, Note_on_c, 10, 60, 0
2, 81360, Note_on_c, 10, 55, 80
2, 81360, Note_on_c, 10, 60, 80
2, 81587, Note_on_c, 10, 55, 0
2, 81587, Note_on_c, 10, 60, 0
2, 81600, Note_on_c, 10, 55, 80
2, 81600, Note_on_c, 10, 60, 80
2, 81827, Note_on_c, 10, 55, 0
2, 81827, Note_on_c, 10, 60, 0
2, 81840, Note_on_c, 10, 55, 80
2, 81840, Note_on_c, 10, 60, 80
2, 82295, Note_on_c, 10, 55, 0
2, 82295, Note_on_c, 10, 60, 0
2, 82320, Note_on_c, 10, 55, 80
2, 82320, Note_on_c, 10, 60, 80
2, 82547, Note_on_c, 10, 55, 0
2, 82547, Note_on_c, 10, 60, 0
2, 82560, Note_on_c, 10, 55, 80
2, 82560, Note_on_c, 10, 59, 80
2, 82787, Note_on_c, 10, 55, 0
2, 82787, Note_on_c, 10, 59, 0
2, 82800, Note_on_c, 10, 55, 80
2, 82800, Note_on_c, 10, 59, 80
2, 83255, Note_on_c, 10, 55, 0
2, 83255, Note_on_c, 10, 59, 0
2, 83280, Note_on_c, 10, 55, 80
2, 83280, Note_on_c, 10, 59, 80
2, 83507, Note_on_c, 10, 55, 0
2, 83507, Note_on_c, 10, 59, 0
2, 83520, Note_on_c, 10, 55, 80
2, 83520, Note_on_c, 10, 59, 80
2, 83747, Note_on_c, 10, 55, 0
2, 83747, Note_on_c, 10, 59, 0
2, 83760, Note_on_c, 10, 55, 80
2, 83760, Note_on_c, 10, 59, 80
2, 84215, Note_on_c, 10, 55, 0
2, 84215, Note_on_c, 10, 59, 0
2, 84240, Note_on_c, 10, 55, 80
2, 84240, Note_on_c, 10, 59, 80
2, 84467, Note_on_c, 10, 55, 0
2, 84467, Note_on_c, 10, 59, 0
2, 84480, Note_on_c, 10, 52, 80
2, 84480, Note_on_c, 10, 57, 80
2, 84707, Note_on_c, 10, 52, 0
2, 84707, Note_on_c, 10, 57, 0
2, 84720, Note_on_c, 10, 52, 80
2, 84720, Note_on_c, 10, 57, 80
2, 85175, Note_on_c, 10, 52, 0
2, 85175, Note_on_c, 10, 57, 0
2, 85200, Note_on_c, 10, 52, 80
2, 85200, Note_on_c, 10, 57, 80
2, 85427, Note_on_c, 10, 52, 0
2, 85427, Note_on_c, 10, 57, 0
2, 85440, Note_on_c, 10, 52, 80
2, 85440, Note_on_c, 10, 57, 80
2, 85667, Note_on_c, 10, 52, 0
2, 85667, Note_on_c, 10, 57, 0
2, 85680, Note_on_c, 10, 52, 80
2, 85680, Note_on_c, 10, 57, 80
2, 86135, Note_on_c, 10, 52, 0
2, 86135, Note_on_c, 10, 57, 0
2, 86160, Note_on_c, 10, 52, 80
2, 86160, Note_on_c, 10, 57, 80
2, 86387, Note_on_c, 10, 52, 0
2, 86387, Note_on_c, 10, 57, 0
2, 86400, Note_on_c, 10, 55, 80
2, 86400, Note_on_c, 10, 59, 80
2, 86627, Note_on_c, 10, 55, 0
2, 86627, Note_on_c, 10, 59, 0
2, 86640, Note_on_c, 10, 55, 80
2, 86640, Note_on_c, 10, 59, 80
2, 87095, Note_on_c, 10, 55, 0
2, 87095, Note_on_c, 10, 59, 0
2, 87120, Note_on_c, 10, 55, 80
2, 87120, Note_on_c, 10, 59, 80
2, 87347, Note_on_c, 10, 55, 0
2, 87347, Note_on_c, 10, 59, 0
2, 87360, Note_on_c, 10, 55, 80
2, 87360, Note_on_c, 10, 59, 80
2, 87587, Note_on_c, 10, 55, 0
2, 87587, Note_on_c, 10, 59, 0
2, 87600, Note_on_c, 10, 55, 80
2, 87600, Note_on_c, 10, 59, 80
2, 87719, Note_on_c, 10, 55, 0
2, 87719, Note_on_c, 10, 59, 0
2, 87840, Note_on_c, 10, 59, 80
2, 87953, Note_on_c, 10, 59, 0
2, 87960, Note_on_c, 10, 62, 80
2, 88073, Note_on_c, 10, 62, 0
2, 88080, Note_on_c, 10, 64, 80
2, 88193, Note_on_c, 10, 64, 0
2, 88200, Note_on_c, 10, 65, 80
2, 88313, Note_on_c, 10, 65, 0
2, 88320, Note_on_c, 10, 55, 80
2, 88320, Note_on_c, 10, 60, 80
2, 88547, Note_on_c, 10, 55, 0
2, 88547, Note_on_c, 10, 60, 0
2, 88560, Note_on_c, 10, 55, 80
2, 88560, Note_on_c, 10, 60, 80
2, 89015, Note_on_c, 10, 55, 0
2, 89015, Note_on_c, 10, 60, 0
2, 89040, Note_on_c, 10, 55, 80
2, 89040, Note_on_c, 10, 60, 80
2, 89267, Note_on_c, 10, 55, 0
2, 89267, Note_on_c, 10, 60, 0
2, 89280, Note_on_c, 10, 55, 80
2, 89280, Note_on_c, 10, 60, 80
2, 89507, Note_on_c, 10, 55, 0
2, 89507, Note_on_c, 10, 60, 0
2, 89520, Note_on_c, 10, 55, 80
2, 89520, Note_on_c, 10, 60, 80
2, 89975, Note_on_c, 10, 55, 0
2, 89975, Note_on_c, 10, 60, 0
2, 90000, Note_on_c, 10, 55, 80
2, 90000, Note_on_c, 10, 60, 80
2, 90227, Note_on_c, 10, 55, 0
2, 90227, Note_on_c, 10, 60, 0
2, 90240, Note_on_c, 10, 55, 80
2, 90240, Note_on_c, 10, 59, 80
2, 90467, Note_on_c, 10, 55, 0
2, 90467, Note_on_c, 10, 59, 0
2, 90480, Note_on_c, 10, 55, 80
2, 90480, Note_on_c, 10, 59, 80
2, 90935, Note_on_c, 10, 55, 0
2, 90935, Note_on_c, 10, 59, 0
2, 90960, Note_on_c, 10, 55, 80
2, 90960, Note_on_c, 10, 59, 80
2, 91187, Note_on_c, 10, 55, 0
2, 91187, Note_on_c, 10, 59, 0
2, 91200, Note_on_c, 10, 55, 80
2, 91200, Note_on_c, 10, 59, 80
2, 91427, Note_on_c, 10, 55, 0
2, 91427, Note_on_c, 10, 59, 0
2, 91440, Note_on_c, 10, 55, 80
2, 91440, Note_on_c, 10, 59, 80
2, 91895, Note_on_c, 10, 55, 0
2, 91895, Note_on_c, 10, 59, 0
2, 91920, Note_on_c, 10, 55, 80
2, 91920, Note_on_c, 10, 59, 80
2, 92147, Note_on_c, 10, 55, 0
2, 92147, Note_on_c, 10, 59, 0
2, 92160, Note_on_c, 10, 52, 80
2, 92160, Note_on_c, 10, 57, 80
2, 92387, Note_on_c, 10, 52, 0
2, 92387, Note_on_c, 10, 57, 0
2, 92400, Note_on_c, 10, 52, 80
2, 92400, Note_on_c, 10, 57, 80
2, 92855, Note_on_c, 10, 52, 0
2, 92855, Note_on_c, 10, 57, 0
2, 92880, Note_on_c, 10, 52, 80
2, 92880, Note_on_c, 10, 57, 80
2, 93107, Note_on_c, 10, 52, 0
2, 93107, Note_on_c, 10, 57, 0
2, 93120, Note_on_c, 10, 52, 80
2, 93120, Note_on_c, 10, 57, 80
2, 93347, Note_on_c, 10, 52, 0
2, 93347, Note_on_c, 10, 57, 0
2, 93360, Note_on_c, 10, 52, 80
2, 93360, Note_on_c, 10, 57, 80
2, 93815, Note_on_c, 10, 52, 0
2, 93815, Note_on_c, 10, 57, 0
2, 93840, Note_on_c, 10, 52, 80
2, 93840, Note_on_c, 10, 57, 80
2, 94067, Note_on_c, 10, 52, 0
2, 94067, Note_on_c, 10, 57, 0
2, 94080, Note_on_c, 10, 55, 80
2, 94080, Note_on_c, 10, 59, 80
2, 94307, Note_on_c, 10, 55, 0
2, 94307, Note_on_c, 10, 59, 0
2, 94320, Note_on_c, 10, 55, 80
2, 94320, Note_on_c, 10, 59, 80
2, 94775, Note_on_c, 10, 55, 0
2, 94775, Note_on_c, 10, 59, 0
2, 94800, Note_on_c, 10, 55, 80
2, 94800, Note_on_c, 10, 59, 80
2, 95027, Note_on_c, 10, 55, 0
2, 95027, Note_on_c, 10, 59, 0
2, 95040, Note_on_c, 10, 55, 80
2, 95040, Note_on_c, 10, 59, 80
2, 95951, Note_on_c, 10, 55, 0
2, 95951, Note_on_c, 10, 59, 0
2, 96000, Note_on_c, 10, 57, 80
2, 96000, Note_on_c, 10, 60, 80
2, 96227, Note_on_c, 10, 57, 0
2, 96227, Note_on_c, 10, 60, 0
2, 96240, Note_on_c, 10, 57, 80
2, 96240, Note_on_c, 10, 60, 80
2, 96695, Note_on_c, 10, 57, 0
2, 96695, Note_on_c, 10, 60, 0
2, 96720, Note_on_c, 10, 57, 80
2, 96720, Note_on_c, 10, 60, 80
2, 96947, Note_on_c, 10, 57, 0
2, 96947, Note_on_c, 10, 60, 0
2, 96960, Note_on_c, 10, 57, 80
2, 96960, Note_on_c, 10, 60, 80
2, 97415, Note_on_c, 10, 57, 0
2, 97415, Note_on_c, 10, 60, 0
2, 97440, Note_on_c, 10, 57, 80
2, 97440, Note_on_c, 10, 60, 80
2, 97895, Note_on_c, 10, 57, 0
2, 97895, Note_on_c, 10, 60, 0
2, 97920, Note_on_c, 10, 55, 80
2, 97920, Note_on_c, 10, 60, 80
2, 98147, Note_on_c, 10, 55, 0
2, 98147, Note_on_c, 10, 60, 0
2, 98160, Note_on_c, 10, 55, 80
2, 98160, Note_on_c, 10, 60, 80
2, 98615, Note_on_c, 10, 55, 0
2, 98615, Note_on_c, 10, 60, 0
2, 98640, Note_on_c, 10, 55, 80
2, 98640, Note_on_c, 10, 60, 80
2, 98867, Note_on_c, 10, 55, 0
2, 98867, Note_on_c, 10, 60, 0
2, 98880, Note_on_c, 10, 55, 80
2, 98880, Note_on_c, 10, 60, 80
2, 99335, Note_on_c, 10, 55, 0
2, 99335, Note_on_c, 10, 60, 0
2, 99360, Note_on_c, 10, 55, 80
2, 99360, Note_on_c, 10, 60, 80
2, 99815, Note_on_c, 10, 55, 0
2, 99815, Note_on_c, 10, 60, 0
2, 99840, Note_on_c, 10, 57, 80
2, 99840, Note_on_c, 10, 60, 80
2, 100067, Note_on_c, 10, 57, 0
2, 100067, Note_on_c, 10, 60, 0
2, 100080, Note_on_c, 10, 57, 80
2, 100080, Note_on_c, 10, 60, 80
2, 100535, Note_on_c, 10, 57, 0
2, 100535, Note_on_c, 10, 60, 0
2, 100560, Note_on_c, 10, 57, 80
2, 100560, Note_on_c, 10, 60, 80
2, 100787, Note_on_c, 10, 57, 0
2, 100787, Note_on_c, 10, 60, 0
2, 100800, Note_on_c, 10, 57, 80
2, 100800, Note_on_c, 10, 60, 80
2, 101255, Note_on_c, 10, 57, 0
2, 101255, Note_on_c, 10, 60, 0
2, 101280, Note_on_c, 10, 57, 80
2, 101280, Note_on_c, 10, 60, 80
2, 101735, Note_on_c, 10, 57, 0
2, 101735, Note_on_c, 10, 60, 0
2, 101760, Note_on_c, 10, 55, 80
2, 101760, Note_on_c, 10, 60, 80
2, 101987, Note_on_c, 10, 55, 0
2, 101987, Note_on_c, 10, 60, 0
2, 102000, Note_on_c, 10, 55, 80
2, 102000, Note_on_c, 10, 60, 80
2, 102455, Note_on_c, 10, 55, 0
2, 102455, Note_on_c, 10, 60, 0
2, 102480, Note_on_c, 10, 55, 80
2, 102480, Note_on_c, 10, 60, 80
2, 102707, Note_on_c, 10, 55, 0
2, 102707, Note_on_c, 10, 60, 0
2, 102720, Note_on_c, 10, 55, 80
2, 102720, Note_on_c, 10, 60, 80
2, 103175, Note_on_c, 10, 55, 0
2, 103175, Note_on_c, 10, 60, 0
2, 103200, Note_on_c, 10, 55, 80
2, 103200, Note_on_c, 10, 60, 80
2, 103655, Note_on_c, 10, 55, 0
2, 103655, Note_on_c, 10, 60, 0
2, 103680, Note_on_c, 10, 57, 80
2, 103680, Note_on_c, 10, 60, 80
2, 103907, Note_on_c, 10, 57, 0
2, 103907, Note_on_c, 10, 60, 0
2, 103920, Note_on_c, 10, 57, 80
2, 103920, Note_on_c, 10, 60, 80
2, 104375, Note_on_c, 10, 57, 0
2, 104375, Note_on_c, 10, 60, 0
2, 104400, Note_on_c, 10, 57, 80
2, 104400, Note_on_c, 10, 60, 80
2, 104627, Note_on_c, 10, 57, 0
2, 104627, Note_on_c, 10, 60, 0
2, 104640, Note_on_c, 10, 57, 80
2, 104640, Note_on_c, 10, 60, 80
2, 105095, Note_on_c, 10, 57, 0
2, 105095, Note_on_c, 10, 60, 0
2, 105120, Note_on_c, 10, 57, 80
2, 105120, Note_on_c, 10, 60, 80
2, 105575, Note_on_c, 10, 57, 0
2, 105575, Note_on_c, 10, 60, 0
2, 105600, Note_on_c, 10, 55, 80
2, 105600, Note_on_c, 10, 60, 80
2, 105827, Note_on_c, 10, 55, 0
2, 105827, Note_on_c, 10, 60, 0
2, 105840, Note_on_c, 10, 55, 80
2, 105840, Note_on_c, 10, 60, 80
2, 106295, Note_on_c, 10, 55, 0
2, 106295, Note_on_c, 10, 60, 0
2, 106320, Note_on_c, 10, 55, 80
2, 106320, Note_on_c, 10, 60, 80
2, 106547, Note_on_c, 10, 55, 0
2, 106547, Note_on_c, 10, 60, 0
2, 106560, Note_on_c, 10, 55, 80
2, 106560, Note_on_c, 10, 60, 80
2, 107015, Note_on_c, 10, 55, 0
2, 107015, Note_on_c, 10, 60, 0
2, 107040, Note_on_c, 10, 55, 80
2, 107040, Note_on_c, 10, 60, 80
2, 107495, Note_on_c, 10, 55, 0
2, 107495, Note_on_c, 10, 60, 0
2, 107520, Note_on_c, 10, 57, 80
2, 107520, Note_on_c, 10, 60, 80
2, 108431, Note_on_c, 10, 57, 0
2, 108431, Note_on_c, 10, 60, 0
2, 108480, Note_on_c, 10, 55, 80
2, 108480, Note_on_c, 10, 60, 80
2, 109391, Note_on_c, 10, 55, 0
2, 109391, Note_on_c, 10, 60, 0
2, 109440, Note_on_c, 10, 55, 80
2, 109440, Note_on_c, 10, 59, 80
2, 109440, Note_on_c, 10, 62, 80
2, 109919, Note_on_c, 10, 55, 0
2, 109919, Note_on_c, 10, 59, 0
2, 109919, Note_on_c, 10, 62, 0
2, 115200, Note_on_c, 10, 64, 80
2, 116567, Note_on_c, 10, 64, 0
2, 116640, Note_on_c, 10, 65, 80
2, 116867, Note_on_c, 10, 65, 0
2, 116880, Note_on_c, 10, 64, 80
2, 117107, Note_on_c, 10, 64, 0
2, 117120, Note_on_c, 10, 64, 80
2, 117347, Note_on_c, 10, 64, 0
2, 117360, Note_on_c, 10, 62, 80
2, 118385, Note_on_c, 10, 62, 0
2, 118560, Note_on_c, 10, 60, 80
2, 118787, Note_on_c, 10, 60, 0
2, 118800, Note_on_c, 10, 62, 80
2, 119027, Note_on_c, 10, 62, 0
2, 119040, Note_on_c, 10, 64, 80
2, 119153, Note_on_c, 10, 64, 0
2, 119160, Note_on_c, 10, 62, 80
2, 119280, Note_on_c, 10, 60, 80
2, 119339, Note_on_c, 10, 62, 0
2, 120191, Note_on_c, 10, 60, 0
2, 120320, Note_on_c, 10, 57, 80
2, 120623, Note_on_c, 10, 57, 0
2, 120640, Note_on_c, 10, 60, 80
2, 120943, Note_on_c, 10, 60, 0
2, 120960, Note_on_c, 10, 62, 80
2, 122783, Note_on_c, 10, 62, 0
2, 122880, Note_on_c, 10, 52, 80
2, 123335, Note_on_c, 10, 52, 0
2, 123360, Note_on_c, 10, 57, 80
2, 123815, Note_on_c, 10, 57, 0
2, 123840, Note_on_c, 10, 60, 80
2, 124295, Note_on_c, 10, 60, 0
2, 124320, Note_on_c, 10, 64, 80
2, 124775, Note_on_c, 10, 64, 0
2, 124800, Note_on_c, 10, 52, 80
2, 125255, Note_on_c, 10, 52, 0
2, 125280, Note_on_c, 10, 59, 80
2, 125735, Note_on_c, 10, 59, 0
2, 125760, Note_on_c, 10, 62, 80
2, 126215, Note_on_c, 10, 62, 0
2, 126240, Note_on_c, 10, 64, 80
2, 126695, Note_on_c, 10, 64, 0
2, 126720, Note_on_c, 10, 52, 80
2, 127175, Note_on_c, 10, 52, 0
2, 127200, Note_on_c, 10, 57, 80
2, 127655, Note_on_c, 10, 57, 0
2, 127680, Note_on_c, 10, 60, 80
2, 128135, Note_on_c, 10, 60, 0
2, 128160, Note_on_c, 10, 64, 80
2, 128615, Note_on_c, 10, 64, 0
2, 128640, Note_on_c, 10, 52, 80
2, 129095, Note_on_c, 10, 52, 0
2, 129120, Note_on_c, 10, 59, 80
2, 129575, Note_on_c, 10, 59, 0
2, 129600, Note_on_c, 10, 62, 80
2, 130055, Note_on_c, 10, 62, 0
2, 130080, Note_on_c, 10, 59, 80
2, 130535, Note_on_c, 10, 59, 0
2, 130560, Note_on_c, 10, 52, 80
2, 131015, Note_on_c, 10, 52, 0
2, 131040, Note_on_c, 10, 57, 80
2, 131495, Note_on_c, 10, 57, 0
2, 131520, Note_on_c, 10, 60, 80
2, 131975, Note_on_c, 10, 60, 0
2, 132000, Note_on_c, 10, 64, 80
2, 132455, Note_on_c, 10, 64, 0
2, 132480, Note_on_c, 10, 52, 80
2, 132935, Note_on_c, 10, 52, 0
2, 132960, Note_on_c, 10, 59, 80
2, 133415, Note_on_c, 10, 59, 0
2, 133440, Note_on_c, 10, 62, 80
2, 133895, Note_on_c, 10, 62, 0
2, 133920, Note_on_c, 10, 59, 80
2, 133920, Note_on_c, 10, 64, 80
2, 134147, Note_on_c, 10, 59, 0
2, 134147, Note_on_c, 10, 64, 0
2, 134160, Note_on_c, 10, 60, 80
2, 134387, Note_on_c, 10, 60, 0
2, 134400, Note_on_c, 10, 52, 80
2, 134855, Note_on_c, 10, 52, 0
2, 134880, Note_on_c, 10, 57, 80
2, 135335, Note_on_c, 10, 57, 0
2, 135360, Note_on_c, 10, 60, 80
2, 135815, Note_on_c, 10, 60, 0
2, 135840, Note_on_c, 10, 64, 80
2, 136295, Note_on_c, 10, 64, 0
2, 136320, Note_on_c, 10, 57, 80
2, 137279, Note_on_c, 10, 57, 0
2, 137280, End_track
3, 0, Start_track
3, 0, Title_t, "Electric Bass, Bass\000"
3, 0, Key_signature, 0, "major"
3, 0, Control_c, 5, 121, 0
3, 0, Program_c, 5, 33
3, 0, Control_c, 5, 7, 100
3, 0, Control_c, 5, 10, 64
3, 0, Control_c, 5, 91, 0
3, 0, Control_c, 5, 93, 0
3, 0, MIDI_port, 0
3, 0, Control_c, 1, 121, 0
3, 0, Program_c, 1, 36
3, 0, Control_c, 1, 7, 100
3, 0, Control_c, 1, 10, 64
3, 0, Control_c, 1, 91, 0
3, 0, Control_c, 1, 93, 0
3, 0, MIDI_port, 0
3, 0, Control_c, 2, 121, 0
3, 0, Program_c, 2, 37
3, 0, Control_c, 2, 7, 100
3, 0, Control_c, 2, 10, 64
3, 0, Control_c, 2, 91, 0
3, 0, Control_c, 2, 93, 0
3, 0, MIDI_port, 0
3, 19200, Note_on_c, 5, 60, 80
3, 19679, Note_on_c, 5, 60, 0
3, 19680, Note_on_c, 5, 60, 80
3, 20159, Note_on_c, 5, 60, 0
3, 20160, Note_on_c, 5, 60, 80
3, 20639, Note_on_c, 5, 60, 0
3, 20640, Note_on_c, 5, 60, 80
3, 21119, Note_on_c, 5, 60, 0
3, 21120, Note_on_c, 5, 59, 80
3, 21599, Note_on_c, 5, 59, 0
3, 21600, Note_on_c, 5, 59, 80
3, 22079, Note_on_c, 5, 59, 0
3, 22080, Note_on_c, 5, 59, 80
3, 22559, Note_on_c, 5, 59, 0
3, 22560, Note_on_c, 5, 59, 80
3, 23039, Note_on_c, 5, 59, 0
3, 23040, Note_on_c, 5, 57, 80
3, 23519, Note_on_c, 5, 57, 0
3, 23520, Note_on_c, 5, 57, 80
3, 23999, Note_on_c, 5, 57, 0
3, 24000, Note_on_c, 5, 57, 80
3, 24479, Note_on_c, 5, 57, 0
3, 24480, Note_on_c, 5, 57, 80
3, 24959, Note_on_c, 5, 57, 0
3, 24960, Note_on_c, 5, 59, 80
3, 25439, Note_on_c, 5, 59, 0
3, 25440, Note_on_c, 5, 59, 80
3, 25919, Note_on_c, 5, 59, 0
3, 25920, Note_on_c, 5, 59, 80
3, 26399, Note_on_c, 5, 59, 0
3, 26400, Note_on_c, 5, 59, 80
3, 26639, Note_on_c, 5, 59, 0
3, 26640, Note_on_c, 5, 59, 80
3, 26879, Note_on_c, 5, 59, 0
3, 26880, Note_on_c, 5, 60, 80
3, 27359, Note_on_c, 5, 60, 0
3, 27360, Note_on_c, 5, 60, 80
3, 27839, Note_on_c, 5, 60, 0
3, 27840, Note_on_c, 5, 60, 80
3, 28319, Note_on_c, 5, 60, 0
3, 28320, Note_on_c, 5, 60, 80
3, 28799, Note_on_c, 5, 60, 0
3, 28800, Note_on_c, 5, 59, 80
3, 29279, Note_on_c, 5, 59, 0
3, 29280, Note_on_c, 5, 59, 80
3, 29759, Note_on_c, 5, 59, 0
3, 29760, Note_on_c, 5, 59, 80
3, 30239, Note_on_c, 5, 59, 0
3, 30240, Note_on_c, 5, 59, 80
3, 30719, Note_on_c, 5, 59, 0
3, 30720, Note_on_c, 5, 57, 80
3, 31199, Note_on_c, 5, 57, 0
3, 31200, Note_on_c, 5, 57, 80
3, 31679, Note_on_c, 5, 57, 0
3, 31680, Note_on_c, 5, 57, 80
3, 32159, Note_on_c, 5, 57, 0
3, 32160, Note_on_c, 5, 57, 80
3, 32639, Note_on_c, 5, 57, 0
3, 32640, Note_on_c, 5, 59, 80
3, 33119, Note_on_c, 5, 59, 0
3, 33120, Note_on_c, 5, 59, 80
3, 33599, Note_on_c, 5, 59, 0
3, 33600, Note_on_c, 5, 59, 80
3, 34079, Note_on_c, 5, 59, 0
3, 34080, Note_on_c, 5, 59, 80
3, 34559, Note_on_c, 5, 59, 0
3, 34560, Note_on_c, 5, 60, 80
3, 35039, Note_on_c, 5, 60, 0
3, 35040, Note_on_c, 5, 60, 80
3, 35519, Note_on_c, 5, 60, 0
3, 35520, Note_on_c, 5, 60, 80
3, 35999, Note_on_c, 5, 60, 0
3, 36000, Note_on_c, 5, 60, 80
3, 36479, Note_on_c, 5, 60, 0
3, 36480, Note_on_c, 5, 59, 80
3, 36959, Note_on_c, 5, 59, 0
3, 36960, Note_on_c, 5, 59, 80
3, 37439, Note_on_c, 5, 59, 0
3, 37440, Note_on_c, 5, 59, 80
3, 37919, Note_on_c, 5, 59, 0
3, 37920, Note_on_c, 5, 59, 80
3, 38399, Note_on_c, 5, 59, 0
3, 38400, Note_on_c, 5, 57, 80
3, 38879, Note_on_c, 5, 57, 0
3, 38880, Note_on_c, 5, 57, 80
3, 39359, Note_on_c, 5, 57, 0
3, 39360, Note_on_c, 5, 57, 80
3, 39839, Note_on_c, 5, 57, 0
3, 39840, Note_on_c, 5, 57, 80
3, 40319, Note_on_c, 5, 57, 0
3, 40320, Note_on_c, 5, 59, 80
3, 40799, Note_on_c, 5, 59, 0
3, 40800, Note_on_c, 5, 59, 80
3, 41279, Note_on_c, 5, 59, 0
3, 41280, Note_on_c, 5, 59, 80
3, 41759, Note_on_c, 5, 59, 0
3, 41760, Note_on_c, 5, 59, 80
3, 42239, Note_on_c, 5, 59, 0
3, 42240, Note_on_c, 5, 60, 80
3, 42719, Note_on_c, 5, 60, 0
3, 42720, Note_on_c, 5, 60, 80
3, 43199, Note_on_c, 5, 60, 0
3, 43200, Note_on_c, 5, 60, 80
3, 43679, Note_on_c, 5, 60, 0
3, 43680, Note_on_c, 5, 60, 80
3, 44159, Note_on_c, 5, 60, 0
3, 44160, Note_on_c, 5, 59, 80
3, 44639, Note_on_c, 5, 59, 0
3, 44640, Note_on_c, 5, 59, 80
3, 45119, Note_on_c, 5, 59, 0
3, 45120, Note_on_c, 5, 59, 80
3, 45599, Note_on_c, 5, 59, 0
3, 45600, Note_on_c, 5, 59, 80
3, 46079, Note_on_c, 5, 59, 0
3, 46080, Note_on_c, 5, 57, 80
3, 46559, Note_on_c, 5, 57, 0
3, 46560, Note_on_c, 5, 57, 80
3, 47039, Note_on_c, 5, 57, 0
3, 47040, Note_on_c, 5, 57, 80
3, 47519, Note_on_c, 5, 57, 0
3, 47520, Note_on_c, 5, 57, 80
3, 47999, Note_on_c, 5, 57, 0
3, 48000, Note_on_c, 5, 59, 80
3, 48719, Note_on_c, 5, 59, 0
3, 48720, Note_on_c, 5, 59, 80
3, 48959, Note_on_c, 5, 59, 0
3, 48960, Note_on_c, 5, 59, 80
3, 49439, Note_on_c, 5, 59, 0
3, 49440, Note_on_c, 5, 59, 80
3, 49919, Note_on_c, 5, 59, 0
3, 49920, Note_on_c, 5, 53, 80
3, 50639, Note_on_c, 5, 53, 0
3, 50640, Note_on_c, 5, 53, 80
3, 51359, Note_on_c, 5, 53, 0
3, 51360, Note_on_c, 5, 64, 80
3, 51599, Note_on_c, 5, 64, 0
3, 51600, Note_on_c, 5, 62, 80
3, 51839, Note_on_c, 5, 62, 0
3, 51840, Note_on_c, 5, 60, 80
3, 52559, Note_on_c, 5, 60, 0
3, 52560, Note_on_c, 5, 60, 80
3, 53279, Note_on_c, 5, 60, 0
3, 53280, Note_on_c, 5, 60, 80
3, 53759, Note_on_c, 5, 60, 0
3, 53760, Note_on_c, 5, 57, 80
3, 54479, Note_on_c, 5, 57, 0
3, 54480, Note_on_c, 5, 57, 80
3, 55199, Note_on_c, 5, 57, 0
3, 55200, Note_on_c, 5, 57, 80
3, 55679, Note_on_c, 5, 57, 0
3, 55680, Note_on_c, 5, 60, 80
3, 56399, Note_on_c, 5, 60, 0
3, 56400, Note_on_c, 5, 60, 80
3, 57119, Note_on_c, 5, 60, 0
3, 57120, Note_on_c, 5, 60, 80
3, 57599, Note_on_c, 5, 60, 0
3, 57600, Note_on_c, 5, 57, 80
3, 58319, Note_on_c, 5, 57, 0
3, 58320, Note_on_c, 5, 57, 80
3, 59039, Note_on_c, 5, 57, 0
3, 59040, Note_on_c, 5, 59, 80
3, 59279, Note_on_c, 5, 59, 0
3, 59280, Note_on_c, 5, 60, 80
3, 59519, Note_on_c, 5, 60, 0
3, 59520, Note_on_c, 5, 55, 80
3, 60239, Note_on_c, 5, 55, 0
3, 60240, Note_on_c, 5, 55, 80
3, 60959, Note_on_c, 5, 55, 0
3, 60960, Note_on_c, 5, 55, 80
3, 61439, Note_on_c, 5, 55, 0
3, 61440, Note_on_c, 5, 57, 80
3, 62399, Note_on_c, 5, 57, 0
3, 62400, Note_on_c, 5, 55, 80
3, 63359, Note_on_c, 5, 55, 0
3, 63360, Note_on_c, 5, 55, 80
3, 63719, Note_on_c, 5, 55, 0
3, 64080, Note_on_c, 5, 55, 80
3, 64559, Note_on_c, 5, 55, 0
3, 64560, Note_on_c, 5, 55, 80
3, 65039, Note_on_c, 5, 55, 0
3, 65040, Note_on_c, 5, 55, 80
3, 65279, Note_on_c, 5, 55, 0
3, 65280, Note_on_c, 5, 60, 80
3, 67199, Note_on_c, 5, 60, 0
3, 67200, Note_on_c, 5, 59, 80
3, 69119, Note_on_c, 5, 59, 0
3, 69120, Note_on_c, 5, 57, 80
3, 71039, Note_on_c, 5, 57, 0
3, 71040, Note_on_c, 5, 59, 80
3, 72959, Note_on_c, 5, 59, 0
3, 72960, Note_on_c, 5, 60, 80
3, 74879, Note_on_c, 5, 60, 0
3, 74880, Note_on_c, 5, 59, 80
3, 76799, Note_on_c, 5, 59, 0
3, 76800, Note_on_c, 5, 57, 80
3, 78719, Note_on_c, 5, 57, 0
3, 78720, Note_on_c, 5, 59, 80
3, 80639, Note_on_c, 5, 59, 0
3, 80640, Note_on_c, 5, 60, 80
3, 81119, Note_on_c, 5, 60, 0
3, 81120, Note_on_c, 5, 60, 80
3, 81599, Note_on_c, 5, 60, 0
3, 81600, Note_on_c, 5, 60, 80
3, 82079, Note_on_c, 5, 60, 0
3, 82080, Note_on_c, 5, 60, 80
3, 82559, Note_on_c, 5, 60, 0
3, 82560, Note_on_c, 5, 59, 80
3, 83039, Note_on_c, 5, 59, 0
3, 83040, Note_on_c, 5, 59, 80
3, 83519, Note_on_c, 5, 59, 0
3, 83520, Note_on_c, 5, 59, 80
3, 83999, Note_on_c, 5, 59, 0
3, 84000, Note_on_c, 5, 59, 80
3, 84479, Note_on_c, 5, 59, 0
3, 84480, Note_on_c, 5, 57, 80
3, 84959, Note_on_c, 5, 57, 0
3, 84960, Note_on_c, 5, 57, 80
3, 85439, Note_on_c, 5, 57, 0
3, 85440, Note_on_c, 5, 57, 80
3, 85919, Note_on_c, 5, 57, 0
3, 85920, Note_on_c, 5, 57, 80
3, 86399, Note_on_c, 5, 57, 0
3, 86400, Note_on_c, 5, 59, 80
3, 86879, Note_on_c, 5, 59, 0
3, 86880, Note_on_c, 5, 59, 80
3, 87359, Note_on_c, 5, 59, 0
3, 87360, Note_on_c, 5, 59, 80
3, 87839, Note_on_c, 5, 59, 0
3, 87840, Note_on_c, 5, 59, 80
3, 88079, Note_on_c, 5, 59, 0
3, 88080, Note_on_c, 5, 59, 80
3, 88319, Note_on_c, 5, 59, 0
3, 88320, Note_on_c, 5, 60, 80
3, 88799, Note_on_c, 5, 60, 0
3, 88800, Note_on_c, 5, 60, 80
3, 89279, Note_on_c, 5, 60, 0
3, 89280, Note_on_c, 5, 60, 80
3, 89759, Note_on_c, 5, 60, 0
3, 89760, Note_on_c, 5, 60, 80
3, 90239, Note_on_c, 5, 60, 0
3, 90240, Note_on_c, 5, 59, 80
3, 90719, Note_on_c, 5, 59, 0
3, 90720, Note_on_c, 5, 59, 80
3, 91199, Note_on_c, 5, 59, 0
3, 91200, Note_on_c, 5, 59, 80
3, 91679, Note_on_c, 5, 59, 0
3, 91680, Note_on_c, 5, 59, 80
3, 92159, Note_on_c, 5, 59, 0
3, 92160, Note_on_c, 5, 57, 80
3, 92639, Note_on_c, 5, 57, 0
3, 92640, Note_on_c, 5, 57, 80
3, 93119, Note_on_c, 5, 57, 0
3, 93120, Note_on_c, 5, 57, 80
3, 93599, Note_on_c, 5, 57, 0
3, 93600, Note_on_c, 5, 57, 80
3, 94079, Note_on_c, 5, 57, 0
3, 94080, Note_on_c, 5, 59, 80
3, 94799, Note_on_c, 5, 59, 0
3, 94800, Note_on_c, 5, 59, 80
3, 95039, Note_on_c, 5, 59, 0
3, 95040, Note_on_c, 5, 59, 80
3, 95519, Note_on_c, 5, 59, 0
3, 95520, Note_on_c, 5, 59, 80
3, 95999, Note_on_c, 5, 59, 0
3, 96000, Note_on_c, 5, 53, 80
3, 96719, Note_on_c, 5, 53, 0
3, 96720, Note_on_c, 5, 53, 80
3, 97439, Note_on_c, 5, 53, 0
3, 97440, Note_on_c, 5, 64, 80
3, 97679, Note_on_c, 5, 64, 0
3, 97680, Note_on_c, 5, 62, 80
3, 97919, Note_on_c, 5, 62, 0
3, 97920, Note_on_c, 5, 60, 80
3, 98639, Note_on_c, 5, 60, 0
3, 98640, Note_on_c, 5, 60, 80
3, 99359, Note_on_c, 5, 60, 0
3, 99360, Note_on_c, 5, 60, 80
3, 99839, Note_on_c, 5, 60, 0
3, 99840, Note_on_c, 5, 57, 80
3, 100559, Note_on_c, 5, 57, 0
3, 100560, Note_on_c, 5, 57, 80
3, 101279, Note_on_c, 5, 57, 0
3, 101280, Note_on_c, 5, 57, 80
3, 101759, Note_on_c, 5, 57, 0
3, 101760, Note_on_c, 5, 60, 80
3, 102479, Note_on_c, 5, 60, 0
3, 102480, Note_on_c, 5, 60, 80
3, 103199, Note_on_c, 5, 60, 0
3, 103200, Note_on_c, 5, 60, 80
3, 103679, Note_on_c, 5, 60, 0
3, 103680, Note_on_c, 5, 57, 80
3, 104399, Note_on_c, 5, 57, 0
3, 104400, Note_on_c, 5, 57, 80
3, 105119, Note_on_c, 5, 57, 0
3, 105120, Note_on_c, 5, 59, 80
3, 105359, Note_on_c, 5, 59, 0
3, 105360, Note_on_c, 5, 60, 80
3, 105599, Note_on_c, 5, 60, 0
3, 105600, Note_on_c, 5, 55, 80
3, 106319, Note_on_c, 5, 55, 0
3, 106320, Note_on_c, 5, 55, 80
3, 107039, Note_on_c, 5, 55, 0
3, 107040, Note_on_c, 5, 55, 80
3, 107519, Note_on_c, 5, 55, 0
3, 107520, Note_on_c, 5, 57, 80
3, 108479, Note_on_c, 5, 57, 0
3, 108480, Note_on_c, 5, 55, 80
3, 109439, Note_on_c, 5, 55, 0
3, 109440, Note_on_c, 5, 55, 80
3, 111359, Note_on_c, 5, 55, 0
3, 111360, Note_on_c, 5, 60, 80
3, 113279, Note_on_c, 5, 60, 0
3, 115200, Note_on_c, 5, 57, 80
3, 117119, Note_on_c, 5, 57, 0
3, 117120, Note_on_c, 5, 59, 80
3, 119039, Note_on_c, 5, 59, 0
3, 119040, Note_on_c, 5, 60, 80
3, 120959, Note_on_c, 5, 60, 0
3, 120960, Note_on_c, 5, 59, 80
3, 122879, Note_on_c, 5, 59, 0
3, 122880, Note_on_c, 5, 57, 80
3, 124799, Note_on_c, 5, 57, 0
3, 124800, Note_on_c, 5, 59, 80
3, 126719, Note_on_c, 5, 59, 0
3, 126720, Note_on_c, 5, 60, 80
3, 128639, Note_on_c, 5, 60, 0
3, 128640, Note_on_c, 5, 59, 80
3, 130559, Note_on_c, 5, 59, 0
3, 130560, Note_on_c, 5, 57, 80
3, 131999, Note_on_c, 5, 57, 0
3, 132240, Note_on_c, 5, 57, 80
3, 132479, Note_on_c, 5, 57, 0
3, 132480, Note_on_c, 5, 59, 80
3, 133919, Note_on_c, 5, 59, 0
3, 134160, Note_on_c, 5, 59, 80
3, 134399, Note_on_c, 5, 59, 0
3, 134400, Note_on_c, 5, 60, 80
3, 135839, Note_on_c, 5, 60, 0
3, 136080, Note_on_c, 5, 60, 80
3, 136319, Note_on_c, 5, 60, 0
3, 136320, Note_on_c, 5, 59, 80
3, 138239, Note_on_c, 5, 59, 0
3, 138240, Note_on_c, 5, 53, 80
3, 140159, Note_on_c, 5, 53, 0
3, 140160, Note_on_c, 5, 55, 80
3, 142079, Note_on_c, 5, 55, 0
3, 142080, Note_on_c, 5, 57, 80
3, 143999, Note_on_c, 5, 57, 0
3, 144000, Note_on_c, 5, 55, 80
3, 145919, Note_on_c, 5, 55, 0
3, 145920, Note_on_c, 5, 53, 80
3, 147839, Note_on_c, 5, 53, 0
3, 147840, Note_on_c, 5, 55, 80
3, 149759, Note_on_c, 5, 55, 0
3, 149760, Note_on_c, 5, 57, 80
3, 151679, Note_on_c, 5, 57, 0
3, 151680, Note_on_c, 5, 57, 80
3, 153599, Note_on_c, 5, 57, 0
3, 153600, End_track
4, 0, Start_track
4, 0, Title_t, "Bell\000"
4, 0, Key_signature, 0, "major"
4, 0, Control_c, 4, 121, 0
4, 0, Program_c, 4, 14
4, 0, Control_c, 4, 7, 100
4, 0, Control_c, 4, 10, 64
4, 0, Control_c, 4, 91, 0
4, 0, Control_c, 4, 93, 0
4, 0, MIDI_port, 0
4, 1, End_track
5, 0, Start_track
5, 0, Title_t, "Classical Guitar, Lute\000"
5, 0, Key_signature, 0, "major"
5, 0, Control_c, 7, 121, 0
5, 0, Program_c, 7, 24
5, 0, Control_c, 7, 7, 100
5, 0, Control_c, 7, 10, 64
5, 0, Control_c, 7, 91, 0
5, 0, Control_c, 7, 93, 0
5, 0, MIDI_port, 0
5, 0, Note_on_c, 7, 60, 80
5, 0, Control_c, 3, 121, 0
5, 0, Program_c, 3, 28
5, 0, Control_c, 3, 7, 100
5, 0, Control_c, 3, 10, 64
5, 0, Control_c, 3, 91, 0
5, 0, Control_c, 3, 93, 0
5, 0, MIDI_port, 0
5, 239, Note_on_c, 7, 60, 0
5, 240, Note_on_c, 7, 64, 80
5, 479, Note_on_c, 7, 64, 0
5, 480, Note_on_c, 7, 67, 80
5, 719, Note_on_c, 7, 67, 0
5, 720, Note_on_c, 7, 64, 80
5, 959, Note_on_c, 7, 64, 0
5, 960, Note_on_c, 7, 72, 80
5, 1199, Note_on_c, 7, 72, 0
5, 1200, Note_on_c, 7, 64, 80
5, 1439, Note_on_c, 7, 64, 0
5, 1440, Note_on_c, 7, 67, 80
5, 1679, Note_on_c, 7, 67, 0
5, 1680, Note_on_c, 7, 64, 80
5, 1919, Note_on_c, 7, 64, 0
5, 1920, Note_on_c, 7, 60, 80
5, 2159, Note_on_c, 7, 60, 0
5, 2160, Note_on_c, 7, 64, 80
5, 2399, Note_on_c, 7, 64, 0
5, 2400, Note_on_c, 7, 67, 80
5, 2639, Note_on_c, 7, 67, 0
5, 2640, Note_on_c, 7, 64, 80
5, 2879, Note_on_c, 7, 64, 0
5, 2880, Note_on_c, 7, 72, 80
5, 3119, Note_on_c, 7, 72, 0
5, 3120, Note_on_c, 7, 64, 80
5, 3359, Note_on_c, 7, 64, 0
5, 3360, Note_on_c, 7, 67, 80
5, 3599, Note_on_c, 7, 67, 0
5, 3600, Note_on_c, 7, 64, 80
5, 3839, Note_on_c, 7, 64, 0
5, 3840, Note_on_c, 7, 60, 80
5, 4079, Note_on_c, 7, 60, 0
5, 4080, Note_on_c, 7, 64, 80
5, 4319, Note_on_c, 7, 64, 0
5, 4320, Note_on_c, 7, 67, 80
5, 4559, Note_on_c, 7, 67, 0
5, 4560, Note_on_c, 7, 64, 80
5, 4799, Note_on_c, 7, 64, 0
5, 4800, Note_on_c, 7, 72, 80
5, 5039, Note_on_c, 7, 72, 0
5, 5040, Note_on_c, 7, 64, 80
5, 5279, Note_on_c, 7, 64, 0
5, 5280, Note_on_c, 7, 67, 80
5, 5519, Note_on_c, 7, 67, 0
5, 5520, Note_on_c, 7, 64, 80
5, 5759, Note_on_c, 7, 64, 0
5, 5760, Note_on_c, 7, 59, 80
5, 5999, Note_on_c, 7, 59, 0
5, 6000, Note_on_c, 7, 64, 80
5, 6239, Note_on_c, 7, 64, 0
5, 6240, Note_on_c, 7, 67, 80
5, 6479, Note_on_c, 7, 67, 0
5, 6480, Note_on_c, 7, 64, 80
5, 6719, Note_on_c, 7, 64, 0
5, 6720, Note_on_c, 7, 71, 80
5, 6959, Note_on_c, 7, 71, 0
5, 6960, Note_on_c, 7, 64, 80
5, 7199, Note_on_c, 7, 64, 0
5, 7200, Note_on_c, 7, 67, 80
5, 7439, Note_on_c, 7, 67, 0
5, 7440, Note_on_c, 7, 64, 80
5, 7679, Note_on_c, 7, 64, 0
5, 7680, Note_on_c, 7, 57, 80
5, 7919, Note_on_c, 7, 57, 0
5, 7920, Note_on_c, 7, 60, 80
5, 8159, Note_on_c, 7, 60, 0
5, 8160, Note_on_c, 7, 67, 80
5, 8399, Note_on_c, 7, 67, 0
5, 8400, Note_on_c, 7, 60, 80
5, 8639, Note_on_c, 7, 60, 0
5, 8640, Note_on_c, 7, 65, 80
5, 8879, Note_on_c, 7, 65, 0
5, 8880, Note_on_c, 7, 60, 80
5, 9119, Note_on_c, 7, 60, 0
5, 9120, Note_on_c, 7, 64, 80
5, 9359, Note_on_c, 7, 64, 0
5, 9360, Note_on_c, 7, 60, 80
5, 9599, Note_on_c, 7, 60, 0
5, 9600, Note_on_c, 7, 59, 80
5, 9839, Note_on_c, 7, 59, 0
5, 9840, Note_on_c, 7, 64, 80
5, 10079, Note_on_c, 7, 64, 0
5, 10080, Note_on_c, 7, 67, 80
5, 10319, Note_on_c, 7, 67, 0
5, 10320, Note_on_c, 7, 64, 80
5, 10559, Note_on_c, 7, 64, 0
5, 10560, Note_on_c, 7, 71, 80
5, 10799, Note_on_c, 7, 71, 0
5, 10800, Note_on_c, 7, 64, 80
5, 11039, Note_on_c, 7, 64, 0
5, 11040, Note_on_c, 7, 67, 80
5, 11279, Note_on_c, 7, 67, 0
5, 11280, Note_on_c, 7, 64, 80
5, 11519, Note_on_c, 7, 64, 0
5, 11520, Note_on_c, 7, 60, 80
5, 11759, Note_on_c, 7, 60, 0
5, 11760, Note_on_c, 7, 64, 80
5, 11999, Note_on_c, 7, 64, 0
5, 12000, Note_on_c, 7, 67, 80
5, 12239, Note_on_c, 7, 67, 0
5, 12240, Note_on_c, 7, 64, 80
5, 12479, Note_on_c, 7, 64, 0
5, 12480, Note_on_c, 7, 72, 80
5, 12719, Note_on_c, 7, 72, 0
5, 12720, Note_on_c, 7, 64, 80
5, 12959, Note_on_c, 7, 64, 0
5, 12960, Note_on_c, 7, 67, 80
5, 13199, Note_on_c, 7, 67, 0
5, 13200, Note_on_c, 7, 64, 80
5, 13439, Note_on_c, 7, 64, 0
5, 13440, Note_on_c, 7, 59, 80
5, 13679, Note_on_c, 7, 59, 0
5, 13680, Note_on_c, 7, 64, 80
5, 13919, Note_on_c, 7, 64, 0
5, 13920, Note_on_c, 7, 67, 80
5, 14159, Note_on_c, 7, 67, 0
5, 14160, Note_on_c, 7, 64, 80
5, 14399, Note_on_c, 7, 64, 0
5, 14400, Note_on_c, 7, 71, 80
5, 14639, Note_on_c, 7, 71, 0
5, 14640, Note_on_c, 7, 64, 80
5, 14879, Note_on_c, 7, 64, 0
5, 14880, Note_on_c, 7, 67, 80
5, 15119, Note_on_c, 7, 67, 0
5, 15120, Note_on_c, 7, 64, 80
5, 15359, Note_on_c, 7, 64, 0
5, 15360, Note_on_c, 7, 57, 80
5, 15599, Note_on_c, 7, 57, 0
5, 15600, Note_on_c, 7, 60, 80
5, 15839, Note_on_c, 7, 60, 0
5, 15840, Note_on_c, 7, 64, 80
5, 16079, Note_on_c, 7, 64, 0
5, 16080, Note_on_c, 7, 60, 80
5, 16319, Note_on_c, 7, 60, 0
5, 16320, Note_on_c, 7, 69, 80
5, 16559, Note_on_c, 7, 69, 0
5, 16560, Note_on_c, 7, 60, 80
5, 16799, Note_on_c, 7, 60, 0
5, 16800, Note_on_c, 7, 64, 80
5, 17039, Note_on_c, 7, 64, 0
5, 17040, Note_on_c, 7, 60, 80
5, 17279, Note_on_c, 7, 60, 0
5, 17280, Note_on_c, 7, 59, 80
5, 17519, Note_on_c, 7, 59, 0
5, 17520, Note_on_c, 7, 64, 80
5, 17759, Note_on_c, 7, 64, 0
5, 17760, Note_on_c, 7, 67, 80
5, 17999, Note_on_c, 7, 67, 0
5, 18000, Note_on_c, 7, 64, 80
5, 18239, Note_on_c, 7, 64, 0
5, 18240, Note_on_c, 7, 71, 80
5, 18479, Note_on_c, 7, 71, 0
5, 18480, Note_on_c, 7, 64, 80
5, 18719, Note_on_c, 7, 64, 0
5, 18720, Note_on_c, 7, 67, 80
5, 18959, Note_on_c, 7, 67, 0
5, 18960, Note_on_c, 7, 64, 80
5, 19199, Note_on_c, 7, 64, 0
5, 19200, Note_on_c, 7, 55, 80
5, 19200, Note_on_c, 7, 60, 80
5, 19439, Note_on_c, 7, 55, 0
5, 19439, Note_on_c, 7, 60, 0
5, 19440, Note_on_c, 7, 64, 80
5, 19679, Note_on_c, 7, 64, 0
5, 19680, Note_on_c, 7, 67, 80
5, 19919, Note_on_c, 7, 67, 0
5, 19920, Note_on_c, 7, 64, 80
5, 20159, Note_on_c, 7, 64, 0
5, 20160, Note_on_c, 7, 72, 80
5, 20399, Note_on_c, 7, 72, 0
5, 20400, Note_on_c, 7, 64, 80
5, 20639, Note_on_c, 7, 64, 0
5, 20640, Note_on_c, 7, 67, 80
5, 20879, Note_on_c, 7, 67, 0
5, 20880, Note_on_c, 7, 64, 80
5, 21119, Note_on_c, 7, 64, 0
5, 21120, Note_on_c, 7, 55, 80
5, 21120, Note_on_c, 7, 59, 80
5, 21359, Note_on_c, 7, 55, 0
5, 21359, Note_on_c, 7, 59, 0
5, 21360, Note_on_c, 7, 62, 80
5, 21599, Note_on_c, 7, 62, 0
5, 21600, Note_on_c, 7, 67, 80
5, 21839, Note_on_c, 7, 67, 0
5, 21840, Note_on_c, 7, 62, 80
5, 22079, Note_on_c, 7, 62, 0
5, 22080, Note_on_c, 7, 72, 80
5, 22319, Note_on_c, 7, 72, 0
5, 22320, Note_on_c, 7, 62, 80
5, 22559, Note_on_c, 7, 62, 0
5, 22560, Note_on_c, 7, 67, 80
5, 22799, Note_on_c, 7, 67, 0
5, 22800, Note_on_c, 7, 62, 80
5, 23039, Note_on_c, 7, 62, 0
5, 23040, Note_on_c, 7, 52, 80
5, 23040, Note_on_c, 7, 57, 80
5, 23279, Note_on_c, 7, 52, 0
5, 23279, Note_on_c, 7, 57, 0
5, 23280, Note_on_c, 7, 60, 80
5, 23519, Note_on_c, 7, 60, 0
5, 23520, Note_on_c, 7, 64, 80
5, 23759, Note_on_c, 7, 64, 0
5, 23760, Note_on_c, 7, 60, 80
5, 23999, Note_on_c, 7, 60, 0
5, 24000, Note_on_c, 7, 67, 80
5, 24239, Note_on_c, 7, 67, 0
5, 24240, Note_on_c, 7, 60, 80
5, 24479, Note_on_c, 7, 60, 0
5, 24480, Note_on_c, 7, 64, 80
5, 24719, Note_on_c, 7, 64, 0
5, 24720, Note_on_c, 7, 60, 80
5, 24959, Note_on_c, 7, 60, 0
5, 24960, Note_on_c, 7, 55, 80
5, 24960, Note_on_c, 7, 59, 80
5, 25199, Note_on_c, 7, 55, 0
5, 25199, Note_on_c, 7, 59, 0
5, 25200, Note_on_c, 7, 62, 80
5, 25439, Note_on_c, 7, 62, 0
5, 25440, Note_on_c, 7, 67, 80
5, 25679, Note_on_c, 7, 67, 0
5, 25680, Note_on_c, 7, 62, 80
5, 25919, Note_on_c, 7, 62, 0
5, 25920, Note_on_c, 7, 71, 80
5, 26159, Note_on_c, 7, 71, 0
5, 26160, Note_on_c, 7, 62, 80
5, 26399, Note_on_c, 7, 62, 0
5, 26400, Note_on_c, 7, 67, 80
5, 26639, Note_on_c, 7, 67, 0
5, 26640, Note_on_c, 7, 62, 80
5, 26879, Note_on_c, 7, 62, 0
5, 26880, Note_on_c, 7, 55, 80
5, 26880, Note_on_c, 7, 60, 80
5, 27119, Note_on_c, 7, 55, 0
5, 27119, Note_on_c, 7, 60, 0
5, 27120, Note_on_c, 7, 64, 80
5, 27359, Note_on_c, 7, 64, 0
5, 27360, Note_on_c, 7, 67, 80
5, 27599, Note_on_c, 7, 67, 0
5, 27600, Note_on_c, 7, 64, 80
5, 27839, Note_on_c, 7, 64, 0
5, 27840, Note_on_c, 7, 72, 80
5, 28079, Note_on_c, 7, 72, 0
5, 28080, Note_on_c, 7, 64, 80
5, 28319, Note_on_c, 7, 64, 0
5, 28320, Note_on_c, 7, 67, 80
5, 28559, Note_on_c, 7, 67, 0
5, 28560, Note_on_c, 7, 64, 80
5, 28799, Note_on_c, 7, 64, 0
5, 28800, Note_on_c, 7, 55, 80
5, 28800, Note_on_c, 7, 59, 80
5, 29039, Note_on_c, 7, 55, 0
5, 29039, Note_on_c, 7, 59, 0
5, 29040, Note_on_c, 7, 62, 80
5, 29279, Note_on_c, 7, 62, 0
5, 29280, Note_on_c, 7, 67, 80
5, 29519, Note_on_c, 7, 67, 0
5, 29520, Note_on_c, 7, 62, 80
5, 29759, Note_on_c, 7, 62, 0
5, 29760, Note_on_c, 7, 71, 80
5, 29999, Note_on_c, 7, 71, 0
5, 30000, Note_on_c, 7, 62, 80
5, 30239, Note_on_c, 7, 62, 0
5, 30240, Note_on_c, 7, 67, 80
5, 30479, Note_on_c, 7, 67, 0
5, 30480, Note_on_c, 7, 62, 80
5, 30719, Note_on_c, 7, 62, 0
5, 30720, Note_on_c, 7, 52, 80
5, 30720, Note_on_c, 7, 57, 80
5, 30959, Note_on_c, 7, 52, 0
5, 30959, Note_on_c, 7, 57, 0
5, 30960, Note_on_c, 7, 60, 80
5, 31199, Note_on_c, 7, 60, 0
5, 31200, Note_on_c, 7, 64, 80
5, 31439, Note_on_c, 7, 64, 0
5, 31440, Note_on_c, 7, 60, 80
5, 31679, Note_on_c, 7, 60, 0
5, 31680, Note_on_c, 7, 67, 80
5, 31919, Note_on_c, 7, 67, 0
5, 31920, Note_on_c, 7, 60, 80
5, 32159, Note_on_c, 7, 60, 0
5, 32160, Note_on_c, 7, 64, 80
5, 32399, Note_on_c, 7, 64, 0
5, 32400, Note_on_c, 7, 60, 80
5, 32639, Note_on_c, 7, 60, 0
5, 32640, Note_on_c, 7, 55, 80
5, 32640, Note_on_c, 7, 59, 80
5, 32879, Note_on_c, 7, 55, 0
5, 32879, Note_on_c, 7, 59, 0
5, 32880, Note_on_c, 7, 62, 80
5, 33119, Note_on_c, 7, 62, 0
5, 33120, Note_on_c, 7, 67, 80
5, 33359, Note_on_c, 7, 67, 0
5, 33360, Note_on_c, 7, 62, 80
5, 33599, Note_on_c, 7, 62, 0
5, 33600, Note_on_c, 7, 71, 80
5, 33839, Note_on_c, 7, 71, 0
5, 33840, Note_on_c, 7, 62, 80
5, 34079, Note_on_c, 7, 62, 0
5, 34080, Note_on_c, 7, 67, 80
5, 34319, Note_on_c, 7, 67, 0
5, 34320, Note_on_c, 7, 62, 80
5, 34559, Note_on_c, 7, 62, 0
5, 34560, Note_on_c, 7, 60, 80
5, 34799, Note_on_c, 7, 60, 0
5, 34800, Note_on_c, 7, 64, 80
5, 35039, Note_on_c, 7, 64, 0
5, 35040, Note_on_c, 7, 67, 80
5, 35279, Note_on_c, 7, 67, 0
5, 35280, Note_on_c, 7, 72, 80
5, 35519, Note_on_c, 7, 72, 0
5, 35520, Note_on_c, 7, 60, 80
5, 35759, Note_on_c, 7, 60, 0
5, 35760, Note_on_c, 7, 64, 80
5, 35999, Note_on_c, 7, 64, 0
5, 36000, Note_on_c, 7, 67, 80
5, 36239, Note_on_c, 7, 67, 0
5, 36240, Note_on_c, 7, 72, 80
5, 36479, Note_on_c, 7, 72, 0
5, 36480, Note_on_c, 7, 59, 80
5, 36719, Note_on_c, 7, 59, 0
5, 36720, Note_on_c, 7, 62, 80
5, 36959, Note_on_c, 7, 62, 0
5, 36960, Note_on_c, 7, 67, 80
5, 37199, Note_on_c, 7, 67, 0
5, 37200, Note_on_c, 7, 71, 80
5, 37439, Note_on_c, 7, 71, 0
5, 37440, Note_on_c, 7, 59, 80
5, 37679, Note_on_c, 7, 59, 0
5, 37680, Note_on_c, 7, 62, 80
5, 37919, Note_on_c, 7, 62, 0
5, 37920, Note_on_c, 7, 67, 80
5, 38159, Note_on_c, 7, 67, 0
5, 38160, Note_on_c, 7, 71, 80
5, 38399, Note_on_c, 7, 71, 0
5, 38400, Note_on_c, 7, 57, 80
5, 38639, Note_on_c, 7, 57, 0
5, 38640, Note_on_c, 7, 60, 80
5, 38879, Note_on_c, 7, 60, 0
5, 38880, Note_on_c, 7, 64, 80
5, 39119, Note_on_c, 7, 64, 0
5, 39120, Note_on_c, 7, 67, 80
5, 39359, Note_on_c, 7, 67, 0
5, 39360, Note_on_c, 7, 57, 80
5, 39599, Note_on_c, 7, 57, 0
5, 39600, Note_on_c, 7, 60, 80
5, 39839, Note_on_c, 7, 60, 0
5, 39840, Note_on_c, 7, 64, 80
5, 40079, Note_on_c, 7, 64, 0
5, 40080, Note_on_c, 7, 67, 80
5, 40319, Note_on_c, 7, 67, 0
5, 40320, Note_on_c, 7, 59, 80
5, 40559, Note_on_c, 7, 59, 0
5, 40560, Note_on_c, 7, 62, 80
5, 40799, Note_on_c, 7, 62, 0
5, 40800, Note_on_c, 7, 67, 80
5, 41039, Note_on_c, 7, 67, 0
5, 41040, Note_on_c, 7, 71, 80
5, 41279, Note_on_c, 7, 71, 0
5, 41280, Note_on_c, 7, 59, 80
5, 41519, Note_on_c, 7, 59, 0
5, 41520, Note_on_c, 7, 62, 80
5, 41759, Note_on_c, 7, 62, 0
5, 41760, Note_on_c, 7, 67, 80
5, 41999, Note_on_c, 7, 67, 0
5, 42000, Note_on_c, 7, 71, 80
5, 42239, Note_on_c, 7, 71, 0
5, 42240, Note_on_c, 7, 60, 80
5, 42479, Note_on_c, 7, 60, 0
5, 42480, Note_on_c, 7, 64, 80
5, 42719, Note_on_c, 7, 64, 0
5, 42720, Note_on_c, 7, 67, 80
5, 42959, Note_on_c, 7, 67, 0
5, 42960, Note_on_c, 7, 72, 80
5, 43199, Note_on_c, 7, 72, 0
5, 43200, Note_on_c, 7, 60, 80
5, 43439, Note_on_c, 7, 60, 0
5, 43440, Note_on_c, 7, 64, 80
5, 43679, Note_on_c, 7, 64, 0
5, 43680, Note_on_c, 7, 67, 80
5, 43919, Note_on_c, 7, 67, 0
5, 43920, Note_on_c, 7, 72, 80
5, 44159, Note_on_c, 7, 72, 0
5, 44160, Note_on_c, 7, 59, 80
5, 44399, Note_on_c, 7, 59, 0
5, 44400, Note_on_c, 7, 62, 80
5, 44639, Note_on_c, 7, 62, 0
5, 44640, Note_on_c, 7, 67, 80
5, 44879, Note_on_c, 7, 67, 0
5, 44880, Note_on_c, 7, 71, 80
5, 45119, Note_on_c, 7, 71, 0
5, 45120, Note_on_c, 7, 59, 80
5, 45359, Note_on_c, 7, 59, 0
5, 45360, Note_on_c, 7, 62, 80
5, 45599, Note_on_c, 7, 62, 0
5, 45600, Note_on_c, 7, 67, 80
5, 45839, Note_on_c, 7, 67, 0
5, 45840, Note_on_c, 7, 71, 80
5, 46079, Note_on_c, 7, 71, 0
5, 46080, Note_on_c, 7, 57, 80
5, 46319, Note_on_c, 7, 57, 0
5, 46320, Note_on_c, 7, 60, 80
5, 46559, Note_on_c, 7, 60, 0
5, 46560, Note_on_c, 7, 64, 80
5, 46799, Note_on_c, 7, 64, 0
5, 46800, Note_on_c, 7, 67, 80
5, 47039, Note_on_c, 7, 67, 0
5, 47040, Note_on_c, 7, 57, 80
5, 47279, Note_on_c, 7, 57, 0
5, 47280, Note_on_c, 7, 60, 80
5, 47519, Note_on_c, 7, 60, 0
5, 47520, Note_on_c, 7, 64, 80
5, 47759, Note_on_c, 7, 64, 0
5, 47760, Note_on_c, 7, 67, 80
5, 47999, Note_on_c, 7, 67, 0
5, 48000, Note_on_c, 7, 59, 80
5, 48239, Note_on_c, 7, 59, 0
5, 48240, Note_on_c, 7, 62, 80
5, 48479, Note_on_c, 7, 62, 0
5, 48480, Note_on_c, 7, 67, 80
5, 48719, Note_on_c, 7, 67, 0
5, 48720, Note_on_c, 7, 71, 80
5, 48959, Note_on_c, 7, 71, 0
5, 48960, Note_on_c, 7, 59, 80
5, 49199, Note_on_c, 7, 59, 0
5, 49200, Note_on_c, 7, 62, 80
5, 49439, Note_on_c, 7, 62, 0
5, 49440, Note_on_c, 7, 67, 80
5, 49679, Note_on_c, 7, 67, 0
5, 49680, Note_on_c, 7, 71, 80
5, 49919, Note_on_c, 7, 71, 0
5, 49920, Note_on_c, 7, 53, 80
5, 50159, Note_on_c, 7, 53, 0
5, 50160, Note_on_c, 7, 57, 80
5, 50399, Note_on_c, 7, 57, 0
5, 50400, Note_on_c, 7, 60, 80
5, 50639, Note_on_c, 7, 60, 0
5, 50640, Note_on_c, 7, 57, 80
5, 50879, Note_on_c, 7, 57, 0
5, 50880, Note_on_c, 7, 53, 80
5, 51119, Note_on_c, 7, 53, 0
5, 51120, Note_on_c, 7, 57, 80
5, 51359, Note_on_c, 7, 57, 0
5, 51360, Note_on_c, 7, 60, 80
5, 51599, Note_on_c, 7, 60, 0
5, 51600, Note_on_c, 7, 57, 80
5, 51839, Note_on_c, 7, 57, 0
5, 51840, Note_on_c, 7, 52, 80
5, 52079, Note_on_c, 7, 52, 0
5, 52080, Note_on_c, 7, 55, 80
5, 52319, Note_on_c, 7, 55, 0
5, 52320, Note_on_c, 7, 60, 80
5, 52559, Note_on_c, 7, 60, 0
5, 52560, Note_on_c, 7, 55, 80
5, 52799, Note_on_c, 7, 55, 0
5, 52800, Note_on_c, 7, 52, 80
5, 53039, Note_on_c, 7, 52, 0
5, 53040, Note_on_c, 7, 55, 80
5, 53279, Note_on_c, 7, 55, 0
5, 53280, Note_on_c, 7, 60, 80
5, 53519, Note_on_c, 7, 60, 0
5, 53520, Note_on_c, 7, 55, 80
5, 53759, Note_on_c, 7, 55, 0
5, 53760, Note_on_c, 7, 53, 80
5, 53999, Note_on_c, 7, 53, 0
5, 54000, Note_on_c, 7, 57, 80
5, 54239, Note_on_c, 7, 57, 0
5, 54240, Note_on_c, 7, 60, 80
5, 54479, Note_on_c, 7, 60, 0
5, 54480, Note_on_c, 7, 57, 80
5, 54719, Note_on_c, 7, 57, 0
5, 54720, Note_on_c, 7, 53, 80
5, 54959, Note_on_c, 7, 53, 0
5, 54960, Note_on_c, 7, 57, 80
5, 55199, Note_on_c, 7, 57, 0
5, 55200, Note_on_c, 7, 60, 80
5, 55439, Note_on_c, 7, 60, 0
5, 55440, Note_on_c, 7, 57, 80
5, 55679, Note_on_c, 7, 57, 0
5, 55680, Note_on_c, 7, 52, 80
5, 55919, Note_on_c, 7, 52, 0
5, 55920, Note_on_c, 7, 55, 80
5, 56159, Note_on_c, 7, 55, 0
5, 56160, Note_on_c, 7, 60, 80
5, 56399, Note_on_c, 7, 60, 0
5, 56400, Note_on_c, 7, 55, 80
5, 56639, Note_on_c, 7, 55, 0
5, 56640, Note_on_c, 7, 52, 80
5, 56879, Note_on_c, 7, 52, 0
5, 56880, Note_on_c, 7, 55, 80
5, 57119, Note_on_c, 7, 55, 0
5, 57120, Note_on_c, 7, 60, 80
5, 57359, Note_on_c, 7, 60, 0
5, 57360, Note_on_c, 7, 55, 80
5, 57599, Note_on_c, 7, 55, 0
5, 57600, Note_on_c, 7, 53, 80
5, 57839, Note_on_c, 7, 53, 0
5, 57840, Note_on_c, 7, 57, 80
5, 58079, Note_on_c, 7, 57, 0
5, 58080, Note_on_c, 7, 60, 80
5, 58319, Note_on_c, 7, 60, 0
5, 58320, Note_on_c, 7, 57, 80
5, 58559, Note_on_c, 7, 57, 0
5, 58560, Note_on_c, 7, 53, 80
5, 58799, Note_on_c, 7, 53, 0
5, 58800, Note_on_c, 7, 57, 80
5, 59039, Note_on_c, 7, 57, 0
5, 59040, Note_on_c, 7, 60, 80
5, 59279, Note_on_c, 7, 60, 0
5, 59280, Note_on_c, 7, 57, 80
5, 59519, Note_on_c, 7, 57, 0
5, 59520, Note_on_c, 7, 52, 80
5, 59759, Note_on_c, 7, 52, 0
5, 59760, Note_on_c, 7, 55, 80
5, 59999, Note_on_c, 7, 55, 0
5, 60000, Note_on_c, 7, 60, 80
5, 60239, Note_on_c, 7, 60, 0
5, 60240, Note_on_c, 7, 55, 80
5, 60479, Note_on_c, 7, 55, 0
5, 60480, Note_on_c, 7, 52, 80
5, 60719, Note_on_c, 7, 52, 0
5, 60720, Note_on_c, 7, 55, 80
5, 60959, Note_on_c, 7, 55, 0
5, 60960, Note_on_c, 7, 60, 80
5, 61199, Note_on_c, 7, 60, 0
5, 61200, Note_on_c, 7, 55, 80
5, 61439, Note_on_c, 7, 55, 0
5, 61440, Note_on_c, 7, 53, 80
5, 61679, Note_on_c, 7, 53, 0
5, 61680, Note_on_c, 7, 57, 80
5, 61919, Note_on_c, 7, 57, 0
5, 61920, Note_on_c, 7, 60, 80
5, 62159, Note_on_c, 7, 60, 0
5, 62160, Note_on_c, 7, 57, 80
5, 62399, Note_on_c, 7, 57, 0
5, 62400, Note_on_c, 7, 52, 80
5, 62639, Note_on_c, 7, 52, 0
5, 62640, Note_on_c, 7, 55, 80
5, 62879, Note_on_c, 7, 55, 0
5, 62880, Note_on_c, 7, 60, 80
5, 63119, Note_on_c, 7, 60, 0
5, 63120, Note_on_c, 7, 55, 80
5, 63359, Note_on_c, 7, 55, 0
5, 63360, Note_on_c, 7, 59, 80
5, 63360, Note_on_c, 7, 62, 80
5, 63839, Note_on_c, 7, 59, 0
5, 63839, Note_on_c, 7, 62, 0
5, 80640, Note_on_c, 7, 60, 80
5, 80879, Note_on_c, 7, 60, 0
5, 80880, Note_on_c, 7, 64, 80
5, 81119, Note_on_c, 7, 64, 0
5, 81120, Note_on_c, 7, 67, 80
5, 81359, Note_on_c, 7, 67, 0
5, 81360, Note_on_c, 7, 64, 80
5, 81599, Note_on_c, 7, 64, 0
5, 81600, Note_on_c, 7, 72, 80
5, 81839, Note_on_c, 7, 72, 0
5, 81840, Note_on_c, 7, 64, 80
5, 82079, Note_on_c, 7, 64, 0
5, 82080, Note_on_c, 7, 67, 80
5, 82319, Note_on_c, 7, 67, 0
5, 82320, Note_on_c, 7, 64, 80
5, 82559, Note_on_c, 7, 64, 0
5, 82560, Note_on_c, 7, 59, 80
5, 82799, Note_on_c, 7, 59, 0
5, 82800, Note_on_c, 7, 62, 80
5, 83039, Note_on_c, 7, 62, 0
5, 83040, Note_on_c, 7, 67, 80
5, 83279, Note_on_c, 7, 67, 0
5, 83280, Note_on_c, 7, 62, 80
5, 83519, Note_on_c, 7, 62, 0
5, 83520, Note_on_c, 7, 72, 80
5, 83759, Note_on_c, 7, 72, 0
5, 83760, Note_on_c, 7, 62, 80
5, 83999, Note_on_c, 7, 62, 0
5, 84000, Note_on_c, 7, 67, 80
5, 84239, Note_on_c, 7, 67, 0
5, 84240, Note_on_c, 7, 62, 80
5, 84479, Note_on_c, 7, 62, 0
5, 84480, Note_on_c, 7, 57, 80
5, 84719, Note_on_c, 7, 57, 0
5, 84720, Note_on_c, 7, 60, 80
5, 84959, Note_on_c, 7, 60, 0
5, 84960, Note_on_c, 7, 64, 80
5, 85199, Note_on_c, 7, 64, 0
5, 85200, Note_on_c, 7, 60, 80
5, 85439, Note_on_c, 7, 60, 0
5, 85440, Note_on_c, 7, 67, 80
5, 85679, Note_on_c, 7, 67, 0
5, 85680, Note_on_c, 7, 60, 80
5, 85919, Note_on_c, 7, 60, 0
5, 85920, Note_on_c, 7, 64, 80
5, 86159, Note_on_c, 7, 64, 0
5, 86160, Note_on_c, 7, 60, 80
5, 86399, Note_on_c, 7, 60, 0
5, 86400, Note_on_c, 7, 59, 80
5, 86639, Note_on_c, 7, 59, 0
5, 86640, Note_on_c, 7, 62, 80
5, 86879, Note_on_c, 7, 62, 0
5, 86880, Note_on_c, 7, 67, 80
5, 87119, Note_on_c, 7, 67, 0
5, 87120, Note_on_c, 7, 62, 80
5, 87359, Note_on_c, 7, 62, 0
5, 87360, Note_on_c, 7, 71, 80
5, 87599, Note_on_c, 7, 71, 0
5, 87600, Note_on_c, 7, 62, 80
5, 87839, Note_on_c, 7, 62, 0
5, 87840, Note_on_c, 7, 67, 80
5, 88079, Note_on_c, 7, 67, 0
5, 88080, Note_on_c, 7, 62, 80
5, 88319, Note_on_c, 7, 62, 0
5, 88320, Note_on_c, 7, 60, 80
5, 88559, Note_on_c, 7, 60, 0
5, 88560, Note_on_c, 7, 64, 80
5, 88799, Note_on_c, 7, 64, 0
5, 88800, Note_on_c, 7, 67, 80
5, 89039, Note_on_c, 7, 67, 0
5, 89040, Note_on_c, 7, 64, 80
5, 89279, Note_on_c, 7, 64, 0
5, 89280, Note_on_c, 7, 72, 80
5, 89519, Note_on_c, 7, 72, 0
5, 89520, Note_on_c, 7, 64, 80
5, 89759, Note_on_c, 7, 64, 0
5, 89760, Note_on_c, 7, 67, 80
5, 89999, Note_on_c, 7, 67, 0
5, 90000, Note_on_c, 7, 64, 80
5, 90239, Note_on_c, 7, 64, 0
5, 90240, Note_on_c, 7, 59, 80
5, 90479, Note_on_c, 7, 59, 0
5, 90480, Note_on_c, 7, 62, 80
5, 90719, Note_on_c, 7, 62, 0
5, 90720, Note_on_c, 7, 67, 80
5, 90959, Note_on_c, 7, 67, 0
5, 90960, Note_on_c, 7, 62, 80
5, 91199, Note_on_c, 7, 62, 0
5, 91200, Note_on_c, 7, 71, 80
5, 91439, Note_on_c, 7, 71, 0
5, 91440, Note_on_c, 7, 62, 80
5, 91679, Note_on_c, 7, 62, 0
5, 91680, Note_on_c, 7, 67, 80
5, 91919, Note_on_c, 7, 67, 0
5, 91920, Note_on_c, 7, 62, 80
5, 92159, Note_on_c, 7, 62, 0
5, 92160, Note_on_c, 7, 57, 80
5, 92399, Note_on_c, 7, 57, 0
5, 92400, Note_on_c, 7, 60, 80
5, 92639, Note_on_c, 7, 60, 0
5, 92640, Note_on_c, 7, 64, 80
5, 92879, Note_on_c, 7, 64, 0
5, 92880, Note_on_c, 7, 60, 80
5, 93119, Note_on_c, 7, 60, 0
5, 93120, Note_on_c, 7, 67, 80
5, 93359, Note_on_c, 7, 67, 0
5, 93360, Note_on_c, 7, 60, 80
5, 93599, Note_on_c, 7, 60, 0
5, 93600, Note_on_c, 7, 64, 80
5, 93839, Note_on_c, 7, 64, 0
5, 93840, Note_on_c, 7, 60, 80
5, 94079, Note_on_c, 7, 60, 0
5, 94080, Note_on_c, 7, 59, 80
5, 94319, Note_on_c, 7, 59, 0
5, 94320, Note_on_c, 7, 62, 80
5, 94559, Note_on_c, 7, 62, 0
5, 94560, Note_on_c, 7, 67, 80
5, 94799, Note_on_c, 7, 67, 0
5, 94800, Note_on_c, 7, 62, 80
5, 95039, Note_on_c, 7, 62, 0
5, 95040, Note_on_c, 7, 59, 80
5, 95279, Note_on_c, 7, 59, 0
5, 95280, Note_on_c, 7, 62, 80
5, 95519, Note_on_c, 7, 62, 0
5, 95520, Note_on_c, 7, 55, 80
5, 95759, Note_on_c, 7, 55, 0
5, 95760, Note_on_c, 7, 50, 80
5, 95999, Note_on_c, 7, 50, 0
5, 96000, Note_on_c, 7, 53, 80
5, 96239, Note_on_c, 7, 53, 0
5, 96240, Note_on_c, 7, 57, 80
5, 96479, Note_on_c, 7, 57, 0
5, 96480, Note_on_c, 7, 60, 80
5, 96719, Note_on_c, 7, 60, 0
5, 96720, Note_on_c, 7, 57, 80
5, 96959, Note_on_c, 7, 57, 0
5, 96960, Note_on_c, 7, 53, 80
5, 97199, Note_on_c, 7, 53, 0
5, 97200, Note_on_c, 7, 57, 80
5, 97439, Note_on_c, 7, 57, 0
5, 97440, Note_on_c, 7, 60, 80
5, 97679, Note_on_c, 7, 60, 0
5, 97680, Note_on_c, 7, 57, 80
5, 97919, Note_on_c, 7, 57, 0
5, 97920, Note_on_c, 7, 52, 80
5, 98159, Note_on_c, 7, 52, 0
5, 98160, Note_on_c, 7, 55, 80
5, 98399, Note_on_c, 7, 55, 0
5, 98400, Note_on_c, 7, 60, 80
5, 98639, Note_on_c, 7, 60, 0
5, 98640, Note_on_c, 7, 55, 80
5, 98879, Note_on_c, 7, 55, 0
5, 98880, Note_on_c, 7, 52, 80
5, 99119, Note_on_c, 7, 52, 0
5, 99120, Note_on_c, 7, 55, 80
5, 99359, Note_on_c, 7, 55, 0
5, 99360, Note_on_c, 7, 60, 80
5, 99599, Note_on_c, 7, 60, 0
5, 99600, Note_on_c, 7, 55, 80
5, 99839, Note_on_c, 7, 55, 0
5, 99840, Note_on_c, 7, 53, 80
5, 100079, Note_on_c, 7, 53, 0
5, 100080, Note_on_c, 7, 57, 80
5, 100319, Note_on_c, 7, 57, 0
5, 100320, Note_on_c, 7, 60, 80
5, 100559, Note_on_c, 7, 60, 0
5, 100560, Note_on_c, 7, 57, 80
5, 100799, Note_on_c, 7, 57, 0
5, 100800, Note_on_c, 7, 53, 80
5, 101039, Note_on_c, 7, 53, 0
5, 101040, Note_on_c, 7, 57, 80
5, 101279, Note_on_c, 7, 57, 0
5, 101280, Note_on_c, 7, 60, 80
5, 101519, Note_on_c, 7, 60, 0
5, 101520, Note_on_c, 7, 57, 80
5, 101759, Note_on_c, 7, 57, 0
5, 101760, Note_on_c, 7, 52, 80
5, 101999, Note_on_c, 7, 52, 0
5, 102000, Note_on_c, 7, 55, 80
5, 102239, Note_on_c, 7, 55, 0
5, 102240, Note_on_c, 7, 60, 80
5, 102479, Note_on_c, 7, 60, 0
5, 102480, Note_on_c, 7, 55, 80
5, 102719, Note_on_c, 7, 55, 0
5, 102720, Note_on_c, 7, 52, 80
5, 102959, Note_on_c, 7, 52, 0
5, 102960, Note_on_c, 7, 55, 80
5, 103199, Note_on_c, 7, 55, 0
5, 103200, Note_on_c, 7, 60, 80
5, 103439, Note_on_c, 7, 60, 0
5, 103440, Note_on_c, 7, 55, 80
5, 103679, Note_on_c, 7, 55, 0
5, 103680, Note_on_c, 7, 53, 80
5, 103919, Note_on_c, 7, 53, 0
5, 103920, Note_on_c, 7, 57, 80
5, 104159, Note_on_c, 7, 57, 0
5, 104160, Note_on_c, 7, 60, 80
5, 104399, Note_on_c, 7, 60, 0
5, 104400, Note_on_c, 7, 57, 80
5, 104639, Note_on_c, 7, 57, 0
5, 104640, Note_on_c, 7, 53, 80
5, 104879, Note_on_c, 7, 53, 0
5, 104880, Note_on_c, 7, 57, 80
5, 105119, Note_on_c, 7, 57, 0
5, 105120, Note_on_c, 7, 60, 80
5, 105359, Note_on_c, 7, 60, 0
5, 105360, Note_on_c, 7, 57, 80
5, 105599, Note_on_c, 7, 57, 0
5, 105600, Note_on_c, 7, 52, 80
5, 105839, Note_on_c, 7, 52, 0
5, 105840, Note_on_c, 7, 55, 80
5, 106079, Note_on_c, 7, 55, 0
5, 106080, Note_on_c, 7, 60, 80
5, 106319, Note_on_c, 7, 60, 0
5, 106320, Note_on_c, 7, 55, 80
5, 106559, Note_on_c, 7, 55, 0
5, 106560, Note_on_c, 7, 52, 80
5, 106799, Note_on_c, 7, 52, 0
5, 106800, Note_on_c, 7, 55, 80
5, 107039, Note_on_c, 7, 55, 0
5, 107040, Note_on_c, 7, 60, 80
5, 107279, Note_on_c, 7, 60, 0
5, 107280, Note_on_c, 7, 55, 80
5, 107519, Note_on_c, 7, 55, 0
5, 107520, Note_on_c, 7, 53, 80
5, 107759, Note_on_c, 7, 53, 0
5, 107760, Note_on_c, 7, 57, 80
5, 107999, Note_on_c, 7, 57, 0
5, 108000, Note_on_c, 7, 60, 80
5, 108239, Note_on_c, 7, 60, 0
5, 108240, Note_on_c, 7, 57, 80
5, 108479, Note_on_c, 7, 57, 0
5, 108480, Note_on_c, 7, 52, 80
5, 109439, Note_on_c, 7, 52, 0
5, 109440, Note_on_c, 7, 55, 80
5, 109440, Note_on_c, 7, 59, 80
5, 109919, Note_on_c, 7, 55, 0
5, 109919, Note_on_c, 7, 59, 0
5, 109920, End_track
0, 0, End_of_file
