0, 0, Header, 1, 4, 480
1, 0, Start_track
1, 0, Title_t, "Piano, Piano\000"
1, 0, Time_signature, 4, 2, 24, 8
1, 0, Key_signature, 0, "major"
1, 0, Tempo, 500000
1, 0, Control_c, 0, 121, 0
1, 0, Program_c, 0, 0
1, 0, Control_c, 0, 7, 100
1, 0, Control_c, 0, 10, 64
1, 0, Control_c, 0, 91, 0
1, 0, Control_c, 0, 93, 0
1, 0, MIDI_port, 0
1, 0, Note_on_c, 0, 65, 80
1, 0, Note_on_c, 0, 69, 80
1, 0, Note_on_c, 0, 72, 80
1, 911, Note_on_c, 0, 65, 0
1, 911, Note_on_c, 0, 69, 0
1, 911, Note_on_c, 0, 72, 0
1, 960, Note_on_c, 0, 64, 80
1, 960, Note_on_c, 0, 71, 80
1, 1871, Note_on_c, 0, 64, 0
1, 1871, Note_on_c, 0, 71, 0
1, 1920, Note_on_c, 0, 69, 80
1, 1920, Note_on_c, 0, 72, 80
1, 1920, Note_on_c, 0, 76, 80
1, 3287, Note_on_c, 0, 69, 0
1, 3287, Note_on_c, 0, 72, 0
1, 3287, Note_on_c, 0, 76, 0
1, 3360, Note_on_c, 0, 74, 80
1, 3815, Note_on_c, 0, 74, 0
1, 3840, Note_on_c, 0, 65, 80
1, 3840, Note_on_c, 0, 69, 80
1, 3840, Note_on_c, 0, 72, 80
1, 4751, Note_on_c, 0, 65, 0
1, 4751, Note_on_c, 0, 69, 0
1, 4751, Note_on_c, 0, 72, 0
1, 4800, Note_on_c, 0, 64, 80
1, 4800, Note_on_c, 0, 71, 80
1, 5711, Note_on_c, 0, 64, 0
1, 5711, Note_on_c, 0, 71, 0
1, 5760, Note_on_c, 0, 69, 80
1, 5760, Note_on_c, 0, 72, 80
1, 5760, Note_on_c, 0, 76, 80
1, 7127, Note_on_c, 0, 69, 0
1, 7127, Note_on_c, 0, 72, 0
1, 7127, Note_on_c, 0, 76, 0
1, 7200, Note_on_c, 0, 74, 80
1, 7655, Note_on_c, 0, 74, 0
1, 7680, Note_on_c, 0, 65, 80
1, 7680, Note_on_c, 0, 69, 80
1, 8591, Note_on_c, 0, 65, 0
1, 8591, Note_on_c, 0, 69, 0
1, 8640, Note_on_c, 0, 71, 80
1, 8640, Note_on_c, 0, 74, 80
1, 9323, Note_on_c, 0, 71, 0
1, 9323, Note_on_c, 0, 74, 0
1, 9360, Note_on_c, 0, 76, 80
1, 9587, Note_on_c, 0, 76, 0
1, 9600, Note_on_c, 0, 69, 80
1, 9600, Note_on_c, 0, 76, 80
1, 10967, Note_on_c, 0, 69, 0
1, 10967, Note_on_c, 0, 76, 0
1, 11040, Note_on_c, 0, 74, 80
1, 11495, Note_on_c, 0, 74, 0
1, 11520, Note_on_c, 0, 65, 80
1, 11520, Note_on_c, 0, 69, 80
1, 12431, Note_on_c, 0, 65, 0
1, 12431, Note_on_c, 0, 69, 0
1, 12480, Note_on_c, 0, 71, 80
1, 12480, Note_on_c, 0, 74, 80
1, 13163, Note_on_c, 0, 71, 0
1, 13163, Note_on_c, 0, 74, 0
1, 13200, Note_on_c, 0, 76, 80
1, 13427, Note_on_c, 0, 76, 0
1, 13440, Note_on_c, 0, 69, 80
1, 13440, Note_on_c, 0, 76, 80
1, 14807, Note_on_c, 0, 69, 0
1, 14807, Note_on_c, 0, 76, 0
1, 14880, Note_on_c, 0, 74, 80
1, 15335, Note_on_c, 0, 74, 0
1, 15360, Note_on_c, 0, 74, 80
1, 15815, Note_on_c, 0, 74, 0
1, 15840, Note_on_c, 0, 69, 80
1, 16067, Note_on_c, 0, 69, 0
1, 16080, Note_on_c, 0, 67, 80
1, 16193, Note_on_c, 0, 67, 0
1, 16200, Note_on_c, 0, 69, 80
1, 16313, Note_on_c, 0, 69, 0
1, 17280, Note_on_c, 0, 60, 80
1, 17280, Note_on_c, 0, 64, 80
1, 18191, Note_on_c, 0, 60, 0
1, 18191, Note_on_c, 0, 64, 0
1, 18240, Note_on_c, 0, 62, 80
1, 19151, Note_on_c, 0, 62, 0
1, 19200, Note_on_c, 0, 74, 80
1, 19655, Note_on_c, 0, 74, 0
1, 19680, Note_on_c, 0, 69, 80
1, 19907, Note_on_c, 0, 69, 0
1, 19920, Note_on_c, 0, 67, 80
1, 20033, Note_on_c, 0, 67, 0
1, 20040, Note_on_c, 0, 69, 80
1, 20153, Note_on_c, 0, 69, 0
1, 21120, Note_on_c, 0, 60, 80
1, 21120, Note_on_c, 0, 64, 80
1, 22031, Note_on_c, 0, 60, 0
1, 22031, Note_on_c, 0, 64, 0
1, 22080, Note_on_c, 0, 62, 80
1, 22991, Note_on_c, 0, 62, 0
1, 23040, Note_on_c, 0, 65, 80
1, 23040, Note_on_c, 0, 71, 80
1, 23267, Note_on_c, 0, 65, 0
1, 23267, Note_on_c, 0, 71, 0
1, 23280, Note_on_c, 0, 72, 80
1, 23507, Note_on_c, 0, 72, 0
1, 23520, Note_on_c, 0, 69, 80
1, 23975, Note_on_c, 0, 69, 0
1, 24000, Note_on_c, 0, 59, 80
1, 24000, Note_on_c, 0, 62, 80
1, 24455, Note_on_c, 0, 59, 0
1, 24455, Note_on_c, 0, 62, 0
1, 24960, Note_on_c, 0, 64, 80
1, 24960, Note_on_c, 0, 71, 80
1, 25187, Note_on_c, 0, 64, 0
1, 25187, Note_on_c, 0, 71, 0
1, 25200, Note_on_c, 0, 72, 80
1, 25427, Note_on_c, 0, 72, 0
1, 25440, Note_on_c, 0, 74, 80
1, 25895, Note_on_c, 0, 74, 0
1, 26400, Note_on_c, 0, 62, 80
1, 26855, Note_on_c, 0, 62, 0
1, 26880, Note_on_c, 0, 65, 80
1, 26880, Note_on_c, 0, 69, 80
1, 27107, Note_on_c, 0, 65, 0
1, 27107, Note_on_c, 0, 69, 0
1, 27120, Note_on_c, 0, 69, 80
1, 27347, Note_on_c, 0, 69, 0
1, 27360, Note_on_c, 0, 69, 80
1, 27815, Note_on_c, 0, 69, 0
1, 27840, Note_on_c, 0, 59, 80
1, 27840, Note_on_c, 0, 62, 80
1, 28295, Note_on_c, 0, 59, 0
1, 28295, Note_on_c, 0, 62, 0
1, 28320, Note_on_c, 0, 67, 80
1, 28547, Note_on_c, 0, 67, 0
1, 28560, Note_on_c, 0, 67, 80
1, 28673, Note_on_c, 0, 67, 0
1, 28680, Note_on_c, 0, 69, 80
1, 28793, Note_on_c, 0, 69, 0
1, 29760, Note_on_c, 0, 62, 80
1, 30671, Note_on_c, 0, 62, 0
1, 30720, Note_on_c, 0, 69, 80
1, 30947, Note_on_c, 0, 69, 0
1, 30960, Note_on_c, 0, 69, 80
1, 31187, Note_on_c, 0, 69, 0
1, 31200, Note_on_c, 0, 69, 80
1, 31427, Note_on_c, 0, 69, 0
1, 31440, Note_on_c, 0, 69, 80
1, 31667, Note_on_c, 0, 69, 0
1, 31680, Note_on_c, 0, 69, 80
1, 32135, Note_on_c, 0, 69, 0
1, 32160, Note_on_c, 0, 72, 80
1, 32615, Note_on_c, 0, 72, 0
1, 34320, Note_on_c, 0, 69, 80
1, 34547, Note_on_c, 0, 69, 0
1, 34560, Note_on_c, 0, 69, 80
1, 34787, Note_on_c, 0, 69, 0
1, 34800, Note_on_c, 0, 69, 80
1, 35027, Note_on_c, 0, 69, 0
1, 35040, Note_on_c, 0, 69, 80
1, 35267, Note_on_c, 0, 69, 0
1, 35280, Note_on_c, 0, 69, 80
1, 35507, Note_on_c, 0, 69, 0
1, 35520, Note_on_c, 0, 69, 80
1, 35975, Note_on_c, 0, 69, 0
1, 36000, Note_on_c, 0, 64, 80
1, 36455, Note_on_c, 0, 64, 0
1, 38160, Note_on_c, 0, 69, 80
1, 38387, Note_on_c, 0, 69, 0
1, 38400, Note_on_c, 0, 69, 80
1, 38627, Note_on_c, 0, 69, 0
1, 38640, Note_on_c, 0, 69, 80
1, 38867, Note_on_c, 0, 69, 0
1, 38880, Note_on_c, 0, 69, 80
1, 39107, Note_on_c, 0, 69, 0
1, 39120, Note_on_c, 0, 69, 80
1, 39347, Note_on_c, 0, 69, 0
1, 39360, Note_on_c, 0, 72, 80
1, 40271, Note_on_c, 0, 72, 0
1, 41760, Note_on_c, 0, 69, 80
1, 42215, Note_on_c, 0, 69, 0
1, 42240, Note_on_c, 0, 64, 80
1, 42479, Note_on_c, 0, 64, 0
1, 46080, Note_on_c, 0, 69, 80
1, 46307, Note_on_c, 0, 69, 0
1, 46320, Note_on_c, 0, 69, 80
1, 46547, Note_on_c, 0, 69, 0
1, 46560, Note_on_c, 0, 69, 80
1, 47015, Note_on_c, 0, 69, 0
1, 47040, Note_on_c, 0, 69, 80
1, 47267, Note_on_c, 0, 69, 0
1, 47280, Note_on_c, 0, 69, 80
1, 47507, Note_on_c, 0, 69, 0
1, 47520, Note_on_c, 0, 72, 80
1, 47759, Note_on_c, 0, 72, 0
1, 49920, Note_on_c, 0, 69, 80
1, 50147, Note_on_c, 0, 69, 0
1, 50160, Note_on_c, 0, 69, 80
1, 50387, Note_on_c, 0, 69, 0
1, 50400, Note_on_c, 0, 69, 80
1, 50855, Note_on_c, 0, 69, 0
1, 50880, Note_on_c, 0, 69, 80
1, 51107, Note_on_c, 0, 69, 0
1, 51120, Note_on_c, 0, 69, 80
1, 51347, Note_on_c, 0, 69, 0
1, 51360, Note_on_c, 0, 64, 80
1, 51599, Note_on_c, 0, 64, 0
1, 53760, Note_on_c, 0, 72, 80
1, 53987, Note_on_c, 0, 72, 0
1, 54000, Note_on_c, 0, 69, 80
1, 54227, Note_on_c, 0, 69, 0
1, 54240, Note_on_c, 0, 69, 80
1, 54695, Note_on_c, 0, 69, 0
1, 54720, Note_on_c, 0, 72, 80
1, 55631, Note_on_c, 0, 72, 0
1, 56880, Note_on_c, 0, 69, 80
1, 57107, Note_on_c, 0, 69, 0
1, 57120, Note_on_c, 0, 69, 80
1, 57575, Note_on_c, 0, 69, 0
1, 57600, Note_on_c, 0, 64, 80
1, 58055, Note_on_c, 0, 64, 0
1, 61440, Note_on_c, 0, 81, 80
1, 61667, Note_on_c, 0, 81, 0
1, 61680, Note_on_c, 0, 69, 80
1, 61907, Note_on_c, 0, 69, 0
1, 61920, Note_on_c, 0, 74, 80
1, 62147, Note_on_c, 0, 74, 0
1, 62160, Note_on_c, 0, 76, 80
1, 62387, Note_on_c, 0, 76, 0
1, 62400, Note_on_c, 0, 81, 80
1, 62627, Note_on_c, 0, 81, 0
1, 62640, Note_on_c, 0, 69, 80
1, 62867, Note_on_c, 0, 69, 0
1, 62880, Note_on_c, 0, 74, 80
1, 63107, Note_on_c, 0, 74, 0
1, 63120, Note_on_c, 0, 76, 80
1, 63347, Note_on_c, 0, 76, 0
1, 63360, Note_on_c, 0, 81, 80
1, 63587, Note_on_c, 0, 81, 0
1, 63600, Note_on_c, 0, 69, 80
1, 63827, Note_on_c, 0, 69, 0
1, 63840, Note_on_c, 0, 74, 80
1, 64067, Note_on_c, 0, 74, 0
1, 64080, Note_on_c, 0, 76, 80
1, 64307, Note_on_c, 0, 76, 0
1, 64320, Note_on_c, 0, 81, 80
1, 64547, Note_on_c, 0, 81, 0
1, 64560, Note_on_c, 0, 69, 80
1, 64787, Note_on_c, 0, 69, 0
1, 64800, Note_on_c, 0, 74, 80
1, 65027, Note_on_c, 0, 74, 0
1, 65040, Note_on_c, 0, 76, 80
1, 65267, Note_on_c, 0, 76, 0
1, 65280, Note_on_c, 0, 81, 80
1, 65507, Note_on_c, 0, 81, 0
1, 65520, Note_on_c, 0, 69, 80
1, 65747, Note_on_c, 0, 69, 0
1, 65760, Note_on_c, 0, 74, 80
1, 65987, Note_on_c, 0, 74, 0
1, 66000, Note_on_c, 0, 76, 80
1, 66227, Note_on_c, 0, 76, 0
1, 66240, Note_on_c, 0, 81, 80
1, 66467, Note_on_c, 0, 81, 0
1, 66480, Note_on_c, 0, 69, 80
1, 66707, Note_on_c, 0, 69, 0
1, 66720, Note_on_c, 0, 74, 80
1, 66947, Note_on_c, 0, 74, 0
1, 66960, Note_on_c, 0, 76, 80
1, 67187, Note_on_c, 0, 76, 0
1, 67200, Note_on_c, 0, 81, 80
1, 67427, Note_on_c, 0, 81, 0
1, 67440, Note_on_c, 0, 69, 80
1, 67667, Note_on_c, 0, 69, 0
1, 67680, Note_on_c, 0, 74, 80
1, 67907, Note_on_c, 0, 74, 0
1, 67920, Note_on_c, 0, 76, 80
1, 68147, Note_on_c, 0, 76, 0
1, 68160, Note_on_c, 0, 81, 80
1, 68387, Note_on_c, 0, 81, 0
1, 68400, Note_on_c, 0, 69, 80
1, 68627, Note_on_c, 0, 69, 0
1, 68640, Note_on_c, 0, 74, 80
1, 68867, Note_on_c, 0, 74, 0
1, 68880, Note_on_c, 0, 76, 80
1, 69107, Note_on_c, 0, 76, 0
1, 69120, Note_on_c, 0, 81, 80
1, 69347, Note_on_c, 0, 81, 0
1, 69360, Note_on_c, 0, 69, 80
1, 69587, Note_on_c, 0, 69, 0
1, 69600, Note_on_c, 0, 74, 80
1, 69827, Note_on_c, 0, 74, 0
1, 69840, Note_on_c, 0, 76, 80
1, 70067, Note_on_c, 0, 76, 0
1, 70080, Note_on_c, 0, 81, 80
1, 70307, Note_on_c, 0, 81, 0
1, 70320, Note_on_c, 0, 69, 80
1, 70547, Note_on_c, 0, 69, 0
1, 70560, Note_on_c, 0, 74, 80
1, 70787, Note_on_c, 0, 74, 0
1, 70800, Note_on_c, 0, 76, 80
1, 71027, Note_on_c, 0, 76, 0
1, 71040, Note_on_c, 0, 81, 80
1, 71267, Note_on_c, 0, 81, 0
1, 71280, Note_on_c, 0, 69, 80
1, 71507, Note_on_c, 0, 69, 0
1, 71520, Note_on_c, 0, 74, 80
1, 71747, Note_on_c, 0, 74, 0
1, 71760, Note_on_c, 0, 76, 80
1, 71987, Note_on_c, 0, 76, 0
1, 72000, Note_on_c, 0, 81, 80
1, 72227, Note_on_c, 0, 81, 0
1, 72240, Note_on_c, 0, 69, 80
1, 72467, Note_on_c, 0, 69, 0
1, 72480, Note_on_c, 0, 74, 80
1, 72707, Note_on_c, 0, 74, 0
1, 72720, Note_on_c, 0, 76, 80
1, 72947, Note_on_c, 0, 76, 0
1, 72960, Note_on_c, 0, 81, 80
1, 73187, Note_on_c, 0, 81, 0
1, 73200, Note_on_c, 0, 69, 80
1, 73427, Note_on_c, 0, 69, 0
1, 73440, Note_on_c, 0, 74, 80
1, 73667, Note_on_c, 0, 74, 0
1, 73680, Note_on_c, 0, 76, 80
1, 73907, Note_on_c, 0, 76, 0
1, 73920, Note_on_c, 0, 81, 80
1, 74147, Note_on_c, 0, 81, 0
1, 74160, Note_on_c, 0, 69, 80
1, 74387, Note_on_c, 0, 69, 0
1, 74400, Note_on_c, 0, 74, 80
1, 74627, Note_on_c, 0, 74, 0
1, 74640, Note_on_c, 0, 76, 80
1, 74867, Note_on_c, 0, 76, 0
1, 74880, Note_on_c, 0, 81, 80
1, 75107, Note_on_c, 0, 81, 0
1, 75120, Note_on_c, 0, 69, 80
1, 75347, Note_on_c, 0, 69, 0
1, 75360, Note_on_c, 0, 74, 80
1, 75587, Note_on_c, 0, 74, 0
1, 75600, Note_on_c, 0, 76, 80
1, 75827, Note_on_c, 0, 76, 0
1, 75840, Note_on_c, 0, 81, 80
1, 76295, Note_on_c, 0, 81, 0
1, 76320, Note_on_c, 0, 69, 80
1, 76775, Note_on_c, 0, 69, 0
1, 76800, Note_on_c, 0, 74, 80
1, 77039, Note_on_c, 0, 74, 0
1, 77280, Note_on_c, 0, 69, 80
1, 77507, Note_on_c, 0, 69, 0
1, 77520, Note_on_c, 0, 67, 80
1, 77633, Note_on_c, 0, 67, 0
1, 77640, Note_on_c, 0, 69, 80
1, 77753, Note_on_c, 0, 69, 0
1, 80160, Note_on_c, 0, 74, 80
1, 80615, Note_on_c, 0, 74, 0
1, 80640, Note_on_c, 0, 74, 80
1, 80879, Note_on_c, 0, 74, 0
1, 81120, Note_on_c, 0, 69, 80
1, 81347, Note_on_c, 0, 69, 0
1, 81360, Note_on_c, 0, 67, 80
1, 81473, Note_on_c, 0, 67, 0
1, 81480, Note_on_c, 0, 69, 80
1, 81821, Note_on_c, 0, 69, 0
1, 81840, Note_on_c, 0, 69, 80
1, 82067, Note_on_c, 0, 69, 0
1, 82080, Note_on_c, 0, 69, 80
1, 82535, Note_on_c, 0, 69, 0
1, 84480, Note_on_c, 0, 71, 80
1, 84707, Note_on_c, 0, 71, 0
1, 84720, Note_on_c, 0, 72, 80
1, 84947, Note_on_c, 0, 72, 0
1, 84960, Note_on_c, 0, 69, 80
1, 85199, Note_on_c, 0, 69, 0
1, 86400, Note_on_c, 0, 71, 80
1, 86627, Note_on_c, 0, 71, 0
1, 86640, Note_on_c, 0, 72, 80
1, 86867, Note_on_c, 0, 72, 0
1, 86880, Note_on_c, 0, 74, 80
1, 87119, Note_on_c, 0, 74, 0
1, 88320, Note_on_c, 0, 69, 80
1, 88547, Note_on_c, 0, 69, 0
1, 88560, Note_on_c, 0, 69, 80
1, 88787, Note_on_c, 0, 69, 0
1, 88800, Note_on_c, 0, 69, 80
1, 89039, Note_on_c, 0, 69, 0
1, 89760, Note_on_c, 0, 69, 80
1, 89987, Note_on_c, 0, 69, 0
1, 90000, Note_on_c, 0, 67, 80
1, 90113, Note_on_c, 0, 67, 0
1, 90120, Note_on_c, 0, 69, 80
1, 90233, Note_on_c, 0, 69, 0
1, 92160, Note_on_c, 0, 81, 80
1, 93071, Note_on_c, 0, 81, 0
1, 93120, Note_on_c, 0, 79, 80
1, 93575, Note_on_c, 0, 79, 0
1, 93600, Note_on_c, 0, 76, 80
1, 93827, Note_on_c, 0, 76, 0
1, 93840, Note_on_c, 0, 76, 80
1, 94067, Note_on_c, 0, 76, 0
1, 96000, Note_on_c, 0, 81, 80
1, 96911, Note_on_c, 0, 81, 0
1, 96960, Note_on_c, 0, 83, 80
1, 97415, Note_on_c, 0, 83, 0
1, 97440, Note_on_c, 0, 84, 80
1, 97667, Note_on_c, 0, 84, 0
1, 97680, Note_on_c, 0, 83, 80
1, 97907, Note_on_c, 0, 83, 0
1, 98160, Note_on_c, 0, 84, 80
1, 98387, Note_on_c, 0, 84, 0
1, 99840, Note_on_c, 0, 81, 80
1, 100751, Note_on_c, 0, 81, 0
1, 100800, Note_on_c, 0, 79, 80
1, 101255, Note_on_c, 0, 79, 0
1, 101280, Note_on_c, 0, 76, 80
1, 101507, Note_on_c, 0, 76, 0
1, 101520, Note_on_c, 0, 76, 80
1, 101747, Note_on_c, 0, 76, 0
1, 103680, Note_on_c, 0, 81, 80
1, 104591, Note_on_c, 0, 81, 0
1, 104640, Note_on_c, 0, 83, 80
1, 105095, Note_on_c, 0, 83, 0
1, 105360, Note_on_c, 0, 83, 80
1, 105587, Note_on_c, 0, 83, 0
1, 105600, Note_on_c, 0, 84, 80
1, 106055, Note_on_c, 0, 84, 0
1, 115200, Note_on_c, 0, 65, 80
1, 115200, Note_on_c, 0, 69, 80
1, 115200, Note_on_c, 0, 72, 80
1, 115655, Note_on_c, 0, 65, 0
1, 115655, Note_on_c, 0, 69, 0
1, 115655, Note_on_c, 0, 72, 0
1, 115680, Note_on_c, 0, 65, 80
1, 115680, Note_on_c, 0, 69, 80
1, 115680, Note_on_c, 0, 72, 80
1, 116135, Note_on_c, 0, 65, 0
1, 116135, Note_on_c, 0, 69, 0
1, 116135, Note_on_c, 0, 72, 0
1, 116160, Note_on_c, 0, 64, 80
1, 116160, Note_on_c, 0, 71, 80
1, 116501, Note_on_c, 0, 64, 0
1, 116501, Note_on_c, 0, 71, 0
1, 116520, Note_on_c, 0, 64, 80
1, 116520, Note_on_c, 0, 71, 80
1, 116861, Note_on_c, 0, 64, 0
1, 116861, Note_on_c, 0, 71, 0
1, 116880, Note_on_c, 0, 64, 80
1, 116880, Note_on_c, 0, 71, 80
1, 117107, Note_on_c, 0, 64, 0
1, 117107, Note_on_c, 0, 71, 0
1, 117360, Note_on_c, 0, 69, 80
1, 117360, Note_on_c, 0, 72, 80
1, 117360, Note_on_c, 0, 76, 80
1, 117701, Note_on_c, 0, 69, 0
1, 117701, Note_on_c, 0, 72, 0
1, 117701, Note_on_c, 0, 76, 0
1, 117720, Note_on_c, 0, 69, 80
1, 117720, Note_on_c, 0, 72, 80
1, 117720, Note_on_c, 0, 76, 80
1, 118061, Note_on_c, 0, 69, 0
1, 118061, Note_on_c, 0, 72, 0
1, 118061, Note_on_c, 0, 76, 0
1, 118080, Note_on_c, 0, 69, 80
1, 118080, Note_on_c, 0, 72, 80
1, 118080, Note_on_c, 0, 76, 80
1, 118421, Note_on_c, 0, 69, 0
1, 118421, Note_on_c, 0, 72, 0
1, 118421, Note_on_c, 0, 76, 0
1, 118440, Note_on_c, 0, 69, 80
1, 118440, Note_on_c, 0, 72, 80
1, 118440, Note_on_c, 0, 74, 80
1, 118781, Note_on_c, 0, 69, 0
1, 118781, Note_on_c, 0, 72, 0
1, 118781, Note_on_c, 0, 74, 0
1, 118800, Note_on_c, 0, 69, 80
1, 118800, Note_on_c, 0, 72, 80
1, 118800, Note_on_c, 0, 74, 80
1, 119027, Note_on_c, 0, 69, 0
1, 119027, Note_on_c, 0, 72, 0
1, 119027, Note_on_c, 0, 74, 0
1, 119040, Note_on_c, 0, 65, 80
1, 119040, Note_on_c, 0, 69, 80
1, 119040, Note_on_c, 0, 72, 80
1, 119495, Note_on_c, 0, 65, 0
1, 119495, Note_on_c, 0, 69, 0
1, 119495, Note_on_c, 0, 72, 0
1, 119520, Note_on_c, 0, 65, 80
1, 119520, Note_on_c, 0, 69, 80
1, 119520, Note_on_c, 0, 72, 80
1, 119975, Note_on_c, 0, 65, 0
1, 119975, Note_on_c, 0, 69, 0
1, 119975, Note_on_c, 0, 72, 0
1, 120000, Note_on_c, 0, 64, 80
1, 120000, Note_on_c, 0, 71, 80
1, 120341, Note_on_c, 0, 64, 0
1, 120341, Note_on_c, 0, 71, 0
1, 120360, Note_on_c, 0, 64, 80
1, 120360, Note_on_c, 0, 71, 80
1, 120701, Note_on_c, 0, 64, 0
1, 120701, Note_on_c, 0, 71, 0
1, 120720, Note_on_c, 0, 64, 80
1, 120720, Note_on_c, 0, 71, 80
1, 120947, Note_on_c, 0, 64, 0
1, 120947, Note_on_c, 0, 71, 0
1, 121200, Note_on_c, 0, 69, 80
1, 121200, Note_on_c, 0, 72, 80
1, 121200, Note_on_c, 0, 76, 80
1, 121541, Note_on_c, 0, 69, 0
1, 121541, Note_on_c, 0, 72, 0
1, 121541, Note_on_c, 0, 76, 0
1, 121560, Note_on_c, 0, 69, 80
1, 121560, Note_on_c, 0, 72, 80
1, 121560, Note_on_c, 0, 76, 80
1, 121901, Note_on_c, 0, 69, 0
1, 121901, Note_on_c, 0, 72, 0
1, 121901, Note_on_c, 0, 76, 0
1, 121920, Note_on_c, 0, 69, 80
1, 121920, Note_on_c, 0, 72, 80
1, 121920, Note_on_c, 0, 76, 80
1, 122261, Note_on_c, 0, 69, 0
1, 122261, Note_on_c, 0, 72, 0
1, 122261, Note_on_c, 0, 76, 0
1, 122280, Note_on_c, 0, 69, 80
1, 122280, Note_on_c, 0, 72, 80
1, 122280, Note_on_c, 0, 74, 80
1, 122621, Note_on_c, 0, 69, 0
1, 122621, Note_on_c, 0, 72, 0
1, 122621, Note_on_c, 0, 74, 0
1, 122640, Note_on_c, 0, 69, 80
1, 122640, Note_on_c, 0, 72, 80
1, 122640, Note_on_c, 0, 74, 80
1, 122867, Note_on_c, 0, 69, 0
1, 122867, Note_on_c, 0, 72, 0
1, 122867, Note_on_c, 0, 74, 0
1, 122880, Note_on_c, 0, 65, 80
1, 122880, Note_on_c, 0, 69, 80
1, 123335, Note_on_c, 0, 65, 0
1, 123335, Note_on_c, 0, 69, 0
1, 123360, Note_on_c, 0, 65, 80
1, 123360, Note_on_c, 0, 69, 80
1, 123815, Note_on_c, 0, 65, 0
1, 123815, Note_on_c, 0, 69, 0
1, 123840, Note_on_c, 0, 67, 80
1, 123840, Note_on_c, 0, 71, 80
1, 123840, Note_on_c, 0, 74, 80
1, 124181, Note_on_c, 0, 67, 0
1, 124181, Note_on_c, 0, 71, 0
1, 124181, Note_on_c, 0, 74, 0
1, 124200, Note_on_c, 0, 67, 80
1, 124200, Note_on_c, 0, 71, 80
1, 124200, Note_on_c, 0, 74, 80
1, 124541, Note_on_c, 0, 67, 0
1, 124541, Note_on_c, 0, 71, 0
1, 124541, Note_on_c, 0, 74, 0
1, 124560, Note_on_c, 0, 67, 80
1, 124560, Note_on_c, 0, 71, 80
1, 124560, Note_on_c, 0, 74, 80
1, 124787, Note_on_c, 0, 67, 0
1, 124787, Note_on_c, 0, 71, 0
1, 124787, Note_on_c, 0, 74, 0
1, 125040, Note_on_c, 0, 69, 80
1, 125040, Note_on_c, 0, 72, 80
1, 125040, Note_on_c, 0, 76, 80
1, 125381, Note_on_c, 0, 69, 0
1, 125381, Note_on_c, 0, 72, 0
1, 125381, Note_on_c, 0, 76, 0
1, 125400, Note_on_c, 0, 69, 80
1, 125400, Note_on_c, 0, 72, 80
1, 125400, Note_on_c, 0, 76, 80
1, 125741, Note_on_c, 0, 69, 0
1, 125741, Note_on_c, 0, 72, 0
1, 125741, Note_on_c, 0, 76, 0
1, 125760, Note_on_c, 0, 69, 80
1, 125760, Note_on_c, 0, 72, 80
1, 125760, Note_on_c, 0, 76, 80
1, 126101, Note_on_c, 0, 69, 0
1, 126101, Note_on_c, 0, 72, 0
1, 126101, Note_on_c, 0, 76, 0
1, 126120, Note_on_c, 0, 69, 80
1, 126120, Note_on_c, 0, 72, 80
1, 126120, Note_on_c, 0, 74, 80
1, 126461, Note_on_c, 0, 69, 0
1, 126461, Note_on_c, 0, 72, 0
1, 126461, Note_on_c, 0, 74, 0
1, 126480, Note_on_c, 0, 69, 80
1, 126480, Note_on_c, 0, 72, 80
1, 126480, Note_on_c, 0, 74, 80
1, 126707, Note_on_c, 0, 69, 0
1, 126707, Note_on_c, 0, 72, 0
1, 126707, Note_on_c, 0, 74, 0
1, 126720, Note_on_c, 0, 65, 80
1, 126720, Note_on_c, 0, 69, 80
1, 127175, Note_on_c, 0, 65, 0
1, 127175, Note_on_c, 0, 69, 0
1, 127200, Note_on_c, 0, 65, 80
1, 127200, Note_on_c, 0, 69, 80
1, 127655, Note_on_c, 0, 65, 0
1, 127655, Note_on_c, 0, 69, 0
1, 127680, Note_on_c, 0, 67, 80
1, 127680, Note_on_c, 0, 71, 80
1, 127680, Note_on_c, 0, 74, 80
1, 128021, Note_on_c, 0, 67, 0
1, 128021, Note_on_c, 0, 71, 0
1, 128021, Note_on_c, 0, 74, 0
1, 128040, Note_on_c, 0, 67, 80
1, 128040, Note_on_c, 0, 71, 80
1, 128040, Note_on_c, 0, 74, 80
1, 128381, Note_on_c, 0, 67, 0
1, 128381, Note_on_c, 0, 71, 0
1, 128381, Note_on_c, 0, 74, 0
1, 128400, Note_on_c, 0, 67, 80
1, 128400, Note_on_c, 0, 71, 80
1, 128400, Note_on_c, 0, 74, 80
1, 128627, Note_on_c, 0, 67, 0
1, 128627, Note_on_c, 0, 71, 0
1, 128627, Note_on_c, 0, 74, 0
1, 128880, Note_on_c, 0, 69, 80
1, 128880, Note_on_c, 0, 72, 80
1, 128880, Note_on_c, 0, 76, 80
1, 129221, Note_on_c, 0, 69, 0
1, 129221, Note_on_c, 0, 72, 0
1, 129221, Note_on_c, 0, 76, 0
1, 129240, Note_on_c, 0, 69, 80
1, 129240, Note_on_c, 0, 72, 80
1, 129240, Note_on_c, 0, 76, 80
1, 129581, Note_on_c, 0, 69, 0
1, 129581, Note_on_c, 0, 72, 0
1, 129581, Note_on_c, 0, 76, 0
1, 129600, Note_on_c, 0, 69, 80
1, 129600, Note_on_c, 0, 72, 80
1, 129600, Note_on_c, 0, 76, 80
1, 129941, Note_on_c, 0, 69, 0
1, 129941, Note_on_c, 0, 72, 0
1, 129941, Note_on_c, 0, 76, 0
1, 129960, Note_on_c, 0, 69, 80
1, 129960, Note_on_c, 0, 72, 80
1, 129960, Note_on_c, 0, 74, 80
1, 130301, Note_on_c, 0, 69, 0
1, 130301, Note_on_c, 0, 72, 0
1, 130301, Note_on_c, 0, 74, 0
1, 130320, Note_on_c, 0, 69, 80
1, 130320, Note_on_c, 0, 72, 80
1, 130320, Note_on_c, 0, 74, 80
1, 130547, Note_on_c, 0, 69, 0
1, 130547, Note_on_c, 0, 72, 0
1, 130547, Note_on_c, 0, 74, 0
1, 131040, Note_on_c, 0, 74, 80
1, 131495, Note_on_c, 0, 74, 0
1, 131520, Note_on_c, 0, 74, 80
1, 131975, Note_on_c, 0, 74, 0
1, 132000, Note_on_c, 0, 69, 80
1, 132113, Note_on_c, 0, 69, 0
1, 132120, Note_on_c, 0, 67, 80
1, 132299, Note_on_c, 0, 67, 0
1, 132480, Note_on_c, 0, 65, 80
1, 132480, Note_on_c, 0, 69, 80
1, 132480, Note_on_c, 0, 72, 80
1, 132935, Note_on_c, 0, 65, 0
1, 132935, Note_on_c, 0, 69, 0
1, 132935, Note_on_c, 0, 72, 0
1, 132960, Note_on_c, 0, 65, 80
1, 132960, Note_on_c, 0, 69, 80
1, 132960, Note_on_c, 0, 72, 80
1, 133415, Note_on_c, 0, 65, 0
1, 133415, Note_on_c, 0, 69, 0
1, 133415, Note_on_c, 0, 72, 0
1, 133440, Note_on_c, 0, 64, 80
1, 133440, Note_on_c, 0, 71, 80
1, 133781, Note_on_c, 0, 64, 0
1, 133781, Note_on_c, 0, 71, 0
1, 133800, Note_on_c, 0, 64, 80
1, 133800, Note_on_c, 0, 71, 80
1, 134141, Note_on_c, 0, 64, 0
1, 134141, Note_on_c, 0, 71, 0
1, 134160, Note_on_c, 0, 64, 80
1, 134160, Note_on_c, 0, 71, 80
1, 134387, Note_on_c, 0, 64, 0
1, 134387, Note_on_c, 0, 71, 0
1, 134640, Note_on_c, 0, 69, 80
1, 134640, Note_on_c, 0, 72, 80
1, 134640, Note_on_c, 0, 76, 80
1, 134981, Note_on_c, 0, 69, 0
1, 134981, Note_on_c, 0, 72, 0
1, 134981, Note_on_c, 0, 76, 0
1, 135000, Note_on_c, 0, 69, 80
1, 135000, Note_on_c, 0, 72, 80
1, 135000, Note_on_c, 0, 76, 80
1, 135341, Note_on_c, 0, 69, 0
1, 135341, Note_on_c, 0, 72, 0
1, 135341, Note_on_c, 0, 76, 0
1, 135360, Note_on_c, 0, 69, 80
1, 135360, Note_on_c, 0, 72, 80
1, 135360, Note_on_c, 0, 76, 80
1, 135701, Note_on_c, 0, 69, 0
1, 135701, Note_on_c, 0, 72, 0
1, 135701, Note_on_c, 0, 76, 0
1, 135720, Note_on_c, 0, 69, 80
1, 135720, Note_on_c, 0, 72, 80
1, 135720, Note_on_c, 0, 74, 80
1, 136061, Note_on_c, 0, 69, 0
1, 136061, Note_on_c, 0, 72, 0
1, 136061, Note_on_c, 0, 74, 0
1, 136080, Note_on_c, 0, 69, 80
1, 136080, Note_on_c, 0, 72, 80
1, 136080, Note_on_c, 0, 74, 80
1, 136307, Note_on_c, 0, 69, 0
1, 136307, Note_on_c, 0, 72, 0
1, 136307, Note_on_c, 0, 74, 0
1, 136320, Note_on_c, 0, 65, 80
1, 136320, Note_on_c, 0, 69, 80
1, 136320, Note_on_c, 0, 72, 80
1, 136775, Note_on_c, 0, 65, 0
1, 136775, Note_on_c, 0, 69, 0
1, 136775, Note_on_c, 0, 72, 0
1, 136800, Note_on_c, 0, 65, 80
1, 136800, Note_on_c, 0, 69, 80
1, 136800, Note_on_c, 0, 72, 80
1, 137255, Note_on_c, 0, 65, 0
1, 137255, Note_on_c, 0, 69, 0
1, 137255, Note_on_c, 0, 72, 0
1, 137280, Note_on_c, 0, 64, 80
1, 137280, Note_on_c, 0, 71, 80
1, 137621, Note_on_c, 0, 64, 0
1, 137621, Note_on_c, 0, 71, 0
1, 137640, Note_on_c, 0, 64, 80
1, 137640, Note_on_c, 0, 71, 80
1, 137981, Note_on_c, 0, 64, 0
1, 137981, Note_on_c, 0, 71, 0
1, 138000, Note_on_c, 0, 64, 80
1, 138000, Note_on_c, 0, 71, 80
1, 138227, Note_on_c, 0, 64, 0
1, 138227, Note_on_c, 0, 71, 0
1, 138480, Note_on_c, 0, 69, 80
1, 138480, Note_on_c, 0, 72, 80
1, 138480, Note_on_c, 0, 76, 80
1, 138821, Note_on_c, 0, 69, 0
1, 138821, Note_on_c, 0, 72, 0
1, 138821, Note_on_c, 0, 76, 0
1, 138840, Note_on_c, 0, 69, 80
1, 138840, Note_on_c, 0, 72, 80
1, 138840, Note_on_c, 0, 76, 80
1, 139181, Note_on_c, 0, 69, 0
1, 139181, Note_on_c, 0, 72, 0
1, 139181, Note_on_c, 0, 76, 0
1, 139200, Note_on_c, 0, 69, 80
1, 139200, Note_on_c, 0, 72, 80
1, 139200, Note_on_c, 0, 76, 80
1, 139541, Note_on_c, 0, 69, 0
1, 139541, Note_on_c, 0, 72, 0
1, 139541, Note_on_c, 0, 76, 0
1, 139560, Note_on_c, 0, 69, 80
1, 139560, Note_on_c, 0, 72, 80
1, 139560, Note_on_c, 0, 74, 80
1, 139901, Note_on_c, 0, 69, 0
1, 139901, Note_on_c, 0, 72, 0
1, 139901, Note_on_c, 0, 74, 0
1, 139920, Note_on_c, 0, 69, 80
1, 139920, Note_on_c, 0, 72, 80
1, 139920, Note_on_c, 0, 74, 80
1, 140147, Note_on_c, 0, 69, 0
1, 140147, Note_on_c, 0, 72, 0
1, 140147, Note_on_c, 0, 74, 0
1, 140160, Note_on_c, 0, 65, 80
1, 140160, Note_on_c, 0, 69, 80
1, 140615, Note_on_c, 0, 65, 0
1, 140615, Note_on_c, 0, 69, 0
1, 140640, Note_on_c, 0, 65, 80
1, 140640, Note_on_c, 0, 69, 80
1, 141095, Note_on_c, 0, 65, 0
1, 141095, Note_on_c, 0, 69, 0
1, 141120, Note_on_c, 0, 67, 80
1, 141120, Note_on_c, 0, 71, 80
1, 141120, Note_on_c, 0, 74, 80
1, 141461, Note_on_c, 0, 67, 0
1, 141461, Note_on_c, 0, 71, 0
1, 141461, Note_on_c, 0, 74, 0
1, 141480, Note_on_c, 0, 67, 80
1, 141480, Note_on_c, 0, 71, 80
1, 141480, Note_on_c, 0, 74, 80
1, 141821, Note_on_c, 0, 67, 0
1, 141821, Note_on_c, 0, 71, 0
1, 141821, Note_on_c, 0, 74, 0
1, 141840, Note_on_c, 0, 67, 80
1, 141840, Note_on_c, 0, 71, 80
1, 141840, Note_on_c, 0, 74, 80
1, 142067, Note_on_c, 0, 67, 0
1, 142067, Note_on_c, 0, 71, 0
1, 142067, Note_on_c, 0, 74, 0
1, 142320, Note_on_c, 0, 69, 80
1, 142320, Note_on_c, 0, 72, 80
1, 142320, Note_on_c, 0, 76, 80
1, 142661, Note_on_c, 0, 69, 0
1, 142661, Note_on_c, 0, 72, 0
1, 142661, Note_on_c, 0, 76, 0
1, 142680, Note_on_c, 0, 69, 80
1, 142680, Note_on_c, 0, 72, 80
1, 142680, Note_on_c, 0, 76, 80
1, 143021, Note_on_c, 0, 69, 0
1, 143021, Note_on_c, 0, 72, 0
1, 143021, Note_on_c, 0, 76, 0
1, 143040, Note_on_c, 0, 69, 80
1, 143040, Note_on_c, 0, 72, 80
1, 143040, Note_on_c, 0, 76, 80
1, 143381, Note_on_c, 0, 69, 0
1, 143381, Note_on_c, 0, 72, 0
1, 143381, Note_on_c, 0, 76, 0
1, 143400, Note_on_c, 0, 69, 80
1, 143400, Note_on_c, 0, 72, 80
1, 143400, Note_on_c, 0, 74, 80
1, 143741, Note_on_c, 0, 69, 0
1, 143741, Note_on_c, 0, 72, 0
1, 143741, Note_on_c, 0, 74, 0
1, 143760, Note_on_c, 0, 69, 80
1, 143760, Note_on_c, 0, 72, 80
1, 143760, Note_on_c, 0, 74, 80
1, 143987, Note_on_c, 0, 69, 0
1, 143987, Note_on_c, 0, 72, 0
1, 143987, Note_on_c, 0, 74, 0
1, 144000, Note_on_c, 0, 65, 80
1, 144000, Note_on_c, 0, 69, 80
1, 144455, Note_on_c, 0, 65, 0
1, 144455, Note_on_c, 0, 69, 0
1, 144480, Note_on_c, 0, 65, 80
1, 144480, Note_on_c, 0, 69, 80
1, 144935, Note_on_c, 0, 65, 0
1, 144935, Note_on_c, 0, 69, 0
1, 144960, Note_on_c, 0, 67, 80
1, 144960, Note_on_c, 0, 71, 80
1, 144960, Note_on_c, 0, 74, 80
1, 145301, Note_on_c, 0, 67, 0
1, 145301, Note_on_c, 0, 71, 0
1, 145301, Note_on_c, 0, 74, 0
1, 145320, Note_on_c, 0, 67, 80
1, 145320, Note_on_c, 0, 71, 80
1, 145320, Note_on_c, 0, 74, 80
1, 145661, Note_on_c, 0, 67, 0
1, 145661, Note_on_c, 0, 71, 0
1, 145661, Note_on_c, 0, 74, 0
1, 145680, Note_on_c, 0, 67, 80
1, 145680, Note_on_c, 0, 71, 80
1, 145680, Note_on_c, 0, 74, 80
1, 145907, Note_on_c, 0, 67, 0
1, 145907, Note_on_c, 0, 71, 0
1, 145907, Note_on_c, 0, 74, 0
1, 146160, Note_on_c, 0, 69, 80
1, 146160, Note_on_c, 0, 72, 80
1, 146160, Note_on_c, 0, 76, 80
1, 146501, Note_on_c, 0, 69, 0
1, 146501, Note_on_c, 0, 72, 0
1, 146501, Note_on_c, 0, 76, 0
1, 146520, Note_on_c, 0, 69, 80
1, 146520, Note_on_c, 0, 72, 80
1, 146520, Note_on_c, 0, 76, 80
1, 146861, Note_on_c, 0, 69, 0
1, 146861, Note_on_c, 0, 72, 0
1, 146861, Note_on_c, 0, 76, 0
1, 146880, Note_on_c, 0, 69, 80
1, 146880, Note_on_c, 0, 72, 80
1, 146880, Note_on_c, 0, 76, 80
1, 147221, Note_on_c, 0, 69, 0
1, 147221, Note_on_c, 0, 72, 0
1, 147221, Note_on_c, 0, 76, 0
1, 147240, Note_on_c, 0, 69, 80
1, 147240, Note_on_c, 0, 72, 80
1, 147240, Note_on_c, 0, 74, 80
1, 147581, Note_on_c, 0, 69, 0
1, 147581, Note_on_c, 0, 72, 0
1, 147581, Note_on_c, 0, 74, 0
1, 147600, Note_on_c, 0, 69, 80
1, 147600, Note_on_c, 0, 72, 80
1, 147600, Note_on_c, 0, 74, 80
1, 147827, Note_on_c, 0, 69, 0
1, 147827, Note_on_c, 0, 72, 0
1, 147827, Note_on_c, 0, 74, 0
1, 147840, Note_on_c, 0, 65, 80
1, 147840, Note_on_c, 0, 69, 80
1, 147840, Note_on_c, 0, 72, 80
1, 148523, Note_on_c, 0, 65, 0
1, 148523, Note_on_c, 0, 69, 0
1, 148523, Note_on_c, 0, 72, 0
1, 148560, Note_on_c, 0, 64, 80
1, 148560, Note_on_c, 0, 71, 80
1, 148787, Note_on_c, 0, 64, 0
1, 148787, Note_on_c, 0, 71, 0
1, 148800, Note_on_c, 0, 64, 80
1, 148800, Note_on_c, 0, 71, 80
1, 149141, Note_on_c, 0, 64, 0
1, 149141, Note_on_c, 0, 71, 0
1, 149160, Note_on_c, 0, 64, 80
1, 149160, Note_on_c, 0, 71, 80
1, 149501, Note_on_c, 0, 64, 0
1, 149501, Note_on_c, 0, 71, 0
1, 149520, Note_on_c, 0, 64, 80
1, 149520, Note_on_c, 0, 71, 80
1, 149747, Note_on_c, 0, 64, 0
1, 149747, Note_on_c, 0, 71, 0
1, 150000, Note_on_c, 0, 69, 80
1, 150000, Note_on_c, 0, 72, 80
1, 150000, Note_on_c, 0, 76, 80
1, 150683, Note_on_c, 0, 69, 0
1, 150683, Note_on_c, 0, 72, 0
1, 150683, Note_on_c, 0, 76, 0
1, 150720, Note_on_c, 0, 69, 80
1, 150720, Note_on_c, 0, 72, 80
1, 150720, Note_on_c, 0, 76, 80
1, 151175, Note_on_c, 0, 69, 0
1, 151175, Note_on_c, 0, 72, 0
1, 151175, Note_on_c, 0, 76, 0
1, 151200, Note_on_c, 0, 69, 80
1, 151200, Note_on_c, 0, 72, 80
1, 151200, Note_on_c, 0, 74, 80
1, 151655, Note_on_c, 0, 69, 0
1, 151655, Note_on_c, 0, 72, 0
1, 151655, Note_on_c, 0, 74, 0
1, 151680, Note_on_c, 0, 65, 80
1, 151680, Note_on_c, 0, 69, 80
1, 151680, Note_on_c, 0, 72, 80
1, 152363, Note_on_c, 0, 65, 0
1, 152363, Note_on_c, 0, 69, 0
1, 152363, Note_on_c, 0, 72, 0
1, 152400, Note_on_c, 0, 64, 80
1, 152400, Note_on_c, 0, 71, 80
1, 152627, Note_on_c, 0, 64, 0
1, 152627, Note_on_c, 0, 71, 0
1, 152640, Note_on_c, 0, 64, 80
1, 152640, Note_on_c, 0, 71, 80
1, 152981, Note_on_c, 0, 64, 0
1, 152981, Note_on_c, 0, 71, 0
1, 153000, Note_on_c, 0, 64, 80
1, 153000, Note_on_c, 0, 71, 80
1, 153341, Note_on_c, 0, 64, 0
1, 153341, Note_on_c, 0, 71, 0
1, 153360, Note_on_c, 0, 64, 80
1, 153360, Note_on_c, 0, 71, 80
1, 153587, Note_on_c, 0, 64, 0
1, 153587, Note_on_c, 0, 71, 0
1, 153840, Note_on_c, 0, 69, 80
1, 153840, Note_on_c, 0, 72, 80
1, 153840, Note_on_c, 0, 76, 80
1, 154523, Note_on_c, 0, 69, 0
1, 154523, Note_on_c, 0, 72, 0
1, 154523, Note_on_c, 0, 76, 0
1, 154560, Note_on_c, 0, 69, 80
1, 154560, Note_on_c, 0, 72, 80
1, 154560, Note_on_c, 0, 76, 80
1, 155015, Note_on_c, 0, 69, 0
1, 155015, Note_on_c, 0, 72, 0
1, 155015, Note_on_c, 0, 76, 0
1, 155040, Note_on_c, 0, 69, 80
1, 155040, Note_on_c, 0, 72, 80
1, 155040, Note_on_c, 0, 74, 80
1, 155495, Note_on_c, 0, 69, 0
1, 155495, Note_on_c, 0, 72, 0
1, 155495, Note_on_c, 0, 74, 0
1, 155520, Note_on_c, 0, 65, 80
1, 155520, Note_on_c, 0, 69, 80
1, 156203, Note_on_c, 0, 65, 0
1, 156203, Note_on_c, 0, 69, 0
1, 156240, Note_on_c, 0, 65, 80
1, 156240, Note_on_c, 0, 69, 80
1, 156467, Note_on_c, 0, 65, 0
1, 156467, Note_on_c, 0, 69, 0
1, 156480, Note_on_c, 0, 67, 80
1, 156480, Note_on_c, 0, 71, 80
1, 156480, Note_on_c, 0, 74, 80
1, 156821, Note_on_c, 0, 67, 0
1, 156821, Note_on_c, 0, 71, 0
1, 156821, Note_on_c, 0, 74, 0
1, 156840, Note_on_c, 0, 67, 80
1, 156840, Note_on_c, 0, 71, 80
1, 156840, Note_on_c, 0, 74, 80
1, 157181, Note_on_c, 0, 67, 0
1, 157181, Note_on_c, 0, 71, 0
1, 157181, Note_on_c, 0, 74, 0
1, 157200, Note_on_c, 0, 67, 80
1, 157200, Note_on_c, 0, 71, 80
1, 157200, Note_on_c, 0, 74, 80
1, 157427, Note_on_c, 0, 67, 0
1, 157427, Note_on_c, 0, 71, 0
1, 157427, Note_on_c, 0, 74, 0
1, 157680, Note_on_c, 0, 69, 80
1, 157680, Note_on_c, 0, 72, 80
1, 157680, Note_on_c, 0, 76, 80
1, 158363, Note_on_c, 0, 69, 0
1, 158363, Note_on_c, 0, 72, 0
1, 158363, Note_on_c, 0, 76, 0
1, 158400, Note_on_c, 0, 69, 80
1, 158400, Note_on_c, 0, 72, 80
1, 158400, Note_on_c, 0, 76, 80
1, 158855, Note_on_c, 0, 69, 0
1, 158855, Note_on_c, 0, 72, 0
1, 158855, Note_on_c, 0, 76, 0
1, 158880, Note_on_c, 0, 69, 80
1, 158880, Note_on_c, 0, 72, 80
1, 158880, Note_on_c, 0, 74, 80
1, 159335, Note_on_c, 0, 69, 0
1, 159335, Note_on_c, 0, 72, 0
1, 159335, Note_on_c, 0, 74, 0
1, 159360, Note_on_c, 0, 65, 80
1, 159360, Note_on_c, 0, 69, 80
1, 160043, Note_on_c, 0, 65, 0
1, 160043, Note_on_c, 0, 69, 0
1, 160080, Note_on_c, 0, 65, 80
1, 160080, Note_on_c, 0, 69, 80
1, 160307, Note_on_c, 0, 65, 0
1, 160307, Note_on_c, 0, 69, 0
1, 160320, Note_on_c, 0, 67, 80
1, 160320, Note_on_c, 0, 71, 80
1, 160320, Note_on_c, 0, 74, 80
1, 160661, Note_on_c, 0, 67, 0
1, 160661, Note_on_c, 0, 71, 0
1, 160661, Note_on_c, 0, 74, 0
1, 160680, Note_on_c, 0, 67, 80
1, 160680, Note_on_c, 0, 71, 80
1, 160680, Note_on_c, 0, 74, 80
1, 161021, Note_on_c, 0, 67, 0
1, 161021, Note_on_c, 0, 71, 0
1, 161021, Note_on_c, 0, 74, 0
1, 161040, Note_on_c, 0, 67, 80
1, 161040, Note_on_c, 0, 71, 80
1, 161040, Note_on_c, 0, 74, 80
1, 161267, Note_on_c, 0, 67, 0
1, 161267, Note_on_c, 0, 71, 0
1, 161267, Note_on_c, 0, 74, 0
1, 161520, Note_on_c, 0, 69, 80
1, 161520, Note_on_c, 0, 72, 80
1, 161520, Note_on_c, 0, 76, 80
1, 162203, Note_on_c, 0, 69, 0
1, 162203, Note_on_c, 0, 72, 0
1, 162203, Note_on_c, 0, 76, 0
1, 162240, Note_on_c, 0, 69, 80
1, 162240, Note_on_c, 0, 72, 80
1, 162240, Note_on_c, 0, 76, 80
1, 162695, Note_on_c, 0, 69, 0
1, 162695, Note_on_c, 0, 72, 0
1, 162695, Note_on_c, 0, 76, 0
1, 162720, Note_on_c, 0, 69, 80
1, 162720, Note_on_c, 0, 72, 80
1, 162720, Note_on_c, 0, 74, 80
1, 163175, Note_on_c, 0, 69, 0
1, 163175, Note_on_c, 0, 72, 0
1, 163175, Note_on_c, 0, 74, 0
1, 163200, Note_on_c, 0, 62, 80
1, 163200, Note_on_c, 0, 65, 80
1, 163200, Note_on_c, 0, 69, 80
1, 163655, Note_on_c, 0, 62, 0
1, 163655, Note_on_c, 0, 65, 0
1, 163655, Note_on_c, 0, 69, 0
1, 163680, Note_on_c, 0, 62, 80
1, 163680, Note_on_c, 0, 65, 80
1, 163680, Note_on_c, 0, 69, 80
1, 164135, Note_on_c, 0, 62, 0
1, 164135, Note_on_c, 0, 65, 0
1, 164135, Note_on_c, 0, 69, 0
1, 164160, Note_on_c, 0, 67, 80
1, 164160, Note_on_c, 0, 71, 80
1, 164160, Note_on_c, 0, 74, 80
1, 164615, Note_on_c, 0, 67, 0
1, 164615, Note_on_c, 0, 71, 0
1, 164615, Note_on_c, 0, 74, 0
1, 164640, Note_on_c, 0, 67, 80
1, 164640, Note_on_c, 0, 71, 80
1, 164640, Note_on_c, 0, 74, 80
1, 165095, Note_on_c, 0, 67, 0
1, 165095, Note_on_c, 0, 71, 0
1, 165095, Note_on_c, 0, 74, 0
1, 165120, Note_on_c, 0, 69, 80
1, 165120, Note_on_c, 0, 72, 80
1, 165120, Note_on_c, 0, 76, 80
1, 165575, Note_on_c, 0, 69, 0
1, 165575, Note_on_c, 0, 72, 0
1, 165575, Note_on_c, 0, 76, 0
1, 165600, Note_on_c, 0, 69, 80
1, 165600, Note_on_c, 0, 72, 80
1, 165600, Note_on_c, 0, 76, 80
1, 166055, Note_on_c, 0, 69, 0
1, 166055, Note_on_c, 0, 72, 0
1, 166055, Note_on_c, 0, 76, 0
1, 166080, Note_on_c, 0, 69, 80
1, 166080, Note_on_c, 0, 72, 80
1, 166080, Note_on_c, 0, 76, 80
1, 166535, Note_on_c, 0, 69, 0
1, 166535, Note_on_c, 0, 72, 0
1, 166535, Note_on_c, 0, 76, 0
1, 166560, Note_on_c, 0, 69, 80
1, 166560, Note_on_c, 0, 72, 80
1, 166560, Note_on_c, 0, 74, 80
1, 167015, Note_on_c, 0, 69, 0
1, 167015, Note_on_c, 0, 72, 0
1, 167015, Note_on_c, 0, 74, 0
1, 167040, Note_on_c, 0, 62, 80
1, 167040, Note_on_c, 0, 65, 80
1, 167040, Note_on_c, 0, 69, 80
1, 167495, Note_on_c, 0, 62, 0
1, 167495, Note_on_c, 0, 65, 0
1, 167495, Note_on_c, 0, 69, 0
1, 167520, Note_on_c, 0, 62, 80
1, 167520, Note_on_c, 0, 65, 80
1, 167520, Note_on_c, 0, 69, 80
1, 167975, Note_on_c, 0, 62, 0
1, 167975, Note_on_c, 0, 65, 0
1, 167975, Note_on_c, 0, 69, 0
1, 168000, Note_on_c, 0, 67, 80
1, 168000, Note_on_c, 0, 71, 80
1, 168000, Note_on_c, 0, 74, 80
1, 168455, Note_on_c, 0, 67, 0
1, 168455, Note_on_c, 0, 71, 0
1, 168455, Note_on_c, 0, 74, 0
1, 168480, Note_on_c, 0, 67, 80
1, 168480, Note_on_c, 0, 71, 80
1, 168480, Note_on_c, 0, 74, 80
1, 168935, Note_on_c, 0, 67, 0
1, 168935, Note_on_c, 0, 71, 0
1, 168935, Note_on_c, 0, 74, 0
1, 168960, Note_on_c, 0, 69, 80
1, 168960, Note_on_c, 0, 72, 80
1, 168960, Note_on_c, 0, 76, 80
1, 169415, Note_on_c, 0, 69, 0
1, 169415, Note_on_c, 0, 72, 0
1, 169415, Note_on_c, 0, 76, 0
1, 169440, Note_on_c, 0, 69, 80
1, 169440, Note_on_c, 0, 72, 80
1, 169440, Note_on_c, 0, 76, 80
1, 169895, Note_on_c, 0, 69, 0
1, 169895, Note_on_c, 0, 72, 0
1, 169895, Note_on_c, 0, 76, 0
1, 169920, Note_on_c, 0, 69, 80
1, 169920, Note_on_c, 0, 72, 80
1, 169920, Note_on_c, 0, 76, 80
1, 170375, Note_on_c, 0, 69, 0
1, 170375, Note_on_c, 0, 72, 0
1, 170375, Note_on_c, 0, 76, 0
1, 170400, Note_on_c, 0, 69, 80
1, 170400, Note_on_c, 0, 72, 80
1, 170400, Note_on_c, 0, 76, 80
1, 170855, Note_on_c, 0, 69, 0
1, 170855, Note_on_c, 0, 72, 0
1, 170855, Note_on_c, 0, 76, 0
1, 170856, End_track
2, 0, Start_track
2, 0, Title_t, "Piano, Piano\000"
2, 0, Key_signature, 0, "major"
2, 0, MIDI_port, 0
2, 0, Note_on_c, 0, 53, 80
2, 911, Note_on_c, 0, 53, 0
2, 960, Note_on_c, 0, 52, 80
2, 1871, Note_on_c, 0, 52, 0
2, 1920, Note_on_c, 0, 57, 80
2, 3743, Note_on_c, 0, 57, 0
2, 3840, Note_on_c, 0, 53, 80
2, 4751, Note_on_c, 0, 53, 0
2, 4800, Note_on_c, 0, 52, 80
2, 5711, Note_on_c, 0, 52, 0
2, 5760, Note_on_c, 0, 57, 80
2, 7583, Note_on_c, 0, 57, 0
2, 7680, Note_on_c, 0, 50, 80
2, 7680, Note_on_c, 0, 57, 80
2, 8591, Note_on_c, 0, 50, 0
2, 8591, Note_on_c, 0, 57, 0
2, 8640, Note_on_c, 0, 55, 80
2, 9551, Note_on_c, 0, 55, 0
2, 9600, Note_on_c, 0, 57, 80
2, 9600, Note_on_c, 0, 60, 80
2, 11423, Note_on_c, 0, 57, 0
2, 11423, Note_on_c, 0, 60, 0
2, 11520, Note_on_c, 0, 50, 80
2, 11520, Note_on_c, 0, 57, 80
2, 12431, Note_on_c, 0, 50, 0
2, 12431, Note_on_c, 0, 57, 0
2, 12480, Note_on_c, 0, 55, 80
2, 13391, Note_on_c, 0, 55, 0
2, 13440, Note_on_c, 0, 57, 80
2, 13440, Note_on_c, 0, 60, 80
2, 15263, Note_on_c, 0, 57, 0
2, 15263, Note_on_c, 0, 60, 0
2, 15360, Note_on_c, 0, 53, 80
2, 15360, Note_on_c, 0, 57, 80
2, 15360, Note_on_c, 0, 60, 80
2, 16271, Note_on_c, 0, 53, 0
2, 16271, Note_on_c, 0, 57, 0
2, 16271, Note_on_c, 0, 60, 0
2, 16320, Note_on_c, 0, 52, 80
2, 16320, Note_on_c, 0, 59, 80
2, 17231, Note_on_c, 0, 52, 0
2, 17231, Note_on_c, 0, 59, 0
2, 17280, Note_on_c, 0, 57, 80
2, 19103, Note_on_c, 0, 57, 0
2, 19200, Note_on_c, 0, 53, 80
2, 19200, Note_on_c, 0, 57, 80
2, 19200, Note_on_c, 0, 60, 80
2, 20111, Note_on_c, 0, 53, 0
2, 20111, Note_on_c, 0, 57, 0
2, 20111, Note_on_c, 0, 60, 0
2, 20160, Note_on_c, 0, 52, 80
2, 20160, Note_on_c, 0, 59, 80
2, 21071, Note_on_c, 0, 52, 0
2, 21071, Note_on_c, 0, 59, 0
2, 21120, Note_on_c, 0, 57, 80
2, 22943, Note_on_c, 0, 57, 0
2, 23040, Note_on_c, 0, 50, 80
2, 23040, Note_on_c, 0, 57, 80
2, 23951, Note_on_c, 0, 50, 0
2, 23951, Note_on_c, 0, 57, 0
2, 24000, Note_on_c, 0, 55, 80
2, 24911, Note_on_c, 0, 55, 0
2, 24960, Note_on_c, 0, 57, 80
2, 24960, Note_on_c, 0, 60, 80
2, 25415, Note_on_c, 0, 57, 0
2, 25415, Note_on_c, 0, 60, 0
2, 26880, Note_on_c, 0, 50, 80
2, 26880, Note_on_c, 0, 57, 80
2, 27791, Note_on_c, 0, 50, 0
2, 27791, Note_on_c, 0, 57, 0
2, 27840, Note_on_c, 0, 55, 80
2, 28751, Note_on_c, 0, 55, 0
2, 28800, Note_on_c, 0, 57, 80
2, 28800, Note_on_c, 0, 60, 80
2, 29255, Note_on_c, 0, 57, 0
2, 29255, Note_on_c, 0, 60, 0
2, 30720, Note_on_c, 0, 53, 80
2, 30947, Note_on_c, 0, 53, 0
2, 30960, Note_on_c, 0, 57, 80
2, 31187, Note_on_c, 0, 57, 0
2, 31200, Note_on_c, 0, 60, 80
2, 31427, Note_on_c, 0, 60, 0
2, 31440, Note_on_c, 0, 57, 80
2, 31667, Note_on_c, 0, 57, 0
2, 31680, Note_on_c, 0, 52, 80
2, 31907, Note_on_c, 0, 52, 0
2, 31920, Note_on_c, 0, 57, 80
2, 32147, Note_on_c, 0, 57, 0
2, 32160, Note_on_c, 0, 60, 80
2, 32387, Note_on_c, 0, 60, 0
2, 32400, Note_on_c, 0, 57, 80
2, 32627, Note_on_c, 0, 57, 0
2, 32640, Note_on_c, 0, 52, 80
2, 32867, Note_on_c, 0, 52, 0
2, 32880, Note_on_c, 0, 57, 80
2, 33107, Note_on_c, 0, 57, 0
2, 33120, Note_on_c, 0, 60, 80
2, 33347, Note_on_c, 0, 60, 0
2, 33360, Note_on_c, 0, 57, 80
2, 33587, Note_on_c, 0, 57, 0
2, 33600, Note_on_c, 0, 64, 80
2, 33827, Note_on_c, 0, 64, 0
2, 33840, Note_on_c, 0, 57, 80
2, 34067, Note_on_c, 0, 57, 0
2, 34080, Note_on_c, 0, 62, 80
2, 34307, Note_on_c, 0, 62, 0
2, 34320, Note_on_c, 0, 57, 80
2, 34547, Note_on_c, 0, 57, 0
2, 34560, Note_on_c, 0, 53, 80
2, 34787, Note_on_c, 0, 53, 0
2, 34800, Note_on_c, 0, 57, 80
2, 35027, Note_on_c, 0, 57, 0
2, 35040, Note_on_c, 0, 60, 80
2, 35267, Note_on_c, 0, 60, 0
2, 35280, Note_on_c, 0, 57, 80
2, 35507, Note_on_c, 0, 57, 0
2, 35520, Note_on_c, 0, 52, 80
2, 35747, Note_on_c, 0, 52, 0
2, 35760, Note_on_c, 0, 57, 80
2, 35987, Note_on_c, 0, 57, 0
2, 36000, Note_on_c, 0, 60, 80
2, 36227, Note_on_c, 0, 60, 0
2, 36240, Note_on_c, 0, 57, 80
2, 36467, Note_on_c, 0, 57, 0
2, 36480, Note_on_c, 0, 52, 80
2, 36707, Note_on_c, 0, 52, 0
2, 36720, Note_on_c, 0, 57, 80
2, 36947, Note_on_c, 0, 57, 0
2, 36960, Note_on_c, 0, 60, 80
2, 37187, Note_on_c, 0, 60, 0
2, 37200, Note_on_c, 0, 57, 80
2, 37427, Note_on_c, 0, 57, 0
2, 37440, Note_on_c, 0, 64, 80
2, 37667, Note_on_c, 0, 64, 0
2, 37680, Note_on_c, 0, 57, 80
2, 37907, Note_on_c, 0, 57, 0
2, 37920, Note_on_c, 0, 62, 80
2, 38147, Note_on_c, 0, 62, 0
2, 38160, Note_on_c, 0, 57, 80
2, 38387, Note_on_c, 0, 57, 0
2, 38400, Note_on_c, 0, 50, 80
2, 38627, Note_on_c, 0, 50, 0
2, 38640, Note_on_c, 0, 53, 80
2, 38867, Note_on_c, 0, 53, 0
2, 38880, Note_on_c, 0, 62, 80
2, 39107, Note_on_c, 0, 62, 0
2, 39120, Note_on_c, 0, 57, 80
2, 39347, Note_on_c, 0, 57, 0
2, 39360, Note_on_c, 0, 55, 80
2, 39587, Note_on_c, 0, 55, 0
2, 39600, Note_on_c, 0, 55, 80
2, 39827, Note_on_c, 0, 55, 0
2, 39840, Note_on_c, 0, 62, 80
2, 40067, Note_on_c, 0, 62, 0
2, 40080, Note_on_c, 0, 59, 80
2, 40307, Note_on_c, 0, 59, 0
2, 40320, Note_on_c, 0, 52, 80
2, 40547, Note_on_c, 0, 52, 0
2, 40560, Note_on_c, 0, 57, 80
2, 40787, Note_on_c, 0, 57, 0
2, 40800, Note_on_c, 0, 60, 80
2, 41027, Note_on_c, 0, 60, 0
2, 41040, Note_on_c, 0, 57, 80
2, 41267, Note_on_c, 0, 57, 0
2, 41280, Note_on_c, 0, 64, 80
2, 41507, Note_on_c, 0, 64, 0
2, 41520, Note_on_c, 0, 57, 80
2, 41747, Note_on_c, 0, 57, 0
2, 41760, Note_on_c, 0, 62, 80
2, 41987, Note_on_c, 0, 62, 0
2, 42000, Note_on_c, 0, 57, 80
2, 42227, Note_on_c, 0, 57, 0
2, 42240, Note_on_c, 0, 50, 80
2, 42467, Note_on_c, 0, 50, 0
2, 42480, Note_on_c, 0, 53, 80
2, 42707, Note_on_c, 0, 53, 0
2, 42720, Note_on_c, 0, 62, 80
2, 42947, Note_on_c, 0, 62, 0
2, 42960, Note_on_c, 0, 57, 80
2, 43187, Note_on_c, 0, 57, 0
2, 43200, Note_on_c, 0, 55, 80
2, 43427, Note_on_c, 0, 55, 0
2, 43440, Note_on_c, 0, 55, 80
2, 43667, Note_on_c, 0, 55, 0
2, 43680, Note_on_c, 0, 62, 80
2, 43907, Note_on_c, 0, 62, 0
2, 43920, Note_on_c, 0, 59, 80
2, 44147, Note_on_c, 0, 59, 0
2, 44160, Note_on_c, 0, 52, 80
2, 44387, Note_on_c, 0, 52, 0
2, 44400, Note_on_c, 0, 57, 80
2, 44627, Note_on_c, 0, 57, 0
2, 44640, Note_on_c, 0, 60, 80
2, 44867, Note_on_c, 0, 60, 0
2, 44880, Note_on_c, 0, 57, 80
2, 45107, Note_on_c, 0, 57, 0
2, 45120, Note_on_c, 0, 64, 80
2, 45347, Note_on_c, 0, 64, 0
2, 45360, Note_on_c, 0, 57, 80
2, 45587, Note_on_c, 0, 57, 0
2, 45600, Note_on_c, 0, 62, 80
2, 45827, Note_on_c, 0, 62, 0
2, 45840, Note_on_c, 0, 57, 80
2, 46067, Note_on_c, 0, 57, 0
2, 46080, Note_on_c, 0, 53, 80
2, 46307, Note_on_c, 0, 53, 0
2, 46320, Note_on_c, 0, 53, 80
2, 46547, Note_on_c, 0, 53, 0
2, 46560, Note_on_c, 0, 60, 80
2, 46787, Note_on_c, 0, 60, 0
2, 46800, Note_on_c, 0, 57, 80
2, 47027, Note_on_c, 0, 57, 0
2, 47040, Note_on_c, 0, 52, 80
2, 47267, Note_on_c, 0, 52, 0
2, 47280, Note_on_c, 0, 52, 80
2, 47507, Note_on_c, 0, 52, 0
2, 47520, Note_on_c, 0, 60, 80
2, 47747, Note_on_c, 0, 60, 0
2, 47760, Note_on_c, 0, 57, 80
2, 47987, Note_on_c, 0, 57, 0
2, 48000, Note_on_c, 0, 57, 80
2, 48227, Note_on_c, 0, 57, 0
2, 48240, Note_on_c, 0, 52, 80
2, 48467, Note_on_c, 0, 52, 0
2, 48480, Note_on_c, 0, 60, 80
2, 48707, Note_on_c, 0, 60, 0
2, 48720, Note_on_c, 0, 57, 80
2, 48947, Note_on_c, 0, 57, 0
2, 48960, Note_on_c, 0, 64, 80
2, 49187, Note_on_c, 0, 64, 0
2, 49200, Note_on_c, 0, 57, 80
2, 49427, Note_on_c, 0, 57, 0
2, 49440, Note_on_c, 0, 62, 80
2, 49667, Note_on_c, 0, 62, 0
2, 49680, Note_on_c, 0, 57, 80
2, 49907, Note_on_c, 0, 57, 0
2, 49920, Note_on_c, 0, 53, 80
2, 50147, Note_on_c, 0, 53, 0
2, 50160, Note_on_c, 0, 53, 80
2, 50387, Note_on_c, 0, 53, 0
2, 50400, Note_on_c, 0, 60, 80
2, 50627, Note_on_c, 0, 60, 0
2, 50640, Note_on_c, 0, 57, 80
2, 50867, Note_on_c, 0, 57, 0
2, 50880, Note_on_c, 0, 52, 80
2, 51107, Note_on_c, 0, 52, 0
2, 51120, Note_on_c, 0, 52, 80
2, 51347, Note_on_c, 0, 52, 0
2, 51360, Note_on_c, 0, 60, 80
2, 51587, Note_on_c, 0, 60, 0
2, 51600, Note_on_c, 0, 57, 80
2, 51827, Note_on_c, 0, 57, 0
2, 51840, Note_on_c, 0, 57, 80
2, 52067, Note_on_c, 0, 57, 0
2, 52080, Note_on_c, 0, 52, 80
2, 52307, Note_on_c, 0, 52, 0
2, 52320, Note_on_c, 0, 60, 80
2, 52547, Note_on_c, 0, 60, 0
2, 52560, Note_on_c, 0, 57, 80
2, 52787, Note_on_c, 0, 57, 0
2, 52800, Note_on_c, 0, 64, 80
2, 53027, Note_on_c, 0, 64, 0
2, 53040, Note_on_c, 0, 57, 80
2, 53267, Note_on_c, 0, 57, 0
2, 53280, Note_on_c, 0, 62, 80
2, 53507, Note_on_c, 0, 62, 0
2, 53520, Note_on_c, 0, 57, 80
2, 53747, Note_on_c, 0, 57, 0
2, 53760, Note_on_c, 0, 50, 80
2, 53987, Note_on_c, 0, 50, 0
2, 54000, Note_on_c, 0, 53, 80
2, 54227, Note_on_c, 0, 53, 0
2, 54240, Note_on_c, 0, 62, 80
2, 54467, Note_on_c, 0, 62, 0
2, 54480, Note_on_c, 0, 57, 80
2, 54707, Note_on_c, 0, 57, 0
2, 54720, Note_on_c, 0, 55, 80
2, 54947, Note_on_c, 0, 55, 0
2, 54960, Note_on_c, 0, 55, 80
2, 55187, Note_on_c, 0, 55, 0
2, 55200, Note_on_c, 0, 62, 80
2, 55427, Note_on_c, 0, 62, 0
2, 55440, Note_on_c, 0, 59, 80
2, 55667, Note_on_c, 0, 59, 0
2, 55680, Note_on_c, 0, 57, 80
2, 55907, Note_on_c, 0, 57, 0
2, 55920, Note_on_c, 0, 52, 80
2, 56147, Note_on_c, 0, 52, 0
2, 56160, Note_on_c, 0, 60, 80
2, 56387, Note_on_c, 0, 60, 0
2, 56400, Note_on_c, 0, 57, 80
2, 56627, Note_on_c, 0, 57, 0
2, 56640, Note_on_c, 0, 64, 80
2, 56867, Note_on_c, 0, 64, 0
2, 56880, Note_on_c, 0, 57, 80
2, 57107, Note_on_c, 0, 57, 0
2, 57120, Note_on_c, 0, 62, 80
2, 57347, Note_on_c, 0, 62, 0
2, 57360, Note_on_c, 0, 57, 80
2, 57587, Note_on_c, 0, 57, 0
2, 57600, Note_on_c, 0, 50, 80
2, 57827, Note_on_c, 0, 50, 0
2, 57840, Note_on_c, 0, 53, 80
2, 58067, Note_on_c, 0, 53, 0
2, 58080, Note_on_c, 0, 62, 80
2, 58307, Note_on_c, 0, 62, 0
2, 58320, Note_on_c, 0, 57, 80
2, 58547, Note_on_c, 0, 57, 0
2, 58560, Note_on_c, 0, 55, 80
2, 58787, Note_on_c, 0, 55, 0
2, 58800, Note_on_c, 0, 55, 80
2, 59027, Note_on_c, 0, 55, 0
2, 59040, Note_on_c, 0, 62, 80
2, 59267, Note_on_c, 0, 62, 0
2, 59280, Note_on_c, 0, 59, 80
2, 59507, Note_on_c, 0, 59, 0
2, 59520, Note_on_c, 0, 57, 80
2, 59747, Note_on_c, 0, 57, 0
2, 59760, Note_on_c, 0, 52, 80
2, 59987, Note_on_c, 0, 52, 0
2, 60000, Note_on_c, 0, 60, 80
2, 60227, Note_on_c, 0, 60, 0
2, 60240, Note_on_c, 0, 57, 80
2, 60467, Note_on_c, 0, 57, 0
2, 60480, Note_on_c, 0, 64, 80
2, 60707, Note_on_c, 0, 64, 0
2, 60720, Note_on_c, 0, 57, 80
2, 60947, Note_on_c, 0, 57, 0
2, 60960, Note_on_c, 0, 62, 80
2, 61187, Note_on_c, 0, 62, 0
2, 61200, Note_on_c, 0, 57, 80
2, 61427, Note_on_c, 0, 57, 0
2, 61440, Note_on_c, 0, 53, 80
2, 61440, Note_on_c, 0, 57, 80
2, 61440, Note_on_c, 0, 60, 80
2, 62351, Note_on_c, 0, 53, 0
2, 62351, Note_on_c, 0, 57, 0
2, 62351, Note_on_c, 0, 60, 0
2, 62400, Note_on_c, 0, 52, 80
2, 62400, Note_on_c, 0, 59, 80
2, 63311, Note_on_c, 0, 52, 0
2, 63311, Note_on_c, 0, 59, 0
2, 63360, Note_on_c, 0, 57, 80
2, 63360, Note_on_c, 0, 60, 80
2, 63360, Note_on_c, 0, 64, 80
2, 63815, Note_on_c, 0, 57, 0
2, 63815, Note_on_c, 0, 60, 0
2, 63815, Note_on_c, 0, 64, 0
2, 65280, Note_on_c, 0, 53, 80
2, 65280, Note_on_c, 0, 57, 80
2, 65280, Note_on_c, 0, 60, 80
2, 66191, Note_on_c, 0, 53, 0
2, 66191, Note_on_c, 0, 57, 0
2, 66191, Note_on_c, 0, 60, 0
2, 66240, Note_on_c, 0, 52, 80
2, 66240, Note_on_c, 0, 59, 80
2, 67151, Note_on_c, 0, 52, 0
2, 67151, Note_on_c, 0, 59, 0
2, 67200, Note_on_c, 0, 57, 80
2, 67200, Note_on_c, 0, 60, 80
2, 67200, Note_on_c, 0, 64, 80
2, 67655, Note_on_c, 0, 57, 0
2, 67655, Note_on_c, 0, 60, 0
2, 67655, Note_on_c, 0, 64, 0
2, 69120, Note_on_c, 0, 50, 80
2, 69120, Note_on_c, 0, 53, 80
2, 69120, Note_on_c, 0, 57, 80
2, 70031, Note_on_c, 0, 50, 0
2, 70031, Note_on_c, 0, 53, 0
2, 70031, Note_on_c, 0, 57, 0
2, 70080, Note_on_c, 0, 55, 80
2, 70080, Note_on_c, 0, 59, 80
2, 70080, Note_on_c, 0, 62, 80
2, 70991, Note_on_c, 0, 55, 0
2, 70991, Note_on_c, 0, 59, 0
2, 70991, Note_on_c, 0, 62, 0
2, 71040, Note_on_c, 0, 57, 80
2, 71040, Note_on_c, 0, 60, 80
2, 72407, Note_on_c, 0, 57, 0
2, 72407, Note_on_c, 0, 60, 0
2, 72960, Note_on_c, 0, 50, 80
2, 72960, Note_on_c, 0, 53, 80
2, 72960, Note_on_c, 0, 57, 80
2, 73871, Note_on_c, 0, 50, 0
2, 73871, Note_on_c, 0, 53, 0
2, 73871, Note_on_c, 0, 57, 0
2, 73920, Note_on_c, 0, 55, 80
2, 73920, Note_on_c, 0, 59, 80
2, 73920, Note_on_c, 0, 62, 80
2, 74831, Note_on_c, 0, 55, 0
2, 74831, Note_on_c, 0, 59, 0
2, 74831, Note_on_c, 0, 62, 0
2, 74880, Note_on_c, 0, 57, 80
2, 74880, Note_on_c, 0, 60, 80
2, 74880, Note_on_c, 0, 64, 80
2, 75335, Note_on_c, 0, 57, 0
2, 75335, Note_on_c, 0, 60, 0
2, 75335, Note_on_c, 0, 64, 0
2, 76800, Note_on_c, 0, 53, 80
2, 77027, Note_on_c, 0, 53, 0
2, 77040, Note_on_c, 0, 53, 80
2, 77267, Note_on_c, 0, 53, 0
2, 77280, Note_on_c, 0, 57, 80
2, 77280, Note_on_c, 0, 60, 80
2, 77507, Note_on_c, 0, 57, 0
2, 77507, Note_on_c, 0, 60, 0
2, 77520, Note_on_c, 0, 53, 80
2, 77747, Note_on_c, 0, 53, 0
2, 77760, Note_on_c, 0, 52, 80
2, 77987, Note_on_c, 0, 52, 0
2, 78000, Note_on_c, 0, 52, 80
2, 78227, Note_on_c, 0, 52, 0
2, 78240, Note_on_c, 0, 59, 80
2, 78240, Note_on_c, 0, 62, 80
2, 78467, Note_on_c, 0, 59, 0
2, 78467, Note_on_c, 0, 62, 0
2, 78480, Note_on_c, 0, 52, 80
2, 78707, Note_on_c, 0, 52, 0
2, 78720, Note_on_c, 0, 57, 80
2, 78947, Note_on_c, 0, 57, 0
2, 78960, Note_on_c, 0, 57, 80
2, 79187, Note_on_c, 0, 57, 0
2, 79200, Note_on_c, 0, 60, 80
2, 79200, Note_on_c, 0, 64, 80
2, 79427, Note_on_c, 0, 60, 0
2, 79427, Note_on_c, 0, 64, 0
2, 79440, Note_on_c, 0, 57, 80
2, 79667, Note_on_c, 0, 57, 0
2, 79680, Note_on_c, 0, 57, 80
2, 79907, Note_on_c, 0, 57, 0
2, 79920, Note_on_c, 0, 57, 80
2, 80147, Note_on_c, 0, 57, 0
2, 80160, Note_on_c, 0, 60, 80
2, 80160, Note_on_c, 0, 62, 80
2, 80387, Note_on_c, 0, 60, 0
2, 80387, Note_on_c, 0, 62, 0
2, 80400, Note_on_c, 0, 57, 80
2, 80627, Note_on_c, 0, 57, 0
2, 80640, Note_on_c, 0, 53, 80
2, 80867, Note_on_c, 0, 53, 0
2, 80880, Note_on_c, 0, 53, 80
2, 81107, Note_on_c, 0, 53, 0
2, 81120, Note_on_c, 0, 57, 80
2, 81120, Note_on_c, 0, 60, 80
2, 81347, Note_on_c, 0, 57, 0
2, 81347, Note_on_c, 0, 60, 0
2, 81360, Note_on_c, 0, 53, 80
2, 81587, Note_on_c, 0, 53, 0
2, 81600, Note_on_c, 0, 52, 80
2, 81827, Note_on_c, 0, 52, 0
2, 81840, Note_on_c, 0, 52, 80
2, 82067, Note_on_c, 0, 52, 0
2, 82080, Note_on_c, 0, 59, 80
2, 82080, Note_on_c, 0, 62, 80
2, 82307, Note_on_c, 0, 59, 0
2, 82307, Note_on_c, 0, 62, 0
2, 82320, Note_on_c, 0, 52, 80
2, 82547, Note_on_c, 0, 52, 0
2, 82560, Note_on_c, 0, 57, 80
2, 82787, Note_on_c, 0, 57, 0
2, 82800, Note_on_c, 0, 57, 80
2, 83027, Note_on_c, 0, 57, 0
2, 83040, Note_on_c, 0, 60, 80
2, 83040, Note_on_c, 0, 64, 80
2, 83267, Note_on_c, 0, 60, 0
2, 83267, Note_on_c, 0, 64, 0
2, 83280, Note_on_c, 0, 57, 80
2, 83507, Note_on_c, 0, 57, 0
2, 83520, Note_on_c, 0, 57, 80
2, 83747, Note_on_c, 0, 57, 0
2, 83760, Note_on_c, 0, 57, 80
2, 83987, Note_on_c, 0, 57, 0
2, 84000, Note_on_c, 0, 60, 80
2, 84000, Note_on_c, 0, 62, 80
2, 84227, Note_on_c, 0, 60, 0
2, 84227, Note_on_c, 0, 62, 0
2, 84240, Note_on_c, 0, 57, 80
2, 84467, Note_on_c, 0, 57, 0
2, 84480, Note_on_c, 0, 50, 80
2, 84707, Note_on_c, 0, 50, 0
2, 84720, Note_on_c, 0, 50, 80
2, 84947, Note_on_c, 0, 50, 0
2, 84960, Note_on_c, 0, 53, 80
2, 84960, Note_on_c, 0, 57, 80
2, 85187, Note_on_c, 0, 53, 0
2, 85187, Note_on_c, 0, 57, 0
2, 85200, Note_on_c, 0, 50, 80
2, 85427, Note_on_c, 0, 50, 0
2, 85440, Note_on_c, 0, 55, 80
2, 85667, Note_on_c, 0, 55, 0
2, 85680, Note_on_c, 0, 50, 80
2, 85907, Note_on_c, 0, 50, 0
2, 85920, Note_on_c, 0, 59, 80
2, 85920, Note_on_c, 0, 62, 80
2, 86147, Note_on_c, 0, 59, 0
2, 86147, Note_on_c, 0, 62, 0
2, 86160, Note_on_c, 0, 64, 80
2, 86387, Note_on_c, 0, 64, 0
2, 86400, Note_on_c, 0, 57, 80
2, 86627, Note_on_c, 0, 57, 0
2, 86640, Note_on_c, 0, 52, 80
2, 86867, Note_on_c, 0, 52, 0
2, 86880, Note_on_c, 0, 57, 80
2, 86880, Note_on_c, 0, 60, 80
2, 87107, Note_on_c, 0, 57, 0
2, 87107, Note_on_c, 0, 60, 0
2, 87120, Note_on_c, 0, 57, 80
2, 87347, Note_on_c, 0, 57, 0
2, 87360, Note_on_c, 0, 60, 80
2, 87360, Note_on_c, 0, 64, 80
2, 87587, Note_on_c, 0, 60, 0
2, 87587, Note_on_c, 0, 64, 0
2, 87600, Note_on_c, 0, 57, 80
2, 87827, Note_on_c, 0, 57, 0
2, 87840, Note_on_c, 0, 60, 80
2, 87840, Note_on_c, 0, 62, 80
2, 88067, Note_on_c, 0, 60, 0
2, 88067, Note_on_c, 0, 62, 0
2, 88080, Note_on_c, 0, 57, 80
2, 88307, Note_on_c, 0, 57, 0
2, 88320, Note_on_c, 0, 53, 80
2, 88547, Note_on_c, 0, 53, 0
2, 88560, Note_on_c, 0, 57, 80
2, 88787, Note_on_c, 0, 57, 0
2, 88800, Note_on_c, 0, 60, 80
2, 88800, Note_on_c, 0, 65, 80
2, 89027, Note_on_c, 0, 60, 0
2, 89027, Note_on_c, 0, 65, 0
2, 89040, Note_on_c, 0, 57, 80
2, 89267, Note_on_c, 0, 57, 0
2, 89280, Note_on_c, 0, 55, 80
2, 89507, Note_on_c, 0, 55, 0
2, 89520, Note_on_c, 0, 55, 80
2, 89747, Note_on_c, 0, 55, 0
2, 89760, Note_on_c, 0, 59, 80
2, 89760, Note_on_c, 0, 62, 80
2, 89987, Note_on_c, 0, 59, 0
2, 89987, Note_on_c, 0, 62, 0
2, 90000, Note_on_c, 0, 64, 80
2, 90227, Note_on_c, 0, 64, 0
2, 90240, Note_on_c, 0, 57, 80
2, 90467, Note_on_c, 0, 57, 0
2, 90480, Note_on_c, 0, 52, 80
2, 90707, Note_on_c, 0, 52, 0
2, 90720, Note_on_c, 0, 57, 80
2, 90720, Note_on_c, 0, 60, 80
2, 90947, Note_on_c, 0, 57, 0
2, 90947, Note_on_c, 0, 60, 0
2, 90960, Note_on_c, 0, 52, 80
2, 91187, Note_on_c, 0, 52, 0
2, 91200, Note_on_c, 0, 60, 80
2, 91200, Note_on_c, 0, 64, 80
2, 91427, Note_on_c, 0, 60, 0
2, 91427, Note_on_c, 0, 64, 0
2, 91440, Note_on_c, 0, 57, 80
2, 91667, Note_on_c, 0, 57, 0
2, 91680, Note_on_c, 0, 60, 80
2, 91680, Note_on_c, 0, 62, 80
2, 92135, Note_on_c, 0, 60, 0
2, 92135, Note_on_c, 0, 62, 0
2, 92160, Note_on_c, 0, 60, 80
2, 92387, Note_on_c, 0, 60, 0
2, 92400, Note_on_c, 0, 64, 80
2, 92627, Note_on_c, 0, 64, 0
2, 92640, Note_on_c, 0, 72, 80
2, 92867, Note_on_c, 0, 72, 0
2, 92880, Note_on_c, 0, 67, 80
2, 93107, Note_on_c, 0, 67, 0
2, 93120, Note_on_c, 0, 65, 80
2, 93347, Note_on_c, 0, 65, 0
2, 93360, Note_on_c, 0, 69, 80
2, 93587, Note_on_c, 0, 69, 0
2, 93600, Note_on_c, 0, 72, 80
2, 93827, Note_on_c, 0, 72, 0
2, 93840, Note_on_c, 0, 69, 80
2, 94067, Note_on_c, 0, 69, 0
2, 94080, Note_on_c, 0, 57, 80
2, 94307, Note_on_c, 0, 57, 0
2, 94320, Note_on_c, 0, 64, 80
2, 94547, Note_on_c, 0, 64, 0
2, 94560, Note_on_c, 0, 72, 80
2, 94787, Note_on_c, 0, 72, 0
2, 94800, Note_on_c, 0, 69, 80
2, 95027, Note_on_c, 0, 69, 0
2, 95040, Note_on_c, 0, 64, 80
2, 95267, Note_on_c, 0, 64, 0
2, 95280, Note_on_c, 0, 69, 80
2, 95507, Note_on_c, 0, 69, 0
2, 95520, Note_on_c, 0, 72, 80
2, 95747, Note_on_c, 0, 72, 0
2, 95760, Note_on_c, 0, 69, 80
2, 95987, Note_on_c, 0, 69, 0
2, 96000, Note_on_c, 0, 60, 80
2, 96227, Note_on_c, 0, 60, 0
2, 96240, Note_on_c, 0, 64, 80
2, 96467, Note_on_c, 0, 64, 0
2, 96480, Note_on_c, 0, 72, 80
2, 96707, Note_on_c, 0, 72, 0
2, 96720, Note_on_c, 0, 67, 80
2, 96947, Note_on_c, 0, 67, 0
2, 96960, Note_on_c, 0, 65, 80
2, 97187, Note_on_c, 0, 65, 0
2, 97200, Note_on_c, 0, 69, 80
2, 97427, Note_on_c, 0, 69, 0
2, 97440, Note_on_c, 0, 72, 80
2, 97667, Note_on_c, 0, 72, 0
2, 97680, Note_on_c, 0, 69, 80
2, 97907, Note_on_c, 0, 69, 0
2, 97920, Note_on_c, 0, 57, 80
2, 98147, Note_on_c, 0, 57, 0
2, 98160, Note_on_c, 0, 64, 80
2, 98387, Note_on_c, 0, 64, 0
2, 98400, Note_on_c, 0, 72, 80
2, 98627, Note_on_c, 0, 72, 0
2, 98640, Note_on_c, 0, 69, 80
2, 98867, Note_on_c, 0, 69, 0
2, 98880, Note_on_c, 0, 64, 80
2, 99107, Note_on_c, 0, 64, 0
2, 99120, Note_on_c, 0, 69, 80
2, 99347, Note_on_c, 0, 69, 0
2, 99360, Note_on_c, 0, 72, 80
2, 99587, Note_on_c, 0, 72, 0
2, 99600, Note_on_c, 0, 69, 80
2, 99827, Note_on_c, 0, 69, 0
2, 99840, Note_on_c, 0, 60, 80
2, 100067, Note_on_c, 0, 60, 0
2, 100080, Note_on_c, 0, 64, 80
2, 100307, Note_on_c, 0, 64, 0
2, 100320, Note_on_c, 0, 72, 80
2, 100547, Note_on_c, 0, 72, 0
2, 100560, Note_on_c, 0, 67, 80
2, 100787, Note_on_c, 0, 67, 0
2, 100800, Note_on_c, 0, 65, 80
2, 101027, Note_on_c, 0, 65, 0
2, 101040, Note_on_c, 0, 69, 80
2, 101267, Note_on_c, 0, 69, 0
2, 101280, Note_on_c, 0, 72, 80
2, 101507, Note_on_c, 0, 72, 0
2, 101520, Note_on_c, 0, 69, 80
2, 101747, Note_on_c, 0, 69, 0
2, 101760, Note_on_c, 0, 57, 80
2, 101987, Note_on_c, 0, 57, 0
2, 102000, Note_on_c, 0, 64, 80
2, 102227, Note_on_c, 0, 64, 0
2, 102240, Note_on_c, 0, 72, 80
2, 102467, Note_on_c, 0, 72, 0
2, 102480, Note_on_c, 0, 69, 80
2, 102707, Note_on_c, 0, 69, 0
2, 102720, Note_on_c, 0, 64, 80
2, 102947, Note_on_c, 0, 64, 0
2, 102960, Note_on_c, 0, 69, 80
2, 103187, Note_on_c, 0, 69, 0
2, 103200, Note_on_c, 0, 72, 80
2, 103427, Note_on_c, 0, 72, 0
2, 103440, Note_on_c, 0, 69, 80
2, 103667, Note_on_c, 0, 69, 0
2, 103680, Note_on_c, 0, 62, 80
2, 103907, Note_on_c, 0, 62, 0
2, 103920, Note_on_c, 0, 65, 80
2, 104147, Note_on_c, 0, 65, 0
2, 104160, Note_on_c, 0, 74, 80
2, 104387, Note_on_c, 0, 74, 0
2, 104400, Note_on_c, 0, 69, 80
2, 104627, Note_on_c, 0, 69, 0
2, 104640, Note_on_c, 0, 67, 80
2, 104867, Note_on_c, 0, 67, 0
2, 104880, Note_on_c, 0, 71, 80
2, 105107, Note_on_c, 0, 71, 0
2, 105120, Note_on_c, 0, 74, 80
2, 105347, Note_on_c, 0, 74, 0
2, 105360, Note_on_c, 0, 71, 80
2, 105587, Note_on_c, 0, 71, 0
2, 105600, Note_on_c, 0, 57, 80
2, 105827, Note_on_c, 0, 57, 0
2, 105840, Note_on_c, 0, 64, 80
2, 106067, Note_on_c, 0, 64, 0
2, 106080, Note_on_c, 0, 72, 80
2, 106307, Note_on_c, 0, 72, 0
2, 106320, Note_on_c, 0, 69, 80
2, 106547, Note_on_c, 0, 69, 0
2, 106560, Note_on_c, 0, 64, 80
2, 106787, Note_on_c, 0, 64, 0
2, 106800, Note_on_c, 0, 69, 80
2, 107027, Note_on_c, 0, 69, 0
2, 107040, Note_on_c, 0, 72, 80
2, 107267, Note_on_c, 0, 72, 0
2, 107280, Note_on_c, 0, 69, 80
2, 107507, Note_on_c, 0, 69, 0
2, 107520, Note_on_c, 0, 53, 80
2, 107520, Note_on_c, 0, 60, 80
2, 107975, Note_on_c, 0, 53, 0
2, 107975, Note_on_c, 0, 60, 0
2, 108000, Note_on_c, 0, 53, 80
2, 108000, Note_on_c, 0, 60, 80
2, 108455, Note_on_c, 0, 53, 0
2, 108455, Note_on_c, 0, 60, 0
2, 108480, Note_on_c, 0, 52, 80
2, 108480, Note_on_c, 0, 59, 80
2, 108821, Note_on_c, 0, 52, 0
2, 108821, Note_on_c, 0, 59, 0
2, 108840, Note_on_c, 0, 52, 80
2, 108840, Note_on_c, 0, 59, 80
2, 109181, Note_on_c, 0, 52, 0
2, 109181, Note_on_c, 0, 59, 0
2, 109200, Note_on_c, 0, 52, 80
2, 109200, Note_on_c, 0, 59, 80
2, 109427, Note_on_c, 0, 52, 0
2, 109427, Note_on_c, 0, 59, 0
2, 109680, Note_on_c, 0, 57, 80
2, 109680, Note_on_c, 0, 64, 80
2, 110021, Note_on_c, 0, 57, 0
2, 110021, Note_on_c, 0, 64, 0
2, 110040, Note_on_c, 0, 57, 80
2, 110040, Note_on_c, 0, 64, 80
2, 110381, Note_on_c, 0, 57, 0
2, 110381, Note_on_c, 0, 64, 0
2, 110400, Note_on_c, 0, 57, 80
2, 110400, Note_on_c, 0, 64, 80
2, 110741, Note_on_c, 0, 57, 0
2, 110741, Note_on_c, 0, 64, 0
2, 110760, Note_on_c, 0, 57, 80
2, 110760, Note_on_c, 0, 64, 80
2, 111101, Note_on_c, 0, 57, 0
2, 111101, Note_on_c, 0, 64, 0
2, 111120, Note_on_c, 0, 57, 80
2, 111120, Note_on_c, 0, 64, 80
2, 111347, Note_on_c, 0, 57, 0
2, 111347, Note_on_c, 0, 64, 0
2, 111360, Note_on_c, 0, 53, 80
2, 111360, Note_on_c, 0, 60, 80
2, 111815, Note_on_c, 0, 53, 0
2, 111815, Note_on_c, 0, 60, 0
2, 111840, Note_on_c, 0, 53, 80
2, 111840, Note_on_c, 0, 60, 80
2, 112295, Note_on_c, 0, 53, 0
2, 112295, Note_on_c, 0, 60, 0
2, 112320, Note_on_c, 0, 52, 80
2, 112320, Note_on_c, 0, 59, 80
2, 112661, Note_on_c, 0, 52, 0
2, 112661, Note_on_c, 0, 59, 0
2, 112680, Note_on_c, 0, 52, 80
2, 112680, Note_on_c, 0, 59, 80
2, 113021, Note_on_c, 0, 52, 0
2, 113021, Note_on_c, 0, 59, 0
2, 113040, Note_on_c, 0, 52, 80
2, 113040, Note_on_c, 0, 59, 80
2, 113267, Note_on_c, 0, 52, 0
2, 113267, Note_on_c, 0, 59, 0
2, 113520, Note_on_c, 0, 57, 80
2, 113520, Note_on_c, 0, 64, 80
2, 113861, Note_on_c, 0, 57, 0
2, 113861, Note_on_c, 0, 64, 0
2, 113880, Note_on_c, 0, 57, 80
2, 113880, Note_on_c, 0, 64, 80
2, 114221, Note_on_c, 0, 57, 0
2, 114221, Note_on_c, 0, 64, 0
2, 114240, Note_on_c, 0, 57, 80
2, 114240, Note_on_c, 0, 64, 80
2, 114581, Note_on_c, 0, 57, 0
2, 114581, Note_on_c, 0, 64, 0
2, 114600, Note_on_c, 0, 57, 80
2, 114600, Note_on_c, 0, 64, 80
2, 114941, Note_on_c, 0, 57, 0
2, 114941, Note_on_c, 0, 64, 0
2, 114960, Note_on_c, 0, 57, 80
2, 114960, Note_on_c, 0, 64, 80
2, 115187, Note_on_c, 0, 57, 0
2, 115187, Note_on_c, 0, 64, 0
2, 115200, Note_on_c, 0, 53, 80
2, 115200, Note_on_c, 0, 60, 80
2, 115655, Note_on_c, 0, 53, 0
2, 115655, Note_on_c, 0, 60, 0
2, 115680, Note_on_c, 0, 53, 80
2, 115680, Note_on_c, 0, 60, 80
2, 116135, Note_on_c, 0, 53, 0
2, 116135, Note_on_c, 0, 60, 0
2, 116160, Note_on_c, 0, 52, 80
2, 116160, Note_on_c, 0, 59, 80
2, 116501, Note_on_c, 0, 52, 0
2, 116501, Note_on_c, 0, 59, 0
2, 116520, Note_on_c, 0, 52, 80
2, 116520, Note_on_c, 0, 59, 80
2, 116861, Note_on_c, 0, 52, 0
2, 116861, Note_on_c, 0, 59, 0
2, 116880, Note_on_c, 0, 52, 80
2, 116880, Note_on_c, 0, 59, 80
2, 117107, Note_on_c, 0, 52, 0
2, 117107, Note_on_c, 0, 59, 0
2, 117360, Note_on_c, 0, 57, 80
2, 117360, Note_on_c, 0, 64, 80
2, 117701, Note_on_c, 0, 57, 0
2, 117701, Note_on_c, 0, 64, 0
2, 117720, Note_on_c, 0, 57, 80
2, 117720, Note_on_c, 0, 64, 80
2, 118061, Note_on_c, 0, 57, 0
2, 118061, Note_on_c, 0, 64, 0
2, 118080, Note_on_c, 0, 57, 80
2, 118080, Note_on_c, 0, 64, 80
2, 118421, Note_on_c, 0, 57, 0
2, 118421, Note_on_c, 0, 64, 0
2, 118440, Note_on_c, 0, 57, 80
2, 118440, Note_on_c, 0, 64, 80
2, 118781, Note_on_c, 0, 57, 0
2, 118781, Note_on_c, 0, 64, 0
2, 118800, Note_on_c, 0, 57, 80
2, 118800, Note_on_c, 0, 64, 80
2, 119027, Note_on_c, 0, 57, 0
2, 119027, Note_on_c, 0, 64, 0
2, 119040, Note_on_c, 0, 53, 80
2, 119040, Note_on_c, 0, 60, 80
2, 119495, Note_on_c, 0, 53, 0
2, 119495, Note_on_c, 0, 60, 0
2, 119520, Note_on_c, 0, 53, 80
2, 119520, Note_on_c, 0, 60, 80
2, 119975, Note_on_c, 0, 53, 0
2, 119975, Note_on_c, 0, 60, 0
2, 120000, Note_on_c, 0, 52, 80
2, 120000, Note_on_c, 0, 59, 80
2, 120341, Note_on_c, 0, 52, 0
2, 120341, Note_on_c, 0, 59, 0
2, 120360, Note_on_c, 0, 52, 80
2, 120360, Note_on_c, 0, 59, 80
2, 120701, Note_on_c, 0, 52, 0
2, 120701, Note_on_c, 0, 59, 0
2, 120720, Note_on_c, 0, 52, 80
2, 120720, Note_on_c, 0, 59, 80
2, 120947, Note_on_c, 0, 52, 0
2, 120947, Note_on_c, 0, 59, 0
2, 121200, Note_on_c, 0, 57, 80
2, 121200, Note_on_c, 0, 64, 80
2, 121541, Note_on_c, 0, 57, 0
2, 121541, Note_on_c, 0, 64, 0
2, 121560, Note_on_c, 0, 57, 80
2, 121560, Note_on_c, 0, 64, 80
2, 121901, Note_on_c, 0, 57, 0
2, 121901, Note_on_c, 0, 64, 0
2, 121920, Note_on_c, 0, 57, 80
2, 121920, Note_on_c, 0, 64, 80
2, 122261, Note_on_c, 0, 57, 0
2, 122261, Note_on_c, 0, 64, 0
2, 122280, Note_on_c, 0, 57, 80
2, 122280, Note_on_c, 0, 64, 80
2, 122621, Note_on_c, 0, 57, 0
2, 122621, Note_on_c, 0, 64, 0
2, 122640, Note_on_c, 0, 57, 80
2, 122640, Note_on_c, 0, 64, 80
2, 122867, Note_on_c, 0, 57, 0
2, 122867, Note_on_c, 0, 64, 0
2, 122880, Note_on_c, 0, 53, 80
2, 122880, Note_on_c, 0, 57, 80
2, 122880, Note_on_c, 0, 62, 80
2, 123335, Note_on_c, 0, 53, 0
2, 123335, Note_on_c, 0, 57, 0
2, 123335, Note_on_c, 0, 62, 0
2, 123360, Note_on_c, 0, 53, 80
2, 123360, Note_on_c, 0, 57, 80
2, 123360, Note_on_c, 0, 62, 80
2, 123815, Note_on_c, 0, 53, 0
2, 123815, Note_on_c, 0, 57, 0
2, 123815, Note_on_c, 0, 62, 0
2, 123840, Note_on_c, 0, 55, 80
2, 123840, Note_on_c, 0, 62, 80
2, 124181, Note_on_c, 0, 55, 0
2, 124181, Note_on_c, 0, 62, 0
2, 124200, Note_on_c, 0, 55, 80
2, 124200, Note_on_c, 0, 62, 80
2, 124541, Note_on_c, 0, 55, 0
2, 124541, Note_on_c, 0, 62, 0
2, 124560, Note_on_c, 0, 55, 80
2, 124560, Note_on_c, 0, 62, 80
2, 124787, Note_on_c, 0, 55, 0
2, 124787, Note_on_c, 0, 62, 0
2, 125040, Note_on_c, 0, 57, 80
2, 125040, Note_on_c, 0, 64, 80
2, 125381, Note_on_c, 0, 57, 0
2, 125381, Note_on_c, 0, 64, 0
2, 125400, Note_on_c, 0, 57, 80
2, 125400, Note_on_c, 0, 64, 80
2, 125741, Note_on_c, 0, 57, 0
2, 125741, Note_on_c, 0, 64, 0
2, 125760, Note_on_c, 0, 57, 80
2, 125760, Note_on_c, 0, 64, 80
2, 126101, Note_on_c, 0, 57, 0
2, 126101, Note_on_c, 0, 64, 0
2, 126120, Note_on_c, 0, 57, 80
2, 126120, Note_on_c, 0, 62, 80
2, 126461, Note_on_c, 0, 57, 0
2, 126461, Note_on_c, 0, 62, 0
2, 126480, Note_on_c, 0, 57, 80
2, 126480, Note_on_c, 0, 62, 80
2, 126707, Note_on_c, 0, 57, 0
2, 126707, Note_on_c, 0, 62, 0
2, 126720, Note_on_c, 0, 53, 80
2, 126720, Note_on_c, 0, 57, 80
2, 126720, Note_on_c, 0, 62, 80
2, 127175, Note_on_c, 0, 53, 0
2, 127175, Note_on_c, 0, 57, 0
2, 127175, Note_on_c, 0, 62, 0
2, 127200, Note_on_c, 0, 53, 80
2, 127200, Note_on_c, 0, 57, 80
2, 127200, Note_on_c, 0, 62, 80
2, 127655, Note_on_c, 0, 53, 0
2, 127655, Note_on_c, 0, 57, 0
2, 127655, Note_on_c, 0, 62, 0
2, 127680, Note_on_c, 0, 55, 80
2, 127680, Note_on_c, 0, 62, 80
2, 128021, Note_on_c, 0, 55, 0
2, 128021, Note_on_c, 0, 62, 0
2, 128040, Note_on_c, 0, 55, 80
2, 128040, Note_on_c, 0, 62, 80
2, 128381, Note_on_c, 0, 55, 0
2, 128381, Note_on_c, 0, 62, 0
2, 128400, Note_on_c, 0, 55, 80
2, 128400, Note_on_c, 0, 62, 80
2, 128627, Note_on_c, 0, 55, 0
2, 128627, Note_on_c, 0, 62, 0
2, 128880, Note_on_c, 0, 57, 80
2, 128880, Note_on_c, 0, 64, 80
2, 129221, Note_on_c, 0, 57, 0
2, 129221, Note_on_c, 0, 64, 0
2, 129240, Note_on_c, 0, 57, 80
2, 129240, Note_on_c, 0, 64, 80
2, 129581, Note_on_c, 0, 57, 0
2, 129581, Note_on_c, 0, 64, 0
2, 129600, Note_on_c, 0, 57, 80
2, 129600, Note_on_c, 0, 64, 80
2, 129941, Note_on_c, 0, 57, 0
2, 129941, Note_on_c, 0, 64, 0
2, 129960, Note_on_c, 0, 57, 80
2, 129960, Note_on_c, 0, 62, 80
2, 130301, Note_on_c, 0, 57, 0
2, 130301, Note_on_c, 0, 62, 0
2, 130320, Note_on_c, 0, 57, 80
2, 130320, Note_on_c, 0, 62, 80
2, 130547, Note_on_c, 0, 57, 0
2, 130547, Note_on_c, 0, 62, 0
2, 132480, Note_on_c, 0, 53, 80
2, 132480, Note_on_c, 0, 60, 80
2, 132935, Note_on_c, 0, 53, 0
2, 132935, Note_on_c, 0, 60, 0
2, 132960, Note_on_c, 0, 53, 80
2, 132960, Note_on_c, 0, 60, 80
2, 133415, Note_on_c, 0, 53, 0
2, 133415, Note_on_c, 0, 60, 0
2, 133440, Note_on_c, 0, 52, 80
2, 133440, Note_on_c, 0, 59, 80
2, 133781, Note_on_c, 0, 52, 0
2, 133781, Note_on_c, 0, 59, 0
2, 133800, Note_on_c, 0, 52, 80
2, 133800, Note_on_c, 0, 59, 80
2, 134141, Note_on_c, 0, 52, 0
2, 134141, Note_on_c, 0, 59, 0
2, 134160, Note_on_c, 0, 52, 80
2, 134160, Note_on_c, 0, 59, 80
2, 134387, Note_on_c, 0, 52, 0
2, 134387, Note_on_c, 0, 59, 0
2, 134640, Note_on_c, 0, 57, 80
2, 134640, Note_on_c, 0, 64, 80
2, 134981, Note_on_c, 0, 57, 0
2, 134981, Note_on_c, 0, 64, 0
2, 135000, Note_on_c, 0, 57, 80
2, 135000, Note_on_c, 0, 64, 80
2, 135341, Note_on_c, 0, 57, 0
2, 135341, Note_on_c, 0, 64, 0
2, 135360, Note_on_c, 0, 57, 80
2, 135360, Note_on_c, 0, 64, 80
2, 135701, Note_on_c, 0, 57, 0
2, 135701, Note_on_c, 0, 64, 0
2, 135720, Note_on_c, 0, 57, 80
2, 135720, Note_on_c, 0, 64, 80
2, 136061, Note_on_c, 0, 57, 0
2, 136061, Note_on_c, 0, 64, 0
2, 136080, Note_on_c, 0, 57, 80
2, 136080, Note_on_c, 0, 64, 80
2, 136307, Note_on_c, 0, 57, 0
2, 136307, Note_on_c, 0, 64, 0
2, 136320, Note_on_c, 0, 53, 80
2, 136320, Note_on_c, 0, 60, 80
2, 136775, Note_on_c, 0, 53, 0
2, 136775, Note_on_c, 0, 60, 0
2, 136800, Note_on_c, 0, 53, 80
2, 136800, Note_on_c, 0, 60, 80
2, 137255, Note_on_c, 0, 53, 0
2, 137255, Note_on_c, 0, 60, 0
2, 137280, Note_on_c, 0, 52, 80
2, 137280, Note_on_c, 0, 59, 80
2, 137621, Note_on_c, 0, 52, 0
2, 137621, Note_on_c, 0, 59, 0
2, 137640, Note_on_c, 0, 52, 80
2, 137640, Note_on_c, 0, 59, 80
2, 137981, Note_on_c, 0, 52, 0
2, 137981, Note_on_c, 0, 59, 0
2, 138000, Note_on_c, 0, 52, 80
2, 138000, Note_on_c, 0, 59, 80
2, 138227, Note_on_c, 0, 52, 0
2, 138227, Note_on_c, 0, 59, 0
2, 138480, Note_on_c, 0, 57, 80
2, 138480, Note_on_c, 0, 64, 80
2, 138821, Note_on_c, 0, 57, 0
2, 138821, Note_on_c, 0, 64, 0
2, 138840, Note_on_c, 0, 57, 80
2, 138840, Note_on_c, 0, 64, 80
2, 139181, Note_on_c, 0, 57, 0
2, 139181, Note_on_c, 0, 64, 0
2, 139200, Note_on_c, 0, 57, 80
2, 139200, Note_on_c, 0, 64, 80
2, 139541, Note_on_c, 0, 57, 0
2, 139541, Note_on_c, 0, 64, 0
2, 139560, Note_on_c, 0, 57, 80
2, 139560, Note_on_c, 0, 64, 80
2, 139901, Note_on_c, 0, 57, 0
2, 139901, Note_on_c, 0, 64, 0
2, 139920, Note_on_c, 0, 57, 80
2, 139920, Note_on_c, 0, 64, 80
2, 140147, Note_on_c, 0, 57, 0
2, 140147, Note_on_c, 0, 64, 0
2, 140160, Note_on_c, 0, 53, 80
2, 140160, Note_on_c, 0, 57, 80
2, 140160, Note_on_c, 0, 62, 80
2, 140615, Note_on_c, 0, 53, 0
2, 140615, Note_on_c, 0, 57, 0
2, 140615, Note_on_c, 0, 62, 0
2, 140640, Note_on_c, 0, 53, 80
2, 140640, Note_on_c, 0, 57, 80
2, 140640, Note_on_c, 0, 62, 80
2, 141095, Note_on_c, 0, 53, 0
2, 141095, Note_on_c, 0, 57, 0
2, 141095, Note_on_c, 0, 62, 0
2, 141120, Note_on_c, 0, 55, 80
2, 141120, Note_on_c, 0, 62, 80
2, 141461, Note_on_c, 0, 55, 0
2, 141461, Note_on_c, 0, 62, 0
2, 141480, Note_on_c, 0, 55, 80
2, 141480, Note_on_c, 0, 62, 80
2, 141821, Note_on_c, 0, 55, 0
2, 141821, Note_on_c, 0, 62, 0
2, 141840, Note_on_c, 0, 55, 80
2, 141840, Note_on_c, 0, 62, 80
2, 142067, Note_on_c, 0, 55, 0
2, 142067, Note_on_c, 0, 62, 0
2, 142320, Note_on_c, 0, 57, 80
2, 142320, Note_on_c, 0, 64, 80
2, 142661, Note_on_c, 0, 57, 0
2, 142661, Note_on_c, 0, 64, 0
2, 142680, Note_on_c, 0, 57, 80
2, 142680, Note_on_c, 0, 64, 80
2, 143021, Note_on_c, 0, 57, 0
2, 143021, Note_on_c, 0, 64, 0
2, 143040, Note_on_c, 0, 57, 80
2, 143040, Note_on_c, 0, 64, 80
2, 143381, Note_on_c, 0, 57, 0
2, 143381, Note_on_c, 0, 64, 0
2, 143400, Note_on_c, 0, 57, 80
2, 143400, Note_on_c, 0, 62, 80
2, 143741, Note_on_c, 0, 57, 0
2, 143741, Note_on_c, 0, 62, 0
2, 143760, Note_on_c, 0, 57, 80
2, 143760, Note_on_c, 0, 62, 80
2, 143987, Note_on_c, 0, 57, 0
2, 143987, Note_on_c, 0, 62, 0
2, 144000, Note_on_c, 0, 53, 80
2, 144000, Note_on_c, 0, 57, 80
2, 144000, Note_on_c, 0, 62, 80
2, 144455, Note_on_c, 0, 53, 0
2, 144455, Note_on_c, 0, 57, 0
2, 144455, Note_on_c, 0, 62, 0
2, 144480, Note_on_c, 0, 53, 80
2, 144480, Note_on_c, 0, 57, 80
2, 144480, Note_on_c, 0, 62, 80
2, 144935, Note_on_c, 0, 53, 0
2, 144935, Note_on_c, 0, 57, 0
2, 144935, Note_on_c, 0, 62, 0
2, 144960, Note_on_c, 0, 55, 80
2, 144960, Note_on_c, 0, 62, 80
2, 145301, Note_on_c, 0, 55, 0
2, 145301, Note_on_c, 0, 62, 0
2, 145320, Note_on_c, 0, 55, 80
2, 145320, Note_on_c, 0, 62, 80
2, 145661, Note_on_c, 0, 55, 0
2, 145661, Note_on_c, 0, 62, 0
2, 145680, Note_on_c, 0, 55, 80
2, 145680, Note_on_c, 0, 62, 80
2, 145907, Note_on_c, 0, 55, 0
2, 145907, Note_on_c, 0, 62, 0
2, 146160, Note_on_c, 0, 57, 80
2, 146160, Note_on_c, 0, 64, 80
2, 146501, Note_on_c, 0, 57, 0
2, 146501, Note_on_c, 0, 64, 0
2, 146520, Note_on_c, 0, 57, 80
2, 146520, Note_on_c, 0, 64, 80
2, 146861, Note_on_c, 0, 57, 0
2, 146861, Note_on_c, 0, 64, 0
2, 146880, Note_on_c, 0, 57, 80
2, 146880, Note_on_c, 0, 64, 80
2, 147221, Note_on_c, 0, 57, 0
2, 147221, Note_on_c, 0, 64, 0
2, 147240, Note_on_c, 0, 57, 80
2, 147240, Note_on_c, 0, 62, 80
2, 147581, Note_on_c, 0, 57, 0
2, 147581, Note_on_c, 0, 62, 0
2, 147600, Note_on_c, 0, 57, 80
2, 147600, Note_on_c, 0, 62, 80
2, 147827, Note_on_c, 0, 57, 0
2, 147827, Note_on_c, 0, 62, 0
2, 147840, Note_on_c, 0, 53, 80
2, 147840, Note_on_c, 0, 60, 80
2, 148523, Note_on_c, 0, 53, 0
2, 148523, Note_on_c, 0, 60, 0
2, 148560, Note_on_c, 0, 52, 80
2, 148560, Note_on_c, 0, 59, 80
2, 148787, Note_on_c, 0, 52, 0
2, 148787, Note_on_c, 0, 59, 0
2, 148800, Note_on_c, 0, 52, 80
2, 148800, Note_on_c, 0, 59, 80
2, 149141, Note_on_c, 0, 52, 0
2, 149141, Note_on_c, 0, 59, 0
2, 149160, Note_on_c, 0, 52, 80
2, 149160, Note_on_c, 0, 59, 80
2, 149501, Note_on_c, 0, 52, 0
2, 149501, Note_on_c, 0, 59, 0
2, 149520, Note_on_c, 0, 52, 80
2, 149520, Note_on_c, 0, 59, 80
2, 149747, Note_on_c, 0, 52, 0
2, 149747, Note_on_c, 0, 59, 0
2, 150000, Note_on_c, 0, 57, 80
2, 150000, Note_on_c, 0, 64, 80
2, 150683, Note_on_c, 0, 57, 0
2, 150683, Note_on_c, 0, 64, 0
2, 150720, Note_on_c, 0, 57, 80
2, 150720, Note_on_c, 0, 64, 80
2, 151175, Note_on_c, 0, 57, 0
2, 151175, Note_on_c, 0, 64, 0
2, 151200, Note_on_c, 0, 57, 80
2, 151200, Note_on_c, 0, 62, 80
2, 151655, Note_on_c, 0, 57, 0
2, 151655, Note_on_c, 0, 62, 0
2, 151680, Note_on_c, 0, 53, 80
2, 151680, Note_on_c, 0, 60, 80
2, 152363, Note_on_c, 0, 53, 0
2, 152363, Note_on_c, 0, 60, 0
2, 152400, Note_on_c, 0, 52, 80
2, 152400, Note_on_c, 0, 59, 80
2, 152627, Note_on_c, 0, 52, 0
2, 152627, Note_on_c, 0, 59, 0
2, 152640, Note_on_c, 0, 52, 80
2, 152640, Note_on_c, 0, 59, 80
2, 152981, Note_on_c, 0, 52, 0
2, 152981, Note_on_c, 0, 59, 0
2, 153000, Note_on_c, 0, 52, 80
2, 153000, Note_on_c, 0, 59, 80
2, 153341, Note_on_c, 0, 52, 0
2, 153341, Note_on_c, 0, 59, 0
2, 153360, Note_on_c, 0, 52, 80
2, 153360, Note_on_c, 0, 59, 80
2, 153587, Note_on_c, 0, 52, 0
2, 153587, Note_on_c, 0, 59, 0
2, 153840, Note_on_c, 0, 57, 80
2, 153840, Note_on_c, 0, 64, 80
2, 154523, Note_on_c, 0, 57, 0
2, 154523, Note_on_c, 0, 64, 0
2, 154560, Note_on_c, 0, 57, 80
2, 154560, Note_on_c, 0, 64, 80
2, 155015, Note_on_c, 0, 57, 0
2, 155015, Note_on_c, 0, 64, 0
2, 155040, Note_on_c, 0, 57, 80
2, 155040, Note_on_c, 0, 62, 80
2, 155495, Note_on_c, 0, 57, 0
2, 155495, Note_on_c, 0, 62, 0
2, 155520, Note_on_c, 0, 53, 80
2, 155520, Note_on_c, 0, 57, 80
2, 155520, Note_on_c, 0, 62, 80
2, 156203, Note_on_c, 0, 53, 0
2, 156203, Note_on_c, 0, 57, 0
2, 156203, Note_on_c, 0, 62, 0
2, 156240, Note_on_c, 0, 53, 80
2, 156240, Note_on_c, 0, 57, 80
2, 156240, Note_on_c, 0, 62, 80
2, 156467, Note_on_c, 0, 53, 0
2, 156467, Note_on_c, 0, 57, 0
2, 156467, Note_on_c, 0, 62, 0
2, 156480, Note_on_c, 0, 55, 80
2, 156480, Note_on_c, 0, 62, 80
2, 156821, Note_on_c, 0, 55, 0
2, 156821, Note_on_c, 0, 62, 0
2, 156840, Note_on_c, 0, 55, 80
2, 156840, Note_on_c, 0, 62, 80
2, 157181, Note_on_c, 0, 55, 0
2, 157181, Note_on_c, 0, 62, 0
2, 157200, Note_on_c, 0, 55, 80
2, 157200, Note_on_c, 0, 62, 80
2, 157427, Note_on_c, 0, 55, 0
2, 157427, Note_on_c, 0, 62, 0
2, 157680, Note_on_c, 0, 57, 80
2, 157680, Note_on_c, 0, 64, 80
2, 158363, Note_on_c, 0, 57, 0
2, 158363, Note_on_c, 0, 64, 0
2, 158400, Note_on_c, 0, 57, 80
2, 158400, Note_on_c, 0, 64, 80
2, 158855, Note_on_c, 0, 57, 0
2, 158855, Note_on_c, 0, 64, 0
2, 158880, Note_on_c, 0, 57, 80
2, 158880, Note_on_c, 0, 62, 80
2, 159335, Note_on_c, 0, 57, 0
2, 159335, Note_on_c, 0, 62, 0
2, 159360, Note_on_c, 0, 53, 80
2, 159360, Note_on_c, 0, 57, 80
2, 159360, Note_on_c, 0, 62, 80
2, 160043, Note_on_c, 0, 53, 0
2, 160043, Note_on_c, 0, 57, 0
2, 160043, Note_on_c, 0, 62, 0
2, 160080, Note_on_c, 0, 53, 80
2, 160080, Note_on_c, 0, 57, 80
2, 160080, Note_on_c, 0, 62, 80
2, 160307, Note_on_c, 0, 53, 0
2, 160307, Note_on_c, 0, 57, 0
2, 160307, Note_on_c, 0, 62, 0
2, 160320, Note_on_c, 0, 55, 80
2, 160320, Note_on_c, 0, 62, 80
2, 160661, Note_on_c, 0, 55, 0
2, 160661, Note_on_c, 0, 62, 0
2, 160680, Note_on_c, 0, 55, 80
2, 160680, Note_on_c, 0, 62, 80
2, 161021, Note_on_c, 0, 55, 0
2, 161021, Note_on_c, 0, 62, 0
2, 161040, Note_on_c, 0, 55, 80
2, 161040, Note_on_c, 0, 62, 80
2, 161267, Note_on_c, 0, 55, 0
2, 161267, Note_on_c, 0, 62, 0
2, 161520, Note_on_c, 0, 57, 80
2, 161520, Note_on_c, 0, 64, 80
2, 162203, Note_on_c, 0, 57, 0
2, 162203, Note_on_c, 0, 64, 0
2, 162240, Note_on_c, 0, 57, 80
2, 162240, Note_on_c, 0, 64, 80
2, 162695, Note_on_c, 0, 57, 0
2, 162695, Note_on_c, 0, 64, 0
2, 162720, Note_on_c, 0, 57, 80
2, 162720, Note_on_c, 0, 62, 80
2, 163175, Note_on_c, 0, 57, 0
2, 163175, Note_on_c, 0, 62, 0
2, 163176, End_track
3, 0, Start_track
3, 0, Title_t, "Electric Bass, Bass\000"
3, 0, Key_signature, 0, "major"
3, 0, Control_c, 1, 121, 0
3, 0, Program_c, 1, 33
3, 0, Control_c, 1, 7, 100
3, 0, Control_c, 1, 10, 64
3, 0, Control_c, 1, 91, 0
3, 0, Control_c, 1, 93, 0
3, 0, MIDI_port, 0
3, 0, Control_c, 3, 121, 0
3, 0, Program_c, 3, 36
3, 0, Control_c, 3, 7, 100
3, 0, Control_c, 3, 10, 64
3, 0, Control_c, 3, 91, 0
3, 0, Control_c, 3, 93, 0
3, 0, MIDI_port, 0
3, 0, Control_c, 4, 121, 0
3, 0, Program_c, 4, 37
3, 0, Control_c, 4, 7, 100
3, 0, Control_c, 4, 10, 64
3, 0, Control_c, 4, 91, 0
3, 0, Control_c, 4, 93, 0
3, 0, MIDI_port, 0
3, 30720, Note_on_c, 1, 65, 80
3, 31679, Note_on_c, 1, 65, 0
3, 31680, Note_on_c, 1, 64, 80
3, 32639, Note_on_c, 1, 64, 0
3, 32640, Note_on_c, 1, 57, 80
3, 34559, Note_on_c, 1, 57, 0
3, 34560, Note_on_c, 1, 65, 80
3, 35519, Note_on_c, 1, 65, 0
3, 35520, Note_on_c, 1, 64, 80
3, 36479, Note_on_c, 1, 64, 0
3, 36480, Note_on_c, 1, 57, 80
3, 38399, Note_on_c, 1, 57, 0
3, 38400, Note_on_c, 1, 62, 80
3, 39359, Note_on_c, 1, 62, 0
3, 39360, Note_on_c, 1, 67, 80
3, 40319, Note_on_c, 1, 67, 0
3, 40320, Note_on_c, 1, 57, 80
3, 42239, Note_on_c, 1, 57, 0
3, 42240, Note_on_c, 1, 62, 80
3, 43199, Note_on_c, 1, 62, 0
3, 43200, Note_on_c, 1, 55, 80
3, 44159, Note_on_c, 1, 55, 0
3, 44160, Note_on_c, 1, 57, 80
3, 46079, Note_on_c, 1, 57, 0
3, 46080, Note_on_c, 1, 53, 80
3, 47039, Note_on_c, 1, 53, 0
3, 47040, Note_on_c, 1, 52, 80
3, 47999, Note_on_c, 1, 52, 0
3, 48000, Note_on_c, 1, 57, 80
3, 49919, Note_on_c, 1, 57, 0
3, 49920, Note_on_c, 1, 53, 80
3, 50879, Note_on_c, 1, 53, 0
3, 50880, Note_on_c, 1, 52, 80
3, 51839, Note_on_c, 1, 52, 0
3, 51840, Note_on_c, 1, 57, 80
3, 53759, Note_on_c, 1, 57, 0
3, 53760, Note_on_c, 1, 62, 80
3, 54719, Note_on_c, 1, 62, 0
3, 54720, Note_on_c, 1, 67, 80
3, 55679, Note_on_c, 1, 67, 0
3, 55680, Note_on_c, 1, 57, 80
3, 57599, Note_on_c, 1, 57, 0
3, 57600, Note_on_c, 1, 62, 80
3, 58559, Note_on_c, 1, 62, 0
3, 58560, Note_on_c, 1, 67, 80
3, 59519, Note_on_c, 1, 67, 0
3, 59520, Note_on_c, 1, 57, 80
3, 61439, Note_on_c, 1, 57, 0
3, 61440, Note_on_c, 1, 65, 80
3, 62399, Note_on_c, 1, 65, 0
3, 62400, Note_on_c, 1, 64, 80
3, 63359, Note_on_c, 1, 64, 0
3, 63360, Note_on_c, 1, 57, 80
3, 64799, Note_on_c, 1, 57, 0
3, 64800, Note_on_c, 1, 62, 80
3, 65279, Note_on_c, 1, 62, 0
3, 65280, Note_on_c, 1, 65, 80
3, 66239, Note_on_c, 1, 65, 0
3, 66240, Note_on_c, 1, 64, 80
3, 67199, Note_on_c, 1, 64, 0
3, 67200, Note_on_c, 1, 57, 80
3, 68639, Note_on_c, 1, 57, 0
3, 68640, Note_on_c, 1, 62, 80
3, 68879, Note_on_c, 1, 62, 0
3, 68880, Note_on_c, 1, 57, 80
3, 69119, Note_on_c, 1, 57, 0
3, 69120, Note_on_c, 1, 62, 80
3, 70079, Note_on_c, 1, 62, 0
3, 70080, Note_on_c, 1, 67, 80
3, 70799, Note_on_c, 1, 67, 0
3, 70800, Note_on_c, 1, 64, 80
3, 71039, Note_on_c, 1, 64, 0
3, 71040, Note_on_c, 1, 57, 80
3, 72479, Note_on_c, 1, 57, 0
3, 72480, Note_on_c, 1, 57, 80
3, 72959, Note_on_c, 1, 57, 0
3, 72960, Note_on_c, 1, 62, 80
3, 73919, Note_on_c, 1, 62, 0
3, 73920, Note_on_c, 1, 67, 80
3, 74639, Note_on_c, 1, 67, 0
3, 74640, Note_on_c, 1, 64, 80
3, 74879, Note_on_c, 1, 64, 0
3, 74880, Note_on_c, 1, 57, 80
3, 76319, Note_on_c, 1, 57, 0
3, 76320, Note_on_c, 1, 62, 80
3, 76799, Note_on_c, 1, 62, 0
3, 76800, Note_on_c, 1, 65, 80
3, 77759, Note_on_c, 1, 65, 0
3, 77760, Note_on_c, 1, 64, 80
3, 78719, Note_on_c, 1, 64, 0
3, 78720, Note_on_c, 1, 57, 80
3, 80639, Note_on_c, 1, 57, 0
3, 80640, Note_on_c, 1, 65, 80
3, 81599, Note_on_c, 1, 65, 0
3, 81600, Note_on_c, 1, 64, 80
3, 82559, Note_on_c, 1, 64, 0
3, 82560, Note_on_c, 1, 57, 80
3, 84479, Note_on_c, 1, 57, 0
3, 84480, Note_on_c, 1, 62, 80
3, 85439, Note_on_c, 1, 62, 0
3, 85440, Note_on_c, 1, 55, 80
3, 86399, Note_on_c, 1, 55, 0
3, 86400, Note_on_c, 1, 57, 80
3, 88319, Note_on_c, 1, 57, 0
3, 88320, Note_on_c, 1, 53, 80
3, 89279, Note_on_c, 1, 53, 0
3, 89280, Note_on_c, 1, 55, 80
3, 90239, Note_on_c, 1, 55, 0
3, 90240, Note_on_c, 1, 57, 80
3, 92159, Note_on_c, 1, 57, 0
3, 115200, Note_on_c, 1, 53, 80
3, 115679, Note_on_c, 1, 53, 0
3, 115680, Note_on_c, 1, 53, 80
3, 116159, Note_on_c, 1, 53, 0
3, 116160, Note_on_c, 1, 52, 80
3, 116519, Note_on_c, 1, 52, 0
3, 116520, Note_on_c, 1, 52, 80
3, 116879, Note_on_c, 1, 52, 0
3, 116880, Note_on_c, 1, 52, 80
3, 117119, Note_on_c, 1, 52, 0
3, 117360, Note_on_c, 1, 57, 80
3, 117719, Note_on_c, 1, 57, 0
3, 117720, Note_on_c, 1, 57, 80
3, 118079, Note_on_c, 1, 57, 0
3, 118080, Note_on_c, 1, 57, 80
3, 118439, Note_on_c, 1, 57, 0
3, 118440, Note_on_c, 1, 57, 80
3, 118799, Note_on_c, 1, 57, 0
3, 118800, Note_on_c, 1, 57, 80
3, 119039, Note_on_c, 1, 57, 0
3, 119040, Note_on_c, 1, 53, 80
3, 119519, Note_on_c, 1, 53, 0
3, 119520, Note_on_c, 1, 53, 80
3, 119999, Note_on_c, 1, 53, 0
3, 120000, Note_on_c, 1, 52, 80
3, 120359, Note_on_c, 1, 52, 0
3, 120360, Note_on_c, 1, 52, 80
3, 120719, Note_on_c, 1, 52, 0
3, 120720, Note_on_c, 1, 52, 80
3, 120959, Note_on_c, 1, 52, 0
3, 121200, Note_on_c, 1, 57, 80
3, 121559, Note_on_c, 1, 57, 0
3, 121560, Note_on_c, 1, 57, 80
3, 121919, Note_on_c, 1, 57, 0
3, 121920, Note_on_c, 1, 57, 80
3, 122279, Note_on_c, 1, 57, 0
3, 122280, Note_on_c, 1, 57, 80
3, 122639, Note_on_c, 1, 57, 0
3, 122640, Note_on_c, 1, 57, 80
3, 122879, Note_on_c, 1, 57, 0
3, 122880, Note_on_c, 1, 50, 80
3, 123359, Note_on_c, 1, 50, 0
3, 123360, Note_on_c, 1, 50, 80
3, 123839, Note_on_c, 1, 50, 0
3, 123840, Note_on_c, 1, 55, 80
3, 124199, Note_on_c, 1, 55, 0
3, 124200, Note_on_c, 1, 55, 80
3, 124559, Note_on_c, 1, 55, 0
3, 124560, Note_on_c, 1, 55, 80
3, 124799, Note_on_c, 1, 55, 0
3, 125040, Note_on_c, 1, 57, 80
3, 125399, Note_on_c, 1, 57, 0
3, 125400, Note_on_c, 1, 57, 80
3, 125759, Note_on_c, 1, 57, 0
3, 125760, Note_on_c, 1, 57, 80
3, 126119, Note_on_c, 1, 57, 0
3, 126120, Note_on_c, 1, 57, 80
3, 126479, Note_on_c, 1, 57, 0
3, 126480, Note_on_c, 1, 57, 80
3, 126719, Note_on_c, 1, 57, 0
3, 126720, Note_on_c, 1, 50, 80
3, 127199, Note_on_c, 1, 50, 0
3, 127200, Note_on_c, 1, 50, 80
3, 127679, Note_on_c, 1, 50, 0
3, 127680, Note_on_c, 1, 55, 80
3, 128039, Note_on_c, 1, 55, 0
3, 128040, Note_on_c, 1, 55, 80
3, 128399, Note_on_c, 1, 55, 0
3, 128400, Note_on_c, 1, 55, 80
3, 128639, Note_on_c, 1, 55, 0
3, 128880, Note_on_c, 1, 57, 80
3, 129239, Note_on_c, 1, 57, 0
3, 129240, Note_on_c, 1, 57, 80
3, 129599, Note_on_c, 1, 57, 0
3, 129600, Note_on_c, 1, 57, 80
3, 129959, Note_on_c, 1, 57, 0
3, 129960, Note_on_c, 1, 57, 80
3, 130319, Note_on_c, 1, 57, 0
3, 130320, Note_on_c, 1, 57, 80
3, 130559, Note_on_c, 1, 57, 0
3, 132480, Note_on_c, 1, 53, 80
3, 132959, Note_on_c, 1, 53, 0
3, 132960, Note_on_c, 1, 53, 80
3, 133439, Note_on_c, 1, 53, 0
3, 133440, Note_on_c, 1, 52, 80
3, 133799, Note_on_c, 1, 52, 0
3, 133800, Note_on_c, 1, 52, 80
3, 134159, Note_on_c, 1, 52, 0
3, 134160, Note_on_c, 1, 52, 80
3, 134399, Note_on_c, 1, 52, 0
3, 134640, Note_on_c, 1, 57, 80
3, 134999, Note_on_c, 1, 57, 0
3, 135000, Note_on_c, 1, 57, 80
3, 135359, Note_on_c, 1, 57, 0
3, 135360, Note_on_c, 1, 57, 80
3, 135719, Note_on_c, 1, 57, 0
3, 135720, Note_on_c, 1, 57, 80
3, 136079, Note_on_c, 1, 57, 0
3, 136080, Note_on_c, 1, 57, 80
3, 136319, Note_on_c, 1, 57, 0
3, 136320, Note_on_c, 1, 53, 80
3, 136799, Note_on_c, 1, 53, 0
3, 136800, Note_on_c, 1, 53, 80
3, 137279, Note_on_c, 1, 53, 0
3, 137280, Note_on_c, 1, 52, 80
3, 137639, Note_on_c, 1, 52, 0
3, 137640, Note_on_c, 1, 52, 80
3, 137999, Note_on_c, 1, 52, 0
3, 138000, Note_on_c, 1, 52, 80
3, 138239, Note_on_c, 1, 52, 0
3, 138480, Note_on_c, 1, 57, 80
3, 138839, Note_on_c, 1, 57, 0
3, 138840, Note_on_c, 1, 57, 80
3, 139199, Note_on_c, 1, 57, 0
3, 139200, Note_on_c, 1, 57, 80
3, 139559, Note_on_c, 1, 57, 0
3, 139560, Note_on_c, 1, 57, 80
3, 139919, Note_on_c, 1, 57, 0
3, 139920, Note_on_c, 1, 57, 80
3, 140159, Note_on_c, 1, 57, 0
3, 140160, Note_on_c, 1, 50, 80
3, 140639, Note_on_c, 1, 50, 0
3, 140640, Note_on_c, 1, 50, 80
3, 141119, Note_on_c, 1, 50, 0
3, 141120, Note_on_c, 1, 55, 80
3, 141479, Note_on_c, 1, 55, 0
3, 141480, Note_on_c, 1, 55, 80
3, 141839, Note_on_c, 1, 55, 0
3, 141840, Note_on_c, 1, 55, 80
3, 142079, Note_on_c, 1, 55, 0
3, 142320, Note_on_c, 1, 57, 80
3, 142679, Note_on_c, 1, 57, 0
3, 142680, Note_on_c, 1, 57, 80
3, 143039, Note_on_c, 1, 57, 0
3, 143040, Note_on_c, 1, 57, 80
3, 143399, Note_on_c, 1, 57, 0
3, 143400, Note_on_c, 1, 57, 80
3, 143759, Note_on_c, 1, 57, 0
3, 143760, Note_on_c, 1, 57, 80
3, 143999, Note_on_c, 1, 57, 0
3, 144000, Note_on_c, 1, 50, 80
3, 144479, Note_on_c, 1, 50, 0
3, 144480, Note_on_c, 1, 50, 80
3, 144959, Note_on_c, 1, 50, 0
3, 144960, Note_on_c, 1, 55, 80
3, 145319, Note_on_c, 1, 55, 0
3, 145320, Note_on_c, 1, 55, 80
3, 145679, Note_on_c, 1, 55, 0
3, 145680, Note_on_c, 1, 55, 80
3, 145919, Note_on_c, 1, 55, 0
3, 146160, Note_on_c, 1, 57, 80
3, 146519, Note_on_c, 1, 57, 0
3, 146520, Note_on_c, 1, 57, 80
3, 146879, Note_on_c, 1, 57, 0
3, 146880, Note_on_c, 1, 57, 80
3, 147239, Note_on_c, 1, 57, 0
3, 147240, Note_on_c, 1, 57, 80
3, 147599, Note_on_c, 1, 57, 0
3, 147600, Note_on_c, 1, 57, 80
3, 147839, Note_on_c, 1, 57, 0
3, 147840, Note_on_c, 1, 53, 80
3, 148559, Note_on_c, 1, 53, 0
3, 148560, Note_on_c, 1, 52, 80
3, 148799, Note_on_c, 1, 52, 0
3, 148800, Note_on_c, 1, 52, 80
3, 149519, Note_on_c, 1, 52, 0
3, 149520, Note_on_c, 1, 52, 80
3, 149759, Note_on_c, 1, 52, 0
3, 150000, Note_on_c, 1, 57, 80
3, 150479, Note_on_c, 1, 57, 0
3, 150480, Note_on_c, 1, 57, 80
3, 150719, Note_on_c, 1, 57, 0
3, 150720, Note_on_c, 1, 57, 80
3, 151199, Note_on_c, 1, 57, 0
3, 151200, Note_on_c, 1, 57, 80
3, 151439, Note_on_c, 1, 57, 0
3, 151440, Note_on_c, 1, 53, 80
3, 151679, Note_on_c, 1, 53, 0
3, 151680, Note_on_c, 1, 53, 80
3, 152399, Note_on_c, 1, 53, 0
3, 152400, Note_on_c, 1, 52, 80
3, 152639, Note_on_c, 1, 52, 0
3, 152640, Note_on_c, 1, 52, 80
3, 153359, Note_on_c, 1, 52, 0
3, 153360, Note_on_c, 1, 52, 80
3, 153599, Note_on_c, 1, 52, 0
3, 153840, Note_on_c, 1, 57, 80
3, 154319, Note_on_c, 1, 57, 0
3, 154320, Note_on_c, 1, 57, 80
3, 154559, Note_on_c, 1, 57, 0
3, 154560, Note_on_c, 1, 57, 80
3, 155039, Note_on_c, 1, 57, 0
3, 155040, Note_on_c, 1, 57, 80
3, 155279, Note_on_c, 1, 57, 0
3, 155280, Note_on_c, 1, 53, 80
3, 155519, Note_on_c, 1, 53, 0
3, 155520, Note_on_c, 1, 50, 80
3, 156239, Note_on_c, 1, 50, 0
3, 156240, Note_on_c, 1, 50, 80
3, 156479, Note_on_c, 1, 50, 0
3, 156480, Note_on_c, 1, 55, 80
3, 157199, Note_on_c, 1, 55, 0
3, 157200, Note_on_c, 1, 55, 80
3, 157439, Note_on_c, 1, 55, 0
3, 157680, Note_on_c, 1, 57, 80
3, 158159, Note_on_c, 1, 57, 0
3, 158160, Note_on_c, 1, 57, 80
3, 158399, Note_on_c, 1, 57, 0
3, 158400, Note_on_c, 1, 57, 80
3, 158879, Note_on_c, 1, 57, 0
3, 158880, Note_on_c, 1, 57, 80
3, 159119, Note_on_c, 1, 57, 0
3, 159120, Note_on_c, 1, 53, 80
3, 159359, Note_on_c, 1, 53, 0
3, 159360, Note_on_c, 1, 50, 80
3, 160079, Note_on_c, 1, 50, 0
3, 160080, Note_on_c, 1, 50, 80
3, 160319, Note_on_c, 1, 50, 0
3, 160320, Note_on_c, 1, 55, 80
3, 161039, Note_on_c, 1, 55, 0
3, 161040, Note_on_c, 1, 55, 80
3, 161279, Note_on_c, 1, 55, 0
3, 161520, Note_on_c, 1, 57, 80
3, 161999, Note_on_c, 1, 57, 0
3, 162000, Note_on_c, 1, 57, 80
3, 162239, Note_on_c, 1, 57, 0
3, 162240, Note_on_c, 1, 57, 80
3, 162719, Note_on_c, 1, 57, 0
3, 162720, Note_on_c, 1, 57, 80
3, 162959, Note_on_c, 1, 57, 0
3, 162960, Note_on_c, 1, 53, 80
3, 163199, Note_on_c, 1, 53, 0
3, 163200, Note_on_c, 1, 50, 80
3, 164159, Note_on_c, 1, 50, 0
3, 164160, Note_on_c, 1, 55, 80
3, 165119, Note_on_c, 1, 55, 0
3, 165120, Note_on_c, 1, 57, 80
3, 166079, Note_on_c, 1, 57, 0
3, 166080, Note_on_c, 1, 57, 80
3, 166559, Note_on_c, 1, 57, 0
3, 166560, Note_on_c, 1, 57, 80
3, 167039, Note_on_c, 1, 57, 0
3, 167040, Note_on_c, 1, 50, 80
3, 167999, Note_on_c, 1, 50, 0
3, 168000, Note_on_c, 1, 55, 80
3, 168959, Note_on_c, 1, 55, 0
3, 168960, Note_on_c, 1, 57, 80
3, 169919, Note_on_c, 1, 57, 0
3, 169920, Note_on_c, 1, 57, 80
3, 170399, Note_on_c, 1, 57, 0
3, 170400, Note_on_c, 1, 57, 80
3, 170879, Note_on_c, 1, 57, 0
3, 170880, End_track
4, 0, Start_track
4, 0, Title_t, "Chimes, Bell\000"
4, 0, Key_signature, 0, "major"
4, 0, Control_c, 2, 121, 0
4, 0, Program_c, 2, 14
4, 0, Control_c, 2, 7, 100
4, 0, Control_c, 2, 10, 64
4, 0, Control_c, 2, 91, 0
4, 0, Control_c, 2, 93, 0
4, 0, MIDI_port, 0
4, 131040, Note_on_c, 2, 74, 80
4, 131519, Note_on_c, 2, 74, 0
4, 131520, Note_on_c, 2, 74, 80
4, 131999, Note_on_c, 2, 74, 0
4, 132000, Note_on_c, 2, 69, 80
4, 132119, Note_on_c, 2, 69, 0
4, 132120, Note_on_c, 2, 67, 80
4, 132299, Note_on_c, 2, 67, 0
4, 132480, Note_on_c, 2, 69, 80
4, 132959, Note_on_c, 2, 69, 0
4, 132960, Note_on_c, 2, 69, 80
4, 133439, Note_on_c, 2, 69, 0
4, 133440, Note_on_c, 2, 69, 80
4, 133919, Note_on_c, 2, 69, 0
4, 133920, Note_on_c, 2, 69, 80
4, 134399, Note_on_c, 2, 69, 0
4, 134400, Note_on_c, 2, 69, 80
4, 134879, Note_on_c, 2, 69, 0
4, 134880, Note_on_c, 2, 69, 80
4, 135359, Note_on_c, 2, 69, 0
4, 135360, Note_on_c, 2, 74, 80
4, 135839, Note_on_c, 2, 74, 0
4, 135840, Note_on_c, 2, 69, 80
4, 135959, Note_on_c, 2, 69, 0
4, 135960, Note_on_c, 2, 67, 80
4, 136139, Note_on_c, 2, 67, 0
4, 136320, Note_on_c, 2, 69, 80
4, 136799, Note_on_c, 2, 69, 0
4, 136800, Note_on_c, 2, 69, 80
4, 137279, Note_on_c, 2, 69, 0
4, 137280, Note_on_c, 2, 69, 80
4, 137759, Note_on_c, 2, 69, 0
4, 137760, Note_on_c, 2, 69, 80
4, 138239, Note_on_c, 2, 69, 0
4, 138240, Note_on_c, 2, 69, 80
4, 138719, Note_on_c, 2, 69, 0
4, 138720, Note_on_c, 2, 69, 80
4, 139199, Note_on_c, 2, 69, 0
4, 139200, Note_on_c, 2, 74, 80
4, 139679, Note_on_c, 2, 74, 0
4, 139680, Note_on_c, 2, 69, 80
4, 139799, Note_on_c, 2, 69, 0
4, 139800, Note_on_c, 2, 67, 80
4, 139979, Note_on_c, 2, 67, 0
4, 140160, Note_on_c, 2, 69, 80
4, 140639, Note_on_c, 2, 69, 0
4, 140640, Note_on_c, 2, 69, 80
4, 141119, Note_on_c, 2, 69, 0
4, 141120, Note_on_c, 2, 69, 80
4, 141599, Note_on_c, 2, 69, 0
4, 141600, Note_on_c, 2, 69, 80
4, 142079, Note_on_c, 2, 69, 0
4, 142080, Note_on_c, 2, 69, 80
4, 142559, Note_on_c, 2, 69, 0
4, 142560, Note_on_c, 2, 69, 80
4, 143039, Note_on_c, 2, 69, 0
4, 143040, Note_on_c, 2, 74, 80
4, 143519, Note_on_c, 2, 74, 0
4, 143520, Note_on_c, 2, 69, 80
4, 143639, Note_on_c, 2, 69, 0
4, 143640, Note_on_c, 2, 67, 80
4, 143819, Note_on_c, 2, 67, 0
4, 144000, Note_on_c, 2, 69, 80
4, 144479, Note_on_c, 2, 69, 0
4, 144480, Note_on_c, 2, 69, 80
4, 144959, Note_on_c, 2, 69, 0
4, 144960, Note_on_c, 2, 69, 80
4, 145439, Note_on_c, 2, 69, 0
4, 145440, Note_on_c, 2, 69, 80
4, 145919, Note_on_c, 2, 69, 0
4, 145920, Note_on_c, 2, 69, 80
4, 146399, Note_on_c, 2, 69, 0
4, 146400, Note_on_c, 2, 69, 80
4, 146879, Note_on_c, 2, 69, 0
4, 146880, Note_on_c, 2, 74, 80
4, 147359, Note_on_c, 2, 74, 0
4, 147360, Note_on_c, 2, 69, 80
4, 147479, Note_on_c, 2, 69, 0
4, 147480, Note_on_c, 2, 67, 80
4, 147659, Note_on_c, 2, 67, 0
4, 147840, Note_on_c, 2, 74, 80
4, 148319, Note_on_c, 2, 74, 0
4, 148320, Note_on_c, 2, 69, 80
4, 148799, Note_on_c, 2, 69, 0
4, 148800, Note_on_c, 2, 74, 80
4, 149279, Note_on_c, 2, 74, 0
4, 149280, Note_on_c, 2, 69, 80
4, 149759, Note_on_c, 2, 69, 0
4, 149760, Note_on_c, 2, 74, 80
4, 150239, Note_on_c, 2, 74, 0
4, 150240, Note_on_c, 2, 74, 80
4, 150719, Note_on_c, 2, 74, 0
4, 150720, Note_on_c, 2, 69, 80
4, 151199, Note_on_c, 2, 69, 0
4, 151200, Note_on_c, 2, 74, 80
4, 151439, Note_on_c, 2, 74, 0
4, 151440, Note_on_c, 2, 74, 80
4, 151679, Note_on_c, 2, 74, 0
4, 151680, Note_on_c, 2, 74, 80
4, 152159, Note_on_c, 2, 74, 0
4, 152160, Note_on_c, 2, 69, 80
4, 152639, Note_on_c, 2, 69, 0
4, 152640, Note_on_c, 2, 74, 80
4, 153119, Note_on_c, 2, 74, 0
4, 153120, Note_on_c, 2, 69, 80
4, 153599, Note_on_c, 2, 69, 0
4, 153600, Note_on_c, 2, 74, 80
4, 154079, Note_on_c, 2, 74, 0
4, 154080, Note_on_c, 2, 69, 80
4, 154559, Note_on_c, 2, 69, 0
4, 154560, Note_on_c, 2, 74, 80
4, 155039, Note_on_c, 2, 74, 0
4, 155040, Note_on_c, 2, 69, 80
4, 155519, Note_on_c, 2, 69, 0
4, 155520, Note_on_c, 2, 74, 80
4, 155999, Note_on_c, 2, 74, 0
4, 156000, Note_on_c, 2, 74, 80
4, 156479, Note_on_c, 2, 74, 0
4, 156480, Note_on_c, 2, 74, 80
4, 156959, Note_on_c, 2, 74, 0
4, 156960, Note_on_c, 2, 74, 80
4, 157439, Note_on_c, 2, 74, 0
4, 157440, Note_on_c, 2, 74, 80
4, 157919, Note_on_c, 2, 74, 0
4, 157920, Note_on_c, 2, 74, 80
4, 158399, Note_on_c, 2, 74, 0
4, 158400, Note_on_c, 2, 69, 80
4, 158879, Note_on_c, 2, 69, 0
4, 158880, Note_on_c, 2, 74, 80
4, 159119, Note_on_c, 2, 74, 0
4, 159120, Note_on_c, 2, 69, 80
4, 159359, Note_on_c, 2, 69, 0
4, 159360, Note_on_c, 2, 74, 80
4, 159839, Note_on_c, 2, 74, 0
4, 159840, Note_on_c, 2, 74, 80
4, 160319, Note_on_c, 2, 74, 0
4, 160320, Note_on_c, 2, 74, 80
4, 160799, Note_on_c, 2, 74, 0
4, 160800, Note_on_c, 2, 74, 80
4, 161279, Note_on_c, 2, 74, 0
4, 161280, Note_on_c, 2, 74, 80
4, 161759, Note_on_c, 2, 74, 0
4, 161760, Note_on_c, 2, 74, 80
4, 162239, Note_on_c, 2, 74, 0
4, 162240, Note_on_c, 2, 69, 80
4, 162719, Note_on_c, 2, 69, 0
4, 162720, Note_on_c, 2, 74, 80
4, 162839, Note_on_c, 2, 74, 0
4, 162840, Note_on_c, 2, 69, 80
4, 163019, Note_on_c, 2, 69, 0
4, 163200, Note_on_c, 2, 71, 80
4, 163439, Note_on_c, 2, 71, 0
4, 163440, Note_on_c, 2, 72, 80
4, 163679, Note_on_c, 2, 72, 0
4, 163680, Note_on_c, 2, 69, 80
4, 163919, Note_on_c, 2, 69, 0
4, 165120, Note_on_c, 2, 71, 80
4, 165359, Note_on_c, 2, 71, 0
4, 165360, Note_on_c, 2, 72, 80
4, 165599, Note_on_c, 2, 72, 0
4, 165600, Note_on_c, 2, 74, 80
4, 165839, Note_on_c, 2, 74, 0
4, 167040, Note_on_c, 2, 69, 80
4, 167279, Note_on_c, 2, 69, 0
4, 167280, Note_on_c, 2, 69, 80
4, 167519, Note_on_c, 2, 69, 0
4, 167520, Note_on_c, 2, 69, 80
4, 168479, Note_on_c, 2, 69, 0
4, 168480, Note_on_c, 2, 69, 80
4, 168719, Note_on_c, 2, 69, 0
4, 168720, Note_on_c, 2, 69, 80
4, 168959, Note_on_c, 2, 69, 0
4, 169440, Note_on_c, 2, 69, 80
4, 169919, Note_on_c, 2, 69, 0
4, 169920, Note_on_c, 2, 69, 80
4, 170399, Note_on_c, 2, 69, 0
4, 170400, Note_on_c, 2, 69, 80
4, 170519, Note_on_c, 2, 69, 0
4, 170520, Note_on_c, 2, 67, 80
4, 170699, Note_on_c, 2, 67, 0
4, 170700, End_track
0, 0, End_of_file
