0, 0, Header, 1, 5, 480
1, 0, Start_track
1, 0, Title_t, "Piano, Piano, Voice\000"
1, 0, Time_signature, 1, 1, 24, 8
1, 0, Key_signature, 0, "major"
1, 0, Tempo, 352941
1, 0, Control_c, 0, 121, 0
1, 0, Program_c, 0, 0
1, 0, Control_c, 0, 7, 117
1, 0, Control_c, 0, 10, 64
1, 0, Control_c, 0, 91, 0
1, 0, Control_c, 0, 93, 0
1, 0, MIDI_port, 0
1, 0, Note_on_c, 0, 62, 80
1, 683, Note_on_c, 0, 62, 0
1, 720, Note_on_c, 0, 62, 80
1, 947, Note_on_c, 0, 62, 0
1, 960, Time_signature, 4, 2, 24, 8
1, 960, Note_on_c, 0, 64, 80
1, 1187, Note_on_c, 0, 64, 0
1, 1200, Note_on_c, 0, 62, 80
1, 1427, Note_on_c, 0, 62, 0
1, 1440, Note_on_c, 0, 64, 80
1, 1667, Note_on_c, 0, 64, 0
1, 1680, Note_on_c, 0, 62, 80
1, 1907, Note_on_c, 0, 62, 0
1, 1920, Note_on_c, 0, 64, 80
1, 2147, Note_on_c, 0, 64, 0
1, 2160, Note_on_c, 0, 62, 80
1, 2387, Note_on_c, 0, 62, 0
1, 2400, Note_on_c, 0, 64, 80
1, 2627, Note_on_c, 0, 64, 0
1, 2640, Note_on_c, 0, 62, 80
1, 2867, Note_on_c, 0, 62, 0
1, 2880, Note_on_c, 0, 64, 80
1, 3107, Note_on_c, 0, 64, 0
1, 3120, Note_on_c, 0, 57, 80
1, 3347, Note_on_c, 0, 57, 0
1, 3360, Note_on_c, 0, 57, 80
1, 3587, Note_on_c, 0, 57, 0
1, 3600, Note_on_c, 0, 60, 80
1, 4055, Note_on_c, 0, 60, 0
1, 4080, Note_on_c, 0, 62, 80
1, 4307, Note_on_c, 0, 62, 0
1, 4560, Note_on_c, 0, 64, 80
1, 4787, Note_on_c, 0, 64, 0
1, 5040, Note_on_c, 0, 62, 80
1, 5267, Note_on_c, 0, 62, 0
1, 5280, Note_on_c, 0, 64, 80
1, 5507, Note_on_c, 0, 64, 0
1, 5520, Note_on_c, 0, 62, 80
1, 5747, Note_on_c, 0, 62, 0
1, 5760, Note_on_c, 0, 64, 80
1, 5987, Note_on_c, 0, 64, 0
1, 6000, Note_on_c, 0, 62, 80
1, 6227, Note_on_c, 0, 62, 0
1, 6240, Note_on_c, 0, 64, 80
1, 6467, Note_on_c, 0, 64, 0
1, 6480, Note_on_c, 0, 64, 80
1, 6707, Note_on_c, 0, 64, 0
1, 6720, Note_on_c, 0, 69, 80
1, 6947, Note_on_c, 0, 69, 0
1, 6960, Note_on_c, 0, 67, 80
1, 7187, Note_on_c, 0, 67, 0
1, 7440, Note_on_c, 0, 62, 80
1, 7895, Note_on_c, 0, 62, 0
1, 7920, Note_on_c, 0, 62, 80
1, 8147, Note_on_c, 0, 62, 0
1, 8160, Note_on_c, 0, 62, 80
1, 8387, Note_on_c, 0, 62, 0
1, 8400, Note_on_c, 0, 60, 80
1, 8627, Note_on_c, 0, 60, 0
1, 8640, Note_on_c, 0, 64, 80
1, 8867, Note_on_c, 0, 64, 0
1, 8880, Note_on_c, 0, 62, 80
1, 9107, Note_on_c, 0, 62, 0
1, 9120, Note_on_c, 0, 64, 80
1, 9347, Note_on_c, 0, 64, 0
1, 9360, Note_on_c, 0, 62, 80
1, 9587, Note_on_c, 0, 62, 0
1, 9600, Note_on_c, 0, 64, 80
1, 9827, Note_on_c, 0, 64, 0
1, 9840, Note_on_c, 0, 62, 80
1, 10067, Note_on_c, 0, 62, 0
1, 10080, Note_on_c, 0, 64, 80
1, 10307, Note_on_c, 0, 64, 0
1, 10320, Note_on_c, 0, 62, 80
1, 10547, Note_on_c, 0, 62, 0
1, 10560, Note_on_c, 0, 64, 80
1, 10787, Note_on_c, 0, 64, 0
1, 10800, Note_on_c, 0, 62, 80
1, 11027, Note_on_c, 0, 62, 0
1, 11040, Note_on_c, 0, 64, 80
1, 11267, Note_on_c, 0, 64, 0
1, 11280, Note_on_c, 0, 64, 80
1, 11507, Note_on_c, 0, 64, 0
1, 11760, Note_on_c, 0, 62, 80
1, 11987, Note_on_c, 0, 62, 0
1, 12000, Note_on_c, 0, 64, 80
1, 12227, Note_on_c, 0, 64, 0
1, 12240, Note_on_c, 0, 60, 80
1, 12467, Note_on_c, 0, 60, 0
1, 12720, Note_on_c, 0, 57, 80
1, 12947, Note_on_c, 0, 57, 0
1, 14160, Note_on_c, 0, 57, 80
1, 14387, Note_on_c, 0, 57, 0
1, 14400, Note_on_c, 0, 60, 80
1, 14627, Note_on_c, 0, 60, 0
1, 14640, Note_on_c, 0, 62, 80
1, 14867, Note_on_c, 0, 62, 0
1, 14880, Note_on_c, 0, 62, 80
1, 15107, Note_on_c, 0, 62, 0
1, 15120, Note_on_c, 0, 64, 80
1, 15575, Note_on_c, 0, 64, 0
1, 15600, Note_on_c, 0, 57, 80
1, 15827, Note_on_c, 0, 57, 0
1, 16080, Note_on_c, 0, 62, 80
1, 16307, Note_on_c, 0, 62, 0
1, 16320, Note_on_c, 0, 64, 80
1, 16547, Note_on_c, 0, 64, 0
1, 16560, Note_on_c, 0, 62, 80
1, 16787, Note_on_c, 0, 62, 0
1, 16800, Note_on_c, 0, 64, 80
1, 17027, Note_on_c, 0, 64, 0
1, 17040, Note_on_c, 0, 62, 80
1, 17267, Note_on_c, 0, 62, 0
1, 17280, Note_on_c, 0, 64, 80
1, 17507, Note_on_c, 0, 64, 0
1, 17520, Note_on_c, 0, 62, 80
1, 17747, Note_on_c, 0, 62, 0
1, 17760, Note_on_c, 0, 64, 80
1, 17987, Note_on_c, 0, 64, 0
1, 18000, Note_on_c, 0, 62, 80
1, 18227, Note_on_c, 0, 62, 0
1, 18240, Note_on_c, 0, 64, 80
1, 18467, Note_on_c, 0, 64, 0
1, 18480, Note_on_c, 0, 57, 80
1, 18707, Note_on_c, 0, 57, 0
1, 18720, Note_on_c, 0, 57, 80
1, 18947, Note_on_c, 0, 57, 0
1, 18960, Note_on_c, 0, 60, 80
1, 19415, Note_on_c, 0, 60, 0
1, 19440, Note_on_c, 0, 62, 80
1, 19667, Note_on_c, 0, 62, 0
1, 19920, Note_on_c, 0, 64, 80
1, 20375, Note_on_c, 0, 64, 0
1, 20400, Note_on_c, 0, 62, 80
1, 20627, Note_on_c, 0, 62, 0
1, 20640, Note_on_c, 0, 64, 80
1, 20867, Note_on_c, 0, 64, 0
1, 20880, Note_on_c, 0, 62, 80
1, 21107, Note_on_c, 0, 62, 0
1, 21120, Note_on_c, 0, 64, 80
1, 21347, Note_on_c, 0, 64, 0
1, 21360, Note_on_c, 0, 62, 80
1, 21587, Note_on_c, 0, 62, 0
1, 21600, Note_on_c, 0, 64, 80
1, 21827, Note_on_c, 0, 64, 0
1, 21840, Note_on_c, 0, 64, 80
1, 22067, Note_on_c, 0, 64, 0
1, 22080, Note_on_c, 0, 69, 80
1, 22307, Note_on_c, 0, 69, 0
1, 22320, Note_on_c, 0, 67, 80
1, 22547, Note_on_c, 0, 67, 0
1, 22800, Note_on_c, 0, 62, 80
1, 23255, Note_on_c, 0, 62, 0
1, 23280, Note_on_c, 0, 64, 80
1, 23507, Note_on_c, 0, 64, 0
1, 23520, Note_on_c, 0, 62, 80
1, 23747, Note_on_c, 0, 62, 0
1, 23760, Note_on_c, 0, 60, 80
1, 23987, Note_on_c, 0, 60, 0
1, 24000, Note_on_c, 0, 64, 80
1, 24227, Note_on_c, 0, 64, 0
1, 24240, Note_on_c, 0, 62, 80
1, 24467, Note_on_c, 0, 62, 0
1, 24480, Note_on_c, 0, 64, 80
1, 24707, Note_on_c, 0, 64, 0
1, 24720, Note_on_c, 0, 62, 80
1, 24947, Note_on_c, 0, 62, 0
1, 24960, Note_on_c, 0, 64, 80
1, 25187, Note_on_c, 0, 64, 0
1, 25200, Note_on_c, 0, 62, 80
1, 25427, Note_on_c, 0, 62, 0
1, 25440, Note_on_c, 0, 62, 80
1, 25667, Note_on_c, 0, 62, 0
1, 25680, Note_on_c, 0, 64, 80
1, 26135, Note_on_c, 0, 64, 0
1, 26160, Note_on_c, 0, 62, 80
1, 26387, Note_on_c, 0, 62, 0
1, 26400, Note_on_c, 0, 62, 80
1, 26627, Note_on_c, 0, 62, 0
1, 26640, Note_on_c, 0, 64, 80
1, 26867, Note_on_c, 0, 64, 0
1, 27120, Note_on_c, 0, 62, 80
1, 27347, Note_on_c, 0, 62, 0
1, 27360, Note_on_c, 0, 64, 80
1, 27587, Note_on_c, 0, 64, 0
1, 27600, Note_on_c, 0, 60, 80
1, 27827, Note_on_c, 0, 60, 0
1, 28080, Note_on_c, 0, 57, 80
1, 28307, Note_on_c, 0, 57, 0
1, 29520, Note_on_c, 0, 60, 80
1, 29747, Note_on_c, 0, 60, 0
1, 29760, Note_on_c, 0, 62, 80
1, 30215, Note_on_c, 0, 62, 0
1, 30240, Note_on_c, 0, 62, 80
1, 30353, Note_on_c, 0, 62, 0
1, 30360, Note_on_c, 0, 64, 80
1, 30701, Note_on_c, 0, 64, 0
1, 30720, Note_on_c, 0, 60, 80
1, 31175, Note_on_c, 0, 60, 0
1, 31200, Note_on_c, 0, 55, 80
1, 31655, Note_on_c, 0, 55, 0
1, 31680, Note_on_c, 0, 57, 80
1, 32135, Note_on_c, 0, 57, 0
1, 32400, Note_on_c, 0, 67, 80
1, 32627, Note_on_c, 0, 67, 0
1, 32640, Note_on_c, 0, 69, 80
1, 32867, Note_on_c, 0, 69, 0
1, 32880, Note_on_c, 0, 76, 80
1, 33107, Note_on_c, 0, 76, 0
1, 33360, Note_on_c, 0, 67, 80
1, 33587, Note_on_c, 0, 67, 0
1, 33600, Note_on_c, 0, 69, 80
1, 33827, Note_on_c, 0, 69, 0
1, 33840, Note_on_c, 0, 67, 80
1, 34067, Note_on_c, 0, 67, 0
1, 34080, Note_on_c, 0, 69, 80
1, 34307, Note_on_c, 0, 69, 0
1, 34320, Note_on_c, 0, 76, 80
1, 34547, Note_on_c, 0, 76, 0
1, 34800, Note_on_c, 0, 76, 80
1, 35027, Note_on_c, 0, 76, 0
1, 35040, Note_on_c, 0, 76, 80
1, 35267, Note_on_c, 0, 76, 0
1, 35280, Note_on_c, 0, 76, 80
1, 35507, Note_on_c, 0, 76, 0
1, 35520, Note_on_c, 0, 76, 80
1, 35975, Note_on_c, 0, 76, 0
1, 36000, Note_on_c, 0, 69, 80
1, 36455, Note_on_c, 0, 69, 0
1, 36480, Note_on_c, 0, 67, 80
1, 36707, Note_on_c, 0, 67, 0
1, 36720, Note_on_c, 0, 69, 80
1, 36947, Note_on_c, 0, 69, 0
1, 37200, Note_on_c, 0, 67, 80
1, 37427, Note_on_c, 0, 67, 0
1, 37440, Note_on_c, 0, 69, 80
1, 37667, Note_on_c, 0, 69, 0
1, 37680, Note_on_c, 0, 67, 80
1, 37907, Note_on_c, 0, 67, 0
1, 37920, Note_on_c, 0, 69, 80
1, 38147, Note_on_c, 0, 69, 0
1, 38160, Note_on_c, 0, 79, 80
1, 38387, Note_on_c, 0, 79, 0
1, 38640, Note_on_c, 0, 67, 80
1, 38867, Note_on_c, 0, 67, 0
1, 38880, Note_on_c, 0, 67, 80
1, 39107, Note_on_c, 0, 67, 0
1, 39120, Note_on_c, 0, 69, 80
1, 39347, Note_on_c, 0, 69, 0
1, 39360, Note_on_c, 0, 67, 80
1, 39815, Note_on_c, 0, 67, 0
1, 39840, Note_on_c, 0, 62, 80
1, 40295, Note_on_c, 0, 62, 0
1, 40320, Note_on_c, 0, 60, 80
1, 40547, Note_on_c, 0, 60, 0
1, 40560, Note_on_c, 0, 67, 80
1, 41015, Note_on_c, 0, 67, 0
1, 41040, Note_on_c, 0, 69, 80
1, 41267, Note_on_c, 0, 69, 0
1, 41520, Note_on_c, 0, 64, 80
1, 41747, Note_on_c, 0, 64, 0
1, 41760, Note_on_c, 0, 62, 80
1, 41987, Note_on_c, 0, 62, 0
1, 42000, Note_on_c, 0, 60, 80
1, 42227, Note_on_c, 0, 60, 0
1, 42480, Note_on_c, 0, 72, 80
1, 42707, Note_on_c, 0, 72, 0
1, 42720, Note_on_c, 0, 74, 80
1, 42947, Note_on_c, 0, 74, 0
1, 42960, Note_on_c, 0, 76, 80
1, 43187, Note_on_c, 0, 76, 0
1, 43200, Note_on_c, 0, 69, 80
1, 43655, Note_on_c, 0, 69, 0
1, 43680, Note_on_c, 0, 76, 80
1, 44135, Note_on_c, 0, 76, 0
1, 44160, Note_on_c, 0, 74, 80
1, 44387, Note_on_c, 0, 74, 0
1, 44400, Note_on_c, 0, 72, 80
1, 44627, Note_on_c, 0, 72, 0
1, 44880, Note_on_c, 0, 71, 80
1, 45107, Note_on_c, 0, 71, 0
1, 45360, Note_on_c, 0, 67, 80
1, 45815, Note_on_c, 0, 67, 0
1, 45840, Note_on_c, 0, 67, 80
1, 46067, Note_on_c, 0, 67, 0
1, 46080, Note_on_c, 0, 69, 80
1, 46535, Note_on_c, 0, 69, 0
1, 47040, Key_signature, 0, "major"
1, 47040, Note_on_c, 0, 65, 80
1, 47040, Note_on_c, 0, 69, 80
1, 47267, Note_on_c, 0, 65, 0
1, 47267, Note_on_c, 0, 69, 0
1, 47280, Note_on_c, 0, 72, 80
1, 47280, Note_on_c, 0, 76, 80
1, 47735, Note_on_c, 0, 72, 0
1, 47735, Note_on_c, 0, 76, 0
1, 47760, Note_on_c, 0, 65, 80
1, 47760, Note_on_c, 0, 69, 80
1, 47987, Note_on_c, 0, 65, 0
1, 47987, Note_on_c, 0, 69, 0
1, 48000, Note_on_c, 0, 72, 80
1, 48000, Note_on_c, 0, 76, 80
1, 48455, Note_on_c, 0, 72, 0
1, 48455, Note_on_c, 0, 76, 0
1, 48480, Note_on_c, 0, 69, 80
1, 48480, Note_on_c, 0, 72, 80
1, 48707, Note_on_c, 0, 69, 0
1, 48707, Note_on_c, 0, 72, 0
1, 48720, Note_on_c, 0, 76, 80
1, 48720, Note_on_c, 0, 79, 80
1, 49175, Note_on_c, 0, 76, 0
1, 49175, Note_on_c, 0, 79, 0
1, 49200, Note_on_c, 0, 76, 80
1, 49200, Note_on_c, 0, 81, 80
1, 49427, Note_on_c, 0, 76, 0
1, 49427, Note_on_c, 0, 81, 0
1, 49440, Note_on_c, 0, 72, 80
1, 49440, Note_on_c, 0, 76, 80
1, 49667, Note_on_c, 0, 72, 0
1, 49667, Note_on_c, 0, 76, 0
1, 49680, Note_on_c, 0, 76, 80
1, 49680, Note_on_c, 0, 79, 80
1, 49907, Note_on_c, 0, 76, 0
1, 49907, Note_on_c, 0, 79, 0
1, 49920, Note_on_c, 0, 71, 80
1, 49920, Note_on_c, 0, 74, 80
1, 50375, Note_on_c, 0, 71, 0
1, 50375, Note_on_c, 0, 74, 0
1, 50400, Note_on_c, 0, 72, 80
1, 50400, Note_on_c, 0, 76, 80
1, 50855, Note_on_c, 0, 72, 0
1, 50855, Note_on_c, 0, 76, 0
1, 50880, Note_on_c, 0, 64, 80
1, 50880, Note_on_c, 0, 67, 80
1, 51107, Note_on_c, 0, 64, 0
1, 51107, Note_on_c, 0, 67, 0
1, 51120, Note_on_c, 0, 71, 80
1, 51120, Note_on_c, 0, 74, 80
1, 51575, Note_on_c, 0, 71, 0
1, 51575, Note_on_c, 0, 74, 0
1, 51600, Note_on_c, 0, 64, 80
1, 51600, Note_on_c, 0, 67, 80
1, 51827, Note_on_c, 0, 64, 0
1, 51827, Note_on_c, 0, 67, 0
1, 51840, Note_on_c, 0, 71, 80
1, 51840, Note_on_c, 0, 74, 80
1, 52295, Note_on_c, 0, 71, 0
1, 52295, Note_on_c, 0, 74, 0
1, 52320, Note_on_c, 0, 67, 80
1, 52320, Note_on_c, 0, 71, 80
1, 52547, Note_on_c, 0, 67, 0
1, 52547, Note_on_c, 0, 71, 0
1, 52560, Note_on_c, 0, 69, 80
1, 52560, Note_on_c, 0, 72, 80
1, 53015, Note_on_c, 0, 69, 0
1, 53015, Note_on_c, 0, 72, 0
1, 53040, Note_on_c, 0, 71, 80
1, 53040, Note_on_c, 0, 74, 80
1, 53267, Note_on_c, 0, 71, 0
1, 53267, Note_on_c, 0, 74, 0
1, 53280, Note_on_c, 0, 72, 80
1, 53280, Note_on_c, 0, 76, 80
1, 53507, Note_on_c, 0, 72, 0
1, 53507, Note_on_c, 0, 76, 0
1, 53520, Note_on_c, 0, 76, 80
1, 53520, Note_on_c, 0, 81, 80
1, 53747, Note_on_c, 0, 76, 0
1, 53747, Note_on_c, 0, 81, 0
1, 53760, Note_on_c, 0, 76, 80
1, 53760, Note_on_c, 0, 79, 80
1, 53987, Note_on_c, 0, 76, 0
1, 53987, Note_on_c, 0, 79, 0
1, 54000, Note_on_c, 0, 72, 80
1, 54000, Note_on_c, 0, 76, 80
1, 54227, Note_on_c, 0, 72, 0
1, 54227, Note_on_c, 0, 76, 0
1, 54240, Note_on_c, 0, 71, 80
1, 54240, Note_on_c, 0, 74, 80
1, 54467, Note_on_c, 0, 71, 0
1, 54467, Note_on_c, 0, 74, 0
1, 54480, Note_on_c, 0, 64, 80
1, 54480, Note_on_c, 0, 67, 80
1, 54707, Note_on_c, 0, 64, 0
1, 54707, Note_on_c, 0, 67, 0
1, 54720, Note_on_c, 0, 65, 80
1, 54720, Note_on_c, 0, 69, 80
1, 55175, Note_on_c, 0, 65, 0
1, 55175, Note_on_c, 0, 69, 0
1, 55200, Note_on_c, 0, 67, 80
1, 55200, Note_on_c, 0, 71, 80
1, 55655, Note_on_c, 0, 67, 0
1, 55655, Note_on_c, 0, 71, 0
1, 55680, Note_on_c, 0, 69, 80
1, 55680, Note_on_c, 0, 72, 80
1, 56135, Note_on_c, 0, 69, 0
1, 56135, Note_on_c, 0, 72, 0
1, 56160, Note_on_c, 0, 76, 80
1, 56160, Note_on_c, 0, 79, 80
1, 56387, Note_on_c, 0, 76, 0
1, 56387, Note_on_c, 0, 79, 0
1, 56400, Note_on_c, 0, 77, 80
1, 56400, Note_on_c, 0, 81, 80
1, 56627, Note_on_c, 0, 77, 0
1, 56627, Note_on_c, 0, 81, 0
1, 56640, Note_on_c, 0, 76, 80
1, 56640, Note_on_c, 0, 79, 80
1, 57095, Note_on_c, 0, 76, 0
1, 57095, Note_on_c, 0, 79, 0
1, 57120, Note_on_c, 0, 71, 80
1, 57120, Note_on_c, 0, 76, 80
1, 57575, Note_on_c, 0, 71, 0
1, 57575, Note_on_c, 0, 76, 0
1, 57600, Note_on_c, 0, 79, 80
1, 57600, Note_on_c, 0, 83, 80
1, 58055, Note_on_c, 0, 79, 0
1, 58055, Note_on_c, 0, 83, 0
1, 58080, Note_on_c, 0, 79, 80
1, 58080, Note_on_c, 0, 83, 80
1, 58307, Note_on_c, 0, 79, 0
1, 58307, Note_on_c, 0, 83, 0
1, 58320, Note_on_c, 0, 81, 80
1, 58320, Note_on_c, 0, 84, 80
1, 58547, Note_on_c, 0, 81, 0
1, 58547, Note_on_c, 0, 84, 0
1, 58560, Note_on_c, 0, 79, 80
1, 58560, Note_on_c, 0, 83, 80
1, 59015, Note_on_c, 0, 79, 0
1, 59015, Note_on_c, 0, 83, 0
1, 59040, Note_on_c, 0, 76, 80
1, 59040, Note_on_c, 0, 79, 80
1, 59495, Note_on_c, 0, 76, 0
1, 59495, Note_on_c, 0, 79, 0
1, 59520, Note_on_c, 0, 72, 80
1, 59520, Note_on_c, 0, 76, 80
1, 59975, Note_on_c, 0, 72, 0
1, 59975, Note_on_c, 0, 76, 0
1, 60000, Note_on_c, 0, 69, 80
1, 60000, Note_on_c, 0, 72, 80
1, 60227, Note_on_c, 0, 69, 0
1, 60227, Note_on_c, 0, 72, 0
1, 60240, Note_on_c, 0, 79, 80
1, 60240, Note_on_c, 0, 76, 80
1, 60467, Note_on_c, 0, 79, 0
1, 60480, Note_on_c, 0, 81, 80
1, 60695, Note_on_c, 0, 76, 0
1, 60707, Note_on_c, 0, 81, 0
1, 60720, Note_on_c, 0, 76, 80
1, 60720, Note_on_c, 0, 79, 80
1, 60947, Note_on_c, 0, 76, 0
1, 60947, Note_on_c, 0, 79, 0
1, 60960, Note_on_c, 0, 76, 80
1, 60960, Note_on_c, 0, 81, 80
1, 61187, Note_on_c, 0, 76, 0
1, 61187, Note_on_c, 0, 81, 0
1, 61200, Note_on_c, 0, 72, 80
1, 61200, Note_on_c, 0, 76, 80
1, 61655, Note_on_c, 0, 72, 0
1, 61655, Note_on_c, 0, 76, 0
1, 61680, Note_on_c, 0, 71, 80
1, 61680, Note_on_c, 0, 74, 80
1, 61907, Note_on_c, 0, 71, 0
1, 61907, Note_on_c, 0, 74, 0
1, 61920, Note_on_c, 0, 69, 80
1, 61920, Note_on_c, 0, 72, 80
1, 62375, Note_on_c, 0, 69, 0
1, 62375, Note_on_c, 0, 72, 0
1, 62400, Note_on_c, 0, 76, 80
1, 62400, Note_on_c, 0, 81, 80
1, 62855, Note_on_c, 0, 76, 0
1, 62855, Note_on_c, 0, 81, 0
1, 63120, Note_on_c, 0, 72, 80
1, 63120, Note_on_c, 0, 76, 80
1, 63347, Note_on_c, 0, 72, 0
1, 63347, Note_on_c, 0, 76, 0
1, 63360, Note_on_c, 0, 76, 80
1, 63360, Note_on_c, 0, 79, 80
1, 63587, Note_on_c, 0, 76, 0
1, 63587, Note_on_c, 0, 79, 0
1, 63600, Note_on_c, 0, 76, 80
1, 63600, Note_on_c, 0, 81, 80
1, 63827, Note_on_c, 0, 76, 0
1, 63827, Note_on_c, 0, 81, 0
1, 64080, Note_on_c, 0, 76, 80
1, 64080, Note_on_c, 0, 81, 80
1, 64307, Note_on_c, 0, 76, 0
1, 64307, Note_on_c, 0, 81, 0
1, 64320, Note_on_c, 0, 76, 80
1, 64320, Note_on_c, 0, 79, 80
1, 64547, Note_on_c, 0, 76, 0
1, 64547, Note_on_c, 0, 79, 0
1, 64560, Note_on_c, 0, 72, 80
1, 64560, Note_on_c, 0, 76, 80
1, 64787, Note_on_c, 0, 72, 0
1, 64787, Note_on_c, 0, 76, 0
1, 64800, Note_on_c, 0, 81, 80
1, 64800, Note_on_c, 0, 84, 80
1, 65027, Note_on_c, 0, 81, 0
1, 65027, Note_on_c, 0, 84, 0
1, 65040, Note_on_c, 0, 79, 80
1, 65040, Note_on_c, 0, 83, 80
1, 65267, Note_on_c, 0, 79, 0
1, 65267, Note_on_c, 0, 83, 0
1, 65520, Note_on_c, 0, 76, 80
1, 65520, Note_on_c, 0, 79, 80
1, 65747, Note_on_c, 0, 76, 0
1, 65747, Note_on_c, 0, 79, 0
1, 65760, Note_on_c, 0, 81, 80
1, 65760, Note_on_c, 0, 84, 80
1, 65987, Note_on_c, 0, 81, 0
1, 65987, Note_on_c, 0, 84, 0
1, 66000, Note_on_c, 0, 79, 80
1, 66000, Note_on_c, 0, 83, 80
1, 66227, Note_on_c, 0, 79, 0
1, 66227, Note_on_c, 0, 83, 0
1, 66480, Note_on_c, 0, 76, 80
1, 66480, Note_on_c, 0, 79, 80
1, 66707, Note_on_c, 0, 76, 0
1, 66707, Note_on_c, 0, 79, 0
1, 66720, Note_on_c, 0, 81, 80
1, 66720, Note_on_c, 0, 84, 80
1, 66947, Note_on_c, 0, 81, 0
1, 66947, Note_on_c, 0, 84, 0
1, 66960, Note_on_c, 0, 79, 80
1, 66960, Note_on_c, 0, 83, 80
1, 67187, Note_on_c, 0, 79, 0
1, 67187, Note_on_c, 0, 83, 0
1, 67440, Note_on_c, 0, 76, 80
1, 67440, Note_on_c, 0, 79, 80
1, 67667, Note_on_c, 0, 76, 0
1, 67667, Note_on_c, 0, 79, 0
1, 67680, Note_on_c, 0, 81, 80
1, 67680, Note_on_c, 0, 84, 80
1, 67907, Note_on_c, 0, 81, 0
1, 67907, Note_on_c, 0, 84, 0
1, 67920, Note_on_c, 0, 79, 80
1, 67920, Note_on_c, 0, 83, 80
1, 68375, Note_on_c, 0, 79, 0
1, 68375, Note_on_c, 0, 83, 0
1, 68400, Note_on_c, 0, 74, 80
1, 68400, Note_on_c, 0, 79, 80
1, 68627, Note_on_c, 0, 74, 0
1, 68627, Note_on_c, 0, 79, 0
1, 68640, Note_on_c, 0, 76, 80
1, 68640, Note_on_c, 0, 81, 80
1, 69095, Note_on_c, 0, 76, 0
1, 69095, Note_on_c, 0, 81, 0
1, 69120, Note_on_c, 0, 76, 80
1, 69120, Note_on_c, 0, 81, 80
1, 69347, Note_on_c, 0, 76, 0
1, 69347, Note_on_c, 0, 81, 0
1, 69360, Note_on_c, 0, 76, 80
1, 69360, Note_on_c, 0, 79, 80
1, 69587, Note_on_c, 0, 76, 0
1, 69587, Note_on_c, 0, 79, 0
1, 69600, Note_on_c, 0, 72, 80
1, 69600, Note_on_c, 0, 76, 80
1, 69827, Note_on_c, 0, 72, 0
1, 69827, Note_on_c, 0, 76, 0
1, 69840, Note_on_c, 0, 71, 80
1, 69840, Note_on_c, 0, 74, 80
1, 70067, Note_on_c, 0, 71, 0
1, 70067, Note_on_c, 0, 74, 0
1, 70080, Note_on_c, 0, 69, 80
1, 70080, Note_on_c, 0, 72, 80
1, 70535, Note_on_c, 0, 69, 0
1, 70535, Note_on_c, 0, 72, 0
1, 70560, Note_on_c, 0, 65, 80
1, 70560, Note_on_c, 0, 69, 80
1, 71015, Note_on_c, 0, 65, 0
1, 71015, Note_on_c, 0, 69, 0
1, 71040, Note_on_c, 0, 69, 80
1, 71040, Note_on_c, 0, 72, 80
1, 71495, Note_on_c, 0, 69, 0
1, 71495, Note_on_c, 0, 72, 0
1, 71520, Note_on_c, 0, 76, 80
1, 71520, Note_on_c, 0, 79, 80
1, 71747, Note_on_c, 0, 76, 0
1, 71747, Note_on_c, 0, 79, 0
1, 71760, Note_on_c, 0, 77, 80
1, 71760, Note_on_c, 0, 81, 80
1, 71987, Note_on_c, 0, 77, 0
1, 71987, Note_on_c, 0, 81, 0
1, 72000, Note_on_c, 0, 76, 80
1, 72000, Note_on_c, 0, 79, 80
1, 72455, Note_on_c, 0, 76, 0
1, 72455, Note_on_c, 0, 79, 0
1, 72480, Note_on_c, 0, 72, 80
1, 72480, Note_on_c, 0, 76, 80
1, 72935, Note_on_c, 0, 72, 0
1, 72935, Note_on_c, 0, 76, 0
1, 72960, Note_on_c, 0, 62, 80
1, 72960, Note_on_c, 0, 67, 80
1, 73415, Note_on_c, 0, 62, 0
1, 73415, Note_on_c, 0, 67, 0
1, 73440, Note_on_c, 0, 67, 80
1, 73553, Note_on_c, 0, 67, 0
1, 73560, Note_on_c, 0, 69, 80
1, 73673, Note_on_c, 0, 69, 0
1, 73680, Note_on_c, 0, 72, 80
1, 73907, Note_on_c, 0, 72, 0
1, 73920, Note_on_c, 0, 69, 80
1, 74375, Note_on_c, 0, 69, 0
1, 74400, Note_on_c, 0, 67, 80
1, 74627, Note_on_c, 0, 67, 0
1, 74640, Note_on_c, 0, 69, 80
1, 74867, Note_on_c, 0, 69, 0
1, 74880, Note_on_c, 0, 76, 80
1, 75221, Note_on_c, 0, 76, 0
1, 75240, Note_on_c, 0, 69, 80
1, 75467, Note_on_c, 0, 69, 0
1, 75600, Note_on_c, 0, 69, 80
1, 75827, Note_on_c, 0, 69, 0
1, 76080, Note_on_c, 0, 69, 80
1, 76307, Note_on_c, 0, 69, 0
1, 76320, Note_on_c, 0, 67, 80
1, 76547, Note_on_c, 0, 67, 0
1, 76560, Note_on_c, 0, 69, 80
1, 76787, Note_on_c, 0, 69, 0
1, 76800, Note_on_c, 0, 76, 80
1, 77027, Note_on_c, 0, 76, 0
1, 77040, Note_on_c, 0, 64, 80
1, 77267, Note_on_c, 0, 64, 0
1, 77280, Note_on_c, 0, 67, 80
1, 77393, Note_on_c, 0, 67, 0
1, 77400, Note_on_c, 0, 69, 80
1, 77513, Note_on_c, 0, 69, 0
1, 77520, Note_on_c, 0, 72, 80
1, 77747, Note_on_c, 0, 72, 0
1, 77760, Note_on_c, 0, 69, 80
1, 78215, Note_on_c, 0, 69, 0
1, 78240, Note_on_c, 0, 67, 80
1, 78467, Note_on_c, 0, 67, 0
1, 78480, Note_on_c, 0, 69, 80
1, 78707, Note_on_c, 0, 69, 0
1, 78720, Note_on_c, 0, 76, 80
1, 79061, Note_on_c, 0, 76, 0
1, 79080, Note_on_c, 0, 69, 80
1, 79307, Note_on_c, 0, 69, 0
1, 79440, Note_on_c, 0, 69, 80
1, 79667, Note_on_c, 0, 69, 0
1, 79920, Note_on_c, 0, 69, 80
1, 80147, Note_on_c, 0, 69, 0
1, 80160, Note_on_c, 0, 67, 80
1, 80387, Note_on_c, 0, 67, 0
1, 80400, Note_on_c, 0, 69, 80
1, 80627, Note_on_c, 0, 69, 0
1, 80640, Note_on_c, 0, 76, 80
1, 80867, Note_on_c, 0, 76, 0
1, 80880, Note_on_c, 0, 79, 80
1, 81107, Note_on_c, 0, 79, 0
1, 81120, Note_on_c, 0, 74, 80
1, 81233, Note_on_c, 0, 74, 0
1, 81240, Note_on_c, 0, 76, 80
1, 81353, Note_on_c, 0, 76, 0
1, 81360, Note_on_c, 0, 74, 80
1, 81587, Note_on_c, 0, 74, 0
1, 81600, Note_on_c, 0, 72, 80
1, 81941, Note_on_c, 0, 72, 0
1, 81960, Note_on_c, 0, 71, 80
1, 82301, Note_on_c, 0, 71, 0
1, 82320, Note_on_c, 0, 67, 80
1, 82547, Note_on_c, 0, 67, 0
1, 82560, Note_on_c, 0, 64, 80
1, 83015, Note_on_c, 0, 64, 0
1, 83040, Note_on_c, 0, 67, 80
1, 83495, Note_on_c, 0, 67, 0
1, 83520, Note_on_c, 0, 76, 80
1, 83861, Note_on_c, 0, 76, 0
1, 83880, Note_on_c, 0, 74, 80
1, 84221, Note_on_c, 0, 74, 0
1, 84240, Note_on_c, 0, 71, 80
1, 84467, Note_on_c, 0, 71, 0
1, 84480, Note_on_c, 0, 69, 80
1, 84935, Note_on_c, 0, 69, 0
1, 84960, Note_on_c, 0, 64, 80
1, 85415, Note_on_c, 0, 64, 0
1, 85440, Note_on_c, 0, 64, 80
1, 85667, Note_on_c, 0, 64, 0
1, 85680, Note_on_c, 0, 62, 80
1, 85907, Note_on_c, 0, 62, 0
1, 85920, Note_on_c, 0, 64, 80
1, 86147, Note_on_c, 0, 64, 0
1, 86160, Note_on_c, 0, 62, 80
1, 86387, Note_on_c, 0, 62, 0
1, 86400, Note_on_c, 0, 64, 80
1, 86627, Note_on_c, 0, 64, 0
1, 86640, Note_on_c, 0, 62, 80
1, 86867, Note_on_c, 0, 62, 0
1, 86880, Note_on_c, 0, 64, 80
1, 87107, Note_on_c, 0, 64, 0
1, 87120, Note_on_c, 0, 62, 80
1, 87347, Note_on_c, 0, 62, 0
1, 87360, Note_on_c, 0, 64, 80
1, 87587, Note_on_c, 0, 64, 0
1, 87600, Note_on_c, 0, 57, 80
1, 87827, Note_on_c, 0, 57, 0
1, 87840, Note_on_c, 0, 57, 80
1, 88067, Note_on_c, 0, 57, 0
1, 88080, Note_on_c, 0, 60, 80
1, 88307, Note_on_c, 0, 60, 0
1, 88560, Note_on_c, 0, 62, 80
1, 88787, Note_on_c, 0, 62, 0
1, 89040, Note_on_c, 0, 64, 80
1, 89267, Note_on_c, 0, 64, 0
1, 89520, Note_on_c, 0, 62, 80
1, 89747, Note_on_c, 0, 62, 0
1, 89760, Note_on_c, 0, 64, 80
1, 89987, Note_on_c, 0, 64, 0
1, 90000, Note_on_c, 0, 62, 80
1, 90227, Note_on_c, 0, 62, 0
1, 90240, Note_on_c, 0, 64, 80
1, 90467, Note_on_c, 0, 64, 0
1, 90480, Note_on_c, 0, 62, 80
1, 90707, Note_on_c, 0, 62, 0
1, 90720, Note_on_c, 0, 64, 80
1, 90947, Note_on_c, 0, 64, 0
1, 90960, Note_on_c, 0, 62, 80
1, 91187, Note_on_c, 0, 62, 0
1, 91200, Note_on_c, 0, 69, 80
1, 91427, Note_on_c, 0, 69, 0
1, 91440, Note_on_c, 0, 67, 80
1, 91667, Note_on_c, 0, 67, 0
1, 91920, Note_on_c, 0, 64, 80
1, 92375, Note_on_c, 0, 64, 0
1, 92400, Note_on_c, 0, 64, 80
1, 92627, Note_on_c, 0, 64, 0
1, 92640, Note_on_c, 0, 62, 80
1, 92867, Note_on_c, 0, 62, 0
1, 92880, Note_on_c, 0, 60, 80
1, 93107, Note_on_c, 0, 60, 0
1, 93120, Note_on_c, 0, 74, 80
1, 93347, Note_on_c, 0, 74, 0
1, 93360, Note_on_c, 0, 76, 80
1, 93587, Note_on_c, 0, 76, 0
1, 93600, Note_on_c, 0, 74, 80
1, 93713, Note_on_c, 0, 74, 0
1, 93720, Note_on_c, 0, 76, 80
1, 94061, Note_on_c, 0, 76, 0
1, 94080, Note_on_c, 0, 74, 80
1, 94307, Note_on_c, 0, 74, 0
1, 94320, Note_on_c, 0, 76, 80
1, 94547, Note_on_c, 0, 76, 0
1, 94560, Note_on_c, 0, 74, 80
1, 94673, Note_on_c, 0, 74, 0
1, 94680, Note_on_c, 0, 76, 80
1, 95021, Note_on_c, 0, 76, 0
1, 95040, Note_on_c, 0, 74, 80
1, 95267, Note_on_c, 0, 74, 0
1, 95280, Note_on_c, 0, 76, 80
1, 95507, Note_on_c, 0, 76, 0
1, 95760, Note_on_c, 0, 74, 80
1, 95987, Note_on_c, 0, 74, 0
1, 96000, Note_on_c, 0, 74, 80
1, 96113, Note_on_c, 0, 74, 0
1, 96120, Note_on_c, 0, 76, 80
1, 96461, Note_on_c, 0, 76, 0
1, 96480, Note_on_c, 0, 76, 80
1, 96707, Note_on_c, 0, 76, 0
1, 96720, Note_on_c, 0, 74, 80
1, 96833, Note_on_c, 0, 74, 0
1, 96840, Note_on_c, 0, 72, 80
1, 97181, Note_on_c, 0, 72, 0
1, 97200, Note_on_c, 0, 69, 80
1, 97427, Note_on_c, 0, 69, 0
1, 98640, Note_on_c, 0, 64, 80
1, 98640, Note_on_c, 0, 69, 80
1, 99095, Note_on_c, 0, 64, 0
1, 99095, Note_on_c, 0, 69, 0
1, 99120, Note_on_c, 0, 64, 80
1, 99120, Note_on_c, 0, 69, 80
1, 99347, Note_on_c, 0, 64, 0
1, 99347, Note_on_c, 0, 69, 0
1, 99360, Note_on_c, 0, 64, 80
1, 99360, Note_on_c, 0, 69, 80
1, 99587, Note_on_c, 0, 64, 0
1, 99587, Note_on_c, 0, 69, 0
1, 99600, Note_on_c, 0, 64, 80
1, 99600, Note_on_c, 0, 69, 80
1, 99827, Note_on_c, 0, 64, 0
1, 99827, Note_on_c, 0, 69, 0
1, 99840, Note_on_c, 0, 64, 80
1, 99840, Note_on_c, 0, 69, 80
1, 100067, Note_on_c, 0, 64, 0
1, 100067, Note_on_c, 0, 69, 0
1, 100080, Note_on_c, 0, 64, 80
1, 100080, Note_on_c, 0, 69, 80
1, 100307, Note_on_c, 0, 64, 0
1, 100307, Note_on_c, 0, 69, 0
1, 100320, Note_on_c, 0, 64, 80
1, 100320, Note_on_c, 0, 69, 80
1, 100547, Note_on_c, 0, 64, 0
1, 100547, Note_on_c, 0, 69, 0
1, 100560, Note_on_c, 0, 64, 80
1, 100560, Note_on_c, 0, 69, 80
1, 100787, Note_on_c, 0, 64, 0
1, 100787, Note_on_c, 0, 69, 0
1, 100800, Note_on_c, 0, 64, 80
1, 100800, Note_on_c, 0, 69, 80
1, 101255, Note_on_c, 0, 64, 0
1, 101255, Note_on_c, 0, 69, 0
1, 101280, Note_on_c, 0, 64, 80
1, 101280, Note_on_c, 0, 69, 80
1, 101507, Note_on_c, 0, 64, 0
1, 101507, Note_on_c, 0, 69, 0
1, 101520, Note_on_c, 0, 64, 80
1, 101520, Note_on_c, 0, 67, 80
1, 101747, Note_on_c, 0, 64, 0
1, 101747, Note_on_c, 0, 67, 0
1, 101760, Note_on_c, 0, 64, 80
1, 101760, Note_on_c, 0, 69, 80
1, 101987, Note_on_c, 0, 64, 0
1, 101987, Note_on_c, 0, 69, 0
1, 102000, Note_on_c, 0, 64, 80
1, 102000, Note_on_c, 0, 67, 80
1, 102227, Note_on_c, 0, 64, 0
1, 102227, Note_on_c, 0, 67, 0
1, 102240, Note_on_c, 0, 64, 80
1, 102240, Note_on_c, 0, 69, 80
1, 102467, Note_on_c, 0, 64, 0
1, 102467, Note_on_c, 0, 69, 0
1, 102480, Note_on_c, 0, 64, 80
1, 102480, Note_on_c, 0, 67, 80
1, 102707, Note_on_c, 0, 64, 0
1, 102707, Note_on_c, 0, 67, 0
1, 102720, Note_on_c, 0, 64, 80
1, 102720, Note_on_c, 0, 67, 80
1, 103175, Note_on_c, 0, 64, 0
1, 103175, Note_on_c, 0, 67, 0
1, 103200, Note_on_c, 0, 57, 80
1, 103200, Note_on_c, 0, 60, 80
1, 103427, Note_on_c, 0, 57, 0
1, 103427, Note_on_c, 0, 60, 0
1, 103440, Note_on_c, 0, 60, 80
1, 103440, Note_on_c, 0, 64, 80
1, 103895, Note_on_c, 0, 60, 0
1, 103895, Note_on_c, 0, 64, 0
1, 103920, Note_on_c, 0, 64, 80
1, 103920, Note_on_c, 0, 67, 80
1, 104147, Note_on_c, 0, 64, 0
1, 104147, Note_on_c, 0, 67, 0
1, 104400, Note_on_c, 0, 64, 80
1, 104400, Note_on_c, 0, 67, 80
1, 104627, Note_on_c, 0, 64, 0
1, 104627, Note_on_c, 0, 67, 0
1, 104640, Note_on_c, 0, 64, 80
1, 104640, Note_on_c, 0, 69, 80
1, 104867, Note_on_c, 0, 64, 0
1, 104867, Note_on_c, 0, 69, 0
1, 104880, Note_on_c, 0, 64, 80
1, 104880, Note_on_c, 0, 67, 80
1, 105107, Note_on_c, 0, 64, 0
1, 105107, Note_on_c, 0, 67, 0
1, 105120, Note_on_c, 0, 64, 80
1, 105120, Note_on_c, 0, 69, 80
1, 105347, Note_on_c, 0, 64, 0
1, 105347, Note_on_c, 0, 69, 0
1, 105360, Note_on_c, 0, 64, 80
1, 105360, Note_on_c, 0, 67, 80
1, 105587, Note_on_c, 0, 64, 0
1, 105587, Note_on_c, 0, 67, 0
1, 105600, Note_on_c, 0, 64, 80
1, 105600, Note_on_c, 0, 69, 80
1, 105827, Note_on_c, 0, 64, 0
1, 105827, Note_on_c, 0, 69, 0
1, 105840, Note_on_c, 0, 64, 80
1, 105840, Note_on_c, 0, 67, 80
1, 106067, Note_on_c, 0, 64, 0
1, 106067, Note_on_c, 0, 67, 0
1, 106080, Note_on_c, 0, 64, 80
1, 106080, Note_on_c, 0, 69, 80
1, 106307, Note_on_c, 0, 64, 0
1, 106307, Note_on_c, 0, 69, 0
1, 106320, Note_on_c, 0, 64, 80
1, 106320, Note_on_c, 0, 69, 80
1, 106547, Note_on_c, 0, 64, 0
1, 106547, Note_on_c, 0, 69, 0
1, 106560, Note_on_c, 0, 69, 80
1, 106560, Note_on_c, 0, 74, 80
1, 106787, Note_on_c, 0, 69, 0
1, 106787, Note_on_c, 0, 74, 0
1, 106800, Note_on_c, 0, 67, 80
1, 106800, Note_on_c, 0, 72, 80
1, 107027, Note_on_c, 0, 67, 0
1, 107027, Note_on_c, 0, 72, 0
1, 107280, Note_on_c, 0, 64, 80
1, 107280, Note_on_c, 0, 67, 80
1, 107507, Note_on_c, 0, 64, 0
1, 107507, Note_on_c, 0, 67, 0
1, 107760, Note_on_c, 0, 64, 80
1, 107760, Note_on_c, 0, 67, 80
1, 107987, Note_on_c, 0, 64, 0
1, 107987, Note_on_c, 0, 67, 0
1, 108000, Note_on_c, 0, 69, 80
1, 108113, Note_on_c, 0, 69, 0
1, 108120, Note_on_c, 0, 67, 80
1, 108233, Note_on_c, 0, 67, 0
1, 108240, Note_on_c, 0, 64, 80
1, 108467, Note_on_c, 0, 64, 0
1, 108480, Note_on_c, 0, 67, 80
1, 108480, Note_on_c, 0, 74, 80
1, 108707, Note_on_c, 0, 67, 0
1, 108707, Note_on_c, 0, 74, 0
1, 108720, Note_on_c, 0, 76, 80
1, 108947, Note_on_c, 0, 76, 0
1, 108960, Note_on_c, 0, 76, 80
1, 109415, Note_on_c, 0, 76, 0
1, 109440, Note_on_c, 0, 67, 80
1, 109440, Note_on_c, 0, 74, 80
1, 109667, Note_on_c, 0, 67, 0
1, 109667, Note_on_c, 0, 74, 0
1, 109680, Note_on_c, 0, 76, 80
1, 109907, Note_on_c, 0, 76, 0
1, 109920, Note_on_c, 0, 76, 80
1, 110375, Note_on_c, 0, 76, 0
1, 110400, Note_on_c, 0, 67, 80
1, 110400, Note_on_c, 0, 74, 80
1, 110627, Note_on_c, 0, 67, 0
1, 110627, Note_on_c, 0, 74, 0
1, 110640, Note_on_c, 0, 76, 80
1, 110867, Note_on_c, 0, 76, 0
1, 110880, Note_on_c, 0, 76, 80
1, 111107, Note_on_c, 0, 76, 0
1, 111120, Note_on_c, 0, 76, 80
1, 111347, Note_on_c, 0, 76, 0
1, 111360, Note_on_c, 0, 76, 80
1, 111587, Note_on_c, 0, 76, 0
1, 111600, Note_on_c, 0, 76, 80
1, 111827, Note_on_c, 0, 76, 0
1, 111840, Note_on_c, 0, 76, 80
1, 112067, Note_on_c, 0, 76, 0
1, 112080, Note_on_c, 0, 69, 80
1, 112080, Note_on_c, 0, 72, 80
1, 112535, Note_on_c, 0, 69, 0
1, 112535, Note_on_c, 0, 72, 0
1, 112560, Note_on_c, 0, 64, 80
1, 112560, Note_on_c, 0, 69, 80
1, 112787, Note_on_c, 0, 64, 0
1, 112787, Note_on_c, 0, 69, 0
1, 114000, Note_on_c, 0, 60, 80
1, 114000, Note_on_c, 0, 64, 80
1, 114227, Note_on_c, 0, 60, 0
1, 114227, Note_on_c, 0, 64, 0
1, 114240, Note_on_c, 0, 64, 80
1, 114240, Note_on_c, 0, 67, 80
1, 114467, Note_on_c, 0, 64, 0
1, 114467, Note_on_c, 0, 67, 0
1, 114480, Note_on_c, 0, 60, 80
1, 114480, Note_on_c, 0, 64, 80
1, 114707, Note_on_c, 0, 60, 0
1, 114707, Note_on_c, 0, 64, 0
1, 114720, Note_on_c, 0, 64, 80
1, 114720, Note_on_c, 0, 67, 80
1, 114947, Note_on_c, 0, 64, 0
1, 114947, Note_on_c, 0, 67, 0
1, 114960, Note_on_c, 0, 60, 80
1, 114960, Note_on_c, 0, 64, 80
1, 115187, Note_on_c, 0, 60, 0
1, 115187, Note_on_c, 0, 64, 0
1, 115200, Note_on_c, 0, 64, 80
1, 115200, Note_on_c, 0, 67, 80
1, 115427, Note_on_c, 0, 64, 0
1, 115427, Note_on_c, 0, 67, 0
1, 115440, Note_on_c, 0, 64, 80
1, 115440, Note_on_c, 0, 69, 80
1, 115667, Note_on_c, 0, 64, 0
1, 115667, Note_on_c, 0, 69, 0
1, 115680, Note_on_c, 0, 62, 80
1, 115680, Note_on_c, 0, 67, 80
1, 115907, Note_on_c, 0, 62, 0
1, 115907, Note_on_c, 0, 67, 0
1, 115920, Note_on_c, 0, 64, 80
1, 115920, Note_on_c, 0, 69, 80
1, 116147, Note_on_c, 0, 64, 0
1, 116147, Note_on_c, 0, 69, 0
1, 116160, Note_on_c, 0, 57, 80
1, 116501, Note_on_c, 0, 57, 0
1, 116520, Note_on_c, 0, 57, 80
1, 116747, Note_on_c, 0, 57, 0
1, 116880, Note_on_c, 0, 57, 80
1, 117107, Note_on_c, 0, 57, 0
1, 117120, Note_on_c, 0, 60, 80
1, 117347, Note_on_c, 0, 60, 0
1, 117360, Note_on_c, 0, 57, 80
1, 117587, Note_on_c, 0, 57, 0
1, 117600, Note_on_c, 0, 60, 80
1, 117827, Note_on_c, 0, 60, 0
1, 117840, Note_on_c, 0, 64, 80
1, 118067, Note_on_c, 0, 64, 0
1, 118080, Note_on_c, 0, 65, 80
1, 118421, Note_on_c, 0, 65, 0
1, 118440, Note_on_c, 0, 65, 80
1, 118667, Note_on_c, 0, 65, 0
1, 118800, Note_on_c, 0, 65, 80
1, 119027, Note_on_c, 0, 65, 0
1, 119040, Note_on_c, 0, 64, 80
1, 119267, Note_on_c, 0, 64, 0
1, 119280, Note_on_c, 0, 65, 80
1, 119507, Note_on_c, 0, 65, 0
1, 119520, Note_on_c, 0, 64, 80
1, 119747, Note_on_c, 0, 64, 0
1, 119760, Note_on_c, 0, 60, 80
1, 119987, Note_on_c, 0, 60, 0
1, 120000, Note_on_c, 0, 57, 80
1, 120341, Note_on_c, 0, 57, 0
1, 120360, Note_on_c, 0, 57, 80
1, 120587, Note_on_c, 0, 57, 0
1, 120720, Note_on_c, 0, 57, 80
1, 120947, Note_on_c, 0, 57, 0
1, 120960, Note_on_c, 0, 60, 80
1, 121187, Note_on_c, 0, 60, 0
1, 121200, Note_on_c, 0, 57, 80
1, 121427, Note_on_c, 0, 57, 0
1, 121440, Note_on_c, 0, 60, 80
1, 121667, Note_on_c, 0, 60, 0
1, 121680, Note_on_c, 0, 64, 80
1, 121907, Note_on_c, 0, 64, 0
1, 121920, Note_on_c, 0, 65, 80
1, 122261, Note_on_c, 0, 65, 0
1, 122280, Note_on_c, 0, 65, 80
1, 122507, Note_on_c, 0, 65, 0
1, 122640, Note_on_c, 0, 65, 80
1, 122867, Note_on_c, 0, 65, 0
1, 122880, Note_on_c, 0, 69, 80
1, 122880, Note_on_c, 0, 72, 80
1, 122880, Note_on_c, 0, 64, 80
1, 123107, Note_on_c, 0, 64, 0
1, 123120, Note_on_c, 0, 65, 80
1, 123347, Note_on_c, 0, 65, 0
1, 123360, Note_on_c, 0, 64, 80
1, 123587, Note_on_c, 0, 64, 0
1, 123600, Note_on_c, 0, 60, 80
1, 123791, Note_on_c, 0, 69, 0
1, 123791, Note_on_c, 0, 72, 0
1, 123827, Note_on_c, 0, 60, 0
1, 123840, Note_on_c, 0, 64, 80
1, 123840, Note_on_c, 0, 69, 80
1, 127487, Note_on_c, 0, 64, 0
1, 127487, Note_on_c, 0, 69, 0
1, 132480, Note_on_c, 0, 72, 80
1, 132935, Note_on_c, 0, 72, 0
1, 132960, Note_on_c, 0, 71, 80
1, 133415, Note_on_c, 0, 71, 0
1, 133440, Note_on_c, 0, 69, 80
1, 133667, Note_on_c, 0, 69, 0
1, 133680, Note_on_c, 0, 76, 80
1, 134135, Note_on_c, 0, 76, 0
1, 134160, Note_on_c, 0, 69, 80
1, 134387, Note_on_c, 0, 69, 0
1, 134400, Note_on_c, 0, 76, 80
1, 134855, Note_on_c, 0, 76, 0
1, 134880, Note_on_c, 0, 69, 80
1, 135107, Note_on_c, 0, 69, 0
1, 135120, Note_on_c, 0, 77, 80
1, 135347, Note_on_c, 0, 77, 0
1, 135360, Note_on_c, 0, 79, 80
1, 135587, Note_on_c, 0, 79, 0
1, 135600, Note_on_c, 0, 81, 80
1, 135827, Note_on_c, 0, 81, 0
1, 135840, Note_on_c, 0, 76, 80
1, 136067, Note_on_c, 0, 76, 0
1, 136080, Note_on_c, 0, 79, 80
1, 136307, Note_on_c, 0, 79, 0
1, 136320, Note_on_c, 0, 74, 80
1, 136775, Note_on_c, 0, 74, 0
1, 136800, Note_on_c, 0, 76, 80
1, 137255, Note_on_c, 0, 76, 0
1, 137280, Note_on_c, 0, 67, 80
1, 137507, Note_on_c, 0, 67, 0
1, 137520, Note_on_c, 0, 74, 80
1, 137975, Note_on_c, 0, 74, 0
1, 138000, Note_on_c, 0, 67, 80
1, 138227, Note_on_c, 0, 67, 0
1, 138240, Note_on_c, 0, 74, 80
1, 138695, Note_on_c, 0, 74, 0
1, 138720, Note_on_c, 0, 71, 80
1, 138947, Note_on_c, 0, 71, 0
1, 138960, Note_on_c, 0, 72, 80
1, 139415, Note_on_c, 0, 72, 0
1, 139440, Note_on_c, 0, 74, 80
1, 139667, Note_on_c, 0, 74, 0
1, 139680, Note_on_c, 0, 76, 80
1, 139907, Note_on_c, 0, 76, 0
1, 139920, Note_on_c, 0, 81, 80
1, 140147, Note_on_c, 0, 81, 0
1, 140160, Note_on_c, 0, 79, 80
1, 140387, Note_on_c, 0, 79, 0
1, 140400, Note_on_c, 0, 76, 80
1, 140627, Note_on_c, 0, 76, 0
1, 140640, Note_on_c, 0, 74, 80
1, 140867, Note_on_c, 0, 74, 0
1, 140880, Note_on_c, 0, 67, 80
1, 141107, Note_on_c, 0, 67, 0
1, 141120, Note_on_c, 0, 69, 80
1, 141575, Note_on_c, 0, 69, 0
1, 141840, Note_on_c, 0, 67, 80
1, 142067, Note_on_c, 0, 67, 0
1, 142080, Note_on_c, 0, 69, 80
1, 142535, Note_on_c, 0, 69, 0
1, 142560, Note_on_c, 0, 79, 80
1, 142787, Note_on_c, 0, 79, 0
1, 142800, Note_on_c, 0, 81, 80
1, 143027, Note_on_c, 0, 81, 0
1, 143040, Note_on_c, 0, 79, 80
1, 143495, Note_on_c, 0, 79, 0
1, 143520, Note_on_c, 0, 76, 80
1, 143975, Note_on_c, 0, 76, 0
1, 144000, Note_on_c, 0, 83, 80
1, 144455, Note_on_c, 0, 83, 0
1, 144480, Note_on_c, 0, 83, 80
1, 144707, Note_on_c, 0, 83, 0
1, 144720, Note_on_c, 0, 84, 80
1, 144947, Note_on_c, 0, 84, 0
1, 144960, Note_on_c, 0, 83, 80
1, 145415, Note_on_c, 0, 83, 0
1, 145440, Note_on_c, 0, 79, 80
1, 145895, Note_on_c, 0, 79, 0
1, 145920, Note_on_c, 0, 76, 80
1, 146375, Note_on_c, 0, 76, 0
1, 146400, Note_on_c, 0, 72, 80
1, 146627, Note_on_c, 0, 72, 0
1, 146640, Note_on_c, 0, 79, 80
1, 146867, Note_on_c, 0, 79, 0
1, 146880, Note_on_c, 0, 81, 80
1, 147107, Note_on_c, 0, 81, 0
1, 147120, Note_on_c, 0, 79, 80
1, 147347, Note_on_c, 0, 79, 0
1, 147360, Note_on_c, 0, 81, 80
1, 147587, Note_on_c, 0, 81, 0
1, 147600, Note_on_c, 0, 76, 80
1, 148055, Note_on_c, 0, 76, 0
1, 148080, Note_on_c, 0, 74, 80
1, 148307, Note_on_c, 0, 74, 0
1, 148320, Note_on_c, 0, 72, 80
1, 148775, Note_on_c, 0, 72, 0
1, 148800, Note_on_c, 0, 79, 80
1, 149027, Note_on_c, 0, 79, 0
1, 149040, Note_on_c, 0, 81, 80
1, 149267, Note_on_c, 0, 81, 0
1, 149520, Note_on_c, 0, 76, 80
1, 149747, Note_on_c, 0, 76, 0
1, 149760, Note_on_c, 0, 79, 80
1, 149987, Note_on_c, 0, 79, 0
1, 150000, Note_on_c, 0, 81, 80
1, 150227, Note_on_c, 0, 81, 0
1, 150480, Note_on_c, 0, 81, 80
1, 150707, Note_on_c, 0, 81, 0
1, 150720, Note_on_c, 0, 79, 80
1, 150947, Note_on_c, 0, 79, 0
1, 150960, Note_on_c, 0, 76, 80
1, 151187, Note_on_c, 0, 76, 0
1, 151200, Note_on_c, 0, 84, 80
1, 151427, Note_on_c, 0, 84, 0
1, 151440, Note_on_c, 0, 83, 80
1, 151667, Note_on_c, 0, 83, 0
1, 151920, Note_on_c, 0, 79, 80
1, 152147, Note_on_c, 0, 79, 0
1, 152160, Note_on_c, 0, 84, 80
1, 152387, Note_on_c, 0, 84, 0
1, 152400, Note_on_c, 0, 83, 80
1, 152627, Note_on_c, 0, 83, 0
1, 152880, Note_on_c, 0, 79, 80
1, 153107, Note_on_c, 0, 79, 0
1, 153120, Note_on_c, 0, 84, 80
1, 153347, Note_on_c, 0, 84, 0
1, 153360, Note_on_c, 0, 83, 80
1, 153815, Note_on_c, 0, 83, 0
1, 153840, Note_on_c, 0, 79, 80
1, 154067, Note_on_c, 0, 79, 0
1, 154080, Note_on_c, 0, 84, 80
1, 154307, Note_on_c, 0, 84, 0
1, 154320, Note_on_c, 0, 83, 80
1, 154775, Note_on_c, 0, 83, 0
1, 154800, Note_on_c, 0, 79, 80
1, 155027, Note_on_c, 0, 79, 0
1, 155040, Note_on_c, 0, 81, 80
1, 155495, Note_on_c, 0, 81, 0
1, 155520, Note_on_c, 0, 81, 80
1, 155747, Note_on_c, 0, 81, 0
1, 155760, Note_on_c, 0, 79, 80
1, 155987, Note_on_c, 0, 79, 0
1, 156000, Note_on_c, 0, 76, 80
1, 156227, Note_on_c, 0, 76, 0
1, 156240, Note_on_c, 0, 74, 80
1, 156467, Note_on_c, 0, 74, 0
1, 156480, Note_on_c, 0, 72, 80
1, 156935, Note_on_c, 0, 72, 0
1, 156960, Note_on_c, 0, 69, 80
1, 157415, Note_on_c, 0, 69, 0
1, 157440, Note_on_c, 0, 72, 80
1, 157895, Note_on_c, 0, 72, 0
1, 157920, Note_on_c, 0, 79, 80
1, 158147, Note_on_c, 0, 79, 0
1, 158160, Note_on_c, 0, 81, 80
1, 158387, Note_on_c, 0, 81, 0
1, 158400, Note_on_c, 0, 79, 80
1, 158855, Note_on_c, 0, 79, 0
1, 159360, Note_on_c, 0, 79, 80
1, 159587, Note_on_c, 0, 79, 0
1, 159600, Note_on_c, 0, 81, 80
1, 160283, Note_on_c, 0, 81, 0
1, 160320, Note_on_c, 0, 65, 80
1, 160320, Note_on_c, 0, 69, 80
1, 160547, Note_on_c, 0, 65, 0
1, 160547, Note_on_c, 0, 69, 0
1, 160560, Note_on_c, 0, 72, 80
1, 160560, Note_on_c, 0, 76, 80
1, 161015, Note_on_c, 0, 72, 0
1, 161015, Note_on_c, 0, 76, 0
1, 161040, Note_on_c, 0, 65, 80
1, 161040, Note_on_c, 0, 69, 80
1, 161267, Note_on_c, 0, 65, 0
1, 161267, Note_on_c, 0, 69, 0
1, 161280, Note_on_c, 0, 72, 80
1, 161280, Note_on_c, 0, 76, 80
1, 161735, Note_on_c, 0, 72, 0
1, 161735, Note_on_c, 0, 76, 0
1, 161760, Note_on_c, 0, 69, 80
1, 161760, Note_on_c, 0, 72, 80
1, 161987, Note_on_c, 0, 69, 0
1, 161987, Note_on_c, 0, 72, 0
1, 162000, Note_on_c, 0, 76, 80
1, 162000, Note_on_c, 0, 79, 80
1, 162227, Note_on_c, 0, 76, 0
1, 162455, Note_on_c, 0, 79, 0
1, 162480, Note_on_c, 0, 77, 80
1, 162480, Note_on_c, 0, 81, 80
1, 162707, Note_on_c, 0, 77, 0
1, 162707, Note_on_c, 0, 81, 0
1, 162720, Note_on_c, 0, 72, 80
1, 162720, Note_on_c, 0, 76, 80
1, 162947, Note_on_c, 0, 72, 0
1, 162947, Note_on_c, 0, 76, 0
1, 162960, Note_on_c, 0, 76, 80
1, 162960, Note_on_c, 0, 79, 80
1, 163187, Note_on_c, 0, 76, 0
1, 163187, Note_on_c, 0, 79, 0
1, 163200, Note_on_c, 0, 71, 80
1, 163200, Note_on_c, 0, 74, 80
1, 163655, Note_on_c, 0, 71, 0
1, 163655, Note_on_c, 0, 74, 0
1, 163680, Note_on_c, 0, 72, 80
1, 163680, Note_on_c, 0, 76, 80
1, 164135, Note_on_c, 0, 72, 0
1, 164135, Note_on_c, 0, 76, 0
1, 164160, Note_on_c, 0, 64, 80
1, 164160, Note_on_c, 0, 67, 80
1, 164387, Note_on_c, 0, 64, 0
1, 164387, Note_on_c, 0, 67, 0
1, 164400, Note_on_c, 0, 71, 80
1, 164400, Note_on_c, 0, 74, 80
1, 164855, Note_on_c, 0, 71, 0
1, 164855, Note_on_c, 0, 74, 0
1, 164880, Note_on_c, 0, 64, 80
1, 164880, Note_on_c, 0, 67, 80
1, 165107, Note_on_c, 0, 64, 0
1, 165107, Note_on_c, 0, 67, 0
1, 165120, Note_on_c, 0, 71, 80
1, 165120, Note_on_c, 0, 74, 80
1, 165575, Note_on_c, 0, 71, 0
1, 165575, Note_on_c, 0, 74, 0
1, 165600, Note_on_c, 0, 67, 80
1, 165600, Note_on_c, 0, 71, 80
1, 165827, Note_on_c, 0, 67, 0
1, 165827, Note_on_c, 0, 71, 0
1, 165840, Note_on_c, 0, 69, 80
1, 165840, Note_on_c, 0, 72, 80
1, 166067, Note_on_c, 0, 69, 0
1, 166295, Note_on_c, 0, 72, 0
1, 166320, Note_on_c, 0, 71, 80
1, 166320, Note_on_c, 0, 74, 80
1, 166547, Note_on_c, 0, 71, 0
1, 166547, Note_on_c, 0, 74, 0
1, 166560, Note_on_c, 0, 72, 80
1, 166560, Note_on_c, 0, 76, 80
1, 166787, Note_on_c, 0, 72, 0
1, 166787, Note_on_c, 0, 76, 0
1, 166800, Note_on_c, 0, 77, 80
1, 166800, Note_on_c, 0, 81, 80
1, 167027, Note_on_c, 0, 77, 0
1, 167027, Note_on_c, 0, 81, 0
1, 167040, Note_on_c, 0, 76, 80
1, 167040, Note_on_c, 0, 79, 80
1, 167267, Note_on_c, 0, 76, 0
1, 167267, Note_on_c, 0, 79, 0
1, 167280, Note_on_c, 0, 72, 80
1, 167280, Note_on_c, 0, 76, 80
1, 167507, Note_on_c, 0, 72, 0
1, 167507, Note_on_c, 0, 76, 0
1, 167520, Note_on_c, 0, 71, 80
1, 167520, Note_on_c, 0, 74, 80
1, 167747, Note_on_c, 0, 71, 0
1, 167747, Note_on_c, 0, 74, 0
1, 167760, Note_on_c, 0, 64, 80
1, 167760, Note_on_c, 0, 67, 80
1, 167987, Note_on_c, 0, 64, 0
1, 167987, Note_on_c, 0, 67, 0
1, 168000, Note_on_c, 0, 65, 80
1, 168000, Note_on_c, 0, 69, 80
1, 168455, Note_on_c, 0, 65, 0
1, 168455, Note_on_c, 0, 69, 0
1, 168480, Note_on_c, 0, 67, 80
1, 168480, Note_on_c, 0, 71, 80
1, 168935, Note_on_c, 0, 67, 0
1, 168935, Note_on_c, 0, 71, 0
1, 168960, Note_on_c, 0, 69, 80
1, 168960, Note_on_c, 0, 72, 80
1, 169415, Note_on_c, 0, 69, 0
1, 169415, Note_on_c, 0, 72, 0
1, 169440, Note_on_c, 0, 76, 80
1, 169440, Note_on_c, 0, 79, 80
1, 169667, Note_on_c, 0, 76, 0
1, 169667, Note_on_c, 0, 79, 0
1, 169680, Note_on_c, 0, 77, 80
1, 169680, Note_on_c, 0, 81, 80
1, 169907, Note_on_c, 0, 77, 0
1, 169907, Note_on_c, 0, 81, 0
1, 169920, Note_on_c, 0, 76, 80
1, 169920, Note_on_c, 0, 79, 80
1, 170375, Note_on_c, 0, 76, 0
1, 170375, Note_on_c, 0, 79, 0
1, 170400, Note_on_c, 0, 72, 80
1, 170400, Note_on_c, 0, 76, 80
1, 170855, Note_on_c, 0, 72, 0
1, 170855, Note_on_c, 0, 76, 0
1, 170880, Note_on_c, 0, 79, 80
1, 170880, Note_on_c, 0, 83, 80
1, 171335, Note_on_c, 0, 79, 0
1, 171335, Note_on_c, 0, 83, 0
1, 171360, Note_on_c, 0, 79, 80
1, 171360, Note_on_c, 0, 83, 80
1, 171587, Note_on_c, 0, 79, 0
1, 171587, Note_on_c, 0, 83, 0
1, 171600, Note_on_c, 0, 81, 80
1, 171600, Note_on_c, 0, 84, 80
1, 171827, Note_on_c, 0, 81, 0
1, 171827, Note_on_c, 0, 84, 0
1, 171840, Note_on_c, 0, 79, 80
1, 171840, Note_on_c, 0, 83, 80
1, 172295, Note_on_c, 0, 79, 0
1, 172295, Note_on_c, 0, 83, 0
1, 172320, Note_on_c, 0, 76, 80
1, 172320, Note_on_c, 0, 79, 80
1, 172775, Note_on_c, 0, 76, 0
1, 172775, Note_on_c, 0, 79, 0
1, 172800, Note_on_c, 0, 72, 80
1, 172800, Note_on_c, 0, 76, 80
1, 173255, Note_on_c, 0, 72, 0
1, 173255, Note_on_c, 0, 76, 0
1, 173280, Note_on_c, 0, 69, 80
1, 173280, Note_on_c, 0, 72, 80
1, 173507, Note_on_c, 0, 69, 0
1, 173507, Note_on_c, 0, 72, 0
1, 173520, Note_on_c, 0, 76, 80
1, 173520, Note_on_c, 0, 79, 80
1, 173747, Note_on_c, 0, 76, 0
1, 173747, Note_on_c, 0, 79, 0
1, 173760, Note_on_c, 0, 77, 80
1, 173760, Note_on_c, 0, 81, 80
1, 173987, Note_on_c, 0, 77, 0
1, 173987, Note_on_c, 0, 81, 0
1, 174000, Note_on_c, 0, 76, 80
1, 174000, Note_on_c, 0, 79, 80
1, 174227, Note_on_c, 0, 76, 0
1, 174227, Note_on_c, 0, 79, 0
1, 174240, Note_on_c, 0, 77, 80
1, 174240, Note_on_c, 0, 81, 80
1, 174467, Note_on_c, 0, 77, 0
1, 174467, Note_on_c, 0, 81, 0
1, 174480, Note_on_c, 0, 76, 80
1, 174480, Note_on_c, 0, 72, 80
1, 174707, Note_on_c, 0, 72, 0
1, 174935, Note_on_c, 0, 76, 0
1, 174960, Note_on_c, 0, 71, 80
1, 174960, Note_on_c, 0, 74, 80
1, 175187, Note_on_c, 0, 71, 0
1, 175187, Note_on_c, 0, 74, 0
1, 175200, Note_on_c, 0, 69, 80
1, 175200, Note_on_c, 0, 72, 80
1, 175655, Note_on_c, 0, 69, 0
1, 175655, Note_on_c, 0, 72, 0
1, 175680, Note_on_c, 0, 76, 80
1, 175680, Note_on_c, 0, 81, 80
1, 176135, Note_on_c, 0, 76, 0
1, 176135, Note_on_c, 0, 81, 0
1, 176400, Note_on_c, 0, 72, 80
1, 176400, Note_on_c, 0, 76, 80
1, 176627, Note_on_c, 0, 72, 0
1, 176627, Note_on_c, 0, 76, 0
1, 176640, Note_on_c, 0, 76, 80
1, 176640, Note_on_c, 0, 79, 80
1, 176867, Note_on_c, 0, 76, 0
1, 176867, Note_on_c, 0, 79, 0
1, 176880, Note_on_c, 0, 76, 80
1, 176880, Note_on_c, 0, 81, 80
1, 177107, Note_on_c, 0, 76, 0
1, 177107, Note_on_c, 0, 81, 0
1, 177360, Note_on_c, 0, 76, 80
1, 177360, Note_on_c, 0, 81, 80
1, 177587, Note_on_c, 0, 76, 0
1, 177587, Note_on_c, 0, 81, 0
1, 177600, Note_on_c, 0, 76, 80
1, 177600, Note_on_c, 0, 79, 80
1, 177827, Note_on_c, 0, 76, 0
1, 177827, Note_on_c, 0, 79, 0
1, 177840, Note_on_c, 0, 72, 80
1, 177840, Note_on_c, 0, 76, 80
1, 178067, Note_on_c, 0, 72, 0
1, 178067, Note_on_c, 0, 76, 0
1, 178080, Note_on_c, 0, 81, 80
1, 178080, Note_on_c, 0, 84, 80
1, 178307, Note_on_c, 0, 81, 0
1, 178307, Note_on_c, 0, 84, 0
1, 178320, Note_on_c, 0, 79, 80
1, 178320, Note_on_c, 0, 83, 80
1, 178547, Note_on_c, 0, 79, 0
1, 178547, Note_on_c, 0, 83, 0
1, 178800, Note_on_c, 0, 76, 80
1, 178800, Note_on_c, 0, 79, 80
1, 179027, Note_on_c, 0, 76, 0
1, 179027, Note_on_c, 0, 79, 0
1, 179040, Note_on_c, 0, 81, 80
1, 179040, Note_on_c, 0, 84, 80
1, 179267, Note_on_c, 0, 81, 0
1, 179267, Note_on_c, 0, 84, 0
1, 179280, Note_on_c, 0, 79, 80
1, 179280, Note_on_c, 0, 83, 80
1, 179507, Note_on_c, 0, 79, 0
1, 179507, Note_on_c, 0, 83, 0
1, 179760, Note_on_c, 0, 76, 80
1, 179760, Note_on_c, 0, 79, 80
1, 179987, Note_on_c, 0, 76, 0
1, 179987, Note_on_c, 0, 79, 0
1, 180000, Note_on_c, 0, 81, 80
1, 180000, Note_on_c, 0, 84, 80
1, 180227, Note_on_c, 0, 81, 0
1, 180227, Note_on_c, 0, 84, 0
1, 180240, Note_on_c, 0, 79, 80
1, 180240, Note_on_c, 0, 83, 80
1, 180467, Note_on_c, 0, 79, 0
1, 180467, Note_on_c, 0, 83, 0
1, 180720, Note_on_c, 0, 76, 80
1, 180720, Note_on_c, 0, 79, 80
1, 180947, Note_on_c, 0, 76, 0
1, 180947, Note_on_c, 0, 79, 0
1, 180960, Note_on_c, 0, 81, 80
1, 180960, Note_on_c, 0, 84, 80
1, 181187, Note_on_c, 0, 81, 0
1, 181187, Note_on_c, 0, 84, 0
1, 181200, Note_on_c, 0, 79, 80
1, 181200, Note_on_c, 0, 83, 80
1, 181655, Note_on_c, 0, 79, 0
1, 181655, Note_on_c, 0, 83, 0
1, 181680, Note_on_c, 0, 74, 80
1, 181680, Note_on_c, 0, 79, 80
1, 181907, Note_on_c, 0, 74, 0
1, 181907, Note_on_c, 0, 79, 0
1, 181920, Note_on_c, 0, 76, 80
1, 181920, Note_on_c, 0, 81, 80
1, 182375, Note_on_c, 0, 76, 0
1, 182375, Note_on_c, 0, 81, 0
1, 182400, Note_on_c, 0, 76, 80
1, 182400, Note_on_c, 0, 81, 80
1, 182627, Note_on_c, 0, 76, 0
1, 182627, Note_on_c, 0, 81, 0
1, 182640, Note_on_c, 0, 76, 80
1, 182640, Note_on_c, 0, 79, 80
1, 182867, Note_on_c, 0, 76, 0
1, 182867, Note_on_c, 0, 79, 0
1, 182880, Note_on_c, 0, 72, 80
1, 182880, Note_on_c, 0, 76, 80
1, 183107, Note_on_c, 0, 72, 0
1, 183107, Note_on_c, 0, 76, 0
1, 183120, Note_on_c, 0, 71, 80
1, 183120, Note_on_c, 0, 74, 80
1, 183347, Note_on_c, 0, 71, 0
1, 183347, Note_on_c, 0, 74, 0
1, 183360, Note_on_c, 0, 69, 80
1, 183360, Note_on_c, 0, 72, 80
1, 183815, Note_on_c, 0, 69, 0
1, 183815, Note_on_c, 0, 72, 0
1, 183840, Note_on_c, 0, 65, 80
1, 183840, Note_on_c, 0, 69, 80
1, 184295, Note_on_c, 0, 65, 0
1, 184295, Note_on_c, 0, 69, 0
1, 184320, Note_on_c, 0, 69, 80
1, 184320, Note_on_c, 0, 72, 80
1, 184775, Note_on_c, 0, 69, 0
1, 184775, Note_on_c, 0, 72, 0
1, 184800, Note_on_c, 0, 76, 80
1, 184800, Note_on_c, 0, 79, 80
1, 185027, Note_on_c, 0, 76, 0
1, 185027, Note_on_c, 0, 79, 0
1, 185040, Note_on_c, 0, 77, 80
1, 185040, Note_on_c, 0, 81, 80
1, 185267, Note_on_c, 0, 77, 0
1, 185267, Note_on_c, 0, 81, 0
1, 185280, Note_on_c, 0, 76, 80
1, 185280, Note_on_c, 0, 79, 80
1, 185735, Note_on_c, 0, 76, 0
1, 185735, Note_on_c, 0, 79, 0
1, 185760, Note_on_c, 0, 72, 80
1, 185760, Note_on_c, 0, 76, 80
1, 186215, Note_on_c, 0, 72, 0
1, 186215, Note_on_c, 0, 76, 0
1, 186240, Note_on_c, 0, 62, 80
1, 186240, Note_on_c, 0, 67, 80
1, 186695, Note_on_c, 0, 62, 0
1, 186695, Note_on_c, 0, 67, 0
1, 186720, Note_on_c, 0, 67, 80
1, 186833, Note_on_c, 0, 67, 0
1, 186840, Note_on_c, 0, 69, 80
1, 186953, Note_on_c, 0, 69, 0
1, 186960, Note_on_c, 0, 72, 80
1, 187187, Note_on_c, 0, 72, 0
1, 187200, Note_on_c, 0, 72, 80
1, 187200, Note_on_c, 0, 76, 80
1, 187655, Note_on_c, 0, 72, 0
1, 187655, Note_on_c, 0, 76, 0
1, 187680, Note_on_c, 0, 67, 80
1, 187907, Note_on_c, 0, 67, 0
1, 187920, Note_on_c, 0, 69, 80
1, 188603, Note_on_c, 0, 69, 0
1, 189120, Note_on_c, 0, 72, 80
1, 189120, Note_on_c, 0, 76, 80
1, 189575, Note_on_c, 0, 72, 0
1, 189575, Note_on_c, 0, 76, 0
1, 189600, Note_on_c, 0, 67, 80
1, 189827, Note_on_c, 0, 67, 0
1, 189840, Note_on_c, 0, 69, 80
1, 190295, Note_on_c, 0, 69, 0
1, 190320, Note_on_c, 0, 67, 80
1, 190547, Note_on_c, 0, 67, 0
1, 190560, Note_on_c, 0, 69, 80
1, 190800, Note_on_c, 0, 72, 80
1, 191015, Note_on_c, 0, 69, 0
1, 191027, Note_on_c, 0, 72, 0
1, 191040, Note_on_c, 0, 72, 80
1, 191040, Note_on_c, 0, 76, 80
1, 191495, Note_on_c, 0, 72, 0
1, 191495, Note_on_c, 0, 76, 0
1, 191520, Note_on_c, 0, 67, 80
1, 191747, Note_on_c, 0, 67, 0
1, 191760, Note_on_c, 0, 69, 80
1, 192443, Note_on_c, 0, 69, 0
1, 192960, Note_on_c, 0, 72, 80
1, 192960, Note_on_c, 0, 76, 80
1, 193415, Note_on_c, 0, 72, 0
1, 193415, Note_on_c, 0, 76, 0
1, 193440, Note_on_c, 0, 67, 80
1, 193667, Note_on_c, 0, 67, 0
1, 193680, Note_on_c, 0, 69, 80
1, 194135, Note_on_c, 0, 69, 0
1, 194160, Note_on_c, 0, 67, 80
1, 194387, Note_on_c, 0, 67, 0
1, 194400, Note_on_c, 0, 69, 80
1, 194640, Note_on_c, 0, 72, 80
1, 194855, Note_on_c, 0, 69, 0
1, 194867, Note_on_c, 0, 72, 0
1, 194880, Note_on_c, 0, 72, 80
1, 194880, Note_on_c, 0, 76, 80
1, 195335, Note_on_c, 0, 72, 0
1, 195335, Note_on_c, 0, 76, 0
1, 195360, Note_on_c, 0, 67, 80
1, 195587, Note_on_c, 0, 67, 0
1, 195600, Note_on_c, 0, 69, 80
1, 196283, Note_on_c, 0, 69, 0
1, 196800, Note_on_c, 0, 72, 80
1, 196800, Note_on_c, 0, 76, 80
1, 197255, Note_on_c, 0, 72, 0
1, 197255, Note_on_c, 0, 76, 0
1, 197280, Note_on_c, 0, 67, 80
1, 197507, Note_on_c, 0, 67, 0
1, 197520, Note_on_c, 0, 69, 80
1, 197975, Note_on_c, 0, 69, 0
1, 198000, Note_on_c, 0, 67, 80
1, 198227, Note_on_c, 0, 67, 0
1, 198240, Note_on_c, 0, 69, 80
1, 198467, Note_on_c, 0, 69, 0
1, 198480, Note_on_c, 0, 71, 80
1, 198707, Note_on_c, 0, 71, 0
1, 198720, Note_on_c, 0, 69, 80
1, 198947, Note_on_c, 0, 69, 0
1, 198960, Note_on_c, 0, 71, 80
1, 199187, Note_on_c, 0, 71, 0
1, 199200, Note_on_c, 0, 72, 80
1, 199427, Note_on_c, 0, 72, 0
1, 199440, Note_on_c, 0, 71, 80
1, 199667, Note_on_c, 0, 71, 0
1, 199680, Note_on_c, 0, 72, 80
1, 199907, Note_on_c, 0, 72, 0
1, 199920, Note_on_c, 0, 74, 80
1, 200279, Note_on_c, 0, 74, 0
1, 200640, Note_on_c, 0, 76, 80
1, 201095, Note_on_c, 0, 76, 0
1, 201120, Note_on_c, 0, 79, 80
1, 201347, Note_on_c, 0, 79, 0
1, 201360, Note_on_c, 0, 76, 80
1, 201815, Note_on_c, 0, 76, 0
1, 201840, Note_on_c, 0, 72, 80
1, 201840, Note_on_c, 0, 76, 80
1, 202067, Note_on_c, 0, 72, 0
1, 202067, Note_on_c, 0, 76, 0
1, 202080, Note_on_c, 0, 76, 80
1, 202080, Note_on_c, 0, 79, 80
1, 202307, Note_on_c, 0, 76, 0
1, 202307, Note_on_c, 0, 79, 0
1, 202320, Note_on_c, 0, 72, 80
1, 202320, Note_on_c, 0, 76, 80
1, 202547, Note_on_c, 0, 72, 0
1, 202547, Note_on_c, 0, 76, 0
1, 202560, Note_on_c, 0, 76, 80
1, 202560, Note_on_c, 0, 79, 80
1, 202787, Note_on_c, 0, 76, 0
1, 202787, Note_on_c, 0, 79, 0
1, 202800, Note_on_c, 0, 76, 80
1, 202800, Note_on_c, 0, 81, 80
1, 203027, Note_on_c, 0, 76, 0
1, 203027, Note_on_c, 0, 81, 0
1, 203280, Note_on_c, 0, 72, 80
1, 203280, Note_on_c, 0, 76, 80
1, 203507, Note_on_c, 0, 72, 0
1, 203507, Note_on_c, 0, 76, 0
1, 203520, Note_on_c, 0, 76, 80
1, 203520, Note_on_c, 0, 79, 80
1, 203747, Note_on_c, 0, 76, 0
1, 203747, Note_on_c, 0, 79, 0
1, 203760, Note_on_c, 0, 76, 80
1, 203760, Note_on_c, 0, 81, 80
1, 203987, Note_on_c, 0, 76, 0
1, 203987, Note_on_c, 0, 81, 0
1, 204240, Note_on_c, 0, 72, 80
1, 204240, Note_on_c, 0, 76, 80
1, 204467, Note_on_c, 0, 72, 0
1, 204467, Note_on_c, 0, 76, 0
1, 204480, Note_on_c, 0, 76, 80
1, 204480, Note_on_c, 0, 79, 80
1, 204707, Note_on_c, 0, 76, 0
1, 204707, Note_on_c, 0, 79, 0
1, 204720, Note_on_c, 0, 76, 80
1, 204720, Note_on_c, 0, 81, 80
1, 204947, Note_on_c, 0, 76, 0
1, 204947, Note_on_c, 0, 81, 0
1, 204960, Note_on_c, 0, 81, 80
1, 204960, Note_on_c, 0, 84, 80
1, 205187, Note_on_c, 0, 81, 0
1, 205187, Note_on_c, 0, 84, 0
1, 205200, Note_on_c, 0, 79, 80
1, 205200, Note_on_c, 0, 83, 80
1, 205427, Note_on_c, 0, 79, 0
1, 205427, Note_on_c, 0, 83, 0
1, 205680, Note_on_c, 0, 76, 80
1, 205680, Note_on_c, 0, 79, 80
1, 205907, Note_on_c, 0, 76, 0
1, 205907, Note_on_c, 0, 79, 0
1, 205920, Note_on_c, 0, 81, 80
1, 205920, Note_on_c, 0, 84, 80
1, 206147, Note_on_c, 0, 81, 0
1, 206147, Note_on_c, 0, 84, 0
1, 206160, Note_on_c, 0, 79, 80
1, 206160, Note_on_c, 0, 83, 80
1, 206387, Note_on_c, 0, 79, 0
1, 206387, Note_on_c, 0, 83, 0
1, 206640, Note_on_c, 0, 76, 80
1, 206640, Note_on_c, 0, 79, 80
1, 206867, Note_on_c, 0, 76, 0
1, 206867, Note_on_c, 0, 79, 0
1, 206880, Note_on_c, 0, 81, 80
1, 206880, Note_on_c, 0, 84, 80
1, 207107, Note_on_c, 0, 81, 0
1, 207107, Note_on_c, 0, 84, 0
1, 207120, Note_on_c, 0, 79, 80
1, 207120, Note_on_c, 0, 83, 80
1, 207347, Note_on_c, 0, 79, 0
1, 207347, Note_on_c, 0, 83, 0
1, 207600, Note_on_c, 0, 76, 80
1, 207600, Note_on_c, 0, 79, 80
1, 207827, Note_on_c, 0, 76, 0
1, 207827, Note_on_c, 0, 79, 0
1, 207840, Note_on_c, 0, 81, 80
1, 207840, Note_on_c, 0, 84, 80
1, 208067, Note_on_c, 0, 81, 0
1, 208067, Note_on_c, 0, 84, 0
1, 208080, Note_on_c, 0, 79, 80
1, 208080, Note_on_c, 0, 83, 80
1, 208307, Note_on_c, 0, 79, 0
1, 208320, Note_on_c, 0, 79, 80
1, 208535, Note_on_c, 0, 83, 0
1, 208547, Note_on_c, 0, 79, 0
1, 208560, Note_on_c, 0, 76, 80
1, 208560, Note_on_c, 0, 79, 80
1, 208787, Note_on_c, 0, 76, 0
1, 208787, Note_on_c, 0, 79, 0
1, 208800, Note_on_c, 0, 76, 80
1, 208800, Note_on_c, 0, 81, 80
1, 209255, Note_on_c, 0, 76, 0
1, 209255, Note_on_c, 0, 81, 0
1, 209280, Note_on_c, 0, 76, 80
1, 209280, Note_on_c, 0, 81, 80
1, 209507, Note_on_c, 0, 76, 0
1, 209507, Note_on_c, 0, 81, 0
1, 209520, Note_on_c, 0, 76, 80
1, 209520, Note_on_c, 0, 79, 80
1, 209747, Note_on_c, 0, 76, 0
1, 209747, Note_on_c, 0, 79, 0
1, 209760, Note_on_c, 0, 72, 80
1, 209760, Note_on_c, 0, 76, 80
1, 209987, Note_on_c, 0, 72, 0
1, 209987, Note_on_c, 0, 76, 0
1, 210000, Note_on_c, 0, 71, 80
1, 210000, Note_on_c, 0, 74, 80
1, 210227, Note_on_c, 0, 71, 0
1, 210227, Note_on_c, 0, 74, 0
1, 210240, Note_on_c, 0, 69, 80
1, 210240, Note_on_c, 0, 72, 80
1, 210695, Note_on_c, 0, 69, 0
1, 210695, Note_on_c, 0, 72, 0
1, 210720, Note_on_c, 0, 64, 80
1, 210720, Note_on_c, 0, 69, 80
1, 211175, Note_on_c, 0, 64, 0
1, 211175, Note_on_c, 0, 69, 0
1, 211200, Note_on_c, 0, 69, 80
1, 211200, Note_on_c, 0, 72, 80
1, 211655, Note_on_c, 0, 69, 0
1, 211655, Note_on_c, 0, 72, 0
1, 211680, Note_on_c, 0, 72, 80
1, 211680, Note_on_c, 0, 76, 80
1, 212135, Note_on_c, 0, 72, 0
1, 212135, Note_on_c, 0, 76, 0
1, 212160, Note_on_c, 0, 74, 80
1, 212160, Note_on_c, 0, 77, 80
1, 212387, Note_on_c, 0, 74, 0
1, 212387, Note_on_c, 0, 77, 0
1, 212400, Note_on_c, 0, 76, 80
1, 212400, Note_on_c, 0, 79, 80
1, 212627, Note_on_c, 0, 76, 0
1, 212627, Note_on_c, 0, 79, 0
1, 212640, Note_on_c, 0, 72, 80
1, 212640, Note_on_c, 0, 76, 80
1, 213095, Note_on_c, 0, 72, 0
1, 213095, Note_on_c, 0, 76, 0
1, 213120, Note_on_c, 0, 74, 80
1, 213120, Note_on_c, 0, 77, 80
1, 213347, Note_on_c, 0, 74, 0
1, 213347, Note_on_c, 0, 77, 0
1, 213360, Note_on_c, 0, 76, 80
1, 213360, Note_on_c, 0, 79, 80
1, 213587, Note_on_c, 0, 76, 0
1, 213587, Note_on_c, 0, 79, 0
1, 213600, Note_on_c, 0, 77, 80
1, 213600, Note_on_c, 0, 81, 80
1, 214055, Note_on_c, 0, 77, 0
1, 214055, Note_on_c, 0, 81, 0
1, 214080, Note_on_c, 0, 69, 80
1, 214421, Note_on_c, 0, 69, 0
1, 214440, Note_on_c, 0, 69, 80
1, 214667, Note_on_c, 0, 69, 0
1, 214800, Note_on_c, 0, 69, 80
1, 215027, Note_on_c, 0, 69, 0
1, 215040, Note_on_c, 0, 72, 80
1, 215267, Note_on_c, 0, 72, 0
1, 215280, Note_on_c, 0, 69, 80
1, 215507, Note_on_c, 0, 69, 0
1, 215520, Note_on_c, 0, 72, 80
1, 215747, Note_on_c, 0, 72, 0
1, 215760, Note_on_c, 0, 76, 80
1, 215987, Note_on_c, 0, 76, 0
1, 216000, Note_on_c, 0, 77, 80
1, 216341, Note_on_c, 0, 77, 0
1, 216360, Note_on_c, 0, 77, 80
1, 216587, Note_on_c, 0, 77, 0
1, 216720, Note_on_c, 0, 77, 80
1, 216947, Note_on_c, 0, 77, 0
1, 216960, Note_on_c, 0, 76, 80
1, 217187, Note_on_c, 0, 76, 0
1, 217200, Note_on_c, 0, 77, 80
1, 217427, Note_on_c, 0, 77, 0
1, 217440, Note_on_c, 0, 76, 80
1, 217667, Note_on_c, 0, 76, 0
1, 217680, Note_on_c, 0, 72, 80
1, 217907, Note_on_c, 0, 72, 0
1, 217920, Note_on_c, 0, 69, 80
1, 218261, Note_on_c, 0, 69, 0
1, 218280, Note_on_c, 0, 69, 80
1, 218507, Note_on_c, 0, 69, 0
1, 218640, Note_on_c, 0, 69, 80
1, 218867, Note_on_c, 0, 69, 0
1, 218880, Note_on_c, 0, 72, 80
1, 219107, Note_on_c, 0, 72, 0
1, 219120, Note_on_c, 0, 69, 80
1, 219347, Note_on_c, 0, 69, 0
1, 219360, Note_on_c, 0, 72, 80
1, 219587, Note_on_c, 0, 72, 0
1, 219600, Note_on_c, 0, 76, 80
1, 219827, Note_on_c, 0, 76, 0
1, 219840, Note_on_c, 0, 77, 80
1, 220181, Note_on_c, 0, 77, 0
1, 220200, Note_on_c, 0, 77, 80
1, 220427, Note_on_c, 0, 77, 0
1, 220560, Note_on_c, 0, 77, 80
1, 220787, Note_on_c, 0, 77, 0
1, 220800, Note_on_c, 0, 76, 80
1, 221027, Note_on_c, 0, 76, 0
1, 221040, Note_on_c, 0, 77, 80
1, 221267, Note_on_c, 0, 77, 0
1, 221280, Note_on_c, 0, 76, 80
1, 221507, Note_on_c, 0, 76, 0
1, 221520, Note_on_c, 0, 72, 80
1, 221747, Note_on_c, 0, 72, 0
1, 221760, Note_on_c, 0, 69, 80
1, 222101, Note_on_c, 0, 69, 0
1, 222120, Note_on_c, 0, 69, 80
1, 222347, Note_on_c, 0, 69, 0
1, 222480, Note_on_c, 0, 69, 80
1, 222707, Note_on_c, 0, 69, 0
1, 222720, Note_on_c, 0, 72, 80
1, 222947, Note_on_c, 0, 72, 0
1, 222960, Note_on_c, 0, 69, 80
1, 223187, Note_on_c, 0, 69, 0
1, 223200, Note_on_c, 0, 72, 80
1, 223427, Note_on_c, 0, 72, 0
1, 223440, Note_on_c, 0, 76, 80
1, 223667, Note_on_c, 0, 76, 0
1, 223680, Note_on_c, 0, 77, 80
1, 224021, Note_on_c, 0, 77, 0
1, 224040, Note_on_c, 0, 77, 80
1, 224267, Note_on_c, 0, 77, 0
1, 224400, Note_on_c, 0, 77, 80
1, 224627, Note_on_c, 0, 77, 0
1, 224640, Note_on_c, 0, 76, 80
1, 224867, Note_on_c, 0, 76, 0
1, 224880, Note_on_c, 0, 77, 80
1, 225107, Note_on_c, 0, 77, 0
1, 225120, Note_on_c, 0, 76, 80
1, 225347, Note_on_c, 0, 76, 0
1, 225360, Note_on_c, 0, 72, 80
1, 225587, Note_on_c, 0, 72, 0
1, 225600, Note_on_c, 0, 69, 80
1, 225941, Note_on_c, 0, 69, 0
1, 225960, Note_on_c, 0, 69, 80
1, 226187, Note_on_c, 0, 69, 0
1, 226320, Note_on_c, 0, 69, 80
1, 226547, Note_on_c, 0, 69, 0
1, 226560, Note_on_c, 0, 72, 80
1, 226787, Note_on_c, 0, 72, 0
1, 226800, Note_on_c, 0, 69, 80
1, 227027, Note_on_c, 0, 69, 0
1, 227040, Note_on_c, 0, 72, 80
1, 227267, Note_on_c, 0, 72, 0
1, 227280, Note_on_c, 0, 76, 80
1, 227507, Note_on_c, 0, 76, 0
1, 227520, Note_on_c, 0, 77, 80
1, 227861, Note_on_c, 0, 77, 0
1, 227880, Note_on_c, 0, 77, 80
1, 228107, Note_on_c, 0, 77, 0
1, 228240, Note_on_c, 0, 77, 80
1, 228467, Note_on_c, 0, 77, 0
1, 228480, Note_on_c, 0, 76, 80
1, 228707, Note_on_c, 0, 76, 0
1, 228720, Note_on_c, 0, 64, 80
1, 228947, Note_on_c, 0, 64, 0
1, 228960, Note_on_c, 0, 67, 80
1, 229187, Note_on_c, 0, 67, 0
1, 229200, Note_on_c, 0, 69, 80
1, 229427, Note_on_c, 0, 69, 0
1, 229440, Note_on_c, 0, 69, 80
1, 229895, Note_on_c, 0, 69, 0
1, 229896, End_track
2, 0, Start_track
2, 0, Title_t, "Piano, Piano, Piano\000"
2, 0, Key_signature, 0, "major"
2, 0, Control_c, 4, 121, 0
2, 0, Program_c, 4, 0
2, 0, Control_c, 4, 7, 100
2, 0, Control_c, 4, 10, 64
2, 0, Control_c, 4, 91, 0
2, 0, Control_c, 4, 93, 0
2, 0, MIDI_port, 1
2, 39360, Note_on_c, 4, 53, 80
2, 39360, Note_on_c, 4, 57, 80
2, 39360, Note_on_c, 4, 60, 80
2, 40271, Note_on_c, 4, 53, 0
2, 40271, Note_on_c, 4, 57, 0
2, 40271, Note_on_c, 4, 60, 0
2, 40320, Note_on_c, 4, 50, 80
2, 40320, Note_on_c, 4, 55, 80
2, 41231, Note_on_c, 4, 50, 0
2, 41231, Note_on_c, 4, 55, 0
2, 41280, Note_on_c, 4, 50, 80
2, 41280, Note_on_c, 4, 55, 80
2, 41280, Note_on_c, 4, 59, 80
2, 41963, Note_on_c, 4, 50, 0
2, 41963, Note_on_c, 4, 55, 0
2, 41963, Note_on_c, 4, 59, 0
2, 42000, Note_on_c, 4, 52, 80
2, 42000, Note_on_c, 4, 57, 80
2, 42455, Note_on_c, 4, 52, 0
2, 42455, Note_on_c, 4, 57, 0
2, 42480, Note_on_c, 4, 60, 80
2, 42707, Note_on_c, 4, 60, 0
2, 42720, Note_on_c, 4, 52, 80
2, 42720, Note_on_c, 4, 57, 80
2, 42720, Note_on_c, 4, 62, 80
2, 42947, Note_on_c, 4, 52, 0
2, 42947, Note_on_c, 4, 57, 0
2, 42947, Note_on_c, 4, 62, 0
2, 42960, Note_on_c, 4, 64, 80
2, 43187, Note_on_c, 4, 64, 0
2, 43200, Note_on_c, 4, 53, 80
2, 43200, Note_on_c, 4, 57, 80
2, 43655, Note_on_c, 4, 53, 0
2, 43655, Note_on_c, 4, 57, 0
2, 43680, Note_on_c, 4, 64, 80
2, 43919, Note_on_c, 4, 64, 0
2, 44160, Note_on_c, 4, 55, 80
2, 44160, Note_on_c, 4, 62, 80
2, 44387, Note_on_c, 4, 55, 0
2, 44387, Note_on_c, 4, 62, 0
2, 44400, Note_on_c, 4, 60, 80
2, 44855, Note_on_c, 4, 60, 0
2, 44880, Note_on_c, 4, 59, 80
2, 45107, Note_on_c, 4, 59, 0
2, 45360, Note_on_c, 4, 55, 80
2, 45815, Note_on_c, 4, 55, 0
2, 45840, Note_on_c, 4, 55, 80
2, 46067, Note_on_c, 4, 55, 0
2, 46080, Note_on_c, 4, 57, 80
2, 46991, Note_on_c, 4, 57, 0
2, 47040, Key_signature, 0, "major"
2, 47040, Note_on_c, 4, 57, 80
2, 47040, Note_on_c, 4, 60, 80
2, 48863, Note_on_c, 4, 57, 0
2, 48863, Note_on_c, 4, 60, 0
2, 48960, Note_on_c, 4, 55, 80
2, 48960, Note_on_c, 4, 59, 80
2, 50783, Note_on_c, 4, 55, 0
2, 50783, Note_on_c, 4, 59, 0
2, 50880, Note_on_c, 4, 55, 80
2, 50880, Note_on_c, 4, 59, 80
2, 52703, Note_on_c, 4, 55, 0
2, 52703, Note_on_c, 4, 59, 0
2, 52800, Note_on_c, 4, 57, 80
2, 52800, Note_on_c, 4, 60, 80
2, 53711, Note_on_c, 4, 57, 0
2, 53711, Note_on_c, 4, 60, 0
2, 53760, Note_on_c, 4, 60, 80
2, 53760, Note_on_c, 4, 64, 80
2, 54671, Note_on_c, 4, 60, 0
2, 54671, Note_on_c, 4, 64, 0
2, 54720, Note_on_c, 4, 57, 80
2, 54720, Note_on_c, 4, 60, 80
2, 56543, Note_on_c, 4, 57, 0
2, 56543, Note_on_c, 4, 60, 0
2, 56640, Note_on_c, 4, 52, 80
2, 56640, Note_on_c, 4, 59, 80
2, 57551, Note_on_c, 4, 52, 0
2, 57551, Note_on_c, 4, 59, 0
2, 57600, Note_on_c, 4, 59, 80
2, 57600, Note_on_c, 4, 62, 80
2, 58511, Note_on_c, 4, 59, 0
2, 58511, Note_on_c, 4, 62, 0
2, 58560, Note_on_c, 4, 57, 80
2, 58560, Note_on_c, 4, 60, 80
2, 60383, Note_on_c, 4, 57, 0
2, 60383, Note_on_c, 4, 60, 0
2, 60480, Note_on_c, 4, 55, 80
2, 60480, Note_on_c, 4, 59, 80
2, 61391, Note_on_c, 4, 55, 0
2, 61391, Note_on_c, 4, 59, 0
2, 61440, Note_on_c, 4, 55, 80
2, 61440, Note_on_c, 4, 60, 80
2, 62351, Note_on_c, 4, 55, 0
2, 62351, Note_on_c, 4, 60, 0
2, 62400, Note_on_c, 4, 57, 80
2, 62400, Note_on_c, 4, 60, 80
2, 64223, Note_on_c, 4, 57, 0
2, 64223, Note_on_c, 4, 60, 0
2, 64320, Note_on_c, 4, 55, 80
2, 64320, Note_on_c, 4, 59, 80
2, 66143, Note_on_c, 4, 55, 0
2, 66143, Note_on_c, 4, 59, 0
2, 66240, Note_on_c, 4, 52, 80
2, 66240, Note_on_c, 4, 55, 80
2, 67151, Note_on_c, 4, 52, 0
2, 67151, Note_on_c, 4, 55, 0
2, 67200, Note_on_c, 4, 52, 80
2, 67200, Note_on_c, 4, 59, 80
2, 68111, Note_on_c, 4, 52, 0
2, 68111, Note_on_c, 4, 59, 0
2, 68160, Note_on_c, 4, 57, 80
2, 68160, Note_on_c, 4, 60, 80
2, 69983, Note_on_c, 4, 57, 0
2, 69983, Note_on_c, 4, 60, 0
2, 70080, Note_on_c, 4, 57, 80
2, 70080, Note_on_c, 4, 60, 80
2, 71903, Note_on_c, 4, 57, 0
2, 71903, Note_on_c, 4, 60, 0
2, 72000, Note_on_c, 4, 59, 80
2, 72000, Note_on_c, 4, 62, 80
2, 73823, Note_on_c, 4, 59, 0
2, 73823, Note_on_c, 4, 62, 0
2, 73920, Note_on_c, 4, 52, 80
2, 73920, Note_on_c, 4, 57, 80
2, 73920, Note_on_c, 4, 60, 80
2, 74375, Note_on_c, 4, 52, 0
2, 74375, Note_on_c, 4, 57, 0
2, 74375, Note_on_c, 4, 60, 0
2, 74400, Note_on_c, 4, 52, 80
2, 74400, Note_on_c, 4, 57, 80
2, 74400, Note_on_c, 4, 60, 80
2, 74855, Note_on_c, 4, 52, 0
2, 74855, Note_on_c, 4, 57, 0
2, 74855, Note_on_c, 4, 60, 0
2, 74880, Note_on_c, 4, 52, 80
2, 74880, Note_on_c, 4, 57, 80
2, 74880, Note_on_c, 4, 60, 80
2, 75335, Note_on_c, 4, 52, 0
2, 75335, Note_on_c, 4, 57, 0
2, 75335, Note_on_c, 4, 60, 0
2, 75360, Note_on_c, 4, 52, 80
2, 75360, Note_on_c, 4, 57, 80
2, 75360, Note_on_c, 4, 60, 80
2, 75815, Note_on_c, 4, 52, 0
2, 75815, Note_on_c, 4, 57, 0
2, 75815, Note_on_c, 4, 60, 0
2, 75840, Note_on_c, 4, 50, 80
2, 75840, Note_on_c, 4, 55, 80
2, 75840, Note_on_c, 4, 59, 80
2, 76295, Note_on_c, 4, 50, 0
2, 76295, Note_on_c, 4, 55, 0
2, 76295, Note_on_c, 4, 59, 0
2, 76320, Note_on_c, 4, 50, 80
2, 76320, Note_on_c, 4, 55, 80
2, 76320, Note_on_c, 4, 59, 80
2, 76775, Note_on_c, 4, 50, 0
2, 76775, Note_on_c, 4, 55, 0
2, 76775, Note_on_c, 4, 59, 0
2, 76800, Note_on_c, 4, 50, 80
2, 76800, Note_on_c, 4, 55, 80
2, 76800, Note_on_c, 4, 59, 80
2, 77255, Note_on_c, 4, 50, 0
2, 77255, Note_on_c, 4, 55, 0
2, 77255, Note_on_c, 4, 59, 0
2, 77280, Note_on_c, 4, 50, 80
2, 77280, Note_on_c, 4, 55, 80
2, 77280, Note_on_c, 4, 59, 80
2, 77735, Note_on_c, 4, 50, 0
2, 77735, Note_on_c, 4, 55, 0
2, 77735, Note_on_c, 4, 59, 0
2, 77760, Note_on_c, 4, 52, 80
2, 77760, Note_on_c, 4, 55, 80
2, 77760, Note_on_c, 4, 59, 80
2, 78215, Note_on_c, 4, 52, 0
2, 78215, Note_on_c, 4, 55, 0
2, 78215, Note_on_c, 4, 59, 0
2, 78240, Note_on_c, 4, 52, 80
2, 78240, Note_on_c, 4, 55, 80
2, 78240, Note_on_c, 4, 59, 80
2, 78695, Note_on_c, 4, 52, 0
2, 78695, Note_on_c, 4, 55, 0
2, 78695, Note_on_c, 4, 59, 0
2, 78720, Note_on_c, 4, 52, 80
2, 78720, Note_on_c, 4, 55, 80
2, 78720, Note_on_c, 4, 59, 80
2, 79175, Note_on_c, 4, 52, 0
2, 79175, Note_on_c, 4, 55, 0
2, 79175, Note_on_c, 4, 59, 0
2, 79200, Note_on_c, 4, 52, 80
2, 79200, Note_on_c, 4, 55, 80
2, 79200, Note_on_c, 4, 59, 80
2, 79655, Note_on_c, 4, 52, 0
2, 79655, Note_on_c, 4, 55, 0
2, 79655, Note_on_c, 4, 59, 0
2, 79680, Note_on_c, 4, 52, 80
2, 79680, Note_on_c, 4, 57, 80
2, 79680, Note_on_c, 4, 60, 80
2, 80135, Note_on_c, 4, 52, 0
2, 80135, Note_on_c, 4, 57, 0
2, 80135, Note_on_c, 4, 60, 0
2, 80160, Note_on_c, 4, 52, 80
2, 80160, Note_on_c, 4, 57, 80
2, 80160, Note_on_c, 4, 60, 80
2, 80615, Note_on_c, 4, 52, 0
2, 80615, Note_on_c, 4, 57, 0
2, 80615, Note_on_c, 4, 60, 0
2, 80640, Note_on_c, 4, 52, 80
2, 80640, Note_on_c, 4, 57, 80
2, 80640, Note_on_c, 4, 60, 80
2, 81095, Note_on_c, 4, 52, 0
2, 81095, Note_on_c, 4, 57, 0
2, 81095, Note_on_c, 4, 60, 0
2, 81120, Note_on_c, 4, 52, 80
2, 81120, Note_on_c, 4, 57, 80
2, 81120, Note_on_c, 4, 60, 80
2, 81575, Note_on_c, 4, 52, 0
2, 81575, Note_on_c, 4, 57, 0
2, 81575, Note_on_c, 4, 60, 0
2, 81600, Note_on_c, 4, 53, 80
2, 81600, Note_on_c, 4, 57, 80
2, 81600, Note_on_c, 4, 60, 80
2, 82055, Note_on_c, 4, 53, 0
2, 82055, Note_on_c, 4, 57, 0
2, 82055, Note_on_c, 4, 60, 0
2, 82080, Note_on_c, 4, 53, 80
2, 82080, Note_on_c, 4, 57, 80
2, 82080, Note_on_c, 4, 60, 80
2, 82535, Note_on_c, 4, 53, 0
2, 82535, Note_on_c, 4, 57, 0
2, 82535, Note_on_c, 4, 60, 0
2, 82560, Note_on_c, 4, 53, 80
2, 82560, Note_on_c, 4, 57, 80
2, 82560, Note_on_c, 4, 60, 80
2, 83015, Note_on_c, 4, 53, 0
2, 83015, Note_on_c, 4, 57, 0
2, 83015, Note_on_c, 4, 60, 0
2, 83040, Note_on_c, 4, 53, 80
2, 83040, Note_on_c, 4, 57, 80
2, 83040, Note_on_c, 4, 60, 80
2, 83495, Note_on_c, 4, 53, 0
2, 83495, Note_on_c, 4, 57, 0
2, 83495, Note_on_c, 4, 60, 0
2, 83520, Note_on_c, 4, 52, 80
2, 83520, Note_on_c, 4, 55, 80
2, 83520, Note_on_c, 4, 59, 80
2, 83975, Note_on_c, 4, 52, 0
2, 83975, Note_on_c, 4, 55, 0
2, 83975, Note_on_c, 4, 59, 0
2, 84000, Note_on_c, 4, 52, 80
2, 84000, Note_on_c, 4, 55, 80
2, 84000, Note_on_c, 4, 59, 80
2, 84455, Note_on_c, 4, 52, 0
2, 84455, Note_on_c, 4, 55, 0
2, 84455, Note_on_c, 4, 59, 0
2, 84480, Note_on_c, 4, 52, 80
2, 84480, Note_on_c, 4, 55, 80
2, 84480, Note_on_c, 4, 59, 80
2, 84935, Note_on_c, 4, 52, 0
2, 84935, Note_on_c, 4, 55, 0
2, 84935, Note_on_c, 4, 59, 0
2, 84960, Note_on_c, 4, 52, 80
2, 84960, Note_on_c, 4, 55, 80
2, 84960, Note_on_c, 4, 59, 80
2, 85415, Note_on_c, 4, 52, 0
2, 85415, Note_on_c, 4, 55, 0
2, 85415, Note_on_c, 4, 59, 0
2, 85440, Note_on_c, 4, 52, 80
2, 85440, Note_on_c, 4, 57, 80
2, 85440, Note_on_c, 4, 60, 80
2, 89087, Note_on_c, 4, 52, 0
2, 89087, Note_on_c, 4, 57, 0
2, 89087, Note_on_c, 4, 60, 0
2, 89280, Note_on_c, 4, 55, 80
2, 89280, Note_on_c, 4, 60, 80
2, 91103, Note_on_c, 4, 55, 0
2, 91103, Note_on_c, 4, 60, 0
2, 91200, Note_on_c, 4, 55, 80
2, 91200, Note_on_c, 4, 60, 80
2, 91200, Note_on_c, 4, 64, 80
2, 92111, Note_on_c, 4, 55, 0
2, 92111, Note_on_c, 4, 60, 0
2, 92111, Note_on_c, 4, 64, 0
2, 92160, Note_on_c, 4, 52, 80
2, 92160, Note_on_c, 4, 55, 80
2, 92160, Note_on_c, 4, 60, 80
2, 93071, Note_on_c, 4, 52, 0
2, 93071, Note_on_c, 4, 55, 0
2, 93071, Note_on_c, 4, 60, 0
2, 93120, Note_on_c, 4, 53, 80
2, 93120, Note_on_c, 4, 57, 80
2, 93120, Note_on_c, 4, 60, 80
2, 94943, Note_on_c, 4, 53, 0
2, 94943, Note_on_c, 4, 57, 0
2, 94943, Note_on_c, 4, 60, 0
2, 95040, Note_on_c, 4, 53, 80
2, 95040, Note_on_c, 4, 57, 80
2, 95040, Note_on_c, 4, 60, 80
2, 95951, Note_on_c, 4, 53, 0
2, 95951, Note_on_c, 4, 57, 0
2, 95951, Note_on_c, 4, 60, 0
2, 96000, Note_on_c, 4, 53, 80
2, 96000, Note_on_c, 4, 57, 80
2, 96000, Note_on_c, 4, 60, 80
2, 96911, Note_on_c, 4, 53, 0
2, 96911, Note_on_c, 4, 57, 0
2, 96911, Note_on_c, 4, 60, 0
2, 96960, Note_on_c, 4, 57, 80
2, 96960, Note_on_c, 4, 62, 80
2, 96960, Note_on_c, 4, 65, 80
2, 98783, Note_on_c, 4, 57, 0
2, 98783, Note_on_c, 4, 62, 0
2, 98783, Note_on_c, 4, 65, 0
2, 98880, Note_on_c, 4, 52, 80
2, 98880, Note_on_c, 4, 59, 80
2, 100703, Note_on_c, 4, 52, 0
2, 100703, Note_on_c, 4, 59, 0
2, 100800, Note_on_c, 4, 57, 80
2, 100800, Note_on_c, 4, 60, 80
2, 100800, Note_on_c, 4, 64, 80
2, 104447, Note_on_c, 4, 57, 0
2, 104447, Note_on_c, 4, 60, 0
2, 104447, Note_on_c, 4, 64, 0
2, 104640, Note_on_c, 4, 60, 80
2, 104640, Note_on_c, 4, 64, 80
2, 104640, Note_on_c, 4, 67, 80
2, 106463, Note_on_c, 4, 60, 0
2, 106463, Note_on_c, 4, 64, 0
2, 106463, Note_on_c, 4, 67, 0
2, 106560, Note_on_c, 4, 60, 80
2, 106560, Note_on_c, 4, 64, 80
2, 106560, Note_on_c, 4, 67, 80
2, 107471, Note_on_c, 4, 60, 0
2, 107471, Note_on_c, 4, 64, 0
2, 107471, Note_on_c, 4, 67, 0
2, 107520, Note_on_c, 4, 55, 80
2, 107520, Note_on_c, 4, 60, 80
2, 107520, Note_on_c, 4, 64, 80
2, 108431, Note_on_c, 4, 55, 0
2, 108431, Note_on_c, 4, 60, 0
2, 108431, Note_on_c, 4, 64, 0
2, 108480, Note_on_c, 4, 53, 80
2, 108480, Note_on_c, 4, 57, 80
2, 108480, Note_on_c, 4, 60, 80
2, 110303, Note_on_c, 4, 53, 0
2, 110303, Note_on_c, 4, 57, 0
2, 110303, Note_on_c, 4, 60, 0
2, 110400, Note_on_c, 4, 53, 80
2, 110400, Note_on_c, 4, 57, 80
2, 110400, Note_on_c, 4, 60, 80
2, 111311, Note_on_c, 4, 53, 0
2, 111311, Note_on_c, 4, 57, 0
2, 111311, Note_on_c, 4, 60, 0
2, 111360, Note_on_c, 4, 57, 80
2, 111360, Note_on_c, 4, 60, 80
2, 111360, Note_on_c, 4, 65, 80
2, 112271, Note_on_c, 4, 57, 0
2, 112271, Note_on_c, 4, 60, 0
2, 112271, Note_on_c, 4, 65, 0
2, 112320, Note_on_c, 4, 53, 80
2, 112320, Note_on_c, 4, 57, 80
2, 112320, Note_on_c, 4, 62, 80
2, 114143, Note_on_c, 4, 53, 0
2, 114143, Note_on_c, 4, 57, 0
2, 114143, Note_on_c, 4, 62, 0
2, 114240, Note_on_c, 4, 59, 80
2, 115151, Note_on_c, 4, 59, 0
2, 115200, Note_on_c, 4, 62, 80
2, 115427, Note_on_c, 4, 62, 0
2, 115440, Note_on_c, 4, 60, 80
2, 115667, Note_on_c, 4, 60, 0
2, 115680, Note_on_c, 4, 57, 80
2, 115907, Note_on_c, 4, 57, 0
2, 115920, Note_on_c, 4, 55, 80
2, 116147, Note_on_c, 4, 55, 0
2, 133440, Note_on_c, 4, 57, 80
2, 133440, Note_on_c, 4, 60, 80
2, 133440, Note_on_c, 4, 64, 80
2, 135263, Note_on_c, 4, 57, 0
2, 135263, Note_on_c, 4, 60, 0
2, 135263, Note_on_c, 4, 64, 0
2, 135360, Note_on_c, 4, 59, 80
2, 135360, Note_on_c, 4, 62, 80
2, 135360, Note_on_c, 4, 67, 80
2, 137183, Note_on_c, 4, 59, 0
2, 137183, Note_on_c, 4, 62, 0
2, 137183, Note_on_c, 4, 67, 0
2, 137280, Note_on_c, 4, 55, 80
2, 137280, Note_on_c, 4, 59, 80
2, 137280, Note_on_c, 4, 64, 80
2, 139103, Note_on_c, 4, 55, 0
2, 139103, Note_on_c, 4, 59, 0
2, 139103, Note_on_c, 4, 64, 0
2, 139200, Note_on_c, 4, 60, 80
2, 139200, Note_on_c, 4, 64, 80
2, 139200, Note_on_c, 4, 69, 80
2, 140111, Note_on_c, 4, 60, 0
2, 140111, Note_on_c, 4, 64, 0
2, 140111, Note_on_c, 4, 69, 0
2, 140160, Note_on_c, 4, 57, 80
2, 140160, Note_on_c, 4, 60, 80
2, 140160, Note_on_c, 4, 64, 80
2, 141071, Note_on_c, 4, 57, 0
2, 141071, Note_on_c, 4, 60, 0
2, 141071, Note_on_c, 4, 64, 0
2, 141120, Note_on_c, 4, 53, 80
2, 141120, Note_on_c, 4, 57, 80
2, 141120, Note_on_c, 4, 60, 80
2, 142943, Note_on_c, 4, 53, 0
2, 142943, Note_on_c, 4, 57, 0
2, 142943, Note_on_c, 4, 60, 0
2, 143040, Note_on_c, 4, 55, 80
2, 143040, Note_on_c, 4, 59, 80
2, 143040, Note_on_c, 4, 64, 80
2, 143951, Note_on_c, 4, 55, 0
2, 143951, Note_on_c, 4, 59, 0
2, 143951, Note_on_c, 4, 64, 0
2, 144000, Note_on_c, 4, 59, 80
2, 144000, Note_on_c, 4, 64, 80
2, 144000, Note_on_c, 4, 67, 80
2, 144911, Note_on_c, 4, 59, 0
2, 144911, Note_on_c, 4, 64, 0
2, 144911, Note_on_c, 4, 67, 0
2, 144960, Note_on_c, 4, 60, 80
2, 144960, Note_on_c, 4, 64, 80
2, 144960, Note_on_c, 4, 69, 80
2, 146783, Note_on_c, 4, 60, 0
2, 146783, Note_on_c, 4, 64, 0
2, 146783, Note_on_c, 4, 69, 0
2, 146880, Note_on_c, 4, 55, 80
2, 146880, Note_on_c, 4, 62, 80
2, 146880, Note_on_c, 4, 65, 80
2, 147791, Note_on_c, 4, 55, 0
2, 147791, Note_on_c, 4, 62, 0
2, 147791, Note_on_c, 4, 65, 0
2, 147840, Note_on_c, 4, 55, 80
2, 147840, Note_on_c, 4, 60, 80
2, 147840, Note_on_c, 4, 64, 80
2, 148751, Note_on_c, 4, 55, 0
2, 148751, Note_on_c, 4, 60, 0
2, 148751, Note_on_c, 4, 64, 0
2, 148800, Note_on_c, 4, 53, 80
2, 148800, Note_on_c, 4, 60, 80
2, 148800, Note_on_c, 4, 64, 80
2, 150623, Note_on_c, 4, 53, 0
2, 150623, Note_on_c, 4, 60, 0
2, 150623, Note_on_c, 4, 64, 0
2, 150720, Note_on_c, 4, 59, 80
2, 150720, Note_on_c, 4, 62, 80
2, 150720, Note_on_c, 4, 67, 80
2, 152543, Note_on_c, 4, 59, 0
2, 152543, Note_on_c, 4, 62, 0
2, 152543, Note_on_c, 4, 67, 0
2, 152640, Note_on_c, 4, 55, 80
2, 152640, Note_on_c, 4, 59, 80
2, 152640, Note_on_c, 4, 62, 80
2, 153551, Note_on_c, 4, 55, 0
2, 153551, Note_on_c, 4, 59, 0
2, 153551, Note_on_c, 4, 62, 0
2, 153600, Note_on_c, 4, 59, 80
2, 153600, Note_on_c, 4, 62, 80
2, 153600, Note_on_c, 4, 65, 80
2, 154511, Note_on_c, 4, 59, 0
2, 154511, Note_on_c, 4, 62, 0
2, 154511, Note_on_c, 4, 65, 0
2, 154560, Note_on_c, 4, 60, 80
2, 154560, Note_on_c, 4, 64, 80
2, 154560, Note_on_c, 4, 69, 80
2, 155471, Note_on_c, 4, 60, 0
2, 155471, Note_on_c, 4, 64, 0
2, 155471, Note_on_c, 4, 69, 0
2, 155520, Note_on_c, 4, 57, 80
2, 155520, Note_on_c, 4, 60, 80
2, 155520, Note_on_c, 4, 64, 80
2, 156431, Note_on_c, 4, 57, 0
2, 156431, Note_on_c, 4, 60, 0
2, 156431, Note_on_c, 4, 64, 0
2, 156480, Note_on_c, 4, 53, 80
2, 156480, Note_on_c, 4, 57, 80
2, 156480, Note_on_c, 4, 60, 80
2, 158303, Note_on_c, 4, 53, 0
2, 158303, Note_on_c, 4, 57, 0
2, 158303, Note_on_c, 4, 60, 0
2, 158400, Note_on_c, 4, 59, 80
2, 158400, Note_on_c, 4, 62, 80
2, 158400, Note_on_c, 4, 67, 80
2, 159311, Note_on_c, 4, 59, 0
2, 159311, Note_on_c, 4, 62, 0
2, 159311, Note_on_c, 4, 67, 0
2, 160320, Note_on_c, 4, 57, 80
2, 160320, Note_on_c, 4, 60, 80
2, 160775, Note_on_c, 4, 57, 0
2, 160775, Note_on_c, 4, 60, 0
2, 160800, Note_on_c, 4, 57, 80
2, 160800, Note_on_c, 4, 60, 80
2, 161255, Note_on_c, 4, 57, 0
2, 161255, Note_on_c, 4, 60, 0
2, 161280, Note_on_c, 4, 57, 80
2, 161280, Note_on_c, 4, 60, 80
2, 161735, Note_on_c, 4, 57, 0
2, 161735, Note_on_c, 4, 60, 0
2, 161760, Note_on_c, 4, 57, 80
2, 161760, Note_on_c, 4, 60, 80
2, 162215, Note_on_c, 4, 57, 0
2, 162215, Note_on_c, 4, 60, 0
2, 162240, Note_on_c, 4, 55, 80
2, 162240, Note_on_c, 4, 59, 80
2, 162695, Note_on_c, 4, 55, 0
2, 162695, Note_on_c, 4, 59, 0
2, 162720, Note_on_c, 4, 55, 80
2, 162720, Note_on_c, 4, 59, 80
2, 163175, Note_on_c, 4, 55, 0
2, 163175, Note_on_c, 4, 59, 0
2, 163200, Note_on_c, 4, 55, 80
2, 163200, Note_on_c, 4, 59, 80
2, 163655, Note_on_c, 4, 55, 0
2, 163655, Note_on_c, 4, 59, 0
2, 163680, Note_on_c, 4, 55, 80
2, 163680, Note_on_c, 4, 59, 80
2, 164135, Note_on_c, 4, 55, 0
2, 164135, Note_on_c, 4, 59, 0
2, 164160, Note_on_c, 4, 52, 80
2, 164160, Note_on_c, 4, 55, 80
2, 164615, Note_on_c, 4, 52, 0
2, 164615, Note_on_c, 4, 55, 0
2, 164640, Note_on_c, 4, 52, 80
2, 164640, Note_on_c, 4, 55, 80
2, 165095, Note_on_c, 4, 52, 0
2, 165095, Note_on_c, 4, 55, 0
2, 165120, Note_on_c, 4, 52, 80
2, 165120, Note_on_c, 4, 55, 80
2, 165575, Note_on_c, 4, 52, 0
2, 165575, Note_on_c, 4, 55, 0
2, 165600, Note_on_c, 4, 52, 80
2, 165600, Note_on_c, 4, 55, 80
2, 166055, Note_on_c, 4, 52, 0
2, 166055, Note_on_c, 4, 55, 0
2, 166080, Note_on_c, 4, 57, 80
2, 166080, Note_on_c, 4, 60, 80
2, 166535, Note_on_c, 4, 57, 0
2, 166535, Note_on_c, 4, 60, 0
2, 166560, Note_on_c, 4, 57, 80
2, 166560, Note_on_c, 4, 60, 80
2, 167015, Note_on_c, 4, 57, 0
2, 167015, Note_on_c, 4, 60, 0
2, 167040, Note_on_c, 4, 57, 80
2, 167040, Note_on_c, 4, 60, 80
2, 167495, Note_on_c, 4, 57, 0
2, 167495, Note_on_c, 4, 60, 0
2, 167520, Note_on_c, 4, 57, 80
2, 167520, Note_on_c, 4, 60, 80
2, 167975, Note_on_c, 4, 57, 0
2, 167975, Note_on_c, 4, 60, 0
2, 168000, Note_on_c, 4, 57, 80
2, 168000, Note_on_c, 4, 60, 80
2, 168455, Note_on_c, 4, 57, 0
2, 168455, Note_on_c, 4, 60, 0
2, 168480, Note_on_c, 4, 57, 80
2, 168480, Note_on_c, 4, 60, 80
2, 168935, Note_on_c, 4, 57, 0
2, 168935, Note_on_c, 4, 60, 0
2, 168960, Note_on_c, 4, 57, 80
2, 168960, Note_on_c, 4, 60, 80
2, 169415, Note_on_c, 4, 57, 0
2, 169415, Note_on_c, 4, 60, 0
2, 169440, Note_on_c, 4, 57, 80
2, 169440, Note_on_c, 4, 60, 80
2, 169895, Note_on_c, 4, 57, 0
2, 169895, Note_on_c, 4, 60, 0
2, 169920, Note_on_c, 4, 55, 80
2, 169920, Note_on_c, 4, 59, 80
2, 170375, Note_on_c, 4, 55, 0
2, 170375, Note_on_c, 4, 59, 0
2, 170400, Note_on_c, 4, 55, 80
2, 170400, Note_on_c, 4, 59, 80
2, 170855, Note_on_c, 4, 55, 0
2, 170855, Note_on_c, 4, 59, 0
2, 170880, Note_on_c, 4, 55, 80
2, 170880, Note_on_c, 4, 59, 80
2, 171335, Note_on_c, 4, 55, 0
2, 171335, Note_on_c, 4, 59, 0
2, 171360, Note_on_c, 4, 55, 80
2, 171360, Note_on_c, 4, 59, 80
2, 171815, Note_on_c, 4, 55, 0
2, 171815, Note_on_c, 4, 59, 0
2, 171840, Note_on_c, 4, 57, 80
2, 171840, Note_on_c, 4, 60, 80
2, 172295, Note_on_c, 4, 57, 0
2, 172295, Note_on_c, 4, 60, 0
2, 172320, Note_on_c, 4, 57, 80
2, 172320, Note_on_c, 4, 60, 80
2, 172775, Note_on_c, 4, 57, 0
2, 172775, Note_on_c, 4, 60, 0
2, 172800, Note_on_c, 4, 57, 80
2, 172800, Note_on_c, 4, 60, 80
2, 173255, Note_on_c, 4, 57, 0
2, 173255, Note_on_c, 4, 60, 0
2, 173280, Note_on_c, 4, 57, 80
2, 173280, Note_on_c, 4, 60, 80
2, 173735, Note_on_c, 4, 57, 0
2, 173735, Note_on_c, 4, 60, 0
2, 173760, Note_on_c, 4, 55, 80
2, 173760, Note_on_c, 4, 59, 80
2, 174215, Note_on_c, 4, 55, 0
2, 174215, Note_on_c, 4, 59, 0
2, 174240, Note_on_c, 4, 55, 80
2, 174240, Note_on_c, 4, 59, 80
2, 174695, Note_on_c, 4, 55, 0
2, 174695, Note_on_c, 4, 59, 0
2, 174720, Note_on_c, 4, 55, 80
2, 174720, Note_on_c, 4, 60, 80
2, 175175, Note_on_c, 4, 55, 0
2, 175175, Note_on_c, 4, 60, 0
2, 175200, Note_on_c, 4, 55, 80
2, 175200, Note_on_c, 4, 60, 80
2, 175655, Note_on_c, 4, 55, 0
2, 175655, Note_on_c, 4, 60, 0
2, 175680, Note_on_c, 4, 57, 80
2, 175680, Note_on_c, 4, 60, 80
2, 176135, Note_on_c, 4, 57, 0
2, 176135, Note_on_c, 4, 60, 0
2, 176160, Note_on_c, 4, 57, 80
2, 176160, Note_on_c, 4, 60, 80
2, 176615, Note_on_c, 4, 57, 0
2, 176615, Note_on_c, 4, 60, 0
2, 176640, Note_on_c, 4, 57, 80
2, 176640, Note_on_c, 4, 60, 80
2, 177095, Note_on_c, 4, 57, 0
2, 177095, Note_on_c, 4, 60, 0
2, 177120, Note_on_c, 4, 57, 80
2, 177120, Note_on_c, 4, 60, 80
2, 177575, Note_on_c, 4, 57, 0
2, 177575, Note_on_c, 4, 60, 0
2, 177600, Note_on_c, 4, 55, 80
2, 177600, Note_on_c, 4, 59, 80
2, 178055, Note_on_c, 4, 55, 0
2, 178055, Note_on_c, 4, 59, 0
2, 178080, Note_on_c, 4, 55, 80
2, 178080, Note_on_c, 4, 59, 80
2, 178535, Note_on_c, 4, 55, 0
2, 178535, Note_on_c, 4, 59, 0
2, 178560, Note_on_c, 4, 55, 80
2, 178560, Note_on_c, 4, 59, 80
2, 179015, Note_on_c, 4, 55, 0
2, 179015, Note_on_c, 4, 59, 0
2, 179040, Note_on_c, 4, 55, 80
2, 179040, Note_on_c, 4, 59, 80
2, 179495, Note_on_c, 4, 55, 0
2, 179495, Note_on_c, 4, 59, 0
2, 179520, Note_on_c, 4, 52, 80
2, 179520, Note_on_c, 4, 55, 80
2, 179975, Note_on_c, 4, 52, 0
2, 179975, Note_on_c, 4, 55, 0
2, 180000, Note_on_c, 4, 52, 80
2, 180000, Note_on_c, 4, 55, 80
2, 180455, Note_on_c, 4, 52, 0
2, 180455, Note_on_c, 4, 55, 0
2, 180480, Note_on_c, 4, 52, 80
2, 180480, Note_on_c, 4, 59, 80
2, 180935, Note_on_c, 4, 52, 0
2, 180935, Note_on_c, 4, 59, 0
2, 180960, Note_on_c, 4, 52, 80
2, 180960, Note_on_c, 4, 59, 80
2, 181415, Note_on_c, 4, 52, 0
2, 181415, Note_on_c, 4, 59, 0
2, 181440, Note_on_c, 4, 57, 80
2, 181440, Note_on_c, 4, 60, 80
2, 181895, Note_on_c, 4, 57, 0
2, 181895, Note_on_c, 4, 60, 0
2, 181920, Note_on_c, 4, 57, 80
2, 181920, Note_on_c, 4, 60, 80
2, 182375, Note_on_c, 4, 57, 0
2, 182375, Note_on_c, 4, 60, 0
2, 182400, Note_on_c, 4, 57, 80
2, 182400, Note_on_c, 4, 60, 80
2, 182855, Note_on_c, 4, 57, 0
2, 182855, Note_on_c, 4, 60, 0
2, 182880, Note_on_c, 4, 57, 80
2, 182880, Note_on_c, 4, 60, 80
2, 183335, Note_on_c, 4, 57, 0
2, 183335, Note_on_c, 4, 60, 0
2, 183360, Note_on_c, 4, 57, 80
2, 183360, Note_on_c, 4, 60, 80
2, 183815, Note_on_c, 4, 57, 0
2, 183815, Note_on_c, 4, 60, 0
2, 183840, Note_on_c, 4, 57, 80
2, 183840, Note_on_c, 4, 60, 80
2, 184295, Note_on_c, 4, 57, 0
2, 184295, Note_on_c, 4, 60, 0
2, 184320, Note_on_c, 4, 57, 80
2, 184320, Note_on_c, 4, 60, 80
2, 184775, Note_on_c, 4, 57, 0
2, 184775, Note_on_c, 4, 60, 0
2, 184800, Note_on_c, 4, 57, 80
2, 184800, Note_on_c, 4, 60, 80
2, 185255, Note_on_c, 4, 57, 0
2, 185255, Note_on_c, 4, 60, 0
2, 185280, Note_on_c, 4, 59, 80
2, 185280, Note_on_c, 4, 62, 80
2, 185735, Note_on_c, 4, 59, 0
2, 185735, Note_on_c, 4, 62, 0
2, 185760, Note_on_c, 4, 59, 80
2, 185760, Note_on_c, 4, 62, 80
2, 186215, Note_on_c, 4, 59, 0
2, 186215, Note_on_c, 4, 62, 0
2, 186240, Note_on_c, 4, 59, 80
2, 186240, Note_on_c, 4, 62, 80
2, 186695, Note_on_c, 4, 59, 0
2, 186695, Note_on_c, 4, 62, 0
2, 186720, Note_on_c, 4, 59, 80
2, 186720, Note_on_c, 4, 62, 80
2, 187175, Note_on_c, 4, 59, 0
2, 187175, Note_on_c, 4, 62, 0
2, 187200, Note_on_c, 4, 57, 80
2, 187200, Note_on_c, 4, 60, 80
2, 187655, Note_on_c, 4, 57, 0
2, 187655, Note_on_c, 4, 60, 0
2, 187680, Note_on_c, 4, 57, 80
2, 187680, Note_on_c, 4, 60, 80
2, 188135, Note_on_c, 4, 57, 0
2, 188135, Note_on_c, 4, 60, 0
2, 188160, Note_on_c, 4, 57, 80
2, 188160, Note_on_c, 4, 60, 80
2, 188615, Note_on_c, 4, 57, 0
2, 188615, Note_on_c, 4, 60, 0
2, 188640, Note_on_c, 4, 57, 80
2, 188640, Note_on_c, 4, 60, 80
2, 189095, Note_on_c, 4, 57, 0
2, 189095, Note_on_c, 4, 60, 0
2, 189120, Note_on_c, 4, 59, 80
2, 189120, Note_on_c, 4, 62, 80
2, 189575, Note_on_c, 4, 59, 0
2, 189575, Note_on_c, 4, 62, 0
2, 189600, Note_on_c, 4, 59, 80
2, 189600, Note_on_c, 4, 62, 80
2, 190055, Note_on_c, 4, 59, 0
2, 190055, Note_on_c, 4, 62, 0
2, 190080, Note_on_c, 4, 59, 80
2, 190080, Note_on_c, 4, 62, 80
2, 190535, Note_on_c, 4, 59, 0
2, 190535, Note_on_c, 4, 62, 0
2, 190560, Note_on_c, 4, 59, 80
2, 190560, Note_on_c, 4, 62, 80
2, 191015, Note_on_c, 4, 59, 0
2, 191015, Note_on_c, 4, 62, 0
2, 191040, Note_on_c, 4, 55, 80
2, 191040, Note_on_c, 4, 59, 80
2, 191495, Note_on_c, 4, 55, 0
2, 191495, Note_on_c, 4, 59, 0
2, 191520, Note_on_c, 4, 55, 80
2, 191520, Note_on_c, 4, 59, 80
2, 191975, Note_on_c, 4, 55, 0
2, 191975, Note_on_c, 4, 59, 0
2, 192000, Note_on_c, 4, 55, 80
2, 192000, Note_on_c, 4, 59, 80
2, 192455, Note_on_c, 4, 55, 0
2, 192455, Note_on_c, 4, 59, 0
2, 192480, Note_on_c, 4, 55, 80
2, 192480, Note_on_c, 4, 59, 80
2, 192935, Note_on_c, 4, 55, 0
2, 192935, Note_on_c, 4, 59, 0
2, 192960, Note_on_c, 4, 60, 80
2, 192960, Note_on_c, 4, 64, 80
2, 193415, Note_on_c, 4, 60, 0
2, 193415, Note_on_c, 4, 64, 0
2, 193440, Note_on_c, 4, 60, 80
2, 193440, Note_on_c, 4, 64, 80
2, 193895, Note_on_c, 4, 60, 0
2, 193895, Note_on_c, 4, 64, 0
2, 193920, Note_on_c, 4, 60, 80
2, 193920, Note_on_c, 4, 64, 80
2, 194375, Note_on_c, 4, 60, 0
2, 194375, Note_on_c, 4, 64, 0
2, 194400, Note_on_c, 4, 60, 80
2, 194400, Note_on_c, 4, 64, 80
2, 194855, Note_on_c, 4, 60, 0
2, 194855, Note_on_c, 4, 64, 0
2, 194880, Note_on_c, 4, 57, 80
2, 194880, Note_on_c, 4, 60, 80
2, 195335, Note_on_c, 4, 57, 0
2, 195335, Note_on_c, 4, 60, 0
2, 195360, Note_on_c, 4, 57, 80
2, 195360, Note_on_c, 4, 60, 80
2, 195815, Note_on_c, 4, 57, 0
2, 195815, Note_on_c, 4, 60, 0
2, 195840, Note_on_c, 4, 57, 80
2, 195840, Note_on_c, 4, 60, 80
2, 196295, Note_on_c, 4, 57, 0
2, 196295, Note_on_c, 4, 60, 0
2, 196320, Note_on_c, 4, 57, 80
2, 196320, Note_on_c, 4, 60, 80
2, 196775, Note_on_c, 4, 57, 0
2, 196775, Note_on_c, 4, 60, 0
2, 196800, Note_on_c, 4, 59, 80
2, 196800, Note_on_c, 4, 62, 80
2, 197255, Note_on_c, 4, 59, 0
2, 197255, Note_on_c, 4, 62, 0
2, 197280, Note_on_c, 4, 59, 80
2, 197280, Note_on_c, 4, 62, 80
2, 197735, Note_on_c, 4, 59, 0
2, 197735, Note_on_c, 4, 62, 0
2, 197760, Note_on_c, 4, 59, 80
2, 197760, Note_on_c, 4, 62, 80
2, 198215, Note_on_c, 4, 59, 0
2, 198215, Note_on_c, 4, 62, 0
2, 198240, Note_on_c, 4, 59, 80
2, 198240, Note_on_c, 4, 62, 80
2, 198695, Note_on_c, 4, 59, 0
2, 198695, Note_on_c, 4, 62, 0
2, 198720, Note_on_c, 4, 60, 80
2, 198720, Note_on_c, 4, 64, 80
2, 199175, Note_on_c, 4, 60, 0
2, 199175, Note_on_c, 4, 64, 0
2, 199200, Note_on_c, 4, 60, 80
2, 199200, Note_on_c, 4, 64, 80
2, 199655, Note_on_c, 4, 60, 0
2, 199655, Note_on_c, 4, 64, 0
2, 199680, Note_on_c, 4, 60, 80
2, 199680, Note_on_c, 4, 64, 80
2, 200135, Note_on_c, 4, 60, 0
2, 200135, Note_on_c, 4, 64, 0
2, 200160, Note_on_c, 4, 60, 80
2, 200160, Note_on_c, 4, 64, 80
2, 200615, Note_on_c, 4, 60, 0
2, 200615, Note_on_c, 4, 64, 0
2, 200640, Note_on_c, 4, 55, 80
2, 200640, Note_on_c, 4, 59, 80
2, 200640, Note_on_c, 4, 62, 80
2, 201551, Note_on_c, 4, 55, 0
2, 201551, Note_on_c, 4, 59, 0
2, 201551, Note_on_c, 4, 62, 0
2, 201600, Note_on_c, 4, 60, 80
2, 201600, Note_on_c, 4, 64, 80
2, 201600, Note_on_c, 4, 67, 80
2, 202511, Note_on_c, 4, 60, 0
2, 202511, Note_on_c, 4, 64, 0
2, 202511, Note_on_c, 4, 67, 0
2, 202560, Note_on_c, 4, 57, 80
2, 202560, Note_on_c, 4, 60, 80
2, 203015, Note_on_c, 4, 57, 0
2, 203015, Note_on_c, 4, 60, 0
2, 203040, Note_on_c, 4, 57, 80
2, 203040, Note_on_c, 4, 60, 80
2, 203495, Note_on_c, 4, 57, 0
2, 203495, Note_on_c, 4, 60, 0
2, 203520, Note_on_c, 4, 57, 80
2, 203520, Note_on_c, 4, 60, 80
2, 203975, Note_on_c, 4, 57, 0
2, 203975, Note_on_c, 4, 60, 0
2, 204000, Note_on_c, 4, 57, 80
2, 204000, Note_on_c, 4, 60, 80
2, 204455, Note_on_c, 4, 57, 0
2, 204455, Note_on_c, 4, 60, 0
2, 204480, Note_on_c, 4, 55, 80
2, 204480, Note_on_c, 4, 59, 80
2, 204935, Note_on_c, 4, 55, 0
2, 204935, Note_on_c, 4, 59, 0
2, 204960, Note_on_c, 4, 55, 80
2, 204960, Note_on_c, 4, 59, 80
2, 205415, Note_on_c, 4, 55, 0
2, 205415, Note_on_c, 4, 59, 0
2, 205440, Note_on_c, 4, 55, 80
2, 205440, Note_on_c, 4, 59, 80
2, 205895, Note_on_c, 4, 55, 0
2, 205895, Note_on_c, 4, 59, 0
2, 205920, Note_on_c, 4, 55, 80
2, 205920, Note_on_c, 4, 59, 80
2, 206375, Note_on_c, 4, 55, 0
2, 206375, Note_on_c, 4, 59, 0
2, 206400, Note_on_c, 4, 52, 80
2, 206400, Note_on_c, 4, 55, 80
2, 206855, Note_on_c, 4, 52, 0
2, 206855, Note_on_c, 4, 55, 0
2, 206880, Note_on_c, 4, 52, 80
2, 206880, Note_on_c, 4, 55, 80
2, 207335, Note_on_c, 4, 52, 0
2, 207335, Note_on_c, 4, 55, 0
2, 207360, Note_on_c, 4, 52, 80
2, 207360, Note_on_c, 4, 55, 80
2, 207815, Note_on_c, 4, 52, 0
2, 207815, Note_on_c, 4, 55, 0
2, 207840, Note_on_c, 4, 52, 80
2, 207840, Note_on_c, 4, 55, 80
2, 208295, Note_on_c, 4, 52, 0
2, 208295, Note_on_c, 4, 55, 0
2, 208320, Note_on_c, 4, 57, 80
2, 208320, Note_on_c, 4, 60, 80
2, 208775, Note_on_c, 4, 57, 0
2, 208775, Note_on_c, 4, 60, 0
2, 208800, Note_on_c, 4, 57, 80
2, 208800, Note_on_c, 4, 60, 80
2, 209255, Note_on_c, 4, 57, 0
2, 209255, Note_on_c, 4, 60, 0
2, 209280, Note_on_c, 4, 57, 80
2, 209280, Note_on_c, 4, 60, 80
2, 209735, Note_on_c, 4, 57, 0
2, 209735, Note_on_c, 4, 60, 0
2, 209760, Note_on_c, 4, 57, 80
2, 209760, Note_on_c, 4, 60, 80
2, 210215, Note_on_c, 4, 57, 0
2, 210215, Note_on_c, 4, 60, 0
2, 210240, Note_on_c, 4, 57, 80
2, 210240, Note_on_c, 4, 60, 80
2, 210695, Note_on_c, 4, 57, 0
2, 210695, Note_on_c, 4, 60, 0
2, 210720, Note_on_c, 4, 57, 80
2, 210720, Note_on_c, 4, 60, 80
2, 211175, Note_on_c, 4, 57, 0
2, 211175, Note_on_c, 4, 60, 0
2, 211200, Note_on_c, 4, 57, 80
2, 211200, Note_on_c, 4, 60, 80
2, 211655, Note_on_c, 4, 57, 0
2, 211655, Note_on_c, 4, 60, 0
2, 211680, Note_on_c, 4, 57, 80
2, 211680, Note_on_c, 4, 60, 80
2, 212135, Note_on_c, 4, 57, 0
2, 212135, Note_on_c, 4, 60, 0
2, 212160, Note_on_c, 4, 59, 80
2, 212160, Note_on_c, 4, 62, 80
2, 212615, Note_on_c, 4, 59, 0
2, 212615, Note_on_c, 4, 62, 0
2, 212640, Note_on_c, 4, 59, 80
2, 212640, Note_on_c, 4, 62, 80
2, 213095, Note_on_c, 4, 59, 0
2, 213095, Note_on_c, 4, 62, 0
2, 213120, Note_on_c, 4, 59, 80
2, 213120, Note_on_c, 4, 62, 80
2, 213575, Note_on_c, 4, 59, 0
2, 213575, Note_on_c, 4, 62, 0
2, 213600, Note_on_c, 4, 59, 80
2, 213600, Note_on_c, 4, 62, 80
2, 214055, Note_on_c, 4, 59, 0
2, 214055, Note_on_c, 4, 62, 0
2, 214080, Note_on_c, 4, 57, 80
2, 214080, Note_on_c, 4, 60, 80
2, 214080, Note_on_c, 4, 64, 80
2, 215903, Note_on_c, 4, 57, 0
2, 215903, Note_on_c, 4, 60, 0
2, 215903, Note_on_c, 4, 64, 0
2, 216000, Note_on_c, 4, 53, 80
2, 216000, Note_on_c, 4, 57, 80
2, 216000, Note_on_c, 4, 60, 80
2, 216911, Note_on_c, 4, 53, 0
2, 216911, Note_on_c, 4, 57, 0
2, 216911, Note_on_c, 4, 60, 0
2, 216960, Note_on_c, 4, 52, 80
2, 216960, Note_on_c, 4, 55, 80
2, 216960, Note_on_c, 4, 59, 80
2, 217871, Note_on_c, 4, 52, 0
2, 217871, Note_on_c, 4, 55, 0
2, 217871, Note_on_c, 4, 59, 0
2, 217920, Note_on_c, 4, 57, 80
2, 217920, Note_on_c, 4, 60, 80
2, 217920, Note_on_c, 4, 64, 80
2, 219743, Note_on_c, 4, 57, 0
2, 219743, Note_on_c, 4, 60, 0
2, 219743, Note_on_c, 4, 64, 0
2, 219840, Note_on_c, 4, 53, 80
2, 219840, Note_on_c, 4, 57, 80
2, 219840, Note_on_c, 4, 60, 80
2, 220751, Note_on_c, 4, 53, 0
2, 220751, Note_on_c, 4, 57, 0
2, 220751, Note_on_c, 4, 60, 0
2, 220800, Note_on_c, 4, 52, 80
2, 220800, Note_on_c, 4, 55, 80
2, 220800, Note_on_c, 4, 59, 80
2, 221711, Note_on_c, 4, 52, 0
2, 221711, Note_on_c, 4, 55, 0
2, 221711, Note_on_c, 4, 59, 0
2, 221760, Note_on_c, 4, 57, 80
2, 221760, Note_on_c, 4, 60, 80
2, 221760, Note_on_c, 4, 64, 80
2, 223583, Note_on_c, 4, 57, 0
2, 223583, Note_on_c, 4, 60, 0
2, 223583, Note_on_c, 4, 64, 0
2, 223680, Note_on_c, 4, 53, 80
2, 223680, Note_on_c, 4, 57, 80
2, 223680, Note_on_c, 4, 60, 80
2, 224591, Note_on_c, 4, 53, 0
2, 224591, Note_on_c, 4, 57, 0
2, 224591, Note_on_c, 4, 60, 0
2, 224640, Note_on_c, 4, 52, 80
2, 224640, Note_on_c, 4, 55, 80
2, 224640, Note_on_c, 4, 59, 80
2, 225551, Note_on_c, 4, 52, 0
2, 225551, Note_on_c, 4, 55, 0
2, 225551, Note_on_c, 4, 59, 0
2, 225600, Note_on_c, 4, 57, 80
2, 225600, Note_on_c, 4, 60, 80
2, 225600, Note_on_c, 4, 64, 80
2, 227423, Note_on_c, 4, 57, 0
2, 227423, Note_on_c, 4, 60, 0
2, 227423, Note_on_c, 4, 64, 0
2, 227520, Note_on_c, 4, 53, 80
2, 227520, Note_on_c, 4, 57, 80
2, 227520, Note_on_c, 4, 60, 80
2, 228431, Note_on_c, 4, 53, 0
2, 228431, Note_on_c, 4, 57, 0
2, 228431, Note_on_c, 4, 60, 0
2, 228480, Note_on_c, 4, 52, 80
2, 228480, Note_on_c, 4, 55, 80
2, 228480, Note_on_c, 4, 59, 80
2, 229391, Note_on_c, 4, 52, 0
2, 229391, Note_on_c, 4, 55, 0
2, 229391, Note_on_c, 4, 59, 0
2, 229440, Note_on_c, 4, 57, 80
2, 229440, Note_on_c, 4, 60, 80
2, 229440, Note_on_c, 4, 64, 80
2, 229895, Note_on_c, 4, 57, 0
2, 229895, Note_on_c, 4, 60, 0
2, 229895, Note_on_c, 4, 64, 0
2, 229896, End_track
3, 0, Start_track
3, 0, Title_t, "6-str. Electric Bass, Electric Bass, Bass\000"
3, 0, Key_signature, 0, "major"
3, 0, Control_c, 8, 121, 0
3, 0, Program_c, 8, 33
3, 0, Control_c, 8, 7, 100
3, 0, Control_c, 8, 10, 64
3, 0, Control_c, 8, 91, 0
3, 0, Control_c, 8, 93, 0
3, 0, MIDI_port, 0
3, 0, Control_c, 1, 121, 0
3, 0, Program_c, 1, 36
3, 0, Control_c, 1, 7, 100
3, 0, Control_c, 1, 10, 64
3, 0, Control_c, 1, 91, 0
3, 0, Control_c, 1, 93, 0
3, 0, MIDI_port, 0
3, 0, Control_c, 2, 121, 0
3, 0, Program_c, 2, 37
3, 0, Control_c, 2, 7, 100
3, 0, Control_c, 2, 10, 64
3, 0, Control_c, 2, 91, 0
3, 0, Control_c, 2, 93, 0
3, 0, MIDI_port, 0
3, 31680, Note_on_c, 8, 65, 80
3, 32399, Note_on_c, 8, 65, 0
3, 32400, Note_on_c, 8, 64, 80
3, 32879, Note_on_c, 8, 64, 0
3, 32880, Note_on_c, 8, 64, 80
3, 33359, Note_on_c, 8, 64, 0
3, 33360, Note_on_c, 8, 57, 80
3, 34559, Note_on_c, 8, 57, 0
3, 34800, Note_on_c, 8, 57, 80
3, 35519, Note_on_c, 8, 57, 0
3, 35520, Note_on_c, 8, 65, 80
3, 36239, Note_on_c, 8, 65, 0
3, 36240, Note_on_c, 8, 64, 80
3, 36719, Note_on_c, 8, 64, 0
3, 36720, Note_on_c, 8, 64, 80
3, 37199, Note_on_c, 8, 64, 0
3, 37200, Note_on_c, 8, 57, 80
3, 38399, Note_on_c, 8, 57, 0
3, 38400, Note_on_c, 8, 60, 80
3, 38879, Note_on_c, 8, 60, 0
3, 38880, Note_on_c, 8, 60, 80
3, 39359, Note_on_c, 8, 60, 0
3, 39360, Note_on_c, 8, 53, 80
3, 40319, Note_on_c, 8, 53, 0
3, 40320, Note_on_c, 8, 55, 80
3, 41279, Note_on_c, 8, 55, 0
3, 41280, Note_on_c, 8, 59, 80
3, 41999, Note_on_c, 8, 59, 0
3, 42000, Note_on_c, 8, 57, 80
3, 42719, Note_on_c, 8, 57, 0
3, 42720, Note_on_c, 8, 60, 80
3, 43199, Note_on_c, 8, 60, 0
3, 43200, Note_on_c, 8, 53, 80
3, 44159, Note_on_c, 8, 53, 0
3, 44160, Note_on_c, 8, 52, 80
3, 45119, Note_on_c, 8, 52, 0
3, 47040, Key_signature, 0, "major"
3, 47040, Note_on_c, 8, 53, 80
3, 47519, Note_on_c, 8, 53, 0
3, 47520, Note_on_c, 8, 53, 80
3, 47999, Note_on_c, 8, 53, 0
3, 48000, Note_on_c, 8, 53, 80
3, 48479, Note_on_c, 8, 53, 0
3, 48480, Note_on_c, 8, 53, 80
3, 48959, Note_on_c, 8, 53, 0
3, 48960, Note_on_c, 8, 55, 80
3, 49439, Note_on_c, 8, 55, 0
3, 49440, Note_on_c, 8, 55, 80
3, 49919, Note_on_c, 8, 55, 0
3, 49920, Note_on_c, 8, 55, 80
3, 50159, Note_on_c, 8, 55, 0
3, 50160, Note_on_c, 8, 52, 80
3, 50399, Note_on_c, 8, 52, 0
3, 50400, Note_on_c, 8, 55, 80
3, 50639, Note_on_c, 8, 55, 0
3, 50640, Note_on_c, 8, 53, 80
3, 50879, Note_on_c, 8, 53, 0
3, 50880, Note_on_c, 8, 52, 80
3, 51359, Note_on_c, 8, 52, 0
3, 51360, Note_on_c, 8, 52, 80
3, 51839, Note_on_c, 8, 52, 0
3, 51840, Note_on_c, 8, 52, 80
3, 52319, Note_on_c, 8, 52, 0
3, 52320, Note_on_c, 8, 52, 80
3, 52559, Note_on_c, 8, 52, 0
3, 52560, Note_on_c, 8, 64, 80
3, 52799, Note_on_c, 8, 64, 0
3, 52800, Note_on_c, 8, 57, 80
3, 53279, Note_on_c, 8, 57, 0
3, 53280, Note_on_c, 8, 57, 80
3, 53759, Note_on_c, 8, 57, 0
3, 53760, Note_on_c, 8, 57, 80
3, 53999, Note_on_c, 8, 57, 0
3, 54000, Note_on_c, 8, 69, 80
3, 54239, Note_on_c, 8, 69, 0
3, 54240, Note_on_c, 8, 67, 80
3, 54479, Note_on_c, 8, 67, 0
3, 54480, Note_on_c, 8, 72, 80
3, 54719, Note_on_c, 8, 72, 0
3, 54720, Note_on_c, 8, 53, 80
3, 55199, Note_on_c, 8, 53, 0
3, 55200, Note_on_c, 8, 53, 80
3, 55679, Note_on_c, 8, 53, 0
3, 55680, Note_on_c, 8, 53, 80
3, 56159, Note_on_c, 8, 53, 0
3, 56160, Note_on_c, 8, 53, 80
3, 56639, Note_on_c, 8, 53, 0
3, 56640, Note_on_c, 8, 52, 80
3, 57119, Note_on_c, 8, 52, 0
3, 57120, Note_on_c, 8, 52, 80
3, 57599, Note_on_c, 8, 52, 0
3, 57600, Note_on_c, 8, 59, 80
3, 58079, Note_on_c, 8, 59, 0
3, 58080, Note_on_c, 8, 59, 80
3, 58559, Note_on_c, 8, 59, 0
3, 58560, Note_on_c, 8, 57, 80
3, 59039, Note_on_c, 8, 57, 0
3, 59040, Note_on_c, 8, 57, 80
3, 59519, Note_on_c, 8, 57, 0
3, 59520, Note_on_c, 8, 57, 80
3, 59759, Note_on_c, 8, 57, 0
3, 59760, Note_on_c, 8, 52, 80
3, 59999, Note_on_c, 8, 52, 0
3, 60000, Note_on_c, 8, 57, 80
3, 60239, Note_on_c, 8, 57, 0
3, 60240, Note_on_c, 8, 52, 80
3, 60479, Note_on_c, 8, 52, 0
3, 60480, Note_on_c, 8, 55, 80
3, 60719, Note_on_c, 8, 55, 0
3, 60720, Note_on_c, 8, 67, 80
3, 60959, Note_on_c, 8, 67, 0
3, 60960, Note_on_c, 8, 55, 80
3, 61199, Note_on_c, 8, 55, 0
3, 61200, Note_on_c, 8, 60, 80
3, 61259, Note_on_c, 8, 60, 0
3, 61260, Note_on_c, 8, 62, 80
3, 61319, Note_on_c, 8, 62, 0
3, 61320, Note_on_c, 8, 60, 80
3, 61679, Note_on_c, 8, 60, 0
3, 61680, Note_on_c, 8, 64, 80
3, 61919, Note_on_c, 8, 64, 0
3, 61920, Note_on_c, 8, 60, 80
3, 62159, Note_on_c, 8, 60, 0
3, 62160, Note_on_c, 8, 64, 80
3, 62399, Note_on_c, 8, 64, 0
3, 62400, Note_on_c, 8, 53, 80
3, 62879, Note_on_c, 8, 53, 0
3, 62880, Note_on_c, 8, 53, 80
3, 63359, Note_on_c, 8, 53, 0
3, 63360, Note_on_c, 8, 53, 80
3, 63839, Note_on_c, 8, 53, 0
3, 63840, Note_on_c, 8, 53, 80
3, 64319, Note_on_c, 8, 53, 0
3, 64320, Note_on_c, 8, 55, 80
3, 64799, Note_on_c, 8, 55, 0
3, 64800, Note_on_c, 8, 55, 80
3, 65279, Note_on_c, 8, 55, 0
3, 65280, Note_on_c, 8, 55, 80
3, 65759, Note_on_c, 8, 55, 0
3, 65760, Note_on_c, 8, 55, 80
3, 65999, Note_on_c, 8, 55, 0
3, 66000, Note_on_c, 8, 53, 80
3, 66239, Note_on_c, 8, 53, 0
3, 66240, Note_on_c, 8, 52, 80
3, 66719, Note_on_c, 8, 52, 0
3, 66720, Note_on_c, 8, 52, 80
3, 67199, Note_on_c, 8, 52, 0
3, 67200, Note_on_c, 8, 59, 80
3, 67679, Note_on_c, 8, 59, 0
3, 67680, Note_on_c, 8, 59, 80
3, 68159, Note_on_c, 8, 59, 0
3, 68160, Note_on_c, 8, 57, 80
3, 68639, Note_on_c, 8, 57, 0
3, 68640, Note_on_c, 8, 60, 80
3, 69119, Note_on_c, 8, 60, 0
3, 69120, Note_on_c, 8, 57, 80
3, 69599, Note_on_c, 8, 57, 0
3, 69600, Note_on_c, 8, 60, 80
3, 70079, Note_on_c, 8, 60, 0
3, 70080, Note_on_c, 8, 53, 80
3, 70559, Note_on_c, 8, 53, 0
3, 70560, Note_on_c, 8, 53, 80
3, 71039, Note_on_c, 8, 53, 0
3, 71040, Note_on_c, 8, 53, 80
3, 71519, Note_on_c, 8, 53, 0
3, 71520, Note_on_c, 8, 53, 80
3, 71999, Note_on_c, 8, 53, 0
3, 72000, Note_on_c, 8, 55, 80
3, 72479, Note_on_c, 8, 55, 0
3, 72480, Note_on_c, 8, 55, 80
3, 72959, Note_on_c, 8, 55, 0
3, 72960, Note_on_c, 8, 55, 80
3, 73439, Note_on_c, 8, 55, 0
3, 73920, Note_on_c, 8, 57, 80
3, 74399, Note_on_c, 8, 57, 0
3, 74400, Note_on_c, 8, 57, 80
3, 74879, Note_on_c, 8, 57, 0
3, 74880, Note_on_c, 8, 57, 80
3, 75359, Note_on_c, 8, 57, 0
3, 75360, Note_on_c, 8, 57, 80
3, 75839, Note_on_c, 8, 57, 0
3, 75840, Note_on_c, 8, 55, 80
3, 76319, Note_on_c, 8, 55, 0
3, 76320, Note_on_c, 8, 55, 80
3, 76799, Note_on_c, 8, 55, 0
3, 76800, Note_on_c, 8, 55, 80
3, 77279, Note_on_c, 8, 55, 0
3, 77280, Note_on_c, 8, 55, 80
3, 77759, Note_on_c, 8, 55, 0
3, 77760, Note_on_c, 8, 52, 80
3, 78239, Note_on_c, 8, 52, 0
3, 78240, Note_on_c, 8, 52, 80
3, 78719, Note_on_c, 8, 52, 0
3, 78720, Note_on_c, 8, 52, 80
3, 79199, Note_on_c, 8, 52, 0
3, 79200, Note_on_c, 8, 52, 80
3, 79679, Note_on_c, 8, 52, 0
3, 79680, Note_on_c, 8, 57, 80
3, 80159, Note_on_c, 8, 57, 0
3, 80160, Note_on_c, 8, 57, 80
3, 80639, Note_on_c, 8, 57, 0
3, 80640, Note_on_c, 8, 57, 80
3, 81119, Note_on_c, 8, 57, 0
3, 81120, Note_on_c, 8, 57, 80
3, 81599, Note_on_c, 8, 57, 0
3, 81600, Note_on_c, 8, 53, 80
3, 82079, Note_on_c, 8, 53, 0
3, 82080, Note_on_c, 8, 53, 80
3, 82559, Note_on_c, 8, 53, 0
3, 82560, Note_on_c, 8, 53, 80
3, 83039, Note_on_c, 8, 53, 0
3, 83040, Note_on_c, 8, 53, 80
3, 83519, Note_on_c, 8, 53, 0
3, 83520, Note_on_c, 8, 52, 80
3, 83999, Note_on_c, 8, 52, 0
3, 84000, Note_on_c, 8, 52, 80
3, 84479, Note_on_c, 8, 52, 0
3, 84480, Note_on_c, 8, 52, 80
3, 84959, Note_on_c, 8, 52, 0
3, 84960, Note_on_c, 8, 52, 80
3, 85439, Note_on_c, 8, 52, 0
3, 85440, Note_on_c, 8, 57, 80
3, 85679, Note_on_c, 8, 57, 0
3, 85680, Note_on_c, 8, 57, 80
3, 85799, Note_on_c, 8, 57, 0
3, 85800, Note_on_c, 8, 57, 80
3, 85919, Note_on_c, 8, 57, 0
3, 85920, Note_on_c, 8, 57, 80
3, 86159, Note_on_c, 8, 57, 0
3, 86160, Note_on_c, 8, 57, 80
3, 86279, Note_on_c, 8, 57, 0
3, 86280, Note_on_c, 8, 57, 80
3, 86399, Note_on_c, 8, 57, 0
3, 86400, Note_on_c, 8, 55, 80
3, 86639, Note_on_c, 8, 55, 0
3, 86640, Note_on_c, 8, 57, 80
3, 86879, Note_on_c, 8, 57, 0
3, 87120, Note_on_c, 8, 60, 80
3, 87599, Note_on_c, 8, 60, 0
3, 87600, Note_on_c, 8, 57, 80
3, 87839, Note_on_c, 8, 57, 0
3, 87840, Note_on_c, 8, 60, 80
3, 88079, Note_on_c, 8, 60, 0
3, 88080, Note_on_c, 8, 62, 80
3, 88319, Note_on_c, 8, 62, 0
3, 88320, Note_on_c, 8, 62, 80
3, 88559, Note_on_c, 8, 62, 0
3, 88560, Note_on_c, 8, 60, 80
3, 88799, Note_on_c, 8, 60, 0
3, 88800, Note_on_c, 8, 57, 80
3, 89039, Note_on_c, 8, 57, 0
3, 89040, Note_on_c, 8, 55, 80
3, 89279, Note_on_c, 8, 55, 0
3, 89280, Note_on_c, 8, 57, 80
3, 89519, Note_on_c, 8, 57, 0
3, 89520, Note_on_c, 8, 57, 80
3, 89639, Note_on_c, 8, 57, 0
3, 89640, Note_on_c, 8, 57, 80
3, 89759, Note_on_c, 8, 57, 0
3, 89760, Note_on_c, 8, 57, 80
3, 89999, Note_on_c, 8, 57, 0
3, 90000, Note_on_c, 8, 57, 80
3, 90119, Note_on_c, 8, 57, 0
3, 90120, Note_on_c, 8, 57, 80
3, 90239, Note_on_c, 8, 57, 0
3, 90240, Note_on_c, 8, 55, 80
3, 90479, Note_on_c, 8, 55, 0
3, 90480, Note_on_c, 8, 57, 80
3, 90719, Note_on_c, 8, 57, 0
3, 90960, Note_on_c, 8, 60, 80
3, 91439, Note_on_c, 8, 60, 0
3, 91440, Note_on_c, 8, 57, 80
3, 91679, Note_on_c, 8, 57, 0
3, 91680, Note_on_c, 8, 60, 80
3, 91919, Note_on_c, 8, 60, 0
3, 91920, Note_on_c, 8, 62, 80
3, 92159, Note_on_c, 8, 62, 0
3, 92160, Note_on_c, 8, 62, 80
3, 92399, Note_on_c, 8, 62, 0
3, 92400, Note_on_c, 8, 60, 80
3, 92639, Note_on_c, 8, 60, 0
3, 92640, Note_on_c, 8, 57, 80
3, 92879, Note_on_c, 8, 57, 0
3, 92880, Note_on_c, 8, 55, 80
3, 93119, Note_on_c, 8, 55, 0
3, 93120, Note_on_c, 8, 57, 80
3, 93359, Note_on_c, 8, 57, 0
3, 93360, Note_on_c, 8, 57, 80
3, 93479, Note_on_c, 8, 57, 0
3, 93480, Note_on_c, 8, 57, 80
3, 93599, Note_on_c, 8, 57, 0
3, 93600, Note_on_c, 8, 57, 80
3, 93839, Note_on_c, 8, 57, 0
3, 93840, Note_on_c, 8, 57, 80
3, 93959, Note_on_c, 8, 57, 0
3, 93960, Note_on_c, 8, 57, 80
3, 94079, Note_on_c, 8, 57, 0
3, 94080, Note_on_c, 8, 55, 80
3, 94319, Note_on_c, 8, 55, 0
3, 94320, Note_on_c, 8, 57, 80
3, 94559, Note_on_c, 8, 57, 0
3, 94800, Note_on_c, 8, 60, 80
3, 95279, Note_on_c, 8, 60, 0
3, 95280, Note_on_c, 8, 57, 80
3, 95519, Note_on_c, 8, 57, 0
3, 95520, Note_on_c, 8, 60, 80
3, 95759, Note_on_c, 8, 60, 0
3, 95760, Note_on_c, 8, 62, 80
3, 95999, Note_on_c, 8, 62, 0
3, 96000, Note_on_c, 8, 62, 80
3, 96239, Note_on_c, 8, 62, 0
3, 96240, Note_on_c, 8, 60, 80
3, 96479, Note_on_c, 8, 60, 0
3, 96480, Note_on_c, 8, 57, 80
3, 96719, Note_on_c, 8, 57, 0
3, 96720, Note_on_c, 8, 55, 80
3, 96959, Note_on_c, 8, 55, 0
3, 96960, Note_on_c, 8, 57, 80
3, 97199, Note_on_c, 8, 57, 0
3, 97200, Note_on_c, 8, 57, 80
3, 97319, Note_on_c, 8, 57, 0
3, 97320, Note_on_c, 8, 57, 80
3, 97439, Note_on_c, 8, 57, 0
3, 97440, Note_on_c, 8, 57, 80
3, 97679, Note_on_c, 8, 57, 0
3, 97680, Note_on_c, 8, 57, 80
3, 97799, Note_on_c, 8, 57, 0
3, 97800, Note_on_c, 8, 57, 80
3, 97919, Note_on_c, 8, 57, 0
3, 97920, Note_on_c, 8, 55, 80
3, 98159, Note_on_c, 8, 55, 0
3, 98160, Note_on_c, 8, 57, 80
3, 98399, Note_on_c, 8, 57, 0
3, 98640, Note_on_c, 8, 60, 80
3, 99119, Note_on_c, 8, 60, 0
3, 99120, Note_on_c, 8, 57, 80
3, 99359, Note_on_c, 8, 57, 0
3, 99360, Note_on_c, 8, 60, 80
3, 99599, Note_on_c, 8, 60, 0
3, 99600, Note_on_c, 8, 62, 80
3, 99839, Note_on_c, 8, 62, 0
3, 99840, Note_on_c, 8, 62, 80
3, 100079, Note_on_c, 8, 62, 0
3, 100080, Note_on_c, 8, 60, 80
3, 100319, Note_on_c, 8, 60, 0
3, 100320, Note_on_c, 8, 57, 80
3, 100559, Note_on_c, 8, 57, 0
3, 100560, Note_on_c, 8, 55, 80
3, 100799, Note_on_c, 8, 55, 0
3, 100800, Note_on_c, 8, 57, 80
3, 101039, Note_on_c, 8, 57, 0
3, 101040, Note_on_c, 8, 57, 80
3, 101159, Note_on_c, 8, 57, 0
3, 101160, Note_on_c, 8, 57, 80
3, 101279, Note_on_c, 8, 57, 0
3, 101280, Note_on_c, 8, 57, 80
3, 101519, Note_on_c, 8, 57, 0
3, 101520, Note_on_c, 8, 57, 80
3, 101639, Note_on_c, 8, 57, 0
3, 101640, Note_on_c, 8, 57, 80
3, 101759, Note_on_c, 8, 57, 0
3, 101760, Note_on_c, 8, 55, 80
3, 101999, Note_on_c, 8, 55, 0
3, 102000, Note_on_c, 8, 57, 80
3, 102239, Note_on_c, 8, 57, 0
3, 102480, Note_on_c, 8, 60, 80
3, 102959, Note_on_c, 8, 60, 0
3, 102960, Note_on_c, 8, 57, 80
3, 103199, Note_on_c, 8, 57, 0
3, 103200, Note_on_c, 8, 60, 80
3, 103439, Note_on_c, 8, 60, 0
3, 103440, Note_on_c, 8, 62, 80
3, 103679, Note_on_c, 8, 62, 0
3, 103680, Note_on_c, 8, 62, 80
3, 103919, Note_on_c, 8, 62, 0
3, 103920, Note_on_c, 8, 60, 80
3, 104159, Note_on_c, 8, 60, 0
3, 104160, Note_on_c, 8, 57, 80
3, 104399, Note_on_c, 8, 57, 0
3, 104400, Note_on_c, 8, 55, 80
3, 104639, Note_on_c, 8, 55, 0
3, 104640, Note_on_c, 8, 57, 80
3, 104879, Note_on_c, 8, 57, 0
3, 104880, Note_on_c, 8, 57, 80
3, 104999, Note_on_c, 8, 57, 0
3, 105000, Note_on_c, 8, 57, 80
3, 105119, Note_on_c, 8, 57, 0
3, 105120, Note_on_c, 8, 57, 80
3, 105359, Note_on_c, 8, 57, 0
3, 105360, Note_on_c, 8, 57, 80
3, 105479, Note_on_c, 8, 57, 0
3, 105480, Note_on_c, 8, 57, 80
3, 105599, Note_on_c, 8, 57, 0
3, 105600, Note_on_c, 8, 55, 80
3, 105839, Note_on_c, 8, 55, 0
3, 105840, Note_on_c, 8, 57, 80
3, 106079, Note_on_c, 8, 57, 0
3, 106320, Note_on_c, 8, 60, 80
3, 106799, Note_on_c, 8, 60, 0
3, 106800, Note_on_c, 8, 57, 80
3, 107039, Note_on_c, 8, 57, 0
3, 107040, Note_on_c, 8, 60, 80
3, 107279, Note_on_c, 8, 60, 0
3, 107280, Note_on_c, 8, 62, 80
3, 107519, Note_on_c, 8, 62, 0
3, 107520, Note_on_c, 8, 62, 80
3, 107759, Note_on_c, 8, 62, 0
3, 107760, Note_on_c, 8, 60, 80
3, 107999, Note_on_c, 8, 60, 0
3, 108000, Note_on_c, 8, 57, 80
3, 108239, Note_on_c, 8, 57, 0
3, 108240, Note_on_c, 8, 55, 80
3, 108479, Note_on_c, 8, 55, 0
3, 108480, Note_on_c, 8, 57, 80
3, 108959, Note_on_c, 8, 57, 0
3, 108960, Note_on_c, 8, 57, 80
3, 109439, Note_on_c, 8, 57, 0
3, 109440, Note_on_c, 8, 55, 80
3, 109679, Note_on_c, 8, 55, 0
3, 109680, Note_on_c, 8, 57, 80
3, 109919, Note_on_c, 8, 57, 0
3, 110160, Note_on_c, 8, 60, 80
3, 110639, Note_on_c, 8, 60, 0
3, 110640, Note_on_c, 8, 57, 80
3, 110879, Note_on_c, 8, 57, 0
3, 110880, Note_on_c, 8, 60, 80
3, 111119, Note_on_c, 8, 60, 0
3, 111120, Note_on_c, 8, 62, 80
3, 111359, Note_on_c, 8, 62, 0
3, 111360, Note_on_c, 8, 62, 80
3, 111599, Note_on_c, 8, 62, 0
3, 111600, Note_on_c, 8, 60, 80
3, 111839, Note_on_c, 8, 60, 0
3, 111840, Note_on_c, 8, 57, 80
3, 112079, Note_on_c, 8, 57, 0
3, 112080, Note_on_c, 8, 55, 80
3, 112319, Note_on_c, 8, 55, 0
3, 112320, Note_on_c, 8, 57, 80
3, 112799, Note_on_c, 8, 57, 0
3, 112800, Note_on_c, 8, 57, 80
3, 113279, Note_on_c, 8, 57, 0
3, 113280, Note_on_c, 8, 55, 80
3, 113519, Note_on_c, 8, 55, 0
3, 113520, Note_on_c, 8, 57, 80
3, 113759, Note_on_c, 8, 57, 0
3, 114000, Note_on_c, 8, 60, 80
3, 114479, Note_on_c, 8, 60, 0
3, 114480, Note_on_c, 8, 57, 80
3, 114719, Note_on_c, 8, 57, 0
3, 114720, Note_on_c, 8, 60, 80
3, 114959, Note_on_c, 8, 60, 0
3, 114960, Note_on_c, 8, 62, 80
3, 115199, Note_on_c, 8, 62, 0
3, 115200, Note_on_c, 8, 62, 80
3, 115439, Note_on_c, 8, 62, 0
3, 115440, Note_on_c, 8, 60, 80
3, 115679, Note_on_c, 8, 60, 0
3, 115680, Note_on_c, 8, 57, 80
3, 116159, Note_on_c, 8, 57, 0
3, 160320, Note_on_c, 8, 53, 80
3, 160799, Note_on_c, 8, 53, 0
3, 160800, Note_on_c, 8, 53, 80
3, 161279, Note_on_c, 8, 53, 0
3, 161280, Note_on_c, 8, 53, 80
3, 161759, Note_on_c, 8, 53, 0
3, 161760, Note_on_c, 8, 53, 80
3, 162239, Note_on_c, 8, 53, 0
3, 162240, Note_on_c, 8, 55, 80
3, 162719, Note_on_c, 8, 55, 0
3, 162720, Note_on_c, 8, 55, 80
3, 163199, Note_on_c, 8, 55, 0
3, 163200, Note_on_c, 8, 55, 80
3, 163679, Note_on_c, 8, 55, 0
3, 163680, Note_on_c, 8, 55, 80
3, 164159, Note_on_c, 8, 55, 0
3, 164160, Note_on_c, 8, 52, 80
3, 164639, Note_on_c, 8, 52, 0
3, 164640, Note_on_c, 8, 52, 80
3, 165119, Note_on_c, 8, 52, 0
3, 165120, Note_on_c, 8, 52, 80
3, 165599, Note_on_c, 8, 52, 0
3, 165600, Note_on_c, 8, 52, 80
3, 166079, Note_on_c, 8, 52, 0
3, 166080, Note_on_c, 8, 57, 80
3, 166559, Note_on_c, 8, 57, 0
3, 166560, Note_on_c, 8, 57, 80
3, 167039, Note_on_c, 8, 57, 0
3, 167040, Note_on_c, 8, 57, 80
3, 167519, Note_on_c, 8, 57, 0
3, 167520, Note_on_c, 8, 55, 80
3, 167999, Note_on_c, 8, 55, 0
3, 168000, Note_on_c, 8, 53, 80
3, 168479, Note_on_c, 8, 53, 0
3, 168480, Note_on_c, 8, 53, 80
3, 168959, Note_on_c, 8, 53, 0
3, 168960, Note_on_c, 8, 53, 80
3, 169439, Note_on_c, 8, 53, 0
3, 169440, Note_on_c, 8, 53, 80
3, 169919, Note_on_c, 8, 53, 0
3, 169920, Note_on_c, 8, 52, 80
3, 170399, Note_on_c, 8, 52, 0
3, 170400, Note_on_c, 8, 52, 80
3, 170879, Note_on_c, 8, 52, 0
3, 170880, Note_on_c, 8, 59, 80
3, 171359, Note_on_c, 8, 59, 0
3, 171360, Note_on_c, 8, 59, 80
3, 171839, Note_on_c, 8, 59, 0
3, 171840, Note_on_c, 8, 57, 80
3, 172319, Note_on_c, 8, 57, 0
3, 172320, Note_on_c, 8, 57, 80
3, 172799, Note_on_c, 8, 57, 0
3, 172800, Note_on_c, 8, 57, 80
3, 173279, Note_on_c, 8, 57, 0
3, 173280, Note_on_c, 8, 57, 80
3, 173759, Note_on_c, 8, 57, 0
3, 173760, Note_on_c, 8, 55, 80
3, 174239, Note_on_c, 8, 55, 0
3, 174240, Note_on_c, 8, 55, 80
3, 174719, Note_on_c, 8, 55, 0
3, 174720, Note_on_c, 8, 60, 80
3, 175199, Note_on_c, 8, 60, 0
3, 175200, Note_on_c, 8, 60, 80
3, 175679, Note_on_c, 8, 60, 0
3, 175680, Note_on_c, 8, 53, 80
3, 176159, Note_on_c, 8, 53, 0
3, 176160, Note_on_c, 8, 53, 80
3, 176639, Note_on_c, 8, 53, 0
3, 176640, Note_on_c, 8, 53, 80
3, 177119, Note_on_c, 8, 53, 0
3, 177120, Note_on_c, 8, 53, 80
3, 177599, Note_on_c, 8, 53, 0
3, 177600, Note_on_c, 8, 55, 80
3, 178079, Note_on_c, 8, 55, 0
3, 178080, Note_on_c, 8, 55, 80
3, 178559, Note_on_c, 8, 55, 0
3, 178560, Note_on_c, 8, 55, 80
3, 179039, Note_on_c, 8, 55, 0
3, 179040, Note_on_c, 8, 55, 80
3, 179279, Note_on_c, 8, 55, 0
3, 179280, Note_on_c, 8, 53, 80
3, 179519, Note_on_c, 8, 53, 0
3, 179520, Note_on_c, 8, 52, 80
3, 179999, Note_on_c, 8, 52, 0
3, 180000, Note_on_c, 8, 52, 80
3, 180479, Note_on_c, 8, 52, 0
3, 180480, Note_on_c, 8, 59, 80
3, 180959, Note_on_c, 8, 59, 0
3, 180960, Note_on_c, 8, 59, 80
3, 181439, Note_on_c, 8, 59, 0
3, 181440, Note_on_c, 8, 57, 80
3, 181919, Note_on_c, 8, 57, 0
3, 181920, Note_on_c, 8, 60, 80
3, 182399, Note_on_c, 8, 60, 0
3, 182400, Note_on_c, 8, 57, 80
3, 182879, Note_on_c, 8, 57, 0
3, 182880, Note_on_c, 8, 60, 80
3, 183359, Note_on_c, 8, 60, 0
3, 183360, Note_on_c, 8, 53, 80
3, 183839, Note_on_c, 8, 53, 0
3, 183840, Note_on_c, 8, 53, 80
3, 184319, Note_on_c, 8, 53, 0
3, 184320, Note_on_c, 8, 53, 80
3, 184799, Note_on_c, 8, 53, 0
3, 184800, Note_on_c, 8, 53, 80
3, 185279, Note_on_c, 8, 53, 0
3, 185280, Note_on_c, 8, 55, 80
3, 185759, Note_on_c, 8, 55, 0
3, 185760, Note_on_c, 8, 55, 80
3, 186239, Note_on_c, 8, 55, 0
3, 186240, Note_on_c, 8, 55, 80
3, 186719, Note_on_c, 8, 55, 0
3, 187200, Note_on_c, 8, 53, 80
3, 187679, Note_on_c, 8, 53, 0
3, 187680, Note_on_c, 8, 53, 80
3, 188159, Note_on_c, 8, 53, 0
3, 188160, Note_on_c, 8, 53, 80
3, 188639, Note_on_c, 8, 53, 0
3, 188640, Note_on_c, 8, 53, 80
3, 189119, Note_on_c, 8, 53, 0
3, 189120, Note_on_c, 8, 55, 80
3, 189599, Note_on_c, 8, 55, 0
3, 189600, Note_on_c, 8, 55, 80
3, 190079, Note_on_c, 8, 55, 0
3, 190080, Note_on_c, 8, 55, 80
3, 190559, Note_on_c, 8, 55, 0
3, 190560, Note_on_c, 8, 55, 80
3, 191039, Note_on_c, 8, 55, 0
3, 191040, Note_on_c, 8, 52, 80
3, 191519, Note_on_c, 8, 52, 0
3, 191520, Note_on_c, 8, 52, 80
3, 191999, Note_on_c, 8, 52, 0
3, 192000, Note_on_c, 8, 52, 80
3, 192479, Note_on_c, 8, 52, 0
3, 192480, Note_on_c, 8, 52, 80
3, 192959, Note_on_c, 8, 52, 0
3, 192960, Note_on_c, 8, 57, 80
3, 193439, Note_on_c, 8, 57, 0
3, 193440, Note_on_c, 8, 57, 80
3, 193919, Note_on_c, 8, 57, 0
3, 193920, Note_on_c, 8, 57, 80
3, 194399, Note_on_c, 8, 57, 0
3, 194400, Note_on_c, 8, 55, 80
3, 194879, Note_on_c, 8, 55, 0
3, 194880, Note_on_c, 8, 53, 80
3, 195359, Note_on_c, 8, 53, 0
3, 195360, Note_on_c, 8, 53, 80
3, 195839, Note_on_c, 8, 53, 0
3, 195840, Note_on_c, 8, 53, 80
3, 196319, Note_on_c, 8, 53, 0
3, 196320, Note_on_c, 8, 53, 80
3, 196799, Note_on_c, 8, 53, 0
3, 196800, Note_on_c, 8, 52, 80
3, 197279, Note_on_c, 8, 52, 0
3, 197280, Note_on_c, 8, 52, 80
3, 197759, Note_on_c, 8, 52, 0
3, 197760, Note_on_c, 8, 52, 80
3, 198239, Note_on_c, 8, 52, 0
3, 198240, Note_on_c, 8, 52, 80
3, 198719, Note_on_c, 8, 52, 0
3, 198720, Note_on_c, 8, 57, 80
3, 199199, Note_on_c, 8, 57, 0
3, 199200, Note_on_c, 8, 57, 80
3, 199679, Note_on_c, 8, 57, 0
3, 199680, Note_on_c, 8, 57, 80
3, 200159, Note_on_c, 8, 57, 0
3, 200160, Note_on_c, 8, 57, 80
3, 200639, Note_on_c, 8, 57, 0
3, 200640, Note_on_c, 8, 55, 80
3, 201119, Note_on_c, 8, 55, 0
3, 201120, Note_on_c, 8, 55, 80
3, 201599, Note_on_c, 8, 55, 0
3, 201600, Note_on_c, 8, 60, 80
3, 202079, Note_on_c, 8, 60, 0
3, 202080, Note_on_c, 8, 60, 80
3, 202559, Note_on_c, 8, 60, 0
3, 202560, Note_on_c, 8, 53, 80
3, 203039, Note_on_c, 8, 53, 0
3, 203040, Note_on_c, 8, 53, 80
3, 203519, Note_on_c, 8, 53, 0
3, 203520, Note_on_c, 8, 53, 80
3, 203999, Note_on_c, 8, 53, 0
3, 204000, Note_on_c, 8, 53, 80
3, 204479, Note_on_c, 8, 53, 0
3, 204480, Note_on_c, 8, 55, 80
3, 204959, Note_on_c, 8, 55, 0
3, 204960, Note_on_c, 8, 55, 80
3, 205439, Note_on_c, 8, 55, 0
3, 205440, Note_on_c, 8, 55, 80
3, 205919, Note_on_c, 8, 55, 0
3, 205920, Note_on_c, 8, 55, 80
3, 206399, Note_on_c, 8, 55, 0
3, 206400, Note_on_c, 8, 52, 80
3, 206879, Note_on_c, 8, 52, 0
3, 206880, Note_on_c, 8, 52, 80
3, 207359, Note_on_c, 8, 52, 0
3, 207360, Note_on_c, 8, 52, 80
3, 207839, Note_on_c, 8, 52, 0
3, 207840, Note_on_c, 8, 52, 80
3, 208319, Note_on_c, 8, 52, 0
3, 208320, Note_on_c, 8, 57, 80
3, 208799, Note_on_c, 8, 57, 0
3, 208800, Note_on_c, 8, 57, 80
3, 209279, Note_on_c, 8, 57, 0
3, 209280, Note_on_c, 8, 57, 80
3, 209759, Note_on_c, 8, 57, 0
3, 209760, Note_on_c, 8, 57, 80
3, 210239, Note_on_c, 8, 57, 0
3, 210240, Note_on_c, 8, 53, 80
3, 210719, Note_on_c, 8, 53, 0
3, 210720, Note_on_c, 8, 53, 80
3, 211199, Note_on_c, 8, 53, 0
3, 211200, Note_on_c, 8, 53, 80
3, 211679, Note_on_c, 8, 53, 0
3, 211680, Note_on_c, 8, 53, 80
3, 212159, Note_on_c, 8, 53, 0
3, 212160, Note_on_c, 8, 55, 80
3, 212639, Note_on_c, 8, 55, 0
3, 212640, Note_on_c, 8, 55, 80
3, 213119, Note_on_c, 8, 55, 0
3, 213120, Note_on_c, 8, 55, 80
3, 213599, Note_on_c, 8, 55, 0
3, 213600, End_track
4, 0, Start_track
4, 0, Title_t, "Bell\000"
4, 0, Key_signature, 0, "major"
4, 0, Control_c, 4, 121, 0
4, 0, Program_c, 4, 14
4, 0, Control_c, 4, 7, 100
4, 0, Control_c, 4, 10, 64
4, 0, Control_c, 4, 91, 0
4, 0, Control_c, 4, 93, 0
4, 0, MIDI_port, 0
4, 47040, Key_signature, 0, "major"
4, 47041, End_track
5, 0, Start_track
5, 0, Title_t, "Classical Guitar, Saw Synthesizer, Synthesizer\000"
5, 0, Key_signature, 0, "major"
5, 0, Control_c, 7, 121, 0
5, 0, Program_c, 7, 24
5, 0, Control_c, 7, 7, 100
5, 0, Control_c, 7, 10, 64
5, 0, Control_c, 7, 91, 0
5, 0, Control_c, 7, 93, 0
5, 0, MIDI_port, 0
5, 0, Control_c, 3, 121, 0
5, 0, Program_c, 3, 28
5, 0, Control_c, 3, 7, 100
5, 0, Control_c, 3, 10, 64
5, 0, Control_c, 3, 91, 0
5, 0, Control_c, 3, 93, 0
5, 0, MIDI_port, 0
5, 960, Note_on_c, 7, 57, 80
5, 1199, Note_on_c, 7, 57, 0
5, 1200, Note_on_c, 7, 57, 80
5, 1439, Note_on_c, 7, 57, 0
5, 1440, Note_on_c, 7, 69, 80
5, 1679, Note_on_c, 7, 69, 0
5, 1680, Note_on_c, 7, 57, 80
5, 1919, Note_on_c, 7, 57, 0
5, 2160, Note_on_c, 7, 57, 80
5, 2399, Note_on_c, 7, 57, 0
5, 2400, Note_on_c, 7, 69, 80
5, 2639, Note_on_c, 7, 69, 0
5, 2640, Note_on_c, 7, 57, 80
5, 2879, Note_on_c, 7, 57, 0
5, 3120, Note_on_c, 7, 57, 80
5, 3359, Note_on_c, 7, 57, 0
5, 3360, Note_on_c, 7, 69, 80
5, 3599, Note_on_c, 7, 69, 0
5, 3600, Note_on_c, 7, 57, 80
5, 3839, Note_on_c, 7, 57, 0
5, 4080, Note_on_c, 7, 57, 80
5, 4319, Note_on_c, 7, 57, 0
5, 4320, Note_on_c, 7, 69, 80
5, 4559, Note_on_c, 7, 69, 0
5, 4560, Note_on_c, 7, 57, 80
5, 4799, Note_on_c, 7, 57, 0
5, 4800, Note_on_c, 7, 57, 80
5, 5039, Note_on_c, 7, 57, 0
5, 5040, Note_on_c, 7, 57, 80
5, 5279, Note_on_c, 7, 57, 0
5, 5280, Note_on_c, 7, 69, 80
5, 5519, Note_on_c, 7, 69, 0
5, 5520, Note_on_c, 7, 57, 80
5, 5759, Note_on_c, 7, 57, 0
5, 6000, Note_on_c, 7, 57, 80
5, 6239, Note_on_c, 7, 57, 0
5, 6240, Note_on_c, 7, 69, 80
5, 6479, Note_on_c, 7, 69, 0
5, 6480, Note_on_c, 7, 57, 80
5, 6719, Note_on_c, 7, 57, 0
5, 6960, Note_on_c, 7, 57, 80
5, 7199, Note_on_c, 7, 57, 0
5, 7200, Note_on_c, 7, 69, 80
5, 7439, Note_on_c, 7, 69, 0
5, 7440, Note_on_c, 7, 57, 80
5, 7679, Note_on_c, 7, 57, 0
5, 7920, Note_on_c, 7, 57, 80
5, 8159, Note_on_c, 7, 57, 0
5, 8160, Note_on_c, 7, 69, 80
5, 8399, Note_on_c, 7, 69, 0
5, 8400, Note_on_c, 7, 57, 80
5, 8639, Note_on_c, 7, 57, 0
5, 8640, Note_on_c, 7, 53, 80
5, 8879, Note_on_c, 7, 53, 0
5, 8880, Note_on_c, 7, 53, 80
5, 9119, Note_on_c, 7, 53, 0
5, 9120, Note_on_c, 7, 65, 80
5, 9359, Note_on_c, 7, 65, 0
5, 9360, Note_on_c, 7, 53, 80
5, 9599, Note_on_c, 7, 53, 0
5, 9840, Note_on_c, 7, 53, 80
5, 10079, Note_on_c, 7, 53, 0
5, 10080, Note_on_c, 7, 65, 80
5, 10319, Note_on_c, 7, 65, 0
5, 10320, Note_on_c, 7, 53, 80
5, 10559, Note_on_c, 7, 53, 0
5, 10800, Note_on_c, 7, 52, 80
5, 11039, Note_on_c, 7, 52, 0
5, 11040, Note_on_c, 7, 64, 80
5, 11279, Note_on_c, 7, 64, 0
5, 11280, Note_on_c, 7, 52, 80
5, 11519, Note_on_c, 7, 52, 0
5, 11760, Note_on_c, 7, 52, 80
5, 11999, Note_on_c, 7, 52, 0
5, 12000, Note_on_c, 7, 64, 80
5, 12239, Note_on_c, 7, 64, 0
5, 12240, Note_on_c, 7, 52, 80
5, 12479, Note_on_c, 7, 52, 0
5, 12480, Note_on_c, 7, 57, 80
5, 12719, Note_on_c, 7, 57, 0
5, 12720, Note_on_c, 7, 57, 80
5, 12959, Note_on_c, 7, 57, 0
5, 12960, Note_on_c, 7, 69, 80
5, 13199, Note_on_c, 7, 69, 0
5, 13200, Note_on_c, 7, 57, 80
5, 13439, Note_on_c, 7, 57, 0
5, 13680, Note_on_c, 7, 57, 80
5, 13919, Note_on_c, 7, 57, 0
5, 13920, Note_on_c, 7, 69, 80
5, 14159, Note_on_c, 7, 69, 0
5, 14160, Note_on_c, 7, 57, 80
5, 14399, Note_on_c, 7, 57, 0
5, 16320, Note_on_c, 7, 57, 80
5, 16559, Note_on_c, 7, 57, 0
5, 16560, Note_on_c, 7, 57, 80
5, 16799, Note_on_c, 7, 57, 0
5, 16800, Note_on_c, 7, 69, 80
5, 17039, Note_on_c, 7, 69, 0
5, 17040, Note_on_c, 7, 57, 80
5, 17279, Note_on_c, 7, 57, 0
5, 17520, Note_on_c, 7, 57, 80
5, 17759, Note_on_c, 7, 57, 0
5, 17760, Note_on_c, 7, 69, 80
5, 17999, Note_on_c, 7, 69, 0
5, 18000, Note_on_c, 7, 57, 80
5, 18239, Note_on_c, 7, 57, 0
5, 18480, Note_on_c, 7, 57, 80
5, 18719, Note_on_c, 7, 57, 0
5, 18720, Note_on_c, 7, 69, 80
5, 18959, Note_on_c, 7, 69, 0
5, 18960, Note_on_c, 7, 57, 80
5, 19199, Note_on_c, 7, 57, 0
5, 19440, Note_on_c, 7, 57, 80
5, 19679, Note_on_c, 7, 57, 0
5, 19680, Note_on_c, 7, 69, 80
5, 19919, Note_on_c, 7, 69, 0
5, 19920, Note_on_c, 7, 57, 80
5, 20159, Note_on_c, 7, 57, 0
5, 20160, Note_on_c, 7, 57, 80
5, 20399, Note_on_c, 7, 57, 0
5, 20400, Note_on_c, 7, 57, 80
5, 20639, Note_on_c, 7, 57, 0
5, 20640, Note_on_c, 7, 69, 80
5, 20879, Note_on_c, 7, 69, 0
5, 20880, Note_on_c, 7, 57, 80
5, 21119, Note_on_c, 7, 57, 0
5, 21360, Note_on_c, 7, 57, 80
5, 21599, Note_on_c, 7, 57, 0
5, 21600, Note_on_c, 7, 69, 80
5, 21839, Note_on_c, 7, 69, 0
5, 21840, Note_on_c, 7, 57, 80
5, 22079, Note_on_c, 7, 57, 0
5, 22320, Note_on_c, 7, 57, 80
5, 22559, Note_on_c, 7, 57, 0
5, 22560, Note_on_c, 7, 69, 80
5, 22799, Note_on_c, 7, 69, 0
5, 22800, Note_on_c, 7, 57, 80
5, 23039, Note_on_c, 7, 57, 0
5, 23280, Note_on_c, 7, 57, 80
5, 23519, Note_on_c, 7, 57, 0
5, 23520, Note_on_c, 7, 69, 80
5, 23759, Note_on_c, 7, 69, 0
5, 23760, Note_on_c, 7, 57, 80
5, 23999, Note_on_c, 7, 57, 0
5, 24000, Note_on_c, 7, 53, 80
5, 24239, Note_on_c, 7, 53, 0
5, 24240, Note_on_c, 7, 53, 80
5, 24479, Note_on_c, 7, 53, 0
5, 24480, Note_on_c, 7, 65, 80
5, 24719, Note_on_c, 7, 65, 0
5, 24720, Note_on_c, 7, 53, 80
5, 24959, Note_on_c, 7, 53, 0
5, 25200, Note_on_c, 7, 53, 80
5, 25439, Note_on_c, 7, 53, 0
5, 25440, Note_on_c, 7, 65, 80
5, 25679, Note_on_c, 7, 65, 0
5, 25680, Note_on_c, 7, 53, 80
5, 25919, Note_on_c, 7, 53, 0
5, 26160, Note_on_c, 7, 52, 80
5, 26399, Note_on_c, 7, 52, 0
5, 26400, Note_on_c, 7, 64, 80
5, 26639, Note_on_c, 7, 64, 0
5, 26640, Note_on_c, 7, 52, 80
5, 26879, Note_on_c, 7, 52, 0
5, 27120, Note_on_c, 7, 52, 80
5, 27359, Note_on_c, 7, 52, 0
5, 27360, Note_on_c, 7, 64, 80
5, 27599, Note_on_c, 7, 64, 0
5, 27600, Note_on_c, 7, 52, 80
5, 27839, Note_on_c, 7, 52, 0
5, 27840, Note_on_c, 7, 57, 80
5, 28079, Note_on_c, 7, 57, 0
5, 28080, Note_on_c, 7, 57, 80
5, 28319, Note_on_c, 7, 57, 0
5, 28320, Note_on_c, 7, 69, 80
5, 28559, Note_on_c, 7, 69, 0
5, 28560, Note_on_c, 7, 57, 80
5, 28799, Note_on_c, 7, 57, 0
5, 29040, Note_on_c, 7, 57, 80
5, 29279, Note_on_c, 7, 57, 0
5, 29280, Note_on_c, 7, 69, 80
5, 29519, Note_on_c, 7, 69, 0
5, 29520, Note_on_c, 7, 57, 80
5, 29759, Note_on_c, 7, 57, 0
5, 30000, Note_on_c, 7, 57, 80
5, 30239, Note_on_c, 7, 57, 0
5, 30240, Note_on_c, 7, 69, 80
5, 30479, Note_on_c, 7, 69, 0
5, 30480, Note_on_c, 7, 57, 80
5, 30719, Note_on_c, 7, 57, 0
5, 30960, Note_on_c, 7, 57, 80
5, 31199, Note_on_c, 7, 57, 0
5, 31200, Note_on_c, 7, 69, 80
5, 31439, Note_on_c, 7, 69, 0
5, 31440, Note_on_c, 7, 57, 80
5, 31679, Note_on_c, 7, 57, 0
5, 47040, Key_signature, 0, "major"
5, 47040, Note_on_c, 7, 57, 80
5, 47519, Note_on_c, 7, 57, 0
5, 47520, Note_on_c, 7, 57, 80
5, 47999, Note_on_c, 7, 57, 0
5, 48000, Note_on_c, 7, 57, 80
5, 48479, Note_on_c, 7, 57, 0
5, 48480, Note_on_c, 7, 57, 80
5, 48959, Note_on_c, 7, 57, 0
5, 48960, Note_on_c, 7, 55, 80
5, 49439, Note_on_c, 7, 55, 0
5, 49440, Note_on_c, 7, 55, 80
5, 49919, Note_on_c, 7, 55, 0
5, 49920, Note_on_c, 7, 55, 80
5, 50399, Note_on_c, 7, 55, 0
5, 50400, Note_on_c, 7, 55, 80
5, 50879, Note_on_c, 7, 55, 0
5, 50880, Note_on_c, 7, 52, 80
5, 51359, Note_on_c, 7, 52, 0
5, 51360, Note_on_c, 7, 52, 80
5, 51839, Note_on_c, 7, 52, 0
5, 51840, Note_on_c, 7, 52, 80
5, 52319, Note_on_c, 7, 52, 0
5, 52320, Note_on_c, 7, 52, 80
5, 52799, Note_on_c, 7, 52, 0
5, 52800, Note_on_c, 7, 57, 80
5, 53279, Note_on_c, 7, 57, 0
5, 53280, Note_on_c, 7, 57, 80
5, 53759, Note_on_c, 7, 57, 0
5, 53760, Note_on_c, 7, 57, 80
5, 54239, Note_on_c, 7, 57, 0
5, 54240, Note_on_c, 7, 57, 80
5, 54719, Note_on_c, 7, 57, 0
5, 54720, Note_on_c, 7, 57, 80
5, 55199, Note_on_c, 7, 57, 0
5, 55200, Note_on_c, 7, 57, 80
5, 55679, Note_on_c, 7, 57, 0
5, 55680, Note_on_c, 7, 57, 80
5, 56159, Note_on_c, 7, 57, 0
5, 56160, Note_on_c, 7, 57, 80
5, 56639, Note_on_c, 7, 57, 0
5, 56640, Note_on_c, 7, 52, 80
5, 57119, Note_on_c, 7, 52, 0
5, 57120, Note_on_c, 7, 52, 80
5, 57599, Note_on_c, 7, 52, 0
5, 57600, Note_on_c, 7, 59, 80
5, 58079, Note_on_c, 7, 59, 0
5, 58080, Note_on_c, 7, 59, 80
5, 58559, Note_on_c, 7, 59, 0
5, 58560, Note_on_c, 7, 57, 80
5, 59039, Note_on_c, 7, 57, 0
5, 59040, Note_on_c, 7, 57, 80
5, 59519, Note_on_c, 7, 57, 0
5, 59520, Note_on_c, 7, 57, 80
5, 59999, Note_on_c, 7, 57, 0
5, 60000, Note_on_c, 7, 57, 80
5, 60479, Note_on_c, 7, 57, 0
5, 60480, Note_on_c, 7, 55, 80
5, 60959, Note_on_c, 7, 55, 0
5, 60960, Note_on_c, 7, 55, 80
5, 61439, Note_on_c, 7, 55, 0
5, 61440, Note_on_c, 7, 60, 80
5, 61919, Note_on_c, 7, 60, 0
5, 61920, Note_on_c, 7, 60, 80
5, 62399, Note_on_c, 7, 60, 0
5, 62400, Note_on_c, 7, 57, 80
5, 62879, Note_on_c, 7, 57, 0
5, 62880, Note_on_c, 7, 57, 80
5, 63359, Note_on_c, 7, 57, 0
5, 63360, Note_on_c, 7, 57, 80
5, 63839, Note_on_c, 7, 57, 0
5, 63840, Note_on_c, 7, 57, 80
5, 64319, Note_on_c, 7, 57, 0
5, 64320, Note_on_c, 7, 55, 80
5, 64799, Note_on_c, 7, 55, 0
5, 64800, Note_on_c, 7, 55, 80
5, 65279, Note_on_c, 7, 55, 0
5, 65280, Note_on_c, 7, 55, 80
5, 65759, Note_on_c, 7, 55, 0
5, 65760, Note_on_c, 7, 55, 80
5, 66239, Note_on_c, 7, 55, 0
5, 66240, Note_on_c, 7, 52, 80
5, 66719, Note_on_c, 7, 52, 0
5, 66720, Note_on_c, 7, 52, 80
5, 67199, Note_on_c, 7, 52, 0
5, 67200, Note_on_c, 7, 52, 80
5, 67679, Note_on_c, 7, 52, 0
5, 67680, Note_on_c, 7, 52, 80
5, 68159, Note_on_c, 7, 52, 0
5, 68160, Note_on_c, 7, 57, 80
5, 68639, Note_on_c, 7, 57, 0
5, 68640, Note_on_c, 7, 57, 80
5, 69119, Note_on_c, 7, 57, 0
5, 69120, Note_on_c, 7, 57, 80
5, 69599, Note_on_c, 7, 57, 0
5, 69600, Note_on_c, 7, 57, 80
5, 70079, Note_on_c, 7, 57, 0
5, 70080, Note_on_c, 7, 57, 80
5, 70559, Note_on_c, 7, 57, 0
5, 70560, Note_on_c, 7, 57, 80
5, 71039, Note_on_c, 7, 57, 0
5, 71040, Note_on_c, 7, 57, 80
5, 71519, Note_on_c, 7, 57, 0
5, 71520, Note_on_c, 7, 57, 80
5, 71999, Note_on_c, 7, 57, 0
5, 72000, Note_on_c, 7, 55, 80
5, 72479, Note_on_c, 7, 55, 0
5, 72480, Note_on_c, 7, 55, 80
5, 72959, Note_on_c, 7, 55, 0
5, 72960, Note_on_c, 7, 55, 80
5, 73439, Note_on_c, 7, 55, 0
5, 73440, Note_on_c, 7, 55, 80
5, 73919, Note_on_c, 7, 55, 0
5, 85440, Note_on_c, 7, 57, 80
5, 85679, Note_on_c, 7, 57, 0
5, 85680, Note_on_c, 7, 57, 80
5, 85919, Note_on_c, 7, 57, 0
5, 85920, Note_on_c, 7, 69, 80
5, 86159, Note_on_c, 7, 69, 0
5, 86160, Note_on_c, 7, 57, 80
5, 86399, Note_on_c, 7, 57, 0
5, 86640, Note_on_c, 7, 57, 80
5, 86879, Note_on_c, 7, 57, 0
5, 86880, Note_on_c, 7, 69, 80
5, 87119, Note_on_c, 7, 69, 0
5, 87120, Note_on_c, 7, 57, 80
5, 87359, Note_on_c, 7, 57, 0
5, 87600, Note_on_c, 7, 57, 80
5, 87839, Note_on_c, 7, 57, 0
5, 87840, Note_on_c, 7, 69, 80
5, 88079, Note_on_c, 7, 69, 0
5, 88080, Note_on_c, 7, 57, 80
5, 88319, Note_on_c, 7, 57, 0
5, 88560, Note_on_c, 7, 57, 80
5, 88799, Note_on_c, 7, 57, 0
5, 88800, Note_on_c, 7, 69, 80
5, 89039, Note_on_c, 7, 69, 0
5, 89040, Note_on_c, 7, 57, 80
5, 89279, Note_on_c, 7, 57, 0
5, 89280, Note_on_c, 7, 60, 80
5, 89519, Note_on_c, 7, 60, 0
5, 89520, Note_on_c, 7, 60, 80
5, 89759, Note_on_c, 7, 60, 0
5, 89760, Note_on_c, 7, 72, 80
5, 89999, Note_on_c, 7, 72, 0
5, 90000, Note_on_c, 7, 60, 80
5, 90239, Note_on_c, 7, 60, 0
5, 90480, Note_on_c, 7, 60, 80
5, 90719, Note_on_c, 7, 60, 0
5, 90720, Note_on_c, 7, 72, 80
5, 90959, Note_on_c, 7, 72, 0
5, 90960, Note_on_c, 7, 60, 80
5, 91199, Note_on_c, 7, 60, 0
5, 91440, Note_on_c, 7, 60, 80
5, 91679, Note_on_c, 7, 60, 0
5, 91680, Note_on_c, 7, 72, 80
5, 91919, Note_on_c, 7, 72, 0
5, 91920, Note_on_c, 7, 60, 80
5, 92159, Note_on_c, 7, 60, 0
5, 92400, Note_on_c, 7, 60, 80
5, 92639, Note_on_c, 7, 60, 0
5, 92640, Note_on_c, 7, 72, 80
5, 92879, Note_on_c, 7, 72, 0
5, 92880, Note_on_c, 7, 60, 80
5, 93119, Note_on_c, 7, 60, 0
5, 93120, Note_on_c, 7, 65, 80
5, 93359, Note_on_c, 7, 65, 0
5, 93360, Note_on_c, 7, 65, 80
5, 93599, Note_on_c, 7, 65, 0
5, 93600, Note_on_c, 7, 77, 80
5, 93839, Note_on_c, 7, 77, 0
5, 93840, Note_on_c, 7, 65, 80
5, 94079, Note_on_c, 7, 65, 0
5, 94320, Note_on_c, 7, 65, 80
5, 94559, Note_on_c, 7, 65, 0
5, 94560, Note_on_c, 7, 77, 80
5, 94799, Note_on_c, 7, 77, 0
5, 94800, Note_on_c, 7, 65, 80
5, 95039, Note_on_c, 7, 65, 0
5, 95280, Note_on_c, 7, 65, 80
5, 95519, Note_on_c, 7, 65, 0
5, 95520, Note_on_c, 7, 77, 80
5, 95759, Note_on_c, 7, 77, 0
5, 95760, Note_on_c, 7, 65, 80
5, 95999, Note_on_c, 7, 65, 0
5, 96240, Note_on_c, 7, 65, 80
5, 96479, Note_on_c, 7, 65, 0
5, 96480, Note_on_c, 7, 77, 80
5, 96719, Note_on_c, 7, 77, 0
5, 96720, Note_on_c, 7, 65, 80
5, 96959, Note_on_c, 7, 65, 0
5, 96960, Note_on_c, 7, 62, 80
5, 97199, Note_on_c, 7, 62, 0
5, 97200, Note_on_c, 7, 62, 80
5, 97439, Note_on_c, 7, 62, 0
5, 97440, Note_on_c, 7, 74, 80
5, 97679, Note_on_c, 7, 74, 0
5, 97680, Note_on_c, 7, 62, 80
5, 97919, Note_on_c, 7, 62, 0
5, 98160, Note_on_c, 7, 62, 80
5, 98399, Note_on_c, 7, 62, 0
5, 98400, Note_on_c, 7, 74, 80
5, 98639, Note_on_c, 7, 74, 0
5, 98640, Note_on_c, 7, 81, 80
5, 99119, Note_on_c, 7, 81, 0
5, 99120, Note_on_c, 7, 81, 80
5, 99359, Note_on_c, 7, 81, 0
5, 99360, Note_on_c, 7, 81, 80
5, 99599, Note_on_c, 7, 81, 0
5, 99600, Note_on_c, 7, 81, 80
5, 99839, Note_on_c, 7, 81, 0
5, 99840, Note_on_c, 7, 81, 80
5, 100079, Note_on_c, 7, 81, 0
5, 100080, Note_on_c, 7, 81, 80
5, 100319, Note_on_c, 7, 81, 0
5, 100320, Note_on_c, 7, 81, 80
5, 100559, Note_on_c, 7, 81, 0
5, 100560, Note_on_c, 7, 81, 80
5, 100799, Note_on_c, 7, 81, 0
5, 100800, Note_on_c, 7, 81, 80
5, 101279, Note_on_c, 7, 81, 0
5, 101280, Note_on_c, 7, 69, 80
5, 101759, Note_on_c, 7, 69, 0
5, 101760, Note_on_c, 7, 72, 80
5, 101999, Note_on_c, 7, 72, 0
5, 102000, Note_on_c, 7, 74, 80
5, 102239, Note_on_c, 7, 74, 0
5, 102480, Note_on_c, 7, 76, 80
5, 102719, Note_on_c, 7, 76, 0
5, 103440, Note_on_c, 7, 74, 80
5, 103679, Note_on_c, 7, 74, 0
5, 103680, Note_on_c, 7, 74, 80
5, 103919, Note_on_c, 7, 74, 0
5, 103920, Note_on_c, 7, 76, 80
5, 104159, Note_on_c, 7, 76, 0
5, 104160, Note_on_c, 7, 74, 80
5, 104399, Note_on_c, 7, 74, 0
5, 104400, Note_on_c, 7, 72, 80
5, 104639, Note_on_c, 7, 72, 0
5, 104640, Note_on_c, 7, 81, 80
5, 105119, Note_on_c, 7, 81, 0
5, 105120, Note_on_c, 7, 81, 80
5, 105599, Note_on_c, 7, 81, 0
5, 105600, Note_on_c, 7, 79, 80
5, 105839, Note_on_c, 7, 79, 0
5, 105840, Note_on_c, 7, 81, 80
5, 106079, Note_on_c, 7, 81, 0
5, 106320, Note_on_c, 7, 76, 80
5, 106559, Note_on_c, 7, 76, 0
5, 106800, Note_on_c, 7, 81, 80
5, 107039, Note_on_c, 7, 81, 0
5, 107280, Note_on_c, 7, 76, 80
5, 107519, Note_on_c, 7, 76, 0
5, 107520, Note_on_c, 7, 79, 80
5, 107759, Note_on_c, 7, 79, 0
5, 107760, Note_on_c, 7, 81, 80
5, 107999, Note_on_c, 7, 81, 0
5, 108000, Note_on_c, 7, 81, 80
5, 108239, Note_on_c, 7, 81, 0
5, 108240, Note_on_c, 7, 81, 80
5, 108479, Note_on_c, 7, 81, 0
5, 108480, Note_on_c, 7, 81, 80
5, 108959, Note_on_c, 7, 81, 0
5, 108960, Note_on_c, 7, 76, 80
5, 109439, Note_on_c, 7, 76, 0
5, 109440, Note_on_c, 7, 74, 80
5, 109679, Note_on_c, 7, 74, 0
5, 109680, Note_on_c, 7, 72, 80
5, 109919, Note_on_c, 7, 72, 0
5, 110160, Note_on_c, 7, 81, 80
5, 110399, Note_on_c, 7, 81, 0
5, 110640, Note_on_c, 7, 76, 80
5, 110879, Note_on_c, 7, 76, 0
5, 111120, Note_on_c, 7, 76, 80
5, 111359, Note_on_c, 7, 76, 0
5, 111360, Note_on_c, 7, 74, 80
5, 111599, Note_on_c, 7, 74, 0
5, 111600, Note_on_c, 7, 76, 80
5, 111839, Note_on_c, 7, 76, 0
5, 111840, Note_on_c, 7, 74, 80
5, 112079, Note_on_c, 7, 74, 0
5, 112080, Note_on_c, 7, 72, 80
5, 112319, Note_on_c, 7, 72, 0
5, 112320, Note_on_c, 7, 69, 80
5, 112799, Note_on_c, 7, 69, 0
5, 112800, Note_on_c, 7, 81, 80
5, 113279, Note_on_c, 7, 81, 0
5, 113280, Note_on_c, 7, 79, 80
5, 113519, Note_on_c, 7, 79, 0
5, 113520, Note_on_c, 7, 81, 80
5, 113759, Note_on_c, 7, 81, 0
5, 114000, Note_on_c, 7, 76, 80
5, 114239, Note_on_c, 7, 76, 0
5, 114480, Note_on_c, 7, 81, 80
5, 114719, Note_on_c, 7, 81, 0
5, 114960, Note_on_c, 7, 64, 80
5, 115199, Note_on_c, 7, 64, 0
5, 115200, Note_on_c, 7, 67, 80
5, 115439, Note_on_c, 7, 67, 0
5, 115440, Note_on_c, 7, 69, 80
5, 116159, Note_on_c, 7, 69, 0
5, 116160, Note_on_c, 7, 57, 80
5, 116519, Note_on_c, 7, 57, 0
5, 116520, Note_on_c, 7, 57, 80
5, 116759, Note_on_c, 7, 57, 0
5, 116880, Note_on_c, 7, 57, 80
5, 117119, Note_on_c, 7, 57, 0
5, 117120, Note_on_c, 7, 60, 80
5, 117359, Note_on_c, 7, 60, 0
5, 117360, Note_on_c, 7, 57, 80
5, 117599, Note_on_c, 7, 57, 0
5, 117600, Note_on_c, 7, 60, 80
5, 117839, Note_on_c, 7, 60, 0
5, 117840, Note_on_c, 7, 64, 80
5, 118079, Note_on_c, 7, 64, 0
5, 118080, Note_on_c, 7, 65, 80
5, 118439, Note_on_c, 7, 65, 0
5, 118440, Note_on_c, 7, 65, 80
5, 118679, Note_on_c, 7, 65, 0
5, 118800, Note_on_c, 7, 65, 80
5, 119039, Note_on_c, 7, 65, 0
5, 119040, Note_on_c, 7, 64, 80
5, 119279, Note_on_c, 7, 64, 0
5, 119280, Note_on_c, 7, 65, 80
5, 119519, Note_on_c, 7, 65, 0
5, 119520, Note_on_c, 7, 64, 80
5, 119759, Note_on_c, 7, 64, 0
5, 119760, Note_on_c, 7, 60, 80
5, 119999, Note_on_c, 7, 60, 0
5, 120000, Note_on_c, 7, 57, 80
5, 120359, Note_on_c, 7, 57, 0
5, 120360, Note_on_c, 7, 57, 80
5, 120599, Note_on_c, 7, 57, 0
5, 120720, Note_on_c, 7, 57, 80
5, 120959, Note_on_c, 7, 57, 0
5, 120960, Note_on_c, 7, 60, 80
5, 121199, Note_on_c, 7, 60, 0
5, 121200, Note_on_c, 7, 57, 80
5, 121439, Note_on_c, 7, 57, 0
5, 121440, Note_on_c, 7, 60, 80
5, 121679, Note_on_c, 7, 60, 0
5, 121680, Note_on_c, 7, 64, 80
5, 121919, Note_on_c, 7, 64, 0
5, 121920, Note_on_c, 7, 65, 80
5, 122279, Note_on_c, 7, 65, 0
5, 122280, Note_on_c, 7, 65, 80
5, 122519, Note_on_c, 7, 65, 0
5, 122640, Note_on_c, 7, 65, 80
5, 122879, Note_on_c, 7, 65, 0
5, 122880, Note_on_c, 7, 64, 80
5, 123119, Note_on_c, 7, 64, 0
5, 123120, Note_on_c, 7, 65, 80
5, 123359, Note_on_c, 7, 65, 0
5, 123360, Note_on_c, 7, 64, 80
5, 123599, Note_on_c, 7, 64, 0
5, 123600, Note_on_c, 7, 60, 80
5, 123839, Note_on_c, 7, 60, 0
5, 123840, Note_on_c, 7, 57, 80
5, 124199, Note_on_c, 7, 57, 0
5, 124200, Note_on_c, 7, 57, 80
5, 124439, Note_on_c, 7, 57, 0
5, 124560, Note_on_c, 7, 57, 80
5, 124799, Note_on_c, 7, 57, 0
5, 124800, Note_on_c, 7, 60, 80
5, 125039, Note_on_c, 7, 60, 0
5, 125040, Note_on_c, 7, 57, 80
5, 125279, Note_on_c, 7, 57, 0
5, 125280, Note_on_c, 7, 60, 80
5, 125519, Note_on_c, 7, 60, 0
5, 125520, Note_on_c, 7, 64, 80
5, 125759, Note_on_c, 7, 64, 0
5, 125760, Note_on_c, 7, 65, 80
5, 126119, Note_on_c, 7, 65, 0
5, 126120, Note_on_c, 7, 65, 80
5, 126359, Note_on_c, 7, 65, 0
5, 126480, Note_on_c, 7, 65, 80
5, 126719, Note_on_c, 7, 65, 0
5, 126720, Note_on_c, 7, 64, 80
5, 126959, Note_on_c, 7, 64, 0
5, 126960, Note_on_c, 7, 65, 80
5, 127199, Note_on_c, 7, 65, 0
5, 127200, Note_on_c, 7, 64, 80
5, 127439, Note_on_c, 7, 64, 0
5, 127440, Note_on_c, 7, 60, 80
5, 127679, Note_on_c, 7, 60, 0
5, 127680, Note_on_c, 7, 57, 80
5, 128039, Note_on_c, 7, 57, 0
5, 128040, Note_on_c, 7, 57, 80
5, 128279, Note_on_c, 7, 57, 0
5, 128400, Note_on_c, 7, 57, 80
5, 128639, Note_on_c, 7, 57, 0
5, 128640, Note_on_c, 7, 60, 80
5, 128879, Note_on_c, 7, 60, 0
5, 128880, Note_on_c, 7, 57, 80
5, 129119, Note_on_c, 7, 57, 0
5, 129120, Note_on_c, 7, 60, 80
5, 129359, Note_on_c, 7, 60, 0
5, 129360, Note_on_c, 7, 64, 80
5, 129599, Note_on_c, 7, 64, 0
5, 129600, Note_on_c, 7, 65, 80
5, 129959, Note_on_c, 7, 65, 0
5, 129960, Note_on_c, 7, 65, 80
5, 130199, Note_on_c, 7, 65, 0
5, 130320, Note_on_c, 7, 65, 80
5, 130559, Note_on_c, 7, 65, 0
5, 130560, Note_on_c, 7, 64, 80
5, 131039, Note_on_c, 7, 64, 0
5, 214080, Note_on_c, 7, 57, 80
5, 214439, Note_on_c, 7, 57, 0
5, 214440, Note_on_c, 7, 57, 80
5, 214679, Note_on_c, 7, 57, 0
5, 214800, Note_on_c, 7, 57, 80
5, 215039, Note_on_c, 7, 57, 0
5, 215040, Note_on_c, 7, 60, 80
5, 215279, Note_on_c, 7, 60, 0
5, 215280, Note_on_c, 7, 57, 80
5, 215519, Note_on_c, 7, 57, 0
5, 215520, Note_on_c, 7, 60, 80
5, 215759, Note_on_c, 7, 60, 0
5, 215760, Note_on_c, 7, 64, 80
5, 215999, Note_on_c, 7, 64, 0
5, 216000, Note_on_c, 7, 65, 80
5, 216359, Note_on_c, 7, 65, 0
5, 216360, Note_on_c, 7, 65, 80
5, 216599, Note_on_c, 7, 65, 0
5, 216720, Note_on_c, 7, 65, 80
5, 216959, Note_on_c, 7, 65, 0
5, 216960, Note_on_c, 7, 64, 80
5, 217199, Note_on_c, 7, 64, 0
5, 217200, Note_on_c, 7, 65, 80
5, 217439, Note_on_c, 7, 65, 0
5, 217440, Note_on_c, 7, 64, 80
5, 217679, Note_on_c, 7, 64, 0
5, 217680, Note_on_c, 7, 60, 80
5, 217919, Note_on_c, 7, 60, 0
5, 217920, Note_on_c, 7, 57, 80
5, 218279, Note_on_c, 7, 57, 0
5, 218280, Note_on_c, 7, 57, 80
5, 218519, Note_on_c, 7, 57, 0
5, 218640, Note_on_c, 7, 57, 80
5, 218879, Note_on_c, 7, 57, 0
5, 218880, Note_on_c, 7, 60, 80
5, 219119, Note_on_c, 7, 60, 0
5, 219120, Note_on_c, 7, 57, 80
5, 219359, Note_on_c, 7, 57, 0
5, 219360, Note_on_c, 7, 60, 80
5, 219599, Note_on_c, 7, 60, 0
5, 219600, Note_on_c, 7, 64, 80
5, 219839, Note_on_c, 7, 64, 0
5, 219840, Note_on_c, 7, 65, 80
5, 220199, Note_on_c, 7, 65, 0
5, 220200, Note_on_c, 7, 65, 80
5, 220439, Note_on_c, 7, 65, 0
5, 220560, Note_on_c, 7, 65, 80
5, 220799, Note_on_c, 7, 65, 0
5, 220800, Note_on_c, 7, 64, 80
5, 221039, Note_on_c, 7, 64, 0
5, 221040, Note_on_c, 7, 65, 80
5, 221279, Note_on_c, 7, 65, 0
5, 221280, Note_on_c, 7, 64, 80
5, 221519, Note_on_c, 7, 64, 0
5, 221520, Note_on_c, 7, 60, 80
5, 221759, Note_on_c, 7, 60, 0
5, 221760, Note_on_c, 7, 57, 80
5, 222119, Note_on_c, 7, 57, 0
5, 222120, Note_on_c, 7, 57, 80
5, 222359, Note_on_c, 7, 57, 0
5, 222480, Note_on_c, 7, 57, 80
5, 222719, Note_on_c, 7, 57, 0
5, 222720, Note_on_c, 7, 60, 80
5, 222959, Note_on_c, 7, 60, 0
5, 222960, Note_on_c, 7, 57, 80
5, 223199, Note_on_c, 7, 57, 0
5, 223200, Note_on_c, 7, 60, 80
5, 223439, Note_on_c, 7, 60, 0
5, 223440, Note_on_c, 7, 64, 80
5, 223679, Note_on_c, 7, 64, 0
5, 223680, Note_on_c, 7, 65, 80
5, 224039, Note_on_c, 7, 65, 0
5, 224040, Note_on_c, 7, 65, 80
5, 224279, Note_on_c, 7, 65, 0
5, 224400, Note_on_c, 7, 65, 80
5, 224639, Note_on_c, 7, 65, 0
5, 224640, Note_on_c, 7, 64, 80
5, 224879, Note_on_c, 7, 64, 0
5, 224880, Note_on_c, 7, 65, 80
5, 225119, Note_on_c, 7, 65, 0
5, 225120, Note_on_c, 7, 64, 80
5, 225359, Note_on_c, 7, 64, 0
5, 225360, Note_on_c, 7, 60, 80
5, 225599, Note_on_c, 7, 60, 0
5, 225600, Note_on_c, 7, 57, 80
5, 225959, Note_on_c, 7, 57, 0
5, 225960, Note_on_c, 7, 57, 80
5, 226199, Note_on_c, 7, 57, 0
5, 226320, Note_on_c, 7, 57, 80
5, 226559, Note_on_c, 7, 57, 0
5, 226560, Note_on_c, 7, 60, 80
5, 226799, Note_on_c, 7, 60, 0
5, 226800, Note_on_c, 7, 57, 80
5, 227039, Note_on_c, 7, 57, 0
5, 227040, Note_on_c, 7, 60, 80
5, 227279, Note_on_c, 7, 60, 0
5, 227280, Note_on_c, 7, 64, 80
5, 227519, Note_on_c, 7, 64, 0
5, 227520, Note_on_c, 7, 65, 80
5, 227879, Note_on_c, 7, 65, 0
5, 227880, Note_on_c, 7, 65, 80
5, 228119, Note_on_c, 7, 65, 0
5, 228240, Note_on_c, 7, 65, 80
5, 228479, Note_on_c, 7, 65, 0
5, 228480, Note_on_c, 7, 64, 80
5, 228719, Note_on_c, 7, 64, 0
5, 228720, Note_on_c, 7, 52, 80
5, 228959, Note_on_c, 7, 52, 0
5, 228960, Note_on_c, 7, 55, 80
5, 229199, Note_on_c, 7, 55, 0
5, 229200, Note_on_c, 7, 57, 80
5, 229439, Note_on_c, 7, 57, 0
5, 229440, Note_on_c, 7, 57, 80
5, 229919, Note_on_c, 7, 57, 0
5, 229920, End_track
0, 0, End_of_file
